<?xml version="1.0" encoding="utf-8"?>
<!-- Generator: Adobe Illustrator 24.3.0, SVG Export Plug-In . SVG Version: 6.00 Build 0)  -->
<svg version="1.1" id="Слой_1" xmlns="http://www.w3.org/2000/svg" xmlns:xlink="http://www.w3.org/1999/xlink" x="0px" y="0px"
	 width="32px" height="13px" viewBox="0 0 32 13" enable-background="new 0 0 32 13" xml:space="preserve">
<g>
	<path fill="#383838" d="M19.786,0c0.004,0.003,0.006,0.008,0.004,0.013c-0.033,0.001-0.065,0.002-0.098,0.002
		c-2.452,0-4.904,0-7.356,0c-0.04,0-0.08,0-0.121,0c0-0.005,0-0.01-0.001-0.015C14.739,0,17.262,0,19.786,0z"/>
</g>
<g>
	<path d="M19.786,13c-2.524,0-5.047,0-7.571,0c-0.076-0.076-0.12-0.173-0.172-0.264c-0.225-0.395-0.457-0.786-0.686-1.179
		c-0.337-0.58-0.677-1.158-1.014-1.738C9.924,9.096,9.5,8.374,9.081,7.651C8.884,7.312,8.687,6.973,8.488,6.636
		C8.472,6.61,8.46,6.582,8.443,6.557c-0.03-0.044-0.022-0.082,0.003-0.125c0.427-0.725,0.849-1.453,1.273-2.18
		c0.524-0.901,1.05-1.801,1.574-2.702c0.288-0.495,0.574-0.991,0.867-1.483c0.02-0.034,0.038-0.066,0.086-0.058
		c2.502,0,5.005,0,7.507,0c0.043-0.005,0.069,0.014,0.091,0.051c0.21,0.354,0.413,0.713,0.622,1.068
		c0.218,0.37,0.433,0.742,0.65,1.113c0.234,0.402,0.467,0.804,0.701,1.205c0.283,0.483,0.565,0.968,0.847,1.452
		c0.229,0.393,0.46,0.784,0.687,1.179c0.061,0.107,0.119,0.216,0.188,0.317c0.05,0.073,0.047,0.134,0.003,0.207
		c-0.146,0.246-0.291,0.493-0.434,0.741c-0.279,0.483-0.561,0.964-0.842,1.446c-0.283,0.484-0.564,0.968-0.847,1.452
		c-0.23,0.392-0.457,0.787-0.687,1.179c-0.296,0.505-0.587,1.013-0.886,1.516C19.831,12.96,19.814,12.985,19.786,13z"/>
	<path d="M3,6.47c0.023,0.002,0.028-0.017,0.036-0.032c0.045-0.09,0.089-0.18,0.134-0.27C3.304,5.898,3.439,5.629,3.573,5.36
		C3.7,5.106,3.826,4.852,3.953,4.598C4.084,4.336,4.215,4.073,4.347,3.81C4.441,3.622,4.535,3.434,4.63,3.245
		c0.003-0.007,0.008-0.013,0.01-0.02c0.009-0.027,0.027-0.04,0.057-0.039c0.023,0.001,0.045-0.001,0.068-0.002
		c0.387-0.014,0.773-0.028,1.16-0.042c0.166-0.006,0.331-0.011,0.498-0.017C6.433,3.147,6.419,3.163,6.41,3.18
		C6.296,3.409,6.182,3.637,6.067,3.867C5.9,4.201,5.734,4.536,5.567,4.871c-0.13,0.261-0.26,0.521-0.39,0.781
		C5.061,5.883,4.945,6.114,4.83,6.346C4.821,6.364,4.814,6.383,4.803,6.4C4.788,6.424,4.791,6.445,4.803,6.47
		c0.12,0.251,0.24,0.503,0.359,0.754c0.094,0.197,0.186,0.395,0.28,0.592c0.153,0.322,0.306,0.644,0.459,0.966
		c0.125,0.263,0.25,0.526,0.376,0.788c0.043,0.091,0.088,0.18,0.132,0.271c0.009,0.018,0.021,0.034,0.02,0.056
		C6.424,9.9,6.421,9.905,6.417,9.905C6.269,9.893,6.122,9.88,5.974,9.868c-0.15-0.012-0.301-0.023-0.451-0.035
		C5.36,9.82,5.198,9.806,5.035,9.793C4.947,9.786,4.86,9.779,4.772,9.773C4.749,9.771,4.727,9.768,4.704,9.769
		C4.666,9.769,4.646,9.75,4.631,9.717C4.555,9.561,4.479,9.406,4.402,9.251C4.272,8.99,4.142,8.73,4.012,8.47
		C3.887,8.22,3.763,7.971,3.639,7.722c-0.134-0.27-0.268-0.539-0.403-0.809c-0.066-0.132-0.133-0.264-0.2-0.397
		C3.028,6.501,3.023,6.483,3,6.485C3,6.48,3,6.475,3,6.47z"/>
	<path fill="#383838" d="M19.786,0c0.004,0.003,0.006,0.008,0.004,0.013c-0.033,0.001-0.065,0.002-0.098,0.002
		c-2.452,0-4.904,0-7.356,0c-0.04,0-0.08,0-0.121,0c0-0.005,0-0.01-0.001-0.015C14.739,0,17.262,0,19.786,0z"/>
	<path fill="#666666" d="M16.052,12.093c-1.023,0-2.046,0-3.069,0c-0.025,0-0.05,0-0.075-0.001c-0.027-0.001-0.035-0.015-0.021-0.04
		c0.032-0.06,0.065-0.119,0.097-0.179c0.075-0.14,0.149-0.279,0.223-0.419c0.043-0.08,0.088-0.158,0.13-0.238
		c0.015-0.027,0.033-0.042,0.066-0.04c0.02,0.002,0.04,0,0.06,0c1.717,0,3.433,0,5.15,0c0.106,0,0.092,0.019,0.156-0.092
		c0.125-0.218,0.253-0.434,0.379-0.651c0.104-0.178,0.206-0.357,0.31-0.535c0.097-0.167,0.195-0.334,0.292-0.501
		c0.157-0.269,0.313-0.538,0.47-0.807c0.09-0.154,0.181-0.307,0.27-0.461c0.156-0.267,0.311-0.534,0.466-0.801
		c0.091-0.156,0.183-0.312,0.274-0.468c0.061-0.104,0.12-0.209,0.182-0.312c0.021-0.034,0.021-0.063,0-0.097
		c-0.115-0.197-0.226-0.397-0.344-0.593c-0.125-0.207-0.24-0.418-0.364-0.625c-0.129-0.215-0.251-0.435-0.379-0.651
		c-0.14-0.235-0.273-0.474-0.414-0.709c-0.126-0.211-0.247-0.426-0.371-0.638c-0.135-0.232-0.271-0.464-0.407-0.696
		c-0.128-0.219-0.255-0.438-0.383-0.658c-0.005-0.009-0.01-0.017-0.015-0.026c-0.014-0.023-0.033-0.037-0.062-0.035
		c-0.023,0.001-0.045,0-0.068,0c-0.814,0-1.629,0-2.443,0c-0.025,0-0.05,0-0.075-0.001C16.07,1.819,16.061,1.808,16.06,1.79
		c-0.001-0.015-0.001-0.03-0.001-0.045c0-0.254,0-0.508,0-0.762c0-0.018,0-0.035,0.002-0.053c0.001-0.014,0.01-0.023,0.024-0.023
		c0.018-0.001,0.035-0.001,0.053-0.001c1.01,0,2.021,0,3.031,0c0.076,0,0.062-0.008,0.101,0.056c0.066,0.11,0.128,0.222,0.192,0.333
		c0.072,0.124,0.145,0.247,0.217,0.37c0.044,0.076,0.088,0.152,0.133,0.228c0.145,0.25,0.29,0.499,0.436,0.749
		c0.13,0.224,0.258,0.449,0.391,0.67c0.125,0.209,0.245,0.421,0.367,0.632c0.14,0.241,0.281,0.482,0.421,0.722
		c0.125,0.215,0.248,0.431,0.376,0.644c0.109,0.181,0.212,0.365,0.319,0.547c0.112,0.19,0.224,0.381,0.335,0.572
		c0.041,0.07,0.041,0.071-0.001,0.143c-0.148,0.254-0.297,0.507-0.445,0.761c-0.173,0.297-0.345,0.595-0.518,0.893
		c-0.128,0.219-0.256,0.438-0.384,0.657c-0.13,0.223-0.26,0.447-0.391,0.67c-0.113,0.193-0.225,0.386-0.338,0.579
		c-0.155,0.267-0.311,0.534-0.466,0.801c-0.092,0.158-0.185,0.316-0.278,0.475c-0.119,0.204-0.237,0.408-0.357,0.612
		c-0.052,0.09-0.034,0.073-0.128,0.073C18.118,12.093,17.085,12.093,16.052,12.093z"/>
	<path fill="#3DD509" d="M11.988,1.975c0.033-0.076,0.08-0.145,0.121-0.216c0.074-0.128,0.15-0.255,0.225-0.383
		c0.106-0.182,0.213-0.364,0.318-0.546c0.017-0.03,0.037-0.046,0.072-0.042c0.017,0.002,0.035,0,0.053,0c1.007,0,2.014,0,3.021,0
		c0.113,0,0.099-0.013,0.099,0.102c0.001,0.319,0,0.638,0,0.957c0,0.111,0.012,0.098-0.095,0.098c-0.784,0-1.567,0-2.351,0
		c-0.023,0-0.045,0.002-0.068,0c-0.027-0.003-0.041,0.014-0.055,0.032c-0.038,0.032-0.081,0.051-0.13,0.052
		c-0.12,0.002-0.24,0.006-0.36-0.006c-0.167-0.017-0.335-0.004-0.503-0.007c-0.085-0.001-0.17,0.001-0.255-0.001
		C12.044,2.013,12.007,2.014,11.988,1.975z"/>
	<path fill="#969816" d="M11.445,10.089c-0.049-0.079-0.099-0.156-0.145-0.236c-0.101-0.173-0.2-0.348-0.3-0.521
		c-0.129-0.223-0.259-0.446-0.389-0.669c-0.125-0.214-0.25-0.428-0.375-0.643c-0.005-0.008-0.007-0.018-0.011-0.027
		c0.018-0.012,0.038-0.011,0.058-0.011c0.313,0.006,0.626,0.002,0.939,0.002c0.09,0,0.18,0.009,0.269,0.017
		c0.043,0.004,0.075,0.024,0.104,0.053c0.025,0.041,0.05,0.081,0.074,0.122c0.142,0.243,0.283,0.486,0.424,0.729
		c0.136,0.234,0.273,0.468,0.41,0.702c0.097,0.167,0.195,0.334,0.292,0.5c0.005,0.008,0.007,0.018,0.011,0.028
		c-0.43-0.056-0.863-0.032-1.294-0.036C11.488,10.098,11.466,10.099,11.445,10.089z"/>
	<path fill="#68B80F" d="M9.589,6.093c0.035-0.081,0.084-0.154,0.127-0.23c0.149-0.258,0.3-0.515,0.45-0.773
		c0.129-0.221,0.257-0.442,0.386-0.662c0.072-0.123,0.144-0.246,0.217-0.37c0.004-0.006,0.01-0.011,0.015-0.016
		c0.039-0.04,0.089-0.04,0.14-0.04c0.324,0,0.648,0,0.972,0c0.055,0,0.11,0.001,0.165-0.007c0.027-0.004,0.055-0.007,0.078,0.015
		c-0.081,0.141-0.161,0.283-0.243,0.424c-0.17,0.293-0.341,0.585-0.512,0.878c-0.13,0.223-0.26,0.447-0.39,0.67
		c-0.016,0.028-0.036,0.054-0.054,0.081c-0.038,0.025-0.081,0.022-0.124,0.022c-0.345,0-0.691,0.002-1.036-0.002
		C9.716,6.084,9.653,6.115,9.589,6.093z"/>
	<path fill="#87A314" d="M9.589,6.093c0.003,0,0.005,0,0.007-0.001c0.06-0.034,0.125-0.029,0.19-0.029c0.352,0,0.704,0,1.055,0
		c0.033,0,0.065,0.001,0.098,0.002c-0.058,0.102-0.116,0.204-0.173,0.307c-0.025,0.046-0.059,0.087-0.074,0.139
		c0.002,0.008,0.007,0.014,0.012,0.02l0.001,0.001c0.005,0.003,0.008,0.007,0.01,0.012c0.002,0.005,0.004,0.01,0.006,0.015
		c0.004,0.005,0.008,0.01,0.011,0.016c0.06,0.101,0.119,0.203,0.179,0.304c0.143,0.244,0.285,0.489,0.427,0.733
		c0.08,0.136,0.16,0.272,0.24,0.408c0.006,0.011,0.01,0.023,0.015,0.034c-0.014-0.005-0.028-0.01-0.042-0.015
		c-0.012-0.004-0.024-0.014-0.035-0.013c-0.07,0.005-0.138-0.018-0.208-0.018c-0.32,0.001-0.64,0-0.96,0.001
		c-0.042,0-0.084-0.002-0.125-0.015c-0.01-0.006-0.014-0.015-0.015-0.026c-0.003-0.007-0.008-0.013-0.013-0.019
		c-0.03-0.028-0.045-0.066-0.065-0.1C10.029,7.674,9.93,7.5,9.83,7.326c-0.126-0.217-0.252-0.433-0.379-0.65
		C9.423,6.629,9.395,6.581,9.365,6.535C9.35,6.511,9.349,6.491,9.365,6.466c0.047-0.077,0.092-0.155,0.138-0.233
		C9.531,6.186,9.56,6.14,9.589,6.093z"/>
	<path fill="#B8811B" d="M11.445,10.089c0.023-0.012,0.047-0.016,0.073-0.015c0.288,0,0.577,0,0.865,0
		c0.01,0,0.021-0.002,0.03,0.001c0.079,0.024,0.159,0.014,0.239,0.013c0.058-0.001,0.109,0.01,0.154,0.047
		c0.071,0.118,0.143,0.236,0.213,0.354c0.098,0.166,0.196,0.333,0.293,0.5c0.005,0.008,0.007,0.018,0.011,0.028
		c-0.068,0.014-0.068,0.014-0.1,0.074c-0.095,0.18-0.19,0.36-0.285,0.539c-0.085,0.159-0.171,0.318-0.258,0.477
		c-0.008,0.015-0.013,0.033-0.034,0.046c-0.015-0.024-0.03-0.046-0.043-0.069c-0.15-0.258-0.297-0.518-0.451-0.774
		c-0.121-0.202-0.237-0.408-0.356-0.612c-0.036-0.063-0.082-0.12-0.109-0.189c-0.005-0.002-0.008-0.005-0.009-0.011
		c-0.002-0.005-0.005-0.011-0.007-0.016c-0.004-0.004-0.007-0.009-0.01-0.014c-0.002-0.005-0.004-0.009-0.006-0.014
		c-0.003-0.006-0.006-0.011-0.01-0.016c-0.009-0.01-0.017-0.019-0.018-0.033c-0.004-0.003-0.007-0.007-0.009-0.012
		c-0.002-0.005-0.004-0.01-0.007-0.015c-0.004-0.005-0.007-0.01-0.01-0.015c-0.004-0.004-0.006-0.008-0.006-0.013
		c-0.003-0.006-0.006-0.012-0.011-0.017c-0.009-0.009-0.017-0.019-0.018-0.032c-0.004-0.004-0.007-0.008-0.01-0.013
		c-0.002-0.005-0.004-0.01-0.006-0.015c-0.003-0.005-0.007-0.011-0.01-0.016c-0.004-0.003-0.006-0.007-0.006-0.012
		c-0.001-0.008-0.007-0.013-0.011-0.019l-0.001-0.002c-0.006-0.001-0.008-0.005-0.008-0.011c-0.003-0.006-0.005-0.011-0.008-0.017
		c-0.004-0.004-0.007-0.009-0.01-0.014c-0.002-0.005-0.004-0.009-0.006-0.014c-0.003-0.006-0.007-0.011-0.011-0.016
		c-0.004-0.003-0.006-0.007-0.005-0.012c-0.001-0.008-0.007-0.014-0.012-0.019l-0.001-0.002c-0.005-0.003-0.008-0.007-0.009-0.012
		C11.449,10.1,11.447,10.095,11.445,10.089z"/>
	<path fill="#46CF0B" d="M14.557,5.248c-0.107-0.108-0.243-0.155-0.39-0.181c-0.08-0.014-0.16-0.016-0.24-0.016
		c-0.174-0.001-0.346,0.008-0.519,0.028c-0.112,0.013-0.225,0.022-0.337,0.036c-0.085,0.01-0.169,0.024-0.253,0.036
		c-0.012,0.002-0.025,0.005-0.037,0.004c-0.006,0-0.013-0.007-0.017-0.012C12.76,5.136,12.761,5.127,12.76,5.12
		c-0.006-0.088-0.011-0.175-0.017-0.263c-0.005-0.085-0.011-0.17-0.016-0.256c-0.002-0.03-0.001-0.06-0.001-0.09
		c0.048-0.04,0.105-0.027,0.159-0.021c0.068,0.007,0.135,0.011,0.203,0.01c0.392-0.007,0.783,0.015,1.175,0.02
		c0.231,0.003,0.462-0.001,0.692,0.013c0.158,0.01,0.316,0.004,0.473,0.02c0.051,0.047,0.083,0.107,0.116,0.166
		c0.034,0.061,0.062,0.126,0.081,0.194c0.002,0.006,0.005,0.012,0.009,0.018c0.002,0.01,0.004,0.019,0.006,0.029
		c0.003,0.005,0.005,0.011,0.007,0.016c0.003,0.014,0.005,0.028,0.008,0.043c0.002,0.006,0.005,0.012,0.007,0.018
		c0.002,0.015,0.005,0.03,0.007,0.045c0.01,0.014,0.002,0.032,0.011,0.047c0.001,0.014,0.003,0.029,0.004,0.043
		c0.014,0.105,0.006,0.114-0.095,0.118c-0.319,0.01-0.637-0.015-0.956-0.016C14.606,5.272,14.58,5.265,14.557,5.248z"/>
	<path fill="#969816" d="M18.402,8.656c-0.001-0.088-0.002-0.176-0.003-0.264c0-0.05,0-0.101,0-0.151
		c-0.001-0.048-0.002-0.049-0.053-0.05c-0.02,0-0.04,0-0.06,0c-0.606,0-1.211,0-1.817,0c-0.103,0-0.093,0.01-0.093-0.093
		c0-0.105,0.002-0.211,0.003-0.316c0.02-0.019,0.044-0.023,0.07-0.023c0.126-0.001,0.251-0.008,0.376,0.003
		c0.09,0.008,0.18,0.012,0.271,0.011c0.369-0.005,0.738,0.014,1.106,0.02c0.231,0.004,0.462-0.005,0.692,0.013
		c0.291,0.023,0.582-0.008,0.872,0.026c0.027,0.003,0.056,0.002,0.079,0.02c0.015,0.111,0.012,0.222,0.002,0.333
		c-0.024,0.011-0.049,0.006-0.074,0.006c-0.102,0-0.205,0-0.307,0c-0.056,0-0.057,0.001-0.057,0.06c0,0.132,0,0.265,0,0.397
		c0,0.027-0.002,0.055-0.003,0.082c-0.034-0.008-0.029-0.037-0.032-0.06c-0.004-0.03-0.004-0.06-0.002-0.09
		c0.005-0.063-0.025-0.084-0.085-0.082c-0.08,0.003-0.16-0.001-0.241,0.001c-0.168,0.004-0.335-0.008-0.503-0.015
		c-0.099-0.004-0.099,0-0.107,0.097C18.433,8.609,18.441,8.644,18.402,8.656z"/>
	<path fill="#80A713" d="M15.493,6.411c-0.039,0.093-0.098,0.174-0.155,0.256c-0.083,0.12-0.18,0.228-0.276,0.336
		c-0.194,0.217-0.404,0.417-0.621,0.61c-0.007,0.007-0.016,0.011-0.024,0.017c-0.055,0.036-0.117,0.029-0.175,0.021
		c-0.137-0.018-0.275-0.01-0.412-0.012c-0.135-0.002-0.27,0.005-0.404-0.012c-0.069-0.009-0.14-0.006-0.208,0.013
		c-0.026,0.007-0.054,0.013-0.078-0.008c0.037-0.052,0.088-0.089,0.132-0.133c0.071-0.071,0.143-0.141,0.216-0.21
		c0.21-0.195,0.406-0.403,0.603-0.61c0.078-0.082,0.148-0.17,0.222-0.256c0.013-0.015,0.027-0.03,0.04-0.045
		c0.033-0.024,0.071-0.022,0.109-0.023c0.312-0.01,0.623,0.017,0.934,0.016C15.432,6.371,15.472,6.37,15.493,6.411z"/>
	<path fill="#AA8A1A" d="M15.787,8.671c0.001,0.088,0.002,0.176,0.003,0.264c0,0.029-0.006,0.034-0.036,0.036
		c-0.02,0.001-0.04,0-0.06,0c-0.972,0-1.945,0-2.917,0c-0.107,0-0.098,0.011-0.098-0.096c0-0.113,0-0.226,0-0.339
		c0-0.025,0.002-0.05,0.003-0.075c0.029-0.025,0.065-0.023,0.1-0.024c0.409-0.009,0.818,0.015,1.226,0.02
		c0.195,0.002,0.391,0,0.586,0.011c0.366,0.021,0.732,0.003,1.098,0.029c0.083,0.006,0.089,0.011,0.09,0.092
		C15.782,8.616,15.777,8.644,15.787,8.671z"/>
	<path fill="#55C40D" d="M12.139,4.011c-0.027,0.001-0.055-0.001-0.081,0.01c-0.026,0.011-0.055,0.006-0.082,0.006
		c-0.358,0-0.716,0-1.075,0c-0.04,0-0.08,0.001-0.118,0.016c0.025-0.06,0.061-0.113,0.095-0.168c0.002-0.005,0.005-0.009,0.01-0.013
		c0.012-0.034,0.031-0.064,0.051-0.093c0.002-0.005,0.005-0.009,0.009-0.012c0.027-0.046,0.054-0.093,0.082-0.139
		c0.001-0.005,0.004-0.009,0.009-0.011c0.019-0.052,0.052-0.097,0.079-0.144c0.087-0.152,0.176-0.302,0.265-0.453
		c0.005-0.008,0.012-0.016,0.018-0.023c0.089-0.037,0.183-0.03,0.274-0.021c0.177,0.018,0.355,0.009,0.532,0.012
		c0.14,0.002,0.28,0,0.42,0.001c0.034,0,0.071-0.004,0.099,0.023c-0.017,0.05-0.049,0.092-0.075,0.138
		c-0.132,0.229-0.266,0.458-0.399,0.686c-0.008,0.013-0.017,0.025-0.025,0.037c-0.004,0.006-0.007,0.011-0.011,0.017
		c0,0.005-0.001,0.01-0.005,0.013c-0.002,0.005-0.006,0.01-0.01,0.014l0,0c-0.007,0.006-0.012,0.012-0.014,0.022
		c0.001,0.004,0,0.007-0.004,0.009c-0.004,0.006-0.01,0.011-0.012,0.019c0.001,0.005-0.001,0.009-0.005,0.012
		c-0.003,0.006-0.007,0.011-0.011,0.017c-0.002,0.005-0.004,0.009-0.006,0.014C12.147,4.003,12.144,4.007,12.139,4.011L12.139,4.011
		z"/>
	<path fill="#4FC90C" d="M12.726,3.001c-0.308,0-0.616,0-0.924,0c-0.025,0-0.05,0-0.074-0.008c-0.016-0.005-0.034-0.007-0.052-0.006
		c-0.077,0.003-0.155-0.007-0.232,0.006c-0.014,0.002-0.029-0.004-0.044-0.006c0.045-0.098,0.104-0.188,0.157-0.281
		c0.134-0.232,0.269-0.462,0.404-0.693c0.007-0.013,0.017-0.024,0.025-0.036c0.03,0.019,0.063,0.015,0.095,0.015
		c0.226,0,0.452,0,0.678,0c0.032,0,0.065-0.002,0.097,0.01c0.018,0.006,0.04,0.005,0.06,0.005c0.075,0,0.151-0.001,0.226,0.001
		c0.048,0.001,0.095-0.004,0.14-0.022c0.014-0.005,0.029-0.006,0.044-0.009c-0.031,0.054-0.062,0.108-0.094,0.163
		c-0.095,0.165-0.191,0.331-0.286,0.496c-0.067,0.115-0.135,0.229-0.202,0.344C12.74,2.986,12.732,2.993,12.726,3.001z"/>
	<path fill="#5FBE0E" d="M15.493,6.411c-0.027-0.016-0.057-0.017-0.087-0.017c-0.088,0.001-0.176,0.001-0.264,0
		c-0.047,0-0.095,0.004-0.142-0.012c-0.021-0.007-0.045-0.003-0.067-0.003c-0.194,0-0.387-0.001-0.581-0.001
		c0.034-0.049,0.068-0.099,0.102-0.148c0.123-0.174,0.201-0.364,0.214-0.578c0.009-0.147-0.021-0.284-0.112-0.404
		c0.118,0,0.235,0,0.353,0.001c0.03,0,0.06-0.001,0.089,0.009c0.016,0.006,0.034,0.005,0.052,0.005c0.19,0,0.38,0,0.57,0
		c0.012,0,0.025,0,0.037-0.002c0.014-0.002,0.023-0.011,0.024-0.024c0.002-0.022,0.002-0.045,0.003-0.067
		c0.004,0.009,0.01,0.018,0.011,0.027c0.014,0.154,0.022,0.309,0.009,0.464c-0.01,0.117-0.022,0.234-0.051,0.348
		C15.617,6.15,15.569,6.286,15.493,6.411z"/>
	<path fill="#9E9218" d="M13.139,7.632c0.023-0.001,0.044-0.004,0.066-0.012c0.087-0.032,0.178-0.023,0.267-0.014
		c0.032,0.003,0.064,0.009,0.096,0.009c0.181,0,0.361,0,0.542,0c0.03,0,0.06-0.001,0.089,0.009c0.018,0.006,0.039,0.005,0.059,0.005
		c0.053,0,0.105,0,0.158,0c-0.006,0.008-0.011,0.017-0.018,0.023c-0.111,0.102-0.221,0.204-0.332,0.306
		c-0.021,0.02-0.046,0.037-0.063,0.07c0.026,0.006,0.048,0.004,0.069,0.004c0.537,0,1.074,0,1.611,0
		c0.122,0,0.105-0.015,0.106,0.109c0,0.08-0.002,0.16-0.003,0.241c-0.015,0-0.024-0.009-0.028-0.021
		c-0.015-0.051-0.053-0.058-0.099-0.06c-0.258-0.011-0.516-0.01-0.774-0.016c-0.509-0.012-1.017-0.022-1.526-0.032
		c-0.193-0.004-0.386-0.008-0.579-0.011c-0.035-0.001-0.071,0.001-0.1-0.024c-0.001-0.005-0.002-0.01-0.002-0.015
		c0.001-0.042-0.012-0.089,0.006-0.126c0.017-0.034,0.052-0.06,0.08-0.088c0.107-0.105,0.216-0.21,0.324-0.315
		c0.011-0.01,0.023-0.019,0.035-0.028c0.002-0.006,0.007-0.01,0.013-0.013L13.139,7.632z"/>
	<path fill="#89A014" d="M19.847,8.185c-0.001-0.109-0.001-0.218-0.002-0.327c-0.031-0.04-0.021-0.087-0.022-0.131
		c-0.002-0.094-0.007-0.102-0.097-0.101c-0.193,0.002-0.386-0.019-0.58-0.016c-0.326,0.006-0.653-0.012-0.979-0.018
		c-0.492-0.009-0.984-0.022-1.476-0.031c-0.103-0.002-0.21,0.003-0.313-0.02c-0.001-0.042-0.002-0.083-0.003-0.125
		c-0.001-0.039,0.015-0.071,0.036-0.102c0.004-0.006,0.009-0.012,0.01-0.02c0.002-0.008,0.004-0.017,0.006-0.025
		c0.003-0.006,0.006-0.012,0.01-0.018c-0.001-0.004,0-0.008,0.003-0.011c0.026-0.025,0.06-0.023,0.092-0.024
		c0.301-0.008,0.602,0.007,0.903,0.015c0.036,0.001,0.07,0.009,0.095,0.037c0.113-0.004,0.227-0.005,0.34,0
		c0.008,0.007,0.018,0.009,0.028,0.009c0.118,0.001,0.235-0.001,0.353,0.007c0.062,0.004,0.124,0.006,0.182-0.029
		c0.027-0.016,0.064-0.011,0.096-0.008c0.222,0.026,0.446,0.005,0.669,0.015c0.197,0.009,0.394,0.036,0.592,0.031
		c0.045-0.001,0.068,0.021,0.064,0.07c-0.004,0.052,0.002,0.105-0.003,0.158c0.002,0.02,0.005,0.04,0.005,0.059
		c0,0.185,0,0.37,0,0.555C19.857,8.152,19.863,8.171,19.847,8.185z"/>
	<path fill="#7AAB12" d="M18.402,6.997c-0.001-0.015-0.003-0.03-0.003-0.045c0-0.289,0-0.578,0-0.867
		c0-0.071-0.001-0.069,0.071-0.069c0.289,0,0.578,0,0.867,0c0.013,0,0.025,0,0.038,0.001c0.025,0.001,0.032,0.008,0.033,0.031
		c0.001,0.013,0.001,0.025,0.001,0.038c0,0.301,0,0.603,0,0.904c0,0.018-0.002,0.035-0.003,0.053
		c-0.05-0.031-0.105-0.038-0.164-0.037c-0.195,0.004-0.39,0-0.585-0.013C18.572,6.985,18.486,6.99,18.402,6.997z"/>
	<path fill="#3BD609" d="M15.428,4.553c-0.01,0.014-0.024,0.016-0.04,0.016c-0.098,0-0.197,0.01-0.293-0.003
		c-0.113-0.015-0.225-0.01-0.337-0.012c-0.11-0.002-0.221,0-0.331,0c-0.032,0-0.064,0-0.097-0.01
		c-0.023-0.007-0.05-0.005-0.075-0.005c-0.181,0-0.361,0-0.542,0c-0.037,0-0.074,0.002-0.111-0.011
		c-0.02-0.007-0.045-0.004-0.067-0.004c-0.181,0-0.361,0-0.542,0c-0.032,0-0.064-0.003-0.096-0.01
		c-0.056-0.012-0.115-0.005-0.172-0.004c0,0,0.001,0,0.001,0c-0.017-0.044,0.004-0.092-0.012-0.136
		c-0.002-0.023-0.004-0.047-0.005-0.07c-0.001-0.01,0.004-0.018,0.013-0.023c0.006-0.002,0.012-0.005,0.018-0.008
		c0.015-0.002,0.03-0.004,0.044-0.007c0.005-0.003,0.01-0.005,0.015-0.006c0.019-0.009,0.038-0.01,0.059-0.009
		c0.006-0.003,0.011-0.005,0.017-0.007c0.019-0.007,0.039-0.009,0.059-0.008c0.005-0.003,0.011-0.005,0.016-0.006
		c0.019-0.008,0.039-0.009,0.06-0.008c0.005-0.003,0.01-0.005,0.015-0.006c0.023-0.01,0.048-0.011,0.073-0.01
		c0.006-0.002,0.013-0.004,0.019-0.007c0.019-0.007,0.039-0.008,0.06-0.007c0.004-0.003,0.009-0.005,0.014-0.004
		c0.025-0.011,0.051-0.011,0.077-0.011c0.009-0.006,0.019-0.006,0.03-0.007c0.025-0.008,0.05-0.009,0.075-0.008
		c0.004-0.003,0.009-0.005,0.014-0.004c0.034-0.013,0.069-0.011,0.104-0.012c0.006-0.002,0.012-0.004,0.018-0.006
		c0.034-0.01,0.069-0.01,0.104-0.009c0.005-0.002,0.01-0.004,0.016-0.004c0.045-0.013,0.09-0.01,0.136-0.011
		c0.009-0.005,0.02-0.006,0.03-0.006c0.007-0.002,0.015-0.005,0.022-0.005c0.14-0.005,0.28-0.021,0.42-0.015
		c0.205,0.009,0.409,0.028,0.607,0.089c0.204,0.063,0.389,0.159,0.537,0.316C15.399,4.513,15.418,4.53,15.428,4.553z"/>
	<path fill="#64BA0F" d="M17.797,6.521c0.002,0.003,0.001,0.006-0.002,0.009c-0.034,0.029-0.075,0.023-0.115,0.024
		c-0.225,0.008-0.449-0.025-0.674-0.015c-0.067,0.003-0.135,0.001-0.202,0c-0.032-0.001-0.066,0.003-0.092-0.023
		c0.018-0.052,0.036-0.104,0.055-0.155c0.083-0.22,0.167-0.439,0.251-0.658c0.006-0.016,0.008-0.034,0.022-0.047
		c0.248,0.028,0.497,0.024,0.745,0.021c0.093-0.001,0.185,0.016,0.278,0.007c0.018-0.002,0.035,0.003,0.048,0.017
		c-0.004,0.033-0.019,0.062-0.03,0.092c-0.061,0.162-0.12,0.324-0.189,0.483c0,0.005-0.002,0.01-0.007,0.013
		c-0.001,0.005-0.003,0.01-0.004,0.016c-0.004,0.006-0.007,0.012-0.01,0.018c0.001,0.021-0.008,0.04-0.019,0.057
		c-0.004,0.007-0.01,0.012-0.01,0.021c-0.002,0.008-0.004,0.016-0.006,0.025c-0.004,0.006-0.007,0.012-0.01,0.018
		c0.001,0.004,0,0.008-0.003,0.011c-0.008,0.009-0.005,0.022-0.013,0.032c0.001,0.005,0,0.01-0.004,0.014
		C17.803,6.507,17.798,6.513,17.797,6.521z"/>
	<path fill="#54C50D" d="M18.113,5.701c-0.043-0.008-0.084,0.022-0.125,0.013c-0.039-0.009-0.078-0.013-0.118-0.013
		c-0.18,0-0.36,0-0.54,0c-0.035,0-0.069-0.002-0.104-0.01c-0.036-0.008-0.074-0.004-0.112-0.005c-0.017-0.001-0.035,0-0.052-0.002
		c-0.014-0.002-0.018-0.015-0.021-0.028c0.001-0.005,0.003-0.011,0.004-0.016c0.004-0.006,0.007-0.012,0.01-0.018
		c0.003-0.009,0.005-0.018,0.008-0.028c0.002-0.006,0.005-0.011,0.008-0.015c0.006-0.038,0.022-0.072,0.037-0.105
		c0.002-0.005,0.004-0.01,0.008-0.015c0.012-0.036,0.022-0.072,0.035-0.107c0.058-0.152,0.117-0.304,0.176-0.456
		c0.004-0.009,0.01-0.017,0.014-0.026c0.165-0.016,0.332-0.014,0.496-0.003c0.158,0.01,0.316,0.008,0.474,0.012
		c0.037,0.001,0.076-0.006,0.107,0.025c-0.015,0.069-0.044,0.133-0.07,0.198c-0.063,0.153-0.118,0.309-0.179,0.462
		C18.151,5.609,18.139,5.658,18.113,5.701z"/>
	<path fill="#8E9D15" d="M16.378,7.541c0.056-0.014,0.113-0.018,0.171-0.015c0.025,0.001,0.05-0.001,0.074,0.009
		c0.024,0.01,0.05,0.006,0.075,0.006c0.181,0,0.362,0,0.543,0c0.032,0,0.064,0,0.097,0.01c0.023,0.007,0.05,0.005,0.075,0.005
		c0.186,0,0.372,0,0.558,0c0.03,0,0.059,0,0.089,0.009c0.023,0.007,0.05,0.006,0.075,0.006c0.178,0,0.357,0,0.535,0
		c0.035,0,0.07-0.003,0.104,0.011c0.011,0.005,0.025,0.003,0.037,0.004c0.015,0.001,0.03,0,0.045,0c0.088,0,0.176-0.001,0.264,0
		c0.088,0.001,0.175-0.002,0.263,0c0.04,0.001,0.08-0.003,0.119,0.012c0.018,0.006,0.04,0.003,0.06,0.003
		c0.08,0,0.161,0,0.241,0.001c0.037,0,0.044,0.007,0.044,0.045c0.001,0.07-0.001,0.141-0.001,0.211
		c-0.052-0.001-0.105,0.005-0.157-0.013c-0.018-0.006-0.04-0.002-0.06-0.002c-0.178,0-0.357,0-0.535,0
		c-0.035,0-0.07,0.001-0.104-0.011c-0.02-0.007-0.045-0.004-0.067-0.004c-0.186,0-0.372,0-0.558,0c-0.033,0-0.065,0-0.097-0.01
		c-0.021-0.007-0.045-0.004-0.067-0.005c-0.181,0-0.362,0-0.543,0c-0.032,0-0.065,0-0.097-0.01c-0.023-0.007-0.05-0.005-0.075-0.005
		c-0.181,0-0.362,0-0.543,0c-0.03,0-0.06,0-0.089-0.009c-0.021-0.007-0.045-0.006-0.067-0.006c-0.136,0-0.271,0-0.407,0
		C16.373,7.701,16.374,7.621,16.378,7.541z"/>
	<path fill="#7FA813" d="M16.712,6.515c0.193,0,0.387,0,0.58,0c0.03,0,0.06,0,0.089,0.009c0.021,0.007,0.045,0.005,0.067,0.005
		c0.115,0,0.231,0,0.346,0c-0.017,0.071-0.048,0.137-0.073,0.204c-0.059,0.157-0.121,0.313-0.181,0.469
		c-0.008,0.021-0.022,0.04-0.011,0.064c-0.028-0.011-0.057-0.015-0.088-0.014c-0.057,0.001-0.115,0.001-0.172,0
		c-0.042,0-0.084,0.002-0.126-0.012c-0.02-0.007-0.045-0.003-0.067-0.003c-0.212,0-0.424,0-0.637,0
		c0.018-0.076,0.052-0.146,0.078-0.219c0.057-0.155,0.117-0.31,0.175-0.464C16.699,6.542,16.706,6.529,16.712,6.515z"/>
	<path fill="#3AD609" d="M18.418,4.903c-0.146,0-0.291-0.001-0.437-0.001c-0.03,0-0.059,0-0.089-0.009
		c-0.023-0.007-0.05-0.005-0.075-0.006c-0.138,0-0.276,0-0.414,0c-0.022,0-0.046,0.005-0.062-0.017
		c-0.001-0.005,0.001-0.01,0.004-0.014c0.007-0.009,0.004-0.022,0.012-0.03c0.001-0.005,0.003-0.01,0.004-0.016
		c0.004-0.006,0.007-0.012,0.01-0.018c0.002-0.009,0.005-0.018,0.007-0.027c0.002-0.006,0.005-0.011,0.009-0.016
		c-0.001-0.005,0-0.01,0.004-0.014c0.007-0.009,0.003-0.021,0.012-0.029c0.001-0.005,0.003-0.011,0.004-0.016
		c0.004-0.006,0.007-0.012,0.009-0.018c0.003-0.009,0.005-0.019,0.008-0.028c0.002-0.005,0.005-0.011,0.008-0.015
		c0.001-0.005,0.003-0.01,0.004-0.014c0.006-0.009,0.003-0.021,0.012-0.029c0.001-0.006,0.003-0.011,0.004-0.017
		c0.004-0.005,0.007-0.011,0.009-0.017c0.003-0.01,0.005-0.019,0.008-0.029c0.002-0.005,0.004-0.01,0.008-0.015
		c0.029-0.107,0.076-0.207,0.117-0.309c0.005-0.012,0.014-0.02,0.028-0.02c0.013,0,0.025-0.001,0.038-0.001c0.331,0,0.662,0,0.993,0
		c0.01,0,0.02,0.001,0.028,0.001c0.013,0.013,0.006,0.026,0.002,0.036c-0.085,0.225-0.171,0.45-0.256,0.675
		C18.425,4.895,18.421,4.899,18.418,4.903z"/>
	<path fill="#A09118" d="M12.681,8.219c0.173,0,0.346,0,0.519,0c0.032,0,0.064,0,0.097,0.01c0.021,0.007,0.045,0.005,0.067,0.005
		c0.188,0,0.376,0,0.564,0c0.03,0,0.059,0,0.089,0.009c0.023,0.007,0.05,0.006,0.074,0.006c0.178,0,0.356,0,0.534,0
		c0.035,0,0.07-0.004,0.104,0.011c0.009,0.004,0.02,0.004,0.03,0.004c0.095-0.001,0.19,0.002,0.285,0.001
		c0.118-0.001,0.237-0.01,0.353,0.003c0.105,0.011,0.21,0.009,0.314,0.012c0.008,0,0.015,0,0.023,0.001
		c0.023,0.003,0.034,0.015,0.038,0.039c0.004,0.022-0.006,0.046,0.014,0.064c0.005,0.096,0.005,0.191,0,0.287
		c-0.015-0.014-0.012-0.032-0.013-0.049c-0.001-0.025,0-0.05-0.002-0.075c-0.001-0.014-0.011-0.023-0.025-0.024
		c-0.015-0.001-0.03-0.001-0.045-0.002c-0.077-0.003-0.155,0.008-0.232-0.014c-0.019-0.005-0.04-0.001-0.06-0.001
		c-0.178,0-0.357,0-0.535,0c-0.03,0-0.059,0-0.089-0.009c-0.023-0.007-0.05-0.006-0.075-0.006c-0.183,0-0.367,0-0.55,0
		c-0.035,0-0.07,0.001-0.104-0.011c-0.021-0.007-0.045-0.004-0.067-0.004c-0.181,0-0.362,0-0.543,0c-0.032,0-0.064,0-0.097-0.01
		c-0.023-0.007-0.05-0.005-0.075-0.005c-0.198,0-0.397,0-0.595,0C12.676,8.38,12.676,8.3,12.681,8.219z"/>
	<path fill="#AD861A" d="M18.402,8.656c0.012-0.012,0.012-0.027,0.012-0.042c0-0.038-0.001-0.075,0.001-0.113
		c0.001-0.029,0.009-0.04,0.034-0.039c0.085,0.002,0.17-0.012,0.255,0.011c0.021,0.006,0.045,0.003,0.067,0.003
		c0.171,0,0.342,0,0.512,0c0.013,0,0.025,0,0.038,0c0.073,0.001,0.073,0.001,0.073,0.077c0,0.045,0,0.09,0,0.136
		c0,0.015-0.001,0.03,0.011,0.042c0.001,0.093,0.002,0.185,0.002,0.278c0,0.024-0.008,0.032-0.031,0.034
		c-0.015,0.001-0.03,0.001-0.045,0.001c-0.288,0-0.577,0-0.865,0c-0.067,0-0.068-0.001-0.068-0.065
		C18.399,8.871,18.401,8.763,18.402,8.656z"/>
	<path fill="#7FA813" d="M18.402,6.997c0.015-0.018,0.03-0.03,0.057-0.03c0.098,0.002,0.197-0.009,0.293,0.003
		c0.195,0.024,0.39,0.006,0.586,0.013c0.008,0,0.015,0,0.023,0c0.021,0,0.032,0.011,0.034,0.032
		c0.001,0.009,0.007,0.018,0.011,0.027c0.001,0.063,0.002,0.125,0.004,0.188c0.001,0.028,0.007,0.035,0.037,0.035
		c0.103,0.001,0.206,0,0.309,0.001c0.023,0,0.045,0,0.068,0.001c0.024,0.001,0.034,0.009,0.034,0.03c0,0.075,0.007,0.15-0.005,0.225
		c-0.011-0.04-0.003-0.08-0.005-0.12c-0.001-0.02,0-0.04-0.002-0.06c-0.001-0.014-0.01-0.023-0.024-0.024
		c-0.017-0.002-0.035-0.001-0.053-0.002c-0.08-0.003-0.16,0.006-0.24-0.013C19.488,7.292,19.443,7.3,19.4,7.299
		c-0.03,0-0.06,0-0.089-0.009c-0.023-0.007-0.05-0.006-0.075-0.006c-0.183,0-0.367,0-0.55,0c-0.035,0-0.069-0.005-0.104-0.01
		c-0.064-0.01-0.13-0.013-0.193,0.011C18.32,7.31,18.25,7.303,18.18,7.293c-0.03-0.004-0.059-0.009-0.089-0.009
		c-0.058,0-0.116,0-0.173,0c-0.018,0-0.036,0.001-0.048-0.016c0.119-0.001,0.239-0.002,0.358-0.003c0.045,0,0.09,0,0.135-0.001
		c0.028-0.001,0.034-0.007,0.035-0.036c0.001-0.05,0-0.1,0.001-0.149C18.399,7.051,18.401,7.024,18.402,6.997z"/>
	<path fill="#46CF0B" d="M12.715,4.374c0.01,0.009,0.013,0.02,0.013,0.033c0,0.034-0.001,0.069-0.001,0.103
		C12.708,4.466,12.715,4.42,12.715,4.374z"/>
	<path fill="#5FBE0E" d="M15.681,5.127c-0.015-0.013-0.012-0.03-0.011-0.047C15.682,5.094,15.683,5.11,15.681,5.127z"/>
	<path fill="#7FA813" d="M17.811,6.487c0-0.012,0.001-0.024,0.013-0.032C17.825,6.468,17.821,6.478,17.811,6.487z"/>
	<path fill="#54C50D" d="M17.358,4.826c0,0.012-0.001,0.023-0.012,0.03C17.344,4.843,17.348,4.833,17.358,4.826z"/>
	<path fill="#54C50D" d="M17.448,4.585c0,0.011-0.001,0.022-0.012,0.029C17.435,4.602,17.439,4.592,17.448,4.585z"/>
	<path fill="#46CF0B" d="M13.298,4.169c-0.008,0.008-0.019,0.008-0.03,0.007C13.277,4.168,13.287,4.165,13.298,4.169z"/>
	<path fill="#54C50D" d="M17.403,4.705c0,0.012-0.001,0.022-0.012,0.029C17.39,4.723,17.393,4.713,17.403,4.705z"/>
	<path fill="#46CF0B" d="M13.795,4.11c-0.009,0.007-0.019,0.007-0.03,0.006C13.774,4.108,13.784,4.105,13.795,4.11z"/>
	<path fill="#68B80F" d="M11.039,3.607c-0.002,0.005-0.005,0.008-0.009,0.011C11.033,3.614,11.036,3.61,11.039,3.607z"/>
	<path fill="#68B80F" d="M10.948,3.757c-0.003,0.004-0.006,0.008-0.009,0.012C10.942,3.765,10.945,3.761,10.948,3.757z"/>
	<path fill="#68B80F" d="M10.888,3.862c-0.003,0.004-0.006,0.009-0.01,0.013C10.881,3.87,10.885,3.866,10.888,3.862z"/>
	<path fill="#68B80F" d="M12.216,3.879c0.004-0.006,0.007-0.011,0.011-0.017C12.227,3.87,12.223,3.875,12.216,3.879z"/>
	<path fill="#68B80F" d="M12.2,3.906c0.003-0.005,0.007-0.01,0.01-0.014C12.207,3.897,12.203,3.901,12.2,3.906z"/>
	<path fill="#68B80F" d="M12.186,3.928c0.001-0.01,0.005-0.017,0.014-0.022C12.199,3.916,12.195,3.923,12.186,3.928z"/>
	<path fill="#68B80F" d="M12.171,3.955c0.004-0.006,0.008-0.013,0.012-0.019C12.182,3.945,12.178,3.951,12.171,3.955z"/>
	<path fill="#68B80F" d="M12.155,3.984c0.004-0.006,0.007-0.011,0.011-0.017C12.166,3.975,12.162,3.98,12.155,3.984z"/>
	<path fill="#68B80F" d="M12.139,4.011c0.003-0.005,0.007-0.009,0.01-0.014C12.146,4.002,12.143,4.007,12.139,4.011z"/>
	<path fill="#46CF0B" d="M13.63,4.126c-0.005,0.001-0.011,0.003-0.016,0.004C13.618,4.125,13.623,4.122,13.63,4.126z"/>
	<path fill="#46CF0B" d="M13.51,4.14c-0.006,0.002-0.012,0.004-0.018,0.006C13.497,4.139,13.502,4.137,13.51,4.14z"/>
	<path fill="#46CF0B" d="M13.388,4.157c-0.005,0.001-0.009,0.003-0.014,0.004C13.378,4.156,13.382,4.153,13.388,4.157z"/>
	<path fill="#46CF0B" d="M13.192,4.187c-0.005,0.001-0.009,0.003-0.014,0.004C13.182,4.186,13.186,4.183,13.192,4.187z"/>
	<path fill="#46CF0B" d="M13.118,4.198c-0.006,0.002-0.012,0.005-0.019,0.007C13.104,4.199,13.11,4.197,13.118,4.198z"/>
	<path fill="#46CF0B" d="M13.027,4.216c-0.005,0.002-0.01,0.004-0.015,0.006C13.015,4.216,13.02,4.213,13.027,4.216z"/>
	<path fill="#46CF0B" d="M12.952,4.23c-0.005,0.002-0.011,0.004-0.016,0.006C12.94,4.231,12.945,4.228,12.952,4.23z"/>
	<path fill="#46CF0B" d="M12.877,4.244c-0.006,0.002-0.011,0.005-0.017,0.007C12.864,4.245,12.869,4.242,12.877,4.244z"/>
	<path fill="#46CF0B" d="M12.801,4.261c-0.005,0.002-0.01,0.004-0.015,0.006C12.789,4.261,12.794,4.258,12.801,4.261z"/>
	<path fill="#46CF0B" d="M12.741,4.273c-0.006,0.003-0.012,0.005-0.018,0.008C12.728,4.275,12.733,4.272,12.741,4.273z"/>
	<path fill="#54C50D" d="M17.477,4.508c-0.003,0.005-0.005,0.01-0.008,0.015C17.468,4.515,17.472,4.511,17.477,4.508z"/>
	<path fill="#54C50D" d="M17.462,4.551c-0.003,0.006-0.006,0.012-0.009,0.017C17.452,4.56,17.455,4.555,17.462,4.551z"/>
	<path fill="#54C50D" d="M17.432,4.628c-0.003,0.005-0.006,0.01-0.008,0.015C17.423,4.636,17.426,4.631,17.432,4.628z"/>
	<path fill="#54C50D" d="M17.416,4.671c-0.003,0.006-0.006,0.012-0.009,0.018C17.406,4.681,17.41,4.675,17.416,4.671z"/>
	<path fill="#54C50D" d="M17.387,4.748c-0.003,0.005-0.006,0.011-0.009,0.016C17.377,4.757,17.381,4.752,17.387,4.748z"/>
	<path fill="#54C50D" d="M17.371,4.792c-0.003,0.006-0.006,0.012-0.01,0.018C17.361,4.802,17.364,4.796,17.371,4.792z"/>
	<path fill="#5FBE0E" d="M15.634,4.93c-0.003-0.006-0.006-0.012-0.009-0.018C15.632,4.916,15.635,4.922,15.634,4.93z"/>
	<path fill="#5FBE0E" d="M15.647,4.975c-0.002-0.005-0.005-0.011-0.007-0.016C15.646,4.963,15.649,4.968,15.647,4.975z"/>
	<path fill="#5FBE0E" d="M15.663,5.036c-0.002-0.006-0.005-0.012-0.007-0.018C15.662,5.022,15.665,5.028,15.663,5.036z"/>
	<path fill="#64BA0F" d="M17.116,5.458c-0.003,0.005-0.005,0.01-0.008,0.015C17.106,5.466,17.11,5.461,17.116,5.458z"/>
	<path fill="#64BA0F" d="M17.071,5.578c-0.003,0.005-0.006,0.01-0.008,0.015C17.061,5.586,17.065,5.582,17.071,5.578z"/>
	<path fill="#64BA0F" d="M17.055,5.621c-0.003,0.006-0.006,0.012-0.01,0.018C17.045,5.631,17.048,5.625,17.055,5.621z"/>
	<path fill="#7FA813" d="M17.886,6.289c0.002-0.004,0.004-0.009,0.007-0.013C17.89,6.28,17.888,6.285,17.886,6.289z"/>
	<path fill="#7FA813" d="M17.872,6.323c0.003-0.006,0.007-0.012,0.01-0.018C17.882,6.313,17.879,6.319,17.872,6.323z"/>
	<path fill="#7FA813" d="M17.842,6.401c0.003-0.007,0.007-0.014,0.01-0.021C17.853,6.389,17.849,6.396,17.842,6.401z"/>
	<path fill="#7FA813" d="M17.827,6.444c0.003-0.006,0.007-0.012,0.01-0.018C17.837,6.434,17.833,6.439,17.827,6.444z"/>
	<path fill="#7FA813" d="M17.797,6.521c0.003-0.007,0.007-0.014,0.01-0.02C17.807,6.509,17.804,6.516,17.797,6.521z"/>
	<path fill="#68B80F" d="M10.706,6.531c-0.004-0.007-0.008-0.014-0.012-0.02C10.701,6.515,10.705,6.522,10.706,6.531z"/>
	<path fill="#68B80F" d="M10.716,6.544c-0.003-0.004-0.006-0.008-0.01-0.012C10.71,6.536,10.713,6.54,10.716,6.544z"/>
	<path fill="#68B80F" d="M10.733,6.575c-0.004-0.005-0.007-0.01-0.011-0.016C10.726,6.564,10.729,6.569,10.733,6.575z"/>
	<path fill="#7FA813" d="M16.437,7.251c-0.003,0.006-0.007,0.012-0.01,0.018C16.427,7.26,16.43,7.255,16.437,7.251z"/>
	<path fill="#7FA813" d="M16.421,7.294c-0.003,0.007-0.007,0.013-0.01,0.02C16.411,7.305,16.414,7.298,16.421,7.294z"/>
	<path fill="#80A713" d="M13.136,7.634c-0.004,0.004-0.008,0.008-0.013,0.013C13.124,7.64,13.129,7.635,13.136,7.634z"/>
	<path fill="#969816" d="M10.195,7.948c0.004,0.006,0.009,0.013,0.013,0.019C10.204,7.96,10.199,7.954,10.195,7.948z"/>
	<path fill="#969816" d="M11.452,10.106c0.003,0.004,0.006,0.008,0.009,0.012C11.458,10.114,11.455,10.11,11.452,10.106z"/>
	<path fill="#969816" d="M11.462,10.12c0.008,0.004,0.012,0.011,0.012,0.019C11.466,10.135,11.462,10.128,11.462,10.12z"/>
	<path fill="#969816" d="M11.479,10.151c0.004,0.005,0.007,0.011,0.011,0.016C11.483,10.164,11.479,10.159,11.479,10.151z"/>
	<path fill="#969816" d="M11.496,10.181c0.003,0.005,0.007,0.009,0.01,0.014C11.499,10.193,11.495,10.188,11.496,10.181z"/>
	<path fill="#969816" d="M11.513,10.212c0.004,0.003,0.007,0.006,0.008,0.011C11.519,10.219,11.516,10.215,11.513,10.212z"/>
	<path fill="#969816" d="M11.523,10.225c0.004,0.006,0.008,0.013,0.011,0.019C11.527,10.24,11.523,10.234,11.523,10.225z"/>
	<path fill="#969816" d="M11.54,10.256c0.003,0.005,0.007,0.011,0.01,0.016C11.543,10.269,11.54,10.264,11.54,10.256z"/>
	<path fill="#969816" d="M11.557,10.287c0.003,0.004,0.006,0.009,0.01,0.013C11.56,10.298,11.556,10.294,11.557,10.287z"/>
	<path fill="#969816" d="M11.584,10.332c0.007,0.004,0.011,0.009,0.011,0.017C11.587,10.346,11.584,10.34,11.584,10.332z"/>
	<path fill="#969816" d="M11.601,10.362c0.003,0.005,0.007,0.01,0.01,0.015C11.604,10.374,11.6,10.37,11.601,10.362z"/>
	<path fill="#969816" d="M11.617,10.393c0.003,0.004,0.006,0.008,0.009,0.012C11.623,10.4,11.62,10.397,11.617,10.393z"/>
	<path fill="#969816" d="M11.645,10.437c0.003,0.005,0.007,0.011,0.01,0.016C11.648,10.451,11.645,10.445,11.645,10.437z"/>
	<path fill="#969816" d="M11.661,10.468c0.003,0.005,0.006,0.01,0.01,0.014C11.665,10.479,11.661,10.475,11.661,10.468z"/>
	<path fill="#969816" d="M11.678,10.498c0.004,0.002,0.007,0.006,0.009,0.011C11.684,10.506,11.681,10.502,11.678,10.498z"/>
	<path d="M10.026,1.929C10.029,1.959,10.011,1.978,10,2C9.912,2.178,9.822,2.354,9.734,2.532C9.641,2.719,9.55,2.906,9.457,3.092
		C9.321,3.364,9.186,3.636,9.05,3.907c-0.12,0.24-0.24,0.48-0.36,0.721C8.552,4.904,8.414,5.181,8.277,5.457
		C8.152,5.706,8.028,5.955,7.903,6.204C7.861,6.287,7.82,6.37,7.776,6.452c-0.016,0.03-0.014,0.054,0,0.084
		c0.084,0.174,0.167,0.348,0.25,0.523c0.066,0.138,0.13,0.277,0.196,0.415c0.131,0.277,0.263,0.553,0.395,0.829
		c0.125,0.263,0.25,0.526,0.375,0.789C9.126,9.371,9.259,9.65,9.391,9.928c0.126,0.265,0.252,0.53,0.379,0.795
		c0.079,0.165,0.159,0.33,0.237,0.496c0.008,0.017,0.023,0.033,0.02,0.055c-0.01,0.013-0.023,0.008-0.034,0.007
		c-0.095-0.007-0.19-0.014-0.286-0.021c-0.163-0.013-0.326-0.026-0.488-0.04c-0.16-0.013-0.32-0.027-0.481-0.039
		c-0.153-0.012-0.306-0.024-0.458-0.036c-0.165-0.013-0.33-0.028-0.496-0.04c-0.029-0.002-0.044-0.014-0.056-0.04
		c-0.062-0.129-0.126-0.257-0.189-0.385c-0.142-0.285-0.284-0.571-0.426-0.856C6.987,9.573,6.861,9.321,6.736,9.07
		c-0.133-0.267-0.267-0.534-0.4-0.802C6.209,8.014,6.083,7.76,5.956,7.506C5.825,7.244,5.694,6.981,5.563,6.718
		c-0.022-0.045-0.046-0.089-0.07-0.133c-0.012-0.022-0.01-0.042,0.001-0.063c0.04-0.078,0.081-0.156,0.12-0.235
		c0.092-0.184,0.183-0.369,0.274-0.553c0.133-0.267,0.267-0.534,0.4-0.802c0.129-0.258,0.258-0.516,0.387-0.775
		C6.804,3.9,6.933,3.641,7.062,3.383C7.191,3.125,7.32,2.867,7.449,2.609c0.094-0.189,0.19-0.377,0.283-0.566
		c0.013-0.026,0.028-0.037,0.057-0.038c0.294-0.009,0.588-0.02,0.881-0.031c0.342-0.013,0.683-0.026,1.024-0.039
		c0.1-0.004,0.201-0.006,0.301-0.009C10.006,1.926,10.015,1.928,10.026,1.929z"/>
	<path d="M21.983,1.935c0.075,0,0.14-0.002,0.205,0c0.251,0.008,0.502,0.018,0.753,0.027C23.27,1.975,23.599,1.988,23.928,2
		c0.093,0.004,0.186,0.007,0.279,0.007c0.043,0,0.068,0.012,0.087,0.054c0.067,0.143,0.139,0.284,0.209,0.426
		c0.134,0.27,0.269,0.539,0.403,0.809c0.125,0.252,0.251,0.503,0.377,0.754c0.133,0.267,0.267,0.534,0.401,0.801
		c0.123,0.247,0.247,0.494,0.37,0.741c0.134,0.269,0.269,0.539,0.403,0.808c0.021,0.043,0.044,0.085,0.067,0.126
		c0.012,0.022,0.011,0.042,0,0.064c-0.026,0.049-0.052,0.097-0.076,0.147c-0.107,0.216-0.213,0.432-0.321,0.648
		c-0.131,0.263-0.262,0.526-0.393,0.788c-0.128,0.256-0.255,0.512-0.383,0.768c-0.132,0.265-0.264,0.53-0.396,0.795
		c-0.125,0.252-0.251,0.503-0.376,0.755c-0.094,0.189-0.189,0.377-0.283,0.566c-0.004,0.009-0.01,0.018-0.014,0.027
		c-0.007,0.015-0.019,0.022-0.035,0.024c-0.015,0.002-0.03,0.003-0.045,0.004c-0.24,0.019-0.481,0.039-0.721,0.058
		c-0.158,0.012-0.316,0.024-0.474,0.036c-0.153,0.012-0.305,0.026-0.458,0.038c-0.178,0.014-0.356,0.028-0.534,0.042
		c-0.025,0.002-0.031-0.007-0.02-0.031c0.077-0.161,0.154-0.321,0.231-0.482c0.078-0.163,0.154-0.327,0.231-0.49
		c0.171-0.361,0.342-0.721,0.514-1.082c0.125-0.263,0.25-0.526,0.376-0.789c0.133-0.279,0.265-0.558,0.398-0.836
		c0.123-0.258,0.246-0.517,0.369-0.775c0.038-0.079,0.078-0.158,0.115-0.237c0.039-0.082,0.037-0.057-0.003-0.138
		c-0.115-0.232-0.231-0.462-0.347-0.694c-0.158-0.317-0.316-0.634-0.473-0.95c-0.127-0.254-0.253-0.508-0.38-0.761
		c-0.131-0.263-0.263-0.525-0.394-0.788c-0.13-0.26-0.26-0.521-0.39-0.781c-0.076-0.153-0.153-0.305-0.23-0.457
		C22.003,1.978,21.994,1.96,21.983,1.935z"/>
	<path d="M25.582,9.906c0.038-0.082,0.071-0.155,0.106-0.227c0.08-0.168,0.161-0.335,0.241-0.502
		c0.177-0.372,0.353-0.744,0.53-1.115C26.579,7.807,26.7,7.554,26.821,7.3c0.126-0.265,0.253-0.53,0.379-0.795
		c0.006-0.014,0.013-0.027,0.019-0.041c0.008-0.017,0.008-0.034-0.001-0.051c-0.006-0.011-0.011-0.022-0.017-0.034
		c-0.097-0.196-0.194-0.391-0.291-0.587c-0.135-0.272-0.271-0.543-0.407-0.815c-0.128-0.256-0.256-0.512-0.383-0.768
		c-0.13-0.26-0.26-0.521-0.39-0.781c-0.043-0.085-0.086-0.17-0.129-0.255c-0.004-0.009-0.007-0.018-0.009-0.028
		c-0.001-0.003,0.004-0.01,0.007-0.011c0.012-0.002,0.025-0.003,0.037-0.003c0.083,0.002,0.166,0.004,0.249,0.007
		c0.47,0.018,0.939,0.036,1.409,0.054c0.077,0.003,0.061-0.006,0.095,0.062c0.075,0.15,0.149,0.301,0.224,0.452
		c0.133,0.267,0.266,0.535,0.4,0.802c0.122,0.245,0.245,0.489,0.367,0.734c0.136,0.272,0.271,0.544,0.407,0.815
		c0.058,0.117,0.116,0.234,0.177,0.349c0.028,0.052,0.027,0.097,0,0.149C28.79,6.903,28.617,7.252,28.444,7.6
		c-0.12,0.24-0.24,0.48-0.36,0.721c-0.139,0.279-0.277,0.557-0.416,0.836c-0.091,0.182-0.182,0.364-0.273,0.545
		c-0.006,0.011-0.012,0.022-0.017,0.034c-0.009,0.024-0.025,0.035-0.051,0.036c-0.053,0.002-0.105,0.008-0.158,0.012
		c-0.22,0.017-0.441,0.034-0.661,0.051c-0.215,0.017-0.431,0.036-0.646,0.054c-0.07,0.006-0.14,0.012-0.21,0.017
		C25.631,9.907,25.611,9.906,25.582,9.906z"/>
	<path fill="#69B710" d="M4.357,6.213C4.342,6.269,4.311,6.319,4.284,6.369C4.263,6.41,4.26,6.443,4.281,6.487
		c0.11,0.225,0.217,0.451,0.325,0.677C4.707,7.377,4.809,7.589,4.91,7.802C4.918,7.82,4.924,7.839,4.931,7.858
		c-0.107,0.004-0.214-0.005-0.32-0.011C4.514,7.84,4.417,7.836,4.319,7.835c-0.035,0-0.07,0.001-0.1-0.022
		C4.207,7.791,4.193,7.77,4.182,7.748C3.995,7.372,3.807,6.995,3.62,6.619c-0.02-0.04-0.041-0.08-0.062-0.12
		C3.551,6.485,3.549,6.471,3.557,6.457c0.046-0.086,0.091-0.172,0.136-0.258c0.08-0.044,0.166-0.022,0.249-0.021
		c0.112,0.001,0.223,0.014,0.335,0.018C4.304,6.196,4.333,6.198,4.357,6.213z"/>
	<path fill="#87A214" d="M4.219,7.813c0.095,0,0.19,0,0.285-0.001c0.012,0,0.026-0.003,0.037,0.001
		c0.076,0.024,0.154,0.012,0.23,0.013c0.056,0.001,0.109,0.01,0.16,0.031c0.006,0.008,0.012,0.016,0.016,0.025
		C5.033,8.061,5.119,8.24,5.204,8.419C5.308,8.639,5.412,8.86,5.517,9.08c0.037,0.077,0.074,0.154,0.111,0.231
		c0.007,0.015,0.013,0.032,0.022,0.053C5.599,9.37,5.554,9.364,5.51,9.361C5.428,9.354,5.345,9.345,5.263,9.338
		c-0.085-0.007-0.17-0.014-0.255-0.017C4.975,9.319,4.956,9.306,4.945,9.277c-0.003-0.007-0.007-0.013-0.01-0.02
		C4.759,8.904,4.583,8.551,4.407,8.198C4.354,8.09,4.299,7.983,4.245,7.875C4.235,7.855,4.228,7.833,4.219,7.813z"/>
	<path fill="#52C70C" d="M4.357,6.213C4.343,6.219,4.33,6.232,4.315,6.226C4.258,6.205,4.2,6.216,4.143,6.214
		c-0.04-0.002-0.08,0.002-0.119-0.012c-0.018-0.006-0.04-0.003-0.06-0.003c-0.09,0-0.181,0-0.271,0
		c0.002-0.005,0.004-0.011,0.006-0.016c0.002-0.005,0.006-0.01,0.01-0.015c0.002-0.005,0.004-0.01,0.006-0.016
		c0.002-0.005,0.006-0.01,0.009-0.015C3.725,6.116,3.737,6.1,3.746,6.082C3.948,5.676,4.15,5.27,4.353,4.864
		c0.025-0.049,0.053-0.096,0.079-0.144c0.169,0,0.337,0.006,0.505,0.018C4.985,4.741,5.038,4.73,5.08,4.765
		C5.068,4.793,5.058,4.821,5.045,4.848C4.964,5.013,4.882,5.177,4.8,5.341C4.667,5.609,4.534,5.876,4.4,6.143
		C4.388,6.168,4.379,6.194,4.357,6.213z"/>
	<path fill="#37D908" d="M5.08,4.765C5.021,4.765,4.962,4.768,4.902,4.753C4.865,4.744,4.823,4.751,4.783,4.751
		c-0.05,0-0.1,0-0.149,0c-0.015,0-0.031,0.003-0.044-0.002C4.551,4.734,4.511,4.735,4.471,4.735c-0.015,0-0.03-0.003-0.04-0.016
		c0.002-0.005,0.004-0.01,0.005-0.015c0.003-0.006,0.006-0.011,0.01-0.016c0.002-0.005,0.003-0.01,0.005-0.015
		c0.003-0.006,0.006-0.011,0.01-0.016c0.002-0.005,0.003-0.009,0.005-0.014c0.003-0.005,0.006-0.011,0.01-0.016
		c0.002-0.005,0.003-0.01,0.005-0.014c0.003-0.005,0.006-0.011,0.01-0.016c0.002-0.005,0.003-0.009,0.005-0.014
		C4.5,4.578,4.504,4.573,4.507,4.567c0-0.005,0.001-0.01,0.005-0.014c0.003-0.005,0.007-0.011,0.01-0.016
		c0.002-0.005,0.003-0.009,0.005-0.014c0.003-0.005,0.007-0.011,0.01-0.016c-0.001-0.005,0.001-0.01,0.005-0.014
		c0.004-0.005,0.007-0.011,0.01-0.017c0-0.005,0.001-0.01,0.005-0.014c0.004-0.005,0.007-0.011,0.01-0.017
		c0-0.005,0.001-0.01,0.005-0.014c0.004-0.005,0.007-0.011,0.01-0.017c-0.001-0.005,0.001-0.01,0.005-0.013
		c0.004-0.005,0.007-0.011,0.01-0.017c0-0.005,0.001-0.01,0.005-0.013c0.004-0.005,0.007-0.011,0.01-0.017
		c0.009-0.021,0.016-0.042,0.026-0.062c0.097-0.195,0.195-0.39,0.292-0.585C4.935,3.7,4.94,3.691,4.944,3.682
		C4.953,3.658,4.97,3.649,4.996,3.648c0.11-0.003,0.22-0.009,0.331-0.013c0.085-0.003,0.17-0.002,0.255-0.011
		c0.02-0.002,0.04,0,0.058,0c0.016,0.017,0.002,0.03-0.004,0.042C5.589,3.76,5.54,3.853,5.493,3.947
		C5.391,4.151,5.292,4.356,5.19,4.56C5.155,4.63,5.117,4.697,5.08,4.765z"/>
	<path fill="#52C70C" d="M4.612,4.355c-0.003,0.006-0.007,0.011-0.01,0.017C4.602,4.364,4.605,4.359,4.612,4.355z"/>
	<path fill="#52C70C" d="M4.597,4.386C4.594,4.391,4.59,4.397,4.587,4.403C4.586,4.395,4.59,4.389,4.597,4.386z"/>
	<path fill="#52C70C" d="M4.582,4.416c-0.003,0.006-0.007,0.011-0.01,0.017C4.572,4.425,4.575,4.419,4.582,4.416z"/>
	<path fill="#52C70C" d="M4.567,4.446C4.564,4.452,4.56,4.457,4.557,4.463C4.557,4.455,4.56,4.45,4.567,4.446z"/>
	<path fill="#52C70C" d="M4.552,4.476c-0.003,0.006-0.007,0.011-0.01,0.017C4.541,4.485,4.545,4.48,4.552,4.476z"/>
	<path fill="#52C70C" d="M4.537,4.507C4.534,4.512,4.53,4.518,4.527,4.523C4.527,4.515,4.53,4.51,4.537,4.507z"/>
	<path fill="#52C70C" d="M4.507,4.567C4.504,4.573,4.5,4.578,4.497,4.584C4.496,4.576,4.5,4.571,4.507,4.567z"/>
	<path fill="#52C70C" d="M4.492,4.598c-0.003,0.005-0.007,0.011-0.01,0.016C4.482,4.606,4.486,4.601,4.492,4.598z"/>
	<path fill="#52C70C" d="M4.477,4.628C4.474,4.633,4.47,4.639,4.467,4.644C4.467,4.636,4.471,4.631,4.477,4.628z"/>
	<path fill="#52C70C" d="M4.462,4.658c-0.003,0.005-0.007,0.011-0.01,0.016C4.452,4.666,4.456,4.661,4.462,4.658z"/>
	<path fill="#52C70C" d="M4.447,4.689c-0.003,0.005-0.007,0.01-0.01,0.016C4.437,4.697,4.441,4.692,4.447,4.689z"/>
	<path fill="#52C70C" d="M4.522,4.537c-0.003,0.005-0.007,0.011-0.01,0.016C4.512,4.546,4.515,4.54,4.522,4.537z"/>
	<path fill="#69B710" d="M3.723,6.137C3.72,6.142,3.717,6.147,3.714,6.152C3.717,6.147,3.72,6.142,3.723,6.137z"/>
	<path fill="#69B710" d="M3.708,6.167c-0.003,0.005-0.006,0.01-0.01,0.015C3.702,6.177,3.705,6.172,3.708,6.167z"/>
	<path fill="#6AB610" d="M6.787,8.098c-0.04-0.075-0.082-0.149-0.12-0.225c-0.101-0.202-0.199-0.405-0.3-0.608
		C6.262,7.054,6.156,6.843,6.051,6.632C6.042,6.614,6.034,6.596,6.024,6.578c-0.009-0.017-0.008-0.033,0.001-0.05
		c0.034-0.064,0.067-0.129,0.1-0.194C6.169,6.3,6.22,6.294,6.274,6.299C6.473,6.315,6.672,6.32,6.872,6.324
		c0.117,0.002,0.234,0.023,0.351,0.018c0.022-0.001,0.045,0.004,0.061,0.023C7.282,6.389,7.27,6.409,7.258,6.427
		c-0.029,0.043-0.022,0.082,0,0.127c0.067,0.135,0.129,0.272,0.194,0.408c0.067,0.14,0.135,0.28,0.202,0.421
		c0.101,0.211,0.201,0.421,0.301,0.632C7.979,8.062,7.999,8.111,8.02,8.159C7.988,8.184,7.952,8.172,7.918,8.167
		C7.747,8.14,7.574,8.149,7.402,8.141c-0.177-0.008-0.354-0.026-0.531-0.02C6.841,8.123,6.811,8.121,6.787,8.098z"/>
	<path fill="#8C9F15" d="M6.787,8.098c0.073,0,0.145,0,0.218,0.001c0.05,0,0.1-0.005,0.149,0.012
		C7.17,8.117,7.188,8.114,7.206,8.114c0.068,0,0.135,0,0.203,0c0.032,0,0.065-0.001,0.096,0.01C7.521,8.13,7.54,8.128,7.558,8.129
		c0.053,0,0.105,0,0.158,0C7.77,8.13,7.825,8.13,7.88,8.14c0.046,0.008,0.094,0.011,0.14,0.019C8.044,8.206,8.068,8.253,8.091,8.3
		C8.184,8.495,8.277,8.69,8.37,8.884c0.081,0.17,0.16,0.341,0.241,0.511c0.066,0.138,0.133,0.276,0.199,0.414
		C8.82,9.832,8.835,9.852,8.837,9.878C8.76,9.878,8.686,9.856,8.609,9.85C8.432,9.837,8.255,9.833,8.078,9.829
		C7.933,9.825,7.789,9.795,7.644,9.82c-0.009-0.015-0.02-0.029-0.027-0.044C7.451,9.443,7.286,9.111,7.121,8.779
		C7.019,8.575,6.917,8.371,6.815,8.167C6.804,8.145,6.789,8.124,6.787,8.098z"/>
	<path fill="#40D30A" d="M6.769,5.049C6.769,5.044,6.77,5.04,6.774,5.036c0.004-0.006,0.007-0.011,0.01-0.018
		C6.784,5.014,6.785,5.009,6.789,5.006C6.793,5,6.796,4.994,6.799,4.988c0.009-0.021,0.016-0.042,0.026-0.062
		C6.902,4.769,6.977,4.61,7.058,4.454C7.19,4.201,7.314,3.943,7.44,3.687C7.447,3.674,7.456,3.662,7.464,3.65
		c0.351,0.007,0.702,0.035,1.053,0.038c0.032,0,0.066,0.003,0.083,0.039C8.582,3.768,8.565,3.81,8.545,3.851
		C8.461,4.022,8.376,4.193,8.291,4.363c-0.12,0.24-0.24,0.48-0.36,0.72c-0.008,0.015-0.018,0.03-0.027,0.044
		c-0.041,0.03-0.087,0.035-0.136,0.033c-0.21-0.01-0.42-0.022-0.63-0.025C7.03,5.134,6.923,5.117,6.815,5.118
		c-0.024,0-0.059,0.003-0.061-0.038c0-0.005,0.001-0.01,0.005-0.014C6.763,5.061,6.766,5.055,6.769,5.049z"/>
	<path fill="#21E805" d="M8.6,3.727C8.576,3.714,8.549,3.709,8.521,3.71c-0.065,0.001-0.131,0.001-0.196,0
		c-0.047,0-0.095,0.005-0.142-0.012C8.168,3.692,8.149,3.695,8.131,3.695c-0.06,0-0.12,0-0.181,0c-0.042,0-0.085,0.003-0.127-0.012
		C7.806,3.677,7.784,3.68,7.764,3.68c-0.073,0-0.146,0-0.218,0c-0.031,0-0.06-0.005-0.081-0.03c0,0,0,0,0,0
		C7.474,3.642,7.47,3.628,7.48,3.621L7.481,3.62c0.004-0.006,0.01-0.012,0.012-0.019c0-0.005,0.001-0.009,0.005-0.012
		c0.004-0.006,0.008-0.012,0.01-0.018C7.507,3.566,7.509,3.562,7.512,3.558c0.004-0.006,0.009-0.011,0.01-0.018
		C7.522,3.535,7.524,3.531,7.527,3.528c0.004-0.006,0.009-0.011,0.01-0.018c0-0.005,0.001-0.009,0.005-0.012
		c0.004-0.006,0.009-0.011,0.01-0.018c0-0.005,0.001-0.009,0.005-0.012c0.004-0.006,0.009-0.011,0.01-0.019
		C7.567,3.444,7.569,3.441,7.572,3.438c0.004-0.006,0.01-0.011,0.01-0.019c0-0.005,0.001-0.008,0.005-0.011
		c0.004-0.006,0.01-0.011,0.01-0.019c0-0.005,0.001-0.008,0.005-0.011c0.005-0.006,0.01-0.011,0.01-0.019
		C7.612,3.354,7.614,3.35,7.617,3.347c0.005-0.006,0.01-0.011,0.011-0.019c0.04-0.084,0.078-0.168,0.119-0.251
		c0.092-0.186,0.186-0.372,0.28-0.558C8.031,2.51,8.035,2.501,8.04,2.492c0.009-0.017,0.022-0.027,0.042-0.028
		c0.023-0.001,0.045-0.003,0.068-0.003C8.372,2.454,8.595,2.45,8.818,2.439c0.12-0.005,0.241-0.01,0.361-0.013
		c0.017,0,0.035,0.001,0.052,0.002c0.01,0.001,0.013,0.01,0.011,0.016C9.237,2.463,9.229,2.481,9.22,2.499
		C9.143,2.652,9.066,2.803,8.99,2.956C8.893,3.151,8.797,3.347,8.7,3.542C8.669,3.605,8.634,3.666,8.6,3.727z"/>
	<path fill="#51C70C" d="M6.754,5.08c0.01,0.014,0.024,0.017,0.039,0.017c0.038,0,0.075,0,0.113,0C6.953,5.098,7,5.093,7.047,5.11
		c0.016,0.006,0.035,0.003,0.052,0.003c0.063,0,0.125,0,0.188,0c0.04,0,0.08-0.003,0.119,0.012C7.421,5.13,7.44,5.127,7.457,5.127
		c0.068,0,0.135,0,0.203,0c0.035,0,0.07-0.002,0.104,0.011c0.018,0.007,0.04,0.006,0.059-0.002c0.026-0.012,0.054-0.008,0.081-0.008
		C7.898,5.142,7.894,5.157,7.888,5.17C7.759,5.428,7.63,5.686,7.501,5.944c-0.008,0.016-0.018,0.03-0.027,0.045
		c-0.002,0.005-0.005,0.01-0.01,0.014C7.462,6.008,7.46,6.013,7.458,6.019c-0.002,0.006-0.005,0.01-0.009,0.014
		C7.447,6.038,7.446,6.043,7.444,6.049c-0.002,0.006-0.005,0.01-0.009,0.014C7.432,6.068,7.43,6.074,7.429,6.079
		c-0.002,0.006-0.005,0.01-0.009,0.015c-0.002,0.005-0.004,0.01-0.005,0.015C7.412,6.115,7.408,6.12,7.404,6.124
		c-0.002,0.005-0.004,0.01-0.005,0.015C7.396,6.145,7.393,6.15,7.389,6.154c-0.002,0.005-0.004,0.01-0.005,0.015
		C7.381,6.175,7.378,6.18,7.374,6.185c-0.002,0.005-0.003,0.01-0.005,0.015C7.366,6.205,7.363,6.21,7.359,6.215
		C7.357,6.22,7.356,6.225,7.354,6.229C7.351,6.235,7.348,6.24,7.344,6.245C7.342,6.25,7.341,6.255,7.339,6.26
		c-0.003,0.006-0.006,0.011-0.01,0.016C7.327,6.28,7.326,6.285,7.324,6.29c-0.003,0.006-0.006,0.011-0.01,0.016
		c0.001,0.005-0.001,0.01-0.005,0.014c-0.003,0.006-0.006,0.011-0.01,0.016c0.001,0.005-0.001,0.01-0.005,0.014
		c-0.003,0.006-0.006,0.011-0.01,0.016c0,0,0.001,0,0.001,0c-0.045,0-0.09,0-0.136-0.001C7.101,6.363,7.054,6.369,7.007,6.352
		C6.992,6.346,6.973,6.349,6.955,6.349c-0.06,0-0.121,0-0.181,0c-0.042,0-0.085,0.004-0.127-0.012
		C6.632,6.331,6.613,6.334,6.595,6.334c-0.065,0-0.131,0-0.196,0c-0.037,0-0.074,0-0.112-0.011c-0.033-0.009-0.07-0.01-0.104,0.003
		c-0.02,0.007-0.039,0.007-0.059,0.008C6.18,6.22,6.235,6.104,6.292,5.99c0.115-0.231,0.23-0.461,0.346-0.692
		C6.675,5.224,6.709,5.149,6.754,5.08z"/>
	<path fill="#A29018" d="M7.644,9.82C7.654,9.8,7.668,9.787,7.691,9.788C7.75,9.791,7.81,9.779,7.869,9.799
		c0.018,0.006,0.04,0.004,0.06,0.004c0.062,0,0.125,0,0.187,0c0.04,0,0.08-0.003,0.118,0.012C8.25,9.82,8.269,9.818,8.287,9.818
		c0.067,0,0.135,0,0.202,0c0.035,0,0.069,0,0.104,0.01c0.025,0.008,0.055,0.006,0.082,0.004c0.049-0.003,0.094,0.006,0.136,0.032
		C8.819,9.87,8.828,9.874,8.837,9.878C8.843,9.887,8.85,9.894,8.854,9.903c0.092,0.192,0.184,0.384,0.276,0.577
		c0.037,0.077,0.073,0.154,0.109,0.231c0.012,0.027,0.004,0.04-0.023,0.038c-0.142-0.012-0.285-0.025-0.427-0.037
		c-0.075-0.006-0.15-0.012-0.225-0.018c-0.152-0.012-0.305-0.024-0.457-0.034c-0.034-0.002-0.055-0.014-0.071-0.045
		c-0.098-0.198-0.197-0.395-0.296-0.592c-0.003-0.007-0.004-0.014-0.006-0.022C7.731,9.996,7.728,9.99,7.724,9.985
		C7.72,9.981,7.719,9.977,7.719,9.971C7.716,9.966,7.713,9.96,7.709,9.955C7.705,9.951,7.704,9.947,7.704,9.941
		C7.701,9.936,7.698,9.93,7.694,9.925C7.69,9.921,7.689,9.916,7.689,9.911C7.686,9.905,7.683,9.9,7.679,9.894
		C7.675,9.891,7.674,9.886,7.674,9.881C7.671,9.875,7.668,9.87,7.664,9.864C7.66,9.86,7.659,9.856,7.659,9.85
		C7.656,9.845,7.653,9.84,7.649,9.834C7.647,9.829,7.646,9.824,7.644,9.82z"/>
	<path fill="#40D30A" d="M7.48,3.621C7.479,3.633,7.476,3.644,7.464,3.65C7.464,3.637,7.468,3.627,7.48,3.621z"/>
	<path fill="#40D30A" d="M7.538,3.51c0,0.008-0.003,0.014-0.01,0.018C7.527,3.52,7.531,3.514,7.538,3.51z"/>
	<path fill="#40D30A" d="M7.523,3.54c0,0.008-0.003,0.014-0.01,0.018C7.512,3.55,7.515,3.544,7.523,3.54z"/>
	<path fill="#40D30A" d="M7.508,3.571c0,0.008-0.003,0.014-0.01,0.018C7.497,3.58,7.5,3.574,7.508,3.571z"/>
	<path fill="#40D30A" d="M7.493,3.601C7.489,3.607,7.485,3.613,7.481,3.62C7.482,3.611,7.485,3.605,7.493,3.601z"/>
	<path fill="#51C70C" d="M6.799,4.988C6.796,4.994,6.792,5,6.789,5.006C6.788,4.998,6.792,4.992,6.799,4.988z"/>
	<path fill="#51C70C" d="M6.784,5.019C6.781,5.025,6.777,5.03,6.774,5.036C6.773,5.028,6.777,5.022,6.784,5.019z"/>
	<path fill="#51C70C" d="M6.769,5.049c-0.003,0.006-0.007,0.012-0.01,0.018C6.758,5.058,6.762,5.053,6.769,5.049z"/>
	<path fill="#6AB610" d="M7.464,6.002c0.003-0.005,0.007-0.009,0.01-0.014C7.471,5.993,7.468,5.998,7.464,6.002z"/>
	<path fill="#6AB610" d="M7.449,6.033c0.003-0.005,0.006-0.01,0.009-0.014C7.455,6.023,7.452,6.028,7.449,6.033z"/>
	<path fill="#6AB610" d="M7.434,6.063c0.003-0.005,0.006-0.01,0.009-0.014C7.44,6.054,7.437,6.058,7.434,6.063z"/>
	<path fill="#6AB610" d="M7.419,6.094c0.003-0.005,0.006-0.01,0.009-0.015C7.425,6.084,7.422,6.089,7.419,6.094z"/>
	<path fill="#6AB610" d="M7.404,6.124c0.003-0.005,0.006-0.01,0.01-0.015C7.411,6.114,7.407,6.119,7.404,6.124z"/>
	<path fill="#6AB610" d="M7.389,6.154c0.003-0.005,0.007-0.01,0.01-0.015C7.396,6.144,7.392,6.149,7.389,6.154z"/>
	<path fill="#6AB610" d="M7.374,6.185c0.003-0.005,0.007-0.01,0.01-0.015C7.381,6.174,7.377,6.179,7.374,6.185z"/>
	<path fill="#6AB610" d="M7.359,6.215c0.003-0.005,0.007-0.011,0.01-0.016C7.366,6.205,7.362,6.21,7.359,6.215z"/>
	<path fill="#6AB610" d="M7.344,6.245c0.003-0.005,0.007-0.011,0.01-0.016C7.351,6.235,7.347,6.24,7.344,6.245z"/>
	<path fill="#6AB610" d="M7.329,6.276C7.332,6.27,7.336,6.265,7.339,6.26C7.336,6.265,7.332,6.27,7.329,6.276z"/>
	<path fill="#6AB610" d="M7.314,6.306c0.003-0.005,0.007-0.011,0.01-0.016C7.321,6.295,7.317,6.301,7.314,6.306z"/>
	<path fill="#6AB610" d="M7.299,6.336c0.003-0.005,0.007-0.011,0.01-0.016C7.306,6.325,7.302,6.331,7.299,6.336z"/>
	<path fill="#6AB610" d="M7.284,6.366c0.003-0.005,0.007-0.01,0.01-0.016C7.294,6.358,7.291,6.363,7.284,6.366z"/>
	<path fill="#40D30A" d="M7.628,3.328c0,0.008-0.003,0.015-0.011,0.019C7.617,3.339,7.62,3.332,7.628,3.328z"/>
	<path fill="#40D30A" d="M7.613,3.358c0,0.008-0.003,0.015-0.01,0.019C7.602,3.369,7.605,3.362,7.613,3.358z"/>
	<path fill="#40D30A" d="M7.598,3.389c0,0.008-0.003,0.015-0.01,0.019C7.587,3.399,7.59,3.393,7.598,3.389z"/>
	<path fill="#40D30A" d="M7.583,3.419c0,0.008-0.003,0.015-0.01,0.019C7.572,3.429,7.575,3.423,7.583,3.419z"/>
	<path fill="#8C9F15" d="M7.649,9.834C7.653,9.84,7.656,9.845,7.659,9.85C7.653,9.847,7.649,9.842,7.649,9.834z"/>
	<path fill="#8C9F15" d="M7.664,9.864c0.003,0.005,0.007,0.011,0.01,0.016C7.668,9.877,7.664,9.872,7.664,9.864z"/>
	<path fill="#8C9F15" d="M7.679,9.894C7.683,9.9,7.686,9.905,7.689,9.911C7.683,9.907,7.679,9.902,7.679,9.894z"/>
	<path fill="#8C9F15" d="M7.694,9.925c0.003,0.006,0.007,0.011,0.01,0.017C7.697,9.938,7.694,9.932,7.694,9.925z"/>
	<path fill="#40D30A" d="M7.568,3.449c0,0.008-0.003,0.014-0.01,0.019C7.557,3.46,7.56,3.453,7.568,3.449z"/>
	<path fill="#8C9F15" d="M7.709,9.955c0.003,0.006,0.007,0.011,0.01,0.017C7.713,9.968,7.709,9.963,7.709,9.955z"/>
	<path fill="#8C9F15" d="M7.724,9.985c0.003,0.006,0.007,0.011,0.01,0.017C7.727,9.998,7.724,9.993,7.724,9.985z"/>
	<path fill="#40D30A" d="M7.553,3.48c0,0.008-0.003,0.014-0.01,0.018C7.542,3.49,7.546,3.484,7.553,3.48z"/>
	<path fill="#48CD0B" d="M25.815,6.182c0.004,0.004,0.005,0.008,0.005,0.013c0.003,0.006,0.007,0.011,0.01,0.017
		c0.004,0.004,0.005,0.008,0.005,0.014c0.003,0.005,0.007,0.011,0.01,0.016c0.002,0.005,0.003,0.009,0.005,0.014
		c0.003,0.005,0.007,0.011,0.01,0.016c0.002,0.005,0.003,0.009,0.005,0.014c0.003,0.005,0.007,0.011,0.01,0.016
		c0.002,0.005,0.003,0.01,0.005,0.014c0.004,0.005,0.007,0.01,0.01,0.016c0.002,0.005,0.003,0.01,0.005,0.014
		c0.004,0.005,0.007,0.01,0.01,0.016c0.002,0.005,0.003,0.01,0.005,0.014c0.004,0.005,0.007,0.01,0.01,0.016
		c0.002,0.005,0.003,0.01,0.005,0.015c0.004,0.005,0.007,0.01,0.01,0.015c0.002,0.005,0.003,0.01,0.005,0.015
		c0.004,0.005,0.007,0.01,0.01,0.015c0.002,0.005,0.004,0.01,0.005,0.015c-0.009,0.044-0.043,0.033-0.071,0.032
		c-0.212-0.006-0.424-0.018-0.637-0.025c-0.122-0.004-0.244-0.013-0.367-0.016c-0.042-0.001-0.085-0.009-0.121-0.035
		c-0.009-0.015-0.019-0.029-0.027-0.045c-0.182-0.364-0.363-0.728-0.545-1.092c-0.062-0.124-0.124-0.247-0.186-0.37
		c-0.008-0.016-0.014-0.032-0.021-0.048c0.021-0.02,0.046-0.014,0.071-0.013c0.363,0.013,0.725,0.03,1.088,0.044
		c0.01,0,0.02-0.002,0.03-0.003c0.009,0.015,0.019,0.029,0.027,0.044c0.157,0.315,0.314,0.631,0.472,0.946
		c0.037,0.074,0.075,0.147,0.112,0.221c0.009,0.018,0.015,0.037,0.022,0.055C25.808,6.171,25.812,6.177,25.815,6.182z"/>
	<path fill="#2AE206" d="M25.172,4.899c-0.003,0.015-0.008,0.029-0.027,0.031c-0.007,0.001-0.016,0.002-0.022,0
		c-0.071-0.023-0.144-0.011-0.216-0.014c-0.067-0.003-0.135,0.008-0.201-0.014c-0.016-0.005-0.035-0.001-0.052-0.001
		c-0.068,0-0.135,0-0.203,0c-0.015,0-0.031,0.003-0.045-0.001c-0.096-0.025-0.194-0.013-0.291-0.013
		c-0.046,0-0.088-0.02-0.133-0.017c-0.056-0.11-0.112-0.219-0.167-0.329c-0.138-0.276-0.275-0.552-0.413-0.829
		c-0.05-0.101-0.102-0.201-0.153-0.302c-0.01-0.02-0.024-0.039-0.026-0.062c0.014-0.014,0.031-0.014,0.049-0.012
		c0.193,0.029,0.389,0.021,0.583,0.032c0.187,0.011,0.375,0.015,0.562,0.021c0.01,0.017,0.021,0.034,0.03,0.051
		c0.151,0.302,0.302,0.603,0.451,0.905c0.021,0.042,0.05,0.081,0.062,0.128c0.001,0.008,0.006,0.013,0.01,0.019
		c0.004,0.003,0.005,0.007,0.005,0.012c0.001,0.008,0.006,0.013,0.01,0.018c0.004,0.003,0.005,0.007,0.005,0.012
		c0.002,0.007,0.006,0.013,0.01,0.018c0.004,0.003,0.005,0.007,0.005,0.012c0.001,0.007,0.006,0.012,0.01,0.018
		c0.004,0.003,0.005,0.007,0.005,0.012c0.003,0.006,0.006,0.012,0.01,0.018c0.004,0.003,0.005,0.007,0.005,0.012
		c0.003,0.006,0.006,0.012,0.01,0.018c0.004,0.003,0.005,0.007,0.005,0.012c0.003,0.006,0.006,0.012,0.01,0.018
		c0.004,0.003,0.005,0.008,0.005,0.013c0.003,0.006,0.006,0.012,0.01,0.018c0.004,0.003,0.005,0.008,0.005,0.013
		c0.003,0.006,0.006,0.012,0.01,0.017c0.004,0.003,0.005,0.008,0.005,0.013c0.003,0.006,0.006,0.012,0.01,0.017
		c0.004,0.004,0.005,0.008,0.005,0.013c0.003,0.006,0.007,0.011,0.01,0.017c0.004,0.004,0.005,0.008,0.005,0.013
		c0.003,0.006,0.007,0.012,0.01,0.017c0.004,0.004,0.005,0.008,0.005,0.013c0.003,0.006,0.007,0.011,0.01,0.017
		c0.004,0.004,0.005,0.008,0.005,0.013c0.003,0.006,0.007,0.011,0.01,0.017C25.17,4.889,25.172,4.894,25.172,4.899z"/>
	<path fill="#5DBF0E" d="M24.76,6.426c0.015,0,0.031-0.004,0.045,0c0.074,0.021,0.149,0.012,0.223,0.014
		c0.05,0.001,0.099-0.003,0.149,0.012c0.021,0.007,0.045,0.003,0.067,0.003c0.063,0,0.125,0,0.188,0c0.032,0,0.064-0.001,0.096,0.01
		c0.018,0.006,0.039,0.004,0.059,0.005c0.065,0,0.13,0,0.195,0c0.037,0,0.074-0.002,0.111,0.011c0.02,0.007,0.045,0.01,0.062-0.012
		c0.005,0.006,0.011,0.011,0.014,0.017c0.042,0.086,0.041,0.062,0.001,0.144c-0.177,0.356-0.354,0.713-0.532,1.069
		c-0.009,0.018-0.019,0.035-0.029,0.052c-0.093,0.046-0.192,0.024-0.288,0.02c-0.22-0.01-0.44-0.023-0.66-0.027
		c-0.084-0.002-0.169-0.001-0.252-0.023c0.024-0.055,0.048-0.11,0.073-0.165c0.079-0.168,0.158-0.336,0.237-0.503
		c0.075-0.158,0.152-0.316,0.228-0.474c0.008-0.016,0.014-0.032,0.023-0.047c0.015-0.026,0.016-0.052,0-0.078
		C24.765,6.445,24.763,6.435,24.76,6.426z"/>
	<path fill="#74AF11" d="M24.208,7.722c0.015-0.003,0.03-0.004,0.044-0.009c0.027-0.009,0.055-0.011,0.081-0.001
		c0.029,0.011,0.059,0.01,0.089,0.01c0.063,0,0.125,0,0.188,0c0.042,0,0.085-0.003,0.126,0.012c0.016,0.006,0.035,0.003,0.052,0.003
		c0.065,0,0.13,0,0.195,0c0.037,0,0.074-0.002,0.111,0.011c0.018,0.007,0.04,0.004,0.059,0.004c0.085,0,0.17,0,0.255,0
		c-0.022,0.047-0.044,0.095-0.067,0.142c-0.123,0.246-0.245,0.493-0.369,0.739c-0.035,0.069-0.072,0.137-0.108,0.206
		c-0.004,0.006-0.007,0.012-0.011,0.017c0.001,0.005-0.001,0.009-0.004,0.013c-0.004,0.006-0.007,0.012-0.011,0.017
		c0.001,0.005-0.001,0.009-0.004,0.013c-0.003,0.005-0.007,0.011-0.011,0.016l0.001-0.001c-0.06,0.038-0.127,0.024-0.19,0.019
		c-0.197-0.015-0.395-0.019-0.592-0.026c-0.132-0.004-0.263-0.021-0.395-0.009c0.002-0.023,0.015-0.042,0.024-0.062
		c0.122-0.255,0.243-0.51,0.365-0.764c0.05-0.104,0.099-0.207,0.15-0.311C24.193,7.747,24.201,7.735,24.208,7.722z"/>
	<path fill="#85A414" d="M23.647,8.898c0.075-0.037,0.154-0.039,0.234-0.02c0.019,0.004,0.04,0.005,0.06,0.005
		c0.068,0.001,0.135,0,0.203,0c0.035,0,0.07-0.002,0.104,0.011c0.018,0.007,0.04,0.004,0.06,0.004c0.06,0,0.12,0,0.181,0
		c0.042,0,0.085-0.003,0.126,0.012c0.016,0.006,0.035,0.003,0.052,0.003c0.053,0.001,0.105,0.001,0.158,0.001
		c-0.002,0.023-0.016,0.042-0.025,0.062c-0.077,0.157-0.154,0.315-0.233,0.472c-0.084,0.168-0.169,0.336-0.253,0.504
		c-0.003,0.007-0.008,0.012-0.012,0.019c-0.033,0.023-0.071,0.022-0.109,0.019c-0.2-0.016-0.4-0.022-0.6-0.026
		c-0.135-0.003-0.27-0.029-0.405-0.012c-0.013,0.002-0.025-0.004-0.034-0.012c0.023-0.052,0.045-0.105,0.07-0.157
		c0.137-0.289,0.274-0.577,0.412-0.866C23.637,8.909,23.643,8.904,23.647,8.898z"/>
	<path fill="#17EF03" d="M24.418,3.391c-0.009,0.014-0.023,0.018-0.039,0.018c-0.105,0-0.212,0.011-0.315-0.003
		c-0.113-0.015-0.225-0.007-0.337-0.012c-0.02-0.001-0.041,0-0.059-0.006c-0.027-0.009-0.054-0.009-0.082-0.009
		c-0.07,0-0.14-0.001-0.21,0c-0.035,0-0.07-0.001-0.101-0.02c-0.016-0.01-0.033-0.01-0.051-0.009c0,0,0,0,0,0
		c-0.004-0.005-0.007-0.01-0.01-0.016c-0.049-0.096-0.097-0.193-0.146-0.289c-0.09-0.179-0.18-0.359-0.27-0.538
		c-0.011-0.022-0.021-0.045-0.03-0.065c0.014-0.019,0.03-0.012,0.044-0.012c0.206,0.008,0.411,0.016,0.617,0.024
		c0.068,0.003,0.136,0.003,0.203,0.006c0.1,0.004,0.201,0.009,0.301,0.012c0.023,0.001,0.037,0.01,0.046,0.031
		c0.015,0.034,0.037,0.066,0.046,0.103c0.001,0.007,0.006,0.013,0.01,0.018c0.004,0.003,0.005,0.007,0.005,0.012
		c0.003,0.006,0.006,0.012,0.01,0.018c0.004,0.003,0.005,0.007,0.005,0.012c0.003,0.006,0.006,0.012,0.01,0.018
		c0.004,0.003,0.005,0.007,0.005,0.012c0.003,0.006,0.006,0.012,0.01,0.018c0.004,0.003,0.005,0.008,0.005,0.013
		c0.003,0.006,0.006,0.012,0.01,0.017c0.004,0.003,0.005,0.008,0.005,0.013c0.003,0.006,0.006,0.012,0.01,0.017
		c0.004,0.003,0.005,0.008,0.005,0.013c0.003,0.006,0.006,0.012,0.01,0.017c0.004,0.004,0.005,0.008,0.005,0.013
		c0.003,0.006,0.007,0.011,0.01,0.017c0.004,0.003,0.006,0.007,0.005,0.012c0.002,0.008,0.007,0.013,0.013,0.019l0.001,0.001
		c0.009,0.007,0.006,0.021,0.014,0.028c0.003,0.002,0.005,0.005,0.004,0.01c0,0.009,0.006,0.015,0.011,0.021
		c0.004,0.002,0.005,0.005,0.004,0.009c0,0.009,0.006,0.015,0.011,0.021c0.004,0.002,0.005,0.005,0.004,0.009
		c0,0.009,0.006,0.015,0.011,0.021c0.004,0.002,0.005,0.006,0.004,0.01c0.001,0.008,0.006,0.014,0.011,0.02
		c0.004,0.002,0.005,0.006,0.004,0.01c0.001,0.008,0.006,0.014,0.011,0.02c0.004,0.002,0.005,0.006,0.004,0.01
		c0.001,0.008,0.006,0.014,0.011,0.02c0.004,0.003,0.005,0.006,0.004,0.011c0.001,0.008,0.006,0.014,0.011,0.02
		c0.004,0.003,0.005,0.006,0.004,0.011c0.001,0.008,0.006,0.014,0.011,0.02c0.004,0.003,0.005,0.006,0.004,0.011
		c0.001,0.008,0.006,0.013,0.011,0.019c0.004,0.003,0.005,0.007,0.004,0.011c0.001,0.008,0.007,0.013,0.011,0.019
		c0.004,0.003,0.005,0.007,0.004,0.011c0.001,0.008,0.007,0.013,0.011,0.019c0.004,0.003,0.005,0.007,0.004,0.011
		c0.001,0.007,0.007,0.013,0.011,0.019c0.004,0.003,0.005,0.007,0.004,0.012c0.002,0.007,0.007,0.013,0.011,0.019
		c0.004,0.003,0.005,0.007,0.004,0.012c0.002,0.007,0.007,0.012,0.011,0.019c0.004,0.003,0.005,0.007,0.004,0.012
		c0.003,0.006,0.007,0.012,0.01,0.018c0.004,0.003,0.005,0.007,0.005,0.012c0.003,0.006,0.007,0.012,0.01,0.018
		C24.417,3.381,24.419,3.385,24.418,3.391z"/>
	<path fill="#989717" d="M23.152,9.939c0.076-0.021,0.154-0.015,0.231-0.015c0.005,0,0.01-0.001,0.015,0
		c0.106,0.026,0.214,0.01,0.321,0.015c0.03,0.001,0.059,0,0.089,0.01c0.018,0.006,0.039,0.005,0.059,0.005
		c0.065,0.001,0.13,0,0.195,0c0.037,0,0.074,0.002,0.111,0.01c0.041,0.009,0.085,0.005,0.127,0.006
		c-0.01,0.033-0.026,0.062-0.043,0.091c0,0.006-0.002,0.01-0.008,0.011c-0.002,0.006-0.005,0.012-0.007,0.019
		c0,0.006-0.002,0.01-0.008,0.012c-0.002,0.006-0.005,0.012-0.007,0.018c-0.001,0.005-0.004,0.009-0.008,0.012
		c-0.002,0.006-0.005,0.012-0.007,0.018c-0.001,0.005-0.004,0.009-0.008,0.012c-0.002,0.006-0.004,0.012-0.007,0.018
		c-0.001,0.005-0.004,0.01-0.008,0.013c-0.005,0.014-0.008,0.029-0.016,0.042c-0.07,0.122-0.128,0.25-0.189,0.376
		c-0.018,0.038-0.04,0.049-0.08,0.052c-0.16,0.011-0.32,0.026-0.479,0.039c-0.062,0.005-0.125,0.01-0.187,0.015
		c-0.132,0.011-0.265,0.021-0.397,0.031c-0.022,0.002-0.045,0.008-0.066-0.003c-0.007-0.016,0.001-0.03,0.007-0.043
		c0.072-0.151,0.145-0.303,0.218-0.454c0.039-0.081,0.077-0.163,0.116-0.244C23.128,9.983,23.141,9.961,23.152,9.939z"/>
	<path fill="#2AE206" d="M24.174,2.895c-0.011-0.006-0.014-0.017-0.014-0.028C24.17,2.873,24.174,2.883,24.174,2.895z"/>
	<path fill="#48CD0B" d="M24.972,4.493c-0.007-0.004-0.011-0.01-0.01-0.019C24.969,4.479,24.972,4.485,24.972,4.493z"/>
	<path fill="#48CD0B" d="M24.987,4.523c-0.007-0.004-0.011-0.01-0.01-0.018C24.984,4.509,24.987,4.515,24.987,4.523z"/>
	<path fill="#48CD0B" d="M25.002,4.554c-0.007-0.004-0.011-0.01-0.01-0.018C24.999,4.539,25.002,4.545,25.002,4.554z"/>
	<path fill="#48CD0B" d="M25.017,4.584c-0.007-0.004-0.011-0.01-0.01-0.018C25.014,4.569,25.017,4.575,25.017,4.584z"/>
	<path fill="#48CD0B" d="M25.032,4.614c-0.007-0.004-0.01-0.01-0.01-0.018C25.029,4.6,25.032,4.606,25.032,4.614z"/>
	<path fill="#48CD0B" d="M25.047,4.644c-0.007-0.004-0.01-0.01-0.01-0.018C25.044,4.63,25.047,4.636,25.047,4.644z"/>
	<path fill="#48CD0B" d="M25.062,4.674c-0.007-0.004-0.01-0.01-0.01-0.018C25.059,4.66,25.062,4.666,25.062,4.674z"/>
	<path fill="#48CD0B" d="M25.077,4.704c-0.003-0.006-0.007-0.012-0.01-0.018C25.074,4.691,25.077,4.696,25.077,4.704z"/>
	<path fill="#48CD0B" d="M25.092,4.735c-0.003-0.006-0.007-0.012-0.01-0.017C25.089,4.721,25.092,4.726,25.092,4.735z"/>
	<path fill="#48CD0B" d="M25.107,4.765c-0.003-0.006-0.007-0.012-0.01-0.017C25.104,4.751,25.107,4.757,25.107,4.765z"/>
	<path fill="#48CD0B" d="M25.121,4.795c-0.003-0.006-0.007-0.011-0.01-0.017C25.118,4.781,25.122,4.787,25.121,4.795z"/>
	<path fill="#48CD0B" d="M25.137,4.825c-0.003-0.006-0.007-0.011-0.01-0.017C25.133,4.812,25.137,4.817,25.137,4.825z"/>
	<path fill="#48CD0B" d="M25.152,4.855c-0.003-0.006-0.007-0.011-0.01-0.017C25.148,4.842,25.152,4.847,25.152,4.855z"/>
	<path fill="#48CD0B" d="M25.166,4.885c-0.003-0.006-0.007-0.011-0.01-0.017C25.163,4.872,25.167,4.878,25.166,4.885z"/>
	<path fill="#2AE206" d="M24.036,2.623c-0.007-0.004-0.011-0.01-0.01-0.018C24.034,2.609,24.037,2.615,24.036,2.623z"/>
	<path fill="#2AE206" d="M24.051,2.653c-0.007-0.004-0.01-0.01-0.01-0.018C24.048,2.639,24.052,2.645,24.051,2.653z"/>
	<path fill="#2AE206" d="M24.066,2.684c-0.007-0.004-0.01-0.01-0.01-0.018C24.063,2.669,24.067,2.675,24.066,2.684z"/>
	<path fill="#2AE206" d="M24.081,2.714c-0.003-0.006-0.007-0.012-0.01-0.018C24.078,2.7,24.082,2.705,24.081,2.714z"/>
	<path fill="#2AE206" d="M24.096,2.744c-0.003-0.006-0.007-0.012-0.01-0.017C24.093,2.73,24.097,2.736,24.096,2.744z"/>
	<path fill="#2AE206" d="M24.111,2.774c-0.003-0.006-0.007-0.012-0.01-0.017C24.108,2.76,24.112,2.766,24.111,2.774z"/>
	<path fill="#2AE206" d="M24.126,2.804c-0.003-0.006-0.007-0.012-0.01-0.017C24.123,2.79,24.127,2.796,24.126,2.804z"/>
	<path fill="#2AE206" d="M24.141,2.834c-0.003-0.006-0.007-0.011-0.01-0.017C24.138,2.821,24.142,2.826,24.141,2.834z"/>
	<path fill="#5DBF0E" d="M25.815,6.182c-0.003-0.006-0.007-0.011-0.01-0.017C25.812,6.169,25.816,6.174,25.815,6.182z"/>
	<path fill="#5DBF0E" d="M25.83,6.212c-0.003-0.006-0.007-0.011-0.01-0.017C25.827,6.199,25.831,6.204,25.83,6.212z"/>
	<path fill="#2AE206" d="M24.159,2.865c-0.004-0.006-0.008-0.013-0.013-0.019C24.154,2.85,24.159,2.856,24.159,2.865z"/>
	<path fill="#5DBF0E" d="M25.845,6.242c-0.003-0.005-0.007-0.011-0.01-0.016C25.842,6.23,25.845,6.235,25.845,6.242z"/>
	<path fill="#5DBF0E" d="M25.86,6.273c-0.003-0.005-0.007-0.011-0.01-0.016C25.857,6.26,25.861,6.265,25.86,6.273z"/>
	<path fill="#5DBF0E" d="M25.875,6.303c-0.003-0.005-0.007-0.011-0.01-0.016C25.872,6.29,25.876,6.295,25.875,6.303z"/>
	<path fill="#2AE206" d="M24.189,2.925c-0.008-0.005-0.011-0.012-0.011-0.021C24.185,2.909,24.189,2.916,24.189,2.925z"/>
	<path fill="#5DBF0E" d="M25.89,6.333c-0.003-0.005-0.007-0.011-0.01-0.016C25.886,6.32,25.89,6.325,25.89,6.333z"/>
	<path fill="#5DBF0E" d="M25.905,6.363c-0.003-0.005-0.007-0.011-0.01-0.016C25.901,6.351,25.905,6.355,25.905,6.363z"/>
	<path fill="#2AE206" d="M24.204,2.955c-0.008-0.005-0.011-0.012-0.011-0.021C24.2,2.939,24.204,2.946,24.204,2.955z"/>
	<path fill="#5DBF0E" d="M25.92,6.393c-0.003-0.005-0.007-0.011-0.01-0.016C25.916,6.381,25.92,6.386,25.92,6.393z"/>
	<path fill="#5DBF0E" d="M25.935,6.423c-0.003-0.005-0.007-0.01-0.01-0.015C25.928,6.413,25.932,6.418,25.935,6.423z"/>
	<path fill="#5DBF0E" d="M25.95,6.454c-0.003-0.005-0.007-0.01-0.01-0.015C25.943,6.443,25.947,6.448,25.95,6.454z"/>
	<path fill="#2AE206" d="M24.218,2.985c-0.008-0.005-0.011-0.012-0.011-0.021C24.215,2.97,24.219,2.977,24.218,2.985z"/>
	<path fill="#2AE206" d="M24.233,3.016c-0.008-0.005-0.011-0.011-0.011-0.02C24.23,3,24.234,3.007,24.233,3.016z"/>
	<path fill="#2AE206" d="M24.249,3.046c-0.008-0.005-0.011-0.011-0.011-0.02C24.245,3.03,24.249,3.037,24.249,3.046z"/>
	<path fill="#2AE206" d="M24.263,3.076c-0.007-0.005-0.011-0.011-0.011-0.02C24.26,3.06,24.263,3.067,24.263,3.076z"/>
	<path fill="#2AE206" d="M24.278,3.106c-0.007-0.004-0.011-0.011-0.011-0.02C24.275,3.091,24.278,3.098,24.278,3.106z"/>
	<path fill="#2AE206" d="M24.293,3.136c-0.007-0.005-0.011-0.011-0.011-0.02C24.29,3.121,24.293,3.128,24.293,3.136z"/>
	<path fill="#2AE206" d="M24.308,3.166c-0.004-0.006-0.007-0.013-0.011-0.019C24.305,3.151,24.308,3.158,24.308,3.166z"/>
	<path fill="#2AE206" d="M24.323,3.197c-0.004-0.006-0.007-0.013-0.011-0.019C24.32,3.182,24.323,3.188,24.323,3.197z"/>
	<path fill="#2AE206" d="M24.338,3.227c-0.004-0.006-0.007-0.013-0.011-0.019C24.335,3.212,24.338,3.218,24.338,3.227z"/>
	<path fill="#2AE206" d="M24.353,3.257c-0.004-0.006-0.007-0.012-0.011-0.019C24.35,3.242,24.353,3.249,24.353,3.257z"/>
	<path fill="#2AE206" d="M24.368,3.287c-0.007-0.004-0.011-0.01-0.011-0.019C24.365,3.273,24.368,3.279,24.368,3.287z"/>
	<path fill="#2AE206" d="M24.383,3.317c-0.007-0.004-0.011-0.01-0.011-0.019C24.38,3.303,24.383,3.309,24.383,3.317z"/>
	<path fill="#2AE206" d="M23.214,3.334c0.003,0.005,0.007,0.011,0.01,0.016C23.217,3.346,23.213,3.341,23.214,3.334z"/>
	<path fill="#2AE206" d="M24.398,3.347c-0.004-0.006-0.007-0.012-0.01-0.018C24.395,3.333,24.398,3.339,24.398,3.347z"/>
	<path fill="#2AE206" d="M24.413,3.378c-0.003-0.006-0.007-0.012-0.011-0.018C24.41,3.363,24.414,3.369,24.413,3.378z"/>
	<path fill="#85A414" d="M24.854,8.856c0.004-0.006,0.007-0.012,0.011-0.017C24.865,8.847,24.861,8.852,24.854,8.856z"/>
	<path fill="#85A414" d="M24.839,8.886c0.004-0.006,0.007-0.012,0.011-0.017C24.85,8.877,24.846,8.882,24.839,8.886z"/>
	<path fill="#85A414" d="M24.824,8.915c0.004-0.005,0.007-0.011,0.011-0.016C24.835,8.907,24.832,8.912,24.824,8.915z"/>
	<path fill="#85A414" d="M24.25,10.073c0.001-0.005,0.004-0.009,0.008-0.011C24.255,10.065,24.253,10.069,24.25,10.073z"/>
	<path fill="#85A414" d="M24.235,10.103c0.001-0.005,0.004-0.009,0.008-0.012C24.24,10.095,24.238,10.099,24.235,10.103z"/>
	<path fill="#85A414" d="M24.22,10.134c0.003-0.004,0.005-0.008,0.008-0.012C24.226,10.126,24.223,10.13,24.22,10.134z"/>
	<path fill="#85A414" d="M24.205,10.164c0.003-0.004,0.005-0.008,0.008-0.012C24.211,10.156,24.208,10.16,24.205,10.164z"/>
	<path fill="#85A414" d="M24.19,10.195c0.003-0.004,0.005-0.009,0.008-0.013C24.196,10.186,24.193,10.19,24.19,10.195z"/>
	<path fill="#4DCA0B" d="M27.553,6.878c0.002-0.006,0.004-0.012,0.006-0.018c0.002-0.005,0.004-0.01,0.008-0.014
		c0.002-0.005,0.004-0.011,0.005-0.016c0.002-0.005,0.006-0.01,0.009-0.015c0.013-0.049,0.04-0.092,0.062-0.137
		c0.034-0.07,0.066-0.141,0.101-0.21c0.012-0.025,0.012-0.046,0-0.07c-0.053-0.103-0.105-0.206-0.157-0.309
		c-0.099-0.198-0.196-0.396-0.295-0.594c-0.031-0.063-0.064-0.125-0.096-0.188c-0.004-0.009-0.006-0.019-0.009-0.028
		c0.073-0.026,0.148-0.012,0.22-0.006c0.134,0.011,0.268,0.012,0.402,0.012c0.02,0,0.04,0.003,0.059,0.008
		c0.029,0.038,0.046,0.083,0.067,0.126c0.129,0.258,0.258,0.517,0.387,0.775c0.04,0.081,0.08,0.162,0.123,0.241
		c0.018,0.033,0.016,0.059,0,0.091c-0.08,0.156-0.158,0.314-0.237,0.471c-0.008,0.016-0.018,0.03-0.026,0.045
		c-0.062,0.04-0.132,0.028-0.196,0.021c-0.119-0.013-0.238-0.01-0.358-0.013c-0.049-0.001-0.1,0-0.14-0.038
		c0.002-0.005,0.004-0.01,0.006-0.016c0.004-0.006,0.007-0.012,0.01-0.018c0.007-0.032,0.024-0.06,0.039-0.089
		C27.545,6.884,27.548,6.88,27.553,6.878z"/>
	<path fill="#2FDE07" d="M27.87,5.293c-0.01,0.013-0.025,0.016-0.04,0.016c-0.103,0-0.206,0.008-0.308-0.003
		c-0.087-0.009-0.174-0.01-0.261-0.013c-0.024-0.001-0.049-0.009-0.073-0.014c-0.013-0.024-0.028-0.047-0.04-0.072
		c-0.079-0.159-0.158-0.319-0.237-0.478c-0.135-0.272-0.271-0.543-0.407-0.814c-0.039-0.078-0.079-0.157-0.119-0.235
		c-0.007-0.013-0.015-0.026-0.012-0.041c0.012-0.009,0.025-0.008,0.037-0.007c0.203,0.006,0.406,0.013,0.609,0.019
		c0.025,0.001,0.043,0.009,0.053,0.033c0.015,0.034,0.033,0.068,0.05,0.101c0.167,0.334,0.333,0.669,0.5,1.003
		c0.036,0.072,0.073,0.143,0.109,0.215c0.008,0.015,0.013,0.032,0.019,0.049c0.004,0.005,0.007,0.01,0.01,0.016
		c0.002,0.005,0.004,0.01,0.005,0.015c0.004,0.005,0.007,0.01,0.01,0.015c0.002,0.005,0.004,0.01,0.005,0.015
		c0.004,0.005,0.007,0.01,0.01,0.016c0.002,0.005,0.003,0.01,0.005,0.015c0.004,0.005,0.007,0.01,0.01,0.015
		c0.002,0.005,0.004,0.01,0.005,0.015c0.004,0.005,0.007,0.01,0.01,0.015c0.002,0.005,0.004,0.01,0.005,0.015
		c0.004,0.005,0.007,0.01,0.01,0.015c0.002,0.005,0.004,0.01,0.005,0.015c0.004,0.004,0.007,0.009,0.009,0.015
		c0.002,0.005,0.004,0.01,0.006,0.015c0.004,0.004,0.007,0.009,0.009,0.015C27.867,5.283,27.869,5.288,27.87,5.293z"/>
	<path fill="#69B710" d="M27.49,7.012c0.005,0,0.01-0.001,0.015,0c0.099,0.023,0.199,0.013,0.298,0.015
		c0.05,0.001,0.099,0.001,0.149,0.012c0.046,0.01,0.095,0.003,0.142,0.003c0.03,0,0.06,0,0.09,0
		c-0.048,0.099-0.094,0.199-0.143,0.298c-0.026,0.054-0.056,0.106-0.083,0.16c-0.09,0.182-0.179,0.365-0.269,0.547
		c-0.037,0.074-0.078,0.146-0.117,0.218c-0.015,0.009-0.031,0.019-0.049,0.016c-0.135-0.02-0.271,0.005-0.405-0.019
		c-0.072-0.013-0.145,0.013-0.215-0.014c0.036-0.08,0.071-0.16,0.108-0.24c0.072-0.155,0.145-0.309,0.218-0.463
		c0.08-0.168,0.16-0.335,0.241-0.502C27.476,7.033,27.484,7.023,27.49,7.012z"/>
	<path fill="#76AE12" d="M26.903,8.249c0.079-0.02,0.157-0.023,0.237-0.005c0.017,0.004,0.035,0.004,0.052,0.005
		c0.05,0.001,0.1,0,0.15,0c0.06,0.001,0.12-0.006,0.178,0.014c0.016,0.005,0.035,0.002,0.052,0.003
		c-0.03,0.064-0.058,0.128-0.089,0.191c-0.064,0.131-0.128,0.261-0.193,0.391c-0.069,0.139-0.139,0.278-0.209,0.417
		c-0.006,0.011-0.011,0.022-0.017,0.033c-0.008,0.014-0.019,0.022-0.036,0.023c-0.055,0.004-0.11,0.009-0.165,0.014
		c-0.097,0.008-0.195,0.017-0.292,0.025c-0.067,0.005-0.134,0.008-0.201,0.012c-0.001-0.031,0.015-0.052,0.026-0.074
		c0.075-0.159,0.152-0.316,0.228-0.475c0.073-0.154,0.145-0.309,0.218-0.463C26.861,8.323,26.877,8.283,26.903,8.249z"/>
	<path fill="#4DCA0B" d="M27.76,5.066c-0.003-0.005-0.006-0.01-0.01-0.016C27.757,5.054,27.76,5.059,27.76,5.066z"/>
	<path fill="#4DCA0B" d="M27.775,5.096c-0.003-0.005-0.007-0.01-0.01-0.015C27.772,5.084,27.776,5.089,27.775,5.096z"/>
	<path fill="#4DCA0B" d="M27.79,5.127c-0.003-0.005-0.007-0.01-0.01-0.016C27.787,5.114,27.791,5.119,27.79,5.127z"/>
	<path fill="#4DCA0B" d="M27.805,5.157c-0.003-0.005-0.006-0.01-0.01-0.015C27.798,5.147,27.802,5.152,27.805,5.157z"/>
	<path fill="#4DCA0B" d="M27.82,5.187c-0.003-0.005-0.006-0.01-0.01-0.015C27.813,5.177,27.817,5.182,27.82,5.187z"/>
	<path fill="#4DCA0B" d="M27.835,5.217c-0.003-0.005-0.006-0.01-0.01-0.015C27.829,5.207,27.832,5.212,27.835,5.217z"/>
	<path fill="#4DCA0B" d="M27.85,5.247c-0.003-0.005-0.006-0.01-0.009-0.015C27.843,5.237,27.847,5.242,27.85,5.247z"/>
	<path fill="#4DCA0B" d="M27.865,5.277c-0.003-0.005-0.006-0.01-0.01-0.015C27.858,5.268,27.862,5.272,27.865,5.277z"/>
	<path fill="#69B710" d="M27.583,6.816c-0.003,0.005-0.006,0.01-0.009,0.015C27.576,6.825,27.58,6.821,27.583,6.816z"/>
	<path fill="#69B710" d="M27.568,6.847c-0.003,0.005-0.006,0.009-0.008,0.014C27.562,6.856,27.565,6.851,27.568,6.847z"/>
	<path fill="#69B710" d="M27.553,6.878c-0.001,0.005-0.004,0.009-0.007,0.012C27.548,6.886,27.551,6.882,27.553,6.878z"/>
	<path fill="#69B710" d="M27.506,6.979c-0.003,0.006-0.007,0.012-0.01,0.018C27.496,6.989,27.499,6.983,27.506,6.979z"/>
</g>
</svg>
