<?xml version="1.0" encoding="utf-8"?>
<!-- Generator: Adobe Illustrator 24.3.0, SVG Export Plug-In . SVG Version: 6.00 Build 0)  -->
<svg version="1.1" id="Слой_1" xmlns="http://www.w3.org/2000/svg" xmlns:xlink="http://www.w3.org/1999/xlink" x="0px" y="0px"
	 width="32px" height="13px" viewBox="0 0 32 13" enable-background="new 0 0 32 13" xml:space="preserve">
<g>
	<path d="M22.785,6.396c-0.028,0.046-0.054,0.091-0.081,0.136c-0.096,0.158-0.193,0.316-0.29,0.474
		c-0.076,0.125-0.151,0.25-0.227,0.375c-0.075,0.123-0.15,0.245-0.225,0.368C21.891,7.866,21.82,7.983,21.749,8.1
		c-0.08,0.132-0.161,0.264-0.242,0.396c-0.074,0.121-0.146,0.242-0.22,0.363c-0.078,0.128-0.157,0.257-0.235,0.385
		c-0.074,0.121-0.146,0.242-0.22,0.363c-0.076,0.125-0.152,0.249-0.228,0.374c-0.051,0.084-0.101,0.168-0.152,0.252
		c-0.08,0.132-0.161,0.264-0.242,0.396c-0.076,0.125-0.15,0.25-0.226,0.375c-0.076,0.125-0.153,0.249-0.228,0.374
		c-0.074,0.121-0.146,0.242-0.22,0.364c-0.05,0.082-0.099,0.164-0.149,0.246c-0.006,0.009-0.012,0.018-0.018,0.027
		c-0.008,0.012-0.018,0.018-0.032,0.018c-0.015-0.001-0.031,0-0.046,0c-2.24,0-4.48,0-6.721,0c-0.078,0-0.061,0.01-0.101-0.057
		c-0.078-0.129-0.157-0.257-0.235-0.385c-0.071-0.117-0.142-0.235-0.214-0.352c-0.08-0.132-0.161-0.264-0.241-0.396
		c-0.072-0.119-0.144-0.239-0.217-0.358c-0.079-0.13-0.159-0.26-0.238-0.39c-0.075-0.123-0.149-0.246-0.223-0.369
		c-0.077-0.127-0.155-0.253-0.232-0.379c-0.072-0.119-0.144-0.239-0.217-0.358c-0.077-0.127-0.155-0.253-0.232-0.379
		c-0.072-0.119-0.144-0.239-0.217-0.358c-0.08-0.132-0.161-0.264-0.242-0.396C9.887,7.73,9.812,7.605,9.736,7.48
		C9.661,7.355,9.584,7.231,9.508,7.106C9.433,6.983,9.359,6.86,9.285,6.737C9.227,6.642,9.168,6.548,9.111,6.453
		C9.07,6.383,9.07,6.408,9.112,6.337c0.129-0.215,0.26-0.428,0.39-0.643c0.108-0.177,0.215-0.354,0.323-0.53
		c0.139-0.229,0.28-0.457,0.419-0.686c0.097-0.16,0.194-0.321,0.291-0.481c0.118-0.194,0.236-0.387,0.354-0.58
		c0.076-0.125,0.15-0.25,0.226-0.375c0.075-0.123,0.15-0.245,0.225-0.368c0.071-0.117,0.142-0.235,0.214-0.352
		c0.103-0.169,0.206-0.339,0.309-0.508c0.073-0.121,0.146-0.243,0.22-0.364c0.097-0.16,0.195-0.32,0.293-0.48
		c0.037-0.061,0.074-0.123,0.11-0.185c0.011-0.019,0.024-0.03,0.047-0.028c0.015,0.001,0.031,0,0.046,0c2.234,0,4.467,0,6.701,0
		c0.083,0,0.082,0.001,0.126,0.074c0.077,0.129,0.156,0.257,0.235,0.385c0.05,0.082,0.099,0.164,0.149,0.246
		c0.082,0.134,0.163,0.268,0.245,0.402c0.076,0.125,0.151,0.25,0.226,0.375c0.075,0.123,0.15,0.245,0.225,0.368
		c0.051,0.084,0.102,0.168,0.153,0.251c0.079,0.13,0.159,0.26,0.238,0.391c0.075,0.123,0.149,0.246,0.223,0.369
		c0.077,0.127,0.155,0.253,0.232,0.379c0.071,0.117,0.142,0.235,0.213,0.352c0.08,0.132,0.161,0.264,0.242,0.396
		c0.071,0.117,0.142,0.235,0.214,0.352c0.079,0.13,0.159,0.26,0.238,0.391c0.049,0.08,0.097,0.16,0.146,0.24
		c0.082,0.134,0.164,0.268,0.245,0.402C22.68,6.219,22.732,6.307,22.785,6.396z"/>
	<path d="M11.051,10.47c-0.02,0-0.041,0-0.062,0c-0.574-0.005-1.147-0.01-1.721-0.015c-0.517-0.004-1.034-0.009-1.551-0.013
		c-0.517-0.004-1.034-0.009-1.551-0.013c-0.515-0.004-1.029-0.009-1.544-0.013c-0.519-0.004-1.038-0.009-1.557-0.013
		c-0.177-0.002-0.353-0.004-0.53-0.005c-0.029,0-0.047-0.007-0.061-0.036C2.385,10.18,2.293,10,2.201,9.82
		C2.094,9.61,1.987,9.4,1.88,9.191c-0.109-0.213-0.217-0.427-0.326-0.64C1.446,8.339,1.338,8.128,1.23,7.917
		C1.143,7.746,1.056,7.575,0.969,7.404C0.86,7.191,0.752,6.977,0.643,6.764c-0.073-0.143-0.148-0.287-0.221-0.43
		c-0.01-0.019-0.018-0.04-0.029-0.059c-0.009-0.017-0.01-0.031,0-0.049c0.036-0.065,0.069-0.131,0.104-0.196
		c0.055-0.102,0.11-0.203,0.164-0.305C0.74,5.578,0.82,5.431,0.899,5.283c0.055-0.104,0.109-0.208,0.165-0.312
		c0.075-0.14,0.152-0.279,0.227-0.419c0.051-0.094,0.1-0.189,0.15-0.283c0.077-0.144,0.155-0.287,0.232-0.431
		C1.726,3.74,1.778,3.641,1.831,3.544C1.908,3.4,1.986,3.256,2.063,3.112C2.114,3.016,2.165,2.92,2.216,2.824
		C2.306,2.657,2.395,2.49,2.484,2.322c0.01-0.018,0.022-0.025,0.041-0.025c0.052,0.001,0.105,0,0.157,0
		C3.04,2.299,3.398,2.3,3.756,2.301c1.075,0.002,2.151,0.003,3.226,0.004c0.635,0.001,1.269,0.002,1.904,0.003
		c0.316,0,0.632,0.001,0.949,0.002c0.353,0.001,0.707,0.003,1.06,0.004c0.015,0,0.031,0,0.046,0c0.013,0,0.02,0.011,0.014,0.021
		c-0.045,0.077-0.091,0.154-0.136,0.231c-0.054,0.092-0.109,0.183-0.164,0.275c-0.078,0.131-0.156,0.262-0.234,0.393
		c-0.053,0.09-0.106,0.18-0.159,0.27c-0.077,0.129-0.154,0.258-0.23,0.388c-0.05,0.084-0.099,0.169-0.149,0.253
		c-0.08,0.135-0.16,0.27-0.24,0.405C9.59,4.637,9.54,4.723,9.489,4.809C9.41,4.943,9.331,5.075,9.252,5.208
		C9.2,5.296,9.148,5.385,9.096,5.473C9.018,5.604,8.94,5.735,8.863,5.866c-0.07,0.118-0.139,0.237-0.21,0.354
		C8.639,6.244,8.637,6.262,8.651,6.286c0.072,0.122,0.142,0.245,0.212,0.368c0.054,0.094,0.11,0.188,0.164,0.282
		c0.079,0.136,0.157,0.272,0.235,0.407c0.049,0.085,0.098,0.17,0.147,0.255C9.492,7.74,9.574,7.881,9.656,8.023
		c0.05,0.087,0.099,0.174,0.149,0.261c0.079,0.138,0.159,0.275,0.239,0.413c0.049,0.085,0.098,0.17,0.147,0.255
		c0.082,0.142,0.163,0.283,0.245,0.425c0.074,0.128,0.147,0.257,0.221,0.385c0.075,0.13,0.151,0.26,0.226,0.39
		c0.052,0.091,0.104,0.181,0.156,0.272C11.045,10.437,11.057,10.448,11.051,10.47z"/>
	<path d="M25.161,10.409c-0.709,0.006-1.418,0.011-2.127,0.017c-0.508,0.004-1.016,0.009-1.525,0.013
		c-0.183,0.002-0.366,0.004-0.55,0.006c-0.02,0-0.039,0-0.059,0c-0.013,0-0.018-0.011-0.012-0.023
		c0.011-0.021,0.023-0.042,0.035-0.063c0.08-0.14,0.161-0.279,0.242-0.419c0.076-0.132,0.153-0.264,0.23-0.396
		c0.051-0.089,0.101-0.178,0.152-0.267c0.078-0.136,0.157-0.271,0.236-0.407c0.05-0.087,0.1-0.174,0.15-0.261
		c0.078-0.136,0.157-0.271,0.235-0.407c0.05-0.087,0.099-0.174,0.149-0.261c0.081-0.14,0.162-0.279,0.243-0.418
		c0.076-0.132,0.151-0.265,0.227-0.397c0.075-0.13,0.151-0.26,0.226-0.39c0.049-0.085,0.098-0.17,0.147-0.255
		c0.038-0.066,0.076-0.132,0.114-0.198c0.003-0.006,0.006-0.012,0.009-0.017c0.017-0.024,0.018-0.046,0.001-0.072
		c-0.027-0.042-0.051-0.086-0.077-0.129c-0.053-0.09-0.107-0.18-0.161-0.269c-0.081-0.137-0.163-0.273-0.243-0.41
		c-0.075-0.128-0.15-0.255-0.226-0.383c-0.075-0.127-0.152-0.254-0.227-0.382c-0.051-0.086-0.102-0.173-0.153-0.259
		c-0.079-0.133-0.158-0.266-0.237-0.399c-0.071-0.12-0.142-0.24-0.213-0.36c-0.081-0.137-0.162-0.273-0.243-0.41
		c-0.071-0.12-0.142-0.24-0.213-0.36c-0.081-0.137-0.162-0.274-0.243-0.41c-0.021-0.036-0.042-0.071-0.063-0.107
		c-0.012-0.02-0.008-0.026,0.017-0.026c0.052-0.001,0.105-0.001,0.157-0.001c0.441-0.001,0.881-0.001,1.322-0.002
		c0.964-0.002,1.928-0.004,2.892-0.006c0.674-0.001,1.348-0.002,2.022-0.003c0.657-0.001,1.313-0.002,1.97-0.003
		c0.089,0,0.066-0.012,0.107,0.065c0.11,0.206,0.22,0.411,0.33,0.616c0.084,0.157,0.169,0.315,0.254,0.472
		c0.096,0.178,0.193,0.356,0.288,0.535c0.075,0.14,0.149,0.281,0.224,0.421c0.097,0.18,0.194,0.36,0.291,0.541
		c0.052,0.096,0.102,0.192,0.154,0.288c0.078,0.146,0.157,0.291,0.235,0.437c0.042,0.079,0.084,0.157,0.126,0.236
		c0.053,0.1,0.106,0.2,0.16,0.3c0.015,0.027,0.017,0.05,0.002,0.079c-0.056,0.106-0.109,0.213-0.163,0.32
		c-0.053,0.103-0.106,0.205-0.158,0.308c-0.081,0.159-0.163,0.318-0.244,0.477c-0.049,0.097-0.099,0.194-0.148,0.291
		c-0.081,0.159-0.163,0.318-0.244,0.477c-0.049,0.097-0.099,0.194-0.148,0.291c-0.078,0.153-0.157,0.306-0.235,0.459
		c-0.051,0.101-0.102,0.202-0.153,0.303c-0.078,0.153-0.157,0.306-0.235,0.459c-0.051,0.099-0.101,0.198-0.151,0.297
		c-0.067,0.132-0.135,0.264-0.201,0.396c-0.012,0.024-0.03,0.027-0.053,0.027c-0.209,0.002-0.419,0.005-0.628,0.007
		c-0.851,0.007-1.701,0.013-2.552,0.02C25.872,10.402,25.517,10.406,25.161,10.409C25.161,10.41,25.161,10.409,25.161,10.409z"/>
	<path fill="#FCDA1E" d="M10.848,4.853c0.024-0.056,0.061-0.105,0.091-0.158c0.054-0.092,0.111-0.183,0.166-0.274
		c0.078-0.128,0.157-0.257,0.235-0.385c0.071-0.117,0.142-0.235,0.213-0.352c0.08-0.132,0.161-0.264,0.241-0.396
		c0.071-0.117,0.142-0.235,0.214-0.352c0.101-0.166,0.202-0.331,0.303-0.497c0.074-0.121,0.146-0.242,0.22-0.364
		c0.078-0.128,0.157-0.257,0.235-0.385c0.045-0.074,0.092-0.148,0.135-0.224c0.013-0.022,0.029-0.03,0.053-0.028
		c0.015,0.001,0.031,0,0.046,0c1.956,0,3.912,0,5.868,0c0.024,0,0.05-0.003,0.071,0.004C18.962,1.451,18.968,1.48,18.98,1.5
		c0.057,0.093,0.114,0.186,0.17,0.279c0.099,0.162,0.198,0.323,0.296,0.485c0.074,0.121,0.147,0.242,0.22,0.363
		c0.078,0.128,0.157,0.257,0.235,0.385c0.072,0.119,0.144,0.239,0.217,0.358c0.078,0.128,0.157,0.257,0.235,0.385
		c0.074,0.121,0.147,0.242,0.22,0.363c0.078,0.128,0.157,0.257,0.235,0.385c0.074,0.121,0.147,0.242,0.22,0.364
		c0.016,0.026,0.03,0.053,0.045,0.079c0.013,0.052-0.023,0.065-0.061,0.071c-0.047,0.008-0.096,0.007-0.143,0.003
		c-0.252-0.024-0.504-0.005-0.756-0.013c-0.082-0.002-0.166-0.001-0.242-0.039C19.839,4.95,19.821,4.92,19.803,4.89
		c-0.269-0.447-0.541-0.891-0.811-1.336c-0.179-0.295-0.356-0.59-0.538-0.883c-0.036-0.057-0.068-0.117-0.105-0.173
		c-0.02-0.03-0.045-0.046-0.081-0.045c-0.017,0.001-0.035,0-0.052,0c-1.52,0-3.039,0.001-4.559-0.002
		c-0.081,0-0.131,0.023-0.174,0.095c-0.241,0.405-0.487,0.806-0.732,1.208c-0.215,0.352-0.426,0.705-0.643,1.055
		c-0.015,0.024-0.028,0.049-0.052,0.067c-0.041,0.042-0.092,0.052-0.149,0.053c-0.318,0.005-0.636-0.022-0.954-0.015
		C10.909,4.916,10.855,4.92,10.848,4.853z"/>
	<path fill="#FE4209" d="M19.895,9.78c-0.035,0.075-0.083,0.143-0.125,0.214c-0.077,0.129-0.156,0.257-0.234,0.385
		c-0.076,0.125-0.152,0.249-0.228,0.374c-0.051,0.084-0.102,0.168-0.153,0.251c-0.063,0.104-0.128,0.208-0.19,0.313
		c-0.015,0.026-0.034,0.037-0.063,0.034c-0.013-0.001-0.026,0-0.039,0c-1.953,0-3.906,0-5.86,0c-0.026,0-0.055,0.005-0.078-0.004
		c-0.026-0.011-0.035-0.042-0.05-0.066c-0.097-0.16-0.194-0.32-0.291-0.48c-0.117-0.192-0.234-0.383-0.351-0.574
		c-0.074-0.121-0.147-0.242-0.22-0.363c-0.056-0.093-0.112-0.187-0.167-0.28c0.021-0.038,0.059-0.032,0.093-0.033
		c0.126-0.002,0.251,0.015,0.378,0.014c0.195-0.001,0.391-0.011,0.587,0.011c0.047,0.005,0.096,0.002,0.143-0.008
		c0.039,0.004,0.05,0.039,0.067,0.065c0.131,0.206,0.255,0.417,0.381,0.626c0.035,0.058,0.076,0.079,0.143,0.079
		c1.53-0.001,3.06-0.001,4.591,0c0.066,0,0.108-0.02,0.143-0.078c0.096-0.161,0.193-0.321,0.292-0.481
		c0.017-0.027,0.028-0.061,0.067-0.065c0.068,0.026,0.138,0.035,0.211,0.034c0.117-0.002,0.235,0.003,0.352-0.001
		c0.183-0.007,0.364,0.025,0.547,0.011C19.861,9.754,19.882,9.759,19.895,9.78z"/>
	<path fill="#FE6A0F" d="M19.895,9.78c-0.023-0.004-0.045-0.017-0.069-0.002c-0.086-0.002-0.173,0.012-0.259-0.009
		c-0.019-0.004-0.039-0.003-0.058-0.003c-0.204,0-0.408-0.001-0.613,0.001c-0.044,0-0.086-0.012-0.128-0.017
		c-0.019-0.002-0.037-0.013-0.039-0.037c0,0,0.001-0.006,0.001-0.006c0.001-0.004,0.002-0.008,0.004-0.012
		c0.001-0.004,0.003-0.008,0.005-0.011c0.003-0.005,0.006-0.011,0.008-0.017c0.002-0.004,0.004-0.008,0.006-0.011
		c0.002-0.004,0.005-0.007,0.008-0.01c0,0,0.004-0.005,0.004-0.005c0.003-0.005,0.006-0.011,0.009-0.016
		c0.002-0.004,0.004-0.008,0.006-0.011c0.002-0.004,0.004-0.008,0.006-0.011c0.002-0.004,0.004-0.008,0.006-0.011
		c0.002-0.004,0.005-0.007,0.008-0.01c0,0,0.004-0.005,0.004-0.005c0.002-0.004,0.004-0.007,0.007-0.011
		c0.002-0.004,0.004-0.007,0.006-0.011c0.003-0.005,0.006-0.011,0.009-0.016c0.001-0.004,0.003-0.008,0.005-0.011
		c0.003-0.006,0.006-0.011,0.009-0.017c0.002-0.004,0.004-0.008,0.006-0.011c0.002-0.004,0.005-0.007,0.008-0.01
		c0,0,0.004-0.005,0.004-0.005c0.002-0.004,0.004-0.007,0.007-0.011c0.002-0.004,0.004-0.008,0.007-0.011
		c0.002-0.004,0.005-0.007,0.008-0.01c0,0,0.004-0.005,0.004-0.005c0.002-0.004,0.005-0.007,0.007-0.011
		c0.002-0.004,0.004-0.008,0.006-0.011c0.003-0.006,0.006-0.011,0.009-0.017c0.002-0.004,0.004-0.008,0.006-0.011
		c0.002-0.004,0.005-0.007,0.008-0.01c0,0,0.004-0.005,0.004-0.005c0.002-0.004,0.004-0.007,0.007-0.011
		c0.002-0.004,0.004-0.008,0.006-0.011c0.003-0.006,0.006-0.012,0.009-0.018c0.002-0.004,0.004-0.008,0.007-0.012
		c0.003-0.004,0.005-0.008,0.008-0.012c0.001-0.002,0.002-0.004,0.004-0.007c0.003-0.008,0.006-0.015,0.009-0.023
		c0.187-0.325,0.389-0.641,0.581-0.963c0.072-0.122,0.147-0.242,0.221-0.363c0.014-0.023,0.025-0.056,0.064-0.035
		c0.024,0.012,0.05,0.013,0.077,0.015c0.285,0.012,0.571,0.015,0.856,0.014c0.075,0,0.152-0.008,0.225,0.019
		c-0.033,0.074-0.081,0.139-0.121,0.209c-0.053,0.09-0.109,0.179-0.163,0.268c-0.078,0.128-0.157,0.256-0.235,0.385
		c-0.052,0.086-0.104,0.171-0.156,0.257c-0.079,0.13-0.159,0.26-0.238,0.39c-0.024,0.039-0.042,0.081-0.073,0.116
		c-0.002,0.005-0.005,0.009-0.009,0.012l0,0c-0.005,0.005-0.01,0.01-0.011,0.018c0.001,0.004-0.001,0.007-0.004,0.008
		c-0.004,0.005-0.008,0.01-0.01,0.016c0.001,0.004-0.001,0.008-0.005,0.01c-0.002,0.005-0.006,0.009-0.01,0.012l0,0
		c-0.005,0.005-0.01,0.01-0.012,0.017c0.001,0.004-0.001,0.008-0.005,0.01c-0.003,0.005-0.006,0.009-0.009,0.014l0-0.001
		C19.925,9.72,19.928,9.733,19.92,9.74l0,0c-0.005,0.005-0.01,0.011-0.011,0.018c0.001,0.004-0.001,0.007-0.004,0.008
		C19.901,9.771,19.898,9.776,19.895,9.78L19.895,9.78z"/>
	<path fill="#FE6D0F" d="M13.049,9.57c-0.008,0.017-0.022,0.027-0.041,0.026c-0.06-0.003-0.121,0.008-0.181-0.01
		c-0.018-0.005-0.039-0.003-0.058-0.003c-0.204,0-0.409,0-0.613,0c-0.028,0-0.056,0.002-0.084-0.009
		C12.06,9.57,12.046,9.57,12.033,9.57c-0.043,0-0.087,0-0.13,0c-0.02,0-0.039,0.002-0.056,0.013
		c-0.003-0.001-0.004-0.004-0.003-0.007c0-0.008-0.006-0.014-0.011-0.019l0,0c-0.004-0.003-0.007-0.007-0.009-0.012
		c-0.004-0.003-0.006-0.007-0.005-0.011c-0.003-0.005-0.006-0.01-0.009-0.015c-0.004-0.002-0.005-0.005-0.004-0.009
		c-0.002-0.007-0.006-0.012-0.011-0.017l0,0c-0.004-0.003-0.007-0.007-0.01-0.012c-0.004-0.002-0.005-0.005-0.005-0.01
		c-0.001-0.007-0.006-0.011-0.01-0.017c-0.003-0.001-0.005-0.004-0.004-0.008c0-0.008-0.005-0.014-0.011-0.019l0,0
		c-0.004-0.004-0.007-0.008-0.009-0.013c-0.004-0.003-0.006-0.007-0.005-0.011c-0.002-0.006-0.007-0.01-0.01-0.016
		c-0.039-0.047-0.066-0.102-0.098-0.154c-0.081-0.129-0.159-0.26-0.238-0.39c-0.053-0.087-0.106-0.175-0.159-0.263
		c-0.1-0.164-0.2-0.327-0.299-0.491c-0.042-0.069-0.081-0.139-0.122-0.208c0.049-0.035,0.106-0.023,0.158-0.018
		c0.217,0.021,0.435,0.007,0.652,0.011c0.067,0.001,0.135,0.002,0.202,0.01c0.056,0.007,0.113,0.011,0.167-0.014
		c0.039-0.017,0.056,0.012,0.071,0.038c0.135,0.227,0.275,0.45,0.41,0.676c0.112,0.187,0.229,0.37,0.336,0.56
		c0.003,0.008,0.006,0.016,0.008,0.024c0.002,0.005,0.004,0.009,0.006,0.014c0.002,0.004,0.005,0.008,0.007,0.013
		c0.001,0.002,0.003,0.004,0.004,0.006c0.003,0.004,0.006,0.007,0.008,0.011c0.002,0.004,0.005,0.008,0.006,0.012
		c0.003,0.006,0.006,0.012,0.009,0.018c0.002,0.004,0.004,0.008,0.006,0.012c0.002,0.004,0.005,0.007,0.007,0.011
		c0,0,0.004,0.005,0.004,0.005c0.003,0.003,0.006,0.007,0.008,0.01c0.002,0.004,0.005,0.007,0.006,0.011
		c0.002,0.004,0.004,0.007,0.007,0.011c0,0,0.004,0.005,0.004,0.005c0.003,0.003,0.005,0.007,0.008,0.01
		c0.002,0.004,0.004,0.007,0.006,0.011c0.003,0.006,0.006,0.011,0.008,0.017c0.002,0.004,0.004,0.008,0.006,0.012
		c0.002,0.004,0.004,0.008,0.006,0.011c0.002,0.004,0.004,0.008,0.006,0.011c0.002,0.004,0.004,0.007,0.007,0.011
		c0.003,0.003,0.005,0.007,0.008,0.01c0.003,0.003,0.005,0.007,0.008,0.011c0.002,0.004,0.004,0.007,0.006,0.011
		c0.002,0.004,0.005,0.007,0.007,0.011c0,0,0.004,0.005,0.004,0.005c0.003,0.003,0.005,0.007,0.008,0.01
		c0.002,0.004,0.004,0.007,0.006,0.011c0.003,0.006,0.006,0.011,0.009,0.017c0.002,0.004,0.004,0.007,0.006,0.011
		c0.002,0.004,0.004,0.007,0.007,0.011c0,0,0.004,0.005,0.004,0.005c0.003,0.003,0.005,0.007,0.008,0.01
		c0.002,0.004,0.004,0.008,0.006,0.012c0.002,0.004,0.004,0.008,0.006,0.012c0.002,0.004,0.004,0.008,0.006,0.012
		c0.002,0.004,0.003,0.009,0.004,0.013C13.049,9.565,13.049,9.567,13.049,9.57z"/>
	<path fill="#FD9A15" d="M20.993,7.973c-0.029-0.006-0.056,0.018-0.083,0.009c-0.028-0.009-0.056-0.009-0.084-0.009
		c-0.196,0-0.392,0-0.589,0c-0.037,0-0.074,0.002-0.11-0.01C20.11,7.957,20.089,7.96,20.069,7.96c-0.07,0-0.14,0-0.209,0
		c-0.025,0-0.042-0.011-0.044-0.037c-0.014-0.024,0.004-0.042,0.014-0.059c0.166-0.271,0.329-0.543,0.494-0.814
		c0.122-0.201,0.243-0.402,0.366-0.602c0.017-0.027,0.026-0.054,0.013-0.086c-0.01-0.023-0.003-0.043,0.023-0.052
		c0.193-0.012,0.387-0.013,0.579-0.001c0.167,0.011,0.334,0.004,0.501,0.007c0.03,0.001,0.053-0.016,0.077-0.032
		c0.006,0.007,0.012,0.013,0.016,0.02c0.069,0.11,0.065,0.077,0.002,0.182c-0.05,0.084-0.102,0.168-0.153,0.251
		C21.668,6.868,21.588,7,21.507,7.132c-0.071,0.117-0.142,0.235-0.213,0.352c-0.096,0.158-0.192,0.317-0.288,0.475
		C21.003,7.964,20.997,7.968,20.993,7.973z"/>
	<path fill="#FD9314" d="M12.015,7.868C11.999,7.9,11.973,7.91,11.939,7.908c-0.056-0.003-0.113,0.006-0.168-0.012
		c-0.016-0.005-0.035-0.002-0.052-0.002c-0.2,0-0.401,0-0.601,0c-0.032,0-0.065,0.003-0.097-0.01
		c-0.013-0.005-0.03-0.003-0.045-0.003c-0.054,0-0.109,0-0.163,0c-0.026-0.04-0.053-0.08-0.078-0.12
		C10.638,7.6,10.542,7.44,10.444,7.28c-0.139-0.229-0.28-0.457-0.419-0.686c-0.04-0.065-0.078-0.131-0.117-0.196
		c0.02-0.036,0.034-0.073,0.062-0.102c0.092,0.029,0.187,0.037,0.283,0.034c0.282-0.008,0.564,0.009,0.846,0.01
		c0.009,0,0.017,0.002,0.025,0.006c0.091,0.187,0.208,0.36,0.315,0.537c0.183,0.301,0.365,0.602,0.548,0.903
		C12.003,7.811,12.027,7.834,12.015,7.868z"/>
	<path fill="#FDB719" d="M11.139,6.364c-0.012-0.005-0.022-0.012-0.037-0.009c-0.081,0.013-0.192,0.011-0.264-0.002
		c-0.019-0.003-0.039-0.003-0.058-0.003c-0.2,0-0.4-0.002-0.599,0.001c-0.055,0.001-0.107-0.016-0.161-0.016
		c-0.024,0-0.036-0.021-0.049-0.039c0,0,0,0,0,0c0.012-0.004,0.008-0.018,0.016-0.024l0-0.001c0.005-0.005,0.01-0.01,0.011-0.018
		c-0.001-0.004,0.001-0.007,0.004-0.009c0.003-0.005,0.007-0.01,0.009-0.015c-0.001-0.005,0.001-0.008,0.005-0.011
		c0.002-0.005,0.005-0.009,0.009-0.013l0,0c0.008-0.006,0.005-0.018,0.015-0.023l0.001-0.002c0.003-0.005,0.006-0.01,0.01-0.014l0,0
		c0.009-0.006,0.006-0.019,0.014-0.025l0-0.001c0.004-0.005,0.009-0.01,0.01-0.018c-0.001-0.004,0.001-0.007,0.005-0.009
		c0.003-0.005,0.006-0.01,0.009-0.015c0.002-0.004,0.004-0.007,0.006-0.011c0.002-0.005,0.005-0.008,0.009-0.011l0.001-0.001
		c0.003-0.005,0.008-0.01,0.01-0.016c-0.001-0.005,0.001-0.008,0.005-0.011c0.002-0.005,0.005-0.009,0.009-0.013l0,0
		c0.008-0.006,0.005-0.019,0.014-0.025l0.001-0.001c0.004-0.005,0.009-0.01,0.01-0.017c-0.001-0.004,0.001-0.008,0.005-0.01
		c0.003-0.005,0.006-0.009,0.01-0.013l0,0c0.005-0.005,0.01-0.01,0.011-0.017c-0.001-0.004,0.001-0.007,0.005-0.01
		c0.003-0.005,0.006-0.01,0.009-0.015c0.002-0.004,0.003-0.008,0.005-0.012c0.002-0.005,0.005-0.009,0.009-0.012l0,0
		c0.008-0.006,0.005-0.018,0.014-0.024l0.001-0.001c0.004-0.005,0.007-0.01,0.011-0.015l0,0.001c0.01-0.005,0.007-0.018,0.015-0.024
		l0.001-0.001c0.004-0.005,0.009-0.01,0.01-0.017c-0.001-0.004,0.001-0.008,0.005-0.01c0.003-0.005,0.006-0.009,0.009-0.014
		c0.004-0.022,0.02-0.038,0.031-0.056c0.074-0.123,0.148-0.245,0.222-0.368c0.077-0.126,0.154-0.252,0.231-0.378
		c0.029-0.048,0.054-0.099,0.09-0.142c0.015,0.031,0.043,0.041,0.075,0.043c0.03,0.001,0.061,0,0.091,0c0.131,0,0.261,0,0.392,0
		c0.026,0,0.052-0.002,0.077,0.008c0.021,0.008,0.043,0.005,0.065,0.005c0.124,0,0.248-0.001,0.372,0.001
		c0.046,0.001,0.086-0.008,0.118-0.043c0.004-0.005,0.011-0.006,0.017-0.009c0.014,0.021,0,0.038-0.01,0.054
		c-0.229,0.373-0.454,0.748-0.682,1.122c-0.006,0.009-0.012,0.018-0.02,0.026c-0.007,0.008-0.015,0.015-0.022,0.023
		c-0.003,0.004-0.006,0.008-0.008,0.012c-0.002,0.004-0.005,0.008-0.007,0.012C11.305,6.11,11.302,6.114,11.3,6.117
		c-0.002,0.004-0.005,0.007-0.008,0.01c-0.001,0.002-0.003,0.003-0.004,0.005c-0.004,0.005-0.007,0.011-0.01,0.017
		c-0.002,0.004-0.004,0.008-0.006,0.011c-0.002,0.004-0.004,0.008-0.006,0.012c-0.002,0.004-0.004,0.008-0.006,0.011
		c-0.002,0.004-0.005,0.007-0.008,0.01c0,0-0.004,0.005-0.004,0.005c-0.002,0.004-0.005,0.007-0.007,0.011
		c-0.002,0.004-0.004,0.008-0.006,0.011c-0.003,0.006-0.006,0.011-0.009,0.017c-0.002,0.004-0.004,0.008-0.006,0.011
		c-0.002,0.004-0.005,0.007-0.008,0.01c0,0-0.004,0.005-0.004,0.005c-0.002,0.004-0.004,0.007-0.007,0.011
		c-0.002,0.004-0.004,0.008-0.007,0.011c-0.002,0.004-0.005,0.007-0.008,0.01c0,0-0.004,0.005-0.004,0.005
		c-0.004,0.005-0.007,0.01-0.01,0.016c-0.002,0.004-0.004,0.008-0.006,0.011c-0.002,0.004-0.004,0.008-0.006,0.011
		c-0.002,0.004-0.004,0.008-0.007,0.011c-0.003,0.004-0.006,0.006-0.01,0.009C11.143,6.362,11.141,6.363,11.139,6.364z"/>
	<path fill="#FDBA1A" d="M21.883,6.284c0,0.009-0.001,0.017-0.001,0.026c-0.001,0.015-0.009,0.025-0.024,0.026
		c-0.017,0.001-0.035,0.001-0.052,0.001c-0.129,0-0.257,0-0.386,0c-0.039,0-0.078,0.004-0.116-0.011
		c-0.01-0.004-0.022-0.002-0.032-0.002c-0.181,0-0.362,0-0.543,0c-0.009,0-0.017,0.002-0.026,0.002c0,0-0.005-0.003-0.005-0.003
		c-0.003-0.002-0.006-0.005-0.008-0.008c-0.003-0.003-0.005-0.006-0.006-0.01c-0.002-0.003-0.004-0.007-0.006-0.01
		c-0.002-0.003-0.005-0.007-0.007-0.01c-0.003-0.003-0.005-0.006-0.008-0.01c-0.003-0.003-0.005-0.007-0.007-0.01
		c-0.002-0.003-0.004-0.007-0.007-0.011c-0.003-0.003-0.005-0.007-0.008-0.01c-0.003-0.003-0.005-0.007-0.007-0.01
		c-0.002-0.004-0.004-0.007-0.006-0.011c-0.003-0.006-0.006-0.011-0.009-0.016c-0.002-0.004-0.004-0.007-0.006-0.011
		c-0.002-0.003-0.004-0.007-0.007-0.01c0,0-0.004-0.005-0.004-0.005c-0.003-0.003-0.005-0.006-0.008-0.01
		c-0.002-0.004-0.004-0.007-0.006-0.011c-0.002-0.004-0.004-0.008-0.006-0.012c-0.002-0.004-0.004-0.008-0.006-0.012
		c-0.002-0.004-0.004-0.008-0.007-0.012c-0.003-0.003-0.005-0.007-0.008-0.01c-0.003-0.003-0.005-0.007-0.008-0.011
		c-0.002-0.004-0.004-0.007-0.006-0.011c-0.002-0.004-0.004-0.007-0.007-0.011c0,0-0.004-0.005-0.004-0.005
		c-0.003-0.003-0.005-0.006-0.008-0.01c-0.002-0.003-0.004-0.007-0.006-0.011c-0.003-0.006-0.005-0.011-0.008-0.017
		c-0.002-0.004-0.004-0.008-0.006-0.011c-0.002-0.004-0.004-0.008-0.006-0.011c-0.002-0.004-0.004-0.008-0.006-0.012
		c-0.002-0.004-0.005-0.008-0.007-0.011c-0.003-0.004-0.006-0.007-0.009-0.011c-0.003-0.004-0.006-0.008-0.008-0.012
		c-0.003-0.004-0.005-0.008-0.008-0.013c-0.003-0.004-0.007-0.008-0.01-0.012c-0.002-0.002-0.004-0.004-0.006-0.006
		c-0.004-0.004-0.008-0.009-0.011-0.013c-0.141-0.217-0.269-0.442-0.405-0.661c-0.049-0.079-0.097-0.159-0.147-0.239
		c-0.014-0.023-0.038-0.044-0.021-0.076c0.035,0.018,0.072,0.031,0.112,0.026c0.009-0.001,0.018-0.002,0.026,0.001
		c0.049,0.018,0.099,0.011,0.148,0.012c0.191,0.001,0.382,0,0.574,0c0.026,0,0.052-0.002,0.077,0.008
		c0.012,0.005,0.026,0.005,0.038,0.005c0.054,0,0.109,0,0.163,0c0.038,0.001,0.062-0.016,0.068-0.055
		c0.022,0.034,0.046,0.068,0.067,0.103c0.098,0.161,0.195,0.323,0.293,0.484c0.03,0.05,0.062,0.099,0.092,0.149
		c0.012,0.02,0.028,0.039,0.033,0.063c0.003,0.005,0.006,0.009,0.009,0.014c0.004,0.002,0.005,0.005,0.005,0.01
		c0.001,0.007,0.006,0.012,0.012,0.016l0,0c0.003,0.004,0.006,0.009,0.009,0.013c0.004,0.002,0.005,0.006,0.005,0.01
		c0.001,0.007,0.006,0.011,0.01,0.016c0.004,0.002,0.005,0.004,0.004,0.008c0,0.008,0.005,0.014,0.011,0.018l0,0
		c0.004,0.003,0.007,0.008,0.009,0.012c0.002,0.004,0.004,0.008,0.005,0.011c0.002,0.006,0.007,0.011,0.011,0.016l0.001,0.001
		c0.004,0.003,0.007,0.007,0.009,0.011c0.002,0.004,0.004,0.008,0.005,0.012c0.003,0.005,0.006,0.01,0.009,0.014
		c0.004,0.002,0.005,0.006,0.005,0.01c0.001,0.007,0.006,0.012,0.01,0.017l0.001,0.001c0.009,0.006,0.006,0.018,0.014,0.024l0,0
		c0.004,0.004,0.007,0.008,0.01,0.013c0.004,0.001,0.006,0.004,0.005,0.008c0,0.008,0.005,0.014,0.011,0.019l0,0
		c0.004,0.003,0.007,0.008,0.009,0.012c0.002,0.004,0.003,0.008,0.005,0.011c0.003,0.005,0.006,0.01,0.009,0.015
		c0.004,0.002,0.005,0.005,0.005,0.009c0.001,0.007,0.006,0.012,0.01,0.017l0.001,0.001c0.004,0.003,0.007,0.006,0.009,0.011
		c0.004,0.002,0.007,0.005,0.006,0.01c0.001,0.007,0.006,0.012,0.01,0.017l0.001,0.001c0.009,0.006,0.006,0.018,0.014,0.025l0,0
		c0.004,0.004,0.007,0.008,0.009,0.013c0.004,0.003,0.006,0.006,0.005,0.011c0.003,0.005,0.006,0.01,0.01,0.015
		c0.008,0.007,0.015,0.013,0.017,0.024c0.003,0.005,0.006,0.01,0.009,0.015c0.004,0.002,0.005,0.005,0.004,0.009
		c0.001,0.007,0.006,0.012,0.01,0.018l0,0.001C21.878,6.265,21.875,6.278,21.883,6.284L21.883,6.284z"/>
	<path fill="#FD9A15" d="M21.7,5.983c-0.011-0.005-0.014-0.014-0.014-0.024C21.695,5.964,21.7,5.972,21.7,5.983z"/>
	<path fill="#FD9314" d="M10.04,6.182c-0.001,0.01-0.004,0.019-0.015,0.023C10.025,6.194,10.03,6.187,10.04,6.182z"/>
	<path fill="#FD9314" d="M10.222,5.88c0,0.011-0.003,0.019-0.014,0.024C10.208,5.893,10.213,5.885,10.222,5.88z"/>
	<path fill="#FD9314" d="M10.065,6.141c0,0.011-0.003,0.02-0.014,0.025C10.051,6.155,10.056,6.147,10.065,6.141z"/>
	<path fill="#FD9A15" d="M21.883,6.284c-0.011-0.005-0.014-0.014-0.014-0.025C21.879,6.265,21.883,6.273,21.883,6.284z"/>
	<path fill="#FD9314" d="M9.987,6.272c0,0.011-0.004,0.021-0.016,0.024C9.971,6.285,9.977,6.277,9.987,6.272z"/>
	<path fill="#FD9A15" d="M21.805,6.153c-0.011-0.005-0.014-0.014-0.014-0.025C21.8,6.134,21.805,6.142,21.805,6.153z"/>
	<path fill="#FD9314" d="M10.144,6.01c0,0.011-0.003,0.02-0.014,0.025C10.13,6.024,10.134,6.016,10.144,6.01z"/>
	<path fill="#FD9314" d="M10.248,5.84c0,0.011-0.004,0.02-0.015,0.024C10.234,5.854,10.239,5.846,10.248,5.84z"/>
	<path fill="#FE4209" d="M19.92,9.74c0-0.011,0.003-0.02,0.015-0.025C19.934,9.725,19.929,9.734,19.92,9.74z"/>
	<path fill="#FD9A15" d="M21.566,5.76c-0.003-0.005-0.006-0.009-0.009-0.014C21.563,5.748,21.567,5.753,21.566,5.76z"/>
	<path fill="#FD9A15" d="M21.583,5.786c-0.007-0.003-0.011-0.008-0.012-0.016C21.578,5.772,21.582,5.778,21.583,5.786z"/>
	<path fill="#FD9A15" d="M21.592,5.799c-0.003-0.004-0.006-0.009-0.009-0.013C21.589,5.788,21.593,5.792,21.592,5.799z"/>
	<path fill="#FD9314" d="M10.273,5.798c0,0.007-0.003,0.011-0.009,0.014C10.263,5.805,10.266,5.8,10.273,5.798z"/>
	<path fill="#FD9A15" d="M21.607,5.825c-0.006-0.003-0.01-0.009-0.01-0.016C21.604,5.812,21.607,5.818,21.607,5.825z"/>
	<path fill="#FD9314" d="M10.259,5.822c0,0.008-0.004,0.013-0.01,0.017C10.249,5.831,10.252,5.825,10.259,5.822z"/>
	<path fill="#FD9A15" d="M21.621,5.852c-0.007-0.004-0.011-0.01-0.011-0.018C21.618,5.837,21.621,5.843,21.621,5.852z"/>
	<path fill="#FD9A15" d="M21.63,5.864c-0.003-0.004-0.006-0.008-0.009-0.012C21.627,5.854,21.631,5.858,21.63,5.864z"/>
	<path fill="#FD9314" d="M10.234,5.864c-0.001,0.007-0.004,0.012-0.011,0.015C10.223,5.871,10.226,5.866,10.234,5.864z"/>
	<path fill="#FD9A15" d="M21.647,5.891c-0.006-0.003-0.01-0.008-0.011-0.016C21.642,5.879,21.646,5.884,21.647,5.891z"/>
	<path fill="#FD9A15" d="M21.656,5.904C21.653,5.9,21.65,5.896,21.647,5.892C21.653,5.894,21.657,5.897,21.656,5.904z"/>
	<path fill="#FD9314" d="M10.208,5.904c-0.003,0.004-0.006,0.008-0.009,0.012C10.199,5.91,10.202,5.906,10.208,5.904z"/>
	<path fill="#FD9A15" d="M21.671,5.93c-0.003-0.005-0.006-0.01-0.009-0.014C21.668,5.918,21.671,5.923,21.671,5.93z"/>
	<path fill="#FD9314" d="M10.194,5.928c0,0.007-0.003,0.012-0.009,0.015C10.184,5.936,10.188,5.931,10.194,5.928z"/>
	<path fill="#FD9A15" d="M21.686,5.957c-0.006-0.004-0.01-0.009-0.01-0.017C21.682,5.943,21.686,5.949,21.686,5.957z"/>
	<path fill="#FD9314" d="M10.18,5.953c0,0.008-0.004,0.014-0.011,0.017C10.17,5.962,10.173,5.956,10.18,5.953z"/>
	<path fill="#FD9314" d="M10.169,5.97c-0.003,0.004-0.007,0.008-0.01,0.013C10.159,5.975,10.162,5.971,10.169,5.97z"/>
	<path fill="#FD9A15" d="M21.71,5.995c-0.003-0.004-0.006-0.009-0.01-0.013C21.707,5.984,21.71,5.989,21.71,5.995z"/>
	<path fill="#FD9314" d="M10.154,5.992c0,0.008-0.004,0.013-0.01,0.017C10.144,6.001,10.147,5.996,10.154,5.992z"/>
	<path fill="#FD9A15" d="M21.726,6.022c-0.007-0.004-0.011-0.01-0.011-0.019C21.723,6.007,21.726,6.014,21.726,6.022z"/>
	<path fill="#FD9A15" d="M21.735,6.035c-0.003-0.004-0.006-0.008-0.009-0.012C21.732,6.024,21.735,6.028,21.735,6.035z"/>
	<path fill="#FD9314" d="M10.13,6.035c-0.003,0.004-0.006,0.009-0.009,0.013C10.12,6.041,10.123,6.037,10.13,6.035z"/>
	<path fill="#FD9A15" d="M21.749,6.061c-0.006-0.003-0.009-0.008-0.009-0.015C21.747,6.049,21.75,6.054,21.749,6.061z"/>
	<path fill="#FD9314" d="M10.116,6.059c-0.003,0.005-0.007,0.011-0.01,0.016C10.106,6.067,10.109,6.062,10.116,6.059z"/>
	<path fill="#FD9314" d="M10.104,6.076c-0.003,0.004-0.006,0.007-0.009,0.011C10.095,6.081,10.099,6.077,10.104,6.076z"/>
	<path fill="#FD9A15" d="M21.764,6.088c-0.007-0.004-0.01-0.01-0.01-0.017C21.761,6.074,21.764,6.08,21.764,6.088z"/>
	<path fill="#FD9A15" d="M21.774,6.1c-0.003-0.004-0.006-0.007-0.009-0.011C21.771,6.091,21.774,6.094,21.774,6.1z"/>
	<path fill="#FD9314" d="M10.09,6.098c0,0.007-0.003,0.012-0.009,0.015C10.08,6.106,10.083,6.101,10.09,6.098z"/>
	<path fill="#FD9A15" d="M21.79,6.127c-0.007-0.004-0.01-0.01-0.01-0.017C21.787,6.113,21.791,6.119,21.79,6.127z"/>
	<path fill="#FD9314" d="M10.076,6.123c0,0.008-0.004,0.014-0.01,0.018C10.065,6.132,10.069,6.126,10.076,6.123z"/>
	<path fill="#FD9A15" d="M21.814,6.166c-0.003-0.004-0.006-0.009-0.009-0.013C21.811,6.155,21.814,6.159,21.814,6.166z"/>
	<path fill="#FD9314" d="M10.051,6.166c-0.003,0.005-0.007,0.01-0.01,0.014C10.041,6.173,10.044,6.168,10.051,6.166z"/>
	<path fill="#FD9A15" d="M21.828,6.192c-0.006-0.003-0.009-0.008-0.01-0.015C21.825,6.18,21.829,6.185,21.828,6.192z"/>
	<path fill="#FD9314" d="M10.025,6.205c-0.003,0.004-0.006,0.009-0.009,0.013C10.016,6.211,10.019,6.207,10.025,6.205z"/>
	<path fill="#FD9A15" d="M21.854,6.231c-0.006-0.003-0.009-0.008-0.009-0.015C21.851,6.219,21.855,6.224,21.854,6.231z"/>
	<path fill="#FD9314" d="M10.011,6.229c0,0.007-0.003,0.012-0.009,0.015C10.001,6.237,10.005,6.232,10.011,6.229z"/>
	<path fill="#FD9A15" d="M21.869,6.258c-0.007-0.004-0.01-0.01-0.01-0.018C21.866,6.244,21.869,6.25,21.869,6.258z"/>
	<path fill="#FD9314" d="M9.997,6.253c0,0.008-0.004,0.014-0.011,0.018C9.987,6.263,9.99,6.257,9.997,6.253z"/>
	<path fill="#FE4209" d="M11.729,9.386c0.003,0.005,0.007,0.011,0.01,0.016C11.732,9.399,11.729,9.394,11.729,9.386z"/>
	<path fill="#FE4209" d="M11.744,9.414c0.003,0.004,0.006,0.008,0.009,0.013C11.747,9.424,11.744,9.42,11.744,9.414z"/>
	<path fill="#FE4209" d="M11.753,9.426c0.007,0.004,0.011,0.01,0.011,0.019C11.757,9.441,11.753,9.434,11.753,9.426z"/>
	<path fill="#FE4209" d="M11.768,9.453c0.006,0.004,0.01,0.009,0.01,0.016C11.771,9.466,11.767,9.46,11.768,9.453z"/>
	<path fill="#FE4209" d="M11.782,9.479c0.003,0.004,0.007,0.008,0.01,0.012C11.786,9.49,11.782,9.486,11.782,9.479z"/>
	<path fill="#FE4209" d="M11.793,9.491c0.007,0.004,0.011,0.009,0.011,0.017C11.797,9.505,11.793,9.499,11.793,9.491z"/>
	<path fill="#FE4209" d="M11.808,9.518c0.003,0.005,0.006,0.01,0.009,0.015C11.811,9.53,11.808,9.525,11.808,9.518z"/>
	<path fill="#FE4209" d="M11.823,9.544c0.003,0.004,0.006,0.008,0.009,0.012C11.826,9.555,11.822,9.551,11.823,9.544z"/>
	<path fill="#FE4209" d="M11.832,9.557c0.007,0.004,0.011,0.01,0.011,0.019C11.835,9.572,11.832,9.565,11.832,9.557z"/>
	<path fill="#FE4209" d="M19.998,9.609c0.003-0.004,0.006-0.008,0.009-0.012C20.007,9.603,20.004,9.607,19.998,9.609z"/>
	<path fill="#FE4209" d="M19.987,9.628c0-0.008,0.004-0.014,0.011-0.018C19.998,9.617,19.994,9.624,19.987,9.628z"/>
	<path fill="#FE4209" d="M19.973,9.652c0.003-0.005,0.006-0.011,0.01-0.016C19.983,9.643,19.98,9.649,19.973,9.652z"/>
	<path fill="#FE4209" d="M19.959,9.674c0.003-0.004,0.006-0.008,0.01-0.012C19.969,9.669,19.966,9.673,19.959,9.674z"/>
	<path fill="#FE4209" d="M19.947,9.691c0.001-0.008,0.005-0.013,0.012-0.017C19.958,9.682,19.954,9.688,19.947,9.691z"/>
	<path fill="#FE4209" d="M19.934,9.715c0.003-0.005,0.006-0.009,0.009-0.014C19.943,9.708,19.94,9.713,19.934,9.715z"/>
	<path fill="#FE4209" d="M19.908,9.758c0-0.008,0.004-0.014,0.011-0.018C19.919,9.748,19.916,9.754,19.908,9.758z"/>
	<path fill="#FE4209" d="M19.894,9.781c0.003-0.005,0.007-0.009,0.01-0.014C19.905,9.774,19.902,9.779,19.894,9.781z"/>
	<path fill="#FE570C" d="M10.32,10.054c-0.031,0-0.063,0-0.096,0c-0.425-0.004-0.851-0.008-1.276-0.011
		c-0.275-0.002-0.55-0.003-0.824-0.006c-0.521-0.004-1.042-0.009-1.564-0.013c-0.508-0.004-1.016-0.009-1.524-0.013
		c-0.523-0.004-1.047-0.009-1.57-0.013C3.25,9.995,3.034,9.992,2.818,9.99c-0.011,0-0.022-0.001-0.033,0
		C2.77,9.99,2.761,9.982,2.755,9.97C2.734,9.929,2.713,9.888,2.692,9.847c-0.076-0.15-0.151-0.3-0.227-0.449
		C2.369,9.21,2.271,9.022,2.175,8.834C2.077,8.642,1.98,8.449,1.882,8.257C1.872,8.236,1.859,8.215,1.849,8.194
		C1.843,8.182,1.835,8.171,1.839,8.157c0.024-0.008,0.048-0.004,0.072-0.005c0.332,0,0.663,0,0.995-0.001
		c0.06,0,0.121,0.005,0.181,0.001C3.147,8.149,3.209,8.152,3.27,8.152c0.061,0,0.122,0,0.183,0c0.061,0,0.122,0,0.183,0
		c0.061,0,0.122,0,0.183,0c0.061,0,0.122,0,0.183,0c0.061,0,0.122,0,0.183,0s0.122,0,0.183,0c0.059,0,0.118,0,0.177,0
		c0.061,0,0.122,0,0.183,0s0.122,0,0.183,0s0.122,0,0.183,0c0.061,0,0.122,0,0.183,0c0.061,0,0.122,0,0.183,0
		c0.061,0,0.122,0,0.183,0s0.122,0,0.183,0c0.061,0,0.122,0,0.183,0c0.061,0,0.122,0,0.183,0c0.061,0,0.122,0,0.183,0
		s0.122,0,0.183,0c0.061,0,0.122,0,0.183,0c0.061,0,0.122,0,0.183,0c0.061,0,0.122,0,0.183,0s0.122,0,0.183,0
		c0.061,0,0.122,0,0.183,0c0.059,0,0.118,0,0.177,0c0.061,0,0.122,0,0.183,0c0.061,0,0.122,0,0.183,0c0.061,0,0.122,0,0.183,0
		s0.122,0,0.183,0s0.122,0,0.183,0c0.061,0,0.122,0,0.183,0s0.122,0,0.183,0s0.122,0,0.183,0c0.017,0,0.035,0,0.052,0
		c0.074,0.001,0.059-0.011,0.101,0.06c0.098,0.167,0.193,0.337,0.29,0.505C9.681,8.922,9.8,9.127,9.919,9.333
		c0.097,0.168,0.193,0.337,0.289,0.505c0.031,0.055,0.064,0.109,0.096,0.164C10.312,10.016,10.326,10.029,10.32,10.054z"/>
	<path fill="#FCEE21" d="M2.198,3.77c0.013-0.028,0.024-0.056,0.038-0.082C2.345,3.483,2.455,3.28,2.564,3.076
		c0.059-0.109,0.119-0.218,0.176-0.328C2.754,2.72,2.771,2.707,2.804,2.707C2.922,2.709,3.04,2.708,3.157,2.708
		c0.517,0.001,1.034,0.002,1.55,0.002c0.914,0.001,1.827,0.002,2.741,0.003c0.482,0.001,0.964,0.003,1.446,0.004
		c0.416,0.001,0.833,0.002,1.249,0.003c0.024,0,0.048,0,0.07,0c0.01,0.018-0.001,0.028-0.007,0.039
		c-0.055,0.094-0.11,0.188-0.165,0.282c-0.053,0.09-0.107,0.18-0.16,0.27C9.779,3.483,9.677,3.656,9.574,3.828
		c-0.02,0.033-0.033,0.071-0.061,0.1c-0.032,0.025-0.07,0.034-0.11,0.034C9.027,3.962,8.653,3.946,8.278,3.945
		c-0.119,0-0.239-0.009-0.359-0.009C7.542,3.938,7.165,3.924,6.788,3.918C6.54,3.914,6.291,3.922,6.043,3.907
		C5.782,3.892,5.52,3.909,5.259,3.894C5.009,3.88,4.758,3.895,4.508,3.881c-0.255-0.015-0.51,0.001-0.764-0.013
		C3.493,3.853,3.242,3.869,2.992,3.855C2.761,3.842,2.53,3.848,2.299,3.843C2.219,3.842,2.202,3.828,2.198,3.77z"/>
	<path fill="#FCD01D" d="M2.198,3.77C2.204,3.81,2.23,3.824,2.268,3.823c0.046-0.001,0.092,0,0.137,0c0.124,0,0.249,0,0.373,0
		c0.05,0,0.1-0.005,0.149,0.011c0.016,0.005,0.035,0.002,0.052,0.002c0.205,0,0.41,0,0.615,0c0.026,0,0.052,0,0.078,0.008
		c0.02,0.006,0.043,0.005,0.065,0.005c0.203,0,0.406,0,0.608,0c0.03,0,0.06,0,0.09,0.009C4.455,3.865,4.478,3.862,4.5,3.862
		c0.203,0,0.406,0,0.608,0c0.028,0,0.056,0,0.084,0.009c0.02,0.006,0.043,0.004,0.065,0.004c0.203,0,0.406,0,0.608,0
		c0.035,0,0.069-0.002,0.103,0.01c0.018,0.006,0.039,0.003,0.058,0.003c0.201,0,0.401,0,0.602,0c0.033,0,0.065-0.002,0.097,0.01
		c0.018,0.006,0.039,0.003,0.058,0.003c0.203,0,0.406,0,0.608,0c0.03,0,0.06-0.001,0.09,0.009c0.02,0.006,0.043,0.004,0.065,0.004
		c0.203,0,0.406,0,0.608,0c0.028,0,0.056,0,0.084,0.008c0.02,0.006,0.043,0.005,0.065,0.005c0.209,0,0.419,0,0.628,0
		c0.026,0,0.052-0.001,0.078,0.008C9.025,3.941,9.041,3.94,9.056,3.94c0.118,0,0.236-0.001,0.353,0.001
		c0.036,0.001,0.067-0.019,0.103-0.014C9.478,4.003,9.43,4.071,9.389,4.143c-0.052,0.091-0.107,0.18-0.16,0.27
		C9.205,4.454,9.18,4.494,9.157,4.537c-0.012,0.023-0.029,0.03-0.053,0.029c-0.013-0.001-0.026,0-0.039,0c-2.403,0-4.806,0-7.209,0
		c-0.022,0-0.044,0-0.065-0.002c-0.011-0.001-0.014-0.01-0.011-0.019c0.003-0.01,0.009-0.02,0.014-0.029
		C1.851,4.405,1.91,4.296,1.969,4.187c0.07-0.131,0.139-0.261,0.21-0.392C2.183,3.785,2.192,3.778,2.198,3.77z"/>
	<path fill="#FD9314" d="M4.336,4.977C4.338,4.983,4.34,4.986,4.34,4.987C4.316,5.029,4.293,5.071,4.268,5.112
		C4.216,5.2,4.163,5.288,4.111,5.376C4.008,5.55,3.904,5.724,3.801,5.899C3.729,6.021,3.657,6.143,3.586,6.265
		c-0.03,0.051-0.031,0.038,0,0.094c0.05,0.089,0.102,0.178,0.153,0.267C3.792,6.718,3.846,6.81,3.899,6.902
		c0.082,0.141,0.164,0.283,0.245,0.424c0.053,0.093,0.106,0.185,0.159,0.278c0.021,0.036,0.041,0.072,0.061,0.108
		c0.009,0.017,0.004,0.026-0.013,0.026C4.337,7.74,4.322,7.74,4.306,7.74c-0.325,0-0.65,0.001-0.975,0
		c-0.079,0-0.062,0.007-0.1-0.058C3.152,7.544,3.072,7.406,2.992,7.269c-0.076-0.132-0.153-0.264-0.23-0.396
		C2.717,6.794,2.671,6.714,2.626,6.635c-0.05-0.087-0.099-0.174-0.15-0.261c-0.014-0.024-0.014-0.042,0-0.066
		c0.054-0.089,0.106-0.18,0.16-0.27C2.687,5.952,2.739,5.866,2.79,5.78c0.085-0.142,0.169-0.285,0.253-0.427
		c0.068-0.114,0.136-0.228,0.202-0.344C3.26,4.983,3.277,4.973,3.307,4.973c0.334,0.001,0.667,0.001,1.001,0.001
		C4.318,4.974,4.328,4.976,4.336,4.977z"/>
	<path fill="#FE4D0B" d="M7.325,4.98c-0.003,0.026-0.018,0.04-0.028,0.056C7.199,5.203,7.101,5.37,7.002,5.537
		C6.885,5.734,6.768,5.93,6.651,6.127C6.624,6.172,6.6,6.218,6.571,6.262C6.555,6.288,6.556,6.309,6.572,6.334
		c0.027,0.042,0.05,0.087,0.075,0.13c0.073,0.126,0.147,0.252,0.22,0.379c0.076,0.132,0.151,0.265,0.227,0.397
		c0.074,0.128,0.149,0.256,0.223,0.385C7.336,7.657,7.353,7.69,7.371,7.723c0.002,0.003,0,0.008-0.001,0.013
		C7.351,7.743,7.331,7.739,7.312,7.739c-0.327,0-0.654,0-0.982,0c-0.079,0-0.061,0.005-0.096-0.055
		C6.137,7.518,6.04,7.35,5.943,7.182C5.867,7.05,5.791,6.917,5.715,6.785c-0.075-0.13-0.152-0.26-0.226-0.39
		C5.445,6.317,5.445,6.339,5.49,6.261c0.054-0.094,0.111-0.188,0.167-0.281C5.734,5.848,5.813,5.717,5.89,5.586
		c0.075-0.128,0.15-0.255,0.226-0.383C6.157,5.134,6.199,5.065,6.24,4.995C6.248,4.98,6.26,4.973,6.276,4.974
		c0.011,0,0.022,0,0.033,0c0.321,0,0.641,0,0.962,0C7.288,4.974,7.306,4.971,7.325,4.98z"/>
	<path fill="#FD7711" d="M5.322,7.74c-0.124,0-0.249,0-0.373,0c-0.013,0-0.026-0.001-0.039,0C4.886,7.742,4.87,7.733,4.857,7.711
		C4.823,7.65,4.787,7.591,4.752,7.53C4.697,7.434,4.641,7.338,4.585,7.242C4.533,7.151,4.481,7.06,4.429,6.97
		C4.349,6.832,4.27,6.694,4.19,6.557C4.148,6.483,4.105,6.409,4.063,6.336c-0.008-0.014-0.01-0.028-0.001-0.043
		c0.066-0.11,0.131-0.221,0.197-0.332c0.053-0.09,0.107-0.18,0.16-0.27c0.101-0.17,0.202-0.341,0.304-0.512
		C4.752,5.131,4.78,5.082,4.809,5.033c0.042-0.07,0.021-0.059,0.106-0.06c0.072-0.001,0.144,0,0.216,0c0.179,0,0.358,0,0.536,0
		c0.02,0,0.039,0,0.059,0.001c0.018,0.001,0.022,0.009,0.013,0.026C5.727,5.024,5.715,5.047,5.701,5.069
		c-0.106,0.18-0.213,0.36-0.32,0.54c-0.117,0.197-0.234,0.393-0.351,0.59C5.01,6.235,4.989,6.271,4.968,6.306
		c-0.008,0.013-0.007,0.024,0,0.037C5.013,6.42,5.057,6.498,5.102,6.575c0.057,0.098,0.114,0.196,0.17,0.294
		c0.076,0.132,0.153,0.264,0.229,0.396c0.051,0.089,0.102,0.178,0.153,0.266C5.688,7.59,5.721,7.649,5.755,7.707
		C5.77,7.734,5.768,7.739,5.734,7.739c-0.048,0.001-0.096,0-0.144,0C5.501,7.74,5.411,7.74,5.322,7.74
		C5.322,7.74,5.322,7.74,5.322,7.74z"/>
	<path fill="#FDB018" d="M1.545,4.988C1.548,4.982,1.55,4.976,1.558,4.975C1.575,4.974,1.592,4.973,1.61,4.973
		c0.364,0,0.728,0,1.092,0c0.019,0,0.038,0.002,0.061,0.003C2.752,5.013,2.734,5.04,2.717,5.067
		C2.636,5.206,2.553,5.345,2.471,5.483C2.373,5.648,2.275,5.812,2.177,5.977c-0.066,0.11-0.13,0.221-0.196,0.332
		c-0.013,0.021-0.013,0.039,0,0.06c0.093,0.16,0.187,0.32,0.279,0.48c0.073,0.126,0.145,0.253,0.218,0.38
		c0.079,0.138,0.159,0.275,0.239,0.413c0.017,0.03,0.036,0.058,0.046,0.09C2.747,7.743,2.733,7.74,2.721,7.74
		c-0.342,0-0.684,0.001-1.026,0.001c-0.011,0-0.022-0.002-0.032-0.003C1.693,7.6,1.68,7.46,1.68,7.321
		c0.001-0.72,0.001-1.44,0.001-2.159c0-0.022,0-0.044,0-0.065C1.678,5.023,1.674,5.019,1.598,5.008
		C1.579,5.005,1.559,5.004,1.545,4.988z"/>
	<path fill="#FF0801" d="M7.892,4.976c0.02-0.001,0.039-0.003,0.059-0.003c0.29,0,0.58,0,0.87,0c0.015,0,0.031,0,0.046,0.001
		C8.884,4.975,8.89,4.985,8.882,5C8.858,5.041,8.834,5.082,8.809,5.124c-0.08,0.135-0.16,0.27-0.24,0.405
		C8.472,5.694,8.373,5.858,8.275,6.023C8.234,6.092,8.194,6.162,8.153,6.231C8.143,6.247,8.145,6.259,8.154,6.273
		c0.09,0.154,0.179,0.309,0.268,0.464C8.496,6.866,8.57,6.994,8.644,7.123C8.721,7.257,8.799,7.39,8.876,7.524
		c0.035,0.06,0.069,0.121,0.103,0.182C8.983,7.714,8.986,7.722,8.99,7.733C8.97,7.743,8.95,7.74,8.932,7.74c-0.19,0-0.379,0-0.569,0
		c-0.135,0-0.27,0-0.406,0c-0.022,0-0.043-0.002-0.065-0.003C7.884,7.681,7.898,7.625,7.898,7.568c-0.001-0.808-0.001-1.616,0-2.423
		C7.898,5.088,7.884,5.033,7.892,4.976z"/>
	<path fill="#FCD71E" d="M1.545,4.988c0.035,0,0.07-0.001,0.105,0c0.03,0.001,0.044,0.013,0.05,0.04
		c0.002,0.008,0.002,0.017,0.002,0.026c0,0.013,0,0.026,0,0.039c0,0.842,0,1.683,0,2.525c0,0.009-0.001,0.018,0,0.026
		c0.003,0.03-0.005,0.056-0.029,0.076C1.668,7.725,1.666,7.732,1.662,7.737C1.649,7.74,1.636,7.742,1.623,7.734
		C1.615,7.729,1.617,7.716,1.608,7.712l0.001,0.001c-0.003-0.005-0.006-0.01-0.01-0.015c-0.004-0.002-0.005-0.005-0.004-0.01
		C1.594,7.682,1.589,7.677,1.586,7.672c-0.004-0.002-0.005-0.006-0.004-0.01C1.58,7.656,1.577,7.651,1.573,7.646
		C1.57,7.643,1.568,7.64,1.569,7.635C1.567,7.63,1.564,7.625,1.561,7.62C1.557,7.617,1.555,7.613,1.556,7.609
		C1.553,7.604,1.55,7.599,1.548,7.593C1.544,7.591,1.542,7.588,1.543,7.584c-0.001-0.007-0.006-0.012-0.01-0.017
		C1.529,7.565,1.528,7.563,1.529,7.559c0-0.007-0.005-0.012-0.009-0.018C1.516,7.539,1.515,7.536,1.516,7.532
		C1.516,7.525,1.511,7.52,1.507,7.515C1.504,7.513,1.502,7.51,1.503,7.505C1.503,7.499,1.498,7.494,1.494,7.489
		C1.491,7.486,1.489,7.483,1.49,7.479c-0.002-0.007-0.006-0.012-0.01-0.017L1.48,7.46C1.471,7.455,1.474,7.442,1.466,7.436l0-0.001
		C1.458,7.429,1.461,7.417,1.453,7.41l0-0.001C1.445,7.403,1.448,7.391,1.441,7.384C1.437,7.382,1.436,7.38,1.437,7.376
		c0-0.008-0.005-0.013-0.009-0.018C1.424,7.356,1.423,7.353,1.424,7.349c0-0.008-0.005-0.013-0.01-0.018l0-0.001
		C1.406,7.324,1.409,7.312,1.4,7.306l0,0c-0.007-0.008-0.004-0.02-0.013-0.026l0,0C1.38,7.272,1.382,7.26,1.374,7.253l0,0
		C1.367,7.246,1.369,7.234,1.362,7.227l0-0.001C1.353,7.219,1.356,7.207,1.348,7.201l0,0C1.344,7.197,1.341,7.192,1.338,7.188
		C1.334,7.185,1.333,7.181,1.334,7.176c-0.003-0.005-0.006-0.01-0.009-0.015C1.324,7.158,1.322,7.154,1.321,7.15
		C1.318,7.145,1.315,7.14,1.313,7.136C1.311,7.131,1.31,7.127,1.308,7.123c-0.007-0.008-0.004-0.02-0.013-0.027l0,0
		C1.292,7.092,1.289,7.088,1.287,7.083C1.282,7.081,1.281,7.077,1.281,7.072C1.279,7.067,1.276,7.062,1.272,7.057
		c-0.004-0.003-0.005-0.006-0.004-0.01C1.266,7.041,1.263,7.036,1.259,7.031C1.255,7.028,1.254,7.024,1.255,7.02
		C1.252,7.015,1.25,7.009,1.246,7.005C1.209,6.933,1.171,6.862,1.134,6.791C1.049,6.626,0.966,6.461,0.88,6.297
		c-0.016-0.03-0.015-0.054,0.002-0.085c0.084-0.153,0.166-0.307,0.248-0.46c0.047-0.088,0.094-0.177,0.142-0.265
		c0.003-0.006,0.008-0.01,0.012-0.015c0.004-0.005,0.009-0.01,0.01-0.016C1.293,5.452,1.295,5.448,1.299,5.446
		c0.003-0.005,0.006-0.01,0.009-0.015C1.306,5.426,1.308,5.422,1.312,5.419c0.003-0.005,0.006-0.01,0.009-0.015
		C1.32,5.4,1.321,5.396,1.325,5.393c0.003-0.005,0.006-0.01,0.009-0.015C1.333,5.374,1.334,5.37,1.338,5.367
		c0.002-0.005,0.006-0.009,0.009-0.012l0,0c0.006-0.005,0.011-0.01,0.011-0.018c-0.001-0.004,0-0.006,0.004-0.008
		c0.005-0.005,0.009-0.01,0.01-0.018c-0.001-0.004,0-0.007,0.004-0.009c0.005-0.005,0.009-0.01,0.009-0.018
		c-0.001-0.004,0-0.007,0.004-0.009c0.004-0.005,0.009-0.01,0.009-0.017c-0.001-0.004,0-0.007,0.004-0.009
		c0.004-0.004,0.007-0.009,0.01-0.015L1.411,5.235C1.422,5.23,1.419,5.217,1.426,5.21l0,0c0.009-0.007,0.006-0.019,0.013-0.026l0,0
		c0.008-0.007,0.006-0.019,0.013-0.026l0,0c0.008-0.007,0.006-0.019,0.013-0.026l0,0C1.474,5.126,1.471,5.113,1.48,5.108
		l0.001-0.002c0.003-0.006,0.008-0.01,0.01-0.016C1.49,5.085,1.491,5.082,1.495,5.079c0.003-0.005,0.006-0.01,0.009-0.015
		C1.503,5.059,1.504,5.056,1.508,5.053c0.003-0.005,0.006-0.01,0.009-0.015C1.516,5.033,1.518,5.03,1.521,5.027
		c0.003-0.005,0.006-0.01,0.009-0.015C1.529,5.007,1.531,5.003,1.535,5.001C1.537,4.996,1.54,4.992,1.545,4.988L1.545,4.988z"/>
	<path fill="#FE2E06" d="M7.892,4.976c0.02,0.032,0.027,0.067,0.027,0.106c-0.001,0.85-0.001,1.7,0,2.55
		c0,0.039-0.008,0.073-0.027,0.106C7.888,7.736,7.883,7.735,7.878,7.734c-0.004-0.002-0.007-0.005-0.009-0.01
		c-0.004-0.002-0.005-0.006-0.004-0.01C7.863,7.708,7.859,7.704,7.855,7.698C7.852,7.696,7.851,7.693,7.851,7.689
		C7.85,7.682,7.845,7.677,7.841,7.671L7.84,7.67C7.836,7.668,7.833,7.664,7.831,7.659C7.827,7.657,7.825,7.653,7.826,7.649
		c-0.002-0.006-0.006-0.01-0.009-0.016C7.813,7.631,7.811,7.628,7.812,7.624c-0.001-0.007-0.006-0.012-0.01-0.017
		C7.799,7.605,7.798,7.603,7.799,7.599c0-0.008-0.006-0.014-0.011-0.019l0-0.001C7.783,7.577,7.781,7.573,7.78,7.568
		C7.778,7.564,7.776,7.56,7.774,7.556C7.77,7.551,7.767,7.546,7.763,7.541C7.755,7.534,7.749,7.525,7.748,7.514
		C7.744,7.511,7.742,7.507,7.741,7.503C7.739,7.498,7.737,7.494,7.735,7.489C7.731,7.485,7.728,7.481,7.726,7.476
		C7.724,7.472,7.723,7.468,7.721,7.464C7.718,7.46,7.715,7.455,7.712,7.45C7.705,7.442,7.697,7.435,7.695,7.423
		C7.692,7.42,7.689,7.416,7.687,7.411C7.685,7.407,7.684,7.403,7.682,7.399C7.679,7.394,7.676,7.389,7.673,7.385
		C7.669,7.382,7.668,7.378,7.668,7.374c-0.003-0.005-0.006-0.01-0.009-0.015C7.651,7.35,7.645,7.341,7.643,7.329
		c-0.004-0.002-0.007-0.005-0.008-0.01C7.616,7.295,7.601,7.268,7.591,7.238c-0.004-0.002-0.006-0.006-0.007-0.01
		C7.57,7.211,7.556,7.195,7.552,7.173c-0.004-0.002-0.006-0.006-0.007-0.01C7.543,7.158,7.54,7.153,7.538,7.148
		C7.535,7.145,7.532,7.141,7.53,7.136C7.519,7.119,7.504,7.104,7.499,7.083C7.495,7.079,7.493,7.075,7.491,7.071
		C7.442,6.988,7.394,6.906,7.346,6.823c-0.08-0.137-0.159-0.275-0.238-0.412c-0.021-0.036-0.04-0.072-0.062-0.111
		C7.09,6.224,7.135,6.147,7.18,6.071C7.237,5.975,7.293,5.88,7.35,5.784C7.396,5.706,7.444,5.628,7.491,5.55
		c0.002-0.005,0.005-0.008,0.008-0.012C7.5,5.526,7.508,5.518,7.516,5.51c0.003-0.005,0.006-0.009,0.009-0.013
		c0.002-0.004,0.004-0.009,0.006-0.013c0.001-0.005,0.004-0.008,0.008-0.011c0.005-0.021,0.016-0.039,0.031-0.054
		c0.002-0.004,0.005-0.008,0.009-0.011c0.006-0.021,0.017-0.038,0.03-0.055C7.61,5.349,7.613,5.344,7.616,5.34
		C7.618,5.336,7.62,5.331,7.622,5.327C7.623,5.322,7.626,5.319,7.63,5.316c0.002-0.012,0.01-0.02,0.017-0.028
		C7.65,5.283,7.652,5.279,7.656,5.276c0.002-0.005,0.004-0.01,0.007-0.014c0.001-0.005,0.003-0.008,0.007-0.01
		C7.67,5.239,7.677,5.231,7.685,5.223c0.004-0.005,0.007-0.01,0.009-0.015C7.697,5.204,7.699,5.2,7.701,5.196
		c0.001-0.005,0.004-0.008,0.008-0.01c0.001-0.012,0.008-0.021,0.016-0.029c0.003-0.005,0.006-0.01,0.009-0.015
		c0.002-0.004,0.003-0.008,0.005-0.012c0.002-0.005,0.005-0.009,0.009-0.013C7.75,5.114,7.752,5.109,7.754,5.104
		C7.755,5.1,7.757,5.096,7.762,5.094l0.001-0.001c0.004-0.005,0.008-0.01,0.011-0.016c0.002-0.004,0.004-0.008,0.006-0.012
		c0.002-0.005,0.004-0.009,0.008-0.012c0.001-0.011,0.007-0.02,0.015-0.027c0.004-0.005,0.009-0.01,0.01-0.017
		C7.811,5.006,7.813,5.003,7.817,5c0.003-0.005,0.006-0.01,0.009-0.014C7.83,4.977,7.838,4.974,7.847,4.974
		C7.862,4.975,7.877,4.976,7.892,4.976z"/>
	<path fill="#FDB018" d="M1.48,5.108c0,0.01-0.004,0.019-0.014,0.024C1.465,5.121,1.47,5.113,1.48,5.108z"/>
	<path fill="#FDB018" d="M1.466,5.132c0.001,0.011-0.002,0.02-0.013,0.026C1.452,5.147,1.456,5.138,1.466,5.132z"/>
	<path fill="#FDB018" d="M1.348,7.201c0.011,0.005,0.014,0.014,0.014,0.025C1.352,7.22,1.348,7.211,1.348,7.201z"/>
	<path fill="#FDB018" d="M1.362,7.227c0.01,0.006,0.013,0.015,0.013,0.026C1.365,7.246,1.361,7.238,1.362,7.227z"/>
	<path fill="#FDB018" d="M1.374,7.253c0.011,0.006,0.014,0.015,0.013,0.026C1.377,7.273,1.374,7.264,1.374,7.253z"/>
	<path fill="#FDB018" d="M1.387,7.279C1.398,7.285,1.401,7.294,1.4,7.306C1.39,7.299,1.387,7.29,1.387,7.279z"/>
	<path fill="#FDB018" d="M1.4,7.306C1.411,7.31,1.414,7.32,1.414,7.33C1.403,7.325,1.399,7.317,1.4,7.306z"/>
	<path fill="#FDB018" d="M1.441,7.384c0.01,0.005,0.013,0.014,0.012,0.025C1.444,7.403,1.44,7.395,1.441,7.384z"/>
	<path fill="#FDB018" d="M1.453,7.41c0.01,0.006,0.013,0.015,0.013,0.026C1.457,7.429,1.453,7.421,1.453,7.41z"/>
	<path fill="#FDB018" d="M1.466,7.436C1.476,7.441,1.48,7.45,1.48,7.46C1.47,7.455,1.465,7.447,1.466,7.436z"/>
	<path fill="#FDB018" d="M1.295,7.096c0.011,0.006,0.014,0.015,0.013,0.027C1.298,7.117,1.295,7.107,1.295,7.096z"/>
	<path fill="#FDB018" d="M1.453,5.158C1.453,5.169,1.45,5.179,1.439,5.184C1.439,5.173,1.443,5.164,1.453,5.158z"/>
	<path fill="#FDB018" d="M1.439,5.184C1.44,5.195,1.437,5.205,1.426,5.21C1.426,5.199,1.429,5.19,1.439,5.184z"/>
	<path fill="#FDB018" d="M1.426,5.21c0.001,0.012-0.002,0.021-0.015,0.025C1.412,5.225,1.417,5.216,1.426,5.21z"/>
	<path fill="#FDB018" d="M1.608,7.712c0.011,0.003,0.015,0.011,0.015,0.022C1.611,7.731,1.609,7.722,1.608,7.712z"/>
	<path fill="#FF0801" d="M7.525,5.497C7.522,5.502,7.519,5.506,7.516,5.51C7.516,5.504,7.519,5.5,7.525,5.497z"/>
	<path fill="#FF0801" d="M7.499,5.538C7.496,5.542,7.493,5.546,7.491,5.55C7.49,5.543,7.494,5.54,7.499,5.538z"/>
	<path fill="#FDB018" d="M1.544,4.988c-0.003,0.004-0.006,0.008-0.01,0.012C1.534,4.993,1.538,4.99,1.544,4.988z"/>
	<path fill="#FF0801" d="M7.826,4.986C7.823,4.991,7.82,4.996,7.817,5C7.816,4.993,7.819,4.989,7.826,4.986z"/>
	<path fill="#FDB018" d="M1.53,5.012c0,0.007-0.003,0.012-0.009,0.015C1.52,5.02,1.523,5.015,1.53,5.012z"/>
	<path fill="#FF0801" d="M7.812,5.01c-0.003,0.006-0.007,0.011-0.01,0.017C7.802,5.019,7.806,5.014,7.812,5.01z"/>
	<path fill="#FDB018" d="M1.517,5.038c0,0.007-0.003,0.012-0.009,0.015C1.507,5.046,1.51,5.041,1.517,5.038z"/>
	<path fill="#FF0801" d="M7.787,5.054C7.785,5.058,7.782,5.062,7.779,5.065C7.782,5.062,7.785,5.058,7.787,5.054z"/>
	<path fill="#FDB018" d="M1.504,5.064c0,0.007-0.003,0.012-0.009,0.015C1.494,5.072,1.497,5.067,1.504,5.064z"/>
	<path fill="#FF0801" d="M7.773,5.077C7.77,5.082,7.766,5.088,7.762,5.093C7.763,5.085,7.767,5.08,7.773,5.077z"/>
	<path fill="#FDB018" d="M1.491,5.09c0,0.007-0.004,0.013-0.01,0.016C1.481,5.099,1.484,5.093,1.491,5.09z"/>
	<path fill="#FDB018" d="M1.246,7.005C1.252,7.008,1.255,7.013,1.255,7.02C1.248,7.017,1.245,7.012,1.246,7.005z"/>
	<path fill="#FDB018" d="M1.259,7.031c0.006,0.003,0.009,0.009,0.009,0.016C1.261,7.043,1.258,7.038,1.259,7.031z"/>
	<path fill="#FDB018" d="M1.272,7.057c0.006,0.003,0.01,0.008,0.009,0.016C1.274,7.07,1.271,7.064,1.272,7.057z"/>
	<path fill="#FF0801" d="M7.491,7.071c0.003,0.004,0.005,0.008,0.008,0.012C7.496,7.079,7.494,7.075,7.491,7.071z"/>
	<path fill="#FDB018" d="M1.287,7.083c0.003,0.004,0.006,0.009,0.008,0.013C1.289,7.094,1.286,7.09,1.287,7.083z"/>
	<path fill="#FF0801" d="M7.762,5.094C7.76,5.098,7.758,5.102,7.754,5.104C7.753,5.099,7.756,5.096,7.762,5.094z"/>
	<path fill="#FDB018" d="M1.313,7.136C1.318,7.138,1.321,7.143,1.321,7.15C1.315,7.147,1.312,7.142,1.313,7.136z"/>
	<path fill="#FF0801" d="M7.53,7.136C7.533,7.14,7.536,7.144,7.538,7.148C7.533,7.146,7.53,7.142,7.53,7.136z"/>
	<path fill="#FDB018" d="M1.325,7.162C1.331,7.165,1.334,7.17,1.334,7.176C1.327,7.174,1.324,7.169,1.325,7.162z"/>
	<path fill="#FF0801" d="M7.545,7.163c0.003,0.003,0.006,0.006,0.007,0.01C7.549,7.169,7.547,7.166,7.545,7.163z"/>
	<path fill="#FDB018" d="M1.338,7.188c0.003,0.004,0.006,0.009,0.009,0.013C1.341,7.199,1.337,7.195,1.338,7.188z"/>
	<path fill="#FF0801" d="M7.748,5.118C7.745,5.123,7.742,5.127,7.739,5.131C7.739,5.125,7.742,5.121,7.748,5.118z"/>
	<path fill="#FF0801" d="M7.734,5.143c-0.003,0.005-0.006,0.01-0.009,0.015C7.725,5.15,7.728,5.146,7.734,5.143z"/>
	<path fill="#FF0801" d="M7.584,7.228c0.004,0.003,0.006,0.006,0.007,0.01C7.586,7.237,7.583,7.234,7.584,7.228z"/>
	<path fill="#FF0801" d="M7.709,5.186C7.706,5.19,7.703,5.193,7.701,5.196C7.703,5.193,7.706,5.19,7.709,5.186z"/>
	<path fill="#FF0801" d="M7.695,5.207c-0.003,0.005-0.006,0.01-0.009,0.015C7.685,5.216,7.688,5.211,7.695,5.207z"/>
	<path fill="#FDB018" d="M1.412,5.235c0,0.007-0.003,0.012-0.01,0.015C1.401,5.242,1.405,5.237,1.412,5.235z"/>
	<path fill="#FF0801" d="M7.67,5.251c-0.001,0.004-0.004,0.007-0.007,0.01C7.662,5.256,7.665,5.253,7.67,5.251z"/>
	<path fill="#FF0801" d="M7.635,7.319c0.003,0.003,0.006,0.007,0.008,0.01C7.641,7.326,7.638,7.323,7.635,7.319z"/>
	<path fill="#FDB018" d="M1.414,7.331c0.007,0.004,0.011,0.01,0.01,0.018C1.417,7.346,1.414,7.339,1.414,7.331z"/>
	<path fill="#FDB018" d="M1.428,7.358c0.007,0.004,0.01,0.01,0.009,0.018C1.43,7.372,1.427,7.366,1.428,7.358z"/>
	<path fill="#FF0801" d="M7.659,7.358c0.003,0.005,0.006,0.01,0.009,0.015C7.662,7.37,7.659,7.365,7.659,7.358z"/>
	<path fill="#FDB018" d="M1.398,5.258c0,0.008-0.003,0.013-0.009,0.017C1.388,5.268,1.391,5.262,1.398,5.258z"/>
	<path fill="#FF0801" d="M7.673,7.385c0.003,0.005,0.006,0.009,0.009,0.014C7.676,7.396,7.673,7.391,7.673,7.385z"/>
	<path fill="#FF0801" d="M7.656,5.276C7.653,5.28,7.65,5.284,7.648,5.288C7.647,5.282,7.651,5.278,7.656,5.276z"/>
	<path fill="#FF0801" d="M7.687,7.411C7.69,7.415,7.693,7.419,7.695,7.423C7.69,7.421,7.687,7.417,7.687,7.411z"/>
	<path fill="#FDB018" d="M1.385,5.284c0.001,0.008-0.003,0.014-0.009,0.018C1.375,5.294,1.378,5.288,1.385,5.284z"/>
	<path fill="#FF0801" d="M7.712,7.45c0.003,0.005,0.006,0.01,0.009,0.014C7.715,7.461,7.712,7.457,7.712,7.45z"/>
	<path fill="#FDB018" d="M1.481,7.462c0.006,0.004,0.01,0.01,0.01,0.017C1.483,7.475,1.481,7.469,1.481,7.462z"/>
	<path fill="#FF0801" d="M7.726,7.476C7.729,7.48,7.732,7.485,7.735,7.489C7.729,7.487,7.726,7.483,7.726,7.476z"/>
	<path fill="#FDB018" d="M1.494,7.489c0.006,0.004,0.009,0.009,0.009,0.017C1.496,7.502,1.494,7.496,1.494,7.489z"/>
	<path fill="#FF0801" d="M7.741,7.503C7.743,7.506,7.746,7.51,7.748,7.514C7.743,7.512,7.74,7.509,7.741,7.503z"/>
	<path fill="#FDB018" d="M1.507,7.515c0.007,0.004,0.01,0.01,0.009,0.017C1.509,7.529,1.506,7.523,1.507,7.515z"/>
	<path fill="#FDB018" d="M1.52,7.541c0.007,0.004,0.01,0.01,0.009,0.018C1.522,7.555,1.519,7.549,1.52,7.541z"/>
	<path fill="#FF0801" d="M7.763,7.541c0.003,0.005,0.007,0.009,0.01,0.014C7.767,7.553,7.763,7.549,7.763,7.541z"/>
	<path fill="#FDB018" d="M1.533,7.567c0.007,0.004,0.01,0.009,0.01,0.017C1.535,7.581,1.532,7.575,1.533,7.567z"/>
	<path fill="#FF0801" d="M7.78,7.568c0.003,0.004,0.005,0.008,0.008,0.011C7.785,7.576,7.782,7.572,7.78,7.568z"/>
	<path fill="#FF0801" d="M7.788,7.58c0.007,0.004,0.011,0.011,0.011,0.019C7.792,7.595,7.788,7.588,7.788,7.58z"/>
	<path fill="#FDB018" d="M1.548,7.593c0.006,0.003,0.009,0.008,0.009,0.015C1.55,7.606,1.547,7.601,1.548,7.593z"/>
	<path fill="#FF0801" d="M7.802,7.607c0.003,0.006,0.007,0.011,0.01,0.017C7.805,7.62,7.802,7.614,7.802,7.607z"/>
	<path fill="#FDB018" d="M1.561,7.62C1.567,7.623,1.57,7.628,1.569,7.635C1.562,7.632,1.56,7.627,1.561,7.62z"/>
	<path fill="#FF0801" d="M7.816,7.633c0.003,0.005,0.006,0.01,0.009,0.016C7.819,7.645,7.816,7.64,7.816,7.633z"/>
	<path fill="#FDB018" d="M1.573,7.646C1.58,7.649,1.583,7.655,1.582,7.662C1.576,7.659,1.573,7.653,1.573,7.646z"/>
	<path fill="#FF0801" d="M7.831,7.659C7.834,7.663,7.837,7.667,7.84,7.67C7.835,7.669,7.831,7.666,7.831,7.659z"/>
	<path fill="#FDB018" d="M1.586,7.672c0.006,0.004,0.009,0.009,0.009,0.016C1.588,7.685,1.586,7.679,1.586,7.672z"/>
	<path fill="#FF0801" d="M7.841,7.671c0.007,0.004,0.01,0.01,0.011,0.018C7.844,7.685,7.841,7.679,7.841,7.671z"/>
	<path fill="#FDB018" d="M1.599,7.698c0.006,0.003,0.01,0.008,0.01,0.015C1.602,7.71,1.598,7.706,1.599,7.698z"/>
	<path fill="#FF0801" d="M7.855,7.698c0.003,0.005,0.006,0.011,0.009,0.016C7.858,7.711,7.855,7.706,7.855,7.698z"/>
	<path fill="#FDB018" d="M1.372,5.31c0,0.008-0.003,0.014-0.01,0.018C1.362,5.32,1.365,5.314,1.372,5.31z"/>
	<path fill="#FF0801" d="M7.869,7.725c0.003,0.003,0.006,0.006,0.009,0.01C7.871,7.735,7.869,7.731,7.869,7.725z"/>
	<path fill="#FF0801" d="M7.63,5.316C7.628,5.32,7.625,5.323,7.622,5.327C7.622,5.321,7.625,5.318,7.63,5.316z"/>
	<path fill="#FDB018" d="M1.359,5.336c0,0.008-0.003,0.014-0.011,0.018C1.348,5.346,1.351,5.34,1.359,5.336z"/>
	<path fill="#FF0801" d="M7.616,5.34C7.614,5.344,7.611,5.349,7.608,5.353C7.607,5.347,7.611,5.343,7.616,5.34z"/>
	<path fill="#FDB018" d="M1.348,5.355C1.345,5.359,1.342,5.363,1.338,5.367C1.338,5.36,1.341,5.356,1.348,5.355z"/>
	<path fill="#FDB018" d="M1.334,5.378c0,0.007-0.003,0.012-0.009,0.015C1.324,5.386,1.327,5.381,1.334,5.378z"/>
	<path fill="#FDB018" d="M1.321,5.404c0,0.007-0.003,0.012-0.009,0.015C1.311,5.412,1.314,5.407,1.321,5.404z"/>
	<path fill="#FF0801" d="M7.578,5.408C7.575,5.412,7.572,5.415,7.569,5.419C7.569,5.413,7.572,5.41,7.578,5.408z"/>
	<path fill="#FDB018" d="M1.307,5.43c0,0.007-0.003,0.012-0.009,0.015C1.298,5.438,1.3,5.433,1.307,5.43z"/>
	<path fill="#FDB018" d="M1.294,5.456c0,0.007-0.004,0.013-0.01,0.016C1.284,5.465,1.287,5.459,1.294,5.456z"/>
	<path fill="#FF0801" d="M7.539,5.473C7.536,5.477,7.533,5.48,7.531,5.484C7.533,5.48,7.536,5.477,7.539,5.473z"/>
	<path fill="#FCEE21" d="M21.722,2.696c0.02,0,0.037,0,0.054,0c0.447-0.001,0.894-0.001,1.341-0.002
		c0.432-0.001,0.864-0.001,1.295-0.002c0.955-0.002,1.91-0.004,2.865-0.006c0.611-0.001,1.221-0.002,1.832-0.002
		c0.084,0,0.061-0.011,0.102,0.064c0.096,0.178,0.192,0.357,0.288,0.535c0.051,0.094,0.1,0.189,0.151,0.283
		c0.079,0.148,0.159,0.295,0.238,0.443c0.049,0.092,0.098,0.185,0.148,0.277c0.038,0.071,0.076,0.142,0.114,0.213
		c0.006,0.011,0.015,0.022,0.009,0.04c-0.021,0.003-0.045,0.001-0.068,0.001c-0.652,0-1.304,0-1.956,0c-1.751,0-3.502,0-5.253,0
		c-0.099,0-0.073,0.014-0.121-0.067c-0.107-0.18-0.213-0.36-0.32-0.54c-0.097-0.163-0.194-0.325-0.291-0.488
		c-0.098-0.165-0.195-0.33-0.292-0.496c-0.041-0.069-0.082-0.139-0.123-0.208C21.729,2.728,21.721,2.718,21.722,2.696z"/>
	<path fill="#FD7911" d="M22.193,9.019c0.025-0.061,0.063-0.114,0.094-0.172c0.057-0.103,0.117-0.204,0.176-0.306
		c0.07-0.121,0.139-0.242,0.208-0.363c0.007-0.011,0.015-0.021,0.021-0.033c0.007-0.013,0.018-0.018,0.032-0.018
		c0.015,0,0.031,0,0.046,0c2.019,0,4.038,0,6.057,0c0.026,0,0.052-0.004,0.078,0.007c0.004,0.002,0.009,0.003,0.013,0.002
		c0.09-0.02,0.182-0.006,0.273-0.009c0.092-0.002,0.183-0.001,0.275-0.001c0.192,0,0.384,0,0.576,0c0.011,0,0.022,0,0.033,0
		c0.027,0.001,0.032,0.008,0.021,0.031C30.07,8.21,30.045,8.26,30.019,8.311C29.959,8.427,29.9,8.543,29.84,8.66
		c-0.084,0.165-0.169,0.33-0.253,0.495c-0.002,0.004-0.006,0.007-0.009,0.01c-0.02,0.017-0.043,0.019-0.068,0.016
		c-0.076-0.012-0.152-0.008-0.229-0.007c-0.414,0.006-0.828-0.012-1.242-0.018c-0.246-0.003-0.493,0.003-0.739-0.011
		c-0.26-0.015-0.519,0.001-0.778-0.014c-0.251-0.015-0.502,0.002-0.752-0.013c-0.26-0.015-0.519,0.001-0.778-0.014
		c-0.249-0.014-0.497,0.002-0.745-0.013c-0.262-0.015-0.524,0.001-0.785-0.013c-0.251-0.014-0.502,0-0.752-0.013
		c-0.144-0.007-0.288-0.008-0.431-0.012C22.248,9.053,22.214,9.051,22.193,9.019z"/>
	<path fill="#FE590C" d="M22.193,9.019c0.038,0.012,0.076,0.015,0.116,0.015c0.07-0.002,0.14-0.001,0.209,0
		c0.043,0,0.087-0.003,0.129,0.011c0.018,0.006,0.039,0.002,0.059,0.002c0.201,0,0.401,0,0.602,0c0.03,0,0.06-0.001,0.09,0.009
		c0.02,0.006,0.043,0.004,0.065,0.004c0.207,0,0.414,0,0.621,0c0.028,0,0.056,0,0.084,0.008c0.02,0.006,0.043,0.004,0.065,0.005
		c0.205,0,0.41,0,0.615,0c0.026,0,0.052,0,0.078,0.008c0.02,0.006,0.043,0.005,0.065,0.005c0.203,0,0.406,0,0.608,0
		c0.03,0,0.06-0.001,0.09,0.009c0.02,0.006,0.043,0.004,0.065,0.004c0.207,0,0.414,0,0.621,0c0.028,0,0.056,0,0.084,0.008
		c0.02,0.006,0.043,0.004,0.065,0.004c0.205,0,0.41,0,0.615,0c0.026,0,0.052,0,0.078,0.008c0.02,0.006,0.043,0.005,0.065,0.005
		c0.203,0,0.406,0,0.608,0c0.03,0,0.06,0,0.09,0.009c0.02,0.006,0.043,0.004,0.065,0.004c0.203,0,0.406,0,0.608,0
		c0.028,0,0.056,0,0.084,0.009c0.02,0.006,0.043,0.004,0.065,0.004c0.203,0,0.406,0,0.608,0c0.035,0,0.069-0.002,0.103,0.01
		c0.02,0.006,0.043,0.003,0.065,0.003c-0.019,0.058-0.053,0.109-0.079,0.164c-0.054,0.11-0.111,0.217-0.167,0.326
		c-0.049,0.095-0.097,0.19-0.145,0.285c-0.009,0.018-0.021,0.026-0.041,0.026c-0.011,0-0.022,0-0.033,0
		c-0.567,0.005-1.134,0.009-1.7,0.014c-0.56,0.005-1.121,0.009-1.681,0.014c-0.508,0.004-1.016,0.009-1.524,0.013
		c-0.525,0.004-1.051,0.009-1.576,0.013c-0.32,0.003-0.641,0.006-0.961,0.009c-0.017,0-0.035,0-0.051,0
		c-0.009-0.02,0.003-0.032,0.01-0.044c0.117-0.202,0.234-0.403,0.351-0.605c0.067-0.115,0.133-0.23,0.199-0.345
		C22.184,9.029,22.189,9.024,22.193,9.019z"/>
	<path fill="#FCCB1C" d="M29.177,7.715c0.008-0.039,0.029-0.067,0.046-0.097c0.104-0.181,0.209-0.362,0.314-0.544
		c0.118-0.204,0.236-0.407,0.353-0.611c0.023-0.04,0.045-0.08,0.069-0.119c0.013-0.021,0.013-0.039,0-0.06
		c-0.045-0.074-0.089-0.15-0.133-0.225c-0.057-0.096-0.114-0.191-0.17-0.287c-0.099-0.167-0.198-0.333-0.297-0.5
		c-0.055-0.094-0.11-0.188-0.165-0.282c-0.006-0.011-0.015-0.021-0.012-0.036c0.013-0.011,0.029-0.006,0.043-0.006
		c0.371,0,0.742-0.001,1.112-0.001c0.002,0,0.004,0,0.007,0c0.04-0.008,0.06,0.014,0.075,0.047c0.018,0.037,0.039,0.073,0.059,0.109
		c0.074,0.138,0.147,0.277,0.221,0.415c0.077,0.144,0.155,0.288,0.232,0.432c0.044,0.083,0.088,0.165,0.133,0.248
		c0.012,0.021,0.013,0.04,0.002,0.061c-0.046,0.089-0.091,0.178-0.137,0.268c-0.053,0.103-0.106,0.205-0.159,0.308
		c-0.082,0.161-0.165,0.322-0.247,0.483c-0.054,0.107-0.108,0.214-0.162,0.321c-0.039,0.078-0.038,0.078-0.128,0.078
		c-0.329,0-0.659-0.001-0.988-0.001C29.223,7.716,29.202,7.715,29.177,7.715z"/>
	<path fill="#FE5B0D" d="M25.114,7.716c-0.157,0-0.314,0-0.471,0c-0.017,0-0.035,0-0.052,0c-0.023-0.001-0.028-0.008-0.018-0.028
		c0.039-0.07,0.079-0.14,0.119-0.21c0.052-0.091,0.105-0.181,0.157-0.271c0.059-0.102,0.118-0.204,0.176-0.306
		c0.073-0.126,0.146-0.253,0.218-0.38c0.041-0.072,0.081-0.144,0.124-0.215c0.014-0.024,0.014-0.043,0-0.066
		c-0.051-0.084-0.1-0.169-0.149-0.253c-0.053-0.09-0.107-0.18-0.16-0.27c-0.103-0.174-0.207-0.348-0.31-0.523
		c-0.043-0.073-0.087-0.146-0.13-0.219C24.61,4.96,24.615,4.95,24.632,4.949c0.015-0.001,0.031,0,0.046,0c0.314,0,0.628,0,0.942,0
		c0.011,0,0.022,0.001,0.033,0c0.024-0.002,0.04,0.006,0.053,0.029c0.035,0.063,0.073,0.124,0.11,0.186
		c0.128,0.215,0.256,0.431,0.384,0.646c0.088,0.148,0.176,0.296,0.262,0.445c0.034,0.058,0.033,0.041,0,0.1
		c-0.117,0.204-0.236,0.407-0.354,0.611C26.01,7.132,25.914,7.3,25.818,7.468c-0.041,0.072-0.085,0.142-0.124,0.215
		c-0.015,0.027-0.034,0.036-0.063,0.035c-0.144-0.001-0.288-0.001-0.432-0.001c-0.028,0-0.057,0-0.085,0
		C25.114,7.717,25.114,7.717,25.114,7.716z"/>
	<path fill="#FDAD18" d="M27.56,7.716c0.016-0.03,0.025-0.049,0.036-0.068c0.118-0.204,0.236-0.407,0.354-0.611
		c0.076-0.132,0.151-0.265,0.227-0.397c0.052-0.091,0.105-0.181,0.158-0.271c0.009-0.015,0.016-0.031,0.026-0.045
		c0.019-0.027,0.015-0.051-0.002-0.078c-0.053-0.088-0.104-0.176-0.156-0.264c-0.055-0.094-0.112-0.187-0.167-0.281
		c-0.1-0.169-0.2-0.337-0.3-0.506c-0.044-0.075-0.088-0.15-0.132-0.225c-0.002-0.003-0.001-0.008-0.002-0.013
		c0.006-0.013,0.018-0.008,0.028-0.008c0.334,0,0.667,0,1.001-0.001c0.032,0,0.05,0.011,0.066,0.039
		c0.13,0.222,0.261,0.443,0.392,0.664c0.118,0.199,0.237,0.396,0.354,0.595c0.049,0.084,0.048,0.056,0.001,0.14
		c-0.105,0.186-0.213,0.37-0.32,0.555c-0.11,0.191-0.219,0.381-0.329,0.572c-0.033,0.057-0.068,0.112-0.098,0.169
		C28.68,7.71,28.662,7.72,28.632,7.717c-0.013-0.001-0.026,0-0.039,0c-0.316,0-0.632,0-0.948-0.001
		C27.621,7.716,27.597,7.716,27.56,7.716z"/>
	<path fill="#FE3F09" d="M23.056,4.949c0.022,0,0.041,0,0.061,0c0.31,0,0.619,0,0.929,0c0.015,0,0.031,0,0.046,0
		c0.015,0,0.024,0.007,0.031,0.019c0.024,0.041,0.049,0.083,0.073,0.124c0.129,0.217,0.258,0.435,0.386,0.652
		c0.099,0.167,0.196,0.334,0.295,0.501c0.012,0.021,0.015,0.036,0.002,0.059c-0.064,0.109-0.127,0.218-0.19,0.328
		c-0.051,0.089-0.102,0.178-0.153,0.266c-0.079,0.138-0.16,0.275-0.239,0.413c-0.054,0.094-0.108,0.189-0.162,0.284
		c-0.019,0.034-0.04,0.068-0.059,0.102c-0.008,0.015-0.021,0.022-0.037,0.022c-0.013,0-0.026,0-0.039,0
		c-0.329-0.001-0.658-0.002-0.987-0.003c-0.019,0-0.039,0.003-0.057-0.004c-0.005-0.016,0.004-0.026,0.01-0.037
		c0.079-0.138,0.158-0.276,0.238-0.414c0.054-0.094,0.109-0.189,0.163-0.283c0.099-0.172,0.199-0.343,0.298-0.514
		c0.041-0.072,0.082-0.144,0.123-0.216c0.009-0.015,0.008-0.027-0.001-0.042c-0.089-0.15-0.178-0.299-0.267-0.449
		c-0.048-0.081-0.095-0.161-0.143-0.242c-0.102-0.173-0.204-0.345-0.306-0.518C23.063,4.984,23.051,4.973,23.056,4.949z"/>
	<path fill="#FD9314" d="M26.189,4.949c0.028,0,0.045,0,0.063,0c0.262,0,0.523,0,0.785,0c0.013,0,0.026,0,0.039,0
		c0.014,0,0.024,0.006,0.032,0.019c0.024,0.041,0.049,0.082,0.073,0.124c0.127,0.214,0.253,0.427,0.38,0.641
		c0.105,0.178,0.21,0.357,0.316,0.535c0.009,0.015,0.01,0.027,0.001,0.042c-0.091,0.156-0.182,0.312-0.273,0.469
		c-0.076,0.132-0.151,0.265-0.227,0.397c-0.092,0.161-0.185,0.321-0.278,0.481c-0.003,0.006-0.008,0.011-0.01,0.017
		c-0.014,0.036-0.041,0.044-0.078,0.043c-0.262-0.001-0.523-0.001-0.785-0.001c-0.011,0-0.022,0-0.033-0.001
		c-0.016-0.001-0.021-0.012-0.012-0.027c0.042-0.074,0.084-0.148,0.127-0.221c0.054-0.094,0.11-0.188,0.164-0.283
		c0.102-0.175,0.203-0.351,0.304-0.526c0.064-0.111,0.128-0.223,0.193-0.334c0.01-0.017,0.008-0.032-0.002-0.049
		c-0.091-0.151-0.181-0.303-0.271-0.455c-0.076-0.128-0.15-0.256-0.226-0.383c-0.075-0.128-0.152-0.254-0.227-0.382
		C26.226,5.023,26.206,4.992,26.189,4.949z"/>
	<path d="M20.599,6.157c-0.001,0.004,0.001,0.007,0.005,0.009c0.003,0.005,0.006,0.009,0.01,0.013l0,0
		c0.005,0.005,0.01,0.01,0.011,0.017c-0.001,0.004,0.001,0.007,0.004,0.009c0.003,0.005,0.006,0.01,0.009,0.015
		c-0.001,0.005,0.001,0.008,0.005,0.011c0.002,0.005,0.005,0.009,0.009,0.013l0,0c0.008,0.006,0.004,0.019,0.014,0.025l0,0.001
		c0.003,0.006,0.008,0.009,0.011,0.015l-0.001-0.001c0.009,0.005,0.006,0.019,0.015,0.024l0,0.001
		c0.003,0.005,0.008,0.01,0.01,0.016c0,0,0,0,0,0c0.004,0.027,0.026,0.045,0.034,0.073c-0.063,0.105-0.127,0.211-0.191,0.317
		c-0.054,0.089-0.109,0.178-0.163,0.268c-0.078,0.128-0.157,0.256-0.234,0.385c-0.072,0.119-0.144,0.238-0.216,0.358
		c-0.039,0.065-0.077,0.131-0.116,0.196c-0.022,0.034-0.046,0.068-0.067,0.103c-0.119,0.195-0.236,0.391-0.355,0.586
		c-0.138,0.227-0.276,0.453-0.414,0.68c-0.002,0.004-0.003,0.008-0.004,0.012c-0.001,0.007-0.006,0.012-0.01,0.017l-0.001,0.001
		c-0.004,0.002-0.007,0.006-0.008,0.011c-0.002,0.005-0.004,0.009-0.006,0.014c-0.004,0.004-0.007,0.008-0.009,0.013
		c-0.004,0.003-0.006,0.006-0.005,0.011c-0.002,0.006-0.007,0.011-0.01,0.016l-0.001,0.001c-0.005,0.002-0.008,0.006-0.009,0.011
		c-0.002,0.004-0.004,0.008-0.006,0.011c-0.003,0.005-0.006,0.01-0.009,0.015c-0.004,0.002-0.005,0.005-0.005,0.009
		c-0.001,0.007-0.006,0.012-0.01,0.018l0,0.001c-0.004,0.003-0.007,0.006-0.008,0.011c-0.002,0.004-0.004,0.009-0.006,0.013
		c-0.004,0.005-0.007,0.01-0.01,0.015L18.86,9.494c-0.005,0.001-0.008,0.004-0.008,0.009c-0.002,0.004-0.004,0.009-0.006,0.013
		c-0.004,0.004-0.007,0.008-0.009,0.013c-0.004,0.003-0.005,0.006-0.005,0.011c-0.003,0.005-0.006,0.011-0.009,0.016
		c-0.003,0.002-0.005,0.005-0.004,0.009c-0.001,0.008-0.006,0.013-0.011,0.018l0,0.001c-0.004,0.003-0.007,0.007-0.009,0.012
		c-0.004,0.002-0.006,0.005-0.006,0.01c-0.001,0.007-0.006,0.012-0.011,0.017l0,0.001c-0.009,0.006-0.006,0.019-0.014,0.025l0-0.001
		c-0.004,0.004-0.007,0.009-0.009,0.014c-0.004,0.002-0.005,0.006-0.005,0.01c-0.002,0.006-0.006,0.011-0.01,0.016
		c-0.003,0.002-0.005,0.004-0.004,0.008c-0.001,0.008-0.006,0.014-0.013,0.018c0,0,0-0.001,0-0.001
		c-0.033,0.033-0.05,0.076-0.074,0.115c-0.078,0.124-0.152,0.249-0.227,0.374c-0.025,0.041-0.05,0.082-0.074,0.123
		c-0.011,0.02-0.026,0.027-0.048,0.026c-0.017-0.001-0.035,0-0.052,0c-1.548,0-3.096,0-4.644,0c-0.095,0-0.074,0.009-0.121-0.069
		c-0.129-0.213-0.258-0.425-0.387-0.637c-0.016-0.026-0.034-0.05-0.051-0.075l0,0c-0.008-0.006-0.005-0.019-0.014-0.025l0-0.001
		c-0.004-0.006-0.009-0.011-0.01-0.017c0-0.004-0.001-0.008-0.005-0.01c-0.002-0.005-0.005-0.009-0.01-0.012l0-0.001
		c-0.004-0.005-0.009-0.01-0.011-0.018c0.001-0.004-0.001-0.007-0.004-0.009c-0.003-0.005-0.006-0.01-0.009-0.015
		c0.001-0.005-0.001-0.009-0.005-0.011c-0.002-0.005-0.005-0.009-0.009-0.013l0,0c-0.006-0.005-0.011-0.011-0.011-0.019
		c0-0.004-0.001-0.006-0.005-0.008c-0.003-0.005-0.006-0.009-0.01-0.013l0,0c-0.008-0.006-0.005-0.019-0.014-0.024L12.93,9.374
		c-0.004-0.006-0.009-0.01-0.01-0.017c0.001-0.004-0.001-0.008-0.005-0.01c-0.003-0.005-0.006-0.01-0.009-0.014
		C12.904,9.328,12.902,9.324,12.9,9.32c-0.002-0.005-0.005-0.009-0.009-0.011l-0.001-0.001c-0.004-0.005-0.009-0.01-0.011-0.016
		c0-0.005-0.001-0.009-0.005-0.011c-0.002-0.005-0.005-0.009-0.009-0.012l0,0c-0.006-0.005-0.011-0.01-0.011-0.018
		c0.001-0.004-0.001-0.006-0.004-0.008c-0.004-0.005-0.008-0.009-0.01-0.016c0-0.004-0.001-0.008-0.005-0.01
		c-0.003-0.005-0.006-0.009-0.009-0.013l0,0c-0.006-0.004-0.01-0.009-0.012-0.016c0-0.004-0.001-0.008-0.005-0.01
		c-0.003-0.005-0.006-0.009-0.009-0.014c-0.025-0.061-0.065-0.113-0.098-0.169c-0.08-0.135-0.162-0.268-0.244-0.402
		c-0.075-0.123-0.15-0.245-0.225-0.368c-0.054-0.089-0.108-0.179-0.162-0.269c-0.018-0.03-0.034-0.061-0.058-0.086
		c-0.009-0.017-0.016-0.035-0.026-0.052c-0.08-0.132-0.16-0.264-0.241-0.396c-0.097-0.16-0.195-0.319-0.293-0.479
		c-0.073-0.121-0.146-0.242-0.219-0.363c-0.031-0.052-0.061-0.105-0.096-0.156c-0.015-0.022-0.01-0.04-0.001-0.06c0,0,0,0,0,0
		c0.003-0.005,0.007-0.01,0.01-0.014c0.004-0.002,0.005-0.004,0.004-0.008c0.001-0.008,0.006-0.013,0.011-0.018l0,0
		c0.008-0.006,0.005-0.019,0.015-0.025l0,0.001c0.003-0.004,0.007-0.009,0.009-0.014c0.004-0.002,0.005-0.005,0.005-0.009
		c0.002-0.007,0.007-0.012,0.012-0.017l0,0c0.004-0.004,0.007-0.008,0.01-0.013c0.004-0.002,0.005-0.006,0.005-0.01
		c0.002-0.006,0.006-0.011,0.01-0.016c0.004-0.001,0.005-0.004,0.004-0.008c0-0.008,0.006-0.013,0.011-0.019l0,0
		c0.004-0.003,0.007-0.007,0.009-0.012c0.004-0.003,0.006-0.006,0.005-0.011c0.003-0.006,0.007-0.01,0.011-0.016l0-0.001
		c0.009-0.006,0.006-0.019,0.015-0.025l0,0.001c0.003-0.004,0.006-0.009,0.009-0.014c0.004-0.002,0.005-0.005,0.005-0.01
		c0.002-0.007,0.007-0.012,0.01-0.017l0.001-0.001c0.009-0.005,0.006-0.018,0.014-0.024c0.04-0.044,0.064-0.098,0.095-0.148
		c0.107-0.172,0.212-0.345,0.317-0.519c0.107-0.177,0.214-0.354,0.321-0.531c0.001-0.002,0.001-0.004,0.001-0.006
		c0.049-0.079,0.099-0.159,0.148-0.238c0.08-0.13,0.159-0.26,0.238-0.39c0.074-0.121,0.146-0.242,0.22-0.363
		c0.078-0.128,0.157-0.257,0.235-0.385c0.071-0.117,0.142-0.235,0.214-0.352c0.081-0.134,0.163-0.268,0.245-0.402
		c0.05-0.082,0.101-0.163,0.148-0.247c0.018-0.031,0.038-0.045,0.073-0.04c0.011,0.001,0.022,0,0.033,0c1.546,0,3.092,0,4.638,0
		c0.111,0,0.079-0.015,0.136,0.077c0.119,0.195,0.239,0.39,0.358,0.586c0.097,0.16,0.193,0.321,0.291,0.481
		c0.096,0.158,0.193,0.316,0.29,0.474c0.076,0.125,0.151,0.25,0.227,0.375c0.103,0.169,0.206,0.338,0.31,0.507
		c0.002,0.004,0.006,0.006,0.009,0.009c0.023,0.056,0.06,0.105,0.091,0.158c0.052,0.088,0.106,0.175,0.16,0.262
		c0.079,0.13,0.159,0.26,0.238,0.39c0.035,0.058,0.071,0.115,0.106,0.172c0.002,0.005,0.005,0.009,0.009,0.013l0,0
		c0.006,0.005,0.011,0.01,0.011,0.018c0,0.004,0.002,0.007,0.005,0.008c0.003,0.005,0.006,0.009,0.009,0.013l0,0
		c0.009,0.006,0.005,0.019,0.014,0.025l0,0.001c0.004,0.005,0.009,0.01,0.01,0.018c-0.001,0.004,0.001,0.007,0.005,0.009
		c0.003,0.005,0.006,0.01,0.009,0.015c-0.001,0.005,0.001,0.009,0.005,0.011c0.001,0.005,0.005,0.009,0.009,0.011l0.001,0.001
		c0.003,0.006,0.008,0.01,0.01,0.016c-0.001,0.005,0.001,0.008,0.005,0.011c0.002,0.005,0.005,0.009,0.009,0.013l0,0
		c0.008,0.006,0.005,0.019,0.014,0.025l0,0.001C20.592,6.145,20.597,6.15,20.599,6.157z"/>
	<path fill="#FE4209" d="M18.767,9.648c0-0.011,0.005-0.019,0.014-0.025C18.781,9.634,18.778,9.643,18.767,9.648z"/>
	<path fill="#FE4209" d="M18.965,9.321c0-0.008,0.003-0.014,0.01-0.017C18.975,9.312,18.972,9.317,18.965,9.321z"/>
	<path fill="#FE4209" d="M18.957,9.333c-0.001-0.006,0.002-0.009,0.008-0.011C18.962,9.326,18.96,9.33,18.957,9.333z"/>
	<path fill="#FE4209" d="M18.942,9.36c0-0.007,0.003-0.011,0.009-0.013C18.948,9.351,18.945,9.355,18.942,9.36z"/>
	<path fill="#FE4209" d="M18.926,9.387c0-0.007,0.004-0.013,0.01-0.016C18.933,9.376,18.93,9.382,18.926,9.387z"/>
	<path fill="#FE4209" d="M18.916,9.399c0-0.006,0.003-0.009,0.009-0.011C18.922,9.392,18.919,9.395,18.916,9.399z"/>
	<path fill="#FE4209" d="M18.902,9.425c0-0.007,0.003-0.012,0.009-0.015C18.908,9.415,18.905,9.42,18.902,9.425z"/>
	<path fill="#FE4209" d="M18.887,9.452c0-0.008,0.003-0.014,0.01-0.018C18.897,9.442,18.893,9.448,18.887,9.452z"/>
	<path fill="#FE4209" d="M18.878,9.464c-0.001-0.006,0.003-0.009,0.008-0.011C18.883,9.457,18.881,9.461,18.878,9.464z"/>
	<path fill="#FE4209" d="M18.862,9.492c0-0.007,0.004-0.012,0.01-0.015C18.869,9.482,18.865,9.487,18.862,9.492z"/>
	<path fill="#FE4209" d="M18.852,9.504c-0.001-0.006,0.003-0.009,0.008-0.009C18.859,9.498,18.856,9.501,18.852,9.504z"/>
	<path fill="#FE4209" d="M18.837,9.53c0-0.007,0.003-0.011,0.009-0.013C18.843,9.521,18.84,9.526,18.837,9.53z"/>
	<path fill="#FE4209" d="M18.823,9.556c0-0.007,0.003-0.012,0.009-0.016C18.832,9.548,18.829,9.553,18.823,9.556z"/>
	<path fill="#FE4209" d="M18.808,9.583c0-0.008,0.004-0.014,0.011-0.018C18.818,9.573,18.815,9.579,18.808,9.583z"/>
	<path fill="#FE4209" d="M18.799,9.595c0-0.006,0.003-0.01,0.009-0.012C18.805,9.588,18.802,9.592,18.799,9.595z"/>
	<path fill="#FE4209" d="M18.782,9.622c0-0.008,0.004-0.014,0.011-0.017C18.792,9.613,18.789,9.619,18.782,9.622z"/>
	<path fill="#FE4209" d="M18.758,9.661c0-0.007,0.003-0.011,0.009-0.014C18.764,9.652,18.761,9.657,18.758,9.661z"/>
	<path fill="#FE4209" d="M18.744,9.688c0-0.007,0.003-0.013,0.01-0.016C18.75,9.677,18.747,9.682,18.744,9.688z"/>
	<path fill="#FE4209" d="M18.727,9.713c0.001-0.008,0.005-0.014,0.013-0.018C18.74,9.704,18.735,9.71,18.727,9.713z"/>
	<path fill="#FE4209" d="M12.93,9.375c0.009,0.006,0.014,0.014,0.014,0.024C12.934,9.395,12.931,9.386,12.93,9.375z"/>
	<path fill="#FE4209" d="M13.035,9.545c0.009,0.006,0.014,0.014,0.014,0.025C13.038,9.565,13.035,9.556,13.035,9.545z"/>
	<path fill="#FE4209" d="M12.801,9.162c0.006,0.003,0.009,0.007,0.009,0.014C12.807,9.172,12.804,9.167,12.801,9.162z"/>
	<path fill="#FE4209" d="M12.815,9.186c0.007,0.003,0.011,0.008,0.012,0.016C12.82,9.2,12.816,9.194,12.815,9.186z"/>
	<path fill="#FE4209" d="M12.827,9.203c0.007,0.002,0.01,0.006,0.009,0.013C12.833,9.211,12.83,9.207,12.827,9.203z"/>
	<path fill="#FE4209" d="M12.841,9.226c0.007,0.003,0.01,0.008,0.01,0.016C12.844,9.239,12.841,9.233,12.841,9.226z"/>
	<path fill="#FE4209" d="M12.855,9.25c0.007,0.004,0.011,0.01,0.011,0.018C12.858,9.265,12.855,9.258,12.855,9.25z"/>
	<path fill="#FE4209" d="M12.866,9.269c0.006,0.002,0.009,0.006,0.009,0.012C12.871,9.277,12.869,9.273,12.866,9.269z"/>
	<path fill="#FE4209" d="M12.88,9.293c0.007,0.003,0.011,0.008,0.011,0.016C12.887,9.303,12.883,9.298,12.88,9.293z"/>
	<path fill="#FE4209" d="M12.891,9.309c0.006,0.001,0.009,0.005,0.009,0.011C12.897,9.317,12.894,9.313,12.891,9.309z"/>
	<path fill="#FE4209" d="M12.906,9.332c0.006,0.003,0.01,0.007,0.009,0.014C12.912,9.342,12.909,9.337,12.906,9.332z"/>
	<path fill="#FE4209" d="M12.919,9.357c0.007,0.004,0.01,0.009,0.01,0.017C12.923,9.37,12.92,9.364,12.919,9.357z"/>
	<path fill="#FE4209" d="M12.944,9.399c0.006,0.002,0.01,0.006,0.01,0.013C12.951,9.408,12.948,9.404,12.944,9.399z"/>
	<path fill="#FE4209" d="M12.959,9.42c0.007,0.004,0.011,0.01,0.011,0.019C12.963,9.435,12.959,9.429,12.959,9.42z"/>
	<path fill="#FE4209" d="M12.97,9.439c0.006,0.002,0.009,0.006,0.009,0.013C12.976,9.447,12.973,9.443,12.97,9.439z"/>
	<path fill="#FE4209" d="M12.984,9.463c0.007,0.003,0.01,0.008,0.009,0.015C12.99,9.473,12.987,9.468,12.984,9.463z"/>
	<path fill="#FE4209" d="M12.998,9.487c0.007,0.004,0.01,0.01,0.011,0.018C13.002,9.501,12.998,9.495,12.998,9.487z"/>
	<path fill="#FE4209" d="M13.009,9.505c0.006,0.002,0.01,0.005,0.01,0.012C13.015,9.513,13.012,9.509,13.009,9.505z"/>
	<path fill="#FE4209" d="M13.024,9.527c0.007,0.004,0.01,0.01,0.01,0.017C13.028,9.54,13.024,9.534,13.024,9.527z"/>
	<path fill="#FD9314" d="M11.283,6.128c0,0.011-0.005,0.02-0.015,0.025C11.269,6.141,11.272,6.132,11.283,6.128z"/>
	<path fill="#FD9314" d="M11.178,6.298c0,0.011-0.005,0.02-0.015,0.025C11.164,6.312,11.167,6.302,11.178,6.298z"/>
	<path fill="#FD9314" d="M11.321,6.062c0,0.011-0.005,0.019-0.014,0.024C11.308,6.075,11.311,6.066,11.321,6.062z"/>
	<path fill="#FD9314" d="M11.307,6.087c0,0.008-0.003,0.014-0.01,0.017C11.297,6.097,11.3,6.091,11.307,6.087z"/>
	<path fill="#FD9314" d="M11.292,6.114c0.001,0.007-0.002,0.012-0.009,0.014C11.286,6.124,11.289,6.119,11.292,6.114z"/>
	<path fill="#FD9314" d="M11.268,6.153c0,0.008-0.004,0.013-0.011,0.016C11.257,6.161,11.261,6.156,11.268,6.153z"/>
	<path fill="#FD9314" d="M11.251,6.18c0.001,0.007-0.003,0.011-0.009,0.012C11.245,6.188,11.248,6.184,11.251,6.18z"/>
	<path fill="#FD9314" d="M11.242,6.192c0,0.008-0.003,0.015-0.011,0.019C11.231,6.203,11.235,6.196,11.242,6.192z"/>
	<path fill="#FD9314" d="M11.228,6.219c0,0.008-0.003,0.013-0.01,0.016C11.218,6.228,11.221,6.222,11.228,6.219z"/>
	<path fill="#FD9314" d="M11.213,6.245c0.001,0.007-0.003,0.012-0.01,0.013C11.207,6.254,11.21,6.249,11.213,6.245z"/>
	<path fill="#FD9314" d="M11.204,6.258c0,0.008-0.005,0.014-0.012,0.017C11.192,6.267,11.196,6.261,11.204,6.258z"/>
	<path fill="#FD9314" d="M11.187,6.284c0.001,0.007-0.002,0.012-0.009,0.014C11.181,6.294,11.184,6.289,11.187,6.284z"/>
	<path fill="#FD9314" d="M11.164,6.323c0,0.008-0.003,0.015-0.011,0.018C11.153,6.333,11.156,6.327,11.164,6.323z"/>
	<path fill="#FD9314" d="M11.149,6.35c0,0.008-0.003,0.012-0.01,0.014C11.139,6.357,11.143,6.352,11.149,6.35z"/>
	<path fill="#FD9A15" d="M20.509,6.008c-0.009-0.006-0.014-0.014-0.014-0.025C20.506,5.988,20.509,5.997,20.509,6.008z"/>
	<path fill="#FD9A15" d="M20.667,6.269c-0.009-0.006-0.014-0.014-0.014-0.025C20.663,6.25,20.666,6.259,20.667,6.269z"/>
	<path fill="#FD9A15" d="M20.693,6.309c-0.009-0.005-0.014-0.014-0.015-0.024C20.689,6.289,20.692,6.298,20.693,6.309z"/>
	<path fill="#FD9A15" d="M20.588,6.139c-0.009-0.006-0.014-0.014-0.014-0.025C20.585,6.119,20.588,6.128,20.588,6.139z"/>
	<path fill="#FD9A15" d="M20.469,5.944c-0.006-0.002-0.01-0.006-0.009-0.013C20.463,5.935,20.466,5.94,20.469,5.944z"/>
	<path fill="#FD9A15" d="M20.48,5.962c-0.008-0.003-0.011-0.009-0.011-0.018C20.476,5.948,20.48,5.954,20.48,5.962z"/>
	<path fill="#FD9A15" d="M20.495,5.984c-0.006-0.002-0.01-0.007-0.009-0.013C20.489,5.975,20.492,5.979,20.495,5.984z"/>
	<path fill="#FD9A15" d="M20.52,6.027c-0.007-0.004-0.011-0.01-0.01-0.018C20.516,6.013,20.52,6.019,20.52,6.027z"/>
	<path fill="#FD9A15" d="M20.534,6.051c-0.007-0.003-0.01-0.008-0.009-0.015C20.531,6.039,20.534,6.044,20.534,6.051z"/>
	<path fill="#FD9A15" d="M20.549,6.073c-0.006-0.001-0.01-0.004-0.009-0.011C20.542,6.066,20.545,6.069,20.549,6.073z"/>
	<path fill="#FD9A15" d="M20.56,6.09c-0.007-0.003-0.01-0.009-0.01-0.016C20.556,6.078,20.559,6.083,20.56,6.09z"/>
	<path fill="#FD9A15" d="M20.574,6.114c-0.006-0.002-0.01-0.006-0.009-0.013C20.568,6.106,20.571,6.11,20.574,6.114z"/>
	<path fill="#FD9A15" d="M20.599,6.157c-0.007-0.004-0.011-0.009-0.01-0.018C20.595,6.144,20.599,6.149,20.599,6.157z"/>
	<path fill="#FD9A15" d="M20.613,6.179c-0.007-0.002-0.011-0.006-0.01-0.013C20.607,6.171,20.61,6.175,20.613,6.179z"/>
	<path fill="#FD9A15" d="M20.625,6.197c-0.007-0.003-0.011-0.009-0.011-0.017C20.621,6.183,20.625,6.189,20.625,6.197z"/>
	<path fill="#FD9A15" d="M20.639,6.221c-0.007-0.003-0.01-0.008-0.009-0.015C20.635,6.209,20.639,6.214,20.639,6.221z"/>
	<path fill="#FD9A15" d="M20.653,6.245c-0.006-0.002-0.01-0.006-0.009-0.013C20.647,6.236,20.65,6.241,20.653,6.245z"/>
	<path fill="#FD9A15" d="M20.678,6.285c-0.008-0.002-0.011-0.007-0.011-0.015C20.673,6.273,20.677,6.278,20.678,6.285z"/>
	<path fill="#FD9A15" d="M20.703,6.326c-0.008-0.003-0.01-0.008-0.01-0.016C20.7,6.313,20.703,6.319,20.703,6.326z"/>
	<path fill="#FDB719" d="M16.607,6.69c-0.072-0.039-0.128-0.098-0.179-0.16c-0.118-0.143-0.187-0.308-0.213-0.491
		c-0.009-0.06-0.015-0.121-0.021-0.182c-0.007-0.077,0.003-0.152,0.012-0.228c0.012-0.1,0.033-0.197,0.071-0.291
		c0.088-0.221,0.236-0.389,0.439-0.509c0.152-0.09,0.317-0.142,0.491-0.169c0.162-0.025,0.325-0.031,0.489-0.012
		c0.234,0.027,0.45,0.098,0.638,0.245c0.086,0.068,0.161,0.146,0.224,0.236c0.102,0.144,0.171,0.303,0.22,0.471
		c0.035,0.122,0.055,0.246,0.073,0.371c0.027,0.182,0.027,0.365,0.025,0.548c0,0.009-0.002,0.017-0.003,0.026
		c-0.023,0.03-0.055,0.042-0.091,0.045c-0.143,0.011-0.287,0.019-0.43,0.027c-0.202,0.012-0.404,0.025-0.606,0.037
		c-0.156,0.01-0.313,0.02-0.469,0.027c-0.185,0.009-0.369,0.029-0.554,0.029C16.682,6.71,16.643,6.709,16.607,6.69z"/>
	<path fill="#FD8913" d="M16.607,6.69c0.063,0,0.126,0,0.189-0.001c0.039,0,0.077-0.001,0.116-0.01
		c0.035-0.008,0.074-0.003,0.111-0.003c0.037-0.001,0.074,0.003,0.11-0.01c0.014-0.005,0.03-0.002,0.045-0.003
		c0.058-0.002,0.117,0.004,0.175-0.011c0.031-0.008,0.065-0.002,0.098-0.002c0.039-0.001,0.077-0.001,0.116-0.01
		c0.035-0.008,0.074-0.003,0.111-0.003c0.037-0.001,0.074,0.003,0.11-0.01c0.016-0.006,0.034-0.002,0.052-0.003
		c0.061-0.002,0.121,0.006,0.181-0.011c0.024-0.007,0.052-0.001,0.078-0.002c0.041-0.001,0.082,0,0.123-0.01
		c0.035-0.008,0.074-0.003,0.111-0.003c0.037-0.001,0.074,0.003,0.11-0.01c0.016-0.006,0.034-0.002,0.052-0.003
		c0.061-0.002,0.121,0.006,0.181-0.012c0.02-0.006,0.043-0.002,0.065-0.001c0.04,0.001,0.078,0,0.113-0.023
		c0.005-0.003,0.013-0.003,0.019-0.004c0.006,0.085-0.001,0.17-0.012,0.254c-0.015,0.112-0.027,0.225-0.053,0.336
		c-0.042,0.179-0.102,0.352-0.198,0.51c-0.154,0.252-0.375,0.421-0.657,0.509c-0.119,0.037-0.241,0.058-0.365,0.069
		c-0.186,0.017-0.37,0.005-0.555-0.011c-0.217-0.019-0.433-0.05-0.648-0.085c-0.073-0.012-0.069-0.001-0.06-0.082
		c0.007-0.061,0.015-0.121,0.021-0.182c0.011-0.106,0.021-0.213,0.031-0.319c0.001-0.009,0.002-0.017,0.004-0.026
		c0.003-0.018,0.009-0.028,0.036-0.025c0.214,0.028,0.429,0.05,0.644,0.063c0.122,0.008,0.244,0.012,0.366,0.01
		c0.113-0.002,0.22-0.026,0.321-0.079c0.104-0.054,0.182-0.133,0.239-0.235c0.039-0.069,0.063-0.143,0.08-0.22
		c0.016-0.075,0.027-0.15,0.026-0.227c0-0.021-0.009-0.028-0.028-0.022c-0.098,0.03-0.197,0.057-0.296,0.081
		c-0.154,0.037-0.309,0.056-0.467,0.045c-0.204-0.014-0.402-0.053-0.584-0.15C16.677,6.741,16.637,6.724,16.607,6.69z"/>
	<path fill="#FDA717" d="M15.063,7.25c0.01-0.071,0.019-0.143,0.014-0.215c-0.005-0.077-0.019-0.151-0.059-0.219
		c-0.043-0.073-0.104-0.122-0.181-0.152c-0.062-0.024-0.126-0.035-0.192-0.038c-0.136-0.006-0.27,0.007-0.404,0.03
		c-0.056,0.01-0.111,0.024-0.165,0.039c-0.022,0.006-0.042,0.008-0.064,0.003c-0.166-0.035-0.333-0.069-0.499-0.103
		c-0.013-0.003-0.025-0.006-0.038-0.009c-0.012-0.003-0.017-0.013-0.017-0.024c0.004-0.067,0.009-0.135,0.014-0.202
		c0.002-0.022,0.005-0.043,0.006-0.065c0.011-0.179,0.021-0.357,0.031-0.536c0.001-0.013,0-0.026,0.008-0.038
		c0.079-0.031,0.162-0.028,0.244-0.031c0.107-0.004,0.213-0.02,0.32-0.017c0.051,0.001,0.096-0.025,0.146-0.031
		c0.003,0.066-0.013,0.13-0.019,0.195C14.2,5.909,14.189,5.979,14.18,6.049c0.011,0.013,0.021,0.005,0.031,0.003
		c0.076-0.018,0.153-0.037,0.229-0.054c0.131-0.03,0.263-0.035,0.397-0.026c0.126,0.009,0.251,0.028,0.373,0.066
		c0.119,0.038,0.23,0.092,0.328,0.172c0.105,0.086,0.183,0.192,0.235,0.317c0.042,0.101,0.068,0.206,0.08,0.316
		c0.012,0.109,0.011,0.218,0.007,0.327c-0.001,0.02-0.001,0.039-0.01,0.058c-0.025,0.042-0.065,0.056-0.111,0.058
		c-0.197,0.009-0.394,0.024-0.592,0.034C15.091,7.321,15.069,7.303,15.063,7.25z"/>
	<path fill="#FCC91C" d="M14.227,5.642c-0.007,0.005-0.015,0.009-0.02,0.016c-0.011,0.016-0.024,0.02-0.043,0.024
		c-0.069,0.015-0.138,0.012-0.207,0.012c-0.013,0-0.027-0.002-0.039,0.002c-0.047,0.016-0.094,0.01-0.142,0.011
		c-0.039,0.001-0.077,0.003-0.116,0.01c-0.046,0.008-0.095,0.003-0.143,0.003c-0.004-0.013-0.002-0.026,0.002-0.039
		c0.018-0.061-0.003-0.125,0.012-0.187c-0.003-0.021-0.002-0.042,0.003-0.062c0.015-0.035-0.003-0.072,0.011-0.107
		c-0.003-0.021-0.002-0.042,0.003-0.063c0.014-0.048-0.003-0.098,0.01-0.146c-0.003-0.026-0.002-0.051,0.003-0.077
		c0.013-0.044-0.003-0.09,0.01-0.133c0.002-0.059,0.003-0.118,0.006-0.176c0.001-0.028,0.006-0.031,0.037-0.032
		c0.015,0,0.031,0,0.046,0c0.671,0,1.343,0,2.014,0c0.024,0,0.048-0.004,0.071,0.004c0.014,0.073,0.006,0.146,0.005,0.22
		c-0.001,0.149,0.008,0.298-0.005,0.447l0,0c-0.023,0.011-0.047,0.005-0.071,0.005c-0.446,0-0.892,0-1.338,0.001
		c-0.024,0-0.048-0.006-0.071,0.006l0,0.001c-0.015,0.021,0.001,0.047-0.012,0.068c0.002,0.013,0.002,0.025-0.004,0.038
		c-0.007,0.013-0.001,0.029-0.009,0.041c-0.001,0.008-0.001,0.016-0.002,0.024c-0.014,0.026,0.002,0.056-0.011,0.081
		C14.23,5.636,14.23,5.639,14.227,5.642z"/>
	<path fill="#FD8512" d="M15.063,7.25c0.024,0.047,0.047,0.061,0.091,0.049c0.019-0.005,0.038-0.006,0.058-0.007
		c0.06-0.002,0.12,0.003,0.181-0.011c0.037-0.009,0.078-0.002,0.117-0.002c0.03,0,0.06-0.001,0.09-0.009
		c0.026-0.007,0.056-0.006,0.084-0.004c0.06,0.005,0.116-0.007,0.167-0.04c0.004,0.073-0.013,0.143-0.031,0.212
		c-0.022,0.08-0.049,0.158-0.086,0.232c-0.109,0.216-0.279,0.365-0.5,0.457c-0.13,0.054-0.266,0.082-0.405,0.096
		c-0.185,0.018-0.37,0.006-0.554-0.012c-0.274-0.026-0.544-0.074-0.812-0.133c-0.019-0.004-0.038-0.009-0.057-0.014
		c-0.024-0.006-0.028-0.012-0.025-0.037c0.008-0.065,0.017-0.13,0.025-0.194c0.012-0.091,0.025-0.181,0.037-0.272
		c0.005-0.039,0.011-0.077,0.016-0.113c0.015-0.013,0.028-0.006,0.04-0.004c0.179,0.026,0.357,0.054,0.537,0.077
		c0.108,0.014,0.217,0.023,0.325,0.031c0.087,0.006,0.174,0.013,0.261,0.012c0.055-0.001,0.109-0.008,0.161-0.024
		c0.128-0.037,0.214-0.12,0.263-0.243C15.05,7.282,15.05,7.263,15.063,7.25z"/>
	<path fill="#FDA717" d="M14.266,5.38c0.006-0.007,0.013-0.012,0.022-0.012c0.015-0.001,0.03-0.001,0.046-0.001
		c0.453,0,0.907,0,1.36,0c0.017,0,0.035,0.001,0.052,0.001c-0.019,0.015-0.042,0.008-0.063,0.008c-0.215,0.001-0.431,0-0.646,0
		c-0.231,0-0.461,0-0.692,0C14.318,5.376,14.292,5.379,14.266,5.38z"/>
	<path fill="#FDA717" d="M15.745,5.368c0-0.222,0-0.444,0-0.667c0.016,0.007,0.011,0.022,0.011,0.033c0,0.106,0,0.213,0,0.319
		c0,0.093,0,0.187,0,0.28C15.756,5.346,15.76,5.36,15.745,5.368z"/>
	<path fill="#FDA717" d="M13.531,5.495c0,0.051,0.001,0.102,0.001,0.153c0,0.013-0.002,0.025-0.013,0.034
		C13.519,5.619,13.516,5.557,13.531,5.495z"/>
	<path fill="#FDA717" d="M13.558,5.116c0,0.039,0.001,0.078,0.001,0.117c0,0.011-0.003,0.021-0.012,0.029
		C13.546,5.213,13.544,5.164,13.558,5.116z"/>
	<path fill="#FDA717" d="M13.571,4.906c0.001,0.035,0.001,0.069,0.002,0.104c0,0.011-0.003,0.021-0.011,0.029
		C13.56,4.995,13.557,4.95,13.571,4.906z"/>
	<path fill="#FDA717" d="M13.545,5.326c0,0.026,0.001,0.052,0.001,0.078c0,0.011-0.003,0.021-0.012,0.029
		C13.532,5.396,13.529,5.36,13.545,5.326z"/>
	<path fill="#FDA717" d="M14.228,5.633c0.001-0.028-0.011-0.057,0.011-0.081C14.24,5.579,14.242,5.607,14.228,5.633z"/>
	<path fill="#FDA717" d="M14.254,5.448c0.001-0.023-0.01-0.048,0.012-0.068C14.264,5.404,14.267,5.427,14.254,5.448z"/>
	<path fill="#FDA717" d="M14.241,5.527c-0.002-0.015-0.005-0.03,0.009-0.041C14.252,5.501,14.25,5.515,14.241,5.527z"/>
	<path d="M18.099,6.188c-0.049,0.022-0.099,0.027-0.148,0.037c-0.161,0.03-0.323,0.05-0.487,0.047
		c-0.059-0.001-0.117-0.009-0.174-0.026c-0.163-0.048-0.265-0.154-0.296-0.322c-0.016-0.086-0.016-0.173,0.003-0.26
		c0.038-0.172,0.144-0.284,0.31-0.338c0.112-0.036,0.227-0.04,0.341-0.012c0.112,0.028,0.2,0.093,0.269,0.185
		c0.057,0.076,0.096,0.16,0.122,0.251c0.037,0.128,0.057,0.259,0.059,0.393C18.099,6.158,18.099,6.173,18.099,6.188z"/>
</g>
</svg>
