<?xml version="1.0" encoding="utf-8"?>
<!-- Generator: Adobe Illustrator 24.3.0, SVG Export Plug-In . SVG Version: 6.00 Build 0)  -->
<svg version="1.1" id="Слой_1" xmlns="http://www.w3.org/2000/svg" xmlns:xlink="http://www.w3.org/1999/xlink" x="0px" y="0px"
	 width="32px" height="13px" viewBox="0 0 32 13" enable-background="new 0 0 32 13" xml:space="preserve">
<g>
	<path d="M16.129,12.858c-1.204,0-2.409,0-3.613,0c-0.028,0-0.061,0.011-0.083-0.006c-0.021-0.016-0.035-0.044-0.049-0.069
		c-0.085-0.146-0.169-0.292-0.253-0.437c-0.182-0.314-0.365-0.628-0.547-0.942c-0.138-0.238-0.277-0.476-0.416-0.714
		c-0.14-0.24-0.28-0.48-0.419-0.72c-0.142-0.244-0.284-0.488-0.426-0.732C10.184,9,10.045,8.762,9.907,8.524
		C9.768,8.286,9.63,8.048,9.491,7.81C9.349,7.566,9.207,7.322,9.065,7.078C8.961,6.9,8.857,6.721,8.752,6.544
		c-0.021-0.035-0.02-0.061,0-0.096c0.088-0.149,0.174-0.3,0.261-0.45C9.151,5.76,9.289,5.522,9.428,5.284
		c0.14-0.24,0.28-0.48,0.419-0.72c0.139-0.238,0.277-0.476,0.415-0.714c0.143-0.246,0.286-0.492,0.43-0.738
		c0.136-0.234,0.273-0.467,0.409-0.701c0.142-0.244,0.284-0.488,0.426-0.732c0.14-0.24,0.279-0.48,0.419-0.72
		c0.141-0.242,0.282-0.484,0.423-0.726c0.02-0.035,0.04-0.07,0.068-0.1c0.036-0.001,0.071-0.002,0.107-0.002
		c2.402,0,4.803,0,7.205,0c0.108,0,0.077-0.018,0.131,0.074c0.155,0.264,0.308,0.529,0.462,0.794
		c0.138,0.238,0.277,0.476,0.415,0.714c0.142,0.244,0.284,0.488,0.426,0.732c0.136,0.234,0.273,0.467,0.409,0.701
		c0.143,0.246,0.287,0.492,0.43,0.738c0.138,0.238,0.277,0.476,0.415,0.714c0.14,0.24,0.279,0.48,0.419,0.72
		c0.141,0.242,0.282,0.484,0.423,0.726c0.075,0.129,0.151,0.258,0.227,0.387c0.008,0.014,0.016,0.029,0.025,0.043
		c0.008,0.013,0.008,0.027,0,0.04c-0.009,0.017-0.019,0.033-0.028,0.049c-0.197,0.339-0.393,0.677-0.59,1.016
		c-0.137,0.236-0.275,0.472-0.412,0.708c-0.142,0.244-0.284,0.488-0.426,0.732c-0.137,0.236-0.275,0.472-0.412,0.707
		c-0.143,0.246-0.287,0.492-0.43,0.738c-0.137,0.236-0.275,0.472-0.412,0.707c-0.141,0.242-0.282,0.484-0.423,0.726
		c-0.14,0.24-0.279,0.48-0.419,0.72c-0.039,0.068-0.081,0.134-0.12,0.202c-0.014,0.025-0.029,0.041-0.061,0.037
		c-0.019-0.003-0.038,0-0.057,0C18.537,12.858,17.333,12.858,16.129,12.858z"/>
	<path d="M22.534,0.346c0.054,0,0.104-0.001,0.154,0c0.589,0.009,1.178,0.019,1.767,0.029c0.601,0.01,1.202,0.02,1.803,0.029
		c0.572,0.009,1.145,0.018,1.717,0.028c0.603,0.01,1.207,0.02,1.81,0.03c0.57,0.009,1.14,0.018,1.71,0.028
		c0.066,0.001,0.133,0.003,0.199,0.005c0.041,0.001,0.042,0.002,0.043,0.046c0,0.017,0,0.033,0,0.05c0,3.934,0,7.868,0,11.802
		c0,0.03,0.009,0.062-0.009,0.09c-0.028,0.001-0.057,0.003-0.085,0.004c-0.698,0.007-1.397,0.014-2.095,0.021
		c-0.428,0.004-0.855,0.008-1.283,0.013c-0.482,0.005-0.964,0.011-1.447,0.016c-0.456,0.005-0.912,0.01-1.368,0.014
		c-0.456,0.005-0.912,0.01-1.368,0.014c-0.454,0.005-0.907,0.009-1.361,0.014c-0.159,0.002-0.318,0.004-0.477,0.006
		c-0.018,0-0.036,0-0.053,0c-0.006-0.018,0.006-0.021,0.013-0.026c0.232-0.14,0.463-0.279,0.695-0.419
		c0.028-0.017,0.057-0.035,0.085-0.052c0.233-0.141,0.467-0.283,0.7-0.424c0.28-0.169,0.561-0.338,0.841-0.508
		c0.278-0.168,0.557-0.336,0.835-0.504c0.28-0.169,0.561-0.338,0.842-0.507c0.278-0.168,0.557-0.336,0.835-0.504
		c0.181-0.109,0.362-0.218,0.543-0.326c0.032-0.019,0.055-0.042,0.072-0.075c0.079-0.157,0.159-0.313,0.24-0.469
		c0.142-0.276,0.285-0.552,0.428-0.828c0.133-0.257,0.266-0.514,0.399-0.771c0.113-0.219,0.227-0.438,0.34-0.658
		c0.009-0.017,0.016-0.034,0.026-0.051c0.009-0.015,0.006-0.027-0.003-0.039c-0.009-0.014-0.018-0.028-0.027-0.042
		c-0.083-0.128-0.165-0.255-0.248-0.382c-0.145-0.223-0.291-0.445-0.437-0.667C28.231,5.121,28.093,4.91,27.955,4.7
		c-0.142-0.216-0.284-0.433-0.425-0.649c-0.121-0.185-0.242-0.369-0.363-0.554c-0.019-0.029-0.04-0.052-0.069-0.07
		c-0.036-0.022-0.072-0.046-0.107-0.07c-0.236-0.159-0.472-0.319-0.709-0.478c-0.276-0.186-0.552-0.371-0.828-0.556
		c-0.284-0.191-0.567-0.381-0.851-0.572c-0.276-0.185-0.552-0.371-0.828-0.556c-0.284-0.191-0.567-0.381-0.851-0.572
		c-0.118-0.079-0.237-0.159-0.355-0.239C22.557,0.375,22.538,0.371,22.534,0.346z"/>
	<path d="M9.9,0.285c-0.006,0.003-0.012,0.006-0.018,0.01C9.65,0.451,9.417,0.607,9.185,0.763C8.868,0.976,8.551,1.19,8.233,1.403
		C7.962,1.586,7.69,1.769,7.418,1.951C7.13,2.145,6.842,2.338,6.555,2.531C6.281,2.715,6.007,2.899,5.733,3.083
		C5.601,3.172,5.469,3.261,5.337,3.349c-0.03,0.02-0.056,0.043-0.076,0.074c-0.013,0.02-0.027,0.039-0.04,0.059
		c-0.11,0.169-0.22,0.339-0.33,0.508C4.745,4.214,4.598,4.438,4.451,4.663c-0.13,0.199-0.26,0.397-0.39,0.596
		C3.91,5.489,3.759,5.719,3.608,5.95C3.527,6.073,3.446,6.195,3.365,6.318C3.326,6.379,3.329,6.36,3.359,6.419
		C3.455,6.605,3.552,6.79,3.647,6.975c0.103,0.2,0.205,0.401,0.308,0.602C4.104,7.864,4.252,8.15,4.4,8.437
		c0.124,0.24,0.249,0.48,0.372,0.721c0.019,0.038,0.042,0.066,0.081,0.085c0.034,0.016,0.065,0.039,0.098,0.058
		c0.372,0.225,0.743,0.45,1.115,0.675c0.274,0.166,0.549,0.331,0.823,0.497c0.284,0.172,0.569,0.343,0.853,0.515
		c0.272,0.164,0.545,0.328,0.817,0.493c0.289,0.174,0.577,0.348,0.866,0.523c0.252,0.152,0.504,0.304,0.756,0.456
		c0.018,0.011,0.037,0.022,0.054,0.034c0.003,0.002,0.003,0.008,0.003,0.012c0,0.006-0.005,0.007-0.011,0.006
		c-0.007-0.001-0.014,0-0.021,0c-0.565-0.006-1.131-0.013-1.696-0.019c-0.359-0.004-0.717-0.006-1.076-0.01
		c-0.914-0.009-1.829-0.019-2.743-0.029c-0.477-0.005-0.955-0.01-1.432-0.015c-0.456-0.005-0.912-0.01-1.368-0.014
		c-0.368-0.004-0.736-0.007-1.104-0.011c-0.105-0.001-0.092,0.013-0.092-0.09c0-3.048,0-6.096,0-9.144c0-0.884,0-1.767,0.001-2.651
		c0-0.035-0.017-0.078,0.01-0.102C0.73,0.403,0.773,0.417,0.808,0.417C1.314,0.408,1.82,0.401,2.326,0.393
		c0.572-0.009,1.145-0.018,1.717-0.027c0.57-0.009,1.14-0.018,1.71-0.028c0.603-0.01,1.206-0.02,1.81-0.03
		c0.601-0.01,1.202-0.02,1.803-0.03c0.152-0.003,0.304-0.005,0.456-0.008c0.024,0,0.047,0,0.071,0C9.895,0.276,9.898,0.28,9.9,0.285
		z"/>
	<path d="M11.651,12.621c-0.044-0.027-0.088-0.053-0.131-0.081c-0.245-0.158-0.49-0.317-0.736-0.476
		c-0.291-0.188-0.583-0.375-0.874-0.563c-0.271-0.175-0.543-0.35-0.814-0.525c-0.287-0.185-0.575-0.37-0.862-0.555
		c-0.273-0.176-0.547-0.352-0.82-0.528C7.129,9.71,6.843,9.526,6.558,9.342C6.281,9.163,6.003,8.985,5.726,8.806
		c-0.094-0.06-0.187-0.121-0.282-0.181C5.413,8.607,5.389,8.583,5.369,8.552c-0.163-0.245-0.326-0.49-0.49-0.735
		c-0.142-0.213-0.285-0.426-0.427-0.64c-0.137-0.205-0.274-0.41-0.411-0.616C4.007,6.51,3.966,6.463,3.937,6.406
		C3.99,6.336,4.043,6.266,4.095,6.196c0.09-0.12,0.179-0.24,0.269-0.36c0.15-0.199,0.299-0.399,0.449-0.598
		C4.951,5.055,5.09,4.871,5.228,4.686C5.368,4.5,5.507,4.314,5.647,4.128c0.03-0.04,0.061-0.079,0.092-0.118
		C5.76,3.984,5.785,3.963,5.814,3.945c0.239-0.15,0.478-0.3,0.718-0.45c0.01-0.006,0.02-0.012,0.03-0.019
		C6.811,3.319,7.06,3.162,7.309,3.005c0.283-0.178,0.567-0.356,0.85-0.534c0.277-0.174,0.555-0.348,0.832-0.522
		c0.281-0.177,0.563-0.353,0.844-0.53c0.279-0.175,0.559-0.351,0.838-0.526c0.054-0.034,0.108-0.069,0.164-0.101
		c0.096-0.055,0.191-0.05,0.281,0.015c0.097,0.07,0.129,0.195,0.078,0.305c-0.009,0.019-0.021,0.037-0.032,0.055
		c-0.131,0.206-0.263,0.412-0.394,0.618c-0.148,0.232-0.296,0.464-0.444,0.696c-0.138,0.216-0.276,0.432-0.414,0.648
		C9.77,3.352,9.628,3.574,9.486,3.796C9.351,4.008,9.216,4.22,9.08,4.432C8.935,4.66,8.789,4.888,8.644,5.116
		C8.512,5.323,8.381,5.529,8.249,5.735C8.133,5.917,8.017,6.099,7.9,6.281C7.891,6.295,7.883,6.309,7.874,6.323
		c-0.009,0.013-0.01,0.026-0.002,0.04C7.88,6.377,7.889,6.391,7.897,6.405c0.089,0.148,0.178,0.297,0.268,0.445
		C8.308,7.086,8.45,7.322,8.593,7.557C8.732,7.787,8.871,8.016,9.01,8.246C9.15,8.477,9.29,8.708,9.431,8.94
		C9.567,9.165,9.704,9.39,9.84,9.616c0.143,0.235,0.285,0.471,0.428,0.706c0.139,0.229,0.278,0.459,0.417,0.688
		c0.141,0.233,0.283,0.467,0.424,0.7c0.139,0.229,0.278,0.459,0.417,0.688c0.038,0.063,0.078,0.125,0.116,0.188
		C11.648,12.595,11.659,12.603,11.651,12.621z"/>
	<path d="M20.774,0.482c0.032,0.001,0.045,0.016,0.06,0.025c0.231,0.149,0.463,0.299,0.694,0.448
		c0.301,0.194,0.602,0.389,0.904,0.583c0.265,0.171,0.531,0.342,0.796,0.513c0.293,0.189,0.587,0.378,0.88,0.567
		c0.273,0.176,0.547,0.352,0.82,0.528c0.287,0.185,0.575,0.37,0.862,0.555c0.267,0.172,0.535,0.344,0.802,0.517
		c0.132,0.085,0.263,0.17,0.395,0.254c0.03,0.019,0.056,0.042,0.076,0.072c0.122,0.184,0.245,0.367,0.367,0.551
		c0.155,0.233,0.311,0.466,0.466,0.699c0.128,0.192,0.256,0.383,0.384,0.574c0.059,0.089,0.12,0.177,0.179,0.266
		c0.008,0.012,0.015,0.024,0.024,0.036c0.012,0.016,0.01,0.029-0.002,0.045C28.441,6.77,28.4,6.825,28.359,6.88
		c-0.08,0.106-0.161,0.212-0.241,0.318c-0.195,0.26-0.39,0.521-0.585,0.781c-0.138,0.184-0.277,0.368-0.415,0.552
		c-0.134,0.178-0.269,0.356-0.402,0.536c-0.031,0.041-0.069,0.071-0.111,0.098c-0.189,0.119-0.378,0.237-0.567,0.356
		c-0.338,0.212-0.675,0.425-1.013,0.637c-0.277,0.174-0.555,0.348-0.832,0.522c-0.283,0.178-0.567,0.356-0.85,0.534
		c-0.275,0.173-0.551,0.346-0.826,0.518c-0.283,0.178-0.567,0.356-0.85,0.534c-0.026,0.016-0.052,0.033-0.08,0.047
		c-0.1,0.053-0.217,0.036-0.296-0.042c-0.093-0.092-0.087-0.227-0.04-0.302c0.016-0.026,0.032-0.052,0.049-0.079
		c0.094-0.148,0.187-0.297,0.282-0.445c0.147-0.23,0.293-0.46,0.44-0.69c0.135-0.212,0.271-0.424,0.406-0.636
		c0.144-0.226,0.289-0.452,0.433-0.678c0.135-0.212,0.271-0.424,0.406-0.636c0.146-0.228,0.291-0.456,0.437-0.684
		c0.129-0.202,0.258-0.404,0.387-0.606c0.156-0.244,0.311-0.488,0.468-0.732c0.012-0.018,0.015-0.029,0.003-0.05
		c-0.119-0.194-0.236-0.39-0.354-0.585c-0.151-0.25-0.302-0.5-0.453-0.749c-0.128-0.211-0.256-0.422-0.384-0.633
		c-0.153-0.252-0.305-0.503-0.457-0.755c-0.138-0.227-0.275-0.455-0.413-0.682c-0.141-0.233-0.283-0.467-0.424-0.7
		c-0.13-0.215-0.261-0.43-0.392-0.645c-0.151-0.25-0.302-0.5-0.454-0.749C21.08,0.985,20.93,0.738,20.774,0.482z"/>
	<path fill="#666666" d="M16.102,3.163c-0.023-0.033-0.04-0.058-0.057-0.084C15.96,2.953,15.876,2.826,15.791,2.7
		c-0.143-0.213-0.286-0.426-0.429-0.639c-0.088-0.13-0.175-0.26-0.264-0.389c-0.024-0.035-0.036-0.069-0.035-0.112
		c0.002-0.133,0.001-0.266,0.001-0.399c0-0.017,0-0.033,0.001-0.05c0.001-0.017,0.012-0.025,0.028-0.026
		c0.024-0.001,0.048-0.001,0.071-0.001c0.779,0,1.558,0,2.338,0c0.553,0,1.107,0,1.661,0c0.1,0,0.08-0.006,0.128,0.072
		c0.062,0.101,0.122,0.203,0.184,0.305c0.155,0.256,0.309,0.512,0.464,0.768c0.134,0.221,0.268,0.443,0.402,0.664
		c0.142,0.236,0.282,0.473,0.428,0.707c0.137,0.22,0.267,0.443,0.401,0.664c0.14,0.231,0.28,0.463,0.42,0.695
		c0.144,0.238,0.288,0.475,0.432,0.713c0.133,0.219,0.265,0.439,0.398,0.658c0.041,0.068,0.041,0.068,0.003,0.134
		c-0.087,0.152-0.174,0.305-0.261,0.458c-0.08,0.14-0.16,0.28-0.24,0.42c-0.092,0.161-0.183,0.322-0.275,0.483
		c-0.136,0.239-0.273,0.478-0.41,0.717c-0.099,0.173-0.199,0.346-0.298,0.519c-0.125,0.218-0.25,0.437-0.375,0.655
		c-0.096,0.167-0.192,0.333-0.287,0.5c-0.09,0.157-0.178,0.314-0.268,0.47c-0.082,0.144-0.166,0.288-0.248,0.432
		c-0.068,0.12-0.136,0.239-0.205,0.359c-0.095,0.167-0.192,0.333-0.286,0.501c-0.014,0.025-0.03,0.041-0.061,0.037
		c-0.019-0.002-0.038,0-0.057,0c-2.098,0-4.195,0-6.293,0c-0.029,0-0.061,0.009-0.089-0.009c-0.002-0.03,0.015-0.054,0.025-0.081
		c0.121-0.315,0.241-0.629,0.363-0.943c0.037-0.097,0.025-0.093,0.125-0.056c0.393,0.147,0.786,0.295,1.18,0.443
		c0.113,0.043,0.227,0.085,0.34,0.127c0.013,0.005,0.027,0.009,0.04,0.014c0.013,0.005,0.024,0,0.03-0.011
		c0.022-0.036,0.045-0.073,0.065-0.11c0.089-0.162,0.177-0.325,0.267-0.487c0.079-0.144,0.159-0.287,0.238-0.43
		c0.067-0.12,0.133-0.241,0.2-0.362c0.084-0.152,0.168-0.303,0.252-0.455c0.032-0.058,0.064-0.116,0.097-0.174
		c0.006-0.01,0.01-0.022,0.022-0.027c0.017,0.002,0.02,0.017,0.027,0.029c0.12,0.199,0.24,0.398,0.36,0.598
		c0.092,0.152,0.184,0.305,0.275,0.458c0.099,0.165,0.196,0.331,0.295,0.496c0.077,0.128,0.154,0.256,0.232,0.384
		c0.007,0.012,0.015,0.024,0.023,0.036c0.008,0.011,0.018,0.014,0.031,0.009c0.06-0.022,0.121-0.043,0.181-0.065
		c0.253-0.094,0.507-0.189,0.76-0.284c0.238-0.089,0.476-0.178,0.714-0.264c0.039-0.014,0.063-0.034,0.083-0.07
		c0.146-0.272,0.294-0.543,0.442-0.814c0.166-0.304,0.331-0.609,0.497-0.913c0.129-0.238,0.258-0.476,0.387-0.713
		c0.125-0.229,0.251-0.458,0.376-0.687c0.106-0.194,0.21-0.388,0.316-0.582c0.11-0.202,0.221-0.404,0.331-0.606
		c0.043-0.08,0.041-0.08-0.004-0.16c-0.102-0.18-0.202-0.36-0.303-0.54c-0.088-0.157-0.177-0.314-0.265-0.472
		c-0.065-0.116-0.129-0.232-0.194-0.348c-0.074-0.132-0.15-0.264-0.224-0.397c-0.053-0.095-0.106-0.191-0.159-0.286
		c-0.095-0.17-0.19-0.339-0.286-0.509c-0.082-0.147-0.164-0.294-0.247-0.441c-0.075-0.135-0.151-0.269-0.226-0.404
		c-0.085-0.151-0.169-0.303-0.253-0.454c-0.02-0.035-0.04-0.07-0.059-0.106c-0.021-0.039-0.051-0.065-0.094-0.081
		c-0.136-0.05-0.27-0.104-0.405-0.157c-0.38-0.148-0.76-0.297-1.141-0.445c-0.062-0.024-0.124-0.048-0.186-0.072
		c-0.037-0.014-0.039-0.014-0.064,0.021c-0.061,0.085-0.122,0.17-0.184,0.254c-0.141,0.194-0.282,0.388-0.423,0.582
		c-0.135,0.186-0.27,0.373-0.406,0.559C16.183,3.059,16.145,3.107,16.102,3.163z"/>
	<path fill="#FFFFDA" d="M11.559,3.121c0.004-0.009,0.007-0.017,0.012-0.025c0.127-0.22,0.253-0.44,0.38-0.66
		c0.126-0.218,0.253-0.434,0.38-0.652c0.154-0.264,0.308-0.529,0.462-0.793c0.019-0.033,0.04-0.064,0.06-0.097
		c0.008-0.014,0.019-0.02,0.035-0.02c0.017,0,0.033,0,0.05,0c0.605,0,1.211,0,1.816,0c0.014,0,0.028,0,0.043,0
		c0.036,0.001,0.04,0.004,0.04,0.042c0,0.209,0,0.418,0,0.627c0,0.093-0.001,0.185,0,0.278c0,0.028-0.01,0.042-0.037,0.051
		c-0.194,0.069-0.388,0.14-0.582,0.209c-0.37,0.133-0.741,0.266-1.111,0.399c-0.013,0.005-0.027,0.011-0.04,0.014
		c-0.027,0.007-0.046,0.022-0.058,0.048c-0.011,0.024-0.025,0.046-0.038,0.069c-0.093,0.165-0.186,0.331-0.279,0.496
		c-0.006,0.01-0.013,0.019-0.02,0.029c-0.049,0.035-0.106,0.037-0.163,0.037c-0.196,0-0.392,0-0.588,0
		c-0.09,0-0.179-0.001-0.269,0.008C11.612,3.185,11.554,3.195,11.559,3.121z"/>
	<path fill="#FFFFB5" d="M11.559,3.121c0.002,0.012,0.006,0.022,0.017,0.029c0.026,0.017,0.055,0.02,0.082,0.011
		c0.037-0.012,0.075-0.011,0.112-0.011c0.237,0,0.474,0,0.71,0c0.047,0,0.094,0.004,0.14-0.012c0.015-0.005,0.033-0.002,0.049-0.002
		c-0.002,0.02-0.015,0.034-0.024,0.051c-0.073,0.133-0.146,0.265-0.22,0.397C12.285,3.838,12.143,4.092,12,4.345
		c-0.046,0.082-0.095,0.163-0.143,0.245c-0.004,0.006-0.008,0.01-0.01,0.017c0.001,0.005,0,0.009-0.005,0.011
		c-0.003,0.005-0.006,0.01-0.01,0.015l0-0.001c-0.01,0.007-0.007,0.02-0.015,0.028l0,0c-0.008,0.007-0.005,0.02-0.015,0.027
		l-0.001,0.001c-0.005,0.006-0.01,0.011-0.011,0.019c0.002,0.005,0,0.008-0.004,0.01c-0.004,0.006-0.008,0.011-0.01,0.017
		c0.001,0.005,0,0.009-0.005,0.011c-0.003,0.005-0.006,0.01-0.01,0.015l0-0.001c-0.01,0.007-0.007,0.02-0.015,0.028l0,0
		C11.737,4.797,11.74,4.81,11.73,4.817l0,0.001c-0.005,0.006-0.01,0.012-0.011,0.02c0.002,0.005,0,0.008-0.004,0.009
		c-0.004,0.006-0.008,0.011-0.01,0.017c0.001,0.005,0,0.009-0.005,0.011c-0.003,0.005-0.006,0.01-0.01,0.015l0-0.001
		c-0.01,0.007-0.007,0.02-0.015,0.028l0,0C11.63,4.942,11.582,4.94,11.535,4.94c-0.213,0.001-0.426,0.001-0.638,0
		c-0.095,0-0.188,0.025-0.283,0.013c-0.039-0.005-0.092,0-0.082-0.067c-0.001-0.005,0-0.009,0.005-0.011
		c0.003-0.005,0.007-0.01,0.01-0.015l0,0.001c0.011-0.006,0.007-0.02,0.016-0.027l0-0.001c0.006-0.005,0.011-0.011,0.012-0.02
		c-0.001-0.004,0-0.007,0.005-0.009c0.004-0.005,0.009-0.01,0.011-0.017c-0.001-0.005,0.001-0.009,0.005-0.011
		c0.003-0.005,0.006-0.01,0.01-0.015l0,0c0.01-0.006,0.007-0.02,0.015-0.027l0-0.001c0.005-0.005,0.011-0.011,0.011-0.019
		c-0.001-0.005,0-0.008,0.005-0.01c0.004-0.005,0.007-0.011,0.01-0.017c-0.001-0.005,0.001-0.009,0.006-0.012
		c0.003-0.005,0.006-0.01,0.01-0.014l0,0c0.009-0.006,0.006-0.02,0.015-0.026l0.001-0.001c0.005-0.005,0.01-0.011,0.011-0.019
		c-0.001-0.005,0-0.009,0.005-0.011c0.004-0.005,0.007-0.01,0.01-0.016c0.002-0.004,0.004-0.009,0.006-0.013
		c0.002-0.005,0.005-0.009,0.01-0.012l0.001-0.001c0.004-0.005,0.009-0.01,0.012-0.017c0.002-0.004,0.004-0.008,0.006-0.013
		c0.002-0.005,0.005-0.009,0.009-0.013l0-0.001c0.009-0.006,0.006-0.02,0.015-0.026l0.001-0.002c0.005-0.005,0.01-0.011,0.011-0.018
		c-0.001-0.005,0.001-0.009,0.005-0.011c0.003-0.005,0.007-0.01,0.01-0.015c0.002-0.005,0.004-0.009,0.006-0.014
		c0.002-0.005,0.005-0.009,0.009-0.013l0.001-0.001c0.006-0.005,0.011-0.011,0.011-0.019c0.008-0.017,0.016-0.034,0.025-0.051
		c0.085-0.148,0.17-0.296,0.256-0.444c0.144-0.248,0.289-0.496,0.433-0.744C11.538,3.146,11.543,3.129,11.559,3.121z"/>
	<path fill="#FFFF90" d="M10.532,4.885c0.004,0.032,0.028,0.045,0.055,0.045c0.066,0,0.132,0.01,0.197-0.008
		c0.022-0.006,0.047-0.005,0.07-0.005c0.225,0,0.449,0,0.674,0c0.038,0,0.075,0.005,0.112-0.009
		c0.009-0.003,0.022,0.006,0.033,0.009c-0.026,0.066-0.065,0.126-0.1,0.188c-0.062,0.112-0.126,0.223-0.189,0.335
		c-0.075,0.135-0.15,0.27-0.225,0.404c-0.114,0.203-0.228,0.406-0.342,0.608c-0.006,0.01-0.011,0.021-0.017,0.031
		c-0.015,0.022-0.019,0.043-0.002,0.066c0.004,0.005,0.004,0.013,0.006,0.02c-0.001,0.048-0.039,0.049-0.071,0.051
		c-0.335,0.023-0.67,0.016-1.006,0.015c-0.024,0-0.047-0.006-0.066-0.021c-0.003-0.003-0.008-0.006-0.01-0.01
		c-0.02-0.035-0.039-0.07-0.058-0.105C9.603,6.459,9.63,6.428,9.65,6.393c0.205-0.355,0.411-0.709,0.617-1.064
		c0.081-0.139,0.163-0.278,0.244-0.417C10.517,4.903,10.525,4.894,10.532,4.885z"/>
	<path fill="#FFFF6E" d="M9.663,6.614c0.263,0,0.525,0,0.788-0.001c0.038,0,0.075,0.003,0.112-0.011
		C10.58,6.597,10.6,6.6,10.619,6.6c0.045,0,0.09-0.001,0.135,0c0.024,0,0.041-0.008,0.051-0.03c0.016,0.012,0.021,0.031,0.03,0.047
		c0.089,0.164,0.178,0.329,0.267,0.493c0.082,0.152,0.166,0.303,0.248,0.455c0.01,0.018,0.024,0.035,0.027,0.057
		c0.001,0.007,0.006,0.012,0.01,0.017c0.005,0.002,0.006,0.005,0.005,0.01c0,0.008,0.006,0.014,0.011,0.019l0.001,0.002
		c0.006,0.001,0.008,0.005,0.007,0.01c0.003,0.006,0.005,0.011,0.008,0.017c0.004,0.003,0.007,0.007,0.008,0.012
		c0.002,0.005,0.004,0.01,0.007,0.015c0.004,0.004,0.007,0.008,0.009,0.013c0.002,0.005,0.004,0.009,0.006,0.014
		c0.003,0.005,0.006,0.01,0.009,0.015c0.005,0.003,0.006,0.007,0.005,0.012c0.003,0.006,0.006,0.011,0.01,0.016
		c0.005,0.002,0.006,0.006,0.005,0.011c0.001,0.007,0.006,0.012,0.01,0.018c0.004,0.002,0.006,0.005,0.004,0.01
		c0,0.008,0.006,0.014,0.011,0.02l0.001,0.001c0.009,0.007,0.006,0.02,0.014,0.027l0,0.001c0.008,0.007,0.005,0.021,0.015,0.027l0,0
		c0.004,0.004,0.007,0.009,0.009,0.014c0.002,0.004,0.004,0.008,0.006,0.012c0.002,0.007,0.007,0.012,0.012,0.017l0.001,0.001
		c0.009,0.007,0.006,0.02,0.015,0.027l0,0c0.008,0.008,0.005,0.021,0.015,0.028l0,0c0.004,0.004,0.007,0.009,0.009,0.014
		c0.002,0.004,0.003,0.008,0.005,0.012c0.003,0.005,0.006,0.011,0.01,0.016c0.005,0.002,0.006,0.006,0.005,0.011
		c0.002,0.007,0.006,0.012,0.01,0.017c0.004,0.002,0.006,0.005,0.004,0.01c0.001,0.008,0.006,0.013,0.011,0.019
		c0.004,0.001,0.006,0.004,0.004,0.008c0,0.009,0.006,0.015,0.011,0.021l0,0.001c0.009,0.007,0.006,0.02,0.015,0.027l0,0
		c0.014,0.049-0.022,0.057-0.054,0.062c-0.063,0.008-0.126,0.019-0.191,0.018c-0.239-0.001-0.478,0-0.718,0
		c-0.038,0-0.076,0.003-0.11-0.02l0.001,0.001c0-0.009-0.006-0.013-0.011-0.018l0,0c-0.009-0.007-0.006-0.021-0.016-0.027l0,0.001
		c-0.004-0.005-0.007-0.01-0.01-0.015c-0.005-0.002-0.006-0.006-0.005-0.01c-0.002-0.007-0.007-0.013-0.011-0.018l-0.004-0.003
		l0-0.005c0-0.009-0.006-0.015-0.012-0.021l0,0c-0.008-0.008-0.005-0.022-0.016-0.028l0.001,0.001
		c-0.003-0.005-0.007-0.01-0.01-0.016c-0.005-0.002-0.006-0.005-0.005-0.01c-0.001-0.008-0.007-0.013-0.011-0.019l-0.001-0.001
		c-0.009-0.007-0.006-0.02-0.015-0.027l0,0c-0.004-0.004-0.007-0.009-0.01-0.014c-0.005-0.003-0.007-0.007-0.005-0.012
		c-0.003-0.006-0.007-0.011-0.01-0.017c-0.004-0.002-0.006-0.005-0.005-0.009c-0.001-0.008-0.006-0.014-0.012-0.02l0-0.001
		c-0.009-0.007-0.006-0.021-0.015-0.027l0,0c-0.004-0.004-0.007-0.009-0.01-0.014c-0.049-0.081-0.099-0.161-0.147-0.243
		c-0.114-0.197-0.227-0.394-0.342-0.591C9.846,6.935,9.769,6.807,9.694,6.677C9.683,6.657,9.666,6.639,9.663,6.614z"/>
	<path fill="#FFFF4B" d="M10.601,8.228c0.028-0.001,0.057-0.003,0.085-0.003c0.253,0,0.506,0,0.759,0c0.033,0,0.065,0,0.098-0.01
		c0.026-0.008,0.056-0.004,0.085-0.004c0.028-0.001,0.044-0.014,0.046-0.043c0.019,0.016,0.026,0.039,0.037,0.06
		c0.077,0.141,0.153,0.283,0.229,0.425c0.143,0.264,0.287,0.528,0.43,0.792c0.054,0.1,0.109,0.199,0.164,0.298
		c0.009,0.016,0.021,0.031,0.023,0.051c0.015,0.04-0.013,0.051-0.041,0.059c-0.028,0.008-0.056,0.006-0.085,0.006
		c-0.278,0.003-0.555-0.005-0.833,0.005c-0.02,0.001-0.038-0.002-0.054-0.013c-0.019-0.016-0.027-0.039-0.039-0.059
		c-0.111-0.191-0.22-0.382-0.331-0.573c-0.144-0.248-0.289-0.496-0.433-0.744c-0.039-0.068-0.08-0.134-0.12-0.202
		C10.614,8.258,10.608,8.243,10.601,8.228z"/>
	<path fill="#FFFF1D" d="M16.01,7.615c0.002,0.03-0.012,0.055-0.021,0.082c-0.087,0.241-0.252,0.414-0.472,0.538
		c-0.142,0.08-0.295,0.129-0.454,0.16c-0.204,0.039-0.409,0.049-0.616,0.034c-0.157-0.011-0.311-0.033-0.462-0.076
		c-0.122-0.035-0.236-0.086-0.342-0.154c-0.182-0.118-0.306-0.281-0.371-0.487c-0.001-0.004,0-0.009,0-0.014
		c0.03-0.026,0.066-0.022,0.101-0.022c0.144-0.001,0.288,0,0.432,0c0.16-0.001,0.32-0.013,0.48-0.023
		c0.037-0.013,0.069,0.005,0.103,0.014c0.163,0.043,0.326,0.044,0.489,0c0.044-0.012,0.084-0.031,0.122-0.055
		c0.024-0.016,0.049-0.029,0.08-0.024c0.274,0.014,0.547-0.008,0.82-0.011C15.938,7.576,15.985,7.565,16.01,7.615z"/>
	<path fill="#FFFF62" d="M16.29,7.095c0.003-0.011,0.004-0.023,0.008-0.034c0.043-0.115,0.087-0.231,0.131-0.346
		c0.004-0.011,0.011-0.021,0.016-0.031c0.024-0.017,0.052-0.021,0.081-0.021c0.246-0.001,0.491,0,0.737-0.001
		c0.014,0,0.028,0.002,0.041,0.009c-0.014,0.063-0.043,0.12-0.064,0.18c-0.016,0.045-0.033,0.088-0.049,0.133
		c-0.006,0.018,0.001,0.026,0.019,0.027c0.012,0.001,0.024,0,0.035,0c0.187,0,0.374,0,0.561,0c0.014,0,0.028,0,0.043-0.001
		c0.013-0.001,0.022-0.007,0.023-0.021c0.001-0.017,0.001-0.033,0.001-0.05c0-0.104,0-0.208,0-0.312
		c0-0.024,0.002-0.047,0.003-0.071c0.016-0.013,0.035-0.011,0.054-0.011c0.207,0.005,0.415,0.001,0.622,0.003
		c0.037,0,0.076-0.004,0.108,0.023c0.001,0.024,0.004,0.047,0.004,0.071c0,0.097,0,0.195,0,0.292c0,0.017,0,0.033,0,0.05
		C18.665,7,18.672,7.011,18.69,7.011c0.019,0,0.038,0,0.057,0c0.078,0,0.157,0,0.235,0c0.031,0,0.035,0.003,0.034,0.031
		c0,0.071-0.002,0.142-0.003,0.213c-0.018,0.042-0.054,0.05-0.094,0.05c-0.166,0.001-0.332,0.019-0.498,0.016
		c-0.491-0.008-0.983,0.017-1.474,0.017c-0.18,0-0.36,0.009-0.541,0.01c-0.12,0.001-0.12,0-0.121-0.122
		c0-0.014,0.001-0.029-0.004-0.042c-0.004-0.025-0.006-0.049,0.002-0.074C16.285,7.106,16.288,7.101,16.29,7.095z"/>
	<path fill="#FFFF29" d="M11.545,9.85c0.072-0.018,0.145-0.014,0.219-0.014c0.232,0,0.465,0,0.697,0c0.019,0,0.038,0,0.057-0.001
		c0.026-0.002,0.038-0.017,0.04-0.042c0.017,0.014,0.024,0.035,0.034,0.054c0.067,0.123,0.133,0.247,0.2,0.37
		c0.071,0.131,0.142,0.263,0.216,0.393c0.023,0.041,0.027,0.075,0.009,0.119c-0.062,0.154-0.118,0.31-0.178,0.465
		c-0.062,0.162-0.126,0.323-0.189,0.484c-0.004,0.01-0.009,0.021-0.013,0.03c-0.017-0.001-0.021-0.013-0.027-0.023
		c-0.024-0.041-0.047-0.082-0.071-0.123c-0.179-0.308-0.358-0.615-0.537-0.923c-0.14-0.24-0.279-0.48-0.419-0.72
		C11.57,9.895,11.558,9.873,11.545,9.85z"/>
	<path fill="#FFFFD0" d="M13.298,5.372c0-0.063,0.022-0.121,0.044-0.178c0.039-0.102,0.091-0.197,0.171-0.274
		c0.041,0.015,0.083,0.018,0.126,0.018c0.211-0.001,0.423,0.01,0.634-0.003c0.318-0.018,0.637,0.001,0.954-0.015
		c0.171-0.009,0.342,0.001,0.512-0.021c0.022,0.007,0.033,0.026,0.047,0.042c0.122,0.145,0.192,0.311,0.21,0.5
		c0.008,0.087,0.01,0.174-0.003,0.261c-0.011,0.01-0.023,0.018-0.038,0.018c-0.262,0.014-0.524,0.032-0.786,0.011
		c-0.033-0.013-0.034-0.043-0.036-0.071c-0.028-0.286-0.162-0.394-0.438-0.418c-0.199-0.017-0.385,0.025-0.499,0.217
		c-0.009,0.014-0.02,0.027-0.034,0.036c-0.035,0.019-0.074,0.016-0.111,0.016c-0.208,0.005-0.417-0.008-0.625,0.012
		C13.3,5.534,13.28,5.505,13.298,5.372z"/>
	<path fill="#FFFF8F" d="M15.15,5.716c0.175,0,0.35,0,0.525,0c0.009,0,0.019,0.002,0.028-0.001c0.096-0.025,0.193-0.009,0.289-0.014
		c0.001,0.222-0.074,0.411-0.239,0.563c-0.052,0.048-0.106,0.094-0.161,0.143c0.034,0.038,0.083,0.056,0.114,0.094
		c-0.011,0.058-0.058,0.048-0.096,0.048c-0.15,0.003-0.299-0.004-0.449,0.002c-0.368,0.017-0.736,0.008-1.103,0.016
		c-0.128,0.003-0.256,0.012-0.384,0.011c-0.024,0-0.048,0.001-0.071-0.008c-0.032-0.012-0.049-0.03-0.024-0.064
		c0.027-0.039,0.071-0.06,0.103-0.093c-0.002-0.022-0.019-0.027-0.031-0.037c-0.086-0.07-0.165-0.148-0.227-0.24
		c-0.029-0.043-0.059-0.085-0.07-0.137c0.032-0.029,0.072-0.022,0.109-0.021c0.218,0.004,0.437-0.005,0.655-0.015
		c0.026-0.001,0.052-0.004,0.077-0.01c0.045-0.008,0.072,0.024,0.094,0.052c0.059,0.073,0.134,0.098,0.226,0.091
		c0.078-0.006,0.156-0.001,0.234-0.001c0.163,0,0.272-0.073,0.333-0.223c0.014-0.035,0.025-0.071,0.033-0.109
		C15.122,5.745,15.12,5.719,15.15,5.716z"/>
	<path fill="#FFFF31" d="M16.281,7.185c0.011,0.011,0.011,0.025,0.011,0.04c0,0.024,0,0.047,0.001,0.071
		c0.001,0.021,0.009,0.028,0.032,0.03c0.012,0.001,0.024,0.001,0.036,0.001c0.147,0,0.294,0,0.441,0
		c0.012,0,0.025,0.002,0.035-0.001c0.06-0.02,0.122-0.013,0.183-0.013c0.232-0.001,0.465,0,0.697,0c0.033,0,0.066,0.001,0.098-0.01
		c0.022-0.007,0.047-0.004,0.071-0.004c0.249,0,0.498,0,0.747,0c0.038,0,0.075,0.003,0.112-0.011
		c0.015-0.006,0.033-0.003,0.049-0.003c0.043,0,0.085-0.002,0.128,0c0.035,0.002,0.065-0.006,0.092-0.029
		c0.001,0.045,0.003,0.09,0.003,0.135c0,0.088,0.001,0.176,0,0.263c-0.001,0.103,0.016,0.087-0.092,0.088
		c-0.059,0.001-0.119,0-0.178,0c-0.014,0-0.028,0-0.043,0c-0.037,0.001-0.039,0.003-0.041,0.041
		c-0.002,0.047,0.005,0.095-0.004,0.142c-0.019,0.016-0.042,0.021-0.066,0.022c-0.213,0.006-0.425,0.023-0.639,0.015
		c-0.028-0.001-0.057-0.001-0.08-0.022c-0.001-0.054-0.002-0.109-0.004-0.163c-0.001-0.029-0.005-0.033-0.033-0.034
		c-0.019-0.001-0.038,0-0.057,0c-0.475,0-0.95,0-1.424,0c-0.09,0-0.079,0.01-0.079-0.08c-0.001-0.138,0-0.275,0-0.413
		C16.278,7.228,16.28,7.207,16.281,7.185z"/>
	<path fill="#FFFF66" d="M13.581,6.508c0.001,0.011-0.008,0.023,0,0.034c0.009,0.013,0.024,0.014,0.038,0.014
		c0.081,0,0.162,0.001,0.242,0c0.047,0,0.094,0.004,0.141-0.011c0.019-0.006,0.042-0.003,0.064-0.003c0.259,0,0.518,0,0.777,0
		c0.031,0,0.061,0,0.091-0.01c0.022-0.007,0.047-0.004,0.071-0.004c0.202,0,0.404,0,0.606,0c0.019,0,0.038,0,0.057-0.001
		c0.018-0.001,0.031-0.011,0.039-0.026c0.109,0.075,0.191,0.172,0.245,0.292c0,0.008,0.005,0.013,0.01,0.019
		c0.004,0.002,0.006,0.006,0.004,0.011c0,0.007,0.006,0.012,0.009,0.018c0.001,0.004,0.003,0.009,0.004,0.013
		c0.003,0.005,0.006,0.01,0.008,0.015c0.002,0.008,0.005,0.016,0.007,0.025c0,0.007,0.006,0.012,0.008,0.018
		c0.002,0.008,0.004,0.016,0.006,0.025c0.004,0.011,0.004,0.023,0.01,0.033c0.001,0.007,0.003,0.015,0.004,0.022
		c0.012,0.04-0.01,0.057-0.044,0.066c-0.011,0.003-0.023,0.005-0.035,0.004c-0.232-0.008-0.463,0.016-0.695,0.015
		c-0.014,0-0.028-0.001-0.042-0.004c-0.008-0.002-0.015-0.005-0.022-0.008c-0.013-0.009-0.018-0.022-0.023-0.036
		c-0.003-0.006-0.005-0.012-0.007-0.018c-0.003-0.005-0.005-0.011-0.008-0.016c-0.003-0.005-0.006-0.01-0.01-0.015
		c-0.008-0.01-0.018-0.018-0.028-0.026c-0.09-0.103-0.197-0.165-0.341-0.152c-0.082,0.008-0.166,0.007-0.248,0
		c-0.173-0.014-0.296,0.061-0.386,0.201c-0.006,0.008-0.012,0.015-0.017,0.023c-0.003,0.005-0.006,0.01-0.009,0.015
		c-0.006,0.01-0.01,0.022-0.013,0.033c-0.001,0.006-0.003,0.012-0.006,0.019c-0.006,0.016-0.011,0.034-0.028,0.044
		c-0.007,0.004-0.015,0.006-0.023,0.008c-0.232,0.02-0.464,0.022-0.696,0.016c-0.04-0.001-0.103,0.015-0.1-0.063l0,0
		c0.013-0.014,0.004-0.033,0.012-0.048c0.002-0.008,0.003-0.016,0.005-0.024c0.006-0.009,0.005-0.021,0.01-0.031
		c0.002-0.009,0.004-0.018,0.007-0.027c0.003-0.005,0.005-0.011,0.007-0.017c0.001-0.029,0.016-0.054,0.028-0.079
		C13.374,6.732,13.462,6.609,13.581,6.508z"/>
	<path fill="#FFFFE0" d="M16.917,5.441c0.018-0.074,0.05-0.143,0.076-0.214c0.065-0.173,0.132-0.345,0.198-0.518
		c0.013-0.033,0.027-0.066,0.038-0.1c0.008-0.025,0.023-0.034,0.047-0.031c0.002,0,0.005,0,0.007,0c0.266,0,0.532,0,0.797,0
		c0.005,0,0.009,0.001,0.014,0.002c0.012,0.014,0.002,0.026-0.003,0.039c-0.075,0.197-0.149,0.395-0.224,0.592
		c-0.034,0.088-0.071,0.175-0.107,0.263c-0.065,0.016-0.132,0.018-0.197,0.02c-0.19,0.006-0.38,0.004-0.57,0.001
		C16.96,5.494,16.908,5.506,16.917,5.441z"/>
	<path fill="#FFFFF4" d="M15.739,4.899c-0.02,0.029-0.05,0.033-0.082,0.033c-0.085,0-0.171,0-0.256,0
		c-0.035,0-0.07-0.001-0.105,0.01c-0.022,0.007-0.047,0.004-0.071,0.004c-0.254,0-0.507,0-0.761,0c-0.031,0-0.061-0.001-0.091,0.009
		c-0.017,0.006-0.037,0.005-0.056,0.005c-0.247,0-0.493,0-0.74,0c-0.009,0-0.019,0-0.028,0c-0.028-0.002-0.028-0.002-0.036-0.04
		c0.037-0.053,0.087-0.093,0.138-0.131c0.16-0.12,0.341-0.196,0.536-0.237c0.33-0.07,0.66-0.066,0.986,0.024
		c0.154,0.042,0.3,0.105,0.429,0.201C15.652,4.813,15.702,4.849,15.739,4.899z"/>
	<path fill="#FFFFA6" d="M16.917,5.441c0.004,0.017,0.011,0.032,0.031,0.032c0.017,0.001,0.033,0.001,0.05,0.001
		c0.18,0,0.359,0,0.539,0c0.031,0,0.06-0.003,0.091-0.009c0.043-0.009,0.089-0.013,0.132,0.009c0.002,0.02-0.009,0.037-0.016,0.054
		c-0.075,0.2-0.151,0.399-0.227,0.599c-0.004,0.011-0.01,0.021-0.016,0.032c-0.06,0.036-0.128,0.034-0.193,0.035
		c-0.192,0.005-0.384,0.003-0.575,0.001c-0.032,0-0.073,0.01-0.086-0.038c0.003-0.011,0.004-0.023,0.008-0.034
		c0.08-0.213,0.159-0.425,0.24-0.637C16.901,5.469,16.903,5.452,16.917,5.441z"/>
	<path fill="#FFFF44" d="M13.242,7.098c0.002,0.027,0.023,0.035,0.043,0.04c0.018,0.004,0.038,0.003,0.056,0.003
		c0.135,0,0.27,0,0.405,0c0.042,0,0.084-0.005,0.126-0.01c0.065-0.008,0.132-0.002,0.198-0.001c0.019,0.022,0.016,0.049,0.016,0.074
		c-0.001,0.116,0.027,0.224,0.087,0.323c0.003,0.006,0.006,0.012,0.009,0.017c0.002,0.003,0.003,0.005,0.004,0.008
		c0.003,0.005,0.006,0.01,0.01,0.014c0.002,0.002,0.003,0.004,0.005,0.007c0.004,0.004,0.007,0.008,0.011,0.012
		c0.002,0.002,0.003,0.004,0.005,0.006c0.004,0.003,0.007,0.007,0.011,0.01c0.002,0.001,0.004,0.003,0.006,0.005
		c0.004,0.002,0.008,0.005,0.013,0.008c0.004,0.002,0.009,0.005,0.013,0.008c0.004,0.003,0.008,0.006,0.012,0.009
		c0.002,0.001,0.004,0.003,0.006,0.005c0.004,0.003,0.008,0.006,0.012,0.009c0.004,0.003,0.007,0.008,0.008,0.012
		c-0.003,0.012-0.008,0.023-0.021,0.025c-0.014,0.002-0.028,0.001-0.042,0.001c-0.05,0-0.099,0-0.149,0
		c-0.033,0-0.065-0.001-0.098,0.01c-0.022,0.007-0.047,0.004-0.07,0.004c-0.215,0-0.43,0-0.645,0c0,0-0.004-0.004-0.004-0.004
		l0.001-0.005c-0.004-0.011-0.004-0.024-0.01-0.034c-0.001-0.005-0.002-0.009-0.002-0.014c-0.011-0.012-0.002-0.03-0.011-0.043
		c-0.001-0.005-0.002-0.009-0.003-0.014c-0.007-0.008-0.006-0.019-0.009-0.028c-0.029-0.144-0.024-0.288-0.002-0.433
		C13.232,7.115,13.238,7.107,13.242,7.098z"/>
	<path fill="#FFFF4B" d="M15.183,7.056c0.073,0,0.146,0,0.22,0c0.035,0,0.07,0.002,0.105-0.01c0.019-0.007,0.042-0.003,0.063-0.004
		c0.116,0,0.231,0,0.347,0c0.017,0,0.033-0.001,0.05,0c0.035,0.001,0.053-0.015,0.056-0.049c0.017,0.022,0.015,0.049,0.019,0.074
		c0.026,0.164,0.021,0.328-0.014,0.491c-0.002,0.009-0.006,0.018-0.009,0.027c-0.006,0.009-0.006,0.021-0.01,0.031c0,0,0,0,0,0
		c-0.02-0.014-0.043-0.018-0.067-0.018c-0.081,0.001-0.161,0-0.242,0c-0.005,0-0.01-0.001-0.014,0
		c-0.11,0.026-0.221,0.01-0.332,0.013c-0.08,0.002-0.161,0-0.242,0c-0.019,0-0.038,0-0.049-0.02c-0.001-0.017,0.01-0.028,0.02-0.04
		c0.004-0.005,0.008-0.009,0.012-0.013c0.002-0.002,0.004-0.004,0.006-0.007c0.003-0.005,0.007-0.01,0.01-0.014
		c0.007-0.01,0.013-0.021,0.018-0.032c0.004-0.009,0.007-0.019,0.01-0.028c0.036-0.114,0.065-0.228,0.035-0.349
		C15.169,7.091,15.165,7.071,15.183,7.056z"/>
	<path fill="#FFFF84" d="M16.647,6.156c0.011,0.016,0.028,0.016,0.044,0.016c0.04,0,0.081,0,0.121,0c0.159,0,0.318,0,0.477,0
		c0.033,0,0.065-0.002,0.098-0.01c0.036-0.008,0.075-0.004,0.113-0.005c-0.018,0.051-0.035,0.103-0.055,0.153
		c-0.034,0.088-0.069,0.176-0.103,0.264C17.34,6.584,17.335,6.592,17.331,6.6c-0.007,0.008-0.004,0.02-0.012,0.028l0,0
		c-0.01,0.009-0.008,0.022-0.013,0.033c0.002,0.004,0.001,0.007-0.003,0.009c-0.019,0.011-0.039,0.014-0.061,0.014
		c-0.266-0.001-0.532-0.001-0.797-0.002c0.002-0.004,0.003-0.009,0.005-0.013c0.009-0.009,0.006-0.022,0.012-0.032
		c-0.002-0.005-0.001-0.009,0.003-0.012c0.007-0.008,0.004-0.021,0.012-0.029c0.001-0.005,0.003-0.009,0.004-0.014
		c0.003-0.006,0.009-0.011,0.009-0.019c-0.002-0.004-0.001-0.007,0.003-0.01c0.009-0.008,0.006-0.021,0.012-0.031
		c-0.002-0.005-0.001-0.009,0.004-0.013c0.007-0.008,0.004-0.02,0.011-0.028c0.008-0.045,0.028-0.085,0.044-0.127
		C16.59,6.29,16.619,6.223,16.647,6.156z"/>
	<path fill="#FEFEAF" d="M14.213,5.954c-0.011,0.025-0.031,0.034-0.057,0.033c-0.047-0.001-0.095,0-0.142,0
		c-0.017,0-0.034-0.003-0.049,0.002c-0.058,0.019-0.117,0.012-0.176,0.012c-0.144,0.001-0.289,0-0.433,0c0,0,0,0,0,0
		c-0.009-0.007-0.006-0.019-0.012-0.028C13.34,5.97,13.339,5.965,13.341,5.96c-0.007-0.009-0.005-0.021-0.011-0.03
		c-0.027-0.061-0.034-0.128-0.041-0.193c-0.011-0.103-0.012-0.207-0.003-0.311c0.002-0.019,0-0.038,0.012-0.054
		c0.001,0.028,0.001,0.057,0.002,0.085c0,0.019,0.011,0.031,0.028,0.037c0.011,0.004,0.023,0.008,0.034,0.008
		c0.045-0.001,0.089,0.006,0.134-0.009c0.019-0.007,0.042-0.004,0.063-0.004c0.175,0,0.35,0,0.525,0
		c0.028,0,0.057,0.003,0.082-0.014c0.012,0.011,0.014,0.025,0.01,0.039c-0.024,0.084-0.012,0.169-0.016,0.254
		c0,0.017-0.002,0.033,0.002,0.05c0.002,0.006,0.003,0.011,0.004,0.017c0.002,0.008,0.004,0.016,0.006,0.024
		c0.002,0.005,0.004,0.01,0.005,0.014c0.003,0.007,0.006,0.014,0.009,0.02c0.002,0.004,0.004,0.008,0.006,0.013
		c0.002,0.004,0.004,0.008,0.007,0.012c0.003,0.004,0.005,0.008,0.008,0.012c0.003,0.004,0.006,0.008,0.008,0.012
		C14.217,5.945,14.217,5.95,14.213,5.954z"/>
	<path fill="#FFFF91" d="M18.66,6.571c-0.224,0-0.449,0-0.673,0c-0.038,0-0.075-0.002-0.111-0.015
		c-0.001-0.057-0.003-0.114-0.003-0.17c-0.001-0.109,0-0.218,0-0.327c0-0.031,0.002-0.031,0.033-0.032c0.012,0,0.024,0,0.036,0
		c0.218,0,0.436,0,0.655,0c0.017,0,0.033,0,0.05,0.001c0.01,0.001,0.017,0.006,0.018,0.017c0.001,0.009,0.001,0.019,0.001,0.028
		c0,0.157,0,0.313-0.001,0.47C18.663,6.553,18.661,6.562,18.66,6.571z"/>
	<path fill="#FFFF0E" d="M17.875,7.94c0.135,0,0.269,0,0.404,0c0.042,0,0.085,0.004,0.126-0.011
		c0.015-0.005,0.033-0.003,0.049-0.003c0.068,0,0.137,0,0.205,0c0.001,0.024,0.004,0.047,0.004,0.071c0,0.119,0,0.237,0,0.356
		c0,0.012,0,0.024-0.001,0.036c0,0.014-0.007,0.022-0.021,0.022c-0.014,0-0.028,0.001-0.043,0.001c-0.221,0-0.442,0-0.663,0
		c-0.014,0-0.028,0-0.043-0.001c-0.014,0-0.021-0.009-0.021-0.022c0-0.007-0.001-0.014-0.001-0.021c0-0.135,0-0.271,0-0.406
		C17.872,7.954,17.874,7.947,17.875,7.94z"/>
	<path fill="#A3A49B" d="M19.625,1.271c-0.004-0.003-0.008-0.005-0.011-0.009c-0.072-0.117-0.144-0.234-0.216-0.351
		c-0.005-0.008-0.008-0.017-0.011-0.026c-0.001-0.003,0.004-0.008,0.006-0.011c0.001-0.001,0.005,0,0.007,0.001
		c0.005,0.004,0.012,0.008,0.015,0.014c0.071,0.12,0.141,0.241,0.212,0.362c0.002,0.004,0.002,0.009,0.003,0.014
		C19.629,1.267,19.627,1.269,19.625,1.271z"/>
	<path fill="#7A7B3A" d="M22.427,6.922c-0.007-0.006-0.005-0.013-0.002-0.019c0.077-0.134,0.154-0.267,0.231-0.401
		c0.001-0.002,0.003-0.004,0.005-0.005c0.004-0.002,0.008-0.004,0.011-0.005c0.002,0.004,0.005,0.009,0.004,0.013
		c-0.004,0.011-0.009,0.022-0.014,0.032c-0.071,0.121-0.142,0.241-0.213,0.362C22.443,6.907,22.439,6.919,22.427,6.922z"/>
	<path fill="#65655C" d="M19.768,1.513c-0.045-0.053-0.077-0.114-0.109-0.175c0.002-0.006,0.005-0.01,0.011-0.012
		c0.041,0.057,0.077,0.117,0.103,0.182C19.771,1.51,19.77,1.512,19.768,1.513z"/>
	<path fill="#65655C" d="M19.773,1.508c0.008,0.011,0.018,0.021,0.025,0.032c0.006,0.009,0.014,0.018,0.012,0.031
		c-0.026-0.017-0.026-0.017-0.042-0.058C19.77,1.512,19.771,1.51,19.773,1.508z"/>
	<path fill="#A3A49B" d="M19.67,1.326c-0.004,0.004-0.008,0.008-0.011,0.012c-0.011-0.023-0.031-0.04-0.034-0.067
		c0.002-0.002,0.004-0.004,0.007-0.006C19.651,1.281,19.659,1.304,19.67,1.326z"/>
	<path fill="#FFFF1D" d="M13.244,7.598c0.015,0.012,0.012,0.028,0.011,0.043C13.245,7.629,13.242,7.614,13.244,7.598z"/>
	<path fill="#FFFF44" d="M13.254,7.05c0.002,0.017,0.006,0.036-0.012,0.048C13.241,7.081,13.241,7.064,13.254,7.05z"/>
	<path fill="#FFFF90" d="M11.745,4.789c0-0.012,0.003-0.023,0.015-0.028C11.76,4.774,11.756,4.783,11.745,4.789z"/>
	<path fill="#FFFF62" d="M16.477,6.599c0.001,0.012-0.001,0.022-0.012,0.029C16.464,6.616,16.467,6.606,16.477,6.599z"/>
	<path fill="#FFFF90" d="M11.73,4.817c0-0.012,0.003-0.022,0.015-0.027C11.746,4.802,11.74,4.81,11.73,4.817z"/>
	<path fill="#FFFF8F" d="M13.344,5.973c0.01,0.006,0.013,0.017,0.012,0.028C13.347,5.994,13.342,5.985,13.344,5.973z"/>
	<path fill="#FFFF62" d="M17.319,6.629C17.318,6.617,17.32,6.607,17.331,6.6C17.332,6.612,17.328,6.621,17.319,6.629z"/>
	<path fill="#FFFF90" d="M10.562,4.833c0,0.012-0.003,0.022-0.016,0.027C10.547,4.848,10.551,4.838,10.562,4.833z"/>
	<path fill="#FFFF62" d="M17.306,6.662c-0.002-0.013-0.001-0.026,0.013-0.033C17.32,6.641,17.317,6.653,17.306,6.662z"/>
	<path fill="#FFFF62" d="M16.519,6.485c0.001,0.011-0.001,0.021-0.011,0.028C16.507,6.502,16.51,6.492,16.519,6.485z"/>
	<path fill="#FFFF62" d="M16.462,6.639c0.002,0.013,0,0.024-0.012,0.032C16.448,6.658,16.451,6.647,16.462,6.639z"/>
	<path fill="#FFFF90" d="M11.674,4.918c0-0.012,0.003-0.023,0.015-0.028C11.689,4.902,11.685,4.911,11.674,4.918z"/>
	<path fill="#FFFF90" d="M10.762,4.492c0,0.011-0.003,0.021-0.015,0.026C10.747,4.506,10.752,4.498,10.762,4.492z"/>
	<path fill="#FFFF1D" d="M13.233,7.556c0.009,0.008,0.009,0.018,0.009,0.028C13.232,7.577,13.23,7.567,13.233,7.556z"/>
	<path fill="#FFFF1D" d="M16.01,7.615c-0.002-0.012-0.001-0.023,0.01-0.031C16.021,7.596,16.02,7.607,16.01,7.615z"/>
	<path fill="#FFFF4B" d="M16.019,6.97c-0.012-0.008-0.012-0.02-0.01-0.033C16.02,6.946,16.021,6.957,16.019,6.97z"/>
	<path fill="#FFFF90" d="M10.676,4.634c0,0.012-0.003,0.021-0.015,0.027C10.661,4.649,10.666,4.64,10.676,4.634z"/>
	<path fill="#FFFF1D" d="M13.258,7.655c0.012,0.009,0.012,0.021,0.01,0.034C13.258,7.68,13.256,7.668,13.258,7.655z"/>
	<path fill="#FFFF4B" d="M11.517,7.882c-0.011-0.006-0.014-0.015-0.014-0.027C11.512,7.862,11.517,7.871,11.517,7.882z"/>
	<path fill="#FFFF4B" d="M11.532,7.911c-0.012-0.005-0.015-0.016-0.015-0.027C11.528,7.889,11.532,7.899,11.532,7.911z"/>
	<path fill="#FFFF4B" d="M10.419,7.912c0.012,0.005,0.015,0.015,0.015,0.027C10.424,7.933,10.419,7.924,10.419,7.912z"/>
	<path fill="#FFFF90" d="M11.816,4.661c0-0.012,0.003-0.023,0.015-0.028C11.832,4.645,11.827,4.655,11.816,4.661z"/>
	<path fill="#FFFF4B" d="M11.574,7.982c-0.011-0.005-0.014-0.015-0.015-0.027C11.57,7.961,11.575,7.97,11.574,7.982z"/>
	<path fill="#FFFF4B" d="M11.589,8.01c-0.012-0.005-0.015-0.016-0.015-0.028C11.585,7.989,11.589,7.998,11.589,8.01z"/>
	<path fill="#FFFF4B" d="M10.476,8.011c0.011,0.005,0.015,0.015,0.015,0.027C10.482,8.032,10.476,8.023,10.476,8.011z"/>
	<path fill="#FFFF4B" d="M10.518,8.083c0.013,0.005,0.016,0.015,0.016,0.028C10.523,8.105,10.518,8.095,10.518,8.083z"/>
	<path fill="#FFFF4B" d="M11.674,8.168c-0.012-0.006-0.014-0.016-0.015-0.027C11.67,8.146,11.674,8.156,11.674,8.168z"/>
	<path fill="#FFFF4B" d="M10.575,8.182c0.012,0.005,0.015,0.015,0.016,0.027C10.58,8.204,10.575,8.195,10.575,8.182z"/>
	<path fill="#FFFF90" d="M11.802,4.688c0-0.012,0.003-0.022,0.015-0.027C11.817,4.673,11.811,4.682,11.802,4.688z"/>
	<path fill="#FFFF62" d="M16.504,6.526c0.001,0.012,0,0.023-0.012,0.031C16.491,6.544,16.494,6.533,16.504,6.526z"/>
	<path fill="#FFFF44" d="M13.269,6.996c0.002,0.012,0.001,0.023-0.01,0.031C13.257,7.015,13.259,7.004,13.269,6.996z"/>
	<path fill="#FFFF90" d="M10.619,4.733c0,0.012-0.003,0.022-0.015,0.027C10.604,4.748,10.609,4.739,10.619,4.733z"/>
	<path fill="#FFFF8F" d="M13.33,5.93c0.011,0.007,0.013,0.018,0.011,0.03C13.331,5.953,13.328,5.942,13.33,5.93z"/>
	<path fill="#FFFF90" d="M11.719,4.837c0-0.009,0.004-0.015,0.011-0.02C11.73,4.827,11.727,4.833,11.719,4.837z"/>
	<path fill="#FFFF90" d="M11.704,4.864c0-0.008,0.004-0.014,0.01-0.017C11.715,4.855,11.711,4.861,11.704,4.864z"/>
	<path fill="#FFFF90" d="M10.547,4.859c-0.003,0.005-0.007,0.01-0.01,0.015C10.536,4.867,10.539,4.861,10.547,4.859z"/>
	<path fill="#FFFF90" d="M11.689,4.89c0.003-0.005,0.007-0.01,0.01-0.015C11.7,4.883,11.696,4.888,11.689,4.89z"/>
	<path fill="#FFFF62" d="M16.489,6.566c0.001,0.008-0.002,0.014-0.009,0.019C16.479,6.577,16.482,6.57,16.489,6.566z"/>
	<path fill="#FFFF4B" d="M15.962,6.813c-0.007-0.004-0.01-0.011-0.01-0.019C15.96,6.798,15.963,6.804,15.962,6.813z"/>
	<path fill="#FFFF4B" d="M15.976,6.841c-0.007-0.004-0.01-0.01-0.009-0.018C15.974,6.827,15.977,6.833,15.976,6.841z"/>
	<path fill="#FFFF4B" d="M15.988,6.87c-0.003-0.005-0.005-0.01-0.008-0.015C15.987,6.857,15.99,6.862,15.988,6.87z"/>
	<path fill="#FFFF4B" d="M16.003,6.913C16,6.906,15.998,6.9,15.995,6.894C16.002,6.898,16.005,6.905,16.003,6.913z"/>
	<path fill="#FFFF44" d="M13.283,6.953c-0.002,0.006-0.005,0.011-0.007,0.017C13.273,6.962,13.275,6.956,13.283,6.953z"/>
	<path fill="#FFFF31" d="M16.29,7.095c-0.002,0.005-0.005,0.011-0.007,0.016C16.28,7.104,16.282,7.098,16.29,7.095z"/>
	<path fill="#FFFF4B" d="M11.387,7.639c-0.007-0.004-0.01-0.009-0.01-0.017C11.384,7.626,11.388,7.631,11.387,7.639z"/>
	<path fill="#FFFF4B" d="M11.402,7.669c-0.007-0.004-0.011-0.011-0.011-0.019C11.399,7.653,11.403,7.66,11.402,7.669z"/>
	<path fill="#FFFF4B" d="M11.41,7.681c-0.004-0.003-0.006-0.006-0.007-0.01C11.409,7.672,11.411,7.675,11.41,7.681z"/>
	<path fill="#FFFF4B" d="M11.426,7.71c-0.003-0.004-0.005-0.008-0.008-0.012C11.424,7.7,11.427,7.704,11.426,7.71z"/>
	<path fill="#FFFF4B" d="M11.441,7.739c-0.003-0.004-0.006-0.009-0.009-0.013C11.439,7.728,11.442,7.732,11.441,7.739z"/>
	<path fill="#FFFF4B" d="M11.456,7.768c-0.003-0.005-0.006-0.01-0.009-0.015C11.454,7.755,11.457,7.76,11.456,7.768z"/>
	<path fill="#FFFF4B" d="M11.471,7.796c-0.003-0.005-0.007-0.011-0.01-0.016C11.469,7.783,11.473,7.788,11.471,7.796z"/>
	<path fill="#FFFF4B" d="M11.487,7.825c-0.003-0.006-0.007-0.012-0.01-0.018C11.484,7.811,11.487,7.817,11.487,7.825z"/>
	<path fill="#FFFF4B" d="M11.502,7.854c-0.007-0.005-0.011-0.011-0.011-0.02C11.499,7.839,11.502,7.845,11.502,7.854z"/>
	<path fill="#FFFF4B" d="M10.409,7.898c0.003,0.005,0.007,0.01,0.01,0.014C10.412,7.91,10.408,7.905,10.409,7.898z"/>
	<path fill="#FFFF4B" d="M11.541,7.925c-0.003-0.005-0.006-0.009-0.009-0.014C11.539,7.913,11.542,7.917,11.541,7.925z"/>
	<path fill="#FFFF90" d="M10.816,4.399c0,0.009-0.004,0.015-0.011,0.019C10.804,4.409,10.807,4.403,10.816,4.399z"/>
	<path fill="#FFFF4B" d="M10.435,7.94c0.007,0.004,0.011,0.011,0.012,0.02C10.438,7.955,10.434,7.949,10.435,7.94z"/>
	<path fill="#FFFF4B" d="M11.559,7.954c-0.004-0.006-0.008-0.011-0.012-0.017C11.555,7.94,11.559,7.945,11.559,7.954z"/>
	<path fill="#FFFF90" d="M10.804,4.419c-0.003,0.004-0.006,0.008-0.009,0.013C10.794,4.425,10.797,4.421,10.804,4.419z"/>
	<path fill="#FFFF4B" d="M10.451,7.969c0.003,0.006,0.007,0.011,0.01,0.017C10.454,7.982,10.45,7.977,10.451,7.969z"/>
	<path fill="#FFFF90" d="M10.789,4.446c-0.003,0.005-0.007,0.01-0.01,0.015C10.778,4.453,10.781,4.448,10.789,4.446z"/>
	<path fill="#FFFF4B" d="M10.467,7.997c0.003,0.005,0.007,0.009,0.01,0.014C10.469,8.009,10.466,8.005,10.467,7.997z"/>
	<path fill="#FFFF90" d="M10.774,4.472c0,0.008-0.004,0.014-0.011,0.018C10.762,4.481,10.766,4.475,10.774,4.472z"/>
	<path fill="#FFFF4B" d="M11.599,8.025c-0.003-0.005-0.006-0.01-0.009-0.014C11.596,8.012,11.6,8.017,11.599,8.025z"/>
	<path fill="#FFFF4B" d="M10.492,8.039c0.007,0.004,0.011,0.011,0.011,0.019C10.495,8.055,10.492,8.048,10.492,8.039z"/>
	<path fill="#FFFF4B" d="M11.614,8.053c-0.003-0.005-0.007-0.011-0.01-0.016C11.611,8.04,11.615,8.045,11.614,8.053z"/>
	<path fill="#FFFF4B" d="M10.508,8.068c0.003,0.005,0.007,0.01,0.01,0.016C10.511,8.082,10.507,8.076,10.508,8.068z"/>
	<path fill="#FFFF4B" d="M11.629,8.082c-0.003-0.006-0.007-0.012-0.01-0.017C11.626,8.068,11.629,8.073,11.629,8.082z"/>
	<path fill="#FFFF90" d="M10.747,4.519c-0.003,0.004-0.006,0.009-0.009,0.013C10.737,4.525,10.74,4.52,10.747,4.519z"/>
	<path fill="#FFFF4B" d="M11.644,8.11c-0.007-0.004-0.011-0.011-0.011-0.019C11.641,8.095,11.644,8.102,11.644,8.11z"/>
	<path fill="#FFFF4B" d="M10.534,8.111c0.008,0.005,0.012,0.012,0.012,0.021C10.537,8.127,10.534,8.12,10.534,8.111z"/>
	<path fill="#FFFF4B" d="M11.659,8.139c-0.008-0.005-0.011-0.012-0.011-0.021C11.656,8.123,11.66,8.13,11.659,8.139z"/>
	<path fill="#FFFF4B" d="M10.55,8.139c0.004,0.006,0.007,0.012,0.011,0.018C10.553,8.154,10.549,8.148,10.55,8.139z"/>
	<path fill="#FFFF90" d="M10.732,4.545c-0.001,0.008-0.005,0.013-0.012,0.017C10.72,4.553,10.724,4.547,10.732,4.545z"/>
	<path fill="#FFFF4B" d="M10.566,8.168c0.003,0.005,0.007,0.01,0.01,0.015C10.568,8.181,10.565,8.176,10.566,8.168z"/>
	<path fill="#FFFF90" d="M10.719,4.563c-0.003,0.004-0.006,0.008-0.01,0.012C10.708,4.567,10.712,4.564,10.719,4.563z"/>
	<path fill="#FFFF90" d="M10.703,4.588c0,0.007-0.003,0.013-0.01,0.016C10.692,4.595,10.696,4.59,10.703,4.588z"/>
	<path fill="#FFFF4B" d="M10.591,8.21c0.007,0.004,0.011,0.01,0.011,0.018C10.594,8.225,10.591,8.219,10.591,8.21z"/>
	<path fill="#FFFF90" d="M11.846,4.607c0-0.008,0.003-0.014,0.01-0.017C11.858,4.599,11.854,4.604,11.846,4.607z"/>
	<path fill="#FFFF90" d="M10.688,4.614c0,0.008-0.004,0.014-0.011,0.019C10.677,4.624,10.68,4.618,10.688,4.614z"/>
	<path fill="#FFFF90" d="M11.831,4.634c0.003-0.005,0.007-0.01,0.01-0.015C11.842,4.627,11.839,4.632,11.831,4.634z"/>
	<path fill="#FFFF90" d="M10.661,4.661c-0.003,0.005-0.006,0.009-0.01,0.014C10.651,4.667,10.654,4.663,10.661,4.661z"/>
	<path fill="#FFFF90" d="M10.646,4.687c0,0.008-0.003,0.013-0.01,0.017C10.635,4.695,10.639,4.69,10.646,4.687z"/>
	<path fill="#FFFF90" d="M11.79,4.709c0-0.009,0.004-0.015,0.011-0.019C11.802,4.698,11.798,4.705,11.79,4.709z"/>
	<path fill="#FFFF90" d="M10.631,4.713c0,0.009-0.004,0.015-0.011,0.019C10.619,4.723,10.623,4.717,10.631,4.713z"/>
	<path fill="#FFFF90" d="M11.775,4.736c0-0.008,0.004-0.013,0.01-0.017C11.786,4.727,11.783,4.733,11.775,4.736z"/>
	<path fill="#FFFF90" d="M11.76,4.762c0.003-0.005,0.007-0.01,0.01-0.015C11.771,4.755,11.768,4.76,11.76,4.762z"/>
	<path fill="#FFFF90" d="M10.604,4.76c-0.003,0.005-0.007,0.01-0.01,0.015C10.593,4.767,10.597,4.762,10.604,4.76z"/>
	<path fill="#FFFF90" d="M10.589,4.786c0,0.008-0.004,0.014-0.011,0.017C10.578,4.795,10.581,4.789,10.589,4.786z"/>
	<path fill="#FFFF90" d="M10.574,4.812c0,0.009-0.004,0.016-0.012,0.02C10.562,4.823,10.565,4.816,10.574,4.812z"/>
	<path fill="#FFFFDE" d="M26.983,2.808C26.969,2.8,26.954,2.792,26.94,2.783c-0.207-0.139-0.413-0.278-0.62-0.417
		c-0.293-0.197-0.587-0.395-0.88-0.592c-0.272-0.183-0.544-0.365-0.815-0.548c-0.175-0.118-0.351-0.235-0.527-0.352
		c-0.023-0.016-0.046-0.031-0.071-0.048c0.017-0.019,0.034-0.012,0.049-0.012c0.266,0.004,0.532,0.009,0.798,0.013
		c0.7,0.011,1.401,0.023,2.101,0.034c0.294,0.005,0.589,0.01,0.883,0.014c0.29,0.005,0.579,0.009,0.869,0.014
		c0.294,0.005,0.589,0.01,0.883,0.014c0.294,0.005,0.589,0.01,0.883,0.014c0.23,0.004,0.461,0.007,0.691,0.01
		c0.017,0,0.033,0,0.05,0.001c0.054,0.001,0.055,0.002,0.054,0.056c-0.001,0.138-0.002,0.275-0.003,0.413
		C31.276,1.424,31.28,1.45,31.28,1.476c0,0.397,0,0.793,0,1.19c0,0.083,0,0.083-0.086,0.096c-0.04,0.006-0.08,0.013-0.12,0.012
		c-0.52-0.01-1.04,0.012-1.56,0.018c-0.361,0.004-0.722-0.001-1.082,0.014c-0.299,0.013-0.598,0.004-0.897,0.011
		c-0.119,0.003-0.236,0.019-0.356,0.015C27.113,2.83,27.047,2.831,26.983,2.808z"/>
	<path fill="#FFFF2C" d="M25.927,10.837c0.009-0.009,0.018-0.017,0.032-0.018c0.001-0.006,0.005-0.008,0.01-0.008
		c0.005-0.003,0.01-0.005,0.015-0.008c0.004-0.004,0.009-0.007,0.014-0.01c0.009-0.009,0.018-0.017,0.031-0.018
		c0.002-0.004,0.006-0.007,0.011-0.008c0.005-0.002,0.009-0.005,0.014-0.007c0.005-0.003,0.01-0.007,0.015-0.01
		c0.008-0.009,0.017-0.017,0.031-0.018c0.003-0.004,0.007-0.007,0.012-0.009c0.018-0.015,0.036-0.029,0.059-0.034
		c0.003-0.004,0.008-0.007,0.012-0.009c0.018-0.015,0.035-0.029,0.059-0.033c0.003-0.004,0.007-0.007,0.012-0.008
		c0.018-0.015,0.037-0.029,0.06-0.035c0.003-0.004,0.006-0.007,0.011-0.008c0.018-0.015,0.036-0.029,0.06-0.035
		c0.003-0.004,0.007-0.007,0.012-0.009c0.081-0.05,0.161-0.101,0.242-0.15c0.073-0.045,0.147-0.088,0.22-0.132
		c0.341-0.206,0.683-0.413,1.024-0.619c0.069-0.026,0.107-0.08,0.137-0.145c0.027-0.058,0.052-0.117,0.09-0.169
		c0.046,0.015,0.092,0.019,0.14,0.019c0.453,0.001,0.907-0.012,1.36-0.019c0.297-0.005,0.594,0.003,0.89-0.012
		c0.223-0.011,0.446-0.01,0.669-0.013c0.073-0.001,0.08-0.009,0.081-0.083c0.001-0.076-0.002-0.152,0.001-0.228
		c0.001-0.029-0.007-0.064,0.033-0.078c0.001,0.021,0.003,0.042,0.003,0.064c0,0.604,0,1.207,0,1.811
		c0,0.021-0.002,0.042-0.003,0.064c-0.009,0.052-0.005,0.104-0.003,0.156c0.001,0.044-0.019,0.06-0.058,0.063
		c-0.014,0.001-0.028,0.002-0.043,0.002c-0.394,0.005-0.788,0.009-1.182,0.018c-0.327,0.007-0.655-0.004-0.982,0.013
		c-0.299,0.015-0.598-0.003-0.897,0.013c-0.323,0.017-0.646-0.002-0.968,0.015c-0.304,0.016-0.608-0.001-0.911,0.013
		c-0.216,0.01-0.432,0.013-0.648,0.011c-0.046,0-0.103,0.012-0.125-0.053l0,0c0.008,0,0.012-0.007,0.018-0.011l0.001,0
		c0.007-0.009,0.021-0.005,0.027-0.016l-0.001,0.001c0.005-0.003,0.01-0.007,0.015-0.01c0.001-0.004,0.005-0.006,0.009-0.005
		c0.009-0.001,0.014-0.006,0.02-0.012l0.001,0c0.004-0.004,0.008-0.007,0.013-0.01c0.004-0.002,0.008-0.004,0.012-0.006
		c0.006-0.002,0.011-0.007,0.017-0.011c0.001-0.004,0.004-0.006,0.008-0.004c0.009,0,0.015-0.006,0.02-0.012l0,0
		c0.004-0.004,0.008-0.007,0.014-0.01c0.002-0.005,0.006-0.007,0.011-0.006c0.007-0.002,0.012-0.007,0.018-0.011l0.002-0.001
		c0.002-0.005,0.005-0.007,0.011-0.008c0.005-0.003,0.01-0.005,0.015-0.008c0.004-0.004,0.009-0.007,0.014-0.01
		c0.002-0.005,0.006-0.007,0.011-0.005c0.008-0.002,0.013-0.007,0.018-0.011l0.002-0.001c0.002-0.005,0.006-0.007,0.011-0.008
		c0.005-0.002,0.009-0.005,0.014-0.007c0.005-0.004,0.01-0.007,0.015-0.01c0.008-0.009,0.017-0.017,0.031-0.018
		c0.002-0.005,0.006-0.007,0.011-0.007c0.005-0.002,0.011-0.005,0.016-0.007c0.004-0.004,0.008-0.007,0.013-0.009
		c0.004-0.002,0.008-0.004,0.012-0.006c0.007-0.002,0.012-0.007,0.017-0.011c0.007-0.009,0.016-0.016,0.029-0.017
		C25.917,10.843,25.922,10.84,25.927,10.837z"/>
	<path fill="#FFFF08" d="M25.469,11.116c0.026,0.024,0.058,0.031,0.091,0.031c0.173,0,0.347,0,0.52,0
		c0.007,0,0.015,0.001,0.021-0.001c0.062-0.021,0.127-0.013,0.191-0.013c0.228-0.001,0.456,0,0.684,0c0.035,0,0.07,0.001,0.106-0.01
		c0.022-0.007,0.047-0.004,0.071-0.004c0.259,0,0.518,0,0.776,0c0.031,0,0.061,0,0.091-0.01c0.022-0.007,0.047-0.004,0.071-0.004
		c0.249,0,0.499,0,0.748,0c0.038,0,0.075,0.002,0.113-0.011c0.019-0.007,0.042-0.003,0.064-0.003c0.256,0,0.513,0,0.769,0
		c0.035,0,0.07,0.001,0.106-0.01c0.022-0.007,0.047-0.004,0.071-0.004c0.254,0,0.508,0,0.762,0c0.031,0,0.061,0,0.091-0.01
		c0.02-0.006,0.042-0.004,0.063-0.004c0.107,0,0.214,0,0.321,0c0.012,0,0.024,0,0.036,0c0.031-0.002,0.039-0.008,0.04-0.038
		c0.001-0.038,0-0.076,0.001-0.114c0-0.016-0.002-0.034,0.011-0.047c0.001,0.019,0.003,0.038,0.003,0.057c0,0.351,0,0.703,0,1.054
		c0,0.079,0.006,0.071-0.074,0.071c-0.641,0.007-1.282,0.013-1.923,0.02c-0.482,0.005-0.964,0.011-1.446,0.016
		c-0.406,0.004-0.812,0.008-1.218,0.012c-0.912,0.009-1.823,0.019-2.735,0.028c-0.023,0-0.046,0.004-0.075-0.006
		c0.017-0.021,0.037-0.029,0.054-0.04c0.333-0.201,0.666-0.403,0.999-0.604c0.189-0.114,0.378-0.227,0.567-0.341
		C25.447,11.124,25.458,11.121,25.469,11.116z"/>
	<path fill="#FFFFBD" d="M26.983,2.808c0.009-0.003,0.019-0.011,0.026-0.009c0.073,0.018,0.146,0.006,0.219,0.009
		c0.036,0.001,0.071,0,0.107,0c0.028,0,0.056-0.001,0.084-0.009c0.022-0.007,0.047-0.005,0.07-0.005c0.256,0,0.513,0,0.769,0
		c0.035,0,0.07,0.001,0.105-0.01c0.022-0.007,0.047-0.004,0.071-0.004c0.259,0,0.517,0,0.776,0c0.031,0,0.061,0,0.091-0.01
		c0.022-0.007,0.047-0.005,0.071-0.005c0.252,0,0.503,0,0.755,0c0.035,0,0.07,0.001,0.105-0.011
		c0.022-0.007,0.047-0.004,0.071-0.004c0.252,0,0.503,0,0.755,0c0.04,0,0.081,0.004,0.119-0.012
		c0.006-0.003,0.014-0.002,0.021-0.002c0.082,0.003,0.074-0.007,0.074-0.082c0-0.394,0-0.788,0.001-1.182
		c0-0.025-0.009-0.052,0.011-0.075c0.001,0.019,0.003,0.038,0.003,0.056c0,0.556,0,1.113,0,1.669c0,0.019-0.002,0.038-0.003,0.057
		c-0.01,0.13-0.003,0.261-0.004,0.391c-0.001,0.223,0,0.446,0,0.669c0,0.077-0.007,0.084-0.084,0.087c-0.005,0-0.009,0-0.014,0
		c-0.41-0.01-0.82,0.015-1.23,0.015c-0.434-0.001-0.867,0.021-1.301,0.015c-0.097-0.001-0.194,0.017-0.291,0.013
		c-0.033-0.001-0.067,0-0.095-0.022c-0.014-0.019-0.029-0.037-0.042-0.057c-0.088-0.135-0.176-0.271-0.264-0.406
		c-0.143-0.218-0.286-0.437-0.429-0.655c-0.017-0.026-0.036-0.05-0.052-0.076c-0.014-0.021-0.034-0.033-0.054-0.046
		c-0.122-0.082-0.244-0.164-0.366-0.246C27.031,2.845,27.003,2.832,26.983,2.808z"/>
	<path fill="#FFFF52" d="M31.284,8.924c-0.015,0.016-0.011,0.035-0.011,0.054c0,0.093,0,0.185,0,0.278c0,0.019,0,0.038-0.002,0.057
		c-0.001,0.013-0.011,0.021-0.023,0.022c-0.019,0.001-0.038,0.002-0.057,0.002c-0.164,0-0.327,0-0.491,0
		c-0.031,0-0.061,0-0.091,0.009c-0.022,0.007-0.047,0.005-0.07,0.005c-0.252,0-0.503,0-0.755,0c-0.035,0-0.07-0.001-0.105,0.01
		c-0.022,0.007-0.047,0.004-0.071,0.004c-0.259,0-0.517,0-0.776,0c-0.031,0-0.061-0.001-0.091,0.01
		c-0.017,0.006-0.037,0.004-0.056,0.004c-0.166,0-0.332,0-0.498,0c-0.012,0-0.024,0-0.036-0.001
		c-0.025-0.002-0.038-0.016-0.04-0.041c0.002-0.022,0.016-0.039,0.026-0.058c0.093-0.181,0.187-0.361,0.281-0.542
		c0.101-0.196,0.2-0.392,0.301-0.588c0.09-0.175,0.181-0.349,0.272-0.523c0.005-0.01,0.013-0.019,0.019-0.029
		c0.325-0.01,0.65-0.001,0.974-0.011c0.342-0.011,0.683-0.01,1.025-0.012c0.057,0,0.113-0.016,0.17-0.014
		c0.056,0.003,0.074-0.024,0.074-0.077c-0.001-0.15-0.002-0.299,0-0.449c0-0.033-0.011-0.073,0.033-0.092
		c0.001,0.021,0.003,0.042,0.003,0.064c0,0.618,0,1.236,0,1.854C31.287,8.882,31.285,8.903,31.284,8.924z"/>
	<path fill="#FFFF9B" d="M28.263,4.348c0.064,0,0.128,0,0.192-0.001c0.042,0,0.085,0.003,0.127-0.011
		c0.019-0.006,0.042-0.003,0.064-0.003c0.254,0,0.508,0,0.762,0c0.038,0,0.075,0.002,0.113-0.011
		c0.022-0.007,0.047-0.003,0.071-0.003c0.252,0,0.503,0,0.755,0c0.033,0,0.066,0.001,0.098-0.01
		c0.022-0.007,0.047-0.004,0.071-0.004c0.225,0,0.451,0,0.676,0c0.084,0,0.082,0.003,0.082-0.081c0-0.323,0-0.645,0.001-0.968
		c0-0.025-0.009-0.052,0.011-0.075c0.001,0.019,0.003,0.038,0.003,0.056c0,0.561,0,1.122,0,1.683c0,0.019-0.002,0.038-0.003,0.057
		c-0.01,0.161-0.003,0.322-0.004,0.483c-0.001,0.128-0.003,0.256,0.001,0.384c0.002,0.055-0.017,0.077-0.071,0.08
		c-0.114,0.006-0.227,0.017-0.341,0.015c-0.209-0.002-0.418-0.011-0.626,0.002c-0.273,0.018-0.545,0.005-0.818,0.011
		c-0.049,0.001-0.094-0.006-0.134-0.037l0,0c-0.004-0.004-0.008-0.009-0.01-0.014c-0.005-0.002-0.006-0.005-0.005-0.01
		c-0.002-0.008-0.007-0.014-0.012-0.019l0,0c-0.005-0.004-0.008-0.008-0.01-0.013c-0.005-0.002-0.007-0.006-0.006-0.011
		c-0.002-0.007-0.007-0.013-0.012-0.018l0-0.001c-0.009-0.007-0.006-0.021-0.017-0.027l0.001,0.001
		c-0.002-0.007-0.008-0.011-0.012-0.017l-0.001-0.001C29.198,5.78,29.201,5.765,29.19,5.76l0.001,0.001
		c-0.002-0.007-0.008-0.012-0.013-0.016l0,0c-0.004-0.004-0.008-0.009-0.011-0.014c-0.005-0.002-0.006-0.005-0.005-0.009
		c-0.001-0.008-0.006-0.014-0.012-0.019l0,0c-0.004-0.004-0.008-0.009-0.01-0.014c-0.005-0.002-0.007-0.005-0.006-0.01
		c-0.002-0.008-0.007-0.013-0.012-0.019c-0.014-0.019-0.029-0.037-0.041-0.057c-0.09-0.139-0.18-0.278-0.271-0.417
		c-0.147-0.226-0.295-0.451-0.443-0.677C28.331,4.456,28.289,4.408,28.263,4.348z"/>
	<path fill="#FFFF78" d="M29.292,5.916c0.072,0.018,0.145,0.014,0.218,0.014c0.194,0,0.389,0,0.583,0c0.031,0,0.061,0,0.091-0.009
		c0.022-0.007,0.047-0.005,0.07-0.005c0.254,0,0.507,0,0.761,0c0.033,0,0.066,0.001,0.098-0.01c0.022-0.007,0.047-0.003,0.071-0.004
		c0.021-0.001,0.043,0,0.064-0.002c0.013-0.001,0.022-0.01,0.023-0.023c0.001-0.021,0.002-0.043,0.002-0.064
		c0-0.256,0-0.512,0.001-0.768c0-0.023-0.008-0.048,0.011-0.068c0.001,0.021,0.003,0.042,0.003,0.064c0,0.613,0,1.226,0,1.84
		c0,0.021-0.002,0.042-0.003,0.064c-0.018,0.02-0.011,0.045-0.011,0.068c-0.001,0.162-0.001,0.323-0.001,0.485
		c0,0.094,0.005,0.087-0.09,0.087c-0.038,0-0.075-0.001-0.113,0.011c-0.019,0.006-0.042,0.003-0.064,0.003c-0.254,0-0.508,0-0.763,0
		c-0.031,0-0.061-0.001-0.092,0.009c-0.022,0.007-0.047,0.005-0.071,0.005c-0.257,0-0.513,0-0.77,0c-0.035,0-0.07,0.006-0.105,0.01
		c-0.067,0.007-0.137,0.02-0.199-0.023c0,0,0-0.001,0-0.001c0.008-0.007,0.005-0.021,0.014-0.027l0-0.001
		c0.005-0.006,0.011-0.012,0.011-0.021c-0.002-0.004-0.001-0.007,0.004-0.009c0.005-0.006,0.01-0.011,0.011-0.019
		c-0.002-0.004,0-0.007,0.004-0.009c0.005-0.006,0.01-0.011,0.01-0.019c-0.002-0.004,0-0.008,0.004-0.01
		c0.004-0.006,0.009-0.011,0.01-0.019c-0.002-0.005,0-0.008,0.004-0.01c0.004-0.006,0.009-0.011,0.01-0.018
		c-0.002-0.005,0-0.008,0.004-0.011c0.004-0.006,0.009-0.01,0.01-0.017c-0.001-0.005,0-0.009,0.005-0.011
		c0.004-0.005,0.007-0.011,0.01-0.017c-0.001-0.005,0-0.009,0.005-0.012c0.004-0.005,0.007-0.011,0.01-0.017
		c-0.001-0.005,0-0.009,0.005-0.012c0.003-0.005,0.007-0.011,0.009-0.016c-0.001-0.005,0-0.009,0.005-0.012
		c0.003-0.005,0.006-0.01,0.009-0.016c0.002-0.004,0.003-0.008,0.005-0.013c0.003-0.005,0.006-0.01,0.009-0.015
		c0.002-0.004,0.004-0.009,0.007-0.013c0.002-0.005,0.005-0.009,0.009-0.012l0.001-0.002c0.005-0.006,0.01-0.011,0.011-0.019
		c-0.002-0.005,0-0.008,0.004-0.01c0.005-0.005,0.01-0.01,0.01-0.018c-0.001-0.005,0-0.008,0.004-0.01
		c0.004-0.005,0.009-0.01,0.01-0.018c-0.001-0.005,0-0.008,0.005-0.011c0.004-0.005,0.009-0.01,0.01-0.017
		c-0.001-0.005,0-0.009,0.005-0.011c0.004-0.005,0.007-0.011,0.01-0.017c0.003-0.009,0.005-0.018,0.009-0.026
		c0.109-0.213,0.218-0.426,0.329-0.638c0.012-0.023,0.008-0.037-0.005-0.057c-0.094-0.142-0.187-0.286-0.279-0.429
		C29.306,5.945,29.294,5.933,29.292,5.916z"/>
	<path fill="#FFFF78" d="M29.19,5.76c0.013,0.004,0.017,0.014,0.017,0.026C29.197,5.78,29.191,5.771,29.19,5.76z"/>
	<path fill="#FFFF52" d="M29.021,7.57c0,0.011-0.003,0.021-0.014,0.027C29.007,7.586,29.012,7.577,29.021,7.57z"/>
	<path fill="#FFFF78" d="M29.218,5.803c0.013,0.004,0.017,0.014,0.017,0.027C29.224,5.824,29.219,5.815,29.218,5.803z"/>
	<path fill="#FFFF08" d="M25.514,11.088c-0.005,0.013-0.015,0.016-0.027,0.016C25.493,11.094,25.502,11.089,25.514,11.088z"/>
	<path fill="#FFFF78" d="M29.121,5.659c0.007,0.004,0.012,0.01,0.012,0.019C29.125,5.674,29.121,5.668,29.121,5.659z"/>
	<path fill="#FFFF78" d="M29.139,5.688c0.003,0.005,0.007,0.009,0.01,0.014C29.142,5.7,29.138,5.696,29.139,5.688z"/>
	<path fill="#FFFF78" d="M29.149,5.702c0.008,0.004,0.012,0.01,0.012,0.019C29.153,5.718,29.149,5.711,29.149,5.702z"/>
	<path fill="#FFFF78" d="M29.167,5.731c0.004,0.005,0.007,0.01,0.011,0.014C29.17,5.743,29.166,5.739,29.167,5.731z"/>
	<path fill="#FFFF78" d="M29.177,5.745c0.008,0.003,0.012,0.008,0.013,0.016C29.182,5.759,29.177,5.754,29.177,5.745z"/>
	<path fill="#FFFF78" d="M29.208,5.787c0.004,0.006,0.008,0.011,0.012,0.017C29.211,5.801,29.207,5.795,29.208,5.787z"/>
	<path fill="#FFFF78" d="M29.236,5.83c0.007,0.004,0.011,0.01,0.012,0.018C29.239,5.845,29.235,5.839,29.236,5.83z"/>
	<path fill="#FFFF78" d="M29.253,5.859c0.003,0.004,0.007,0.009,0.01,0.013C29.256,5.871,29.253,5.866,29.253,5.859z"/>
	<path fill="#FFFF78" d="M29.264,5.873c0.008,0.004,0.012,0.01,0.012,0.019C29.268,5.888,29.263,5.882,29.264,5.873z"/>
	<path fill="#FFFF78" d="M29.281,5.902c0.003,0.005,0.007,0.009,0.01,0.014C29.284,5.914,29.281,5.909,29.281,5.902z"/>
	<path fill="#FFFF52" d="M29.261,7.109c0,0.008-0.003,0.013-0.01,0.017C29.25,7.118,29.253,7.112,29.261,7.109z"/>
	<path fill="#FFFF52" d="M29.232,7.166c0,0.008-0.003,0.014-0.01,0.018C29.222,7.175,29.225,7.169,29.232,7.166z"/>
	<path fill="#FFFF52" d="M29.218,7.194c0,0.008-0.003,0.014-0.01,0.018C29.207,7.203,29.21,7.197,29.218,7.194z"/>
	<path fill="#FFFF52" d="M29.204,7.222c0,0.008-0.004,0.015-0.011,0.019C29.193,7.232,29.196,7.226,29.204,7.222z"/>
	<path fill="#FFFF52" d="M29.192,7.243c-0.003,0.004-0.006,0.008-0.009,0.012C29.183,7.248,29.186,7.244,29.192,7.243z"/>
	<path fill="#FFFF52" d="M29.177,7.268c-0.003,0.005-0.006,0.01-0.009,0.015C29.166,7.275,29.169,7.27,29.177,7.268z"/>
	<path fill="#FFFF52" d="M29.162,7.296c-0.003,0.005-0.006,0.011-0.009,0.016C29.152,7.304,29.155,7.299,29.162,7.296z"/>
	<path fill="#FFFF52" d="M29.148,7.324c-0.003,0.005-0.006,0.011-0.009,0.016C29.137,7.332,29.14,7.327,29.148,7.324z"/>
	<path fill="#FFFF52" d="M29.133,7.352c0,0.007-0.003,0.013-0.01,0.017C29.123,7.361,29.126,7.355,29.133,7.352z"/>
	<path fill="#FFFF52" d="M29.119,7.38c0,0.008-0.003,0.013-0.01,0.017C29.108,7.389,29.111,7.384,29.119,7.38z"/>
	<path fill="#FFFF52" d="M29.105,7.409c0,0.008-0.003,0.014-0.01,0.017C29.094,7.418,29.097,7.412,29.105,7.409z"/>
	<path fill="#FFFF52" d="M29.09,7.437c0,0.008-0.003,0.014-0.01,0.018C29.079,7.446,29.082,7.44,29.09,7.437z"/>
	<path fill="#FFFF52" d="M29.076,7.464c0,0.008-0.003,0.014-0.01,0.019C29.065,7.475,29.068,7.468,29.076,7.464z"/>
	<path fill="#FFFF52" d="M29.062,7.493c0,0.008-0.003,0.015-0.01,0.019C29.05,7.503,29.053,7.496,29.062,7.493z"/>
	<path fill="#FFFF52" d="M29.047,7.521c0,0.008-0.003,0.015-0.011,0.019C29.036,7.531,29.039,7.525,29.047,7.521z"/>
	<path fill="#FFFF52" d="M29.033,7.549c0,0.009-0.003,0.016-0.011,0.021C29.021,7.56,29.024,7.553,29.033,7.549z"/>
	<path fill="#FFFF52" d="M29.247,7.137c0,0.008-0.003,0.014-0.01,0.017C29.236,7.147,29.239,7.141,29.247,7.137z"/>
	<path fill="#FFFF08" d="M26.397,10.553c-0.004,0.003-0.008,0.006-0.012,0.009C26.386,10.556,26.39,10.552,26.397,10.553z"/>
	<path fill="#FFFF08" d="M26.325,10.597c-0.003,0.004-0.006,0.007-0.011,0.008C26.316,10.599,26.319,10.596,26.325,10.597z"/>
	<path fill="#FFFF08" d="M26.254,10.64c-0.004,0.003-0.008,0.005-0.012,0.008C26.244,10.642,26.248,10.639,26.254,10.64z"/>
	<path fill="#FFFF08" d="M26.183,10.681c-0.004,0.003-0.008,0.006-0.012,0.009C26.172,10.684,26.176,10.68,26.183,10.681z"/>
	<path fill="#FFFF08" d="M26.112,10.725c-0.004,0.003-0.008,0.006-0.012,0.009C26.102,10.727,26.105,10.724,26.112,10.725z"/>
	<path fill="#FFFF08" d="M26.069,10.751c-0.005,0.003-0.01,0.007-0.015,0.01C26.057,10.754,26.062,10.75,26.069,10.751z"/>
	<path fill="#FFFF08" d="M26.04,10.768c-0.003,0.004-0.006,0.007-0.011,0.008C26.031,10.77,26.034,10.767,26.04,10.768z"/>
	<path fill="#FFFF08" d="M25.998,10.794c-0.005,0.003-0.009,0.007-0.014,0.01C25.986,10.797,25.991,10.793,25.998,10.794z"/>
	<path fill="#FFFF08" d="M25.969,10.812c-0.003,0.004-0.006,0.006-0.01,0.008C25.96,10.813,25.963,10.811,25.969,10.812z"/>
	<path fill="#FFFF08" d="M25.927,10.837c-0.005,0.003-0.009,0.006-0.014,0.01C25.915,10.84,25.92,10.837,25.927,10.837z"/>
	<path fill="#FFFF08" d="M25.884,10.864c-0.006,0.004-0.011,0.007-0.017,0.011C25.871,10.867,25.876,10.863,25.884,10.864z"/>
	<path fill="#FFFF08" d="M25.856,10.881c-0.004,0.003-0.009,0.006-0.013,0.009C25.844,10.883,25.849,10.88,25.856,10.881z"/>
	<path fill="#FFFF08" d="M25.826,10.897c-0.003,0.004-0.006,0.006-0.011,0.007C25.817,10.899,25.82,10.896,25.826,10.897z"/>
	<path fill="#FFFF08" d="M25.785,10.922c-0.005,0.003-0.01,0.007-0.015,0.01C25.772,10.925,25.777,10.921,25.785,10.922z"/>
	<path fill="#FFFF08" d="M25.756,10.939c-0.004,0.003-0.008,0.005-0.011,0.008C25.746,10.942,25.749,10.938,25.756,10.939z"/>
	<path fill="#FFFF08" d="M25.743,10.948c-0.006,0.004-0.012,0.008-0.018,0.011C25.728,10.952,25.734,10.948,25.743,10.948z"/>
	<path fill="#FFFF08" d="M25.713,10.965c-0.005,0.003-0.01,0.007-0.014,0.01C25.701,10.968,25.706,10.965,25.713,10.965z"/>
	<path fill="#FFFF08" d="M25.684,10.983c-0.003,0.004-0.006,0.006-0.011,0.008C25.675,10.985,25.678,10.982,25.684,10.983z"/>
	<path fill="#FFFF08" d="M25.671,10.992c-0.006,0.004-0.012,0.008-0.018,0.011C25.657,10.995,25.663,10.991,25.671,10.992z"/>
	<path fill="#FFFF08" d="M25.642,11.009c-0.005,0.003-0.009,0.007-0.014,0.01C25.63,11.011,25.635,11.008,25.642,11.009z"/>
	<path fill="#FFFF08" d="M25.628,11.019c-0.004,0.008-0.011,0.012-0.02,0.012C25.612,11.022,25.619,11.019,25.628,11.019z"/>
	<path fill="#FFFF08" d="M25.6,11.035c-0.006,0.004-0.011,0.007-0.017,0.011C25.586,11.039,25.591,11.035,25.6,11.035z"/>
	<path fill="#FFFF08" d="M25.571,11.052c-0.004,0.003-0.009,0.006-0.013,0.01C25.56,11.055,25.564,11.051,25.571,11.052z"/>
	<path fill="#FFFF08" d="M25.557,11.062c-0.004,0.008-0.011,0.012-0.02,0.012C25.541,11.065,25.548,11.062,25.557,11.062z"/>
	<path fill="#FFFF08" d="M25.528,11.078c-0.005,0.003-0.01,0.007-0.015,0.01C25.515,11.081,25.52,11.078,25.528,11.078z"/>
	<path fill="#FFFF08" d="M25.486,11.105c-0.004,0.007-0.01,0.011-0.018,0.011C25.471,11.108,25.478,11.105,25.486,11.105z"/>
	<path fill="#FFFFED" d="M1.18,0.859c0.026-0.001,0.052-0.003,0.078-0.004C1.69,0.849,2.122,0.842,2.554,0.835
		c0.553-0.009,1.107-0.017,1.66-0.026c0.62-0.01,1.239-0.021,1.859-0.031C6.646,0.769,7.218,0.76,7.79,0.751
		c0.178-0.003,0.356-0.006,0.534-0.009c0.023,0,0.046,0,0.075,0C8.387,0.765,8.37,0.772,8.355,0.782
		C8.099,0.954,7.843,1.126,7.587,1.298C7.244,1.529,6.901,1.76,6.559,1.99C6.283,2.175,6.007,2.361,5.731,2.546
		C5.684,2.577,5.635,2.606,5.587,2.637C5.463,2.679,5.332,2.671,5.206,2.671C4.707,2.669,4.209,2.688,3.71,2.691
		C3.333,2.693,2.955,2.694,2.578,2.707c-0.302,0.01-0.603,0.002-0.904,0.011C1.532,2.722,1.39,2.736,1.247,2.731
		C1.152,2.728,1.148,2.724,1.148,2.63c0-0.565,0-1.131,0.001-1.696C1.148,0.906,1.133,0.868,1.18,0.859z"/>
	<path fill="#FFFFB7" d="M1.18,0.859C1.166,0.872,1.151,0.883,1.154,0.906c0.002,0.016,0,0.033,0,0.05
		c0,0.553,0.001,1.106,0.001,1.659c0,0.101-0.007,0.093,0.092,0.093c0.074,0,0.147,0,0.221,0c0.033,0,0.066,0,0.098-0.01
		c0.022-0.007,0.047-0.004,0.071-0.004c0.259,0,0.517,0,0.776,0c0.031,0,0.061,0,0.091-0.009C2.526,2.678,2.551,2.68,2.575,2.68
		c0.252,0,0.503,0,0.755,0c0.035,0,0.07,0.001,0.106-0.011c0.022-0.007,0.047-0.004,0.071-0.004c0.256,0,0.513,0,0.769,0
		c0.033,0,0.066,0.001,0.098-0.01C4.395,2.649,4.42,2.651,4.444,2.651c0.254,0,0.508,0,0.762,0c0.031,0,0.061,0.002,0.091-0.009
		C5.312,2.636,5.33,2.638,5.347,2.637c0.076-0.002,0.151,0.004,0.227-0.005c0.004-0.001,0.009,0.003,0.013,0.004
		c-0.014,0.02-0.036,0.03-0.056,0.043C5.357,2.797,5.182,2.915,5.006,3.033c-0.03,0.02-0.054,0.044-0.074,0.075
		C4.775,3.35,4.616,3.591,4.458,3.833C4.317,4.049,4.175,4.265,4.034,4.481c-0.14,0.214-0.281,0.428-0.421,0.642
		c-0.009,0.014-0.015,0.03-0.03,0.039C3.495,5.2,3.4,5.178,3.31,5.197c-0.005,0.001-0.009,0-0.014,0
		c-0.477-0.01-0.953,0.021-1.43,0.013C1.661,5.207,1.458,5.23,1.254,5.226C1.15,5.224,1.148,5.222,1.148,5.118
		c0-0.496,0-0.992,0-1.488c0-0.026,0.003-0.052-0.003-0.078C1.143,3.528,1.142,3.505,1.142,3.481c0-0.847,0-1.694-0.001-2.541
		c0-0.019,0-0.038,0-0.057C1.142,0.859,1.143,0.859,1.18,0.859z"/>
	<path fill="#FFFF2A" d="M1.145,10.906c-0.001-0.019-0.003-0.038-0.003-0.057c0-0.575,0-1.15,0-1.725
		c0-0.019,0.002-0.038,0.003-0.057c0.042,0.02,0.031,0.06,0.032,0.093c0.002,0.133,0,0.266,0.001,0.399
		c0,0.089,0.006,0.095,0.091,0.096C1.741,9.658,2.213,9.64,2.686,9.637c0.187-0.001,0.375-0.008,0.562-0.009
		C3.65,9.627,4.051,9.604,4.452,9.613C4.495,9.614,4.537,9.605,4.58,9.605c0.015,0.007,0.03,0.013,0.044,0.022
		C4.803,9.734,4.981,9.842,5.16,9.95c0.302,0.183,0.605,0.365,0.907,0.548c0.27,0.163,0.54,0.325,0.81,0.489
		c0.046,0.028,0.097,0.049,0.138,0.086c0.003,0.036-0.023,0.043-0.049,0.049c-0.019,0.005-0.038,0.005-0.057,0.004
		c-0.484-0.008-0.969,0.014-1.453,0.018c-0.344,0.003-0.689-0.002-1.032,0.014c-0.287,0.013-0.575-0.002-0.862,0.013
		c-0.335,0.017-0.67-0.001-1.004,0.016c-0.29,0.014-0.579,0.004-0.869,0.012c-0.147,0.004-0.294,0.019-0.441,0.014
		c-0.097-0.004-0.099-0.006-0.1-0.101C1.147,11.043,1.151,10.974,1.145,10.906z"/>
	<path fill="#FFFF0A" d="M1.145,10.906c0.012,0.014,0.01,0.031,0.01,0.048c0,0.052,0,0.105,0,0.157c0,0.012,0,0.024,0,0.036
		c0.002,0.038,0.006,0.042,0.048,0.044c0.002,0,0.005,0,0.007,0c0.097,0,0.196,0.01,0.292-0.002c0.147-0.018,0.294-0.009,0.44-0.011
		c0.147-0.002,0.294,0,0.442-0.001c0.038,0,0.075,0.002,0.113-0.011c0.019-0.007,0.042-0.003,0.064-0.003c0.257,0,0.513,0,0.77,0
		c0.035,0,0.07,0.001,0.106-0.01c0.022-0.007,0.047-0.004,0.071-0.004c0.252,0,0.504,0,0.755,0c0.033,0,0.066,0.001,0.099-0.01
		c0.022-0.007,0.047-0.004,0.071-0.004c0.259,0,0.518,0,0.777,0c0.031,0,0.061,0,0.091-0.009c0.022-0.007,0.047-0.005,0.071-0.005
		c0.249,0,0.499,0,0.748,0c0.038,0,0.075,0.002,0.113-0.011c0.019-0.007,0.042-0.003,0.064-0.003c0.207,0,0.413,0,0.62,0
		c0.019,0,0.038,0,0.057,0c0.021,0,0.035-0.012,0.044-0.03c0.024,0.004,0.042,0.021,0.062,0.033
		c0.226,0.136,0.451,0.273,0.676,0.409c0.268,0.162,0.537,0.324,0.805,0.486c0.018,0.011,0.035,0.022,0.053,0.033
		c-0.007,0.018-0.021,0.011-0.031,0.012c-0.012,0.001-0.024,0-0.036,0c-0.342-0.004-0.684-0.007-1.026-0.011
		c-0.394-0.004-0.789-0.007-1.183-0.011c-0.456-0.004-0.912-0.009-1.368-0.014c-0.451-0.005-0.903-0.009-1.354-0.014
		c-0.8-0.008-1.601-0.017-2.401-0.025c-0.075-0.001-0.07,0.004-0.07-0.069c0-0.316,0-0.632,0-0.948
		C1.142,10.939,1.144,10.922,1.145,10.906z"/>
	<path fill="#FFFF4B" d="M4.58,9.605C4.556,9.627,4.526,9.633,4.495,9.636c-0.017,0.001-0.033,0-0.05,0c-0.23,0-0.461,0-0.691,0
		c-0.028,0-0.056,0-0.084,0.009C3.648,9.651,3.623,9.65,3.6,9.65c-0.254,0-0.508,0-0.762,0c-0.033,0-0.066-0.001-0.098,0.01
		C2.717,9.667,2.692,9.664,2.668,9.664c-0.259,0-0.518,0-0.776,0c-0.031,0-0.061-0.002-0.091,0.01
		C1.786,9.68,1.768,9.679,1.751,9.679c-0.178,0-0.356,0-0.534,0c-0.007,0-0.014,0-0.021,0C1.162,9.677,1.156,9.671,1.155,9.635
		c-0.001-0.017,0-0.033,0-0.05c0-0.15,0-0.299-0.001-0.449c0-0.023,0.007-0.048-0.01-0.069C1.144,9.046,1.142,9.025,1.142,9.004
		c0-0.77,0-1.539,0-2.309c0-0.021,0.002-0.043,0.003-0.064c0.044,0.022,0.032,0.065,0.032,0.1c0.001,0.271,0.001,0.541,0.001,0.812
		c0,0.024,0.001,0.047,0.001,0.071c0,0.042,0.019,0.059,0.062,0.056C1.484,7.65,1.728,7.67,1.972,7.659
		C2.328,7.643,2.684,7.655,3.04,7.642c0.141-0.005,0.285,0.008,0.424-0.031c0.008,0.012,0.017,0.023,0.023,0.035
		C3.646,7.954,3.804,8.262,3.963,8.57c0.071,0.137,0.142,0.274,0.213,0.41C4.183,8.993,4.187,9.007,4.193,9.02
		c0.002,0.006,0.006,0.011,0.01,0.016c0.005,0.003,0.006,0.007,0.005,0.012c0.002,0.006,0.006,0.012,0.01,0.017
		c0.005,0.002,0.006,0.006,0.005,0.011c0.001,0.007,0.006,0.012,0.01,0.017c0.005,0.002,0.006,0.006,0.005,0.011
		c0,0.008,0.005,0.013,0.01,0.018C4.25,9.124,4.252,9.127,4.25,9.132c0,0.008,0.005,0.013,0.01,0.019
		c0.011,0.01,0.018,0.022,0.018,0.037c0,0.009,0.006,0.014,0.011,0.02L4.29,9.21c0.006,0.001,0.008,0.005,0.006,0.011
		c0.003,0.006,0.005,0.012,0.008,0.018C4.309,9.241,4.312,9.245,4.312,9.25c0.002,0.006,0.005,0.011,0.007,0.017
		c0.005,0.003,0.007,0.007,0.008,0.012c0.002,0.005,0.005,0.011,0.007,0.016C4.338,9.298,4.34,9.302,4.341,9.307
		c0.002,0.005,0.004,0.011,0.007,0.016C4.352,9.326,4.355,9.33,4.356,9.336c0.002,0.005,0.004,0.01,0.006,0.015
		C4.366,9.354,4.369,9.359,4.37,9.364c0.002,0.005,0.004,0.01,0.006,0.015C4.38,9.383,4.383,9.387,4.385,9.393
		c0.002,0.005,0.004,0.009,0.006,0.014C4.395,9.411,4.398,9.416,4.4,9.421C4.402,9.426,4.403,9.43,4.405,9.435
		C4.409,9.44,4.412,9.445,4.415,9.45C4.419,9.452,4.421,9.456,4.42,9.461c0.002,0.007,0.006,0.013,0.011,0.018
		C4.436,9.48,4.437,9.483,4.435,9.487c0,0.009,0.006,0.015,0.011,0.021l0,0.001c0.009,0.007,0.006,0.022,0.019,0.026
		C4.471,9.534,4.474,9.536,4.476,9.54c0.005,0.003,0.01,0.006,0.014,0.01l0,0c0.005,0.007,0.011,0.012,0.02,0.012
		c0.004-0.001,0.007,0,0.008,0.004c0.005,0.004,0.01,0.008,0.016,0.011L4.534,9.577c0.005,0.011,0.02,0.008,0.027,0.016l0.001,0
		C4.567,9.598,4.57,9.605,4.58,9.605L4.58,9.605z"/>
	<path fill="#FFFF81" d="M3.464,7.612C3.46,7.642,3.437,7.649,3.413,7.653C3.397,7.656,3.38,7.655,3.364,7.655c-0.05,0-0.1,0-0.15,0
		c-0.035,0-0.07-0.001-0.106,0.01C3.087,7.672,3.061,7.669,3.038,7.669c-0.256,0-0.513,0-0.769,0c-0.033,0-0.066-0.001-0.099,0.01
		C2.148,7.686,2.123,7.683,2.099,7.683c-0.249,0-0.499,0-0.748,0c-0.038,0-0.076-0.003-0.113,0.011
		C1.226,7.699,1.211,7.697,1.196,7.697C1.163,7.696,1.156,7.69,1.155,7.654c-0.001-0.019,0-0.038,0-0.057
		c0-0.297,0-0.594-0.001-0.89c0-0.025,0.008-0.052-0.009-0.076C1.143,6.607,1.142,6.584,1.142,6.56c0-0.979,0-1.958-0.001-2.937
		c0-0.024,0.002-0.047,0.003-0.071c0.011,0.012,0.01,0.026,0.01,0.04c0,0.045,0,0.09,0,0.135c0,0.458,0.001,0.916,0.001,1.374
		c0,0.114-0.011,0.1,0.105,0.101c0.057,0,0.114,0,0.171,0c0.031,0,0.061,0,0.091-0.01c0.022-0.007,0.047-0.004,0.071-0.004
		c0.254,0,0.508,0,0.762,0c0.038,0,0.075,0.002,0.113-0.011c0.019-0.007,0.042-0.003,0.064-0.003c0.254,0,0.508,0,0.762,0
		c0.033,0,0.066,0.002,0.098-0.011C3.403,5.159,3.419,5.16,3.433,5.16c0.05,0,0.1,0.001,0.149,0.001
		C3.543,5.224,3.504,5.286,3.464,5.347C3.373,5.489,3.281,5.63,3.189,5.771C3.078,5.941,2.966,6.111,2.854,6.282
		C2.845,6.296,2.836,6.31,2.827,6.324C2.818,6.337,2.819,6.35,2.826,6.364c0.006,0.01,0.011,0.021,0.016,0.032
		C2.94,6.587,3.038,6.779,3.137,6.971c0.087,0.168,0.175,0.336,0.262,0.505c0.009,0.017,0.021,0.032,0.022,0.052
		c0.009,0.007,0.006,0.02,0.014,0.027l0,0.001c0.008,0.007,0.006,0.021,0.014,0.028l0,0C3.458,7.591,3.455,7.605,3.464,7.612
		L3.464,7.612z"/>
	<path fill="#FFFF2A" d="M4.561,9.593c-0.012,0-0.023-0.003-0.027-0.016C4.546,9.578,4.555,9.582,4.561,9.593z"/>
	<path fill="#FFFF4B" d="M3.435,7.555C3.424,7.549,3.421,7.539,3.421,7.527C3.431,7.534,3.436,7.543,3.435,7.555z"/>
	<path fill="#FFFF4B" d="M3.449,7.583C3.438,7.577,3.435,7.567,3.435,7.555C3.445,7.562,3.45,7.571,3.449,7.583z"/>
	<path fill="#FFFF4B" d="M3.464,7.612C3.452,7.606,3.449,7.596,3.45,7.584C3.46,7.59,3.464,7.6,3.464,7.612z"/>
	<path fill="#FFFF2A" d="M4.466,9.535C4.452,9.532,4.448,9.521,4.447,9.509C4.453,9.517,4.459,9.526,4.466,9.535z"/>
	<path fill="#FFFF2A" d="M4.202,9.036C4.199,9.031,4.196,9.025,4.192,9.02C4.2,9.023,4.203,9.028,4.202,9.036z"/>
	<path fill="#FFFF2A" d="M4.217,9.065C4.213,9.059,4.21,9.054,4.207,9.048C4.214,9.051,4.217,9.057,4.217,9.065z"/>
	<path fill="#FFFF2A" d="M4.231,9.093c-0.007-0.004-0.01-0.01-0.01-0.017C4.229,9.079,4.232,9.085,4.231,9.093z"/>
	<path fill="#FFFF2A" d="M4.246,9.122C4.242,9.116,4.239,9.11,4.236,9.104C4.243,9.107,4.246,9.114,4.246,9.122z"/>
	<path fill="#FFFF2A" d="M4.26,9.151C4.253,9.146,4.25,9.14,4.25,9.132C4.258,9.136,4.261,9.142,4.26,9.151z"/>
	<path fill="#FFFF2A" d="M4.289,9.208c-0.007-0.005-0.011-0.012-0.011-0.02C4.287,9.192,4.29,9.199,4.289,9.208z"/>
	<path fill="#FFFF2A" d="M4.296,9.221C4.293,9.218,4.291,9.214,4.29,9.21C4.296,9.212,4.298,9.215,4.296,9.221z"/>
	<path fill="#FFFF2A" d="M4.312,9.25C4.308,9.247,4.305,9.243,4.305,9.238C4.31,9.24,4.313,9.243,4.312,9.25z"/>
	<path fill="#FFFF2A" d="M4.326,9.278C4.324,9.274,4.321,9.27,4.319,9.267C4.325,9.268,4.328,9.272,4.326,9.278z"/>
	<path fill="#FFFF2A" d="M4.341,9.307C4.338,9.303,4.336,9.299,4.333,9.295C4.339,9.297,4.342,9.3,4.341,9.307z"/>
	<path fill="#FFFF2A" d="M4.356,9.336C4.353,9.331,4.35,9.327,4.348,9.323C4.354,9.325,4.357,9.329,4.356,9.336z"/>
	<path fill="#FFFF2A" d="M4.37,9.364C4.368,9.36,4.365,9.355,4.362,9.351C4.368,9.353,4.372,9.357,4.37,9.364z"/>
	<path fill="#FFFF2A" d="M4.385,9.393C4.382,9.388,4.379,9.384,4.376,9.379C4.383,9.381,4.387,9.385,4.385,9.393z"/>
	<path fill="#FFFF2A" d="M4.4,9.421c-0.003-0.005-0.006-0.01-0.009-0.014C4.397,9.409,4.401,9.414,4.4,9.421z"/>
	<path fill="#FFFF2A" d="M4.415,9.45C4.411,9.445,4.408,9.44,4.405,9.435C4.412,9.438,4.415,9.443,4.415,9.45z"/>
	<path fill="#FFFF2A" d="M4.432,9.479C4.428,9.473,4.424,9.467,4.42,9.461C4.429,9.464,4.432,9.47,4.432,9.479z"/>
	<path fill="#FFFF2A" d="M4.446,9.508C4.439,9.503,4.435,9.496,4.435,9.487C4.444,9.491,4.447,9.499,4.446,9.508z"/>
	<path fill="#FFFF2A" d="M4.49,9.55C4.486,9.547,4.481,9.544,4.476,9.54C4.484,9.54,4.488,9.543,4.49,9.55z"/>
	<path fill="#FFFF2A" d="M4.511,9.562c-0.009,0-0.016-0.004-0.02-0.012C4.5,9.55,4.507,9.554,4.511,9.562z"/>
	<path fill="#FFFF2A" d="M4.535,9.577C4.53,9.574,4.524,9.57,4.519,9.567C4.527,9.566,4.533,9.569,4.535,9.577z"/>
	<path fill="#FFFF2A" d="M4.579,9.604c-0.008,0-0.014-0.004-0.018-0.011C4.57,9.593,4.576,9.596,4.579,9.604z"/>
	<path fill="#666666" d="M10.263,11.189c-0.024,0.002-0.039-0.016-0.056-0.027c-0.218-0.14-0.435-0.28-0.653-0.421
		c-0.301-0.194-0.603-0.389-0.904-0.583C8.381,9.985,8.112,9.811,7.842,9.638C7.553,9.451,7.263,9.265,6.974,9.078
		C6.702,8.904,6.431,8.729,6.16,8.554C6.028,8.469,5.896,8.384,5.764,8.3C5.738,8.283,5.716,8.263,5.698,8.236
		C5.575,8.05,5.45,7.865,5.326,7.68C5.203,7.497,5.081,7.313,4.958,7.129C4.859,6.981,4.76,6.833,4.661,6.685
		C4.65,6.669,4.64,6.653,4.631,6.637c-0.005-0.009,0-0.02,0.01-0.021c0.014-0.001,0.028-0.001,0.043-0.001
		c0.896,0,1.791,0,2.687,0.001c0.029,0,0.057,0.002,0.085,0c0.033-0.002,0.053,0.011,0.069,0.039c0.04,0.07,0.083,0.139,0.124,0.208
		C7.792,7.099,7.934,7.334,8.077,7.57c0.173,0.286,0.347,0.573,0.52,0.859c0.141,0.234,0.28,0.469,0.424,0.7
		c0.136,0.217,0.265,0.439,0.398,0.658c0.143,0.235,0.285,0.471,0.428,0.706c0.133,0.219,0.266,0.438,0.399,0.658
		C10.254,11.163,10.264,11.174,10.263,11.189L10.263,11.189z"/>
	<path fill="#FFFF37" d="M5.245,5.417c0.052-0.07,0.103-0.14,0.155-0.21c0.081-0.11,0.163-0.219,0.245-0.329
		c0.021-0.028,0.041-0.057,0.068-0.08C5.755,4.791,5.798,4.795,5.84,4.795c0.458,0.001,0.915-0.012,1.372-0.019
		C7.519,4.771,7.824,4.773,8.13,4.767c0.038-0.001,0.076-0.003,0.113-0.008c0.028-0.004,0.057-0.007,0.08,0.016
		c-0.028,0.06-0.067,0.114-0.103,0.17C8.098,5.139,7.974,5.333,7.85,5.527C7.833,5.553,7.82,5.581,7.797,5.602
		c-0.006,0.005-0.012,0.011-0.013,0.02c0,0.005-0.002,0.008-0.007,0.009C7.776,5.636,7.773,5.64,7.768,5.643L7.767,5.644
		C7.737,5.667,7.701,5.668,7.665,5.668C7.134,5.659,6.603,5.682,6.072,5.686C5.772,5.688,5.47,5.694,5.17,5.696
		c-0.039,0-0.082,0.009-0.114-0.024c0.003-0.004,0.006-0.009,0.009-0.013c0.002-0.005,0.006-0.009,0.01-0.012l0.001-0.001
		c0.004-0.005,0.01-0.01,0.012-0.016L5.087,5.63C5.095,5.626,5.1,5.62,5.101,5.611C5.1,5.606,5.102,5.603,5.107,5.601
		c0.002-0.005,0.006-0.009,0.01-0.013l0.001-0.001c0.005-0.005,0.009-0.01,0.012-0.016c0.002-0.012,0.01-0.02,0.019-0.027
		c0.002-0.005,0.006-0.009,0.01-0.012c0.006-0.019,0.018-0.033,0.032-0.045c0.003-0.005,0.006-0.009,0.01-0.012
		C5.208,5.456,5.22,5.442,5.235,5.43C5.238,5.425,5.241,5.421,5.245,5.417z"/>
	<path fill="#FFFF61" d="M8.324,4.775c-0.033,0.001-0.066,0-0.098,0.01C8.204,4.793,8.179,4.789,8.155,4.789
		c-0.258,0-0.517,0-0.775,0c-0.031,0-0.061,0-0.091,0.009c-0.022,0.007-0.047,0.005-0.07,0.005c-0.258,0-0.517,0-0.775,0
		c-0.033,0-0.066-0.002-0.098,0.01C6.33,4.82,6.312,4.818,6.296,4.818c-0.173,0-0.346,0-0.519,0c-0.023,0-0.048,0.006-0.064-0.019
		C5.721,4.785,5.729,4.77,5.739,4.757c0.1-0.135,0.201-0.269,0.301-0.405c0.021-0.029,0.047-0.051,0.078-0.07
		c0.183-0.113,0.365-0.229,0.547-0.343c0.02-0.012,0.037-0.029,0.062-0.034c0.042,0.011,0.085,0.01,0.127,0.005
		c0.166-0.021,0.332-0.012,0.497-0.012c0.448,0,0.896-0.025,1.344-0.014c0.061,0.001,0.128-0.034,0.183,0.022
		C8.872,3.918,8.866,3.931,8.859,3.943c-0.172,0.27-0.345,0.541-0.517,0.811C8.337,4.761,8.33,4.768,8.324,4.775z"/>
	<path fill="#FFFF8A" d="M8.878,3.905C8.864,3.903,8.85,3.902,8.837,3.898C8.82,3.892,8.804,3.889,8.788,3.896
		c-0.03,0.013-0.061,0.01-0.091,0.01c-0.254,0-0.508,0-0.762,0c-0.031,0-0.061,0-0.091,0.009C7.822,3.922,7.797,3.92,7.773,3.92
		c-0.256,0-0.513,0-0.769,0c-0.035,0-0.07,0.003-0.105,0.01c-0.044,0.008-0.09,0.004-0.135,0.003c-0.018,0-0.03-0.013-0.038-0.028
		c0,0,0,0,0,0c0.005-0.003,0.01-0.007,0.015-0.01C6.743,3.89,6.746,3.888,6.751,3.889c0.009,0,0.014-0.006,0.019-0.012l0,0
		c0.004-0.004,0.009-0.007,0.014-0.01C6.786,3.862,6.79,3.86,6.795,3.861C6.803,3.86,6.808,3.855,6.813,3.849l0.001-0.001
		c0.003-0.004,0.007-0.007,0.012-0.009c0.004-0.002,0.008-0.004,0.012-0.006c0.007-0.002,0.011-0.007,0.017-0.011l0.002-0.001
		c0.006-0.009,0.02-0.006,0.025-0.016l0,0c0.005-0.003,0.009-0.007,0.014-0.01C6.9,3.79,6.903,3.788,6.908,3.789
		c0.008-0.001,0.014-0.006,0.019-0.012l0.001-0.001C6.931,3.773,6.935,3.77,6.94,3.768c0.005-0.002,0.01-0.004,0.015-0.006
		c0.005-0.003,0.01-0.007,0.014-0.01c0.002-0.005,0.005-0.007,0.01-0.006c0.008,0,0.014-0.005,0.018-0.012l0.001-0.001
		C7.003,3.73,7.007,3.727,7.012,3.725C7.016,3.722,7.02,3.72,7.024,3.718c0.007-0.001,0.012-0.006,0.017-0.011l0.002-0.001
		c0.003-0.004,0.006-0.007,0.011-0.008C7.059,3.695,7.063,3.693,7.068,3.69c0.005-0.003,0.01-0.006,0.015-0.01
		C7.17,3.623,7.258,3.566,7.345,3.51c0.034-0.022,0.069-0.042,0.103-0.063c0.216-0.136,0.433-0.273,0.649-0.409
		c0.018-0.011,0.034-0.026,0.056-0.03c0.185,0.007,0.369,0.009,0.553-0.003C8.931,2.991,9.156,3,9.381,3.001
		c0.021,0,0.043,0.004,0.058,0.022c-0.003,0.02-0.017,0.034-0.027,0.05c-0.114,0.18-0.227,0.36-0.342,0.54
		C9.014,3.701,8.954,3.789,8.895,3.877C8.888,3.883,8.883,3.889,8.882,3.898l0,0.005L8.878,3.905z"/>
	<path fill="#FFFF10" d="M5.055,5.672C5.207,5.672,5.358,5.673,5.51,5.673c0.104,0,0.209,0,0.313,0c0.047,0,0.094,0.004,0.141-0.011
		c0.019-0.006,0.042-0.003,0.064-0.003c0.258,0,0.517,0,0.775,0c0.031,0,0.061,0.001,0.091-0.009
		c0.022-0.007,0.047-0.005,0.07-0.005c0.268,0,0.536,0,0.803-0.001C7.763,5.653,7.761,5.662,7.756,5.67
		C7.658,5.824,7.56,5.978,7.464,6.133c-0.019,0.03-0.04,0.04-0.074,0.04C6.938,6.172,6.487,6.172,6.037,6.172
		c-0.42,0-0.84,0-1.26-0.001c-0.028,0-0.056,0.006-0.083-0.005C4.69,6.131,4.719,6.113,4.736,6.09
		c0.099-0.133,0.199-0.266,0.299-0.398C5.041,5.684,5.048,5.678,5.055,5.672z"/>
	<path fill="#FFFFB3" d="M9.439,3.023c-0.23,0-0.461-0.001-0.691-0.001c-0.009,0-0.02-0.002-0.028,0.001
		c-0.058,0.02-0.117,0.012-0.176,0.013c-0.107,0.001-0.214,0-0.321,0c-0.017,0-0.033,0-0.05-0.002
		C8.16,3.032,8.155,3.02,8.153,3.008c0.022-0.026,0.055-0.037,0.082-0.054C8.47,2.805,8.704,2.657,8.939,2.51
		c0.299-0.188,0.598-0.376,0.897-0.564c0.136-0.086,0.273-0.172,0.409-0.257c0.02-0.012,0.04-0.024,0.058-0.034
		c0.011,0.004,0.012,0.007,0.009,0.011c-0.108,0.17-0.216,0.34-0.325,0.51C9.821,2.438,9.654,2.7,9.487,2.961
		C9.473,2.983,9.46,3.006,9.439,3.023z"/>
	<path fill="#FFFF61" d="M6.884,3.805C6.879,3.817,6.87,3.82,6.858,3.821C6.864,3.811,6.872,3.805,6.884,3.805z"/>
	<path fill="#FFFF10" d="M5.245,5.417C5.242,5.421,5.238,5.426,5.235,5.43C5.234,5.422,5.238,5.418,5.245,5.417z"/>
	<path fill="#FFFF10" d="M5.202,5.474c-0.003,0.004-0.007,0.008-0.01,0.012C5.192,5.48,5.195,5.476,5.202,5.474z"/>
	<path fill="#FFFF10" d="M5.16,5.532C5.156,5.536,5.153,5.54,5.15,5.544C5.149,5.537,5.153,5.533,5.16,5.532z"/>
	<path fill="#FFFF10" d="M5.13,5.571C5.126,5.577,5.122,5.582,5.118,5.588C5.118,5.579,5.122,5.574,5.13,5.571z"/>
	<path fill="#FFFF10" d="M5.117,5.589C5.114,5.593,5.11,5.597,5.107,5.601C5.107,5.594,5.11,5.59,5.117,5.589z"/>
	<path fill="#FFFF10" d="M7.785,5.622c0.001-0.009,0.005-0.016,0.013-0.02C7.797,5.611,7.793,5.618,7.785,5.622z"/>
	<path fill="#FFFF10" d="M5.101,5.611C5.1,5.62,5.095,5.626,5.087,5.63C5.088,5.621,5.092,5.614,5.101,5.611z"/>
	<path fill="#FFFF10" d="M5.088,5.629C5.084,5.634,5.079,5.64,5.075,5.645C5.076,5.637,5.08,5.631,5.088,5.629z"/>
	<path fill="#FFFF10" d="M7.768,5.643c0.003-0.004,0.007-0.008,0.01-0.012C7.778,5.638,7.774,5.642,7.768,5.643z"/>
	<path fill="#FFFF10" d="M5.075,5.646C5.071,5.65,5.068,5.654,5.064,5.658C5.064,5.651,5.068,5.647,5.075,5.646z"/>
	<path fill="#FFFF61" d="M8.882,3.898c0-0.009,0.004-0.016,0.013-0.021C8.895,3.887,8.891,3.894,8.882,3.898z"/>
	<path fill="#FFFF61" d="M7.083,3.68C7.08,3.687,7.075,3.69,7.068,3.69C7.07,3.683,7.075,3.679,7.083,3.68z"/>
	<path fill="#FFFF61" d="M7.054,3.698C7.05,3.7,7.047,3.703,7.043,3.706C7.044,3.7,7.048,3.696,7.054,3.698z"/>
	<path fill="#FFFF61" d="M7.041,3.707C7.037,3.714,7.032,3.718,7.024,3.718C7.027,3.71,7.033,3.707,7.041,3.707z"/>
	<path fill="#FFFF61" d="M7.012,3.725C7.008,3.728,7.003,3.731,6.999,3.734C7.001,3.727,7.005,3.724,7.012,3.725z"/>
	<path fill="#FFFF61" d="M6.998,3.735c-0.004,0.008-0.01,0.012-0.018,0.012C6.983,3.738,6.989,3.735,6.998,3.735z"/>
	<path fill="#FFFF61" d="M6.969,3.752c-0.005,0.003-0.01,0.007-0.014,0.01C6.957,3.754,6.961,3.751,6.969,3.752z"/>
	<path fill="#FFFF61" d="M6.94,3.768C6.936,3.771,6.932,3.774,6.928,3.777C6.929,3.77,6.933,3.767,6.94,3.768z"/>
	<path fill="#FFFF61" d="M6.927,3.778c-0.004,0.008-0.01,0.012-0.019,0.012C6.912,3.781,6.918,3.777,6.927,3.778z"/>
	<path fill="#FFFF61" d="M6.898,3.795c-0.005,0.003-0.009,0.007-0.014,0.01C6.886,3.797,6.89,3.794,6.898,3.795z"/>
	<path fill="#FFFF61" d="M6.856,3.822C6.85,3.825,6.845,3.829,6.839,3.833C6.842,3.825,6.848,3.821,6.856,3.822z"/>
	<path fill="#FFFF61" d="M6.827,3.839C6.823,3.842,6.819,3.846,6.814,3.849C6.816,3.842,6.82,3.839,6.827,3.839z"/>
	<path fill="#FFFF61" d="M6.813,3.849c-0.004,0.007-0.01,0.011-0.018,0.012C6.798,3.853,6.804,3.849,6.813,3.849z"/>
	<path fill="#FFFF61" d="M6.784,3.867C6.78,3.87,6.775,3.873,6.77,3.877C6.772,3.869,6.777,3.866,6.784,3.867z"/>
	<path fill="#FFFF61" d="M6.77,3.877C6.766,3.885,6.76,3.889,6.751,3.889C6.754,3.881,6.761,3.877,6.77,3.877z"/>
	<path fill="#FFFF61" d="M6.742,3.894c-0.005,0.003-0.01,0.007-0.015,0.01C6.728,3.897,6.733,3.893,6.742,3.894z"/>
	<polygon fill="#666666" points="10.262,11.19 10.267,11.193 10.263,11.189 	"/>
	<path fill="#666666" d="M22.175,1.905c0.012,0.007,0.024,0.014,0.036,0.021c0.209,0.135,0.419,0.271,0.628,0.406
		c0.289,0.187,0.579,0.373,0.868,0.559c0.265,0.171,0.531,0.342,0.796,0.513c0.293,0.189,0.587,0.378,0.88,0.567
		c0.381,0.246,0.762,0.491,1.143,0.737c0.044,0.028,0.087,0.057,0.132,0.084c0.038,0.022,0.067,0.05,0.091,0.087
		c0.096,0.147,0.193,0.293,0.291,0.44c0.143,0.215,0.285,0.432,0.431,0.645c0.104,0.151,0.202,0.305,0.304,0.456
		c0.009,0.014,0.018,0.028,0.027,0.042c0.005,0.009-0.001,0.02-0.011,0.021c-0.017,0.001-0.033,0.002-0.05,0.002
		c-0.914,0-1.829-0.001-2.743-0.001c-0.007,0-0.014-0.001-0.021,0c-0.033,0.004-0.052-0.01-0.068-0.038
		c-0.055-0.094-0.112-0.188-0.168-0.281c-0.145-0.24-0.29-0.479-0.435-0.719c-0.185-0.307-0.371-0.613-0.556-0.92
		c-0.139-0.229-0.275-0.461-0.417-0.688c-0.138-0.221-0.27-0.447-0.405-0.67c-0.148-0.243-0.295-0.487-0.443-0.731
		c-0.099-0.162-0.198-0.324-0.296-0.486c-0.007-0.012-0.014-0.025-0.021-0.037C22.17,1.911,22.173,1.908,22.175,1.905z"/>
	<path fill="#FFFFC4" d="M26.714,8.316c0.001,0.005-0.001,0.007-0.006,0.009c-0.003,0.005-0.006,0.01-0.011,0.014l0,0
		c-0.004,0.005-0.01,0.009-0.013,0.016l0.001-0.001c-0.03,0.017-0.062,0.023-0.096,0.022c-0.432-0.01-0.863,0.015-1.295,0.017
		c-0.368,0.001-0.735,0.016-1.103,0.011c-0.037-0.001-0.089,0.02-0.105-0.041c-0.001-0.005,0.001-0.008,0.005-0.01
		c0.004-0.005,0.007-0.01,0.01-0.015l0,0c0.01-0.006,0.007-0.02,0.016-0.026l0.001-0.002c0.004-0.006,0.009-0.01,0.011-0.017
		c0.002-0.004,0.004-0.008,0.006-0.012c0.002-0.005,0.005-0.009,0.01-0.012l0.001-0.002c0.004-0.005,0.008-0.01,0.012-0.015l0,0
		c0.01-0.006,0.006-0.019,0.016-0.025l0.001-0.002c0.004-0.005,0.008-0.011,0.011-0.017c0.002-0.004,0.004-0.009,0.007-0.013
		c0.002-0.005,0.005-0.009,0.009-0.012l0.001-0.001c0.005-0.005,0.01-0.01,0.011-0.018c0.01-0.018,0.019-0.038,0.031-0.055
		c0.094-0.15,0.189-0.3,0.284-0.449c0.035-0.055,0.074-0.109,0.111-0.163c0.025-0.011,0.051-0.009,0.077-0.008
		c0.521,0.008,1.042-0.012,1.563-0.018c0.301-0.004,0.601-0.004,0.902-0.008c0.055-0.001,0.112-0.03,0.166,0.007
		c-0.009,0.014-0.017,0.028-0.027,0.041c-0.192,0.256-0.383,0.511-0.575,0.767c-0.006,0.007-0.013,0.013-0.02,0.02
		C26.72,8.301,26.715,8.307,26.714,8.316z"/>
	<path fill="#FFFF9A" d="M24.086,8.362c0.007,0.01,0.016,0.018,0.029,0.018c0.019,0.001,0.038,0.001,0.057,0.001
		c0.239,0,0.479,0,0.718,0c0.038,0,0.075,0.002,0.112-0.011c0.019-0.007,0.042-0.003,0.063-0.003c0.254,0,0.507,0,0.761,0
		c0.033,0,0.066,0.003,0.098-0.01c0.013-0.005,0.028-0.004,0.042-0.004c0.239,0,0.479,0.001,0.718,0.001
		c-0.011,0.032-0.039,0.053-0.058,0.08c-0.078,0.107-0.158,0.213-0.237,0.319c-0.017,0.023-0.036,0.043-0.061,0.059
		c-0.233,0.145-0.465,0.291-0.698,0.437c-0.004,0.002-0.009,0.003-0.013,0.004c-0.087,0.011-0.175,0.02-0.262,0.019
		c-0.578-0.005-1.155,0.026-1.733,0.015c-0.036-0.001-0.082,0.016-0.104-0.035c0.006-0.013,0.012-0.026,0.019-0.037
		c0.175-0.275,0.35-0.551,0.526-0.826C24.07,8.38,24.079,8.371,24.086,8.362z"/>
	<path fill="#FFFF71" d="M23.519,9.253c0.015,0.017,0.035,0.012,0.053,0.013c0.078,0,0.157,0,0.235,0c0.204,0,0.408,0,0.613,0
		c0.031,0,0.061,0,0.091-0.009c0.022-0.007,0.047-0.005,0.071-0.005c0.252,0,0.503,0,0.755,0c0.035,0,0.07-0.005,0.105-0.01
		c0.058-0.007,0.118-0.017,0.175,0.011c-0.057,0.047-0.122,0.081-0.183,0.121c-0.07,0.045-0.141,0.088-0.211,0.132
		c-0.347,0.218-0.693,0.436-1.04,0.653c-0.088,0.055-0.177,0.108-0.266,0.162c-0.042,0.007-0.084,0.01-0.127,0.009
		c-0.269-0.008-0.538,0.024-0.808,0.014c-0.028-0.001-0.057,0.002-0.085-0.005c-0.031-0.007-0.054-0.021-0.035-0.059l0.001-0.001
		c0.005-0.005,0.01-0.011,0.012-0.018c-0.001-0.005,0.001-0.009,0.006-0.011c0.002-0.005,0.005-0.009,0.01-0.011l0.001-0.002
		c0.004-0.005,0.008-0.01,0.012-0.016c0.005-0.024,0.022-0.042,0.034-0.062c0.107-0.171,0.215-0.342,0.323-0.512
		c0.079-0.124,0.159-0.248,0.239-0.371C23.507,9.266,23.514,9.26,23.519,9.253z"/>
	<path fill="#FFFFEC" d="M27.349,7.469c-0.014,0-0.03-0.003-0.042,0.002c-0.051,0.017-0.103,0.013-0.155,0.013
		c-0.237,0-0.474,0-0.711,0c-0.033,0-0.066,0-0.098,0.01c-0.022,0.007-0.047,0.004-0.071,0.004c-0.258,0-0.517,0-0.775,0
		c-0.031,0-0.061-0.001-0.091,0.009c-0.017,0.006-0.037,0.005-0.056,0.005c-0.209,0-0.417,0-0.626,0
		c-0.029,0-0.057-0.001-0.083-0.016c0.009-0.017,0.017-0.034,0.027-0.05c0.095-0.151,0.19-0.301,0.285-0.451
		c0.003-0.004,0.005-0.008,0.007-0.012c0.021-0.042,0.052-0.058,0.102-0.057c0.29,0.003,0.579,0.002,0.869,0.002
		c0.579,0,1.158,0,1.738,0c0.025,0,0.051,0.001,0.074,0.001c0.007,0.019-0.004,0.027-0.011,0.036
		c-0.124,0.165-0.248,0.33-0.373,0.495C27.357,7.463,27.353,7.466,27.349,7.469z"/>
	<path fill="#FFFF38" d="M22.864,10.279c0.008,0.04,0.008,0.041,0.035,0.041c0.05,0.001,0.1,0,0.149,0c0.09,0,0.18,0,0.27,0
		c0.033,0,0.066,0.002,0.098-0.01c0.017-0.006,0.037-0.004,0.056-0.004c0.123,0,0.246,0,0.37,0c0.026,0,0.052,0,0.076,0.014
		c-0.049,0.042-0.106,0.071-0.16,0.106c-0.078,0.05-0.157,0.098-0.235,0.147c-0.34,0.213-0.679,0.427-1.019,0.64
		c-0.102,0.064-0.205,0.128-0.308,0.193c-0.006,0.004-0.012,0.009-0.018,0.011c-0.014,0.005-0.028,0.029-0.041,0.013
		c-0.011-0.013,0.01-0.029,0.017-0.042c0.01-0.019,0.023-0.036,0.034-0.054c0.143-0.224,0.286-0.448,0.429-0.672
		c0.071-0.112,0.142-0.225,0.213-0.337C22.84,10.308,22.847,10.29,22.864,10.279z"/>
	<path fill="#FFFF9A" d="M24.175,8.227c0,0.012-0.004,0.021-0.016,0.025C24.16,8.241,24.165,8.233,24.175,8.227z"/>
	<path fill="#FFFF9A" d="M24.118,8.312c0,0.012-0.004,0.022-0.016,0.026C24.102,8.326,24.108,8.317,24.118,8.312z"/>
	<path fill="#FFFF9A" d="M24.215,8.164c0,0.008-0.004,0.014-0.011,0.018C24.203,8.173,24.207,8.167,24.215,8.164z"/>
	<path fill="#FFFF9A" d="M24.203,8.183c-0.003,0.004-0.006,0.008-0.009,0.012C24.193,8.188,24.197,8.185,24.203,8.183z"/>
	<path fill="#FFFF9A" d="M24.187,8.208c0,0.008-0.004,0.013-0.011,0.017C24.176,8.217,24.179,8.211,24.187,8.208z"/>
	<path fill="#FFFF9A" d="M24.159,8.253c-0.001,0.007-0.005,0.012-0.012,0.015C24.148,8.26,24.151,8.254,24.159,8.253z"/>
	<path fill="#FFFF9A" d="M24.146,8.269c-0.003,0.004-0.007,0.008-0.01,0.012C24.135,8.274,24.139,8.27,24.146,8.269z"/>
	<path fill="#FFFF9A" d="M24.13,8.293c0,0.008-0.004,0.014-0.011,0.017C24.118,8.302,24.122,8.296,24.13,8.293z"/>
	<path fill="#FFFF9A" d="M26.714,8.316c0.001-0.01,0.005-0.016,0.014-0.02C26.727,8.306,26.723,8.313,26.714,8.316z"/>
	<path fill="#FFFF9A" d="M26.697,8.338c0.004-0.005,0.007-0.009,0.011-0.014C26.709,8.333,26.705,8.337,26.697,8.338z"/>
	<path fill="#FFFF9A" d="M24.102,8.338c0,0.007-0.004,0.012-0.01,0.015C24.091,8.344,24.094,8.339,24.102,8.338z"/>
	<path fill="#FFFF9A" d="M26.684,8.355c0.001-0.008,0.005-0.013,0.013-0.016C26.697,8.347,26.693,8.353,26.684,8.355z"/>
	<path fill="#FFFF38" d="M22.905,10.219c-0.004,0.005-0.008,0.011-0.012,0.016C22.894,10.227,22.897,10.221,22.905,10.219z"/>
	<path fill="#FFFF38" d="M22.892,10.237c-0.003,0.004-0.007,0.008-0.01,0.011C22.882,10.241,22.886,10.238,22.892,10.237z"/>
	<path fill="#FFFF38" d="M22.876,10.259c0,0.008-0.004,0.014-0.012,0.018C22.864,10.269,22.868,10.263,22.876,10.259z"/>
	<path d="M15.14,7.497c-0.009,0.008-0.016,0.016-0.017,0.028c-0.004,0.005-0.008,0.01-0.012,0.015L15.11,7.543
		c-0.005,0.002-0.008,0.006-0.01,0.011c-0.014,0.01-0.028,0.021-0.036,0.037c-0.137,0.106-0.296,0.13-0.463,0.127
		c-0.105-0.002-0.207-0.021-0.304-0.062c0,0-0.004-0.004-0.004-0.004l-0.006,0c-0.008-0.001-0.013-0.007-0.019-0.011L14.267,7.64
		c-0.003-0.005-0.007-0.008-0.012-0.009c-0.004-0.002-0.008-0.005-0.012-0.007c-0.007-0.003-0.012-0.007-0.017-0.013l0,0
		c-0.005-0.004-0.009-0.009-0.014-0.012L14.21,7.598c-0.004-0.005-0.008-0.009-0.013-0.013l-0.002-0.002
		c-0.003-0.005-0.008-0.009-0.013-0.013l-0.001-0.001c-0.004-0.005-0.008-0.01-0.012-0.014c-0.05-0.076-0.08-0.159-0.094-0.249
		c-0.009-0.059-0.005-0.117-0.003-0.176c0,0,0,0,0,0c0.008-0.014,0-0.032,0.011-0.045c0.004-0.003,0.005-0.007,0.002-0.011
		c0.006-0.01,0.005-0.022,0.011-0.031c0.004-0.003,0.005-0.006,0.003-0.011c0.003-0.006,0.006-0.012,0.009-0.017
		c0.053-0.098,0.132-0.166,0.231-0.212c0.026-0.012,0.053-0.019,0.082-0.019c0.145,0.001,0.289,0.001,0.434,0
		c0.032,0,0.061,0.006,0.089,0.02c0.064,0.032,0.122,0.072,0.168,0.128c0.007,0.009,0.016,0.017,0.024,0.025
		c0.01,0.006,0.007,0.02,0.016,0.027l0,0.001c0.005,0.006,0.011,0.012,0.011,0.021L15.163,7.01l0.004,0.003
		c0.007,0.009,0.005,0.021,0.013,0.03c-0.002,0.005-0.001,0.009,0.003,0.013c0.028,0.113,0.029,0.225-0.003,0.337
		c-0.009,0.029-0.02,0.058-0.03,0.087C15.147,7.486,15.144,7.492,15.14,7.497z"/>
	<path d="M14.156,5.841c0.002-0.005,0.001-0.008-0.003-0.011c-0.011-0.013-0.001-0.031-0.012-0.044
		c-0.001-0.014-0.001-0.028-0.002-0.042c-0.009-0.092-0.003-0.182,0.027-0.27c0.003-0.004,0.006-0.007,0.008-0.012
		c0.059-0.123,0.159-0.191,0.289-0.221c0.122-0.029,0.245-0.029,0.366,0.003c0.023,0.006,0.046,0.013,0.068,0.022
		c0.138,0.054,0.215,0.157,0.242,0.301c0.009,0.049,0.008,0.099,0.011,0.149c-0.012,0.017-0.009,0.036-0.012,0.055
		c-0.026,0.145-0.11,0.249-0.228,0.33c-0.014,0.01-0.029,0.013-0.047,0.013c-0.149,0-0.299-0.001-0.448,0
		c-0.02,0-0.037-0.006-0.052-0.018C14.32,6.064,14.281,6.03,14.247,5.99c-0.011-0.012-0.022-0.024-0.033-0.036
		c0.001-0.005-0.001-0.009-0.006-0.01c-0.003-0.005-0.006-0.01-0.01-0.014l0,0c-0.009-0.007-0.005-0.02-0.015-0.027l0-0.001
		c-0.007-0.008-0.005-0.021-0.013-0.028l0-0.001C14.16,5.864,14.161,5.851,14.156,5.841z"/>
	<path fill="#FFFF44" d="M14.082,7.085c0.001,0.016,0.002,0.032-0.011,0.045C14.068,7.113,14.065,7.097,14.082,7.085z"/>
	<path fill="#FFFF4B" d="M15.18,7.043c-0.009-0.008-0.014-0.018-0.013-0.03C15.179,7.02,15.181,7.031,15.18,7.043z"/>
	<path fill="#FFFF44" d="M14.095,7.042c0.001,0.012-0.001,0.023-0.011,0.031C14.083,7.061,14.084,7.05,14.095,7.042z"/>
	<path fill="#FFFF4B" d="M15.152,6.984c-0.01-0.006-0.015-0.015-0.016-0.027C15.148,6.962,15.152,6.972,15.152,6.984z"/>
	<path fill="#FFFF4B" d="M15.164,7.005c-0.008-0.004-0.012-0.012-0.011-0.021C15.16,6.989,15.164,6.996,15.164,7.005z"/>
	<path fill="#FFFF44" d="M14.108,7.014c0.001,0.008-0.002,0.014-0.009,0.017C14.102,7.025,14.105,7.02,14.108,7.014z"/>
	<path fill="#FFFF1D" d="M14.169,7.555c0.008,0.001,0.012,0.006,0.012,0.014C14.177,7.564,14.173,7.56,14.169,7.555z"/>
	<path fill="#FFFF1D" d="M14.183,7.571c0.008,0.001,0.012,0.005,0.013,0.013C14.191,7.579,14.187,7.575,14.183,7.571z"/>
	<path fill="#FFFF1D" d="M14.197,7.585c0.008,0.001,0.012,0.005,0.013,0.013C14.205,7.593,14.201,7.589,14.197,7.585z"/>
	<path fill="#FFFF1D" d="M14.211,7.599c0.008,0,0.013,0.005,0.014,0.012C14.221,7.607,14.216,7.603,14.211,7.599z"/>
	<path fill="#FFFF1D" d="M14.226,7.612c0.008,0.001,0.014,0.005,0.017,0.013C14.235,7.623,14.229,7.619,14.226,7.612z"/>
	<path fill="#FFFF1D" d="M14.255,7.631c0.007-0.001,0.01,0.003,0.012,0.009C14.263,7.637,14.259,7.634,14.255,7.631z"/>
	<path fill="#FFFF1D" d="M14.268,7.641c0.009,0,0.015,0.003,0.019,0.011C14.279,7.652,14.273,7.648,14.268,7.641z"/>
	<path fill="#FFFF1D" d="M15.14,7.497c-0.001-0.008,0.003-0.014,0.01-0.017C15.15,7.488,15.147,7.493,15.14,7.497z"/>
	<path fill="#FFFF1D" d="M15.111,7.541c0-0.008,0.004-0.013,0.012-0.015C15.119,7.53,15.115,7.536,15.111,7.541z"/>
	<path fill="#FFFF1D" d="M15.099,7.554c0-0.007,0.004-0.01,0.01-0.011C15.106,7.546,15.103,7.55,15.099,7.554z"/>
	<path fill="#FFFF8F" d="M14.141,5.786c0.011,0.013,0.013,0.028,0.012,0.044C14.137,5.818,14.14,5.802,14.141,5.786z"/>
	<path fill="#FFFF8F" d="M14.156,5.841c0.011,0.008,0.013,0.019,0.012,0.032C14.156,5.865,14.154,5.854,14.156,5.841z"/>
	<path fill="#FFFF8F" d="M14.168,5.873c0.01,0.007,0.014,0.016,0.013,0.028C14.171,5.895,14.168,5.885,14.168,5.873z"/>
	<path fill="#FFFF8F" d="M14.182,5.902c0.01,0.006,0.015,0.015,0.015,0.027C14.186,5.924,14.182,5.914,14.182,5.902z"/>
	<path fill="#FFFF8F" d="M14.197,5.93c0.007,0.002,0.011,0.006,0.01,0.014C14.204,5.939,14.201,5.934,14.197,5.93z"/>
</g>
</svg>
