<?xml version="1.0" encoding="utf-8"?>
<!-- Generator: Adobe Illustrator 24.3.0, SVG Export Plug-In . SVG Version: 6.00 Build 0)  -->
<svg version="1.1" id="Слой_1" xmlns="http://www.w3.org/2000/svg" xmlns:xlink="http://www.w3.org/1999/xlink" x="0px" y="0px"
	 width="32px" height="13px" viewBox="0 0 32 13" enable-background="new 0 0 32 13" xml:space="preserve">
<g>
	<path d="M24,6.496c0,0.005,0,0.01,0,0.015c-0.025,0.069-0.066,0.129-0.102,0.192c-0.214,0.371-0.428,0.742-0.642,1.112
		c-0.18,0.311-0.359,0.622-0.539,0.932c-0.191,0.33-0.383,0.66-0.572,0.991c-0.198,0.347-0.399,0.691-0.598,1.037
		c-0.231,0.402-0.463,0.802-0.694,1.204c-0.187,0.324-0.374,0.648-0.562,0.971c-0.012,0.02-0.019,0.049-0.053,0.045
		c-2.489,0-4.978,0-7.467,0c-0.026,0.003-0.034-0.017-0.044-0.034c-0.099-0.169-0.196-0.339-0.294-0.509
		c-0.162-0.28-0.324-0.561-0.486-0.842c-0.197-0.342-0.394-0.683-0.591-1.024c-0.15-0.26-0.302-0.519-0.45-0.78
		c-0.161-0.283-0.325-0.564-0.487-0.846c-0.151-0.263-0.304-0.526-0.456-0.79C9.794,7.879,9.625,7.587,9.456,7.294
		C9.313,7.046,9.17,6.798,9.026,6.551c-0.022-0.037-0.019-0.065,0.001-0.1C9.134,6.268,9.241,6.084,9.346,5.9
		c0.16-0.284,0.326-0.566,0.488-0.849c0.151-0.262,0.303-0.524,0.454-0.786c0.195-0.338,0.391-0.676,0.586-1.015
		c0.163-0.282,0.325-0.563,0.488-0.845c0.19-0.328,0.377-0.658,0.567-0.986c0.162-0.279,0.323-0.559,0.484-0.838
		c0.101-0.174,0.2-0.348,0.302-0.522c0.013-0.022,0.018-0.055,0.055-0.055c2.489,0,4.978,0,7.467,0
		c0.03-0.005,0.039,0.018,0.05,0.037c0.068,0.117,0.136,0.235,0.204,0.352c0.153,0.264,0.305,0.528,0.458,0.792
		c0.173,0.3,0.346,0.6,0.518,0.901c0.151,0.265,0.305,0.528,0.457,0.793c0.196,0.339,0.392,0.678,0.587,1.018
		c0.151,0.262,0.303,0.524,0.454,0.786c0.167,0.29,0.335,0.581,0.503,0.871c0.158,0.274,0.314,0.549,0.473,0.823
		C23.963,6.414,23.989,6.452,24,6.496z"/>
	<path fill="#545454" d="M20.254,0c0.001,0.002,0.002,0.004,0.001,0.007c-0.014,0-0.028,0.001-0.041,0.001c-2.47,0-4.939,0-7.409,0
		c-0.016,0-0.033,0-0.049,0.001C12.755,0.006,12.754,0.003,12.754,0C15.254,0,17.754,0,20.254,0z"/>
	<path fill="#5F5F5F" d="M20.255,12.993c0,0.002,0,0.005-0.001,0.007c-2.5,0-5,0-7.5,0c0-0.003,0.001-0.006,0.001-0.008
		c0.018,0,0.035,0.001,0.053,0.001c2.468,0,4.937,0,7.405,0C20.227,12.992,20.241,12.993,20.255,12.993z"/>
	<path fill="#666666" d="M10.099,6.424c-0.001-0.014,0.008-0.023,0.014-0.034c0.099-0.172,0.2-0.343,0.297-0.515
		c0.16-0.283,0.324-0.563,0.487-0.845c0.174-0.301,0.347-0.602,0.521-0.904c0.163-0.283,0.327-0.565,0.49-0.848
		c0.194-0.336,0.387-0.672,0.581-1.008c0.186-0.323,0.372-0.646,0.558-0.969c0.068-0.117,0.137-0.234,0.202-0.353
		c0.017-0.031,0.037-0.04,0.071-0.04c0.668,0.001,1.337,0.001,2.005,0.001c1.45,0,2.899,0,4.349,0c0.01,0,0.02,0.001,0.03,0
		c0.019-0.002,0.029,0.007,0.039,0.023c0.068,0.12,0.137,0.24,0.207,0.359c0.118,0.204,0.238,0.407,0.354,0.613
		c0.148,0.262,0.301,0.522,0.45,0.783c0.134,0.234,0.27,0.467,0.405,0.701c0.126,0.218,0.252,0.437,0.378,0.656
		c0.117,0.203,0.235,0.406,0.352,0.61c0.127,0.22,0.253,0.439,0.38,0.659c0.095,0.165,0.191,0.33,0.286,0.496
		c0.097,0.169,0.194,0.338,0.29,0.506c0.031,0.053,0.06,0.108,0.093,0.159c0.015,0.023,0.012,0.04,0,0.062
		c-0.05,0.084-0.099,0.169-0.148,0.254c-0.118,0.204-0.236,0.409-0.354,0.613c-0.117,0.203-0.235,0.406-0.352,0.61
		c-0.126,0.218-0.252,0.437-0.378,0.655c-0.117,0.203-0.235,0.406-0.352,0.61c-0.087,0.15-0.175,0.299-0.26,0.45
		c-0.151,0.268-0.307,0.533-0.46,0.8c-0.146,0.254-0.292,0.507-0.438,0.76c-0.136,0.235-0.271,0.469-0.407,0.704
		c-0.016,0.027-0.032,0.054-0.047,0.082c-0.009,0.016-0.02,0.025-0.039,0.023c-0.009-0.001-0.018,0-0.026,0
		c-2.065,0-4.131,0-6.196,0c-0.017,0-0.035,0.003-0.054-0.003c0.004-0.029,0.02-0.054,0.031-0.08
		c0.106-0.247,0.212-0.493,0.319-0.74c0.009-0.021,0.019-0.041,0.026-0.062c0.006-0.018,0.017-0.023,0.034-0.022
		c0.011,0.001,0.023,0,0.034,0c1.76,0,3.52,0,5.28,0.001c0.04,0,0.062-0.01,0.083-0.046c0.128-0.226,0.259-0.451,0.389-0.676
		c0.134-0.232,0.268-0.463,0.401-0.695c0.123-0.213,0.245-0.427,0.368-0.64c0.116-0.201,0.232-0.402,0.348-0.603
		c0.127-0.221,0.255-0.441,0.382-0.662c0.117-0.203,0.235-0.406,0.352-0.61c0.126-0.218,0.252-0.437,0.378-0.655
		c0.014-0.025,0.028-0.051,0.044-0.075c0.011-0.017,0.011-0.029,0-0.047c-0.071-0.12-0.14-0.241-0.209-0.362
		c-0.113-0.197-0.226-0.394-0.339-0.591c-0.128-0.222-0.256-0.443-0.384-0.665c-0.115-0.2-0.231-0.4-0.346-0.6
		c-0.129-0.223-0.258-0.445-0.386-0.668c-0.135-0.234-0.269-0.468-0.404-0.701c-0.166-0.288-0.333-0.576-0.499-0.864
		c-0.036-0.062-0.071-0.124-0.105-0.187c-0.01-0.019-0.023-0.029-0.045-0.026c-0.007,0.001-0.015,0-0.023,0
		c-1.766,0-3.533,0-5.299-0.001c-0.037,0-0.058,0.009-0.077,0.043c-0.102,0.182-0.206,0.362-0.31,0.543
		c-0.126,0.219-0.252,0.437-0.378,0.655c-0.129,0.223-0.257,0.446-0.386,0.669c-0.115,0.199-0.23,0.398-0.345,0.597
		c-0.129,0.223-0.257,0.446-0.386,0.669c-0.115,0.199-0.23,0.398-0.345,0.597c-0.096,0.166-0.191,0.333-0.286,0.5
		c-0.059,0.103-0.12,0.206-0.178,0.31c-0.013,0.023-0.028,0.03-0.054,0.03c-0.328-0.001-0.656-0.001-0.984-0.001
		C10.119,6.427,10.109,6.43,10.099,6.424z"/>
	<path fill="#2F7E00" d="M16.23,8.079c0.022,0,0.037,0,0.052,0c0.554,0,1.108,0,1.662,0c0.009,0,0.018,0,0.026,0
		c0.037,0,0.037,0,0.037,0.037c0,0.286,0,0.573,0,0.859c0,0.006,0,0.013,0,0.019c0.001,0.015-0.007,0.02-0.021,0.02
		c-0.009,0-0.018,0-0.026,0c-0.996,0-1.992,0-2.988,0c-0.051,0-0.047,0.004-0.047-0.046c0-0.27,0-0.54-0.001-0.81
		c0-0.026,0.007-0.045,0.026-0.062c0.136-0.128,0.267-0.262,0.402-0.392c0.111-0.106,0.218-0.216,0.328-0.321
		c0.129-0.123,0.256-0.248,0.38-0.376c0.13-0.134,0.259-0.269,0.382-0.411c0.112-0.13,0.219-0.265,0.305-0.415
		c0.074-0.129,0.127-0.265,0.143-0.413c0.013-0.111,0.011-0.222-0.027-0.33c-0.046-0.129-0.137-0.214-0.26-0.267
		c-0.08-0.034-0.164-0.053-0.251-0.062c-0.086-0.009-0.172-0.017-0.259-0.012c-0.113,0.006-0.225,0.008-0.338,0.019
		c-0.067,0.007-0.135,0.012-0.202,0.018c-0.073,0.007-0.147,0.017-0.22,0.027c-0.079,0.01-0.159,0.021-0.238,0.032
		c-0.022,0.003-0.045,0.005-0.067,0.01c-0.016,0.004-0.02-0.001-0.021-0.016c-0.001-0.036-0.004-0.073-0.006-0.109
		c-0.003-0.055-0.008-0.11-0.011-0.165c-0.005-0.092-0.013-0.185-0.02-0.277c-0.003-0.04-0.004-0.08-0.006-0.12
		c-0.004-0.051-0.009-0.102-0.01-0.154c-0.001-0.034-0.001-0.035,0.033-0.042c0.086-0.018,0.171-0.037,0.257-0.053
		c0.112-0.021,0.224-0.041,0.336-0.058c0.088-0.013,0.176-0.024,0.264-0.034c0.095-0.011,0.19-0.016,0.284-0.027
		c0.002,0,0.005,0,0.008,0c0.115-0.001,0.231-0.013,0.346-0.008c0.215,0.009,0.427,0.033,0.632,0.103
		c0.129,0.044,0.25,0.103,0.359,0.186c0.164,0.125,0.28,0.286,0.353,0.478c0.042,0.112,0.068,0.227,0.084,0.346
		c0.017,0.125,0.015,0.25,0.013,0.376c-0.004,0.194-0.032,0.384-0.092,0.569c-0.055,0.168-0.138,0.323-0.237,0.469
		c-0.087,0.128-0.185,0.247-0.287,0.363c-0.098,0.111-0.2,0.219-0.305,0.323c-0.092,0.092-0.19,0.179-0.286,0.268
		c-0.04,0.038-0.08,0.076-0.121,0.113c-0.1,0.092-0.198,0.185-0.297,0.278C16.278,8.031,16.251,8.048,16.23,8.079z"/>
	<path fill="#2F7E00" d="M13.203,12.2c-1.081-1.874-2.158-3.742-3.236-5.61c0.018-0.007,0.031-0.004,0.045-0.004
		c0.389,0,0.779,0,1.168,0c0.036,0,0.073,0.005,0.083-0.049c0.023,0.024,0.032,0.048,0.045,0.069
		c0.13,0.224,0.259,0.447,0.388,0.671c0.136,0.236,0.272,0.472,0.408,0.708c0.135,0.234,0.27,0.467,0.405,0.7
		c0.119,0.205,0.237,0.411,0.355,0.616c0.08,0.138,0.161,0.275,0.239,0.414c0.09,0.161,0.183,0.32,0.275,0.48
		c0.098,0.17,0.196,0.339,0.294,0.509c0.03,0.051,0.058,0.103,0.089,0.153c0.012,0.02,0.009,0.038,0.001,0.057
		c-0.033,0.077-0.067,0.154-0.1,0.231c-0.074,0.172-0.148,0.343-0.222,0.515c-0.067,0.155-0.134,0.311-0.201,0.466
		C13.23,12.148,13.223,12.172,13.203,12.2z"/>
</g>
</svg>
