<?xml version="1.0" encoding="utf-8"?>
<!-- Generator: Adobe Illustrator 24.3.0, SVG Export Plug-In . SVG Version: 6.00 Build 0)  -->
<svg version="1.1" id="Слой_1" xmlns="http://www.w3.org/2000/svg" xmlns:xlink="http://www.w3.org/1999/xlink" x="0px" y="0px"
	 width="32px" height="13px" viewBox="0 0 32 13" enable-background="new 0 0 32 13" xml:space="preserve">
<g>
	<path d="M15.937,12.548c-1.226,0-2.452,0-3.679,0.001c-0.057,0-0.101-0.007-0.121-0.067c-0.104-0.168-0.208-0.336-0.312-0.504
		c-0.118-0.19-0.235-0.379-0.353-0.569c-0.096-0.156-0.192-0.312-0.288-0.468c-0.103-0.166-0.206-0.332-0.308-0.497
		c-0.096-0.156-0.192-0.312-0.288-0.468c-0.102-0.166-0.205-0.332-0.308-0.498c-0.098-0.158-0.195-0.316-0.292-0.474
		C9.886,8.839,9.785,8.676,9.684,8.512c-0.099-0.16-0.197-0.32-0.296-0.48C9.306,7.899,9.224,7.768,9.143,7.636
		c-0.08-0.13-0.16-0.26-0.24-0.39c-0.1-0.162-0.2-0.324-0.3-0.486C8.546,6.67,8.491,6.58,8.435,6.49
		C8.423,6.472,8.426,6.456,8.437,6.438c0.113-0.181,0.226-0.363,0.339-0.545C8.874,5.736,8.97,5.577,9.068,5.419
		c0.1-0.162,0.201-0.324,0.301-0.486c0.08-0.13,0.16-0.26,0.24-0.39C9.71,4.379,9.811,4.215,9.913,4.051
		c0.099-0.16,0.197-0.32,0.296-0.48c0.079-0.128,0.158-0.256,0.237-0.384c0.083-0.134,0.165-0.268,0.248-0.402
		c0.1-0.162,0.2-0.324,0.3-0.486c0.079-0.128,0.158-0.256,0.237-0.384c0.103-0.166,0.206-0.332,0.308-0.498
		c0.1-0.162,0.199-0.325,0.299-0.487c0.107-0.174,0.215-0.348,0.322-0.522c0.013-0.021,0.028-0.03,0.051-0.027
		c0.016,0.002,0.033,0,0.049,0c2.448,0,4.895,0,7.343,0c0.087,0,0.086,0,0.132,0.074c0.103,0.168,0.208,0.336,0.311,0.504
		c0.099,0.16,0.197,0.32,0.295,0.481c0.097,0.158,0.195,0.316,0.293,0.474c0.083,0.134,0.166,0.268,0.249,0.402
		c0.082,0.132,0.163,0.264,0.245,0.396c0.08,0.13,0.16,0.26,0.24,0.39c0.101,0.164,0.203,0.328,0.304,0.492
		c0.098,0.158,0.194,0.316,0.292,0.474c0.101,0.164,0.203,0.328,0.304,0.492c0.081,0.132,0.162,0.264,0.244,0.396
		c0.096,0.156,0.193,0.312,0.289,0.468c0.082,0.132,0.163,0.264,0.245,0.396c0.103,0.166,0.205,0.332,0.308,0.498
		c0.025,0.04,0.048,0.081,0.074,0.12c0.014,0.021,0.012,0.038-0.001,0.058c-0.043,0.068-0.084,0.136-0.126,0.204
		c-0.104,0.168-0.208,0.336-0.311,0.504c-0.096,0.156-0.193,0.312-0.289,0.468c-0.083,0.134-0.166,0.268-0.248,0.402
		c-0.1,0.162-0.2,0.324-0.3,0.486c-0.08,0.13-0.16,0.26-0.24,0.39c-0.097,0.158-0.195,0.316-0.292,0.474
		c-0.083,0.134-0.166,0.268-0.249,0.402c-0.101,0.164-0.203,0.328-0.304,0.492c-0.079,0.128-0.158,0.256-0.237,0.384
		c-0.097,0.158-0.194,0.316-0.292,0.474c-0.105,0.17-0.21,0.34-0.315,0.51c-0.098,0.158-0.196,0.315-0.294,0.473
		c-0.063,0.102-0.125,0.204-0.188,0.307c-0.004,0.006-0.007,0.012-0.011,0.018c-0.052,0.076-0.024,0.065-0.116,0.065
		C18.389,12.548,17.163,12.548,15.937,12.548z"/>
	<path d="M0.204,6.49C0.223,6.479,0.24,6.469,0.257,6.459c1.089-0.586,2.178-1.172,3.266-1.758c1.298-0.699,2.595-1.398,3.893-2.097
		c0.84-0.453,1.68-0.905,2.521-1.358c0.023-0.012,0.045-0.025,0.069-0.036c0.113-0.051,0.239-0.029,0.328,0.054
		c0.088,0.082,0.1,0.218,0.05,0.297c-0.028,0.044-0.054,0.088-0.083,0.131C10.112,1.977,9.922,2.26,9.733,2.544
		C9.561,2.802,9.391,3.061,9.219,3.32c-0.134,0.202-0.27,0.402-0.404,0.604c-0.117,0.176-0.233,0.353-0.35,0.529
		C8.347,4.628,8.229,4.804,8.112,4.98C8.016,5.125,7.92,5.27,7.823,5.415c-0.12,0.18-0.24,0.36-0.36,0.54
		C7.387,6.07,7.311,6.186,7.232,6.301C7.213,6.329,7.215,6.349,7.234,6.376c0.135,0.19,0.268,0.38,0.402,0.571
		C7.751,7.11,7.865,7.274,7.98,7.438C8.1,7.609,8.221,7.78,8.341,7.952c0.117,0.168,0.234,0.336,0.351,0.503
		c0.117,0.168,0.235,0.335,0.353,0.502C9.162,9.124,9.278,9.292,9.396,9.46C9.494,9.6,9.593,9.741,9.692,9.881
		c0.098,0.141,0.197,0.281,0.295,0.422c0.119,0.169,0.238,0.338,0.357,0.508c0.1,0.142,0.199,0.285,0.299,0.428
		c0.042,0.06,0.082,0.121,0.125,0.179c0.062,0.084,0.072,0.174,0.029,0.266c-0.044,0.095-0.126,0.143-0.229,0.153
		c-0.065,0.007-0.125-0.01-0.183-0.041c-0.129-0.068-0.259-0.135-0.388-0.202c-0.899-0.468-1.798-0.935-2.696-1.403
		C6.335,9.689,5.369,9.186,4.404,8.684C3.201,8.058,1.998,7.432,0.795,6.806c-0.042-0.022-0.085-0.041-0.12-0.073
		C0.667,6.725,0.656,6.72,0.645,6.717c-0.042-0.01-0.079-0.031-0.116-0.05C0.436,6.619,0.345,6.572,0.253,6.524
		C0.237,6.515,0.218,6.509,0.204,6.49z"/>
	<path d="M31.685,6.122c-0.012,0.018-0.033,0.024-0.051,0.034c-0.503,0.271-1.006,0.542-1.509,0.812
		c-1.186,0.639-2.372,1.277-3.558,1.916c-1.041,0.561-2.082,1.121-3.123,1.681c-0.507,0.273-1.014,0.546-1.521,0.82
		c-0.065,0.035-0.131,0.052-0.203,0.043c-0.112-0.013-0.211-0.098-0.235-0.205c-0.014-0.062-0.009-0.122,0.026-0.177
		c0.049-0.077,0.1-0.154,0.15-0.23c0.101-0.153,0.204-0.305,0.305-0.458c0.116-0.174,0.232-0.348,0.347-0.523
		c0.099-0.149,0.198-0.297,0.297-0.446c0.12-0.18,0.24-0.36,0.36-0.54c0.1-0.151,0.2-0.302,0.3-0.453
		c0.096-0.145,0.193-0.29,0.289-0.435c0.1-0.151,0.201-0.301,0.301-0.452c0.119-0.178,0.237-0.356,0.356-0.534
		c0.1-0.151,0.2-0.302,0.3-0.453c0.043-0.065,0.086-0.129,0.129-0.194c0.012-0.017,0.023-0.035,0.035-0.055
		c-0.027-0.04-0.053-0.079-0.08-0.117c-0.14-0.2-0.281-0.4-0.421-0.6c-0.135-0.192-0.27-0.385-0.405-0.577
		c-0.117-0.167-0.234-0.335-0.351-0.503c-0.117-0.167-0.235-0.335-0.353-0.502c-0.097-0.139-0.194-0.277-0.291-0.416
		c-0.138-0.196-0.276-0.392-0.413-0.589c-0.117-0.168-0.234-0.335-0.351-0.503c-0.135-0.193-0.27-0.385-0.405-0.577
		c-0.117-0.167-0.234-0.335-0.352-0.503c-0.046-0.065-0.092-0.131-0.138-0.196c-0.043-0.063-0.061-0.13-0.045-0.207
		c0.024-0.117,0.134-0.2,0.246-0.209c0.063-0.005,0.121,0.008,0.177,0.037c0.171,0.09,0.342,0.178,0.513,0.267
		c0.769,0.4,1.539,0.801,2.308,1.201c1.287,0.67,2.573,1.339,3.86,2.009c0.974,0.507,1.948,1.013,2.922,1.52
		c0.04,0.021,0.08,0.04,0.114,0.07c0.007,0.006,0.015,0.012,0.024,0.014c0.083,0.022,0.153,0.07,0.229,0.108
		c0.059,0.029,0.117,0.06,0.176,0.09C31.659,6.101,31.675,6.107,31.685,6.122z"/>
	<path d="M4.679,12.316c-1.299,0-2.598,0-3.897,0c-0.04,0-0.079,0-0.119-0.009c-0.134-0.032-0.216-0.156-0.21-0.266
		c0.001-0.019,0-0.038,0-0.056c0-1.438,0-2.876,0-4.314c0-0.021,0-0.042,0-0.064C0.451,7.481,0.552,7.361,0.692,7.343
		c0.072-0.009,0.139,0.004,0.203,0.041c0.282,0.16,0.565,0.319,0.848,0.478c0.692,0.39,1.384,0.781,2.076,1.171
		c0.774,0.436,1.548,0.873,2.322,1.309c0.862,0.486,1.724,0.972,2.586,1.457c0.018,0.01,0.037,0.02,0.055,0.032
		c0.092,0.061,0.141,0.146,0.124,0.257c-0.017,0.11-0.086,0.18-0.191,0.214c-0.029,0.01-0.059,0.015-0.09,0.014
		c-0.028-0.001-0.056,0-0.085,0C7.253,12.316,5.966,12.316,4.679,12.316z"/>
	<path d="M4.855,0.365c1.29,0,2.579,0,3.869,0c0.035,0,0.071-0.001,0.106,0.001c0.112,0.008,0.21,0.085,0.241,0.187
		c0.032,0.104-0.002,0.211-0.089,0.277C8.961,0.847,8.938,0.86,8.916,0.872C8.328,1.204,7.741,1.535,7.153,1.866
		C6.144,2.435,5.134,3.005,4.125,3.574C3.179,4.107,2.233,4.64,1.287,5.173C1.209,5.217,1.131,5.261,1.053,5.304
		C1.005,5.332,0.953,5.342,0.897,5.341c-0.146-0.004-0.275-0.12-0.272-0.276c0-0.012,0-0.024,0-0.035c0-1.452,0-2.904,0-4.356
		c0-0.05,0.002-0.098,0.024-0.145C0.696,0.43,0.775,0.379,0.88,0.367c0.033-0.004,0.066-0.002,0.099-0.002
		C2.271,0.365,3.563,0.365,4.855,0.365z"/>
	<path d="M29.099,4.162c0,0.07,0,0.131,0,0.191c0,0.014-0.002,0.028-0.004,0.042c-0.001,0.003-0.007,0.007-0.01,0.007
		c-0.004,0-0.01-0.004-0.011-0.007c-0.003-0.014-0.005-0.028-0.005-0.042c-0.001-0.056-0.004-0.113-0.002-0.169
		c0.001-0.033-0.012-0.05-0.04-0.065c-0.269-0.15-0.537-0.302-0.805-0.453c-0.729-0.411-1.458-0.822-2.186-1.233
		c-0.802-0.453-1.605-0.905-2.407-1.358c-0.162-0.091-0.324-0.182-0.485-0.273c-0.012-0.007-0.025-0.013-0.037-0.021
		c-0.093-0.062-0.135-0.149-0.118-0.26c0.017-0.109,0.088-0.173,0.188-0.208c0.029-0.01,0.059-0.015,0.09-0.014
		c0.023,0.001,0.047,0,0.071,0c2.584,0,5.167,0,7.751,0c0.028,0,0.057-0.002,0.085,0.001c0.114,0.01,0.2,0.063,0.248,0.17
		c0.01,0.022,0.016,0.044,0.017,0.068c0.001,0.026,0.001,0.052,0.001,0.078c0,1.45,0,2.899,0,4.349c0,0.014-0.001,0.028,0,0.042
		c0.007,0.124-0.098,0.243-0.229,0.264c-0.072,0.011-0.14,0.001-0.204-0.036c-0.194-0.11-0.389-0.219-0.583-0.329
		C30,4.668,29.579,4.43,29.157,4.192C29.141,4.183,29.124,4.175,29.099,4.162z"/>
	<path d="M27.041,12.249c-1.299,0-2.598,0-3.897,0c-0.031,0-0.061,0.001-0.092-0.002c-0.105-0.01-0.222-0.094-0.238-0.225
		c-0.012-0.1,0.022-0.18,0.101-0.241c0.017-0.013,0.036-0.023,0.054-0.033c0.725-0.409,1.45-0.817,2.174-1.226
		c1.022-0.576,2.043-1.153,3.065-1.729c0.868-0.49,1.736-0.979,2.604-1.468c0.056-0.032,0.114-0.053,0.18-0.051
		c0.132,0.004,0.239,0.09,0.269,0.218c0.003,0.014,0.003,0.028,0.004,0.042c0.001,0.016,0,0.033,0,0.049c0,1.452,0,2.904,0,4.356
		c0,0.04-0.001,0.079-0.012,0.118c-0.029,0.105-0.137,0.183-0.24,0.19c-0.03,0.002-0.061,0.001-0.092,0.001
		C29.629,12.249,28.335,12.249,27.041,12.249z"/>
	<path fill="#666666" d="M12.839,11.699c0.026-0.066,0.064-0.12,0.096-0.178c0.066-0.119,0.134-0.237,0.202-0.356
		c0.055-0.096,0.11-0.192,0.164-0.288c0.01-0.018,0.023-0.029,0.045-0.028c0.021,0,0.042,0,0.064,0c1.709,0,3.417,0,5.126,0
		c0.03,0,0.063,0.008,0.091-0.005c0.028-0.014,0.036-0.048,0.052-0.073c0.105-0.17,0.21-0.34,0.315-0.51
		c0.06-0.098,0.122-0.196,0.182-0.294c0.084-0.136,0.168-0.272,0.252-0.408c0.075-0.122,0.151-0.244,0.226-0.366
		c0.1-0.162,0.2-0.324,0.3-0.486c0.105-0.17,0.211-0.34,0.315-0.51c0.132-0.214,0.263-0.429,0.395-0.643
		c0.096-0.156,0.193-0.312,0.29-0.468c0.1-0.162,0.2-0.324,0.3-0.486c0.021-0.034,0.042-0.068,0.063-0.102
		c0.012-0.02,0.013-0.04,0.001-0.06c-0.022-0.036-0.044-0.073-0.066-0.109c-0.108-0.176-0.216-0.353-0.325-0.529
		c-0.099-0.16-0.2-0.319-0.299-0.479c-0.099-0.16-0.196-0.321-0.294-0.481c-0.059-0.096-0.12-0.191-0.179-0.287
		c-0.085-0.138-0.17-0.276-0.255-0.414c-0.078-0.126-0.156-0.252-0.233-0.378c-0.086-0.14-0.172-0.28-0.259-0.42
		c-0.075-0.122-0.151-0.244-0.227-0.366c-0.085-0.138-0.17-0.276-0.255-0.414c-0.09-0.146-0.181-0.291-0.271-0.438
		c-0.017-0.028-0.037-0.04-0.069-0.037c-0.019,0.002-0.038,0-0.056,0c-0.795,0-1.591,0-2.386,0c-0.04,0-0.08-0.004-0.12-0.007
		c-0.017-0.001-0.025-0.012-0.025-0.028c-0.001-0.014-0.001-0.028-0.001-0.042c0-0.235,0-0.471,0-0.706c0-0.016,0-0.033,0.002-0.049
		c0.001-0.013,0.009-0.021,0.023-0.022C16.037,1.23,16.054,1.23,16.07,1.23c1.005,0,2.01,0,3.015,0c0.076,0,0.059-0.003,0.095,0.053
		c0.084,0.133,0.165,0.268,0.248,0.402c0.059,0.096,0.119,0.192,0.178,0.288c0.083,0.134,0.166,0.268,0.249,0.402
		c0.079,0.128,0.158,0.256,0.236,0.384c0.086,0.14,0.173,0.28,0.259,0.42c0.078,0.126,0.156,0.252,0.234,0.378
		c0.084,0.136,0.168,0.272,0.252,0.408c0.098,0.158,0.196,0.316,0.293,0.474c0.1,0.162,0.2,0.324,0.3,0.486
		c0.098,0.158,0.195,0.316,0.293,0.474c0.1,0.162,0.2,0.324,0.3,0.486c0.099,0.16,0.198,0.32,0.297,0.48
		c0.021,0.034,0.04,0.069,0.059,0.103c-0.02,0.034-0.039,0.069-0.059,0.103c-0.077,0.126-0.155,0.252-0.233,0.378
		c-0.144,0.232-0.287,0.464-0.431,0.696c-0.145,0.234-0.289,0.468-0.434,0.702c-0.125,0.202-0.25,0.404-0.375,0.606
		c-0.136,0.22-0.27,0.441-0.405,0.661c-0.136,0.22-0.273,0.439-0.409,0.659c-0.099,0.16-0.196,0.321-0.295,0.481
		s-0.199,0.319-0.298,0.479c-0.083,0.134-0.164,0.269-0.247,0.403c-0.001,0.002-0.002,0.004-0.003,0.006
		c-0.052,0.072-0.026,0.065-0.117,0.065c-2.052,0-4.104,0-6.157,0C12.892,11.707,12.868,11.711,12.839,11.699z"/>
	<path fill="#FBDF21" d="M11.959,2.213c-0.001-0.005,0.001-0.008,0.006-0.01c0.002-0.005,0.006-0.009,0.01-0.013l0-0.001
		c0.005-0.006,0.01-0.011,0.012-0.019c0.007-0.028,0.026-0.049,0.041-0.073c0.117-0.19,0.234-0.38,0.351-0.57
		c0.075-0.122,0.15-0.244,0.226-0.366c0.005-0.008,0.011-0.015,0.016-0.023c0.008-0.013,0.019-0.02,0.035-0.02
		c0.016,0,0.033,0,0.049,0c1.016,0,2.033,0,3.049,0c0.087,0,0.081-0.01,0.081,0.078c0,0.308,0,0.617,0,0.925
		c0,0.019,0,0.038-0.001,0.056C15.833,2.19,15.826,2.199,15.812,2.2c-0.021,0-0.042,0.001-0.063,0.001c-0.788,0-1.576,0-2.365,0
		c-0.086,0-0.086,0-0.132,0.074c-0.063,0.102-0.125,0.204-0.188,0.306c-0.01,0.016-0.022,0.031-0.033,0.046
		c-0.032,0.036-0.073,0.046-0.119,0.052c-0.12,0.015-0.239,0.013-0.359,0.013c-0.254,0.001-0.507,0.024-0.761,0.013
		c-0.04-0.002-0.095,0.013-0.102-0.055c-0.001-0.005,0.001-0.007,0.006-0.009c0.003-0.005,0.007-0.01,0.011-0.014l0,0
		c0.009-0.007,0.006-0.02,0.015-0.027l0.001-0.001c0.004-0.006,0.01-0.011,0.011-0.019c-0.001-0.005,0.001-0.008,0.005-0.01
		c0.003-0.005,0.007-0.01,0.01-0.015l0,0.001c0.007-0.004,0.012-0.01,0.013-0.019c-0.001-0.004,0.001-0.008,0.005-0.01
		c0.004-0.005,0.007-0.011,0.01-0.016c-0.001-0.005,0.001-0.009,0.005-0.012c0.002-0.005,0.005-0.01,0.01-0.014l0,0
		c0.006-0.005,0.012-0.011,0.012-0.02c0-0.005,0.002-0.007,0.006-0.009c0.003-0.005,0.006-0.01,0.01-0.014l0,0
		c0.009-0.007,0.006-0.02,0.015-0.027l0.001-0.001c0.004-0.006,0.01-0.011,0.011-0.019c-0.001-0.005,0.001-0.008,0.005-0.01
		c0.003-0.005,0.006-0.01,0.011-0.014l0,0c0.006-0.005,0.011-0.011,0.012-0.019c-0.001-0.005,0.001-0.008,0.005-0.01
		c0.003-0.005,0.007-0.01,0.01-0.016L11.889,2.33c0.011-0.006,0.008-0.02,0.016-0.028l0,0c0.006-0.005,0.011-0.011,0.012-0.019
		c-0.001-0.005,0.001-0.008,0.006-0.01c0.003-0.005,0.006-0.01,0.01-0.014l0,0c0.009-0.007,0.006-0.02,0.015-0.027l0.001-0.001
		C11.953,2.226,11.958,2.221,11.959,2.213z"/>
	<path fill="#F37523" d="M12.062,8.739c0.009,0.011,0.019,0.02,0.027,0.032c0.135,0.218,0.269,0.437,0.403,0.655
		c0.152,0.246,0.305,0.492,0.457,0.738c0.106,0.172,0.212,0.344,0.318,0.517c0.002,0.004,0.003,0.009,0.004,0.013
		c0.002,0.006-0.001,0.01-0.007,0.01c-0.035-0.002-0.054,0.016-0.071,0.046c-0.132,0.236-0.265,0.471-0.399,0.706
		c-0.054,0.096-0.109,0.192-0.164,0.288c-0.016,0.028-0.024,0.028-0.043-0.002c-0.069-0.112-0.138-0.224-0.207-0.336
		c-0.104-0.168-0.208-0.336-0.312-0.504c-0.096-0.156-0.192-0.312-0.289-0.468c-0.121-0.196-0.243-0.392-0.364-0.588
		c-0.114-0.184-0.227-0.368-0.34-0.552c-0.085-0.138-0.171-0.276-0.256-0.414c-0.016-0.026-0.029-0.053-0.044-0.08
		c0.017-0.013,0.035-0.009,0.054-0.006c0.131,0.021,0.261,0.017,0.392,0.003c0.037-0.004,0.075-0.006,0.112-0.005
		c0.206,0.007,0.412-0.011,0.618-0.014C11.994,8.778,12.027,8.756,12.062,8.739z"/>
	<path fill="#F59122" d="M12.062,8.739c-0.021,0.055-0.027,0.06-0.079,0.06c-0.042,0.001-0.084,0-0.126,0
		c-0.042,0-0.084-0.003-0.125,0.011c-0.017,0.006-0.037,0.003-0.056,0.003c-0.129,0-0.258,0-0.386,0
		c-0.028,0-0.056-0.001-0.083,0.009c-0.017,0.006-0.037,0.005-0.055,0.005c-0.073,0.001-0.145-0.001-0.218,0.001
		c-0.045,0.001-0.088-0.004-0.13-0.022c-0.008-0.004-0.018-0.005-0.027-0.007c-0.049-0.063-0.086-0.134-0.129-0.201
		c-0.105-0.167-0.208-0.335-0.311-0.503c-0.099-0.16-0.197-0.32-0.296-0.48C9.942,7.457,9.844,7.299,9.746,7.141
		c-0.043-0.07-0.087-0.14-0.13-0.21C9.609,6.92,9.605,6.906,9.599,6.894C9.649,6.874,9.696,6.901,9.745,6.9
		c0.347-0.004,0.693-0.012,1.039-0.029c0.04-0.002,0.072-0.019,0.105-0.036c0.04,0.063,0.082,0.126,0.121,0.189
		c0.105,0.17,0.21,0.339,0.315,0.509c0.021,0.034,0.04,0.069,0.059,0.103c0.001,0.007,0.006,0.013,0.011,0.018l0.001,0.002
		c0.009,0.006,0.006,0.02,0.015,0.026l0,0c0.004,0.004,0.007,0.008,0.01,0.013c0.004,0.002,0.006,0.005,0.006,0.009
		c0,0.009,0.006,0.014,0.012,0.019l0,0c0.004,0.004,0.007,0.008,0.009,0.013c0.002,0.004,0.004,0.008,0.006,0.013
		c0.003,0.005,0.006,0.011,0.01,0.016c0.004,0.002,0.006,0.006,0.005,0.01c0.001,0.008,0.006,0.014,0.013,0.018l0,0
		c0.003,0.005,0.007,0.01,0.01,0.014c0.004,0.002,0.006,0.006,0.005,0.011c0.001,0.007,0.007,0.013,0.011,0.018l0.001,0.002
		c0.009,0.006,0.006,0.02,0.015,0.026l0,0c0.004,0.005,0.007,0.01,0.011,0.014c0.004,0.002,0.005,0.004,0.005,0.008
		c0,0.009,0.006,0.015,0.012,0.02l0,0c0.004,0.004,0.007,0.008,0.009,0.013c0.002,0.004,0.004,0.008,0.006,0.012
		c0.003,0.005,0.006,0.011,0.01,0.016c0.008,0.008,0.017,0.015,0.018,0.027c0.003,0.005,0.007,0.01,0.01,0.016
		C11.609,7.996,11.611,8,11.61,8.004c0.001,0.008,0.007,0.013,0.011,0.019l0.001,0.001c0.009,0.006,0.006,0.02,0.016,0.026
		l-0.001-0.001c0.003,0.005,0.007,0.01,0.011,0.015c0.004,0.002,0.005,0.004,0.004,0.008c0,0.009,0.006,0.015,0.012,0.02l0,0
		c0.004,0.004,0.007,0.008,0.01,0.013c0.004,0.003,0.006,0.007,0.006,0.012c0.003,0.007,0.008,0.011,0.012,0.017l0.001,0.001
		c0.005,0.003,0.008,0.007,0.01,0.012c0.002,0.004,0.004,0.008,0.006,0.012c0.003,0.005,0.007,0.011,0.01,0.016
		c0.004,0.002,0.006,0.006,0.005,0.01c0.001,0.008,0.007,0.013,0.011,0.019l0.001,0.001c0.009,0.006,0.006,0.021,0.017,0.026
		l-0.001-0.001c0.003,0.006,0.007,0.011,0.011,0.016c0.004,0.002,0.005,0.004,0.004,0.008c0,0.009,0.006,0.015,0.012,0.02l0,0
		c0.004,0.004,0.007,0.008,0.01,0.014c0.004,0.003,0.006,0.007,0.006,0.012c0.003,0.007,0.007,0.012,0.012,0.017l0.001,0.001
		c0.005,0.003,0.008,0.007,0.01,0.013c0.002,0.004,0.004,0.008,0.006,0.012c0.003,0.005,0.007,0.011,0.01,0.016
		c0.004,0.002,0.006,0.006,0.005,0.01c0.001,0.008,0.007,0.013,0.011,0.019l0.001,0.001c0.005,0.003,0.008,0.007,0.01,0.012
		c0.004,0.002,0.006,0.006,0.006,0.011c0.002,0.007,0.007,0.013,0.011,0.019l0.001,0.001c0.009,0.006,0.006,0.02,0.015,0.026l0,0
		c0.004,0.004,0.007,0.008,0.01,0.014c0.004,0.003,0.006,0.006,0.006,0.011c0.002,0.007,0.007,0.013,0.013,0.018l0,0
		c0.004,0.004,0.008,0.008,0.01,0.013c0.004,0.003,0.006,0.007,0.005,0.012c0.003,0.005,0.007,0.011,0.01,0.016
		c0.004,0.002,0.005,0.006,0.005,0.01c0.002,0.008,0.007,0.013,0.012,0.019l0,0c0.004,0.004,0.008,0.008,0.011,0.013
		c0.004,0.002,0.006,0.006,0.005,0.01c0.002,0.007,0.007,0.013,0.011,0.019l0.001,0.001c0.01,0.006,0.006,0.02,0.015,0.026l0,0
		c0.004,0.004,0.008,0.009,0.01,0.014c0.004,0.001,0.006,0.004,0.006,0.009c0.001,0.009,0.006,0.014,0.012,0.02l0,0
		c0.004,0.004,0.007,0.008,0.01,0.013c0.004,0.003,0.006,0.007,0.005,0.012c0.003,0.005,0.007,0.011,0.01,0.016
		C12.061,8.731,12.063,8.734,12.062,8.739z"/>
	<path fill="#F9C922" d="M11.69,2.65c0.009,0.021,0.024,0.034,0.048,0.034c0.012,0,0.023,0,0.035,0c0.148,0,0.296,0,0.443,0
		c0.026,0,0.051-0.001,0.076-0.009c0.02-0.006,0.042-0.005,0.063-0.005c0.134,0,0.267,0,0.401,0c0.03,0,0.061,0.002,0.09-0.01
		c0.01-0.004,0.023-0.005,0.035-0.003c0.053,0.007,0.102-0.008,0.149-0.029c-0.018,0.049-0.051,0.09-0.078,0.134
		c-0.179,0.293-0.36,0.584-0.54,0.876c-0.089,0.144-0.178,0.288-0.267,0.432c-0.012,0.02-0.027,0.038-0.041,0.057
		c-0.046,0.046-0.104,0.064-0.167,0.062c-0.251-0.008-0.502,0.016-0.753,0.015c-0.103,0-0.206,0.001-0.31,0.011
		c-0.045,0.005-0.104,0.013-0.114-0.06l0-0.001c0.004-0.006,0.01-0.01,0.011-0.017l-0.001,0.001c0.012-0.005,0.008-0.02,0.017-0.026
		l0-0.001c0.005-0.006,0.01-0.011,0.011-0.019c-0.001-0.004,0.001-0.008,0.005-0.01c0.003-0.005,0.007-0.01,0.01-0.016l-0.001,0.001
		c0.011-0.006,0.008-0.02,0.017-0.026l0.001-0.001c0.004-0.006,0.009-0.011,0.012-0.018c-0.001-0.005,0.001-0.009,0.005-0.012
		c0.002-0.005,0.006-0.01,0.01-0.014l0,0c0.009-0.007,0.006-0.02,0.015-0.027l0-0.001c0.004-0.006,0.01-0.01,0.012-0.016
		l-0.001,0.001c0.011-0.005,0.008-0.02,0.017-0.026l0-0.001c0.005-0.006,0.01-0.011,0.011-0.019
		c-0.001-0.005,0.001-0.008,0.005-0.01c0.004-0.005,0.007-0.011,0.01-0.016c0.001-0.012,0.009-0.019,0.018-0.026
		c0.004-0.005,0.007-0.011,0.01-0.017c-0.001-0.005,0.001-0.009,0.005-0.012c0.002-0.005,0.006-0.01,0.01-0.014l0,0
		c0.009-0.007,0.006-0.02,0.015-0.026l0.001-0.001C10.992,3.78,10.997,3.776,11,3.77L11,3.771c0.01-0.006,0.007-0.02,0.016-0.027
		l0-0.001c0.005-0.006,0.01-0.011,0.011-0.019c-0.001-0.005,0.001-0.008,0.005-0.01c0.003-0.005,0.007-0.01,0.01-0.015L11.042,3.7
		c0.007-0.004,0.012-0.01,0.014-0.019c-0.001-0.004,0.001-0.007,0.005-0.009c0.004-0.005,0.007-0.011,0.01-0.017
		c0.014-0.043,0.044-0.077,0.067-0.115c0.134-0.218,0.269-0.435,0.403-0.653c0.042-0.068,0.083-0.136,0.125-0.204
		C11.673,2.671,11.682,2.661,11.69,2.65z"/>
	<path fill="#F7A822" d="M10.889,6.835c-0.007,0.042-0.033,0.059-0.074,0.058c-0.103-0.004-0.204,0.02-0.308,0.015
		c-0.101-0.005-0.201-0.001-0.302-0.001c-0.023,0-0.047-0.001-0.069,0.008c-0.022,0.009-0.046,0.006-0.07,0.006
		c-0.103,0-0.206-0.002-0.309,0.001C9.702,6.923,9.65,6.914,9.599,6.894C9.564,6.861,9.547,6.816,9.522,6.777
		C9.463,6.686,9.408,6.593,9.35,6.502c-0.016-0.025-0.017-0.045,0-0.071C9.448,6.276,9.544,6.12,9.64,5.965
		c0.099-0.16,0.197-0.32,0.295-0.48c0.025-0.04,0.051-0.078,0.077-0.117c0.047,0.031,0.099,0.037,0.154,0.035
		c0.366-0.012,0.731-0.018,1.097-0.033c0.023-0.001,0.047-0.007,0.066,0.013c-0.038,0.064-0.075,0.129-0.114,0.193
		c-0.103,0.167-0.206,0.334-0.31,0.501c-0.073,0.117-0.146,0.234-0.219,0.351c-0.003,0.005-0.006,0.01-0.01,0.014l0,0
		c-0.007,0.005-0.012,0.011-0.012,0.02l0,0.002c0,0.008,0.005,0.013,0.008,0.02c0.004,0.002,0.006,0.006,0.005,0.011
		c0.001,0.007,0.006,0.012,0.011,0.018c0.004,0.001,0.005,0.004,0.004,0.008c0,0.009,0.006,0.015,0.012,0.02l0,0
		c0.004,0.004,0.008,0.008,0.01,0.013c0.004,0.002,0.006,0.005,0.006,0.009c0.001,0.009,0.006,0.014,0.012,0.02l0,0
		c0.008,0.007,0.005,0.021,0.016,0.027l-0.001-0.001c0.003,0.005,0.007,0.01,0.01,0.015c0.004,0.002,0.006,0.005,0.005,0.01
		c0.002,0.008,0.007,0.014,0.013,0.018l0,0c0.004,0.005,0.007,0.009,0.01,0.014c0.004,0.002,0.006,0.006,0.005,0.011
		c0.002,0.007,0.007,0.012,0.011,0.018c0.004,0.001,0.005,0.004,0.004,0.008c0,0.009,0.006,0.015,0.012,0.02l0,0
		c0.004,0.004,0.008,0.009,0.01,0.014c0.004,0.001,0.006,0.004,0.006,0.009c0.001,0.009,0.006,0.015,0.012,0.02l0,0
		c0.008,0.007,0.005,0.021,0.016,0.027l-0.001-0.001c0.003,0.005,0.007,0.01,0.01,0.015c0.004,0.002,0.006,0.005,0.005,0.009
		C10.877,6.825,10.882,6.831,10.889,6.835L10.889,6.835z"/>
	<path fill="#F8B922" d="M11.33,5.383c-0.102,0.02-0.205,0.011-0.307,0.013c-0.019,0-0.038-0.001-0.055,0.005
		C10.939,5.41,10.912,5.41,10.884,5.41c-0.129,0-0.258,0-0.386,0c-0.028,0-0.056-0.001-0.083,0.009
		c-0.015,0.005-0.032,0.005-0.048,0.005c-0.094,0-0.187-0.001-0.281,0.001c-0.035,0.001-0.059-0.007-0.066-0.044
		c-0.001-0.004-0.004-0.009-0.006-0.013l0,0c0.006-0.005,0.01-0.011,0.013-0.018c-0.001-0.005,0.001-0.009,0.005-0.011
		c0.003-0.005,0.006-0.01,0.01-0.014l0,0c0.009-0.007,0.006-0.02,0.015-0.027l0-0.001c0.005-0.006,0.01-0.011,0.011-0.019
		c0-0.005,0.002-0.008,0.006-0.01c0.002-0.005,0.005-0.009,0.01-0.013l0-0.001c0.005-0.006,0.011-0.011,0.012-0.019
		c-0.001-0.004,0.001-0.008,0.005-0.009c0.004-0.005,0.007-0.011,0.01-0.017c-0.001-0.005,0.001-0.009,0.005-0.012
		c0.002-0.005,0.006-0.009,0.01-0.013l0-0.001c0.005-0.005,0.01-0.011,0.012-0.018c-0.001-0.005,0.001-0.009,0.005-0.011
		c0.003-0.005,0.006-0.01,0.01-0.014l0,0c0.009-0.007,0.006-0.02,0.015-0.027l0-0.001c0.004-0.006,0.01-0.01,0.012-0.016
		L10.18,5.098c0.011-0.005,0.008-0.02,0.017-0.026l0-0.001c0.005-0.006,0.01-0.011,0.011-0.019c-0.001-0.004,0.001-0.008,0.005-0.01
		c0.004-0.005,0.007-0.011,0.01-0.017c-0.001-0.005,0.001-0.009,0.006-0.012c0.002-0.005,0.005-0.009,0.01-0.012L10.24,5
		c0.004-0.006,0.009-0.011,0.011-0.018c-0.001-0.005,0.001-0.009,0.005-0.011c0.003-0.005,0.006-0.01,0.01-0.014l0,0
		c0.009-0.006,0.006-0.02,0.015-0.026l0.001-0.001c0.004-0.006,0.009-0.01,0.012-0.016l-0.001,0.001
		c0.01-0.006,0.007-0.02,0.016-0.027l0-0.001c0.005-0.006,0.01-0.011,0.011-0.019c-0.001-0.004,0.001-0.008,0.005-0.01
		c0.004-0.005,0.007-0.01,0.01-0.015l-0.001,0.001c0.008-0.004,0.013-0.01,0.014-0.019c-0.001-0.004,0.001-0.007,0.005-0.009
		c0.004-0.006,0.008-0.01,0.01-0.017c-0.001-0.005,0.001-0.009,0.005-0.012c0.003-0.005,0.006-0.01,0.01-0.014l0,0
		c0.009-0.006,0.006-0.02,0.015-0.026l0.001-0.002c0.004-0.005,0.008-0.011,0.012-0.016l0,0.001c0.01-0.006,0.007-0.02,0.016-0.027
		l0-0.001c0.005-0.006,0.01-0.011,0.011-0.019c-0.001-0.004,0.001-0.008,0.005-0.01c0.003-0.005,0.007-0.01,0.011-0.015l0,0.001
		c0.007-0.004,0.012-0.01,0.013-0.019c-0.001-0.004,0.001-0.007,0.005-0.009c0.004-0.005,0.007-0.011,0.01-0.017
		c-0.001-0.005,0.001-0.009,0.005-0.012c0.003-0.005,0.006-0.01,0.01-0.014l0,0c0.009-0.006,0.006-0.02,0.016-0.025l0.002-0.002
		c0.003-0.005,0.007-0.011,0.011-0.015l0,0c0.009-0.006,0.006-0.02,0.015-0.027l0-0.001c0.005-0.006,0.01-0.011,0.011-0.019
		c-0.001-0.004,0.001-0.008,0.005-0.01c0.003-0.005,0.007-0.01,0.011-0.014l0,0c0.006-0.005,0.012-0.011,0.013-0.019
		c-0.001-0.004,0.001-0.007,0.005-0.009c0.004-0.005,0.007-0.011,0.01-0.017c-0.001-0.005,0.001-0.009,0.005-0.012
		c0.003-0.005,0.006-0.01,0.01-0.014l0,0c0.006-0.005,0.011-0.01,0.013-0.018c0.041-0.082,0.091-0.159,0.144-0.235
		c0.015,0.031,0.04,0.044,0.074,0.041c0.035-0.002,0.07,0.002,0.104-0.01c0.019-0.007,0.042-0.004,0.063-0.005
		c0.131,0,0.263,0,0.394,0c0.026,0,0.051,0,0.076-0.008c0.02-0.006,0.042-0.006,0.062-0.006c0.127,0,0.253-0.002,0.38,0
		c0.053,0.001,0.102-0.007,0.149-0.031c0.013-0.007,0.025-0.012,0.04-0.011c-0.005,0.027-0.024,0.045-0.037,0.067
		c-0.118,0.192-0.236,0.384-0.354,0.576c-0.097,0.158-0.196,0.315-0.293,0.473C11.391,5.289,11.365,5.339,11.33,5.383z"/>
	<path fill="#F9BE22" d="M13.849,8.166l-0.006,0l-0.004-0.004c-0.008-0.007-0.02-0.004-0.027-0.013
		c-0.089-0.031-0.166-0.084-0.24-0.141c-0.042-0.032-0.086-0.064-0.117-0.109c0.02-0.034,0.022-0.071,0.022-0.109
		c0-0.969,0.001-1.938-0.001-2.907c0-0.028,0.003-0.057-0.006-0.084c0.063-0.076,0.145-0.129,0.228-0.179
		c0.039-0.024,0.079-0.049,0.125-0.06c0.038,0.001,0.042,0.031,0.048,0.058c0.005,0.023,0.004,0.047,0.004,0.07
		c-0.003,0.339,0.008,0.679-0.008,1.018c-0.008,0.058-0.016,0.115-0.022,0.173c-0.004,0.035-0.004,0.07-0.004,0.105
		c0,0.016,0.014,0.015,0.025,0.017c0.025,0.011,0.034,0.034,0.034,0.057c0.002,0.176,0.012,0.352-0.006,0.528
		c-0.052,0.074-0.035,0.157-0.03,0.238c0.006,0.099,0.048,0.191,0.051,0.291c0.005,0.302,0.002,0.604,0.002,0.905
		c0,0.033,0.003,0.066-0.007,0.098C13.902,8.148,13.892,8.179,13.849,8.166z"/>
	<path fill="#FAD421" d="M13.47,4.8c0.014,0.004,0.027,0.009,0.029,0.026C13.5,4.843,13.5,4.859,13.5,4.876c0,0.982,0,1.965,0,2.947
		c0,0.009,0,0.019,0,0.028c-0.001,0.035-0.001,0.035-0.045,0.049c0,0,0,0,0,0c0-0.01-0.006-0.015-0.015-0.016l0.001,0.001
		c-0.001-0.009-0.006-0.015-0.016-0.015l0.001,0.001c0-0.01-0.007-0.014-0.015-0.017c-0.069-0.065-0.119-0.145-0.165-0.227
		c-0.086-0.152-0.144-0.315-0.185-0.485c-0.028-0.117-0.044-0.235-0.059-0.354c-0.034-0.262-0.032-0.525-0.009-0.788
		c0.015-0.171,0.04-0.34,0.087-0.506c0.058-0.202,0.138-0.394,0.268-0.562c0.028-0.037,0.055-0.076,0.094-0.104
		c0.007-0.003,0.013-0.008,0.015-0.015l-0.001,0.001C13.463,4.812,13.468,4.808,13.47,4.8L13.47,4.8z"/>
	<path fill="#F25F23" d="M17.923,8.272c-0.012,0.001-0.023,0.003-0.035,0.003c-0.037-0.001-0.04-0.003-0.04-0.041
		c0-0.174,0-0.348-0.001-0.522c0-0.03,0.012-0.067-0.007-0.089c-0.022-0.026-0.062-0.011-0.094-0.011c-0.12-0.001-0.24,0-0.36,0
		c-0.023,0-0.047-0.002-0.07-0.003c0.017-0.041,0.055-0.03,0.085-0.031c0.117-0.003,0.235,0,0.352-0.001
		c0.082-0.001,0.088-0.007,0.089-0.088c0.001-0.164,0.001-0.329,0-0.493c0-0.073-0.007-0.079-0.081-0.08
		c-0.157-0.002-0.315,0.002-0.472-0.002c-0.046,0.001-0.093,0.005-0.138-0.004c-0.033-0.006-0.034-0.011-0.023-0.043
		c0.005,0.009,0.012,0.014,0.022,0.014c0.019,0.001,0.037,0.001,0.056,0.001c0.188,0,0.375,0,0.563,0.001
		c0.019,0,0.038,0,0.056-0.001c0.013-0.001,0.021-0.009,0.022-0.023c0.001-0.021,0.001-0.042,0.001-0.063c0-0.267,0-0.535,0-0.802
		c0-0.025-0.005-0.052,0.006-0.076c0.155-0.013,0.31-0.003,0.464-0.006c0.03-0.001,0.04,0.019,0.045,0.044
		c0.005,0.028,0.004,0.056,0.004,0.084c0,0.701,0,1.401,0,2.102c0,0.009,0,0.019,0,0.028c-0.002,0.095-0.007,0.099-0.099,0.1
		C18.153,8.271,18.038,8.266,17.923,8.272z"/>
	<path fill="#F8B422" d="M17.127,6.867c-0.007,0.008-0.008,0.018,0.002,0.022c0.01,0.004,0.022,0.004,0.033,0.004
		c0.041,0.001,0.082,0.001,0.122,0.002c0.026,0.026,0.023,0.06,0.023,0.093c0.001,0.174,0.001,0.347,0,0.521
		c-0.001,0.093-0.006,0.098-0.101,0.097c-0.148-0.001-0.295,0.004-0.443-0.003c-0.033-0.035-0.023-0.08-0.023-0.121
		c-0.001-0.592,0-1.183-0.001-1.775c0-0.025,0.009-0.053-0.017-0.071c0.02-0.055,0.04-0.109,0.062-0.164
		c0.048-0.119,0.097-0.238,0.145-0.358c0.06-0.148,0.118-0.295,0.178-0.443c0.002-0.004,0.006-0.007,0.009-0.01
		c0.041-0.015,0.049,0.017,0.057,0.043c0.011,0.031,0.008,0.065,0.008,0.098c0,0.606,0,1.212,0.001,1.818
		c0,0.04-0.009,0.079-0.005,0.119C17.16,6.782,17.143,6.824,17.127,6.867z"/>
	<path fill="#EF3824" d="M15.336,5.975c0.108,0.04,0.198,0.108,0.279,0.187c0.108,0.105,0.182,0.232,0.231,0.375
		c0.047,0.137,0.067,0.278,0.071,0.423c0.003,0.139,0,0.278-0.03,0.414c-0.069,0.321-0.238,0.569-0.531,0.726
		c-0.006,0.003-0.013,0.004-0.02,0.007c-0.026-0.027-0.022-0.061-0.022-0.093c-0.001-0.648-0.001-1.296,0-1.945
		C15.314,6.036,15.311,6.002,15.336,5.975z"/>
	<path fill="#F15423" d="M15.336,5.975c0,0.71,0,1.421,0,2.131l-0.001,0c-0.007,0.009-0.02,0.006-0.028,0.013l-0.001,0
		C15.3,8.13,15.287,8.127,15.28,8.134c-0.121,0.06-0.248,0.097-0.382,0.114c-0.013-0.024-0.008-0.051-0.008-0.076
		c-0.003-0.232,0.008-0.465-0.008-0.697c0.002-0.038,0.03-0.062,0.05-0.091c0.13-0.186,0.128-0.386,0.062-0.591
		c-0.02-0.061-0.066-0.108-0.114-0.15c-0.022-0.02-0.05-0.037-0.045-0.074c0.022-0.095,0.011-0.192,0.012-0.287
		c0-0.126,0.005-0.253-0.004-0.379c-0.001-0.019-0.002-0.038,0.012-0.053c0.097,0.003,0.19,0.025,0.282,0.051
		c0.058,0.016,0.117,0.032,0.17,0.064c0.006,0.004,0.012,0.009,0.02,0.01C15.332,5.971,15.334,5.972,15.336,5.975z"/>
	<path fill="#F04223" d="M17.923,8.272c0.016-0.014,0.036-0.009,0.054-0.009c0.094,0,0.188,0,0.282-0.001
		c0.019,0,0.038,0,0.056-0.001c0.016-0.001,0.027-0.01,0.028-0.026c0.001-0.019,0.001-0.038,0.001-0.056c0-0.727,0-1.454,0-2.18
		c0-0.084,0.002-0.08-0.082-0.08c-0.136,0-0.273-0.001-0.409-0.001c0.006-0.009,0.015-0.01,0.025-0.01c0.254,0,0.508,0,0.762,0.001
		c0.005,0,0.009,0,0.014,0c0.017,0.001,0.027,0.009,0.027,0.026c0.001,0.021,0.001,0.042,0.001,0.064c0,0.278,0,0.555,0,0.833
		c0,0.016,0,0.033,0.001,0.049c0.067-0.002,0.079,0.04,0.079,0.096c-0.001,0.18-0.001,0.361,0,0.541
		c0,0.057-0.015,0.095-0.079,0.097c0,0.176-0.001,0.353-0.001,0.529c0,0.019,0,0.038,0,0.056c0,0.083,0.005,0.076-0.076,0.076
		c-0.207,0-0.414,0-0.62,0C17.965,8.275,17.944,8.273,17.923,8.272z"/>
	<path fill="#FAD221" d="M16.722,5.636c0.025-0.005,0.037-0.001,0.038,0.013c0.002,0.019,0.003,0.037,0.003,0.056
		c0,0.631,0,1.262,0,1.893c-0.1,0.018-0.201,0.003-0.301,0.008c-0.058,0.003-0.117-0.004-0.176,0.003
		c-0.137,0.004-0.113,0.018-0.114-0.105c-0.001-0.155,0-0.31-0.001-0.465c0-0.036,0.007-0.069,0.021-0.102
		c0.046-0.108,0.088-0.217,0.132-0.326c0.068-0.167,0.135-0.335,0.203-0.502c0.037-0.091,0.074-0.182,0.111-0.274
		c0.003-0.006,0.007-0.012,0.011-0.018c0.01-0.009,0.007-0.022,0.012-0.032c-0.002-0.004-0.001-0.008,0.003-0.01
		c0.008-0.008,0.005-0.021,0.012-0.03c-0.001-0.005,0-0.009,0.004-0.013c0.003-0.005,0.007-0.011,0.01-0.017
		c-0.001-0.005,0-0.009,0.004-0.012c0.006-0.008,0.003-0.02,0.012-0.028l0,0c0.009-0.009,0.007-0.022,0.012-0.032
		C16.717,5.642,16.718,5.638,16.722,5.636z"/>
	<path fill="#F69A22" d="M17.176,6.739c-0.011-0.007-0.017-0.016-0.018-0.029c-0.001-0.021-0.001-0.042-0.001-0.063
		c0-0.624,0-1.249,0-1.873c0-0.021,0.002-0.043-0.002-0.063c-0.004-0.023-0.011-0.047-0.041-0.05
		c0.016-0.054,0.037-0.105,0.059-0.157c0.008-0.019,0.02-0.029,0.042-0.029c0.07,0.002,0.14,0.002,0.21,0.003
		c0.115,0.015,0.121,0.02,0.121,0.14c0.001,0.367,0,0.734,0.001,1.102c0,0.05-0.009,0.098-0.021,0.146
		c-0.001,0.029-0.016,0.054-0.026,0.08c-0.049,0.122-0.098,0.243-0.147,0.365c-0.056,0.139-0.113,0.278-0.169,0.417
		C17.183,6.732,17.179,6.735,17.176,6.739z"/>
	<path fill="#F04223" d="M15.054,4.437c0.064-0.004,0.126,0.01,0.189,0.017c0.156,0.019,0.311,0.044,0.467,0.066
		c0.014,0.002,0.028,0.004,0.042,0.008c0.031,0.007,0.036,0.013,0.033,0.043c-0.009,0.086-0.02,0.173-0.029,0.259
		c-0.008,0.068-0.015,0.135-0.022,0.203c-0.004,0.04-0.01,0.079-0.012,0.119c-0.004,0.073-0.006,0.066-0.076,0.059
		c-0.156-0.016-0.312-0.034-0.469-0.05c-0.04-0.004-0.08-0.005-0.119-0.007c-0.021-0.001-0.042,0.001-0.062-0.01
		c0.093-0.021,0.1-0.087,0.096-0.168c-0.006-0.124-0.002-0.248-0.001-0.372C15.09,4.545,15.092,4.487,15.054,4.437z"/>
	<path fill="#F58622" d="M16.286,7.609c0.019-0.015,0.041-0.008,0.061-0.009c0.138-0.001,0.277-0.002,0.415-0.002
		c0.157,0,0.315,0,0.472,0c0.005,0,0.009,0,0.014,0c0.028-0.002,0.034-0.008,0.036-0.033c0.001-0.009,0.001-0.019,0.001-0.028
		c0-0.214-0.001-0.428-0.001-0.642c0.131-0.001,0.263-0.001,0.394-0.002c0.049,0,0.099,0,0.148,0.001
		c0.03,0.001,0.036,0.008,0.038,0.038c0.001,0.016,0,0.033,0,0.049c0,0.176,0,0.352,0,0.528c0,0.007,0,0.014,0,0.021
		c-0.001,0.067-0.001,0.067-0.065,0.068c-0.026,0-0.052,0-0.077,0c-0.117,0-0.235,0-0.352,0.001c-0.018,0-0.038-0.005-0.054,0.009
		c-0.019,0.001-0.037,0.003-0.056,0.003c-0.306,0-0.612,0.001-0.917,0.001C16.324,7.612,16.305,7.61,16.286,7.609z"/>
	<path fill="#F69C22" d="M13.849,8.166c0.032-0.004,0.042-0.027,0.046-0.054c0.002-0.018,0.001-0.037,0.001-0.056
		c0-0.292,0-0.585,0-0.877c0-0.026,0.001-0.051,0.002-0.077c0.041,0.015,0.044,0.058,0.059,0.09c0.037,0.076,0.079,0.148,0.139,0.21
		c0.064,0.066,0.137,0.112,0.226,0.135c0.034,0.009,0.069,0.015,0.09,0.049c0.007,0.013,0.011,0.026,0.012,0.04
		c0.006,0.201,0.004,0.403,0.001,0.604c0,0.019-0.005,0.037-0.021,0.051c-0.189,0.002-0.369-0.036-0.544-0.104
		C13.855,8.173,13.852,8.169,13.849,8.166z"/>
	<path fill="#F47E23" d="M17.527,5.867c-0.001-0.03-0.002-0.061-0.002-0.091c0-0.391,0-0.783,0-1.174
		c0-0.021,0.001-0.042-0.002-0.063c-0.004-0.031-0.019-0.043-0.051-0.046c-0.016-0.002-0.033,0.002-0.045-0.013
		c0.009-0.001,0.019-0.003,0.028-0.003c0.2,0,0.399,0,0.599,0.001c0.009,0,0.019,0.001,0.027,0.002
		c0.013,0.016,0.001,0.028-0.003,0.04c-0.047,0.12-0.095,0.24-0.143,0.36c-0.046,0.115-0.094,0.23-0.14,0.346
		c-0.064,0.156-0.127,0.313-0.191,0.469c-0.02,0.05-0.041,0.1-0.061,0.15C17.538,5.852,17.532,5.859,17.527,5.867z"/>
	<path fill="#F37523" d="M14.404,8.279c0-0.211,0-0.421,0-0.632c0-0.026,0.002-0.052-0.014-0.074
		c0.021-0.026,0.051-0.022,0.078-0.021c0.136,0.006,0.265-0.018,0.382-0.092c0.014-0.009,0.03-0.014,0.047-0.007
		c0.021,0.073,0.016,0.148,0.016,0.223c0,0.164,0,0.328,0,0.492c0,0.028,0.002,0.056-0.014,0.082
		c-0.044,0.017-0.092,0.018-0.138,0.023c-0.109,0.011-0.219,0.018-0.33,0.015C14.422,8.285,14.413,8.281,14.404,8.279z"/>
	<path fill="#F26A23" d="M15.054,4.437c0.056,0.026,0.056,0.026,0.056,0.085c0,0.182,0,0.365,0,0.547c0,0.016,0,0.033-0.002,0.049
		c-0.001,0.013-0.01,0.021-0.023,0.022c-0.03,0.002-0.061,0.002-0.091,0.004c-0.072-0.002-0.145-0.002-0.217-0.005
		c-0.101-0.004-0.201-0.001-0.301,0.001c0.009-0.038,0.043-0.03,0.068-0.034c0.035-0.004,0.049-0.022,0.05-0.056
		c0.002-0.185,0.001-0.37,0-0.555c0-0.04-0.023-0.051-0.059-0.053c-0.036-0.002-0.076,0.008-0.106-0.024
		c0.015-0.01,0.031-0.008,0.047-0.009C14.67,4.403,14.862,4.411,15.054,4.437z"/>
	<path fill="#F47B23" d="M14.856,5.849c0.019,0.067,0.014,0.135,0.014,0.203c0,0.148,0,0.296,0,0.445
		c0,0.034-0.001,0.066-0.032,0.088l-0.006,0.003c0,0-0.007-0.001-0.007-0.001c-0.006-0.002-0.013-0.005-0.019-0.008
		c-0.005-0.002-0.009-0.004-0.013-0.006c-0.007-0.003-0.014-0.006-0.022-0.009c-0.006-0.001-0.011-0.003-0.017-0.004
		c-0.013-0.002-0.026-0.003-0.04-0.004c-0.094-0.017-0.188-0.026-0.283-0.023c-0.032,0.001-0.066,0.004-0.091-0.023
		c-0.012-0.021-0.014-0.044-0.014-0.068c-0.001-0.18,0-0.359-0.001-0.539c0-0.014,0.004-0.028,0.007-0.041
		c0.039-0.02,0.082-0.019,0.123-0.023c0.077-0.009,0.155-0.009,0.232-0.001c0.042,0.014,0.087-0.004,0.129,0.011
		C14.83,5.847,14.843,5.848,14.856,5.849z"/>
	<path fill="#F6A222" d="M13.868,5.708c-0.013-0.038-0.015-0.077-0.015-0.117c0.001-0.304,0-0.608,0-0.913c0-0.016,0-0.033,0-0.049
		c0-0.027-0.008-0.05-0.03-0.068c0.01-0.006,0.019-0.014,0.029-0.018c0.095-0.04,0.193-0.069,0.294-0.091
		c0.018-0.004,0.037-0.004,0.056-0.006c0.042,0.002,0.039,0.037,0.039,0.062c0.004,0.212,0.003,0.423,0.001,0.635
		c0,0.024-0.008,0.046-0.022,0.066c-0.012,0.008-0.023,0.016-0.035,0.023c-0.112,0.066-0.194,0.16-0.248,0.278
		c-0.026,0.055-0.046,0.112-0.058,0.172C13.877,5.691,13.872,5.699,13.868,5.708z"/>
	<path fill="#F69E22" d="M14.332,5.861c0.013,0.009,0.016,0.022,0.016,0.037c0,0.035,0,0.07,0,0.105c0,0.17,0,0.34,0,0.511
		c-0.01,0.022-0.031,0.028-0.052,0.03c-0.115,0.011-0.228,0.034-0.34,0.059c-0.025,0.006-0.051,0.014-0.074-0.007
		c0-0.171,0-0.342,0-0.513c0-0.028,0.001-0.056-0.015-0.082c0.003-0.003,0.007-0.007,0.011-0.009
		c0.137-0.054,0.276-0.099,0.42-0.129C14.309,5.861,14.321,5.862,14.332,5.861z"/>
	<path fill="#F58922" d="M14.221,5.21c0-0.229,0-0.457,0-0.686c0-0.016,0-0.033-0.001-0.049c-0.001-0.013-0.007-0.022-0.017-0.029
		c0.074-0.022,0.15-0.029,0.227-0.028c0.047,0.001,0.093,0.001,0.14,0.003c0.041,0.001,0.045,0.005,0.047,0.043
		c0.001,0.012,0,0.023,0,0.035c0,0.182,0,0.365,0,0.547c0,0.019,0,0.037-0.002,0.056c-0.001,0.013-0.01,0.021-0.023,0.022
		c-0.026,0.002-0.051,0.001-0.077,0.002c-0.014,0-0.028,0-0.038,0.012C14.388,5.154,14.303,5.178,14.221,5.21z"/>
	<path fill="#ED2424" d="M18.683,7.613c0.002-0.002,0.003-0.004,0.005-0.005c0.015-0.006,0.033-0.009,0.043-0.019
		c0.015-0.016,0.008-0.04,0.008-0.061c0-0.188,0-0.376,0-0.563c0-0.012-0.001-0.023,0-0.035c0.001-0.023-0.009-0.034-0.032-0.037
		c-0.008-0.001-0.016-0.008-0.024-0.012c0.094,0.001,0.188,0.002,0.281,0.003c0.098,0.001,0.087-0.009,0.088,0.086
		c0,0.188,0,0.375,0,0.563c0,0.019,0,0.038-0.001,0.056C19.05,7.602,19.042,7.61,19.028,7.61c-0.019,0.001-0.038,0.001-0.056,0.001
		C18.876,7.612,18.779,7.613,18.683,7.613z"/>
	<path fill="#F15423" d="M14.817,5.846c-0.033,0-0.065,0.001-0.098,0.001c-0.012,0-0.023-0.003-0.032-0.012
		C14.731,5.834,14.775,5.83,14.817,5.846z"/>
	<path fill="#F8B922" d="M10.79,4.111c-0.001,0.012-0.004,0.022-0.017,0.026C10.773,4.126,10.78,4.117,10.79,4.111z"/>
	<path fill="#F7A822" d="M10.535,4.521c0,0.012-0.003,0.022-0.015,0.027C10.52,4.536,10.525,4.527,10.535,4.521z"/>
	<path fill="#F7A822" d="M10.508,4.565c-0.001,0.011-0.004,0.021-0.016,0.025C10.492,4.578,10.497,4.57,10.508,4.565z"/>
	<path fill="#F9C922" d="M11.948,2.233c0,0.012-0.004,0.021-0.015,0.027C11.932,2.248,11.938,2.239,11.948,2.233z"/>
	<path fill="#F7A822" d="M10.422,4.704c0,0.012-0.004,0.022-0.016,0.027C10.407,4.72,10.412,4.711,10.422,4.704z"/>
	<path fill="#F7A822" d="M10.394,4.748c-0.001,0.011-0.004,0.021-0.015,0.026C10.379,4.762,10.384,4.753,10.394,4.748z"/>
	<path fill="#F9C922" d="M11.905,2.302c0,0.012-0.003,0.023-0.016,0.028C11.889,2.318,11.894,2.308,11.905,2.302z"/>
	<path fill="#F7A822" d="M10.309,4.888c0,0.012-0.004,0.022-0.016,0.027C10.294,4.903,10.299,4.894,10.309,4.888z"/>
	<path fill="#F7A822" d="M10.281,4.931c-0.001,0.011-0.004,0.021-0.015,0.026C10.266,4.946,10.271,4.937,10.281,4.931z"/>
	<path fill="#F7A822" d="M10.196,5.072c-0.001,0.012-0.004,0.022-0.017,0.026C10.181,5.087,10.186,5.078,10.196,5.072z"/>
	<path fill="#F7A822" d="M10.168,5.114c0,0.012-0.004,0.022-0.015,0.027C10.153,5.129,10.158,5.12,10.168,5.114z"/>
	<path fill="#F9C922" d="M11.835,2.417c0,0.012-0.004,0.021-0.015,0.027C11.82,2.432,11.825,2.423,11.835,2.417z"/>
	<path fill="#F7A822" d="M10.055,5.298c0,0.012-0.004,0.022-0.015,0.027C10.04,5.313,10.045,5.304,10.055,5.298z"/>
	<path fill="#F8B422" d="M16.719,5.646c0.002,0.013,0,0.025-0.012,0.032C16.705,5.665,16.708,5.654,16.719,5.646z"/>
	<path fill="#F8B422" d="M16.706,5.678c0.001,0.011-0.001,0.021-0.012,0.028C16.693,5.694,16.698,5.685,16.706,5.678z"/>
	<path fill="#F8B422" d="M16.677,5.747c0.001,0.012-0.001,0.023-0.012,0.03C16.664,5.764,16.667,5.754,16.677,5.747z"/>
	<path fill="#F8B422" d="M16.662,5.787c0.002,0.013,0,0.025-0.012,0.032C16.649,5.806,16.651,5.795,16.662,5.787z"/>
	<path fill="#F59122" d="M10.748,6.61c-0.012-0.005-0.016-0.015-0.016-0.027C10.743,6.588,10.748,6.598,10.748,6.61z"/>
	<path fill="#F9C922" d="M11.722,2.6c0,0.012-0.004,0.021-0.015,0.027C11.707,2.615,11.712,2.606,11.722,2.6z"/>
	<path fill="#F59122" d="M10.861,6.793c-0.012-0.005-0.016-0.015-0.016-0.027C10.856,6.772,10.861,6.781,10.861,6.793z"/>
	<path fill="#F37523" d="M11.411,7.683c-0.011-0.005-0.014-0.015-0.015-0.026C11.405,7.663,11.411,7.672,11.411,7.683z"/>
	<path fill="#F37523" d="M11.524,7.867c-0.012-0.005-0.015-0.015-0.015-0.026C11.518,7.847,11.523,7.855,11.524,7.867z"/>
	<path fill="#F37523" d="M11.638,8.05c-0.012-0.004-0.016-0.014-0.016-0.026C11.631,8.03,11.637,8.039,11.638,8.05z"/>
	<path fill="#EF3824" d="M15.308,8.12c0.006-0.011,0.016-0.013,0.028-0.013C15.329,8.117,15.319,8.121,15.308,8.12z"/>
	<path fill="#EF3824" d="M15.28,8.134c0.006-0.01,0.016-0.013,0.027-0.013C15.3,8.13,15.292,8.135,15.28,8.134z"/>
	<path fill="#F8B922" d="M11.016,3.744c0,0.012-0.004,0.022-0.016,0.027C11.001,3.759,11.006,3.75,11.016,3.744z"/>
	<path fill="#F69C22" d="M13.812,8.15c0.011-0.001,0.021,0.002,0.027,0.013C13.827,8.164,13.819,8.158,13.812,8.15z"/>
	<path fill="#F8B922" d="M10.988,3.787c-0.001,0.011-0.004,0.021-0.015,0.026C10.972,3.802,10.977,3.793,10.988,3.787z"/>
	<path fill="#F37523" d="M11.752,8.233c-0.013-0.004-0.016-0.014-0.017-0.026C11.744,8.214,11.751,8.222,11.752,8.233z"/>
	<path fill="#F37523" d="M11.891,8.46c-0.011-0.005-0.014-0.015-0.015-0.026C11.885,8.44,11.891,8.449,11.891,8.46z"/>
	<path fill="#F37523" d="M12.004,8.644c-0.011-0.005-0.015-0.015-0.015-0.026C11.998,8.624,12.004,8.632,12.004,8.644z"/>
	<path fill="#F8B922" d="M10.903,3.928c-0.001,0.012-0.004,0.022-0.017,0.026C10.887,3.943,10.893,3.934,10.903,3.928z"/>
	<path fill="#F8B922" d="M10.874,3.97c0,0.011-0.004,0.021-0.015,0.027C10.859,3.985,10.865,3.977,10.874,3.97z"/>
	<path fill="#F8B922" d="M10.832,4.041c-0.001,0.012-0.004,0.022-0.017,0.026C10.816,4.055,10.82,4.046,10.832,4.041z"/>
	<path fill="#F9C922" d="M11.988,2.171c0,0.009-0.004,0.015-0.012,0.019C11.976,2.181,11.98,2.174,11.988,2.171z"/>
	<path fill="#F9C922" d="M11.976,2.19c-0.003,0.004-0.007,0.009-0.01,0.013C11.965,2.196,11.969,2.192,11.976,2.19z"/>
	<path fill="#F9C922" d="M11.959,2.213c0,0.008-0.004,0.015-0.011,0.019C11.948,2.223,11.951,2.217,11.959,2.213z"/>
	<path fill="#F9C922" d="M11.933,2.26c-0.003,0.005-0.007,0.009-0.01,0.014C11.922,2.266,11.926,2.262,11.933,2.26z"/>
	<path fill="#F9C922" d="M11.917,2.283c0,0.009-0.005,0.015-0.012,0.019C11.904,2.293,11.908,2.287,11.917,2.283z"/>
	<path fill="#F9C922" d="M11.889,2.329c0,0.007-0.003,0.012-0.01,0.016C11.879,2.336,11.882,2.331,11.889,2.329z"/>
	<path fill="#F9C922" d="M11.875,2.354c0,0.009-0.005,0.015-0.012,0.019C11.863,2.364,11.867,2.358,11.875,2.354z"/>
	<path fill="#F9C922" d="M11.862,2.373c-0.004,0.005-0.007,0.009-0.011,0.014C11.851,2.379,11.855,2.375,11.862,2.373z"/>
	<path fill="#F9C922" d="M11.846,2.397c0,0.008-0.004,0.015-0.011,0.019C11.835,2.407,11.839,2.401,11.846,2.397z"/>
	<path fill="#F9C922" d="M11.82,2.443c-0.003,0.005-0.007,0.009-0.01,0.014C11.809,2.45,11.813,2.445,11.82,2.443z"/>
	<path fill="#F9C922" d="M11.804,2.466c0,0.009-0.004,0.016-0.012,0.02C11.791,2.477,11.795,2.47,11.804,2.466z"/>
	<path fill="#F9C922" d="M11.792,2.486c-0.003,0.005-0.006,0.009-0.01,0.014C11.781,2.492,11.785,2.488,11.792,2.486z"/>
	<path fill="#F9C922" d="M11.777,2.512c0,0.007-0.003,0.013-0.01,0.016C11.766,2.52,11.769,2.514,11.777,2.512z"/>
	<path fill="#F9C922" d="M11.762,2.537c-0.001,0.009-0.005,0.015-0.013,0.019C11.749,2.547,11.753,2.541,11.762,2.537z"/>
	<path fill="#F9C922" d="M11.749,2.555c-0.003,0.005-0.007,0.01-0.01,0.015C11.738,2.562,11.741,2.557,11.749,2.555z"/>
	<path fill="#F9C922" d="M11.734,2.58c0,0.008-0.004,0.015-0.011,0.019C11.722,2.591,11.726,2.584,11.734,2.58z"/>
	<path fill="#F9C922" d="M11.707,2.627c-0.004,0.005-0.007,0.01-0.011,0.014C11.695,2.633,11.7,2.629,11.707,2.627z"/>
	<path fill="#F8B922" d="M11.07,3.655c-0.003,0.006-0.007,0.011-0.01,0.017C11.06,3.664,11.063,3.659,11.07,3.655z"/>
	<path fill="#F8B922" d="M11.055,3.681C11.055,3.69,11.05,3.696,11.042,3.7C11.042,3.691,11.047,3.685,11.055,3.681z"/>
	<path fill="#F8B922" d="M11.042,3.699c-0.003,0.005-0.007,0.01-0.01,0.015C11.031,3.706,11.035,3.701,11.042,3.699z"/>
	<path fill="#F8B922" d="M11.027,3.724c0,0.008-0.004,0.015-0.011,0.019C11.016,3.734,11.019,3.728,11.027,3.724z"/>
	<path fill="#F8B922" d="M11,3.77c-0.004,0.005-0.008,0.011-0.012,0.016C10.988,3.777,10.993,3.772,11,3.77z"/>
	<path fill="#F8B922" d="M10.972,3.813c-0.003,0.005-0.006,0.009-0.01,0.014C10.962,3.82,10.966,3.815,10.972,3.813z"/>
	<path fill="#F8B922" d="M10.957,3.839c0,0.008-0.004,0.013-0.01,0.017C10.947,3.848,10.95,3.842,10.957,3.839z"/>
	<path fill="#F8B922" d="M10.929,3.881c-0.003,0.005-0.007,0.011-0.01,0.016C10.918,3.89,10.922,3.885,10.929,3.881z"/>
	<path fill="#F8B922" d="M10.914,3.908c0,0.008-0.004,0.015-0.011,0.019C10.903,3.918,10.906,3.912,10.914,3.908z"/>
	<path fill="#F7A822" d="M10.294,4.914c-0.004,0.005-0.008,0.011-0.012,0.016C10.282,4.921,10.286,4.916,10.294,4.914z"/>
	<path fill="#F59122" d="M10.676,6.441c0.003-0.005,0.006-0.009,0.01-0.014C10.687,6.434,10.683,6.439,10.676,6.441z"/>
	<path fill="#F59122" d="M10.664,6.461c0-0.009,0.004-0.016,0.012-0.02C10.676,6.45,10.672,6.457,10.664,6.461z"/>
	<path fill="#F59122" d="M10.672,6.483c-0.007-0.005-0.009-0.011-0.008-0.019C10.667,6.47,10.67,6.476,10.672,6.483z"/>
	<path fill="#F59122" d="M10.688,6.511c-0.007-0.004-0.01-0.01-0.011-0.018C10.685,6.497,10.689,6.503,10.688,6.511z"/>
	<path fill="#F7A822" d="M10.321,4.868c0,0.009-0.004,0.015-0.011,0.019C10.31,4.878,10.313,4.872,10.321,4.868z"/>
	<path fill="#F59122" d="M10.704,6.54c-0.008-0.004-0.012-0.011-0.012-0.02C10.7,6.524,10.704,6.53,10.704,6.54z"/>
	<path fill="#F59122" d="M10.714,6.553c-0.003-0.004-0.007-0.009-0.01-0.013C10.711,6.542,10.714,6.546,10.714,6.553z"/>
	<path fill="#F7A822" d="M10.04,5.324c-0.003,0.005-0.007,0.009-0.01,0.014C10.03,5.331,10.033,5.327,10.04,5.324z"/>
	<path fill="#F59122" d="M10.732,6.582c-0.008-0.004-0.012-0.011-0.012-0.02C10.729,6.566,10.732,6.573,10.732,6.582z"/>
	<path fill="#F7A822" d="M10.025,5.35c-0.001,0.008-0.005,0.014-0.013,0.018C10.013,5.359,10.017,5.353,10.025,5.35z"/>
	<path fill="#F59122" d="M10.758,6.624c-0.003-0.005-0.007-0.01-0.01-0.015C10.755,6.611,10.758,6.616,10.758,6.624z"/>
	<path fill="#F59122" d="M10.776,6.652c-0.008-0.004-0.012-0.01-0.013-0.018C10.77,6.637,10.775,6.643,10.776,6.652z"/>
	<path fill="#F7A822" d="M10.336,4.843c-0.003,0.005-0.007,0.01-0.01,0.015C10.325,4.851,10.328,4.845,10.336,4.843z"/>
	<path fill="#F59122" d="M10.786,6.666c-0.003-0.005-0.007-0.01-0.01-0.014C10.783,6.654,10.786,6.659,10.786,6.666z"/>
	<path fill="#F59122" d="M10.801,6.695c-0.007-0.004-0.01-0.01-0.011-0.018C10.798,6.681,10.802,6.686,10.801,6.695z"/>
	<path fill="#F59122" d="M10.817,6.723c-0.008-0.004-0.012-0.011-0.012-0.02C10.813,6.707,10.817,6.714,10.817,6.723z"/>
	<path fill="#F59122" d="M10.828,6.737c-0.003-0.005-0.007-0.009-0.01-0.014C10.824,6.725,10.828,6.73,10.828,6.737z"/>
	<path fill="#F59122" d="M10.845,6.766c-0.008-0.004-0.012-0.011-0.012-0.02C10.842,6.75,10.845,6.757,10.845,6.766z"/>
	<path fill="#F8B422" d="M16.691,5.718c0,0.008-0.003,0.013-0.01,0.017C16.68,5.726,16.684,5.721,16.691,5.718z"/>
	<path fill="#F59122" d="M10.871,6.808c-0.003-0.005-0.007-0.01-0.01-0.015C10.868,6.795,10.871,6.8,10.871,6.808z"/>
	<path fill="#F59122" d="M10.889,6.836c-0.008-0.004-0.013-0.01-0.013-0.019C10.884,6.82,10.889,6.826,10.889,6.836z"/>
	<path fill="#F7A822" d="M10.349,4.825c-0.001,0.009-0.005,0.016-0.014,0.019C10.336,4.835,10.341,4.829,10.349,4.825z"/>
	<path fill="#F9BE22" d="M13.457,4.814c-0.002,0.008-0.007,0.013-0.015,0.015C13.443,4.821,13.448,4.816,13.457,4.814z"/>
	<path fill="#F9BE22" d="M13.471,4.8c-0.002,0.008-0.007,0.013-0.015,0.015C13.457,4.807,13.462,4.802,13.471,4.8z"/>
	<path fill="#F7A822" d="M10.364,4.799c0,0.008-0.004,0.013-0.01,0.017C10.354,4.808,10.357,4.803,10.364,4.799z"/>
	<path fill="#F7A822" d="M10.379,4.773c-0.003,0.005-0.006,0.009-0.01,0.014C10.369,4.78,10.372,4.776,10.379,4.773z"/>
	<path fill="#F7A822" d="M10.407,4.731c-0.004,0.005-0.008,0.01-0.012,0.016C10.396,4.738,10.4,4.733,10.407,4.731z"/>
	<path fill="#F7A822" d="M10.434,4.684c0,0.009-0.004,0.015-0.011,0.019C10.423,4.695,10.426,4.688,10.434,4.684z"/>
	<path fill="#F7A822" d="M10.449,4.66c-0.004,0.005-0.007,0.01-0.011,0.015C10.438,4.667,10.442,4.662,10.449,4.66z"/>
	<path fill="#F37523" d="M11.395,7.655c-0.007-0.004-0.011-0.01-0.011-0.018C11.392,7.641,11.395,7.647,11.395,7.655z"/>
	<path fill="#F7A822" d="M10.067,5.278c0,0.008-0.004,0.015-0.011,0.019C10.055,5.288,10.059,5.282,10.067,5.278z"/>
	<path fill="#F37523" d="M11.421,7.697c-0.003-0.004-0.007-0.009-0.01-0.013C11.417,7.686,11.421,7.69,11.421,7.697z"/>
	<path fill="#F37523" d="M11.439,7.726c-0.008-0.004-0.012-0.011-0.012-0.019C11.435,7.71,11.439,7.717,11.439,7.726z"/>
	<path fill="#F37523" d="M11.448,7.739c-0.003-0.004-0.006-0.009-0.009-0.013C11.445,7.728,11.449,7.732,11.448,7.739z"/>
	<path fill="#F37523" d="M11.464,7.768c-0.003-0.005-0.007-0.01-0.01-0.016C11.461,7.755,11.464,7.76,11.464,7.768z"/>
	<path fill="#F37523" d="M11.482,7.796c-0.008-0.003-0.012-0.009-0.013-0.018C11.477,7.781,11.481,7.787,11.482,7.796z"/>
	<path fill="#F37523" d="M11.492,7.81c-0.003-0.005-0.007-0.01-0.01-0.014C11.489,7.798,11.492,7.803,11.492,7.81z"/>
	<path fill="#F37523" d="M11.508,7.839c-0.007-0.004-0.011-0.01-0.011-0.018C11.504,7.825,11.508,7.831,11.508,7.839z"/>
	<path fill="#F7A822" d="M10.083,5.255c-0.003,0.004-0.007,0.008-0.01,0.013C10.074,5.261,10.077,5.257,10.083,5.255z"/>
	<path fill="#F9BE22" d="M13.412,7.855c0.009,0.002,0.014,0.007,0.015,0.017C13.418,7.869,13.414,7.863,13.412,7.855z"/>
	<path fill="#F7A822" d="M10.462,4.642c-0.001,0.009-0.005,0.015-0.013,0.019C10.45,4.652,10.454,4.645,10.462,4.642z"/>
	<path fill="#F37523" d="M11.535,7.881c-0.004-0.005-0.007-0.01-0.011-0.014C11.531,7.869,11.536,7.873,11.535,7.881z"/>
	<path fill="#F9BE22" d="M13.426,7.87c0.009,0.001,0.015,0.006,0.016,0.015C13.433,7.884,13.428,7.879,13.426,7.87z"/>
	<path fill="#F7A822" d="M10.477,4.616c0,0.008-0.004,0.013-0.01,0.017C10.467,4.624,10.47,4.619,10.477,4.616z"/>
	<path fill="#F9BE22" d="M13.44,7.884c0.009,0.001,0.014,0.006,0.015,0.016C13.447,7.898,13.442,7.893,13.44,7.884z"/>
	<path fill="#F37523" d="M11.552,7.909c-0.008-0.004-0.012-0.011-0.012-0.02C11.548,7.894,11.552,7.9,11.552,7.909z"/>
	<path fill="#F7A822" d="M10.492,4.59c-0.003,0.005-0.006,0.009-0.01,0.014C10.482,4.597,10.485,4.592,10.492,4.59z"/>
	<path fill="#F7A822" d="M10.52,4.547c-0.004,0.005-0.007,0.01-0.011,0.015C10.509,4.555,10.513,4.55,10.52,4.547z"/>
	<path fill="#F37523" d="M11.577,7.951c-0.003-0.005-0.007-0.011-0.01-0.016C11.574,7.939,11.577,7.944,11.577,7.951z"/>
	<path fill="#F37523" d="M11.605,7.994c-0.003-0.005-0.007-0.01-0.01-0.016C11.602,7.981,11.606,7.986,11.605,7.994z"/>
	<path fill="#F37523" d="M11.621,8.023c-0.007-0.004-0.011-0.01-0.011-0.019C11.617,8.008,11.621,8.014,11.621,8.023z"/>
	<path fill="#F7A822" d="M10.095,5.235c0,0.009-0.004,0.015-0.012,0.019C10.084,5.246,10.087,5.239,10.095,5.235z"/>
	<path fill="#F7A822" d="M10.547,4.501c0,0.008-0.004,0.015-0.011,0.019C10.536,4.511,10.539,4.505,10.547,4.501z"/>
	<path fill="#F37523" d="M11.649,8.065c-0.004-0.005-0.008-0.01-0.011-0.015C11.645,8.051,11.649,8.056,11.649,8.065z"/>
	<path fill="#F37523" d="M11.665,8.093c-0.008-0.004-0.012-0.011-0.012-0.02C11.661,8.077,11.665,8.084,11.665,8.093z"/>
	<path fill="#F37523" d="M11.674,8.107c-0.003-0.004-0.006-0.009-0.01-0.013C11.671,8.095,11.675,8.1,11.674,8.107z"/>
	<path fill="#F7A822" d="M10.11,5.209c-0.003,0.006-0.007,0.011-0.01,0.017C10.099,5.218,10.103,5.212,10.11,5.209z"/>
	<path fill="#F7A822" d="M10.126,5.185c-0.003,0.004-0.007,0.008-0.01,0.013C10.115,5.19,10.119,5.186,10.126,5.185z"/>
	<path fill="#F7A822" d="M10.138,5.166c-0.001,0.008-0.005,0.014-0.012,0.018C10.127,5.176,10.131,5.17,10.138,5.166z"/>
	<path fill="#F37523" d="M11.691,8.136c-0.004-0.006-0.008-0.011-0.012-0.017C11.687,8.122,11.691,8.128,11.691,8.136z"/>
	<path fill="#F7A822" d="M10.153,5.141c-0.003,0.005-0.007,0.009-0.01,0.014C10.143,5.147,10.146,5.143,10.153,5.141z"/>
	<path fill="#F37523" d="M11.702,8.149c-0.003-0.004-0.007-0.008-0.01-0.012C11.699,8.139,11.703,8.142,11.702,8.149z"/>
	<path fill="#F7A822" d="M10.181,5.097c-0.004,0.005-0.008,0.011-0.012,0.016C10.168,5.105,10.172,5.099,10.181,5.097z"/>
	<path fill="#F37523" d="M11.718,8.177c-0.003-0.005-0.007-0.011-0.01-0.016C11.715,8.165,11.719,8.17,11.718,8.177z"/>
	<path fill="#EF3824" d="M15.328,5.973c-0.008,0-0.015-0.003-0.02-0.01C15.317,5.963,15.324,5.965,15.328,5.973z"/>
	<path fill="#F37523" d="M11.734,8.207c-0.007-0.004-0.011-0.01-0.011-0.019C11.73,8.192,11.734,8.198,11.734,8.207z"/>
	<path fill="#F7A822" d="M10.208,5.052c0,0.009-0.004,0.015-0.011,0.019C10.197,5.062,10.2,5.056,10.208,5.052z"/>
	<path fill="#F37523" d="M11.762,8.248c-0.007-0.003-0.011-0.008-0.011-0.016C11.759,8.235,11.762,8.24,11.762,8.248z"/>
	<path fill="#F37523" d="M11.778,8.277c-0.008-0.004-0.012-0.011-0.012-0.02C11.774,8.261,11.778,8.268,11.778,8.277z"/>
	<path fill="#F37523" d="M11.787,8.29c-0.003-0.005-0.006-0.009-0.01-0.014C11.784,8.279,11.788,8.283,11.787,8.29z"/>
	<path fill="#F37523" d="M11.805,8.319c-0.007-0.004-0.011-0.009-0.012-0.017C11.8,8.306,11.805,8.311,11.805,8.319z"/>
	<path fill="#F7A822" d="M10.563,4.477c-0.004,0.005-0.007,0.009-0.011,0.014C10.551,4.483,10.555,4.479,10.563,4.477z"/>
	<path fill="#F37523" d="M11.815,8.333c-0.003-0.004-0.007-0.008-0.01-0.013C11.812,8.322,11.816,8.326,11.815,8.333z"/>
	<path fill="#F37523" d="M11.831,8.361c-0.003-0.005-0.007-0.011-0.01-0.016C11.828,8.348,11.831,8.353,11.831,8.361z"/>
	<path fill="#F37523" d="M11.561,7.923c-0.003-0.004-0.006-0.009-0.009-0.013C11.558,7.912,11.562,7.916,11.561,7.923z"/>
	<path fill="#F37523" d="M11.858,8.403c-0.003-0.004-0.007-0.008-0.01-0.012C11.854,8.393,11.858,8.396,11.858,8.403z"/>
	<path fill="#F37523" d="M11.875,8.433c-0.007-0.004-0.011-0.01-0.011-0.019C11.872,8.418,11.875,8.424,11.875,8.433z"/>
	<path fill="#F7A822" d="M10.223,5.025c-0.003,0.006-0.007,0.011-0.01,0.017C10.212,5.034,10.216,5.029,10.223,5.025z"/>
	<path fill="#F37523" d="M11.9,8.474c-0.003-0.005-0.006-0.009-0.01-0.014C11.897,8.463,11.901,8.467,11.9,8.474z"/>
	<path fill="#F37523" d="M11.919,8.503c-0.007-0.004-0.012-0.009-0.013-0.018C11.914,8.489,11.918,8.494,11.919,8.503z"/>
	<path fill="#F37523" d="M11.928,8.516c-0.003-0.004-0.006-0.009-0.01-0.013C11.925,8.505,11.929,8.509,11.928,8.516z"/>
	<path fill="#F37523" d="M11.944,8.545c-0.003-0.005-0.007-0.011-0.01-0.016C11.941,8.532,11.945,8.537,11.944,8.545z"/>
	<path fill="#F37523" d="M11.961,8.574c-0.008-0.004-0.012-0.01-0.012-0.019C11.956,8.559,11.96,8.565,11.961,8.574z"/>
	<path fill="#F37523" d="M11.972,8.587c-0.004-0.004-0.007-0.009-0.011-0.013C11.968,8.575,11.972,8.58,11.972,8.587z"/>
	<path fill="#F37523" d="M11.988,8.616c-0.007-0.004-0.011-0.01-0.011-0.019C11.984,8.602,11.988,8.608,11.988,8.616z"/>
	<path fill="#F7A822" d="M10.239,5.002c-0.003,0.004-0.007,0.008-0.01,0.012C10.228,5.006,10.233,5.003,10.239,5.002z"/>
	<path fill="#F37523" d="M12.014,8.658c-0.003-0.005-0.007-0.009-0.01-0.014C12.01,8.646,12.014,8.651,12.014,8.658z"/>
	<path fill="#F37523" d="M12.032,8.686c-0.008-0.004-0.012-0.011-0.012-0.02C12.028,8.671,12.032,8.677,12.032,8.686z"/>
	<path fill="#F37523" d="M12.041,8.7c-0.003-0.004-0.006-0.009-0.01-0.013C12.038,8.689,12.042,8.693,12.041,8.7z"/>
	<path fill="#F37523" d="M12.057,8.729c-0.003-0.005-0.007-0.011-0.01-0.016C12.054,8.715,12.058,8.721,12.057,8.729z"/>
	<path fill="#F7A822" d="M10.575,4.458c0,0.009-0.005,0.015-0.013,0.019C10.564,4.469,10.567,4.462,10.575,4.458z"/>
	<path fill="#F7A822" d="M10.59,4.432c0,0.008-0.004,0.013-0.01,0.017C10.58,4.441,10.583,4.435,10.59,4.432z"/>
	<path fill="#F7A822" d="M10.605,4.406c-0.003,0.005-0.007,0.009-0.01,0.014C10.595,4.413,10.598,4.409,10.605,4.406z"/>
	<path fill="#F7A822" d="M10.251,4.983C10.247,4.989,10.244,4.995,10.24,5C10.24,4.992,10.244,4.986,10.251,4.983z"/>
	<path fill="#F7A822" d="M10.618,4.388c-0.001,0.008-0.005,0.014-0.013,0.018C10.605,4.398,10.61,4.392,10.618,4.388z"/>
	<path fill="#F7A822" d="M10.266,4.957c-0.003,0.005-0.007,0.009-0.01,0.014C10.256,4.964,10.259,4.959,10.266,4.957z"/>
	<path fill="#F8B922" d="M10.773,4.136c-0.004,0.006-0.008,0.011-0.011,0.017C10.762,4.144,10.765,4.139,10.773,4.136z"/>
	<path fill="#F8B922" d="M10.801,4.091c0,0.008-0.004,0.015-0.011,0.019C10.79,4.102,10.793,4.095,10.801,4.091z"/>
	<path fill="#F8B922" d="M10.816,4.066c-0.003,0.005-0.007,0.01-0.01,0.016C10.805,4.074,10.809,4.068,10.816,4.066z"/>
	<path fill="#F8B922" d="M10.844,4.022c-0.004,0.006-0.008,0.012-0.012,0.018C10.833,4.032,10.837,4.026,10.844,4.022z"/>
	<path fill="#F8B922" d="M10.859,3.997c-0.003,0.005-0.006,0.009-0.01,0.014C10.849,4.004,10.853,3.999,10.859,3.997z"/>
	<path fill="#F8B922" d="M10.887,3.953c-0.004,0.005-0.008,0.011-0.012,0.016C10.875,3.961,10.879,3.955,10.887,3.953z"/>
	<path fill="#F37523" d="M11.847,8.39c-0.007-0.004-0.011-0.01-0.011-0.019C11.843,8.375,11.847,8.382,11.847,8.39z"/>
	<path fill="#666666" d="M1.618,6.711c0.029,0,0.052,0,0.076,0C1.967,6.709,2.24,6.713,2.513,6.705
		C2.934,6.693,3.355,6.702,3.776,6.69c0.4-0.011,0.8-0.003,1.2-0.014C5.388,6.665,5.8,6.673,6.211,6.662
		c0.186-0.005,0.372-0.005,0.557-0.008c0.012,0,0.024,0.001,0.035,0C6.85,6.646,6.877,6.668,6.903,6.704
		c0.119,0.172,0.24,0.343,0.36,0.514C7.361,7.359,7.458,7.5,7.556,7.641c0.065,0.092,0.131,0.184,0.196,0.276
		c0.097,0.139,0.193,0.278,0.29,0.416c0.1,0.142,0.2,0.284,0.3,0.427C8.42,8.872,8.498,8.984,8.576,9.095
		C8.698,9.269,8.82,9.441,8.941,9.615c0.08,0.114,0.158,0.228,0.238,0.341c0.1,0.142,0.201,0.284,0.301,0.426
		c0.097,0.139,0.193,0.278,0.29,0.416c0.044,0.064,0.089,0.127,0.134,0.191c0.012,0.017,0.024,0.034,0.036,0.051
		c-0.016,0.019-0.028,0.003-0.037-0.002c-0.113-0.058-0.225-0.117-0.338-0.176c-0.275-0.143-0.551-0.286-0.827-0.429
		c-0.227-0.118-0.455-0.237-0.682-0.355C7.702,9.896,7.35,9.712,6.997,9.528c-0.34-0.177-0.68-0.354-1.02-0.531
		C5.741,8.875,5.505,8.752,5.27,8.63C4.925,8.45,4.581,8.271,4.237,8.092C3.999,7.968,3.761,7.845,3.523,7.721
		c-0.34-0.177-0.68-0.354-1.02-0.531C2.222,7.043,1.941,6.896,1.659,6.749C1.645,6.741,1.628,6.738,1.618,6.711z"/>
	<path fill="#F26623" d="M6.311,3.714c0.053-0.039,0.114-0.066,0.171-0.097c0.306-0.166,0.613-0.33,0.919-0.495
		C7.414,3.116,7.427,3.112,7.44,3.106c0.039-0.001,0.045,0.028,0.05,0.056c0.005,0.032,0.003,0.066,0.003,0.098
		c0,0.575,0,1.15,0,1.725c0,0.032,0.004,0.066-0.009,0.097c-0.04,0.063-0.08,0.127-0.122,0.189C7.281,5.395,7.198,5.518,7.116,5.641
		C7.017,5.79,6.918,5.938,6.82,6.087c-0.023,0.035-0.048,0.07-0.071,0.105c-0.01,0.015-0.023,0.021-0.041,0.021
		c-0.155-0.002-0.31,0.007-0.465,0c0.001-0.007-0.001-0.016,0.007-0.019c0.087-0.029,0.084-0.098,0.084-0.171
		c-0.001-0.719-0.001-1.439,0-2.158C6.333,3.814,6.331,3.763,6.311,3.714z"/>
	<path fill="#F47B23" d="M6.311,3.714c0.027,0.003,0.043,0.017,0.044,0.045c0,0.016,0,0.033,0,0.049c0,0.761,0,1.521,0,2.282
		c0,0.002,0,0.005,0,0.007C6.356,6.184,6.354,6.176,6.273,6.2C6.262,6.203,6.25,6.204,6.242,6.214
		C6.235,6.215,6.228,6.217,6.221,6.217C5.892,6.221,5.562,6.225,5.232,6.23c-0.007,0-0.014-0.002-0.021-0.002
		c0.01-0.038,0.042-0.031,0.069-0.033C5.325,6.19,5.37,6.191,5.414,6.193C5.466,6.194,5.487,6.171,5.485,6.12
		c-0.001-0.019,0-0.038,0-0.056c0-0.579,0-1.158,0.001-1.737c0-0.054-0.008-0.108-0.01-0.162c0.01-0.014,0.026-0.019,0.04-0.027
		C5.768,4.002,6.02,3.866,6.272,3.73C6.285,3.724,6.298,3.719,6.311,3.714z"/>
	<path fill="#F58B22" d="M5.476,4.165c0.023,0.016,0.031,0.04,0.032,0.067c0,0.016,0,0.033,0,0.049c0,0.613,0,1.226,0,1.839
		c0,0.103,0.008,0.094-0.095,0.094c-0.052,0-0.103,0-0.155,0c-0.016,0-0.033-0.002-0.046,0.012C5.116,6.229,5.02,6.231,4.924,6.232
		C4.648,6.236,4.372,6.24,4.095,6.243c-0.023,0-0.047-0.001-0.07-0.002c0.018-0.044,0.058-0.033,0.09-0.033
		c0.143-0.002,0.287,0,0.43-0.001c0.087,0,0.092-0.005,0.092-0.092c0-0.454,0-0.908,0.001-1.361c0-0.044-0.008-0.084-0.033-0.12
		c0.009-0.007,0.018-0.015,0.028-0.021c0.242-0.13,0.485-0.261,0.727-0.391c0.01-0.005,0.021-0.009,0.032-0.014
		c0.005-0.004,0.01-0.007,0.016-0.01C5.411,4.195,5.415,4.193,5.42,4.194c0.005-0.003,0.011-0.007,0.016-0.01
		C5.439,4.18,5.442,4.179,5.447,4.179c0.007-0.001,0.012-0.007,0.018-0.01C5.467,4.165,5.471,4.164,5.476,4.165z"/>
	<path fill="#F04A23" d="M7.484,5.083C7.47,5.047,7.47,5.009,7.47,4.972c0-0.588,0-1.177,0-1.765c0-0.019,0-0.038,0-0.056
		c0-0.021-0.011-0.035-0.03-0.044c0.031-0.026,0.068-0.041,0.103-0.06c0.295-0.159,0.59-0.318,0.885-0.476
		C8.438,2.565,8.45,2.562,8.46,2.557c0.056,0.016,0.048,0.064,0.048,0.103C8.511,2.841,8.51,3.022,8.51,3.203
		c0,0.082-0.001,0.164,0,0.246c0,0.043-0.004,0.084-0.023,0.123C8.47,3.62,8.436,3.657,8.409,3.698
		c-0.134,0.204-0.27,0.406-0.405,0.609c-0.1,0.15-0.199,0.301-0.299,0.451C7.632,4.866,7.558,4.974,7.484,5.083z"/>
	<path fill="#F6A122" d="M4.605,4.633C4.654,4.641,4.658,4.645,4.66,4.688c0.001,0.014,0,0.028,0,0.042c0,0.47,0,0.941,0,1.411
		c0,0.093,0.006,0.088-0.088,0.088c-0.16,0-0.32,0-0.48,0.001c-0.023,0-0.047-0.008-0.067,0.012c-0.03,0.001-0.06,0.003-0.09,0.003
		C3.833,6.246,3.73,6.247,3.628,6.247c-0.023,0-0.046-0.002-0.069-0.003C3.532,6.212,3.537,6.173,3.537,6.136
		c0-0.251-0.001-0.503,0-0.754c0-0.055-0.006-0.107-0.034-0.155C3.547,5.191,3.6,5.17,3.649,5.143
		c0.308-0.166,0.616-0.332,0.924-0.497C4.583,4.641,4.594,4.637,4.605,4.633z"/>
	<path fill="#F8BC22" d="M3.503,5.226c0.039,0.006,0.056,0.03,0.056,0.068c0,0.016,0,0.033,0,0.049c0,0.3,0,0.6,0,0.9
		C3.498,6.247,3.437,6.252,3.376,6.252C3.045,6.256,2.713,6.258,2.382,6.262c-0.244,0.003-0.489,0.007-0.733,0.01
		c-0.023,0-0.045,0-0.07,0c0.007-0.023,0.024-0.027,0.037-0.034C2.048,6.005,2.48,5.772,2.912,5.54
		c0.174-0.093,0.347-0.187,0.521-0.28C3.456,5.247,3.48,5.237,3.503,5.226z"/>
	<path fill="#EF3924" d="M8.487,3.573c0-0.308,0-0.616,0-0.924c0-0.033,0.001-0.066-0.027-0.091C8.47,2.55,8.478,2.542,8.488,2.537
		c0.335-0.18,0.671-0.361,1.006-0.54c0.014-0.007,0.026-0.02,0.045-0.017C9.55,1.988,9.542,1.997,9.537,2.004
		C9.406,2.201,9.274,2.398,9.142,2.596C9.008,2.797,8.874,2.999,8.741,3.201c-0.077,0.116-0.153,0.231-0.23,0.346
		C8.504,3.557,8.495,3.564,8.487,3.573z"/>
	<path fill="#F47B23" d="M5.408,4.199c-0.005,0.003-0.01,0.006-0.016,0.01C5.396,4.202,5.4,4.198,5.408,4.199z"/>
	<path fill="#F47B23" d="M5.436,4.184C5.431,4.188,5.426,4.191,5.42,4.194C5.424,4.187,5.429,4.184,5.436,4.184z"/>
	<path fill="#F47B23" d="M5.465,4.169c-0.006,0.003-0.012,0.007-0.018,0.01C5.451,4.172,5.457,4.169,5.465,4.169z"/>
	<path fill="#666666" d="M21.962,1.57c0.031,0.003,0.051,0.017,0.071,0.028c0.321,0.167,0.642,0.335,0.964,0.502
		c0.188,0.098,0.376,0.194,0.564,0.292c0.236,0.122,0.471,0.245,0.707,0.368c0.225,0.117,0.451,0.234,0.676,0.352
		c0.238,0.124,0.475,0.248,0.713,0.372c0.227,0.118,0.455,0.236,0.682,0.355c0.238,0.124,0.476,0.247,0.713,0.371
		c0.234,0.122,0.467,0.243,0.701,0.365c0.344,0.179,0.688,0.358,1.032,0.537c0.344,0.179,0.688,0.358,1.032,0.537
		c0.14,0.073,0.279,0.146,0.418,0.22c0.01,0.005,0.02,0.013,0.028,0.02c0.002,0.002,0,0.012-0.001,0.012
		c-0.014,0.001-0.028,0.002-0.042,0.003c-0.247,0.002-0.494-0.002-0.741,0.006c-0.416,0.012-0.833,0.003-1.249,0.015
		c-0.388,0.011-0.776,0.003-1.164,0.013c-0.421,0.012-0.842,0.004-1.263,0.015c-0.235,0.006-0.47,0.005-0.706,0.009
		c-0.085,0.002-0.067,0.004-0.108-0.054c-0.125-0.179-0.25-0.358-0.376-0.537c-0.135-0.192-0.271-0.384-0.406-0.576
		c-0.119-0.169-0.236-0.339-0.355-0.509c-0.1-0.142-0.201-0.284-0.3-0.426c-0.097-0.139-0.193-0.278-0.29-0.416
		c-0.135-0.192-0.271-0.384-0.406-0.577c-0.065-0.092-0.128-0.186-0.193-0.278c-0.075-0.108-0.151-0.215-0.227-0.323
		c-0.065-0.092-0.13-0.184-0.195-0.276c-0.088-0.125-0.175-0.25-0.263-0.375C21.973,1.601,21.963,1.59,21.962,1.57z"/>
	<path fill="#F47B23" d="M26.505,8.403c-0.064,0.045-0.135,0.076-0.203,0.113c-0.221,0.12-0.443,0.239-0.665,0.358
		c-0.016,0.009-0.034,0.016-0.051,0.024c-0.006,0.01-0.02,0.006-0.027,0.014l-0.001,0c-0.042,0.016-0.048-0.018-0.056-0.043
		c-0.01-0.029-0.008-0.06-0.008-0.091c0-0.751,0-1.502,0-2.253c0-0.021,0-0.042,0.002-0.063c0.003-0.039,0.021-0.058,0.064-0.057
		c0.042,0.002,0.084,0.007,0.126-0.005c0.056-0.001,0.112-0.004,0.168-0.004c0.29-0.004,0.58-0.008,0.87-0.011
		c0.021,0,0.042,0.001,0.063,0.002c-0.012,0.041-0.048,0.032-0.076,0.033c-0.059,0.003-0.117,0.001-0.176,0.001
		c-0.044,0-0.065,0.02-0.064,0.064c0,0.019,0,0.038,0,0.056c0,0.564,0,1.128-0.001,1.692C26.472,8.293,26.477,8.35,26.505,8.403z"/>
	<path fill="#F26523" d="M25.687,6.4c-0.012,0.015-0.029,0.013-0.046,0.013c-0.033,0-0.066,0-0.099,0.002
		c-0.013,0.001-0.022,0.009-0.023,0.022c-0.002,0.016-0.002,0.033-0.002,0.049c0,0.778,0,1.556,0,2.334
		c0,0.023-0.003,0.047,0.009,0.069c0.007,0.013,0.016,0.023,0.032,0.024c-0.011,0.008-0.022,0.017-0.034,0.024
		c-0.248,0.134-0.495,0.267-0.743,0.4c-0.012,0.007-0.026,0.01-0.039,0.016c-0.043,0.002-0.056-0.028-0.063-0.062
		c-0.006-0.028-0.004-0.056-0.004-0.084c0-0.651,0-1.302,0-1.953c0-0.052,0.004-0.103,0.021-0.153
		c0.055-0.084,0.109-0.169,0.164-0.253c0.084-0.127,0.169-0.253,0.253-0.38c0.042-0.064,0.042-0.064,0.117-0.065
		c0.126-0.001,0.253-0.003,0.379-0.004C25.636,6.397,25.662,6.399,25.687,6.4z"/>
	<path fill="#F58F22" d="M26.505,8.403c-0.04-0.003-0.046-0.036-0.054-0.064c-0.004-0.013-0.001-0.028-0.001-0.042
		c0-0.608,0-1.217,0-1.825c0-0.073,0-0.073,0.074-0.073c0.073,0,0.146,0,0.218,0c0.016,0,0.033,0.002,0.046-0.012
		c0.101-0.002,0.201-0.004,0.302-0.005c0.276-0.004,0.552-0.007,0.828-0.01c0.023,0,0.047,0.001,0.07,0.002
		c-0.015,0.044-0.053,0.032-0.083,0.033c-0.115,0.003-0.231,0-0.346,0.001c-0.078,0.001-0.085,0.007-0.085,0.085
		c-0.001,0.409,0,0.819-0.001,1.228c0,0.053,0.017,0.096,0.051,0.134c-0.041,0.031-0.089,0.052-0.134,0.076
		c-0.255,0.138-0.511,0.276-0.767,0.413c-0.014,0.008-0.03,0.013-0.045,0.019c-0.006,0.003-0.011,0.007-0.017,0.01
		c-0.002,0.004-0.006,0.006-0.01,0.005c-0.007,0.001-0.012,0.006-0.018,0.01c-0.002,0.004-0.005,0.005-0.01,0.004
		c-0.008,0.001-0.014,0.007-0.019,0.011L26.505,8.403z"/>
	<path fill="#F7A722" d="M27.525,7.854c-0.016-0.002-0.033,0.001-0.046-0.013c-0.013-0.014-0.022-0.031-0.025-0.05
		c-0.003-0.018-0.002-0.038-0.002-0.056c0-0.423,0-0.847,0-1.27c0-0.084-0.003-0.081,0.081-0.081c0.132,0,0.263,0,0.395-0.001
		c0.02,0,0.043,0.006,0.06-0.012c0.019-0.001,0.037-0.003,0.056-0.003c0.135-0.001,0.27-0.003,0.405-0.004
		c0.021,0,0.042,0.002,0.062,0.003c0.026,0.032,0.022,0.07,0.022,0.108c0,0.199,0,0.398,0,0.597c0,0.077-0.002,0.155,0.01,0.231
		c-0.011,0.008-0.022,0.018-0.034,0.024C28.193,7.5,27.875,7.67,27.557,7.841C27.547,7.846,27.536,7.85,27.525,7.854z"/>
	<path fill="#F15723" d="M24.697,7.099c0.002,0.021,0.011,0.04,0.005,0.062c-0.005,0.02-0.003,0.042-0.003,0.063
		c0,0.673,0,1.346,0,2.019c0,0.009,0.001,0.019,0,0.028c-0.004,0.037,0.011,0.064,0.044,0.08c-0.017,0.02-0.043,0.028-0.065,0.04
		c-0.155,0.085-0.311,0.168-0.467,0.252c-0.014,0.008-0.03,0.013-0.044,0.019c-0.007,0.001-0.012,0.006-0.018,0.01
		c-0.002,0.004-0.006,0.005-0.01,0.004c-0.008,0.001-0.013,0.006-0.019,0.011c-0.002,0.004-0.004,0.005-0.008,0.004
		c-0.036,0.014-0.046-0.011-0.052-0.038c-0.007-0.028-0.005-0.056-0.005-0.084c0-0.468,0-0.937,0-1.405
		c0-0.045,0.003-0.089,0.022-0.131c0-0.005,0.001-0.009,0.006-0.012c0.002-0.005,0.006-0.009,0.01-0.013l0,0
		c0.006-0.005,0.011-0.011,0.012-0.019c0.07-0.108,0.14-0.217,0.211-0.324c0.119-0.18,0.239-0.36,0.359-0.539
		C24.681,7.116,24.69,7.108,24.697,7.099z"/>
	<path fill="#F04A23" d="M24.076,8.034c0,0.031,0.001,0.061,0.001,0.092c0,0.491,0,0.982,0,1.473c0,0.021,0,0.042,0.001,0.063
		c0.001,0.021,0.016,0.027,0.033,0.03c-0.016,0.01-0.03,0.022-0.047,0.03c-0.216,0.116-0.432,0.232-0.648,0.348
		c-0.014,0.008-0.03,0.013-0.045,0.02c-0.035-0.029-0.037-0.07-0.037-0.109c-0.002-0.251-0.001-0.501-0.001-0.752
		c0-0.048,0.019-0.091,0.035-0.135c0.015-0.043,0.046-0.076,0.07-0.113c0.188-0.284,0.377-0.567,0.566-0.85
		C24.029,8.098,24.047,8.062,24.076,8.034z"/>
	<path fill="#F8BD22" d="M28.544,7.305c-0.021-0.01-0.032-0.026-0.032-0.05c0-0.019,0-0.038,0-0.056c0-0.277,0-0.553,0-0.83
		c0.04-0.003,0.08-0.007,0.119-0.008c0.325-0.003,0.649-0.006,0.974-0.009c0.214-0.002,0.428-0.006,0.642-0.009
		c0.021,0,0.041,0,0.062,0c0.003,0.023-0.013,0.025-0.025,0.031c-0.207,0.112-0.414,0.223-0.621,0.334
		c-0.36,0.194-0.72,0.387-1.081,0.581C28.57,7.295,28.559,7.304,28.544,7.305z"/>
	<path fill="#EF3724" d="M23.371,9.094c0,0.016,0.004,0.034-0.001,0.049c-0.018,0.053-0.012,0.107-0.012,0.16
		c-0.001,0.188,0,0.376,0,0.563c0,0.075-0.005,0.15,0.015,0.223c-0.072,0.05-0.151,0.085-0.227,0.127
		c-0.246,0.134-0.492,0.265-0.739,0.398c-0.018,0.01-0.037,0.019-0.055,0.028c-0.013-0.015-0.001-0.024,0.005-0.032
		c0.096-0.145,0.193-0.289,0.289-0.434c0.082-0.123,0.163-0.247,0.245-0.37c0.078-0.117,0.156-0.235,0.234-0.352
		c0.065-0.098,0.13-0.196,0.195-0.293C23.336,9.138,23.349,9.113,23.371,9.094z"/>
	<path fill="#F26523" d="M25.56,8.912c0.006-0.011,0.016-0.014,0.027-0.014C25.581,8.908,25.572,8.912,25.56,8.912z"/>
	<path fill="#F04A23" d="M24.104,7.989c-0.001,0.009-0.005,0.015-0.012,0.019C24.092,8,24.097,7.993,24.104,7.989z"/>
	<path fill="#F04A23" d="M24.092,8.009c-0.003,0.004-0.007,0.009-0.01,0.013C24.082,8.015,24.086,8.011,24.092,8.009z"/>
	<path fill="#F47B23" d="M26.564,8.373c0.006-0.003,0.011-0.007,0.017-0.01C26.577,8.37,26.571,8.373,26.564,8.373z"/>
	<path fill="#F47B23" d="M26.535,8.387c0.006-0.003,0.012-0.007,0.018-0.01C26.549,8.384,26.543,8.387,26.535,8.387z"/>
	<path fill="#F47B23" d="M26.506,8.403c0.004-0.007,0.011-0.011,0.019-0.011C26.522,8.399,26.515,8.403,26.506,8.403z"/>
	<path fill="#F04A23" d="M24.149,9.672c0.006-0.003,0.012-0.007,0.018-0.01C24.163,9.669,24.157,9.672,24.149,9.672z"/>
	<path fill="#F04A23" d="M24.12,9.688c0.004-0.007,0.01-0.011,0.019-0.011C24.135,9.684,24.129,9.688,24.12,9.688z"/>
	<path fill="#FBDD21" d="M0.938,11.873c-0.003-0.009-0.009-0.017-0.009-0.026c-0.002-0.021-0.001-0.042-0.001-0.063
		c0-1.258,0-2.517,0-3.775c0-0.026,0-0.051,0-0.075c0.017-0.008,0.027,0,0.037,0.006c0.217,0.122,0.434,0.245,0.651,0.367
		c0.004,0.002,0.007,0.006,0.01,0.009c0.036,0.043,0.036,0.095,0.036,0.147c0,0.363,0,0.725,0,1.088c0,0.73,0,1.459,0,2.189
		c0,0.042,0.008,0.085-0.018,0.123c-0.026,0.015-0.055,0.007-0.082,0.007C1.353,11.872,1.145,11.87,0.938,11.873z"/>
	<path fill="#F8B622" d="M2.374,8.738c0.057,0.023,0.107,0.057,0.16,0.087c0.206,0.116,0.413,0.232,0.619,0.349
		c0.018,0.01,0.035,0.023,0.053,0.034c0.006,0.01,0.02,0.008,0.028,0.016l0,0C3.27,9.249,3.281,9.286,3.283,9.328
		C3.286,9.37,3.285,9.412,3.285,9.455c0,0.762,0,1.525,0,2.287c0,0.042,0.008,0.085-0.019,0.123
		c-0.034,0.013-0.07,0.006-0.105,0.006c-0.233,0.001-0.466,0.001-0.699,0c-0.026,0-0.052,0.005-0.077-0.005
		c-0.03-0.039-0.021-0.086-0.021-0.129C2.364,10.795,2.363,9.852,2.365,8.91C2.365,8.853,2.339,8.793,2.374,8.738z"/>
	<path fill="#FACD21" d="M2.374,8.738c0.022,0.14,0.012,0.281,0.012,0.422c0.001,0.901,0.001,1.803,0.001,2.704
		c-0.034,0.015-0.069,0.007-0.104,0.007c-0.192,0.001-0.384,0.001-0.576,0c-0.023,0-0.047,0.006-0.069-0.007
		c0-1.078,0-2.155-0.001-3.233c0-0.105,0.008-0.211-0.013-0.316c0.047,0.016,0.087,0.045,0.13,0.069
		C1.946,8.492,2.137,8.6,2.327,8.707C2.344,8.716,2.359,8.728,2.374,8.738z"/>
	<path fill="#F69F22" d="M3.262,11.864c0-0.832,0-1.665,0-2.497c0-0.05-0.006-0.098-0.029-0.143c0.043,0.013,0.079,0.04,0.117,0.061
		c0.216,0.121,0.432,0.243,0.647,0.365c0.014,0.008,0.027,0.018,0.04,0.028c0.023,0.03,0.023,0.066,0.023,0.101
		c0,0.664,0,1.327,0,1.991c0,0.033,0.003,0.066-0.019,0.095c-0.041,0.014-0.084,0.006-0.126,0.006c-0.195,0.001-0.391,0.001-0.586,0
		C3.308,11.871,3.284,11.878,3.262,11.864z"/>
	<path fill="#F58D22" d="M4.039,11.863c0-0.729,0-1.457,0-2.186C4.098,9.7,4.15,9.736,4.206,9.767
		C4.337,9.84,4.468,9.914,4.599,9.988c0.012,0.007,0.023,0.016,0.034,0.024c0.063,0.04,0.064,0.104,0.064,0.169
		c0,0.382,0,0.765,0,1.147c0,0.145,0,0.291,0,0.436c0,0.035,0.005,0.071-0.019,0.101C4.464,11.874,4.252,11.878,4.039,11.863z"/>
	<path fill="#F47E23" d="M4.674,11.863c0-0.566,0-1.132,0.001-1.699c0-0.056-0.01-0.107-0.042-0.152
		c0.043,0.013,0.079,0.04,0.118,0.062c0.192,0.107,0.384,0.216,0.575,0.324c0.014,0.008,0.027,0.018,0.04,0.027
		c0.032,0.045,0.037,0.096,0.037,0.148c0.001,0.402,0.001,0.803,0,1.205c0,0.03,0.002,0.062-0.019,0.087
		c-0.159,0.014-0.319,0.005-0.479,0.005C4.828,11.871,4.751,11.882,4.674,11.863z"/>
	<path fill="#F26723" d="M5.38,11.863c0-0.433,0-0.866,0-1.299c0-0.026,0-0.051-0.009-0.077c-0.006-0.019-0.004-0.042-0.006-0.063
		c0.065,0.027,0.124,0.066,0.185,0.1c0.225,0.126,0.448,0.252,0.672,0.379c0.016,0.009,0.031,0.02,0.047,0.031
		c0.029,0.037,0.037,0.08,0.037,0.126c0.001,0.239,0.001,0.479,0,0.718c-0.001,0.089-0.007,0.093-0.098,0.093
		c-0.253,0-0.507,0-0.76,0C5.426,11.871,5.401,11.879,5.38,11.863z"/>
	<path fill="#F14F23" d="M5.38,11.863c0.122,0.001,0.244,0.001,0.366,0.001c0.15,0,0.3,0,0.45,0c0.019,0,0.038,0,0.056-0.001
		c0.022-0.001,0.029-0.009,0.031-0.03c0.001-0.019,0.001-0.038,0.001-0.056c0-0.232,0-0.464,0-0.697
		c0-0.037,0.001-0.075-0.012-0.111c-0.004-0.01-0.001-0.023-0.002-0.035c0.062,0.024,0.116,0.061,0.173,0.093
		c0.461,0.259,0.922,0.52,1.382,0.78c0.03,0.017,0.062,0.031,0.088,0.053c-0.005,0.016-0.015,0.014-0.024,0.014
		c-0.024,0-0.047,0-0.071,0c-2.269,0.001-4.537,0.001-6.806,0.002c-0.026,0-0.052,0.005-0.077-0.004
		c0.023-0.009,0.046-0.005,0.07-0.005c0.185-0.001,0.369-0.001,0.554-0.001c0.026,0,0.051-0.001,0.077-0.002
		c0.023,0.001,0.047,0.002,0.07,0.002c0.203,0,0.406,0,0.609-0.001c0.023,0,0.047-0.001,0.07-0.002
		c0.016,0.001,0.033,0.002,0.049,0.002c0.261,0,0.522-0.001,0.784-0.001c0.014,0,0.028-0.001,0.042-0.001
		c0.054,0.001,0.107,0.002,0.161,0.002c0.205,0,0.41-0.001,0.616-0.002c0.212,0,0.424,0,0.635,0c0.148,0,0.296,0.001,0.445,0.001
		C5.206,11.864,5.293,11.863,5.38,11.863z"/>
	<path fill="#F69F22" d="M3.234,9.223c-0.012,0-0.023-0.003-0.028-0.016C3.218,9.208,3.227,9.213,3.234,9.223z"/>
	<path fill="#FBDD21" d="M1.893,4.311C1.81,4.359,1.728,4.408,1.644,4.455C1.483,4.547,1.321,4.638,1.159,4.729
		C1.143,4.738,1.127,4.746,1.113,4.753C1.096,4.743,1.101,4.73,1.1,4.719c-0.001-0.016,0-0.033,0-0.049c0-1.256,0-2.511,0-3.767
		c0-0.028,0.002-0.056,0.003-0.084c0.09-0.014,0.181-0.005,0.272-0.006c0.147-0.002,0.294-0.001,0.442,0
		c0.031,0.004,0.065-0.01,0.095,0.009c0.02,0.029,0.017,0.063,0.017,0.096c0,1.089,0,2.179,0,3.268
		C1.929,4.231,1.928,4.276,1.893,4.311z"/>
	<path fill="#F9C822" d="M1.893,4.311c0.011-0.043,0.013-0.088,0.013-0.132c0-1.12,0-2.239,0-3.359
		C1.947,0.805,1.99,0.812,2.031,0.813C2.226,0.815,2.42,0.805,2.615,0.818c0.023,0.028,0.02,0.062,0.02,0.094
		c0,0.964,0.001,1.929,0,2.893c0,0.04,0.003,0.081-0.036,0.108C2.529,3.962,2.453,3.999,2.38,4.041
		C2.239,4.122,2.098,4.201,1.956,4.28C1.936,4.292,1.914,4.301,1.893,4.311z"/>
	<path fill="#F8B822" d="M2.599,3.913c0.007-0.017,0.015-0.034,0.014-0.054c-0.001-0.009,0-0.019,0-0.028c0-1.004,0-2.008,0-3.011
		c0.103-0.016,0.206-0.004,0.309-0.007c0.078-0.002,0.155,0.003,0.233-0.001c0.054-0.003,0.072,0.022,0.073,0.069
		c0.001,0.021,0.001,0.042,0.001,0.064c0,0.829,0,1.657,0,2.486c0,0.052,0.004,0.104-0.034,0.147l0.001-0.001
		c-0.008-0.001-0.013,0.006-0.018,0.01l-0.001,0C3.17,3.596,3.156,3.593,3.149,3.603c-0.055,0.04-0.117,0.069-0.175,0.103
		C2.872,3.764,2.77,3.822,2.667,3.879C2.645,3.891,2.625,3.908,2.599,3.913z"/>
	<path fill="#F7A922" d="M3.195,3.577C3.209,3.522,3.206,3.466,3.206,3.41c0-0.831,0-1.662,0-2.492c0-0.024,0-0.047-0.001-0.071
		C3.204,0.83,3.193,0.822,3.177,0.82C3.165,0.819,3.153,0.819,3.142,0.819c-0.176,0-0.353,0-0.529,0c-0.235,0-0.471,0-0.706,0
		c-0.028,0-0.056-0.001-0.085-0.001C1.817,0.816,1.816,0.814,1.817,0.811C1.819,0.809,1.82,0.808,1.822,0.808
		c0.019-0.001,0.037-0.003,0.056-0.003c0.486,0,0.971,0,1.457,0.001c0.019,0,0.037,0.002,0.056,0.002
		c0.112,0.01,0.225,0.001,0.337,0.004C3.754,0.813,3.78,0.805,3.804,0.821C3.825,0.85,3.821,0.884,3.821,0.916
		c0,0.726,0,1.453,0,2.179c0,0.058-0.005,0.113-0.05,0.156C3.76,3.259,3.75,3.269,3.738,3.275C3.576,3.367,3.413,3.459,3.251,3.55
		C3.233,3.561,3.213,3.569,3.195,3.577z"/>
	<path fill="#F69922" d="M3.772,3.251c0-0.005-0.001-0.01,0.001-0.014C3.801,3.188,3.799,3.134,3.799,3.08c0-0.754,0-1.507,0-2.261
		c0.084-0.016,0.168-0.006,0.252-0.006c0.124,0,0.248-0.008,0.372,0.005c0.023,0.028,0.02,0.062,0.02,0.094c0,0.626,0,1.251,0,1.877
		c0,0.033,0,0.066-0.021,0.095l0.001-0.001C4.415,2.884,4.411,2.891,4.406,2.894l-0.001,0C4.398,2.904,4.385,2.901,4.378,2.91l0,0
		C4.374,2.914,4.37,2.917,4.364,2.919c-0.081,0.047-0.162,0.094-0.243,0.14C4.02,3.117,3.918,3.174,3.816,3.232
		C3.802,3.24,3.789,3.25,3.772,3.251z"/>
	<path fill="#F58822" d="M4.422,2.884C4.421,2.854,4.42,2.823,4.42,2.793c0-0.658,0-1.315,0-1.973
		c0.043-0.016,0.088-0.007,0.132-0.007c0.194-0.001,0.389-0.001,0.583,0c0.01-0.001,0.018,0.003,0.025,0.009
		c0.02,0.029,0.016,0.063,0.017,0.096c0,0.477,0,0.954,0,1.431c0,0.053-0.001,0.104-0.05,0.139C5.069,2.532,5.002,2.562,4.939,2.598
		C4.78,2.689,4.62,2.778,4.461,2.868C4.449,2.875,4.435,2.879,4.422,2.884z"/>
	<path fill="#F37323" d="M5.127,2.487c0.022-0.04,0.029-0.082,0.028-0.129C5.154,1.846,5.154,1.333,5.154,0.82
		c0.017-0.012,0.036-0.007,0.055-0.007c0.244,0,0.488,0,0.732,0c0.071,0,0.082,0.008,0.082,0.08c0.002,0.343,0.002,0.685,0,1.028
		c0,0.026-0.005,0.051-0.021,0.073C5.985,2.005,5.968,2.018,5.95,2.028C5.688,2.176,5.427,2.324,5.165,2.471
		C5.153,2.478,5.142,2.487,5.127,2.487z"/>
	<path fill="#F15B23" d="M6.003,1.994c0-0.357-0.001-0.714-0.001-1.071c0-0.023,0-0.047-0.001-0.07C6,0.83,5.992,0.822,5.972,0.82
		C5.96,0.819,5.948,0.819,5.937,0.819c-0.261,0-0.521,0-0.782,0c-0.005,0-0.009,0-0.014-0.001C5.136,0.816,5.134,0.814,5.136,0.812
		C5.137,0.81,5.139,0.808,5.141,0.808c0.019-0.001,0.037-0.003,0.056-0.003c0.288,0,0.576,0,0.864,0
		c0.019,0,0.037,0.002,0.056,0.003C6.338,0.817,6.561,0.81,6.783,0.812C6.861,0.813,6.87,0.819,6.871,0.894
		c0.002,0.183,0.001,0.366,0,0.548c0,0.026-0.006,0.051-0.02,0.073C6.819,1.545,6.78,1.56,6.743,1.581
		c-0.236,0.134-0.472,0.267-0.709,0.4C6.025,1.986,6.013,1.99,6.003,1.994z"/>
	<path fill="#F04723" d="M6.851,1.516C6.85,1.321,6.85,1.125,6.849,0.93C6.848,0.806,6.864,0.82,6.741,0.819
		c-0.186-0.001-0.372,0-0.558-0.001c-0.023,0-0.047,0.007-0.068-0.01c0.019-0.001,0.037-0.003,0.056-0.003c0.626,0,1.251,0,1.877,0
		c0.014,0,0.027,0,0.041,0c0.001,0.02-0.012,0.022-0.021,0.027C7.909,0.924,7.749,1.014,7.59,1.104
		C7.373,1.227,7.156,1.35,6.939,1.472C6.91,1.488,6.88,1.501,6.851,1.516z"/>
	<path fill="#F37323" d="M5.141,0.808c0,0.003,0,0.007,0,0.01c-0.24,0-0.48,0.001-0.72,0.001c-0.207,0-0.414,0-0.621,0
		c-0.116,0-0.232,0-0.348-0.001c-0.02,0-0.042,0.006-0.06-0.01C3.41,0.807,3.429,0.805,3.447,0.805c0.546,0,1.091,0,1.637,0.001
		C5.103,0.806,5.122,0.808,5.141,0.808z"/>
	<path fill="#F8B822" d="M1.822,0.808c0,0.004,0,0.007,0,0.011c-0.239,0-0.479,0-0.718,0C1.106,0.815,1.108,0.808,1.11,0.808
		c0.014-0.002,0.028-0.003,0.042-0.003c0.212,0,0.423,0,0.635,0C1.799,0.805,1.81,0.807,1.822,0.808z"/>
	<path fill="#F58822" d="M4.378,2.91c0.005-0.011,0.015-0.014,0.027-0.015C4.399,2.905,4.39,2.91,4.378,2.91z"/>
	<path fill="#F7A922" d="M3.149,3.603c0.005-0.012,0.015-0.015,0.027-0.016C3.17,3.597,3.161,3.602,3.149,3.603z"/>
	<path fill="#F58822" d="M4.406,2.894c0.004-0.007,0.009-0.011,0.017-0.011C4.42,2.891,4.414,2.895,4.406,2.894z"/>
	<path fill="#F58822" d="M4.364,2.919C4.369,2.916,4.374,2.913,4.378,2.91C4.376,2.916,4.371,2.919,4.364,2.919z"/>
	<path fill="#F7A922" d="M3.177,3.587c0.004-0.007,0.01-0.011,0.018-0.01C3.192,3.585,3.185,3.587,3.177,3.587z"/>
	<path fill="#FBDC21" d="M30.957,0.744c0.007,0.007,0.011,0.015,0.01,0.025c0,0.021,0,0.042,0,0.064c0,1.256,0,2.513,0,3.769
		c0,0.027-0.001,0.055-0.002,0.08c-0.017,0.008-0.027,0-0.037-0.006c-0.237-0.134-0.475-0.268-0.712-0.402
		c-0.004-0.002-0.007-0.006-0.01-0.01c-0.038-0.037-0.051-0.083-0.051-0.134c0-0.007,0-0.014,0-0.021c0-1.09,0-2.18,0-3.271
		c0-0.03-0.002-0.062,0.018-0.088c0.008-0.006,0.017-0.008,0.026-0.008C30.452,0.743,30.704,0.739,30.957,0.744z"/>
	<path fill="#F7A722" d="M28.935,3.547c-0.047-0.015-0.087-0.045-0.13-0.069c-0.229-0.128-0.458-0.258-0.687-0.387
		c-0.02-0.011-0.039-0.025-0.059-0.038c-0.044-0.034-0.036-0.084-0.036-0.13c-0.001-0.444,0-0.888,0-1.333c0-0.244,0-0.489,0-0.733
		c0-0.037-0.006-0.076,0.019-0.109c0.017-0.011,0.037-0.007,0.055-0.006c0.27,0.003,0.541-0.006,0.811,0.004
		c0.031,0.039,0.021,0.085,0.021,0.129c0.001,0.827,0.001,1.655,0,2.482C28.929,3.421,28.942,3.484,28.935,3.547z"/>
	<path fill="#F8BD22" d="M28.935,3.547c-0.026-0.031-0.028-0.067-0.028-0.106c0.001-0.897,0.001-1.794,0.001-2.691
		c0.004-0.003,0.008-0.008,0.012-0.008c0.227,0.001,0.455-0.007,0.683,0.004c0.03,0.04,0.02,0.086,0.02,0.13
		c0.001,0.964,0.001,1.929-0.001,2.893c0,0.053,0.019,0.108-0.01,0.159c-0.047-0.016-0.087-0.045-0.129-0.069
		c-0.169-0.095-0.338-0.19-0.507-0.286C28.961,3.566,28.949,3.556,28.935,3.547z"/>
	<path fill="#F9CA22" d="M29.612,3.928c-0.01-0.044-0.013-0.088-0.013-0.132c0-1.015,0-2.031,0-3.046
		c0.04-0.017,0.083-0.009,0.124-0.008c0.152,0.004,0.303-0.012,0.455,0.008c0,1.102,0,2.205,0,3.307c0,0.071,0.002,0.14,0.029,0.207
		c-0.057-0.021-0.107-0.057-0.16-0.086C29.941,4.12,29.836,4.06,29.73,4c-0.016-0.009-0.031-0.02-0.046-0.03
		c-0.007-0.009-0.02-0.006-0.027-0.015l-0.001-0.001c-0.006-0.004-0.012-0.01-0.019-0.011c-0.004,0.001-0.008,0-0.01-0.004
		C29.622,3.934,29.617,3.931,29.612,3.928L29.612,3.928z"/>
	<path fill="#F58F22" d="M28.046,0.751c0,0.74,0,1.48,0,2.22c0,0.028,0,0.056,0.014,0.082c-0.009-0.003-0.018-0.005-0.026-0.01
		C27.8,2.912,27.566,2.78,27.333,2.648c-0.012-0.007-0.023-0.015-0.035-0.023c-0.023-0.03-0.023-0.066-0.023-0.101
		c0-0.56,0-1.12,0-1.68c0-0.033-0.003-0.066,0.019-0.095c0.062-0.014,0.125-0.006,0.188-0.006c0.166-0.001,0.331-0.001,0.497,0
		C28.001,0.742,28.026,0.734,28.046,0.751z"/>
	<path fill="#F47F23" d="M27.298,0.751c0,0.625,0,1.249,0,1.874c-0.09-0.049-0.181-0.098-0.27-0.149
		c-0.139-0.078-0.277-0.156-0.416-0.235c-0.012-0.007-0.023-0.016-0.034-0.024c-0.029-0.04-0.037-0.085-0.037-0.134
		c0-0.416,0-0.832,0-1.249c0-0.03-0.002-0.062,0.019-0.088c0.108-0.013,0.216-0.004,0.324-0.006c0.115-0.002,0.231-0.001,0.346,0
		C27.252,0.742,27.277,0.734,27.298,0.751z"/>
	<path fill="#F26823" d="M26.564,0.751c0,0.449,0,0.899,0,1.348c0,0.024,0.001,0.046,0.009,0.069
		c0.005,0.015,0.003,0.032,0.005,0.049c-0.072-0.03-0.137-0.072-0.204-0.11c-0.225-0.126-0.45-0.254-0.675-0.381
		c-0.018-0.01-0.035-0.023-0.053-0.034c-0.021-0.028-0.023-0.061-0.023-0.094c0-0.252-0.001-0.503,0-0.755
		c0-0.099,0.004-0.102,0.104-0.102c0.256,0,0.513,0,0.769,0C26.518,0.742,26.543,0.734,26.564,0.751z"/>
	<path fill="#F04F23" d="M26.564,0.751c-0.012-0.001-0.023-0.002-0.035-0.002c-0.273,0-0.546,0-0.818,0
		c-0.064,0-0.065,0.001-0.065,0.068c0,0.292,0,0.583,0,0.875c-0.068-0.027-0.129-0.068-0.192-0.103
		c-0.361-0.203-0.721-0.406-1.081-0.61c-0.113-0.064-0.225-0.127-0.338-0.191c-0.02-0.011-0.039-0.024-0.058-0.036
		c0.008-0.019,0.021-0.013,0.031-0.013c0.205,0,0.409-0.001,0.614-0.001c2.087-0.001,4.174-0.001,6.26-0.001
		c0.025,0,0.051-0.008,0.075,0.006c-0.023,0.001-0.047,0.002-0.07,0.002c-0.21,0-0.421,0.001-0.631,0.001
		c-0.026,0-0.051,0.002-0.077,0.002c-0.037-0.001-0.074-0.003-0.111-0.003c-0.156,0.001-0.312,0.002-0.467,0.003
		c-0.021-0.001-0.042-0.002-0.063-0.002c-0.191,0-0.382,0-0.573,0.001c-0.019,0-0.037,0.001-0.056,0.002
		c-0.016-0.001-0.033-0.002-0.049-0.002c-0.257,0-0.514,0-0.77,0.001c-0.014,0-0.028,0.001-0.042,0.002
		c-0.019-0.001-0.037-0.002-0.056-0.002c-0.215,0-0.429,0-0.644,0.001c-0.016,0-0.033,0.001-0.049,0.002
		c-0.038-0.001-0.075-0.002-0.113-0.002c-0.181,0-0.362,0-0.544,0C26.615,0.749,26.589,0.75,26.564,0.751z"/>
	<path fill="#F8BD22" d="M29.657,3.954c0.011,0.001,0.021,0.004,0.027,0.015C29.672,3.97,29.664,3.964,29.657,3.954z"/>
	<path fill="#F8BD22" d="M29.611,3.928c0.005,0.003,0.011,0.007,0.016,0.01C29.619,3.939,29.614,3.936,29.611,3.928z"/>
	<path fill="#F8BD22" d="M29.637,3.942c0.008,0,0.015,0.004,0.019,0.011C29.648,3.954,29.641,3.95,29.637,3.942z"/>
	<path fill="#FACF21" d="M30.772,7.868c0.008-0.009,0.02-0.008,0.021,0.002c0.003,0.021,0.002,0.042,0.002,0.063
		c0,0.577,0,1.153,0,1.73c0,0.687,0,1.375,0,2.062c0,0.092,0.01,0.083-0.083,0.083c-0.221,0-0.442,0-0.664,0
		c-0.023,0-0.047-0.002-0.07-0.002c-0.209-0.011-0.417-0.002-0.626-0.005c-0.028,0-0.056,0.007-0.083-0.007
		c-0.022-0.029-0.018-0.062-0.018-0.095c0-0.961,0-1.923,0-2.884c0-0.035-0.002-0.071,0.022-0.101
		c0.054-0.041,0.116-0.07,0.175-0.103c0.235-0.133,0.47-0.266,0.705-0.398c0.012-0.007,0.025-0.011,0.038-0.017
		c0.015,0.015,0.015,0.034,0.014,0.053c-0.013,0.289-0.005,0.579-0.005,0.868c-0.001,0.831,0,1.661,0,2.492
		c0,0.026-0.001,0.052,0,0.078c0.002,0.077,0.009,0.085,0.086,0.085c0.132,0.001,0.264-0.001,0.395,0.001
		c0.057,0.001,0.083-0.021,0.08-0.078c-0.002-0.026,0-0.052,0-0.078c0-1.212,0-2.424,0-3.636
		C30.763,7.942,30.761,7.904,30.772,7.868z"/>
	<path fill="#F8B122" d="M29.274,8.714c0,0.209,0,0.418,0,0.627c0,0.818,0,1.635,0,2.453c-0.012,0.009-0.027,0.007-0.041,0.007
		c-0.284,0-0.569-0.001-0.853,0.001c-0.052,0-0.073-0.02-0.074-0.068c0-0.014-0.001-0.028-0.001-0.042c0-0.774,0-1.547,0-2.321
		c0-0.048,0.005-0.094,0.037-0.132c0.038-0.032,0.084-0.051,0.126-0.076c0.255-0.145,0.511-0.289,0.766-0.433
		C29.248,8.723,29.261,8.719,29.274,8.714z"/>
	<path fill="#FBE121" d="M30.772,7.868c0.01,0.008,0.013,0.019,0.013,0.031c0,0.019,0,0.038,0,0.056c0,1.247,0,2.494,0,3.741
		c0,0.019,0.001,0.038,0,0.056c-0.001,0.034-0.007,0.04-0.043,0.04c-0.151,0.001-0.301,0-0.452,0c-0.026,0-0.052,0-0.078-0.001
		c-0.026-0.001-0.032-0.008-0.034-0.035c-0.001-0.014-0.001-0.028-0.001-0.042c0-1.132,0-2.264,0-3.395c0-0.028,0-0.056,0.011-0.083
		c0.005-0.013,0.003-0.028,0.004-0.042c0.002-0.004,0.005-0.006,0.009-0.004c0.008-0.001,0.014-0.006,0.019-0.012l0,0
		c0.007-0.009,0.02-0.006,0.028-0.015l0,0c0.004-0.004,0.009-0.008,0.014-0.01c0.002-0.005,0.006-0.006,0.011-0.005
		c0.006-0.002,0.011-0.007,0.017-0.01c0.002-0.004,0.006-0.006,0.01-0.004c0.007-0.002,0.013-0.007,0.019-0.012l0.001,0
		c0.007-0.009,0.02-0.006,0.027-0.014l0,0c0.007-0.008,0.021-0.006,0.027-0.016c0.073-0.051,0.154-0.089,0.23-0.134
		C30.66,7.926,30.717,7.897,30.772,7.868z"/>
	<path fill="#F69C22" d="M28.343,9.238c-0.019,0.066-0.014,0.135-0.014,0.203c0,0.752,0,1.504,0,2.256
		c0,0.104-0.01,0.097,0.093,0.097c0.284,0,0.569,0,0.853,0c0.213,0,0.425,0,0.638,0.001c0.023,0,0.047-0.008,0.067,0.011
		c-0.019,0.001-0.037,0.003-0.056,0.003c-0.556,0-1.111,0-1.667-0.001c-0.019,0-0.037-0.002-0.056-0.003
		c-0.164-0.011-0.328-0.001-0.492-0.005c-0.025-0.001-0.052,0.007-0.076-0.007c-0.022-0.029-0.018-0.062-0.018-0.095
		c0-0.648,0-1.296,0-1.944c0-0.045,0.002-0.09,0.036-0.125c0.007-0.006,0.013-0.013,0.021-0.017
		c0.215-0.122,0.431-0.243,0.646-0.364C28.325,9.243,28.334,9.241,28.343,9.238z"/>
	<path fill="#F47D23" d="M27.636,11.794c0.166,0,0.331,0,0.497,0.001c0.023,0,0.047-0.007,0.067,0.011
		c-0.016,0.001-0.033,0.003-0.049,0.003c-0.386,0-0.773,0-1.159,0c-0.016,0-0.033-0.002-0.049-0.003
		c-0.214-0.01-0.427-0.002-0.641-0.004c-0.094-0.001-0.1-0.004-0.1-0.098c-0.001-0.393-0.001-0.785,0-1.178
		c0-0.037-0.002-0.077,0.037-0.101c0.039-0.034,0.088-0.054,0.132-0.079c0.218-0.125,0.437-0.247,0.655-0.371
		c0.014-0.008,0.03-0.013,0.045-0.02c0.008,0.009,0.012,0.02,0.011,0.032c-0.035,0.448-0.007,0.896-0.015,1.345
		c-0.002,0.12-0.001,0.24,0,0.359c0.001,0.073,0.007,0.079,0.082,0.08c0.129,0.001,0.258,0,0.387,0.001
		C27.571,11.772,27.607,11.768,27.636,11.794z"/>
	<path fill="#F58D22" d="M27.636,11.794c-0.174,0-0.347,0-0.521,0c-0.071,0-0.072-0.001-0.072-0.068c0-0.545,0-1.089,0-1.634
		c0-0.029,0.003-0.056,0.013-0.083c0.007-0.017,0.01-0.036,0.014-0.054c0.071-0.05,0.149-0.087,0.223-0.13
		c0.101-0.059,0.203-0.115,0.305-0.172c0.016-0.009,0.031-0.021,0.051-0.023c-0.014,0.046-0.013,0.092-0.013,0.139
		C27.636,10.444,27.636,11.119,27.636,11.794z"/>
	<path fill="#F26223" d="M26.238,10.424c-0.013,0.021-0.015,0.044-0.014,0.068c0,0.414,0,0.828,0,1.241c0,0.009,0,0.019,0.001,0.028
		c0.002,0.022,0.009,0.03,0.03,0.031c0.019,0.001,0.038,0.001,0.056,0.001c0.188,0,0.376,0,0.564,0.001
		c0.023,0,0.047-0.007,0.067,0.011c-0.016,0.001-0.033,0.003-0.049,0.003c-0.311,0-0.622,0-0.933,0
		c-0.016,0-0.033-0.002-0.049-0.003c-0.169-0.01-0.339-0.004-0.508-0.003c-0.062,0.001-0.089-0.025-0.09-0.08
		c-0.003-0.235-0.007-0.471,0.002-0.706c0.001-0.028,0.009-0.056,0.018-0.083c0.013-0.009,0.026-0.019,0.04-0.027
		c0.277-0.157,0.554-0.313,0.831-0.469C26.216,10.432,26.228,10.429,26.238,10.424z"/>
	<path fill="#F14F23" d="M25.335,10.933c0.012,0.021,0.019,0.044,0.008,0.067c-0.01,0.022-0.008,0.046-0.008,0.069
		c0,0.209,0,0.418,0,0.627c0,0.012-0.001,0.024,0,0.035c0.004,0.048,0.018,0.061,0.066,0.061c0.148,0.001,0.296,0,0.444,0.001
		c0.023,0,0.047-0.007,0.067,0.011c-0.023,0.001-0.047,0.003-0.07,0.003c-0.658,0-1.316,0-1.975-0.001
		c-0.02,0-0.041,0.002-0.06-0.002c0.002-0.022,0.018-0.024,0.029-0.031c0.141-0.08,0.282-0.16,0.423-0.24
		c0.336-0.189,0.671-0.378,1.007-0.567C25.288,10.955,25.312,10.945,25.335,10.933z"/>
	<path fill="#FACF21" d="M30.375,8.092c-0.005,0.012-0.015,0.016-0.027,0.016C30.354,8.098,30.364,8.092,30.375,8.092z"/>
	<path fill="#FACF21" d="M30.348,8.108c-0.006,0.011-0.016,0.014-0.027,0.014C30.327,8.112,30.336,8.107,30.348,8.108z"/>
	<path fill="#FACF21" d="M30.249,8.164c-0.006,0.012-0.016,0.015-0.028,0.015C30.227,8.168,30.237,8.164,30.249,8.164z"/>
	<path fill="#FACF21" d="M30.32,8.123c-0.004,0.007-0.01,0.011-0.019,0.012C30.305,8.126,30.311,8.122,30.32,8.123z"/>
	<path fill="#FACF21" d="M30.291,8.139c-0.004,0.007-0.009,0.01-0.017,0.01C30.277,8.141,30.283,8.138,30.291,8.139z"/>
	<path fill="#FACF21" d="M30.263,8.154c-0.005,0.003-0.009,0.007-0.014,0.01C30.251,8.157,30.255,8.153,30.263,8.154z"/>
	<path fill="#FACF21" d="M30.221,8.179C30.217,8.186,30.21,8.19,30.201,8.19C30.205,8.182,30.212,8.178,30.221,8.179z"/>
	<path d="M13.882,6.596c0.038,0,0.073-0.015,0.109-0.022c0.103-0.021,0.205-0.041,0.31-0.051c0.016-0.001,0.032-0.006,0.047-0.01
		c0.021,0,0.042,0.001,0.062,0c0.112-0.007,0.222,0.002,0.331,0.028c0.009,0.006,0.021,0.004,0.03,0.012
		c0.003,0.003,0.006,0.004,0.01,0.003c0.007,0.001,0.012,0.006,0.018,0.009c0.003,0.004,0.007,0.005,0.011,0.004
		c0.006,0.003,0.011,0.006,0.017,0.01c0.003,0.004,0.006,0.005,0.011,0.005c0.013,0.01,0.025,0.021,0.038,0.03
		c0.083,0.061,0.135,0.143,0.16,0.242c0.031,0.121,0.029,0.242-0.002,0.363c-0.019,0.074-0.053,0.14-0.106,0.196
		c-0.011,0.012-0.022,0.025-0.033,0.037c-0.081,0.059-0.17,0.097-0.269,0.113c-0.056,0.009-0.112,0.009-0.168,0.009
		c-0.023,0-0.047-0.001-0.07-0.001c-0.009-0.002-0.018-0.005-0.027-0.007c-0.205-0.042-0.333-0.172-0.417-0.355
		c-0.017-0.036-0.032-0.073-0.048-0.109c-0.008-0.039-0.016-0.077-0.025-0.116c-0.026-0.107-0.034-0.216-0.037-0.325
		C13.834,6.623,13.851,6.607,13.882,6.596z"/>
	<path fill="#F15423" d="M14.771,6.553c-0.012,0.001-0.022-0.002-0.03-0.012C14.753,6.539,14.764,6.541,14.771,6.553z"/>
	<path fill="#F15423" d="M14.799,6.565c-0.008,0-0.014-0.002-0.018-0.009C14.789,6.555,14.795,6.558,14.799,6.565z"/>
	<path fill="#F15423" d="M14.828,6.579c-0.008,0-0.013-0.003-0.017-0.01C14.818,6.569,14.824,6.572,14.828,6.579z"/>
</g>
</svg>
