<?xml version="1.0" encoding="utf-8"?>
<!-- Generator: Adobe Illustrator 24.3.0, SVG Export Plug-In . SVG Version: 6.00 Build 0)  -->
<svg version="1.1" id="Слой_1" xmlns="http://www.w3.org/2000/svg" xmlns:xlink="http://www.w3.org/1999/xlink" x="0px" y="0px"
	 width="32px" height="13px" viewBox="0 0 32 13" enable-background="new 0 0 32 13" xml:space="preserve">
<g>
	<path fill="#D4D4D4" d="M12.113,13.006c0-0.009,0-0.018,0-0.027c0.021-0.012,0.044-0.009,0.067-0.009
		c2.202,0.001,4.404,0,6.606,0.001c0.04,0,0.082-0.008,0.119,0.019c0.001,0.005,0.001,0.011,0.002,0.016
		C16.642,13.006,14.378,13.006,12.113,13.006z"/>
	<path d="M18.905,12.989c-0.027,0-0.055,0.001-0.082,0.001c-2.208,0-4.416,0-6.624,0c-0.029,0-0.059,0.008-0.086-0.011
		c-0.077-0.144-0.153-0.288-0.231-0.432c-0.452-0.839-0.905-1.678-1.358-2.517C9.95,8.965,9.375,7.901,8.801,6.837
		C8.781,6.801,8.763,6.764,8.742,6.729c-0.01-0.018-0.01-0.032,0-0.05c0.055-0.099,0.108-0.2,0.162-0.299
		c0.546-1.013,1.093-2.025,1.639-3.038c0.515-0.955,1.03-1.909,1.545-2.864c0.005-0.01,0.013-0.019,0.016-0.03
		c0.008-0.023,0.025-0.03,0.048-0.028c0.016,0.001,0.032,0,0.048,0c2.205,0,4.411,0,6.616,0c0.111,0,0.078-0.019,0.132,0.081
		c0.395,0.731,0.79,1.462,1.184,2.192c0.369,0.683,0.737,1.366,1.106,2.049C21.578,5.371,21.917,6,22.256,6.63
		c0.013,0.024,0.03,0.048,0.034,0.073c0.004,0.027-0.02,0.05-0.033,0.073c-0.365,0.677-0.731,1.354-1.096,2.031
		c-0.489,0.907-0.979,1.813-1.468,2.72c-0.254,0.471-0.509,0.943-0.763,1.414C18.922,12.957,18.913,12.973,18.905,12.989z"/>
	<path d="M10.593,2.16c-0.01,0.02-0.019,0.04-0.029,0.06C10.143,3.021,9.721,3.823,9.3,4.624C8.973,5.247,8.646,5.869,8.319,6.493
		C8.286,6.555,8.286,6.535,8.318,6.597c0.34,0.664,0.68,1.329,1.02,1.994c0.369,0.721,0.738,1.442,1.107,2.163
		c0.074,0.145,0.149,0.291,0.223,0.437c0.008,0.016,0.021,0.03,0.016,0.055c-0.024,0-0.048,0-0.072,0
		c-0.423-0.004-0.846-0.008-1.268-0.012c-0.734-0.008-1.468-0.017-2.203-0.024c-0.371-0.004-0.741-0.005-1.112-0.008
		c-1.025-0.009-2.05-0.018-3.076-0.027c-0.23-0.002-0.459-0.006-0.689-0.009c-0.007,0-0.014-0.001-0.02,0
		c-0.021,0.002-0.034-0.007-0.042-0.026c-0.019-0.044-0.039-0.087-0.059-0.13c-0.35-0.773-0.701-1.546-1.05-2.319
		c-0.315-0.697-0.63-1.393-0.945-2.09C0.145,6.594,0.144,6.59,0.141,6.586C0.117,6.554,0.129,6.524,0.144,6.492
		c0.132-0.276,0.264-0.553,0.395-0.83C0.823,5.066,1.107,4.47,1.391,3.873c0.266-0.559,0.532-1.119,0.798-1.678
		c0.004-0.008,0.009-0.016,0.012-0.025C2.21,2.143,2.228,2.135,2.257,2.135c0.182,0.002,0.364,0.001,0.546,0.002
		c0.348,0.001,0.696,0.002,1.044,0.002C4.754,2.14,5.661,2.14,6.568,2.141c0.473,0.001,0.946,0.002,1.419,0.003
		C8.618,2.145,9.25,2.147,9.882,2.149c0.218,0.001,0.436,0.001,0.655,0.003C10.554,2.152,10.573,2.146,10.593,2.16z"/>
	<path d="M20.412,11.211c0.011-0.024,0.021-0.046,0.032-0.068c0.423-0.826,0.845-1.652,1.268-2.479
		c0.355-0.693,0.709-1.386,1.065-2.078c0.026-0.05,0.026-0.087-0.001-0.137c-0.314-0.594-0.626-1.188-0.939-1.783
		c-0.435-0.827-0.869-1.655-1.304-2.483c-0.009-0.017-0.025-0.033-0.021-0.056c0.018-0.008,0.036-0.004,0.054-0.004
		c0.391-0.001,0.782-0.002,1.173-0.002c0.434-0.001,0.868-0.001,1.303-0.002c0.634-0.001,1.268-0.004,1.903-0.005
		c0.834-0.002,1.669-0.003,2.503-0.004c0.455-0.001,0.909-0.001,1.364-0.002c0.085,0,0.066-0.011,0.101,0.062
		c0.383,0.805,0.767,1.61,1.15,2.415c0.295,0.619,0.589,1.237,0.884,1.856c0.008,0.016,0.014,0.033,0.023,0.049
		c0.009,0.016,0.007,0.029,0,0.045c-0.021,0.045-0.041,0.091-0.061,0.137c-0.598,1.321-1.197,2.641-1.795,3.962
		c-0.066,0.147-0.132,0.294-0.198,0.441c-0.006,0.012-0.013,0.024-0.018,0.037c-0.006,0.017-0.016,0.026-0.035,0.025
		c-0.011-0.001-0.023,0-0.034,0c-0.682,0.006-1.364,0.011-2.046,0.017c-0.418,0.004-0.836,0.01-1.255,0.014
		c-0.475,0.005-0.95,0.009-1.425,0.013c-0.684,0.007-1.368,0.014-2.053,0.02c-0.368,0.003-0.737,0.005-1.105,0.008
		c-0.159,0.001-0.318,0.004-0.477,0.006C20.452,11.216,20.434,11.22,20.412,11.211z"/>
	<path fill="#F900FF" d="M11.062,3.909c-0.001-0.005,0-0.009,0.005-0.011c0.002-0.005,0.006-0.01,0.01-0.014l0,0
		c0.009-0.007,0.006-0.02,0.014-0.027l0,0c0.008-0.007,0.005-0.02,0.014-0.026l0-0.001c0.005-0.006,0.01-0.011,0.011-0.02
		c-0.002-0.004-0.001-0.007,0.003-0.008c0.004-0.006,0.009-0.011,0.011-0.018c-0.001-0.004,0-0.008,0.004-0.009
		c0.003-0.006,0.008-0.01,0.01-0.017c-0.001-0.005,0-0.008,0.004-0.01c0.003-0.005,0.006-0.01,0.01-0.015l-0.001,0.001
		c0.01-0.006,0.007-0.02,0.015-0.027l0,0c0.009-0.007,0.006-0.02,0.014-0.027l0,0c0.006-0.006,0.011-0.011,0.011-0.02l-0.001-0.004
		L11.2,3.653c0.005-0.006,0.01-0.011,0.011-0.019c-0.001-0.004,0-0.007,0.004-0.008c0.004-0.006,0.009-0.011,0.01-0.018
		c-0.001-0.004,0-0.008,0.004-0.01c0.003-0.006,0.008-0.01,0.01-0.017c-0.001-0.005,0-0.008,0.005-0.011
		c0.003-0.005,0.006-0.01,0.009-0.015l0,0.001c0.01-0.007,0.007-0.02,0.014-0.027l0,0c0.009-0.007,0.006-0.02,0.014-0.027l0,0
		c0.008-0.007,0.005-0.02,0.014-0.026l0-0.001c0.005-0.006,0.01-0.011,0.011-0.019c-0.002-0.004,0-0.007,0.003-0.009
		c0.004-0.006,0.009-0.011,0.01-0.018c0.029-0.072,0.07-0.137,0.107-0.205c0.354-0.657,0.709-1.314,1.064-1.971
		c0.046-0.086,0.019-0.073,0.123-0.073c1.934,0,3.868,0,5.802,0c0.096,0,0.073-0.01,0.115,0.066c0.578,1.07,1.155,2.141,1.733,3.211
		c0.009,0.016,0.015,0.033,0.022,0.049c0.001,0.007,0.006,0.013,0.011,0.018L20.3,4.528L20.3,4.532c0,0.009,0.006,0.014,0.011,0.021
		l0,0.001c0.009,0.006,0.006,0.019,0.014,0.026l0,0c0.008,0.008,0.005,0.02,0.014,0.027l0,0c0.004,0.004,0.007,0.009,0.01,0.014
		c0.004,0.002,0.006,0.006,0.005,0.011c0.002,0.006,0.007,0.011,0.01,0.017c0.004,0.002,0.006,0.006,0.004,0.01
		c0.002,0.007,0.007,0.012,0.01,0.017c0.004,0.001,0.005,0.004,0.004,0.008c0.001,0.008,0.006,0.014,0.01,0.019
		c0.004,0.001,0.005,0.004,0.003,0.008c0.001,0.009,0.006,0.014,0.012,0.02l0,0c0.008,0.007,0.006,0.02,0.014,0.027l0,0
		c0.008,0.007,0.005,0.02,0.015,0.027l0-0.001c0.007,0.008,0.004,0.021,0.014,0.028l0-0.001c0.009,0.018,0.006,0.043,0.029,0.054
		l-0.001-0.001c0,0.008,0.007,0.011,0.011,0.017l0,0.001c0.009,0.006,0.006,0.019,0.014,0.026l0,0.001
		c0.009,0.007,0.006,0.02,0.014,0.026l0,0c0.001,0.042-0.027,0.06-0.061,0.07c-0.017,0.005-0.036,0.006-0.054,0.006
		c-0.297-0.009-0.594,0.02-0.891,0.014c-0.055-0.001-0.109,0-0.157-0.033c-0.013-0.01-0.018-0.025-0.026-0.039
		c-0.467-0.865-0.934-1.73-1.401-2.595c-0.005-0.01-0.012-0.019-0.016-0.03c-0.011-0.028-0.031-0.037-0.059-0.033
		c-0.013,0.002-0.027,0-0.041,0c-1.53,0-3.06,0-4.59,0c-0.098,0-0.075-0.018-0.124,0.073c-0.466,0.863-0.932,1.726-1.397,2.589
		c-0.006,0.012-0.015,0.022-0.023,0.033c-0.024,0.022-0.054,0.022-0.083,0.021c-0.306-0.009-0.612,0.021-0.918,0.014
		c-0.016,0-0.032,0-0.048,0c-0.113-0.002-0.128-0.022-0.096-0.131l0,0c0.018-0.032,0.059-0.051,0.052-0.096
		c0.002-0.004,0.004-0.009,0.005-0.013c0.003-0.005,0.006-0.01,0.01-0.015l0,0.001c0.01-0.007,0.007-0.02,0.014-0.027l0,0
		c0.009-0.007,0.006-0.02,0.014-0.026l0-0.001c0.005-0.006,0.011-0.011,0.011-0.02l-0.001-0.005l0.004-0.003
		c0.005-0.006,0.01-0.011,0.011-0.019c-0.001-0.004,0-0.007,0.004-0.008c0.004-0.006,0.009-0.011,0.01-0.017
		c-0.002-0.004,0-0.008,0.004-0.01c0.004-0.005,0.007-0.01,0.01-0.016L10.679,4.62c0.011-0.006,0.008-0.019,0.015-0.027l0,0.001
		c0.009-0.007,0.007-0.02,0.014-0.027l0,0c0.009-0.007,0.006-0.02,0.014-0.026l0-0.001c0.008-0.007,0.005-0.02,0.014-0.026
		l0.001-0.001c0.004-0.006,0.01-0.011,0.011-0.018c-0.002-0.004,0-0.007,0.004-0.009c0.004-0.006,0.009-0.011,0.01-0.018
		c-0.001-0.004,0-0.008,0.005-0.01c0.003-0.005,0.006-0.011,0.01-0.016c-0.001-0.005,0-0.009,0.004-0.011
		c0.003-0.005,0.006-0.01,0.01-0.015l0,0.001c0.01-0.006,0.007-0.019,0.015-0.027l0,0c0.008-0.007,0.006-0.02,0.014-0.027l0,0
		c0.005-0.006,0.011-0.011,0.011-0.019c-0.002-0.004-0.001-0.006,0.003-0.008c0.005-0.006,0.01-0.011,0.01-0.019
		c-0.001-0.004,0-0.007,0.004-0.008c0.004-0.006,0.008-0.01,0.01-0.017c-0.001-0.005,0-0.008,0.004-0.011
		c0.003-0.006,0.007-0.01,0.01-0.016c-0.001-0.005,0-0.008,0.005-0.011c0.002-0.005,0.006-0.01,0.01-0.014l0,0
		c0.009-0.007,0.006-0.02,0.014-0.027l0,0c0.009-0.007,0.006-0.02,0.014-0.026l0-0.001c0.007-0.007,0.004-0.02,0.013-0.026
		l0.001-0.001c0.004-0.006,0.009-0.011,0.011-0.018c-0.001-0.004,0-0.007,0.004-0.009c0.003-0.006,0.009-0.011,0.01-0.018
		c-0.001-0.004,0-0.008,0.004-0.01c0.003-0.005,0.006-0.01,0.01-0.015l-0.001,0.001c0.01-0.007,0.007-0.02,0.014-0.028l0,0.001
		c0.009-0.006,0.007-0.02,0.015-0.027l0,0c0.008-0.007,0.005-0.02,0.014-0.027l0-0.001c0.005-0.006,0.011-0.011,0.011-0.02
		c-0.001-0.004,0-0.007,0.004-0.008c0.004-0.006,0.009-0.011,0.01-0.019c-0.001-0.004,0-0.007,0.004-0.009
		c0.004-0.006,0.008-0.01,0.01-0.017c-0.001-0.005,0-0.008,0.005-0.011C11.056,3.92,11.059,3.914,11.062,3.909z"/>
	<path fill="#666666" d="M12.738,12.048c-0.006-0.018,0.003-0.029,0.009-0.041c0.13-0.265,0.261-0.529,0.392-0.794
		c0.004-0.008,0.009-0.016,0.013-0.024c0.008-0.015,0.022-0.022,0.039-0.022c0.02,0,0.041,0,0.061,0c1.537,0,3.073,0,4.61,0
		c0.116,0,0.089,0.016,0.144-0.085c0.112-0.208,0.225-0.415,0.337-0.623c0.07-0.13,0.139-0.26,0.21-0.39
		c0.148-0.274,0.296-0.547,0.444-0.821c0.072-0.134,0.144-0.268,0.216-0.402c0.114-0.212,0.229-0.423,0.343-0.635
		c0.074-0.138,0.148-0.276,0.222-0.414c0.044-0.082,0.088-0.164,0.132-0.246c0.006-0.012,0.013-0.024,0.02-0.035
		c0.008-0.013,0.02-0.017,0.035-0.012c0.028,0.01,0.056,0.019,0.084,0.029c0.125,0.047,0.25,0.095,0.376,0.142
		c0.085,0.032,0.17,0.064,0.255,0.096c0.006,0.002,0.013,0.005,0.019,0.008c0.023,0.011,0.025,0.018,0.012,0.043
		c-0.025,0.046-0.049,0.092-0.074,0.138c-0.047,0.086-0.094,0.171-0.14,0.257c-0.111,0.206-0.221,0.412-0.332,0.618
		c-0.155,0.288-0.31,0.575-0.466,0.863c-0.123,0.228-0.246,0.455-0.369,0.683c-0.127,0.236-0.254,0.472-0.381,0.708
		c-0.125,0.232-0.25,0.464-0.375,0.695c-0.042,0.078-0.086,0.155-0.127,0.233c-0.013,0.025-0.031,0.038-0.059,0.035
		c-0.016-0.002-0.032,0-0.048,0c-1.841,0-3.683,0-5.524,0C12.79,12.052,12.763,12.055,12.738,12.048z"/>
	<path fill="#F600FF" d="M16.288,8.601c0-0.026,0.012-0.043,0.02-0.062c0.381-0.906,0.762-1.811,1.145-2.716
		c0.029-0.069,0.026-0.137,0.025-0.207c0-0.011-0.007-0.016-0.017-0.017c-0.02-0.001-0.041-0.001-0.061-0.001
		c-0.439,0-0.877,0-1.316,0c-0.094,0-0.082,0.01-0.082-0.085c0-0.2,0-0.4,0-0.6c0-0.018,0-0.036,0.001-0.054
		c0-0.013,0.006-0.022,0.02-0.022c0.016-0.001,0.032-0.001,0.048-0.001c0.707,0,1.414,0,2.12,0c0.073,0,0.067-0.006,0.067,0.065
		c0,0.268,0,0.536,0.001,0.804c0,0.037-0.007,0.071-0.022,0.105c-0.409,0.98-0.818,1.96-1.227,2.939
		c-0.027,0.064-0.013,0.068-0.093,0.044c-0.169-0.051-0.339-0.101-0.508-0.153C16.367,8.629,16.327,8.614,16.288,8.601z"/>
	<path fill="#FC00FF" d="M13.764,7.046c-0.005,0.001-0.01,0.002-0.014,0.003c-0.008,0.006-0.018,0.006-0.026,0.01
		C13.716,7.06,13.708,7.062,13.7,7.063c-0.012,0.005-0.023,0.006-0.034,0c-0.008-0.001-0.017-0.003-0.025-0.004
		c-0.012-0.009-0.029,0-0.041-0.01c-0.009-0.001-0.018-0.003-0.027-0.004c-0.01-0.005-0.021-0.005-0.03-0.009
		c-0.008-0.001-0.016-0.003-0.024-0.004c-0.012-0.01-0.029-0.001-0.041-0.011c-0.005-0.001-0.009-0.002-0.014-0.003
		c-0.01-0.006-0.021-0.005-0.031-0.009c-0.008-0.001-0.016-0.003-0.023-0.004c-0.013-0.01-0.03-0.002-0.042-0.01
		c-0.009-0.001-0.017-0.003-0.026-0.004c-0.012-0.009-0.029,0-0.04-0.01c-0.005-0.001-0.009-0.001-0.014-0.002
		c-0.011-0.011-0.029-0.001-0.04-0.012c-0.005-0.001-0.01-0.002-0.015-0.003c-0.012-0.009-0.029,0-0.041-0.01
		c-0.009-0.001-0.018-0.003-0.028-0.004c-0.009-0.005-0.02-0.005-0.03-0.009l-0.006,0.001l-0.004-0.004
		c-0.011-0.056-0.009-0.112-0.001-0.167c-0.005-0.012-0.003-0.025,0.002-0.037c0.018-0.065-0.004-0.132,0.012-0.197
		c-0.004-0.007-0.003-0.014,0.001-0.021c0.01-0.013,0.017-0.029,0.013-0.045c-0.021-0.072,0.024-0.087,0.079-0.091
		c0.104-0.008,0.208-0.016,0.313-0.022c0.194-0.01,0.387-0.003,0.581-0.032c0.181-0.027,0.367-0.029,0.551-0.021
		c0.073,0.003,0.141,0.03,0.211,0.047c0.166,0.058,0.297,0.162,0.399,0.304c0.088,0.122,0.142,0.259,0.169,0.405
		c0.057,0.298,0.052,0.596-0.024,0.891c-0.045,0.174-0.121,0.332-0.24,0.468c-0.091,0.104-0.2,0.183-0.325,0.242
		c-0.166,0.077-0.341,0.108-0.522,0.115c-0.139,0.005-0.277-0.006-0.415-0.019c-0.14-0.013-0.279-0.037-0.417-0.062
		c-0.154-0.028-0.307-0.063-0.458-0.103c-0.006-0.002-0.012-0.005-0.019-0.007c-0.009-0.023-0.002-0.045,0-0.067
		c0.021-0.18,0.043-0.361,0.065-0.541c0.002-0.016,0.004-0.032,0.006-0.047c0.006-0.037,0.008-0.039,0.044-0.029
		c0.086,0.022,0.174,0.031,0.261,0.047c0.143,0.027,0.288,0.04,0.431,0.059c0.147,0.019,0.294,0.027,0.442,0.026
		c0.055,0,0.108-0.012,0.159-0.033c0.098-0.039,0.166-0.108,0.211-0.202c0.025-0.052,0.041-0.106,0.049-0.162
		c0.014-0.109,0.016-0.217-0.009-0.325c-0.021-0.091-0.062-0.17-0.136-0.23c-0.02-0.016-0.041-0.029-0.063-0.04
		c-0.024-0.012-0.049-0.023-0.074-0.034c-0.012-0.011-0.03-0.002-0.042-0.011c-0.009-0.001-0.017-0.002-0.026-0.003
		c-0.095-0.009-0.19-0.009-0.285,0c-0.017,0.004-0.034,0.007-0.052,0.004c-0.018,0.01-0.039,0-0.057,0.009
		c-0.013,0.001-0.026,0.003-0.039,0.004c-0.013,0.008-0.03,0.001-0.043,0.01c-0.004,0.001-0.009,0.002-0.013,0.003
		c-0.012,0.01-0.029,0.001-0.041,0.011c-0.008,0.001-0.015,0.003-0.023,0.004C13.786,7.04,13.774,7.039,13.764,7.046z"/>
	<path fill="#EA00FF" d="M19.353,4.991c0.011,0,0.024-0.004,0.034-0.001c0.051,0.017,0.103,0.012,0.155,0.012
		c0.084,0,0.168,0,0.252,0c0.043,0,0.086,0.004,0.128-0.011c0.016-0.006,0.036-0.002,0.054-0.002c0.145,0,0.29-0.002,0.435,0.001
		c0.049,0.001,0.083-0.014,0.106-0.056c0.047,0.067,0.081,0.141,0.119,0.213c0.269,0.497,0.537,0.995,0.805,1.492
		c0.035,0.065,0.035,0.065,0.001,0.129c-0.159,0.296-0.319,0.591-0.479,0.887c-0.027,0.05-0.027,0.05-0.081,0.03
		c-0.21-0.078-0.421-0.157-0.631-0.235c-0.094-0.035-0.187-0.069-0.281-0.104c-0.01-0.004-0.02-0.01-0.03-0.016
		c0.005-0.027,0.02-0.048,0.031-0.07c0.089-0.166,0.179-0.332,0.269-0.497c0.006-0.012,0.012-0.024,0.019-0.036
		c0.009-0.015,0.009-0.028,0-0.044c-0.028-0.049-0.054-0.1-0.081-0.15c-0.269-0.499-0.539-0.999-0.808-1.498
		C19.364,5.02,19.353,5.008,19.353,4.991z"/>
	<path fill="#EA00FF" d="M10.531,4.894c0,0.027,0,0.054,0.001,0.081C10.532,4.99,10.541,5,10.557,5.002
		c0.014,0.001,0.027,0.001,0.041,0.001c0.143,0,0.285,0,0.428,0c0.014,0,0.028,0.003,0.041-0.001
		c0.055-0.018,0.112-0.012,0.168-0.012c0.147-0.001,0.294,0,0.441,0c-0.014,0.046-0.041,0.085-0.064,0.127
		c-0.274,0.509-0.549,1.018-0.824,1.527c-0.04,0.074-0.037,0.05,0,0.123c0.019,0.038,0.045,0.073,0.058,0.115
		c0.002,0.007,0.007,0.012,0.011,0.017c0.004,0.001,0.005,0.004,0.004,0.008c0.001,0.008,0.006,0.014,0.011,0.019
		c0.004,0.001,0.005,0.004,0.003,0.007c0.001,0.009,0.006,0.014,0.012,0.02l0,0c0.008,0.007,0.006,0.02,0.014,0.027l0,0
		C10.907,6.987,10.904,7,10.914,7.006l-0.001-0.001c0.004,0.005,0.007,0.01,0.01,0.015c0.004,0.003,0.005,0.006,0.004,0.011
		c0.003,0.006,0.007,0.011,0.01,0.016c0.004,0.002,0.005,0.005,0.004,0.009c0.001,0.007,0.006,0.013,0.01,0.018
		c0.004,0.002,0.005,0.005,0.003,0.009c0.001,0.008,0.007,0.013,0.011,0.019l0,0.001c0.009,0.006,0.006,0.019,0.014,0.026l0,0
		c0.008,0.007,0.006,0.02,0.014,0.027l0,0C11.002,7.164,11,7.177,11.009,7.184l0-0.001c0.004,0.005,0.007,0.01,0.009,0.015
		c0.004,0.002,0.006,0.006,0.005,0.01c0.002,0.006,0.007,0.011,0.01,0.017c0.004,0.002,0.005,0.005,0.004,0.009
		c0.002,0.007,0.006,0.012,0.01,0.018c0.004,0.001,0.005,0.004,0.004,0.008c0.001,0.008,0.006,0.014,0.011,0.02l0.003,0.003
		l-0.001,0.004c0,0.009,0.006,0.014,0.011,0.02l0,0c0.008,0.007,0.006,0.02,0.014,0.027l0,0c0.033,0.116,0.013,0.144-0.108,0.145
		c-0.29,0.001-0.581,0.001-0.871,0c-0.055,0-0.109-0.003-0.158-0.033C9.899,7.346,9.844,7.247,9.79,7.148
		C9.716,7.013,9.644,6.877,9.57,6.742C9.555,6.715,9.554,6.695,9.569,6.667c0.11-0.201,0.218-0.403,0.326-0.604
		c0.2-0.371,0.4-0.742,0.6-1.113C10.506,4.931,10.519,4.913,10.531,4.894z"/>
	<path fill="#F200FF" d="M14.883,6.352c-0.03,0.001-0.059,0.002-0.086-0.015c-0.018-0.011-0.038-0.012-0.059-0.012
		c-0.118,0-0.236,0-0.353,0c-0.007,0-0.014-0.001-0.02,0.001c-0.064,0.021-0.13,0.012-0.195,0.012c-0.032,0-0.062,0.013-0.093,0.013
		C14.03,6.35,13.986,6.36,13.942,6.37c-0.036,0.008-0.071,0.009-0.107,0.01c-0.02,0-0.04,0-0.06-0.007
		c-0.031-0.011-0.064-0.011-0.094-0.002c-0.034,0.01-0.067,0.009-0.101,0.01c-0.032,0-0.063,0-0.095,0
		c-0.011,0-0.023-0.002-0.034,0.001c-0.057,0.018-0.117,0.012-0.175,0.012c-0.023,0-0.044,0.009-0.066,0.013
		c-0.017,0.003-0.038-0.005-0.052,0.01c-0.015,0.017,0.003,0.034,0.005,0.051c0.003,0.023-0.005,0.04-0.027,0.049
		c0.002-0.061,0.002-0.122,0.005-0.184c0.006-0.104,0.014-0.208,0.02-0.313c0.012-0.204,0.022-0.408,0.033-0.612
		c0.009-0.166,0.019-0.331,0.029-0.497c0.001-0.023,0.005-0.045,0.007-0.065c0.019-0.013,0.038-0.009,0.056-0.009
		c0.677,0,1.355,0,2.032,0c0.067,0,0.062-0.004,0.062,0.063c0,0.211,0,0.423,0,0.634c0,0.009,0,0.018,0,0.027
		c-0.001,0.028-0.003,0.03-0.033,0.031c-0.018,0.001-0.036,0-0.055,0c-0.436,0-0.873,0-1.309,0c-0.084,0-0.074-0.008-0.084,0.075
		c-0.02,0.178-0.041,0.356-0.062,0.534c-0.005,0.045-0.01,0.09-0.015,0.135c-0.001,0.011,0.007,0.017,0.017,0.015
		c0.059-0.016,0.118-0.031,0.177-0.049c0.168-0.05,0.339-0.056,0.513-0.039c0.109,0.011,0.215,0.035,0.319,0.07
		C14.86,6.338,14.875,6.338,14.883,6.352z"/>
	<path fill="#D300FF" d="M9.954,7.445c0.018,0,0.038-0.005,0.054,0c0.042,0.014,0.085,0.011,0.128,0.011c0.283,0,0.566,0,0.849,0
		c0.018,0,0.036,0.001,0.054,0c0.039-0.002,0.049-0.011,0.051-0.048c0.001-0.025,0.001-0.05,0.001-0.075
		c0.033,0.041,0.053,0.089,0.078,0.135c0.199,0.366,0.396,0.733,0.594,1.1c0.01,0.018,0.017,0.037,0.026,0.055
		c0.001,0.008,0.006,0.013,0.01,0.019c0.004,0.001,0.005,0.004,0.004,0.008c0.001,0.008,0.006,0.014,0.011,0.02l0,0
		c0.008,0.007,0.006,0.02,0.014,0.027l0,0c0.008,0.007,0.005,0.02,0.015,0.027l0-0.001c0.007,0.008,0.004,0.021,0.014,0.028
		L11.855,8.75c0.003,0.005,0.007,0.01,0.01,0.015c0.004,0.002,0.005,0.005,0.004,0.009c0.001,0.007,0.006,0.012,0.01,0.018
		c0.004,0.002,0.005,0.005,0.004,0.009c0.001,0.008,0.007,0.013,0.011,0.019l0,0.001c0.009,0.006,0.006,0.019,0.014,0.026l0,0.001
		c0.009,0.007,0.006,0.02,0.015,0.026l0,0c0.007,0.008,0.005,0.021,0.014,0.027l0-0.001c0.004,0.004,0.007,0.009,0.01,0.014
		c0.004,0.002,0.006,0.006,0.005,0.011c0.002,0.006,0.007,0.011,0.01,0.017c0.004,0.002,0.005,0.006,0.004,0.01
		c0.002,0.007,0.007,0.011,0.01,0.017c0.004,0.001,0.005,0.004,0.004,0.008c0.001,0.008,0.006,0.014,0.011,0.019
		c0.004,0.001,0.005,0.004,0.003,0.008c0.001,0.008,0.006,0.014,0.012,0.02l0,0c0.008,0.007,0.006,0.02,0.014,0.027l0,0
		c0.008,0.007,0.005,0.021,0.015,0.027l-0.001-0.001c0.004,0.005,0.007,0.01,0.01,0.015c0.004,0.003,0.005,0.006,0.004,0.011
		c0.003,0.005,0.007,0.011,0.01,0.016c0.004,0.002,0.005,0.005,0.004,0.009c0.002,0.007,0.006,0.012,0.01,0.018
		c0.004,0.002,0.005,0.005,0.003,0.009c0.002,0.008,0.007,0.013,0.011,0.019l0,0.001c0.009,0.006,0.006,0.019,0.014,0.026l0,0
		c-0.003,0.071-0.018,0.087-0.097,0.088c-0.165,0.003-0.331,0.003-0.496,0c-0.152-0.002-0.302,0.023-0.454,0.014
		c-0.041-0.002-0.082-0.001-0.113-0.035c-0.037-0.049-0.061-0.106-0.09-0.159c-0.291-0.537-0.58-1.074-0.87-1.611
		C9.97,7.483,9.962,7.464,9.954,7.445z"/>
	<path fill="#BA00FF" d="M10.939,9.271c0.037,0.011,0.075,0.014,0.114,0.013c0.052-0.001,0.104,0,0.156,0
		c0.038,0,0.076,0.003,0.114-0.01c0.018-0.006,0.04-0.003,0.061-0.003c0.199,0,0.399,0,0.598,0c0.005,0,0.009,0,0.014,0
		c0.075,0,0.075,0,0.103-0.068c0.039,0.053,0.065,0.113,0.096,0.171c0.07,0.127,0.138,0.254,0.206,0.382
		c0.005,0.01,0.008,0.021,0.012,0.031c0.003,0.005,0.007,0.011,0.01,0.016c0.004,0.002,0.005,0.005,0.004,0.01
		c0.001,0.007,0.006,0.012,0.01,0.018c0.004,0.002,0.005,0.005,0.004,0.009c0.001,0.008,0.007,0.013,0.011,0.019l0,0.001
		c0.009,0.007,0.006,0.019,0.014,0.026l0,0.001c0.009,0.007,0.006,0.02,0.015,0.026l0,0c0.007,0.008,0.005,0.021,0.014,0.028
		l0-0.001c0.004,0.004,0.007,0.009,0.01,0.014c0.004,0.002,0.006,0.006,0.005,0.011c0.002,0.006,0.007,0.011,0.01,0.017
		c0.004,0.003,0.005,0.006,0.004,0.01c0.002,0.007,0.007,0.011,0.01,0.017c0.004,0.002,0.005,0.004,0.004,0.008
		c0.001,0.008,0.006,0.014,0.011,0.019c0.004,0.002,0.005,0.004,0.003,0.008c0.001,0.008,0.006,0.014,0.012,0.02l0,0
		c0.008,0.007,0.006,0.02,0.014,0.027l0,0c0.008,0.007,0.005,0.021,0.015,0.027l-0.001-0.001c0.004,0.005,0.007,0.01,0.01,0.015
		c0.004,0.003,0.005,0.007,0.004,0.011c0.003,0.005,0.007,0.011,0.01,0.016c0.004,0.002,0.005,0.005,0.004,0.009
		c0.002,0.007,0.006,0.012,0.01,0.018c0.004,0.002,0.005,0.005,0.003,0.009c0.001,0.008,0.007,0.013,0.011,0.019l0,0.001
		c0.009,0.006,0.006,0.019,0.014,0.026l0,0c0.008,0.007,0.006,0.02,0.014,0.027l0,0c0.004,0.004,0.007,0.009,0.01,0.014
		c0.004,0.003,0.006,0.007,0.005,0.012c0.004,0.005,0.007,0.01,0.009,0.015c0.004,0.002,0.006,0.006,0.005,0.011
		c0.002,0.006,0.007,0.011,0.01,0.017c0.004,0.002,0.005,0.006,0.004,0.01c0.002,0.007,0.007,0.012,0.01,0.018
		c0.004,0.001,0.005,0.004,0.004,0.008c0.001,0.008,0.006,0.014,0.011,0.019c0.004,0.001,0.005,0.004,0.003,0.007
		c0.001,0.008,0.006,0.014,0.011,0.02l0,0c-0.006,0.043-0.042,0.043-0.072,0.046c-0.05,0.005-0.099,0.002-0.149,0.002
		c-0.285,0-0.57,0-0.855,0c-0.04,0-0.083,0.004-0.112-0.034c-0.042-0.057-0.07-0.121-0.103-0.183
		c-0.167-0.307-0.332-0.614-0.497-0.921C10.955,9.308,10.948,9.289,10.939,9.271z"/>
	<path fill="#A700FF" d="M11.566,10.43c0.023,0.011,0.047,0.013,0.073,0.013c0.345,0,0.69,0,1.035,0c0.03,0,0.059-0.001,0.08-0.027
		c0.004,0.005,0.01,0.009,0.013,0.015c0.099,0.184,0.198,0.368,0.298,0.551c0.011,0.02,0.012,0.035,0.001,0.056
		c-0.18,0.361-0.36,0.723-0.539,1.085c-0.006,0.012-0.013,0.024-0.022,0.04c-0.021-0.015-0.028-0.036-0.037-0.054
		c-0.125-0.231-0.25-0.463-0.375-0.695c-0.168-0.311-0.337-0.623-0.505-0.934C11.579,10.463,11.566,10.449,11.566,10.43z"/>
	<path fill="#6B00E7" d="M15.517,12.201c0.968,0,1.937,0,2.905,0c0.069,0,0.086,0.004,0.076,0.015
		c-0.021,0.024-0.051,0.012-0.076,0.012c-1.939,0.001-3.878,0.001-5.817,0c-0.023,0-0.045-0.001-0.068-0.004
		c-0.004,0-0.007-0.01-0.009-0.016c0-0.001,0.006-0.007,0.009-0.007c0.025-0.001,0.05-0.002,0.075-0.002
		C13.58,12.201,14.548,12.201,15.517,12.201z"/>
	<path fill="#F200FF" d="M14.064,6.991c0.008-0.004,0.016-0.011,0.024-0.011c0.079-0.001,0.159-0.001,0.238,0
		c0.008,0,0.016,0.007,0.024,0.011C14.255,6.985,14.159,6.99,14.064,6.991z"/>
	<path fill="#EA00FF" d="M10.583,4.797c0.016,0.01,0.019,0.025,0.009,0.039c-0.017,0.022-0.036,0.044-0.061,0.058
		C10.544,4.859,10.559,4.826,10.583,4.797z"/>
	<path fill="#F200FF" d="M13.135,6.537c0,0.054,0.001,0.107,0.001,0.161c0,0.014-0.001,0.027-0.013,0.036
		C13.122,6.668,13.119,6.602,13.135,6.537z"/>
	<path fill="#F200FF" d="M13.121,6.771c0,0.056,0.001,0.112,0.001,0.167c-0.006-0.002-0.013-0.004-0.013-0.013
		C13.111,6.874,13.107,6.821,13.121,6.771z"/>
	<path fill="#EA00FF" d="M20.478,4.864c-0.019,0.001-0.029-0.007-0.03-0.027c0-0.009,0-0.018,0-0.027
		C20.465,4.825,20.475,4.843,20.478,4.864z"/>
	<path fill="#F200FF" d="M13.955,7.004c0.017-0.017,0.037-0.01,0.057-0.009C13.995,7.006,13.975,7.006,13.955,7.004z"/>
	<path fill="#F200FF" d="M13.246,6.966c0.015-0.001,0.03-0.003,0.04,0.012C13.27,6.981,13.257,6.978,13.246,6.966z"/>
	<path fill="#F200FF" d="M13.19,6.953c0.015-0.001,0.03-0.004,0.041,0.01C13.216,6.965,13.202,6.964,13.19,6.953z"/>
	<path fill="#F200FF" d="M13.366,6.995c0.015-0.001,0.031-0.005,0.042,0.01C13.393,7.007,13.378,7.006,13.366,6.995z"/>
	<path fill="#F200FF" d="M14.375,6.995c0.015-0.001,0.031-0.005,0.042,0.011C14.402,7.007,14.388,7.005,14.375,6.995z"/>
	<path fill="#F200FF" d="M13.874,7.018c0.012-0.015,0.027-0.011,0.043-0.01C13.904,7.019,13.889,7.019,13.874,7.018z"/>
	<path fill="#F200FF" d="M13.476,7.021c0.015-0.001,0.03-0.004,0.041,0.011C13.502,7.034,13.488,7.033,13.476,7.021z"/>
	<path fill="#F200FF" d="M13.819,7.032c0.011-0.015,0.026-0.012,0.041-0.011C13.849,7.033,13.834,7.034,13.819,7.032z"/>
	<path fill="#F200FF" d="M13.599,7.049c0.015-0.001,0.03-0.004,0.041,0.01C13.625,7.061,13.611,7.059,13.599,7.049z"/>
	<path fill="#F200FF" d="M13.3,6.98c0.015-0.001,0.03-0.004,0.04,0.01C13.325,6.993,13.311,6.991,13.3,6.98z"/>
	<path fill="#EA00FF" d="M11.295,3.477c0,0.011-0.003,0.021-0.014,0.026C11.281,3.491,11.286,3.483,11.295,3.477z"/>
	<path fill="#EA00FF" d="M11.281,3.503c0,0.011-0.003,0.021-0.014,0.027C11.267,3.518,11.272,3.51,11.281,3.503z"/>
	<path fill="#EA00FF" d="M11.267,3.53c0,0.012-0.003,0.022-0.014,0.027C11.252,3.545,11.256,3.536,11.267,3.53z"/>
	<path fill="#A700FF" d="M12.467,9.884c-0.01-0.006-0.013-0.015-0.014-0.026C12.463,9.864,12.467,9.872,12.467,9.884z"/>
	<path fill="#EA00FF" d="M11.186,3.68c0,0.011-0.003,0.021-0.014,0.027C11.171,3.695,11.175,3.686,11.186,3.68z"/>
	<path fill="#EA00FF" d="M11.171,3.707c0,0.012-0.002,0.022-0.015,0.027C11.157,3.723,11.162,3.713,11.171,3.707z"/>
	<path fill="#A700FF" d="M12.482,9.911c-0.011-0.005-0.014-0.015-0.015-0.026C12.477,9.891,12.482,9.899,12.482,9.911z"/>
	<path fill="#A700FF" d="M12.496,9.938c-0.012-0.006-0.014-0.016-0.014-0.028C12.492,9.916,12.495,9.926,12.496,9.938z"/>
	<path fill="#A700FF" d="M12.577,10.088c-0.011-0.006-0.014-0.016-0.014-0.027C12.573,10.067,12.577,10.076,12.577,10.088z"/>
	<path fill="#A700FF" d="M12.592,10.115c-0.012-0.005-0.015-0.015-0.015-0.027C12.587,10.094,12.592,10.103,12.592,10.115z"/>
	<path fill="#EA00FF" d="M11.104,3.831c0,0.011-0.003,0.021-0.014,0.026C11.089,3.846,11.095,3.837,11.104,3.831z"/>
	<path fill="#EA00FF" d="M11.09,3.857c0,0.012-0.002,0.022-0.014,0.027C11.076,3.873,11.08,3.863,11.09,3.857z"/>
	<path fill="#A700FF" d="M12.658,10.238c-0.011-0.006-0.013-0.015-0.014-0.026C12.654,10.218,12.659,10.227,12.658,10.238z"/>
	<path fill="#A700FF" d="M12.673,10.265c-0.011-0.005-0.014-0.015-0.014-0.027C12.667,10.245,12.673,10.254,12.673,10.265z"/>
	<path fill="#EA00FF" d="M11.008,4.008c0,0.011-0.003,0.021-0.014,0.027C10.995,4.023,10.999,4.014,11.008,4.008z"/>
	<path fill="#EA00FF" d="M10.995,4.035c0,0.012-0.003,0.021-0.015,0.027C10.98,4.05,10.984,4.041,10.995,4.035z"/>
	<path fill="#EA00FF" d="M10.98,4.061c0.001,0.012-0.002,0.022-0.014,0.028C10.966,4.077,10.969,4.067,10.98,4.061z"/>
	<path fill="#BA00FF" d="M12.032,9.079c-0.012-0.005-0.015-0.015-0.015-0.027C12.027,9.058,12.032,9.067,12.032,9.079z"/>
	<path fill="#F200FF" d="M13.132,6.941c0.011-0.002,0.022-0.001,0.03,0.009C13.151,6.951,13.141,6.95,13.132,6.941z"/>
	<path fill="#D300FF" d="M10.899,6.979c-0.011-0.006-0.014-0.015-0.014-0.027C10.896,6.959,10.9,6.968,10.899,6.979z"/>
	<path fill="#EA00FF" d="M10.913,4.186c0,0.011-0.003,0.021-0.014,0.026C10.899,4.2,10.904,4.192,10.913,4.186z"/>
	<path fill="#EA00FF" d="M10.899,4.212c0,0.012-0.002,0.022-0.014,0.027C10.885,4.227,10.888,4.217,10.899,4.212z"/>
	<path fill="#D300FF" d="M10.914,7.006c-0.012-0.005-0.015-0.015-0.015-0.027C10.909,6.986,10.914,6.995,10.914,7.006z"/>
	<path fill="#F200FF" d="M13.432,7.009c0.012-0.002,0.023-0.002,0.031,0.009C13.451,7.019,13.44,7.018,13.432,7.009z"/>
	<path fill="#F200FF" d="M13.541,7.036c0.012-0.002,0.022-0.002,0.03,0.009C13.56,7.046,13.55,7.045,13.541,7.036z"/>
	<path fill="#F200FF" d="M13.764,7.046c0.008-0.012,0.02-0.011,0.032-0.009C13.788,7.046,13.776,7.047,13.764,7.046z"/>
	<path fill="#EA00FF" d="M10.817,4.362c0,0.011-0.003,0.021-0.014,0.027C10.803,4.377,10.807,4.368,10.817,4.362z"/>
	<path fill="#EA00FF" d="M10.804,4.389c0,0.012-0.003,0.022-0.015,0.027C10.789,4.404,10.794,4.395,10.804,4.389z"/>
	<path fill="#F200FF" d="M13.724,7.058c0.007-0.009,0.016-0.011,0.026-0.01C13.743,7.056,13.734,7.059,13.724,7.058z"/>
	<path fill="#F200FF" d="M13.665,7.063c0.011,0,0.023,0,0.034,0C13.688,7.075,13.677,7.073,13.665,7.063z"/>
	<path fill="#EA00FF" d="M10.736,4.513c0,0.011-0.003,0.02-0.014,0.026C10.721,4.528,10.727,4.519,10.736,4.513z"/>
	<path fill="#D300FF" d="M10.98,7.13c-0.011-0.006-0.014-0.015-0.014-0.026C10.976,7.11,10.981,7.118,10.98,7.13z"/>
	<path fill="#EA00FF" d="M10.722,4.54c0,0.011-0.003,0.021-0.014,0.026C10.708,4.555,10.713,4.546,10.722,4.54z"/>
	<path fill="#D300FF" d="M10.995,7.157c-0.011-0.005-0.015-0.015-0.014-0.027C10.99,7.136,10.995,7.145,10.995,7.157z"/>
	<path fill="#EA00FF" d="M20.325,4.58c-0.011-0.005-0.014-0.015-0.014-0.026C20.321,4.56,20.326,4.568,20.325,4.58z"/>
	<path fill="#EA00FF" d="M10.708,4.566c0,0.012-0.003,0.022-0.014,0.027C10.693,4.582,10.697,4.572,10.708,4.566z"/>
	<path fill="#EA00FF" d="M20.339,4.607c-0.012-0.005-0.014-0.016-0.014-0.027C20.336,4.586,20.339,4.596,20.339,4.607z"/>
	<path fill="#EA00FF" d="M10.694,4.593c0.001,0.012-0.002,0.023-0.015,0.027C10.679,4.608,10.684,4.599,10.694,4.593z"/>
	<path fill="#D300FF" d="M11.009,7.184c-0.012-0.005-0.015-0.015-0.014-0.027C11.006,7.162,11.009,7.172,11.009,7.184z"/>
	<path fill="#D300FF" d="M11.09,7.334c-0.011-0.005-0.015-0.015-0.014-0.027C11.086,7.313,11.091,7.322,11.09,7.334z"/>
	<path fill="#BA00FF" d="M11.826,8.697c-0.011-0.006-0.014-0.016-0.014-0.027C11.822,8.677,11.827,8.686,11.826,8.697z"/>
	<path fill="#BA00FF" d="M11.841,8.724c-0.012-0.005-0.015-0.015-0.015-0.027C11.837,8.704,11.841,8.713,11.841,8.724z"/>
	<path fill="#BA00FF" d="M11.855,8.751c-0.013-0.005-0.015-0.016-0.014-0.028C11.852,8.73,11.855,8.74,11.855,8.751z"/>
	<path fill="#BA00FF" d="M11.908,8.848c-0.01-0.006-0.013-0.015-0.014-0.026C11.904,8.827,11.908,8.836,11.908,8.848z"/>
	<path fill="#BA00FF" d="M11.922,8.874c-0.011-0.005-0.014-0.015-0.015-0.026C11.917,8.854,11.923,8.863,11.922,8.874z"/>
	<path fill="#BA00FF" d="M11.936,8.902c-0.012-0.006-0.015-0.016-0.014-0.027C11.933,8.88,11.936,8.89,11.936,8.902z"/>
	<path fill="#EA00FF" d="M10.626,4.717c0,0.011-0.003,0.021-0.014,0.026C10.611,4.732,10.616,4.723,10.626,4.717z"/>
	<path fill="#BA00FF" d="M12.018,9.052c-0.011-0.006-0.014-0.015-0.014-0.027C12.014,9.031,12.018,9.04,12.018,9.052z"/>
	<path fill="#EA00FF" d="M20.421,4.757c-0.011-0.006-0.014-0.016-0.014-0.027C20.417,4.736,20.421,4.746,20.421,4.757z"/>
	<path fill="#EA00FF" d="M10.612,4.743c0,0.012-0.002,0.022-0.014,0.027C10.598,4.759,10.602,4.75,10.612,4.743z"/>
	<path fill="#EA00FF" d="M20.436,4.784c-0.012-0.005-0.015-0.015-0.015-0.027C20.431,4.763,20.436,4.772,20.436,4.784z"/>
	<path fill="#EA00FF" d="M20.449,4.811c-0.013-0.005-0.015-0.016-0.014-0.028C20.446,4.789,20.449,4.8,20.449,4.811z"/>
	<path fill="#EA00FF" d="M10.927,4.159c0,0.011-0.003,0.02-0.013,0.026C10.913,4.173,10.917,4.165,10.927,4.159z"/>
	<path fill="#EA00FF" d="M20.502,4.907c-0.011-0.006-0.013-0.015-0.014-0.026C20.498,4.887,20.503,4.896,20.502,4.907z"/>
	<path fill="#EA00FF" d="M20.517,4.934c-0.011-0.005-0.014-0.015-0.014-0.026C20.512,4.914,20.517,4.923,20.517,4.934z"/>
	<path fill="#BA00FF" d="M12.099,9.202c-0.011-0.006-0.014-0.015-0.014-0.026C12.095,9.182,12.1,9.19,12.099,9.202z"/>
	<path fill="#EA00FF" d="M11.32,3.43c0,0.008-0.004,0.014-0.01,0.018C11.309,3.44,11.313,3.434,11.32,3.43z"/>
	<path fill="#EA00FF" d="M11.307,3.457c0,0.008-0.004,0.014-0.011,0.019C11.295,3.467,11.299,3.461,11.307,3.457z"/>
	<path fill="#EA00FF" d="M11.253,3.556c-0.003,0.005-0.006,0.01-0.009,0.015C11.243,3.563,11.246,3.559,11.253,3.556z"/>
	<path fill="#EA00FF" d="M11.239,3.581c-0.003,0.006-0.007,0.011-0.01,0.017C11.228,3.59,11.232,3.585,11.239,3.581z"/>
	<path fill="#EA00FF" d="M11.225,3.608c0,0.008-0.004,0.014-0.01,0.018C11.214,3.617,11.218,3.611,11.225,3.608z"/>
	<path fill="#EA00FF" d="M11.211,3.633c0,0.008-0.004,0.015-0.011,0.019C11.199,3.644,11.203,3.637,11.211,3.633z"/>
	<path fill="#EA00FF" d="M11.197,3.66c0,0.009-0.004,0.016-0.011,0.02C11.186,3.671,11.189,3.664,11.197,3.66z"/>
	<path fill="#EA00FF" d="M11.157,3.733c-0.003,0.005-0.006,0.01-0.01,0.015C11.147,3.74,11.15,3.735,11.157,3.733z"/>
	<path fill="#EA00FF" d="M11.143,3.758c0,0.007-0.003,0.013-0.01,0.017C11.133,3.768,11.137,3.762,11.143,3.758z"/>
	<path fill="#EA00FF" d="M11.129,3.785c0,0.008-0.004,0.014-0.011,0.018C11.118,3.794,11.122,3.788,11.129,3.785z"/>
	<path fill="#EA00FF" d="M11.116,3.811c0,0.008-0.004,0.015-0.011,0.02C11.104,3.822,11.108,3.815,11.116,3.811z"/>
	<path fill="#EA00FF" d="M11.076,3.884c-0.003,0.005-0.006,0.009-0.01,0.014C11.066,3.891,11.069,3.886,11.076,3.884z"/>
	<path fill="#EA00FF" d="M11.062,3.909c-0.003,0.005-0.006,0.011-0.009,0.016C11.052,3.918,11.055,3.912,11.062,3.909z"/>
	<path fill="#EA00FF" d="M11.048,3.936c-0.003,0.006-0.007,0.011-0.01,0.017C11.037,3.945,11.041,3.939,11.048,3.936z"/>
	<path fill="#EA00FF" d="M11.034,3.961c0,0.008-0.003,0.014-0.01,0.019C11.023,3.972,11.026,3.965,11.034,3.961z"/>
	<path fill="#EA00FF" d="M11.02,3.988c0,0.009-0.004,0.015-0.011,0.02C11.008,3.999,11.012,3.992,11.02,3.988z"/>
	<path fill="#EA00FF" d="M10.966,4.088c-0.003,0.005-0.007,0.01-0.01,0.015C10.956,4.095,10.959,4.09,10.966,4.088z"/>
	<path fill="#EA00FF" d="M10.952,4.112c-0.003,0.006-0.006,0.012-0.01,0.018C10.942,4.122,10.945,4.116,10.952,4.112z"/>
	<path fill="#EA00FF" d="M10.938,4.139c0,0.008-0.004,0.014-0.011,0.018C10.927,4.149,10.931,4.143,10.938,4.139z"/>
	<path fill="#EA00FF" d="M10.885,4.239c-0.003,0.005-0.006,0.009-0.01,0.014C10.875,4.245,10.878,4.241,10.885,4.239z"/>
	<path fill="#EA00FF" d="M10.871,4.263c-0.003,0.005-0.006,0.011-0.01,0.016C10.86,4.272,10.864,4.267,10.871,4.263z"/>
	<path fill="#EA00FF" d="M10.857,4.29c-0.003,0.006-0.007,0.011-0.01,0.017C10.846,4.299,10.85,4.294,10.857,4.29z"/>
	<path fill="#EA00FF" d="M10.843,4.315c0,0.008-0.003,0.015-0.01,0.019C10.832,4.326,10.835,4.319,10.843,4.315z"/>
	<path fill="#EA00FF" d="M10.829,4.342c0,0.009-0.004,0.015-0.011,0.019C10.817,4.353,10.821,4.346,10.829,4.342z"/>
	<path fill="#EA00FF" d="M10.789,4.415c-0.003,0.005-0.006,0.01-0.01,0.015C10.779,4.422,10.782,4.417,10.789,4.415z"/>
	<path fill="#EA00FF" d="M10.775,4.441c-0.003,0.005-0.006,0.011-0.01,0.016C10.765,4.449,10.768,4.444,10.775,4.441z"/>
	<path fill="#EA00FF" d="M10.761,4.467c0,0.008-0.004,0.014-0.01,0.018C10.75,4.476,10.754,4.47,10.761,4.467z"/>
	<path fill="#EA00FF" d="M10.747,4.494c0,0.008-0.004,0.014-0.011,0.018C10.736,4.504,10.74,4.497,10.747,4.494z"/>
	<path fill="#EA00FF" d="M20.297,4.525c-0.007-0.004-0.01-0.01-0.011-0.018C20.294,4.511,20.297,4.517,20.297,4.525z"/>
	<path fill="#EA00FF" d="M20.311,4.553C20.303,4.548,20.3,4.541,20.3,4.532C20.308,4.537,20.311,4.544,20.311,4.553z"/>
	<path fill="#EA00FF" d="M20.349,4.621c-0.003-0.005-0.006-0.009-0.01-0.014C20.346,4.609,20.35,4.613,20.349,4.621z"/>
	<path fill="#EA00FF" d="M10.679,4.619c0,0.007-0.003,0.012-0.01,0.016C10.669,4.627,10.672,4.621,10.679,4.619z"/>
	<path fill="#EA00FF" d="M20.363,4.648c-0.003-0.006-0.006-0.011-0.01-0.017C20.361,4.635,20.364,4.64,20.363,4.648z"/>
	<path fill="#EA00FF" d="M10.666,4.644c-0.003,0.006-0.007,0.012-0.01,0.017C10.655,4.654,10.659,4.648,10.666,4.644z"/>
	<path fill="#EA00FF" d="M20.378,4.675c-0.003-0.006-0.007-0.011-0.01-0.017C20.375,4.662,20.378,4.667,20.378,4.675z"/>
	<path fill="#EA00FF" d="M10.652,4.67c0,0.008-0.004,0.015-0.011,0.019C10.64,4.68,10.644,4.674,10.652,4.67z"/>
	<path fill="#EA00FF" d="M20.392,4.703c-0.007-0.005-0.01-0.011-0.01-0.019C20.389,4.687,20.392,4.694,20.392,4.703z"/>
	<path fill="#EA00FF" d="M10.638,4.696c0,0.009-0.004,0.015-0.011,0.02C10.626,4.707,10.63,4.701,10.638,4.696z"/>
	<path fill="#EA00FF" d="M20.407,4.73c-0.008-0.004-0.011-0.011-0.012-0.02C20.403,4.714,20.407,4.721,20.407,4.73z"/>
	<path fill="#EA00FF" d="M10.598,4.77c-0.003,0.005-0.006,0.01-0.01,0.015C10.588,4.777,10.591,4.772,10.598,4.77z"/>
	<path fill="#EA00FF" d="M20.488,4.88c-0.007-0.004-0.01-0.009-0.011-0.017C20.485,4.866,20.488,4.872,20.488,4.88z"/>
	<path fill="#D300FF" d="M11.033,7.225c-0.003-0.006-0.007-0.011-0.01-0.017C11.03,7.211,11.034,7.217,11.033,7.225z"/>
	<path fill="#D300FF" d="M11.047,7.252c-0.007-0.004-0.01-0.01-0.01-0.018C11.044,7.238,11.047,7.244,11.047,7.252z"/>
	<path fill="#D300FF" d="M11.062,7.28c-0.007-0.004-0.011-0.011-0.011-0.02C11.059,7.264,11.063,7.271,11.062,7.28z"/>
	<path fill="#D300FF" d="M11.076,7.307c-0.008-0.004-0.011-0.011-0.011-0.02C11.073,7.291,11.076,7.298,11.076,7.307z"/>
	<path fill="#BA00FF" d="M11.797,8.643c-0.007-0.004-0.01-0.011-0.01-0.019C11.795,8.628,11.798,8.634,11.797,8.643z"/>
	<path fill="#BA00FF" d="M11.813,8.67c-0.008-0.004-0.011-0.011-0.011-0.02C11.809,8.655,11.813,8.661,11.813,8.67z"/>
	<path fill="#BA00FF" d="M11.865,8.765c-0.003-0.005-0.007-0.01-0.01-0.015C11.862,8.753,11.865,8.758,11.865,8.765z"/>
	<path fill="#BA00FF" d="M11.879,8.793c-0.007-0.004-0.01-0.01-0.01-0.018C11.876,8.779,11.879,8.785,11.879,8.793z"/>
	<path fill="#BA00FF" d="M11.894,8.82c-0.007-0.004-0.011-0.01-0.011-0.019C11.89,8.806,11.894,8.812,11.894,8.82z"/>
	<path fill="#D300FF" d="M10.923,7.02c-0.003-0.005-0.006-0.01-0.01-0.015C10.921,7.008,10.924,7.013,10.923,7.02z"/>
	<path fill="#BA00FF" d="M11.946,8.915c-0.003-0.005-0.006-0.01-0.01-0.014C11.943,8.903,11.946,8.908,11.946,8.915z"/>
	<path fill="#BA00FF" d="M11.96,8.943c-0.003-0.006-0.006-0.011-0.01-0.017C11.957,8.929,11.961,8.935,11.96,8.943z"/>
	<path fill="#BA00FF" d="M11.975,8.97c-0.007-0.004-0.01-0.01-0.01-0.017C11.971,8.956,11.975,8.962,11.975,8.97z"/>
	<path fill="#BA00FF" d="M11.989,8.997c-0.007-0.004-0.011-0.011-0.011-0.019C11.986,8.982,11.99,8.989,11.989,8.997z"/>
	<path fill="#BA00FF" d="M12.004,9.025c-0.008-0.004-0.011-0.011-0.012-0.02C12,9.009,12.004,9.016,12.004,9.025z"/>
	<path fill="#D300FF" d="M10.885,6.952c-0.008-0.004-0.011-0.011-0.012-0.02C10.882,6.937,10.885,6.943,10.885,6.952z"/>
	<path fill="#BA00FF" d="M12.042,9.093c-0.003-0.005-0.006-0.01-0.01-0.015C12.039,9.08,12.043,9.085,12.042,9.093z"/>
	<path fill="#BA00FF" d="M12.056,9.12c-0.006-0.004-0.01-0.009-0.01-0.016C12.052,9.107,12.056,9.112,12.056,9.12z"/>
	<path fill="#D300FF" d="M10.937,7.048c-0.006-0.004-0.01-0.009-0.01-0.016C10.934,7.035,10.937,7.04,10.937,7.048z"/>
	<path fill="#BA00FF" d="M12.07,9.147c-0.007-0.004-0.01-0.01-0.01-0.018C12.067,9.133,12.071,9.139,12.07,9.147z"/>
	<path fill="#D300FF" d="M10.856,6.898c-0.007-0.004-0.01-0.01-0.011-0.017C10.853,6.884,10.857,6.89,10.856,6.898z"/>
	<path fill="#BA00FF" d="M12.085,9.175c-0.007-0.004-0.011-0.01-0.011-0.019C12.081,9.16,12.085,9.166,12.085,9.175z"/>
	<path fill="#D300FF" d="M10.952,7.075c-0.007-0.004-0.01-0.01-0.01-0.018C10.949,7.06,10.953,7.066,10.952,7.075z"/>
	<path fill="#D300FF" d="M10.966,7.103c-0.007-0.004-0.011-0.01-0.011-0.019C10.963,7.088,10.967,7.094,10.966,7.103z"/>
	<path fill="#A700FF" d="M12.424,9.801c-0.003-0.005-0.007-0.011-0.01-0.016C12.421,9.789,12.425,9.794,12.424,9.801z"/>
	<path fill="#A700FF" d="M12.438,9.829c-0.003-0.006-0.006-0.012-0.01-0.018C12.435,9.815,12.439,9.821,12.438,9.829z"/>
	<path fill="#A700FF" d="M12.453,9.857c-0.007-0.004-0.011-0.01-0.011-0.019C12.45,9.842,12.453,9.848,12.453,9.857z"/>
	<path fill="#D300FF" d="M10.87,6.925c-0.007-0.005-0.011-0.011-0.011-0.019C10.868,6.91,10.871,6.916,10.87,6.925z"/>
	<path fill="#A700FF" d="M12.505,9.951c-0.003-0.005-0.006-0.009-0.01-0.014C12.502,9.94,12.506,9.944,12.505,9.951z"/>
	<path fill="#A700FF" d="M12.519,9.979c-0.003-0.006-0.006-0.011-0.01-0.017C12.517,9.965,12.52,9.971,12.519,9.979z"/>
	<path fill="#A700FF" d="M12.534,10.006C12.53,10,12.527,9.995,12.523,9.989C12.531,9.993,12.534,9.998,12.534,10.006z"/>
	<path fill="#A700FF" d="M12.548,10.033c-0.007-0.004-0.01-0.011-0.011-0.019C12.545,10.018,12.549,10.025,12.548,10.033z"/>
	<path fill="#A700FF" d="M12.563,10.061c-0.008-0.004-0.011-0.011-0.012-0.02C12.559,10.045,12.563,10.052,12.563,10.061z"/>
	<path fill="#A700FF" d="M12.601,10.129c-0.003-0.005-0.006-0.01-0.01-0.015C12.598,10.116,12.602,10.121,12.601,10.129z"/>
	<path fill="#A700FF" d="M12.615,10.156c-0.003-0.005-0.007-0.011-0.01-0.016C12.612,10.143,12.615,10.148,12.615,10.156z"/>
	<path fill="#A700FF" d="M12.629,10.183c-0.007-0.004-0.01-0.01-0.01-0.018C12.627,10.169,12.63,10.175,12.629,10.183z"/>
	<path fill="#A700FF" d="M12.644,10.211c-0.007-0.004-0.011-0.01-0.011-0.019C12.641,10.196,12.644,10.203,12.644,10.211z"/>
	<path fill="#D300FF" d="M11.018,7.198c-0.003-0.005-0.006-0.01-0.009-0.015C11.016,7.185,11.019,7.19,11.018,7.198z"/>
	<path fill="#A700FF" d="M12.682,10.279c-0.003-0.005-0.006-0.009-0.01-0.014C12.679,10.267,12.683,10.271,12.682,10.279z"/>
	<path fill="#A700FF" d="M12.696,10.306c-0.003-0.005-0.006-0.01-0.009-0.015C12.693,10.294,12.696,10.299,12.696,10.306z"/>
	<path fill="#A700FF" d="M12.711,10.333c-0.003-0.006-0.007-0.011-0.01-0.017C12.708,10.32,12.711,10.325,12.711,10.333z"/>
	<path fill="#A700FF" d="M12.725,10.361c-0.003-0.006-0.007-0.012-0.01-0.018C12.722,10.347,12.725,10.353,12.725,10.361z"/>
	<path fill="#A700FF" d="M12.739,10.388c-0.007-0.004-0.011-0.011-0.011-0.019C12.736,10.373,12.74,10.379,12.739,10.388z"/>
	<path fill="#A700FF" d="M12.754,10.415c-0.008-0.005-0.011-0.011-0.011-0.02C12.75,10.4,12.754,10.406,12.754,10.415z"/>
	<path fill="#F500FF" d="M1.506,4.662C1.501,4.638,1.511,4.627,1.517,4.615C1.828,3.962,2.139,3.308,2.45,2.654
		c0.035-0.073,0.016-0.063,0.101-0.063c0.55,0.001,1.1,0.002,1.65,0.003c0.627,0.001,1.255,0.004,1.882,0.005
		c0.948,0.002,1.896,0.003,2.843,0.004c0.289,0,0.577,0.001,0.866,0.001c0.018,0,0.036,0,0.055,0.001
		c0.013,0,0.019,0.011,0.013,0.024C9.85,2.648,9.841,2.666,9.831,2.684C9.613,3.1,9.394,3.516,9.176,3.931
		C9.06,4.15,8.945,4.369,8.83,4.588C8.82,4.606,8.81,4.624,8.801,4.642C8.795,4.657,8.784,4.662,8.769,4.662
		c-0.014,0-0.027,0-0.041,0c-2.387,0-4.773,0-7.16,0C1.548,4.662,1.528,4.662,1.506,4.662z"/>
	<path fill="#B000FF" d="M9.259,9.392c0.004,0.003,0.005,0.006,0.004,0.011C9.266,9.409,9.269,9.414,9.272,9.42
		C9.276,9.422,9.278,9.426,9.277,9.43c0.002,0.006,0.007,0.011,0.01,0.017C9.29,9.45,9.292,9.453,9.29,9.457
		C9.292,9.464,9.297,9.468,9.3,9.474c0.004,0.002,0.005,0.006,0.004,0.01c0.002,0.007,0.007,0.012,0.01,0.017
		c0.004,0.002,0.005,0.005,0.004,0.009c0.001,0.007,0.006,0.012,0.01,0.018c0.004,0.002,0.005,0.005,0.004,0.009
		c0.001,0.007,0.006,0.013,0.01,0.018c0.004,0.002,0.005,0.005,0.003,0.009c0.001,0.007,0.006,0.013,0.01,0.018
		C9.359,9.585,9.36,9.588,9.359,9.592C9.36,9.6,9.365,9.605,9.37,9.611c0.004,0.002,0.005,0.005,0.003,0.008
		c0.001,0.008,0.006,0.013,0.011,0.019c0.004,0.001,0.005,0.004,0.003,0.007c0,0.008,0.006,0.014,0.011,0.02
		C9.401,9.667,9.402,9.67,9.4,9.673c0.001,0.008,0.006,0.014,0.011,0.02l0,0C9.397,9.748,9.35,9.74,9.312,9.741
		C9.146,9.743,8.98,9.736,8.814,9.743C8.387,9.76,7.96,9.744,7.533,9.759C7.16,9.772,6.788,9.755,6.416,9.771
		C6.12,9.785,5.825,9.77,5.53,9.786C5.25,9.801,4.971,9.789,4.692,9.797C4.219,9.81,3.747,9.8,3.275,9.814
		C2.897,9.825,2.52,9.815,2.143,9.825c-0.021,0.001-0.041,0-0.06-0.008C2.041,9.745,2.011,9.666,1.976,9.59
		C1.845,9.303,1.715,9.015,1.585,8.728C1.576,8.708,1.56,8.69,1.566,8.665C1.583,8.655,1.601,8.66,1.619,8.66
		c0.348,0,0.696,0,1.043,0c0.022,0,0.045-0.004,0.067,0.007C2.735,8.67,2.743,8.67,2.749,8.668C2.781,8.654,2.816,8.66,2.85,8.66
		c1.984,0,3.969,0,5.953,0c0.1,0,0.075-0.015,0.122,0.075c0.019,0.036,0.041,0.071,0.052,0.11C8.98,8.85,8.983,8.855,8.986,8.861
		c0.004,0.002,0.005,0.006,0.004,0.01C8.992,8.877,8.997,8.882,9,8.888C9.004,8.89,9.005,8.894,9.004,8.898
		c0.002,0.007,0.006,0.011,0.01,0.017C9.018,8.917,9.019,8.92,9.018,8.924c0.001,0.007,0.006,0.012,0.01,0.018
		c0.004,0.002,0.005,0.006,0.004,0.01c0.001,0.007,0.006,0.012,0.01,0.018c0.004,0.002,0.005,0.004,0.004,0.008
		c0,0.008,0.005,0.013,0.01,0.019C9.059,8.999,9.06,9.002,9.059,9.006C9.06,9.014,9.065,9.019,9.07,9.024
		c0.004,0.001,0.005,0.004,0.003,0.007c0,0.008,0.005,0.014,0.01,0.02C9.087,9.053,9.088,9.056,9.087,9.06
		c0,0.008,0.006,0.014,0.011,0.02l0,0c0.008,0.007,0.006,0.019,0.013,0.027l0,0.001C9.12,9.114,9.117,9.127,9.125,9.134l0,0
		c0.008,0.007,0.006,0.02,0.013,0.027l0,0c0.008,0.007,0.006,0.02,0.014,0.027l0,0c0.008,0.008,0.005,0.02,0.014,0.028l0,0
		c0.008,0.007,0.005,0.02,0.014,0.027l0-0.001C9.188,9.25,9.185,9.263,9.194,9.27l0,0c0.004,0.004,0.007,0.009,0.009,0.014
		C9.208,9.286,9.209,9.29,9.208,9.295c0.007,0.009,0.004,0.022,0.014,0.029l0-0.001c0.004,0.005,0.007,0.009,0.01,0.015
		c0.004,0.003,0.006,0.006,0.004,0.011C9.239,9.354,9.242,9.36,9.245,9.365C9.249,9.368,9.25,9.372,9.249,9.376
		C9.253,9.382,9.256,9.387,9.259,9.392z"/>
	<path fill="#9700FF" d="M2.083,9.817c0.024-0.016,0.051-0.016,0.079-0.016c0.148,0,0.295,0,0.443,0c0.168,0,0.336,0,0.505,0
		c0.032,0,0.063,0,0.094-0.01c0.021-0.007,0.045-0.004,0.068-0.004c0.325,0,0.65,0,0.975,0c0.029,0,0.058,0,0.088-0.009
		c0.021-0.006,0.045-0.004,0.068-0.004c0.32,0,0.641,0,0.961,0c0.036,0,0.072,0.002,0.108-0.01c0.018-0.006,0.04-0.003,0.061-0.003
		c0.227,0,0.455,0,0.682,0c0.034,0,0.067,0.001,0.101-0.01c0.021-0.007,0.045-0.004,0.068-0.004c0.327,0,0.655,0,0.982,0
		c0.032,0,0.063,0.001,0.094-0.009c0.021-0.007,0.045-0.004,0.068-0.004c0.32,0,0.641,0,0.961,0c0.036,0,0.072,0.002,0.108-0.01
		C8.613,9.717,8.635,9.72,8.656,9.72c0.223,0,0.445,0,0.668,0c0.032,0,0.064,0.001,0.088-0.027c0.042,0.062,0.071,0.131,0.105,0.198
		c0.142,0.277,0.283,0.554,0.425,0.831c0.009,0.018,0.022,0.034,0.02,0.06c-0.019,0-0.037,0-0.055,0
		c-0.175-0.002-0.35-0.005-0.525-0.006c-0.47-0.004-0.941-0.007-1.411-0.011c-0.389-0.003-0.777-0.004-1.166-0.013
		c-0.507-0.011-1.014-0.008-1.52-0.014c-0.509-0.006-1.018-0.009-1.527-0.014c-0.4-0.004-0.8-0.007-1.2-0.011
		c-0.082-0.001-0.065,0.014-0.1-0.063c-0.117-0.256-0.233-0.512-0.349-0.769C2.098,9.86,2.084,9.841,2.083,9.817z"/>
	<path fill="#E700FF" d="M2.477,5.126C2.477,5.15,2.463,5.168,2.453,5.188C2.271,5.533,2.09,5.879,1.908,6.225
		C1.845,6.345,1.782,6.466,1.717,6.586c-0.02,0.037-0.023,0.066-0.002,0.106c0.248,0.48,0.493,0.961,0.739,1.443
		c0.01,0.02,0.023,0.038,0.026,0.059c-0.01,0.015-0.022,0.01-0.032,0.01c-0.35,0-0.7,0-1.05,0.001c-0.009,0-0.018-0.001-0.027,0
		C1.355,8.205,1.345,8.197,1.338,8.184c-0.015-0.033-0.03-0.066-0.045-0.099C1.069,7.588,0.844,7.092,0.619,6.596
		C0.616,6.587,0.612,6.579,0.608,6.571c-0.009-0.015-0.008-0.029,0-0.045C0.62,6.502,0.631,6.476,0.642,6.452
		c0.201-0.422,0.402-0.845,0.603-1.267C1.28,5.113,1.26,5.12,1.352,5.12c0.352,0,0.705,0,1.057,0
		C2.431,5.12,2.454,5.116,2.477,5.126z"/>
	<path fill="#D800FF" d="M4.073,8.204c-0.021,0-0.039,0-0.057,0c-0.325,0-0.65,0-0.975,0c-0.011,0-0.023-0.001-0.034,0
		C2.986,8.207,2.973,8.197,2.964,8.179C2.928,8.108,2.891,8.038,2.855,7.967C2.639,7.545,2.423,7.122,2.207,6.7
		C2.206,6.698,2.205,6.696,2.204,6.694c-0.026-0.033-0.021-0.064-0.002-0.1c0.074-0.136,0.144-0.273,0.216-0.41
		c0.175-0.333,0.351-0.667,0.526-1C2.982,5.112,2.965,5.12,3.052,5.12c0.309,0,0.618,0,0.927,0c0.067,0,0.069,0.002,0.038,0.061
		c-0.237,0.45-0.473,0.9-0.709,1.351c-0.051,0.097-0.051,0.058,0,0.159c0.248,0.485,0.496,0.97,0.744,1.455
		C4.061,8.161,4.072,8.176,4.073,8.204z"/>
	<path fill="#C100FF" d="M5.457,8.202C5.439,8.203,5.43,8.204,5.421,8.204c-0.268,0-0.536,0-0.805,0.001
		c-0.034,0-0.052-0.011-0.068-0.042C4.421,7.912,4.292,7.662,4.164,7.411c-0.126-0.246-0.253-0.493-0.378-0.74
		c-0.036-0.071-0.036-0.048,0-0.117C4.028,6.092,4.271,5.63,4.514,5.168C4.518,5.16,4.523,5.152,4.527,5.144
		C4.534,5.127,4.546,5.12,4.564,5.12c0.011,0,0.023,0,0.034,0c0.261,0,0.523,0,0.784,0c0.016,0,0.032-0.004,0.047,0.005
		c0.007,0.02-0.007,0.034-0.015,0.049c-0.2,0.382-0.401,0.764-0.601,1.146C4.767,6.407,4.724,6.494,4.676,6.579
		C4.656,6.613,4.659,6.64,4.676,6.673c0.127,0.246,0.253,0.493,0.379,0.739C5.18,7.654,5.304,7.897,5.428,8.139
		C5.437,8.157,5.445,8.176,5.457,8.202z"/>
	<path fill="#AD00FF" d="M5.948,8.193C5.931,8.183,5.928,8.164,5.92,8.148c-0.251-0.49-0.502-0.981-0.754-1.471
		C5.164,6.673,5.162,6.669,5.159,6.665c-0.017-0.025-0.015-0.049,0-0.076c0.052-0.096,0.102-0.192,0.153-0.289
		c0.197-0.375,0.395-0.751,0.592-1.126c0.008-0.016,0.017-0.032,0.027-0.047C5.936,5.12,5.946,5.12,5.955,5.124
		c0.017-0.007,0.034-0.007,0.052,0C6.04,5.139,6.05,5.169,6.058,5.2c0.006,0.022,0.007,0.045,0.006,0.068
		C6.055,5.565,6.075,5.862,6.081,6.16c0.007,0.376,0.017,0.753,0.028,1.129c0.005,0.159,0.007,0.317,0.01,0.476
		c0.002,0.113,0.02,0.226,0.014,0.34C6.128,8.196,6.127,8.2,6.036,8.199C6.007,8.199,5.977,8.206,5.948,8.193z"/>
	<path fill="#8700FF" d="M7.543,8.194c-0.018-0.01-0.021-0.029-0.029-0.044C7.296,7.725,7.078,7.301,6.861,6.877
		C6.82,6.796,6.779,6.715,6.736,6.635C6.722,6.608,6.722,6.586,6.737,6.559C6.803,6.435,6.868,6.31,6.933,6.185
		c0.174-0.331,0.348-0.663,0.524-0.994c0.012-0.023,0.016-0.053,0.044-0.066C7.53,5.116,7.56,5.113,7.59,5.127
		c0.028,0.037,0.03,0.081,0.029,0.124C7.613,5.523,7.631,5.795,7.636,6.067c0.007,0.374,0.015,0.748,0.028,1.122
		c0.009,0.288,0.011,0.576,0.024,0.863c0,0.007,0,0.014,0,0.02C7.687,8.208,7.682,8.213,7.543,8.194z"/>
	<path fill="#6E00FF" d="M7.543,8.194c0.032-0.001,0.064-0.001,0.095-0.002c0.015-0.001,0.025-0.009,0.027-0.025
		C7.666,8.158,7.666,8.149,7.666,8.14c0-0.098,0-0.195,0-0.293c0-0.009,0.002-0.019-0.001-0.027
		C7.646,7.769,7.653,7.717,7.653,7.665c-0.001-0.113,0-0.227,0-0.34c0-0.027,0-0.054-0.009-0.081
		c-0.006-0.019-0.005-0.04-0.005-0.061c0-0.132,0-0.263,0-0.395c0-0.025,0.001-0.05-0.008-0.074C7.621,6.693,7.625,6.67,7.625,6.647
		c0-0.132,0-0.263,0-0.395c0-0.029,0-0.058-0.009-0.087C7.61,6.147,7.612,6.125,7.612,6.105c0-0.129,0-0.259,0-0.388
		c0-0.027,0.001-0.054-0.008-0.081C7.597,5.619,7.598,5.6,7.598,5.582c-0.001-0.045,0-0.091,0-0.136
		C7.596,5.34,7.606,5.233,7.583,5.128c0.071-0.021,0.143-0.006,0.215-0.009c0.059-0.003,0.118,0.002,0.177-0.001
		C8.031,5.115,8.06,5.143,8.074,5.192c0.004,0.013,0.008,0.027,0.007,0.04C8.072,5.484,8.11,5.735,8.09,5.987
		C8.091,5.992,8.09,5.996,8.085,5.998c-0.003,0.005-0.006,0.01-0.009,0.014l0.001-0.001c-0.01,0.007-0.007,0.02-0.014,0.029
		C8.061,6.045,8.059,6.049,8.057,6.053C8.055,6.058,8.052,6.062,8.048,6.066l0,0C8.04,6.073,8.042,6.086,8.034,6.093l0,0
		C8.026,6.1,8.029,6.113,8.02,6.12l0,0.001c-0.005,0.006-0.011,0.012-0.011,0.02C8.011,6.144,8.01,6.147,8.006,6.148
		c-0.005,0.005-0.01,0.011-0.011,0.019c0.001,0.004,0,0.007-0.004,0.009c-0.004,0.006-0.009,0.011-0.01,0.018
		c0.001,0.004,0,0.007-0.004,0.009c-0.004,0.005-0.009,0.01-0.01,0.017c0.001,0.005-0.001,0.008-0.005,0.01
		C7.959,6.236,7.956,6.241,7.954,6.247c0.001,0.005,0,0.008-0.004,0.011c-0.003,0.005-0.007,0.01-0.01,0.016
		c0.001,0.005-0.001,0.009-0.005,0.012C7.932,6.29,7.929,6.295,7.926,6.3C7.924,6.304,7.923,6.308,7.921,6.312
		c-0.002,0.005-0.005,0.01-0.009,0.014C7.91,6.331,7.908,6.335,7.906,6.34c-0.002,0.005-0.004,0.01-0.008,0.013
		C7.896,6.358,7.894,6.362,7.892,6.367C7.891,6.372,7.888,6.376,7.884,6.379l0,0.001C7.876,6.387,7.879,6.399,7.87,6.406l0,0.001
		c-0.005,0.006-0.011,0.011-0.011,0.02c0.001,0.004,0,0.006-0.004,0.008C7.851,6.44,7.846,6.445,7.845,6.453
		c0.001,0.004,0,0.007-0.004,0.009c-0.004,0.005-0.009,0.01-0.01,0.018c0.001,0.004-0.001,0.008-0.004,0.01
		C7.824,6.495,7.819,6.5,7.818,6.506c0.001,0.004,0,0.008-0.004,0.01C7.81,6.522,7.806,6.527,7.804,6.533c0,0.007,0,0.013,0,0.02
		C7.805,6.559,7.81,6.564,7.813,6.57c0.004,0.002,0.005,0.005,0.004,0.01c0.001,0.007,0.006,0.012,0.01,0.018
		c0.004,0.002,0.005,0.005,0.003,0.009c0.001,0.007,0.006,0.012,0.01,0.018c0.004,0.002,0.005,0.005,0.004,0.009
		c0.001,0.008,0.006,0.013,0.01,0.019c0.027,0.05,0.055,0.099,0.081,0.15c0.228,0.444,0.455,0.889,0.682,1.334
		c0.01,0.02,0.023,0.039,0.026,0.06C8.627,8.208,8.611,8.203,8.596,8.203c-0.334,0-0.668,0.001-1.002,0
		C7.576,8.204,7.557,8.211,7.543,8.194z"/>
	<path fill="#9B00FF" d="M5.948,8.193c0.043,0,0.086,0,0.129-0.001C6.102,8.191,6.11,8.184,6.11,8.158
		c0.001-0.075,0.009-0.151-0.001-0.224c-0.022-0.17-0.006-0.339-0.012-0.509c-0.001-0.029,0-0.058-0.009-0.087
		c-0.006-0.019-0.004-0.04-0.004-0.061c0-0.129,0-0.259,0-0.388c0-0.027,0-0.054-0.008-0.081C6.069,6.789,6.07,6.768,6.07,6.748
		c0-0.136,0-0.272,0-0.408c0-0.025,0-0.049-0.008-0.074c-0.006-0.019-0.006-0.04-0.006-0.06c0-0.109,0-0.218,0-0.327
		c0-0.054,0.006-0.109-0.012-0.162C6.039,5.7,6.043,5.68,6.043,5.662c0-0.136,0-0.272,0-0.408c0-0.047-0.009-0.09-0.042-0.125
		C6.05,5.107,6.103,5.12,6.153,5.12c0.088,0,0.176-0.008,0.263,0.004L6.42,5.121l0.004,0.002C6.448,5.147,6.458,5.177,6.458,5.21
		c0,0.12,0.019,0.24,0.016,0.36C6.471,5.697,6.467,5.825,6.485,5.951c0.007,0.052-0.001,0.104-0.004,0.156
		C6.479,6.112,6.477,6.117,6.475,6.121C6.473,6.126,6.47,6.131,6.466,6.136C6.465,6.14,6.463,6.144,6.461,6.149
		C6.459,6.153,6.456,6.158,6.452,6.162l0,0C6.443,6.168,6.446,6.181,6.438,6.188l0,0C6.43,6.196,6.433,6.208,6.424,6.215l0,0.001
		c-0.006,0.006-0.011,0.011-0.011,0.02C6.414,6.239,6.413,6.242,6.41,6.244c-0.005,0.006-0.01,0.011-0.011,0.02
		c0.001,0.004,0,0.006-0.004,0.008c-0.004,0.005-0.009,0.01-0.01,0.018c0.001,0.004,0,0.007-0.004,0.01
		c-0.004,0.005-0.009,0.011-0.01,0.018c0.001,0.004,0,0.008-0.004,0.01C6.364,6.331,6.36,6.336,6.358,6.342
		c0.001,0.005,0,0.008-0.004,0.011C6.35,6.358,6.347,6.363,6.344,6.369C6.345,6.374,6.343,6.378,6.339,6.38
		C6.336,6.385,6.333,6.39,6.33,6.395C6.328,6.399,6.327,6.403,6.325,6.408C6.323,6.412,6.32,6.417,6.316,6.421l0,0
		C6.307,6.427,6.31,6.44,6.302,6.448l0,0c-0.009,0.007-0.006,0.02-0.014,0.027l0,0c-0.006,0.005-0.011,0.011-0.012,0.02
		c0.002,0.003,0.001,0.006-0.003,0.007c-0.006,0.006-0.011,0.012-0.011,0.02c0.002,0.004,0,0.006-0.003,0.007
		C6.255,6.535,6.25,6.541,6.249,6.548c0.001,0.004,0,0.007-0.003,0.009c-0.004,0.005-0.009,0.011-0.01,0.018
		C6.23,6.6,6.243,6.619,6.253,6.639c0.131,0.256,0.262,0.512,0.393,0.769c0.125,0.244,0.25,0.488,0.375,0.732
		C7.03,8.157,7.037,8.176,7.044,8.193C7.032,8.209,7.018,8.204,7.005,8.204c-0.333,0-0.667,0.001-1,0
		C5.986,8.204,5.964,8.213,5.948,8.193z"/>
	<path fill="#9900FF" d="M6.481,6.108C6.468,6.099,6.466,6.086,6.466,6.072c0-0.034,0-0.068,0-0.102
		c0-0.025-0.001-0.049-0.008-0.074C6.451,5.875,6.452,5.851,6.452,5.828c0-0.129,0-0.259,0-0.389c0-0.025,0.001-0.05-0.008-0.074
		C6.439,5.351,6.439,5.335,6.439,5.319C6.437,5.253,6.442,5.188,6.425,5.123c0.011-0.001,0.022-0.004,0.034-0.004
		c0.166,0,0.331,0,0.497,0c0.011,0,0.022,0.001,0.035,0.002c0.008,0.024-0.008,0.04-0.016,0.056c-0.1,0.191-0.2,0.381-0.3,0.571
		C6.622,5.847,6.571,5.946,6.519,6.044C6.507,6.066,6.494,6.086,6.481,6.108z"/>
	<path fill="#6B00FF" d="M8.09,5.987c-0.011-0.02-0.016-0.042-0.015-0.065c0.001-0.05,0.001-0.1,0-0.15
		c0-0.045,0.004-0.09-0.011-0.135C8.058,5.621,8.062,5.601,8.062,5.583c0-0.109,0-0.218,0-0.326c0-0.027-0.001-0.054-0.013-0.08
		c-0.014-0.03-0.034-0.052-0.071-0.052C7.846,5.127,7.715,5.127,7.583,5.128C7.556,5.127,7.528,5.126,7.501,5.125
		c0.012-0.01,0.026-0.008,0.039-0.008c0.32,0,0.64,0,0.96,0c0.009,0,0.018,0,0.027,0.002c0.011,0.002,0.014,0.011,0.011,0.02
		C8.534,5.15,8.529,5.16,8.524,5.17C8.384,5.435,8.245,5.7,8.106,5.965C8.101,5.973,8.095,5.979,8.09,5.987z"/>
	<path fill="#9900FF" d="M6.416,5.124c-0.114,0-0.227,0.001-0.341,0.002c-0.025,0-0.05,0.002-0.075,0.003
		c-0.015-0.001-0.03-0.003-0.045-0.004c0.013-0.002,0.027-0.006,0.04-0.006c0.127,0,0.254,0,0.381,0
		C6.39,5.118,6.403,5.122,6.416,5.124z"/>
	<path fill="#9700FF" d="M9.222,9.324C9.209,9.318,9.207,9.308,9.208,9.295C9.218,9.302,9.222,9.312,9.222,9.324z"/>
	<path fill="#9900FF" d="M6.424,6.215c0-0.011,0.003-0.021,0.014-0.027C6.439,6.2,6.434,6.209,6.424,6.215z"/>
	<path fill="#6B00FF" d="M7.87,6.406c0-0.011,0.003-0.021,0.013-0.026C7.884,6.391,7.88,6.4,7.87,6.406z"/>
	<path fill="#9900FF" d="M6.302,6.448c0-0.011,0.003-0.022,0.014-0.027C6.316,6.432,6.311,6.441,6.302,6.448z"/>
	<path fill="#9900FF" d="M6.288,6.475c0-0.011,0.003-0.021,0.014-0.027C6.302,6.459,6.298,6.469,6.288,6.475z"/>
	<path fill="#9700FF" d="M9.111,9.107C9.101,9.101,9.098,9.091,9.098,9.08C9.108,9.086,9.112,9.095,9.111,9.107z"/>
	<path fill="#9700FF" d="M9.125,9.134C9.115,9.128,9.112,9.118,9.111,9.107C9.12,9.114,9.126,9.122,9.125,9.134z"/>
	<path fill="#9700FF" d="M9.139,9.161C9.128,9.155,9.125,9.145,9.126,9.134C9.135,9.14,9.139,9.15,9.139,9.161z"/>
	<path fill="#6B00FF" d="M8.062,6.04c0-0.012,0.001-0.023,0.014-0.029C8.076,6.024,8.072,6.033,8.062,6.04z"/>
	<path fill="#9700FF" d="M9.153,9.188C9.142,9.183,9.139,9.173,9.139,9.161C9.148,9.168,9.153,9.177,9.153,9.188z"/>
	<path fill="#6B00FF" d="M8.034,6.093c0-0.011,0.002-0.022,0.014-0.027C8.048,6.078,8.044,6.087,8.034,6.093z"/>
	<path fill="#6B00FF" d="M8.02,6.12c0.001-0.011,0.003-0.021,0.014-0.026C8.035,6.105,8.03,6.113,8.02,6.12z"/>
	<path fill="#9700FF" d="M9.167,9.215C9.155,9.21,9.153,9.199,9.153,9.188C9.163,9.194,9.167,9.204,9.167,9.215z"/>
	<path fill="#9700FF" d="M9.181,9.242C9.169,9.237,9.166,9.227,9.167,9.215C9.176,9.222,9.181,9.231,9.181,9.242z"/>
	<path fill="#9700FF" d="M9.194,9.27C9.183,9.264,9.18,9.254,9.181,9.242C9.191,9.248,9.194,9.258,9.194,9.27z"/>
	<path fill="#9900FF" d="M6.438,6.188c0-0.011,0.003-0.021,0.014-0.027C6.452,6.173,6.447,6.182,6.438,6.188z"/>
	<path fill="#6B00FF" d="M8.076,6.013c0.003-0.005,0.006-0.01,0.009-0.014C8.086,6.006,8.083,6.01,8.076,6.013z"/>
	<path fill="#6B00FF" d="M8.048,6.066c0.003-0.004,0.006-0.009,0.009-0.013C8.058,6.06,8.054,6.064,8.048,6.066z"/>
	<path fill="#9900FF" d="M6.466,6.136c0.003-0.005,0.006-0.01,0.009-0.014C6.475,6.128,6.472,6.133,6.466,6.136z"/>
	<path fill="#6B00FF" d="M8.009,6.141c0-0.009,0.004-0.016,0.011-0.02C8.02,6.129,8.016,6.136,8.009,6.141z"/>
	<path fill="#9900FF" d="M6.452,6.162c0.003-0.004,0.006-0.009,0.009-0.013C6.462,6.156,6.459,6.16,6.452,6.162z"/>
	<path fill="#6B00FF" d="M7.995,6.167c0-0.008,0.004-0.015,0.011-0.019C8.006,6.157,8.003,6.163,7.995,6.167z"/>
	<path fill="#6B00FF" d="M7.981,6.194c0.003-0.006,0.007-0.012,0.01-0.018C7.991,6.183,7.988,6.19,7.981,6.194z"/>
	<path fill="#6B00FF" d="M7.967,6.22c0.003-0.006,0.007-0.011,0.01-0.017C7.978,6.211,7.974,6.216,7.967,6.22z"/>
	<path fill="#9900FF" d="M6.413,6.236c0-0.008,0.004-0.015,0.011-0.02C6.424,6.225,6.42,6.231,6.413,6.236z"/>
	<path fill="#6B00FF" d="M7.954,6.247C7.957,6.241,7.96,6.236,7.963,6.23C7.963,6.238,7.96,6.243,7.954,6.247z"/>
	<path fill="#6B00FF" d="M7.94,6.273c0.003-0.005,0.006-0.01,0.01-0.016C7.95,6.265,7.946,6.27,7.94,6.273z"/>
	<path fill="#9900FF" d="M6.385,6.288c0.003-0.006,0.007-0.012,0.01-0.018C6.396,6.279,6.392,6.285,6.385,6.288z"/>
	<path fill="#6B00FF" d="M7.926,6.3c0.003-0.005,0.006-0.01,0.009-0.015C7.935,6.292,7.932,6.297,7.926,6.3z"/>
	<path fill="#9900FF" d="M6.372,6.316c0.003-0.006,0.007-0.012,0.01-0.018C6.382,6.306,6.379,6.312,6.372,6.316z"/>
	<path fill="#6B00FF" d="M7.912,6.326c0.003-0.005,0.006-0.009,0.009-0.014C7.922,6.319,7.918,6.323,7.912,6.326z"/>
	<path fill="#9900FF" d="M6.358,6.342c0.003-0.005,0.006-0.011,0.01-0.016C6.368,6.333,6.364,6.339,6.358,6.342z"/>
	<path fill="#6B00FF" d="M7.898,6.353C7.901,6.349,7.904,6.344,7.906,6.34C7.907,6.346,7.904,6.35,7.898,6.353z"/>
	<path fill="#9900FF" d="M6.263,6.523c0-0.009,0.004-0.015,0.011-0.02C6.274,6.511,6.271,6.518,6.263,6.523z"/>
	<path fill="#6B00FF" d="M7.818,6.506c0.003-0.006,0.006-0.011,0.009-0.017C7.827,6.497,7.824,6.503,7.818,6.506z"/>
	<path fill="#9900FF" d="M6.276,6.495c0-0.009,0.004-0.015,0.012-0.02C6.288,6.484,6.284,6.491,6.276,6.495z"/>
	<path fill="#6B00FF" d="M7.831,6.479c0.003-0.006,0.007-0.012,0.01-0.018C7.842,6.47,7.838,6.476,7.831,6.479z"/>
	<path fill="#6B00FF" d="M7.855,6.652c-0.007-0.004-0.01-0.011-0.01-0.019C7.852,6.637,7.856,6.644,7.855,6.652z"/>
	<path fill="#6B00FF" d="M7.841,6.625c-0.003-0.006-0.006-0.012-0.01-0.018C7.838,6.61,7.841,6.617,7.841,6.625z"/>
	<path fill="#9700FF" d="M8.986,8.861c-0.006-0.004-0.01-0.009-0.01-0.016C8.984,8.848,8.987,8.853,8.986,8.861z"/>
	<path fill="#9700FF" d="M9,8.888c-0.003-0.006-0.006-0.012-0.01-0.017C8.998,8.874,9.001,8.88,9,8.888z"/>
	<path fill="#6B00FF" d="M7.828,6.597C7.824,6.591,7.821,6.586,7.817,6.58C7.824,6.583,7.828,6.589,7.828,6.597z"/>
	<path fill="#9700FF" d="M9.014,8.915C9.011,8.91,9.008,8.904,9.004,8.898C9.011,8.902,9.014,8.907,9.014,8.915z"/>
	<path fill="#9700FF" d="M9.028,8.942c-0.007-0.004-0.01-0.01-0.01-0.018C9.025,8.928,9.028,8.934,9.028,8.942z"/>
	<path fill="#9700FF" d="M9.042,8.97c-0.007-0.004-0.01-0.01-0.01-0.018C9.039,8.956,9.042,8.962,9.042,8.97z"/>
	<path fill="#9700FF" d="M9.056,8.997c-0.007-0.004-0.01-0.011-0.01-0.019C9.053,8.982,9.056,8.989,9.056,8.997z"/>
	<path fill="#9700FF" d="M9.07,9.024c-0.007-0.004-0.01-0.01-0.011-0.018C9.067,9.01,9.07,9.016,9.07,9.024z"/>
	<path fill="#9700FF" d="M9.083,9.052c-0.007-0.005-0.01-0.011-0.01-0.02C9.081,9.036,9.084,9.043,9.083,9.052z"/>
	<path fill="#6B00FF" d="M7.845,6.453c0-0.008,0.003-0.014,0.01-0.018C7.855,6.443,7.852,6.449,7.845,6.453z"/>
	<path fill="#9700FF" d="M9.098,9.079C9.09,9.075,9.087,9.068,9.087,9.06C9.094,9.064,9.098,9.071,9.098,9.079z"/>
	<path fill="#6B00FF" d="M7.813,6.57C7.81,6.564,7.807,6.558,7.804,6.552C7.81,6.556,7.813,6.562,7.813,6.57z"/>
	<path fill="#9900FF" d="M6.235,6.575c0.003-0.006,0.007-0.012,0.01-0.018C6.246,6.566,6.243,6.571,6.235,6.575z"/>
	<path fill="#9900FF" d="M6.249,6.548c0-0.008,0.004-0.014,0.011-0.018C6.26,6.538,6.256,6.544,6.249,6.548z"/>
	<path fill="#6B00FF" d="M7.859,6.427c0-0.009,0.004-0.015,0.011-0.02C7.87,6.416,7.866,6.422,7.859,6.427z"/>
	<path fill="#9700FF" d="M9.203,9.283C9.2,9.279,9.197,9.274,9.194,9.269C9.2,9.272,9.204,9.276,9.203,9.283z"/>
	<path fill="#9700FF" d="M9.231,9.338c-0.003-0.005-0.006-0.01-0.01-0.015C9.228,9.326,9.232,9.331,9.231,9.338z"/>
	<path fill="#9700FF" d="M9.245,9.365C9.242,9.36,9.239,9.354,9.236,9.349C9.242,9.352,9.245,9.358,9.245,9.365z"/>
	<path fill="#9700FF" d="M9.259,9.392c-0.003-0.005-0.006-0.011-0.01-0.016C9.256,9.38,9.26,9.385,9.259,9.392z"/>
	<path fill="#9700FF" d="M9.272,9.42C9.269,9.414,9.266,9.409,9.263,9.403C9.27,9.407,9.273,9.412,9.272,9.42z"/>
	<path fill="#9700FF" d="M9.286,9.447C9.28,9.443,9.277,9.438,9.277,9.43C9.284,9.434,9.287,9.439,9.286,9.447z"/>
	<path fill="#9700FF" d="M9.3,9.474C9.297,9.469,9.294,9.463,9.29,9.457C9.297,9.461,9.3,9.467,9.3,9.474z"/>
	<path fill="#9700FF" d="M9.314,9.502C9.311,9.496,9.308,9.49,9.304,9.484C9.311,9.488,9.315,9.494,9.314,9.502z"/>
	<path fill="#9700FF" d="M9.328,9.529c-0.006-0.004-0.01-0.01-0.01-0.018C9.325,9.515,9.328,9.521,9.328,9.529z"/>
	<path fill="#9700FF" d="M9.342,9.556c-0.007-0.004-0.01-0.01-0.01-0.018C9.339,9.542,9.343,9.548,9.342,9.556z"/>
	<path fill="#9700FF" d="M9.355,9.584c-0.007-0.004-0.01-0.01-0.01-0.018C9.353,9.569,9.356,9.575,9.355,9.584z"/>
	<path fill="#9700FF" d="M9.37,9.611C9.363,9.606,9.359,9.6,9.359,9.592C9.367,9.596,9.37,9.602,9.37,9.611z"/>
	<path fill="#9700FF" d="M9.383,9.638c-0.007-0.004-0.01-0.011-0.011-0.019C9.38,9.623,9.384,9.63,9.383,9.638z"/>
	<path fill="#9900FF" d="M6.399,6.263c0-0.008,0.003-0.015,0.011-0.02C6.41,6.252,6.407,6.259,6.399,6.263z"/>
	<path fill="#9700FF" d="M9.411,9.693C9.404,9.688,9.4,9.682,9.4,9.673C9.408,9.677,9.411,9.684,9.411,9.693z"/>
	<path fill="#9900FF" d="M6.316,6.421c0.003-0.005,0.006-0.009,0.009-0.014C6.326,6.415,6.323,6.419,6.316,6.421z"/>
	<path fill="#9900FF" d="M6.33,6.395C6.333,6.39,6.336,6.385,6.339,6.38C6.339,6.387,6.336,6.392,6.33,6.395z"/>
	<path fill="#6B00FF" d="M7.804,6.533c0.003-0.005,0.006-0.011,0.01-0.016C7.814,6.524,7.81,6.529,7.804,6.533z"/>
	<path fill="#6B00FF" d="M7.884,6.379C7.887,6.375,7.89,6.371,7.892,6.367C7.893,6.373,7.89,6.377,7.884,6.379z"/>
	<path fill="#9900FF" d="M6.344,6.369C6.347,6.364,6.35,6.358,6.353,6.353C6.354,6.361,6.351,6.366,6.344,6.369z"/>
	<path fill="#9700FF" d="M9.397,9.665C9.39,9.661,9.387,9.654,9.387,9.645C9.394,9.65,9.398,9.656,9.397,9.665z"/>
	<path fill="#F400FF" d="M29.598,4.633c-0.029,0-0.054,0-0.079,0c-2.375,0-4.751,0-7.126,0c-0.101,0-0.075,0.015-0.122-0.075
		C21.935,3.92,21.6,3.281,21.264,2.642c-0.006-0.012-0.013-0.024-0.019-0.036c-0.008-0.018-0.004-0.026,0.014-0.026
		c0.014,0,0.027,0,0.041,0c0.791-0.001,1.582-0.002,2.373-0.003c0.893-0.001,1.787-0.002,2.68-0.003
		c0.323,0,0.646-0.001,0.968-0.002c0.409-0.001,0.818-0.004,1.227-0.005c0.077,0,0.066-0.014,0.105,0.067
		c0.307,0.646,0.614,1.291,0.921,1.937C29.584,4.587,29.596,4.604,29.598,4.633z"/>
	<path fill="#A900FF" d="M21.756,9.538c-0.001-0.004,0-0.007,0.004-0.009c0.003-0.006,0.008-0.011,0.009-0.017
		c-0.001-0.004,0-0.008,0.004-0.01c0.003-0.006,0.008-0.01,0.01-0.017c-0.001-0.004,0.001-0.008,0.004-0.01
		c0.003-0.006,0.007-0.01,0.009-0.017c-0.001-0.005,0-0.008,0.004-0.011c0.003-0.005,0.007-0.011,0.01-0.016
		c0.006-0.015,0.011-0.03,0.018-0.044c0.12-0.234,0.24-0.468,0.36-0.703c0.005-0.01,0.01-0.02,0.016-0.03
		c0.007-0.013,0.018-0.019,0.033-0.02c0.016,0,0.032,0,0.048,0c1.995,0,3.99,0,5.984,0c0.027,0,0.055-0.003,0.081,0.008
		c0.006,0.002,0.014,0.003,0.019,0.001c0.035-0.015,0.072-0.008,0.108-0.008c0.334-0.001,0.668,0,1.002,0
		c0.067,0,0.067,0,0.039,0.062c-0.15,0.331-0.3,0.661-0.45,0.992c-0.007,0.016-0.017,0.032-0.026,0.047
		c-0.07,0.036-0.147,0.018-0.22,0.033c-0.011,0.002-0.023,0.001-0.034,0.001c-0.682-0.009-1.363,0.012-2.044,0.018
		c-0.393,0.004-0.786-0.004-1.179,0.013c-0.286,0.012-0.573-0.003-0.858,0.013c-0.379,0.02-0.759-0.003-1.138,0.014
		c-0.373,0.017-0.745-0.002-1.117,0.014c-0.245,0.011-0.49,0.008-0.736,0.01c-0.037,0-0.087,0.012-0.097-0.048l0,0
		c0.008-0.007,0.006-0.02,0.014-0.027l0,0c0.008-0.007,0.005-0.02,0.014-0.027l0,0c0.005-0.006,0.011-0.012,0.011-0.02
		c-0.002-0.003-0.001-0.006,0.003-0.007c0.007-0.007,0.004-0.02,0.013-0.026l0-0.001c0.005-0.006,0.01-0.011,0.011-0.019
		c-0.002-0.004-0.001-0.006,0.003-0.008c0.005-0.006,0.01-0.012,0.011-0.02c-0.001-0.004,0-0.006,0.003-0.008
		c0.004-0.006,0.009-0.011,0.01-0.018c-0.001-0.004,0-0.007,0.003-0.009c0.004-0.006,0.009-0.011,0.01-0.019
		c-0.001-0.004,0-0.007,0.004-0.009c0.004-0.006,0.009-0.011,0.01-0.018c-0.001-0.004,0-0.007,0.004-0.009
		C21.75,9.55,21.755,9.545,21.756,9.538z"/>
	<path fill="#9000FF" d="M21.621,9.802c0.008,0.015,0.019,0.026,0.037,0.027c0.016,0.001,0.032,0.001,0.048,0.001
		c0.193,0,0.386,0,0.58,0c0.027,0,0.054-0.001,0.081-0.008c0.023-0.007,0.049-0.005,0.074-0.005c0.316,0,0.632,0,0.948,0
		c0.034,0,0.067,0.001,0.101-0.01c0.021-0.007,0.045-0.004,0.068-0.004c0.323,0,0.646,0,0.968,0c0.032,0,0.063,0.001,0.094-0.009
		c0.021-0.007,0.045-0.004,0.068-0.004c0.239,0,0.477,0,0.716,0c0.029,0,0.058,0,0.088-0.009c0.023-0.007,0.049-0.005,0.074-0.005
		c0.32,0,0.641,0,0.961,0c0.034,0,0.067,0.001,0.101-0.01c0.021-0.007,0.045-0.003,0.068-0.003c0.318,0,0.636,0,0.955,0
		c0.032,0,0.063,0.001,0.094-0.01c0.021-0.007,0.045-0.004,0.068-0.004c0.323,0,0.646,0,0.968,0c0.038,0,0.076-0.003,0.115-0.01
		c0.049-0.008,0.1-0.003,0.15-0.003c-0.021,0.07-0.056,0.134-0.086,0.2c-0.105,0.234-0.212,0.467-0.318,0.701
		c-0.005,0.01-0.008,0.021-0.014,0.031c-0.006,0.01-0.015,0.017-0.027,0.017c-0.025,0-0.05,0.001-0.075,0.001
		c-0.414,0.003-0.827,0.005-1.241,0.009c-0.384,0.004-0.768,0.009-1.152,0.013c-0.509,0.005-1.018,0.009-1.527,0.014
		c-0.511,0.005-1.023,0.009-1.534,0.014c-0.48,0.004-0.959,0.008-1.439,0.013c-0.145,0.001-0.291,0.006-0.436,0.008
		c-0.018,0-0.036,0-0.053,0c-0.008-0.018,0.002-0.029,0.008-0.041c0.153-0.299,0.305-0.598,0.458-0.898
		C21.612,9.811,21.617,9.807,21.621,9.802z"/>
	<path fill="#E100FF" d="M29.222,5.089c0.175,0,0.35,0,0.525,0c0.016,0,0.032,0.001,0.048,0c0.021-0.001,0.033,0.009,0.042,0.028
		c0.034,0.074,0.07,0.147,0.105,0.221c0.178,0.373,0.355,0.746,0.533,1.119c0.005,0.01,0.009,0.021,0.015,0.031
		c0.013,0.021,0.012,0.041,0.001,0.064c-0.036,0.076-0.069,0.153-0.104,0.229c-0.201,0.444-0.403,0.889-0.604,1.333
		c-0.034,0.076-0.017,0.064-0.099,0.064c-0.332,0-0.664,0-0.996,0c-0.018,0-0.036,0-0.054-0.001
		c-0.012-0.001-0.014-0.01-0.011-0.019c0.007-0.017,0.015-0.033,0.024-0.049c0.242-0.473,0.484-0.946,0.726-1.419
		c0.013-0.026,0.036-0.051,0.034-0.08c-0.002-0.025-0.021-0.049-0.034-0.073c-0.241-0.458-0.481-0.916-0.722-1.374
		c-0.009-0.018-0.019-0.036-0.027-0.055c-0.004-0.009,0.001-0.018,0.012-0.018c0.018-0.001,0.036-0.001,0.055-0.001
		C28.868,5.089,29.045,5.089,29.222,5.089C29.222,5.089,29.222,5.089,29.222,5.089z"/>
	<path fill="#CD00FF" d="M27.019,8.178c0.034-0.068,0.063-0.125,0.091-0.181c0.233-0.454,0.465-0.909,0.698-1.363
		c0.003-0.006,0.006-0.012,0.009-0.018c0.013-0.021,0.015-0.042,0.001-0.064c-0.006-0.009-0.011-0.02-0.016-0.03
		c-0.234-0.446-0.468-0.892-0.702-1.338c-0.012-0.022-0.024-0.044-0.035-0.066c-0.008-0.016-0.001-0.027,0.016-0.028
		c0.016-0.001,0.032-0.001,0.048-0.001c0.309,0,0.618,0,0.927,0c0.009,0,0.018,0.001,0.027,0c0.03-0.004,0.045,0.011,0.058,0.036
		c0.062,0.121,0.126,0.241,0.189,0.362c0.186,0.353,0.372,0.707,0.558,1.06c0.002,0.004,0.004,0.008,0.006,0.012
		c0.035,0.066,0.035,0.046,0.002,0.111c-0.08,0.158-0.161,0.315-0.242,0.473c-0.166,0.323-0.331,0.646-0.497,0.969
		c-0.041,0.08-0.021,0.066-0.106,0.066c-0.318,0.001-0.636,0-0.954,0C27.075,8.178,27.053,8.178,27.019,8.178z"/>
	<path fill="#B400FF" d="M25.653,8.178c-0.004-0.025,0.007-0.037,0.014-0.051c0.219-0.428,0.438-0.857,0.657-1.285
		c0.032-0.063,0.065-0.125,0.096-0.188c0.035-0.071,0.035-0.044,0.001-0.111c-0.064-0.125-0.131-0.249-0.196-0.374
		c-0.179-0.342-0.359-0.683-0.538-1.025c-0.005-0.01-0.011-0.02-0.016-0.03C25.664,5.099,25.67,5.09,25.69,5.089
		c0.011-0.001,0.023,0,0.034,0c0.259,0,0.518,0,0.777,0c0.014,0,0.027,0,0.041,0c0.013,0,0.022,0.007,0.028,0.017
		c0.007,0.012,0.013,0.024,0.019,0.036c0.244,0.464,0.488,0.928,0.732,1.392c0.004,0.008,0.008,0.016,0.013,0.024
		c0.012,0.02,0.009,0.038-0.001,0.058c-0.038,0.073-0.075,0.145-0.112,0.218c-0.219,0.428-0.438,0.856-0.658,1.284
		c-0.037,0.072-0.02,0.06-0.096,0.06c-0.252,0-0.504,0-0.757,0C25.691,8.178,25.673,8.178,25.653,8.178z"/>
	<path fill="#5700FF" d="M23.561,8.167c-0.006,0.003-0.011,0.009-0.017,0.01c-0.013,0.002-0.027,0.001-0.041,0.001
		c-0.334,0-0.668,0-1.002,0c-0.014,0-0.027-0.001-0.04-0.002c-0.009-0.019,0.003-0.032,0.01-0.045
		c0.166-0.325,0.333-0.65,0.499-0.975c0.098-0.192,0.196-0.384,0.294-0.575c0.008-0.016,0.016-0.033,0.025-0.049
		c0.006-0.011,0.006-0.021,0-0.032c-0.013-0.024-0.025-0.048-0.038-0.073c-0.219-0.418-0.439-0.835-0.658-1.253
		c-0.048-0.091-0.053-0.086,0.052-0.086c0.295,0,0.591,0,0.886,0c0.024,0,0.05-0.007,0.073,0.009
		c-0.073,0.025-0.081,0.08-0.081,0.149c0.002,0.927,0.001,1.854,0.001,2.781C23.525,8.076,23.522,8.127,23.561,8.167z"/>
	<path fill="#9800FF" d="M25.166,5.099c0.018,0.012,0.024,0.033,0.033,0.05c0.243,0.461,0.485,0.923,0.728,1.384
		c0.035,0.067,0.035,0.067,0,0.135c-0.247,0.482-0.494,0.964-0.741,1.446c-0.009,0.018-0.015,0.038-0.032,0.051
		c-0.061,0.009-0.122,0.013-0.183-0.002c-0.02-0.028-0.017-0.061-0.017-0.092c0-0.957,0-1.914,0-2.872c0-0.023,0-0.045,0.005-0.068
		c0.005-0.024,0.016-0.043,0.045-0.041C25.058,5.095,25.113,5.083,25.166,5.099z"/>
	<path fill="#6900FF" d="M23.561,8.167c-0.009-0.001-0.018,0-0.027-0.002c-0.023-0.004-0.028-0.009-0.029-0.03
		c-0.001-0.018-0.001-0.036-0.001-0.054c0-0.965,0-1.929,0-2.894c0-0.007,0-0.014,0-0.02c0-0.066-0.001-0.069,0.067-0.069
		c0.011,0,0.023-0.001,0.034-0.002c0.014,0.01,0.019,0.025,0.026,0.039c0.243,0.462,0.485,0.923,0.728,1.385
		c0.003,0.006,0.006,0.012,0.01,0.018c0.014,0.021,0.011,0.041,0,0.064c-0.039,0.074-0.076,0.149-0.114,0.224
		c-0.219,0.428-0.438,0.856-0.658,1.283C23.585,8.129,23.573,8.148,23.561,8.167z"/>
	<path fill="#8500FF" d="M25.166,5.099c-0.05,0-0.1-0.001-0.15,0C24.983,5.1,24.979,5.105,24.977,5.14c-0.001,0.011,0,0.023,0,0.034
		c0,0.997,0,1.994,0,2.991c-0.119,0.016-0.239,0.003-0.359,0.007c-0.022,0.001-0.033-0.012-0.038-0.031
		c-0.005-0.018-0.006-0.036-0.006-0.054c-0.001-0.292,0-0.585,0-0.877c0-0.022-0.004-0.046,0.008-0.066l0,0
		c0.008-0.007,0.005-0.02,0.013-0.027l0,0c0.008-0.007,0.005-0.02,0.014-0.026l0-0.001c0.007-0.007,0.005-0.02,0.013-0.027l0-0.001
		c0.005-0.006,0.011-0.011,0.011-0.02c-0.002-0.004,0-0.006,0.003-0.008c0.007-0.007,0.004-0.019,0.013-0.026l0-0.001
		c0.005-0.006,0.01-0.011,0.011-0.019c-0.001-0.004,0-0.007,0.003-0.009c0.005-0.006,0.01-0.011,0.01-0.019
		c-0.001-0.004,0-0.006,0.003-0.008c0.004-0.005,0.009-0.011,0.01-0.018c-0.001-0.004,0-0.007,0.004-0.01
		c0.004-0.006,0.009-0.011,0.01-0.018c-0.001-0.004,0-0.007,0.004-0.009c0.004-0.005,0.008-0.01,0.01-0.017
		c-0.001-0.004,0-0.008,0.004-0.01c0.003-0.006,0.008-0.01,0.01-0.017c-0.001-0.004,0-0.008,0.004-0.01
		c0.004-0.005,0.007-0.011,0.01-0.016c-0.001-0.005,0-0.008,0.004-0.011c0.003-0.006,0.008-0.01,0.01-0.017
		c-0.001-0.005,0.001-0.008,0.005-0.011c0.003-0.005,0.006-0.01,0.009-0.016c-0.001-0.005,0-0.009,0.004-0.012
		c0.003-0.005,0.006-0.011,0.009-0.016c-0.001-0.005,0.001-0.009,0.005-0.011c0.003-0.005,0.006-0.01,0.009-0.015
		c0.008-0.036,0.031-0.065,0.046-0.098c0.027-0.059,0.034-0.042,0-0.105c-0.124-0.234-0.247-0.469-0.37-0.704
		c-0.117-0.223-0.233-0.446-0.35-0.668c-0.006-0.012-0.012-0.024-0.017-0.037c-0.003-0.007,0.001-0.014,0.008-0.016
		c0.009-0.002,0.018-0.002,0.027-0.002c0.329,0,0.658,0,0.987,0C25.143,5.088,25.157,5.084,25.166,5.099z"/>
	<path fill="#8300FF" d="M24.582,7.144c0.012,0.035,0.014,0.07,0.014,0.107c-0.001,0.269,0,0.539,0,0.808c0,0.011,0,0.023,0,0.034
		c0,0.072,0,0.073,0.069,0.073c0.104,0,0.208,0,0.313,0c0.059,0,0.118,0.001,0.177,0.001c-0.004,0.006-0.007,0.011-0.015,0.011
		c-0.016,0-0.032,0.001-0.048,0.001c-0.327,0-0.653,0-0.98-0.001c-0.017,0-0.036,0.005-0.051-0.005
		c-0.005-0.013,0.002-0.023,0.007-0.033c0.166-0.325,0.332-0.65,0.499-0.974C24.57,7.157,24.576,7.151,24.582,7.144z"/>
	<path fill="#9000FF" d="M21.676,9.694c0,0.011-0.003,0.021-0.013,0.026C21.662,9.708,21.667,9.7,21.676,9.694z"/>
	<path fill="#9000FF" d="M21.649,9.748c0,0.011-0.003,0.021-0.014,0.027C21.634,9.763,21.639,9.754,21.649,9.748z"/>
	<path fill="#9000FF" d="M21.635,9.775c0,0.011-0.003,0.021-0.014,0.027C21.621,9.79,21.626,9.781,21.635,9.775z"/>
	<path fill="#8300FF" d="M24.595,7.116c0,0.011-0.003,0.021-0.013,0.027C24.582,7.132,24.586,7.123,24.595,7.116z"/>
	<path fill="#8300FF" d="M24.65,7.008c-0.001,0.01-0.003,0.02-0.013,0.026C24.637,7.023,24.641,7.014,24.65,7.008z"/>
	<path fill="#8300FF" d="M24.623,7.062c0,0.011-0.003,0.021-0.013,0.027C24.609,7.078,24.613,7.068,24.623,7.062z"/>
	<path fill="#8300FF" d="M24.609,7.09C24.608,7.1,24.606,7.11,24.595,7.116C24.595,7.104,24.6,7.096,24.609,7.09z"/>
	<path fill="#8300FF" d="M24.799,6.718c-0.003,0.005-0.006,0.01-0.009,0.015C24.789,6.726,24.793,6.721,24.799,6.718z"/>
	<path fill="#8300FF" d="M24.662,6.988c0,0.008-0.004,0.015-0.011,0.019C24.651,6.998,24.654,6.992,24.662,6.988z"/>
	<path fill="#8300FF" d="M24.703,6.906c-0.003,0.006-0.006,0.012-0.01,0.018C24.693,6.916,24.696,6.91,24.703,6.906z"/>
	<path fill="#8300FF" d="M24.689,6.934c-0.003,0.006-0.007,0.012-0.01,0.018C24.678,6.944,24.682,6.938,24.689,6.934z"/>
	<path fill="#8300FF" d="M24.717,6.88c-0.003,0.006-0.007,0.011-0.01,0.017C24.706,6.889,24.71,6.884,24.717,6.88z"/>
	<path fill="#8300FF" d="M24.634,7.041c0,0.009-0.004,0.015-0.011,0.02C24.623,7.053,24.627,7.046,24.634,7.041z"/>
	<path fill="#9000FF" d="M21.811,9.431c-0.003,0.005-0.006,0.011-0.01,0.016C21.801,9.439,21.804,9.434,21.811,9.431z"/>
	<path fill="#9000FF" d="M21.797,9.458c0,0.007-0.003,0.013-0.009,0.017C21.787,9.466,21.791,9.461,21.797,9.458z"/>
	<path fill="#9000FF" d="M21.784,9.484c-0.003,0.006-0.007,0.011-0.01,0.017C21.773,9.494,21.777,9.488,21.784,9.484z"/>
	<path fill="#9000FF" d="M21.77,9.511c-0.003,0.006-0.006,0.012-0.009,0.017C21.76,9.521,21.763,9.515,21.77,9.511z"/>
	<path fill="#9000FF" d="M21.756,9.538c0,0.008-0.003,0.014-0.01,0.018C21.745,9.548,21.749,9.542,21.756,9.538z"/>
	<path fill="#9000FF" d="M21.742,9.565c0,0.008-0.003,0.014-0.01,0.018C21.732,9.575,21.735,9.569,21.742,9.565z"/>
	<path fill="#9000FF" d="M21.729,9.592c0,0.008-0.003,0.014-0.01,0.019C21.718,9.602,21.721,9.596,21.729,9.592z"/>
	<path fill="#9000FF" d="M21.715,9.62c0,0.008-0.004,0.014-0.01,0.018C21.704,9.63,21.708,9.624,21.715,9.62z"/>
	<path fill="#9000FF" d="M21.701,9.646c0,0.008-0.003,0.015-0.011,0.02C21.69,9.656,21.693,9.65,21.701,9.646z"/>
	<path fill="#9000FF" d="M21.688,9.674c0,0.008-0.004,0.015-0.011,0.019C21.676,9.684,21.68,9.678,21.688,9.674z"/>
	<path fill="#8300FF" d="M24.744,6.826c-0.003,0.005-0.006,0.011-0.01,0.016C24.734,6.835,24.737,6.83,24.744,6.826z"/>
	<path fill="#9000FF" d="M21.66,9.727c0,0.009-0.004,0.016-0.011,0.02C21.649,9.738,21.652,9.732,21.66,9.727z"/>
	<path fill="#8300FF" d="M24.758,6.799c-0.003,0.006-0.006,0.011-0.01,0.017C24.748,6.808,24.751,6.802,24.758,6.799z"/>
	<path fill="#8300FF" d="M24.675,6.96c0,0.008-0.003,0.015-0.01,0.019C24.665,6.971,24.668,6.964,24.675,6.96z"/>
	<path fill="#8300FF" d="M24.73,6.852c-0.003,0.006-0.006,0.012-0.01,0.017C24.72,6.862,24.723,6.856,24.73,6.852z"/>
	<path fill="#8300FF" d="M24.772,6.772c-0.003,0.005-0.006,0.01-0.009,0.016C24.762,6.781,24.765,6.776,24.772,6.772z"/>
	<path fill="#8300FF" d="M24.785,6.745c-0.003,0.005-0.006,0.011-0.009,0.016C24.775,6.753,24.778,6.748,24.785,6.745z"/>
</g>
</svg>
