<?xml version="1.0" encoding="utf-8"?>
<!-- Generator: Adobe Illustrator 24.3.0, SVG Export Plug-In . SVG Version: 6.00 Build 0)  -->
<svg version="1.1" id="Слой_1" xmlns="http://www.w3.org/2000/svg" xmlns:xlink="http://www.w3.org/1999/xlink" x="0px" y="0px"
	 width="32px" height="13px" viewBox="0 0 32 13" enable-background="new 0 0 32 13" xml:space="preserve">
<g>
	<path d="M16.14,0.432c1.205,0,2.411,0,3.616,0c0.028,0,0.061-0.01,0.082,0.006c0.021,0.015,0.032,0.045,0.046,0.069
		c0.152,0.257,0.304,0.514,0.456,0.771c0.087,0.146,0.174,0.293,0.261,0.439c0.146,0.247,0.292,0.494,0.438,0.741
		c0.084,0.142,0.169,0.285,0.254,0.427c0.149,0.251,0.297,0.502,0.446,0.752c0.086,0.144,0.171,0.289,0.257,0.433
		c0.147,0.249,0.295,0.498,0.442,0.746c0.089,0.15,0.178,0.301,0.268,0.451c0.144,0.243,0.288,0.486,0.431,0.728
		c0.088,0.148,0.176,0.297,0.264,0.445c0.042,0.07,0.083,0.141,0.125,0.21c0.014,0.023,0.014,0.041,0,0.064
		c-0.079,0.132-0.157,0.265-0.236,0.397c-0.007,0.012-0.014,0.024-0.021,0.036c-0.124,0.211-0.248,0.422-0.373,0.633
		c-0.094,0.159-0.188,0.317-0.282,0.476c-0.093,0.156-0.185,0.313-0.278,0.469c-0.094,0.158-0.188,0.317-0.282,0.475
		c-0.092,0.154-0.183,0.309-0.274,0.464c-0.095,0.161-0.19,0.321-0.285,0.481c-0.09,0.152-0.181,0.305-0.271,0.457
		c-0.144,0.243-0.288,0.486-0.431,0.728c-0.088,0.148-0.176,0.297-0.264,0.445c-0.144,0.243-0.287,0.486-0.431,0.728
		c-0.077,0.13-0.156,0.26-0.232,0.391c-0.016,0.027-0.033,0.043-0.066,0.039c-0.014-0.002-0.028,0-0.042,0c-2.411,0-4.822,0-7.232,0
		c-0.03,0-0.065,0.011-0.089-0.006c-0.023-0.016-0.037-0.047-0.053-0.072c-0.052-0.086-0.103-0.172-0.154-0.259
		c-0.077-0.131-0.153-0.262-0.23-0.392c-0.144-0.243-0.288-0.486-0.431-0.728c-0.089-0.15-0.178-0.301-0.268-0.451
		c-0.144-0.243-0.288-0.486-0.431-0.728c-0.09-0.152-0.181-0.305-0.271-0.457c-0.143-0.241-0.285-0.482-0.428-0.722
		c-0.088-0.148-0.176-0.297-0.264-0.445C9.76,8.429,9.615,8.184,9.47,7.939C9.38,7.787,9.289,7.635,9.198,7.482
		C9.056,7.241,8.913,7.001,8.771,6.759C8.756,6.734,8.727,6.714,8.73,6.681c0.003-0.029,0.027-0.048,0.041-0.072
		C8.843,6.485,8.915,6.363,8.987,6.24c0.149-0.253,0.299-0.506,0.449-0.759C9.525,5.331,9.614,5.181,9.703,5.03
		c0.143-0.241,0.285-0.481,0.428-0.722c0.089-0.15,0.179-0.301,0.268-0.451c0.145-0.245,0.29-0.49,0.435-0.735
		c0.089-0.151,0.178-0.301,0.268-0.451c0.143-0.241,0.285-0.481,0.428-0.722c0.092-0.154,0.183-0.309,0.275-0.463
		c0.141-0.239,0.283-0.478,0.424-0.716c0.06-0.1,0.121-0.199,0.179-0.3c0.016-0.029,0.036-0.039,0.067-0.036
		c0.019,0.002,0.037,0,0.056,0C13.734,0.432,14.937,0.432,16.14,0.432z"/>
	<path d="M10.24,12.594c-0.018,0-0.036,0.001-0.053,0c-0.738-0.008-1.476-0.016-2.214-0.023c-0.35-0.004-0.701-0.006-1.051-0.01
		c-0.68-0.007-1.359-0.015-2.039-0.022c-0.691-0.007-1.383-0.013-2.074-0.02c-0.687-0.007-1.373-0.015-2.06-0.023
		c-0.014,0-0.028-0.001-0.042-0.002c-0.008-0.001-0.012-0.007-0.013-0.014c-0.002-0.007-0.001-0.014-0.001-0.021
		c0-0.023,0-0.047,0-0.07c0-3.859,0-7.718,0.001-11.578c0-0.032-0.009-0.065,0.008-0.096C0.73,0.715,0.76,0.712,0.79,0.712
		c0.631-0.01,1.261-0.021,1.892-0.031c0.57-0.009,1.14-0.018,1.71-0.027c0.603-0.01,1.205-0.02,1.808-0.029
		c0.57-0.009,1.14-0.018,1.71-0.027c0.605-0.01,1.21-0.019,1.815-0.029c0.054-0.001,0.107-0.002,0.161-0.004
		c0.006,0,0.01,0.001,0.01,0.006c0,0.004-0.001,0.009-0.003,0.012C9.889,0.587,9.884,0.588,9.88,0.591
		C9.609,0.77,9.339,0.949,9.068,1.127c-0.345,0.227-0.69,0.454-1.034,0.682C7.821,1.949,7.61,2.09,7.397,2.23
		c-0.3,0.198-0.6,0.395-0.9,0.593C6.289,2.961,6.081,3.099,5.873,3.237C5.709,3.345,5.547,3.454,5.381,3.56
		C5.317,3.601,5.265,3.651,5.225,3.716C5.185,3.781,5.14,3.844,5.097,3.908c-0.07,0.105-0.139,0.21-0.208,0.315
		c-0.15,0.225-0.3,0.451-0.45,0.676C4.35,5.033,4.261,5.167,4.171,5.301c-0.145,0.217-0.29,0.435-0.434,0.652
		C3.649,6.085,3.561,6.217,3.473,6.349c-0.04,0.06-0.08,0.12-0.121,0.18C3.339,6.548,3.335,6.564,3.347,6.586
		c0.079,0.148,0.157,0.297,0.235,0.445c0.005,0.01,0.012,0.02,0.017,0.031c0.073,0.141,0.146,0.282,0.219,0.422
		C3.967,7.767,4.115,8.05,4.264,8.333C4.351,8.5,4.44,8.667,4.528,8.834C4.614,8.997,4.7,9.16,4.785,9.323
		c0.011,0.022,0.027,0.037,0.047,0.049c0.271,0.16,0.542,0.321,0.813,0.482c0.375,0.223,0.75,0.445,1.125,0.668
		c0.323,0.192,0.646,0.383,0.969,0.575c0.423,0.251,0.846,0.503,1.27,0.754c0.277,0.164,0.554,0.328,0.831,0.492
		c0.11,0.065,0.221,0.13,0.331,0.196c0.024,0.014,0.048,0.029,0.072,0.044C10.242,12.585,10.241,12.589,10.24,12.594z"/>
	<path d="M22.538,0.643c0.021-0.007,0.044-0.003,0.066-0.003c0.399,0.006,0.799,0.012,1.198,0.018
		c0.589,0.009,1.177,0.019,1.766,0.028c0.589,0.009,1.177,0.019,1.766,0.028c0.584,0.009,1.168,0.019,1.752,0.028
		c0.589,0.009,1.177,0.019,1.766,0.028c0.278,0.004,0.556,0.009,0.834,0.014c0.012,0,0.023,0,0.035,0.001
		c0.01,0.001,0.017,0.007,0.017,0.018c0.001,0.021,0.001,0.042,0.001,0.063c0,0.416,0,0.831,0,1.247c0,3.453,0,6.906,0,10.358
		c0,0.03,0.004,0.06-0.004,0.09c-0.031,0.016-0.064,0.008-0.095,0.008c-0.92,0.01-1.84,0.019-2.761,0.029
		c-0.937,0.01-1.873,0.019-2.81,0.029c-0.885,0.009-1.77,0.018-2.656,0.027c-0.383,0.004-0.766,0.008-1.149,0.012
		c-0.024,0-0.049,0.002-0.075-0.003c0.006-0.018,0.018-0.021,0.027-0.026c0.174-0.104,0.349-0.207,0.523-0.311
		c0.158-0.094,0.317-0.188,0.475-0.282c0.311-0.184,0.622-0.369,0.933-0.553c0.205-0.121,0.409-0.243,0.614-0.364
		c0.263-0.156,0.526-0.311,0.789-0.467c0.15-0.089,0.301-0.179,0.451-0.268c0.269-0.159,0.538-0.318,0.807-0.478
		c0.203-0.12,0.405-0.241,0.607-0.361c0.06-0.036,0.12-0.072,0.18-0.107c0.025-0.014,0.043-0.032,0.057-0.059
		c0.068-0.133,0.137-0.265,0.206-0.397c0.104-0.198,0.208-0.396,0.312-0.594c0.091-0.173,0.182-0.347,0.273-0.52
		c0.094-0.18,0.189-0.359,0.283-0.539c0.092-0.175,0.185-0.351,0.277-0.526c0.026-0.049,0.053-0.099,0.08-0.148
		c0.011-0.02,0.013-0.038-0.001-0.057c-0.026-0.036-0.051-0.073-0.075-0.11c-0.059-0.089-0.118-0.179-0.178-0.268
		c-0.161-0.243-0.323-0.486-0.484-0.729c-0.085-0.128-0.171-0.256-0.256-0.384c-0.149-0.223-0.297-0.447-0.446-0.67
		c-0.078-0.116-0.156-0.233-0.234-0.349c-0.083-0.124-0.166-0.248-0.248-0.373c-0.013-0.02-0.029-0.036-0.049-0.049
		c-0.152-0.1-0.304-0.2-0.456-0.3c-0.109-0.072-0.218-0.144-0.327-0.216c-0.273-0.18-0.545-0.36-0.818-0.54
		c-0.212-0.14-0.424-0.281-0.636-0.421c-0.3-0.198-0.6-0.395-0.9-0.593c-0.162-0.107-0.323-0.214-0.484-0.321
		c-0.257-0.17-0.514-0.339-0.771-0.509c-0.055-0.036-0.109-0.072-0.163-0.108C22.547,0.662,22.535,0.66,22.538,0.643z"/>
	<path d="M20.784,0.777c0.012-0.008,0.019,0.001,0.026,0.006c0.191,0.121,0.382,0.242,0.574,0.363c0.27,0.171,0.54,0.341,0.81,0.512
		c0.211,0.134,0.421,0.268,0.632,0.401c0.254,0.161,0.509,0.321,0.763,0.482c0.158,0.1,0.315,0.201,0.473,0.3
		c0.26,0.165,0.521,0.329,0.781,0.493c0.156,0.098,0.311,0.198,0.467,0.296c0.264,0.167,0.528,0.334,0.793,0.501
		c0.14,0.089,0.28,0.177,0.42,0.266c0.156,0.099,0.311,0.198,0.467,0.296c0.032,0.02,0.059,0.045,0.08,0.076
		c0.053,0.079,0.108,0.158,0.162,0.237c0.123,0.182,0.245,0.364,0.368,0.545c0.141,0.209,0.283,0.417,0.425,0.625
		c0.14,0.206,0.281,0.413,0.42,0.62c0.018,0.027,0.051,0.048,0.05,0.081c-0.002,0.03-0.034,0.049-0.052,0.073
		c-0.122,0.162-0.245,0.324-0.368,0.485c-0.143,0.187-0.286,0.375-0.429,0.562c-0.089,0.117-0.179,0.233-0.268,0.35
		c-0.19,0.248-0.38,0.497-0.569,0.745c-0.016,0.02-0.033,0.04-0.048,0.06c-0.103,0.137-0.065,0.099-0.198,0.182
		c-0.255,0.159-0.512,0.316-0.768,0.474c-0.189,0.116-0.377,0.233-0.566,0.349c-0.286,0.176-0.572,0.353-0.857,0.53
		c-0.272,0.168-0.544,0.335-0.816,0.503c-0.206,0.127-0.413,0.255-0.619,0.382c-0.306,0.189-0.612,0.377-0.918,0.565
		c-0.119,0.073-0.238,0.148-0.357,0.221c-0.028,0.017-0.055,0.035-0.085,0.049c-0.128,0.058-0.296,0.001-0.343-0.145
		c-0.02-0.063-0.016-0.124,0.012-0.184c0.008-0.017,0.018-0.033,0.028-0.048c0.156-0.241,0.312-0.482,0.468-0.722
		c0.084-0.129,0.168-0.258,0.252-0.387c0.149-0.229,0.297-0.458,0.445-0.687c0.086-0.133,0.173-0.266,0.259-0.399
		c0.147-0.227,0.295-0.454,0.442-0.681c0.085-0.131,0.171-0.262,0.256-0.393c0.147-0.227,0.294-0.454,0.441-0.681
		c0.084-0.129,0.168-0.258,0.252-0.387c0.158-0.242,0.316-0.485,0.474-0.727c0.014-0.021,0.012-0.036,0-0.057
		c-0.082-0.131-0.162-0.262-0.243-0.393c-0.15-0.244-0.301-0.489-0.451-0.733c-0.086-0.139-0.172-0.277-0.258-0.416
		c-0.147-0.238-0.293-0.477-0.44-0.715c-0.078-0.127-0.157-0.254-0.236-0.381c-0.154-0.25-0.308-0.501-0.462-0.751
		c-0.088-0.143-0.176-0.286-0.264-0.429c-0.144-0.234-0.289-0.469-0.433-0.703c-0.088-0.143-0.176-0.286-0.265-0.429
		c-0.146-0.236-0.291-0.473-0.437-0.709c-0.088-0.143-0.176-0.286-0.264-0.429C20.798,0.809,20.785,0.795,20.784,0.777z"/>
	<path d="M11.647,12.703c-0.093-0.058-0.185-0.117-0.278-0.175c-0.369-0.233-0.737-0.466-1.106-0.7
		c-0.213-0.135-0.425-0.27-0.638-0.405c-0.345-0.218-0.69-0.436-1.035-0.654c-0.26-0.165-0.52-0.33-0.78-0.495
		C7.418,10.026,7.026,9.778,6.634,9.53C6.423,9.397,6.212,9.263,6.001,9.129C5.814,9.011,5.627,8.891,5.439,8.774
		c-0.033-0.02-0.057-0.046-0.078-0.078c-0.121-0.18-0.242-0.36-0.364-0.539c-0.092-0.135-0.183-0.27-0.275-0.405
		c-0.14-0.206-0.28-0.413-0.421-0.619C4.194,6.974,4.085,6.817,3.977,6.659C3.968,6.645,3.96,6.631,3.95,6.618
		C3.938,6.602,3.941,6.589,3.953,6.575c0.056-0.072,0.11-0.145,0.166-0.217C4.179,6.278,4.242,6.199,4.302,6.12
		C4.424,5.96,4.545,5.8,4.667,5.641C4.811,5.451,4.956,5.262,5.1,5.073c0.089-0.117,0.179-0.234,0.268-0.35
		C5.489,4.566,5.61,4.409,5.73,4.251C5.752,4.223,5.776,4.199,5.807,4.18c0.288-0.177,0.576-0.354,0.864-0.532
		c0.159-0.098,0.317-0.197,0.476-0.294c0.26-0.16,0.52-0.32,0.78-0.481C8.078,2.78,8.229,2.687,8.38,2.594
		c0.27-0.166,0.54-0.333,0.81-0.499c0.208-0.129,0.417-0.258,0.625-0.386c0.258-0.159,0.516-0.318,0.774-0.477
		c0.075-0.047,0.151-0.093,0.226-0.141c0.034-0.021,0.07-0.038,0.11-0.044c0.102-0.016,0.186,0.017,0.247,0.098
		c0.062,0.082,0.064,0.173,0.015,0.264c-0.021,0.039-0.048,0.074-0.072,0.111c-0.05,0.076-0.099,0.152-0.149,0.229
		c-0.124,0.192-0.247,0.384-0.372,0.576c-0.141,0.217-0.282,0.434-0.423,0.651C10.08,3.117,9.988,3.258,9.897,3.398
		C9.756,3.616,9.615,3.833,9.474,4.05C9.381,4.193,9.288,4.335,9.195,4.478C9.055,4.695,8.914,4.913,8.773,5.13
		c-0.09,0.139-0.181,0.278-0.271,0.417C8.36,5.765,8.218,5.985,8.075,6.204C8.012,6.301,7.948,6.399,7.883,6.496
		C7.866,6.521,7.861,6.542,7.88,6.571c0.108,0.171,0.215,0.344,0.322,0.517c0.052,0.083,0.103,0.167,0.154,0.25
		C8.43,7.459,8.504,7.58,8.579,7.702c0.145,0.236,0.291,0.473,0.436,0.709c0.087,0.141,0.175,0.281,0.261,0.422
		c0.147,0.238,0.293,0.477,0.44,0.715C9.797,9.679,9.879,9.81,9.959,9.941c0.152,0.246,0.303,0.493,0.455,0.739
		c0.087,0.141,0.174,0.282,0.261,0.423c0.147,0.238,0.293,0.477,0.44,0.715c0.081,0.131,0.162,0.262,0.243,0.393
		c0.088,0.143,0.176,0.286,0.264,0.429c0.012,0.019,0.023,0.039,0.034,0.058C11.654,12.699,11.651,12.701,11.647,12.703z"/>
	<path fill="#666666" d="M16.086,9.583c0.04,0.065,0.076,0.122,0.111,0.179c0.103,0.169,0.206,0.339,0.309,0.508
		c0.108,0.177,0.215,0.355,0.323,0.532c0.129,0.211,0.258,0.422,0.387,0.633c0.024,0.04,0.045,0.082,0.074,0.119
		c0.012,0.015,0.023,0.021,0.042,0.014c0.042-0.015,0.084-0.029,0.125-0.045c0.276-0.101,0.552-0.201,0.828-0.302
		c0.239-0.087,0.477-0.175,0.716-0.262c0.024-0.009,0.04-0.021,0.052-0.043c0.051-0.094,0.103-0.188,0.155-0.282
		c0.076-0.137,0.152-0.273,0.228-0.41c0.062-0.112,0.124-0.225,0.186-0.337c0.082-0.149,0.165-0.298,0.248-0.447
		c0.06-0.108,0.12-0.216,0.18-0.325c0.111-0.2,0.223-0.399,0.333-0.599c0.066-0.118,0.13-0.238,0.195-0.356
		c0.077-0.139,0.154-0.277,0.231-0.416c0.068-0.122,0.134-0.245,0.202-0.368c0.063-0.114,0.128-0.228,0.192-0.342
		c0.024-0.043,0.047-0.086,0.071-0.129c0.051-0.092,0.1-0.185,0.153-0.275c0.02-0.035,0.019-0.063-0.001-0.097
		c-0.051-0.086-0.1-0.174-0.149-0.261c-0.067-0.118-0.133-0.236-0.2-0.353c-0.058-0.101-0.117-0.202-0.174-0.303
		c-0.078-0.138-0.156-0.276-0.234-0.414c-0.06-0.105-0.122-0.21-0.182-0.315c-0.027-0.046-0.052-0.094-0.079-0.14
		c-0.106-0.187-0.211-0.374-0.317-0.56c-0.092-0.162-0.185-0.324-0.278-0.486c-0.104-0.182-0.21-0.364-0.314-0.546
		c-0.081-0.142-0.161-0.284-0.241-0.427c-0.026-0.047-0.054-0.093-0.079-0.14c-0.013-0.024-0.031-0.039-0.057-0.049
		c-0.201-0.076-0.401-0.152-0.602-0.228c-0.168-0.064-0.335-0.129-0.503-0.193c-0.211-0.081-0.423-0.161-0.634-0.242
		c-0.011-0.004-0.022-0.009-0.033-0.012c-0.012-0.004-0.024,0-0.032,0.009c-0.02,0.023-0.039,0.046-0.057,0.071
		c-0.075,0.101-0.148,0.204-0.223,0.305C16.93,2.395,16.82,2.54,16.711,2.686c-0.076,0.103-0.151,0.207-0.227,0.311
		c-0.093,0.126-0.186,0.251-0.279,0.377c-0.006,0.007-0.011,0.015-0.017,0.022c-0.007,0.007-0.017,0.008-0.025,0
		c-0.008-0.008-0.015-0.018-0.021-0.028c-0.072-0.106-0.144-0.212-0.216-0.318c-0.147-0.216-0.294-0.432-0.442-0.647
		c-0.113-0.166-0.227-0.331-0.341-0.496c-0.001-0.002-0.003-0.004-0.004-0.006c-0.03-0.044-0.03-0.044-0.079-0.028
		c-0.051,0.017-0.102,0.034-0.152,0.052c-0.295,0.104-0.589,0.209-0.884,0.313c-0.31,0.11-0.62,0.219-0.931,0.328
		c-0.03,0.011-0.051,0.028-0.067,0.056c-0.109,0.193-0.219,0.385-0.329,0.578c-0.096,0.168-0.192,0.336-0.288,0.505
		c-0.095,0.166-0.189,0.332-0.284,0.498c-0.059,0.103-0.118,0.206-0.178,0.309c-0.005,0.008-0.009,0.017-0.014,0.024
		c-0.022,0.035-0.028,0.037-0.068,0.02c-0.187-0.079-0.374-0.159-0.56-0.238c-0.047-0.02-0.094-0.04-0.142-0.06
		c-0.011-0.005-0.022-0.009-0.03-0.024c0.025-0.045,0.05-0.091,0.077-0.138c0.108-0.188,0.216-0.376,0.324-0.564
		c0.088-0.154,0.177-0.307,0.266-0.461c0.069-0.119,0.139-0.237,0.208-0.357c0.07-0.121,0.139-0.243,0.209-0.364
		c0.07-0.121,0.141-0.242,0.211-0.363c0.069-0.119,0.136-0.239,0.205-0.358c0.044-0.077,0.09-0.153,0.134-0.23
		c0.012-0.021,0.027-0.03,0.051-0.029c0.019,0.001,0.037,0,0.056,0c2.121,0,4.242,0,6.363,0c0.014,0,0.028,0.001,0.042,0
		c0.03-0.003,0.046,0.01,0.061,0.035c0.099,0.164,0.199,0.326,0.3,0.489c0.108,0.175,0.217,0.349,0.325,0.523
		c0.078,0.127,0.155,0.255,0.233,0.382c0.108,0.175,0.217,0.349,0.324,0.523c0.119,0.193,0.236,0.386,0.355,0.579
		c0.087,0.141,0.174,0.282,0.261,0.423c0.1,0.163,0.2,0.326,0.3,0.489c0.1,0.163,0.2,0.326,0.3,0.489
		c0.136,0.22,0.271,0.441,0.408,0.661c0.109,0.177,0.22,0.352,0.328,0.529c0.071,0.116,0.066,0.078,0.003,0.192
		c-0.093,0.167-0.192,0.331-0.288,0.496c-0.086,0.147-0.171,0.295-0.257,0.441c-0.117,0.199-0.234,0.398-0.351,0.597
		c-0.074,0.127-0.147,0.255-0.221,0.382c-0.109,0.187-0.22,0.374-0.329,0.562c-0.08,0.137-0.158,0.275-0.237,0.413
		c-0.068,0.117-0.138,0.233-0.206,0.35c-0.065,0.111-0.128,0.222-0.192,0.333c-0.066,0.113-0.133,0.225-0.199,0.338
		c-0.075,0.129-0.15,0.258-0.225,0.388c-0.078,0.135-0.157,0.27-0.236,0.405c-0.064,0.111-0.128,0.223-0.192,0.333
		c-0.068,0.117-0.138,0.233-0.206,0.35c-0.018,0.031-0.039,0.043-0.073,0.04c-0.016-0.002-0.033,0-0.049,0c-2.109,0-4.219,0-6.328,0
		c-0.125,0-0.094,0.017-0.154-0.091c-0.003-0.006-0.006-0.012-0.01-0.018c-0.056-0.094-0.052-0.067,0.001-0.162
		c0.076-0.137,0.157-0.27,0.235-0.406c0.064-0.111,0.127-0.223,0.19-0.335c0.015-0.026,0.03-0.053,0.045-0.079
		c0.018-0.03,0.021-0.031,0.056-0.018c0.169,0.062,0.337,0.124,0.506,0.185c0.243,0.089,0.486,0.178,0.729,0.268
		c0.123,0.045,0.245,0.092,0.368,0.136c0.081,0.029,0.077,0.035,0.119-0.041c0.108-0.196,0.218-0.391,0.328-0.586
		c0.106-0.187,0.213-0.373,0.318-0.56c0.076-0.134,0.15-0.269,0.225-0.403c0.072-0.128,0.145-0.256,0.217-0.384
		C16.067,9.61,16.074,9.601,16.086,9.583z"/>
	<path fill="#EF3724" d="M10.817,6.779c0.004,0.003,0.006,0.007,0.005,0.012c0.003,0.005,0.006,0.011,0.01,0.016
		c0.004,0.003,0.005,0.006,0.005,0.011c0.002,0.007,0.007,0.012,0.012,0.018l0.001,0.001c0.004,0.003,0.008,0.007,0.009,0.012
		c0.002,0.004,0.004,0.009,0.005,0.013c0.003,0.005,0.007,0.01,0.009,0.015c0.047,0.085,0.094,0.169,0.14,0.254
		c-0.004,0.261-0.001,0.522-0.002,0.783c-0.001,0.338,0,0.676-0.001,1.014c0,0.038,0.009,0.08-0.024,0.112
		c-0.006-0.007-0.013-0.014-0.017-0.021c-0.067-0.114-0.134-0.227-0.201-0.341c-0.05-0.086-0.101-0.171-0.151-0.257
		c-0.008-0.014-0.014-0.029-0.021-0.043c-0.04-0.094-0.052-0.192-0.052-0.293c0.001-0.938,0.001-1.875,0.001-2.813
		c0-0.077-0.004-0.154,0.022-0.228c0.097-0.165,0.193-0.329,0.29-0.494c0.021-0.036,0.042-0.073,0.063-0.109
		c0.018-0.03,0.02-0.031,0.056-0.017c0.06,0.025,0.121,0.05,0.181,0.075c0.219,0.093,0.437,0.186,0.656,0.28
		c0.011,0.005,0.022,0.009,0.032,0.014c0.016,0.008,0.019,0.017,0.01,0.034c-0.014,0.027-0.031,0.052-0.046,0.078
		c-0.109,0.192-0.219,0.385-0.328,0.577c-0.11,0.194-0.221,0.389-0.331,0.583c-0.084,0.148-0.169,0.295-0.254,0.443
		c-0.007,0.012-0.015,0.023-0.023,0.035c-0.004,0.005-0.007,0.011-0.01,0.016c0.001,0.005-0.001,0.009-0.005,0.012
		c-0.002,0.005-0.006,0.009-0.01,0.013l0,0c-0.005,0.005-0.01,0.011-0.012,0.018c0.001,0.004-0.001,0.008-0.005,0.01
		c-0.003,0.005-0.007,0.011-0.01,0.016c0.001,0.005-0.001,0.009-0.005,0.012c-0.002,0.005-0.006,0.01-0.009,0.014l0,0
		c-0.009,0.007-0.006,0.02-0.015,0.027l0,0.001c-0.005,0.006-0.011,0.012-0.012,0.021l0,0.003c0.005,0.01,0.003,0.023,0.012,0.032
		l0,0c0.004,0.004,0.007,0.008,0.009,0.013c0.002,0.005,0.004,0.009,0.006,0.014C10.811,6.769,10.814,6.774,10.817,6.779z"/>
	<path fill="#F04723" d="M11.646,8.279c0.004,0.002,0.005,0.005,0.004,0.009c0.001,0.008,0.006,0.014,0.011,0.02l0.001,0.001
		c0.009,0.006,0.006,0.02,0.014,0.026l0,0.001c0.004,0.004,0.007,0.008,0.009,0.013c0.004,0.002,0.006,0.006,0.006,0.011
		c0.001,0.007,0.006,0.012,0.011,0.018c0.004,0.002,0.005,0.005,0.004,0.009c0.001,0.008,0.006,0.014,0.011,0.02l0.001,0.001
		c0.009,0.007,0.006,0.02,0.014,0.027l0,0c0.004,0.004,0.007,0.008,0.009,0.013c0.002,0.005,0.004,0.009,0.006,0.014
		c0.004,0.005,0.007,0.009,0.009,0.015c0.004,0.003,0.006,0.007,0.005,0.012c0.003,0.005,0.006,0.011,0.01,0.016
		c0.004,0.003,0.005,0.007,0.005,0.011c0.002,0.007,0.006,0.011,0.01,0.017c0.004,0.002,0.005,0.006,0.004,0.01
		c0.001,0.007,0.006,0.013,0.011,0.018c0.004,0.002,0.005,0.005,0.004,0.009c0.001,0.009,0.006,0.014,0.011,0.02l0.001,0.001
		c0.004,0.003,0.007,0.007,0.009,0.012c0.005,0.002,0.007,0.006,0.006,0.011c0.001,0.007,0.006,0.012,0.01,0.017
		c0.005,0.008,0.011,0.015,0.016,0.023c0.071,0.129,0.141,0.258,0.212,0.386c0.111,0.2,0.223,0.399,0.334,0.598
		c0.075,0.134,0.148,0.27,0.222,0.404c0.112,0.202,0.225,0.403,0.336,0.605c0.026,0.047,0.05,0.095,0.076,0.142
		c0.013,0.023,0.014,0.042,0.001,0.065c-0.027,0.046-0.052,0.094-0.079,0.14c-0.086,0.15-0.172,0.299-0.258,0.448
		c-0.043,0.075-0.086,0.15-0.129,0.224c-0.01,0.018-0.02,0.019-0.03,0.003c-0.038-0.062-0.075-0.123-0.112-0.186
		c-0.112-0.188-0.225-0.376-0.336-0.565c-0.07-0.118-0.139-0.237-0.209-0.356c-0.115-0.194-0.231-0.388-0.347-0.583
		c-0.008-0.014-0.014-0.029-0.021-0.044c-0.027-0.133-0.018-0.269-0.018-0.403c-0.001-0.426,0-0.852,0-1.277
		c0-0.03-0.002-0.061,0.004-0.091c0.005-0.028,0.011-0.056,0.05-0.056l-0.001,0c0.001,0.008,0.007,0.011,0.011,0.017l0.001,0.001
		c0.009,0.006,0.006,0.019,0.014,0.026l0,0.001c0.008,0.007,0.005,0.02,0.015,0.027l0,0c0.004,0.004,0.007,0.009,0.009,0.014
		c0.002,0.004,0.004,0.009,0.005,0.013c0.003,0.005,0.007,0.01,0.01,0.015c0.004,0.003,0.006,0.007,0.005,0.012
		c0.003,0.006,0.006,0.011,0.01,0.016c0.004,0.003,0.005,0.006,0.005,0.011C11.637,8.268,11.642,8.273,11.646,8.279z"/>
	<path fill="#F04023" d="M13.961,8.501c-0.065-0.01-0.124-0.04-0.183-0.067c-0.176-0.08-0.32-0.199-0.423-0.364
		c-0.054-0.086-0.085-0.181-0.109-0.279c-0.03-0.121-0.038-0.244-0.028-0.368c0.012-0.16,0.053-0.313,0.135-0.451
		c0.077-0.13,0.177-0.24,0.295-0.334c0.013-0.01,0.025-0.02,0.036-0.03C13.683,6.59,13.67,6.582,13.66,6.574
		c-0.066-0.049-0.124-0.107-0.177-0.168c-0.083-0.096-0.146-0.205-0.172-0.332c-0.037-0.18-0.046-0.36-0.008-0.541
		c0.033-0.156,0.109-0.291,0.219-0.407c0.106-0.112,0.232-0.194,0.372-0.255c0.021-0.009,0.042-0.021,0.066-0.022
		c0.024,0.035,0.023,0.075,0.023,0.115c0.001,1.148,0,2.297,0,3.445C13.983,8.44,13.987,8.474,13.961,8.501z"/>
	<path fill="#F8BD22" d="M15.123,4.789c0.07,0.007,0.135,0.034,0.2,0.058c0.109,0.04,0.211,0.096,0.305,0.165
		c0.017,0.012,0.035,0.023,0.045,0.042c-0.004,0.03-0.008,0.06-0.008,0.09c0.001,0.45-0.004,0.899,0.002,1.349
		c0,0.012,0.002,0.023,0.003,0.035c-0.016,0.029-0.05,0.041-0.072,0.071c0.012,0.025,0.046,0.028,0.059,0.053
		c-0.008,0.044-0.006,0.088-0.006,0.132c0,0.454,0,0.909,0,1.363c0,0.049,0,0.098,0.017,0.145c-0.051,0.052-0.116,0.084-0.179,0.117
		c-0.086,0.046-0.178,0.079-0.272,0.106c-0.007,0.002-0.014,0.001-0.021,0.002C15.16,8.533,15.15,8.506,15.14,8.483
		c-0.011-0.024-0.01-0.05-0.01-0.076c0.001-0.247-0.004-0.494,0.003-0.741c0.004-0.061,0.037-0.114,0.047-0.174
		c0.024-0.14-0.001-0.267-0.093-0.379c-0.016-0.02-0.032-0.04-0.037-0.066c-0.01-0.199-0.002-0.399-0.005-0.598
		c-0.001-0.086,0.002-0.171-0.004-0.257c-0.002-0.029,0.01-0.054,0.023-0.079c0.071-0.131,0.082-0.267,0.038-0.408
		c-0.006-0.02-0.012-0.04-0.012-0.061c-0.007-0.256-0.002-0.511-0.002-0.767C15.088,4.846,15.08,4.806,15.123,4.789z"/>
	<path fill="#EE2B24" d="M10.568,5.042c0.005,0.013,0.015,0.025,0.009,0.04c-0.013,0.029-0.008,0.06-0.008,0.09
		c0,0.991,0,1.981-0.001,2.972c0,0.045,0.002,0.089,0.016,0.131c0.012,0.034,0.012,0.068,0.012,0.103
		C10.564,8.343,10.545,8.3,10.521,8.26c-0.131-0.22-0.262-0.441-0.392-0.661C10.06,7.483,9.992,7.366,9.923,7.25
		C9.818,7.071,9.712,6.893,9.607,6.714C9.602,6.706,9.598,6.698,9.592,6.687C9.634,6.613,9.676,6.538,9.72,6.464
		c0.077-0.13,0.155-0.26,0.233-0.39c0.117-0.196,0.234-0.392,0.35-0.588c0.08-0.134,0.158-0.269,0.237-0.404
		C10.548,5.068,10.553,5.052,10.568,5.042z"/>
	<path fill="#F26623" d="M13.961,8.501c0-0.03-0.001-0.061-0.001-0.091c0-1.148,0-2.296,0.001-3.444
		c0-0.039-0.011-0.078-0.002-0.117c0.003-0.004,0.007-0.005,0.011-0.004c0.006-0.002,0.011-0.004,0.016-0.008
		c0.086-0.035,0.175-0.059,0.267-0.071c0.013,0.026,0.008,0.055,0.008,0.082c0,0.183,0,0.366,0,0.548c0,0.04,0.001,0.079,0.02,0.115
		c0.015,0.03-0.005,0.047-0.022,0.067c-0.036,0.04-0.067,0.084-0.088,0.134c-0.006,0.012-0.01,0.024-0.012,0.036
		c-0.002,0.01-0.004,0.019-0.006,0.028c-0.005,0.016-0.006,0.032-0.005,0.049c0,0.032,0,0.063,0.001,0.095
		c-0.001,0.018,0.003,0.035,0.009,0.052c0.024,0.1,0.075,0.183,0.15,0.253c0.043,0.04,0.09,0.063,0.15,0.061
		c0.058-0.002,0.116-0.003,0.174,0.001c0.022,0.001,0.053-0.007,0.059,0.03c-0.028,0.029-0.065,0.021-0.099,0.023
		c-0.085,0.003-0.09,0.006-0.09,0.093c-0.001,0.138,0,0.275,0,0.413c0,0.033,0.002,0.065-0.006,0.097
		c-0.006,0.02-0.02,0.031-0.04,0.033c-0.129,0.012-0.219,0.09-0.304,0.177c-0.006,0.006-0.013,0.013-0.018,0.019
		c-0.003,0.005-0.006,0.009-0.009,0.013c-0.004,0.007-0.008,0.013-0.011,0.02c-0.002,0.005-0.004,0.009-0.006,0.014
		C14.103,7.23,14.1,7.239,14.098,7.249c-0.001,0.005-0.003,0.011-0.004,0.016c-0.004,0.014-0.005,0.028-0.005,0.042
		c0,0.013-0.002,0.025-0.005,0.037c-0.009,0.035-0.009,0.07,0,0.105c0.003,0.012,0.005,0.025,0.005,0.038
		c0.001,0.015,0.002,0.03,0.006,0.045c0.002,0.008,0.004,0.017,0.005,0.025c0.002,0.011,0.004,0.021,0.007,0.031
		c0.002,0.005,0.003,0.01,0.005,0.015c0.003,0.01,0.006,0.02,0.01,0.029c0.003,0.005,0.005,0.009,0.008,0.014
		c0.005,0.007,0.011,0.014,0.017,0.02c0.04,0.055,0.087,0.103,0.147,0.137c0.024,0.013,0.042,0.03,0.03,0.062
		C14.31,7.988,14.32,8.109,14.319,8.23c-0.002,0.114-0.004,0.228,0.006,0.342c-0.086-0.003-0.17-0.017-0.252-0.042
		c-0.014-0.011-0.032-0.002-0.046-0.012l-0.005,0.001l-0.005-0.003c-0.012-0.012-0.032-0.001-0.044-0.013l-0.006,0L13.961,8.501z"/>
	<path fill="#EF3824" d="M11.552,8.108c-0.02,0.011-0.031,0.027-0.031,0.051c0.001,0.019,0,0.037,0,0.056c0,0.516,0,1.031,0,1.547
		c0,0.039-0.003,0.079,0.011,0.118c0.007,0.019,0.007,0.042-0.016,0.056c-0.007-0.009-0.015-0.018-0.021-0.027
		c-0.115-0.194-0.229-0.389-0.344-0.584c-0.055-0.094-0.111-0.189-0.166-0.283c0.001-0.03,0.002-0.061,0.002-0.091
		c0-0.574,0-1.148,0-1.722c0-0.019,0-0.037,0-0.056c0-0.018,0.009-0.031,0.024-0.04c0.017,0.03,0.035,0.06,0.052,0.091
		c0.108,0.195,0.216,0.391,0.324,0.586C11.444,7.908,11.498,8.008,11.552,8.108z"/>
	<path fill="#F8BB22" d="M18.066,4.79c0.068,0.006,0.13,0.034,0.193,0.059c0.084,0.035,0.163,0.08,0.232,0.14
		c0.009,0.007,0.015,0.017,0.023,0.025c-0.008,0.286-0.002,0.573-0.003,0.859c-0.001,0.235,0,0.47,0,0.706
		c0,0.044-0.002,0.089,0.018,0.13c-0.027,0.052-0.065,0.096-0.102,0.141c-0.091,0.109-0.189,0.212-0.289,0.313
		c-0.013,0.013-0.028,0.024-0.042,0.036c-0.035,0.017-0.046-0.01-0.055-0.034c-0.009-0.024-0.008-0.051-0.008-0.076
		c0-0.732-0.001-1.464,0.001-2.197C18.032,4.857,18.018,4.811,18.066,4.79z"/>
	<path fill="#F37423" d="M17.097,7.183c0.054-0.054,0.109-0.109,0.163-0.163c0.12-0.118,0.237-0.238,0.35-0.363
		c0.006-0.007,0.014-0.012,0.021-0.018c0.028,0.023,0.034,0.057,0.034,0.089c0.003,0.289,0.01,0.577-0.004,0.866
		c-0.029,0.039-0.068,0.069-0.104,0.101c-0.029,0.026-0.059,0.05-0.083,0.08c0.009,0.017,0.022,0.012,0.032,0.012
		c0.079,0.002,0.157,0.002,0.236,0.003c-0.008,0.22-0.002,0.44-0.006,0.659c0,0.021-0.004,0.042-0.021,0.057
		c-0.189,0.007-0.378,0.001-0.567,0.004c-0.036,0.001-0.05-0.017-0.055-0.049c-0.003-0.019-0.003-0.037-0.003-0.056
		c-0.003-0.389,0.006-0.779-0.005-1.168C17.087,7.218,17.092,7.201,17.097,7.183z"/>
	<path fill="#F59422" d="M17.662,7.594c-0.009-0.008-0.015-0.018-0.015-0.03c0-0.019,0-0.037,0-0.056c0-0.216,0-0.432,0-0.648
		c0-0.037,0.002-0.074-0.001-0.111c-0.002-0.037-0.009-0.073-0.014-0.11c0,0,0.001-0.001,0.001-0.001
		c0.006-0.003,0.01-0.008,0.013-0.014l0,0c0.007-0.003,0.012-0.008,0.013-0.016c0.003-0.004,0.006-0.008,0.009-0.012
		c0-0.005,0.002-0.008,0.008-0.008l0.003-0.004c0.002-0.005,0.005-0.009,0.01-0.011c0.052-0.066,0.101-0.133,0.149-0.202
		c0.084-0.123,0.136-0.259,0.154-0.406c0.01-0.08-0.002-0.157-0.032-0.232c-0.007-0.017-0.013-0.035-0.02-0.052
		c0-0.009-0.006-0.015-0.013-0.02l0,0.001c-0.004-0.005-0.008-0.01-0.012-0.015l-0.001-0.002c-0.005-0.002-0.008-0.006-0.01-0.011
		c-0.011-0.011-0.022-0.022-0.033-0.033c-0.005-0.001-0.009-0.005-0.011-0.01l-0.002-0.002c-0.005-0.003-0.01-0.007-0.015-0.011l0,0
		c-0.005-0.007-0.011-0.013-0.021-0.013l-0.004,0L17.815,5.56c-0.006-0.004-0.011-0.009-0.019-0.011
		c-0.004,0.001-0.007,0-0.01-0.004c-0.006-0.003-0.011-0.009-0.018-0.01l-0.005,0l-0.004-0.004c-0.008-0.006-0.02-0.004-0.028-0.012
		l0,0c-0.049-0.028-0.049-0.076-0.05-0.123c-0.001-0.187-0.001-0.373,0-0.56c0.001-0.095,0.009-0.101,0.108-0.09
		c0.039-0.002,0.078-0.001,0.115,0.01c0.004,0.001,0.007,0.002,0.01,0.003c0.025-0.001,0.05,0.002,0.074,0.01
		c0.003,0.002,0.007,0.003,0.01,0.004c0.023,0.001,0.047,0.001,0.068,0.016c-0.008,0.009-0.013,0.019-0.013,0.032
		c0,0.019,0,0.037,0,0.056c0,0.742,0,1.484,0,2.226c0,0.019,0,0.037,0.001,0.056c0.001,0.025,0.014,0.038,0.04,0.04
		c-0.015,0.027-0.039,0.046-0.061,0.066c-0.058,0.054-0.117,0.107-0.176,0.16c-0.007,0.006-0.016,0.009-0.024,0.014
		c-0.007,0.003-0.013,0.008-0.017,0.015l0.001-0.001c-0.006,0.003-0.011,0.008-0.015,0.015l0.001-0.001
		c-0.006,0.004-0.011,0.009-0.015,0.014l0,0c-0.006,0.004-0.01,0.009-0.015,0.014l0,0c-0.005,0.004-0.009,0.009-0.014,0.014l0,0
		c-0.004,0.005-0.009,0.009-0.014,0.013l-0.001,0.001c-0.004,0.005-0.008,0.009-0.014,0.013l-0.001,0.001
		c-0.003,0.005-0.008,0.009-0.013,0.012L17.715,7.55c-0.002,0.005-0.006,0.009-0.012,0.011c-0.002,0.004-0.005,0.006-0.009,0.005
		c-0.008,0.002-0.014,0.007-0.018,0.015l0.001-0.001C17.67,7.583,17.665,7.587,17.662,7.594L17.662,7.594z"/>
	<path fill="#EF3924" d="M17.097,7.183c0.021,0.059,0.017,0.119,0.017,0.18c0,0.348,0,0.696,0,1.043c0,0.019,0,0.037,0,0.056
		c0.001,0.034,0.006,0.04,0.043,0.04c0.128,0.001,0.257,0.001,0.385,0.001c0.058,0,0.117-0.001,0.175-0.002
		c0.023-0.02,0.051-0.02,0.079-0.02c0.174,0,0.347-0.003,0.521,0.001c0.156-0.003,0.312-0.001,0.468-0.001
		c0.03,0,0.062-0.003,0.084,0.024c-0.006,0.003-0.011,0.009-0.017,0.01c-0.019,0.001-0.037,0.001-0.056,0.001
		c-0.761,0-1.522-0.001-2.282-0.001c-0.1,0-0.092,0.012-0.092-0.088c0-0.18,0.001-0.359-0.001-0.539c0-0.044,0.01-0.077,0.045-0.109
		c0.169-0.157,0.334-0.319,0.501-0.479C17.01,7.26,17.054,7.222,17.097,7.183z"/>
	<path fill="#FBDF21" d="M15.668,8.292C15.646,8.29,15.632,8.28,15.63,8.258c-0.002-0.018-0.001-0.037-0.001-0.056
		c0-0.489,0-0.978,0-1.468c0-0.019,0-0.037,0.001-0.056c0.001-0.017,0.014-0.022,0.028-0.027c0,0,0.002,0.001,0.002,0.001
		c0.002,0.008,0.008,0.012,0.016,0.011c0.004,0.003,0.008,0.005,0.012,0.008c0.004,0.002,0.007,0.005,0.01,0.008L15.7,6.684
		c0.004,0.004,0.008,0.008,0.012,0.01l0.002,0.002c0.003,0.006,0.007,0.009,0.014,0.011c0.005,0.003,0.01,0.006,0.015,0.01
		c0.002,0.002,0.005,0.004,0.007,0.006l0.004,0.001l0.001,0.004c0.004,0.002,0.007,0.006,0.01,0.009l0.004,0l0.001,0.003
		c0.004,0.003,0.007,0.006,0.01,0.01l0.004,0.004c0.004,0.003,0.007,0.006,0.01,0.01l0.004,0.004c0.004,0.003,0.007,0.007,0.01,0.01
		l0.004,0.004c0.004,0.003,0.007,0.006,0.01,0.01c0.055,0.051,0.098,0.111,0.132,0.178c0.065,0.126,0.099,0.26,0.106,0.402
		c0.006,0.114,0.002,0.229-0.026,0.34c-0.038,0.157-0.094,0.307-0.208,0.427c-0.006,0.004-0.012,0.009-0.014,0.016l0.001-0.001
		C15.806,8.157,15.8,8.162,15.799,8.17L15.8,8.169c-0.012,0.002-0.009,0.018-0.019,0.022l-0.003,0.003
		c-0.002,0.006-0.005,0.01-0.011,0.011l-0.003,0.003c-0.002,0.006-0.005,0.01-0.011,0.011l-0.002,0.002
		c-0.005,0.01-0.019,0.007-0.024,0.017l0.001-0.001c-0.007,0.003-0.012,0.008-0.015,0.014l0.001-0.001
		c-0.006,0.003-0.011,0.008-0.015,0.014l0,0c-0.005,0.004-0.01,0.008-0.015,0.013l-0.001,0.001C15.68,8.284,15.675,8.288,15.67,8.29
		L15.668,8.292z"/>
	<path fill="#F7A222" d="M18.32,8.502c-0.03,0.001-0.061,0.002-0.091,0.002c-0.17-0.001-0.341-0.002-0.511-0.003
		c0-0.204,0-0.408-0.002-0.612c0-0.037,0.013-0.067,0.027-0.099c0.03-0.001,0.061-0.003,0.091-0.003
		c0.142-0.001,0.285-0.001,0.427-0.001c0.023,0,0.046,0.002,0.07,0.003c0.02,0.229,0.013,0.459,0.003,0.688
		C18.334,8.487,18.327,8.495,18.32,8.502z"/>
	<path fill="#F59222" d="M15.123,4.789c-0.019,0.019-0.013,0.044-0.013,0.066c0,0.141,0,0.283,0,0.424
		c0,0.128-0.001,0.255-0.001,0.383c-0.013,0.001-0.023-0.005-0.03-0.015C15,5.526,14.879,5.477,14.743,5.453
		c-0.011-0.002-0.023-0.005-0.034-0.008c-0.021-0.004-0.042-0.003-0.063-0.003c-0.106-0.002-0.118-0.012-0.119-0.116
		c-0.001-0.166-0.001-0.331,0-0.497c0-0.032-0.003-0.066,0.021-0.093c0.102-0.01,0.203-0.005,0.304,0.004
		c0.08,0.007,0.16,0.019,0.239,0.038C15.103,4.779,15.114,4.78,15.123,4.789z"/>
	<path fill="#FBDE21" d="M18.528,6.709c-0.038-0.007-0.038-0.007-0.04-0.035c-0.001-0.014,0-0.028,0-0.042c0-0.513,0-1.027,0-1.54
		c0-0.019,0-0.037,0.002-0.056c0.001-0.013,0.013-0.018,0.024-0.022c0,0,0.003,0.003,0.003,0.003
		c0.004,0.003,0.008,0.006,0.011,0.01l0.003,0.003c0.004,0.004,0.008,0.008,0.012,0.011l0.002,0.002
		c0.003,0.005,0.007,0.009,0.012,0.012l0.002,0.002c0.003,0.005,0.007,0.009,0.011,0.012l0.003,0.003
		c0.004,0.004,0.007,0.008,0.01,0.012l0.003,0.004c0.004,0.002,0.007,0.005,0.009,0.009c0.01,0.007,0.018,0.016,0.021,0.029
		c0.003,0.005,0.006,0.01,0.01,0.014l0.002,0.004c0.004,0.002,0.007,0.005,0.008,0.01c0.003,0.004,0.005,0.009,0.008,0.013
		c0.002,0.006,0.005,0.011,0.01,0.015c0.05,0.06,0.075,0.133,0.099,0.206c0.03,0.091,0.046,0.185,0.052,0.28
		c0.013,0.201,0.003,0.4-0.051,0.595c-0.023,0.083-0.048,0.165-0.098,0.237c-0.009,0.007-0.006,0.02-0.014,0.028l0,0
		c-0.008,0.007-0.005,0.02-0.015,0.027l0,0.001c-0.005,0.006-0.01,0.012-0.012,0.02c0.001,0.004,0,0.007-0.004,0.008
		c-0.004,0.005-0.007,0.011-0.011,0.016l0.001-0.001c-0.01,0.006-0.007,0.02-0.016,0.027l0,0c-0.005,0.006-0.011,0.011-0.012,0.019
		c0.001,0.004-0.001,0.007-0.005,0.009c-0.003,0.005-0.006,0.01-0.011,0.015l0,0c-0.006,0.005-0.011,0.011-0.013,0.019
		c0,0.005-0.001,0.007-0.006,0.008c-0.002,0.006-0.005,0.01-0.01,0.012L18.528,6.709z"/>
	<path fill="#FBDA21" d="M18.32,8.502c0-0.212,0-0.424-0.001-0.637c0-0.026,0-0.051,0.012-0.075
		c0.032-0.001,0.065-0.003,0.097-0.003c0.137-0.001,0.275-0.001,0.412-0.001c0.031,0,0.036,0.005,0.036,0.037
		c0.001,0.114,0,0.228,0,0.342c0,0.093,0,0.186,0,0.279c0,0.021,0.004,0.042-0.006,0.062C18.687,8.504,18.504,8.503,18.32,8.502z"/>
	<path fill="#FBE121" d="M15.67,6.528c-0.015-0.008-0.026-0.02-0.027-0.038c-0.001-0.019-0.001-0.037-0.001-0.056
		c0-0.431,0-0.861,0-1.292c0-0.019,0-0.037,0.001-0.056c0-0.02,0.014-0.028,0.031-0.033c0.004,0.003,0.009,0.007,0.013,0.01
		c0.002,0.002,0.005,0.004,0.007,0.007c0.004,0,0.006,0.001,0.006,0.005c0.005,0.001,0.008,0.004,0.009,0.009l0.004,0.001
		l0.001,0.004c0.005,0.001,0.008,0.004,0.009,0.009l0.004,0.001l0.001,0.004c0.005,0.001,0.008,0.004,0.01,0.009l0.004,0
		l0.001,0.004c0.004,0.003,0.007,0.006,0.01,0.01l0.004,0.004c0.004,0.003,0.007,0.007,0.01,0.01l0.004,0.004
		c0.004,0.003,0.007,0.006,0.009,0.01l0.004,0.001l0,0.004c0.005,0,0.007,0.003,0.007,0.008c0.01,0.008,0.019,0.017,0.022,0.03
		c0.003,0.005,0.006,0.009,0.01,0.013l0.003,0.004c0.004,0.002,0.007,0.005,0.008,0.009c0.088,0.108,0.135,0.233,0.155,0.368
		c0.025,0.176,0.018,0.353-0.023,0.527c-0.024,0.104-0.074,0.195-0.15,0.271c-0.012,0.003-0.011,0.018-0.02,0.024l-0.002,0.002
		c-0.002,0.006-0.006,0.01-0.012,0.012L15.78,6.429c-0.002,0.006-0.006,0.01-0.012,0.012l-0.002,0.002
		c-0.002,0.006-0.006,0.01-0.012,0.012l-0.002,0.002c-0.005,0.01-0.02,0.006-0.024,0.018l0.001-0.001
		c-0.008,0.002-0.012,0.007-0.015,0.015l0.001-0.001c-0.007,0.003-0.012,0.008-0.015,0.014L15.7,6.501
		c-0.007,0.003-0.011,0.008-0.015,0.014l0,0C15.68,6.518,15.675,6.523,15.67,6.528L15.67,6.528z"/>
	<path fill="#F69922" d="M15.152,7.65c0,0.254,0,0.509,0,0.763c0,0.019-0.001,0.038,0.002,0.056
		c0.004,0.024,0.013,0.045,0.042,0.049c-0.019,0.015-0.043,0.015-0.066,0.02c-0.083,0.018-0.167,0.039-0.253,0.037
		c-0.053,0.016-0.108-0.005-0.16,0.012c-0.023,0.004-0.045,0.004-0.068,0c-0.018-0.018-0.022-0.04-0.023-0.064
		c-0.001-0.188-0.002-0.376,0.001-0.564c0.001-0.034,0.011-0.065,0.047-0.078c0.022-0.011,0.047-0.012,0.071-0.013
		c0.014-0.001,0.029-0.002,0.043-0.006c0.134-0.029,0.256-0.079,0.335-0.199C15.129,7.652,15.138,7.644,15.152,7.65z"/>
	<path fill="#EF3224" d="M17.02,5.493c-0.012,0.009-0.026,0.009-0.04,0.01c-0.149,0.012-0.296,0.032-0.444,0.054
		c-0.007,0.001-0.014,0.002-0.021,0.002c-0.01,0-0.019-0.004-0.021-0.014c-0.003-0.013-0.006-0.027-0.007-0.041
		c-0.012-0.186-0.023-0.372-0.034-0.558c-0.001-0.009-0.001-0.019-0.001-0.028c0-0.031,0.002-0.037,0.033-0.043
		c0.094-0.019,0.187-0.039,0.281-0.056c0.059-0.011,0.118-0.026,0.179-0.026c0.018,0.043,0.008,0.087,0.008,0.131
		c0.001,0.147,0.003,0.293-0.001,0.44C16.951,5.422,16.962,5.468,17.02,5.493z"/>
	<path fill="#F25D23" d="M17.02,5.493c-0.007-0.001-0.014-0.002-0.021-0.002c-0.068,0.001-0.067-0.002-0.067-0.072
		c0-0.184,0-0.368,0-0.552c0-0.026-0.001-0.051,0.013-0.074c0.05-0.008,0.1-0.019,0.151-0.024c0.094-0.009,0.188-0.027,0.283-0.022
		c0.028,0.028,0.023,0.064,0.023,0.099c0.001,0.16,0.001,0.32,0,0.481c0,0.058-0.002,0.113,0.069,0.132
		c0.008,0.002,0.007,0.011,0.008,0.018c-0.005,0.001-0.009,0.002-0.014,0.002c-0.128-0.003-0.255,0.004-0.383,0.013
		C17.062,5.493,17.041,5.492,17.02,5.493z"/>
	<path fill="#F37223" d="M14.688,7.89c-0.027,0.012-0.042,0.027-0.042,0.062c0.002,0.212,0.002,0.423,0.002,0.635
		c-0.108,0.006-0.216,0.005-0.324-0.014c-0.017-0.016-0.029-0.033-0.029-0.059c0.001-0.208,0.001-0.417,0.001-0.625
		c0-0.023,0.004-0.042,0.031-0.045c0.008-0.006,0.016-0.011,0.025-0.009c0.102,0.018,0.203,0.036,0.307,0.038
		C14.672,7.872,14.682,7.88,14.688,7.89z"/>
	<path fill="#F48023" d="M17.479,5.476c-0.014-0.017-0.034-0.012-0.052-0.013c-0.044-0.003-0.045-0.004-0.046-0.051
		c0-0.016,0-0.033,0-0.049c0-0.18,0-0.359,0-0.539c0-0.026-0.001-0.051-0.002-0.077c0.014-0.003,0.027-0.008,0.041-0.008
		c0.11-0.005,0.219-0.006,0.329-0.001c0.014,0.001,0.028,0.001,0.04,0.009c-0.087,0.008-0.086-0.014-0.086,0.089
		c0,0.188,0.001,0.376-0.001,0.564c0,0.043,0.006,0.083,0.028,0.119C17.648,5.5,17.564,5.485,17.479,5.476z"/>
	<path fill="#F36A23" d="M14.548,4.735c0,0.193,0.001,0.386,0.001,0.58c0,0.12-0.012,0.104,0.103,0.106
		c0.027,0.001,0.056-0.009,0.08,0.013c-0.017,0.021-0.041,0.021-0.064,0.02c-0.123-0.004-0.24,0.018-0.35,0.076
		c-0.012,0.006-0.026,0.012-0.039,0.002c-0.028-0.017-0.039-0.041-0.039-0.075c0.001-0.211,0.001-0.421,0-0.632
		c0-0.021,0.002-0.041,0.014-0.06C14.351,4.744,14.448,4.73,14.548,4.735z"/>
	<path fill="#C1951B" d="M19.02,2.76c0.107,0.188,0.215,0.377,0.322,0.565c0.147,0.257,0.293,0.515,0.44,0.772
		c0.087,0.152,0.174,0.303,0.261,0.455c0.147,0.257,0.293,0.515,0.439,0.772c0.092,0.162,0.185,0.324,0.278,0.486
		c0.139,0.243,0.277,0.486,0.416,0.729c0.007,0.012,0.014,0.024,0.019,0.037c0.001,0.003-0.001,0.009-0.003,0.013
		c-0.006,0.009-0.012,0.002-0.016-0.003c-0.007-0.009-0.013-0.019-0.019-0.029c-0.071-0.126-0.142-0.252-0.214-0.377
		c-0.143-0.251-0.286-0.503-0.429-0.754c-0.091-0.16-0.183-0.32-0.274-0.48c-0.142-0.249-0.284-0.499-0.426-0.748
		c-0.091-0.16-0.183-0.32-0.274-0.48c-0.141-0.247-0.282-0.494-0.423-0.741c-0.038-0.067-0.075-0.134-0.113-0.201
		C18.999,2.761,19.006,2.758,19.02,2.76z"/>
	<path fill="#C9651D" d="M15.01,2.13c0.004,0.001,0.011,0,0.013,0.003c0.016,0.02,0.032,0.04,0.047,0.061
		c0.122,0.179,0.244,0.359,0.366,0.538c0.142,0.208,0.284,0.416,0.427,0.623c0.065,0.094,0.13,0.188,0.194,0.282
		c0.009,0.013,0.022,0.025,0.022,0.043c0,0.004-0.003,0.008-0.006,0.012c-0.001,0.001-0.005,0-0.006-0.001
		c-0.006-0.006-0.013-0.013-0.019-0.02c-0.064-0.092-0.128-0.184-0.191-0.276c-0.076-0.112-0.152-0.224-0.228-0.336
		c-0.142-0.208-0.284-0.416-0.426-0.624c-0.059-0.087-0.12-0.172-0.18-0.258c-0.008-0.011-0.014-0.024-0.02-0.036
		C15.004,2.138,15.008,2.134,15.01,2.13z"/>
	<path fill="#8A6014" d="M19.02,2.76c-0.005,0.005-0.01,0.011-0.015,0.016c-0.017-0.023-0.035-0.039-0.064-0.05
		c-0.31-0.117-0.618-0.237-0.927-0.355c-0.185-0.071-0.37-0.141-0.555-0.212c-0.013-0.005-0.026-0.01-0.039-0.016
		c-0.003-0.002-0.005-0.007-0.007-0.011c0.004-0.002,0.008-0.007,0.01-0.006c0.013,0.004,0.027,0.008,0.04,0.013
		c0.348,0.133,0.697,0.265,1.045,0.398c0.152,0.058,0.304,0.118,0.457,0.175C18.99,2.723,19.013,2.731,19.02,2.76z"/>
	<path fill="#F37223" d="M14.717,8.586c0.01-0.011,0.023-0.013,0.037-0.013c0.041,0,0.082,0.001,0.123,0.001
		C14.825,8.592,14.771,8.589,14.717,8.586z"/>
	<path fill="#F04023" d="M13.973,8.503c0.016-0.001,0.033-0.003,0.044,0.013C14.001,8.518,13.986,8.515,13.973,8.503z"/>
	<path fill="#F04023" d="M14.027,8.518c0.017-0.001,0.034-0.004,0.046,0.012C14.056,8.532,14.04,8.531,14.027,8.518z"/>
	<path fill="#F48023" d="M17.731,5.52c0.011-0.001,0.021,0.002,0.028,0.012C17.748,5.533,17.739,5.528,17.731,5.52z"/>
	<path fill="#EE2B24" d="M10.792,6.681c0.001-0.011,0.003-0.022,0.015-0.027C10.807,6.666,10.802,6.675,10.792,6.681z"/>
	<path fill="#F8BD22" d="M15.795,6.413c0.001-0.012,0.007-0.021,0.02-0.024C15.813,6.4,15.806,6.408,15.795,6.413z"/>
	<path fill="#F8BD22" d="M15.728,6.475c0.003-0.013,0.012-0.017,0.024-0.018C15.748,6.468,15.74,6.473,15.728,6.475z"/>
	<path fill="#F8BB22" d="M18.586,6.626c0-0.012,0.004-0.022,0.016-0.027C18.602,6.611,18.596,6.62,18.586,6.626z"/>
	<path fill="#EF3824" d="M11.577,8.153c-0.011-0.006-0.013-0.015-0.014-0.026C11.573,8.133,11.578,8.142,11.577,8.153z"/>
	<path fill="#EF3824" d="M11.592,8.181c-0.012-0.005-0.014-0.016-0.015-0.027C11.588,8.16,11.592,8.169,11.592,8.181z"/>
	<path fill="#F8BD22" d="M15.781,8.192c0.001-0.012,0.006-0.021,0.019-0.022C15.799,8.181,15.792,8.188,15.781,8.192z"/>
	<path fill="#F8BD22" d="M15.728,8.239c0.003-0.012,0.012-0.017,0.024-0.017C15.747,8.233,15.739,8.238,15.728,8.239z"/>
	<path fill="#EF3824" d="M11.676,8.335c-0.011-0.005-0.014-0.015-0.014-0.026C11.671,8.315,11.676,8.324,11.676,8.335z"/>
	<path fill="#EE2B24" d="M10.793,6.738c-0.013-0.007-0.014-0.019-0.012-0.032C10.784,6.716,10.789,6.727,10.793,6.738z"/>
	<path fill="#F8BB22" d="M18.642,6.528c-0.001-0.012,0.003-0.022,0.014-0.028C18.657,6.512,18.652,6.521,18.642,6.528z"/>
	<path fill="#F8BB22" d="M18.627,6.555c0-0.012,0.003-0.022,0.015-0.027C18.643,6.54,18.637,6.549,18.627,6.555z"/>
	<path fill="#EF3824" d="M11.732,8.433c-0.011-0.005-0.014-0.016-0.014-0.027C11.727,8.413,11.732,8.421,11.732,8.433z"/>
	<path fill="#F48023" d="M17.797,5.549c0.008,0,0.014,0.004,0.019,0.011C17.807,5.56,17.801,5.556,17.797,5.549z"/>
	<path fill="#F48023" d="M17.822,5.563c0.009,0.001,0.016,0.005,0.021,0.013C17.833,5.576,17.826,5.571,17.822,5.563z"/>
	<path fill="#F48023" d="M17.843,5.576c0.005,0.004,0.01,0.007,0.015,0.011C17.85,5.587,17.845,5.583,17.843,5.576z"/>
	<path fill="#F48023" d="M17.86,5.589c0.004,0.003,0.007,0.006,0.011,0.01C17.865,5.598,17.861,5.595,17.86,5.589z"/>
	<path fill="#F48023" d="M17.904,5.632c0.003,0.004,0.007,0.008,0.01,0.011C17.908,5.642,17.904,5.638,17.904,5.632z"/>
	<path fill="#F48023" d="M17.915,5.645c0.004,0.005,0.008,0.01,0.012,0.015C17.919,5.658,17.916,5.653,17.915,5.645z"/>
	<path fill="#F48023" d="M17.927,5.66c0.008,0.004,0.012,0.011,0.013,0.02C17.932,5.676,17.927,5.669,17.927,5.66z"/>
	<path fill="#F8BD22" d="M15.782,6.427c0.004-0.004,0.008-0.008,0.012-0.012C15.793,6.422,15.789,6.426,15.782,6.427z"/>
	<path fill="#F8BD22" d="M15.768,6.441c0.004-0.004,0.008-0.008,0.012-0.012C15.779,6.436,15.775,6.44,15.768,6.441z"/>
	<path fill="#F8BD22" d="M15.754,6.455c0.004-0.004,0.008-0.008,0.012-0.012C15.765,6.45,15.761,6.454,15.754,6.455z"/>
	<path fill="#F8BD22" d="M15.714,6.488c0.002-0.008,0.007-0.013,0.015-0.015C15.728,6.482,15.723,6.487,15.714,6.488z"/>
	<path fill="#F8BD22" d="M15.699,6.502c0.002-0.008,0.007-0.013,0.015-0.014C15.714,6.496,15.708,6.501,15.699,6.502z"/>
	<path fill="#F8BD22" d="M15.671,6.528c0.002-0.007,0.007-0.012,0.015-0.013C15.684,6.523,15.679,6.527,15.671,6.528z"/>
	<path fill="#EE2B24" d="M10.864,6.559c0.003-0.005,0.007-0.011,0.01-0.016C10.874,6.55,10.871,6.556,10.864,6.559z"/>
	<path fill="#F8BB22" d="M18.616,6.575c0-0.009,0.004-0.015,0.012-0.02C18.628,6.565,18.624,6.571,18.616,6.575z"/>
	<path fill="#EE2B24" d="M10.849,6.584c0.003-0.004,0.007-0.009,0.01-0.013C10.859,6.578,10.855,6.582,10.849,6.584z"/>
	<path fill="#F37423" d="M17.688,6.572c-0.003,0.004-0.007,0.008-0.01,0.011C17.678,6.577,17.682,6.573,17.688,6.572z"/>
	<path fill="#EE2B24" d="M10.836,6.602c0.001-0.008,0.005-0.014,0.012-0.018C10.848,6.592,10.843,6.598,10.836,6.602z"/>
	<path fill="#F37423" d="M17.675,6.588c-0.001,0.004-0.004,0.007-0.008,0.008C17.667,6.591,17.67,6.588,17.675,6.588z"/>
	<path fill="#F8BB22" d="M18.601,6.6c0-0.008,0.004-0.013,0.011-0.016C18.612,6.592,18.609,6.597,18.601,6.6z"/>
	<path fill="#EE2B24" d="M10.822,6.629c0.003-0.005,0.007-0.011,0.01-0.016C10.832,6.62,10.828,6.625,10.822,6.629z"/>
	<path fill="#F37423" d="M17.658,6.608c-0.001,0.008-0.005,0.014-0.013,0.016C17.646,6.617,17.651,6.611,17.658,6.608z"/>
	<path fill="#F37423" d="M17.645,6.625c-0.001,0.008-0.005,0.012-0.013,0.014C17.633,6.631,17.637,6.626,17.645,6.625z"/>
	<path fill="#F8BB22" d="M18.573,6.645c0-0.009,0.004-0.015,0.012-0.019C18.586,6.635,18.582,6.641,18.573,6.645z"/>
	<path fill="#EE2B24" d="M10.807,6.655c0.003-0.005,0.006-0.009,0.009-0.014C10.817,6.648,10.813,6.652,10.807,6.655z"/>
	<path fill="#F8BD22" d="M15.675,6.664c-0.008,0.001-0.014-0.003-0.016-0.011C15.667,6.653,15.672,6.656,15.675,6.664z"/>
	<path fill="#F8BB22" d="M18.558,6.668c0-0.007,0.004-0.012,0.011-0.014C18.569,6.662,18.566,6.666,18.558,6.668z"/>
	<path fill="#F8BD22" d="M15.696,6.681c-0.003-0.003-0.007-0.006-0.01-0.008C15.693,6.671,15.696,6.674,15.696,6.681z"/>
	<path fill="#F8BB22" d="M18.545,6.687c0-0.009,0.005-0.015,0.013-0.019C18.558,6.677,18.554,6.684,18.545,6.687z"/>
	<path fill="#EE2B24" d="M10.78,6.702c0-0.009,0.004-0.016,0.012-0.021C10.792,6.691,10.788,6.698,10.78,6.702z"/>
	<path fill="#F8BD22" d="M15.713,6.694c-0.007,0-0.011-0.004-0.012-0.01C15.708,6.683,15.712,6.686,15.713,6.694z"/>
	<path fill="#F8BD22" d="M15.728,6.707c-0.008,0-0.012-0.004-0.014-0.011C15.723,6.696,15.727,6.699,15.728,6.707z"/>
	<path fill="#F8BB22" d="M18.529,6.707c0.003-0.004,0.007-0.008,0.01-0.012C18.54,6.703,18.536,6.706,18.529,6.707z"/>
	<path fill="#F8BD22" d="M15.751,6.723c-0.004,0-0.007-0.002-0.007-0.006c0,0,0.006,0.001,0.006,0.001L15.751,6.723z"/>
	<path fill="#F8BD22" d="M15.766,6.737c-0.003-0.003-0.007-0.006-0.01-0.009C15.763,6.727,15.766,6.73,15.766,6.737z"/>
	<path fill="#EE2B24" d="M10.802,6.751c-0.003-0.004-0.006-0.009-0.009-0.013C10.796,6.743,10.799,6.747,10.802,6.751z"/>
	<path fill="#F8BD22" d="M15.78,6.751c-0.003-0.003-0.007-0.007-0.01-0.01C15.777,6.74,15.781,6.744,15.78,6.751z"/>
	<path fill="#F8BD22" d="M15.794,6.765c-0.003-0.003-0.007-0.007-0.01-0.01C15.791,6.754,15.795,6.758,15.794,6.765z"/>
	<path fill="#EE2B24" d="M10.817,6.779c-0.003-0.005-0.006-0.01-0.009-0.015C10.813,6.768,10.817,6.772,10.817,6.779z"/>
	<path fill="#F8BD22" d="M15.685,6.515c0.002-0.008,0.007-0.012,0.015-0.014C15.699,6.51,15.694,6.514,15.685,6.515z"/>
	<path fill="#F8BD22" d="M15.822,6.793c-0.003-0.003-0.007-0.007-0.01-0.01C15.819,6.782,15.823,6.786,15.822,6.793z"/>
	<path fill="#EE2B24" d="M10.831,6.807c-0.003-0.005-0.006-0.011-0.01-0.016C10.828,6.795,10.832,6.8,10.831,6.807z"/>
	<path fill="#EE2B24" d="M10.848,6.836c-0.004-0.006-0.008-0.012-0.012-0.018C10.843,6.822,10.847,6.828,10.848,6.836z"/>
	<path fill="#EE2B24" d="M10.858,6.849c-0.003-0.004-0.006-0.008-0.01-0.012C10.855,6.839,10.859,6.843,10.858,6.849z"/>
	<path fill="#EE2B24" d="M10.873,6.877c-0.003-0.005-0.006-0.01-0.009-0.015C10.87,6.865,10.873,6.87,10.873,6.877z"/>
	<path fill="#F37423" d="M17.816,7.454c0.003-0.008,0.008-0.013,0.017-0.015C17.83,7.447,17.825,7.453,17.816,7.454z"/>
	<path fill="#F37423" d="M17.802,7.468c0.002-0.008,0.007-0.013,0.015-0.015C17.815,7.462,17.81,7.467,17.802,7.468z"/>
	<path fill="#F37423" d="M17.787,7.481c0.002-0.008,0.007-0.012,0.015-0.014C17.801,7.475,17.796,7.48,17.787,7.481z"/>
	<path fill="#F37423" d="M17.773,7.495c0.005-0.005,0.01-0.009,0.015-0.014C17.786,7.489,17.781,7.494,17.773,7.495z"/>
	<path fill="#F37423" d="M17.759,7.508c0.005-0.005,0.01-0.009,0.014-0.014C17.772,7.502,17.767,7.507,17.759,7.508z"/>
	<path fill="#F37423" d="M17.745,7.522c0.005-0.004,0.009-0.009,0.014-0.013C17.757,7.516,17.752,7.521,17.745,7.522z"/>
	<path fill="#F37423" d="M17.73,7.535c0.005-0.004,0.009-0.008,0.014-0.013C17.743,7.53,17.738,7.534,17.73,7.535z"/>
	<path fill="#F37423" d="M17.716,7.548c0.004-0.004,0.009-0.008,0.013-0.012C17.728,7.543,17.724,7.548,17.716,7.548z"/>
	<path fill="#F37423" d="M17.703,7.561c0.004-0.004,0.008-0.007,0.012-0.011C17.714,7.557,17.71,7.561,17.703,7.561z"/>
	<path fill="#F37423" d="M17.676,7.58c0.003-0.009,0.009-0.013,0.018-0.015C17.69,7.574,17.685,7.579,17.676,7.58z"/>
	<path fill="#F37423" d="M17.662,7.594c0.002-0.008,0.007-0.013,0.015-0.015C17.675,7.588,17.67,7.593,17.662,7.594z"/>
	<path fill="#F8BD22" d="M15.808,6.779c-0.003-0.003-0.007-0.007-0.01-0.01C15.805,6.768,15.809,6.772,15.808,6.779z"/>
	<polygon fill="#F48023" points="17.915,4.76 17.909,4.761 17.905,4.757 17.911,4.755 	"/>
	<path fill="#F48023" d="M17.999,4.774l-0.006,0c0,0-0.004-0.004-0.004-0.004C17.993,4.767,17.997,4.769,17.999,4.774z"/>
	<path fill="#EF3824" d="M11.563,8.125c-0.004-0.006-0.007-0.011-0.011-0.017C11.56,8.111,11.563,8.117,11.563,8.125z"/>
	<path fill="#F04023" d="M13.987,4.836c-0.004,0.006-0.009,0.009-0.016,0.008C13.974,4.837,13.98,4.835,13.987,4.836z"/>
	<path fill="#F8BD22" d="M15.812,8.155c0.001-0.008,0.006-0.014,0.014-0.016C15.825,8.148,15.821,8.153,15.812,8.155z"/>
	<path fill="#F8BD22" d="M15.799,8.17c0.001-0.009,0.006-0.014,0.014-0.016C15.812,8.163,15.808,8.169,15.799,8.17z"/>
	<path fill="#EF3824" d="M11.601,8.194c-0.003-0.005-0.006-0.009-0.009-0.014C11.598,8.183,11.602,8.187,11.601,8.194z"/>
	<path fill="#F8BD22" d="M15.768,8.205c0.004-0.004,0.007-0.007,0.011-0.011C15.778,8.201,15.775,8.205,15.768,8.205z"/>
	<path fill="#EF3824" d="M11.616,8.222c-0.003-0.005-0.006-0.01-0.01-0.015C11.613,8.21,11.617,8.215,11.616,8.222z"/>
	<path fill="#F8BD22" d="M15.754,8.219c0.004-0.004,0.007-0.007,0.011-0.011C15.764,8.215,15.761,8.219,15.754,8.219z"/>
	<path fill="#F8BB22" d="M18.528,5.028c-0.004-0.003-0.007-0.007-0.011-0.01C18.524,5.017,18.528,5.021,18.528,5.028z"/>
	<path fill="#EF3824" d="M11.631,8.25c-0.003-0.005-0.007-0.011-0.01-0.016C11.628,8.237,11.631,8.243,11.631,8.25z"/>
	<path fill="#F8BD22" d="M15.713,8.253c0.002-0.008,0.007-0.013,0.015-0.014C15.727,8.247,15.722,8.252,15.713,8.253z"/>
	<path fill="#F8BD22" d="M15.699,8.266c0.002-0.008,0.007-0.012,0.015-0.014C15.713,8.261,15.708,8.265,15.699,8.266z"/>
	<path fill="#EF3824" d="M11.646,8.279c-0.003-0.006-0.007-0.012-0.01-0.018C11.642,8.265,11.646,8.271,11.646,8.279z"/>
	<path fill="#F8BD22" d="M15.685,8.278c0.002-0.007,0.007-0.012,0.015-0.013C15.698,8.274,15.693,8.278,15.685,8.278z"/>
	<path fill="#F8BD22" d="M15.67,8.29c0.002-0.007,0.007-0.011,0.014-0.012C15.682,8.287,15.678,8.291,15.67,8.29z"/>
	<path fill="#EF3824" d="M11.661,8.307c-0.007-0.005-0.011-0.011-0.011-0.02C11.657,8.292,11.661,8.299,11.661,8.307z"/>
	<path fill="#F8BB22" d="M18.544,5.041c-0.007-0.001-0.011-0.004-0.012-0.011C18.539,5.03,18.543,5.033,18.544,5.041z"/>
	<path fill="#EF3824" d="M11.685,8.348c-0.003-0.004-0.006-0.008-0.009-0.013C11.682,8.338,11.686,8.341,11.685,8.348z"/>
	<path fill="#EF3824" d="M11.702,8.377c-0.004-0.006-0.007-0.012-0.011-0.018C11.699,8.363,11.702,8.369,11.702,8.377z"/>
	<path fill="#F8BB22" d="M18.558,5.055c-0.007-0.001-0.011-0.005-0.012-0.012C18.554,5.044,18.557,5.048,18.558,5.055z"/>
	<path fill="#EF3824" d="M11.717,8.405c-0.007-0.005-0.011-0.011-0.011-0.02C11.713,8.39,11.717,8.396,11.717,8.405z"/>
	<path fill="#F8BD22" d="M15.694,5.071c-0.004-0.001-0.006-0.003-0.007-0.007c0,0,0.005,0.001,0.005,0.001L15.694,5.071z"/>
	<path fill="#EF3824" d="M11.741,8.446c-0.003-0.004-0.006-0.009-0.009-0.013C11.738,8.436,11.741,8.44,11.741,8.446z"/>
	<path fill="#EF3824" d="M11.756,8.474c-0.003-0.005-0.006-0.01-0.009-0.015C11.753,8.463,11.756,8.467,11.756,8.474z"/>
	<path fill="#EF3824" d="M11.771,8.502c-0.003-0.005-0.006-0.011-0.01-0.016C11.768,8.49,11.771,8.495,11.771,8.502z"/>
	<path fill="#F8BB22" d="M18.571,5.07c-0.007-0.001-0.01-0.005-0.011-0.012C18.568,5.058,18.571,5.062,18.571,5.07z"/>
	<path fill="#EF3824" d="M11.785,8.531c-0.003-0.006-0.007-0.011-0.01-0.017C11.782,8.517,11.786,8.523,11.785,8.531z"/>
	<path fill="#F8BD22" d="M15.709,5.084c-0.005-0.001-0.008-0.004-0.009-0.009C15.706,5.075,15.709,5.078,15.709,5.084z"/>
	<path fill="#EF3824" d="M11.8,8.559c-0.007-0.004-0.01-0.01-0.011-0.018C11.797,8.545,11.8,8.551,11.8,8.559z"/>
	<path fill="#F8BB22" d="M18.584,5.084c-0.003-0.004-0.007-0.008-0.01-0.012C18.581,5.073,18.584,5.077,18.584,5.084z"/>
	<path fill="#F8BD22" d="M15.723,5.098c-0.005-0.001-0.008-0.004-0.009-0.009C15.72,5.089,15.723,5.092,15.723,5.098z"/>
	<path fill="#EF3824" d="M11.825,8.6c-0.003-0.004-0.006-0.008-0.009-0.012C11.819,8.592,11.822,8.596,11.825,8.6z"/>
	<path fill="#EF3824" d="M11.842,8.629c-0.007-0.004-0.01-0.01-0.01-0.017C11.838,8.615,11.842,8.621,11.842,8.629z"/>
	<path fill="#F8BB22" d="M18.595,5.097c-0.005-0.001-0.008-0.004-0.009-0.009C18.593,5.088,18.596,5.091,18.595,5.097z"/>
	<path fill="#F8BD22" d="M15.737,5.112c-0.003-0.003-0.006-0.006-0.01-0.009C15.734,5.103,15.737,5.106,15.737,5.112z"/>
	<path fill="#F8BD22" d="M15.752,5.126c-0.004-0.003-0.007-0.007-0.011-0.01C15.749,5.115,15.753,5.119,15.752,5.126z"/>
	<path fill="#F8BD22" d="M15.766,5.14c-0.003-0.003-0.007-0.007-0.01-0.01C15.763,5.129,15.767,5.133,15.766,5.14z"/>
	<path fill="#F8BB22" d="M18.627,5.14c-0.007-0.002-0.01-0.007-0.01-0.014C18.624,5.128,18.627,5.132,18.627,5.14z"/>
	<path fill="#F8BD22" d="M15.779,5.154c-0.003-0.003-0.006-0.007-0.009-0.01C15.777,5.144,15.78,5.148,15.779,5.154z"/>
	<path fill="#EF3824" d="M11.815,8.587c-0.008-0.004-0.011-0.011-0.011-0.02C11.811,8.572,11.815,8.578,11.815,8.587z"/>
	<path fill="#F8BB22" d="M18.637,5.153c-0.005-0.001-0.008-0.005-0.008-0.01C18.635,5.144,18.638,5.147,18.637,5.153z"/>
	<path fill="#F8BD22" d="M15.79,5.167c-0.004-0.001-0.007-0.003-0.007-0.008C15.789,5.159,15.791,5.162,15.79,5.167z"/>
	<path fill="#F8BB22" d="M18.655,5.182c-0.007-0.003-0.01-0.008-0.01-0.015C18.652,5.169,18.656,5.174,18.655,5.182z"/>
	<path fill="#F8BD22" d="M15.823,5.21c-0.006-0.002-0.01-0.006-0.01-0.013C15.82,5.198,15.824,5.202,15.823,5.21z"/>
	<path fill="#F8BD22" d="M15.834,5.223c-0.005-0.001-0.007-0.004-0.008-0.009C15.832,5.214,15.835,5.217,15.834,5.223z"/>
	<path fill="#F48023" d="M17.769,5.535c0.006,0.003,0.012,0.007,0.018,0.01C17.779,5.545,17.773,5.542,17.769,5.535z"/>
	<path fill="#F04C23" d="M3.467,5.549C3.458,5.579,3.435,5.6,3.419,5.626C3.37,5.7,3.32,5.773,3.271,5.847
		C3.149,6.032,3.026,6.217,2.904,6.401c-0.025,0.037-0.049,0.074-0.075,0.11C2.816,6.529,2.818,6.544,2.827,6.563
		C2.893,6.686,2.958,6.81,3.023,6.934c0.007,0.012,0.014,0.024,0.02,0.037c0.074,0.143,0.148,0.286,0.223,0.428
		c0.109,0.206,0.219,0.412,0.327,0.618c0.018,0.035,0.041,0.068,0.05,0.107C3.638,8.18,3.639,8.236,3.639,8.292
		c0,1.189,0,2.378-0.001,3.567c0,0.08-0.007,0.159,0.073,0.21c0.006,0.004,0.003,0.013,0.004,0.02
		c-0.023,0.001-0.046,0.003-0.07,0.003c-0.284-0.002-0.568-0.004-0.852-0.007c-0.177-0.002-0.354-0.005-0.53-0.008
		c-0.012,0-0.023-0.002-0.035-0.003c-0.055-0.013-0.111-0.006-0.167-0.005c-0.042,0-0.06-0.017-0.064-0.056
		c-0.002-0.026-0.002-0.051-0.002-0.077c0-3.547,0-7.095,0-10.642c0-0.055-0.009-0.114,0.036-0.159
		C2.115,1.13,2.199,1.129,2.282,1.133c0.031-0.009,0.063-0.004,0.095-0.003c0.025-0.002,0.051-0.005,0.076-0.005
		C2.65,1.121,2.846,1.12,3.041,1.117C3.195,1.114,3.349,1.11,3.503,1.108c0.023,0,0.046,0.001,0.07,0.002
		C3.562,1.147,3.529,1.141,3.503,1.142c-0.045,0.003-0.061,0.027-0.06,0.068c0,0.023,0,0.047,0,0.07c0,1.363,0,2.727,0,4.09
		C3.442,5.432,3.445,5.492,3.467,5.549z"/>
	<path fill="#ED2324" d="M2.032,1.136C2.014,1.209,2.018,1.283,2.018,1.358c0,3.532,0,7.064,0,10.596c0,0.026,0,0.051,0.001,0.077
		c0.001,0.021,0.009,0.029,0.031,0.03c0.044,0.001,0.089,0.001,0.133,0.001c0.016,0,0.033-0.001,0.045,0.013
		c-0.019,0.001-0.037,0.003-0.056,0.003c-0.273-0.002-0.546-0.004-0.82-0.006c-0.058-0.001-0.117-0.003-0.175-0.005
		c-0.034-0.001-0.038-0.006-0.039-0.043c-0.001-0.016,0-0.033,0-0.049c0-3.578,0-7.157,0-10.735c0-0.104-0.013-0.091,0.094-0.093
		c0.24-0.004,0.481-0.009,0.721-0.012C1.981,1.133,2.006,1.135,2.032,1.136z"/>
	<path fill="#F26823" d="M3.467,5.549c-0.034-0.014-0.05-0.04-0.047-0.077c0.001-0.016,0-0.033,0-0.049c0-1.4,0-2.8,0-4.199
		c0-0.016,0-0.033,0-0.049C3.421,1.124,3.423,1.123,3.477,1.12c0.032-0.002,0.065,0.011,0.095-0.01
		C3.586,1.109,3.6,1.107,3.614,1.107c0.282-0.005,0.565-0.009,0.847-0.014c0.21-0.004,0.42-0.008,0.63-0.011
		c0.026,0,0.051,0.001,0.077,0.002C5.143,1.128,5.099,1.112,5.063,1.114C4.976,1.119,4.971,1.122,4.97,1.206
		c0,0.655,0,1.31-0.001,1.965c0,0.042,0.017,0.082,0.01,0.125C4.966,3.312,4.951,3.327,4.94,3.344
		C4.886,3.424,4.834,3.503,4.781,3.583C4.62,3.826,4.458,4.069,4.297,4.311C4.211,4.44,4.126,4.567,4.04,4.695
		C3.854,4.975,3.667,5.254,3.481,5.534C3.477,5.54,3.472,5.544,3.467,5.549z"/>
	<path fill="#F37123" d="M3.715,12.089c-0.008-0.015-0.022-0.022-0.038-0.028c-0.061-0.024-0.061-0.024-0.061-0.092
		c0-0.012,0-0.023,0-0.035c0-1.234,0-2.468,0-3.701c0-0.021,0-0.042,0-0.063c0-0.021,0.01-0.035,0.028-0.045
		c0.038,0.069,0.077,0.138,0.114,0.208C3.88,8.563,4.001,8.795,4.122,9.026c0.09,0.171,0.18,0.342,0.27,0.513
		C4.414,9.58,4.432,9.625,4.462,9.66c0.03,0.035,0.077,0.051,0.117,0.075c0.21,0.125,0.421,0.25,0.631,0.375
		c0.054,0.032,0.111,0.059,0.16,0.099c-0.014,0.591-0.002,1.182-0.007,1.773c0,0.041,0.007,0.084-0.02,0.121
		c-0.021,0.001-0.042,0.003-0.062,0.003c-0.363-0.003-0.727-0.005-1.09-0.009C4.032,12.097,3.873,12.092,3.715,12.089z"/>
	<path fill="#F69722" d="M4.979,3.296C4.955,3.268,4.947,3.237,4.947,3.2c0.001-0.679,0.001-1.357,0.001-2.036
		c0-0.07,0.001-0.07,0.069-0.07c0.04,0,0.079,0,0.119,0c0.012,0,0.023,0,0.032-0.009C5.182,1.082,5.196,1.08,5.21,1.08
		c0.403-0.006,0.806-0.013,1.209-0.019c0.019,0,0.037,0.002,0.056,0.003c0.03,0.033,0.023,0.074,0.023,0.113
		c0.001,0.3,0.001,0.6,0,0.9c0,0.07,0.007,0.139,0.008,0.208C6.496,2.303,6.478,2.31,6.463,2.32
		C6.198,2.495,5.933,2.669,5.669,2.844c-0.117,0.077-0.233,0.155-0.35,0.232c-0.027,0.018-0.052,0.04-0.084,0.05
		C5.226,3.126,5.22,3.132,5.214,3.139l0.001-0.001C5.21,3.142,5.205,3.147,5.199,3.15L5.198,3.151
		c-0.006,0.01-0.02,0.007-0.026,0.016l0.001-0.001C5.167,3.17,5.163,3.175,5.158,3.179l-0.001,0c-0.006,0.01-0.02,0.006-0.026,0.016
		l0.001-0.001c-0.006,0.003-0.01,0.008-0.017,0.011L5.112,3.209l-0.004,0C5.1,3.21,5.093,3.216,5.088,3.222l0,0
		C5.084,3.227,5.079,3.23,5.073,3.233C5.072,3.237,5.07,3.238,5.067,3.237c-0.009,0.001-0.015,0.007-0.02,0.014l0.001,0
		c-0.005,0.004-0.01,0.009-0.016,0.012L5.029,3.265l-0.004,0C5.016,3.266,5.009,3.272,5.004,3.279l0.001,0
		C4.999,3.282,4.995,3.287,4.989,3.29C4.987,3.294,4.984,3.296,4.979,3.296z"/>
	<path fill="#F7A122" d="M5.342,12.104c-0.001-0.021-0.002-0.042-0.002-0.063c0-0.576,0-1.152,0-1.728
		c0-0.037-0.003-0.075,0.029-0.104c0.005,0.003,0.01,0.005,0.015,0.008c0.004,0.001,0.007,0.004,0.01,0.007l0.003,0.002
		c0.006,0.008,0.017,0.007,0.023,0.013l0.004,0.002c0.004,0.005,0.009,0.008,0.015,0.009c0.005,0.002,0.009,0.005,0.014,0.007
		c0.004,0.002,0.008,0.005,0.011,0.008l0.003,0.002c0.005,0.008,0.016,0.007,0.023,0.014l0.005,0.003
		c0.004,0.004,0.009,0.007,0.014,0.009c0.005,0.003,0.01,0.005,0.015,0.008c0.004,0.002,0.008,0.005,0.011,0.007
		c0.006,0.003,0.011,0.005,0.017,0.008c0.004,0.001,0.007,0.003,0.009,0.007l0.004,0.003c0.004,0.005,0.009,0.008,0.015,0.009
		c0.005,0.002,0.009,0.005,0.014,0.007c0.004,0.003,0.008,0.006,0.012,0.008c0.087,0.05,0.174,0.099,0.26,0.149
		c0.27,0.16,0.54,0.32,0.811,0.48c0.182,0.108,0.364,0.216,0.546,0.324c0.004,0.002,0.007,0.006,0.01,0.009
		c0.012,0.027,0.008,0.055,0.008,0.083c-0.001,0.203-0.001,0.406,0,0.609c0,0.085,0.006,0.09,0.092,0.09
		c0.124,0.001,0.248-0.001,0.371,0.001c0.032,0.001,0.072-0.009,0.089,0.034c-0.021,0.001-0.042,0.003-0.063,0.003
		c-0.272-0.002-0.544-0.005-0.817-0.007c-0.172-0.002-0.344-0.004-0.516-0.007c-0.016,0-0.032-0.002-0.049-0.003
		c-0.043-0.012-0.088-0.005-0.131-0.005c-0.232-0.001-0.464,0-0.696-0.001c-0.025,0-0.051,0.005-0.076-0.006
		C5.412,12.11,5.377,12.108,5.342,12.104z"/>
	<path fill="#F8B322" d="M6.506,2.286c-0.025-0.027-0.031-0.06-0.031-0.096c0.001-0.347,0.001-0.694,0.001-1.041
		c0-0.028-0.001-0.056-0.001-0.084C6.54,1.061,6.605,1.058,6.67,1.056C6.75,1.054,6.829,1.053,6.908,1.052
		c0.437-0.007,0.874-0.014,1.31-0.02c0.058-0.001,0.117,0,0.176,0c0.005,0.013-0.007,0.018-0.017,0.024
		c-0.152,0.1-0.304,0.201-0.456,0.301C7.809,1.431,7.696,1.505,7.583,1.58C7.314,1.757,7.045,1.934,6.776,2.112
		C6.702,2.161,6.628,2.21,6.554,2.259C6.539,2.269,6.525,2.283,6.506,2.286z"/>
	<path fill="#FACD21" d="M7.794,12.13c-0.019-0.019-0.044-0.012-0.067-0.012c-0.14-0.001-0.28-0.001-0.42-0.001
		c-0.016,0-0.033,0-0.049,0c-0.034-0.002-0.038-0.007-0.04-0.043c0-0.009,0-0.019,0-0.028c0-0.217,0-0.434,0-0.651
		c0-0.028,0.003-0.056,0.015-0.082c0.005,0.003,0.01,0.006,0.016,0.009c0.004,0.003,0.008,0.006,0.012,0.008l0.002,0.002
		c0.005,0.009,0.016,0.008,0.023,0.014l0.004,0.003c0.004,0.005,0.009,0.008,0.015,0.009c0.004,0.002,0.009,0.005,0.013,0.007
		c0.003,0.003,0.007,0.006,0.011,0.008l0.003,0.002c0.005,0.009,0.016,0.008,0.023,0.013c0.007,0.003,0.013,0.007,0.02,0.01
		c0.002,0.002,0.004,0.003,0.006,0.005l0.004,0l0.002,0.003c0.004,0.004,0.008,0.007,0.014,0.009
		c0.005,0.003,0.01,0.005,0.015,0.008c0.004,0.002,0.007,0.004,0.01,0.007c0.007,0.004,0.013,0.008,0.02,0.011l0.006,0.004
		c0.003-0.001,0.005,0,0.006,0.003c0.004,0.004,0.008,0.006,0.013,0.008c0.005,0.003,0.011,0.005,0.016,0.008
		c0.003,0.002,0.007,0.004,0.01,0.007c0.006,0.003,0.012,0.006,0.018,0.009c0.002,0.002,0.005,0.004,0.007,0.006l0.004,0
		l0.002,0.003c0.003,0.005,0.008,0.008,0.014,0.009c0.035,0.019,0.07,0.037,0.104,0.057c0.305,0.181,0.61,0.362,0.915,0.543
		c0.017,0.01,0.038,0.017,0.047,0.034c-0.001,0.009-0.004,0.01-0.01,0.01c-0.264-0.003-0.528-0.006-0.791-0.01
		C7.803,12.132,7.799,12.131,7.794,12.13z"/>
	<path fill="#F37123" d="M5.447,12.104c0.023-0.001,0.046-0.002,0.07-0.002c0.253,0,0.507,0.001,0.76,0.002
		c0.025,0,0.052-0.008,0.073,0.012c-0.021,0.001-0.042,0.003-0.062,0.003c-0.255-0.002-0.51-0.004-0.766-0.006
		C5.497,12.112,5.471,12.116,5.447,12.104z"/>
	<path fill="#ED2324" d="M2.378,1.129C2.346,1.14,2.314,1.134,2.282,1.133C2.314,1.122,2.346,1.123,2.378,1.129z"/>
	<path fill="#F26823" d="M5.172,3.167c0.005-0.012,0.014-0.016,0.026-0.016C5.193,3.161,5.185,3.167,5.172,3.167z"/>
	<path fill="#F37123" d="M5.422,10.24c-0.011,0.001-0.02-0.002-0.023-0.013C5.409,10.226,5.417,10.23,5.422,10.24z"/>
	<path fill="#F37123" d="M5.491,10.282c-0.011,0-0.019-0.002-0.023-0.014C5.479,10.268,5.487,10.272,5.491,10.282z"/>
	<path fill="#F26823" d="M5.13,3.195c0.005-0.012,0.014-0.016,0.026-0.016C5.151,3.189,5.143,3.196,5.13,3.195z"/>
	<path fill="#F7A122" d="M7.286,11.346c-0.011,0.001-0.02-0.001-0.023-0.014C7.274,11.332,7.282,11.335,7.286,11.346z"/>
	<path fill="#F7A122" d="M7.357,11.387c-0.011,0.002-0.02-0.001-0.023-0.013C7.344,11.374,7.352,11.377,7.357,11.387z"/>
	<path fill="#F26823" d="M5.214,3.139C5.219,3.13,5.226,3.126,5.235,3.125C5.231,3.134,5.224,3.139,5.214,3.139z"/>
	<path fill="#F26823" d="M5.199,3.15c0.003-0.007,0.008-0.011,0.016-0.012C5.213,3.146,5.208,3.15,5.199,3.15z"/>
	<path fill="#F26823" d="M5.158,3.179c0.003-0.007,0.008-0.011,0.016-0.012C5.171,3.175,5.166,3.178,5.158,3.179z"/>
	<path fill="#F26823" d="M5.115,3.206C5.12,3.202,5.126,3.199,5.131,3.195C5.129,3.203,5.123,3.207,5.115,3.206z"/>
	<path fill="#F26823" d="M5.088,3.222c0.004-0.009,0.011-0.013,0.02-0.013C5.104,3.217,5.098,3.222,5.088,3.222z"/>
	<path fill="#F26823" d="M5.073,3.233c0.005-0.004,0.01-0.008,0.016-0.011C5.086,3.23,5.081,3.233,5.073,3.233z"/>
	<path fill="#F26823" d="M5.046,3.251c0.004-0.009,0.011-0.013,0.02-0.014C5.062,3.246,5.056,3.25,5.046,3.251z"/>
	<path fill="#F26823" d="M5.031,3.262C5.034,3.255,5.039,3.251,5.047,3.25C5.044,3.258,5.039,3.262,5.031,3.262z"/>
	<path fill="#F26823" d="M5.004,3.279C5.008,3.27,5.015,3.266,5.025,3.265C5.021,3.274,5.014,3.278,5.004,3.279z"/>
	<path fill="#F26823" d="M4.989,3.29c0.005-0.004,0.011-0.008,0.016-0.012C5.003,3.287,4.997,3.29,4.989,3.29z"/>
	<path fill="#F37123" d="M5.395,10.224c-0.005,0-0.009-0.002-0.01-0.007C5.39,10.216,5.394,10.219,5.395,10.224z"/>
	<path fill="#F37123" d="M5.441,10.251c-0.007,0.001-0.012-0.002-0.015-0.009C5.433,10.241,5.438,10.244,5.441,10.251z"/>
	<path fill="#F37123" d="M5.466,10.266c-0.004-0.003-0.007-0.005-0.011-0.008C5.461,10.257,5.465,10.26,5.466,10.266z"/>
	<path fill="#F37123" d="M5.51,10.293c-0.007,0.001-0.012-0.003-0.014-0.009C5.503,10.283,5.508,10.286,5.51,10.293z"/>
	<path fill="#F37123" d="M5.536,10.308c-0.004-0.002-0.008-0.005-0.011-0.007C5.531,10.3,5.535,10.302,5.536,10.308z"/>
	<path fill="#F37123" d="M5.562,10.323c-0.005,0-0.008-0.002-0.009-0.007C5.559,10.315,5.562,10.317,5.562,10.323z"/>
	<path fill="#F37123" d="M5.581,10.334c-0.008,0.001-0.012-0.002-0.015-0.009C5.574,10.325,5.579,10.327,5.581,10.334z"/>
	<path fill="#F37123" d="M5.607,10.35c-0.006,0-0.01-0.002-0.012-0.008C5.601,10.341,5.606,10.343,5.607,10.35z"/>
	<path fill="#F7A122" d="M7.261,11.33c-0.007,0.001-0.01-0.002-0.012-0.008C7.256,11.321,7.26,11.323,7.261,11.33z"/>
	<path fill="#F7A122" d="M7.305,11.357c-0.008,0.002-0.012-0.002-0.015-0.009C7.298,11.347,7.303,11.349,7.305,11.357z"/>
	<path fill="#F7A122" d="M7.33,11.372c-0.006,0.001-0.01-0.002-0.011-0.008C7.325,11.363,7.329,11.365,7.33,11.372z"/>
	<polygon fill="#F7A122" points="7.383,11.402 7.376,11.397 7.381,11.397 	"/>
	<path fill="#F7A122" d="M7.402,11.414c-0.007,0.001-0.011-0.002-0.014-0.009C7.396,11.404,7.4,11.406,7.402,11.414z"/>
	<path fill="#F7A122" d="M7.427,11.429c-0.005,0-0.009-0.002-0.01-0.007C7.423,11.42,7.427,11.423,7.427,11.429z"/>
	<polygon fill="#F7A122" points="7.452,11.444 7.447,11.44 7.451,11.439 	"/>
	<path fill="#F7A122" d="M7.472,11.456c-0.007,0.001-0.011-0.002-0.013-0.008C7.466,11.446,7.47,11.449,7.472,11.456z"/>
	<path fill="#F7A122" d="M7.498,11.47c-0.005,0.001-0.009-0.002-0.01-0.007C7.494,11.462,7.497,11.464,7.498,11.47z"/>
	<path fill="#F7A122" d="M7.524,11.485c-0.004,0-0.007-0.002-0.007-0.006c0,0,0.006,0,0.006,0L7.524,11.485z"/>
	<path fill="#F7A122" d="M7.543,11.497c-0.007,0.002-0.012-0.002-0.014-0.009C7.536,11.487,7.541,11.49,7.543,11.497z"/>
	<path fill="#F8B922" d="M28.494,1.177c0.026-0.001,0.051-0.002,0.077-0.002c0.39,0.005,0.78,0.011,1.17,0.017
		c0.201,0.003,0.402,0.007,0.603,0.011c0.014,0,0.028,0.003,0.042,0.004c0.002,0.018-0.012,0.026-0.024,0.03
		c-0.038,0.013-0.047,0.041-0.048,0.076c-0.001,0.026-0.001,0.051-0.001,0.077c0,3.513,0,7.027,0,10.54
		c0,0.161,0.018,0.178,0.182,0.179c0.227,0,0.453,0,0.68,0c0.037,0,0.076-0.007,0.107,0.021c-0.023,0.018-0.049,0.009-0.074,0.01
		c-0.196,0.003-0.392,0.004-0.588,0.006c-0.619,0.006-1.237,0.011-1.856,0.017c-0.023,0-0.047-0.002-0.07-0.003
		c-0.033-0.038-0.024-0.084-0.024-0.127c-0.001-0.718,0-1.437,0-2.155c0-0.446,0-0.891,0-1.337c0-0.056,0.005-0.112,0.022-0.166
		c0.013-0.027,0.024-0.055,0.038-0.082c0.059-0.111,0.119-0.222,0.177-0.333c0.077-0.147,0.153-0.294,0.23-0.44
		c0.144-0.275,0.288-0.549,0.432-0.824c0.015-0.029,0.043-0.054,0.043-0.087c0-0.033-0.033-0.055-0.05-0.082
		c-0.075-0.115-0.151-0.23-0.227-0.345c-0.143-0.216-0.287-0.431-0.43-0.647c-0.089-0.134-0.179-0.267-0.267-0.402
		c-0.023-0.035-0.054-0.065-0.068-0.105c-0.01-0.006-0.006-0.021-0.016-0.027l0.001,0.001c-0.003-0.006-0.009-0.01-0.012-0.016
		l-0.001-0.001c-0.01-0.006-0.007-0.02-0.016-0.026l0.001,0.001c-0.004-0.005-0.008-0.01-0.011-0.016
		c-0.004-0.001-0.005-0.003-0.004-0.007c-0.001-0.009-0.007-0.015-0.013-0.02l0,0c-0.033-0.067-0.037-0.138-0.037-0.211
		c0.001-1.126,0-2.252,0.001-3.378C28.46,1.276,28.448,1.22,28.494,1.177z"/>
	<path fill="#FBE721" d="M31.281,12.13c-0.278,0-0.556,0-0.834,0.002c-0.044,0-0.082-0.01-0.12-0.03
		c-0.025-0.013-0.041-0.029-0.038-0.06c0.002-0.016,0-0.033,0-0.049c0-3.556,0-7.111,0-10.667c0-0.023,0-0.047,0.001-0.07
		c0.002-0.022,0.014-0.033,0.035-0.037c0.02-0.004,0.043,0.007,0.059-0.013c0.021-0.001,0.042-0.002,0.063-0.002
		c0.262,0.004,0.523,0.008,0.785,0.012c0.012,0,0.023,0.001,0.035,0.001c0.01,0.001,0.017,0.006,0.018,0.017
		c0.001,0.007,0.001,0.014,0.001,0.021c0,0.019,0,0.037,0,0.056c0,3.579,0,7.157,0,10.736C31.288,12.075,31.294,12.103,31.281,12.13
		z"/>
	<path fill="#F58E22" d="M28.494,1.177c-0.013,0.041-0.013,0.082-0.013,0.124c0,1.141,0,2.281,0,3.422
		c0,0.049-0.005,0.098,0.012,0.145c0.005,0.015,0.001,0.032,0.002,0.049c-0.017-0.022-0.036-0.042-0.051-0.065
		c-0.049-0.071-0.096-0.143-0.144-0.215c-0.124-0.187-0.247-0.373-0.37-0.56c-0.141-0.212-0.282-0.423-0.422-0.635
		c-0.024-0.035-0.051-0.065-0.087-0.089c-0.217-0.142-0.433-0.284-0.648-0.427c-0.052-0.035-0.103-0.071-0.155-0.107
		c-0.036-0.027-0.051-0.065-0.056-0.108c-0.005-0.037-0.007-0.074-0.007-0.111c0-0.426,0-0.851,0-1.277
		c0-0.06-0.003-0.122,0.034-0.175c0.019-0.001,0.037-0.003,0.056-0.002c0.524,0.007,1.048,0.014,1.572,0.022
		C28.308,1.169,28.401,1.174,28.494,1.177z"/>
	<path fill="#F69822" d="M28.69,8.375c0.001,0.03,0.002,0.061,0.002,0.091c0,1.201,0,2.402,0,3.603c0,0.03,0.001,0.061,0.001,0.091
		c-0.051,0.003-0.102,0.007-0.153,0.008c-0.413,0.004-0.825,0.007-1.238,0.01c-0.012,0-0.023-0.002-0.035-0.003
		c-0.102,0.014-0.112,0.007-0.112-0.092c-0.001-0.594-0.001-1.189,0-1.783c0-0.03,0-0.061,0.021-0.086
		c0.045-0.028,0.09-0.058,0.136-0.085c0.202-0.12,0.405-0.24,0.608-0.359c0.033-0.02,0.057-0.044,0.075-0.079
		c0.102-0.199,0.207-0.396,0.311-0.594c0.092-0.175,0.184-0.351,0.276-0.526C28.617,8.504,28.654,8.44,28.69,8.375z"/>
	<path fill="#F36F23" d="M27.177,10.212c0,0.028,0.001,0.056,0.001,0.084c0,0.585,0,1.171,0,1.756c0,0.014,0,0.028,0,0.042
		c0,0.083-0.002,0.076,0.076,0.078c0.005,0,0.009,0.001,0.014,0.002c-0.017,0.01-0.036,0.008-0.055,0.008
		c-0.41,0.003-0.819,0.007-1.229,0.01c-0.012,0-0.023-0.002-0.035-0.003c-0.1,0.013-0.199,0.002-0.299,0.006
		c-0.03,0.001-0.041-0.017-0.046-0.042c-0.006-0.028-0.004-0.056-0.005-0.083c-0.002-0.288,0.003-0.577-0.003-0.865
		c-0.001-0.026,0-0.051,0.024-0.069c0.059-0.037,0.118-0.074,0.178-0.11c0.16-0.095,0.321-0.19,0.481-0.285
		c0.267-0.158,0.533-0.316,0.8-0.474C27.112,10.248,27.14,10.223,27.177,10.212z"/>
	<path fill="#F25C23" d="M26.588,1.148c0,0.019,0.005,0.039-0.001,0.055c-0.013,0.036-0.011,0.073-0.011,0.11
		c0,0.435,0.001,0.87-0.001,1.305c0,0.052,0.015,0.101,0.018,0.152c0.001,0.017,0.016,0.033,0.025,0.049
		c-0.043-0.027-0.088-0.053-0.13-0.081c-0.167-0.11-0.334-0.222-0.502-0.332c-0.253-0.167-0.506-0.333-0.759-0.5
		c-0.148-0.098-0.295-0.196-0.443-0.294c-0.224-0.148-0.448-0.295-0.672-0.443c-0.025-0.016-0.049-0.034-0.074-0.05
		c0.007-0.019,0.021-0.013,0.031-0.013c0.215,0.003,0.429,0.007,0.644,0.01c0.212,0.003,0.425,0.005,0.637,0.008
		c0.355,0.005,0.709,0.01,1.064,0.016C26.471,1.14,26.529,1.145,26.588,1.148z"/>
	<path fill="#F04B23" d="M25.621,11.136c-0.003,0.013-0.013,0.026-0.007,0.04c0.012,0.027,0.008,0.055,0.008,0.083
		c0,0.281,0,0.563,0,0.844c0,0.089-0.004,0.084,0.083,0.084c0.081,0,0.163,0.001,0.244,0.002c-0.024,0.013-0.05,0.007-0.076,0.008
		c-0.35,0.003-0.7,0.005-1.051,0.008c-0.311,0.003-0.621,0.007-0.931,0.011c-0.023,0-0.045-0.001-0.068-0.001
		c-0.001-0.022,0.015-0.025,0.026-0.031c0.397-0.236,0.794-0.472,1.192-0.708c0.187-0.111,0.373-0.222,0.56-0.332
		C25.607,11.139,25.615,11.138,25.621,11.136z"/>
	<path fill="#F58E22" d="M28.523,4.959c0.012,0.005,0.016,0.014,0.016,0.026C28.529,4.98,28.523,4.971,28.523,4.959z"/>
	<path fill="#F58E22" d="M28.551,5.001c0.012,0.005,0.016,0.014,0.016,0.027C28.556,5.022,28.551,5.014,28.551,5.001z"/>
	<path fill="#F58E22" d="M28.495,4.917c0.009,0.004,0.013,0.011,0.013,0.02C28.5,4.933,28.496,4.927,28.495,4.917z"/>
	<path fill="#F58E22" d="M28.512,4.944c0.007,0.003,0.011,0.008,0.011,0.016C28.516,4.958,28.512,4.952,28.512,4.944z"/>
	<path fill="#F58E22" d="M28.54,4.986c0.007,0.003,0.011,0.008,0.012,0.016C28.543,5,28.54,4.995,28.54,4.986z"/>
	<path fill="#666666" d="M22.172,2.177c0.013-0.006,0.022,0.004,0.031,0.01c0.107,0.067,0.213,0.135,0.319,0.202
		c0.213,0.135,0.426,0.269,0.639,0.404c0.118,0.075,0.236,0.151,0.354,0.226c0.211,0.133,0.422,0.266,0.633,0.4
		c0.103,0.065,0.205,0.13,0.307,0.195c0.177,0.112,0.355,0.224,0.533,0.337c0.11,0.07,0.22,0.141,0.331,0.211
		c0.219,0.139,0.438,0.277,0.657,0.415c0.15,0.095,0.3,0.19,0.449,0.285c0.079,0.05,0.158,0.1,0.237,0.149
		c0.032,0.02,0.059,0.044,0.08,0.076c0.098,0.147,0.198,0.294,0.298,0.44c0.092,0.135,0.184,0.27,0.275,0.405
		c0.096,0.141,0.191,0.282,0.287,0.423c0.058,0.085,0.117,0.169,0.175,0.253c0.008,0.012,0.016,0.023,0.023,0.035
		c0.007,0.013,0.002,0.025-0.011,0.025c-0.021,0.001-0.042,0.001-0.063,0.001c-0.906,0-1.813,0-2.719-0.001
		c-0.009,0-0.019-0.001-0.028,0c-0.035,0.005-0.055-0.013-0.073-0.042c-0.129-0.211-0.259-0.421-0.389-0.632
		c-0.123-0.201-0.246-0.402-0.369-0.603c-0.138-0.225-0.277-0.449-0.415-0.673c-0.087-0.141-0.173-0.282-0.26-0.423
		c-0.112-0.18-0.225-0.36-0.337-0.541c-0.079-0.127-0.156-0.255-0.234-0.382c-0.095-0.155-0.19-0.31-0.285-0.465
		c-0.095-0.155-0.191-0.31-0.287-0.464c-0.05-0.081-0.101-0.163-0.151-0.244C22.177,2.193,22.167,2.188,22.172,2.177z"/>
	<path fill="#F69722" d="M26.337,8.951c-0.012,0.018-0.032,0.026-0.05,0.037c-0.257,0.159-0.515,0.317-0.773,0.475
		c-0.164,0.101-0.328,0.203-0.493,0.304c-0.045,0.028-0.092,0.054-0.138,0.081c-0.042,0.016-0.054-0.012-0.063-0.043
		c-0.008-0.029-0.006-0.06-0.006-0.091c0-0.747,0.001-1.493-0.001-2.24c0-0.028,0.003-0.056,0.006-0.084
		c0.054-0.084,0.108-0.168,0.162-0.253c0.013-0.02,0.028-0.03,0.052-0.028c0.012,0.001,0.023,0,0.035,0
		c0.493-0.001,0.985-0.002,1.478-0.002c0.023,0,0.047-0.004,0.069,0.005c-0.041,0.04-0.092,0.024-0.139,0.025
		c-0.191,0.004-0.172-0.022-0.172,0.172c-0.001,0.501,0,1.001,0,1.502C26.303,8.862,26.304,8.91,26.337,8.951z"/>
	<path fill="#F37423" d="M24.82,7.392c0.012,0.02,0.019,0.042,0.018,0.066c-0.001,0.016,0,0.033,0,0.049c0,0.745,0,1.491,0,2.236
		c0,0.019,0,0.037,0,0.056c0,0.031,0.016,0.047,0.046,0.05c-0.054,0.045-0.116,0.076-0.175,0.112
		c-0.167,0.105-0.335,0.207-0.503,0.31c-0.016,0.01-0.032,0.017-0.049,0.026c-0.009,0.001-0.015,0.006-0.021,0.013l0,0
		c-0.004,0.004-0.009,0.007-0.015,0.01c-0.003,0.004-0.006,0.006-0.011,0.005c-0.006,0.003-0.012,0.008-0.017,0.011l-0.003,0.003
		l-0.004,0c-0.009,0.001-0.015,0.006-0.021,0.013l0.001,0c-0.005,0.004-0.01,0.008-0.015,0.011
		c-0.002,0.004-0.004,0.005-0.008,0.004c-0.008,0.001-0.014,0.007-0.02,0.012l0,0c-0.004,0.005-0.008,0.008-0.014,0.01
		c-0.002,0.004-0.006,0.006-0.01,0.005c-0.007,0.002-0.012,0.007-0.018,0.011c-0.002,0.003-0.004,0.005-0.008,0.004
		c-0.008,0.001-0.014,0.007-0.02,0.013l0,0c-0.004,0.005-0.009,0.008-0.014,0.01c-0.002,0.004-0.005,0.005-0.01,0.005
		c-0.007,0.002-0.013,0.007-0.019,0.012l-0.001,0c-0.006,0.009-0.02,0.006-0.027,0.016l0.001-0.001
		c-0.005,0.004-0.01,0.008-0.016,0.011c-0.001,0.003-0.004,0.005-0.007,0.004c-0.009,0.001-0.014,0.007-0.021,0.012l-0.001,0
		c-0.007,0.009-0.021,0.006-0.027,0.016l0.001-0.001c-0.005,0.004-0.01,0.008-0.016,0.011c-0.001,0.003-0.004,0.005-0.007,0.004
		c-0.047,0.019-0.071-0.004-0.08-0.048c-0.007-0.03-0.005-0.06-0.005-0.09c0-0.395,0-0.791,0-1.186c0-0.035,0.004-0.069,0.01-0.104
		l0.002-0.002c0.003-0.005,0.007-0.01,0.011-0.015l0,0c0.007-0.005,0.012-0.01,0.012-0.019c0-0.004,0.001-0.007,0.005-0.009
		c0.004-0.005,0.007-0.01,0.01-0.015c0.002-0.004,0.004-0.009,0.007-0.013c0.002-0.005,0.004-0.008,0.009-0.011l0.001-0.002
		c0.005-0.005,0.01-0.01,0.011-0.017c0-0.005,0.002-0.009,0.006-0.012c0.002-0.005,0.005-0.009,0.009-0.013L23.8,8.965
		c0.006-0.005,0.011-0.01,0.011-0.018c0-0.005,0.002-0.008,0.006-0.01c0.003-0.005,0.006-0.009,0.01-0.014
		c0.003-0.005,0.005-0.01,0.008-0.015c0-0.005,0.002-0.009,0.008-0.01l0.002-0.003c0.004-0.005,0.008-0.009,0.011-0.014l0.001-0.001
		c0.006-0.004,0.011-0.009,0.012-0.017c0-0.005,0.002-0.009,0.006-0.011c0.003-0.005,0.006-0.009,0.009-0.013
		c0.002-0.012,0.009-0.021,0.018-0.029c0.004-0.005,0.007-0.01,0.01-0.015c0.002-0.004,0.005-0.009,0.007-0.013
		c0.001-0.005,0.004-0.008,0.008-0.011c0.013-0.022,0.024-0.045,0.038-0.066c0.122-0.188,0.245-0.375,0.366-0.563
		c0.157-0.243,0.314-0.486,0.471-0.729C24.807,7.405,24.814,7.399,24.82,7.392z"/>
	<path fill="#FACF21" d="M26.337,8.951c-0.049-0.008-0.054-0.012-0.055-0.053c-0.001-0.014,0-0.028,0-0.042c0-0.549,0-1.099,0-1.648
		c0-0.099-0.007-0.09,0.09-0.091c0.081-0.001,0.163,0.005,0.244-0.004c0.033,0,0.065-0.001,0.098-0.001
		c0.32,0,0.64-0.001,0.96-0.001c0.021,0,0.042,0.001,0.063,0.002c0.009,0,0.011,0.009,0.009,0.015
		c-0.005,0.01-0.012,0.02-0.019,0.029c-0.13,0.17-0.261,0.341-0.392,0.511c-0.05,0.065-0.099,0.13-0.149,0.195
		c-0.122,0.16-0.243,0.32-0.364,0.479c-0.125,0.163-0.25,0.326-0.375,0.488c-0.003,0.004-0.007,0.006-0.01,0.009
		c-0.005,0.005-0.01,0.01-0.013,0.016l0.001-0.001c-0.011,0.005-0.007,0.02-0.017,0.025l-0.001,0.001
		c-0.003,0.006-0.007,0.011-0.012,0.015l0,0C26.389,8.9,26.383,8.905,26.38,8.911l0.001-0.001c-0.007,0.004-0.013,0.008-0.013,0.017
		l0.001-0.001c-0.009,0.001-0.013,0.006-0.017,0.014l0.001-0.001C26.346,8.941,26.342,8.946,26.337,8.951L26.337,8.951z"/>
	<path fill="#F15223" d="M23.717,9.094c0.018,0.027,0.013,0.058,0.013,0.088c0,0.41,0,0.819,0,1.229c0,0.019-0.001,0.037,0,0.056
		c0.002,0.041,0.007,0.046,0.055,0.055c0.002,0,0.005,0,0.007,0.001c-0.016,0.021-0.04,0.031-0.062,0.044
		c-0.171,0.105-0.341,0.21-0.512,0.315c-0.308,0.189-0.616,0.379-0.923,0.568c-0.04,0.024-0.079,0.05-0.119,0.074
		c-0.014,0.008-0.026,0.02-0.044,0.019l0.001,0.001c-0.003-0.024,0.014-0.039,0.025-0.056c0.06-0.092,0.121-0.183,0.18-0.274
		c0.074-0.113,0.146-0.228,0.219-0.341c0.147-0.227,0.294-0.454,0.441-0.68c0.089-0.137,0.178-0.273,0.267-0.41
		c0.142-0.219,0.284-0.438,0.426-0.657C23.698,9.114,23.703,9.1,23.717,9.094z"/>
	<path fill="#F69722" d="M26.406,8.879c0-0.012,0.005-0.021,0.017-0.025C26.423,8.866,26.416,8.874,26.406,8.879z"/>
	<path fill="#F15223" d="M23.885,10.466c0.005-0.012,0.015-0.015,0.027-0.016C23.905,10.46,23.897,10.465,23.885,10.466z"/>
	<path fill="#F15223" d="M23.815,10.508c0.005-0.012,0.015-0.016,0.027-0.016C23.835,10.502,23.827,10.508,23.815,10.508z"/>
	<path fill="#F15223" d="M23.926,8.771c-0.003,0.004-0.006,0.007-0.008,0.011C23.917,8.776,23.92,8.772,23.926,8.771z"/>
	<path fill="#F15223" d="M23.911,8.795c-0.003,0.005-0.007,0.01-0.01,0.015C23.9,8.803,23.904,8.798,23.911,8.795z"/>
	<path fill="#F15223" d="M23.883,8.839c-0.003,0.004-0.006,0.009-0.009,0.013C23.873,8.845,23.877,8.841,23.883,8.839z"/>
	<path fill="#F69722" d="M26.422,8.855c0.001-0.008,0.005-0.014,0.013-0.016C26.435,8.848,26.431,8.853,26.422,8.855z"/>
	<path fill="#F15223" d="M23.868,8.864c0,0.008-0.004,0.014-0.012,0.017C23.857,8.873,23.861,8.867,23.868,8.864z"/>
	<path fill="#F15223" d="M23.855,8.881c-0.004,0.005-0.007,0.009-0.011,0.014C23.844,8.887,23.847,8.883,23.855,8.881z"/>
	<path fill="#F69722" d="M26.393,8.895c0-0.008,0.005-0.013,0.012-0.015C26.405,8.889,26.401,8.894,26.393,8.895z"/>
	<path fill="#F15223" d="M23.842,8.898c-0.001,0.004-0.004,0.008-0.008,0.01C23.834,8.902,23.837,8.899,23.842,8.898z"/>
	<path fill="#F69722" d="M26.38,8.911c0.001-0.008,0.005-0.014,0.013-0.016C26.393,8.904,26.389,8.91,26.38,8.911z"/>
	<path fill="#F69722" d="M26.368,8.927c0-0.009,0.005-0.014,0.013-0.017C26.381,8.919,26.377,8.925,26.368,8.927z"/>
	<path fill="#F15223" d="M23.827,8.922c-0.003,0.005-0.006,0.009-0.01,0.014C23.817,8.929,23.82,8.925,23.827,8.922z"/>
	<path fill="#F69722" d="M26.352,8.94c0.002-0.009,0.007-0.013,0.017-0.014C26.367,8.935,26.362,8.94,26.352,8.94z"/>
	<path fill="#F69722" d="M26.337,8.951c0.003-0.008,0.008-0.012,0.016-0.012C26.352,8.948,26.346,8.951,26.337,8.951z"/>
	<path fill="#F15223" d="M23.812,8.947c0,0.008-0.004,0.014-0.011,0.018C23.801,8.957,23.804,8.95,23.812,8.947z"/>
	<path fill="#F15223" d="M23.8,8.966c-0.003,0.004-0.006,0.008-0.009,0.013C23.79,8.972,23.793,8.968,23.8,8.966z"/>
	<path fill="#F15223" d="M23.784,8.99c0,0.008-0.004,0.013-0.011,0.017C23.773,8.999,23.777,8.994,23.784,8.99z"/>
	<path fill="#F15223" d="M23.772,9.009c-0.003,0.004-0.006,0.007-0.009,0.011C23.763,9.014,23.766,9.01,23.772,9.009z"/>
	<path fill="#F15223" d="M23.757,9.033c-0.003,0.005-0.007,0.01-0.01,0.015C23.746,9.041,23.75,9.036,23.757,9.033z"/>
	<path fill="#F15223" d="M23.742,9.058c0,0.009-0.004,0.015-0.012,0.019C23.73,9.068,23.734,9.062,23.742,9.058z"/>
	<path fill="#F15223" d="M23.729,9.077c-0.004,0.005-0.007,0.01-0.011,0.015C23.719,9.084,23.722,9.079,23.729,9.077z"/>
	<path fill="#F15223" d="M24.123,10.32c0.005-0.003,0.01-0.006,0.015-0.01C24.135,10.317,24.13,10.321,24.123,10.32z"/>
	<path fill="#F15223" d="M24.094,10.336c0.006-0.004,0.012-0.008,0.017-0.011C24.108,10.332,24.102,10.336,24.094,10.336z"/>
	<path fill="#F15223" d="M24.067,10.353c0.004-0.008,0.011-0.013,0.021-0.013C24.083,10.348,24.076,10.352,24.067,10.353z"/>
	<path fill="#F15223" d="M24.052,10.363c0.005-0.004,0.01-0.007,0.015-0.011C24.065,10.36,24.06,10.364,24.052,10.363z"/>
	<path fill="#F15223" d="M24.024,10.38c0.004-0.008,0.011-0.012,0.02-0.012C24.04,10.375,24.033,10.38,24.024,10.38z"/>
	<path fill="#F15223" d="M24.01,10.391c0.005-0.003,0.009-0.007,0.014-0.01C24.022,10.387,24.018,10.391,24.01,10.391z"/>
	<path fill="#F15223" d="M23.982,10.406c0.006-0.004,0.012-0.007,0.018-0.011C23.996,10.402,23.99,10.406,23.982,10.406z"/>
	<path fill="#F15223" d="M23.954,10.422c0.004-0.008,0.011-0.012,0.02-0.013C23.97,10.417,23.963,10.422,23.954,10.422z"/>
	<path fill="#F15223" d="M23.94,10.433c0.005-0.003,0.009-0.007,0.014-0.01C23.952,10.429,23.948,10.433,23.94,10.433z"/>
	<path fill="#F15223" d="M23.912,10.449c0.004-0.007,0.01-0.011,0.019-0.012C23.927,10.445,23.921,10.449,23.912,10.449z"/>
	<path fill="#F15223" d="M23.87,10.476c0.005-0.004,0.01-0.007,0.016-0.011C23.883,10.473,23.878,10.476,23.87,10.476z"/>
	<path fill="#F15223" d="M23.842,10.492c0.005-0.008,0.012-0.012,0.021-0.012C23.858,10.488,23.851,10.492,23.842,10.492z"/>
	<path fill="#F15223" d="M23.8,10.518c0.005-0.004,0.01-0.007,0.016-0.011C23.813,10.515,23.808,10.518,23.8,10.518z"/>
	<polygon fill="#F15223" points="22.132,11.543 22.126,11.549 22.127,11.545 22.133,11.544 	"/>
	<path fill="#F15223" d="M24.137,10.311c0.004-0.008,0.011-0.012,0.021-0.013C24.153,10.306,24.146,10.31,24.137,10.311z"/>
	<path fill="#666666" d="M4.635,6.81c0.021-0.008,0.044-0.004,0.067-0.004c0.283,0,0.565,0,0.848,0c0.624,0,1.247,0,1.871,0.001
		c0.096,0,0.074-0.015,0.13,0.075c0.094,0.153,0.188,0.306,0.282,0.459c0.111,0.181,0.222,0.362,0.333,0.543
		C8.31,8.119,8.456,8.356,8.602,8.592c0.137,0.222,0.274,0.445,0.411,0.667C9.151,9.483,9.29,9.707,9.428,9.932
		c0.095,0.155,0.191,0.31,0.286,0.464c0.125,0.202,0.25,0.405,0.375,0.607c0.053,0.085,0.105,0.171,0.157,0.256
		c0.007,0.011,0.013,0.023,0.019,0.035c-0.017,0.01-0.024-0.002-0.033-0.008c-0.298-0.188-0.595-0.377-0.893-0.566
		c-0.183-0.116-0.367-0.232-0.55-0.348c-0.251-0.158-0.501-0.316-0.752-0.474C7.878,9.796,7.717,9.693,7.555,9.591
		C7.338,9.453,7.121,9.316,6.904,9.179C6.752,9.083,6.601,8.987,6.449,8.891C6.23,8.752,6.012,8.613,5.792,8.477
		c-0.056-0.034-0.096-0.08-0.131-0.133c-0.074-0.11-0.148-0.221-0.222-0.331C5.281,7.782,5.123,7.551,4.966,7.32
		C4.893,7.214,4.822,7.107,4.75,7.001c-0.034-0.05-0.068-0.1-0.102-0.15C4.641,6.839,4.63,6.828,4.635,6.81z"/>
	<path fill="#F59222" d="M8.902,4.106C8.859,4.175,8.817,4.244,8.773,4.313c-0.058,0.09-0.118,0.179-0.177,0.269
		C8.523,4.694,8.45,4.809,8.377,4.922C8.265,5.094,8.152,5.265,8.04,5.436c-0.05,0.076-0.099,0.152-0.148,0.229
		c-0.073,0.114-0.146,0.227-0.22,0.341C7.626,6.078,7.577,6.149,7.529,6.22C7.472,6.259,7.446,6.249,7.437,6.184
		C7.432,6.151,7.434,6.118,7.434,6.086c0-0.77,0.001-1.541-0.001-2.311c0-0.026,0.001-0.051,0.008-0.076
		c0.056-0.045,0.12-0.078,0.181-0.117C7.79,3.477,7.959,3.374,8.127,3.27c0.241-0.149,0.482-0.298,0.724-0.447
		C8.856,2.819,8.864,2.818,8.87,2.816c0.016,0.023,0.011,0.05,0.011,0.075c-0.001,0.352,0,0.705,0,1.057
		C8.88,4.001,8.884,4.054,8.902,4.106z"/>
	<path fill="#F36E23" d="M7.441,3.698c0.01,0.016,0.016,0.033,0.016,0.053c-0.001,0.019,0,0.037,0,0.056c0,0.776,0,1.552,0,2.328
		c0,0.019,0,0.037,0,0.056C7.458,6.231,7.468,6.238,7.51,6.228c0.007-0.002,0.013-0.005,0.02-0.008
		C7.505,6.272,7.471,6.318,7.434,6.362c-0.06,0.01-0.121,0.004-0.181,0.005c-0.301,0.001-0.602,0-0.903,0
		c-0.102,0-0.106-0.003-0.107-0.105c-0.001-0.399,0-0.798,0-1.197c0-0.177,0-0.355,0-0.532c0-0.037-0.004-0.075,0.021-0.108
		c0.071-0.057,0.152-0.099,0.229-0.147c0.227-0.142,0.456-0.282,0.684-0.423c0.079-0.049,0.159-0.098,0.239-0.146
		C7.424,3.705,7.433,3.702,7.441,3.698z"/>
	<path fill="#F04823" d="M6.264,4.426c0,0.03,0.001,0.061,0.001,0.091c0,0.584,0,1.167,0,1.751c0,0.1-0.007,0.091,0.09,0.091
		c0.329,0,0.659,0,0.988,0.001c0.03,0,0.061,0.001,0.091,0.002C7.413,6.376,7.389,6.37,7.366,6.37c-0.161,0-0.322,0-0.483,0
		c-0.705,0-1.41,0-2.115-0.001c-0.025,0-0.051,0-0.073,0C4.684,6.356,4.69,6.349,4.696,6.341c0.083-0.109,0.167-0.219,0.25-0.328
		c0.156-0.204,0.312-0.407,0.468-0.611c0.077-0.1,0.152-0.201,0.228-0.301c0.137-0.18,0.275-0.36,0.412-0.539
		c0.007-0.009,0.014-0.02,0.023-0.026C6.14,4.5,6.197,4.454,6.264,4.426z"/>
	<path fill="#F9C422" d="M8.902,4.106C8.866,4.088,8.857,4.058,8.858,4.019c0.002-0.186,0.001-0.372,0.001-0.557
		c0-0.188,0-0.376,0-0.564c0-0.028-0.001-0.056,0.012-0.082C8.967,2.755,9.063,2.693,9.16,2.633
		c0.163-0.101,0.326-0.201,0.489-0.301c0.208-0.129,0.417-0.258,0.625-0.387c0.011-0.007,0.023-0.012,0.034-0.018
		c0.008,0.015,0,0.022-0.005,0.029c-0.083,0.127-0.165,0.254-0.248,0.381C9.895,2.581,9.736,2.825,9.576,3.07
		C9.528,3.144,9.48,3.218,9.432,3.293C9.357,3.409,9.285,3.526,9.208,3.64C9.132,3.752,9.066,3.87,8.983,3.977
		C8.979,3.984,8.974,3.989,8.972,3.996c0.001,0.004-0.001,0.008-0.005,0.01c-0.002,0.006-0.006,0.01-0.01,0.014l0,0
		C8.951,4.026,8.946,4.032,8.944,4.04C8.945,4.044,8.943,4.046,8.94,4.048C8.937,4.053,8.933,4.059,8.929,4.063l0-0.001
		C8.922,4.068,8.917,4.074,8.916,4.083c0.001,0.003,0,0.006-0.003,0.006C8.91,4.096,8.904,4.1,8.902,4.106L8.902,4.106z"/>
	<path fill="#F59222" d="M8.972,3.996c0-0.009,0.004-0.015,0.012-0.019C8.984,3.986,8.98,3.993,8.972,3.996z"/>
	<path fill="#F59222" d="M8.956,4.02c0-0.007,0.004-0.012,0.01-0.014C8.967,4.014,8.964,4.018,8.956,4.02z"/>
	<path fill="#F59222" d="M8.944,4.04c0-0.009,0.004-0.015,0.012-0.019C8.956,4.029,8.952,4.036,8.944,4.04z"/>
	<path fill="#F59222" d="M8.929,4.063c0-0.008,0.004-0.012,0.011-0.015C8.94,4.056,8.937,4.061,8.929,4.063z"/>
	<path fill="#F59222" d="M8.916,4.083c0-0.01,0.004-0.016,0.013-0.021C8.929,4.072,8.925,4.079,8.916,4.083z"/>
	<path fill="#F59222" d="M8.901,4.106c0-0.008,0.004-0.013,0.011-0.016C8.913,4.098,8.91,4.104,8.901,4.106z"/>
	<path d="M14.688,7.89c-0.023-0.001-0.046-0.002-0.069-0.002c-0.09,0-0.179-0.01-0.264-0.04c-0.009-0.003-0.018-0.003-0.027-0.005
		c-0.006-0.004-0.011-0.009-0.017-0.012c-0.079-0.038-0.141-0.095-0.186-0.169c-0.004-0.005-0.007-0.01-0.009-0.016
		c0.001-0.005-0.001-0.009-0.005-0.012c-0.005-0.008-0.004-0.019-0.011-0.026c-0.001-0.005-0.003-0.01-0.004-0.015
		c-0.004-0.009-0.003-0.02-0.01-0.028c-0.002-0.009-0.003-0.019-0.005-0.028c-0.006-0.013,0.001-0.03-0.009-0.042
		c-0.001-0.014-0.002-0.028-0.003-0.042c-0.008-0.037-0.007-0.074,0-0.111c0.001-0.013,0.002-0.027,0.003-0.04
		c0.01-0.013,0.002-0.031,0.011-0.044c0.003-0.004,0.004-0.008,0.003-0.012c0.007-0.009,0.005-0.021,0.011-0.03
		c0.003-0.003,0.004-0.006,0.003-0.01c0.001-0.007,0.007-0.012,0.01-0.018c0.004-0.003,0.005-0.006,0.004-0.01
		c0.002-0.007,0.007-0.012,0.011-0.018c0.048-0.067,0.109-0.118,0.182-0.156c0.043-0.023,0.087-0.042,0.138-0.037
		c0.011,0.001,0.023-0.002,0.034-0.003c0.008-0.004-0.004-0.003,0.005-0.004c0.171-0.021,0.343-0.049,0.507,0.033
		c0.031,0.016,0.059,0.037,0.075,0.069c0.028,0.037,0.062,0.069,0.084,0.111c0.053,0.096,0.062,0.198,0.05,0.305
		c-0.007,0.061-0.033,0.116-0.051,0.173c-0.006,0.007-0.012,0.014-0.017,0.022c-0.053,0.087-0.132,0.141-0.226,0.174
		c-0.041,0.014-0.085,0.023-0.127,0.034c-0.008,0-0.015,0-0.022,0.005C14.736,7.886,14.712,7.888,14.688,7.89z"/>
	<path d="M14.28,5.533c0.114-0.075,0.241-0.103,0.376-0.099c0.025,0.001,0.051,0,0.076,0c0.047,0.011,0.096,0.019,0.142,0.034
		c0.096,0.031,0.172,0.089,0.222,0.178c0.003,0.006,0.009,0.011,0.013,0.016c0.011,0.044,0.028,0.087,0.033,0.134
		c0.016,0.131-0.005,0.252-0.081,0.362c-0.004,0.006-0.007,0.012-0.01,0.018c-0.042,0.088-0.107,0.147-0.209,0.147
		c-0.053,0-0.107,0.012-0.159-0.012c-0.079-0.001-0.158-0.005-0.236-0.002c-0.048,0.002-0.085-0.014-0.12-0.043
		c-0.096-0.079-0.165-0.175-0.188-0.3c-0.004-0.014,0-0.03-0.008-0.044c0-0.035,0-0.07,0-0.105c0.007-0.014,0.003-0.031,0.008-0.045
		c0.001-0.009,0.003-0.018,0.004-0.028c0.007-0.008,0.006-0.019,0.01-0.028C14.177,5.643,14.227,5.587,14.28,5.533z"/>
	<path fill="#F58C22" d="M14.683,6.31c0.058-0.001,0.115-0.003,0.173-0.003c0.029,0,0.054-0.007,0.076-0.026
		c0.026-0.023,0.052-0.046,0.078-0.069c0.014-0.012,0.022-0.03,0.041-0.037c0.02,0.026,0.017,0.057,0.017,0.087
		c0,0.233,0,0.467,0,0.7c0,0.033,0,0.065,0,0.098c-0.032-0.019-0.063-0.039-0.095-0.058c-0.045-0.027-0.092-0.04-0.145-0.039
		c-0.093,0.003-0.186,0.001-0.278,0c-0.023,0-0.046-0.002-0.069-0.003c0-0.198-0.001-0.395-0.001-0.593c0-0.007,0-0.014,0.001-0.021
		c0.002-0.021,0.009-0.029,0.031-0.03c0.042-0.001,0.084-0.001,0.126-0.001C14.652,6.317,14.669,6.322,14.683,6.31z"/>
	<path fill="#F04023" d="M14.071,7.341c0,0.037,0,0.074,0,0.111C14.054,7.41,14.054,7.383,14.071,7.341z"/>
	<path fill="#F04023" d="M14.139,5.773c0.002,0.016,0.002,0.032-0.008,0.045C14.129,5.802,14.125,5.786,14.139,5.773z"/>
	<path fill="#F04023" d="M14.085,7.257c0.001,0.016,0,0.031-0.011,0.044C14.073,7.285,14.07,7.269,14.085,7.257z"/>
	<path fill="#F04023" d="M14.131,5.923c0.01,0.013,0.011,0.028,0.008,0.044C14.125,5.953,14.129,5.938,14.131,5.923z"/>
	<path fill="#F04023" d="M14.074,7.493c0.01,0.012,0.012,0.027,0.009,0.042C14.07,7.524,14.073,7.508,14.074,7.493z"/>
	<path fill="#F04023" d="M14.101,7.607c0.008,0.007,0.012,0.016,0.011,0.026C14.102,7.627,14.101,7.618,14.101,7.607z"/>
	<path fill="#F04023" d="M14.153,5.716c0.001,0.011-0.002,0.021-0.01,0.028C14.142,5.734,14.144,5.724,14.153,5.716z"/>
	<path fill="#F04023" d="M14.099,7.215c0.001,0.012-0.002,0.022-0.011,0.03C14.086,7.233,14.088,7.222,14.099,7.215z"/>
	<path fill="#F04023" d="M14.088,7.564c0.008,0.007,0.011,0.017,0.01,0.028C14.088,7.585,14.087,7.575,14.088,7.564z"/>
	<path fill="#F04023" d="M14.127,7.159c0,0.008-0.004,0.014-0.011,0.018C14.117,7.168,14.12,7.163,14.127,7.159z"/>
	<path fill="#F04023" d="M14.112,7.187c0,0.008-0.003,0.014-0.01,0.018C14.106,7.199,14.109,7.193,14.112,7.187z"/>
	<path fill="#F04023" d="M14.117,7.646c0.007,0.003,0.01,0.008,0.009,0.016C14.12,7.658,14.117,7.653,14.117,7.646z"/>
	<path fill="#F37223" d="M14.76,7.884c0.006-0.007,0.014-0.009,0.022-0.005C14.777,7.888,14.769,7.887,14.76,7.884z"/>
</g>
</svg>
