<?xml version="1.0" encoding="utf-8"?>
<!-- Generator: Adobe Illustrator 24.3.0, SVG Export Plug-In . SVG Version: 6.00 Build 0)  -->
<svg version="1.1" id="Слой_1" xmlns="http://www.w3.org/2000/svg" xmlns:xlink="http://www.w3.org/1999/xlink" x="0px" y="0px"
	 width="32px" height="13px" viewBox="0 0 32 13" enable-background="new 0 0 32 13" xml:space="preserve">
<g>
	<path d="M19.786,13c-2.524,0-5.047,0-7.571,0c-0.076-0.076-0.12-0.173-0.172-0.264c-0.225-0.395-0.457-0.786-0.686-1.179
		c-0.337-0.58-0.677-1.158-1.014-1.738C9.924,9.096,9.5,8.374,9.081,7.651C8.884,7.312,8.687,6.973,8.488,6.636
		C8.472,6.61,8.46,6.582,8.443,6.557c-0.03-0.044-0.022-0.082,0.003-0.125c0.427-0.725,0.849-1.453,1.273-2.18
		c0.524-0.901,1.05-1.801,1.574-2.702c0.288-0.495,0.574-0.991,0.867-1.483c0.02-0.034,0.038-0.066,0.086-0.058
		c2.502,0,5.005,0,7.507,0c0.043-0.005,0.069,0.014,0.091,0.051c0.21,0.354,0.413,0.713,0.622,1.068
		c0.218,0.37,0.433,0.742,0.65,1.113c0.234,0.402,0.467,0.804,0.701,1.205c0.283,0.483,0.565,0.968,0.847,1.452
		c0.229,0.393,0.46,0.784,0.687,1.179c0.061,0.107,0.119,0.216,0.188,0.317c0.05,0.073,0.047,0.134,0.003,0.207
		c-0.146,0.246-0.291,0.493-0.434,0.741c-0.279,0.483-0.561,0.964-0.842,1.446c-0.283,0.484-0.564,0.968-0.847,1.452
		c-0.23,0.392-0.457,0.787-0.687,1.179c-0.296,0.505-0.587,1.013-0.886,1.516C19.831,12.96,19.814,12.985,19.786,13z"/>
	<path d="M3,6.47c0.023,0.002,0.028-0.017,0.036-0.032c0.045-0.09,0.089-0.18,0.134-0.27C3.304,5.898,3.439,5.629,3.573,5.36
		C3.7,5.106,3.826,4.852,3.953,4.598C4.084,4.336,4.215,4.073,4.347,3.81C4.441,3.622,4.535,3.434,4.63,3.245
		c0.003-0.007,0.008-0.013,0.01-0.02c0.009-0.027,0.027-0.04,0.057-0.039c0.023,0.001,0.045-0.001,0.068-0.002
		c0.387-0.014,0.773-0.028,1.16-0.042c0.166-0.006,0.331-0.011,0.498-0.017C6.433,3.147,6.419,3.163,6.41,3.18
		C6.296,3.409,6.182,3.637,6.067,3.867C5.9,4.201,5.734,4.536,5.567,4.871c-0.13,0.261-0.26,0.521-0.39,0.781
		C5.061,5.883,4.945,6.114,4.83,6.346C4.821,6.364,4.814,6.383,4.803,6.4C4.788,6.424,4.791,6.445,4.803,6.47
		c0.12,0.251,0.24,0.503,0.359,0.754c0.094,0.197,0.186,0.395,0.28,0.592c0.153,0.322,0.306,0.644,0.459,0.966
		c0.125,0.263,0.25,0.526,0.376,0.788c0.043,0.091,0.088,0.18,0.132,0.271c0.009,0.018,0.021,0.034,0.02,0.056
		C6.424,9.9,6.421,9.905,6.417,9.905C6.269,9.893,6.122,9.88,5.974,9.868c-0.15-0.012-0.301-0.023-0.451-0.035
		C5.36,9.82,5.198,9.806,5.035,9.793C4.947,9.786,4.86,9.779,4.772,9.773C4.749,9.771,4.727,9.768,4.704,9.769
		C4.666,9.769,4.646,9.75,4.631,9.717C4.555,9.561,4.479,9.406,4.402,9.251C4.272,8.99,4.142,8.73,4.012,8.47
		C3.887,8.22,3.763,7.971,3.639,7.722c-0.134-0.27-0.268-0.539-0.403-0.809c-0.066-0.132-0.133-0.264-0.2-0.397
		C3.028,6.501,3.023,6.483,3,6.485C3,6.48,3,6.475,3,6.47z"/>
	<path fill="#383838" d="M19.786,0c0.004,0.003,0.006,0.008,0.004,0.013c-0.033,0.001-0.065,0.002-0.098,0.002
		c-2.452,0-4.904,0-7.356,0c-0.04,0-0.08,0-0.121,0c0-0.005,0-0.01-0.001-0.015C14.739,0,17.262,0,19.786,0z"/>
	<path fill="#666666" d="M12.876,12.077c-0.004-0.025,0.01-0.041,0.02-0.058c0.045-0.084,0.092-0.167,0.138-0.251
		c0.094-0.175,0.187-0.35,0.281-0.525c0.005-0.009,0.01-0.017,0.015-0.026c0.014-0.03,0.035-0.047,0.07-0.043
		c0.022,0.003,0.045,0,0.068,0c1.709,0,3.418,0,5.127,0c0.013,0,0.026-0.002,0.038,0c0.061,0.014,0.091-0.022,0.118-0.069
		c0.111-0.194,0.223-0.388,0.335-0.581c0.132-0.228,0.262-0.458,0.398-0.684c0.124-0.207,0.242-0.417,0.364-0.625
		c0.138-0.236,0.276-0.473,0.414-0.709c0.126-0.217,0.253-0.434,0.379-0.651c0.126-0.217,0.253-0.434,0.38-0.651
		c0.13-0.223,0.261-0.447,0.392-0.67c0.019-0.032,0.018-0.058-0.001-0.09c-0.1-0.171-0.199-0.343-0.299-0.515
		c-0.133-0.228-0.265-0.456-0.398-0.683c-0.113-0.193-0.225-0.386-0.338-0.579c-0.072-0.124-0.145-0.247-0.218-0.37
		c-0.005-0.009-0.01-0.018-0.014-0.027c-0.005-0.01-0.004-0.02,0.006-0.026c0.013-0.008,0.026-0.015,0.039-0.022
		c0.233-0.119,0.465-0.237,0.698-0.356c0.059-0.03,0.059-0.029,0.092,0.028c0.145,0.25,0.29,0.499,0.436,0.749
		c0.126,0.217,0.25,0.436,0.38,0.651c0.129,0.215,0.252,0.434,0.379,0.651c0.093,0.161,0.189,0.32,0.282,0.481
		c0.042,0.073,0.042,0.056,0,0.129c-0.147,0.254-0.296,0.507-0.444,0.761c-0.173,0.297-0.345,0.595-0.518,0.893
		c-0.106,0.182-0.213,0.364-0.32,0.546c-0.139,0.239-0.278,0.478-0.417,0.716c-0.106,0.182-0.213,0.364-0.32,0.546
		c-0.14,0.241-0.28,0.482-0.421,0.723c-0.108,0.184-0.216,0.368-0.324,0.553c-0.046,0.078-0.09,0.157-0.136,0.235
		c-0.078,0.134-0.157,0.269-0.236,0.403c-0.022,0.037-0.044,0.073-0.064,0.111c-0.014,0.027-0.033,0.043-0.066,0.039
		c-0.015-0.002-0.03,0-0.045,0c-2.064,0-4.127,0-6.191,0C12.929,12.082,12.902,12.087,12.876,12.077z"/>
	<path fill="#CD00FF" d="M11.401,10.014c-0.026-0.04-0.053-0.079-0.077-0.12c-0.105-0.18-0.209-0.361-0.314-0.541
		c-0.134-0.23-0.268-0.46-0.402-0.69c-0.123-0.21-0.246-0.421-0.368-0.631c-0.137-0.234-0.273-0.469-0.41-0.703
		c-0.126-0.217-0.253-0.434-0.38-0.651c-0.018-0.03-0.039-0.059-0.055-0.09c-0.061-0.11-0.062-0.066-0.002-0.172
		c0.07-0.122,0.142-0.243,0.213-0.364c0.186-0.319,0.371-0.638,0.557-0.957c0.129-0.221,0.258-0.443,0.387-0.664
		s0.258-0.443,0.387-0.664c0.129-0.221,0.258-0.443,0.388-0.664c0.027-0.045,0.056-0.089,0.085-0.133
		c0.041-0.016,0.034-0.059,0.051-0.088l0-0.001c0.064-0.017,0.09-0.003,0.095,0.062c0.007,0.093,0.008,0.186-0.003,0.278
		c-0.006,0.045-0.01,0.09-0.008,0.135c0.008,0.304-0.01,0.608-0.021,0.911c-0.008,0.236,0.007,0.472-0.023,0.707
		c-0.009,0.068-0.019,0.134-0.04,0.198c-0.019,0.052-0.051,0.097-0.079,0.145c-0.121,0.209-0.242,0.416-0.364,0.624
		c-0.099,0.169-0.197,0.338-0.297,0.506c-0.022,0.037-0.023,0.064-0.001,0.102c0.207,0.353,0.412,0.707,0.617,1.061
		c0.021,0.037,0.051,0.069,0.063,0.111c0.013,0.051,0.035,0.1,0.063,0.144c0.044,0.07,0.051,0.144,0.053,0.223
		c0.006,0.306-0.014,0.612-0.02,0.919c-0.006,0.306-0.013,0.612-0.028,0.918C11.466,9.964,11.488,10.032,11.401,10.014z"/>
	<path fill="#B200FF" d="M13.911,8.052c0.013-0.004,0.025-0.005,0.038,0c0.011,0.012,0.027,0.011,0.042,0.014
		c0.096,0.021,0.106,0.054,0.044,0.132c-0.194,0.245-0.393,0.488-0.583,0.736c-0.019,0.025-0.038,0.047-0.072,0.046
		c-0.263-0.004-0.525,0.007-0.788-0.006l-0.001-0.001c-0.013-0.114-0.004-0.229-0.005-0.343c-0.002-0.157-0.001-0.314,0-0.472
		c0-0.024-0.007-0.05,0.008-0.073c0.01-0.011,0.018-0.024,0.029-0.034c0.216-0.21,0.43-0.421,0.648-0.63
		c0.206-0.198,0.413-0.396,0.609-0.605c0.131-0.139,0.262-0.277,0.379-0.428c0.081-0.106,0.155-0.217,0.215-0.335
		c0.086-0.17,0.118-0.351,0.094-0.541c-0.02-0.158-0.102-0.275-0.243-0.35c-0.083-0.044-0.172-0.068-0.265-0.08
		c-0.022-0.003-0.045,0-0.066-0.013c0.118-0.086,0.192-0.211,0.281-0.321c0.098-0.121,0.193-0.244,0.292-0.364
		c0.049-0.06,0.108-0.118,0.093-0.207c0.081,0.008,0.156,0.038,0.229,0.069c0.356,0.148,0.581,0.41,0.674,0.785
		c0.028,0.115,0.045,0.232,0.048,0.35c0.006,0.206-0.002,0.412-0.047,0.614c-0.058,0.262-0.174,0.496-0.336,0.708
		c-0.068,0.09-0.137,0.179-0.213,0.264c-0.181,0.202-0.37,0.396-0.574,0.575c-0.06,0.053-0.118,0.109-0.177,0.164
		c-0.12,0.111-0.239,0.222-0.359,0.333c-0.004,0.003-0.006,0.005-0.006,0.005C13.901,8.049,13.905,8.051,13.911,8.052z"/>
	<path fill="#C000FF" d="M11.461,5.173c0.001-0.047-0.005-0.095,0.012-0.141c0.005-0.013,0.002-0.03,0.002-0.045
		c0.001-0.032,0-0.064,0.01-0.097c0.007-0.021,0.005-0.045,0.005-0.067c0-0.133,0-0.266,0-0.399c0-0.03,0-0.059,0.009-0.089
		c0.007-0.021,0.005-0.045,0.005-0.067c0-0.136,0-0.271,0-0.407c0-0.028,0-0.055,0.009-0.082c0.006-0.021,0.006-0.044,0.006-0.067
		c0.001-0.126,0-0.251,0-0.377c0-0.042-0.004-0.085,0.012-0.126c0.004-0.009,0.002-0.02,0.002-0.03c0-0.08,0.001-0.161,0-0.241
		c-0.001-0.046-0.009-0.052-0.059-0.058c-0.005-0.001-0.01,0-0.015,0c0.001-0.005,0.001-0.01,0.004-0.014
		c0.096-0.165,0.192-0.329,0.288-0.494c0.092-0.158,0.183-0.317,0.275-0.475c0.155-0.267,0.31-0.533,0.465-0.8
		c0.052-0.089,0.105-0.177,0.157-0.265c0.008-0.013,0.013-0.027,0.027-0.035c0.085-0.013,0.17-0.005,0.255-0.005
		c0.233,0,0.466-0.005,0.699,0.003c0.023,0.021,0.024,0.049,0.024,0.077c0.002,0.098,0.009,0.197-0.002,0.294
		c-0.018,0.163-0.01,0.326-0.012,0.489c-0.001,0.076-0.014,0.15-0.018,0.225c-0.003,0.043-0.023,0.059-0.068,0.06
		c-0.07,0-0.14-0.011-0.209,0.007c-0.117,0.202-0.234,0.403-0.351,0.605c-0.15,0.258-0.3,0.516-0.451,0.774
		c-0.129,0.221-0.258,0.442-0.386,0.663c-0.129,0.221-0.257,0.442-0.386,0.663c-0.095,0.162-0.19,0.325-0.285,0.487
		C11.48,5.15,11.47,5.161,11.461,5.173z"/>
	<path fill="#8600FF" d="M13.632,0.802c-0.075-0.001-0.15-0.002-0.225-0.002c-0.213,0-0.426,0-0.638,0
		c-0.03,0-0.06-0.002-0.09-0.002c0.009-0.003,0.018-0.009,0.027-0.009c0.023-0.001,0.045-0.001,0.068-0.001
		c2.151,0,4.302,0,6.453,0.001c0.127,0,0.093-0.019,0.156,0.089c0.161,0.275,0.321,0.551,0.481,0.827
		c0.121,0.208,0.243,0.416,0.364,0.625c0.137,0.234,0.273,0.469,0.41,0.703c0.097,0.167,0.195,0.334,0.293,0.501
		c0.013,0.022,0.025,0.043,0.037,0.065c0.021,0.038,0.021,0.039-0.02,0.061c-0.32,0.163-0.639,0.326-0.959,0.489
		c-0.009,0.004-0.018,0.007-0.031,0.013c-0.034-0.056-0.07-0.111-0.102-0.167c-0.1-0.171-0.198-0.344-0.298-0.515
		c-0.141-0.243-0.283-0.486-0.425-0.729c-0.121-0.208-0.243-0.416-0.364-0.625c-0.01-0.017-0.017-0.036-0.026-0.054
		c0.021-0.063,0.024-0.127,0.025-0.193c0.004-0.319,0.01-0.637,0.027-0.956c0.005-0.086-0.005-0.098-0.097-0.099
		c-0.467-0.001-0.935,0-1.402,0c-0.03,0-0.06,0-0.09-0.002c-0.502,0.003-1.004,0.004-1.506,0c-0.409,0.005-0.819,0.001-1.228,0.002
		c-0.241,0.001-0.482,0-0.723,0C13.708,0.823,13.667,0.829,13.632,0.802z"/>
	<path fill="#6F00FF" d="M19.001,6.05c0.166,0.05,0.31,0.14,0.438,0.256c0.196,0.177,0.304,0.403,0.362,0.655
		c0.046,0.199,0.058,0.402,0.051,0.606c-0.007,0.174-0.03,0.345-0.081,0.512c-0.046,0.15-0.112,0.291-0.207,0.416
		c-0.121,0.158-0.27,0.283-0.448,0.372c-0.207,0.104-0.427,0.159-0.655,0.185c-0.175,0.02-0.351,0.022-0.527,0.012
		c-0.171-0.01-0.338-0.047-0.499-0.106c-0.007-0.002-0.012-0.008-0.018-0.012c0.085-0.124,0.189-0.233,0.28-0.353
		c0.082-0.108,0.163-0.217,0.253-0.318c0.03-0.034,0.036-0.064-0.001-0.097c-0.012-0.01-0.033-0.022-0.009-0.041
		c0.085-0.007,0.169,0.01,0.254,0.004c0.157-0.011,0.299-0.055,0.417-0.166c0.157-0.147,0.19-0.338,0.188-0.537
		c-0.003-0.183-0.055-0.351-0.201-0.478c-0.044-0.038-0.105-0.05-0.14-0.099c-0.005-0.023,0.012-0.037,0.024-0.052
		c0.157-0.185,0.304-0.378,0.457-0.566C18.985,6.183,19.016,6.126,19.001,6.05z"/>
	<path fill="#BE00FF" d="M11.401,10.014c0.042-0.009,0.044-0.009,0.044-0.037c0.001-0.083,0-0.166,0.001-0.249
		c0-0.035-0.001-0.07,0.011-0.104c0.007-0.02,0.004-0.045,0.004-0.067c0-0.11,0-0.221,0-0.331c0-0.057-0.006-0.115,0.013-0.172
		c0.006-0.018,0.002-0.04,0.002-0.06c0-0.131,0-0.261,0-0.392c0-0.03-0.001-0.06,0.009-0.089c0.006-0.016,0.005-0.035,0.005-0.052
		c0-0.151,0-0.301,0.001-0.452c0-0.037-0.01-0.068-0.029-0.099c-0.035-0.058-0.066-0.118-0.062-0.189
		c0.016,0.01,0.021,0.028,0.03,0.043c0.091,0.156,0.181,0.313,0.272,0.47c0.134,0.23,0.268,0.46,0.402,0.69
		c0.127,0.217,0.253,0.434,0.38,0.651c0.133,0.228,0.265,0.456,0.398,0.684c0.125,0.215,0.251,0.429,0.375,0.645
		c0.02,0.034,0.047,0.064,0.058,0.102c-0.007,0.004-0.012,0.009-0.016,0.008c-0.04-0.004-0.057,0.02-0.073,0.051
		c-0.042,0.083-0.086,0.165-0.13,0.246c-0.141,0.264-0.282,0.527-0.423,0.79c-0.007,0.013-0.015,0.026-0.024,0.041
		c-0.023-0.008-0.029-0.029-0.038-0.044c-0.146-0.249-0.291-0.499-0.436-0.749c-0.135-0.232-0.271-0.464-0.406-0.697
		c-0.11-0.189-0.221-0.377-0.33-0.566C11.425,10.063,11.408,10.042,11.401,10.014z"/>
	<path fill="#8F00FF" d="M17.36,5.858c0.004,0.013,0.002,0.026-0.003,0.039c-0.016,0.035,0.003,0.074-0.012,0.109
		c0.004,0.034,0.002,0.068-0.003,0.102c-0.007,0.016-0.013,0.032,0.007,0.043c0.003-0.002,0.005-0.002,0.008,0.001
		c0.009-0.007,0.023-0.005,0.032-0.012c0.003-0.004,0.007-0.005,0.011-0.004c0.011-0.006,0.025-0.004,0.034-0.014l0,0
		c0.009-0.008,0.022-0.005,0.03-0.013c0.003-0.004,0.007-0.005,0.011-0.004c0.011-0.006,0.025-0.004,0.034-0.014l0,0
		c0.008-0.008,0.021-0.006,0.03-0.012c0.004-0.004,0.008-0.005,0.014-0.003c0.009-0.008,0.022-0.005,0.031-0.012
		c0.004-0.004,0.008-0.005,0.014-0.003c0.009-0.007,0.022-0.005,0.032-0.012c0.004-0.004,0.008-0.005,0.013-0.003
		c0.01-0.006,0.019-0.002,0.029,0c0.075,0.011,0.085,0.035,0.041,0.097c-0.022,0.031-0.046,0.059-0.07,0.088
		c-0.267,0.332-0.53,0.667-0.795,1c-0.105,0.131-0.207,0.265-0.314,0.393c-0.026,0.032-0.05,0.082-0.108,0.052
		c-0.004-0.004-0.004-0.008-0.002-0.012c-0.004-0.008-0.006-0.016-0.006-0.024c0-0.008,0-0.017-0.006-0.024
		c-0.004-0.004-0.004-0.008-0.003-0.013c-0.007-0.009-0.004-0.022-0.012-0.032c-0.001-0.009-0.003-0.018-0.004-0.027
		c-0.009-0.015-0.001-0.034-0.011-0.048c-0.001-0.009-0.002-0.019-0.004-0.028C16.37,7.457,16.37,7.444,16.37,7.432
		c0-0.009,0-0.019-0.006-0.026c-0.001-0.009-0.002-0.018-0.003-0.027c-0.012-0.02,0-0.044-0.011-0.063
		c-0.005-0.014-0.007-0.028-0.004-0.042c-0.014-0.025,0.001-0.053-0.011-0.078c-0.006-0.019-0.008-0.038-0.004-0.057
		c-0.015-0.035,0.003-0.074-0.011-0.109C16.314,7,16.311,6.971,16.316,6.942c-0.014-0.128-0.002-0.256-0.006-0.384
		c0-0.01-0.002-0.021,0.005-0.029c0.283-0.31,0.528-0.651,0.791-0.977c0.353-0.438,0.7-0.881,1.051-1.32
		c0.02-0.025,0.045-0.047,0.054-0.089c-0.089,0.026-0.173,0.023-0.254-0.013c0.012-0.003,0.024-0.009,0.036-0.01
		c0.145-0.008,0.29-0.017,0.436-0.009c0.201,0.011,0.4,0.029,0.599,0.055c0.201,0.026,0.402,0.059,0.603,0.09
		c0.012,0.002,0.025,0.005,0.037,0.008c0.024,0.007,0.028,0.012,0.025,0.038c-0.005,0.06-0.012,0.12-0.018,0.18
		c-0.013,0.132-0.027,0.265-0.04,0.397c-0.008,0.077-0.015,0.155-0.024,0.232c-0.004,0.031-0.009,0.035-0.038,0.031
		c-0.042-0.005-0.085-0.01-0.127-0.016c-0.221-0.032-0.444-0.052-0.666-0.068c-0.178-0.013-0.356-0.023-0.534-0.019
		c-0.096,0.002-0.19,0.016-0.282,0.041c-0.15,0.04-0.275,0.118-0.376,0.236c-0.016,0.019-0.034,0.037-0.05,0.056
		c-0.004,0.005-0.008,0.011-0.011,0.016c-0.003,0.005-0.005,0.01-0.008,0.015c0,0.006-0.002,0.01-0.008,0.011l-0.001,0.002
		c-0.005,0.006-0.01,0.012-0.012,0.019c0.001,0.005-0.001,0.009-0.005,0.011c-0.004,0.006-0.007,0.011-0.01,0.017
		c0.001,0.005-0.001,0.01-0.005,0.013c-0.004,0.006-0.007,0.012-0.01,0.018c0.001,0.005,0,0.009-0.005,0.013
		c-0.004,0.006-0.009,0.012-0.01,0.019c0.002,0.005,0,0.008-0.004,0.011c-0.008,0.009-0.005,0.022-0.013,0.031
		c-0.001,0.005-0.003,0.01-0.004,0.015c-0.004,0.007-0.01,0.013-0.01,0.021c-0.002,0.008-0.004,0.016-0.006,0.024
		c-0.005,0.009-0.003,0.022-0.011,0.03c-0.001,0.005-0.002,0.01-0.003,0.015c-0.007,0.011-0.006,0.023-0.011,0.035
		c-0.001,0.009-0.003,0.017-0.004,0.026c-0.01,0.014-0.001,0.033-0.012,0.047c-0.001,0.009-0.002,0.019-0.003,0.028
		C17.362,5.823,17.367,5.842,17.36,5.858z"/>
	<path fill="#AD00FF" d="M13.632,0.802c0.025-0.001,0.05-0.002,0.075-0.002c0.639,0,1.277,0,1.916,0c0.025,0,0.05,0.001,0.075,0.002
		c0.046,0.077,0.027,0.162,0.02,0.242c-0.009,0.108-0.013,0.215-0.01,0.323c0.006,0.166-0.022,0.33-0.017,0.495
		c0.001,0.025-0.002,0.05-0.021,0.07c-0.027,0.01-0.055,0.005-0.082,0.005c-0.463,0-0.926,0-1.389,0
		c-0.027,0-0.055-0.004-0.082,0.004c-0.027,0.001-0.055,0.003-0.082,0.003c-0.229,0.001-0.459,0.001-0.688,0.001
		c0.012-0.017,0.03-0.015,0.048-0.015c0.053,0,0.105,0.001,0.158,0c0.043-0.001,0.049-0.006,0.05-0.047
		c0.001-0.095,0.021-0.189,0.017-0.284c-0.005-0.095-0.001-0.191-0.001-0.286c0-0.035-0.002-0.07,0.011-0.104
		c0.006-0.016,0.004-0.035,0.004-0.052C13.633,1.038,13.632,0.92,13.632,0.802z"/>
	<path fill="#8A00FF" d="M16.424,7.676c0.021,0.001,0.04-0.003,0.055-0.018c0.021-0.021,0.039-0.046,0.058-0.069
		c0.08-0.096,0.15-0.2,0.233-0.293c0.096-0.109,0.177-0.23,0.273-0.338c0.046-0.052,0.083-0.112,0.127-0.167
		c0.03-0.037,0.063-0.071,0.092-0.109c0.046-0.062,0.094-0.123,0.144-0.182c0.053-0.063,0.099-0.131,0.154-0.194
		c0.058-0.065,0.109-0.137,0.162-0.206c0.011-0.015,0.005-0.03-0.013-0.034c-0.022-0.004-0.044-0.007-0.064-0.019
		c0.075-0.037,0.156-0.053,0.236-0.072c0.189-0.046,0.38-0.056,0.574-0.038c0.12,0.011,0.239,0.026,0.356,0.052
		c0.014,0.003,0.028,0.01,0.042,0.015c0.013,0.013,0.034,0.001,0.047,0.014c0.005-0.002,0.009-0.001,0.013,0.003
		c0.01,0.007,0.023,0.005,0.034,0.012c0.004-0.002,0.008-0.001,0.011,0.003c0.01,0.007,0.023,0.005,0.034,0.012
		c0.004-0.002,0.008-0.001,0.011,0.003c0.003,0.009,0.004,0.021,0.01,0.028c0.033,0.035,0.022,0.071-0.002,0.102
		c-0.04,0.054-0.083,0.106-0.125,0.159c-0.053,0.066-0.105,0.133-0.158,0.199c-0.048,0.06-0.096,0.121-0.146,0.18
		c-0.029,0.034-0.05,0.075-0.087,0.103c-0.012,0.009-0.024,0.018-0.035,0.028c-0.015,0.013-0.032,0.014-0.05,0.009
		C18.11,6.782,17.82,6.84,17.529,6.902c-0.054,0.012-0.108,0.022-0.159,0.045c-0.045,0.063-0.019,0.131-0.014,0.198
		c0.004,0.019,0.006,0.038,0.006,0.058c0,0.026-0.002,0.052,0.007,0.077c0.003,0.01,0.005,0.021,0.006,0.032
		c0.001,0.02,0.002,0.041,0.009,0.06c0.003,0.01,0.004,0.019,0.006,0.029c0.001,0.016,0.004,0.032,0.009,0.047
		c0.002,0.006,0.004,0.012,0.005,0.019c0.003,0.016,0.007,0.032,0.011,0.049c0.001,0.007,0.001,0.014,0,0.021
		c-0.021,0.086-0.078,0.151-0.132,0.217c-0.155,0.188-0.303,0.381-0.454,0.572c-0.026,0.033-0.05,0.072-0.103,0.062l0,0
		c-0.004-0.005-0.008-0.01-0.011-0.015c-0.004-0.002-0.006-0.005-0.005-0.01c-0.001-0.009-0.006-0.015-0.013-0.021l0,0
		c-0.004-0.004-0.008-0.009-0.01-0.015c-0.005-0.003-0.007-0.007-0.006-0.012c-0.002-0.007-0.007-0.013-0.011-0.018
		c-0.004-0.002-0.006-0.005-0.004-0.009c0-0.01-0.006-0.016-0.013-0.022l0-0.001c-0.005-0.004-0.008-0.008-0.01-0.014
		c-0.002-0.005-0.004-0.01-0.006-0.015c-0.004-0.005-0.007-0.01-0.01-0.016c-0.002-0.005-0.004-0.009-0.005-0.014
		c-0.004-0.005-0.007-0.011-0.01-0.017c-0.002-0.005-0.003-0.009-0.005-0.014c-0.004-0.005-0.007-0.011-0.01-0.017
		c-0.002-0.005-0.003-0.009-0.005-0.014c-0.004-0.005-0.007-0.01-0.009-0.016c-0.002-0.005-0.004-0.011-0.005-0.016
		c-0.009-0.008-0.005-0.022-0.014-0.03c-0.004-0.002-0.005-0.005-0.003-0.01c0-0.008-0.006-0.014-0.01-0.02
		c-0.004-0.003-0.006-0.008-0.004-0.013c-0.007-0.01-0.004-0.024-0.013-0.033C16.525,8.007,16.524,8.004,16.526,8
		c0-0.009-0.006-0.015-0.01-0.021c-0.001-0.005-0.003-0.009-0.004-0.014c-0.007-0.009-0.004-0.022-0.012-0.031
		c-0.004-0.003-0.005-0.008-0.003-0.013c-0.006-0.01-0.004-0.023-0.012-0.033c-0.004-0.003-0.005-0.007-0.003-0.012
		c-0.006-0.01-0.004-0.023-0.012-0.033c-0.004-0.004-0.005-0.008-0.003-0.013c-0.007-0.01-0.005-0.022-0.011-0.032
		c-0.001-0.005-0.002-0.01-0.003-0.015C16.44,7.77,16.451,7.75,16.439,7.737c-0.004-0.004-0.005-0.008-0.003-0.013
		c-0.006-0.01-0.005-0.022-0.01-0.032C16.426,7.687,16.425,7.682,16.424,7.676z"/>
	<path fill="#9600FF" d="M14.117,1.942c0.009-0.004,0.018-0.01,0.027-0.01c0.022-0.002,0.045-0.001,0.068-0.001
		c0.486,0,0.971-0.001,1.457-0.001c0.037-0.03,0.081-0.023,0.123-0.023c0.414-0.001,0.828,0,1.242,0
		c0.123,0,0.136-0.009,0.133-0.132c-0.007-0.291,0.024-0.581,0.017-0.872c-0.001-0.034-0.004-0.071,0.023-0.1
		c0.025-0.001,0.05-0.002,0.075-0.002c0.482,0,0.965,0,1.447,0c0.1,0,0.092-0.005,0.092,0.096c0,0.025,0.001,0.05-0.009,0.074
		c-0.009,0.021-0.006,0.045-0.006,0.067c0,0.113,0,0.226,0,0.339c0,0.057,0.006,0.115-0.013,0.172
		c-0.006,0.018-0.002,0.04-0.002,0.06c0,0.121-0.001,0.241,0.001,0.362c0.001,0.044-0.009,0.079-0.049,0.102c0,0,0-0.001,0-0.001
		c0-0.009-0.007-0.013-0.013-0.018l0,0c-0.004-0.005-0.008-0.01-0.012-0.015c-0.004-0.002-0.006-0.005-0.005-0.01
		c-0.001-0.009-0.007-0.015-0.012-0.021l0-0.001c-0.009-0.007-0.006-0.022-0.016-0.029l0,0.001c-0.004-0.005-0.007-0.01-0.01-0.016
		c-0.011-0.012-0.024-0.017-0.04-0.017c-0.023,0-0.045,0-0.068,0c-1.453,0-2.906,0-4.358,0C14.177,1.945,14.147,1.943,14.117,1.942z
		"/>
	<path fill="#9700FF" d="M12.591,8.975c0.241-0.001,0.482-0.001,0.724-0.002c0.02,0,0.04,0,0.06,0c0.019,0,0.032-0.009,0.044-0.025
		c0.069-0.092,0.133-0.188,0.209-0.274c0.074-0.085,0.139-0.177,0.212-0.262c0.042-0.049,0.082-0.101,0.12-0.154
		c0.013-0.018,0.026-0.037,0.042-0.052c0.026-0.024,0.046-0.052,0.06-0.086c-0.012-0.023-0.035-0.027-0.056-0.035
		c-0.022-0.007-0.043-0.013-0.058-0.033c0.025-0.001,0.05-0.004,0.075-0.004c0.53,0,1.06,0,1.589,0c0.093,0,0.084-0.006,0.084,0.086
		c0,0.261,0,0.522,0,0.783c0,0.066-0.001,0.067-0.066,0.067c-0.133,0-0.266,0-0.399,0c-0.854,0-1.707,0.001-2.561,0
		C12.644,8.985,12.616,8.996,12.591,8.975z"/>
	<path fill="#A200FF" d="M17.956,4.13c0.049,0.007,0.1-0.004,0.149,0.015c0.018,0.007,0.04,0.003,0.057-0.011
		c0.014-0.012,0.031-0.016,0.049-0.016c0.028,0,0.039,0.013,0.025,0.036c-0.017,0.028-0.035,0.055-0.055,0.08
		c-0.067,0.084-0.137,0.166-0.202,0.251c-0.068,0.089-0.14,0.176-0.21,0.264c-0.07,0.088-0.135,0.18-0.211,0.263
		c-0.06,0.067-0.112,0.14-0.168,0.211c-0.054,0.069-0.107,0.138-0.162,0.206c-0.082,0.104-0.166,0.206-0.248,0.31
		c-0.063,0.08-0.124,0.163-0.187,0.243c-0.028,0.035-0.06,0.067-0.087,0.103c-0.044,0.061-0.094,0.117-0.141,0.175
		c-0.056,0.07-0.112,0.14-0.168,0.211c-0.008,0.01-0.015,0.02-0.021,0.031c-0.013,0.024-0.034,0.027-0.058,0.026
		c-0.014-0.082-0.01-0.165-0.002-0.247c-0.005-0.058,0.001-0.116,0.006-0.173c0.013-0.137,0.028-0.275,0.057-0.41
		c0.057-0.263,0.132-0.521,0.264-0.758c0.119-0.212,0.275-0.39,0.475-0.527c0.165-0.114,0.347-0.191,0.542-0.237
		C17.758,4.155,17.855,4.13,17.956,4.13z"/>
	<path fill="#D100FF" d="M14.659,4.176c0,0.005-0.001,0.012,0.002,0.015c0.037,0.043,0.021,0.076-0.013,0.116
		c-0.056,0.066-0.104,0.139-0.164,0.204c-0.039,0.042-0.072,0.089-0.106,0.135c-0.063,0.086-0.134,0.167-0.198,0.253
		c-0.037,0.05-0.074,0.1-0.121,0.142c-0.02,0.018-0.041,0.027-0.067,0.029c-0.058-0.001-0.115-0.002-0.173-0.003
		c-0.163-0.001-0.326,0.011-0.489,0.026c-0.21,0.019-0.419,0.045-0.628,0.078c-0.009,0.001-0.019,0-0.033,0
		c-0.006-0.07-0.011-0.137-0.016-0.204c-0.014-0.208-0.028-0.416-0.041-0.624c0-0.005-0.001-0.01-0.001-0.015
		c-0.001-0.023,0.005-0.032,0.028-0.037c0.056-0.013,0.113-0.025,0.169-0.037c0.249-0.05,0.499-0.09,0.751-0.116
		c0.26-0.027,0.521-0.041,0.782-0.018c0.025,0.002,0.049,0.009,0.074,0.013c0.03,0.018,0.065-0.002,0.096,0.014
		c0.004-0.003,0.007-0.002,0.01,0.001c0.02,0.016,0.047,0.002,0.068,0.014l0.004-0.002l0.003,0.003
		C14.615,4.179,14.641,4.162,14.659,4.176L14.659,4.176z"/>
	<path fill="#7B00FF" d="M16.724,8.386c0.039-0.018,0.07-0.045,0.095-0.081c0.045-0.063,0.096-0.121,0.144-0.181
		c0.04-0.051,0.08-0.102,0.119-0.153c0.036-0.048,0.074-0.094,0.112-0.14c0.058-0.068,0.113-0.139,0.165-0.212
		c0.02-0.028,0.03-0.063,0.044-0.095c0.038,0.004,0.034,0.039,0.042,0.063c0.061,0.176,0.149,0.333,0.302,0.446
		c0.039,0.028,0.082,0.048,0.125,0.069c0.022,0.01,0.049,0.015,0.058,0.043c0.008,0.005,0.016,0.011,0.024,0.016
		c0.054,0.036,0.061,0.068,0.018,0.115c-0.085,0.092-0.153,0.196-0.233,0.291c-0.074,0.087-0.138,0.183-0.216,0.267
		c-0.035,0.038-0.063,0.083-0.108,0.112c-0.017-0.005-0.034-0.009-0.05-0.016c-0.198-0.086-0.371-0.206-0.512-0.371
		C16.808,8.504,16.754,8.454,16.724,8.386z"/>
	<path fill="#9700FF" d="M12.593,8.086c0,0.266,0,0.532-0.001,0.798c0,0.03-0.001,0.06-0.002,0.09
		c-0.012-0.009-0.01-0.022-0.01-0.034c0-0.271,0-0.542,0-0.814C12.58,8.112,12.577,8.096,12.593,8.086z"/>
	<path fill="#8A00FF" d="M16.315,6.283c0.001,0.082,0.001,0.165,0.002,0.247c-0.001,0.137-0.001,0.275-0.002,0.412
		c-0.011-0.021-0.009-0.044-0.01-0.066c-0.006-0.178-0.006-0.356,0-0.534C16.306,6.322,16.304,6.301,16.315,6.283z"/>
	<path fill="#C000FF" d="M11.461,2.882c0,0.015,0,0.03-0.001,0.045c-0.002,0.031-0.02,0.044-0.05,0.043
		C11.421,2.936,11.439,2.908,11.461,2.882z"/>
	<path fill="#8A00FF" d="M16.32,7.028c0.01,0.009,0.013,0.021,0.013,0.034c0,0.025-0.001,0.05-0.001,0.075
		C16.316,7.102,16.318,7.065,16.32,7.028z"/>
	<path fill="#8A00FF" d="M17.344,6.006c0-0.026-0.001-0.052-0.001-0.078c0-0.012,0.004-0.023,0.013-0.031
		C17.357,5.934,17.359,5.971,17.344,6.006z"/>
	<path fill="#B200FF" d="M14.512,4.146c-0.021,0-0.043,0.001-0.064,0.001c-0.013,0-0.023-0.005-0.031-0.015
		C14.449,4.131,14.482,4.129,14.512,4.146z"/>
	<path fill="#8A00FF" d="M16.335,7.194c0.021,0.024,0.01,0.052,0.011,0.078C16.332,7.248,16.333,7.221,16.335,7.194z"/>
	<path fill="#8A00FF" d="M16.35,7.315c0.019,0.018,0.011,0.042,0.011,0.063C16.348,7.359,16.348,7.337,16.35,7.315z"/>
	<path fill="#B200FF" d="M14.589,4.161c-0.024,0.001-0.049,0.009-0.068-0.014C14.546,4.146,14.569,4.145,14.589,4.161z"/>
	<path fill="#B200FF" d="M14.659,4.177c-0.022,0.001-0.045,0.007-0.062-0.015C14.619,4.161,14.641,4.16,14.659,4.177z"/>
	<path fill="#8A00FF" d="M17.348,6.152c-0.024-0.018-0.024-0.018-0.007-0.043C17.343,6.123,17.346,6.137,17.348,6.152z"/>
	<path fill="#7B00FF" d="M16.377,7.42c0,0.016-0.001,0.032-0.001,0.048c-0.012-0.014-0.013-0.031-0.01-0.048l0.006-0.005
		L16.377,7.42z"/>
	<path fill="#7B00FF" d="M16.38,7.496c0.017,0.013,0.013,0.031,0.011,0.048C16.379,7.53,16.378,7.513,16.38,7.496z"/>
	<path fill="#7B00FF" d="M16.439,7.737c0.017,0.012,0.014,0.029,0.013,0.045C16.441,7.769,16.437,7.754,16.439,7.737z"/>
	<path fill="#8A00FF" d="M17.374,5.778c-0.001-0.017-0.004-0.034,0.012-0.047C17.387,5.749,17.385,5.765,17.374,5.778z"/>
	<path fill="#8A00FF" d="M17.36,5.858c-0.001-0.018-0.006-0.037,0.011-0.051C17.372,5.825,17.372,5.843,17.36,5.858z"/>
	<path fill="#6F00FF" d="M18.898,6.017c-0.017,0.001-0.035,0.003-0.047-0.014C18.868,6.001,18.885,6.004,18.898,6.017z"/>
	<path fill="#8A00FF" d="M17.509,6.093c-0.008,0.014-0.021,0.015-0.034,0.014C17.483,6.095,17.495,6.092,17.509,6.093z"/>
	<path fill="#8600FF" d="M18.684,1.976C18.697,1.982,18.7,1.992,18.7,2.005C18.689,1.998,18.684,1.989,18.684,1.976z"/>
	<path fill="#8A00FF" d="M17.434,5.566c0-0.012,0.001-0.024,0.013-0.031C17.448,5.548,17.443,5.558,17.434,5.566z"/>
	<path fill="#8A00FF" d="M17.584,6.065c-0.008,0.011-0.019,0.012-0.031,0.012C17.561,6.068,17.571,6.064,17.584,6.065z"/>
	<path fill="#8A00FF" d="M17.538,6.08c-0.007,0.011-0.018,0.012-0.03,0.012C17.517,6.083,17.526,6.079,17.538,6.08z"/>
	<path fill="#8A00FF" d="M17.404,5.657c-0.001-0.012,0.001-0.023,0.011-0.03C17.416,5.638,17.412,5.648,17.404,5.657z"/>
	<path fill="#8A00FF" d="M17.463,6.11c-0.007,0.011-0.018,0.013-0.03,0.013C17.441,6.112,17.451,6.109,17.463,6.11z"/>
	<path fill="#8A00FF" d="M17.433,6.122c-0.007,0.014-0.02,0.015-0.034,0.014C17.408,6.125,17.42,6.122,17.433,6.122z"/>
	<path fill="#8A00FF" d="M17.388,6.14c-0.008,0.011-0.02,0.013-0.032,0.012C17.365,6.144,17.375,6.139,17.388,6.14z"/>
	<path fill="#7B00FF" d="M16.422,7.631c0,0.011-0.001,0.022-0.001,0.033c-0.01-0.009-0.012-0.02-0.01-0.033l0.005-0.005
		L16.422,7.631z"/>
	<path fill="#8A00FF" d="M17.39,5.706c-0.002-0.013-0.001-0.026,0.011-0.035C17.402,5.684,17.4,5.696,17.39,5.706z"/>
	<path fill="#6F00FF" d="M18.945,6.031c-0.013,0.002-0.025,0-0.034-0.012C18.924,6.018,18.936,6.02,18.945,6.031z"/>
	<path fill="#6F00FF" d="M18.99,6.047c-0.013,0.001-0.025,0-0.034-0.012C18.97,6.033,18.981,6.035,18.99,6.047z"/>
	<path fill="#7B00FF" d="M16.395,7.571c0.011,0.008,0.013,0.019,0.012,0.032C16.397,7.595,16.393,7.584,16.395,7.571z"/>
	<path fill="#7B00FF" d="M16.426,7.692c0.011,0.008,0.011,0.02,0.01,0.032C16.427,7.715,16.425,7.705,16.426,7.692z"/>
	<path fill="#8A00FF" d="M17.629,6.05c-0.008,0.011-0.019,0.013-0.032,0.012C17.606,6.052,17.616,6.049,17.629,6.05z"/>
	<path fill="#7B00FF" d="M16.456,7.798c0.011,0.008,0.012,0.02,0.011,0.032C16.457,7.821,16.454,7.81,16.456,7.798z"/>
	<path fill="#7B00FF" d="M16.47,7.843c0.012,0.008,0.013,0.02,0.012,0.033C16.471,7.867,16.468,7.856,16.47,7.843z"/>
	<path fill="#7B00FF" d="M16.485,7.888c0.012,0.008,0.013,0.02,0.012,0.033C16.486,7.912,16.483,7.901,16.485,7.888z"/>
	<path fill="#7B00FF" d="M16.5,7.933c0.012,0.008,0.013,0.019,0.012,0.031C16.502,7.957,16.499,7.946,16.5,7.933z"/>
	<path fill="#7B00FF" d="M16.529,8.008c0.013,0.007,0.015,0.019,0.013,0.033C16.531,8.033,16.528,8.022,16.529,8.008z"/>
	<path fill="#7B00FF" d="M16.56,8.084c0.012,0.007,0.014,0.018,0.014,0.03C16.563,8.106,16.559,8.096,16.56,8.084z"/>
	<path fill="#8A00FF" d="M17.45,5.525c0.003-0.006,0.007-0.013,0.01-0.019C17.461,5.514,17.458,5.52,17.45,5.525z"/>
	<path fill="#8A00FF" d="M17.465,5.493c0.003-0.006,0.007-0.012,0.01-0.018C17.476,5.483,17.472,5.489,17.465,5.493z"/>
	<path fill="#8A00FF" d="M17.48,5.462c0.003-0.006,0.007-0.012,0.01-0.017C17.491,5.453,17.487,5.459,17.48,5.462z"/>
	<path fill="#8A00FF" d="M17.508,5.412c0.002-0.005,0.004-0.008,0.008-0.011C17.514,5.404,17.511,5.408,17.508,5.412z"/>
	<path fill="#8A00FF" d="M17.525,5.386c0.004-0.005,0.008-0.011,0.011-0.016C17.536,5.378,17.532,5.383,17.525,5.386z"/>
	<path fill="#8A00FF" d="M17.495,5.434c0.004-0.006,0.008-0.013,0.012-0.019C17.507,5.423,17.503,5.43,17.495,5.434z"/>
	<path fill="#8A00FF" d="M16.377,7.42c-0.004,0-0.008,0-0.011,0c-0.001-0.005-0.001-0.01-0.002-0.015
		C16.368,7.41,16.373,7.415,16.377,7.42z"/>
	<path fill="#8600FF" d="M18.701,2.006c0.008,0.005,0.012,0.012,0.012,0.021C18.705,2.022,18.701,2.015,18.701,2.006z"/>
	<path fill="#8600FF" d="M18.718,2.037c0.004,0.005,0.008,0.01,0.012,0.015C18.722,2.05,18.717,2.045,18.718,2.037z"/>
	<path fill="#8600FF" d="M18.73,2.052c0.008,0.003,0.013,0.009,0.013,0.018C18.734,2.067,18.731,2.06,18.73,2.052z"/>
	<path fill="#8A00FF" d="M16.422,7.631c-0.004,0-0.007,0-0.011,0c-0.001-0.005-0.002-0.01-0.002-0.015
		C16.414,7.621,16.418,7.626,16.422,7.631z"/>
	<path fill="#8600FF" d="M18.674,1.961c0.003,0.005,0.007,0.01,0.01,0.016C18.677,1.974,18.673,1.969,18.674,1.961z"/>
	<path fill="#7B00FF" d="M16.516,7.979c0.007,0.005,0.01,0.012,0.01,0.021C16.518,7.995,16.516,7.988,16.516,7.979z"/>
	<path fill="#9700FF" d="M13.911,8.052c-0.01-0.001-0.02-0.002-0.006-0.013C13.908,8.042,13.91,8.047,13.911,8.052z"/>
	<path fill="#8A00FF" d="M17.42,5.602c0.003-0.007,0.006-0.014,0.01-0.021C17.431,5.59,17.428,5.597,17.42,5.602z"/>
	<path fill="#7B00FF" d="M16.546,8.054c0.007,0.005,0.01,0.012,0.01,0.02C16.549,8.07,16.546,8.063,16.546,8.054z"/>
	<path fill="#7B00FF" d="M16.579,8.13c0.003,0.005,0.006,0.011,0.009,0.016C16.581,8.142,16.578,8.137,16.579,8.13z"/>
	<path fill="#7B00FF" d="M16.593,8.16c0.003,0.006,0.007,0.011,0.01,0.017C16.596,8.173,16.592,8.168,16.593,8.16z"/>
	<path fill="#7B00FF" d="M16.608,8.19c0.003,0.006,0.007,0.011,0.01,0.017C16.611,8.203,16.607,8.198,16.608,8.19z"/>
	<path fill="#7B00FF" d="M16.623,8.22c0.003,0.005,0.007,0.01,0.01,0.016C16.627,8.233,16.623,8.228,16.623,8.22z"/>
	<path fill="#7B00FF" d="M16.639,8.25c0.003,0.005,0.006,0.009,0.01,0.014C16.643,8.262,16.639,8.258,16.639,8.25z"/>
	<path fill="#7B00FF" d="M16.649,8.265c0.008,0.005,0.012,0.012,0.013,0.022C16.653,8.282,16.649,8.274,16.649,8.265z"/>
	<path fill="#7B00FF" d="M16.666,8.295c0.004,0.006,0.008,0.012,0.011,0.018C16.67,8.31,16.666,8.304,16.666,8.295z"/>
	<path fill="#7B00FF" d="M16.683,8.326c0.003,0.005,0.007,0.01,0.01,0.015C16.687,8.338,16.683,8.333,16.683,8.326z"/>
	<path fill="#7B00FF" d="M16.694,8.34c0.009,0.004,0.013,0.011,0.013,0.021C16.699,8.357,16.694,8.35,16.694,8.34z"/>
	<path fill="#7B00FF" d="M16.713,8.371c0.004,0.005,0.007,0.01,0.011,0.015C16.716,8.384,16.712,8.379,16.713,8.371z"/>
	<path d="M10.026,11.283c-0.033-0.002-0.064-0.002-0.093-0.005c-0.28-0.023-0.561-0.047-0.841-0.069
		c-0.218-0.018-0.436-0.033-0.654-0.05c-0.198-0.015-0.396-0.031-0.594-0.047c-0.023-0.002-0.045-0.006-0.067-0.007
		c-0.023-0.001-0.035-0.011-0.045-0.032c-0.041-0.086-0.084-0.171-0.127-0.256c-0.164-0.33-0.328-0.661-0.492-0.991
		C6.987,9.573,6.861,9.321,6.736,9.07c-0.133-0.267-0.267-0.534-0.4-0.802C6.209,8.014,6.083,7.76,5.956,7.506
		C5.825,7.244,5.694,6.981,5.563,6.718c-0.022-0.045-0.046-0.089-0.07-0.133c-0.012-0.022-0.01-0.042,0.001-0.063
		c0.04-0.078,0.081-0.156,0.12-0.235c0.092-0.184,0.183-0.369,0.274-0.553c0.133-0.267,0.267-0.534,0.4-0.802
		c0.129-0.258,0.258-0.516,0.387-0.774C6.804,3.9,6.933,3.641,7.062,3.383C7.191,3.125,7.32,2.867,7.449,2.608
		c0.094-0.189,0.19-0.377,0.283-0.566c0.013-0.026,0.028-0.037,0.057-0.038c0.294-0.009,0.588-0.02,0.881-0.031
		c0.342-0.013,0.683-0.026,1.024-0.039c0.1-0.004,0.201-0.006,0.301-0.009c0.01,0,0.019,0.002,0.03,0.003
		C10.029,1.959,10.011,1.978,10,2C9.912,2.178,9.822,2.355,9.734,2.532C9.641,2.719,9.55,2.906,9.457,3.092
		C9.321,3.364,9.186,3.636,9.05,3.907c-0.12,0.24-0.24,0.48-0.36,0.721C8.552,4.904,8.414,5.181,8.277,5.457
		C8.152,5.706,8.028,5.955,7.903,6.204C7.861,6.287,7.82,6.37,7.776,6.452c-0.016,0.03-0.014,0.054,0,0.084
		c0.084,0.174,0.167,0.348,0.25,0.523c0.066,0.138,0.13,0.277,0.196,0.415c0.131,0.277,0.263,0.553,0.395,0.829
		c0.125,0.263,0.25,0.526,0.375,0.789C9.126,9.371,9.259,9.65,9.392,9.928c0.126,0.265,0.252,0.53,0.379,0.795
		c0.079,0.165,0.159,0.33,0.237,0.496C10.015,11.237,10.03,11.253,10.026,11.283z"/>
	<path d="M21.991,1.935c0.021-0.009,0.044-0.004,0.065-0.004c0.208,0.007,0.417,0.016,0.625,0.023
		c0.148,0.006,0.296,0.011,0.445,0.017c0.211,0.007,0.422,0.014,0.633,0.021c0.156,0.005,0.311,0.012,0.467,0.016
		c0.029,0.001,0.045,0.011,0.058,0.037c0.072,0.149,0.146,0.297,0.22,0.445c0.134,0.27,0.269,0.539,0.403,0.808
		c0.121,0.242,0.242,0.485,0.364,0.727c0.138,0.276,0.275,0.553,0.413,0.829c0.12,0.24,0.24,0.48,0.36,0.721
		c0.138,0.276,0.276,0.552,0.414,0.829c0.018,0.036,0.035,0.073,0.057,0.106c0.022,0.035,0.017,0.064-0.001,0.098
		c-0.039,0.073-0.076,0.147-0.113,0.221c-0.089,0.18-0.178,0.36-0.267,0.54C26,7.64,25.865,7.91,25.731,8.179
		c-0.127,0.254-0.253,0.508-0.38,0.761c-0.132,0.265-0.264,0.53-0.396,0.795c-0.128,0.256-0.255,0.512-0.383,0.768
		c-0.092,0.184-0.185,0.368-0.275,0.553c-0.017,0.035-0.036,0.054-0.078,0.057c-0.216,0.014-0.431,0.032-0.646,0.049
		c-0.153,0.012-0.305,0.026-0.458,0.038c-0.155,0.013-0.311,0.024-0.466,0.036c-0.155,0.012-0.311,0.025-0.466,0.038
		c-0.04,0.003-0.08,0.005-0.12,0.008c-0.085,0.008-0.088,0.016-0.046-0.072c0.19-0.399,0.379-0.798,0.568-1.197
		c0.123-0.258,0.246-0.517,0.369-0.775c0.134-0.281,0.268-0.562,0.401-0.843c0.123-0.258,0.246-0.517,0.369-0.775
		c0.136-0.286,0.272-0.571,0.408-0.857c0.036-0.075,0.071-0.149,0.109-0.223c0.015-0.03,0.016-0.054,0-0.084
		c-0.066-0.127-0.13-0.255-0.193-0.383c-0.078-0.157-0.156-0.315-0.234-0.472c-0.138-0.276-0.275-0.553-0.413-0.829
		c-0.119-0.238-0.238-0.476-0.357-0.714c-0.139-0.278-0.278-0.557-0.417-0.835c-0.127-0.254-0.253-0.508-0.38-0.761
		c-0.079-0.157-0.158-0.314-0.236-0.471C22.001,1.974,21.984,1.958,21.991,1.935z"/>
	<path d="M25.591,9.91c-0.003-0.022,0.004-0.033,0.009-0.044c0.158-0.333,0.317-0.667,0.475-1c0.12-0.252,0.24-0.503,0.36-0.754
		c0.137-0.288,0.274-0.576,0.411-0.864c0.118-0.247,0.235-0.494,0.353-0.741c0.005-0.011,0.01-0.023,0.016-0.034
		c0.014-0.024,0.011-0.046-0.002-0.071c-0.06-0.119-0.118-0.239-0.177-0.358c-0.177-0.355-0.354-0.71-0.531-1.065
		c-0.129-0.258-0.258-0.517-0.386-0.775c-0.129-0.258-0.258-0.516-0.387-0.774c-0.044-0.088-0.089-0.174-0.133-0.262
		c-0.015-0.031-0.01-0.039,0.027-0.037c0.111,0.003,0.221,0.006,0.332,0.01c0.244,0.009,0.487,0.018,0.731,0.027
		c0.208,0.008,0.417,0.017,0.625,0.024c0.036,0.001,0.053,0.015,0.068,0.045c0.076,0.156,0.153,0.311,0.23,0.466
		c0.133,0.267,0.266,0.535,0.4,0.802c0.125,0.252,0.251,0.503,0.377,0.755c0.132,0.265,0.265,0.53,0.397,0.795
		c0.06,0.119,0.119,0.238,0.181,0.356c0.026,0.049,0.024,0.093-0.001,0.142c-0.175,0.348-0.347,0.696-0.521,1.045
		c-0.117,0.236-0.235,0.472-0.353,0.708c-0.141,0.283-0.282,0.566-0.423,0.849c-0.092,0.184-0.185,0.368-0.277,0.552
		c-0.006,0.011-0.012,0.022-0.017,0.034c-0.008,0.022-0.023,0.03-0.046,0.031c-0.05,0.003-0.1,0.008-0.15,0.012
		c-0.155,0.012-0.311,0.023-0.466,0.036c-0.153,0.012-0.305,0.026-0.458,0.038c-0.153,0.012-0.306,0.024-0.458,0.036
		C25.729,9.899,25.662,9.904,25.591,9.91z"/>
	<path fill="#E400FF" d="M4.512,8.401C4.505,8.39,4.498,8.38,4.492,8.369C4.341,8.065,4.19,7.762,4.039,7.459
		c-0.14-0.281-0.28-0.562-0.42-0.842C3.606,6.592,3.591,6.569,3.579,6.544c-0.038-0.08-0.039-0.052-0.001-0.13
		c0.056-0.112,0.114-0.224,0.17-0.336c0.064-0.128,0.126-0.257,0.19-0.385c0.138-0.276,0.276-0.552,0.414-0.828
		c0.127-0.254,0.253-0.507,0.38-0.761c0.069-0.137,0.138-0.273,0.206-0.41c0.015-0.03,0.032-0.044,0.068-0.045
		c0.203-0.006,0.407-0.014,0.61-0.022c0.01,0,0.019,0.002,0.035,0.003C5.638,3.658,5.628,3.683,5.616,3.707
		c-0.13,0.261-0.26,0.521-0.39,0.781C5.08,4.78,4.935,5.072,4.789,5.364C4.665,5.614,4.541,5.863,4.416,6.112
		c-0.045,0.09-0.09,0.18-0.137,0.268c-0.018,0.034-0.02,0.062-0.002,0.098C4.359,6.644,4.439,6.812,4.518,6.98
		c0.023,0.05,0.051,0.098,0.067,0.151C4.592,7.141,4.589,7.155,4.6,7.163l0-0.001c0.008,0.009,0.005,0.023,0.015,0.031l0,0
		c0.008,0.008,0.006,0.022,0.014,0.03l0,0c0.026,0.075,0.028,0.153,0.023,0.23C4.634,7.732,4.615,8.009,4.604,8.287
		c-0.001,0.03-0.007,0.06-0.018,0.088C4.575,8.405,4.561,8.433,4.521,8.417l0,0.001C4.519,8.412,4.515,8.406,4.512,8.401z"/>
	<path fill="#D600FF" d="M4.521,8.417c0.028-0.004,0.042-0.019,0.048-0.048c0.014-0.062,0.014-0.124,0.015-0.186
		c0-0.05-0.001-0.099,0.011-0.149c0.01-0.04,0.003-0.085,0.004-0.127C4.599,7.863,4.601,7.822,4.61,7.779
		c0.009-0.043,0.003-0.09,0.004-0.135c0.001-0.04-0.003-0.08,0.011-0.119c0.007-0.018,0.003-0.04,0.003-0.06c0-0.08,0-0.161,0-0.241
		c0.013,0.009,0.017,0.025,0.023,0.038c0.153,0.322,0.306,0.644,0.459,0.966C5.246,8.514,5.382,8.8,5.518,9.085
		c0.037,0.077,0.075,0.153,0.112,0.23c0.006,0.013,0.012,0.027,0.017,0.039C5.634,9.373,5.618,9.367,5.604,9.366
		C5.517,9.36,5.429,9.353,5.341,9.346c-0.11-0.009-0.22-0.019-0.33-0.026C4.976,9.319,4.956,9.306,4.943,9.275
		C4.923,9.231,4.901,9.189,4.88,9.146C4.767,8.922,4.655,8.697,4.543,8.473C4.534,8.455,4.521,8.438,4.521,8.417z"/>
	<path fill="#D600FF" d="M4.614,7.194C4.601,7.187,4.599,7.176,4.599,7.163C4.611,7.17,4.614,7.181,4.614,7.194z"/>
	<path fill="#D600FF" d="M4.628,7.224c-0.012-0.007-0.015-0.018-0.014-0.03C4.625,7.201,4.629,7.211,4.628,7.224z"/>
	<path fill="#D600FF" d="M4.6,7.163C4.586,7.157,4.584,7.144,4.585,7.131C4.596,7.139,4.6,7.15,4.6,7.163z"/>
	<path fill="#D600FF" d="M4.512,8.401c0.003,0.006,0.007,0.011,0.01,0.017C4.513,8.415,4.51,8.409,4.512,8.401z"/>
	<path fill="#A000FF" d="M17.207,0.802c0,0.148,0,0.296,0.001,0.444c0,0.015,0.003,0.031-0.002,0.045
		C17.187,1.34,17.192,1.39,17.192,1.44c-0.001,0.118-0.001,0.236,0,0.354c0.001,0.038-0.007,0.074-0.017,0.111
		c-0.004,0.017-0.015,0.025-0.032,0.025C17.131,1.93,17.119,1.93,17.106,1.93c-0.479,0-0.958,0-1.438-0.001c0-0.06,0-0.12,0-0.18
		c0.001-0.047-0.004-0.094,0.012-0.141c0.006-0.018,0.003-0.04,0.003-0.06c0-0.13,0-0.26,0-0.39c0-0.027,0-0.054,0.009-0.081
		c0.006-0.018,0.006-0.039,0.006-0.059c0-0.072,0-0.145,0-0.217c0.02-0.001,0.04-0.002,0.06-0.002c0.465,0,0.931,0,1.396,0
		C17.172,0.8,17.189,0.801,17.207,0.802z"/>
	<path d="M17.931,8.144c-0.011-0.005-0.022-0.011-0.034-0.015c-0.117-0.04-0.212-0.111-0.291-0.205
		c-0.08-0.096-0.134-0.205-0.174-0.323c-0.009-0.026-0.011-0.054-0.028-0.077c0.002-0.005,0.001-0.01-0.003-0.014
		c-0.01-0.014,0-0.033-0.013-0.046c0.002-0.005,0.001-0.01-0.002-0.014c-0.01-0.015-0.002-0.034-0.012-0.049
		c-0.001-0.009-0.002-0.018-0.003-0.027c-0.012-0.019,0.002-0.044-0.012-0.063c-0.001-0.009-0.002-0.019-0.003-0.028
		c-0.013-0.026,0.001-0.055-0.012-0.081c0.004-0.019,0.002-0.037-0.003-0.055c-0.007-0.075-0.014-0.15,0.004-0.224
		c0.1-0.023,0.2-0.048,0.3-0.07c0.125-0.026,0.252-0.044,0.38-0.052c0.146-0.009,0.291,0.001,0.432,0.045
		c0.017,0.01,0.034,0.02,0.052,0.029c0.131,0.068,0.219,0.174,0.266,0.313c0.038,0.113,0.049,0.23,0.039,0.349
		c-0.004,0.052-0.01,0.105-0.023,0.156c-0.064,0.248-0.222,0.397-0.472,0.449C18.2,8.168,18.08,8.17,17.961,8.145
		C17.951,8.143,17.941,8.144,17.931,8.144z"/>
	<path fill="#7B00FF" d="M17.345,6.924c-0.012,0.032-0.006,0.064-0.006,0.097c0,0.043,0.001,0.085,0.002,0.128
		c-0.002-0.002-0.004-0.003-0.005-0.005c-0.011-0.038-0.013-0.175-0.002-0.21C17.336,6.929,17.342,6.927,17.345,6.924z"/>
	<path fill="#7B00FF" d="M17.345,7.203c0.014,0.025,0.013,0.053,0.012,0.081C17.333,7.26,17.345,7.23,17.345,7.203z"/>
	<path fill="#7B00FF" d="M17.359,7.312c0.013,0.019,0.013,0.041,0.012,0.063C17.351,7.357,17.359,7.333,17.359,7.312z"/>
	<path fill="#7B00FF" d="M17.374,7.401c0.012,0.014,0.013,0.031,0.012,0.049C17.369,7.437,17.373,7.418,17.374,7.401z"/>
	<path fill="#7B00FF" d="M17.389,7.464c0.011,0.013,0.015,0.029,0.013,0.046C17.385,7.498,17.388,7.481,17.389,7.464z"/>
	<path fill="#AB00FF" d="M7.131,4.325c-0.001-0.005,0-0.009,0.004-0.012c0.003-0.006,0.009-0.012,0.011-0.019
		c-0.001-0.005,0-0.009,0.004-0.011C7.154,4.276,7.16,4.271,7.161,4.264c-0.001-0.005,0-0.009,0.004-0.011
		c0.003-0.006,0.009-0.012,0.011-0.019c-0.001-0.005,0-0.008,0.004-0.011C7.184,4.216,7.19,4.211,7.191,4.203
		c-0.001-0.005,0-0.008,0.004-0.011c0.004-0.006,0.009-0.012,0.011-0.019c-0.001-0.005,0-0.008,0.004-0.011
		c0.004-0.006,0.01-0.012,0.011-0.02c-0.001-0.005,0-0.008,0.004-0.01c0.004-0.006,0.01-0.012,0.011-0.02
		c-0.001-0.004,0-0.008,0.004-0.01c0.004-0.006,0.01-0.012,0.011-0.02c-0.001-0.004,0-0.008,0.004-0.01
		c0.004-0.006,0.01-0.012,0.011-0.02c-0.002-0.004,0-0.008,0.004-0.01c0.005-0.006,0.01-0.012,0.011-0.021
		c-0.001-0.004,0-0.007,0.004-0.009c0.005-0.006,0.01-0.012,0.011-0.021c-0.002-0.004,0-0.007,0.004-0.009
		C7.305,3.975,7.311,3.969,7.312,3.96c-0.002-0.004,0-0.007,0.004-0.009C7.32,3.945,7.326,3.939,7.327,3.93
		c-0.002-0.004,0-0.007,0.004-0.009C7.335,3.915,7.341,3.909,7.342,3.9C7.34,3.896,7.341,3.893,7.345,3.891
		C7.35,3.884,7.356,3.878,7.357,3.869C7.355,3.865,7.356,3.862,7.36,3.861c0.005-0.007,0.011-0.013,0.012-0.022
		C7.37,3.835,7.371,3.832,7.375,3.831c0.005-0.007,0.011-0.013,0.012-0.022C7.385,3.805,7.386,3.802,7.39,3.801
		c0.008-0.008,0.005-0.022,0.014-0.029l0-0.001C7.413,3.762,7.41,3.749,7.42,3.741l0,0c0.053,0.001,0.059,0.038,0.058,0.078
		C7.467,4.089,7.449,4.359,7.432,4.63C7.419,4.832,7.409,5.035,7.397,5.238c-0.014,0.23-0.024,0.461-0.042,0.691
		c-0.002,0.025-0.004,0.05-0.003,0.075c0.003,0.114-0.01,0.225-0.053,0.332c-0.006,0.033-0.023,0.061-0.04,0.088
		C7.234,6.467,7.233,6.504,7.256,6.55c0.051,0.098,0.095,0.199,0.142,0.298C7.407,6.866,7.413,6.885,7.42,6.904
		c0.049,0.115,0.037,0.234,0.029,0.356C7.434,7.462,7.425,7.665,7.412,7.868c-0.014,0.233-0.028,0.466-0.04,0.699
		c-0.007,0.128-0.02,0.255-0.02,0.383c0,0.035,0.002,0.071-0.015,0.103C7.319,9.085,7.297,9.102,7.268,9.064
		c-0.041-0.06-0.068-0.128-0.1-0.193c-0.149-0.296-0.296-0.593-0.443-0.89C6.598,7.728,6.471,7.474,6.345,7.22
		c-0.096-0.193-0.193-0.386-0.29-0.579C6.044,6.621,6.035,6.6,6.024,6.58c-0.009-0.017-0.011-0.033-0.001-0.05
		C6.03,6.52,6.035,6.508,6.04,6.497c0.081-0.164,0.162-0.329,0.244-0.493c0.13-0.261,0.26-0.521,0.39-0.782
		C6.803,4.967,6.93,4.711,7.058,4.455C7.078,4.417,7.1,4.38,7.121,4.343C7.124,4.337,7.129,4.332,7.131,4.325z"/>
	<path fill="#8D00FF" d="M7.268,9.064c0.009,0.003,0.019,0.009,0.028,0.009c0.015,0,0.019-0.014,0.024-0.025
		c0.009-0.016,0.008-0.034,0.008-0.051c0-0.038,0-0.075,0-0.113c0-0.035-0.002-0.07,0.011-0.104
		c0.006-0.016,0.003-0.035,0.004-0.052C7.346,8.653,7.34,8.578,7.356,8.503c0.01-0.043,0.002-0.09,0.002-0.135
		c0-0.04-0.002-0.08,0.011-0.119c0.007-0.02,0.003-0.045,0.004-0.067C7.376,8.114,7.369,8.047,7.387,7.98
		c0.009-0.035,0.002-0.075,0.002-0.113C7.39,7.822,7.39,7.778,7.4,7.733c0.009-0.043,0.003-0.09,0.004-0.135
		c0.001-0.04-0.001-0.079,0.011-0.119c0.008-0.025,0.003-0.055,0.004-0.082c0.003-0.06-0.009-0.121,0.013-0.179
		C7.43,7.131,7.445,7.043,7.423,6.956C7.419,6.94,7.421,6.921,7.42,6.904c0.03,0.058,0.062,0.114,0.09,0.173
		c0.107,0.224,0.212,0.45,0.318,0.674c0.134,0.284,0.27,0.567,0.405,0.85c0.031,0.066,0.064,0.131,0.095,0.196
		c0.005,0.011,0.008,0.023,0.012,0.035C8.358,8.891,8.366,8.95,8.363,9.011c-0.011,0.233-0.026,0.465-0.04,0.698
		c-0.012,0.2-0.023,0.4-0.035,0.6c-0.006,0.098-0.021,0.195-0.018,0.293c0.001,0.022-0.003,0.045-0.021,0.062
		c-0.053-0.002-0.105-0.004-0.158-0.006c-0.025-0.001-0.043-0.012-0.052-0.036c-0.004-0.009-0.009-0.018-0.013-0.027
		c-0.172-0.346-0.344-0.692-0.517-1.038C7.438,9.413,7.365,9.27,7.293,9.126C7.283,9.106,7.269,9.088,7.268,9.064z"/>
	<path fill="#9500FF" d="M7.299,6.336c-0.001-0.02-0.003-0.04,0.006-0.059c0.008-0.019,0.009-0.039,0.009-0.059
		c0-0.01-0.002-0.021,0.001-0.03c0.023-0.076,0.012-0.154,0.014-0.232c0-0.01-0.002-0.021,0.001-0.03
		c0.023-0.069,0.012-0.139,0.014-0.209c0.001-0.027,0-0.055,0.009-0.082c0.006-0.019,0.006-0.039,0.006-0.059
		c0.003-0.075-0.003-0.149,0.013-0.224c0.01-0.046,0.002-0.095,0.002-0.143c0-0.03-0.001-0.06,0.009-0.089
		C7.389,5.101,7.388,5.08,7.389,5.06c0.001-0.045,0-0.09,0-0.136c0-0.015-0.003-0.031,0.002-0.045
		C7.41,4.826,7.402,4.771,7.404,4.716c0.001-0.045,0.001-0.089,0.011-0.134c0.01-0.043,0.003-0.09,0.004-0.135
		c0.001-0.04-0.002-0.08,0.011-0.119c0.007-0.02,0.003-0.045,0.004-0.067c0.003-0.067-0.003-0.134,0.012-0.202
		c0.01-0.045,0.002-0.095,0.003-0.143C7.45,3.879,7.447,3.842,7.46,3.805c0.011-0.033-0.016-0.049-0.04-0.064
		C7.424,3.71,7.442,3.685,7.455,3.659c0.118-0.238,0.237-0.475,0.356-0.713c0.074-0.148,0.149-0.295,0.223-0.443
		c0.013-0.025,0.027-0.042,0.058-0.031C8.144,2.459,8.197,2.47,8.25,2.466c0.047-0.004,0.062,0.022,0.065,0.062
		c0.004,0.041-0.006,0.08-0.008,0.12C8.3,2.836,8.283,3.024,8.273,3.212C8.26,3.432,8.247,3.653,8.232,3.873
		C8.219,4.066,8.211,4.259,8.197,4.452C8.194,4.497,8.19,4.542,8.173,4.584C8.166,4.602,8.159,4.621,8.15,4.639
		c-0.086,0.175-0.173,0.35-0.26,0.525C7.763,5.422,7.634,5.679,7.506,5.936C7.444,6.06,7.382,6.182,7.32,6.305
		C7.314,6.316,7.306,6.326,7.299,6.336z"/>
	<path fill="#8800FF" d="M8.173,4.584c0-0.043,0-0.085,0-0.128c0-0.037-0.001-0.074,0.011-0.112c0.008-0.023,0.003-0.05,0.004-0.075
		c0.002-0.065-0.004-0.13,0.013-0.194c0.01-0.038,0.002-0.08,0.003-0.12c0.001-0.042,0-0.084,0.011-0.127
		c0.009-0.033,0.003-0.07,0.004-0.105c0.001-0.04-0.002-0.08,0.011-0.119c0.007-0.02,0.003-0.045,0.004-0.067
		C8.236,3.47,8.229,3.402,8.246,3.335C8.255,3.3,8.248,3.26,8.249,3.223C8.249,3.178,8.248,3.133,8.26,3.088
		c0.009-0.033,0.003-0.07,0.004-0.105c0.001-0.04,0.002-0.079,0.011-0.119c0.009-0.043,0.003-0.09,0.004-0.135
		C8.28,2.689,8.274,2.649,8.29,2.61c0.005-0.011,0.003-0.025,0.003-0.037c0-0.107,0.009-0.099-0.096-0.099
		c-0.035,0-0.07-0.001-0.105-0.002c0.023-0.012,0.049-0.009,0.074-0.01c0.191-0.007,0.381-0.013,0.572-0.019
		c0.143-0.005,0.286-0.01,0.429-0.015c0.025-0.001,0.05-0.006,0.074,0.003c0.006,0.014,0.001,0.025-0.005,0.036
		C9.162,2.613,9.089,2.758,9.016,2.904c-0.077,0.155-0.153,0.31-0.23,0.465c-0.17,0.341-0.339,0.683-0.51,1.023
		C8.244,4.458,8.208,4.52,8.173,4.584z"/>
	<path fill="#7B00FF" d="M8.249,10.664c0-0.058,0-0.115-0.001-0.173c0-0.025-0.001-0.05,0.009-0.074
		c0.004-0.009,0.006-0.02,0.006-0.029c-0.009-0.113,0.023-0.224,0.016-0.337C8.277,10.014,8.276,9.976,8.29,9.94
		c0.006-0.016,0.003-0.035,0.004-0.052c0.003-0.08-0.005-0.159,0.013-0.239c0.009-0.041,0.002-0.085,0.002-0.128
		c0-0.03-0.001-0.06,0.01-0.089C8.324,9.416,8.323,9.397,8.324,9.38c0.001-0.04,0-0.08,0-0.12c0-0.015-0.003-0.031,0.001-0.045
		C8.351,9.09,8.333,8.965,8.34,8.84c0-0.003,0-0.005,0.001-0.008C8.35,8.85,8.361,8.866,8.37,8.884
		c0.051,0.106,0.101,0.213,0.151,0.32c0.161,0.34,0.322,0.68,0.484,1.019c0.071,0.149,0.143,0.298,0.214,0.448
		c0.008,0.016,0.016,0.032,0.022,0.048c0.008,0.019,0,0.03-0.019,0.029c-0.135-0.011-0.27-0.022-0.405-0.033
		c-0.085-0.007-0.17-0.014-0.255-0.02c-0.09-0.007-0.18-0.013-0.27-0.02C8.278,10.672,8.264,10.667,8.249,10.664z"/>
	<path fill="#9500FF" d="M7.42,3.741c0,0.012-0.003,0.023-0.015,0.029C7.404,3.758,7.409,3.748,7.42,3.741z"/>
	<path fill="#9500FF" d="M7.405,3.771c0,0.012-0.003,0.023-0.014,0.029C7.389,3.788,7.394,3.778,7.405,3.771z"/>
	<path fill="#9500FF" d="M7.176,4.234C7.173,4.24,7.169,4.246,7.166,4.253C7.165,4.244,7.169,4.238,7.176,4.234z"/>
	<path fill="#9500FF" d="M7.131,4.325c0,0.008-0.003,0.014-0.011,0.018C7.12,4.335,7.124,4.329,7.131,4.325z"/>
	<path fill="#9500FF" d="M7.146,4.294C7.143,4.3,7.139,4.307,7.136,4.313C7.135,4.304,7.138,4.298,7.146,4.294z"/>
	<path fill="#9500FF" d="M7.161,4.264C7.158,4.27,7.154,4.276,7.151,4.283C7.15,4.274,7.154,4.268,7.161,4.264z"/>
	<path fill="#9500FF" d="M7.206,4.173C7.203,4.179,7.199,4.186,7.196,4.192C7.195,4.184,7.198,4.177,7.206,4.173z"/>
	<path fill="#9500FF" d="M7.221,4.143c-0.004,0.007-0.007,0.013-0.011,0.02C7.21,4.153,7.213,4.147,7.221,4.143z"/>
	<path fill="#9500FF" d="M7.387,3.809c0,0.009-0.004,0.017-0.012,0.022C7.375,3.821,7.378,3.813,7.387,3.809z"/>
	<path fill="#9500FF" d="M7.191,4.203C7.188,4.21,7.184,4.216,7.181,4.222C7.18,4.214,7.183,4.207,7.191,4.203z"/>
	<path fill="#9500FF" d="M7.372,3.839c0,0.009-0.004,0.017-0.012,0.022C7.359,3.851,7.363,3.844,7.372,3.839z"/>
	<path fill="#9500FF" d="M7.236,4.112c0,0.009-0.004,0.015-0.011,0.02C7.225,4.123,7.228,4.116,7.236,4.112z"/>
	<path fill="#9500FF" d="M7.342,3.9c0,0.009-0.004,0.016-0.011,0.021C7.33,3.912,7.333,3.904,7.342,3.9z"/>
	<path fill="#9500FF" d="M7.327,3.93c0,0.009-0.004,0.016-0.012,0.021C7.315,3.942,7.318,3.935,7.327,3.93z"/>
	<path fill="#9500FF" d="M7.312,3.96c0,0.009-0.004,0.016-0.011,0.021C7.3,3.972,7.303,3.965,7.312,3.96z"/>
	<path fill="#9500FF" d="M7.297,3.991c0,0.009-0.004,0.016-0.011,0.021C7.285,4.002,7.288,3.995,7.297,3.991z"/>
	<path fill="#9500FF" d="M7.281,4.021c0,0.009-0.004,0.016-0.011,0.021C7.27,4.032,7.273,4.025,7.281,4.021z"/>
	<path fill="#9500FF" d="M7.251,4.082c0,0.009-0.004,0.015-0.011,0.02C7.24,4.093,7.243,4.086,7.251,4.082z"/>
	<path fill="#9500FF" d="M7.357,3.869c0,0.009-0.004,0.017-0.012,0.022C7.345,3.881,7.348,3.874,7.357,3.869z"/>
	<path fill="#9500FF" d="M7.266,4.051c0,0.009-0.004,0.016-0.011,0.02C7.255,4.063,7.258,4.056,7.266,4.051z"/>
	<path fill="#7D00FF" d="M24.537,7.027c0.076-0.161,0.15-0.323,0.228-0.483c0.018-0.038,0.017-0.068-0.001-0.105
		c-0.114-0.224-0.225-0.449-0.337-0.673c-0.01-0.02-0.024-0.039-0.026-0.062c-0.019-0.058-0.022-0.117-0.023-0.178
		c-0.009-0.447,0.018-0.893,0.019-1.34c0.001-0.178,0.01-0.356,0.012-0.534c0-0.013,0-0.025,0.002-0.038
		c0.003-0.022,0.005-0.047,0.028-0.058c0.024-0.011,0.043,0.005,0.06,0.021c0.009,0.008,0.018,0.017,0.026,0.027
		c0.022,0.022,0.033,0.05,0.046,0.077c0.109,0.22,0.218,0.441,0.328,0.661c0.133,0.267,0.266,0.535,0.4,0.802
		c0.119,0.238,0.238,0.476,0.357,0.714c0.107,0.213,0.213,0.426,0.32,0.64c0.007,0.013,0.013,0.027,0.02,0.04
		c0.007,0.014,0.008,0.029,0,0.043c-0.007,0.013-0.013,0.027-0.02,0.04c-0.077,0.155-0.153,0.311-0.23,0.466
		c-0.133,0.267-0.266,0.535-0.4,0.802c-0.124,0.249-0.249,0.498-0.373,0.748c-0.136,0.272-0.271,0.543-0.407,0.815
		c-0.009,0.018-0.021,0.034-0.032,0.051c-0.004,0.006-0.007,0.011-0.01,0.017c0.001,0.005,0,0.009-0.005,0.012
		c-0.057,0.01-0.061-0.033-0.063-0.069c-0.005-0.09-0.008-0.181,0.002-0.271c0.007-0.063,0.011-0.125,0.01-0.188
		c-0.008-0.414,0.018-0.828,0.019-1.243c0-0.175,0.008-0.351,0.012-0.527C24.5,7.163,24.523,7.096,24.537,7.027z"/>
	<path fill="#7100FF" d="M24.537,7.027c0.005,0.052,0.007,0.104-0.012,0.155c-0.007,0.018-0.003,0.04-0.003,0.06
		c0,0.118,0,0.236,0,0.354c0,0.03,0,0.059-0.009,0.089c-0.007,0.023-0.006,0.05-0.006,0.074c0,0.193,0,0.386,0,0.58
		c0,0.035,0.001,0.069-0.011,0.104c-0.007,0.02-0.004,0.045-0.004,0.067c0,0.193,0,0.386,0,0.58c0,0.03,0.002,0.06-0.01,0.089
		c-0.004,0.009-0.004,0.02-0.004,0.03c0,0.09,0,0.181,0,0.271c0,0.029,0.011,0.049,0.042,0.052c-0.036,0.075-0.071,0.15-0.107,0.224
		c-0.073,0.149-0.146,0.298-0.22,0.446c-0.069,0.139-0.141,0.278-0.21,0.417c-0.015,0.031-0.035,0.042-0.069,0.045
		c-0.168,0.012-0.335,0.027-0.503,0.04c-0.158,0.012-0.316,0.024-0.473,0.036c-0.028,0.002-0.055,0.006-0.082,0.008
		c-0.027,0.002-0.055,0.009-0.082,0.001c-0.004-0.023,0.009-0.039,0.018-0.057c0.188-0.397,0.377-0.794,0.565-1.191
		c0.124-0.261,0.248-0.521,0.372-0.782c0.131-0.274,0.261-0.549,0.391-0.823c0.132-0.277,0.263-0.553,0.395-0.83
		C24.52,7.052,24.529,7.04,24.537,7.027z"/>
	<path fill="#6C00FF" d="M24.523,3.604c-0.029-0.008-0.049-0.034-0.08-0.037c-0.024,0.028-0.011,0.062-0.012,0.093
		c-0.002,0.113,0,0.226-0.001,0.339c0,0.04,0.002,0.08-0.011,0.119c-0.007,0.02-0.004,0.045-0.004,0.067c0,0.193,0,0.387,0,0.58
		c0,0.035,0.001,0.069-0.011,0.104c-0.007,0.023-0.004,0.05-0.004,0.075c0,0.223,0,0.447,0,0.67c0,0.03-0.001,0.06-0.001,0.09
		c-0.019-0.018-0.026-0.042-0.037-0.065c-0.19-0.382-0.38-0.764-0.57-1.146c-0.128-0.256-0.256-0.512-0.384-0.768
		c-0.13-0.261-0.26-0.521-0.39-0.782c-0.073-0.146-0.146-0.292-0.219-0.438c-0.011-0.022-0.026-0.043-0.028-0.067
		c0.011-0.014,0.024-0.01,0.036-0.01c0.196,0.007,0.392,0.015,0.587,0.022c0.08,0.003,0.161,0.005,0.241,0.008
		c0.1,0.004,0.201,0.009,0.301,0.012c0.02,0.001,0.034,0.007,0.042,0.025c0.003,0.007,0.007,0.013,0.01,0.02
		c0.175,0.351,0.349,0.701,0.524,1.052C24.516,3.58,24.519,3.592,24.523,3.604z"/>
	<path fill="#7100FF" d="M24.523,9.519c0.003-0.006,0.007-0.011,0.01-0.017C24.534,9.51,24.53,9.516,24.523,9.519z"/>
	<path fill="#A400FF" d="M26.374,3.631c0.1,0.003,0.198,0.005,0.295,0.008c0.116,0.004,0.231,0.009,0.347,0.012
		c0.029,0.001,0.047,0.01,0.058,0.037c0.014,0.032,0.031,0.063,0.046,0.095c0.168,0.337,0.336,0.674,0.505,1.011
		c0.128,0.256,0.255,0.512,0.383,0.768c0.13,0.261,0.26,0.521,0.391,0.782c0.018,0.036,0.037,0.071,0.057,0.106
		c0.013,0.022,0.011,0.042-0.001,0.064c-0.021,0.04-0.043,0.08-0.063,0.12c-0.103,0.207-0.205,0.414-0.307,0.621
		c-0.137,0.277-0.275,0.553-0.413,0.829c-0.128,0.256-0.256,0.512-0.384,0.768c-0.071,0.141-0.143,0.282-0.213,0.424
		c-0.015,0.03-0.031,0.044-0.067,0.047c-0.203,0.014-0.406,0.031-0.609,0.047c-0.026,0.002-0.032-0.008-0.022-0.031
		c0.027-0.059,0.055-0.118,0.083-0.177c0.103-0.215,0.206-0.431,0.308-0.646c0.155-0.327,0.31-0.653,0.466-0.98
		c0.126-0.265,0.252-0.531,0.379-0.796c0.041-0.086,0.082-0.173,0.125-0.257c0.018-0.034,0.018-0.062,0-0.098
		c-0.095-0.185-0.188-0.372-0.281-0.559c-0.186-0.373-0.372-0.746-0.557-1.12c-0.131-0.263-0.262-0.526-0.394-0.789
		c-0.039-0.079-0.08-0.157-0.12-0.235C26.381,3.671,26.372,3.658,26.374,3.631z"/>
</g>
</svg>
