<?xml version="1.0" encoding="utf-8"?>
<!-- Generator: Adobe Illustrator 24.3.0, SVG Export Plug-In . SVG Version: 6.00 Build 0)  -->
<svg version="1.1" id="Слой_1" xmlns="http://www.w3.org/2000/svg" xmlns:xlink="http://www.w3.org/1999/xlink" x="0px" y="0px"
	 width="32px" height="13px" viewBox="0 0 32 13" enable-background="new 0 0 32 13" xml:space="preserve">
<g>
	<path fill="#737373" d="M31.99,6.475c0.004,0,0.007,0,0.01,0.001c0,0.156,0,0.312,0,0.468l-0.006-0.002l-0.005,0.002
		c-0.02-0.018-0.02-0.043-0.02-0.066c-0.001-0.113-0.001-0.225,0-0.338C31.969,6.517,31.969,6.492,31.99,6.475z"/>
	<path d="M23.317,6.578c-0.105,0.166-0.208,0.33-0.311,0.494c-0.123,0.194-0.246,0.388-0.368,0.582
		c-0.155,0.244-0.31,0.489-0.464,0.733c-0.143,0.226-0.285,0.452-0.428,0.678c-0.156,0.246-0.312,0.492-0.468,0.738
		c-0.165,0.261-0.33,0.523-0.496,0.784c-0.156,0.246-0.312,0.492-0.468,0.738c-0.121,0.191-0.241,0.381-0.36,0.572
		c-0.016,0.025-0.033,0.037-0.062,0.034c-0.012-0.001-0.024,0-0.036,0c-2.205,0-4.41,0-6.614,0c-0.026,0-0.055,0.006-0.077-0.003
		c-0.025-0.011-0.034-0.043-0.049-0.066c-0.12-0.189-0.239-0.378-0.358-0.567c-0.134-0.213-0.268-0.425-0.403-0.638
		c-0.131-0.207-0.263-0.414-0.394-0.622c-0.156-0.246-0.311-0.493-0.467-0.739c-0.143-0.226-0.287-0.451-0.43-0.677
		c-0.142-0.224-0.283-0.449-0.425-0.673c-0.156-0.246-0.312-0.492-0.468-0.738C10.044,7.01,9.918,6.811,9.791,6.612
		C9.777,6.589,9.774,6.571,9.79,6.547C9.828,6.491,9.864,6.433,9.9,6.376c0.133-0.211,0.267-0.422,0.4-0.633
		c0.117-0.186,0.234-0.371,0.352-0.557c0.121-0.191,0.241-0.381,0.362-0.571c0.157-0.248,0.314-0.495,0.471-0.743
		c0.155-0.245,0.309-0.489,0.463-0.734c0.13-0.206,0.26-0.411,0.391-0.617c0.133-0.211,0.267-0.422,0.4-0.632
		c0.12-0.189,0.239-0.378,0.359-0.566c0.017-0.027,0.034-0.054,0.051-0.081c0.007-0.011,0.015-0.018,0.029-0.017
		c0.014,0.001,0.028,0,0.042,0c2.217,0,4.434,0,6.65,0c0.063,0,0.053-0.012,0.093,0.053c0.165,0.262,0.331,0.522,0.497,0.784
		c0.189,0.298,0.377,0.597,0.566,0.896c0.155,0.245,0.31,0.489,0.465,0.733c0.155,0.245,0.308,0.49,0.463,0.734
		c0.156,0.246,0.312,0.492,0.468,0.738c0.179,0.283,0.357,0.567,0.537,0.851C23.076,6.2,23.195,6.387,23.317,6.578z"/>
	<path d="M28.008,11.731c-0.034,0-0.058,0-0.082,0c-0.668,0-1.335,0-2.003,0c-0.029,0-0.059-0.003-0.088,0.009
		c-0.017,0.007-0.039,0.002-0.059,0.002c-0.618,0-1.235,0-1.853,0c-0.812,0-1.623,0-2.435,0c-0.024,0-0.048,0-0.07,0
		c-0.009-0.013-0.001-0.021,0.004-0.029c0.121-0.24,0.242-0.481,0.364-0.721c0.096-0.19,0.194-0.38,0.29-0.571
		c0.086-0.171,0.172-0.342,0.258-0.513c0.085-0.169,0.172-0.338,0.258-0.507c0.025-0.05,0.052-0.099,0.075-0.15
		c0.01-0.022,0.032-0.043,0.017-0.072c-0.002-0.003,0.004-0.011,0.007-0.016c0.079-0.157,0.158-0.313,0.237-0.47
		c0.075-0.148,0.149-0.295,0.224-0.443c0.077-0.151,0.154-0.302,0.23-0.454c0.086-0.171,0.172-0.342,0.258-0.513
		c0.085-0.167,0.17-0.334,0.255-0.501c0.041-0.08,0.08-0.161,0.121-0.24c0.012-0.024,0.011-0.043-0.001-0.067
		c-0.052-0.101-0.103-0.202-0.155-0.304c-0.076-0.149-0.152-0.299-0.228-0.448c-0.072-0.142-0.145-0.284-0.217-0.427
		c-0.077-0.151-0.154-0.302-0.231-0.453c-0.073-0.144-0.147-0.288-0.221-0.432c-0.086-0.169-0.172-0.338-0.258-0.507
		C22.62,3.738,22.534,3.569,22.448,3.4c-0.075-0.148-0.149-0.295-0.224-0.443c-0.083-0.164-0.167-0.327-0.25-0.49
		c-0.075-0.147-0.151-0.295-0.226-0.442c-0.111-0.217-0.221-0.434-0.331-0.651c-0.007-0.014-0.016-0.027-0.015-0.045
		c0.024-0.008,0.049-0.004,0.072-0.004c0.674,0,1.347,0,2.021,0c0.342,0,0.684-0.001,1.025-0.001c1.135,0,2.271,0.001,3.406,0.001
		c0.022,0,0.053-0.012,0.066,0.01c0.01,0.018-0.014,0.039-0.024,0.058c-0.073,0.146-0.148,0.292-0.222,0.437
		c-0.076,0.149-0.151,0.299-0.227,0.448c-0.086,0.169-0.172,0.338-0.258,0.507c-0.072,0.142-0.144,0.285-0.217,0.427
		c-0.078,0.153-0.156,0.306-0.233,0.459c-0.097,0.192-0.194,0.384-0.292,0.576c-0.108,0.213-0.217,0.426-0.326,0.64
		c-0.098,0.194-0.196,0.388-0.295,0.582c-0.097,0.19-0.194,0.38-0.291,0.57c-0.092,0.181-0.184,0.363-0.276,0.544
		c-0.004,0.007-0.006,0.015-0.011,0.021c-0.012,0.019-0.009,0.037,0.002,0.056c0.039,0.072,0.077,0.144,0.115,0.217
		c0.088,0.166,0.176,0.331,0.264,0.497c0.086,0.162,0.172,0.324,0.258,0.486c0.086,0.162,0.171,0.325,0.257,0.487
		c0.086,0.162,0.172,0.324,0.258,0.486c0.075,0.141,0.149,0.282,0.224,0.423c0.074,0.139,0.148,0.278,0.222,0.418
		c0.076,0.143,0.151,0.286,0.226,0.429c0.085,0.16,0.171,0.32,0.256,0.481c0.087,0.164,0.173,0.328,0.26,0.492
		c0.073,0.137,0.146,0.275,0.219,0.412C27.922,11.567,27.962,11.644,28.008,11.731z"/>
	<path d="M11.675,1.351c0.003,0.02-0.004,0.03-0.009,0.04c-0.074,0.146-0.148,0.291-0.222,0.437
		c-0.086,0.171-0.172,0.342-0.258,0.513c-0.086,0.169-0.172,0.338-0.257,0.507c-0.086,0.171-0.172,0.342-0.258,0.513
		c-0.084,0.166-0.167,0.331-0.251,0.497c-0.009,0.018-0.02,0.032-0.013,0.055c0.003,0.01-0.008,0.026-0.014,0.038
		c-0.048,0.096-0.097,0.192-0.146,0.288c-0.076,0.149-0.151,0.299-0.227,0.448C9.945,4.832,9.872,4.976,9.799,5.12
		C9.724,5.27,9.648,5.419,9.572,5.568C9.485,5.741,9.398,5.913,9.31,6.086C9.249,6.207,9.188,6.328,9.127,6.449
		C9.108,6.487,9.089,6.524,9.069,6.561c-0.008,0.016-0.008,0.03,0,0.045C9.128,6.72,9.186,6.834,9.244,6.947
		C9.319,7.095,9.394,7.242,9.47,7.39C9.545,7.537,9.62,7.684,9.695,7.832C9.781,8.001,9.867,8.17,9.953,8.338
		c0.086,0.169,0.172,0.337,0.258,0.506c0.073,0.144,0.147,0.288,0.22,0.432c0.099,0.194,0.197,0.387,0.296,0.581
		c0.085,0.167,0.17,0.334,0.255,0.501c0.111,0.217,0.221,0.433,0.332,0.65c0.086,0.169,0.171,0.338,0.257,0.507
		c0.038,0.075,0.076,0.149,0.114,0.224c0.004,0.007,0.009,0.013,0.006,0.022c-0.003,0.002-0.006,0.005-0.009,0.005
		c-2.189,0-4.377,0.001-6.566,0.001c-0.006,0-0.011-0.002-0.016-0.004c-0.005-0.019,0.007-0.032,0.014-0.045
		c0.113-0.222,0.226-0.445,0.339-0.667c0.096-0.188,0.192-0.376,0.288-0.565c0.076-0.149,0.151-0.299,0.227-0.449
		C6.039,9.898,6.11,9.757,6.181,9.617c0.063-0.124,0.126-0.249,0.19-0.373C6.46,9.069,6.549,8.895,6.637,8.721
		c0.098-0.194,0.196-0.388,0.294-0.582C7.027,7.951,7.124,7.763,7.22,7.574c0.075-0.148,0.149-0.296,0.224-0.443
		c0.062-0.123,0.125-0.245,0.188-0.368c0.048-0.094,0.096-0.188,0.144-0.282c0.007-0.014,0.007-0.025,0-0.039
		c-0.06-0.112-0.12-0.225-0.18-0.338C7.519,5.961,7.444,5.818,7.368,5.675C7.295,5.538,7.222,5.4,7.15,5.263
		C7.074,5.12,6.998,4.978,6.923,4.835C6.839,4.676,6.755,4.517,6.671,4.359C6.595,4.216,6.519,4.073,6.444,3.931
		c-0.099-0.187-0.198-0.373-0.297-0.56C6.049,3.187,5.953,3.004,5.856,2.82C5.747,2.616,5.638,2.412,5.53,2.208
		C5.454,2.065,5.379,1.922,5.304,1.779C5.242,1.663,5.18,1.546,5.119,1.43c-0.01-0.019-0.022-0.038-0.026-0.058
		C5.106,1.357,5.12,1.363,5.133,1.363c0.204,0,0.408,0,0.612,0c0.476,0,0.951,0,1.427,0c0.028,0,0.055,0.003,0.082-0.009
		C7.269,1.346,7.29,1.351,7.308,1.351c0.376,0,0.752,0,1.127,0c1.055,0,2.111,0,3.166,0C11.625,1.351,11.649,1.351,11.675,1.351z"/>
	<path d="M3.787,1.509C3.825,1.576,3.86,1.638,3.895,1.7c0.099,0.178,0.198,0.355,0.297,0.533c0.099,0.178,0.197,0.356,0.296,0.534
		c0.094,0.169,0.188,0.338,0.283,0.507C4.859,3.433,4.948,3.591,5.036,3.75c0.109,0.195,0.218,0.39,0.326,0.585
		C5.449,4.49,5.535,4.645,5.621,4.8C5.705,4.952,5.79,5.104,5.874,5.255c0.087,0.157,0.175,0.314,0.262,0.471
		C6.22,5.877,6.305,6.029,6.389,6.181c0.05,0.089,0.098,0.178,0.15,0.266c0.016,0.028,0.014,0.05-0.001,0.077
		C6.455,6.669,6.374,6.816,6.292,6.962C6.194,7.138,6.096,7.313,5.997,7.489C5.876,7.707,5.754,7.924,5.632,8.142
		C5.536,8.314,5.44,8.487,5.344,8.659C5.236,8.853,5.128,9.046,5.02,9.239C4.897,9.461,4.774,9.682,4.65,9.903
		c-0.096,0.172-0.193,0.344-0.29,0.517c-0.098,0.176-0.196,0.352-0.294,0.528c-0.082,0.148-0.165,0.296-0.248,0.444
		c-0.006,0.01-0.013,0.02-0.02,0.03c-0.014-0.008-0.02-0.02-0.026-0.032c-0.132-0.235-0.263-0.47-0.394-0.705
		c-0.108-0.193-0.218-0.386-0.326-0.579c-0.109-0.195-0.218-0.39-0.327-0.585C2.606,9.309,2.486,9.097,2.367,8.885
		C2.269,8.709,2.171,8.533,2.072,8.358C1.977,8.187,1.881,8.017,1.785,7.847C1.686,7.671,1.588,7.495,1.489,7.319
		c-0.096-0.17-0.191-0.341-0.287-0.511C1.13,6.679,1.058,6.55,0.985,6.422c-0.016-0.027-0.017-0.049,0-0.077
		c0.117-0.2,0.233-0.4,0.348-0.6C1.444,5.553,1.554,5.362,1.665,5.17c0.109-0.188,0.218-0.376,0.327-0.564
		C2.09,4.436,2.188,4.267,2.285,4.098C2.381,3.932,2.477,3.766,2.573,3.6c0.1-0.173,0.2-0.345,0.299-0.518
		c0.095-0.164,0.19-0.328,0.285-0.492C3.268,2.399,3.379,2.207,3.49,2.015c0.095-0.164,0.19-0.328,0.285-0.492
		C3.776,1.52,3.78,1.517,3.787,1.509z"/>
	<path d="M31.99,6.475c0,0.107-0.001,0.214-0.001,0.321c0,0.05,0,0.099,0.001,0.149c-0.019,0.053-0.052,0.098-0.08,0.147
		c-0.098,0.172-0.197,0.342-0.296,0.513c-0.109,0.188-0.218,0.376-0.327,0.564c-0.109,0.188-0.217,0.377-0.326,0.565
		c-0.11,0.19-0.22,0.38-0.33,0.57c-0.132,0.228-0.263,0.456-0.395,0.684c-0.12,0.207-0.24,0.414-0.36,0.621
		c-0.098,0.169-0.195,0.339-0.293,0.508c-0.083,0.143-0.165,0.287-0.248,0.43c-0.007,0.012-0.016,0.023-0.025,0.036
		c-0.029-0.03-0.043-0.068-0.062-0.102c-0.159-0.284-0.317-0.568-0.475-0.852c-0.143-0.258-0.286-0.516-0.43-0.774
		c-0.096-0.173-0.193-0.345-0.289-0.517c-0.096-0.172-0.192-0.345-0.288-0.518c-0.098-0.176-0.196-0.352-0.294-0.528
		c-0.11-0.197-0.219-0.394-0.329-0.591c-0.109-0.195-0.218-0.39-0.326-0.585c-0.09-0.162-0.18-0.324-0.27-0.486
		c-0.008-0.014-0.008-0.024,0-0.038c0.069-0.122,0.136-0.244,0.204-0.366c0.086-0.155,0.173-0.31,0.26-0.465
		c0.097-0.174,0.195-0.348,0.292-0.522c0.075-0.134,0.15-0.268,0.224-0.402c0.095-0.171,0.19-0.341,0.286-0.512
		c0.087-0.155,0.173-0.31,0.26-0.465c0.111-0.198,0.222-0.397,0.333-0.595c0.107-0.192,0.214-0.383,0.321-0.575
		c0.111-0.198,0.222-0.397,0.333-0.595c0.075-0.134,0.149-0.269,0.223-0.403c0.004-0.007,0.009-0.013,0.013-0.02
		c0.013,0.006,0.016,0.018,0.021,0.028c0.161,0.287,0.322,0.574,0.483,0.861c0.12,0.214,0.241,0.427,0.361,0.641
		c0.143,0.254,0.284,0.508,0.426,0.762c0.132,0.235,0.264,0.469,0.396,0.704c0.121,0.216,0.241,0.432,0.362,0.648
		c0.097,0.172,0.194,0.344,0.291,0.516c0.115,0.205,0.23,0.411,0.345,0.616C31.985,6.455,31.987,6.465,31.99,6.475z"/>
	<path fill="#A50506" d="M19.828,9.175c0.028-0.064,0.069-0.121,0.104-0.182c0.086-0.148,0.175-0.295,0.262-0.443
		c0.082-0.139,0.165-0.278,0.247-0.417c0.103-0.175,0.206-0.351,0.31-0.526c0.093-0.158,0.187-0.316,0.281-0.474
		c0.082-0.139,0.164-0.278,0.247-0.417c0.006-0.01,0.011-0.021,0.018-0.031c0.01-0.017,0.01-0.034-0.001-0.051
		c-0.012-0.019-0.022-0.038-0.034-0.056c-0.136-0.223-0.273-0.446-0.409-0.669c-0.163-0.267-0.325-0.536-0.488-0.803
		c-0.236-0.387-0.472-0.773-0.708-1.16c-0.046-0.075-0.092-0.15-0.137-0.225c-0.007-0.012-0.011-0.025-0.016-0.038
		c0.039-0.007,0.047,0.039,0.08,0.045c0.018-0.016,0.011-0.037,0.011-0.056c0-0.515,0-1.029,0.001-1.544
		c0-0.053-0.014-0.102-0.03-0.152c-0.008-0.024-0.021-0.049,0.001-0.073c0.041,0.049,0.071,0.106,0.105,0.16
		c0.1,0.156,0.199,0.314,0.298,0.471C20.113,2.767,20.26,3,20.407,3.233c0.086,0.137,0.174,0.272,0.26,0.409
		c0.141,0.223,0.281,0.446,0.421,0.668c0.1,0.159,0.201,0.317,0.301,0.475c0.103,0.162,0.205,0.324,0.307,0.486
		c0.173,0.273,0.346,0.546,0.518,0.82c0.095,0.15,0.189,0.3,0.284,0.451c0.003,0.005,0.006,0.01,0.01,0.015
		c0.012,0.016,0.013,0.029,0.001,0.048c-0.042,0.063-0.081,0.128-0.122,0.192c-0.086,0.137-0.173,0.273-0.259,0.41
		c-0.083,0.131-0.167,0.263-0.25,0.394c-0.102,0.162-0.203,0.325-0.306,0.486c-0.144,0.228-0.289,0.455-0.433,0.682
		c-0.143,0.226-0.285,0.453-0.427,0.679c-0.073,0.116-0.148,0.232-0.221,0.349c-0.096,0.152-0.192,0.304-0.288,0.455
		c-0.077,0.121-0.154,0.243-0.231,0.364c-0.038,0.061-0.076,0.122-0.115,0.182c-0.005,0.008-0.012,0.015-0.019,0.023
		c-0.024-0.042,0.001-0.08,0.017-0.112c0.04-0.078,0.047-0.159,0.047-0.244c-0.002-0.396-0.001-0.791-0.001-1.187
		C19.904,9.188,19.904,9.188,19.828,9.175z"/>
	<path fill="#666666" d="M18.12,9.955c0.018,0.072,0.034,0.138,0.05,0.204c0.018,0.076,0.036,0.151,0.054,0.227
		c0.018,0.076,0.036,0.151,0.053,0.227c0.016,0.07,0.033,0.14,0.05,0.209c0.013,0.056,0.026,0.113,0.04,0.169
		c0.022,0.093,0.045,0.186,0.067,0.279c0.013,0.055,0.01,0.058-0.044,0.06c-0.014,0-0.028,0-0.042,0c-1.565,0-3.13,0-4.695,0
		c-0.024,0-0.048,0-0.072-0.003c-0.026-0.003-0.052-0.03-0.056-0.055c-0.002-0.013,0.005-0.023,0.01-0.034
		c0.024-0.051,0.048-0.101,0.072-0.151c0.067-0.138,0.134-0.277,0.201-0.415c0.036-0.074,0.072-0.147,0.108-0.221
		c0.003-0.005,0.006-0.011,0.009-0.016c0.007-0.011,0.017-0.012,0.023-0.002c0.013,0.02,0.025,0.041,0.038,0.061
		c0.009,0.013,0.019,0.014,0.028,0c0.032-0.048,0.064-0.096,0.096-0.145c0.157-0.241,0.313-0.482,0.47-0.723
		c0.019-0.029,0.031-0.064,0.063-0.084c0.028,0.019,0.056,0.037,0.084,0.057c0.333,0.239,0.665,0.478,0.998,0.716
		c0.323,0.232,0.646,0.463,0.969,0.695c0.005,0.003,0.01,0.007,0.015,0.01c0.013,0.01,0.026,0.01,0.038,0
		c0.025-0.019,0.051-0.039,0.076-0.058c0.277-0.216,0.554-0.432,0.831-0.648c0.14-0.109,0.28-0.218,0.421-0.327
		C18.086,9.978,18.099,9.969,18.12,9.955z"/>
	<path fill="#F31920" d="M12.198,5.961c-0.027,0.058-0.064,0.11-0.097,0.165c-0.106,0.175-0.213,0.351-0.321,0.525
		c-0.016,0.025-0.015,0.046,0,0.071c0.096,0.161,0.192,0.322,0.287,0.483c0.012,0.02,0.022,0.042,0.034,0.063
		c0.008,0.044,0.031,0.082,0.053,0.119c0.032,0.053,0.049,0.109,0.049,0.17c0.001,0.466,0,0.933,0,1.399c0,0.01,0,0.02-0.001,0.03
		C12.2,9.005,12.2,9.028,12.176,9.034c-0.021,0.006-0.039-0.007-0.053-0.021c-0.021-0.021-0.033-0.05-0.061-0.065
		c-0.037-0.057-0.075-0.113-0.111-0.17c-0.144-0.228-0.288-0.456-0.432-0.683c-0.156-0.246-0.312-0.492-0.468-0.739
		c-0.144-0.228-0.289-0.455-0.433-0.683c-0.014-0.022-0.027-0.044-0.042-0.066c-0.013-0.019-0.012-0.035,0.001-0.055
		c0.06-0.094,0.12-0.189,0.18-0.283c0.156-0.246,0.312-0.492,0.467-0.739c0.106-0.167,0.211-0.334,0.317-0.501
		c0.145-0.229,0.291-0.459,0.436-0.688c0.06-0.094,0.119-0.189,0.179-0.283c0.004-0.007,0.01-0.012,0.015-0.018
		c0.034-0.005,0.047,0.015,0.053,0.043c0.005,0.026,0.004,0.052,0.004,0.078c0,0.537,0,1.074,0.001,1.612
		C12.23,5.839,12.219,5.9,12.198,5.961z"/>
	<path fill="#B70A0C" d="M19.564,1.904c-0.001,0.012-0.003,0.025,0.003,0.035c0.019,0.031,0.018,0.069,0.037,0.1
		c0.01,0.016,0.006,0.035,0.007,0.053c0,0.1,0,0.199,0,0.299c0,0.436,0,0.873,0,1.309c0,0.022,0,0.044,0,0.064
		c-0.016,0.008-0.027,0.002-0.035-0.006c-0.018-0.015-0.037-0.031-0.048-0.052c-0.006-0.011-0.013-0.02-0.025-0.024
		c-0.039-0.046-0.065-0.1-0.096-0.151c-0.05-0.079-0.098-0.159-0.148-0.242c-0.021,0.014-0.039,0.026-0.057,0.038
		c-0.176,0.127-0.352,0.255-0.528,0.382c-0.024,0.017-0.045,0.04-0.076,0.045c-0.023-0.016-0.046-0.031-0.068-0.048
		c-0.21-0.162-0.419-0.325-0.628-0.487c-0.006-0.005-0.01-0.012-0.015-0.018c0.03-0.02,0.058-0.003,0.085,0.006
		c0.033,0.011,0.05,0.004,0.05-0.033c0-0.014,0-0.028,0-0.042c0-0.385,0-0.77,0-1.155c0-0.018,0-0.036-0.001-0.054
		c-0.001-0.029-0.016-0.043-0.045-0.045c-0.022-0.001-0.044-0.001-0.066-0.001c-0.449-0.001-0.898,0.002-1.347-0.001
		c-0.349,0.004-0.698,0.001-1.047,0.002c-0.197,0-0.395,0.003-0.592-0.001c-0.433,0.004-0.866,0.001-1.3,0.001
		c-0.024,0-0.048,0-0.067-0.019c0.005-0.007,0.012-0.01,0.02-0.01c0.016,0,0.032,0,0.048,0c1.943,0,3.887,0.001,5.83,0.001
		c0.008,0,0.016,0.001,0.024,0C19.52,1.844,19.55,1.861,19.564,1.904z"/>
	<path fill="#E7161C" d="M12.198,5.961c0-0.034-0.002-0.067,0.01-0.101c0.004-0.013,0.002-0.028,0.002-0.042
		c0-0.569,0-1.138,0-1.707c0-0.004,0-0.008,0-0.012c0.004-0.03-0.008-0.05-0.037-0.059c0.025-0.055,0.061-0.103,0.093-0.153
		c0.18-0.285,0.36-0.57,0.541-0.854c0.191-0.302,0.382-0.603,0.574-0.905c0.024-0.039,0.044-0.08,0.076-0.114
		c0.019-0.021,0.04-0.038,0.058-0.06c0.011-0.014,0.028-0.028,0.046-0.023c0.019,0.005,0.02,0.028,0.023,0.045
		c0.002,0.016,0.002,0.032,0.002,0.048c0,0.508-0.001,1.015,0.001,1.523c0,0.068-0.018,0.13-0.048,0.19
		c-0.012,0.025-0.022,0.051-0.032,0.077c-0.027,0.058-0.064,0.111-0.097,0.165c-0.122,0.202-0.244,0.403-0.367,0.604
		c-0.094,0.155-0.189,0.31-0.283,0.465c-0.12,0.198-0.241,0.396-0.362,0.593c-0.062,0.102-0.124,0.205-0.187,0.307
		C12.207,5.953,12.202,5.957,12.198,5.961z"/>
	<path fill="#E8161D" d="M12.063,8.948c0.016-0.001,0.031-0.002,0.042,0.015c0.014,0.024,0.033,0.045,0.058,0.059
		c0.01,0.006,0.022,0.001,0.023-0.01c0.001-0.014,0.001-0.028,0.001-0.042c0-0.471,0-0.943,0-1.414c0-0.059-0.013-0.115-0.048-0.163
		c-0.022-0.03-0.028-0.066-0.044-0.098c-0.005-0.01,0.005-0.019,0.008-0.028c0.038,0.049,0.065,0.105,0.097,0.158
		c0.154,0.259,0.307,0.519,0.46,0.778c0.172,0.29,0.343,0.581,0.514,0.871c0.194,0.328,0.388,0.656,0.582,0.984
		c0.032,0.055,0.064,0.111,0.097,0.165c0.009,0.015,0.012,0.027,0.003,0.044c-0.071,0.145-0.142,0.29-0.212,0.436
		c-0.063,0.129-0.125,0.259-0.187,0.388c-0.004,0.009-0.007,0.018-0.018,0.022c-0.019-0.01-0.026-0.03-0.036-0.046
		c-0.155-0.244-0.309-0.49-0.463-0.734c-0.131-0.207-0.263-0.414-0.395-0.622c-0.142-0.224-0.284-0.449-0.425-0.673
		C12.099,9.01,12.081,8.979,12.063,8.948z"/>
	<path fill="#B2080B" d="M19.828,9.175c0.014,0,0.028-0.001,0.039-0.011c0.01-0.01,0.02-0.019,0.031-0.028
		c0.008-0.007,0.022-0.002,0.023,0.008c0.001,0.014,0.001,0.028,0.001,0.042c0,0.457,0,0.914,0,1.371
		c0,0.044-0.012,0.082-0.032,0.12c-0.024,0.046-0.039,0.095-0.051,0.145c-0.041,0.066-0.081,0.133-0.122,0.199
		c-0.054,0.086-0.11,0.171-0.163,0.258c-0.015,0.024-0.032,0.032-0.058,0.031c-0.06-0.001-0.12,0-0.18,0c-0.218,0-0.436,0-0.653,0
		c-0.012,0-0.024,0-0.036,0c-0.042-0.001-0.043,0-0.054-0.044c-0.022-0.089-0.044-0.178-0.065-0.267
		c-0.017-0.072-0.034-0.143-0.051-0.215c-0.017-0.072-0.034-0.144-0.051-0.215c-0.033-0.138-0.066-0.275-0.099-0.413
		c-0.03-0.126-0.059-0.252-0.089-0.378c-0.003-0.013-0.008-0.026-0.012-0.038c-0.016-0.008-0.024,0.002-0.033,0.009
		c-0.23,0.179-0.459,0.359-0.689,0.538c-0.239,0.186-0.479,0.372-0.718,0.558c-0.013,0.01-0.026,0.019-0.039,0.027
		c-0.002,0.001-0.008-0.002-0.01-0.004c-0.002-0.002-0.004-0.008-0.003-0.01c0.006-0.008,0.013-0.015,0.021-0.021
		c0.222-0.173,0.444-0.346,0.666-0.518c0.252-0.196,0.505-0.391,0.757-0.587c0.131-0.102,0.261-0.204,0.392-0.306
		c0.008-0.006,0.016-0.012,0.024-0.017c0.008-0.005,0.016-0.003,0.021,0.004c0.006,0.008,0.013,0.016,0.018,0.024
		c0.165,0.275,0.331,0.551,0.496,0.826c0.01,0.017,0.021,0.033,0.031,0.047c0.017,0.003,0.02-0.008,0.025-0.016
		c0.173-0.294,0.347-0.588,0.52-0.882C19.732,9.331,19.78,9.253,19.828,9.175z"/>
	<path fill="#DD1319" d="M13.505,3.814c-0.002-0.045,0.017-0.086,0.034-0.126c0.019-0.043,0.027-0.086,0.026-0.133
		c-0.001-0.519,0-1.037-0.001-1.556c0-0.019-0.001-0.038-0.002-0.064c-0.041,0.027-0.062,0.071-0.108,0.08
		c0.026-0.056,0.059-0.108,0.099-0.155c0.429,0,0.858,0,1.288,0.001c0.026,0,0.052,0.001,0.078,0.001
		c0.022,0.022,0.02,0.051,0.02,0.079c0,0.476-0.001,0.953,0.001,1.429c0,0.078-0.042,0.125-0.091,0.172
		c-0.067,0.057-0.142,0.103-0.212,0.156c-0.021,0.016-0.043,0.029-0.063,0.045c-0.018,0.014-0.035,0.016-0.054,0.003
		c-0.023-0.016-0.048-0.029-0.072-0.044c-0.194-0.119-0.388-0.239-0.582-0.358c-0.057-0.035-0.051-0.031-0.081,0.018
		c-0.087,0.143-0.174,0.287-0.262,0.43C13.519,3.799,13.511,3.806,13.505,3.814z"/>
	<path fill="#E5151B" d="M17.127,6.547c0.015-0.027,0.048-0.036,0.066-0.06c0.001-0.013-0.011-0.015-0.017-0.021
		c-0.007-0.007-0.016-0.012-0.023-0.019c-0.063-0.049-0.122-0.103-0.174-0.165c-0.092-0.109-0.137-0.238-0.149-0.378
		c-0.005-0.064-0.005-0.128-0.004-0.192c0.005-0.182,0.074-0.337,0.197-0.469c0.111-0.12,0.249-0.199,0.401-0.255
		c0.058-0.022,0.117-0.04,0.178-0.054c0.013-0.003,0.028-0.004,0.041-0.005c0.05-0.014,0.07,0.014,0.077,0.056
		c0.007,0.041,0.003,0.083,0.003,0.125c-0.001,0.155,0.004,0.309-0.003,0.464c-0.001,0.007-0.002,0.014-0.005,0.021
		c-0.002,0.006-0.005,0.013-0.009,0.018c-0.002,0.003-0.004,0.006-0.005,0.008c-0.003,0.006-0.007,0.011-0.011,0.016
		c-0.111,0.173-0.091,0.358,0.055,0.505c0.025,0.025,0.054,0.047,0.068,0.082c0.012,0.034,0.016,0.069,0.016,0.105
		c0,0.125,0,0.249,0,0.374c0,0.036-0.002,0.071-0.022,0.103c-0.011,0.02-0.029,0.033-0.049,0.043
		c-0.206,0.104-0.226,0.289-0.171,0.475c0.011,0.037,0.031,0.069,0.049,0.102c0.003,0.005,0.005,0.009,0.007,0.014
		c0.001,0.002,0.002,0.004,0.004,0.007c0.003,0.004,0.006,0.008,0.009,0.012c0.002,0.002,0.003,0.003,0.005,0.005
		c0.004,0.003,0.008,0.006,0.012,0.008c0.005,0.003,0.009,0.005,0.013,0.008c0.005,0.003,0.009,0.007,0.013,0.011
		c0.002,0.002,0.004,0.004,0.006,0.006c0.004,0.005,0.008,0.009,0.011,0.015c0.003,0.006,0.007,0.012,0.01,0.018
		c0.012,0.023,0.018,0.049,0.018,0.075c0.001,0.155,0.002,0.309,0,0.464c-0.001,0.071-0.021,0.089-0.08,0.087
		c-0.011-0.001-0.022-0.002-0.033-0.003c-0.012-0.008-0.027-0.001-0.038-0.009c-0.058-0.002-0.113-0.022-0.169-0.038
		c-0.096-0.028-0.188-0.066-0.273-0.119c-0.01-0.006-0.018-0.015-0.028-0.022c0.017-0.037,0.021-0.076,0.021-0.116
		c0-0.397,0-0.794,0-1.19C17.144,6.62,17.144,6.583,17.127,6.547z"/>
	<path fill="#D01014" d="M14.85,3.541c0.012-0.026,0.027-0.048,0.046-0.069c0.018-0.02,0.027-0.044,0.025-0.072
		c0-0.006,0-0.012,0-0.018c0-0.499,0-0.999,0-1.498c0-0.008,0-0.016-0.001-0.024c0.018,0,0.036-0.001,0.054-0.001
		c0.512,0,1.023,0,1.535,0c0.018,0,0.036,0.001,0.054,0.001c0.014,0.014,0.018,0.031,0.018,0.049c0.001,0.102,0.002,0.203,0,0.305
		c-0.001,0.049-0.026,0.087-0.062,0.118c-0.021,0.018-0.044,0.034-0.062,0.056c-0.033,0.032-0.072,0.056-0.109,0.082
		c-0.343,0.247-0.686,0.493-1.03,0.739c-0.141,0.101-0.282,0.202-0.423,0.303C14.88,3.523,14.865,3.532,14.85,3.541z"/>
	<path fill="#AF080A" d="M18.855,8.024c-0.033,0.026-0.074,0.037-0.112,0.053c-0.111,0.044-0.227,0.069-0.344,0.089
		c-0.015,0.003-0.032,0.001-0.047,0.001c-0.009-0.01-0.011-0.021-0.009-0.033c0.03-0.158,0.008-0.317,0.014-0.476
		c0.001-0.034-0.011-0.066-0.016-0.1c0-0.037,0.031-0.05,0.056-0.063c0.19-0.101,0.212-0.402,0.105-0.542
		c-0.018-0.024-0.039-0.045-0.062-0.063c-0.016-0.013-0.04-0.023-0.026-0.052c0.022-0.026,0.028-0.056,0.028-0.089
		c0-0.174,0-0.347,0-0.521c0-0.026-0.004-0.052-0.018-0.075c-0.013-0.03,0.012-0.047,0.025-0.068
		c0.081-0.134,0.093-0.272,0.016-0.412c-0.027-0.05-0.071-0.085-0.121-0.112c-0.02-0.011-0.054-0.017-0.037-0.055
		c0.025-0.03,0.027-0.065,0.027-0.101C18.33,5.251,18.337,5.1,18.328,4.949c-0.001-0.016-0.001-0.032,0.011-0.045
		c0.041-0.005,0.079,0.007,0.118,0.015c0.137,0.027,0.27,0.07,0.394,0.135c0.005,0.003,0.01,0.007,0.015,0.01
		c0.039,0.031,0.044,0.074,0.044,0.119c0,0.17,0,0.34,0,0.51c0,0.727,0,1.455,0,2.182C18.91,7.932,18.912,7.989,18.855,8.024z"/>
	<path fill="#AF070A" d="M15.173,4.942c0.02-0.001,0.04-0.002,0.06-0.002c0.336,0,0.672,0.001,1.007,0.002
		c0.073,0,0.069-0.006,0.069,0.067c0,0.21,0,0.42,0.001,0.629c0,0.035-0.007,0.066-0.023,0.097
		c-0.103,0.208-0.204,0.416-0.305,0.624c-0.086,0.178-0.172,0.356-0.258,0.533c-0.079,0.161-0.158,0.322-0.238,0.484
		c-0.003,0.005-0.007,0.01-0.01,0.014c-0.028-0.012-0.03-0.036-0.028-0.06c0.015-0.232,0.004-0.463,0.006-0.695
		c0.002-0.188,0.001-0.376,0-0.564c0-0.035,0.003-0.073-0.029-0.1c0.017-0.055,0.049-0.104,0.072-0.156
		c0.01-0.022,0.019-0.044,0.032-0.064c0.036-0.052,0.028-0.11,0.027-0.167c0-0.011-0.007-0.018-0.019-0.019
		c-0.016-0.001-0.032-0.001-0.048-0.001c-0.062-0.001-0.123-0.002-0.185-0.002c0-0.004-0.001-0.01,0.001-0.011
		c0.075-0.045,0.066-0.119,0.065-0.19C15.37,5.265,15.371,5.167,15.37,5.07c-0.001-0.082-0.018-0.096-0.098-0.1
		C15.238,4.968,15.196,4.987,15.173,4.942z"/>
	<path fill="#C10C10" d="M16.457,2.388c-0.001-0.015,0.006-0.026,0.018-0.035c0.025-0.02,0.048-0.04,0.066-0.068
		c0.016-0.024,0.024-0.049,0.024-0.078c-0.001-0.116-0.001-0.231-0.001-0.347c0.02,0,0.04-0.001,0.06-0.001c0.447,0,0.894,0,1.341,0
		c0.08,0,0.075-0.005,0.075,0.074c0,0.417,0,0.834,0,1.251c0,0.018-0.001,0.036-0.002,0.054c-0.002,0.014-0.015,0.02-0.026,0.011
		c-0.037-0.029-0.082-0.037-0.126-0.048c-0.059-0.034-0.109-0.08-0.162-0.122c-0.229-0.176-0.457-0.354-0.685-0.531
		c-0.115-0.089-0.229-0.179-0.344-0.268c-0.008-0.006-0.016-0.012-0.024-0.018c-0.011-0.009-0.021-0.008-0.033,0
		c-0.034,0.025-0.067,0.05-0.102,0.073C16.509,2.354,16.487,2.377,16.457,2.388z"/>
	<path fill="#9D0304" d="M18.855,8.024c0.035-0.045,0.036-0.098,0.036-0.153c-0.001-0.887-0.001-1.775,0-2.662
		c0-0.05-0.001-0.099-0.025-0.145c0.056,0.024,0.104,0.06,0.15,0.097c0.138,0.11,0.234,0.25,0.277,0.423
		c0.008,0.033,0.013,0.067,0.015,0.1C19.314,5.789,19.315,5.896,19.296,6c-0.021,0.113-0.064,0.218-0.149,0.301
		c-0.057,0.056-0.113,0.113-0.18,0.157c-0.007,0.004-0.012,0.01-0.018,0.016c-0.002,0.003-0.003,0.007-0.005,0.01
		c0.006,0.014,0.019,0.02,0.031,0.027c0.046,0.029,0.089,0.061,0.13,0.096c0.129,0.11,0.209,0.249,0.242,0.416
		c0.011,0.057,0.014,0.115,0.018,0.172c0.004,0.051-0.002,0.104-0.01,0.155c-0.01,0.065-0.024,0.129-0.046,0.191
		c-0.037,0.103-0.093,0.194-0.167,0.274c-0.072,0.079-0.157,0.142-0.25,0.194C18.881,8.015,18.868,8.019,18.855,8.024z"/>
	<path fill="#CA0E12" d="M15.424,5.972c0.008-0.003,0.015-0.007,0.023-0.007c0.012,0,0.016,0.011,0.019,0.02
		c0.003,0.009,0.005,0.019,0.006,0.029c0.001,0.01,0,0.02,0,0.03c0,0.403,0,0.805,0,1.208c0,0.024,0.001,0.047-0.008,0.071
		c-0.009,0.024-0.003,0.047,0.01,0.068c0,0.004-0.002,0.007-0.004,0.009c-0.003,0.005-0.007,0.009-0.009,0.014
		c0,0.004-0.001,0.007-0.003,0.01c-0.003,0.005-0.007,0.009-0.008,0.015c0,0.003-0.001,0.006-0.003,0.009
		c-0.006,0.007-0.004,0.017-0.011,0.023l0,0c-0.004,0.005-0.009,0.009-0.01,0.016c0,0.003-0.001,0.006-0.003,0.009
		c-0.006,0.007-0.003,0.017-0.011,0.024l0,0c-0.007,0.006-0.004,0.018-0.012,0.024c-0.043,0.09-0.085,0.18-0.128,0.27
		c-0.056,0.117-0.113,0.233-0.17,0.35c-0.004,0.009-0.009,0.018-0.014,0.026c-0.007,0.012-0.018,0.017-0.03,0.014
		c-0.038-0.01-0.078-0.015-0.114-0.033c-0.011-0.052,0.008-0.102,0.007-0.154c-0.002-0.292-0.001-0.583-0.001-0.875
		c0-0.058-0.005-0.115-0.016-0.172c-0.001-0.015,0.007-0.027,0.013-0.039c0.131-0.263,0.262-0.526,0.393-0.79
		c0.008-0.016,0.011-0.034,0.024-0.047c0.005-0.005,0.009-0.009,0.01-0.016c0-0.003,0.001-0.006,0.003-0.008
		c0.006-0.007,0.004-0.017,0.011-0.024l0,0c0.007-0.007,0.005-0.017,0.012-0.024l0,0c0.005-0.004,0.01-0.009,0.011-0.016
		c0-0.003,0.001-0.006,0.003-0.008C15.42,5.99,15.418,5.979,15.424,5.972L15.424,5.972z"/>
	<path fill="#F71A22" d="M17.127,6.547c0.023,0.003,0.036,0.015,0.037,0.039c0,0.014,0,0.028,0,0.042c0,0.417,0,0.835,0,1.252
		c0,0.014,0,0.028,0,0.042c0,0.027-0.015,0.04-0.04,0.043c-0.004,0-0.006-0.001-0.008-0.004c-0.004-0.003-0.008-0.006-0.012-0.009
		l0,0c-0.004-0.005-0.009-0.01-0.016-0.011c-0.004,0-0.006-0.001-0.008-0.005c-0.004-0.002-0.008-0.005-0.01-0.009
		c-0.089-0.061-0.155-0.142-0.206-0.236c-0.066-0.122-0.095-0.252-0.098-0.39c-0.001-0.076,0.001-0.151,0.017-0.226
		c0.034-0.165,0.112-0.305,0.228-0.426c0.022-0.023,0.043-0.047,0.07-0.064c0.005-0.008,0.018-0.005,0.021-0.016L17.101,6.57
		c0.007-0.001,0.012-0.006,0.013-0.013l-0.001,0.001C17.12,6.557,17.124,6.552,17.127,6.547L17.127,6.547z"/>
	<path fill="#CA0E13" d="M18.339,4.904c0.016,0.066,0.012,0.133,0.012,0.2c0,0.117,0,0.234,0,0.351c0,0.035-0.014,0.056-0.05,0.062
		c-0.02,0.017-0.042,0.008-0.062,0.003c-0.175-0.039-0.343-0.029-0.498,0.071c-0.011,0.007-0.024,0.015-0.039,0.008
		c0-0.199,0-0.398,0-0.596c0-0.004,0-0.008,0-0.012c0-0.016-0.001-0.031-0.013-0.044c-0.013-0.015-0.03-0.017-0.048-0.018
		c0.018-0.015,0.042-0.011,0.063-0.016c0.157-0.03,0.316-0.037,0.475-0.028C18.233,4.888,18.287,4.887,18.339,4.904z"/>
	<path fill="#C90E12" d="M18.35,7.541c0.001,0.004,0,0.009,0.002,0.012c0.024,0.042,0.023,0.087,0.023,0.134
		c-0.001,0.118-0.001,0.236,0,0.354c0,0.032-0.001,0.063-0.018,0.093c-0.006,0.01-0.005,0.023-0.007,0.035
		c-0.011,0.003-0.023,0.008-0.034,0.009c-0.127,0.011-0.254,0.019-0.381,0.012c-0.083-0.005-0.166-0.015-0.249-0.023
		c-0.007-0.001-0.014-0.006-0.022-0.009c0.013-0.003,0.029,0,0.039-0.011c0.013-0.013,0.021-0.029,0.022-0.047
		c0.001-0.014,0.001-0.028,0.001-0.042c0-0.141,0-0.282,0-0.423c0-0.038,0-0.075-0.021-0.109c-0.003-0.005-0.002-0.012-0.003-0.017
		c0.018-0.011,0.035-0.002,0.051,0.005c0.172,0.074,0.348,0.072,0.527,0.03C18.304,7.537,18.327,7.525,18.35,7.541z"/>
	<path fill="#ED171E" d="M14.645,5.564c-0.112,0.001-0.224,0.002-0.336,0.002c-0.05,0-0.1,0-0.15,0
		c-0.019,0-0.025-0.006-0.026-0.025c-0.001-0.012-0.001-0.024-0.001-0.036c0-0.168,0-0.336,0-0.503c0-0.014,0-0.028,0.001-0.042
		c0.001-0.012,0.008-0.018,0.019-0.019c0.016-0.001,0.032-0.001,0.048-0.001c0.076,0.001,0.152,0.001,0.228,0.002
		c0.091,0.011,0.183,0.002,0.274,0.005c0.06,0.002,0.077,0.013,0.078,0.071c0.004,0.153,0.002,0.307,0.001,0.461
		c0,0.048-0.027,0.072-0.073,0.078C14.688,5.56,14.666,5.553,14.645,5.564z"/>
	<path fill="#D21015" d="M14.645,5.564c0.007-0.008,0.016-0.011,0.027-0.011c0.012,0,0.024,0,0.036-0.003
		c0.045-0.012,0.058-0.028,0.058-0.075c0-0.149,0-0.298,0-0.447c0-0.01,0-0.02-0.001-0.03c-0.004-0.032-0.017-0.044-0.051-0.044
		c-0.078-0.001-0.155,0-0.233-0.001c-0.017,0-0.036,0.005-0.051-0.01c0.014-0.001,0.028-0.002,0.041-0.002
		c0.224,0,0.448,0.001,0.672,0.001c0.01,0,0.02,0.001,0.03,0.002c0.009,0.01,0.021,0.011,0.033,0.011c0.034,0,0.068,0,0.101,0
		c0.05,0.001,0.077,0.025,0.081,0.074c0.001,0.01,0,0.02,0,0.03c0,0.131,0,0.262,0,0.393c0,0.012,0.001,0.024-0.001,0.036
		c-0.003,0.02-0.013,0.037-0.032,0.047c-0.017,0.009-0.037,0.014-0.051,0.03c-0.069,0.001-0.139,0.002-0.208,0.002
		c-0.131,0-0.262,0.001-0.392,0.001C14.684,5.566,14.665,5.564,14.645,5.564z"/>
	<path fill="#E1141A" d="M14.933,6.968c0.011,0.006,0.02,0.014,0.022,0.026c0.006,0.033,0.014,0.065,0.014,0.1
		c-0.001,0.318-0.001,0.636,0,0.955c0,0.043-0.007,0.083-0.026,0.121c-0.008-0.002-0.015-0.003-0.023-0.005
		c-0.008-0.005-0.018-0.004-0.027-0.009c-0.007-0.001-0.014-0.002-0.021-0.004c-0.008-0.005-0.018-0.004-0.027-0.008
		c-0.007-0.001-0.014-0.002-0.021-0.004c-0.008-0.005-0.018-0.004-0.026-0.008c-0.007-0.001-0.014-0.002-0.022-0.004
		c-0.008-0.005-0.018-0.004-0.026-0.009c-0.048-0.004-0.093-0.021-0.139-0.032c-0.054-0.013-0.108-0.028-0.162-0.041
		c-0.014-0.003-0.027-0.005-0.039-0.018c0.011-0.046,0.038-0.086,0.058-0.128c0.088-0.181,0.178-0.36,0.268-0.54
		c0.01-0.02,0.021-0.038,0.031-0.058c0.004-0.005,0.008-0.01,0.008-0.016c-0.001-0.003,0-0.006,0.003-0.008
		c0.004-0.004,0.008-0.009,0.01-0.015c0-0.004,0.001-0.007,0.003-0.009c0.003-0.005,0.008-0.009,0.008-0.015
		c0-0.003,0.001-0.006,0.003-0.009c0.006-0.007,0.003-0.017,0.011-0.023l0,0c0.004-0.005,0.009-0.009,0.01-0.016
		c0-0.003,0.001-0.006,0.003-0.008c0.003-0.005,0.008-0.009,0.008-0.016c-0.001-0.003,0-0.006,0.003-0.008
		c0.006-0.006,0.004-0.017,0.011-0.023l0,0c0.004-0.005,0.009-0.009,0.01-0.016c0-0.003,0.001-0.006,0.003-0.009
		c0.004-0.005,0.008-0.01,0.008-0.016c-0.001-0.003,0-0.006,0.003-0.008c0.007-0.006,0.004-0.017,0.011-0.024l0,0
		c0.005-0.005,0.009-0.009,0.01-0.016c0-0.003,0.001-0.006,0.003-0.008c0.006-0.007,0.004-0.017,0.011-0.024l0,0
		c0.007-0.006,0.005-0.017,0.012-0.024l0,0c0.004-0.005,0.009-0.009,0.01-0.016C14.93,6.972,14.931,6.97,14.933,6.968z"/>
	<path fill="#C81116" d="M14.001,10.255c-0.002-0.004-0.005-0.007-0.004-0.011c0.001-0.019,0.014-0.033,0.023-0.048
		c0.056-0.087,0.112-0.174,0.168-0.262c0.102-0.159,0.205-0.318,0.307-0.477c0.012-0.018,0.024-0.036,0.038-0.053
		c0.002-0.003,0.011-0.001,0.016,0.001c0.002,0.001,0.005,0.007,0.004,0.01c-0.004,0.009-0.008,0.018-0.013,0.026
		c-0.123,0.191-0.247,0.381-0.37,0.572c-0.042,0.065-0.084,0.13-0.127,0.195c-0.01,0.015-0.021,0.029-0.031,0.043
		C14.01,10.254,14.005,10.254,14.001,10.255z"/>
	<path fill="#C90E12" d="M17.593,8.144c0.014-0.002,0.028-0.004,0.038,0.009C17.617,8.155,17.604,8.155,17.593,8.144z"/>
	<path fill="#AF070A" d="M15.4,6.02c0.001,0.01-0.002,0.019-0.012,0.024C15.388,6.034,15.391,6.026,15.4,6.02z"/>
	<path fill="#AF070A" d="M15.388,6.044c0.001,0.01-0.002,0.018-0.011,0.024C15.377,6.058,15.38,6.05,15.388,6.044z"/>
	<path fill="#AF070A" d="M15.436,7.471c0-0.01,0.002-0.018,0.011-0.023C15.448,7.457,15.445,7.466,15.436,7.471z"/>
	<path fill="#AF070A" d="M15.412,7.519c0-0.01,0.002-0.018,0.011-0.024C15.424,7.505,15.421,7.513,15.412,7.519z"/>
	<path fill="#AF070A" d="M15.4,7.543c0-0.01,0.003-0.018,0.012-0.024C15.413,7.53,15.41,7.538,15.4,7.543z"/>
	<path fill="#CA0E12" d="M14.813,7.208c0,0.009-0.002,0.018-0.011,0.023C14.801,7.222,14.805,7.214,14.813,7.208z"/>
	<path fill="#CA0E12" d="M14.849,7.136c0,0.01-0.002,0.018-0.011,0.023C14.837,7.15,14.84,7.142,14.849,7.136z"/>
	<path fill="#CA0E12" d="M14.75,8.12c0.01-0.002,0.02-0.001,0.026,0.009C14.766,8.13,14.757,8.128,14.75,8.12z"/>
	<path fill="#CA0E12" d="M14.798,8.132c0.01-0.002,0.02-0.001,0.026,0.008C14.814,8.142,14.805,8.141,14.798,8.132z"/>
	<path fill="#CA0E12" d="M14.846,8.144c0.01-0.002,0.02-0.001,0.027,0.008C14.862,8.154,14.853,8.152,14.846,8.144z"/>
	<path fill="#CA0E12" d="M14.894,8.156c0.01-0.002,0.02-0.001,0.027,0.009C14.91,8.167,14.901,8.165,14.894,8.156z"/>
	<path fill="#CA0E12" d="M14.885,7.064c0,0.01-0.002,0.018-0.011,0.024C14.873,7.077,14.876,7.069,14.885,7.064z"/>
	<path fill="#CA0E12" d="M14.909,7.016c0,0.01-0.002,0.018-0.011,0.024C14.897,7.03,14.9,7.022,14.909,7.016z"/>
	<path fill="#CA0E12" d="M14.921,6.992c0,0.01-0.003,0.018-0.012,0.024C14.908,7.005,14.911,6.997,14.921,6.992z"/>
	<path fill="#AF070A" d="M15.424,5.972c0.001,0.01-0.002,0.019-0.011,0.024C15.412,5.986,15.416,5.978,15.424,5.972z"/>
	<path fill="#E5151B" d="M17.102,6.569c-0.002,0.012-0.01,0.015-0.021,0.016C17.084,6.574,17.092,6.571,17.102,6.569z"/>
	<path fill="#AF070A" d="M15.41,6.004c0,0.008-0.004,0.013-0.011,0.016C15.4,6.013,15.404,6.007,15.41,6.004z"/>
	<path fill="#AF070A" d="M15.375,6.076c0,0.007-0.004,0.013-0.01,0.016C15.365,6.085,15.368,6.08,15.375,6.076z"/>
	<path fill="#E5151B" d="M17.127,6.547c-0.002,0.007-0.007,0.011-0.014,0.011C17.115,6.551,17.12,6.548,17.127,6.547z"/>
	<path fill="#E5151B" d="M17.114,6.557c-0.001,0.008-0.005,0.012-0.013,0.013C17.102,6.563,17.106,6.559,17.114,6.557z"/>
	<path fill="#CA0E12" d="M14.931,6.976c0,0.007-0.003,0.013-0.01,0.016C14.921,6.985,14.925,6.979,14.931,6.976z"/>
	<path fill="#CA0E12" d="M14.895,7.048c0,0.007-0.004,0.013-0.01,0.016C14.885,7.056,14.888,7.051,14.895,7.048z"/>
	<path fill="#CA0E12" d="M14.871,7.095c0,0.007-0.002,0.012-0.008,0.016C14.862,7.104,14.865,7.099,14.871,7.095z"/>
	<path fill="#CA0E12" d="M14.859,7.12c0,0.007-0.004,0.012-0.01,0.016C14.849,7.129,14.853,7.123,14.859,7.12z"/>
	<path fill="#CA0E12" d="M14.835,7.168c0,0.007-0.003,0.012-0.008,0.016C14.826,7.177,14.829,7.171,14.835,7.168z"/>
	<path fill="#CA0E12" d="M14.823,7.192c0,0.007-0.004,0.012-0.01,0.016C14.813,7.2,14.817,7.195,14.823,7.192z"/>
	<path fill="#CA0E12" d="M14.799,7.24c0,0.007-0.003,0.012-0.008,0.015C14.791,7.249,14.793,7.243,14.799,7.24z"/>
	<path fill="#CA0E12" d="M14.787,7.264c0,0.007-0.004,0.012-0.01,0.015C14.778,7.272,14.781,7.267,14.787,7.264z"/>
	<path fill="#CA0E12" d="M14.775,7.287c0,0.007-0.002,0.012-0.008,0.016C14.766,7.296,14.769,7.291,14.775,7.287z"/>
	<path fill="#AF070A" d="M15.461,7.414c0-0.007,0.003-0.011,0.009-0.014C15.47,7.406,15.467,7.411,15.461,7.414z"/>
	<path fill="#AF070A" d="M15.45,7.439c0-0.007,0.003-0.012,0.008-0.015C15.458,7.43,15.456,7.435,15.45,7.439z"/>
	<path fill="#AF070A" d="M15.426,7.487c0-0.007,0.004-0.012,0.01-0.016C15.435,7.478,15.432,7.483,15.426,7.487z"/>
	<path fill="#E5151B" d="M17.069,7.927c0.003,0.003,0.007,0.006,0.01,0.009C17.073,7.936,17.07,7.932,17.069,7.927z"/>
	<path fill="#E5151B" d="M17.087,7.941c0.008,0,0.013,0.004,0.016,0.011C17.096,7.951,17.091,7.947,17.087,7.941z"/>
	<path fill="#E5151B" d="M17.103,7.951c0.004,0.003,0.008,0.006,0.012,0.009C17.109,7.961,17.105,7.958,17.103,7.951z"/>
	<path fill="#666666" d="M26.399,9.57c-0.019-0.009-0.031-0.025-0.045-0.039c-0.073-0.071-0.145-0.143-0.218-0.215
		c-0.23-0.225-0.459-0.451-0.689-0.676c-0.203-0.199-0.405-0.397-0.608-0.596c-0.214-0.21-0.428-0.42-0.642-0.63
		c-0.031-0.031-0.064-0.06-0.095-0.091c-0.017-0.017-0.017-0.02-0.006-0.042c0.033-0.066,0.066-0.132,0.099-0.198
		c0.044-0.087,0.088-0.174,0.132-0.261c0.04-0.078,0.08-0.156,0.12-0.234c0.005-0.011,0.01-0.022,0.016-0.032
		c0.019-0.03,0.018-0.057,0.001-0.089c-0.068-0.129-0.134-0.259-0.2-0.389c-0.069-0.135-0.137-0.271-0.205-0.406
		c-0.11-0.217-0.221-0.434-0.331-0.651c-0.135-0.265-0.27-0.53-0.405-0.795c-0.093-0.183-0.187-0.366-0.28-0.55
		c-0.005-0.009-0.017-0.018-0.009-0.033c0.017,0.007,0.027,0.022,0.04,0.034c0.167,0.164,0.333,0.329,0.5,0.492
		c0.222,0.219,0.445,0.437,0.668,0.655c0.207,0.203,0.414,0.406,0.621,0.609c0.117,0.115,0.234,0.229,0.352,0.343
		c0.009,0.008,0.017,0.017,0.026,0.025c0.024,0.025,0.025,0.027,0.009,0.057c-0.039,0.076-0.079,0.152-0.117,0.229
		c-0.085,0.167-0.169,0.335-0.254,0.503c-0.005,0.009-0.008,0.018-0.013,0.027c-0.008,0.013-0.007,0.026,0.001,0.039
		c0.016,0.03,0.031,0.061,0.047,0.091c0.063,0.118,0.126,0.236,0.188,0.354c0.109,0.206,0.219,0.413,0.328,0.619
		c0.079,0.15,0.159,0.3,0.238,0.45c0.105,0.198,0.209,0.395,0.314,0.593c0.103,0.194,0.206,0.388,0.309,0.582
		c0.032,0.06,0.064,0.12,0.096,0.18C26.391,9.54,26.4,9.553,26.399,9.57L26.399,9.57z"/>
	<path fill="#666666" d="M24.896,11.369c-0.027,0-0.046,0-0.066,0c-0.903,0-1.806,0-2.709,0c-0.074,0-0.073,0.002-0.039-0.065
		c0.12-0.237,0.238-0.475,0.358-0.712c0.172-0.34,0.344-0.68,0.516-1.02c0.012-0.024,0.022-0.051,0.041-0.071
		c0.016,0.005,0.025,0.017,0.034,0.027c0.24,0.235,0.479,0.47,0.719,0.705c0.221,0.217,0.442,0.434,0.663,0.65
		c0.147,0.144,0.294,0.288,0.441,0.432C24.868,11.33,24.885,11.341,24.896,11.369z"/>
	<path fill="#C60D11" d="M23.209,1.704c0.02-0.001,0.04-0.002,0.06-0.002c0.384,0,0.768,0,1.151,0.001c0.008,0,0.016,0.001,0.024,0
		c0.031-0.005,0.053,0.009,0.073,0.031c0.031,0.034,0.064,0.066,0.096,0.099c0.089,0.088,0.092,0.199,0.091,0.315
		c-0.003,0.797-0.001,1.593-0.001,2.39c0,0.03,0.003,0.06-0.004,0.09c-0.006,0.026-0.016,0.052-0.052,0.039
		c-0.013-0.012-0.027-0.023-0.04-0.035c-0.25-0.245-0.5-0.49-0.75-0.735c-0.03-0.029-0.06-0.058-0.09-0.087
		c-0.01-0.01-0.022-0.018-0.026-0.032c0.055-0.014,0.063-0.052,0.063-0.103c-0.001-0.609-0.001-1.218-0.001-1.827
		c0-0.1-0.012-0.112-0.115-0.113c-0.134-0.001-0.268,0.001-0.401-0.001C23.257,1.733,23.223,1.742,23.209,1.704z"/>
	<path fill="#B5090C" d="M24.646,4.666c0.023-0.002,0.037-0.014,0.037-0.038c0-0.014,0-0.028,0-0.042c0-0.854,0-1.709,0-2.563
		c0-0.039-0.006-0.073-0.029-0.107c-0.017-0.025-0.041-0.049-0.042-0.084c0.006,0.005,0.013,0.009,0.019,0.014
		c0.249,0.245,0.498,0.49,0.747,0.735c0.069,0.074,0.093,0.16,0.093,0.262c-0.003,0.802-0.001,1.604-0.002,2.406
		c0,0.036,0.003,0.072-0.007,0.107c-0.008,0.03-0.02,0.058-0.06,0.052c-0.015-0.013-0.03-0.025-0.044-0.039
		c-0.075-0.074-0.15-0.148-0.225-0.222c-0.148-0.145-0.296-0.289-0.443-0.434C24.675,4.699,24.657,4.686,24.646,4.666z"/>
	<path fill="#666666" d="M25.065,1.702c0.76,0,1.517,0,2.274,0c0.003,0,0.006,0.004,0.01,0.005c0.003,0.015-0.006,0.027-0.012,0.039
		c-0.061,0.119-0.122,0.238-0.183,0.357c-0.106,0.208-0.21,0.417-0.316,0.625c-0.073,0.144-0.147,0.288-0.22,0.432
		c-0.005,0.011-0.011,0.021-0.017,0.031c-0.006,0.01-0.016,0.011-0.025,0.003c-0.027-0.024-0.053-0.048-0.079-0.073
		c-0.151-0.148-0.301-0.297-0.452-0.446c-0.244-0.239-0.487-0.479-0.731-0.718c-0.076-0.074-0.152-0.147-0.228-0.221
		C25.077,1.729,25.066,1.723,25.065,1.702z"/>
	<path fill="#E7161C" d="M24.275,10.194c-0.015-0.013-0.03-0.026-0.045-0.039c-0.273-0.267-0.545-0.534-0.818-0.801
		c-0.073-0.071-0.146-0.142-0.219-0.214c-0.024-0.024-0.025-0.025-0.009-0.057c0.039-0.079,0.079-0.157,0.118-0.235
		c0.099-0.196,0.198-0.392,0.297-0.588c0.095-0.189,0.191-0.377,0.287-0.566c0.002-0.003,0.005-0.006,0.008-0.009
		c0.009-0.004,0.015,0.002,0.02,0.008c0.103,0.101,0.205,0.202,0.307,0.303c0.003,0.003,0.005,0.006,0.007,0.01
		c0.089,0.076,0.116,0.172,0.115,0.288c-0.004,0.587-0.002,1.174-0.002,1.761c0,0.032,0.003,0.064-0.005,0.096
		c-0.006,0.027-0.013,0.056-0.051,0.056l0,0C24.284,10.201,24.28,10.198,24.275,10.194z"/>
	<path fill="#DB1318" d="M23.209,1.704c0.016,0.017,0.038,0.01,0.057,0.01c0.144,0.001,0.288,0,0.431,0c0.012,0,0.024,0.001,0.036,0
		c0.021-0.001,0.039,0.006,0.057,0.015c0.02,0.009,0.032,0.022,0.03,0.046c-0.001,0.014,0,0.028,0,0.042c0,0.631,0,1.262,0,1.894
		c0,0.01,0,0.02,0,0.03c-0.001,0.047-0.001,0.047-0.051,0.038c-0.01-0.002-0.02-0.001-0.03-0.002
		c-0.011-0.009-0.022-0.017-0.032-0.027c-0.258-0.253-0.517-0.506-0.775-0.76c-0.013-0.012-0.028-0.023-0.035-0.04
		c0.016-0.034,0.017-0.069,0.017-0.105c0-0.333,0-0.667,0-1c0-0.101-0.01-0.111-0.109-0.111c-0.182,0-0.363,0.001-0.545-0.001
		c-0.029,0-0.065,0.011-0.082-0.029c0.016-0.001,0.032-0.002,0.048-0.002c0.312,0,0.624,0,0.936,0.001
		C23.177,1.702,23.193,1.704,23.209,1.704z"/>
	<path fill="#A40506" d="M25.403,5.409c0.034-0.01,0.042-0.04,0.047-0.07c0.003-0.016,0.001-0.032,0.001-0.048
		c0-0.833,0-1.666,0-2.499c0-0.047-0.009-0.09-0.035-0.13c-0.016-0.025-0.031-0.051-0.037-0.081
		c0.018,0.007,0.028,0.022,0.041,0.035c0.182,0.179,0.363,0.359,0.546,0.539c0.132,0.13,0.266,0.26,0.398,0.39
		c0.044,0.043,0.043,0.036,0.015,0.091C26.245,3.9,26.11,4.165,25.976,4.43c-0.119,0.235-0.238,0.469-0.358,0.704
		c-0.043,0.085-0.086,0.171-0.129,0.256c-0.003,0.005-0.005,0.011-0.008,0.016C25.448,5.463,25.448,5.463,25.403,5.409z"/>
	<path fill="#D71217" d="M24.288,10.206c0.025-0.014,0.034-0.038,0.036-0.065c0.001-0.016,0-0.032,0-0.048
		c0-0.617,0-1.233,0.001-1.85c0-0.082-0.027-0.151-0.082-0.211c-0.007-0.008-0.012-0.015-0.013-0.026
		c0.011,0.009,0.023,0.016,0.032,0.026c0.201,0.197,0.401,0.395,0.602,0.593c0.004,0.004,0.008,0.009,0.012,0.014
		c0.06,0.057,0.081,0.126,0.081,0.21c-0.002,0.616-0.001,1.233-0.001,1.849c0,0.024,0.001,0.048-0.003,0.072
		c-0.004,0.024-0.008,0.049-0.041,0.049l0,0c-0.004-0.005-0.008-0.008-0.013-0.012c-0.009-0.008-0.019-0.014-0.028-0.023
		c-0.184-0.18-0.369-0.361-0.553-0.541C24.307,10.231,24.294,10.222,24.288,10.206z"/>
	<path fill="#CA0F13" d="M24.911,10.818c0.013-0.007,0.023-0.017,0.024-0.032c0.001-0.018,0.001-0.036,0.001-0.054
		c0-0.635-0.001-1.27,0.001-1.905c0-0.061-0.015-0.113-0.049-0.162c-0.006-0.008-0.011-0.016-0.012-0.027
		c0.008,0.006,0.016,0.011,0.023,0.018c0.165,0.162,0.33,0.325,0.495,0.487c0.008,0.008,0.016,0.018,0.024,0.027
		c0.001,0.004,0.001,0.009,0.004,0.011c0.095,0.08,0.099,0.186,0.099,0.3c-0.003,0.567-0.001,1.134-0.001,1.701
		c0,0.032,0.004,0.065-0.006,0.095c-0.011,0.036-0.027,0.069-0.075,0.056c-0.006-0.005-0.013-0.009-0.019-0.014
		c-0.163-0.16-0.326-0.319-0.489-0.479C24.923,10.834,24.917,10.825,24.911,10.818z"/>
	<path fill="#BE0B0F" d="M25.438,11.334c0.05-0.02,0.061-0.033,0.062-0.082c0-0.012,0-0.024,0-0.036
		c0-0.606-0.001-1.211,0.001-1.817c0-0.072-0.019-0.133-0.065-0.187C25.424,9.2,25.414,9.188,25.417,9.17
		c0.037,0.034,0.074,0.067,0.109,0.101c0.166,0.163,0.332,0.327,0.498,0.491c0.01,0.01,0.019,0.021,0.028,0.031
		c0.077,0.081,0.079,0.181,0.078,0.285c-0.002,0.366-0.001,0.731-0.001,1.097c0,0.022,0.001,0.044-0.001,0.066
		c-0.004,0.068-0.025,0.091-0.091,0.105c-0.016,0.003-0.032,0.002-0.046,0.01c-0.086,0.001-0.172,0.002-0.258,0.002
		c-0.082,0-0.164,0-0.246,0C25.466,11.359,25.448,11.354,25.438,11.334z"/>
	<path fill="#AE0709" d="M25.991,11.356c0.015-0.016,0.036-0.015,0.054-0.023c0.014-0.007,0.03-0.012,0.043-0.021
		c0.014-0.009,0.023-0.022,0.023-0.04c0-0.016,0-0.032,0-0.048c0-0.411-0.001-0.823,0.001-1.234c0-0.059-0.015-0.11-0.046-0.158
		c-0.008-0.012-0.016-0.023-0.013-0.038c0.04,0.037,0.08,0.072,0.119,0.11c0.187,0.184,0.372,0.368,0.559,0.552
		c0.088,0.087,0.177,0.173,0.266,0.259c0.022,0.021,0.039,0.045,0.053,0.072c0.077,0.149,0.156,0.297,0.235,0.445
		c0.021,0.038,0.043,0.076,0.059,0.114c-0.007,0.015-0.018,0.012-0.027,0.012c-0.02,0.001-0.04,0-0.06,0
		c-0.4,0-0.799,0.001-1.199,0.001C26.035,11.358,26.013,11.357,25.991,11.356z"/>
	<path fill="#ED171E" d="M22.177,1.704c0.014,0.015,0.033,0.01,0.051,0.01c0.09,0,0.18,0,0.269,0c0.12,0,0.24,0,0.359,0
		c0.052,0,0.074,0.023,0.076,0.076c0,0.008,0,0.016,0,0.024c0,0.353,0,0.707,0,1.06c0,0.014,0,0.028-0.001,0.042
		c-0.002,0.022-0.015,0.031-0.035,0.033c0,0,0,0,0,0c-0.004-0.005-0.008-0.008-0.012-0.012l0,0
		c-0.004-0.004-0.008-0.008-0.012-0.012l0,0c-0.004-0.005-0.008-0.009-0.012-0.012l0,0c-0.004-0.005-0.008-0.009-0.012-0.012l0,0
		c-0.003-0.005-0.007-0.009-0.012-0.012l0,0c-0.003-0.005-0.007-0.009-0.013-0.012l0.001,0.001
		c-0.003-0.005-0.007-0.009-0.013-0.012l0.001,0.001c-0.003-0.005-0.007-0.01-0.013-0.012L22.8,2.855
		c-0.003-0.005-0.007-0.01-0.013-0.012l0.001,0.001c-0.003-0.005-0.007-0.01-0.013-0.013l0.001,0.001
		c-0.003-0.006-0.007-0.01-0.013-0.013l0.001,0.001c-0.003-0.006-0.007-0.01-0.013-0.013l0.001,0.001
		c-0.003-0.006-0.008-0.01-0.014-0.013c-0.026-0.024-0.053-0.048-0.079-0.073c-0.046-0.044-0.091-0.09-0.137-0.134
		c-0.073-0.07-0.072-0.07-0.117-0.157c-0.102-0.201-0.205-0.402-0.307-0.603c-0.018-0.036-0.035-0.072-0.051-0.108
		c-0.004-0.008,0.001-0.017,0.01-0.017C22.097,1.703,22.137,1.704,22.177,1.704z"/>
	<path fill="#DB1318" d="M22.738,2.795c0.007,0.001,0.012,0.006,0.014,0.013C22.745,2.806,22.74,2.802,22.738,2.795z"/>
	<path fill="#DB1318" d="M22.751,2.807c0.007,0.002,0.011,0.006,0.013,0.013C22.757,2.818,22.753,2.814,22.751,2.807z"/>
	<path fill="#DB1318" d="M22.763,2.819c0.007,0.002,0.011,0.006,0.013,0.013C22.769,2.83,22.765,2.826,22.763,2.819z"/>
	<path fill="#DB1318" d="M22.775,2.831c0.007,0.002,0.011,0.006,0.013,0.013C22.781,2.842,22.777,2.838,22.775,2.831z"/>
	<path fill="#DB1318" d="M22.787,2.843c0.007,0.002,0.011,0.006,0.013,0.012C22.793,2.854,22.789,2.85,22.787,2.843z"/>
	<path fill="#DB1318" d="M22.799,2.855c0.007,0.002,0.011,0.006,0.013,0.012C22.805,2.866,22.801,2.862,22.799,2.855z"/>
	<path fill="#DB1318" d="M22.812,2.867c0.007,0.002,0.011,0.006,0.013,0.012C22.817,2.878,22.813,2.874,22.812,2.867z"/>
	<path fill="#DB1318" d="M22.824,2.879c0.006,0.002,0.011,0.006,0.013,0.012C22.829,2.89,22.825,2.885,22.824,2.879z"/>
	<path fill="#DB1318" d="M22.836,2.891c0.004,0.004,0.008,0.008,0.012,0.012C22.842,2.901,22.837,2.897,22.836,2.891z"/>
	<path fill="#DB1318" d="M22.848,2.903c0.004,0.004,0.008,0.008,0.012,0.012C22.854,2.913,22.849,2.909,22.848,2.903z"/>
	<path fill="#DB1318" d="M22.86,2.914c0.004,0.004,0.008,0.008,0.012,0.012C22.866,2.925,22.862,2.921,22.86,2.914z"/>
	<path fill="#DB1318" d="M22.872,2.926c0.004,0.004,0.008,0.008,0.012,0.012C22.878,2.937,22.874,2.933,22.872,2.926z"/>
	<path fill="#DB1318" d="M22.884,2.938c0.004,0.004,0.008,0.008,0.012,0.012C22.89,2.949,22.886,2.945,22.884,2.938z"/>
	<polygon fill="#666666" points="26.398,9.57 26.404,9.575 26.401,9.574 26.399,9.57 	"/>
	<path fill="#D71217" d="M24.275,10.194c0.004,0.004,0.008,0.008,0.012,0.012C24.281,10.205,24.277,10.201,24.275,10.194z"/>
	<path fill="#CA0F13" d="M24.899,10.806c0.004,0.004,0.008,0.008,0.013,0.012C24.905,10.816,24.901,10.812,24.899,10.806z"/>
	<path fill="#666666" d="M10.046,9.434c-0.017-0.003-0.026-0.018-0.037-0.028C9.862,9.262,9.715,9.118,9.568,8.974
		C9.28,8.691,8.992,8.408,8.704,8.125C8.502,7.927,8.299,7.728,8.096,7.529C8.021,7.455,7.944,7.382,7.869,7.308
		c-0.01-0.01-0.02-0.02-0.029-0.03C7.832,7.27,7.831,7.26,7.836,7.25c0.021-0.041,0.041-0.082,0.061-0.123
		c0.108-0.212,0.215-0.423,0.324-0.635C8.235,6.467,8.233,6.446,8.22,6.421C8.114,6.224,8.01,6.026,7.905,5.828
		C7.817,5.663,7.73,5.496,7.642,5.331C7.535,5.128,7.427,4.925,7.32,4.722C7.245,4.581,7.171,4.44,7.096,4.299
		C7.019,4.154,6.941,4.011,6.865,3.866C6.81,3.764,6.757,3.661,6.704,3.559C6.699,3.55,6.693,3.542,6.697,3.531
		c0.02,0.006,0.03,0.022,0.042,0.034c0.245,0.241,0.491,0.481,0.736,0.722c0.217,0.213,0.433,0.425,0.65,0.638
		C8.322,5.117,8.519,5.31,8.716,5.503c0.083,0.081,0.166,0.162,0.249,0.242c0.01,0.01,0.02,0.02,0.03,0.03
		c0.01,0.01,0.011,0.02,0.004,0.032C8.994,5.817,8.99,5.826,8.986,5.835c-0.041,0.08-0.082,0.16-0.122,0.24
		c-0.08,0.158-0.16,0.317-0.241,0.475C8.609,6.576,8.612,6.598,8.625,6.623C8.693,6.754,8.76,6.885,8.827,7.017
		C8.891,7.143,8.955,7.27,9.019,7.396c0.117,0.229,0.233,0.459,0.35,0.688c0.101,0.199,0.203,0.398,0.305,0.597
		c0.111,0.217,0.222,0.433,0.333,0.65c0.014,0.027,0.027,0.053,0.041,0.08C10.051,9.418,10.052,9.426,10.046,9.434z"/>
	<path fill="#D51116" d="M8.744,11.393c-0.034,0.001-0.068,0-0.102,0.002c-0.026,0.002-0.045-0.008-0.063-0.026
		c-0.071-0.07-0.143-0.139-0.214-0.209c-0.18-0.176-0.359-0.353-0.539-0.53C7.8,10.605,7.77,10.584,7.751,10.553
		c0.002-0.001,0.003-0.002,0.005-0.003c0.081-0.008,0.081-0.008,0.081-0.092c0-0.826,0-1.652,0.001-2.477
		c0-0.04-0.014-0.086,0.031-0.114c0.011,0.009,0.022,0.017,0.032,0.026c0.286,0.281,0.572,0.562,0.858,0.843
		C8.77,8.746,8.78,8.758,8.791,8.77c0.043,0.047,0.056,0.103,0.056,0.166c-0.001,0.773,0,1.546-0.001,2.319
		C8.847,11.355,8.84,11.362,8.744,11.393z"/>
	<path fill="#666666" d="M8.193,1.732c0.057-0.008,2.782-0.009,2.838-0.002c0.003,0.023-0.012,0.041-0.021,0.06
		c-0.057,0.114-0.115,0.229-0.172,0.343c-0.066,0.13-0.131,0.26-0.197,0.39c-0.174,0.344-0.347,0.687-0.521,1.031
		c-0.006,0.012-0.011,0.026-0.023,0.035c-0.014,0.003-0.02-0.009-0.028-0.017c-0.025-0.023-0.049-0.048-0.073-0.071
		C9.726,3.237,9.456,2.972,9.187,2.707C8.979,2.503,8.77,2.299,8.562,2.095C8.455,1.99,8.347,1.885,8.24,1.781
		C8.226,1.767,8.212,1.752,8.193,1.732z"/>
	<path fill="#AF070A" d="M8.385,2.48C8.397,2.491,8.41,2.5,8.421,2.511C8.67,2.756,8.92,3.001,9.169,3.246
		C9.411,3.484,9.653,3.722,9.895,3.96c0.003,0.003,0.006,0.006,0.009,0.008c0.013,0.01,0.015,0.022,0.007,0.037
		c-0.014,0.027-0.027,0.054-0.04,0.08c-0.108,0.213-0.217,0.427-0.325,0.64c-0.08,0.157-0.159,0.313-0.239,0.47
		C9.279,5.252,9.252,5.31,9.223,5.367C9.215,5.382,9.205,5.397,9.197,5.412c-0.016,0.001-0.023-0.01-0.031-0.018
		c-0.027-0.026-0.054-0.053-0.081-0.08C8.838,5.072,8.591,4.83,8.345,4.588C8.327,4.57,8.303,4.557,8.291,4.533
		c0.085-0.01,0.085-0.01,0.085-0.106c0-0.602-0.001-1.204,0.001-1.807C8.378,2.574,8.357,2.526,8.385,2.48z"/>
	<path fill="#C00C0F" d="M8.744,11.393c0.013-0.017,0.033-0.022,0.051-0.03c0.026-0.012,0.036-0.03,0.033-0.057
		c-0.001-0.016,0-0.032,0-0.048c0-0.771,0-1.543,0-2.314c0-0.046-0.002-0.091-0.024-0.133C8.798,8.797,8.795,8.783,8.791,8.77
		C8.81,8.778,8.822,8.795,8.836,8.809C9.008,8.978,9.18,9.148,9.352,9.317c0.12,0.118,0.24,0.234,0.359,0.352
		c0.014,0.014,0.027,0.029,0.04,0.044c0.014,0.025,0.019,0.052,0.019,0.08c0,0.494,0,0.989,0,1.483c0,0.059-0.02,0.1-0.08,0.117
		c-0.014,0.001-0.028,0.002-0.042,0.002c-0.286,0-0.572,0.001-0.858,0.001C8.775,11.395,8.759,11.393,8.744,11.393z"/>
	<path fill="#C60D11" d="M8.385,2.48c0.017,0.083,0.011,0.166,0.011,0.25c0,0.587,0,1.173,0,1.76c0,0.02,0,0.04-0.001,0.06
		C8.393,4.563,8.38,4.571,8.368,4.566c-0.026-0.01-0.051-0.022-0.077-0.033C8.268,4.511,8.244,4.49,8.221,4.468
		C8.053,4.303,7.885,4.137,7.716,3.972c-0.08-0.078-0.16-0.156-0.24-0.234c-0.014-0.014-0.031-0.025-0.04-0.044
		c0.023-0.03,0.029-0.065,0.029-0.102c0-0.578,0-1.155,0-1.733c0-0.08-0.01-0.088-0.091-0.089C7.156,1.769,6.938,1.773,6.72,1.768
		C6.625,1.766,6.53,1.78,6.436,1.759C6.428,1.755,6.426,1.749,6.429,1.74c0.02-0.001,0.04-0.002,0.06-0.002
		c0.362,0,0.723,0,1.085,0.001c0.006,0,0.012,0.001,0.018,0c0.03-0.004,0.052,0.009,0.074,0.03c0.232,0.229,0.464,0.457,0.696,0.685
		C8.37,2.462,8.377,2.471,8.385,2.48z"/>
	<path fill="#EB171D" d="M7.869,7.866C7.862,7.88,7.855,7.895,7.856,7.912c0.001,0.016,0,0.032,0,0.048c0,0.851,0,1.701,0,2.552
		c0,0.02,0,0.04-0.002,0.06c-0.001,0.012-0.016,0.02-0.027,0.013c-0.024-0.015-0.05-0.025-0.076-0.032
		c-0.012-0.01-0.025-0.02-0.036-0.031c-0.327-0.32-0.653-0.64-0.98-0.96C6.731,9.557,6.727,9.553,6.722,9.549
		c-0.034-0.034-0.034-0.034-0.011-0.08C6.799,9.294,6.888,9.12,6.976,8.946C7.085,8.731,7.195,8.515,7.304,8.3
		c0.107-0.21,0.213-0.42,0.32-0.629c0.004-0.009,0.008-0.018,0.018-0.023C7.68,7.674,7.812,7.8,7.869,7.866z"/>
	<path fill="#666666" d="M5.744,11.393c-0.004-0.017,0.002-0.026,0.007-0.035c0.248-0.487,0.495-0.975,0.743-1.462
		c0.002-0.003,0.006-0.004,0.01-0.007c0.018,0.006,0.028,0.021,0.04,0.034c0.148,0.146,0.296,0.292,0.444,0.438
		c0.215,0.211,0.431,0.423,0.646,0.634c0.118,0.116,0.237,0.232,0.356,0.348c0.014,0.013,0.026,0.028,0.039,0.043
		c-0.007,0.004-0.01,0.008-0.013,0.008C7.261,11.393,6.503,11.393,5.744,11.393z"/>
	<path fill="#AC0708" d="M9.691,11.393c0.005-0.006,0.009-0.015,0.015-0.018c0.039-0.017,0.046-0.049,0.045-0.088
		c-0.001-0.499-0.001-0.997-0.001-1.496c0-0.026,0-0.052,0.001-0.078C9.76,9.719,9.768,9.724,9.775,9.731
		c0.279,0.274,0.558,0.549,0.838,0.823c0.02,0.02,0.036,0.042,0.049,0.067c0.122,0.24,0.243,0.48,0.365,0.72
		c0.005,0.009,0.01,0.018,0.014,0.027c0.007,0.014,0.001,0.024-0.014,0.025c-0.014,0.001-0.028,0.001-0.042,0.001
		c-0.415,0-0.831,0.001-1.246,0.001C9.723,11.395,9.707,11.393,9.691,11.393z"/>
	<path fill="#D91217" d="M6.717,1.751c0.228,0,0.455,0.001,0.683-0.001C7.47,1.75,7.485,1.772,7.485,1.833
		C7.484,2.43,7.484,3.027,7.484,3.624c0,0.008,0,0.016,0,0.024C7.482,3.683,7.479,3.687,7.437,3.694c0,0,0,0,0,0
		C7.432,3.69,7.428,3.686,7.424,3.682l0,0C7.42,3.678,7.416,3.674,7.412,3.67l0,0C7.408,3.666,7.404,3.662,7.4,3.658l0,0
		C7.396,3.654,7.392,3.65,7.388,3.646l0,0C7.384,3.642,7.38,3.638,7.376,3.634l0,0C7.373,3.63,7.368,3.625,7.364,3.622l0,0
		C7.361,3.617,7.356,3.614,7.351,3.61C7.341,3.601,7.33,3.593,7.32,3.583C7.122,3.39,6.925,3.196,6.727,3.003
		C6.714,2.99,6.699,2.98,6.692,2.963C6.706,2.921,6.71,2.877,6.71,2.833C6.708,2.488,6.712,2.142,6.707,1.797
		C6.707,1.781,6.706,1.765,6.717,1.751z"/>
	<path fill="#E9161D" d="M6.717,1.751c0.01,0.03,0.012,0.062,0.012,0.094c0,0.341,0,0.681,0,1.022c0,0.018,0.001,0.036-0.001,0.054
		C6.724,2.941,6.717,2.96,6.692,2.963c0,0,0,0,0,0C6.689,2.958,6.685,2.954,6.68,2.951L6.68,2.951
		C6.677,2.946,6.673,2.942,6.667,2.939l0.001,0.001C6.665,2.934,6.661,2.93,6.655,2.927l0.001,0.001
		c-0.003-0.005-0.007-0.01-0.013-0.013l0.001,0.001C6.641,2.91,6.637,2.906,6.631,2.903l0.001,0.001
		c-0.003-0.006-0.007-0.01-0.013-0.013L6.62,2.892c-0.003-0.006-0.007-0.01-0.013-0.013L6.608,2.88
		C6.605,2.874,6.601,2.87,6.595,2.867l0.001,0.001C6.593,2.862,6.589,2.858,6.583,2.855l0.001,0.001
		C6.581,2.85,6.577,2.846,6.571,2.843l0.001,0.001C6.569,2.838,6.565,2.834,6.558,2.832l0.001,0.001
		C6.557,2.826,6.553,2.822,6.546,2.82l0.001,0.001C6.545,2.814,6.541,2.81,6.534,2.808l0.001,0.001
		C6.533,2.801,6.528,2.797,6.52,2.796C6.481,2.759,6.441,2.723,6.403,2.685C6.3,2.585,6.198,2.483,6.095,2.383
		c-0.02-0.02-0.038-0.041-0.051-0.066C5.95,2.14,5.857,1.964,5.763,1.788C5.76,1.781,5.758,1.773,5.755,1.765
		c-0.002-0.012,0.004-0.02,0.016-0.019C5.99,1.748,6.21,1.738,6.429,1.751C6.525,1.751,6.621,1.751,6.717,1.751z"/>
	<path fill="#D91217" d="M6.429,1.751c-0.204,0-0.409,0-0.613,0c-0.021,0-0.044-0.007-0.061,0.014
		C5.747,1.745,5.748,1.74,5.759,1.739c0.01-0.001,0.02-0.001,0.03-0.001c0.203,0,0.407,0,0.61,0c0.01,0,0.02,0.001,0.03,0.002
		C6.429,1.744,6.429,1.747,6.429,1.751z"/>
	<path fill="#D91217" d="M6.52,2.796c0.008,0.001,0.013,0.005,0.015,0.013C6.528,2.807,6.523,2.803,6.52,2.796z"/>
	<path fill="#D91217" d="M6.534,2.808c0.007,0.001,0.012,0.005,0.013,0.013C6.54,2.819,6.536,2.815,6.534,2.808z"/>
	<path fill="#D91217" d="M6.546,2.82c0.007,0.001,0.012,0.006,0.013,0.013C6.552,2.831,6.548,2.827,6.546,2.82z"/>
	<path fill="#D91217" d="M6.558,2.832C6.566,2.833,6.57,2.837,6.572,2.844C6.564,2.843,6.56,2.839,6.558,2.832z"/>
	<path fill="#D91217" d="M6.571,2.843c0.007,0.001,0.011,0.006,0.013,0.013C6.577,2.855,6.572,2.85,6.571,2.843z"/>
	<path fill="#D91217" d="M6.583,2.855C6.59,2.857,6.594,2.861,6.596,2.868C6.589,2.867,6.584,2.862,6.583,2.855z"/>
	<path fill="#D91217" d="M6.595,2.867C6.602,2.869,6.606,2.873,6.608,2.88C6.601,2.878,6.596,2.874,6.595,2.867z"/>
	<path fill="#D91217" d="M6.607,2.879C6.614,2.881,6.618,2.885,6.62,2.892C6.613,2.89,6.609,2.886,6.607,2.879z"/>
	<path fill="#D91217" d="M6.619,2.891C6.626,2.893,6.63,2.897,6.632,2.904C6.625,2.902,6.621,2.898,6.619,2.891z"/>
	<path fill="#D91217" d="M6.631,2.903c0.007,0.002,0.011,0.006,0.013,0.013C6.637,2.914,6.633,2.91,6.631,2.903z"/>
	<path fill="#D91217" d="M6.643,2.915C6.65,2.917,6.654,2.921,6.656,2.927C6.649,2.926,6.645,2.922,6.643,2.915z"/>
	<path fill="#D91217" d="M6.655,2.927c0.007,0.002,0.011,0.006,0.013,0.013C6.661,2.938,6.657,2.934,6.655,2.927z"/>
	<path fill="#D91217" d="M6.667,2.939C6.674,2.941,6.678,2.945,6.68,2.951C6.673,2.95,6.669,2.946,6.667,2.939z"/>
	<path fill="#D91217" d="M6.68,2.951C6.686,2.952,6.69,2.957,6.692,2.963C6.685,2.962,6.681,2.958,6.68,2.951z"/>
	<path fill="#C60D11" d="M7.351,3.61C7.356,3.614,7.36,3.618,7.364,3.622C7.357,3.621,7.353,3.617,7.351,3.61z"/>
	<path fill="#C60D11" d="M7.364,3.622C7.368,3.626,7.372,3.63,7.376,3.634C7.37,3.633,7.365,3.629,7.364,3.622z"/>
	<path fill="#C60D11" d="M7.376,3.634C7.38,3.638,7.384,3.642,7.388,3.646C7.382,3.645,7.377,3.641,7.376,3.634z"/>
	<path fill="#C60D11" d="M7.388,3.646C7.392,3.65,7.396,3.654,7.4,3.658C7.394,3.656,7.39,3.652,7.388,3.646z"/>
	<path fill="#C60D11" d="M7.4,3.658C7.404,3.662,7.408,3.666,7.412,3.67C7.406,3.668,7.402,3.664,7.4,3.658z"/>
	<path fill="#C60D11" d="M7.412,3.67C7.416,3.674,7.42,3.678,7.424,3.682C7.418,3.68,7.414,3.676,7.412,3.67z"/>
	<path fill="#C60D11" d="M7.424,3.682C7.428,3.686,7.432,3.69,7.436,3.693C7.43,3.692,7.426,3.688,7.424,3.682z"/>
	<path fill="#D01014" d="M3.839,10.52c-0.009,0.029-0.022,0.055-0.044,0.078c-0.03-0.034-0.045-0.073-0.066-0.109
		c-0.085-0.149-0.167-0.3-0.251-0.449c-0.116-0.207-0.233-0.414-0.35-0.62C3.035,9.255,2.942,9.089,2.85,8.924
		C2.843,8.912,2.838,8.899,2.833,8.886c0.03-0.02,0.04-0.048,0.038-0.082c-0.001-0.014,0-0.028,0-0.042c0-1.558,0-3.116,0-4.674
		c0-0.008-0.001-0.016,0-0.024C2.878,4.021,2.86,3.997,2.816,3.991c0.026-0.063,0.065-0.119,0.099-0.177
		C3.002,3.661,3.091,3.51,3.179,3.358C3.277,3.189,3.375,3.02,3.473,2.851c0.095-0.164,0.189-0.328,0.284-0.492
		C3.76,2.353,3.763,2.348,3.766,2.343C3.773,2.331,3.784,2.33,3.789,2.34c0.016,0.032,0.038,0.061,0.049,0.096
		c0.039,0.073,0.045,0.15,0.045,0.232c-0.001,2.538-0.001,5.076,0,7.614C3.883,10.365,3.877,10.445,3.839,10.52z"/>
	<path fill="#BD0B0E" d="M3.839,10.52c-0.003-0.022,0.001-0.044,0.01-0.064c0.012-0.028,0.015-0.058,0.013-0.088
		c-0.001-0.012,0-0.024,0-0.036c0-2.571,0-5.143,0-7.714c0-0.048,0.002-0.096-0.019-0.141C3.837,2.465,3.839,2.45,3.837,2.436
		C3.866,2.465,3.88,2.503,3.899,2.537c0.1,0.177,0.199,0.355,0.297,0.532C4.268,3.199,4.339,3.328,4.41,3.457
		c0.065,0.119,0.13,0.237,0.196,0.356c0.059,0.114,0.056,0.238,0.056,0.362c-0.001,1.546-0.001,3.092,0,4.638
		c0,0.116,0.002,0.232-0.056,0.338C4.551,9.252,4.496,9.354,4.44,9.455C4.387,9.551,4.333,9.646,4.28,9.742
		C4.215,9.858,4.149,9.974,4.084,10.09c-0.05,0.09-0.1,0.181-0.15,0.272c-0.025,0.045-0.05,0.091-0.075,0.136
		C3.854,10.506,3.846,10.513,3.839,10.52z"/>
	<path fill="#E7161C" d="M2.816,3.991c0.021-0.003,0.034-0.02,0.05-0.03c0.007-0.004,0.016-0.001,0.02,0.008
		C2.889,3.974,2.89,3.981,2.89,3.986c0.001,0.016,0,0.032,0,0.048c0,1.592,0,3.184,0,4.776c0,0.018,0.001,0.036-0.001,0.054
		C2.888,8.89,2.877,8.896,2.85,8.89C2.844,8.889,2.839,8.888,2.833,8.886C2.83,8.884,2.829,8.881,2.829,8.878
		C2.821,8.855,2.811,8.833,2.794,8.815l0,0.001C2.791,8.811,2.788,8.807,2.785,8.803C2.782,8.801,2.781,8.798,2.781,8.795
		C2.78,8.788,2.775,8.783,2.772,8.778l0-0.001C2.763,8.772,2.766,8.761,2.759,8.754l0-0.001C2.755,8.751,2.752,8.748,2.751,8.743
		C2.747,8.74,2.746,8.737,2.746,8.733C2.743,8.728,2.74,8.723,2.737,8.719c-0.003-0.003-0.004-0.006-0.004-0.01
		C2.732,8.704,2.728,8.7,2.725,8.695C2.722,8.692,2.721,8.689,2.721,8.686C2.72,8.68,2.715,8.675,2.711,8.67l0,0
		C2.704,8.664,2.706,8.653,2.698,8.647l0,0C2.695,8.644,2.692,8.64,2.69,8.635C2.687,8.632,2.686,8.629,2.686,8.624
		C2.683,8.62,2.68,8.615,2.677,8.611C2.674,8.609,2.673,8.606,2.673,8.603C2.672,8.596,2.668,8.592,2.664,8.587
		C2.662,8.585,2.661,8.582,2.661,8.579C2.66,8.572,2.656,8.567,2.652,8.562L2.651,8.561c-0.004-0.002-0.007-0.006-0.008-0.01
		c-0.003-0.003-0.005-0.006-0.005-0.01C2.635,8.536,2.632,8.532,2.63,8.527c-0.003-0.003-0.004-0.006-0.004-0.01
		C2.623,8.512,2.62,8.508,2.617,8.503C2.614,8.501,2.613,8.498,2.613,8.495c-0.001-0.007-0.005-0.012-0.01-0.016l0,0
		C2.596,8.472,2.598,8.461,2.591,8.455l0,0C2.584,8.448,2.586,8.437,2.578,8.431l0.001,0.001C2.575,8.428,2.572,8.423,2.569,8.419
		C2.566,8.417,2.565,8.414,2.565,8.41C2.564,8.404,2.56,8.4,2.557,8.395C2.554,8.393,2.553,8.39,2.553,8.387
		C2.552,8.38,2.548,8.375,2.543,8.371l0,0C2.539,8.367,2.536,8.364,2.534,8.359c-0.085-0.151-0.17-0.302-0.255-0.454
		C2.196,7.758,2.113,7.61,2.03,7.462C1.929,7.283,1.829,7.104,1.728,6.925C1.633,6.754,1.537,6.584,1.44,6.414
		C1.429,6.394,1.43,6.379,1.442,6.36c0.102-0.174,0.202-0.349,0.303-0.523c0.113-0.195,0.225-0.39,0.339-0.585
		c0.12-0.207,0.241-0.414,0.361-0.62c0.026-0.045,0.052-0.09,0.078-0.134C2.524,4.492,2.527,4.488,2.53,4.485l0,0
		C2.538,4.48,2.535,4.468,2.544,4.463l0.001-0.001c0.003-0.005,0.007-0.009,0.009-0.015c0-0.004,0.001-0.007,0.004-0.01
		C2.56,4.432,2.563,4.428,2.566,4.423c0-0.004,0.001-0.008,0.004-0.01c0.002-0.005,0.005-0.008,0.009-0.011L2.58,4.402
		c0.004-0.005,0.008-0.009,0.01-0.016c0-0.004,0.001-0.006,0.004-0.009C2.596,4.372,2.6,4.368,2.602,4.362
		c0-0.004,0.001-0.007,0.004-0.009c0.003-0.004,0.006-0.008,0.009-0.012l0,0c0.005-0.004,0.01-0.009,0.01-0.017
		C2.624,4.322,2.625,4.319,2.628,4.317c0.004-0.005,0.008-0.009,0.009-0.016c0-0.003,0.001-0.006,0.004-0.008
		C2.644,4.289,2.647,4.285,2.65,4.28l0,0.001c0.008-0.006,0.006-0.017,0.013-0.023l0,0C2.67,4.251,2.667,4.24,2.675,4.234l0-0.001
		c0.004-0.005,0.008-0.009,0.01-0.015c0-0.004,0.001-0.007,0.004-0.01C2.692,4.205,2.695,4.2,2.698,4.196
		C2.7,4.192,2.701,4.189,2.702,4.185c0.002-0.005,0.005-0.008,0.008-0.011l0,0c0.005-0.004,0.009-0.009,0.01-0.015
		c0-0.004,0.001-0.007,0.004-0.009C2.728,4.145,2.731,4.14,2.734,4.135c0-0.004,0.001-0.007,0.004-0.01
		C2.74,4.121,2.743,4.117,2.746,4.112l0,0.001c0.006-0.004,0.01-0.009,0.011-0.016c0-0.003,0.001-0.006,0.004-0.008
		C2.764,4.084,2.768,4.08,2.769,4.074c0-0.004,0.001-0.006,0.004-0.009c0.003-0.004,0.006-0.009,0.009-0.013L2.781,4.053
		C2.79,4.048,2.787,4.036,2.795,4.03l0,0c0.007-0.006,0.004-0.017,0.012-0.023l0-0.001C2.811,4.001,2.816,3.998,2.816,3.991
		L2.816,3.991z"/>
	<path fill="#AF0709" d="M4.606,9.151C4.607,9.137,4.604,9.122,4.61,9.11c0.014-0.029,0.017-0.061,0.023-0.092
		C4.64,8.988,4.642,8.959,4.642,8.93c0-1.632,0-3.264,0.001-4.896c0-0.045-0.014-0.086-0.014-0.13c0-0.006-0.002-0.012-0.006-0.016
		c-0.02-0.022-0.017-0.048-0.016-0.074c0.027,0.046,0.055,0.092,0.081,0.139C4.794,4.144,4.9,4.336,5.006,4.528
		C5.084,4.669,5.163,4.81,5.242,4.951c0.02,0.037,0.04,0.074,0.059,0.11c0.047,0.098,0.057,0.2,0.057,0.308
		C5.356,6.098,5.356,6.826,5.357,7.554c0,0.12,0.003,0.24-0.055,0.35C5.28,7.946,5.259,7.989,5.235,8.031
		c-0.089,0.16-0.179,0.32-0.269,0.48C4.85,8.72,4.734,8.929,4.617,9.138C4.615,9.143,4.61,9.147,4.606,9.151z"/>
	<path fill="#9F0304" d="M5.302,7.904C5.301,7.886,5.302,7.869,5.309,7.851C5.33,7.789,5.338,7.724,5.338,7.658
		c-0.001-0.769-0.001-1.538,0-2.307c0-0.082-0.005-0.163-0.031-0.241C5.302,5.093,5.301,5.078,5.301,5.062
		c0.04,0.057,0.07,0.12,0.104,0.181c0.068,0.12,0.135,0.24,0.202,0.36c0.05,0.091,0.1,0.182,0.15,0.273
		C5.821,5.991,5.886,6.105,5.95,6.22c0.046,0.082,0.091,0.164,0.137,0.246C6.094,6.48,6.093,6.492,6.086,6.506
		C6.053,6.563,6.022,6.621,5.99,6.679C5.936,6.776,5.882,6.874,5.827,6.971C5.762,7.088,5.696,7.204,5.63,7.321
		C5.591,7.39,5.553,7.46,5.514,7.53C5.447,7.65,5.38,7.77,5.313,7.891C5.31,7.896,5.306,7.9,5.302,7.904z"/>
	<path fill="#D01014" d="M2.794,8.815c0.027,0.012,0.041,0.032,0.035,0.063C2.81,8.861,2.799,8.84,2.794,8.815z"/>
	<path fill="#D01014" d="M2.578,8.431c0.011,0.004,0.013,0.013,0.013,0.023C2.582,8.449,2.578,8.441,2.578,8.431z"/>
	<path fill="#D01014" d="M2.591,8.455C2.6,8.46,2.603,8.468,2.603,8.478C2.594,8.473,2.59,8.465,2.591,8.455z"/>
	<path fill="#D01014" d="M2.698,8.647C2.708,8.652,2.711,8.66,2.711,8.67C2.702,8.665,2.698,8.657,2.698,8.647z"/>
	<path fill="#D01014" d="M2.544,4.463C2.543,4.472,2.54,4.481,2.53,4.485C2.53,4.475,2.534,4.467,2.544,4.463z"/>
	<path fill="#D01014" d="M2.795,4.03c0,0.01-0.003,0.019-0.014,0.023C2.781,4.043,2.786,4.035,2.795,4.03z"/>
	<path fill="#D01014" d="M2.663,4.258c0,0.01-0.003,0.019-0.013,0.023C2.65,4.271,2.654,4.263,2.663,4.258z"/>
	<path fill="#D01014" d="M2.675,4.234c0,0.01-0.003,0.018-0.012,0.023C2.662,4.247,2.666,4.24,2.675,4.234z"/>
	<path fill="#D01014" d="M2.807,4.007c0,0.01-0.003,0.018-0.012,0.023C2.795,4.02,2.799,4.012,2.807,4.007z"/>
	<path fill="#D01014" d="M2.759,8.754c0.009,0.005,0.012,0.013,0.012,0.023C2.763,8.772,2.759,8.764,2.759,8.754z"/>
	<path fill="#D01014" d="M2.734,4.135c0,0.006-0.003,0.011-0.009,0.014C2.725,4.143,2.728,4.138,2.734,4.135z"/>
	<path fill="#D01014" d="M2.721,4.158c0,0.007-0.004,0.012-0.01,0.015C2.711,4.166,2.715,4.161,2.721,4.158z"/>
	<path fill="#D01014" d="M2.711,4.174C2.708,4.177,2.705,4.181,2.702,4.185C2.702,4.179,2.705,4.175,2.711,4.174z"/>
	<path fill="#D01014" d="M2.698,4.196C2.695,4.2,2.693,4.205,2.69,4.209C2.69,4.203,2.693,4.199,2.698,4.196z"/>
	<path fill="#D01014" d="M2.686,4.219C2.685,4.226,2.681,4.23,2.676,4.234C2.676,4.227,2.679,4.222,2.686,4.219z"/>
	<path fill="#D01014" d="M2.65,4.28C2.647,4.285,2.644,4.289,2.641,4.293C2.641,4.287,2.644,4.283,2.65,4.28z"/>
	<path fill="#D01014" d="M2.637,4.301c0,0.007-0.003,0.012-0.009,0.016C2.628,4.31,2.631,4.305,2.637,4.301z"/>
	<path fill="#D01014" d="M2.625,4.325c0,0.008-0.004,0.013-0.01,0.017C2.615,4.334,2.618,4.328,2.625,4.325z"/>
	<path fill="#D01014" d="M2.615,4.341C2.611,4.345,2.608,4.349,2.605,4.353C2.605,4.347,2.609,4.343,2.615,4.341z"/>
	<path fill="#D01014" d="M2.601,4.362c-0.003,0.005-0.006,0.01-0.009,0.015C2.593,4.37,2.596,4.366,2.601,4.362z"/>
	<path fill="#D01014" d="M2.589,4.386c0,0.007-0.003,0.012-0.01,0.016C2.58,4.395,2.583,4.389,2.589,4.386z"/>
	<path fill="#D01014" d="M2.579,4.402C2.576,4.406,2.573,4.409,2.57,4.413C2.57,4.407,2.574,4.404,2.579,4.402z"/>
	<path fill="#D01014" d="M2.566,4.423C2.563,4.428,2.56,4.432,2.558,4.437C2.557,4.431,2.56,4.426,2.566,4.423z"/>
	<path fill="#D01014" d="M2.554,4.447c-0.003,0.005-0.006,0.01-0.009,0.015C2.547,4.457,2.551,4.452,2.554,4.447z"/>
	<path fill="#D01014" d="M2.53,4.485C2.528,4.489,2.525,4.493,2.522,4.497C2.522,4.491,2.525,4.487,2.53,4.485z"/>
	<path fill="#D01014" d="M2.534,8.359C2.537,8.363,2.54,8.367,2.543,8.371C2.537,8.369,2.534,8.365,2.534,8.359z"/>
	<path fill="#D01014" d="M2.543,8.371c0.006,0.003,0.01,0.008,0.01,0.016C2.547,8.383,2.544,8.378,2.543,8.371z"/>
	<path fill="#D01014" d="M2.557,8.395C2.562,8.398,2.565,8.404,2.565,8.41C2.559,8.407,2.557,8.402,2.557,8.395z"/>
	<path fill="#D01014" d="M2.569,8.419c0.003,0.004,0.006,0.009,0.009,0.013C2.572,8.43,2.569,8.426,2.569,8.419z"/>
	<path fill="#D01014" d="M2.603,8.479c0.006,0.004,0.01,0.009,0.01,0.016C2.607,8.491,2.603,8.486,2.603,8.479z"/>
	<path fill="#D01014" d="M2.617,8.503c0.006,0.003,0.009,0.008,0.009,0.014C2.62,8.514,2.617,8.51,2.617,8.503z"/>
	<path fill="#D01014" d="M2.63,8.527c0.003,0.005,0.006,0.009,0.008,0.014C2.632,8.538,2.629,8.534,2.63,8.527z"/>
	<path fill="#D01014" d="M2.643,8.551c0.003,0.003,0.006,0.007,0.008,0.01C2.646,8.56,2.643,8.557,2.643,8.551z"/>
	<path fill="#D01014" d="M2.652,8.562c0.006,0.004,0.009,0.009,0.009,0.016C2.655,8.575,2.652,8.57,2.652,8.562z"/>
	<path fill="#D01014" d="M2.664,8.587C2.67,8.59,2.673,8.596,2.673,8.603C2.667,8.599,2.664,8.594,2.664,8.587z"/>
	<path fill="#D01014" d="M2.677,8.611C2.68,8.615,2.683,8.62,2.686,8.624C2.68,8.622,2.677,8.618,2.677,8.611z"/>
	<path fill="#D01014" d="M2.69,8.635c0.003,0.004,0.005,0.008,0.008,0.012C2.693,8.645,2.69,8.641,2.69,8.635z"/>
	<path fill="#D01014" d="M2.711,8.67c0.006,0.003,0.01,0.008,0.01,0.015C2.715,8.683,2.711,8.678,2.711,8.67z"/>
	<path fill="#D01014" d="M2.725,8.695c0.006,0.003,0.009,0.008,0.009,0.014C2.728,8.706,2.725,8.702,2.725,8.695z"/>
	<path fill="#D01014" d="M2.737,8.719c0.006,0.003,0.008,0.008,0.008,0.014C2.74,8.73,2.737,8.725,2.737,8.719z"/>
	<path fill="#D01014" d="M2.751,8.743C2.754,8.747,2.756,8.75,2.759,8.754C2.754,8.752,2.751,8.749,2.751,8.743z"/>
	<path fill="#D01014" d="M2.772,8.778c0.006,0.004,0.009,0.009,0.009,0.016C2.775,8.791,2.771,8.786,2.772,8.778z"/>
	<path fill="#D01014" d="M2.785,8.803c0.003,0.004,0.006,0.009,0.009,0.013C2.788,8.813,2.785,8.809,2.785,8.803z"/>
	<path fill="#D01014" d="M2.817,3.991c0,0.007-0.004,0.011-0.009,0.014C2.808,3.999,2.81,3.994,2.817,3.991z"/>
	<path fill="#D01014" d="M2.782,4.052C2.779,4.056,2.776,4.061,2.773,4.065C2.772,4.059,2.775,4.054,2.782,4.052z"/>
	<path fill="#D01014" d="M2.769,4.074c0,0.007-0.003,0.012-0.009,0.015C2.76,4.082,2.763,4.077,2.769,4.074z"/>
	<path fill="#D01014" d="M2.757,4.097c0,0.008-0.004,0.013-0.011,0.016C2.746,4.105,2.75,4.1,2.757,4.097z"/>
	<path fill="#D01014" d="M2.746,4.112C2.743,4.117,2.74,4.121,2.738,4.125C2.737,4.119,2.74,4.115,2.746,4.112z"/>
	<path fill="#C00C0F" d="M29.349,2.591c0.027,0.025,0.038,0.06,0.056,0.091c0.085,0.148,0.167,0.299,0.251,0.448
		c0.098,0.175,0.198,0.35,0.295,0.525c0.033,0.059,0.07,0.116,0.096,0.178c0.07,0.122,0.066,0.256,0.066,0.39
		c-0.001,1.626-0.001,3.252,0,4.878c0,0.147,0.002,0.292-0.08,0.422c-0.004,0.023-0.019,0.039-0.03,0.058
		c-0.141,0.245-0.282,0.49-0.424,0.735c-0.07,0.121-0.14,0.241-0.21,0.362c-0.005,0.008-0.013,0.015-0.019,0.023
		c-0.026-0.025-0.018-0.056-0.012-0.084c0.012-0.055,0.014-0.111,0.014-0.167c0-2.531,0-5.063,0-7.594
		c0-0.062-0.004-0.124-0.014-0.185C29.335,2.644,29.327,2.615,29.349,2.591z"/>
	<path fill="#CF1014" d="M29.349,2.591c-0.002,0.044,0.012,0.086,0.018,0.129c0.003,0.018,0.006,0.035,0.006,0.053
		c0,0.014,0,0.028,0,0.042c0,2.556,0,5.112,0.001,7.667c0,0.05-0.005,0.099-0.017,0.148c-0.006,0.024-0.008,0.047-0.005,0.071
		c-0.001,0.004-0.001,0.008-0.003,0.011c-0.01,0.017-0.014,0.046-0.032,0.047c-0.024,0.001-0.027-0.03-0.037-0.048
		c-0.067-0.118-0.133-0.236-0.199-0.354c-0.071-0.127-0.141-0.254-0.212-0.382c-0.051-0.092-0.103-0.184-0.154-0.277
		C28.708,9.69,28.7,9.68,28.7,9.667c0.032-0.013,0.044-0.037,0.042-0.071c-0.001-0.018,0-0.036,0-0.054c0-1.95,0-3.9,0-5.85
		c0-0.006,0-0.012,0-0.018c0-0.072,0-0.072-0.066-0.067c0.024-0.064,0.063-0.119,0.095-0.179c0.086-0.157,0.174-0.312,0.262-0.469
		c0.082-0.146,0.163-0.292,0.244-0.437c0.005-0.009,0.011-0.016,0.018-0.027C29.32,2.527,29.337,2.557,29.349,2.591z"/>
	<path fill="#B0080A" d="M30.034,9.524c-0.002-0.033,0.012-0.063,0.026-0.091c0.023-0.046,0.03-0.094,0.033-0.144
		c0.001-0.01,0-0.02,0-0.03c0-1.724,0-3.447,0.001-5.171c0-0.048-0.012-0.094-0.015-0.142c-0.001-0.015-0.011-0.03-0.019-0.043
		c-0.012-0.022-0.017-0.045-0.012-0.069c0.014,0.01,0.019,0.025,0.027,0.039c0.103,0.185,0.206,0.369,0.309,0.554
		c0.127,0.226,0.254,0.452,0.381,0.678c0.022,0.04,0.049,0.077,0.064,0.121c0.037,0.11,0.029,0.224,0.029,0.338
		c0,0.751-0.001,1.501,0.001,2.252c0,0.138,0.003,0.276-0.067,0.401c-0.017,0.032-0.032,0.064-0.05,0.095
		C30.62,8.518,30.5,8.725,30.381,8.932c-0.107,0.184-0.213,0.369-0.32,0.553C30.054,9.499,30.043,9.511,30.034,9.524z"/>
	<path fill="#DA1318" d="M28.676,3.608c0.026-0.009,0.038-0.035,0.06-0.049c0.004-0.003,0.011-0.004,0.016-0.003
		c0.007,0.001,0.008,0.008,0.009,0.014c0.001,0.016,0.001,0.032,0.001,0.048c0,2.002,0,4.003,0,6.005
		c0,0.084-0.005,0.065-0.062,0.044c0,0,0.001,0,0.001,0c-0.003-0.005-0.006-0.009-0.009-0.013c-0.003-0.002-0.004-0.006-0.004-0.009
		c-0.011-0.022-0.02-0.044-0.035-0.063c-0.037-0.05-0.063-0.106-0.093-0.16c-0.125-0.222-0.25-0.445-0.373-0.668
		c-0.026-0.047-0.058-0.091-0.075-0.142c0.031-0.014,0.044-0.038,0.042-0.071c-0.001-0.014,0-0.028,0-0.042c0-1.257,0-2.515,0-3.772
		c0-0.006-0.001-0.012,0-0.018c0.008-0.044-0.011-0.066-0.054-0.068c0.003-0.009,0.005-0.019,0.01-0.028
		c0.082-0.147,0.165-0.293,0.247-0.44c0.002-0.004,0.005-0.008,0.008-0.011l0-0.001c0.004-0.005,0.009-0.009,0.01-0.016
		c0-0.004,0.001-0.006,0.003-0.009c0.003-0.005,0.007-0.009,0.009-0.015c0-0.004,0.001-0.007,0.004-0.009
		c0.003-0.004,0.006-0.008,0.009-0.012l0,0.001c0.008-0.006,0.006-0.017,0.013-0.023l0,0c0.007-0.006,0.005-0.017,0.012-0.024l0,0
		c0.005-0.005,0.009-0.01,0.01-0.017c0-0.003,0.001-0.006,0.004-0.008c0.003-0.005,0.006-0.009,0.009-0.014
		c0-0.004,0.001-0.007,0.004-0.01C28.455,4,28.458,3.996,28.461,3.991c0.002-0.004,0.003-0.007,0.005-0.011
		c0.001-0.004,0.004-0.008,0.008-0.01l0.001-0.001c0.004-0.005,0.009-0.01,0.01-0.017c-0.001-0.003,0-0.006,0.003-0.008
		c0.004-0.005,0.008-0.009,0.009-0.016c0-0.003,0.001-0.006,0.004-0.008c0.003-0.004,0.006-0.009,0.009-0.014
		c0-0.004,0.001-0.008,0.004-0.011c0.002-0.005,0.005-0.009,0.008-0.013c0.001-0.004,0.003-0.008,0.004-0.011
		c0.002-0.004,0.005-0.008,0.008-0.011l0,0c0.005-0.004,0.009-0.009,0.011-0.016c0-0.004,0.001-0.006,0.004-0.009
		c0.003-0.005,0.007-0.009,0.009-0.015c0-0.004,0.001-0.007,0.003-0.009c0.003-0.005,0.007-0.009,0.009-0.014
		c0-0.004,0.002-0.007,0.005-0.01c0.002-0.004,0.004-0.008,0.008-0.011l0,0c0.007-0.006,0.005-0.017,0.012-0.023l0,0
		c0.007-0.006,0.004-0.017,0.012-0.022l0.001-0.002c0.003-0.005,0.007-0.009,0.009-0.015c0-0.004,0.001-0.007,0.004-0.01
		c0.003-0.005,0.005-0.009,0.008-0.014c0-0.004,0.001-0.008,0.004-0.01c0.002-0.004,0.005-0.008,0.009-0.012l0,0
		c0.005-0.004,0.01-0.009,0.011-0.016c-0.001-0.003,0-0.006,0.003-0.008c0.004-0.005,0.008-0.009,0.009-0.016
		c-0.001-0.003,0-0.006,0.003-0.008C28.671,3.617,28.674,3.613,28.676,3.608L28.676,3.608z"/>
	<path fill="#E8161C" d="M28.101,4.64c0.022,0.001,0.033-0.011,0.038-0.03c0.002-0.006,0.006-0.011,0.012-0.011
		c0.009-0.001,0.015,0.006,0.018,0.013c0.003,0.007,0.004,0.015,0.005,0.023c0.001,0.016,0,0.032,0,0.048c0,1.289,0,2.578,0,3.867
		c0,0.018,0.001,0.036-0.001,0.054c-0.001,0.02-0.013,0.026-0.033,0.019c-0.009-0.003-0.018-0.008-0.028-0.011c0,0,0.001,0,0.001,0
		c-0.003-0.004-0.006-0.009-0.009-0.013C28.102,8.597,28.1,8.594,28.101,8.59c-0.002-0.006-0.006-0.01-0.009-0.015
		c-0.036-0.048-0.06-0.103-0.09-0.155c-0.134-0.238-0.267-0.477-0.4-0.715c-0.106-0.19-0.211-0.38-0.317-0.57
		c-0.089-0.16-0.179-0.32-0.268-0.48c-0.002-0.003-0.004-0.007-0.006-0.01c-0.014-0.02-0.014-0.039-0.001-0.061
		c0.027-0.046,0.053-0.094,0.079-0.141c0.074-0.132,0.148-0.264,0.222-0.397c0.087-0.155,0.173-0.31,0.26-0.465
		c0.087-0.155,0.173-0.31,0.259-0.465c0.085-0.151,0.17-0.303,0.254-0.454c0.002-0.003,0.005-0.006,0.008-0.009
		C28.095,4.648,28.098,4.644,28.101,4.64L28.101,4.64z"/>
	<path fill="#A10405" d="M30.789,8.217c-0.004-0.025,0.002-0.048,0.012-0.07c0.029-0.065,0.036-0.133,0.036-0.203
		c-0.001-0.842-0.001-1.684,0-2.526c0-0.046-0.002-0.092-0.017-0.135c-0.008-0.022-0.003-0.039,0.007-0.056
		c0.028,0.029,0.043,0.067,0.063,0.101c0.078,0.137,0.155,0.275,0.232,0.413c0.083,0.148,0.165,0.297,0.248,0.445
		c0.064,0.115,0.129,0.229,0.194,0.344c0.028,0.05,0.055,0.102,0.084,0.152c0.013,0.022,0.011,0.04-0.001,0.061
		c-0.024,0.041-0.047,0.083-0.071,0.125c-0.115,0.199-0.23,0.398-0.345,0.596c-0.11,0.19-0.221,0.379-0.331,0.569
		c-0.025,0.043-0.049,0.087-0.073,0.131C30.815,8.182,30.806,8.201,30.789,8.217z"/>
	<path fill="#CF1014" d="M28.653,9.582c0.026,0.013,0.034,0.036,0.035,0.063C28.671,9.627,28.658,9.607,28.653,9.582z"/>
	<path fill="#CF1014" d="M28.594,3.754c0,0.01-0.003,0.018-0.012,0.023C28.582,3.768,28.586,3.76,28.594,3.754z"/>
	<path fill="#CF1014" d="M28.414,4.078c0,0.01-0.003,0.019-0.013,0.023C28.402,4.091,28.405,4.083,28.414,4.078z"/>
	<path fill="#CF1014" d="M28.607,3.732c-0.001,0.009-0.004,0.017-0.012,0.022C28.594,3.744,28.598,3.736,28.607,3.732z"/>
	<path fill="#CF1014" d="M28.426,4.054c0,0.01-0.003,0.019-0.012,0.024C28.414,4.068,28.418,4.06,28.426,4.054z"/>
	<path fill="#CF1014" d="M28.389,4.122c-0.003,0.005-0.006,0.01-0.009,0.015C28.38,4.13,28.383,4.126,28.389,4.122z"/>
	<path fill="#CF1014" d="M28.377,4.146c-0.001,0.007-0.004,0.012-0.01,0.016C28.37,4.156,28.373,4.151,28.377,4.146z"/>
	<path fill="#CF1014" d="M28.366,4.162c-0.003,0.004-0.006,0.007-0.008,0.011C28.357,4.167,28.361,4.164,28.366,4.162z"/>
	<path fill="#DA1318" d="M28.101,4.64c-0.003,0.004-0.006,0.009-0.009,0.013C28.093,4.646,28.095,4.642,28.101,4.64z"/>
	<path fill="#CF1014" d="M28.677,3.608c-0.003,0.004-0.006,0.009-0.009,0.013C28.667,3.615,28.67,3.61,28.677,3.608z"/>
	<path fill="#CF1014" d="M28.664,3.63c0,0.007-0.003,0.012-0.009,0.016C28.655,3.639,28.658,3.633,28.664,3.63z"/>
	<path fill="#CF1014" d="M28.652,3.653c0,0.008-0.004,0.013-0.011,0.016C28.642,3.662,28.646,3.657,28.652,3.653z"/>
	<path fill="#CF1014" d="M28.642,3.67c-0.003,0.004-0.006,0.008-0.009,0.012C28.633,3.675,28.636,3.671,28.642,3.67z"/>
	<path fill="#CF1014" d="M28.629,3.692c-0.003,0.005-0.006,0.009-0.008,0.014C28.62,3.699,28.624,3.695,28.629,3.692z"/>
	<path fill="#CF1014" d="M28.617,3.715c-0.003,0.005-0.006,0.01-0.009,0.015C28.611,3.725,28.614,3.72,28.617,3.715z"/>
	<path fill="#CF1014" d="M28.582,3.778c-0.003,0.004-0.005,0.007-0.008,0.011C28.576,3.785,28.579,3.782,28.582,3.778z"/>
	<path fill="#CF1014" d="M28.569,3.799c-0.003,0.005-0.006,0.01-0.009,0.014C28.56,3.807,28.563,3.802,28.569,3.799z"/>
	<path fill="#CF1014" d="M28.557,3.822c-0.003,0.005-0.006,0.01-0.009,0.015C28.548,3.831,28.551,3.826,28.557,3.822z"/>
	<path fill="#CF1014" d="M28.544,3.846c-0.001,0.007-0.004,0.012-0.011,0.016C28.534,3.854,28.538,3.849,28.544,3.846z"/>
	<path fill="#DA1318" d="M28.091,8.574c0.003,0.005,0.006,0.01,0.009,0.015C28.095,8.586,28.092,8.581,28.091,8.574z"/>
	<path fill="#DA1318" d="M28.105,8.599c0.003,0.004,0.006,0.009,0.009,0.013C28.107,8.61,28.104,8.606,28.105,8.599z"/>
	<path fill="#CF1014" d="M28.534,3.862c-0.003,0.004-0.005,0.007-0.008,0.011C28.525,3.867,28.529,3.864,28.534,3.862z"/>
	<path fill="#CF1014" d="M28.521,3.884c-0.003,0.004-0.005,0.008-0.008,0.013C28.516,3.893,28.519,3.889,28.521,3.884z"/>
	<path fill="#CF1014" d="M28.509,3.908c-0.003,0.005-0.006,0.009-0.009,0.014C28.5,3.915,28.503,3.91,28.509,3.908z"/>
	<path fill="#CF1014" d="M28.496,3.929c0,0.007-0.003,0.012-0.009,0.016C28.487,3.938,28.49,3.933,28.496,3.929z"/>
	<path fill="#CF1014" d="M28.484,3.953c0,0.007-0.003,0.013-0.01,0.017C28.475,3.963,28.478,3.957,28.484,3.953z"/>
	<path fill="#CF1014" d="M28.474,3.971c-0.003,0.003-0.005,0.007-0.008,0.01C28.469,3.977,28.471,3.974,28.474,3.971z"/>
	<path fill="#CF1014" d="M28.461,3.991c-0.003,0.005-0.006,0.009-0.008,0.014C28.452,3.999,28.456,3.994,28.461,3.991z"/>
	<path fill="#CF1014" d="M28.449,4.015c-0.003,0.005-0.006,0.009-0.009,0.014C28.443,4.024,28.446,4.02,28.449,4.015z"/>
	<path fill="#CF1014" d="M28.436,4.037c0,0.007-0.004,0.013-0.01,0.017C28.426,4.046,28.43,4.041,28.436,4.037z"/>
	<path fill="#CF1014" d="M28.692,9.654c0.003,0.004,0.006,0.009,0.009,0.013C28.694,9.665,28.692,9.661,28.692,9.654z"/>
	<path fill="#CF1014" d="M28.401,4.101c-0.003,0.004-0.006,0.008-0.009,0.012C28.392,4.107,28.395,4.103,28.401,4.101z"/>
	<path d="M18.35,7.541c-0.036,0.01-0.072,0.021-0.109,0.028c-0.124,0.025-0.248,0.025-0.371,0c-0.049-0.01-0.095-0.027-0.139-0.05
		c-0.009-0.004-0.018-0.008-0.027-0.012c0,0,0,0,0,0C17.7,7.503,17.695,7.5,17.691,7.497l-0.001-0.001
		c-0.002-0.005-0.005-0.008-0.01-0.009c-0.002-0.003-0.005-0.005-0.009-0.005c-0.007-0.002-0.012-0.006-0.014-0.012l0.001,0.001
		c-0.006-0.002-0.01-0.007-0.013-0.013l0.001,0.001c-0.007-0.002-0.011-0.007-0.013-0.014c-0.041-0.058-0.071-0.12-0.08-0.191
		c-0.008-0.066-0.012-0.131,0.006-0.196c0.023-0.087,0.077-0.152,0.152-0.199c0.025-0.016,0.052-0.03,0.077-0.045
		c0.027-0.024,0.059-0.032,0.094-0.032c0.126,0,0.252-0.002,0.378,0.001c0.058,0.001,0.116,0.009,0.153,0.065
		c0.014,0.011,0.027,0.023,0.041,0.034c0.08,0.065,0.126,0.148,0.127,0.252c0.001,0.054,0.002,0.107-0.013,0.16
		c-0.028,0.099-0.086,0.173-0.176,0.223C18.378,7.525,18.364,7.533,18.35,7.541z"/>
	<path d="M17.703,5.599c0.068-0.055,0.146-0.089,0.232-0.105c0.112-0.02,0.223-0.015,0.332,0.015
		c0.011,0.003,0.023,0.005,0.035,0.008c0.011,0.013,0.027,0.016,0.041,0.023c0.099,0.05,0.159,0.128,0.18,0.239
		c0.019,0.103,0.004,0.199-0.047,0.289c-0.015,0.026-0.035,0.048-0.052,0.072c-0.033,0.07-0.09,0.108-0.164,0.112
		c-0.126,0.006-0.252,0.002-0.378,0.001c-0.033,0-0.064-0.008-0.083-0.039c-0.03-0.027-0.06-0.052-0.088-0.08
		c-0.066-0.066-0.101-0.146-0.104-0.24c-0.002-0.04-0.001-0.079,0.005-0.119c0.01-0.056,0.036-0.105,0.068-0.151
		c0.004-0.004,0.008-0.008,0.011-0.012l0.001-0.001C17.695,5.608,17.699,5.605,17.703,5.599L17.703,5.599z"/>
	<path fill="#C10C10" d="M17.799,6.214c0.03,0.016,0.062,0.022,0.097,0.021c0.119-0.001,0.238-0.001,0.357,0
		c0.034,0,0.062-0.007,0.088-0.028c0.027-0.023,0.055-0.045,0.083-0.067c0.021,0.002,0.033,0.012,0.035,0.033
		c0.001,0.012,0.001,0.024,0.001,0.036c0,0.185,0,0.37,0,0.555c0,0.01,0,0.02,0,0.03c-0.001,0.03-0.016,0.048-0.046,0.052
		c-0.068-0.042-0.143-0.053-0.222-0.049c-0.091,0.004-0.182,0.002-0.274,0.001C17.873,6.798,17.83,6.8,17.788,6.813
		c0.019-0.034,0.025-0.069,0.024-0.108c-0.002-0.121-0.001-0.241-0.001-0.362c0-0.034,0.002-0.067-0.01-0.1
		C17.797,6.235,17.799,6.224,17.799,6.214z"/>
	<path fill="#CA0E13" d="M17.702,5.6c-0.001,0.006-0.005,0.01-0.011,0.011C17.694,5.607,17.698,5.604,17.702,5.6z"/>
	<path fill="#CA0E13" d="M17.69,5.612c-0.001,0.007-0.004,0.011-0.011,0.012C17.683,5.62,17.686,5.616,17.69,5.612z"/>
	<path fill="#C90E12" d="M17.633,7.444c0.007,0.002,0.011,0.007,0.013,0.014C17.638,7.456,17.634,7.452,17.633,7.444z"/>
	<path fill="#C90E12" d="M17.645,7.457c0.007,0.002,0.011,0.006,0.013,0.013C17.65,7.469,17.646,7.465,17.645,7.457z"/>
	<path fill="#C90E12" d="M17.656,7.469c0.007,0.001,0.012,0.006,0.014,0.012C17.663,7.481,17.658,7.477,17.656,7.469z"/>
	<path fill="#C90E12" d="M17.679,7.487c0.006,0,0.009,0.003,0.01,0.009C17.686,7.493,17.683,7.49,17.679,7.487z"/>
	<path fill="#C90E12" d="M17.691,7.497c0.007,0,0.011,0.003,0.014,0.01C17.7,7.504,17.695,7.5,17.691,7.497z"/>
</g>
</svg>
