<?xml version="1.0" encoding="utf-8"?>
<!-- Generator: Adobe Illustrator 24.3.0, SVG Export Plug-In . SVG Version: 6.00 Build 0)  -->
<svg version="1.1" id="Слой_1" xmlns="http://www.w3.org/2000/svg" xmlns:xlink="http://www.w3.org/1999/xlink" x="0px" y="0px"
	 width="32px" height="13px" viewBox="0 0 32 13" enable-background="new 0 0 32 13" xml:space="preserve">
<g>
	<path d="M9.691,6.753c0.064-0.106,0.127-0.211,0.191-0.316c0.051-0.084,0.103-0.168,0.154-0.252
		c0.075-0.122,0.15-0.245,0.224-0.367c0.069-0.114,0.138-0.228,0.207-0.342c0.071-0.117,0.144-0.234,0.215-0.351
		c0.049-0.08,0.097-0.162,0.146-0.242c0.071-0.117,0.143-0.234,0.215-0.351c0.068-0.112,0.136-0.224,0.204-0.337
		c0.073-0.121,0.147-0.241,0.221-0.362c0.067-0.11,0.134-0.221,0.201-0.331c0.074-0.121,0.147-0.241,0.221-0.362
		c0.068-0.112,0.136-0.224,0.204-0.337c0.072-0.119,0.145-0.238,0.218-0.357c0.069-0.114,0.138-0.228,0.207-0.342
		c0.072-0.119,0.145-0.238,0.218-0.357c0.037-0.061,0.073-0.123,0.111-0.184c0.03-0.049,0.031-0.049,0.087-0.049
		c0.004,0,0.008,0,0.012,0c2.075,0,4.149,0,6.224,0c0.088,0,0.067-0.016,0.118,0.068c0.09,0.149,0.182,0.297,0.272,0.446
		c0.067,0.11,0.134,0.221,0.201,0.331c0.095,0.156,0.19,0.311,0.285,0.467c0.066,0.109,0.131,0.217,0.197,0.326
		c0.075,0.122,0.15,0.245,0.224,0.367c0.069,0.114,0.138,0.228,0.207,0.342c0.071,0.117,0.143,0.234,0.215,0.351
		c0.048,0.079,0.095,0.158,0.143,0.237c0.073,0.119,0.146,0.237,0.218,0.356c0.067,0.11,0.133,0.221,0.201,0.331
		c0.095,0.156,0.19,0.311,0.285,0.467c0.066,0.108,0.132,0.217,0.198,0.326c0.076,0.124,0.152,0.248,0.227,0.372
		c0.044,0.072,0.087,0.144,0.131,0.215c0.037,0.061,0.075,0.122,0.112,0.184c0.01,0.016,0.018,0.032,0.027,0.048
		c-0.011,0.028-0.028,0.051-0.043,0.075c-0.067,0.108-0.132,0.217-0.198,0.326C22.092,7.31,21.996,7.467,21.9,7.625
		c-0.067,0.11-0.134,0.221-0.201,0.331c-0.094,0.154-0.188,0.308-0.282,0.462c-0.067,0.11-0.134,0.221-0.201,0.331
		c-0.073,0.121-0.147,0.241-0.221,0.362c-0.069,0.114-0.138,0.228-0.207,0.342c-0.071,0.117-0.143,0.234-0.215,0.351
		c-0.046,0.075-0.091,0.151-0.137,0.226c-0.076,0.124-0.152,0.248-0.227,0.372c-0.069,0.114-0.137,0.228-0.207,0.342
		c-0.092,0.15-0.184,0.301-0.276,0.451c-0.069,0.114-0.138,0.228-0.207,0.342c-0.071,0.117-0.143,0.234-0.215,0.351
		c-0.016,0.026-0.031,0.053-0.047,0.08c-0.009,0.016-0.022,0.023-0.041,0.022c-0.014-0.001-0.029,0-0.043,0
		c-2.079,0-4.157,0-6.236,0c-0.064,0-0.065,0-0.097-0.053c-0.067-0.11-0.134-0.221-0.201-0.331
		c-0.073-0.121-0.147-0.241-0.221-0.362c-0.068-0.112-0.136-0.224-0.204-0.336c-0.073-0.121-0.147-0.241-0.221-0.362
		c-0.067-0.11-0.134-0.221-0.201-0.331c-0.073-0.121-0.148-0.241-0.221-0.362c-0.068-0.112-0.136-0.224-0.204-0.337
		c-0.073-0.121-0.147-0.241-0.221-0.362c-0.067-0.11-0.134-0.221-0.201-0.331c-0.074-0.121-0.147-0.241-0.221-0.362
		c-0.067-0.11-0.134-0.221-0.201-0.331c-0.073-0.121-0.147-0.241-0.221-0.362c-0.068-0.112-0.136-0.224-0.204-0.336
		C10.029,7.31,9.955,7.19,9.882,7.069C9.818,6.964,9.755,6.859,9.691,6.753z"/>
	<path d="M20.689,11.438c3.052-3.019,6.1-6.033,9.148-9.046c0.006-0.005,0.01-0.013,0.024-0.012
		c0.011,0.024,0.023,0.049,0.033,0.075c0.051,0.13,0.1,0.26,0.151,0.389c0.068,0.173,0.137,0.346,0.206,0.519
		c0.025,0.063,0.049,0.126,0.074,0.189c0.077,0.194,0.153,0.388,0.23,0.583c0.023,0.059,0.045,0.119,0.069,0.178
		c0.079,0.2,0.158,0.4,0.236,0.6c0.049,0.126,0.098,0.252,0.147,0.378c0.071,0.179,0.142,0.358,0.213,0.537
		c0.022,0.055,0.043,0.111,0.065,0.166c0.071,0.183,0.142,0.366,0.214,0.549c0.06,0.154,0.121,0.309,0.182,0.463
		c0.04,0.101,0.079,0.202,0.12,0.303c0.011,0.027,0.01,0.048-0.006,0.074c-0.034,0.054-0.063,0.11-0.094,0.165
		c-0.054,0.094-0.109,0.188-0.163,0.282c-0.071,0.122-0.142,0.244-0.213,0.367c-0.047,0.082-0.093,0.164-0.14,0.245
		c-0.074,0.128-0.148,0.255-0.222,0.383c-0.069,0.119-0.137,0.238-0.205,0.357c-0.073,0.126-0.146,0.252-0.218,0.378
		c-0.068,0.117-0.134,0.235-0.202,0.352c-0.073,0.126-0.146,0.252-0.219,0.377c-0.045,0.078-0.09,0.156-0.135,0.234
		c-0.064,0.112-0.129,0.224-0.192,0.336c-0.011,0.019-0.024,0.024-0.044,0.026c-0.169,0.016-0.339,0.033-0.508,0.05
		c-0.186,0.019-0.371,0.038-0.557,0.057c-0.145,0.014-0.29,0.027-0.435,0.042c-0.143,0.014-0.286,0.029-0.428,0.043
		c-0.102,0.01-0.204,0.019-0.306,0.03c-0.104,0.01-0.208,0.021-0.312,0.031c-0.1,0.01-0.2,0.019-0.3,0.029
		c-0.108,0.011-0.216,0.022-0.324,0.033c-0.1,0.01-0.2,0.019-0.3,0.029c-0.106,0.01-0.212,0.021-0.318,0.032
		c-0.1,0.01-0.2,0.02-0.3,0.03c-0.11,0.011-0.22,0.022-0.331,0.033c-0.1,0.01-0.2,0.019-0.3,0.029
		c-0.106,0.01-0.212,0.021-0.318,0.032c-0.098,0.01-0.196,0.019-0.294,0.029c-0.11,0.011-0.22,0.022-0.331,0.033
		c-0.102,0.01-0.204,0.02-0.306,0.03c-0.104,0.01-0.208,0.021-0.312,0.031c-0.102,0.01-0.204,0.02-0.306,0.03
		c-0.106,0.011-0.212,0.021-0.318,0.032c-0.1,0.01-0.2,0.019-0.3,0.029c-0.108,0.011-0.216,0.022-0.324,0.032
		c-0.1,0.01-0.2,0.019-0.3,0.029c-0.108,0.011-0.216,0.022-0.324,0.032c-0.096,0.01-0.192,0.019-0.288,0.028
		c-0.063,0.006-0.127,0.012-0.19,0.018c-0.091,0.009-0.165-0.021-0.217-0.099c-0.02-0.03-0.047-0.051-0.073-0.075
		C20.783,11.522,20.738,11.483,20.689,11.438z"/>
	<path d="M11.442,11.465c-0.056,0.051-0.109,0.1-0.162,0.148c-0.017,0.015-0.032,0.031-0.045,0.05
		c-0.054,0.078-0.129,0.109-0.223,0.099c-0.106-0.011-0.212-0.021-0.318-0.031c-0.145-0.014-0.29-0.029-0.435-0.044
		c-0.098-0.01-0.196-0.019-0.294-0.029c-0.11-0.011-0.22-0.022-0.331-0.033c-0.1-0.01-0.2-0.019-0.3-0.029
		c-0.108-0.011-0.216-0.022-0.324-0.033c-0.098-0.01-0.196-0.019-0.294-0.028c-0.108-0.011-0.216-0.022-0.324-0.033
		c-0.098-0.01-0.196-0.019-0.294-0.029c-0.11-0.011-0.22-0.022-0.331-0.033c-0.096-0.009-0.192-0.019-0.288-0.028
		c-0.112-0.011-0.224-0.022-0.337-0.033c-0.098-0.01-0.196-0.019-0.294-0.029c-0.108-0.011-0.216-0.022-0.324-0.032
		c-0.098-0.01-0.196-0.019-0.294-0.029c-0.11-0.011-0.22-0.022-0.331-0.033c-0.096-0.01-0.192-0.019-0.288-0.028
		c-0.155-0.015-0.31-0.031-0.465-0.046c-0.1-0.01-0.2-0.019-0.3-0.029c-0.106-0.01-0.212-0.022-0.318-0.032
		c-0.098-0.01-0.196-0.019-0.294-0.029c-0.108-0.011-0.216-0.022-0.324-0.032c-0.1-0.01-0.2-0.02-0.3-0.029
		c-0.108-0.011-0.216-0.022-0.324-0.032c-0.1-0.01-0.2-0.019-0.3-0.029c-0.108-0.011-0.216-0.022-0.324-0.033
		c-0.092-0.009-0.184-0.019-0.276-0.027c-0.021-0.002-0.033-0.01-0.043-0.027c-0.024-0.043-0.05-0.085-0.075-0.127
		c-0.091-0.158-0.181-0.317-0.272-0.474c-0.11-0.19-0.22-0.379-0.33-0.569c-0.071-0.122-0.14-0.245-0.211-0.368
		C1.365,9.189,1.275,9.036,1.186,8.881C1.139,8.8,1.093,8.718,1.046,8.636c-0.075-0.13-0.15-0.259-0.224-0.388
		c-0.07-0.121-0.138-0.242-0.208-0.362C0.543,7.763,0.472,7.641,0.401,7.518C0.377,7.478,0.354,7.436,0.33,7.396
		C0.319,7.378,0.319,7.363,0.327,7.344c0.046-0.116,0.092-0.232,0.138-0.348C0.489,6.933,0.515,6.87,0.54,6.807
		c0.051-0.132,0.101-0.264,0.153-0.395c0.068-0.173,0.138-0.346,0.206-0.52c0.05-0.126,0.098-0.252,0.147-0.378
		c0.07-0.179,0.141-0.358,0.212-0.537C1.283,4.917,1.306,4.856,1.33,4.795c0.071-0.181,0.141-0.363,0.212-0.544
		C1.601,4.1,1.661,3.95,1.72,3.8c0.068-0.173,0.137-0.346,0.206-0.52c0.048-0.122,0.095-0.244,0.143-0.366
		c0.067-0.17,0.133-0.339,0.2-0.508c0.013-0.006,0.019,0.003,0.026,0.01c0.184,0.182,0.367,0.364,0.551,0.545
		c0.195,0.193,0.391,0.386,0.586,0.58C3.62,3.726,3.808,3.913,3.996,4.099C4.211,4.311,4.425,4.523,4.64,4.735
		c0.188,0.186,0.376,0.373,0.564,0.559c0.235,0.232,0.47,0.464,0.705,0.696C6.12,6.199,6.331,6.408,6.542,6.617
		c0.211,0.209,0.423,0.418,0.635,0.627c0.21,0.208,0.42,0.416,0.63,0.623c0.273,0.27,0.546,0.539,0.818,0.809
		c0.232,0.229,0.463,0.459,0.695,0.688C9.51,9.552,9.7,9.74,9.89,9.927c0.174,0.172,0.347,0.344,0.52,0.515
		c0.229,0.226,0.458,0.453,0.687,0.679c0.108,0.107,0.216,0.213,0.324,0.32C11.427,11.447,11.431,11.454,11.442,11.465z"/>
	<path d="M2.63,1.712c3.123,0,6.234,0,9.345,0c0,0.016-0.013,0.012-0.02,0.013c-0.231,0.057-0.461,0.114-0.692,0.17
		c-0.45,0.11-0.899,0.22-1.349,0.33C9.436,2.341,8.958,2.457,8.481,2.574c-0.43,0.105-0.859,0.21-1.289,0.315
		C7.118,2.907,7.044,2.924,6.97,2.942c-0.018,0.004-0.035,0.01-0.052,0.014C6.915,2.969,6.919,2.979,6.923,2.988
		C6.972,3.098,7.021,3.209,7.07,3.319c0.078,0.176,0.155,0.352,0.232,0.529c0.05,0.114,0.099,0.229,0.149,0.344
		c0.07,0.159,0.14,0.318,0.21,0.478C7.71,4.78,7.758,4.891,7.806,5.002c0.072,0.165,0.145,0.33,0.218,0.495
		c0.05,0.114,0.099,0.229,0.149,0.344C8.245,6.003,8.317,6.166,8.388,6.33c0.045,0.103,0.09,0.207,0.135,0.31
		C8.599,6.812,8.675,6.984,8.75,7.157c0.047,0.107,0.093,0.214,0.14,0.321c0.073,0.167,0.147,0.333,0.22,0.5
		c0.049,0.113,0.098,0.225,0.147,0.338c0.032,0.073,0.065,0.146,0.097,0.219c0.002,0.005,0.003,0.011,0.004,0.018
		C9.345,8.561,9.339,8.55,9.333,8.544c-0.108-0.11-0.215-0.22-0.323-0.33C8.839,8.04,8.668,7.866,8.497,7.692
		C8.345,7.537,8.193,7.382,8.041,7.226C7.893,7.076,7.745,6.925,7.597,6.774C7.424,6.599,7.252,6.423,7.08,6.247
		C6.907,6.072,6.735,5.896,6.562,5.72C6.41,5.565,6.258,5.41,6.106,5.255C5.935,5.08,5.764,4.907,5.593,4.733
		C5.425,4.561,5.257,4.39,5.089,4.219C4.895,4.021,4.701,3.823,4.507,3.626c-0.19-0.193-0.379-0.387-0.569-0.58
		C3.706,2.809,3.473,2.572,3.24,2.335C3.069,2.16,2.898,1.986,2.728,1.812C2.698,1.781,2.668,1.751,2.63,1.712z"/>
	<path d="M20.147,1.691c0.059-0.007,9.267-0.009,9.342-0.003c0.006,0.013-0.005,0.018-0.011,0.025c-0.25,0.255-0.5,0.509-0.75,0.764
		c-0.208,0.212-0.416,0.425-0.625,0.637c-0.214,0.218-0.428,0.436-0.642,0.654c-0.208,0.212-0.416,0.425-0.625,0.637
		c-0.214,0.218-0.428,0.436-0.642,0.654c-0.208,0.212-0.416,0.425-0.625,0.637c-0.236,0.24-0.471,0.48-0.707,0.72
		c-0.19,0.193-0.379,0.387-0.569,0.58c-0.233,0.237-0.466,0.474-0.699,0.711c-0.188,0.192-0.376,0.384-0.564,0.576
		c-0.067,0.069-0.135,0.138-0.202,0.207c-0.014,0.014-0.029,0.028-0.045,0.042c-0.008-0.012-0.003-0.022,0.001-0.031
		c0.052-0.118,0.104-0.236,0.156-0.354c0.024-0.054,0.048-0.109,0.072-0.163c0.071-0.163,0.141-0.327,0.213-0.49
		c0.082-0.188,0.164-0.375,0.246-0.563c0.08-0.182,0.16-0.364,0.239-0.546c0.08-0.184,0.161-0.368,0.241-0.552
		c0.06-0.137,0.12-0.274,0.18-0.411c0.081-0.186,0.163-0.371,0.244-0.557c0.08-0.182,0.159-0.364,0.239-0.546
		c0.082-0.188,0.164-0.375,0.246-0.563c0.079-0.18,0.157-0.36,0.236-0.54c0.034-0.077,0.068-0.153,0.102-0.23
		c0.007-0.017,0.013-0.034,0.021-0.055c-0.189-0.049-0.376-0.093-0.563-0.138c-0.187-0.046-0.374-0.091-0.561-0.137
		c-0.189-0.046-0.378-0.092-0.567-0.139c-0.187-0.046-0.374-0.092-0.561-0.138c-0.187-0.046-0.374-0.092-0.561-0.137
		c-0.187-0.046-0.374-0.091-0.561-0.137c-0.189-0.046-0.378-0.092-0.567-0.138c-0.187-0.045-0.374-0.09-0.561-0.137
		C20.53,1.786,20.343,1.743,20.147,1.691z"/>
	<path d="M20.443,2.304c0.008,0.001,0.016,0.001,0.024,0.002c0.433,0.108,0.866,0.216,1.3,0.324c0.455,0.113,0.91,0.225,1.366,0.338
		c0.398,0.098,0.795,0.197,1.192,0.296c0.006,0.001,0.012,0.003,0.018,0.005c0.009,0.003,0.013,0.01,0.01,0.019
		c-0.006,0.015-0.013,0.03-0.02,0.045c-0.054,0.119-0.108,0.239-0.162,0.358c-0.072,0.158-0.144,0.317-0.215,0.475
		c-0.045,0.099-0.089,0.198-0.133,0.297c-0.076,0.168-0.152,0.336-0.228,0.504c-0.047,0.105-0.093,0.21-0.14,0.314
		c-0.074,0.164-0.149,0.328-0.223,0.492c-0.049,0.108-0.097,0.217-0.146,0.325c-0.016,0.035-0.033,0.07-0.052,0.11
		C23.015,6.185,23,6.166,22.987,6.146c-0.092-0.138-0.183-0.277-0.274-0.415c-0.11-0.165-0.221-0.33-0.331-0.496
		c-0.091-0.136-0.18-0.274-0.271-0.41c-0.09-0.135-0.18-0.269-0.27-0.404c-0.091-0.136-0.18-0.274-0.271-0.41
		c-0.091-0.137-0.182-0.272-0.273-0.409c-0.07-0.106-0.14-0.212-0.21-0.318c-0.091-0.136-0.182-0.272-0.273-0.409
		c-0.067-0.101-0.133-0.202-0.2-0.302c-0.052-0.079-0.104-0.157-0.156-0.235C20.451,2.328,20.441,2.32,20.443,2.304z"/>
	<path d="M9.099,6.228c-0.003-0.004-0.008-0.008-0.01-0.013C9.046,6.12,9.003,6.025,8.96,5.93C8.885,5.764,8.809,5.598,8.734,5.432
		c-0.047-0.104-0.093-0.209-0.14-0.314c-0.073-0.162-0.147-0.324-0.22-0.487c-0.05-0.112-0.1-0.225-0.15-0.337
		c-0.071-0.157-0.142-0.313-0.213-0.47C7.966,3.726,7.922,3.627,7.877,3.528c-0.03-0.067-0.06-0.135-0.09-0.202
		C7.784,3.319,7.782,3.311,7.779,3.303c0.009-0.004,0.016-0.009,0.023-0.011c1.295-0.322,2.591-0.643,3.893-0.966
		c-0.009,0.017-0.014,0.028-0.02,0.038c-0.856,1.288-1.712,2.576-2.569,3.864C9.105,6.228,9.103,6.228,9.099,6.228z"/>
	<path fill="#666666" d="M13.976,9.371c0.037,0.074,0.07,0.142,0.103,0.21c0.034,0.07,0.067,0.141,0.101,0.211
		c0.073,0.153,0.147,0.307,0.22,0.46c0.045,0.094,0.092,0.188,0.137,0.282c0.015,0.031,0.029,0.063,0.044,0.095
		c0.007,0.015,0.015,0.029,0.024,0.043c0.007,0.011,0.017,0.017,0.031,0.017c0.014,0,0.029,0,0.043,0
		c0.33-0.002,0.66-0.003,0.991-0.006c0.053,0,0.106-0.004,0.16-0.006c0.012,0,0.025,0,0.037,0.002
		c0.009,0.001,0.015,0.007,0.016,0.016c0.001,0.01,0.002,0.02,0.002,0.031c0,0.209,0,0.418,0,0.628c0,0.008,0,0.016-0.001,0.025
		c-0.002,0.011-0.008,0.019-0.02,0.019c-0.014,0.001-0.029,0.001-0.043,0.001c-0.857,0-1.715,0-2.572,0
		c-0.008,0-0.016-0.001-0.025,0c-0.026,0.003-0.04-0.011-0.053-0.032c-0.099-0.165-0.199-0.33-0.299-0.494
		c-0.059-0.096-0.117-0.193-0.176-0.288c-0.013-0.022-0.015-0.039-0.001-0.062c0.072-0.122,0.142-0.245,0.212-0.367
		c0.056-0.098,0.113-0.195,0.169-0.293c0.006-0.011,0.012-0.021,0.019-0.032c0.01-0.015,0.017-0.032,0.043-0.022
		c0.008,0.003,0.023-0.007,0.033-0.012c0.125-0.066,0.25-0.132,0.375-0.198C13.686,9.523,13.827,9.449,13.976,9.371z"/>
	<path fill="#FAD521" d="M12.201,5.441c-0.044,0.069-0.087,0.139-0.131,0.207c-0.051,0.079-0.103,0.158-0.155,0.237
		c-0.094,0.144-0.188,0.288-0.282,0.432c-0.068,0.105-0.136,0.21-0.205,0.314c-0.015,0.022-0.014,0.039,0,0.061
		c0.049,0.078,0.097,0.157,0.145,0.235c0.047,0.077,0.096,0.153,0.143,0.229c0.059,0.096,0.119,0.191,0.178,0.287
		c0.005,0.009,0.008,0.018,0.012,0.028c0.023,0.061,0.019,0.125,0.019,0.188c0,0.408,0,0.816,0,1.223
		c0,0.029,0.002,0.058-0.003,0.086c-0.01,0.058-0.03,0.066-0.081,0.031c-0.037-0.04-0.058-0.089-0.086-0.134
		c-0.07-0.111-0.136-0.224-0.205-0.336c-0.093-0.152-0.186-0.304-0.278-0.456c-0.069-0.114-0.138-0.228-0.207-0.342
		c-0.092-0.15-0.184-0.3-0.275-0.451c-0.068-0.112-0.136-0.224-0.204-0.336c-0.032-0.053-0.063-0.105-0.097-0.157
		c-0.015-0.023-0.018-0.042-0.002-0.067c0.098-0.158,0.194-0.318,0.291-0.477c0.129-0.212,0.259-0.423,0.388-0.634
		c0.092-0.15,0.182-0.302,0.274-0.452c0.089-0.147,0.18-0.293,0.269-0.44c0.07-0.115,0.14-0.231,0.21-0.347
		c0.069-0.114,0.139-0.227,0.209-0.34C12.148,4,12.161,3.964,12.188,3.938c0.034-0.001,0.039,0.025,0.043,0.049
		c0.005,0.026,0.003,0.053,0.003,0.08c0,0.394-0.001,0.789,0.001,1.183C12.235,5.316,12.229,5.38,12.201,5.441z"/>
	<path fill="#EE2A24" d="M20.404,4.711c0.022,0.034,0.045,0.068,0.066,0.103c0.11,0.18,0.219,0.361,0.328,0.541
		c0.092,0.151,0.184,0.3,0.276,0.451c0.089,0.147,0.178,0.295,0.267,0.442c0.07,0.116,0.142,0.23,0.212,0.346
		c0.028,0.045,0.055,0.092,0.082,0.137c0.01,0.016,0.011,0.03,0.001,0.046c-0.01,0.015-0.018,0.032-0.028,0.048
		c-0.053,0.088-0.106,0.175-0.16,0.263c-0.067,0.11-0.134,0.221-0.201,0.331c-0.048,0.079-0.096,0.157-0.144,0.236
		c-0.097,0.159-0.195,0.318-0.291,0.477c-0.089,0.147-0.178,0.295-0.267,0.442c-0.082,0.135-0.164,0.27-0.246,0.404
		c-0.002,0.003-0.006,0.006-0.009,0.008c-0.016-0.016-0.016-0.037-0.015-0.058c0.018-0.468,0.003-0.935,0.007-1.403
		c0-0.031-0.004-0.061-0.018-0.09c0.017-0.033,0.033-0.066,0.05-0.098c0.07-0.127,0.142-0.254,0.212-0.381
		c0.033-0.059,0.064-0.119,0.097-0.178c0.012-0.021,0.01-0.037-0.002-0.056c-0.033-0.052-0.065-0.104-0.098-0.156
		c-0.05-0.08-0.101-0.159-0.151-0.238c-0.008-0.012-0.013-0.025-0.019-0.038c0.022-0.04,0.014-0.084,0.015-0.126
		c0.001-0.448,0-0.896,0.001-1.344C20.37,4.782,20.359,4.737,20.404,4.711z"/>
	<path fill="#F7A422" d="M14.713,2.979c-0.003,0.009-0.009,0.019-0.01,0.028c-0.009,0.102-0.017,0.204-0.026,0.306
		c-0.01,0.112-0.02,0.224-0.031,0.337c-0.006,0.071-0.013,0.143-0.019,0.214c-0.008,0.096-0.017,0.192-0.025,0.288
		c-0.001,0.008-0.003,0.016-0.005,0.022c-0.012,0.007-0.021,0.002-0.031-0.001c-0.354-0.123-0.708-0.247-1.062-0.37
		c-0.006-0.002-0.01-0.006-0.015-0.01c0.045-0.044,0.047-0.1,0.046-0.158c-0.001-0.445-0.001-0.889-0.001-1.334
		c0-0.01,0-0.02,0-0.031c-0.001-0.081-0.003-0.084-0.082-0.084c-0.039,0-0.078,0.001-0.117-0.001
		c-0.024-0.001-0.05,0.001-0.068-0.021c0.009-0.006,0.019-0.006,0.029-0.006c0.155,0,0.31,0,0.466,0.001
		c0.008,0,0.016,0.002,0.024,0.003c0.335-0.002,0.671,0,1.006-0.001c0.01,0,0.02,0,0.03,0.004c0.021,0.024,0.018,0.053,0.018,0.081
		c0.001,0.206,0,0.412,0,0.618c0,0.014-0.001,0.029-0.002,0.043c-0.004,0.045-0.024,0.072-0.075,0.067
		C14.749,2.972,14.73,2.968,14.713,2.979z"/>
	<path fill="#F25E23" d="M18.481,4.013c-0.058,0.014-0.115,0.029-0.173,0.043c-0.231,0.053-0.463,0.106-0.695,0.159
		c-0.012,0.003-0.023,0.009-0.037,0.001c-0.001-0.004-0.004-0.01-0.005-0.016c-0.01-0.147-0.019-0.294-0.029-0.442
		c-0.011-0.161-0.021-0.323-0.032-0.484c-0.006-0.086-0.011-0.172-0.017-0.257C17.494,3.008,17.494,3,17.493,2.992
		c-0.001-0.014-0.008-0.023-0.023-0.023c-0.016-0.001-0.033,0-0.049,0c-0.098-0.001-0.197-0.001-0.295-0.002
		c0.002-0.029,0.026-0.036,0.046-0.042c0.051-0.013,0.058-0.049,0.058-0.094c0-0.188-0.001-0.376,0-0.564
		c0-0.036-0.01-0.074,0.021-0.104c0.41-0.004,0.82,0,1.23-0.002c0.034,0,0.049,0.014,0.053,0.045
		c0.002,0.018,0.003,0.037,0.003,0.055c0,0.543,0,1.087,0,1.63C18.538,3.939,18.543,3.992,18.481,4.013z"/>
	<path fill="#F8BA22" d="M13.27,2.165c0.07,0.001,0.139,0.002,0.209,0.002c0.016,0,0.033,0,0.049,0.001
		c0.019,0.001,0.026,0.007,0.028,0.026c0.001,0.016,0.001,0.033,0.001,0.049c0,0.485,0,0.97,0,1.455c0,0.068,0,0.068-0.065,0.097
		c0,0-0.005,0-0.005,0l-0.003-0.003c-0.008-0.007-0.02-0.006-0.029-0.01l-0.005,0.001l-0.004-0.003
		c-0.008-0.007-0.019-0.005-0.028-0.01c-0.027-0.001-0.051-0.015-0.076-0.023c-0.022-0.007-0.028-0.005-0.041,0.015
		c-0.037,0.056-0.074,0.113-0.111,0.17c-0.116,0.178-0.233,0.357-0.349,0.535c-0.07,0.108-0.14,0.217-0.21,0.325
		c-0.069,0.106-0.14,0.212-0.209,0.318c-0.067,0.103-0.134,0.206-0.201,0.309c-0.005,0.008-0.013,0.016-0.019,0.024
		c0-0.012-0.002-0.025,0.001-0.037c0.016-0.052,0.011-0.105,0.011-0.158c0-0.407,0-0.814,0-1.22c0-0.016,0-0.033,0-0.049
		c0-0.018-0.01-0.03-0.026-0.039c0.03-0.067,0.074-0.127,0.111-0.19c0.072-0.121,0.147-0.241,0.22-0.361
		c0.092-0.15,0.183-0.3,0.275-0.45c0.067-0.11,0.134-0.22,0.2-0.33c0.086-0.142,0.172-0.283,0.258-0.425
		C13.257,2.174,13.264,2.17,13.27,2.165z"/>
	<path fill="#F25C23" d="M14.727,5.012c0.082-0.006,0.163,0.01,0.243,0.026c0.177,0.035,0.339,0.106,0.48,0.22
		c0.014,0.011,0.03,0.022,0.039,0.038c0.011,0.016,0.01,0.035,0.01,0.053c-0.003,0.885-0.001,1.77-0.001,2.655
		c0,0.025-0.001,0.049-0.007,0.073l0-0.001c-0.006,0.003-0.01,0.008-0.014,0.014c-0.044,0.049-0.101,0.083-0.157,0.116
		c-0.132,0.078-0.275,0.125-0.426,0.152c-0.071,0.012-0.142,0.022-0.213,0.025c-0.014,0.001-0.029-0.001-0.043-0.001
		c0.061-0.043,0.057-0.106,0.056-0.171c-0.002-0.128-0.001-0.256-0.001-0.384c0-0.024-0.001-0.049,0.007-0.073
		c0.023-0.015,0.051-0.014,0.076-0.022c0.162-0.049,0.279-0.149,0.352-0.302c0.036-0.075,0.056-0.153,0.067-0.235
		c0.006-0.047,0.014-0.093,0.013-0.14c0-0.01,0.001-0.021-0.006-0.03c-0.018-0.003-0.035,0.005-0.053,0.011
		c-0.112,0.033-0.224,0.064-0.339,0.086c-0.024,0.005-0.048,0.01-0.073,0.007c-0.025-0.025-0.019-0.057-0.02-0.087
		c-0.001-0.133,0-0.265,0-0.398c0-0.033-0.001-0.066-0.035-0.085c-0.023-0.046,0.021-0.037,0.037-0.038
		c0.063-0.003,0.127-0.006,0.19-0.015c0.079-0.011,0.158-0.024,0.236-0.039c0.035-0.007,0.057-0.023,0.054-0.062
		c-0.019-0.213-0.045-0.424-0.187-0.6c-0.061-0.075-0.139-0.12-0.229-0.147c-0.027-0.008-0.058-0.009-0.068-0.044
		c0.004-0.183,0.002-0.367,0.002-0.55C14.719,5.047,14.717,5.029,14.727,5.012z"/>
	<path fill="#F04B23" d="M18.481,4.013c0.031-0.023,0.038-0.054,0.038-0.092c-0.001-0.215-0.001-0.43-0.001-0.645
		c0-0.344,0-0.688,0-1.032c0-0.081,0.005-0.077-0.076-0.077c-0.377,0-0.754,0-1.131,0c-0.02,0-0.041,0.001-0.061,0.002
		c-0.018,0.016-0.041,0.018-0.064,0.018c-0.397,0-0.794,0.003-1.191-0.001c-0.367,0.004-0.734,0.001-1.1,0.001
		c-0.025,0-0.05-0.001-0.07-0.018c-0.025-0.001-0.049-0.002-0.074-0.002c-0.301,0-0.601,0-0.902-0.001
		c-0.02,0-0.041,0.004-0.06-0.004c0.018-0.007,0.037-0.004,0.055-0.004c1.649,0,3.298,0.001,4.947,0.001c0.01,0,0.021,0.001,0.031,0
		c0.023-0.001,0.038,0.007,0.05,0.027c0.032,0.055,0.066,0.108,0.099,0.162c0.077,0.126,0.154,0.252,0.23,0.378
		c0.069,0.114,0.137,0.228,0.206,0.342c0.029,0.047,0.06,0.093,0.084,0.143c0.013,0.044,0.007,0.089,0.007,0.134
		c0,0.452,0,0.904,0,1.357c0,0.029,0.002,0.058-0.005,0.086c-0.009,0.034-0.026,0.057-0.066,0.039l0.001,0.001
		c-0.003-0.005-0.006-0.009-0.009-0.014c-0.003-0.002-0.004-0.004-0.004-0.008c-0.001-0.007-0.006-0.013-0.011-0.017l0,0
		c-0.004-0.003-0.007-0.007-0.008-0.012c-0.004-0.002-0.005-0.006-0.005-0.01c-0.002-0.006-0.007-0.01-0.01-0.016L19.38,4.75
		c-0.004-0.002-0.007-0.005-0.008-0.009c-0.004-0.002-0.006-0.005-0.006-0.01c-0.002-0.006-0.006-0.01-0.01-0.015
		c-0.003-0.001-0.004-0.004-0.003-0.007C19.353,4.7,19.348,4.695,19.342,4.69l0,0c-0.004-0.004-0.006-0.008-0.009-0.012
		c-0.003-0.002-0.005-0.005-0.004-0.01c-0.002-0.006-0.007-0.011-0.011-0.016c-0.039-0.045-0.065-0.098-0.098-0.148
		c-0.074-0.113-0.145-0.228-0.217-0.342c-0.04-0.064-0.08-0.128-0.121-0.192c-0.031-0.049-0.019-0.042-0.078-0.029
		c-0.096,0.021-0.191,0.044-0.287,0.066C18.505,4.01,18.493,4.011,18.481,4.013z"/>
	<path fill="#F03E23" d="M20.265,7.435c0.024,0.002,0.037,0.015,0.038,0.04c0,0.014,0,0.029,0,0.043c0,0.441,0,0.881,0,1.322
		c0,0.029,0,0.057-0.009,0.085c-0.006,0.019-0.003,0.041-0.004,0.061c-0.044,0.074-0.087,0.148-0.131,0.221
		C20.107,9.295,20.053,9.382,20,9.469c-0.068,0.112-0.137,0.224-0.205,0.335c-0.048,0.079-0.095,0.158-0.143,0.236
		c-0.096,0.157-0.192,0.314-0.288,0.472c-0.05,0.082-0.099,0.165-0.149,0.247c-0.008,0.014-0.013,0.03-0.029,0.039
		c-0.02-0.015-0.016-0.036-0.016-0.056c0.011-0.428,0.002-0.857,0.005-1.286c0-0.015-0.005-0.028-0.007-0.042
		c0.02-0.054,0.053-0.101,0.08-0.152c0.068-0.126,0.139-0.251,0.208-0.376c0.095-0.172,0.191-0.343,0.286-0.515
		c0.07-0.127,0.14-0.254,0.21-0.381c0.07-0.127,0.142-0.253,0.212-0.38C20.198,7.552,20.229,7.492,20.265,7.435z"/>
	<path fill="#F26023" d="M17.226,10.488c0.022-0.005,0.034-0.021,0.044-0.039c0.044-0.081,0.089-0.161,0.134-0.241
		c0.094-0.168,0.188-0.335,0.282-0.503c0.051-0.091,0.102-0.182,0.153-0.273c0.024-0.043,0.047-0.086,0.071-0.129
		c0.012-0.021,0.017-0.023,0.038-0.008c0.083,0.056,0.167,0.111,0.25,0.168c0.025,0.017,0.054,0.029,0.074,0.054
		c0.02,0.024,0.02,0.053,0.02,0.082c0,0.554,0.001,1.108,0,1.662c0,0.081-0.006,0.085-0.089,0.085c-0.306,0-0.611,0-0.917,0
		c-0.02,0-0.041,0.003-0.061-0.004c-0.022-0.024-0.019-0.053-0.019-0.082c-0.001-0.23-0.001-0.46,0-0.689
		C17.205,10.541,17.205,10.511,17.226,10.488z"/>
	<path fill="#F9C522" d="M11.842,9c0.017-0.002,0.03,0.01,0.044,0.016c0.015-0.013,0.02-0.029,0.02-0.045c0-0.014,0-0.029,0-0.043
		c0-0.45,0-0.9,0-1.35c0-0.024,0.003-0.049-0.007-0.073c-0.006-0.013,0.004-0.023,0.008-0.035c0.044,0.054,0.076,0.116,0.113,0.175
		c0.121,0.193,0.24,0.386,0.359,0.579c0.111,0.179,0.221,0.359,0.332,0.539c0.111,0.179,0.222,0.358,0.334,0.537
		c0.061,0.099,0.123,0.199,0.184,0.298c0.002,0.003,0.002,0.007,0.003,0.011c-0.011,0.016-0.029,0.02-0.049,0.027
		c-0.021-0.032-0.043-0.064-0.066-0.098c-0.02,0.011-0.028,0.03-0.038,0.047c-0.09,0.156-0.18,0.312-0.27,0.468
		c-0.051,0.089-0.103,0.177-0.153,0.264c-0.019,0.002-0.022-0.013-0.028-0.022c-0.102-0.168-0.204-0.336-0.307-0.504
		c-0.129-0.211-0.26-0.422-0.387-0.634C11.902,9.107,11.864,9.058,11.842,9z"/>
	<path fill="#F9C722" d="M16.441,6.82c0.04-0.055,0.095-0.095,0.146-0.139c0.008-0.007,0.017-0.012,0.024-0.019
		c0.013-0.011,0.013-0.019,0-0.03c-0.049-0.038-0.095-0.078-0.138-0.122c-0.037-0.038-0.071-0.079-0.101-0.123
		c-0.058-0.087-0.091-0.183-0.104-0.286c-0.013-0.102-0.019-0.204-0.006-0.306c0.02-0.167,0.088-0.31,0.201-0.432
		c0.092-0.099,0.203-0.171,0.326-0.226c0.006-0.002,0.012-0.003,0.018-0.005c0.004-0.002,0.007-0.004,0.011-0.006
		c0.005-0.002,0.011-0.003,0.016-0.005c0.006-0.005,0.015-0.005,0.022-0.009c0.004-0.001,0.009-0.003,0.013-0.004
		c0.007-0.005,0.018-0.002,0.024-0.009c0.004-0.001,0.008-0.002,0.013-0.003c0.032,0.005,0.033,0.033,0.039,0.055
		c0.009,0.034,0.007,0.069,0.007,0.104c0,0.666,0,1.332,0,1.998c0,0.307,0,0.615,0,0.922c0,0.035,0.002,0.07-0.009,0.104
		c-0.006,0.019-0.006,0.048-0.039,0.045c-0.007-0.001-0.014-0.002-0.021-0.004c-0.008-0.005-0.019-0.003-0.026-0.01l-0.006,0
		l-0.005-0.003c-0.008-0.005-0.019-0.004-0.027-0.01l-0.005,0l-0.004-0.003c-0.006-0.003-0.011-0.008-0.019-0.009
		c-0.049-0.009-0.091-0.032-0.134-0.055c-0.088-0.046-0.172-0.1-0.235-0.179c0.027-0.028,0.036-0.061,0.036-0.1
		c-0.001-0.343,0-0.687-0.001-1.03C16.454,6.888,16.453,6.853,16.441,6.82z"/>
	<path fill="#EF3B24" d="M19.428,4.827c0.047-0.008,0.049-0.011,0.051-0.052c0-0.014,0-0.029,0-0.043c0-0.473,0-0.945,0-1.418
		c0-0.035,0.002-0.069,0.013-0.102c0.03,0.031,0.047,0.072,0.07,0.108c0.074,0.118,0.144,0.238,0.217,0.357
		c0.068,0.112,0.137,0.223,0.205,0.335c0.072,0.119,0.144,0.238,0.216,0.357c0.066,0.109,0.132,0.217,0.198,0.325
		c0.003,0.005,0.005,0.011,0.008,0.017c-0.016,0.024-0.015,0.05-0.015,0.077c0,0.162,0,0.323,0,0.485c0,0.311,0,0.622,0,0.933
		c0,0.016,0,0.033-0.001,0.049c-0.001,0.022-0.013,0.034-0.034,0.036c-0.003-0.001-0.004-0.004-0.003-0.007
		c-0.001-0.008-0.006-0.013-0.012-0.017l0.001,0.001c-0.003-0.005-0.007-0.009-0.01-0.013c-0.003-0.001-0.004-0.004-0.003-0.007
		c-0.001-0.008-0.006-0.013-0.011-0.018c-0.046-0.06-0.083-0.126-0.124-0.189c-0.074-0.115-0.147-0.231-0.22-0.347
		c-0.048-0.076-0.096-0.152-0.144-0.228c-0.071-0.112-0.142-0.224-0.213-0.337C19.552,5.028,19.49,4.927,19.428,4.827z"/>
	<path fill="#F15223" d="M17.225,11.337c0.17,0,0.34,0.001,0.51,0.001c0.156,0,0.311,0,0.467,0c0.016,0,0.033,0,0.049-0.002
		c0.011-0.001,0.019-0.009,0.019-0.02c0.001-0.02,0.001-0.041,0.001-0.061c0-0.555,0-1.11,0-1.665c0-0.025,0-0.049,0-0.074
		c0.037,0.013,0.066,0.04,0.099,0.061c0.152,0.101,0.303,0.203,0.455,0.304c0.01,0.007,0.021,0.014,0.031,0.02
		c0.024,0.015,0.03,0.014,0.044-0.009c0.013-0.023,0.026-0.046,0.039-0.069c0.003-0.004,0.006-0.009,0.008-0.013
		c0.001-0.01,0.008-0.017,0.015-0.023c0.004-0.005,0.008-0.009,0.009-0.016c-0.001-0.004,0.001-0.007,0.004-0.009
		c0.003-0.005,0.008-0.009,0.009-0.015c-0.001-0.004,0.001-0.007,0.004-0.01c0.003-0.005,0.006-0.009,0.009-0.014
		c-0.001-0.004,0.001-0.008,0.004-0.01c0.003-0.004,0.006-0.008,0.009-0.012l0,0c0.006-0.004,0.011-0.009,0.011-0.017
		c-0.001-0.003,0-0.006,0.003-0.008c0.004-0.005,0.008-0.009,0.009-0.016c-0.001-0.004,0-0.007,0.004-0.009
		c0.003-0.005,0.008-0.009,0.009-0.015c-0.001-0.004,0.001-0.007,0.004-0.009c0.003-0.005,0.006-0.01,0.009-0.015
		c-0.001-0.004,0.001-0.007,0.004-0.01c0.003-0.004,0.006-0.009,0.009-0.013l0,0c0.006-0.004,0.011-0.009,0.011-0.017
		c-0.001-0.003,0-0.006,0.003-0.007c0.004-0.005,0.009-0.01,0.009-0.016c-0.001-0.004,0-0.006,0.004-0.008
		c0.004-0.005,0.008-0.009,0.009-0.016c-0.001-0.004,0.001-0.007,0.004-0.009c0.003-0.005,0.007-0.009,0.009-0.015
		c-0.001-0.004,0.001-0.007,0.004-0.01c0.003-0.004,0.006-0.009,0.009-0.013l0,0.001c0.006-0.004,0.011-0.009,0.012-0.017
		c-0.001-0.003,0-0.006,0.003-0.007c0.004-0.005,0.009-0.01,0.009-0.017c-0.001-0.004,0-0.006,0.003-0.008
		c0.004-0.004,0.007-0.009,0.009-0.014c0,0,0-0.001,0-0.001c0.017,0.01,0.027,0.024,0.027,0.045c0,0.016,0,0.033,0,0.049
		c0,0.383,0,0.767,0,1.15c0,0.035,0.003,0.069-0.01,0.103c-0.004,0.011,0,0.024,0.001,0.036c0,0,0-0.001,0-0.001
		c-0.012,0.004-0.008,0.017-0.015,0.024l0-0.001c-0.009,0.006-0.006,0.018-0.014,0.024l0,0c-0.005,0.005-0.01,0.01-0.011,0.018
		c0.001,0.003,0,0.006-0.004,0.007c-0.003,0.005-0.007,0.009-0.009,0.015c-0.001,0.01-0.008,0.016-0.015,0.022
		c-0.003,0.005-0.008,0.009-0.009,0.015c0.001,0.004-0.001,0.007-0.004,0.009c-0.003,0.005-0.005,0.009-0.009,0.013
		c-0.016,0.045-0.047,0.081-0.07,0.122c-0.049,0.085-0.103,0.167-0.153,0.252c-0.014,0.023-0.03,0.032-0.055,0.029
		c-0.01-0.001-0.021,0-0.031,0c-0.899,0-1.797,0-2.696,0c-0.018,0-0.037,0-0.055-0.001c-0.005,0-0.009-0.006-0.014-0.01
		c0.023-0.023,0.053-0.02,0.081-0.02c0.346-0.001,0.693-0.001,1.039,0C17.171,11.318,17.201,11.316,17.225,11.337z"/>
	<path fill="#F69B22" d="M16.901,8.323c0.023-0.024,0.023-0.055,0.028-0.085c0.002-0.012,0-0.025,0-0.037c0-0.995,0-1.989,0-2.984
		c0-0.043-0.001-0.086-0.026-0.123c0.039-0.023,0.083-0.03,0.126-0.04c0.117-0.028,0.235-0.048,0.355-0.045
		c0.142-0.015,0.142-0.015,0.142,0.124c0,0.121,0,0.242,0,0.362c0,0.126,0,0.126-0.125,0.14c-0.047,0.012-0.096,0.022-0.141,0.04
		c-0.141,0.056-0.211,0.162-0.217,0.312c-0.006,0.159,0.059,0.281,0.191,0.368c0.023,0.015,0.05,0.017,0.077,0.018
		c0.037,0.001,0.074-0.002,0.11,0.007c0.103,0.015,0.104,0.016,0.104,0.123c0,0.118,0.001,0.237,0,0.355
		c-0.001,0.083-0.014,0.099-0.092,0.12c-0.032,0.008-0.065,0.007-0.098,0.007c-0.218,0.001-0.38,0.19-0.347,0.406
		c0.007,0.047,0.011,0.094,0.028,0.138c0.042,0.108,0.125,0.17,0.232,0.203c0.061,0.019,0.124,0.029,0.187,0.033
		c0.026,0.002,0.054-0.001,0.074,0.023c0.016,0.023,0.016,0.05,0.016,0.077c0.001,0.149,0.001,0.298,0,0.447
		c-0.001,0.074-0.007,0.08-0.081,0.079c-0.059-0.001-0.118,0.006-0.177-0.004c-0.124-0.002-0.245-0.023-0.364-0.058
		C16.904,8.326,16.903,8.324,16.901,8.323z"/>
	<path fill="#EF3E24" d="M18.456,6.548c-0.011,0.02-0.03,0.032-0.047,0.046c-0.02,0.016-0.04,0.033-0.063,0.052
		c0.021,0.022,0.044,0.033,0.064,0.049c0.021,0.016,0.04,0.033,0.061,0.049c0.016,0.03,0.019,0.062,0.019,0.095
		c0,0.392-0.001,0.785,0,1.177c0,0.021-0.002,0.041-0.008,0.061l0,0c-0.005,0.003-0.009,0.008-0.013,0.012l0,0
		c-0.004,0.004-0.008,0.007-0.013,0.01L18.454,8.1c-0.002,0.005-0.006,0.008-0.011,0.01l-0.002,0.002
		c-0.001,0.005-0.004,0.007-0.009,0.008c-0.002,0.004-0.005,0.006-0.009,0.006c-0.007,0.002-0.012,0.006-0.016,0.012l0.001,0
		c-0.004,0.003-0.008,0.006-0.013,0.009c-0.04,0.038-0.09,0.062-0.138,0.087c-0.066,0.035-0.137,0.061-0.208,0.084
		c-0.007,0.002-0.016,0.002-0.024,0.003c0.011-1.027,0.002-2.053,0.005-3.08c0-0.05-0.011-0.104,0.032-0.145
		c0.095,0.025,0.181,0.07,0.263,0.123c0.048,0.031,0.096,0.06,0.132,0.106c0.017,0.025,0.018,0.054,0.018,0.083
		c0,0.35,0,0.701,0,1.051C18.476,6.491,18.475,6.522,18.456,6.548z"/>
	<path fill="#F26323" d="M18.063,5.097C18.046,5.153,18.05,5.21,18.05,5.267c0,0.986,0,1.972,0,2.959c0,0.014-0.001,0.029,0,0.043
		c0.003,0.023-0.01,0.038-0.025,0.052c-0.063,0.026-0.129,0.036-0.195,0.048C17.656,8.4,17.48,8.401,17.305,8.393
		c-0.012-0.001-0.025-0.001-0.035-0.008c0.037-0.001,0.074-0.001,0.111-0.002c0.031,0,0.062,0.001,0.092,0
		c0.03-0.001,0.035-0.006,0.035-0.037c0.001-0.062,0-0.123,0-0.185c0-0.105,0-0.209,0-0.314c0-0.023,0.001-0.045-0.012-0.066
		c0.032-0.026,0.073-0.024,0.11-0.029c0.232-0.03,0.364-0.164,0.374-0.397c0.009-0.231-0.184-0.38-0.344-0.371
		c-0.051,0.003-0.102,0.001-0.153,0c-0.022,0-0.046,0.003-0.062-0.018c0.011-0.013,0.026-0.009,0.04-0.012
		c0.031-0.006,0.045-0.022,0.047-0.054c0.001-0.012,0-0.024,0-0.037c0-0.13,0-0.261,0-0.391c0-0.008,0-0.016,0-0.024
		c-0.001-0.043-0.003-0.045-0.044-0.047c-0.018-0.001-0.037,0.005-0.053-0.008c0.015-0.023,0.039-0.019,0.061-0.02
		c0.043-0.001,0.087-0.005,0.129,0c0.122,0.017,0.2-0.052,0.259-0.141c0.083-0.127,0.092-0.269,0.024-0.403
		c-0.065-0.129-0.188-0.175-0.326-0.185c-0.037-0.003-0.074,0-0.11-0.001c-0.022-0.001-0.046,0.002-0.062-0.018
		c0.008-0.008,0.017-0.011,0.028-0.011c0.016,0,0.033,0,0.049-0.001c0.046-0.001,0.046-0.002,0.047-0.05c0-0.008,0-0.016,0-0.025
		c0-0.151,0-0.303,0-0.454c0-0.01,0-0.02,0-0.031c-0.001-0.038-0.004-0.041-0.043-0.042c-0.027-0.001-0.053-0.002-0.08-0.002
		c0.034-0.012,0.068-0.007,0.103-0.007c0.157,0.003,0.313,0.018,0.465,0.059C17.99,5.07,18.028,5.078,18.063,5.097z"/>
	<path fill="#F69D22" d="M14.677,6.547c0.061,0.007,0.061,0.007,0.061,0.069c0,0.171,0.001,0.342,0.001,0.514c0,0,0-0.001,0-0.001
		c-0.02,0.012-0.044-0.002-0.063,0.01c-0.088,0.015-0.176,0.007-0.264,0c-0.144-0.011-0.284-0.041-0.417-0.097
		c-0.007-0.003-0.013-0.009-0.02-0.013c-0.008-0.026-0.008-0.052-0.008-0.079c0-0.571,0-1.143,0-1.714c0-0.027,0-0.053,0.008-0.079
		c0.038-0.029,0.083-0.043,0.126-0.059c0.202-0.073,0.411-0.1,0.626-0.086c0.01,0.019,0.011,0.039,0.011,0.059
		c0,0.159-0.001,0.318,0,0.477c0,0.027-0.007,0.052-0.014,0.077c-0.021,0.022-0.05,0.016-0.075,0.016
		C14.372,5.647,14.197,5.8,14.18,6.074c-0.013,0.206,0.077,0.377,0.294,0.432c0.03,0.008,0.06,0.014,0.09,0.019
		c0.022,0.008,0.044,0.007,0.066,0.007C14.647,6.534,14.664,6.534,14.677,6.547z"/>
	<path fill="#F37823" d="M17.225,11.337c-0.368,0-0.736,0.001-1.104,0.001c-0.033,0-0.065,0-0.098,0
		c-0.001-0.022-0.004-0.045-0.004-0.067c0-0.215,0-0.431,0-0.646c0-0.018,0-0.037-0.001-0.055c0-0.012-0.007-0.019-0.019-0.019
		c-0.014-0.001-0.029-0.001-0.043,0c-0.098,0.001-0.197,0.002-0.295,0.002c-0.02,0-0.041-0.002-0.061-0.002
		c-0.006-0.028,0.007-0.041,0.034-0.043c0.018-0.001,0.036,0.004,0.053-0.005c0.012-0.001,0.024-0.003,0.037-0.003
		c0.485-0.005,0.969-0.009,1.454-0.014c0.016,0,0.033,0.001,0.049,0.002c0,0.25,0,0.501-0.001,0.751
		C17.225,11.272,17.225,11.304,17.225,11.337z"/>
	<path fill="#F47923" d="M15.994,2.168c0.018-0.001,0.037-0.002,0.055-0.002c0.384,0,0.767,0,1.151,0
		c0.016,0,0.033,0.001,0.049,0.002c0,0.229,0,0.458,0,0.688c0,0.072-0.003,0.066-0.069,0.085c-0.02,0.006-0.04,0.009-0.054,0.025
		c-0.025,0.001-0.049,0.003-0.074,0.003c-0.16,0.001-0.32,0.002-0.48,0.002c-0.533,0.003-1.067,0.006-1.6,0.008
		c-0.02,0-0.041-0.001-0.061-0.002c0.02-0.042,0.059-0.029,0.091-0.03c0.264-0.002,0.528-0.001,0.792-0.001
		c0.037,0,0.074,0.001,0.11,0c0.064-0.002,0.07-0.006,0.07-0.071c0.001-0.205,0-0.409,0.001-0.614
		C15.974,2.23,15.969,2.196,15.994,2.168z"/>
	<path fill="#ED1E24" d="M15.49,8.077c-0.008-0.015-0.015-0.029-0.014-0.046c0.001-0.014,0-0.029,0-0.043c0-0.865,0-1.73,0-2.595
		c0-0.033-0.001-0.066,0.012-0.097c0.038,0.022,0.065,0.056,0.093,0.088c0.087,0.102,0.155,0.215,0.207,0.339
		c0.07,0.169,0.109,0.346,0.135,0.528c0.033,0.233,0.032,0.466,0.018,0.699c-0.012,0.204-0.046,0.407-0.114,0.602
		c-0.054,0.156-0.128,0.302-0.236,0.428C15.561,8.015,15.533,8.054,15.49,8.077z"/>
	<path fill="#F58B22" d="M15.994,2.168c0,0.243,0,0.487,0,0.73c0,0.07,0.001,0.068-0.067,0.068c-0.317,0-0.634,0-0.952,0.001
		c-0.022,0-0.045-0.007-0.065,0.01c-0.066,0.001-0.132,0.001-0.197,0.002c0.014-0.018,0.033-0.011,0.051-0.012
		c0.046-0.002,0.057-0.012,0.059-0.058c0.001-0.014,0-0.029,0-0.043c0-0.233,0-0.465,0-0.698c0.016-0.001,0.033-0.002,0.049-0.002
		c0.357,0,0.714,0,1.071,0.001C15.961,2.167,15.977,2.168,15.994,2.168z"/>
	<path fill="#FBDD21" d="M13.975,5.157c0.008,0.008,0.011,0.017,0.011,0.027c0,0.014,0,0.029,0,0.043c0,0.577,0,1.154,0,1.732
		c0,0.023,0.009,0.05-0.012,0.07l0,0c-0.007-0.008-0.018-0.005-0.025-0.012l0,0c-0.007-0.008-0.018-0.006-0.026-0.012l0.001,0
		c-0.006-0.008-0.018-0.006-0.025-0.013l0,0c-0.005-0.005-0.01-0.01-0.018-0.011l-0.003,0.001l-0.002-0.003
		c-0.006-0.004-0.011-0.009-0.018-0.01c-0.101-0.055-0.182-0.133-0.249-0.224c-0.068-0.093-0.115-0.197-0.145-0.31
		c-0.05-0.19-0.057-0.381-0.021-0.573c0.056-0.301,0.217-0.531,0.485-0.684c0.007-0.004,0.015-0.006,0.023-0.009
		c0.006-0.005,0.015-0.005,0.021-0.011L13.975,5.157z"/>
	<path fill="#F6A022" d="M14.701,7.754c0.012,0.011,0.012,0.025,0.012,0.039c0,0.18,0,0.359,0,0.539
		c0,0.032-0.003,0.034-0.034,0.038c-0.014,0.002-0.029,0-0.04,0.012c-0.098,0.007-0.196,0.004-0.294-0.002
		c-0.084-0.005-0.167-0.015-0.251-0.022c-0.012-0.001-0.025-0.001-0.035-0.009c-0.014-0.046-0.004-0.093-0.005-0.139
		c-0.001-0.126-0.001-0.252,0-0.378c0-0.03-0.003-0.062,0.02-0.087c0.03,0.001,0.061,0.001,0.091,0.003
		c0.063,0.003,0.126,0.007,0.189,0.011C14.47,7.767,14.586,7.768,14.701,7.754z"/>
	<path fill="#FACD21" d="M14.074,7.744c0,0.176-0.001,0.352-0.001,0.527c0,0.026,0.003,0.053-0.014,0.077
		c-0.056,0.003-0.11-0.01-0.164-0.017C13.787,8.318,13.68,8.3,13.573,8.284c-0.03-0.005-0.034-0.008-0.03-0.041
		c0.01-0.1,0.022-0.199,0.032-0.299c0.007-0.065,0.013-0.13,0.019-0.195C13.6,7.689,13.6,7.689,13.66,7.696
		c0.105,0.013,0.211,0.026,0.316,0.038c0.019,0.008,0.041-0.002,0.06,0.007C14.049,7.742,14.061,7.743,14.074,7.744z"/>
	<path fill="#ED1D24" d="M18.482,8.077c-0.014-0.022-0.013-0.047-0.013-0.071c0-0.16,0-0.32,0-0.48c0-0.236,0-0.472,0-0.708
		c0-0.025,0.001-0.049,0.001-0.074c0.085,0.06,0.148,0.139,0.199,0.229c0.062,0.109,0.087,0.228,0.094,0.352
		c0.006,0.123-0.001,0.245-0.036,0.364c-0.044,0.148-0.12,0.277-0.234,0.382C18.489,8.073,18.485,8.075,18.482,8.077z"/>
	<path fill="#FBE621" d="M16.441,6.82c0.018,0.003,0.03,0.013,0.032,0.032c0.001,0.016,0.001,0.033,0.001,0.049
		c0,0.359,0,0.718,0,1.077c0,0.006,0,0.012,0,0.018c0,0.046,0.002,0.057-0.055,0.057c-0.037-0.028-0.061-0.066-0.085-0.103
		c-0.074-0.113-0.116-0.238-0.129-0.373c-0.01-0.108-0.011-0.217,0.01-0.324c0.024-0.119,0.069-0.23,0.14-0.33
		C16.381,6.887,16.406,6.849,16.441,6.82z"/>
	<path fill="#ED2024" d="M18.456,6.548c0-0.381,0-0.762,0.001-1.143c0-0.027,0.001-0.053,0.002-0.08
		c0.016,0.006,0.027,0.019,0.038,0.03c0.111,0.117,0.182,0.255,0.207,0.416c0.016,0.104,0.015,0.207,0.002,0.311
		c-0.004,0.03-0.008,0.061-0.013,0.091c-0.019,0.117-0.073,0.216-0.154,0.301C18.512,6.502,18.49,6.532,18.456,6.548z"/>
	<path fill="#F29921" d="M15.686,10.502c-0.009,0.011-0.021,0.013-0.033,0.011c-0.03-0.005-0.043,0.014-0.054,0.037
		c-0.01,0.001-0.02,0.002-0.031,0.003c-0.269,0.003-0.537,0.007-0.806,0.01c-0.073,0.001-0.059,0.008-0.09-0.057
		c-0.057-0.118-0.114-0.236-0.171-0.354c-0.071-0.146-0.141-0.291-0.212-0.437c-0.047-0.098-0.094-0.196-0.141-0.294
		c-0.036-0.076-0.072-0.151-0.108-0.226c0.003-0.004,0.004-0.009,0.007-0.01c0.038-0.02,0.038-0.02,0.055,0.014
		c0.057,0.118,0.114,0.236,0.171,0.354c0.071,0.147,0.143,0.295,0.214,0.442c0.048,0.1,0.095,0.2,0.143,0.299
		c0.027,0.057,0.056,0.114,0.082,0.172c0.015,0.035,0.039,0.045,0.076,0.045c0.277-0.004,0.554-0.007,0.83-0.009
		C15.641,10.5,15.664,10.502,15.686,10.502z"/>
	<path fill="#F25C23" d="M14.676,7.139c0.019-0.018,0.041-0.012,0.063-0.01C14.72,7.143,14.698,7.14,14.676,7.139z"/>
	<path fill="#F6A022" d="M14.037,7.742c-0.02,0.001-0.041,0.008-0.06-0.007C13.997,7.732,14.018,7.73,14.037,7.742z"/>
	<path fill="#F69B22" d="M16.854,8.31c0.011-0.002,0.02,0,0.026,0.01C16.87,8.321,16.862,8.317,16.854,8.31z"/>
	<path fill="#F69D22" d="M13.901,6.992c0.011-0.001,0.02,0.003,0.025,0.013C13.914,7.006,13.906,7.002,13.901,6.992z"/>
	<path fill="#F7A422" d="M13.418,3.768c0.011-0.001,0.021,0,0.028,0.01C13.434,3.78,13.425,3.777,13.418,3.768z"/>
	<path fill="#F69B22" d="M16.854,5.111c-0.005,0.009-0.013,0.01-0.022,0.009C16.838,5.112,16.845,5.11,16.854,5.111z"/>
	<path fill="#F69B22" d="M16.891,5.098c-0.005,0.01-0.014,0.011-0.024,0.009C16.873,5.098,16.882,5.096,16.891,5.098z"/>
	<path fill="#F69D22" d="M13.973,5.158c-0.004,0.01-0.011,0.013-0.021,0.011C13.956,5.161,13.963,5.158,13.973,5.158z"/>
	<path fill="#F69B22" d="M16.817,8.298c0.011-0.002,0.02,0,0.027,0.01C16.833,8.309,16.824,8.306,16.817,8.298z"/>
	<path fill="#F7A422" d="M13.454,3.781c0.011-0.002,0.022,0,0.029,0.01C13.471,3.792,13.461,3.79,13.454,3.781z"/>
	<path fill="#F69D22" d="M13.95,7.017c0.011-0.002,0.02,0.002,0.025,0.012C13.964,7.03,13.955,7.027,13.95,7.017z"/>
	<path fill="#F69D22" d="M13.925,7.005c0.011-0.002,0.02,0.001,0.026,0.012C13.939,7.018,13.93,7.015,13.925,7.005z"/>
	<path fill="#F03E23" d="M19.171,10.822c0-0.011,0.002-0.021,0.015-0.024C19.184,10.808,19.181,10.817,19.171,10.822z"/>
	<path fill="#F03E23" d="M19.158,10.845c0-0.01,0.003-0.019,0.014-0.024C19.171,10.832,19.167,10.84,19.158,10.845z"/>
	<path fill="#EE2A24" d="M20.315,6.229c0.007,0.004,0.011,0.01,0.011,0.018C20.319,6.243,20.316,6.237,20.315,6.229z"/>
	<path fill="#EE2A24" d="M20.329,6.254c0.003,0.004,0.007,0.009,0.01,0.013C20.333,6.265,20.33,6.261,20.329,6.254z"/>
	<path fill="#EE2A24" d="M20.339,6.267c0.008,0.003,0.011,0.009,0.012,0.017C20.344,6.28,20.34,6.274,20.339,6.267z"/>
	<path fill="#F69D22" d="M13.859,6.969c0.008,0,0.014,0.004,0.018,0.01C13.869,6.98,13.863,6.977,13.859,6.969z"/>
	<path fill="#F69D22" d="M13.883,6.981c0.008,0,0.014,0.004,0.018,0.011C13.892,6.993,13.886,6.989,13.883,6.981z"/>
	<path fill="#ED1E24" d="M15.477,8.09c0.002-0.007,0.006-0.012,0.014-0.014C15.489,8.084,15.484,8.088,15.477,8.09z"/>
	<path fill="#ED1D24" d="M18.469,8.088c0.004-0.004,0.009-0.008,0.013-0.012C18.48,8.083,18.476,8.087,18.469,8.088z"/>
	<path fill="#ED1D24" d="M18.456,8.099c0.004-0.003,0.009-0.007,0.013-0.01C18.467,8.095,18.462,8.098,18.456,8.099z"/>
	<path fill="#ED1D24" d="M18.443,8.11c0.004-0.003,0.007-0.007,0.011-0.01C18.453,8.106,18.45,8.109,18.443,8.11z"/>
	<path fill="#ED1D24" d="M18.432,8.12c0.002-0.004,0.005-0.006,0.009-0.008C18.44,8.117,18.438,8.12,18.432,8.12z"/>
	<path fill="#ED1D24" d="M18.407,8.138c0.003-0.007,0.009-0.011,0.016-0.012C18.42,8.133,18.415,8.137,18.407,8.138z"/>
	<path fill="#ED1D24" d="M18.395,8.147c0.004-0.003,0.009-0.006,0.013-0.009C18.406,8.144,18.402,8.147,18.395,8.147z"/>
	<path fill="#F69B22" d="M16.788,8.286c0.008,0,0.014,0.002,0.019,0.009C16.799,8.296,16.793,8.294,16.788,8.286z"/>
	<path fill="#F03E23" d="M19.169,9.415c0,0.007-0.003,0.011-0.009,0.014C19.16,9.423,19.162,9.418,19.169,9.415z"/>
	<path fill="#F03E23" d="M19.156,9.438c0,0.007-0.003,0.013-0.009,0.017C19.147,9.447,19.15,9.441,19.156,9.438z"/>
	<path fill="#F03E23" d="M19.144,9.461c0,0.008-0.004,0.014-0.012,0.017C19.133,9.471,19.137,9.465,19.144,9.461z"/>
	<path fill="#F03E23" d="M19.133,9.478c-0.003,0.004-0.006,0.008-0.009,0.013C19.124,9.484,19.126,9.48,19.133,9.478z"/>
	<path fill="#F03E23" d="M19.12,9.501c-0.003,0.005-0.006,0.01-0.009,0.015C19.111,9.509,19.114,9.504,19.12,9.501z"/>
	<path fill="#F03E23" d="M19.107,9.525c-0.003,0.005-0.006,0.01-0.009,0.016C19.098,9.533,19.101,9.528,19.107,9.525z"/>
	<path fill="#F03E23" d="M19.095,9.549c0,0.007-0.003,0.013-0.009,0.016C19.086,9.558,19.089,9.552,19.095,9.549z"/>
	<path fill="#F03E23" d="M19.082,9.572c0,0.008-0.004,0.014-0.011,0.017C19.072,9.582,19.076,9.576,19.082,9.572z"/>
	<path fill="#F03E23" d="M19.071,9.589c-0.003,0.004-0.006,0.008-0.009,0.013C19.062,9.595,19.065,9.591,19.071,9.589z"/>
	<path fill="#F03E23" d="M19.058,9.612c-0.003,0.005-0.006,0.01-0.009,0.015C19.049,9.619,19.052,9.615,19.058,9.612z"/>
	<path fill="#F03E23" d="M19.046,9.636c-0.003,0.005-0.006,0.01-0.009,0.015C19.037,9.644,19.04,9.639,19.046,9.636z"/>
	<path fill="#F03E23" d="M19.033,9.659c0,0.007-0.003,0.012-0.009,0.016C19.024,9.668,19.027,9.663,19.033,9.659z"/>
	<path fill="#F03E23" d="M19.021,9.683c0,0.008-0.004,0.014-0.011,0.017C19.01,9.693,19.014,9.687,19.021,9.683z"/>
	<path fill="#F03E23" d="M19.01,9.7c-0.003,0.004-0.006,0.008-0.009,0.012C19.001,9.706,19.004,9.702,19.01,9.7z"/>
	<path fill="#F03E23" d="M18.997,9.723c-0.003,0.005-0.006,0.01-0.009,0.014C18.988,9.73,18.991,9.725,18.997,9.723z"/>
	<path fill="#F03E23" d="M18.984,9.747c0,0.007-0.003,0.012-0.009,0.015C18.975,9.755,18.978,9.75,18.984,9.747z"/>
	<path fill="#F03E23" d="M18.972,9.77c0,0.007-0.003,0.012-0.009,0.016C18.963,9.779,18.966,9.774,18.972,9.77z"/>
	<path fill="#F03E23" d="M18.948,9.81c-0.003,0.004-0.006,0.009-0.008,0.013C18.939,9.817,18.942,9.812,18.948,9.81z"/>
	<path fill="#EF3B24" d="M19.319,4.653c0.004,0.005,0.007,0.01,0.011,0.016C19.323,4.666,19.32,4.66,19.319,4.653z"/>
	<path fill="#EF3B24" d="M19.334,4.679c0.003,0.004,0.006,0.008,0.009,0.012C19.337,4.689,19.334,4.685,19.334,4.679z"/>
	<path fill="#EF3B24" d="M19.342,4.69c0.007,0.004,0.011,0.01,0.011,0.018C19.347,4.704,19.343,4.698,19.342,4.69z"/>
	<path fill="#EF3B24" d="M19.357,4.715c0.003,0.005,0.006,0.01,0.01,0.015C19.36,4.727,19.357,4.722,19.357,4.715z"/>
	<path fill="#EF3B24" d="M19.372,4.74c0.003,0.003,0.005,0.006,0.008,0.009C19.378,4.747,19.375,4.743,19.372,4.74z"/>
	<path fill="#EF3B24" d="M19.381,4.751c0.003,0.005,0.007,0.01,0.01,0.016C19.385,4.764,19.382,4.758,19.381,4.751z"/>
	<path fill="#EF3B24" d="M19.396,4.777c0.003,0.004,0.006,0.008,0.008,0.012C19.399,4.787,19.396,4.783,19.396,4.777z"/>
	<path fill="#EF3B24" d="M19.405,4.789c0.007,0.004,0.01,0.01,0.011,0.017C19.409,4.802,19.405,4.797,19.405,4.789z"/>
	<path fill="#EF3B24" d="M19.419,4.814c0.003,0.005,0.006,0.009,0.009,0.014C19.422,4.825,19.419,4.821,19.419,4.814z"/>
	<path fill="#F69B22" d="M16.817,5.125c-0.002,0.005-0.006,0.007-0.011,0.006C16.807,5.126,16.811,5.124,16.817,5.125z"/>
	<path fill="#F03E23" d="M19.147,10.863c0-0.008,0.004-0.014,0.011-0.018C19.158,10.853,19.154,10.859,19.147,10.863z"/>
	<path fill="#F03E23" d="M19.134,10.886c0.003-0.005,0.006-0.01,0.009-0.015C19.144,10.878,19.141,10.882,19.134,10.886z"/>
	<path fill="#F03E23" d="M19.11,10.923c0.003-0.005,0.006-0.01,0.009-0.015C19.119,10.915,19.116,10.92,19.11,10.923z"/>
	<path fill="#F03E23" d="M19.097,10.946c0.003-0.004,0.006-0.009,0.009-0.013C19.106,10.939,19.103,10.943,19.097,10.946z"/>
	<path fill="#F9C822" d="M30.463,7.51c-0.011,0.013-0.028,0.016-0.043,0.022c-0.535,0.216-1.071,0.433-1.606,0.649
		c-0.017,0.007-0.035,0.012-0.052,0.017C28.719,8.21,28.709,8.18,28.699,8.15c-0.009-0.028-0.007-0.057-0.007-0.086
		c0-1.3,0-2.6,0-3.899c0-0.035-0.002-0.07,0.02-0.101c0.037-0.038,0.074-0.077,0.111-0.114c0.287-0.284,0.574-0.569,0.861-0.853
		c0.004-0.004,0.01-0.007,0.014-0.011c0.014,0.001,0.015,0.013,0.018,0.021c0.051,0.13,0.101,0.26,0.152,0.389
		c0.088,0.223,0.176,0.446,0.264,0.668c0.049,0.124,0.096,0.248,0.145,0.372c0.051,0.13,0.103,0.259,0.154,0.388
		c0.007,0.019,0.019,0.037,0.018,0.058c-0.013,0.048-0.019,0.096-0.019,0.146c0,0.746,0,1.492,0,2.238
		C30.431,7.419,30.439,7.466,30.463,7.51z"/>
	<path fill="#F6A022" d="M28.713,4.065c0,1.341,0,2.682,0,4.023c0,0.016-0.002,0.033,0.001,0.049
		c0.005,0.029,0.011,0.058,0.049,0.061c-0.042,0.026-0.089,0.04-0.134,0.059c-0.379,0.154-0.759,0.307-1.139,0.46
		c-0.013,0.005-0.027,0.008-0.041,0.012c-0.006,0.001-0.011,0.006-0.016,0.008c-0.003,0.003-0.006,0.004-0.01,0.003
		c-0.008,0.006-0.019,0.004-0.027,0.011l-0.003,0.003l-0.004,0c-0.006,0.001-0.011,0.006-0.017,0.009
		c-0.003,0.003-0.006,0.004-0.01,0.003c-0.008,0.006-0.019,0.004-0.027,0.011L27.33,8.779l-0.004,0
		c-0.007,0.001-0.011,0.006-0.017,0.009L27.304,8.79l-0.005,0c-0.008,0.006-0.019,0.004-0.027,0.011l-0.003,0.003l-0.004-0.001
		c-0.007,0.001-0.012,0.006-0.017,0.009l-0.004,0.003l-0.005,0c-0.008,0.006-0.02,0.004-0.028,0.011l-0.003,0.003l-0.004-0.001
		c-0.007,0.001-0.012,0.006-0.018,0.009L27.181,8.84l-0.005,0c-0.009,0.006-0.02,0.004-0.028,0.011l-0.003,0.003l-0.004-0.001
		c-0.007,0.001-0.012,0.006-0.018,0.009L27.12,8.865l-0.005,0c-0.009,0.005-0.02,0.004-0.028,0.011l-0.002,0.003l-0.003-0.001
		c-0.008,0-0.013,0.006-0.019,0.009l-0.004,0.003l-0.005,0c-0.009,0.005-0.02,0.004-0.028,0.011l0,0
		c-0.007,0.008-0.017,0.005-0.025,0.011l-0.004,0.003l-0.005,0c-0.009,0.005-0.02,0.003-0.028,0.011l0,0
		c-0.007,0.007-0.018,0.005-0.025,0.011l-0.003,0.003l-0.004,0c-0.009,0.005-0.021,0.003-0.029,0.011l0,0
		c-0.043,0.011-0.053-0.019-0.063-0.049c-0.009-0.028-0.007-0.057-0.007-0.086c0-0.933,0-1.867,0-2.8
		c0-0.037,0.002-0.074,0.018-0.108l0,0c0.007-0.001,0.011-0.005,0.013-0.013l0,0c0.007-0.001,0.011-0.006,0.013-0.012l0,0
		c0.007-0.002,0.011-0.006,0.013-0.013l0,0c0.007-0.002,0.011-0.006,0.012-0.013l0,0c0.007-0.002,0.011-0.006,0.013-0.013l0,0
		c0.007-0.001,0.011-0.006,0.013-0.012l0,0c0.006-0.002,0.011-0.006,0.013-0.012l0,0c0.006-0.002,0.011-0.006,0.012-0.012l0,0
		c0.006-0.002,0.01-0.006,0.012-0.013l0,0c0.006-0.002,0.011-0.006,0.012-0.012l0,0c0.007-0.002,0.011-0.006,0.013-0.012l0,0
		C26.994,5.77,26.998,5.766,27,5.76l0,0c0.006-0.002,0.01-0.006,0.012-0.012l0,0c0.006-0.002,0.01-0.006,0.012-0.012l0,0
		c0.006-0.002,0.01-0.006,0.012-0.012l0,0c0.006-0.002,0.01-0.006,0.012-0.012l0,0c0.006-0.002,0.01-0.006,0.012-0.012l0,0
		c0.006-0.002,0.01-0.006,0.012-0.012l0,0c0.006-0.002,0.01-0.006,0.012-0.012l0,0c0.006-0.002,0.01-0.006,0.012-0.012l0,0
		c0.006-0.002,0.009-0.007,0.012-0.012c0.051-0.062,0.111-0.114,0.168-0.171c0.334-0.332,0.669-0.663,1.004-0.994
		c0.135-0.134,0.271-0.268,0.406-0.402C28.696,4.077,28.705,4.071,28.713,4.065z"/>
	<path fill="#F47C23" d="M26.851,5.907c0.001,0.027,0.002,0.053,0.002,0.08c0,0.949,0,1.898,0,2.846
		c0,0.018-0.002,0.037,0.001,0.055c0.005,0.029,0.012,0.057,0.049,0.062c-0.009,0.012-0.024,0.014-0.037,0.02
		c-0.54,0.218-1.08,0.437-1.62,0.655c-0.017,0.007-0.035,0.011-0.052,0.017c-0.037-0.004-0.051-0.029-0.056-0.063
		c-0.002-0.018-0.002-0.037-0.003-0.055c-0.001-0.626,0.002-1.253-0.002-1.879c0-0.016,0-0.033,0.009-0.047
		c0.011-0.012,0.021-0.025,0.032-0.036c0.414-0.41,0.827-0.819,1.241-1.229c0.136-0.134,0.271-0.268,0.407-0.402
		C26.831,5.922,26.841,5.914,26.851,5.907z"/>
	<path fill="#F26223" d="M28.736,8.634c0.008-0.002,0.015-0.005,0.023-0.007c0.005-0.001,0.01-0.004,0.015-0.007
		c0.004-0.001,0.008-0.003,0.012-0.004c0.008-0.005,0.018-0.003,0.025-0.01c0.002-0.003,0.005-0.004,0.009-0.003
		c0.007,0,0.011-0.004,0.015-0.008c0.004-0.001,0.008-0.003,0.012-0.004c0.008-0.005,0.019-0.003,0.026-0.01
		c0.002-0.003,0.005-0.004,0.009-0.003c0.007,0.001,0.011-0.004,0.016-0.008c0.004-0.001,0.008-0.003,0.012-0.004
		c0.022,0,0.026,0.017,0.03,0.033c0.005,0.02,0.004,0.041,0.004,0.061c0,0.607,0,1.215,0,1.822c0,0.033,0.003,0.066-0.02,0.094
		c-0.012,0.003-0.024,0.007-0.036,0.008c-0.206,0.021-0.412,0.041-0.617,0.061c-0.145,0.014-0.289,0.027-0.434,0.042
		c-0.143,0.014-0.285,0.029-0.428,0.044c-0.102,0.01-0.204,0.019-0.306,0.029c-0.102,0.01-0.204,0.022-0.306,0.03
		c-0.067,0.006-0.134,0.019-0.202,0.017c0.058-0.043,0.056-0.104,0.055-0.168c-0.001-0.363-0.001-0.726-0.001-1.089
		c0-0.025,0.001-0.049,0.006-0.073c0.023-0.018,0.051-0.025,0.077-0.035c0.561-0.227,1.122-0.454,1.683-0.68
		c0.021-0.008,0.042-0.015,0.063-0.022c0.003-0.003,0.006-0.005,0.01-0.005c0.008-0.003,0.017-0.005,0.025-0.008
		c0.005-0.002,0.009-0.004,0.013-0.007c0.004-0.001,0.009-0.003,0.013-0.004c0.003-0.003,0.006-0.005,0.01-0.006
		c0.008-0.003,0.016-0.005,0.024-0.008c0.005-0.002,0.009-0.004,0.014-0.007c0.004-0.001,0.009-0.003,0.013-0.004
		c0.003-0.003,0.007-0.005,0.011-0.006c0.008-0.003,0.016-0.005,0.024-0.008c0.005-0.002,0.01-0.004,0.014-0.007
		c0.004-0.001,0.008-0.003,0.013-0.004c0.003-0.003,0.007-0.005,0.011-0.006c0.008-0.002,0.016-0.005,0.023-0.007
		c0.005-0.002,0.01-0.004,0.014-0.007c0.004-0.001,0.008-0.003,0.012-0.004C28.727,8.638,28.731,8.636,28.736,8.634z"/>
	<path fill="#EF3524" d="M28.922,10.577c0-0.643,0-1.286,0-1.929c0-0.018,0-0.037,0-0.055c0-0.011-0.005-0.02-0.013-0.026
		c0.013-0.007,0.025-0.014,0.038-0.02c0.49-0.198,0.98-0.396,1.47-0.594c0.23-0.093,0.46-0.186,0.69-0.278
		c0.02-0.008,0.04-0.018,0.062-0.022c0.005,0.015-0.003,0.023-0.008,0.031c-0.057,0.099-0.115,0.199-0.172,0.298
		c-0.069,0.119-0.139,0.237-0.207,0.356c-0.072,0.124-0.142,0.249-0.213,0.373c-0.068,0.119-0.138,0.237-0.207,0.356
		c-0.047,0.082-0.094,0.163-0.141,0.245c-0.075,0.129-0.15,0.259-0.225,0.388c-0.048,0.083-0.095,0.167-0.143,0.251
		c-0.074,0.128-0.148,0.255-0.222,0.383c-0.03,0.051-0.059,0.103-0.087,0.155c-0.012,0.022-0.026,0.034-0.052,0.036
		c-0.137,0.012-0.273,0.025-0.41,0.039C29.028,10.57,28.976,10.579,28.922,10.577z"/>
	<path fill="#F25B23" d="M25.142,7.597c0.012,0.031,0.012,0.064,0.012,0.097c0,0.609,0,1.219,0,1.828c0,0.01,0,0.021,0,0.031
		c0,0.054,0,0.054,0.039,0.089c-0.009,0.005-0.017,0.011-0.026,0.015c-0.299,0.121-0.599,0.242-0.898,0.363
		c-0.015,0.006-0.031,0.01-0.046,0.015c-0.005,0.002-0.01,0.005-0.015,0.008c-0.004,0.001-0.009,0.002-0.013,0.003
		c-0.006,0.007-0.017,0.005-0.024,0.011l-0.004,0.003l-0.005,0c-0.006,0.001-0.01,0.006-0.016,0.008
		c-0.004,0.001-0.008,0.002-0.012,0.003c-0.007,0.007-0.018,0.004-0.025,0.011l-0.004,0.003l-0.005,0
		c-0.006,0.001-0.01,0.006-0.016,0.008c-0.004,0.001-0.008,0.002-0.012,0.003c-0.007,0.007-0.018,0.004-0.025,0.011l-0.004,0.003
		l-0.005,0c-0.007,0.001-0.011,0.006-0.016,0.008c-0.004,0.001-0.008,0.002-0.012,0.003c-0.007,0.007-0.018,0.004-0.026,0.011
		l-0.003,0.003l-0.004,0c-0.007,0.001-0.011,0.005-0.017,0.008c-0.003,0.003-0.007,0.004-0.011,0.003
		c-0.007,0.007-0.019,0.004-0.026,0.011l-0.003,0.003l-0.004,0c-0.007,0.001-0.012,0.005-0.017,0.008
		c-0.003,0.003-0.007,0.004-0.011,0.003c-0.008,0.006-0.019,0.004-0.026,0.011l-0.003,0.003l-0.004-0.001
		c-0.007,0-0.012,0.005-0.018,0.008c-0.003,0.003-0.007,0.004-0.011,0.003c-0.008,0.006-0.019,0.004-0.027,0.011l0,0
		c-0.006,0.007-0.017,0.005-0.024,0.01c-0.003,0.003-0.006,0.004-0.01,0.003c-0.008,0.006-0.02,0.004-0.027,0.012l0,0
		c-0.007,0.007-0.017,0.005-0.024,0.01c-0.003,0.003-0.006,0.004-0.01,0.003c-0.008,0.006-0.02,0.004-0.027,0.012l0,0
		c-0.007,0.007-0.017,0.005-0.025,0.01l-0.004,0.003l-0.005,0c-0.005,0.003-0.01,0.006-0.015,0.008
		c-0.004,0.001-0.008,0.002-0.012,0.004c-0.007,0.007-0.018,0.005-0.025,0.01l-0.004,0.003l-0.005,0
		c-0.006,0.002-0.01,0.006-0.015,0.008c-0.003,0.003-0.007,0.004-0.011,0.003c-0.041,0.012-0.055-0.015-0.065-0.046
		c-0.007-0.024-0.005-0.049-0.005-0.073c-0.001-0.297,0.001-0.595-0.001-0.892c0-0.021,0.002-0.041,0.006-0.061l0,0
		c0.006-0.003,0.01-0.007,0.013-0.013L23.503,9.22c0.006-0.003,0.01-0.007,0.013-0.013l-0.001,0.001
		c0.006-0.003,0.01-0.007,0.013-0.013l-0.001,0.001c0.006-0.002,0.01-0.007,0.013-0.013L23.54,9.183
		c0.006-0.002,0.01-0.007,0.013-0.012l0,0c0.006-0.003,0.01-0.007,0.013-0.013l0,0c0.006-0.003,0.01-0.007,0.013-0.013l0,0
		c0.006-0.003,0.01-0.007,0.013-0.013l0,0c0.006-0.003,0.01-0.007,0.013-0.013l0,0c0.006-0.002,0.01-0.007,0.013-0.012l0,0
		c0.005-0.003,0.01-0.007,0.012-0.012l0,0c0.005-0.003,0.01-0.007,0.012-0.013l0,0c0.006-0.003,0.01-0.007,0.012-0.013l0,0
		c0.006-0.003,0.01-0.007,0.013-0.012l0,0c0.005-0.003,0.009-0.007,0.012-0.012l0,0c0.005-0.003,0.009-0.007,0.012-0.012l0,0
		c0.005-0.003,0.009-0.007,0.012-0.012l0,0c0.005-0.003,0.009-0.007,0.012-0.012l0,0c0.005-0.003,0.009-0.007,0.012-0.012l0,0
		c0.005-0.003,0.009-0.007,0.012-0.012l0,0c0.004-0.004,0.008-0.007,0.012-0.012l0,0c0.005-0.003,0.008-0.007,0.012-0.012l0,0
		c0.005-0.003,0.009-0.007,0.012-0.012l0,0c0.005-0.003,0.009-0.007,0.012-0.012l0.001-0.001c0.004-0.004,0.008-0.007,0.012-0.011
		L23.8,8.925c0.004-0.004,0.008-0.007,0.012-0.012l0.001-0.001c0.004-0.004,0.008-0.007,0.012-0.012L23.825,8.9
		c0.004-0.004,0.008-0.007,0.012-0.012l0.001-0.001c0.004-0.004,0.008-0.007,0.012-0.011l0.001-0.001
		c0.004-0.004,0.008-0.007,0.011-0.011l0.001-0.001c0.004-0.004,0.007-0.007,0.011-0.011l0.001-0.001
		c0.004-0.004,0.007-0.007,0.011-0.011l0.001-0.001c0.004-0.004,0.008-0.007,0.011-0.011l0.001-0.001
		c0.004-0.004,0.007-0.007,0.011-0.011l0.001-0.001c0.003-0.004,0.007-0.007,0.011-0.011c0.045-0.056,0.099-0.103,0.15-0.154
		c0.338-0.335,0.676-0.669,1.015-1.004C25.105,7.629,25.12,7.609,25.142,7.597z"/>
	<path fill="#F59222" d="M26.655,9.477c0.008,0.007,0.013,0.016,0.013,0.026c0,0.016,0.001,0.033,0.001,0.049
		c0,0.389,0,0.779,0,1.168c0,0.008,0,0.016,0,0.025c0,0.037,0.003,0.052-0.047,0.051c-0.011,0-0.02,0.003-0.027,0.011
		c-0.069,0.008-0.138,0.017-0.207,0.024c-0.204,0.021-0.407,0.041-0.611,0.061c-0.147,0.014-0.294,0.028-0.44,0.042
		c-0.185,0.018-0.371,0.038-0.556,0.057c-0.145,0.014-0.289,0.028-0.434,0.042c-0.051,0.005-0.101,0.016-0.153,0.011
		c0.032-0.155,0.015-0.312,0.02-0.468c0.001-0.038-0.018-0.077,0.006-0.114c0.012-0.012,0.028-0.016,0.043-0.022
		c0.654-0.264,1.308-0.528,1.962-0.791c0.032-0.013,0.063-0.03,0.098-0.036c0.005-0.001,0.01-0.003,0.014-0.006
		c0.004-0.002,0.009-0.003,0.013-0.005c0.003-0.002,0.007-0.004,0.011-0.006c0.008-0.003,0.016-0.005,0.024-0.008
		c0.005-0.001,0.01-0.003,0.014-0.007c0.004-0.002,0.009-0.003,0.013-0.005c0.004-0.002,0.007-0.004,0.011-0.006
		c0.008-0.002,0.015-0.005,0.023-0.007c0.005-0.001,0.01-0.003,0.014-0.007c0.004-0.001,0.008-0.003,0.012-0.004
		c0.004-0.002,0.008-0.004,0.012-0.007c0.005-0.001,0.01-0.003,0.015-0.004c0.006-0.006,0.015-0.005,0.022-0.009
		c0.004-0.001,0.008-0.003,0.012-0.004c0.004-0.002,0.008-0.004,0.012-0.007c0.005-0.001,0.01-0.003,0.015-0.004
		c0.006-0.006,0.016-0.005,0.022-0.01c0.004-0.001,0.008-0.003,0.012-0.004c0.004-0.002,0.009-0.004,0.013-0.007
		c0.005-0.001,0.009-0.003,0.014-0.004c0.007-0.006,0.016-0.005,0.023-0.01C26.647,9.48,26.651,9.478,26.655,9.477z"/>
	<path fill="#FBE621" d="M30.463,7.51c-0.037-0.003-0.045-0.031-0.051-0.06c-0.003-0.014-0.001-0.029-0.001-0.043
		c0-0.768,0-1.536-0.001-2.304c0-0.036,0.007-0.069,0.015-0.102c0.003-0.011,0.014-0.014,0.024-0.016
		c0.016,0.035,0.032,0.07,0.046,0.106c0.052,0.131,0.102,0.263,0.154,0.395c0.069,0.175,0.138,0.35,0.208,0.525
		c0.023,0.057,0.045,0.114,0.068,0.171c0.079,0.2,0.157,0.4,0.236,0.6c0.045,0.114,0.09,0.229,0.134,0.343
		c0.003,0.008,0.006,0.015,0.008,0.023c0.007,0.02,0.005,0.024-0.015,0.032c-0.097,0.039-0.193,0.079-0.29,0.118
		c-0.165,0.067-0.33,0.133-0.495,0.2C30.491,7.503,30.477,7.506,30.463,7.51z"/>
	<path fill="#EF3924" d="M23.49,9.232c0.017,0.023,0.014,0.05,0.014,0.077c0,0.214,0,0.429,0,0.643c0,0.096,0,0.192,0,0.288
		c0,0.036,0.013,0.059,0.051,0.064c-0.061,0.034-0.127,0.055-0.192,0.081c-0.535,0.217-1.071,0.433-1.606,0.649
		c-0.045,0.018-0.09,0.036-0.142,0.057c0.012-0.026,0.028-0.038,0.042-0.052c0.421-0.417,0.842-0.833,1.263-1.25
		c0.181-0.179,0.361-0.357,0.542-0.536C23.47,9.246,23.481,9.239,23.49,9.232z"/>
	<path fill="#F9C722" d="M24.218,10.461c0.017,0.072,0.012,0.146,0.012,0.219c0,0.086-0.001,0.172,0,0.257
		c0,0.03-0.003,0.056-0.027,0.078c-0.007,0.006-0.008,0.018-0.012,0.027c-0.064,0.016-0.13,0.016-0.195,0.023
		c-0.153,0.017-0.306,0.031-0.458,0.046c-0.145,0.014-0.289,0.028-0.434,0.042c-0.145,0.014-0.289,0.029-0.434,0.044
		c-0.096,0.01-0.192,0.019-0.287,0.028c-0.016,0.002-0.033,0-0.051,0c0.011-0.016,0.027-0.019,0.041-0.024
		c0.326-0.132,0.653-0.264,0.979-0.395c0.233-0.094,0.467-0.189,0.7-0.283c0.013-0.005,0.027-0.009,0.041-0.013
		c0.007-0.005,0.018-0.002,0.024-0.01l0.003-0.001c0.006-0.005,0.015-0.005,0.022-0.009c0.004-0.001,0.009-0.003,0.013-0.004
		c0.007-0.005,0.018-0.002,0.024-0.01l0.003-0.001c0.006-0.005,0.015-0.005,0.022-0.01C24.209,10.464,24.214,10.463,24.218,10.461z"
		/>
	<path fill="#F47C23" d="M27.395,8.752c0.006-0.01,0.016-0.012,0.027-0.011C27.415,8.75,27.406,8.753,27.395,8.752z"/>
	<path fill="#F47C23" d="M27.333,8.776c0.006-0.01,0.016-0.012,0.027-0.011C27.353,8.775,27.344,8.777,27.333,8.776z"/>
	<path fill="#F47C23" d="M27.272,8.801c0.006-0.01,0.016-0.012,0.027-0.011C27.292,8.799,27.283,8.802,27.272,8.801z"/>
	<path fill="#F47C23" d="M27.21,8.826c0.007-0.01,0.017-0.012,0.028-0.011C27.231,8.824,27.221,8.827,27.21,8.826z"/>
	<path fill="#F47C23" d="M27.148,8.851c0.007-0.011,0.017-0.012,0.028-0.011C27.169,8.849,27.159,8.852,27.148,8.851z"/>
	<path fill="#F47C23" d="M27.087,8.875c0.007-0.011,0.017-0.012,0.028-0.011C27.108,8.874,27.098,8.876,27.087,8.875z"/>
	<path fill="#F47C23" d="M27.026,8.9c0.006-0.011,0.017-0.012,0.028-0.011C27.047,8.899,27.037,8.901,27.026,8.9z"/>
	<path fill="#F47C23" d="M27.001,8.911C27.007,8.902,27.015,8.9,27.025,8.9C27.019,8.908,27.011,8.912,27.001,8.911z"/>
	<path fill="#F47C23" d="M26.964,8.925c0.006-0.011,0.017-0.013,0.028-0.011C26.985,8.923,26.975,8.926,26.964,8.925z"/>
	<path fill="#F47C23" d="M26.939,8.936c0.006-0.009,0.015-0.012,0.025-0.011C26.958,8.933,26.95,8.937,26.939,8.936z"/>
	<path fill="#F47C23" d="M26.903,8.95c0.006-0.011,0.017-0.013,0.029-0.011C26.924,8.948,26.914,8.951,26.903,8.95z"/>
	<path fill="#EF3924" d="M24.17,10.056c0.006-0.009,0.015-0.011,0.024-0.011C24.188,10.053,24.18,10.057,24.17,10.056z"/>
	<path fill="#F26223" d="M26.643,9.481c-0.005,0.009-0.014,0.011-0.023,0.01C26.626,9.483,26.633,9.48,26.643,9.481z"/>
	<path fill="#F26223" d="M26.581,9.506c-0.005,0.009-0.013,0.011-0.022,0.01C26.564,9.508,26.572,9.505,26.581,9.506z"/>
	<path fill="#F26223" d="M26.52,9.531c-0.005,0.009-0.013,0.01-0.022,0.009C26.503,9.533,26.51,9.53,26.52,9.531z"/>
	<path fill="#EF3924" d="M24.108,10.081c0.006-0.009,0.015-0.011,0.025-0.011C24.126,10.078,24.118,10.082,24.108,10.081z"/>
	<path fill="#EF3924" d="M24.046,10.106c0.006-0.009,0.015-0.011,0.025-0.011C24.065,10.103,24.057,10.107,24.046,10.106z"/>
	<path fill="#EF3924" d="M23.985,10.131c0.006-0.01,0.015-0.012,0.026-0.011C24.004,10.128,23.995,10.131,23.985,10.131z"/>
	<path fill="#EF3924" d="M23.923,10.155c0.006-0.01,0.015-0.012,0.026-0.011C23.942,10.153,23.934,10.156,23.923,10.155z"/>
	<path fill="#EF3924" d="M23.8,10.205c0.006-0.01,0.016-0.012,0.027-0.011C23.82,10.202,23.811,10.206,23.8,10.205z"/>
	<path fill="#EF3924" d="M23.775,10.215c0.006-0.009,0.015-0.01,0.024-0.01C23.793,10.213,23.785,10.216,23.775,10.215z"/>
	<path fill="#EF3924" d="M23.738,10.23c0.006-0.011,0.016-0.012,0.027-0.012C23.758,10.227,23.749,10.231,23.738,10.23z"/>
	<path fill="#EF3924" d="M23.714,10.24c0.006-0.009,0.015-0.01,0.024-0.01C23.732,10.238,23.724,10.241,23.714,10.24z"/>
	<path fill="#EF3924" d="M23.677,10.255c0.006-0.011,0.016-0.013,0.027-0.012C23.697,10.252,23.688,10.256,23.677,10.255z"/>
	<path fill="#EF3924" d="M23.652,10.265c0.006-0.009,0.015-0.011,0.025-0.01C23.671,10.263,23.662,10.266,23.652,10.265z"/>
	<path fill="#EF3924" d="M23.591,10.29c0.006-0.009,0.015-0.011,0.025-0.01C23.609,10.288,23.601,10.29,23.591,10.29z"/>
	<path fill="#F59222" d="M24.205,10.466c-0.005,0.009-0.013,0.011-0.022,0.01C24.188,10.467,24.195,10.464,24.205,10.466z"/>
	<path fill="#EF3924" d="M23.861,10.18c0.006-0.01,0.016-0.012,0.026-0.011C23.881,10.177,23.872,10.181,23.861,10.18z"/>
	<path fill="#F59222" d="M24.18,10.476c-0.005,0.011-0.014,0.012-0.024,0.01C24.162,10.477,24.17,10.476,24.18,10.476z"/>
	<path fill="#F59222" d="M24.143,10.491c-0.005,0.009-0.012,0.011-0.022,0.009C24.126,10.492,24.134,10.489,24.143,10.491z"/>
	<path fill="#EF3524" d="M28.872,8.581c-0.006,0.01-0.015,0.011-0.026,0.01C28.853,8.583,28.862,8.58,28.872,8.581z"/>
	<path fill="#F59222" d="M24.119,10.501c-0.005,0.01-0.014,0.012-0.024,0.01C24.1,10.502,24.109,10.5,24.119,10.501z"/>
	<path fill="#EF3524" d="M28.81,8.606c-0.006,0.01-0.015,0.011-0.025,0.01C28.791,8.607,28.8,8.605,28.81,8.606z"/>
	<path fill="#F47C23" d="M26.987,5.772c-0.001,0.007-0.006,0.011-0.013,0.012C26.976,5.777,26.98,5.773,26.987,5.772z"/>
	<path fill="#F47C23" d="M26.975,5.784c-0.001,0.007-0.005,0.011-0.012,0.012C26.964,5.79,26.968,5.785,26.975,5.784z"/>
	<path fill="#F47C23" d="M26.962,5.796c-0.001,0.007-0.005,0.011-0.012,0.013C26.951,5.802,26.956,5.798,26.962,5.796z"/>
	<path fill="#F47C23" d="M26.95,5.809c-0.001,0.007-0.005,0.011-0.012,0.012C26.939,5.814,26.943,5.81,26.95,5.809z"/>
	<path fill="#F47C23" d="M26.938,5.821c-0.001,0.007-0.005,0.011-0.013,0.012C26.927,5.827,26.931,5.823,26.938,5.821z"/>
	<path fill="#F47C23" d="M26.926,5.833c-0.001,0.007-0.006,0.011-0.013,0.012C26.914,5.839,26.918,5.835,26.926,5.833z"/>
	<path fill="#F47C23" d="M26.913,5.845c-0.001,0.007-0.005,0.012-0.013,0.013C26.902,5.851,26.906,5.847,26.913,5.845z"/>
	<path fill="#F47C23" d="M26.901,5.858C26.9,5.865,26.896,5.869,26.888,5.87C26.89,5.863,26.894,5.859,26.901,5.858z"/>
	<path fill="#F47C23" d="M26.889,5.87c-0.001,0.007-0.005,0.012-0.013,0.013C26.877,5.876,26.882,5.872,26.889,5.87z"/>
	<path fill="#F47C23" d="M26.876,5.882c-0.001,0.007-0.005,0.011-0.013,0.012C26.865,5.888,26.869,5.884,26.876,5.882z"/>
	<path fill="#F47C23" d="M26.864,5.894c-0.001,0.008-0.005,0.012-0.013,0.013C26.852,5.9,26.857,5.896,26.864,5.894z"/>
	<path fill="#EF3524" d="M28.896,8.57c-0.004,0.006-0.009,0.008-0.016,0.008C28.884,8.572,28.89,8.57,28.896,8.57z"/>
	<path fill="#EF3524" d="M28.835,8.595c-0.003,0.006-0.009,0.008-0.015,0.008C28.823,8.597,28.828,8.595,28.835,8.595z"/>
	<path fill="#EF3524" d="M28.773,8.62c-0.003,0.006-0.008,0.008-0.015,0.007C28.761,8.621,28.767,8.619,28.773,8.62z"/>
	<path fill="#EF3524" d="M28.736,8.634c-0.004,0.002-0.008,0.004-0.012,0.006C28.726,8.635,28.73,8.633,28.736,8.634z"/>
	<path fill="#EF3524" d="M28.711,8.645c-0.003,0.006-0.008,0.008-0.014,0.007C28.7,8.646,28.705,8.644,28.711,8.645z"/>
	<path fill="#EF3524" d="M28.674,8.659c-0.004,0.002-0.008,0.004-0.011,0.006C28.665,8.66,28.668,8.658,28.674,8.659z"/>
	<path fill="#EF3524" d="M28.65,8.67c-0.003,0.005-0.008,0.008-0.014,0.007C28.639,8.671,28.643,8.669,28.65,8.67z"/>
	<path fill="#EF3524" d="M28.612,8.684c-0.004,0.002-0.007,0.004-0.011,0.006C28.603,8.685,28.606,8.683,28.612,8.684z"/>
	<path fill="#EF3524" d="M28.588,8.694c-0.003,0.005-0.007,0.008-0.014,0.007C28.577,8.696,28.582,8.693,28.588,8.694z"/>
	<path fill="#EF3524" d="M28.55,8.709c-0.004,0.002-0.007,0.004-0.01,0.006C28.542,8.71,28.545,8.707,28.55,8.709z"/>
	<path fill="#EF3524" d="M28.526,8.719c-0.004,0.002-0.009,0.005-0.013,0.007C28.516,8.72,28.52,8.718,28.526,8.719z"/>
	<path fill="#F47C23" d="M27.432,8.738c0.004-0.006,0.009-0.009,0.016-0.008C27.445,8.735,27.439,8.738,27.432,8.738z"/>
	<path fill="#EF3524" d="M28.489,8.734c-0.002,0.004-0.006,0.005-0.01,0.005C28.481,8.735,28.483,8.732,28.489,8.734z"/>
	<path fill="#F47C23" d="M27.37,8.763c0.004-0.006,0.01-0.009,0.017-0.009C27.383,8.76,27.378,8.763,27.37,8.763z"/>
	<path fill="#F47C23" d="M27.309,8.787c0.004-0.006,0.01-0.009,0.017-0.009C27.322,8.785,27.316,8.788,27.309,8.787z"/>
	<path fill="#EF3924" d="M23.923,8.803c-0.004,0.004-0.007,0.007-0.011,0.011C23.913,8.808,23.916,8.804,23.923,8.803z"/>
	<path fill="#F47C23" d="M27.247,8.812c0.004-0.006,0.01-0.009,0.017-0.009C27.261,8.81,27.255,8.813,27.247,8.812z"/>
	<path fill="#EF3924" d="M23.91,8.815c-0.004,0.004-0.008,0.007-0.011,0.011C23.9,8.82,23.904,8.816,23.91,8.815z"/>
	<path fill="#EF3924" d="M23.898,8.827c-0.004,0.004-0.007,0.007-0.011,0.011C23.888,8.832,23.891,8.828,23.898,8.827z"/>
	<path fill="#F47C23" d="M27.186,8.837c0.004-0.006,0.01-0.009,0.018-0.009C27.199,8.835,27.193,8.837,27.186,8.837z"/>
	<path fill="#EF3924" d="M23.886,8.84c-0.004,0.004-0.007,0.008-0.011,0.011C23.875,8.844,23.879,8.84,23.886,8.84z"/>
	<path fill="#EF3924" d="M23.873,8.852c-0.004,0.004-0.007,0.008-0.011,0.011C23.863,8.857,23.867,8.853,23.873,8.852z"/>
	<path fill="#F47C23" d="M27.124,8.862c0.004-0.006,0.011-0.009,0.018-0.009C27.138,8.86,27.132,8.862,27.124,8.862z"/>
	<path fill="#EF3924" d="M23.861,8.864c-0.004,0.004-0.008,0.007-0.011,0.011C23.851,8.869,23.854,8.865,23.861,8.864z"/>
	<path fill="#EF3924" d="M23.849,8.876c-0.004,0.004-0.008,0.007-0.012,0.011C23.838,8.881,23.842,8.877,23.849,8.876z"/>
	<path fill="#F47C23" d="M27.062,8.887c0.005-0.006,0.011-0.009,0.019-0.009C27.077,8.884,27.07,8.887,27.062,8.887z"/>
	<path fill="#EF3924" d="M23.836,8.888c-0.004,0.004-0.008,0.008-0.012,0.012C23.826,8.893,23.83,8.889,23.836,8.888z"/>
	<path fill="#EF3924" d="M23.824,8.901c-0.004,0.004-0.008,0.008-0.012,0.012C23.813,8.906,23.817,8.902,23.824,8.901z"/>
	<path fill="#EF3924" d="M23.812,8.913c-0.004,0.004-0.008,0.008-0.012,0.012C23.801,8.918,23.805,8.914,23.812,8.913z"/>
	<path fill="#EF3924" d="M23.799,8.925c-0.004,0.004-0.008,0.008-0.012,0.011C23.789,8.93,23.793,8.926,23.799,8.925z"/>
	<path fill="#EF3924" d="M23.787,8.937c-0.004,0.004-0.008,0.008-0.012,0.012C23.776,8.942,23.78,8.938,23.787,8.937z"/>
	<path fill="#EF3924" d="M23.775,8.949c-0.002,0.006-0.006,0.01-0.012,0.012C23.764,8.955,23.768,8.951,23.775,8.949z"/>
	<path fill="#EF3924" d="M23.762,8.962c-0.002,0.006-0.006,0.01-0.012,0.012C23.751,8.967,23.755,8.963,23.762,8.962z"/>
	<path fill="#EF3924" d="M23.75,8.974c-0.004,0.004-0.008,0.008-0.012,0.012C23.739,8.979,23.743,8.975,23.75,8.974z"/>
	<path fill="#EF3924" d="M23.738,8.987c-0.002,0.006-0.006,0.01-0.012,0.012C23.727,8.992,23.731,8.988,23.738,8.987z"/>
	<path fill="#EF3924" d="M23.725,8.999c-0.002,0.006-0.006,0.01-0.012,0.012C23.714,9.004,23.719,9,23.725,8.999z"/>
	<path fill="#EF3924" d="M23.713,9.011c-0.002,0.007-0.006,0.011-0.012,0.012C23.702,9.016,23.706,9.012,23.713,9.011z"/>
	<path fill="#EF3924" d="M23.701,9.023c-0.002,0.007-0.006,0.011-0.012,0.012C23.69,9.028,23.694,9.024,23.701,9.023z"/>
	<path fill="#EF3924" d="M23.688,9.035c-0.002,0.007-0.006,0.011-0.012,0.012C23.678,9.041,23.682,9.037,23.688,9.035z"/>
	<path fill="#EF3924" d="M23.676,9.048c-0.002,0.007-0.006,0.011-0.012,0.012C23.665,9.053,23.669,9.049,23.676,9.048z"/>
	<path fill="#EF3924" d="M23.664,9.06c-0.002,0.007-0.006,0.011-0.013,0.012C23.653,9.065,23.657,9.061,23.664,9.06z"/>
	<path fill="#EF3924" d="M23.651,9.072c-0.002,0.007-0.006,0.011-0.012,0.013C23.64,9.077,23.644,9.073,23.651,9.072z"/>
	<path fill="#EF3924" d="M23.639,9.084c-0.002,0.007-0.006,0.011-0.012,0.013C23.628,9.09,23.632,9.086,23.639,9.084z"/>
	<path fill="#EF3924" d="M23.627,9.097c-0.002,0.007-0.006,0.011-0.012,0.012C23.616,9.102,23.62,9.098,23.627,9.097z"/>
	<path fill="#EF3924" d="M23.614,9.109c-0.002,0.007-0.006,0.011-0.013,0.012C23.603,9.114,23.608,9.11,23.614,9.109z"/>
	<path fill="#EF3924" d="M23.602,9.121c-0.002,0.007-0.006,0.011-0.013,0.013C23.591,9.126,23.595,9.122,23.602,9.121z"/>
	<path fill="#EF3924" d="M23.59,9.133c-0.002,0.007-0.006,0.011-0.013,0.013C23.578,9.139,23.583,9.135,23.59,9.133z"/>
	<path fill="#EF3924" d="M23.577,9.145c-0.002,0.007-0.006,0.011-0.013,0.013C23.566,9.151,23.57,9.147,23.577,9.145z"/>
	<path fill="#EF3924" d="M23.565,9.158c-0.002,0.007-0.006,0.011-0.013,0.013C23.554,9.164,23.558,9.159,23.565,9.158z"/>
	<path fill="#EF3924" d="M23.553,9.17c-0.002,0.007-0.006,0.011-0.013,0.012C23.541,9.176,23.546,9.172,23.553,9.17z"/>
	<path fill="#EF3924" d="M23.54,9.182c-0.002,0.007-0.006,0.011-0.013,0.013C23.529,9.188,23.533,9.183,23.54,9.182z"/>
	<path fill="#EF3924" d="M23.528,9.194c-0.002,0.007-0.006,0.011-0.013,0.013C23.517,9.2,23.521,9.196,23.528,9.194z"/>
	<path fill="#EF3924" d="M23.516,9.207c-0.002,0.007-0.006,0.011-0.013,0.013C23.504,9.213,23.509,9.208,23.516,9.207z"/>
	<path fill="#F26223" d="M26.606,9.495c-0.003,0.005-0.007,0.008-0.013,0.007C26.595,9.496,26.6,9.494,26.606,9.495z"/>
	<path fill="#F26223" d="M26.544,9.52c-0.003,0.005-0.007,0.008-0.012,0.007C26.534,9.521,26.538,9.519,26.544,9.52z"/>
	<path fill="#F26223" d="M26.482,9.545c-0.004,0.002-0.008,0.004-0.012,0.007C26.473,9.546,26.477,9.543,26.482,9.545z"/>
	<path fill="#F26223" d="M26.458,9.556c-0.003,0.006-0.008,0.008-0.014,0.007C26.447,9.556,26.452,9.555,26.458,9.556z"/>
	<path fill="#F26223" d="M26.421,9.57c-0.004,0.002-0.008,0.004-0.011,0.006C26.411,9.57,26.415,9.568,26.421,9.57z"/>
	<path fill="#F26223" d="M26.396,9.58c-0.003,0.006-0.008,0.008-0.014,0.007C26.385,9.581,26.39,9.579,26.396,9.58z"/>
	<path fill="#F26223" d="M26.359,9.595c-0.004,0.002-0.007,0.004-0.011,0.006C26.35,9.595,26.353,9.593,26.359,9.595z"/>
	<path fill="#F26223" d="M26.335,9.605c-0.003,0.006-0.008,0.008-0.014,0.006C26.324,9.605,26.329,9.604,26.335,9.605z"/>
	<path fill="#EF3924" d="M24.207,10.042c0.005-0.003,0.01-0.005,0.015-0.008C24.218,10.04,24.214,10.043,24.207,10.042z"/>
	<path fill="#EF3924" d="M23.503,9.219c-0.002,0.007-0.006,0.011-0.013,0.013C23.492,9.225,23.496,9.221,23.503,9.219z"/>
	<path fill="#EF3924" d="M24.145,10.067c0.004-0.006,0.009-0.008,0.016-0.008C24.157,10.065,24.152,10.068,24.145,10.067z"/>
	<path fill="#EF3924" d="M24.083,10.092c0.005-0.003,0.011-0.005,0.016-0.008C24.096,10.09,24.09,10.092,24.083,10.092z"/>
	<path fill="#EF3924" d="M24.022,10.116c0.005-0.003,0.011-0.005,0.016-0.008C24.034,10.114,24.029,10.117,24.022,10.116z"/>
	<path fill="#EF3924" d="M23.96,10.141c0.006-0.003,0.011-0.005,0.017-0.008C23.973,10.139,23.967,10.142,23.96,10.141z"/>
	<path fill="#EF3924" d="M23.899,10.166c0.004-0.006,0.01-0.008,0.017-0.008C23.912,10.164,23.906,10.166,23.899,10.166z"/>
	<path fill="#EF3924" d="M23.837,10.191c0.004-0.006,0.01-0.009,0.018-0.008C23.85,10.189,23.844,10.191,23.837,10.191z"/>
	<path fill="#EF3924" d="M23.628,10.276c0.005-0.003,0.01-0.005,0.015-0.008C23.639,10.274,23.634,10.277,23.628,10.276z"/>
	<path fill="#EF3924" d="M23.566,10.301c0.005-0.003,0.01-0.006,0.015-0.008C23.578,10.298,23.573,10.301,23.566,10.301z"/>
	<path fill="#F47C23" d="M27.111,5.65c-0.001,0.007-0.006,0.011-0.012,0.012C27.1,5.655,27.104,5.651,27.111,5.65z"/>
	<path fill="#F47C23" d="M27.098,5.662c-0.001,0.007-0.005,0.011-0.012,0.012C27.087,5.667,27.091,5.663,27.098,5.662z"/>
	<path fill="#F47C23" d="M27.086,5.674c-0.001,0.007-0.005,0.011-0.012,0.012C27.075,5.679,27.079,5.675,27.086,5.674z"/>
	<path fill="#F47C23" d="M27.074,5.686c-0.001,0.007-0.005,0.011-0.012,0.012C27.063,5.692,27.067,5.688,27.074,5.686z"/>
	<path fill="#F47C23" d="M27.061,5.699c-0.001,0.007-0.005,0.011-0.012,0.012C27.051,5.704,27.055,5.7,27.061,5.699z"/>
	<path fill="#F47C23" d="M27.049,5.711c-0.001,0.007-0.006,0.011-0.012,0.012C27.038,5.716,27.042,5.712,27.049,5.711z"/>
	<path fill="#F47C23" d="M27.036,5.723c-0.001,0.007-0.005,0.011-0.012,0.012C27.026,5.728,27.03,5.724,27.036,5.723z"/>
	<path fill="#F47C23" d="M27.024,5.735c-0.001,0.007-0.005,0.011-0.012,0.012C27.013,5.741,27.017,5.737,27.024,5.735z"/>
	<path fill="#F47C23" d="M27.012,5.748C27.011,5.755,27.007,5.759,27,5.76C27.001,5.753,27.005,5.749,27.012,5.748z"/>
	<path fill="#F47C23" d="M27,5.76c-0.001,0.007-0.005,0.011-0.012,0.012C26.989,5.765,26.993,5.761,27,5.76z"/>
	<path fill="#F7A422" d="M3.265,3.937c0.046,0.034,0.084,0.078,0.124,0.118c0.314,0.31,0.627,0.62,0.94,0.93
		c0.348,0.345,0.697,0.69,1.045,1.034c0.007,0.007,0.013,0.016,0.019,0.024c0.008,0.015,0.009,0.031,0.009,0.048
		C5.398,7.031,5.402,7.971,5.401,8.91c0,0.021,0,0.041-0.004,0.061C5.392,8.997,5.381,9.018,5.354,9.026
		C5.295,9.003,5.235,8.982,5.176,8.958C4.544,8.702,3.911,8.447,3.278,8.191C3.26,8.183,3.239,8.18,3.224,8.165
		C3.239,7.232,3.227,6.3,3.23,5.368c0.002-0.428,0-0.857,0.001-1.285C3.231,4.032,3.224,3.979,3.265,3.937z"/>
	<path fill="#F9CB21" d="M3.265,3.937C3.244,4.03,3.251,4.125,3.251,4.218c0,1.275,0,2.55,0,3.825c0,0.012-0.001,0.025,0,0.037
		c0.004,0.033-0.006,0.06-0.027,0.085C3.16,8.147,3.101,8.119,3.041,8.094C2.588,7.912,2.135,7.729,1.683,7.546
		c-0.024-0.01-0.05-0.017-0.072-0.033c0.016-0.72,0.003-1.439,0.007-2.159c0-0.049,0-0.098-0.015-0.146
		C1.624,5.15,1.645,5.092,1.667,5.035C1.723,4.892,1.779,4.75,1.836,4.607c0.069-0.175,0.139-0.35,0.208-0.525
		C2.09,3.965,2.136,3.846,2.182,3.728c0.055-0.139,0.11-0.278,0.165-0.416C2.37,3.255,2.392,3.197,2.414,3.14
		c0.004-0.01,0.007-0.019,0.017-0.026C2.45,3.122,2.462,3.139,2.477,3.153c0.258,0.255,0.515,0.51,0.773,0.765
		C3.255,3.924,3.26,3.931,3.265,3.937z"/>
	<path fill="#F37523" d="M5.354,9.026C5.38,8.998,5.381,8.964,5.381,8.929c0-0.927,0-1.855-0.001-2.782c0-0.035,0-0.07,0.014-0.103
		C5.434,6.07,5.463,6.107,5.497,6.14c0.421,0.416,0.842,0.832,1.262,1.249C7.02,7.647,7.28,7.904,7.541,8.162
		c0.012,0.011,0.021,0.024,0.032,0.037c0.009,0.015,0.011,0.03,0.011,0.047C7.575,8.76,7.582,9.274,7.58,9.788
		c0,0.02,0.001,0.041-0.003,0.061C7.57,9.887,7.552,9.909,7.509,9.898c-0.078-0.03-0.156-0.06-0.234-0.091
		C6.714,9.58,6.152,9.353,5.591,9.126C5.526,9.1,5.462,9.074,5.397,9.048C5.382,9.042,5.366,9.038,5.354,9.026z"/>
	<path fill="#F9C322" d="M3.701,10.65c-0.078,0.002-0.155-0.013-0.233-0.019c-0.104-0.008-0.208-0.02-0.312-0.031
		c-0.151-0.015-0.302-0.03-0.453-0.045c-0.022-0.002-0.045-0.004-0.067-0.005c-0.018-0.001-0.03-0.009-0.039-0.025
		c-0.029-0.052-0.06-0.102-0.09-0.154c-0.091-0.158-0.181-0.316-0.272-0.474C2.208,9.849,2.179,9.802,2.152,9.754
		C2.147,9.745,2.144,9.735,2.14,9.726c0.048-0.013,0.045-0.052,0.045-0.089c0-0.463,0-0.927,0-1.39c0-0.024-0.005-0.049,0.008-0.072
		C2.231,8.181,2.266,8.2,2.301,8.214c0.52,0.21,1.041,0.421,1.561,0.632c0.023,0.009,0.044,0.02,0.067,0.03
		C3.963,8.9,3.96,8.936,3.96,8.971c0,0.526,0.001,1.052,0,1.577c0,0.107-0.027,0.128-0.135,0.114
		c-0.011-0.001-0.021-0.001-0.032-0.002C3.764,10.646,3.731,10.662,3.701,10.65z"/>
	<path fill="#F58C22" d="M3.825,10.662c0.014-0.001,0.029-0.002,0.043-0.002c0.02,0.001,0.035-0.007,0.051-0.018
		c0.015-0.011,0.023-0.023,0.022-0.041c-0.001-0.014,0-0.029,0-0.043c0-0.533,0-1.065,0-1.598c0-0.029,0.003-0.058-0.011-0.084
		c0.039,0.006,0.073,0.025,0.109,0.04c0.683,0.276,1.367,0.553,2.05,0.83C6.099,9.75,6.109,9.757,6.12,9.762
		c0.023,0.014,0.022,0.037,0.022,0.06c-0.005,0.312-0.001,0.625-0.002,0.938c0,0.022,0.001,0.045-0.001,0.067
		c-0.005,0.058-0.012,0.063-0.072,0.057c-0.078,0.002-0.155-0.012-0.232-0.019c-0.104-0.008-0.208-0.021-0.311-0.031
		c-0.153-0.015-0.305-0.031-0.458-0.046c-0.1-0.01-0.2-0.019-0.299-0.029c-0.108-0.011-0.216-0.022-0.324-0.032
		c-0.098-0.01-0.196-0.019-0.293-0.029c-0.1-0.01-0.2-0.019-0.299-0.029C3.84,10.669,3.832,10.665,3.825,10.662z"/>
	<path fill="#F04B23" d="M7.509,9.898c0.011-0.004,0.023-0.007,0.034-0.012c0.01-0.004,0.015-0.013,0.015-0.025
		c0-0.018,0.001-0.037,0.001-0.055c0-0.479,0-0.958,0-1.437c0-0.057-0.004-0.114,0.013-0.17C7.614,8.227,7.645,8.265,7.679,8.3
		c0.414,0.409,0.827,0.818,1.24,1.226c0.128,0.127,0.256,0.253,0.384,0.38c0.015,0.014,0.028,0.03,0.042,0.045
		c0.022,0.031,0.03,0.067,0.031,0.105c0.002,0.162,0.002,0.324,0,0.486c-0.001,0.065-0.015,0.079-0.069,0.083
		c-0.067-0.018-0.13-0.049-0.194-0.075c-0.526-0.212-1.051-0.425-1.577-0.637C7.527,9.908,7.518,9.903,7.509,9.898z"/>
	<path fill="#F36923" d="M6.066,10.884c0.052-0.002,0.054-0.002,0.054-0.057c0-0.313,0-0.625,0-0.938
		c0-0.032-0.004-0.065,0.008-0.097C6.13,9.783,6.123,9.772,6.12,9.762c0.017,0.005,0.035,0.01,0.052,0.017
		c0.509,0.206,1.018,0.412,1.527,0.618c0.036,0.015,0.072,0.03,0.107,0.045c0.02,0.026,0.019,0.057,0.019,0.088
		c0,0.131,0,0.262,0,0.393c0,0.118-0.024,0.137-0.146,0.12c-0.078,0.002-0.155-0.012-0.233-0.018
		c-0.102-0.008-0.204-0.02-0.306-0.031c-0.112-0.011-0.224-0.023-0.337-0.034c-0.098-0.01-0.196-0.019-0.294-0.028
		c-0.11-0.011-0.22-0.022-0.33-0.033c-0.024-0.002-0.049-0.004-0.074-0.006C6.093,10.892,6.078,10.893,6.066,10.884z"/>
	<path fill="#FAD421" d="M2.192,8.174c0.013,0.022,0.012,0.047,0.012,0.072c0,0.19,0,0.381,0,0.571c0,0.285,0,0.569,0,0.854
		c0,0.016,0,0.033,0,0.049C2.203,9.744,2.196,9.749,2.174,9.74C2.162,9.736,2.151,9.731,2.14,9.726
		c-0.042-0.07-0.084-0.14-0.125-0.211C1.938,9.384,1.862,9.253,1.787,9.121C1.715,8.997,1.645,8.872,1.573,8.748
		C1.505,8.629,1.435,8.511,1.366,8.392c-0.071-0.122-0.14-0.246-0.211-0.368c-0.05-0.087-0.101-0.173-0.151-0.26
		C0.989,7.737,0.975,7.71,0.96,7.684c0.017-0.01,0.027-0.001,0.037,0.003C1.252,7.79,1.507,7.893,1.761,7.996
		C1.894,8.049,2.027,8.104,2.16,8.158C2.171,8.162,2.184,8.164,2.192,8.174z"/>
	<path fill="#FBE521" d="M1.603,5.207c0.023,0.003,0.029,0.022,0.033,0.039c0.003,0.016,0.002,0.033,0.002,0.049
		c0,0.709,0,1.417,0.001,2.126c0,0.034-0.005,0.065-0.027,0.091C1.553,7.491,1.496,7.47,1.439,7.447
		C1.251,7.371,1.063,7.295,0.875,7.219C0.86,7.213,0.845,7.207,0.83,7.199c-0.004-0.002-0.006-0.01-0.006-0.016
		c0-0.006,0.004-0.011,0.007-0.017C0.885,7.027,0.94,6.888,0.994,6.749c0.069-0.175,0.139-0.35,0.208-0.525
		C1.25,6.102,1.297,5.98,1.345,5.858c0.058-0.149,0.117-0.297,0.176-0.445C1.548,5.344,1.575,5.276,1.603,5.207z"/>
	<path fill="#F04623" d="M7.68,11.043c0.018,0,0.037-0.001,0.055-0.001c0.015,0,0.028-0.004,0.041-0.01
		c0.018-0.009,0.029-0.022,0.029-0.043c0-0.014,0-0.029,0-0.043c0-0.168,0-0.336,0-0.504c0.078,0.031,0.157,0.061,0.234,0.092
		c0.515,0.208,1.03,0.416,1.545,0.625c0.068,0.028,0.136,0.056,0.205,0.084c-0.006,0.015-0.018,0.01-0.026,0.009
		c-0.065-0.005-0.131-0.011-0.196-0.017c-0.102-0.01-0.204-0.021-0.306-0.032c-0.114-0.012-0.228-0.023-0.343-0.034
		c-0.102-0.01-0.204-0.019-0.306-0.029c-0.106-0.01-0.212-0.022-0.318-0.032c-0.098-0.01-0.196-0.019-0.294-0.028
		c-0.1-0.01-0.2-0.019-0.3-0.029C7.695,11.051,7.688,11.046,7.68,11.043z"/>
	<path fill="#ED2C24" d="M9.307,10.624c0.037-0.006,0.051-0.028,0.05-0.064c-0.001-0.039,0-0.077,0-0.116c0-0.102,0-0.204,0-0.306
		c0-0.053,0.004-0.106-0.012-0.157c-0.003-0.009-0.001-0.02-0.001-0.03c0.044,0.042,0.089,0.084,0.133,0.127
		c0.328,0.324,0.655,0.648,0.982,0.973c0.017,0.017,0.034,0.034,0.054,0.054c-0.018,0.008-0.03,0-0.042-0.005
		c-0.176-0.071-0.353-0.143-0.529-0.214c-0.201-0.081-0.402-0.163-0.603-0.244C9.328,10.637,9.318,10.63,9.307,10.624z"/>
	<path fill="#F58C22" d="M3.701,10.65c0.031-0.001,0.063-0.011,0.092,0.01C3.762,10.662,3.731,10.663,3.701,10.65z"/>
	<path fill="#F59222" d="M6.652,5.244C6.575,5.167,6.498,5.09,6.422,5.013C6.124,4.71,5.827,4.407,5.529,4.104
		C5.486,4.06,5.443,4.017,5.4,3.973C5.392,3.964,5.385,3.953,5.378,3.944C5.459,3.939,5.46,3.939,5.46,3.847
		c0-0.544,0-1.087,0-1.631c0-0.091-0.001-0.092-0.093-0.092c-0.203,0-0.406,0.001-0.609-0.001c-0.03,0-0.067,0.011-0.087-0.027
		c0.018-0.001,0.037-0.003,0.055-0.003c0.563,0,1.125,0,1.688,0.001c0.018,0,0.037,0.002,0.055,0.002
		c0.18,0.003,0.36,0.001,0.541,0.001c0.068,0,0.076,0.006,0.077,0.071c0.002,0.09,0.001,0.18,0,0.27
		c0,0.031-0.004,0.062-0.032,0.082C6.973,2.543,6.892,2.565,6.81,2.585C6.677,2.618,6.544,2.65,6.411,2.683
		c-0.012,0.003-0.024,0.006-0.035,0.01c-0.009,0.003-0.013,0.01-0.011,0.019c0.001,0.006,0.003,0.012,0.006,0.017
		c0.043,0.099,0.087,0.199,0.131,0.298c0.025,0.056,0.051,0.112,0.075,0.168c0.055,0.128,0.11,0.255,0.165,0.383
		C6.744,3.584,6.745,3.59,6.747,3.596C6.754,3.63,6.755,3.664,6.755,3.699c0,0.488,0,0.976,0,1.464c0,0.012,0.001,0.025,0,0.037
		C6.752,5.227,6.757,5.26,6.726,5.275C6.692,5.291,6.674,5.26,6.652,5.244z"/>
	<path fill="#F8BC22" d="M4.67,2.097C4.688,2.112,4.71,2.104,4.729,2.105c0.223,0.001,0.446,0.001,0.67,0.001
		c0.018,0,0.037,0,0.055,0.001c0.014,0.001,0.023,0.009,0.024,0.023c0.001,0.014,0.001,0.029,0.001,0.043c0,0.586,0,1.171,0,1.757
		c0,0.014,0,0.029-0.002,0.043C5.476,3.98,5.468,3.986,5.459,3.983c-0.017-0.006-0.036-0.007-0.05-0.021
		C5.4,3.953,5.392,3.943,5.378,3.944c0,0,0,0,0,0C5.377,3.933,5.371,3.93,5.362,3.929c-0.004,0-0.006-0.002-0.006-0.005
		C5.351,3.922,5.348,3.919,5.347,3.914L5.345,3.912c-0.009-0.004-0.006-0.018-0.017-0.02l0.001,0.001
		C5.328,3.886,5.324,3.881,5.316,3.88l0.001,0.001C5.316,3.873,5.311,3.869,5.304,3.868l0.001,0.001
		C5.303,3.861,5.299,3.856,5.291,3.856l0.001,0.001C5.291,3.849,5.287,3.844,5.279,3.843L5.28,3.844
		C5.279,3.836,5.274,3.832,5.267,3.83l0.001,0.001C5.267,3.824,5.262,3.82,5.255,3.818l0.001,0.001
		C5.254,3.812,5.25,3.807,5.243,3.805l0.001,0.001C5.242,3.8,5.237,3.795,5.23,3.793l0.001,0.001
		C5.23,3.787,5.225,3.783,5.218,3.781l0.001,0.001C5.217,3.775,5.213,3.771,5.206,3.768l0.001,0.001
		C5.205,3.763,5.2,3.758,5.194,3.756l0.001,0.001C5.192,3.75,5.188,3.746,5.181,3.743l0.001,0.001
		C5.18,3.738,5.176,3.734,5.169,3.731L5.17,3.732C5.168,3.726,5.163,3.721,5.157,3.719L5.158,3.72
		C5.155,3.713,5.151,3.709,5.145,3.706l0.001,0.001c-0.003-0.006-0.007-0.01-0.013-0.013l0.001,0.001
		c-0.003-0.006-0.007-0.01-0.013-0.013l0.001,0.001c-0.003-0.006-0.008-0.01-0.014-0.013C5.042,3.604,4.977,3.54,4.912,3.475
		c-0.217-0.22-0.433-0.44-0.649-0.661c-0.01-0.01-0.022-0.018-0.027-0.033c0.026-0.057,0.03-0.117,0.029-0.179
		c-0.002-0.127,0-0.254-0.001-0.38c0-0.097,0-0.097-0.1-0.097c-0.168,0-0.335,0-0.503,0c-0.027,0-0.053,0-0.079-0.008
		C3.58,2.112,3.576,2.108,3.573,2.103C3.573,2.102,3.578,2.096,3.581,2.095c0.01-0.001,0.02-0.001,0.031-0.001
		c0.343,0,0.685,0,1.028,0.001C4.65,2.095,4.66,2.096,4.67,2.097z"/>
	<path fill="#F37123" d="M6.652,5.244C6.67,5.244,6.68,5.26,6.695,5.266c0.021,0.008,0.038-0.002,0.039-0.024
		c0.001-0.018,0.001-0.037,0.001-0.055c0-0.498,0-0.996,0-1.495c0-0.033,0.001-0.065,0.013-0.097
		c0.012,0.007,0.013,0.02,0.018,0.031c0.091,0.208,0.182,0.417,0.273,0.626c0.079,0.182,0.159,0.364,0.239,0.546
		c0.089,0.203,0.179,0.405,0.268,0.608c0.052,0.118,0.102,0.237,0.154,0.355c0.068,0.156,0.138,0.311,0.206,0.467
		c0.048,0.109,0.095,0.218,0.142,0.327C8.067,6.604,8.089,6.653,8.11,6.702c0.004,0.01,0.014,0.021,0.005,0.04
		C8.074,6.699,8.034,6.657,7.994,6.616C7.762,6.379,7.529,6.142,7.296,5.904C7.088,5.692,6.879,5.48,6.671,5.268
		C6.664,5.261,6.658,5.252,6.652,5.244z"/>
	<path fill="#F25D23" d="M7.054,2.523c0.012-0.029,0.014-0.059,0.014-0.09c-0.001-0.084,0-0.168,0-0.252c0-0.01,0-0.021,0-0.031
		C7.066,2.11,7.063,2.107,7.026,2.106c-0.014,0-0.029,0-0.043,0c-0.154,0-0.307,0-0.461-0.001c-0.018,0-0.037,0.006-0.053-0.007
		c0.016-0.001,0.033-0.003,0.049-0.003c0.743,0,1.485,0.001,2.228,0.001c0.006,0,0.012,0,0.02,0C8.76,2.113,8.745,2.113,8.733,2.116
		c-0.287,0.07-0.573,0.14-0.86,0.21C7.612,2.39,7.351,2.454,7.09,2.517C7.078,2.52,7.066,2.521,7.054,2.523z"/>
	<path fill="#FBDA21" d="M3.583,2.117C3.598,2.1,3.617,2.105,3.635,2.105c0.102,0,0.205,0,0.307,0c0.09,0,0.18,0,0.27,0
		c0.014,0,0.029,0,0.043,0.001c0.019,0.001,0.026,0.008,0.028,0.026c0.001,0.012,0.001,0.025,0.001,0.037c0,0.17,0,0.34,0,0.51
		c0,0.02-0.002,0.04-0.008,0.06c-0.006,0.023-0.02,0.034-0.04,0.042c-0.06-0.05-0.111-0.109-0.165-0.164
		c-0.158-0.16-0.316-0.321-0.474-0.481C3.593,2.13,3.588,2.123,3.583,2.117z"/>
	<path fill="#F59222" d="M5.328,3.892c0.012,0.001,0.016,0.009,0.017,0.02C5.336,3.909,5.33,3.902,5.328,3.892z"/>
	<path fill="#F59222" d="M5.108,3.669c0.007,0.002,0.012,0.006,0.014,0.013C5.114,3.681,5.109,3.676,5.108,3.669z"/>
	<path fill="#F59222" d="M5.121,3.682c0.007,0.002,0.011,0.006,0.013,0.013C5.126,3.693,5.122,3.689,5.121,3.682z"/>
	<path fill="#F59222" d="M5.133,3.694C5.14,3.696,5.144,3.7,5.146,3.707C5.138,3.706,5.134,3.701,5.133,3.694z"/>
	<path fill="#F59222" d="M5.145,3.706C5.152,3.708,5.157,3.712,5.158,3.72C5.15,3.718,5.146,3.714,5.145,3.706z"/>
	<path fill="#F59222" d="M5.157,3.719C5.164,3.72,5.169,3.725,5.17,3.732C5.163,3.731,5.158,3.726,5.157,3.719z"/>
	<path fill="#F59222" d="M5.169,3.731c0.007,0.001,0.012,0.006,0.013,0.013C5.175,3.743,5.17,3.739,5.169,3.731z"/>
	<path fill="#F59222" d="M5.181,3.743c0.007,0.001,0.012,0.006,0.013,0.013C5.187,3.756,5.183,3.751,5.181,3.743z"/>
	<path fill="#F59222" d="M5.194,3.756c0.007,0.002,0.012,0.006,0.013,0.013C5.199,3.768,5.195,3.763,5.194,3.756z"/>
	<path fill="#F59222" d="M5.206,3.768C5.213,3.77,5.218,3.774,5.219,3.782C5.211,3.78,5.207,3.776,5.206,3.768z"/>
	<path fill="#F59222" d="M5.218,3.781C5.226,3.782,5.23,3.787,5.231,3.794C5.224,3.793,5.219,3.788,5.218,3.781z"/>
	<path fill="#F59222" d="M5.23,3.793c0.008,0.001,0.012,0.006,0.014,0.013C5.236,3.805,5.232,3.801,5.23,3.793z"/>
	<path fill="#F59222" d="M5.243,3.805C5.25,3.807,5.255,3.811,5.256,3.819C5.248,3.817,5.244,3.813,5.243,3.805z"/>
	<path fill="#F59222" d="M5.255,3.818c0.008,0.001,0.012,0.006,0.013,0.014C5.26,3.83,5.256,3.825,5.255,3.818z"/>
	<path fill="#F59222" d="M5.267,3.83C5.275,3.832,5.279,3.836,5.28,3.844C5.272,3.843,5.268,3.838,5.267,3.83z"/>
	<path fill="#F59222" d="M5.279,3.843c0.008,0.001,0.012,0.005,0.013,0.014C5.285,3.855,5.28,3.851,5.279,3.843z"/>
	<path fill="#F59222" d="M5.291,3.856c0.008,0.001,0.013,0.005,0.014,0.013C5.297,3.867,5.293,3.863,5.291,3.856z"/>
	<path fill="#F59222" d="M5.304,3.868c0.008,0.001,0.012,0.005,0.013,0.013C5.309,3.88,5.305,3.875,5.304,3.868z"/>
	<path fill="#F59222" d="M5.316,3.88c0.008,0.001,0.012,0.006,0.013,0.014C5.322,3.892,5.317,3.887,5.316,3.88z"/>
	<path fill="#F59222" d="M5.347,3.914C5.35,3.917,5.353,3.92,5.356,3.923C5.35,3.923,5.347,3.92,5.347,3.914z"/>
	<path fill="#F59222" d="M5.362,3.929C5.371,3.93,5.377,3.934,5.378,3.943C5.37,3.941,5.365,3.936,5.362,3.929z"/>
	<path fill="#F69D22" d="M25.66,2.944c0.018-0.056,0.043-0.11,0.068-0.163c0.012-0.026,0.022-0.053,0.033-0.079
		c0.011-0.027,0.011-0.027-0.022-0.042c-0.002-0.001-0.004-0.002-0.006-0.002c-0.035-0.013-0.043-0.041-0.043-0.074
		c-0.002-0.149-0.001-0.298,0-0.447c0-0.045,0.019-0.064,0.068-0.063c0.135,0.002,0.269,0.004,0.404-0.001
		c0.02-0.001,0.041-0.002,0.061-0.002c0.529,0,1.059-0.001,1.588-0.001c0.02,0,0.041,0.002,0.061,0.003
		c-0.017,0.038-0.051,0.027-0.08,0.028c-0.137,0.002-0.275,0-0.412,0.001c-0.085,0-0.088,0.003-0.088,0.085c0,0.353,0,0.705,0,1.058
		c0,0.037,0.002,0.074,0.019,0.108c-0.022,0.035-0.054,0.061-0.082,0.09c-0.216,0.221-0.433,0.442-0.649,0.662
		c-0.209,0.213-0.419,0.426-0.629,0.639c-0.069,0.07-0.137,0.141-0.206,0.211c-0.011,0.012-0.024,0.022-0.036,0.032
		c-0.039,0.002-0.047-0.026-0.053-0.055c-0.005-0.026-0.003-0.053-0.003-0.08c0-0.597,0-1.193,0-1.79
		C25.651,3.021,25.658,2.983,25.66,2.944z"/>
	<path fill="#F37723" d="M25.66,2.944c0.015,0.022,0.012,0.047,0.012,0.072c0,0.205,0,0.41,0,0.615c0,0.416,0,0.832,0,1.248
		c0,0.014,0.001,0.029,0,0.043c-0.002,0.03,0.01,0.051,0.037,0.065c-0.032,0.046-0.075,0.081-0.113,0.121
		c-0.309,0.315-0.618,0.629-0.927,0.944c-0.208,0.212-0.417,0.425-0.625,0.637c-0.007,0.007-0.015,0.014-0.022,0.02
		c-0.012-0.008-0.006-0.014-0.003-0.021c0.054-0.122,0.107-0.244,0.161-0.366c0.051-0.116,0.102-0.233,0.153-0.349
		c0.044-0.099,0.087-0.199,0.131-0.298c0.078-0.178,0.156-0.356,0.234-0.535c0.048-0.109,0.094-0.218,0.142-0.327
		c0.052-0.12,0.106-0.24,0.158-0.36c0.048-0.109,0.095-0.218,0.143-0.327c0.053-0.12,0.106-0.24,0.158-0.36
		c0.048-0.109,0.094-0.218,0.142-0.327c0.053-0.122,0.107-0.244,0.161-0.366c0.013-0.03,0.025-0.061,0.038-0.091
		C25.644,2.968,25.646,2.952,25.66,2.944z"/>
	<path fill="#FAD621" d="M27.311,3.351c-0.026-0.005-0.04-0.019-0.039-0.046c0-0.012,0-0.025,0-0.037c0-0.371,0-0.742,0-1.113
		c0-0.078-0.004-0.074,0.073-0.074c0.158,0,0.316,0,0.474-0.001c0.018,0,0.037,0.006,0.053-0.008
		c0.02-0.001,0.041-0.002,0.061-0.002c0.189,0,0.377,0,0.566,0c0.02,0,0.04-0.001,0.058,0.001c0.004,0.017-0.007,0.022-0.013,0.028
		C28.396,2.25,28.248,2.401,28.1,2.551c-0.218,0.222-0.437,0.445-0.655,0.667c-0.007,0.007-0.015,0.013-0.023,0.02
		c-0.006,0.003-0.011,0.007-0.014,0.014l0.001-0.001c-0.006,0.003-0.01,0.007-0.013,0.013l0.001-0.001
		c-0.006,0.003-0.01,0.007-0.013,0.013l0.001-0.001c-0.006,0.003-0.01,0.007-0.013,0.014l0.001-0.001
		c-0.006,0.003-0.011,0.007-0.013,0.014L27.36,3.3c-0.007,0.002-0.011,0.007-0.013,0.013l0.001-0.001
		c-0.007,0.002-0.011,0.007-0.014,0.013l0.001-0.001c-0.006,0.002-0.011,0.007-0.013,0.013l0.001-0.001
		C27.317,3.34,27.312,3.344,27.311,3.351L27.311,3.351z"/>
	<path fill="#F47923" d="M26.161,2.072c-0.016,0.013-0.035,0.008-0.053,0.008c-0.113,0.001-0.225,0-0.338,0.001
		c-0.061,0-0.061,0.001-0.061,0.061c0,0.148,0.001,0.295-0.001,0.443c0,0.028,0.007,0.052,0.026,0.073
		c-0.059-0.006-0.115-0.025-0.173-0.039c-0.335-0.081-0.67-0.163-1.005-0.245c-0.01-0.002-0.019-0.007-0.029-0.011
		c-0.038-0.086-0.021-0.175-0.012-0.263c0.003-0.03,0.033-0.024,0.055-0.025c0.153-0.001,0.306,0.003,0.458-0.002
		c0.018-0.001,0.037-0.002,0.055-0.003c0.341,0,0.682,0,1.023,0C26.125,2.07,26.143,2.071,26.161,2.072z"/>
	<path fill="#F05623" d="M25.028,2.073c-0.016,0.013-0.035,0.007-0.053,0.008c-0.129,0.001-0.258,0-0.387,0.001
		c-0.061,0-0.062,0.001-0.062,0.061c0,0.074,0,0.147,0.001,0.221c-0.019,0.003-0.036-0.005-0.054-0.01
		c-0.352-0.086-0.704-0.172-1.056-0.258c-0.019-0.005-0.04-0.007-0.062-0.025c0.021,0,0.036,0,0.051,0c0.522,0,1.045,0,1.567-0.001
		C24.992,2.07,25.01,2.072,25.028,2.073z"/>
	<path fill="#F69D22" d="M27.408,3.252c0.002-0.008,0.006-0.012,0.014-0.014C27.421,3.246,27.416,3.251,27.408,3.252z"/>
	<path fill="#F69D22" d="M27.396,3.264c0.002-0.007,0.006-0.012,0.013-0.013C27.408,3.259,27.403,3.263,27.396,3.264z"/>
	<path fill="#F69D22" d="M27.384,3.276c0.001-0.007,0.006-0.012,0.013-0.013C27.396,3.271,27.391,3.275,27.384,3.276z"/>
	<path fill="#F69D22" d="M27.371,3.289c0.001-0.007,0.006-0.012,0.013-0.014C27.383,3.283,27.379,3.288,27.371,3.289z"/>
	<path fill="#F69D22" d="M27.359,3.301c0.001-0.008,0.005-0.012,0.013-0.014C27.371,3.296,27.367,3.3,27.359,3.301z"/>
	<path fill="#F69D22" d="M27.347,3.314c0.001-0.008,0.006-0.012,0.013-0.013C27.359,3.308,27.355,3.313,27.347,3.314z"/>
	<path fill="#F69D22" d="M27.335,3.326c0.001-0.008,0.006-0.012,0.014-0.013C27.347,3.321,27.342,3.325,27.335,3.326z"/>
	<path fill="#F69D22" d="M27.322,3.338c0.001-0.008,0.006-0.012,0.013-0.013C27.335,3.333,27.33,3.337,27.322,3.338z"/>
	<path fill="#F69D22" d="M27.31,3.351c0.001-0.008,0.005-0.012,0.013-0.014C27.322,3.345,27.318,3.35,27.31,3.351z"/>
	<path fill="#F47D23" d="M22.164,3.13c0.097,0.023,0.195,0.047,0.292,0.07c0.137,0.034,0.274,0.068,0.411,0.102
		c0.012,0.003,0.023,0.008,0.035,0.011c0.038,0.025,0.031,0.064,0.031,0.1c0.001,0.225,0,0.45,0,0.676c0,0.348,0,0.696,0,1.044
		c0,0.029,0.002,0.058-0.005,0.086c-0.006,0.024-0.014,0.05-0.049,0.037c-0.031-0.033-0.052-0.073-0.077-0.111
		c-0.112-0.166-0.222-0.334-0.333-0.501c-0.108-0.162-0.216-0.323-0.324-0.485c-0.002-0.003-0.003-0.007-0.004-0.011
		c0.014-0.044,0.015-0.089,0.015-0.134c0-0.27,0-0.541,0-0.811C22.155,3.178,22.151,3.153,22.164,3.13z"/>
	<path fill="#F04A23" d="M22.879,5.256c0.019-0.001,0.031-0.011,0.033-0.03c0.002-0.014,0.001-0.029,0.001-0.043
		c0-0.599,0-1.199,0-1.798c0-0.024,0.003-0.049-0.011-0.072c0.088,0.021,0.175,0.041,0.263,0.062
		c0.191,0.047,0.381,0.095,0.572,0.143c0.02,0.005,0.04,0.008,0.06,0.022c-0.276,0.612-0.551,1.223-0.829,1.84
		C22.925,5.345,22.904,5.299,22.879,5.256z"/>
	<path fill="#F7AF22" d="M22.164,3.13c0.012,0.018,0.011,0.039,0.011,0.059c0,0.295,0,0.59,0,0.886c0,0.031-0.005,0.057-0.035,0.072
		c-0.003-0.002-0.004-0.004-0.004-0.008c-0.002-0.006-0.007-0.011-0.01-0.016l0-0.001c-0.008-0.006-0.006-0.018-0.014-0.023
		l0.001,0.001c-0.003-0.004-0.007-0.009-0.01-0.014c-0.005-0.007-0.01-0.014-0.016-0.021c-0.002-0.006-0.006-0.011-0.011-0.016l0,0
		c-0.004-0.003-0.007-0.007-0.009-0.012c-0.004-0.002-0.005-0.006-0.005-0.01c-0.002-0.005-0.007-0.01-0.01-0.015
		c-0.038-0.041-0.064-0.09-0.094-0.136c-0.112-0.166-0.222-0.334-0.333-0.501c-0.09-0.135-0.18-0.269-0.269-0.403
		c-0.009-0.013-0.021-0.026-0.024-0.046c0.018-0.006,0.035,0.003,0.051,0.007c0.153,0.038,0.306,0.076,0.458,0.115
		C21.95,3.075,22.057,3.103,22.164,3.13z"/>
	<path fill="#F47D23" d="M22.112,4.1c0.011,0.004,0.014,0.013,0.014,0.023C22.117,4.118,22.112,4.11,22.112,4.1z"/>
	<path fill="#F47D23" d="M22.053,4.013c0.006,0.003,0.009,0.008,0.01,0.015C22.057,4.025,22.053,4.02,22.053,4.013z"/>
	<path fill="#F47D23" d="M22.068,4.038c0.003,0.004,0.006,0.008,0.009,0.012C22.071,4.048,22.068,4.044,22.068,4.038z"/>
	<path fill="#F47D23" d="M22.077,4.05c0.007,0.003,0.01,0.009,0.011,0.016C22.08,4.063,22.077,4.057,22.077,4.05z"/>
	<path fill="#F47D23" d="M22.103,4.087c0.006,0.003,0.009,0.007,0.01,0.014C22.106,4.098,22.103,4.094,22.103,4.087z"/>
	<path fill="#F47D23" d="M22.126,4.123c0.007,0.003,0.01,0.009,0.01,0.016C22.13,4.136,22.126,4.131,22.126,4.123z"/>
	<path fill="#F69F22" d="M9.591,4.775C9.507,4.902,9.424,5.028,9.341,5.154c-0.048,0.073-0.097,0.147-0.145,0.22
		C9.188,5.385,9.184,5.401,9.165,5.403C9.162,5.397,9.157,5.39,9.154,5.383c-0.063-0.14-0.126-0.279-0.189-0.419
		C8.959,4.951,8.95,4.939,8.952,4.924c0.011-0.036,0.004-0.073,0.004-0.11c0.001-0.43,0-0.859,0.001-1.289
		c0-0.039-0.004-0.078-0.005-0.116c0.003-0.002,0.006-0.006,0.01-0.007c0.189-0.047,0.378-0.093,0.568-0.14
		C9.537,3.261,9.545,3.261,9.553,3.26c0.034-0.009,0.037,0.016,0.042,0.038c0.005,0.024,0.003,0.049,0.004,0.073
		c0,0.44,0,0.88,0,1.32C9.599,4.719,9.603,4.748,9.591,4.775z"/>
	<path fill="#F36D23" d="M9.591,4.775C9.58,4.744,9.579,4.712,9.579,4.679c0-0.447,0-0.893,0-1.34c0-0.018,0-0.037-0.001-0.055
		C9.577,3.269,9.565,3.264,9.553,3.26c0.015-0.014,0.034-0.012,0.052-0.017c0.184-0.046,0.369-0.092,0.553-0.137
		c0.012-0.003,0.024-0.003,0.036-0.005c0.044-0.01,0.04,0.026,0.042,0.049c0.006,0.049,0.002,0.098,0.002,0.147
		c0,0.139,0,0.278,0,0.417c0,0.039-0.004,0.077-0.021,0.113c-0.003,0.007-0.006,0.015-0.01,0.022
		c-0.064,0.097-0.128,0.194-0.193,0.291c-0.07,0.105-0.141,0.21-0.21,0.316C9.737,4.56,9.668,4.664,9.6,4.768
		C9.598,4.771,9.594,4.773,9.591,4.775z"/>
	<path fill="#F9BF22" d="M8.951,3.409c0.013,0.003,0.023,0.009,0.024,0.024c0,0.014,0.001,0.029,0.001,0.043
		c0,0.461,0,0.921,0,1.382c0,0.016,0,0.033-0.002,0.049C8.973,4.918,8.962,4.922,8.952,4.924C8.908,4.845,8.875,4.761,8.838,4.68
		c-0.07-0.154-0.139-0.31-0.209-0.464C8.541,4.02,8.452,3.825,8.363,3.63C8.354,3.61,8.345,3.589,8.338,3.57
		c0.005-0.017,0.019-0.018,0.03-0.02c0.184-0.046,0.369-0.092,0.554-0.137C8.931,3.41,8.941,3.41,8.951,3.409z"/>
	<path fill="#F04923" d="M10.219,3.828c0-0.222,0-0.444,0-0.667c0-0.012,0-0.024-0.001-0.037c-0.001-0.015-0.011-0.02-0.024-0.023
		c0.045-0.02,0.094-0.027,0.142-0.039c0.137-0.034,0.274-0.068,0.411-0.102c0.015-0.004,0.03-0.01,0.05-0.003
		c-0.017,0.028-0.032,0.055-0.049,0.08c-0.15,0.225-0.3,0.45-0.45,0.675C10.274,3.752,10.251,3.793,10.219,3.828z"/>
	<path d="M14.677,6.547c-0.017,0-0.034,0-0.05,0c-0.018-0.009-0.038-0.002-0.056-0.005c-0.046-0.008-0.093-0.014-0.138-0.03
		c-0.122-0.043-0.206-0.123-0.244-0.248c-0.041-0.135-0.034-0.268,0.026-0.395c0.053-0.112,0.144-0.181,0.261-0.218
		c0.055-0.017,0.111-0.027,0.169-0.026c0.027,0,0.053,0,0.08,0c0.014,0.004,0.027,0.009,0.041,0.012
		c0.123,0.025,0.218,0.092,0.289,0.193c0.056,0.08,0.093,0.168,0.116,0.262c0.025,0.104,0.041,0.209,0.045,0.316
		c0,0.012,0,0.025,0,0.037c0,0.017-0.007,0.027-0.024,0.03C15.128,6.487,15.064,6.501,15,6.512
		c-0.095,0.016-0.191,0.027-0.287,0.029C14.7,6.541,14.689,6.545,14.677,6.547z"/>
	<path d="M17.421,6.967c0.076,0.001,0.152,0.004,0.227,0.002c0.051-0.002,0.096,0.011,0.141,0.035
		c0.155,0.08,0.221,0.229,0.205,0.386c-0.004,0.043-0.014,0.085-0.028,0.126c-0.029,0.088-0.087,0.151-0.167,0.196
		c-0.081,0.045-0.17,0.059-0.26,0.067c-0.014,0.001-0.028,0.003-0.043,0.004c-0.053-0.004-0.106-0.003-0.159-0.012
		c-0.047-0.008-0.092-0.019-0.136-0.037c-0.114-0.048-0.187-0.13-0.214-0.251c-0.015-0.066-0.02-0.133-0.012-0.201
		c0.012-0.108,0.068-0.187,0.154-0.247c0.017-0.012,0.035-0.021,0.053-0.031c0.042-0.024,0.086-0.037,0.135-0.033
		C17.352,6.97,17.386,6.967,17.421,6.967z"/>
	<path d="M17.385,5.624c0.057,0,0.114-0.001,0.172,0.001c0.056,0.001,0.109,0.015,0.161,0.035c0.109,0.041,0.182,0.117,0.211,0.23
		c0.023,0.088,0.021,0.177-0.01,0.265c-0.035,0.097-0.103,0.165-0.185,0.222c-0.016,0.012-0.034,0.013-0.052,0.013
		c-0.07,0-0.139,0-0.209,0c-0.02,0-0.041,0.002-0.061,0.003c-0.043-0.001-0.086-0.002-0.129-0.003c-0.014,0-0.028-0.001-0.041-0.01
		c-0.052-0.036-0.1-0.077-0.139-0.129c-0.07-0.095-0.085-0.202-0.07-0.315c0.022-0.164,0.126-0.255,0.28-0.297
		C17.336,5.634,17.361,5.63,17.385,5.624z"/>
	<path fill="#F25C23" d="M14.57,6.542c0.019-0.003,0.038-0.003,0.056,0.005C14.607,6.549,14.588,6.555,14.57,6.542z"/>
</g>
</svg>
