<?xml version="1.0" encoding="utf-8"?>
<!-- Generator: Adobe Illustrator 24.3.0, SVG Export Plug-In . SVG Version: 6.00 Build 0)  -->
<svg version="1.1" id="Слой_1" xmlns="http://www.w3.org/2000/svg" xmlns:xlink="http://www.w3.org/1999/xlink" x="0px" y="0px"
	 width="32px" height="13px" viewBox="0 0 32 13" enable-background="new 0 0 32 13" xml:space="preserve">
<g>
	<path fill="#545454" d="M20.254,0c0.001,0.002,0.002,0.004,0.001,0.007c-0.014,0-0.028,0.001-0.041,0.001c-2.47,0-4.939,0-7.409,0
		c-0.016,0-0.033,0-0.049,0.001C12.755,0.006,12.754,0.003,12.754,0C15.254,0,17.754,0,20.254,0z"/>
</g>
<g>
	<path d="M24.2,6.496c0,0.005,0,0.01,0,0.015c-0.023,0.066-0.062,0.123-0.097,0.182c-0.13,0.22-0.255,0.442-0.386,0.661
		c-0.104,0.175-0.202,0.353-0.308,0.527c-0.11,0.18-0.212,0.365-0.319,0.547c-0.204,0.346-0.405,0.695-0.609,1.041
		c-0.126,0.213-0.246,0.429-0.376,0.641c-0.083,0.135-0.156,0.276-0.239,0.411c-0.118,0.193-0.226,0.392-0.343,0.585
		c-0.096,0.158-0.183,0.321-0.278,0.479c-0.104,0.172-0.199,0.349-0.304,0.521c-0.128,0.209-0.243,0.426-0.372,0.634
		c-0.046,0.074-0.086,0.15-0.13,0.225c-0.008,0.014-0.017,0.028-0.032,0.035c-2.532,0-5.064,0-7.596,0
		c-0.012-0.007-0.022-0.016-0.029-0.029c-0.169-0.299-0.345-0.593-0.518-0.89c-0.102-0.176-0.202-0.353-0.308-0.528
		c-0.1-0.164-0.191-0.334-0.291-0.498c-0.113-0.186-0.218-0.376-0.329-0.563c-0.206-0.347-0.407-0.697-0.611-1.045
		c-0.107-0.183-0.211-0.369-0.321-0.55c-0.104-0.172-0.2-0.349-0.305-0.521C9.996,8.208,9.901,8.035,9.8,7.866
		C9.592,7.514,9.387,7.161,9.181,6.808C9.13,6.72,9.079,6.632,9.026,6.545C9.008,6.516,9.007,6.492,9.025,6.462
		c0.108-0.186,0.219-0.37,0.326-0.556C9.482,5.678,9.613,5.45,9.748,5.225c0.126-0.212,0.245-0.427,0.374-0.637
		c0.086-0.14,0.162-0.287,0.248-0.427c0.119-0.194,0.227-0.395,0.345-0.589c0.093-0.152,0.177-0.31,0.27-0.463
		c0.126-0.207,0.242-0.42,0.368-0.628c0.084-0.138,0.16-0.282,0.244-0.421c0.121-0.197,0.231-0.401,0.351-0.598
		c0.093-0.153,0.178-0.313,0.271-0.466c0.118-0.193,0.225-0.393,0.343-0.585c0.073-0.118,0.139-0.239,0.208-0.359
		C12.782,0.031,12.789,0,12.825,0.004c2.521,0,5.043,0,7.564,0c0.025-0.005,0.036,0.013,0.046,0.031
		c0.042,0.072,0.081,0.145,0.125,0.215c0.126,0.204,0.24,0.415,0.365,0.621c0.091,0.15,0.174,0.306,0.265,0.456
		c0.121,0.2,0.233,0.405,0.355,0.605c0.092,0.15,0.174,0.306,0.265,0.456c0.132,0.218,0.254,0.442,0.387,0.66
		c0.082,0.135,0.157,0.275,0.239,0.411c0.13,0.216,0.255,0.436,0.383,0.654c0.182,0.31,0.362,0.621,0.544,0.931
		c0.124,0.213,0.246,0.427,0.374,0.638c0.084,0.139,0.161,0.281,0.244,0.42c0.063,0.106,0.125,0.212,0.187,0.319
		C24.181,6.445,24.192,6.47,24.2,6.496z"/>
	<path fill="#545454" d="M20.406,0c0.001,0.002,0.001,0.005,0.001,0.007c-0.011,0-0.023,0.001-0.034,0.001c-2.513,0-5.025,0-7.538,0
		c-0.009,0-0.018,0-0.026,0c-0.001-0.002,0-0.005,0.001-0.007C15.341,0,17.873,0,20.406,0z"/>
	<path fill="#0054E6" d="M19.241,11.06c-0.004,0.019-0.014,0.031-0.021,0.044c-0.005,0.009-0.013,0.011-0.023,0.01
		c-0.013,0-0.025,0-0.038,0c-1.724,0-3.447,0-5.171,0c-0.063,0-0.045-0.01-0.074,0.047c-0.033,0.066-0.063,0.134-0.098,0.2
		c-0.108,0.207-0.205,0.42-0.311,0.628c-0.034,0.067-0.069,0.134-0.101,0.202c-0.008,0.017-0.018,0.025-0.037,0.023
		c-0.031-0.002-0.067,0.008-0.093-0.005c-0.026-0.012-0.034-0.051-0.05-0.077c-0.117-0.19-0.223-0.387-0.339-0.579
		c-0.105-0.173-0.201-0.351-0.306-0.524c-0.107-0.176-0.205-0.357-0.312-0.534c-0.102-0.168-0.195-0.34-0.296-0.508
		c-0.109-0.181-0.21-0.366-0.32-0.547c-0.105-0.174-0.203-0.353-0.308-0.527c-0.106-0.175-0.204-0.355-0.31-0.53
		c-0.106-0.175-0.203-0.355-0.31-0.53c-0.105-0.172-0.2-0.349-0.304-0.521c-0.105-0.173-0.202-0.351-0.306-0.524
		c-0.056-0.094-0.11-0.189-0.167-0.282C9.933,6.508,9.935,6.493,9.947,6.474c0.043-0.072,0.083-0.147,0.127-0.218
		c0.105-0.171,0.2-0.349,0.304-0.52c0.105-0.173,0.201-0.351,0.306-0.524c0.109-0.18,0.209-0.364,0.317-0.543
		c0.106-0.174,0.202-0.353,0.308-0.527c0.107-0.176,0.205-0.358,0.312-0.534c0.104-0.171,0.199-0.347,0.302-0.517
		c0.108-0.177,0.206-0.36,0.314-0.537c0.104-0.171,0.199-0.347,0.302-0.518c0.107-0.176,0.205-0.357,0.312-0.534
		c0.107-0.176,0.206-0.357,0.312-0.534c0.031-0.052,0.063-0.103,0.092-0.155c0.01-0.018,0.022-0.025,0.043-0.023
		c0.01,0.001,0.02,0,0.03,0c2.186,0,4.373,0,6.559,0c0.008,0,0.015,0.001,0.023,0c0.026-0.004,0.04,0.008,0.053,0.03
		c0.106,0.171,0.2,0.349,0.304,0.521c0.105,0.173,0.201,0.351,0.306,0.524c0.107,0.176,0.205,0.357,0.312,0.534
		c0.107,0.176,0.205,0.358,0.312,0.534c0.108,0.177,0.206,0.36,0.314,0.537c0.106,0.174,0.202,0.353,0.308,0.527
		c0.106,0.174,0.202,0.353,0.308,0.527c0.104,0.171,0.199,0.347,0.302,0.517c0.107,0.176,0.205,0.357,0.312,0.534
		c0.107,0.176,0.205,0.357,0.312,0.534c0.071,0.117,0.137,0.237,0.208,0.354c0.017,0.027,0.02,0.048,0.002,0.078
		c-0.061,0.101-0.117,0.205-0.178,0.306c-0.107,0.175-0.204,0.355-0.31,0.53c-0.102,0.168-0.195,0.34-0.296,0.508
		c-0.107,0.177-0.207,0.359-0.314,0.537c-0.107,0.176-0.205,0.358-0.312,0.534c-0.107,0.176-0.207,0.356-0.311,0.534
		C21.541,9.489,21.54,9.49,21.54,9.492c-0.031,0.052-0.031,0.052-0.086,0.027c-0.281-0.126-0.562-0.251-0.843-0.376
		c-0.056-0.025-0.112-0.049-0.169-0.074c0.004-0.021,0.015-0.035,0.024-0.05c0.133-0.229,0.265-0.459,0.401-0.687
		c0.113-0.19,0.22-0.384,0.334-0.573c0.103-0.171,0.199-0.347,0.302-0.517c0.108-0.177,0.207-0.359,0.314-0.537
		c0.035-0.058,0.068-0.117,0.104-0.175c0.014-0.022,0.011-0.037-0.001-0.058c-0.088-0.149-0.176-0.299-0.263-0.448
		c-0.035-0.06-0.068-0.121-0.104-0.179c-0.112-0.182-0.213-0.37-0.323-0.553c-0.103-0.17-0.198-0.344-0.3-0.514
		c-0.11-0.182-0.211-0.368-0.321-0.55c-0.104-0.171-0.199-0.347-0.302-0.517c-0.108-0.178-0.207-0.362-0.316-0.54
		c-0.101-0.167-0.194-0.338-0.295-0.504c-0.108-0.178-0.209-0.361-0.316-0.54c-0.032-0.053-0.064-0.105-0.094-0.159
		c-0.009-0.016-0.02-0.025-0.039-0.022c-0.01,0.001-0.02,0-0.03,0c-1.741,0-3.483,0-5.224,0c-0.008,0-0.015,0.001-0.023,0
		c-0.021-0.003-0.031,0.008-0.041,0.025c-0.036,0.065-0.072,0.129-0.111,0.193c-0.108,0.176-0.205,0.357-0.312,0.534
		c-0.102,0.169-0.196,0.342-0.298,0.511c-0.109,0.181-0.21,0.366-0.319,0.547c-0.105,0.174-0.203,0.353-0.308,0.527
		c-0.108,0.177-0.206,0.36-0.314,0.537c-0.106,0.174-0.202,0.353-0.308,0.527c-0.107,0.176-0.205,0.358-0.312,0.534
		c-0.102,0.168-0.197,0.339-0.296,0.508c-0.018,0.031-0.037,0.063-0.058,0.093c-0.012,0.017-0.011,0.031,0,0.048
		c0.045,0.069,0.086,0.141,0.128,0.213c0.061,0.106,0.12,0.212,0.183,0.317c0.112,0.184,0.214,0.373,0.325,0.556
		c0.103,0.171,0.199,0.347,0.302,0.517c0.109,0.179,0.209,0.364,0.318,0.543c0.104,0.171,0.199,0.347,0.302,0.517
		c0.109,0.179,0.209,0.364,0.318,0.543c0.104,0.171,0.199,0.347,0.302,0.517c0.105,0.173,0.202,0.351,0.306,0.524
		c0.052,0.087,0.103,0.175,0.155,0.263c0.01,0.016,0.02,0.024,0.039,0.022c0.01-0.001,0.02,0,0.03,0c1.73,0,3.46,0,5.19,0
		C19.206,11.06,19.222,11.06,19.241,11.06z"/>
	<path fill="#0054E7" d="M15.422,6.55C15.4,6.532,15.381,6.515,15.362,6.5c-0.124-0.1-0.23-0.216-0.315-0.352
		c-0.065-0.104-0.103-0.218-0.124-0.337c-0.029-0.162-0.036-0.325-0.022-0.488c0.013-0.149,0.05-0.293,0.122-0.425
		C15.1,4.754,15.2,4.627,15.328,4.524c0.184-0.147,0.394-0.245,0.621-0.307c0.272-0.075,0.549-0.095,0.829-0.081
		c0.256,0.013,0.506,0.062,0.745,0.158c0.09,0.036,0.175,0.082,0.258,0.133c0.127,0.077,0.235,0.176,0.33,0.29
		c0.12,0.143,0.191,0.309,0.228,0.49c0.029,0.144,0.026,0.29,0.018,0.436c-0.005,0.097-0.017,0.193-0.041,0.287
		c-0.033,0.128-0.091,0.242-0.178,0.341c-0.075,0.085-0.158,0.162-0.245,0.234c-0.017,0.014-0.034,0.029-0.053,0.044
		c0.011,0.014,0.025,0.021,0.037,0.029c0.126,0.086,0.242,0.185,0.334,0.307c0.11,0.147,0.174,0.313,0.203,0.493
		c0.016,0.098,0.026,0.197,0.023,0.296c-0.009,0.252-0.057,0.494-0.188,0.714c-0.11,0.185-0.261,0.33-0.444,0.442
		c-0.079,0.048-0.16,0.09-0.245,0.124c-0.151,0.06-0.307,0.102-0.468,0.128c-0.189,0.03-0.38,0.042-0.571,0.036
		c-0.228-0.006-0.453-0.03-0.674-0.089c-0.183-0.049-0.357-0.12-0.515-0.227c-0.107-0.072-0.197-0.163-0.276-0.265
		c-0.12-0.155-0.184-0.333-0.218-0.523c-0.023-0.129-0.028-0.26-0.021-0.391c0.013-0.227,0.071-0.442,0.195-0.634
		c0.093-0.146,0.206-0.276,0.343-0.383c0.018-0.014,0.035-0.029,0.052-0.043C15.411,6.561,15.414,6.557,15.422,6.55z"/>
	<path fill="#666666" d="M16.712,12.184c-1.023,0-2.047,0-3.07,0c-0.056,0-0.058,0.005-0.03-0.051
		c0.051-0.104,0.1-0.209,0.153-0.311c0.087-0.17,0.17-0.342,0.252-0.514c0.013-0.028,0.029-0.037,0.06-0.037
		c1.724,0.001,3.447,0.001,5.171,0c0.066,0,0.05,0.01,0.087-0.05c0.11-0.18,0.21-0.366,0.319-0.547
		c0.105-0.173,0.201-0.351,0.306-0.524c0.108-0.178,0.208-0.362,0.316-0.54c0.066-0.108,0.127-0.219,0.192-0.328
		c0.014-0.024,0.014-0.024,0.04-0.013c0.227,0.101,0.454,0.202,0.681,0.303c0.034,0.015,0.069,0.029,0.104,0.045
		c0.031,0.014,0.031,0.015,0.014,0.043c-0.047,0.08-0.095,0.16-0.142,0.24c-0.081,0.139-0.159,0.28-0.242,0.417
		c-0.107,0.177-0.206,0.36-0.314,0.537c-0.106,0.174-0.202,0.353-0.308,0.527c-0.106,0.175-0.204,0.355-0.31,0.53
		c-0.048,0.078-0.094,0.157-0.139,0.238c-0.014,0.025-0.03,0.034-0.059,0.034c-0.231-0.001-0.463-0.001-0.694-0.001
		C18.304,12.184,17.508,12.184,16.712,12.184z"/>
	<path d="M16.629,7.023c0.095,0,0.191,0.001,0.286,0c0.027,0,0.052,0.005,0.076,0.016c0.09,0.039,0.17,0.094,0.234,0.167
		c0.081,0.093,0.116,0.205,0.122,0.326c0.005,0.106-0.007,0.211-0.044,0.311C17.245,8,17.13,8.098,16.977,8.156
		c-0.077,0.03-0.157,0.045-0.239,0.051c-0.128,0.009-0.256,0.009-0.382-0.021c-0.102-0.024-0.197-0.061-0.274-0.134
		c-0.1-0.094-0.155-0.211-0.172-0.347c-0.01-0.08-0.012-0.16-0.002-0.24c0.017-0.13,0.082-0.233,0.178-0.318
		c0.061-0.053,0.132-0.091,0.208-0.12c0.014-0.005,0.027-0.005,0.041-0.005C16.433,7.023,16.531,7.023,16.629,7.023z"/>
	<path d="M16.63,6.173c-0.092,0-0.183-0.001-0.275,0.001c-0.031,0.001-0.058-0.006-0.084-0.024c-0.12-0.087-0.215-0.193-0.258-0.338
		c-0.041-0.141-0.042-0.283,0.007-0.422c0.053-0.153,0.163-0.25,0.314-0.302c0.123-0.043,0.25-0.052,0.379-0.043
		c0.058,0.004,0.115,0.013,0.171,0.029c0.125,0.034,0.228,0.1,0.303,0.209c0.054,0.077,0.077,0.163,0.086,0.254
		c0.009,0.097,0.003,0.193-0.028,0.287c-0.038,0.114-0.111,0.204-0.201,0.282c-0.081,0.07-0.081,0.07-0.188,0.07
		C16.78,6.173,16.705,6.173,16.63,6.173z"/>
</g>
</svg>
