<?xml version="1.0" encoding="utf-8"?>
<!-- Generator: Adobe Illustrator 24.3.0, SVG Export Plug-In . SVG Version: 6.00 Build 0)  -->
<svg version="1.1" id="Слой_1" xmlns="http://www.w3.org/2000/svg" xmlns:xlink="http://www.w3.org/1999/xlink" x="0px" y="0px"
	 width="32px" height="13px" viewBox="0 0 32 13" enable-background="new 0 0 32 13" xml:space="preserve">
<g>
	<path d="M20.752,13.04c-2.891,0-5.781,0-8.672,0c-0.058-0.048-0.085-0.118-0.125-0.179c-0.362-0.54-0.724-1.081-1.083-1.623
		C10.236,10.278,9.595,9.32,8.958,8.36C8.575,7.782,8.191,7.206,7.807,6.628C7.735,6.52,7.735,6.519,7.806,6.414
		c0.336-0.497,0.665-0.999,0.997-1.498c0.38-0.571,0.762-1.14,1.139-1.713c0.503-0.762,1.01-1.52,1.515-2.28
		c0.187-0.281,0.379-0.559,0.559-0.845c0.023-0.036,0.045-0.076,0.098-0.07c2.868,0,5.735,0,8.602,0
		c0.046-0.007,0.074,0.017,0.099,0.054c0.079,0.117,0.153,0.237,0.231,0.355c0.448,0.673,0.9,1.345,1.346,2.02
		c0.534,0.807,1.073,1.611,1.608,2.418c0.345,0.521,0.69,1.042,1.037,1.562c0.069,0.103,0.069,0.105,0.001,0.207
		c-0.312,0.468-0.626,0.934-0.935,1.403c-0.53,0.807-1.072,1.606-1.604,2.412c-0.515,0.781-1.036,1.557-1.554,2.336
		c-0.043,0.065-0.082,0.133-0.126,0.198C20.802,12.999,20.783,13.025,20.752,13.04z"/>
	<path d="M29,6.732c-0.183,0.324-0.366,0.648-0.55,0.972c-0.346,0.608-0.692,1.216-1.037,1.824c-0.32,0.562-0.639,1.125-0.958,1.687
		c-0.005,0.009-0.012,0.017-0.016,0.026c-0.013,0.037-0.039,0.045-0.076,0.047c-0.252,0.017-0.503,0.036-0.754,0.054
		c-0.181,0.013-0.362,0.024-0.543,0.036c-0.174,0.012-0.347,0.025-0.52,0.038c-0.075,0.006-0.151,0.011-0.226,0.016
		c-0.156,0.011-0.312,0.022-0.468,0.033c-0.015,0.001-0.03,0-0.045,0c-0.005-0.024,0.01-0.04,0.02-0.057
		c0.181-0.334,0.362-0.668,0.543-1.002c0.449-0.827,0.898-1.654,1.347-2.481c0.214-0.394,0.428-0.787,0.642-1.18
		c0.014-0.026,0.036-0.053,0.039-0.081c0.004-0.032-0.025-0.058-0.041-0.087c-0.295-0.519-0.589-1.037-0.884-1.555
		c-0.24-0.422-0.481-0.844-0.722-1.266c-0.309-0.542-0.618-1.084-0.927-1.627c-0.009-0.015-0.02-0.029-0.015-0.052
		c0.011,0,0.023,0,0.035,0c0.449,0.014,0.897,0.028,1.346,0.043c0.388,0.013,0.776,0.026,1.164,0.04c0.01,0,0.02,0.001,0.03,0.001
		c0.02-0.001,0.033,0.009,0.042,0.026c0.026,0.046,0.052,0.092,0.079,0.138c0.257,0.453,0.515,0.906,0.772,1.358
		c0.405,0.711,0.81,1.421,1.214,2.132c0.157,0.275,0.314,0.551,0.471,0.826C28.974,6.661,28.976,6.688,29,6.702
		C29,6.712,29,6.722,29,6.732z"/>
	<path fill="#383838" d="M12.084,0.016C12.083,0.011,12.082,0.005,12.08,0c2.891,0,5.781,0,8.672,0
		c0.003,0.004,0.003,0.009,0.002,0.014c-0.028,0-0.055,0.001-0.083,0.001c-2.827,0-5.654,0-8.481,0
		C12.155,0.015,12.12,0.016,12.084,0.016z"/>
	<path fill="#666666" d="M10.681,9.084c-0.03-0.01-0.038-0.037-0.052-0.057c-0.168-0.251-0.335-0.503-0.502-0.755
		C9.983,8.056,9.84,7.84,9.696,7.624C9.464,7.276,9.232,6.928,9.001,6.579C8.951,6.504,8.951,6.524,9,6.449
		c0.165-0.25,0.331-0.5,0.497-0.75c0.367-0.552,0.735-1.103,1.102-1.654c0.263-0.394,0.525-0.788,0.787-1.183
		c0.416-0.625,0.831-1.251,1.246-1.876c0.063-0.095,0.039-0.081,0.15-0.081c2.424,0,4.848,0,7.271,0c0.111,0,0.087-0.01,0.145,0.077
		c0.458,0.688,0.916,1.376,1.373,2.064c0.51,0.768,1.021,1.535,1.531,2.303c0.241,0.363,0.483,0.726,0.724,1.088
		c0.008,0.013,0.015,0.027,0.025,0.038c0.022,0.025,0.018,0.047,0,0.074c-0.114,0.169-0.225,0.34-0.338,0.51
		c-0.305,0.459-0.611,0.919-0.917,1.378c-0.261,0.392-0.521,0.785-0.782,1.177c-0.388,0.583-0.776,1.166-1.164,1.749
		c-0.152,0.229-0.303,0.458-0.455,0.686c-0.053,0.079-0.035,0.07-0.126,0.07c-2.373,0-4.747,0-7.12,0
		c-0.024,0-0.049,0.004-0.072-0.005c-0.005-0.02,0.006-0.032,0.014-0.044c0.161-0.264,0.323-0.529,0.485-0.793
		c0.005-0.009,0.011-0.017,0.015-0.026c0.016-0.033,0.043-0.046,0.079-0.042c0.02,0.002,0.04,0,0.06,0c1.972,0,3.945,0,5.917,0
		c0.115,0,0.086,0.015,0.15-0.08c0.157-0.234,0.313-0.469,0.469-0.704c0.392-0.59,0.783-1.179,1.175-1.769
		c0.195-0.294,0.39-0.588,0.585-0.881c0.262-0.394,0.525-0.788,0.787-1.183c0.059-0.089,0.061-0.068,0.002-0.157
		c-0.354-0.533-0.709-1.065-1.063-1.598c-0.389-0.585-0.778-1.171-1.167-1.756c-0.195-0.294-0.39-0.588-0.585-0.881
		c-0.075-0.113-0.153-0.225-0.226-0.339c-0.022-0.035-0.047-0.049-0.087-0.045c-0.015,0.002-0.03,0-0.045,0c-2.015,0-4.03,0-6.046,0
		c-0.116,0-0.083-0.019-0.15,0.08c-0.436,0.654-0.87,1.309-1.305,1.963c-0.261,0.392-0.522,0.784-0.783,1.176
		c-0.312,0.47-0.625,0.94-0.937,1.41c-0.05,0.075-0.048,0.06-0.001,0.132c0.18,0.273,0.361,0.546,0.543,0.819
		c0.206,0.31,0.413,0.62,0.62,0.931c0.007,0.01,0.013,0.022,0.02,0.032c0.013,0.018,0.008,0.032-0.007,0.046
		c-0.057,0.054-0.113,0.108-0.169,0.162c-0.027,0.026-0.056,0.051-0.083,0.077C11,8.783,10.854,8.923,10.708,9.062
		C10.699,9.07,10.689,9.077,10.681,9.084z"/>
	<path fill="#F21464" d="M20.207,5.038c0.05,0.068,0.079,0.145,0.11,0.222c0.076,0.184,0.127,0.376,0.16,0.573
		c0.001,0.007,0,0.015,0.001,0.023c-0.025,0.024-0.055,0.019-0.085,0.016c-0.34-0.028-0.68-0.053-1.02-0.083
		c-0.04-0.004-0.08-0.001-0.12,0.01c-0.046,0.006-0.044-0.032-0.052-0.059c-0.026-0.092-0.056-0.183-0.1-0.269
		c-0.124-0.245-0.328-0.36-0.597-0.366C18.41,5.101,18.317,5.1,18.225,5.119c-0.233,0.048-0.384,0.19-0.479,0.399
		c-0.037,0.08-0.062,0.165-0.085,0.25c-0.007,0.027-0.008,0.064-0.053,0.059c-0.093-0.04-0.193-0.031-0.29-0.037
		c-0.293-0.02-0.584-0.056-0.878-0.065c-0.01,0-0.02-0.003-0.029-0.008c0.009-0.078,0.032-0.152,0.054-0.227
		c0.064-0.219,0.154-0.426,0.286-0.613c0.024-0.035,0.046-0.072,0.08-0.099c0.092-0.036,0.185-0.006,0.276,0
		c0.231,0.016,0.462,0.035,0.693,0.055c0.216,0.018,0.432,0.035,0.648,0.052c0.218,0.018,0.437,0.035,0.655,0.053
		c0.289,0.024,0.578,0.043,0.866,0.071C20.048,5.018,20.13,5.004,20.207,5.038z"/>
	<path fill="#FD02ED" d="M20.025,8.547c-0.094,0.121-0.212,0.214-0.341,0.294c-0.173,0.108-0.361,0.177-0.558,0.221
		c-0.264,0.059-0.533,0.076-0.803,0.068c-0.174-0.005-0.347-0.019-0.518-0.053c-0.262-0.052-0.508-0.143-0.726-0.301
		c-0.169-0.123-0.304-0.278-0.412-0.456c-0.008-0.013-0.013-0.027-0.019-0.041c-0.008-0.072,0.047-0.069,0.089-0.067
		c0.133,0.009,0.266,0.019,0.399,0.031c0.291,0.025,0.582,0.046,0.873,0.071c0.286,0.024,0.572,0.046,0.858,0.069
		c0.223,0.018,0.447,0.037,0.67,0.052c0.133,0.009,0.266,0.023,0.399,0.033C19.984,8.47,20.031,8.483,20.025,8.547z"/>
	<path fill="#FB06CE" d="M20.025,8.547c-0.016-0.043-0.048-0.064-0.093-0.06c-0.093,0.008-0.184-0.024-0.278-0.016
		c-0.064-0.019-0.129-0.015-0.195-0.015c-0.079-0.03-0.166-0.001-0.246-0.028c-0.02-0.007-0.045-0.002-0.068-0.002
		c-0.04-0.001-0.08,0.003-0.119-0.011c-0.018-0.007-0.04-0.003-0.06-0.004c-0.048-0.001-0.095,0.004-0.142-0.013
		c-0.016-0.006-0.035-0.002-0.053-0.003c-0.043-0.001-0.085,0.002-0.127-0.012c-0.023-0.007-0.05-0.003-0.075-0.003
		c-0.04-0.001-0.08,0.002-0.119-0.012c-0.02-0.007-0.045-0.003-0.067-0.004c-0.038-0.001-0.075,0.002-0.112-0.011
		c-0.02-0.007-0.045-0.003-0.067-0.004c-0.045-0.001-0.09,0.003-0.134-0.012c-0.018-0.006-0.04-0.003-0.06-0.003
		c-0.04-0.001-0.08,0.003-0.119-0.012c-0.016-0.006-0.035-0.003-0.052-0.003c-0.05-0.001-0.1,0.004-0.149-0.013
		c-0.014-0.005-0.03-0.002-0.045-0.002c-0.045-0.001-0.09,0.003-0.135-0.012c-0.021-0.007-0.045-0.002-0.068-0.003
		c-0.043-0.001-0.085,0.003-0.127-0.012c-0.018-0.006-0.04-0.003-0.06-0.003c-0.04-0.001-0.08,0.003-0.119-0.012
		c-0.018-0.007-0.04-0.003-0.06-0.003c-0.048-0.001-0.095,0.004-0.142-0.013c-0.014-0.005-0.03-0.002-0.045-0.002
		c-0.045-0.001-0.09,0.003-0.134-0.012c-0.026-0.009-0.055-0.006-0.08,0.009c-0.015,0.009-0.021,0.021-0.023,0.036
		c-0.055-0.078-0.089-0.166-0.123-0.254c-0.032-0.084-0.057-0.17-0.084-0.255c-0.004-0.012-0.003-0.025-0.004-0.037
		c-0.011-0.014-0.002-0.033-0.012-0.047c-0.004-0.004-0.005-0.009-0.003-0.014c-0.012-0.013-0.002-0.033-0.012-0.047
		c-0.001-0.009-0.002-0.019-0.003-0.028c-0.01-0.014-0.002-0.033-0.011-0.048c-0.002-0.008-0.003-0.017-0.005-0.025
		C16.38,7.424,16.4,7.399,16.5,7.407c0.211,0.016,0.421,0.034,0.632,0.05c0.1,0.008,0.2,0.019,0.301,0.024
		c0.065,0.003,0.131,0.007,0.192,0.035c0.011,0.007,0.019,0.016,0.023,0.028c0.006,0.017,0.006,0.036,0.011,0.053
		c0.002,0.006,0.003,0.012,0.005,0.019c0.003,0.012,0.006,0.024,0.01,0.035c0.002,0.005,0.004,0.011,0.006,0.017
		c0.003,0.011,0.007,0.023,0.012,0.034c0.003,0.006,0.005,0.012,0.007,0.017c0.005,0.012,0.013,0.024,0.02,0.035
		c0.013,0.019,0.023,0.039,0.033,0.059c0.124,0.254,0.337,0.359,0.61,0.367c0.185,0.005,0.368,0,0.533-0.098
		c0.006-0.003,0.012-0.006,0.019-0.008c0.003-0.001,0.006-0.003,0.009-0.004c0.005-0.003,0.011-0.006,0.016-0.009
		c0.005-0.003,0.01-0.006,0.015-0.008c0.005-0.003,0.01-0.005,0.014-0.008c0.002-0.002,0.004-0.003,0.007-0.004
		c0.004-0.003,0.008-0.007,0.012-0.01c0.002-0.002,0.004-0.003,0.006-0.005c0.003-0.004,0.007-0.007,0.011-0.011
		c0.002-0.002,0.004-0.003,0.005-0.005c0.003-0.004,0.007-0.007,0.011-0.011c0,0,0.005-0.005,0.005-0.005
		c0.003-0.004,0.007-0.007,0.01-0.011c0,0,0.005-0.006,0.004-0.006c0.002-0.004,0.005-0.009,0.007-0.013
		c0.002-0.005,0.005-0.009,0.008-0.013c0.003-0.004,0.006-0.009,0.01-0.013c0.002-0.002,0.003-0.004,0.005-0.007
		c0.003-0.005,0.006-0.01,0.009-0.015c0.003-0.006,0.006-0.011,0.01-0.016c0.004-0.006,0.007-0.011,0.012-0.017
		c0.002-0.003,0.004-0.006,0.007-0.009c0.005-0.006,0.011-0.011,0.018-0.015c0.008-0.003,0.016-0.004,0.025-0.005
		c0.364,0.02,0.726,0.058,1.089,0.082c0.042,0.003,0.087,0.006,0.11,0.052c-0.001,0.005-0.003,0.01-0.004,0.015
		c-0.005,0.007-0.011,0.013-0.011,0.022l0.001,0.005l-0.004,0.003c-0.009,0.01-0.007,0.024-0.013,0.035
		c0.002,0.005,0.001,0.008-0.003,0.011C20.306,8.085,20.301,8.091,20.3,8.1c0.002,0.004,0.001,0.007-0.003,0.009
		c-0.008,0.009-0.006,0.022-0.013,0.031l0-0.001c-0.01,0.007-0.008,0.022-0.016,0.031l0,0c-0.01,0.009-0.008,0.023-0.014,0.034
		c0.001,0.006-0.001,0.01-0.006,0.012c-0.003,0.006-0.006,0.011-0.01,0.016l0-0.001c-0.01,0.008-0.008,0.022-0.015,0.031l0-0.001
		c-0.008,0.005-0.014,0.012-0.014,0.022l0.001,0.005L20.206,8.29c-0.006,0.006-0.012,0.013-0.012,0.022
		c0.001,0.005-0.001,0.007-0.005,0.009c-0.004,0.005-0.007,0.011-0.011,0.016l0.001-0.001c-0.011,0.007-0.008,0.022-0.017,0.029l0,0
		c-0.005,0.006-0.011,0.012-0.013,0.019C20.116,8.446,20.075,8.5,20.025,8.547z"/>
	<path fill="#F01845" d="M20.207,5.038c-0.016,0.007-0.032,0.019-0.05,0.011c-0.034-0.015-0.069-0.01-0.104-0.011
		c-0.04-0.001-0.08,0.002-0.119-0.012c-0.02-0.007-0.045-0.003-0.067-0.004c-0.038-0.001-0.075,0.002-0.112-0.011
		c-0.02-0.007-0.045-0.003-0.067-0.004c-0.045-0.001-0.09,0.003-0.134-0.012c-0.018-0.006-0.04-0.003-0.06-0.003
		c-0.04-0.001-0.08,0.003-0.119-0.012c-0.016-0.006-0.035-0.003-0.052-0.003c-0.05-0.001-0.1,0.004-0.149-0.013
		c-0.014-0.005-0.03-0.002-0.045-0.002c-0.045-0.001-0.09,0.003-0.134-0.012c-0.021-0.007-0.045-0.002-0.068-0.003
		c-0.043-0.001-0.085,0.003-0.127-0.012c-0.018-0.006-0.04-0.003-0.06-0.003c-0.04-0.001-0.08,0.003-0.119-0.012
		c-0.018-0.007-0.04-0.003-0.06-0.004c-0.048-0.001-0.095,0.004-0.142-0.013c-0.016-0.006-0.035-0.002-0.052-0.003
		c-0.043-0.001-0.085,0.002-0.127-0.012c-0.023-0.007-0.05-0.003-0.075-0.003c-0.04-0.001-0.08,0.002-0.119-0.012
		c-0.02-0.007-0.045-0.003-0.067-0.004C17.937,4.87,17.9,4.873,17.863,4.86c-0.02-0.007-0.045-0.003-0.067-0.004
		c-0.045-0.001-0.09,0.004-0.134-0.013c-0.011-0.004-0.025-0.002-0.037-0.003c-0.05-0.001-0.1,0.002-0.15-0.013
		c-0.023-0.007-0.05-0.002-0.075-0.002c-0.038-0.001-0.075,0.003-0.112-0.011c-0.016-0.006-0.035-0.003-0.052-0.004
		C17.19,4.81,17.144,4.815,17.1,4.798c-0.013-0.005-0.03-0.002-0.045-0.003c-0.053-0.001-0.105,0.004-0.157-0.013
		c-0.021-0.007-0.045-0.002-0.068-0.003c0.063-0.092,0.146-0.166,0.233-0.234c0.21-0.165,0.45-0.265,0.709-0.324
		c0.232-0.053,0.468-0.067,0.706-0.065c0.205,0.002,0.407,0.02,0.607,0.064c0.251,0.056,0.485,0.152,0.692,0.308
		c0.177,0.134,0.317,0.301,0.426,0.494C20.206,5.027,20.206,5.033,20.207,5.038z"/>
	<path fill="#F4107F" d="M13.732,6.383c-0.001-0.028-0.003-0.055-0.003-0.083c0-0.27,0-0.539,0-0.809c0-0.025,0-0.05,0-0.074
		c-0.024-0.011-0.037,0.004-0.052,0.013c-0.28,0.165-0.56,0.33-0.84,0.495c-0.065,0.038-0.13,0.077-0.196,0.115
		c-0.059,0.034-0.055,0.047-0.099-0.019C12.503,5.96,12.461,5.9,12.42,5.84c-0.109-0.16-0.219-0.32-0.328-0.481
		c-0.011-0.017-0.023-0.033-0.034-0.05c-0.008-0.012-0.006-0.024,0.008-0.032c0.007-0.004,0.013-0.008,0.019-0.012
		c0.091-0.054,0.182-0.108,0.273-0.162c0.006-0.004,0.014-0.005,0.021-0.008c0.111-0.02,0.22,0.01,0.33,0.017
		c0.233,0.014,0.466,0.036,0.699,0.054c0.208,0.016,0.416,0.033,0.623,0.05c0.23,0.019,0.461,0.037,0.691,0.055
		c0.055,0.004,0.111,0.002,0.158,0.038c0.001,0.015,0.003,0.03,0.003,0.045c0,0.227,0.001,0.455,0.001,0.682
		c0,0.015-0.002,0.03-0.004,0.045c-0.034,0.029-0.076,0.025-0.115,0.021c-0.28-0.028-0.561-0.043-0.841-0.07
		c-0.152-0.015-0.156-0.012-0.157,0.142c0,0.048,0.003,0.096-0.002,0.143C13.764,6.342,13.77,6.375,13.732,6.383z"/>
	<path fill="#F21460" d="M14.881,5.31c-0.028-0.001-0.055,0.003-0.082-0.009c-0.007-0.003-0.015-0.005-0.022-0.005
		c-0.086,0.008-0.169-0.018-0.255-0.016c-0.038,0.001-0.075,0.002-0.112-0.011c-0.016-0.006-0.035-0.003-0.052-0.003
		c-0.045-0.001-0.09,0.002-0.134-0.013c-0.018-0.006-0.04-0.002-0.06-0.003c-0.045-0.001-0.09,0.004-0.134-0.012
		c-0.018-0.006-0.04-0.003-0.06-0.003c-0.04-0.001-0.08,0.003-0.119-0.012c-0.018-0.007-0.04-0.003-0.06-0.003
		c-0.048-0.001-0.095,0.004-0.142-0.013c-0.016-0.006-0.035-0.002-0.052-0.002c-0.043-0.001-0.085,0.001-0.127-0.012
		c-0.023-0.007-0.05-0.003-0.075-0.003c-0.04-0.001-0.08,0.003-0.119-0.012c-0.016-0.006-0.035-0.003-0.052-0.003
		c-0.05-0.001-0.1,0.004-0.149-0.013c-0.016-0.006-0.035-0.002-0.052-0.002c-0.043-0.001-0.085,0.002-0.127-0.012
		c-0.021-0.007-0.045-0.002-0.067-0.003c-0.042-0.001-0.086,0.005-0.127-0.012c-0.009-0.004-0.02-0.004-0.03-0.003
		c-0.076,0.009-0.149-0.016-0.225-0.017c-0.022,0-0.044-0.01-0.065-0.016c0.066-0.051,0.141-0.088,0.212-0.13
		c0.385-0.229,0.772-0.457,1.157-0.686c0.045-0.027,0.09-0.04,0.142-0.039c0.308,0.002,0.615,0.001,0.923,0.001
		c0.07,0,0.07-0.001,0.07,0.071c0,0.315,0,0.63,0,0.945C14.884,5.275,14.882,5.292,14.881,5.31z"/>
	<path fill="#F909BA" d="M11.306,10.273c-0.005-0.005-0.012-0.009-0.016-0.015c-0.101-0.152-0.201-0.304-0.302-0.456
		c-0.005-0.008-0.009-0.018-0.014-0.026c-0.003-0.007-0.008-0.013-0.013-0.019l0-0.001c-0.01-0.007-0.006-0.022-0.018-0.028
		l0.001,0.001c-0.002-0.007-0.009-0.012-0.013-0.018L10.931,9.71c-0.005-0.003-0.009-0.007-0.01-0.013
		c-0.005-0.002-0.007-0.006-0.007-0.011c-0.002-0.008-0.007-0.013-0.012-0.019c-0.004-0.001-0.005-0.004-0.004-0.008
		c-0.001-0.01-0.006-0.017-0.015-0.022l0.001,0.001c-0.002-0.007-0.009-0.012-0.012-0.018l-0.001-0.001
		c-0.005-0.003-0.009-0.007-0.011-0.013c-0.005-0.002-0.007-0.006-0.007-0.011c-0.003-0.007-0.008-0.013-0.012-0.02L10.84,9.573
		c-0.006-0.002-0.009-0.006-0.01-0.012c-0.005-0.002-0.007-0.006-0.007-0.012c-0.003-0.007-0.008-0.012-0.012-0.019
		c-0.009-0.007-0.017-0.015-0.019-0.027c-0.016-0.078,0.043-0.083,0.092-0.085c0.128-0.006,0.257-0.012,0.385,0
		c0.224,0.02,0.448,0.008,0.671,0.012c0.083,0.002,0.166,0,0.249,0c0.036,0,0.071,0.002,0.101,0.024
		c0.052,0.061,0.092,0.131,0.136,0.198c0.125,0.185,0.248,0.371,0.371,0.557c0.01,0.014,0.017,0.03,0.025,0.045
		c-0.017,0.019-0.04,0.018-0.063,0.017c-0.442-0.015-0.885-0.002-1.327-0.007C11.39,10.265,11.349,10.281,11.306,10.273z"/>
	<path fill="#FC05D9" d="M11.306,10.273c0.021-0.025,0.047-0.033,0.079-0.032c0.126,0.002,0.251,0.001,0.377,0.001
		c0.294,0,0.588,0,0.882,0c0.048,0,0.095-0.004,0.142,0.013c0.011,0.004,0.025,0.001,0.037,0c0.044,0.064,0.088,0.127,0.132,0.192
		c0.127,0.189,0.253,0.379,0.38,0.569c0.005,0.008,0.01,0.017,0.015,0.026c-0.017,0.019-0.047,0.009-0.059,0.031
		c-0.016-0.023-0.041-0.026-0.066-0.029c-0.045-0.006-0.09-0.007-0.136-0.007c-0.36,0-0.719,0-1.079,0
		c-0.063,0-0.126,0.002-0.188,0.011c-0.019-0.01-0.026-0.03-0.036-0.047c-0.154-0.231-0.308-0.463-0.461-0.695
		C11.317,10.296,11.312,10.284,11.306,10.273z"/>
	<path fill="#F60E90" d="M16.41,5.718c0.061-0.026,0.124-0.014,0.186-0.01c0.012,0.001,0.025,0.01,0.036,0.009
		c0.084-0.007,0.165,0.017,0.248,0.017c0.04,0,0.08-0.002,0.12,0.011c0.021,0.007,0.045,0.003,0.068,0.004
		c0.038,0.001,0.075-0.002,0.112,0.011c0.018,0.007,0.04,0.003,0.06,0.004c0.048,0.001,0.095-0.001,0.142,0.012
		c0.036,0.009,0.075,0.005,0.113,0.003c0.034-0.002,0.065,0.009,0.096,0.018c0.015,0.005,0.024,0.017,0.031,0.031
		c0.008,0.01,0.009,0.022,0.007,0.034c-0.006,0.024-0.003,0.049-0.003,0.074c-0.026,0.27-0.052,0.54-0.045,0.812
		c0.001,0.025-0.001,0.05-0.018,0.072c-0.007,0.002-0.016,0.009-0.02,0c-0.027-0.071-0.092-0.072-0.151-0.076
		c-0.279-0.02-0.557-0.046-0.836-0.065c-0.033-0.002-0.065-0.007-0.098-0.01c-0.091-0.01-0.102,0-0.104,0.089
		c-0.001,0.053,0.001,0.106-0.001,0.159c-0.001,0.027,0.001,0.056-0.024,0.076c-0.012-0.026-0.009-0.054-0.01-0.082
		c-0.005-0.231-0.006-0.462,0.015-0.693c0.011-0.128,0.029-0.255,0.047-0.381c0.002-0.015,0.008-0.029,0.013-0.043
		c0.01-0.014,0.002-0.033,0.011-0.048C16.408,5.736,16.409,5.727,16.41,5.718z"/>
	<path fill="#F51083" d="M19.237,5.797c0.004-0.019,0.012-0.034,0.034-0.033c0.06,0.002,0.121-0.009,0.18,0.011
		c0.018,0.006,0.04,0.003,0.06,0.003c0.048,0.001,0.096-0.004,0.142,0.013c0.014,0.005,0.03,0.002,0.045,0.002
		c0.045,0.001,0.09-0.003,0.135,0.012c0.021,0.007,0.045,0.003,0.068,0.003c0.043,0.001,0.085-0.003,0.127,0.012
		c0.018,0.006,0.04,0.003,0.06,0.003c0.04,0.001,0.081-0.004,0.119,0.012c0.009,0.004,0.02,0.003,0.03,0.003
		c0.063,0.001,0.126-0.004,0.187,0.014c0.016,0.005,0.035,0.001,0.053,0.001c0.001,0.009,0.003,0.017,0.004,0.026
		c0.011,0.02,0,0.044,0.011,0.065c0.038,0.226,0.049,0.453,0.051,0.682c0,0.01-0.002,0.02-0.004,0.03
		c-0.136,0.001-0.27-0.022-0.405-0.03c-0.241-0.015-0.482-0.039-0.723-0.055c-0.058-0.004-0.077,0.017-0.075,0.072
		c0.002,0.058,0.004,0.116-0.002,0.174c-0.002,0.025,0.008,0.065-0.04,0.064c-0.02-0.026-0.019-0.057-0.019-0.087
		c0.004-0.267-0.004-0.533-0.03-0.799c0-0.028,0.005-0.057-0.004-0.085C19.24,5.9,19.238,5.889,19.237,5.878
		c-0.001-0.017-0.004-0.034-0.007-0.051C19.228,5.816,19.229,5.806,19.237,5.797z"/>
	<path fill="#FC04DB" d="M14.879,9.031c-0.003,0.007-0.006,0.013-0.015,0.013c-0.018,0-0.035,0.001-0.053,0.001
		c-0.335,0-0.67,0-1.005,0c-0.018,0-0.035,0-0.053-0.001c-0.015-0.001-0.023-0.009-0.024-0.023c-0.001-0.01-0.001-0.02-0.001-0.03
		c0-0.282,0-0.564,0.001-0.846c0-0.007,0.002-0.015,0.003-0.022c0.013-0.163,0.003-0.326,0.006-0.49
		c0.002-0.084,0.013-0.095,0.097-0.088c0.303,0.027,0.606,0.051,0.91,0.073c0.047,0.003,0.096,0.005,0.136,0.036
		c0.001,0.015,0.003,0.03,0.003,0.045c0,0.248,0.001,0.495,0.001,0.743c0,0.015-0.003,0.03-0.004,0.045
		c-0.07,0.018-0.14,0.009-0.21,0.003c-0.273-0.025-0.547-0.041-0.82-0.068c-0.057-0.006-0.084,0.016-0.083,0.076
		c0.002,0.138,0,0.277,0.001,0.415c0.001,0.087,0.008,0.095,0.096,0.095c0.3,0.001,0.599,0,0.899,0.001
		C14.803,9.008,14.845,9.002,14.879,9.031z"/>
	<path fill="#F80AAF" d="M16.331,6.993c0.001-0.086,0.002-0.171,0.002-0.257c0-0.02,0-0.04,0.001-0.06
		c0.001-0.023,0.01-0.032,0.032-0.033c0.033-0.001,0.067-0.006,0.098,0.002c0.045,0.012,0.09,0.011,0.135,0.012
		c0.013,0,0.026-0.003,0.038,0.001c0.056,0.018,0.114,0.013,0.172,0.014c0.017,0,0.035,0.004,0.052,0.007
		c0.01,0.002,0.02,0.008,0.029,0.007c0.086-0.007,0.17,0.018,0.255,0.017c0.038-0.001,0.076-0.004,0.112,0.012
		c0.009,0.004,0.02,0.004,0.03,0.003c0.076-0.009,0.149,0.016,0.225,0.017c0.023,0,0.029,0.008,0.032,0.033
		c0.002,0.019-0.004,0.041,0.014,0.056c0.044,0.07,0.027,0.152,0.035,0.227c0.014,0.128,0.024,0.255,0.045,0.382
		c0.005,0.033,0.021,0.069-0.006,0.101c-0.073-0.016-0.146-0.033-0.222-0.031c-0.035,0.001-0.07,0.003-0.104-0.01
		c-0.013-0.005-0.03-0.004-0.045-0.004c-0.05-0.001-0.1,0.003-0.149-0.013c-0.023-0.007-0.05-0.002-0.075-0.002
		c-0.038-0.001-0.075,0.003-0.112-0.011c-0.016-0.006-0.035-0.003-0.052-0.004c-0.045-0.001-0.09,0.003-0.134-0.012
		c-0.021-0.007-0.045-0.002-0.067-0.003c-0.042-0.001-0.084,0-0.127-0.011c-0.033-0.009-0.07-0.004-0.105-0.003
		c-0.028,0.001-0.04,0.015-0.044,0.042c-0.002,0.017-0.002,0.035-0.003,0.053c-0.019-0.031-0.013-0.068-0.02-0.101
		c-0.026-0.135-0.032-0.271-0.043-0.408C16.328,7.007,16.33,7,16.331,6.993z"/>
	<path fill="#F70CA1" d="M19.301,6.883c0.017-0.016,0.013-0.037,0.013-0.057c0-0.073,0-0.146,0.001-0.219
		c0-0.015,0-0.03,0.001-0.045c0.002-0.017,0.015-0.028,0.031-0.022c0.037,0.014,0.074,0.01,0.112,0.011
		c0.038,0.001,0.075-0.002,0.112,0.012c0.016,0.006,0.035,0.003,0.052,0.003c0.045,0.001,0.09-0.002,0.134,0.012
		c0.021,0.007,0.045,0.002,0.068,0.003c0.043,0.001,0.085-0.002,0.127,0.012c0.023,0.007,0.05,0.003,0.075,0.003
		c0.04,0.001,0.08-0.002,0.119,0.012c0.02,0.007,0.045,0.003,0.067,0.004c0.038,0.001,0.075-0.002,0.112,0.011
		c0.018,0.007,0.04,0.005,0.06,0.004c0.054-0.004,0.105,0.006,0.153,0.031c0.007,0.108,0.002,0.215-0.004,0.322
		c-0.008,0.147-0.022,0.294-0.042,0.441c-0.002,0.015-0.002,0.03-0.012,0.043c-0.075-0.036-0.157-0.033-0.236-0.038
		c-0.303-0.018-0.604-0.059-0.908-0.065c-0.025,0-0.05-0.002-0.072-0.019c-0.029-0.093-0.004-0.187,0.004-0.279
		C19.274,7.003,19.257,6.936,19.301,6.883z"/>
	<path fill="#FE01F6" d="M11.821,11.047c0.009-0.02,0.023-0.033,0.045-0.034c0.02-0.001,0.04-0.001,0.06-0.001
		c0.394,0,0.789,0,1.183,0c0.05,0,0.1-0.001,0.149,0.014c0.035,0.011,0.036,0.007,0.031,0.046l0,0.001
		c-0.006,0.006-0.012,0.013-0.012,0.022c0.001,0.005-0.001,0.007-0.005,0.009c-0.003,0.006-0.007,0.011-0.011,0.016l0-0.001
		c-0.01,0.007-0.007,0.022-0.017,0.028l-0.001,0.001c-0.005,0.006-0.01,0.012-0.012,0.02c0.001,0.005,0,0.008-0.005,0.011
		c-0.003,0.006-0.007,0.011-0.012,0.016l0,0c-0.007,0.006-0.013,0.012-0.013,0.022c0.002,0.004,0.001,0.006-0.004,0.008
		c-0.004,0.006-0.011,0.01-0.012,0.018l0.001-0.001c-0.013,0.006-0.009,0.021-0.018,0.03l0,0c-0.007,0.005-0.012,0.012-0.014,0.021
		c0.001,0.005,0,0.008-0.005,0.01c-0.004,0.006-0.009,0.012-0.011,0.019c-0.058,0.097-0.114,0.195-0.173,0.291
		c-0.112,0.185-0.226,0.369-0.339,0.553c-0.008,0.013-0.016,0.026-0.025,0.037c-0.005,0.006-0.014,0.007-0.019,0.001
		c-0.008-0.009-0.015-0.02-0.022-0.03c-0.177-0.266-0.354-0.531-0.53-0.797c-0.005-0.008-0.008-0.018-0.013-0.027
		c-0.005-0.005-0.009-0.01-0.012-0.016c-0.004-0.001-0.006-0.004-0.005-0.008c-0.001-0.01-0.007-0.016-0.014-0.021l0,0.001
		c-0.004-0.005-0.008-0.011-0.012-0.016c-0.004-0.002-0.006-0.004-0.004-0.009c-0.001-0.009-0.007-0.016-0.014-0.021l0,0
		c-0.005-0.005-0.009-0.01-0.012-0.016c-0.004-0.002-0.006-0.005-0.005-0.009c-0.001-0.009-0.007-0.015-0.014-0.021l0,0
		c-0.005-0.005-0.009-0.01-0.012-0.016c-0.004-0.002-0.006-0.005-0.005-0.009c-0.002-0.009-0.007-0.015-0.014-0.02l0,0
		c-0.004-0.005-0.008-0.01-0.012-0.016c-0.004-0.002-0.006-0.005-0.005-0.01c-0.002-0.009-0.007-0.015-0.014-0.02l0,0
		c-0.005-0.005-0.008-0.01-0.012-0.016c-0.004-0.002-0.006-0.005-0.005-0.01c-0.002-0.008-0.008-0.014-0.014-0.02l0,0
		c-0.005-0.004-0.009-0.01-0.012-0.015C11.822,11.056,11.82,11.052,11.821,11.047z"/>
	<path fill="#F70C9E" d="M13.732,6.383c0.017-0.016,0.013-0.037,0.013-0.057c0-0.081,0-0.161,0-0.242c0-0.018,0-0.035,0.002-0.053
		c0.001-0.014,0.011-0.024,0.025-0.024c0.06-0.001,0.121-0.008,0.18,0.005c0.02,0.004,0.039,0.008,0.059,0.009
		c0.058,0,0.116-0.005,0.172,0.014c0.093-0.009,0.184,0.022,0.278,0.016c0.025-0.002,0.05,0,0.075,0.008
		c0.016,0.005,0.035,0.006,0.052,0.007c0.05,0.002,0.099,0.002,0.15,0.012c0.046,0.01,0.095,0.003,0.143,0.003
		c0.001,0.015,0.003,0.03,0.003,0.045c0,0.23,0.001,0.46,0.001,0.69c0,0.017-0.003,0.035-0.004,0.052
		c-0.034,0.029-0.076,0.025-0.115,0.021c-0.28-0.028-0.561-0.043-0.84-0.07c-0.151-0.015-0.157-0.01-0.157,0.142
		c0,0.075,0.002,0.151-0.001,0.226c-0.001,0.028,0.006,0.063-0.035,0.073c-0.001-0.015-0.003-0.03-0.003-0.045
		c0-0.263,0-0.525,0.001-0.788C13.729,6.413,13.731,6.398,13.732,6.383z"/>
	<path fill="#FA08BD" d="M13.732,7.26c0.017-0.016,0.013-0.037,0.013-0.057c0-0.111,0-0.222,0.001-0.332
		c0-0.078,0.001-0.079,0.079-0.079c0.053,0,0.105-0.004,0.157,0.013c0.021,0.007,0.045,0.002,0.068,0.002
		c0.04,0.001,0.08-0.003,0.119,0.012c0.016,0.006,0.035,0.003,0.052,0.003c0.045,0.001,0.09-0.003,0.135,0.012
		c0.018,0.006,0.04,0.002,0.06,0.003c0.045,0.001,0.091-0.005,0.134,0.012c0.011,0.004,0.025,0.002,0.037,0.003
		c0.05,0.001,0.099,0.001,0.15,0.012c0.046,0.01,0.095,0.003,0.143,0.003c0.001,0.012,0.003,0.025,0.003,0.037
		c0,0.235,0.001,0.47,0.001,0.705c0,0.015-0.003,0.03-0.004,0.045c-0.035-0.001-0.07,0.002-0.104-0.011
		c-0.018-0.007-0.04-0.004-0.06-0.004c-0.042-0.001-0.085,0.003-0.127-0.012c-0.016-0.006-0.035-0.003-0.052-0.003
		c-0.05-0.001-0.1,0.004-0.149-0.013c-0.014-0.005-0.03-0.002-0.045-0.002c-0.045-0.001-0.09,0.003-0.134-0.012
		c-0.021-0.007-0.045-0.002-0.067-0.003c-0.042-0.001-0.085,0.003-0.127-0.012c-0.02-0.007-0.045-0.003-0.067-0.003
		c-0.037-0.001-0.075,0.004-0.111-0.012c-0.007-0.003-0.015-0.003-0.022-0.003c-0.063-0.002-0.07,0.001-0.07,0.065
		c0.001,0.143,0,0.286,0,0.429c0,0.022,0.006,0.046-0.013,0.064c-0.001-0.015-0.003-0.03-0.003-0.045c0-0.258,0-0.515,0.001-0.773
		C13.729,7.29,13.731,7.275,13.732,7.26z"/>
	<path fill="#F70D9B" d="M12.291,9.455c-0.285,0-0.569,0-0.854,0c-0.038,0-0.075,0.004-0.112-0.012
		C11.314,9.438,11.3,9.44,11.287,9.44c-0.139,0-0.277,0-0.416,0c-0.045,0-0.072,0.019-0.078,0.064
		c-0.046-0.051-0.076-0.112-0.114-0.164c0-0.006,0-0.009,0-0.011c0.001-0.002,0.002-0.005,0.004-0.006
		c0.301-0.286,0.602-0.572,0.904-0.857c0.007-0.007,0.016-0.012,0.024-0.018c0.002-0.001,0.005-0.001,0.011-0.002
		c0.018,0.026,0.036,0.052,0.054,0.079c0.198,0.297,0.396,0.594,0.594,0.892C12.278,9.428,12.284,9.442,12.291,9.455z"/>
	<path fill="#FA08C1" d="M19.269,7.337c0.06,0,0.12,0,0.181,0c0.035,0,0.07-0.002,0.104,0.011c0.018,0.007,0.04,0.003,0.06,0.004
		c0.042,0.001,0.085-0.003,0.126,0.012c0.016,0.006,0.035,0.003,0.052,0.003c0.05,0.001,0.1-0.004,0.149,0.013
		c0.014,0.005,0.03,0.002,0.045,0.002c0.045,0.001,0.09-0.002,0.134,0.012c0.023,0.007,0.05,0.003,0.075,0.003
		c0.04,0.001,0.079,0.001,0.119,0.011c0.036,0.009,0.075,0.004,0.112,0.004c0.034,0,0.05,0.017,0.055,0.049
		c-0.002,0.009-0.003,0.018-0.005,0.027c-0.009,0.015-0.002,0.034-0.011,0.049c-0.001,0.009-0.002,0.018-0.003,0.026
		c-0.014,0.019,0.001,0.044-0.013,0.063c0.002,0.005,0.001,0.009-0.003,0.013c-0.011,0.014-0.001,0.033-0.012,0.047
		c0.002,0.005,0.002,0.009-0.002,0.013c-0.013,0.014-0.002,0.034-0.013,0.048c-0.015,0.083-0.037,0.164-0.075,0.24
		c-0.048-0.024-0.099-0.034-0.153-0.031c-0.035,0.002-0.07,0.002-0.104-0.011c-0.018-0.007-0.04-0.003-0.06-0.004
		c-0.042-0.001-0.085,0.003-0.127-0.012c-0.016-0.006-0.035-0.003-0.052-0.003c-0.05-0.001-0.1,0.004-0.149-0.013
		c-0.014-0.005-0.03-0.002-0.045-0.002c-0.045-0.001-0.09,0.003-0.134-0.012c-0.021-0.007-0.045-0.002-0.067-0.003
		c-0.042-0.001-0.084,0.001-0.127-0.011c-0.028-0.008-0.06-0.004-0.09-0.003c-0.04,0.001-0.08-0.001-0.118-0.016
		c-0.01-0.017-0.005-0.034,0.002-0.05c0.054-0.124,0.084-0.255,0.118-0.384c0.009-0.021,0.011-0.044,0.014-0.066
		C19.255,7.354,19.26,7.344,19.269,7.337z"/>
	<path fill="#FF00FF" d="M14.879,9.031c-0.345,0-0.691,0-1.036,0c-0.107,0-0.098,0.008-0.098-0.097c0-0.149,0-0.297,0-0.446
		c0-0.02,0-0.04,0.001-0.06c0.001-0.017,0.01-0.029,0.028-0.03c0.035-0.001,0.072-0.006,0.105,0.003
		c0.043,0.011,0.085,0.01,0.127,0.011c0.033,0.001,0.065-0.002,0.097,0.01c0.016,0.006,0.035,0.004,0.052,0.005
		c0.048,0.001,0.095-0.002,0.142,0.013c0.023,0.007,0.05,0.002,0.075,0.003c0.038,0.001,0.075-0.004,0.112,0.012
		c0.011,0.005,0.025,0.003,0.037,0.003c0.053,0.001,0.105,0,0.157,0.013c0.038,0.009,0.08,0.003,0.121,0.002
		c0.028,0,0.055,0.001,0.08,0.015c0.001,0.03,0.003,0.06,0.003,0.089c0.001,0.127,0.001,0.254,0,0.381
		C14.884,8.982,14.889,9.007,14.879,9.031z"/>
	<path fill="#F21464" d="M20.492,5.945c-0.02-0.019-0.012-0.042-0.011-0.065C20.496,5.9,20.494,5.922,20.492,5.945z"/>
	<path fill="#F70CA1" d="M20.451,7.627c-0.001-0.022-0.008-0.045,0.013-0.063C20.464,7.586,20.465,7.608,20.451,7.627z"/>
	<path fill="#F70CA1" d="M20.466,7.538c-0.002-0.018-0.006-0.036,0.011-0.049C20.478,7.506,20.478,7.523,20.466,7.538z"/>
	<path fill="#F21464" d="M16.407,5.746c0.002,0.017,0.006,0.035-0.011,0.048C16.394,5.776,16.395,5.759,16.407,5.746z"/>
	<path fill="#F80AAF" d="M16.426,7.685c0.016,0.013,0.014,0.03,0.012,0.047C16.426,7.719,16.424,7.702,16.426,7.685z"/>
	<path fill="#F70CA1" d="M20.435,7.687c-0.002-0.017-0.005-0.035,0.012-0.047C20.449,7.657,20.447,7.673,20.435,7.687z"/>
	<path fill="#F80AAF" d="M16.411,7.625c0.016,0.012,0.014,0.03,0.012,0.047C16.41,7.658,16.409,7.642,16.411,7.625z"/>
	<path fill="#F70CA1" d="M20.42,7.749c-0.002-0.018-0.005-0.036,0.013-0.048C20.435,7.718,20.435,7.735,20.42,7.749z"/>
	<path fill="#F80AAF" d="M16.396,7.549c0.016,0.013,0.013,0.031,0.011,0.048C16.396,7.583,16.395,7.566,16.396,7.549z"/>
	<path fill="#FA08C1" d="M20.254,8.203c-0.001-0.014,0-0.026,0.014-0.034C20.269,8.183,20.265,8.194,20.254,8.203z"/>
	<path fill="#FA08C1" d="M20.315,8.067c-0.002-0.014,0-0.026,0.013-0.035C20.329,8.046,20.326,8.058,20.315,8.067z"/>
	<path fill="#FA08C1" d="M20.161,8.365c0.001-0.013,0.004-0.024,0.017-0.029C20.178,8.349,20.174,8.359,20.161,8.365z"/>
	<path fill="#FA08C1" d="M20.223,8.261c-0.001-0.013,0.002-0.025,0.015-0.031C20.238,8.243,20.235,8.254,20.223,8.261z"/>
	<path fill="#FA08C1" d="M20.284,8.14c-0.001-0.013,0.001-0.024,0.013-0.031C20.298,8.121,20.294,8.132,20.284,8.14z"/>
	<path fill="#F70D9B" d="M10.943,9.728c0.014,0.004,0.018,0.015,0.018,0.028C10.951,9.749,10.944,9.741,10.943,9.728z"/>
	<path fill="#FA08C1" d="M20.268,8.17c0-0.013,0.003-0.024,0.016-0.031C20.285,8.152,20.278,8.162,20.268,8.17z"/>
	<path fill="#FC05D9" d="M13.245,11.148c0-0.013,0.004-0.023,0.017-0.028C13.262,11.132,13.257,11.142,13.245,11.148z"/>
	<path fill="#FC05D9" d="M13.17,11.271c-0.001-0.014,0.003-0.025,0.018-0.03C13.187,11.254,13.182,11.264,13.17,11.271z"/>
	<path fill="#FA08C1" d="M20.33,8.025c0-0.009,0.003-0.017,0.011-0.022C20.343,8.013,20.339,8.02,20.33,8.025z"/>
	<path fill="#FA08C1" d="M20.3,8.1c0-0.009,0.004-0.016,0.012-0.021C20.313,8.088,20.309,8.095,20.3,8.1z"/>
	<path fill="#FA08C1" d="M20.238,8.23c0.003-0.005,0.007-0.01,0.01-0.016C20.248,8.222,20.245,8.227,20.238,8.23z"/>
	<path fill="#FA08C1" d="M20.209,8.283c0-0.01,0.005-0.018,0.014-0.022C20.223,8.27,20.219,8.278,20.209,8.283z"/>
	<path fill="#FA08C1" d="M20.194,8.312c0-0.009,0.004-0.017,0.012-0.022C20.207,8.3,20.203,8.307,20.194,8.312z"/>
	<path fill="#FA08C1" d="M20.178,8.337c0.004-0.005,0.007-0.011,0.011-0.016C20.189,8.329,20.185,8.334,20.178,8.337z"/>
	<path fill="#FA08C1" d="M20.148,8.385c0.001-0.009,0.005-0.015,0.013-0.019C20.161,8.374,20.156,8.381,20.148,8.385z"/>
	<path fill="#F70D9B" d="M10.812,9.53c0.007,0.004,0.011,0.01,0.012,0.019C10.815,9.545,10.812,9.539,10.812,9.53z"/>
	<path fill="#F70D9B" d="M10.83,9.561c0.003,0.004,0.007,0.008,0.01,0.012C10.834,9.572,10.83,9.568,10.83,9.561z"/>
	<path fill="#F70D9B" d="M10.841,9.575c0.007,0.004,0.012,0.011,0.012,0.02C10.845,9.591,10.841,9.584,10.841,9.575z"/>
	<path fill="#F70D9B" d="M10.86,9.606c0.004,0.004,0.007,0.009,0.011,0.013C10.864,9.617,10.86,9.613,10.86,9.606z"/>
	<path fill="#F70D9B" d="M10.871,9.621c0.004,0.006,0.008,0.012,0.012,0.018C10.875,9.636,10.871,9.629,10.871,9.621z"/>
	<path fill="#F70D9B" d="M10.883,9.637c0.01,0.004,0.015,0.011,0.015,0.021C10.889,9.655,10.883,9.648,10.883,9.637z"/>
	<path fill="#F70D9B" d="M10.902,9.666c0.008,0.004,0.012,0.011,0.012,0.019C10.906,9.682,10.902,9.676,10.902,9.666z"/>
	<path fill="#F70D9B" d="M10.921,9.697c0.003,0.004,0.007,0.009,0.01,0.013C10.928,9.706,10.924,9.701,10.921,9.697z"/>
	<path fill="#F70D9B" d="M10.932,9.711c0.004,0.006,0.008,0.012,0.013,0.018C10.935,9.727,10.931,9.72,10.932,9.711z"/>
	<path fill="#F70D9B" d="M10.962,9.757c0.008,0.004,0.012,0.011,0.013,0.019C10.966,9.773,10.962,9.766,10.962,9.757z"/>
	<path fill="#FC05D9" d="M11.827,11.058c0.004,0.005,0.008,0.01,0.012,0.015C11.83,11.072,11.826,11.067,11.827,11.058z"/>
	<path fill="#FC05D9" d="M11.838,11.073c0.009,0.004,0.013,0.01,0.014,0.02C11.843,11.09,11.839,11.083,11.838,11.073z"/>
	<path fill="#FC05D9" d="M13.278,11.095c0-0.01,0.004-0.017,0.012-0.022C13.291,11.083,13.287,11.09,13.278,11.095z"/>
	<path fill="#FC05D9" d="M11.857,11.104c0.004,0.005,0.008,0.01,0.012,0.016C11.86,11.118,11.856,11.112,11.857,11.104z"/>
	<path fill="#FC05D9" d="M13.261,11.12c0-0.008,0.004-0.013,0.011-0.016C13.273,11.112,13.269,11.117,13.261,11.12z"/>
	<path fill="#FC05D9" d="M11.868,11.119c0.009,0.004,0.013,0.011,0.014,0.02C11.873,11.135,11.869,11.129,11.868,11.119z"/>
	<path fill="#FC05D9" d="M11.887,11.149c0.004,0.005,0.008,0.011,0.012,0.016C11.89,11.163,11.886,11.158,11.887,11.149z"/>
	<path fill="#FC05D9" d="M13.232,11.169c0-0.009,0.004-0.016,0.012-0.02C13.244,11.158,13.24,11.165,13.232,11.169z"/>
	<path fill="#FC05D9" d="M11.898,11.164c0.009,0.004,0.014,0.011,0.014,0.02C11.903,11.181,11.899,11.174,11.898,11.164z"/>
	<path fill="#FC05D9" d="M13.216,11.195c0.004-0.005,0.008-0.011,0.012-0.016C13.228,11.188,13.224,11.193,13.216,11.195z"/>
	<path fill="#FC05D9" d="M11.917,11.194c0.004,0.005,0.008,0.01,0.012,0.016C11.92,11.208,11.916,11.203,11.917,11.194z"/>
	<path fill="#FC05D9" d="M13.203,11.217c0-0.01,0.004-0.018,0.013-0.022C13.215,11.204,13.212,11.212,13.203,11.217z"/>
	<path fill="#FC05D9" d="M11.929,11.21c0.009,0.004,0.013,0.011,0.014,0.021C11.934,11.226,11.929,11.219,11.929,11.21z"/>
	<path fill="#FC05D9" d="M13.187,11.242c0-0.008,0.005-0.014,0.012-0.018C13.2,11.234,13.196,11.24,13.187,11.242z"/>
	<path fill="#FC05D9" d="M11.947,11.24c0.004,0.005,0.008,0.011,0.012,0.016C11.95,11.254,11.946,11.249,11.947,11.24z"/>
	<path fill="#FC05D9" d="M11.959,11.255c0.009,0.004,0.014,0.011,0.014,0.021C11.964,11.272,11.959,11.265,11.959,11.255z"/>
	<path fill="#FC05D9" d="M13.157,11.291c0-0.01,0.005-0.016,0.014-0.021C13.171,11.28,13.166,11.287,13.157,11.291z"/>
	<path fill="#FC05D9" d="M11.977,11.285c0.004,0.005,0.008,0.011,0.012,0.016C11.981,11.299,11.976,11.294,11.977,11.285z"/>
	<path fill="#FC05D9" d="M11.989,11.301c0.009,0.004,0.014,0.011,0.014,0.021C11.994,11.318,11.99,11.31,11.989,11.301z"/>
	<path fill="#FC05D9" d="M13.141,11.319c0-0.008,0.004-0.015,0.011-0.019C13.153,11.309,13.149,11.315,13.141,11.319z"/>
	<path fill="#FC05D9" d="M12.007,11.33c0.004,0.005,0.008,0.011,0.012,0.016C12.012,11.344,12.007,11.339,12.007,11.33z"/>
	<path d="M9.218,11.46c-0.075-0.005-0.15-0.008-0.225-0.014c-0.098-0.007-0.196-0.016-0.294-0.023
		c-0.282-0.02-0.563-0.04-0.845-0.059c-0.176-0.012-0.352-0.023-0.528-0.035c-0.179-0.013-0.357-0.026-0.536-0.039
		c-0.045-0.003-0.091-0.007-0.136-0.007c-0.032,0-0.051-0.014-0.066-0.041c-0.072-0.13-0.146-0.259-0.219-0.388
		C5.976,10.162,5.583,9.471,5.19,8.78C4.809,8.11,4.428,7.441,4.047,6.772c-0.01-0.017-0.021-0.034-0.032-0.053
		C4.224,6.351,4.436,5.98,4.647,5.61c0.279-0.49,0.558-0.98,0.836-1.47C5.822,3.545,6.16,2.95,6.499,2.355
		c0.03-0.053,0.061-0.104,0.089-0.158c0.017-0.033,0.041-0.048,0.078-0.045c0.012,0.001,0.025-0.001,0.038-0.001
		c0.391-0.012,0.781-0.023,1.172-0.036c0.383-0.012,0.766-0.026,1.149-0.039c0.063-0.002,0.126,0,0.191,0
		c0.011,0.02-0.008,0.035-0.017,0.051C9.102,2.301,9.003,2.473,8.904,2.646c-0.285,0.501-0.57,1.002-0.855,1.503
		C7.835,4.525,7.621,4.901,7.406,5.277C7.17,5.692,6.933,6.108,6.696,6.523C6.681,6.549,6.668,6.576,6.651,6.601
		C6.627,6.636,6.625,6.668,6.647,6.706c0.052,0.089,0.1,0.181,0.149,0.271C7.101,7.539,7.405,8.101,7.71,8.662
		c0.28,0.515,0.56,1.03,0.84,1.545c0.215,0.396,0.43,0.791,0.644,1.188C9.205,11.414,9.223,11.431,9.218,11.46z"/>
	<path fill="#FC05D8" d="M27.064,9.064c0.001,0.005,0,0.009-0.005,0.012c-0.003,0.006-0.007,0.011-0.011,0.016l0-0.001
		c-0.01,0.007-0.007,0.022-0.017,0.029l0,0.001c-0.005,0.006-0.011,0.013-0.012,0.022c0.001,0.004-0.001,0.007-0.005,0.009
		c-0.003,0.006-0.009,0.012-0.011,0.019c0.001,0.005,0,0.009-0.005,0.012c-0.003,0.006-0.007,0.011-0.011,0.016l0-0.001
		c-0.01,0.008-0.007,0.022-0.016,0.03l0,0c-0.006,0.006-0.012,0.013-0.013,0.022c0.001,0.004-0.001,0.007-0.005,0.008
		c-0.004,0.006-0.009,0.012-0.011,0.019c0.001,0.005-0.001,0.009-0.005,0.011c-0.003,0.006-0.007,0.011-0.011,0.016l0-0.001
		c-0.01,0.008-0.007,0.022-0.016,0.03l0,0c-0.006,0.006-0.012,0.012-0.013,0.021c0.001,0.004,0,0.007-0.004,0.009
		c-0.004,0.006-0.01,0.012-0.011,0.02c-0.045,0.081-0.089,0.163-0.135,0.244c-0.219,0.385-0.438,0.77-0.657,1.156
		c-0.004,0.007-0.008,0.013-0.011,0.02c-0.009,0.02-0.023,0.032-0.046,0.033c-0.018,0.001-0.035,0.004-0.053,0.006
		c-0.179,0.012-0.357,0.024-0.536,0.036c-0.176,0.012-0.352,0.026-0.528,0.038c-0.065,0.005-0.131,0.009-0.196,0.012
		c-0.02,0.001-0.029-0.01-0.019-0.028c0.039-0.073,0.079-0.146,0.119-0.219c0.287-0.529,0.575-1.057,0.862-1.586
		c0.01-0.018,0.021-0.034,0.032-0.051c0.01-0.007,0.007-0.021,0.016-0.029l0.001-0.001c0.009-0.007,0.005-0.021,0.015-0.028
		l0.001-0.002c0.005-0.006,0.01-0.011,0.012-0.019c-0.001-0.005,0.001-0.009,0.006-0.012c0.004-0.006,0.007-0.012,0.01-0.018
		c-0.001-0.005,0.001-0.01,0.005-0.013c0.004-0.005,0.007-0.01,0.011-0.015l0,0c0.025-0.02,0.055-0.023,0.086-0.022
		c0.37,0.002,0.739-0.026,1.109-0.015c0.028,0.001,0.056-0.001,0.082,0.007c0.039,0.011,0.071,0.029,0.057,0.079l0-0.001
		c-0.011,0.007-0.008,0.022-0.016,0.031l0-0.001c-0.007,0.006-0.013,0.012-0.014,0.022c0.002,0.004,0.001,0.006-0.003,0.008
		c-0.005,0.006-0.011,0.013-0.012,0.022c0.001,0.004-0.001,0.007-0.005,0.009C27.072,9.053,27.067,9.058,27.064,9.064z"/>
	<path fill="#F909B5" d="M27.124,8.957c-0.007-0.046-0.036-0.062-0.08-0.062c-0.229,0.001-0.459,0-0.688,0
		c-0.008,0-0.016-0.001-0.023,0.001c-0.064,0.022-0.13,0.013-0.195,0.014c-0.116,0.001-0.232-0.001-0.348-0.001
		c0-0.019,0.011-0.033,0.02-0.048c0.21-0.387,0.421-0.774,0.631-1.161c0.065-0.119,0.13-0.239,0.195-0.358
		c0.01-0.017,0.021-0.034,0.032-0.051c0.04-0.049,0.097-0.051,0.152-0.052c0.384-0.004,0.768-0.003,1.152-0.001
		c0.045,0,0.095,0.003,0.091,0.071c-0.041,0.075-0.081,0.15-0.123,0.224c-0.263,0.463-0.525,0.926-0.788,1.388
		C27.144,8.934,27.138,8.949,27.124,8.957z"/>
	<path fill="#F60E92" d="M28.063,7.309c-0.012-0.041-0.041-0.049-0.081-0.049c-0.341,0.001-0.683,0.001-1.024,0.001
		c-0.04,0-0.08,0-0.121,0c-0.058-0.001-0.114,0.012-0.169,0.03c0.035-0.084,0.084-0.16,0.126-0.24
		c0.064-0.12,0.128-0.24,0.195-0.358c0.014-0.025,0.015-0.044,0-0.069c-0.086-0.148-0.17-0.297-0.254-0.446
		C26.722,6.155,26.712,6.133,26.7,6.11c-0.01-0.007-0.006-0.022-0.015-0.029l0,0c-0.005-0.004-0.008-0.009-0.011-0.015
		c-0.005-0.003-0.007-0.007-0.006-0.013c-0.004-0.006-0.007-0.012-0.011-0.018c-0.004-0.002-0.006-0.005-0.005-0.01
		c-0.001-0.008-0.007-0.014-0.012-0.02c-0.004-0.002-0.005-0.004-0.003-0.008c0-0.01-0.007-0.016-0.013-0.022l0,0
		c-0.005-0.004-0.009-0.009-0.011-0.015c-0.004-0.003-0.006-0.007-0.005-0.013c-0.004-0.006-0.007-0.011-0.011-0.017
		c-0.004-0.002-0.006-0.006-0.005-0.011C26.59,5.912,26.585,5.906,26.58,5.9c-0.004-0.002-0.005-0.005-0.004-0.009
		c-0.001-0.009-0.007-0.015-0.013-0.021l0,0c-0.005-0.004-0.008-0.009-0.011-0.015c-0.004-0.003-0.006-0.008-0.005-0.013
		c-0.004-0.005-0.008-0.011-0.011-0.017c-0.004-0.002-0.006-0.006-0.005-0.01C26.53,5.806,26.525,5.8,26.52,5.794
		c-0.004-0.002-0.005-0.005-0.004-0.01c-0.002-0.009-0.007-0.015-0.013-0.021l0,0c-0.009-0.008-0.006-0.022-0.016-0.03l0,0
		c0-0.05,0.036-0.062,0.075-0.067c0.067-0.007,0.134-0.019,0.202-0.019c0.304,0.001,0.608,0,0.912,0c0.04,0,0.081-0.003,0.117,0.02
		l-0.001,0c-0.001,0.01,0.006,0.014,0.012,0.019l0,0c0.008,0.009,0.004,0.023,0.016,0.03l0,0c0.003,0.005,0.007,0.011,0.011,0.016
		c0.004,0.003,0.006,0.007,0.005,0.012c0.001,0.008,0.007,0.013,0.011,0.02l0.001,0.002c0.01,0.007,0.006,0.021,0.016,0.028l0,0
		c0.008,0.008,0.005,0.023,0.016,0.029c0.044,0.058,0.075,0.124,0.111,0.187c0.125,0.218,0.249,0.437,0.374,0.655
		c0.002,0.004,0.005,0.009,0.008,0.013c0.023,0.029,0.021,0.057,0.002,0.09c-0.047,0.077-0.09,0.157-0.135,0.236
		c-0.05,0.087-0.099,0.175-0.149,0.262C28.084,7.281,28.073,7.295,28.063,7.309z"/>
	<path fill="#F31272" d="M27.794,5.669c-0.03,0.001-0.06,0.004-0.09,0.004c-0.319,0-0.639,0-0.958,0
		c-0.035,0-0.07-0.001-0.104,0.011c-0.02,0.007-0.045,0.005-0.067,0.004c-0.039-0.003-0.069,0.01-0.086,0.046
		c-0.04-0.049-0.066-0.107-0.097-0.161c-0.256-0.448-0.511-0.896-0.766-1.344c-0.012-0.022-0.029-0.041-0.033-0.067
		c0.029-0.059,0.086-0.055,0.138-0.055c0.209-0.002,0.418-0.001,0.627-0.001c0.148,0.001,0.296-0.024,0.445-0.016
		c0.038,0.002,0.076,0,0.109,0.024c0.047,0.08,0.095,0.16,0.141,0.241c0.241,0.422,0.481,0.844,0.721,1.266
		C27.78,5.636,27.786,5.653,27.794,5.669z"/>
	<path fill="#F11650" d="M26.91,4.114c-0.083,0-0.166,0-0.249,0c-0.05,0-0.1-0.004-0.149,0.012
		c-0.021,0.007-0.045,0.003-0.067,0.003c-0.239,0-0.477,0.001-0.716-0.001c-0.049,0-0.095,0.006-0.136,0.032
		c-0.035-0.037-0.054-0.084-0.079-0.127c-0.255-0.446-0.508-0.892-0.762-1.339c-0.015-0.026-0.03-0.052-0.044-0.079
		c-0.009-0.017-0.003-0.031,0.015-0.031c0.023-0.001,0.045,0,0.068,0c0.239,0.007,0.479,0.011,0.718,0.022
		c0.154,0.007,0.307,0.009,0.461,0.014c0.013,0,0.025,0.002,0.038,0.001c0.043-0.003,0.067,0.016,0.088,0.054
		c0.18,0.32,0.363,0.639,0.545,0.958c0.079,0.138,0.158,0.275,0.236,0.413C26.888,4.069,26.898,4.092,26.91,4.114z"/>
	<path fill="#F31272" d="M27.821,5.717c-0.014-0.005-0.017-0.017-0.016-0.03C27.816,5.694,27.821,5.705,27.821,5.717z"/>
	<path fill="#F31272" d="M26.487,5.733c0.013,0.006,0.016,0.017,0.016,0.03C26.491,5.757,26.487,5.746,26.487,5.733z"/>
	<path fill="#F31272" d="M26.685,6.081C26.697,6.087,26.7,6.098,26.7,6.11C26.69,6.104,26.685,6.094,26.685,6.081z"/>
	<path fill="#F31272" d="M27.865,5.793c-0.012-0.005-0.016-0.016-0.016-0.028C27.861,5.771,27.866,5.781,27.865,5.793z"/>
	<path fill="#F31272" d="M27.882,5.823c-0.014-0.005-0.017-0.016-0.016-0.029C27.876,5.8,27.881,5.811,27.882,5.823z"/>
	<path fill="#F909B5" d="M27.109,8.987c-0.001-0.014,0.003-0.025,0.016-0.031C27.125,8.969,27.121,8.98,27.109,8.987z"/>
	<path fill="#F909B5" d="M25.747,8.988c0,0.012-0.003,0.022-0.015,0.028C25.732,9.004,25.736,8.994,25.747,8.988z"/>
	<path fill="#F909B5" d="M25.731,9.017c0,0.013-0.003,0.023-0.016,0.029C25.715,9.033,25.719,9.023,25.731,9.017z"/>
	<path fill="#F909B5" d="M27.032,9.121c0-0.013,0.004-0.024,0.017-0.029C27.048,9.105,27.042,9.114,27.032,9.121z"/>
	<path fill="#F909B5" d="M26.972,9.228c-0.001-0.013,0.003-0.024,0.016-0.03C26.987,9.21,26.983,9.221,26.972,9.228z"/>
	<path fill="#F909B5" d="M26.911,9.334c-0.001-0.013,0.003-0.024,0.016-0.03C26.927,9.316,26.923,9.327,26.911,9.334z"/>
	<path fill="#F909B5" d="M25.79,8.909c0,0.008-0.004,0.013-0.011,0.015C25.778,8.916,25.783,8.911,25.79,8.909z"/>
	<path fill="#F909B5" d="M25.774,8.937c0.001,0.008-0.003,0.014-0.01,0.018C25.763,8.946,25.766,8.94,25.774,8.937z"/>
	<path fill="#F909B5" d="M25.759,8.967c0,0.009-0.004,0.015-0.012,0.019C25.746,8.976,25.751,8.97,25.759,8.967z"/>
	<path fill="#F909B5" d="M27.095,9.008c0-0.01,0.005-0.017,0.014-0.022C27.109,8.996,27.105,9.004,27.095,9.008z"/>
	<path fill="#F909B5" d="M27.08,9.037c0-0.01,0.004-0.017,0.012-0.022C27.093,9.026,27.089,9.033,27.08,9.037z"/>
	<path fill="#F909B5" d="M27.064,9.064c0-0.008,0.003-0.014,0.011-0.018C27.075,9.054,27.071,9.061,27.064,9.064z"/>
	<path fill="#F909B5" d="M27.048,9.093c0.004-0.005,0.007-0.011,0.011-0.016C27.06,9.085,27.057,9.091,27.048,9.093z"/>
	<path fill="#F909B5" d="M27.019,9.143c0-0.01,0.004-0.017,0.012-0.022C27.032,9.132,27.028,9.139,27.019,9.143z"/>
	<path fill="#F909B5" d="M27.004,9.171c0-0.008,0.004-0.015,0.011-0.019C27.015,9.161,27.011,9.167,27.004,9.171z"/>
	<path fill="#F909B5" d="M26.987,9.198c0.004-0.005,0.008-0.011,0.011-0.016C27,9.191,26.996,9.196,26.987,9.198z"/>
	<path fill="#F909B5" d="M26.959,9.25c0-0.01,0.004-0.017,0.013-0.022C26.972,9.238,26.968,9.245,26.959,9.25z"/>
	<path fill="#F909B5" d="M26.943,9.277c0-0.009,0.004-0.015,0.011-0.019C26.955,9.267,26.951,9.273,26.943,9.277z"/>
	<path fill="#F909B5" d="M26.927,9.304c0-0.008,0.004-0.013,0.011-0.016C26.939,9.297,26.935,9.302,26.927,9.304z"/>
	<path fill="#F909B5" d="M26.898,9.355c0-0.01,0.005-0.016,0.013-0.021C26.912,9.344,26.907,9.351,26.898,9.355z"/>
	<path fill="#F909B5" d="M26.883,9.384c0-0.009,0.003-0.016,0.011-0.02C26.895,9.373,26.891,9.38,26.883,9.384z"/>
	<path fill="#F31272" d="M27.805,5.687c-0.008-0.003-0.013-0.009-0.012-0.019C27.802,5.672,27.806,5.678,27.805,5.687z"/>
	<path fill="#F31272" d="M27.832,5.733c-0.004-0.005-0.007-0.011-0.011-0.016C27.828,5.719,27.833,5.724,27.832,5.733z"/>
	<path fill="#F31272" d="M27.848,5.764c-0.007-0.004-0.011-0.011-0.011-0.02C27.845,5.748,27.848,5.755,27.848,5.764z"/>
	<path fill="#F31272" d="M26.504,5.763c0.008,0.004,0.013,0.011,0.013,0.021C26.508,5.78,26.504,5.773,26.504,5.763z"/>
	<path fill="#F31272" d="M26.52,5.794c0.007,0.005,0.011,0.011,0.011,0.02C26.524,5.81,26.52,5.803,26.52,5.794z"/>
	<path fill="#F31272" d="M26.537,5.824c0.004,0.006,0.007,0.011,0.011,0.017C26.541,5.838,26.537,5.832,26.537,5.824z"/>
	<path fill="#F31272" d="M26.553,5.855c0.004,0.005,0.007,0.01,0.011,0.015C26.556,5.867,26.552,5.863,26.553,5.855z"/>
	<path fill="#F31272" d="M26.564,5.869c0.009,0.004,0.013,0.012,0.013,0.021C26.568,5.886,26.564,5.879,26.564,5.869z"/>
	<path fill="#F31272" d="M26.58,5.9c0.008,0.004,0.012,0.011,0.012,0.02C26.584,5.916,26.58,5.909,26.58,5.9z"/>
	<path fill="#F31272" d="M26.598,5.93c0.004,0.006,0.007,0.012,0.011,0.017C26.601,5.944,26.597,5.938,26.598,5.93z"/>
	<path fill="#F31272" d="M26.613,5.96c0.004,0.005,0.007,0.01,0.011,0.015C26.617,5.973,26.613,5.969,26.613,5.96z"/>
	<path fill="#F31272" d="M26.624,5.975c0.009,0.005,0.013,0.012,0.013,0.022C26.629,5.992,26.625,5.985,26.624,5.975z"/>
	<path fill="#F31272" d="M26.64,6.006c0.008,0.005,0.012,0.011,0.012,0.02C26.644,6.022,26.64,6.015,26.64,6.006z"/>
	<path fill="#F31272" d="M26.658,6.036c0.007,0.004,0.011,0.01,0.011,0.018C26.661,6.05,26.657,6.044,26.658,6.036z"/>
	<path fill="#F31272" d="M26.674,6.066c0.004,0.005,0.007,0.01,0.011,0.015C26.678,6.079,26.674,6.074,26.674,6.066z"/>
	<path d="M19.269,7.337c-0.001,0.009-0.002,0.017-0.002,0.026c-0.012,0.02-0.001,0.044-0.011,0.064
		c-0.014,0.06-0.028,0.121-0.042,0.181c-0.021,0.09-0.06,0.173-0.095,0.258c-0.004,0.002-0.006,0.005-0.004,0.009
		c-0.001,0.009-0.007,0.015-0.013,0.021l0,0.001c-0.005,0.004-0.008,0.009-0.011,0.014c-0.005,0.003-0.007,0.006-0.006,0.012
		c-0.002,0.008-0.007,0.013-0.013,0.019l-0.001,0.001c-0.004,0.004-0.008,0.009-0.011,0.014c-0.005,0.002-0.006,0.005-0.006,0.01
		c-0.001,0.01-0.006,0.016-0.016,0.019l0.001-0.001c-0.001,0.009-0.007,0.013-0.014,0.017l0,0c-0.003,0.007-0.008,0.012-0.015,0.016
		l0,0c-0.003,0.007-0.008,0.012-0.015,0.015l0,0c-0.003,0.007-0.008,0.013-0.016,0.015l0,0c-0.003,0.009-0.009,0.013-0.017,0.015
		c-0.006,0-0.01,0.002-0.012,0.007c-0.005,0.002-0.009,0.005-0.011,0.01L18.935,8.08c-0.005,0.004-0.011,0.008-0.016,0.012
		c-0.054,0.026-0.106,0.057-0.165,0.074c-0.073,0.021-0.147,0.034-0.223,0.037c-0.108,0.004-0.216,0.003-0.323-0.017
		c-0.218-0.041-0.375-0.162-0.474-0.36c-0.013-0.027-0.027-0.054-0.04-0.081c-0.008-0.009-0.006-0.022-0.013-0.032
		c0.001-0.005,0-0.01-0.005-0.013c-0.006-0.01-0.004-0.022-0.011-0.031c0.002-0.005,0.001-0.01-0.003-0.014
		c-0.007-0.009-0.005-0.022-0.012-0.032c0.002-0.005,0.001-0.01-0.003-0.014c-0.01-0.014-0.001-0.033-0.012-0.047
		c-0.001-0.009-0.003-0.018-0.004-0.028c-0.043-0.217-0.064-0.437-0.071-0.658c-0.001-0.018-0.002-0.035-0.004-0.053
		c0.001-0.02,0.003-0.04,0.003-0.06c-0.005-0.237,0.006-0.473,0.03-0.709c0.004-0.045,0.022-0.088,0.016-0.134
		c0.012-0.02,0-0.044,0.012-0.064c0.001-0.009,0.003-0.018,0.004-0.027c0.018-0.017,0.015-0.042,0.02-0.063
		c0.021-0.091,0.05-0.179,0.089-0.264C17.79,5.37,17.875,5.26,18,5.183c0.09-0.055,0.189-0.084,0.292-0.096
		c0.125-0.014,0.251-0.013,0.376,0.013c0.199,0.043,0.345,0.157,0.441,0.336c0.055,0.103,0.09,0.212,0.117,0.325
		c0.003,0.012,0.008,0.023,0.012,0.035c0.001,0.009,0.002,0.018,0.003,0.027c0.01,0.014,0.001,0.034,0.012,0.048
		c0.001,0.009,0.002,0.019,0.003,0.028c0.013,0.025-0.003,0.054,0.012,0.078c0,0.01-0.002,0.02,0,0.03
		C19.3,6.274,19.303,6.54,19.3,6.807c0,0.025,0.001,0.05,0.001,0.075c-0.004,0.06-0.007,0.119-0.011,0.179
		C19.284,7.153,19.276,7.245,19.269,7.337z"/>
	<path fill="#F80AAF" d="M17.636,7.561c0.013,0.014,0.014,0.03,0.012,0.047C17.631,7.596,17.634,7.579,17.636,7.561z"/>
	<path fill="#F80AAF" d="M17.666,7.668c0.01,0.008,0.012,0.019,0.011,0.031C17.666,7.691,17.664,7.68,17.666,7.668z"/>
	<path fill="#F80AAF" d="M17.651,7.622c0.011,0.008,0.014,0.019,0.012,0.032C17.651,7.647,17.649,7.635,17.651,7.622z"/>
	<path fill="#F80AAF" d="M17.682,7.713c0.012,0.008,0.014,0.019,0.013,0.032C17.682,7.737,17.68,7.726,17.682,7.713z"/>
	<path fill="#FA08C1" d="M19.038,7.985c0.002-0.009,0.008-0.015,0.016-0.019C19.054,7.976,19.048,7.983,19.038,7.985z"/>
	<path fill="#FA08C1" d="M19.025,8.001c0.001-0.009,0.005-0.015,0.014-0.017C19.038,7.993,19.034,7.999,19.025,8.001z"/>
	<path fill="#FA08C1" d="M19.01,8.016c0.001-0.009,0.007-0.014,0.015-0.016C19.023,8.009,19.018,8.014,19.01,8.016z"/>
	<path fill="#FA08C1" d="M18.995,8.031c0.001-0.009,0.006-0.014,0.015-0.015C19.008,8.024,19.003,8.029,18.995,8.031z"/>
	<path fill="#FA08C1" d="M18.979,8.046c0.002-0.009,0.008-0.013,0.016-0.015C18.993,8.04,18.988,8.044,18.979,8.046z"/>
	<path fill="#FA08C1" d="M18.962,8.061c0.003-0.009,0.008-0.014,0.017-0.015C18.977,8.054,18.971,8.06,18.962,8.061z"/>
	<path fill="#FA08C1" d="M18.938,8.078c0.001-0.006,0.004-0.01,0.011-0.01C18.946,8.071,18.942,8.075,18.938,8.078z"/>
	<path fill="#FA08C1" d="M18.919,8.092c0.002-0.008,0.008-0.012,0.016-0.012C18.93,8.084,18.925,8.088,18.919,8.092z"/>
	<path fill="#FA08C1" d="M19.103,7.896c0-0.009,0.004-0.017,0.013-0.021C19.115,7.885,19.111,7.892,19.103,7.896z"/>
	<path fill="#FA08C1" d="M19.091,7.911c-0.001-0.008,0.003-0.012,0.011-0.014C19.099,7.902,19.095,7.906,19.091,7.911z"/>
	<path fill="#FA08C1" d="M19.072,7.941c0.001-0.009,0.005-0.015,0.013-0.019C19.085,7.932,19.08,7.938,19.072,7.941z"/>
	<path fill="#FA08C1" d="M19.06,7.956c-0.001-0.008,0.003-0.013,0.011-0.014C19.068,7.947,19.064,7.952,19.06,7.956z"/>
	<path fill="#F21464" d="M17.617,5.855c0.002,0.022,0.003,0.044-0.012,0.064C17.605,5.896,17.597,5.873,17.617,5.855z"/>
	<path fill="#F21464" d="M19.268,5.978c-0.015-0.024-0.013-0.051-0.012-0.078C19.278,5.923,19.267,5.952,19.268,5.978z"/>
	<path fill="#F21464" d="M19.253,5.872c-0.013-0.014-0.015-0.03-0.012-0.048C19.257,5.837,19.254,5.855,19.253,5.872z"/>
	<path fill="#F70CA1" d="M19.256,7.427c-0.001-0.022-0.003-0.044,0.011-0.064C19.269,7.385,19.276,7.408,19.256,7.427z"/>
	<path fill="#F31368" d="M7.557,3.938c0.001,0.005-0.001,0.008-0.005,0.011C7.549,3.954,7.545,3.96,7.541,3.965l0.001-0.001
		c-0.011,0.007-0.008,0.022-0.016,0.03l0,0c-0.01,0.007-0.006,0.022-0.017,0.028L7.508,4.023c-0.004,0.007-0.01,0.012-0.012,0.02
		c0.001,0.005-0.001,0.008-0.005,0.011C7.488,4.06,7.484,4.066,7.48,4.071C7.479,4.076,7.477,4.08,7.475,4.085
		c-0.002,0.006-0.006,0.011-0.01,0.016C7.464,4.114,7.456,4.122,7.447,4.13c-0.005,0.006-0.01,0.012-0.011,0.02
		c0.001,0.004,0,0.008-0.004,0.01C7.428,4.166,7.423,4.172,7.42,4.178c0.001,0.005-0.001,0.009-0.005,0.013
		c-0.003,0.006-0.006,0.011-0.01,0.015l0-0.001C7.398,4.211,7.392,4.217,7.391,4.227c0.001,0.004,0,0.007-0.004,0.009
		C7.382,4.242,7.376,4.248,7.376,4.257C7.32,4.358,7.265,4.46,7.208,4.56C7.037,4.862,6.865,5.163,6.693,5.465
		c-0.009,0.015-0.02,0.029-0.03,0.043c-0.045-0.032-0.095-0.04-0.149-0.038C6.165,5.481,5.816,5.49,5.467,5.484
		C5.426,5.484,5.381,5.494,5.345,5.461C5.36,5.414,5.389,5.376,5.412,5.335c0.225-0.396,0.45-0.792,0.676-1.187
		c0.05-0.087,0.101-0.174,0.152-0.26c0.005-0.005,0.01-0.011,0.011-0.018c0-0.005,0.002-0.009,0.006-0.012
		c0.003-0.006,0.006-0.011,0.01-0.016C6.27,3.836,6.272,3.831,6.274,3.826c0.002-0.005,0.006-0.01,0.01-0.014l0-0.001
		C6.32,3.787,6.36,3.788,6.401,3.788c0.179,0,0.357-0.004,0.536,0.001c0.181,0.005,0.361-0.024,0.543-0.016
		c0.053,0.002,0.108,0,0.139,0.055c-0.002,0.005-0.004,0.01-0.006,0.014C7.609,3.848,7.605,3.854,7.602,3.859l0.001-0.001
		C7.591,3.865,7.595,3.88,7.585,3.887l0,0C7.577,3.895,7.58,3.91,7.57,3.917L7.569,3.918C7.565,3.924,7.559,3.93,7.557,3.938z"/>
	<path fill="#F80BAB" d="M5.723,8.642c-0.045-0.06-0.078-0.128-0.115-0.193C5.36,8.014,5.113,7.58,4.867,7.146
		C4.858,7.13,4.853,7.114,4.845,7.098C4.83,7.06,4.855,7.042,4.882,7.027C4.905,7.015,4.93,7.012,4.955,7.012
		c0.379-0.014,0.758-0.021,1.137-0.016c0.046,0.001,0.09,0.009,0.127,0.038C6.279,7.14,6.339,7.244,6.396,7.35
		c0.219,0.402,0.437,0.805,0.656,1.208c0.008,0.015,0.02,0.029,0.02,0.048C6.91,8.611,6.748,8.618,6.585,8.616
		c-0.221-0.002-0.442,0-0.663-0.001C5.854,8.615,5.787,8.617,5.723,8.642z"/>
	<path fill="#F50F8A" d="M6.22,7.034c-0.008,0-0.016,0.002-0.023,0c-0.061-0.02-0.124-0.014-0.187-0.015c-0.221,0-0.443,0-0.664,0
		c-0.035,0-0.07-0.002-0.104,0.011c-0.018,0.007-0.04,0.004-0.06,0.004c-0.078,0-0.156,0.001-0.234,0
		c-0.026,0-0.05,0.003-0.073,0.015C4.857,7.06,4.847,7.076,4.845,7.098C4.808,7.053,4.785,7,4.756,6.95
		C4.718,6.885,4.683,6.818,4.644,6.753C4.629,6.729,4.627,6.71,4.643,6.685c0.045-0.076,0.087-0.153,0.13-0.23
		c0.18-0.315,0.36-0.629,0.54-0.944c0.01-0.017,0.022-0.034,0.033-0.05c0.264,0,0.528,0,0.792,0c0.013,0,0.026,0.002,0.038-0.001
		c0.099-0.026,0.2-0.01,0.3-0.014c0.04-0.002,0.081,0.002,0.121-0.001C6.632,5.443,6.652,5.459,6.66,5.493
		c0.001,0.005,0.002,0.01,0.003,0.015C6.629,5.587,6.582,5.658,6.54,5.732c-0.16,0.285-0.323,0.569-0.485,0.853
		C6.05,6.594,6.045,6.603,6.039,6.611c-0.02,0.028-0.017,0.055,0,0.084C6.091,6.787,6.141,6.88,6.191,6.973
		C6.202,6.993,6.211,7.014,6.22,7.034z"/>
	<path fill="#FB06CD" d="M5.723,8.642c0.018-0.04,0.05-0.05,0.092-0.05C6.02,8.593,6.226,8.593,6.432,8.593c0.141,0,0.281,0,0.422,0
		c0.023,0,0.047,0.004,0.067-0.004c0.055-0.022,0.103-0.008,0.151,0.018c0,0,0,0,0,0c0.003,0.005,0.007,0.01,0.01,0.016
		c0.005,0.003,0.007,0.006,0.006,0.012c0.001,0.008,0.006,0.013,0.01,0.019c0.004,0.003,0.006,0.007,0.005,0.012
		C7.105,8.672,7.11,8.677,7.115,8.683l0.001,0.002c0.01,0.007,0.006,0.021,0.015,0.028l0.001,0.002
		c0.005,0.003,0.008,0.007,0.009,0.013c0.076,0.138,0.152,0.277,0.228,0.415c0.155,0.284,0.309,0.568,0.463,0.853
		c0.011,0.02,0.019,0.041,0.028,0.061c-0.01,0.009-0.022,0.013-0.035,0.011c-0.219-0.035-0.437-0.003-0.656,0
		c-0.144,0.002-0.287,0.002-0.431,0c-0.064-0.001-0.125,0.009-0.183,0.039c-0.011-0.016-0.023-0.032-0.033-0.05
		C6.342,9.74,6.162,9.423,5.981,9.106c-0.011-0.019-0.02-0.04-0.03-0.06c-0.01-0.007-0.006-0.022-0.016-0.029l0,0
		c-0.005-0.005-0.008-0.01-0.011-0.015C5.92,8.998,5.919,8.994,5.92,8.989C5.916,8.983,5.913,8.977,5.909,8.971
		C5.905,8.969,5.903,8.966,5.904,8.962C5.903,8.953,5.897,8.947,5.892,8.94C5.888,8.939,5.887,8.936,5.889,8.932
		C5.888,8.922,5.882,8.916,5.875,8.91l0,0C5.867,8.902,5.87,8.887,5.859,8.88L5.86,8.882C5.856,8.876,5.852,8.87,5.848,8.865
		C5.844,8.863,5.842,8.86,5.843,8.855C5.842,8.847,5.837,8.841,5.832,8.834C5.828,8.832,5.827,8.83,5.828,8.825
		C5.827,8.816,5.821,8.81,5.815,8.804l0,0c-0.008-0.009-0.006-0.023-0.016-0.03l0,0.001C5.795,8.77,5.792,8.765,5.789,8.759
		c-0.005-0.002-0.006-0.005-0.006-0.01c-0.002-0.008-0.007-0.014-0.011-0.02C5.768,8.727,5.767,8.724,5.768,8.72
		C5.767,8.711,5.761,8.704,5.754,8.698l0,0C5.746,8.69,5.749,8.676,5.739,8.668l0,0.001c-0.005-0.005-0.008-0.01-0.011-0.016
		C5.723,8.65,5.721,8.647,5.723,8.642z"/>
	<path fill="#F01845" d="M7.619,3.828c-0.002,0-0.005,0-0.007-0.001C7.565,3.796,7.513,3.795,7.46,3.797
		c-0.043,0.002-0.086,0-0.128,0c-0.043,0-0.085-0.003-0.127,0.012C7.184,3.816,7.16,3.812,7.137,3.812c-0.284,0-0.569,0-0.853,0
		C6.32,3.729,6.37,3.653,6.415,3.574C6.583,3.276,6.754,2.98,6.923,2.682c0.004-0.007,0.008-0.013,0.011-0.02
		c0.014-0.035,0.04-0.044,0.077-0.045C7.22,2.613,7.429,2.606,7.638,2.599c0.206-0.007,0.413-0.015,0.619-0.022
		c0.018-0.001,0.035-0.001,0.053,0c0.012,0.001,0.018,0.01,0.013,0.021C8.307,2.629,8.29,2.66,8.273,2.69
		C8.07,3.047,7.867,3.404,7.664,3.76C7.651,3.783,7.641,3.811,7.619,3.828z"/>
	<path fill="#FD03EA" d="M6.556,10.106c0.002-0.022,0.011-0.038,0.033-0.045c0.033-0.011,0.067-0.017,0.103-0.017
		c0.188,0.001,0.376,0.001,0.565,0c0.032,0,0.065,0.001,0.097-0.01c0.018-0.006,0.04-0.005,0.059-0.005c0.095,0,0.191,0,0.286,0
		c0.056,0,0.108,0.016,0.162,0.027c0,0,0,0,0,0c0.002,0.007,0.006,0.012,0.01,0.017c0.004,0.003,0.006,0.006,0.004,0.011
		c0.001,0.008,0.006,0.014,0.012,0.02l0.001,0.002c0.009,0.007,0.006,0.021,0.015,0.029l0,0.001
		c0.009,0.007,0.005,0.022,0.016,0.028l0,0c0.004,0.005,0.007,0.01,0.01,0.015c0.002,0.005,0.004,0.009,0.005,0.014
		c0.003,0.005,0.007,0.011,0.01,0.016c0.005,0.002,0.007,0.006,0.006,0.012c0,0.008,0.006,0.013,0.01,0.019
		c0.004,0.003,0.006,0.007,0.005,0.012c0.001,0.008,0.007,0.013,0.012,0.019l0.001,0.002c0.009,0.007,0.006,0.021,0.014,0.028
		l0.001,0.002C8.003,10.31,8,10.325,8.01,10.331l0,0.001c0.007,0.009,0.004,0.023,0.015,0.03c0.019,0.014,0.024,0.037,0.035,0.057
		c0.082,0.15,0.164,0.299,0.245,0.45c0.008,0.015,0.023,0.028,0.017,0.05c-0.017,0.01-0.037,0.004-0.056,0.003
		c-0.085-0.005-0.171-0.011-0.256-0.017c-0.289-0.02-0.577-0.041-0.866-0.061c-0.053-0.004-0.105-0.008-0.158-0.012
		c-0.016-0.001-0.029-0.007-0.037-0.022c-0.031-0.057-0.069-0.111-0.093-0.172c-0.003-0.007-0.008-0.013-0.012-0.019
		c-0.004-0.002-0.005-0.005-0.004-0.009c-0.001-0.009-0.007-0.015-0.012-0.021l0-0.001c-0.01-0.007-0.007-0.022-0.016-0.029l0,0
		c-0.008-0.008-0.005-0.024-0.018-0.03l0.001,0.002c-0.001-0.008-0.008-0.012-0.011-0.018c-0.004-0.002-0.005-0.006-0.004-0.01
		c-0.002-0.008-0.007-0.014-0.012-0.02l0-0.001c-0.01-0.007-0.007-0.022-0.016-0.029l0,0c-0.005-0.004-0.008-0.009-0.011-0.015
		c-0.005-0.002-0.007-0.006-0.006-0.011c-0.002-0.007-0.007-0.013-0.011-0.019c-0.004-0.002-0.006-0.006-0.004-0.011
		c-0.002-0.008-0.008-0.014-0.013-0.02l0-0.001c-0.01-0.007-0.007-0.021-0.015-0.03l0,0c-0.009-0.008-0.006-0.023-0.017-0.029
		l0.001,0.001c-0.004-0.006-0.007-0.011-0.011-0.017c-0.004-0.002-0.006-0.006-0.005-0.011c-0.002-0.008-0.007-0.014-0.012-0.02
		l-0.004-0.003l0.001-0.005c0-0.01-0.006-0.016-0.012-0.023l0-0.001c-0.005-0.004-0.009-0.008-0.011-0.014
		c-0.005-0.003-0.007-0.007-0.006-0.012c-0.008-0.01-0.004-0.025-0.017-0.032L6.6,10.184c-0.001-0.008-0.008-0.012-0.012-0.018
		c-0.004-0.002-0.005-0.004-0.003-0.008c-0.001-0.009-0.007-0.016-0.013-0.022l0,0C6.563,10.127,6.566,10.112,6.556,10.106
		L6.556,10.106z"/>
	<path fill="#F01845" d="M7.509,4.022C7.51,4.01,7.514,3.999,7.526,3.994C7.526,4.007,7.52,4.016,7.509,4.022z"/>
	<path fill="#F01845" d="M7.585,3.887c0-0.013,0.004-0.024,0.017-0.03C7.602,3.871,7.596,3.88,7.585,3.887z"/>
	<path fill="#F80BAB" d="M5.739,8.668c0.013,0.006,0.016,0.017,0.016,0.03C5.743,8.691,5.739,8.681,5.739,8.668z"/>
	<path fill="#F80BAB" d="M7.131,8.713C7.119,8.707,7.116,8.697,7.116,8.685C7.127,8.691,7.131,8.701,7.131,8.713z"/>
	<path fill="#F80BAB" d="M5.799,8.774c0.013,0.006,0.016,0.017,0.016,0.03C5.803,8.798,5.799,8.787,5.799,8.774z"/>
	<path fill="#F80BAB" d="M5.859,8.88c0.013,0.006,0.017,0.017,0.017,0.03C5.863,8.904,5.859,8.893,5.859,8.88z"/>
	<path fill="#F80BAB" d="M5.936,9.016c0.013,0.006,0.016,0.016,0.016,0.029C5.942,9.038,5.936,9.029,5.936,9.016z"/>
	<path fill="#F01845" d="M7.57,3.917C7.57,3.904,7.574,3.894,7.585,3.888C7.586,3.9,7.582,3.911,7.57,3.917z"/>
	<path fill="#FB06CD" d="M6.556,10.106c0.013,0.006,0.017,0.016,0.016,0.029C6.56,10.129,6.555,10.119,6.556,10.106z"/>
	<path fill="#FB06CD" d="M7.903,10.135c-0.012-0.006-0.015-0.016-0.015-0.029C7.9,10.113,7.904,10.123,7.903,10.135z"/>
	<path fill="#FB06CD" d="M7.919,10.165c-0.013-0.005-0.016-0.016-0.016-0.028C7.914,10.143,7.919,10.152,7.919,10.165z"/>
	<path fill="#FB06CD" d="M6.599,10.182c0.016,0.005,0.019,0.017,0.017,0.032C6.605,10.206,6.6,10.195,6.599,10.182z"/>
	<path fill="#F01845" d="M7.525,3.994c0-0.013,0.003-0.025,0.016-0.03C7.541,3.976,7.536,3.987,7.525,3.994z"/>
	<path fill="#FB06CD" d="M7.993,10.302c-0.012-0.006-0.015-0.016-0.014-0.028C7.99,10.28,7.994,10.289,7.993,10.302z"/>
	<path fill="#FB06CD" d="M8.01,10.331c-0.013-0.005-0.016-0.015-0.016-0.028C8.004,10.31,8.011,10.318,8.01,10.331z"/>
	<path fill="#FB06CD" d="M6.676,10.318c0.013,0.005,0.018,0.016,0.017,0.029C6.683,10.34,6.676,10.331,6.676,10.318z"/>
	<path fill="#FB06CD" d="M8.026,10.361c-0.013-0.006-0.016-0.016-0.015-0.03C8.022,10.338,8.025,10.349,8.026,10.361z"/>
	<path fill="#FB06CD" d="M6.693,10.347c0.012,0.006,0.015,0.017,0.015,0.03C6.697,10.37,6.693,10.36,6.693,10.347z"/>
	<path fill="#FB06CD" d="M6.753,10.453c0.012,0.006,0.016,0.017,0.016,0.029C6.757,10.476,6.753,10.466,6.753,10.453z"/>
	<path fill="#FB06CD" d="M6.796,10.53c0.015,0.004,0.018,0.016,0.018,0.03C6.803,10.553,6.797,10.543,6.796,10.53z"/>
	<path fill="#FB06CD" d="M6.813,10.559c0.012,0.006,0.016,0.016,0.016,0.029C6.818,10.582,6.813,10.572,6.813,10.559z"/>
	<path fill="#F01845" d="M7.376,4.257c0-0.009,0.003-0.016,0.011-0.021C7.388,4.245,7.384,4.252,7.376,4.257z"/>
	<path fill="#F01845" d="M6.284,3.813c-0.003,0.005-0.007,0.009-0.01,0.014C6.273,3.819,6.277,3.815,6.284,3.813z"/>
	<path fill="#F80BAB" d="M7.083,8.622c-0.007-0.003-0.01-0.008-0.01-0.016C7.08,8.609,7.083,8.614,7.083,8.622z"/>
	<path fill="#F80BAB" d="M7.099,8.652c-0.007-0.004-0.011-0.01-0.01-0.019C7.097,8.637,7.1,8.644,7.099,8.652z"/>
	<path fill="#F80BAB" d="M5.728,8.653c0.004,0.005,0.008,0.011,0.011,0.016C5.731,8.666,5.727,8.661,5.728,8.653z"/>
	<path fill="#F01845" d="M6.268,3.841c-0.003,0.005-0.007,0.011-0.01,0.016C6.258,3.849,6.261,3.844,6.268,3.841z"/>
	<path fill="#F80BAB" d="M7.115,8.683c-0.008-0.004-0.012-0.01-0.012-0.019C7.112,8.668,7.116,8.674,7.115,8.683z"/>
	<path fill="#F01845" d="M7.602,3.859c0.004-0.005,0.007-0.011,0.011-0.016C7.613,3.851,7.61,3.857,7.602,3.859z"/>
	<path fill="#F80BAB" d="M5.754,8.698C5.763,8.703,5.768,8.71,5.768,8.72C5.759,8.716,5.754,8.709,5.754,8.698z"/>
	<path fill="#F80BAB" d="M7.141,8.728C7.138,8.723,7.135,8.719,7.132,8.715C7.138,8.717,7.142,8.721,7.141,8.728z"/>
	<path fill="#F80BAB" d="M5.772,8.728C5.78,8.733,5.783,8.74,5.783,8.749C5.775,8.744,5.771,8.738,5.772,8.728z"/>
	<path fill="#F80BAB" d="M5.789,8.759C5.796,8.762,5.799,8.767,5.8,8.775C5.792,8.772,5.788,8.767,5.789,8.759z"/>
	<path fill="#F01845" d="M6.252,3.869c0,0.008-0.004,0.014-0.011,0.018C6.24,3.878,6.244,3.872,6.252,3.869z"/>
	<path fill="#F80BAB" d="M5.815,8.804c0.009,0.004,0.013,0.011,0.014,0.021C5.819,8.821,5.815,8.814,5.815,8.804z"/>
	<path fill="#F80BAB" d="M5.832,8.834C5.84,8.839,5.844,8.846,5.843,8.855C5.835,8.851,5.831,8.844,5.832,8.834z"/>
	<path fill="#F80BAB" d="M5.848,8.865C5.855,8.868,5.859,8.873,5.86,8.882C5.852,8.879,5.848,8.873,5.848,8.865z"/>
	<path fill="#F01845" d="M7.557,3.938c0.001-0.009,0.005-0.015,0.012-0.02C7.569,3.926,7.565,3.933,7.557,3.938z"/>
	<path fill="#F01845" d="M7.541,3.965c0.004-0.005,0.008-0.011,0.011-0.016C7.553,3.957,7.549,3.962,7.541,3.965z"/>
	<path fill="#F80BAB" d="M5.875,8.91c0.009,0.005,0.013,0.012,0.013,0.022C5.88,8.927,5.876,8.92,5.875,8.91z"/>
	<path fill="#F80BAB" d="M5.892,8.94C5.9,8.945,5.904,8.952,5.904,8.962C5.895,8.957,5.891,8.95,5.892,8.94z"/>
	<path fill="#F01845" d="M7.496,4.044c0-0.009,0.004-0.016,0.012-0.02C7.508,4.032,7.504,4.039,7.496,4.044z"/>
	<path fill="#F80BAB" d="M5.909,8.971C5.916,8.974,5.92,8.98,5.92,8.989C5.912,8.985,5.909,8.979,5.909,8.971z"/>
	<path fill="#F01845" d="M7.48,4.071C7.484,4.066,7.488,4.06,7.492,4.055C7.492,4.063,7.488,4.068,7.48,4.071z"/>
	<path fill="#F80BAB" d="M5.925,9.001c0.004,0.005,0.007,0.01,0.011,0.015C5.928,9.014,5.924,9.01,5.925,9.001z"/>
	<path fill="#F01845" d="M7.465,4.101c0.003-0.005,0.007-0.011,0.01-0.016C7.476,4.093,7.472,4.098,7.465,4.101z"/>
	<path fill="#F01845" d="M7.436,4.15c0-0.009,0.004-0.015,0.011-0.02C7.447,4.139,7.444,4.146,7.436,4.15z"/>
	<path fill="#F01845" d="M7.42,4.178C7.424,4.172,7.428,4.166,7.432,4.16C7.432,4.169,7.428,4.175,7.42,4.178z"/>
	<path fill="#F01845" d="M7.404,4.206c0.003-0.005,0.007-0.01,0.01-0.015C7.415,4.199,7.412,4.204,7.404,4.206z"/>
	<path fill="#F01845" d="M7.391,4.227c0-0.01,0.005-0.017,0.014-0.021C7.404,4.215,7.4,4.222,7.391,4.227z"/>
	<path fill="#FB06CD" d="M7.871,10.074c-0.007-0.003-0.011-0.009-0.01-0.017C7.869,10.06,7.872,10.066,7.871,10.074z"/>
	<path fill="#FB06CD" d="M7.887,10.105c-0.008-0.004-0.012-0.011-0.012-0.02C7.884,10.089,7.888,10.096,7.887,10.105z"/>
	<path fill="#FB06CD" d="M6.572,10.135c0.009,0.005,0.013,0.012,0.013,0.022C6.576,10.153,6.572,10.145,6.572,10.135z"/>
	<path fill="#FB06CD" d="M6.588,10.165c0.007,0.004,0.012,0.01,0.012,0.018C6.591,10.181,6.587,10.175,6.588,10.165z"/>
	<path fill="#FB06CD" d="M7.93,10.18c-0.003-0.005-0.007-0.01-0.01-0.015C7.928,10.167,7.931,10.172,7.93,10.18z"/>
	<path fill="#FB06CD" d="M7.945,10.21c-0.007-0.003-0.01-0.008-0.01-0.016C7.942,10.197,7.946,10.202,7.945,10.21z"/>
	<path fill="#FB06CD" d="M6.622,10.226c0.004,0.005,0.007,0.01,0.011,0.014C6.626,10.238,6.622,10.234,6.622,10.226z"/>
	<path fill="#FB06CD" d="M7.961,10.241c-0.007-0.004-0.011-0.011-0.01-0.019C7.959,10.226,7.962,10.232,7.961,10.241z"/>
	<path fill="#FB06CD" d="M6.633,10.241c0.009,0.005,0.013,0.013,0.012,0.023C6.636,10.259,6.633,10.251,6.633,10.241z"/>
	<path fill="#FB06CD" d="M7.978,10.271c-0.008-0.004-0.012-0.01-0.012-0.019C7.975,10.256,7.979,10.262,7.978,10.271z"/>
	<path fill="#FB06CD" d="M6.649,10.271c0.008,0.004,0.012,0.011,0.012,0.02C6.653,10.287,6.648,10.281,6.649,10.271z"/>
	<path fill="#FB06CD" d="M6.666,10.302c0.007,0.004,0.011,0.009,0.011,0.017C6.668,10.316,6.665,10.31,6.666,10.302z"/>
	<path fill="#FB06CD" d="M6.709,10.377c0.008,0.004,0.012,0.011,0.013,0.02C6.713,10.393,6.709,10.387,6.709,10.377z"/>
	<path fill="#FB06CD" d="M6.726,10.408c0.007,0.004,0.011,0.011,0.011,0.019C6.729,10.423,6.725,10.417,6.726,10.408z"/>
	<path fill="#FB06CD" d="M6.743,10.438c0.004,0.005,0.007,0.01,0.011,0.015C6.746,10.451,6.742,10.446,6.743,10.438z"/>
	<path fill="#FB06CD" d="M6.77,10.483c0.008,0.004,0.012,0.011,0.012,0.02C6.774,10.499,6.77,10.492,6.77,10.483z"/>
	<path fill="#FB06CD" d="M6.786,10.514c0.007,0.004,0.011,0.009,0.011,0.018C6.788,10.529,6.785,10.522,6.786,10.514z"/>
	<path fill="#FB06CD" d="M6.83,10.589c0.008,0.005,0.012,0.012,0.012,0.021C6.834,10.606,6.83,10.598,6.83,10.589z"/>
	<path fill="#FB06CD" d="M6.846,10.62c0.004,0.006,0.008,0.012,0.012,0.019C6.85,10.635,6.845,10.629,6.846,10.62z"/>
</g>
</svg>
