<?xml version="1.0" encoding="utf-8"?>
<!-- Generator: Adobe Illustrator 24.3.0, SVG Export Plug-In . SVG Version: 6.00 Build 0)  -->
<svg version="1.1" id="Слой_1" xmlns="http://www.w3.org/2000/svg" xmlns:xlink="http://www.w3.org/1999/xlink" x="0px" y="0px"
	 width="32px" height="13px" viewBox="0 0 32 13" enable-background="new 0 0 32 13" xml:space="preserve">
<g>
	<path d="M32,6.138c-0.098-0.205-0.195-0.41-0.293-0.615c-0.122-0.256-0.245-0.512-0.368-0.769c-0.095-0.199-0.19-0.397-0.285-0.595
		c-0.122-0.254-0.243-0.508-0.364-0.762C30.595,3.199,30.5,3,30.405,2.802c-0.122-0.254-0.243-0.508-0.365-0.762
		c-0.095-0.199-0.19-0.397-0.285-0.596c-0.122-0.256-0.245-0.513-0.367-0.769c-0.021-0.045-0.044-0.088-0.067-0.132
		c-0.017,0.014-0.025,0.032-0.033,0.049c-0.06,0.126-0.119,0.253-0.179,0.379c-0.082,0.173-0.166,0.345-0.249,0.518
		c-0.057,0.12-0.113,0.24-0.17,0.359c-0.087,0.184-0.175,0.367-0.263,0.551c-0.057,0.12-0.113,0.24-0.17,0.359
		c-0.089,0.186-0.178,0.371-0.266,0.557c-0.053,0.111-0.106,0.222-0.158,0.334c-0.092,0.192-0.184,0.384-0.275,0.577
		c-0.058,0.122-0.115,0.244-0.173,0.366c-0.086,0.182-0.174,0.363-0.26,0.544c-0.053,0.111-0.106,0.222-0.159,0.333
		c-0.092,0.192-0.184,0.384-0.275,0.577c-0.059,0.124-0.117,0.249-0.176,0.373c-0.014,0.03-0.029,0.059-0.044,0.089
		c-0.009,0.018-0.01,0.035-0.001,0.055c0.05,0.104,0.1,0.209,0.15,0.314c0.035,0.073,0.07,0.145,0.105,0.217
		c0.108,0.229,0.216,0.458,0.325,0.687c0.094,0.199,0.189,0.398,0.284,0.596c0.106,0.222,0.212,0.444,0.318,0.667
		c0.066,0.139,0.131,0.279,0.196,0.418c0.091,0.193,0.183,0.385,0.274,0.577c0.084,0.175,0.168,0.35,0.251,0.525
		c0.055,0.115,0.109,0.231,0.164,0.347c0.089,0.188,0.179,0.376,0.269,0.564c0.056,0.118,0.111,0.236,0.167,0.353
		c0.089,0.188,0.179,0.376,0.269,0.564c0.024,0.051,0.048,0.103,0.073,0.154c0.004,0.008,0.01,0.016,0.017,0.027
		c0.019-0.035,0.037-0.067,0.054-0.1c0.057-0.114,0.112-0.229,0.169-0.344c0.088-0.178,0.176-0.356,0.264-0.534
		c0.053-0.108,0.106-0.217,0.16-0.325c0.093-0.189,0.187-0.377,0.28-0.566c0.061-0.123,0.12-0.247,0.181-0.37
		c0.083-0.167,0.166-0.334,0.249-0.502c0.057-0.114,0.112-0.229,0.169-0.344c0.089-0.18,0.178-0.36,0.267-0.54
		c0.052-0.106,0.104-0.212,0.157-0.318c0.092-0.186,0.185-0.373,0.276-0.559c0.06-0.121,0.118-0.242,0.177-0.363
		c0.08-0.163,0.161-0.327,0.242-0.489C31.983,7.204,31.983,7.182,32,7.172C32,6.827,32,6.483,32,6.138z"/>
	<path d="M16.126,12.997c1.139,0,2.277,0,3.416,0c0.028,0,0.06,0.011,0.083-0.006c0.019-0.015,0.029-0.047,0.042-0.072
		c0.107-0.197,0.214-0.393,0.32-0.59c0.058-0.108,0.116-0.216,0.174-0.324c0.086-0.16,0.173-0.319,0.259-0.478
		c0.055-0.102,0.109-0.204,0.164-0.305c0.09-0.166,0.179-0.331,0.269-0.497c0.057-0.106,0.113-0.212,0.17-0.318
		c0.088-0.164,0.177-0.327,0.265-0.491c0.054-0.099,0.107-0.199,0.161-0.299c0.091-0.168,0.182-0.336,0.272-0.504
		c0.057-0.106,0.113-0.212,0.17-0.318c0.087-0.162,0.175-0.323,0.262-0.485c0.056-0.104,0.111-0.208,0.167-0.311
		c0.089-0.166,0.179-0.331,0.269-0.497c0.056-0.104,0.111-0.208,0.167-0.311c0.112-0.207,0.225-0.414,0.336-0.622
		c0.045-0.084,0.045-0.052-0.001-0.14c-0.06-0.115-0.123-0.228-0.185-0.342c-0.087-0.162-0.175-0.323-0.262-0.485
		c-0.056-0.104-0.111-0.208-0.167-0.311c-0.09-0.166-0.18-0.331-0.269-0.497c-0.058-0.108-0.115-0.216-0.173-0.324
		c-0.085-0.158-0.171-0.315-0.256-0.472c-0.059-0.11-0.118-0.22-0.177-0.33c-0.086-0.16-0.173-0.319-0.259-0.478
		c-0.055-0.102-0.109-0.204-0.164-0.305c-0.091-0.168-0.182-0.336-0.272-0.504c-0.055-0.102-0.109-0.203-0.164-0.305
		c-0.089-0.166-0.179-0.332-0.269-0.497c-0.054-0.1-0.107-0.199-0.161-0.299c-0.092-0.17-0.184-0.34-0.275-0.51
		c-0.084-0.156-0.167-0.312-0.25-0.467c-0.049-0.091-0.099-0.182-0.147-0.274C19.63,0.009,19.618-0.001,19.598,0
		c-0.015,0.001-0.03,0-0.045,0c-2.288,0-4.576,0-6.864,0c-0.075,0-0.074,0.001-0.111,0.07c-0.091,0.17-0.184,0.34-0.275,0.51
		c-0.084,0.156-0.167,0.312-0.251,0.467c-0.084,0.156-0.168,0.311-0.252,0.466c-0.055,0.102-0.109,0.203-0.164,0.305
		c-0.09,0.166-0.179,0.331-0.269,0.497c-0.055,0.102-0.109,0.204-0.164,0.305c-0.091,0.168-0.182,0.336-0.272,0.503
		c-0.058,0.108-0.116,0.216-0.174,0.324c-0.086,0.16-0.173,0.319-0.259,0.478c-0.056,0.104-0.111,0.208-0.167,0.311
		c-0.088,0.164-0.177,0.327-0.266,0.491c-0.057,0.106-0.113,0.212-0.17,0.318C9.805,5.21,9.717,5.374,9.628,5.538
		C9.575,5.637,9.521,5.737,9.467,5.836C9.377,6.004,9.286,6.172,9.195,6.34C9.171,6.385,9.147,6.432,9.122,6.477
		c-0.009,0.017-0.008,0.03,0.001,0.047c0.128,0.236,0.256,0.472,0.384,0.708C9.59,7.387,9.673,7.543,9.757,7.699
		c0.084,0.155,0.168,0.311,0.252,0.466c0.055,0.102,0.109,0.203,0.164,0.305c0.089,0.166,0.179,0.332,0.269,0.497
		c0.055,0.102,0.109,0.203,0.164,0.305c0.091,0.168,0.182,0.336,0.272,0.503c0.059,0.11,0.118,0.22,0.177,0.33
		c0.084,0.155,0.169,0.31,0.253,0.466c0.057,0.106,0.113,0.212,0.17,0.318c0.088,0.164,0.177,0.327,0.266,0.491
		c0.054,0.099,0.107,0.199,0.161,0.299c0.092,0.17,0.184,0.34,0.275,0.51c0.058,0.108,0.116,0.216,0.174,0.324
		c0.079,0.147,0.159,0.294,0.237,0.442c0.016,0.031,0.036,0.046,0.068,0.042c0.015-0.002,0.03,0,0.045,0
		C13.845,12.997,14.986,12.997,16.126,12.997z"/>
	<path d="M27.972,0.123c-2.266,0-4.53,0-6.794,0c-0.01,0-0.021-0.003-0.033,0.01c0.015,0.045,0.036,0.09,0.055,0.136
		c0.036,0.085,0.074,0.17,0.111,0.255c0.065,0.148,0.129,0.296,0.194,0.444c0.052,0.12,0.104,0.24,0.156,0.36
		c0.093,0.213,0.186,0.426,0.279,0.64c0.053,0.122,0.106,0.244,0.159,0.366c0.092,0.211,0.184,0.422,0.275,0.634
		c0.058,0.133,0.114,0.266,0.172,0.399c0.086,0.198,0.173,0.396,0.259,0.594c0.06,0.137,0.119,0.275,0.178,0.412
		c0.085,0.196,0.171,0.392,0.256,0.587c0.053,0.122,0.106,0.244,0.159,0.366c0.093,0.213,0.185,0.427,0.278,0.64
		c0.059,0.135,0.117,0.27,0.176,0.405c0.013,0.03,0.016,0.056,0.002,0.088c-0.066,0.147-0.129,0.296-0.193,0.444
		c-0.029,0.068-0.059,0.135-0.088,0.203c-0.109,0.256-0.218,0.511-0.328,0.767C23.173,8.04,23.1,8.208,23.027,8.375
		c-0.096,0.222-0.192,0.445-0.288,0.667c-0.081,0.187-0.163,0.374-0.244,0.562c-0.01,0.023-0.024,0.045-0.016,0.076
		c0.003,0.011-0.006,0.027-0.012,0.04c-0.059,0.138-0.118,0.275-0.177,0.412c-0.03,0.07-0.061,0.139-0.091,0.209
		c-0.085,0.199-0.17,0.398-0.255,0.596c-0.096,0.223-0.192,0.445-0.288,0.667c-0.098,0.227-0.195,0.454-0.293,0.68
		c-0.056,0.129-0.112,0.257-0.168,0.385c-0.01,0.024-0.02,0.048-0.029,0.073c-0.007,0.018-0.002,0.026,0.017,0.026
		c0.013,0.001,0.026,0,0.039,0c1.487,0,2.974,0,4.462,0c0.026,0,0.051,0,0.076-0.011c0.019-0.008,0.043-0.004,0.064-0.004
		c0.691,0,1.381,0,2.072,0c0.104,0,0.094,0.006,0.051-0.091c-0.08-0.18-0.163-0.358-0.244-0.537
		c-0.056-0.123-0.111-0.247-0.166-0.37c-0.088-0.194-0.176-0.389-0.264-0.583c-0.056-0.123-0.111-0.247-0.167-0.37
		c-0.09-0.199-0.18-0.397-0.27-0.596c-0.055-0.121-0.108-0.243-0.163-0.364c-0.089-0.197-0.179-0.393-0.268-0.589
		c-0.057-0.125-0.113-0.251-0.169-0.376c-0.089-0.197-0.178-0.393-0.267-0.59c-0.054-0.119-0.107-0.238-0.161-0.357
		c-0.092-0.203-0.184-0.406-0.275-0.609c-0.057-0.128-0.114-0.256-0.172-0.383c-0.05-0.11-0.099-0.221-0.15-0.33
		c-0.014-0.03-0.016-0.056-0.002-0.088c0.066-0.15,0.131-0.3,0.196-0.45c0.027-0.063,0.056-0.126,0.083-0.189
		c0.085-0.199,0.17-0.398,0.255-0.596c0.098-0.227,0.196-0.453,0.294-0.68c0.07-0.161,0.139-0.323,0.21-0.484
		c0.106-0.244,0.213-0.487,0.319-0.731c0.056-0.128,0.111-0.257,0.166-0.386c0.09-0.207,0.179-0.414,0.269-0.621
		c0.059-0.137,0.118-0.275,0.178-0.412c0.084-0.194,0.168-0.388,0.253-0.581c0.029-0.068,0.058-0.135,0.088-0.203
		c0.092-0.214,0.185-0.427,0.278-0.641c0.052-0.12,0.104-0.24,0.155-0.36C27.96,0.169,27.971,0.151,27.972,0.123z"/>
	<path d="M4.27,0.171C4.263,0.188,4.273,0.2,4.278,0.213c0.095,0.212,0.191,0.424,0.286,0.636C4.66,1.06,4.756,1.272,4.852,1.484
		C4.973,1.752,5.094,2.02,5.215,2.287c0.07,0.156,0.14,0.311,0.211,0.467C5.533,2.99,5.64,3.224,5.747,3.46
		C5.809,3.598,5.87,3.737,5.932,3.876C6.014,4.057,6.097,4.238,6.18,4.42c0.057,0.125,0.112,0.251,0.169,0.376
		C6.436,4.988,6.523,5.18,6.61,5.373c0.056,0.123,0.111,0.247,0.166,0.37c0.087,0.192,0.173,0.385,0.261,0.577
		C7.05,6.346,7.05,6.366,7.038,6.393C6.979,6.525,6.922,6.659,6.865,6.791c-0.09,0.207-0.18,0.413-0.27,0.62
		C6.538,7.543,6.483,7.674,6.426,7.805C6.337,8.009,6.248,8.214,6.16,8.419C6.1,8.556,6.042,8.694,5.982,8.831
		C5.897,9.027,5.812,9.223,5.726,9.419C5.673,9.541,5.621,9.663,5.568,9.785c-0.093,0.216-0.187,0.431-0.28,0.647
		c-0.06,0.14-0.119,0.28-0.18,0.419c-0.083,0.192-0.167,0.383-0.251,0.574c-0.053,0.122-0.105,0.244-0.158,0.366
		c-0.092,0.214-0.185,0.427-0.277,0.641c-0.049,0.113-0.098,0.227-0.147,0.34c-0.003,0.006-0.003,0.013-0.003,0.018
		c0.006,0.015,0.016,0.009,0.023,0.01c0.009,0.001,0.017,0,0.026,0c0.288,0,0.576,0,0.864,0c0.799,0,1.598,0,2.396,0
		c1.145,0,2.29,0,3.435,0c0.022,0,0.043,0,0.065,0c0.016,0,0.022-0.011,0.015-0.029c-0.024-0.057-0.049-0.113-0.074-0.17
		c-0.032-0.074-0.066-0.147-0.098-0.221c-0.086-0.198-0.171-0.397-0.257-0.595c-0.097-0.224-0.195-0.448-0.293-0.673
		c-0.071-0.163-0.142-0.327-0.213-0.49c-0.106-0.244-0.213-0.487-0.32-0.731c-0.061-0.139-0.12-0.279-0.181-0.419
		C9.58,9.284,9.497,9.095,9.414,8.906C9.36,8.782,9.307,8.657,9.253,8.533C9.162,8.322,9.069,8.111,8.978,7.9
		c-0.059-0.135-0.116-0.27-0.175-0.405C8.717,7.298,8.631,7.103,8.546,6.907C8.493,6.785,8.441,6.663,8.387,6.541
		c-0.01-0.023-0.012-0.044-0.001-0.068C8.441,6.347,8.495,6.22,8.55,6.094c0.031-0.072,0.064-0.143,0.095-0.215
		C8.73,5.68,8.815,5.481,8.9,5.282c0.097-0.227,0.195-0.454,0.293-0.681c0.07-0.164,0.141-0.327,0.212-0.491
		C9.51,3.867,9.617,3.624,9.722,3.379C9.74,3.336,9.758,3.292,9.772,3.246c0.02-0.061,0.048-0.119,0.074-0.178
		c0.032-0.074,0.066-0.147,0.097-0.222c0.086-0.201,0.172-0.402,0.258-0.603c0.072-0.168,0.144-0.336,0.217-0.504
		c0.096-0.222,0.192-0.445,0.288-0.667c0.097-0.225,0.193-0.449,0.29-0.674c0.025-0.059,0.051-0.118,0.076-0.177
		c0.004-0.01,0.012-0.02,0.008-0.038c-0.02-0.001-0.04-0.002-0.061-0.002c-0.351,0-0.701,0-1.052,0c-0.933,0-1.866,0-2.799,0
		c-0.03,0-0.059,0.003-0.089-0.011C7.061,0.162,7.037,0.167,7.015,0.167c-0.656,0-1.312,0-1.968,0c-0.238,0-0.476,0-0.714,0
		C4.312,0.167,4.29,0.163,4.27,0.171z"/>
	<path d="M2.911,0.346c-0.057,0.115-0.113,0.228-0.168,0.34C2.652,0.87,2.561,1.055,2.47,1.239C2.413,1.354,2.358,1.469,2.301,1.583
		C2.215,1.759,2.127,1.935,2.04,2.11C1.984,2.225,1.928,2.34,1.871,2.454c-0.089,0.18-0.178,0.36-0.267,0.54
		C1.55,3.105,1.496,3.215,1.441,3.325C1.35,3.51,1.259,3.694,1.168,3.878C1.11,3.995,1.054,4.112,0.996,4.229
		C0.911,4.403,0.824,4.576,0.738,4.75C0.681,4.867,0.624,4.984,0.566,5.1C0.479,5.278,0.39,5.456,0.303,5.634
		C0.251,5.738,0.2,5.842,0.149,5.946C0.103,6.039,0.057,6.133,0.01,6.225c-0.014,0.026-0.013,0.047,0,0.074
		C0.106,6.497,0.2,6.695,0.295,6.894C0.393,7.097,0.49,7.299,0.587,7.502c0.095,0.199,0.19,0.397,0.285,0.596
		C0.994,8.354,1.117,8.61,1.239,8.866c0.096,0.201,0.192,0.401,0.288,0.602c0.096,0.201,0.192,0.401,0.288,0.602
		c0.121,0.252,0.241,0.504,0.362,0.756c0.096,0.201,0.192,0.401,0.288,0.602c0.096,0.201,0.192,0.401,0.288,0.602
		c0.05,0.105,0.1,0.209,0.15,0.314c0.006,0.012,0.013,0.024,0.022,0.038c0.007-0.01,0.013-0.017,0.017-0.025
		c0.055-0.115,0.109-0.231,0.164-0.346c0.084-0.175,0.168-0.35,0.252-0.525c0.053-0.111,0.105-0.223,0.158-0.334
		c0.093-0.194,0.186-0.389,0.278-0.583c0.061-0.128,0.121-0.257,0.182-0.385c0.083-0.173,0.166-0.345,0.249-0.518
		c0.056-0.117,0.111-0.236,0.167-0.353C4.48,9.125,4.569,8.94,4.658,8.754c0.056-0.118,0.112-0.235,0.168-0.353
		c0.09-0.188,0.18-0.376,0.269-0.564C5.149,7.722,5.203,7.606,5.258,7.49c0.089-0.186,0.178-0.371,0.267-0.557
		C5.581,6.816,5.636,6.698,5.692,6.58c0.023-0.049,0.045-0.099,0.071-0.147c0.017-0.032,0.019-0.06,0.002-0.094
		C5.729,6.272,5.699,6.202,5.667,6.134C5.634,6.065,5.6,5.998,5.568,5.929c-0.094-0.197-0.187-0.393-0.28-0.59
		C5.229,5.215,5.171,5.09,5.112,4.966c-0.084-0.177-0.17-0.354-0.254-0.532C4.803,4.319,4.749,4.203,4.694,4.088
		c-0.09-0.19-0.181-0.38-0.272-0.571C4.368,3.402,4.313,3.286,4.258,3.171C4.169,2.983,4.079,2.795,3.99,2.606
		C3.936,2.493,3.883,2.38,3.829,2.266C3.737,2.074,3.646,1.882,3.555,1.689C3.497,1.567,3.44,1.445,3.382,1.323
		C3.297,1.143,3.21,0.964,3.125,0.785c-0.06-0.126-0.119-0.253-0.179-0.379C2.937,0.387,2.933,0.365,2.911,0.346z"/>
	<path fill="#F48123" d="M29.509,1.94c-0.006-0.016-0.01-0.032-0.017-0.047c-0.052-0.111-0.105-0.221-0.158-0.332
		c-0.003-0.006-0.008-0.01-0.013-0.016c-0.016,0.014-0.024,0.033-0.033,0.052c-0.047,0.098-0.093,0.196-0.14,0.294
		c-0.055,0.117-0.111,0.235-0.166,0.352c-0.008,0.017-0.014,0.035-0.02,0.053c-0.006,0.043-0.009,0.086-0.009,0.13
		c0,2.739,0,5.478,0,8.217c0,0.059,0.004,0.116,0.02,0.172c0.005,0.029,0.02,0.053,0.032,0.079c0.067,0.143,0.135,0.285,0.203,0.428
		c0.039,0.081,0.077,0.161,0.117,0.242c0.008,0.017,0.018,0.017,0.027-0.001c0.056-0.114,0.117-0.225,0.166-0.343
		c-0.021-0.058-0.015-0.119-0.015-0.18c0-2.849,0-5.698,0-8.547c0-0.136,0-0.272,0-0.407C29.502,2.036,29.5,1.988,29.509,1.94z"/>
	<path fill="#F59222" d="M29.509,1.94c-0.02,0.014-0.03,0.034-0.029,0.061c0.001,0.017,0,0.034,0,0.051c0,3.02,0,6.04,0,9.059
		c0,0.022,0,0.044,0.001,0.065c0.001,0.026,0.013,0.04,0.036,0.042c0,0,0.001-0.002,0.001-0.002
		c0.009-0.006,0.006-0.019,0.014-0.026l0,0c0.008-0.008,0.005-0.021,0.013-0.028l0,0c0.004-0.004,0.006-0.009,0.008-0.014
		c0.002-0.005,0.003-0.009,0.005-0.014c0.003-0.005,0.006-0.01,0.009-0.015c0.04-0.077,0.08-0.154,0.119-0.232
		c0.084-0.171,0.167-0.344,0.252-0.514c0.03-0.061,0.062-0.121,0.088-0.185c-0.012-0.069-0.019-0.139-0.019-0.209
		c0-2.247,0-4.494,0-6.741c0-0.068,0-0.136,0.029-0.199c-0.05-0.107-0.099-0.213-0.149-0.32c-0.033-0.07-0.068-0.139-0.102-0.21
		c-0.06-0.125-0.119-0.251-0.179-0.377C29.6,2.117,29.59,2.104,29.582,2.09c-0.003-0.006-0.008-0.011-0.009-0.019
		c0.001-0.005,0-0.008-0.004-0.011c-0.003-0.006-0.008-0.011-0.009-0.018c0.001-0.005,0-0.008-0.004-0.011
		c-0.003-0.006-0.007-0.011-0.009-0.018c0.001-0.005,0-0.009-0.004-0.011c-0.003-0.006-0.006-0.011-0.009-0.017
		c0.001-0.005,0-0.009-0.004-0.012c-0.003-0.005-0.006-0.01-0.009-0.015l0,0.001c-0.005-0.005-0.011-0.009-0.011-0.018L29.509,1.94z
		"/>
	<path fill="#F7AA22" d="M30.037,3.037c-0.018,0-0.032,0.003-0.038,0.029c-0.008,0.038-0.013,0.075-0.013,0.115
		c0,2.281,0,4.562,0,6.842c0,0.049,0.01,0.096,0.016,0.143c0.002,0.014,0.014,0.017,0.024,0.02c0.034-0.067,0.069-0.133,0.103-0.201
		c0.09-0.18,0.179-0.36,0.268-0.54c0.049-0.1,0.098-0.199,0.147-0.299c0.058-0.119,0.116-0.238,0.174-0.357
		c0.007-0.015,0.012-0.031,0.019-0.046c-0.02-0.04-0.014-0.085-0.014-0.128c-0.001-1.321-0.001-2.643,0-3.964
		c0-0.046,0-0.092,0.021-0.134c-0.018-0.041-0.034-0.083-0.053-0.124c-0.07-0.147-0.14-0.294-0.21-0.44
		c-0.107-0.223-0.215-0.446-0.322-0.669C30.117,3.202,30.077,3.12,30.037,3.037z"/>
	<path fill="#F36A23" d="M28.972,10.814c0-0.029,0.001-0.058,0.001-0.087c0-2.775,0-5.55,0-8.325c0-0.036,0.006-0.073-0.012-0.107
		c-0.01,0.016-0.021,0.031-0.029,0.048c-0.082,0.173-0.164,0.346-0.246,0.519c-0.085,0.179-0.171,0.358-0.257,0.537
		c-0.002,0.004-0.002,0.009-0.003,0.014c-0.024,0.091-0.034,0.184-0.034,0.279c0.001,1.922,0.001,3.844,0,5.766
		c0,0.061,0.005,0.121,0.02,0.179c0.028,0.063,0.055,0.126,0.084,0.188c0.064,0.137,0.13,0.273,0.195,0.41
		c0.089,0.188,0.179,0.375,0.269,0.563C28.964,10.804,28.968,10.809,28.972,10.814z"/>
	<path fill="#F15623" d="M28.413,9.638c0.001-0.036,0.002-0.073,0.002-0.109c0-1.957,0-3.914,0-5.87c0-0.043,0-0.086,0.009-0.13
		c0.008-0.037,0.002-0.077,0.003-0.116c-0.026,0.052-0.054,0.104-0.079,0.157c-0.061,0.128-0.12,0.257-0.181,0.385
		c-0.082,0.173-0.166,0.344-0.248,0.517c-0.014,0.03-0.031,0.058-0.038,0.092c-0.007,0.053-0.007,0.106-0.007,0.159
		c0,1.199,0,2.398,0.001,3.597c0,0.065-0.012,0.131,0.006,0.195c0.013,0.033,0.026,0.066,0.041,0.098
		c0.065,0.139,0.131,0.277,0.197,0.415c0.095,0.2,0.19,0.4,0.286,0.6C28.406,9.631,28.41,9.634,28.413,9.638z"/>
	<path fill="#F9CA21" d="M30.743,4.518c-0.03,0.007-0.044,0.027-0.042,0.062c0.001,0.017,0,0.034,0,0.051c0,1.335,0,2.67,0,4.005
		c0,0.022,0,0.044,0,0.065c0.001,0.026,0.013,0.04,0.036,0.043c0.004-0.002,0.005-0.006,0.005-0.011
		c0.002-0.008,0.006-0.013,0.011-0.018l0-0.001c0.008-0.007,0.005-0.021,0.013-0.028l0,0c0.007-0.008,0.004-0.022,0.014-0.029l0,0
		c0.003-0.005,0.006-0.01,0.009-0.015c0.004-0.003,0.006-0.007,0.005-0.013c0.003-0.005,0.006-0.011,0.009-0.016
		c0.004-0.003,0.005-0.007,0.005-0.012c0.002-0.007,0.007-0.012,0.01-0.018l0.001-0.002c0.009-0.006,0.006-0.02,0.014-0.026l0,0
		c0.007-0.008,0.004-0.022,0.014-0.029l0,0c0.003-0.005,0.006-0.01,0.009-0.015c0.004-0.003,0.005-0.007,0.005-0.013
		c0.003-0.005,0.006-0.011,0.009-0.016c0.038-0.073,0.076-0.146,0.113-0.22c0.086-0.174,0.17-0.348,0.256-0.522
		c0.132-0.267,0.265-0.533,0.397-0.8c0.043-0.087,0.085-0.174,0.128-0.261c0.008-0.017,0.009-0.03,0.001-0.047
		c-0.075-0.155-0.15-0.311-0.225-0.466c-0.056-0.117-0.112-0.235-0.168-0.352c-0.088-0.183-0.176-0.366-0.264-0.55
		c-0.057-0.119-0.114-0.239-0.171-0.359c-0.025-0.051-0.051-0.101-0.076-0.151c-0.008-0.008-0.005-0.021-0.013-0.029l0,0
		c-0.008-0.008-0.005-0.021-0.013-0.029l0,0c-0.005-0.006-0.01-0.012-0.011-0.02c0.001-0.004-0.001-0.007-0.005-0.009
		c-0.003-0.006-0.006-0.011-0.009-0.017c0.001-0.005,0-0.009-0.004-0.012c-0.003-0.006-0.006-0.011-0.009-0.017
		c0.001-0.005,0-0.009-0.004-0.012c-0.003-0.006-0.005-0.011-0.009-0.016l0,0.001c-0.009-0.007-0.007-0.021-0.014-0.03l0,0.001
		c-0.009-0.007-0.007-0.021-0.014-0.029l0,0C30.748,4.531,30.742,4.527,30.743,4.518L30.743,4.518z"/>
	<path fill="#F04123" d="M27.881,8.515c0.018-0.071,0.014-0.144,0.014-0.216c0-1.21,0-2.419,0-3.629
		c0-0.036,0.005-0.073-0.014-0.106c-0.048,0.072-0.078,0.156-0.116,0.234c-0.094,0.193-0.186,0.388-0.278,0.582
		c-0.082,0.173-0.164,0.347-0.246,0.52c-0.085,0.179-0.173,0.358-0.257,0.538c-0.057,0.123-0.056,0.077-0.001,0.196
		c0.058,0.127,0.12,0.252,0.18,0.378c0.091,0.19,0.181,0.38,0.271,0.57c0.056,0.118,0.111,0.236,0.166,0.353
		c0.082,0.173,0.163,0.347,0.246,0.52C27.856,8.476,27.869,8.495,27.881,8.515z"/>
	<path fill="#F7AA22" d="M30.844,4.726c0,0.012,0.003,0.023,0.013,0.029C30.857,4.743,30.853,4.733,30.844,4.726z"/>
	<path fill="#F7AA22" d="M30.831,4.697c0,0.012,0.003,0.023,0.013,0.029C30.844,4.714,30.84,4.704,30.831,4.697z"/>
	<path fill="#F7AA22" d="M30.767,4.565c-0.001,0.013,0.002,0.024,0.014,0.03C30.78,4.582,30.776,4.571,30.767,4.565z"/>
	<path fill="#F48123" d="M29.532,11.19c-0.01,0.005-0.013,0.015-0.014,0.026C29.528,11.211,29.532,11.202,29.532,11.19z"/>
	<path fill="#F7AA22" d="M30.753,4.536c-0.001,0.013,0.002,0.023,0.014,0.029C30.767,4.553,30.763,4.543,30.753,4.536z"/>
	<path fill="#F48123" d="M29.545,11.161c-0.011,0.006-0.013,0.016-0.013,0.029C29.541,11.183,29.545,11.173,29.545,11.161z"/>
	<path fill="#F7AA22" d="M30.766,8.686c-0.011,0.006-0.014,0.016-0.013,0.028C30.763,8.708,30.767,8.698,30.766,8.686z"/>
	<path fill="#F7AA22" d="M30.78,8.657c-0.011,0.005-0.014,0.016-0.014,0.029C30.776,8.68,30.78,8.67,30.78,8.657z"/>
	<path fill="#F7AA22" d="M30.831,8.555c-0.01,0.005-0.014,0.015-0.014,0.026C30.827,8.576,30.832,8.568,30.831,8.555z"/>
	<path fill="#F7AA22" d="M30.845,8.527c-0.011,0.005-0.014,0.016-0.014,0.029C30.841,8.549,30.845,8.539,30.845,8.527z"/>
	<path fill="#F48123" d="M29.554,11.147c-0.003,0.005-0.006,0.009-0.008,0.014C29.551,11.159,29.554,11.154,29.554,11.147z"/>
	<path fill="#F48123" d="M29.567,11.118c-0.003,0.005-0.006,0.01-0.009,0.015C29.565,11.13,29.568,11.126,29.567,11.118z"/>
	<path fill="#F7AA22" d="M30.816,8.584c-0.006,0.004-0.01,0.01-0.01,0.018C30.813,8.598,30.816,8.592,30.816,8.584z"/>
	<path fill="#F7AA22" d="M30.802,8.614c-0.006,0.003-0.009,0.009-0.009,0.016C30.8,8.627,30.803,8.622,30.802,8.614z"/>
	<path fill="#F7AA22" d="M30.788,8.643c-0.003,0.005-0.006,0.01-0.009,0.015C30.786,8.655,30.789,8.65,30.788,8.643z"/>
	<path fill="#F7AA22" d="M30.753,8.715c-0.007,0.004-0.011,0.01-0.011,0.018C30.749,8.73,30.753,8.724,30.753,8.715z"/>
	<path fill="#F7AA22" d="M30.82,4.677c0,0.009,0.004,0.016,0.011,0.02C30.831,4.687,30.827,4.681,30.82,4.677z"/>
	<path fill="#F7AA22" d="M30.806,4.65c0,0.008,0.003,0.014,0.009,0.017C30.816,4.659,30.812,4.654,30.806,4.65z"/>
	<path fill="#F7AA22" d="M30.793,4.621c0,0.008,0.003,0.013,0.009,0.017C30.803,4.63,30.799,4.625,30.793,4.621z"/>
	<path fill="#F7AA22" d="M30.78,4.593c0.003,0.005,0.006,0.01,0.009,0.016C30.789,4.601,30.786,4.596,30.78,4.593z"/>
	<path fill="#F7AA22" d="M30.743,4.518c0,0.009,0.004,0.015,0.011,0.018C30.754,4.527,30.751,4.521,30.743,4.518z"/>
	<path fill="#F7AA22" d="M30.867,8.483c-0.006,0.003-0.009,0.009-0.009,0.016C30.865,8.496,30.868,8.491,30.867,8.483z"/>
	<path fill="#F7AA22" d="M30.853,8.512c-0.003,0.005-0.006,0.01-0.009,0.015C30.851,8.524,30.854,8.519,30.853,8.512z"/>
	<path fill="#F48123" d="M29.572,2.072c0.003,0.006,0.006,0.012,0.009,0.019C29.582,2.082,29.579,2.076,29.572,2.072z"/>
	<path fill="#F48123" d="M29.559,2.043c0.003,0.006,0.006,0.012,0.009,0.018C29.569,2.053,29.566,2.047,29.559,2.043z"/>
	<path fill="#F48123" d="M29.546,2.014c0.003,0.006,0.006,0.012,0.009,0.018C29.556,2.024,29.553,2.018,29.546,2.014z"/>
	<path fill="#F48123" d="M29.533,1.985c0.003,0.006,0.006,0.012,0.009,0.017C29.543,1.995,29.54,1.989,29.533,1.985z"/>
	<path fill="#F48123" d="M29.519,1.959c0.003,0.005,0.006,0.01,0.009,0.015C29.53,1.966,29.526,1.961,29.519,1.959z"/>
	<path fill="#F48123" d="M29.509,1.941c0,0.009,0.004,0.015,0.011,0.018C29.519,1.951,29.516,1.944,29.509,1.941z"/>
	<path fill="#666666" d="M18.212,2.876c0.045-0.019,0.078-0.055,0.115-0.085c0.157-0.125,0.313-0.251,0.469-0.377
		c0.032-0.025,0.063-0.051,0.096-0.075c0.019-0.014,0.026-0.012,0.037,0.008c0.017,0.031,0.033,0.062,0.05,0.094
		c0.061,0.117,0.121,0.235,0.182,0.352c0.116,0.224,0.233,0.448,0.349,0.672c0.091,0.174,0.182,0.347,0.273,0.52
		c0.083,0.159,0.165,0.319,0.248,0.478c0.082,0.157,0.165,0.313,0.247,0.47c0.086,0.165,0.171,0.332,0.257,0.497
		c0.059,0.113,0.119,0.225,0.177,0.338c0.062,0.119,0.123,0.239,0.185,0.359c0.054,0.105,0.11,0.209,0.164,0.313
		c0.004,0.008,0.008,0.017,0.013,0.025c0.024,0.034,0.016,0.066-0.002,0.101c-0.07,0.136-0.139,0.274-0.209,0.411
		c-0.057,0.111-0.115,0.222-0.172,0.334c-0.029,0.057-0.057,0.114-0.085,0.171c-0.121,0.24-0.243,0.481-0.365,0.721
		c-0.083,0.165-0.165,0.33-0.248,0.494c-0.082,0.162-0.165,0.324-0.248,0.486c-0.061,0.12-0.121,0.241-0.181,0.361
		c-0.085,0.169-0.171,0.337-0.256,0.506c-0.083,0.164-0.166,0.329-0.249,0.494c-0.089,0.175-0.178,0.35-0.267,0.524
		c-0.009,0.018-0.019,0.019-0.028,0.002c-0.047-0.09-0.094-0.18-0.141-0.27c-0.108-0.207-0.216-0.415-0.323-0.622
		c-0.037-0.071-0.073-0.143-0.11-0.215c-0.011-0.022-0.019-0.023-0.035-0.007c-0.183,0.167-0.365,0.334-0.548,0.501
		c-0.154,0.141-0.309,0.28-0.464,0.421c-0.109,0.099-0.217,0.2-0.326,0.3c-0.102,0.093-0.205,0.186-0.307,0.279
		c-0.086,0.078-0.171,0.156-0.256,0.234c-0.005,0.005-0.01,0.01-0.015,0.014c-0.052,0.047-0.052,0.047-0.104,0.004
		c-0.135-0.113-0.269-0.228-0.404-0.342c-0.102-0.086-0.204-0.171-0.306-0.257c-0.106-0.089-0.211-0.177-0.317-0.266
		c-0.157-0.132-0.315-0.264-0.472-0.397c-0.157-0.132-0.315-0.265-0.472-0.398c-0.04-0.033-0.079-0.067-0.12-0.1
		c-0.018-0.015-0.025-0.012-0.036,0.009c-0.047,0.084-0.094,0.169-0.14,0.253c-0.083,0.15-0.166,0.301-0.25,0.451
		c-0.064,0.115-0.127,0.231-0.191,0.346c-0.019,0.035-0.039,0.068-0.063,0.108c-0.023-0.04-0.043-0.074-0.062-0.108
		c-0.014,0.002-0.017,0.014-0.022,0.025c-0.045,0.11-0.091,0.22-0.136,0.33c-0.038,0.092-0.078,0.184-0.116,0.277
		c-0.038,0.092-0.075,0.185-0.113,0.278c-0.012,0.029-0.025,0.056-0.037,0.085c-0.019,0.047,0.011,0.099,0.058,0.102
		c0.019,0.001,0.039,0,0.058,0c0.92,0,1.84,0,2.76,0c1.095,0,2.191,0,3.286,0c0.103,0,0.076,0.013,0.126-0.079
		c0.121-0.224,0.24-0.449,0.36-0.674c0.085-0.158,0.17-0.315,0.254-0.473c0.078-0.146,0.154-0.292,0.232-0.438
		c0.136-0.254,0.272-0.506,0.408-0.76c0.062-0.116,0.123-0.234,0.185-0.351c0.081-0.152,0.164-0.302,0.245-0.454
		c0.062-0.116,0.123-0.234,0.185-0.351c0.082-0.154,0.165-0.307,0.248-0.461c0.088-0.164,0.174-0.329,0.262-0.494
		c0.054-0.102,0.11-0.203,0.164-0.305c0.062-0.116,0.124-0.233,0.186-0.35c0.032-0.06,0.064-0.121,0.096-0.181
		c0.055-0.102,0.11-0.203,0.165-0.304c0.003-0.006,0.006-0.013,0.01-0.019c0.017-0.027,0.016-0.051,0-0.08
		c-0.106-0.191-0.211-0.383-0.317-0.575c-0.058-0.105-0.114-0.211-0.172-0.317c-0.096-0.176-0.192-0.352-0.288-0.527
		c-0.093-0.169-0.186-0.339-0.278-0.508c-0.082-0.151-0.163-0.303-0.246-0.454c-0.059-0.108-0.119-0.214-0.177-0.322
		c-0.057-0.103-0.112-0.207-0.169-0.311c-0.062-0.114-0.125-0.227-0.187-0.341c-0.058-0.105-0.115-0.211-0.172-0.317
		c-0.056-0.104-0.112-0.207-0.169-0.31c-0.058-0.105-0.116-0.21-0.174-0.315c-0.081-0.149-0.162-0.298-0.243-0.447
		c-0.128-0.236-0.256-0.472-0.384-0.708c-0.03-0.056-0.062-0.111-0.093-0.166c-0.01-0.019-0.023-0.027-0.043-0.026
		c-0.017,0.001-0.035,0-0.052,0c-1.284,0-2.567,0-3.851,0c-0.019,0-0.039,0-0.058,0.001c-0.015,0.001-0.023,0.013-0.017,0.03
		c0.015,0.045,0.031,0.09,0.047,0.135c0.045,0.126,0.09,0.252,0.135,0.378c0.049,0.135,0.097,0.269,0.146,0.404
		c0.002,0.007,0.005,0.014,0.008,0.02c0.011,0.025,0.021,0.029,0.04,0.014c0.014-0.011,0.028-0.023,0.042-0.034
		c0.128-0.108,0.256-0.215,0.384-0.323c0.085-0.071,0.169-0.143,0.254-0.215c0.01-0.009,0.022-0.016,0.032-0.025
		c0.033-0.032,0.045-0.022,0.073,0.003c0.029,0.026,0.057,0.052,0.085,0.078c0.084,0.077,0.167,0.154,0.251,0.23
		c0.087,0.08,0.174,0.159,0.262,0.238c0.079,0.072,0.157,0.144,0.236,0.216c0.084,0.076,0.168,0.152,0.252,0.229
		c0.186,0.17,0.372,0.34,0.559,0.51c0.089,0.081,0.177,0.163,0.267,0.244C18.17,2.842,18.192,2.859,18.212,2.876z"/>
	<path fill="#EF3324" d="M11.449,3.687c-0.04,0.057-0.069,0.122-0.103,0.184c-0.066,0.12-0.13,0.24-0.195,0.36
		c-0.059,0.11-0.118,0.22-0.178,0.33c-0.085,0.158-0.17,0.315-0.255,0.472c-0.056,0.104-0.111,0.208-0.167,0.311
		c-0.065,0.12-0.13,0.24-0.195,0.36c-0.053,0.097-0.105,0.195-0.158,0.292c-0.071,0.133-0.143,0.265-0.214,0.398
		C9.966,6.428,9.951,6.463,9.935,6.497c0.01,0.038,0.03,0.069,0.048,0.102c0.105,0.195,0.211,0.389,0.316,0.584
		c0.082,0.151,0.162,0.303,0.244,0.455c0.088,0.164,0.177,0.327,0.266,0.491c0.058,0.108,0.116,0.216,0.174,0.324
		c0.084,0.155,0.168,0.311,0.252,0.466c0.031,0.058,0.062,0.116,0.094,0.174c0.005,0.01,0.013,0.019,0.019,0.029
		c0.043-0.028,0.033-0.076,0.033-0.117c0.001-0.346,0.001-0.692,0.001-1.037c0-0.251,0-0.503,0-0.754
		c0-0.048-0.002-0.097,0.008-0.144c-0.005-0.013-0.01-0.026-0.017-0.039c-0.06-0.12-0.12-0.241-0.181-0.36
		c-0.016-0.031-0.016-0.056,0-0.087c0.062-0.116,0.122-0.234,0.182-0.351c0.035-0.069,0.077-0.134,0.104-0.208
		c-0.025-0.036-0.033-0.077-0.033-0.122c0-0.663,0-1.326,0-1.99c0-0.044,0.008-0.086,0.015-0.129
		C11.468,3.749,11.476,3.715,11.449,3.687z"/>
	<path fill="#F04123" d="M11.449,3.687c0.009,0.042-0.005,0.082-0.014,0.121c-0.006,0.029-0.01,0.057-0.01,0.086
		c0,0.682,0,1.363,0,2.045c0,0.007,0,0.015,0,0.022c0.002,0.049,0.004,0.052,0.053,0.062c0,0-0.001,0-0.001,0
		c0.003-0.005,0.006-0.01,0.009-0.015c0.039-0.072,0.08-0.144,0.117-0.217c0.086-0.165,0.17-0.331,0.256-0.496
		c0.081-0.157,0.164-0.313,0.245-0.469c0.058-0.111,0.115-0.222,0.172-0.333c0.04-0.077,0.079-0.155,0.119-0.233
		c-0.017-0.054-0.014-0.11-0.014-0.165c0-0.657,0-1.314-0.001-1.97c0-0.042,0.009-0.088-0.022-0.124
		c-0.022,0.038-0.046,0.076-0.067,0.115c-0.094,0.173-0.188,0.347-0.281,0.521c-0.088,0.164-0.175,0.328-0.263,0.491
		c-0.091,0.17-0.183,0.339-0.275,0.509C11.464,3.652,11.457,3.67,11.449,3.687z"/>
	<path fill="#F15023" d="M12.359,2c0,0.031,0.001,0.063,0.001,0.094c0,0.688,0,1.376,0,2.064c0,0.022-0.001,0.044,0.001,0.065
		c0.002,0.022,0.015,0.034,0.034,0.037c0.053-0.1,0.105-0.2,0.158-0.3c0.094-0.179,0.187-0.359,0.28-0.539
		c0.081-0.157,0.162-0.314,0.243-0.471c0.067-0.13,0.135-0.258,0.203-0.388c0.007-0.013,0.014-0.024,0.028-0.026
		c0.012-0.025,0.009-0.052,0.009-0.078c0-0.524,0-1.047,0-1.571c0-0.043,0.009-0.088-0.02-0.125c-0.03-0.012-0.06-0.005-0.09-0.006
		c-0.048-0.001-0.095,0.001-0.143-0.001c-0.027-0.001-0.044,0.008-0.057,0.036c-0.019,0.041-0.042,0.079-0.063,0.118
		c-0.085,0.158-0.169,0.316-0.254,0.473c-0.105,0.195-0.211,0.389-0.317,0.583C12.366,1.977,12.363,1.989,12.359,2z"/>
	<path fill="#F36B23" d="M14.196,2.952c0.056-0.036,0.105-0.084,0.157-0.127c0.4-0.335,0.798-0.672,1.198-1.008
		c0.204-0.172,0.409-0.342,0.612-0.514c0.015-0.013,0.042-0.018,0.037-0.05c-0.023-0.004-0.034,0.017-0.048,0.029
		c-0.184,0.153-0.367,0.308-0.55,0.462c-0.067,0.057-0.135,0.113-0.202,0.17c-0.008,0.007-0.018,0.013-0.03,0.022
		c-0.016-0.023-0.025-0.047-0.034-0.07c-0.062-0.173-0.123-0.346-0.185-0.519c-0.066-0.184-0.133-0.368-0.2-0.552
		c-0.004-0.011-0.006-0.024-0.018-0.028c-0.047-0.014-0.094-0.006-0.141-0.006c-0.197-0.001-0.393,0.001-0.59-0.002
		c-0.048-0.001-0.067,0.02-0.068,0.071c0,0.019-0.001,0.039-0.001,0.058c0,0.642,0,1.284,0,1.926c0,0.031-0.002,0.063,0.006,0.094
		C14.145,2.939,14.158,2.967,14.196,2.952z"/>
	<path fill="#F26023" d="M14.196,2.952c-0.028-0.003-0.044-0.019-0.043-0.052c0-0.017,0-0.034,0-0.051c0-0.664,0-1.327,0-1.991
		c0-0.097-0.006-0.092,0.08-0.092c0.233,0,0.467,0,0.7,0c-0.008-0.003-0.016-0.008-0.024-0.009
		c-0.017-0.001-0.035-0.001-0.052-0.001c-0.495,0-0.99,0-1.484,0.001c-0.026,0-0.052-0.005-0.077,0.006c0,0.561,0,1.122,0,1.683
		c0,0.031-0.006,0.063,0.012,0.091c0.15,0.109,0.299,0.218,0.449,0.326c0.088,0.064,0.177,0.128,0.266,0.192
		c0.021,0.015,0.037,0.018,0.058-0.001C14.118,3.019,14.157,2.986,14.196,2.952z"/>
	<path fill="#EF4024" d="M11.389,7.068c-0.017,0.008-0.028,0.022-0.029,0.044c0,0.022,0,0.044,0,0.065c0,0.617,0,1.235,0,1.852
		c0,0.031,0.004,0.063-0.013,0.092c0.006,0.026,0.022,0.047,0.034,0.069c0.054,0.099,0.107,0.199,0.161,0.298
		c0.068,0.126,0.136,0.252,0.204,0.379c0.059,0.11,0.117,0.22,0.177,0.33c0.09,0.168,0.181,0.335,0.272,0.502
		c0.002,0.004,0.006,0.007,0.009,0.01c0.027-0.015,0.023-0.043,0.023-0.07c-0.005-0.576-0.001-1.153-0.002-1.729
		c0-0.048-0.001-0.097,0.021-0.142c-0.048-0.098-0.095-0.196-0.143-0.293c-0.064-0.129-0.13-0.257-0.195-0.385
		c-0.084-0.166-0.168-0.333-0.252-0.5c-0.055-0.11-0.11-0.22-0.165-0.329C11.457,7.197,11.423,7.133,11.389,7.068z"/>
	<path fill="#F14E23" d="M12.246,8.769c-0.026,0.007-0.043,0.022-0.042,0.055c0,0.017,0,0.034,0,0.051c0,0.567,0,1.133,0,1.7
		c0,0.034-0.003,0.067,0.008,0.101c0.003,0.009-0.005,0.022-0.008,0.034c0,0,0,0,0,0c0.006,0.006,0.011,0.012,0.011,0.021
		c-0.001,0.004,0,0.007,0.004,0.009c0.004,0.006,0.008,0.011,0.01,0.018c-0.001,0.005,0.001,0.009,0.005,0.011
		c0.003,0.005,0.006,0.01,0.01,0.014l0,0c0.005,0.005,0.01,0.011,0.012,0.019c-0.001,0.005,0.001,0.008,0.004,0.011
		c0.003,0.005,0.006,0.011,0.009,0.016c0.002,0.004,0.004,0.009,0.005,0.013c0.002,0.005,0.005,0.01,0.009,0.013l0,0
		c0.005,0.006,0.01,0.012,0.011,0.021c-0.001,0.004,0.001,0.007,0.004,0.009c0.004,0.006,0.008,0.011,0.01,0.018
		c0,0.005,0.002,0.009,0.006,0.012c0.001,0.005,0.004,0.009,0.009,0.011l0.001,0.002c0.004,0.006,0.008,0.012,0.01,0.019
		c-0.001,0.005,0.001,0.009,0.005,0.011c0.003,0.005,0.006,0.011,0.009,0.016c0.002,0.005,0.004,0.009,0.005,0.014
		c0.002,0.005,0.004,0.01,0.008,0.013l0,0.001c0.005,0.006,0.01,0.012,0.011,0.02c-0.001,0.004,0.001,0.007,0.004,0.009
		c0.003,0.005,0.007,0.01,0.01,0.015l-0.001-0.001c0.007,0.005,0.012,0.011,0.013,0.02c-0.001,0.004,0.001,0.007,0.004,0.009
		c0.004,0.006,0.008,0.011,0.01,0.018c-0.001,0.005,0.001,0.009,0.005,0.012c0.003,0.005,0.006,0.01,0.009,0.015
		c0.002,0.005,0.004,0.009,0.006,0.014c0.001,0.005,0.004,0.009,0.008,0.012l0,0.001c0.005,0.006,0.01,0.012,0.011,0.02
		c-0.001,0.004,0.001,0.008,0.004,0.01c0.003,0.005,0.006,0.01,0.01,0.014l0,0c0.006,0.005,0.011,0.011,0.012,0.02
		c0.01,0.024,0.02,0.048,0.032,0.071c0.093,0.172,0.186,0.343,0.279,0.515c0.002,0.004,0.006,0.007,0.01,0.012
		c0.02-0.013,0.025-0.037,0.034-0.058c0.054-0.129,0.107-0.259,0.16-0.389c0.074-0.18,0.147-0.361,0.224-0.539
		c0.023-0.053,0.024-0.095-0.004-0.147c-0.088-0.166-0.172-0.336-0.257-0.504c-0.053-0.105-0.106-0.211-0.159-0.316
		c-0.084-0.167-0.167-0.333-0.251-0.5c-0.005-0.01-0.013-0.019-0.019-0.029C12.523,9.32,12.52,9.315,12.517,9.31
		c-0.002-0.005-0.003-0.009-0.005-0.014c-0.002-0.005-0.005-0.01-0.009-0.014l0,0c-0.008-0.007-0.005-0.021-0.014-0.028l0-0.001
		c-0.005-0.006-0.01-0.012-0.011-0.021c0.001-0.004,0-0.007-0.003-0.009c-0.004-0.006-0.009-0.011-0.01-0.019
		c0.001-0.005-0.001-0.008-0.005-0.01c-0.003-0.005-0.006-0.01-0.01-0.014l0,0c-0.008-0.007-0.005-0.021-0.014-0.028l0-0.001
		c-0.005-0.006-0.01-0.012-0.011-0.021c0.001-0.004,0-0.007-0.004-0.009c-0.004-0.006-0.009-0.011-0.01-0.019
		c0.001-0.005-0.001-0.008-0.004-0.011c-0.003-0.006-0.006-0.011-0.009-0.017c0.001-0.005-0.001-0.009-0.004-0.012
		c-0.003-0.005-0.006-0.01-0.009-0.015l0,0.001c-0.006-0.005-0.011-0.011-0.012-0.02c0.001-0.004-0.001-0.007-0.004-0.009
		c-0.003-0.006-0.008-0.011-0.009-0.018c0.001-0.005-0.001-0.008-0.004-0.011c-0.003-0.006-0.006-0.011-0.009-0.017
		c0.001-0.005-0.001-0.009-0.004-0.012c-0.003-0.006-0.006-0.011-0.009-0.016c-0.002-0.004-0.003-0.009-0.005-0.013
		c-0.002-0.005-0.005-0.01-0.009-0.014l0,0c-0.006-0.006-0.011-0.012-0.012-0.021c0-0.004-0.001-0.007-0.004-0.009
		c-0.003-0.005-0.006-0.011-0.009-0.017c0.001-0.005-0.001-0.009-0.005-0.012c-0.002-0.005-0.005-0.01-0.009-0.015l0,0.001
		c-0.009-0.007-0.006-0.021-0.014-0.029l0,0c-0.008-0.007-0.005-0.021-0.013-0.028l0-0.001C12.252,8.782,12.246,8.778,12.246,8.769
		L12.246,8.769z"/>
	<path fill="#F8B522" d="M18.546,6.37c-0.013-0.011-0.027-0.022-0.04-0.032c0.005-0.022,0.027-0.023,0.035-0.04
		c-0.018-0.046-0.016-0.094-0.016-0.143c0-0.477,0-0.953,0-1.43c0-0.034,0.001-0.068-0.008-0.101
		c-0.025-0.029-0.059-0.039-0.091-0.053c-0.066-0.03-0.133-0.058-0.205-0.066c-0.025,0.023-0.023,0.056-0.023,0.087
		c0,0.842-0.003,1.684,0.001,2.526c0,0.01,0.001,0.019,0.005,0.028c0,0.041,0.001,0.082-0.001,0.122
		c-0.005,0.111-0.047,0.203-0.115,0.281c-0.009,0.017-0.01,0.036-0.01,0.056c0.005,0.236,0.001,0.473,0.003,0.709
		c0,0.033-0.004,0.068,0.02,0.096c0.005,0,0.009-0.001,0.014-0.001c0.016-0.014,0.037,0,0.054-0.012
		c0.09-0.01,0.175-0.043,0.258-0.081c0.037-0.017,0.075-0.033,0.107-0.064c-0.007-0.065-0.008-0.131-0.008-0.196
		c0-0.512,0-1.024,0-1.536C18.525,6.468,18.527,6.418,18.546,6.37z"/>
	<path fill="#F8B422" d="M15.182,5.468c-0.004,0.003-0.005,0.007-0.004,0.012c-0.011,0.028-0.009,0.057-0.008,0.086
		c0.003,0.511,0,1.022,0.001,1.533c0,0.031-0.002,0.063,0.005,0.094c0.005,0.023,0.01,0.05,0.042,0.037l0,0
		c0.008-0.007,0.005-0.02,0.012-0.028c0.003-0.002,0.005-0.006,0.003-0.01c0.001-0.008,0.005-0.013,0.009-0.019
		c0.004-0.003,0.005-0.007,0.004-0.012c0.003-0.006,0.005-0.012,0.008-0.017c0.001-0.004,0.003-0.009,0.004-0.013
		c0.006-0.009,0.004-0.023,0.013-0.03c0.007-0.012,0.016-0.023,0.021-0.036c0.062-0.149,0.124-0.298,0.185-0.448
		c0.013-0.033,0.035-0.062,0.039-0.099c-0.014-0.035-0.003-0.072-0.003-0.107c-0.001-0.588,0-1.175-0.001-1.763
		c0-0.043,0.008-0.088-0.018-0.126c-0.094-0.013-0.189-0.002-0.283-0.006c-0.034-0.002-0.045,0.02-0.049,0.052
		c-0.005,0.038-0.003,0.077-0.003,0.116c0,0.159,0,0.318,0,0.477c0,0.036-0.004,0.073,0.021,0.103
		c0.004,0.002,0.007,0.003,0.012,0.002c0.016,0.058,0.008,0.116,0.004,0.174c-0.003,0.003-0.005,0.006-0.003,0.011
		C15.189,5.457,15.185,5.462,15.182,5.468z"/>
	<path fill="#FAD321" d="M18.546,6.37c-0.025,0.003-0.04,0.016-0.041,0.046c0,0.017,0,0.034,0,0.051c0,0.563,0,1.126,0,1.689
		c0,0.015,0,0.029,0,0.044c-0.001,0.025,0.01,0.041,0.029,0.052c0.005,0.001,0.008-0.001,0.011-0.006
		c0.004-0.003,0.009-0.007,0.013-0.01l0,0c0.004-0.007,0.009-0.013,0.017-0.013c0.004,0,0.007-0.002,0.009-0.006
		c0.004-0.003,0.009-0.007,0.013-0.01l0,0c0.004-0.007,0.009-0.012,0.017-0.012c0.07-0.05,0.126-0.117,0.174-0.192
		c0.077-0.117,0.126-0.247,0.154-0.388c0.028-0.14,0.042-0.281,0.041-0.425c-0.001-0.109-0.013-0.217-0.038-0.323
		c-0.04-0.172-0.131-0.303-0.259-0.404c-0.037-0.029-0.073-0.06-0.116-0.077c-0.004-0.005-0.008-0.008-0.013-0.01
		C18.554,6.371,18.55,6.369,18.546,6.37z"/>
	<path fill="#F69522" d="M15.218,7.23c-0.011-0.002-0.022-0.007-0.024-0.02c-0.002-0.022-0.002-0.044-0.002-0.065
		c0-0.483,0-0.965,0-1.448c0-0.072,0.004-0.145-0.014-0.216c-0.02,0.043-0.041,0.085-0.059,0.128
		c-0.055,0.131-0.11,0.263-0.165,0.394c-0.04,0.096-0.082,0.192-0.122,0.288c-0.003,0.006-0.003,0.014-0.005,0.021
		c-0.014,0.032-0.008,0.067-0.008,0.1c0.001,0.512,0,1.024,0,1.536c0,0.024-0.001,0.049,0.003,0.073
		c0.005,0.027,0.01,0.054,0.042,0.054c0.021-0.047,0.044-0.094,0.064-0.142c0.061-0.146,0.121-0.293,0.182-0.44
		c0.034-0.081,0.068-0.161,0.102-0.242C15.216,7.245,15.216,7.237,15.218,7.23z"/>
	<path fill="#F37323" d="M14.866,8.074c-0.014-0.009-0.023-0.022-0.024-0.04c-0.001-0.019,0-0.039,0-0.058c0-0.483,0-0.965,0-1.448
		c0-0.072,0.004-0.145-0.013-0.216c-0.023,0.052-0.047,0.103-0.069,0.155c-0.062,0.147-0.123,0.294-0.184,0.441
		c-0.03,0.072-0.059,0.145-0.089,0.218c-0.007,0.398-0.002,0.797-0.003,1.195c0,0.031,0,0.063,0.02,0.089
		c0.056,0.027,0.116,0.037,0.173,0.057c0.022,0.007,0.028,0.003,0.039-0.024c0.036-0.085,0.072-0.17,0.105-0.256
		C14.836,8.148,14.861,8.116,14.866,8.074z"/>
	<path fill="#FAD221" d="M18.517,4.624c-0.004,0.008-0.011,0.016-0.012,0.025c-0.002,0.019-0.001,0.039-0.001,0.058
		c0,0.501,0,1.002,0,1.503c0,0.017,0,0.034,0,0.051c0.001,0.028,0.001,0.028,0.037,0.037c0,0,0.002-0.001,0.002-0.001
		c0.005-0.004,0.009-0.008,0.014-0.012l0,0c0.004-0.007,0.009-0.012,0.016-0.013c0.005,0,0.008-0.002,0.01-0.007
		c0.005-0.002,0.008-0.005,0.01-0.01l0.002-0.001c0.004-0.004,0.009-0.008,0.014-0.011l0,0c0.003-0.007,0.008-0.012,0.015-0.014
		c0.127-0.107,0.212-0.245,0.255-0.416c0.035-0.137,0.041-0.276,0.033-0.417c-0.006-0.117-0.025-0.231-0.06-0.341
		c-0.044-0.136-0.111-0.256-0.218-0.343c-0.005-0.004-0.01-0.009-0.014-0.013l0,0c-0.003-0.005-0.007-0.009-0.012-0.011
		c-0.002-0.004-0.005-0.006-0.009-0.005c-0.007-0.002-0.012-0.007-0.017-0.013l0,0c-0.003-0.005-0.008-0.008-0.013-0.011
		c-0.002-0.004-0.005-0.006-0.009-0.005c-0.007-0.002-0.012-0.007-0.018-0.012l0,0C18.536,4.63,18.524,4.633,18.517,4.624
		L18.517,4.624z"/>
	<path fill="#F6A022" d="M18.204,7.146c0.023-0.127,0.014-0.255,0.014-0.383c0.001-0.721,0-1.443,0-2.164
		c0-0.031,0.002-0.063,0.003-0.094c0,0,0,0,0,0c-0.009-0.004-0.019-0.004-0.028-0.01c-0.008-0.001-0.016-0.002-0.024-0.003
		c-0.016-0.013-0.038,0.001-0.054-0.012c-0.012-0.005-0.025-0.007-0.038-0.005c-0.022,0.022-0.021,0.052-0.021,0.081
		c-0.003,0.254,0.004,0.509-0.005,0.763c-0.001,0.018,0.004,0.033,0.011,0.049l0-0.001c0.006,0.005,0.011,0.011,0.012,0.019
		c-0.001,0.005,0.001,0.008,0.005,0.01c0.002,0.005,0.005,0.01,0.009,0.014l0,0c0.006,0.005,0.011,0.011,0.011,0.02
		c-0.001,0.004,0.001,0.008,0.005,0.009c0.003,0.006,0.008,0.011,0.009,0.018c-0.001,0.005,0,0.008,0.003,0.011
		c0.006,0.009,0.004,0.022,0.01,0.031c-0.002,0.005-0.001,0.009,0.002,0.012c0.009,0.015,0.003,0.034,0.01,0.049
		c-0.003,0.043,0.003,0.086-0.004,0.129c-0.016,0.092-0.057,0.17-0.113,0.238c-0.027,0.033-0.059,0.062-0.089,0.092
		c-0.017,0.03-0.021,0.063-0.021,0.097c0,0.206,0,0.411,0,0.617c0,0.032,0.001,0.063,0.02,0.09c0.025,0.012,0.051,0.024,0.076,0.038
		c0.099,0.052,0.164,0.136,0.188,0.258C18.197,7.129,18.201,7.137,18.204,7.146z"/>
	<path fill="#FACC21" d="M15.491,4.522c0,0.634,0,1.267,0,1.901c0,0.024,0,0.048,0.002,0.072c0.001,0.014,0.012,0.019,0.023,0.021
		c0.004-0.002,0.005-0.005,0.003-0.01c0-0.008,0.005-0.013,0.009-0.019c0.004-0.003,0.005-0.007,0.004-0.012
		c0.003-0.006,0.005-0.012,0.008-0.017c0.001-0.005,0.003-0.009,0.004-0.014c0.007-0.009,0.004-0.022,0.012-0.03
		c0.005-0.008,0.012-0.015,0.015-0.023c0.064-0.154,0.128-0.307,0.191-0.461c0.003-0.006,0.003-0.014,0.004-0.021
		c-0.018-0.431-0.004-0.862-0.008-1.293c-0.001-0.053,0.022-0.071,0.067-0.073c0.048-0.001,0.1,0.016,0.144-0.022
		c-0.002-0.012-0.009-0.015-0.018-0.015c-0.093,0.001-0.187,0.002-0.28,0.003C15.612,4.526,15.55,4.503,15.491,4.522z"/>
	<path fill="#EF3D24" d="M17.284,4.477c-0.055-0.005-0.108,0.009-0.161,0.019c-0.141,0.025-0.281,0.056-0.421,0.084
		c-0.002,0-0.004,0.001-0.006,0.001c-0.054,0.014-0.055,0.014-0.046,0.079c0.005,0.036,0.009,0.072,0.012,0.108
		c0.013,0.147,0.027,0.294,0.04,0.44c0.001,0.007,0.002,0.014,0.003,0.022c0.006,0.034,0.01,0.039,0.044,0.036
		c0.041-0.004,0.081-0.011,0.122-0.015c0.116-0.012,0.232-0.023,0.348-0.034c0.021-0.002,0.043-0.007,0.064-0.011
		c0.021-0.025,0.021-0.057,0.021-0.089c0.001-0.184,0.001-0.367,0-0.551C17.304,4.535,17.306,4.502,17.284,4.477z"/>
	<path fill="#F58C22" d="M18.101,8.409c0-0.256,0-0.512,0.001-0.768c0-0.032-0.009-0.061-0.014-0.092
		c-0.095,0.084-0.208,0.117-0.325,0.134c-0.038,0.012-0.078,0.008-0.116,0.004c-0.057-0.006-0.072,0.026-0.073,0.081
		c0,0.049,0,0.097,0,0.146c0,0.138-0.001,0.277,0,0.415c0.001,0.099,0.004,0.102,0.091,0.103c0.019,0,0.039-0.003,0.058,0.004
		c0.118,0.009,0.236-0.001,0.353-0.017C18.085,8.418,18.093,8.413,18.101,8.409z"/>
	<path fill="#F37123" d="M17.284,4.477c0,0.243,0,0.486-0.001,0.728c0.049-0.001,0.099,0,0.148-0.003
		c0.133-0.01,0.266-0.01,0.397,0.017c-0.011-0.205-0.004-0.409-0.005-0.614c-0.001-0.106,0.004-0.11,0.094-0.119
		c0.021-0.002,0.044-0.002,0.058-0.024c-0.017-0.013-0.037-0.01-0.056-0.011c-0.148-0.009-0.297-0.011-0.445,0.001
		C17.411,4.457,17.346,4.458,17.284,4.477z"/>
	<path fill="#F15B23" d="M17.75,6.096c-0.121,0-0.242-0.001-0.363-0.001c-0.106,0-0.212,0-0.318,0c-0.013,0-0.026,0-0.039,0.001
		c-0.012,0.001-0.02,0.008-0.021,0.022c-0.001,0.012-0.001,0.024-0.001,0.036c0,0.194,0,0.388,0,0.581c0,0.012,0,0.024,0.001,0.036
		c0.001,0.014,0.009,0.021,0.021,0.022c0.006,0.001,0.013,0.001,0.019,0.001c0.158,0,0.315,0,0.473,0
		c0.006,0,0.013-0.002,0.019-0.003c0.024-0.03,0.02-0.068,0.02-0.103c0.001-0.157-0.001-0.314,0.001-0.471
		c0.001-0.079,0.007-0.083,0.079-0.088C17.68,6.128,17.725,6.15,17.75,6.096z"/>
	<path fill="#F15C23" d="M17.723,8.435c-0.023-0.021-0.05-0.01-0.075-0.011c-0.052-0.003-0.053-0.003-0.053-0.063
		c0-0.201,0-0.402,0-0.603c0-0.012,0-0.024,0.002-0.036c0.001-0.013,0.009-0.023,0.021-0.023c0.032-0.002,0.065-0.001,0.097-0.002
		c0.017-0.001,0.035,0.004,0.049-0.013c-0.095-0.001-0.19-0.001-0.284-0.004c-0.09-0.003-0.181-0.01-0.271-0.014
		c-0.021-0.001-0.043,0-0.064,0c-0.047-0.019-0.057,0.015-0.061,0.055c-0.005,0.063-0.002,0.126-0.002,0.188c0,0.123,0,0.246,0,0.37
		c0,0.036-0.002,0.073,0.02,0.104c0.045,0.02,0.093,0.017,0.14,0.022c0.139,0.016,0.279,0.03,0.419,0.033
		C17.68,8.438,17.702,8.436,17.723,8.435z"/>
	<path fill="#EF3624" d="M14.334,4.51c-0.015-0.001-0.03-0.003-0.045-0.003c-0.167,0-0.333,0-0.5,0c-0.015,0-0.03,0.001-0.045,0.002
		c-0.009,0.001-0.016,0.007-0.017,0.018c-0.001,0.012-0.002,0.024-0.002,0.036c0,0.216,0,0.432,0,0.648c0,0.007,0,0.015,0,0.022
		c0.001,0.027,0.005,0.031,0.032,0.033c0.004,0,0.009,0,0.013,0c0.134,0,0.268,0,0.403,0c0.006,0,0.013-0.002,0.019-0.003
		C14.205,5.244,14.201,5.222,14.2,5.2c-0.004-0.186-0.001-0.373-0.001-0.559c0-0.086,0.003-0.087,0.078-0.098
		C14.299,4.54,14.327,4.546,14.334,4.51z"/>
	<path fill="#F15623" d="M14.503,8.409c0-0.404,0-0.808,0-1.212c0-0.025,0.008-0.054-0.018-0.072
		c-0.005,0.008-0.011,0.015-0.015,0.023c-0.062,0.149-0.124,0.298-0.186,0.447c-0.081,0.192-0.163,0.384-0.244,0.576
		c-0.01,0.024-0.019,0.049-0.028,0.073c-0.004,0.01,0.001,0.019,0.01,0.023c0.006,0.003,0.012,0.006,0.018,0.007
		c0.146,0.044,0.291,0.088,0.437,0.132C14.486,8.409,14.495,8.409,14.503,8.409z"/>
	<path fill="#EF3424" d="M17.1,8.382c0-0.204,0.001-0.407,0.001-0.611c0-0.019,0-0.039,0-0.058c0.001-0.038,0.001-0.038,0.042-0.048
		c-0.011-0.008-0.024-0.009-0.037-0.01c-0.09-0.007-0.181-0.013-0.271-0.02c-0.045-0.003-0.09-0.009-0.135-0.012
		c-0.022-0.002-0.025,0.002-0.029,0.028c-0.011,0.086-0.021,0.172-0.03,0.259c-0.011,0.108-0.023,0.216-0.032,0.324
		c-0.008,0.086-0.004,0.069,0.057,0.081c0.121,0.024,0.243,0.042,0.364,0.062C17.053,8.382,17.077,8.381,17.1,8.382z"/>
	<path fill="#F48323" d="M17.75,6.096c-0.012,0.015-0.027,0.013-0.042,0.013c-0.043,0-0.086,0-0.129,0.001
		c-0.028,0.001-0.034,0.008-0.036,0.038c-0.001,0.019,0,0.039,0,0.058c0,0.196,0,0.391,0,0.587c0.023,0.001,0.047,0.004,0.07,0.003
		c0.107-0.004,0.213,0.007,0.318,0.029c0-0.268,0.001-0.536,0.001-0.804C17.875,6.056,17.815,6.083,17.75,6.096z"/>
	<path fill="#FBE421" d="M15.97,4.522c-0.063,0-0.125,0-0.188,0.001c-0.04,0.001-0.043,0.005-0.044,0.052c0,0.01,0,0.019,0,0.029
		c0,0.395,0,0.789,0,1.184c0,0.044,0.001,0.087,0.029,0.123c0,0,0-0.001,0-0.001c-0.002-0.009,0.005-0.012,0.008-0.018
		c0.004-0.002,0.005-0.005,0.004-0.01c0.001-0.008,0.005-0.014,0.01-0.019c0.023-0.052,0.046-0.104,0.068-0.156
		c0.034-0.081,0.068-0.162,0.102-0.243c0.009-0.022,0.014-0.045,0.014-0.07c0-0.283,0-0.567-0.001-0.85
		C15.972,4.536,15.97,4.529,15.97,4.522z"/>
	<path fill="#F15823" d="M14.334,4.51c-0.012,0.014-0.027,0.012-0.042,0.012c-0.026,0-0.052,0-0.078,0.002
		c-0.021,0.002-0.032,0.014-0.034,0.037c-0.002,0.019-0.001,0.039-0.001,0.058c0,0.179,0,0.358,0,0.538
		c0,0.037,0.002,0.072,0.013,0.107c0.117,0.004,0.234,0.005,0.35,0c0.012-0.025,0.008-0.052,0.008-0.078
		c0-0.184-0.001-0.368,0-0.552c0-0.08,0.007-0.083,0.078-0.089C14.669,4.54,14.72,4.568,14.75,4.51
		c-0.047-0.001-0.094-0.003-0.141-0.003C14.517,4.507,14.426,4.509,14.334,4.51z"/>
	<path fill="#F59222" d="M15.491,4.522c0.047,0,0.093,0,0.14-0.001c0.015,0,0.03,0.002,0.042-0.012
		c-0.011-0.001-0.021-0.003-0.032-0.003c-0.161,0-0.321,0-0.482,0.001c-0.011,0-0.021,0.002-0.032,0.003
		c-0.077,0.011-0.155,0.007-0.232,0.004c-0.056-0.003-0.073,0.025-0.073,0.08c-0.001,0.198-0.001,0.397,0,0.595
		c0,0.027,0.002,0.054,0.02,0.074c0.113,0.005,0.225,0.006,0.338,0c0-0.213,0-0.427,0-0.64c0-0.017,0-0.034,0-0.051
		c0.001-0.045,0.004-0.049,0.046-0.05C15.313,4.522,15.402,4.522,15.491,4.522z"/>
	<path fill="#F37623" d="M14.841,5.263c0-0.22,0-0.439,0-0.659c0-0.085-0.002-0.082,0.075-0.082c0.056,0,0.112,0,0.168,0
		c0.015,0,0.03,0.002,0.042-0.012c-0.06-0.001-0.119-0.003-0.179-0.003c-0.066,0-0.132,0.002-0.198,0.003
		c-0.012,0.014-0.027,0.012-0.042,0.012c-0.047,0-0.095,0-0.142,0.001c-0.027,0.001-0.034,0.008-0.035,0.039
		c-0.001,0.014,0,0.029,0,0.044c0,0.191,0,0.382,0,0.573c0,0.029-0.002,0.058,0.013,0.084C14.642,5.267,14.741,5.269,14.841,5.263z"
		/>
	<path fill="#F69B22" d="M17.976,4.461c-0.036,0.001-0.073,0.001-0.109,0.003c-0.044,0.002-0.062,0.022-0.063,0.071
		c-0.001,0.055,0,0.111,0,0.166c0,0.149,0.001,0.299-0.001,0.448c0,0.029,0.005,0.052,0.026,0.069
		c0.004,0.001,0.009,0.002,0.013,0.003c0.007,0.007,0.018,0.005,0.026,0.01c0.074,0.029,0.138,0.076,0.195,0.135
		c0.017-0.071,0.014-0.144,0.014-0.216c0-0.225,0.001-0.451,0.001-0.676C18.044,4.459,18.01,4.462,17.976,4.461z"/>
	<path fill="#BEAB19" d="M21.307,8.364c0.13-0.24,0.259-0.48,0.389-0.721c0.121-0.224,0.241-0.448,0.362-0.671
		c0.079-0.147,0.16-0.293,0.239-0.44c0.005-0.01,0.009-0.022,0.012-0.033c0.001-0.003-0.002-0.01-0.005-0.012
		c-0.003-0.002-0.01,0-0.012,0.003c-0.008,0.011-0.016,0.022-0.023,0.034c-0.024,0.043-0.047,0.087-0.07,0.131
		c-0.107,0.202-0.214,0.404-0.321,0.605c-0.131,0.245-0.263,0.489-0.394,0.734c-0.063,0.118-0.124,0.238-0.186,0.357
		C21.291,8.366,21.297,8.367,21.307,8.364z"/>
	<path fill="#8B7612" d="M21.307,8.364c-0.003-0.004-0.007-0.008-0.01-0.013c-0.013,0.019-0.027,0.037-0.038,0.058
		c-0.121,0.225-0.241,0.451-0.361,0.677c-0.013,0.025-0.029,0.048-0.033,0.078c0.002,0.002,0.003,0.003,0.005,0.005
		c0.028-0.028,0.042-0.067,0.061-0.102c0.087-0.159,0.171-0.319,0.257-0.479c0.033-0.062,0.068-0.124,0.102-0.186
		C21.297,8.39,21.302,8.377,21.307,8.364z"/>
	<path fill="#A67317" d="M18.647,2.732c-0.022-0.002-0.035,0.017-0.051,0.029c-0.113,0.089-0.225,0.18-0.337,0.271
		c-0.009,0.007-0.017,0.015-0.024,0.024c-0.002,0.002,0,0.009,0.002,0.012c0.002,0.003,0.008,0.007,0.011,0.006
		c0.006-0.001,0.012-0.004,0.017-0.008c0.122-0.104,0.245-0.207,0.367-0.312C18.639,2.748,18.642,2.739,18.647,2.732L18.647,2.732z"
		/>
	<path fill="#8B7612" d="M20.866,9.164c-0.021,0.02-0.034,0.048-0.048,0.075c-0.01,0.02-0.024,0.038-0.026,0.064
		c0.026-0.022,0.058-0.075,0.079-0.134C20.869,9.167,20.867,9.165,20.866,9.164z"/>
	<path fill="#F69522" d="M15.194,5.439c0.004-0.008,0.01-0.016,0.01-0.025c0.001-0.04,0.001-0.08,0.001-0.12
		c0-0.012-0.005-0.023-0.015-0.029C15.2,5.323,15.194,5.381,15.194,5.439z"/>
	<path fill="#F69B22" d="M18.115,4.48c0.015,0.02,0.035,0.011,0.054,0.012C18.152,4.48,18.134,4.478,18.115,4.48z"/>
	<path fill="#F58C22" d="M18.169,8.397c-0.019-0.002-0.038-0.009-0.054,0.012C18.134,8.41,18.152,8.41,18.169,8.397z"/>
	<path fill="#F69B22" d="M18.139,5.561c0.001-0.017,0.005-0.036-0.01-0.049C18.128,5.53,18.129,5.547,18.139,5.561z"/>
	<path fill="#F69522" d="M15.23,7.201c-0.01,0.006-0.012,0.017-0.012,0.028C15.227,7.223,15.231,7.213,15.23,7.201z"/>
	<path fill="#F69522" d="M15.27,7.099c-0.011,0.006-0.014,0.017-0.013,0.03C15.267,7.122,15.27,7.112,15.27,7.099z"/>
	<path fill="#F8B422" d="M15.556,6.415c-0.011,0.007-0.013,0.018-0.012,0.03C15.553,6.438,15.556,6.427,15.556,6.415z"/>
	<path fill="#F69B22" d="M18.127,5.5c0.001-0.012,0-0.023-0.01-0.031C18.115,5.481,18.119,5.492,18.127,5.5z"/>
	<path fill="#F37123" d="M17.867,5.232c-0.006-0.01-0.016-0.012-0.026-0.01C17.848,5.231,17.857,5.234,17.867,5.232z"/>
	<path fill="#F8B522" d="M18.517,4.624c0.005,0.012,0.015,0.015,0.025,0.015C18.537,4.628,18.528,4.624,18.517,4.624z"/>
	<path fill="#F69B22" d="M18.193,4.495c0.007,0.011,0.017,0.012,0.028,0.01C18.214,4.494,18.203,4.494,18.193,4.495z"/>
	<path fill="#A67317" d="M18.66,2.716c0.012,0.002,0.021,0,0.026-0.014l0.001,0.001C18.675,2.701,18.665,2.703,18.66,2.716
		L18.66,2.716z"/>
	<path fill="#EF4024" d="M12.49,9.255c0.001,0.012,0.003,0.022,0.014,0.028C12.503,9.271,12.499,9.261,12.49,9.255z"/>
	<path fill="#EF4024" d="M12.438,9.153c0.001,0.012,0.003,0.022,0.014,0.028C12.451,9.169,12.447,9.16,12.438,9.153z"/>
	<path fill="#EF4024" d="M12.269,8.817c0,0.012,0.003,0.023,0.014,0.029C12.283,8.833,12.279,8.824,12.269,8.817z"/>
	<path fill="#EF4024" d="M12.256,8.789c0.001,0.012,0.003,0.022,0.013,0.028C12.27,8.805,12.265,8.795,12.256,8.789z"/>
	<path fill="#EF4024" d="M12.476,11.21c-0.001-0.009-0.004-0.016-0.012-0.02C12.465,11.199,12.469,11.206,12.476,11.21z"/>
	<path fill="#EF4024" d="M12.464,11.191c-0.003-0.005-0.007-0.01-0.01-0.014C12.454,11.184,12.457,11.189,12.464,11.191z"/>
	<path fill="#EF4024" d="M12.45,11.166c0-0.009-0.004-0.015-0.011-0.02C12.439,11.155,12.443,11.162,12.45,11.166z"/>
	<path fill="#EF4024" d="M12.439,11.145c-0.003-0.004-0.005-0.008-0.008-0.012C12.43,11.14,12.433,11.143,12.439,11.145z"/>
	<path fill="#EF4024" d="M12.425,11.119c-0.003-0.005-0.006-0.01-0.009-0.015C12.415,11.111,12.419,11.116,12.425,11.119z"/>
	<path fill="#EF4024" d="M12.411,11.092c-0.003-0.006-0.006-0.012-0.01-0.018C12.402,11.082,12.405,11.088,12.411,11.092z"/>
	<path fill="#EF4024" d="M12.398,11.065c-0.001-0.009-0.005-0.016-0.013-0.02C12.386,11.054,12.39,11.061,12.398,11.065z"/>
	<path fill="#EF4024" d="M12.386,11.046c-0.003-0.005-0.007-0.01-0.01-0.015C12.375,11.039,12.379,11.044,12.386,11.046z"/>
	<path fill="#EF4024" d="M12.372,11.021c0-0.009-0.004-0.016-0.011-0.02C12.361,11.01,12.365,11.017,12.372,11.021z"/>
	<path fill="#EF4024" d="M12.361,11c-0.003-0.004-0.006-0.008-0.008-0.013C12.352,10.994,12.355,10.998,12.361,11z"/>
	<path fill="#EF4024" d="M12.347,10.974c-0.003-0.005-0.006-0.011-0.009-0.016C12.337,10.966,12.341,10.97,12.347,10.974z"/>
	<path fill="#EF4024" d="M12.333,10.947c-0.003-0.006-0.007-0.013-0.01-0.019C12.323,10.936,12.326,10.942,12.333,10.947z"/>
	<path fill="#EF4024" d="M12.322,10.926c-0.003-0.004-0.006-0.008-0.009-0.011C12.313,10.921,12.317,10.924,12.322,10.926z"/>
	<path fill="#EF4024" d="M12.307,10.903c-0.003-0.006-0.006-0.012-0.01-0.018C12.298,10.893,12.301,10.899,12.307,10.903z"/>
	<path fill="#EF4024" d="M12.294,10.876c0-0.009-0.004-0.016-0.011-0.021C12.283,10.864,12.287,10.871,12.294,10.876z"/>
	<path fill="#EF4024" d="M12.283,10.855c-0.003-0.004-0.006-0.009-0.009-0.013C12.274,10.848,12.277,10.853,12.283,10.855z"/>
	<path fill="#EF4024" d="M12.269,10.828c-0.003-0.005-0.006-0.011-0.009-0.016C12.259,10.82,12.263,10.825,12.269,10.828z"/>
	<path fill="#EF4024" d="M12.255,10.801c-0.001-0.009-0.005-0.015-0.012-0.019C12.244,10.791,12.248,10.797,12.255,10.801z"/>
	<path fill="#EF4024" d="M12.243,10.782c-0.003-0.005-0.006-0.009-0.01-0.014C12.233,10.776,12.237,10.781,12.243,10.782z"/>
	<path fill="#EF4024" d="M12.229,10.757c-0.003-0.006-0.007-0.012-0.01-0.018C12.219,10.748,12.223,10.753,12.229,10.757z"/>
	<path fill="#EF4024" d="M12.216,10.731c0-0.009-0.004-0.016-0.011-0.021C12.205,10.719,12.209,10.726,12.216,10.731z"/>
	<path fill="#F8B422" d="M15.527,6.488c-0.006,0.004-0.009,0.011-0.009,0.019C15.525,6.503,15.528,6.496,15.527,6.488z"/>
	<path fill="#F8B422" d="M15.539,6.459c-0.006,0.004-0.009,0.01-0.008,0.017C15.538,6.473,15.54,6.467,15.539,6.459z"/>
	<path fill="#F8B522" d="M18.556,6.375c0.004,0.003,0.009,0.007,0.013,0.01C18.567,6.378,18.563,6.375,18.556,6.375z"/>
	<path fill="#F8B522" d="M18.557,6.285c-0.005,0.004-0.009,0.008-0.014,0.012C18.551,6.297,18.555,6.293,18.557,6.285z"/>
	<path fill="#F8B522" d="M18.573,6.271c-0.008,0-0.013,0.005-0.016,0.013C18.565,6.284,18.57,6.28,18.573,6.271z"/>
	<path fill="#F8B522" d="M18.593,6.254c-0.003,0.003-0.007,0.007-0.01,0.01C18.589,6.264,18.592,6.261,18.593,6.254z"/>
	<path fill="#F8B522" d="M18.609,6.241c-0.007,0-0.011,0.004-0.014,0.011C18.603,6.253,18.607,6.25,18.609,6.241z"/>
	<path fill="#F8B522" d="M18.625,6.228c-0.008,0.001-0.013,0.005-0.015,0.014C18.617,6.241,18.622,6.236,18.625,6.228z"/>
	<path fill="#EF3324" d="M11.487,6.008c-0.003,0.005-0.006,0.01-0.009,0.015C11.484,6.02,11.487,6.015,11.487,6.008z"/>
	<path fill="#FACC21" d="M15.775,5.891c-0.006,0.004-0.009,0.01-0.008,0.018C15.774,5.905,15.776,5.899,15.775,5.891z"/>
	<path fill="#FACC21" d="M15.789,5.862c-0.007,0.004-0.01,0.011-0.01,0.019C15.786,5.877,15.789,5.871,15.789,5.862z"/>
	<path fill="#F8B522" d="M18.574,8.223c-0.008,0-0.014,0.004-0.017,0.013C18.565,8.235,18.571,8.231,18.574,8.223z"/>
	<path fill="#F69522" d="M15.182,5.468c0.006-0.004,0.009-0.01,0.009-0.018C15.184,5.454,15.181,5.46,15.182,5.468z"/>
	<path fill="#F69B22" d="M18.113,5.458c-0.003-0.006-0.006-0.012-0.009-0.018C18.104,5.448,18.107,5.454,18.113,5.458z"/>
	<path fill="#F69B22" d="M18.1,5.431c-0.001-0.009-0.004-0.016-0.011-0.02C18.089,5.42,18.092,5.426,18.1,5.431z"/>
	<path fill="#F69B22" d="M18.088,5.41c-0.003-0.005-0.006-0.009-0.009-0.014C18.079,5.404,18.083,5.408,18.088,5.41z"/>
	<path fill="#F69B22" d="M18.074,5.386c-0.001-0.009-0.005-0.015-0.012-0.019C18.063,5.376,18.067,5.382,18.074,5.386z"/>
	<path fill="#EF4024" d="M12.245,8.77c0,0.008,0.004,0.014,0.01,0.018C12.256,8.78,12.253,8.773,12.245,8.77z"/>
	<path fill="#EF4024" d="M12.283,8.845c0.003,0.005,0.006,0.01,0.009,0.015C12.292,8.852,12.289,8.848,12.283,8.845z"/>
	<path fill="#EF4024" d="M12.296,8.872c0.003,0.006,0.006,0.011,0.009,0.017C12.306,8.881,12.302,8.876,12.296,8.872z"/>
	<path fill="#EF4024" d="M12.31,8.898c0,0.009,0.004,0.017,0.012,0.021C12.321,8.909,12.318,8.902,12.31,8.898z"/>
	<path fill="#EF4024" d="M12.322,8.918c0.003,0.005,0.006,0.009,0.009,0.014C12.33,8.925,12.327,8.921,12.322,8.918z"/>
	<path fill="#EF4024" d="M12.335,8.946c0.003,0.005,0.006,0.011,0.009,0.016C12.344,8.954,12.341,8.949,12.335,8.946z"/>
	<path fill="#F8B522" d="M18.557,8.236c-0.004,0.003-0.009,0.007-0.013,0.01C18.551,8.247,18.555,8.243,18.557,8.236z"/>
	<path fill="#F8B522" d="M18.621,4.698c0.005,0.004,0.01,0.009,0.014,0.013C18.633,4.703,18.629,4.698,18.621,4.698z"/>
	<path fill="#F8B522" d="M18.608,4.686c0.004,0.004,0.008,0.007,0.012,0.011C18.619,4.69,18.615,4.686,18.608,4.686z"/>
	<path fill="#EF4024" d="M12.348,8.974c0.003,0.006,0.006,0.011,0.009,0.017C12.358,8.983,12.355,8.977,12.348,8.974z"/>
	<path fill="#F8B522" d="M18.582,4.668c0.004,0.008,0.009,0.012,0.017,0.013C18.596,4.672,18.59,4.668,18.582,4.668z"/>
	<path fill="#F8B522" d="M18.569,4.657c0.004,0.004,0.008,0.007,0.013,0.011C18.58,4.66,18.576,4.656,18.569,4.657z"/>
	<path fill="#F8B522" d="M18.543,4.639c0.004,0.008,0.01,0.012,0.018,0.012C18.557,4.643,18.551,4.639,18.543,4.639z"/>
	<path fill="#F8B522" d="M18.613,8.194c-0.008,0-0.014,0.004-0.017,0.012C18.604,8.206,18.61,8.202,18.613,8.194z"/>
	<path fill="#F69522" d="M15.242,7.172c-0.006,0.004-0.009,0.011-0.009,0.019C15.24,7.187,15.242,7.181,15.242,7.172z"/>
	<path fill="#F69522" d="M15.254,7.143c-0.006,0.004-0.009,0.01-0.008,0.017C15.252,7.157,15.255,7.151,15.254,7.143z"/>
	<path fill="#F8B522" d="M18.596,8.206c-0.004,0.003-0.008,0.007-0.013,0.01C18.59,8.217,18.594,8.214,18.596,8.206z"/>
	<path fill="#EF4024" d="M12.362,9.002c0.003,0.006,0.006,0.012,0.009,0.018C12.371,9.012,12.368,9.006,12.362,9.002z"/>
	<path fill="#EF4024" d="M12.375,9.029c0.001,0.009,0.005,0.016,0.012,0.02C12.387,9.04,12.382,9.034,12.375,9.029z"/>
	<path fill="#EF4024" d="M12.387,9.049c0.003,0.005,0.006,0.01,0.009,0.015C12.396,9.056,12.393,9.051,12.387,9.049z"/>
	<path fill="#EF4024" d="M12.4,9.076c0.003,0.006,0.006,0.012,0.009,0.017C12.41,9.085,12.407,9.079,12.4,9.076z"/>
	<path fill="#EF4024" d="M12.414,9.104c0.003,0.006,0.006,0.012,0.01,0.019C12.423,9.114,12.42,9.108,12.414,9.104z"/>
	<path fill="#EF4024" d="M12.427,9.131c0,0.009,0.004,0.016,0.011,0.021C12.437,9.143,12.434,9.136,12.427,9.131z"/>
	<path fill="#A67317" d="M18.647,2.731c0.009,0,0.014-0.004,0.013-0.015c0,0,0.001,0.001,0.001,0.001
		C18.652,2.717,18.647,2.721,18.647,2.731C18.647,2.732,18.647,2.731,18.647,2.731z"/>
	<path fill="#A67317" d="M18.686,2.702c0.003-0.002,0.006-0.004,0.009-0.006C18.686,2.689,18.687,2.697,18.686,2.702
		C18.687,2.703,18.686,2.702,18.686,2.702z"/>
	<path fill="#EF4024" d="M12.451,9.18c0.003,0.005,0.006,0.01,0.01,0.014C12.461,9.187,12.458,9.183,12.451,9.18z"/>
	<path fill="#EF4024" d="M12.466,9.205c0.003,0.006,0.007,0.013,0.01,0.019C12.476,9.216,12.472,9.209,12.466,9.205z"/>
	<path fill="#EF4024" d="M12.479,9.233c0,0.009,0.004,0.016,0.011,0.021C12.489,9.245,12.486,9.238,12.479,9.233z"/>
	<path fill="#EF4024" d="M12.503,9.283c0.003,0.005,0.006,0.009,0.009,0.014C12.512,9.289,12.509,9.285,12.503,9.283z"/>
	<path fill="#EF4024" d="M12.517,9.31c0.003,0.005,0.006,0.01,0.009,0.016C12.523,9.32,12.52,9.315,12.517,9.31z"/>
	<path fill="#666666" d="M22.848,2.955c-0.009,0.025,0.006,0.043,0.014,0.061c0.058,0.135,0.118,0.27,0.177,0.405
		c0.092,0.211,0.184,0.422,0.276,0.634c0.082,0.19,0.164,0.379,0.246,0.569c0.086,0.198,0.173,0.396,0.259,0.595
		c0.088,0.203,0.174,0.406,0.262,0.609c0.054,0.124,0.109,0.248,0.163,0.372c0.028,0.063,0.055,0.126,0.083,0.189
		c0.008,0.019,0.009,0.037,0.001,0.055c-0.01,0.021-0.02,0.043-0.029,0.065c-0.097,0.225-0.195,0.449-0.292,0.674
		c-0.024,0.057-0.048,0.114-0.073,0.171c-0.01,0.023-0.006,0.039,0.01,0.057c0.069,0.077,0.137,0.155,0.205,0.233
		c0.225,0.258,0.451,0.517,0.676,0.776c0.163,0.187,0.326,0.375,0.489,0.563c0.172,0.198,0.345,0.396,0.517,0.594
		c0.137,0.158,0.274,0.317,0.412,0.475c0.018,0.021,0.037,0.04,0.055,0.06c0.016-0.011,0.008-0.022,0.004-0.032
		c-0.033-0.076-0.067-0.152-0.101-0.228c-0.062-0.138-0.125-0.277-0.188-0.415c-0.056-0.123-0.11-0.247-0.166-0.37
		c-0.143-0.318-0.287-0.636-0.431-0.953c-0.059-0.13-0.119-0.258-0.178-0.388c-0.077-0.171-0.153-0.342-0.23-0.513
		c-0.065-0.145-0.132-0.289-0.197-0.434c-0.025-0.056-0.047-0.115-0.077-0.168c-0.014-0.026-0.011-0.05,0.001-0.076
		c0.049-0.111,0.096-0.223,0.144-0.334c0.063-0.146,0.127-0.292,0.19-0.438c0.018-0.041,0.037-0.082,0.055-0.124
		c0.022-0.049,0.022-0.05-0.011-0.087c-0.095-0.109-0.191-0.218-0.286-0.327c-0.177-0.203-0.354-0.406-0.53-0.609
		c-0.159-0.182-0.317-0.365-0.475-0.547c-0.175-0.202-0.351-0.403-0.526-0.604c-0.133-0.153-0.265-0.306-0.398-0.459
		C22.883,2.984,22.87,2.964,22.848,2.955z"/>
	<path fill="#666666" d="M21.828,12.307c0.05,0.008,2.853,0.009,2.929,0.002c0.004-0.024-0.014-0.033-0.025-0.046
		c-0.182-0.211-0.365-0.421-0.548-0.631c-0.174-0.2-0.348-0.399-0.521-0.599c-0.166-0.191-0.332-0.382-0.498-0.573
		c-0.109-0.125-0.217-0.251-0.326-0.376c-0.012-0.014-0.021-0.031-0.042-0.036c-0.322,0.746-0.644,1.492-0.966,2.238
		C21.827,12.292,21.828,12.3,21.828,12.307z"/>
	<path fill="#666666" d="M26.121,0.577c-0.376,0-0.753,0-1.129,0c-0.017,0-0.041-0.009-0.048,0.007
		c-0.011,0.024,0.015,0.036,0.027,0.05c0.142,0.163,0.285,0.325,0.427,0.488c0.175,0.201,0.35,0.402,0.525,0.604
		c0.16,0.184,0.32,0.368,0.48,0.552c0.032,0.036,0.062,0.074,0.094,0.11c0.016,0.018,0.024,0.017,0.034-0.004
		c0.018-0.039,0.035-0.078,0.052-0.117c0.035-0.081,0.068-0.162,0.103-0.243c0.047-0.109,0.095-0.217,0.143-0.326
		C26.89,1.559,26.95,1.42,27.01,1.281c0.094-0.216,0.187-0.431,0.281-0.647c0.024-0.054,0.022-0.057-0.035-0.057
		C26.878,0.577,26.499,0.577,26.121,0.577z"/>
	<path fill="#F58722" d="M23.737,3.29c0.068,0.081,0.136,0.162,0.205,0.242c0.14,0.162,0.28,0.323,0.421,0.484
		c0.012,0.014,0.022,0.03,0.039,0.038c0.03-0.04,0.02-0.088,0.02-0.133c0.001-1.015,0-2.03,0.001-3.045
		c0-0.056-0.005-0.113,0.041-0.153c-0.032-0.047-0.072-0.086-0.108-0.129c-0.013-0.015-0.028-0.021-0.046-0.015
		c-0.075,0.011-0.151,0.001-0.227,0.005c-0.12,0.006-0.241-0.013-0.361,0.011c-0.038,0.138-0.015,0.279-0.016,0.418
		c-0.003,0.585-0.001,1.169-0.001,1.754c0,0.121,0.001,0.243-0.001,0.364C23.703,3.187,23.71,3.241,23.737,3.29z"/>
	<path fill="#F7A222" d="M24.463,0.723c-0.009,0-0.018-0.001-0.026,0c-0.026,0.005-0.033,0.015-0.036,0.043
		c-0.001,0.012-0.001,0.024-0.001,0.036c0,1.084,0,2.168,0,3.252c0,0,0.002,0.002,0.002,0.002c0.003,0.005,0.007,0.01,0.011,0.013
		l0.001,0.002c0.003,0.005,0.007,0.01,0.011,0.014l0.001,0.001c0.004,0.005,0.008,0.01,0.012,0.014L24.441,4.1
		c0.004,0.005,0.008,0.009,0.012,0.014l0.001,0.001c0.004,0.005,0.008,0.009,0.012,0.014l0.001,0.001
		c0.004,0.005,0.008,0.009,0.012,0.014l0.001,0.001c0.004,0.005,0.008,0.009,0.012,0.014l0,0c0.004,0.005,0.009,0.009,0.012,0.015
		c0.047,0.056,0.093,0.112,0.141,0.168c0.103,0.119,0.206,0.238,0.31,0.357c0.013,0.015,0.029,0.029,0.043,0.043
		c0.031-0.039,0.021-0.088,0.021-0.132c0.001-1.019,0-2.037,0-3.056c0-0.053-0.004-0.108,0.034-0.15
		c-0.041-0.049-0.081-0.099-0.123-0.147c-0.127-0.147-0.255-0.293-0.383-0.44c-0.003-0.003-0.007-0.005-0.011-0.008
		c-0.009-0.001-0.015-0.006-0.017-0.017l0.001,0.001c-0.008-0.001-0.013-0.006-0.014-0.016l0.001,0.002
		c-0.012-0.002-0.009-0.019-0.018-0.023l-0.002-0.002c-0.002-0.006-0.005-0.01-0.011-0.012l-0.002-0.002
		c-0.002-0.006-0.006-0.01-0.011-0.012L24.463,0.723z"/>
	<path fill="#F04723" d="M24.053,8.204c-0.015-0.031-0.04-0.05-0.061-0.075c-0.076-0.089-0.153-0.178-0.23-0.266
		c-0.009-0.01-0.017-0.022-0.033-0.027c-0.005,0.01-0.011,0.02-0.016,0.03c-0.082,0.19-0.163,0.379-0.245,0.569
		c-0.083,0.192-0.166,0.383-0.249,0.575c-0.061,0.142-0.121,0.284-0.181,0.426c-0.015,0.035-0.03,0.07-0.046,0.104
		c-0.012,0.026-0.007,0.044,0.011,0.064c0.091,0.104,0.181,0.208,0.272,0.312c0.234,0.269,0.468,0.538,0.702,0.807
		c0.01,0.012,0.022,0.022,0.034,0.034c0.028-0.019,0.031-0.051,0.034-0.082c0.003-0.034,0.002-0.068,0.002-0.102
		c0-0.729,0-1.458,0-2.187C24.046,8.325,24.047,8.264,24.053,8.204z"/>
	<path fill="#F47E23" d="M24.675,11.521c0.065,0.077,0.13,0.155,0.196,0.231c0.137,0.158,0.274,0.315,0.411,0.472
		c0.009,0.01,0.019,0.019,0.029,0.028c0.032-0.024,0.032-0.061,0.028-0.098c-0.008-0.063-0.007-0.126-0.007-0.188
		c0-0.687,0-1.375,0-2.062c0-0.064,0.002-0.126,0.05-0.172c-0.011-0.015-0.021-0.031-0.032-0.045
		c-0.189-0.218-0.379-0.436-0.569-0.654c-0.004-0.005-0.01-0.009-0.015-0.013c-0.004-0.005-0.008-0.01-0.012-0.014l0-0.001
		c-0.004-0.005-0.008-0.01-0.013-0.014l0-0.001c-0.004-0.005-0.008-0.01-0.012-0.014l0,0c-0.004-0.005-0.008-0.01-0.012-0.014l0,0
		c-0.004-0.005-0.008-0.01-0.013-0.015l0,0c-0.004-0.005-0.009-0.01-0.013-0.015l0,0c-0.032-0.001-0.038,0.025-0.043,0.052
		c-0.005,0.029-0.004,0.058-0.004,0.087c0,0.767,0,1.535,0,2.302c0,0.046-0.002,0.092,0.022,0.133l0.002,0.002
		C24.666,11.515,24.67,11.519,24.675,11.521z"/>
	<path fill="#F25F23" d="M24.662,11.507c0-0.024-0.001-0.048-0.001-0.073c0-0.801,0-1.603,0-2.404c0-0.019,0-0.039,0.001-0.058
		c0.001-0.019,0.011-0.031,0.025-0.039C24.679,8.922,24.672,8.91,24.663,8.9c-0.184-0.212-0.369-0.425-0.554-0.637
		c-0.018-0.021-0.037-0.039-0.056-0.059c-0.017,0.009-0.028,0.023-0.028,0.044c0,0.022,0,0.044,0,0.065c0,0.771,0,1.543,0,2.314
		c0,0.044-0.002,0.087-0.015,0.129c0.048,0.058,0.096,0.116,0.146,0.173c0.163,0.189,0.327,0.377,0.491,0.565
		C24.651,11.5,24.657,11.503,24.662,11.507z"/>
	<path fill="#F8B822" d="M25.053,1.402c-0.063-0.003-0.052,0.011-0.054,0.058c-0.001,0.017,0,0.034,0,0.051c0,1.076,0,2.153,0,3.229
		c0.019,0.036,0.049,0.061,0.074,0.09c0.08,0.094,0.162,0.188,0.243,0.281c0.02,0.023,0.026,0.022,0.037-0.004
		c0.056-0.128,0.111-0.257,0.166-0.385c0.005-0.013,0.008-0.027,0.013-0.041c-0.02-0.032-0.018-0.069-0.018-0.105
		c0-0.834,0-1.668,0-2.502c0-0.041,0.001-0.083,0.02-0.12c-0.025-0.042-0.06-0.075-0.091-0.111C25.336,1.722,25.23,1.6,25.123,1.477
		c-0.013-0.015-0.029-0.029-0.043-0.043c-0.007-0.003-0.013-0.007-0.015-0.017l0.001,0.002C25.059,1.417,25.054,1.412,25.053,1.402
		L25.053,1.402z"/>
	<path fill="#F26A23" d="M23.737,3.29c-0.014-0.057-0.011-0.115-0.011-0.173c0-0.809,0-1.619,0-2.428
		c0-0.106-0.008-0.098,0.087-0.098c0.145,0,0.29,0,0.435-0.001c0.021,0,0.044,0.008,0.062-0.012
		c-0.013-0.001-0.026-0.003-0.038-0.003c-0.195,0-0.39,0-0.586,0c-0.013,0-0.026,0.002-0.038,0.003
		c-0.142,0.012-0.285,0.005-0.427,0.003c-0.056-0.001-0.073,0.026-0.073,0.08c0,0.046,0,0.092,0,0.138
		c0,0.579,0.001,1.158-0.001,1.738c0,0.027,0.002,0.053,0.007,0.079c0.068,0.08,0.135,0.161,0.204,0.241
		c0.118,0.137,0.237,0.273,0.355,0.409C23.719,3.276,23.728,3.282,23.737,3.29z"/>
	<path fill="#F69722" d="M25.381,9.732c-0.053,0.007-0.063,0.016-0.069,0.072c-0.002,0.017-0.001,0.034-0.001,0.051
		c0,0.74,0,1.48,0,2.22c0,0.019-0.004,0.041,0.002,0.058c0.015,0.042,0.009,0.08-0.003,0.12c0.017,0.036,0.044,0.047,0.08,0.047
		c0.158-0.001,0.315,0,0.473,0c0.011,0,0.021-0.002,0.032-0.003c0.012-0.017,0.01-0.036,0.01-0.056
		c-0.005-0.573-0.001-1.145-0.002-1.718c0-0.054,0-0.107,0.034-0.151c-0.02-0.038-0.051-0.065-0.078-0.096
		c-0.147-0.171-0.295-0.34-0.443-0.51C25.405,9.753,25.392,9.743,25.381,9.732z"/>
	<path fill="#F9CB22" d="M25.534,1.956c-0.04,0.013-0.04,0.013-0.041,0.05c0,0.017,0,0.034,0,0.051c0,0.849,0,1.698,0,2.547
		c0,0.019,0,0.039,0,0.058c0.001,0.029,0.005,0.031,0.039,0.02c0,0,0,0,0,0c0.004-0.004,0.007-0.009,0.009-0.014
		c0.004-0.003,0.006-0.007,0.005-0.012c0.003-0.006,0.006-0.012,0.009-0.017c0.004-0.003,0.005-0.008,0.004-0.013
		c0.006-0.009,0.004-0.023,0.013-0.031l0,0c0.007-0.008,0.005-0.022,0.012-0.03l0-0.001c0.008-0.007,0.005-0.02,0.012-0.028
		c0.004-0.002,0.005-0.005,0.003-0.009c0-0.009,0.005-0.014,0.009-0.02c0.007-0.012,0.016-0.023,0.021-0.036
		c0.06-0.139,0.119-0.279,0.18-0.419c0.083-0.191,0.167-0.382,0.251-0.574c0.055-0.126,0.109-0.253,0.163-0.379
		c0.03-0.07,0.059-0.14,0.09-0.209c0.011-0.025,0.006-0.04-0.009-0.057c-0.082-0.093-0.163-0.187-0.245-0.281
		c-0.136-0.156-0.272-0.312-0.408-0.468c-0.017-0.019-0.031-0.04-0.052-0.054c-0.007-0.003-0.012-0.008-0.015-0.016l0.001,0.001
		C25.579,2.014,25.574,2.009,25.572,2l0.001,0.001c-0.008-0.002-0.013-0.007-0.014-0.017l0.001,0.001
		c-0.009-0.001-0.013-0.007-0.014-0.016l0.001,0.001C25.54,1.971,25.535,1.965,25.534,1.956L25.534,1.956z"/>
	<path fill="#F7AE22" d="M25.936,10.371c-0.008,0.002-0.017,0.003-0.025,0.006c-0.017,0.004-0.026,0.017-0.028,0.035
		c-0.001,0.019-0.001,0.039-0.001,0.058c0,0.573,0,1.146,0,1.719c0,0.037,0.003,0.072,0.013,0.107
		c0.028,0.001,0.056,0.003,0.083,0.003c0.128,0,0.257,0.001,0.385,0c0.021,0,0.043-0.002,0.064-0.003
		c0.027-0.035,0.021-0.077,0.021-0.118c0.001-0.35,0-0.7,0-1.051c0-0.053-0.001-0.106,0.007-0.159
		c-0.024-0.044-0.06-0.076-0.092-0.112c-0.123-0.143-0.247-0.285-0.371-0.427c-0.004-0.005-0.01-0.008-0.015-0.013
		c-0.008-0.002-0.013-0.007-0.016-0.016l0.001,0.001c-0.008-0.002-0.012-0.007-0.014-0.016l0.001,0.001
		C25.942,10.385,25.937,10.38,25.936,10.371C25.936,10.371,25.936,10.371,25.936,10.371z"/>
	<path fill="#F15923" d="M23.153,2.618c0.009-0.02,0.016-0.04,0.015-0.062c-0.001-0.017,0-0.034,0-0.051c0-0.605,0-1.211,0-1.816
		c0-0.106-0.007-0.097,0.088-0.098c0.112,0,0.225,0,0.337,0c0.019,0,0.039,0.006,0.055-0.012c-0.017-0.001-0.034-0.003-0.051-0.003
		c-0.152,0-0.304,0-0.456,0c-0.017,0-0.034,0.002-0.051,0.003c-0.108,0.011-0.216,0.002-0.324,0.005
		c-0.069,0.002-0.084,0.014-0.085,0.093c-0.002,0.444-0.001,0.888-0.001,1.332c0,0.03,0.009,0.057,0.019,0.084l-0.001-0.001
		c0.008,0.003,0.012,0.009,0.014,0.018c0.07,0.082,0.139,0.165,0.209,0.246c0.07,0.082,0.141,0.163,0.212,0.244
		C23.139,2.607,23.146,2.612,23.153,2.618z"/>
	<path fill="#F04423" d="M22.698,2.093C22.698,2.064,22.7,2.035,22.7,2.006c0-0.433,0-0.866,0-1.298c0-0.017,0-0.034,0-0.051
		c0.001-0.057,0.008-0.065,0.062-0.066c0.091-0.001,0.181,0,0.272-0.001c0.019,0,0.039,0.006,0.055-0.012
		c-0.019-0.001-0.039-0.003-0.058-0.003c-0.387,0-0.774,0-1.16,0c-0.013,0-0.026,0-0.039,0c-0.015,0.001-0.02,0.008-0.015,0.022
		c0.005,0.016,0.012,0.031,0.018,0.047c0.107,0.246,0.214,0.491,0.322,0.737c0.024,0.054,0.048,0.109,0.071,0.163
		c0.008,0.018,0.018,0.033,0.03,0.047c0.142,0.163,0.284,0.326,0.426,0.489C22.686,2.086,22.692,2.089,22.698,2.093z"/>
	<path fill="#F9C522" d="M26.455,10.968c-0.018,0.012-0.028,0.029-0.028,0.053c0.001,0.019,0,0.039,0,0.058c0,0.405,0,0.81,0,1.216
		c0.015,0.001,0.03,0.003,0.045,0.003c0.257,0,0.514,0.001,0.771,0.001c0.009,0,0.017,0,0.026,0
		c0.031-0.001,0.036-0.009,0.023-0.038c-0.025-0.056-0.05-0.112-0.076-0.168c-0.033-0.073-0.068-0.146-0.101-0.219
		c-0.036-0.08-0.072-0.16-0.107-0.24c-0.023-0.053-0.053-0.098-0.09-0.14c-0.134-0.151-0.266-0.304-0.399-0.456
		c-0.007-0.008-0.016-0.016-0.024-0.023c-0.007-0.003-0.013-0.008-0.015-0.016l0.001,0.001c-0.007-0.002-0.012-0.008-0.014-0.016
		l0.001,0.001C26.462,10.982,26.457,10.977,26.455,10.968L26.455,10.968z"/>
	<path fill="#F8B822" d="M25.571,4.595c-0.012,0.006-0.014,0.018-0.013,0.031C25.568,4.618,25.571,4.608,25.571,4.595z"/>
	<path fill="#F8B822" d="M25.583,4.566c-0.011,0.007-0.013,0.017-0.012,0.03C25.58,4.588,25.584,4.578,25.583,4.566z"/>
	<path fill="#F8B822" d="M25.595,4.537c-0.01,0.006-0.012,0.017-0.012,0.028C25.592,4.558,25.596,4.549,25.595,4.537z"/>
	<path fill="#F58722" d="M24.491,0.755c0.002,0.012,0.005,0.022,0.018,0.023C24.507,0.766,24.5,0.759,24.491,0.755z"/>
	<path fill="#F25F23" d="M24.675,11.521c-0.003-0.004-0.007-0.008-0.01-0.012C24.665,11.517,24.668,11.521,24.675,11.521z"/>
	<path fill="#F7AE22" d="M26.481,10.998c0.002,0.009,0.007,0.015,0.015,0.016C26.494,11.005,26.489,11,26.481,10.998z"/>
	<path fill="#F7AE22" d="M26.468,10.983c0.002,0.009,0.006,0.014,0.014,0.016C26.481,10.99,26.476,10.985,26.468,10.983z"/>
	<path fill="#F7AE22" d="M26.455,10.969c0.001,0.009,0.006,0.014,0.014,0.016C26.468,10.976,26.463,10.97,26.455,10.969z"/>
	<path fill="#F69722" d="M25.962,10.401c0.002,0.009,0.007,0.015,0.016,0.016C25.975,10.408,25.97,10.403,25.962,10.401z"/>
	<path fill="#F69722" d="M25.949,10.386c0.001,0.009,0.006,0.015,0.014,0.016C25.961,10.393,25.957,10.388,25.949,10.386z"/>
	<path fill="#F69722" d="M25.936,10.371c0.001,0.009,0.006,0.015,0.014,0.016C25.949,10.379,25.944,10.373,25.936,10.371z"/>
	<path fill="#F25F23" d="M24.687,8.933c0.004,0.005,0.009,0.01,0.013,0.015C24.699,8.94,24.695,8.935,24.687,8.933z"/>
	<path fill="#F25F23" d="M24.713,8.963c0.004,0.005,0.008,0.01,0.012,0.014C24.724,8.969,24.72,8.965,24.713,8.963z"/>
	<path fill="#F25F23" d="M24.726,8.978c0.004,0.005,0.008,0.009,0.012,0.014C24.737,8.984,24.733,8.979,24.726,8.978z"/>
	<path fill="#F8B822" d="M25.54,4.668c-0.003,0.005-0.006,0.009-0.009,0.014C25.537,4.68,25.54,4.675,25.54,4.668z"/>
	<path fill="#F8B822" d="M25.554,4.639c-0.003,0.006-0.006,0.011-0.009,0.017C25.552,4.653,25.555,4.647,25.554,4.639z"/>
	<path fill="#F25F23" d="M24.739,8.993c0.004,0.005,0.008,0.009,0.013,0.014C24.75,8.998,24.746,8.994,24.739,8.993z"/>
	<path fill="#F8B822" d="M25.608,4.508c-0.007,0.005-0.01,0.012-0.009,0.02C25.606,4.524,25.608,4.517,25.608,4.508z"/>
	<path fill="#F25F23" d="M24.752,9.007c0.004,0.005,0.008,0.009,0.012,0.014C24.763,9.013,24.759,9.008,24.752,9.007z"/>
	<path fill="#F58722" d="M24.505,4.173c-0.004-0.005-0.008-0.01-0.012-0.015C24.493,4.167,24.498,4.171,24.505,4.173z"/>
	<path fill="#F58722" d="M24.492,4.158c-0.004-0.005-0.008-0.01-0.012-0.014C24.481,4.152,24.485,4.157,24.492,4.158z"/>
	<path fill="#F58722" d="M24.479,4.143c-0.004-0.005-0.008-0.009-0.012-0.014C24.468,4.137,24.472,4.142,24.479,4.143z"/>
	<path fill="#F58722" d="M24.466,4.128c-0.004-0.005-0.008-0.009-0.012-0.014C24.455,4.123,24.459,4.127,24.466,4.128z"/>
	<path fill="#F58722" d="M24.453,4.114c-0.004-0.005-0.008-0.009-0.012-0.014C24.442,4.108,24.446,4.113,24.453,4.114z"/>
	<path fill="#F58722" d="M24.44,4.099c-0.004-0.005-0.008-0.009-0.012-0.014C24.429,4.093,24.433,4.098,24.44,4.099z"/>
	<path fill="#F58722" d="M24.427,4.084c-0.004-0.005-0.008-0.009-0.011-0.014C24.417,4.078,24.42,4.083,24.427,4.084z"/>
	<path fill="#F58722" d="M24.415,4.069c-0.004-0.004-0.008-0.009-0.011-0.013C24.404,4.063,24.408,4.068,24.415,4.069z"/>
	<path fill="#F25F23" d="M24.7,8.948c0.004,0.005,0.008,0.01,0.013,0.015C24.711,8.955,24.707,8.95,24.7,8.948z"/>
	<path fill="#F04423" d="M22.711,2.11c-0.001-0.01-0.006-0.016-0.014-0.018C22.699,2.101,22.704,2.107,22.711,2.11z"/>
	<path fill="#F8B822" d="M25.585,2.015c0.002,0.009,0.007,0.014,0.015,0.016C25.597,2.023,25.593,2.017,25.585,2.015z"/>
	<path fill="#F8B822" d="M25.572,2c0.001,0.009,0.006,0.015,0.014,0.017C25.585,2.008,25.58,2.002,25.572,2z"/>
	<path fill="#F8B822" d="M25.56,1.985C25.561,1.994,25.565,2,25.573,2.001C25.572,1.992,25.568,1.987,25.56,1.985z"/>
	<path fill="#F8B822" d="M25.547,1.97c0.001,0.01,0.006,0.015,0.014,0.016C25.559,1.977,25.555,1.972,25.547,1.97z"/>
	<path fill="#F8B822" d="M25.533,1.956c0.001,0.009,0.006,0.015,0.015,0.016C25.546,1.963,25.541,1.958,25.533,1.956z"/>
	<path fill="#F7A222" d="M25.066,1.417c0.001,0.009,0.006,0.015,0.015,0.017C25.078,1.425,25.074,1.419,25.066,1.417z"/>
	<path fill="#F7A222" d="M25.053,1.402c0.001,0.01,0.005,0.015,0.014,0.017C25.066,1.41,25.061,1.404,25.053,1.402z"/>
	<path fill="#F58722" d="M24.52,0.791c0.002,0.01,0.008,0.015,0.017,0.017C24.534,0.799,24.529,0.793,24.52,0.791z"/>
	<path fill="#F58722" d="M24.508,0.776c0.001,0.01,0.006,0.015,0.014,0.016C24.52,0.784,24.515,0.778,24.508,0.776z"/>
	<path fill="#F58722" d="M24.478,0.74c0.004,0.004,0.007,0.008,0.011,0.012C24.488,0.745,24.485,0.741,24.478,0.74z"/>
	<path fill="#F58722" d="M24.465,0.725c0.004,0.004,0.007,0.008,0.011,0.012C24.476,0.73,24.472,0.726,24.465,0.725z"/>
	<path fill="#666666" d="M9.388,9.965C9.39,9.922,9.376,9.89,9.362,9.858C9.29,9.692,9.218,9.526,9.146,9.361
		C9.092,9.237,9.036,9.113,8.982,8.989C8.928,8.865,8.875,8.741,8.821,8.617C8.763,8.481,8.705,8.346,8.646,8.211
		C8.587,8.076,8.527,7.942,8.468,7.807C8.38,7.604,8.293,7.401,8.205,7.198c-0.079-0.183-0.16-0.365-0.24-0.548
		C7.948,6.611,7.934,6.57,7.917,6.531c-0.009-0.02-0.008-0.036,0.001-0.055c0.016-0.035,0.03-0.07,0.045-0.105
		c0.072-0.168,0.144-0.336,0.217-0.504c0.039-0.089,0.078-0.179,0.116-0.268C8.301,5.586,8.306,5.572,8.312,5.56
		c0.007-0.016,0.003-0.028-0.007-0.039C8.297,5.512,8.29,5.503,8.282,5.494C8.15,5.344,8.018,5.194,7.886,5.043
		C7.715,4.847,7.545,4.65,7.374,4.454C7.212,4.268,7.051,4.082,6.889,3.896c-0.174-0.2-0.348-0.399-0.521-0.599
		C6.237,3.146,6.106,2.995,5.974,2.844c-0.011-0.013-0.02-0.031-0.039-0.033C5.928,2.824,5.934,2.835,5.939,2.845
		c0.059,0.13,0.118,0.259,0.177,0.388c0.07,0.153,0.14,0.307,0.209,0.46c0.038,0.084,0.074,0.17,0.112,0.254
		c0.053,0.117,0.106,0.233,0.159,0.35c0.06,0.132,0.119,0.264,0.179,0.396c0.042,0.093,0.088,0.184,0.127,0.278
		c0.033,0.079,0.07,0.156,0.105,0.234c0.082,0.184,0.165,0.368,0.248,0.552c0.026,0.058,0.053,0.117,0.079,0.175
		c0.05,0.11,0.1,0.22,0.151,0.33C7.494,6.281,7.502,6.301,7.51,6.321c0.009,0.021,0.009,0.042,0,0.063
		C7.5,6.408,7.489,6.432,7.479,6.456C7.415,6.604,7.35,6.752,7.286,6.9C7.229,7.033,7.172,7.167,7.114,7.3
		C7.099,7.335,7.099,7.336,7.122,7.362c0.088,0.101,0.176,0.201,0.263,0.302c0.174,0.2,0.348,0.399,0.521,0.599
		c0.316,0.363,0.631,0.726,0.947,1.089C9.01,9.533,9.167,9.714,9.324,9.894C9.345,9.918,9.367,9.942,9.388,9.965z"/>
	<path fill="#666666" d="M8.964,0.636c-0.457,0-0.913,0-1.37,0c-0.015,0-0.03-0.001-0.045,0c-0.014,0.002-0.034-0.01-0.04,0.011
		c-0.005,0.018,0.014,0.028,0.024,0.04C7.679,0.853,7.825,1.019,7.97,1.185c0.174,0.199,0.348,0.399,0.521,0.599
		c0.152,0.175,0.305,0.351,0.457,0.526c0.146,0.169,0.293,0.337,0.439,0.506C9.398,2.828,9.409,2.841,9.42,2.852
		c0.033,0.036,0.036,0.035,0.057-0.014C9.565,2.636,9.652,2.433,9.74,2.23c0.092-0.211,0.184-0.422,0.275-0.634
		c0.063-0.146,0.125-0.293,0.188-0.439c0.054-0.126,0.11-0.253,0.165-0.379c0.01-0.024,0.021-0.048,0.031-0.072
		c0.033-0.079,0.022-0.07-0.038-0.07C9.895,0.636,9.43,0.636,8.964,0.636z"/>
	<path fill="#666666" d="M4.941,12.343c0.023,0,0.045,0,0.066,0c0.742,0,1.484,0,2.226,0c0.017,0,0.035,0,0.052-0.001
		c0.006,0,0.015,0.001,0.015-0.009c0-0.006-0.003-0.014-0.007-0.019c-0.079-0.093-0.158-0.186-0.238-0.278
		c-0.098-0.113-0.197-0.225-0.295-0.337c-0.172-0.198-0.344-0.396-0.516-0.594c-0.149-0.172-0.299-0.344-0.448-0.516
		c-0.018-0.021-0.035-0.042-0.054-0.063c-0.008-0.009-0.022-0.006-0.027,0.006c-0.012,0.028-0.023,0.057-0.035,0.086
		c-0.049,0.114-0.098,0.227-0.147,0.34c-0.044,0.102-0.09,0.204-0.134,0.307c-0.061,0.139-0.121,0.279-0.182,0.418
		c-0.087,0.2-0.173,0.401-0.26,0.602C4.95,12.3,4.94,12.314,4.941,12.343z"/>
	<path fill="#F25C23" d="M6.892,11.174c0.031,0.047,0.07,0.085,0.106,0.127c0.152,0.176,0.304,0.351,0.456,0.526
		c0.015,0.017,0.032,0.032,0.048,0.048c0.027-0.023,0.03-0.057,0.033-0.091c0.003-0.036,0.002-0.073,0.002-0.109
		c0-0.994,0-1.988,0-2.982c0-0.053-0.005-0.107,0.02-0.156C7.516,8.487,7.475,8.437,7.433,8.389
		c-0.15-0.173-0.301-0.346-0.452-0.518C6.973,7.86,6.963,7.851,6.953,7.842C6.912,7.82,6.898,7.851,6.889,7.886
		C6.881,7.919,6.884,7.953,6.884,7.987c0,1.034,0,2.067,0,3.101C6.884,11.117,6.883,11.146,6.892,11.174z"/>
	<path fill="#F37423" d="M7.557,8.537c-0.04,0.013-0.04,0.013-0.041,0.05c-0.001,0.019,0,0.039,0,0.058c0,1.005,0,2.009,0,3.014
		c0,0.072,0.004,0.145-0.013,0.216c0,0,0,0,0,0c0.005,0.004,0.009,0.009,0.013,0.015l0,0c0.006,0.004,0.01,0.009,0.013,0.015
		l-0.001-0.001c0.006,0.004,0.01,0.009,0.013,0.015L7.54,11.919c0.006,0.003,0.01,0.009,0.014,0.015
		c0.026,0.042,0.061,0.075,0.092,0.112c0.076,0.089,0.154,0.177,0.23,0.267c0.018,0.021,0.036,0.033,0.062,0.031
		c0.037-0.003,0.073-0.003,0.11-0.004c0.03-0.04,0.021-0.088,0.021-0.133c0-0.966,0-1.933,0-2.899c0-0.058-0.001-0.116,0.007-0.174
		c-0.014-0.031-0.04-0.051-0.061-0.075C7.887,8.911,7.759,8.763,7.63,8.616C7.62,8.604,7.608,8.594,7.596,8.583
		C7.589,8.58,7.584,8.575,7.581,8.567l0.001,0.001C7.576,8.565,7.571,8.56,7.569,8.552L7.57,8.553
		C7.563,8.551,7.558,8.546,7.557,8.537L7.557,8.537z"/>
	<path fill="#F69622" d="M7.777,1.637c-0.024-0.04-0.058-0.072-0.087-0.106C7.53,1.347,7.37,1.163,7.21,0.98
		C7.189,0.956,7.166,0.933,7.144,0.91c-0.059-0.04-0.082-0.029-0.09,0.044C7.051,0.988,7.053,1.022,7.053,1.056
		C7.052,1.821,7.055,2.586,7.051,3.352c0,0.022-0.001,0.044,0.01,0.063c0.006,0.01,0.012,0.02,0.02,0.028
		c0.211,0.243,0.422,0.486,0.633,0.728c0.006,0.007,0.013,0.012,0.02,0.018C7.762,4.168,7.765,4.134,7.768,4.1
		C7.772,4.064,7.77,4.028,7.77,3.991c0-0.732,0-1.463,0-2.195C7.77,1.744,7.767,1.69,7.777,1.637z"/>
	<path fill="#F04123" d="M6.892,11.174c0.008-0.017,0.014-0.035,0.013-0.055c-0.001-0.019,0-0.039,0-0.058c0-1.034,0-2.068,0-3.102
		c0-0.022-0.001-0.044,0-0.065C6.907,7.855,6.91,7.851,6.953,7.842c-0.011-0.021-0.025-0.038-0.044-0.05
		C6.892,7.804,6.886,7.823,6.879,7.84C6.852,7.901,6.826,7.961,6.799,8.023C6.715,8.219,6.631,8.415,6.547,8.611
		C6.425,8.892,6.303,9.173,6.182,9.454C6.11,9.619,6.039,9.785,5.967,9.95c-0.013,0.03-0.027,0.061-0.041,0.091
		c-0.006,0.012-0.003,0.023,0.005,0.033c0.006,0.007,0.012,0.014,0.018,0.021c0.246,0.283,0.492,0.565,0.738,0.848
		c0.057,0.066,0.114,0.132,0.171,0.198C6.869,11.153,6.877,11.168,6.892,11.174z"/>
	<path fill="#F37523" d="M7.061,3.415C7.072,3.378,7.074,3.34,7.074,3.301c0-0.768,0-1.536,0-2.304c0-0.024,0-0.048,0.001-0.073
		C7.076,0.907,7.086,0.897,7.1,0.898C7.115,0.901,7.13,0.906,7.144,0.91c-0.017-0.035-0.046-0.058-0.07-0.085
		C7.019,0.76,6.962,0.698,6.905,0.634C6.739,0.619,6.573,0.632,6.407,0.628C6.382,0.627,6.373,0.646,6.369,0.669
		C6.363,0.7,6.364,0.731,6.364,0.763c0,0.581,0,1.163,0,1.744c0,0.046-0.002,0.092,0.022,0.133C6.45,2.726,6.523,2.802,6.592,2.882
		c0.138,0.161,0.277,0.32,0.416,0.48C7.025,3.381,7.039,3.403,7.061,3.415z"/>
	<path fill="#F58822" d="M8.076,9.134C8.057,9.146,8.047,9.163,8.048,9.187c0.001,0.022,0,0.044,0,0.065c0,1.029,0,2.058,0,3.087
		c0.017,0.001,0.034,0.003,0.051,0.003c0.156,0,0.313,0.001,0.469,0c0.017,0,0.034-0.002,0.051-0.003
		c0.014-0.018,0.014-0.039,0.014-0.062c-0.012-0.786-0.002-1.571-0.005-2.357c0-0.048,0.011-0.096,0.006-0.145
		C8.601,9.725,8.558,9.684,8.519,9.639C8.392,9.492,8.264,9.345,8.136,9.198c-0.01-0.012-0.023-0.022-0.034-0.033
		C8.096,9.162,8.091,9.157,8.088,9.15l0.001,0.001C8.082,9.147,8.077,9.143,8.076,9.134L8.076,9.134z"/>
	<path fill="#F9C722" d="M8.334,4.881C8.388,4.953,8.449,5.018,8.512,5.09C8.534,5.042,8.554,5,8.573,4.957
		c0.085-0.198,0.17-0.397,0.255-0.595C8.923,4.14,9.019,3.918,9.115,3.696c0.043-0.1,0.087-0.2,0.13-0.3
		C9.27,3.338,9.267,3.345,9.23,3.303C9.13,3.186,9.028,3.071,8.927,2.954C8.764,2.767,8.602,2.58,8.438,2.393
		C8.417,2.369,8.395,2.347,8.373,2.324C8.369,2.318,8.364,2.314,8.36,2.308l0,0C8.355,2.304,8.351,2.3,8.347,2.294l0,0.001
		C8.342,2.29,8.337,2.285,8.334,2.279l0,0C8.3,2.282,8.296,2.313,8.29,2.341C8.285,2.37,8.287,2.399,8.287,2.428
		c0,0.759,0,1.518-0.001,2.277C8.286,4.771,8.296,4.83,8.334,4.881z"/>
	<path fill="#F7AE22" d="M8.334,4.881C8.31,4.828,8.307,4.771,8.307,4.713c0.001-0.77,0.001-1.541,0.001-2.311
		c0-0.017,0-0.034,0-0.051c0-0.028,0.007-0.052,0.026-0.071c-0.03-0.048-0.07-0.086-0.105-0.127C8.102,2.006,7.976,1.86,7.849,1.714
		c-0.006-0.007-0.014-0.012-0.02-0.017c-0.005-0.004-0.01-0.009-0.014-0.015l0.001,0.001C7.81,1.679,7.805,1.674,7.802,1.667
		l0.001,0.001c-0.006-0.004-0.01-0.009-0.013-0.016L7.79,1.653C7.784,1.649,7.779,1.645,7.776,1.637c0,0,0.001,0,0.001,0
		C7.764,1.641,7.751,1.647,7.751,1.664C7.749,1.689,7.749,1.713,7.749,1.737c0,0.758,0,1.516,0,2.273c0,0.061,0,0.121-0.016,0.179
		c0,0,0,0,0,0c0.008,0.002,0.012,0.007,0.014,0.016L7.746,4.204C7.754,4.206,7.759,4.211,7.76,4.22L7.759,4.219
		C7.767,4.22,7.772,4.225,7.773,4.234L7.772,4.233C7.78,4.235,7.785,4.241,7.786,4.25C7.813,4.295,7.85,4.328,7.882,4.366
		c0.144,0.168,0.29,0.335,0.436,0.503C8.323,4.874,8.329,4.877,8.334,4.881z"/>
	<path fill="#F7A222" d="M8.634,9.776c-0.02,0.033-0.025,0.071-0.027,0.109c-0.001,0.017,0,0.034,0,0.051c0,0.746,0,1.492,0,2.239
		c0,0.043-0.003,0.087,0.011,0.129c0.004,0.011,0.001,0.024,0.001,0.036c0.013,0.001,0.026,0.003,0.038,0.003
		c0.178,0,0.356,0.001,0.534,0c0.013,0,0.026-0.002,0.038-0.003c0.028-0.037,0.021-0.083,0.021-0.126c0.001-0.517,0-1.034,0-1.55
		c0-0.053-0.002-0.107,0.017-0.158c-0.027-0.044-0.063-0.079-0.096-0.117c-0.153-0.177-0.307-0.354-0.461-0.53
		C8.699,9.846,8.685,9.834,8.673,9.821c-0.005-0.005-0.01-0.009-0.014-0.016L8.66,9.806c-0.006-0.004-0.01-0.009-0.014-0.016
		l0.001,0.001C8.641,9.788,8.636,9.784,8.634,9.776L8.634,9.776z"/>
	<path fill="#F25C23" d="M6.386,2.64c0-0.029-0.001-0.058-0.001-0.087c0-0.606,0-1.212,0-1.818c0-0.022,0-0.044,0.001-0.065
		c0.001-0.026,0.008-0.033,0.033-0.034C6.436,0.634,6.453,0.635,6.47,0.635c0.145,0,0.29,0,0.435-0.001
		C6.896,0.615,6.879,0.62,6.865,0.62c-0.097,0-0.195-0.001-0.292,0c-0.067,0-0.134,0.002-0.201,0.003
		c-0.153,0.01-0.306,0.002-0.459,0.004c-0.071,0.001-0.079,0.007-0.08,0.086C5.831,1.12,5.832,1.526,5.832,1.933
		c0,0.032,0.01,0.061,0.019,0.091C5.904,2.087,5.956,2.151,6.01,2.213c0.118,0.137,0.237,0.274,0.356,0.41
		C6.372,2.63,6.379,2.635,6.386,2.64z"/>
	<path fill="#F8BA22" d="M9.268,10.506c-0.023,0.002-0.036,0.015-0.038,0.041C9.23,10.568,9.23,10.59,9.23,10.612
		c0,0.576,0,1.152,0,1.728c0.013,0.001,0.026,0.003,0.038,0.003c0.165,0,0.33,0.001,0.495,0c0.013,0,0.025-0.002,0.038-0.003
		c0.012-0.016,0.012-0.035,0.012-0.055c-0.009-0.313-0.001-0.626-0.005-0.939c-0.001-0.063,0.007-0.12,0.043-0.17
		c-0.029-0.045-0.066-0.082-0.101-0.121c-0.141-0.163-0.282-0.325-0.424-0.487c-0.006-0.007-0.013-0.012-0.02-0.018
		c-0.004-0.005-0.008-0.01-0.012-0.014l0,0c-0.004-0.005-0.008-0.01-0.013-0.014l0,0C9.277,10.516,9.273,10.511,9.268,10.506
		L9.268,10.506z"/>
	<path fill="#F04723" d="M5.851,2.024C5.851,1.993,5.853,1.961,5.853,1.93c0-0.402,0-0.803,0-1.205c0-0.096-0.005-0.09,0.081-0.09
		c0.127,0,0.255,0,0.382,0c0.019,0,0.039,0.006,0.056-0.011C6.354,0.622,6.337,0.62,6.32,0.62c-0.439,0-0.878,0-1.318,0
		c-0.017,0-0.034,0-0.05,0c-0.009,0.019,0,0.032,0.005,0.044C5.022,0.81,5.087,0.955,5.152,1.1c0.034,0.076,0.069,0.151,0.103,0.227
		c0.01,0.022,0.021,0.042,0.036,0.06c0.175,0.201,0.35,0.403,0.526,0.604C5.828,2.002,5.839,2.013,5.851,2.024z"/>
	<path fill="#FAD121" d="M9.851,11.176c-0.044,0.007-0.063,0.037-0.063,0.085c0,0.017,0,0.034,0,0.051c0,0.266,0,0.532,0,0.798
		c0,0.077-0.004,0.154,0.013,0.23c0.002,0,0.004,0.001,0.006,0.001c0.203,0.001,0.407,0.001,0.61,0.002
		c0.004,0,0.008-0.002,0.016-0.005c-0.017-0.055-0.041-0.106-0.063-0.158c-0.031-0.074-0.066-0.147-0.098-0.221
		c-0.082-0.189-0.164-0.379-0.246-0.569c-0.009-0.022-0.017-0.045-0.038-0.056c-0.008-0.002-0.014-0.007-0.016-0.017l0.001,0.002
		C9.965,11.317,9.96,11.31,9.959,11.3c0-0.005-0.002-0.008-0.006-0.009c-0.001-0.006-0.004-0.009-0.009-0.011l-0.002-0.003
		c-0.002-0.006-0.005-0.01-0.011-0.012l-0.003-0.003c-0.002-0.006-0.005-0.01-0.011-0.012l-0.003-0.003
		c-0.002-0.006-0.005-0.01-0.01-0.012l-0.002-0.003c-0.002-0.006-0.005-0.01-0.011-0.012L9.89,11.22
		c-0.002-0.006-0.006-0.01-0.011-0.013l-0.001-0.002c-0.003-0.006-0.007-0.01-0.012-0.013l-0.001-0.001
		c-0.003-0.006-0.007-0.01-0.012-0.013L9.851,11.176z"/>
	<path fill="#F25C23" d="M7.554,11.934c-0.002-0.008-0.006-0.013-0.014-0.015C7.542,11.927,7.546,11.932,7.554,11.934z"/>
	<path fill="#F25C23" d="M7.541,11.919c-0.002-0.008-0.006-0.013-0.013-0.015C7.529,11.913,7.533,11.918,7.541,11.919z"/>
	<path fill="#F25C23" d="M7.528,11.905c-0.002-0.008-0.006-0.013-0.013-0.015C7.516,11.898,7.52,11.903,7.528,11.905z"/>
	<path fill="#F25C23" d="M7.515,11.89c-0.004-0.005-0.009-0.01-0.013-0.015C7.503,11.883,7.508,11.888,7.515,11.89z"/>
	<path fill="#F8BA22" d="M9.973,11.317c0.002,0.01,0.007,0.015,0.016,0.017C9.986,11.325,9.981,11.319,9.973,11.317z"/>
	<path fill="#F8BA22" d="M9.959,11.3c0.001,0.01,0.006,0.017,0.015,0.019C9.972,11.31,9.967,11.303,9.959,11.3z"/>
	<path fill="#F8BA22" d="M9.944,11.281c0.003,0.004,0.006,0.007,0.009,0.011C9.953,11.285,9.949,11.281,9.944,11.281z"/>
	<path fill="#F8BA22" d="M9.931,11.266c0.004,0.004,0.007,0.008,0.011,0.012C9.941,11.271,9.937,11.267,9.931,11.266z"/>
	<path fill="#F8BA22" d="M9.918,11.252c0.004,0.004,0.007,0.008,0.011,0.012C9.927,11.257,9.924,11.253,9.918,11.252z"/>
	<path fill="#F8BA22" d="M9.905,11.237c0.003,0.004,0.007,0.008,0.01,0.012C9.914,11.242,9.911,11.238,9.905,11.237z"/>
	<path fill="#F8BA22" d="M9.892,11.222c0.004,0.004,0.007,0.008,0.011,0.012C9.902,11.227,9.898,11.223,9.892,11.222z"/>
	<path fill="#F8BA22" d="M9.879,11.207c0.004,0.004,0.007,0.009,0.011,0.013C9.889,11.212,9.885,11.208,9.879,11.207z"/>
	<path fill="#F8BA22" d="M9.866,11.192c0.004,0.004,0.008,0.009,0.012,0.013C9.877,11.197,9.873,11.193,9.866,11.192z"/>
	<path fill="#F8BA22" d="M9.853,11.178c0.004,0.004,0.008,0.009,0.012,0.013C9.864,11.183,9.86,11.178,9.853,11.178z"/>
	<path fill="#F7A222" d="M9.295,10.536c0.004,0.005,0.008,0.009,0.012,0.014C9.306,10.542,9.302,10.537,9.295,10.536z"/>
	<path fill="#F7A222" d="M9.282,10.521c0.004,0.005,0.008,0.009,0.013,0.014C9.293,10.527,9.289,10.522,9.282,10.521z"/>
	<path fill="#F7A222" d="M9.269,10.506c0.004,0.005,0.008,0.009,0.013,0.014C9.28,10.512,9.276,10.508,9.269,10.506z"/>
	<path fill="#F58822" d="M8.659,9.806c0.002,0.008,0.006,0.013,0.014,0.016C8.671,9.813,8.667,9.807,8.659,9.806z"/>
	<path fill="#F58822" d="M8.646,9.791C8.648,9.799,8.652,9.804,8.66,9.806C8.658,9.798,8.654,9.792,8.646,9.791z"/>
	<path fill="#F58822" d="M8.633,9.776C8.635,9.784,8.64,9.789,8.647,9.792C8.646,9.783,8.641,9.778,8.633,9.776z"/>
	<path fill="#F25C23" d="M7.569,8.552C7.57,8.561,7.575,8.566,7.583,8.568C7.581,8.559,7.577,8.554,7.569,8.552z"/>
	<path fill="#F25C23" d="M7.581,8.567c0.002,0.009,0.007,0.014,0.015,0.016C7.594,8.575,7.589,8.569,7.581,8.567z"/>
	<path fill="#F69622" d="M7.786,4.25C7.785,4.24,7.781,4.235,7.772,4.233C7.774,4.242,7.779,4.247,7.786,4.25z"/>
	<path fill="#F69622" d="M7.773,4.234C7.772,4.225,7.767,4.22,7.759,4.219C7.761,4.227,7.765,4.232,7.773,4.234z"/>
	<path fill="#F69622" d="M7.76,4.22C7.759,4.21,7.754,4.205,7.746,4.204C7.748,4.213,7.752,4.218,7.76,4.22z"/>
	<path fill="#F69622" d="M7.747,4.205C7.746,4.196,7.741,4.191,7.733,4.189C7.735,4.198,7.739,4.203,7.747,4.205z"/>
	<path fill="#F37423" d="M8.075,9.134c0.001,0.009,0.006,0.014,0.014,0.016C8.088,9.142,8.083,9.136,8.075,9.134z"/>
	<path fill="#F37423" d="M8.088,9.15C8.09,9.158,8.095,9.163,8.102,9.166C8.1,9.157,8.096,9.151,8.088,9.15z"/>
	<path fill="#F7AE22" d="M8.36,2.308c0.004,0.005,0.009,0.01,0.013,0.015C8.372,2.315,8.367,2.31,8.36,2.308z"/>
	<path fill="#F7AE22" d="M8.347,2.294c0.004,0.005,0.009,0.01,0.013,0.015C8.359,2.3,8.355,2.295,8.347,2.294z"/>
	<path fill="#F7AE22" d="M8.334,2.279c0.004,0.005,0.009,0.01,0.013,0.015C8.346,2.286,8.342,2.281,8.334,2.279z"/>
	<path fill="#F69622" d="M7.815,1.682C7.817,1.69,7.821,1.695,7.828,1.697C7.827,1.689,7.822,1.684,7.815,1.682z"/>
	<path fill="#F69622" d="M7.802,1.667C7.804,1.675,7.808,1.68,7.815,1.683C7.814,1.674,7.809,1.669,7.802,1.667z"/>
	<path fill="#F69622" d="M7.789,1.652C7.791,1.66,7.795,1.666,7.802,1.668C7.801,1.659,7.797,1.654,7.789,1.652z"/>
	<path fill="#F69622" d="M7.776,1.637C7.778,1.646,7.782,1.651,7.79,1.653C7.788,1.644,7.784,1.639,7.776,1.637z"/>
	<path fill="#F25C23" d="M7.556,8.537C7.557,8.546,7.562,8.551,7.57,8.553C7.569,8.544,7.564,8.539,7.556,8.537z"/>
	<path fill="#F59322" d="M2.967,11.291c0.004-0.002,0.005-0.006,0.004-0.01c0.002-0.007,0.007-0.013,0.01-0.019l0.001-0.002
		c0.009-0.006,0.006-0.02,0.014-0.026c0.026-0.053,0.053-0.105,0.079-0.158c0.086-0.182,0.172-0.364,0.259-0.545
		c0.105-0.22,0.21-0.439,0.315-0.659c0.005-0.01,0.007-0.022,0.011-0.034C3.643,9.79,3.64,9.739,3.64,9.688c0-2.202,0-4.405,0-6.607
		c0-0.05-0.006-0.103,0.028-0.145C3.635,2.864,3.604,2.793,3.57,2.723C3.511,2.596,3.45,2.471,3.39,2.344
		C3.302,2.161,3.215,1.977,3.127,1.793C3.086,1.708,3.045,1.622,3.005,1.537C3.002,1.531,2.999,1.526,2.996,1.52
		c0.001-0.005-0.001-0.009-0.004-0.013c-0.002-0.005-0.005-0.01-0.009-0.014l0,0c-0.005-0.006-0.01-0.012-0.011-0.02
		c0.001-0.004,0-0.007-0.003-0.008C2.932,1.467,2.929,1.498,2.925,1.526C2.92,1.555,2.922,1.584,2.922,1.614
		c0,3.176,0,6.352,0,9.528c0,0.029-0.001,0.058,0.002,0.087C2.928,11.258,2.932,11.288,2.967,11.291z"/>
	<path fill="#F47B23" d="M2.967,11.291c-0.014-0.009-0.023-0.022-0.023-0.041c0-0.019,0-0.039,0-0.058c0-3.21,0-6.419,0-9.629
		c0-0.019,0-0.039,0-0.058c0.001-0.019,0.01-0.032,0.024-0.04c-0.01-0.04-0.03-0.075-0.047-0.111
		C2.912,1.338,2.902,1.339,2.893,1.357C2.844,1.457,2.795,1.557,2.746,1.656C2.653,1.843,2.56,2.028,2.47,2.216
		C2.432,2.294,2.387,2.368,2.358,2.453c-0.017,0.048-0.021,0.098-0.021,0.15c0,2.479,0,4.959,0,7.438c0,0.052,0.006,0.101,0.02,0.15
		c0.009,0.038,0.028,0.071,0.044,0.105c0.068,0.143,0.136,0.286,0.205,0.429c0.099,0.207,0.198,0.414,0.297,0.621
		c0.004,0.008,0.009,0.017,0.014,0.024c0.005,0.007,0.012,0.006,0.016,0C2.948,11.345,2.96,11.32,2.967,11.291z"/>
	<path fill="#F7B122" d="M3.668,2.935C3.625,2.944,3.621,2.948,3.619,2.986c-0.001,0.017,0,0.034,0,0.051c0,2.228,0,4.456,0,6.685
		c0,0.019-0.001,0.039,0.001,0.058c0.003,0.028,0.011,0.053,0.04,0.058c0,0,0,0,0,0c0.003-0.006,0.006-0.011,0.009-0.016
		C3.671,9.819,3.673,9.815,3.672,9.81c0.003-0.006,0.006-0.012,0.009-0.017C3.684,9.79,3.686,9.786,3.685,9.781
		C3.686,9.774,3.691,9.77,3.694,9.764c0.004-0.003,0.005-0.006,0.004-0.011C3.7,9.745,3.704,9.74,3.708,9.734
		c0.041-0.063,0.067-0.135,0.1-0.203c0.093-0.189,0.182-0.38,0.273-0.57c0.059-0.124,0.118-0.248,0.176-0.373
		C4.295,8.509,4.332,8.43,4.369,8.351c-0.02-0.04-0.015-0.085-0.015-0.128c-0.001-1.225-0.001-2.45,0-3.675
		c0-0.043-0.002-0.088,0.018-0.128c0-0.019-0.012-0.031-0.019-0.045c-0.057-0.12-0.113-0.24-0.17-0.36
		C4.094,3.829,4.006,3.643,3.917,3.457c-0.06-0.126-0.119-0.253-0.179-0.379c-0.009-0.019-0.014-0.041-0.03-0.055
		C3.705,3.017,3.7,3.011,3.698,3.004c0.001-0.005,0-0.008-0.004-0.011C3.691,2.987,3.687,2.982,3.685,2.975
		c0.001-0.005,0-0.009-0.004-0.011C3.677,2.958,3.674,2.952,3.672,2.946C3.673,2.942,3.671,2.938,3.668,2.935z"/>
	<path fill="#F26523" d="M2.357,10.19c0.001-0.027,0.002-0.053,0.002-0.08c0-2.531,0-5.061,0-7.592c0-0.022,0-0.044-0.001-0.065
		C2.336,2.48,2.322,2.513,2.307,2.544c-0.083,0.17-0.166,0.34-0.249,0.51C1.975,3.221,1.892,3.388,1.809,3.556
		C1.8,3.574,1.793,3.595,1.785,3.615c-0.007,0.06-0.006,0.121-0.006,0.181c0,1.702,0.001,3.404-0.001,5.106
		c0,0.031,0,0.063,0.007,0.094c0.012,0.028,0.022,0.058,0.035,0.085C1.888,9.224,1.957,9.367,2.025,9.51
		c0.082,0.17,0.164,0.34,0.246,0.511c0.014,0.03,0.028,0.06,0.041,0.09C2.325,10.138,2.338,10.167,2.357,10.19z"/>
	<path fill="#F14E23" d="M1.786,8.996c0.011-0.04,0.015-0.08,0.015-0.121c0-1.718,0-3.436,0-5.154c0-0.036,0.004-0.073-0.015-0.106
		C1.77,3.641,1.754,3.666,1.74,3.694C1.622,3.933,1.503,4.171,1.387,4.411C1.355,4.477,1.318,4.539,1.294,4.609
		C1.286,4.66,1.285,4.71,1.285,4.761c0,1.036,0.001,2.072,0,3.108c0,0.032,0.002,0.063,0.006,0.094
		c0.025,0.075,0.065,0.141,0.096,0.213c0.031,0.069,0.067,0.135,0.099,0.203C1.573,8.56,1.658,8.742,1.744,8.923
		C1.757,8.948,1.772,8.972,1.786,8.996z"/>
	<path fill="#F9CB22" d="M4.372,4.42C4.35,4.422,4.335,4.434,4.334,4.46C4.333,4.48,4.333,4.499,4.333,4.519
		c0,1.246,0,2.492,0,3.738c0,0.017,0,0.034,0,0.051c0.001,0.026,0.013,0.04,0.036,0.043c0.004-0.003,0.005-0.007,0.004-0.011
		c0.003-0.006,0.006-0.011,0.009-0.017C4.386,8.32,4.387,8.316,4.386,8.311c0.003-0.006,0.006-0.012,0.009-0.017
		C4.399,8.29,4.4,8.287,4.399,8.282C4.402,8.276,4.405,8.27,4.408,8.264c0.004-0.003,0.005-0.006,0.004-0.011
		c0.001-0.007,0.006-0.012,0.009-0.018c0.004-0.002,0.005-0.005,0.004-0.01c0.001-0.009,0.006-0.014,0.011-0.019l0,0
		C4.444,8.198,4.442,8.184,4.45,8.177l0,0c0.007-0.008,0.004-0.022,0.013-0.029l0,0C4.47,8.139,4.468,8.126,4.477,8.119l0,0
		c0.003-0.005,0.006-0.01,0.008-0.015C4.487,8.1,4.488,8.095,4.49,8.091c0.003-0.005,0.006-0.01,0.009-0.016
		c0.004-0.002,0.006-0.006,0.005-0.011c0.001-0.008,0.005-0.013,0.01-0.018c0.004-0.002,0.005-0.005,0.004-0.009
		c0-0.009,0.005-0.015,0.01-0.02c0.021-0.042,0.044-0.083,0.064-0.126c0.084-0.178,0.168-0.356,0.252-0.533
		C4.95,7.133,5.058,6.909,5.166,6.685C5.21,6.591,5.254,6.496,5.299,6.403c0.007-0.015,0.005-0.026-0.002-0.04
		c-0.074-0.154-0.147-0.308-0.22-0.462C5.023,5.785,4.968,5.669,4.914,5.554C4.822,5.361,4.73,5.169,4.638,4.977
		C4.601,4.898,4.563,4.819,4.525,4.74C4.522,4.734,4.519,4.729,4.516,4.723c0.001-0.005,0-0.009-0.004-0.012
		c-0.003-0.005-0.006-0.01-0.01-0.014l0,0C4.496,4.691,4.491,4.685,4.491,4.675c0.001-0.004,0-0.006-0.003-0.008
		c-0.005-0.006-0.01-0.012-0.01-0.021c0.001-0.004,0-0.007-0.003-0.008c-0.005-0.006-0.01-0.012-0.01-0.021
		c0.001-0.004,0-0.007-0.003-0.008c-0.005-0.006-0.009-0.012-0.01-0.02c0.001-0.004,0-0.007-0.003-0.009
		c-0.004-0.006-0.009-0.012-0.01-0.02c0.001-0.004,0-0.007-0.004-0.009C4.431,4.546,4.428,4.54,4.425,4.535l0.001,0.001
		c-0.01-0.007-0.007-0.021-0.014-0.029l0,0.001C4.403,4.5,4.405,4.486,4.398,4.478l0,0C4.39,4.471,4.392,4.457,4.385,4.449l0,0
		C4.377,4.442,4.379,4.428,4.372,4.42L4.372,4.42z"/>
	<path fill="#EF3E24" d="M1.291,7.963c0.01-0.022,0.017-0.044,0.015-0.069c-0.001-0.012,0-0.024,0-0.036c0-1.05,0-2.099,0-3.149
		c0-0.034,0.004-0.068-0.013-0.099C1.275,4.644,1.254,4.678,1.237,4.714c-0.061,0.123-0.12,0.247-0.181,0.369
		C0.973,5.251,0.89,5.418,0.807,5.585C0.752,5.697,0.697,5.81,0.642,5.923c-0.049,0.1-0.097,0.2-0.148,0.299
		c-0.016,0.031-0.015,0.056,0,0.087c0.06,0.123,0.119,0.247,0.178,0.371c0.031,0.064,0.062,0.128,0.092,0.192
		C0.873,7.1,0.982,7.329,1.091,7.557c0.06,0.126,0.121,0.251,0.182,0.377C1.278,7.944,1.285,7.954,1.291,7.963z"/>
	<path fill="#F7B122" d="M4.45,8.177C4.439,8.183,4.437,8.193,4.437,8.206C4.447,8.199,4.451,8.189,4.45,8.177z"/>
	<path fill="#F7B122" d="M4.464,8.148C4.452,8.154,4.45,8.164,4.45,8.177C4.46,8.17,4.464,8.16,4.464,8.148z"/>
	<path fill="#F7B122" d="M4.477,8.119C4.465,8.124,4.463,8.135,4.464,8.148C4.473,8.141,4.477,8.131,4.477,8.119z"/>
	<path fill="#F47B23" d="M2.995,11.234c-0.01,0.005-0.013,0.015-0.014,0.026C2.991,11.255,2.996,11.246,2.995,11.234z"/>
	<path fill="#F7B122" d="M4.411,4.507C4.411,4.52,4.414,4.531,4.425,4.536C4.425,4.524,4.421,4.513,4.411,4.507z"/>
	<path fill="#F7B122" d="M4.398,4.478C4.398,4.491,4.4,4.501,4.412,4.507C4.412,4.495,4.408,4.485,4.398,4.478z"/>
	<path fill="#F7B122" d="M4.385,4.449C4.385,4.462,4.387,4.472,4.398,4.478C4.399,4.466,4.395,4.456,4.385,4.449z"/>
	<path fill="#F7B122" d="M4.372,4.42c0,0.012,0.002,0.023,0.013,0.029C4.386,4.437,4.382,4.427,4.372,4.42z"/>
	<path fill="#F47B23" d="M2.98,11.262c-0.003,0.006-0.007,0.013-0.01,0.019C2.977,11.277,2.98,11.271,2.98,11.262z"/>
	<path fill="#F59322" d="M3.668,9.822C3.662,9.825,3.659,9.831,3.659,9.838C3.666,9.835,3.668,9.83,3.668,9.822z"/>
	<path fill="#F59322" d="M3.681,9.793C3.675,9.797,3.672,9.802,3.672,9.81C3.678,9.807,3.681,9.801,3.681,9.793z"/>
	<path fill="#F59322" d="M3.694,9.764c-0.006,0.004-0.009,0.01-0.009,0.018C3.692,9.778,3.695,9.772,3.694,9.764z"/>
	<path fill="#F7B122" d="M4.437,8.206C4.43,8.21,4.426,8.216,4.426,8.225C4.434,8.222,4.438,8.215,4.437,8.206z"/>
	<path fill="#F7B122" d="M4.485,8.104C4.482,8.109,4.48,8.114,4.477,8.119C4.483,8.117,4.486,8.112,4.485,8.104z"/>
	<path fill="#F7B122" d="M4.498,8.075C4.496,8.08,4.493,8.086,4.49,8.091C4.496,8.088,4.499,8.083,4.498,8.075z"/>
	<path fill="#F7B122" d="M4.516,4.723c0,0.008,0.003,0.014,0.009,0.017C4.526,4.732,4.523,4.726,4.516,4.723z"/>
	<path fill="#F7B122" d="M4.514,8.046c-0.006,0.004-0.01,0.01-0.01,0.018C4.511,8.061,4.514,8.055,4.514,8.046z"/>
	<path fill="#F7B122" d="M4.502,4.696c0.003,0.005,0.006,0.01,0.01,0.014C4.512,4.703,4.509,4.698,4.502,4.696z"/>
	<path fill="#F7B122" d="M4.491,4.675c0,0.01,0.004,0.017,0.011,0.021C4.502,4.687,4.498,4.68,4.491,4.675z"/>
	<path fill="#F7B122" d="M4.478,4.646c0,0.009,0.003,0.016,0.01,0.021C4.488,4.658,4.485,4.651,4.478,4.646z"/>
	<path fill="#F7B122" d="M4.465,4.618c0,0.009,0.003,0.016,0.01,0.021C4.475,4.629,4.472,4.622,4.465,4.618z"/>
	<path fill="#F7B122" d="M4.527,8.017c-0.007,0.005-0.01,0.011-0.01,0.02C4.525,8.033,4.528,8.026,4.527,8.017z"/>
	<path fill="#F7B122" d="M4.452,4.589c0,0.009,0.003,0.016,0.01,0.02C4.462,4.6,4.459,4.593,4.452,4.589z"/>
	<path fill="#F7B122" d="M4.422,8.235c-0.006,0.004-0.009,0.01-0.009,0.018C4.419,8.249,4.422,8.243,4.422,8.235z"/>
	<path fill="#F7B122" d="M4.408,8.264c-0.006,0.004-0.009,0.01-0.009,0.018C4.406,8.278,4.409,8.272,4.408,8.264z"/>
	<path fill="#F7B122" d="M4.439,4.56c0,0.009,0.003,0.015,0.01,0.02C4.449,4.571,4.446,4.564,4.439,4.56z"/>
	<path fill="#F7B122" d="M4.395,8.293c-0.006,0.004-0.009,0.01-0.009,0.017C4.393,8.307,4.396,8.301,4.395,8.293z"/>
	<path fill="#F7B122" d="M4.425,4.535c0.003,0.005,0.007,0.011,0.01,0.016C4.436,4.543,4.432,4.537,4.425,4.535z"/>
	<path fill="#F7B122" d="M4.382,8.322C4.376,8.326,4.373,8.332,4.373,8.339C4.38,8.336,4.383,8.331,4.382,8.322z"/>
	<path fill="#F59322" d="M3.698,3.004c0,0.008,0.004,0.015,0.01,0.019C3.708,3.014,3.705,3.008,3.698,3.004z"/>
	<path fill="#F59322" d="M3.685,2.975c0,0.008,0.003,0.014,0.009,0.018C3.694,2.985,3.691,2.979,3.685,2.975z"/>
	<path fill="#F59322" d="M3.672,2.946c0,0.008,0.003,0.014,0.009,0.017C3.681,2.956,3.678,2.95,3.672,2.946z"/>
	<path fill="#F47B23" d="M2.996,1.52c0.003,0.005,0.006,0.011,0.009,0.016C3.005,1.529,3.002,1.524,2.996,1.52z"/>
	<path fill="#F47B23" d="M2.982,1.494c0.003,0.005,0.006,0.009,0.009,0.014C2.992,1.5,2.988,1.496,2.982,1.494z"/>
	<path fill="#F47B23" d="M2.971,1.473c0,0.009,0.004,0.016,0.011,0.02C2.981,1.485,2.978,1.478,2.971,1.473z"/>
	<path fill="#F59322" d="M3.708,9.734c-0.007,0.004-0.01,0.01-0.01,0.018C3.705,9.749,3.708,9.743,3.708,9.734z"/>
</g>
</svg>
