<?xml version="1.0" encoding="utf-8"?>
<!-- Generator: Adobe Illustrator 24.3.0, SVG Export Plug-In . SVG Version: 6.00 Build 0)  -->
<svg version="1.1" id="Слой_1" xmlns="http://www.w3.org/2000/svg" xmlns:xlink="http://www.w3.org/1999/xlink" x="0px" y="0px"
	 width="32px" height="13px" viewBox="0 0 32 13" enable-background="new 0 0 32 13" xml:space="preserve">
<g>
	<path fill="#6A6A6A" d="M19.714,12.972c0,0.009,0,0.019,0,0.028c-2.475,0-4.95,0-7.425,0c0.001-0.005,0.002-0.011,0.003-0.016
		c0.033-0.027,0.072-0.021,0.11-0.021c0.245-0.001,0.491,0,0.736,0c2.169,0,4.338,0.001,6.506,0
		C19.668,12.962,19.692,12.959,19.714,12.972z"/>
	<path d="M19.714,12.972c-0.012,0.007-0.025,0.014-0.04,0.014c-0.021,0-0.043,0-0.064,0c-2.408,0-4.817,0-7.225,0
		c-0.031,0-0.062-0.001-0.093-0.002c-0.1-0.173-0.2-0.346-0.3-0.519c-0.245-0.422-0.49-0.845-0.735-1.267
		c-0.238-0.41-0.476-0.82-0.714-1.229c-0.245-0.422-0.49-0.844-0.735-1.267C9.575,8.3,9.342,7.898,9.109,7.497
		C8.949,7.223,8.79,6.949,8.631,6.676c-0.01-0.016-0.019-0.033-0.028-0.05c-0.008-0.013-0.008-0.027,0-0.04
		C8.61,6.571,8.619,6.557,8.627,6.542c0.131-0.227,0.262-0.454,0.393-0.68c0.242-0.418,0.485-0.836,0.728-1.254
		c0.238-0.41,0.476-0.82,0.714-1.23c0.246-0.424,0.493-0.848,0.739-1.273c0.232-0.4,0.464-0.799,0.696-1.199
		c0.123-0.212,0.247-0.424,0.371-0.636c0.006-0.01,0.012-0.02,0.018-0.031c0.006-0.011,0.016-0.017,0.029-0.017
		c0.019,0,0.038-0.001,0.057-0.001c2.42,0,4.84,0,7.259,0c0.014,0,0.029,0.001,0.043,0c0.025-0.002,0.04,0.01,0.05,0.031
		c0.008,0.017,0.019,0.033,0.028,0.05c0.283,0.488,0.566,0.976,0.849,1.465c0.24,0.414,0.48,0.828,0.721,1.242
		c0.241,0.416,0.483,0.832,0.724,1.248c0.239,0.412,0.478,0.824,0.717,1.236c0.204,0.352,0.409,0.704,0.613,1.056
		c0.038,0.066,0.039,0.045-0.001,0.114c-0.181,0.314-0.362,0.627-0.543,0.94c-0.242,0.418-0.485,0.836-0.728,1.254
		c-0.237,0.408-0.473,0.816-0.71,1.223c-0.245,0.422-0.49,0.844-0.735,1.267c-0.238,0.41-0.476,0.82-0.714,1.229
		C19.869,12.709,19.791,12.841,19.714,12.972z"/>
	<path d="M22.049,12.702c0.026-0.016,0.052-0.031,0.078-0.047c0.206-0.125,0.411-0.25,0.617-0.375
		c0.246-0.15,0.493-0.299,0.739-0.448c0.236-0.143,0.473-0.286,0.709-0.429c0.246-0.149,0.493-0.298,0.739-0.448
		c0.226-0.137,0.452-0.274,0.678-0.411c0.257-0.155,0.513-0.311,0.77-0.466c0.234-0.142,0.468-0.284,0.703-0.426
		c0.12-0.073,0.24-0.146,0.361-0.217c0.034-0.02,0.058-0.046,0.076-0.081c0.101-0.2,0.203-0.399,0.306-0.598
		c0.245-0.476,0.49-0.953,0.736-1.429c0.122-0.237,0.245-0.474,0.367-0.71c0.008-0.015,0.015-0.03,0.023-0.044
		c0.008-0.014,0.007-0.027-0.002-0.04c-0.011-0.016-0.021-0.032-0.031-0.048c-0.096-0.148-0.192-0.296-0.288-0.443
		c-0.246-0.377-0.492-0.754-0.738-1.131c-0.237-0.363-0.474-0.726-0.711-1.089c-0.048-0.074-0.098-0.146-0.146-0.221
		c-0.021-0.033-0.047-0.058-0.08-0.08c-0.249-0.167-0.498-0.335-0.747-0.503c-0.397-0.268-0.794-0.536-1.191-0.804
		c-0.241-0.163-0.482-0.325-0.723-0.487c-0.241-0.162-0.482-0.325-0.723-0.487c-0.245-0.165-0.49-0.331-0.735-0.496
		c-0.134-0.091-0.269-0.181-0.403-0.271c-0.012-0.008-0.023-0.017-0.033-0.026c-0.002-0.002,0-0.012,0.002-0.012
		c0.009-0.001,0.019-0.001,0.029-0.001c0.579,0.009,1.158,0.019,1.738,0.028c0.586,0.01,1.173,0.019,1.759,0.029
		c0.586,0.01,1.173,0.019,1.759,0.029c0.586,0.01,1.173,0.019,1.759,0.029c0.586,0.01,1.173,0.019,1.759,0.029
		c0.119,0.002,0.238,0.005,0.358,0.008c0.038,0.001,0.038,0.001,0.039,0.042c0,0.017,0,0.033,0,0.05c0,3.95,0,7.899,0,11.849
		c0,0.028,0.012,0.062-0.007,0.083c-0.02,0.021-0.054,0.008-0.082,0.009c-0.696,0.008-1.392,0.016-2.088,0.024
		c-0.355,0.004-0.71,0.006-1.066,0.01c-0.455,0.005-0.911,0.01-1.366,0.014c-0.856,0.009-1.712,0.017-2.567,0.026
		c-0.753,0.008-1.507,0.017-2.26,0.025c-0.038,0-0.076,0-0.113,0C22.052,12.71,22.051,12.706,22.049,12.702z"/>
	<path d="M9.762,0.357C9.755,0.382,9.74,0.387,9.729,0.394c-0.454,0.307-0.908,0.614-1.362,0.92C8.138,1.469,7.909,1.623,7.68,1.778
		C7.429,1.947,7.178,2.117,6.927,2.286c-0.235,0.158-0.47,0.317-0.705,0.475c-0.247,0.166-0.494,0.333-0.741,0.5
		C5.391,3.322,5.3,3.384,5.208,3.443C5.169,3.468,5.14,3.5,5.115,3.539c-0.109,0.171-0.22,0.34-0.331,0.51
		C4.531,4.437,4.277,4.826,4.023,5.215C3.784,5.58,3.546,5.945,3.308,6.31C3.277,6.358,3.245,6.405,3.212,6.452
		C3.2,6.47,3.2,6.487,3.21,6.505c0.048,0.09,0.096,0.181,0.143,0.272c0.198,0.385,0.395,0.771,0.593,1.157
		C4.177,8.383,4.408,8.831,4.639,9.28c0.015,0.03,0.033,0.055,0.064,0.074C4.927,9.488,5.151,9.625,5.375,9.76
		c0.249,0.15,0.497,0.301,0.746,0.451c0.23,0.139,0.461,0.278,0.691,0.418c0.253,0.153,0.505,0.306,0.758,0.459
		c0.236,0.143,0.473,0.286,0.709,0.429c0.246,0.149,0.493,0.299,0.739,0.448c0.226,0.137,0.452,0.274,0.678,0.41
		c0.126,0.076,0.253,0.152,0.379,0.229c0.012,0.007,0.023,0.016,0.034,0.024c-0.009,0.022-0.026,0.012-0.038,0.012
		c-0.231-0.002-0.462-0.006-0.694-0.008c-0.369-0.004-0.739-0.007-1.108-0.01c-0.851-0.009-1.702-0.017-2.553-0.026
		c-0.946-0.01-1.893-0.02-2.839-0.03c-0.746-0.008-1.492-0.016-2.238-0.024c-0.091-0.001-0.081,0.013-0.081-0.079
		c0-3.959,0-7.918,0-11.877c0-0.088-0.01-0.077,0.075-0.078c0.536-0.009,1.073-0.017,1.609-0.026
		c0.625-0.01,1.249-0.021,1.873-0.031C4.682,0.442,5.25,0.433,5.817,0.424c0.603-0.01,1.206-0.02,1.809-0.03
		c0.589-0.01,1.177-0.019,1.766-0.029C9.514,0.363,9.635,0.36,9.762,0.357z"/>
	<path d="M11.526,12.738c-0.007,0.009-0.016,0.01-0.025,0.005c-0.016-0.01-0.032-0.02-0.048-0.03
		c-0.292-0.189-0.584-0.378-0.876-0.567c-0.252-0.163-0.504-0.326-0.756-0.489c-0.236-0.153-0.472-0.305-0.708-0.458
		c-0.244-0.158-0.488-0.315-0.732-0.473c-0.24-0.155-0.48-0.31-0.72-0.466c-0.24-0.155-0.48-0.31-0.72-0.465
		C6.698,9.639,6.456,9.482,6.214,9.326C5.972,9.17,5.73,9.013,5.488,8.857C5.43,8.819,5.372,8.782,5.313,8.746
		C5.277,8.725,5.25,8.697,5.228,8.662c-0.15-0.229-0.301-0.458-0.453-0.686c-0.25-0.377-0.501-0.754-0.752-1.13
		c-0.059-0.089-0.12-0.178-0.18-0.267C3.833,6.566,3.825,6.551,3.815,6.538C3.802,6.521,3.806,6.508,3.818,6.493
		c0.053-0.07,0.105-0.141,0.158-0.212c0.021-0.029,0.045-0.055,0.066-0.084C4.24,5.932,4.438,5.666,4.636,5.401
		c0.257-0.344,0.514-0.687,0.771-1.03c0.061-0.082,0.125-0.163,0.186-0.245C5.622,4.086,5.659,4.058,5.7,4.033
		c0.333-0.209,0.665-0.419,0.997-0.629c0.288-0.182,0.576-0.363,0.864-0.545c0.242-0.152,0.484-0.305,0.725-0.457
		c0.24-0.151,0.48-0.302,0.719-0.453C9.25,1.795,9.494,1.642,9.738,1.488c0.236-0.148,0.472-0.297,0.708-0.445
		C10.53,0.99,10.615,0.936,10.7,0.884c0.074-0.045,0.152-0.053,0.232-0.018c0.128,0.056,0.185,0.2,0.13,0.328
		c-0.01,0.024-0.024,0.046-0.038,0.068c-0.163,0.258-0.326,0.516-0.489,0.773c-0.24,0.378-0.481,0.756-0.721,1.134
		c-0.242,0.38-0.483,0.76-0.725,1.14c-0.242,0.38-0.483,0.76-0.725,1.14C8.169,5.756,7.974,6.064,7.778,6.371
		C7.766,6.389,7.756,6.408,7.743,6.425c-0.015,0.02-0.012,0.038,0,0.058c0.135,0.224,0.27,0.449,0.405,0.673
		c0.293,0.485,0.585,0.971,0.878,1.456c0.239,0.396,0.478,0.791,0.717,1.186c0.244,0.404,0.487,0.807,0.731,1.211
		c0.238,0.393,0.475,0.787,0.713,1.18c0.106,0.175,0.213,0.35,0.319,0.525c0.005,0.008,0.011,0.015,0.017,0.023L11.526,12.738z"/>
	<path d="M20.647,0.573c0.026-0.001,0.039,0.014,0.054,0.024c0.182,0.118,0.364,0.236,0.546,0.354
		c0.264,0.171,0.528,0.341,0.792,0.512c0.23,0.149,0.46,0.297,0.69,0.446c0.252,0.163,0.504,0.326,0.756,0.489
		c0.236,0.153,0.472,0.305,0.708,0.458c0.246,0.159,0.492,0.318,0.738,0.477c0.232,0.15,0.464,0.3,0.696,0.45
		c0.252,0.163,0.504,0.326,0.756,0.489c0.156,0.101,0.312,0.202,0.469,0.302c0.035,0.022,0.063,0.048,0.086,0.083
		c0.296,0.447,0.593,0.893,0.889,1.339c0.164,0.246,0.328,0.491,0.492,0.737c0.007,0.01,0.013,0.02,0.02,0.03
		c0.027,0.041,0.027,0.042-0.001,0.08c-0.13,0.174-0.259,0.348-0.389,0.521c-0.258,0.345-0.517,0.69-0.775,1.036
		c-0.194,0.259-0.389,0.518-0.583,0.778c-0.033,0.045-0.072,0.081-0.12,0.111c-0.246,0.154-0.492,0.309-0.738,0.464
		c-0.234,0.147-0.467,0.294-0.701,0.442c-0.248,0.156-0.496,0.312-0.744,0.468c-0.238,0.15-0.475,0.3-0.713,0.449
		c-0.244,0.154-0.488,0.307-0.731,0.461c-0.24,0.151-0.479,0.302-0.719,0.453c-0.212,0.133-0.423,0.266-0.635,0.4
		c-0.049,0.031-0.101,0.049-0.161,0.05c-0.161,0-0.304-0.171-0.222-0.358c0.009-0.022,0.024-0.041,0.037-0.061
		c0.301-0.474,0.603-0.949,0.904-1.423c0.232-0.366,0.465-0.731,0.698-1.097c0.25-0.394,0.501-0.788,0.751-1.182
		c0.231-0.364,0.463-0.727,0.694-1.091c0.069-0.108,0.139-0.216,0.209-0.324c0.008-0.012,0.014-0.026,0.023-0.036
		c0.021-0.024,0.018-0.047-0.001-0.071c-0.006-0.007-0.01-0.016-0.015-0.024c-0.285-0.473-0.571-0.946-0.856-1.419
		c-0.235-0.389-0.47-0.779-0.705-1.168c-0.246-0.408-0.493-0.815-0.739-1.223c-0.238-0.393-0.475-0.787-0.713-1.18
		c-0.236-0.391-0.473-0.783-0.709-1.174C20.671,0.62,20.657,0.599,20.647,0.573z"/>
	<path d="M11.524,12.738c0,0.004-0.001,0.009-0.001,0.013c-0.002,0-0.004,0-0.005-0.002c-0.004-0.008,0-0.011,0.008-0.012
		C11.526,12.738,11.524,12.738,11.524,12.738z"/>
	<path fill="#666666" d="M12.675,12.183c-0.002-0.006-0.004-0.009-0.003-0.01c0.022-0.042,0.044-0.084,0.068-0.126
		c0.086-0.154,0.171-0.308,0.257-0.462c0.079-0.142,0.157-0.283,0.235-0.425c0.002-0.004,0.004-0.008,0.007-0.012
		c0.012-0.019,0.021-0.023,0.042-0.016c0.056,0.02,0.112,0.04,0.168,0.062c0.371,0.143,0.742,0.286,1.113,0.428
		c0.06,0.023,0.124,0.031,0.183,0.058c0.005,0.002,0.014-0.002,0.019-0.006c0.007-0.006,0.012-0.015,0.016-0.023
		c0.07-0.125,0.14-0.249,0.209-0.374c0.13-0.236,0.259-0.472,0.389-0.708c0.057-0.104,0.114-0.209,0.172-0.313
		c0.081-0.146,0.161-0.292,0.242-0.438c0.031-0.056,0.062-0.112,0.093-0.168c0.026,0.007,0.032,0.031,0.042,0.048
		c0.098,0.155,0.194,0.311,0.291,0.467c0.125,0.2,0.251,0.399,0.375,0.6c0.126,0.202,0.25,0.406,0.375,0.609
		c0.049,0.079,0.097,0.158,0.146,0.237c0.021,0.034,0.026,0.035,0.064,0.02c0.386-0.145,0.771-0.29,1.157-0.434
		c0.158-0.059,0.316-0.12,0.475-0.177c0.039-0.014,0.065-0.037,0.083-0.072c0.037-0.069,0.074-0.139,0.112-0.208
		c0.169-0.312,0.338-0.624,0.507-0.936c0.124-0.228,0.247-0.457,0.371-0.685c0.133-0.245,0.267-0.489,0.4-0.734
		c0.076-0.14,0.151-0.281,0.227-0.422c0.103-0.19,0.208-0.38,0.312-0.571c0.073-0.134,0.145-0.268,0.217-0.403
		c0.067-0.124,0.133-0.247,0.2-0.371c0.008-0.015,0.015-0.03,0.023-0.044c0.014-0.023,0.013-0.043,0-0.067
		c-0.101-0.178-0.2-0.357-0.3-0.536c-0.076-0.137-0.152-0.275-0.229-0.412c-0.075-0.135-0.152-0.27-0.227-0.405
		c-0.083-0.148-0.165-0.296-0.247-0.443c-0.126-0.225-0.252-0.449-0.377-0.673c-0.08-0.143-0.16-0.287-0.24-0.431
		c-0.112-0.202-0.225-0.404-0.337-0.606c-0.095-0.171-0.192-0.34-0.286-0.511c-0.023-0.043-0.055-0.068-0.099-0.085
		c-0.369-0.143-0.736-0.288-1.104-0.432c-0.2-0.078-0.399-0.156-0.599-0.234c-0.011-0.004-0.023-0.007-0.034-0.012
		c-0.019-0.009-0.032-0.001-0.043,0.014c-0.006,0.008-0.011,0.015-0.017,0.023c-0.228,0.309-0.456,0.617-0.683,0.926
		c-0.153,0.207-0.305,0.414-0.458,0.621c-0.008,0.012-0.017,0.023-0.026,0.034c-0.019,0.023-0.028,0.023-0.042-0.001
		c-0.058-0.096-0.115-0.192-0.173-0.288C15.65,2.9,15.558,2.75,15.468,2.598c-0.161-0.27-0.322-0.54-0.482-0.811
		c-0.002-0.004-0.005-0.008-0.007-0.012c-0.049-0.078-0.033-0.066-0.11-0.039c-0.229,0.081-0.457,0.165-0.685,0.247
		c-0.246,0.089-0.493,0.178-0.739,0.267c-0.164,0.059-0.327,0.118-0.491,0.176c-0.075,0.027-0.076,0.026-0.115,0.096
		c-0.05,0.089-0.1,0.179-0.15,0.268c-0.093,0.166-0.187,0.332-0.28,0.499c-0.109,0.196-0.218,0.391-0.327,0.587
		c-0.122,0.218-0.244,0.436-0.366,0.655c-0.131,0.235-0.262,0.47-0.393,0.705c-0.12,0.214-0.24,0.428-0.359,0.642
		c-0.115,0.206-0.23,0.412-0.344,0.618c-0.039,0.07-0.039,0.071-0.002,0.142c0.066,0.124,0.134,0.247,0.201,0.371
		c0.076,0.14,0.152,0.28,0.229,0.421c0.112,0.205,0.224,0.41,0.335,0.615c0.068,0.126,0.136,0.252,0.204,0.377
		c0.061,0.113,0.122,0.226,0.183,0.34c0.005,0.008,0.009,0.017,0.012,0.026c0.004,0.01,0.002,0.019-0.007,0.025
		c-0.008,0.005-0.016,0.01-0.025,0.014c-0.254,0.132-0.507,0.264-0.761,0.396c-0.006,0.003-0.013,0.006-0.019,0.01
		c-0.01,0.005-0.019,0.002-0.025-0.006c-0.01-0.013-0.019-0.028-0.027-0.042c-0.097-0.173-0.193-0.345-0.29-0.518
		c-0.083-0.147-0.167-0.294-0.251-0.441C10.3,8.088,10.222,7.949,10.144,7.81c-0.115-0.206-0.23-0.412-0.346-0.617
		C9.71,7.037,9.621,6.882,9.532,6.727C9.518,6.704,9.519,6.686,9.533,6.662c0.092-0.159,0.182-0.319,0.272-0.478
		c0.08-0.141,0.159-0.282,0.239-0.423c0.12-0.214,0.241-0.428,0.362-0.641c0.129-0.228,0.259-0.456,0.388-0.684
		c0.14-0.247,0.279-0.494,0.418-0.741c0.104-0.185,0.21-0.369,0.314-0.553c0.12-0.211,0.239-0.423,0.358-0.635
		c0.134-0.236,0.267-0.473,0.401-0.709c0.1-0.176,0.199-0.353,0.299-0.529c0.006-0.01,0.012-0.021,0.018-0.031
		c0.008-0.013,0.021-0.02,0.036-0.02c0.021-0.001,0.043-0.001,0.064-0.001c2.117,0,4.235,0,6.352,0c0.014,0,0.029,0.001,0.043,0
		c0.032-0.003,0.054,0.009,0.071,0.037c0.054,0.09,0.109,0.179,0.163,0.269c0.188,0.312,0.375,0.625,0.563,0.938
		c0.237,0.394,0.475,0.788,0.712,1.181c0.186,0.308,0.372,0.615,0.558,0.923c0.233,0.385,0.465,0.771,0.697,1.157
		c0.155,0.257,0.311,0.514,0.466,0.77c0.006,0.01,0.012,0.021,0.019,0.03c0.012,0.018,0.011,0.034,0.001,0.053
		c-0.041,0.07-0.08,0.141-0.12,0.211c-0.149,0.261-0.298,0.521-0.447,0.782c-0.135,0.236-0.269,0.472-0.403,0.708
		c-0.177,0.31-0.354,0.621-0.531,0.931c-0.141,0.246-0.282,0.492-0.423,0.738c-0.11,0.192-0.218,0.386-0.328,0.578
		c-0.078,0.137-0.157,0.272-0.235,0.409c-0.091,0.159-0.181,0.319-0.272,0.478c-0.113,0.199-0.226,0.398-0.339,0.596
		c-0.026,0.046-0.054,0.09-0.078,0.136c-0.018,0.035-0.043,0.048-0.081,0.043c-0.012-0.002-0.024,0-0.036,0
		c-2.096,0-4.192,0-6.288,0C12.734,12.185,12.704,12.187,12.675,12.183z"/>
	<path fill="#00D2FF" d="M12.538,11.918c-0.04-0.069-0.08-0.137-0.119-0.205c-0.146-0.253-0.292-0.507-0.439-0.761
		c-0.241-0.416-0.482-0.832-0.724-1.247c-0.049-0.084-0.1-0.168-0.149-0.252c-0.014-0.024-0.012-0.03,0.014-0.044
		c0.099-0.052,0.198-0.103,0.298-0.155c0.148-0.077,0.295-0.154,0.443-0.231c0.019-0.01,0.036-0.023,0.062-0.025
		c0.018,0.029,0.037,0.059,0.054,0.09c0.222,0.402,0.444,0.804,0.667,1.206c0.122,0.221,0.246,0.441,0.368,0.661
		c0.008,0.015,0.015,0.03,0.024,0.044c0.01,0.016,0.013,0.03,0.002,0.046c-0.001,0.002-0.003,0.004-0.004,0.006
		c-0.123,0.22-0.246,0.44-0.369,0.66c-0.03,0.054-0.06,0.108-0.09,0.162C12.567,11.888,12.563,11.905,12.538,11.918z"/>
	<path fill="#003FFF" d="M15.45,8.305c-0.002,0.004-0.006,0.006-0.011,0.005c-0.007,0.002-0.012,0.007-0.017,0.011
		c-0.072,0.054-0.155,0.088-0.238,0.118c-0.048,0.017-0.095,0.04-0.148,0.042c-0.028-0.029-0.022-0.066-0.022-0.101
		c-0.001-0.201,0-0.403,0-0.604c0-0.048-0.002-0.095-0.021-0.139c-0.009-0.016-0.006-0.033,0.002-0.048
		c0.056-0.106,0.053-0.22,0.049-0.335c-0.003-0.088-0.043-0.159-0.103-0.221c-0.026-0.027-0.06-0.05-0.054-0.095
		c0.012-0.044,0.012-0.089,0.012-0.134c0-0.185,0-0.369,0-0.554c0-0.045-0.002-0.09-0.014-0.134
		c-0.004-0.026,0.01-0.046,0.024-0.065c0.098-0.133,0.089-0.281,0.061-0.431c-0.006-0.032-0.025-0.063-0.012-0.097
		c0.018-0.038,0.011-0.079,0.011-0.119c0.001-0.221,0.001-0.442,0-0.663c0-0.026-0.005-0.052,0.008-0.077
		c0.16,0.034,0.309,0.094,0.444,0.187c0.005,0.003,0.01,0.007,0.014,0.011l0,0c0.005,0.006,0.009,0.012,0.017,0.013l-0.001-0.001
		c0.025,0.036,0.021,0.077,0.021,0.118c0,0.36,0,0.719,0,1.079c0,0.701,0,1.403,0,2.104C15.473,8.218,15.479,8.265,15.45,8.305z"/>
	<path fill="#00ADFF" d="M13.69,4.788c0.033-0.028,0.074-0.04,0.112-0.057c0.109-0.046,0.223-0.075,0.339-0.096
		c0.011-0.002,0.023-0.001,0.035-0.001c0.028,0.032,0.022,0.071,0.022,0.109c0.003,0.209-0.004,0.418,0.004,0.627
		c0.002,0.039-0.023,0.061-0.05,0.081c-0.183,0.136-0.176,0.493-0.012,0.649c0.055,0.053,0.122,0.087,0.179,0.136
		c0.017,0.198,0.007,0.396,0.006,0.595c0,0.033-0.017,0.059-0.051,0.069c-0.027,0.015-0.054,0.03-0.083,0.042
		c-0.214,0.093-0.255,0.3-0.235,0.467c0.017,0.144,0.082,0.256,0.203,0.337c0.008,0.006,0.016,0.013,0.025,0.018
		c0.006,0.003,0.013,0.006,0.019,0.009c0.014,0.006,0.028,0.011,0.039,0.023c0.005,0.007,0.008,0.015,0.01,0.023
		c0.011,0.211,0.006,0.422,0.003,0.633c-0.001,0.069-0.021,0.081-0.096,0.074c-0.119-0.004-0.232-0.034-0.344-0.069
		c-0.049-0.015-0.099-0.028-0.142-0.059c0.021-1.145,0.003-2.289,0.01-3.434C13.683,4.905,13.657,4.845,13.69,4.788z"/>
	<path fill="#00E2FF" d="M13.69,4.788c0,0.007-0.001,0.015,0.001,0.021c0.02,0.075,0.014,0.151,0.014,0.227c0,1.076,0,2.151,0,3.227
		c0,0.038,0.003,0.077-0.015,0.112c-0.004,0.008-0.011,0.015-0.017,0.022c-0.005,0.001-0.008-0.001-0.011-0.004
		c-0.006-0.005-0.011-0.01-0.02-0.01c-0.022-0.003-0.04-0.016-0.058-0.026c-0.302-0.165-0.461-0.423-0.496-0.762
		c-0.016-0.156-0.009-0.309,0.032-0.46c0.05-0.186,0.145-0.346,0.285-0.478c0.048-0.046,0.097-0.09,0.145-0.134
		c0-0.019-0.016-0.024-0.025-0.034c-0.042-0.039-0.085-0.077-0.126-0.116c-0.13-0.125-0.207-0.277-0.236-0.454
		c-0.02-0.123-0.025-0.247-0.014-0.37c0.023-0.254,0.134-0.464,0.332-0.625c0.048-0.039,0.096-0.078,0.153-0.103
		c0.004-0.005,0.008-0.008,0.014-0.01c0.004-0.002,0.008-0.004,0.013-0.005c0.005-0.004,0.01-0.007,0.016-0.01
		C13.681,4.792,13.685,4.79,13.69,4.788z"/>
	<path fill="#0033FF" d="M18.637,5.104c0.004,0.002,0.006,0.005,0.006,0.01c0.011,0.054,0.006,0.109,0.006,0.164
		c0,0.884,0,1.768,0,2.652c0,0.045-0.001,0.09-0.009,0.135l0,0c-0.005,0.005-0.01,0.011-0.013,0.018
		c-0.036,0.062-0.088,0.112-0.142,0.158c-0.085,0.073-0.179,0.133-0.282,0.178c-0.006,0.003-0.014,0.003-0.021,0.004
		c-0.044-0.032-0.037-0.08-0.037-0.124c-0.001-0.295-0.002-0.591,0-0.886c0.005-0.838-0.003-1.677,0-2.515
		c0-0.056-0.011-0.116,0.037-0.161c0.033,0.007,0.061,0.025,0.09,0.041c0.121,0.068,0.229,0.153,0.317,0.261
		c0.009,0.011,0.016,0.023,0.023,0.035c0.003,0.007,0.008,0.013,0.013,0.018l0,0C18.63,5.095,18.634,5.099,18.637,5.104z"/>
	<path fill="#00E0FF" d="M16.589,8.24c-0.057-0.04-0.101-0.093-0.143-0.148c-0.115-0.151-0.197-0.32-0.249-0.502
		c-0.044-0.154-0.072-0.31-0.091-0.469c-0.028-0.242-0.033-0.485-0.024-0.728c0.01-0.265,0.04-0.527,0.111-0.783
		c0.045-0.162,0.112-0.314,0.203-0.455c0.058-0.09,0.124-0.175,0.21-0.241c0.028,0.013,0.034,0.038,0.037,0.065
		c0.003,0.026,0.003,0.052,0.003,0.079c0,1.017,0,2.035,0,3.052c0,0.031,0.002,0.062-0.005,0.093
		C16.635,8.228,16.626,8.253,16.589,8.24z"/>
	<path fill="#00BEFF" d="M16.589,8.24c0.018-0.003,0.032-0.01,0.033-0.031c0.001-0.017,0.001-0.033,0.001-0.05c0-1.05,0-2.1,0-3.149
		c0-0.033,0.001-0.067-0.017-0.097c0.066-0.066,0.142-0.117,0.228-0.153c0.006-0.003,0.012-0.006,0.017-0.01
		c0.003-0.004,0.007-0.005,0.012-0.004c0.006-0.003,0.011-0.006,0.017-0.009c0.005-0.001,0.009-0.003,0.014-0.004
		c0.005-0.004,0.01-0.007,0.015-0.009c0.008-0.002,0.016-0.005,0.024-0.007c0.008,0,0.013-0.006,0.019-0.009
		c0.005-0.001,0.009-0.002,0.014-0.003c0.036-0.017,0.053,0,0.061,0.034c0.006,0.028,0.005,0.057,0.005,0.085
		c0,0.275,0,0.55,0,0.824c0,0.019-0.001,0.038,0.004,0.056c0.002,0.008,0.002,0.016,0.001,0.024
		c-0.001,0.015-0.006,0.029-0.011,0.043c-0.002,0.006-0.004,0.012-0.007,0.019c-0.004,0.011-0.008,0.023-0.01,0.035
		c-0.001,0.009-0.003,0.018-0.006,0.026C17,5.865,16.997,5.88,16.996,5.895c-0.001,0.009-0.003,0.019-0.005,0.028
		c-0.005,0.016-0.007,0.032-0.007,0.048c-0.001,0.014-0.003,0.028-0.006,0.042c-0.008,0.027-0.005,0.054-0.004,0.081
		c-0.016,0.188-0.01,0.376-0.014,0.564c-0.004,0.182,0.012,0.362,0.029,0.542c0.001,0.019-0.003,0.038,0.003,0.056
		c0.003,0.01,0.004,0.02,0.005,0.03c0.001,0.015,0.003,0.031,0.008,0.046c0.002,0.006,0.003,0.012,0.005,0.018
		c0.002,0.012,0.004,0.024,0.009,0.035c0.003,0.006,0.005,0.012,0.008,0.018c0.006,0.013,0.012,0.026,0.015,0.041
		c0.002,0.008,0.002,0.016,0.002,0.025c-0.022,0.292-0.004,0.584-0.01,0.876c-0.001,0.042,0.01,0.086-0.022,0.123
		C17.005,8.465,17,8.464,16.995,8.464c-0.009-0.006-0.021-0.004-0.03-0.011l-0.007,0l-0.006-0.003
		c-0.008-0.007-0.021-0.004-0.029-0.011c-0.005-0.001-0.01-0.002-0.014-0.004c-0.006-0.003-0.011-0.008-0.018-0.009
		c-0.004,0.001-0.008,0-0.011-0.004c-0.008-0.007-0.02-0.004-0.028-0.012C16.754,8.37,16.665,8.315,16.589,8.24z"/>
	<path fill="#005CFF" d="M18.183,4.736c-0.019,0.065-0.014,0.132-0.014,0.198c0,1.123,0,2.247,0,3.37c0,0.041,0,0.081,0.014,0.119
		c-0.076,0.041-0.159,0.06-0.242,0.077c-0.128,0.026-0.256,0.043-0.387,0.036c-0.017-0.054-0.006-0.109-0.007-0.163
		c-0.002-0.143-0.002-0.286,0-0.429c0.001-0.047-0.008-0.089-0.039-0.126c0.014-0.035,0.047-0.028,0.073-0.029
		c0.222-0.009,0.361-0.125,0.437-0.329c0.055-0.149,0.074-0.306,0.084-0.462c0.023-0.373,0.025-0.746-0.041-1.116
		c-0.018-0.101-0.051-0.198-0.1-0.289c-0.08-0.147-0.206-0.217-0.372-0.225c-0.046-0.002-0.1,0.023-0.137-0.029
		c0.094-0.029,0.099-0.1,0.096-0.183c-0.005-0.145-0.002-0.291-0.001-0.436c0-0.035-0.003-0.072,0.022-0.102
		c0.129-0.008,0.255,0.009,0.38,0.038C18.029,4.674,18.109,4.695,18.183,4.736z"/>
	<path fill="#0017FF" d="M15.45,8.305c0-1.111,0-2.221,0-3.332c0-0.033,0.001-0.067,0.002-0.1c0.114,0.069,0.205,0.162,0.275,0.275
		c0.088,0.14,0.135,0.294,0.139,0.459c0.002,0.105,0,0.209-0.013,0.314c-0.022,0.161-0.086,0.301-0.198,0.418
		c-0.054,0.057-0.116,0.106-0.175,0.157c-0.019,0.017-0.019,0.024,0,0.039c0.027,0.02,0.054,0.039,0.081,0.059
		c0.195,0.145,0.311,0.338,0.349,0.578c0.032,0.208,0.022,0.413-0.045,0.614c-0.053,0.159-0.141,0.297-0.265,0.409
		C15.553,8.236,15.506,8.276,15.45,8.305z"/>
	<path fill="#000DFF" d="M18.64,8.065c-0.008-0.017-0.015-0.035-0.014-0.055c0.001-0.014,0-0.029,0-0.043c0-0.916,0-1.833,0-2.749
		c0-0.035-0.004-0.072,0.017-0.104c0.054,0.061,0.089,0.134,0.124,0.207c0.078,0.164,0.127,0.338,0.159,0.517
		c0.038,0.209,0.058,0.419,0.059,0.631c0.001,0.133,0.002,0.267-0.004,0.4c-0.011,0.228-0.039,0.455-0.099,0.676
		c-0.044,0.164-0.106,0.32-0.199,0.464C18.671,8.029,18.66,8.051,18.64,8.065z"/>
	<path fill="#009EFF" d="M17.568,4.618c0,0.211,0,0.423,0,0.634c0,0.019,0,0.038-0.002,0.057c-0.001,0.013-0.01,0.022-0.023,0.023
		c-0.017,0.002-0.033,0.001-0.05,0.002c-0.014,0-0.029,0.001-0.04,0.012c-0.014,0.023-0.04,0.025-0.062,0.03
		c-0.14,0.036-0.236,0.122-0.297,0.253c-0.018,0.038-0.022,0.088-0.069,0.11c-0.013-0.038-0.017-0.078-0.017-0.119
		c0.001-0.273,0-0.545,0-0.818c0-0.019,0-0.038,0-0.057c-0.001-0.032-0.002-0.032-0.043-0.041c0.048-0.028,0.103-0.036,0.155-0.048
		C17.268,4.621,17.417,4.608,17.568,4.618z"/>
	<path fill="#009DFF" d="M17.51,7.811c0.057,0.024,0.057,0.024,0.057,0.085c0,0.188,0,0.376,0,0.564
		c0,0.026,0.002,0.053-0.014,0.076c-0.178,0.008-0.353-0.014-0.525-0.059c-0.007-0.002-0.012-0.007-0.018-0.01c0-0.28,0-0.56,0-0.84
		c0-0.047-0.004-0.095,0.012-0.141c0.005-0.015,0.002-0.033,0.002-0.05c0.033,0,0.033,0.029,0.042,0.049
		c0.068,0.166,0.184,0.273,0.366,0.299C17.459,7.788,17.49,7.784,17.51,7.811z"/>
	<path fill="#0069FF" d="M14.978,4.664c0.012,0.019,0.014,0.04,0.014,0.062c0,0.248,0,0.495,0,0.743c0,0.027,0,0.053-0.03,0.066
		c-0.002-0.001-0.005-0.001-0.007-0.002c-0.004-0.003-0.008-0.006-0.011-0.009c-0.003-0.004-0.005-0.008-0.007-0.012
		c-0.002-0.004-0.005-0.008-0.007-0.012c0,0-0.004-0.006-0.004-0.005c-0.003-0.003-0.006-0.007-0.01-0.01
		c0,0-0.005-0.005-0.005-0.005c-0.004-0.003-0.007-0.007-0.011-0.01c-0.002-0.002-0.004-0.004-0.006-0.005
		c-0.004-0.003-0.008-0.007-0.012-0.011c-0.002-0.002-0.004-0.004-0.006-0.005c-0.005-0.003-0.01-0.007-0.014-0.01
		c-0.003-0.001-0.005-0.003-0.008-0.004c-0.006-0.003-0.012-0.005-0.018-0.008c-0.072-0.036-0.147-0.065-0.228-0.073
		c-0.03-0.003-0.055-0.014-0.062-0.048c-0.011-0.187-0.002-0.374-0.005-0.56c-0.001-0.1-0.001-0.1-0.104-0.103
		c-0.032-0.001-0.067,0.005-0.092-0.025c0.009-0.003,0.018-0.007,0.027-0.007c0.185-0.01,0.369,0.001,0.55,0.042
		c0.01,0.005,0.022,0.005,0.032,0.01C14.962,4.661,14.97,4.663,14.978,4.664z"/>
	<path fill="#0062FF" d="M14.997,7.622c0.009,0.003,0.018,0.006,0.022,0.016c0.012,0.031,0.017,0.063,0.017,0.097
		c-0.001,0.249,0,0.497,0,0.746l0,0c-0.008,0.007-0.019,0.006-0.029,0.01c-0.013,0.002-0.026,0.004-0.038,0.006
		c-0.011,0.004-0.023,0.004-0.033,0.009c-0.108,0.028-0.219,0.035-0.329,0.042c-0.082,0.005-0.165,0.001-0.248,0.001
		c-0.019,0-0.038,0.001-0.055-0.009c0.048-0.04,0.105-0.022,0.157-0.023c0.186-0.004,0.165,0.017,0.166-0.163
		c0.001-0.138,0-0.276,0-0.413c0-0.041-0.006-0.076-0.052-0.09c-0.032-0.048,0.016-0.042,0.035-0.044
		c0.089-0.011,0.174-0.036,0.253-0.078c0.006-0.003,0.012-0.005,0.018-0.008c0.003-0.001,0.006-0.002,0.008-0.004
		c0.005-0.003,0.01-0.005,0.015-0.008c0.002-0.002,0.005-0.003,0.007-0.005c0.004-0.004,0.008-0.007,0.012-0.01
		c0.002-0.002,0.004-0.003,0.006-0.005c0.004-0.004,0.007-0.007,0.011-0.011c0.002-0.002,0.004-0.003,0.005-0.005
		c0.003-0.004,0.007-0.007,0.011-0.01c0.002-0.002,0.003-0.003,0.005-0.005c0.003-0.004,0.007-0.007,0.01-0.011
		c0.001-0.002,0.003-0.004,0.004-0.006c0.003-0.004,0.006-0.008,0.009-0.012C14.987,7.622,14.992,7.621,14.997,7.622z"/>
	<path fill="#0083FF" d="M14.56,7.835c0.002,0,0.005,0.001,0.007,0.001c0.081,0.005,0.083-0.012,0.082,0.083
		c0,0.179,0,0.357,0,0.536c0,0.014,0,0.029,0,0.043c-0.002,0.031-0.008,0.039-0.038,0.04c-0.04,0.001-0.081,0.001-0.122,0.001
		c-0.062,0.001-0.124,0.001-0.186,0.002c-0.049-0.002-0.098,0.005-0.145-0.015c0.012-0.001,0.024-0.001,0.035-0.003
		c0.027-0.005,0.037-0.015,0.039-0.042c0.001-0.014,0.001-0.028,0.001-0.043c0-0.214,0-0.427,0-0.641
		c0.005-0.005,0.01-0.012,0.017-0.011C14.354,7.802,14.459,7.804,14.56,7.835z"/>
	<path fill="#008CFF" d="M14.345,4.616c0.048,0.001,0.095,0.002,0.143,0.003c0.017,0,0.033,0,0.05,0.002
		c0.013,0.001,0.022,0.009,0.024,0.023c0.002,0.017,0.002,0.033,0.002,0.05c0,0.209,0,0.419,0,0.628
		c-0.019,0.019-0.043,0.016-0.066,0.019c-0.084,0.012-0.169,0.019-0.249,0.052c-0.017,0.007-0.036,0.013-0.055,0.003
		c-0.017-0.028-0.016-0.059-0.016-0.09c0-0.223,0-0.447,0-0.67C14.232,4.616,14.288,4.616,14.345,4.616z"/>
	<path fill="#0065FF" d="M15.794,0.97c0.024-0.001,0.047-0.004,0.071-0.004c1.111,0,2.221,0.001,3.332,0.001
		c0.005,0,0.01-0.001,0.014,0c0.023,0.005,0.053-0.012,0.068,0.019c-0.02,0.019-0.044,0.008-0.066,0.008
		c-2.138,0.001-4.275,0.001-6.413,0.002c-0.024,0-0.048,0.001-0.071-0.003c-0.012-0.002-0.009-0.014,0.001-0.02
		c0.025,0.01,0.052,0.005,0.078,0.005c0.97,0,1.94,0,2.91,0C15.743,0.978,15.77,0.987,15.794,0.97z"/>
	<path fill="#0085F4" d="M14.827,1.988c0.01,0.001,0.018,0.003,0.024,0.012c0.01,0.016,0.02,0.032,0.03,0.049
		c0.218,0.366,0.436,0.732,0.654,1.098c0.115,0.192,0.23,0.384,0.346,0.575c0.01,0.016,0.02,0.032,0.032,0.047
		c0.01,0.013,0.006,0.022-0.004,0.03c-0.014,0.011-0.021-0.003-0.027-0.012c-0.047-0.077-0.094-0.155-0.14-0.232
		c-0.291-0.48-0.582-0.961-0.873-1.441c-0.02-0.033-0.041-0.064-0.061-0.097C14.8,2.004,14.812,1.987,14.827,1.988z"/>
	<path fill="#00A2FF" d="M15.794,0.97c-0.008,0.005-0.016,0.012-0.024,0.013c-0.019,0.002-0.038,0.001-0.057,0.002
		c-0.967,0.001-1.934,0.001-2.901,0.001c-0.027,0-0.058,0.01-0.082-0.013c0.027-0.014,0.056-0.007,0.084-0.007
		c0.588,0,1.177,0,1.765,0c0.379,0,0.758,0,1.136,0.001C15.742,0.967,15.768,0.969,15.794,0.97z"/>
	<path fill="#0076A5" d="M13.061,2.637c-0.053,0.087-0.106,0.173-0.16,0.26c-0.014-0.008-0.01-0.015-0.005-0.023
		c0.04-0.073,0.08-0.145,0.121-0.218c0.005-0.008,0.011-0.016,0.018-0.022C13.043,2.627,13.052,2.629,13.061,2.637z"/>
	<path fill="#003FFF" d="M14.936,8.506c0.009-0.011,0.021-0.011,0.033-0.009C14.96,8.507,14.948,8.508,14.936,8.506z"/>
	<path fill="#009DFF" d="M16.853,8.409c0.011-0.001,0.021,0.002,0.028,0.012C16.869,8.423,16.86,8.418,16.853,8.409z"/>
	<path fill="#009DFF" d="M16.923,8.438c0.011-0.001,0.022,0.001,0.029,0.011C16.94,8.451,16.931,8.447,16.923,8.438z"/>
	<path fill="#003FFF" d="M15.007,8.491c0.007-0.01,0.018-0.011,0.029-0.01C15.028,8.489,15.019,8.493,15.007,8.491z"/>
	<path fill="#009DFF" d="M16.965,8.453c0.012-0.001,0.022,0,0.03,0.011C16.983,8.465,16.973,8.462,16.965,8.453z"/>
	<path fill="#003FFF" d="M14.953,4.66c-0.012,0.002-0.023,0.001-0.032-0.01C14.934,4.648,14.945,4.65,14.953,4.66z"/>
	<path fill="#009EFF" d="M16.952,4.707c-0.005,0.007-0.011,0.01-0.019,0.009C16.937,4.709,16.944,4.706,16.952,4.707z"/>
	<path fill="#009EFF" d="M16.909,4.723c-0.005,0.003-0.01,0.006-0.015,0.009C16.897,4.726,16.901,4.722,16.909,4.723z"/>
	<path fill="#009EFF" d="M16.88,4.736c-0.004,0.007-0.009,0.01-0.017,0.009C16.867,4.739,16.872,4.735,16.88,4.736z"/>
	<path fill="#009EFF" d="M16.852,4.75c-0.004,0.007-0.009,0.01-0.017,0.01C16.838,4.753,16.844,4.749,16.852,4.75z"/>
	<path fill="#00ADFF" d="M13.676,4.794c-0.003,0.007-0.008,0.01-0.016,0.01C13.663,4.796,13.668,4.792,13.676,4.794z"/>
	<path fill="#00ADFF" d="M13.647,4.809c-0.002,0.007-0.007,0.01-0.014,0.01C13.636,4.812,13.64,4.808,13.647,4.809z"/>
	<path fill="#0017FF" d="M15.436,4.861c-0.005-0.004-0.009-0.007-0.014-0.011C15.43,4.851,15.434,4.855,15.436,4.861z"/>
	<path fill="#0017FF" d="M15.453,4.874c-0.008-0.001-0.014-0.005-0.017-0.013C15.445,4.862,15.451,4.866,15.453,4.874z"/>
	<path fill="#000DFF" d="M18.626,5.091c-0.004-0.006-0.009-0.012-0.013-0.018C18.621,5.077,18.625,5.082,18.626,5.091z"/>
	<path fill="#000DFF" d="M18.637,5.104C18.633,5.1,18.63,5.095,18.626,5.091C18.633,5.093,18.637,5.097,18.637,5.104z"/>
	<path fill="#000DFF" d="M18.627,8.083c0.004-0.006,0.009-0.012,0.013-0.018C18.639,8.074,18.635,8.08,18.627,8.083z"/>
	<path fill="#0017FF" d="M15.422,8.321c0.006-0.004,0.011-0.007,0.017-0.011C15.436,8.317,15.43,8.321,15.422,8.321z"/>
	<path fill="#00ADFF" d="M13.642,8.383c0.009-0.001,0.015,0.002,0.02,0.01C13.653,8.394,13.646,8.391,13.642,8.383z"/>
	<path fill="#009DFF" d="M16.891,8.425c0.008-0.001,0.014,0.002,0.018,0.009C16.901,8.435,16.895,8.432,16.891,8.425z"/>
	<path fill="#0060FF" d="M27.182,3.127c-0.032-0.02-0.066-0.039-0.097-0.06c-0.201-0.136-0.402-0.273-0.604-0.409
		c-0.249-0.168-0.498-0.336-0.746-0.504c-0.237-0.16-0.474-0.32-0.711-0.48c-0.245-0.165-0.49-0.33-0.735-0.495
		c-0.111-0.074-0.222-0.149-0.332-0.223c-0.02-0.013-0.038-0.027-0.057-0.04c0.005-0.02,0.019-0.014,0.029-0.014
		c0.205,0.003,0.41,0.008,0.615,0.011c0.417,0.007,0.834,0.013,1.251,0.019c0.262,0.004,0.524,0.009,0.786,0.013
		c0.317,0.005,0.634,0.008,0.951,0.016c0.265,0.007,0.529,0.008,0.794,0.012c0.324,0.005,0.648,0.01,0.972,0.016
		c0.288,0.005,0.577,0.009,0.865,0.014c0.296,0.005,0.591,0.009,0.887,0.015c0.118,0.002,0.104-0.011,0.104,0.103
		c0.001,2.757,0.001,5.515,0.001,8.272c0,0.898,0,1.797,0,2.695c0,0.026,0.007,0.052-0.007,0.077
		c-0.028-0.019-0.027-0.049-0.027-0.077c0-0.497-0.003-0.994,0.001-1.491c-0.004-0.048-0.002-0.095-0.002-0.143
		c0-1.105,0-2.211,0-3.316c0-0.043,0.001-0.086,0.002-0.129c-0.004-0.038-0.001-0.076-0.001-0.114c0-1.239,0-2.478,0-3.717
		c0-0.145-0.006-0.151-0.15-0.132c-0.052,0.007-0.104,0.009-0.157,0.008c-0.548-0.009-1.096,0.013-1.644,0.019
		c-0.305,0.003-0.61-0.005-0.914,0.012c-0.312,0.017-0.624,0.007-0.936,0.012C27.271,3.098,27.225,3.105,27.182,3.127z"/>
	<path fill="#00C0FF" d="M31.142,7.008c0.001,0.286,0.001,0.572,0.002,0.858c0.001,0.879,0.001,1.759,0.001,2.638
		c0,0.031-0.002,0.062-0.003,0.093c-0.03,0.027-0.067,0.022-0.102,0.023c-0.374,0.017-0.748,0.004-1.122,0.018
		c-0.31,0.011-0.62-0.004-0.929,0.013c-0.31,0.017-0.62-0.003-0.929,0.014c-0.315,0.017-0.629-0.002-0.943,0.014
		c-0.238,0.012-0.476,0.008-0.714,0.012c-0.031,0.001-0.062,0.005-0.092,0.013c-0.028,0.007-0.056,0.015-0.08-0.01
		c0.045-0.039,0.099-0.065,0.149-0.096c0.215-0.131,0.431-0.261,0.647-0.392c0.248-0.15,0.496-0.302,0.745-0.45
		c0.041-0.024,0.071-0.054,0.092-0.095c0.034-0.068,0.07-0.135,0.105-0.203c0.188-0.366,0.375-0.733,0.563-1.098
		c0.216-0.421,0.434-0.841,0.651-1.262c0.009-0.017,0.019-0.032,0.029-0.049c0.018-0.017,0.041-0.022,0.065-0.027
		c0.035-0.007,0.07-0.011,0.106-0.01c0.56,0.008,1.121-0.024,1.681-0.015C31.092,6.999,31.118,6.995,31.142,7.008z"/>
	<path fill="#008CFF" d="M31.142,7.008c-0.026,0.016-0.055,0.013-0.083,0.013c-0.259,0-0.519,0-0.778,0c-0.031,0-0.061,0-0.092,0.01
		c-0.022,0.007-0.047,0.004-0.071,0.004c-0.238,0-0.476,0-0.714,0c-0.043,0-0.085-0.002-0.127,0.012
		c-0.019,0.006-0.042,0.002-0.064,0.002c0.024-0.065,0.059-0.124,0.091-0.185c0.053-0.104,0.108-0.207,0.163-0.31
		c0.011-0.021,0.011-0.039-0.002-0.059c-0.045-0.067-0.088-0.136-0.133-0.203c-0.064-0.097-0.129-0.194-0.193-0.292
		c-0.166-0.255-0.332-0.511-0.498-0.766c-0.249-0.383-0.499-0.766-0.749-1.148c-0.079-0.122-0.16-0.242-0.24-0.364
		c-0.01-0.016-0.019-0.033-0.028-0.049c-0.005-0.003-0.008-0.008-0.01-0.013c-0.004-0.003-0.006-0.007-0.006-0.012
		c-0.002-0.007-0.007-0.012-0.012-0.018L27.596,3.63c-0.005-0.003-0.008-0.007-0.01-0.012c-0.002-0.004-0.004-0.008-0.006-0.012
		c-0.002-0.007-0.008-0.012-0.011-0.018l-0.001-0.002c-0.005-0.002-0.008-0.006-0.009-0.011c-0.002-0.004-0.004-0.009-0.007-0.013
		c-0.003-0.005-0.007-0.011-0.011-0.016c-0.004-0.002-0.005-0.005-0.005-0.009c0-0.009-0.006-0.015-0.013-0.02l0,0
		c-0.004-0.005-0.007-0.01-0.011-0.015c-0.004-0.002-0.006-0.005-0.005-0.009c-0.001-0.009-0.006-0.014-0.013-0.019l0,0
		c-0.004-0.004-0.007-0.009-0.01-0.014c-0.004-0.002-0.006-0.006-0.005-0.01c-0.001-0.008-0.007-0.014-0.012-0.019l0,0
		c-0.004-0.004-0.008-0.008-0.01-0.014c-0.004-0.002-0.006-0.006-0.006-0.011c-0.002-0.008-0.007-0.013-0.012-0.018l0-0.001
		c-0.005-0.003-0.008-0.008-0.01-0.013c-0.004-0.003-0.006-0.006-0.006-0.012c-0.002-0.007-0.007-0.012-0.012-0.018l-0.001-0.001
		c-0.005-0.003-0.008-0.007-0.01-0.012c-0.005-0.003-0.007-0.007-0.006-0.012c-0.003-0.007-0.008-0.012-0.011-0.018L27.382,3.3
		c-0.005-0.002-0.008-0.006-0.009-0.011c-0.002-0.004-0.004-0.009-0.007-0.013c-0.004-0.005-0.007-0.011-0.011-0.016
		c-0.004-0.002-0.005-0.004-0.005-0.009c-0.001-0.009-0.006-0.015-0.014-0.019l0.001,0.001c-0.004-0.008-0.01-0.013-0.018-0.014
		c-0.004,0-0.008-0.001-0.01-0.005c-0.005-0.003-0.01-0.007-0.014-0.011l0,0c-0.005-0.006-0.011-0.011-0.019-0.013
		c-0.005,0-0.008-0.002-0.01-0.006c-0.005-0.003-0.01-0.006-0.014-0.011l0,0c-0.005-0.006-0.011-0.011-0.018-0.013
		c-0.005,0-0.008-0.002-0.011-0.006c-0.005-0.002-0.01-0.006-0.013-0.01l0,0c-0.005-0.005-0.011-0.01-0.018-0.012
		c-0.005,0-0.008-0.001-0.01-0.005c0.006-0.039,0.038-0.045,0.068-0.052c0.018-0.004,0.038-0.001,0.057-0.001
		c0.255,0,0.51,0,0.765,0c0.031,0,0.061,0,0.092-0.009c0.022-0.007,0.047-0.005,0.071-0.005c0.253,0,0.505,0,0.758,0
		c0.036,0,0.071,0.001,0.106-0.011c0.022-0.007,0.047-0.004,0.071-0.004c0.253,0,0.505,0,0.758,0c0.033,0,0.066,0.001,0.099-0.01
		c0.022-0.007,0.047-0.004,0.071-0.004c0.26,0,0.52,0,0.779,0c0.031,0,0.061-0.002,0.092-0.009c0.049-0.012,0.1-0.005,0.149-0.003
		c0.013,0,0.023,0.009,0.024,0.022c0.002,0.024,0.002,0.048,0.002,0.071c0,0.846,0.001,1.692,0.001,2.538c0,0.424,0,0.848,0,1.273
		C31.144,6.951,31.143,6.98,31.142,7.008z"/>
	<path fill="#00E2FF" d="M26.233,10.695c0.024,0.003,0.048,0.004,0.069-0.009c0.028-0.017,0.058-0.018,0.09-0.017
		c0.183,0,0.367,0,0.55,0c0.031,0,0.061,0,0.092-0.009c0.022-0.007,0.047-0.005,0.071-0.005c0.257,0,0.515,0,0.772,0
		c0.036,0,0.071,0.001,0.106-0.011c0.022-0.007,0.047-0.004,0.071-0.004c0.253,0,0.505,0,0.758,0c0.033,0,0.066,0.001,0.099-0.01
		c0.022-0.007,0.047-0.004,0.071-0.004c0.255,0,0.51,0,0.765,0c0.031,0,0.061,0,0.092-0.009c0.022-0.007,0.047-0.005,0.071-0.005
		c0.257,0,0.515,0,0.772,0c0.036,0,0.071,0.002,0.106-0.011c0.017-0.006,0.038-0.003,0.057-0.003c0.1,0,0.2,0,0.3,0
		c0.001,0.028,0.002,0.057,0.002,0.085c0,0.468,0.001,0.937,0.001,1.405c0,0.026,0.002,0.052,0.003,0.078
		c-0.023,0.01-0.047,0.006-0.071,0.006c-0.598,0.006-1.196,0.013-1.794,0.019c-0.424,0.004-0.848,0.009-1.272,0.013
		c-0.508,0.005-1.015,0.011-1.523,0.017c-0.398,0.004-0.796,0.008-1.194,0.012c-0.529,0.006-1.058,0.012-1.587,0.018
		c-0.007,0-0.014-0.001-0.021-0.001c-0.006-0.012,0.001-0.017,0.01-0.022c0.185-0.112,0.371-0.224,0.556-0.337
		c0.189-0.115,0.378-0.23,0.568-0.345c0.138-0.084,0.277-0.167,0.416-0.25c0.008-0.005,0.017-0.008,0.025-0.012
		c0.005-0.003,0.011-0.007,0.016-0.01c0.002-0.004,0.005-0.006,0.01-0.005c0.008-0.001,0.014-0.006,0.019-0.012l0.001,0
		c0.004-0.005,0.008-0.008,0.013-0.01c0.003-0.004,0.007-0.006,0.012-0.006c0.006-0.003,0.011-0.007,0.016-0.011
		c0.002-0.004,0.005-0.006,0.009-0.005c0.009-0.001,0.014-0.006,0.02-0.012l0,0c0.004-0.004,0.009-0.008,0.014-0.01
		c0.003-0.004,0.007-0.006,0.012-0.005c0.007-0.002,0.012-0.007,0.017-0.011c0.002-0.004,0.004-0.005,0.009-0.005
		c0.009,0,0.015-0.006,0.02-0.012l0,0c0.004-0.004,0.009-0.007,0.014-0.01c0.003-0.004,0.006-0.006,0.011-0.005
		c0.007-0.002,0.012-0.007,0.018-0.011l0.002-0.001c0.002-0.005,0.006-0.008,0.012-0.009c0.004-0.002,0.009-0.004,0.013-0.006
		c0.005-0.004,0.01-0.007,0.015-0.01c0.002-0.004,0.006-0.006,0.011-0.005c0.008-0.002,0.013-0.007,0.019-0.012l0.001,0
		c0.003-0.005,0.007-0.008,0.013-0.01c0.004-0.002,0.009-0.004,0.013-0.006c0.005-0.004,0.011-0.007,0.016-0.011
		c0.002-0.004,0.005-0.006,0.01-0.005c0.008-0.001,0.014-0.007,0.019-0.012l0.001,0c0.003-0.005,0.008-0.008,0.013-0.01
		c0.003-0.004,0.007-0.006,0.012-0.006c0.006-0.003,0.011-0.007,0.016-0.011c0.002-0.004,0.005-0.006,0.01-0.005
		c0.008-0.001,0.013-0.006,0.019-0.01c0.001-0.004,0.004-0.005,0.008-0.004c0.009,0,0.015-0.006,0.02-0.013l0,0
		c0.005-0.004,0.009-0.007,0.015-0.01c0.002-0.004,0.006-0.006,0.011-0.005c0.007-0.002,0.013-0.007,0.018-0.011l0.001-0.001
		c0.003-0.005,0.007-0.008,0.012-0.01c0.004-0.002,0.009-0.004,0.013-0.006c0.005-0.004,0.01-0.007,0.016-0.01
		c0.002-0.004,0.006-0.006,0.01-0.005c0.008-0.002,0.013-0.007,0.019-0.012l0.001,0c0.003-0.005,0.008-0.008,0.013-0.01
		c0.004-0.002,0.008-0.004,0.013-0.006c0.005-0.004,0.011-0.007,0.016-0.011c0.002-0.004,0.005-0.006,0.01-0.005
		c0.008-0.001,0.014-0.006,0.019-0.012l0,0c0.004-0.005,0.008-0.008,0.014-0.01c0.003-0.004,0.007-0.006,0.012-0.006
		c0.006-0.003,0.011-0.007,0.017-0.011c0.002-0.004,0.005-0.005,0.009-0.005c0.009-0.001,0.015-0.006,0.02-0.012l0,0
		c0.004-0.004,0.009-0.008,0.014-0.01c0.003-0.004,0.006-0.006,0.011-0.005c0.007-0.002,0.012-0.007,0.017-0.011
		c0.001-0.004,0.004-0.005,0.008-0.004c0.009,0,0.015-0.006,0.02-0.013l0,0c0.005-0.004,0.009-0.007,0.015-0.01
		c0.002-0.004,0.006-0.006,0.011-0.005c0.007-0.002,0.013-0.007,0.018-0.012l0.001-0.001c0.003-0.005,0.007-0.008,0.012-0.01
		c0.004-0.002,0.009-0.004,0.013-0.006c0.005-0.004,0.01-0.007,0.016-0.01c0.002-0.004,0.006-0.006,0.01-0.005
		c0.008-0.002,0.013-0.007,0.019-0.012l0.001,0c0.003-0.005,0.007-0.008,0.013-0.01c0.004-0.002,0.008-0.004,0.012-0.006
		c0.005-0.004,0.011-0.007,0.016-0.011C26.225,10.696,26.228,10.694,26.233,10.695z"/>
	<path fill="#0060FF" d="M27.277,3.19c0.009,0.001,0.015,0.005,0.019,0.013C27.287,3.203,27.28,3.198,27.277,3.19z"/>
	<path fill="#0060FF" d="M27.295,3.203C27.3,3.206,27.305,3.21,27.31,3.214C27.302,3.214,27.298,3.21,27.295,3.203z"/>
	<path fill="#0060FF" d="M27.319,3.219c0.009,0.001,0.015,0.006,0.018,0.014C27.329,3.232,27.323,3.227,27.319,3.219z"/>
	<path fill="#0060FF" d="M27.337,3.232c0.009,0.003,0.014,0.01,0.014,0.019C27.342,3.248,27.338,3.241,27.337,3.232z"/>
	<path fill="#0060FF" d="M27.356,3.26c0.004,0.005,0.007,0.011,0.011,0.016C27.359,3.273,27.355,3.268,27.356,3.26z"/>
	<path fill="#0060FF" d="M27.373,3.289c0.003,0.004,0.006,0.008,0.009,0.011C27.376,3.299,27.373,3.296,27.373,3.289z"/>
	<path fill="#0060FF" d="M27.383,3.302c0.004,0.006,0.008,0.012,0.011,0.018C27.387,3.316,27.383,3.311,27.383,3.302z"/>
	<path fill="#0060FF" d="M27.401,3.332c0.003,0.004,0.006,0.008,0.01,0.012C27.404,3.343,27.401,3.339,27.401,3.332z"/>
	<path fill="#0060FF" d="M27.411,3.345c0.007,0.004,0.011,0.01,0.012,0.018C27.415,3.36,27.411,3.354,27.411,3.345z"/>
	<path fill="#0060FF" d="M27.429,3.375c0.003,0.004,0.007,0.009,0.01,0.013C27.433,3.386,27.429,3.382,27.429,3.375z"/>
	<path fill="#0060FF" d="M27.439,3.388c0.007,0.004,0.012,0.01,0.012,0.018C27.444,3.403,27.44,3.397,27.439,3.388z"/>
	<path fill="#0060FF" d="M27.457,3.418c0.003,0.005,0.007,0.009,0.01,0.014C27.461,3.429,27.457,3.425,27.457,3.418z"/>
	<path fill="#0060FF" d="M27.468,3.432c0.008,0.004,0.012,0.01,0.012,0.019C27.472,3.447,27.468,3.44,27.468,3.432z"/>
	<path fill="#0060FF" d="M27.485,3.461c0.003,0.005,0.007,0.01,0.01,0.014C27.489,3.473,27.485,3.468,27.485,3.461z"/>
	<path fill="#0060FF" d="M27.496,3.475c0.008,0.004,0.012,0.01,0.013,0.019C27.5,3.49,27.496,3.484,27.496,3.475z"/>
	<path fill="#0060FF" d="M27.513,3.504c0.004,0.005,0.007,0.01,0.011,0.015C27.517,3.516,27.513,3.511,27.513,3.504z"/>
	<path fill="#0060FF" d="M27.524,3.518c0.008,0.004,0.013,0.01,0.013,0.02C27.528,3.534,27.524,3.527,27.524,3.518z"/>
	<path fill="#0060FF" d="M27.542,3.546c0.004,0.005,0.007,0.011,0.011,0.016C27.545,3.56,27.541,3.555,27.542,3.546z"/>
	<path fill="#0060FF" d="M27.559,3.575c0.003,0.004,0.006,0.008,0.009,0.011C27.562,3.585,27.559,3.582,27.559,3.575z"/>
	<path fill="#0060FF" d="M27.569,3.588c0.004,0.006,0.008,0.012,0.011,0.018C27.573,3.603,27.569,3.597,27.569,3.588z"/>
	<path fill="#0060FF" d="M27.587,3.618c0.003,0.004,0.006,0.008,0.01,0.012C27.59,3.629,27.587,3.625,27.587,3.618z"/>
	<path fill="#0060FF" d="M27.597,3.632c0.007,0.004,0.011,0.01,0.012,0.018C27.601,3.646,27.597,3.64,27.597,3.632z"/>
	<path fill="#0060FF" d="M27.615,3.661c0.003,0.004,0.007,0.009,0.01,0.013C27.618,3.672,27.615,3.668,27.615,3.661z"/>
	<path fill="#0060FF" d="M27.192,3.133c0.008,0.001,0.014,0.005,0.018,0.012C27.201,3.145,27.195,3.141,27.192,3.133z"/>
	<path fill="#0060FF" d="M27.21,3.145c0.004,0.003,0.009,0.007,0.013,0.01C27.216,3.156,27.212,3.152,27.21,3.145z"/>
	<path fill="#0060FF" d="M27.234,3.161c0.009,0.001,0.015,0.005,0.018,0.013C27.244,3.174,27.238,3.17,27.234,3.161z"/>
	<path fill="#0060FF" d="M27.253,3.174c0.005,0.004,0.009,0.007,0.014,0.011C27.259,3.185,27.255,3.181,27.253,3.174z"/>
	<path fill="#00C0FF" d="M26.223,10.7c-0.003,0.007-0.009,0.01-0.016,0.011C26.209,10.703,26.214,10.699,26.223,10.7z"/>
	<path fill="#00C0FF" d="M26.194,10.716c-0.004,0.003-0.009,0.007-0.013,0.01C26.183,10.72,26.187,10.716,26.194,10.716z"/>
	<path fill="#00C0FF" d="M26.18,10.727c-0.004,0.007-0.01,0.012-0.019,0.012C26.165,10.73,26.171,10.726,26.18,10.727z"/>
	<path fill="#00C0FF" d="M26.151,10.743c-0.003,0.007-0.008,0.01-0.016,0.01C26.138,10.747,26.143,10.742,26.151,10.743z"/>
	<path fill="#00C0FF" d="M26.122,10.76c-0.004,0.003-0.008,0.006-0.012,0.01C26.112,10.763,26.115,10.759,26.122,10.76z"/>
	<path fill="#00C0FF" d="M26.109,10.77c-0.004,0.007-0.01,0.011-0.018,0.012C26.094,10.773,26.1,10.77,26.109,10.77z"/>
	<path fill="#00C0FF" d="M26.079,10.787c-0.005,0.003-0.01,0.007-0.015,0.01C26.067,10.79,26.071,10.786,26.079,10.787z"/>
	<path fill="#00C0FF" d="M26.065,10.797c-0.004,0.008-0.011,0.013-0.02,0.013C26.049,10.8,26.056,10.797,26.065,10.797z"/>
	<path fill="#00C0FF" d="M26.008,10.83c-0.005,0.003-0.01,0.007-0.014,0.01C25.996,10.833,26,10.829,26.008,10.83z"/>
	<path fill="#00C0FF" d="M25.994,10.84c-0.004,0.008-0.011,0.012-0.02,0.012C25.978,10.844,25.985,10.84,25.994,10.84z"/>
	<path fill="#00C0FF" d="M25.965,10.857c-0.003,0.007-0.009,0.011-0.017,0.011C25.951,10.86,25.957,10.856,25.965,10.857z"/>
	<path fill="#00C0FF" d="M25.936,10.873c-0.005,0.003-0.009,0.007-0.014,0.01C25.925,10.877,25.929,10.873,25.936,10.873z"/>
	<path fill="#00C0FF" d="M25.922,10.884c-0.004,0.008-0.011,0.012-0.019,0.012C25.907,10.887,25.913,10.883,25.922,10.884z"/>
	<path fill="#00C0FF" d="M25.893,10.9c-0.003,0.007-0.009,0.01-0.016,0.011C25.88,10.903,25.885,10.899,25.893,10.9z"/>
	<path fill="#00C0FF" d="M25.865,10.917c-0.004,0.003-0.009,0.007-0.013,0.01C25.854,10.92,25.857,10.916,25.865,10.917z"/>
	<path fill="#00C0FF" d="M25.851,10.927c-0.004,0.007-0.01,0.012-0.019,0.012C25.836,10.93,25.842,10.927,25.851,10.927z"/>
	<path fill="#00C0FF" d="M25.822,10.944c-0.003,0.007-0.008,0.01-0.016,0.01C25.809,10.947,25.814,10.942,25.822,10.944z"/>
	<path fill="#00C0FF" d="M25.793,10.96c-0.004,0.003-0.008,0.006-0.012,0.01C25.783,10.964,25.786,10.96,25.793,10.96z"/>
	<path fill="#00C0FF" d="M25.78,10.97c-0.004,0.007-0.01,0.011-0.018,0.011C25.765,10.974,25.771,10.97,25.78,10.97z"/>
	<path fill="#00C0FF" d="M25.75,10.987c-0.005,0.003-0.01,0.007-0.015,0.01C25.738,10.99,25.742,10.986,25.75,10.987z"/>
	<path fill="#00C0FF" d="M25.736,10.997c-0.004,0.008-0.011,0.013-0.02,0.013C25.72,11.001,25.727,10.997,25.736,10.997z"/>
	<path fill="#00C0FF" d="M25.707,11.014c-0.004,0.007-0.01,0.011-0.019,0.01C25.692,11.016,25.699,11.013,25.707,11.014z"/>
	<path fill="#00C0FF" d="M25.679,11.029c-0.003,0.007-0.009,0.01-0.016,0.011C25.665,11.032,25.671,11.028,25.679,11.029z"/>
	<path fill="#00C0FF" d="M25.65,11.045c-0.004,0.003-0.009,0.007-0.013,0.01C25.639,11.049,25.643,11.044,25.65,11.045z"/>
	<path fill="#00C0FF" d="M25.636,11.055c-0.004,0.008-0.01,0.012-0.019,0.012C25.621,11.059,25.627,11.055,25.636,11.055z"/>
	<path fill="#00C0FF" d="M25.607,11.072c-0.003,0.007-0.008,0.01-0.016,0.011C25.594,11.075,25.599,11.071,25.607,11.072z"/>
	<path fill="#00C0FF" d="M25.579,11.089c-0.004,0.003-0.008,0.006-0.013,0.01C25.568,11.092,25.571,11.088,25.579,11.089z"/>
	<path fill="#00C0FF" d="M25.565,11.099c-0.004,0.007-0.01,0.011-0.019,0.012C25.55,11.102,25.556,11.098,25.565,11.099z"/>
	<path fill="#00C0FF" d="M25.536,11.115c-0.005,0.003-0.01,0.007-0.015,0.01C25.523,11.119,25.528,11.114,25.536,11.115z"/>
	<path fill="#00C0FF" d="M25.507,11.132c-0.004,0.003-0.008,0.006-0.012,0.009C25.497,11.135,25.5,11.132,25.507,11.132z"/>
	<path fill="#00C0FF" d="M25.494,11.142c-0.004,0.007-0.01,0.011-0.018,0.011C25.479,11.145,25.485,11.142,25.494,11.142z"/>
	<path fill="#00C0FF" d="M25.464,11.159c-0.005,0.003-0.01,0.007-0.014,0.01C25.452,11.162,25.456,11.158,25.464,11.159z"/>
	<path fill="#00C0FF" d="M25.45,11.169c-0.004,0.008-0.011,0.012-0.02,0.012C25.434,11.172,25.441,11.169,25.45,11.169z"/>
	<path fill="#00C0FF" d="M25.421,11.186c-0.003,0.007-0.009,0.011-0.017,0.011C25.407,11.189,25.413,11.185,25.421,11.186z"/>
	<path fill="#00C0FF" d="M25.393,11.202c-0.005,0.003-0.009,0.007-0.014,0.01C25.381,11.205,25.385,11.201,25.393,11.202z"/>
	<path fill="#00C0FF" d="M25.379,11.212c-0.004,0.008-0.011,0.012-0.02,0.012C25.363,11.216,25.37,11.212,25.379,11.212z"/>
	<path fill="#00C0FF" d="M25.35,11.229c-0.003,0.007-0.009,0.011-0.016,0.011C25.336,11.232,25.342,11.228,25.35,11.229z"/>
	<path fill="#00C0FF" d="M25.321,11.245c-0.004,0.003-0.009,0.007-0.013,0.01C25.31,11.249,25.314,11.245,25.321,11.245z"/>
	<path fill="#00C0FF" d="M25.307,11.256c-0.004,0.008-0.01,0.012-0.019,0.012C25.292,11.259,25.298,11.255,25.307,11.256z"/>
	<path fill="#00C0FF" d="M25.278,11.272c-0.003,0.007-0.008,0.01-0.016,0.01C25.265,11.275,25.27,11.271,25.278,11.272z"/>
	<path fill="#00C0FF" d="M26.037,10.814c-0.004,0.007-0.009,0.011-0.017,0.011C26.022,10.817,26.028,10.813,26.037,10.814z"/>
	<path fill="#00C8FF" d="M3.617,8.28c0.011,0.019,0.022,0.037,0.032,0.056c0.1,0.195,0.2,0.39,0.3,0.585
		c0.118,0.229,0.237,0.457,0.355,0.685c0.013,0.026,0.03,0.046,0.056,0.062c0.353,0.213,0.705,0.427,1.057,0.641
		c0.232,0.141,0.465,0.281,0.697,0.421c0.24,0.146,0.481,0.291,0.721,0.437c0.242,0.147,0.485,0.294,0.727,0.44
		c0.244,0.148,0.489,0.296,0.733,0.444c0.049,0.03,0.098,0.058,0.147,0.088c0.012,0.007,0.025,0.012,0.032,0.026
		c-0.003,0.014-0.015,0.008-0.023,0.009c-0.009,0.001-0.019,0-0.029,0c-0.31-0.002-0.62-0.004-0.93-0.007
		c-0.479-0.005-0.958-0.01-1.438-0.015c-0.479-0.005-0.958-0.01-1.438-0.016c-0.432-0.005-0.863-0.009-1.295-0.013
		c-0.479-0.005-0.958-0.01-1.438-0.016c-0.267-0.003-0.534-0.006-0.801-0.009c-0.024,0-0.047-0.003-0.071-0.004
		c-0.01-0.023-0.005-0.047-0.005-0.071c0-1.222,0-2.444,0-3.666c0-0.095,0.004-0.101,0.101-0.1C1.545,8.262,1.98,8.243,2.416,8.239
		c0.352-0.003,0.705-0.011,1.057-0.011c0.048,0,0.096-0.001,0.135,0.035L3.607,8.263C3.607,8.271,3.614,8.274,3.617,8.28z"/>
	<path fill="#0061FF" d="M1.006,8.09C1.005,8.066,1.003,8.043,1.003,8.019c0-2.331,0-4.662,0.001-6.993
		c0-0.088-0.007-0.08,0.081-0.081c0.164-0.002,0.329-0.003,0.493-0.006C1.867,0.935,2.155,0.93,2.444,0.925
		C2.742,0.92,3.04,0.915,3.338,0.911c0.288-0.005,0.577-0.007,0.865-0.015c0.291-0.008,0.582-0.009,0.872-0.013
		c0.296-0.005,0.591-0.01,0.887-0.014c0.303-0.005,0.605-0.01,0.908-0.015c0.293-0.005,0.586-0.009,0.88-0.014
		C7.895,0.836,8.041,0.833,8.186,0.83c0.023,0,0.046,0,0.068,0c0.007,0.017-0.006,0.02-0.012,0.025
		C8.235,0.861,8.227,0.866,8.219,0.871C7.954,1.05,7.689,1.228,7.425,1.407c-0.16,0.108-0.319,0.217-0.479,0.325
		C6.697,1.899,6.448,2.067,6.199,2.235C5.978,2.384,5.757,2.533,5.535,2.683C5.318,2.829,5.101,2.976,4.883,3.122
		C4.845,3.147,4.815,3.178,4.79,3.217c-0.162,0.25-0.325,0.499-0.489,0.748c-0.006,0.01-0.015,0.018-0.023,0.027
		C4.229,3.957,4.173,3.95,4.115,3.956C3.851,3.982,3.586,3.959,3.322,3.971C2.963,3.986,2.603,3.972,2.244,3.987
		c-0.3,0.013-0.6,0.006-0.9,0.01C1.263,3.999,1.183,4.016,1.102,4.013C1.061,4.012,1.04,4.032,1.039,4.073
		C1.038,4.104,1.038,4.135,1.038,4.166c0,1.265,0,2.529-0.001,3.794C1.037,8.004,1.057,8.057,1.006,8.09z"/>
	<path fill="#0098FF" d="M1.006,8.09c0.003-0.009,0.007-0.018,0.008-0.027c0.001-0.019,0-0.038,0-0.057
		c0.001-1.305,0.001-2.61,0.002-3.915c0-0.114-0.011-0.101,0.105-0.102c0.043,0,0.085,0.003,0.127-0.011
		C1.267,3.972,1.29,3.975,1.312,3.975c0.25,0,0.5,0,0.75,0c0.038,0,0.076,0.002,0.113-0.011c0.019-0.007,0.042-0.003,0.064-0.003
		c0.255,0,0.51,0,0.765,0c0.033,0,0.066,0,0.099-0.01c0.022-0.007,0.047-0.004,0.071-0.004c0.26,0,0.519,0,0.779,0
		c0.031,0,0.061-0.003,0.092-0.009C4.105,3.925,4.167,3.93,4.229,3.934c0.032,0.002,0.052,0.022,0.049,0.058
		c0,0.005-0.002,0.009-0.006,0.012c-0.002,0.005-0.005,0.01-0.01,0.013l0,0.001C4.257,4.023,4.252,4.029,4.25,4.036
		c0,0.005-0.002,0.009-0.006,0.011c-0.002,0.005-0.006,0.01-0.01,0.013l0,0c-0.005,0.005-0.01,0.011-0.012,0.019
		c0,0.005-0.001,0.008-0.006,0.011C4.213,4.095,4.21,4.1,4.206,4.104l0,0C4.2,4.109,4.194,4.115,4.193,4.123
		c0,0.004-0.001,0.008-0.005,0.01c-0.003,0.005-0.006,0.01-0.011,0.015c-0.049,0.09-0.109,0.173-0.164,0.259
		c-0.071,0.11-0.145,0.218-0.216,0.328C3.631,4.99,3.465,5.247,3.299,5.502c-0.19,0.291-0.38,0.582-0.571,0.874
		c-0.01,0.016-0.02,0.032-0.031,0.048C2.684,6.441,2.683,6.458,2.693,6.477C2.7,6.489,2.707,6.502,2.714,6.515
		c0.173,0.337,0.345,0.674,0.518,1.011c0.116,0.227,0.234,0.453,0.351,0.679c0.01,0.019,0.023,0.036,0.025,0.059
		C3.557,8.25,3.505,8.251,3.452,8.251c-0.245,0-0.491,0-0.736,0c-0.038,0-0.075-0.002-0.113,0.011
		C2.581,8.269,2.556,8.266,2.532,8.266c-0.257,0-0.515,0-0.772,0c-0.033,0-0.066-0.001-0.099,0.01
		C1.642,8.283,1.619,8.28,1.597,8.28c-0.167,0-0.334,0-0.5,0c-0.019,0-0.038,0-0.057,0.002C1.026,8.283,1.018,8.293,1.018,8.306
		C1.016,8.33,1.016,8.354,1.016,8.377c0,1.213-0.001,2.425-0.001,3.638c0,0.026-0.001,0.052-0.001,0.079
		c-0.004-0.006-0.01-0.011-0.01-0.017c-0.001-0.021-0.001-0.043-0.001-0.064c0-1.279,0-2.558,0.001-3.837
		C1.003,8.147,1.005,8.119,1.006,8.09z"/>
	<path fill="#0061FF" d="M4.262,4.017c0.003-0.004,0.007-0.008,0.01-0.013C4.273,4.011,4.269,4.015,4.262,4.017z"/>
	<path fill="#0061FF" d="M4.25,4.036c0-0.008,0.005-0.014,0.012-0.018C4.262,4.026,4.258,4.032,4.25,4.036z"/>
	<path fill="#0061FF" d="M4.234,4.06c0.003-0.004,0.007-0.009,0.01-0.013C4.245,4.054,4.241,4.058,4.234,4.06z"/>
	<path fill="#0061FF" d="M4.222,4.079c0-0.009,0.005-0.015,0.012-0.019C4.234,4.069,4.23,4.076,4.222,4.079z"/>
	<path fill="#0061FF" d="M4.206,4.104c0.003-0.005,0.007-0.009,0.01-0.014C4.217,4.097,4.213,4.102,4.206,4.104z"/>
	<path fill="#0061FF" d="M4.193,4.123c0-0.009,0.004-0.015,0.012-0.019C4.205,4.113,4.201,4.119,4.193,4.123z"/>
	<path fill="#0061FF" d="M4.177,4.147c0.004-0.005,0.007-0.01,0.011-0.015C4.188,4.141,4.185,4.145,4.177,4.147z"/>
	<path fill="#0098FF" d="M3.617,8.28C3.61,8.276,3.606,8.271,3.607,8.263C3.615,8.266,3.618,8.272,3.617,8.28z"/>
	<path fill="#666666" d="M10.129,11.312c-0.024,0.003-0.04-0.013-0.057-0.025c-0.216-0.14-0.432-0.28-0.648-0.419
		C9.009,10.6,8.594,10.333,8.18,10.066C7.756,9.792,7.333,9.517,6.909,9.242C6.675,9.091,6.441,8.939,6.207,8.788
		c-0.186-0.12-0.372-0.241-0.559-0.36C5.607,8.402,5.575,8.37,5.548,8.329C5.283,7.93,5.018,7.532,4.753,7.133
		C4.678,7.02,4.601,6.908,4.526,6.795C4.515,6.78,4.505,6.764,4.497,6.746c-0.004-0.009,0-0.019,0.012-0.02
		c0.017-0.002,0.033-0.002,0.05-0.002c0.593,0,1.187-0.004,1.78,0.003C6.661,6.73,6.982,6.728,7.304,6.732
		c0.01,0,0.019,0.001,0.029,0c0.024-0.001,0.041,0.01,0.053,0.03c0.026,0.043,0.053,0.085,0.078,0.128
		c0.274,0.455,0.545,0.912,0.823,1.364c0.252,0.41,0.494,0.825,0.746,1.235c0.239,0.39,0.47,0.785,0.709,1.174
		c0.125,0.203,0.247,0.407,0.37,0.611c0.007,0.012,0.017,0.023,0.016,0.039L10.129,11.312z"/>
	<path fill="#008AFF" d="M8.926,3.716C8.917,3.733,8.909,3.75,8.899,3.766C8.726,4.04,8.553,4.314,8.38,4.587
		c-0.248,0.39-0.495,0.78-0.744,1.17C7.534,5.918,7.43,6.077,7.329,6.239C7.31,6.269,7.289,6.281,7.254,6.28
		C7.185,6.277,7.116,6.279,7.047,6.279c-0.805,0-1.611-0.001-2.416-0.001c-0.025,0-0.051-0.001-0.075-0.002
		C4.55,6.255,4.564,6.246,4.571,6.235C4.63,6.157,4.69,6.08,4.748,6.002c0.083-0.11,0.165-0.221,0.248-0.332
		c0.132-0.178,0.264-0.356,0.397-0.533C5.564,4.908,5.737,4.68,5.907,4.451C5.929,4.421,5.955,4.399,5.986,4.38
		C6.274,4.198,6.562,4.016,6.85,3.835c0.077-0.048,0.153-0.096,0.23-0.143c0.012-0.007,0.025-0.013,0.038-0.019
		C7.189,3.649,7.262,3.64,7.336,3.638c0.043-0.001,0.086-0.001,0.129,0c0.433,0.01,0.866-0.022,1.3-0.014
		c0.026,0,0.052-0.001,0.079,0.001C8.916,3.629,8.927,3.641,8.926,3.716z"/>
	<path fill="#006AFF" d="M8.926,3.716C8.911,3.698,8.92,3.666,8.899,3.653C8.877,3.638,8.848,3.646,8.822,3.646
		c-0.186-0.001-0.372,0-0.557,0c-0.031,0-0.061,0-0.092,0.009C8.151,3.662,8.126,3.66,8.103,3.66c-0.252,0-0.505,0-0.757,0
		c-0.035,0-0.07,0.002-0.106,0.01c-0.039,0.008-0.08,0.002-0.121,0.002c0.01-0.015,0.025-0.021,0.039-0.03
		C7.539,3.403,7.919,3.162,8.3,2.922C8.526,2.78,8.752,2.638,8.977,2.496c0.254-0.16,0.508-0.32,0.762-0.48
		c0.131-0.082,0.262-0.164,0.394-0.247c0.012-0.007,0.024-0.015,0.035-0.022c0.014,0.01,0.004,0.019,0,0.025
		c-0.134,0.211-0.269,0.422-0.403,0.633c-0.129,0.203-0.257,0.407-0.386,0.61C9.282,3.168,9.186,3.321,9.088,3.473
		C9.035,3.555,8.98,3.635,8.926,3.716z"/>
	<path fill="#666666" d="M10.128,11.313c0.002,0.001,0.006,0.003,0.006,0.003c-0.002,0.005-0.004,0.003-0.005-0.004
		C10.129,11.312,10.128,11.313,10.128,11.313z"/>
	<path fill="#666666" d="M22.032,2.004c0.04,0.006,0.061,0.026,0.084,0.041c0.208,0.135,0.416,0.27,0.624,0.405
		c0.248,0.161,0.496,0.321,0.744,0.481c0.24,0.155,0.48,0.31,0.72,0.466c0.244,0.158,0.488,0.316,0.732,0.473
		c0.23,0.149,0.46,0.297,0.69,0.446c0.248,0.16,0.496,0.321,0.744,0.481c0.056,0.036,0.112,0.073,0.169,0.107
		c0.03,0.018,0.051,0.041,0.07,0.069c0.159,0.241,0.318,0.481,0.477,0.721c0.181,0.272,0.362,0.543,0.543,0.815
		c0.015,0.023,0.035,0.044,0.042,0.071c-0.009,0.017-0.022,0.012-0.033,0.012c-0.105,0-0.21,0-0.315,0c-0.813,0-1.626,0-2.439-0.001
		c-0.097,0-0.075,0.018-0.132-0.076c-0.161-0.267-0.319-0.537-0.482-0.802c-0.24-0.389-0.47-0.785-0.709-1.174
		c-0.197-0.32-0.389-0.644-0.584-0.966c-0.249-0.412-0.497-0.824-0.746-1.236c-0.055-0.092-0.113-0.182-0.169-0.273
		C22.054,2.047,22.046,2.029,22.032,2.004z"/>
	<path fill="#00B2FF" d="M23.306,9.496c0.006-0.024,0.022-0.042,0.034-0.062c0.285-0.448,0.569-0.896,0.854-1.345
		c0.212-0.333,0.425-0.667,0.637-1c0.041-0.064,0.027-0.053,0.096-0.053c0.81,0,1.62,0,2.43,0c0.081,0,0.162,0.001,0.243,0.002
		c0.01,0,0.016,0.012,0.01,0.02c-0.011,0.016-0.022,0.031-0.034,0.046c-0.134,0.18-0.267,0.359-0.401,0.539
		c-0.238,0.319-0.476,0.637-0.715,0.955c-0.066,0.088-0.133,0.174-0.198,0.262c-0.023,0.031-0.05,0.056-0.083,0.077
		c-0.222,0.139-0.443,0.279-0.665,0.418c-0.048,0.03-0.096,0.062-0.145,0.092c-0.014,0.009-0.029,0.015-0.044,0.023
		c-0.041-0.022-0.086-0.024-0.132-0.024c-0.219,0-0.438-0.01-0.656,0.002c-0.316,0.018-0.632,0.005-0.948,0.013
		c-0.078,0.002-0.157,0.004-0.231,0.037C23.341,9.507,23.323,9.51,23.306,9.496z"/>
	<path fill="#00D1FF" d="M23.306,9.496c0.023,0.002,0.042-0.006,0.057-0.023c0.016-0.017,0.036-0.021,0.058-0.021
		c0.033,0,0.066,0.001,0.098-0.011c0.019-0.007,0.042-0.003,0.064-0.003c0.257,0,0.514,0,0.77,0c0.031,0,0.061,0.001,0.092-0.01
		c0.017-0.006,0.038-0.004,0.056-0.004c0.247,0,0.495,0,0.742,0c0.007,0,0.014,0.001,0.021,0c0.034-0.003,0.054,0.013,0.061,0.046
		c0,0,0,0,0,0c-0.009-0.001-0.013,0.006-0.018,0.012l0,0c-0.005,0.004-0.009,0.008-0.015,0.01c-0.002,0.004-0.006,0.006-0.01,0.005
		c-0.008,0.002-0.013,0.007-0.019,0.012l0,0c-0.003,0.005-0.008,0.008-0.013,0.01c-0.003,0.004-0.007,0.006-0.012,0.006
		c-0.007,0.002-0.012,0.008-0.018,0.012l-0.002,0.001c-0.002,0.005-0.006,0.008-0.012,0.009c-0.004,0.002-0.009,0.004-0.013,0.006
		c-0.005,0.004-0.011,0.007-0.016,0.011c-0.002,0.004-0.005,0.006-0.009,0.005c-0.009,0.001-0.014,0.006-0.019,0.012l0,0
		c-0.004,0.004-0.009,0.008-0.014,0.01c-0.002,0.004-0.006,0.006-0.011,0.005c-0.007,0.002-0.013,0.007-0.018,0.012l-0.001,0
		c-0.003,0.005-0.007,0.008-0.013,0.01c-0.003,0.005-0.007,0.007-0.012,0.006c-0.006,0.003-0.011,0.007-0.017,0.011
		c-0.001,0.004-0.004,0.005-0.008,0.005c-0.009,0-0.015,0.006-0.02,0.013l0.001,0c-0.005,0.004-0.01,0.007-0.015,0.01
		c-0.002,0.004-0.005,0.006-0.01,0.005c-0.008,0.001-0.014,0.007-0.019,0.012l0,0c-0.004,0.004-0.008,0.008-0.014,0.01
		c-0.003,0.004-0.007,0.006-0.013,0.005c-0.005,0.004-0.011,0.007-0.016,0.01c-0.002,0.004-0.005,0.006-0.01,0.005
		c-0.008,0.001-0.014,0.007-0.019,0.012l0,0c-0.004,0.004-0.008,0.008-0.014,0.01c-0.003,0.004-0.006,0.006-0.011,0.006
		c-0.007,0.002-0.012,0.007-0.018,0.012l-0.001,0.001c-0.003,0.005-0.007,0.008-0.012,0.01c-0.004,0.002-0.008,0.004-0.012,0.006
		c-0.006,0.003-0.011,0.007-0.016,0.011c-0.002,0.004-0.005,0.006-0.009,0.005c-0.009,0.001-0.015,0.006-0.02,0.013l0,0
		c-0.005,0.004-0.009,0.007-0.015,0.01c-0.002,0.004-0.006,0.006-0.01,0.005c-0.008,0.002-0.013,0.007-0.019,0.012l0,0
		c-0.003,0.005-0.008,0.008-0.013,0.01c-0.003,0.004-0.007,0.006-0.012,0.006c-0.007,0.002-0.012,0.008-0.018,0.011l-0.002,0.001
		c-0.002,0.005-0.006,0.008-0.012,0.009c-0.004,0.002-0.009,0.004-0.013,0.006c-0.005,0.004-0.011,0.007-0.016,0.011
		c-0.002,0.004-0.005,0.006-0.009,0.005c-0.009,0.001-0.014,0.006-0.019,0.012l0,0c-0.004,0.004-0.009,0.008-0.014,0.01
		c-0.002,0.004-0.006,0.006-0.011,0.005c-0.007,0.002-0.013,0.007-0.018,0.012l-0.001,0c-0.003,0.005-0.007,0.008-0.013,0.01
		C24.59,9.939,24.585,9.941,24.58,9.94c-0.006,0.003-0.011,0.007-0.017,0.011c-0.007,0.009-0.015,0.016-0.028,0.017
		c-0.005,0.004-0.01,0.007-0.015,0.011c-0.002,0.004-0.005,0.006-0.01,0.005c-0.008,0.001-0.014,0.006-0.019,0.012l0,0
		c-0.004,0.004-0.008,0.008-0.014,0.01c-0.003,0.004-0.006,0.006-0.011,0.006c-0.007,0.002-0.012,0.007-0.018,0.012l-0.001,0.001
		c-0.003,0.005-0.007,0.008-0.012,0.01c-0.004,0.002-0.008,0.004-0.013,0.006c-0.006,0.003-0.011,0.007-0.016,0.011
		c-0.002,0.004-0.005,0.006-0.009,0.005c-0.009,0-0.015,0.006-0.02,0.013l0,0c-0.004,0.004-0.009,0.007-0.015,0.01
		c-0.002,0.004-0.006,0.006-0.011,0.005c-0.008,0.002-0.013,0.007-0.019,0.012l-0.001,0c-0.003,0.004-0.008,0.008-0.013,0.01
		c-0.003,0.004-0.007,0.006-0.012,0.006c-0.007,0.002-0.012,0.008-0.018,0.011l-0.002,0.001c-0.002,0.005-0.006,0.008-0.011,0.009
		c-0.004,0.002-0.009,0.004-0.013,0.006c-0.005,0.004-0.01,0.007-0.016,0.01c-0.003,0.004-0.007,0.005-0.012,0.005
		c-0.007,0.002-0.012,0.007-0.018,0.011l-0.002,0.001c-0.002,0.005-0.006,0.008-0.012,0.009c-0.004,0.002-0.009,0.004-0.013,0.006
		c-0.005,0.003-0.011,0.007-0.016,0.011c-0.002,0.004-0.005,0.006-0.009,0.005c-0.009,0.001-0.014,0.006-0.019,0.012l0,0
		c-0.004,0.004-0.009,0.007-0.014,0.01c-0.002,0.004-0.006,0.006-0.011,0.005c-0.007,0.002-0.013,0.007-0.018,0.012l-0.001,0
		c-0.003,0.005-0.007,0.008-0.013,0.01c-0.003,0.005-0.007,0.007-0.012,0.006c-0.006,0.003-0.011,0.007-0.017,0.011
		c-0.007,0.009-0.015,0.016-0.028,0.017c-0.005,0.004-0.01,0.007-0.015,0.01c-0.002,0.004-0.005,0.006-0.01,0.005
		c-0.008,0.001-0.014,0.006-0.019,0.012l0,0c-0.004,0.004-0.008,0.008-0.014,0.01c-0.003,0.004-0.006,0.006-0.011,0.006
		c-0.007,0.002-0.012,0.007-0.018,0.012l-0.001,0.001c-0.003,0.005-0.007,0.008-0.012,0.01c-0.004,0.002-0.008,0.004-0.013,0.006
		c-0.006,0.003-0.011,0.007-0.016,0.011c-0.002,0.004-0.005,0.006-0.009,0.005c-0.009,0-0.015,0.006-0.02,0.013l0,0
		c-0.005,0.004-0.009,0.007-0.014,0.01c-0.002,0.004-0.006,0.006-0.011,0.005c-0.008,0.001-0.013,0.007-0.018,0.012l-0.001,0
		c-0.003,0.004-0.008,0.008-0.013,0.01c-0.003,0.004-0.007,0.006-0.012,0.006c-0.007,0.002-0.012,0.007-0.018,0.011l-0.002,0.001
		c-0.002,0.005-0.006,0.008-0.011,0.009c-0.004,0.002-0.009,0.004-0.013,0.007c-0.005,0.003-0.01,0.007-0.016,0.011
		c-0.002,0.004-0.005,0.006-0.01,0.005c-0.009,0.001-0.014,0.006-0.019,0.012l0,0c-0.004,0.004-0.009,0.007-0.014,0.01
		c-0.003,0.004-0.006,0.006-0.011,0.006c-0.007,0.002-0.013,0.007-0.018,0.012l-0.001,0.001c-0.003,0.005-0.007,0.008-0.013,0.01
		c-0.004,0.002-0.008,0.004-0.012,0.006c-0.006,0.003-0.011,0.007-0.016,0.011c-0.007,0.009-0.016,0.016-0.028,0.017
		c-0.005,0.004-0.01,0.007-0.015,0.01c-0.002,0.004-0.006,0.006-0.01,0.005c-0.008,0.001-0.014,0.006-0.019,0.012l0,0
		c-0.004,0.004-0.008,0.008-0.013,0.01c-0.003,0.004-0.007,0.006-0.012,0.006c-0.007,0.002-0.012,0.006-0.017,0.01
		c-0.002,0.004-0.006,0.005-0.01,0.004c-0.008,0.001-0.014,0.006-0.019,0.012l0,0c-0.004,0.004-0.008,0.007-0.014,0.01
		c-0.003,0.004-0.007,0.006-0.012,0.006c-0.007,0.002-0.012,0.007-0.018,0.011l-0.001,0.001c-0.003,0.005-0.007,0.008-0.012,0.01
		c-0.004,0.002-0.009,0.004-0.013,0.006c-0.006,0.003-0.011,0.007-0.016,0.011c-0.043,0.029-0.086,0.059-0.131,0.087
		c-0.384,0.243-0.768,0.485-1.152,0.727c-0.04,0.025-0.082,0.048-0.123,0.072c-0.001,0.001-0.004-0.001-0.006-0.002
		c-0.001-0.002-0.004-0.004-0.003-0.005c0.019-0.033,0.038-0.065,0.059-0.097c0.118-0.184,0.236-0.368,0.354-0.553
		c0.121-0.191,0.241-0.382,0.363-0.573c0.04-0.062,0.082-0.122,0.123-0.183c0.006-0.005,0.011-0.011,0.012-0.019
		c-0.001-0.005,0.001-0.008,0.005-0.01c0.003-0.005,0.007-0.01,0.01-0.015l0,0c0.007-0.005,0.013-0.011,0.013-0.02
		c-0.001-0.004,0.001-0.007,0.005-0.008c0.004-0.005,0.008-0.011,0.011-0.017c-0.001-0.005,0.001-0.009,0.006-0.012
		c0.002-0.005,0.005-0.01,0.01-0.013l0-0.001c0.005-0.005,0.01-0.011,0.012-0.018c-0.001-0.005,0.001-0.009,0.006-0.011
		c0.003-0.005,0.006-0.01,0.01-0.014l0,0c0.006-0.005,0.012-0.011,0.012-0.019c-0.001-0.004,0.001-0.008,0.005-0.009
		c0.004-0.005,0.007-0.01,0.01-0.015l0,0.001c0.01-0.006,0.007-0.02,0.016-0.026l0.001-0.001c0.004-0.006,0.009-0.011,0.012-0.018
		c-0.001-0.005,0.001-0.009,0.006-0.012c0.002-0.005,0.006-0.01,0.01-0.013l0,0c0.005-0.005,0.011-0.011,0.012-0.019
		c-0.001-0.005,0.001-0.008,0.005-0.01c0.003-0.005,0.007-0.01,0.01-0.015l0,0c0.007-0.005,0.012-0.011,0.013-0.02
		c-0.001-0.004,0.001-0.007,0.005-0.009c0.004-0.005,0.007-0.011,0.011-0.016c0.002-0.004,0.004-0.008,0.006-0.012
		c0.002-0.005,0.005-0.01,0.01-0.013l0.001-0.001c0.005-0.006,0.01-0.011,0.012-0.018c-0.001-0.005,0.001-0.009,0.006-0.011
		c0.003-0.005,0.006-0.01,0.01-0.014l0,0c0.006-0.005,0.011-0.011,0.012-0.019c-0.001-0.005,0.001-0.008,0.005-0.01
		c0.003-0.005,0.007-0.01,0.011-0.015l0,0.001c0.01-0.006,0.007-0.02,0.016-0.026l0.001-0.001c0.004-0.006,0.009-0.011,0.011-0.018
		c-0.001-0.005,0.001-0.009,0.006-0.012c0.002-0.005,0.005-0.01,0.01-0.013l0-0.001c0.005-0.006,0.01-0.011,0.012-0.019
		c-0.001-0.005,0.001-0.008,0.005-0.01c0.003-0.005,0.006-0.01,0.01-0.014l0,0c0.006-0.005,0.012-0.011,0.013-0.02
		c-0.001-0.004,0.001-0.007,0.005-0.009c0.004-0.005,0.007-0.01,0.011-0.016l-0.001,0.001c0.011-0.006,0.007-0.02,0.017-0.026
		L23.306,9.496z"/>
	<path fill="#00B2FF" d="M23.305,9.497c0,0.012-0.004,0.022-0.017,0.026C23.289,9.512,23.295,9.503,23.305,9.497z"/>
	<path fill="#00B2FF" d="M23.205,9.655c-0.001,0.012-0.004,0.022-0.016,0.026C23.189,9.669,23.195,9.661,23.205,9.655z"/>
	<path fill="#00B2FF" d="M23.033,9.927c0,0.012-0.004,0.022-0.016,0.026C23.017,9.941,23.023,9.932,23.033,9.927z"/>
	<path fill="#00B2FF" d="M25.307,9.482c0.003-0.008,0.009-0.012,0.018-0.012C25.323,9.479,25.316,9.482,25.307,9.482z"/>
	<path fill="#00B2FF" d="M25.293,9.492c0.005-0.003,0.01-0.007,0.015-0.01C25.305,9.489,25.301,9.493,25.293,9.492z"/>
	<path fill="#00B2FF" d="M25.264,9.51c0.004-0.007,0.01-0.012,0.019-0.012C25.279,9.506,25.273,9.51,25.264,9.51z"/>
	<path fill="#00B2FF" d="M25.25,9.52c0.004-0.003,0.009-0.007,0.013-0.01C25.262,9.516,25.258,9.521,25.25,9.52z"/>
	<path fill="#00B2FF" d="M23.289,9.523c0,0.007-0.004,0.013-0.011,0.016C23.278,9.53,23.281,9.525,23.289,9.523z"/>
	<path fill="#00B2FF" d="M25.221,9.537c0.006-0.004,0.012-0.008,0.018-0.012C25.235,9.534,25.229,9.537,25.221,9.537z"/>
	<path fill="#00B2FF" d="M25.208,9.547c0.004-0.003,0.008-0.006,0.012-0.009C25.218,9.544,25.214,9.548,25.208,9.547z"/>
	<path fill="#00B2FF" d="M23.273,9.547c0,0.009-0.004,0.016-0.013,0.02C23.261,9.558,23.265,9.551,23.273,9.547z"/>
	<path fill="#00B2FF" d="M25.179,9.564c0.005-0.004,0.011-0.007,0.016-0.011C25.192,9.561,25.187,9.565,25.179,9.564z"/>
	<path fill="#00B2FF" d="M23.261,9.567c-0.003,0.005-0.007,0.01-0.01,0.014C23.25,9.574,23.254,9.569,23.261,9.567z"/>
	<path fill="#00B2FF" d="M25.15,9.582c0.004-0.008,0.01-0.012,0.019-0.012C25.166,9.578,25.159,9.582,25.15,9.582z"/>
	<path fill="#00B2FF" d="M25.136,9.592c0.005-0.003,0.009-0.007,0.014-0.01C25.148,9.589,25.144,9.593,25.136,9.592z"/>
	<path fill="#00B2FF" d="M23.245,9.592c0,0.009-0.004,0.015-0.012,0.019C23.233,9.602,23.237,9.595,23.245,9.592z"/>
	<path fill="#00B2FF" d="M25.107,9.609c0.004-0.007,0.01-0.011,0.018-0.012C25.122,9.606,25.115,9.61,25.107,9.609z"/>
	<path fill="#00B2FF" d="M23.233,9.611c-0.003,0.004-0.007,0.009-0.01,0.013C23.223,9.617,23.226,9.613,23.233,9.611z"/>
	<path fill="#00B2FF" d="M25.093,9.62c0.004-0.003,0.008-0.007,0.013-0.01C25.104,9.616,25.1,9.62,25.093,9.62z"/>
	<path fill="#00B2FF" d="M25.064,9.637c0.003-0.007,0.009-0.011,0.017-0.011C25.078,9.633,25.072,9.637,25.064,9.637z"/>
	<path fill="#00B2FF" d="M23.217,9.636c-0.004,0.006-0.008,0.012-0.011,0.018C23.206,9.645,23.209,9.639,23.217,9.636z"/>
	<path fill="#00B2FF" d="M25.036,9.654c0.004-0.008,0.011-0.013,0.02-0.013C25.052,9.65,25.045,9.654,25.036,9.654z"/>
	<path fill="#00B2FF" d="M25.021,9.664c0.005-0.003,0.01-0.007,0.015-0.01C25.034,9.661,25.029,9.665,25.021,9.664z"/>
	<path fill="#00B2FF" d="M24.992,9.682c0.004-0.008,0.01-0.012,0.019-0.012C25.008,9.678,25.001,9.682,24.992,9.682z"/>
	<path fill="#00B2FF" d="M23.189,9.681c-0.004,0.005-0.007,0.01-0.011,0.015C23.178,9.688,23.182,9.683,23.189,9.681z"/>
	<path fill="#00B2FF" d="M24.979,9.692c0.005-0.003,0.009-0.007,0.014-0.01C24.99,9.688,24.986,9.693,24.979,9.692z"/>
	<path fill="#00B2FF" d="M24.95,9.707c0.003-0.007,0.009-0.01,0.016-0.01C24.963,9.704,24.958,9.708,24.95,9.707z"/>
	<path fill="#00B2FF" d="M23.173,9.705c0,0.009-0.004,0.015-0.012,0.019C23.161,9.716,23.165,9.709,23.173,9.705z"/>
	<path fill="#00B2FF" d="M24.921,9.725c0.004-0.008,0.01-0.012,0.019-0.012C24.936,9.721,24.93,9.725,24.921,9.725z"/>
	<path fill="#00B2FF" d="M23.161,9.725c-0.003,0.005-0.007,0.009-0.01,0.014C23.15,9.731,23.154,9.727,23.161,9.725z"/>
	<path fill="#00B2FF" d="M24.907,9.735c0.005-0.003,0.009-0.007,0.014-0.01C24.919,9.731,24.915,9.736,24.907,9.735z"/>
	<path fill="#00B2FF" d="M24.878,9.752c0.004-0.007,0.01-0.011,0.018-0.012C24.892,9.749,24.886,9.752,24.878,9.752z"/>
	<path fill="#00B2FF" d="M23.145,9.75c0,0.008-0.005,0.014-0.012,0.018C23.133,9.759,23.137,9.753,23.145,9.75z"/>
	<path fill="#00B2FF" d="M24.864,9.762c0.004-0.003,0.008-0.006,0.012-0.01C24.875,9.759,24.871,9.763,24.864,9.762z"/>
	<path fill="#00B2FF" d="M23.133,9.769c-0.003,0.004-0.006,0.008-0.01,0.013C23.123,9.774,23.127,9.771,23.133,9.769z"/>
	<path fill="#00B2FF" d="M24.835,9.779c0.003-0.007,0.009-0.011,0.016-0.011C24.849,9.776,24.844,9.78,24.835,9.779z"/>
	<path fill="#00B2FF" d="M24.807,9.797c0.004-0.008,0.011-0.012,0.02-0.013C24.823,9.793,24.816,9.797,24.807,9.797z"/>
	<path fill="#00B2FF" d="M23.117,9.794c0,0.008-0.004,0.013-0.011,0.016C23.106,9.802,23.11,9.797,23.117,9.794z"/>
	<path fill="#00B2FF" d="M24.792,9.807c0.005-0.003,0.01-0.007,0.015-0.01C24.805,9.804,24.8,9.808,24.792,9.807z"/>
	<path fill="#00B2FF" d="M24.763,9.824c0.004-0.007,0.01-0.012,0.019-0.012C24.779,9.821,24.772,9.824,24.763,9.824z"/>
	<path fill="#00B2FF" d="M23.102,9.819c0,0.009-0.004,0.016-0.013,0.02C23.089,9.83,23.093,9.823,23.102,9.819z"/>
	<path fill="#00B2FF" d="M24.75,9.835c0.004-0.003,0.009-0.007,0.013-0.01C24.761,9.831,24.757,9.835,24.75,9.835z"/>
	<path fill="#00B2FF" d="M23.089,9.838c-0.003,0.005-0.007,0.01-0.01,0.015C23.078,9.845,23.082,9.841,23.089,9.838z"/>
	<path fill="#00B2FF" d="M24.72,9.852c0.006-0.004,0.012-0.008,0.018-0.011C24.735,9.848,24.729,9.852,24.72,9.852z"/>
	<path fill="#00B2FF" d="M24.707,9.862c0.004-0.003,0.008-0.006,0.012-0.009C24.717,9.859,24.714,9.862,24.707,9.862z"/>
	<path fill="#00B2FF" d="M23.073,9.863c0,0.009-0.004,0.015-0.012,0.019C23.061,9.873,23.065,9.867,23.073,9.863z"/>
	<path fill="#00B2FF" d="M24.678,9.879c0.005-0.004,0.011-0.007,0.016-0.011C24.691,9.876,24.686,9.88,24.678,9.879z"/>
	<path fill="#00B2FF" d="M23.061,9.882c-0.003,0.004-0.007,0.009-0.01,0.013C23.051,9.888,23.054,9.884,23.061,9.882z"/>
	<path fill="#00B2FF" d="M24.649,9.897c0.004-0.008,0.01-0.012,0.019-0.012C24.665,9.893,24.658,9.896,24.649,9.897z"/>
	<path fill="#00B2FF" d="M24.635,9.907c0.005-0.003,0.009-0.007,0.014-0.01C24.647,9.903,24.643,9.908,24.635,9.907z"/>
	<path fill="#00B2FF" d="M23.045,9.907c0,0.008-0.005,0.014-0.012,0.018C23.034,9.917,23.038,9.911,23.045,9.907z"/>
	<path fill="#00B2FF" d="M24.606,9.924c0.004-0.007,0.01-0.011,0.018-0.012C24.621,9.92,24.615,9.924,24.606,9.924z"/>
	<path fill="#00B2FF" d="M24.592,9.934c0.004-0.003,0.009-0.007,0.013-0.01C24.603,9.931,24.6,9.935,24.592,9.934z"/>
	<path fill="#00B2FF" d="M24.564,9.951c0.003-0.007,0.009-0.011,0.017-0.011C24.577,9.948,24.572,9.952,24.564,9.951z"/>
	<path fill="#00B2FF" d="M23.017,9.952c-0.003,0.005-0.007,0.01-0.01,0.015C23.006,9.959,23.01,9.954,23.017,9.952z"/>
	<path fill="#00B2FF" d="M24.521,9.979c0.005-0.004,0.01-0.007,0.015-0.011C24.533,9.976,24.529,9.98,24.521,9.979z"/>
	<path fill="#00B2FF" d="M23.002,9.977c0,0.009-0.004,0.015-0.012,0.019C22.989,9.987,22.993,9.981,23.002,9.977z"/>
	<path fill="#00B2FF" d="M24.492,9.996c0.004-0.008,0.01-0.012,0.019-0.012C24.507,9.992,24.501,9.996,24.492,9.996z"/>
	<path fill="#00B2FF" d="M22.989,9.996c-0.003,0.005-0.007,0.009-0.01,0.014C22.978,10.003,22.982,9.998,22.989,9.996z"/>
	<path fill="#00B2FF" d="M24.478,10.007c0.005-0.003,0.009-0.007,0.014-0.01C24.489,10.003,24.485,10.007,24.478,10.007z"/>
	<path fill="#00B2FF" d="M24.448,10.024c0.004-0.007,0.01-0.011,0.018-0.012C24.463,10.02,24.457,10.024,24.448,10.024z"/>
	<path fill="#00B2FF" d="M22.973,10.021c0,0.008-0.004,0.014-0.012,0.018C22.962,10.031,22.965,10.025,22.973,10.021z"/>
	<path fill="#00B2FF" d="M24.435,10.034c0.004-0.003,0.008-0.006,0.012-0.01C24.445,10.031,24.442,10.035,24.435,10.034z"/>
	<path fill="#00B2FF" d="M22.961,10.04c-0.003,0.004-0.007,0.009-0.01,0.013C22.951,10.046,22.955,10.042,22.961,10.04z"/>
	<path fill="#00B2FF" d="M24.406,10.051c0.003-0.007,0.009-0.01,0.016-0.011C24.42,10.048,24.415,10.052,24.406,10.051z"/>
	<path fill="#00B2FF" d="M24.378,10.069c0.004-0.008,0.011-0.012,0.02-0.013C24.394,10.065,24.387,10.068,24.378,10.069z"/>
	<path fill="#00B2FF" d="M22.945,10.065c0,0.008-0.004,0.013-0.011,0.017C22.934,10.074,22.938,10.068,22.945,10.065z"/>
	<path fill="#00B2FF" d="M24.363,10.079c0.005-0.003,0.01-0.007,0.015-0.01C24.376,10.075,24.371,10.08,24.363,10.079z"/>
	<path fill="#00B2FF" d="M24.334,10.096c0.004-0.007,0.01-0.012,0.019-0.012C24.349,10.092,24.343,10.096,24.334,10.096z"/>
	<path fill="#00B2FF" d="M22.93,10.09c0,0.009-0.004,0.016-0.013,0.02C22.917,10.101,22.921,10.094,22.93,10.09z"/>
	<path fill="#00B2FF" d="M24.321,10.106c0.004-0.003,0.009-0.007,0.013-0.01C24.332,10.103,24.328,10.107,24.321,10.106z"/>
	<path fill="#00B2FF" d="M22.917,10.11c-0.003,0.005-0.007,0.01-0.01,0.015C22.906,10.117,22.91,10.112,22.917,10.11z"/>
	<path fill="#00B2FF" d="M24.291,10.124c0.006-0.004,0.012-0.008,0.018-0.011C24.305,10.12,24.299,10.124,24.291,10.124z"/>
	<path fill="#00B2FF" d="M24.278,10.134c0.004-0.003,0.008-0.006,0.011-0.009C24.288,10.13,24.284,10.134,24.278,10.134z"/>
	<path fill="#00B2FF" d="M22.902,10.135c0,0.009-0.004,0.015-0.012,0.019C22.89,10.145,22.893,10.138,22.902,10.135z"/>
	<path fill="#00B2FF" d="M24.249,10.151c0.005-0.003,0.01-0.007,0.016-0.01C24.262,10.147,24.257,10.152,24.249,10.151z"/>
	<path fill="#00B2FF" d="M24.219,10.167c0.006-0.004,0.012-0.008,0.018-0.011C24.234,10.163,24.228,10.167,24.219,10.167z"/>
	<path fill="#00B2FF" d="M24.206,10.177c0.004-0.003,0.008-0.006,0.012-0.009C24.216,10.173,24.213,10.177,24.206,10.177z"/>
	<path fill="#00B2FF" d="M24.177,10.194c0.005-0.004,0.011-0.007,0.016-0.011C24.19,10.191,24.186,10.195,24.177,10.194z"/>
	<path fill="#00B2FF" d="M24.149,10.211c0.004-0.008,0.01-0.012,0.019-0.012C24.164,10.207,24.158,10.211,24.149,10.211z"/>
	<path fill="#00B2FF" d="M24.135,10.222c0.005-0.003,0.009-0.007,0.014-0.01C24.146,10.218,24.142,10.222,24.135,10.222z"/>
	<path fill="#00B2FF" d="M24.105,10.239c0.004-0.007,0.01-0.011,0.018-0.012C24.12,10.235,24.114,10.239,24.105,10.239z"/>
	<path fill="#00B2FF" d="M24.092,10.249c0.004-0.003,0.008-0.007,0.013-0.01C24.102,10.246,24.099,10.25,24.092,10.249z"/>
	<path fill="#00B2FF" d="M24.063,10.266c0.003-0.007,0.009-0.011,0.017-0.011C24.076,10.263,24.071,10.266,24.063,10.266z"/>
	<path fill="#00B2FF" d="M24.02,10.294c0.005-0.003,0.01-0.007,0.015-0.01C24.033,10.29,24.028,10.295,24.02,10.294z"/>
	<path fill="#00B2FF" d="M23.977,10.321c0.005-0.003,0.009-0.007,0.014-0.01C23.989,10.318,23.985,10.322,23.977,10.321z"/>
	<path fill="#00B2FF" d="M23.948,10.339c0.004-0.007,0.01-0.011,0.018-0.012C23.962,10.335,23.956,10.339,23.948,10.339z"/>
	<path fill="#00B2FF" d="M23.934,10.349c0.004-0.003,0.008-0.006,0.012-0.01C23.945,10.345,23.941,10.349,23.934,10.349z"/>
	<path fill="#00B2FF" d="M23.906,10.366c0.003-0.007,0.009-0.01,0.016-0.011C23.919,10.363,23.914,10.367,23.906,10.366z"/>
	<path fill="#00B2FF" d="M23.877,10.383c0.004-0.008,0.01-0.012,0.02-0.013C23.893,10.379,23.886,10.383,23.877,10.383z"/>
	<path fill="#00B2FF" d="M23.863,10.394c0.005-0.003,0.01-0.007,0.014-0.01C23.875,10.39,23.871,10.394,23.863,10.394z"/>
	<path fill="#00B2FF" d="M23.834,10.411c0.004-0.007,0.01-0.012,0.018-0.012C23.849,10.407,23.842,10.411,23.834,10.411z"/>
	<path fill="#00B2FF" d="M23.82,10.421c0.004-0.003,0.009-0.007,0.013-0.01C23.831,10.418,23.827,10.422,23.82,10.421z"/>
	<path fill="#00B2FF" d="M23.79,10.438c0.006-0.004,0.012-0.008,0.018-0.011C23.805,10.435,23.799,10.438,23.79,10.438z"/>
	<path fill="#00B2FF" d="M23.777,10.449c0.004-0.003,0.008-0.006,0.011-0.009C23.787,10.445,23.784,10.449,23.777,10.449z"/>
	<path fill="#00B2FF" d="M23.748,10.466c0.005-0.004,0.01-0.007,0.016-0.011C23.761,10.462,23.756,10.467,23.748,10.466z"/>
	<path fill="#00B2FF" d="M23.72,10.483c0.004-0.008,0.01-0.012,0.019-0.012C23.735,10.479,23.728,10.483,23.72,10.483z"/>
	<path fill="#00B2FF" d="M23.705,10.493c0.005-0.003,0.009-0.007,0.014-0.01C23.717,10.49,23.713,10.494,23.705,10.493z"/>
	<path fill="#00B2FF" d="M23.676,10.511c0.004-0.007,0.01-0.011,0.018-0.012C23.691,10.507,23.685,10.511,23.676,10.511z"/>
	<path fill="#00B2FF" d="M23.663,10.521c0.004-0.003,0.008-0.007,0.013-0.01C23.673,10.517,23.67,10.521,23.663,10.521z"/>
	<path fill="#00B2FF" d="M23.634,10.538c0.003-0.007,0.009-0.011,0.016-0.011C23.647,10.534,23.642,10.538,23.634,10.538z"/>
	<path fill="#00B2FF" d="M23.591,10.565c0.005-0.003,0.01-0.007,0.015-0.01C23.603,10.562,23.599,10.566,23.591,10.565z"/>
	<path fill="#00B2FF" d="M23.562,10.583c0.004-0.008,0.01-0.012,0.019-0.012C23.577,10.579,23.571,10.583,23.562,10.583z"/>
	<path fill="#00B2FF" d="M23.548,10.593c0.004-0.003,0.009-0.007,0.013-0.01C23.56,10.59,23.556,10.594,23.548,10.593z"/>
	<path fill="#00B2FF" d="M23.519,10.609c0.004-0.007,0.009-0.01,0.017-0.01C23.533,10.606,23.528,10.61,23.519,10.609z"/>
	<path fill="#00B2FF" d="M23.491,10.626c0.004-0.008,0.01-0.012,0.019-0.012C23.506,10.622,23.499,10.626,23.491,10.626z"/>
	<path fill="#00B2FF" d="M23.477,10.636c0.005-0.003,0.009-0.007,0.014-0.01C23.488,10.633,23.484,10.637,23.477,10.636z"/>
	<path fill="#00B2FF" d="M23.447,10.653c0.004-0.007,0.01-0.011,0.018-0.011C23.462,10.65,23.456,10.653,23.447,10.653z"/>
	<path fill="#00B2FF" d="M23.434,10.664c0.004-0.003,0.008-0.006,0.012-0.01C23.444,10.66,23.441,10.664,23.434,10.664z"/>
	<path fill="#00B2FF" d="M23.405,10.681c0.003-0.007,0.008-0.01,0.016-0.011C23.418,10.677,23.413,10.681,23.405,10.681z"/>
	<path fill="#00B2FF" d="M23.991,10.311c0.004-0.008,0.01-0.012,0.019-0.012C24.007,10.307,24,10.311,23.991,10.311z"/>
	<path d="M14.56,7.835c-0.044-0.002-0.089-0.002-0.133-0.005c-0.065-0.004-0.129-0.017-0.193-0.033
		c-0.005-0.001-0.009-0.002-0.014-0.003c-0.007-0.009-0.02-0.006-0.028-0.012c-0.003-0.004-0.006-0.005-0.011-0.004
		c-0.007-0.001-0.012-0.007-0.018-0.01c-0.024-0.016-0.048-0.03-0.071-0.047c-0.057-0.045-0.098-0.103-0.122-0.172
		c-0.039-0.112-0.049-0.227-0.023-0.343c0.024-0.107,0.083-0.19,0.176-0.248c0.04-0.025,0.083-0.045,0.125-0.067
		c0.155-0.034,0.312-0.015,0.469-0.018c0.047-0.001,0.088,0.016,0.128,0.039c0.011,0.006,0.021,0.013,0.03,0.021
		c0.006,0.006,0.01,0.012,0.013,0.02c0.016,0.014,0.031,0.029,0.047,0.043c0.081,0.074,0.125,0.166,0.133,0.276
		c0.009,0.124-0.008,0.242-0.07,0.351c-0.004,0.003-0.006,0.006-0.006,0.011c-0.003,0.006-0.008,0.011-0.012,0.017l-0.001,0.001
		c-0.005,0.003-0.009,0.008-0.012,0.014l-0.002,0.003c-0.006,0.002-0.01,0.006-0.011,0.012L14.95,7.683
		c-0.006,0.002-0.01,0.005-0.011,0.011l-0.003,0.003c-0.006,0.002-0.01,0.005-0.012,0.011l-0.003,0.002
		c-0.006,0.003-0.01,0.007-0.013,0.012l-0.001,0.001c-0.006,0.004-0.01,0.009-0.017,0.012c-0.071,0.038-0.146,0.068-0.226,0.083
		C14.63,7.825,14.593,7.819,14.56,7.835z"/>
	<path d="M14.193,5.395c0.024-0.01,0.047-0.021,0.071-0.03c0.076-0.029,0.155-0.038,0.235-0.041
		c0.021-0.001,0.042-0.001,0.063-0.002c0.012,0.009,0.027,0.009,0.041,0.01c0.082,0.007,0.157,0.031,0.228,0.073
		c0.01,0.006,0.021,0.01,0.032,0.016c0.005,0.004,0.01,0.008,0.015,0.012l0.001,0.001c0.003,0.005,0.008,0.009,0.013,0.012
		l0.002,0.002c0.003,0.006,0.007,0.01,0.013,0.013l0.002,0.002c0.003,0.006,0.007,0.01,0.012,0.013l0.001,0.001
		c0.004,0.005,0.008,0.01,0.012,0.015l0,0c0.006,0.005,0.011,0.01,0.013,0.018c0,0.005,0.001,0.008,0.005,0.01
		c0.003,0.005,0.006,0.01,0.01,0.015c0,0,0,0,0,0C15,5.622,15.016,5.712,15.012,5.806c-0.005,0.101-0.034,0.192-0.096,0.272
		c-0.007,0.009-0.013,0.02-0.02,0.029c-0.028,0.077-0.089,0.121-0.163,0.129c-0.129,0.014-0.26,0.007-0.389,0.002
		c-0.014-0.001-0.027-0.007-0.039-0.016c-0.04,0.002-0.073-0.013-0.102-0.04c-0.041-0.036-0.083-0.071-0.116-0.115
		c-0.071-0.096-0.094-0.205-0.089-0.322C14,5.71,14.006,5.675,14.014,5.64c0.02-0.089,0.066-0.161,0.14-0.215
		C14.167,5.415,14.18,5.405,14.193,5.395z"/>
	<path fill="#0075FF" d="M14.305,6.222c0.078-0.001,0.156-0.002,0.233-0.003c0.061,0,0.123-0.001,0.184,0
		c0.025,0,0.046-0.006,0.065-0.022c0.036-0.031,0.072-0.061,0.108-0.091c0.018,0.021,0.025,0.045,0.025,0.072
		c0,0.238,0,0.477,0,0.715c0,0.026-0.007,0.047-0.033,0.058c-0.005,0-0.008-0.002-0.011-0.006c-0.005-0.003-0.01-0.006-0.015-0.01
		c-0.002,0-0.005,0-0.007-0.001c-0.065-0.04-0.136-0.046-0.21-0.044c-0.132,0.003-0.264,0-0.396,0
		c0.056-0.025,0.057-0.025,0.057-0.085C14.306,6.611,14.306,6.417,14.305,6.222z"/>
	<path fill="#0083FF" d="M14.192,7.782c0.012-0.001,0.021,0.003,0.028,0.012C14.208,7.795,14.198,7.792,14.192,7.782z"/>
	<path fill="#0083FF" d="M14.163,7.768c0.008-0.001,0.014,0.002,0.018,0.01C14.173,7.778,14.167,7.774,14.163,7.768z"/>
	<path d="M17.51,7.811c-0.04-0.005-0.08-0.009-0.12-0.016c-0.117-0.022-0.21-0.083-0.278-0.182
		c-0.025-0.037-0.046-0.077-0.063-0.119c-0.008-0.02-0.018-0.038-0.026-0.058c-0.001-0.005-0.002-0.009-0.003-0.014
		c-0.005-0.009-0.002-0.021-0.012-0.027l0-0.001c-0.011-0.013-0.001-0.032-0.013-0.044c-0.001-0.005-0.002-0.009-0.002-0.014
		c-0.009-0.014-0.001-0.032-0.011-0.045c-0.001-0.009-0.002-0.018-0.004-0.027c-0.008-0.014-0.001-0.032-0.01-0.046
		c-0.007-0.071-0.012-0.142-0.02-0.213c-0.008-0.073-0.01-0.147-0.012-0.221c-0.003-0.15-0.003-0.299,0.002-0.449
		c0.002-0.045,0.006-0.09,0.009-0.135c0.002-0.04,0.004-0.081,0.006-0.121c0.014-0.023-0.001-0.05,0.011-0.073
		c0.001-0.013,0.003-0.026,0.004-0.038c0.008-0.015,0.002-0.033,0.01-0.047c0.001-0.009,0.002-0.018,0.003-0.027
		c0.01-0.013,0.002-0.031,0.011-0.045c0.001-0.008,0.003-0.016,0.004-0.024c0.004-0.011,0.004-0.023,0.011-0.033
		c0.004-0.003,0.005-0.006,0.003-0.01c0.005-0.01,0.004-0.023,0.012-0.033c0.004-0.003,0.005-0.007,0.003-0.011
		c0.015-0.014,0.016-0.034,0.023-0.051c0.018-0.044,0.038-0.087,0.063-0.127c0.066-0.105,0.157-0.175,0.279-0.202
		c0.021-0.005,0.042-0.009,0.062-0.013c0.05,0,0.1-0.001,0.15,0.002c0.174,0.01,0.301,0.092,0.382,0.247
		c0.048,0.092,0.076,0.19,0.096,0.29c0.026,0.133,0.038,0.268,0.046,0.404c0.012,0.224,0.01,0.447-0.003,0.671
		c-0.008,0.135-0.023,0.27-0.056,0.402c-0.019,0.076-0.045,0.15-0.084,0.219c-0.068,0.119-0.168,0.19-0.303,0.216
		C17.624,7.807,17.567,7.805,17.51,7.811z"/>
	<path fill="#009EFF" d="M16.965,6.006c0.002,0.025,0.002,0.05-0.011,0.073C16.954,6.055,16.944,6.028,16.965,6.006z"/>
	<path fill="#009EFF" d="M16.979,5.921c0.002,0.017,0.002,0.033-0.01,0.047C16.966,5.951,16.963,5.934,16.979,5.921z"/>
	<path fill="#009EFF" d="M16.993,5.849c0.002,0.016,0,0.032-0.011,0.045C16.98,5.878,16.978,5.861,16.993,5.849z"/>
	<path fill="#009DFF" d="M16.996,7.35c0.011,0.013,0.014,0.028,0.013,0.044C16.992,7.383,16.995,7.366,16.996,7.35z"/>
	<path fill="#009DFF" d="M16.982,7.291c0.011,0.013,0.013,0.028,0.011,0.045C16.978,7.324,16.98,7.307,16.982,7.291z"/>
	<path fill="#009DFF" d="M16.968,7.218c0.012,0.014,0.012,0.03,0.01,0.046C16.963,7.251,16.966,7.235,16.968,7.218z"/>
	<path fill="#009DFF" d="M17.009,7.394c0.009,0.007,0.013,0.016,0.012,0.027C17.011,7.415,17.009,7.405,17.009,7.394z"/>
	<path fill="#009EFF" d="M17.008,5.792c0.001,0.013,0,0.024-0.011,0.033C16.995,5.812,16.995,5.8,17.008,5.792z"/>
	<path fill="#009EFF" d="M17.023,5.749c0.002,0.013,0,0.024-0.012,0.033C17.009,5.768,17.01,5.756,17.023,5.749z"/>
	<path fill="#003FFF" d="M14.878,5.432c-0.008,0-0.013-0.005-0.015-0.012C14.868,5.424,14.873,5.428,14.878,5.432z"/>
	<path fill="#003FFF" d="M14.893,5.446c-0.007-0.001-0.012-0.005-0.013-0.012C14.884,5.438,14.888,5.442,14.893,5.446z"/>
	<path fill="#003FFF" d="M14.907,5.46c-0.007-0.001-0.012-0.005-0.013-0.013C14.899,5.452,14.903,5.456,14.907,5.46z"/>
	<path fill="#003FFF" d="M14.921,5.475c-0.007-0.002-0.012-0.006-0.012-0.013C14.913,5.466,14.917,5.471,14.921,5.475z"/>
	<path fill="#003FFF" d="M14.935,5.492c-0.008-0.002-0.012-0.007-0.012-0.015C14.926,5.482,14.931,5.487,14.935,5.492z"/>
	<path fill="#003FFF" d="M14.948,5.51c-0.008-0.004-0.012-0.01-0.013-0.018C14.943,5.495,14.947,5.501,14.948,5.51z"/>
	<path fill="#003FFF" d="M14.963,5.535c-0.007-0.003-0.011-0.007-0.01-0.015C14.956,5.525,14.96,5.53,14.963,5.535z"/>
	<path fill="#003FFF" d="M14.979,7.651c0.001-0.008,0.005-0.014,0.012-0.017C14.987,7.64,14.983,7.645,14.979,7.651z"/>
	<path fill="#003FFF" d="M14.967,7.666c0-0.008,0.005-0.012,0.012-0.014C14.975,7.657,14.971,7.661,14.967,7.666z"/>
	<path fill="#003FFF" d="M14.953,7.68c0.001-0.007,0.005-0.01,0.011-0.012C14.961,7.672,14.957,7.676,14.953,7.68z"/>
	<path fill="#003FFF" d="M14.939,7.694c0.001-0.007,0.005-0.01,0.011-0.011C14.946,7.687,14.943,7.691,14.939,7.694z"/>
	<path fill="#003FFF" d="M14.924,7.709c0.004-0.004,0.008-0.007,0.012-0.011C14.932,7.701,14.928,7.705,14.924,7.709z"/>
	<path fill="#003FFF" d="M14.908,7.722c0.002-0.007,0.006-0.011,0.013-0.012C14.917,7.715,14.912,7.719,14.908,7.722z"/>
	<path fill="#003FFF" d="M14.89,7.735c0.003-0.007,0.009-0.011,0.017-0.012C14.901,7.727,14.896,7.731,14.89,7.735z"/>
	<path fill="#003FFF" d="M14.863,6.936c0.005,0.003,0.01,0.007,0.015,0.01C14.87,6.947,14.865,6.943,14.863,6.936z"/>
</g>
</svg>
