<?xml version="1.0" encoding="utf-8"?>
<!-- Generator: Adobe Illustrator 24.3.0, SVG Export Plug-In . SVG Version: 6.00 Build 0)  -->
<svg version="1.1" id="Слой_1" xmlns="http://www.w3.org/2000/svg" xmlns:xlink="http://www.w3.org/1999/xlink" x="0px" y="0px"
	 width="32px" height="13px" viewBox="0 0 32 13" enable-background="new 0 0 32 13" xml:space="preserve">
<g>
	<path d="M19.857,13c-2.501,0-5.002,0-7.503,0c-0.077-0.078-0.117-0.18-0.171-0.273c-0.371-0.644-0.743-1.287-1.114-1.93
		c-0.339-0.587-0.675-1.175-1.014-1.762C9.753,8.511,9.45,7.987,9.147,7.464C8.975,7.166,8.804,6.867,8.633,6.569
		c-0.029-0.05-0.029-0.089,0-0.139c0.43-0.743,0.861-1.485,1.288-2.23c0.527-0.919,1.06-1.834,1.588-2.753
		C11.766,1,12.025,0.552,12.284,0.104c0.023-0.04,0.035-0.1,0.102-0.097c2.479,0,4.958,0,7.437,0
		c0.045-0.004,0.067,0.024,0.087,0.059c0.343,0.593,0.684,1.187,1.027,1.781c0.306,0.53,0.612,1.061,0.919,1.591
		c0.34,0.589,0.678,1.179,1.018,1.768c0.228,0.396,0.455,0.792,0.688,1.185c0.045,0.077,0.046,0.136,0.002,0.214
		c-0.449,0.781-0.901,1.561-1.351,2.341c-0.365,0.632-0.729,1.266-1.095,1.898c-0.395,0.682-0.789,1.364-1.18,2.049
		C19.916,12.932,19.899,12.976,19.857,13z"/>
	<path fill="#383838" d="M19.857,0c0,0.005-0.001,0.01-0.001,0.015c-0.04,0-0.08,0-0.12,0c-2.422,0-4.844,0-7.266,0
		c-0.038,0-0.075,0.001-0.113,0.001C12.356,0.011,12.355,0.005,12.354,0C14.855,0,17.356,0,19.857,0z"/>
	<path fill="#666666" d="M19.371,0.985C19.377,0.993,19.384,1,19.389,1.009c0.125,0.218,0.249,0.436,0.374,0.653
		c0.114,0.198,0.228,0.396,0.342,0.593c0.126,0.217,0.251,0.434,0.377,0.652c0.162,0.28,0.325,0.56,0.486,0.84
		c0.124,0.215,0.246,0.431,0.37,0.647c0.143,0.248,0.287,0.495,0.43,0.743c0.161,0.278,0.32,0.557,0.481,0.835
		c0.085,0.148,0.173,0.294,0.256,0.443c0.059,0.106,0.059,0.066,0.002,0.167c-0.188,0.332-0.379,0.662-0.57,0.992
		c-0.196,0.339-0.392,0.677-0.588,1.016c-0.206,0.356-0.412,0.712-0.617,1.069c-0.185,0.322-0.369,0.645-0.554,0.966
		c-0.155,0.27-0.312,0.538-0.468,0.807c-0.117,0.202-0.233,0.404-0.35,0.607c-0.006,0.011-0.012,0.022-0.018,0.033
		c-0.008,0.013-0.02,0.022-0.037,0.022c-0.018,0-0.035,0.001-0.053,0.001c-2.047,0-4.093,0-6.14,0c-0.02,0-0.04,0-0.06-0.002
		c-0.012-0.001-0.017-0.01-0.012-0.021c0.007-0.016,0.015-0.032,0.023-0.047c0.126-0.237,0.252-0.474,0.378-0.711
		c0.016-0.031,0.035-0.061,0.05-0.092c0.014-0.028,0.032-0.043,0.065-0.04c0.02,0.002,0.04,0,0.06,0c1.7,0,3.4,0,5.1,0
		c0.111,0,0.088,0.013,0.144-0.084c0.159-0.276,0.319-0.551,0.479-0.828c0.124-0.215,0.247-0.431,0.371-0.646
		c0.12-0.209,0.241-0.417,0.362-0.626c0.104-0.18,0.208-0.361,0.312-0.541c0.102-0.176,0.203-0.352,0.305-0.528
		c0.107-0.185,0.213-0.369,0.32-0.554c0.126-0.22,0.253-0.439,0.379-0.659c0.033-0.057,0.063-0.114,0.097-0.17
		c0.019-0.031,0.021-0.057,0.001-0.09c-0.095-0.16-0.187-0.321-0.28-0.482C21.103,5.797,21.002,5.62,20.9,5.444
		c-0.122-0.211-0.243-0.422-0.365-0.632c-0.104-0.18-0.209-0.36-0.313-0.541c-0.129-0.224-0.257-0.448-0.386-0.672
		c-0.141-0.246-0.283-0.491-0.425-0.737c-0.139-0.241-0.279-0.482-0.418-0.723c-0.034-0.059-0.067-0.118-0.102-0.176
		c-0.008-0.014-0.011-0.027-0.002-0.042c0.006-0.011,0.011-0.022,0.017-0.034c0.141-0.283,0.283-0.566,0.425-0.848
		C19.34,1.02,19.343,0.994,19.371,0.985z"/>
	<path fill="#FC01F3" d="M11.842,2.487c0.011-0.022,0.021-0.045,0.034-0.067c0.185-0.322,0.371-0.643,0.557-0.965
		c0.115-0.2,0.23-0.4,0.345-0.6c0.007-0.013,0.016-0.026,0.023-0.039c0.009-0.017,0.022-0.026,0.042-0.026c0.018,0,0.035,0,0.053,0
		c2.099,0,4.197,0,6.296,0c0.099,0,0.09-0.003,0.049,0.08c-0.167,0.334-0.334,0.668-0.502,1.002
		c-0.043,0.085-0.018,0.073-0.117,0.073c-1.235,0-2.47,0-3.705,0c-0.452,0-0.904,0-1.356,0c-0.089,0-0.071-0.012-0.116,0.066
		c-0.082,0.141-0.163,0.282-0.245,0.423c-0.007,0.013-0.017,0.025-0.025,0.037c-0.056,0.067-0.13,0.08-0.215,0.084
		c-0.273,0.014-0.545,0.025-0.818,0.029c-0.072,0.001-0.144,0.021-0.217,0.012C11.851,2.588,11.83,2.56,11.842,2.487z"/>
	<path fill="#E10E8C" d="M11.405,7.471c0.027,0.027,0.042,0.062,0.06,0.094c0.404,0.699,0.807,1.398,1.21,2.097
		c0.109,0.189,0.217,0.378,0.326,0.567c0.011,0.019,0.02,0.04,0.03,0.06c0.002,0.038-0.024,0.052-0.053,0.063
		c-0.031,0.012-0.063,0.019-0.095,0.017c-0.198-0.007-0.394,0.02-0.592,0.016c-0.133-0.003-0.264,0.024-0.397,0.016
		c-0.051-0.003-0.1-0.007-0.142-0.039c-0.054-0.076-0.096-0.158-0.142-0.238c-0.427-0.74-0.854-1.48-1.281-2.219
		C10.27,7.804,10.211,7.702,10.153,7.6c-0.01-0.017-0.017-0.036-0.026-0.054c0.083-0.01,0.168-0.004,0.251-0.005
		c0.305-0.004,0.61-0.024,0.915-0.032C11.336,7.508,11.369,7.488,11.405,7.471z"/>
	<path fill="#EE08BC" d="M11.405,7.471c-0.008,0.045-0.036,0.062-0.08,0.061c-0.038-0.001-0.075-0.001-0.113,0
		c-0.042,0.001-0.085-0.003-0.126,0.012c-0.018,0.006-0.04,0.003-0.06,0.003c-0.078,0-0.155,0-0.233,0
		c-0.037,0-0.075-0.002-0.111,0.011c-0.018,0.007-0.04,0.004-0.06,0.004c-0.085,0-0.17,0-0.256,0c-0.035,0-0.07-0.002-0.104,0.011
		c-0.024,0.009-0.049,0.005-0.073-0.008c-0.02-0.011-0.04-0.021-0.064-0.019c-0.05-0.084-0.101-0.168-0.15-0.252
		c-0.14-0.243-0.281-0.487-0.42-0.731C9.515,6.489,9.515,6.516,9.559,6.436c0.032-0.057,0.065-0.113,0.098-0.17
		c0.272-0.472,0.544-0.943,0.817-1.415c0.012-0.021,0.021-0.046,0.041-0.062c0.107,0.036,0.218,0.027,0.327,0.02
		c0.234-0.015,0.469-0.019,0.703-0.027c0.085-0.003,0.17,0,0.252-0.029c0.019-0.007,0.039-0.009,0.057,0.006
		c-0.02,0.054-0.054,0.101-0.083,0.151c-0.292,0.506-0.585,1.012-0.877,1.518c-0.049,0.086-0.049,0.059,0.001,0.147
		c0.127,0.222,0.254,0.444,0.382,0.666c0.009,0.015,0.015,0.031,0.023,0.047c0.003,0.006,0.007,0.011,0.01,0.017
		c0.004,0.003,0.006,0.007,0.006,0.011c0.001,0.008,0.007,0.013,0.011,0.019l0.001,0.001c0.01,0.007,0.006,0.021,0.016,0.028l0,0
		c0.004,0.004,0.008,0.009,0.01,0.015c0.004,0.003,0.006,0.007,0.006,0.013c0.003,0.006,0.007,0.012,0.011,0.017
		c0.004,0.003,0.006,0.006,0.005,0.011c0.001,0.008,0.007,0.014,0.012,0.02l0,0.001C11.399,7.45,11.395,7.464,11.405,7.471
		L11.405,7.471z"/>
	<path fill="#D9126D" d="M15.833,7.321c0.005,0.245-0.036,0.48-0.152,0.697c-0.116,0.218-0.299,0.361-0.528,0.446
		c-0.135,0.05-0.275,0.078-0.418,0.089c-0.211,0.016-0.421,0.008-0.631-0.008c-0.158-0.012-0.315-0.029-0.471-0.051
		c-0.132-0.018-0.263-0.041-0.394-0.062c-0.032-0.005-0.038-0.015-0.035-0.045c0.023-0.209,0.047-0.418,0.07-0.628
		c0.001-0.005,0.001-0.01,0.002-0.015c0.003-0.018,0.013-0.026,0.031-0.024c0.05,0.004,0.1,0.007,0.15,0.011
		c0.087,0.007,0.175,0.017,0.262,0.023c0.138,0.009,0.276,0.014,0.413,0.022c0.09,0.005,0.18,0.011,0.271,0.009
		c0.073-0.001,0.145-0.01,0.216-0.027c0.057-0.013,0.11-0.035,0.16-0.065c0.068-0.041,0.12-0.098,0.155-0.17
		c0.009-0.018,0.018-0.036,0.026-0.053c0.058,0.029,0.122,0.032,0.183,0.024c0.189-0.022,0.379-0.005,0.568-0.025
		c0.061-0.007,0.092-0.024,0.09-0.089C15.798,7.357,15.798,7.326,15.833,7.321z"/>
	<path fill="#DA1170" d="M19.011,7.623c-0.002,0.051-0.021,0.098-0.037,0.145c-0.13,0.39-0.398,0.634-0.794,0.741
		c-0.109,0.029-0.22,0.046-0.334,0.051c-0.209,0.009-0.416-0.005-0.623-0.029C16.96,8.499,16.699,8.45,16.44,8.39
		c-0.127-0.03-0.103-0.002-0.09-0.13c0.02-0.192,0.048-0.383,0.072-0.574c0.004-0.029,0.011-0.034,0.04-0.03
		c0.129,0.021,0.257,0.044,0.386,0.063c0.149,0.022,0.298,0.039,0.448,0.055c0.117,0.013,0.235,0.014,0.353,0.021
		c0.068,0.004,0.135-0.002,0.201-0.019c0.077-0.02,0.145-0.055,0.201-0.112c0.009-0.009,0.019-0.016,0.029-0.023
		c0.038,0.013,0.077,0.021,0.118,0.018C18.468,7.637,18.74,7.639,19.011,7.623z"/>
	<path fill="#FA02EC" d="M15.682,5.031c0.004,0.003,0.005,0.007,0.004,0.011c0.005,0.011,0.003,0.024,0.012,0.034
		c0.004,0.003,0.005,0.007,0.003,0.011c0.005,0.011,0.003,0.024,0.011,0.034c0.004,0.004,0.005,0.009,0.003,0.014
		c0.011,0.014,0.001,0.033,0.012,0.047c0.001,0.009,0.003,0.017,0.004,0.026c0.012,0.103-0.008,0.125-0.107,0.133
		c-0.212,0.017-0.425,0.008-0.636,0.029c-0.084,0.008-0.165-0.004-0.237-0.053c-0.129-0.083-0.271-0.112-0.422-0.111
		c-0.198,0.002-0.396,0.01-0.593,0.032c-0.127,0.014-0.254,0.028-0.381,0.042c-0.03,0.003-0.032,0.002-0.036-0.031
		c-0.008-0.07-0.015-0.139-0.023-0.209c-0.015-0.142-0.029-0.284-0.044-0.426c-0.003-0.026-0.001-0.03,0.026-0.036
		c0.088-0.019,0.176-0.039,0.265-0.056c0.158-0.03,0.316-0.055,0.476-0.073c0.288-0.032,0.576-0.034,0.862,0.012
		c0.127,0.021,0.25,0.054,0.367,0.107c0.174,0.08,0.312,0.199,0.399,0.372c0.004,0.009,0.007,0.019,0.01,0.028
		c0.003,0.006,0.006,0.012,0.01,0.018C15.666,4.99,15.668,4.995,15.67,5C15.677,5.009,15.674,5.022,15.682,5.031z"/>
	<path fill="#EA0AAF" d="M18.306,6.028c0.262,0.069,0.463,0.217,0.596,0.453c0.056,0.1,0.099,0.207,0.114,0.323
		c0.016,0.056-0.013,0.079-0.063,0.087c-0.032,0.005-0.064,0.013-0.096,0.013c-0.22-0.001-0.439,0.024-0.658,0.019
		c-0.028-0.001-0.055-0.006-0.078-0.022c-0.033-0.037-0.065-0.076-0.107-0.104c-0.068-0.045-0.144-0.07-0.225-0.079
		c-0.123-0.013-0.245-0.007-0.368,0.007c-0.107,0.012-0.213,0.032-0.316,0.065c-0.027,0.009-0.054,0.007-0.082,0.001
		c-0.186-0.04-0.372-0.08-0.558-0.121c-0.029-0.006-0.036-0.014-0.034-0.039c0.009-0.158,0.018-0.315,0.027-0.473
		c0.001-0.01,0.005-0.019,0.008-0.028c0.025-0.021,0.055-0.023,0.085-0.023c0.362,0.002,0.724-0.023,1.086-0.034
		c0.204-0.006,0.41-0.003,0.614-0.026C18.271,6.045,18.29,6.042,18.306,6.028z"/>
	<path fill="#D9116F" d="M11.752,10.363c0.007,0,0.015-0.001,0.022,0.001c0.096,0.026,0.194,0.011,0.291,0.015
		c0.134-0.027,0.269-0.01,0.403-0.015c0.005,0,0.01,0.001,0.015,0c0.123-0.029,0.249-0.01,0.373-0.014
		c0.038-0.001,0.074-0.006,0.111-0.014c0.03-0.006,0.05-0.02,0.064-0.046c0.032,0.033,0.049,0.076,0.071,0.114
		c0.112,0.19,0.221,0.382,0.331,0.573c0.006,0.011,0.012,0.022,0.017,0.032c-0.005,0.024-0.032,0.012-0.04,0.028
		c-0.007,0.013-0.015,0.026-0.022,0.039c-0.11,0.206-0.219,0.412-0.329,0.618c-0.077,0.144-0.153,0.288-0.23,0.432
		c-0.008,0.015-0.012,0.033-0.032,0.043c-0.022-0.016-0.032-0.043-0.045-0.066c-0.081-0.139-0.161-0.278-0.241-0.417
		c-0.235-0.406-0.469-0.812-0.704-1.218C11.788,10.435,11.764,10.402,11.752,10.363z"/>
	<path fill="#F505D9" d="M11.842,2.487c-0.001,0.02,0.004,0.039,0.014,0.057c0.011,0.019,0.025,0.032,0.047,0.031
		c0.06-0.003,0.12,0.009,0.179-0.011c0.018-0.006,0.04-0.003,0.06-0.003c0.073,0,0.145,0,0.218,0c0.045,0,0.09,0.004,0.134-0.012
		c0.016-0.006,0.035-0.003,0.052-0.003c0.078,0,0.155,0,0.233,0c0.04,0,0.079-0.001,0.119-0.011
		c0.035-0.009,0.075-0.005,0.112-0.004c0.045,0.002,0.084-0.008,0.116-0.041c0.013-0.013,0.028-0.02,0.047-0.018
		c-0.009,0.018-0.016,0.036-0.026,0.054c-0.21,0.364-0.42,0.728-0.63,1.091c-0.009,0.015-0.02,0.029-0.029,0.043
		c-0.058,0.087-0.144,0.099-0.242,0.1c-0.34,0.002-0.679,0.029-1.018,0.031c-0.076,0-0.084-0.005-0.082-0.075
		c-0.002-0.009-0.001-0.018,0.003-0.026l0,0c0.011-0.006,0.007-0.021,0.016-0.028c0.026-0.048,0.052-0.097,0.079-0.144
		c0.188-0.327,0.377-0.654,0.566-0.981C11.819,2.519,11.825,2.499,11.842,2.487z"/>
	<path fill="#E50C9D" d="M15.833,7.321c-0.021,0.021-0.013,0.047-0.013,0.071c-0.002,0.1,0.006,0.095-0.094,0.094
		c-0.008,0-0.015-0.001-0.023,0.001c-0.101,0.027-0.204,0.01-0.307,0.014c-0.052,0.002-0.104,0.005-0.156,0.011
		c-0.079,0.01-0.16,0.004-0.24,0.002c-0.028,0-0.036-0.023-0.041-0.046c-0.001-0.005,0-0.009,0.003-0.013
		c0.012-0.014,0.003-0.034,0.012-0.048c0.001-0.043,0.004-0.085,0.002-0.128c-0.006-0.179-0.097-0.3-0.26-0.37
		c-0.058-0.025-0.119-0.038-0.182-0.042c-0.058-0.003-0.115-0.005-0.173-0.005c-0.206-0.001-0.411,0-0.617,0
		c-0.023,0-0.045,0-0.068-0.002c-0.014-0.001-0.023-0.009-0.024-0.023c-0.001-0.012-0.001-0.025-0.001-0.038
		c0-0.2,0-0.401-0.001-0.601c0-0.015,0.001-0.03,0.002-0.045c0.001-0.011,0.009-0.018,0.02-0.019
		c0.015-0.001,0.03-0.002,0.045-0.002c0.258,0,0.516,0,0.774,0c-0.019,0.047-0.062,0.035-0.096,0.035
		c-0.198,0.002-0.397,0.001-0.595,0.001c-0.107,0-0.138,0.046-0.11,0.152c0.011,0.04,0.04,0.039,0.07,0.041
		c0.066,0.003,0.13-0.015,0.195-0.014c0.361,0.002,0.722-0.031,1.083-0.032c0.08,0,0.16-0.018,0.24-0.013
		c0.032,0.002,0.066-0.003,0.091,0.025c-0.013,0.025-0.046,0.029-0.06,0.059c0.025,0.015,0.05,0.031,0.076,0.046
		c0.079,0.048,0.155,0.101,0.221,0.166c0.089,0.088,0.149,0.193,0.183,0.314C15.827,7.047,15.841,7.183,15.833,7.321z"/>
	<path fill="#FD01F9" d="M16.526,5.148c-0.001-0.005-0.002-0.01-0.002-0.015c0.009-0.19,0.018-0.38,0.036-0.569
		c0.001-0.051,0.022-0.069,0.078-0.069c0.741,0.002,1.481,0.002,2.222,0c0.055,0,0.074,0.012,0.073,0.07
		c-0.004,0.161-0.001,0.321-0.001,0.482c0,0.088-0.006,0.096-0.092,0.097c-0.125,0.003-0.251,0.011-0.376,0.012
		c-0.213,0.003-0.426,0.013-0.639,0.022c-0.326,0.013-0.652,0.015-0.977,0.039c-0.085,0.006-0.171,0.005-0.256,0
		C16.549,5.217,16.506,5.21,16.526,5.148z"/>
	<path fill="#F405D5" d="M11.149,3.706c0.017,0.012,0.006,0.026,0.005,0.04c-0.002,0.021,0.014,0.036,0.032,0.029
		c0.037-0.013,0.074-0.008,0.112-0.009c0.078-0.001,0.156,0,0.233,0c0.025,0,0.05,0.001,0.074-0.009
		c0.021-0.009,0.045-0.006,0.067-0.006c0.075,0,0.151,0,0.226,0c0.042,0,0.085,0.003,0.127-0.012c0.018-0.006,0.04-0.003,0.06-0.003
		c0.078,0,0.156-0.001,0.233,0c0.051,0.001,0.095-0.011,0.124-0.056c0.011-0.018,0.027-0.02,0.045-0.02
		c-0.006,0.013-0.012,0.027-0.019,0.04c-0.098,0.171-0.196,0.342-0.294,0.513c-0.01,0.017-0.022,0.033-0.033,0.05
		c-0.005,0.006-0.01,0.012-0.012,0.019c0.001,0.005-0.001,0.009-0.005,0.011c-0.003,0.006-0.007,0.011-0.011,0.016l0-0.001
		c-0.011,0.007-0.007,0.022-0.017,0.029l0,0c-0.006,0.006-0.012,0.012-0.012,0.021c0.001,0.004,0,0.008-0.005,0.009
		c-0.004,0.006-0.009,0.011-0.011,0.018c0.001,0.005-0.001,0.009-0.005,0.012c-0.003,0.006-0.006,0.011-0.011,0.016l0-0.001
		c-0.01,0.007-0.007,0.022-0.016,0.029l0,0.001c-0.005,0.006-0.011,0.012-0.012,0.021c0.001,0.005-0.001,0.008-0.005,0.01
		c-0.004,0.006-0.007,0.012-0.011,0.018c0.001,0.005-0.001,0.01-0.006,0.012C12,4.51,11.997,4.515,11.992,4.519l0,0
		c-0.009,0.007-0.006,0.022-0.016,0.028l-0.001,0.001c-0.005,0.006-0.01,0.012-0.012,0.02c0.001,0.005-0.001,0.008-0.005,0.011
		c-0.003,0.006-0.007,0.011-0.011,0.016l0.001-0.001c-0.011,0.007-0.008,0.022-0.017,0.029l0,0
		c-0.006,0.006-0.012,0.012-0.013,0.021c0.001,0.004,0,0.007-0.004,0.009c-0.004,0.006-0.009,0.011-0.011,0.019
		c0.001,0.005-0.001,0.009-0.005,0.012c-0.003,0.006-0.007,0.011-0.011,0.016l0-0.001c-0.01,0.007-0.007,0.022-0.016,0.029l0,0.001
		c-0.005,0.006-0.011,0.012-0.012,0.021c0.001,0.004,0,0.007-0.005,0.009c-0.01,0.001-0.022-0.001-0.029,0.004
		c-0.06,0.036-0.126,0.041-0.193,0.042c-0.067,0-0.135,0-0.202,0c-0.045,0-0.09-0.004-0.133,0.012
		C11.28,4.823,11.261,4.82,11.243,4.82c-0.072,0-0.145,0-0.217,0c-0.052,0.001-0.105-0.006-0.156,0.013
		c-0.011,0.004-0.025,0.002-0.037,0.002c-0.077,0-0.155-0.001-0.232,0.001c-0.039,0.001-0.068-0.011-0.086-0.047c0,0,0,0,0,0
		c0.011-0.007,0.007-0.021,0.016-0.029l0-0.001c0.005-0.006,0.011-0.012,0.012-0.02c-0.001-0.005,0.001-0.008,0.005-0.01
		c0.004-0.006,0.008-0.011,0.011-0.018c-0.001-0.005,0.001-0.01,0.006-0.013c0.003-0.006,0.006-0.01,0.01-0.015v0
		c0.01-0.007,0.006-0.021,0.016-0.028l0.001-0.001c0.005-0.006,0.01-0.012,0.012-0.02c-0.001-0.005,0.001-0.009,0.005-0.011
		c0.004-0.006,0.007-0.011,0.011-0.017c0.002-0.004,0.004-0.009,0.006-0.013c0.002-0.006,0.006-0.01,0.01-0.014l0,0
		c0.007-0.006,0.012-0.012,0.012-0.021c-0.001-0.004,0-0.007,0.005-0.009c0.005-0.006,0.01-0.011,0.011-0.019
		c-0.001-0.005,0.001-0.009,0.005-0.012c0.003-0.005,0.007-0.011,0.01-0.016l0,0.001c0.011-0.007,0.008-0.021,0.016-0.029l0-0.001
		c0.006-0.006,0.012-0.012,0.012-0.021c-0.001-0.005,0.001-0.008,0.005-0.01c0.004-0.006,0.009-0.011,0.011-0.018
		c-0.001-0.005,0.001-0.009,0.006-0.012c0.003-0.005,0.006-0.011,0.01-0.015l0,0c0.01-0.007,0.007-0.021,0.016-0.029l0-0.001
		c0.005-0.006,0.011-0.012,0.012-0.02c-0.001-0.005,0.001-0.008,0.005-0.01c0.004-0.006,0.008-0.011,0.011-0.018
		c-0.001-0.005,0.001-0.01,0.006-0.013c0.003-0.005,0.006-0.01,0.01-0.015l0,0c0.01-0.007,0.006-0.021,0.016-0.028l0.001-0.001
		c0.005-0.006,0.011-0.012,0.012-0.02c-0.001-0.005,0.001-0.009,0.005-0.011c0.004-0.006,0.007-0.011,0.011-0.017
		c0.002-0.004,0.004-0.009,0.006-0.013c0.002-0.005,0.006-0.01,0.01-0.014l0,0c0.009-0.007,0.006-0.021,0.015-0.029l0-0.001
		c0.006-0.006,0.012-0.012,0.012-0.021c-0.001-0.004,0.001-0.007,0.005-0.009c0.005-0.006,0.01-0.011,0.011-0.018
		c-0.001-0.005,0.001-0.009,0.006-0.012c0.003-0.005,0.007-0.011,0.01-0.016l0,0c0.011-0.006,0.007-0.021,0.016-0.029l0-0.001
		c0.006-0.006,0.012-0.012,0.012-0.021c-0.001-0.005,0.001-0.008,0.005-0.01c0.004-0.006,0.009-0.011,0.011-0.018
		c-0.001-0.005,0.001-0.009,0.006-0.012c0.003-0.005,0.006-0.01,0.01-0.015l0,0c0.01-0.007,0.007-0.021,0.016-0.028l0.001-0.001
		c0.005-0.006,0.011-0.011,0.012-0.02c-0.001-0.005,0.001-0.008,0.005-0.011c0.004-0.006,0.008-0.011,0.011-0.017
		c-0.001-0.006,0.001-0.01,0.006-0.013c0.003-0.005,0.006-0.01,0.01-0.015l0,0c0.01-0.007,0.006-0.021,0.016-0.028l0.001-0.002
		c0.005-0.006,0.01-0.011,0.012-0.02c-0.001-0.005,0.001-0.009,0.005-0.011c0.004-0.005,0.007-0.011,0.011-0.017
		c0.002-0.005,0.004-0.009,0.006-0.014c0.002-0.005,0.005-0.01,0.01-0.014l0-0.001c0.007-0.005,0.012-0.011,0.012-0.021
		c-0.001-0.004,0.001-0.008,0.005-0.009c0.005-0.006,0.01-0.011,0.011-0.018c-0.001-0.005,0.001-0.009,0.005-0.011
		C11.14,3.7,11.145,3.7,11.149,3.706z"/>
	<path fill="#F206CD" d="M15.371,6.328c-0.068,0-0.136-0.001-0.203-0.001c-0.008,0-0.015-0.001-0.023,0.001
		c-0.106,0.027-0.215,0.01-0.322,0.014c-0.052,0.002-0.105-0.005-0.157,0.013c-0.016,0.005-0.035,0.002-0.052,0.002
		c-0.08,0-0.161,0-0.241,0c-0.035,0-0.07-0.002-0.104,0.011c-0.018,0.007-0.04,0.004-0.06,0.004c-0.078,0-0.156,0-0.233,0
		c-0.045,0-0.09-0.005-0.134,0.013c-0.004,0.002-0.01,0.002-0.015,0.002c-0.192-0.003-0.159,0.034-0.162-0.145
		c-0.002-0.101-0.008-0.094,0.092-0.094c0.221,0,0.442,0,0.663,0c0.024,0,0.051,0.008,0.071-0.013
		c0.165-0.038,0.281-0.137,0.361-0.284c0.093-0.172,0.054-0.394-0.083-0.511c-0.007-0.006-0.013-0.015-0.02-0.022
		c0.025-0.001,0.049,0.004,0.073,0.013c0.075,0.027,0.153,0.023,0.229,0.009c0.023-0.004,0.045-0.006,0.067-0.006
		c0.068,0,0.136,0,0.203,0c0.052-0.001,0.105,0.004,0.157-0.012c0.021-0.007,0.045-0.002,0.067-0.002c0.04,0,0.08,0.001,0.12-0.001
		c0.034-0.002,0.056-0.024,0.06-0.056c0.002-0.017,0.002-0.035,0.003-0.052c0.021,0.039,0.02,0.083,0.024,0.124
		c0.011,0.14,0.015,0.28-0.009,0.42C15.702,5.997,15.575,6.188,15.371,6.328z"/>
	<path fill="#F305D2" d="M16.526,5.148c0.012,0.048,0.012,0.048,0.05,0.049c0.088,0.001,0.176,0,0.264,0c0.005,0,0.01,0.001,0.015,0
		c0.114-0.028,0.23-0.009,0.344-0.014c0.037-0.002,0.075,0.002,0.112-0.011c0.018-0.007,0.04-0.004,0.06-0.004
		c0.075,0,0.151,0,0.226,0c0.047,0,0.095,0.005,0.142-0.012c0.016-0.006,0.035-0.003,0.052-0.003c0.075,0,0.151,0,0.226,0
		c0.042,0,0.085,0.003,0.127-0.012c0.016-0.006,0.035-0.003,0.052-0.003c0.078,0,0.156,0,0.233,0c0.04,0,0.08,0.002,0.119-0.011
		c0.02-0.007,0.045-0.003,0.067-0.004c0.088,0,0.176,0,0.264-0.001c0.038,0,0.044-0.007,0.044-0.044
		c0.001-0.153,0.001-0.306,0.001-0.459c0-0.028,0-0.055-0.001-0.083c-0.001-0.017-0.01-0.028-0.028-0.029
		c-0.02-0.001-0.04-0.001-0.06-0.001c-0.725,0-1.451,0-2.176,0c-0.005,0-0.01,0-0.015,0c-0.057,0.001-0.057,0.001-0.078,0.054
		c-0.001,0.002-0.003,0.004-0.005,0.005c-0.001-0.005-0.003-0.01-0.002-0.015c0.001-0.058,0.001-0.059,0.059-0.059
		c0.198,0,0.397,0,0.595,0c0.547,0,1.094,0,1.642,0c0.094,0,0.086-0.01,0.086,0.083c0,0.206,0,0.412,0,0.617
		c0,0.018,0,0.035,0,0.053c0,0.018-0.008,0.029-0.027,0.029c-0.023,0-0.045,0.001-0.068,0.001c-0.479,0-0.959,0-1.438,0
		c-0.023,0-0.045,0-0.068,0c-0.018,0-0.026,0.01-0.028,0.028C17.3,5.376,17.29,5.45,17.281,5.525
		c-0.015,0.117-0.031,0.234-0.046,0.35c-0.016,0.029,0.003,0.063-0.013,0.092c-0.001,0.009-0.002,0.019-0.002,0.028
		c0,0.026-0.036,0.069,0.031,0.061c0.004-0.004,0.008-0.005,0.013-0.003c0.01-0.006,0.022-0.004,0.032-0.011
		c0.009-0.002,0.018-0.004,0.026-0.005c0.011-0.004,0.024-0.003,0.034-0.01c0.005-0.001,0.01-0.002,0.015-0.003
		c0.013-0.012,0.032-0.002,0.045-0.012c0.009-0.002,0.018-0.003,0.026-0.005c0.011-0.004,0.023-0.003,0.034-0.01
		c0.01-0.001,0.019-0.003,0.029-0.004c0.014-0.01,0.032-0.001,0.046-0.011c0.01-0.001,0.02-0.002,0.029-0.004
		c0.019-0.013,0.042,0,0.061-0.011c0.019-0.005,0.038-0.008,0.057-0.005c0.068-0.008,0.135-0.008,0.203,0
		c0.025-0.004,0.049-0.001,0.073,0.004c0.029,0.015,0.063-0.003,0.092,0.012c0.009,0.001,0.019,0.002,0.028,0.003
		c0.019,0.014,0.043,0,0.063,0.012c0.009,0.001,0.019,0.003,0.028,0.004c0.014,0.011,0.032,0.001,0.046,0.012
		c0.005-0.002,0.01-0.001,0.014,0.003c0.013,0.012,0.032,0.001,0.045,0.013c0.005,0.001,0.01,0.002,0.015,0.003
		c0.004,0.012,0.01,0.023-0.007,0.031c-0.019,0.009-0.038,0.012-0.058,0.012c-0.04,0-0.08-0.003-0.119,0.012
		c-0.016,0.006-0.035,0.003-0.052,0.003c-0.068,0-0.135,0-0.203,0c-0.052,0.001-0.105-0.005-0.156,0.013
		c-0.016,0.005-0.035,0.002-0.052,0.002c-0.085,0-0.171,0-0.256,0c-0.035,0-0.07-0.002-0.104,0.011
		c-0.018,0.007-0.04,0.004-0.06,0.004c-0.075,0-0.15,0-0.226,0c-0.042,0-0.085-0.003-0.126,0.012
		c-0.016,0.006-0.035,0.003-0.052,0.003c-0.123,0-0.246,0-0.369,0c0.001-0.015,0.001-0.03,0.002-0.045
		c0.019-0.066-0.003-0.134,0.013-0.2c0.002-0.065,0.002-0.13,0.006-0.194c0.009-0.162,0.019-0.324,0.029-0.485
		C16.517,5.186,16.515,5.166,16.526,5.148z"/>
	<path fill="#E10E8D" d="M18.12,6.901C18.212,6.9,18.305,6.9,18.397,6.899c0.027,0,0.054,0,0.081-0.009
		c0.018-0.006,0.039-0.006,0.059-0.006c0.065-0.001,0.13,0,0.195,0c0.057-0.001,0.114,0.006,0.171-0.013
		c0.018-0.006,0.04-0.001,0.06-0.002c0.036-0.002,0.041-0.008,0.051-0.05c0.001-0.005,0.002-0.01,0.002-0.015
		c0.019,0.028,0.018,0.062,0.023,0.094c0.022,0.165,0.028,0.33,0.01,0.495c-0.008,0.077-0.015,0.155-0.038,0.23
		c-0.016,0.02-0.036,0.032-0.064,0.03c-0.055-0.002-0.11-0.001-0.165,0c-0.045,0-0.09-0.004-0.134,0.012
		c-0.016,0.006-0.035,0.003-0.052,0.003c-0.078,0-0.155,0-0.233,0c-0.04,0-0.079,0.002-0.119,0.011
		c-0.041,0.009-0.085,0.004-0.127,0.003c-0.023-0.001-0.035-0.017-0.037-0.04c0,0,0.002-0.003,0.002-0.003
		c0.003-0.006,0.007-0.011,0.012-0.015l0.001-0.001c0.005-0.006,0.011-0.011,0.013-0.018c0.04-0.075,0.071-0.153,0.082-0.238
		c0.02-0.154,0.01-0.303-0.063-0.444C18.124,6.915,18.123,6.908,18.12,6.901z"/>
	<path fill="#EA0AAF" d="M17.901,5.963c-0.068,0.005-0.135,0.005-0.203,0C17.758,5.949,17.835,5.949,17.901,5.963z"/>
	<path fill="#EA0AAF" d="M16.48,5.886c0.001,0.056,0.001,0.112,0.002,0.168c0,0.013-0.004,0.024-0.014,0.032
		C16.466,6.019,16.463,5.952,16.48,5.886z"/>
	<path fill="#EA0AAF" d="M17.25,6.057c-0.031,0.016-0.043,0.012-0.045-0.015c-0.001-0.017-0.002-0.035,0.014-0.047
		c0,0.012,0.002,0.023,0.001,0.035C17.217,6.054,17.233,6.056,17.25,6.057z"/>
	<path fill="#EA0AAF" d="M18.066,5.979c-0.031,0-0.064,0.012-0.092-0.012C18.006,5.965,18.037,5.963,18.066,5.979z"/>
	<path fill="#EA0AAF" d="M17.221,5.967c0-0.031-0.012-0.064,0.013-0.092C17.236,5.907,17.237,5.938,17.221,5.967z"/>
	<path fill="#EA0AAF" d="M18.158,5.993c-0.022,0.002-0.045,0.009-0.063-0.012C18.117,5.98,18.139,5.979,18.158,5.993z"/>
	<path fill="#EA0AAF" d="M17.642,5.968c-0.017,0.019-0.04,0.013-0.061,0.011C17.599,5.965,17.62,5.965,17.642,5.968z"/>
	<path fill="#EA0AAF" d="M17.551,5.983c-0.013,0.016-0.03,0.014-0.047,0.011C17.518,5.981,17.534,5.981,17.551,5.983z"/>
	<path fill="#F206CD" d="M15.727,5.182c-0.017-0.012-0.014-0.029-0.012-0.047C15.727,5.148,15.729,5.164,15.727,5.182z"/>
	<path fill="#D9126D" d="M14.973,7.408c0.003,0.018,0.006,0.036-0.012,0.048C14.96,7.439,14.961,7.422,14.973,7.408z"/>
	<path fill="#EA0AAF" d="M17.416,6.013c-0.012,0.016-0.028,0.014-0.045,0.012C17.384,6.013,17.399,6.01,17.416,6.013z"/>
	<path fill="#EA0AAF" d="M18.231,6.009c-0.017,0.002-0.034,0.005-0.046-0.012C18.202,5.995,18.218,5.996,18.231,6.009z"/>
	<path fill="#EA0AAF" d="M18.291,6.025c-0.017,0.002-0.034,0.004-0.046-0.013C18.263,6.01,18.278,6.012,18.291,6.025z"/>
	<path fill="#EE08BC" d="M11.932,4.624c0-0.013,0.004-0.024,0.017-0.029C11.948,4.608,11.943,4.618,11.932,4.624z"/>
	<path fill="#EE08BC" d="M10.591,4.656c0,0.012-0.004,0.023-0.016,0.028C10.575,4.672,10.581,4.663,10.591,4.656z"/>
	<path fill="#EE08BC" d="M11.871,4.729c0-0.013,0.004-0.023,0.016-0.029C11.888,4.713,11.882,4.723,11.871,4.729z"/>
	<path fill="#EE08BC" d="M11.163,3.661c0,0.013-0.003,0.023-0.016,0.028C11.147,3.677,11.152,3.668,11.163,3.661z"/>
	<path fill="#EE08BC" d="M10.531,4.761c0,0.013-0.004,0.023-0.016,0.029C10.515,4.777,10.52,4.768,10.531,4.761z"/>
	<path fill="#F206CD" d="M15.682,5.031C15.67,5.024,15.668,5.013,15.67,5C15.68,5.008,15.684,5.018,15.682,5.031z"/>
	<path fill="#F206CD" d="M15.698,5.076c-0.013-0.008-0.015-0.02-0.012-0.034C15.697,5.051,15.7,5.063,15.698,5.076z"/>
	<path fill="#F206CD" d="M15.712,5.121c-0.013-0.008-0.014-0.021-0.011-0.034C15.712,5.096,15.714,5.108,15.712,5.121z"/>
	<path fill="#EE08BC" d="M11.058,3.843c0,0.012-0.004,0.023-0.016,0.028C11.042,3.858,11.048,3.849,11.058,3.843z"/>
	<path fill="#EE08BC" d="M10.757,4.369c0,0.013-0.003,0.023-0.016,0.029C10.741,4.385,10.746,4.376,10.757,4.369z"/>
	<path fill="#EE08BC" d="M10.998,3.948c0,0.013-0.003,0.023-0.016,0.028C10.982,3.964,10.987,3.954,10.998,3.948z"/>
	<path fill="#EA0AAF" d="M17.476,5.998c-0.009,0.012-0.021,0.013-0.034,0.01C17.451,5.997,17.463,5.996,17.476,5.998z"/>
	<path fill="#EA0AAF" d="M17.355,6.028c-0.008,0.013-0.021,0.013-0.034,0.01C17.331,6.027,17.343,6.026,17.355,6.028z"/>
	<path fill="#EE08BC" d="M10.937,4.053c0,0.013-0.003,0.023-0.016,0.029C10.921,4.069,10.927,4.059,10.937,4.053z"/>
	<path fill="#EA0AAF" d="M17.295,6.043c-0.008,0.012-0.019,0.013-0.032,0.011C17.272,6.043,17.283,6.042,17.295,6.043z"/>
	<path fill="#EE08BC" d="M10.877,4.158c0,0.013-0.003,0.023-0.015,0.029C10.862,4.175,10.867,4.165,10.877,4.158z"/>
	<path fill="#EE08BC" d="M10.817,4.264c0,0.012-0.004,0.023-0.016,0.028C10.801,4.28,10.807,4.271,10.817,4.264z"/>
	<path fill="#EE08BC" d="M12.097,4.338c0-0.013,0.004-0.024,0.017-0.029C12.114,4.321,12.108,4.331,12.097,4.338z"/>
	<path fill="#E10E8C" d="M11.345,7.366c-0.012-0.005-0.016-0.015-0.016-0.028C11.34,7.344,11.345,7.353,11.345,7.366z"/>
	<path fill="#E10E8C" d="M11.405,7.471c-0.013-0.005-0.017-0.016-0.016-0.028C11.4,7.449,11.406,7.458,11.405,7.471z"/>
	<path fill="#EE08BC" d="M12.037,4.443c0-0.013,0.004-0.023,0.016-0.029C12.053,4.427,12.048,4.436,12.037,4.443z"/>
	<path fill="#EE08BC" d="M10.696,4.474c0,0.013-0.003,0.024-0.016,0.029C10.68,4.491,10.685,4.481,10.696,4.474z"/>
	<path fill="#EE08BC" d="M11.976,4.548c0-0.012,0.004-0.023,0.016-0.028C11.993,4.532,11.987,4.541,11.976,4.548z"/>
	<path fill="#EE08BC" d="M11.149,3.706l-0.006,0c0,0-0.006,0-0.006,0c-0.001-0.008,0.003-0.014,0.011-0.016
		C11.148,3.695,11.148,3.7,11.149,3.706z"/>
	<path fill="#EE08BC" d="M11.131,3.717c0,0.008-0.004,0.014-0.011,0.018C11.12,3.727,11.123,3.72,11.131,3.717z"/>
	<path fill="#EE08BC" d="M11.115,3.745c0,0.01-0.004,0.016-0.012,0.021C11.103,3.756,11.107,3.749,11.115,3.745z"/>
	<path fill="#EE08BC" d="M11.103,3.766c-0.003,0.005-0.006,0.009-0.01,0.014C11.092,3.773,11.096,3.768,11.103,3.766z"/>
	<path fill="#EE08BC" d="M11.071,3.822c0,0.009-0.004,0.015-0.012,0.02C11.059,3.832,11.063,3.826,11.071,3.822z"/>
	<path fill="#EE08BC" d="M11.042,3.871c-0.003,0.005-0.007,0.01-0.01,0.015C11.032,3.878,11.035,3.873,11.042,3.871z"/>
	<path fill="#EE08BC" d="M11.026,3.899c0,0.008-0.003,0.014-0.011,0.017C11.015,3.908,11.019,3.902,11.026,3.899z"/>
	<path fill="#EE08BC" d="M11.01,3.927c0,0.009-0.004,0.016-0.012,0.02C10.998,3.937,11.002,3.931,11.01,3.927z"/>
	<path fill="#EE08BC" d="M10.982,3.976c-0.003,0.005-0.007,0.01-0.01,0.015C10.971,3.983,10.975,3.978,10.982,3.976z"/>
	<path fill="#EE08BC" d="M10.966,4.004c0,0.008-0.004,0.014-0.011,0.018C10.954,4.013,10.958,4.007,10.966,4.004z"/>
	<path fill="#EE08BC" d="M10.95,4.031c0,0.009-0.004,0.016-0.012,0.021C10.938,4.043,10.941,4.036,10.95,4.031z"/>
	<path fill="#EE08BC" d="M10.921,4.081c-0.003,0.005-0.007,0.01-0.01,0.016C10.91,4.089,10.914,4.084,10.921,4.081z"/>
	<path fill="#EE08BC" d="M10.905,4.108c0,0.008-0.004,0.015-0.011,0.018C10.894,4.118,10.897,4.112,10.905,4.108z"/>
	<path fill="#EE08BC" d="M10.889,4.136c0,0.01-0.004,0.017-0.012,0.021C10.877,4.148,10.881,4.141,10.889,4.136z"/>
	<path fill="#EE08BC" d="M10.862,4.188c-0.003,0.005-0.007,0.01-0.01,0.014C10.851,4.194,10.855,4.19,10.862,4.188z"/>
	<path fill="#EE08BC" d="M10.846,4.215c0,0.008-0.004,0.014-0.011,0.017C10.834,4.224,10.838,4.218,10.846,4.215z"/>
	<path fill="#EE08BC" d="M10.83,4.243c0,0.009-0.004,0.015-0.012,0.02C10.818,4.254,10.821,4.247,10.83,4.243z"/>
	<path fill="#EE08BC" d="M12.129,4.282c0-0.009,0.004-0.015,0.012-0.019C12.141,4.272,12.137,4.278,12.129,4.282z"/>
	<path fill="#EE08BC" d="M10.801,4.293c-0.003,0.005-0.007,0.01-0.01,0.015C10.79,4.3,10.794,4.295,10.801,4.293z"/>
	<path fill="#EE08BC" d="M12.113,4.309c0.004-0.005,0.007-0.011,0.011-0.016C12.125,4.302,12.121,4.307,12.113,4.309z"/>
	<path fill="#EE08BC" d="M10.785,4.32c0,0.008-0.004,0.014-0.011,0.018C10.774,4.329,10.777,4.323,10.785,4.32z"/>
	<path fill="#EE08BC" d="M12.085,4.359c0-0.009,0.004-0.016,0.012-0.021C12.097,4.348,12.093,4.355,12.085,4.359z"/>
	<path fill="#EE08BC" d="M10.769,4.348c0,0.009-0.004,0.016-0.012,0.02C10.757,4.359,10.761,4.352,10.769,4.348z"/>
	<path fill="#EE08BC" d="M11.087,3.794c0,0.008-0.004,0.013-0.011,0.017C11.076,3.802,11.079,3.797,11.087,3.794z"/>
	<path fill="#EE08BC" d="M12.069,4.387c0-0.008,0.004-0.014,0.011-0.018C12.081,4.377,12.077,4.383,12.069,4.387z"/>
	<path fill="#EE08BC" d="M10.741,4.398c-0.003,0.005-0.007,0.01-0.01,0.015C10.73,4.405,10.733,4.4,10.741,4.398z"/>
	<path fill="#EE08BC" d="M10.559,4.712c0,0.008-0.004,0.014-0.011,0.018C10.548,4.721,10.552,4.715,10.559,4.712z"/>
	<path fill="#EE08BC" d="M11.887,4.701c0.004-0.005,0.007-0.011,0.011-0.016C11.899,4.693,11.895,4.698,11.887,4.701z"/>
	<path fill="#EE08BC" d="M10.575,4.684c-0.003,0.005-0.007,0.01-0.01,0.015C10.564,4.691,10.568,4.687,10.575,4.684z"/>
	<path fill="#EE08BC" d="M11.903,4.674c0-0.008,0.004-0.015,0.011-0.019C11.915,4.664,11.911,4.67,11.903,4.674z"/>
	<path fill="#EE08BC" d="M10.604,4.635c0,0.009-0.004,0.016-0.012,0.02C10.592,4.646,10.595,4.639,10.604,4.635z"/>
	<path fill="#EE08BC" d="M10.62,4.607c0,0.008-0.004,0.014-0.011,0.017C10.608,4.616,10.612,4.61,10.62,4.607z"/>
	<path fill="#EE08BC" d="M11.948,4.596c0.004-0.005,0.007-0.011,0.011-0.016C11.959,4.588,11.956,4.593,11.948,4.596z"/>
	<path fill="#EE08BC" d="M10.636,4.579c-0.003,0.005-0.007,0.01-0.01,0.014C10.625,4.586,10.629,4.582,10.636,4.579z"/>
	<path fill="#EE08BC" d="M10.648,4.558c0,0.01-0.004,0.017-0.012,0.021C10.636,4.57,10.64,4.562,10.648,4.558z"/>
	<path fill="#EE08BC" d="M11.964,4.569c0-0.009,0.004-0.016,0.012-0.02C11.976,4.558,11.972,4.565,11.964,4.569z"/>
	<path fill="#EE08BC" d="M10.664,4.53c0,0.008-0.004,0.015-0.011,0.019C10.652,4.54,10.656,4.534,10.664,4.53z"/>
	<path fill="#F206CD" d="M15.665,4.986c-0.007-0.004-0.01-0.01-0.01-0.018C15.663,4.971,15.666,4.977,15.665,4.986z"/>
	<path fill="#EE08BC" d="M11.919,4.646c0-0.01,0.004-0.017,0.013-0.021C11.932,4.634,11.928,4.641,11.919,4.646z"/>
	<path fill="#E10E8C" d="M11.311,7.306C11.304,7.302,11.3,7.297,11.3,7.289C11.308,7.292,11.312,7.297,11.311,7.306z"/>
	<path fill="#E10E8C" d="M11.328,7.336c-0.008-0.004-0.012-0.01-0.011-0.019C11.325,7.321,11.329,7.327,11.328,7.336z"/>
	<path fill="#EE08BC" d="M10.543,4.74c0,0.009-0.004,0.016-0.012,0.02C10.531,4.751,10.535,4.744,10.543,4.74z"/>
	<path fill="#E10E8C" d="M11.355,7.381c-0.007-0.003-0.01-0.008-0.01-0.015C11.352,7.368,11.356,7.373,11.355,7.381z"/>
	<path fill="#E10E8C" d="M11.371,7.411c-0.008-0.003-0.011-0.009-0.011-0.017C11.369,7.397,11.372,7.403,11.371,7.411z"/>
	<path fill="#EE08BC" d="M11.992,4.519c0.004-0.005,0.007-0.01,0.011-0.015C12.003,4.512,11.999,4.517,11.992,4.519z"/>
	<path fill="#E10E8C" d="M11.389,7.442c-0.008-0.004-0.012-0.011-0.012-0.02C11.385,7.426,11.389,7.432,11.389,7.442z"/>
	<path fill="#EE08BC" d="M11.859,4.751c0-0.009,0.004-0.016,0.012-0.021C11.871,4.739,11.867,4.746,11.859,4.751z"/>
	<path fill="#EE08BC" d="M10.68,4.503c-0.003,0.005-0.007,0.011-0.01,0.016C10.669,4.51,10.673,4.505,10.68,4.503z"/>
	<path fill="#DA1170" d="M18.108,7.604c-0.001,0.009-0.005,0.015-0.013,0.018C18.096,7.614,18.1,7.608,18.108,7.604z"/>
	<path fill="#DA1170" d="M18.094,7.623c-0.004,0.005-0.008,0.01-0.012,0.015C18.082,7.63,18.087,7.625,18.094,7.623z"/>
	<path fill="#EE08BC" d="M12.008,4.492c0-0.008,0.004-0.014,0.011-0.018C12.02,4.483,12.016,4.488,12.008,4.492z"/>
	<path fill="#EE08BC" d="M10.709,4.453c0,0.009-0.004,0.016-0.012,0.021C10.696,4.464,10.7,4.457,10.709,4.453z"/>
	<path fill="#EE08BC" d="M12.024,4.464c0-0.009,0.004-0.016,0.012-0.021C12.037,4.453,12.033,4.46,12.024,4.464z"/>
	<path fill="#EE08BC" d="M10.725,4.425c0,0.008-0.004,0.014-0.011,0.018C10.713,4.435,10.717,4.429,10.725,4.425z"/>
	<path fill="#EE08BC" d="M12.053,4.414c0.004-0.005,0.007-0.01,0.011-0.016C12.064,4.407,12.06,4.412,12.053,4.414z"/>
	<path d="M10.403,11.265c-0.012,0-0.024,0.001-0.036,0c-0.21-0.018-0.42-0.036-0.63-0.053c-0.15-0.012-0.3-0.023-0.45-0.035
		c-0.158-0.013-0.315-0.026-0.473-0.039c-0.148-0.012-0.295-0.023-0.443-0.035c-0.065-0.005-0.13-0.011-0.195-0.015
		c-0.024-0.001-0.035-0.013-0.045-0.033c-0.037-0.077-0.076-0.153-0.113-0.229c-0.17-0.344-0.34-0.688-0.51-1.032
		C7.046,8.858,6.585,7.923,6.124,6.987C6.058,6.852,5.993,6.716,5.925,6.583C5.906,6.547,5.908,6.52,5.926,6.485
		c0.093-0.18,0.184-0.362,0.276-0.543c0.295-0.576,0.591-1.151,0.886-1.727C7.454,3.502,7.82,2.787,8.186,2.073
		c0.007-0.013,0.016-0.026,0.021-0.04C8.218,1.996,8.244,1.988,8.28,1.987C8.714,1.972,9.148,1.956,9.582,1.94
		c0.293-0.011,0.587-0.022,0.88-0.033c0.008,0,0.015-0.001,0.023-0.001c0.01,0,0.018,0.012,0.013,0.021
		c-0.01,0.02-0.021,0.04-0.032,0.06c-0.387,0.703-0.774,1.406-1.16,2.109C8.91,4.816,8.515,5.537,8.119,6.258
		C8.118,6.261,8.116,6.263,8.115,6.265C8.079,6.331,8.079,6.311,8.112,6.381c0.511,1.087,1.023,2.173,1.535,3.259
		c0.245,0.519,0.489,1.039,0.733,1.558C10.39,11.219,10.403,11.238,10.403,11.265z"/>
	<path d="M0.022,6.591c0.011-0.01,0.018-0.018,0.026-0.023c2.337-1.463,4.674-2.926,7.01-4.388C7.076,2.2,7.062,2.212,7.056,2.224
		C6.938,2.468,6.821,2.712,6.703,2.956C6.521,3.333,6.339,3.71,6.157,4.088c-0.392,0.813-0.784,1.626-1.176,2.44
		C4.945,6.603,4.945,6.58,4.982,6.658C5.46,7.653,5.938,8.647,6.416,9.642c0.244,0.509,0.488,1.017,0.732,1.526
		c0.008,0.017,0.02,0.034,0.022,0.053c-0.007,0.002-0.009,0.004-0.01,0.003c-0.005-0.001-0.01-0.003-0.014-0.006
		c-0.766-0.497-1.533-0.993-2.299-1.491C3.239,8.683,1.633,7.638,0.022,6.591z"/>
	<path d="M21.753,10.981c0.016-0.031,0.027-0.053,0.039-0.075c0.203-0.369,0.407-0.738,0.61-1.107
		c0.513-0.934,1.026-1.868,1.539-2.803c0.069-0.125,0.138-0.251,0.205-0.377c0.038-0.07,0.037-0.045,0.004-0.116
		c-0.151-0.322-0.303-0.644-0.455-0.966c-0.204-0.433-0.409-0.866-0.613-1.299c-0.4-0.848-0.799-1.697-1.198-2.545
		c-0.003-0.007-0.006-0.014-0.01-0.02c-0.022-0.049-0.021-0.052,0.029-0.048c0.1,0.007,0.2,0.014,0.3,0.022
		c0.085,0.007,0.17,0.015,0.255,0.022c0.243,0.02,0.485,0.04,0.728,0.059c0.153,0.012,0.305,0.023,0.458,0.035
		c0.138,0.011,0.275,0.022,0.413,0.033c0.01,0.001,0.02,0.003,0.03,0.004c0.023,0,0.036,0.014,0.045,0.034
		c0.005,0.011,0.011,0.023,0.016,0.034c0.366,0.742,0.733,1.483,1.099,2.225c0.361,0.731,0.72,1.462,1.081,2.193
		c0.003,0.007,0.006,0.014,0.01,0.02c0.019,0.028,0.016,0.054,0.001,0.084c-0.08,0.156-0.158,0.314-0.238,0.47
		c-0.477,0.931-0.954,1.861-1.431,2.791c-0.201,0.393-0.402,0.786-0.603,1.178c-0.008,0.016-0.016,0.031-0.024,0.047
		c-0.007,0.014-0.019,0.023-0.036,0.023c-0.033,0.001-0.065,0.003-0.098,0.004c-0.386,0.014-0.773,0.029-1.159,0.043
		c-0.191,0.007-0.381,0.013-0.572,0.02c-0.12,0.004-0.241,0.009-0.361,0.014C21.801,10.981,21.783,10.981,21.753,10.981z"/>
	<path d="M24.966,2.183c0.028-0.004,0.045,0.018,0.066,0.031c0.305,0.19,0.609,0.38,0.913,0.57c0.704,0.44,1.409,0.88,2.113,1.321
		c1.291,0.808,2.582,1.617,3.872,2.425c0.017,0.011,0.034,0.021,0.05,0.033c0.015,0.01,0.014,0.026-0.001,0.037
		c-0.014,0.01-0.029,0.02-0.044,0.029c-0.13,0.085-0.261,0.169-0.392,0.254c-1.431,0.929-2.862,1.859-4.293,2.788
		c-0.772,0.502-1.544,1.004-2.316,1.506c-0.022,0.015-0.046,0.028-0.071,0.044c-0.008-0.027,0.008-0.042,0.016-0.059
		c0.11-0.231,0.221-0.461,0.332-0.692c0.558-1.162,1.117-2.323,1.675-3.485c0.056-0.118,0.113-0.235,0.168-0.353
		c0.027-0.058,0.028-0.037,0-0.097c-0.136-0.283-0.272-0.565-0.409-0.847c-0.237-0.49-0.474-0.98-0.71-1.47
		c-0.316-0.655-0.631-1.31-0.946-1.966c-0.01-0.022-0.03-0.041-0.024-0.069L24.966,2.183z"/>
	<polygon points="24.964,2.185 24.954,2.18 24.961,2.173 24.966,2.183 	"/>
	<path fill="#666666" d="M7.063,6.283c-0.143,0-0.286,0-0.429,0c-0.017,0-0.035-0.001-0.052-0.003
		c-0.01-0.001-0.012-0.011-0.01-0.017c0.007-0.019,0.015-0.037,0.024-0.055c0.12-0.235,0.24-0.469,0.36-0.703
		c0.143-0.279,0.286-0.558,0.428-0.838c0.11-0.214,0.219-0.429,0.329-0.643C7.922,3.618,8.13,3.212,8.339,2.806
		c0.052-0.1,0.106-0.199,0.155-0.301c0.022-0.046,0.051-0.064,0.099-0.062c0.043,0.002,0.085,0,0.128-0.002
		c0.201-0.006,0.401-0.009,0.602-0.02c0.105-0.006,0.21-0.008,0.316-0.012c0.01,0,0.02,0,0.03,0.001
		C9.68,2.412,9.685,2.42,9.681,2.431C9.676,2.445,9.669,2.459,9.662,2.472c-0.121,0.22-0.243,0.439-0.364,0.659
		C9.201,3.307,9.105,3.483,9.009,3.659c-0.13,0.237-0.261,0.475-0.391,0.712C8.521,4.547,8.425,4.723,8.329,4.899
		C8.205,5.123,8.081,5.347,7.957,5.571C7.863,5.742,7.769,5.914,7.675,6.086c-0.028,0.051-0.057,0.1-0.083,0.152
		c-0.015,0.031-0.034,0.045-0.07,0.044c-0.073-0.002-0.146,0-0.218,0c-0.08,0-0.161,0-0.241,0C7.063,6.282,7.063,6.282,7.063,6.283z
		"/>
	<path fill="#EA0AAF" d="M8.298,10.32c-0.007-0.01-0.014-0.02-0.02-0.031C8.119,9.966,7.961,9.644,7.802,9.322
		c-0.004-0.009-0.007-0.019-0.01-0.028c0.039-0.041,0.032-0.093,0.032-0.142c0-0.677,0-1.354,0.001-2.031
		c0-0.051-0.012-0.107,0.039-0.146c0.013,0.009,0.017,0.024,0.023,0.038c0.153,0.325,0.306,0.65,0.459,0.975
		C8.352,8,8.356,8.015,8.361,8.029C8.374,8.068,8.37,8.108,8.37,8.148c0,0.675,0,1.351,0,2.026c0,0.033,0.003,0.066-0.006,0.097
		C8.356,10.304,8.344,10.336,8.298,10.32z"/>
	<path fill="#F007C6" d="M7.864,6.974C7.851,7.013,7.848,7.052,7.848,7.093c0.001,0.695,0,1.391,0,2.086c0,0.02,0,0.04,0,0.06
		c-0.001,0.05-0.001,0.05-0.057,0.055C7.788,9.291,7.786,9.287,7.787,9.282C7.784,9.276,7.78,9.27,7.777,9.264
		C7.773,9.261,7.771,9.257,7.772,9.252C7.769,9.246,7.765,9.24,7.762,9.234C7.758,9.231,7.756,9.227,7.757,9.221
		C7.754,9.216,7.75,9.21,7.747,9.204C7.743,9.201,7.741,9.197,7.742,9.191C7.739,9.186,7.735,9.18,7.732,9.174
		C7.674,9.058,7.616,8.943,7.558,8.827C7.48,8.671,7.403,8.514,7.326,8.358C7.317,8.34,7.311,8.321,7.304,8.303
		c0.022-0.041,0.023-0.086,0.023-0.131c0-0.428,0-0.856,0-1.284c0-0.095-0.005-0.099-0.104-0.1c-0.188-0.001-0.375,0-0.563-0.001
		c-0.037,0-0.076,0.005-0.107-0.024c0.03-0.016,0.063-0.009,0.095-0.009c0.205-0.002,0.41-0.002,0.614-0.003
		c0.147,0,0.295-0.001,0.442-0.001c0.06,0,0.062-0.008,0.083,0.06c0.01,0.007,0.006,0.021,0.014,0.029
		c0.004,0.002,0.005,0.005,0.004,0.009c0,0.009,0.006,0.014,0.011,0.021c0.004,0.002,0.005,0.006,0.004,0.01
		c0.001,0.008,0.006,0.013,0.01,0.02C7.835,6.902,7.837,6.905,7.835,6.91c0.001,0.007,0.007,0.012,0.01,0.019
		c0.001,0.005,0.003,0.009,0.004,0.014C7.857,6.952,7.854,6.966,7.864,6.974L7.864,6.974z"/>
	<path fill="#E50C9C" d="M8.298,10.32c0.029-0.003,0.046-0.017,0.047-0.047c0.001-0.023,0-0.045,0-0.068c0-0.686,0-1.372,0-2.058
		c0-0.04,0.003-0.08,0.016-0.118c0.008,0.013,0.017,0.025,0.023,0.038C8.522,8.358,8.659,8.65,8.796,8.942
		C8.803,8.957,8.808,8.974,8.814,8.99c0.018,0.055,0.024,0.112,0.024,0.17c-0.001,0.443,0,0.887,0,1.33c0,0.013,0,0.025,0,0.038
		c-0.002,0.127-0.018,0.14-0.148,0.123c-0.072,0.003-0.144-0.006-0.215-0.013c-0.016-0.002-0.028-0.009-0.035-0.024
		C8.393,10.516,8.337,10.422,8.298,10.32z"/>
	<path fill="#DF0F86" d="M8.689,10.651c0.022-0.001,0.045-0.001,0.067-0.002c0.043-0.002,0.054-0.013,0.056-0.053
		c0.001-0.02,0-0.04,0-0.06c0-0.485,0-0.971,0-1.456c0-0.03,0.001-0.06,0.001-0.09c0.022,0.022,0.03,0.052,0.042,0.079
		c0.22,0.469,0.44,0.938,0.66,1.407c0.032,0.068,0.064,0.136,0.095,0.204c0.006,0.013,0.016,0.026,0.008,0.045
		c-0.048,0.007-0.098-0.001-0.147-0.004c-0.085-0.006-0.169-0.016-0.254-0.022c-0.16-0.013-0.32-0.024-0.479-0.036
		C8.722,10.661,8.704,10.662,8.689,10.651z"/>
	<path fill="#F505D9" d="M6.554,6.763c0.236,0,0.472,0.001,0.708,0.001c0.023,0,0.045,0.001,0.067,0.003
		c0.011,0.001,0.018,0.008,0.02,0.019c0.002,0.015,0.003,0.03,0.003,0.045c0,0.464,0,0.928,0,1.392c0,0.008,0,0.015,0,0.023
		c0.001,0.033-0.015,0.052-0.047,0.057c0,0,0,0,0,0c-0.003-0.006-0.006-0.012-0.01-0.018C7.29,8.283,7.288,8.279,7.29,8.274
		c-0.002-0.007-0.007-0.013-0.01-0.019C7.249,8.197,7.219,8.14,7.19,8.082C7.01,7.718,6.83,7.355,6.651,6.991
		c-0.032-0.065-0.064-0.13-0.095-0.196C6.552,6.786,6.538,6.775,6.554,6.763z"/>
	<path fill="#EA0AAF" d="M7.802,6.839C7.791,6.832,7.788,6.822,7.788,6.81C7.798,6.817,7.803,6.826,7.802,6.839z"/>
	<path fill="#EA0AAF" d="M7.864,6.974C7.851,6.967,7.848,6.956,7.849,6.943C7.86,6.951,7.865,6.961,7.864,6.974z"/>
	<path fill="#EA0AAF" d="M7.817,6.869C7.809,6.864,7.805,6.857,7.806,6.848C7.814,6.852,7.817,6.86,7.817,6.869z"/>
	<path fill="#EA0AAF" d="M7.831,6.899c-0.007-0.005-0.011-0.011-0.01-0.02C7.829,6.883,7.832,6.89,7.831,6.899z"/>
	<path fill="#EA0AAF" d="M7.845,6.929c-0.007-0.004-0.01-0.01-0.01-0.019C7.843,6.914,7.846,6.92,7.845,6.929z"/>
	<path fill="#F007C6" d="M7.279,8.255c0.003,0.006,0.007,0.013,0.01,0.019C7.282,8.27,7.279,8.264,7.279,8.255z"/>
	<path fill="#F007C6" d="M7.294,8.285c0.007,0.004,0.011,0.009,0.01,0.018C7.296,8.3,7.293,8.294,7.294,8.285z"/>
	<path fill="#EA0AAF" d="M7.732,9.174c0.003,0.006,0.007,0.011,0.01,0.017C7.735,9.188,7.731,9.182,7.732,9.174z"/>
	<path fill="#EA0AAF" d="M7.747,9.204c0.003,0.006,0.007,0.011,0.01,0.017C7.75,9.218,7.746,9.212,7.747,9.204z"/>
	<path fill="#EA0AAF" d="M7.762,9.234c0.007,0.004,0.01,0.01,0.01,0.018C7.765,9.248,7.761,9.243,7.762,9.234z"/>
	<path fill="#EA0AAF" d="M7.777,9.264c0.007,0.004,0.01,0.01,0.01,0.018C7.78,9.278,7.776,9.273,7.777,9.264z"/>
	<path fill="#E90AAA" d="M4.564,6.297c-0.014,0.054-0.045,0.1-0.067,0.15C4.479,6.485,4.461,6.524,4.441,6.562
		C4.431,6.581,4.428,6.598,4.44,6.618c0.008,0.013,0.013,0.027,0.02,0.041c0.17,0.355,0.34,0.709,0.509,1.064
		c0.007,0.016,0.013,0.032,0.019,0.049C4.98,7.837,4.927,7.838,4.881,7.84C4.766,7.845,4.65,7.851,4.535,7.853
		C4.332,7.856,4.13,7.87,3.926,7.873C3.633,7.879,3.341,7.901,3.047,7.902C3,7.902,2.952,7.901,2.905,7.898
		C2.862,7.872,2.819,7.847,2.777,7.82C2.338,7.535,1.898,7.251,1.46,6.966C1.29,6.855,1.12,6.743,0.951,6.632
		c-0.016-0.011-0.037-0.016-0.045-0.04C0.913,6.586,0.92,6.579,0.928,6.574c0.11-0.069,0.221-0.138,0.331-0.207
		C1.265,6.363,1.273,6.361,1.28,6.359c0.036,0.035,0.081,0.037,0.126,0.034c0.323-0.025,0.646-0.019,0.969-0.042
		c0.142-0.01,0.286-0.01,0.428-0.013c0.211-0.005,0.421-0.014,0.631-0.022c0.333-0.013,0.667-0.017,0.999-0.04
		C4.478,6.273,4.525,6.263,4.564,6.297z"/>
	<path fill="#F106CA" d="M4.564,6.297C4.499,6.299,4.434,6.29,4.37,6.31C4.354,6.315,4.335,6.312,4.317,6.312
		c-0.075,0-0.151,0-0.226,0c-0.045,0-0.09-0.004-0.134,0.012C3.942,6.33,3.923,6.327,3.905,6.327c-0.075,0-0.151,0-0.226,0
		c-0.042,0-0.085-0.004-0.127,0.012C3.537,6.345,3.518,6.342,3.5,6.342c-0.068,0-0.136,0-0.203,0
		C3.244,6.343,3.192,6.337,3.14,6.355C3.124,6.36,3.105,6.357,3.088,6.357c-0.085,0-0.171,0-0.256,0
		c-0.035,0-0.07-0.001-0.104,0.011c-0.018,0.007-0.04,0.004-0.06,0.004c-0.073,0-0.146,0-0.218,0c-0.045,0-0.09-0.004-0.134,0.012
		C2.3,6.39,2.281,6.387,2.263,6.387c-0.083,0-0.166,0-0.249,0c-0.04,0-0.08-0.003-0.119,0.012C1.88,6.405,1.861,6.402,1.843,6.402
		c-0.068,0-0.136,0-0.203,0C1.587,6.403,1.536,6.404,1.483,6.413C1.427,6.423,1.368,6.417,1.31,6.416
		c-0.022,0-0.03-0.015-0.03-0.035c0-0.008,0-0.015,0-0.023c0,0,0.002-0.001,0.002-0.001c0.006-0.01,0.021-0.007,0.027-0.017l0,0
		c0.005-0.004,0.01-0.007,0.015-0.011C1.326,6.326,1.33,6.324,1.335,6.324c0.008-0.001,0.014-0.007,0.02-0.012l0.001,0
		c0.004-0.005,0.008-0.008,0.014-0.01c0.003-0.005,0.007-0.007,0.013-0.006C1.389,6.293,1.394,6.287,1.4,6.283l0.002-0.001
		c0.006-0.01,0.021-0.006,0.027-0.017l0,0c0.005-0.004,0.01-0.007,0.015-0.011C1.447,6.25,1.451,6.249,1.455,6.249
		c0.008-0.001,0.014-0.006,0.02-0.012l0.001-0.001C1.48,6.232,1.484,6.228,1.49,6.226C1.493,6.221,1.497,6.219,1.502,6.22
		C1.51,6.218,1.515,6.212,1.521,6.208l0.002-0.001C1.529,6.197,1.544,6.201,1.55,6.19l0,0c0.005-0.004,0.01-0.007,0.015-0.011
		c0.002-0.004,0.006-0.006,0.011-0.006c0.009-0.001,0.014-0.006,0.02-0.012l0.001-0.001C1.6,6.156,1.605,6.153,1.61,6.15
		c0.003-0.005,0.007-0.007,0.012-0.006C1.63,6.142,1.635,6.137,1.641,6.132l0.002-0.001c0.007-0.01,0.021-0.006,0.027-0.017l0,0
		c0.005-0.004,0.01-0.007,0.016-0.011C1.688,6.1,1.692,6.098,1.696,6.098c0.009-0.001,0.014-0.006,0.02-0.012l0.001-0.001
		c0.004-0.004,0.009-0.008,0.014-0.01C1.734,6.07,1.738,6.068,1.743,6.069c0.007-0.002,0.013-0.007,0.018-0.012l0.002-0.001
		C1.77,6.046,1.785,6.05,1.791,6.039l0,0c0.005-0.004,0.01-0.007,0.015-0.011c0.002-0.004,0.006-0.006,0.011-0.006
		c0.009-0.001,0.014-0.006,0.02-0.012L1.837,6.01C1.841,6.006,1.846,6.002,1.851,6c0.003-0.005,0.007-0.007,0.012-0.006
		c0.008-0.002,0.013-0.007,0.018-0.012l0.002-0.001c0.007-0.01,0.021-0.006,0.027-0.017l0,0c0.005-0.003,0.01-0.007,0.016-0.011
		c0.002-0.004,0.006-0.006,0.011-0.006c0.009-0.001,0.014-0.006,0.02-0.012l0.001-0.001c0.004-0.004,0.009-0.008,0.014-0.01
		C1.975,5.92,1.979,5.918,1.984,5.918c0.008-0.002,0.013-0.007,0.018-0.012l0.002-0.001c0.007-0.009,0.021-0.006,0.027-0.017l0,0
		c0.005-0.003,0.011-0.007,0.016-0.011c0.002-0.004,0.006-0.006,0.011-0.006c0.009,0,0.015-0.006,0.02-0.012l0.001-0.001
		c0.004-0.004,0.009-0.008,0.014-0.01c0.003-0.005,0.007-0.007,0.012-0.006c0.008-0.001,0.013-0.007,0.018-0.012L2.125,5.83
		c0.007-0.009,0.022-0.006,0.027-0.017l0,0C2.157,5.81,2.163,5.806,2.168,5.802c0.002-0.004,0.006-0.006,0.01-0.006
		c0.009,0,0.015-0.006,0.02-0.012c0.014-0.01,0.027-0.021,0.042-0.031c0.418-0.262,0.836-0.523,1.254-0.785
		C3.513,4.957,3.53,4.942,3.553,4.938c0.089,0.04,0.184,0.032,0.274,0.022c0.18-0.021,0.361-0.014,0.541-0.022
		c0.218-0.009,0.435-0.027,0.654-0.02c0.038,0.001,0.075-0.005,0.112-0.009c0.032-0.004,0.065-0.009,0.092,0.018
		C5.222,4.937,5.219,4.949,5.214,4.96C5.038,5.325,4.862,5.689,4.686,6.054C4.68,6.065,4.673,6.075,4.667,6.086
		c-0.004,0.006-0.009,0.012-0.01,0.019c0.001,0.005,0,0.008-0.004,0.011c-0.004,0.006-0.01,0.012-0.011,0.02
		c0.001,0.004,0,0.008-0.004,0.01c-0.005,0.006-0.01,0.012-0.011,0.021c0.001,0.004,0,0.007-0.004,0.009
		C4.618,6.182,4.612,6.189,4.612,6.197c0.001,0.004,0,0.007-0.004,0.009C4.6,6.214,4.603,6.228,4.594,6.235l0,0.001
		c-0.008,0.008-0.005,0.022-0.015,0.03l0,0C4.57,6.275,4.573,6.288,4.564,6.297L4.564,6.297z"/>
	<path fill="#E00E87" d="M2.905,7.898c0.012-0.021,0.033-0.019,0.053-0.019c0.09,0,0.181,0,0.271,0c0.045,0,0.09,0.004,0.134-0.012
		C3.378,7.86,3.397,7.863,3.415,7.863c0.083,0,0.166,0,0.248,0c0.04,0,0.08,0.002,0.119-0.012c0.018-0.006,0.04-0.003,0.06-0.003
		c0.078,0,0.156,0,0.233,0c0.037,0,0.075,0.002,0.111-0.011c0.018-0.007,0.04-0.004,0.06-0.004c0.078,0,0.156,0,0.233,0
		c0.045,0,0.09,0.003,0.134-0.012c0.018-0.006,0.04-0.003,0.06-0.003c0.073,0,0.145,0,0.218,0c0.04,0,0.074-0.01,0.096-0.047
		c0.016,0.013,0.021,0.033,0.03,0.051C5.314,8.439,5.61,9.056,5.906,9.673C5.939,9.741,5.97,9.809,6.002,9.877
		c0.004,0.009,0.011,0.018,0.004,0.027c-0.009,0.011-0.018,0-0.025-0.004C5.895,9.845,5.808,9.79,5.722,9.733
		c-0.13-0.085-0.259-0.172-0.39-0.256C4.543,8.965,3.754,8.454,2.965,7.942C2.944,7.929,2.92,7.919,2.905,7.898z"/>
	<path fill="#F803E3" d="M5.226,4.926c-0.04,0.002-0.08-0.003-0.119,0.012c-0.018,0.007-0.04,0.003-0.06,0.004
		c-0.07,0-0.141,0-0.211,0c-0.047,0-0.095-0.005-0.141,0.012C4.679,4.959,4.66,4.956,4.643,4.956c-0.08,0-0.161,0-0.241,0
		c-0.042,0-0.085-0.003-0.126,0.012C4.26,4.974,4.241,4.971,4.223,4.971c-0.068,0-0.136,0-0.203,0
		C3.968,4.972,3.915,4.965,3.864,4.984c-0.004,0.002-0.01,0.001-0.015,0.001c-0.08,0-0.161,0-0.241,0
		c-0.033,0-0.051-0.016-0.055-0.049C3.571,4.924,3.589,4.91,3.608,4.899C3.982,4.664,4.357,4.43,4.731,4.196
		c0.374-0.235,0.748-0.47,1.122-0.705C5.877,3.475,5.9,3.456,5.934,3.446c0.003,0.025-0.01,0.042-0.018,0.058
		C5.827,3.687,5.739,3.87,5.65,4.053C5.521,4.322,5.391,4.591,5.262,4.86C5.251,4.882,5.238,4.904,5.226,4.926z"/>
	<path fill="#E90AAA" d="M2.152,5.813C2.148,5.826,2.137,5.83,2.125,5.83C2.131,5.819,2.14,5.813,2.152,5.813z"/>
	<path fill="#E90AAA" d="M2.032,5.888C2.027,5.901,2.017,5.905,2.004,5.905C2.01,5.894,2.019,5.889,2.032,5.888z"/>
	<path fill="#E90AAA" d="M1.911,5.964C1.907,5.977,1.896,5.981,1.884,5.981C1.89,5.97,1.899,5.964,1.911,5.964z"/>
	<path fill="#E90AAA" d="M1.791,6.039C1.786,6.052,1.776,6.056,1.763,6.056C1.769,6.045,1.778,6.04,1.791,6.039z"/>
	<path fill="#E90AAA" d="M1.67,6.115C1.666,6.128,1.655,6.131,1.643,6.131C1.649,6.121,1.658,6.115,1.67,6.115z"/>
	<path fill="#E90AAA" d="M1.55,6.19C1.545,6.203,1.535,6.207,1.523,6.207C1.528,6.196,1.537,6.19,1.55,6.19z"/>
	<path fill="#E90AAA" d="M4.594,6.235c0-0.012,0.003-0.023,0.014-0.029C4.609,6.219,4.604,6.228,4.594,6.235z"/>
	<path fill="#E90AAA" d="M4.579,6.266c-0.001-0.013,0.003-0.023,0.015-0.03C4.594,6.249,4.59,6.259,4.579,6.266z"/>
	<path fill="#E90AAA" d="M4.564,6.297c-0.001-0.013,0.003-0.024,0.015-0.03C4.58,6.279,4.575,6.289,4.564,6.297z"/>
	<path fill="#E90AAA" d="M1.309,6.341C1.304,6.354,1.294,6.357,1.282,6.358C1.288,6.347,1.296,6.341,1.309,6.341z"/>
	<path fill="#E90AAA" d="M1.429,6.266C1.425,6.278,1.414,6.282,1.402,6.282C1.408,6.271,1.417,6.266,1.429,6.266z"/>
	<path fill="#E90AAA" d="M2.168,5.802C2.165,5.809,2.16,5.813,2.152,5.813C2.154,5.805,2.16,5.802,2.168,5.802z"/>
	<path fill="#E90AAA" d="M1.836,6.011c-0.004,0.008-0.01,0.013-0.02,0.012C1.821,6.014,1.827,6.01,1.836,6.011z"/>
	<path fill="#E90AAA" d="M2.123,5.831c-0.004,0.008-0.01,0.012-0.018,0.012C2.108,5.834,2.114,5.831,2.123,5.831z"/>
	<path fill="#E90AAA" d="M1.806,6.029C1.803,6.036,1.798,6.039,1.791,6.039C1.793,6.031,1.798,6.028,1.806,6.029z"/>
	<path fill="#E90AAA" d="M2.092,5.849c-0.005,0.003-0.009,0.007-0.014,0.01C2.08,5.852,2.085,5.848,2.092,5.849z"/>
	<path fill="#E90AAA" d="M2.198,5.784c-0.004,0.008-0.01,0.013-0.02,0.012C2.182,5.788,2.189,5.784,2.198,5.784z"/>
	<path fill="#E90AAA" d="M2.003,5.906c-0.004,0.007-0.01,0.012-0.018,0.012C1.988,5.91,1.994,5.906,2.003,5.906z"/>
	<path fill="#E90AAA" d="M1.762,6.057c-0.004,0.007-0.01,0.012-0.018,0.012C1.747,6.061,1.753,6.057,1.762,6.057z"/>
	<path fill="#E90AAA" d="M1.731,6.075c-0.005,0.003-0.009,0.007-0.014,0.01C1.719,6.078,1.723,6.074,1.731,6.075z"/>
	<path fill="#E90AAA" d="M1.716,6.086c-0.004,0.008-0.01,0.012-0.02,0.012C1.7,6.09,1.707,6.086,1.716,6.086z"/>
	<path fill="#E90AAA" d="M4.656,6.105c0-0.009,0.003-0.015,0.01-0.019C4.668,6.095,4.664,6.101,4.656,6.105z"/>
	<path fill="#E90AAA" d="M1.686,6.104C1.683,6.111,1.678,6.115,1.67,6.115C1.672,6.107,1.678,6.103,1.686,6.104z"/>
	<path fill="#E90AAA" d="M1.972,5.924c-0.005,0.003-0.009,0.007-0.014,0.01C1.96,5.927,1.964,5.924,1.972,5.924z"/>
	<path fill="#E90AAA" d="M4.641,6.136c0-0.009,0.003-0.015,0.011-0.02C4.653,6.125,4.65,6.132,4.641,6.136z"/>
	<path fill="#E90AAA" d="M1.641,6.132C1.637,6.14,1.631,6.144,1.623,6.144C1.626,6.136,1.632,6.132,1.641,6.132z"/>
	<path fill="#E90AAA" d="M1.61,6.15c-0.005,0.003-0.009,0.007-0.014,0.01C1.598,6.154,1.603,6.15,1.61,6.15z"/>
	<path fill="#E90AAA" d="M4.627,6.167C4.626,6.158,4.63,6.151,4.637,6.146C4.638,6.155,4.635,6.162,4.627,6.167z"/>
	<path fill="#E90AAA" d="M1.595,6.161c-0.004,0.008-0.01,0.012-0.02,0.012C1.58,6.165,1.586,6.161,1.595,6.161z"/>
	<path fill="#E90AAA" d="M1.565,6.179C1.562,6.186,1.557,6.19,1.55,6.19C1.552,6.182,1.557,6.179,1.565,6.179z"/>
	<path fill="#E90AAA" d="M4.612,6.197C4.611,6.188,4.615,6.181,4.623,6.176C4.624,6.186,4.62,6.193,4.612,6.197z"/>
	<path fill="#E90AAA" d="M1.957,5.935c-0.004,0.008-0.01,0.013-0.02,0.012C1.941,5.939,1.948,5.935,1.957,5.935z"/>
	<path fill="#E90AAA" d="M1.521,6.208C1.517,6.215,1.511,6.219,1.502,6.22C1.506,6.211,1.512,6.208,1.521,6.208z"/>
	<path fill="#E90AAA" d="M2.077,5.86c-0.004,0.008-0.01,0.013-0.02,0.012C2.062,5.864,2.068,5.86,2.077,5.86z"/>
	<path fill="#E90AAA" d="M1.49,6.226c-0.005,0.003-0.009,0.007-0.014,0.01C1.478,6.229,1.482,6.225,1.49,6.226z"/>
	<path fill="#E90AAA" d="M1.475,6.237c-0.004,0.008-0.01,0.012-0.02,0.012C1.459,6.241,1.466,6.237,1.475,6.237z"/>
	<path fill="#E90AAA" d="M1.927,5.953C1.924,5.96,1.919,5.964,1.911,5.964C1.913,5.956,1.919,5.953,1.927,5.953z"/>
	<path fill="#E90AAA" d="M1.445,6.255c-0.003,0.007-0.008,0.01-0.015,0.011C1.431,6.258,1.437,6.254,1.445,6.255z"/>
	<path fill="#E90AAA" d="M1.4,6.283C1.396,6.291,1.39,6.295,1.382,6.295C1.385,6.287,1.391,6.283,1.4,6.283z"/>
	<path fill="#E90AAA" d="M1.369,6.301C1.365,6.305,1.36,6.308,1.355,6.312C1.357,6.304,1.362,6.301,1.369,6.301z"/>
	<path fill="#E90AAA" d="M1.355,6.312c-0.004,0.008-0.01,0.012-0.02,0.012C1.339,6.316,1.345,6.312,1.355,6.312z"/>
	<path fill="#E90AAA" d="M1.324,6.33c-0.005,0.004-0.01,0.007-0.015,0.011C1.311,6.333,1.316,6.33,1.324,6.33z"/>
	<path fill="#E90AAA" d="M2.047,5.878C2.044,5.885,2.039,5.888,2.032,5.888C2.034,5.881,2.039,5.877,2.047,5.878z"/>
	<path fill="#E90AAA" d="M1.882,5.982c-0.004,0.007-0.01,0.012-0.018,0.012C1.867,5.985,1.873,5.981,1.882,5.982z"/>
	<path fill="#E90AAA" d="M1.851,6C1.847,6.003,1.842,6.007,1.837,6.01C1.839,6.003,1.844,5.999,1.851,6z"/>
	<path fill="#666666" d="M25.693,6.599c-0.001,0.034-0.016,0.053-0.026,0.072c-0.19,0.373-0.38,0.747-0.571,1.12
		c-0.194,0.38-0.39,0.759-0.584,1.138c-0.215,0.42-0.43,0.84-0.645,1.259c-0.038,0.074-0.077,0.147-0.115,0.22
		c-0.01,0.02-0.024,0.031-0.047,0.03c-0.002,0-0.005,0-0.008,0c-0.12,0.005-0.241,0.01-0.361,0.014
		c-0.201,0.007-0.401,0.013-0.602,0.019c-0.017,0.001-0.035,0.004-0.052,0.006c-0.035,0.004-0.07,0.007-0.104,0.001
		c-0.01-0.018,0.001-0.031,0.008-0.043c0.141-0.257,0.282-0.515,0.423-0.772c0.148-0.268,0.296-0.536,0.444-0.804
		c0.092-0.167,0.183-0.334,0.275-0.502c0.129-0.235,0.259-0.47,0.389-0.705c0.093-0.169,0.186-0.339,0.278-0.508
		c0.09-0.165,0.181-0.33,0.27-0.496c0.019-0.036,0.041-0.05,0.082-0.05c0.256,0.001,0.512,0,0.768-0.001
		C25.575,6.599,25.632,6.599,25.693,6.599z"/>
	<path fill="#EA0AAF" d="M24.408,5.935c-0.013-0.009-0.017-0.025-0.023-0.038c-0.158-0.335-0.316-0.67-0.474-1.006
		c-0.007-0.016-0.012-0.033-0.018-0.049c-0.017-0.119-0.023-0.239-0.022-0.359c0.001-0.588,0.001-1.176,0.001-1.764
		c0-0.045-0.002-0.09,0.01-0.134c0.009-0.03,0.013-0.066,0.057-0.068c0.008,0.013,0.016,0.025,0.022,0.039
		c0.156,0.315,0.312,0.63,0.468,0.945c0.009,0.018,0.015,0.037,0.022,0.055c-0.014,0.069-0.02,0.138-0.02,0.208
		c0,0.634,0,1.269,0,1.903c0,0.048,0.003,0.095,0.009,0.143C24.446,5.855,24.447,5.9,24.408,5.935z"/>
	<path fill="#F007C6" d="M24.408,5.935c0-0.018,0.003-0.035,0.009-0.051c0.009-0.024,0.01-0.051,0.001-0.074
		c-0.012-0.032-0.01-0.064-0.01-0.097c0-0.665,0-1.33-0.001-1.995c0-0.051,0.013-0.099,0.02-0.148
		c0.002-0.011,0.015-0.012,0.024-0.015c0.004,0.002,0.005,0.005,0.004,0.009c0,0.009,0.006,0.015,0.011,0.021
		c0.004,0.002,0.005,0.005,0.004,0.009c0,0.009,0.006,0.014,0.011,0.021c0.015,0.029,0.032,0.057,0.046,0.086
		c0.125,0.254,0.25,0.508,0.375,0.762c0.007,0.013,0.011,0.028,0.016,0.042c-0.011,0.059-0.02,0.118-0.02,0.178
		c0,0.426,0,0.852,0,1.277c0,0.015,0,0.03,0.001,0.045c0.006,0.073,0.018,0.087,0.093,0.087c0.208,0.001,0.416,0.001,0.624,0
		c0.03,0,0.06-0.001,0.09,0.005c0.011,0.024,0.01,0.031-0.005,0.032C25.688,6.13,25.676,6.13,25.663,6.13
		c-0.363,0.001-0.726,0.002-1.09,0.003c-0.088,0-0.071,0.011-0.11-0.071C24.449,6.03,24.43,6,24.422,5.966
		C24.413,5.957,24.417,5.943,24.408,5.935L24.408,5.935z"/>
	<path fill="#E40C99" d="M23.938,2.516c-0.011,0.006-0.022,0.014-0.025,0.027c-0.009,0.041-0.019,0.082-0.019,0.125
		c0.001,0.656,0.001,1.312,0.001,1.968c0,0.02-0.004,0.042,0.003,0.06c0.02,0.05,0.011,0.098-0.005,0.146
		c-0.008-0.013-0.017-0.024-0.023-0.038c-0.154-0.329-0.308-0.657-0.462-0.986c-0.005-0.011-0.008-0.023-0.012-0.035
		c-0.013-0.489-0.004-0.979-0.004-1.468c0-0.035-0.016-0.094,0.057-0.087c0.042,0.001,0.084,0.002,0.126,0.004
		c0.067,0.004,0.134,0.011,0.201,0.015c0.026,0.001,0.042,0.012,0.052,0.034C23.863,2.36,23.908,2.434,23.938,2.516z"/>
	<path fill="#F505D7" d="M25.706,6.097c-0.008,0.011-0.018,0.017-0.031,0.018c-0.015,0.001-0.03,0.001-0.045,0.001
		c-0.22,0-0.441,0-0.661,0c-0.015,0-0.03,0-0.045-0.001c-0.016,0-0.028-0.007-0.034-0.024c-0.008-0.024-0.016-0.047-0.015-0.073
		c0.001-0.038,0-0.075,0-0.113c0-0.413,0.001-0.826-0.001-1.239c0-0.051,0.013-0.098,0.02-0.147
		c0.002-0.011,0.014-0.012,0.024-0.015c0.004,0.002,0.005,0.005,0.004,0.009c0.001,0.009,0.006,0.014,0.011,0.021
		c0.004,0.002,0.006,0.005,0.004,0.01c0.001,0.009,0.006,0.014,0.011,0.021c0.004,0.002,0.006,0.005,0.004,0.01
		c0.001,0.008,0.006,0.014,0.011,0.02c0.004,0.002,0.006,0.006,0.004,0.01c0.001,0.008,0.006,0.014,0.011,0.02
		c0.01,0.017,0.021,0.034,0.03,0.052c0.226,0.457,0.453,0.915,0.679,1.373C25.694,6.064,25.699,6.081,25.706,6.097z"/>
	<path fill="#DF0F84" d="M23.448,2.227c-0.018,0.004-0.034,0.012-0.034,0.033c-0.001,0.023-0.001,0.045-0.001,0.068
		c0,0.454,0,0.908,0,1.363c0,0.02,0,0.04-0.001,0.06c0,0.013-0.007,0.024-0.018,0.031c-0.021-0.023-0.03-0.052-0.042-0.079
		c-0.205-0.435-0.41-0.871-0.615-1.306c-0.03-0.063-0.06-0.127-0.089-0.191c-0.006-0.013-0.017-0.026-0.013-0.042
		c0.01-0.011,0.023-0.007,0.035-0.006c0.18,0.014,0.36,0.029,0.54,0.043c0.07,0.006,0.14,0.011,0.21,0.017
		C23.429,2.219,23.438,2.224,23.448,2.227z"/>
	<path fill="#EA0AAF" d="M24.408,5.935c0.012,0.007,0.015,0.018,0.015,0.031C24.411,5.958,24.407,5.948,24.408,5.935z"/>
	<path fill="#EA0AAF" d="M24.466,3.585c-0.008-0.005-0.012-0.012-0.011-0.021C24.463,3.568,24.467,3.576,24.466,3.585z"/>
	<path fill="#EA0AAF" d="M24.481,3.615C24.473,3.61,24.47,3.603,24.47,3.594C24.478,3.599,24.482,3.606,24.481,3.615z"/>
	<path fill="#F007C6" d="M24.978,4.624c-0.007-0.005-0.011-0.011-0.011-0.02C24.975,4.608,24.979,4.615,24.978,4.624z"/>
	<path fill="#F007C6" d="M24.963,4.594c-0.008-0.005-0.011-0.012-0.011-0.02C24.96,4.578,24.964,4.585,24.963,4.594z"/>
	<path fill="#F007C6" d="M24.948,4.564c-0.008-0.005-0.011-0.012-0.011-0.021C24.945,4.548,24.949,4.555,24.948,4.564z"/>
	<path fill="#F007C6" d="M24.933,4.534c-0.008-0.005-0.011-0.012-0.011-0.021C24.93,4.518,24.934,4.525,24.933,4.534z"/>
	<path fill="#EC09B5" d="M29.038,5.284c0.026,0.005,0.045,0.022,0.066,0.035c0.65,0.406,1.3,0.813,1.95,1.22
		c0.023,0.014,0.046,0.03,0.067,0.044c-0.005,0.02-0.019,0.025-0.031,0.033c-0.103,0.067-0.206,0.134-0.309,0.201
		c-0.199,0.13-0.398,0.261-0.598,0.391c-0.021,0.014-0.043,0.025-0.065,0.038c-0.103,0.05-0.216,0.046-0.324,0.05
		c-0.173,0.007-0.345,0.012-0.518,0.018c-0.378,0.014-0.755,0.026-1.133,0.042c-0.18,0.008-0.36,0.015-0.54,0.019
		c-0.083,0.002-0.165-0.003-0.248,0.008c-0.048,0.006-0.092-0.002-0.101-0.062c0.002-0.005,0.004-0.01,0.006-0.015
		c0.003-0.006,0.006-0.011,0.01-0.017c-0.001-0.005,0.001-0.01,0.005-0.013c0.004-0.006,0.007-0.012,0.01-0.018
		c-0.001-0.005,0.001-0.009,0.005-0.013c0.004-0.006,0.007-0.012,0.01-0.018c-0.001-0.005,0.001-0.009,0.005-0.012
		c0.004-0.006,0.009-0.011,0.01-0.019c-0.001-0.005,0.001-0.009,0.005-0.012c0.004-0.006,0.01-0.011,0.01-0.019
		c-0.001-0.005,0.001-0.008,0.004-0.011c0.005-0.006,0.01-0.012,0.01-0.02c-0.001-0.004,0.001-0.008,0.004-0.01
		c0.008-0.008,0.004-0.021,0.014-0.028l0-0.001c0.008-0.008,0.005-0.022,0.014-0.029c0.028-0.062,0.054-0.123,0.083-0.184
		c0.039-0.084,0.079-0.168,0.121-0.25c0.016-0.032,0.016-0.058,0-0.091c-0.086-0.175-0.171-0.351-0.256-0.527
		c-0.097-0.201-0.194-0.401-0.291-0.602c-0.007-0.015-0.019-0.03-0.018-0.049c0.063-0.013,0.124,0.011,0.186,0.008
		c0.352-0.02,0.706-0.026,1.058-0.041c0.198-0.009,0.395-0.021,0.593-0.019C28.916,5.31,28.978,5.305,29.038,5.284z"/>
	<path fill="#E00E8A" d="M27.253,7.321c0.007,0.007,0.015,0.014,0.02,0.022c0.013,0.019,0.031,0.028,0.052,0.023
		c0.122-0.027,0.245-0.009,0.367-0.014c0.035-0.002,0.07,0.001,0.104-0.011c0.018-0.007,0.04-0.004,0.06-0.004
		c0.073,0,0.146,0,0.218,0c0.045,0,0.09,0.004,0.134-0.012c0.016-0.006,0.035-0.003,0.052-0.003c0.075,0,0.151,0,0.226,0
		c0.042,0,0.085,0.004,0.127-0.012c0.016-0.006,0.035-0.003,0.052-0.003c0.073,0,0.146,0,0.218,0
		c0.052-0.001,0.105,0.005,0.157-0.013c0.016-0.005,0.035-0.002,0.052-0.002c0.08,0,0.161,0,0.241,0c0.035,0,0.07,0.002,0.104-0.011
		c0.018-0.007,0.04-0.004,0.06-0.004c0.08,0,0.161,0,0.241,0c0.042,0,0.085,0.005,0.126-0.013c0.002-0.001,0.005-0.001,0.007-0.001
		c0.083,0.007,0.164-0.015,0.246-0.016c-0.015,0.021-0.039,0.031-0.06,0.044c-0.822,0.533-1.644,1.066-2.466,1.598
		c-0.017,0.011-0.035,0.02-0.052,0.029c-0.088,0.049-0.184,0.052-0.282,0.056C27.045,8.98,26.83,8.98,26.616,8.999
		c-0.027,0.002-0.055,0.004-0.082-0.002c-0.043-0.01-0.068-0.032-0.048-0.08c0.005-0.014,0.009-0.028,0.016-0.042
		c0.241-0.503,0.483-1.006,0.725-1.51C27.234,7.349,27.238,7.331,27.253,7.321z"/>
	<path fill="#F704DF" d="M29.038,5.284c-0.021,0.035-0.05,0.052-0.094,0.049c-0.068-0.003-0.135-0.001-0.203-0.001
		c-0.045,0-0.09-0.004-0.134,0.012c-0.016,0.006-0.035,0.003-0.052,0.003c-0.075,0-0.151,0-0.226,0
		c-0.042,0-0.085-0.004-0.127,0.012c-0.016,0.006-0.035,0.003-0.052,0.003c-0.068,0-0.136,0-0.203,0
		c-0.052,0.001-0.105-0.005-0.157,0.013c-0.016,0.005-0.035,0.002-0.052,0.002c-0.085,0-0.171,0-0.256,0
		c-0.035,0-0.07-0.002-0.104,0.011c-0.016,0.006-0.035,0.004-0.052,0.004c-0.055,0-0.111-0.002-0.166,0.001
		c-0.052,0.002-0.099-0.008-0.145-0.031c-0.012-0.022-0.025-0.043-0.035-0.066c-0.174-0.359-0.348-0.717-0.521-1.076
		c-0.117-0.242-0.232-0.484-0.348-0.725c-0.008-0.016-0.015-0.032-0.022-0.048c0.017-0.018,0.028,0.001,0.038,0.007
		c0.266,0.166,0.532,0.332,0.798,0.498c0.667,0.419,1.334,0.838,2.001,1.256c0.017,0.011,0.033,0.023,0.049,0.034
		c0.006,0.005,0.011,0.011,0.019,0.012c0.005,0,0.009,0.002,0.012,0.006c0.005,0.003,0.01,0.006,0.015,0.011l0.001,0
		C29.023,5.278,29.028,5.285,29.038,5.284L29.038,5.284z"/>
	<path fill="#D91170" d="M26.486,8.916c0.01,0.057,0.013,0.061,0.064,0.062c0.037,0,0.075,0.004,0.112-0.009
		c0.018-0.006,0.039-0.005,0.059-0.005c0.073-0.001,0.145,0,0.218,0c0.047,0,0.095,0.004,0.141-0.012
		c0.016-0.006,0.035-0.002,0.052-0.002c0.058,0,0.115-0.001,0.173,0c0.063,0.001,0.125,0.002,0.184-0.025
		c0.015-0.007,0.034-0.004,0.052-0.005c-0.017,0.023-0.043,0.033-0.066,0.048c-0.355,0.231-0.71,0.46-1.065,0.691
		c-0.12,0.078-0.238,0.157-0.358,0.235c-0.01,0.007-0.021,0.012-0.031,0.018c-0.014-0.011-0.006-0.02-0.002-0.028
		c0.15-0.314,0.3-0.628,0.45-0.942C26.473,8.932,26.48,8.924,26.486,8.916z"/>
	<path fill="#E00E8A" d="M27.376,7.066c0.001,0.013-0.002,0.023-0.014,0.029C27.36,7.082,27.365,7.073,27.376,7.066z"/>
	<path fill="#E00E8A" d="M27.361,7.096c0.001,0.012-0.002,0.022-0.014,0.028C27.346,7.112,27.351,7.103,27.361,7.096z"/>
	<path fill="#EC09B5" d="M29.037,5.284c-0.009,0.001-0.015-0.003-0.018-0.011C29.027,5.272,29.034,5.275,29.037,5.284z"/>
	<path fill="#EC09B5" d="M29.018,5.272c-0.007,0-0.012-0.004-0.015-0.011C29.012,5.26,29.016,5.264,29.018,5.272z"/>
	<path fill="#EC09B5" d="M28.991,5.255c-0.009,0-0.015-0.004-0.019-0.012C28.982,5.243,28.988,5.246,28.991,5.255z"/>
	<path fill="#E00E8A" d="M27.343,7.135c0.001,0.009-0.003,0.015-0.01,0.02C27.331,7.146,27.335,7.139,27.343,7.135z"/>
	<path fill="#E00E8A" d="M27.328,7.166c0.001,0.009-0.003,0.015-0.01,0.019C27.317,7.176,27.32,7.17,27.328,7.166z"/>
	<path fill="#E00E8A" d="M27.313,7.196c0.001,0.008-0.003,0.015-0.01,0.019C27.302,7.207,27.305,7.2,27.313,7.196z"/>
	<path fill="#E00E8A" d="M27.298,7.227c0.001,0.008-0.003,0.014-0.01,0.018C27.288,7.237,27.291,7.231,27.298,7.227z"/>
	<path fill="#E00E8A" d="M27.284,7.258c0.001,0.008-0.003,0.014-0.01,0.018C27.273,7.267,27.276,7.261,27.284,7.258z"/>
	<path fill="#E00E8A" d="M27.269,7.288c0.001,0.008-0.003,0.014-0.01,0.017C27.258,7.297,27.261,7.292,27.269,7.288z"/>
</g>
</svg>
