<?xml version="1.0" encoding="utf-8"?>
<!-- Generator: Adobe Illustrator 24.3.0, SVG Export Plug-In . SVG Version: 6.00 Build 0)  -->
<svg version="1.1" id="Слой_1" xmlns="http://www.w3.org/2000/svg" xmlns:xlink="http://www.w3.org/1999/xlink" x="0px" y="0px"
	 width="32px" height="13px" viewBox="0 0 32 13" enable-background="new 0 0 32 13" xml:space="preserve">
<g>
	<path d="M15.931,12.812c-1.105,0-2.209,0-3.314,0c-0.014,0-0.028-0.002-0.041,0c-0.05,0.009-0.077-0.014-0.101-0.057
		c-0.142-0.259-0.287-0.516-0.431-0.773c-0.116-0.208-0.233-0.415-0.35-0.622c-0.141-0.251-0.281-0.503-0.422-0.755
		c-0.115-0.206-0.231-0.411-0.346-0.616c-0.142-0.253-0.284-0.507-0.426-0.761c-0.116-0.208-0.233-0.415-0.35-0.622
		C10.032,8.394,9.914,8.182,9.795,7.97C9.681,7.767,9.567,7.563,9.453,7.36C9.338,7.154,9.222,6.949,9.106,6.743
		C9.094,6.722,9.091,6.704,9.104,6.681c0.111-0.195,0.22-0.391,0.33-0.586c0.144-0.257,0.288-0.515,0.433-0.772
		C9.983,5.115,10.1,4.907,10.216,4.7c0.14-0.249,0.279-0.499,0.419-0.749c0.116-0.208,0.233-0.415,0.35-0.622
		c0.12-0.214,0.239-0.427,0.359-0.641c0.094-0.168,0.188-0.335,0.282-0.503c0.142-0.254,0.284-0.507,0.426-0.761
		c0.116-0.208,0.233-0.415,0.35-0.622c0.031-0.056,0.063-0.111,0.094-0.168c0.01-0.018,0.022-0.028,0.043-0.027
		c0.016,0.001,0.032,0,0.048,0c2.228,0,4.455,0,6.683,0c0.025,0,0.053-0.004,0.074,0.005c0.023,0.01,0.028,0.04,0.04,0.062
		c0.146,0.259,0.291,0.519,0.436,0.778c0.116,0.208,0.233,0.415,0.35,0.622c0.14,0.249,0.279,0.499,0.419,0.749
		c0.115,0.206,0.231,0.411,0.346,0.617c0.142,0.253,0.284,0.507,0.426,0.761c0.114,0.204,0.228,0.407,0.343,0.611
		c0.122,0.217,0.244,0.435,0.366,0.653c0.113,0.202,0.226,0.403,0.339,0.605c0.113,0.202,0.226,0.403,0.34,0.604
		c0.016,0.027,0.015,0.048,0,0.075c-0.137,0.241-0.272,0.482-0.407,0.724c-0.161,0.287-0.322,0.575-0.483,0.862
		c-0.117,0.21-0.235,0.419-0.353,0.629c-0.14,0.249-0.279,0.499-0.419,0.748c-0.117,0.21-0.235,0.419-0.353,0.628
		c-0.14,0.249-0.279,0.499-0.419,0.749c-0.115,0.206-0.231,0.411-0.346,0.617c-0.142,0.253-0.284,0.507-0.426,0.761
		c-0.059,0.106-0.12,0.211-0.178,0.317c-0.011,0.021-0.025,0.031-0.049,0.029c-0.02-0.002-0.041,0-0.062,0
		C18.145,12.812,17.038,12.812,15.931,12.812z"/>
	<path d="M20.972,2.267c0.016,0,0.034,0,0.052,0c0.408-0.001,0.816-0.001,1.224-0.002c0.417-0.001,0.834-0.001,1.251-0.002
		c0.474-0.001,0.949-0.003,1.423-0.004c0.953-0.002,1.907-0.003,2.86-0.005c0.518-0.001,1.036-0.002,1.554-0.002
		c0.088,0,0.065-0.012,0.102,0.063c0.142,0.284,0.281,0.57,0.422,0.855c0.124,0.25,0.248,0.5,0.371,0.75
		c0.123,0.248,0.244,0.497,0.367,0.745c0.141,0.285,0.283,0.57,0.423,0.855c0.142,0.287,0.283,0.574,0.425,0.861
		c0.018,0.037,0.035,0.075,0.055,0.11c0.014,0.024,0.014,0.044,0.002,0.07c-0.089,0.186-0.176,0.372-0.263,0.559
		c-0.171,0.364-0.342,0.729-0.513,1.093c-0.096,0.205-0.193,0.41-0.29,0.614c-0.138,0.294-0.276,0.588-0.415,0.882
		c-0.116,0.246-0.232,0.493-0.348,0.739c-0.079,0.168-0.158,0.335-0.237,0.503c-0.002,0.004-0.004,0.008-0.006,0.012
		c-0.025,0.058-0.023,0.05-0.082,0.052c-0.066,0.002-0.133,0.002-0.199,0.002c-0.85,0.007-1.7,0.013-2.551,0.021
		c-0.61,0.005-1.219,0.011-1.829,0.017c-0.474,0.004-0.949,0.008-1.423,0.013c-0.536,0.006-1.072,0.013-1.608,0.019
		c-0.273,0.003-0.545,0.004-0.818,0.005c-0.018,0-0.036,0.005-0.053-0.005c-0.004-0.016,0.006-0.026,0.012-0.038
		c0.153-0.287,0.306-0.573,0.458-0.86c0.191-0.36,0.381-0.72,0.572-1.079c0.175-0.329,0.351-0.658,0.526-0.987
		c0.171-0.321,0.341-0.643,0.511-0.964c0.104-0.196,0.208-0.392,0.314-0.587c0.016-0.03,0.014-0.053-0.002-0.081
		c-0.072-0.13-0.143-0.261-0.214-0.391c-0.141-0.259-0.283-0.518-0.424-0.777c-0.113-0.207-0.226-0.413-0.339-0.62
		c-0.214-0.392-0.427-0.783-0.641-1.175c-0.186-0.341-0.373-0.683-0.559-1.024c-0.036-0.066-0.072-0.133-0.108-0.199
		C20.973,2.293,20.966,2.283,20.972,2.267z"/>
	<path d="M11.07,11.118c-0.041,0-0.071,0-0.101,0c-0.795-0.007-1.59-0.013-2.386-0.02c-0.502-0.004-1.004-0.008-1.505-0.014
		c-0.571-0.006-1.141-0.014-1.712-0.02c-0.335-0.004-0.669-0.005-1.004-0.008c-0.589-0.005-1.178-0.011-1.767-0.017
		c-0.089-0.001-0.069,0.013-0.109-0.073c-0.116-0.246-0.232-0.493-0.347-0.739C2.002,9.934,1.864,9.64,1.725,9.346
		C1.606,9.094,1.487,8.842,1.368,8.589C1.256,8.351,1.144,8.113,1.032,7.875c-0.1-0.213-0.2-0.426-0.3-0.64
		c-0.1-0.213-0.2-0.427-0.301-0.639c-0.014-0.029-0.016-0.052,0-0.083c0.131-0.262,0.261-0.524,0.39-0.787
		C0.943,5.478,1.065,5.23,1.187,4.981c0.1-0.203,0.201-0.406,0.302-0.609c0.146-0.295,0.292-0.591,0.438-0.886
		c0.139-0.281,0.278-0.562,0.417-0.843c0.05-0.1,0.099-0.201,0.148-0.302c0.005-0.01,0.012-0.02,0.015-0.031
		c0.01-0.028,0.03-0.035,0.059-0.035c0.188,0.001,0.376,0.001,0.564,0.001C3.485,2.279,3.84,2.28,4.195,2.281
		c0.754,0.001,1.508,0.001,2.262,0.002c0.477,0.001,0.953,0.001,1.43,0.003c0.472,0.001,0.944,0.003,1.416,0.004
		c0.536,0.001,1.073,0.003,1.609,0.004c0.016,0,0.032,0,0.045,0c0.011,0.015,0.003,0.024-0.002,0.034
		c-0.075,0.139-0.151,0.277-0.227,0.416c-0.14,0.257-0.28,0.514-0.42,0.771c-0.113,0.207-0.226,0.413-0.339,0.62
		c-0.137,0.251-0.273,0.502-0.41,0.753C9.447,5.093,9.335,5.297,9.223,5.502c-0.16,0.293-0.32,0.587-0.48,0.88
		c-0.027,0.05-0.054,0.101-0.083,0.15c-0.011,0.019-0.009,0.033,0,0.051c0.054,0.101,0.107,0.202,0.161,0.303
		C8.976,7.177,9.13,7.468,9.285,7.759c0.09,0.17,0.182,0.339,0.272,0.508c0.133,0.25,0.266,0.501,0.399,0.752
		c0.112,0.21,0.223,0.42,0.335,0.63c0.154,0.289,0.307,0.578,0.461,0.867c0.09,0.17,0.181,0.339,0.271,0.509
		C11.037,11.052,11.051,11.081,11.07,11.118z"/>
	<path fill="#666666" d="M13.143,11.967c-0.005-0.016,0.003-0.026,0.008-0.036c0.13-0.255,0.261-0.509,0.391-0.764
		c0.005-0.01,0.011-0.02,0.017-0.03c0.008-0.012,0.02-0.019,0.035-0.019c0.023,0,0.046,0,0.069,0c1.549,0,3.098,0,4.648,0
		c0.032,0,0.069,0.012,0.094-0.008c0.022-0.017,0.033-0.048,0.048-0.074c0.116-0.208,0.232-0.416,0.349-0.623
		c0.14-0.25,0.28-0.499,0.42-0.748c0.114-0.204,0.228-0.408,0.342-0.611c0.143-0.256,0.287-0.511,0.43-0.767
		c0.142-0.254,0.284-0.507,0.426-0.761c0.136-0.244,0.274-0.487,0.409-0.731c0.042-0.075,0.048-0.063-0.001-0.148
		c-0.077-0.133-0.15-0.268-0.225-0.401c-0.075-0.134-0.15-0.267-0.226-0.401c-0.05-0.09-0.101-0.18-0.151-0.27
		c-0.078-0.14-0.157-0.279-0.235-0.419c-0.049-0.088-0.098-0.176-0.148-0.263c-0.076-0.136-0.153-0.271-0.229-0.407
		c-0.074-0.132-0.147-0.264-0.221-0.396c-0.077-0.138-0.155-0.275-0.232-0.413c-0.073-0.13-0.145-0.26-0.218-0.389
		c-0.078-0.14-0.157-0.279-0.235-0.419c-0.073-0.13-0.145-0.26-0.218-0.39c-0.025-0.044-0.049-0.088-0.073-0.132
		c-0.009-0.016-0.02-0.024-0.038-0.024c-0.016,0-0.032,0-0.048,0c-1.593,0-3.186,0-4.778,0c-0.005,0-0.009,0-0.014,0
		c-0.063,0.001-0.06-0.005-0.091,0.051c-0.084,0.152-0.17,0.304-0.255,0.455c-0.093,0.166-0.187,0.331-0.28,0.496
		c-0.076,0.136-0.151,0.272-0.227,0.408C12.594,3.9,12.5,4.065,12.407,4.231c-0.074,0.132-0.147,0.264-0.221,0.396
		c-0.077,0.138-0.155,0.275-0.232,0.413c-0.076,0.136-0.151,0.272-0.227,0.408c-0.09,0.162-0.181,0.323-0.272,0.485
		c-0.074,0.132-0.148,0.263-0.222,0.395c-0.059,0.106-0.119,0.211-0.178,0.317c-0.01,0.018-0.019,0.037-0.03,0.054
		c-0.011,0.018-0.01,0.033,0.001,0.051c0.069,0.121,0.138,0.243,0.206,0.365c0.076,0.136,0.151,0.272,0.227,0.408
		c0.074,0.132,0.148,0.263,0.222,0.395c0.047,0.084,0.094,0.168,0.141,0.251c0.043,0.076,0.085,0.152,0.127,0.228
		c0.011,0.02,0.021,0.041,0.032,0.061c0.006,0.012,0.005,0.022-0.003,0.031c-0.007,0.009-0.014,0.018-0.022,0.027
		c-0.066,0.073-0.132,0.146-0.197,0.22c-0.082,0.092-0.163,0.186-0.245,0.278c-0.035,0.039-0.071,0.078-0.106,0.116
		c-0.018-0.001-0.021-0.017-0.027-0.028c-0.084-0.15-0.168-0.299-0.252-0.449c-0.097-0.172-0.194-0.343-0.29-0.514
		c-0.075-0.134-0.149-0.268-0.224-0.402c-0.074-0.132-0.148-0.263-0.222-0.395c-0.049-0.088-0.099-0.176-0.148-0.263
		c-0.057-0.102-0.114-0.204-0.171-0.305c-0.002-0.004-0.004-0.008-0.007-0.012c-0.016-0.023-0.016-0.045-0.001-0.07
		c0.039-0.067,0.075-0.136,0.114-0.204c0.14-0.25,0.28-0.499,0.42-0.748c0.149-0.265,0.297-0.531,0.446-0.797
		c0.18-0.321,0.361-0.642,0.542-0.964c0.116-0.208,0.232-0.416,0.348-0.623c0.14-0.25,0.28-0.499,0.42-0.748
		c0.093-0.166,0.185-0.332,0.278-0.497c0.1-0.178,0.2-0.355,0.299-0.533c0.016-0.028,0.031-0.056,0.046-0.084
		c0.007-0.013,0.018-0.02,0.033-0.02c0.016,0,0.032,0,0.048,0c1.916,0,3.832,0,5.748,0c0.079,0,0.066-0.009,0.105,0.062
		c0.173,0.307,0.345,0.615,0.518,0.922c0.111,0.198,0.221,0.395,0.332,0.593c0.125,0.224,0.251,0.447,0.377,0.67
		c0.115,0.206,0.23,0.412,0.345,0.617c0.141,0.252,0.283,0.503,0.424,0.754c0.093,0.166,0.185,0.332,0.278,0.497
		c0.1,0.178,0.2,0.355,0.299,0.533c0.072,0.128,0.143,0.256,0.214,0.384c0.033,0.06,0.065,0.121,0.101,0.18
		c0.016,0.027,0.019,0.047,0.003,0.075c-0.049,0.083-0.095,0.167-0.142,0.251c-0.054,0.096-0.107,0.192-0.161,0.287
		c-0.077,0.138-0.155,0.275-0.232,0.413c-0.049,0.088-0.098,0.176-0.148,0.264c-0.079,0.142-0.159,0.283-0.238,0.425
		c-0.074,0.132-0.147,0.264-0.221,0.396c-0.076,0.136-0.152,0.271-0.229,0.407c-0.049,0.088-0.099,0.175-0.148,0.263
		c-0.081,0.144-0.161,0.287-0.242,0.431c-0.073,0.13-0.145,0.26-0.217,0.39c-0.075,0.134-0.151,0.267-0.226,0.401
		c-0.075,0.134-0.149,0.268-0.224,0.402c-0.075,0.134-0.15,0.267-0.225,0.401c-0.052,0.092-0.103,0.184-0.154,0.276
		c-0.03,0.054-0.061,0.108-0.089,0.162c-0.017,0.031-0.038,0.05-0.076,0.045c-0.013-0.002-0.027,0-0.041,0c-1.856,0-3.713,0-5.569,0
		C13.195,11.972,13.168,11.976,13.143,11.967z"/>
	<path fill="#7FA813" d="M16.087,6.875c-0.012-0.021-0.009-0.045-0.009-0.067c0-0.124-0.004-0.247,0.001-0.371
		c0.01-0.263,0.036-0.525,0.105-0.78c0.041-0.151,0.096-0.295,0.175-0.431c0.163-0.278,0.4-0.454,0.714-0.525
		c0.191-0.044,0.385-0.051,0.58-0.033c0.119,0.012,0.236,0.031,0.348,0.072c0.207,0.076,0.377,0.203,0.507,0.383
		c0.12,0.166,0.194,0.352,0.246,0.548c0.047,0.179,0.075,0.362,0.087,0.548c0.004,0.057,0.015,0.114,0.009,0.171
		c-0.066,0.041-0.142,0.021-0.213,0.029c-0.18,0.021-0.362,0.034-0.543,0.052c-0.016,0.002-0.032,0.003-0.047-0.004
		c-0.044-0.059-0.034-0.131-0.037-0.197c-0.009-0.165-0.027-0.328-0.073-0.487c-0.037-0.124-0.09-0.24-0.205-0.315
		c-0.013-0.009-0.026-0.02-0.041-0.025c-0.25-0.084-0.545-0.053-0.664,0.264c-0.054,0.145-0.077,0.296-0.095,0.448
		c-0.019,0.16-0.01,0.32-0.014,0.479c-0.001,0.031,0.008,0.065-0.023,0.089c-0.038-0.018-0.029-0.054-0.03-0.084
		c-0.001-0.041-0.015-0.057-0.058-0.053c-0.216,0.019-0.432,0.036-0.648,0.059c-0.038,0.004-0.051,0.024-0.051,0.059
		c0,0.032,0.001,0.064-0.001,0.096C16.108,6.826,16.112,6.854,16.087,6.875z"/>
	<path fill="#919C16" d="M14.124,5.968c0.002,0.022,0.001,0.043-0.005,0.065c-0.069,0.028-0.143,0.02-0.215,0.026
		c-0.136,0.012-0.271,0.033-0.407,0.034c-0.065,0-0.071-0.011-0.064-0.078c-0.003-0.05-0.001-0.1,0.006-0.149
		c0.007-0.027-0.004-0.057,0.008-0.084c-0.001-0.078,0.001-0.155,0.009-0.233c0.001-0.011,0.003-0.023,0.003-0.034
		c0.006-0.119,0.012-0.238,0.019-0.356c0.008-0.135,0.017-0.269,0.025-0.404c0.002-0.029,0.008-0.034,0.038-0.036
		c0.018-0.001,0.037-0.001,0.055-0.001c0.662,0,1.324,0,1.986,0c0.106,0,0.092-0.005,0.092,0.092c0.001,0.195,0,0.389,0,0.584
		c0,0.06,0,0.061-0.061,0.061c-0.245,0-0.49,0-0.735,0c-0.202,0-0.403-0.001-0.605,0c-0.096,0-0.08-0.015-0.095,0.089
		c-0.019,0.136-0.034,0.272-0.05,0.408C14.128,5.958,14.127,5.963,14.124,5.968z"/>
	<path fill="#70B211" d="M13.434,6.015c0,0.007,0,0.014,0.001,0.02c0.005,0.033,0.008,0.038,0.036,0.038
		c0.047-0.001,0.096,0.008,0.142-0.01c0.01-0.004,0.023-0.003,0.034-0.003c0.036-0.001,0.072,0.001,0.108-0.011
		c0.016-0.006,0.036-0.002,0.054-0.003c0.036-0.001,0.072,0.001,0.108-0.011c0.019-0.006,0.041-0.002,0.061-0.003
		C14,6.032,14.023,6.037,14.04,6.029c0.029-0.013,0.053-0.003,0.079,0.004c0.003,0.021-0.001,0.041-0.005,0.061
		c-0.006,0.031-0.008,0.063-0.005,0.096c0.062-0.007,0.116-0.026,0.17-0.042c0.195-0.058,0.391-0.061,0.591-0.037
		c0.096,0.012,0.188,0.037,0.279,0.067c0.154,0.05,0.283,0.138,0.389,0.259c0.072,0.082,0.124,0.175,0.161,0.277
		c0.041,0.112,0.064,0.228,0.076,0.347c0.01,0.098,0.01,0.196,0.008,0.294c0,0.022,0.003,0.046-0.01,0.067
		c-0.014-0.011-0.017-0.026-0.02-0.042c-0.014-0.077-0.014-0.076-0.089-0.069c-0.201,0.019-0.403,0.037-0.604,0.053
		c-0.021,0.002-0.041,0.002-0.058-0.013c-0.004-0.064,0-0.128-0.014-0.191c-0.012-0.054-0.026-0.106-0.053-0.155
		c-0.06-0.108-0.158-0.163-0.274-0.188c-0.09-0.019-0.181-0.015-0.273-0.009C14.257,6.82,14.127,6.845,14,6.882
		c-0.027,0.008-0.055,0.005-0.081-0.001c-0.163-0.036-0.325-0.073-0.488-0.11c-0.007-0.002-0.013-0.004-0.02-0.006
		c-0.025-0.008-0.027-0.012-0.025-0.04c0.003-0.036,0.005-0.073,0.007-0.109c0.011-0.187,0.021-0.374,0.031-0.561
		C13.425,6.041,13.426,6.027,13.434,6.015z"/>
	<path fill="#4FC90C" d="M15.004,7.352c0.016-0.001,0.032-0.002,0.048-0.004c0.011-0.002,0.022-0.009,0.033-0.008
		c0.078,0.007,0.154-0.018,0.231-0.014c0.042,0.002,0.08-0.018,0.122-0.015c0.038,0.002,0.077,0.005,0.115-0.01
		c0.014-0.005,0.032-0.003,0.048-0.003c0.03-0.001,0.06,0.003,0.088-0.011c0.004-0.002,0.009-0.002,0.013-0.002
		c0.068-0.003,0.073-0.001,0.072,0.064c0,0.025,0.001,0.05,0.001,0.075c0.002,0.023,0.001,0.045-0.004,0.067
		c-0.009,0.018,0.001,0.039-0.009,0.057c0,0.079-0.024,0.154-0.046,0.228c-0.048,0.162-0.126,0.309-0.243,0.433
		c-0.065,0.069-0.138,0.127-0.22,0.174c-0.164,0.094-0.342,0.138-0.529,0.155c-0.17,0.015-0.338,0.001-0.507-0.013
		c-0.173-0.015-0.345-0.042-0.516-0.075C13.58,8.426,13.46,8.396,13.34,8.368c-0.035-0.008-0.038-0.012-0.033-0.046
		c0.024-0.197,0.048-0.395,0.073-0.592c0.001-0.007,0.002-0.014,0.003-0.02c0.002-0.01,0.009-0.016,0.019-0.016
		c0.018,0,0.037,0.002,0.055,0.005c0.119,0.02,0.238,0.043,0.358,0.061c0.09,0.014,0.181,0.023,0.272,0.033
		c0.075,0.008,0.15,0.016,0.225,0.022c0.098,0.008,0.197,0.013,0.295,0.003c0.163-0.016,0.282-0.099,0.346-0.253
		c0.011-0.025,0.019-0.051,0.028-0.077c0.001-0.005,0.003-0.01,0.006-0.014c0.002-0.013,0.004-0.027,0.005-0.04
		c0.005-0.014,0-0.03,0.008-0.043C15.002,7.377,15.003,7.365,15.004,7.352z"/>
	<path fill="#59C20D" d="M12.119,10.637c-0.004-0.003-0.005-0.007-0.005-0.012c-0.003-0.005-0.006-0.01-0.01-0.015
		c-0.003-0.003-0.005-0.007-0.004-0.012c-0.003-0.006-0.007-0.011-0.01-0.016c-0.003-0.002-0.005-0.006-0.004-0.009
		c-0.002-0.008-0.007-0.013-0.012-0.019l0-0.001c-0.004-0.003-0.008-0.007-0.009-0.012c-0.002-0.004-0.004-0.009-0.006-0.013
		c-0.004-0.005-0.007-0.01-0.01-0.015c-0.004-0.003-0.005-0.007-0.004-0.012c-0.003-0.005-0.007-0.01-0.01-0.016
		c-0.003-0.003-0.005-0.006-0.004-0.011c-0.002-0.007-0.007-0.011-0.011-0.017c-0.003-0.002-0.004-0.005-0.004-0.008
		c-0.001-0.008-0.007-0.014-0.012-0.02l0,0c-0.004-0.003-0.007-0.008-0.009-0.013c-0.004-0.003-0.005-0.007-0.005-0.012
		c-0.003-0.005-0.007-0.01-0.01-0.015c-0.003-0.003-0.005-0.007-0.004-0.012c-0.003-0.005-0.007-0.011-0.01-0.016
		c-0.003-0.003-0.005-0.006-0.004-0.01c-0.002-0.007-0.007-0.013-0.011-0.018l-0.001-0.001c-0.005-0.002-0.008-0.006-0.009-0.011
		c-0.002-0.005-0.004-0.009-0.006-0.014c-0.004-0.004-0.007-0.009-0.01-0.014c-0.004-0.003-0.005-0.007-0.005-0.012
		c-0.003-0.005-0.007-0.011-0.01-0.016c-0.003-0.003-0.005-0.007-0.004-0.011c-0.003-0.006-0.007-0.011-0.01-0.017
		c-0.003-0.002-0.004-0.005-0.004-0.009c-0.002-0.008-0.007-0.013-0.012-0.019l0,0c-0.012-0.066,0.037-0.071,0.079-0.073
		c0.098-0.005,0.197-0.012,0.295-0.013c0.204-0.001,0.407-0.025,0.611-0.017c0.052,0.002,0.1-0.007,0.143-0.037
		c0.044,0.054,0.07,0.117,0.104,0.177c0.097,0.168,0.19,0.339,0.284,0.508c0.038,0.068,0.076,0.135,0.114,0.202
		c-0.038,0.029-0.039,0.029-0.059,0.067c-0.108,0.209-0.215,0.419-0.323,0.628c-0.063,0.122-0.126,0.244-0.189,0.366
		c-0.006,0.012-0.01,0.025-0.024,0.031c-0.014-0.005-0.02-0.018-0.027-0.03c-0.069-0.124-0.138-0.247-0.207-0.371
		c-0.077-0.138-0.154-0.275-0.232-0.412c-0.049-0.088-0.098-0.175-0.147-0.263c-0.005-0.01-0.008-0.021-0.012-0.032
		c-0.003-0.005-0.006-0.011-0.01-0.016c-0.008-0.009-0.015-0.018-0.016-0.03c-0.005-0.002-0.007-0.006-0.009-0.011
		c-0.002-0.004-0.004-0.009-0.006-0.013c-0.004-0.004-0.007-0.009-0.009-0.014c-0.004-0.003-0.005-0.008-0.005-0.013
		c-0.003-0.005-0.006-0.01-0.009-0.015c-0.003-0.003-0.005-0.007-0.005-0.011c-0.002-0.006-0.007-0.011-0.01-0.016
		c-0.008-0.008-0.015-0.017-0.016-0.029c-0.004-0.003-0.007-0.007-0.009-0.012c-0.002-0.004-0.004-0.008-0.005-0.013
		c-0.003-0.005-0.007-0.01-0.01-0.015c-0.003-0.003-0.005-0.008-0.004-0.012c-0.003-0.005-0.007-0.01-0.01-0.015
		c-0.003-0.003-0.005-0.006-0.004-0.01c-0.002-0.007-0.006-0.012-0.011-0.017c-0.008-0.008-0.015-0.016-0.016-0.027
		C12.125,10.647,12.122,10.642,12.119,10.637z"/>
	<path fill="#71B211" d="M13.01,10.071c-0.01,0.045-0.035,0.062-0.083,0.059c-0.078-0.005-0.156-0.002-0.233-0.001
		c-0.043,0-0.087-0.004-0.129,0.011c-0.014,0.005-0.032,0.002-0.048,0.002c-0.073,0-0.147,0-0.22,0
		c-0.039,0-0.077-0.003-0.115,0.011c-0.016,0.006-0.036,0.003-0.055,0.003c-0.06,0-0.119,0-0.179,0
		c-0.037,0-0.061,0.015-0.066,0.054c-0.039-0.051-0.065-0.11-0.097-0.165c-0.075-0.131-0.148-0.263-0.222-0.395
		c-0.05-0.09-0.101-0.179-0.152-0.269c-0.009-0.016-0.008-0.029,0.005-0.043c0.037-0.04,0.073-0.082,0.11-0.123
		c0.195-0.218,0.39-0.436,0.585-0.654c0.008-0.008,0.015-0.017,0.024-0.024c0.005-0.004,0.013-0.005,0.018,0.002
		c0.007,0.009,0.013,0.019,0.018,0.029c0.133,0.237,0.266,0.475,0.399,0.712c0.118,0.209,0.237,0.418,0.353,0.628
		C12.953,9.961,12.99,10.012,13.01,10.071z"/>
	<path fill="#41D20A" d="M18.648,7.862c-0.001,0.004-0.003,0.009-0.004,0.013c-0.003,0.005-0.006,0.011-0.01,0.016
		c0.001,0.005-0.001,0.008-0.004,0.012c-0.003,0.005-0.006,0.01-0.01,0.016c0,0.005-0.001,0.009-0.005,0.012
		c-0.003,0.005-0.006,0.01-0.009,0.015c-0.002,0.004-0.004,0.009-0.005,0.013c-0.002,0.005-0.005,0.009-0.009,0.012
		c-0.002,0.005-0.004,0.01-0.006,0.015c-0.001,0.005-0.003,0.009-0.008,0.011l-0.001,0.002c-0.004,0.006-0.009,0.011-0.011,0.018
		c0,0.005-0.002,0.008-0.005,0.011c-0.002,0.005-0.005,0.009-0.01,0.012l0,0.001c-0.005,0.005-0.01,0.01-0.012,0.017
		c0,0.005-0.002,0.009-0.006,0.011c-0.002,0.005-0.005,0.009-0.009,0.011L18.522,8.08c-0.003,0.006-0.009,0.011-0.011,0.017
		c-0.002,0.011-0.01,0.018-0.018,0.025c-0.002,0.005-0.006,0.009-0.011,0.012l-0.001,0.001c-0.004,0.005-0.008,0.01-0.012,0.014l0,0
		c-0.005,0.004-0.01,0.009-0.014,0.015l0.001-0.001c-0.006,0.004-0.011,0.009-0.014,0.015c-0.026,0.037-0.057,0.07-0.097,0.094
		c-0.004,0.004-0.009,0.008-0.014,0.012l-0.002,0.001c-0.002,0.005-0.006,0.008-0.011,0.01c-0.027,0.028-0.06,0.05-0.093,0.069
		c-0.14,0.082-0.29,0.134-0.451,0.156c-0.116,0.016-0.232,0.027-0.349,0.023c-0.156-0.005-0.311-0.02-0.461-0.066
		c-0.112-0.035-0.218-0.083-0.312-0.155c-0.005-0.001-0.008-0.005-0.01-0.01L16.64,8.312c-0.005-0.003-0.01-0.007-0.014-0.011l0,0
		c-0.005-0.005-0.01-0.01-0.017-0.013c-0.008-0.006-0.017-0.013-0.025-0.019c-0.005-0.002-0.009-0.005-0.011-0.01l-0.002-0.001
		c-0.005-0.003-0.01-0.007-0.013-0.012l-0.001,0c-0.005-0.004-0.009-0.008-0.014-0.013l0,0c-0.005-0.004-0.009-0.009-0.014-0.014
		l0,0c-0.005-0.004-0.009-0.009-0.013-0.014l-0.001-0.001c-0.005-0.003-0.009-0.008-0.012-0.013l-0.002-0.002
		c-0.005-0.003-0.009-0.007-0.012-0.012l-0.002-0.002c-0.005-0.002-0.009-0.006-0.011-0.011c-0.013-0.011-0.026-0.022-0.032-0.039
		c-0.003-0.007-0.008-0.012-0.013-0.017l0,0c-0.004-0.004-0.008-0.008-0.011-0.013c-0.003-0.002-0.005-0.005-0.004-0.009
		c-0.002-0.008-0.007-0.014-0.013-0.018l0,0.001c-0.004-0.004-0.008-0.009-0.011-0.014c-0.008-0.007-0.015-0.014-0.017-0.025
		c-0.004-0.005-0.007-0.01-0.011-0.016c-0.003-0.002-0.005-0.005-0.004-0.008c-0.001-0.008-0.007-0.014-0.012-0.019l0,0
		c-0.008-0.007-0.006-0.02-0.014-0.027l0,0c0.002-0.051,0.042-0.055,0.078-0.059c0.209-0.021,0.418-0.038,0.628-0.057
		c0.039-0.004,0.077-0.01,0.116-0.013c0.034-0.002,0.055-0.019,0.068-0.048c0.029-0.019,0.058-0.001,0.086,0.004
		c0.111,0.021,0.221,0.026,0.332-0.003c0.036-0.009,0.068-0.025,0.1-0.044c0.021-0.013,0.041-0.032,0.068-0.014
		c0.007,0.035,0.026,0.047,0.063,0.044c0.211-0.019,0.422-0.038,0.632-0.06c0.048-0.005,0.096-0.007,0.143-0.001
		c0.034,0.004,0.057,0.019,0.039,0.059c-0.001,0.004-0.002,0.009-0.004,0.013c-0.003,0.005-0.006,0.011-0.009,0.017
		c0.001,0.004,0,0.008-0.003,0.011c-0.004,0.006-0.009,0.011-0.01,0.019c0.001,0.003,0.001,0.006-0.002,0.008
		C18.652,7.841,18.655,7.854,18.648,7.862z"/>
	<path fill="#5DBF0E" d="M18.689,7.765c-0.008-0.04-0.008-0.042-0.039-0.041c-0.057,0.002-0.114-0.009-0.17,0.011
		c-0.01,0.004-0.023,0.002-0.034,0.002c-0.041,0.001-0.082-0.003-0.122,0.012c-0.012,0.004-0.027,0.002-0.041,0.002
		c-0.03,0-0.059-0.001-0.088,0.01c-0.014,0.005-0.032,0.003-0.047,0.003c-0.036,0.001-0.073-0.001-0.108,0.011
		c-0.016,0.006-0.036,0.002-0.054,0.003c-0.036,0.001-0.072-0.001-0.108,0.01c-0.021,0.007-0.045,0.003-0.068,0.001
		c-0.02-0.002-0.027-0.021-0.017-0.041c0.005-0.01,0.01-0.02,0.016-0.03c-0.002-0.017,0.006-0.032,0.015-0.044
		c0.117-0.154,0.151-0.336,0.173-0.521c0.023-0.198,0.03-0.397,0.028-0.596c0-0.033-0.008-0.07,0.02-0.097
		c0.092-0.013,0.184-0.028,0.278-0.028c0.068-0.023,0.141-0.003,0.21-0.025c0.015-0.005,0.032-0.002,0.048-0.002
		c0.032-0.001,0.063,0.001,0.095-0.01c0.019-0.006,0.041-0.003,0.061-0.004c0.039,0,0.078,0,0.117,0
		c0.001,0.02,0.004,0.041,0.004,0.061c0.003,0.151,0.005,0.301-0.003,0.452c-0.012,0.242-0.042,0.481-0.11,0.715
		C18.727,7.668,18.715,7.719,18.689,7.765z"/>
	<path fill="#5DBF0E" d="M17.23,7.78c0.002,0.007,0.003,0.013,0.005,0.02c0.007,0.031-0.001,0.046-0.029,0.046
		c-0.064-0.001-0.126,0.023-0.19,0.015c-0.064,0.02-0.132,0.005-0.196,0.024c-0.015,0.004-0.032,0.003-0.048,0.003
		c-0.041,0.001-0.082-0.003-0.122,0.011c-0.012,0.005-0.027,0.002-0.041,0.002c-0.036,0.001-0.072,0-0.109,0.01
		c-0.025,0.007-0.054,0.003-0.082,0.003c-0.034,0.001-0.063,0.01-0.081,0.041c-0.046-0.061-0.071-0.132-0.097-0.203
		c-0.063-0.168-0.101-0.341-0.124-0.518c-0.014-0.109-0.027-0.217-0.029-0.327c0-0.011,0.001-0.023,0.001-0.034
		c0.001-0.061,0.001-0.123,0.002-0.185c0-0.011,0-0.023,0.001-0.034c0.002-0.022,0.008-0.029,0.028-0.031
		c0.009-0.001,0.018-0.001,0.027-0.001c0.032,0,0.063,0.001,0.094-0.01c0.014-0.005,0.032-0.003,0.047-0.003
		c0.03-0.001,0.059,0.001,0.088-0.01c0.012-0.005,0.027-0.003,0.041-0.004c0.045-0.001,0.091,0.003,0.135-0.012
		c0.014-0.005,0.032-0.002,0.048-0.002c0.032-0.001,0.063,0.001,0.095-0.01c0.019-0.006,0.041-0.003,0.061-0.004
		c0.029-0.001,0.058,0,0.088-0.01c0.03-0.01,0.043,0.001,0.045,0.032c0.001,0.032,0,0.064,0.001,0.096
		c0,0.011,0.004,0.022,0.006,0.033c0.04,0.022,0.025,0.06,0.025,0.092c-0.001,0.19,0.017,0.379,0.062,0.564
		c0.035,0.146,0.094,0.277,0.222,0.367C17.216,7.751,17.228,7.763,17.23,7.78z"/>
	<path fill="#70B211" d="M13.448,5.782c-0.001,0.028,0.009,0.057-0.008,0.084C13.437,5.838,13.434,5.809,13.448,5.782z"/>
	<path fill="#70B211" d="M15.761,7.547c0-0.019-0.007-0.04,0.009-0.057C15.772,7.51,15.774,7.53,15.761,7.547z"/>
	<path fill="#70B211" d="M15.002,7.39c0.001,0.015,0.005,0.03-0.008,0.043C14.991,7.418,14.991,7.403,15.002,7.39z"/>
	<path fill="#5DBF0E" d="M18.648,7.862c0-0.012,0.002-0.022,0.013-0.029C18.661,7.845,18.656,7.854,18.648,7.862z"/>
	<path fill="#5DBF0E" d="M16.337,7.957c0.011,0.006,0.014,0.016,0.014,0.027C16.341,7.977,16.337,7.968,16.337,7.957z"/>
	<path fill="#5DBF0E" d="M18.62,7.918c0.003-0.005,0.006-0.01,0.01-0.016C18.63,7.91,18.626,7.914,18.62,7.918z"/>
	<path fill="#5DBF0E" d="M18.606,7.944c0.003-0.005,0.006-0.01,0.009-0.015C18.613,7.935,18.609,7.94,18.606,7.944z"/>
	<path fill="#5DBF0E" d="M18.592,7.97c0.003-0.004,0.006-0.008,0.009-0.012C18.598,7.962,18.595,7.966,18.592,7.97z"/>
	<path fill="#5DBF0E" d="M16.351,7.984c0.008,0.004,0.012,0.011,0.012,0.019C16.356,7.999,16.351,7.993,16.351,7.984z"/>
	<path fill="#5DBF0E" d="M18.578,7.996c0.002-0.004,0.004-0.008,0.008-0.011C18.587,7.991,18.583,7.994,18.578,7.996z"/>
	<path fill="#5DBF0E" d="M18.566,8.015c0.004-0.006,0.007-0.012,0.011-0.018C18.576,8.005,18.573,8.011,18.566,8.015z"/>
	<path fill="#5DBF0E" d="M16.367,8.012c0.004,0.005,0.007,0.01,0.011,0.016C16.371,8.024,16.367,8.019,16.367,8.012z"/>
	<path fill="#5DBF0E" d="M18.551,8.038c0.003-0.004,0.007-0.008,0.01-0.012C18.56,8.033,18.557,8.036,18.551,8.038z"/>
	<path fill="#5DBF0E" d="M18.538,8.056c0.004-0.006,0.008-0.012,0.012-0.017C18.549,8.047,18.545,8.053,18.538,8.056z"/>
	<path fill="#5DBF0E" d="M16.395,8.053c0.004,0.005,0.007,0.009,0.011,0.014C16.399,8.065,16.395,8.06,16.395,8.053z"/>
	<path fill="#5DBF0E" d="M16.405,8.067c0.008,0.004,0.012,0.01,0.013,0.018C16.411,8.081,16.406,8.075,16.405,8.067z"/>
	<path fill="#5DBF0E" d="M18.523,8.078c0.003-0.004,0.006-0.007,0.009-0.011C18.529,8.071,18.526,8.075,18.523,8.078z"/>
	<path fill="#5DBF0E" d="M18.511,8.097c0.004-0.006,0.007-0.011,0.011-0.017C18.518,8.086,18.514,8.091,18.511,8.097z"/>
	<path fill="#5DBF0E" d="M16.423,8.094c0.004,0.004,0.007,0.009,0.011,0.013C16.427,8.106,16.423,8.102,16.423,8.094z"/>
	<path fill="#5DBF0E" d="M16.433,8.108c0.004,0.006,0.009,0.011,0.013,0.017C16.439,8.121,16.434,8.116,16.433,8.108z"/>
	<path fill="#5DBF0E" d="M18.482,8.134c0.004-0.004,0.007-0.008,0.011-0.012C18.492,8.129,18.488,8.132,18.482,8.134z"/>
	<path fill="#5DBF0E" d="M18.469,8.149c0.004-0.005,0.008-0.01,0.012-0.014C18.48,8.143,18.476,8.147,18.469,8.149z"/>
	<path fill="#5DBF0E" d="M18.455,8.164c0.005-0.005,0.009-0.01,0.014-0.015C18.467,8.157,18.463,8.162,18.455,8.164z"/>
	<path fill="#5DBF0E" d="M16.478,8.163c0.004,0.004,0.007,0.007,0.011,0.011C16.483,8.173,16.479,8.17,16.478,8.163z"/>
	<path fill="#5DBF0E" d="M18.442,8.179c0.002-0.008,0.007-0.013,0.014-0.015C18.454,8.171,18.449,8.176,18.442,8.179z"/>
	<path fill="#5DBF0E" d="M16.491,8.176c0.004,0.004,0.008,0.008,0.012,0.012C16.496,8.187,16.492,8.183,16.491,8.176z"/>
	<path fill="#5DBF0E" d="M16.504,8.19c0.004,0.004,0.008,0.009,0.012,0.013C16.509,8.201,16.505,8.197,16.504,8.19z"/>
	<path fill="#5DBF0E" d="M16.517,8.204c0.004,0.005,0.009,0.009,0.013,0.014C16.522,8.216,16.518,8.211,16.517,8.204z"/>
	<path fill="#5DBF0E" d="M16.53,8.218c0.005,0.005,0.009,0.009,0.014,0.014C16.536,8.23,16.531,8.225,16.53,8.218z"/>
	<path fill="#5DBF0E" d="M16.543,8.231c0.005,0.004,0.009,0.009,0.014,0.013C16.55,8.243,16.545,8.239,16.543,8.231z"/>
	<path fill="#5DBF0E" d="M16.558,8.245c0.004,0.004,0.009,0.008,0.013,0.012C16.564,8.256,16.56,8.252,16.558,8.245z"/>
	<path fill="#5DBF0E" d="M16.573,8.258c0.004,0.003,0.007,0.007,0.011,0.01C16.577,8.268,16.574,8.264,16.573,8.258z"/>
	<path fill="#5DBF0E" d="M18.33,8.285c0.005-0.004,0.01-0.008,0.014-0.012C18.343,8.28,18.338,8.284,18.33,8.285z"/>
	<path fill="#5DBF0E" d="M16.609,8.287c0.006,0.004,0.011,0.008,0.017,0.013C16.618,8.299,16.612,8.295,16.609,8.287z"/>
	<path fill="#5DBF0E" d="M18.318,8.296c0.004-0.003,0.007-0.006,0.011-0.01C18.327,8.292,18.324,8.295,18.318,8.296z"/>
	<path fill="#5DBF0E" d="M16.626,8.3c0.005,0.004,0.009,0.008,0.014,0.011C16.633,8.311,16.628,8.307,16.626,8.3z"/>
	<path fill="#5DBF0E" d="M16.642,8.313c0.003,0.003,0.007,0.006,0.01,0.01C16.646,8.323,16.643,8.319,16.642,8.313z"/>
	<path fill="#70B211" d="M14.124,5.968c0.002-0.005,0.003-0.01,0.005-0.016C14.132,5.959,14.13,5.964,14.124,5.968z"/>
	<path fill="#70B211" d="M14.988,7.473c-0.002,0.005-0.004,0.009-0.006,0.014C14.98,7.481,14.983,7.477,14.988,7.473z"/>
	<path fill="#5DBF0E" d="M18.676,7.795c0.003-0.006,0.006-0.011,0.009-0.017C18.686,7.786,18.682,7.791,18.676,7.795z"/>
	<path fill="#5DBF0E" d="M18.662,7.825c0-0.008,0.003-0.014,0.01-0.019C18.673,7.814,18.669,7.82,18.662,7.825z"/>
	<path fill="#5DBF0E" d="M18.634,7.891c0.003-0.005,0.006-0.011,0.01-0.016C18.644,7.882,18.64,7.887,18.634,7.891z"/>
	<path fill="#71B211" d="M11.882,10.21c0.007,0.004,0.011,0.011,0.012,0.019C11.887,10.225,11.883,10.218,11.882,10.21z"/>
	<path fill="#71B211" d="M11.898,10.238c0.003,0.005,0.007,0.011,0.01,0.017C11.905,10.249,11.901,10.244,11.898,10.238z"/>
	<path fill="#71B211" d="M11.912,10.266c0.003,0.005,0.006,0.011,0.01,0.016C11.916,10.278,11.912,10.273,11.912,10.266z"/>
	<path fill="#71B211" d="M11.927,10.293c0.003,0.005,0.006,0.009,0.01,0.014C11.933,10.303,11.93,10.298,11.927,10.293z"/>
	<path fill="#71B211" d="M11.942,10.321c0.003,0.004,0.006,0.007,0.009,0.011C11.948,10.329,11.945,10.325,11.942,10.321z"/>
	<path fill="#71B211" d="M11.952,10.334c0.004,0.006,0.008,0.012,0.011,0.018C11.956,10.348,11.952,10.342,11.952,10.334z"/>
	<path fill="#71B211" d="M11.967,10.362c0.003,0.005,0.007,0.011,0.01,0.016C11.971,10.374,11.967,10.369,11.967,10.362z"/>
	<path fill="#71B211" d="M11.981,10.39c0.003,0.005,0.007,0.01,0.01,0.015C11.985,10.402,11.981,10.397,11.981,10.39z"/>
	<path fill="#71B211" d="M11.996,10.417c0.003,0.004,0.006,0.009,0.009,0.013C12.002,10.426,11.999,10.421,11.996,10.417z"/>
	<path fill="#71B211" d="M12.005,10.43c0.008,0.004,0.011,0.011,0.012,0.02C12.01,10.445,12.006,10.439,12.005,10.43z"/>
	<path fill="#71B211" d="M12.021,10.458c0.004,0.006,0.007,0.011,0.011,0.017C12.025,10.471,12.021,10.466,12.021,10.458z"/>
	<path fill="#71B211" d="M12.036,10.486c0.003,0.005,0.006,0.01,0.01,0.016C12.043,10.496,12.039,10.491,12.036,10.486z"/>
	<path fill="#71B211" d="M12.05,10.513c0.003,0.005,0.006,0.01,0.01,0.015C12.057,10.523,12.053,10.518,12.05,10.513z"/>
	<path fill="#71B211" d="M12.065,10.541c0.003,0.004,0.006,0.008,0.009,0.012C12.071,10.549,12.068,10.545,12.065,10.541z"/>
	<path fill="#71B211" d="M12.075,10.554c0.007,0.004,0.011,0.011,0.012,0.019C12.079,10.568,12.075,10.562,12.075,10.554z"/>
	<path fill="#71B211" d="M12.09,10.582c0.003,0.005,0.007,0.011,0.01,0.016C12.094,10.595,12.09,10.59,12.09,10.582z"/>
	<path fill="#71B211" d="M12.105,10.61c0.003,0.005,0.006,0.01,0.01,0.015C12.108,10.622,12.105,10.617,12.105,10.61z"/>
	<path fill="#71B211" d="M12.119,10.637c0.003,0.004,0.006,0.009,0.009,0.013C12.126,10.646,12.123,10.642,12.119,10.637z"/>
	<path fill="#71B211" d="M12.144,10.678c0.004,0.006,0.007,0.012,0.011,0.017C12.148,10.692,12.145,10.686,12.144,10.678z"/>
	<path fill="#71B211" d="M12.16,10.706c0.003,0.005,0.007,0.01,0.01,0.015C12.163,10.718,12.159,10.713,12.16,10.706z"/>
	<path fill="#71B211" d="M12.174,10.733c0.003,0.005,0.006,0.01,0.01,0.015C12.177,10.745,12.173,10.741,12.174,10.733z"/>
	<path fill="#71B211" d="M12.189,10.761c0.003,0.004,0.006,0.008,0.009,0.012C12.195,10.769,12.192,10.765,12.189,10.761z"/>
	<path fill="#71B211" d="M12.214,10.802c0.003,0.005,0.007,0.011,0.01,0.016C12.217,10.815,12.214,10.81,12.214,10.802z"/>
	<path fill="#71B211" d="M12.229,10.83c0.003,0.005,0.006,0.01,0.009,0.015C12.235,10.84,12.232,10.835,12.229,10.83z"/>
	<path fill="#71B211" d="M12.243,10.857c0.003,0.005,0.006,0.01,0.009,0.014C12.249,10.867,12.246,10.862,12.243,10.857z"/>
	<path fill="#71B211" d="M12.258,10.885c0.003,0.004,0.006,0.007,0.009,0.011C12.264,10.892,12.261,10.889,12.258,10.885z"/>
	<path fill="#71B211" d="M12.283,10.926c0.003,0.005,0.007,0.01,0.01,0.016C12.287,10.938,12.283,10.933,12.283,10.926z"/>
	<path fill="#65BA0F" d="M30.128,4.697C30.051,4.703,29.978,4.7,29.905,4.7c-0.016,0-0.026-0.007-0.026-0.024
		c0-0.007,0-0.014-0.002-0.021c-0.004-0.022-0.034-0.035-0.052-0.022c-0.005,0.003-0.008,0.011-0.009,0.017
		c-0.002,0.009-0.002,0.018-0.002,0.027c-0.001,0.013-0.007,0.022-0.021,0.022C29.769,4.7,29.746,4.7,29.723,4.7
		c-1.304,0-2.607,0-3.911,0c-0.983,0-1.966,0-2.949,0c-0.095,0-0.076,0.013-0.12-0.069c-0.128-0.235-0.257-0.47-0.385-0.705
		c-0.13-0.237-0.259-0.474-0.389-0.711c-0.083-0.153-0.167-0.305-0.25-0.458c-0.007-0.013-0.02-0.026-0.013-0.048
		c0.021-0.001,0.043-0.002,0.065-0.002c0.465-0.001,0.93-0.001,1.395-0.002c0.742-0.001,1.485,0.003,2.227-0.004
		c1.219-0.012,2.438-0.005,3.656-0.01c0.111,0,0.084-0.017,0.133,0.081c0.173,0.348,0.345,0.697,0.518,1.046
		c0.131,0.265,0.261,0.53,0.391,0.794C30.106,4.64,30.121,4.665,30.128,4.697z"/>
	<path fill="#BB7F1C" d="M29.609,9.566c-0.018,0.059-0.048,0.113-0.074,0.169c-0.122,0.261-0.245,0.522-0.368,0.783
		c-0.006,0.012-0.011,0.025-0.017,0.037c-0.007,0.013-0.017,0.021-0.033,0.021c-0.025,0-0.05,0.001-0.076,0.001
		c-0.419,0.003-0.839,0.002-1.258,0.009c-0.525,0.009-1.049,0.004-1.574,0.014c-0.509,0.009-1.017,0.003-1.526,0.014
		c-0.392,0.008-0.784,0.006-1.175,0.013c-0.506,0.01-1.013,0.007-1.519,0.013c-0.112,0.001-0.224,0.004-0.337,0.006
		c-0.016,0-0.032,0-0.046,0c-0.01-0.018-0.002-0.03,0.005-0.042c0.071-0.133,0.142-0.267,0.213-0.4
		c0.069-0.129,0.136-0.259,0.206-0.388c0.064-0.116,0.12-0.237,0.19-0.35c0.036-0.036,0.081-0.051,0.131-0.048
		c0.4,0.027,0.801-0.002,1.201,0.025c0.009,0.001,0.018,0.001,0.027,0.001c0.334-0.009,0.668,0.016,1.002,0.014
		c0.458-0.003,0.916,0.012,1.373,0.018c0.295,0.004,0.591-0.004,0.886,0.011c0.314,0.017,0.628-0.002,0.941,0.014
		c0.302,0.016,0.605-0.003,0.906,0.013c0.277,0.015,0.554,0.006,0.831,0.012C29.551,9.53,29.594,9.518,29.609,9.566z"/>
	<path fill="#A28F18" d="M29.609,9.566c-0.008-0.009-0.017-0.015-0.029-0.015c-0.018,0-0.037,0-0.055,0c-0.22,0-0.44,0-0.66,0
		c-0.032,0-0.063,0-0.095-0.01c-0.021-0.007-0.045-0.004-0.068-0.004c-0.254,0-0.508,0-0.763,0c-0.03,0-0.059,0-0.088-0.009
		c-0.021-0.007-0.045-0.004-0.068-0.004c-0.25,0-0.499,0-0.749,0c-0.036,0-0.073,0.002-0.109-0.01
		C26.904,9.506,26.88,9.51,26.857,9.51c-0.247,0-0.495,0-0.742,0c-0.032,0-0.063,0-0.095-0.01c-0.021-0.007-0.045-0.004-0.068-0.004
		c-0.254,0-0.508,0-0.763,0c-0.03,0-0.059,0-0.088-0.009c-0.021-0.007-0.045-0.005-0.068-0.005c-0.252,0-0.504,0-0.756,0
		c-0.034,0-0.068,0.001-0.102-0.01c-0.019-0.006-0.041-0.003-0.061-0.003c-0.176,0-0.353,0-0.529,0c-0.032,0-0.063,0.001-0.095-0.01
		c-0.021-0.007-0.045-0.004-0.068-0.004c-0.254,0-0.508,0-0.763,0c-0.03,0-0.059,0.001-0.088-0.009
		c-0.017-0.006-0.036-0.004-0.054-0.004c-0.053,0-0.105,0.001-0.158,0c-0.039-0.001-0.078,0.001-0.113,0.022
		c-0.007,0.004-0.018,0.003-0.027,0.005c0.022-0.045,0.043-0.091,0.067-0.135c0.118-0.223,0.235-0.445,0.355-0.667
		c0.051-0.094,0.025-0.078,0.129-0.078c1.989,0,3.979,0,5.968,0c0.046,0,0.091-0.004,0.137,0.005
		c0.023,0.005,0.049-0.005,0.074-0.006c0.358,0,0.715,0,1.073,0c0.014,0,0.027,0.002,0.04,0.002
		c0.008,0.023-0.006,0.037-0.014,0.053c-0.118,0.253-0.237,0.506-0.356,0.758C29.665,9.457,29.645,9.516,29.609,9.566z"/>
	<path fill="#77AD12" d="M29.146,8.132c0.001-0.022,0.011-0.04,0.021-0.058c0.085-0.159,0.17-0.319,0.255-0.479
		c0.138-0.261,0.277-0.522,0.415-0.782c0.026-0.049,0.05-0.098,0.079-0.145c0.019-0.031,0.021-0.056,0.002-0.089
		c-0.046-0.079-0.088-0.16-0.132-0.241c-0.077-0.141-0.154-0.281-0.23-0.422c-0.095-0.175-0.191-0.349-0.286-0.524
		c-0.039-0.072-0.079-0.145-0.117-0.218c-0.013-0.024-0.008-0.032,0.021-0.032c0.016-0.001,0.032,0,0.048,0c0.353,0,0.706,0,1.058,0
		c0.084,0,0.072-0.007,0.108,0.067c0.128,0.256,0.254,0.513,0.381,0.769c0.084,0.17,0.167,0.341,0.252,0.511
		c0.014,0.029,0.016,0.053,0.002,0.083c-0.087,0.181-0.173,0.364-0.258,0.546c-0.119,0.253-0.237,0.506-0.355,0.758
		c-0.036,0.077-0.073,0.153-0.108,0.23c-0.011,0.025-0.029,0.032-0.054,0.032c-0.103-0.001-0.206,0-0.309,0
		c-0.044,0-0.087,0-0.131-0.001c-0.026-0.001-0.029-0.004-0.033-0.033c-0.001-0.009-0.002-0.018-0.004-0.027
		c-0.001-0.003-0.006-0.006-0.01-0.008c-0.005-0.002-0.009,0-0.011,0.005c-0.001,0.004-0.003,0.008-0.004,0.013
		c-0.008,0.049-0.008,0.049-0.052,0.049c-0.172,0-0.344,0-0.515,0C29.167,8.139,29.156,8.14,29.146,8.132z"/>
	<path fill="#C4791D" d="M24.59,5.156c0.026-0.01,0.047-0.007,0.068-0.007c0.312,0,0.623,0,0.935,0c0.079,0,0.066-0.007,0.105,0.063
		C25.798,5.397,25.899,5.581,26,5.766c0.129,0.237,0.258,0.474,0.387,0.712c0.019,0.034,0.037,0.069,0.056,0.102
		c0.013,0.022,0.012,0.041,0,0.064c-0.065,0.121-0.129,0.243-0.193,0.364c-0.07,0.131-0.14,0.263-0.21,0.394
		c-0.097,0.182-0.194,0.364-0.29,0.545c-0.029,0.055-0.058,0.109-0.086,0.164c-0.012,0.023-0.027,0.036-0.054,0.033
		c-0.009-0.001-0.018,0-0.027,0c-0.328,0-0.655,0-0.983,0c-0.069,0-0.07-0.001-0.038-0.061c0.113-0.212,0.226-0.424,0.339-0.636
		c0.065-0.121,0.129-0.243,0.193-0.364c0.076-0.144,0.152-0.287,0.229-0.43c0.008-0.014,0.014-0.029,0.023-0.042
		c0.013-0.022,0.012-0.041,0-0.064c-0.107-0.194-0.213-0.389-0.32-0.584c-0.112-0.205-0.224-0.41-0.336-0.614
		c-0.03-0.054-0.059-0.109-0.088-0.163C24.598,5.178,24.595,5.169,24.59,5.156z"/>
	<path fill="#989617" d="M27.538,8.133c0.004-0.031,0.022-0.056,0.035-0.082c0.101-0.19,0.202-0.38,0.303-0.57
		c0.14-0.263,0.279-0.526,0.418-0.788c0.011-0.02,0.021-0.041,0.034-0.06c0.017-0.026,0.017-0.049,0.001-0.077
		c-0.041-0.072-0.079-0.145-0.118-0.217c-0.076-0.139-0.152-0.277-0.227-0.415c-0.096-0.175-0.191-0.349-0.287-0.524
		c-0.041-0.074-0.081-0.149-0.121-0.224c-0.011-0.02-0.005-0.031,0.018-0.032c0.016-0.001,0.032-0.001,0.048-0.001
		c0.307,0,0.614,0,0.921,0c0.083,0,0.073-0.004,0.111,0.066c0.095,0.175,0.191,0.349,0.287,0.524
		c0.097,0.179,0.194,0.358,0.292,0.537c0.053,0.096,0.106,0.193,0.159,0.289c0.007,0.012,0.012,0.025,0.02,0.036
		c0.014,0.022,0.011,0.042-0.001,0.064c-0.06,0.111-0.119,0.222-0.178,0.333c-0.097,0.182-0.192,0.364-0.289,0.546
		c-0.1,0.188-0.201,0.375-0.3,0.564c-0.013,0.025-0.029,0.04-0.058,0.037c-0.016-0.001-0.032,0-0.048,0c-0.314,0-0.628,0-0.942,0
		C27.59,8.14,27.564,8.145,27.538,8.133z"/>
	<path fill="#E46222" d="M22.928,8.143c0.003-0.028,0.016-0.047,0.026-0.067c0.132-0.248,0.265-0.496,0.397-0.745
		c0.133-0.25,0.266-0.501,0.399-0.752c0.005-0.01,0.01-0.021,0.016-0.03c0.008-0.013,0.006-0.025-0.001-0.038
		c-0.03-0.054-0.058-0.109-0.088-0.163c-0.164-0.301-0.329-0.602-0.493-0.904c-0.043-0.078-0.086-0.156-0.129-0.235
		c-0.005-0.01-0.011-0.02-0.016-0.03c-0.008-0.017-0.003-0.027,0.014-0.028c0.014-0.001,0.027-0.001,0.041-0.001
		c0.311,0,0.623,0,0.934,0c0.007,0,0.014,0.001,0.021,0c0.03-0.004,0.046,0.012,0.059,0.036c0.068,0.127,0.137,0.254,0.206,0.38
		c0.093,0.171,0.186,0.341,0.28,0.512c0.084,0.155,0.168,0.31,0.254,0.463c0.016,0.029,0.017,0.054,0.001,0.083
		c-0.066,0.121-0.13,0.242-0.194,0.363c-0.138,0.261-0.276,0.522-0.415,0.782c-0.06,0.113-0.121,0.226-0.18,0.339
		c-0.013,0.025-0.03,0.037-0.059,0.036c-0.087-0.002-0.174,0-0.261,0c-0.247,0-0.495,0-0.742,0
		C22.975,8.145,22.953,8.144,22.928,8.143z"/>
	<path fill="#B3841B" d="M26.611,5.149c0.126,0,0.252,0,0.378,0c0.016,0,0.032,0,0.048,0c0.02,0,0.034,0.007,0.044,0.026
		c0.016,0.031,0.033,0.06,0.05,0.09c0.098,0.181,0.196,0.362,0.295,0.543c0.093,0.171,0.187,0.341,0.281,0.512
		c0.043,0.078,0.084,0.158,0.128,0.235c0.017,0.029,0.017,0.053,0.001,0.083c-0.067,0.123-0.131,0.247-0.196,0.37
		c-0.071,0.133-0.142,0.267-0.213,0.4c-0.096,0.18-0.192,0.359-0.287,0.539c-0.029,0.055-0.058,0.109-0.085,0.164
		c-0.012,0.023-0.028,0.033-0.054,0.033c-0.062-0.001-0.124,0-0.186,0c-0.197,0-0.394,0-0.591,0c-0.021,0-0.041,0-0.062-0.001
		c-0.011-0.001-0.016-0.01-0.011-0.019c0.012-0.027,0.026-0.054,0.04-0.08c0.115-0.216,0.23-0.433,0.345-0.649
		c0.13-0.244,0.261-0.489,0.391-0.733c0.032-0.061,0.033-0.046,0-0.105c-0.137-0.251-0.275-0.502-0.412-0.753
		c-0.111-0.203-0.221-0.406-0.332-0.609c-0.003-0.006-0.007-0.012-0.01-0.018c-0.009-0.018-0.005-0.027,0.013-0.028
		c0.018-0.001,0.037-0.001,0.055-0.001C26.364,5.149,26.487,5.149,26.611,5.149C26.611,5.149,26.611,5.149,26.611,5.149z"/>
	<path fill="#AA8A19" d="M1.87,8.618c0.024-0.009,0.05-0.004,0.074-0.005c0.332,0,0.665,0,0.997,0c0.063,0,0.127,0.005,0.19,0.001
		C3.195,8.611,3.26,8.614,3.324,8.614c0.066,0,0.133,0,0.199,0c0.064,0,0.128,0,0.193,0c0.064,0,0.128,0,0.193,0
		c0.064,0,0.128,0,0.193,0c0.064,0,0.128,0,0.193,0c0.066,0,0.133,0,0.199,0c0.064,0,0.128,0,0.193,0c0.064,0,0.128,0,0.193,0
		c0.064,0,0.128,0,0.193,0c0.064,0,0.128,0,0.193,0c0.064,0,0.128,0,0.193,0c0.066,0,0.133,0,0.199,0c0.064,0,0.128,0,0.193,0
		c0.064,0,0.128,0,0.193,0c1.04,0,2.081,0,3.121,0c0.104,0,0.082-0.013,0.13,0.077C9.415,8.925,9.54,9.16,9.664,9.394
		c0.138,0.261,0.277,0.522,0.415,0.783c0.074,0.139,0.149,0.278,0.223,0.418c0.011,0.022,0.028,0.042,0.028,0.068
		c-0.024,0.02-0.053,0.009-0.079,0.009c-0.126-0.001-0.252-0.005-0.378-0.006c-0.364-0.003-0.729-0.001-1.093-0.007
		c-0.522-0.01-1.045-0.004-1.567-0.014c-0.509-0.009-1.017-0.007-1.526-0.013c-0.387-0.005-0.775-0.006-1.162-0.014
		C4.017,10.607,3.509,10.611,3,10.605c-0.06-0.001-0.119-0.004-0.179-0.005c-0.021,0-0.034-0.01-0.043-0.028
		c-0.024-0.052-0.05-0.103-0.074-0.155c-0.063-0.135-0.126-0.269-0.189-0.404c-0.123-0.263-0.246-0.526-0.37-0.79
		C2.087,9.099,2.027,8.975,1.969,8.851c-0.03-0.064-0.06-0.129-0.09-0.193C1.873,8.646,1.865,8.634,1.87,8.618z"/>
	<path fill="#5FBE0E" d="M1.797,4.727c0.04-0.082,0.074-0.152,0.109-0.222c0.103-0.207,0.206-0.414,0.308-0.621
		c0.173-0.349,0.345-0.698,0.517-1.047c0.015-0.031,0.031-0.061,0.045-0.092c0.008-0.016,0.019-0.025,0.038-0.024
		c0.018,0,0.037,0,0.055,0c1.354,0.001,2.709-0.001,4.063,0.006c1.075,0.005,2.15,0.004,3.224,0.008
		c0.023,0,0.046-0.004,0.067,0.004c0.008,0.016-0.002,0.027-0.009,0.038c-0.079,0.145-0.158,0.289-0.237,0.434
		C9.79,3.558,9.6,3.906,9.41,4.253C9.339,4.384,9.268,4.515,9.197,4.646c-0.009,0.016-0.02,0.031-0.027,0.048
		C9.159,4.721,9.139,4.731,9.11,4.727c-0.014-0.001-0.027,0-0.041,0c-2.393,0-4.785,0-7.178,0C1.864,4.727,1.836,4.727,1.797,4.727z
		"/>
	<path fill="#7FA713" d="M2.785,8.16C2.769,8.169,2.75,8.165,2.732,8.165c-0.341,0-0.683,0-1.024,0c-0.002,0-0.005,0-0.007,0
		c-0.04,0.007-0.061-0.011-0.078-0.048c-0.146-0.315-0.294-0.63-0.442-0.945c-0.085-0.18-0.17-0.36-0.255-0.54
		c-0.005-0.01-0.009-0.021-0.015-0.031c-0.016-0.028-0.016-0.053,0-0.083c0.051-0.097,0.098-0.196,0.147-0.295
		c0.164-0.332,0.329-0.664,0.493-0.997C1.557,5.214,1.563,5.202,1.569,5.19c0.007-0.013,0.018-0.02,0.033-0.02
		c0.014,0,0.027,0,0.041,0c0.362,0,0.724,0,1.086,0c0.068,0,0.069,0.001,0.037,0.06C2.7,5.355,2.632,5.48,2.564,5.604
		C2.489,5.741,2.414,5.877,2.34,6.013C2.243,6.19,2.146,6.366,2.05,6.543C2.031,6.577,2.015,6.613,1.998,6.647
		c0.011,0.04,0.034,0.074,0.053,0.111c0.071,0.133,0.142,0.267,0.213,0.4c0.133,0.25,0.266,0.501,0.4,0.751
		C2.701,7.98,2.739,8.05,2.776,8.121C2.782,8.133,2.792,8.144,2.785,8.16z"/>
	<path fill="#C7761E" d="M7.387,8.161C7.373,8.172,7.357,8.168,7.341,8.168c-0.335,0-0.669,0-1.004,0c-0.009,0-0.018-0.001-0.027,0
		c-0.018,0-0.03-0.009-0.039-0.024C6.263,8.127,6.254,8.111,6.245,8.095C6.13,7.879,6.015,7.663,5.9,7.446
		C5.793,7.244,5.686,7.042,5.579,6.839C5.549,6.783,5.52,6.726,5.488,6.67C5.475,6.647,5.477,6.628,5.489,6.606
		c0.03-0.054,0.059-0.108,0.089-0.163c0.141-0.259,0.282-0.518,0.424-0.778c0.083-0.153,0.167-0.305,0.25-0.458
		c0.014-0.025,0.03-0.037,0.059-0.036c0.092,0.001,0.183,0,0.275,0c0.227,0,0.454,0,0.68,0c0.021,0,0.041,0,0.062,0.002
		c0.012,0.001,0.015,0.012,0.011,0.02c-0.029,0.057-0.059,0.114-0.09,0.17C7.147,5.55,7.045,5.737,6.943,5.924
		C6.849,6.097,6.754,6.269,6.659,6.442C6.635,6.486,6.612,6.531,6.586,6.574c-0.013,0.022-0.013,0.041,0,0.064
		c0.061,0.113,0.12,0.226,0.18,0.34c0.072,0.135,0.145,0.27,0.217,0.406c0.13,0.245,0.26,0.489,0.389,0.734
		C7.379,8.13,7.392,8.143,7.387,8.161z"/>
	<path fill="#949916" d="M3.846,8.166c-0.16,0-0.321,0-0.481,0c-0.011,0-0.023-0.002-0.034,0c-0.033,0.005-0.05-0.013-0.063-0.04
		C3.243,8.077,3.216,8.029,3.19,7.98C3.075,7.764,2.96,7.548,2.845,7.331C2.778,7.204,2.711,7.076,2.643,6.949
		C2.596,6.86,2.549,6.771,2.501,6.682C2.49,6.662,2.489,6.646,2.5,6.625c0.052-0.094,0.102-0.189,0.154-0.284
		c0.096-0.177,0.193-0.353,0.29-0.53c0.07-0.129,0.14-0.257,0.21-0.386C3.191,5.357,3.23,5.289,3.266,5.22
		c0.017-0.034,0.038-0.051,0.079-0.051C3.668,5.171,3.991,5.17,4.314,5.17c0.007,0,0.014,0,0.021,0
		c0.022,0.001,0.03,0.011,0.021,0.03C4.347,5.22,4.338,5.238,4.328,5.256C4.183,5.521,4.039,5.787,3.894,6.052
		C3.801,6.223,3.707,6.393,3.613,6.564C3.609,6.572,3.605,6.58,3.6,6.588c-0.016,0.024-0.011,0.046,0.002,0.07
		C3.717,6.872,3.83,7.086,3.944,7.301c0.129,0.242,0.259,0.485,0.388,0.727c0.019,0.036,0.038,0.073,0.057,0.11
		c0.01,0.021,0.005,0.028-0.02,0.028c-0.018,0.001-0.037,0-0.055,0C4.158,8.166,4.002,8.166,3.846,8.166
		C3.846,8.166,3.846,8.166,3.846,8.166z"/>
	<path fill="#E16522" d="M8.447,8.168c-0.158,0-0.316,0-0.474,0c-0.011,0-0.023-0.001-0.034,0c-0.034,0.004-0.055-0.009-0.07-0.04
		C7.845,8.08,7.819,8.035,7.794,7.988c-0.117-0.22-0.234-0.44-0.351-0.661C7.334,7.123,7.227,6.919,7.119,6.715
		C7.107,6.692,7.096,6.67,7.082,6.649C7.065,6.623,7.066,6.6,7.081,6.572c0.066-0.118,0.13-0.237,0.195-0.355
		c0.095-0.175,0.191-0.349,0.286-0.524C7.65,5.532,7.737,5.372,7.824,5.21c0.014-0.025,0.031-0.036,0.06-0.036
		C7.987,5.175,8.09,5.173,8.193,5.173c0.211,0,0.422,0,0.632,0c0.018,0,0.037,0,0.055,0.001c0.014,0.001,0.021,0.012,0.016,0.023
		C8.885,5.22,8.874,5.242,8.862,5.264C8.719,5.525,8.577,5.786,8.434,6.047C8.348,6.206,8.262,6.365,8.173,6.523
		c-0.014,0.026-0.013,0.045,0,0.069C8.247,6.727,8.318,6.863,8.39,6.998c0.136,0.257,0.272,0.513,0.409,0.77
		c0.063,0.119,0.127,0.238,0.19,0.358c0.005,0.01,0.01,0.021,0.013,0.031c0.001,0.003-0.003,0.01-0.006,0.011
		C8.99,8.17,8.983,8.171,8.976,8.171c-0.119,0-0.238,0-0.357-0.001c-0.057,0-0.115,0-0.172,0C8.447,8.169,8.447,8.169,8.447,8.168z"
		/>
	<path fill="#AF871A" d="M5.764,5.174c0.007,0.02-0.004,0.03-0.01,0.041C5.676,5.358,5.599,5.501,5.521,5.643
		C5.45,5.774,5.379,5.905,5.307,6.035C5.236,6.166,5.164,6.296,5.093,6.426C5.06,6.487,5.028,6.547,4.994,6.607
		c-0.011,0.02-0.011,0.037,0.001,0.057c0.075,0.139,0.148,0.279,0.222,0.419c0.075,0.141,0.151,0.283,0.226,0.424
		C5.536,7.681,5.628,7.854,5.72,8.028c0.005,0.01,0.011,0.02,0.016,0.03C5.752,8.091,5.774,8.12,5.781,8.157
		c-0.036,0.02-0.075,0.009-0.113,0.009c-0.229,0.001-0.458,0-0.687,0c-0.016,0-0.032-0.001-0.048,0
		C4.907,8.168,4.89,8.159,4.878,8.135C4.866,8.11,4.853,8.086,4.84,8.062c-0.14-0.265-0.281-0.53-0.421-0.795
		C4.314,7.072,4.21,6.876,4.106,6.68C4.099,6.668,4.093,6.655,4.087,6.643c-0.007-0.013-0.006-0.027,0-0.04
		c0.01-0.02,0.021-0.041,0.032-0.061C4.218,6.362,4.316,6.181,4.415,6c0.144-0.263,0.287-0.526,0.43-0.79
		c0.017-0.031,0.038-0.04,0.071-0.04c0.218,0.001,0.435,0,0.653,0c0.055,0,0.11,0,0.165,0C5.744,5.171,5.755,5.173,5.764,5.174z"/>
	<path d="M17.23,7.78c-0.145-0.079-0.216-0.211-0.259-0.362c-0.032-0.114-0.049-0.231-0.06-0.35
		c-0.01-0.102-0.012-0.205-0.014-0.307c0-0.014-0.002-0.027-0.004-0.041c0.001-0.037,0.002-0.073,0.003-0.11
		c0.002-0.105,0-0.211,0.006-0.316c0.009-0.16,0.025-0.319,0.068-0.475c0.022-0.082,0.051-0.161,0.098-0.233
		c0.068-0.106,0.162-0.175,0.286-0.195c0.093-0.015,0.187-0.015,0.28,0.01c0.1,0.027,0.175,0.088,0.231,0.172
		c0.066,0.099,0.099,0.211,0.122,0.326c0.025,0.126,0.04,0.253,0.044,0.381c0.002,0.059,0.008,0.119,0.012,0.178
		c-0.001,0.096-0.001,0.192-0.002,0.288c-0.002,0.178-0.013,0.356-0.043,0.532c-0.021,0.122-0.051,0.241-0.119,0.348
		c-0.021,0.033-0.048,0.061-0.072,0.091c-0.024,0.016-0.048,0.034-0.074,0.048c-0.061,0.033-0.127,0.049-0.195,0.053
		C17.433,7.826,17.33,7.818,17.23,7.78z"/>
</g>
</svg>
