<?xml version="1.0" encoding="utf-8"?>
<!-- Generator: Adobe Illustrator 24.3.0, SVG Export Plug-In . SVG Version: 6.00 Build 0)  -->
<svg version="1.1" id="Слой_1" xmlns="http://www.w3.org/2000/svg" xmlns:xlink="http://www.w3.org/1999/xlink" x="0px" y="0px"
	 width="32px" height="13px" viewBox="0 0 32 13" enable-background="new 0 0 32 13" xml:space="preserve">
<g>
	<path d="M19.854,13c-2.555,0-5.11,0-7.665,0c-0.062-0.057-0.095-0.136-0.136-0.206c-0.259-0.44-0.519-0.878-0.777-1.318
		c-0.239-0.408-0.478-0.815-0.718-1.222c-0.277-0.47-0.553-0.94-0.831-1.409C9.494,8.451,9.264,8.056,9.031,7.662
		C8.819,7.303,8.612,6.941,8.394,6.586C8.355,6.523,8.357,6.474,8.394,6.413c0.41-0.686,0.813-1.376,1.219-2.065
		c0.301-0.511,0.601-1.023,0.902-1.534c0.345-0.584,0.688-1.17,1.034-1.753c0.195-0.328,0.387-0.659,0.582-0.987
		c0.021-0.035,0.041-0.071,0.091-0.067c2.533,0,5.066,0,7.598,0c0.058-0.005,0.076,0.042,0.097,0.08
		c0.151,0.266,0.31,0.529,0.465,0.793c0.457,0.778,0.915,1.555,1.373,2.331c0.345,0.584,0.688,1.169,1.034,1.752
		c0.239,0.404,0.478,0.809,0.714,1.215c0.045,0.078,0.089,0.158,0.14,0.232c0.039,0.057,0.041,0.104,0.005,0.165
		c-0.189,0.32-0.379,0.64-0.567,0.961c-0.355,0.608-0.712,1.213-1.07,1.819c-0.345,0.584-0.689,1.168-1.034,1.753
		c-0.238,0.405-0.479,0.808-0.714,1.215c-0.118,0.205-0.242,0.405-0.359,0.61C19.891,12.959,19.875,12.982,19.854,13z"/>
	<path d="M32,6.741c-0.046,0.086-0.086,0.174-0.13,0.261c-0.138,0.273-0.275,0.547-0.413,0.82c-0.06,0.119-0.12,0.237-0.18,0.356
		c-0.133,0.265-0.266,0.529-0.399,0.794c-0.124,0.247-0.249,0.493-0.373,0.739c-0.134,0.267-0.269,0.533-0.403,0.8
		c-0.044,0.087-0.089,0.175-0.133,0.262c-0.076,0.15-0.152,0.3-0.226,0.451c-0.017,0.035-0.037,0.052-0.079,0.055
		c-0.281,0.019-0.561,0.042-0.842,0.064c-0.253,0.02-0.506,0.04-0.759,0.06c-0.208,0.017-0.416,0.034-0.624,0.051
		c-0.003,0-0.005,0-0.008,0c-0.015,0.001-0.023-0.01-0.017-0.024c0.05-0.107,0.101-0.213,0.152-0.32
		c0.009-0.018,0.019-0.035,0.028-0.053c0.112-0.236,0.224-0.471,0.337-0.707c0.13-0.272,0.261-0.543,0.391-0.814
		c0.063-0.131,0.127-0.262,0.19-0.393c0.131-0.271,0.261-0.543,0.392-0.814c0.062-0.129,0.124-0.258,0.186-0.387
		c0.132-0.274,0.263-0.547,0.395-0.821c0.071-0.147,0.142-0.294,0.214-0.44c0.006-0.013,0.005-0.022-0.001-0.035
		c-0.123-0.244-0.246-0.489-0.369-0.733c-0.06-0.119-0.12-0.237-0.18-0.356c-0.132-0.262-0.264-0.525-0.396-0.787
		c-0.125-0.249-0.251-0.497-0.376-0.746c-0.132-0.262-0.265-0.524-0.397-0.786c-0.064-0.128-0.129-0.256-0.193-0.383
		c-0.117-0.231-0.233-0.461-0.35-0.692c-0.01-0.019-0.024-0.038-0.023-0.062c0.06,0,0.117-0.002,0.175,0
		c0.229,0.008,0.457,0.017,0.686,0.025c0.349,0.013,0.698,0.026,1.048,0.039c0.116,0.004,0.231,0.009,0.347,0.01
		c0.036,0,0.053,0.016,0.068,0.046c0.099,0.2,0.199,0.4,0.3,0.599c0.139,0.276,0.278,0.551,0.417,0.827
		c0.059,0.117,0.118,0.233,0.176,0.35c0.134,0.267,0.269,0.533,0.403,0.8c0.058,0.114,0.115,0.229,0.173,0.343
		c0.136,0.269,0.271,0.538,0.407,0.807c0.06,0.119,0.12,0.237,0.18,0.356c0.054,0.108,0.108,0.215,0.164,0.322
		C31.971,6.654,31.977,6.687,32,6.711C32,6.721,32,6.731,32,6.741z"/>
	<path fill="#383838" d="M19.854,0c-0.001,0.005-0.002,0.011-0.003,0.016c-0.033,0-0.065-0.001-0.098-0.001
		c-2.488,0-4.976,0-7.465,0c-0.033,0-0.065,0-0.098,0c0-0.005-0.001-0.01-0.001-0.015C14.745,0,17.299,0,19.854,0z"/>
	<path fill="#666666" d="M9.484,6.417c0.001-0.029,0.02-0.051,0.033-0.074c0.049-0.085,0.1-0.168,0.15-0.253
		c0.094-0.16,0.188-0.321,0.282-0.481c0.108-0.184,0.217-0.368,0.325-0.551c0.08-0.136,0.16-0.273,0.24-0.409
		c0.084-0.143,0.17-0.285,0.254-0.427c0.045-0.076,0.088-0.152,0.133-0.228c0.083-0.141,0.167-0.281,0.25-0.421
		c0.051-0.087,0.101-0.174,0.152-0.26c0.132-0.225,0.265-0.45,0.398-0.675c0.124-0.21,0.247-0.42,0.37-0.63
		c0.101-0.171,0.203-0.341,0.304-0.512c0.096-0.162,0.19-0.325,0.286-0.487c0.019-0.032,0.036-0.07,0.064-0.092
		c0.03-0.023,0.073-0.009,0.11-0.009c2.125,0,4.249,0,6.374,0c0.117,0,0.09-0.017,0.15,0.087c0.085,0.148,0.172,0.295,0.259,0.442
		c0.082,0.138,0.166,0.275,0.248,0.414c0.11,0.186,0.217,0.373,0.327,0.56c0.086,0.147,0.175,0.293,0.261,0.441
		c0.103,0.175,0.205,0.352,0.308,0.527c0.083,0.141,0.168,0.28,0.252,0.42c0.045,0.076,0.087,0.153,0.131,0.229
		c0.085,0.145,0.172,0.289,0.257,0.434c0.04,0.067,0.078,0.135,0.118,0.202c0.093,0.158,0.187,0.315,0.28,0.473
		c0.112,0.19,0.224,0.381,0.336,0.572c0.126,0.214,0.251,0.429,0.377,0.643c0.023,0.039,0.047,0.077,0.072,0.115
		c0.015,0.024,0.016,0.045,0.001,0.07c-0.037,0.06-0.072,0.121-0.108,0.181c-0.099,0.169-0.198,0.338-0.298,0.507
		c-0.084,0.143-0.17,0.284-0.254,0.427c-0.101,0.171-0.2,0.343-0.3,0.514c-0.084,0.143-0.171,0.284-0.255,0.427
		c-0.042,0.071-0.082,0.144-0.124,0.215c-0.106,0.18-0.212,0.359-0.318,0.539c-0.098,0.167-0.195,0.334-0.293,0.501
		c-0.103,0.175-0.207,0.35-0.311,0.525c-0.091,0.154-0.181,0.307-0.271,0.461c-0.126,0.214-0.251,0.429-0.378,0.643
		c-0.082,0.138-0.165,0.276-0.247,0.414c-0.033,0.056-0.066,0.113-0.097,0.17c-0.013,0.025-0.03,0.038-0.06,0.036
		c-0.02-0.002-0.04,0-0.06,0c-2.077,0-4.154,0-6.231,0c-0.015,0-0.03,0-0.045,0c-0.052-0.001-0.056-0.005-0.033-0.049
		c0.05-0.096,0.1-0.191,0.151-0.287c0.063-0.117,0.127-0.234,0.19-0.351c0.035-0.064,0.07-0.127,0.104-0.192
		c0.013-0.025,0.03-0.038,0.059-0.037c0.023,0.001,0.045,0,0.068,0c1.735,0,3.47,0,5.205,0c0.032,0,0.068,0.009,0.097-0.006
		c0.029-0.016,0.037-0.053,0.054-0.08c0.136-0.229,0.271-0.458,0.406-0.687c0.126-0.214,0.251-0.429,0.378-0.643
		c0.098-0.167,0.197-0.333,0.296-0.499c0.093-0.158,0.186-0.316,0.279-0.474c0.11-0.186,0.219-0.372,0.329-0.558
		c0.083-0.141,0.165-0.282,0.247-0.423c0.098-0.167,0.198-0.332,0.296-0.499c0.101-0.171,0.2-0.343,0.301-0.514
		c0.05-0.084,0.099-0.169,0.15-0.253c0.018-0.03,0.018-0.053,0-0.083c-0.064-0.105-0.125-0.212-0.187-0.318
		c-0.096-0.165-0.193-0.33-0.29-0.494c-0.084-0.143-0.17-0.285-0.254-0.427c-0.046-0.078-0.09-0.157-0.136-0.234
		c-0.08-0.136-0.162-0.272-0.242-0.408C20.35,4.49,20.3,4.403,20.249,4.316c-0.127-0.217-0.254-0.434-0.381-0.65
		c-0.116-0.197-0.233-0.393-0.349-0.59c-0.143-0.242-0.285-0.485-0.428-0.727c-0.097-0.164-0.195-0.328-0.291-0.493
		c-0.015-0.025-0.032-0.037-0.06-0.035c-0.018,0.001-0.035,0-0.053,0c-1.78,0-3.56,0-5.341-0.001c-0.063,0-0.099,0.015-0.131,0.072
		C13.12,2.064,13.019,2.231,12.919,2.4c-0.083,0.141-0.168,0.28-0.251,0.421c-0.047,0.08-0.092,0.161-0.14,0.241
		c-0.083,0.141-0.167,0.281-0.25,0.421c-0.046,0.078-0.091,0.156-0.137,0.234c-0.111,0.188-0.222,0.376-0.333,0.565
		c-0.089,0.151-0.178,0.303-0.267,0.455c-0.126,0.214-0.251,0.429-0.378,0.643c-0.084,0.143-0.171,0.284-0.255,0.427
		c-0.108,0.184-0.215,0.369-0.323,0.553c-0.001,0.002-0.003,0.004-0.004,0.007c-0.017,0.042-0.047,0.061-0.094,0.057
		c-0.058-0.004-0.116-0.001-0.173-0.001c-0.251,0-0.503,0-0.754,0C9.536,6.423,9.511,6.427,9.484,6.417z"/>
	<path fill="#6200FF" d="M10.454,8.461c-0.042-0.068-0.085-0.135-0.126-0.204c-0.154-0.261-0.308-0.523-0.462-0.785
		C9.717,7.219,9.569,6.966,9.42,6.713C9.401,6.68,9.38,6.649,9.361,6.617C9.354,6.606,9.346,6.596,9.353,6.581
		c0.024-0.008,0.049-0.004,0.073-0.004c0.374,0,0.748,0,1.123,0c0.018,0,0.035,0,0.053,0c0.023,0,0.045,0.001,0.059-0.024
		c0.005-0.009,0.018-0.007,0.024,0.003c0.032,0.051,0.064,0.102,0.094,0.154c0.11,0.188,0.22,0.377,0.33,0.566
		c0.129,0.221,0.259,0.441,0.39,0.661c0.094,0.16,0.19,0.319,0.284,0.479c0.011,0.019,0.02,0.04,0.03,0.06
		c0.005,0.064-0.043,0.065-0.085,0.067c-0.133,0.006-0.265-0.013-0.397-0.02c-0.205-0.011-0.409-0.028-0.614-0.039
		C10.628,8.48,10.541,8.471,10.454,8.461z"/>
	<path fill="#4100FF" d="M10.454,8.461c0.042-0.024,0.089-0.021,0.132-0.012c0.045,0.01,0.089,0.01,0.134,0.011
		c0.05,0.001,0.099-0.001,0.149,0.012c0.036,0.009,0.075,0.003,0.113,0.003c0.035,0.001,0.069-0.001,0.104,0.011
		c0.023,0.007,0.05,0.003,0.075,0.004c0.06,0.002,0.119-0.003,0.179,0.012c0.035,0.009,0.075,0.002,0.113,0.003
		c0.04,0.001,0.079,0.005,0.119,0.01c0.064,0.009,0.13,0.004,0.195,0.004c0.029,0,0.034-0.025,0.045-0.044
		c0.041,0.066,0.083,0.131,0.122,0.197c0.107,0.181,0.212,0.364,0.319,0.545c0.136,0.231,0.272,0.463,0.408,0.694
		c0.036,0.06,0.073,0.12,0.108,0.181c0.014,0.024,0.025,0.049,0.038,0.073c-0.011,0.05-0.051,0.048-0.088,0.046
		c-0.387-0.024-0.774-0.051-1.161-0.071c-0.048-0.002-0.095-0.008-0.136-0.036c-0.057-0.094-0.115-0.187-0.171-0.282
		c-0.097-0.164-0.192-0.329-0.288-0.493c-0.127-0.216-0.254-0.431-0.382-0.647c-0.036-0.06-0.072-0.12-0.108-0.181
		C10.465,8.489,10.46,8.475,10.454,8.461z"/>
	<path fill="#2100FF" d="M11.422,10.105c0.032,0.001,0.065-0.002,0.097,0.009c0.018,0.006,0.039,0.005,0.059,0.006
		c0.062,0.002,0.124-0.004,0.186,0.013c0.033,0.009,0.07,0.002,0.105,0.002c0.042,0.001,0.084,0.001,0.126,0.011
		c0.041,0.009,0.085,0.003,0.127,0.004c0.037,0.001,0.074-0.002,0.111,0.011c0.02,0.007,0.045,0.003,0.067,0.004
		c0.062,0.002,0.124-0.002,0.186,0.012c0.043,0.01,0.09,0.002,0.135,0.003c0.03,0,0.059,0,0.089,0.01
		c0.035,0.012,0.069,0.005,0.096-0.024c0.067,0.094,0.121,0.196,0.18,0.295c0.096,0.162,0.192,0.324,0.287,0.486
		c0.012,0.021,0.029,0.041,0.032,0.067c-0.047,0.02-0.047,0.02-0.069,0.061c-0.109,0.203-0.218,0.407-0.328,0.61
		c-0.082,0.152-0.166,0.304-0.249,0.455c-0.006,0.011-0.011,0.023-0.027,0.027c-0.008-0.012-0.016-0.024-0.024-0.037
		c-0.093-0.158-0.185-0.316-0.278-0.474c-0.136-0.231-0.272-0.463-0.408-0.694c-0.116-0.197-0.232-0.393-0.348-0.59
		c-0.038-0.065-0.078-0.129-0.116-0.194C11.446,10.154,11.434,10.129,11.422,10.105z"/>
	<path fill="#4500FF" d="M13.938,6.772c0.004,0.01,0.012,0.016,0.023,0.016c0.017,0.001,0.035,0.001,0.052,0.001
		c0.197,0,0.394,0,0.591,0c0.025,0,0.05,0.002,0.074-0.007c0.006,0.034-0.022,0.036-0.042,0.038
		c-0.126,0.015-0.25-0.018-0.376-0.012c0.096-0.007,0.189,0.012,0.284,0.016c0.215,0.008,0.43,0.025,0.645,0.04
		c0.185,0.012,0.37,0.021,0.555,0.035c0.054,0.004,0.103-0.014,0.155-0.022c0.001,0.02,0.003,0.04,0.003,0.059
		c0,0.184,0,0.368,0,0.552c0,0.022,0.003,0.045-0.005,0.067c-0.115,0.011-0.229,0.013-0.344-0.001
		c-0.087-0.011-0.175-0.013-0.262-0.017c-0.281-0.014-0.561-0.034-0.841-0.051c-0.273-0.017-0.546-0.034-0.818-0.053
		c-0.183-0.013-0.365-0.022-0.548-0.035c-0.04-0.003-0.081-0.003-0.11-0.038c-0.001-0.102-0.003-0.204-0.003-0.306
		c-0.001-0.171,0-0.171,0.063-0.325c0.003-0.007,0.008-0.012,0.012-0.018c0.069-0.022,0.14-0.009,0.208-0.003
		c0.199,0.017,0.4,0.022,0.599,0.041C13.883,6.751,13.914,6.748,13.938,6.772z"/>
	<path fill="#C600FF" d="M18.389,4.465c0.001,0.015,0.003,0.03,0.003,0.045c0,0.249,0,0.499-0.001,0.748
		c0,0.012-0.002,0.025-0.003,0.037c-0.012,0.067-0.007,0.135-0.004,0.201c0.003,0.059-0.025,0.075-0.075,0.076
		c-0.098,0.002-0.194-0.011-0.291-0.017c-0.137-0.008-0.274-0.011-0.411-0.028c-0.023-0.003-0.044-0.007-0.062-0.022
		c-0.001-0.078-0.002-0.156-0.004-0.233c0-0.024-0.001-0.049-0.002-0.071c-0.018-0.008-0.029,0.001-0.039,0.007
		C17.455,5.238,17.41,5.27,17.364,5.3c-0.023,0.015-0.044,0.033-0.071,0.041c-0.016,0.006-0.033,0.014-0.051,0.012
		c-0.271-0.027-0.544-0.032-0.815-0.057c-0.046-0.065-0.088-0.132-0.126-0.199c0.028-0.034,0.061-0.047,0.09-0.066
		C16.554,4.92,16.718,4.81,16.882,4.7c0.014-0.01,0.027-0.023,0.045-0.025c0.091,0.034,0.187,0.031,0.281,0.037
		c0.218,0.014,0.435,0.028,0.653,0.041c0.145,0.009,0.29,0.021,0.436,0.025c0.039,0.001,0.055-0.014,0.056-0.051
		c0.001-0.063-0.002-0.126,0.002-0.188C18.356,4.511,18.348,4.476,18.389,4.465z"/>
	<path fill="#1E00FF" d="M12.974,7.36c0.041,0.015,0.083,0.016,0.126,0.015c0.032-0.001,0.065-0.002,0.097,0.01
		c0.016,0.006,0.035,0.004,0.052,0.004c0.07,0.002,0.14-0.004,0.209,0.013c0.035,0.009,0.075,0.002,0.113,0.002
		c0.037,0.001,0.075-0.002,0.112,0.011c0.02,0.007,0.045,0.003,0.067,0.004c0.062,0.002,0.125-0.004,0.187,0.013
		c0.033,0.009,0.07,0.002,0.105,0.003c0.042,0.001,0.084,0,0.127,0.011c0.035,0.009,0.075,0.003,0.112,0.004
		c0.037,0.001,0.075-0.002,0.112,0.011c0.02,0.007,0.045,0.003,0.067,0.004c0.062,0.002,0.124-0.003,0.187,0.012
		c0.04,0.01,0.085,0.002,0.128,0.003c0.032,0,0.065-0.001,0.097,0.01c0.018,0.006,0.04,0.004,0.06,0.005
		c0.067,0.003,0.134-0.004,0.202,0.013c0.038,0.009,0.08,0.002,0.12,0.002c0.035,0,0.069,0.003,0.104,0.01
		c0.044,0.009,0.09,0.004,0.135,0.005c0.028,0,0.055,0,0.078,0.019c0.019,0.016,0.043,0.011,0.065,0.011c0.088,0,0.176,0,0.264,0
		c-0.01,0.017-0.026,0.012-0.04,0.012c-0.088,0-0.176,0-0.264,0c-0.067,0-0.067,0.001-0.067,0.065c0,0.186,0,0.372,0,0.558
		c0,0.02,0,0.04-0.001,0.06c-0.001,0.014-0.009,0.023-0.024,0.024c-0.015,0.001-0.03,0.001-0.045,0.001c-0.236,0-0.473,0-0.709,0
		c-0.015,0-0.03-0.001-0.045-0.001c-0.015-0.001-0.023-0.01-0.024-0.024c-0.001-0.02-0.001-0.04-0.001-0.06c0-0.178,0-0.357,0-0.535
		c0-0.015,0-0.03,0-0.045c-0.001-0.035-0.006-0.04-0.038-0.042c-0.02-0.001-0.04,0-0.06,0c-0.505,0-1.01,0-1.516,0
		c-0.097,0-0.091,0.01-0.09-0.088C12.971,7.44,12.973,7.4,12.974,7.36z"/>
	<path fill="#8F00FF" d="M17.545,5.505c0.065,0.002,0.129-0.003,0.194,0.012c0.043,0.01,0.09,0.002,0.135,0.003
		c0.03,0,0.059,0,0.089,0.01c0.018,0.006,0.039,0.004,0.059,0.005c0.067,0.003,0.135-0.009,0.201,0.014c0.002,0.001,0.005,0,0.007,0
		c0.169-0.002,0.143,0.026,0.146-0.131c0.001-0.03,0-0.06,0-0.09c0-0.013,0.003-0.025,0.012-0.034
		c0.001,0.017,0.003,0.035,0.003,0.052c0,0.31,0,0.619-0.001,0.929c0,0.015-0.002,0.03-0.003,0.045
		c-0.011,0.037-0.006,0.075-0.005,0.112c0.001,0.039-0.018,0.054-0.052,0.058c-0.04,0.005-0.08,0.005-0.12,0.002
		c-0.182-0.012-0.364-0.026-0.546-0.033c-0.042-0.002-0.085-0.006-0.121-0.034c-0.001-0.017-0.003-0.035-0.003-0.052
		c-0.001-0.269-0.001-0.539-0.001-0.808C17.541,5.544,17.544,5.525,17.545,5.505z"/>
	<path fill="#7000FF" d="M13.938,6.772c-0.037,0-0.075,0-0.112,0c-0.012,0-0.026,0.003-0.037-0.001
		c-0.063-0.021-0.129-0.012-0.193-0.014c-0.012,0-0.026,0.002-0.037-0.002c-0.056-0.02-0.114-0.012-0.171-0.013
		C13.35,6.74,13.313,6.74,13.276,6.73c-0.03-0.008-0.065-0.005-0.097-0.004c-0.045,0.002-0.09-0.002-0.133-0.017
		c-0.001-0.005,0.001-0.01,0.005-0.014c0.008-0.009,0.006-0.023,0.013-0.033c-0.001-0.005,0.001-0.01,0.005-0.013
		c0.003-0.006,0.007-0.012,0.01-0.018c-0.001-0.005,0-0.009,0.004-0.013c0.006-0.009,0.003-0.022,0.012-0.03
		c0.007-0.043,0.027-0.081,0.042-0.12c0.066-0.174,0.132-0.347,0.199-0.52c0.003-0.009,0.01-0.017,0.015-0.026
		c0.142,0.034,0.287,0.029,0.431,0.04C13.891,5.972,14,5.981,14.11,5.984c0.041,0.001,0.086,0.002,0.119,0.035
		c-0.083,0.228-0.169,0.454-0.262,0.678c-0.003,0.006-0.009,0.011-0.009,0.019c0.001,0.004,0,0.008-0.003,0.011
		c-0.009,0.009-0.006,0.022-0.013,0.032C13.943,6.764,13.941,6.768,13.938,6.772z"/>
	<path fill="#5100FF" d="M17.545,6.425c0.035,0.001,0.069-0.001,0.104,0.01c0.023,0.007,0.049,0.004,0.074,0.005
		c0.06,0.002,0.119-0.003,0.179,0.012c0.038,0.01,0.08,0.002,0.119,0.003c0.037,0.001,0.074,0.006,0.111,0.01
		c0.072,0.008,0.145,0.004,0.217,0.003c0.014,0,0.023-0.01,0.024-0.024c0.002-0.025,0.001-0.05,0.002-0.075
		c0-0.017-0.002-0.035,0.013-0.049c0.001,0.015,0.003,0.03,0.003,0.045c0,0.267,0,0.534,0,0.8c0,0.015-0.002,0.03-0.003,0.045
		c-0.011,0.094-0.02,0.104-0.117,0.096c-0.221-0.017-0.443-0.029-0.664-0.045c-0.023-0.002-0.044-0.007-0.062-0.022
		c-0.001-0.012-0.003-0.025-0.003-0.037c0-0.244-0.001-0.489-0.001-0.733C17.542,6.454,17.544,6.44,17.545,6.425z"/>
	<path fill="#A600FF" d="M14.229,6.019c-0.037-0.004-0.074-0.004-0.111-0.013c-0.04-0.009-0.084-0.003-0.127-0.004
		c-0.037-0.001-0.074,0.001-0.111-0.011c-0.023-0.008-0.049-0.003-0.074-0.004c-0.059-0.002-0.119,0.002-0.178-0.012
		c-0.04-0.01-0.085-0.005-0.127-0.002c-0.046,0.003-0.088-0.015-0.132-0.019c-0.013-0.001-0.016-0.017-0.019-0.029
		c0.023-0.087,0.06-0.169,0.091-0.253c0.044-0.117,0.09-0.233,0.135-0.349c0.008-0.021,0.013-0.043,0.028-0.061
		c0.021-0.013,0.043-0.011,0.066-0.009c0.253,0.014,0.505,0.029,0.758,0.049c0.025,0.002,0.05,0.004,0.07,0.023
		c-0.011,0.059-0.038,0.113-0.06,0.168c-0.06,0.158-0.122,0.316-0.184,0.473C14.247,5.984,14.244,6.004,14.229,6.019z"/>
	<path fill="#ED00FF" d="M18.389,4.465c-0.015,0.014-0.013,0.032-0.013,0.049c0,0.073,0,0.145-0.001,0.218
		c0,0.018,0,0.035-0.002,0.053c-0.001,0.016-0.016,0.029-0.031,0.024c-0.071-0.022-0.144-0.01-0.217-0.013
		c-0.008,0-0.016,0.001-0.022-0.001c-0.066-0.022-0.134-0.012-0.201-0.014c-0.025-0.001-0.05,0-0.074-0.009
		c-0.016-0.005-0.034-0.006-0.052-0.006c-0.072-0.003-0.145,0.005-0.217-0.013c-0.036-0.009-0.075-0.002-0.113-0.002
		c-0.037,0-0.075,0.002-0.111-0.011c-0.018-0.007-0.04-0.003-0.06-0.004c-0.065-0.002-0.13,0.005-0.194-0.013
		c-0.033-0.009-0.07-0.002-0.105-0.002c-0.03,0-0.047-0.015-0.049-0.045l0,0c0.008-0.009,0.023-0.005,0.029-0.017l-0.001,0.001
		c0.007-0.002,0.012-0.009,0.018-0.013l0.001,0c0.004-0.005,0.009-0.009,0.015-0.011c0.002-0.004,0.005-0.006,0.01-0.005
		c0.008-0.002,0.014-0.008,0.02-0.014l0,0c0.004-0.005,0.009-0.009,0.015-0.012c0.002-0.004,0.004-0.006,0.009-0.005
		c0.009-0.002,0.015-0.007,0.021-0.014l0,0c0.005-0.005,0.01-0.009,0.016-0.012c0.001-0.004,0.004-0.006,0.008-0.004
		c0.01-0.001,0.016-0.007,0.022-0.015c0.156-0.105,0.312-0.21,0.467-0.316c0.023-0.016,0.047-0.016,0.072-0.016
		c0.148,0,0.296,0,0.444,0c0.088,0,0.176,0,0.264,0c0.032,0,0.037,0.004,0.037,0.033C18.391,4.325,18.39,4.395,18.389,4.465z"/>
	<path fill="#6C00FF" d="M15.9,6.877c-0.021,0.036-0.052,0.049-0.094,0.046c-0.062-0.005-0.124,0.002-0.187-0.013
		c-0.043-0.01-0.09-0.002-0.135-0.003c-0.03,0-0.06,0.001-0.089-0.01c-0.018-0.006-0.04-0.005-0.059-0.005
		C15.268,6.89,15.2,6.897,15.133,6.879c-0.033-0.009-0.07-0.002-0.105-0.002c-0.035-0.001-0.069,0.001-0.104-0.01
		c-0.023-0.007-0.05-0.004-0.075-0.005C14.79,6.86,14.73,6.866,14.67,6.85c-0.033-0.009-0.07-0.003-0.105-0.003
		c-0.043,0.001-0.085-0.001-0.126-0.015c-0.043-0.015-0.088-0.018-0.133-0.016c-0.02,0.001-0.039,0-0.062,0
		c0.01-0.022,0.025-0.014,0.036-0.014c0.115-0.001,0.231,0,0.346-0.001c0.019,0,0.041,0.005,0.052-0.02
		c-0.002-0.19-0.006-0.379,0.001-0.569c0.097-0.004,0.193,0.008,0.29,0.014c0.125,0.008,0.25,0.015,0.375,0.024
		c0.062,0.004,0.125,0.003,0.178-0.037c0.001,0.027,0.003,0.055,0.003,0.082c0,0.163-0.001,0.325-0.001,0.488
		c0.077,0.022,0.156,0.004,0.234,0.01c0.046,0.004,0.094-0.009,0.139,0.008C15.905,6.827,15.903,6.852,15.9,6.877z"/>
	<path fill="#2900FF" d="M17.545,7.239c0.043,0,0.085,0,0.128,0c0.025,0,0.05-0.001,0.074,0.009c0.024,0.01,0.049,0.005,0.074,0.006
		c0.057,0.002,0.114-0.003,0.171,0.012c0.038,0.01,0.08,0.002,0.12,0.003c0.037,0.001,0.074-0.001,0.111,0.011
		c0.025,0.008,0.055,0.004,0.082,0.004c0.02,0,0.041,0.006,0.058-0.007c0.019-0.014,0.007-0.038,0.016-0.055
		c0.002-0.004,0.006-0.008,0.009-0.012c0.001,0.02,0.003,0.04,0.003,0.059c0,0.177,0,0.353,0,0.53c0,0.02-0.002,0.04-0.003,0.059
		c-0.01,0.049-0.049,0.054-0.087,0.051c-0.184-0.017-0.369-0.017-0.552-0.038c-0.068-0.008-0.141,0.015-0.204-0.028
		c-0.001-0.025-0.003-0.05-0.003-0.074c0-0.152,0-0.303,0-0.455C17.542,7.288,17.544,7.264,17.545,7.239z"/>
	<path fill="#EA00FF" d="M13.818,4.703c0.005-0.043,0.03-0.079,0.045-0.119c0.035-0.097,0.072-0.193,0.108-0.289
		c0.006-0.016,0.012-0.033,0.018-0.049c0.006-0.015,0.016-0.025,0.034-0.025c0.01,0,0.02,0,0.03,0c0.274,0,0.547,0,0.821,0
		c0.014,0,0.029,0.002,0.044,0.003c-0.001,0.011,0.001,0.019-0.001,0.025c-0.036,0.094-0.073,0.187-0.109,0.28
		c-0.027,0.07-0.054,0.14-0.082,0.21c-0.005,0.014-0.012,0.027-0.019,0.041c-0.028,0.045-0.073,0.038-0.114,0.034
		c-0.224-0.019-0.448-0.029-0.672-0.043C13.875,4.77,13.822,4.772,13.818,4.703z"/>
	<path fill="#CA00FF" d="M13.818,4.703c0.017,0.036,0.045,0.05,0.085,0.048c0.035-0.002,0.07-0.001,0.105,0
		c0.015,0,0.031-0.003,0.045,0.002c0.049,0.017,0.099,0.012,0.149,0.013c0.045,0.001,0.089,0.002,0.134,0.011
		c0.043,0.009,0.09,0.003,0.135,0.004c0.032,0.001,0.064,0.002,0.097,0.009c0.046,0.01,0.094,0.015,0.139-0.009
		c-0.017,0.07-0.048,0.135-0.073,0.202c-0.036,0.095-0.074,0.189-0.111,0.284c-0.004,0.009-0.009,0.018-0.013,0.027
		c-0.003,0.006-0.009,0.011-0.009,0.019c0.002,0.004,0.001,0.008-0.004,0.01c-0.065-0.003-0.129,0.004-0.194-0.013
		c-0.03-0.008-0.065-0.002-0.097-0.002c-0.045-0.001-0.089,0-0.134-0.011c-0.038-0.009-0.08-0.003-0.12-0.004
		c-0.04-0.001-0.079,0-0.119-0.011c-0.03-0.008-0.065-0.005-0.097-0.004c-0.045,0.002-0.09-0.003-0.133-0.017
		c-0.001-0.005,0.001-0.01,0.005-0.013c0.009-0.01,0.007-0.023,0.013-0.034c-0.002-0.005-0.001-0.009,0.003-0.012
		c0.007-0.009,0.004-0.023,0.013-0.032c-0.002-0.005,0-0.01,0.004-0.014c0.003-0.007,0.009-0.012,0.01-0.019
		c-0.001-0.005,0-0.009,0.004-0.011c0.004-0.007,0.009-0.012,0.01-0.021c-0.002-0.004-0.001-0.007,0.003-0.009
		c0.009-0.009,0.006-0.023,0.013-0.033c0.008-0.05,0.031-0.094,0.049-0.14C13.759,4.85,13.78,4.773,13.818,4.703z"/>
	<path fill="#9300FF" d="M15.522,6.214c-0.027,0.06-0.027,0.06-0.091,0.06c-0.048,0-0.096,0-0.143,0
		c-0.015,0-0.031,0.003-0.045-0.002c-0.046-0.017-0.094-0.012-0.142-0.013c-0.047-0.001-0.095,0.003-0.142-0.012
		c-0.021-0.007-0.045-0.003-0.067-0.003c-0.073,0.003-0.145,0.002-0.213-0.03c-0.001-0.143-0.003-0.286-0.003-0.429
		c0-0.028,0.007-0.034,0.037-0.035c0.038-0.001,0.075,0,0.113,0c0.206,0,0.412,0,0.618,0c0.02,0,0.04,0,0.06,0.001
		c0.011,0.001,0.018,0.008,0.02,0.019c0.001,0.005,0.002,0.01,0.001,0.015C15.525,5.928,15.523,6.071,15.522,6.214z"/>
	<path fill="#0500FF" d="M17.545,7.842c0.045,0,0.091,0,0.136,0c0.028,0,0.055-0.002,0.082,0.009c0.024,0.01,0.05,0.005,0.075,0.006
		C17.9,7.86,17.962,7.853,18.025,7.87c0.033,0.009,0.07,0.002,0.105,0.003c0.042,0.001,0.084-0.001,0.127,0.011
		c0.028,0.008,0.06,0.002,0.09,0.003c0.021,0.001,0.028-0.019,0.042-0.029c0.001,0.108,0.002,0.215,0.003,0.323
		c0,0.028-0.007,0.033-0.037,0.034c-0.025,0.001-0.05,0-0.075,0c-0.213,0-0.426,0-0.639,0c-0.02,0-0.04,0-0.06,0
		c-0.029-0.001-0.037-0.008-0.037-0.035C17.543,8.067,17.544,7.955,17.545,7.842z"/>
	<path fill="#A200FE" d="M16.426,5.296c0.046-0.028,0.099-0.023,0.146-0.014c0.052,0.01,0.104,0.01,0.156,0.011
		c0.042,0.001,0.084,0.001,0.126,0.011c0.041,0.009,0.085,0.003,0.127,0.004c0.037,0.001,0.075-0.004,0.111,0.012
		c0.004,0.002,0.01,0.003,0.015,0.002c0.063-0.006,0.124,0.011,0.185,0.018c-0.04,0.039-0.088,0.065-0.134,0.096
		c-0.127,0.085-0.254,0.169-0.381,0.254c-0.027,0.018-0.054,0.034-0.082,0.051c-0.008-0.009-0.014-0.014-0.018-0.02
		c-0.08-0.133-0.161-0.265-0.241-0.398C16.432,5.315,16.43,5.305,16.426,5.296z"/>
	<path fill="#4500FF" d="M15.898,6.802c-0.107,0-0.214,0-0.321,0c-0.019,0-0.041,0.004-0.053-0.018
		c0.064,0.01,0.129,0.003,0.193,0.005c0.052,0.001,0.104,0,0.156,0.001C15.885,6.789,15.894,6.791,15.898,6.802z"/>
	<path fill="#C600FF" d="M16.957,4.658c-0.005,0.014-0.016,0.018-0.029,0.017C16.933,4.662,16.944,4.659,16.957,4.658z"/>
	<path fill="#A600FF" d="M13.682,5.064c0.002,0.013,0,0.026-0.013,0.033C13.668,5.084,13.671,5.073,13.682,5.064z"/>
	<path fill="#A600FF" d="M13.638,5.171c0.001,0.013-0.001,0.024-0.013,0.032C13.623,5.19,13.628,5.18,13.638,5.171z"/>
	<path fill="#A600FF" d="M13.622,5.215c0.002,0.014,0,0.026-0.013,0.034C13.607,5.235,13.61,5.223,13.622,5.215z"/>
	<path fill="#4500FF" d="M13.095,6.59c0.001,0.012-0.001,0.023-0.012,0.03C13.081,6.608,13.085,6.598,13.095,6.59z"/>
	<path fill="#4500FF" d="M13.064,6.663c0.001,0.013,0,0.025-0.013,0.033C13.05,6.683,13.053,6.672,13.064,6.663z"/>
	<path fill="#4500FF" d="M13.941,6.759c-0.001-0.013,0-0.025,0.013-0.032C13.955,6.74,13.952,6.751,13.941,6.759z"/>
	<path fill="#4500FF" d="M13.079,6.633c-0.003,0.006-0.007,0.012-0.01,0.018C13.068,6.642,13.072,6.637,13.079,6.633z"/>
	<path fill="#4500FF" d="M13.957,6.716c-0.001-0.008,0.002-0.015,0.009-0.019C13.967,6.705,13.965,6.712,13.957,6.716z"/>
	<path fill="#C600FF" d="M17.108,4.553c-0.004,0.009-0.011,0.014-0.022,0.015C17.091,4.559,17.098,4.554,17.108,4.553z"/>
	<path fill="#C600FF" d="M17.079,4.573c-0.003,0.007-0.008,0.012-0.016,0.012C17.065,4.576,17.07,4.572,17.079,4.573z"/>
	<path fill="#C600FF" d="M17.063,4.584c-0.004,0.009-0.011,0.014-0.021,0.014C17.046,4.589,17.053,4.585,17.063,4.584z"/>
	<path fill="#C600FF" d="M17.033,4.603c-0.003,0.007-0.008,0.011-0.015,0.012C17.02,4.607,17.025,4.603,17.033,4.603z"/>
	<path fill="#C600FF" d="M17.018,4.615c-0.004,0.009-0.011,0.013-0.02,0.014C17.002,4.62,17.008,4.615,17.018,4.615z"/>
	<path fill="#C600FF" d="M16.988,4.634c-0.002,0.007-0.007,0.011-0.015,0.011C16.975,4.638,16.98,4.634,16.988,4.634z"/>
	<path fill="#C600FF" d="M16.973,4.646c-0.003,0.008-0.009,0.012-0.018,0.013C16.958,4.65,16.964,4.646,16.973,4.646z"/>
	<path fill="#A600FF" d="M13.666,5.107c0.001,0.009-0.003,0.016-0.01,0.021C13.656,5.119,13.658,5.111,13.666,5.107z"/>
	<path fill="#A600FF" d="M13.652,5.139c0,0.008-0.003,0.015-0.01,0.019C13.64,5.149,13.644,5.143,13.652,5.139z"/>
	<path fill="#A600FF" d="M14.501,5.313C14.5,5.305,14.503,5.299,14.51,5.294C14.511,5.303,14.509,5.309,14.501,5.313z"/>
	<path d="M10.456,1.977c-0.028,0.051-0.052,0.094-0.077,0.138c-0.111,0.194-0.223,0.387-0.334,0.581
		c-0.146,0.255-0.291,0.51-0.438,0.765C9.499,3.65,9.389,3.839,9.281,4.029C9.132,4.288,8.984,4.548,8.836,4.807
		C8.715,5.018,8.593,5.229,8.472,5.44C8.336,5.678,8.2,5.915,8.064,6.153c-0.061,0.107-0.122,0.214-0.185,0.32
		c-0.017,0.028-0.015,0.049,0,0.076c0.083,0.146,0.164,0.293,0.246,0.44c0.093,0.167,0.185,0.334,0.278,0.5
		c0.128,0.23,0.257,0.46,0.386,0.69c0.129,0.23,0.257,0.46,0.385,0.69c0.13,0.232,0.26,0.465,0.389,0.697
		c0.127,0.228,0.255,0.456,0.382,0.684c0.131,0.235,0.262,0.469,0.393,0.704c0.072,0.129,0.145,0.258,0.218,0.387
		c0.011,0.019,0.006,0.029-0.014,0.029c-0.065-0.001-0.131-0.002-0.196-0.003c-0.581-0.01-1.161-0.019-1.742-0.029
		c-0.633-0.011-1.267-0.022-1.9-0.033c-0.427-0.007-0.855-0.015-1.282-0.022c-0.085-0.002-0.072,0.016-0.112-0.07
		c-0.113-0.238-0.225-0.477-0.338-0.715c-0.13-0.274-0.261-0.548-0.392-0.822C4.517,9.541,4.453,9.407,4.389,9.274
		C4.26,9.002,4.13,8.73,4,8.458C3.873,8.191,3.746,7.924,3.619,7.656C3.488,7.382,3.357,7.108,3.226,6.834
		C3.184,6.746,3.144,6.656,3.098,6.57c-0.023-0.044-0.025-0.08,0-0.126c0.069-0.128,0.131-0.26,0.196-0.39
		C3.386,5.87,3.478,5.686,3.57,5.502C3.698,5.246,3.826,4.99,3.954,4.734C4.083,4.476,4.213,4.218,4.342,3.96
		C4.471,3.702,4.6,3.444,4.73,3.186C4.859,2.928,4.988,2.67,5.117,2.412c0.065-0.13,0.13-0.26,0.196-0.39
		c0.004-0.009,0.01-0.018,0.014-0.027C5.341,1.96,5.365,1.949,5.403,1.95c0.292,0.003,0.583,0.004,0.875,0.005
		C6.675,1.957,7.072,1.958,7.47,1.959c0.691,0.002,1.383,0.003,2.074,0.005c0.274,0.001,0.548,0.003,0.822,0.004
		C10.394,1.969,10.421,1.966,10.456,1.977z"/>
	<path d="M4.61,11.32c-0.068-0.005-0.138-0.009-0.207-0.014c-0.168-0.013-0.336-0.027-0.504-0.04
		c-0.16-0.013-0.321-0.026-0.481-0.039c-0.145-0.012-0.291-0.023-0.436-0.034c-0.173-0.014-0.346-0.028-0.519-0.041
		c-0.04-0.003-0.08-0.006-0.12-0.007c-0.026-0.001-0.041-0.013-0.052-0.035c-0.055-0.11-0.111-0.22-0.166-0.329
		c-0.085-0.168-0.169-0.336-0.254-0.505c-0.123-0.244-0.246-0.489-0.369-0.733C1.369,9.274,1.235,9.007,1.1,8.741
		c-0.128-0.253-0.255-0.507-0.383-0.76c-0.13-0.258-0.259-0.516-0.39-0.773c-0.096-0.19-0.193-0.38-0.289-0.571
		c-0.008-0.015-0.017-0.03-0.026-0.045c0.044-0.085,0.09-0.171,0.134-0.258c0.109-0.217,0.217-0.436,0.327-0.653
		c0.13-0.258,0.26-0.515,0.39-0.773c0.128-0.253,0.256-0.506,0.384-0.759c0.13-0.258,0.26-0.515,0.39-0.773
		C1.765,3.122,1.892,2.869,2.02,2.616c0.09-0.177,0.18-0.353,0.269-0.53C2.305,2.055,2.323,2.041,2.358,2.04
		c0.143-0.003,0.286-0.01,0.43-0.015C3.112,2.014,3.436,2.003,3.76,1.991c0.229-0.008,0.457-0.017,0.686-0.025
		c0.055-0.002,0.11,0,0.164,0C4.617,1.978,4.609,1.989,4.603,2C4.521,2.161,4.439,2.322,4.358,2.483
		C4.335,2.528,4.313,2.573,4.29,2.618C4.195,2.808,4.099,2.999,4.004,3.19c-0.13,0.258-0.26,0.516-0.39,0.773
		C3.486,4.216,3.358,4.469,3.23,4.722C3.1,4.98,2.97,5.237,2.84,5.495C2.712,5.751,2.583,6.006,2.454,6.261
		C2.418,6.333,2.382,6.405,2.344,6.475C2.324,6.511,2.32,6.541,2.34,6.58c0.102,0.204,0.2,0.41,0.299,0.616
		c0.022,0.045,0.042,0.091,0.064,0.136C2.8,7.534,2.896,7.736,2.993,7.937C3.12,8.202,3.248,8.466,3.375,8.73
		c0.131,0.271,0.261,0.543,0.392,0.814c0.127,0.265,0.254,0.529,0.382,0.794c0.13,0.271,0.261,0.543,0.392,0.814
		c0.022,0.045,0.044,0.09,0.067,0.135C4.611,11.296,4.615,11.305,4.61,11.32z"/>
	<path d="M21.453,11.506c0.042-0.083,0.081-0.153,0.121-0.222c0.009-0.015,0.019-0.03,0.027-0.045
		c0.11-0.198,0.218-0.396,0.328-0.593c0.133-0.239,0.267-0.478,0.4-0.717c0.126-0.226,0.252-0.451,0.378-0.677
		c0.131-0.234,0.262-0.469,0.393-0.703c0.127-0.228,0.255-0.456,0.382-0.684c0.131-0.234,0.262-0.469,0.393-0.703
		c0.083-0.149,0.168-0.297,0.252-0.446c0.009-0.015,0.017-0.031,0.026-0.046c0.01-0.016,0.011-0.032,0.001-0.049
		c-0.016-0.026-0.03-0.053-0.045-0.079c-0.038-0.065-0.076-0.13-0.113-0.195c-0.09-0.157-0.179-0.314-0.269-0.471
		c-0.128-0.224-0.257-0.448-0.386-0.673c-0.129-0.224-0.257-0.449-0.386-0.673c-0.129-0.224-0.257-0.449-0.386-0.673
		c-0.13-0.226-0.26-0.453-0.39-0.679c-0.127-0.222-0.255-0.444-0.382-0.666c-0.071-0.124-0.142-0.248-0.214-0.372
		c-0.005-0.008-0.013-0.016-0.007-0.028c0.017-0.013,0.037-0.007,0.056-0.007c0.546-0.003,1.091-0.005,1.637-0.007
		c0.779-0.002,1.559-0.004,2.338-0.006c0.327-0.001,0.654-0.004,0.98-0.006c0.02,0,0.04,0.001,0.06,0
		c0.018-0.001,0.028,0.007,0.036,0.021c0.005,0.009,0.009,0.018,0.013,0.027c0.076,0.153,0.153,0.305,0.229,0.458
		c0.143,0.287,0.287,0.575,0.43,0.862c0.059,0.119,0.119,0.238,0.179,0.357c0.134,0.267,0.268,0.534,0.402,0.801
		c0.062,0.123,0.123,0.247,0.185,0.37c0.131,0.263,0.263,0.525,0.394,0.788c0.127,0.254,0.254,0.507,0.381,0.761
		c0.014,0.027,0.027,0.054,0.043,0.08c0.011,0.019,0.014,0.036,0.004,0.057c-0.071,0.147-0.141,0.294-0.212,0.441
		c-0.008,0.016-0.016,0.031-0.024,0.047c-0.11,0.231-0.219,0.463-0.329,0.694c-0.135,0.283-0.27,0.566-0.405,0.85
		c-0.058,0.122-0.116,0.245-0.174,0.367c-0.135,0.283-0.27,0.566-0.405,0.85c-0.059,0.125-0.119,0.249-0.179,0.373
		c-0.135,0.283-0.27,0.566-0.405,0.849c-0.04,0.084-0.081,0.167-0.121,0.251c-0.008,0.018-0.018,0.029-0.039,0.028
		c-0.02-0.001-0.04,0-0.06,0.001c-0.387,0.006-0.774,0.013-1.161,0.019c-0.581,0.01-1.161,0.019-1.742,0.029
		c-0.633,0.011-1.267,0.022-1.9,0.033C21.682,11.5,21.574,11.503,21.453,11.506z"/>
	<path fill="#D900FF" d="M30.263,4.344c0.004,0.002,0.005,0.005,0.004,0.009c0.002,0.009,0.007,0.015,0.013,0.021l0,0
		c0.009,0.008,0.006,0.022,0.016,0.03l0-0.001c0.008,0.009,0.006,0.023,0.015,0.031l0,0c0.009,0.008,0.006,0.022,0.015,0.031l0,0
		c0.009,0.008,0.006,0.022,0.015,0.031l0,0c0.009,0.008,0.006,0.022,0.015,0.03l0,0c0.009,0.008,0.006,0.022,0.015,0.03l0,0
		c-0.01,0.051-0.05,0.05-0.087,0.047c-0.344-0.027-0.69-0.039-1.034-0.069c-0.043-0.004-0.078-0.014-0.102-0.053
		c-0.035-0.046-0.057-0.1-0.083-0.151c-0.105-0.208-0.209-0.417-0.313-0.626c-0.125-0.249-0.251-0.497-0.377-0.745
		c-0.051-0.101-0.103-0.201-0.153-0.302c-0.009-0.017-0.024-0.033-0.017-0.058c0.029,0,0.059-0.001,0.088,0
		c0.201,0.008,0.402,0.016,0.602,0.023c0.156,0.006,0.311,0.012,0.467,0.016c0.035,0.001,0.054,0.012,0.069,0.043
		c0.073,0.149,0.148,0.296,0.222,0.444c0.138,0.273,0.275,0.547,0.413,0.82c0.059,0.116,0.117,0.233,0.176,0.349
		c0.004,0.009,0.007,0.019,0.01,0.028C30.253,4.331,30.258,4.337,30.263,4.344z"/>
	<path fill="#2700FF" d="M30.264,9.109c-0.003,0.026-0.018,0.047-0.029,0.069c-0.105,0.211-0.211,0.422-0.317,0.633
		c-0.129,0.256-0.258,0.511-0.387,0.767c-0.035,0.069-0.072,0.138-0.106,0.208c-0.013,0.028-0.03,0.04-0.063,0.043
		c-0.173,0.012-0.346,0.028-0.518,0.041c-0.158,0.012-0.316,0.024-0.474,0.035c-0.055,0.004-0.109,0.018-0.165,0.01
		c-0.009-0.02,0.005-0.034,0.012-0.049c0.1-0.211,0.201-0.422,0.301-0.632c0.064-0.134,0.128-0.267,0.193-0.4
		c0.101-0.208,0.202-0.416,0.302-0.624c0.026-0.054,0.051-0.109,0.077-0.164c0.007-0.015,0.011-0.034,0.027-0.044
		c0.154,0.054,0.316,0.04,0.475,0.052c0.192,0.014,0.383,0.03,0.576,0.037C30.2,9.093,30.234,9.094,30.264,9.109z"/>
	<path fill="#AB00FF" d="M29.147,4.48c0.029,0.02,0.06,0.035,0.098,0.03c0.025-0.003,0.05-0.001,0.074,0.008
		c0.016,0.006,0.034,0.006,0.052,0.006c0.072,0.003,0.145-0.005,0.217,0.013c0.036,0.009,0.075,0.002,0.113,0.002
		c0.037,0,0.075-0.002,0.111,0.011c0.018,0.007,0.04,0.003,0.06,0.004c0.065,0.002,0.129-0.004,0.194,0.013
		c0.035,0.009,0.075,0.002,0.112,0.003c0.032,0.001,0.064-0.001,0.096,0.01c0.035,0.012,0.069,0.005,0.096-0.025
		c0.007,0.01,0.015,0.02,0.02,0.031c0.077,0.152,0.154,0.305,0.23,0.457c0.131,0.26,0.262,0.52,0.393,0.78
		c0.012,0.025,0.023,0.05,0.035,0.075c0.01,0.007,0.007,0.021,0.016,0.029l0,0c0.009,0.008,0.006,0.022,0.015,0.03l0,0
		c0.009,0.008,0.006,0.022,0.015,0.03l0,0c0.009,0.008,0.006,0.022,0.015,0.03l0,0c0.009,0.008,0.007,0.022,0.015,0.03l0,0
		c0.01,0.008,0.007,0.021,0.015,0.03l0,0c0.01,0.008,0.007,0.021,0.015,0.03l0,0c0.01,0.007,0.007,0.021,0.015,0.03
		c0.004,0.001,0.005,0.004,0.003,0.008c0,0.009,0.007,0.016,0.012,0.023c0.004,0.002,0.005,0.005,0.004,0.009
		c-0.005,0.063-0.057,0.057-0.095,0.057c-0.108,0-0.215-0.01-0.323-0.018c-0.21-0.015-0.42-0.028-0.63-0.04
		c-0.055-0.003-0.111-0.004-0.158-0.038c-0.004-0.003-0.006-0.007-0.005-0.013c-0.003-0.006-0.006-0.011-0.01-0.017
		c-0.072-0.14-0.144-0.28-0.215-0.421C29.61,5.409,29.47,5.129,29.329,4.85c-0.054-0.107-0.109-0.214-0.163-0.322
		C29.158,4.513,29.147,4.499,29.147,4.48z"/>
	<path fill="#5800FF" d="M30.264,9.109c-0.02,0.01-0.042,0.02-0.064,0.01c-0.031-0.014-0.064-0.01-0.096-0.011
		c-0.062-0.001-0.124,0.003-0.186-0.013c-0.033-0.008-0.07-0.002-0.105-0.002c-0.035,0-0.069,0.001-0.104-0.011
		c-0.023-0.007-0.049-0.004-0.074-0.004c-0.06-0.002-0.119,0.005-0.179-0.013c-0.025-0.008-0.055-0.004-0.082-0.002
		c-0.068,0.006-0.134-0.01-0.201-0.016c-0.028-0.003-0.044-0.022-0.055-0.045c0.067-0.142,0.135-0.285,0.202-0.427
		c0.015-0.032,0.03-0.063,0.045-0.095c0.101-0.212,0.203-0.425,0.304-0.637c0.045-0.095,0.092-0.189,0.138-0.284
		c0.004-0.009,0.011-0.016,0.016-0.025c0.286,0.029,0.573,0.042,0.86,0.059c0.08,0.005,0.159,0.016,0.239,0.016
		c0.031,0,0.059,0.009,0.079,0.036c-0.04,0.1-0.093,0.194-0.14,0.291c-0.011,0.022-0.024,0.044-0.035,0.066
		c-0.11,0.22-0.22,0.44-0.33,0.66c-0.064,0.128-0.128,0.255-0.193,0.383C30.292,9.068,30.283,9.092,30.264,9.109z"/>
	<path fill="#7F00FF" d="M31.002,7.646c-0.036-0.014-0.073-0.016-0.11-0.016c-0.057,0-0.114,0.002-0.171-0.012
		c-0.038-0.009-0.08-0.002-0.12-0.003c-0.03,0-0.059,0-0.089-0.01c-0.021-0.007-0.044-0.004-0.067-0.005
		c-0.065-0.003-0.129,0.003-0.193-0.013c-0.04-0.01-0.085-0.002-0.127-0.003c-0.032,0-0.064-0.002-0.096-0.009
		C29.99,7.568,29.95,7.571,29.91,7.571c-0.034,0-0.065-0.005-0.085-0.036c-0.001-0.004,0-0.007,0.004-0.009
		c0.008-0.008,0.005-0.022,0.014-0.03l0,0c0.009-0.008,0.006-0.022,0.015-0.031l0,0.001c0.01-0.008,0.007-0.023,0.015-0.032
		c-0.001-0.005,0-0.01,0.005-0.014c0.003-0.006,0.006-0.012,0.01-0.018c-0.001-0.005,0.001-0.01,0.005-0.013
		c0.002-0.006,0.006-0.011,0.011-0.015l0,0c0.009-0.008,0.007-0.022,0.015-0.031l0,0c0.01-0.008,0.007-0.023,0.015-0.032
		c0.002-0.005,0.003-0.009,0.005-0.014c0.003-0.006,0.006-0.012,0.01-0.017c-0.001-0.005,0-0.01,0.005-0.013
		c0.003-0.006,0.007-0.012,0.01-0.018c-0.001-0.005,0-0.009,0.004-0.012c0.003-0.006,0.009-0.011,0.01-0.019
		c0.026-0.076,0.064-0.146,0.098-0.218c0.048-0.102,0.097-0.203,0.147-0.303c0.014-0.028,0.013-0.05-0.001-0.077
		c-0.065-0.126-0.129-0.254-0.193-0.381c-0.017-0.033-0.031-0.068-0.047-0.102c0.015,0,0.031-0.003,0.045,0.001
		c0.051,0.017,0.104,0.013,0.157,0.014c0.037,0.001,0.074,0.001,0.112,0.011c0.033,0.009,0.07,0.003,0.105,0.004
		c0.047,0.001,0.095-0.002,0.142,0.012c0.028,0.008,0.06,0.003,0.09,0.003c0.045,0.001,0.089,0,0.134,0.011
		c0.038,0.009,0.08,0.003,0.12,0.004c0.04,0.001,0.079,0.002,0.119,0.011c0.041,0.009,0.085,0.005,0.127,0.003
		c0.023-0.001,0.043-0.012,0.055-0.034c0.028,0.05,0.058,0.099,0.084,0.15c0.062,0.12,0.122,0.242,0.183,0.362
		c0.01,0.02,0.017,0.038,0.005,0.063c-0.124,0.243-0.247,0.487-0.37,0.731c-0.002,0.004-0.007,0.007-0.01,0.011
		c-0.009,0.008-0.006,0.021-0.015,0.03l0,0.001c-0.009,0.007-0.006,0.021-0.015,0.028l-0.001,0.002
		c-0.005,0.006-0.01,0.011-0.012,0.019c0.001,0.005-0.001,0.009-0.005,0.012c-0.004,0.006-0.009,0.011-0.01,0.019
		c0.001,0.005-0.001,0.009-0.005,0.011c-0.004,0.006-0.01,0.011-0.01,0.019C31.007,7.64,31.006,7.644,31.002,7.646z"/>
	<path fill="#7F00FF" d="M31.094,5.988c-0.012-0.007-0.015-0.017-0.015-0.03C31.09,5.965,31.095,5.975,31.094,5.988z"/>
	<path fill="#7F00FF" d="M31.154,6.108c-0.012-0.007-0.015-0.017-0.015-0.03C31.15,6.086,31.155,6.095,31.154,6.108z"/>
	<path fill="#7F00FF" d="M31.109,6.018C31.097,6.011,31.094,6,31.094,5.988C31.105,5.995,31.11,6.005,31.109,6.018z"/>
	<path fill="#7F00FF" d="M31.169,6.138c-0.012-0.007-0.015-0.017-0.015-0.03C31.165,6.116,31.17,6.126,31.169,6.138z"/>
	<path fill="#7F00FF" d="M31.124,6.048c-0.012-0.007-0.015-0.017-0.015-0.03C31.12,6.025,31.125,6.035,31.124,6.048z"/>
	<path fill="#7F00FF" d="M31.139,6.078c-0.012-0.006-0.015-0.017-0.015-0.03C31.135,6.056,31.14,6.065,31.139,6.078z"/>
	<path fill="#5800FF" d="M29.932,7.313c0.001,0.013-0.002,0.025-0.015,0.032C29.917,7.332,29.922,7.321,29.932,7.313z"/>
	<path fill="#5800FF" d="M29.918,7.344c0,0.013-0.003,0.024-0.015,0.031C29.903,7.362,29.907,7.352,29.918,7.344z"/>
	<path fill="#7F00FF" d="M31.065,5.927c-0.012-0.006-0.016-0.016-0.016-0.029C31.061,5.904,31.065,5.914,31.065,5.927z"/>
	<path fill="#5800FF" d="M29.872,7.433c0.001,0.013-0.002,0.025-0.015,0.032C29.857,7.452,29.861,7.441,29.872,7.433z"/>
	<path fill="#5800FF" d="M29.857,7.465c0.001,0.013-0.002,0.024-0.015,0.031C29.842,7.483,29.847,7.472,29.857,7.465z"/>
	<path fill="#5800FF" d="M29.843,7.496c0,0.012-0.003,0.023-0.014,0.03C29.827,7.513,29.832,7.503,29.843,7.496z"/>
	<path fill="#5800FF" d="M31.049,7.554c0-0.012,0.003-0.023,0.015-0.028C31.065,7.539,31.061,7.549,31.049,7.554z"/>
	<path fill="#AB00FF" d="M30.295,4.404c-0.013-0.006-0.016-0.017-0.016-0.03C30.292,4.38,30.296,4.391,30.295,4.404z"/>
	<path fill="#AB00FF" d="M30.31,4.434c-0.013-0.007-0.016-0.018-0.015-0.031C30.307,4.41,30.311,4.421,30.31,4.434z"/>
	<path fill="#AB00FF" d="M30.325,4.464c-0.013-0.006-0.016-0.017-0.015-0.031C30.321,4.441,30.326,4.451,30.325,4.464z"/>
	<path fill="#AB00FF" d="M30.34,4.494c-0.013-0.006-0.016-0.017-0.015-0.031C30.336,4.471,30.341,4.481,30.34,4.494z"/>
	<path fill="#AB00FF" d="M30.355,4.525c-0.013-0.006-0.016-0.017-0.015-0.03C30.351,4.501,30.356,4.512,30.355,4.525z"/>
	<path fill="#AB00FF" d="M30.37,4.555c-0.012-0.006-0.016-0.017-0.015-0.03C30.366,4.532,30.371,4.542,30.37,4.555z"/>
	<path fill="#7F00FF" d="M31.079,5.957c-0.012-0.007-0.015-0.018-0.015-0.03C31.075,5.934,31.08,5.944,31.079,5.957z"/>
	<path fill="#5800FF" d="M31.065,7.525c-0.001-0.013,0.002-0.023,0.015-0.03C31.08,7.508,31.075,7.518,31.065,7.525z"/>
	<path fill="#AB00FF" d="M30.263,4.344c-0.008-0.005-0.012-0.012-0.011-0.021C30.26,4.327,30.263,4.334,30.263,4.344z"/>
	<path fill="#AB00FF" d="M30.28,4.374c-0.009-0.004-0.013-0.011-0.013-0.021C30.276,4.357,30.28,4.364,30.28,4.374z"/>
	<path fill="#5800FF" d="M29.977,7.22c0,0.008-0.003,0.014-0.01,0.019C29.966,7.23,29.969,7.224,29.977,7.22z"/>
	<path fill="#5800FF" d="M29.962,7.251c-0.003,0.006-0.007,0.012-0.01,0.018C29.951,7.26,29.955,7.255,29.962,7.251z"/>
	<path fill="#5800FF" d="M29.947,7.282c-0.003,0.006-0.007,0.011-0.01,0.017C29.936,7.291,29.94,7.285,29.947,7.282z"/>
	<path fill="#5800FF" d="M29.903,7.375c-0.004,0.005-0.007,0.01-0.011,0.015C29.892,7.382,29.896,7.377,29.903,7.375z"/>
	<path fill="#5800FF" d="M29.887,7.402c-0.003,0.006-0.007,0.012-0.01,0.018C29.876,7.411,29.88,7.406,29.887,7.402z"/>
	<path fill="#7F00FF" d="M29.967,6.109c0.007,0.004,0.01,0.009,0.01,0.017C29.969,6.122,29.966,6.117,29.967,6.109z"/>
	<path fill="#7F00FF" d="M31.184,6.169c-0.008-0.005-0.012-0.013-0.012-0.023C31.181,6.151,31.185,6.159,31.184,6.169z"/>
	<path fill="#5800FF" d="M31.036,7.575c0-0.009,0.004-0.015,0.012-0.019C31.048,7.565,31.044,7.571,31.036,7.575z"/>
	<path fill="#5800FF" d="M31.006,7.636c0-0.008,0.003-0.015,0.01-0.019C31.017,7.625,31.014,7.632,31.006,7.636z"/>
	<path fill="#5800FF" d="M31.021,7.605c-0.001-0.008,0.003-0.015,0.01-0.019C31.032,7.595,31.029,7.601,31.021,7.605z"/>
	<path fill="#2900FF" d="M8.674,8.958C8.717,9.015,8.745,9.079,8.779,9.14c0.134,0.238,0.267,0.478,0.4,0.717
		c0.117,0.21,0.235,0.421,0.353,0.631c0.053,0.094,0.106,0.188,0.159,0.282c0.018,0.033,0.036,0.066,0.052,0.095
		c-0.008,0.021-0.022,0.017-0.034,0.017C9.6,10.88,9.492,10.877,9.384,10.875c-0.47-0.007-0.94-0.011-1.41-0.022
		c-0.266-0.006-0.533-0.005-0.799-0.013c-0.329-0.01-0.658-0.01-0.987-0.016c-0.161-0.003-0.322-0.008-0.482-0.009
		c-0.037,0-0.059-0.011-0.075-0.046c-0.078-0.169-0.159-0.336-0.239-0.503c-0.088-0.183-0.176-0.366-0.264-0.55
		c-0.034-0.07-0.066-0.141-0.099-0.211C4.943,9.322,4.858,9.141,4.771,8.96C4.739,8.894,4.703,8.831,4.679,8.762
		c0.017-0.018,0.04-0.022,0.062-0.02c0.17,0.015,0.341,0.02,0.511,0.033C5.45,8.79,5.648,8.8,5.846,8.813
		c0.213,0.014,0.426,0.029,0.638,0.041c0.19,0.011,0.381,0.023,0.571,0.035C7.34,8.908,7.626,8.928,7.911,8.944
		c0.22,0.013,0.441,0.032,0.661,0.039C8.609,8.984,8.642,8.972,8.674,8.958z"/>
	<path fill="#BE00FF" d="M8.931,3.666C8.9,3.74,8.856,3.807,8.817,3.876C8.809,3.889,8.801,3.901,8.793,3.914
		c-0.11,0.193-0.22,0.387-0.331,0.581C8.342,4.705,8.221,4.916,8.099,5.126C8.096,5.132,8.09,5.137,8.085,5.143
		C8.052,5.166,8.014,5.168,7.977,5.166c-0.18-0.014-0.36-0.022-0.54-0.035C7.234,5.115,7.031,5.105,6.828,5.091
		c-0.208-0.014-0.415-0.026-0.623-0.04C6.018,5.038,5.83,5.027,5.642,5.016c-0.21-0.013-0.42-0.027-0.63-0.04
		c-0.118-0.008-0.235-0.021-0.353-0.02c-0.061,0-0.121-0.006-0.179-0.023c-0.036-0.01-0.067-0.028-0.045-0.075
		c0.032-0.084,0.077-0.163,0.116-0.244c0.02-0.041,0.042-0.08,0.062-0.12c0.104-0.208,0.207-0.417,0.31-0.625
		C4.987,3.74,5.051,3.613,5.115,3.485c0.017-0.033,0.038-0.064,0.057-0.096c0.123,0.066,0.26,0.044,0.391,0.054
		c0.292,0.024,0.585,0.038,0.878,0.057c0.188,0.013,0.375,0.024,0.563,0.035c0.208,0.013,0.415,0.027,0.623,0.04
		c0.195,0.012,0.39,0.023,0.586,0.036C8.452,3.629,8.693,3.632,8.931,3.666z"/>
	<path fill="#5400FF" d="M8.674,8.958C8.656,9.003,8.636,9.02,8.599,9.01c-0.035-0.009-0.07-0.005-0.105-0.006
		C8.447,9.002,8.4,9.003,8.352,8.992c-0.043-0.01-0.09-0.003-0.135-0.004c-0.033,0-0.065,0.001-0.097-0.01
		C8.104,8.972,8.086,8.974,8.068,8.973c-0.07-0.002-0.14,0.004-0.21-0.013C7.823,8.951,7.783,8.959,7.746,8.958
		C7.708,8.958,7.671,8.96,7.634,8.947c-0.018-0.007-0.04-0.003-0.06-0.004C7.509,8.941,7.444,8.947,7.38,8.93
		C7.344,8.921,7.305,8.928,7.267,8.928c-0.033,0-0.065,0.002-0.097-0.01C7.154,8.912,7.136,8.914,7.118,8.913
		c-0.07-0.002-0.14,0.004-0.21-0.013C6.873,8.891,6.833,8.898,6.796,8.898C6.758,8.897,6.721,8.9,6.684,8.887
		C6.664,8.88,6.639,8.884,6.617,8.883C6.554,8.881,6.492,8.885,6.43,8.87c-0.04-0.01-0.085-0.002-0.128-0.003
		c-0.033,0-0.065,0-0.097-0.01C6.182,8.851,6.155,8.854,6.13,8.853C6.075,8.851,6.021,8.854,5.966,8.841
		c-0.038-0.009-0.08-0.002-0.12-0.003C5.808,8.837,5.771,8.84,5.734,8.827C5.714,8.82,5.689,8.823,5.667,8.823
		C5.604,8.82,5.542,8.827,5.48,8.81C5.447,8.801,5.41,8.808,5.375,8.807C5.332,8.806,5.29,8.811,5.248,8.796
		C5.232,8.79,5.213,8.793,5.196,8.792C5.128,8.79,5.061,8.798,4.993,8.779c-0.028-0.008-0.06-0.001-0.09-0.002
		C4.856,8.776,4.809,8.78,4.762,8.765C4.736,8.757,4.707,8.763,4.679,8.762C4.675,8.759,4.674,8.755,4.675,8.75
		c-0.003-0.006-0.007-0.012-0.01-0.017C4.593,8.584,4.521,8.435,4.449,8.286c-0.097-0.201-0.194-0.402-0.29-0.604
		C4.109,7.575,4.055,7.47,4.013,7.36c0.104-0.034,0.209-0.007,0.313-0.002c0.21,0.01,0.421,0.026,0.631,0.04
		c0.203,0.014,0.405,0.026,0.608,0.039C5.752,7.449,5.94,7.461,6.128,7.473c0.208,0.013,0.415,0.026,0.623,0.039
		c0.183,0.012,0.365,0.024,0.548,0.035C7.434,7.555,7.57,7.56,7.704,7.574c0.064,0.007,0.125,0,0.185-0.019
		C7.896,7.563,7.903,7.57,7.908,7.579c0.1,0.179,0.199,0.358,0.299,0.538C8.283,8.254,8.359,8.392,8.435,8.53
		c0,0.009,0.006,0.015,0.012,0.021l0,0.001C8.453,8.555,8.455,8.56,8.457,8.565c0.002,0.005,0.004,0.01,0.007,0.015
		c0.004,0.004,0.008,0.009,0.01,0.015C8.475,8.6,8.477,8.605,8.479,8.609C8.483,8.615,8.486,8.62,8.49,8.626
		c0.004,0.003,0.006,0.007,0.005,0.012C8.497,8.645,8.502,8.65,8.505,8.656C8.509,8.658,8.511,8.662,8.51,8.667
		c0.001,0.008,0.006,0.014,0.012,0.02c0.004,0.002,0.005,0.005,0.004,0.008c0,0.01,0.006,0.016,0.013,0.022l0,0
		c0.005,0.004,0.008,0.008,0.01,0.014c0.002,0.005,0.004,0.01,0.006,0.015c0.004,0.005,0.008,0.01,0.01,0.016
		C8.569,8.765,8.57,8.769,8.57,8.774C8.573,8.78,8.577,8.786,8.58,8.792c0.004,0.003,0.006,0.007,0.005,0.011
		c0.002,0.007,0.007,0.013,0.011,0.019C8.6,8.824,8.601,8.828,8.601,8.832c0.001,0.009,0.007,0.015,0.013,0.021l0,0
		c0.005,0.004,0.009,0.009,0.012,0.015C8.629,8.87,8.631,8.874,8.63,8.879c0.002,0.007,0.007,0.013,0.011,0.019
		C8.645,8.9,8.647,8.903,8.646,8.907c0.001,0.009,0.007,0.015,0.012,0.021l0,0.001C8.669,8.936,8.665,8.951,8.674,8.958L8.674,8.958
		z"/>
	<path fill="#9400FF" d="M4.435,4.857c-0.004,0.03,0.012,0.052,0.039,0.054C4.527,4.916,4.577,4.933,4.63,4.932
		c0.065-0.001,0.13-0.006,0.194,0.012c0.03,0.008,0.065,0.002,0.098,0.002c0.045,0.001,0.089-0.001,0.134,0.011
		c0.033,0.009,0.07,0.003,0.105,0.004c0.04,0.001,0.08-0.003,0.119,0.012c0.016,0.006,0.035,0.003,0.052,0.003
		C5.4,4.979,5.468,4.971,5.535,4.99c0.028,0.008,0.06,0.001,0.09,0.002c0.047,0.001,0.094,0,0.142,0.011
		c0.043,0.01,0.09,0.003,0.135,0.004c0.032,0.001,0.065-0.002,0.097,0.01c0.016,0.006,0.035,0.004,0.052,0.005
		C6.12,5.025,6.19,5.017,6.26,5.035c0.033,0.009,0.07,0.002,0.105,0.002c0.035,0,0.069,0,0.104,0.011
		c0.023,0.007,0.05,0.003,0.075,0.004c0.06,0.002,0.12-0.003,0.179,0.012c0.035,0.009,0.075,0.002,0.113,0.003
		c0.04,0.001,0.08-0.003,0.119,0.012C6.971,5.085,6.99,5.082,7.008,5.082C7.075,5.085,7.143,5.077,7.21,5.096
		c0.028,0.008,0.06,0.001,0.09,0.002c0.047,0.001,0.094,0,0.142,0.011c0.038,0.009,0.08,0.003,0.12,0.004
		c0.032,0.001,0.065-0.002,0.097,0.01C7.674,5.129,7.693,5.127,7.71,5.127C7.78,5.13,7.85,5.126,7.92,5.14
		c0.053,0.011,0.11,0.003,0.165,0.003C8.083,5.164,8.07,5.18,8.06,5.197C7.939,5.408,7.817,5.619,7.696,5.83
		C7.624,5.956,7.552,6.083,7.479,6.209C7.442,6.273,7.441,6.272,7.367,6.272c-1.188,0-2.377,0-3.565,0c-0.022,0-0.045,0-0.065,0
		c-0.01-0.02,0.001-0.033,0.007-0.046C3.825,6.063,3.908,5.9,3.991,5.736c0.016-0.031,0.031-0.063,0.046-0.095
		C4.139,5.437,4.24,5.233,4.342,5.028C4.372,4.97,4.404,4.914,4.435,4.857z"/>
	<path fill="#E900FF" d="M8.931,3.666c-0.043,0.02-0.088,0.018-0.132,0.008C8.786,3.671,8.774,3.665,8.762,3.666
		c-0.113,0.008-0.224-0.02-0.337-0.016C8.388,3.651,8.351,3.652,8.314,3.639c-0.02-0.007-0.045-0.003-0.067-0.004
		C8.184,3.632,8.122,3.638,8.06,3.622C8.027,3.613,7.99,3.62,7.955,3.619C7.912,3.618,7.87,3.623,7.828,3.608
		C7.812,3.602,7.793,3.605,7.776,3.604C7.708,3.602,7.641,3.609,7.574,3.591C7.541,3.583,7.504,3.59,7.469,3.589
		c-0.035,0-0.069,0.001-0.104-0.01C7.342,3.571,7.315,3.575,7.29,3.574C7.23,3.572,7.171,3.578,7.111,3.562
		C7.075,3.553,7.036,3.56,6.998,3.559c-0.04-0.001-0.08,0.003-0.119-0.011c-0.018-0.007-0.04-0.003-0.06-0.004
		C6.755,3.542,6.69,3.549,6.625,3.531C6.592,3.522,6.555,3.529,6.52,3.529c-0.042-0.001-0.084,0-0.127-0.011
		C6.36,3.509,6.324,3.515,6.288,3.514c-0.04-0.001-0.08,0.003-0.119-0.011C6.151,3.496,6.13,3.5,6.11,3.499
		C6.045,3.496,5.98,3.504,5.915,3.486C5.885,3.477,5.85,3.484,5.818,3.484c-0.045-0.001-0.089,0-0.134-0.011
		c-0.038-0.009-0.08-0.003-0.12-0.004c-0.04-0.001-0.08,0.003-0.119-0.012c-0.018-0.007-0.04-0.003-0.06-0.003
		c-0.038,0-0.075,0.001-0.113-0.001c-0.044-0.003-0.084-0.016-0.1-0.064c0.007-0.018,0.014-0.038,0.022-0.055
		c0.103-0.209,0.207-0.418,0.311-0.627c0.039-0.079,0.081-0.156,0.118-0.235C5.64,2.437,5.659,2.423,5.697,2.424
		c0.1,0.003,0.201,0.001,0.301,0.002C6.607,2.427,7.215,2.428,7.822,2.43C8.4,2.432,8.978,2.435,9.555,2.438
		c0.024,0,0.049-0.004,0.073,0.006C9.63,2.471,9.613,2.488,9.602,2.507c-0.028,0.05-0.058,0.1-0.087,0.15
		C9.353,2.94,9.192,3.223,9.029,3.506C8.998,3.56,8.964,3.612,8.931,3.666z"/>
	<path fill="#7500FF" d="M7.89,7.555C7.874,7.588,7.848,7.604,7.811,7.601c-0.05-0.003-0.1,0.006-0.149-0.012
		C7.646,7.583,7.627,7.586,7.609,7.586C7.542,7.584,7.475,7.59,7.407,7.573c-0.038-0.009-0.08-0.002-0.12-0.002
		c-0.035,0-0.07,0.002-0.104-0.011c-0.018-0.007-0.04-0.003-0.06-0.004c-0.06-0.002-0.12,0.003-0.18-0.013
		C6.908,7.534,6.869,7.541,6.831,7.541c-0.04-0.001-0.08,0.003-0.119-0.012C6.696,7.523,6.677,7.526,6.659,7.526
		C6.592,7.523,6.524,7.531,6.457,7.512c-0.028-0.008-0.06-0.001-0.09-0.002C6.32,7.509,6.273,7.51,6.225,7.499
		C6.182,7.49,6.135,7.496,6.09,7.495c-0.033-0.001-0.065,0-0.097-0.01C5.97,7.478,5.944,7.481,5.919,7.48
		c-0.055-0.002-0.11,0.003-0.164-0.012c-0.028-0.008-0.06-0.002-0.09-0.003c-0.05-0.001-0.1,0.002-0.149-0.012
		C5.484,7.445,5.45,7.451,5.417,7.45c-0.047-0.001-0.094,0-0.142-0.011c-0.043-0.01-0.09-0.003-0.135-0.004
		c-0.033-0.001-0.065,0.002-0.097-0.01C5.028,7.419,5.009,7.421,4.991,7.42c-0.07-0.003-0.14,0.005-0.21-0.013
		C4.751,7.399,4.717,7.405,4.684,7.405C4.647,7.404,4.609,7.407,4.572,7.394C4.552,7.387,4.527,7.391,4.505,7.39
		C4.443,7.388,4.38,7.393,4.318,7.377c-0.04-0.01-0.085-0.002-0.128-0.003C4.158,7.374,4.125,7.379,4.094,7.364
		C4.068,7.351,4.039,7.376,4.013,7.36C4.009,7.358,4.008,7.355,4.01,7.351c0-0.009-0.005-0.015-0.011-0.021
		C3.995,7.328,3.994,7.324,3.995,7.32c-0.001-0.009-0.007-0.014-0.012-0.02L3.982,7.298C3.973,7.291,3.976,7.277,3.967,7.269
		l0-0.001C3.958,7.261,3.961,7.248,3.953,7.24C3.949,7.237,3.948,7.234,3.949,7.23c0-0.009-0.005-0.014-0.01-0.02
		C3.935,7.207,3.933,7.203,3.934,7.199c0-0.008-0.006-0.013-0.01-0.019C3.92,7.176,3.919,7.172,3.92,7.167
		C3.917,7.161,3.914,7.155,3.91,7.149C3.906,7.143,3.901,7.137,3.898,7.131C3.843,7.017,3.789,6.904,3.735,6.791
		C3.729,6.778,3.721,6.765,3.723,6.744c0.028-0.001,0.055-0.002,0.082-0.002c0.924,0,1.848,0,2.773,0c0.256,0,0.512,0,0.769,0
		c0.015,0,0.03,0.001,0.045,0c0.031-0.003,0.052,0.006,0.068,0.035C7.488,6.829,7.521,6.88,7.544,6.936
		c0.004,0.005,0.007,0.01,0.01,0.016C7.558,6.955,7.56,6.959,7.559,6.964C7.562,6.97,7.566,6.976,7.57,6.982
		c0.004,0.003,0.006,0.006,0.005,0.011c0.001,0.008,0.007,0.013,0.011,0.019C7.59,7.014,7.591,7.017,7.59,7.022
		c0,0.009,0.006,0.015,0.012,0.022l0,0.001c0.009,0.007,0.006,0.022,0.016,0.029l0,0c0.004,0.004,0.008,0.009,0.01,0.015
		C7.63,7.092,7.632,7.096,7.634,7.101c0.004,0.006,0.007,0.011,0.011,0.017C7.649,7.12,7.651,7.123,7.65,7.127
		c0.001,0.009,0.007,0.016,0.013,0.021l0,0c0.004,0.004,0.008,0.009,0.01,0.015c0.002,0.005,0.004,0.009,0.006,0.014
		c0.004,0.005,0.007,0.011,0.01,0.017C7.694,7.196,7.696,7.2,7.695,7.205c0.002,0.007,0.007,0.012,0.011,0.018
		C7.71,7.226,7.711,7.23,7.71,7.234c0.002,0.008,0.007,0.014,0.011,0.02c0.004,0.002,0.005,0.005,0.004,0.009
		c0.001,0.009,0.007,0.016,0.012,0.022l0,0c0.009,0.008,0.006,0.022,0.016,0.029l0,0c0.004,0.004,0.008,0.009,0.01,0.015
		C7.769,7.332,7.771,7.337,7.77,7.342C7.774,7.348,7.777,7.353,7.78,7.359c0.004,0.003,0.006,0.007,0.005,0.012
		C7.787,7.378,7.793,7.383,7.796,7.39C7.8,7.392,7.802,7.395,7.801,7.4c0.001,0.008,0.007,0.014,0.012,0.02
		c0.004,0.002,0.005,0.004,0.004,0.008c0,0.01,0.007,0.016,0.013,0.022l0,0c0.005,0.004,0.008,0.008,0.01,0.014
		c0.005,0.002,0.007,0.006,0.006,0.011c0.002,0.008,0.007,0.014,0.012,0.02C7.861,7.497,7.863,7.5,7.861,7.504
		c0.001,0.009,0.007,0.016,0.013,0.022l0,0C7.884,7.534,7.88,7.548,7.89,7.555L7.89,7.555z"/>
	<path fill="#5400FF" d="M7.618,7.073C7.606,7.067,7.603,7.056,7.603,7.044C7.613,7.051,7.619,7.06,7.618,7.073z"/>
	<path fill="#5400FF" d="M3.967,7.269c0.012,0.006,0.015,0.017,0.015,0.029C3.97,7.292,3.967,7.282,3.967,7.269z"/>
	<path fill="#5400FF" d="M7.754,7.314C7.742,7.308,7.739,7.297,7.738,7.285C7.749,7.292,7.754,7.302,7.754,7.314z"/>
	<path fill="#5400FF" d="M3.953,7.24c0.012,0.006,0.014,0.017,0.014,0.029C3.957,7.262,3.952,7.252,3.953,7.24z"/>
	<path fill="#5400FF" d="M7.89,7.556C7.878,7.55,7.874,7.539,7.874,7.526C7.885,7.533,7.89,7.543,7.89,7.556z"/>
	<path fill="#2900FF" d="M8.674,8.958C8.662,8.952,8.659,8.942,8.658,8.93C8.669,8.936,8.674,8.946,8.674,8.958z"/>
	<path fill="#5400FF" d="M7.554,6.952C7.55,6.946,7.547,6.941,7.544,6.936C7.55,6.939,7.554,6.944,7.554,6.952z"/>
	<path fill="#5400FF" d="M7.57,6.982C7.566,6.976,7.563,6.97,7.559,6.964C7.567,6.968,7.57,6.974,7.57,6.982z"/>
	<path fill="#5400FF" d="M7.586,7.012C7.579,7.008,7.575,7.001,7.575,6.993C7.582,6.997,7.586,7.004,7.586,7.012z"/>
	<path fill="#5400FF" d="M7.602,7.043C7.594,7.038,7.59,7.031,7.59,7.022C7.598,7.026,7.602,7.034,7.602,7.043z"/>
	<path fill="#5400FF" d="M7.629,7.088c-0.003-0.005-0.007-0.01-0.01-0.015C7.625,7.075,7.629,7.08,7.629,7.088z"/>
	<path fill="#5400FF" d="M7.645,7.118C7.641,7.112,7.638,7.107,7.634,7.101C7.641,7.104,7.645,7.11,7.645,7.118z"/>
	<path fill="#5400FF" d="M7.664,7.148C7.655,7.144,7.651,7.137,7.65,7.127C7.659,7.131,7.664,7.139,7.664,7.148z"/>
	<path fill="#5400FF" d="M3.91,7.149c0.007,0.004,0.01,0.01,0.01,0.018C3.912,7.164,3.909,7.158,3.91,7.149z"/>
	<path fill="#5400FF" d="M7.674,7.163c-0.003-0.005-0.007-0.01-0.01-0.015C7.67,7.151,7.674,7.155,7.674,7.163z"/>
	<path fill="#5400FF" d="M3.924,7.18c0.007,0.004,0.01,0.011,0.01,0.019C3.927,7.194,3.924,7.188,3.924,7.18z"/>
	<path fill="#5400FF" d="M7.69,7.193c-0.003-0.006-0.007-0.011-0.01-0.017C7.686,7.18,7.69,7.185,7.69,7.193z"/>
	<path fill="#5400FF" d="M3.939,7.21C3.946,7.214,3.95,7.221,3.949,7.23C3.941,7.225,3.938,7.219,3.939,7.21z"/>
	<path fill="#5400FF" d="M7.706,7.224C7.702,7.217,7.698,7.211,7.695,7.205C7.702,7.209,7.706,7.215,7.706,7.224z"/>
	<path fill="#5400FF" d="M7.722,7.254C7.714,7.249,7.711,7.243,7.71,7.234C7.718,7.238,7.722,7.245,7.722,7.254z"/>
	<path fill="#5400FF" d="M7.738,7.284C7.73,7.279,7.726,7.272,7.726,7.263C7.734,7.267,7.738,7.275,7.738,7.284z"/>
	<path fill="#5400FF" d="M3.983,7.299c0.008,0.004,0.012,0.011,0.012,0.02C3.987,7.315,3.983,7.308,3.983,7.299z"/>
	<path fill="#5400FF" d="M7.764,7.329c-0.003-0.005-0.007-0.01-0.01-0.015C7.761,7.317,7.765,7.321,7.764,7.329z"/>
	<path fill="#5400FF" d="M3.999,7.33C4.007,7.335,4.01,7.342,4.01,7.351C4.002,7.346,3.998,7.339,3.999,7.33z"/>
	<path fill="#5400FF" d="M7.796,7.39C7.793,7.383,7.789,7.377,7.785,7.371C7.793,7.375,7.797,7.381,7.796,7.39z"/>
	<path fill="#5400FF" d="M7.813,7.42C7.805,7.415,7.801,7.409,7.801,7.4C7.809,7.404,7.813,7.411,7.813,7.42z"/>
	<path fill="#5400FF" d="M7.829,7.45C7.82,7.445,7.816,7.438,7.816,7.428C7.825,7.433,7.829,7.441,7.829,7.45z"/>
	<path fill="#5400FF" d="M7.839,7.465C7.836,7.46,7.832,7.455,7.829,7.451C7.836,7.453,7.839,7.458,7.839,7.465z"/>
	<path fill="#5400FF" d="M7.858,7.495C7.85,7.491,7.846,7.484,7.846,7.476C7.854,7.48,7.858,7.486,7.858,7.495z"/>
	<path fill="#5400FF" d="M7.874,7.526C7.866,7.521,7.862,7.513,7.861,7.504C7.87,7.508,7.874,7.516,7.874,7.526z"/>
	<path fill="#5400FF" d="M7.78,7.359C7.777,7.354,7.773,7.348,7.77,7.342C7.777,7.346,7.781,7.351,7.78,7.359z"/>
	<path fill="#2900FF" d="M8.447,8.551C8.439,8.546,8.435,8.539,8.435,8.53C8.443,8.534,8.447,8.542,8.447,8.551z"/>
	<path fill="#2900FF" d="M8.457,8.565C8.454,8.561,8.451,8.556,8.448,8.552C8.454,8.554,8.457,8.558,8.457,8.565z"/>
	<path fill="#2900FF" d="M8.473,8.595C8.47,8.59,8.467,8.586,8.463,8.581C8.47,8.583,8.474,8.588,8.473,8.595z"/>
	<path fill="#2900FF" d="M8.49,8.626C8.486,8.62,8.483,8.615,8.479,8.609C8.486,8.612,8.49,8.618,8.49,8.626z"/>
	<path fill="#2900FF" d="M8.505,8.656C8.502,8.65,8.498,8.644,8.495,8.638C8.502,8.642,8.506,8.648,8.505,8.656z"/>
	<path fill="#2900FF" d="M8.522,8.686C8.514,8.682,8.51,8.675,8.51,8.667C8.518,8.671,8.522,8.677,8.522,8.686z"/>
	<path fill="#2900FF" d="M8.538,8.717C8.53,8.712,8.526,8.705,8.525,8.695C8.534,8.7,8.538,8.707,8.538,8.717z"/>
	<path fill="#2900FF" d="M8.548,8.731c-0.003-0.005-0.006-0.009-0.01-0.014C8.545,8.72,8.548,8.724,8.548,8.731z"/>
	<path fill="#2900FF" d="M4.665,8.733c0.003,0.006,0.007,0.011,0.01,0.017C4.668,8.747,4.664,8.741,4.665,8.733z"/>
	<path fill="#2900FF" d="M8.564,8.762c-0.003-0.005-0.007-0.011-0.01-0.016C8.561,8.749,8.565,8.754,8.564,8.762z"/>
	<path fill="#2900FF" d="M8.58,8.792C8.577,8.786,8.573,8.78,8.57,8.774C8.577,8.778,8.581,8.784,8.58,8.792z"/>
	<path fill="#2900FF" d="M8.596,8.822C8.593,8.816,8.589,8.81,8.585,8.803C8.593,8.807,8.596,8.814,8.596,8.822z"/>
	<path fill="#2900FF" d="M8.614,8.853C8.605,8.848,8.601,8.841,8.601,8.832C8.609,8.836,8.613,8.844,8.614,8.853z"/>
	<path fill="#2900FF" d="M8.625,8.868c-0.004-0.005-0.008-0.01-0.012-0.015C8.621,8.855,8.626,8.859,8.625,8.868z"/>
	<path fill="#2900FF" d="M8.641,8.898C8.638,8.891,8.634,8.885,8.63,8.879C8.638,8.883,8.642,8.889,8.641,8.898z"/>
	<path fill="#2900FF" d="M8.658,8.929C8.65,8.924,8.646,8.917,8.646,8.907C8.654,8.912,8.658,8.919,8.658,8.929z"/>
	<path fill="#4F00FF" d="M2.279,7.565C2.298,7.583,2.305,7.608,2.315,7.63c0.136,0.282,0.271,0.564,0.406,0.846
		c0.09,0.187,0.179,0.375,0.268,0.562c0.025,0.052,0.058,0.1,0.073,0.156c0.002,0.008,0.007,0.014,0.011,0.02
		c0.002,0.005,0.004,0.009,0.006,0.014C3.048,9.273,3,9.269,2.956,9.267C2.762,9.26,2.567,9.243,2.372,9.233
		C2.237,9.226,2.103,9.211,1.968,9.208C1.933,9.207,1.897,9.209,1.867,9.186C1.849,9.171,1.841,9.15,1.831,9.13
		C1.715,8.898,1.6,8.667,1.484,8.436c-0.126-0.251-0.254-0.501-0.38-0.752c-0.024-0.047-0.056-0.09-0.069-0.142
		C1.095,7.5,1.162,7.517,1.225,7.522c0.215,0.016,0.43,0.027,0.644,0.041C1.964,7.569,2.059,7.58,2.154,7.581
		C2.197,7.581,2.239,7.58,2.279,7.565z"/>
	<path fill="#DE00FF" d="M1.869,3.995c0.003-0.023,0.016-0.042,0.026-0.062c0.107-0.213,0.213-0.427,0.32-0.64
		C2.34,3.047,2.464,2.8,2.589,2.554c0.003-0.007,0.007-0.013,0.01-0.02c0.009-0.021,0.023-0.03,0.046-0.03
		C2.758,2.5,2.871,2.494,2.984,2.49c0.251-0.009,0.502-0.018,0.754-0.027c0.028-0.001,0.055,0,0.083,0
		C3.832,2.479,3.82,2.491,3.813,2.503C3.736,2.656,3.658,2.807,3.581,2.959C3.561,2.997,3.543,3.036,3.524,3.074
		C3.427,3.267,3.33,3.46,3.233,3.653c-0.065,0.13-0.131,0.26-0.197,0.39C3.022,4.069,3.005,4.094,2.99,4.12
		c-0.026,0.018-0.056,0.023-0.086,0.02C2.719,4.121,2.534,4.115,2.349,4.102c-0.127-0.009-0.254-0.02-0.382-0.023
		C1.914,4.077,1.864,4.067,1.869,3.995z"/>
	<path fill="#1500FF" d="M1.867,9.186c0.067,0,0.135-0.001,0.202-0.001c0.01,0,0.021-0.002,0.03,0.001
		c0.058,0.02,0.119,0.012,0.178,0.014C2.305,9.2,2.332,9.198,2.359,9.209c0.024,0.01,0.049,0.005,0.074,0.006
		c0.062,0.002,0.124-0.004,0.186,0.012c0.038,0.01,0.08,0.002,0.119,0.003C2.776,9.23,2.813,9.235,2.85,9.24
		c0.076,0.01,0.154,0.014,0.23-0.011c0.021,0.022,0.03,0.052,0.042,0.079c0.086,0.179,0.171,0.358,0.257,0.537
		c0.102,0.213,0.205,0.425,0.308,0.637c0.038,0.079,0.077,0.158,0.115,0.237c0.009,0.018,0.016,0.036,0.025,0.06
		c-0.032,0.009-0.062,0.004-0.09,0.002c-0.118-0.009-0.235-0.018-0.353-0.028c-0.155-0.013-0.31-0.027-0.465-0.039
		c-0.088-0.007-0.175-0.014-0.263-0.019c-0.029-0.002-0.047-0.012-0.058-0.038c-0.006-0.014-0.013-0.027-0.02-0.041
		c-0.171-0.341-0.342-0.682-0.513-1.023C2.007,9.474,1.948,9.358,1.89,9.241C1.881,9.223,1.875,9.204,1.867,9.186z"/>
	<path fill="#AD00FF" d="M1.869,3.995C1.872,4,1.874,4.004,1.876,4.009c0.013,0.035,0.036,0.052,0.075,0.048
		c0.03-0.002,0.06-0.001,0.09,0c0.032,0,0.064,0,0.097,0.01c0.023,0.007,0.05,0.004,0.075,0.005c0.06,0.002,0.12-0.004,0.179,0.012
		c0.033,0.009,0.07,0.002,0.105,0.003c0.037,0.001,0.075-0.002,0.112,0.011c0.02,0.007,0.045,0.003,0.067,0.004
		C2.738,4.104,2.8,4.099,2.862,4.115c0.04,0.01,0.085,0.004,0.127,0.005C2.983,4.136,2.979,4.153,2.971,4.168
		C2.862,4.386,2.753,4.603,2.644,4.82C2.551,5.004,2.458,5.187,2.365,5.37C2.357,5.385,2.347,5.4,2.337,5.415
		c-0.02,0.017-0.045,0.023-0.07,0.021C2.098,5.421,1.928,5.413,1.758,5.403c-0.142-0.009-0.284-0.02-0.427-0.027
		c-0.089-0.004-0.113-0.027-0.112-0.1c0.005-0.03,0.023-0.055,0.036-0.082c0.036-0.072,0.073-0.143,0.11-0.215
		c0.09-0.179,0.18-0.359,0.27-0.539C1.7,4.313,1.764,4.185,1.829,4.058C1.84,4.036,1.848,4.011,1.869,3.995z"/>
	<path fill="#7000FF" d="M2.279,7.565C2.261,7.605,2.243,7.621,2.215,7.612C2.161,7.594,2.106,7.604,2.051,7.601
		C2.016,7.599,1.982,7.602,1.947,7.59C1.927,7.583,1.903,7.587,1.88,7.586C1.823,7.584,1.766,7.588,1.709,7.574
		C1.673,7.564,1.634,7.571,1.596,7.571c-0.04-0.001-0.08,0.003-0.119-0.011c-0.018-0.007-0.04-0.003-0.06-0.004
		c-0.065-0.002-0.129,0-0.194-0.012C1.163,7.533,1.099,7.542,1.036,7.542c-0.007-0.01-0.015-0.02-0.02-0.031
		C0.923,7.325,0.83,7.138,0.736,6.952C0.682,6.844,0.628,6.737,0.572,6.63C0.558,6.602,0.557,6.58,0.572,6.553
		c0.036-0.069,0.069-0.139,0.104-0.209C0.68,6.335,0.688,6.328,0.694,6.32c0.177,0.043,0.358,0.039,0.538,0.051
		c0.177,0.012,0.355,0.028,0.533,0.032C1.787,6.404,1.81,6.406,1.826,6.426c-0.001,0.005-0.001,0.01-0.003,0.015
		C1.811,6.468,1.788,6.495,1.789,6.522c0.001,0.03,0.021,0.06,0.035,0.089C1.957,6.889,2.09,7.166,2.223,7.443
		C2.242,7.484,2.27,7.52,2.279,7.565z"/>
	<path fill="#9100FF" d="M1.826,6.426c-0.053,0-0.105-0.001-0.158-0.001c-0.032,0-0.065,0.001-0.096-0.01
		C1.556,6.408,1.537,6.41,1.52,6.41c-0.07-0.003-0.139,0.004-0.209-0.013c-0.038-0.009-0.08-0.002-0.12-0.002
		c-0.035,0-0.069,0.001-0.104-0.01C1.065,6.377,1.039,6.38,1.014,6.379c-0.06-0.002-0.12,0.007-0.178-0.013
		c-0.018-0.006-0.04-0.001-0.06-0.002C0.742,6.362,0.712,6.352,0.694,6.32c0,0,0-0.001,0-0.001c0.005-0.006,0.01-0.012,0.012-0.02
		c-0.001-0.005,0-0.008,0.004-0.011c0.003-0.007,0.009-0.012,0.011-0.02c-0.001-0.005,0-0.008,0.004-0.011
		c0.004-0.006,0.009-0.012,0.011-0.02c-0.001-0.005,0-0.008,0.004-0.01c0.004-0.006,0.009-0.012,0.011-0.02
		c-0.001-0.005,0-0.008,0.004-0.011c0.004-0.006,0.01-0.012,0.011-0.02c-0.001-0.004,0-0.008,0.004-0.01
		c0.004-0.006,0.01-0.012,0.011-0.02c-0.001-0.004,0-0.008,0.004-0.01c0.004-0.006,0.01-0.012,0.011-0.02
		c-0.001-0.004,0-0.008,0.004-0.01c0.005-0.006,0.01-0.012,0.011-0.021c-0.001-0.004,0-0.007,0.004-0.009
		c0.005-0.006,0.01-0.012,0.011-0.021c-0.001-0.004,0-0.007,0.004-0.009c0.005-0.006,0.01-0.012,0.011-0.021
		c-0.001-0.004,0-0.007,0.004-0.009c0.005-0.006,0.011-0.012,0.011-0.021c-0.001-0.004,0-0.007,0.004-0.009
		c0.005-0.006,0.011-0.012,0.011-0.021c-0.001-0.004,0-0.007,0.004-0.009c0.005-0.006,0.011-0.012,0.012-0.021
		C0.886,5.931,0.888,5.928,0.892,5.927c0.004-0.006,0.007-0.012,0.011-0.018c0.009-0.02,0.016-0.041,0.026-0.061
		c0.09-0.18,0.18-0.361,0.271-0.541c0.005-0.011,0.013-0.02,0.02-0.031c0.022,0.067,0.033,0.076,0.1,0.077
		c0.033,0.001,0.065,0,0.098,0c0.028,0,0.055,0.001,0.082,0.009c0.021,0.006,0.045,0.005,0.067,0.006
		c0.065,0.003,0.129-0.003,0.194,0.013c0.04,0.01,0.085,0.002,0.128,0.003c0.033,0,0.065-0.002,0.097,0.01
		C2.002,5.4,2.02,5.398,2.038,5.399c0.07,0.002,0.14-0.005,0.209,0.013c0.028,0.008,0.06,0.002,0.09,0.002
		C2.318,5.48,2.281,5.537,2.252,5.598C2.227,5.65,2.198,5.7,2.172,5.751C2.101,5.892,2.03,6.033,1.959,6.174
		C1.954,6.183,1.948,6.191,1.943,6.199c-0.005,0.006-0.01,0.011-0.01,0.019C1.933,6.223,1.932,6.227,1.928,6.23
		c-0.005,0.006-0.01,0.011-0.01,0.019C1.918,6.253,1.917,6.257,1.913,6.26c-0.005,0.006-0.01,0.011-0.01,0.019
		c0.001,0.005,0,0.008-0.005,0.011c-0.005,0.006-0.01,0.011-0.011,0.019c0.001,0.005,0,0.008-0.005,0.011
		c-0.005,0.006-0.01,0.011-0.011,0.019c0.001,0.005,0,0.008-0.005,0.011c-0.005,0.006-0.01,0.012-0.01,0.02
		c0.001,0.005-0.001,0.008-0.006,0.01C1.848,6.386,1.844,6.391,1.841,6.397C1.839,6.401,1.837,6.406,1.835,6.41
		C1.832,6.416,1.829,6.421,1.826,6.426L1.826,6.426z"/>
	<path fill="#7000FF" d="M1.841,6.397C1.844,6.391,1.848,6.386,1.852,6.38C1.852,6.389,1.848,6.394,1.841,6.397z"/>
	<path fill="#7000FF" d="M1.826,6.426c0.003-0.005,0.006-0.01,0.01-0.016C1.836,6.418,1.833,6.423,1.826,6.426z"/>
	<path fill="#7000FF" d="M0.903,5.909c0,0.008-0.004,0.014-0.011,0.018C0.892,5.918,0.896,5.912,0.903,5.909z"/>
	<path fill="#7000FF" d="M0.887,5.936c0,0.009-0.004,0.016-0.012,0.021C0.875,5.947,0.879,5.94,0.887,5.936z"/>
	<path fill="#7000FF" d="M0.872,5.966c0,0.009-0.004,0.016-0.011,0.021C0.86,5.978,0.863,5.97,0.872,5.966z"/>
	<path fill="#7000FF" d="M0.857,5.996c0,0.009-0.003,0.016-0.011,0.021C0.845,6.008,0.848,6.001,0.857,5.996z"/>
	<path fill="#7000FF" d="M0.842,6.027c0,0.009-0.004,0.016-0.011,0.021C0.83,6.038,0.834,6.031,0.842,6.027z"/>
	<path fill="#7000FF" d="M0.827,6.057c0,0.009-0.004,0.016-0.011,0.021C0.815,6.068,0.818,6.061,0.827,6.057z"/>
	<path fill="#7000FF" d="M0.812,6.087c0,0.009-0.003,0.016-0.011,0.021C0.8,6.099,0.803,6.092,0.812,6.087z"/>
	<path fill="#7000FF" d="M0.797,6.118c0,0.009-0.004,0.016-0.011,0.02C0.785,6.129,0.789,6.122,0.797,6.118z"/>
	<path fill="#7000FF" d="M0.782,6.148c0,0.009-0.004,0.016-0.011,0.02C0.77,6.159,0.774,6.152,0.782,6.148z"/>
	<path fill="#7000FF" d="M0.767,6.178c0,0.009-0.003,0.015-0.011,0.02C0.755,6.189,0.759,6.182,0.767,6.178z"/>
	<path fill="#7000FF" d="M1.933,6.218c0-0.008,0.003-0.014,0.01-0.019C1.943,6.208,1.94,6.214,1.933,6.218z"/>
	<path fill="#7000FF" d="M0.752,6.209c0,0.009-0.004,0.015-0.011,0.02C0.74,6.22,0.744,6.213,0.752,6.209z"/>
	<path fill="#7000FF" d="M1.917,6.248c0-0.008,0.003-0.015,0.01-0.019C1.928,6.238,1.925,6.244,1.917,6.248z"/>
	<path fill="#7000FF" d="M0.737,6.239c0,0.009-0.004,0.015-0.011,0.02C0.725,6.25,0.729,6.243,0.737,6.239z"/>
	<path fill="#7000FF" d="M1.902,6.279c0-0.008,0.003-0.015,0.01-0.019C1.913,6.268,1.91,6.275,1.902,6.279z"/>
	<path fill="#7000FF" d="M0.722,6.269c0,0.008-0.003,0.015-0.011,0.02C0.71,6.28,0.714,6.273,0.722,6.269z"/>
	<path fill="#7000FF" d="M1.887,6.309c0-0.009,0.003-0.015,0.011-0.019C1.899,6.298,1.895,6.305,1.887,6.309z"/>
	<path fill="#7000FF" d="M0.707,6.3c0,0.009-0.005,0.016-0.012,0.02C0.695,6.311,0.699,6.304,0.707,6.3z"/>
	<path fill="#1500FF" d="M3.074,9.214C3.07,9.208,3.067,9.201,3.063,9.195C3.071,9.199,3.074,9.206,3.074,9.214z"/>
	<path fill="#7000FF" d="M1.872,6.339c0-0.009,0.003-0.015,0.011-0.019C1.883,6.329,1.88,6.335,1.872,6.339z"/>
	<path fill="#7000FF" d="M1.857,6.37c0-0.009,0.003-0.015,0.01-0.02C1.868,6.359,1.865,6.366,1.857,6.37z"/>
	<path fill="#3800FF" d="M27.381,8.823c-0.092,0.194-0.183,0.389-0.275,0.583c-0.093,0.197-0.186,0.393-0.28,0.59
		c-0.044,0.092-0.091,0.183-0.137,0.275c-0.028,0.044-0.074,0.041-0.115,0.037c-0.275-0.024-0.551-0.036-0.826-0.054
		c-0.195-0.013-0.391-0.024-0.586-0.037c-0.28-0.018-0.561-0.034-0.841-0.054c-0.19-0.013-0.381-0.024-0.571-0.036
		c-0.205-0.013-0.411-0.021-0.616-0.041c-0.078-0.007-0.156,0.005-0.233-0.015c-0.031-0.008-0.077-0.007-0.061-0.063
		c0.015-0.046,0.042-0.085,0.065-0.127c0.044-0.079,0.089-0.157,0.133-0.236c0.083-0.149,0.166-0.298,0.249-0.448
		c0.115-0.206,0.23-0.412,0.346-0.618c0.006-0.011,0.014-0.02,0.022-0.03c0.117,0.012,0.234,0.022,0.351,0.03
		c0.203,0.013,0.406,0.025,0.608,0.039c0.208,0.014,0.416,0.025,0.623,0.04c0.18,0.013,0.361,0.023,0.541,0.035
		c0.218,0.014,0.436,0.028,0.653,0.041c0.188,0.011,0.375,0.028,0.563,0.034c0.103,0.004,0.205,0.021,0.308,0.018
		C27.333,8.786,27.363,8.793,27.381,8.823z"/>
	<path fill="#A100FF" d="M27.564,4.945c0.017,0.009,0.021,0.027,0.029,0.043c0.109,0.218,0.216,0.436,0.325,0.654
		c0.114,0.229,0.23,0.458,0.344,0.687c0.011,0.022,0.027,0.042,0.028,0.068c-0.011,0.017-0.027,0.011-0.041,0.011
		c-0.078,0.001-0.156,0-0.234,0c-1.116,0-2.232,0-3.348,0c-0.1,0-0.075,0.016-0.127-0.073c-0.144-0.25-0.287-0.501-0.431-0.751
		c-0.121-0.211-0.243-0.422-0.363-0.634c-0.035-0.061-0.078-0.117-0.103-0.183c0.034-0.031,0.075-0.025,0.115-0.021
		c0.43,0.034,0.861,0.058,1.291,0.085c0.358,0.022,0.716,0.045,1.074,0.066c0.353,0.021,0.706,0.041,1.059,0.07
		c0.087,0.007,0.176,0.004,0.263,0.017C27.491,4.989,27.528,4.967,27.564,4.945z"/>
	<path fill="#CC00FF" d="M27.564,4.945c-0.005,0.014-0.009,0.029-0.015,0.042c-0.005,0.012-0.016,0.019-0.03,0.019
		c-0.038,0-0.077,0.007-0.113-0.002c-0.052-0.013-0.104-0.011-0.157-0.012c-0.042-0.001-0.084-0.001-0.127-0.011
		c-0.038-0.009-0.08-0.003-0.12-0.004c-0.04-0.001-0.08,0.002-0.119-0.011c-0.023-0.008-0.05-0.003-0.075-0.004
		c-0.052-0.002-0.105,0.003-0.157-0.012c-0.03-0.009-0.065-0.002-0.098-0.003c-0.047-0.001-0.094-0.001-0.142-0.011
		c-0.043-0.01-0.09-0.003-0.135-0.004c-0.033-0.001-0.065,0.002-0.097-0.01c-0.016-0.006-0.035-0.004-0.052-0.005
		c-0.07-0.002-0.14,0.004-0.21-0.013c-0.036-0.009-0.075-0.002-0.113-0.002c-0.037-0.001-0.075,0.002-0.112-0.011
		c-0.018-0.007-0.04-0.003-0.06-0.004c-0.06-0.002-0.12,0.003-0.18-0.013c-0.033-0.009-0.07-0.002-0.105-0.002
		C25.308,4.87,25.266,4.87,25.223,4.86c-0.038-0.009-0.08-0.003-0.12-0.004c-0.04-0.001-0.08,0.003-0.119-0.012
		c-0.016-0.006-0.035-0.003-0.052-0.003c-0.067-0.003-0.135,0.006-0.202-0.013c-0.03-0.008-0.065-0.002-0.098-0.002
		c-0.045-0.001-0.089,0-0.134-0.011c-0.038-0.009-0.08-0.003-0.12-0.004c-0.032-0.001-0.065,0.001-0.097-0.01
		c-0.018-0.006-0.04-0.004-0.06-0.005c-0.067-0.003-0.135,0.006-0.202-0.013c-0.026-0.007-0.055-0.001-0.083-0.002
		c-0.05-0.001-0.099,0-0.149-0.011c-0.046-0.01-0.095-0.003-0.143-0.004c-0.007-0.01-0.015-0.02-0.021-0.031
		c-0.091-0.159-0.181-0.317-0.272-0.476c-0.134-0.235-0.269-0.469-0.404-0.703c-0.044-0.076-0.088-0.151-0.132-0.227
		c-0.007-0.013-0.012-0.027-0.018-0.041c0.019-0.021,0.045-0.023,0.07-0.021c0.173,0.015,0.346,0.021,0.518,0.033
		c0.195,0.014,0.391,0.026,0.586,0.039c0.215,0.015,0.431,0.027,0.646,0.041c0.188,0.012,0.376,0.023,0.564,0.035
		c0.29,0.02,0.581,0.037,0.872,0.055c0.233,0.015,0.466,0.032,0.699,0.043c0.031,0.002,0.058-0.014,0.088-0.016
		c0.007,0.01,0.015,0.02,0.02,0.031c0.085,0.171,0.17,0.342,0.255,0.512c0.14,0.281,0.281,0.561,0.421,0.842
		C27.547,4.903,27.555,4.924,27.564,4.945z"/>
	<path fill="#6200FF" d="M27.381,8.823c-0.036-0.014-0.073-0.015-0.111-0.016c-0.062,0-0.125,0.005-0.187-0.013
		c-0.03-0.008-0.065-0.002-0.098-0.002c-0.045-0.001-0.089,0.001-0.134-0.011c-0.03-0.008-0.065-0.003-0.097-0.004
		c-0.042-0.001-0.085,0.004-0.127-0.012c-0.016-0.006-0.035-0.003-0.052-0.003c-0.067-0.002-0.135,0.006-0.202-0.013
		c-0.028-0.008-0.06-0.001-0.09-0.002c-0.047-0.001-0.094,0-0.142-0.011c-0.043-0.01-0.09-0.003-0.135-0.004
		c-0.032-0.001-0.065,0.001-0.097-0.01c-0.018-0.006-0.04-0.004-0.06-0.005c-0.067-0.003-0.135,0.004-0.202-0.013
		c-0.038-0.009-0.08-0.002-0.12-0.002c-0.035,0-0.07,0.001-0.104-0.011c-0.02-0.007-0.045-0.004-0.067-0.004
		c-0.057-0.002-0.114,0.002-0.172-0.012c-0.035-0.009-0.075-0.002-0.113-0.003c-0.04-0.001-0.08,0.003-0.119-0.012
		c-0.016-0.006-0.035-0.003-0.052-0.003c-0.067-0.003-0.135,0.006-0.202-0.013c-0.03-0.008-0.065-0.002-0.098-0.002
		c-0.045-0.001-0.089,0-0.134-0.011c-0.036-0.009-0.075-0.003-0.112-0.004c-0.042-0.001-0.085,0.003-0.127-0.011
		c-0.023-0.008-0.05-0.003-0.075-0.004c-0.052-0.002-0.104,0-0.157-0.012c-0.043-0.01-0.09-0.006-0.135-0.003
		c-0.054,0.004-0.103-0.017-0.156-0.019c-0.018-0.001-0.034-0.019-0.052-0.029c0.009-0.02,0.018-0.041,0.029-0.061
		c0.124-0.223,0.249-0.446,0.374-0.669c0.102-0.181,0.204-0.363,0.306-0.544c0.005-0.009,0.012-0.016,0.017-0.024
		c0.09,0.057,0.193,0.047,0.292,0.053c0.295,0.02,0.591,0.037,0.886,0.057c0.188,0.013,0.376,0.024,0.563,0.035
		c0.208,0.012,0.416,0.026,0.623,0.04c0.188,0.012,0.375,0.025,0.563,0.035c0.19,0.01,0.38,0.027,0.571,0.035
		c0.039,0.002,0.081,0.004,0.111,0.038c-0.005,0.014-0.009,0.029-0.015,0.042c-0.063,0.133-0.126,0.267-0.19,0.4
		c-0.087,0.18-0.174,0.36-0.261,0.54c-0.041,0.086-0.081,0.172-0.121,0.258C27.397,8.797,27.388,8.81,27.381,8.823z"/>
	<path fill="#F000FF" d="M26.841,3.498c-0.022,0.042-0.057,0.056-0.101,0.041c-0.025-0.009-0.049-0.009-0.074-0.009
		c-0.067-0.002-0.135,0.005-0.202-0.013c-0.033-0.009-0.07-0.002-0.105-0.002c-0.035,0-0.07,0.001-0.104-0.01
		c-0.023-0.007-0.05-0.004-0.075-0.005C26.12,3.497,26.06,3.502,26,3.487c-0.035-0.009-0.075-0.002-0.113-0.003
		c-0.04-0.001-0.08,0.003-0.119-0.012c-0.016-0.006-0.035-0.003-0.052-0.003c-0.067-0.003-0.135,0.005-0.202-0.013
		c-0.03-0.008-0.065-0.002-0.098-0.002c-0.045-0.001-0.089,0-0.134-0.011c-0.038-0.009-0.08-0.003-0.12-0.004
		c-0.032-0.001-0.065,0.002-0.097-0.01c-0.016-0.006-0.035-0.004-0.052-0.005c-0.07-0.003-0.14,0.004-0.21-0.013
		c-0.038-0.009-0.08-0.002-0.12-0.002c-0.035,0-0.07,0.001-0.104-0.011c-0.021-0.007-0.045-0.003-0.067-0.004
		c-0.062-0.002-0.125,0.004-0.187-0.013c-0.033-0.009-0.07-0.002-0.105-0.003c-0.042-0.001-0.085,0.004-0.127-0.012
		c-0.016-0.006-0.035-0.003-0.052-0.003c-0.067-0.002-0.135,0.005-0.202-0.013c-0.033-0.009-0.07-0.002-0.105-0.002
		c-0.035,0-0.07,0.001-0.104-0.011c-0.023-0.007-0.05-0.004-0.075-0.004c-0.06-0.002-0.12,0.003-0.18-0.012
		c-0.035-0.009-0.075-0.002-0.113-0.003c-0.04-0.001-0.08,0.003-0.119-0.012C23.127,3.3,23.108,3.303,23.09,3.303
		C23.023,3.3,22.955,3.309,22.888,3.29c-0.028-0.008-0.06-0.002-0.09-0.002c0,0-0.001-0.002-0.001-0.002
		c-0.01-0.007-0.006-0.02-0.015-0.027l-0.001-0.001c-0.009-0.008-0.005-0.022-0.016-0.028l0,0c-0.003-0.005-0.007-0.01-0.01-0.015
		c-0.005-0.003-0.007-0.007-0.006-0.013c-0.002-0.008-0.007-0.013-0.013-0.018l-0.001-0.001c-0.004-0.004-0.008-0.008-0.01-0.013
		c-0.002-0.005-0.004-0.009-0.006-0.014c-0.003-0.006-0.006-0.011-0.01-0.016c-0.002-0.002-0.004-0.004-0.005-0.006
		c-0.1-0.174-0.2-0.348-0.3-0.523C22.4,2.601,22.393,2.593,22.398,2.58c0.017-0.011,0.038-0.006,0.057-0.006
		c0.729-0.003,1.458-0.007,2.188-0.009c0.548-0.002,1.096-0.003,1.645-0.004c0.065-0.015,0.1,0.016,0.127,0.074
		c0.045,0.098,0.099,0.191,0.139,0.292c0.009,0.008,0.006,0.022,0.015,0.03l0,0c0.009,0.008,0.006,0.022,0.015,0.03l0,0
		c0.01,0.007,0.006,0.022,0.016,0.029l0,0c0.005,0.005,0.008,0.01,0.011,0.016c0.004,0.003,0.006,0.007,0.005,0.012
		c0.004,0.006,0.007,0.012,0.01,0.018c0.004,0.003,0.006,0.007,0.005,0.013c0.007,0.01,0.004,0.024,0.015,0.032l0-0.001
		c0.007,0.009,0.005,0.023,0.015,0.031l0-0.001c0.008,0.009,0.005,0.023,0.015,0.031l0-0.001c0.008,0.009,0.005,0.023,0.015,0.031
		l0,0c0.008,0.009,0.006,0.023,0.015,0.031l0,0c0.008,0.009,0.006,0.022,0.015,0.031l0,0c0.009,0.008,0.006,0.022,0.015,0.03l0,0
		c0.009,0.008,0.006,0.022,0.015,0.03l0,0c0.009,0.008,0.006,0.022,0.015,0.03l0,0c0.009,0.008,0.007,0.022,0.015,0.03l0,0
		c0.01,0.007,0.006,0.022,0.016,0.029l0-0.001c0.004,0.005,0.008,0.01,0.011,0.016c0.004,0.003,0.006,0.007,0.005,0.012
		c0.007,0.01,0.004,0.025,0.016,0.033l0-0.001C26.833,3.477,26.83,3.491,26.841,3.498L26.841,3.498z"/>
	<path fill="#0F00FF" d="M22.84,10.008c0.003,0.015,0.006,0.031,0.025,0.033c0.049,0.006,0.097,0.021,0.149,0.018
		c0.057-0.003,0.114-0.002,0.172,0.011c0.043,0.01,0.09,0.002,0.135,0.003c0.03,0,0.06,0,0.089,0.01
		c0.018,0.006,0.04,0.004,0.06,0.005c0.067,0.003,0.135-0.004,0.202,0.013c0.038,0.009,0.08,0.002,0.12,0.002
		c0.035,0,0.069-0.001,0.104,0.01c0.023,0.007,0.05,0.004,0.075,0.005c0.06,0.002,0.12-0.004,0.179,0.013
		c0.03,0.009,0.065,0.002,0.098,0.003c0.04,0.001,0.08-0.003,0.119,0.011c0.018,0.007,0.04,0.003,0.06,0.004
		c0.065,0.002,0.13-0.005,0.194,0.013c0.03,0.008,0.065,0.002,0.098,0.002c0.045,0.001,0.089,0,0.134,0.011
		c0.036,0.009,0.075,0.003,0.113,0.004c0.042,0.001,0.085-0.004,0.127,0.012c0.016,0.006,0.035,0.003,0.052,0.003
		c0.067,0.002,0.135-0.005,0.202,0.013c0.033,0.009,0.07,0.002,0.105,0.002c0.035,0,0.069-0.001,0.104,0.01
		c0.023,0.007,0.05,0.004,0.075,0.005c0.06,0.002,0.12-0.003,0.179,0.012c0.035,0.009,0.075,0.002,0.113,0.003
		c0.04,0.001,0.08-0.003,0.119,0.011c0.018,0.007,0.04,0.003,0.06,0.004c0.065,0.002,0.13-0.005,0.194,0.013
		c0.03,0.008,0.065,0.002,0.098,0.002c0.045,0.001,0.089,0.003,0.134,0.011c0.053,0.009,0.11,0.016,0.163-0.011
		c-0.015,0.056-0.046,0.106-0.07,0.158c-0.057,0.123-0.116,0.245-0.175,0.367c-0.021,0.043-0.043,0.085-0.064,0.128
		c-0.009,0.017-0.021,0.027-0.041,0.026c-0.013-0.001-0.025,0-0.038,0c-0.382,0.006-0.764,0.009-1.145,0.019
		c-0.304,0.008-0.608,0.006-0.912,0.015c-0.296,0.009-0.593,0.006-0.889,0.015c-0.311,0.009-0.623,0.009-0.934,0.015
		c-0.04,0.001-0.08,0.003-0.12,0.004c-0.015,0-0.022-0.013-0.016-0.026c0.011-0.022,0.023-0.045,0.035-0.066
		c0.045-0.081,0.091-0.162,0.137-0.243c0.086-0.153,0.169-0.308,0.257-0.46C22.756,10.151,22.79,10.075,22.84,10.008z"/>
	<path fill="#8000FE" d="M27.989,7.544c-0.087-0.014-0.175-0.013-0.262-0.021c-0.08-0.007-0.161-0.003-0.239-0.014
		c-0.083-0.012-0.166-0.004-0.247-0.015c-0.078-0.011-0.156-0.004-0.232-0.015c-0.085-0.012-0.171-0.003-0.254-0.016
		c-0.073-0.011-0.146-0.004-0.217-0.014c-0.083-0.012-0.166-0.004-0.247-0.015c-0.078-0.011-0.156-0.004-0.232-0.015
		c-0.085-0.012-0.171-0.003-0.254-0.016c-0.075-0.011-0.151-0.003-0.224-0.014c-0.083-0.012-0.166-0.003-0.247-0.016
		c-0.073-0.011-0.145-0.01-0.217-0.012c-0.01,0-0.021,0.002-0.03-0.001c-0.061-0.021-0.124-0.012-0.187-0.014
		c-0.03-0.001-0.06,0.001-0.089-0.009c-0.018-0.006-0.04-0.005-0.06-0.006c-0.067-0.003-0.135,0.006-0.202-0.013
		c-0.028-0.008-0.06-0.003-0.09-0.002c-0.044,0.001-0.072-0.018-0.079-0.063c-0.001-0.005,0.001-0.01,0.005-0.013
		c0.002-0.006,0.006-0.011,0.01-0.015l0,0c0.009-0.008,0.006-0.022,0.016-0.029l0,0c0.006-0.006,0.012-0.013,0.013-0.022
		c-0.001-0.004,0-0.007,0.004-0.009c0.005-0.006,0.01-0.012,0.012-0.02c-0.001-0.005,0.001-0.008,0.005-0.01
		c0.003-0.006,0.009-0.011,0.011-0.018c-0.001-0.005,0.001-0.009,0.005-0.012c0.003-0.006,0.007-0.011,0.011-0.016L24.47,7.088
		c0.008-0.005,0.013-0.011,0.014-0.021c-0.001-0.004,0.001-0.007,0.005-0.009c0.004-0.006,0.009-0.011,0.011-0.019
		c-0.001-0.005,0.001-0.009,0.005-0.012c0.003-0.006,0.007-0.011,0.011-0.017C24.515,7.005,24.517,7,24.521,6.997
		c0.002-0.006,0.006-0.011,0.01-0.015l0,0c0.009-0.007,0.006-0.022,0.016-0.029l0-0.001c0.006-0.006,0.012-0.012,0.012-0.022
		c-0.001-0.004,0-0.007,0.004-0.009c0.005-0.006,0.01-0.012,0.011-0.019c-0.001-0.005,0.001-0.008,0.005-0.01
		c0.026-0.015,0.054-0.007,0.081-0.007c1.182,0,2.365-0.001,3.547,0.001c0.027,0,0.066-0.025,0.082,0.023
		c-0.05,0.124-0.106,0.245-0.172,0.361c-0.004,0.005-0.007,0.011-0.01,0.018c0.001,0.005-0.001,0.009-0.005,0.012
		c-0.004,0.006-0.01,0.011-0.01,0.019c0.001,0.005,0,0.008-0.004,0.011c-0.005,0.006-0.011,0.012-0.01,0.02
		c0.001,0.004,0,0.008-0.004,0.01c-0.008,0.008-0.005,0.021-0.014,0.029l0,0.001c-0.009,0.008-0.006,0.022-0.014,0.031
		c-0.002,0.005-0.004,0.01-0.005,0.015c-0.003,0.006-0.006,0.011-0.009,0.016c-0.002,0.005-0.003,0.009-0.005,0.014
		c-0.003,0.006-0.007,0.011-0.01,0.017c0.001,0.005-0.001,0.01-0.005,0.013c-0.004,0.006-0.007,0.012-0.01,0.018
		c0.001,0.005,0,0.009-0.005,0.012C27.995,7.531,27.991,7.537,27.989,7.544L27.989,7.544z"/>
	<path fill="#6200FF" d="M28.291,6.909c-0.008-0.01-0.019-0.016-0.032-0.016c-0.018,0-0.035-0.001-0.053-0.001
		c-1.208,0-2.417,0-3.625,0c0.005-0.004,0.011-0.012,0.016-0.013c0.022-0.002,0.045-0.002,0.068-0.002c1.184,0,2.368,0,3.551,0
		c0.023,0,0.045,0,0.068,0.001C28.3,6.879,28.301,6.886,28.291,6.909z"/>
	<path fill="#CC00FF" d="M26.568,2.956c-0.012-0.007-0.016-0.017-0.015-0.03C26.563,2.933,26.569,2.943,26.568,2.956z"/>
	<path fill="#CC00FF" d="M26.583,2.986c-0.012-0.007-0.015-0.017-0.015-0.03C26.579,2.964,26.584,2.974,26.583,2.986z"/>
	<path fill="#CC00FF" d="M26.599,3.016C26.586,3.01,26.583,3,26.583,2.987C26.593,2.994,26.599,3.004,26.599,3.016z"/>
	<path fill="#CC00FF" d="M26.645,3.106C26.631,3.1,26.628,3.088,26.63,3.074C26.641,3.082,26.645,3.093,26.645,3.106z"/>
	<path fill="#CC00FF" d="M26.66,3.137c-0.013-0.006-0.017-0.018-0.015-0.031C26.656,3.113,26.66,3.124,26.66,3.137z"/>
	<path fill="#CC00FF" d="M26.675,3.167c-0.013-0.006-0.017-0.018-0.015-0.031C26.671,3.143,26.675,3.154,26.675,3.167z"/>
	<path fill="#CC00FF" d="M26.69,3.197c-0.013-0.007-0.016-0.018-0.015-0.031C26.686,3.173,26.69,3.184,26.69,3.197z"/>
	<path fill="#CC00FF" d="M26.704,3.227c-0.013-0.006-0.016-0.017-0.015-0.031C26.701,3.204,26.705,3.214,26.704,3.227z"/>
	<path fill="#CC00FF" d="M22.765,3.229c0.013,0.005,0.017,0.015,0.016,0.028C22.77,3.251,22.765,3.241,22.765,3.229z"/>
	<path fill="#CC00FF" d="M26.719,3.258c-0.013-0.007-0.016-0.017-0.015-0.031C26.715,3.234,26.72,3.245,26.719,3.258z"/>
	<path fill="#CC00FF" d="M22.782,3.258c0.012,0.005,0.015,0.015,0.015,0.027C22.787,3.279,22.781,3.27,22.782,3.258z"/>
	<path fill="#CC00FF" d="M26.734,3.288c-0.012-0.007-0.016-0.017-0.015-0.03C26.73,3.265,26.735,3.275,26.734,3.288z"/>
	<path fill="#6200FF" d="M24.547,6.953c0,0.012-0.004,0.023-0.016,0.029C24.531,6.97,24.537,6.96,24.547,6.953z"/>
	<path fill="#6200FF" d="M24.411,7.194c0,0.013-0.004,0.023-0.016,0.029C24.395,7.211,24.401,7.201,24.411,7.194z"/>
	<path fill="#CC00FF" d="M26.749,3.318c-0.012-0.006-0.016-0.017-0.015-0.03C26.745,3.295,26.75,3.305,26.749,3.318z"/>
	<path fill="#CC00FF" d="M26.764,3.348c-0.012-0.007-0.016-0.017-0.015-0.03C26.76,3.325,26.765,3.335,26.764,3.348z"/>
	<path fill="#CC00FF" d="M26.779,3.379c-0.012-0.006-0.015-0.017-0.015-0.03C26.774,3.356,26.78,3.366,26.779,3.379z"/>
	<path fill="#CC00FF" d="M26.795,3.408c-0.013-0.005-0.017-0.016-0.016-0.029C26.789,3.386,26.795,3.395,26.795,3.408z"/>
	<path fill="#6200FF" d="M28.062,7.389c0-0.012,0.002-0.023,0.014-0.029C28.077,7.373,28.072,7.382,28.062,7.389z"/>
	<path fill="#6200FF" d="M28.048,7.421c-0.001-0.013,0.002-0.024,0.014-0.031C28.062,7.403,28.058,7.413,28.048,7.421z"/>
	<path fill="#CC00FF" d="M26.826,3.468c-0.014-0.007-0.017-0.018-0.016-0.033C26.822,3.444,26.827,3.455,26.826,3.468z"/>
	<path fill="#CC00FF" d="M26.841,3.499c-0.014-0.006-0.017-0.017-0.015-0.031C26.838,3.474,26.842,3.485,26.841,3.499z"/>
	<path fill="#CC00FF" d="M26.61,3.031c-0.007-0.003-0.011-0.008-0.011-0.016C26.607,3.018,26.611,3.023,26.61,3.031z"/>
	<path fill="#CC00FF" d="M26.625,3.062c-0.007-0.004-0.011-0.01-0.01-0.018C26.622,3.047,26.626,3.053,26.625,3.062z"/>
	<path fill="#CC00FF" d="M22.709,3.138c0.007,0.003,0.011,0.009,0.01,0.016C22.711,3.152,22.708,3.146,22.709,3.138z"/>
	<path fill="#CC00FF" d="M22.725,3.168c0.003,0.005,0.007,0.009,0.01,0.014C22.728,3.18,22.724,3.176,22.725,3.168z"/>
	<path fill="#CC00FF" d="M22.736,3.183c0.008,0.003,0.012,0.009,0.013,0.018C22.741,3.198,22.736,3.192,22.736,3.183z"/>
	<path fill="#CC00FF" d="M22.755,3.213c0.007,0.003,0.01,0.008,0.01,0.015C22.757,3.226,22.754,3.221,22.755,3.213z"/>
	<path fill="#CC00FF" d="M26.806,3.424c-0.007-0.003-0.011-0.008-0.011-0.016C26.804,3.41,26.807,3.415,26.806,3.424z"/>
	<path fill="#6200FF" d="M24.575,6.902c0,0.009-0.004,0.015-0.011,0.019C24.563,6.913,24.567,6.907,24.575,6.902z"/>
	<path fill="#6200FF" d="M24.56,6.931c0,0.009-0.004,0.017-0.012,0.022C24.547,6.943,24.551,6.936,24.56,6.931z"/>
	<path fill="#6200FF" d="M24.531,6.982c-0.003,0.005-0.007,0.01-0.01,0.015C24.521,6.99,24.525,6.985,24.531,6.982z"/>
	<path fill="#6200FF" d="M24.516,7.01c-0.004,0.006-0.007,0.011-0.011,0.017C24.504,7.019,24.509,7.014,24.516,7.01z"/>
	<path fill="#6200FF" d="M24.5,7.039c-0.004,0.006-0.007,0.012-0.011,0.019C24.489,7.049,24.493,7.043,24.5,7.039z"/>
	<path fill="#6200FF" d="M24.484,7.067c-0.001,0.01-0.005,0.017-0.014,0.021C24.47,7.078,24.475,7.071,24.484,7.067z"/>
	<path fill="#6200FF" d="M24.471,7.087c-0.004,0.005-0.007,0.011-0.011,0.016C24.459,7.095,24.463,7.09,24.471,7.087z"/>
	<path fill="#6200FF" d="M24.455,7.115c-0.004,0.006-0.007,0.012-0.011,0.018C24.444,7.125,24.448,7.119,24.455,7.115z"/>
	<path fill="#6200FF" d="M24.439,7.144c0,0.009-0.004,0.015-0.012,0.02C24.428,7.154,24.431,7.148,24.439,7.144z"/>
	<path fill="#6200FF" d="M24.424,7.172c0,0.01-0.004,0.017-0.013,0.022C24.411,7.184,24.416,7.177,24.424,7.172z"/>
	<path fill="#6200FF" d="M24.396,7.223c-0.003,0.005-0.007,0.01-0.01,0.015C24.385,7.231,24.389,7.226,24.396,7.223z"/>
	<path fill="#6200FF" d="M28.109,7.288c0-0.008,0.003-0.014,0.01-0.018C28.12,7.278,28.117,7.284,28.109,7.288z"/>
	<path fill="#6200FF" d="M28.095,7.319c0-0.008,0.003-0.015,0.01-0.019C28.105,7.309,28.102,7.315,28.095,7.319z"/>
	<path fill="#6200FF" d="M28.08,7.351c0-0.009,0.003-0.016,0.01-0.02C28.091,7.339,28.088,7.346,28.08,7.351z"/>
	<path fill="#6200FF" d="M28.033,7.452c0.003-0.005,0.006-0.011,0.009-0.016C28.043,7.444,28.04,7.449,28.033,7.452z"/>
	<path fill="#6200FF" d="M28.018,7.483c0.003-0.006,0.007-0.011,0.01-0.017C28.029,7.474,28.025,7.48,28.018,7.483z"/>
	<path fill="#6200FF" d="M28.003,7.514c0-0.008,0.003-0.014,0.01-0.018C28.014,7.505,28.011,7.511,28.003,7.514z"/>
	<path fill="#6200FF" d="M27.989,7.544c-0.001-0.008,0.003-0.014,0.01-0.017C28,7.534,27.997,7.541,27.989,7.544z"/>
</g>
</svg>
