<?xml version="1.0" encoding="utf-8"?>
<!-- Generator: Adobe Illustrator 24.3.0, SVG Export Plug-In . SVG Version: 6.00 Build 0)  -->
<svg version="1.1" id="Слой_1" xmlns="http://www.w3.org/2000/svg" xmlns:xlink="http://www.w3.org/1999/xlink" x="0px" y="0px"
	 width="32px" height="13px" viewBox="0 0 32 13" enable-background="new 0 0 32 13" xml:space="preserve">
<g>
	<path d="M24,6.496c0,0.005,0,0.01,0,0.015c-0.025,0.069-0.066,0.129-0.102,0.192c-0.214,0.371-0.428,0.742-0.642,1.112
		c-0.18,0.311-0.359,0.622-0.539,0.932c-0.191,0.33-0.383,0.66-0.572,0.991c-0.198,0.347-0.399,0.691-0.598,1.037
		c-0.231,0.402-0.463,0.802-0.694,1.204c-0.187,0.324-0.374,0.648-0.562,0.971c-0.012,0.02-0.019,0.049-0.053,0.045
		c-2.489,0-4.978,0-7.467,0c-0.026,0.003-0.034-0.017-0.044-0.034c-0.099-0.169-0.196-0.339-0.294-0.509
		c-0.165-0.285-0.329-0.57-0.494-0.855c-0.194-0.337-0.389-0.674-0.584-1.011c-0.149-0.259-0.301-0.517-0.448-0.777
		c-0.161-0.284-0.326-0.566-0.489-0.849c-0.151-0.263-0.304-0.526-0.456-0.79C9.794,7.879,9.625,7.587,9.456,7.294
		C9.313,7.046,9.17,6.798,9.026,6.551c-0.022-0.037-0.019-0.065,0.001-0.1C9.134,6.268,9.241,6.084,9.346,5.9
		c0.16-0.284,0.326-0.566,0.488-0.849c0.151-0.262,0.303-0.524,0.454-0.786c0.195-0.338,0.391-0.676,0.586-1.015
		c0.163-0.282,0.325-0.563,0.488-0.845c0.19-0.328,0.377-0.658,0.567-0.986c0.162-0.279,0.323-0.559,0.484-0.838
		c0.101-0.174,0.2-0.348,0.302-0.522c0.013-0.022,0.018-0.055,0.055-0.055c2.489,0,4.978,0,7.467,0
		c0.03-0.005,0.039,0.018,0.05,0.037c0.068,0.117,0.136,0.235,0.204,0.352c0.15,0.26,0.3,0.52,0.45,0.779
		c0.175,0.303,0.35,0.607,0.524,0.911c0.152,0.266,0.306,0.531,0.459,0.796c0.196,0.339,0.392,0.678,0.587,1.018
		c0.151,0.262,0.303,0.524,0.454,0.786c0.167,0.29,0.335,0.581,0.503,0.871c0.158,0.274,0.314,0.549,0.473,0.823
		C23.963,6.414,23.989,6.452,24,6.496z"/>
	<path fill="#545454" d="M20.254,0c0.001,0.002,0.002,0.004,0.001,0.007c-0.014,0-0.028,0.001-0.041,0.001c-2.47,0-4.939,0-7.409,0
		c-0.016,0-0.033,0-0.049,0.001C12.755,0.006,12.754,0.003,12.754,0C15.254,0,17.754,0,20.254,0z"/>
	<path fill="#5F5F5F" d="M20.255,12.993c0,0.002,0,0.005-0.001,0.007c-2.5,0-5,0-7.5,0c0-0.003,0.001-0.006,0.001-0.008
		c0.018,0,0.035,0.001,0.053,0.001c2.468,0,4.937,0,7.405,0C20.227,12.992,20.241,12.993,20.255,12.993z"/>
	<path fill="#FF6300" d="M13.965,11.058c-0.004,0.018-0.014,0.028-0.021,0.04c-0.233,0.362-0.466,0.724-0.7,1.086
		c-0.024,0.038-0.029,0.038-0.051-0.001c-0.293-0.507-0.585-1.013-0.877-1.52c-0.164-0.285-0.329-0.57-0.493-0.854
		c-0.253-0.438-0.505-0.877-0.757-1.315c-0.314-0.545-0.629-1.089-0.943-1.634c-0.063-0.11-0.126-0.22-0.191-0.329
		C9.92,6.511,9.918,6.496,9.93,6.476c0.116-0.198,0.231-0.397,0.345-0.597c0.241-0.423,0.486-0.844,0.729-1.266
		c0.314-0.545,0.629-1.089,0.943-1.634c0.193-0.335,0.387-0.67,0.58-1.005c0.222-0.385,0.444-0.77,0.664-1.156
		c0.016-0.027,0.035-0.03,0.061-0.03c1.299,0,2.598,0,3.897,0c0.869,0,1.739,0,2.608,0c0.015,0,0.037-0.009,0.045,0.007
		c0.008,0.016-0.01,0.029-0.018,0.042c-0.217,0.356-0.435,0.711-0.651,1.067c-0.017,0.027-0.034,0.036-0.066,0.036
		c-1.712-0.001-3.424-0.001-5.137-0.002c-0.039,0-0.059,0.012-0.078,0.045c-0.37,0.643-0.741,1.285-1.112,1.928
		c-0.367,0.635-0.733,1.27-1.1,1.904c-0.125,0.217-0.25,0.436-0.376,0.653c-0.013,0.023-0.013,0.039,0,0.061
		c0.394,0.68,0.786,1.361,1.179,2.041c0.22,0.382,0.442,0.762,0.661,1.145c0.249,0.436,0.502,0.87,0.751,1.305
		c0.014,0.025,0.029,0.039,0.059,0.034C13.93,11.056,13.946,11.058,13.965,11.058z"/>
	<path fill="#666666" d="M19.812,1.099c0.038,0.065,0.073,0.126,0.108,0.187c0.119,0.207,0.239,0.413,0.358,0.62
		c0.111,0.193,0.221,0.386,0.332,0.578c0.167,0.289,0.334,0.578,0.501,0.867c0.201,0.349,0.403,0.698,0.604,1.047
		c0.163,0.283,0.327,0.565,0.49,0.847c0.113,0.196,0.228,0.39,0.338,0.587c0.122,0.218,0.25,0.433,0.373,0.65
		c0.012,0.021,0.011,0.035,0,0.054c-0.126,0.216-0.251,0.432-0.376,0.648c-0.136,0.235-0.271,0.47-0.407,0.704
		c-0.166,0.288-0.333,0.576-0.499,0.864c-0.173,0.3-0.346,0.6-0.519,0.9c-0.224,0.389-0.449,0.779-0.673,1.168
		c-0.173,0.3-0.346,0.6-0.519,0.9c-0.067,0.116-0.135,0.232-0.201,0.349c-0.013,0.024-0.029,0.032-0.057,0.032
		c-2.049-0.001-4.098-0.001-6.147-0.001c-0.009,0-0.017,0-0.026,0c-0.007-0.015,0.005-0.022,0.01-0.031
		c0.135-0.21,0.271-0.42,0.406-0.63c0.048-0.075,0.097-0.149,0.145-0.225c0.012-0.02,0.026-0.028,0.049-0.026
		c0.01,0.001,0.02,0,0.03,0c1.665,0,3.329,0,4.994,0c0.01,0,0.02-0.001,0.03,0c0.02,0.002,0.032-0.007,0.042-0.024
		c0.111-0.194,0.223-0.387,0.335-0.581c0.108-0.187,0.216-0.374,0.323-0.561c0.103-0.179,0.206-0.359,0.31-0.539
		c0.108-0.187,0.216-0.374,0.324-0.561c0.117-0.203,0.235-0.406,0.352-0.61c0.167-0.289,0.334-0.578,0.501-0.867
		c0.174-0.302,0.348-0.605,0.523-0.907c0.014-0.023,0.016-0.041,0.002-0.065c-0.079-0.134-0.156-0.269-0.234-0.404
		c-0.104-0.181-0.207-0.361-0.311-0.542c-0.118-0.205-0.236-0.409-0.354-0.613c-0.127-0.22-0.254-0.439-0.38-0.659
		c-0.136-0.235-0.271-0.469-0.407-0.704c-0.127-0.221-0.255-0.441-0.382-0.662c-0.115-0.2-0.231-0.4-0.347-0.6
		C19.398,2.196,19.342,2.098,19.285,2c-0.008-0.014-0.009-0.024-0.001-0.038c0.047-0.076,0.092-0.153,0.138-0.229
		c0.121-0.198,0.242-0.396,0.364-0.594C19.793,1.128,19.801,1.116,19.812,1.099z"/>
	<path fill="#FF6300" d="M15.799,6.183c0.017-0.001,0.031-0.009,0.046-0.016c0.174-0.072,0.352-0.133,0.537-0.172
		c0.136-0.028,0.273-0.038,0.412-0.031c0.15,0.008,0.298,0.023,0.444,0.057c0.164,0.038,0.319,0.097,0.462,0.187
		c0.241,0.153,0.398,0.371,0.488,0.64c0.047,0.14,0.072,0.284,0.085,0.431c0.011,0.124,0.011,0.249,0.005,0.373
		c-0.012,0.22-0.054,0.433-0.145,0.635c-0.141,0.311-0.374,0.527-0.687,0.66c-0.171,0.073-0.35,0.114-0.534,0.136
		c-0.14,0.017-0.28,0.024-0.421,0.019c-0.216-0.007-0.427-0.042-0.629-0.122c-0.296-0.118-0.526-0.315-0.697-0.581
		c-0.135-0.21-0.223-0.44-0.284-0.682c-0.046-0.183-0.074-0.369-0.093-0.556c-0.025-0.249-0.028-0.499-0.019-0.749
		c0.009-0.279,0.039-0.556,0.104-0.828c0.054-0.226,0.131-0.443,0.249-0.644c0.221-0.377,0.546-0.616,0.967-0.726
		c0.155-0.04,0.312-0.061,0.472-0.07c0.208-0.012,0.414,0.003,0.62,0.022c0.3,0.028,0.598,0.074,0.895,0.124
		c0.05,0.008,0.049,0.009,0.044,0.059c-0.013,0.121-0.024,0.242-0.036,0.363c-0.015,0.147-0.03,0.295-0.044,0.442
		c-0.002,0.018-0.006,0.023-0.025,0.02c-0.216-0.03-0.433-0.055-0.651-0.074c-0.173-0.015-0.345-0.026-0.519-0.031
		c-0.096-0.002-0.191-0.003-0.286,0.009c-0.338,0.042-0.564,0.223-0.678,0.545c-0.041,0.116-0.061,0.235-0.074,0.357
		c-0.005,0.053-0.007,0.105-0.009,0.158C15.796,6.152,15.793,6.168,15.799,6.183z"/>
	<path d="M16.575,6.834c0.081-0.002,0.17,0.006,0.256,0.031c0.205,0.058,0.336,0.19,0.39,0.395c0.043,0.163,0.042,0.328-0.002,0.491
		c-0.064,0.235-0.22,0.373-0.456,0.424c-0.113,0.024-0.227,0.028-0.34,0.007c-0.149-0.028-0.27-0.105-0.366-0.221
		c-0.092-0.111-0.149-0.24-0.19-0.377c-0.038-0.127-0.058-0.256-0.07-0.388c-0.006-0.068-0.007-0.135-0.009-0.203
		c-0.001-0.021,0.006-0.031,0.027-0.037c0.151-0.043,0.304-0.077,0.46-0.098C16.371,6.844,16.469,6.834,16.575,6.834z"/>
</g>
</svg>
