<?xml version="1.0" encoding="utf-8"?>
<!-- Generator: Adobe Illustrator 24.3.0, SVG Export Plug-In . SVG Version: 6.00 Build 0)  -->
<svg version="1.1" id="Слой_1" xmlns="http://www.w3.org/2000/svg" xmlns:xlink="http://www.w3.org/1999/xlink" x="0px" y="0px"
	 width="32px" height="13px" viewBox="0 0 32 13" enable-background="new 0 0 32 13" xml:space="preserve">
<g>
	<path d="M12.354,13c0-0.027-0.019-0.046-0.031-0.067c-0.091-0.159-0.183-0.317-0.274-0.476c-0.514-0.891-1.027-1.781-1.541-2.672
		C9.97,8.854,9.433,7.922,8.895,6.99C8.81,6.843,8.728,6.694,8.64,6.547c-0.021-0.036-0.018-0.06,0.002-0.095
		c0.172-0.295,0.342-0.59,0.512-0.886C9.41,5.124,9.666,4.681,9.922,4.238c0.536-0.93,1.072-1.859,1.608-2.789
		c0.262-0.454,0.523-0.908,0.785-1.362c0.014-0.024,0.029-0.047,0.043-0.071C12.386,0,12.416,0.008,12.446,0.008
		c2.459-0.001,4.918,0,7.377-0.001c0.045-0.005,0.068,0.024,0.087,0.058c0.343,0.593,0.684,1.187,1.027,1.781
		c0.306,0.53,0.612,1.061,0.919,1.591c0.34,0.589,0.678,1.179,1.018,1.768c0.228,0.396,0.455,0.792,0.688,1.185
		c0.045,0.077,0.047,0.136,0.002,0.214c-0.449,0.781-0.901,1.561-1.351,2.341c-0.365,0.632-0.729,1.266-1.095,1.898
		c-0.395,0.682-0.789,1.364-1.18,2.049c-0.022,0.039-0.039,0.082-0.081,0.107C17.356,13,14.855,13,12.354,13z"/>
	<path fill="#383838" d="M19.857,0c0,0.005-0.001,0.01-0.001,0.015c-0.04,0-0.08,0-0.12,0c-2.422,0-4.844,0-7.266,0
		c-0.038,0-0.075,0.001-0.113,0.001C12.356,0.011,12.355,0.005,12.354,0C14.855,0,17.356,0,19.857,0z"/>
	<path d="M10.478,1.819c-0.002,0.025-0.019,0.044-0.03,0.066c-0.231,0.42-0.462,0.839-0.693,1.259
		C9.579,3.462,9.404,3.781,9.229,4.1C8.851,4.787,8.473,5.476,8.093,6.163c-0.026,0.047-0.027,0.082-0.004,0.13
		c0.527,1.115,1.052,2.231,1.578,3.348c0.23,0.488,0.458,0.976,0.687,1.464c0.009,0.02,0.024,0.038,0.023,0.064
		c-0.007,0.001-0.014,0.005-0.021,0.004c-0.205-0.017-0.41-0.035-0.615-0.052c-0.153-0.012-0.305-0.023-0.458-0.036
		c-0.153-0.012-0.305-0.026-0.458-0.039c-0.148-0.012-0.295-0.024-0.443-0.035c-0.078-0.006-0.155-0.012-0.233-0.018
		c-0.019-0.001-0.033-0.009-0.042-0.026c-0.011-0.022-0.022-0.045-0.033-0.068c-0.185-0.375-0.371-0.751-0.556-1.126
		C7.061,8.845,6.604,7.916,6.146,6.987C6.065,6.823,5.987,6.658,5.903,6.495C5.883,6.454,5.885,6.423,5.905,6.384
		C6.05,6.103,6.192,5.821,6.336,5.54C6.561,5.1,6.788,4.661,7.013,4.221C7.399,3.469,7.784,2.717,8.17,1.966
		c0.043-0.084,0.017-0.068,0.111-0.072c0.231-0.01,0.462-0.018,0.692-0.026c0.344-0.013,0.687-0.026,1.031-0.039
		c0.148-0.006,0.296-0.011,0.444-0.016C10.458,1.811,10.468,1.808,10.478,1.819z"/>
	<path d="M7.161,11.229C4.783,9.684,2.406,8.14,0.026,6.595c0.011-0.029,0.037-0.035,0.056-0.048
		C0.425,6.332,0.767,6.118,1.11,5.904C2.02,5.335,2.931,4.766,3.841,4.196C4.892,3.538,5.942,2.88,6.993,2.222
		c0.022-0.014,0.042-0.034,0.073-0.039C7.07,2.208,7.056,2.224,7.048,2.24C6.847,2.658,6.645,3.076,6.444,3.494
		C5.956,4.506,5.468,5.518,4.98,6.53C4.976,6.536,4.974,6.544,4.97,6.55c-0.02,0.028-0.015,0.054,0,0.084
		C5.06,6.819,5.147,7.005,5.236,7.19c0.393,0.818,0.787,1.636,1.18,2.454c0.242,0.504,0.484,1.008,0.726,1.512
		c0.01,0.02,0.019,0.04,0.028,0.06C7.167,11.221,7.164,11.225,7.161,11.229z"/>
	<path fill="#666666" d="M13.027,12.079c0.02-0.04,0.033-0.067,0.047-0.093c0.127-0.239,0.254-0.479,0.381-0.718
		c0.014-0.027,0.03-0.052,0.044-0.079c0.008-0.014,0.021-0.021,0.037-0.022c0.025-0.001,0.05-0.001,0.075-0.001
		c1.692,0,3.384,0,5.077,0c0.018,0,0.036-0.003,0.053,0c0.054,0.01,0.081-0.02,0.106-0.063c0.194-0.34,0.39-0.679,0.586-1.018
		c0.2-0.348,0.401-0.695,0.602-1.043c0.195-0.339,0.391-0.678,0.586-1.017c0.174-0.302,0.35-0.603,0.524-0.906
		c0.109-0.189,0.217-0.379,0.325-0.568c0.006-0.011,0.011-0.023,0.018-0.033c0.017-0.024,0.014-0.045,0-0.07
		c-0.051-0.087-0.1-0.174-0.15-0.261c-0.124-0.215-0.248-0.43-0.373-0.645c-0.139-0.241-0.279-0.482-0.418-0.723
		c-0.1-0.174-0.201-0.347-0.301-0.521c-0.006-0.011-0.012-0.022-0.017-0.034c-0.005-0.011,0-0.019,0.008-0.026
		c0.006-0.004,0.013-0.007,0.02-0.011c0.109-0.057,0.217-0.115,0.326-0.171c0.127-0.066,0.254-0.132,0.381-0.197
		c0.059-0.03,0.059-0.029,0.092,0.028c0.188,0.326,0.376,0.652,0.563,0.978c0.217,0.376,0.433,0.752,0.65,1.128
		c0.084,0.146,0.169,0.291,0.253,0.436c0.006,0.011,0.011,0.022,0.018,0.033c0.009,0.014,0.008,0.028,0,0.042
		c-0.028,0.048-0.054,0.096-0.082,0.144c-0.152,0.265-0.305,0.531-0.458,0.796c-0.139,0.241-0.279,0.482-0.418,0.723
		c-0.141,0.243-0.28,0.487-0.421,0.73c-0.12,0.209-0.242,0.417-0.362,0.625c-0.088,0.152-0.174,0.305-0.262,0.457
		c-0.121,0.211-0.243,0.422-0.365,0.632c-0.104,0.18-0.208,0.361-0.312,0.541c-0.102,0.176-0.203,0.352-0.305,0.528
		c-0.068,0.117-0.137,0.234-0.203,0.352c-0.018,0.033-0.04,0.048-0.077,0.044c-0.017-0.002-0.035,0-0.053,0
		c-2.029,0-4.057,0-6.086,0C13.105,12.08,13.073,12.079,13.027,12.079z"/>
	<path fill="#00ECFF" d="M11.644,2.829c-0.001-0.005,0.001-0.009,0.006-0.012c0.003-0.006,0.006-0.011,0.011-0.016l0,0
		c0.01-0.007,0.007-0.022,0.016-0.029l0-0.001c0.005-0.006,0.011-0.012,0.012-0.02c-0.001-0.005,0.001-0.008,0.005-0.011
		c0.004-0.006,0.007-0.012,0.011-0.018c0.021-0.04,0.042-0.08,0.064-0.119c0.22-0.383,0.441-0.765,0.662-1.147
		c0.115-0.2,0.23-0.4,0.345-0.6c0.005-0.009,0.011-0.017,0.015-0.026c0.014-0.031,0.034-0.048,0.07-0.043
		c0.015,0.002,0.03,0,0.045,0c2.134,0,4.268,0,6.402,0c0.112,0,0.084-0.016,0.139,0.079c0.24,0.415,0.478,0.831,0.716,1.246
		c0.01,0.017,0.018,0.036,0.027,0.053c0.004,0.005,0.008,0.011,0.011,0.016c0.004,0.003,0.006,0.006,0.005,0.011
		c0.002,0.008,0.007,0.013,0.011,0.019c0.004,0.002,0.006,0.004,0.004,0.009c0,0.009,0.006,0.016,0.012,0.022l0,0
		c0.013,0.071-0.04,0.078-0.086,0.081C20.055,2.33,19.963,2.34,19.871,2.34c-0.212-0.001-0.424,0.025-0.636,0.018
		c-0.048-0.001-0.095,0.001-0.142,0.009c-0.046,0.008-0.09,0.001-0.126-0.032c-0.047-0.062-0.079-0.133-0.12-0.199
		c-0.032-0.054-0.063-0.108-0.094-0.163c-0.011-0.019-0.024-0.031-0.048-0.029c-0.017,0.002-0.035,0-0.053,0
		c-1.696,0-3.392,0-5.088,0c-0.098,0-0.075-0.016-0.127,0.074c-0.146,0.252-0.291,0.503-0.437,0.755
		c-0.009,0.015-0.019,0.029-0.029,0.043c-0.018,0.028-0.047,0.037-0.078,0.037c-0.075-0.001-0.15,0.016-0.225,0.014
		c-0.216-0.004-0.431,0.024-0.646,0.018c-0.1-0.003-0.2,0.025-0.3,0.013C11.682,2.894,11.631,2.896,11.644,2.829z"/>
	<path fill="#00B8FF" d="M11.644,2.829c0.004,0.032,0.021,0.05,0.055,0.048c0.074-0.004,0.15,0.011,0.223-0.012
		c0.016-0.005,0.035-0.002,0.052-0.002c0.082,0,0.165,0,0.247,0c0.04,0,0.08,0.003,0.118-0.012c0.016-0.006,0.035-0.003,0.052-0.003
		c0.072,0,0.145,0,0.217,0c0.047,0,0.094-0.001,0.141-0.011c0.045-0.01,0.094-0.004,0.142-0.004c0.028,0,0.055-0.001,0.08-0.015
		c-0.001,0.021-0.016,0.036-0.026,0.054c-0.237,0.41-0.474,0.82-0.711,1.231c-0.121,0.211-0.242,0.422-0.364,0.632
		c-0.011,0.019-0.024,0.038-0.036,0.057c-0.002,0.006-0.006,0.01-0.01,0.014l0,0c-0.006,0.006-0.012,0.012-0.013,0.022
		c0.001,0.004,0,0.007-0.004,0.009c-0.005,0.006-0.01,0.011-0.011,0.019c0.001,0.005-0.001,0.009-0.005,0.011
		c-0.003,0.006-0.007,0.011-0.011,0.016l0-0.001c-0.011,0.007-0.007,0.021-0.017,0.029l0,0c-0.006,0.006-0.012,0.012-0.012,0.021
		c0.001,0.004-0.001,0.008-0.005,0.01c-0.004,0.005-0.008,0.011-0.011,0.017l0.001-0.001c-0.062,0.046-0.137,0.052-0.209,0.05
		c-0.221-0.005-0.441,0.019-0.662,0.019c-0.12,0-0.24,0.019-0.36,0.012c-0.045-0.003-0.094-0.004-0.098-0.068l0,0
		c0.01-0.007,0.006-0.022,0.016-0.029l0-0.001c0.005-0.006,0.011-0.012,0.012-0.02c-0.001-0.005,0.001-0.008,0.005-0.011
		c0.004-0.006,0.007-0.012,0.011-0.017c-0.001-0.006,0.001-0.01,0.006-0.013c0.002-0.006,0.006-0.01,0.01-0.015l0,0
		c0.009-0.007,0.006-0.022,0.016-0.028l0.001-0.001c0.005-0.006,0.01-0.012,0.012-0.02c-0.001-0.005,0.001-0.009,0.005-0.011
		c0.003-0.006,0.007-0.011,0.011-0.017c0.002-0.005,0.004-0.009,0.006-0.014c0.002-0.006,0.005-0.01,0.01-0.014l0,0
		c0.006-0.006,0.012-0.012,0.012-0.021c-0.001-0.004,0.001-0.008,0.005-0.009c0.004-0.006,0.009-0.011,0.011-0.018
		c-0.001-0.005,0.001-0.009,0.006-0.012c0.003-0.005,0.007-0.011,0.01-0.016l0,0.001c0.01-0.007,0.007-0.021,0.016-0.029l0-0.001
		c0.006-0.006,0.011-0.012,0.012-0.021c-0.001-0.005,0.001-0.008,0.005-0.01c0.004-0.006,0.008-0.011,0.011-0.018
		c-0.001-0.005,0.001-0.01,0.006-0.013c0.003-0.005,0.006-0.01,0.01-0.015l0,0c0.01-0.007,0.007-0.021,0.016-0.028l0.001-0.001
		c0.005-0.006,0.011-0.012,0.012-0.02c-0.001-0.005,0.001-0.009,0.005-0.011c0.004-0.006,0.007-0.011,0.011-0.017
		c0.002-0.004,0.004-0.009,0.006-0.013c0.002-0.005,0.006-0.01,0.01-0.014l0,0c0.009-0.007,0.006-0.021,0.016-0.028l0.001-0.002
		c0.005-0.006,0.01-0.012,0.012-0.019c-0.001-0.005,0.001-0.009,0.006-0.012c0.003-0.005,0.007-0.011,0.01-0.016
		c0.002-0.005,0.004-0.009,0.006-0.014c0.002-0.005,0.005-0.01,0.01-0.014c0.046-0.083,0.09-0.167,0.137-0.249
		c0.238-0.414,0.478-0.828,0.717-1.242C11.62,2.861,11.627,2.841,11.644,2.829z"/>
	<path fill="#004CFF" d="M11.736,10.334c-0.042-0.053-0.071-0.115-0.105-0.173c-0.3-0.519-0.599-1.038-0.898-1.557
		c-0.009-0.015-0.015-0.031-0.022-0.047c0.086-0.042,0.182-0.033,0.272-0.035c0.293-0.008,0.586-0.019,0.879-0.033
		c0.041-0.002,0.078-0.016,0.117-0.026c0.014,0.021,0.029,0.04,0.041,0.062c0.221,0.383,0.443,0.767,0.664,1.15
		c0.102,0.178,0.204,0.356,0.306,0.534c0.011,0.019,0.02,0.04,0.03,0.06c0.003,0.032-0.023,0.035-0.043,0.042
		c-0.031,0.011-0.064,0.016-0.096,0.015c-0.213-0.008-0.425,0.019-0.638,0.017c-0.133-0.001-0.265,0.02-0.398,0.014
		C11.806,10.356,11.769,10.356,11.736,10.334z"/>
	<path fill="#0098FF" d="M10.41,4.971c0.018,0.036,0.047,0.047,0.086,0.046c0.073-0.002,0.146-0.001,0.218-0.001
		c0.008,0,0.015,0.001,0.023-0.001c0.114-0.028,0.23-0.009,0.345-0.014C11.119,5,11.156,5.003,11.193,4.99
		c0.018-0.007,0.04-0.003,0.06-0.004c0.07,0,0.141-0.002,0.211,0c0.083,0.003,0.164-0.009,0.245-0.028
		c0.01-0.002,0.02-0.001,0.03-0.001c-0.005,0.028-0.023,0.05-0.037,0.073c-0.267,0.463-0.534,0.925-0.802,1.387
		c-0.009,0.015-0.016,0.032-0.026,0.046c-0.02,0.026-0.015,0.049,0.001,0.076c0.034,0.058,0.066,0.118,0.099,0.177
		c-0.021,0.047-0.065,0.055-0.107,0.054c-0.145-0.004-0.289,0.018-0.434,0.018c-0.21-0.001-0.419,0.024-0.629,0.015
		c-0.04-0.002-0.08,0.001-0.115-0.024C9.625,6.69,9.579,6.593,9.521,6.501C9.568,6.42,9.613,6.342,9.658,6.264
		c0.241-0.417,0.481-0.834,0.722-1.251C10.389,4.998,10.394,4.981,10.41,4.971z"/>
	<path fill="#006EFF" d="M9.687,6.779c0.132,0,0.265,0,0.397,0c0.045,0,0.09,0.004,0.133-0.012c0.016-0.006,0.035-0.003,0.052-0.003
		c0.08,0,0.16,0,0.24,0c0.037,0,0.074,0.003,0.111-0.011c0.015-0.006,0.035-0.003,0.052-0.003c0.052,0,0.105-0.002,0.157,0
		c0.051,0.003,0.099-0.005,0.143-0.033c0.044,0.058,0.076,0.124,0.112,0.186c0.141,0.243,0.28,0.487,0.42,0.73
		c0.15,0.261,0.301,0.521,0.451,0.782c0.009,0.015,0.015,0.031,0.022,0.047c-0.003,0.031-0.026,0.041-0.051,0.046
		c-0.017,0.004-0.035,0.002-0.052,0.002c-0.055,0.002-0.11-0.005-0.163,0.013c-0.016,0.005-0.035,0.002-0.052,0.002
		c-0.08,0-0.16,0-0.24,0c-0.035,0-0.069-0.002-0.104,0.011c-0.018,0.006-0.039,0.004-0.059,0.004c-0.082,0-0.165,0-0.247,0
		c-0.04,0-0.08-0.003-0.118,0.012c-0.016,0.006-0.035,0.003-0.052,0.003c-0.042,0-0.085,0-0.127,0
		c-0.019-0.029-0.039-0.058-0.056-0.088c-0.284-0.491-0.567-0.981-0.85-1.472C9.764,6.925,9.726,6.851,9.687,6.779z"/>
	<path fill="#00C3FF" d="M18.967,2.335c0.018-0.001,0.035,0.002,0.051,0.008c0.024,0.01,0.051,0.011,0.074,0.002
		c0.034-0.013,0.069-0.011,0.104-0.011c0.078,0,0.155,0,0.233,0c0.037,0,0.075,0.002,0.111-0.011c0.018-0.007,0.04-0.004,0.06-0.004
		c0.073,0,0.145,0,0.218,0c0.045,0,0.09,0.004,0.134-0.012c0.016-0.006,0.035-0.003,0.052-0.003c0.053,0,0.105,0,0.158,0
		c0.041,0,0.066-0.019,0.073-0.06c0.014,0.008,0.019,0.023,0.026,0.036c0.253,0.439,0.507,0.878,0.76,1.317
		c0.007,0.013,0.013,0.026,0.02,0.039c-0.059,0.044-0.686,0.369-1.016,0.528c-0.02-0.016-0.028-0.04-0.041-0.061
		c-0.285-0.493-0.57-0.986-0.855-1.479c-0.048-0.083-0.096-0.165-0.143-0.248C18.977,2.363,18.973,2.349,18.967,2.335z"/>
	<path fill="#0083FF" d="M16.273,6.84c-0.021-0.193-0.019-0.386-0.009-0.579c0.003-0.05,0.005-0.1,0.009-0.15
		c0.001-0.02-0.001-0.04,0.011-0.058c0.027,0.062,0.076,0.075,0.139,0.071c0.216-0.015,0.433-0.006,0.649-0.032
		c0.015-0.002,0.03-0.002,0.043,0.009c0.004,0.009,0.007,0.022,0.019,0.018c0.022-0.006,0.043-0.014,0.064-0.022
		c0.123-0.05,0.249-0.092,0.379-0.122c0.128-0.029,0.257-0.04,0.388-0.032c0.128,0.008,0.255,0.021,0.379,0.052
		c0.078,0.019,0.154,0.045,0.227,0.078c0.253,0.114,0.428,0.302,0.525,0.561c0.025,0.066,0.049,0.132,0.054,0.203
		c-0.015,0.061-0.069,0.054-0.11,0.053c-0.196-0.006-0.391,0.022-0.586,0.017c-0.06-0.002-0.12,0.008-0.18,0.006
		c-0.029-0.006-0.048-0.026-0.065-0.048C18.131,6.764,18.022,6.712,17.9,6.7c-0.244-0.025-0.483,0.012-0.718,0.078
		c-0.02,0.005-0.037,0.016-0.049,0.032c-0.043,0.143-0.043,0.145-0.202,0.142c-0.168-0.003-0.335,0.023-0.503,0.017
		C16.29,6.964,16.289,6.967,16.273,6.84z"/>
	<path fill="#00E1FF" d="M15.743,5.272c0.001,0.01,0.002,0.02,0.003,0.03c-0.018,0.029-0.048,0.037-0.078,0.036
		c-0.098-0.002-0.195,0.019-0.292,0.017c-0.14-0.003-0.28,0.005-0.42,0.015c-0.063,0.005-0.125-0.002-0.181-0.036
		c-0.119-0.09-0.254-0.127-0.401-0.129c-0.14-0.002-0.281,0.002-0.421,0.012c-0.14,0.011-0.28,0.025-0.419,0.038
		c-0.06,0.006-0.119,0.014-0.179,0.021c-0.031,0.004-0.033,0.002-0.037-0.03c-0.008-0.072-0.016-0.144-0.024-0.217
		c-0.015-0.14-0.029-0.279-0.043-0.419c-0.003-0.026-0.001-0.031,0.026-0.036c0.088-0.019,0.176-0.038,0.265-0.055
		c0.155-0.03,0.311-0.054,0.468-0.072c0.26-0.03,0.52-0.034,0.78-0.002c0.142,0.017,0.281,0.048,0.415,0.103
		c0.077,0.032,0.15,0.07,0.216,0.121c0.177,0.137,0.279,0.318,0.311,0.538C15.742,5.228,15.729,5.252,15.743,5.272z"/>
	<path fill="#0021FF" d="M19.148,7.622c-0.001,0.048-0.019,0.093-0.034,0.138c-0.112,0.335-0.335,0.565-0.665,0.69
		c-0.122,0.047-0.249,0.075-0.379,0.093c-0.162,0.022-0.326,0.025-0.488,0.011c-0.323-0.027-0.608-0.142-0.836-0.381
		c-0.128-0.134-0.221-0.291-0.292-0.462c-0.002-0.004-0.001-0.01-0.002-0.015c0.028-0.028,0.065-0.024,0.099-0.022
		c0.217,0.007,0.433-0.024,0.651-0.017c0.048,0.002,0.094-0.01,0.14-0.022c0.038-0.012,0.062,0.014,0.085,0.036
		c0.169,0.163,0.543,0.132,0.687,0.016c0.034-0.028,0.067-0.062,0.116-0.063c0.255,0.008,0.51-0.012,0.765-0.023
		C19.047,7.6,19.101,7.587,19.148,7.622z"/>
	<path fill="#0022FF" d="M11.736,10.334c0.087,0,0.175,0,0.262,0c0.045,0,0.09,0.004,0.133-0.012
		c0.016-0.006,0.035-0.003,0.052-0.003c0.067,0,0.135,0,0.202,0c0.052-0.001,0.105,0.005,0.156-0.013
		c0.016-0.005,0.035-0.002,0.052-0.002c0.087,0,0.175-0.002,0.262,0.001c0.051,0.002,0.098-0.014,0.147-0.021
		c0.006-0.001,0.011-0.01,0.016-0.015c0.034,0.038,0.053,0.084,0.079,0.127c0.112,0.193,0.224,0.386,0.335,0.579
		c0.004,0.006,0.006,0.014,0.01,0.022c-0.002,0.023-0.031,0.01-0.038,0.029c-0.006,0.016-0.017,0.031-0.025,0.046
		c-0.145,0.272-0.289,0.545-0.433,0.817c-0.048,0.091-0.096,0.181-0.145,0.272c-0.027-0.003-0.03-0.026-0.039-0.042
		c-0.12-0.206-0.239-0.412-0.358-0.618c-0.209-0.363-0.419-0.725-0.628-1.088C11.762,10.388,11.749,10.36,11.736,10.334z"/>
	<path fill="#001EFF" d="M15.771,7.788c-0.069,0.262-0.218,0.465-0.455,0.6c-0.15,0.086-0.314,0.131-0.484,0.154
		c-0.237,0.031-0.475,0.022-0.713,0.005c-0.125-0.009-0.25-0.021-0.374-0.037c-0.166-0.022-0.332-0.05-0.498-0.075
		c-0.005-0.001-0.01-0.002-0.015-0.003c-0.025-0.007-0.032-0.017-0.029-0.043c0.009-0.085,0.019-0.169,0.028-0.254
		c0.01-0.09,0.02-0.179,0.03-0.269c0.001-0.012,0.007-0.024,0.01-0.036c0.056,0.03,0.117,0.032,0.176,0.024
		c0.18-0.026,0.361-0.014,0.541-0.023c0.213-0.011,0.426-0.013,0.639-0.023c0.331-0.014,0.662-0.016,0.992-0.04
		C15.669,7.764,15.724,7.751,15.771,7.788z"/>
	<path fill="#00D6FF" d="M16.42,5.402c-0.002-0.004-0.001-0.007,0.003-0.009c0.009-0.009,0.007-0.023,0.013-0.034
		c-0.002-0.005-0.001-0.008,0.003-0.011c0.008-0.009,0.005-0.022,0.013-0.031c0.001-0.005,0.003-0.009,0.004-0.014
		c0.003-0.006,0.009-0.011,0.01-0.019c-0.002-0.005,0-0.008,0.004-0.011c0.008-0.008,0.004-0.021,0.013-0.029l0-0.001
		c0.009-0.008,0.006-0.022,0.014-0.03l0,0c0.01-0.008,0.006-0.022,0.015-0.03c0.055-0.124,0.129-0.235,0.227-0.33
		c0.123,0.039,0.25,0.027,0.373,0.016c0.177-0.016,0.355-0.012,0.533-0.021c0.21-0.01,0.42-0.016,0.63-0.023
		c0.225-0.007,0.45-0.007,0.675-0.028c0.027-0.003,0.055-0.009,0.08,0.01c0.004,0.091-0.016,0.18-0.021,0.27
		c-0.004,0.06-0.012,0.12-0.02,0.179c-0.004,0.03-0.01,0.034-0.039,0.031c-0.09-0.011-0.179-0.024-0.269-0.033
		c-0.14-0.014-0.279-0.029-0.419-0.039c-0.133-0.009-0.265-0.019-0.399-0.015c-0.088,0.003-0.175,0.015-0.259,0.042
		c-0.097,0.031-0.183,0.081-0.255,0.154c-0.01,0.011-0.022,0.02-0.033,0.03c-0.024,0.016-0.05,0.023-0.078,0.021
		c-0.18-0.007-0.358,0.025-0.538,0.016c-0.07-0.003-0.139,0.013-0.209,0.013C16.445,5.475,16.401,5.467,16.42,5.402z"/>
	<path fill="#008EFF" d="M15.654,6.011c-0.025,0.069-0.073,0.123-0.12,0.177c-0.05,0.056-0.106,0.104-0.167,0.148
		c-0.018,0.013-0.036,0.026-0.053,0.039c-0.004,0.021,0.016,0.023,0.024,0.034c0.005,0.002,0.01,0.005,0.013,0.009l0.001,0.001
		c0.006,0.006,0.011,0.012,0.02,0.012c0.005-0.001,0.008,0.001,0.01,0.005c0.005,0.004,0.011,0.008,0.017,0.011
		c0.004,0.002,0.009,0.004,0.013,0.006c0.005,0.002,0.01,0.006,0.013,0.01l0.001,0.001c0.006,0.005,0.011,0.011,0.019,0.013
		c0.005,0,0.009,0.002,0.012,0.006c0.005,0.002,0.01,0.006,0.014,0.011l0.001,0c0.005,0.005,0.011,0.011,0.019,0.013
		c0.004,0.002,0.008,0.005,0.012,0.007c0.006,0.001,0.009,0.005,0.011,0.01l0.002,0.002c0.006,0.003,0.011,0.008,0.015,0.012l0,0
		c0.005,0.005,0.01,0.011,0.017,0.014l-0.001-0.001c0.004,0.007,0.009,0.013,0.017,0.015l-0.001-0.001
		c0.013,0.038-0.015,0.048-0.041,0.059c-0.021,0.009-0.044,0.012-0.066,0.011c-0.178-0.006-0.356,0.011-0.534,0.017
		c-0.363,0.013-0.726,0.018-1.089,0.043c-0.174,0.012-0.179,0.009-0.179-0.16c0-0.11,0.003-0.221-0.001-0.331
		c-0.002-0.053,0.015-0.067,0.067-0.067c0.246,0.001,0.492,0.005,0.737-0.002c0.093-0.014,0.176-0.049,0.249-0.109
		c0.007-0.006,0.016-0.011,0.025-0.016c0.174-0.006,0.348-0.003,0.522-0.016c0.112-0.009,0.224-0.006,0.336-0.005
		C15.615,5.989,15.637,5.992,15.654,6.011z"/>
	<path fill="#0068FF" d="M14.461,6.135c-0.022,0.017-0.048,0.01-0.073,0.01c-0.208,0.001-0.416,0-0.624,0
		c-0.109,0-0.099-0.008-0.099,0.103c0,0.113,0,0.226,0.001,0.338c0,0.02,0,0.04,0.002,0.06c0.001,0.014,0.01,0.024,0.024,0.024
		c0.06,0.001,0.12,0.009,0.18-0.005c0.025-0.006,0.049-0.008,0.074-0.008c0.068,0,0.135,0.001,0.203,0
		c0.052-0.001,0.105,0.005,0.156-0.013c0.016-0.005,0.035-0.002,0.052-0.002c0.075,0,0.15,0,0.226,0
		c0.047,0,0.095,0.005,0.141-0.012c0.016-0.006,0.035-0.003,0.052-0.003c0.075,0,0.15,0,0.226,0c0.042,0,0.085,0.003,0.126-0.012
		c0.018-0.006,0.04-0.003,0.06-0.003c0.09,0,0.181-0.001,0.271,0c0.031,0.001,0.059-0.008,0.087-0.018
		c0.013-0.005,0.016-0.018,0.019-0.03c0.093,0.069,0.154,0.162,0.197,0.267c0.034,0.083,0.058,0.17,0.058,0.261
		c0.016,0.121,0.015,0.121-0.102,0.134c-0.211,0.022-0.424,0.011-0.636,0.028c-0.037,0.003-0.076,0.005-0.107-0.023
		c-0.004-0.014-0.009-0.029-0.013-0.043c-0.033-0.146-0.131-0.233-0.264-0.285c-0.097-0.038-0.201-0.042-0.304-0.043
		c-0.218-0.001-0.436,0-0.655,0c-0.02,0-0.04,0-0.06-0.001c-0.017-0.001-0.028-0.009-0.029-0.027c0-0.013-0.001-0.025-0.001-0.038
		c0-0.198,0-0.396,0-0.594c0-0.015,0-0.03,0.002-0.045c0.001-0.011,0.007-0.019,0.019-0.02c0.01-0.001,0.02-0.002,0.03-0.002
		c0.246,0,0.492,0,0.737,0C14.446,6.133,14.453,6.135,14.461,6.135z"/>
	<path fill="#00F8FF" d="M19.029,4.805c-0.041,0.014-0.083,0.016-0.126,0.015c-0.032-0.001-0.065-0.001-0.097,0.01
		c-0.018,0.006-0.04,0.004-0.06,0.005c-0.078,0-0.156,0-0.233,0c-0.04,0-0.08-0.003-0.119,0.011c-0.018,0.006-0.04,0.003-0.06,0.003
		c-0.073,0-0.145,0-0.218,0c-0.05,0-0.1-0.005-0.149,0.012c-0.016,0.006-0.035,0.002-0.052,0.002c-0.073,0-0.145,0-0.218,0
		c-0.045,0-0.09-0.004-0.134,0.012c-0.016,0.006-0.035,0.003-0.052,0.003c-0.078,0-0.156,0-0.233,0c-0.04,0-0.08-0.005-0.119,0.012
		c-0.007,0.003-0.015,0.002-0.022,0.002c-0.12,0-0.241,0-0.361,0c-0.029,0-0.029-0.002-0.037-0.043c0,0,0.001-0.001,0.001-0.001
		c0.004-0.006,0.009-0.01,0.014-0.014l0.001-0.001c0.004-0.005,0.009-0.01,0.014-0.014l0.001-0.001
		c0.004-0.005,0.009-0.01,0.014-0.014l0.001-0.001c0.004-0.005,0.009-0.01,0.014-0.014L16.8,4.791
		c0.004-0.006,0.008-0.01,0.014-0.013l0.002-0.002c0.002-0.006,0.007-0.009,0.012-0.011c0.082-0.08,0.178-0.137,0.28-0.186
		c0.153-0.073,0.314-0.115,0.482-0.136c0.202-0.025,0.405-0.02,0.607-0.003c0.275,0.023,0.547,0.064,0.818,0.11
		c0.005,0.001,0.01,0.001,0.015,0.002c0.017,0.003,0.028,0.013,0.025,0.03C19.045,4.656,19.048,4.732,19.029,4.805z"/>
	<path fill="#0041FF" d="M14.976,7.231c0.058,0,0.115,0,0.173,0c0.037,0,0.075,0.002,0.111-0.011c0.018-0.007,0.04-0.004,0.06-0.004
		c0.078,0,0.155,0,0.233,0c0.045,0,0.089,0.001,0.134-0.011c0.03-0.009,0.065-0.003,0.097-0.004
		c0.023-0.001,0.032-0.009,0.033-0.032c0.002-0.025,0.002-0.05,0.002-0.075c0.011,0.015,0.011,0.033,0.011,0.05
		c0.009,0.172,0.006,0.344-0.028,0.514c-0.005,0.024-0.012,0.048-0.018,0.072c-0.006,0.01-0.005,0.023-0.01,0.033
		c-0.002,0.009-0.003,0.018-0.005,0.026c-0.04,0-0.08,0-0.12,0c-0.013,0-0.026-0.002-0.038,0.001
		c-0.106,0.027-0.215,0.01-0.322,0.014c-0.052,0.002-0.105-0.005-0.157,0.013c-0.016,0.005-0.035,0.002-0.052,0.002
		c-0.08,0-0.161,0-0.241,0c-0.035,0-0.07-0.002-0.104,0.011c-0.018,0.007-0.04,0.004-0.06,0.004c-0.08,0-0.161,0-0.241,0
		c-0.042,0-0.085-0.003-0.127,0.012c-0.016,0.006-0.035,0.003-0.052,0.003c-0.078,0-0.156,0-0.233,0c-0.04,0-0.08-0.003-0.119,0.011
		c-0.018,0.007-0.04,0.003-0.06,0.003c-0.078,0-0.156,0-0.233,0c-0.037,0-0.074,0.005-0.111,0.01
		c-0.067,0.008-0.135,0.004-0.203,0.002c-0.028-0.001-0.022-0.029-0.027-0.047c-0.002-0.024-0.001-0.048,0.006-0.072
		c0.005-0.026,0.015-0.045,0.047-0.031c0.034-0.002,0.068-0.001,0.102,0.006c0.025,0.009,0.053-0.002,0.078,0.009
		c0.034-0.003,0.069-0.001,0.102,0.006c0.03,0.01,0.063-0.003,0.093,0.009c0.034-0.004,0.068-0.001,0.102,0.005
		c0.041,0.013,0.084-0.004,0.124,0.01c0.039-0.004,0.078-0.002,0.117,0.004c0.071,0.015,0.144-0.005,0.215,0.011
		c0.067,0,0.134,0,0.201,0c0.025-0.012,0.054,0.001,0.08-0.011c0.013-0.002,0.027-0.003,0.04-0.005
		c0.011-0.004,0.024-0.004,0.035-0.01c0.009-0.002,0.018-0.003,0.026-0.005c0.006-0.003,0.013-0.005,0.019-0.008
		c0.009-0.002,0.018-0.004,0.027-0.007c0.006-0.003,0.013-0.006,0.018-0.01c0.005-0.001,0.01-0.003,0.015-0.004
		c0.004-0.004,0.009-0.007,0.015-0.009c0.005-0.002,0.011-0.004,0.016-0.006c0.004-0.004,0.009-0.007,0.014-0.01
		c0.005-0.002,0.009-0.004,0.014-0.006c0.006-0.003,0.011-0.007,0.016-0.011c0.013-0.014,0.027-0.027,0.045-0.034
		c0.005-0.004,0.011-0.009,0.015-0.015l0,0c0.005-0.004,0.01-0.009,0.015-0.015l0,0c0.006-0.004,0.011-0.01,0.014-0.016
		c0.034-0.055,0.066-0.111,0.079-0.175c0.008-0.039,0.013-0.078,0.013-0.118C14.976,7.285,14.976,7.258,14.976,7.231z"/>
	<path fill="#0051FF" d="M19.148,7.622c-0.035,0-0.07,0-0.105,0c-0.013,0-0.026-0.002-0.037,0.001
		c-0.124,0.028-0.249,0.009-0.374,0.014c-0.032,0.001-0.065-0.002-0.096,0.011c-0.013,0.005-0.03,0.004-0.044,0.004
		c-0.068,0-0.135-0.001-0.203,0.001c-0.028,0.001-0.054-0.005-0.08-0.018c-0.001-0.006-0.001-0.011,0.001-0.017
		c0.003-0.005,0.006-0.01,0.009-0.015c0.002-0.002,0.003-0.005,0.005-0.007c0.003-0.005,0.006-0.011,0.008-0.016
		c0.002-0.006,0.005-0.012,0.007-0.018c0.003-0.01,0.006-0.02,0.009-0.03c0.081-0.185,0.085-0.372,0.018-0.561
		c-0.008-0.023-0.02-0.047-0.006-0.072c0.106-0.025,0.214-0.012,0.321-0.015c0.045-0.001,0.09,0.003,0.134-0.012
		c0.018-0.006,0.04-0.003,0.06-0.003c0.09,0,0.18,0,0.27,0c0.038,0,0.074-0.005,0.104-0.032c0.021,0.033,0.019,0.072,0.023,0.109
		c0.028,0.212,0.025,0.423-0.013,0.633C19.158,7.594,19.152,7.608,19.148,7.622z"/>
	<path fill="#0054FF" d="M17.356,7.639c-0.002,0.01-0.004,0.023-0.015,0.024c-0.044,0.004-0.086,0.022-0.132,0.02
		c-0.077-0.003-0.155-0.001-0.232-0.001c-0.04,0-0.079-0.003-0.119,0.012c-0.018,0.006-0.04,0.003-0.059,0.003
		c-0.115,0-0.23,0-0.345,0c-0.036-0.064-0.054-0.134-0.074-0.203c-0.056-0.19-0.086-0.384-0.105-0.58
		c-0.002-0.025-0.001-0.05-0.001-0.075c0.018,0.015,0.012,0.037,0.014,0.056c0.004,0.045,0.005,0.048,0.048,0.049
		c0.04,0.001,0.08,0,0.12,0c0.052,0,0.105,0,0.157,0c0.037,0,0.074,0.002,0.111-0.011c0.018-0.007,0.039-0.004,0.059-0.004
		c0.075,0,0.15,0,0.225,0c0.017,0,0.035,0,0.052-0.004c0.029-0.006,0.04-0.022,0.041-0.053c0.001-0.02,0-0.04,0-0.06
		c0-0.013,0.003-0.025,0.014-0.033c0.024,0.021,0.021,0.05,0.022,0.077c0.005,0.268,0.06,0.522,0.215,0.748
		c0.004,0.008,0.006,0.015,0.006,0.024C17.356,7.631,17.356,7.635,17.356,7.639z"/>
	<path fill="#00B3FF" d="M15.654,6.011c-0.09,0-0.181,0-0.271,0c-0.047,0-0.095-0.004-0.141,0.012
		c-0.016,0.006-0.035,0.003-0.052,0.003c-0.075,0-0.15,0-0.226,0c-0.042,0-0.084-0.001-0.126,0.011
		c-0.025,0.008-0.055,0.003-0.082,0.001c-0.014-0.001-0.018-0.015-0.021-0.028c0,0,0,0,0,0c0.006-0.004,0.01-0.01,0.015-0.015l0,0
		c0.005-0.005,0.01-0.01,0.015-0.015l0,0c0.005-0.005,0.011-0.01,0.015-0.016l0,0c0.006-0.005,0.012-0.009,0.014-0.017l-0.001,0.001
		c0.009-0.004,0.015-0.01,0.015-0.02c0-0.005,0.002-0.008,0.006-0.009c0.003-0.005,0.007-0.01,0.011-0.015l0,0
		c0.007-0.005,0.013-0.011,0.013-0.02c0.007-0.016,0.013-0.032,0.021-0.047c0.085-0.163,0.044-0.377-0.072-0.483
		c-0.005-0.005-0.008-0.012-0.013-0.018c0.007,0,0.016-0.003,0.022-0.001c0.073,0.022,0.15,0.021,0.222,0.011
		c0.137-0.02,0.273-0.008,0.41-0.013c0.01,0,0.021,0.002,0.03-0.001c0.063-0.021,0.128-0.014,0.193-0.013
		c0.033,0.001,0.063-0.012,0.095-0.016c0.003,0.009,0.009,0.018,0.009,0.028c0.009,0.143,0.016,0.286-0.011,0.428
		C15.727,5.846,15.704,5.933,15.654,6.011z"/>
	<path fill="#00B9FF" d="M16.42,5.402c0.011,0.05,0.011,0.05,0.055,0.051c0.03,0,0.06,0.003,0.089-0.009
		c0.021-0.009,0.044-0.006,0.067-0.006c0.067,0,0.135,0,0.202,0c0.052-0.001,0.105,0.006,0.155-0.013
		c0.009-0.003,0.02-0.002,0.03-0.002c0.1,0,0.199,0.001,0.299,0.002c-0.018,0.027-0.036,0.054-0.053,0.081
		c-0.061,0.099-0.096,0.207-0.118,0.321c-0.018,0.091-0.022,0.183-0.031,0.274c-0.073,0.028-0.15,0.034-0.227,0.031
		c-0.052-0.002-0.105-0.001-0.157,0c-0.037,0-0.075-0.004-0.111,0.012c-0.009,0.004-0.02,0.003-0.03,0.003
		c-0.087,0-0.175,0.001-0.262,0c-0.033,0-0.038-0.007-0.04-0.041c-0.001-0.017-0.002-0.035-0.003-0.052
		c-0.002-0.091,0.018-0.179,0.032-0.268c0.019-0.114,0.046-0.226,0.082-0.335C16.404,5.433,16.405,5.414,16.42,5.402z"/>
	<path fill="#001EFF" d="M14.257,7.786c-0.058,0.001-0.115,0.001-0.173,0.002c-0.015,0-0.03,0-0.042-0.012
		C14.114,7.775,14.186,7.77,14.257,7.786z"/>
	<path fill="#001EFF" d="M13.925,7.771c-0.03,0.001-0.06,0.001-0.09,0.002c-0.013,0-0.025-0.002-0.034-0.012
		C13.843,7.759,13.885,7.755,13.925,7.771z"/>
	<path fill="#001EFF" d="M13.699,7.756c-0.031-0.001-0.064,0.011-0.093-0.009C13.637,7.744,13.669,7.741,13.699,7.756z"/>
	<path fill="#001EFF" d="M13.323,7.726C13.3,7.724,13.29,7.742,13.277,7.757C13.278,7.715,13.282,7.712,13.323,7.726z"/>
	<path fill="#001EFF" d="M13.503,7.741c-0.026,0-0.054,0.01-0.078-0.009C13.452,7.729,13.478,7.727,13.503,7.741z"/>
	<path fill="#001EFF" d="M14.538,7.775c-0.024,0.021-0.053,0.01-0.08,0.011C14.483,7.772,14.511,7.774,14.538,7.775z"/>
	<path fill="#00B3FF" d="M15.743,5.272c-0.021-0.018-0.014-0.042-0.012-0.064C15.745,5.227,15.745,5.25,15.743,5.272z"/>
	<path fill="#0098FF" d="M10.486,4.837c0,0.012-0.004,0.023-0.016,0.028C10.47,4.853,10.476,4.844,10.486,4.837z"/>
	<path fill="#0098FF" d="M10.591,4.656c0,0.013-0.004,0.023-0.016,0.029C10.575,4.672,10.58,4.662,10.591,4.656z"/>
	<path fill="#00B8FF" d="M11.676,2.773c0.001,0.013-0.004,0.023-0.016,0.029C11.66,2.789,11.665,2.779,11.676,2.773z"/>
	<path fill="#0098FF" d="M10.712,4.446c0,0.012-0.004,0.022-0.016,0.028C10.696,4.461,10.702,4.452,10.712,4.446z"/>
	<path fill="#00B9FF" d="M16.435,5.359c0.002,0.014,0.001,0.026-0.013,0.034C16.421,5.379,16.424,5.367,16.435,5.359z"/>
	<path fill="#00B9FF" d="M16.451,5.316c0.001,0.013-0.001,0.024-0.013,0.031C16.437,5.334,16.441,5.324,16.451,5.316z"/>
	<path fill="#00B9FF" d="M16.482,5.243c0,0.012-0.002,0.022-0.013,0.029C16.468,5.259,16.473,5.25,16.482,5.243z"/>
	<path fill="#00B9FF" d="M16.497,5.212c0.001,0.013-0.002,0.023-0.014,0.03C16.482,5.229,16.486,5.219,16.497,5.212z"/>
	<path fill="#00B9FF" d="M16.512,5.182c0.001,0.013-0.002,0.024-0.015,0.03C16.496,5.199,16.501,5.189,16.512,5.182z"/>
	<path fill="#001EFF" d="M15.775,7.761c-0.001-0.012-0.001-0.024,0.01-0.033C15.787,7.741,15.785,7.753,15.775,7.761z"/>
	<path fill="#0098FF" d="M10.652,4.551c0,0.012-0.004,0.023-0.016,0.028C10.635,4.566,10.641,4.557,10.652,4.551z"/>
	<path fill="#001EFF" d="M14.613,7.761c-0.009,0.012-0.022,0.012-0.035,0.01C14.588,7.76,14.6,7.759,14.613,7.761z"/>
	<path fill="#0098FF" d="M11.766,4.91c0-0.013,0.004-0.024,0.017-0.029C11.782,4.894,11.777,4.904,11.766,4.91z"/>
	<path fill="#0098FF" d="M10.426,4.942c0,0.013-0.004,0.023-0.016,0.029C10.409,4.958,10.415,4.949,10.426,4.942z"/>
	<path fill="#0098FF" d="M10.575,4.684c-0.003,0.005-0.007,0.01-0.01,0.016C10.564,4.691,10.568,4.686,10.575,4.684z"/>
	<path fill="#0098FF" d="M10.559,4.711c0,0.008-0.004,0.014-0.011,0.018C10.547,4.721,10.551,4.715,10.559,4.711z"/>
	<path fill="#0098FF" d="M10.543,4.739c0,0.01-0.004,0.017-0.012,0.021C10.531,4.751,10.535,4.743,10.543,4.739z"/>
	<path fill="#0098FF" d="M10.531,4.761c-0.003,0.005-0.007,0.009-0.01,0.014C10.52,4.767,10.524,4.763,10.531,4.761z"/>
	<path fill="#00D6FF" d="M16.828,4.765c-0.004,0.004-0.008,0.008-0.012,0.011C16.817,4.769,16.821,4.764,16.828,4.765z"/>
	<path fill="#00D6FF" d="M16.814,4.777c-0.005,0.004-0.01,0.009-0.014,0.013C16.801,4.782,16.806,4.778,16.814,4.777z"/>
	<path fill="#0098FF" d="M10.515,4.788c-0.004,0.006-0.007,0.011-0.011,0.017C10.503,4.796,10.507,4.791,10.515,4.788z"/>
	<path fill="#0098FF" d="M11.826,4.805c0.003-0.005,0.007-0.01,0.01-0.014C11.837,4.799,11.833,4.803,11.826,4.805z"/>
	<path fill="#00D6FF" d="M16.799,4.792c-0.005,0.005-0.01,0.009-0.014,0.014C16.786,4.797,16.79,4.792,16.799,4.792z"/>
	<path fill="#0098FF" d="M11.814,4.827c0-0.01,0.004-0.017,0.013-0.022C11.826,4.815,11.823,4.822,11.814,4.827z"/>
	<path fill="#00D6FF" d="M16.784,4.807c-0.005,0.005-0.01,0.009-0.014,0.014C16.77,4.812,16.775,4.807,16.784,4.807z"/>
	<path fill="#0098FF" d="M10.499,4.816c0,0.009-0.004,0.015-0.012,0.02C10.486,4.827,10.49,4.82,10.499,4.816z"/>
	<path fill="#00D6FF" d="M16.769,4.822c-0.005,0.005-0.009,0.01-0.014,0.014C16.755,4.827,16.76,4.822,16.769,4.822z"/>
	<path fill="#0098FF" d="M11.798,4.855c0-0.008,0.004-0.015,0.011-0.019C11.81,4.845,11.806,4.851,11.798,4.855z"/>
	<path fill="#00D6FF" d="M16.754,4.837c-0.005,0.005-0.009,0.01-0.014,0.014C16.74,4.842,16.745,4.838,16.754,4.837z"/>
	<path fill="#0098FF" d="M10.47,4.865c-0.003,0.005-0.007,0.01-0.01,0.015C10.459,4.872,10.463,4.868,10.47,4.865z"/>
	<path fill="#0098FF" d="M11.782,4.882c0.004-0.005,0.007-0.011,0.011-0.016C11.793,4.874,11.79,4.879,11.782,4.882z"/>
	<path fill="#0098FF" d="M10.454,4.893c0,0.008-0.004,0.014-0.011,0.017C10.443,4.902,10.446,4.896,10.454,4.893z"/>
	<path fill="#008EFF" d="M14.837,5.884c0,0.01-0.004,0.016-0.013,0.02C14.825,5.895,14.829,5.888,14.837,5.884z"/>
	<path fill="#008EFF" d="M14.824,5.904c-0.004,0.005-0.007,0.01-0.011,0.015C14.813,5.911,14.817,5.907,14.824,5.904z"/>
	<path fill="#008EFF" d="M14.807,5.929c0,0.01-0.005,0.017-0.015,0.02C14.793,5.939,14.798,5.932,14.807,5.929z"/>
	<path fill="#008EFF" d="M14.793,5.948c-0.001,0.009-0.006,0.014-0.014,0.017C14.78,5.956,14.784,5.95,14.793,5.948z"/>
	<path fill="#008EFF" d="M14.779,5.965c-0.005,0.005-0.01,0.01-0.015,0.016C14.766,5.972,14.771,5.967,14.779,5.965z"/>
	<path fill="#008EFF" d="M14.764,5.98c-0.005,0.005-0.01,0.01-0.015,0.015C14.751,5.987,14.756,5.982,14.764,5.98z"/>
	<path fill="#008EFF" d="M14.749,5.995C14.744,6,14.739,6.005,14.734,6.01C14.736,6.002,14.741,5.997,14.749,5.995z"/>
	<path fill="#0068FF" d="M15.351,6.417c-0.004-0.003-0.009-0.006-0.013-0.009C15.345,6.407,15.349,6.411,15.351,6.417z"/>
	<path fill="#0068FF" d="M15.373,6.43c-0.009,0-0.016-0.004-0.02-0.012C15.362,6.418,15.368,6.421,15.373,6.43z"/>
	<path fill="#0068FF" d="M15.4,6.446c-0.008,0-0.014-0.004-0.017-0.011C15.391,6.434,15.397,6.438,15.4,6.446z"/>
	<path fill="#0068FF" d="M15.427,6.462c-0.004-0.003-0.009-0.007-0.013-0.01C15.421,6.452,15.425,6.456,15.427,6.462z"/>
	<path fill="#0068FF" d="M15.447,6.476c-0.009-0.001-0.015-0.005-0.019-0.013C15.437,6.463,15.443,6.467,15.447,6.476z"/>
	<path fill="#0068FF" d="M15.472,6.493c-0.005-0.004-0.009-0.007-0.014-0.011C15.466,6.481,15.47,6.486,15.472,6.493z"/>
	<path fill="#0068FF" d="M15.491,6.506c-0.009-0.001-0.015-0.005-0.019-0.013C15.482,6.493,15.488,6.498,15.491,6.506z"/>
	<path fill="#0068FF" d="M15.515,6.523c-0.004-0.003-0.007-0.007-0.011-0.01C15.51,6.513,15.514,6.517,15.515,6.523z"/>
	<path fill="#0068FF" d="M15.533,6.538c-0.005-0.004-0.01-0.008-0.015-0.012C15.526,6.525,15.531,6.53,15.533,6.538z"/>
	<path fill="#0068FF" d="M15.55,6.552c-0.006-0.005-0.011-0.009-0.017-0.014C15.542,6.539,15.547,6.543,15.55,6.552z"/>
	<path fill="#0068FF" d="M15.566,6.566c-0.009-0.001-0.015-0.006-0.017-0.015C15.558,6.552,15.564,6.557,15.566,6.566z"/>
	<path fill="#00C3FF" d="M20.2,2.184c-0.007-0.003-0.011-0.009-0.011-0.016C20.197,2.17,20.201,2.176,20.2,2.184z"/>
	<path fill="#00B9FF" d="M16.465,5.283c0,0.008-0.003,0.014-0.01,0.019C16.455,5.293,16.457,5.287,16.465,5.283z"/>
	<path fill="#00C3FF" d="M20.217,2.214c-0.008-0.004-0.012-0.01-0.011-0.019C20.214,2.199,20.218,2.205,20.217,2.214z"/>
	<path fill="#00C3FF" d="M20.234,2.245c-0.009-0.005-0.013-0.012-0.012-0.022C20.23,2.227,20.234,2.235,20.234,2.245z"/>
	<path fill="#00B8FF" d="M11.705,2.724c0.001,0.008-0.003,0.014-0.011,0.018C11.693,2.733,11.697,2.727,11.705,2.724z"/>
	<path fill="#001EFF" d="M14.884,7.606c-0.005,0.005-0.01,0.01-0.014,0.016C14.871,7.614,14.876,7.608,14.884,7.606z"/>
	<path fill="#001EFF" d="M14.869,7.622c-0.005,0.005-0.01,0.01-0.015,0.015C14.856,7.629,14.861,7.624,14.869,7.622z"/>
	<path fill="#00B8FF" d="M11.689,2.752c0,0.009-0.004,0.016-0.012,0.02C11.676,2.763,11.68,2.756,11.689,2.752z"/>
	<path fill="#001EFF" d="M14.854,7.637c-0.005,0.005-0.01,0.01-0.015,0.015C14.841,7.644,14.846,7.639,14.854,7.637z"/>
	<path fill="#00B8FF" d="M11.66,2.801c0,0.008-0.003,0.013-0.011,0.016C11.649,2.808,11.652,2.803,11.66,2.801z"/>
	<path fill="#001EFF" d="M14.794,7.686c-0.006,0.004-0.011,0.007-0.017,0.011C14.78,7.689,14.786,7.685,14.794,7.686z"/>
	<path fill="#001EFF" d="M14.763,7.703c-0.005,0.003-0.009,0.006-0.014,0.01C14.754,7.709,14.759,7.706,14.763,7.703z"/>
	<path fill="#001EFF" d="M14.733,7.718c-0.005,0.003-0.01,0.006-0.015,0.009C14.723,7.724,14.728,7.721,14.733,7.718z"/>
	<path fill="#001EFF" d="M14.703,7.732c-0.006,0.003-0.012,0.006-0.018,0.01C14.689,7.734,14.695,7.731,14.703,7.732z"/>
	<path fill="#001EFF" d="M14.658,7.748c-0.006,0.003-0.012,0.006-0.019,0.008C14.644,7.749,14.65,7.746,14.658,7.748z"/>
	<path fill="#0098FF" d="M10.757,4.369c-0.003,0.005-0.006,0.009-0.01,0.014C10.746,4.375,10.75,4.371,10.757,4.369z"/>
	<path fill="#0098FF" d="M10.74,4.397c-0.003,0.005-0.007,0.011-0.01,0.016C10.729,4.405,10.733,4.4,10.74,4.397z"/>
	<path fill="#0098FF" d="M10.724,4.425c0,0.009-0.004,0.015-0.012,0.019C10.713,4.435,10.716,4.428,10.724,4.425z"/>
	<path fill="#0098FF" d="M10.696,4.474c-0.003,0.005-0.007,0.01-0.01,0.014C10.685,4.481,10.689,4.476,10.696,4.474z"/>
	<path fill="#0098FF" d="M10.68,4.501c0,0.008-0.004,0.013-0.011,0.017C10.669,4.51,10.672,4.505,10.68,4.501z"/>
	<path fill="#0098FF" d="M10.664,4.529c0,0.009-0.004,0.016-0.012,0.02C10.652,4.54,10.656,4.533,10.664,4.529z"/>
	<path fill="#0098FF" d="M10.636,4.579c-0.003,0.005-0.007,0.01-0.01,0.015C10.625,4.586,10.628,4.581,10.636,4.579z"/>
	<path fill="#0098FF" d="M10.62,4.606c0,0.008-0.004,0.014-0.011,0.018C10.608,4.616,10.612,4.61,10.62,4.606z"/>
	<path fill="#0098FF" d="M11.738,4.958c0-0.008,0.004-0.014,0.011-0.017C11.749,4.95,11.746,4.956,11.738,4.958z"/>
	<path fill="#0098FF" d="M10.604,4.634c0,0.009-0.004,0.016-0.012,0.021C10.591,4.645,10.595,4.638,10.604,4.634z"/>
	<path fill="#0098FF" d="M10.438,4.921c0,0.009-0.004,0.016-0.012,0.02C10.426,4.932,10.43,4.925,10.438,4.921z"/>
	<path fill="#0098FF" d="M11.753,4.932c0-0.009,0.004-0.016,0.012-0.021C11.766,4.92,11.762,4.927,11.753,4.932z"/>
	<path d="M21.734,10.892c0.006-0.035,0.022-0.055,0.033-0.076c0.19-0.345,0.38-0.69,0.569-1.035
		c0.507-0.923,1.015-1.846,1.522-2.769c0.089-0.163,0.177-0.326,0.268-0.488c0.021-0.037,0.022-0.065,0.004-0.103
		c-0.291-0.614-0.58-1.229-0.87-1.844c-0.466-0.989-0.931-1.978-1.397-2.967c-0.01-0.022-0.02-0.045-0.031-0.07
		c0.028-0.011,0.053-0.003,0.076-0.003c0.025,0,0.05,0.002,0.075,0.005c0.175,0.014,0.35,0.028,0.525,0.043
		c0.213,0.018,0.425,0.036,0.638,0.053c0.148,0.012,0.295,0.023,0.443,0.035c0.145,0.011,0.29,0.023,0.435,0.034
		c0.015,0.001,0.03,0.004,0.045,0.006c0.016,0.002,0.028,0.009,0.035,0.024c0.007,0.016,0.015,0.032,0.023,0.047
		c0.381,0.771,0.761,1.542,1.142,2.314c0.344,0.697,0.687,1.394,1.031,2.091c0.002,0.005,0.003,0.01,0.006,0.014
		c0.031,0.039,0.021,0.076-0.001,0.117c-0.038,0.071-0.071,0.144-0.108,0.215c-0.53,1.033-1.06,2.066-1.59,3.099
		c-0.188,0.366-0.375,0.732-0.562,1.098c-0.007,0.013-0.015,0.026-0.02,0.04c-0.012,0.029-0.032,0.039-0.064,0.04
		c-0.141,0.003-0.281,0.01-0.421,0.015c-0.201,0.007-0.401,0.013-0.602,0.021c-0.336,0.012-0.672,0.026-1.008,0.038
		C21.867,10.888,21.804,10.89,21.734,10.892z"/>
	<path d="M24.966,2.183c0.028-0.004,0.045,0.018,0.066,0.031c0.305,0.19,0.609,0.38,0.913,0.57c0.704,0.44,1.409,0.88,2.113,1.321
		c1.291,0.808,2.582,1.617,3.872,2.425c0.017,0.011,0.034,0.021,0.05,0.033c0.015,0.01,0.014,0.026-0.001,0.037
		c-0.014,0.01-0.029,0.02-0.044,0.029c-0.13,0.085-0.261,0.169-0.392,0.254c-1.431,0.929-2.862,1.859-4.293,2.788
		c-0.772,0.502-1.544,1.004-2.316,1.506c-0.022,0.015-0.046,0.028-0.071,0.044c-0.008-0.027,0.008-0.042,0.016-0.059
		c0.11-0.231,0.221-0.461,0.332-0.692c0.558-1.162,1.117-2.323,1.675-3.485c0.056-0.118,0.113-0.235,0.168-0.353
		c0.027-0.058,0.028-0.037,0-0.097c-0.136-0.283-0.272-0.565-0.409-0.847c-0.237-0.49-0.474-0.98-0.71-1.47
		c-0.316-0.655-0.631-1.31-0.946-1.966c-0.01-0.022-0.03-0.041-0.024-0.069L24.966,2.183z"/>
	<polygon points="24.964,2.185 24.954,2.18 24.961,2.173 24.966,2.183 	"/>
	<path fill="#666666" d="M9.657,2.322c0.006,0.014,0,0.024-0.006,0.035c-0.163,0.297-0.326,0.593-0.49,0.89
		C9.007,3.526,8.853,3.805,8.699,4.084C8.563,4.332,8.426,4.581,8.29,4.829C8.197,4.999,8.105,5.168,8.012,5.338
		C7.888,5.562,7.764,5.785,7.64,6.009C7.615,6.056,7.589,6.102,7.565,6.149C7.55,6.18,7.527,6.189,7.493,6.189
		c-0.193-0.001-0.387,0-0.58,0.001c-0.11,0-0.221,0-0.331,0c-0.012,0-0.025,0.002-0.036-0.007c-0.007-0.016,0.003-0.029,0.01-0.042
		c0.126-0.245,0.253-0.491,0.379-0.736c0.007-0.013,0.014-0.026,0.021-0.04c0.158-0.308,0.315-0.617,0.473-0.925
		C7.564,4.177,7.698,3.913,7.833,3.65c0.191-0.373,0.383-0.746,0.574-1.118C8.433,2.483,8.46,2.434,8.485,2.385
		C8.496,2.363,8.511,2.35,8.538,2.352c0.015,0.001,0.03,0,0.045,0C8.791,2.345,8.999,2.343,9.207,2.33
		c0.13-0.008,0.261-0.008,0.391-0.013C9.618,2.317,9.638,2.313,9.657,2.322z"/>
	<path fill="#0090FF" d="M8.029,9.731c-0.021-0.04-0.042-0.08-0.062-0.12C7.889,9.455,7.812,9.297,7.734,9.14
		C7.725,9.122,7.713,9.106,7.712,9.085C7.724,9.03,7.719,8.975,7.719,8.92c0.001-0.679,0-1.359,0.001-2.038
		c0-0.062-0.008-0.126,0.039-0.179C7.797,6.762,7.821,6.827,7.851,6.89c0.075,0.157,0.148,0.315,0.222,0.473
		C8.079,7.378,8.084,7.395,8.09,7.411c0.008,0.052,0.009,0.105,0.009,0.157c0,0.672,0,1.343,0,2.015
		c0,0.042,0.006,0.086-0.012,0.126C8.077,9.732,8.065,9.77,8.029,9.731z"/>
	<path fill="#00A6FF" d="M7.758,6.704c0,0.01,0.002,0.021-0.001,0.03C7.739,6.789,7.743,6.847,7.743,6.904c0,0.688,0,1.377,0,2.065
		c0,0.023,0,0.045,0,0.068c0,0.022-0.012,0.037-0.031,0.047l0,0C7.709,9.08,7.705,9.074,7.702,9.069
		C7.701,9.064,7.699,9.06,7.697,9.055C7.694,9.05,7.69,9.045,7.687,9.039c-0.051-0.1-0.102-0.201-0.152-0.301
		C7.477,8.621,7.42,8.504,7.363,8.387C7.352,8.365,7.337,8.344,7.334,8.319c0.014-0.044,0.008-0.09,0.008-0.135
		c0.001-0.457,0.001-0.914,0-1.37c0-0.115-0.002-0.116-0.119-0.117c-0.103,0-0.206,0.002-0.309-0.001
		C6.883,6.695,6.842,6.707,6.826,6.661C6.843,6.66,6.861,6.658,6.878,6.658c0.258-0.001,0.516-0.001,0.774-0.002
		c0.018,0,0.035,0.001,0.053,0C7.74,6.653,7.754,6.672,7.758,6.704z"/>
	<path fill="#007AFF" d="M8.029,9.731C8.04,9.734,8.053,9.743,8.061,9.727c0.008-0.016,0.014-0.032,0.013-0.05
		c-0.001-0.02,0-0.04,0-0.06c0-0.701,0-1.402,0-2.103c0-0.035-0.005-0.07,0.015-0.102c0.007,0.01,0.014,0.02,0.019,0.031
		c0.095,0.2,0.189,0.401,0.283,0.602c0.006,0.013,0.01,0.028,0.015,0.042c0.014,0.059,0.008,0.119,0.008,0.179c0,0.667,0,1.333,0,2
		c0,0.035,0.003,0.071-0.005,0.105c-0.005,0.023-0.01,0.053-0.047,0.039c-0.004-0.002-0.005-0.005-0.004-0.009
		c-0.001-0.008-0.006-0.014-0.011-0.02c-0.004-0.002-0.005-0.006-0.004-0.01c-0.001-0.008-0.006-0.014-0.011-0.02
		c-0.005-0.008-0.012-0.016-0.016-0.025c-0.092-0.186-0.184-0.372-0.276-0.558C8.036,9.755,8.033,9.743,8.029,9.731z"/>
	<path fill="#0065FF" d="M8.363,10.409c0.013-0.003,0.025-0.008,0.026-0.022c0.002-0.025,0.002-0.05,0.002-0.075c0-0.7,0-1.4,0-2.1
		c0-0.043,0.004-0.085,0.017-0.126c0.007,0.01,0.014,0.02,0.02,0.031c0.105,0.223,0.21,0.447,0.315,0.67
		c0.005,0.011,0.008,0.023,0.012,0.035c0.016,0.062,0.007,0.124,0.007,0.186c0.001,0.475,0.001,0.95,0,1.425
		c0,0.044,0.01,0.091-0.025,0.129c-0.095,0.002-0.189-0.013-0.284-0.018c-0.02-0.001-0.033-0.01-0.041-0.027
		C8.396,10.481,8.379,10.445,8.363,10.409z"/>
	<path fill="#00C3FF" d="M6.826,6.661C6.845,6.679,6.868,6.673,6.89,6.673c0.133,0.001,0.266,0,0.398,0.001
		c0.077,0,0.078,0.001,0.078,0.079c0,0.491,0,0.982,0,1.473c0,0.013-0.001,0.025,0,0.038c0.001,0.025-0.011,0.043-0.033,0.055
		c0,0,0,0,0,0c0-0.008-0.007-0.012-0.01-0.018C7.32,8.298,7.318,8.294,7.32,8.289C7.318,8.282,7.313,8.277,7.309,8.27
		C7.305,8.268,7.303,8.264,7.305,8.259C7.303,8.252,7.298,8.246,7.294,8.24C7.29,8.238,7.288,8.234,7.29,8.229
		C7.288,8.222,7.283,8.216,7.279,8.21c-0.02-0.038-0.041-0.075-0.06-0.113C7.037,7.729,6.855,7.36,6.673,6.991
		c-0.044-0.09-0.088-0.18-0.132-0.27C6.537,6.712,6.532,6.703,6.528,6.694C6.518,6.669,6.522,6.66,6.547,6.66
		C6.64,6.66,6.733,6.661,6.826,6.661z"/>
	<path fill="#004AFF" d="M8.737,10.563c0-0.503,0-1.006,0.001-1.51c0-0.077-0.006-0.155,0.017-0.231
		C8.762,8.835,8.771,8.847,8.778,8.86C8.897,9.113,9.016,9.366,9.135,9.62C9.14,9.631,9.143,9.643,9.147,9.655
		c-0.018,0.277-0.004,0.554-0.01,0.831c-0.001,0.037,0.019,0.088-0.04,0.105c-0.049-0.002-0.098-0.003-0.148-0.006
		c-0.057-0.003-0.113-0.009-0.169-0.014C8.765,10.571,8.75,10.571,8.737,10.563z"/>
	<path fill="#0030FF" d="M9.097,10.591c0.011-0.008,0.017-0.018,0.017-0.032c0-0.02,0.001-0.04,0.001-0.06c0-0.242,0-0.485,0-0.727
		c0-0.043,0-0.085,0.033-0.118c0.005,0.008,0.012,0.016,0.016,0.025c0.141,0.3,0.281,0.599,0.422,0.899
		c0.007,0.016,0.014,0.031,0.023,0.051c-0.037,0.011-0.069,0.004-0.1,0.002c-0.118-0.009-0.235-0.019-0.352-0.028
		C9.135,10.601,9.115,10.603,9.097,10.591z"/>
	<path fill="#00A6FF" d="M7.279,8.21c0.003,0.006,0.007,0.012,0.01,0.019C7.282,8.225,7.279,8.219,7.279,8.21z"/>
	<path fill="#00A6FF" d="M7.294,8.24c0.007,0.004,0.011,0.011,0.011,0.019C7.297,8.255,7.293,8.249,7.294,8.24z"/>
	<path fill="#00A6FF" d="M7.309,8.27C7.316,8.275,7.32,8.281,7.32,8.289C7.312,8.285,7.308,8.279,7.309,8.27z"/>
	<path fill="#00A6FF" d="M7.324,8.3c0.007,0.004,0.011,0.01,0.01,0.018C7.326,8.315,7.323,8.309,7.324,8.3z"/>
	<path fill="#0090FF" d="M7.687,9.039c0.003,0.006,0.007,0.011,0.01,0.017C7.69,9.052,7.686,9.047,7.687,9.039z"/>
	<path fill="#0090FF" d="M7.702,9.069c0.003,0.005,0.007,0.011,0.01,0.016C7.705,9.082,7.702,9.077,7.702,9.069z"/>
	<path fill="#0065FF" d="M8.333,10.349c0.007,0.005,0.011,0.011,0.011,0.02C8.336,10.365,8.333,10.358,8.333,10.349z"/>
	<path fill="#0065FF" d="M8.348,10.379c0.007,0.005,0.011,0.011,0.011,0.02C8.351,10.395,8.348,10.388,8.348,10.379z"/>
	<path fill="#007CFF" d="M4.997,7.788c0.002,0.005,0.004,0.01,0.006,0.015C4.982,7.85,4.938,7.856,4.895,7.855
		C4.717,7.849,4.54,7.867,4.362,7.874c-0.348,0.013-0.696,0.02-1.043,0.04C3.187,7.921,3.055,7.928,2.923,7.908
		C2.855,7.866,2.786,7.824,2.719,7.781C2.305,7.513,1.89,7.244,1.476,6.975C1.3,6.86,1.124,6.745,0.948,6.629
		C0.934,6.62,0.917,6.613,0.908,6.597C0.904,6.583,0.916,6.58,0.924,6.575c0.121-0.076,0.242-0.152,0.363-0.227
		C1.293,6.344,1.301,6.343,1.308,6.34c0.034,0.011,0.07,0.01,0.104,0.007c0.32-0.025,0.641-0.018,0.96-0.041
		c0.147-0.01,0.295-0.011,0.443-0.014C3.033,6.287,3.251,6.279,3.469,6.27C3.794,6.256,4.119,6.255,4.444,6.23
		c0.049-0.004,0.1-0.012,0.149,0.006c-0.014,0.054-0.045,0.1-0.068,0.15C4.499,6.443,4.472,6.499,4.443,6.555
		c-0.013,0.024-0.012,0.045,0,0.07c0.06,0.124,0.119,0.248,0.178,0.372c0.117,0.244,0.234,0.487,0.35,0.731
		C4.978,7.741,4.982,7.756,4.987,7.77C4.991,7.776,4.994,7.782,4.997,7.788z"/>
	<path fill="#00B0FF" d="M4.593,6.236c-0.025,0.016-0.052,0.015-0.08,0.015c-0.045,0-0.09-0.004-0.134,0.012
		C4.363,6.269,4.344,6.266,4.327,6.266c-0.083,0-0.165,0-0.248,0c-0.04,0-0.08-0.003-0.119,0.012C3.942,6.285,3.92,6.281,3.9,6.281
		c-0.078,0-0.155,0-0.233,0c-0.037,0-0.075-0.002-0.111,0.011c-0.018,0.007-0.04,0.004-0.06,0.004c-0.073,0-0.145,0-0.218,0
		c-0.045,0-0.09-0.004-0.134,0.012C3.129,6.314,3.11,6.312,3.092,6.312c-0.083,0-0.165,0-0.248,0c-0.04,0-0.08-0.003-0.119,0.011
		c-0.018,0.006-0.04,0.003-0.06,0.003c-0.08,0-0.16,0-0.241,0c-0.035,0-0.07-0.001-0.104,0.011c-0.018,0.007-0.04,0.004-0.06,0.004
		c-0.08,0-0.16,0-0.241,0c-0.042,0-0.085-0.003-0.126,0.012C1.879,6.36,1.86,6.357,1.842,6.357c-0.078,0-0.155,0-0.233,0
		c-0.04,0-0.079,0.003-0.119,0.01C1.444,6.376,1.395,6.371,1.348,6.371c-0.019,0-0.031-0.014-0.04-0.03c0,0,0,0,0,0
		c0.006-0.003,0.011-0.007,0.017-0.011c0.002-0.004,0.005-0.006,0.009-0.005c0.01,0,0.016-0.006,0.021-0.013l0,0
		C1.359,6.307,1.364,6.303,1.37,6.3c0.002-0.004,0.006-0.006,0.011-0.006C1.389,6.293,1.394,6.288,1.4,6.282l0.001,0
		c0.003-0.005,0.008-0.008,0.014-0.01c0.003-0.005,0.007-0.007,0.013-0.006c0.006-0.003,0.012-0.007,0.017-0.011
		C1.447,6.25,1.45,6.248,1.454,6.249c0.01,0,0.015-0.006,0.021-0.013c0.061-0.04,0.12-0.08,0.182-0.119
		c0.641-0.401,1.281-0.802,1.922-1.203C3.6,4.901,3.619,4.884,3.644,4.879c0.068,0.02,0.136,0.02,0.207,0.013
		c0.147-0.015,0.295-0.011,0.442-0.016C4.506,4.871,4.718,4.85,4.93,4.857C5.011,4.86,5.09,4.844,5.169,4.836
		c0.032-0.003,0.065-0.012,0.092,0.016C5.255,4.868,5.25,4.885,5.242,4.901C5.034,5.333,4.824,5.765,4.615,6.198
		C4.609,6.211,4.6,6.224,4.593,6.236z"/>
	<path fill="#0046FF" d="M2.923,7.908C2.961,7.895,3,7.892,3.041,7.893c0.068,0.001,0.135,0.001,0.203,0
		c0.045,0,0.09,0.004,0.134-0.012C3.393,7.876,3.412,7.878,3.43,7.878c0.083,0,0.165,0,0.248,0c0.04,0,0.08,0.003,0.119-0.011
		c0.018-0.006,0.04-0.003,0.06-0.003c0.08,0,0.16,0,0.24,0c0.035,0,0.07,0.002,0.104-0.011c0.018-0.007,0.04-0.004,0.06-0.004
		c0.075,0,0.15,0,0.225,0c0.042,0,0.085,0.003,0.126-0.012C4.627,7.83,4.646,7.833,4.664,7.833c0.068,0,0.135-0.002,0.203,0.001
		c0.049,0.002,0.094-0.006,0.136-0.031C5.018,7.813,5.022,7.831,5.03,7.847c0.172,0.358,0.344,0.716,0.515,1.074
		c0.006,0.013,0.011,0.028,0.016,0.042c-0.042,0.05-0.103,0.052-0.158,0.051C5.181,9.01,4.959,9.037,4.737,9.032
		C4.697,9.031,4.658,9.025,4.621,9.01C4.549,8.974,4.485,8.926,4.418,8.882C3.935,8.57,3.452,8.257,2.97,7.944
		C2.953,7.933,2.934,7.926,2.923,7.908z"/>
	<path fill="#00D4FF" d="M5.261,4.852C5.233,4.851,5.206,4.847,5.179,4.859C5.175,4.861,5.17,4.863,5.165,4.863
		C5.095,4.86,5.027,4.885,4.957,4.881C4.892,4.878,4.826,4.88,4.761,4.881c-0.047,0-0.095-0.005-0.141,0.012
		C4.604,4.899,4.585,4.896,4.568,4.896c-0.075,0-0.15,0-0.226,0c-0.042,0-0.085-0.003-0.126,0.012
		c-0.018,0.006-0.04,0.003-0.06,0.003c-0.078,0-0.155,0-0.233,0c-0.037,0-0.074,0.001-0.111,0.011c-0.052,0.014-0.104,0-0.154-0.017
		C3.647,4.901,3.647,4.889,3.644,4.879c0.022-0.016,0.044-0.032,0.067-0.047C4.041,4.626,4.371,4.421,4.7,4.214
		C5.088,3.97,5.476,3.726,5.864,3.482C5.886,3.468,5.91,3.455,5.935,3.44c0.004,0.03-0.013,0.048-0.022,0.067
		C5.818,3.706,5.722,3.904,5.626,4.103C5.514,4.335,5.402,4.568,5.29,4.8C5.281,4.818,5.271,4.835,5.261,4.852z"/>
	<path fill="#002BFF" d="M4.621,9.01c0.11,0,0.22-0.001,0.331-0.001c0.03,0,0.059,0,0.089-0.01C5.058,8.992,5.08,8.993,5.1,8.993
		c0.073-0.001,0.145-0.003,0.218,0c0.083,0.004,0.164-0.011,0.244-0.031C5.57,8.977,5.58,8.991,5.588,9.007
		c0.134,0.28,0.268,0.56,0.402,0.84C5.999,9.865,6.005,9.883,6.012,9.9c-0.011,0.015-0.02,0.008-0.027,0.003
		C5.884,9.837,5.784,9.77,5.683,9.705C5.549,9.617,5.414,9.529,5.28,9.442C5.074,9.308,4.868,9.175,4.662,9.041
		C4.647,9.032,4.634,9.02,4.621,9.01z"/>
	<path fill="#007CFF" d="M1.475,6.236C1.471,6.245,1.464,6.249,1.454,6.249C1.458,6.24,1.465,6.236,1.475,6.236z"/>
	<path fill="#007CFF" d="M1.445,6.254C1.441,6.261,1.436,6.265,1.427,6.265C1.431,6.257,1.436,6.254,1.445,6.254z"/>
	<path fill="#007CFF" d="M1.415,6.271C1.41,6.275,1.406,6.278,1.401,6.282C1.403,6.275,1.407,6.271,1.415,6.271z"/>
	<path fill="#007CFF" d="M1.4,6.282C1.396,6.29,1.39,6.295,1.381,6.295C1.384,6.286,1.391,6.282,1.4,6.282z"/>
	<path fill="#007CFF" d="M1.37,6.3c-0.005,0.004-0.01,0.007-0.015,0.011C1.356,6.304,1.361,6.3,1.37,6.3z"/>
	<path fill="#007CFF" d="M1.355,6.311C1.35,6.32,1.343,6.324,1.333,6.324C1.338,6.315,1.345,6.311,1.355,6.311z"/>
	<path fill="#007CFF" d="M1.325,6.329C1.321,6.337,1.316,6.341,1.308,6.341C1.31,6.332,1.316,6.329,1.325,6.329z"/>
	<path fill="#0046FF" d="M4.997,7.788c-0.007-0.004-0.01-0.01-0.01-0.018C4.995,7.773,4.998,7.779,4.997,7.788z"/>
	<path d="M17.341,7.623c-0.115-0.153-0.176-0.329-0.205-0.516c-0.017-0.109-0.024-0.218-0.022-0.328
		c0.084-0.033,0.173-0.05,0.261-0.068c0.155-0.032,0.311-0.048,0.47-0.04c0.063,0.003,0.124,0.016,0.183,0.038
		c0.086,0.032,0.159,0.084,0.211,0.161c0.007,0.01,0.015,0.02,0.023,0.029c0.026,0.073,0.055,0.145,0.064,0.223
		c0.017,0.145,0.004,0.285-0.059,0.419c-0.003,0.007-0.004,0.014-0.006,0.021c-0.005,0.004-0.008,0.008-0.01,0.014
		c-0.005,0.003-0.007,0.007-0.006,0.013c-0.003,0.007-0.008,0.013-0.013,0.019L18.23,7.608c-0.005,0.003-0.009,0.007-0.011,0.013
		c-0.004,0.005-0.007,0.009-0.011,0.014c-0.117,0.119-0.262,0.167-0.426,0.17c-0.161,0.004-0.3-0.043-0.414-0.159
		c-0.003-0.003-0.008-0.005-0.013-0.007c0,0-0.001-0.001-0.001-0.001C17.351,7.632,17.346,7.627,17.341,7.623z"/>
	<path fill="#0021FF" d="M18.25,7.576c0-0.007,0.003-0.012,0.01-0.014C18.257,7.567,18.253,7.572,18.25,7.576z"/>
	<path fill="#0021FF" d="M18.231,7.607c0.001-0.009,0.005-0.015,0.013-0.019C18.239,7.595,18.235,7.601,18.231,7.607z"/>
	<path fill="#0021FF" d="M18.219,7.622c0-0.007,0.004-0.011,0.011-0.013C18.227,7.613,18.223,7.617,18.219,7.622z"/>
	<path fill="#0021FF" d="M17.341,7.623c0.008,0.002,0.012,0.006,0.013,0.014C17.35,7.633,17.345,7.628,17.341,7.623z"/>
	<path fill="#666666" d="M22.553,10.39c-0.007-0.027,0.011-0.044,0.021-0.063c0.06-0.11,0.12-0.22,0.181-0.33
		c0.074-0.134,0.147-0.268,0.221-0.402c0.134-0.244,0.269-0.488,0.403-0.732c0.097-0.176,0.192-0.352,0.289-0.528
		c0.12-0.217,0.24-0.434,0.36-0.652c0.064-0.116,0.128-0.233,0.192-0.35c0.14-0.255,0.28-0.51,0.42-0.765
		c0.006-0.011,0.012-0.022,0.019-0.033c0.008-0.014,0.021-0.022,0.037-0.023c0.015-0.001,0.03-0.001,0.045-0.001
		c0.289-0.001,0.577-0.001,0.866-0.002c0.017,0,0.035,0.001,0.052,0.003c0.009,0.001,0.011,0.01,0.009,0.017
		c-0.005,0.014-0.011,0.028-0.018,0.041c-0.172,0.337-0.344,0.675-0.517,1.012c-0.048,0.094-0.097,0.187-0.145,0.281
		c-0.14,0.272-0.279,0.545-0.418,0.817c-0.21,0.411-0.421,0.822-0.631,1.232c-0.065,0.127-0.131,0.254-0.197,0.381
		c-0.006,0.011-0.011,0.022-0.018,0.033c-0.008,0.014-0.02,0.022-0.037,0.022c-0.005,0-0.01,0.001-0.015,0.001
		c-0.153,0.005-0.306,0.009-0.459,0.017c-0.165,0.009-0.331,0.012-0.496,0.017C22.663,10.384,22.608,10.397,22.553,10.39z"/>
	<path fill="#0068FF" d="M23.833,4.675c-0.008-0.013-0.017-0.024-0.023-0.038c-0.11-0.234-0.22-0.469-0.329-0.704
		c-0.004-0.009-0.006-0.019-0.009-0.028c-0.016-0.177-0.006-0.355-0.007-0.533c-0.002-0.35-0.001-0.701,0-1.051
		c0-0.023,0-0.045,0-0.068c0.004-0.094,0.018-0.107,0.111-0.106c0.017,0,0.035-0.003,0.052,0.006
		c0.043,0.001,0.085,0.003,0.128,0.004c0.023,0,0.037,0.012,0.047,0.031c0.025,0.054,0.051,0.109,0.076,0.163
		c-0.009,0.057-0.003,0.115-0.003,0.172c-0.001,0.667,0,1.333-0.001,2C23.873,4.575,23.886,4.634,23.833,4.675z"/>
	<path fill="#00A2FF" d="M24.465,3.54c0.004,0.002,0.005,0.005,0.004,0.01c0.001,0.008,0.007,0.013,0.01,0.02
		c0.004,0.003,0.006,0.006,0.004,0.011c0.001,0.008,0.007,0.013,0.011,0.019c0.004,0.003,0.006,0.006,0.004,0.011
		c0.001,0.008,0.007,0.013,0.01,0.019c0.014,0.026,0.029,0.052,0.042,0.078c0.071,0.142,0.141,0.285,0.211,0.428
		c0.013,0.027,0.023,0.055,0.034,0.082c-0.015,0.039-0.004,0.079-0.004,0.119c-0.001,0.506-0.001,1.011-0.001,1.517
		c0,0.025,0.001,0.05,0.001,0.075c0,0.05,0.024,0.071,0.074,0.073c0.09,0.003,0.18-0.007,0.27,0.007
		c0.009,0.003,0.017,0.008,0.024,0.015c0,0.005-0.001,0.01-0.001,0.014c-0.04,0.001-0.079,0.003-0.119,0.003
		c-0.172,0.001-0.344-0.001-0.515,0.003c-0.042,0.001-0.065-0.013-0.077-0.052c-0.008-0.023-0.024-0.043-0.027-0.069
		c-0.008-0.062-0.008-0.125-0.008-0.188c0-0.678,0-1.355,0-2.033c0-0.033-0.002-0.065,0.003-0.098
		C24.421,3.575,24.424,3.543,24.465,3.54z"/>
	<path fill="#007BFF" d="M23.833,4.675c0.015-0.043,0.018-0.087,0.018-0.133c-0.001-0.694,0-1.388,0-2.082
		c0-0.023,0-0.045,0.001-0.068c0.001-0.019,0.011-0.033,0.027-0.042c0.004,0.002,0.005,0.005,0.004,0.01
		c0.001,0.008,0.007,0.013,0.011,0.02c0.003,0.004,0.007,0.007,0.009,0.012c0.092,0.185,0.183,0.369,0.275,0.554
		c0.003,0.006,0.004,0.014,0.005,0.021c-0.01,0.057-0.006,0.115-0.006,0.172c0,0.667,0,1.334-0.001,2.001
		c0,0.062,0.008,0.126-0.039,0.178c-0.007-0.01-0.014-0.02-0.019-0.031c-0.089-0.188-0.177-0.376-0.266-0.564
		C23.843,4.708,23.839,4.691,23.833,4.675z"/>
	<path fill="#008EFF" d="M24.136,5.319c0-0.008-0.001-0.015,0.001-0.022c0.021-0.079,0.014-0.159,0.014-0.238
		c0-0.661,0-1.322,0-1.983c0-0.02,0-0.04,0-0.06c0-0.022,0.011-0.038,0.03-0.048c0,0,0,0,0,0c0.008,0.009,0.006,0.023,0.015,0.031
		c0.007,0.01,0.015,0.02,0.02,0.031c0.079,0.159,0.157,0.318,0.236,0.477c0.005,0.011,0.009,0.023,0.013,0.035
		c-0.016,0.009-0.027,0.022-0.027,0.042c-0.001,0.023-0.001,0.045-0.001,0.068c0,0.724,0,1.447,0,2.171
		c0,0.035,0.004,0.071-0.017,0.102c-0.008-0.013-0.017-0.025-0.023-0.038c-0.085-0.179-0.169-0.359-0.253-0.538
		C24.141,5.338,24.139,5.328,24.136,5.319z"/>
	<path fill="#00BAFF" d="M25.161,6.025c-0.103,0-0.205,0-0.308,0c-0.008,0-0.015,0-0.023,0c-0.047-0.002-0.058-0.012-0.06-0.057
		c-0.001-0.02,0-0.04,0-0.06c0-0.534,0-1.067,0-1.601c0-0.023,0-0.045,0.002-0.068c0.001-0.014,0.014-0.019,0.027-0.022
		c0.004,0.002,0.005,0.005,0.004,0.009c0.001,0.009,0.006,0.015,0.011,0.021c0.004,0.002,0.005,0.005,0.004,0.009
		c0.001,0.009,0.006,0.015,0.011,0.021c0.004,0.002,0.005,0.006,0.004,0.01c0.001,0.008,0.006,0.014,0.011,0.02
		c0.004,0.002,0.006,0.006,0.004,0.01c0.001,0.008,0.006,0.014,0.011,0.02c0.006,0.011,0.014,0.021,0.019,0.032
		c0.1,0.201,0.2,0.403,0.299,0.605c0.007,0.013,0.01,0.028,0.015,0.042c-0.012,0.06-0.006,0.12-0.006,0.18
		c-0.001,0.238,0,0.477-0.001,0.715C25.184,5.95,25.192,5.992,25.161,6.025z"/>
	<path fill="#0049FF" d="M23.628,2.152c-0.028,0.001-0.055,0.001-0.083,0.002c-0.042,0.002-0.054,0.013-0.056,0.053
		c-0.001,0.02,0,0.04,0,0.06c0,0.512,0,1.023,0,1.535c0,0.035,0.004,0.071-0.017,0.102c-0.01-0.017-0.021-0.034-0.029-0.052
		c-0.122-0.258-0.243-0.516-0.364-0.774c-0.005-0.011-0.008-0.023-0.012-0.035c-0.013-0.026-0.01-0.054-0.01-0.081
		c0.003-0.25,0-0.499,0.002-0.749c0-0.037-0.006-0.076,0.024-0.106c0.038,0.001,0.075,0,0.113,0.003
		c0.133,0.01,0.265,0.021,0.398,0.032C23.604,2.144,23.616,2.149,23.628,2.152z"/>
	<path fill="#00D4FF" d="M25.161,6.025c0-0.303,0-0.606,0-0.909c0-0.02,0-0.04,0.001-0.06c0.001-0.019,0.013-0.032,0.029-0.04l0,0
		c0.008,0.008,0.006,0.022,0.015,0.03l0,0c0.008,0.008,0.006,0.022,0.015,0.03l0,0c0.009,0.008,0.006,0.022,0.015,0.03l0,0
		c0.009,0.008,0.006,0.022,0.015,0.03l0,0c0.009,0.008,0.006,0.022,0.015,0.03l0,0.001c0.009,0.008,0.006,0.022,0.015,0.03l0,0.001
		c0.009,0.008,0.006,0.021,0.015,0.03l0,0.001c0.009,0.007,0.006,0.021,0.015,0.029l0,0.001c0.009,0.007,0.006,0.021,0.014,0.029
		c0.004,0.002,0.005,0.005,0.004,0.009c0,0.009,0.005,0.015,0.011,0.021c0.01,0.017,0.021,0.034,0.029,0.052
		c0.098,0.199,0.197,0.397,0.294,0.596c0.01,0.02,0.026,0.037,0.023,0.062C25.512,6.037,25.336,6.038,25.161,6.025L25.161,6.025z"/>
	<path fill="#002FFF" d="M23.082,2.108c0,0.238,0,0.476,0,0.713c0,0.075,0.005,0.15-0.016,0.223
		c-0.008-0.013-0.017-0.025-0.023-0.038c-0.138-0.294-0.277-0.588-0.414-0.882c-0.008-0.017-0.022-0.033-0.016-0.056
		c0.007-0.001,0.015-0.003,0.022-0.003c0.139,0.011,0.279,0.022,0.418,0.034C23.063,2.101,23.072,2.105,23.082,2.108z"/>
	<path fill="#00BAFF" d="M25.161,6.026c0.175,0,0.351,0,0.526,0c-0.003,0.007-0.007,0.013-0.016,0.013
		c-0.17,0-0.341-0.001-0.511-0.001C25.161,6.034,25.161,6.03,25.161,6.026z"/>
	<path fill="#007BFF" d="M24.197,2.998c-0.013-0.007-0.015-0.018-0.015-0.031C24.193,2.974,24.197,2.985,24.197,2.998z"/>
	<path fill="#00BAFF" d="M25.325,5.287c-0.012-0.006-0.014-0.017-0.014-0.029C25.321,5.265,25.326,5.275,25.325,5.287z"/>
	<path fill="#00BAFF" d="M25.311,5.257c-0.012-0.006-0.015-0.017-0.015-0.029C25.306,5.235,25.312,5.245,25.311,5.257z"/>
	<path fill="#00BAFF" d="M25.236,5.107c-0.012-0.006-0.015-0.017-0.015-0.03C25.232,5.084,25.237,5.094,25.236,5.107z"/>
	<path fill="#00BAFF" d="M25.296,5.227c-0.012-0.006-0.015-0.017-0.015-0.03C25.291,5.205,25.297,5.215,25.296,5.227z"/>
	<path fill="#00BAFF" d="M25.281,5.197c-0.012-0.006-0.015-0.017-0.015-0.03C25.276,5.175,25.282,5.184,25.281,5.197z"/>
	<path fill="#00BAFF" d="M25.266,5.167c-0.012-0.006-0.015-0.017-0.015-0.03C25.261,5.144,25.267,5.154,25.266,5.167z"/>
	<path fill="#00BAFF" d="M25.251,5.137c-0.012-0.006-0.015-0.017-0.015-0.03C25.247,5.114,25.252,5.124,25.251,5.137z"/>
	<path fill="#00BAFF" d="M25.221,5.077c-0.012-0.007-0.015-0.017-0.015-0.03C25.217,5.053,25.221,5.064,25.221,5.077z"/>
	<path fill="#00BAFF" d="M25.206,5.046c-0.012-0.006-0.016-0.017-0.015-0.03C25.202,5.023,25.207,5.033,25.206,5.046z"/>
	<path fill="#00BAFF" d="M25.34,5.317c-0.008-0.005-0.012-0.012-0.011-0.021C25.338,5.3,25.341,5.308,25.34,5.317z"/>
	<path fill="#0068FF" d="M23.893,2.38c-0.004-0.007-0.007-0.013-0.011-0.02C23.89,2.364,23.893,2.371,23.893,2.38z"/>
	<path fill="#008EFF" d="M24.48,3.57c-0.003-0.007-0.007-0.013-0.01-0.02C24.477,3.554,24.48,3.561,24.48,3.57z"/>
	<path fill="#008EFF" d="M24.495,3.6c-0.004-0.006-0.007-0.013-0.011-0.019C24.492,3.585,24.495,3.591,24.495,3.6z"/>
	<path fill="#008EFF" d="M24.51,3.63c-0.003-0.006-0.007-0.013-0.01-0.019C24.507,3.615,24.51,3.621,24.51,3.63z"/>
	<path fill="#00A2FF" d="M24.812,4.248c-0.008-0.005-0.011-0.012-0.011-0.021C24.81,4.231,24.813,4.238,24.812,4.248z"/>
	<path fill="#00A2FF" d="M24.827,4.278c-0.008-0.005-0.011-0.012-0.011-0.021C24.825,4.261,24.828,4.269,24.827,4.278z"/>
	<path fill="#00A2FF" d="M24.842,4.308c-0.007-0.005-0.011-0.011-0.011-0.02C24.84,4.292,24.843,4.299,24.842,4.308z"/>
	<path fill="#00A2FF" d="M24.857,4.338c-0.007-0.005-0.011-0.011-0.011-0.02C24.855,4.322,24.858,4.329,24.857,4.338z"/>
	<path fill="#008DFF" d="M27.476,6.853c0.035-0.075,0.068-0.151,0.105-0.225c0.016-0.032,0.014-0.058-0.002-0.091
		c-0.1-0.202-0.197-0.406-0.295-0.609c-0.011-0.022-0.026-0.043-0.028-0.069c0.019-0.02,0.045-0.022,0.07-0.022
		c0.088,0.001,0.176-0.014,0.263-0.013c0.213,0.002,0.426-0.013,0.639-0.021c0.328-0.013,0.657-0.015,0.984-0.04
		c0.065-0.005,0.131-0.004,0.196-0.002c0.114,0.004,0.225-0.011,0.335-0.038c0.023,0.004,0.04,0.02,0.059,0.031
		c0.42,0.262,0.84,0.525,1.259,0.788c0.021,0.013,0.044,0.023,0.06,0.043c-0.038,0.037-0.164,0.12-0.246,0.164
		c-0.078,0.022-0.158,0.02-0.238,0.023c-0.368,0.012-0.736,0.021-1.103,0.042c-0.145,0.008-0.29,0.01-0.435,0.013
		c-0.22,0.006-0.44,0.017-0.661,0.022c-0.283,0.006-0.565,0.029-0.848,0.027C27.55,6.877,27.508,6.885,27.476,6.853z"/>
	<path fill="#006BFF" d="M27.476,6.853c0.133,0,0.266,0.001,0.399,0.001c0.008,0,0.015,0.001,0.023-0.001
		c0.116-0.028,0.235-0.009,0.352-0.014c0.035-0.002,0.07,0.001,0.104-0.011c0.018-0.007,0.04-0.004,0.06-0.004
		c0.08,0,0.161,0,0.241,0c0.042,0,0.085,0.003,0.126-0.012c0.016-0.006,0.035-0.003,0.052-0.003c0.078,0,0.156,0,0.233,0
		c0.04,0,0.08,0.003,0.119-0.011c0.018-0.007,0.04-0.003,0.06-0.003c0.078,0,0.156,0,0.233,0c0.037,0,0.075,0.003,0.112-0.011
		c0.018-0.007,0.04-0.004,0.06-0.004c0.078,0,0.156,0,0.233,0c0.045,0,0.09,0.004,0.134-0.012c0.016-0.006,0.035-0.003,0.052-0.003
		c0.078,0,0.156,0,0.233,0c0.04,0,0.08,0.002,0.119-0.012c0.018-0.006,0.04-0.003,0.06-0.003c0.085,0,0.171,0,0.256,0
		c0.025,0,0.051,0.004,0.074-0.008c0.024-0.012,0.044,0,0.064,0.01c-0.007,0.007-0.014,0.014-0.022,0.02
		c-0.516,0.336-1.032,0.671-1.548,1.007c-0.008,0.005-0.018,0.009-0.027,0.013c-0.052,0.019-0.105,0.036-0.161,0.035
		c-0.181-0.004-0.36,0.012-0.54,0.018c-0.37,0.012-0.741,0.021-1.11,0.042c-0.132,0.008-0.266-0.004-0.398,0.012
		c-0.032,0.004-0.068-0.002-0.07-0.048l0,0c0.009-0.008,0.007-0.022,0.015-0.031l0,0c0.01-0.008,0.007-0.022,0.015-0.031
		c0.002-0.005,0.003-0.01,0.005-0.014c0.003-0.006,0.006-0.011,0.01-0.016c0.002-0.005,0.003-0.009,0.005-0.014
		c0.003-0.006,0.006-0.011,0.01-0.017c-0.001-0.005,0.001-0.01,0.005-0.013c0.004-0.006,0.007-0.011,0.01-0.017
		c-0.001-0.005,0.001-0.009,0.005-0.013c0.004-0.006,0.007-0.012,0.01-0.018c-0.001-0.005,0.001-0.009,0.005-0.012
		c0.004-0.006,0.009-0.011,0.01-0.018c-0.001-0.005,0.001-0.009,0.005-0.012c0.004-0.006,0.01-0.011,0.01-0.019
		c-0.001-0.005,0-0.008,0.004-0.011c0.005-0.006,0.01-0.012,0.011-0.02c-0.001-0.004,0-0.008,0.004-0.01
		c0.005-0.006,0.011-0.012,0.011-0.02c-0.001-0.004,0-0.007,0.004-0.01c0.009-0.007,0.004-0.021,0.014-0.028
		c0.005-0.014,0.009-0.029,0.015-0.042c0.092-0.192,0.184-0.385,0.276-0.577C27.461,6.873,27.469,6.863,27.476,6.853z"/>
	<path fill="#00AFFF" d="M29.742,5.723c-0.002,0.013-0.006,0.025-0.02,0.029c-0.014,0.004-0.029,0.009-0.044,0.011
		c-0.059,0.007-0.117,0.024-0.178,0.022c-0.07-0.002-0.14-0.001-0.21,0c-0.047,0-0.095-0.005-0.141,0.012
		c-0.016,0.006-0.035,0.003-0.052,0.003c-0.078,0-0.155,0-0.233,0c-0.04,0-0.08-0.002-0.119,0.012
		c-0.018,0.006-0.04,0.003-0.06,0.003c-0.078,0-0.155,0-0.233,0c-0.037,0-0.075-0.002-0.111,0.011
		c-0.018,0.007-0.04,0.004-0.06,0.004c-0.078,0-0.155,0-0.233,0c-0.045,0-0.09-0.004-0.134,0.012
		c-0.016,0.006-0.035,0.003-0.052,0.003c-0.078,0-0.155,0-0.233,0c-0.04,0-0.08-0.003-0.119,0.012
		c-0.016,0.006-0.035,0.003-0.052,0.003c-0.068,0-0.135,0-0.203,0l0,0c-0.009-0.008-0.006-0.022-0.015-0.03l0-0.001
		c-0.01-0.007-0.006-0.021-0.014-0.029c-0.004-0.002-0.005-0.005-0.004-0.009c0-0.009-0.006-0.015-0.011-0.021
		c-0.006-0.011-0.014-0.021-0.019-0.032c-0.134-0.277-0.268-0.554-0.402-0.83c-0.006-0.013-0.01-0.028-0.015-0.042
		c0.023-0.022,0.051-0.014,0.078-0.013c0.255,0.016,0.509-0.01,0.764-0.021c0.16-0.007,0.32,0.004,0.479-0.018
		c0.046-0.006,0.088-0.012,0.124-0.042c0.011,0.005,0.023,0.009,0.034,0.016c0.297,0.186,0.594,0.372,0.891,0.558
		c0.008,0.005,0.015,0.012,0.023,0.019c0.006,0.004,0.011,0.01,0.018,0.012c0.005,0,0.01,0.002,0.013,0.006
		c0.005,0.003,0.01,0.006,0.014,0.01l0.001,0c0.005,0.006,0.011,0.012,0.02,0.013c0.005-0.001,0.008,0.001,0.011,0.006
		c0.005,0.004,0.011,0.007,0.016,0.011c0.005,0.002,0.01,0.005,0.015,0.007c0.006,0.001,0.01,0.004,0.012,0.009l0.002,0.001
		c0.006,0.004,0.011,0.01,0.019,0.012c0.005-0.001,0.01,0.002,0.012,0.006c0.005,0.003,0.01,0.006,0.014,0.01l0,0
		c0.005,0.006,0.011,0.012,0.02,0.013c0.005-0.001,0.008,0.001,0.011,0.006c0.005,0.004,0.011,0.007,0.016,0.011l-0.001,0
		c0.006,0.011,0.021,0.007,0.028,0.017l0.001,0.001c0.006,0.004,0.011,0.01,0.019,0.012c0.005-0.001,0.01,0.001,0.012,0.006
		c0.005,0.002,0.01,0.006,0.014,0.01l0,0c0.006,0.006,0.011,0.012,0.02,0.013c0.005-0.001,0.008,0.001,0.01,0.006
		c0.005,0.003,0.011,0.007,0.016,0.011l-0.001,0c0.006,0.011,0.021,0.007,0.028,0.017L29.53,5.59
		c0.006,0.004,0.011,0.01,0.019,0.012c0.005-0.001,0.009,0.001,0.012,0.006c0.006,0.002,0.01,0.006,0.014,0.011l0,0
		c0.006,0.006,0.012,0.012,0.02,0.013c0.005-0.001,0.008,0.001,0.01,0.005c0.005,0.003,0.011,0.007,0.016,0.011l-0.001,0
		c0.006,0.01,0.021,0.007,0.028,0.017l0.001,0.001c0.006,0.004,0.011,0.01,0.019,0.012c0.005-0.001,0.009,0.001,0.012,0.006
		c0.006,0.002,0.01,0.006,0.014,0.011l0,0c0.006,0.006,0.012,0.011,0.02,0.013c0.005-0.001,0.008,0.001,0.01,0.005
		C29.732,5.716,29.737,5.72,29.742,5.723L29.742,5.723z"/>
	<path fill="#004AFF" d="M26.999,7.848c0.014,0.032,0.043,0.035,0.07,0.029c0.114-0.027,0.23-0.009,0.344-0.014
		c0.037-0.002,0.075,0.002,0.111-0.011c0.018-0.007,0.04-0.004,0.06-0.004c0.078,0,0.156,0,0.233,0c0.045,0,0.09,0.004,0.134-0.012
		c0.016-0.006,0.035-0.003,0.052-0.003c0.078,0,0.156,0,0.233,0c0.04,0,0.08,0.003,0.119-0.012c0.016-0.006,0.035-0.003,0.052-0.003
		c0.075,0,0.151,0,0.226,0c0.05,0,0.1,0.004,0.149-0.013c0.016-0.005,0.035-0.002,0.052-0.002c0.08,0,0.161,0,0.241,0
		c0.035,0,0.069-0.001,0.104-0.01c0.031-0.008,0.065-0.003,0.097-0.003c-0.014,0.011-0.027,0.022-0.041,0.032
		c-0.516,0.335-1.032,0.67-1.549,1.004c-0.012,0.008-0.026,0.014-0.04,0.021c-0.167,0.003-0.334,0.017-0.501,0.022
		c-0.18,0.005-0.359,0.011-0.539,0.017c-0.035,0.001-0.071,0.006-0.095-0.029c0.007-0.019,0.014-0.038,0.022-0.056
		c0.145-0.303,0.29-0.606,0.436-0.908C26.98,7.877,26.99,7.863,26.999,7.848z"/>
	<path fill="#00CDFF" d="M28.221,4.772c-0.01,0.058-0.013,0.066-0.062,0.062c-0.083-0.006-0.163,0.02-0.246,0.017
		c-0.08-0.003-0.16-0.001-0.241-0.001c-0.008,0-0.015-0.001-0.022,0.001c-0.096,0.026-0.194,0.01-0.291,0.014
		c-0.057,0.003-0.115-0.006-0.171,0.013c-0.016,0.005-0.035,0.002-0.052,0.002c-0.058,0-0.115,0-0.173,0
		c-0.052,0-0.105,0.004-0.156-0.014c-0.009-0.003-0.02-0.001-0.03-0.001c-0.009-0.015-0.018-0.03-0.026-0.045
		c-0.214-0.445-0.429-0.89-0.643-1.334c-0.006-0.013-0.012-0.027-0.019-0.042c0.022-0.013,0.034,0.006,0.047,0.014
		c0.255,0.159,0.511,0.318,0.765,0.478c0.429,0.269,0.857,0.539,1.286,0.809C28.198,4.753,28.209,4.763,28.221,4.772z"/>
	<path fill="#0029FF" d="M26.514,8.857c0.034,0.01,0.066,0.017,0.102,0.003c0.015-0.006,0.035-0.002,0.052-0.002
		c0.085,0,0.17,0,0.255,0c0.035,0,0.069,0.002,0.104-0.011c0.018-0.007,0.04-0.004,0.06-0.004c0.075,0,0.15,0,0.225,0
		c0.042,0,0.084-0.004,0.126-0.01c0.061-0.009,0.125-0.003,0.187-0.002c0.008,0,0.016,0.011,0.023,0.016
		c-0.051,0.045-0.111,0.077-0.168,0.114c-0.366,0.238-0.733,0.475-1.099,0.713c-0.109,0.071-0.218,0.144-0.327,0.215
		c-0.012,0.008-0.021,0.022-0.039,0.018c-0.009-0.007-0.002-0.014,0-0.02c0.16-0.335,0.32-0.67,0.481-1.005
		C26.502,8.872,26.508,8.865,26.514,8.857z"/>
	<path fill="#008DFF" d="M29.528,5.589c-0.012-0.001-0.023-0.004-0.028-0.017C29.513,5.573,29.522,5.579,29.528,5.589z"/>
	<path fill="#008DFF" d="M29.649,5.665c-0.012-0.001-0.023-0.004-0.028-0.017C29.634,5.648,29.643,5.654,29.649,5.665z"/>
	<path fill="#008DFF" d="M27.226,5.8c0.012,0.006,0.014,0.017,0.014,0.029C27.23,5.822,27.225,5.812,27.226,5.8z"/>
	<path fill="#004AFF" d="M27.165,7.503c0,0.012-0.003,0.022-0.014,0.028C27.15,7.519,27.155,7.51,27.165,7.503z"/>
	<path fill="#008DFF" d="M27.241,5.829c0.012,0.007,0.015,0.017,0.015,0.03C27.245,5.852,27.24,5.842,27.241,5.829z"/>
	<path fill="#008DFF" d="M29.408,5.514c-0.012-0.001-0.023-0.004-0.028-0.017C29.393,5.497,29.402,5.503,29.408,5.514z"/>
	<path fill="#004AFF" d="M27.028,7.787c0.001,0.013-0.002,0.025-0.015,0.031C27.013,7.805,27.018,7.794,27.028,7.787z"/>
	<path fill="#004AFF" d="M27.014,7.818c0.001,0.013-0.002,0.024-0.015,0.031C26.998,7.835,27.003,7.825,27.014,7.818z"/>
	<path fill="#008DFF" d="M29.428,5.527c-0.008-0.001-0.015-0.005-0.019-0.012C29.418,5.515,29.425,5.519,29.428,5.527z"/>
	<path fill="#008DFF" d="M29.455,5.543c-0.005-0.003-0.009-0.007-0.014-0.01C29.448,5.532,29.453,5.536,29.455,5.543z"/>
	<path fill="#008DFF" d="M29.475,5.556c-0.009,0-0.016-0.005-0.02-0.013C29.464,5.544,29.471,5.548,29.475,5.556z"/>
	<path fill="#008DFF" d="M29.501,5.573c-0.005-0.004-0.01-0.007-0.016-0.011C29.494,5.561,29.499,5.565,29.501,5.573z"/>
	<path fill="#008DFF" d="M29.549,5.602C29.54,5.602,29.534,5.597,29.53,5.59C29.539,5.59,29.545,5.594,29.549,5.602z"/>
	<path fill="#008DFF" d="M29.575,5.619c-0.005-0.004-0.009-0.007-0.014-0.011C29.569,5.608,29.573,5.612,29.575,5.619z"/>
	<path fill="#008DFF" d="M29.596,5.632c-0.009,0-0.016-0.005-0.02-0.013C29.585,5.619,29.592,5.623,29.596,5.632z"/>
	<path fill="#008DFF" d="M29.622,5.648c-0.005-0.004-0.011-0.007-0.016-0.011C29.614,5.637,29.619,5.64,29.622,5.648z"/>
	<path fill="#008DFF" d="M29.669,5.678c-0.009-0.001-0.015-0.005-0.019-0.012C29.659,5.665,29.666,5.669,29.669,5.678z"/>
	<path fill="#008DFF" d="M29.695,5.694c-0.005-0.004-0.009-0.007-0.014-0.011C29.689,5.683,29.693,5.687,29.695,5.694z"/>
	<path fill="#008DFF" d="M29.716,5.707c-0.009,0-0.016-0.005-0.02-0.013C29.705,5.694,29.712,5.699,29.716,5.707z"/>
	<path fill="#008DFF" d="M29.742,5.724c-0.005-0.004-0.011-0.007-0.016-0.011C29.735,5.712,29.74,5.716,29.742,5.724z"/>
	<path fill="#008DFF" d="M29.381,5.497c-0.005-0.004-0.01-0.007-0.016-0.011C29.373,5.486,29.378,5.49,29.381,5.497z"/>
	<path fill="#008DFF" d="M27.211,5.77c0.008,0.005,0.012,0.012,0.011,0.021C27.214,5.786,27.211,5.779,27.211,5.77z"/>
	<path fill="#008DFF" d="M29.355,5.481c-0.009,0-0.016-0.004-0.02-0.013C29.344,5.468,29.351,5.472,29.355,5.481z"/>
	<path fill="#008DFF" d="M29.334,5.468c-0.005-0.003-0.009-0.007-0.014-0.01C29.328,5.457,29.332,5.461,29.334,5.468z"/>
	<path fill="#008DFF" d="M29.308,5.451c-0.008,0-0.015-0.005-0.019-0.012C29.298,5.439,29.304,5.443,29.308,5.451z"/>
	<path fill="#008DFF" d="M29.287,5.438c-0.004-0.003-0.008-0.006-0.012-0.009C29.282,5.429,29.286,5.432,29.287,5.438z"/>
	<path fill="#008DFF" d="M29.261,5.422c-0.005-0.004-0.011-0.007-0.016-0.011C29.253,5.41,29.258,5.414,29.261,5.422z"/>
	<path fill="#008DFF" d="M29.234,5.405c-0.009,0-0.016-0.004-0.02-0.013C29.223,5.393,29.23,5.397,29.234,5.405z"/>
	<path fill="#008DFF" d="M29.214,5.393c-0.005-0.003-0.009-0.007-0.014-0.01C29.207,5.382,29.212,5.386,29.214,5.393z"/>
	<path fill="#008DFF" d="M29.187,5.376c-0.008,0-0.014-0.005-0.018-0.012C29.177,5.364,29.184,5.368,29.187,5.376z"/>
	<path fill="#004AFF" d="M27.147,7.541c0,0.009-0.003,0.016-0.011,0.02C27.136,7.552,27.139,7.545,27.147,7.541z"/>
	<path fill="#004AFF" d="M27.132,7.571c0,0.009-0.003,0.015-0.011,0.02C27.121,7.583,27.124,7.576,27.132,7.571z"/>
	<path fill="#004AFF" d="M27.117,7.602c0,0.008-0.003,0.015-0.01,0.019C27.107,7.613,27.11,7.606,27.117,7.602z"/>
	<path fill="#004AFF" d="M27.088,7.664c-0.003,0.006-0.007,0.012-0.01,0.018C27.077,7.673,27.08,7.667,27.088,7.664z"/>
	<path fill="#004AFF" d="M27.073,7.694c-0.003,0.006-0.007,0.012-0.01,0.017C27.062,7.704,27.066,7.698,27.073,7.694z"/>
	<path fill="#004AFF" d="M27.058,7.725c-0.003,0.006-0.007,0.011-0.01,0.017C27.048,7.734,27.051,7.729,27.058,7.725z"/>
	<path fill="#004AFF" d="M27.043,7.756c-0.003,0.005-0.007,0.011-0.01,0.016C27.033,7.764,27.037,7.759,27.043,7.756z"/>
	<path fill="#004AFF" d="M27.103,7.633c0,0.008-0.003,0.014-0.01,0.018C27.092,7.643,27.095,7.637,27.103,7.633z"/>
</g>
</svg>
