<?xml version="1.0" encoding="utf-8"?>
<!-- Generator: Adobe Illustrator 24.3.0, SVG Export Plug-In . SVG Version: 6.00 Build 0)  -->
<svg version="1.1" id="Слой_1" xmlns="http://www.w3.org/2000/svg" xmlns:xlink="http://www.w3.org/1999/xlink" x="0px" y="0px"
	 width="32px" height="13px" viewBox="0 0 32 13" enable-background="new 0 0 32 13" xml:space="preserve">
<g>
	<path d="M19.786,13c-2.524,0-5.047,0-7.571,0c-0.076-0.076-0.12-0.173-0.172-0.264c-0.225-0.395-0.457-0.786-0.686-1.179
		c-0.337-0.58-0.677-1.158-1.014-1.738C9.924,9.096,9.5,8.374,9.081,7.651C8.884,7.312,8.687,6.973,8.488,6.636
		C8.472,6.61,8.46,6.582,8.443,6.557c-0.03-0.044-0.022-0.082,0.003-0.125c0.427-0.725,0.849-1.453,1.273-2.18
		c0.524-0.901,1.05-1.801,1.574-2.702c0.288-0.495,0.574-0.991,0.867-1.483C12.18,0.032,12.199,0,12.246,0.008
		c2.502,0,5.005,0,7.507,0c0.043-0.005,0.069,0.014,0.091,0.051c0.21,0.354,0.413,0.713,0.622,1.068
		c0.218,0.37,0.433,0.742,0.65,1.113c0.234,0.402,0.467,0.804,0.701,1.205c0.283,0.483,0.565,0.968,0.847,1.452
		c0.229,0.393,0.46,0.784,0.687,1.179c0.061,0.107,0.119,0.216,0.188,0.317c0.05,0.073,0.047,0.134,0.003,0.207
		c-0.146,0.246-0.291,0.493-0.434,0.741c-0.279,0.483-0.561,0.964-0.842,1.446c-0.283,0.484-0.564,0.968-0.847,1.452
		c-0.23,0.392-0.457,0.787-0.687,1.179c-0.296,0.505-0.587,1.013-0.886,1.516C19.831,12.96,19.814,12.985,19.786,13z"/>
	<path d="M3,6.47c0.023,0.002,0.028-0.017,0.036-0.032c0.045-0.09,0.089-0.18,0.134-0.27C3.304,5.898,3.439,5.629,3.573,5.36
		C3.7,5.106,3.826,4.852,3.953,4.598C4.084,4.336,4.215,4.073,4.347,3.81C4.441,3.622,4.535,3.434,4.63,3.245
		c0.003-0.007,0.008-0.013,0.01-0.02c0.009-0.027,0.027-0.04,0.057-0.039c0.023,0.001,0.045-0.001,0.068-0.002
		c0.387-0.014,0.773-0.028,1.16-0.042c0.166-0.006,0.331-0.011,0.498-0.017C6.433,3.147,6.419,3.163,6.41,3.18
		C6.296,3.409,6.182,3.637,6.067,3.867C5.9,4.201,5.734,4.536,5.567,4.871c-0.13,0.261-0.26,0.521-0.39,0.781
		C5.061,5.883,4.945,6.114,4.83,6.346C4.821,6.364,4.814,6.383,4.803,6.4C4.788,6.424,4.791,6.445,4.803,6.47
		c0.12,0.251,0.24,0.503,0.359,0.754c0.094,0.197,0.186,0.395,0.28,0.592c0.153,0.322,0.306,0.644,0.459,0.966
		c0.125,0.263,0.25,0.526,0.376,0.788c0.043,0.091,0.088,0.18,0.132,0.271c0.009,0.018,0.021,0.034,0.02,0.056
		C6.424,9.9,6.421,9.905,6.417,9.905C6.269,9.893,6.122,9.88,5.974,9.868c-0.15-0.012-0.301-0.023-0.451-0.035
		C5.36,9.82,5.198,9.806,5.035,9.793C4.947,9.786,4.86,9.779,4.772,9.773C4.749,9.771,4.727,9.768,4.704,9.769
		C4.666,9.769,4.646,9.75,4.631,9.717C4.555,9.561,4.479,9.406,4.402,9.251C4.272,8.99,4.142,8.73,4.012,8.47
		C3.887,8.22,3.763,7.971,3.639,7.722c-0.134-0.27-0.268-0.539-0.403-0.809c-0.066-0.132-0.133-0.264-0.2-0.397
		C3.028,6.501,3.023,6.483,3,6.485C3,6.48,3,6.475,3,6.47z"/>
	<path fill="#383838" d="M19.786,0c0.004,0.003,0.006,0.008,0.004,0.013c-0.033,0.001-0.065,0.002-0.098,0.002
		c-2.452,0-4.904,0-7.356,0c-0.04,0-0.08,0-0.121,0c0-0.005,0-0.01-0.001-0.015C14.739,0,17.262,0,19.786,0z"/>
	<path fill="#666666" d="M12.899,12.098c0.029-0.056,0.051-0.1,0.075-0.144c0.128-0.239,0.257-0.478,0.386-0.716
		c0.002-0.004,0.005-0.009,0.007-0.013c0.011-0.028,0.032-0.036,0.06-0.034c0.02,0.001,0.04,0,0.06,0c1.717,0,3.433,0,5.15,0
		c0.122,0,0.095,0.018,0.156-0.089c0.093-0.164,0.188-0.327,0.283-0.489c0.136-0.234,0.273-0.468,0.41-0.703
		c0.122-0.208,0.243-0.416,0.365-0.625c0.113-0.193,0.225-0.386,0.338-0.579c0.149-0.256,0.299-0.512,0.448-0.768
		c0.133-0.228,0.263-0.457,0.398-0.684c0.126-0.211,0.248-0.425,0.371-0.638c0.015-0.026,0.032-0.051,0.049-0.076
		c0.015-0.021,0.013-0.041,0-0.062c-0.067-0.112-0.133-0.224-0.199-0.337c-0.157-0.269-0.313-0.538-0.47-0.807
		C20.673,5.14,20.561,4.95,20.45,4.759c-0.154-0.265-0.308-0.53-0.462-0.795c-0.091-0.156-0.183-0.312-0.274-0.468
		c-0.062-0.106-0.123-0.213-0.185-0.319c-0.13-0.224-0.26-0.447-0.39-0.671c-0.094-0.16-0.189-0.32-0.282-0.481
		c-0.051-0.089-0.048-0.07-0.005-0.157c0.072-0.144,0.144-0.288,0.216-0.431c0.068-0.134,0.138-0.268,0.207-0.402
		c0.006-0.011,0.012-0.022,0.02-0.032c0.005-0.006,0.014-0.006,0.019,0.001c0.012,0.016,0.023,0.033,0.033,0.05
		c0.163,0.28,0.326,0.56,0.489,0.84c0.138,0.237,0.276,0.473,0.414,0.709c0.129,0.221,0.258,0.443,0.386,0.664
		c0.13,0.224,0.258,0.449,0.391,0.67c0.128,0.213,0.248,0.431,0.376,0.644c0.137,0.228,0.268,0.46,0.402,0.69
		c0.131,0.223,0.26,0.447,0.39,0.671c0.089,0.152,0.18,0.302,0.267,0.455c0.073,0.129,0.074,0.086,0.001,0.213
		c-0.066,0.116-0.132,0.231-0.199,0.346c-0.112,0.193-0.226,0.386-0.338,0.579C21.772,7.8,21.62,8.063,21.467,8.325
		c-0.091,0.156-0.183,0.312-0.274,0.468c-0.157,0.269-0.313,0.538-0.47,0.807c-0.091,0.156-0.183,0.312-0.274,0.468
		c-0.154,0.265-0.308,0.53-0.462,0.794c-0.091,0.156-0.183,0.312-0.274,0.468c-0.062,0.106-0.124,0.213-0.185,0.319
		c-0.076,0.13-0.152,0.26-0.228,0.39c-0.008,0.013-0.017,0.025-0.024,0.038c-0.007,0.012-0.018,0.017-0.031,0.018
		c-0.018,0.001-0.035,0.001-0.053,0.001c-2.071,0-4.142,0-6.213,0C12.955,12.098,12.932,12.098,12.899,12.098z"/>
	<path fill="#00BF40" d="M11.791,2.318c0-0.004,0.001-0.008,0.004-0.011c0.004-0.006,0.008-0.011,0.011-0.017
		c0-0.005,0.002-0.009,0.005-0.013c0.003-0.006,0.006-0.011,0.011-0.015c0.002-0.005,0.004-0.01,0.006-0.015
		c0.002-0.005,0.005-0.01,0.01-0.012l0.001-0.002c0.005-0.006,0.01-0.012,0.012-0.02c0-0.005,0.001-0.008,0.005-0.012
		c0.004-0.005,0.008-0.011,0.011-0.017c0-0.005,0.002-0.01,0.005-0.014c0.003-0.005,0.006-0.01,0.01-0.015
		c0.002-0.005,0.004-0.01,0.006-0.016c0.001-0.005,0.005-0.009,0.01-0.012L11.9,2.127c0.004-0.006,0.01-0.011,0.012-0.019
		c0-0.005,0.002-0.009,0.005-0.012c0.004-0.005,0.007-0.011,0.011-0.016c0.02-0.038,0.039-0.076,0.06-0.113
		c0.162-0.28,0.325-0.56,0.488-0.84c0.058-0.1,0.119-0.198,0.176-0.298c0.017-0.03,0.038-0.045,0.072-0.042
		c0.017,0.002,0.035,0,0.053,0c2.113,0,4.227,0,6.34,0c0.02,0,0.04,0,0.06,0c0.032,0.001,0.037,0.008,0.025,0.035
		c-0.007,0.016-0.015,0.032-0.023,0.047c-0.144,0.284-0.289,0.569-0.434,0.853c-0.031,0.06-0.063,0.12-0.093,0.181
		c-0.014,0.028-0.03,0.045-0.064,0.041c-0.02-0.002-0.04,0-0.06,0c-1.694,0-3.387,0-5.081,0c-0.032,0-0.069-0.011-0.096,0.007
		c-0.023,0.016-0.036,0.047-0.051,0.073c-0.058,0.097-0.114,0.195-0.172,0.292c-0.017,0.028-0.035,0.055-0.052,0.082
		c-0.035,0.027-0.076,0.026-0.115,0.022c-0.272-0.028-0.545-0.008-0.818-0.014c-0.098-0.002-0.195,0.004-0.293-0.003
		c-0.037-0.002-0.085-0.004-0.072-0.066l0-0.001C11.784,2.332,11.789,2.326,11.791,2.318z"/>
	<path fill="#007F80" d="M14.221,7.812c-0.043,0.056-0.102,0.096-0.152,0.145C14.044,7.981,14.014,8,13.997,8.034
		c0.03,0.018,0.06,0.015,0.09,0.015c0.131,0,0.261,0,0.392,0c0.402,0,0.804,0,1.205,0c0.098,0,0.091-0.006,0.091,0.088
		c0,0.254,0,0.507,0,0.761c0,0.02,0,0.04-0.001,0.06c-0.001,0.014-0.008,0.024-0.023,0.025c-0.02,0.001-0.04,0.002-0.06,0.002
		c-0.982,0-1.964,0-2.946,0c-0.013,0-0.025,0-0.038,0c-0.036-0.002-0.043-0.008-0.043-0.046c-0.001-0.063,0-0.126,0-0.188
		c0-0.196,0-0.392,0-0.588c0-0.088-0.007-0.074,0.055-0.129c0.043-0.039,0.084-0.079,0.126-0.119
		c0.277-0.024,0.553-0.054,0.829-0.081c0.127-0.013,0.254-0.028,0.381-0.04C14.11,7.79,14.169,7.774,14.221,7.812z"/>
	<path fill="#00D22D" d="M16.68,5.354c-0.002-0.063,0-0.125,0.008-0.188c0.002-0.012,0.003-0.025,0.004-0.037
		c0.007-0.133,0.013-0.266,0.021-0.399c0.009-0.165,0.02-0.331,0.03-0.496c0-0.005,0.001-0.01,0.001-0.015
		c0.001-0.017,0.011-0.028,0.028-0.029c0.018-0.001,0.035-0.001,0.053-0.001c0.909,0,1.819,0,2.728,0
		c0.081,0,0.079-0.002,0.079,0.077c0,0.259,0,0.517-0.001,0.776c0,0.008,0,0.015,0,0.023c-0.001,0.056-0.004,0.059-0.061,0.059
		c-0.085,0.001-0.171,0-0.256,0c-0.52,0-1.04,0-1.56,0c-0.106,0-0.09-0.017-0.109,0.094c-0.001,0.005-0.002,0.01-0.003,0.015
		c-0.004,0.069-0.057,0.074-0.107,0.079c-0.159,0.015-0.319,0.03-0.478,0.048c-0.082,0.009-0.164,0.016-0.246,0.026
		C16.764,5.393,16.715,5.397,16.68,5.354z"/>
	<path fill="#0043BC" d="M11.223,9.713c-0.003-0.003-0.005-0.007-0.005-0.012c-0.002-0.007-0.007-0.012-0.012-0.018
		c-0.003-0.003-0.004-0.006-0.004-0.01c-0.001-0.009-0.007-0.015-0.013-0.021l0,0c-0.004-0.004-0.008-0.009-0.01-0.014
		c-0.004-0.004-0.005-0.008-0.005-0.014c-0.004-0.006-0.007-0.011-0.011-0.017c-0.003-0.003-0.005-0.007-0.005-0.012
		c0.005-0.059,0.026-0.078,0.1-0.069c0.095,0.012,0.19,0.011,0.285,0.011c0.261,0,0.521,0,0.782,0c0.056,0,0.11,0.004,0.157,0.039
		c0.068,0.099,0.125,0.206,0.185,0.31c0.099,0.169,0.198,0.338,0.296,0.507c0.103,0.178,0.207,0.356,0.309,0.534
		c0.017,0.03,0.043,0.055,0.051,0.09c-0.044,0.022-0.045,0.022-0.064,0.059c-0.08,0.151-0.16,0.301-0.24,0.452
		c-0.111,0.208-0.223,0.416-0.334,0.623c-0.005,0.009-0.008,0.019-0.023,0.024c-0.013,0.002-0.014-0.014-0.02-0.024
		c-0.162-0.277-0.323-0.555-0.484-0.832c-0.129-0.221-0.255-0.444-0.387-0.663c-0.106-0.176-0.207-0.355-0.31-0.533
		c-0.006-0.011-0.011-0.022-0.016-0.034c-0.004-0.004-0.008-0.009-0.01-0.014c-0.002-0.005-0.004-0.009-0.006-0.014
		c-0.003-0.006-0.007-0.011-0.011-0.016c-0.003-0.003-0.005-0.007-0.005-0.012c-0.002-0.008-0.007-0.013-0.012-0.019l-0.001-0.002
		c-0.005-0.003-0.008-0.006-0.01-0.012c-0.002-0.005-0.004-0.01-0.006-0.015c-0.004-0.005-0.007-0.01-0.01-0.015
		c-0.003-0.004-0.005-0.008-0.005-0.013c-0.003-0.007-0.008-0.013-0.013-0.018l0-0.001c-0.004-0.004-0.008-0.008-0.011-0.014
		c-0.004-0.004-0.005-0.008-0.005-0.013c-0.003-0.006-0.007-0.011-0.011-0.017c-0.003-0.003-0.005-0.007-0.005-0.011
		c-0.002-0.008-0.007-0.014-0.012-0.02L11.31,9.861c-0.005-0.003-0.008-0.007-0.01-0.012c-0.002-0.005-0.004-0.01-0.006-0.015
		c-0.004-0.005-0.008-0.01-0.011-0.016c-0.003-0.004-0.005-0.008-0.005-0.013c-0.003-0.006-0.007-0.012-0.011-0.018
		c-0.003-0.003-0.005-0.006-0.004-0.011c-0.001-0.009-0.007-0.014-0.013-0.02l0-0.001c-0.005-0.004-0.008-0.008-0.01-0.013
		c-0.002-0.005-0.004-0.009-0.006-0.014C11.23,9.724,11.227,9.719,11.223,9.713z"/>
	<path fill="#00718E" d="M10.143,7.86c-0.052-0.071-0.09-0.15-0.135-0.225C9.873,7.403,9.738,7.171,9.603,6.94
		C9.526,6.808,9.449,6.675,9.371,6.544C9.352,6.513,9.35,6.487,9.37,6.455c0.062-0.103,0.122-0.207,0.183-0.311
		C9.598,6.066,9.643,5.988,9.689,5.91C9.695,5.9,9.703,5.89,9.711,5.88c0.412,0.016,0.824,0.003,1.235,0.008
		c0.03,0,0.061-0.001,0.084,0.025c-0.016,0.031-0.032,0.063-0.049,0.093C10.89,6.16,10.8,6.314,10.71,6.467
		c-0.013,0.021-0.013,0.039,0,0.062c0.105,0.177,0.208,0.355,0.312,0.532c0.101,0.173,0.201,0.347,0.302,0.521
		c0.04,0.069,0.082,0.138,0.123,0.207c0.013,0.022,0.028,0.042,0.033,0.067c-0.023,0.025-0.054,0.024-0.084,0.024
		c-0.405,0.007-0.81-0.027-1.216-0.014C10.167,7.867,10.155,7.865,10.143,7.86z"/>
	<path fill="#00DC22" d="M15.621,4.961c0.003,0.004,0.005,0.008,0.004,0.013c0.007,0.01,0.005,0.022,0.011,0.032
		c0.002,0.009,0.003,0.018,0.005,0.027c0.009,0.069-0.042,0.078-0.089,0.083c-0.202,0.024-0.404,0.041-0.606,0.063
		c-0.122,0.013-0.244,0.025-0.367,0.037c-0.036,0.004-0.07,0.008-0.101-0.015l-0.001,0c-0.006-0.005-0.012-0.011-0.019-0.013
		c-0.005,0-0.008-0.002-0.011-0.005c-0.006-0.003-0.011-0.007-0.016-0.011c-0.146-0.075-0.302-0.104-0.465-0.107
		c-0.174-0.004-0.347,0.004-0.519,0.02c-0.222,0.021-0.444,0.045-0.664,0.083c-0.028,0.005-0.035-0.002-0.038-0.031
		c-0.005-0.065-0.01-0.13-0.014-0.195c-0.007-0.115-0.014-0.231-0.021-0.346c-0.005-0.083-0.012-0.165-0.016-0.248
		c-0.003-0.053,0-0.056,0.049-0.066C12.872,4.257,13,4.232,13.128,4.207c0.165-0.032,0.332-0.051,0.499-0.071
		c0.08-0.01,0.16-0.013,0.24-0.019c0.048-0.004,0.095-0.007,0.143-0.009c0.163-0.008,0.326,0.001,0.489,0.019
		c0.11,0.012,0.218,0.036,0.324,0.066c0.157,0.044,0.3,0.115,0.429,0.213c0.161,0.124,0.274,0.285,0.343,0.476
		c0.002,0.005,0.001,0.01,0.002,0.015c0.001,0.007,0.006,0.013,0.009,0.019c0.002,0.009,0.004,0.017,0.006,0.026
		C15.611,4.95,15.617,4.955,15.621,4.961z"/>
	<path fill="#00A05F" d="M11.778,2.338c0.002,0.026,0.015,0.042,0.042,0.044c0.02,0.001,0.04,0.001,0.06,0.001
		c0.309,0,0.618,0,0.927,0c0.032,0,0.065-0.002,0.097,0.01c0.016,0.006,0.035,0.004,0.052,0.005c0.04,0.001,0.08,0.001,0.121,0.001
		c-0.007,0.035-0.031,0.062-0.049,0.093c-0.136,0.234-0.272,0.467-0.408,0.701c-0.154,0.264-0.307,0.528-0.461,0.792
		c-0.035,0.06-0.074,0.118-0.111,0.178c-0.032,0.024-0.07,0.025-0.108,0.025c-0.363,0-0.726,0.001-1.089-0.001
		c-0.044,0-0.107,0.018-0.117-0.058c0-0.004,0.002-0.008,0.005-0.011c0.004-0.006,0.009-0.011,0.012-0.018
		c0-0.005,0.001-0.009,0.005-0.013c0.003-0.005,0.007-0.011,0.011-0.016c0.002-0.005,0.004-0.01,0.006-0.015
		c0.002-0.005,0.005-0.01,0.01-0.013l0.001-0.001c0.005-0.006,0.011-0.012,0.013-0.02c0-0.004,0.001-0.008,0.004-0.011
		C10.804,4.005,10.808,4,10.811,3.994c0-0.005,0.002-0.01,0.005-0.013c0.003-0.005,0.007-0.01,0.011-0.015
		c0.002-0.005,0.004-0.01,0.006-0.015c0.002-0.005,0.005-0.009,0.01-0.012l0.001-0.002c0.005-0.006,0.01-0.012,0.012-0.02
		c0-0.005,0.001-0.008,0.005-0.012c0.004-0.005,0.008-0.011,0.011-0.016c0.002-0.005,0.004-0.009,0.005-0.014
		c0.003-0.005,0.006-0.01,0.01-0.014c0.006-0.01,0.012-0.02,0.017-0.031c0.005-0.006,0.01-0.011,0.012-0.018
		c0-0.005,0.001-0.009,0.005-0.012c0.004-0.005,0.007-0.011,0.011-0.016c0.002-0.005,0.004-0.01,0.006-0.015
		c0.002-0.005,0.006-0.01,0.01-0.013c0.002-0.013,0.01-0.023,0.018-0.032c0.003-0.005,0.007-0.01,0.012-0.014
		c0.011-0.02,0.023-0.041,0.034-0.061c0.003-0.005,0.007-0.01,0.011-0.015c0.002-0.005,0.004-0.01,0.006-0.015
		c0.002-0.005,0.005-0.009,0.01-0.012c0.007-0.024,0.02-0.043,0.034-0.063c0.003-0.005,0.006-0.01,0.01-0.015
		c0.002-0.005,0.004-0.01,0.006-0.016c0.001-0.005,0.005-0.009,0.009-0.011c0.007-0.024,0.02-0.044,0.035-0.064
		c0.003-0.005,0.006-0.01,0.01-0.014c0.059-0.119,0.13-0.232,0.196-0.347c0.069-0.12,0.14-0.238,0.209-0.357
		c0.07-0.119,0.14-0.238,0.21-0.357C11.764,2.353,11.772,2.346,11.778,2.338z"/>
	<path fill="#00A659" d="M18.702,7.224c-0.009-0.021-0.017-0.042-0.026-0.062c-0.067-0.154-0.185-0.246-0.347-0.285
		c-0.138-0.033-0.278-0.036-0.419-0.019c-0.055,0.007-0.11,0.009-0.165,0.016c-0.115,0.015-0.227,0.038-0.338,0.071
		c-0.033,0.009-0.064,0.011-0.096,0.004c-0.223-0.048-0.445-0.097-0.668-0.145c-0.01-0.002-0.02-0.003-0.03-0.006
		c-0.016-0.005-0.025-0.016-0.025-0.033c0.001-0.04,0.003-0.08,0.005-0.12c0.001-0.017,0.005-0.035,0.006-0.052
		c0.007-0.133,0.014-0.266,0.02-0.398c0.001-0.02-0.001-0.04,0.011-0.058c0.026,0.023,0.023,0.055,0.024,0.084
		c0.002,0.052,0.027,0.069,0.078,0.066c0.183-0.014,0.365-0.037,0.547-0.055c0.382-0.036,0.765-0.077,1.147-0.116
		c0.147-0.015,0.295-0.027,0.442-0.047c0.02-0.003,0.04-0.004,0.056-0.018c0.219,0.066,0.401,0.188,0.549,0.363
		c0.131,0.155,0.204,0.337,0.249,0.532c0.009,0.041,0.022,0.082,0.018,0.126c0.02,0.073-0.032,0.079-0.081,0.085
		c-0.149,0.018-0.299,0.029-0.449,0.047c-0.129,0.015-0.259,0.025-0.389,0.04C18.782,7.246,18.739,7.255,18.702,7.224z"/>
	<path fill="#008F70" d="M10.734,4.128c0.01,0.023,0.027,0.035,0.053,0.035c0.01,0,0.02,0,0.03,0c0.41,0,0.821,0,1.231,0
		c-0.023,0.061-0.061,0.115-0.093,0.171c-0.189,0.327-0.38,0.653-0.57,0.98c-0.111,0.19-0.222,0.381-0.333,0.571
		c-0.006,0.011-0.015,0.02-0.022,0.03c-0.032-0.001-0.065-0.002-0.097-0.002c-0.367,0-0.735,0-1.102,0
		c-0.043,0-0.085-0.001-0.119-0.032c0.022-0.042,0.042-0.085,0.067-0.125c0.123-0.198,0.235-0.403,0.353-0.604
		c0.112-0.19,0.223-0.381,0.334-0.572c0.08-0.136,0.16-0.273,0.24-0.409C10.713,4.155,10.724,4.142,10.734,4.128z"/>
	<path fill="#005BA4" d="M10.143,7.86c0.025-0.013,0.051-0.018,0.08-0.018c0.201,0.001,0.402,0,0.603,0
		c0.013,0,0.026-0.002,0.037,0.002c0.059,0.021,0.119,0.013,0.179,0.013c0.146,0.001,0.291,0,0.437-0.001
		c0.057,0.079,0.101,0.167,0.15,0.251c0.1,0.168,0.198,0.337,0.296,0.506c0.184,0.316,0.368,0.633,0.552,0.949
		c0.002,0.004,0.003,0.009,0.005,0.014c-0.127-0.025-0.255-0.014-0.382-0.015c-0.241-0.001-0.483,0-0.724,0
		c-0.03,0-0.059,0-0.089-0.009c-0.023-0.007-0.05-0.004-0.075-0.005c-0.034-0.001-0.051,0.016-0.055,0.049
		c-0.04-0.045-0.064-0.101-0.094-0.153c-0.136-0.231-0.27-0.463-0.405-0.694c-0.138-0.238-0.277-0.476-0.415-0.714
		c-0.007-0.013-0.013-0.027-0.02-0.04c-0.004-0.004-0.008-0.009-0.01-0.014c-0.004-0.004-0.005-0.009-0.005-0.014
		c-0.003-0.006-0.009-0.012-0.012-0.018l-0.001-0.002c-0.005-0.003-0.009-0.007-0.011-0.012c-0.002-0.005-0.004-0.009-0.005-0.014
		c-0.004-0.005-0.007-0.011-0.011-0.016c-0.003-0.003-0.005-0.007-0.005-0.012c-0.002-0.007-0.007-0.013-0.012-0.019
		C10.148,7.869,10.146,7.864,10.143,7.86z"/>
	<path fill="#007689" d="M19.652,8.159c-0.001,0.005-0.003,0.01-0.004,0.016c-0.007,0.009-0.004,0.022-0.012,0.029
		c-0.001,0.005-0.003,0.011-0.004,0.016c-0.003,0.006-0.007,0.011-0.01,0.016c-0.018,0.066-0.053,0.125-0.089,0.182
		c-0.046,0.072-0.098,0.14-0.156,0.203c-0.18,0.193-0.404,0.312-0.656,0.38c-0.165,0.045-0.334,0.068-0.506,0.066
		c-0.108-0.001-0.216,0-0.324-0.005c-0.083-0.004-0.165-0.015-0.247-0.024c-0.052-0.005-0.105-0.011-0.157-0.017
		c-0.144-0.017-0.288-0.041-0.431-0.066c-0.163-0.029-0.325-0.062-0.485-0.102c-0.019-0.005-0.039-0.01-0.058-0.015
		c-0.027-0.008-0.032-0.013-0.029-0.043c0.006-0.06,0.011-0.12,0.022-0.179c0.009-0.047,0-0.096,0.022-0.141
		c0.021-0.025,0.048-0.034,0.08-0.037c0.51-0.05,1.019-0.102,1.529-0.154c0.469-0.048,0.939-0.095,1.408-0.144
		C19.582,8.137,19.62,8.129,19.652,8.159z"/>
	<path fill="#00A25D" d="M14.221,7.812c-0.038,0-0.075,0-0.113,0c-0.025,0-0.05-0.001-0.074,0.009
		c-0.007,0.003-0.015,0.006-0.022,0.005c-0.07-0.008-0.139,0.01-0.208,0.019c-0.071,0.009-0.144,0.005-0.214,0.024
		c-0.019,0.005-0.04,0.003-0.06,0.004c-0.03,0.001-0.059-0.001-0.089,0.01c-0.016,0.006-0.034,0.004-0.052,0.005
		c-0.035,0.001-0.069-0.001-0.104,0.012c-0.016,0.006-0.035,0.003-0.052,0.004c-0.032,0.001-0.064-0.001-0.096,0.011
		c-0.018,0.006-0.039,0.004-0.059,0.004c-0.03,0.001-0.059,0.003-0.089,0.009c-0.049,0.01-0.099,0.015-0.146-0.011
		c0.028-0.039,0.067-0.068,0.101-0.101c0.23-0.225,0.46-0.449,0.69-0.673c0.173-0.168,0.339-0.342,0.502-0.519
		c0.049-0.054,0.095-0.111,0.142-0.166c0.01-0.011,0.021-0.021,0.031-0.032c0.141,0.01,0.279-0.02,0.419-0.031
		c0.232-0.018,0.463-0.051,0.696-0.068c0.032-0.002,0.066-0.01,0.09,0.023c-0.021,0.062-0.055,0.117-0.088,0.174
		c-0.087,0.15-0.197,0.283-0.31,0.414c-0.201,0.234-0.423,0.447-0.651,0.655c-0.061,0.056-0.122,0.112-0.183,0.167
		C14.263,7.777,14.242,7.794,14.221,7.812z"/>
	<path fill="#00817E" d="M19.652,8.159c-0.047,0.001-0.095-0.005-0.142,0.012c-0.016,0.006-0.035,0.002-0.052,0.003
		c-0.03,0-0.06-0.001-0.089,0.01c-0.016,0.006-0.035,0.004-0.052,0.005c-0.035,0.001-0.07-0.002-0.104,0.012
		c-0.011,0.005-0.025,0.003-0.037,0.003c-0.04,0-0.08-0.001-0.119,0.013c-0.014,0.005-0.03,0.002-0.045,0.002
		c-0.033,0.001-0.065-0.001-0.097,0.011c-0.018,0.006-0.04,0.004-0.06,0.004c-0.03,0.001-0.06-0.001-0.089,0.01
		c-0.016,0.006-0.035,0.004-0.052,0.005c-0.035,0.001-0.07-0.001-0.104,0.012c-0.016,0.006-0.035,0.003-0.052,0.003
		c-0.025,0.001-0.05-0.001-0.074,0.009c-0.011,0.004-0.024,0.005-0.037,0.006c-0.045,0.001-0.091-0.004-0.134,0.014
		c-0.073-0.008-0.144,0.02-0.217,0.016c-0.02-0.001-0.04-0.001-0.059,0.007c-0.009,0.004-0.02,0.008-0.029,0.007
		c-0.071-0.008-0.14,0.01-0.209,0.019c-0.072,0.01-0.145,0.002-0.215,0.024c-0.012,0.004-0.025,0.003-0.037,0.003
		c-0.04,0-0.08-0.001-0.119,0.013c-0.014,0.005-0.03,0.002-0.045,0.002c-0.033,0.001-0.065-0.001-0.097,0.011
		c-0.018,0.006-0.04,0.004-0.06,0.004c-0.03,0.001-0.06-0.001-0.089,0.01c-0.016,0.006-0.035,0.004-0.052,0.005
		c-0.035,0.001-0.07-0.001-0.104,0.012c-0.016,0.006-0.035,0.003-0.052,0.003c-0.025,0.001-0.05-0.001-0.074,0.009
		c-0.004,0.002-0.01,0.004-0.014,0.004c-0.065-0.003-0.129,0.014-0.194,0.016c-0.04,0.001-0.08,0.003-0.118,0.016
		c-0.005-0.071,0.015-0.139,0.021-0.209c0.005-0.07,0.016-0.139,0.027-0.209c0.013-0.083,0.009-0.085,0.091-0.07
		c0.143,0.027,0.287,0.045,0.431,0.067c0.094,0.014,0.188,0.028,0.283,0.04c0.065,0.008,0.13,0.013,0.195,0.019
		c0.085,0.008,0.169,0.019,0.254,0.024c0.128,0.009,0.256,0.013,0.384,0.003c0.093-0.007,0.181-0.035,0.262-0.087
		c0.092-0.059,0.157-0.14,0.197-0.241c0.073-0.183,0.081-0.37,0.035-0.561c-0.002-0.01-0.003-0.02-0.005-0.03
		c0.052-0.001,0.105,0.005,0.156-0.013c0.014-0.005,0.03-0.002,0.045-0.002c0.033,0,0.065,0.001,0.096-0.011
		c0.016-0.006,0.035-0.003,0.052-0.004c0.032-0.001,0.065,0.002,0.097-0.011c0.016-0.006,0.035-0.004,0.052-0.005
		c0.028-0.001,0.055,0,0.082-0.01c0.016-0.006,0.035-0.005,0.052-0.005c0.035-0.001,0.07,0.003,0.104-0.012
		c0.004-0.002,0.01-0.003,0.015-0.002c0.071,0.008,0.139-0.019,0.209-0.016c0.01,0,0.02,0,0.03-0.002
		c0.033-0.007,0.054-0.025,0.051-0.062c0.011,0.012,0.011,0.027,0.013,0.042c0.017,0.119,0.018,0.239,0.017,0.359
		c-0.001,0.193-0.025,0.384-0.077,0.57C19.684,8.081,19.676,8.123,19.652,8.159z"/>
	<path fill="#00BD41" d="M15.516,6.349c-0.062-0.007-0.124-0.003-0.185,0.006c-0.027,0.004-0.054,0.009-0.081,0.009
		c-0.03,0-0.06,0-0.089,0.01c-0.016,0.006-0.035,0.004-0.052,0.005c-0.027,0.001-0.055,0-0.081,0.01
		c-0.013,0.005-0.029,0.005-0.044,0.005c-0.04,0.001-0.08-0.001-0.119,0.013c-0.016,0.006-0.035,0.002-0.052,0.003
		c-0.03,0-0.06,0-0.089,0.01c-0.016,0.006-0.034,0.004-0.052,0.005c-0.035,0.001-0.07-0.001-0.104,0.012
		c-0.016,0.006-0.035,0.003-0.052,0.003c-0.032,0.001-0.064,0-0.096,0.011c-0.02,0.007-0.045,0.004-0.067,0.003
		c-0.019,0-0.032-0.012-0.041-0.029c0,0,0,0,0,0c0.005-0.005,0.01-0.011,0.014-0.018c0.007-0.01,0.014-0.019,0.02-0.029
		c0.002-0.005,0.006-0.01,0.011-0.012l0.001-0.002c0.004-0.006,0.009-0.011,0.013-0.017c0.007-0.01,0.013-0.019,0.02-0.029
		c0.003-0.005,0.007-0.01,0.011-0.013l0.001-0.001c0.005-0.006,0.01-0.011,0.013-0.018c0-0.005,0.002-0.009,0.006-0.013
		c0.002-0.005,0.006-0.009,0.011-0.012l0.001-0.002c0.004-0.006,0.01-0.011,0.012-0.018c0-0.005,0.002-0.009,0.006-0.013
		c0.002-0.005,0.006-0.009,0.011-0.012l0.002-0.002c0.004-0.006,0.008-0.011,0.012-0.016c0.002-0.005,0.004-0.01,0.007-0.015
		c0.001-0.005,0.004-0.009,0.01-0.011l0.001-0.002c0.004-0.006,0.01-0.011,0.012-0.019c0-0.005,0.002-0.009,0.005-0.013
		c0.004-0.005,0.007-0.011,0.011-0.016c0.002-0.005,0.004-0.009,0.005-0.014c0.003-0.005,0.006-0.01,0.01-0.015
		c0.017-0.041,0.034-0.083,0.051-0.124c0.041-0.1,0.061-0.206,0.066-0.314c0.004-0.085-0.007-0.169-0.036-0.25
		c-0.02-0.058-0.051-0.108-0.094-0.151c-0.016-0.016-0.03-0.033-0.046-0.049c0.035,0,0.07,0.004,0.103-0.012
		c0.002-0.001,0.005-0.001,0.007-0.001c0.07,0.006,0.138-0.017,0.208-0.017c0.027,0,0.055,0,0.081-0.01
		c0.013-0.005,0.029-0.005,0.044-0.005c0.032-0.001,0.064,0.001,0.096-0.011c0.016-0.006,0.035-0.003,0.052-0.004
		c0.032-0.001,0.065,0.002,0.096-0.01c0.016-0.006,0.034-0.004,0.052-0.005c0.035-0.001,0.07,0.003,0.103-0.012
		c0.004-0.002,0.01-0.003,0.015-0.002c0.073,0.008,0.143-0.019,0.216-0.017c0.042,0.001,0.08-0.012,0.088-0.063
		c0.03,0.062,0.033,0.13,0.041,0.196c0.014,0.112,0.021,0.224,0.015,0.337c-0.008,0.152-0.017,0.305-0.058,0.453
		C15.607,6.133,15.575,6.246,15.516,6.349z"/>
	<path fill="#00B54A" d="M18.926,6.049c-0.002,0.026-0.017,0.044-0.043,0.042c-0.068-0.004-0.133,0.025-0.202,0.016
		c-0.067,0.023-0.14,0.005-0.207,0.027c-0.012,0.004-0.025,0.003-0.037,0.003c-0.04,0-0.08-0.002-0.119,0.013
		c-0.013,0.005-0.03,0.002-0.045,0.002c-0.032,0.001-0.065-0.001-0.097,0.011c-0.016,0.006-0.035,0.004-0.052,0.004
		c-0.028,0.001-0.055,0-0.082,0.01c-0.016,0.006-0.035,0.005-0.052,0.005c-0.035,0.001-0.07-0.003-0.104,0.012
		c-0.004,0.002-0.01,0.002-0.015,0.002c-0.055-0.002-0.109,0.007-0.164,0.015c-0.044,0.006-0.09-0.003-0.134,0.015
		c-0.073-0.008-0.144,0.019-0.217,0.016c-0.02-0.001-0.04-0.001-0.059,0.007c-0.009,0.004-0.02,0.008-0.029,0.007
		c-0.071-0.008-0.14,0.01-0.209,0.019c-0.072,0.01-0.145,0.003-0.215,0.024c-0.019,0.006-0.04,0.003-0.06,0.003
		c-0.025,0.001-0.05,0-0.075,0.006c-0.045,0.012-0.073-0.009-0.076-0.055c-0.002-0.04-0.002-0.08-0.002-0.121
		c0-0.085,0-0.171,0.012-0.256c0.001-0.007,0.001-0.015,0.002-0.023c0.007-0.13,0.013-0.261,0.02-0.391
		c0.002-0.037,0.009-0.075,0.013-0.112c0.054,0.016,0.107,0.023,0.162,0.004c0.018-0.006,0.04-0.004,0.06-0.004
		c0.03-0.001,0.06,0.001,0.089-0.01c0.013-0.005,0.03-0.004,0.044-0.005c0.032-0.001,0.065,0.002,0.096-0.012
		c0.002-0.001,0.005-0.001,0.007-0.001c0.073,0.006,0.143-0.018,0.216-0.017c0.02,0,0.041,0,0.059-0.006
		c0.027-0.009,0.054-0.008,0.082-0.008c0.027-0.001,0.054-0.004,0.081-0.009c0.034-0.006,0.053-0.022,0.066-0.051
		c0.005,0.051-0.011,0.1-0.015,0.149c-0.009,0.1-0.025,0.199-0.038,0.298c-0.008,0.062-0.016,0.124-0.024,0.186
		c-0.007,0.015,0,0.032-0.01,0.046c-0.002,0.015-0.003,0.03-0.005,0.044c-0.007,0.015-0.001,0.033-0.009,0.048
		c0,0.018-0.001,0.036-0.001,0.055c0.008,0.01,0.018,0.01,0.029,0.005c0.01-0.002,0.019-0.003,0.029-0.005
		c0.009-0.007,0.022-0.005,0.031-0.011c0.009-0.001,0.018-0.003,0.027-0.004c0.006-0.003,0.012-0.006,0.018-0.009
		c0.014-0.002,0.027-0.004,0.041-0.006c0.008-0.001,0.013-0.006,0.019-0.009c0.014-0.002,0.027-0.004,0.041-0.006
		c0.008-0.001,0.013-0.006,0.019-0.009c0.014-0.002,0.028-0.004,0.043-0.006c0.01-0.006,0.023-0.005,0.033-0.01
		c0.01-0.001,0.02-0.002,0.03-0.004c0.009-0.008,0.02-0.006,0.03-0.01c0.02-0.002,0.039-0.004,0.059-0.006
		c0.01-0.006,0.022-0.005,0.032-0.01c0.024-0.002,0.049-0.004,0.073-0.006c0.02-0.011,0.043-0.001,0.063-0.01
		c0.046-0.005,0.092-0.005,0.138,0c0.045,0.013,0.092-0.005,0.137,0.011c0.03,0.001,0.059,0.003,0.089,0.004
		c0.015,0.008,0.033,0.002,0.048,0.01c0.019,0.002,0.038,0.003,0.057,0.005c0.014,0.009,0.033,0,0.046,0.011
		c0.015,0.002,0.03,0.003,0.044,0.005c0.01,0.005,0.022,0.004,0.032,0.01c0.009,0.001,0.019,0.002,0.028,0.004
		c0.01,0.007,0.023,0.005,0.032,0.011c0.009,0.001,0.019,0.003,0.028,0.004c0.009,0.006,0.022,0.004,0.03,0.011
		c0.01,0.002,0.02,0.004,0.03,0.005c0.006,0.003,0.011,0.006,0.016,0.009C18.918,6.046,18.922,6.047,18.926,6.049z"/>
	<path fill="#00A659" d="M18.431,5.956c-0.035,0-0.069,0.001-0.103,0.001c-0.013,0-0.024-0.002-0.034-0.012
		C18.34,5.944,18.387,5.937,18.431,5.956z"/>
	<path fill="#00A659" d="M18.156,5.945c-0.019,0.018-0.041,0.01-0.063,0.01C18.112,5.941,18.134,5.943,18.156,5.945z"/>
	<path fill="#00A659" d="M17.555,5.914c-0.001-0.016-0.004-0.033,0.01-0.046C17.568,5.885,17.568,5.901,17.555,5.914z"/>
	<path fill="#00A659" d="M18.672,5.986c-0.016,0.001-0.034,0.004-0.046-0.011C18.643,5.973,18.659,5.974,18.672,5.986z"/>
	<path fill="#00A659" d="M18.569,5.97c-0.017,0.001-0.035,0.005-0.048-0.01C18.538,5.958,18.554,5.958,18.569,5.97z"/>
	<path fill="#00A659" d="M17.541,6.006c-0.001-0.017-0.005-0.034,0.009-0.048C17.553,5.976,17.553,5.992,17.541,6.006z"/>
	<path fill="#00A659" d="M18.867,6.032c-0.012,0.001-0.023-0.001-0.03-0.011C18.849,6.019,18.859,6.022,18.867,6.032z"/>
	<path fill="#00A659" d="M17.629,6.05c-0.008,0.011-0.019,0.012-0.031,0.011C17.606,6.052,17.616,6.049,17.629,6.05z"/>
	<path fill="#00A659" d="M17.568,6.067c-0.012,0.013-0.022,0.01-0.029-0.005C17.549,6.063,17.558,6.065,17.568,6.067z"/>
	<path fill="#00A659" d="M18.748,6.001c-0.012,0.001-0.023,0-0.032-0.01C18.729,5.989,18.739,5.992,18.748,6.001z"/>
	<path fill="#00A659" d="M18.809,6.016c-0.013,0.001-0.024,0-0.032-0.011C18.789,6.003,18.8,6.006,18.809,6.016z"/>
	<path fill="#00A659" d="M17.87,5.99c-0.009,0.011-0.02,0.012-0.033,0.01C17.846,5.991,17.857,5.988,17.87,5.99z"/>
	<path fill="#00817E" d="M19.635,8.204c0-0.012,0.002-0.022,0.012-0.029C19.649,8.187,19.645,8.197,19.635,8.204z"/>
	<path fill="#00A659" d="M17.93,5.977c-0.008,0.009-0.019,0.01-0.03,0.01C17.908,5.978,17.918,5.975,17.93,5.977z"/>
	<path fill="#00A659" d="M18.02,5.961c-0.008,0.01-0.02,0.011-0.032,0.01C17.997,5.962,18.008,5.959,18.02,5.961z"/>
	<path fill="#00BD41" d="M15.636,5.006c-0.011-0.008-0.013-0.019-0.011-0.032C15.635,4.983,15.637,4.994,15.636,5.006z"/>
	<path fill="#008F70" d="M10.811,3.994c-0.004,0.006-0.008,0.011-0.011,0.017C10.8,4.003,10.805,3.997,10.811,3.994z"/>
	<path fill="#008F70" d="M10.796,4.022c-0.001,0.009-0.005,0.016-0.013,0.02C10.784,4.033,10.788,4.026,10.796,4.022z"/>
	<path fill="#008F70" d="M10.783,4.043c-0.003,0.004-0.007,0.008-0.01,0.013C10.776,4.051,10.779,4.047,10.783,4.043z"/>
	<path fill="#008F70" d="M10.767,4.07c-0.004,0.005-0.007,0.01-0.011,0.016C10.759,4.081,10.763,4.076,10.767,4.07z"/>
	<path fill="#008F70" d="M10.751,4.099c-0.004,0.006-0.008,0.012-0.012,0.018C10.74,4.108,10.744,4.102,10.751,4.099z"/>
	<path fill="#00BD41" d="M15.605,4.916c-0.007-0.004-0.01-0.011-0.009-0.019C15.602,4.901,15.606,4.908,15.605,4.916z"/>
	<path fill="#00BD41" d="M15.621,4.961c-0.007-0.005-0.011-0.011-0.01-0.02C15.618,4.946,15.621,4.953,15.621,4.961z"/>
	<path fill="#00BD41" d="M14.431,5.173c0.005,0.004,0.011,0.007,0.016,0.011C14.439,5.185,14.434,5.18,14.431,5.173z"/>
	<path fill="#00BD41" d="M14.458,5.19c0.009,0,0.015,0.005,0.019,0.013C14.469,5.201,14.462,5.198,14.458,5.19z"/>
	<path fill="#00A05F" d="M11.928,2.079c-0.004,0.005-0.007,0.011-0.011,0.016C11.917,2.088,11.921,2.083,11.928,2.079z"/>
	<path fill="#00A05F" d="M11.912,2.108C11.908,2.114,11.904,2.12,11.9,2.127C11.901,2.118,11.904,2.112,11.912,2.108z"/>
	<path fill="#00A05F" d="M11.899,2.129c-0.003,0.004-0.006,0.008-0.01,0.012C11.892,2.137,11.896,2.133,11.899,2.129z"/>
	<path fill="#00A05F" d="M11.883,2.156c-0.003,0.005-0.007,0.01-0.01,0.015C11.876,2.166,11.879,2.161,11.883,2.156z"/>
	<path fill="#00A05F" d="M11.867,2.184c-0.004,0.006-0.007,0.011-0.011,0.017C11.856,2.193,11.86,2.188,11.867,2.184z"/>
	<path fill="#00A05F" d="M11.851,2.213c0,0.009-0.005,0.015-0.012,0.02C11.84,2.224,11.844,2.217,11.851,2.213z"/>
	<path fill="#00A05F" d="M11.838,2.234c-0.003,0.004-0.007,0.008-0.01,0.012C11.832,2.242,11.835,2.238,11.838,2.234z"/>
	<path fill="#00A05F" d="M11.822,2.261c-0.004,0.005-0.007,0.01-0.011,0.015C11.812,2.269,11.816,2.264,11.822,2.261z"/>
	<path fill="#00A05F" d="M11.807,2.289c-0.004,0.006-0.008,0.012-0.011,0.017C11.795,2.299,11.799,2.293,11.807,2.289z"/>
	<path fill="#00A05F" d="M11.791,2.318c0,0.009-0.005,0.016-0.013,0.02C11.779,2.329,11.783,2.322,11.791,2.318z"/>
	<path fill="#00A659" d="M17.794,6.007c-0.006,0.003-0.013,0.006-0.019,0.009C17.78,6.009,17.786,6.006,17.794,6.007z"/>
	<path fill="#00A659" d="M17.734,6.021c-0.006,0.003-0.013,0.006-0.019,0.009C17.72,6.024,17.726,6.021,17.734,6.021z"/>
	<path fill="#00A659" d="M17.674,6.037c-0.006,0.003-0.012,0.006-0.018,0.009C17.66,6.039,17.666,6.036,17.674,6.037z"/>
	<path fill="#00A659" d="M18.914,6.047c-0.005-0.003-0.011-0.006-0.016-0.009C18.903,6.041,18.908,6.044,18.914,6.047z"/>
	<path fill="#008F70" d="M11.144,3.423c-0.003,0.005-0.007,0.009-0.01,0.014C11.137,3.432,11.14,3.428,11.144,3.423z"/>
	<path fill="#00A25D" d="M14.537,6.091c-0.003,0.005-0.007,0.01-0.01,0.015C14.53,6.102,14.533,6.097,14.537,6.091z"/>
	<path fill="#00A25D" d="M14.521,6.121c-0.004,0.005-0.007,0.011-0.011,0.016C14.511,6.129,14.515,6.124,14.521,6.121z"/>
	<path fill="#00A25D" d="M14.506,6.15c-0.004,0.006-0.008,0.013-0.012,0.019C14.495,6.16,14.498,6.154,14.506,6.15z"/>
	<path fill="#00A25D" d="M14.493,6.171c-0.003,0.004-0.006,0.008-0.01,0.011C14.486,6.178,14.49,6.174,14.493,6.171z"/>
	<path fill="#00A25D" d="M14.477,6.197c-0.004,0.005-0.008,0.011-0.012,0.016C14.469,6.208,14.473,6.203,14.477,6.197z"/>
	<path fill="#00A25D" d="M14.463,6.216c-0.004,0.004-0.007,0.008-0.011,0.012C14.452,6.22,14.456,6.217,14.463,6.216z"/>
	<path fill="#00A25D" d="M14.446,6.241c-0.004,0.006-0.008,0.012-0.012,0.018C14.434,6.251,14.438,6.245,14.446,6.241z"/>
	<path fill="#00A25D" d="M14.432,6.261c-0.004,0.004-0.007,0.008-0.011,0.012C14.422,6.266,14.426,6.262,14.432,6.261z"/>
	<path fill="#00A25D" d="M14.416,6.286c-0.004,0.006-0.009,0.012-0.013,0.018C14.407,6.298,14.411,6.292,14.416,6.286z"/>
	<path fill="#00A25D" d="M14.402,6.305c-0.004,0.004-0.008,0.009-0.011,0.013C14.391,6.311,14.395,6.307,14.402,6.305z"/>
	<path fill="#00A25D" d="M14.371,6.347c-0.004,0.006-0.008,0.012-0.013,0.017C14.363,6.359,14.367,6.353,14.371,6.347z"/>
	<path fill="#00A25D" d="M14.357,6.366c-0.004,0.004-0.007,0.008-0.011,0.012C14.346,6.371,14.351,6.368,14.357,6.366z"/>
	<path fill="#008F70" d="M11.099,3.501c-0.002,0.005-0.005,0.009-0.009,0.011C11.093,3.509,11.096,3.505,11.099,3.501z"/>
	<path fill="#00A25D" d="M14.326,6.407c-0.005,0.006-0.009,0.012-0.014,0.018C14.313,6.416,14.318,6.411,14.326,6.407z"/>
	<path fill="#008F70" d="M11.083,3.528c-0.003,0.005-0.007,0.01-0.01,0.015C11.076,3.538,11.08,3.533,11.083,3.528z"/>
	<path fill="#008F70" d="M11.039,3.606c-0.003,0.004-0.007,0.008-0.01,0.012C11.032,3.614,11.035,3.61,11.039,3.606z"/>
	<path fill="#008F70" d="M11.023,3.633c-0.004,0.005-0.007,0.01-0.011,0.015C11.016,3.643,11.019,3.638,11.023,3.633z"/>
	<path fill="#008F70" d="M10.978,3.71c-0.004,0.005-0.008,0.01-0.012,0.014C10.97,3.719,10.974,3.715,10.978,3.71z"/>
	<path fill="#008F70" d="M10.948,3.756c-0.003,0.004-0.007,0.009-0.01,0.013C10.941,3.765,10.945,3.76,10.948,3.756z"/>
	<path fill="#00718E" d="M10.151,7.873c0.004,0.006,0.008,0.012,0.012,0.019C10.159,7.885,10.155,7.879,10.151,7.873z"/>
	<path fill="#00718E" d="M10.167,7.903c0.004,0.005,0.007,0.011,0.011,0.016C10.175,7.914,10.171,7.909,10.167,7.903z"/>
	<path fill="#00718E" d="M10.184,7.934c0.004,0.004,0.007,0.008,0.011,0.012C10.188,7.944,10.184,7.941,10.184,7.934z"/>
	<path fill="#00718E" d="M10.196,7.947c0.004,0.006,0.008,0.012,0.012,0.018C10.204,7.959,10.2,7.953,10.196,7.947z"/>
	<path fill="#008F70" d="M10.932,3.784c-0.004,0.005-0.007,0.011-0.011,0.016C10.925,3.794,10.929,3.789,10.932,3.784z"/>
	<path fill="#00718E" d="M10.214,7.979c0.003,0.005,0.007,0.01,0.01,0.014C10.221,7.989,10.217,7.984,10.214,7.979z"/>
	<path fill="#008F70" d="M10.917,3.812c-0.001,0.008-0.004,0.014-0.012,0.018C10.909,3.824,10.913,3.818,10.917,3.812z"/>
	<path fill="#008F70" d="M10.888,3.86c-0.003,0.005-0.007,0.01-0.01,0.014C10.881,3.87,10.884,3.865,10.888,3.86z"/>
	<path fill="#008F70" d="M10.872,3.889c-0.004,0.006-0.007,0.011-0.011,0.016C10.864,3.9,10.868,3.894,10.872,3.889z"/>
	<path fill="#00817E" d="M19.621,8.237c0.003-0.005,0.007-0.011,0.01-0.016C19.628,8.226,19.624,8.231,19.621,8.237z"/>
	<path fill="#008F70" d="M10.856,3.917c-0.004,0.007-0.008,0.013-0.012,0.02C10.848,3.93,10.852,3.923,10.856,3.917z"/>
	<path fill="#008F70" d="M10.843,3.938c-0.003,0.004-0.007,0.008-0.01,0.012C10.837,3.946,10.84,3.942,10.843,3.938z"/>
	<path fill="#005BA4" d="M11.162,9.607c0.004,0.006,0.007,0.011,0.011,0.017C11.167,9.621,11.162,9.615,11.162,9.607z"/>
	<path fill="#005BA4" d="M11.179,9.638c0.003,0.005,0.007,0.01,0.01,0.014C11.186,9.647,11.182,9.642,11.179,9.638z"/>
	<path fill="#005BA4" d="M11.189,9.652c0.008,0.004,0.013,0.011,0.013,0.021C11.195,9.668,11.19,9.661,11.189,9.652z"/>
	<path fill="#005BA4" d="M11.207,9.683c0.004,0.006,0.008,0.012,0.012,0.018C11.214,9.695,11.211,9.689,11.207,9.683z"/>
	<path fill="#005BA4" d="M11.223,9.713c0.004,0.005,0.007,0.011,0.011,0.016C11.227,9.726,11.223,9.721,11.223,9.713z"/>
	<path fill="#005BA4" d="M11.24,9.743c0.003,0.004,0.007,0.009,0.01,0.013C11.247,9.752,11.243,9.748,11.24,9.743z"/>
	<path fill="#005BA4" d="M11.25,9.757c0.008,0.004,0.012,0.011,0.013,0.02C11.255,9.773,11.251,9.766,11.25,9.757z"/>
	<path fill="#008F70" d="M10.827,3.965c-0.004,0.005-0.007,0.01-0.011,0.015C10.82,3.975,10.824,3.97,10.827,3.965z"/>
	<path fill="#005BA4" d="M11.267,9.788c0.004,0.006,0.008,0.012,0.011,0.018C11.271,9.802,11.267,9.797,11.267,9.788z"/>
	<path fill="#005BA4" d="M11.284,9.819c0.004,0.005,0.007,0.01,0.011,0.016C11.291,9.829,11.287,9.824,11.284,9.819z"/>
	<path fill="#005BA4" d="M11.3,9.849c0.003,0.004,0.007,0.008,0.01,0.012C11.307,9.857,11.304,9.853,11.3,9.849z"/>
	<path fill="#005BA4" d="M11.311,9.863c0.007,0.004,0.012,0.011,0.012,0.02C11.316,9.878,11.312,9.872,11.311,9.863z"/>
	<path fill="#005BA4" d="M11.328,9.894c0.004,0.006,0.007,0.011,0.011,0.017C11.332,9.907,11.328,9.902,11.328,9.894z"/>
	<path fill="#005BA4" d="M11.345,9.924c0.004,0.005,0.007,0.009,0.011,0.014C11.349,9.936,11.344,9.932,11.345,9.924z"/>
	<path fill="#005BA4" d="M11.356,9.939c0.004,0.006,0.009,0.012,0.013,0.018C11.365,9.951,11.36,9.945,11.356,9.939z"/>
	<path fill="#005BA4" d="M11.375,9.97c0.003,0.005,0.007,0.01,0.01,0.015C11.381,9.98,11.378,9.975,11.375,9.97z"/>
	<path fill="#005BA4" d="M11.391,10c0.003,0.004,0.006,0.008,0.01,0.012C11.398,10.008,11.394,10.004,11.391,10z"/>
	<path fill="#005BA4" d="M11.402,10.014c0.004,0.006,0.008,0.013,0.012,0.019C11.406,10.029,11.403,10.022,11.402,10.014z"/>
	<path fill="#005BA4" d="M11.419,10.045c0.004,0.005,0.007,0.011,0.011,0.016C11.423,10.058,11.419,10.053,11.419,10.045z"/>
	<path fill="#005BA4" d="M11.435,10.075c0.003,0.005,0.007,0.009,0.01,0.014C11.442,10.085,11.439,10.08,11.435,10.075z"/>
	<path d="M10.025,11.28c-0.02,0-0.04,0.001-0.06,0c-0.158-0.013-0.315-0.026-0.473-0.039c-0.078-0.006-0.155-0.013-0.233-0.019
		c-0.243-0.02-0.486-0.039-0.729-0.058c-0.153-0.012-0.306-0.023-0.458-0.035c-0.098-0.008-0.195-0.017-0.293-0.025
		c-0.026-0.002-0.039-0.014-0.05-0.037c-0.067-0.138-0.135-0.275-0.203-0.412C7.387,10.377,7.249,10.099,7.11,9.82
		C6.988,9.575,6.865,9.331,6.743,9.086C6.607,8.812,6.47,8.538,6.334,8.264C6.213,8.021,6.092,7.779,5.971,7.536
		C5.835,7.264,5.7,6.992,5.564,6.721c-0.017-0.034-0.036-0.066-0.053-0.1C5.472,6.54,5.473,6.567,5.511,6.491
		c0.066-0.133,0.134-0.264,0.2-0.397c0.062-0.123,0.122-0.247,0.184-0.371c0.132-0.265,0.264-0.53,0.396-0.795
		C6.418,4.672,6.546,4.416,6.674,4.16c0.13-0.26,0.26-0.521,0.39-0.781C7.192,3.123,7.32,2.867,7.448,2.611
		c0.094-0.189,0.19-0.377,0.283-0.566c0.014-0.029,0.03-0.039,0.063-0.04C8.1,1.996,8.406,1.985,8.712,1.973
		c0.331-0.012,0.663-0.026,0.994-0.038c0.1-0.004,0.201-0.006,0.301-0.008c0.016,0,0.023,0.011,0.017,0.024
		C10.01,1.982,9.994,2.014,9.979,2.045C9.8,2.405,9.621,2.764,9.441,3.123c-0.127,0.254-0.253,0.508-0.38,0.761
		C8.93,4.148,8.799,4.41,8.668,4.673C8.543,4.924,8.417,5.176,8.291,5.427C8.158,5.694,8.024,5.962,7.891,6.229
		C7.853,6.303,7.817,6.377,7.778,6.45C7.762,6.479,7.759,6.504,7.775,6.534C7.8,6.58,7.82,6.629,7.843,6.677
		c0.123,0.258,0.246,0.516,0.369,0.775C8.348,7.737,8.484,8.022,8.62,8.308c0.123,0.258,0.246,0.517,0.369,0.775
		c0.135,0.283,0.27,0.566,0.405,0.85c0.121,0.254,0.241,0.508,0.362,0.761c0.083,0.174,0.167,0.348,0.25,0.523
		C10.015,11.236,10.033,11.254,10.025,11.28z"/>
	<path d="M21.991,11.284c-0.006-0.027,0.012-0.044,0.021-0.064c0.132-0.279,0.265-0.558,0.398-0.836
		c0.186-0.392,0.372-0.785,0.559-1.177c0.127-0.268,0.254-0.535,0.382-0.802c0.13-0.274,0.261-0.549,0.391-0.823
		c0.127-0.267,0.255-0.535,0.383-0.802c0.039-0.082,0.078-0.163,0.119-0.244c0.014-0.028,0.013-0.05-0.001-0.078
		c-0.095-0.188-0.189-0.377-0.283-0.565c-0.184-0.368-0.367-0.737-0.551-1.105c-0.128-0.256-0.255-0.512-0.383-0.768
		c-0.13-0.261-0.26-0.521-0.39-0.781c-0.131-0.263-0.262-0.525-0.394-0.788C22.165,2.3,22.09,2.15,22.014,2
		c-0.006-0.011-0.011-0.022-0.017-0.034c-0.015-0.032-0.013-0.036,0.019-0.036c0.018,0,0.035,0,0.053,0.001
		c0.206,0.008,0.412,0.016,0.618,0.024c0.146,0.006,0.291,0.011,0.437,0.016c0.206,0.007,0.412,0.014,0.618,0.021
		c0.158,0.005,0.316,0.012,0.475,0.016c0.038,0.001,0.058,0.015,0.074,0.049c0.071,0.147,0.143,0.293,0.216,0.439
		c0.133,0.267,0.267,0.534,0.4,0.802c0.123,0.247,0.247,0.494,0.37,0.741c0.137,0.274,0.273,0.548,0.41,0.822
		c0.114,0.229,0.229,0.458,0.344,0.687c0.142,0.285,0.284,0.571,0.427,0.856c0.02,0.04,0.041,0.081,0.063,0.12
		c0.014,0.024,0.015,0.046,0.001,0.071c-0.024,0.044-0.048,0.088-0.07,0.133c-0.101,0.205-0.202,0.41-0.303,0.614
		c-0.14,0.281-0.28,0.562-0.42,0.842c-0.121,0.243-0.242,0.485-0.363,0.728c-0.138,0.276-0.275,0.553-0.413,0.829
		c-0.124,0.249-0.248,0.499-0.373,0.748c-0.095,0.191-0.192,0.381-0.285,0.573c-0.018,0.037-0.042,0.05-0.081,0.052
		c-0.218,0.015-0.436,0.032-0.654,0.05c-0.278,0.022-0.556,0.046-0.834,0.069c-0.238,0.019-0.476,0.037-0.714,0.056
		C22.005,11.288,21.998,11.285,21.991,11.284z"/>
	<path d="M25.59,9.903c-0.003-0.019,0.009-0.034,0.016-0.049c0.156-0.329,0.312-0.658,0.468-0.986c0.12-0.252,0.24-0.503,0.36-0.754
		c0.137-0.288,0.274-0.576,0.411-0.864c0.118-0.247,0.235-0.494,0.353-0.741c0.005-0.011,0.01-0.023,0.016-0.034
		c0.014-0.024,0.012-0.046,0-0.071c-0.12-0.238-0.238-0.476-0.357-0.714c-0.091-0.182-0.18-0.365-0.271-0.547
		c-0.158-0.317-0.316-0.633-0.474-0.95c-0.123-0.247-0.247-0.494-0.37-0.741c-0.044-0.087-0.089-0.174-0.133-0.262
		c-0.005-0.009-0.009-0.018-0.013-0.027c-0.01-0.023-0.004-0.033,0.021-0.033c0.111,0.003,0.221,0.006,0.332,0.01
		c0.176,0.007,0.352,0.015,0.527,0.021c0.211,0.008,0.422,0.014,0.633,0.022c0.07,0.002,0.141,0.008,0.211,0.009
		c0.029,0.001,0.045,0.01,0.058,0.037c0.062,0.129,0.127,0.257,0.19,0.385c0.148,0.297,0.295,0.593,0.443,0.89
		c0.125,0.252,0.251,0.503,0.377,0.755c0.134,0.267,0.267,0.534,0.401,0.802c0.058,0.117,0.116,0.234,0.177,0.349
		c0.026,0.049,0.026,0.093,0.001,0.142c-0.176,0.35-0.349,0.701-0.524,1.052c-0.116,0.234-0.233,0.467-0.35,0.701
		c-0.141,0.283-0.282,0.566-0.423,0.849c-0.093,0.186-0.187,0.372-0.28,0.559c-0.005,0.009-0.01,0.018-0.013,0.027
		c-0.009,0.026-0.028,0.032-0.053,0.033c-0.045,0.002-0.09,0.007-0.135,0.011c-0.153,0.012-0.306,0.024-0.458,0.036
		c-0.158,0.013-0.316,0.026-0.473,0.039c-0.15,0.012-0.301,0.024-0.451,0.036c-0.055,0.004-0.11,0.01-0.165,0.013
		C25.624,9.908,25.606,9.914,25.59,9.903z"/>
	<path fill="#00A35B" d="M4.639,7.238C4.64,7.243,4.642,7.249,4.644,7.254c0.009,0.008,0.005,0.021,0.014,0.029
		c0.003,0.003,0.004,0.006,0.003,0.01c0.001,0.008,0.006,0.014,0.011,0.02c0.003,0.003,0.005,0.007,0.004,0.012
		c0,0.036-0.03,0.039-0.052,0.039C4.42,7.364,4.215,7.352,4.011,7.347c-0.012,0-0.023-0.01-0.033-0.016
		C3.964,7.307,3.95,7.284,3.938,7.259c-0.105-0.21-0.209-0.421-0.313-0.631C3.603,6.585,3.581,6.543,3.559,6.501
		C3.552,6.488,3.548,6.474,3.556,6.459C3.608,6.362,3.65,6.26,3.708,6.167c0.055,0.021,0.112,0.025,0.17,0.025
		c0.13,0,0.261-0.005,0.391,0.003c0.03,0.002,0.06,0.003,0.087,0.019C4.34,6.275,4.305,6.328,4.277,6.384
		C4.261,6.416,4.26,6.442,4.276,6.475c0.062,0.123,0.121,0.248,0.18,0.373C4.51,6.961,4.564,7.074,4.617,7.188
		c0.005,0.011,0.008,0.023,0.012,0.035C4.633,7.227,4.637,7.232,4.639,7.238z"/>
	<path fill="#007C83" d="M5.099,8.214C5.171,8.34,5.23,8.474,5.293,8.605c0.084,0.177,0.169,0.353,0.253,0.53
		C5.578,9.203,5.61,9.271,5.641,9.34c0.003,0.006,0.002,0.014,0.003,0.022c-0.041,0-0.081,0.002-0.121,0
		c-0.105-0.007-0.21-0.017-0.315-0.026C5.136,9.329,5.063,9.323,4.99,9.318c-0.017-0.001-0.028-0.01-0.036-0.024
		c-0.007-0.013-0.014-0.027-0.021-0.04C4.777,8.94,4.62,8.625,4.464,8.31C4.452,8.286,4.435,8.263,4.431,8.235
		C4.53,8.189,4.632,8.212,4.733,8.219C4.855,8.227,4.977,8.233,5.099,8.214z"/>
	<path fill="#00C23D" d="M4.356,6.214C4.341,6.22,4.325,6.233,4.307,6.224C4.273,6.209,4.238,6.214,4.203,6.214
		c-0.135,0-0.27,0-0.405,0c-0.023,0-0.045,0-0.066-0.011C3.718,6.194,3.71,6.183,3.708,6.167c0.002-0.005,0.003-0.01,0.005-0.015
		c0.003-0.006,0.006-0.011,0.01-0.016c0.002-0.005,0.003-0.01,0.005-0.014c0.003-0.006,0.006-0.011,0.01-0.016
		C3.74,6.101,3.741,6.097,3.743,6.092c0.003-0.006,0.006-0.011,0.01-0.016c0.002-0.005,0.003-0.009,0.005-0.014
		c0.003-0.006,0.006-0.011,0.01-0.016C3.77,6.041,3.771,6.036,3.773,6.032c0.003-0.006,0.007-0.011,0.01-0.016
		C3.79,5.999,3.795,5.982,3.802,5.967C3.938,5.694,4.074,5.421,4.21,5.149c0.007-0.013,0.016-0.025,0.024-0.037
		c0.079-0.018,0.159-0.005,0.238-0.007c0.127-0.003,0.254,0.002,0.381-0.002c0.02-0.001,0.04-0.004,0.057,0.01
		c-0.044,0.09-0.085,0.182-0.132,0.27C4.741,5.453,4.706,5.525,4.67,5.597C4.581,5.78,4.49,5.961,4.399,6.143
		C4.387,6.168,4.375,6.193,4.356,6.214z"/>
	<path fill="#00916E" d="M5.099,8.214C5.095,8.233,5.088,8.248,5.066,8.249C5.039,8.249,5.011,8.249,4.984,8.249
		c-0.055,0-0.11,0-0.165,0c-0.015,0-0.031,0.003-0.045-0.001c-0.113-0.026-0.228-0.01-0.343-0.014
		C4.403,8.182,4.373,8.131,4.346,8.077C4.225,7.836,4.105,7.594,3.985,7.352C3.981,7.345,3.98,7.338,3.978,7.33
		c0.133,0,0.266-0.001,0.399-0.001c0.01,0,0.021-0.002,0.03,0.001C4.48,7.354,4.555,7.341,4.63,7.344
		c0.018,0.001,0.035-0.001,0.046-0.018c0.05,0.098,0.101,0.196,0.149,0.295c0.071,0.147,0.139,0.295,0.208,0.442
		c0.007,0.016,0.012,0.033,0.018,0.049c0.004,0.005,0.007,0.01,0.01,0.015c0.002,0.005,0.003,0.01,0.005,0.016
		c0.004,0.004,0.007,0.009,0.01,0.014C5.078,8.163,5.08,8.169,5.081,8.174C5.086,8.178,5.089,8.182,5.09,8.187
		C5.093,8.196,5.096,8.205,5.099,8.214z"/>
	<path fill="#00D32C" d="M4.911,5.112C4.88,5.122,4.849,5.128,4.816,5.128c-0.165-0.001-0.33-0.001-0.494,0
		c-0.03,0-0.06,0-0.087-0.016c0.002-0.005,0.004-0.01,0.006-0.015c0.004-0.006,0.008-0.012,0.011-0.018
		C4.25,5.074,4.251,5.07,4.255,5.067c0.004-0.006,0.008-0.012,0.011-0.018C4.265,5.044,4.267,5.04,4.27,5.037
		C4.274,5.03,4.279,5.025,4.281,5.018C4.28,5.014,4.281,5.01,4.285,5.006C4.289,5,4.294,4.995,4.296,4.988
		C4.295,4.983,4.296,4.979,4.3,4.976C4.304,4.97,4.309,4.965,4.311,4.958C4.31,4.953,4.311,4.949,4.315,4.946
		C4.319,4.94,4.324,4.935,4.326,4.927C4.325,4.923,4.326,4.919,4.33,4.916C4.334,4.91,4.339,4.905,4.34,4.897
		C4.34,4.892,4.341,4.889,4.345,4.886c0.004-0.006,0.01-0.011,0.011-0.019C4.355,4.862,4.356,4.859,4.36,4.856
		C4.364,4.85,4.37,4.844,4.37,4.836c0-0.005,0.002-0.008,0.005-0.011C4.379,4.82,4.383,4.814,4.387,4.809
		C4.388,4.804,4.39,4.8,4.392,4.795c0.003-0.006,0.006-0.011,0.01-0.016c0.002-0.005,0.003-0.01,0.005-0.014
		c0.003-0.006,0.006-0.011,0.01-0.016C4.418,4.744,4.42,4.739,4.422,4.735c0.003-0.005,0.007-0.011,0.01-0.016
		c0.002-0.005,0.003-0.009,0.005-0.014c0.003-0.005,0.007-0.011,0.01-0.016c0-0.005,0.001-0.01,0.005-0.014
		c0.004-0.005,0.007-0.011,0.01-0.017c0-0.005,0.001-0.01,0.005-0.013c0.004-0.005,0.007-0.011,0.01-0.017
		c0.044-0.104,0.094-0.205,0.15-0.302C4.832,4.341,5.038,4.338,5.243,4.33c0.018-0.001,0.035,0,0.049,0.013
		C5.286,4.36,5.282,4.377,5.274,4.392C5.159,4.624,5.042,4.855,4.926,5.087C4.922,5.096,4.916,5.104,4.911,5.112z"/>
	<path fill="#00E41A" d="M5.292,4.343c-0.076,0.02-0.154,0.015-0.231,0.015c-0.108,0-0.216,0-0.323,0
		c-0.041,0-0.08-0.003-0.111-0.033c0-0.005,0.001-0.009,0.005-0.012c0.004-0.006,0.009-0.011,0.011-0.019
		C4.642,4.289,4.643,4.286,4.647,4.283c0.004-0.006,0.009-0.011,0.011-0.019C4.657,4.259,4.658,4.255,4.662,4.252
		c0.004-0.006,0.01-0.011,0.011-0.019C4.672,4.229,4.673,4.225,4.677,4.222c0.004-0.006,0.01-0.011,0.011-0.019
		C4.687,4.199,4.688,4.195,4.692,4.192c0.004-0.006,0.01-0.011,0.011-0.019C4.702,4.168,4.703,4.165,4.707,4.162
		c0.005-0.006,0.01-0.012,0.011-0.02C4.717,4.138,4.718,4.134,4.722,4.132c0.005-0.006,0.01-0.012,0.011-0.02
		c-0.001-0.004,0.001-0.008,0.004-0.01c0.005-0.006,0.01-0.012,0.011-0.02c-0.001-0.004,0.001-0.008,0.004-0.01
		c0.005-0.006,0.01-0.012,0.011-0.02c0-0.005,0.002-0.008,0.006-0.01C4.772,4.036,4.775,4.03,4.779,4.025
		c0-0.005,0.001-0.01,0.005-0.014C4.787,4.005,4.79,4,4.794,3.994c-0.001-0.005,0.001-0.01,0.005-0.014
		c0.003-0.006,0.007-0.011,0.01-0.017c0.039-0.1,0.094-0.194,0.14-0.291c0.01-0.022,0.029-0.024,0.05-0.025
		c0.12-0.004,0.24-0.009,0.361-0.014c0.068-0.003,0.135-0.007,0.203-0.009c0.027-0.001,0.055,0,0.082,0
		c0.01,0.02-0.004,0.035-0.011,0.049c-0.065,0.13-0.132,0.259-0.197,0.389C5.397,4.139,5.361,4.216,5.323,4.292
		C5.314,4.31,5.303,4.326,5.292,4.343z"/>
	<path fill="#00916E" d="M4.658,7.284C4.646,7.277,4.644,7.266,4.644,7.254C4.654,7.262,4.658,7.272,4.658,7.284z"/>
	<path fill="#00D32C" d="M4.794,3.994C4.79,4,4.787,4.005,4.784,4.011C4.783,4.003,4.787,3.998,4.794,3.994z"/>
	<path fill="#00D32C" d="M4.779,4.025C4.775,4.03,4.772,4.036,4.768,4.041C4.772,4.035,4.775,4.03,4.779,4.025z"/>
	<path fill="#00D32C" d="M4.762,4.051c0,0.009-0.004,0.015-0.011,0.02C4.751,4.063,4.755,4.056,4.762,4.051z"/>
	<path fill="#00D32C" d="M4.747,4.082c0,0.009-0.003,0.015-0.011,0.02C4.736,4.093,4.74,4.086,4.747,4.082z"/>
	<path fill="#00D32C" d="M4.732,4.112c0,0.009-0.003,0.015-0.011,0.02C4.721,4.123,4.725,4.116,4.732,4.112z"/>
	<path fill="#00D32C" d="M4.717,4.142c0,0.009-0.003,0.015-0.011,0.02C4.706,4.153,4.71,4.147,4.717,4.142z"/>
	<path fill="#00D32C" d="M4.702,4.173c0,0.008-0.004,0.015-0.011,0.019C4.692,4.184,4.695,4.177,4.702,4.173z"/>
	<path fill="#00D32C" d="M4.687,4.203c0,0.008-0.004,0.015-0.011,0.019C4.676,4.214,4.68,4.207,4.687,4.203z"/>
	<path fill="#00D32C" d="M4.672,4.233C4.669,4.24,4.665,4.246,4.662,4.252C4.661,4.244,4.665,4.238,4.672,4.233z"/>
	<path fill="#00D32C" d="M4.657,4.264C4.654,4.27,4.65,4.276,4.647,4.283C4.647,4.274,4.65,4.268,4.657,4.264z"/>
	<path fill="#00D32C" d="M4.642,4.294C4.639,4.3,4.635,4.307,4.632,4.313C4.631,4.304,4.635,4.298,4.642,4.294z"/>
	<path fill="#00C23D" d="M4.477,4.627C4.473,4.633,4.47,4.639,4.466,4.644C4.466,4.636,4.47,4.631,4.477,4.627z"/>
	<path fill="#00C23D" d="M4.462,4.658c-0.003,0.006-0.007,0.011-0.01,0.017C4.451,4.666,4.455,4.661,4.462,4.658z"/>
	<path fill="#00C23D" d="M4.447,4.688C4.443,4.694,4.44,4.699,4.437,4.704C4.436,4.697,4.44,4.692,4.447,4.688z"/>
	<path fill="#00C23D" d="M4.432,4.718c-0.003,0.005-0.007,0.011-0.01,0.016C4.421,4.727,4.425,4.722,4.432,4.718z"/>
	<path fill="#00C23D" d="M4.417,4.749C4.413,4.754,4.41,4.759,4.407,4.765C4.406,4.757,4.41,4.752,4.417,4.749z"/>
	<path fill="#00C23D" d="M4.402,4.779C4.398,4.784,4.395,4.79,4.392,4.795C4.395,4.79,4.398,4.784,4.402,4.779z"/>
	<path fill="#00C23D" d="M4.387,4.809C4.383,4.814,4.379,4.82,4.376,4.825C4.379,4.82,4.383,4.814,4.387,4.809z"/>
	<path fill="#00C23D" d="M4.37,4.836c0,0.008-0.004,0.015-0.011,0.019C4.36,4.847,4.363,4.841,4.37,4.836z"/>
	<path fill="#00C23D" d="M4.356,4.867C4.352,4.873,4.348,4.879,4.345,4.886C4.345,4.877,4.348,4.871,4.356,4.867z"/>
	<path fill="#00C23D" d="M4.34,4.897C4.337,4.903,4.333,4.91,4.33,4.916C4.33,4.907,4.333,4.901,4.34,4.897z"/>
	<path fill="#00C23D" d="M4.326,4.927C4.322,4.933,4.318,4.94,4.315,4.946C4.315,4.938,4.318,4.931,4.326,4.927z"/>
	<path fill="#00C23D" d="M4.311,4.958C4.307,4.964,4.303,4.97,4.3,4.976C4.3,4.968,4.303,4.962,4.311,4.958z"/>
	<path fill="#00C23D" d="M4.296,4.988C4.292,4.994,4.288,5,4.285,5.006C4.285,4.998,4.288,4.992,4.296,4.988z"/>
	<path fill="#00C23D" d="M4.281,5.018c0,0.008-0.004,0.014-0.011,0.018C4.27,5.028,4.273,5.022,4.281,5.018z"/>
	<path fill="#00C23D" d="M4.266,5.049C4.262,5.055,4.258,5.061,4.255,5.067C4.254,5.058,4.258,5.052,4.266,5.049z"/>
	<path fill="#00C23D" d="M4.251,5.079C4.247,5.085,4.243,5.091,4.24,5.097C4.239,5.088,4.243,5.083,4.251,5.079z"/>
	<path fill="#00A35B" d="M3.783,6.015C3.78,6.021,3.776,6.026,3.773,6.032C3.773,6.024,3.777,6.019,3.783,6.015z"/>
	<path fill="#00A35B" d="M3.768,6.046c-0.003,0.005-0.007,0.011-0.01,0.016C3.758,6.054,3.762,6.049,3.768,6.046z"/>
	<path fill="#00A35B" d="M3.753,6.076C3.75,6.081,3.746,6.087,3.743,6.092C3.743,6.084,3.747,6.079,3.753,6.076z"/>
	<path fill="#00A35B" d="M3.738,6.106c-0.003,0.005-0.007,0.011-0.01,0.016C3.728,6.114,3.732,6.11,3.738,6.106z"/>
	<path fill="#00A35B" d="M3.723,6.137c-0.003,0.005-0.007,0.01-0.01,0.016C3.713,6.145,3.717,6.14,3.723,6.137z"/>
	<path fill="#00916E" d="M4.639,7.238c-0.003-0.005-0.006-0.01-0.01-0.014C4.632,7.228,4.635,7.233,4.639,7.238z"/>
	<path fill="#00916E" d="M4.672,7.314c-0.008-0.005-0.011-0.011-0.011-0.02C4.664,7.301,4.668,7.307,4.672,7.314z"/>
	<path fill="#007C83" d="M5.062,8.128c-0.003-0.005-0.007-0.01-0.01-0.015C5.055,8.117,5.058,8.122,5.062,8.128z"/>
	<path fill="#007C83" d="M5.076,8.158c-0.003-0.005-0.006-0.01-0.01-0.014C5.07,8.148,5.073,8.153,5.076,8.158z"/>
	<path fill="#007C83" d="M5.09,8.187C5.087,8.183,5.084,8.179,5.081,8.174C5.084,8.179,5.087,8.183,5.09,8.187z"/>
	<path fill="#00D32C" d="M4.809,3.964c-0.003,0.006-0.007,0.011-0.01,0.017C4.798,3.973,4.802,3.967,4.809,3.964z"/>
	<path fill="#007B84" d="M7.934,7.977c0.024,0.03,0.037,0.065,0.053,0.099c0.1,0.214,0.201,0.427,0.304,0.639
		c0.11,0.225,0.213,0.454,0.321,0.681c0.043,0.091,0.093,0.178,0.13,0.271C8.72,9.69,8.692,9.69,8.664,9.69
		C8.567,9.691,8.468,9.698,8.371,9.689C8.134,9.665,7.896,9.681,7.658,9.676c-0.03-0.001-0.06,0.004-0.089-0.009
		C7.529,9.592,7.488,9.518,7.45,9.442C7.347,9.235,7.247,9.027,7.144,8.821C7.068,8.668,6.989,8.517,6.913,8.364
		C6.85,8.236,6.789,8.107,6.727,7.978c0.031-0.03,0.07-0.024,0.107-0.023c0.29,0.006,0.58-0.016,0.87,0.014
		C7.78,7.977,7.858,7.953,7.934,7.977z"/>
	<path fill="#00A05F" d="M7.934,7.977C7.893,7.991,7.851,7.995,7.808,7.993C7.739,7.99,7.668,8,7.599,7.979
		C7.581,7.974,7.56,7.978,7.54,7.978c-0.271,0-0.541,0-0.812,0C6.662,7.877,6.615,7.766,6.562,7.658
		c-0.088-0.177-0.173-0.355-0.265-0.53C6.22,6.982,6.15,6.832,6.077,6.684C6.061,6.65,6.045,6.616,6.027,6.583
		c-0.01-0.019-0.013-0.037-0.002-0.057c0.022-0.039,0.036-0.083,0.064-0.118C6.118,6.397,6.148,6.401,6.178,6.4
		C6.502,6.391,6.826,6.414,7.15,6.416c0.035,0,0.071-0.005,0.1,0.023C7.235,6.471,7.232,6.501,7.251,6.532
		c0.006,0.011,0.01,0.023,0.015,0.034c0.076,0.158,0.153,0.316,0.228,0.474c0.108,0.229,0.215,0.458,0.323,0.687
		c0.016,0.034,0.034,0.067,0.05,0.101c0.018,0.038,0.041,0.075,0.051,0.116c0.003,0.006,0.007,0.012,0.011,0.018
		C7.93,7.967,7.932,7.972,7.934,7.977z"/>
	<path fill="#00D728" d="M6.769,5.049c0-0.005,0.001-0.009,0.004-0.012c0.004-0.006,0.008-0.012,0.011-0.018
		c0-0.005,0.001-0.009,0.004-0.012c0.004-0.006,0.008-0.012,0.01-0.018c0-0.005,0.001-0.009,0.004-0.012
		C6.807,4.97,6.812,4.965,6.814,4.958c0-0.002,0-0.005,0.001-0.007c0.092-0.187,0.184-0.373,0.276-0.559
		c0.055-0.11,0.11-0.22,0.165-0.33c0.045-0.09,0.088-0.18,0.132-0.27c0.009-0.018,0.014-0.038,0.031-0.051
		C7.477,3.77,7.538,3.778,7.602,3.778c0.216-0.001,0.432-0.002,0.648,0C8.355,3.779,8.46,3.79,8.564,3.8
		c0,0.021-0.013,0.038-0.022,0.055C8.461,4.02,8.38,4.185,8.298,4.349C8.167,4.612,8.035,4.874,7.903,5.137
		c-0.009,0.018-0.02,0.034-0.03,0.052C7.821,5.225,7.761,5.215,7.706,5.21C7.434,5.184,7.162,5.203,6.89,5.197
		C6.857,5.196,6.825,5.198,6.793,5.191c-0.03-0.006-0.058-0.017-0.07-0.049c0.002-0.005,0.004-0.01,0.006-0.015
		C6.732,5.121,6.736,5.116,6.739,5.11c0-0.005,0.001-0.009,0.004-0.013c0.004-0.006,0.007-0.012,0.011-0.018
		c0-0.005,0.001-0.009,0.004-0.013C6.762,5.061,6.766,5.055,6.769,5.049z"/>
	<path fill="#00FA04" d="M8.564,3.8C8.504,3.828,8.44,3.818,8.379,3.81C8.347,3.805,8.315,3.801,8.282,3.801
		c-0.219,0-0.437,0-0.656,0c-0.058,0-0.115-0.001-0.171-0.015C7.427,3.778,7.427,3.78,7.419,3.741c0,0,0,0,0,0
		c0.009-0.008,0.006-0.022,0.015-0.03l0,0C7.443,3.702,7.44,3.688,7.449,3.68C7.46,3.633,7.492,3.595,7.513,3.553
		C7.61,3.352,7.709,3.152,7.808,2.952c0.072-0.146,0.147-0.291,0.219-0.437c0.018-0.036,0.041-0.055,0.082-0.051
		c0.012,0.001,0.025-0.001,0.038-0.001c0.218-0.007,0.437-0.014,0.655-0.021c0.125-0.004,0.251-0.009,0.376-0.014
		C9.195,2.426,9.213,2.426,9.23,2.427c0.012,0.001,0.016,0.011,0.013,0.022C9.235,2.468,9.227,2.486,9.218,2.504
		C9.11,2.719,9.002,2.934,8.894,3.15C8.829,3.28,8.766,3.411,8.7,3.541C8.656,3.628,8.61,3.714,8.564,3.8z"/>
	<path fill="#00BE41" d="M6.723,5.142C6.765,5.167,6.81,5.174,6.859,5.174c0.228-0.002,0.457-0.001,0.685-0.001
		c0.032,0,0.065-0.001,0.097,0.01C7.659,5.189,7.68,5.188,7.7,5.188c0.058,0.001,0.115,0.001,0.173,0.001
		c-0.064,0.13-0.127,0.261-0.192,0.39C7.55,5.843,7.418,6.107,7.286,6.371C7.279,6.384,7.271,6.397,7.264,6.41
		c-0.003,0.006-0.006,0.011-0.01,0.016c0,0.005-0.001,0.009-0.004,0.013c-0.11,0-0.221,0-0.331,0c-0.04,0-0.079,0.002-0.119-0.011
		c-0.02-0.007-0.045-0.003-0.067-0.004c-0.185,0-0.371,0-0.556,0c-0.03,0-0.06,0-0.087-0.016c0.002-0.005,0.004-0.01,0.006-0.014
		c0.004-0.006,0.008-0.012,0.011-0.018c0-0.005,0.001-0.009,0.004-0.012c0.004-0.006,0.009-0.011,0.011-0.018
		c0-0.005,0.001-0.009,0.004-0.012c0.004-0.006,0.009-0.011,0.011-0.018c0-0.005,0.001-0.009,0.004-0.012
		c0.004-0.006,0.009-0.011,0.011-0.018c0-0.005,0.001-0.009,0.004-0.012c0.004-0.006,0.009-0.011,0.011-0.018
		c0-0.005,0.001-0.008,0.004-0.012c0.004-0.006,0.009-0.011,0.011-0.018c0-0.005,0.001-0.009,0.004-0.012
		c0.004-0.006,0.009-0.011,0.011-0.018c0.03-0.08,0.072-0.154,0.11-0.23c0.119-0.24,0.239-0.479,0.358-0.719
		C6.68,5.209,6.697,5.173,6.723,5.142z"/>
	<path fill="#0057A7" d="M7.569,9.667c0.022-0.013,0.047-0.016,0.072-0.015c0.202,0,0.405,0,0.607,0c0.01,0,0.021-0.002,0.03,0.001
		c0.076,0.024,0.154,0.012,0.231,0.014c0.077,0.002,0.155,0.001,0.232,0.001c0.085,0.179,0.171,0.358,0.256,0.537
		c0.056,0.118,0.114,0.235,0.17,0.353c0.026,0.054,0.05,0.109,0.075,0.164c0.006,0.014-0.003,0.027-0.018,0.025
		c-0.074-0.013-0.15-0.006-0.225-0.018c-0.067-0.011-0.135-0.009-0.203-0.017c-0.092-0.011-0.185-0.013-0.278-0.02
		c-0.088-0.007-0.175-0.017-0.262-0.024c-0.05-0.004-0.1-0.006-0.151-0.008c-0.036-0.002-0.058-0.019-0.075-0.052
		c-0.139-0.282-0.279-0.562-0.419-0.843C7.607,9.752,7.604,9.74,7.6,9.728C7.595,9.724,7.592,9.719,7.59,9.713
		c-0.002-0.005-0.003-0.01-0.005-0.015C7.58,9.694,7.577,9.689,7.575,9.683C7.573,9.678,7.571,9.673,7.569,9.667z"/>
	<path fill="#00D728" d="M7.449,3.68C7.45,3.693,7.446,3.704,7.434,3.71C7.433,3.697,7.438,3.687,7.449,3.68z"/>
	<path fill="#00D728" d="M7.434,3.71c0.001,0.013-0.003,0.024-0.015,0.03C7.419,3.727,7.423,3.717,7.434,3.71z"/>
	<path fill="#00BE41" d="M6.814,4.958c0,0.008-0.003,0.014-0.011,0.018C6.803,4.968,6.807,4.962,6.814,4.958z"/>
	<path fill="#00BE41" d="M6.799,4.988c0,0.008-0.003,0.014-0.01,0.018C6.788,4.998,6.792,4.992,6.799,4.988z"/>
	<path fill="#00BE41" d="M6.784,5.019c0,0.008-0.004,0.014-0.011,0.018C6.773,5.028,6.777,5.022,6.784,5.019z"/>
	<path fill="#00BE41" d="M6.769,5.049c0,0.008-0.004,0.014-0.011,0.018C6.758,5.058,6.762,5.053,6.769,5.049z"/>
	<path fill="#00BE41" d="M6.754,5.079C6.751,5.085,6.747,5.091,6.744,5.097C6.743,5.089,6.747,5.083,6.754,5.079z"/>
	<path fill="#00BE41" d="M6.739,5.11C6.736,5.115,6.732,5.121,6.729,5.127C6.728,5.119,6.732,5.113,6.739,5.11z"/>
	<path fill="#00A05F" d="M6.195,6.194c0,0.008-0.003,0.014-0.011,0.018C6.185,6.204,6.188,6.198,6.195,6.194z"/>
	<path fill="#00A05F" d="M6.181,6.225C6.177,6.231,6.173,6.237,6.17,6.243C6.173,6.237,6.177,6.231,6.181,6.225z"/>
	<path fill="#00A05F" d="M6.165,6.255c0,0.008-0.004,0.014-0.011,0.018C6.155,6.265,6.158,6.259,6.165,6.255z"/>
	<path fill="#00A05F" d="M6.151,6.285c0,0.008-0.004,0.014-0.011,0.018C6.14,6.295,6.143,6.289,6.151,6.285z"/>
	<path fill="#00A05F" d="M6.136,6.315c0,0.008-0.004,0.014-0.011,0.018C6.124,6.325,6.128,6.319,6.136,6.315z"/>
	<path fill="#00A05F" d="M6.121,6.346c0,0.008-0.004,0.014-0.011,0.018C6.109,6.355,6.113,6.349,6.121,6.346z"/>
	<path fill="#00A05F" d="M6.106,6.376C6.102,6.382,6.098,6.388,6.095,6.394C6.095,6.386,6.098,6.38,6.106,6.376z"/>
	<path fill="#00A05F" d="M7.254,6.426c0.003-0.005,0.007-0.011,0.01-0.016C7.264,6.418,7.26,6.423,7.254,6.426z"/>
	<path fill="#007B84" d="M7.929,7.962C7.925,7.956,7.921,7.95,7.918,7.944C7.921,7.95,7.925,7.956,7.929,7.962z"/>
	<path fill="#007B84" d="M7.575,9.683c0.003,0.005,0.007,0.01,0.01,0.015C7.581,9.693,7.578,9.688,7.575,9.683z"/>
	<path fill="#007B84" d="M7.59,9.713c0.003,0.005,0.007,0.01,0.01,0.015C7.596,9.723,7.593,9.718,7.59,9.713z"/>
	<path fill="#00AA55" d="M24.295,7.539c0.005-0.014,0.009-0.029,0.015-0.042c0.069-0.147,0.138-0.295,0.207-0.442
		c0.081-0.17,0.163-0.338,0.244-0.508c0.03-0.062,0.031-0.047,0-0.111c-0.006-0.013-0.011-0.028-0.016-0.042
		c0.03-0.03,0.07-0.025,0.106-0.024c0.27,0.005,0.541-0.014,0.811,0.013c0.082,0.008,0.165-0.002,0.247-0.007
		c0.036,0.049,0.055,0.106,0.084,0.159C26.003,6.553,26,6.57,25.992,6.587c-0.018,0.036-0.035,0.072-0.053,0.108
		c-0.065,0.13-0.129,0.26-0.194,0.39c-0.097,0.195-0.195,0.39-0.292,0.584c-0.009,0.018-0.019,0.035-0.029,0.052
		c-0.035,0.027-0.075,0.023-0.116,0.024c-0.329,0.011-0.658-0.018-0.987-0.017c-0.035,0-0.094,0.017-0.087-0.057
		c0-0.004,0.001-0.008,0.004-0.012c0.005-0.006,0.01-0.012,0.011-0.02c-0.001-0.004,0-0.007,0.003-0.01
		c0.009-0.008,0.005-0.022,0.014-0.029c0.002-0.006,0.004-0.011,0.005-0.017c0.002-0.005,0.005-0.01,0.01-0.014
		c0.002-0.005,0.003-0.011,0.005-0.016C24.288,7.549,24.291,7.544,24.295,7.539z"/>
	<path fill="#00F708" d="M24.565,3.68c0.004,0.003,0.005,0.006,0.005,0.011c-0.002,0.054-0.042,0.056-0.08,0.053
		c-0.263-0.021-0.526-0.005-0.789-0.009c-0.08-0.001-0.159-0.018-0.24-0.018c-0.029,0-0.054-0.01-0.07-0.037
		c-0.022-0.019-0.031-0.046-0.043-0.07c-0.103-0.206-0.205-0.413-0.308-0.62c-0.08-0.161-0.162-0.322-0.243-0.484
		c-0.011-0.022-0.026-0.043-0.028-0.068c0.012-0.016,0.028-0.01,0.041-0.01c0.205,0.008,0.411,0.016,0.616,0.024
		c0.068,0.003,0.135,0.003,0.203,0.006c0.1,0.004,0.2,0.009,0.301,0.012c0.027,0.001,0.041,0.013,0.051,0.035
		c0.019,0.041,0.04,0.081,0.06,0.121c0.065,0.13,0.131,0.259,0.196,0.389c0.011,0.022,0.02,0.046,0.03,0.069
		c0,0.009,0.006,0.015,0.011,0.021c0.004,0.002,0.005,0.006,0.004,0.01c0,0.009,0.006,0.015,0.011,0.021
		c0.004,0.002,0.005,0.006,0.004,0.01c0.001,0.008,0.006,0.014,0.011,0.02c0.004,0.003,0.005,0.006,0.004,0.01
		c0.001,0.008,0.006,0.014,0.011,0.02c0.004,0.003,0.005,0.006,0.004,0.01c0.001,0.008,0.006,0.014,0.011,0.02
		c0.004,0.003,0.005,0.006,0.004,0.011c0.001,0.008,0.006,0.013,0.011,0.019c0.004,0.003,0.005,0.006,0.004,0.011
		c0.001,0.008,0.007,0.013,0.011,0.019c0.004,0.003,0.005,0.006,0.004,0.011c0.001,0.008,0.007,0.013,0.011,0.019
		c0.004,0.003,0.005,0.007,0.004,0.011c0.001,0.007,0.007,0.013,0.011,0.019c0.004,0.003,0.005,0.007,0.004,0.011
		c0.001,0.007,0.007,0.013,0.011,0.019c0.004,0.003,0.005,0.007,0.004,0.012c0.001,0.007,0.007,0.013,0.011,0.019
		c0.004,0.003,0.005,0.007,0.004,0.012c0.002,0.007,0.007,0.012,0.011,0.018c0.004,0.003,0.005,0.007,0.005,0.012
		c0.003,0.006,0.007,0.012,0.011,0.018c0.004,0.003,0.005,0.007,0.005,0.012c0.003,0.006,0.007,0.012,0.01,0.018
		c0.004,0.003,0.005,0.008,0.005,0.013c0.003,0.006,0.007,0.012,0.01,0.018c0.004,0.003,0.005,0.008,0.005,0.013
		c0.003,0.006,0.007,0.012,0.01,0.018c0.004,0.003,0.005,0.008,0.005,0.013c0.003,0.006,0.007,0.012,0.01,0.017
		c0.004,0.004,0.006,0.008,0.005,0.013c0.004,0.006,0.007,0.011,0.011,0.017c0.004,0.003,0.006,0.006,0.005,0.011
		c0.002,0.008,0.007,0.014,0.012,0.02c0.003,0.002,0.005,0.005,0.003,0.009C24.555,3.667,24.56,3.673,24.565,3.68z"/>
	<path fill="#008975" d="M24.233,7.672c0.003,0.019,0.012,0.033,0.033,0.034c0.018,0,0.035,0.001,0.053,0.001
		c0.095,0,0.191,0,0.286,0c0.05,0,0.1-0.004,0.149,0.012c0.018,0.006,0.04,0.003,0.06,0.003c0.203,0,0.406,0,0.609,0
		c-0.027,0.056-0.053,0.113-0.081,0.169c-0.123,0.246-0.246,0.492-0.369,0.738c-0.043,0.085-0.085,0.17-0.129,0.254
		c-0.006,0.011-0.014,0.021-0.02,0.031c-0.027,0.022-0.06,0.023-0.093,0.023c-0.336,0.002-0.673,0.002-1.009-0.015
		c-0.028-0.001-0.056-0.001-0.077-0.024c0.002-0.026,0.017-0.047,0.028-0.069c0.12-0.251,0.239-0.502,0.359-0.753
		c0.055-0.115,0.11-0.23,0.166-0.345C24.21,7.711,24.222,7.692,24.233,7.672z"/>
	<path fill="#00C33B" d="M25.91,6.378c-0.019,0.023-0.044,0.032-0.072,0.032c-0.067,0-0.136,0.009-0.202-0.002
		c-0.149-0.024-0.299-0.01-0.448-0.013c-0.147-0.003-0.295,0-0.442,0c-0.005-0.008-0.012-0.016-0.016-0.025
		c-0.165-0.33-0.33-0.659-0.494-0.989c-0.004-0.009-0.007-0.019-0.01-0.028c0.014-0.013,0.032-0.014,0.05-0.012
		c0.27,0.038,0.542,0.009,0.812,0.019c0.11,0.004,0.219,0.01,0.328,0.022c0.008,0.012,0.017,0.024,0.024,0.038
		c0.111,0.222,0.222,0.444,0.333,0.666c0.008,0.016,0.013,0.032,0.019,0.049c0.003,0.006,0.007,0.012,0.01,0.017
		c0.003,0.004,0.005,0.008,0.005,0.013c0.003,0.006,0.007,0.012,0.011,0.017c0.003,0.004,0.005,0.008,0.004,0.013
		c0.003,0.006,0.007,0.012,0.01,0.017c0.003,0.004,0.005,0.008,0.004,0.013c0.003,0.006,0.007,0.011,0.01,0.017
		c0.003,0.004,0.005,0.008,0.005,0.013c0.003,0.006,0.007,0.011,0.01,0.017c0.003,0.004,0.005,0.008,0.005,0.013
		c0.004,0.006,0.007,0.011,0.01,0.017c0.003,0.004,0.005,0.008,0.004,0.014c0.004,0.005,0.007,0.011,0.01,0.017
		c0.003,0.004,0.005,0.008,0.005,0.014c0.004,0.005,0.007,0.011,0.01,0.017C25.909,6.368,25.911,6.372,25.91,6.378z"/>
	<path fill="#00D629" d="M25.414,5.383c-0.069,0.021-0.137,0.023-0.207,0.006c-0.024-0.006-0.05-0.005-0.075-0.005
		c-0.226,0-0.452-0.001-0.678,0c-0.068,0-0.134-0.008-0.2-0.027c-0.009-0.003-0.02-0.003-0.03-0.004
		c-0.052-0.1-0.104-0.199-0.154-0.3c-0.089-0.176-0.176-0.354-0.263-0.531c-0.012-0.025-0.023-0.05-0.034-0.075
		c0.061-0.028,0.125-0.011,0.185-0.005c0.223,0.022,0.447,0.007,0.67,0.012c0.073,0.002,0.146-0.002,0.219,0.002
		c0.04,0.002,0.081,0,0.118,0.021c0.032,0.062,0.066,0.123,0.096,0.185c0.038,0.078,0.082,0.154,0.112,0.236
		c0.003,0.006,0.007,0.012,0.01,0.017c0.004,0.004,0.005,0.008,0.005,0.013c0.003,0.006,0.007,0.012,0.01,0.017
		c0.004,0.004,0.005,0.008,0.005,0.013c0.003,0.006,0.007,0.011,0.01,0.017c0.004,0.004,0.005,0.008,0.005,0.013
		c0.003,0.006,0.007,0.011,0.01,0.017c0.004,0.004,0.005,0.008,0.005,0.014c0.003,0.005,0.007,0.011,0.01,0.017
		c0.004,0.004,0.005,0.009,0.005,0.014c0.004,0.005,0.007,0.011,0.01,0.016c0.004,0.004,0.005,0.008,0.005,0.014
		c0.004,0.005,0.007,0.011,0.01,0.016c0.002,0.005,0.003,0.009,0.005,0.014c0.004,0.005,0.007,0.01,0.01,0.016
		c0.002,0.005,0.003,0.01,0.005,0.014c0.004,0.005,0.007,0.01,0.01,0.016c0.002,0.005,0.003,0.009,0.005,0.014
		c0.004,0.005,0.007,0.011,0.011,0.016c0.004,0.003,0.005,0.007,0.005,0.011c0.001,0.008,0.007,0.013,0.011,0.019
		c0.003,0.003,0.005,0.007,0.004,0.011c0.001,0.008,0.007,0.013,0.011,0.019c0.003,0.003,0.005,0.007,0.004,0.011
		c0.001,0.008,0.007,0.013,0.011,0.019c0.003,0.003,0.005,0.007,0.004,0.012c0.002,0.007,0.007,0.013,0.011,0.019
		c0.003,0.003,0.005,0.007,0.004,0.012c0.002,0.007,0.007,0.013,0.011,0.019c0.003,0.003,0.005,0.007,0.004,0.012
		c0.002,0.007,0.007,0.013,0.011,0.019C25.411,5.373,25.413,5.378,25.414,5.383z"/>
	<path fill="#00639C" d="M24.357,9.852c0.001,0.004-0.001,0.008-0.004,0.012c-0.004,0.006-0.009,0.011-0.011,0.018
		c0.001,0.004-0.001,0.008-0.004,0.012c-0.004,0.006-0.01,0.011-0.011,0.019c0.001,0.004-0.001,0.008-0.004,0.011
		c-0.005,0.006-0.01,0.011-0.011,0.019c0.001,0.004-0.001,0.008-0.004,0.011c-0.005,0.006-0.01,0.011-0.011,0.019
		c-0.021,0.063-0.056,0.119-0.084,0.178c0,0.006-0.003,0.01-0.008,0.011c-0.002,0.006-0.005,0.013-0.007,0.019
		c-0.001,0.005-0.004,0.009-0.008,0.012c-0.002,0.006-0.004,0.012-0.006,0.018c-0.002,0.005-0.005,0.009-0.009,0.012
		c-0.002,0.006-0.004,0.012-0.006,0.018c-0.002,0.005-0.004,0.009-0.009,0.012c-0.058,0.117-0.115,0.233-0.173,0.35
		c-0.004,0.009-0.009,0.018-0.014,0.027c-0.01,0.02-0.024,0.03-0.047,0.03c-0.05,0-0.1,0.007-0.15,0.012
		c-0.095,0.009-0.19,0.013-0.285,0.02c-0.092,0.007-0.184,0.018-0.277,0.025c-0.087,0.007-0.175,0.012-0.262,0.019
		c-0.032,0.002-0.065,0.006-0.097,0.009c-0.027,0.002-0.054,0.004-0.079,0.006c-0.015-0.02-0.002-0.032,0.004-0.045
		c0.077-0.16,0.155-0.32,0.231-0.481c0.058-0.122,0.115-0.245,0.172-0.368c0.014-0.029,0.03-0.058,0.044-0.087
		c0.032-0.025,0.07-0.027,0.108-0.023c0.283,0.028,0.567,0.008,0.851,0.014c0.045,0.001,0.091,0.001,0.134,0.014
		c0.023,0.007,0.052,0.008,0.051,0.044c0,0.005-0.001,0.009-0.005,0.013C24.364,9.84,24.359,9.845,24.357,9.852z"/>
	<path fill="#00758A" d="M24.373,9.821c-0.006-0.005-0.011-0.013-0.017-0.014c-0.054-0.009-0.107-0.021-0.162-0.02
		c-0.232,0.002-0.465,0.001-0.697,0.001c-0.035,0-0.069-0.004-0.104-0.01c-0.054-0.008-0.11-0.004-0.164-0.005
		c0.045-0.098,0.088-0.197,0.136-0.293c0.09-0.179,0.173-0.362,0.259-0.544c0.006-0.013,0.015-0.025,0.023-0.038
		c0.065,0,0.13,0,0.195,0c0.047,0,0.095-0.004,0.141,0.012c0.02,0.007,0.045,0.003,0.067,0.003c0.258,0,0.516,0,0.774,0.001
		c-0.005,0.014-0.009,0.029-0.016,0.042c-0.138,0.278-0.277,0.556-0.416,0.834C24.388,9.801,24.38,9.811,24.373,9.821z"/>
	<path fill="#00EB14" d="M24.964,4.478c-0.029,0.004-0.056,0.018-0.088,0.004c-0.017-0.008-0.04-0.002-0.06-0.002
		c-0.231,0-0.462,0-0.694,0c-0.037,0-0.075,0.003-0.112-0.011c-0.018-0.007-0.04-0.004-0.06-0.004c-0.06,0-0.12,0.003-0.179-0.016
		c-0.008-0.013-0.017-0.025-0.023-0.038c-0.114-0.23-0.229-0.459-0.343-0.689c-0.007-0.013-0.01-0.028-0.015-0.042
		c0.02,0.011,0.042,0.015,0.065,0.015c0.052,0,0.105-0.004,0.156,0.013c0.018,0.006,0.04,0.002,0.06,0.002c0.225,0,0.45,0,0.675,0
		c0.045,0,0.089-0.001,0.134,0.012c0.033,0.01,0.071,0.011,0.09-0.032c0.007,0.01,0.015,0.02,0.02,0.031
		c0.074,0.15,0.148,0.299,0.222,0.449c0.005,0.011,0.009,0.023,0.013,0.035c0.003,0.006,0.007,0.012,0.01,0.017
		c0.004,0.004,0.005,0.008,0.005,0.013c0.003,0.006,0.007,0.012,0.01,0.017c0.004,0.004,0.005,0.008,0.005,0.013
		c0.004,0.006,0.007,0.011,0.01,0.017c0.004,0.004,0.005,0.008,0.005,0.013c0.004,0.006,0.007,0.011,0.01,0.017
		c0.004,0.004,0.005,0.008,0.005,0.013c0.004,0.006,0.007,0.011,0.01,0.017C24.899,4.347,24.9,4.351,24.9,4.356
		c0.004,0.005,0.007,0.011,0.01,0.017c0.004,0.004,0.005,0.008,0.005,0.014c0.004,0.005,0.007,0.011,0.011,0.017
		c0.004,0.002,0.006,0.006,0.006,0.01c0.001,0.008,0.006,0.014,0.011,0.02c0.003,0.003,0.005,0.006,0.004,0.01
		c0.001,0.008,0.006,0.014,0.011,0.02C24.959,4.468,24.961,4.473,24.964,4.478z"/>
	<path fill="#008975" d="M24.265,7.601c0,0.012-0.002,0.023-0.014,0.029C24.251,7.618,24.255,7.608,24.265,7.601z"/>
	<path fill="#00D629" d="M24.835,4.222c-0.003-0.006-0.007-0.012-0.01-0.017C24.832,4.208,24.836,4.214,24.835,4.222z"/>
	<path fill="#00D629" d="M24.85,4.252c-0.003-0.006-0.007-0.012-0.01-0.017C24.847,4.239,24.851,4.244,24.85,4.252z"/>
	<path fill="#00D629" d="M24.865,4.282c-0.003-0.006-0.007-0.011-0.01-0.017C24.862,4.269,24.866,4.274,24.865,4.282z"/>
	<path fill="#00D629" d="M24.88,4.313c-0.003-0.006-0.007-0.011-0.01-0.017C24.877,4.299,24.881,4.305,24.88,4.313z"/>
	<path fill="#00D629" d="M24.895,4.343c-0.003-0.006-0.007-0.011-0.01-0.017C24.892,4.329,24.896,4.335,24.895,4.343z"/>
	<path fill="#00D629" d="M24.91,4.373c-0.003-0.006-0.007-0.011-0.01-0.017C24.906,4.36,24.91,4.365,24.91,4.373z"/>
	<path fill="#00D629" d="M24.925,4.403c-0.004-0.006-0.007-0.011-0.011-0.017C24.922,4.39,24.926,4.395,24.925,4.403z"/>
	<path fill="#00D629" d="M24.942,4.434c-0.007-0.005-0.011-0.011-0.011-0.02C24.939,4.418,24.942,4.425,24.942,4.434z"/>
	<path fill="#00D629" d="M24.957,4.464c-0.007-0.005-0.011-0.011-0.011-0.02C24.954,4.448,24.957,4.455,24.957,4.464z"/>
	<path fill="#00C33B" d="M25.182,4.916c-0.003-0.006-0.007-0.011-0.01-0.017C25.179,4.902,25.182,4.908,25.182,4.916z"/>
	<path fill="#00C33B" d="M25.197,4.946c-0.003-0.006-0.007-0.011-0.01-0.017C25.194,4.932,25.197,4.938,25.197,4.946z"/>
	<path fill="#00C33B" d="M25.212,4.976c-0.003-0.006-0.007-0.011-0.01-0.017C25.208,4.963,25.212,4.968,25.212,4.976z"/>
	<path fill="#00C33B" d="M25.227,5.006c-0.003-0.006-0.007-0.011-0.01-0.017C25.223,4.993,25.227,4.998,25.227,5.006z"/>
	<path fill="#00C33B" d="M25.242,5.036c-0.003-0.006-0.007-0.011-0.01-0.017C25.238,5.023,25.242,5.028,25.242,5.036z"/>
	<path fill="#00C33B" d="M25.257,5.066c-0.003-0.005-0.007-0.011-0.01-0.016C25.253,5.054,25.257,5.059,25.257,5.066z"/>
	<path fill="#00C33B" d="M25.272,5.097c-0.003-0.005-0.007-0.011-0.01-0.016C25.268,5.084,25.272,5.089,25.272,5.097z"/>
	<path fill="#00C33B" d="M25.287,5.127c-0.003-0.005-0.007-0.011-0.01-0.016C25.283,5.114,25.287,5.119,25.287,5.127z"/>
	<path fill="#00C33B" d="M25.302,5.157c-0.003-0.005-0.007-0.011-0.01-0.016C25.298,5.144,25.302,5.149,25.302,5.157z"/>
	<path fill="#00C33B" d="M25.318,5.187c-0.004-0.005-0.007-0.011-0.011-0.016C25.314,5.174,25.318,5.179,25.318,5.187z"/>
	<path fill="#00C33B" d="M25.334,5.218c-0.007-0.004-0.011-0.011-0.011-0.019C25.33,5.203,25.334,5.209,25.334,5.218z"/>
	<path fill="#00C33B" d="M25.349,5.248c-0.004-0.006-0.007-0.013-0.011-0.019C25.345,5.233,25.349,5.239,25.349,5.248z"/>
	<path fill="#00C33B" d="M25.364,5.278c-0.004-0.006-0.007-0.013-0.011-0.019C25.36,5.263,25.364,5.269,25.364,5.278z"/>
	<path fill="#00C33B" d="M25.379,5.308c-0.004-0.006-0.007-0.012-0.011-0.019C25.375,5.294,25.379,5.3,25.379,5.308z"/>
	<path fill="#00C33B" d="M25.394,5.338c-0.004-0.006-0.007-0.012-0.011-0.019C25.39,5.324,25.394,5.33,25.394,5.338z"/>
	<path fill="#00C33B" d="M25.409,5.368c-0.004-0.006-0.007-0.012-0.011-0.019C25.405,5.354,25.409,5.36,25.409,5.368z"/>
	<path fill="#00EB14" d="M24.279,3.106c-0.008-0.005-0.011-0.012-0.011-0.021C24.275,3.09,24.279,3.097,24.279,3.106z"/>
	<path fill="#00EB14" d="M24.294,3.136c-0.008-0.005-0.011-0.012-0.011-0.021C24.29,3.121,24.294,3.127,24.294,3.136z"/>
	<path fill="#00EB14" d="M24.309,3.167c-0.007-0.005-0.011-0.011-0.011-0.02C24.305,3.151,24.309,3.158,24.309,3.167z"/>
	<path fill="#00EB14" d="M24.324,3.197c-0.007-0.005-0.011-0.011-0.011-0.02C24.32,3.181,24.324,3.188,24.324,3.197z"/>
	<path fill="#00EB14" d="M24.339,3.227c-0.007-0.005-0.011-0.011-0.011-0.02C24.335,3.211,24.339,3.218,24.339,3.227z"/>
	<path fill="#00EB14" d="M24.353,3.257c-0.007-0.004-0.011-0.011-0.011-0.019C24.35,3.242,24.354,3.248,24.353,3.257z"/>
	<path fill="#00EB14" d="M24.368,3.287c-0.007-0.004-0.011-0.011-0.011-0.019C24.365,3.272,24.369,3.279,24.368,3.287z"/>
	<path fill="#00EB14" d="M24.383,3.317c-0.004-0.006-0.007-0.013-0.011-0.019C24.38,3.302,24.384,3.309,24.383,3.317z"/>
	<path fill="#00EB14" d="M24.398,3.347c-0.004-0.006-0.007-0.012-0.011-0.019C24.395,3.333,24.399,3.339,24.398,3.347z"/>
	<path fill="#00EB14" d="M24.413,3.378c-0.004-0.006-0.007-0.012-0.011-0.019C24.41,3.363,24.414,3.369,24.413,3.378z"/>
	<path fill="#00EB14" d="M24.428,3.408c-0.007-0.004-0.011-0.01-0.011-0.019C24.425,3.393,24.429,3.399,24.428,3.408z"/>
	<path fill="#00EB14" d="M24.443,3.438c-0.004-0.006-0.007-0.012-0.011-0.018C24.44,3.424,24.444,3.43,24.443,3.438z"/>
	<path fill="#00AA55" d="M25.801,6.152c-0.003-0.006-0.007-0.012-0.01-0.017C25.797,6.139,25.801,6.144,25.801,6.152z"/>
	<path fill="#00AA55" d="M25.816,6.183c-0.004-0.006-0.007-0.011-0.011-0.017C25.812,6.169,25.816,6.174,25.816,6.183z"/>
	<path fill="#00AA55" d="M25.831,6.213c-0.003-0.006-0.007-0.012-0.01-0.017C25.827,6.199,25.831,6.205,25.831,6.213z"/>
	<path fill="#00EB14" d="M24.458,3.468c-0.004-0.006-0.007-0.012-0.011-0.018C24.455,3.454,24.459,3.46,24.458,3.468z"/>
	<path fill="#00AA55" d="M25.845,6.243c-0.003-0.006-0.007-0.011-0.01-0.017C25.842,6.23,25.846,6.235,25.845,6.243z"/>
	<path fill="#00AA55" d="M25.861,6.273c-0.003-0.006-0.007-0.011-0.01-0.017C25.857,6.26,25.861,6.265,25.861,6.273z"/>
	<path fill="#00AA55" d="M25.876,6.303c-0.003-0.006-0.007-0.011-0.01-0.017C25.872,6.29,25.876,6.295,25.876,6.303z"/>
	<path fill="#00AA55" d="M25.89,6.333c-0.003-0.006-0.007-0.011-0.01-0.017C25.887,6.32,25.891,6.326,25.89,6.333z"/>
	<path fill="#00EB14" d="M24.473,3.498c-0.003-0.006-0.007-0.012-0.01-0.018C24.47,3.484,24.474,3.49,24.473,3.498z"/>
	<path fill="#00AA55" d="M25.906,6.364c-0.004-0.006-0.007-0.011-0.011-0.017C25.902,6.351,25.906,6.356,25.906,6.364z"/>
	<path fill="#00EB14" d="M24.488,3.528c-0.003-0.006-0.007-0.012-0.01-0.018C24.485,3.515,24.489,3.52,24.488,3.528z"/>
	<path fill="#00EB14" d="M24.503,3.559c-0.003-0.006-0.007-0.012-0.01-0.018C24.5,3.545,24.504,3.55,24.503,3.559z"/>
	<path fill="#00EB14" d="M24.518,3.589c-0.003-0.006-0.007-0.012-0.01-0.017C24.515,3.575,24.519,3.581,24.518,3.589z"/>
	<path fill="#00EB14" d="M24.533,3.619c-0.004-0.006-0.007-0.011-0.011-0.017C24.53,3.605,24.534,3.611,24.533,3.619z"/>
	<path fill="#008975" d="M24.295,7.539c-0.003,0.005-0.007,0.01-0.01,0.015C24.288,7.55,24.292,7.544,24.295,7.539z"/>
	<path fill="#008975" d="M24.28,7.57c-0.003,0.005-0.006,0.01-0.01,0.014C24.274,7.58,24.277,7.575,24.28,7.57z"/>
	<path fill="#00EB14" d="M24.551,3.649c-0.008-0.004-0.012-0.011-0.012-0.02C24.547,3.634,24.551,3.64,24.551,3.649z"/>
	<path fill="#008975" d="M24.248,7.641c0,0.009-0.004,0.015-0.011,0.02C24.241,7.654,24.245,7.648,24.248,7.641z"/>
	<path fill="#00EB14" d="M24.565,3.68c-0.008-0.005-0.011-0.012-0.011-0.021C24.562,3.663,24.565,3.67,24.565,3.68z"/>
	<path fill="#00758A" d="M24.357,9.852c0.004-0.006,0.007-0.012,0.011-0.019C24.365,9.84,24.361,9.846,24.357,9.852z"/>
	<path fill="#00758A" d="M24.342,9.882c0.004-0.006,0.008-0.012,0.011-0.018C24.35,9.87,24.346,9.876,24.342,9.882z"/>
	<path fill="#00758A" d="M24.327,9.913c0.004-0.006,0.008-0.013,0.011-0.019C24.335,9.9,24.331,9.907,24.327,9.913z"/>
	<path fill="#00758A" d="M24.312,9.943c0.004-0.006,0.008-0.013,0.011-0.019C24.32,9.93,24.316,9.937,24.312,9.943z"/>
	<path fill="#00758A" d="M24.297,9.974c0.004-0.006,0.007-0.013,0.011-0.019C24.305,9.961,24.301,9.967,24.297,9.974z"/>
	<path fill="#00758A" d="M24.205,10.163c0.002-0.005,0.004-0.009,0.008-0.011C24.21,10.155,24.208,10.159,24.205,10.163z"/>
	<path fill="#00758A" d="M24.19,10.194c0.001-0.005,0.004-0.009,0.008-0.012C24.196,10.186,24.193,10.19,24.19,10.194z"/>
	<path fill="#00758A" d="M24.175,10.224c0.003-0.004,0.006-0.008,0.009-0.012C24.181,10.216,24.178,10.22,24.175,10.224z"/>
	<path fill="#00758A" d="M24.16,10.254c0.003-0.004,0.006-0.008,0.009-0.012C24.166,10.246,24.163,10.25,24.16,10.254z"/>
	<path fill="#009F60" d="M27.13,7.766c0.002-0.023,0.015-0.042,0.025-0.062c0.119-0.249,0.237-0.499,0.357-0.748
		c0.023-0.047,0.036-0.099,0.07-0.141c0.195,0.007,0.39,0.021,0.585,0.024c0.037,0.001,0.076-0.007,0.107,0.022
		c-0.047,0.097-0.093,0.195-0.141,0.291c-0.115,0.232-0.231,0.463-0.347,0.694c-0.039,0.079-0.078,0.157-0.117,0.236
		c-0.018,0.014-0.039,0.022-0.062,0.022c-0.184,0.005-0.368,0.003-0.551-0.016c-0.025-0.003-0.049-0.009-0.061-0.036
		C26.997,8.048,26.998,8.043,27,8.037c0.003-0.006,0.006-0.011,0.01-0.015c0.002-0.005,0.003-0.01,0.005-0.015
		c0.003-0.006,0.006-0.011,0.01-0.016c0-0.005,0.001-0.01,0.004-0.014c0.004-0.006,0.007-0.011,0.011-0.017
		c0-0.005,0.001-0.01,0.004-0.013c0.004-0.006,0.007-0.011,0.011-0.017c0-0.005,0.001-0.009,0.004-0.013
		c0.004-0.006,0.009-0.011,0.011-0.018c0.006-0.032,0.024-0.059,0.037-0.088c0.002-0.005,0.005-0.01,0.009-0.013
		c0.002-0.006,0.004-0.011,0.005-0.017C27.123,7.775,27.126,7.77,27.13,7.766z"/>
	<path fill="#008679" d="M26.995,8.053c0.022,0.013,0.046,0.016,0.072,0.015c0.049,0,0.099-0.004,0.148,0.013
		c0.016,0.005,0.035,0.002,0.052,0.002c0.134,0,0.269,0,0.403,0c-0.038,0.076-0.077,0.152-0.115,0.228
		c-0.087,0.176-0.17,0.353-0.26,0.527c-0.073,0.141-0.143,0.282-0.212,0.425c-0.005,0.011-0.011,0.023-0.017,0.033
		c-0.008,0.014-0.019,0.022-0.036,0.023c-0.065,0.005-0.13,0.01-0.195,0.016c-0.097,0.008-0.195,0.018-0.292,0.026
		c-0.055,0.004-0.11,0.005-0.162,0.007c-0.012-0.021-0.001-0.034,0.005-0.046c0.053-0.111,0.107-0.222,0.159-0.333
		c0.096-0.202,0.191-0.404,0.287-0.606c0.05-0.104,0.1-0.208,0.15-0.312C26.984,8.064,26.99,8.059,26.995,8.053z"/>
	<path fill="#00BC43" d="M28.274,6.862c-0.083,0-0.165,0-0.248,0c-0.03,0-0.059,0-0.089-0.009c-0.021-0.007-0.044-0.005-0.067-0.006
		c-0.075-0.001-0.15-0.001-0.226,0c-0.027,0-0.05-0.004-0.062-0.032c0.002-0.005,0.003-0.01,0.005-0.014
		c0.003-0.006,0.007-0.011,0.01-0.017c0-0.005,0.001-0.009,0.004-0.013c0.004-0.006,0.007-0.011,0.011-0.017
		c0-0.005,0.001-0.009,0.004-0.013c0.004-0.006,0.009-0.011,0.011-0.018c0-0.005,0.001-0.009,0.004-0.012
		c0.004-0.006,0.01-0.011,0.011-0.019c0-0.005,0.001-0.008,0.005-0.011c0.004-0.005,0.008-0.011,0.011-0.017
		c0-0.005,0.001-0.01,0.005-0.014c0.004-0.006,0.007-0.011,0.01-0.017c0-0.005,0.001-0.009,0.004-0.013
		c0.004-0.006,0.008-0.011,0.01-0.018c0.019-0.044,0.035-0.088,0.057-0.131c0.014-0.028,0.013-0.05-0.001-0.077
		c-0.071-0.138-0.141-0.278-0.21-0.417c-0.054-0.108-0.107-0.216-0.161-0.324c-0.004-0.009-0.007-0.019-0.011-0.028
		c0.023-0.016,0.048-0.009,0.072-0.008c0.166,0.006,0.333-0.01,0.499,0.014c0.035,0.005,0.069-0.008,0.104-0.008
		c0.019,0.018,0.026,0.042,0.037,0.064c0.099,0.199,0.196,0.399,0.295,0.599c0.027,0.054,0.055,0.106,0.084,0.159
		c0.011,0.021,0.015,0.04,0.003,0.063C28.395,6.626,28.335,6.744,28.274,6.862z"/>
	<path fill="#00E31C" d="M27.548,4.644c0.002,0.005,0.004,0.01,0.005,0.015c0.009,0.009,0.005,0.023,0.015,0.031l0,0
		c0.008,0.009,0.006,0.022,0.015,0.031l0,0c-0.009,0.062-0.06,0.054-0.099,0.052c-0.125-0.007-0.25-0.017-0.375-0.013
		c-0.038,0.001-0.075,0.001-0.113,0c-0.028-0.001-0.055-0.003-0.077-0.023c-0.029-0.053-0.059-0.104-0.086-0.158
		c-0.104-0.209-0.207-0.418-0.311-0.627c-0.04-0.081-0.082-0.161-0.123-0.241c-0.007-0.013-0.014-0.027-0.02-0.04
		c-0.013-0.029-0.009-0.038,0.02-0.037c0.123,0.005,0.246,0.002,0.369,0.012c0.083,0.006,0.166,0.006,0.248,0.007
		c0.029,0,0.045,0.011,0.058,0.037c0.147,0.297,0.295,0.593,0.443,0.89c0.003,0.007,0.004,0.014,0.006,0.022
		c0.004,0.005,0.007,0.01,0.01,0.016c0.002,0.005,0.003,0.01,0.005,0.015C27.543,4.633,27.546,4.638,27.548,4.644z"/>
	<path fill="#00D42B" d="M26.92,4.736c0.116,0,0.231,0,0.347,0c0.047,0,0.094,0.001,0.142,0.011c0.043,0.009,0.09,0.003,0.135,0.003
		c0.019,0,0.032-0.012,0.04-0.029c0.034,0.044,0.054,0.096,0.079,0.144c0.072,0.14,0.141,0.282,0.21,0.424
		c0.005,0.011,0.009,0.023,0.013,0.035c0.004,0.004,0.007,0.009,0.01,0.015c0.002,0.005,0.004,0.01,0.005,0.015
		c0.004,0.004,0.007,0.009,0.01,0.015c0.002,0.005,0.004,0.01,0.005,0.015c0.004,0.004,0.007,0.009,0.009,0.015
		c0.002,0.005,0.004,0.011,0.006,0.016c0.004,0.004,0.008,0.009,0.009,0.014c0.002,0.005,0.004,0.011,0.006,0.016
		c0.004,0.004,0.008,0.009,0.009,0.014c0.002,0.005,0.004,0.011,0.006,0.016c0.009,0.008,0.006,0.022,0.015,0.03l0,0
		c0.009,0.008,0.006,0.022,0.015,0.03l0,0c0.009,0.008,0.006,0.022,0.015,0.03l0,0.001c0.009,0.008,0.006,0.021,0.014,0.03l0,0.001
		c0.005,0.003,0.008,0.007,0.01,0.013c0.002,0.005,0.005,0.009,0.007,0.014c-0.009,0.02-0.024,0.032-0.047,0.032
		c-0.042-0.001-0.085,0.005-0.127-0.008c-0.021-0.007-0.045-0.006-0.067-0.006c-0.111-0.001-0.221-0.001-0.332,0
		c-0.036,0-0.07-0.004-0.103-0.016c-0.057-0.112-0.115-0.223-0.172-0.335c-0.082-0.164-0.163-0.328-0.245-0.492
		C26.935,4.778,26.921,4.759,26.92,4.736z"/>
	<path fill="#00BC43" d="M28.02,5.595c-0.011-0.007-0.014-0.017-0.014-0.03C28.016,5.573,28.02,5.583,28.02,5.595z"/>
	<path fill="#00BC43" d="M28.005,5.565c-0.012-0.007-0.015-0.017-0.015-0.03C28.001,5.542,28.006,5.552,28.005,5.565z"/>
	<path fill="#00BC43" d="M27.99,5.535c-0.012-0.006-0.015-0.017-0.015-0.03C27.986,5.512,27.991,5.522,27.99,5.535z"/>
	<path fill="#00BC43" d="M27.975,5.505c-0.012-0.007-0.015-0.018-0.015-0.03C27.971,5.482,27.976,5.492,27.975,5.505z"/>
	<path fill="#00D42B" d="M27.583,4.72c-0.012-0.007-0.015-0.018-0.015-0.031C27.579,4.697,27.584,4.708,27.583,4.72z"/>
	<path fill="#00D42B" d="M27.569,4.69c-0.013-0.006-0.016-0.018-0.015-0.031C27.564,4.667,27.569,4.677,27.569,4.69z"/>
	<path fill="#00D42B" d="M27.533,4.614c-0.003-0.005-0.007-0.01-0.01-0.016C27.527,4.604,27.53,4.609,27.533,4.614z"/>
	<path fill="#00D42B" d="M27.548,4.644c-0.003-0.005-0.006-0.01-0.01-0.015C27.542,4.634,27.545,4.639,27.548,4.644z"/>
	<path fill="#00BC43" d="M27.895,5.338c-0.003-0.005-0.006-0.01-0.01-0.015C27.889,5.328,27.892,5.333,27.895,5.338z"/>
	<path fill="#00BC43" d="M27.91,5.368c-0.003-0.005-0.006-0.01-0.01-0.015C27.904,5.358,27.907,5.363,27.91,5.368z"/>
	<path fill="#00BC43" d="M27.925,5.398c-0.003-0.005-0.006-0.01-0.009-0.015C27.919,5.388,27.922,5.393,27.925,5.398z"/>
	<path fill="#00BC43" d="M27.94,5.428c-0.003-0.005-0.006-0.01-0.009-0.014C27.934,5.419,27.937,5.424,27.94,5.428z"/>
	<path fill="#00BC43" d="M27.955,5.459c-0.003-0.005-0.006-0.01-0.009-0.014C27.949,5.449,27.952,5.454,27.955,5.459z"/>
	<path fill="#00BC43" d="M28.03,5.609c-0.003-0.004-0.007-0.009-0.01-0.013C28.024,5.601,28.027,5.605,28.03,5.609z"/>
	<path fill="#009F60" d="M27.687,6.602c-0.003,0.006-0.007,0.012-0.01,0.018C27.677,6.612,27.68,6.606,27.687,6.602z"/>
	<path fill="#009F60" d="M27.673,6.633c-0.003,0.006-0.007,0.011-0.01,0.017C27.662,6.642,27.666,6.637,27.673,6.633z"/>
	<path fill="#009F60" d="M27.658,6.664c-0.004,0.006-0.007,0.011-0.011,0.017C27.647,6.672,27.651,6.667,27.658,6.664z"/>
	<path fill="#009F60" d="M27.642,6.692c0,0.008-0.004,0.015-0.011,0.019C27.631,6.702,27.635,6.696,27.642,6.692z"/>
	<path fill="#009F60" d="M27.612,6.753c-0.004,0.006-0.007,0.012-0.011,0.017C27.601,6.763,27.605,6.757,27.612,6.753z"/>
	<path fill="#009F60" d="M27.598,6.784c-0.003,0.006-0.007,0.011-0.01,0.017C27.587,6.793,27.591,6.788,27.598,6.784z"/>
	<path fill="#008679" d="M27.13,7.766c-0.003,0.005-0.006,0.01-0.01,0.014C27.124,7.776,27.127,7.771,27.13,7.766z"/>
	<path fill="#008679" d="M27.116,7.797c-0.003,0.004-0.006,0.009-0.009,0.013C27.11,7.806,27.113,7.802,27.116,7.797z"/>
	<path fill="#008679" d="M27.069,7.899c-0.004,0.006-0.007,0.012-0.011,0.018C27.058,7.909,27.062,7.903,27.069,7.899z"/>
	<path fill="#008679" d="M27.054,7.929c-0.004,0.006-0.007,0.012-0.011,0.017C27.044,7.939,27.048,7.933,27.054,7.929z"/>
	<path fill="#008679" d="M27.04,7.96c-0.004,0.006-0.007,0.011-0.011,0.017C27.033,7.971,27.036,7.966,27.04,7.96z"/>
	<path fill="#008679" d="M27.025,7.991c-0.003,0.005-0.007,0.011-0.01,0.016C27.018,8.002,27.021,7.996,27.025,7.991z"/>
	<path fill="#008679" d="M27.01,8.022c-0.003,0.005-0.007,0.01-0.01,0.015C27.003,8.032,27.007,8.027,27.01,8.022z"/>
	<path fill="#009F60" d="M27.627,6.723c0,0.008-0.004,0.014-0.011,0.018C27.616,6.732,27.62,6.726,27.627,6.723z"/>
</g>
</svg>
