<?xml version="1.0" encoding="utf-8"?>
<!-- Generator: Adobe Illustrator 24.3.0, SVG Export Plug-In . SVG Version: 6.00 Build 0)  -->
<svg version="1.1" id="Слой_1" xmlns="http://www.w3.org/2000/svg" xmlns:xlink="http://www.w3.org/1999/xlink" x="0px" y="0px"
	 width="32px" height="13px" viewBox="0 0 32 13" enable-background="new 0 0 32 13" xml:space="preserve">
<g>
	<path d="M16,0.432c1.201,0,2.401,0,3.602,0c0.028,0,0.061-0.006,0.082,0.006c0.021,0.012,0.032,0.044,0.046,0.068
		c0.128,0.217,0.255,0.434,0.383,0.651c0.111,0.189,0.223,0.378,0.334,0.566c0.117,0.199,0.235,0.398,0.352,0.597
		c0.111,0.189,0.223,0.378,0.334,0.566c0.116,0.197,0.232,0.394,0.348,0.591c0.113,0.191,0.225,0.382,0.338,0.572
		c0.116,0.197,0.232,0.394,0.348,0.591c0.113,0.191,0.225,0.382,0.338,0.572c0.116,0.197,0.232,0.394,0.348,0.591
		c0.11,0.187,0.22,0.374,0.331,0.56c0.055,0.092,0.11,0.184,0.164,0.277c0.028,0.049,0.026,0.041-0.001,0.088
		c-0.105,0.179-0.211,0.357-0.317,0.536c-0.013,0.022-0.026,0.045-0.038,0.067c-0.145,0.247-0.29,0.495-0.436,0.742
		c-0.113,0.193-0.227,0.386-0.341,0.579c-0.116,0.197-0.232,0.394-0.348,0.591c-0.113,0.191-0.225,0.382-0.338,0.573
		c-0.115,0.195-0.23,0.39-0.345,0.585c-0.113,0.191-0.225,0.382-0.338,0.572c-0.116,0.197-0.232,0.394-0.348,0.591
		c-0.114,0.193-0.228,0.386-0.341,0.578c-0.114,0.193-0.227,0.386-0.341,0.579c-0.037,0.062-0.074,0.124-0.111,0.186
		c-0.012,0.02-0.025,0.032-0.05,0.03c-0.016-0.001-0.033,0-0.049,0c-2.404,0-4.807,0-7.211,0c-0.009,0-0.019-0.001-0.028,0
		c-0.04,0.006-0.063-0.011-0.083-0.046c-0.112-0.194-0.227-0.386-0.34-0.579c-0.117-0.199-0.235-0.398-0.352-0.597
		c-0.111-0.189-0.223-0.378-0.334-0.566c-0.116-0.197-0.232-0.394-0.348-0.591c-0.113-0.191-0.225-0.382-0.338-0.572
		c-0.116-0.197-0.232-0.394-0.348-0.591c-0.111-0.189-0.223-0.378-0.334-0.566C9.773,8.63,9.656,8.431,9.538,8.232
		c-0.11-0.187-0.22-0.374-0.331-0.56C9.089,7.471,8.971,7.269,8.852,7.069C8.785,6.954,8.717,6.84,8.647,6.727
		C8.626,6.694,8.628,6.669,8.649,6.639c0.023-0.032,0.042-0.067,0.062-0.101c0.091-0.155,0.181-0.31,0.273-0.465
		C9.096,5.882,9.209,5.691,9.321,5.5C9.437,5.303,9.553,5.106,9.67,4.91c0.113-0.191,0.225-0.382,0.338-0.573
		c0.115-0.195,0.23-0.39,0.345-0.585c0.113-0.191,0.225-0.382,0.338-0.572c0.117-0.199,0.234-0.398,0.352-0.597
		c0.11-0.187,0.22-0.374,0.33-0.56c0.117-0.199,0.234-0.398,0.352-0.597c0.111-0.189,0.223-0.378,0.334-0.566
		c0.078-0.132,0.158-0.264,0.236-0.397c0.014-0.023,0.03-0.033,0.056-0.031c0.016,0.001,0.033,0,0.049,0
		C13.599,0.432,14.8,0.432,16,0.432z"/>
	<path d="M10.145,12.588c-0.03,0.008-0.05,0.006-0.07,0.006c-0.346-0.004-0.691-0.008-1.037-0.012
		c-0.715-0.007-1.429-0.013-2.144-0.02c-0.698-0.007-1.397-0.016-2.095-0.023c-0.719-0.007-1.439-0.014-2.158-0.021
		c-0.652-0.007-1.303-0.014-1.955-0.021c-0.012,0-0.023,0-0.035-0.001c-0.014-0.001-0.02-0.009-0.02-0.022c0-0.007,0-0.014,0-0.021
		c0-0.021,0-0.042,0-0.063c0-3.859,0-7.718,0-11.577c0-0.032-0.009-0.065,0.008-0.095c0.03-0.002,0.06-0.005,0.09-0.005
		c0.61-0.01,1.219-0.02,1.829-0.03c0.6-0.01,1.2-0.02,1.801-0.029c0.568-0.009,1.135-0.018,1.703-0.027
		c0.584-0.009,1.168-0.019,1.752-0.028c0.605-0.01,1.21-0.02,1.815-0.029c0.053-0.001,0.106,0,0.159,0
		c0.005,0.021-0.014,0.023-0.024,0.03C9.636,0.683,9.51,0.767,9.384,0.851C9.249,0.939,9.115,1.028,8.98,1.117
		C8.669,1.323,8.359,1.53,8.048,1.736c-0.315,0.209-0.63,0.417-0.945,0.626C6.976,2.446,6.85,2.531,6.723,2.614
		C6.393,2.834,6.062,3.053,5.732,3.272C5.564,3.383,5.398,3.494,5.23,3.604c-0.02,0.013-0.035,0.03-0.048,0.05
		c-0.046,0.07-0.093,0.14-0.14,0.21C4.952,4.003,4.861,4.141,4.769,4.279c-0.122,0.185-0.245,0.37-0.367,0.554
		C4.29,5.003,4.178,5.172,4.066,5.341c-0.173,0.26-0.345,0.521-0.518,0.781C3.464,6.249,3.379,6.375,3.295,6.501
		C3.289,6.51,3.283,6.521,3.276,6.53C3.261,6.549,3.26,6.566,3.272,6.588c0.025,0.045,0.047,0.091,0.071,0.137
		C3.37,6.776,3.398,6.827,3.425,6.879C3.509,7.04,3.592,7.202,3.677,7.363c0.112,0.215,0.225,0.43,0.337,0.644
		C4.13,8.228,4.245,8.449,4.361,8.671c0.11,0.211,0.221,0.421,0.331,0.632c0.017,0.032,0.038,0.056,0.069,0.075
		C5.04,9.542,5.318,9.709,5.597,9.875c0.14,0.084,0.28,0.168,0.42,0.251c0.339,0.202,0.677,0.404,1.016,0.605
		c0.323,0.192,0.645,0.384,0.968,0.576c0.258,0.154,0.517,0.309,0.775,0.463c0.369,0.22,0.738,0.439,1.106,0.658
		c0.074,0.044,0.148,0.089,0.222,0.133C10.116,12.569,10.127,12.576,10.145,12.588z"/>
	<path d="M22.075,12.758c0.092-0.056,0.18-0.109,0.268-0.161c0.144-0.086,0.289-0.171,0.433-0.257
		c0.327-0.194,0.653-0.389,0.98-0.584c0.202-0.121,0.404-0.242,0.607-0.362c0.309-0.184,0.618-0.367,0.926-0.551
		c0.184-0.11,0.368-0.22,0.553-0.33c0.331-0.197,0.661-0.394,0.992-0.591c0.204-0.122,0.408-0.245,0.613-0.366
		c0.036-0.021,0.06-0.048,0.079-0.085c0.096-0.187,0.192-0.373,0.289-0.559c0.115-0.221,0.231-0.442,0.347-0.663
		c0.112-0.215,0.225-0.43,0.337-0.645c0.116-0.221,0.231-0.442,0.347-0.663c0.032-0.062,0.065-0.124,0.098-0.185
		c0.009-0.016,0.008-0.03-0.003-0.045c-0.047-0.07-0.094-0.139-0.14-0.21c-0.143-0.216-0.285-0.432-0.428-0.648
		c-0.111-0.167-0.222-0.334-0.333-0.502c-0.174-0.262-0.348-0.525-0.522-0.787c-0.111-0.167-0.222-0.334-0.333-0.502
		c-0.052-0.078-0.104-0.155-0.155-0.233c-0.014-0.022-0.032-0.038-0.054-0.053C26.77,3.639,26.562,3.5,26.354,3.362
		c-0.311-0.206-0.623-0.412-0.934-0.618c-0.202-0.134-0.404-0.269-0.606-0.404c-0.311-0.206-0.623-0.412-0.934-0.618
		c-0.121-0.08-0.241-0.16-0.362-0.24c-0.321-0.213-0.641-0.427-0.962-0.64c-0.044-0.03-0.089-0.058-0.133-0.087
		c0.009-0.021,0.025-0.013,0.037-0.013c0.304,0.004,0.607,0.009,0.911,0.014c0.605,0.01,1.21,0.019,1.815,0.029
		c0.584,0.009,1.168,0.019,1.752,0.028c0.584,0.009,1.168,0.019,1.752,0.028c0.586,0.009,1.172,0.019,1.759,0.028
		c0.357,0.006,0.715,0.011,1.072,0.016c0.061,0.001,0.063-0.006,0.062,0.061c0,0.014,0,0.028,0,0.042c0,3.862,0,7.723-0.001,11.585
		c0,0.031,0.015,0.071-0.01,0.093c-0.022,0.019-0.058,0.007-0.088,0.008c-0.355,0.004-0.71,0.006-1.065,0.01
		c-0.911,0.009-1.822,0.019-2.733,0.028c-0.876,0.009-1.752,0.018-2.628,0.027c-0.934,0.01-1.869,0.019-2.803,0.029
		c-0.044,0-0.089,0.002-0.133,0.002C22.109,12.77,22.095,12.775,22.075,12.758z"/>
	<path d="M11.538,12.698c-0.011,0.007-0.017-0.002-0.024-0.007c-0.169-0.107-0.339-0.215-0.508-0.323
		c-0.333-0.211-0.666-0.423-0.998-0.634c-0.193-0.123-0.385-0.246-0.578-0.369c-0.319-0.203-0.638-0.405-0.957-0.608
		c-0.195-0.124-0.389-0.249-0.584-0.373C7.569,10.183,7.25,9.98,6.931,9.778C6.736,9.654,6.542,9.529,6.347,9.405
		C6.028,9.202,5.709,8.999,5.39,8.798c-0.05-0.032-0.091-0.069-0.124-0.12C5.152,8.505,5.034,8.334,4.918,8.162
		C4.807,7.997,4.695,7.833,4.584,7.669C4.466,7.493,4.347,7.317,4.228,7.141c-0.12-0.178-0.241-0.355-0.361-0.533
		C3.865,6.605,3.864,6.6,3.862,6.592c0.119-0.156,0.24-0.313,0.36-0.47C4.284,6.04,4.346,5.958,4.408,5.876
		C4.501,5.754,4.593,5.63,4.686,5.508c0.176-0.232,0.353-0.464,0.53-0.697c0.109-0.143,0.218-0.286,0.327-0.429
		C5.578,4.336,5.614,4.29,5.65,4.244c0.023-0.03,0.052-0.053,0.085-0.072C5.956,4.034,6.178,3.896,6.4,3.758
		c0.345-0.214,0.69-0.428,1.035-0.641C7.721,2.94,8.006,2.763,8.292,2.586C8.575,2.41,8.859,2.235,9.142,2.059
		c0.286-0.177,0.571-0.354,0.856-0.531c0.23-0.143,0.46-0.285,0.69-0.428c0.032-0.02,0.064-0.039,0.1-0.049
		c0.1-0.026,0.202-0.001,0.277,0.101c0.061,0.083,0.052,0.211-0.008,0.282c-0.01,0.012-0.018,0.027-0.027,0.041
		c-0.096,0.149-0.191,0.299-0.287,0.448c-0.116,0.18-0.233,0.361-0.349,0.541c-0.111,0.172-0.223,0.345-0.334,0.517
		c-0.116,0.18-0.233,0.361-0.349,0.541c-0.11,0.17-0.221,0.341-0.331,0.511C9.261,4.217,9.143,4.401,9.024,4.586
		C8.915,4.754,8.806,4.922,8.697,5.091C8.578,5.275,8.459,5.459,8.34,5.643C8.233,5.81,8.125,5.977,8.017,6.143
		c-0.075,0.115-0.15,0.23-0.226,0.346c-0.006,0.01-0.012,0.02-0.019,0.03C7.766,6.529,7.765,6.539,7.772,6.55
		C7.791,6.58,7.81,6.609,7.828,6.639C7.924,6.796,8.02,6.954,8.116,7.111c0.119,0.195,0.239,0.39,0.358,0.585
		C8.582,7.87,8.689,8.045,8.797,8.22c0.121,0.197,0.241,0.394,0.362,0.591c0.1,0.163,0.201,0.326,0.301,0.489
		c0.128,0.209,0.256,0.418,0.383,0.627c0.108,0.177,0.217,0.354,0.326,0.531c0.12,0.195,0.239,0.39,0.358,0.585
		c0.107,0.175,0.215,0.35,0.322,0.525c0.122,0.199,0.244,0.398,0.366,0.597c0.101,0.165,0.203,0.329,0.304,0.494
		C11.528,12.669,11.539,12.682,11.538,12.698z"/>
	<path d="M24.4,6.939c-0.05-0.083-0.099-0.165-0.148-0.246c-0.017-0.028-0.035-0.055-0.052-0.083
		c-0.092-0.151-0.184-0.303-0.277-0.454c-0.112-0.183-0.224-0.366-0.337-0.549c-0.115-0.187-0.23-0.373-0.344-0.56
		c-0.115-0.187-0.229-0.374-0.344-0.561c-0.113-0.185-0.227-0.37-0.341-0.554c-0.113-0.185-0.227-0.37-0.34-0.555
		c-0.116-0.189-0.232-0.378-0.348-0.566c-0.113-0.185-0.227-0.37-0.34-0.555c-0.115-0.187-0.229-0.374-0.344-0.56
		c-0.113-0.185-0.227-0.37-0.341-0.554c-0.071-0.115-0.142-0.23-0.214-0.345c-0.004-0.006-0.006-0.012-0.009-0.018
		c0.016-0.012,0.027,0.003,0.037,0.009c0.064,0.039,0.126,0.08,0.189,0.12c0.262,0.167,0.523,0.334,0.785,0.5
		c0.348,0.222,0.697,0.444,1.045,0.665c0.222,0.141,0.445,0.283,0.668,0.424c0.348,0.222,0.697,0.443,1.045,0.665
		c0.222,0.142,0.445,0.283,0.667,0.424c0.364,0.231,0.729,0.462,1.093,0.694c0.207,0.131,0.412,0.265,0.62,0.394
		c0.059,0.037,0.104,0.083,0.142,0.14c0.13,0.197,0.262,0.391,0.394,0.587c0.111,0.164,0.222,0.328,0.334,0.492
		c0.116,0.172,0.232,0.344,0.349,0.516c0.092,0.135,0.183,0.27,0.275,0.405c0.009,0.014,0.017,0.028,0.027,0.041
		c0.012,0.016,0.01,0.029-0.001,0.044c-0.031,0.041-0.061,0.083-0.092,0.123c-0.079,0.104-0.159,0.207-0.239,0.311
		c-0.147,0.193-0.293,0.387-0.44,0.58c-0.11,0.145-0.22,0.29-0.331,0.434c-0.175,0.23-0.35,0.461-0.525,0.691
		c-0.045,0.059-0.091,0.118-0.136,0.178c-0.023,0.03-0.049,0.055-0.082,0.075c-0.224,0.138-0.448,0.278-0.672,0.417
		c-0.119,0.074-0.238,0.148-0.357,0.221c-0.357,0.221-0.714,0.442-1.071,0.664c-0.327,0.203-0.654,0.405-0.981,0.608
		c-0.206,0.128-0.412,0.256-0.618,0.384c-0.307,0.19-0.615,0.38-0.922,0.571c-0.123,0.076-0.246,0.152-0.369,0.229
		c-0.045,0.028-0.091,0.045-0.145,0.046c-0.199,0.001-0.317-0.204-0.218-0.37c0.035-0.058,0.074-0.113,0.11-0.17
		c0.15-0.233,0.3-0.467,0.45-0.7c0.111-0.173,0.223-0.345,0.334-0.517c0.118-0.182,0.235-0.365,0.353-0.547
		c0.11-0.17,0.22-0.341,0.331-0.511c0.118-0.182,0.235-0.364,0.353-0.547c0.11-0.17,0.22-0.341,0.33-0.511
		c0.119-0.184,0.238-0.368,0.357-0.552c0.109-0.168,0.218-0.337,0.327-0.505c0.108-0.166,0.215-0.333,0.323-0.5
		C24.375,6.98,24.386,6.96,24.4,6.939z"/>
	<path fill="#666666" d="M12.821,12.125c-0.002-0.005-0.004-0.007-0.004-0.009c0.003-0.013,0.006-0.027,0.011-0.04
		c0.137-0.329,0.275-0.658,0.413-0.988c0.003-0.006,0.008-0.011,0.014-0.018c0.02,0.006,0.04,0.011,0.059,0.018
		c0.35,0.129,0.7,0.258,1.051,0.387c0.129,0.048,0.258,0.095,0.387,0.143c0.007,0.002,0.013,0.006,0.02,0.008
		c0.024,0.008,0.029,0.007,0.041-0.011c0.015-0.024,0.03-0.047,0.043-0.072c0.095-0.171,0.19-0.343,0.285-0.514
		c0.118-0.212,0.236-0.424,0.355-0.636c0.112-0.2,0.223-0.399,0.335-0.599c0.036-0.064,0.074-0.128,0.112-0.191
		c0.02,0.008,0.025,0.025,0.033,0.039c0.06,0.097,0.119,0.195,0.178,0.293c0.086,0.141,0.173,0.283,0.259,0.424
		c0.092,0.152,0.182,0.304,0.275,0.456c0.127,0.209,0.256,0.418,0.383,0.627c0.024,0.04,0.048,0.08,0.073,0.12
		c0.017,0.027,0.021,0.029,0.052,0.018c0.084-0.03,0.167-0.06,0.25-0.091c0.21-0.077,0.421-0.154,0.631-0.231
		c0.215-0.079,0.429-0.157,0.644-0.236c0.044-0.016,0.087-0.034,0.131-0.048c0.024-0.008,0.04-0.022,0.051-0.043
		c0.028-0.051,0.058-0.101,0.087-0.152c0.101-0.182,0.201-0.364,0.301-0.545c0.031-0.057,0.062-0.115,0.094-0.172
		c0.087-0.157,0.173-0.315,0.26-0.472c0.07-0.127,0.139-0.254,0.209-0.38c0.097-0.176,0.194-0.351,0.291-0.527
		c0.08-0.145,0.159-0.291,0.239-0.436c0.092-0.167,0.186-0.335,0.278-0.502c0.032-0.057,0.062-0.115,0.094-0.172
		c0.091-0.165,0.183-0.331,0.274-0.496c0.083-0.151,0.165-0.303,0.249-0.454c0.011-0.019,0.008-0.035-0.002-0.052
		c-0.031-0.055-0.061-0.11-0.092-0.165c-0.109-0.193-0.219-0.386-0.328-0.578c-0.083-0.146-0.167-0.291-0.25-0.437
		c-0.09-0.158-0.179-0.317-0.268-0.475c-0.084-0.148-0.168-0.296-0.252-0.444c-0.092-0.162-0.184-0.325-0.276-0.487
		c-0.049-0.087-0.098-0.175-0.148-0.262c-0.072-0.126-0.144-0.251-0.216-0.376c-0.03-0.053-0.06-0.106-0.089-0.159
		c-0.074-0.132-0.149-0.264-0.223-0.396c-0.036-0.063-0.073-0.125-0.108-0.188c-0.014-0.025-0.034-0.037-0.058-0.047
		c-0.098-0.037-0.196-0.075-0.294-0.112c-0.351-0.135-0.701-0.27-1.052-0.405c-0.12-0.046-0.24-0.092-0.359-0.138
		c-0.015-0.006-0.031-0.012-0.046-0.016c-0.027-0.008-0.036-0.005-0.054,0.019c-0.068,0.092-0.135,0.184-0.203,0.277
		c-0.131,0.179-0.262,0.358-0.393,0.536c-0.111,0.15-0.221,0.301-0.332,0.451c-0.055,0.075-0.11,0.15-0.166,0.226
		c-0.006,0.007-0.011,0.015-0.018,0.021c-0.007,0.007-0.017,0.009-0.025,0.001c-0.008-0.008-0.015-0.018-0.021-0.028
		c-0.1-0.149-0.2-0.298-0.301-0.447c-0.125-0.183-0.252-0.365-0.377-0.548c-0.093-0.137-0.186-0.275-0.278-0.412
		c-0.009-0.014-0.017-0.028-0.027-0.041c-0.056-0.072-0.041-0.068-0.123-0.039c-0.184,0.066-0.369,0.131-0.554,0.196
		c-0.222,0.079-0.444,0.157-0.666,0.236c-0.15,0.053-0.299,0.106-0.448,0.159c-0.013,0.005-0.026,0.009-0.04,0.014
		c-0.013,0.005-0.023,0-0.029-0.012c-0.019-0.04-0.038-0.08-0.055-0.121c-0.043-0.103-0.084-0.208-0.128-0.311
		c-0.072-0.172-0.146-0.343-0.219-0.515c-0.017-0.041-0.033-0.082-0.049-0.124c-0.004-0.009-0.007-0.017-0.001-0.029
		c0.007-0.001,0.016-0.003,0.025-0.004c0.023-0.001,0.047,0,0.07,0c2.091,0,4.182,0,6.272,0c0.106,0,0.08-0.019,0.141,0.08
		c0.093,0.151,0.186,0.302,0.278,0.453c0.09,0.147,0.178,0.296,0.269,0.443c0.128,0.209,0.258,0.416,0.386,0.625
		c0.099,0.161,0.196,0.323,0.294,0.485c0.072,0.117,0.145,0.234,0.217,0.351c0.083,0.135,0.165,0.271,0.248,0.406
		c0.1,0.163,0.201,0.326,0.301,0.489c0.09,0.147,0.179,0.295,0.269,0.443c0.115,0.189,0.231,0.378,0.347,0.567
		c0.113,0.185,0.227,0.37,0.34,0.555c0.057,0.093,0.114,0.187,0.173,0.28c0.018,0.029,0.019,0.053,0.001,0.083
		c-0.052,0.086-0.101,0.173-0.151,0.26c-0.049,0.085-0.098,0.17-0.147,0.255c-0.113,0.196-0.226,0.392-0.34,0.588
		c-0.07,0.121-0.143,0.241-0.213,0.362c-0.043,0.075-0.085,0.151-0.128,0.225c-0.092,0.16-0.185,0.319-0.277,0.478
		c-0.082,0.141-0.163,0.283-0.245,0.424c-0.068,0.117-0.137,0.233-0.205,0.35c-0.099,0.172-0.198,0.344-0.298,0.515
		c-0.092,0.159-0.185,0.319-0.278,0.478c-0.082,0.141-0.163,0.283-0.245,0.424c-0.068,0.117-0.137,0.233-0.205,0.35
		c-0.101,0.174-0.201,0.348-0.301,0.521c-0.04,0.069-0.081,0.137-0.119,0.206c-0.018,0.033-0.042,0.048-0.079,0.044
		c-0.012-0.001-0.023,0-0.035,0c-2.058,0-4.116,0-6.174,0C12.875,12.128,12.847,12.132,12.821,12.125z"/>
	<path fill="#AD51FF" d="M11.355,7.957c0.052,0.074,0.091,0.156,0.135,0.235c0.136,0.246,0.271,0.493,0.407,0.74
		c0.11,0.2,0.22,0.399,0.33,0.599c0.052,0.094,0.104,0.187,0.155,0.281c0.009,0.016,0.021,0.031,0.023,0.05
		c-0.027,0.025-0.061,0.022-0.093,0.021c-0.291-0.007-0.581,0.02-0.872,0.017c-0.021,0-0.042,0.003-0.06-0.011
		c-0.007-0.009-0.015-0.018-0.021-0.027c-0.086-0.147-0.172-0.294-0.258-0.44c-0.122-0.207-0.243-0.414-0.365-0.621
		c-0.098-0.167-0.197-0.333-0.295-0.5c-0.056-0.094-0.112-0.189-0.167-0.283c-0.012-0.02-0.021-0.041-0.032-0.062
		c0.044-0.04,0.099-0.036,0.152-0.036c0.235-0.001,0.47,0,0.705-0.001c0.047,0,0.093,0.001,0.139-0.007
		C11.286,7.906,11.326,7.916,11.355,7.957z"/>
	<path fill="#D727FF" d="M11.379,9.89c0.041-0.012,0.082-0.015,0.124-0.015c0.091,0.001,0.182,0.001,0.273,0
		c0.037,0,0.074,0.003,0.111-0.011c0.015-0.005,0.032-0.003,0.049-0.003c0.156,0,0.313,0,0.469,0c0,0,0,0,0,0
		C12.413,9.87,12.41,9.883,12.42,9.89c0.02,0.015,0.027,0.037,0.038,0.058c0.096,0.176,0.192,0.352,0.289,0.528
		c0.09,0.163,0.18,0.327,0.272,0.489c0.013,0.023,0.014,0.04,0.004,0.064c-0.08,0.191-0.159,0.383-0.239,0.575
		c-0.053,0.127-0.107,0.254-0.16,0.38c-0.018,0.001-0.022-0.015-0.03-0.025c-0.007-0.009-0.012-0.02-0.018-0.03
		c-0.095-0.163-0.19-0.327-0.286-0.489c-0.118-0.201-0.237-0.402-0.355-0.603c-0.11-0.187-0.22-0.374-0.331-0.561
		c-0.072-0.122-0.146-0.244-0.219-0.367C11.382,9.904,11.381,9.897,11.379,9.89z"/>
	<path fill="#847BFF" d="M11.355,7.957c-0.013-0.006-0.026-0.011-0.038-0.018c-0.022-0.012-0.045-0.015-0.067-0.006
		c-0.029,0.012-0.059,0.01-0.089,0.01c-0.254,0-0.507,0-0.761,0c-0.039,0-0.079-0.002-0.117,0.012
		c-0.012,0.005-0.028,0.002-0.042,0.002c-0.064-0.087-0.112-0.183-0.166-0.275C9.953,7.476,9.832,7.268,9.709,7.062
		C9.642,6.947,9.574,6.833,9.504,6.72C9.489,6.695,9.486,6.675,9.503,6.65c0.03-0.044,0.058-0.09,0.086-0.135
		c0.026-0.019,0.055-0.023,0.086-0.023c0.331,0.003,0.662-0.025,0.994-0.014c0.038,0.001,0.081-0.009,0.112,0.025
		c-0.017,0.049-0.048,0.09-0.073,0.135c-0.044,0.079-0.045,0.053,0,0.137c0.017,0.031,0.035,0.06,0.052,0.091
		c0.095,0.174,0.189,0.348,0.285,0.521c0.095,0.173,0.192,0.346,0.287,0.52C11.342,7.922,11.354,7.937,11.355,7.957z"/>
	<path fill="#57A7FF" d="M10.201,5.474c0.084-0.145,0.168-0.29,0.253-0.434c0.138-0.235,0.275-0.47,0.414-0.705
		c0.033-0.056,0.069-0.11,0.104-0.165c0.366-0.007,0.733-0.024,1.099-0.018c0.014,0,0.028,0.001,0.04,0.009
		c-0.006,0.033-0.03,0.057-0.046,0.085c-0.092,0.165-0.185,0.329-0.278,0.494c-0.123,0.217-0.246,0.434-0.369,0.651
		c-0.011,0.02-0.026,0.039-0.039,0.058c-0.088,0.038-0.183,0.033-0.275,0.035c-0.219,0.005-0.439,0.002-0.658,0.002
		c-0.056,0-0.112,0-0.168,0.008C10.251,5.498,10.222,5.5,10.201,5.474z"/>
	<path fill="#38C6FF" d="M12.111,4.161c-0.025,0.015-0.053,0.014-0.081,0.014c-0.186,0-0.372,0-0.558,0
		c-0.035,0-0.069-0.003-0.103,0.01c-0.012,0.005-0.028,0.003-0.041,0.003c-0.1,0-0.2,0-0.3,0c-0.021,0-0.043,0.003-0.056-0.019
		c-0.001-0.005,0.001-0.008,0.005-0.01c0.004-0.005,0.009-0.01,0.01-0.017c-0.001-0.005,0.001-0.009,0.005-0.011
		c0.003-0.005,0.006-0.01,0.009-0.015c0.002-0.005,0.004-0.009,0.006-0.014c0.002-0.005,0.004-0.009,0.009-0.012
		c0-0.013,0.008-0.022,0.017-0.03c0.004-0.005,0.007-0.01,0.01-0.016c0.002-0.004,0.004-0.008,0.006-0.012
		c0.002-0.005,0.006-0.009,0.009-0.013C11.06,4.008,11.069,4,11.077,3.991c0.003-0.005,0.006-0.009,0.009-0.014
		c0.002-0.005,0.005-0.01,0.007-0.015c0.001-0.005,0.004-0.008,0.008-0.011c0.001-0.013,0.008-0.022,0.017-0.031
		c0.004-0.005,0.007-0.01,0.009-0.015c0.027-0.062,0.065-0.118,0.098-0.177c0.015-0.026,0.032-0.052,0.047-0.078
		c0.093-0.159,0.186-0.318,0.279-0.477c0.051-0.086,0.102-0.173,0.153-0.259c0.007-0.012,0.016-0.022,0.024-0.033
		c0.077,0.018,0.153-0.004,0.229-0.004c0.277-0.002,0.554,0.005,0.831-0.004c0.016-0.001,0.033-0.001,0.046,0.012
		c-0.006,0.013-0.011,0.026-0.018,0.038c-0.123,0.217-0.246,0.434-0.369,0.651c-0.091,0.16-0.182,0.32-0.273,0.48
		c-0.013,0.022-0.027,0.044-0.04,0.065c-0.003,0.006-0.008,0.011-0.01,0.017c0.001,0.005,0,0.008-0.005,0.011
		C12.118,4.152,12.115,4.157,12.111,4.161L12.111,4.161z"/>
	<path fill="#6F8FFF" d="M10.201,5.474c0.03,0.004,0.06,0.007,0.09-0.005c0.025-0.01,0.051-0.006,0.076-0.006
		c0.249,0,0.499,0,0.748,0c0.032,0,0.065,0.002,0.097-0.01c0.014-0.006,0.032-0.003,0.048-0.003c0.04-0.001,0.079,0,0.119-0.001
		c-0.046,0.086-0.093,0.172-0.14,0.257c-0.016,0.029-0.034,0.056-0.05,0.084c-0.077,0.136-0.153,0.272-0.23,0.407
		c-0.005,0.008-0.011,0.015-0.016,0.023c-0.003,0.005-0.006,0.011-0.01,0.016c-0.002,0.004-0.003,0.008-0.005,0.012
		c-0.002,0.005-0.005,0.01-0.009,0.014c-0.002,0.005-0.004,0.01-0.007,0.015c-0.001,0.005-0.003,0.009-0.008,0.012l0,0.001
		c-0.005,0.006-0.01,0.012-0.012,0.02c0.001,0.005-0.001,0.008-0.006,0.009c-0.002,0.005-0.006,0.01-0.01,0.013l0,0
		c-0.006,0.006-0.012,0.012-0.012,0.021l0.001,0.004L10.861,6.36c-0.005,0.006-0.01,0.011-0.011,0.019
		c0.001,0.004,0,0.007-0.004,0.009c-0.003,0.006-0.008,0.011-0.01,0.017c0.001,0.005,0,0.008-0.005,0.011
		c-0.003,0.005-0.006,0.011-0.01,0.016c-0.002,0.004-0.004,0.008-0.005,0.012c-0.002,0.005-0.005,0.01-0.009,0.013l0,0
		C10.8,6.464,10.795,6.47,10.794,6.479l0.001,0.004l-0.004,0.002c-0.004,0.006-0.011,0.009-0.011,0.017c0,0,0.001,0,0.001,0
		C10.758,6.502,10.735,6.5,10.712,6.5c-0.186,0-0.372,0-0.559,0c-0.028,0-0.055,0-0.083,0.009c-0.022,0.006-0.046,0.005-0.069,0.005
		C9.864,6.514,9.726,6.514,9.589,6.514c0.03-0.055,0.06-0.11,0.091-0.165c0.022-0.038,0.046-0.076,0.069-0.114
		c0.109-0.185,0.218-0.37,0.328-0.554c0.005-0.008,0.011-0.015,0.017-0.022c0.004-0.006,0.01-0.011,0.011-0.019
		c0.004-0.02,0.014-0.037,0.029-0.051c0.006-0.006,0.012-0.012,0.013-0.021l-0.001-0.004l0.004-0.002
		c0.004-0.006,0.009-0.011,0.011-0.018c0-0.01,0.004-0.019,0.014-0.024c0.005-0.003,0.007-0.008,0.006-0.013
		c0-0.007,0.003-0.012,0.01-0.014C10.195,5.486,10.202,5.482,10.201,5.474L10.201,5.474z"/>
	<path fill="#22DCFF" d="M15.502,5.019c0.002,0.001,0.005,0.001,0.007,0.002c0.14,0.108,0.246,0.241,0.303,0.41
		c0.001,0.004,0.001,0.009,0.001,0.014c-0.012,0.053-0.056,0.039-0.089,0.039c-0.184,0.002-0.368,0-0.551,0.001
		c-0.114,0.001-0.227,0.017-0.341,0.018c-0.026,0.005-0.051-0.003-0.075-0.012c-0.125-0.051-0.256-0.043-0.385-0.029
		c-0.111,0.012-0.201,0.069-0.276,0.15c-0.006,0.006-0.013,0.01-0.021,0.014c-0.008,0.004-0.016,0.006-0.025,0.008
		c-0.016,0.004-0.032,0.005-0.049,0.004c-0.237-0.009-0.474,0.015-0.711,0.015c-0.026,0-0.051,0.001-0.077-0.004
		c-0.036-0.006-0.056-0.023-0.04-0.063c0.001-0.009,0.002-0.018,0.003-0.027c0.01-0.013,0.002-0.03,0.01-0.043
		c0.01-0.08,0.041-0.153,0.081-0.222c0.046-0.079,0.1-0.152,0.167-0.215c0.01-0.009,0.019-0.02,0.034-0.023
		c0.037-0.007,0.074-0.009,0.111-0.009c0.168,0.001,0.336,0.005,0.504-0.001c0.389-0.013,0.778-0.012,1.167-0.014
		C15.335,5.033,15.419,5.02,15.502,5.019z"/>
	<path fill="#EA14FF" d="M13.265,8.113c-0.003-0.005-0.005-0.009-0.008-0.014c-0.002-0.03,0.019-0.04,0.043-0.047
		c0.018-0.005,0.037-0.006,0.056-0.005c0.31,0.008,0.62-0.019,0.93-0.016c0.434,0.005,0.867-0.023,1.301-0.013
		c0.033,0.001,0.065-0.007,0.098-0.007c0.03,0,0.062,0.001,0.07,0.042l-0.001,0.002c-0.005,0.004-0.008,0.01-0.01,0.016
		c-0.003,0.004-0.005,0.009-0.008,0.013c-0.001,0.005-0.004,0.008-0.008,0.01l-0.002,0.004c-0.004,0.004-0.007,0.009-0.01,0.014
		c-0.003,0.013-0.012,0.022-0.022,0.03c-0.002,0.002-0.004,0.005-0.007,0.007c0,0.004-0.002,0.006-0.006,0.006
		c0,0.005-0.003,0.008-0.008,0.008c-0.044,0.059-0.098,0.106-0.157,0.148c-0.165,0.121-0.351,0.192-0.55,0.234
		c-0.242,0.051-0.486,0.055-0.732,0.033c-0.149-0.013-0.296-0.041-0.438-0.089c-0.166-0.056-0.317-0.138-0.439-0.265
		c-0.021-0.022-0.044-0.042-0.056-0.071c-0.003-0.005-0.007-0.009-0.012-0.012l-0.002-0.002c-0.003-0.004-0.007-0.009-0.01-0.013
		l-0.002-0.004C13.268,8.121,13.266,8.118,13.265,8.113z"/>
	<path fill="#CB33FF" d="M15.755,8.054c-0.026-0.025-0.055-0.033-0.089-0.018c-0.022,0.01-0.046,0.005-0.069,0.005
		c-0.25,0-0.5,0-0.75,0c-0.039,0-0.079-0.002-0.118,0.011c-0.019,0.006-0.042,0.003-0.063,0.003c-0.255,0-0.509,0-0.764,0
		c-0.037,0-0.074-0.002-0.111,0.011c-0.019,0.007-0.042,0.003-0.063,0.003c-0.135,0-0.271,0-0.406,0
		c-0.027,0-0.052,0.003-0.065,0.03c-0.04-0.046-0.065-0.101-0.085-0.158c-0.035-0.094-0.067-0.188-0.068-0.29
		c-0.009-0.08-0.003-0.093,0.067-0.094c0.256-0.002,0.512-0.006,0.768,0.002c0.03,0.005,0.051,0.023,0.063,0.05
		c0.08,0.188,0.244,0.239,0.425,0.256c0.093,0.009,0.186-0.001,0.278-0.021c0.122-0.026,0.22-0.089,0.288-0.194
		c0.017-0.025,0.031-0.053,0.064-0.061c0.165-0.014,0.33-0.003,0.496-0.006c0.088-0.001,0.177-0.001,0.265,0
		c0.032,0,0.066-0.004,0.092,0.023C15.902,7.771,15.847,7.919,15.755,8.054z"/>
	<path fill="#8D70FF" d="M13.161,7.131c0.014-0.067,0.046-0.126,0.082-0.183c0.052-0.082,0.11-0.16,0.185-0.224
		c0.004-0.005,0.009-0.009,0.014-0.014l0,0c0.004-0.005,0.009-0.009,0.014-0.013l0.001-0.001c0.038-0.02,0.08-0.023,0.122-0.023
		c0.427,0,0.853-0.017,1.28-0.017c0.177,0,0.354-0.009,0.531-0.011c0.047,0,0.093,0.001,0.139,0.008l0,0
		c0.005,0.006,0.011,0.012,0.019,0.014c0.121,0.083,0.216,0.189,0.278,0.322c0.022,0.046,0.051,0.089,0.053,0.142
		c-0.018,0.019-0.041,0.021-0.065,0.021c-0.25,0-0.499,0.025-0.748,0.015c-0.014-0.001-0.028-0.002-0.042-0.004
		c-0.033-0.005-0.051-0.03-0.072-0.051c-0.081-0.083-0.173-0.138-0.297-0.13c-0.095,0.006-0.191,0.006-0.287,0
		c-0.1-0.006-0.182,0.028-0.258,0.087c-0.029,0.022-0.052,0.055-0.093,0.059c-0.261-0.016-0.522,0.016-0.783,0.012
		C13.211,7.138,13.185,7.144,13.161,7.131z"/>
	<path fill="#EA14FF" d="M18.628,8.109c-0.051,0.09-0.12,0.166-0.202,0.229c-0.148,0.114-0.318,0.175-0.499,0.209
		c-0.108,0.02-0.217,0.03-0.327,0.031C17.404,8.58,17.208,8.57,17.013,8.55c-0.218-0.022-0.436-0.052-0.652-0.089
		c-0.009-0.002-0.019-0.002-0.028-0.004c-0.031-0.007-0.035-0.011-0.032-0.042c0.006-0.065,0.013-0.13,0.022-0.195
		c0.006-0.041,0.001-0.084,0.018-0.124c0.028-0.022,0.061-0.022,0.094-0.022c0.411,0.009,0.821-0.021,1.232-0.015
		c0.292,0.004,0.583-0.024,0.875-0.012c0.036,0.001,0.082-0.015,0.102,0.036l-0.001,0.001C18.633,8.09,18.637,8.103,18.628,8.109z"
		/>
	<path fill="#738BFF" d="M15.531,6.654c-0.025,0.016-0.053,0.015-0.081,0.015c-0.138,0-0.275,0-0.413,0c-0.03,0-0.06,0-0.09,0.009
		c-0.022,0.007-0.046,0.005-0.069,0.005c-0.252,0-0.504,0-0.756,0c-0.035,0-0.069-0.002-0.104,0.01
		c-0.019,0.007-0.042,0.003-0.063,0.003c-0.166,0-0.331,0.001-0.497,0.001c0.031-0.028,0.061-0.056,0.092-0.084
		c0.01-0.009,0.012-0.02,0.001-0.029c-0.031-0.028-0.063-0.055-0.094-0.082c-0.076-0.066-0.136-0.144-0.19-0.228
		c-0.005-0.007-0.006-0.017-0.009-0.026c0.024-0.043,0.067-0.035,0.105-0.036c0.172-0.001,0.343-0.001,0.515,0
		c0.086,0,0.171-0.001,0.257-0.007c0.014,0.002,0.029,0.004,0.039,0.014c0.075,0.073,0.168,0.069,0.261,0.065
		c0.129-0.006,0.26,0.017,0.387-0.022c0.291-0.014,0.582-0.004,0.873-0.008c0.025,0,0.051-0.005,0.075,0.008
		c-0.016,0.049-0.049,0.088-0.083,0.126c-0.059,0.065-0.122,0.127-0.193,0.179c-0.011,0.008-0.023,0.015-0.028,0.031
		C15.479,6.624,15.514,6.629,15.531,6.654z"/>
	<path fill="#21DEFF" d="M12.836,2.885C12.777,2.904,12.716,2.9,12.656,2.9c-0.24,0-0.479,0-0.719,0c-0.03,0-0.06,0-0.09,0.009
		c-0.024,0.007-0.051,0.004-0.076,0.004c-0.021,0-0.034-0.013-0.042-0.031c-0.001-0.005,0.001-0.008,0.005-0.011
		c0.003-0.005,0.007-0.01,0.01-0.014l0,0c0.007-0.004,0.012-0.01,0.013-0.018c-0.001-0.005,0.001-0.008,0.005-0.01
		c0.004-0.005,0.007-0.01,0.01-0.016c0.002-0.004,0.004-0.008,0.005-0.012c0.002-0.005,0.006-0.009,0.009-0.013l0,0
		c0.009-0.006,0.006-0.02,0.015-0.026l0.001-0.002c0.005-0.006,0.01-0.011,0.011-0.018c-0.001-0.005,0.001-0.008,0.005-0.011
		c0.003-0.005,0.007-0.01,0.01-0.015c0.002-0.004,0.004-0.009,0.006-0.013c0.002-0.005,0.005-0.009,0.009-0.013l0-0.001
		c0.006-0.005,0.011-0.011,0.011-0.019c-0.001-0.004,0-0.007,0.005-0.009c0.004-0.005,0.009-0.01,0.01-0.017
		c-0.001-0.005,0.001-0.009,0.005-0.012c0.003-0.005,0.006-0.01,0.009-0.014c0.002-0.005,0.004-0.009,0.006-0.014
		C11.893,2.6,11.896,2.596,11.9,2.593l0.001-0.001c0.005-0.005,0.011-0.011,0.011-0.019c0-0.005,0.002-0.008,0.007-0.01
		c0.002-0.005,0.006-0.009,0.009-0.012l0.001-0.001c0.006-0.005,0.011-0.01,0.011-0.019c-0.001-0.004,0.001-0.008,0.005-0.01
		c0.004-0.005,0.008-0.01,0.01-0.016c0.002-0.004,0.004-0.008,0.006-0.012c0.003-0.005,0.006-0.009,0.009-0.014
		c0.031-0.068,0.072-0.13,0.108-0.195c0.022-0.038,0.046-0.076,0.068-0.114c0.116-0.197,0.232-0.393,0.347-0.59
		c0.005-0.008,0.01-0.015,0.017-0.022c0.002-0.002,0.011-0.001,0.012,0.002c0.006,0.01,0.011,0.02,0.015,0.031
		c0.068,0.163,0.136,0.327,0.204,0.49c0.047,0.112,0.094,0.223,0.14,0.335c0.006,0.015,0.01,0.031,0.015,0.046
		c0.002,0.006,0.005,0.011,0.008,0.016c0.001,0.005,0.003,0.01,0.004,0.015c0.008,0.008,0.004,0.02,0.012,0.027
		c0.004,0.003,0.005,0.006,0.004,0.011c0.002,0.006,0.005,0.012,0.009,0.017c0.004,0.003,0.006,0.007,0.005,0.012
		c0.002,0.006,0.006,0.011,0.009,0.017c0.004,0.003,0.005,0.008,0.004,0.013c0.003,0.005,0.006,0.01,0.008,0.015
		c0.002,0.005,0.003,0.011,0.005,0.016c0.009,0.007,0.005,0.019,0.012,0.026c0.004,0.003,0.005,0.007,0.004,0.012
		c0.003,0.005,0.006,0.011,0.008,0.016c0.001,0.005,0.003,0.01,0.004,0.015c0.009,0.013,0.009,0.027,0,0.04
		c-0.016,0.011-0.032,0.019-0.052,0.017c-0.006,0.003-0.012,0.006-0.017,0.009c-0.005,0.001-0.009,0.003-0.014,0.004
		c-0.005,0.005-0.011,0.009-0.014,0.015l0.001-0.001c-0.01,0.006-0.007,0.02-0.015,0.027l0,0c-0.006,0.006-0.011,0.012-0.012,0.021
		c0.001,0.004,0,0.006-0.004,0.008c-0.004,0.006-0.009,0.011-0.011,0.018c0.001,0.004,0,0.008-0.004,0.01
		c-0.004,0.005-0.007,0.011-0.01,0.017C12.841,2.879,12.84,2.883,12.836,2.885z"/>
	<path fill="#09F4FF" d="M16.385,5.211c-0.017-0.047-0.012-0.097-0.023-0.145c-0.011-0.05-0.012-0.102-0.017-0.153
		c-0.003-0.027-0.004-0.037,0.029-0.043c0.055-0.01,0.109-0.025,0.164-0.035c0.176-0.033,0.353-0.062,0.531-0.083
		c0.16-0.019,0.321-0.023,0.482-0.02c0.178,0.004,0.353,0.024,0.525,0.071c0.129,0.036,0.25,0.09,0.355,0.174
		c0.057,0.045,0.108,0.095,0.142,0.161c0.003,0.006,0.008,0.011,0.011,0.016l0.001,0.001c-0.023,0.057-0.076,0.047-0.119,0.047
		c-0.191,0.003-0.383-0.005-0.574,0.002c-0.359,0.013-0.719,0.01-1.078,0.015c-0.112,0.002-0.223,0.013-0.336,0.011
		C16.445,5.233,16.412,5.235,16.385,5.211z"/>
	<path fill="#D02DFF" d="M18.643,8.083c-0.016-0.019-0.038-0.014-0.059-0.014c-0.091,0-0.182,0-0.273,0c-0.079,0-0.159,0-0.238,0
		c-0.035,0-0.069-0.001-0.104,0.01c-0.021,0.007-0.046,0.004-0.069,0.004c-0.252,0-0.504,0-0.756,0c-0.032,0-0.065-0.002-0.097,0.01
		c-0.015,0.006-0.032,0.004-0.048,0.004c-0.219,0-0.439,0-0.658-0.001c0.001-0.093,0.015-0.186,0.03-0.277
		c0.004-0.025,0.009-0.028,0.031-0.026c0.06,0.005,0.121,0.01,0.181,0.015c0.109,0.008,0.219,0.016,0.328,0.024
		c0.144,0.012,0.289,0.014,0.434,0.019c0.091,0.003,0.182,0,0.272-0.017c0.039-0.008,0.077-0.019,0.114-0.034
		c0.106-0.044,0.186-0.114,0.227-0.224c0.003-0.009,0.008-0.017,0.012-0.025c0.02-0.019,0.045-0.022,0.071-0.022
		c0.213-0.003,0.426-0.022,0.639-0.015c0.111,0.004,0.117,0.009,0.103,0.122c-0.003,0.108-0.038,0.21-0.073,0.311
		C18.694,7.995,18.677,8.043,18.643,8.083z"/>
	<path fill="#32CCFF" d="M16.385,5.211c0.079,0,0.159,0,0.238,0c0.044,0,0.088,0.003,0.132-0.011
		c0.019-0.006,0.042-0.003,0.063-0.003c0.249,0,0.499,0,0.748,0c0.037,0,0.074,0.002,0.111-0.01
		c0.021-0.007,0.046-0.003,0.069-0.003c0.242,0,0.485,0,0.727,0c0.04,0,0.079-0.001,0.113-0.026c0.02,0.011,0.027,0.032,0.036,0.05
		c0.071,0.142,0.105,0.293,0.104,0.452c-0.022,0.029-0.054,0.036-0.087,0.035c-0.223-0.005-0.445,0.01-0.668,0.015
		c-0.037,0.001-0.076,0.001-0.1-0.035c-0.002-0.001-0.004-0.002-0.006-0.004c-0.07-0.113-0.177-0.166-0.302-0.194
		c-0.06-0.013-0.12-0.017-0.18-0.017c-0.196,0-0.391,0.008-0.585,0.029c-0.125,0.013-0.25,0.026-0.375,0.038
		c-0.013-0.009-0.011-0.024-0.012-0.038C16.401,5.396,16.383,5.305,16.385,5.211z"/>
	<path fill="#8A74FF" d="M18.363,6.598c0.118,0.056,0.215,0.137,0.294,0.24c0.038,0.05,0.07,0.104,0.082,0.167
		c-0.027,0.024-0.061,0.021-0.093,0.022c-0.112,0.001-0.224,0.002-0.335,0c-0.189-0.004-0.376,0.026-0.565,0.012
		c-0.007-0.001-0.013-0.003-0.02-0.005c-0.122-0.036-0.248-0.035-0.373-0.034c-0.179,0.001-0.358,0-0.538,0
		c-0.019,0-0.037,0-0.056-0.001c-0.021-0.001-0.027-0.008-0.029-0.031c0-0.007,0-0.014,0-0.021c0-0.098,0-0.195,0-0.293
		c0-0.009,0.002-0.018,0.004-0.028c0.029-0.027,0.066-0.033,0.104-0.035c0.037-0.002,0.074-0.002,0.112-0.001
		c0.421,0.01,0.842-0.016,1.263-0.014C18.264,6.575,18.315,6.58,18.363,6.598z"/>
	<path fill="#6D91FF" d="M18.363,6.598c-0.182,0-0.364,0-0.546,0c-0.033,0-0.065-0.001-0.097,0.01
		c-0.021,0.007-0.046,0.004-0.069,0.004c-0.25,0-0.5,0-0.75,0c-0.044,0-0.089-0.004-0.131,0.012
		c-0.01,0.004-0.023,0.001-0.035,0.001c-0.008-0.093-0.003-0.186-0.003-0.279c0-0.016,0.009-0.026,0.026-0.026
		c0.019,0,0.037-0.001,0.056-0.001c0.205,0,0.41-0.004,0.614,0.001c0.16,0.004,0.283-0.06,0.383-0.179
		c0.006-0.007,0.013-0.013,0.019-0.02c0.018-0.004,0.036-0.01,0.055-0.01c0.231,0.003,0.461-0.024,0.692-0.014
		c0.032,0.001,0.066-0.004,0.093,0.021c-0.009,0.046-0.032,0.087-0.057,0.125c-0.08,0.121-0.182,0.221-0.308,0.295
		c-0.003,0.004-0.004,0.008-0.005,0.013C18.318,6.572,18.346,6.577,18.363,6.598z"/>
	<path fill="#51ADFF" d="M14.149,6.219c-0.078,0.02-0.157,0.015-0.236,0.015c-0.189,0-0.378,0-0.567,0
		c-0.03,0-0.061-0.002-0.088,0.014c-0.035-0.048-0.05-0.104-0.064-0.159c-0.039-0.157-0.04-0.316-0.028-0.476
		c0.001-0.009,0.006-0.017,0.009-0.026c0.01,0.043,0.01,0.044,0.047,0.044c0.091,0.001,0.182,0,0.272,0
		c0.007,0,0.015,0.001,0.021-0.001c0.064-0.021,0.129-0.012,0.194-0.013c0.121-0.001,0.242-0.001,0.363-0.001
		c0.014,0.049-0.021,0.088-0.03,0.132c-0.032,0.148-0.01,0.284,0.078,0.409C14.132,6.176,14.15,6.193,14.149,6.219z"/>
	<path fill="#08F5FF" d="M15.502,5.019c-0.003,0.012-0.009,0.022-0.023,0.023c-0.019,0.001-0.037,0.001-0.056,0.001
		c-0.035,0.001-0.069-0.001-0.104,0.01c-0.021,0.007-0.046,0.003-0.07,0.003c-0.257,0-0.514,0-0.77,0
		c-0.033,0-0.065-0.001-0.097,0.01c-0.017,0.006-0.037,0.004-0.056,0.004c-0.264,0-0.528,0-0.792,0
		c-0.022,0-0.047,0.008-0.066-0.013c0,0,0,0,0,0c0.004-0.005,0.009-0.009,0.014-0.012l0.002-0.001
		c0.002-0.005,0.006-0.008,0.011-0.01c0.006-0.009,0.014-0.017,0.025-0.02c0.007-0.002,0.012-0.007,0.017-0.013l0,0
		c0.004-0.004,0.009-0.007,0.013-0.011c0.007-0.009,0.015-0.017,0.027-0.018c0.005-0.003,0.01-0.007,0.015-0.011
		c0.007-0.009,0.015-0.017,0.028-0.017c0.004-0.004,0.009-0.007,0.014-0.009c0.004-0.002,0.009-0.004,0.013-0.006
		c0.005-0.003,0.01-0.006,0.015-0.01c0.003-0.004,0.007-0.006,0.012-0.005c0.006-0.002,0.011-0.006,0.016-0.01
		C13.696,4.901,13.7,4.9,13.704,4.901c0.007-0.001,0.012-0.005,0.017-0.01c0.081-0.047,0.17-0.076,0.26-0.1
		c0.223-0.059,0.45-0.078,0.68-0.061c0.173,0.013,0.342,0.044,0.505,0.103c0.044,0.016,0.088,0.032,0.127,0.058
		c0.005,0.004,0.01,0.007,0.016,0.009c0.005-0.001,0.009,0.001,0.011,0.005c0.005,0.004,0.011,0.007,0.017,0.009
		c0.005-0.001,0.008,0,0.011,0.004c0.005,0.004,0.01,0.007,0.016,0.01c0.005-0.001,0.009,0.001,0.012,0.005
		c0.005,0.003,0.01,0.006,0.014,0.01c0.005,0.002,0.009,0.004,0.014,0.007c0.005,0.001,0.009,0.004,0.011,0.009l0.002,0.001
		c0.006,0.004,0.01,0.008,0.017,0.011c0.004,0.002,0.008,0.005,0.013,0.007c0.005,0.001,0.009,0.004,0.011,0.009l0.002,0.001
		C15.465,4.993,15.47,4.996,15.475,5l0,0c0.004,0.006,0.01,0.011,0.017,0.013C15.497,5.013,15.5,5.015,15.502,5.019z"/>
	<path fill="#A45AFF" d="M17.726,7.033c0.042-0.015,0.086-0.016,0.13-0.015c0.044,0.001,0.088,0,0.132,0
		c0.03,0,0.06,0.001,0.089-0.01c0.017-0.006,0.037-0.004,0.055-0.004c0.202,0,0.404,0,0.606,0c0.004,0.002,0.004,0.005,0.002,0.008
		c0.005,0.011,0.004,0.024,0.011,0.033c0.004,0.003,0.004,0.006,0.002,0.01c0.006,0.01,0.004,0.023,0.012,0.032
		c0.004,0.003,0.004,0.007,0.002,0.011c0.005,0.009,0.005,0.02,0.008,0.03c0.013,0.045,0.017,0.091,0.02,0.138
		c0.006,0.105,0.004,0.21-0.003,0.315c-0.001,0.018,0,0.038-0.011,0.054c-0.001-0.023-0.001-0.046-0.003-0.07
		c-0.001-0.021-0.009-0.028-0.031-0.029c-0.016-0.001-0.033-0.001-0.049-0.001c-0.114,0-0.228,0-0.342,0
		c-0.037,0-0.074-0.003-0.11,0.011c-0.017,0.006-0.037,0.003-0.055,0.003c-0.074,0-0.149,0.001-0.223,0.001
		c0.005-0.051,0.015-0.1,0.015-0.152c-0.002-0.166-0.078-0.282-0.228-0.351C17.747,7.044,17.737,7.038,17.726,7.033z"/>
	<path fill="#B14DFF" d="M15.012,7.144c0.153,0,0.306,0.001,0.46,0.001c0.007,0,0.014,0.001,0.021,0
		c0.124-0.026,0.25-0.008,0.374-0.014c0.005,0,0.009,0,0.014,0c0.027,0.06,0.032,0.125,0.039,0.188c0.009,0.087,0.007,0.175,0,0.262
		c-0.001,0.009-0.005,0.017-0.008,0.026c-0.29,0-0.581,0-0.871,0c-0.015-0.016-0.011-0.034-0.008-0.053
		c0.023-0.128,0.028-0.254-0.023-0.377C15.006,7.166,15.006,7.154,15.012,7.144z"/>
	<path fill="#A954FF" d="M13.161,7.131c0.023-0.014,0.048-0.015,0.074-0.014c0.079,0.001,0.159,0,0.238,0
		c0.016,0,0.034,0.003,0.049-0.001c0.087-0.023,0.176-0.01,0.264-0.013c0.058-0.002,0.117,0,0.175-0.001
		c0.024,0,0.047,0.001,0.068,0.013c0.009,0.017,0.002,0.032-0.006,0.046c-0.065,0.11-0.065,0.229-0.049,0.35
		c0.003,0.023,0.007,0.046-0.007,0.067c-0.225,0-0.451,0.001-0.676,0.001c-0.037,0-0.074,0-0.112,0
		c-0.083-0.001-0.069,0.003-0.074,0.073c-0.003-0.011-0.008-0.022-0.009-0.033c-0.012-0.16,0.003-0.318,0.055-0.47
		C13.153,7.142,13.158,7.136,13.161,7.131z"/>
	<path fill="#3FBEFF" d="M14.815,5.491c0.023-0.014,0.049-0.014,0.075-0.014c0.058-0.001,0.116,0.006,0.174-0.012
		c0.017-0.005,0.037-0.002,0.056-0.002c0.203,0,0.406,0,0.609,0c0.019,0,0.037,0,0.056-0.001c0.013,0,0.022-0.007,0.029-0.017
		c0.03,0.061,0.041,0.128,0.05,0.195c0.008,0.062,0.009,0.125,0.001,0.188c0.003,0.068-0.04,0.078-0.095,0.078
		c-0.216,0-0.432,0-0.647,0c-0.101,0-0.109-0.009-0.12-0.109c-0.033-0.108-0.071-0.213-0.175-0.276
		C14.818,5.514,14.811,5.505,14.815,5.491z"/>
	<path fill="#4BB2FF" d="M18.668,6.121c-0.14,0-0.279,0-0.419,0.001c-0.032,0-0.065-0.002-0.096,0.01
		c-0.012,0.005-0.028,0.003-0.041,0.003c-0.079,0-0.158,0-0.237,0c-0.016,0-0.033,0.002-0.045-0.012
		c0.024-0.049,0.054-0.096,0.071-0.149c0.022-0.068,0.023-0.135,0.002-0.203c-0.01-0.033-0.021-0.065-0.032-0.098
		c0.021,0.011,0.044,0.014,0.068,0.014c0.063-0.001,0.126,0,0.189,0c0.009,0,0.019,0.002,0.028-0.001
		c0.059-0.02,0.12-0.012,0.18-0.013c0.093-0.001,0.187-0.001,0.28,0c0.038,0,0.074-0.001,0.11-0.014
		c0.013,0.146,0.003,0.29-0.042,0.431C18.68,6.101,18.673,6.111,18.668,6.121z"/>
	<path fill="#59A5FF" d="M15.014,5.772c0.021,0.024,0.009,0.053,0.013,0.08c0.003,0.021,0.009,0.029,0.03,0.031
		c0.014,0.001,0.028,0.001,0.042,0.001c0.228,0,0.455,0,0.683,0c0.007,0,0.014,0,0.021,0c0.039-0.001,0.038-0.001,0.055-0.044
		c0.002-0.004,0.005-0.007,0.008-0.011c0.006,0.135-0.021,0.264-0.069,0.389c-0.002,0.006-0.008,0.011-0.012,0.017
		c-0.009,0.007-0.007,0.02-0.015,0.029c0,0,0,0,0,0c-0.027,0.017-0.058,0.014-0.088,0.014c-0.237,0-0.475,0-0.712,0
		c-0.03,0-0.06-0.004-0.089,0.009c-0.024,0.01-0.044-0.011-0.068-0.01c-0.002-0.024,0.015-0.038,0.03-0.052
		c0.102-0.098,0.161-0.214,0.152-0.36C14.992,5.832,14.985,5.797,15.014,5.772z"/>
	<path fill="#023D3F" d="M16,1.177c-1.056,0-2.111,0-3.167,0c-0.026,0-0.051-0.002-0.076-0.004c-0.003,0-0.005-0.006-0.007-0.01
		c-0.002-0.005,0.001-0.009,0.006-0.01c0.007-0.001,0.014-0.003,0.02-0.004c0.021-0.001,0.042,0,0.063,0c2.107,0,4.213,0,6.32,0
		c0.028,0,0.056,0.002,0.083,0.004c0.003,0,0.005,0.006,0.007,0.01c0.002,0.005-0.001,0.009-0.006,0.01
		c-0.007,0.001-0.014,0.003-0.02,0.004c-0.023,0.001-0.047,0-0.07,0C18.102,1.177,17.051,1.177,16,1.177z"/>
	<path fill="#13748A" d="M15.468,3.014c-0.005-0.005-0.01-0.01-0.014-0.016c-0.081-0.119-0.162-0.239-0.243-0.358
		c-0.075-0.109-0.15-0.218-0.225-0.328c-0.007-0.011-0.02-0.02-0.015-0.036c0.008-0.01,0.012,0,0.016,0.003
		c0.012,0.014,0.024,0.029,0.034,0.044c0.095,0.141,0.19,0.281,0.286,0.422c0.06,0.088,0.123,0.175,0.179,0.266
		C15.48,3.019,15.475,3.02,15.468,3.014z"/>
	<path fill="#2B4977" d="M20.108,4.959c0.017,0.025,0.033,0.045,0.045,0.067c0.067,0.117,0.133,0.235,0.199,0.353
		c0.007,0.012,0.013,0.025,0.02,0.037c0.004,0.008,0.013,0.019,0.004,0.024c-0.014,0.008-0.017-0.01-0.022-0.017
		c-0.025-0.042-0.049-0.084-0.073-0.127c-0.04-0.071-0.079-0.142-0.119-0.213c-0.016-0.028-0.033-0.056-0.049-0.084
		C20.107,4.989,20.096,4.98,20.108,4.959z"/>
	<path fill="#1D6887" d="M15.664,3.277c0.013,0.015,0.024,0.027,0.033,0.04c0.076,0.112,0.152,0.224,0.228,0.336
		c0.004,0.006,0.009,0.011,0.011,0.018c0.002,0.006,0.004,0.015,0.001,0.018c-0.006,0.006-0.012,0-0.016-0.006
		C15.891,3.64,15.86,3.596,15.83,3.552c-0.055-0.081-0.11-0.162-0.165-0.243C15.66,3.301,15.653,3.294,15.664,3.277z"/>
	<path fill="#1A5D79" d="M19.207,3.373c0.042,0.063,0.083,0.126,0.112,0.196c-0.002,0.002-0.005,0.004-0.007,0.006
		c-0.044-0.062-0.084-0.125-0.112-0.196C19.202,3.377,19.204,3.375,19.207,3.373z"/>
	<path fill="#24537A" d="M19.844,4.514c-0.043-0.062-0.085-0.125-0.112-0.196c0.002-0.002,0.005-0.004,0.007-0.006
		c0.042,0.063,0.084,0.126,0.112,0.196C19.849,4.51,19.846,4.512,19.844,4.514z"/>
	<path fill="#354179" d="M20.85,6.288c-0.042-0.058-0.077-0.117-0.104-0.18c-0.001-0.001,0.001-0.004,0.002-0.006
		c0.003-0.004,0.007-0.005,0.01,0.001c0.032,0.056,0.065,0.112,0.096,0.169C20.856,6.274,20.853,6.28,20.85,6.288z"/>
	<path fill="#27517B" d="M19.921,4.634c0.06,0.083,0.092,0.142,0.104,0.192c-0.029-0.029-0.086-0.125-0.111-0.186
		C19.917,4.638,19.919,4.636,19.921,4.634z"/>
	<path fill="#393E7B" d="M20.933,6.422c0.036,0.046,0.064,0.099,0.092,0.151C20.984,6.546,20.955,6.498,20.933,6.422z"/>
	<path fill="#1E5B7B" d="M19.389,3.695c0.036,0.047,0.063,0.101,0.092,0.152c0.002,0.003-0.001,0.008-0.003,0.018
		c-0.043-0.051-0.073-0.106-0.096-0.164C19.384,3.699,19.386,3.697,19.389,3.695z"/>
	<path fill="#20577A" d="M19.662,4.192c-0.057-0.079-0.078-0.116-0.09-0.165c0.033,0.033,0.07,0.094,0.097,0.158
		C19.666,4.188,19.664,4.19,19.662,4.192z"/>
	<path fill="#1C5B79" d="M19.318,3.569c0.032,0.037,0.053,0.08,0.07,0.126c-0.002,0.002-0.005,0.004-0.007,0.006
		c-0.032-0.037-0.053-0.081-0.07-0.126C19.314,3.573,19.316,3.571,19.318,3.569z"/>
	<path fill="#215579" d="M19.669,4.186c0.032,0.037,0.053,0.081,0.07,0.126c-0.002,0.002-0.005,0.004-0.007,0.006
		c-0.032-0.037-0.053-0.08-0.07-0.126C19.664,4.19,19.666,4.188,19.669,4.186z"/>
	<path fill="#195F79" d="M19.199,3.379c-0.03-0.033-0.047-0.073-0.065-0.113c-0.001-0.003,0.003-0.008,0.006-0.015
		c0.027,0.039,0.051,0.078,0.066,0.122C19.204,3.375,19.202,3.377,19.199,3.379z"/>
	<path fill="#176079" d="M19.024,3.051c0.031,0.035,0.045,0.079,0.079,0.129c-0.043-0.028-0.057-0.051-0.086-0.123
		C19.02,3.055,19.022,3.053,19.024,3.051z"/>
	<path fill="#255179" d="M19.851,4.508c0.032,0.037,0.053,0.081,0.07,0.126c-0.002,0.002-0.005,0.004-0.007,0.006
		c-0.032-0.037-0.053-0.081-0.07-0.126C19.846,4.512,19.849,4.51,19.851,4.508z"/>
	<path fill="#156279" d="M19.017,3.057c-0.03-0.033-0.047-0.073-0.065-0.113c-0.001-0.003,0.003-0.008,0.006-0.015
		c0.028,0.039,0.05,0.078,0.066,0.122C19.022,3.053,19.019,3.055,19.017,3.057z"/>
	<path fill="#19728E" d="M15.468,3.014c0.006-0.001,0.011-0.001,0.017-0.002c0.021,0.029,0.047,0.055,0.063,0.095
		C15.506,3.079,15.506,3.079,15.468,3.014z"/>
	<path fill="#38C6FF" d="M12.993,2.73c0-0.013,0-0.027,0-0.04C13.013,2.716,13.013,2.716,12.993,2.73z"/>
	<path fill="#51ADFF" d="M13.188,5.517c0.002,0.016,0.005,0.032-0.01,0.043C13.176,5.545,13.176,5.53,13.188,5.517z"/>
	<path fill="#38C6FF" d="M12.977,2.647c-0.01-0.006-0.012-0.016-0.012-0.026C12.974,2.627,12.979,2.636,12.977,2.647z"/>
	<path fill="#738BFF" d="M15.769,6.262c0-0.012,0.003-0.023,0.015-0.029C15.784,6.246,15.78,6.256,15.769,6.262z"/>
	<path fill="#38C6FF" d="M11.802,2.761c0,0.011-0.004,0.021-0.015,0.026C11.787,2.776,11.793,2.767,11.802,2.761z"/>
	<path fill="#8A74FF" d="M18.767,7.088c-0.012-0.007-0.013-0.019-0.012-0.032C18.765,7.065,18.769,7.076,18.767,7.088z"/>
	<path fill="#8A74FF" d="M18.778,7.129c-0.009-0.008-0.009-0.019-0.008-0.03C18.778,7.108,18.78,7.118,18.778,7.129z"/>
	<path fill="#8A74FF" d="M18.753,7.046c-0.012-0.008-0.013-0.02-0.011-0.033C18.752,7.022,18.755,7.033,18.753,7.046z"/>
	<path fill="#38C6FF" d="M12.881,2.801c0-0.012,0.003-0.022,0.015-0.027C12.896,2.786,12.891,2.795,12.881,2.801z"/>
	<path fill="#38C6FF" d="M12.922,2.521c-0.011-0.006-0.012-0.016-0.012-0.028C12.919,2.5,12.923,2.509,12.922,2.521z"/>
	<path fill="#AD51FF" d="M12.42,9.89c-0.012-0.005-0.016-0.016-0.015-0.028C12.415,9.869,12.419,9.878,12.42,9.89z"/>
	<path fill="#D02DFF" d="M18.628,8.109c0-0.011,0.003-0.02,0.014-0.025C18.643,8.095,18.638,8.104,18.628,8.109z"/>
	<path fill="#57A7FF" d="M12.111,4.162c0.003-0.005,0.007-0.01,0.01-0.015C12.121,4.154,12.118,4.159,12.111,4.162z"/>
	<path fill="#22DCFF" d="M13.721,4.891c-0.004,0.007-0.009,0.01-0.017,0.01C13.707,4.893,13.713,4.89,13.721,4.891z"/>
	<path fill="#22DCFF" d="M15.31,4.901c-0.008,0-0.013-0.003-0.016-0.009C15.301,4.891,15.307,4.893,15.31,4.901z"/>
	<path fill="#22DCFF" d="M13.693,4.905c-0.003,0.007-0.009,0.01-0.016,0.01C13.68,4.908,13.685,4.905,13.693,4.905z"/>
	<path fill="#22DCFF" d="M15.338,4.915c-0.008,0.001-0.013-0.003-0.017-0.009C15.329,4.905,15.335,4.907,15.338,4.915z"/>
	<path fill="#22DCFF" d="M13.665,4.92c-0.005,0.003-0.01,0.006-0.015,0.01C13.653,4.923,13.657,4.919,13.665,4.92z"/>
	<path fill="#22DCFF" d="M15.365,4.929c-0.008,0-0.013-0.003-0.016-0.01C15.357,4.918,15.363,4.922,15.365,4.929z"/>
	<path fill="#22DCFF" d="M13.637,4.935c-0.005,0.003-0.009,0.006-0.014,0.009C13.626,4.938,13.63,4.935,13.637,4.935z"/>
	<path fill="#22DCFF" d="M15.391,4.944c-0.005-0.003-0.01-0.006-0.014-0.01C15.385,4.933,15.389,4.937,15.391,4.944z"/>
	<path fill="#22DCFF" d="M15.416,4.96c-0.004-0.003-0.007-0.006-0.011-0.009C15.411,4.951,15.415,4.954,15.416,4.96z"/>
	<path fill="#22DCFF" d="M13.595,4.961c-0.005,0.004-0.01,0.007-0.015,0.011C13.582,4.964,13.587,4.96,13.595,4.961z"/>
	<path fill="#22DCFF" d="M15.435,4.972c-0.006-0.004-0.011-0.007-0.017-0.011C15.426,4.96,15.432,4.964,15.435,4.972z"/>
	<path fill="#22DCFF" d="M15.458,4.988c-0.004-0.003-0.007-0.006-0.011-0.009C15.453,4.978,15.457,4.982,15.458,4.988z"/>
	<path fill="#22DCFF" d="M13.553,4.99c-0.004,0.004-0.009,0.007-0.013,0.011C13.542,4.994,13.546,4.989,13.553,4.99z"/>
	<path fill="#22DCFF" d="M15.475,5c-0.005-0.004-0.01-0.008-0.015-0.011C15.468,4.989,15.473,4.993,15.475,5z"/>
	<path fill="#22DCFF" d="M13.54,5.001c-0.003,0.007-0.009,0.012-0.017,0.013C13.526,5.006,13.531,5.001,13.54,5.001z"/>
	<path fill="#22DCFF" d="M15.492,5.013C15.484,5.012,15.478,5.008,15.475,5C15.484,5.001,15.49,5.005,15.492,5.013z"/>
	<path fill="#22DCFF" d="M13.497,5.033c-0.004,0.003-0.008,0.007-0.011,0.01C13.487,5.037,13.49,5.033,13.497,5.033z"/>
	<path fill="#22DCFF" d="M13.485,5.045c-0.005,0.004-0.009,0.008-0.014,0.012C13.472,5.05,13.476,5.045,13.485,5.045z"/>
	<path fill="#32CCFF" d="M18.584,5.156c-0.007-0.003-0.011-0.009-0.011-0.016C18.581,5.142,18.584,5.148,18.584,5.156z"/>
	<path fill="#57A7FF" d="M10.202,5.474c-0.001,0.008-0.005,0.014-0.012,0.018C10.191,5.483,10.194,5.477,10.202,5.474z"/>
	<path fill="#57A7FF" d="M10.181,5.506c0.005,0.008,0.001,0.011-0.006,0.013C10.177,5.515,10.179,5.51,10.181,5.506z"/>
	<path fill="#57A7FF" d="M10.161,5.543c-0.004,0.006-0.007,0.012-0.011,0.018C10.15,5.553,10.154,5.547,10.161,5.543z"/>
	<path fill="#57A7FF" d="M10.147,5.568c-0.001,0.009-0.005,0.016-0.013,0.021C10.134,5.58,10.138,5.573,10.147,5.568z"/>
	<path fill="#57A7FF" d="M10.105,5.641c-0.004,0.006-0.008,0.013-0.011,0.019C10.093,5.651,10.097,5.645,10.105,5.641z"/>
	<path fill="#38C6FF" d="M12.906,2.479c-0.003-0.005-0.006-0.011-0.008-0.016C12.904,2.466,12.907,2.471,12.906,2.479z"/>
	<path fill="#38C6FF" d="M11.969,2.479c-0.003,0.005-0.006,0.009-0.009,0.014C11.959,2.485,11.962,2.481,11.969,2.479z"/>
	<path fill="#38C6FF" d="M11.954,2.505c0,0.007-0.003,0.013-0.01,0.016C11.943,2.513,11.947,2.507,11.954,2.505z"/>
	<path fill="#38C6FF" d="M11.939,2.53c0,0.009-0.004,0.015-0.011,0.019C11.928,2.541,11.931,2.534,11.939,2.53z"/>
	<path fill="#847BFF" d="M10.934,6.236c0.003-0.005,0.006-0.01,0.01-0.016C10.944,6.228,10.94,6.233,10.934,6.236z"/>
	<path fill="#38C6FF" d="M12.934,2.549c-0.007-0.004-0.009-0.01-0.009-0.017C12.933,2.535,12.935,2.541,12.934,2.549z"/>
	<path fill="#847BFF" d="M10.919,6.262c0.003-0.005,0.006-0.009,0.009-0.014C10.929,6.256,10.925,6.26,10.919,6.262z"/>
	<path fill="#38C6FF" d="M11.928,2.55c-0.003,0.004-0.006,0.008-0.009,0.012C11.918,2.556,11.921,2.552,11.928,2.55z"/>
	<path fill="#847BFF" d="M10.904,6.289c0.003-0.004,0.005-0.008,0.008-0.012C10.913,6.283,10.91,6.287,10.904,6.289z"/>
	<path fill="#847BFF" d="M10.892,6.31c0.001-0.008,0.004-0.015,0.012-0.02C10.904,6.299,10.9,6.305,10.892,6.31z"/>
	<path fill="#847BFF" d="M10.877,6.332c0.003-0.004,0.007-0.009,0.01-0.013C10.887,6.325,10.883,6.33,10.877,6.332z"/>
	<path fill="#847BFF" d="M10.864,6.353c0.001-0.009,0.005-0.016,0.012-0.021C10.877,6.341,10.873,6.349,10.864,6.353z"/>
	<path fill="#847BFF" d="M10.85,6.379c0.004-0.006,0.007-0.013,0.011-0.019C10.862,6.369,10.858,6.375,10.85,6.379z"/>
	<path fill="#847BFF" d="M10.836,6.405c0.003-0.006,0.007-0.012,0.01-0.017C10.847,6.396,10.843,6.402,10.836,6.405z"/>
	<path fill="#847BFF" d="M10.821,6.432c0.003-0.005,0.007-0.01,0.01-0.016C10.832,6.424,10.828,6.429,10.821,6.432z"/>
	<path fill="#38C6FF" d="M12.949,2.577c-0.006-0.004-0.01-0.009-0.009-0.017C12.947,2.563,12.95,2.569,12.949,2.577z"/>
	<path fill="#847BFF" d="M10.807,6.458c0.003-0.004,0.006-0.009,0.009-0.013C10.816,6.451,10.813,6.455,10.807,6.458z"/>
	<path fill="#847BFF" d="M10.794,6.479c0.001-0.009,0.005-0.017,0.013-0.022C10.807,6.467,10.803,6.475,10.794,6.479z"/>
	<path fill="#847BFF" d="M10.781,6.503c0.004-0.006,0.007-0.011,0.011-0.017C10.792,6.494,10.789,6.5,10.781,6.503z"/>
	<path fill="#38C6FF" d="M11.912,2.573c0,0.008-0.004,0.015-0.011,0.019C11.9,2.583,11.904,2.576,11.912,2.573z"/>
	<path fill="#8A74FF" d="M18.299,6.555c-0.004-0.006-0.001-0.01,0.005-0.013C18.302,6.546,18.3,6.55,18.299,6.555z"/>
	<path fill="#38C6FF" d="M11.9,2.593c-0.003,0.004-0.006,0.008-0.009,0.012C11.891,2.598,11.894,2.594,11.9,2.593z"/>
	<path fill="#38C6FF" d="M12.961,2.605c-0.003-0.005-0.005-0.01-0.008-0.015C12.959,2.592,12.962,2.597,12.961,2.605z"/>
	<path fill="#38C6FF" d="M11.885,2.618c-0.003,0.005-0.006,0.01-0.009,0.014C11.875,2.625,11.878,2.621,11.885,2.618z"/>
	<path fill="#738BFF" d="M13.456,6.698c-0.005,0.004-0.009,0.008-0.014,0.013C13.444,6.702,13.448,6.698,13.456,6.698z"/>
	<path fill="#738BFF" d="M13.442,6.711c-0.005,0.005-0.009,0.009-0.014,0.014C13.43,6.717,13.434,6.712,13.442,6.711z"/>
	<path fill="#38C6FF" d="M11.87,2.644c0,0.008-0.003,0.013-0.01,0.017C11.859,2.653,11.863,2.647,11.87,2.644z"/>
	<path fill="#38C6FF" d="M12.989,2.675c-0.003-0.005-0.006-0.011-0.008-0.016C12.988,2.662,12.991,2.667,12.989,2.675z"/>
	<path fill="#38C6FF" d="M11.855,2.67c0,0.009-0.004,0.015-0.011,0.019C11.844,2.681,11.847,2.674,11.855,2.67z"/>
	<path fill="#38C6FF" d="M11.844,2.69c-0.003,0.004-0.006,0.008-0.009,0.013C11.834,2.696,11.837,2.692,11.844,2.69z"/>
	<path fill="#38C6FF" d="M11.829,2.716c-0.003,0.005-0.006,0.01-0.01,0.015C11.818,2.723,11.822,2.718,11.829,2.716z"/>
	<path fill="#38C6FF" d="M11.814,2.742c0,0.008-0.004,0.014-0.011,0.018C11.803,2.751,11.806,2.745,11.814,2.742z"/>
	<path fill="#38C6FF" d="M12.924,2.756c0.006-0.003,0.012-0.006,0.017-0.009C12.937,2.754,12.931,2.757,12.924,2.756z"/>
	<path fill="#38C6FF" d="M12.896,2.775c0.002-0.008,0.007-0.013,0.014-0.015C12.905,2.765,12.901,2.77,12.896,2.775z"/>
	<path fill="#38C6FF" d="M11.788,2.787c-0.003,0.004-0.006,0.009-0.009,0.013C11.777,2.794,11.781,2.79,11.788,2.787z"/>
	<path fill="#38C6FF" d="M12.869,2.822c0-0.009,0.004-0.016,0.012-0.021C12.881,2.811,12.878,2.818,12.869,2.822z"/>
	<path fill="#738BFF" d="M15.549,6.667c-0.009-0.001-0.015-0.006-0.019-0.014C15.54,6.654,15.546,6.659,15.549,6.667z"/>
	<path fill="#CB33FF" d="M15.743,8.072c0-0.008,0.004-0.013,0.01-0.016C15.754,8.064,15.751,8.069,15.743,8.072z"/>
	<path fill="#38C6FF" d="M11.773,2.813c-0.003,0.005-0.007,0.011-0.01,0.016C11.762,2.821,11.765,2.816,11.773,2.813z"/>
	<path fill="#CB33FF" d="M15.727,8.094c0.001-0.005,0.004-0.008,0.008-0.01C15.736,8.091,15.734,8.094,15.727,8.094z"/>
	<path fill="#38C6FF" d="M12.855,2.848c0-0.008,0.004-0.014,0.011-0.018C12.866,2.838,12.863,2.845,12.855,2.848z"/>
	<path fill="#CB33FF" d="M15.715,8.112c0-0.007,0.004-0.011,0.01-0.014C15.726,8.106,15.722,8.11,15.715,8.112z"/>
	<path fill="#CB33FF" d="M13.265,8.113c0.005,0.002,0.007,0.005,0.008,0.01C13.267,8.122,13.264,8.119,13.265,8.113z"/>
	<path fill="#CB33FF" d="M13.275,8.126c0.003,0.004,0.007,0.008,0.01,0.013C13.278,8.138,13.275,8.134,13.275,8.126z"/>
	<path fill="#CB33FF" d="M13.288,8.141c0.007,0.001,0.011,0.005,0.012,0.012C13.293,8.152,13.288,8.149,13.288,8.141z"/>
	<polygon fill="#CB33FF" points="15.686,8.148 15.692,8.141 15.691,8.147 	"/>
	<path fill="#CB33FF" d="M15.672,8.162c0.001-0.004,0.004-0.007,0.008-0.008C15.68,8.16,15.677,8.162,15.672,8.162z"/>
	<path fill="#38C6FF" d="M11.758,2.839c-0.001,0.009-0.005,0.015-0.013,0.018C11.746,2.849,11.75,2.842,11.758,2.839z"/>
	<path fill="#38C6FF" d="M11.745,2.857c-0.003,0.005-0.007,0.01-0.01,0.014C11.734,2.863,11.737,2.859,11.745,2.857z"/>
	<path fill="#38C6FF" d="M12.84,2.875c0.003-0.006,0.007-0.011,0.01-0.017C12.851,2.866,12.847,2.871,12.84,2.875z"/>
	<path fill="#57A7FF" d="M11.127,3.906c-0.003,0.005-0.006,0.01-0.009,0.015C11.117,3.914,11.12,3.908,11.127,3.906z"/>
	<path fill="#57A7FF" d="M11.101,3.952c-0.003,0.004-0.005,0.007-0.008,0.011C11.092,3.957,11.095,3.953,11.101,3.952z"/>
	<path fill="#57A7FF" d="M11.086,3.978c-0.003,0.005-0.006,0.009-0.009,0.014C11.076,3.984,11.079,3.98,11.086,3.978z"/>
	<path fill="#57A7FF" d="M11.058,4.021c-0.003,0.004-0.006,0.008-0.009,0.013C11.048,4.026,11.051,4.022,11.058,4.021z"/>
	<path fill="#57A7FF" d="M11.043,4.046c0,0.007-0.003,0.013-0.01,0.016C11.033,4.054,11.036,4.048,11.043,4.046z"/>
	<path fill="#57A7FF" d="M11.017,4.092c-0.003,0.004-0.006,0.008-0.009,0.012C11.007,4.097,11.011,4.093,11.017,4.092z"/>
	<path fill="#57A7FF" d="M11.002,4.117c-0.003,0.005-0.006,0.01-0.009,0.015C10.992,4.124,10.995,4.119,11.002,4.117z"/>
	<path fill="#57A7FF" d="M12.125,4.136c0.003-0.006,0.007-0.011,0.01-0.017C12.136,4.127,12.132,4.132,12.125,4.136z"/>
	<path fill="#57A7FF" d="M10.987,4.143c0,0.008-0.003,0.013-0.01,0.017C10.976,4.152,10.98,4.146,10.987,4.143z"/>
	<path fill="#E31BFF" d="M5.717,10.465c0.025,0.013,0.05,0.025,0.074,0.039c0.377,0.225,0.753,0.449,1.13,0.674
		c0.282,0.168,0.565,0.337,0.848,0.505c0.238,0.142,0.477,0.284,0.716,0.426c0.006,0.004,0.012,0.007,0.018,0.01
		c0.007,0.004,0.011,0.009,0.008,0.016c-0.001,0.003-0.007,0.005-0.01,0.006c-0.012,0.001-0.023,0-0.035,0
		c-0.593-0.007-1.186-0.014-1.779-0.02c-0.355-0.004-0.71-0.006-1.065-0.009c-0.451-0.004-0.901-0.009-1.352-0.014
		c-0.453-0.005-0.906-0.009-1.359-0.014c-0.455-0.005-0.911-0.009-1.366-0.014c-0.145-0.002-0.289-0.004-0.434-0.006
		c-0.031-0.001-0.032-0.002-0.033-0.031c0-0.014,0-0.028,0-0.042c0-0.45,0-0.901,0.001-1.351c0-0.021,0.002-0.042,0.003-0.063
		c0.022-0.056,0.068-0.062,0.12-0.065c0.34-0.017,0.681-0.005,1.022-0.016c0.341-0.011,0.682,0.001,1.022-0.015
		c0.297-0.014,0.593,0.003,0.889-0.013c0.32-0.017,0.64-0.001,0.959-0.015c0.166-0.007,0.331-0.01,0.497-0.011
		C5.632,10.441,5.676,10.446,5.717,10.465z"/>
	<path fill="#21DEFF" d="M1.08,3.012C1.079,2.993,1.077,2.975,1.077,2.956c0-0.374,0-0.748,0-1.122c0-0.018,0.002-0.037,0.003-0.055
		c0.105,0.046,0.215,0.018,0.323,0.019C1.947,1.807,2.491,1.786,3.035,1.78c0.31-0.003,0.621,0.005,0.931-0.012
		c0.311-0.017,0.621,0.002,0.931-0.014C5.205,1.738,5.514,1.757,5.821,1.74c0.313-0.017,0.626-0.002,0.938-0.013
		c0.128-0.004,0.256-0.015,0.385-0.012C7.176,1.716,7.21,1.711,7.236,1.738C7.222,1.758,7.2,1.768,7.181,1.78
		C6.927,1.949,6.672,2.117,6.418,2.285C6.28,2.377,6.143,2.469,6.005,2.56c-0.21,0.139-0.419,0.278-0.629,0.416
		C5.371,2.98,5.364,2.982,5.358,2.985c-0.039,0.018-0.08,0.022-0.123,0.022C4.796,3.005,4.357,3.017,3.918,3.025
		C3.61,3.03,3.302,3.02,2.994,3.037C2.679,3.054,2.364,3.034,2.049,3.051c-0.28,0.015-0.56,0.007-0.84,0.011
		C1.16,3.063,1.109,3.065,1.08,3.012z"/>
	<path fill="#C43BFF" d="M5.717,10.465c-0.161,0-0.322-0.001-0.483-0.001c-0.014,0-0.029-0.002-0.042,0.002
		c-0.045,0.016-0.092,0.012-0.139,0.012c-0.238,0-0.476,0-0.715,0c-0.035,0-0.069-0.001-0.104,0.01
		c-0.021,0.007-0.046,0.004-0.07,0.004c-0.252,0-0.504,0-0.757,0c-0.032,0-0.065-0.001-0.097,0.009
		c-0.021,0.007-0.046,0.004-0.069,0.004c-0.259,0-0.518,0-0.778,0c-0.03,0-0.06-0.001-0.09,0.009
		c-0.022,0.007-0.046,0.005-0.069,0.005c-0.252,0-0.504,0-0.757,0c-0.035,0-0.07-0.003-0.104,0.011
		c-0.014,0.006-0.032,0.003-0.049,0.003c-0.063,0-0.126,0-0.189,0c-0.072,0-0.072,0-0.127,0.042
		c-0.001-0.018-0.003-0.037-0.003-0.055c0-0.416,0-0.832,0-1.248c0-0.019,0.002-0.037,0.003-0.055
		c0.024-0.033,0.058-0.045,0.097-0.048c0.014-0.001,0.028-0.002,0.042-0.002c0.424,0.01,0.848-0.015,1.272-0.015
		c0.422,0,0.843-0.021,1.265-0.014C3.83,9.14,3.904,9.121,3.979,9.125C4.026,9.128,4.072,9.133,4.112,9.16
		C4.16,9.248,4.208,9.336,4.255,9.424C4.289,9.49,4.324,9.556,4.357,9.623c0.013,0.026,0.031,0.045,0.056,0.06
		C4.568,9.775,4.724,9.869,4.88,9.962c0.152,0.091,0.304,0.181,0.456,0.271c0.114,0.068,0.228,0.136,0.342,0.204
		C5.692,10.445,5.704,10.456,5.717,10.465z"/>
	<path fill="#3CC2FF" d="M1.08,3.012C1.117,3.035,1.157,3.041,1.2,3.04C1.424,3.039,1.648,3.04,1.872,3.04
		c0.035,0,0.069,0.001,0.104-0.01c0.021-0.007,0.046-0.004,0.069-0.004c0.259,0,0.518,0,0.777,0c0.03,0,0.06,0,0.09-0.009
		C2.933,3.01,2.958,3.012,2.981,3.012c0.25,0,0.499,0,0.749,0c0.037,0,0.074,0.002,0.111-0.01C3.862,2.994,3.887,2.998,3.91,2.998
		c0.252,0,0.504,0,0.756,0c0.032,0,0.065,0.003,0.097-0.01c0.012-0.005,0.028-0.004,0.042-0.004c0.184,0,0.369,0.001,0.553,0.001
		C5.343,3.004,5.322,3.014,5.303,3.027c-0.13,0.087-0.259,0.174-0.39,0.259C4.886,3.303,4.867,3.323,4.85,3.349
		C4.762,3.483,4.674,3.618,4.585,3.752C4.467,3.93,4.349,4.109,4.23,4.287C4.22,4.303,4.211,4.319,4.194,4.33
		c-0.03,0.023-0.066,0.02-0.101,0.022C3.72,4.367,3.347,4.355,2.974,4.369C2.658,4.38,2.343,4.365,2.029,4.382
		C1.753,4.397,1.478,4.388,1.202,4.393C1.158,4.394,1.112,4.397,1.08,4.357C1.079,4.338,1.077,4.32,1.077,4.301
		c0-0.411,0-0.823,0-1.234C1.077,3.049,1.079,3.03,1.08,3.012z"/>
	<path fill="#07F8FF" d="M7.236,1.738c-0.11,0-0.219-0.001-0.329-0.001c-0.009,0-0.019-0.002-0.028,0.001
		c-0.059,0.02-0.12,0.012-0.18,0.013c-0.236,0.001-0.472,0-0.708,0c-0.028,0-0.055,0-0.083,0.008
		C5.886,1.766,5.862,1.765,5.839,1.765c-0.255,0-0.509,0-0.764,0c-0.033,0-0.065-0.001-0.097,0.01
		C4.957,1.782,4.932,1.779,4.909,1.779c-0.255,0-0.509,0-0.764,0c-0.03,0-0.06,0-0.09,0.009C4.034,1.795,4.009,1.793,3.986,1.793
		c-0.255,0-0.509,0-0.764,0c-0.037,0-0.074-0.002-0.111,0.01C3.09,1.811,3.065,1.807,3.042,1.807c-0.252,0-0.504,0-0.757,0
		c-0.033,0-0.065,0-0.097,0.01C2.167,1.824,2.142,1.821,2.119,1.821c-0.259,0-0.518,0-0.778,0c-0.03,0-0.06,0.002-0.09,0.009
		C1.195,1.844,1.14,1.839,1.097,1.791C1.093,1.786,1.086,1.783,1.08,1.779C1.079,1.761,1.077,1.742,1.077,1.723
		c0-0.173,0-0.345,0-0.518c0-0.014,0-0.028,0.001-0.042c0.001-0.013,0.007-0.022,0.021-0.023C1.12,1.14,1.141,1.139,1.162,1.139
		c0.502-0.007,1.004-0.014,1.506-0.022c0.584-0.009,1.167-0.019,1.751-0.028C5.002,1.079,5.586,1.07,6.17,1.061
		c0.586-0.009,1.172-0.019,1.758-0.028C8.049,1.03,8.171,1.027,8.291,1.024C8.3,1.041,8.287,1.045,8.278,1.051
		C8.185,1.114,8.092,1.176,7.999,1.238C7.851,1.336,7.704,1.433,7.556,1.531C7.542,1.54,7.528,1.547,7.514,1.555
		C7.509,1.559,7.504,1.563,7.499,1.566C7.498,1.57,7.495,1.572,7.49,1.571C7.482,1.572,7.476,1.577,7.471,1.584l0,0
		c-0.004,0.004-0.009,0.007-0.014,0.01C7.455,1.597,7.451,1.599,7.446,1.598C7.439,1.601,7.434,1.606,7.429,1.611l0,0
		C7.425,1.615,7.42,1.619,7.415,1.621C7.413,1.625,7.41,1.627,7.405,1.626C7.397,1.628,7.392,1.633,7.387,1.639l0,0
		c-0.004,0.004-0.008,0.008-0.014,0.01c-0.002,0.004-0.005,0.006-0.01,0.005C7.355,1.656,7.35,1.661,7.345,1.667l0,0
		C7.341,1.671,7.336,1.675,7.331,1.678C7.329,1.682,7.326,1.684,7.322,1.683C7.313,1.684,7.308,1.689,7.303,1.695l0,0
		c-0.004,0.004-0.009,0.008-0.014,0.01C7.286,1.709,7.283,1.711,7.278,1.71C7.271,1.713,7.266,1.718,7.26,1.722l-0.001,0
		c-0.003,0.005-0.007,0.008-0.013,0.01C7.245,1.737,7.241,1.739,7.236,1.738z"/>
	<path fill="#5CA3FF" d="M1.08,4.357c0.036,0.013,0.072,0.014,0.11,0.014c0.226-0.001,0.453,0,0.679,0c0.03,0,0.06,0,0.09-0.009
		C1.98,4.355,2.005,4.357,2.028,4.357c0.25,0,0.499,0,0.749,0c0.037,0,0.074,0.002,0.111-0.01c0.021-0.007,0.046-0.003,0.069-0.003
		c0.252,0,0.504,0,0.756,0c0.032,0,0.065,0.003,0.097-0.01c0.012-0.005,0.028-0.004,0.042-0.004c0.114,0,0.229,0,0.343,0.001
		C4.15,4.414,4.094,4.491,4.042,4.571C4.033,4.584,4.022,4.597,4.014,4.61C3.921,4.75,3.83,4.89,3.738,5.03
		c-0.12,0.182-0.241,0.365-0.362,0.546C3.341,5.628,3.304,5.679,3.268,5.73C3.258,5.736,3.26,5.75,3.251,5.756L3.25,5.757
		c-0.003,0.006-0.009,0.01-0.012,0.017L3.24,5.772C3.222,5.797,3.196,5.805,3.167,5.807C3.155,5.807,3.143,5.808,3.132,5.808
		C2.628,5.799,2.124,5.831,1.62,5.822C1.473,5.82,1.327,5.845,1.179,5.836C1.143,5.833,1.103,5.839,1.08,5.8
		C1.079,5.781,1.077,5.763,1.077,5.744c0-0.444,0-0.888,0-1.332C1.077,4.394,1.079,4.375,1.08,4.357z"/>
	<path fill="#A856FF" d="M4.112,9.16c-0.012,0-0.024,0.003-0.035,0c-0.059-0.019-0.12-0.011-0.18-0.013
		c-0.012,0-0.024-0.002-0.035,0.002C3.812,9.167,3.761,9.161,3.71,9.161c-0.243,0-0.485,0-0.728,0c-0.03,0-0.06,0-0.09,0.009
		C2.87,9.177,2.846,9.175,2.823,9.175c-0.252,0-0.504,0-0.756,0c-0.035,0-0.069-0.002-0.104,0.01C1.944,9.193,1.921,9.19,1.901,9.19
		c-0.21,0-0.42,0.001-0.63,0c-0.065,0-0.13-0.001-0.191,0.028C1.079,9.202,1.077,9.185,1.077,9.169c0-0.351,0-0.701,0-1.052
		c0-0.016,0.002-0.032,0.003-0.048c0.021-0.021,0.048-0.028,0.076-0.032c0.021-0.003,0.042-0.004,0.063-0.004
		c0.503,0.009,1.006-0.018,1.509-0.017c0.228,0.001,0.456-0.014,0.684-0.012c0.048,0,0.093,0.005,0.123,0.05
		c0.006,0.01,0.014,0.018,0.019,0.029c0.093,0.179,0.186,0.359,0.28,0.539C3.916,8.78,4,8.939,4.084,9.097
		C4.094,9.118,4.103,9.139,4.112,9.16z"/>
	<path fill="#7B83FF" d="M1.08,5.8c0.021,0.013,0.044,0.014,0.067,0.014c0.084-0.001,0.168,0,0.252,0
		c0.012,0,0.024,0.002,0.035-0.001C1.491,5.793,1.549,5.8,1.607,5.8c0.233-0.001,0.466,0,0.699,0c0.028,0,0.055,0,0.083-0.008
		c0.022-0.006,0.046-0.006,0.069-0.006c0.231,0,0.462,0,0.692,0c0.03,0,0.061,0.002,0.089-0.014
		C3.234,5.798,3.216,5.817,3.202,5.838C3.101,5.991,2.999,6.144,2.897,6.297c-0.04,0.06-0.081,0.119-0.12,0.18
		C2.734,6.542,2.738,6.524,2.77,6.588c0.064,0.124,0.129,0.247,0.193,0.371c0.01,0.018,0.023,0.035,0.025,0.057
		C2.918,7.05,2.841,7.038,2.77,7.037C2.235,7.034,1.701,7.062,1.166,7.054c-0.03,0-0.061,0.001-0.086-0.022
		C1.079,7.014,1.077,6.995,1.077,6.977c0-0.374,0-0.748,0-1.122C1.077,5.837,1.079,5.818,1.08,5.8z"/>
	<path fill="#926DFF" d="M1.08,7.032c0.249,0,0.498,0,0.747,0c0.03,0,0.06,0,0.09-0.009c0.021-0.007,0.046-0.004,0.069-0.004
		c0.193,0,0.386,0,0.58,0c0.056,0,0.112-0.001,0.168,0c0.044,0.001,0.088-0.002,0.131-0.013c0.042-0.011,0.081,0.021,0.124,0.011
		c0,0-0.001,0-0.001,0c0.001,0.007,0.007,0.011,0.01,0.017c0.004,0.002,0.005,0.005,0.003,0.008C3.002,7.049,3.008,7.055,3.014,7.06
		l0,0c0.008,0.008,0.005,0.021,0.015,0.028l0-0.001c0.004,0.005,0.007,0.009,0.01,0.015c0.004,0.003,0.006,0.007,0.005,0.012
		c0.004,0.005,0.007,0.01,0.01,0.016c0.004,0.003,0.006,0.007,0.004,0.012c0.003,0.005,0.007,0.011,0.01,0.016
		C3.07,7.161,3.072,7.165,3.07,7.169c0.003,0.006,0.007,0.011,0.01,0.017c0.004,0.003,0.006,0.006,0.004,0.011
		c0.002,0.006,0.007,0.011,0.01,0.017C3.137,7.292,3.18,7.369,3.221,7.447c0.104,0.198,0.207,0.396,0.31,0.594
		C3.533,8.045,3.533,8.05,3.534,8.054C3.506,8.032,3.473,8.026,3.437,8.026C3.278,8.028,3.12,8.027,2.962,8.027
		c-0.028,0-0.055,0.001-0.083,0.009C2.857,8.042,2.833,8.041,2.81,8.041c-0.254,0-0.508,0-0.762,0c-0.032,0-0.064-0.001-0.097,0.01
		C1.93,8.058,1.905,8.055,1.882,8.055c-0.214,0-0.429,0-0.643,0c-0.042,0-0.084-0.003-0.124,0.012
		C1.104,8.071,1.092,8.069,1.08,8.069C1.079,8.053,1.077,8.037,1.077,8.021c0-0.313,0-0.627,0-0.94
		C1.077,7.065,1.079,7.048,1.08,7.032z"/>
	<path fill="#7B83FF" d="M3.251,5.756C3.252,5.744,3.256,5.734,3.268,5.73C3.267,5.741,3.261,5.75,3.251,5.756z"/>
	<path fill="#7B83FF" d="M3.029,7.088C3.017,7.083,3.014,7.072,3.014,7.06C3.025,7.066,3.028,7.076,3.029,7.088z"/>
	<path fill="#21DEFF" d="M7.499,1.566c0.005-0.004,0.01-0.007,0.014-0.011C7.512,1.562,7.507,1.567,7.499,1.566z"/>
	<path fill="#21DEFF" d="M7.471,1.584c0.004-0.008,0.01-0.012,0.019-0.012C7.487,1.58,7.48,1.584,7.471,1.584z"/>
	<path fill="#21DEFF" d="M7.457,1.593c0.005-0.003,0.01-0.007,0.014-0.01C7.469,1.59,7.465,1.594,7.457,1.593z"/>
	<path fill="#21DEFF" d="M7.429,1.611c0.004-0.007,0.01-0.011,0.018-0.012C7.443,1.606,7.437,1.611,7.429,1.611z"/>
	<path fill="#21DEFF" d="M7.415,1.621c0.004-0.003,0.009-0.007,0.013-0.01C7.426,1.617,7.423,1.622,7.415,1.621z"/>
	<path fill="#21DEFF" d="M7.387,1.639c0.004-0.007,0.01-0.012,0.018-0.012C7.402,1.635,7.395,1.639,7.387,1.639z"/>
	<path fill="#21DEFF" d="M7.373,1.649c0.005-0.003,0.009-0.007,0.014-0.01C7.385,1.646,7.381,1.65,7.373,1.649z"/>
	<path fill="#21DEFF" d="M7.345,1.667c0.004-0.008,0.01-0.012,0.018-0.013C7.36,1.663,7.354,1.667,7.345,1.667z"/>
	<path fill="#21DEFF" d="M7.331,1.678C7.336,1.674,7.34,1.671,7.345,1.667C7.343,1.674,7.339,1.678,7.331,1.678z"/>
	<path fill="#21DEFF" d="M7.303,1.695c0.004-0.008,0.01-0.012,0.019-0.013C7.318,1.691,7.312,1.695,7.303,1.695z"/>
	<path fill="#21DEFF" d="M7.289,1.705c0.005-0.003,0.009-0.007,0.014-0.01C7.301,1.702,7.297,1.706,7.289,1.705z"/>
	<path fill="#21DEFF" d="M7.26,1.722C7.264,1.715,7.27,1.711,7.278,1.71C7.275,1.718,7.269,1.722,7.26,1.722z"/>
	<path fill="#21DEFF" d="M7.247,1.733c0.004-0.003,0.008-0.007,0.013-0.01C7.258,1.729,7.254,1.733,7.247,1.733z"/>
	<path fill="#7B83FF" d="M3.239,5.773C3.243,5.768,3.246,5.762,3.25,5.757C3.25,5.765,3.246,5.771,3.239,5.773z"/>
	<path fill="#7B83FF" d="M2.997,7.032C2.994,7.027,2.99,7.021,2.987,7.016C2.995,7.018,2.998,7.024,2.997,7.032z"/>
	<path fill="#7B83FF" d="M3.014,7.06C3.006,7.056,3.002,7.05,3.001,7.041C3.009,7.045,3.014,7.051,3.014,7.06z"/>
	<path fill="#7B83FF" d="M3.038,7.102c-0.003-0.005-0.006-0.01-0.01-0.015C3.035,7.09,3.038,7.095,3.038,7.102z"/>
	<path fill="#7B83FF" d="M3.052,7.13C3.049,7.125,3.045,7.12,3.042,7.114C3.049,7.117,3.052,7.122,3.052,7.13z"/>
	<path fill="#7B83FF" d="M3.066,7.158C3.063,7.153,3.06,7.147,3.056,7.142C3.063,7.145,3.067,7.15,3.066,7.158z"/>
	<path fill="#7B83FF" d="M3.08,7.186C3.077,7.181,3.074,7.175,3.07,7.169C3.077,7.173,3.081,7.178,3.08,7.186z"/>
	<path fill="#7B83FF" d="M3.094,7.214c-0.003-0.006-0.007-0.011-0.01-0.017C3.091,7.201,3.095,7.206,3.094,7.214z"/>
	<path fill="#D32BFF" d="M25.241,11.388c0.063-0.039,0.125-0.08,0.189-0.118c0.142-0.085,0.284-0.169,0.426-0.253
		c0.324-0.193,0.648-0.386,0.973-0.579c0.206-0.123,0.412-0.246,0.618-0.369c0.112-0.067,0.224-0.133,0.336-0.201
		c0.024-0.014,0.045-0.032,0.068-0.048c0.022-0.02,0.049-0.026,0.077-0.031c0.025-0.004,0.051-0.006,0.077-0.006
		c0.488,0.008,0.975-0.014,1.463-0.018c0.345-0.003,0.691-0.002,1.036-0.014c0.177-0.006,0.354-0.01,0.532-0.01
		c0.099,0,0.103,0.005,0.103,0.101c0,0.457,0,0.915,0,1.372c0,0.025,0.004,0.051-0.004,0.077c-0.025,0.023-0.056,0.02-0.086,0.021
		c-0.341,0.019-0.682,0.005-1.022,0.017c-0.336,0.012-0.673-0.001-1.008,0.015c-0.294,0.014-0.589-0.003-0.882,0.013
		c-0.325,0.017-0.649-0.001-0.973,0.015c-0.297,0.015-0.593-0.002-0.889,0.013c-0.28,0.015-0.56,0.008-0.84,0.012
		c-0.033,0.001-0.065,0.007-0.098,0.01C25.301,11.41,25.268,11.415,25.241,11.388z"/>
	<path fill="#11EDFF" d="M25.645,2.355c-0.02-0.011-0.041-0.021-0.06-0.034c-0.206-0.137-0.411-0.274-0.617-0.411
		c-0.289-0.192-0.579-0.384-0.869-0.576c-0.051-0.034-0.101-0.067-0.152-0.1c-0.009-0.006-0.02-0.01-0.024-0.022
		c0.004-0.013,0.015-0.008,0.023-0.009c0.009-0.001,0.019,0,0.028,0c0.271,0.004,0.542,0.009,0.813,0.013
		c0.507,0.008,1.013,0.015,1.52,0.022c0.273,0.004,0.546,0.008,0.82,0.013c0.584,0.009,1.167,0.019,1.751,0.028
		c0.584,0.009,1.167,0.019,1.751,0.028c0.152,0.002,0.304,0.006,0.455,0.009c0.018,0,0.038-0.004,0.053,0.01
		c0.003,0.306,0.001,0.613,0.001,0.919c0,0.009-0.001,0.018-0.005,0.027c-0.03,0.025-0.066,0.02-0.101,0.02
		C30.626,2.3,30.22,2.3,29.814,2.31c-0.313,0.008-0.626-0.004-0.938,0.013c-0.306,0.016-0.612-0.003-0.917,0.014
		c-0.315,0.017-0.631-0.003-0.945,0.014c-0.308,0.017-0.616,0.004-0.924,0.013c-0.105,0.003-0.209,0.016-0.315,0.014
		C25.73,2.376,25.687,2.371,25.645,2.355z"/>
	<path fill="#F708FF" d="M25.241,11.388c0.044,0,0.088,0.004,0.132-0.01c0.019-0.006,0.042-0.003,0.063-0.003
		c0.215,0,0.43,0,0.645,0c0.028,0,0.055,0,0.083-0.009c0.022-0.006,0.046-0.005,0.069-0.005c0.252,0,0.504,0,0.757,0
		c0.035,0,0.069,0.001,0.104-0.01c0.021-0.007,0.046-0.004,0.07-0.004c0.252,0,0.504,0,0.757,0c0.033,0,0.065,0.001,0.097-0.01
		c0.021-0.007,0.046-0.004,0.069-0.004c0.259,0,0.519,0,0.778,0c0.03,0,0.06,0,0.09-0.009c0.022-0.007,0.046-0.005,0.069-0.005
		c0.252,0,0.504,0,0.757,0c0.035,0,0.069,0.001,0.104-0.01c0.021-0.007,0.046-0.003,0.07-0.004c0.257,0,0.514,0,0.771,0
		c0.033,0,0.065,0.001,0.097-0.01c0.017-0.006,0.037-0.004,0.056-0.004c0.084,0,0.168,0,0.252,0
		c0.007,0.007,0.009,0.015,0.009,0.025c-0.001,0.302,0.003,0.605-0.003,0.907c-0.002,0.01-0.009,0.016-0.019,0.017
		c-0.026,0.001-0.051,0.001-0.077,0.001c-0.717,0.007-1.433,0.013-2.15,0.02c-0.962,0.01-1.923,0.02-2.885,0.03
		c-0.453,0.005-0.906,0.009-1.358,0.014c-0.292,0.003-0.584,0.006-0.875,0.009c-0.023,0-0.045-0.001-0.066-0.002
		c-0.006-0.014,0.004-0.016,0.009-0.019c0.212-0.127,0.425-0.253,0.637-0.379c0.29-0.173,0.581-0.346,0.871-0.519
		C25.228,11.392,25.235,11.391,25.241,11.388z"/>
	<path fill="#2CD2FF" d="M25.645,2.355c0.096-0.001,0.191-0.001,0.287-0.002c0.026,0,0.051-0.001,0.076-0.008
		c0.022-0.006,0.046-0.005,0.069-0.005c0.254,0,0.509,0,0.763,0c0.032,0,0.065,0.001,0.097-0.009
		c0.021-0.007,0.046-0.004,0.069-0.004c0.254,0,0.509,0,0.763,0c0.037,0,0.074,0.002,0.111-0.01
		c0.021-0.007,0.046-0.003,0.069-0.003c0.252,0,0.504,0,0.756,0c0.032,0,0.065,0.001,0.097-0.01
		c0.021-0.007,0.046-0.004,0.069-0.004c0.254,0,0.509,0,0.763,0c0.03,0,0.06,0,0.09-0.009c0.022-0.007,0.046-0.005,0.069-0.005
		c0.257,0,0.513,0,0.77,0c0.035,0,0.069,0.002,0.104-0.01c0.017-0.006,0.037-0.003,0.055-0.003c0.135,0,0.271,0,0.406,0
		c0.012,0.011,0.009,0.026,0.009,0.039c0,0.352,0,0.703,0,1.055c0,0.009-0.001,0.019-0.004,0.027
		c-0.025,0.023-0.056,0.022-0.086,0.021c-0.394-0.009-0.788,0.017-1.182,0.016c-0.415-0.001-0.83,0.008-1.245,0.017
		c-0.306,0.007-0.611,0.003-0.916,0.01c-0.1,0.002-0.2,0.019-0.3,0.014c-0.04-0.002-0.079-0.006-0.116-0.022
		c-0.062-0.04-0.125-0.079-0.187-0.12c-0.204-0.135-0.406-0.271-0.61-0.405c-0.263-0.175-0.527-0.349-0.791-0.524
		C25.68,2.385,25.659,2.375,25.645,2.355z"/>
	<path fill="#B44BFF" d="M31.135,12.223c-0.001-0.025-0.003-0.051-0.003-0.076c-0.001-0.26-0.001-0.52-0.001-0.78
		c0-0.025-0.001-0.051-0.002-0.076c0.001-0.026,0.003-0.051,0.003-0.077c0-0.455-0.001-0.909-0.001-1.364
		c0-0.093,0.005-0.086-0.088-0.086c-0.119,0-0.238,0-0.357,0c-0.039,0-0.079-0.002-0.118,0.011
		c-0.019,0.006-0.042,0.003-0.063,0.003c-0.252,0-0.504,0-0.756,0c-0.035,0-0.069-0.001-0.104,0.01
		c-0.021,0.007-0.046,0.004-0.069,0.004c-0.257,0-0.513,0-0.77,0c-0.032,0-0.065-0.001-0.097,0.009
		c-0.021,0.007-0.046,0.004-0.069,0.004c-0.203,0-0.406,0-0.609,0c-0.044,0-0.088-0.003-0.131,0.012
		c-0.015,0.005-0.032,0.002-0.049,0.002c0.006-0.015,0.011-0.031,0.018-0.045c0.099-0.191,0.197-0.381,0.297-0.571
		c0.11-0.211,0.22-0.422,0.331-0.632c0.027-0.051,0.057-0.102,0.085-0.152c0.004-0.006,0.009-0.012,0.011-0.019
		c-0.001-0.004,0-0.007,0.004-0.009c0.003-0.006,0.009-0.01,0.01-0.017l-0.001,0.001c0.04-0.039,0.094-0.038,0.144-0.046
		c0.018-0.003,0.037-0.003,0.056-0.003c0.525,0.01,1.049-0.02,1.574-0.015c0.207,0.002,0.414-0.021,0.622-0.013
		c0.026,0.001,0.051,0,0.077,0.002c0.042,0.003,0.062,0.02,0.06,0.066c-0.003,0.081-0.001,0.163-0.001,0.245
		c-0.002,0.326,0.003,0.653-0.003,0.979c0.008,0.023,0.005,0.046,0.005,0.069c0,0.834,0.001,1.668,0,2.502
		C31.14,12.182,31.145,12.204,31.135,12.223z"/>
	<path fill="#42BCFF" d="M27.287,3.447c0.07,0,0.14,0,0.21-0.001c0.039,0,0.079,0.002,0.118-0.011
		c0.019-0.006,0.042-0.003,0.063-0.003c0.257,0,0.513,0,0.77,0c0.035,0,0.069,0.001,0.104-0.01c0.021-0.007,0.046-0.004,0.069-0.004
		c0.254,0,0.508,0,0.763,0c0.03,0,0.06,0,0.09-0.009c0.022-0.007,0.046-0.005,0.069-0.005c0.252,0,0.504,0,0.756,0
		c0.035,0,0.069,0.002,0.104-0.01c0.019-0.007,0.042-0.004,0.062-0.004c0.222,0,0.443,0,0.665,0c0.017,0.018,0.009,0.04,0.009,0.06
		c0.001,0.301-0.001,0.602,0.002,0.903c0.001,0.058-0.019,0.082-0.075,0.082c-0.009,0-0.019,0.001-0.028,0.001
		c-0.462-0.008-0.924,0.014-1.386,0.018c-0.354,0.003-0.709,0.003-1.064,0.014c-0.168,0.005-0.336,0.009-0.504,0.011
		c-0.04,0-0.081,0.002-0.108-0.036l0.001,0.001c-0.003-0.005-0.007-0.011-0.011-0.016c-0.004-0.001-0.005-0.003-0.004-0.007
		c-0.001-0.01-0.006-0.016-0.014-0.021L27.949,4.4c-0.004-0.005-0.007-0.01-0.011-0.015c-0.004-0.001-0.005-0.004-0.004-0.008
		c-0.001-0.009-0.006-0.015-0.013-0.02l0,0.001c-0.004-0.004-0.008-0.009-0.011-0.014c-0.004-0.002-0.006-0.004-0.005-0.009
		c-0.001-0.008-0.007-0.014-0.013-0.019l0,0c-0.004-0.004-0.008-0.009-0.01-0.014c-0.004-0.002-0.006-0.005-0.005-0.01
		c-0.002-0.008-0.007-0.013-0.012-0.019l0,0c-0.004-0.003-0.008-0.008-0.01-0.013c-0.004-0.002-0.006-0.006-0.006-0.01
		c-0.002-0.008-0.007-0.013-0.014-0.018l0.001,0.001c-0.004-0.005-0.007-0.01-0.011-0.015c-0.006-0.007-0.013-0.014-0.018-0.021
		c-0.087-0.132-0.175-0.264-0.262-0.396c-0.062-0.093-0.125-0.185-0.184-0.281C27.343,3.487,27.309,3.474,27.287,3.447z"/>
	<path fill="#59A5FF" d="M27.975,4.441c0.024,0.012,0.049,0.014,0.075,0.014c0.133-0.001,0.266,0,0.399,0
		c0.012,0,0.024,0.002,0.035-0.001c0.062-0.02,0.125-0.012,0.187-0.013c0.226-0.001,0.453,0,0.679,0c0.033,0,0.065,0,0.097-0.01
		c0.021-0.007,0.046-0.004,0.069-0.004c0.254,0,0.509,0,0.763,0c0.03,0,0.06,0,0.09-0.009c0.022-0.007,0.046-0.005,0.069-0.005
		c0.198,0,0.397,0,0.595,0c0.016,0,0.033,0,0.049,0c0.043-0.001,0.046-0.005,0.047-0.05c0-0.007,0-0.014,0-0.021
		c0-0.301,0-0.602,0-0.903c0-0.016-0.002-0.033-0.003-0.049c0.001-0.021,0.002-0.042,0.002-0.063c0-0.332,0.001-0.664,0.001-0.995
		c0-0.021-0.002-0.042-0.003-0.062c0.001-0.028,0.002-0.056,0.002-0.084c0.001-0.261,0.001-0.523,0.001-0.784
		c0-0.026,0.002-0.051,0.004-0.076c0.008,0.02,0.004,0.042,0.004,0.062c0,1.069,0,2.137-0.001,3.206
		c0,0.025,0.004,0.051-0.005,0.076c0.007,0.28,0.001,0.56,0.003,0.84c0,0.035-0.013,0.052-0.047,0.057
		C31.078,5.568,31.064,5.57,31.05,5.57c-0.257-0.009-0.513,0.017-0.77,0.014c-0.476-0.006-0.952,0.025-1.428,0.014
		c-0.042-0.001-0.085,0.005-0.122-0.021c-0.018-0.024-0.038-0.047-0.054-0.072c-0.094-0.142-0.187-0.285-0.281-0.426
		c-0.133-0.2-0.267-0.4-0.4-0.6C27.987,4.467,27.982,4.454,27.975,4.441z"/>
	<path fill="#946BFF" d="M31.135,9.59c-0.001-0.023-0.003-0.046-0.003-0.07c0-0.371-0.001-0.742-0.001-1.113
		c0-0.093,0.005-0.087-0.088-0.087c-0.105,0-0.21-0.001-0.315,0c-0.056,0-0.112-0.006-0.167,0.012
		c-0.019,0.006-0.042,0.002-0.063,0.002c-0.25,0-0.5,0-0.749,0c-0.035,0-0.069-0.001-0.104,0.01
		c-0.019,0.006-0.042,0.003-0.063,0.003c-0.238,0-0.476,0.002-0.714-0.001c-0.089-0.001-0.176,0.011-0.263,0.028
		c0.022-0.064,0.058-0.121,0.089-0.181c0.01-0.019,0.021-0.037,0.03-0.055c0.095-0.182,0.189-0.364,0.284-0.546
		c0.113-0.217,0.227-0.434,0.341-0.65c0.004-0.008,0.01-0.015,0.016-0.023c0.022-0.035,0.058-0.035,0.093-0.036
		c0.265-0.009,0.531-0.021,0.796-0.014c0.252,0.007,0.503-0.024,0.754-0.014c0.026,0.001,0.051,0,0.077,0.003
		c0.035,0.004,0.056,0.019,0.053,0.058c-0.003,0.042,0.003,0.084-0.003,0.125c0.008,0.023,0.005,0.046,0.005,0.069
		c0,0.805,0,1.611,0,2.416C31.14,9.549,31.144,9.57,31.135,9.59z"/>
	<path fill="#748AFF" d="M31.135,7.042c-0.001-0.044-0.002-0.088-0.005-0.132c-0.001-0.022-0.009-0.029-0.03-0.031
		c-0.007-0.001-0.014-0.001-0.021-0.001c-0.135,0-0.27,0-0.406,0c-0.007,0-0.015-0.001-0.021,0.001
		c-0.064,0.021-0.129,0.012-0.194,0.013c-0.224,0.001-0.448,0-0.671,0c-0.032,0-0.065-0.002-0.097,0.01
		c-0.017,0.006-0.037,0.004-0.055,0.004c-0.068,0-0.135,0.001-0.203,0c-0.024,0-0.046,0.002-0.067,0.015
		c0.026-0.052,0.052-0.103,0.078-0.155c0.006-0.012,0.012-0.025,0.019-0.037c0.009-0.016,0.007-0.03-0.004-0.045
		c-0.021-0.031-0.041-0.062-0.061-0.093c-0.102-0.153-0.203-0.306-0.305-0.459c-0.112-0.169-0.224-0.337-0.335-0.506
		c-0.01-0.015-0.018-0.032-0.027-0.048c0.273,0,0.546-0.001,0.819-0.001c0.037,0,0.074,0.002,0.111-0.01
		c0.021-0.007,0.046-0.003,0.069-0.003c0.252,0,0.504,0,0.756,0c0.032,0,0.065,0.001,0.097-0.01
		c0.019-0.007,0.042-0.004,0.062-0.004c0.135,0,0.271,0,0.406,0c0.019,0,0.037,0,0.056-0.002c0.013-0.001,0.022-0.01,0.022-0.023
		c0.002-0.021,0.002-0.042,0.002-0.063c0-0.24,0-0.48,0.001-0.721c0-0.023,0.002-0.046,0.004-0.069
		c0.009,0.023,0.005,0.046,0.005,0.069c0,0.745,0,1.489,0,2.234C31.14,6.996,31.144,7.02,31.135,7.042z"/>
	<path fill="#59A5FF" d="M27.825,4.217c0.004,0.005,0.007,0.01,0.011,0.015C27.829,4.23,27.825,4.225,27.825,4.217z"/>
	<path fill="#59A5FF" d="M27.836,4.231c0.008,0.003,0.013,0.009,0.014,0.018C27.842,4.245,27.837,4.24,27.836,4.231z"/>
	<path fill="#59A5FF" d="M27.855,4.259c0.003,0.004,0.007,0.009,0.01,0.013C27.859,4.27,27.855,4.266,27.855,4.259z"/>
	<path fill="#59A5FF" d="M27.865,4.272c0.007,0.004,0.011,0.01,0.012,0.019C27.87,4.287,27.866,4.281,27.865,4.272z"/>
	<path fill="#59A5FF" d="M27.883,4.301c0.003,0.005,0.007,0.009,0.01,0.014C27.886,4.313,27.882,4.308,27.883,4.301z"/>
	<path fill="#59A5FF" d="M27.893,4.315c0.008,0.004,0.012,0.011,0.013,0.019C27.897,4.33,27.893,4.324,27.893,4.315z"/>
	<path fill="#59A5FF" d="M27.91,4.343c0.004,0.005,0.007,0.01,0.011,0.014C27.914,4.355,27.91,4.351,27.91,4.343z"/>
	<path fill="#59A5FF" d="M27.921,4.357c0.008,0.004,0.012,0.011,0.013,0.02C27.925,4.373,27.921,4.366,27.921,4.357z"/>
	<path fill="#59A5FF" d="M27.938,4.385c0.004,0.005,0.007,0.01,0.011,0.015C27.941,4.398,27.937,4.393,27.938,4.385z"/>
	<path fill="#59A5FF" d="M27.948,4.399c0.009,0.004,0.013,0.011,0.014,0.021C27.953,4.416,27.949,4.409,27.948,4.399z"/>
	<path fill="#59A5FF" d="M27.965,4.427c0.004,0.005,0.007,0.011,0.011,0.016C27.969,4.44,27.965,4.435,27.965,4.427z"/>
	<path fill="#946BFF" d="M28.607,8.375c0,0.008-0.004,0.013-0.01,0.017C28.596,8.384,28.599,8.378,28.607,8.375z"/>
	<path fill="#946BFF" d="M28.593,8.4c-0.004,0.006-0.007,0.013-0.011,0.019C28.582,8.411,28.585,8.404,28.593,8.4z"/>
	<path fill="#666666" d="M10.151,11.3c-0.047-0.029-0.095-0.057-0.142-0.087c-0.299-0.19-0.599-0.381-0.898-0.571
		c-0.268-0.17-0.536-0.34-0.804-0.511C8.095,9.995,7.883,9.859,7.67,9.724C7.422,9.566,7.173,9.409,6.925,9.251
		c-0.189-0.12-0.378-0.24-0.567-0.361C6.149,8.758,5.942,8.622,5.731,8.494c-0.077-0.047-0.13-0.111-0.178-0.183
		C5.467,8.183,5.382,8.055,5.296,7.927C5.168,7.737,5.04,7.548,4.912,7.358C4.79,7.179,4.668,7,4.548,6.823
		c0.005-0.02,0.018-0.017,0.029-0.017c0.019-0.001,0.037,0,0.056,0c0.899,0,1.799,0.001,2.698,0.001c0.005,0,0.009,0.001,0.014,0
		C7.391,6.798,7.417,6.82,7.44,6.858c0.112,0.186,0.226,0.37,0.34,0.555c0.118,0.193,0.236,0.386,0.354,0.579
		c0.112,0.183,0.225,0.366,0.337,0.549C8.587,8.73,8.702,8.919,8.818,9.108C8.929,9.289,9.041,9.47,9.152,9.65
		c0.13,0.211,0.26,0.421,0.389,0.631c0.09,0.147,0.18,0.295,0.27,0.442c0.105,0.171,0.21,0.342,0.315,0.513
		c0.011,0.018,0.021,0.036,0.032,0.054C10.156,11.294,10.153,11.297,10.151,11.3z"/>
	<path fill="#C43AFF" d="M5.084,5.729c0.043-0.073,0.098-0.136,0.147-0.204c0.016-0.023,0.035-0.044,0.052-0.066
		C5.392,5.317,5.501,5.174,5.61,5.031c0.004-0.006,0.01-0.01,0.015-0.015c0.03-0.031,0.068-0.039,0.109-0.038
		c0.345,0.01,0.69-0.017,1.036-0.014c0.45,0.003,0.9-0.025,1.351-0.013c0.038,0.001,0.086-0.018,0.109,0.035
		C8.215,5.024,8.19,5.055,8.169,5.088C8.058,5.261,7.947,5.434,7.835,5.606C7.81,5.644,7.782,5.682,7.755,5.719
		C7.645,5.701,7.536,5.724,7.427,5.722C6.891,5.716,6.355,5.741,5.819,5.741C5.61,5.74,5.4,5.754,5.19,5.752
		C5.154,5.751,5.115,5.759,5.084,5.729z"/>
	<path fill="#9C62FF" d="M8.229,4.986C8.22,4.978,8.21,4.973,8.198,4.973c-0.019,0-0.037,0-0.056,0c-0.249,0-0.499,0-0.748,0
		c-0.035,0-0.069-0.001-0.104,0.01C7.269,4.99,7.244,4.987,7.221,4.987c-0.259,0-0.517,0-0.776,0c-0.03,0-0.06-0.001-0.09,0.009
		C6.333,5.003,6.309,5.001,6.286,5.001c-0.189,0-0.377,0.001-0.566,0C5.686,5,5.655,5.005,5.624,5.016
		c0.037-0.051,0.072-0.103,0.11-0.153C5.809,4.765,5.885,4.668,5.96,4.569C5.975,4.549,5.992,4.53,6.014,4.516
		c0.137-0.085,0.273-0.17,0.41-0.254c0.006-0.004,0.013-0.004,0.02-0.006c0.279-0.015,0.558-0.019,0.838-0.02
		c0.41-0.002,0.82-0.019,1.23-0.013c0.035,0.001,0.07-0.007,0.104-0.009c0.035-0.002,0.072-0.006,0.09,0.035
		C8.703,4.267,8.69,4.281,8.68,4.296C8.573,4.463,8.466,4.63,8.358,4.796C8.316,4.86,8.272,4.923,8.229,4.986z"/>
	<path fill="#E21CFF" d="M5.084,5.729c0.173,0,0.345,0,0.518,0.001c0.012,0,0.024,0.002,0.035-0.001
		c0.062-0.02,0.125-0.012,0.187-0.013c0.224-0.001,0.448,0,0.672,0c0.035,0,0.069,0.001,0.104-0.01
		C6.622,5.698,6.647,5.702,6.67,5.702c0.254,0,0.509,0,0.763,0c0.03,0,0.06-0.004,0.09-0.009c0.064-0.011,0.13-0.005,0.195-0.003
		c0.018,0.001,0.028,0.016,0.036,0.03C7.723,5.784,7.68,5.843,7.642,5.904c-0.018,0.03-0.039,0.058-0.058,0.087
		C7.512,6.103,7.44,6.215,7.369,6.327c-0.018,0.029-0.04,0.04-0.074,0.039C7.13,6.365,6.964,6.366,6.798,6.365
		c-0.705,0-1.41,0-2.115,0c-0.021,0-0.042,0-0.063-0.001c-0.01,0-0.015-0.012-0.009-0.02c0.032-0.043,0.063-0.087,0.096-0.129
		c0.107-0.141,0.215-0.282,0.322-0.423C5.046,5.77,5.06,5.745,5.084,5.729z"/>
	<path fill="#7F7FFF" d="M8.706,4.248C8.675,4.225,8.639,4.225,8.606,4.234c-0.035,0.01-0.069,0.01-0.104,0.01c-0.25,0-0.5,0-0.75,0
		c-0.033,0-0.065-0.001-0.097,0.01C7.634,4.261,7.609,4.258,7.586,4.258c-0.259,0-0.518,0-0.778,0c-0.03,0-0.06-0.002-0.09,0.01
		C6.706,4.273,6.691,4.272,6.677,4.272c-0.061,0-0.121,0-0.182,0c-0.019,0-0.038,0-0.051-0.017c0.042-0.037,0.092-0.063,0.139-0.092
		c0.223-0.139,0.447-0.277,0.67-0.415c0.111-0.069,0.221-0.137,0.332-0.205C7.593,3.538,7.602,3.534,7.61,3.531
		c0.037-0.014,0.075-0.024,0.115-0.023c0.447,0.009,0.894-0.024,1.341-0.014c0.039,0.001,0.08-0.008,0.114,0.021
		C9.06,3.703,8.939,3.891,8.818,4.079C8.785,4.13,8.751,4.18,8.718,4.23C8.714,4.236,8.707,4.24,8.706,4.248L8.706,4.248z"/>
	<path fill="#57A7FF" d="M9.18,3.515c-0.233,0-0.466,0.001-0.699,0.001c-0.032,0-0.064-0.001-0.097,0.009
		C8.364,3.533,8.339,3.53,8.316,3.53c-0.235,0-0.47,0-0.706,0.001c0.037-0.024,0.073-0.049,0.111-0.072
		c0.334-0.208,0.669-0.415,1.003-0.622C8.73,2.833,8.737,2.831,8.743,2.829c0.046-0.018,0.094-0.021,0.144-0.022
		C9.108,2.804,9.329,2.816,9.55,2.8c0.029-0.002,0.057,0.002,0.069,0.035c-0.023,0.054-0.06,0.1-0.09,0.149
		C9.505,3.021,9.479,3.057,9.455,3.094C9.368,3.23,9.282,3.365,9.194,3.5C9.191,3.506,9.185,3.51,9.18,3.515z"/>
	<path fill="#3CC1FF" d="M9.618,2.834C9.594,2.816,9.567,2.81,9.539,2.82C9.516,2.828,9.494,2.83,9.47,2.83
		c-0.242,0-0.485-0.001-0.727-0.001C8.77,2.806,8.798,2.785,8.833,2.773c0.001-0.005,0.005-0.007,0.01-0.007
		c0.018-0.014,0.036-0.029,0.059-0.035c0.003-0.004,0.007-0.007,0.012-0.009c0.009-0.009,0.019-0.017,0.032-0.019
		c0.001-0.005,0.005-0.008,0.01-0.008c0.018-0.014,0.036-0.03,0.06-0.034c0.002-0.005,0.005-0.007,0.01-0.008
		c0.1-0.064,0.2-0.128,0.301-0.191c0.16-0.1,0.321-0.199,0.481-0.299c0.125-0.077,0.249-0.155,0.374-0.232
		c0.007-0.004,0.014-0.014,0.027-0.004c-0.058,0.091-0.117,0.182-0.175,0.274c-0.009,0.014-0.019,0.027-0.027,0.041
		C9.911,2.389,9.817,2.537,9.722,2.683c-0.02,0.031-0.043,0.06-0.065,0.09c-0.005,0.006-0.01,0.011-0.012,0.019
		C9.646,2.797,9.644,2.8,9.64,2.802c-0.003,0.005-0.006,0.01-0.01,0.014l0-0.001C9.625,2.821,9.618,2.825,9.618,2.834L9.618,2.834z"
		/>
	<path fill="#9C62FF" d="M8.706,4.247C8.71,4.242,8.714,4.236,8.718,4.23C8.718,4.239,8.714,4.245,8.706,4.247z"/>
	<path fill="#57A7FF" d="M9.025,2.653C9.023,2.657,9.019,2.66,9.015,2.661C9.016,2.656,9.019,2.652,9.025,2.653z"/>
	<path fill="#57A7FF" d="M8.955,2.695C8.953,2.699,8.95,2.702,8.945,2.703C8.946,2.698,8.949,2.695,8.955,2.695z"/>
	<path fill="#57A7FF" d="M8.913,2.722C8.909,2.725,8.905,2.728,8.902,2.731C8.903,2.725,8.906,2.721,8.913,2.722z"/>
	<path fill="#57A7FF" d="M8.842,2.766C8.84,2.77,8.837,2.773,8.833,2.773C8.834,2.768,8.837,2.766,8.842,2.766z"/>
	<path fill="#57A7FF" d="M9.645,2.792C9.646,2.784,9.65,2.778,9.657,2.773C9.657,2.782,9.653,2.789,9.645,2.792z"/>
	<path fill="#57A7FF" d="M9.63,2.816c0.003-0.005,0.007-0.01,0.01-0.014C9.641,2.81,9.637,2.814,9.63,2.816z"/>
	<path fill="#57A7FF" d="M9.618,2.834c0-0.008,0.004-0.014,0.012-0.018C9.63,2.824,9.627,2.831,9.618,2.834z"/>
	<path fill="#666666" d="M22.012,2.173c0.022,0.012,0.039,0.021,0.055,0.03c0.197,0.126,0.393,0.252,0.59,0.377
		c0.26,0.165,0.52,0.33,0.78,0.495c0.128,0.081,0.256,0.163,0.384,0.245c0.254,0.162,0.508,0.323,0.762,0.485
		c0.156,0.099,0.311,0.198,0.467,0.297c0.189,0.12,0.379,0.24,0.568,0.36c0.132,0.084,0.264,0.168,0.396,0.252
		c0.152,0.097,0.303,0.194,0.455,0.289c0.042,0.027,0.076,0.059,0.104,0.101c0.127,0.193,0.257,0.384,0.387,0.575
		c0.115,0.17,0.23,0.34,0.345,0.51c0.093,0.137,0.186,0.274,0.279,0.411c0.013,0.019,0.024,0.039,0.039,0.062
		c-0.024,0.011-0.045,0.007-0.064,0.007c-0.336,0-0.673,0-1.009,0c-0.57,0-1.14,0-1.71-0.001c-0.098,0-0.073,0.013-0.125-0.072
		c-0.152-0.246-0.301-0.494-0.451-0.741c-0.112-0.183-0.225-0.366-0.337-0.549c-0.115-0.187-0.23-0.374-0.344-0.561
		c-0.112-0.183-0.224-0.366-0.337-0.549c-0.129-0.208-0.258-0.416-0.387-0.625c-0.088-0.143-0.175-0.287-0.262-0.43
		c-0.101-0.165-0.203-0.33-0.304-0.495c-0.093-0.151-0.186-0.302-0.278-0.453C22.01,2.191,22.012,2.186,22.012,2.173z"/>
	<path fill="#3BC3FF" d="M23.965,8.442c0.026-0.057,0.065-0.107,0.097-0.161c0.018-0.03,0.039-0.058,0.058-0.087
		c0.091-0.141,0.181-0.283,0.271-0.424c0.015-0.023,0.033-0.044,0.05-0.066c0.012-0.008,0.025-0.012,0.04-0.011
		c0.217,0.015,0.433-0.016,0.651-0.012c0.481,0.008,0.961-0.018,1.442-0.016c0.149,0.001,0.298-0.012,0.448-0.01
		c0.036,0,0.077-0.006,0.099,0.035c-0.038,0.067-0.089,0.124-0.134,0.186c-0.014,0.019-0.029,0.036-0.043,0.055
		c-0.117,0.154-0.234,0.307-0.351,0.461c-0.004,0.005-0.01,0.009-0.015,0.014c-0.034,0.02-0.071,0.022-0.108,0.022
		c-0.446-0.002-0.892,0.011-1.338,0.018c-0.317,0.005-0.635,0.004-0.952,0.01c-0.04,0.001-0.079,0.009-0.119,0.011
		C24.028,8.469,23.991,8.476,23.965,8.442z"/>
	<path fill="#59A5FF" d="M23.965,8.442c0.046,0.007,0.092,0.009,0.138-0.004c0.022-0.006,0.046-0.005,0.069-0.005
		c0.257,0,0.514,0,0.77,0c0.035,0,0.069,0.001,0.104-0.01c0.021-0.007,0.046-0.004,0.069-0.004c0.252,0,0.504,0,0.756,0
		c0.032,0,0.065,0.002,0.097-0.01c0.015-0.006,0.032-0.004,0.048-0.004c0.187,0,0.373,0,0.56,0.001
		c-0.023,0.046-0.058,0.084-0.089,0.125c-0.094,0.125-0.189,0.248-0.284,0.372c-0.016,0.021-0.032,0.039-0.055,0.053
		c-0.102,0.062-0.202,0.125-0.303,0.187c-0.004,0.002-0.009,0.003-0.013,0.004c-0.108,0.018-0.218,0.021-0.327,0.02
		c-0.542-0.004-1.083,0.026-1.624,0.016c-0.101-0.002-0.2,0.022-0.3,0.014c-0.032-0.002-0.066,0.004-0.093-0.022
		c0.017-0.03,0.034-0.061,0.053-0.09c0.095-0.147,0.19-0.294,0.285-0.44c0.04-0.062,0.078-0.127,0.125-0.184
		C23.959,8.456,23.966,8.452,23.965,8.442L23.965,8.442z"/>
	<path fill="#13EBFF" d="M27.122,7.69c-0.021-0.012-0.044-0.014-0.068-0.014c-0.112,0.001-0.224,0-0.336,0
		c-0.012,0-0.024-0.002-0.035,0.001c-0.055,0.019-0.111,0.012-0.166,0.012c-0.233,0.001-0.467,0-0.7,0
		c-0.037,0-0.074-0.002-0.111,0.01c-0.021,0.007-0.046,0.003-0.07,0.003c-0.252,0-0.504,0-0.756,0c-0.033,0-0.065-0.002-0.097,0.01
		c-0.015,0.006-0.032,0.003-0.049,0.003c-0.058,0-0.117-0.001-0.175,0.001c-0.04,0.001-0.079-0.003-0.117-0.015
		c0.002-0.005,0.005-0.009,0.007-0.014c0.002-0.005,0.005-0.009,0.009-0.012l0.001-0.001c0.005-0.005,0.01-0.01,0.011-0.018
		c-0.001-0.005,0.001-0.009,0.006-0.011c0.003-0.005,0.006-0.009,0.01-0.013c0.021-0.049,0.054-0.092,0.083-0.137
		c0.046-0.073,0.093-0.145,0.14-0.217c0.032-0.049,0.065-0.097,0.095-0.146c0.014-0.024,0.032-0.031,0.058-0.029
		c0.016,0.001,0.033,0,0.049,0c0.486,0,0.971,0,1.457,0c0.376,0,0.752,0.001,1.128,0.002c0.016,0,0.033,0,0.049,0
		c0.01,0,0.017,0.011,0.012,0.019c-0.012,0.017-0.024,0.034-0.037,0.051c-0.112,0.147-0.223,0.293-0.335,0.439
		C27.165,7.642,27.143,7.666,27.122,7.69z"/>
	<path fill="#817DFF" d="M23.49,9.176c0.049,0,0.098,0,0.147,0c0.042,0,0.083,0.003,0.125-0.011
		c0.019-0.006,0.042-0.003,0.063-0.003c0.25,0,0.499,0,0.749,0c0.037,0,0.074,0.002,0.111-0.011
		c0.019-0.007,0.042-0.003,0.062-0.003c0.245,0,0.49,0,0.735,0c0.044,0,0.088-0.004,0.132-0.01c0.061-0.008,0.125-0.013,0.187,0.006
		c0.011,0.003,0.023,0.003,0.035,0.004c-0.068,0.044-0.136,0.089-0.205,0.132c-0.136,0.085-0.273,0.169-0.41,0.253
		c-0.202,0.125-0.403,0.251-0.605,0.376c-0.016,0.01-0.03,0.022-0.05,0.024c-0.103,0.019-0.208,0.017-0.312,0.02
		c-0.187,0.006-0.373,0.003-0.56,0.001c-0.201-0.002-0.401,0.025-0.601,0.014c-0.034-0.002-0.071,0.005-0.1-0.021
		c0.023-0.051,0.06-0.094,0.089-0.141c0.095-0.149,0.19-0.298,0.286-0.446C23.406,9.298,23.449,9.237,23.49,9.176z"/>
	<path fill="#A35BFF" d="M22.991,9.947c0.123,0,0.247-0.001,0.37-0.001c0.028,0,0.055,0,0.083-0.009
		c0.022-0.006,0.046-0.005,0.069-0.005c0.256,0,0.512,0,0.769,0c0.03,0,0.06-0.002,0.09-0.009c0.04-0.009,0.084-0.01,0.124,0.001
		c0.023,0.006,0.046,0.008,0.069,0.009c-0.038,0.035-0.084,0.058-0.127,0.085c-0.216,0.135-0.432,0.268-0.648,0.402
		c-0.069,0.043-0.138,0.086-0.208,0.129c-0.018,0.011-0.037,0.019-0.056,0.028c-0.009,0.004-0.017,0.007-0.027,0.007
		c-0.294,0-0.587,0.022-0.88,0.015c-0.014,0-0.028-0.001-0.04-0.01c0.029-0.064,0.071-0.119,0.108-0.178
		c0.038-0.061,0.078-0.12,0.117-0.18C22.866,10.136,22.928,10.042,22.991,9.947z"/>
	<path fill="#BD41FF" d="M22.579,10.589c0.026-0.013,0.054-0.013,0.082-0.013c0.147,0,0.294,0,0.441,0c0.03,0,0.06,0.002,0.09-0.009
		c0.012-0.005,0.028-0.004,0.041-0.004c0.07,0,0.14,0.001,0.21-0.001c0.029-0.001,0.054,0.014,0.082,0.015
		c-0.034,0.033-0.076,0.053-0.115,0.078c-0.22,0.137-0.44,0.273-0.66,0.41c-0.236,0.146-0.472,0.293-0.708,0.438
		c-0.025,0.015-0.047,0.038-0.08,0.039l0.001,0.001c0.003-0.029,0.024-0.05,0.038-0.073c0.073-0.113,0.148-0.226,0.221-0.339
		c0.095-0.147,0.189-0.294,0.283-0.441c0.01-0.015,0.017-0.033,0.034-0.043c0.004-0.005,0.008-0.01,0.012-0.015l0,0.001
		c0.009-0.006,0.006-0.02,0.016-0.026l0.001-0.001C22.571,10.599,22.578,10.595,22.579,10.589L22.579,10.589z"/>
	<path fill="#A35BFF" d="M22.568,10.606c-0.001,0.011-0.004,0.021-0.016,0.026C22.552,10.621,22.558,10.612,22.568,10.606z"/>
	<path fill="#3BC3FF" d="M24.486,7.635c-0.003,0.004-0.006,0.009-0.01,0.013C24.476,7.64,24.48,7.636,24.486,7.635z"/>
	<path fill="#3BC3FF" d="M24.471,7.659c0,0.008-0.004,0.014-0.011,0.018C24.459,7.668,24.463,7.662,24.471,7.659z"/>
	<path fill="#3BC3FF" d="M24.459,7.678c-0.003,0.004-0.006,0.008-0.009,0.012C24.449,7.683,24.453,7.679,24.459,7.678z"/>
	<path fill="#3BC3FF" d="M23.966,8.443c-0.001,0.009-0.005,0.015-0.013,0.018C23.954,8.453,23.957,8.446,23.966,8.443z"/>
	<path fill="#A35BFF" d="M22.58,10.589c-0.004,0.005-0.008,0.011-0.011,0.016C22.568,10.597,22.572,10.591,22.58,10.589z"/>
	<path fill="#A35BFF" d="M22.552,10.632c-0.004,0.005-0.008,0.01-0.012,0.015C22.541,10.639,22.544,10.634,22.552,10.632z"/>
	<polygon fill="#BD41FF" points="21.963,11.542 21.959,11.549 21.96,11.545 21.964,11.543 	"/>
	<path d="M15.014,5.772c0.001,0.025,0.002,0.051,0.003,0.076c0.007,0.167-0.057,0.302-0.185,0.408
		c-0.007,0.006-0.013,0.013-0.02,0.019c-0.033,0.024-0.07,0.031-0.111,0.03c-0.131-0.002-0.261-0.002-0.392,0
		c-0.038,0.001-0.068-0.01-0.095-0.034c-0.021-0.018-0.043-0.035-0.065-0.053c-0.063-0.065-0.11-0.139-0.128-0.229
		c-0.024-0.122-0.018-0.241,0.043-0.354c0.003-0.006,0.005-0.013,0.008-0.019c0,0,0.001-0.001,0.001-0.001
		c0.005-0.002,0.009-0.006,0.01-0.012c0.088-0.107,0.204-0.157,0.339-0.169c0.091-0.008,0.181-0.006,0.27,0.014
		c0.043,0.009,0.082,0.03,0.124,0.043c0.009,0.007,0.018,0.014,0.028,0.02c0.064,0.042,0.11,0.099,0.138,0.169
		C14.994,5.71,15.003,5.741,15.014,5.772z"/>
	<path fill="#51ADFF" d="M14.082,5.603c0,0.007-0.004,0.01-0.01,0.012C14.075,5.612,14.078,5.607,14.082,5.603z"/>
	<path d="M13.966,7.578c-0.014-0.064-0.022-0.128-0.023-0.194c-0.001-0.087,0.022-0.165,0.069-0.238
		c0.006-0.01,0.011-0.02,0.017-0.03c0.054-0.056,0.115-0.1,0.185-0.132c0.028-0.013,0.056-0.02,0.087-0.02
		c0.139,0.001,0.279,0.001,0.418,0c0.031,0,0.059,0.006,0.087,0.019c0.067,0.03,0.125,0.071,0.172,0.127
		c0.01,0.012,0.022,0.023,0.033,0.035c0.076,0.143,0.077,0.291,0.032,0.443c-0.002,0.007-0.002,0.014-0.003,0.02
		c-0.014,0.024-0.027,0.049-0.043,0.072c-0.078,0.117-0.194,0.17-0.327,0.193c-0.111,0.019-0.222,0.019-0.334,0.001
		c-0.072-0.012-0.14-0.035-0.202-0.073c-0.064-0.038-0.109-0.094-0.141-0.16C13.985,7.62,13.976,7.598,13.966,7.578z"/>
</g>
</svg>
