<?xml version="1.0" encoding="utf-8"?>
<!-- Generator: Adobe Illustrator 24.3.0, SVG Export Plug-In . SVG Version: 6.00 Build 0)  -->
<svg version="1.1" id="Слой_1" xmlns="http://www.w3.org/2000/svg" xmlns:xlink="http://www.w3.org/1999/xlink" x="0px" y="0px"
	 width="32px" height="13px" viewBox="0 0 32 13" enable-background="new 0 0 32 13" xml:space="preserve">
<g>
	<path d="M15.922,12.3c-1.034,0-2.068,0-3.102,0c-0.087,0-0.066,0.012-0.108-0.063c-0.112-0.197-0.224-0.393-0.335-0.59
		c-0.184-0.324-0.367-0.649-0.551-0.974c-0.107-0.189-0.215-0.379-0.322-0.568c-0.188-0.332-0.376-0.664-0.564-0.996
		c-0.114-0.201-0.228-0.401-0.342-0.602c-0.189-0.334-0.378-0.668-0.568-1.001C9.882,7.247,9.735,6.989,9.588,6.73
		c-0.003-0.006-0.006-0.011-0.01-0.017C9.566,6.695,9.569,6.678,9.58,6.66c0.037-0.063,0.073-0.127,0.109-0.191
		c0.183-0.322,0.366-0.645,0.549-0.967c0.128-0.225,0.255-0.45,0.383-0.675c0.201-0.354,0.402-0.709,0.603-1.063
		c0.126-0.223,0.253-0.446,0.38-0.669c0.21-0.371,0.42-0.743,0.63-1.114c0.116-0.204,0.232-0.409,0.348-0.613
		c0.047-0.082,0.095-0.164,0.139-0.248c0.018-0.034,0.04-0.048,0.076-0.043c0.011,0.001,0.022,0,0.032,0c2.066,0,4.132,0,6.198,0
		c0.026,0,0.054-0.005,0.076,0.005c0.023,0.01,0.029,0.041,0.041,0.064c0.072,0.127,0.145,0.255,0.217,0.382
		c0.184,0.324,0.368,0.649,0.552,0.973c0.128,0.225,0.255,0.45,0.383,0.675c0.201,0.354,0.402,0.709,0.603,1.063
		c0.125,0.221,0.251,0.443,0.376,0.664c0.203,0.358,0.406,0.716,0.609,1.074c0.123,0.217,0.247,0.435,0.37,0.653
		c0.006,0.011,0.012,0.023,0.019,0.034c0.011,0.016,0.013,0.031,0.002,0.048c-0.005,0.007-0.009,0.015-0.013,0.022
		c-0.151,0.266-0.303,0.532-0.454,0.798c-0.165,0.291-0.33,0.581-0.494,0.872c-0.164,0.289-0.327,0.578-0.491,0.866
		c-0.165,0.291-0.33,0.581-0.494,0.872c-0.164,0.289-0.327,0.578-0.491,0.866c-0.165,0.291-0.33,0.581-0.494,0.872
		c-0.073,0.129-0.147,0.259-0.219,0.389c-0.013,0.024-0.029,0.035-0.056,0.032c-0.017-0.002-0.034,0-0.052,0
		C17.986,12.3,16.954,12.3,15.922,12.3z"/>
	<path d="M29.705,1.99c0.019,0.05,0.035,0.09,0.05,0.131c0.11,0.301,0.221,0.603,0.331,0.904c0.158,0.433,0.317,0.866,0.475,1.299
		c0.19,0.518,0.38,1.036,0.569,1.554c0.124,0.338,0.247,0.676,0.371,1.014c0.046,0.125,0.091,0.251,0.139,0.376
		c0.014,0.036,0.016,0.066-0.004,0.102c-0.086,0.154-0.168,0.311-0.252,0.467c-0.172,0.321-0.344,0.642-0.517,0.963
		c-0.104,0.194-0.209,0.387-0.313,0.581c-0.176,0.329-0.353,0.657-0.529,0.986c-0.111,0.207-0.223,0.414-0.334,0.621
		c-0.018,0.034-0.037,0.068-0.055,0.103c-0.008,0.015-0.018,0.023-0.035,0.025c-0.054,0.006-0.107,0.013-0.161,0.018
		c-0.144,0.015-0.288,0.028-0.432,0.044c-0.122,0.013-0.244,0.028-0.367,0.041c-0.109,0.012-0.219,0.023-0.328,0.035
		c-0.105,0.011-0.21,0.022-0.315,0.033c-0.101,0.011-0.202,0.021-0.303,0.031c-0.107,0.011-0.215,0.023-0.322,0.034
		c-0.094,0.01-0.189,0.019-0.283,0.03c-0.099,0.011-0.197,0.022-0.296,0.033c-0.103,0.011-0.206,0.022-0.309,0.033
		c-0.109,0.012-0.219,0.023-0.328,0.035c-0.099,0.01-0.198,0.02-0.296,0.03c-0.107,0.011-0.215,0.022-0.322,0.034
		c-0.139,0.015-0.279,0.03-0.418,0.045c-0.144,0.016-0.287,0.031-0.431,0.046c-0.144,0.015-0.288,0.028-0.431,0.044
		c-0.176,0.02-0.352,0.034-0.528,0.058c-0.096,0.014-0.193,0.02-0.29,0.031c-0.152,0.016-0.305,0.032-0.457,0.048
		c-0.101,0.01-0.202,0.02-0.303,0.031c-0.146,0.015-0.292,0.031-0.438,0.046c-0.139,0.015-0.279,0.03-0.418,0.045
		c-0.144,0.016-0.287,0.031-0.431,0.046c-0.133,0.014-0.266,0.028-0.399,0.041c-0.028,0.003-0.057,0.004-0.084,0.001
		c-0.063-0.009-0.115-0.04-0.147-0.095c-0.018-0.03-0.042-0.055-0.066-0.078c-0.039-0.038-0.079-0.074-0.116-0.113
		c-0.03-0.031-0.04-0.027-0.002-0.065c0.043-0.045,0.085-0.091,0.128-0.137c0.086-0.091,0.172-0.181,0.258-0.272
		c0.175-0.185,0.35-0.37,0.524-0.555c0.104-0.11,0.207-0.22,0.31-0.33c0.169-0.179,0.337-0.358,0.506-0.537
		c0.105-0.111,0.21-0.223,0.315-0.335c0.169-0.179,0.338-0.358,0.506-0.537c0.105-0.111,0.21-0.223,0.315-0.335
		c0.167-0.177,0.335-0.355,0.502-0.532c0.107-0.113,0.213-0.226,0.319-0.339c0.167-0.177,0.335-0.355,0.502-0.532
		c0.16-0.17,0.319-0.339,0.479-0.509c0.167-0.177,0.334-0.355,0.502-0.532c0.105-0.111,0.21-0.223,0.315-0.334
		c0.167-0.177,0.334-0.355,0.501-0.532c0.108-0.115,0.216-0.229,0.324-0.344c0.166-0.176,0.331-0.352,0.497-0.528
		c0.105-0.111,0.21-0.223,0.315-0.334c0.167-0.177,0.334-0.355,0.501-0.532c0.106-0.113,0.213-0.226,0.32-0.339
		c0.167-0.177,0.334-0.355,0.502-0.532c0.109-0.116,0.219-0.232,0.328-0.348c0.106-0.113,0.213-0.226,0.319-0.34
		C29.679,2.019,29.689,2.008,29.705,1.99z"/>
	<path d="M2.155,2.028C2.174,2.03,2.181,2.042,2.19,2.051c0.152,0.162,0.305,0.324,0.457,0.485C2.704,2.598,2.762,2.659,2.82,2.72
		c0.148,0.157,0.297,0.313,0.445,0.47c0.164,0.174,0.329,0.348,0.493,0.523C3.92,3.886,4.083,4.058,4.246,4.231
		C4.413,4.409,4.58,4.586,4.747,4.763c0.104,0.11,0.207,0.22,0.31,0.33C5.226,5.272,5.395,5.451,5.564,5.63
		c0.105,0.111,0.21,0.223,0.315,0.335c0.169,0.179,0.337,0.358,0.506,0.537c0.104,0.11,0.207,0.22,0.311,0.33
		C6.864,7.01,7.032,7.189,7.201,7.368C7.3,7.473,7.399,7.579,7.498,7.684c0.175,0.185,0.349,0.37,0.524,0.556
		c0.104,0.11,0.207,0.22,0.311,0.33c0.18,0.192,0.36,0.384,0.54,0.576C8.93,9.207,8.988,9.268,9.046,9.329
		C9.191,9.483,9.336,9.636,9.482,9.79c0.169,0.179,0.338,0.358,0.506,0.537c0.104,0.11,0.207,0.22,0.31,0.33
		c0.169,0.179,0.337,0.358,0.506,0.537c0.104,0.11,0.207,0.22,0.31,0.33c0.059,0.063,0.119,0.125,0.178,0.188
		c0.007,0.008,0.013,0.016,0.021,0.026c-0.03,0.03-0.059,0.059-0.088,0.088c-0.047,0.047-0.096,0.092-0.135,0.148
		c-0.04,0.058-0.101,0.087-0.173,0.083c-0.073-0.004-0.146-0.012-0.219-0.02c-0.103-0.01-0.206-0.022-0.309-0.033
		c-0.152-0.016-0.305-0.032-0.457-0.048c-0.092-0.01-0.185-0.019-0.277-0.029c-0.099-0.011-0.197-0.022-0.296-0.033
		c-0.103-0.011-0.206-0.022-0.309-0.033c-0.109-0.012-0.219-0.023-0.328-0.034c-0.097-0.01-0.193-0.02-0.29-0.03
		c-0.112-0.012-0.223-0.023-0.335-0.035c-0.039-0.004-0.077-0.007-0.116-0.012c-0.139-0.015-0.279-0.031-0.418-0.046
		c-0.144-0.016-0.287-0.031-0.431-0.046c-0.099-0.01-0.197-0.02-0.296-0.03c-0.148-0.015-0.296-0.031-0.444-0.047
		c-0.139-0.015-0.279-0.031-0.418-0.046c-0.144-0.016-0.287-0.031-0.431-0.046c-0.144-0.015-0.288-0.029-0.431-0.044
		c-0.146-0.015-0.292-0.031-0.438-0.047c-0.178-0.019-0.356-0.038-0.534-0.057c-0.144-0.015-0.287-0.031-0.431-0.046
		c-0.144-0.015-0.288-0.029-0.431-0.044c-0.131-0.014-0.262-0.03-0.392-0.044c-0.101-0.011-0.202-0.021-0.303-0.032
		c-0.099-0.01-0.197-0.021-0.296-0.029c-0.035-0.003-0.053-0.019-0.069-0.048c-0.1-0.189-0.201-0.376-0.302-0.564
		c-0.087-0.161-0.173-0.323-0.26-0.484C1.431,9.633,1.207,9.218,0.984,8.802C0.87,8.589,0.756,8.376,0.641,8.164
		c-0.135-0.251-0.27-0.501-0.404-0.752C0.204,7.351,0.205,7.351,0.228,7.286c0.148-0.405,0.296-0.809,0.445-1.214
		C0.837,5.625,1,5.178,1.164,4.731c0.173-0.473,0.347-0.947,0.52-1.42c0.151-0.413,0.302-0.825,0.454-1.238
		C2.143,2.059,2.149,2.045,2.155,2.028z"/>
	<path d="M9.234,8.635c-0.08-0.088-0.156-0.171-0.232-0.254C8.811,8.173,8.62,7.965,8.429,7.757
		C8.327,7.645,8.226,7.534,8.124,7.422C7.908,7.187,7.693,6.951,7.477,6.715c-0.103-0.113-0.207-0.226-0.31-0.339
		c-0.16-0.175-0.32-0.35-0.48-0.525C6.53,5.679,6.373,5.507,6.215,5.335c-0.162-0.177-0.323-0.353-0.485-0.53
		c-0.103-0.113-0.207-0.226-0.31-0.339c-0.162-0.177-0.323-0.353-0.485-0.53C4.78,3.765,4.625,3.595,4.469,3.424
		C4.253,3.189,4.038,2.953,3.822,2.718c-0.103-0.113-0.207-0.226-0.31-0.339c-0.16-0.175-0.32-0.35-0.48-0.525
		C2.875,1.681,2.718,1.509,2.561,1.337C2.548,1.323,2.533,1.31,2.525,1.292c0.005-0.014,0.018-0.009,0.027-0.009
		c0.017-0.001,0.035,0,0.052,0c3.053,0,6.105,0,9.158,0c0.029,0,0.058,0,0.087,0.004c-0.063,0.029-0.13,0.043-0.196,0.06
		c-0.154,0.04-0.31,0.076-0.463,0.119c-0.22,0.062-0.442,0.115-0.663,0.174c-0.223,0.059-0.447,0.114-0.669,0.175
		C9.641,1.875,9.42,1.926,9.202,1.987C8.984,2.047,8.764,2.1,8.546,2.158c-0.225,0.06-0.451,0.115-0.675,0.177
		C7.646,2.397,7.42,2.452,7.195,2.512C7.074,2.544,6.954,2.576,6.833,2.608C6.82,2.611,6.808,2.616,6.793,2.621
		C6.806,2.656,6.818,2.69,6.831,2.723c0.133,0.325,0.266,0.65,0.399,0.975c0.191,0.469,0.382,0.938,0.574,1.407
		c0.14,0.343,0.28,0.686,0.42,1.029c0.19,0.467,0.381,0.934,0.571,1.401C8.936,7.88,9.076,8.225,9.217,8.57
		C9.224,8.588,9.235,8.605,9.234,8.635z"/>
	<path d="M22.64,8.606c-0.011-0.017-0.006-0.032,0.001-0.049c0.022-0.052,0.042-0.104,0.063-0.156
		c0.157-0.383,0.313-0.766,0.47-1.149c0.191-0.467,0.381-0.934,0.571-1.401c0.119-0.291,0.237-0.583,0.356-0.874
		c0.202-0.495,0.403-0.99,0.605-1.485c0.117-0.287,0.234-0.575,0.351-0.862c0.005-0.012,0.013-0.022,0.009-0.04
		c-0.062-0.017-0.127-0.034-0.191-0.051C24.65,2.482,24.424,2.426,24.2,2.364c-0.224-0.062-0.451-0.115-0.675-0.177
		c-0.218-0.06-0.439-0.111-0.657-0.172c-0.22-0.061-0.442-0.115-0.663-0.174c-0.223-0.059-0.447-0.113-0.669-0.175
		c-0.222-0.062-0.446-0.116-0.669-0.175c-0.219-0.058-0.438-0.114-0.657-0.172c-0.064-0.017-0.128-0.036-0.191-0.054
		c-0.001-0.003-0.001-0.005-0.002-0.007c0.002,0,0.004-0.001,0.006-0.001c3.096-0.001,6.192-0.001,9.288-0.001
		c0.008,0,0.016,0.001,0.029,0.002C29.335,1.278,29.32,1.287,29.31,1.3c-0.009,0.012-0.019,0.024-0.029,0.035
		c-0.082,0.089-0.164,0.178-0.246,0.267c-0.169,0.184-0.338,0.369-0.507,0.554c-0.102,0.111-0.204,0.223-0.306,0.334
		c-0.215,0.236-0.431,0.471-0.646,0.707c-0.103,0.113-0.207,0.226-0.31,0.339c-0.162,0.177-0.323,0.353-0.485,0.53
		c-0.156,0.17-0.312,0.341-0.467,0.511c-0.162,0.177-0.323,0.353-0.485,0.53c-0.157,0.172-0.314,0.344-0.472,0.516
		c-0.16,0.175-0.32,0.35-0.48,0.525c-0.105,0.115-0.21,0.229-0.314,0.344c-0.16,0.175-0.32,0.35-0.48,0.525
		c-0.159,0.174-0.317,0.347-0.476,0.521c-0.156,0.17-0.312,0.341-0.467,0.511c-0.163,0.178-0.326,0.357-0.489,0.535
		C22.645,8.59,22.638,8.596,22.64,8.606c-0.002-0.003-0.004-0.005-0.006-0.008C22.636,8.6,22.638,8.603,22.64,8.606z"/>
	<path d="M8.973,6.128C8.956,6.09,8.94,6.055,8.926,6.02c-0.09-0.215-0.18-0.429-0.27-0.644c-0.183-0.437-0.366-0.874-0.55-1.311
		c-0.11-0.262-0.221-0.524-0.331-0.786C7.736,3.189,7.699,3.1,7.662,3.01C7.654,2.989,7.656,2.984,7.678,2.978
		c0.115-0.03,0.229-0.06,0.344-0.09c0.229-0.061,0.459-0.119,0.687-0.183c0.207-0.058,0.417-0.11,0.625-0.166
		c0.22-0.06,0.441-0.118,0.662-0.177c0.214-0.057,0.429-0.115,0.643-0.172c0.221-0.059,0.442-0.117,0.662-0.176
		c0.079-0.021,0.158-0.043,0.237-0.065c0.008-0.002,0.016-0.005,0.027,0c-0.014,0.024-0.027,0.049-0.041,0.072
		c-0.118,0.191-0.237,0.381-0.355,0.572c-0.205,0.332-0.41,0.664-0.616,0.996c-0.119,0.192-0.239,0.385-0.358,0.577
		C9.993,4.494,9.79,4.822,9.587,5.151C9.516,5.266,9.444,5.382,9.373,5.497C9.253,5.69,9.134,5.882,9.014,6.074
		C9.004,6.092,8.995,6.113,8.973,6.128z"/>
	<path d="M24.206,2.959c-0.014,0.052-1.243,2.991-1.304,3.12c-0.003,0.007-0.009,0.013-0.016,0.023
		c-0.016-0.024-0.031-0.046-0.044-0.067c-0.182-0.293-0.363-0.587-0.545-0.88c-0.141-0.227-0.281-0.455-0.422-0.682
		c-0.218-0.352-0.436-0.704-0.654-1.056c-0.14-0.225-0.279-0.451-0.418-0.677c-0.163-0.264-0.326-0.528-0.49-0.792
		c-0.004-0.007-0.008-0.015-0.012-0.022c0.01-0.013,0.02-0.005,0.029-0.002c0.302,0.08,0.605,0.157,0.906,0.24
		c0.212,0.058,0.426,0.11,0.637,0.169c0.224,0.063,0.45,0.117,0.674,0.18c0.212,0.06,0.426,0.11,0.637,0.17
		c0.212,0.06,0.425,0.112,0.637,0.169c0.121,0.032,0.241,0.066,0.361,0.099C24.191,2.953,24.199,2.956,24.206,2.959z"/>
	<path d="M22.64,8.606C22.637,8.6,22.633,8.6,22.63,8.605C22.634,8.597,22.636,8.608,22.64,8.606
		C22.64,8.606,22.64,8.606,22.64,8.606z"/>
	<path fill="#666666" d="M17.808,9.569c0.32,0.229,0.635,0.455,0.952,0.683c0.031-0.033,0.04-0.075,0.066-0.109
		c0.016,0.009,0.019,0.023,0.024,0.036c0.069,0.174,0.138,0.349,0.207,0.523c0.002,0.004,0.003,0.008,0.004,0.012
		c0.012,0.03,0.035,0.059,0.03,0.09c-0.005,0.03-0.026,0.059-0.042,0.087c-0.117,0.206-0.235,0.412-0.352,0.618
		c-0.013,0.022-0.025,0.045-0.036,0.069c-0.011,0.024-0.027,0.037-0.055,0.035c-0.013-0.001-0.026,0-0.039,0
		c-1.787,0-3.575,0-5.362,0c-0.067,0-0.066,0.011-0.105-0.061c-0.08-0.145-0.163-0.289-0.245-0.434
		c-0.051-0.09-0.102-0.18-0.153-0.27c-0.068-0.12-0.137-0.24-0.204-0.36c-0.047-0.083-0.048-0.063,0.012-0.13
		c0.145-0.166,0.288-0.333,0.433-0.498c0.018-0.021,0.03-0.048,0.056-0.062c0.017,0.005,0.02,0.021,0.028,0.033
		c0.013,0.022,0.025,0.045,0.038,0.067c0.008,0.014,0.019,0.016,0.033,0.008c0.038-0.021,0.076-0.042,0.113-0.063
		c0.071-0.04,0.142-0.082,0.213-0.122c0.124-0.07,0.248-0.139,0.372-0.209c0.039-0.022,0.078-0.045,0.112-0.065
		c0.014-0.001,0.018,0.004,0.021,0.01c0.084,0.187,0.167,0.374,0.251,0.561c0.064,0.142,0.128,0.283,0.191,0.424
		c0.052,0.116,0.103,0.233,0.156,0.348c0.033,0.072,0.017,0.062,0.101,0.062c0.246-0.001,0.492,0.002,0.738-0.005
		c0.408-0.012,0.816-0.003,1.224-0.013c0.173-0.004,0.345-0.006,0.518-0.007c0.032,0,0.051-0.01,0.066-0.039
		c0.074-0.146,0.151-0.291,0.226-0.436c0.073-0.139,0.147-0.279,0.219-0.418c0.05-0.096,0.099-0.192,0.148-0.287
		C17.777,9.622,17.791,9.6,17.808,9.569z"/>
	<path fill="#EE2B23" d="M11.891,5.581c-0.019,0.034-0.037,0.068-0.057,0.101c-0.163,0.269-0.327,0.538-0.491,0.807
		c-0.015,0.024-0.028,0.049-0.043,0.072c-0.014,0.02-0.014,0.038-0.001,0.059c0.037,0.061,0.071,0.123,0.107,0.185
		c0.115,0.2,0.23,0.4,0.345,0.6c0.077,0.135,0.156,0.269,0.233,0.403c0.131,0.228,0.263,0.456,0.394,0.684
		c0.185,0.321,0.371,0.642,0.556,0.964c0.019,0.034,0.038,0.068,0.058,0.101c0.009,0.015,0.007,0.027-0.005,0.04
		c-0.023,0.026-0.044,0.053-0.067,0.079c-0.136,0.156-0.272,0.313-0.407,0.469c-0.035,0.041-0.07,0.082-0.106,0.122
		c-0.017,0.019-0.025,0.018-0.038-0.006c-0.046-0.08-0.093-0.161-0.138-0.241c-0.083-0.146-0.165-0.293-0.248-0.439
		c-0.125-0.221-0.251-0.443-0.376-0.664c-0.182-0.321-0.364-0.641-0.546-0.962c-0.152-0.268-0.304-0.537-0.456-0.805
		c-0.079-0.139-0.157-0.278-0.237-0.416c-0.017-0.03-0.019-0.053-0.002-0.083c0.081-0.14,0.161-0.281,0.24-0.421
		c0.109-0.193,0.218-0.387,0.328-0.58c0.089-0.158,0.179-0.315,0.269-0.472c0.183-0.323,0.365-0.645,0.548-0.968
		c0.011-0.019,0.018-0.039,0.035-0.054c0.036-0.001,0.039,0.027,0.045,0.052c0.007,0.03,0.004,0.06,0.004,0.09
		c0,0.406,0.001,0.811-0.001,1.217C11.834,5.558,11.844,5.582,11.891,5.581z"/>
	<path fill="#F46C20" d="M18.835,3.851c-0.033-0.04-0.055-0.087-0.082-0.131c-0.042-0.071-0.029-0.059-0.1-0.042
		c-0.306,0.074-0.611,0.149-0.917,0.225c-0.086,0.021-0.171,0.044-0.257,0.065c-0.04,0.01-0.041,0.009-0.044-0.029
		c-0.007-0.107-0.015-0.215-0.021-0.322c-0.011-0.187-0.021-0.374-0.032-0.562c-0.007-0.125-0.016-0.249-0.023-0.374
		c-0.001-0.013,0-0.026,0-0.039c-0.004-0.005-0.008-0.009-0.014-0.013c-0.196,0.001-0.392,0.002-0.588,0.003
		c-0.006,0-0.013-0.002-0.019-0.002c-0.022-0.025-0.021-0.056-0.021-0.086c0-0.228-0.001-0.457,0-0.685
		c0-0.086,0.006-0.091,0.092-0.091c0.615,0,1.229,0,1.844,0c0.021,0,0.043-0.005,0.064,0.005c0.009,0.012,0.019,0.023,0.026,0.036
		c0.032,0.056,0.064,0.112,0.095,0.168c0.005,0.009,0.008,0.02,0.012,0.029c-0.026,0.039-0.032,0.083-0.032,0.13
		c0.001,0.481,0.001,0.962,0,1.444c0,0.063,0.013,0.124,0.026,0.185C18.85,3.794,18.862,3.825,18.835,3.851z"/>
	<path fill="#F6861F" d="M20.274,7.132c-0.001-0.005,0.001-0.008,0.005-0.011c0.003-0.005,0.005-0.009,0.009-0.014
		c0.002-0.004,0.003-0.008,0.005-0.012c0.002-0.005,0.005-0.009,0.008-0.013l0,0c0.009-0.006,0.006-0.019,0.013-0.026l0,0
		c0.008-0.007,0.006-0.019,0.012-0.027l0,0c0.009-0.006,0.006-0.018,0.014-0.026l0,0c0.008-0.006,0.006-0.019,0.013-0.025l0-0.001
		c0.008-0.007,0.005-0.019,0.013-0.025l0-0.001c0.005-0.005,0.01-0.011,0.01-0.019c0.023-0.063,0.058-0.119,0.088-0.178
		c0.007-0.013,0.013-0.027,0.021-0.04c0.013-0.021,0.012-0.039-0.001-0.059c-0.039-0.064-0.076-0.129-0.115-0.194
		c-0.042-0.072-0.085-0.144-0.127-0.216c-0.003-0.005-0.004-0.012-0.006-0.018c-0.003-0.005-0.007-0.009-0.009-0.014
		c-0.004-0.002-0.005-0.005-0.004-0.009c-0.002-0.007-0.006-0.012-0.011-0.017l0-0.001c-0.008-0.006-0.006-0.018-0.013-0.025l0,0
		c-0.008-0.007-0.005-0.019-0.015-0.025l0.001,0.001c-0.003-0.005-0.006-0.009-0.009-0.014c-0.004-0.002-0.005-0.004-0.004-0.008
		c-0.001-0.008-0.006-0.013-0.011-0.018l0,0c-0.008-0.006-0.005-0.019-0.015-0.025l0.001,0.001
		c-0.003-0.005-0.006-0.009-0.009-0.014c-0.004-0.002-0.005-0.005-0.005-0.009c-0.034-0.093-0.032-0.19-0.032-0.287
		c0.001-0.436,0-0.872,0-1.308c0-0.028-0.002-0.056,0.003-0.084c0.006-0.031,0.014-0.06,0.055-0.06
		c0.003,0.001,0.005,0.004,0.003,0.007c0,0.008,0.005,0.013,0.011,0.019l0,0c0.004,0.003,0.007,0.007,0.009,0.012
		c0.002,0.004,0.003,0.008,0.005,0.012c0.003,0.005,0.006,0.01,0.009,0.015c0.004,0.002,0.005,0.005,0.004,0.009
		c0.001,0.007,0.006,0.012,0.01,0.017l0.001,0.001c0.009,0.006,0.006,0.018,0.014,0.024l0,0c0.007,0.007,0.005,0.019,0.013,0.026
		l0,0c0.004,0.004,0.007,0.008,0.009,0.013c0.004,0.003,0.006,0.006,0.005,0.011c0.003,0.005,0.006,0.01,0.009,0.015
		c0.012,0.018,0.024,0.036,0.035,0.054c0.17,0.3,0.34,0.6,0.51,0.9c0.182,0.321,0.363,0.641,0.545,0.962
		c0.045,0.079,0.088,0.158,0.135,0.236c0.019,0.031,0.022,0.055,0.002,0.088c-0.037,0.058-0.069,0.119-0.103,0.179
		c-0.118,0.208-0.237,0.416-0.355,0.624c-0.165,0.291-0.33,0.581-0.494,0.872c-0.027,0.047-0.05,0.096-0.082,0.139
		c-0.002,0.005-0.005,0.009-0.009,0.013l0,0c-0.009,0.006-0.006,0.019-0.014,0.025l0,0.001c-0.005,0.005-0.01,0.011-0.011,0.018
		c0.001,0.004,0,0.006-0.003,0.008c-0.004,0.005-0.009,0.01-0.01,0.017c0.001,0.004-0.001,0.007-0.004,0.009
		c-0.003,0.005-0.006,0.01-0.009,0.015c0.001,0.005-0.001,0.008-0.005,0.011c-0.002,0.005-0.005,0.009-0.009,0.012l0,0
		c-0.006,0.005-0.011,0.011-0.011,0.019c0.001,0.003,0,0.006-0.003,0.007c-0.004,0.005-0.009,0.01-0.01,0.017
		c0.001,0.004-0.001,0.007-0.004,0.009c-0.003,0.005-0.006,0.009-0.009,0.014l0.001-0.001c-0.009,0.006-0.007,0.018-0.014,0.025l0,0
		c-0.007,0.007-0.005,0.019-0.013,0.025l0,0c-0.005,0.005-0.01,0.011-0.011,0.019c0.001,0.004,0,0.006-0.004,0.008
		c-0.004,0.005-0.008,0.01-0.01,0.016c0.001,0.004-0.001,0.008-0.005,0.01c-0.003,0.005-0.006,0.009-0.009,0.013l0-0.001
		c-0.009,0.006-0.006,0.019-0.014,0.025l0,0.001c-0.005,0.005-0.01,0.011-0.011,0.018c0.001,0.004,0,0.006-0.004,0.008
		c-0.022,0.012-0.033,0.033-0.042,0.056C20.2,8.978,20.189,8.99,20.172,8.99c-0.021,0-0.029-0.016-0.036-0.032
		c-0.009-0.02-0.01-0.042-0.01-0.063c-0.001-0.472,0-0.945-0.001-1.417c0-0.024,0.006-0.047,0.008-0.071l0-0.001
		c0.007-0.007,0.005-0.019,0.012-0.026l0,0c0.008-0.007,0.005-0.019,0.013-0.025l0-0.001c0.008-0.007,0.005-0.019,0.013-0.025
		l0-0.001c0.005-0.005,0.01-0.011,0.01-0.019c-0.001-0.004,0-0.006,0.003-0.008c0.004-0.005,0.009-0.01,0.01-0.017
		c-0.001-0.004,0-0.007,0.004-0.009c0.004-0.005,0.008-0.01,0.009-0.016c-0.001-0.004,0-0.007,0.004-0.01
		c0.003-0.005,0.008-0.01,0.009-0.016c-0.001-0.004,0-0.008,0.004-0.01c0.003-0.005,0.008-0.01,0.009-0.017
		c-0.001-0.004,0-0.007,0.004-0.009c0.003-0.005,0.008-0.01,0.009-0.016c-0.001-0.004,0.001-0.008,0.004-0.01
		c0.003-0.005,0.006-0.01,0.009-0.015c-0.001-0.004,0.001-0.008,0.004-0.011C20.269,7.142,20.271,7.137,20.274,7.132z"/>
	<path fill="#F04322" d="M13.004,2.006c0.011-0.036,0.033-0.065,0.051-0.097C13.077,1.869,13.1,1.83,13.122,1.79
		c0.01-0.019,0.025-0.028,0.047-0.026c0.013,0.001,0.026,0,0.039,0c1.115,0,2.231,0,3.346,0c0.021,0,0.043,0.002,0.064,0.003
		c-0.028,0.04-0.07,0.027-0.107,0.027c-0.468,0.001-0.937,0.001-1.405,0.001c-0.123,0-0.246-0.001-0.369,0
		c-0.068,0.001-0.076,0.008-0.076,0.074c-0.001,0.209-0.001,0.419,0,0.628c0,0.066,0.014,0.082,0.081,0.093
		c0.068,0.011,0.137,0.018,0.206,0.018c0.505-0.001,1.01-0.001,1.515,0c0.038,0,0.079-0.01,0.11,0.022
		c-0.021,0.009-0.042,0.006-0.064,0.006c-0.46,0.002-0.92,0.003-1.379,0.005c-0.164,0.001-0.328,0.001-0.492,0.002
		c-0.013,0-0.026,0-0.039,0c-0.015,0-0.024,0.007-0.026,0.023c-0.003,0.034-0.007,0.069-0.01,0.103
		c-0.015,0.183-0.029,0.365-0.044,0.548c-0.013,0.155-0.026,0.309-0.039,0.464c-0.004,0.049-0.01,0.098-0.015,0.146
		c-0.016,0.007-0.027-0.001-0.039-0.005c-0.139-0.052-0.279-0.104-0.418-0.157c-0.164-0.061-0.327-0.122-0.491-0.184
		c-0.097-0.036-0.193-0.075-0.29-0.11c-0.038-0.014-0.038-0.024-0.067,0.021c-0.025,0.04-0.044,0.084-0.076,0.12
		c-0.044,0.041-0.062,0.037-0.079-0.016C12.999,3.569,13,3.541,13,3.513c0-0.475,0-0.949-0.001-1.424
		C12.999,2.061,13.009,2.034,13.004,2.006z"/>
	<path fill="#F57C1F" d="M20.157,4.312c-0.027,0.015-0.04,0.037-0.037,0.069c0.001,0.015,0,0.03,0,0.045c0,0.47,0,0.94,0,1.41
		c0,0.056-0.002,0.112,0.018,0.166c0.007,0.019,0,0.033-0.007,0.049c-0.009-0.012-0.019-0.024-0.026-0.036
		c-0.096-0.163-0.193-0.327-0.289-0.49c-0.15-0.255-0.299-0.509-0.449-0.764c-0.081-0.138-0.162-0.275-0.243-0.412
		c-0.091-0.154-0.182-0.308-0.272-0.463c-0.006-0.011-0.011-0.023-0.016-0.035c0.002-0.017,0.002-0.034-0.002-0.051
		c-0.011-0.044-0.022-0.087-0.031-0.131c-0.004-0.019-0.004-0.038-0.004-0.058c0-0.504,0-1.008,0-1.512c0-0.019,0-0.039,0.004-0.058
		c0.005-0.024,0.021-0.036,0.047-0.034c0.022,0.037,0.046,0.073,0.067,0.11c0.148,0.261,0.295,0.522,0.443,0.782
		c0.119,0.21,0.239,0.42,0.358,0.63c0.142,0.251,0.284,0.503,0.426,0.754C20.149,4.292,20.153,4.302,20.157,4.312z"/>
	<path fill="#F57C1F" d="M15.002,4.893c0.045,0.007,0.086,0.028,0.126,0.048c0.16,0.082,0.293,0.197,0.396,0.345
		c0.076,0.108,0.134,0.226,0.178,0.351c0.062,0.178,0.099,0.361,0.119,0.548c0.02,0.185,0.027,0.37,0.021,0.555
		c-0.007,0.231-0.03,0.46-0.087,0.685c-0.044,0.17-0.105,0.333-0.201,0.481c-0.063,0.099-0.138,0.187-0.229,0.261
		c-0.094,0.076-0.197,0.139-0.313,0.179c-0.01,0.004-0.021,0.005-0.031,0.007c-0.027,0.012-0.04-0.005-0.05-0.026
		c-0.01-0.022-0.013-0.046-0.013-0.069c-0.001-0.198-0.003-0.397,0.001-0.595c0.001-0.034-0.001-0.069,0.018-0.101
		c0.002-0.004,0.003-0.008,0.005-0.012c0.089-0.113,0.129-0.246,0.149-0.385c0.007-0.053,0.015-0.106,0.013-0.16
		c-0.001-0.024-0.002-0.025-0.032-0.024c-0.004,0-0.009,0-0.013,0c-0.039,0.003-0.048-0.026-0.048-0.054
		C15.008,6.759,15,6.59,15.015,6.421c0.002-0.004,0.002-0.01,0.005-0.011c0.087-0.047,0.07-0.127,0.063-0.203
		C15.07,6.067,15.04,5.931,14.988,5.8c-0.008-0.02-0.014-0.041-0.011-0.063c0.01-0.247,0.001-0.493,0.005-0.74
		C14.983,4.961,14.975,4.923,15.002,4.893z"/>
	<path fill="#EF3323" d="M13.004,2.006c0.01,0.006,0.015,0.015,0.015,0.027c0,0.019,0.001,0.039,0.001,0.058
		c0,0.476,0,0.953,0,1.429c0,0.022-0.002,0.043,0.002,0.065c0.009,0.053,0.017,0.056,0.064,0.029
		c-0.037,0.063-0.073,0.127-0.111,0.189c-0.169,0.279-0.338,0.557-0.507,0.835c-0.083,0.136-0.166,0.272-0.249,0.409
		c-0.092,0.151-0.183,0.303-0.275,0.454c-0.017,0.028-0.036,0.054-0.054,0.08c-0.027,0-0.033,0.024-0.047,0.039
		c-0.004,0.004-0.012,0.007-0.017,0.005c-0.005-0.002-0.01-0.009-0.01-0.014c-0.002-0.019-0.001-0.039-0.001-0.058
		c0-0.431,0-0.861,0-1.292c0-0.015,0-0.03,0-0.045c0-0.025-0.008-0.046-0.029-0.061c0.015-0.029,0.028-0.058,0.044-0.086
		c0.152-0.268,0.305-0.536,0.457-0.804c0.165-0.291,0.33-0.581,0.495-0.872c0.06-0.105,0.119-0.21,0.178-0.315
		C12.974,2.052,12.989,2.029,13.004,2.006z"/>
	<path fill="#F25321" d="M16.574,2.63c-0.028-0.001-0.056-0.002-0.084-0.002c-0.529,0-1.057,0-1.586,0
		c-0.032,0-0.064,0.002-0.096-0.01c-0.013-0.005-0.03-0.002-0.045-0.003c-0.015-0.001-0.03-0.002-0.044-0.006
		c-0.093-0.032-0.079-0.014-0.079-0.104c-0.001-0.22,0-0.44,0-0.66c0-0.074-0.001-0.072,0.07-0.072c0.613,0,1.226,0,1.838,0
		c0.023,0,0.047,0.006,0.07-0.006c0.024-0.001,0.047-0.003,0.071-0.003c0.653,0,1.307,0,1.96,0c0.022,0,0.047-0.01,0.068,0.009
		c-0.252,0-0.505,0.001-0.757,0.001c-0.373,0-0.746,0-1.12,0c-0.013,0-0.026,0-0.039,0c-0.062,0.001-0.063,0.001-0.063,0.066
		c0,0.263,0,0.526,0,0.789C16.684,2.636,16.629,2.635,16.574,2.63z"/>
	<path fill="#F57D1F" d="M20.133,7.407c0.016,0.025,0.013,0.054,0.013,0.082c0,0.295,0,0.59,0,0.885c0,0.176,0,0.353,0,0.529
		c0,0.024-0.002,0.048,0.013,0.068c0.003,0.005,0.01,0.009,0.015,0.009c0.005,0,0.012-0.005,0.015-0.009
		c0.004-0.007,0.007-0.016,0.008-0.024c0.003-0.031,0.023-0.039,0.05-0.038c-0.011,0.023-0.022,0.047-0.034,0.069
		c-0.152,0.268-0.305,0.536-0.457,0.804c-0.173,0.306-0.346,0.612-0.519,0.918c-0.004,0.007-0.01,0.014-0.014,0.02
		c-0.015-0.002-0.017-0.013-0.021-0.023c-0.105-0.265-0.209-0.529-0.314-0.794c-0.002-0.006-0.005-0.012-0.008-0.018
		c-0.012-0.023-0.01-0.045,0.002-0.067c0.034-0.065,0.068-0.13,0.101-0.195c0.108-0.209,0.216-0.417,0.324-0.626
		c0.191-0.37,0.382-0.74,0.573-1.109c0.073-0.142,0.147-0.283,0.22-0.425C20.11,7.443,20.116,7.422,20.133,7.407z"/>
	<path fill="#F47020" d="M17.476,6.123c0.021-0.049,0.04-0.099,0.062-0.148c0.032-0.075,0.065-0.149,0.099-0.223
		c0.014-0.03,0.022-0.06,0.02-0.093c-0.002-0.03-0.001-0.06-0.001-0.09c-0.047-0.018-0.096-0.004-0.144-0.008
		c-0.023-0.002-0.047,0.008-0.067-0.01c-0.013-0.019-0.014-0.041-0.014-0.062c-0.001-0.179-0.001-0.357,0-0.536
		c0-0.026,0.002-0.052,0.02-0.073c0.015-0.001,0.03-0.003,0.045-0.003c0.147,0,0.295-0.001,0.442-0.001
		c0.015,0,0.03,0.002,0.044,0.003c0.028,0.033,0.021,0.073,0.021,0.111c0,0.476,0,0.952,0.001,1.428
		c0,0.045-0.004,0.091,0.018,0.133c-0.027,0.065-0.053,0.131-0.081,0.196c-0.124,0.283-0.248,0.567-0.373,0.85
		c-0.012,0.027-0.026,0.054-0.04,0.081c-0.007,0.007-0.004,0.019-0.012,0.026l0,0c-0.029,0.002-0.036-0.019-0.042-0.04
		c-0.004-0.015-0.004-0.03-0.004-0.045c0-0.486-0.002-0.972,0.001-1.458C17.471,6.148,17.469,6.135,17.476,6.123z"/>
	<path fill="#F15121" d="M17.476,6.123c0.012,0.035,0.014,0.071,0.014,0.108c0,0.46,0,0.92,0,1.381c0,0.019,0,0.039,0.001,0.058
		c0.001,0.017,0.01,0.028,0.025,0.035c-0.006,0.032-0.022,0.061-0.035,0.09c-0.093,0.213-0.187,0.427-0.28,0.64
		c-0.003,0.006-0.006,0.012-0.008,0.018c-0.006,0.015-0.018,0.018-0.032,0.014c-0.023-0.006-0.046-0.013-0.068-0.02
		c-0.153-0.044-0.307-0.088-0.46-0.133c-0.036-0.011-0.076-0.014-0.108-0.038c0.005-0.037,0.026-0.068,0.041-0.101
		c0.109-0.249,0.22-0.497,0.329-0.746c0.137-0.31,0.273-0.62,0.41-0.929c0.052-0.118,0.105-0.237,0.157-0.355
		C17.466,6.137,17.471,6.13,17.476,6.123z"/>
	<path fill="#F03A23" d="M13.758,5.05c0.088-0.07,0.187-0.119,0.293-0.154c0.081-0.027,0.163-0.053,0.249-0.055
		c0.028,0.025,0.022,0.059,0.022,0.09c0.001,0.154,0,0.308,0.001,0.463c0,0.036-0.001,0.073,0.014,0.107
		c0.016,0.028-0.005,0.039-0.024,0.049c-0.239,0.12-0.295,0.467-0.181,0.687c0.041,0.079,0.101,0.138,0.185,0.172
		c0.022,0.009,0.062,0.008,0.049,0.052c-0.019,0.029-0.018,0.061-0.018,0.093c0,0.146,0.001,0.291-0.001,0.437
		c0,0.047,0.004,0.086,0.059,0.097c0.009,0.002,0.013,0.011,0.012,0.02c-0.141,0.002-0.278-0.019-0.411-0.064
		c-0.077-0.026-0.153-0.056-0.223-0.1c-0.009-0.006-0.017-0.012-0.026-0.019c-0.021-0.028-0.021-0.06-0.021-0.093
		c0-0.563,0-1.126,0-1.689C13.738,5.11,13.74,5.078,13.758,5.05z"/>
	<path fill="#EE2723" d="M13.758,5.05c0,0.592,0,1.185,0,1.777c0,0.032,0,0.065,0,0.097c-0.097-0.059-0.177-0.136-0.242-0.229
		c-0.084-0.12-0.137-0.252-0.166-0.396c-0.046-0.232-0.043-0.462,0.019-0.69c0.053-0.196,0.155-0.363,0.306-0.499
		C13.701,5.087,13.726,5.063,13.758,5.05z"/>
	<path fill="#F6881F" d="M18.021,6.552c-0.026-0.002-0.039-0.017-0.039-0.042c0-0.017,0-0.034,0-0.052c0-0.5,0-1.001,0-1.501
		c0-0.026-0.001-0.052-0.001-0.078c0.019-0.001,0.039-0.003,0.058-0.003c0.093-0.001,0.185-0.002,0.278-0.002
		c0.019,0,0.039,0,0.058,0.002c0.012,0.001,0.02,0.008,0.02,0.021c0,0.015,0.001,0.03,0.001,0.045c0,0.237,0,0.474,0.001,0.71
		c0,0.038-0.007,0.071-0.023,0.106c-0.09,0.203-0.178,0.406-0.267,0.609c-0.01,0.024-0.023,0.046-0.035,0.069
		c-0.007,0.007-0.005,0.019-0.012,0.027l0,0c-0.009,0.007-0.007,0.02-0.013,0.028c0.001,0.004,0,0.008-0.004,0.011
		c-0.003,0.006-0.008,0.01-0.009,0.017c0.001,0.004,0.001,0.007-0.003,0.009C18.026,6.533,18.028,6.545,18.021,6.552L18.021,6.552z"
		/>
	<path fill="#F25521" d="M14.937,7.562c0.001,0.031,0.015,0.062,0.001,0.095c-0.004,0.009-0.001,0.021-0.001,0.032
		c0,0.187,0,0.375,0,0.562c0,0.028,0.002,0.055,0.013,0.082c0.006,0.014,0.017,0.018,0.03,0.02
		c-0.036,0.021-0.076,0.029-0.115,0.038c-0.177,0.041-0.356,0.058-0.538,0.049c-0.022-0.001-0.043-0.003-0.063-0.01
		c-0.083-0.014-0.085-0.015-0.085-0.102c-0.001-0.157-0.001-0.315,0-0.472c0-0.03-0.002-0.061,0.02-0.086
		c0.056,0.001,0.112,0.001,0.167,0.002c0.041,0,0.082,0.001,0.123-0.001c0.171-0.008,0.317-0.069,0.434-0.196
		C14.927,7.57,14.932,7.566,14.937,7.562z"/>
	<path fill="#F25B21" d="M14.342,5.516c-0.022-0.002-0.037-0.012-0.038-0.036c-0.001-0.017-0.001-0.034-0.001-0.052
		c0-0.172,0-0.345,0-0.517c0-0.024-0.001-0.047-0.002-0.071c0,0,0.001,0,0.001,0c0.016-0.009,0.036,0,0.052-0.009
		c0.197-0.028,0.391-0.015,0.583,0.036c0.023,0.006,0.047,0.009,0.066,0.024c0,0.26,0,0.52,0,0.781c0,0.028,0,0.056-0.016,0.081
		c-0.025-0.002-0.037-0.021-0.048-0.039c-0.119-0.186-0.29-0.245-0.501-0.205c-0.017,0.003-0.034,0.007-0.051,0.008
		c-0.012,0.001-0.024,0.001-0.036-0.001C14.348,5.517,14.345,5.516,14.342,5.516z"/>
	<path fill="#EF3523" d="M14.199,7.769c0,0.187,0,0.375,0,0.562c0,0.015,0,0.03,0,0.045c0,0.028,0.005,0.04,0.037,0.04
		c0.011,0,0.021,0.004,0.028,0.013c-0.078,0.003-0.155-0.009-0.232-0.018c-0.143-0.017-0.286-0.039-0.429-0.059
		c-0.047-0.007-0.093-0.017-0.14-0.024c-0.024-0.004-0.028-0.012-0.026-0.036c0.002-0.028,0.006-0.056,0.009-0.083
		c0.012-0.118,0.024-0.236,0.036-0.353c0.005-0.047,0.009-0.094,0.015-0.141c0.002-0.016,0.011-0.021,0.027-0.019
		c0.12,0.015,0.239,0.032,0.359,0.046c0.064,0.008,0.129,0.011,0.193,0.017C14.117,7.761,14.158,7.765,14.199,7.769z"/>
	<path fill="#F25D21" d="M14.419,7.107c-0.018-0.018-0.041-0.009-0.061-0.012c-0.021-0.003-0.027-0.008-0.029-0.028
		c-0.001-0.013-0.001-0.026-0.001-0.039c0-0.173,0-0.345,0-0.518c0-0.009,0-0.017,0-0.026c0.001-0.029,0.001-0.029,0.039-0.038
		c0.008-0.007,0.018-0.009,0.028-0.008c0.014,0.003,0.028,0.002,0.042,0.003c0.167,0.005,0.332-0.006,0.496-0.039
		c0.031-0.006,0.063-0.019,0.093,0.005c0,0.161,0,0.322,0.001,0.483c0,0.015,0,0.03,0,0.045c0,0.022,0.011,0.036,0.031,0.044
		c-0.003,0.003-0.006,0.006-0.01,0.008c-0.154,0.049-0.308,0.097-0.469,0.116C14.527,7.111,14.473,7.113,14.419,7.107z"/>
	<path fill="#EE2C23" d="M17.451,5.554c0.055,0,0.111,0.001,0.166,0.001c0.015,0,0.03-0.002,0.039,0.014
		c-0.028-0.001-0.056-0.003-0.084-0.003c-0.414,0-0.827,0-1.241-0.001c-0.082,0-0.078,0.007-0.078-0.076c0-0.185,0-0.37,0-0.555
		c0-0.056,0.001-0.057,0.058-0.057c0.164,0,0.327,0,0.491,0c0.013,0,0.026,0.002,0.038,0.003c0.023,0.027,0.021,0.06,0.021,0.092
		c0,0.159,0,0.318,0,0.477c0,0.081,0.004,0.084,0.083,0.085c0.138,0.001,0.275,0,0.413,0C17.391,5.535,17.424,5.531,17.451,5.554z"
		/>
	<path fill="#F14E21" d="M17.451,5.554c-0.187,0-0.374,0-0.562,0.001c-0.009,0-0.017,0-0.026-0.002
		c-0.012-0.002-0.02-0.009-0.02-0.021c-0.001-0.019-0.001-0.039-0.001-0.058c0-0.198,0-0.396-0.001-0.593
		c0.006-0.001,0.013-0.003,0.019-0.003c0.19,0,0.38-0.001,0.571-0.001c0.006,0,0.013,0.002,0.019,0.003
		C17.451,5.104,17.451,5.329,17.451,5.554z"/>
	<path fill="#441909" d="M17.072,10.695c-0.068,0-0.124,0.001-0.18,0.001c-0.034,0-0.069-0.001-0.103,0.008
		c-0.02,0.005-0.043,0.003-0.064,0.003c-0.369,0-0.738,0.001-1.107,0.001c-0.032,0-0.064-0.002-0.096,0.009
		c-0.014,0.005-0.03,0.003-0.045,0.003c-0.261,0-0.522,0.001-0.783,0.001c-0.014,0-0.029,0.004-0.044-0.007
		c0.022-0.011,0.044-0.006,0.065-0.006c0.157-0.001,0.315,0,0.472-0.001c0.028,0,0.055,0,0.083-0.008
		c0.02-0.006,0.043-0.004,0.064-0.004c0.308-0.001,0.617-0.001,0.925-0.001c0.034,0,0.069,0.003,0.102-0.009
		c0.012-0.004,0.026-0.003,0.039-0.003c0.209-0.001,0.418-0.001,0.628-0.001C17.04,10.682,17.051,10.68,17.072,10.695z"/>
	<path fill="#F03A23" d="M14.354,4.832c-0.015,0.016-0.034,0.01-0.052,0.009C14.317,4.828,14.336,4.831,14.354,4.832z"/>
	<path fill="#F57C1F" d="M20.144,6.073c0.011,0.004,0.014,0.014,0.015,0.025C20.149,6.093,20.145,6.084,20.144,6.073z"/>
	<path fill="#F57C1F" d="M20.183,6.138c0.011,0.005,0.014,0.014,0.015,0.025C20.188,6.157,20.183,6.149,20.183,6.138z"/>
	<path fill="#F57C1F" d="M20.198,6.163c0.01,0.005,0.013,0.015,0.013,0.025C20.202,6.183,20.198,6.174,20.198,6.163z"/>
	<path fill="#F47020" d="M18.06,6.462c-0.001-0.011,0.002-0.021,0.012-0.027C18.073,6.446,18.069,6.455,18.06,6.462z"/>
	<path fill="#F47020" d="M18.048,6.489c-0.001-0.012,0.001-0.022,0.013-0.028C18.061,6.473,18.057,6.482,18.048,6.489z"/>
	<path fill="#F47020" d="M18.021,6.552c-0.001-0.011,0.002-0.02,0.011-0.026C18.034,6.537,18.03,6.546,18.021,6.552z"/>
	<path fill="#F57D1F" d="M20.366,6.954c0,0.01-0.003,0.02-0.013,0.025C20.353,6.968,20.357,6.96,20.366,6.954z"/>
	<path fill="#F57D1F" d="M20.353,6.98c0,0.011-0.003,0.02-0.013,0.025C20.34,6.994,20.344,6.985,20.353,6.98z"/>
	<path fill="#F57D1F" d="M20.34,7.005c0,0.011-0.002,0.021-0.014,0.026C20.326,7.02,20.33,7.011,20.34,7.005z"/>
	<path fill="#F57D1F" d="M20.326,7.03c0.001,0.011-0.002,0.021-0.012,0.027C20.314,7.046,20.317,7.036,20.326,7.03z"/>
	<path fill="#F57D1F" d="M20.314,7.057c0,0.011-0.002,0.02-0.013,0.026C20.301,7.071,20.305,7.063,20.314,7.057z"/>
	<path fill="#F57D1F" d="M20.172,7.33c0,0.01-0.003,0.02-0.013,0.025C20.159,7.344,20.163,7.336,20.172,7.33z"/>
	<path fill="#F57D1F" d="M20.159,7.355c0,0.011-0.003,0.02-0.013,0.025C20.145,7.369,20.15,7.361,20.159,7.355z"/>
	<path fill="#F57D1F" d="M20.146,7.38c0,0.011-0.002,0.02-0.012,0.026C20.133,7.396,20.136,7.387,20.146,7.38z"/>
	<path fill="#F15121" d="M17.516,7.704c0-0.01,0.002-0.02,0.012-0.026C17.528,7.689,17.524,7.698,17.516,7.704z"/>
	<path fill="#F57D1F" d="M20.327,8.766c0-0.011,0.003-0.02,0.014-0.025C20.341,8.751,20.336,8.76,20.327,8.766z"/>
	<path fill="#F57D1F" d="M20.314,8.791c0-0.01,0.003-0.02,0.013-0.025C20.327,8.777,20.323,8.785,20.314,8.791z"/>
	<path fill="#F57D1F" d="M20.262,8.882c0.001-0.011,0.003-0.02,0.014-0.025C20.276,8.868,20.271,8.876,20.262,8.882z"/>
	<path fill="#F57C1F" d="M20.223,4.428c-0.01-0.005-0.013-0.014-0.014-0.024C20.219,4.41,20.224,4.417,20.223,4.428z"/>
	<path fill="#F57C1F" d="M20.237,4.454c-0.011-0.005-0.013-0.015-0.013-0.026C20.233,4.434,20.237,4.443,20.237,4.454z"/>
	<path fill="#F57D1F" d="M20.43,8.584c0.001-0.011,0.003-0.02,0.014-0.025C20.444,8.57,20.439,8.578,20.43,8.584z"/>
	<path fill="#F04322" d="M17.346,2.629c0.007,0.002,0.012,0.006,0.014,0.013C17.355,2.637,17.351,2.633,17.346,2.629z"/>
	<path fill="#F57C1F" d="M20.171,4.338c-0.007-0.004-0.011-0.01-0.011-0.019C20.168,4.323,20.171,4.329,20.171,4.338z"/>
	<path fill="#F57C1F" d="M20.18,4.35c-0.003-0.004-0.006-0.008-0.009-0.012C20.177,4.34,20.181,4.344,20.18,4.35z"/>
	<path fill="#F57C1F" d="M20.195,4.376c-0.003-0.005-0.006-0.01-0.009-0.015C20.192,4.364,20.195,4.369,20.195,4.376z"/>
	<path fill="#F57C1F" d="M20.209,4.403c-0.006-0.004-0.01-0.01-0.01-0.017C20.206,4.389,20.209,4.395,20.209,4.403z"/>
	<path fill="#F57C1F" d="M20.246,4.466c-0.003-0.004-0.006-0.008-0.009-0.013C20.243,4.456,20.246,4.46,20.246,4.466z"/>
	<path fill="#F57C1F" d="M20.26,4.492c-0.003-0.005-0.006-0.01-0.009-0.015C20.257,4.48,20.26,4.485,20.26,4.492z"/>
	<path fill="#F57C1F" d="M20.211,6.189c0.007,0.004,0.01,0.01,0.011,0.017C20.215,6.203,20.211,6.197,20.211,6.189z"/>
	<path fill="#F57D1F" d="M20.301,7.082c-0.003,0.004-0.006,0.008-0.008,0.013C20.292,7.088,20.295,7.084,20.301,7.082z"/>
	<path fill="#F57D1F" d="M20.288,7.107c-0.003,0.005-0.006,0.009-0.009,0.014C20.278,7.114,20.282,7.11,20.288,7.107z"/>
	<path fill="#F57D1F" d="M20.274,7.132c-0.003,0.005-0.006,0.01-0.009,0.015C20.265,7.14,20.268,7.135,20.274,7.132z"/>
	<path fill="#F57D1F" d="M20.261,7.157c-0.003,0.005-0.006,0.01-0.009,0.015C20.252,7.165,20.255,7.16,20.261,7.157z"/>
	<path fill="#F57D1F" d="M20.248,7.183c-0.003,0.005-0.006,0.011-0.009,0.016C20.238,7.191,20.242,7.186,20.248,7.183z"/>
	<path fill="#F57D1F" d="M20.235,7.208c-0.003,0.006-0.006,0.011-0.009,0.017C20.226,7.217,20.228,7.212,20.235,7.208z"/>
	<path fill="#F57D1F" d="M20.222,7.235c-0.003,0.005-0.006,0.01-0.009,0.016C20.213,7.243,20.216,7.238,20.222,7.235z"/>
	<path fill="#F57D1F" d="M20.209,7.26c-0.003,0.005-0.006,0.011-0.009,0.016C20.199,7.269,20.202,7.263,20.209,7.26z"/>
	<path fill="#F57D1F" d="M20.196,7.285c0,0.008-0.003,0.013-0.01,0.017C20.186,7.295,20.189,7.289,20.196,7.285z"/>
	<path fill="#F57D1F" d="M20.183,7.31c0,0.008-0.003,0.014-0.01,0.019C20.172,7.321,20.176,7.314,20.183,7.31z"/>
	<path fill="#F57C1F" d="M20.227,6.216c0.003,0.005,0.006,0.009,0.009,0.014C20.23,6.227,20.226,6.223,20.227,6.216z"/>
	<path fill="#F57C1F" d="M20.135,6.06c0.003,0.005,0.006,0.009,0.009,0.014C20.138,6.072,20.135,6.067,20.135,6.06z"/>
	<path fill="#F47020" d="M18.035,6.517c0.003-0.006,0.006-0.011,0.009-0.017C18.045,6.508,18.042,6.513,18.035,6.517z"/>
	<path fill="#F57C1F" d="M20.159,6.098c0.007,0.004,0.011,0.01,0.011,0.018C20.163,6.113,20.159,6.107,20.159,6.098z"/>
	<path fill="#F57D1F" d="M20.444,8.559c0.003-0.004,0.006-0.009,0.009-0.013C20.453,8.553,20.45,8.557,20.444,8.559z"/>
	<path fill="#F57D1F" d="M20.419,8.603c0-0.008,0.004-0.014,0.011-0.018C20.43,8.593,20.426,8.599,20.419,8.603z"/>
	<path fill="#F57D1F" d="M20.406,8.628c0-0.007,0.004-0.013,0.01-0.017C20.417,8.619,20.413,8.624,20.406,8.628z"/>
	<path fill="#F57D1F" d="M20.393,8.652c0.003-0.005,0.006-0.01,0.009-0.015C20.403,8.644,20.399,8.649,20.393,8.652z"/>
	<path fill="#F57D1F" d="M20.379,8.675c0.003-0.004,0.006-0.008,0.009-0.012C20.388,8.669,20.385,8.673,20.379,8.675z"/>
	<path fill="#F57D1F" d="M20.368,8.694c0-0.008,0.004-0.015,0.011-0.019C20.379,8.684,20.375,8.69,20.368,8.694z"/>
	<path fill="#F57D1F" d="M20.354,8.718c0.003-0.006,0.007-0.011,0.01-0.017C20.365,8.709,20.361,8.715,20.354,8.718z"/>
	<path fill="#F57D1F" d="M20.377,6.934c0,0.008-0.003,0.014-0.01,0.019C20.367,6.945,20.37,6.939,20.377,6.934z"/>
	<path fill="#F57D1F" d="M20.341,8.741c0.003-0.005,0.006-0.009,0.009-0.014C20.35,8.734,20.347,8.739,20.341,8.741z"/>
	<path fill="#F57D1F" d="M20.303,8.81c0-0.008,0.004-0.014,0.011-0.019C20.314,8.8,20.31,8.806,20.303,8.81z"/>
	<path fill="#F57D1F" d="M20.289,8.834c0.003-0.005,0.007-0.011,0.01-0.016C20.299,8.825,20.296,8.831,20.289,8.834z"/>
	<path fill="#F57D1F" d="M20.276,8.857c0.003-0.004,0.006-0.009,0.009-0.013C20.285,8.851,20.282,8.855,20.276,8.857z"/>
	<path fill="#F57D1F" d="M20.251,8.9c0-0.008,0.004-0.014,0.011-0.018C20.262,8.89,20.258,8.896,20.251,8.9z"/>
	<path fill="#F57C1F" d="M20.174,6.125c0.003,0.005,0.006,0.009,0.009,0.014C20.177,6.137,20.174,6.132,20.174,6.125z"/>
	<path fill="#F57E1F" d="M30.19,7.55c-0.021,0.019-0.048,0.028-0.074,0.039c-0.099,0.042-0.198,0.084-0.297,0.127
		c-0.273,0.118-0.546,0.236-0.818,0.354c-0.081,0.035-0.162,0.071-0.243,0.106c-0.02,0.008-0.038,0.02-0.06,0.022
		c-0.039-0.005-0.054-0.031-0.059-0.067c-0.003-0.026-0.003-0.052-0.003-0.077c0-1.418,0-2.836,0-4.254c0-0.028,0-0.056,0.008-0.083
		c0.005-0.007,0.009-0.015,0.015-0.021c0.139-0.147,0.278-0.294,0.417-0.441c0.142-0.15,0.283-0.301,0.425-0.452
		c0.014-0.015,0.03-0.029,0.044-0.042c0.02,0.01,0.02,0.027,0.025,0.04c0.093,0.252,0.185,0.505,0.278,0.758
		C29.929,3.78,30.01,4,30.091,4.22c0.011,0.03,0.02,0.061,0.029,0.092c-0.012,0.059-0.017,0.119-0.017,0.179
		c0,0.975,0.001,1.949-0.002,2.924C30.101,7.486,30.115,7.534,30.19,7.55z"/>
	<path fill="#F46B20" d="M28.645,3.717c0.008,0.015,0.014,0.031,0.013,0.049c-0.001,0.017,0,0.034,0,0.052c0,1.416,0,2.832,0,4.248
		c0,0.013,0,0.026,0,0.039c0,0.056,0,0.056,0.04,0.094c-0.06,0.028-0.12,0.058-0.181,0.085c-0.235,0.102-0.471,0.202-0.707,0.304
		c-0.129,0.055-0.257,0.111-0.386,0.167c-0.099,0.043-0.198,0.086-0.296,0.129c-0.012,0.005-0.024,0.008-0.036,0.012
		c-0.043,0.012-0.059-0.015-0.068-0.048c-0.008-0.029-0.006-0.06-0.006-0.09c0-1.073,0-2.147,0-3.22c0-0.039-0.001-0.078,0.02-0.113
		c0.043-0.048,0.085-0.097,0.129-0.144c0.146-0.155,0.293-0.31,0.44-0.465c0.167-0.177,0.334-0.354,0.501-0.531
		c0.161-0.171,0.322-0.342,0.483-0.512C28.609,3.754,28.62,3.729,28.645,3.717z"/>
	<path fill="#F25921" d="M27.038,5.425c0,0.028,0.001,0.056,0.001,0.084c0,1.089,0,2.178,0,3.268c0,0.017,0.001,0.035,0,0.052
		c-0.001,0.038,0.015,0.062,0.053,0.068c-0.056,0.026-0.112,0.054-0.169,0.079c-0.241,0.105-0.483,0.208-0.725,0.312
		c-0.156,0.068-0.312,0.137-0.468,0.205c-0.012,0.005-0.024,0.008-0.036,0.012c-0.008,0.007-0.02,0.004-0.028,0.012l-0.003,0.003
		l-0.004-0.001c-0.008,0-0.013,0.005-0.019,0.009l-0.004,0.003l-0.005,0c-0.006,0.001-0.011,0.006-0.016,0.009
		c-0.003,0.003-0.007,0.005-0.012,0.004c-0.008,0.007-0.02,0.004-0.027,0.012l-0.003,0.003l-0.004-0.001
		c-0.007,0-0.013,0.005-0.018,0.009c-0.004,0.001-0.008,0.003-0.012,0.004c-0.032-0.01-0.041-0.035-0.045-0.065
		c-0.003-0.024-0.003-0.047-0.003-0.071c0-0.755,0-1.509,0-2.264c0-0.041,0.002-0.082,0.019-0.12c0-0.004,0.001-0.006,0.005-0.008
		c0.003-0.004,0.006-0.008,0.01-0.012l0.001-0.001c0.004-0.004,0.008-0.009,0.012-0.012l0.001-0.001
		c0.004-0.004,0.008-0.009,0.012-0.013l0,0c0.004-0.004,0.008-0.008,0.012-0.013l0,0c0.005-0.004,0.009-0.008,0.013-0.013l0,0
		c0.005-0.004,0.009-0.008,0.013-0.013l0,0c0.005-0.004,0.01-0.008,0.013-0.013l0,0c0.006-0.003,0.01-0.008,0.013-0.014L25.612,6.94
		c0.006-0.003,0.01-0.008,0.013-0.014l-0.001,0.001c0.006-0.003,0.011-0.008,0.013-0.014l-0.001,0.001
		c0.007-0.003,0.011-0.008,0.014-0.015c0.016-0.02,0.031-0.041,0.049-0.06c0.142-0.151,0.284-0.301,0.427-0.451
		c0.114-0.121,0.228-0.241,0.342-0.362c0.158-0.168,0.316-0.336,0.475-0.504C26.974,5.489,26.999,5.45,27.038,5.425z"/>
	<path fill="#F14A22" d="M25.507,7.051c0.001,0.03,0.002,0.06,0.002,0.09c0,0.767,0,1.534,0,2.301c0,0.013,0.001,0.026,0,0.039
		c-0.004,0.034,0.005,0.064,0.027,0.09c-0.007,0.005-0.014,0.01-0.021,0.013c-0.164,0.071-0.328,0.142-0.492,0.213
		c-0.164,0.071-0.327,0.143-0.491,0.215c-0.105,0.045-0.21,0.09-0.315,0.135c-0.059,0.026-0.118,0.053-0.177,0.078
		c-0.018,0.008-0.034,0.018-0.055,0.019c-0.043,0.003-0.061-0.026-0.071-0.061c-0.007-0.023-0.006-0.047-0.006-0.071
		c0-0.429,0-0.858,0-1.287c0-0.035,0.002-0.069,0.02-0.1c0.042-0.046,0.083-0.093,0.125-0.139c0.068-0.073,0.136-0.144,0.204-0.216
		c0.191-0.202,0.382-0.404,0.573-0.606c0.163-0.173,0.325-0.345,0.488-0.518c0.05-0.053,0.1-0.107,0.151-0.16
		C25.481,7.074,25.494,7.063,25.507,7.051z"/>
	<path fill="#F57D1F" d="M29.097,8.483c0.064-0.03,0.128-0.061,0.194-0.089c0.226-0.098,0.452-0.194,0.677-0.291
		c0.135-0.058,0.269-0.117,0.403-0.175c0.186-0.081,0.371-0.163,0.557-0.244c0.026-0.011,0.051-0.021,0.077-0.032
		c0.016,0.018,0,0.03-0.006,0.041c-0.089,0.167-0.179,0.334-0.269,0.502c-0.171,0.319-0.342,0.638-0.514,0.957
		c-0.11,0.205-0.221,0.41-0.331,0.615c-0.164,0.306-0.329,0.611-0.493,0.917c-0.004,0.008-0.008,0.015-0.012,0.023
		c-0.007,0.014-0.019,0.023-0.036,0.024c-0.073,0.002-0.145,0.021-0.219,0.017c-0.078,0.01-0.104-0.009-0.112-0.083
		c-0.002-0.019-0.002-0.039-0.002-0.058c0-0.664,0-1.327,0-1.991c0-0.036-0.003-0.074,0.021-0.106
		c0.003-0.004,0.007-0.005,0.012-0.004c0.008-0.007,0.02-0.004,0.027-0.011c0.002-0.003,0.004-0.004,0.008-0.003
		C29.087,8.492,29.092,8.487,29.097,8.483z"/>
	<path fill="#F36220" d="M27.91,10.878c-0.013,0.009-0.029,0.008-0.044,0.01c-0.159,0.017-0.317,0.034-0.476,0.05
		c-0.146,0.015-0.292,0.029-0.437,0.044c-0.144,0.015-0.287,0.031-0.43,0.046c-0.034,0.004-0.069,0.004-0.103,0.005
		c-0.049,0.01-0.071-0.019-0.083-0.06c-0.008-0.027-0.006-0.055-0.006-0.083c0-0.37,0-0.74,0-1.109c0-0.036-0.003-0.074,0.02-0.106
		c0.078-0.046,0.164-0.075,0.247-0.111c0.183-0.08,0.367-0.159,0.55-0.238c0.132-0.057,0.264-0.114,0.396-0.172
		c0.081-0.035,0.161-0.071,0.242-0.106c0.022-0.009,0.042-0.021,0.066-0.024c0.031,0.032,0.022,0.073,0.022,0.111
		c0.001,0.534,0.001,1.069,0,1.603C27.874,10.788,27.879,10.836,27.91,10.878z"/>
	<path fill="#F47220" d="M27.91,10.878c-0.012-0.003-0.027,0-0.037-0.01c-0.011-0.011-0.017-0.025-0.018-0.04
		c-0.001-0.019-0.001-0.039-0.001-0.058c0-0.556,0-1.112,0-1.668c0-0.026-0.001-0.052-0.001-0.078c0,0,0,0,0,0
		c0.008-0.006,0.02-0.004,0.027-0.012l0.001,0c0.007-0.007,0.018-0.005,0.025-0.011c0.002-0.003,0.006-0.004,0.01-0.003
		c0.007-0.001,0.011-0.005,0.016-0.008c0.004-0.001,0.008-0.003,0.012-0.004c0.008-0.006,0.02-0.004,0.027-0.012
		c0.02-0.017,0.044-0.026,0.068-0.036c0.103-0.044,0.206-0.088,0.308-0.132c0.14-0.06,0.28-0.121,0.42-0.182
		c0.065-0.028,0.129-0.058,0.194-0.086c0.024-0.01,0.048-0.018,0.072-0.028c0,0.705,0,1.41,0,2.114c0,0.017,0.001,0.035,0,0.052
		c-0.001,0.027,0.017,0.043,0.031,0.062c0.004,0.006,0.015,0.007,0.023,0.008c0.013,0.002,0.026,0.001,0.039,0.002
		c-0.013,0.009-0.029,0.009-0.044,0.01c-0.187,0.019-0.373,0.037-0.56,0.057c-0.154,0.016-0.309,0.033-0.463,0.049
		c-0.011,0.001-0.021,0.001-0.032,0.001c-0.031,0.013-0.065-0.004-0.096,0.011C27.924,10.877,27.917,10.878,27.91,10.878z"/>
	<path fill="#EF3623" d="M23.928,8.726c0,0.219,0.001,0.439,0.001,0.658c0,0.252,0.001,0.503-0.001,0.755
		c0,0.049,0.012,0.084,0.057,0.105c-0.051,0.032-0.109,0.05-0.164,0.075c-0.163,0.073-0.327,0.144-0.491,0.216
		c-0.093,0.04-0.187,0.079-0.279,0.119c-0.172,0.075-0.343,0.15-0.515,0.225c-0.083,0.036-0.167,0.07-0.25,0.106
		c-0.2,0.087-0.399,0.174-0.598,0.261c-0.057,0.025-0.115,0.049-0.173,0.073c-0.01,0.004-0.019,0.011-0.034,0.002
		c0.044-0.048,0.087-0.095,0.131-0.142c0.201-0.213,0.403-0.426,0.604-0.639c0.102-0.108,0.204-0.216,0.306-0.325
		c0.181-0.193,0.363-0.387,0.544-0.58c0.058-0.061,0.115-0.122,0.173-0.184c0.147-0.155,0.294-0.31,0.44-0.465
		c0.068-0.072,0.135-0.145,0.203-0.217C23.895,8.754,23.912,8.74,23.928,8.726z"/>
	<path fill="#F68B1E" d="M30.19,7.55c-0.015-0.002-0.029,0.001-0.044,0.005c-0.031,0.008-0.057-0.008-0.061-0.038
		c-0.003-0.017-0.002-0.034-0.002-0.052c0-1.007,0-2.014-0.001-3.02c0-0.042,0.013-0.08,0.017-0.121
		c0.001-0.01,0.012-0.011,0.021-0.013c0.003,0.003,0.004,0.006,0.003,0.01c0.005,0.009,0.003,0.021,0.011,0.029
		c0.003,0.002,0.004,0.004,0.002,0.008c0,0.007,0.005,0.012,0.008,0.018c0.001,0.004,0.002,0.008,0.003,0.012
		c0.007,0.008,0.004,0.019,0.011,0.027c0.003,0.003,0.004,0.006,0.003,0.011c0.005,0.009,0.004,0.02,0.01,0.028
		c0.003,0.003,0.004,0.006,0.003,0.01c0.005,0.009,0.003,0.021,0.011,0.029c0.003,0.002,0.004,0.004,0.002,0.007
		c0,0.007,0.005,0.012,0.008,0.018c0.001,0.004,0.002,0.008,0.003,0.012c0.007,0.008,0.004,0.019,0.011,0.027
		c0.003,0.003,0.004,0.006,0.003,0.01c0.005,0.009,0.003,0.021,0.011,0.029c0.003,0.002,0.004,0.005,0.002,0.008
		c0.004,0.01,0.003,0.022,0.011,0.031c0.003,0.002,0.004,0.004,0.002,0.007c0,0.007,0.005,0.013,0.008,0.018
		c0.004,0.003,0.005,0.007,0.003,0.012c0.006,0.008,0.004,0.019,0.011,0.027c0.003,0.003,0.004,0.006,0.003,0.01
		c0.005,0.009,0.003,0.021,0.011,0.029c0.003,0.002,0.004,0.004,0.002,0.008c0,0.007,0.005,0.012,0.008,0.018
		c0.001,0.004,0.002,0.008,0.003,0.012c0.007,0.008,0.005,0.018,0.01,0.026c0.004,0.003,0.005,0.007,0.003,0.012
		c0.006,0.008,0.004,0.019,0.011,0.027c0.003,0.003,0.004,0.006,0.003,0.01c0.005,0.009,0.003,0.021,0.011,0.029
		c0.003,0.002,0.004,0.004,0.002,0.007c0,0.007,0.005,0.012,0.008,0.018c0.001,0.004,0.002,0.008,0.003,0.012
		c0.006,0.008,0.004,0.019,0.011,0.027c0.003,0.003,0.004,0.007,0.003,0.011c0.006,0.008,0.004,0.02,0.011,0.028
		c0.003,0.003,0.004,0.006,0.003,0.01c0.005,0.009,0.003,0.021,0.011,0.029c0.003,0.002,0.004,0.004,0.002,0.007
		c0,0.007,0.005,0.013,0.008,0.018c0.004,0.003,0.005,0.007,0.003,0.012c0.006,0.008,0.004,0.019,0.011,0.027
		c0.003,0.003,0.004,0.006,0.003,0.01c0.005,0.009,0.003,0.021,0.011,0.029c0.003,0.002,0.004,0.005,0.002,0.009
		c0,0.007,0.006,0.011,0.008,0.017c0.001,0.005,0.002,0.009,0.004,0.014c0.008,0.007,0.005,0.018,0.01,0.025
		c0.003,0.003,0.005,0.007,0.003,0.012c0.006,0.008,0.004,0.019,0.011,0.027c0.003,0.003,0.004,0.006,0.003,0.01
		c0.005,0.009,0.003,0.021,0.011,0.029c0.003,0.002,0.004,0.004,0.002,0.007c0,0.007,0.005,0.012,0.008,0.018
		c0.001,0.004,0.002,0.008,0.003,0.013c0.007,0.007,0.005,0.018,0.01,0.026c0.003,0.003,0.005,0.007,0.003,0.012
		c0.006,0.008,0.004,0.02,0.011,0.027c0.003,0.002,0.004,0.006,0.003,0.01c0.002,0.006,0.005,0.011,0.008,0.016
		c0.039,0.105,0.079,0.209,0.118,0.314c0.167,0.457,0.335,0.914,0.502,1.371c0.02,0.054,0.028,0.049-0.031,0.074
		c-0.166,0.072-0.332,0.144-0.499,0.214c-0.028,0.012-0.051,0.032-0.083,0.035c-0.006,0.002-0.01,0.006-0.016,0.009
		c-0.004,0.001-0.008,0.003-0.012,0.004c-0.008,0.007-0.019,0.004-0.027,0.012l-0.003,0.003l-0.004-0.001
		c-0.007,0.001-0.012,0.006-0.018,0.009l-0.005,0.003l-0.006,0c-0.005,0.003-0.01,0.006-0.016,0.008
		c-0.004,0.001-0.008,0.003-0.012,0.004C30.4,7.466,30.388,7.463,30.381,7.47l-0.003,0.003l-0.005-0.001
		c-0.007,0.001-0.012,0.006-0.018,0.009L30.35,7.485l-0.006,0c-0.009,0.006-0.021,0.004-0.028,0.012l0,0
		c-0.007,0.007-0.019,0.005-0.026,0.011l-0.004,0.003l-0.005,0c-0.007,0.001-0.012,0.006-0.017,0.009l-0.005,0.004l-0.006,0
		c-0.008,0.006-0.02,0.004-0.028,0.012l0,0c-0.007,0.007-0.018,0.005-0.026,0.011l-0.004,0.003L30.19,7.55z"/>
	<path fill="#F25121" d="M26.351,9.675c0,0.409,0,0.818,0,1.226c0,0.015,0,0.03,0,0.045c0,0.017-0.002,0.035,0.011,0.049
		c0.015,0.018,0.031,0.036,0.058,0.037c-0.045,0.019-0.093,0.018-0.139,0.023c-0.158,0.018-0.317,0.034-0.475,0.05
		c-0.103,0.011-0.206,0.02-0.309,0.031c-0.143,0.015-0.287,0.031-0.43,0.046c-0.036,0.004-0.073,0.004-0.109,0.006
		c-0.069,0.007-0.092-0.008-0.1-0.074c-0.007-0.055-0.003-0.112-0.003-0.167c0-0.18-0.001-0.361,0-0.541
		c0-0.036-0.005-0.075,0.033-0.098c0.072-0.039,0.15-0.066,0.224-0.099c0.171-0.076,0.343-0.151,0.515-0.226
		c0.083-0.036,0.167-0.07,0.25-0.106c0.134-0.058,0.269-0.117,0.403-0.175C26.303,9.692,26.327,9.684,26.351,9.675z"/>
	<path fill="#F04122" d="M24.887,10.308c-0.012,0.019-0.013,0.04-0.013,0.062c0,0.241,0,0.482,0,0.724c0,0.004,0,0.009,0,0.013
		c0.002,0.061,0.017,0.076,0.082,0.081c-0.013,0.01-0.028,0.009-0.043,0.01c-0.096,0.011-0.193,0.021-0.289,0.032
		c-0.107,0.012-0.214,0.023-0.321,0.034c-0.107,0.011-0.214,0.023-0.321,0.034c-0.096,0.01-0.193,0.02-0.289,0.03
		c-0.111,0.012-0.223,0.024-0.334,0.035c-0.049,0.005-0.099,0.01-0.148,0.015c-0.193,0.021-0.385,0.043-0.578,0.063
		c-0.129,0.014-0.257,0.027-0.386,0.04c-0.017,0.002-0.034,0-0.055,0c0.019-0.019,0.043-0.025,0.063-0.034
		c0.162-0.071,0.324-0.14,0.487-0.211c0.136-0.059,0.273-0.119,0.409-0.178c0.271-0.117,0.542-0.235,0.813-0.352
		c0.265-0.115,0.53-0.23,0.795-0.345C24.8,10.345,24.84,10.318,24.887,10.308z"/>
	<path fill="#F36220" d="M27.932,10.876c0.007-0.009,0.016-0.013,0.027-0.012c0.023,0,0.046,0.001,0.068,0.001
		C27.997,10.88,27.964,10.877,27.932,10.876z"/>
	<path fill="#F57E1F" d="M30.471,7.431c0.006-0.01,0.016-0.012,0.027-0.012C30.491,7.428,30.482,7.432,30.471,7.431z"/>
	<path fill="#F57E1F" d="M30.381,7.47c0.006-0.01,0.016-0.012,0.027-0.011C30.4,7.467,30.392,7.471,30.381,7.47z"/>
	<path fill="#F57E1F" d="M30.316,7.497c0.006-0.012,0.017-0.013,0.028-0.012C30.337,7.494,30.327,7.498,30.316,7.497z"/>
	<path fill="#F57E1F" d="M30.29,7.509c0.006-0.01,0.016-0.012,0.026-0.011C30.309,7.506,30.301,7.51,30.29,7.509z"/>
	<path fill="#F57E1F" d="M30.225,7.536c0.006-0.011,0.017-0.013,0.028-0.012C30.246,7.533,30.237,7.537,30.225,7.536z"/>
	<path fill="#F57E1F" d="M30.199,7.547c0.006-0.01,0.015-0.012,0.026-0.011C30.218,7.544,30.21,7.548,30.199,7.547z"/>
	<path fill="#F47220" d="M29.072,8.495c-0.006,0.01-0.016,0.012-0.027,0.011C29.052,8.497,29.061,8.494,29.072,8.495z"/>
	<path fill="#F57E1F" d="M30.134,4.35c-0.011-0.007-0.012-0.017-0.011-0.029C30.132,4.329,30.135,4.339,30.134,4.35z"/>
	<path fill="#F57E1F" d="M30.159,4.415c-0.01-0.006-0.011-0.016-0.011-0.027C30.156,4.395,30.16,4.404,30.159,4.415z"/>
	<path fill="#F57E1F" d="M30.172,4.454c-0.01-0.007-0.011-0.017-0.01-0.028C30.171,4.433,30.173,4.443,30.172,4.454z"/>
	<path fill="#F36220" d="M27.97,8.973c-0.006,0.011-0.016,0.013-0.027,0.012C27.95,8.976,27.959,8.973,27.97,8.973z"/>
	<path fill="#F57E1F" d="M30.186,4.493c-0.012-0.007-0.013-0.017-0.011-0.029C30.184,4.471,30.187,4.481,30.186,4.493z"/>
	<path fill="#F36220" d="M27.905,9.001C27.9,9.01,27.89,9.012,27.88,9.012C27.887,9.003,27.895,9,27.905,9.001z"/>
	<path fill="#F36220" d="M27.88,9.012c-0.006,0.011-0.016,0.013-0.027,0.012C27.86,9.014,27.869,9.011,27.88,9.012z"/>
	<path fill="#F57E1F" d="M30.21,4.557c-0.01-0.006-0.011-0.016-0.011-0.027C30.208,4.537,30.212,4.547,30.21,4.557z"/>
	<path fill="#F57E1F" d="M30.225,4.596c-0.011-0.007-0.012-0.017-0.011-0.029C30.223,4.575,30.226,4.585,30.225,4.596z"/>
	<path fill="#F57E1F" d="M30.238,4.635c-0.012-0.007-0.013-0.018-0.011-0.031C30.236,4.613,30.239,4.624,30.238,4.635z"/>
	<path fill="#F14A22" d="M25.665,9.516c0.006-0.011,0.017-0.013,0.028-0.012C25.685,9.513,25.676,9.517,25.665,9.516z"/>
	<path fill="#F57E1F" d="M30.262,4.7c-0.01-0.006-0.011-0.016-0.011-0.027C30.26,4.68,30.264,4.689,30.262,4.7z"/>
	<path fill="#F57E1F" d="M30.277,4.739c-0.011-0.007-0.012-0.017-0.011-0.029C30.275,4.717,30.277,4.727,30.277,4.739z"/>
	<path fill="#F14A22" d="M25.574,9.555c0.006-0.01,0.016-0.012,0.027-0.012C25.594,9.552,25.585,9.556,25.574,9.555z"/>
	<path fill="#F57E1F" d="M30.3,4.803c-0.009-0.007-0.01-0.016-0.01-0.026C30.299,4.784,30.301,4.793,30.3,4.803z"/>
	<path fill="#F57E1F" d="M30.314,4.842c-0.01-0.006-0.011-0.016-0.011-0.027C30.312,4.822,30.315,4.831,30.314,4.842z"/>
	<path fill="#F57E1F" d="M30.329,4.881c-0.012-0.007-0.013-0.017-0.011-0.029C30.327,4.86,30.329,4.87,30.329,4.881z"/>
	<path fill="#F57E1F" d="M30.353,4.946c-0.01-0.006-0.011-0.016-0.011-0.027C30.351,4.926,30.354,4.935,30.353,4.946z"/>
	<path fill="#F57E1F" d="M30.366,4.985c-0.01-0.007-0.012-0.017-0.011-0.028C30.364,4.964,30.367,4.974,30.366,4.985z"/>
	<path fill="#F57E1F" d="M30.38,5.024c-0.012-0.007-0.013-0.018-0.011-0.029C30.379,5.002,30.381,5.012,30.38,5.024z"/>
	<path fill="#F57E1F" d="M30.509,5.373c-0.01-0.007-0.012-0.016-0.011-0.027C30.507,5.353,30.51,5.362,30.509,5.373z"/>
	<path fill="#F57E1F" d="M30.405,5.088c-0.01-0.006-0.011-0.016-0.011-0.027C30.403,5.068,30.406,5.077,30.405,5.088z"/>
	<path fill="#F57E1F" d="M30.419,5.127c-0.011-0.007-0.012-0.017-0.011-0.029C30.417,5.106,30.42,5.116,30.419,5.127z"/>
	<path fill="#F57E1F" d="M30.443,5.192c-0.009-0.006-0.011-0.015-0.01-0.025C30.44,5.173,30.444,5.181,30.443,5.192z"/>
	<path fill="#F57E1F" d="M30.457,5.231c-0.01-0.006-0.011-0.016-0.011-0.027C30.455,5.211,30.458,5.22,30.457,5.231z"/>
	<path fill="#F57E1F" d="M30.471,5.27c-0.012-0.007-0.013-0.017-0.011-0.029C30.469,5.248,30.472,5.258,30.471,5.27z"/>
	<path fill="#F57E1F" d="M30.495,5.334c-0.009-0.006-0.011-0.016-0.01-0.026C30.492,5.315,30.496,5.324,30.495,5.334z"/>
	<path fill="#F57E1F" d="M30.145,4.376c-0.006-0.004-0.009-0.011-0.008-0.018C30.143,4.362,30.145,4.368,30.145,4.376z"/>
	<path fill="#F57E1F" d="M30.196,4.518C30.19,4.514,30.188,4.508,30.188,4.5C30.195,4.505,30.197,4.511,30.196,4.518z"/>
	<path fill="#F57E1F" d="M30.248,4.661C30.242,4.656,30.24,4.65,30.24,4.643C30.247,4.647,30.249,4.653,30.248,4.661z"/>
	<path fill="#F57E1F" d="M30.287,4.764c-0.006-0.004-0.009-0.011-0.008-0.018C30.285,4.751,30.288,4.757,30.287,4.764z"/>
	<path fill="#F57E1F" d="M30.339,4.907c-0.006-0.005-0.009-0.011-0.008-0.018C30.337,4.893,30.34,4.899,30.339,4.907z"/>
	<path fill="#F57E1F" d="M30.481,5.295c-0.006-0.005-0.009-0.011-0.008-0.018C30.48,5.281,30.482,5.288,30.481,5.295z"/>
	<path fill="#F57E1F" d="M30.51,7.416c0.005-0.003,0.011-0.006,0.016-0.009C30.523,7.414,30.518,7.417,30.51,7.416z"/>
	<path fill="#F57E1F" d="M30.446,7.443c0.004-0.006,0.011-0.009,0.018-0.009C30.46,7.441,30.453,7.443,30.446,7.443z"/>
	<path fill="#F57E1F" d="M30.42,7.455c0.005-0.003,0.01-0.006,0.016-0.008C30.432,7.452,30.427,7.455,30.42,7.455z"/>
	<path fill="#F57E1F" d="M30.355,7.482c0.006-0.003,0.012-0.006,0.018-0.009C30.369,7.479,30.363,7.482,30.355,7.482z"/>
	<path fill="#F57E1F" d="M30.264,7.52c0.006-0.003,0.012-0.006,0.017-0.009C30.278,7.518,30.272,7.521,30.264,7.52z"/>
	<path fill="#F14A22" d="M25.651,6.899c-0.002,0.008-0.006,0.013-0.014,0.015C25.639,6.906,25.643,6.901,25.651,6.899z"/>
	<path fill="#F47220" d="M29.097,8.483c-0.004,0.006-0.01,0.009-0.018,0.009C29.083,8.485,29.09,8.483,29.097,8.483z"/>
	<path fill="#F14A22" d="M25.638,6.913c-0.002,0.007-0.006,0.012-0.013,0.014C25.626,6.919,25.63,6.914,25.638,6.913z"/>
	<path fill="#F14A22" d="M25.625,6.926c-0.002,0.007-0.006,0.012-0.013,0.014C25.613,6.932,25.618,6.927,25.625,6.926z"/>
	<path fill="#F14A22" d="M25.612,6.939c-0.002,0.007-0.006,0.011-0.013,0.014C25.601,6.945,25.605,6.941,25.612,6.939z"/>
	<path fill="#F14A22" d="M25.599,6.952c-0.004,0.004-0.009,0.009-0.013,0.013C25.588,6.958,25.592,6.954,25.599,6.952z"/>
	<path fill="#F14A22" d="M25.587,6.965c-0.004,0.004-0.009,0.009-0.013,0.013C25.575,6.972,25.579,6.967,25.587,6.965z"/>
	<path fill="#F36220" d="M27.931,8.989c-0.004,0.006-0.009,0.009-0.016,0.008C27.919,8.991,27.924,8.988,27.931,8.989z"/>
	<path fill="#F57E1F" d="M30.429,5.153c-0.006-0.004-0.008-0.01-0.008-0.017C30.427,5.14,30.43,5.146,30.429,5.153z"/>
	<path fill="#F14A22" d="M25.574,6.979c-0.004,0.004-0.008,0.009-0.013,0.013C25.562,6.985,25.567,6.98,25.574,6.979z"/>
	<path fill="#F14A22" d="M25.639,9.528c0.005-0.007,0.011-0.009,0.019-0.009C25.653,9.525,25.647,9.528,25.639,9.528z"/>
	<path fill="#F14A22" d="M25.613,9.54c0.005-0.003,0.011-0.006,0.016-0.009C25.626,9.537,25.62,9.54,25.613,9.54z"/>
	<path fill="#F14A22" d="M25.561,6.992c-0.004,0.004-0.008,0.009-0.012,0.013C25.55,6.998,25.554,6.993,25.561,6.992z"/>
	<path fill="#F14A22" d="M25.548,9.566c0.004-0.006,0.011-0.009,0.018-0.009C25.563,9.564,25.556,9.567,25.548,9.566z"/>
	<path fill="#F14A22" d="M25.548,7.005c-0.004,0.004-0.008,0.008-0.012,0.013C25.537,7.011,25.541,7.007,25.548,7.005z"/>
	<path fill="#F14A22" d="M25.535,7.019c-0.004,0.004-0.008,0.008-0.012,0.012C25.524,7.024,25.528,7.02,25.535,7.019z"/>
	<path fill="#F57E1F" d="M30.52,5.399c-0.003-0.005-0.005-0.011-0.008-0.016C30.518,5.386,30.52,5.392,30.52,5.399z"/>
	<path fill="#F14A22" d="M25.522,7.032c-0.003,0.004-0.007,0.008-0.01,0.012C25.512,7.036,25.516,7.033,25.522,7.032z"/>
	<path fill="#F57E1F" d="M30.391,5.049c-0.006-0.005-0.009-0.011-0.008-0.018C30.389,5.035,30.392,5.042,30.391,5.049z"/>
	<path fill="#EF3623" d="M2.172,3.171c0.02-0.075,0.051-0.146,0.077-0.219c0.019-0.054,0.04-0.108,0.059-0.162
		c0.021,0.002,0.029,0.016,0.039,0.026c0.13,0.138,0.259,0.276,0.389,0.414c0.06,0.064,0.121,0.128,0.182,0.193
		C3.01,3.52,3.102,3.616,3.194,3.713C3.21,3.731,3.224,3.75,3.239,3.768C3.234,3.817,3.234,3.867,3.234,3.917
		c0,1.386,0,2.771-0.001,4.157c0,0.065,0.019,0.126,0.016,0.19C3.111,8.205,2.973,8.146,2.835,8.087
		C2.716,8.037,2.598,7.986,2.48,7.935C2.396,7.898,2.312,7.859,2.228,7.821c-0.045-0.025-0.06-0.065-0.059-0.114
		c0-0.026,0-0.052,0-0.078c0-1.443,0-2.887,0-4.33C2.168,3.256,2.176,3.214,2.172,3.171z"/>
	<path fill="#F04022" d="M3.249,8.264C3.213,8.196,3.213,8.196,3.213,8.111c0-1.414,0-2.829,0-4.243c0-0.019,0-0.039,0-0.058
		c0-0.019,0.008-0.033,0.025-0.041c0,0,0,0,0,0c0.004,0.004,0.008,0.008,0.012,0.013l0.001,0.001
		C3.256,3.785,3.26,3.789,3.264,3.794l0.001,0.001c0.005,0.003,0.008,0.007,0.012,0.012l0.001,0.001
		C3.282,3.811,3.286,3.815,3.289,3.82L3.29,3.822c0.005,0.003,0.009,0.007,0.011,0.011l0.002,0.002
		c0.005,0.002,0.009,0.006,0.011,0.011l0.002,0.002c0.005,0.002,0.008,0.006,0.01,0.011l0.002,0.003
		c0.005,0.002,0.009,0.005,0.01,0.01l0.003,0.003c0.005,0.001,0.007,0.004,0.009,0.008C3.416,3.952,3.482,4.02,3.547,4.089
		c0.01,0.011,0.02,0.023,0.03,0.034c0.2,0.211,0.4,0.423,0.6,0.634c0.055,0.058,0.11,0.116,0.164,0.174
		c0.015,0.016,0.027,0.034,0.04,0.05C4.345,5.006,4.347,5.042,4.348,5.079c0,0.353,0,0.707,0,1.06c0,0.683-0.002,1.366,0.001,2.049
		c0.001,0.188-0.027,0.378,0.03,0.563C4.313,8.733,4.251,8.702,4.188,8.675c-0.17-0.072-0.339-0.146-0.509-0.22
		C3.557,8.402,3.435,8.349,3.313,8.296C3.305,8.293,3.298,8.288,3.29,8.284C3.285,8.281,3.28,8.276,3.274,8.275l-0.005,0
		L3.264,8.272C3.259,8.269,3.256,8.263,3.249,8.263L3.249,8.264z"/>
	<path fill="#F14E21" d="M4.379,8.752C4.327,8.678,4.327,8.678,4.327,8.586c0-1.18,0-2.36,0-3.54c0-0.024,0-0.047,0-0.072
		c0.021-0.012,0.035,0.019,0.054,0.007c0,0-0.001,0.001-0.001,0.001C4.382,4.99,4.387,4.994,4.395,4.996L4.394,4.995
		C4.395,5.003,4.4,5.007,4.407,5.009L4.406,5.008C4.408,5.016,4.413,5.02,4.42,5.023L4.419,5.022
		c0.002,0.007,0.007,0.012,0.014,0.014L4.432,5.035c0.003,0.007,0.007,0.011,0.014,0.014L4.445,5.048
		c0.003,0.006,0.007,0.011,0.014,0.014L4.457,5.061C4.46,5.067,4.465,5.072,4.471,5.075L4.47,5.074
		c0.003,0.006,0.008,0.01,0.013,0.014l0,0c0.003,0.006,0.008,0.01,0.013,0.013l0,0c0.003,0.005,0.008,0.01,0.013,0.013l0,0
		c0.003,0.005,0.008,0.009,0.013,0.013l0,0c0.004,0.004,0.008,0.008,0.011,0.013l0.002,0.002c0.005,0.002,0.008,0.006,0.01,0.011
		l0.003,0.003c0.005,0.002,0.008,0.005,0.01,0.01L4.56,5.17c0.005,0.002,0.008,0.005,0.01,0.01l0.003,0.003
		c0.005,0,0.008,0.003,0.008,0.008c0.075,0.078,0.15,0.155,0.224,0.233c0.116,0.122,0.231,0.245,0.346,0.367
		C5.288,5.936,5.423,6.08,5.559,6.225C5.563,6.23,5.566,6.236,5.57,6.241C5.555,6.285,5.552,6.33,5.552,6.375
		c0,0.908,0.001,1.815-0.001,2.723c0,0.059,0.024,0.113,0.019,0.172C5.497,9.247,5.428,9.212,5.357,9.182
		c-0.16-0.068-0.32-0.137-0.479-0.207C4.745,8.917,4.614,8.859,4.482,8.801c-0.005-0.003-0.01-0.005-0.015-0.008
		c-0.004,0.001-0.008,0-0.011-0.003C4.451,8.786,4.446,8.782,4.44,8.78C4.436,8.781,4.433,8.779,4.43,8.776
		C4.425,8.773,4.42,8.769,4.414,8.767l-0.005,0L4.405,8.764C4.399,8.76,4.394,8.755,4.386,8.754L4.382,8.755L4.379,8.752z"/>
	<path fill="#F25B21" d="M5.571,9.269C5.568,9.264,5.565,9.258,5.562,9.252c-0.023-0.038-0.031-0.078-0.03-0.123
		c0.001-0.429,0.001-0.858,0.001-1.287c0-0.502,0-1.004,0-1.507c0-0.019,0-0.039,0.001-0.058C5.534,6.255,5.547,6.243,5.57,6.241
		c0.034,0.024,0.059,0.056,0.087,0.086c0.092,0.097,0.183,0.195,0.274,0.292c0.18,0.191,0.361,0.382,0.542,0.573
		c0.108,0.114,0.216,0.229,0.323,0.344c0.047,0.05,0.092,0.102,0.139,0.153C6.928,7.738,6.926,7.788,6.926,7.837
		c0,0.616,0.001,1.231-0.001,1.847c0,0.063,0.024,0.121,0.02,0.182C6.92,9.865,6.9,9.852,6.878,9.842
		c-0.117-0.05-0.233-0.101-0.35-0.152C6.29,9.587,6.051,9.483,5.812,9.379C5.731,9.344,5.648,9.312,5.571,9.269z"/>
	<path fill="#EE2923" d="M2.172,3.171c0.01,0.006,0.016,0.015,0.016,0.026C2.189,3.218,2.189,3.24,2.189,3.261
		c0,1.465,0,2.93,0,4.395c0,0.013,0.001,0.026,0,0.039C2.183,7.743,2.198,7.785,2.228,7.821c-0.062-0.018-0.12-0.048-0.179-0.073
		c-0.123-0.052-0.245-0.106-0.368-0.16c-0.16-0.07-0.32-0.14-0.48-0.21C1.098,7.334,0.995,7.29,0.892,7.246
		C0.841,7.224,0.789,7.2,0.738,7.177C0.711,7.165,0.708,7.16,0.718,7.134c0.013-0.037,0.026-0.073,0.039-0.11
		c0.175-0.478,0.35-0.955,0.525-1.433c0.166-0.453,0.331-0.907,0.497-1.36c0.125-0.342,0.25-0.684,0.376-1.026
		C2.16,3.193,2.167,3.182,2.172,3.171z"/>
	<path fill="#EF3323" d="M3.2,10.824c-0.072,0.003-0.142-0.012-0.212-0.018c-0.103-0.008-0.206-0.022-0.309-0.032
		c-0.051-0.005-0.103-0.011-0.155-0.015c-0.022-0.002-0.035-0.012-0.045-0.031c-0.03-0.057-0.061-0.114-0.092-0.171
		C2.25,10.3,2.113,10.043,1.975,9.787c-0.11-0.205-0.221-0.41-0.331-0.615C1.538,8.976,1.434,8.78,1.329,8.584
		C1.217,8.375,1.104,8.167,0.991,7.958C0.943,7.869,0.896,7.779,0.849,7.69c0.01-0.015,0.019-0.007,0.028-0.003
		C0.996,7.739,1.114,7.79,1.233,7.842c0.176,0.076,0.353,0.152,0.529,0.228c0.267,0.116,0.534,0.232,0.801,0.347
		C2.696,8.474,2.829,8.531,2.961,8.59C3.02,8.616,3.078,8.644,3.136,8.672c0.009,0.015,0.01,0.032,0.009,0.05
		c-0.007,0.657-0.001,1.314-0.003,1.972c0,0.043-0.006,0.089,0.052,0.103C3.207,10.8,3.206,10.814,3.2,10.824z"/>
	<path fill="#F04222" d="M3.2,10.824c-0.002-0.01-0.004-0.022-0.019-0.021c-0.004,0-0.008,0.003-0.012,0.004
		c-0.04,0.006-0.045,0.001-0.047-0.038c0-0.015,0-0.03,0-0.045c0-0.646,0-1.292,0-1.938c0-0.039,0.003-0.077,0.015-0.114
		C3.14,8.673,3.145,8.675,3.149,8.677c0.007,0.007,0.019,0.004,0.026,0.011c0.004,0.001,0.009,0.003,0.013,0.004
		C3.193,8.695,3.198,8.697,3.203,8.7c0.004-0.001,0.008,0,0.011,0.004c0.005,0.003,0.01,0.008,0.017,0.009
		c0.004-0.001,0.006,0,0.009,0.003C3.247,8.723,3.258,8.72,3.266,8.727C3.27,8.728,3.274,8.729,3.279,8.731
		c0.005,0.003,0.01,0.006,0.015,0.008c0.026,0.01,0.053,0.018,0.078,0.029c0.115,0.05,0.229,0.1,0.344,0.15
		c0.17,0.074,0.339,0.149,0.509,0.223c0.107,0.046,0.214,0.091,0.321,0.137c0.02,0.008,0.041,0.014,0.057,0.03
		c-0.02,0.271-0.006,0.542-0.009,0.812c-0.002,0.211-0.001,0.422,0,0.632c0,0.083-0.019,0.172,0.07,0.228
		c-0.071,0.004-0.141-0.012-0.212-0.018c-0.105-0.009-0.21-0.022-0.315-0.033c-0.109-0.012-0.218-0.023-0.327-0.035
		c-0.054-0.006-0.107-0.01-0.161-0.016c-0.115-0.013-0.231-0.028-0.346-0.042c-0.026-0.012-0.055,0.003-0.08-0.01
		C3.215,10.825,3.208,10.825,3.2,10.824z"/>
	<path fill="#F46C20" d="M6.944,9.867C6.943,9.856,6.942,9.845,6.933,9.837c-0.026-0.022-0.028-0.05-0.028-0.082
		c0-0.665,0-1.33,0-1.995c0-0.028-0.004-0.057,0.029-0.072C6.963,7.707,6.98,7.735,7.002,7.758C7.058,7.817,7.114,7.877,7.17,7.936
		c0.093,0.098,0.187,0.196,0.28,0.295c0.166,0.175,0.331,0.351,0.496,0.526c0.159,0.169,0.318,0.339,0.478,0.508
		c0.009,0.009,0.016,0.02,0.024,0.03C8.439,9.333,8.442,9.372,8.442,9.411c0,0.319,0.001,0.639-0.001,0.958
		c0,0.049,0.018,0.098,0.005,0.147c-0.09-0.03-0.176-0.072-0.263-0.108c-0.163-0.069-0.325-0.14-0.487-0.21
		c-0.138-0.06-0.277-0.12-0.415-0.18C7.176,9.971,7.071,9.926,6.966,9.88C6.959,9.876,6.952,9.871,6.944,9.867z"/>
	<path fill="#F25421" d="M4.664,10.98c-0.013-0.016-0.031-0.012-0.048-0.013c-0.018-0.001-0.026-0.009-0.032-0.026
		c-0.01-0.025-0.011-0.05-0.011-0.076c0-0.118,0-0.237,0-0.355c0-0.364,0-0.727,0-1.091c0-0.017,0-0.034,0-0.052
		c0.001-0.025,0.009-0.046,0.03-0.061c0.138,0.055,0.275,0.113,0.41,0.175c0.049,0.022,0.099,0.042,0.148,0.064
		c0.2,0.086,0.399,0.172,0.599,0.259c0.178,0.077,0.355,0.155,0.533,0.233c0.006,0.002,0.01,0.007,0.016,0.011
		c-0.015,0.043-0.018,0.088-0.018,0.133c0.003,0.307-0.005,0.615,0.005,0.922c0.001,0.017,0.001,0.035-0.014,0.048
		c-0.082,0.002-0.163-0.014-0.244-0.02c-0.101-0.009-0.201-0.021-0.302-0.032c-0.186-0.021-0.373-0.035-0.558-0.061
		c-0.1-0.014-0.201-0.019-0.302-0.032C4.805,10.997,4.733,10.997,4.664,10.98z"/>
	<path fill="#F36820" d="M6.282,11.151c-0.019-0.113-0.01-0.227-0.011-0.341c-0.001-0.224,0-0.449,0-0.673
		c0-0.017,0-0.035,0.001-0.052c0.001-0.023,0.015-0.034,0.037-0.037c0.038,0.015,0.076,0.028,0.114,0.044
		c0.182,0.078,0.364,0.157,0.546,0.235c0.267,0.115,0.534,0.231,0.8,0.347c0.073,0.032,0.146,0.064,0.219,0.097
		c0.008,0.003,0.014,0.009,0.022,0.013c-0.018,0.035-0.022,0.073-0.021,0.112c0.003,0.128-0.005,0.257,0.005,0.385
		c0.001,0.017,0,0.034-0.011,0.049c-0.078,0.003-0.154-0.013-0.232-0.019c-0.105-0.009-0.21-0.022-0.315-0.033
		c-0.15-0.016-0.3-0.032-0.45-0.048c-0.137-0.015-0.274-0.028-0.411-0.045c-0.066-0.008-0.134-0.008-0.199-0.024
		c-0.029-0.016-0.063,0.003-0.092-0.011L6.282,11.151z"/>
	<path fill="#F57C1F" d="M8.445,10.516c-0.02-0.039-0.025-0.081-0.025-0.124c0.001-0.338,0.001-0.676,0.001-1.014
		c0-0.019,0-0.039,0.001-0.058c0.001-0.016,0.013-0.021,0.026-0.024c0,0,0,0,0,0C8.45,9.302,8.455,9.305,8.46,9.309l0,0
		c0.004,0.004,0.008,0.008,0.011,0.013l0.001,0.001c0.004,0.003,0.008,0.007,0.012,0.012l0.001,0.001
		C8.49,9.34,8.494,9.344,8.497,9.349L8.499,9.35C8.503,9.353,8.507,9.357,8.51,9.362l0.002,0.002C8.516,9.366,8.52,9.37,8.522,9.375
		l0.002,0.002c0.005,0.002,0.008,0.006,0.01,0.011L8.537,9.39c0.005,0.002,0.008,0.005,0.01,0.01L8.55,9.404
		c0.005,0.002,0.008,0.005,0.01,0.01l0.003,0.003c0.005,0,0.008,0.003,0.008,0.008c0.07,0.073,0.14,0.146,0.21,0.219
		C8.794,9.657,8.804,9.67,8.816,9.683c0.2,0.211,0.4,0.423,0.6,0.634c0.164,0.174,0.328,0.348,0.492,0.523
		c0.154,0.163,0.307,0.326,0.461,0.49c0.006,0.006,0.011,0.013,0.017,0.02c-0.02,0.012-0.034-0.003-0.049-0.009
		c-0.194-0.083-0.388-0.167-0.582-0.251c-0.148-0.064-0.297-0.128-0.445-0.192c-0.239-0.104-0.478-0.208-0.717-0.312
		c-0.006-0.003-0.011-0.006-0.017-0.01c-0.006-0.002-0.01-0.007-0.016-0.009l-0.005,0L8.55,10.564
		c-0.007-0.006-0.019-0.003-0.025-0.011l-0.001,0c-0.008-0.008-0.02-0.005-0.028-0.012c-0.005,0.001-0.008,0-0.011-0.004
		c-0.006-0.003-0.01-0.008-0.017-0.009l-0.005,0L8.46,10.525C8.455,10.521,8.45,10.518,8.445,10.516L8.445,10.516z"/>
	<path fill="#F57A1F" d="M7.981,11.331c-0.017-0.065-0.013-0.132-0.013-0.199c0-0.101,0-0.203,0-0.304
		c0-0.034,0.001-0.034,0.041-0.043c0.005-0.001,0.008,0,0.012,0.004c0.005,0.003,0.01,0.008,0.017,0.008
		c0.004-0.001,0.007,0,0.009,0.003c0.007,0.007,0.019,0.004,0.026,0.011c0.004,0.001,0.009,0.003,0.013,0.004
		c0.005,0.003,0.01,0.006,0.015,0.008c0.004-0.001,0.008,0,0.011,0.004c0.005,0.004,0.01,0.008,0.017,0.008
		c0.004-0.001,0.007,0,0.009,0.003c0.007,0.008,0.019,0.005,0.026,0.011c0.004,0.001,0.009,0.003,0.013,0.004
		c0.005,0.003,0.01,0.006,0.015,0.008c0.005-0.001,0.008,0.001,0.011,0.004c0.005,0.003,0.009,0.006,0.014,0.009
		c0.005-0.001,0.008,0.001,0.012,0.004c0.005,0.003,0.01,0.006,0.016,0.008c0.004-0.001,0.008,0,0.01,0.004
		c0.007,0.007,0.018,0.003,0.024,0.011c0.005,0.002,0.01,0.003,0.015,0.005c0.005,0.002,0.009,0.005,0.013,0.007
		c0.004,0.001,0.008,0.003,0.012,0.004c0.005,0.004,0.01,0.006,0.016,0.008c0.022,0.001,0.041,0.013,0.06,0.022
		c0.182,0.078,0.364,0.157,0.546,0.235c0.233,0.101,0.466,0.202,0.7,0.304c0.009,0.004,0.018,0.009,0.027,0.014
		c-0.003,0.016-0.014,0.009-0.02,0.01c-0.008,0.001-0.017,0-0.026-0.001C9.527,11.5,9.433,11.49,9.339,11.48
		c-0.103-0.011-0.206-0.022-0.309-0.033c-0.174-0.018-0.347-0.035-0.521-0.054c-0.064-0.007-0.128-0.017-0.192-0.026
		c-0.026-0.013-0.056,0.002-0.082-0.01c-0.012-0.001-0.023-0.001-0.035-0.002c-0.03-0.015-0.064,0.003-0.094-0.011
		c-0.008-0.001-0.015-0.001-0.023-0.002c-0.031-0.015-0.065,0.002-0.095-0.011l-0.004,0.002L7.981,11.331z"/>
	<path fill="#F36820" d="M8.107,11.344c0.022,0,0.045-0.001,0.067-0.001c0.011,0,0.02,0.004,0.027,0.012
		C8.169,11.355,8.137,11.357,8.107,11.344z"/>
	<path fill="#F36820" d="M7.989,11.331c0.023,0,0.045-0.001,0.068-0.001c0.011,0,0.02,0.004,0.027,0.012
		C8.052,11.343,8.019,11.345,7.989,11.331z"/>
	<path fill="#F25421" d="M6.282,11.15c0.021,0,0.043-0.001,0.064-0.001c0.011,0,0.021,0.004,0.028,0.012
		C6.343,11.161,6.311,11.166,6.282,11.15z"/>
	<path fill="#F36820" d="M8.236,11.357c0.027,0.001,0.057-0.011,0.082,0.01C8.289,11.368,8.262,11.37,8.236,11.357z"/>
	<path fill="#EF3323" d="M3.223,10.826c0.027,0.002,0.056-0.01,0.08,0.01C3.276,10.837,3.248,10.84,3.223,10.826z"/>
	<path fill="#EF3323" d="M3.175,8.688c-0.01,0-0.02-0.001-0.026-0.011C3.159,8.676,3.168,8.68,3.175,8.688z"/>
	<path fill="#EF3323" d="M3.266,8.727c-0.011,0-0.02-0.001-0.026-0.011C3.25,8.714,3.259,8.718,3.266,8.727z"/>
	<path fill="#F46C20" d="M8.497,10.54c0.011-0.001,0.021,0.001,0.028,0.012C8.513,10.553,8.504,10.549,8.497,10.54z"/>
	<path fill="#F46C20" d="M8.525,10.553c0.01,0,0.019,0.002,0.025,0.011C8.54,10.565,8.532,10.561,8.525,10.553z"/>
	<path fill="#F36820" d="M8.072,10.811c-0.011,0.001-0.02-0.001-0.026-0.011C8.057,10.799,8.065,10.802,8.072,10.811z"/>
	<path fill="#F36820" d="M8.163,10.85c-0.011,0.001-0.02-0.001-0.026-0.011C8.147,10.838,8.156,10.841,8.163,10.85z"/>
	<path fill="#F36820" d="M8.278,10.902c-0.01,0-0.019-0.001-0.025-0.011C8.264,10.89,8.272,10.894,8.278,10.902z"/>
	<path fill="#EF3623" d="M3.251,3.781C3.247,3.777,3.243,3.773,3.239,3.768C3.246,3.77,3.25,3.774,3.251,3.781z"/>
	<path fill="#EF3623" d="M3.264,3.794C3.26,3.79,3.256,3.786,3.252,3.782C3.259,3.783,3.263,3.787,3.264,3.794z"/>
	<path fill="#EF3623" d="M3.276,3.807C3.272,3.803,3.268,3.799,3.265,3.795C3.271,3.796,3.275,3.8,3.276,3.807z"/>
	<path fill="#EF3623" d="M3.289,3.82C3.285,3.816,3.281,3.812,3.277,3.808C3.284,3.809,3.288,3.813,3.289,3.82z"/>
	<path fill="#EF3623" d="M3.301,3.833C3.298,3.829,3.294,3.825,3.29,3.822C3.297,3.823,3.301,3.827,3.301,3.833z"/>
	<path fill="#EF3623" d="M3.314,3.846C3.31,3.842,3.307,3.839,3.303,3.835C3.31,3.836,3.313,3.84,3.314,3.846z"/>
	<path fill="#EF3623" d="M3.327,3.859C3.323,3.856,3.32,3.852,3.316,3.848C3.322,3.849,3.326,3.853,3.327,3.859z"/>
	<path fill="#EF3623" d="M3.339,3.872c-0.003-0.003-0.007-0.007-0.01-0.01C3.335,3.863,3.338,3.866,3.339,3.872z"/>
	<path fill="#EF3623" d="M3.351,3.883C3.347,3.881,3.344,3.879,3.342,3.875C3.347,3.875,3.35,3.878,3.351,3.883z"/>
	<path fill="#F04022" d="M4.395,4.996C4.387,4.995,4.382,4.99,4.381,4.982C4.389,4.984,4.393,4.989,4.395,4.996z"/>
	<path fill="#F04022" d="M4.407,5.009C4.4,5.008,4.395,5.003,4.394,4.995C4.401,4.997,4.406,5.002,4.407,5.009z"/>
	<path fill="#EF3623" d="M3.249,8.263c0.007,0,0.012,0.003,0.015,0.009C3.257,8.272,3.252,8.27,3.249,8.263z"/>
	<path fill="#EF3623" d="M3.274,8.275C3.279,8.278,3.285,8.281,3.29,8.284C3.283,8.284,3.278,8.281,3.274,8.275z"/>
	<path fill="#F04022" d="M4.581,5.191C4.578,5.189,4.575,5.186,4.573,5.183C4.578,5.183,4.581,5.186,4.581,5.191z"/>
	<path fill="#EF3323" d="M3.203,8.7c-0.005-0.003-0.01-0.005-0.015-0.008C3.195,8.691,3.199,8.694,3.203,8.7z"/>
	<path fill="#EF3323" d="M3.231,8.712C3.225,8.71,3.219,8.707,3.214,8.704C3.221,8.703,3.227,8.706,3.231,8.712z"/>
	<path fill="#EF3323" d="M3.293,8.739c-0.005-0.003-0.01-0.005-0.015-0.008C3.285,8.73,3.29,8.733,3.293,8.739z"/>
	<path fill="#F04022" d="M4.57,5.18C4.567,5.176,4.563,5.173,4.56,5.17C4.566,5.17,4.569,5.174,4.57,5.18z"/>
	<path fill="#F04022" d="M4.386,8.754c0.008,0,0.014,0.003,0.018,0.009C4.397,8.764,4.39,8.761,4.386,8.754z"/>
	<path fill="#F04022" d="M4.414,8.767C4.42,8.77,4.425,8.773,4.43,8.776C4.423,8.776,4.418,8.773,4.414,8.767z"/>
	<path fill="#F04022" d="M4.44,8.78c0.005,0.003,0.011,0.006,0.016,0.009C4.449,8.79,4.444,8.786,4.44,8.78z"/>
	<path fill="#F04022" d="M4.467,8.793c0.005,0.003,0.01,0.006,0.015,0.008C4.475,8.802,4.47,8.798,4.467,8.793z"/>
	<path fill="#F04022" d="M4.557,5.167C4.554,5.163,4.55,5.16,4.547,5.156C4.553,5.157,4.556,5.161,4.557,5.167z"/>
	<path fill="#F46C20" d="M8.46,9.309C8.456,9.305,8.452,9.3,8.448,9.295C8.456,9.297,8.459,9.302,8.46,9.309z"/>
	<path fill="#F46C20" d="M8.472,9.323C8.468,9.318,8.464,9.314,8.46,9.31C8.467,9.312,8.471,9.316,8.472,9.323z"/>
	<path fill="#F46C20" d="M8.484,9.336C8.481,9.332,8.477,9.328,8.473,9.324C8.48,9.325,8.484,9.329,8.484,9.336z"/>
	<path fill="#F46C20" d="M8.497,9.349C8.493,9.345,8.49,9.341,8.486,9.337C8.493,9.338,8.496,9.342,8.497,9.349z"/>
	<path fill="#F04022" d="M4.445,5.049C4.438,5.047,4.434,5.042,4.432,5.035C4.439,5.037,4.444,5.041,4.445,5.049z"/>
	<path fill="#F46C20" d="M8.522,9.375C8.519,9.371,8.515,9.367,8.511,9.364C8.518,9.365,8.522,9.368,8.522,9.375z"/>
	<path fill="#F46C20" d="M8.535,9.388C8.531,9.384,8.528,9.381,8.524,9.377C8.531,9.378,8.534,9.381,8.535,9.388z"/>
	<path fill="#F46C20" d="M8.547,9.401c-0.003-0.003-0.007-0.007-0.01-0.01C8.543,9.391,8.547,9.395,8.547,9.401z"/>
	<path fill="#F46C20" d="M8.56,9.414C8.557,9.41,8.553,9.407,8.55,9.404C8.556,9.405,8.559,9.408,8.56,9.414z"/>
	<path fill="#F46C20" d="M8.571,9.425C8.568,9.423,8.565,9.421,8.563,9.417C8.568,9.417,8.571,9.42,8.571,9.425z"/>
	<path fill="#F04022" d="M4.544,5.154C4.541,5.15,4.537,5.146,4.534,5.143C4.54,5.144,4.544,5.148,4.544,5.154z"/>
	<path fill="#F04022" d="M4.532,5.141C4.529,5.136,4.525,5.132,4.522,5.128C4.529,5.129,4.532,5.134,4.532,5.141z"/>
	<path fill="#F04022" d="M4.521,5.127C4.517,5.123,4.513,5.118,4.509,5.114C4.516,5.116,4.52,5.12,4.521,5.127z"/>
	<path fill="#F46C20" d="M8.445,10.515c0.005,0.003,0.01,0.007,0.015,0.01C8.452,10.526,8.447,10.522,8.445,10.515z"/>
	<path fill="#F46C20" d="M8.469,10.528c0.006,0.003,0.011,0.006,0.017,0.009C8.478,10.537,8.473,10.534,8.469,10.528z"/>
	<path fill="#F46C20" d="M8.56,10.567c0.005,0.003,0.011,0.006,0.016,0.009C8.569,10.576,8.564,10.573,8.56,10.567z"/>
	<path fill="#F04022" d="M4.509,5.114C4.505,5.11,4.5,5.105,4.496,5.101C4.503,5.102,4.508,5.107,4.509,5.114z"/>
	<path fill="#F04022" d="M4.496,5.101C4.492,5.097,4.488,5.092,4.483,5.088C4.49,5.089,4.495,5.094,4.496,5.101z"/>
	<path fill="#F36820" d="M8.037,10.797c-0.007,0-0.013-0.002-0.017-0.008C8.027,10.788,8.033,10.79,8.037,10.797z"/>
	<path fill="#F04022" d="M4.484,5.088C4.479,5.084,4.475,5.079,4.47,5.074C4.478,5.076,4.482,5.081,4.484,5.088z"/>
	<path fill="#F36820" d="M8.1,10.823c-0.005-0.003-0.01-0.005-0.015-0.008C8.092,10.814,8.097,10.817,8.1,10.823z"/>
	<path fill="#F04022" d="M4.471,5.075C4.464,5.073,4.459,5.068,4.457,5.061C4.465,5.063,4.469,5.068,4.471,5.075z"/>
	<path fill="#F36820" d="M8.128,10.835c-0.007,0-0.013-0.002-0.017-0.008C8.118,10.826,8.124,10.829,8.128,10.835z"/>
	<path fill="#F36820" d="M8.191,10.862c-0.005-0.003-0.01-0.005-0.015-0.008C8.183,10.853,8.188,10.856,8.191,10.862z"/>
	<path fill="#F36820" d="M8.216,10.875c-0.005-0.003-0.01-0.006-0.014-0.009C8.209,10.865,8.213,10.869,8.216,10.875z"/>
	<path fill="#F04022" d="M4.458,5.062C4.451,5.06,4.446,5.055,4.445,5.048C4.452,5.05,4.457,5.054,4.458,5.062z"/>
	<path fill="#F36820" d="M8.243,10.888c-0.007,0-0.012-0.002-0.016-0.008C8.235,10.879,8.24,10.881,8.243,10.888z"/>
	<path fill="#F36820" d="M8.306,10.914c-0.004-0.002-0.009-0.005-0.013-0.007C8.299,10.906,8.304,10.909,8.306,10.914z"/>
	<path fill="#F36820" d="M8.334,10.926c-0.007,0-0.012-0.002-0.016-0.008C8.325,10.917,8.331,10.92,8.334,10.926z"/>
	<path fill="#F04022" d="M4.433,5.036C4.425,5.034,4.421,5.029,4.419,5.022C4.427,5.023,4.431,5.028,4.433,5.036z"/>
	<path fill="#F04022" d="M4.42,5.023C4.412,5.021,4.408,5.016,4.406,5.008C4.414,5.01,4.419,5.015,4.42,5.023z"/>
	<path fill="#F46C20" d="M8.51,9.362C8.506,9.358,8.502,9.354,8.499,9.35C8.505,9.351,8.509,9.355,8.51,9.362z"/>
	<path fill="#F14D21" d="M5.854,1.701C5.873,1.7,5.893,1.698,5.912,1.698c0.341,0,0.683,0,1.024,0c0.019,0,0.038,0.002,0.058,0.003
		C6.98,1.735,6.948,1.728,6.922,1.728c-0.088,0.002-0.177,0.002-0.266,0c-0.05-0.001-0.07,0.018-0.069,0.068
		c0.003,0.148-0.004,0.297,0.008,0.445C6.573,2.257,6.547,2.258,6.522,2.265C6.439,2.287,6.356,2.308,6.272,2.33
		C6.24,2.339,6.238,2.344,6.251,2.376c0.026,0.064,0.052,0.127,0.078,0.191c0.077,0.187,0.153,0.375,0.229,0.562
		c0.004,0.01,0.006,0.02,0.009,0.031C6.559,3.234,6.55,3.308,6.55,3.383c0,0.51,0,1.02,0,1.53c0,0.052-0.001,0.103,0.032,0.148
		c0.013,0.018,0.017,0.04-0.002,0.059C6.527,5.075,6.483,5.022,6.436,4.972C6.37,4.901,6.306,4.828,6.241,4.756
		C6.043,4.541,5.845,4.325,5.647,4.109C5.565,4.02,5.485,3.931,5.404,3.842c-0.006-0.006-0.01-0.014-0.015-0.021
		c-0.02-0.042-0.02-0.088-0.02-0.133c-0.001-0.629-0.001-1.258,0-1.887c0-0.096,0.002-0.097,0.097-0.097
		C5.596,1.702,5.725,1.706,5.854,1.701z"/>
	<path fill="#EF3A22" d="M5.854,1.701C5.837,1.714,5.817,1.709,5.798,1.709c-0.116,0-0.233,0-0.35,0C5.39,1.71,5.39,1.71,5.39,1.766
		c0,0.162,0,0.323,0,0.485c0,0.479,0,0.957,0,1.436c0,0.028-0.004,0.056,0.007,0.083c0.007,0.017-0.008,0.033-0.008,0.05
		C5.365,3.806,5.348,3.783,5.33,3.762c-0.156-0.17-0.311-0.341-0.467-0.511C4.7,3.073,4.537,2.895,4.374,2.717
		C4.291,2.626,4.209,2.535,4.126,2.444C3.944,2.246,3.761,2.047,3.58,1.848C3.538,1.802,3.497,1.755,3.453,1.706
		c0.021-0.013,0.04-0.008,0.058-0.008c0.455,0,0.911,0,1.366-0.001c0.302,0,0.604,0,0.906,0C5.807,1.698,5.83,1.7,5.854,1.701z"/>
	<path fill="#F25F21" d="M6.579,5.12c0.006-0.026-0.003-0.047-0.023-0.063C6.534,5.039,6.528,5.016,6.529,4.988
		c0.001-0.032,0-0.065,0-0.097c0-0.513,0-1.027,0-1.54c0-0.034-0.002-0.068,0.01-0.102c0.006-0.02,0.003-0.043,0.004-0.064
		c0.001-0.016,0.01-0.023,0.024-0.025C6.57,3.162,6.571,3.165,6.57,3.168c0.005,0.01,0.003,0.022,0.012,0.029l0-0.001
		c0.006,0.008,0.004,0.019,0.011,0.027c0.003,0.003,0.004,0.006,0.003,0.01C6.597,3.24,6.602,3.244,6.604,3.249
		c0.001,0.004,0.003,0.008,0.004,0.012c0.007,0.008,0.004,0.019,0.011,0.027c0.003,0.002,0.004,0.005,0.003,0.008
		c0,0.007,0.005,0.012,0.009,0.017c0.003,0.003,0.005,0.007,0.004,0.011C6.64,3.334,6.638,3.346,6.646,3.353l0,0
		c0.007,0.007,0.005,0.018,0.011,0.025c0.003,0.003,0.004,0.006,0.003,0.01C6.666,3.398,6.664,3.41,6.672,3.418l0,0
		C6.68,3.425,6.677,3.436,6.683,3.444c0.003,0.003,0.004,0.006,0.003,0.01c0.003,0.005,0.005,0.01,0.008,0.015
		c0.001,0.004,0.003,0.009,0.004,0.013C6.705,3.49,6.703,3.501,6.71,3.509c0.003,0.002,0.004,0.005,0.003,0.009
		c0.001,0.007,0.006,0.011,0.008,0.017c0.003,0.003,0.005,0.007,0.004,0.012c0.006,0.008,0.004,0.02,0.011,0.027
		C6.739,3.576,6.74,3.579,6.738,3.583c0.001,0.006,0.006,0.011,0.008,0.016C6.748,3.603,6.749,3.607,6.75,3.611
		c0.007,0.008,0.004,0.02,0.011,0.027C6.765,3.64,6.766,3.643,6.765,3.646c0,0.007,0.005,0.012,0.009,0.017
		C6.777,3.667,6.778,3.67,6.777,3.675C6.78,3.68,6.782,3.684,6.785,3.689c0.001,0.005,0.003,0.009,0.004,0.014
		C6.796,3.71,6.793,3.721,6.8,3.729c0.003,0.003,0.004,0.006,0.003,0.011C6.808,3.748,6.806,3.76,6.814,3.768l0,0.001
		c0.007,0.007,0.005,0.018,0.011,0.025c0.003,0.003,0.004,0.006,0.003,0.01c0.002,0.005,0.005,0.01,0.008,0.015
		C6.838,3.823,6.84,3.828,6.841,3.832c0.007,0.007,0.004,0.019,0.011,0.026c0.031,0.073,0.063,0.146,0.093,0.22
		C7.034,4.295,7.123,4.513,7.212,4.73C7.3,4.945,7.387,5.161,7.475,5.376c0.152,0.373,0.305,0.746,0.457,1.119
		C7.95,6.539,7.967,6.583,7.985,6.627C7.991,6.641,7.998,6.654,7.992,6.67l0.001-0.001C7.928,6.6,7.863,6.531,7.799,6.462
		C7.665,6.316,7.531,6.17,7.398,6.024C7.238,5.85,7.078,5.675,6.919,5.5C6.879,5.456,6.84,5.41,6.8,5.365
		C6.798,5.357,6.794,5.352,6.786,5.349L6.788,5.35C6.785,5.343,6.78,5.339,6.774,5.335l0.001,0.001
		C6.772,5.33,6.767,5.326,6.761,5.322l0.001,0.001c-0.003-0.006-0.008-0.01-0.013-0.014l0,0C6.746,5.305,6.742,5.3,6.739,5.295
		L6.737,5.294C6.732,5.291,6.729,5.287,6.726,5.282L6.725,5.28C6.719,5.278,6.716,5.274,6.714,5.269L6.712,5.267
		C6.707,5.265,6.704,5.262,6.703,5.258C6.699,5.257,6.697,5.254,6.696,5.25C6.695,5.241,6.691,5.235,6.682,5.233l0.001,0.002
		C6.682,5.226,6.677,5.222,6.669,5.22l0.001,0.001C6.669,5.214,6.664,5.209,6.657,5.206l0.001,0.001
		C6.656,5.201,6.651,5.196,6.644,5.193l0.001,0.001C6.642,5.188,6.638,5.183,6.632,5.18l0.001,0.001
		C6.629,5.175,6.625,5.17,6.619,5.167L6.62,5.167c-0.004-0.005-0.008-0.01-0.013-0.014l0,0C6.603,5.149,6.599,5.145,6.594,5.14l0,0
		C6.59,5.137,6.587,5.132,6.584,5.128C6.58,5.126,6.579,5.124,6.579,5.12z"/>
	<path fill="#F25F21" d="M6.596,2.242C6.573,2.216,6.567,2.186,6.568,2.153c0.001-0.125,0.001-0.25,0.001-0.374
		c0-0.011,0-0.022,0-0.032C6.57,1.717,6.575,1.711,6.602,1.71c0.015-0.001,0.03,0,0.045,0c0.099,0,0.198,0,0.297,0
		c0.017,0,0.035,0.004,0.049-0.009C7.015,1.7,7.037,1.698,7.059,1.698c0.51,0,1.019,0,1.529,0c0.021,0,0.042,0,0.071,0
		C8.633,1.715,8.613,1.719,8.592,1.724c-0.115,0.029-0.23,0.059-0.345,0.089c-0.223,0.058-0.447,0.117-0.67,0.175
		c-0.223,0.058-0.447,0.117-0.67,0.175c-0.038,0.01-0.074,0.022-0.112,0.032C6.782,2.198,6.767,2.2,6.752,2.202
		C6.74,2.212,6.723,2.203,6.711,2.213L6.706,2.216L6.701,2.215c-0.012,0.01-0.03,0-0.042,0.012L6.654,2.229L6.649,2.228
		C6.64,2.233,6.63,2.232,6.621,2.237C6.612,2.239,6.604,2.24,6.596,2.242z"/>
	<path fill="#F14D21" d="M6.659,2.227C6.67,2.211,6.685,2.214,6.701,2.215C6.689,2.226,6.674,2.228,6.659,2.227z"/>
	<path fill="#F14D21" d="M6.711,2.213c0.011-0.015,0.026-0.012,0.041-0.011C6.74,2.212,6.726,2.215,6.711,2.213z"/>
	<path fill="#F14D21" d="M6.621,2.237c0.007-0.01,0.018-0.01,0.029-0.009C6.641,2.237,6.631,2.238,6.621,2.237z"/>
	<path fill="#F14D21" d="M6.582,3.198C6.57,3.192,6.569,3.181,6.57,3.168C6.58,3.176,6.583,3.186,6.582,3.198z"/>
	<path fill="#F14D21" d="M6.593,3.224c-0.01-0.006-0.012-0.016-0.011-0.027C6.591,3.204,6.594,3.213,6.593,3.224z"/>
	<path fill="#F14D21" d="M6.619,3.289c-0.01-0.006-0.012-0.016-0.011-0.027C6.617,3.269,6.62,3.278,6.619,3.289z"/>
	<path fill="#F14D21" d="M6.646,3.353C6.635,3.347,6.633,3.337,6.634,3.325C6.643,3.333,6.647,3.342,6.646,3.353z"/>
	<path fill="#F14D21" d="M6.657,3.379C6.648,3.373,6.646,3.364,6.646,3.354C6.654,3.36,6.658,3.368,6.657,3.379z"/>
	<path fill="#F14D21" d="M6.672,3.418C6.66,3.412,6.659,3.401,6.66,3.389C6.669,3.397,6.672,3.407,6.672,3.418z"/>
	<path fill="#F14D21" d="M6.683,3.444C6.674,3.438,6.672,3.429,6.672,3.419C6.68,3.425,6.684,3.433,6.683,3.444z"/>
	<path fill="#F14D21" d="M6.71,3.509C6.7,3.502,6.698,3.493,6.698,3.482C6.707,3.489,6.711,3.498,6.71,3.509z"/>
	<path fill="#F14D21" d="M6.736,3.573c-0.01-0.006-0.012-0.016-0.011-0.027C6.734,3.553,6.737,3.562,6.736,3.573z"/>
	<path fill="#F14D21" d="M6.762,3.638C6.752,3.632,6.75,3.622,6.75,3.611C6.759,3.618,6.763,3.627,6.762,3.638z"/>
	<path fill="#F14D21" d="M6.8,3.729C6.79,3.723,6.789,3.713,6.789,3.703C6.797,3.71,6.801,3.718,6.8,3.729z"/>
	<path fill="#F14D21" d="M6.814,3.768C6.803,3.761,6.802,3.751,6.803,3.739C6.812,3.747,6.815,3.757,6.814,3.768z"/>
	<path fill="#F14D21" d="M6.825,3.793C6.816,3.787,6.815,3.778,6.815,3.768C6.823,3.775,6.826,3.783,6.825,3.793z"/>
	<path fill="#F14D21" d="M6.852,3.858c-0.01-0.006-0.012-0.016-0.011-0.026C6.849,3.839,6.853,3.847,6.852,3.858z"/>
	<path fill="#F14D21" d="M6.604,3.249C6.601,3.244,6.599,3.239,6.596,3.233C6.602,3.237,6.605,3.242,6.604,3.249z"/>
	<path fill="#F14D21" d="M6.631,3.314C6.624,3.31,6.622,3.304,6.622,3.297C6.628,3.301,6.631,3.307,6.631,3.314z"/>
	<path fill="#F14D21" d="M6.695,3.469c-0.003-0.005-0.006-0.01-0.008-0.015C6.692,3.457,6.695,3.462,6.695,3.469z"/>
	<path fill="#F14D21" d="M6.721,3.534C6.718,3.529,6.715,3.523,6.713,3.518C6.719,3.521,6.721,3.527,6.721,3.534z"/>
	<path fill="#F14D21" d="M6.747,3.599C6.744,3.594,6.741,3.588,6.738,3.583C6.744,3.586,6.747,3.592,6.747,3.599z"/>
	<path fill="#F14D21" d="M6.773,3.664C6.767,3.66,6.764,3.654,6.765,3.646C6.771,3.65,6.774,3.656,6.773,3.664z"/>
	<path fill="#F14D21" d="M6.785,3.689C6.782,3.685,6.779,3.68,6.777,3.675C6.783,3.678,6.786,3.683,6.785,3.689z"/>
	<path fill="#F14D21" d="M6.837,3.819c-0.003-0.005-0.006-0.01-0.008-0.015C6.835,3.807,6.838,3.812,6.837,3.819z"/>
	<path fill="#F14D21" d="M6.714,5.269C6.717,5.273,6.721,5.277,6.725,5.28C6.718,5.279,6.714,5.276,6.714,5.269z"/>
	<path fill="#F14D21" d="M6.739,5.295C6.742,5.3,6.746,5.305,6.75,5.309C6.743,5.307,6.739,5.302,6.739,5.295z"/>
	<path fill="#F14D21" d="M6.761,5.322c0.007,0.002,0.012,0.007,0.014,0.014C6.767,5.335,6.763,5.33,6.761,5.322z"/>
	<path fill="#F14D21" d="M6.786,5.349C6.795,5.351,6.799,5.356,6.8,5.365C6.793,5.362,6.788,5.357,6.786,5.349z"/>
	<polygon fill="#F25F21" points="7.992,6.67 7.997,6.67 7.992,6.669 	"/>
	<path fill="#F14D21" d="M6.703,5.258c0.003,0.003,0.006,0.006,0.009,0.009C6.706,5.266,6.703,5.263,6.703,5.258z"/>
	<path fill="#F14D21" d="M6.682,5.233C6.691,5.235,6.695,5.241,6.696,5.25C6.689,5.247,6.684,5.241,6.682,5.233z"/>
	<path fill="#F14D21" d="M6.669,5.22c0.008,0.002,0.013,0.006,0.014,0.015C6.675,5.232,6.671,5.227,6.669,5.22z"/>
	<path fill="#F14D21" d="M6.657,5.206c0.008,0.002,0.012,0.007,0.014,0.015C6.663,5.219,6.658,5.214,6.657,5.206z"/>
	<path fill="#F14D21" d="M6.644,5.193C6.652,5.195,6.656,5.2,6.658,5.207C6.65,5.206,6.646,5.201,6.644,5.193z"/>
	<path fill="#F14D21" d="M6.632,5.18c0.007,0.002,0.012,0.007,0.013,0.014C6.638,5.192,6.633,5.187,6.632,5.18z"/>
	<path fill="#F14D21" d="M6.619,5.167c0.004,0.005,0.009,0.009,0.013,0.014C6.625,5.179,6.621,5.174,6.619,5.167z"/>
	<path fill="#F14D21" d="M6.749,5.309c0.004,0.005,0.009,0.009,0.013,0.014C6.755,5.321,6.75,5.317,6.749,5.309z"/>
	<path fill="#F14D21" d="M6.607,5.154C6.611,5.158,6.616,5.163,6.62,5.167C6.613,5.166,6.608,5.161,6.607,5.154z"/>
	<path fill="#F14D21" d="M6.726,5.282C6.73,5.286,6.734,5.29,6.737,5.294C6.731,5.293,6.727,5.289,6.726,5.282z"/>
	<path fill="#F14D21" d="M6.594,5.14c0.004,0.004,0.009,0.009,0.013,0.013C6.6,5.152,6.595,5.148,6.594,5.14z"/>
	<path fill="#F14D21" d="M6.584,5.128c0.003,0.004,0.007,0.008,0.01,0.013C6.587,5.139,6.584,5.135,6.584,5.128z"/>
	<path fill="#F14D21" d="M6.774,5.335C6.781,5.337,6.786,5.342,6.788,5.35C6.78,5.348,6.775,5.343,6.774,5.335z"/>
	<path fill="#F25B21" d="M25.236,1.674c0.017-0.001,0.034-0.003,0.051-0.003c0.337,0,0.674,0,1.011,0
		c0.017,0,0.034,0.002,0.051,0.003c-0.022,0.043-0.063,0.028-0.097,0.029c-0.114,0.003-0.114,0.002-0.114,0.114
		c0,0.724,0,1.449,0,2.173c0,0.004,0,0.009,0,0.013c0.001,0.078,0.001,0.078,0.073,0.076C26.208,4.1,26.19,4.111,26.178,4.125
		c-0.086,0.094-0.173,0.187-0.259,0.281c-0.185,0.202-0.369,0.405-0.553,0.607c-0.097,0.107-0.194,0.214-0.292,0.32
		c-0.017,0.019-0.032,0.041-0.055,0.054C24.981,5.4,24.979,5.37,24.974,5.349c-0.007-0.027-0.004-0.056-0.004-0.084
		c0-0.409,0-0.819,0-1.228c0-0.039,0.004-0.077,0.007-0.116c0.003-0.012,0.005-0.025,0.01-0.037c0.108-0.265,0.217-0.53,0.325-0.795
		c0.097-0.237,0.193-0.475,0.29-0.712c0.008-0.02,0.014-0.04,0.021-0.059C25.603,2.3,25.581,2.3,25.56,2.294
		c-0.135-0.036-0.271-0.069-0.407-0.105c-0.098-0.026-0.195-0.054-0.292-0.081c-0.036-0.021-0.043-0.058-0.045-0.095
		c-0.003-0.09-0.001-0.181-0.001-0.271c0-0.048,0.02-0.067,0.071-0.066C25.003,1.678,25.12,1.681,25.236,1.674z"/>
	<path fill="#F47120" d="M26.212,4.079c-0.025,0.007-0.036,0.03-0.056,0.043c-0.011,0.007-0.028,0.002-0.032-0.01
		c-0.003-0.008-0.005-0.016-0.006-0.025c-0.001-0.017,0-0.034,0-0.052c0-0.754,0-1.509,0-2.263c0-0.017,0-0.035,0-0.052
		c0.001-0.031,0.007-0.036,0.04-0.037c0.05-0.001,0.099,0,0.149,0c0.015,0,0.03,0.003,0.043-0.009
		c0.019-0.001,0.039-0.002,0.058-0.003c0.645,0,1.291,0,1.936-0.001c0.017,0,0.035,0.001,0.052,0.001
		c0.005,0,0.009,0.002,0.009,0.007c0,0.004,0,0.009-0.002,0.012c-0.005,0.007-0.011,0.013-0.017,0.02
		c-0.048,0.053-0.096,0.105-0.144,0.158c-0.088,0.095-0.176,0.19-0.263,0.285c-0.185,0.202-0.369,0.405-0.554,0.607
		c-0.13,0.142-0.26,0.283-0.39,0.424c-0.163,0.178-0.326,0.357-0.489,0.535c-0.1,0.11-0.201,0.22-0.301,0.33
		C26.235,4.06,26.223,4.069,26.212,4.079z"/>
	<path fill="#F14D22" d="M24.977,3.921c0.013,0.021,0.015,0.044,0.015,0.068c-0.001,0.052,0,0.103,0,0.155c0,0.387,0,0.774,0,1.161
		c0,0.019,0,0.039,0.001,0.058c0.001,0.016,0.012,0.021,0.026,0.024c-0.032,0.038-0.063,0.076-0.096,0.112
		c-0.141,0.154-0.283,0.308-0.424,0.462c-0.166,0.181-0.332,0.362-0.498,0.543c-0.033,0.037-0.066,0.074-0.1,0.11
		c-0.008,0.009-0.014,0.021-0.033,0.021c0.021-0.053,0.041-0.105,0.062-0.156c0.121-0.297,0.242-0.595,0.364-0.892
		c0.152-0.373,0.305-0.746,0.457-1.119c0.068-0.168,0.136-0.335,0.205-0.503C24.96,3.951,24.964,3.933,24.977,3.921z"/>
	<path fill="#EF4722" d="M25.236,1.674c-0.015,0.013-0.032,0.009-0.049,0.009c-0.093,0-0.185,0-0.278,0
		c-0.017,0-0.034,0-0.052,0.002c-0.012,0.001-0.019,0.01-0.02,0.021c-0.001,0.015-0.001,0.03-0.001,0.045
		c0,0.08,0.001,0.159-0.001,0.239c-0.001,0.042,0.007,0.081,0.026,0.118c-0.092-0.022-0.184-0.044-0.276-0.067
		c-0.252-0.066-0.505-0.132-0.757-0.199c-0.186-0.049-0.371-0.097-0.557-0.146c-0.018-0.005-0.036-0.011-0.052-0.025
		c0.018,0,0.036,0,0.055,0c0.634,0,1.269,0,1.903,0C25.197,1.671,25.216,1.673,25.236,1.674z"/>
	<path fill="#F04222" d="M9.227,4.951C9.225,4.957,9.224,4.964,9.221,4.969C9.168,5.055,9.114,5.142,9.061,5.227
		C9.057,5.232,9.052,5.236,9.047,5.241C9.042,5.235,9.036,5.232,9.033,5.226c-0.273-0.65-0.546-1.3-0.819-1.948
		c0.012-0.021,0.031-0.021,0.046-0.025C8.492,3.191,8.723,3.13,8.955,3.068c0.071-0.019,0.141-0.04,0.212-0.059
		c0.01-0.003,0.021-0.003,0.032-0.004c0.03,0.033,0.021,0.073,0.021,0.111c0.001,0.541,0.001,1.081,0,1.622
		C9.219,4.809,9.22,4.88,9.227,4.951z"/>
	<path fill="#F25421" d="M9.227,4.951C9.205,4.93,9.197,4.904,9.198,4.875c0.001-0.015,0-0.03,0-0.045c0-0.608,0-1.217,0-1.825
		C9.265,2.98,9.335,2.967,9.404,2.948c0.102-0.029,0.205-0.05,0.306-0.084C9.719,2.861,9.73,2.861,9.741,2.86
		c0.03,0.03,0.021,0.068,0.021,0.104c0.001,0.317,0.001,0.633,0,0.95c0,0.048,0.002,0.095,0.02,0.14
		C9.776,4.079,9.76,4.1,9.746,4.122C9.668,4.248,9.59,4.374,9.512,4.5C9.436,4.623,9.36,4.745,9.283,4.868
		C9.272,4.886,9.259,4.903,9.247,4.921C9.244,4.926,9.241,4.93,9.237,4.934l0,0C9.233,4.938,9.226,4.941,9.226,4.949L9.227,4.951z"
		/>
	<path fill="#F46B20" d="M9.782,4.054C9.756,4.051,9.748,4.03,9.744,4.008C9.741,3.99,9.743,3.97,9.743,3.951
		c0-0.338,0-0.675,0-1.013c0-0.026-0.001-0.052-0.001-0.077c0,0,0,0,0,0c0.008-0.005,0.018-0.004,0.026-0.009
		C9.776,2.85,9.784,2.849,9.792,2.847C9.8,2.842,9.811,2.843,9.819,2.838c0.089-0.024,0.179-0.049,0.268-0.073
		c0.177-0.048,0.353-0.095,0.53-0.142c0.016-0.004,0.032-0.013,0.05-0.006c0.006,0.015-0.006,0.024-0.012,0.034
		c-0.146,0.236-0.292,0.472-0.438,0.708c-0.118,0.19-0.235,0.381-0.353,0.571C9.857,3.942,9.849,3.952,9.842,3.963
		C9.84,3.968,9.837,3.971,9.833,3.974l0,0.001C9.828,3.98,9.823,3.985,9.821,3.992C9.822,3.996,9.82,3.999,9.817,4.001
		C9.814,4.006,9.811,4.01,9.807,4.014l0,0c-0.006,0.005-0.011,0.01-0.012,0.018C9.797,4.036,9.795,4.038,9.792,4.04
		C9.789,4.045,9.785,4.049,9.782,4.054L9.782,4.054z"/>
	<path fill="#F25421" d="M9.819,2.838c-0.007,0.009-0.017,0.01-0.027,0.009C9.799,2.838,9.809,2.837,9.819,2.838z"/>
	<path fill="#F25421" d="M9.767,2.852C9.761,2.861,9.752,2.862,9.742,2.86C9.748,2.852,9.757,2.85,9.767,2.852z"/>
	<path fill="#F25421" d="M9.833,3.974C9.836,3.97,9.839,3.966,9.842,3.963C9.842,3.969,9.838,3.972,9.833,3.974z"/>
	<path fill="#F25421" d="M9.821,3.992c0.001-0.008,0.004-0.013,0.011-0.017C9.832,3.983,9.828,3.988,9.821,3.992z"/>
	<path fill="#F25421" d="M9.807,4.014C9.81,4.01,9.814,4.006,9.817,4.001C9.817,4.008,9.814,4.012,9.807,4.014z"/>
	<path fill="#F25421" d="M9.796,4.032c0-0.008,0.004-0.014,0.012-0.018C9.807,4.022,9.803,4.028,9.796,4.032z"/>
	<path fill="#F25421" d="M9.782,4.054c0.003-0.005,0.006-0.009,0.01-0.014C9.792,4.047,9.789,4.052,9.782,4.054z"/>
	<path fill="#F04222" d="M9.237,4.934c0.003-0.004,0.006-0.009,0.009-0.013C9.247,4.928,9.244,4.932,9.237,4.934z"/>
	<path fill="#F04222" d="M9.226,4.949c0-0.008,0.004-0.013,0.011-0.016C9.237,4.941,9.234,4.947,9.226,4.949z"/>
	<path fill="#F46B20" d="M22.507,2.937c0.008,0.002,0.016,0.003,0.024,0.005c0.008,0.005,0.019,0.004,0.028,0.009
		c0.046,0.002,0.088,0.019,0.132,0.03c0.281,0.074,0.562,0.148,0.844,0.223c0.039,0.01,0.078,0.024,0.117,0.036
		c-0.017,0.057-0.803,1.926-0.829,1.974c-0.018-0.006-0.024-0.024-0.033-0.038c-0.102-0.165-0.204-0.33-0.306-0.495
		c-0.003-0.005-0.005-0.012-0.007-0.018c-0.023-0.095-0.018-0.193-0.018-0.289c0-0.431,0-0.862,0-1.293
		c0-0.03-0.002-0.061,0.004-0.09C22.467,2.965,22.471,2.937,22.507,2.937z"/>
	<path fill="#F14E22" d="M22.507,2.937c-0.02,0.016-0.028,0.037-0.029,0.062c0,0.017,0,0.034,0,0.052c0,0.486,0,0.972,0,1.458
		c0,0.034-0.002,0.068,0.01,0.102c0.006,0.018,0.007,0.039-0.013,0.052c-0.022-0.018-0.032-0.046-0.046-0.069
		c-0.131-0.211-0.262-0.421-0.392-0.632c-0.159-0.257-0.317-0.514-0.476-0.77c-0.085-0.138-0.171-0.275-0.256-0.412
		c-0.033-0.053-0.066-0.106-0.098-0.16c-0.004-0.007-0.007-0.015-0.01-0.022c0.016-0.014,0.03-0.005,0.044-0.002
		c0.142,0.038,0.283,0.076,0.425,0.114c0.16,0.043,0.321,0.084,0.482,0.126c0.11,0.029,0.221,0.06,0.331,0.09
		C22.487,2.928,22.497,2.933,22.507,2.937z"/>
	<path fill="#F14E22" d="M22.558,2.95c-0.011,0.002-0.021,0.001-0.028-0.009C22.541,2.94,22.551,2.942,22.558,2.95z"/>
	<path d="M14.395,6.452c-0.009-0.002-0.018-0.003-0.027-0.005c-0.008-0.004-0.015-0.009-0.023-0.011
		c-0.163-0.052-0.247-0.169-0.276-0.332c-0.013-0.075-0.014-0.149-0.001-0.224c0.028-0.16,0.104-0.284,0.258-0.353
		c0.006-0.003,0.01-0.007,0.016-0.011c0,0,0,0,0,0c0.009-0.007,0.021-0.007,0.03-0.012c0.042-0.007,0.085-0.016,0.127-0.02
		c0.179-0.015,0.326,0.042,0.433,0.191c0.019,0.026,0.037,0.053,0.055,0.079c0.012,0.03,0.025,0.059,0.036,0.089
		c0.063,0.165,0.085,0.336,0.085,0.511c0,0.028-0.003,0.032-0.032,0.04c-0.016,0.004-0.034,0.005-0.049,0.015
		c-0.035-0.003-0.068,0.01-0.101,0.016c-0.167,0.031-0.335,0.046-0.504,0.034C14.414,6.455,14.404,6.455,14.395,6.452z"/>
	<path fill="#F03A23" d="M14.372,5.504c-0.008,0.009-0.018,0.012-0.03,0.012C14.349,5.504,14.36,5.503,14.372,5.504z"/>
	<path fill="#F03A23" d="M14.395,6.452c0.01-0.002,0.02-0.001,0.028,0.007C14.412,6.461,14.402,6.461,14.395,6.452z"/>
</g>
</svg>
