<?xml version="1.0" encoding="utf-8"?>
<!-- Generator: Adobe Illustrator 24.3.0, SVG Export Plug-In . SVG Version: 6.00 Build 0)  -->
<svg version="1.1" id="Слой_1" xmlns="http://www.w3.org/2000/svg" xmlns:xlink="http://www.w3.org/1999/xlink" x="0px" y="0px"
	 width="32px" height="13px" viewBox="0 0 32 13" enable-background="new 0 0 32 13" xml:space="preserve">
<g>
	<path d="M19.857,13c-2.501,0-5.002,0-7.503,0c-0.077-0.078-0.117-0.18-0.171-0.273c-0.371-0.644-0.743-1.287-1.114-1.93
		c-0.339-0.587-0.675-1.175-1.014-1.762C9.753,8.511,9.45,7.987,9.147,7.464C8.975,7.166,8.804,6.867,8.633,6.569
		c-0.029-0.05-0.029-0.089,0-0.139c0.43-0.743,0.861-1.485,1.288-2.23c0.527-0.919,1.06-1.834,1.588-2.753
		C11.766,1,12.025,0.552,12.284,0.104c0.023-0.04,0.035-0.1,0.102-0.097c2.479,0,4.958,0,7.437,0
		c0.045-0.004,0.067,0.024,0.087,0.059c0.343,0.593,0.684,1.187,1.027,1.781c0.306,0.53,0.612,1.061,0.919,1.591
		c0.34,0.589,0.678,1.179,1.018,1.768c0.228,0.396,0.455,0.792,0.688,1.185c0.045,0.077,0.046,0.136,0.002,0.214
		c-0.449,0.781-0.901,1.561-1.351,2.341c-0.365,0.632-0.729,1.266-1.095,1.898c-0.395,0.682-0.789,1.364-1.18,2.049
		C19.916,12.932,19.899,12.976,19.857,13z"/>
	<path fill="#383838" d="M19.857,0c0,0.005-0.001,0.01-0.001,0.015c-0.04,0-0.08,0-0.12,0c-2.422,0-4.844,0-7.266,0
		c-0.038,0-0.075,0.001-0.113,0.001C12.356,0.011,12.355,0.005,12.354,0C14.855,0,17.356,0,19.857,0z"/>
	<path fill="#666666" d="M13.034,12.098c0.019-0.039,0.032-0.066,0.046-0.092c0.061-0.115,0.123-0.23,0.185-0.345
		c0.067-0.126,0.132-0.254,0.201-0.379c0.06-0.109,0.032-0.09,0.147-0.09c1.7,0,3.4,0,5.099-0.001c0.112,0,0.089,0.021,0.151-0.086
		c0.179-0.311,0.36-0.621,0.539-0.932c0.125-0.217,0.249-0.436,0.374-0.653c0.12-0.209,0.242-0.417,0.362-0.625
		c0.125-0.217,0.25-0.435,0.375-0.652c0.094-0.163,0.188-0.326,0.282-0.489c0.114-0.198,0.228-0.395,0.342-0.593
		c0.118-0.204,0.234-0.41,0.353-0.613c0.02-0.034,0.016-0.057-0.002-0.088c-0.183-0.314-0.364-0.63-0.546-0.945
		c-0.18-0.311-0.36-0.621-0.539-0.931c-0.182-0.315-0.362-0.631-0.543-0.946C19.7,3.361,19.54,3.086,19.381,2.81
		c-0.177-0.306-0.353-0.613-0.53-0.919c-0.008-0.013-0.016-0.026-0.023-0.039c-0.011-0.019-0.027-0.028-0.049-0.027
		c-0.023,0.001-0.045,0-0.068,0c-0.808,0-1.617,0-2.425,0c-0.113,0-0.102,0.012-0.102-0.1c0-0.238,0-0.477,0-0.715
		c0-0.023,0-0.045,0.002-0.068c0.001-0.014,0.01-0.023,0.023-0.025c0.017-0.002,0.035-0.002,0.053-0.002c1.002,0,2.004,0,3.005,0
		c0.076,0,0.066-0.002,0.1,0.057c0.084,0.146,0.168,0.291,0.252,0.437c0.11,0.191,0.22,0.383,0.33,0.574
		c0.122,0.211,0.243,0.422,0.365,0.632c0.104,0.18,0.208,0.361,0.312,0.541c0.122,0.211,0.243,0.421,0.365,0.632
		c0.147,0.254,0.293,0.509,0.439,0.763c0.121,0.211,0.243,0.422,0.365,0.632c0.139,0.241,0.279,0.482,0.418,0.723
		c0.102,0.176,0.203,0.352,0.305,0.528c0.004,0.007,0.006,0.014,0.011,0.02c0.025,0.034,0.025,0.065,0.002,0.103
		c-0.048,0.076-0.091,0.156-0.136,0.234c-0.108,0.187-0.215,0.374-0.322,0.561c-0.12,0.209-0.241,0.417-0.361,0.626
		c-0.104,0.18-0.208,0.361-0.313,0.541c-0.103,0.178-0.206,0.356-0.309,0.534c-0.104,0.18-0.208,0.361-0.312,0.541
		c-0.128,0.222-0.255,0.444-0.383,0.666c-0.105,0.183-0.21,0.365-0.315,0.548c-0.117,0.202-0.233,0.404-0.35,0.606
		c-0.121,0.208-0.241,0.417-0.362,0.625c-0.008,0.013-0.015,0.026-0.022,0.039c-0.007,0.012-0.018,0.018-0.031,0.018
		c-0.018,0.001-0.035,0.001-0.053,0.001c-2.049,0-4.098,0-6.146,0C13.092,12.098,13.07,12.098,13.034,12.098z"/>
	<path fill="#FF12EE" d="M11.992,2.229c0.004-0.026,0.021-0.045,0.034-0.067c0.135-0.235,0.271-0.469,0.406-0.704
		c0.115-0.2,0.23-0.4,0.345-0.6c0.009-0.015,0.018-0.03,0.027-0.045c0.008-0.015,0.021-0.021,0.037-0.021c0.018,0,0.035,0,0.053,0
		c1.017,0,2.033,0,3.05,0c0.015,0,0.03,0,0.045,0c0.039,0.002,0.042,0.004,0.042,0.045c0,0.171,0,0.341,0,0.512
		c0,0.168,0,0.336,0,0.504c0,0.018,0,0.035,0,0.053c-0.001,0.038-0.003,0.04-0.044,0.041c-0.02,0-0.04,0-0.06,0
		c-0.786,0-1.571,0-2.357,0c-0.1,0-0.076-0.014-0.128,0.072c-0.036,0.06-0.072,0.12-0.108,0.18c-0.044,0.04-0.093,0.068-0.155,0.068
		c-0.356-0.001-0.711,0.032-1.067,0.031c-0.025,0-0.051,0.001-0.075-0.006C12.004,2.282,11.976,2.27,11.992,2.229z"/>
	<path fill="#FDA663" d="M10.762,8.647c-0.002-0.004-0.004-0.009-0.006-0.013c-0.003-0.006-0.007-0.012-0.011-0.017
		c-0.004-0.002-0.006-0.006-0.005-0.01c-0.001-0.008-0.007-0.014-0.012-0.021l0-0.001c-0.016-0.032,0.005-0.046,0.029-0.057
		c0.018-0.009,0.039-0.01,0.059-0.01C11,8.526,11.185,8.504,11.37,8.5c0.182-0.004,0.365-0.01,0.547-0.018
		c0.028-0.001,0.055-0.004,0.08,0.013c0.012,0.019,0.026,0.036,0.037,0.056c0.203,0.351,0.406,0.702,0.608,1.054
		c0.121,0.21,0.242,0.421,0.363,0.632c0.01,0.017,0.017,0.036,0.026,0.053c-0.084,0.038-0.176,0.035-0.264,0.037
		c-0.338,0.006-0.676,0.024-1.014,0.037c-0.017-0.013-0.023-0.032-0.033-0.049c-0.279-0.483-0.557-0.967-0.836-1.451
		c-0.009-0.015-0.015-0.031-0.022-0.047c-0.002-0.007-0.007-0.012-0.011-0.018c-0.009-0.009-0.017-0.018-0.018-0.032
		c-0.005-0.003-0.008-0.008-0.009-0.013c-0.002-0.005-0.004-0.01-0.007-0.014c-0.004-0.005-0.007-0.011-0.011-0.016
		C10.801,8.72,10.799,8.716,10.8,8.711c-0.002-0.008-0.007-0.013-0.012-0.019c-0.004-0.001-0.006-0.004-0.004-0.008
		c0-0.01-0.006-0.016-0.013-0.022l0,0C10.767,8.658,10.764,8.653,10.762,8.647z"/>
	<path fill="#FD8682" d="M11.996,8.494c-0.131,0.027-0.264,0.014-0.396,0.017c-0.035,0.001-0.07-0.001-0.104,0.011
		c-0.018,0.007-0.04,0.004-0.06,0.004c-0.073,0-0.145,0-0.218,0c-0.045,0-0.09-0.003-0.134,0.012
		c-0.02,0.007-0.045,0.003-0.067,0.003c-0.08,0-0.16,0-0.241,0c-0.029,0-0.048,0.012-0.05,0.044
		c-0.011-0.016-0.023-0.032-0.033-0.049c-0.298-0.515-0.596-1.031-0.893-1.547c-0.04-0.069-0.076-0.14-0.114-0.21
		C9.77,6.761,9.856,6.759,9.939,6.759c0.212,0,0.424-0.02,0.636-0.02c0.132,0,0.264-0.011,0.395-0.026
		c0.041,0.054,0.071,0.115,0.104,0.173c0.161,0.28,0.322,0.56,0.483,0.839c0.137,0.238,0.275,0.477,0.413,0.715
		C11.98,8.458,11.988,8.476,11.996,8.494z"/>
	<path fill="#FE60A5" d="M10.97,6.713c-0.004,0.023-0.016,0.035-0.04,0.035c-0.047,0-0.095,0-0.142,0c-0.027,0-0.054,0-0.081,0.008
		c-0.021,0.006-0.044,0.006-0.067,0.006c-0.077,0.001-0.155,0-0.232,0c-0.04,0-0.079-0.003-0.118,0.011
		c-0.018,0.006-0.04,0.003-0.059,0.003c-0.075,0-0.15,0-0.225,0c-0.047,0-0.094,0.003-0.141,0.011
		C9.806,6.798,9.744,6.805,9.687,6.779C9.625,6.691,9.578,6.594,9.522,6.502c0.027-0.048,0.053-0.093,0.079-0.139
		c0.246-0.427,0.493-0.854,0.739-1.28c0.011-0.019,0.025-0.037,0.037-0.055c0.149-0.013,0.299-0.008,0.449-0.015
		c0.266-0.013,0.534-0.018,0.8-0.029c0.031-0.001,0.06,0.004,0.079,0.033c-0.006,0.028-0.024,0.049-0.037,0.073
		c-0.258,0.447-0.516,0.893-0.773,1.34c-0.05,0.086-0.048,0.058,0,0.147C10.92,6.621,10.952,6.664,10.97,6.713z"/>
	<path fill="#FE44C0" d="M11.705,5.016c-0.041-0.013-0.081-0.021-0.124-0.003c-0.015,0.006-0.035,0.003-0.052,0.003
		c-0.072,0-0.145,0-0.217,0c-0.052,0-0.105-0.005-0.156,0.013c-0.016,0.005-0.035,0.002-0.052,0.002c-0.072,0-0.145,0-0.217,0
		c-0.045,0-0.09-0.005-0.133,0.013c-0.007,0.003-0.015,0.002-0.022,0.002c-0.105,0-0.21,0-0.315,0c-0.016,0-0.029-0.005-0.038-0.019
		c-0.001-0.005,0.001-0.009,0.006-0.012c0.004-0.006,0.007-0.011,0.011-0.017c0.002-0.004,0.004-0.009,0.006-0.013
		c0.002-0.005,0.006-0.01,0.01-0.014l0,0c0.007-0.006,0.013-0.012,0.013-0.022c-0.001-0.004,0-0.007,0.004-0.009
		c0.005-0.006,0.01-0.011,0.011-0.019c-0.001-0.005,0.001-0.009,0.006-0.012c0.003-0.005,0.007-0.011,0.01-0.016
		c0.002-0.005,0.004-0.01,0.007-0.015c0.002-0.005,0.005-0.01,0.009-0.013l0-0.001c0.006-0.006,0.012-0.012,0.012-0.021
		c-0.001-0.005,0-0.008,0.005-0.01c0.004-0.005,0.008-0.011,0.011-0.018c-0.001-0.006,0.001-0.01,0.006-0.013
		c0.003-0.005,0.006-0.01,0.01-0.015c0.002-0.005,0.005-0.011,0.007-0.016c0.001-0.005,0.004-0.009,0.008-0.012l0.001-0.002
		c0.005-0.006,0.011-0.012,0.012-0.02c-0.001-0.005,0.001-0.009,0.005-0.011c0.004-0.005,0.007-0.011,0.01-0.017
		c0.002-0.005,0.004-0.009,0.006-0.014c0.002-0.005,0.006-0.01,0.01-0.014c0.003-0.006,0.005-0.011,0.008-0.017
		c-0.001-0.006,0.002-0.01,0.007-0.011c0.009-0.018,0.016-0.036,0.026-0.053c0.178-0.31,0.356-0.62,0.534-0.93
		c0.012-0.021,0.027-0.041,0.041-0.062c0.198,0.012,0.395-0.008,0.592-0.013c0.22-0.006,0.44-0.017,0.66-0.022
		c0.027-0.001,0.056,0,0.077,0.023c-0.006,0.014-0.011,0.028-0.018,0.041c-0.257,0.446-0.514,0.893-0.771,1.339
		C11.724,4.993,11.714,5.004,11.705,5.016z"/>
	<path fill="#FE2DD5" d="M12.52,3.6c-0.063,0-0.125,0-0.188,0c-0.045,0-0.09-0.004-0.134,0.012
		c-0.016,0.006-0.035,0.003-0.052,0.003c-0.083,0-0.165,0-0.248,0c-0.04,0-0.08-0.003-0.119,0.012
		c-0.018,0.006-0.04,0.003-0.06,0.003c-0.08,0-0.16,0-0.24,0c-0.035,0-0.069,0.005-0.104,0.01c-0.051,0.008-0.105,0.004-0.157,0.003
		c-0.018,0-0.023-0.016-0.027-0.031c0.006-0.014,0.011-0.028,0.019-0.04c0.251-0.436,0.503-0.872,0.755-1.308
		c0.007-0.013,0.017-0.024,0.026-0.036c0.003,0.029,0.019,0.046,0.049,0.046c0.107,0,0.216,0.011,0.322-0.003
		c0.11-0.014,0.219-0.007,0.328-0.012c0.045-0.002,0.089,0.003,0.133-0.012c0.018-0.006,0.04-0.003,0.06-0.003
		c0.09,0,0.18-0.001,0.27,0c0.049,0.001,0.094-0.006,0.134-0.036c0.013-0.01,0.028-0.01,0.043-0.01
		c-0.009,0.018-0.017,0.036-0.026,0.053c-0.25,0.433-0.5,0.866-0.751,1.299C12.544,3.568,12.537,3.588,12.52,3.6z"/>
	<path fill="#FCCE3E" d="M11.752,10.363c0.011-0.024,0.031-0.03,0.056-0.029c0.05,0.001,0.1,0,0.15,0c0.03,0,0.059,0.001,0.089-0.01
		c0.018-0.006,0.039-0.005,0.059-0.005c0.08-0.001,0.16,0,0.24,0c0.045,0,0.09,0.004,0.133-0.012
		c0.016-0.006,0.035-0.003,0.052-0.003c0.067,0,0.135,0,0.202,0c0.052-0.001,0.104,0,0.156-0.011
		c0.045-0.01,0.094-0.003,0.142-0.003c0.009,0.012,0.018,0.024,0.026,0.037c0.126,0.217,0.251,0.434,0.377,0.652
		c0.006,0.011,0.012,0.022,0.018,0.033c0.004,0.008,0.002,0.017-0.005,0.018c-0.041,0.006-0.047,0.042-0.062,0.069
		c-0.18,0.339-0.36,0.678-0.54,1.017c-0.012,0.022-0.019,0.047-0.04,0.063c-0.016,0.001-0.018-0.014-0.024-0.024
		c-0.33-0.571-0.66-1.143-0.989-1.714c-0.005-0.008-0.008-0.018-0.012-0.027c-0.003-0.006-0.007-0.012-0.011-0.018
		c-0.004-0.002-0.006-0.005-0.005-0.01C11.763,10.376,11.757,10.37,11.752,10.363L11.752,10.363z"/>
	<path fill="#FD9D6C" d="M17.221,6.961c0,0.035-0.029,0.063-0.027,0.099c0.013,0.013,0.029,0.009,0.043,0.009
		c0.205,0,0.41,0,0.614,0c0.01,0,0.02,0,0.03-0.001c0.017-0.001,0.028-0.01,0.028-0.028c0-0.032,0-0.065,0.001-0.097
		c0-0.02,0.002-0.04,0.003-0.06c0.024-0.022,0.054-0.023,0.085-0.023c0.19,0.002,0.378-0.026,0.568-0.015
		c0.058,0.003,0.118-0.034,0.174,0.008c0.001,0.06,0.002,0.12,0.004,0.18c0.001,0.029,0.006,0.035,0.036,0.035
		c0.045,0.001,0.09,0,0.135,0c0.035,0,0.07,0,0.105,0c0.103,0,0.094-0.01,0.095,0.091c0,0.065,0,0.13,0,0.195c0,0.14,0,0.28,0,0.421
		c0,0.019,0.007,0.04-0.009,0.058c-0.028-0.025-0.024-0.059-0.025-0.091c-0.002-0.065-0.001-0.13-0.001-0.195
		c0-0.048-0.02-0.066-0.069-0.064c-0.253,0.013-0.505,0.019-0.758,0.028c-0.42,0.016-0.841,0.03-1.261,0.046
		c-0.213,0.008-0.425,0.012-0.638,0.025c-0.049,0.003-0.072,0.039-0.11,0.053c-0.001-0.097,0.002-0.195-0.004-0.292
		c-0.007-0.115,0.011-0.223,0.062-0.326c0.01-0.02,0.012-0.043,0.028-0.06c0.023-0.018,0.05-0.023,0.078-0.022
		c0.175,0.008,0.349-0.024,0.525-0.016c0.075,0.004,0.149-0.02,0.224-0.013C17.186,6.911,17.231,6.905,17.221,6.961z"/>
	<path fill="#FCD13A" d="M15.744,7.865C15.706,8,15.632,8.115,15.537,8.217c-0.128,0.138-0.289,0.222-0.467,0.275
		c-0.12,0.036-0.244,0.056-0.37,0.065c-0.201,0.013-0.401,0.004-0.601-0.011c-0.255-0.02-0.508-0.055-0.761-0.096
		c-0.037-0.006-0.074-0.012-0.111-0.019c-0.016-0.003-0.028-0.011-0.026-0.03c0.019-0.159,0.038-0.318,0.058-0.477
		c0.02-0.038,0.057-0.039,0.092-0.038c0.203,0.007,0.406-0.011,0.608-0.019c0.328-0.012,0.655-0.024,0.983-0.037
		c0.238-0.01,0.475-0.029,0.713-0.019C15.69,7.812,15.748,7.792,15.744,7.865z"/>
	<path fill="#FF1AE6" d="M15.412,4.67c0.059,0.031,0.101,0.08,0.142,0.13c0.09,0.108,0.142,0.234,0.173,0.369
		c0.01,0.044,0.023,0.087,0.018,0.133c-0.042,0.04-0.096,0.035-0.148,0.038c-0.216,0.013-0.434,0.01-0.65,0.028
		c-0.063,0.005-0.125,0-0.18-0.037c-0.122-0.089-0.261-0.124-0.41-0.124c-0.203-0.001-0.406,0.009-0.609,0.029
		c-0.14,0.014-0.279,0.029-0.421,0.044c-0.016-0.026-0.012-0.057-0.015-0.086c-0.014-0.12-0.026-0.239-0.039-0.359
		c-0.002-0.02-0.001-0.04-0.001-0.06c0.087-0.042,0.182-0.034,0.272-0.036c0.358-0.005,0.715-0.026,1.073-0.036
		C14.883,4.696,15.148,4.689,15.412,4.67z"/>
	<path fill="#FDBA51" d="M16.244,7.637c0.004-0.009,0.01-0.017,0.012-0.027c0.01-0.047,0.01-0.047,0.057-0.048
		c0.04-0.001,0.08,0,0.12,0c0.03,0,0.06,0,0.089-0.01c0.018-0.006,0.04-0.005,0.059-0.005c0.07-0.001,0.14,0,0.211,0
		c0.05,0,0.1,0.004,0.149-0.013c0.016-0.005,0.035-0.002,0.052-0.002c0.078,0,0.156,0,0.233,0c0.045,0,0.09,0.004,0.134-0.012
		c0.016-0.006,0.035-0.003,0.052-0.003c0.075,0,0.151,0,0.226,0c0.042,0,0.085,0.004,0.126-0.012
		c0.016-0.006,0.035-0.003,0.052-0.003c0.073,0,0.145,0,0.218,0c0.052-0.001,0.105,0.005,0.156-0.013
		c0.016-0.005,0.035-0.002,0.052-0.002c0.07,0,0.14,0,0.211,0c0.047,0,0.095,0.005,0.141-0.012c0.016-0.006,0.035-0.003,0.052-0.003
		c0.075,0,0.151,0,0.226,0c0.042,0,0.084,0.002,0.127-0.011c0.023-0.007,0.05-0.003,0.075-0.002c0.018,0.001,0.026,0.013,0.027,0.03
		c0.001,0.02,0.001,0.04,0.001,0.06c0.001,0.095,0.001,0.191,0.002,0.286c-0.01,0.016-0.026,0.011-0.041,0.011
		c-0.075,0-0.15,0-0.225,0c-0.017,0-0.035,0-0.052,0c-0.041,0.001-0.043,0.003-0.044,0.041c-0.001,0.035,0,0.07,0,0.105
		c-0.001,0.047-0.002,0.095-0.003,0.142c-0.12-0.065-0.249-0.039-0.373-0.029c-0.14,0.011-0.28-0.001-0.42,0.013
		c-0.013,0.001-0.024-0.005-0.034-0.013c-0.001-0.055-0.003-0.11-0.004-0.165c0-0.023,0-0.045-0.001-0.068
		c0-0.015-0.008-0.024-0.023-0.025c-0.023-0.001-0.045-0.001-0.068-0.001c-0.492,0-0.984,0-1.476,0c-0.02,0-0.04,0-0.06,0
		c-0.04-0.001-0.042-0.003-0.042-0.044C16.241,7.747,16.243,7.692,16.244,7.637z"/>
	<path fill="#FDB555" d="M15.744,7.865c-0.003-0.016-0.009-0.029-0.028-0.03c-0.018-0.001-0.035-0.001-0.053-0.001
		c-0.078,0-0.156,0-0.233,0c-0.042,0-0.085-0.003-0.127,0.012c-0.018,0.006-0.04,0.003-0.06,0.003c-0.08,0-0.161,0-0.241,0
		c-0.04,0-0.08-0.003-0.119,0.011c-0.018,0.006-0.04,0.003-0.06,0.003c-0.078,0-0.156,0-0.233,0c-0.037,0-0.075-0.002-0.112,0.011
		c-0.018,0.007-0.04,0.004-0.06,0.004c-0.073,0-0.146,0-0.218,0c-0.045,0-0.09-0.004-0.134,0.012
		c-0.016,0.006-0.035,0.003-0.052,0.003c-0.08,0-0.161,0-0.241,0c-0.042,0-0.085-0.003-0.127,0.012
		c-0.018,0.006-0.04,0.003-0.06,0.003c-0.083,0-0.166,0-0.249,0c-0.028,0-0.055-0.001-0.08,0.015
		c-0.005-0.061,0.013-0.119,0.016-0.179c0.001-0.019,0.011-0.025,0.03-0.024c0.12,0.009,0.24,0.019,0.36,0.028
		c0.085,0.007,0.17,0.015,0.255,0.019c0.163,0.007,0.325,0.02,0.489,0.017c0.088-0.002,0.175-0.013,0.259-0.041
		c0.05-0.017,0.097-0.039,0.14-0.071c0.078-0.057,0.128-0.133,0.152-0.226c0.008-0.031,0.013-0.064,0.019-0.096
		c0.01-0.094,0.013-0.099,0.109-0.097c0.215,0.006,0.428-0.026,0.643-0.016c0.042,0.002,0.088-0.004,0.102,0.053
		c0.009,0.19-0.019,0.375-0.076,0.555C15.754,7.852,15.748,7.858,15.744,7.865z"/>
	<path fill="#FE7393" d="M13.655,6.764c-0.001-0.105-0.003-0.21-0.003-0.315c0-0.06,0.002-0.12,0.003-0.18
		c0.04,0.091,0.115,0.075,0.193,0.069c0.144-0.012,0.29-0.01,0.435-0.014c0.208-0.006,0.415-0.023,0.623-0.02
		c0.122,0.002,0.244-0.023,0.367-0.014c0.037,0.003,0.077-0.003,0.098,0.039c-0.014,0.024-0.046,0.029-0.06,0.057
		c0.021,0.022,0.049,0.033,0.075,0.048c0.086,0.052,0.168,0.109,0.237,0.183c0.017,0.018,0.036,0.035,0.045,0.059
		c-0.009,0.042-0.045,0.034-0.072,0.036c-0.283,0.016-0.566,0.02-0.849,0.033c-0.331,0.016-0.662,0.018-0.992,0.04
		C13.72,6.786,13.684,6.792,13.655,6.764z"/>
	<path fill="#FE7096" d="M18.74,6.854c-0.035,0-0.069-0.001-0.103,0.011c-0.018,0.006-0.039,0.003-0.059,0.004
		c-0.08,0-0.16,0-0.239,0c-0.042,0-0.084-0.003-0.126,0.012c-0.018,0.006-0.039,0.003-0.059,0.003c-0.08,0-0.16,0-0.239,0
		c-0.001-0.02-0.003-0.04-0.003-0.06c0-0.241,0-0.481,0-0.722c0-0.081-0.004-0.075,0.071-0.075c0.231,0,0.461,0,0.692,0
		c0.015,0,0.03,0,0.045,0.001c0.014,0,0.023,0.007,0.025,0.022c0.001,0.01,0.001,0.02,0.001,0.03c0,0.248,0,0.496,0,0.744
		C18.743,6.834,18.741,6.844,18.74,6.854z"/>
	<path fill="#FD8C7B" d="M13.655,6.764c0.052-0.001,0.105,0.004,0.156-0.013c0.016-0.005,0.035-0.002,0.052-0.002
		c0.083,0,0.165,0,0.248,0c0.037,0,0.074,0.002,0.111-0.011c0.018-0.006,0.04-0.003,0.06-0.003c0.073,0,0.145,0,0.218,0
		c0.045,0,0.09,0.004,0.134-0.012c0.016-0.006,0.035-0.003,0.052-0.003c0.078,0,0.155,0,0.233,0c0.04,0,0.079,0.003,0.119-0.011
		c0.018-0.006,0.04-0.003,0.06-0.003c0.075,0,0.15,0,0.225,0c0.047,0,0.094-0.001,0.141-0.011c0.048-0.01,0.1-0.003,0.15-0.004
		c0.02,0,0.041,0.004,0.056-0.014c0.057,0.059,0.089,0.133,0.113,0.209c0.042,0.132,0.061,0.268,0.052,0.407
		c-0.017-0.02-0.036-0.031-0.064-0.03c-0.105,0.002-0.211,0.001-0.316,0.001c-0.008,0-0.016-0.001-0.023,0.001
		c-0.084,0.024-0.169,0.011-0.254,0.014c-0.048,0.001-0.095,0-0.143,0.001c-0.033,0.001-0.035,0.002-0.041,0.04
		c-0.002,0.013-0.003,0.025-0.012,0.034c-0.007-0.047-0.001-0.095-0.01-0.142c-0.029-0.146-0.118-0.24-0.251-0.297
		c-0.058-0.025-0.119-0.039-0.182-0.042c-0.055-0.003-0.11-0.005-0.165-0.006c-0.208-0.001-0.417,0-0.625,0
		c-0.02,0-0.04,0-0.06-0.001c-0.025-0.001-0.032-0.007-0.032-0.031C13.652,6.809,13.654,6.786,13.655,6.764z"/>
	<path fill="#FE2AD7" d="M17.986,4.941c-0.019,0.054-0.038,0.108-0.058,0.162c-0.061,0.162-0.122,0.323-0.184,0.485
		c-0.008,0.021-0.019,0.041-0.028,0.061c-0.009,0.009-0.007,0.023-0.013,0.034c0.002,0.005,0.001,0.008-0.003,0.011
		c-0.008,0.006-0.017,0.011-0.027,0.011c-0.249,0.005-0.497,0.013-0.746,0.028c-0.027,0.002-0.055,0.002-0.082-0.006
		c-0.026-0.007-0.047-0.019-0.035-0.052c0.004-0.014,0.007-0.029,0.012-0.043c0.08-0.213,0.16-0.426,0.24-0.639
		c0.005-0.014,0.006-0.03,0.02-0.04c0.209,0.008,0.418-0.005,0.627-0.016C17.802,4.932,17.895,4.925,17.986,4.941z"/>
	<path fill="#FE56AE" d="M16.811,5.674c0.004,0.018,0.011,0.035,0.033,0.034c0.069-0.003,0.14,0.011,0.208-0.01
		c0.018-0.006,0.04-0.003,0.06-0.004c0.075,0,0.15,0,0.225,0c0.042,0,0.084-0.005,0.126-0.01c0.079-0.009,0.159-0.015,0.237,0.01
		c-0.001,0.026-0.014,0.047-0.023,0.07c-0.063,0.167-0.126,0.335-0.19,0.502c-0.008,0.021-0.018,0.04-0.028,0.061
		c-0.056,0.029-0.119,0.016-0.177,0.017c-0.211,0.005-0.421,0.023-0.631,0.019c-0.033,0-0.089,0.017-0.081-0.054
		c0-0.026,0.013-0.048,0.022-0.071c0.063-0.168,0.126-0.336,0.19-0.504C16.791,5.714,16.795,5.691,16.811,5.674z"/>
	<path fill="#FE5EA6" d="M15.371,6.328c-0.023-0.012-0.046-0.017-0.072-0.017c-0.07,0.001-0.14,0-0.21,0
		c-0.008,0-0.016-0.001-0.022,0.001c-0.076,0.024-0.154,0.012-0.231,0.014c-0.045,0.001-0.09,0-0.135,0
		c-0.013,0-0.026-0.002-0.037,0.001c-0.104,0.027-0.209,0.009-0.313,0.014c-0.05,0.002-0.1-0.004-0.149,0.013
		c-0.016,0.005-0.035,0.002-0.052,0.002c-0.08,0-0.16,0-0.24,0c-0.042,0-0.084-0.001-0.126,0.011
		c-0.028,0.008-0.06,0.003-0.089,0.002c-0.018,0-0.025-0.013-0.028-0.03c-0.003-0.024,0.006-0.05-0.01-0.073
		c-0.003-0.042-0.011-0.084,0.006-0.125l0,0c0.023-0.016,0.049-0.009,0.073-0.009c0.216-0.001,0.432-0.005,0.647,0.001
		c0.166,0.004,0.297-0.058,0.402-0.182c0.006-0.008,0.014-0.014,0.021-0.021c0.024-0.014,0.05-0.021,0.078-0.021
		c0.244-0.001,0.488-0.018,0.733-0.022c0.031-0.001,0.06,0.003,0.081,0.03c-0.02,0.076-0.062,0.142-0.109,0.204
		C15.527,6.203,15.457,6.275,15.371,6.328z"/>
	<path fill="#FE7294" d="M16.572,6.31c0.003,0.015,0.008,0.029,0.027,0.031c0.015,0.001,0.03,0.002,0.045,0.001
		c0.092-0.005,0.184,0.012,0.275-0.014c0.016-0.005,0.035-0.001,0.052-0.001c0.085,0,0.17,0,0.254,0c0.032,0,0.064,0,0.096-0.01
		c0.031-0.01,0.064-0.008,0.096,0.003c0.014,0.005,0.029,0.005,0.044,0.008c-0.004,0.014-0.007,0.029-0.012,0.043
		c-0.073,0.193-0.145,0.387-0.218,0.58c-0.002,0.004-0.006,0.008-0.009,0.012c-0.003-0.016-0.009-0.03-0.027-0.03
		c-0.047-0.001-0.095-0.009-0.141,0.007c-0.022,0.007-0.044,0.006-0.067,0.007c-0.062,0-0.125,0-0.187,0
		c-0.047,0-0.095-0.005-0.141,0.012c-0.011,0.004-0.025,0.002-0.037,0.002c-0.097,0-0.195-0.001-0.292-0.001
		c0-0.021,0.008-0.039,0.015-0.057c0.071-0.189,0.142-0.377,0.213-0.566C16.561,6.326,16.567,6.318,16.572,6.31z"/>
	<path fill="#FE03FB" d="M15.412,4.67c-0.012,0.023-0.031,0.03-0.056,0.03c-0.048-0.001-0.095,0-0.143,0
		c-0.018,0-0.036-0.003-0.053,0.001c-0.107,0.026-0.215,0.009-0.322,0.014c-0.052,0.002-0.105-0.005-0.157,0.013
		C14.666,4.733,14.647,4.73,14.63,4.73c-0.08,0-0.161,0-0.241,0c-0.035,0-0.07-0.002-0.104,0.011
		c-0.018,0.007-0.04,0.004-0.06,0.004c-0.08,0-0.161,0-0.241,0c-0.042,0-0.085-0.003-0.127,0.012
		c-0.016,0.006-0.035,0.003-0.052,0.003c-0.078,0-0.156,0-0.233,0c-0.04,0-0.08-0.003-0.119,0.012
		c-0.016,0.006-0.035,0.003-0.052,0.003c-0.043,0-0.085,0-0.128,0c-0.004-0.004-0.004-0.008-0.001-0.012
		C13.257,4.734,13.274,4.7,13.26,4.67c-0.006-0.019-0.008-0.038-0.004-0.057c-0.004-0.01-0.007-0.019,0.002-0.028
		c0.009-0.008,0.019-0.009,0.03-0.007c0.013-0.011,0.031-0.001,0.045-0.011c0.01-0.002,0.019-0.003,0.029-0.005
		c0.01-0.005,0.021-0.005,0.031-0.008c0.014-0.006,0.028-0.009,0.044-0.007c0.01-0.004,0.021-0.004,0.032-0.008
		c0.014-0.006,0.029-0.009,0.044-0.007c0.014-0.009,0.032-0.001,0.046-0.01c0.072-0.021,0.147-0.029,0.222-0.04
		c0.196-0.03,0.392-0.054,0.591-0.055c0.161-0.001,0.321,0.004,0.48,0.031c0.007,0.001,0.015,0.004,0.022,0.005
		c0.014,0.008,0.031,0,0.045,0.01c0.01,0.001,0.02,0.003,0.03,0.004c0.013,0.01,0.031,0,0.044,0.011
		c0.011,0.002,0.021,0.004,0.032,0.006c0.009,0.003,0.02,0.003,0.028,0.009c0.005,0.001,0.011,0.002,0.016,0.003
		c0.009,0.007,0.022,0.005,0.031,0.011c0.005-0.002,0.01-0.001,0.014,0.004c0.009,0.008,0.022,0.006,0.032,0.011
		c0.005-0.002,0.01,0,0.013,0.004c0.008,0.008,0.021,0.005,0.03,0.012c0.005,0.002,0.01,0.003,0.015,0.005
		c0.006,0.004,0.012,0.007,0.018,0.009c0.005-0.002,0.009,0,0.012,0.004c0.008,0.006,0.02,0.005,0.027,0.013l0.002,0.001
		c0.008,0.008,0.021,0.005,0.028,0.014l0.002,0.001c0.006,0.006,0.012,0.011,0.021,0.011c0.005-0.001,0.008,0,0.01,0.005
		c0.005,0.005,0.011,0.008,0.018,0.011c0.006-0.001,0.01,0.001,0.013,0.006c0.005,0.003,0.01,0.006,0.014,0.01l0.001,0.001
		c0.005,0.006,0.011,0.012,0.019,0.013c0.005-0.001,0.009,0.002,0.011,0.007c0.005,0.003,0.01,0.006,0.013,0.011L15.412,4.67z"/>
	<path fill="#FE46BC" d="M15.696,5.92c-0.046-0.013-0.092-0.003-0.138-0.001c-0.077,0.004-0.155,0.001-0.232,0.001
		c-0.054,0.001-0.11-0.006-0.163,0.013c-0.009,0.003-0.02,0.002-0.03,0.002c-0.11,0-0.219-0.001-0.329-0.002
		c0.003-0.005,0.006-0.009,0.01-0.014c0.003-0.005,0.006-0.01,0.011-0.014l0,0c0.006-0.006,0.012-0.011,0.013-0.02
		c0.013-0.029,0.027-0.058,0.038-0.089c0.05-0.141,0.034-0.274-0.051-0.397c-0.017-0.024-0.038-0.045-0.057-0.068
		c0.032,0.003,0.064,0.001,0.097,0.011c0.038,0.011,0.08,0.011,0.119,0c0.027-0.008,0.054-0.009,0.082-0.009
		c0.073,0,0.145,0,0.218,0c0.045,0,0.09,0.005,0.134-0.013c0.009-0.003,0.02-0.002,0.03-0.002c0.1-0.001,0.2,0.005,0.299-0.015
		c0.003,0.009,0.009,0.018,0.009,0.028c0.009,0.142,0.016,0.284-0.011,0.426C15.734,5.812,15.723,5.868,15.696,5.92z"/>
	<path fill="#FF06F9" d="M17.986,4.941c-0.022,0.015-0.047,0.016-0.072,0.015c-0.047-0.001-0.095,0-0.142,0
		c-0.032,0-0.064-0.001-0.096,0.01c-0.018,0.006-0.039,0.004-0.059,0.004c-0.07,0-0.14,0-0.21,0c-0.05,0-0.099,0-0.148,0.011
		c-0.038,0.009-0.079,0.004-0.119,0.002c-0.023-0.001-0.043-0.011-0.057-0.031c-0.002-0.005,0-0.01,0.004-0.013
		c0.007-0.009,0.004-0.022,0.012-0.03c0.011-0.054,0.036-0.104,0.054-0.156c0.027-0.073,0.056-0.145,0.081-0.219
		c0.01-0.029,0.027-0.04,0.056-0.038c0.017,0.001,0.035,0,0.053,0c0.241,0,0.482,0,0.723,0c0.027,0,0.055-0.005,0.081,0.006
		c0.005,0.014-0.002,0.025-0.006,0.037c-0.048,0.127-0.096,0.253-0.144,0.38C17.995,4.928,17.99,4.934,17.986,4.941z"/>
	<path fill="#FCE528" d="M17.914,8.104c0.111-0.025,0.223-0.012,0.335-0.015c0.04-0.001,0.08,0.005,0.118-0.012
		c0.004-0.002,0.01-0.002,0.015-0.002c0.105,0,0.209,0,0.314,0c0.017,0,0.028,0.008,0.031,0.026
		c0.002,0.013,0.004,0.025,0.015,0.033c0.001,0.13,0.002,0.26,0.003,0.39c0,0.024-0.006,0.029-0.033,0.029
		c-0.03,0.001-0.06,0-0.09,0c-0.208,0-0.415,0-0.623,0c-0.02,0-0.04,0-0.06-0.001c-0.019,0-0.026-0.012-0.027-0.029
		c0-0.002,0-0.005,0-0.008C17.911,8.379,17.912,8.242,17.914,8.104z"/>
	<path fill="#FF1AE6" d="M13.26,4.67c0.023,0.029,0.011,0.062,0.011,0.093C13.257,4.734,13.258,4.702,13.26,4.67z"/>
	<path fill="#FF1AE6" d="M13.332,4.567c-0.012,0.016-0.029,0.013-0.045,0.011C13.3,4.567,13.315,4.565,13.332,4.567z"/>
	<path fill="#FF1AE6" d="M14.917,4.472c-0.016,0.002-0.032,0.005-0.045-0.01C14.888,4.46,14.903,4.461,14.917,4.472z"/>
	<path fill="#FF1AE6" d="M13.558,4.522c-0.013,0.016-0.03,0.012-0.046,0.01C13.525,4.52,13.541,4.52,13.558,4.522z"/>
	<path fill="#FF1AE6" d="M14.991,4.488c-0.016,0.001-0.032,0.004-0.044-0.011C14.963,4.474,14.978,4.477,14.991,4.488z"/>
	<path fill="#FF1AE6" d="M15.26,4.58c-0.011,0-0.021-0.002-0.027-0.013C15.245,4.565,15.253,4.57,15.26,4.58z"/>
	<path fill="#FF1AE6" d="M13.257,4.586c-0.001,0.009-0.001,0.019-0.002,0.028C13.25,4.604,13.242,4.594,13.257,4.586z"/>
	<path fill="#FF1AE6" d="M15.29,4.595c-0.012,0-0.022-0.003-0.028-0.014C15.274,4.579,15.284,4.584,15.29,4.595z"/>
	<path fill="#FE56AE" d="M17.704,5.683c-0.002-0.014,0-0.026,0.013-0.034C17.718,5.662,17.715,5.674,17.704,5.683z"/>
	<path fill="#FF1AE6" d="M15.051,4.503c-0.011,0.001-0.021,0-0.028-0.009C15.034,4.491,15.043,4.494,15.051,4.503z"/>
	<path fill="#FF1AE6" d="M15.099,4.517c-0.012,0.002-0.024,0.001-0.031-0.011C15.079,4.505,15.09,4.507,15.099,4.517z"/>
	<path fill="#FF1AE6" d="M15.144,4.532c-0.013,0.002-0.024,0.001-0.032-0.011C15.125,4.519,15.136,4.521,15.144,4.532z"/>
	<path fill="#FF1AE6" d="M13.467,4.539c-0.009,0.01-0.02,0.011-0.032,0.008C13.444,4.537,13.455,4.536,13.467,4.539z"/>
	<path fill="#FF1AE6" d="M15.187,4.548c-0.012,0.001-0.023-0.001-0.03-0.012C15.17,4.534,15.18,4.538,15.187,4.548z"/>
	<path fill="#FF1AE6" d="M13.392,4.554c-0.008,0.01-0.019,0.011-0.031,0.008C13.369,4.553,13.38,4.551,13.392,4.554z"/>
	<path fill="#FE2AD7" d="M17.099,4.91c0.002,0.012-0.001,0.023-0.012,0.03C17.085,4.928,17.089,4.918,17.099,4.91z"/>
	<path fill="#FF1AE6" d="M15.367,4.639c-0.005-0.003-0.009-0.007-0.014-0.01C15.361,4.628,15.365,4.632,15.367,4.639z"/>
	<path fill="#FF1AE6" d="M15.387,4.652c-0.009,0-0.015-0.005-0.019-0.013C15.377,4.64,15.383,4.644,15.387,4.652z"/>
	<path fill="#FE60A5" d="M10.591,4.657c-0.001,0.005-0.004,0.008-0.007,0.011C10.582,4.662,10.585,4.658,10.591,4.657z"/>
	<path fill="#FF1AE6" d="M15.411,4.67c-0.004-0.004-0.009-0.007-0.013-0.011C15.406,4.659,15.41,4.662,15.411,4.67z"/>
	<path fill="#FE60A5" d="M10.575,4.685c-0.003,0.005-0.007,0.009-0.01,0.014C10.565,4.691,10.568,4.687,10.575,4.685z"/>
	<path fill="#FE60A5" d="M10.559,4.712c-0.003,0.006-0.007,0.011-0.01,0.017C10.548,4.721,10.552,4.715,10.559,4.712z"/>
	<path fill="#FE60A5" d="M10.543,4.74c0,0.009-0.004,0.015-0.012,0.02C10.531,4.751,10.535,4.744,10.543,4.74z"/>
	<path fill="#FE60A5" d="M10.531,4.762c-0.003,0.004-0.006,0.008-0.008,0.012C10.521,4.767,10.525,4.763,10.531,4.762z"/>
	<path fill="#FE60A5" d="M10.515,4.789c-0.003,0.005-0.007,0.01-0.01,0.015C10.504,4.797,10.508,4.792,10.515,4.789z"/>
	<path fill="#FE60A5" d="M10.499,4.817c-0.004,0.006-0.007,0.012-0.011,0.018C10.487,4.826,10.491,4.82,10.499,4.817z"/>
	<path fill="#FE60A5" d="M10.483,4.845c0,0.009-0.004,0.016-0.012,0.021C10.471,4.856,10.474,4.849,10.483,4.845z"/>
	<path fill="#FE60A5" d="M10.47,4.866c-0.003,0.004-0.006,0.009-0.009,0.013C10.46,4.872,10.464,4.868,10.47,4.866z"/>
	<path fill="#FE60A5" d="M10.454,4.894c-0.003,0.005-0.007,0.011-0.01,0.016C10.443,4.902,10.447,4.897,10.454,4.894z"/>
	<path fill="#FE60A5" d="M10.438,4.922c-0.004,0.006-0.008,0.012-0.011,0.019C10.427,4.932,10.431,4.925,10.438,4.922z"/>
	<path fill="#FE5EA6" d="M14.838,5.885c-0.001,0.009-0.005,0.016-0.013,0.02C14.825,5.896,14.829,5.889,14.838,5.885z"/>
	<path fill="#FE5EA6" d="M14.825,5.905c-0.004,0.005-0.007,0.009-0.011,0.014C14.814,5.912,14.817,5.907,14.825,5.905z"/>
	<polygon fill="#FE7393" points="13.66,6.144 13.66,6.143 13.659,6.141 	"/>
	<path fill="#FD8682" d="M10.728,8.586c0.008,0.005,0.012,0.012,0.012,0.021C10.732,8.602,10.728,8.595,10.728,8.586z"/>
	<path fill="#FD8682" d="M10.745,8.617c0.004,0.006,0.007,0.012,0.011,0.017C10.748,8.631,10.744,8.625,10.745,8.617z"/>
	<path fill="#FD8682" d="M10.762,8.647c0.003,0.005,0.007,0.01,0.01,0.014C10.765,8.659,10.761,8.655,10.762,8.647z"/>
	<path fill="#FD8682" d="M10.772,8.662c0.008,0.005,0.013,0.013,0.013,0.022C10.776,8.679,10.772,8.672,10.772,8.662z"/>
	<path fill="#FD8682" d="M10.789,8.692c0.004,0.006,0.008,0.013,0.012,0.019C10.792,8.707,10.788,8.701,10.789,8.692z"/>
	<path fill="#FD8682" d="M10.806,8.723c0.004,0.005,0.007,0.011,0.011,0.016C10.809,8.736,10.805,8.731,10.806,8.723z"/>
	<path fill="#FD8682" d="M10.823,8.753c0.003,0.004,0.006,0.009,0.009,0.013C10.825,8.764,10.822,8.76,10.823,8.753z"/>
	<path fill="#FD8682" d="M10.85,8.798c0.004,0.006,0.007,0.012,0.011,0.018C10.853,8.812,10.849,8.806,10.85,8.798z"/>
	<path fill="#FE60A5" d="M10.394,4.998c-0.004,0.006-0.007,0.011-0.011,0.017C10.383,5.007,10.386,5.002,10.394,4.998z"/>
	<path fill="#FF1AE6" d="M15.221,4.562c-0.008,0.001-0.014-0.002-0.018-0.009C15.211,4.551,15.217,4.554,15.221,4.562z"/>
	<path fill="#FE60A5" d="M10.41,4.971c-0.003,0.005-0.007,0.009-0.01,0.014C10.399,4.978,10.403,4.973,10.41,4.971z"/>
	<path fill="#FF1AE6" d="M15.313,4.607c-0.009,0-0.016-0.004-0.021-0.011C15.301,4.595,15.309,4.598,15.313,4.607z"/>
	<path fill="#FF1AE6" d="M15.341,4.623c-0.008,0-0.014-0.004-0.018-0.011C15.331,4.611,15.337,4.615,15.341,4.623z"/>
	<path fill="#FE60A5" d="M10.423,4.949c0,0.01-0.004,0.017-0.013,0.022C10.41,4.961,10.414,4.954,10.423,4.949z"/>
	<path fill="#FDA663" d="M11.752,10.363c0.008,0.005,0.012,0.012,0.012,0.021C11.756,10.38,11.752,10.373,11.752,10.363z"/>
	<path fill="#FDA663" d="M11.769,10.394c0.007,0.004,0.011,0.01,0.011,0.018C11.773,10.409,11.769,10.403,11.769,10.394z"/>
	<path d="M10.444,1.963c-0.001,0.029-0.016,0.046-0.027,0.065C10.04,2.714,9.663,3.4,9.286,4.086
		C8.878,4.828,8.47,5.572,8.062,6.315C8.056,6.326,8.051,6.337,8.044,6.348C8.031,6.366,8.031,6.383,8.042,6.403
		c0.022,0.042,0.041,0.086,0.061,0.129c0.485,1.03,0.97,2.06,1.455,3.09c0.257,0.547,0.515,1.093,0.772,1.64
		c0.027,0.057,0.027,0.058-0.033,0.053c-0.18-0.014-0.36-0.029-0.54-0.043c-0.153-0.012-0.305-0.023-0.458-0.036
		c-0.155-0.013-0.31-0.026-0.465-0.039c-0.145-0.012-0.29-0.023-0.435-0.035c-0.085-0.007-0.17-0.015-0.255-0.018
		c-0.042-0.002-0.061-0.021-0.078-0.056c-0.105-0.216-0.213-0.432-0.319-0.648C7.178,9.291,6.611,8.142,6.045,6.993
		C5.986,6.874,5.93,6.754,5.869,6.635c-0.016-0.032-0.018-0.057-0.001-0.09c0.077-0.149,0.151-0.3,0.228-0.449
		c0.319-0.623,0.639-1.245,0.958-1.868c0.362-0.705,0.723-1.41,1.085-2.115c0.041-0.08,0.019-0.069,0.112-0.073
		c0.145-0.007,0.291-0.012,0.437-0.017c0.198-0.007,0.396-0.013,0.595-0.02C9.618,1.99,9.954,1.976,10.29,1.963
		C10.34,1.962,10.39,1.963,10.444,1.963z"/>
	<path d="M0.021,6.593C0.06,6.562,7.003,2.211,7.052,2.186c0.003-0.002,0.008,0.001,0.016,0.002
		C7.066,2.214,7.051,2.234,7.041,2.255C6.836,2.68,6.631,3.105,6.426,3.529C5.944,4.53,5.461,5.531,4.979,6.531
		C4.978,6.533,4.976,6.536,4.975,6.538C4.952,6.572,4.954,6.604,4.973,6.642c0.098,0.2,0.193,0.402,0.29,0.604
		C5.648,8.048,6.035,8.85,6.42,9.653c0.241,0.502,0.482,1.004,0.723,1.506c0.009,0.02,0.019,0.04,0.027,0.057
		c-0.005,0.006-0.006,0.009-0.008,0.009c-0.002,0-0.005-0.001-0.007-0.002C4.779,9.68,2.403,8.138,0.021,6.593z"/>
	<path d="M21.707,11.032c0.002-0.031,0.018-0.049,0.028-0.068c0.215-0.391,0.43-0.783,0.645-1.174
		c0.513-0.934,1.027-1.868,1.54-2.803c0.059-0.108,0.116-0.217,0.177-0.323c0.02-0.034,0.021-0.061,0.004-0.097
		c-0.137-0.287-0.273-0.576-0.408-0.864c-0.232-0.492-0.465-0.984-0.697-1.476c-0.387-0.821-0.774-1.642-1.16-2.464
		c-0.013-0.027-0.024-0.054-0.036-0.084c0.012-0.002,0.019-0.005,0.026-0.005c0.135,0.011,0.27,0.021,0.405,0.033
		c0.085,0.007,0.17,0.015,0.255,0.022c0.24,0.02,0.48,0.039,0.721,0.058c0.153,0.012,0.305,0.024,0.458,0.036
		c0.123,0.01,0.245,0.02,0.368,0.029c0.02,0.001,0.033,0.01,0.041,0.027c0.03,0.061,0.06,0.121,0.09,0.182
		c0.334,0.677,0.668,1.354,1.002,2.031c0.369,0.749,0.739,1.498,1.108,2.247c0.004,0.009,0.008,0.018,0.014,0.027
		C26.3,6.39,26.3,6.412,26.288,6.437c-0.039,0.076-0.076,0.153-0.115,0.229c-0.512,1-1.025,2-1.537,2.999
		c-0.208,0.406-0.415,0.813-0.624,1.219c-0.042,0.083-0.018,0.066-0.112,0.07c-0.319,0.013-0.637,0.025-0.956,0.038
		c-0.135,0.005-0.271,0.01-0.406,0.015c-0.268,0.01-0.537,0.02-0.805,0.029C21.725,11.036,21.718,11.034,21.707,11.032z"/>
	<path d="M24.966,2.183c0.028-0.004,0.045,0.018,0.066,0.031c0.305,0.19,0.609,0.38,0.913,0.57c0.704,0.44,1.409,0.88,2.113,1.321
		c1.291,0.808,2.582,1.617,3.872,2.425c0.017,0.011,0.034,0.021,0.05,0.033c0.015,0.01,0.014,0.026-0.001,0.037
		c-0.014,0.01-0.029,0.02-0.044,0.029c-0.13,0.085-0.261,0.169-0.392,0.254c-1.431,0.929-2.862,1.859-4.293,2.788
		c-0.772,0.502-1.544,1.004-2.316,1.506c-0.022,0.015-0.046,0.028-0.071,0.044c-0.008-0.027,0.008-0.042,0.016-0.059
		c0.11-0.231,0.221-0.461,0.332-0.692c0.558-1.162,1.117-2.323,1.675-3.485c0.056-0.118,0.113-0.235,0.168-0.353
		c0.027-0.058,0.028-0.037,0-0.097c-0.136-0.283-0.272-0.565-0.409-0.847c-0.237-0.49-0.474-0.98-0.71-1.47
		c-0.316-0.655-0.631-1.31-0.946-1.966c-0.01-0.022-0.03-0.041-0.024-0.069L24.966,2.183z"/>
	<polygon points="24.964,2.185 24.954,2.18 24.961,2.173 24.966,2.183 	"/>
	<path fill="#666666" d="M9.628,2.462C9.635,2.485,9.619,2.501,9.61,2.518c-0.067,0.123-0.135,0.247-0.202,0.37
		c-0.067,0.121-0.134,0.241-0.2,0.362C9.077,3.487,8.946,3.724,8.815,3.961C8.74,4.098,8.668,4.235,8.593,4.371
		C8.467,4.6,8.341,4.828,8.215,5.057C8.152,5.171,8.09,5.286,8.027,5.4C7.894,5.642,7.76,5.883,7.627,6.125
		C7.596,6.182,7.564,6.239,7.533,6.297C7.522,6.319,7.506,6.33,7.48,6.331C7.164,6.345,6.848,6.337,6.532,6.339
		c-0.005,0-0.01-0.002-0.015-0.003C6.506,6.314,6.522,6.298,6.531,6.281c0.105-0.206,0.21-0.411,0.316-0.616
		c0.138-0.27,0.276-0.541,0.415-0.811c0.111-0.216,0.224-0.432,0.335-0.649C7.691,4.02,7.784,3.834,7.879,3.648
		c0.186-0.364,0.373-0.728,0.56-1.091C8.445,2.546,8.45,2.534,8.457,2.524c0.008-0.014,0.02-0.022,0.037-0.022
		c0.005,0,0.01,0,0.015-0.001C8.674,2.496,8.84,2.492,9.005,2.484C9.173,2.475,9.341,2.47,9.509,2.467
		C9.549,2.467,9.588,2.451,9.628,2.462z"/>
	<path fill="#FE6B9B" d="M7.789,6.987c0.006,0.01,0.014,0.02,0.019,0.031c0.095,0.2,0.189,0.401,0.283,0.601
		c0.006,0.013,0.01,0.028,0.015,0.042c0.012,0.06,0.007,0.12,0.007,0.18c0,0.673,0,1.346,0,2.018c0,0.035,0.003,0.071-0.006,0.105
		c-0.006,0.024-0.012,0.052-0.049,0.038l0,0C8.055,9.999,8.052,9.994,8.051,9.988C8.049,9.983,8.047,9.977,8.045,9.972
		C8.04,9.969,8.037,9.964,8.036,9.958C8.003,9.894,7.97,9.83,7.938,9.766C7.879,9.647,7.822,9.529,7.764,9.41
		C7.757,9.397,7.752,9.383,7.747,9.369c0.008-0.057,0.002-0.115,0.002-0.172c0.001-0.677,0-1.354,0.001-2.031
		C7.75,7.104,7.742,7.039,7.789,6.987z"/>
	<path fill="#FD7E89" d="M8.06,10.002C8.076,10,8.088,9.993,8.089,9.974C8.09,9.952,8.09,9.929,8.09,9.907c0-0.704,0-1.408,0-2.112
		c0-0.045,0.003-0.09,0.018-0.133c0.007,0.01,0.014,0.02,0.02,0.031c0.089,0.188,0.177,0.376,0.266,0.564
		c0.004,0.009,0.007,0.019,0.01,0.028C8.388,8.367,8.385,8.449,8.385,8.532c0.001,0.641,0.001,1.283-0.001,1.924
		c0,0.042,0.022,0.098-0.041,0.121c-0.008-0.012-0.017-0.024-0.023-0.037c-0.082-0.165-0.163-0.33-0.244-0.495
		C8.069,10.031,8.065,10.016,8.06,10.002z"/>
	<path fill="#FE57AE" d="M7.789,6.987c0,0.008,0.001,0.015-0.001,0.022C7.767,7.086,7.774,7.164,7.773,7.241c0,0.675,0,1.35,0,2.025
		c0,0.02,0,0.04,0,0.06c0,0.019-0.01,0.033-0.026,0.043C7.742,9.366,7.741,9.362,7.742,9.357C7.739,9.352,7.735,9.346,7.733,9.34
		C7.731,9.336,7.729,9.331,7.727,9.327C7.724,9.321,7.72,9.316,7.717,9.31C7.716,9.305,7.714,9.301,7.712,9.296
		C7.709,9.291,7.705,9.286,7.703,9.28C7.678,9.231,7.652,9.183,7.627,9.133c-0.05-0.101-0.1-0.202-0.15-0.303
		C7.47,8.815,7.465,8.798,7.458,8.782c0.011-0.06,0.004-0.12,0.004-0.18c0.001-0.554,0-1.108,0.001-1.663
		c0-0.044-0.009-0.091,0.024-0.13c0.065-0.001,0.129-0.002,0.194-0.004C7.7,6.805,7.714,6.812,7.722,6.83
		C7.745,6.883,7.774,6.932,7.789,6.987z"/>
	<path fill="#FD8E7A" d="M8.343,10.576c0.011-0.008,0.017-0.018,0.017-0.031c0-0.023,0.001-0.045,0.001-0.068
		c0-0.681,0-1.362-0.001-2.043c0-0.043,0.007-0.084,0.016-0.126C8.38,8.294,8.39,8.288,8.403,8.285
		c0.006,0.011,0.013,0.021,0.019,0.032c0.086,0.181,0.171,0.362,0.256,0.543c0.006,0.013,0.01,0.028,0.015,0.042
		C8.68,8.955,8.687,9.007,8.687,9.06c-0.001,0.506,0,1.013-0.001,1.519c0,0.044,0.009,0.091-0.024,0.13
		c-0.082,0.005-0.162-0.015-0.243-0.015c-0.017,0-0.028-0.009-0.034-0.023C8.371,10.639,8.35,10.611,8.343,10.576z"/>
	<path fill="#FDA466" d="M8.662,10.709c0-0.573,0-1.145,0-1.718c0-0.02,0-0.04,0.001-0.06c0.001-0.018,0.013-0.025,0.029-0.028
		c0.005,0.008,0.012,0.016,0.016,0.025C8.82,9.163,8.932,9.399,9.043,9.636c0.005,0.011,0.008,0.023,0.012,0.035
		C9.046,9.695,9.048,9.72,9.048,9.745c0,0.31,0,0.619,0,0.929c0,0.022,0.002,0.045-0.009,0.066
		C8.913,10.736,8.787,10.725,8.662,10.709z"/>
	<path fill="#FE33CF" d="M7.145,8.15C7.143,8.146,7.141,8.141,7.14,8.137C7.136,8.131,7.133,8.126,7.13,8.12
		C7.07,8.002,7.01,7.884,6.951,7.765C6.805,7.469,6.66,7.172,6.514,6.876c-0.009-0.017-0.022-0.034-0.02-0.055
		C6.495,6.81,6.504,6.81,6.51,6.81c0.215-0.001,0.431-0.001,0.646-0.002c0.005,0,0.01,0.002,0.015,0.003
		c0.056,0.024,0.053,0.074,0.053,0.121c0.001,0.258,0.001,0.516,0,0.774c0,0.123,0.006,0.246-0.004,0.368
		c-0.003,0.04,0.012,0.102-0.062,0.105C7.155,8.176,7.153,8.172,7.155,8.167C7.151,8.161,7.148,8.156,7.145,8.15z"/>
	<path fill="#FE47BD" d="M7.159,8.179c0.01-0.003,0.021-0.005,0.023-0.016c0.006-0.037,0.019-0.071,0.019-0.11
		C7.2,7.669,7.2,7.284,7.201,6.9c0-0.035-0.009-0.063-0.03-0.089C7.277,6.805,7.382,6.805,7.487,6.81c0,0.62,0,1.24,0,1.86
		c0,0.04,0.006,0.081-0.029,0.112L7.454,8.779l0.001-0.005c0-0.009-0.006-0.015-0.011-0.022C7.439,8.751,7.438,8.748,7.44,8.743
		c0-0.009-0.006-0.015-0.011-0.021c-0.004-0.006-0.01-0.011-0.013-0.018C7.332,8.536,7.249,8.368,7.167,8.2
		C7.164,8.194,7.162,8.186,7.159,8.179z"/>
	<path fill="#FDBC4F" d="M9.039,10.739c-0.014-0.022-0.015-0.047-0.015-0.072c0-0.313,0-0.626,0-0.938c0-0.012,0-0.025,0.002-0.037
		c0.003-0.014,0.015-0.018,0.028-0.021c0,0,0,0,0,0C9.062,9.679,9.06,9.693,9.069,9.701l0,0.001c0.009,0.007,0.006,0.02,0.013,0.029
		c0.004,0.003,0.006,0.006,0.004,0.011c0.001,0.008,0.006,0.013,0.01,0.019c0.004,0.003,0.006,0.007,0.005,0.012
		c0.003,0.006,0.006,0.012,0.01,0.018c0.005,0.003,0.006,0.008,0.005,0.013c0.003,0.006,0.006,0.011,0.01,0.017
		C9.127,9.825,9.129,9.83,9.13,9.835C9.134,9.84,9.137,9.845,9.139,9.85c0.033,0.068,0.066,0.135,0.098,0.203
		c0.104,0.22,0.208,0.44,0.312,0.66c0.009,0.02,0.023,0.039,0.024,0.068c-0.059,0.01-0.117-0.008-0.175-0.01
		c-0.06-0.002-0.12-0.01-0.18-0.014C9.158,10.753,9.098,10.751,9.039,10.739z"/>
	<path fill="#FDA466" d="M9.069,9.701C9.057,9.694,9.054,9.683,9.054,9.671C9.065,9.678,9.07,9.688,9.069,9.701z"/>
	<path fill="#FDA466" d="M9.082,9.73C9.071,9.724,9.069,9.713,9.069,9.702C9.078,9.709,9.083,9.718,9.082,9.73z"/>
	<path fill="#FE47BD" d="M7.13,8.12c0.003,0.006,0.007,0.011,0.01,0.017C7.133,8.133,7.129,8.128,7.13,8.12z"/>
	<path fill="#FE47BD" d="M7.145,8.15c0.003,0.006,0.007,0.011,0.01,0.017C7.148,8.163,7.144,8.158,7.145,8.15z"/>
	<path fill="#FE57AE" d="M7.429,8.722C7.436,8.727,7.44,8.734,7.44,8.743C7.432,8.739,7.428,8.732,7.429,8.722z"/>
	<path fill="#FE57AE" d="M7.444,8.752c0.008,0.005,0.011,0.013,0.011,0.022C7.447,8.769,7.443,8.762,7.444,8.752z"/>
	<path fill="#FE6B9B" d="M7.703,9.28c0.003,0.005,0.006,0.011,0.009,0.016C7.706,9.293,7.702,9.288,7.703,9.28z"/>
	<path fill="#FE6B9B" d="M7.717,9.31c0.003,0.006,0.007,0.011,0.01,0.017C7.72,9.323,7.717,9.318,7.717,9.31z"/>
	<path fill="#FE6B9B" d="M7.733,9.34c0.003,0.006,0.007,0.011,0.01,0.017C7.736,9.353,7.732,9.348,7.733,9.34z"/>
	<path fill="#FDA466" d="M9.096,9.761c-0.003-0.006-0.007-0.013-0.01-0.019C9.094,9.746,9.097,9.752,9.096,9.761z"/>
	<path fill="#FDA466" d="M9.111,9.791c-0.003-0.006-0.007-0.012-0.01-0.018C9.109,9.776,9.112,9.782,9.111,9.791z"/>
	<path fill="#FDA466" d="M9.125,9.821c-0.003-0.006-0.006-0.011-0.01-0.017C9.123,9.807,9.126,9.813,9.125,9.821z"/>
	<path fill="#FDA466" d="M9.139,9.85C9.136,9.845,9.133,9.84,9.13,9.835C9.137,9.838,9.141,9.843,9.139,9.85z"/>
	<path fill="#FD7E89" d="M8.036,9.958c0.003,0.005,0.006,0.009,0.008,0.014C8.038,9.97,8.035,9.965,8.036,9.958z"/>
	<path fill="#FD7E89" d="M8.051,9.988c0.003,0.005,0.006,0.009,0.009,0.014C8.053,10,8.049,9.996,8.051,9.988z"/>
	<path fill="#FE60A4" d="M4.427,6.598C4.431,6.601,4.432,6.605,4.43,6.61C4.427,6.654,4.39,6.65,4.363,6.65
		C4.25,6.647,4.138,6.665,4.026,6.668C3.648,6.676,3.27,6.689,2.892,6.71c-0.145,0.008-0.29,0.008-0.435,0.013
		C2.249,6.729,2.042,6.738,1.834,6.745C1.639,6.752,1.443,6.748,1.249,6.77C1.22,6.773,1.189,6.777,1.161,6.763L1.159,6.762
		C1.153,6.758,1.148,6.752,1.14,6.75C1.047,6.7,0.941,6.628,0.906,6.59C0.92,6.58,0.934,6.57,0.949,6.561
		C1.294,6.345,1.64,6.129,1.986,5.913C2,5.904,2.013,5.891,2.032,5.889c0.246-0.008,0.491-0.012,0.737-0.024
		C3.114,5.848,3.46,5.847,3.806,5.824c0.143-0.01,0.286-0.004,0.429-0.014C4.397,5.799,4.56,5.804,4.723,5.791
		C4.75,5.789,4.778,5.786,4.804,5.799C4.8,5.811,4.797,5.823,4.792,5.834C4.681,6.066,4.569,6.297,4.457,6.528
		C4.453,6.537,4.446,6.545,4.441,6.553c-0.004,0.006-0.01,0.012-0.011,0.02c0.002,0.004,0.001,0.008-0.003,0.01
		C4.424,6.586,4.423,6.59,4.424,6.593C4.425,6.596,4.426,6.598,4.427,6.598z"/>
	<path fill="#FD7A8C" d="M1.161,6.763c0.078-0.017,0.156-0.032,0.237-0.03c0.06,0.002,0.12,0.001,0.18,0
		c0.042,0,0.085,0.003,0.126-0.012C1.72,6.716,1.739,6.719,1.756,6.719c0.073,0,0.145,0,0.218,0
		c0.052-0.001,0.105,0.005,0.156-0.013C2.146,6.7,2.165,6.703,2.183,6.703c0.07,0,0.14,0,0.211,0c0.047,0,0.095,0.005,0.141-0.012
		C2.55,6.685,2.569,6.688,2.587,6.688c0.08,0,0.16,0,0.241,0c0.042,0,0.085,0.003,0.126-0.012c0.018-0.006,0.04-0.003,0.06-0.003
		c0.078,0,0.155,0,0.233,0c0.037,0,0.075,0.002,0.111-0.011c0.018-0.007,0.04-0.004,0.06-0.004c0.073,0,0.145,0,0.218,0
		c0.045,0,0.09,0.004,0.134-0.012C3.785,6.64,3.804,6.643,3.822,6.643c0.083,0,0.165,0,0.248,0c0.04,0,0.08,0.003,0.119-0.012
		c0.016-0.006,0.035-0.003,0.052-0.003c0.048,0,0.095,0,0.143,0c0.018,0,0.035-0.001,0.046-0.018
		c0.008,0.013,0.017,0.025,0.023,0.038c0.125,0.26,0.249,0.52,0.373,0.781c0.004,0.009,0.006,0.019,0.009,0.028
		C4.817,7.496,4.779,7.493,4.745,7.494C4.432,7.503,4.119,7.517,3.806,7.527c-0.423,0.014-0.846,0.036-1.27,0.045
		C2.499,7.573,2.461,7.577,2.425,7.588c-0.074-0.047-0.148-0.093-0.222-0.14C1.959,7.29,1.715,7.131,1.471,6.973
		c-0.099-0.064-0.197-0.13-0.295-0.195C1.171,6.774,1.166,6.768,1.161,6.763z"/>
	<path fill="#FE48BB" d="M4.804,5.799C4.782,5.813,4.757,5.815,4.732,5.815c-0.055,0-0.11-0.005-0.164,0.013
		C4.552,5.833,4.533,5.83,4.516,5.83c-0.08,0-0.161,0-0.241,0c-0.04,0-0.08-0.003-0.119,0.012c-0.018,0.006-0.04,0.003-0.06,0.003
		c-0.078,0-0.156,0-0.233,0c-0.037,0-0.075-0.002-0.111,0.011C3.733,5.863,3.712,5.86,3.692,5.86c-0.073,0-0.145,0-0.218,0
		c-0.045,0-0.09-0.004-0.134,0.012C3.324,5.878,3.305,5.875,3.287,5.875c-0.08,0-0.161,0-0.241,0c-0.042,0-0.085-0.004-0.126,0.012
		C2.904,5.893,2.885,5.89,2.868,5.89c-0.068,0-0.135,0-0.203,0C2.612,5.891,2.559,5.885,2.508,5.903
		c-0.014,0.005-0.03,0.002-0.045,0.002c-0.123,0-0.246,0-0.369,0c-0.022,0-0.046,0.006-0.063-0.016c0,0,0,0,0,0
		c0.005-0.004,0.01-0.007,0.016-0.011c0.002-0.005,0.005-0.006,0.01-0.005c0.009-0.001,0.015-0.007,0.02-0.013l0.001,0
		c0.004-0.004,0.008-0.008,0.014-0.01c0.003-0.005,0.007-0.007,0.012-0.006c0.007-0.002,0.013-0.008,0.019-0.012L2.125,5.83
		c0.002-0.005,0.006-0.008,0.012-0.009c0.005-0.003,0.01-0.005,0.015-0.008c0.005-0.004,0.01-0.007,0.016-0.011
		c0.002-0.005,0.005-0.006,0.01-0.006c0.009-0.001,0.015-0.006,0.02-0.013l0.001,0c0.004-0.004,0.008-0.008,0.014-0.01
		c0.003-0.005,0.007-0.007,0.012-0.006C2.233,5.766,2.238,5.76,2.244,5.756l0.002-0.001C2.248,5.75,2.252,5.747,2.257,5.746
		c0.005-0.003,0.01-0.005,0.015-0.008c0.005-0.004,0.01-0.007,0.015-0.011C2.297,5.718,2.306,5.71,2.32,5.709
		c0.004-0.004,0.008-0.008,0.013-0.01C2.336,5.694,2.34,5.692,2.346,5.692C2.353,5.691,2.358,5.685,2.364,5.68l0.002-0.001
		c0.002-0.006,0.005-0.008,0.011-0.008c0.005-0.003,0.01-0.005,0.015-0.008c0.005-0.004,0.01-0.007,0.015-0.011
		c0.009-0.01,0.018-0.018,0.032-0.019c0.004-0.004,0.008-0.008,0.013-0.01c0.01-0.01,0.02-0.018,0.034-0.02
		c0.001-0.006,0.005-0.008,0.011-0.008c0.005-0.003,0.01-0.005,0.016-0.008c0.005-0.003,0.01-0.007,0.015-0.01
		c0.009-0.01,0.018-0.018,0.032-0.019c0.004-0.004,0.008-0.007,0.013-0.01c0.031-0.021,0.062-0.042,0.094-0.062
		c0.309-0.194,0.619-0.387,0.928-0.581c0.021-0.013,0.043-0.024,0.065-0.037c0.143,0.014,0.285-0.008,0.428-0.011
		C4.459,4.85,4.829,4.831,5.2,4.819C5.225,4.818,5.25,4.815,5.27,4.835C5.266,4.847,5.263,4.859,5.258,4.87
		C5.142,5.109,5.027,5.348,4.911,5.587C4.906,5.599,4.899,5.609,4.892,5.62c-0.004,0.006-0.007,0.012-0.01,0.018
		c0.001,0.005,0,0.009-0.005,0.012c-0.004,0.006-0.009,0.011-0.01,0.019c0.001,0.005,0,0.009-0.004,0.011
		c-0.004,0.006-0.01,0.011-0.011,0.02c0.002,0.005,0,0.008-0.004,0.011c-0.005,0.006-0.01,0.012-0.011,0.02
		c0.002,0.004,0,0.008-0.004,0.01C4.828,5.746,4.823,5.752,4.822,5.761C4.824,5.765,4.823,5.768,4.819,5.77
		C4.811,5.778,4.814,5.791,4.804,5.799L4.804,5.799z"/>
	<path fill="#FD9574" d="M2.425,7.588c0.003-0.01,0.005-0.02,0.016-0.024c0.028-0.01,0.056-0.019,0.088-0.018
		c0.078,0.002,0.156,0.001,0.233,0c0.045,0,0.09,0.004,0.134-0.012c0.016-0.006,0.035-0.003,0.052-0.003c0.075,0,0.151,0,0.226,0
		c0.042,0,0.085,0.003,0.127-0.012c0.018-0.006,0.04-0.003,0.06-0.003c0.08,0,0.161,0,0.241,0c0.04,0,0.08,0.003,0.119-0.011
		c0.018-0.007,0.04-0.003,0.06-0.003c0.08,0,0.161,0,0.241,0c0.035,0,0.07,0.001,0.104-0.011c0.018-0.007,0.04-0.004,0.06-0.004
		c0.078,0,0.156,0,0.234,0c0.045,0,0.09,0.004,0.134-0.012c0.016-0.006,0.035-0.003,0.052-0.003c0.053,0,0.105-0.001,0.158,0
		c0.026,0,0.05-0.003,0.072-0.016c0.007,0.01,0.014,0.02,0.02,0.031c0.115,0.239,0.23,0.478,0.345,0.717
		C5.206,8.216,5.209,8.228,5.213,8.24C5.194,8.26,5.168,8.263,5.144,8.262c-0.15-0.007-0.3,0.015-0.45,0.017
		c-0.33,0.004-0.66,0.029-0.99,0.031c-0.045,0-0.089,0.016-0.134,0.019c-0.013-0.007-0.027-0.012-0.04-0.021
		c-0.242-0.157-0.483-0.313-0.725-0.47C2.793,7.83,2.782,7.821,2.77,7.812C2.764,7.811,2.761,7.808,2.758,7.803
		C2.673,7.756,2.593,7.702,2.514,7.646C2.508,7.645,2.504,7.642,2.502,7.637L2.5,7.636c-0.006-0.004-0.011-0.01-0.019-0.012
		C2.477,7.621,2.473,7.619,2.469,7.617c-0.005-0.002-0.01-0.005-0.013-0.01L2.455,7.606c-0.006-0.005-0.012-0.01-0.019-0.013
		C2.43,7.595,2.427,7.593,2.425,7.588z"/>
	<path fill="#FE28D9" d="M5.27,4.835c-0.01,0-0.02-0.002-0.03,0.001C5.144,4.859,5.047,4.848,4.95,4.851
		C4.888,4.852,4.825,4.844,4.764,4.864C4.748,4.869,4.729,4.866,4.712,4.866c-0.082,0-0.165,0-0.247,0
		c-0.037,0-0.074-0.002-0.111,0.011C4.335,4.883,4.314,4.88,4.294,4.881c-0.072,0-0.145,0-0.217,0c-0.045,0-0.09-0.005-0.133,0.012
		c-0.009,0.004-0.02,0.002-0.03,0.002c-0.065,0-0.13,0-0.195,0c-0.024,0-0.045-0.005-0.058-0.027
		c0.002-0.005,0.005-0.006,0.01-0.005C3.679,4.862,3.684,4.857,3.69,4.852l0.001-0.001c0.007-0.009,0.022-0.006,0.028-0.017l0,0
		C3.724,4.831,3.73,4.827,3.735,4.823c0.002-0.005,0.005-0.006,0.01-0.005c0.009,0,0.015-0.006,0.02-0.013l0.001,0
		C3.77,4.801,3.774,4.797,3.78,4.794C3.782,4.79,3.786,4.787,3.792,4.788c0.008-0.002,0.013-0.007,0.019-0.012l0.002-0.001
		c0.003-0.005,0.007-0.008,0.012-0.009c0.005-0.002,0.009-0.005,0.014-0.007C3.844,4.755,3.85,4.752,3.855,4.748
		c0.002-0.005,0.005-0.006,0.01-0.006c0.009,0,0.015-0.006,0.02-0.012c0.018-0.021,0.044-0.032,0.067-0.047
		C4.212,4.52,4.471,4.359,4.73,4.196c0.374-0.235,0.747-0.47,1.121-0.705c0.025-0.016,0.05-0.031,0.076-0.047
		c0.017,0.023-0.001,0.037-0.007,0.051C5.831,3.679,5.743,3.862,5.654,4.044C5.537,4.288,5.42,4.532,5.302,4.776
		C5.293,4.796,5.281,4.816,5.27,4.835z"/>
	<path fill="#FDAC5E" d="M3.57,8.329c0.006-0.011,0.013-0.023,0.026-0.025c0.039-0.006,0.076-0.022,0.118-0.02
		c0.07,0.003,0.14,0.001,0.211,0.001c0.05,0,0.1,0.004,0.149-0.013C4.089,8.267,4.108,8.27,4.126,8.27c0.078,0,0.155,0,0.233,0
		c0.045,0,0.09,0.004,0.134-0.012c0.016-0.006,0.035-0.003,0.052-0.003c0.078,0,0.155,0,0.233,0c0.04,0,0.08,0.002,0.119-0.012
		c0.018-0.006,0.04-0.003,0.06-0.003c0.085,0,0.171,0,0.256,0c0.007,0.01,0.014,0.02,0.02,0.031C5.342,8.497,5.451,8.724,5.56,8.95
		c0.004,0.009,0.007,0.018,0.01,0.028C5.542,9.006,5.505,9.002,5.471,9.001C5.252,8.993,5.033,9.025,4.814,9.017
		C4.763,9.015,4.716,9.032,4.667,9.04C4.646,9.037,4.631,9.022,4.615,9.012c-0.33-0.213-0.659-0.427-0.988-0.641
		C3.612,8.361,3.598,8.35,3.584,8.34C3.578,8.338,3.574,8.335,3.57,8.329L3.57,8.329z"/>
	<path fill="#FCC547" d="M4.667,9.04c0.029-0.043,0.074-0.047,0.119-0.047c0.092-0.001,0.185,0,0.277,0
		c0.027,0,0.054-0.001,0.081-0.009c0.021-0.006,0.044-0.006,0.067-0.006c0.12,0,0.24,0,0.359,0c0.007,0.013,0.015,0.026,0.022,0.039
		c0.134,0.28,0.269,0.56,0.402,0.84c0.007,0.015,0.019,0.029,0.017,0.048c-0.009,0.012-0.018,0.005-0.025,0
		C5.883,9.838,5.781,9.77,5.679,9.703c-0.084-0.055-0.168-0.11-0.252-0.164c-0.124-0.08-0.248-0.161-0.372-0.241
		C5.036,9.285,5.018,9.271,5,9.258c-0.005-0.002-0.01-0.005-0.012-0.01L4.986,9.248C4.98,9.243,4.975,9.238,4.967,9.236
		c-0.006,0.001-0.01-0.001-0.012-0.007c-0.005-0.002-0.01-0.006-0.013-0.01L4.941,9.218C4.935,9.213,4.929,9.208,4.921,9.206
		C4.916,9.207,4.912,9.204,4.91,9.2C4.904,9.197,4.9,9.193,4.896,9.189l0,0C4.89,9.183,4.884,9.177,4.875,9.176
		C4.87,9.177,4.867,9.175,4.865,9.17C4.859,9.167,4.854,9.163,4.85,9.159l0,0C4.845,9.152,4.838,9.147,4.829,9.146
		C4.824,9.147,4.821,9.145,4.82,9.141C4.814,9.137,4.809,9.133,4.804,9.129l0.001,0C4.799,9.122,4.793,9.116,4.783,9.116
		c-0.004,0.001-0.007,0-0.008-0.005C4.769,9.107,4.764,9.103,4.758,9.1L4.759,9.1C4.753,9.089,4.738,9.093,4.732,9.083L4.73,9.082
		C4.724,9.077,4.719,9.072,4.711,9.07C4.706,9.07,4.702,9.068,4.699,9.063c-0.006-0.002-0.01-0.005-0.013-0.01L4.685,9.052
		C4.679,9.048,4.675,9.041,4.667,9.04L4.667,9.04z"/>
	<path fill="#FE48BB" d="M3.719,4.834C3.715,4.847,3.704,4.85,3.692,4.851C3.697,4.84,3.707,4.834,3.719,4.834z"/>
	<path fill="#FE60A4" d="M4.805,5.798c0-0.012,0.003-0.022,0.014-0.029C4.82,5.782,4.814,5.791,4.805,5.798z"/>
	<path fill="#FDAC5E" d="M4.732,9.083C4.744,9.084,4.755,9.087,4.759,9.1C4.747,9.1,4.738,9.094,4.732,9.083z"/>
	<path fill="#FE48BB" d="M3.885,4.73c-0.004,0.008-0.011,0.013-0.02,0.012C3.869,4.734,3.876,4.73,3.885,4.73z"/>
	<path fill="#FE48BB" d="M3.855,4.748C3.85,4.751,3.844,4.755,3.839,4.759C3.841,4.751,3.846,4.747,3.855,4.748z"/>
	<path fill="#FE48BB" d="M3.825,4.766C3.82,4.769,3.816,4.772,3.812,4.775C3.814,4.769,3.818,4.765,3.825,4.766z"/>
	<path fill="#FE48BB" d="M3.811,4.776C3.806,4.784,3.8,4.788,3.792,4.788C3.795,4.78,3.802,4.776,3.811,4.776z"/>
	<path fill="#FE48BB" d="M3.78,4.794C3.775,4.798,3.77,4.801,3.765,4.805C3.767,4.797,3.772,4.794,3.78,4.794z"/>
	<path fill="#FE48BB" d="M3.765,4.805c-0.004,0.008-0.011,0.013-0.02,0.013C3.748,4.809,3.755,4.805,3.765,4.805z"/>
	<path fill="#FE48BB" d="M3.735,4.823C3.729,4.827,3.724,4.83,3.719,4.834C3.721,4.826,3.726,4.822,3.735,4.823z"/>
	<path fill="#FE48BB" d="M3.69,4.852C3.686,4.859,3.68,4.863,3.671,4.864C3.675,4.855,3.681,4.851,3.69,4.852z"/>
	<path fill="#FE60A4" d="M4.852,5.699c0.004-0.007,0.007-0.013,0.011-0.02C4.864,5.688,4.86,5.695,4.852,5.699z"/>
	<path fill="#FE60A4" d="M2.378,5.671C2.375,5.675,2.371,5.678,2.367,5.679C2.368,5.673,2.371,5.67,2.378,5.671z"/>
	<path fill="#FE60A4" d="M2.333,5.699C2.329,5.702,2.324,5.705,2.32,5.709C2.321,5.702,2.326,5.698,2.333,5.699z"/>
	<path fill="#FE60A4" d="M4.837,5.73c0-0.009,0.004-0.016,0.011-0.02C4.849,5.719,4.845,5.726,4.837,5.73z"/>
	<path fill="#FE60A4" d="M2.288,5.728c-0.005,0.004-0.01,0.007-0.016,0.011C2.275,5.731,2.28,5.727,2.288,5.728z"/>
	<path fill="#FE60A4" d="M2.257,5.746C2.255,5.75,2.251,5.753,2.246,5.755C2.247,5.749,2.251,5.745,2.257,5.746z"/>
	<path fill="#FE60A4" d="M4.822,5.761c0-0.009,0.003-0.016,0.011-0.021C4.834,5.749,4.831,5.756,4.822,5.761z"/>
	<path fill="#FE60A4" d="M2.244,5.756C2.238,5.76,2.231,5.764,2.225,5.768C2.229,5.76,2.235,5.756,2.244,5.756z"/>
	<path fill="#FE60A4" d="M2.213,5.774c-0.005,0.003-0.009,0.007-0.014,0.01C2.201,5.777,2.205,5.774,2.213,5.774z"/>
	<path fill="#FE60A4" d="M2.198,5.785c-0.004,0.008-0.011,0.012-0.02,0.013C2.182,5.789,2.189,5.785,2.198,5.785z"/>
	<path fill="#FE60A4" d="M2.168,5.803C2.162,5.807,2.157,5.81,2.152,5.814C2.154,5.806,2.159,5.802,2.168,5.803z"/>
	<path fill="#FE60A4" d="M2.137,5.822C2.134,5.826,2.13,5.829,2.125,5.83C2.127,5.824,2.13,5.821,2.137,5.822z"/>
	<path fill="#FE60A4" d="M2.123,5.831C2.117,5.835,2.111,5.839,2.104,5.843C2.108,5.835,2.114,5.831,2.123,5.831z"/>
	<path fill="#FE60A4" d="M2.092,5.849C2.088,5.853,2.083,5.856,2.078,5.86C2.08,5.853,2.085,5.849,2.092,5.849z"/>
	<path fill="#FE60A4" d="M2.078,5.86c-0.004,0.008-0.011,0.012-0.02,0.013C2.062,5.864,2.068,5.86,2.078,5.86z"/>
	<path fill="#FE60A4" d="M2.047,5.878c-0.005,0.004-0.01,0.007-0.016,0.011C2.034,5.881,2.039,5.878,2.047,5.878z"/>
	<path fill="#FE60A4" d="M4.867,5.668c0-0.008,0.003-0.015,0.01-0.019C4.878,5.658,4.875,5.664,4.867,5.668z"/>
	<path fill="#FE60A4" d="M2.408,5.652c-0.005,0.004-0.01,0.007-0.015,0.011C2.395,5.655,2.4,5.652,2.408,5.652z"/>
	<path fill="#FD7A8C" d="M4.43,6.573c0.004-0.007,0.007-0.013,0.011-0.02C4.442,6.562,4.438,6.569,4.43,6.573z"/>
	<path fill="#FD7A8C" d="M4.427,6.598C4.425,6.594,4.423,6.591,4.422,6.587c0-0.001,0.003-0.003,0.005-0.004
		C4.429,6.588,4.429,6.593,4.427,6.598z"/>
	<path fill="#FE60A4" d="M2.364,5.68C2.358,5.684,2.352,5.688,2.346,5.692C2.349,5.684,2.355,5.68,2.364,5.68z"/>
	<path fill="#FE60A4" d="M4.882,5.638c0.003-0.006,0.007-0.012,0.01-0.018C4.893,5.628,4.89,5.634,4.882,5.638z"/>
	<path fill="#FD7A8C" d="M1.14,6.75c0.006,0.004,0.013,0.008,0.019,0.012C1.15,6.762,1.144,6.758,1.14,6.75z"/>
	<path fill="#FE60A4" d="M2.453,5.623C2.449,5.627,2.445,5.63,2.44,5.633C2.442,5.626,2.446,5.623,2.453,5.623z"/>
	<path fill="#FE60A4" d="M2.498,5.596C2.496,5.6,2.492,5.602,2.487,5.604C2.489,5.598,2.492,5.595,2.498,5.596z"/>
	<path fill="#FE60A4" d="M2.529,5.577c-0.005,0.003-0.01,0.007-0.015,0.01C2.516,5.58,2.521,5.576,2.529,5.577z"/>
	<path fill="#FD7A8C" d="M2.436,7.594c0.006,0.004,0.013,0.008,0.019,0.013C2.446,7.606,2.439,7.602,2.436,7.594z"/>
	<path fill="#FD7A8C" d="M2.456,7.607C2.46,7.61,2.465,7.613,2.469,7.617C2.462,7.617,2.458,7.613,2.456,7.607z"/>
	<path fill="#FD7A8C" d="M2.482,7.623C2.488,7.628,2.494,7.632,2.5,7.636C2.491,7.636,2.485,7.631,2.482,7.623z"/>
	<path fill="#FD7A8C" d="M2.502,7.637c0.005,0.002,0.009,0.005,0.011,0.009C2.507,7.646,2.504,7.643,2.502,7.637z"/>
	<path fill="#FE60A4" d="M2.574,5.548c-0.004,0.003-0.009,0.006-0.013,0.01C2.563,5.551,2.567,5.548,2.574,5.548z"/>
	<path fill="#FD7A8C" d="M2.758,7.803C2.763,7.805,2.767,7.808,2.77,7.812C2.763,7.812,2.76,7.809,2.758,7.803z"/>
	<path fill="#FD9574" d="M3.571,8.33C3.575,8.333,3.58,8.337,3.584,8.34C3.577,8.34,3.573,8.337,3.571,8.33z"/>
	<path fill="#FDAC5E" d="M4.667,9.04c0.008,0.001,0.014,0.005,0.018,0.012C4.676,9.052,4.67,9.049,4.667,9.04z"/>
	<path fill="#FDAC5E" d="M4.686,9.053C4.69,9.056,4.695,9.06,4.699,9.063C4.692,9.064,4.688,9.06,4.686,9.053z"/>
	<path fill="#FDAC5E" d="M4.711,9.07C4.718,9.074,4.724,9.078,4.73,9.082C4.721,9.082,4.715,9.078,4.711,9.07z"/>
	<path fill="#FDAC5E" d="M4.758,9.1c0.005,0.004,0.011,0.008,0.016,0.012C4.766,9.112,4.761,9.108,4.758,9.1z"/>
	<path fill="#FDAC5E" d="M4.783,9.116c0.01,0,0.017,0.005,0.022,0.014C4.795,9.129,4.787,9.125,4.783,9.116z"/>
	<path fill="#FDAC5E" d="M4.804,9.129c0.005,0.004,0.01,0.007,0.016,0.011C4.811,9.141,4.806,9.137,4.804,9.129z"/>
	<path fill="#FDAC5E" d="M4.829,9.146c0.01,0,0.017,0.005,0.021,0.013C4.84,9.159,4.833,9.155,4.829,9.146z"/>
	<path fill="#FDAC5E" d="M4.85,9.159C4.855,9.163,4.86,9.166,4.865,9.17C4.857,9.171,4.852,9.167,4.85,9.159z"/>
	<path fill="#FDAC5E" d="M4.875,9.176c0.009,0.001,0.016,0.005,0.02,0.013C4.886,9.189,4.879,9.184,4.875,9.176z"/>
	<path fill="#FDAC5E" d="M4.896,9.189C4.9,9.193,4.905,9.196,4.91,9.2C4.902,9.2,4.898,9.196,4.896,9.189z"/>
	<path fill="#FDAC5E" d="M4.921,9.206C4.93,9.206,4.936,9.211,4.941,9.218C4.932,9.218,4.925,9.214,4.921,9.206z"/>
	<path fill="#FDAC5E" d="M4.942,9.219c0.004,0.003,0.009,0.007,0.013,0.01C4.948,9.229,4.943,9.226,4.942,9.219z"/>
	<path fill="#FDAC5E" d="M4.967,9.236C4.974,9.24,4.98,9.244,4.986,9.248C4.977,9.248,4.971,9.244,4.967,9.236z"/>
	<path fill="#FDAC5E" d="M4.988,9.249C4.992,9.252,4.996,9.255,5,9.258C4.993,9.259,4.989,9.255,4.988,9.249z"/>
	<path fill="#666666" d="M25.636,6.664c0.005,0.022-0.01,0.038-0.018,0.055c-0.066,0.13-0.133,0.259-0.199,0.389
		c-0.147,0.288-0.294,0.576-0.442,0.864c-0.195,0.379-0.39,0.759-0.584,1.138c-0.119,0.232-0.237,0.465-0.356,0.697
		c-0.106,0.208-0.213,0.415-0.319,0.623c-0.006,0.011-0.012,0.022-0.017,0.034c-0.01,0.023-0.028,0.034-0.053,0.034
		c-0.068,0.001-0.136,0.002-0.203,0.004c-0.175,0.005-0.351,0.007-0.526,0.019c-0.12,0.008-0.241,0.009-0.361,0.012
		c-0.01,0-0.02-0.001-0.028-0.001c-0.013-0.015-0.002-0.025,0.003-0.035c0.137-0.248,0.274-0.496,0.41-0.745
		c0.071-0.13,0.141-0.26,0.212-0.39c0.13-0.237,0.262-0.474,0.392-0.712c0.092-0.167,0.183-0.334,0.275-0.501
		c0.129-0.235,0.26-0.47,0.389-0.705c0.1-0.182,0.199-0.366,0.299-0.548c0.035-0.064,0.072-0.127,0.104-0.192
		c0.017-0.035,0.041-0.045,0.077-0.045c0.211,0.001,0.422,0,0.633-0.001c0.09,0,0.181-0.001,0.271,0
		C25.607,6.656,25.623,6.652,25.636,6.664z"/>
	<path fill="#FE55AF" d="M24.496,3.811c0.017,0.033,0.036,0.065,0.052,0.098c0.083,0.167,0.165,0.334,0.247,0.502
		c0.008,0.015,0.012,0.032,0.019,0.048c-0.012,0.313-0.003,0.626-0.005,0.939c-0.001,0.215-0.001,0.431,0,0.646
		c0,0.105,0.004,0.108,0.111,0.108c0.095,0.001,0.19-0.002,0.286,0.002c0.071,0.006,0.147-0.023,0.213,0.025
		c-0.019,0.009-0.039,0.006-0.059,0.006c-0.281,0.001-0.562,0.003-0.843,0.004c-0.008,0-0.015,0-0.023,0
		c-0.04-0.001-0.052,0.014-0.072-0.054c-0.014-0.059-0.008-0.119-0.008-0.179c0-0.679,0-1.357,0-2.036
		c0-0.035-0.002-0.07,0.003-0.105c0.004-0.03,0.009-0.062,0.05-0.063c0.004,0.002,0.005,0.005,0.004,0.009
		c0.001,0.009,0.006,0.014,0.011,0.021c0.004,0.002,0.006,0.005,0.004,0.01C24.485,3.799,24.491,3.804,24.496,3.811z"/>
	<path fill="#FE679F" d="M24.466,3.751c-0.016,0.009-0.027,0.022-0.028,0.042c-0.001,0.023-0.001,0.045-0.001,0.068
		c0,0.714,0,1.427,0,2.141c0,0.045-0.002,0.09-0.017,0.133c-0.008-0.013-0.017-0.025-0.023-0.038
		c-0.089-0.188-0.177-0.375-0.265-0.563c-0.005-0.011-0.008-0.023-0.012-0.035c-0.017-0.033-0.009-0.069-0.009-0.103
		c0.001-0.706-0.001-1.412,0.001-2.117c0-0.051-0.018-0.113,0.05-0.143c0.004,0.003,0.006,0.007,0.004,0.012
		c0.004,0.005,0.007,0.011,0.01,0.016c0.002,0.005,0.004,0.009,0.005,0.014c0.004,0.005,0.007,0.01,0.01,0.016
		c0.002,0.005,0.004,0.009,0.005,0.014c0.004,0.005,0.007,0.01,0.009,0.016c0.061,0.122,0.124,0.244,0.184,0.367
		C24.417,3.643,24.448,3.694,24.466,3.751z"/>
	<path fill="#FD798E" d="M24.163,3.134c-0.019,0.022-0.028,0.047-0.027,0.076c0.001,0.017,0,0.035,0,0.053c0,0.668,0,1.337,0,2.005
		c0,0.077,0.005,0.155-0.015,0.231c-0.007-0.01-0.014-0.02-0.019-0.031c-0.09-0.191-0.18-0.382-0.27-0.573
		c-0.006-0.013-0.01-0.028-0.015-0.042c0.007-0.065,0.009-0.13,0.009-0.195c0-0.66-0.001-1.32,0.001-1.98
		c0-0.048-0.014-0.103,0.041-0.135c0.008,0.012,0.017,0.024,0.024,0.037c0.087,0.176,0.174,0.352,0.261,0.528
		C24.157,3.115,24.159,3.125,24.163,3.134z"/>
	<path fill="#FD8C7C" d="M23.868,2.541c-0.017,0.027-0.018,0.056-0.018,0.087c0.001,0.103,0,0.206,0,0.309c0,0.597,0,1.194,0,1.791
		c0,0.018,0,0.035,0,0.053c0,0.029-0.008,0.054-0.033,0.072c-0.01-0.017-0.02-0.034-0.029-0.051
		c-0.084-0.178-0.168-0.355-0.252-0.533c-0.005-0.011-0.009-0.023-0.013-0.035c0.012-0.037,0.001-0.075,0.001-0.112
		c0.001-0.566,0-1.133,0.001-1.699c0-0.044-0.01-0.091,0.024-0.13c0.063-0.006,0.125,0.011,0.187,0.012
		c0.014,0,0.023,0.008,0.029,0.02C23.8,2.396,23.841,2.465,23.868,2.541z"/>
	<path fill="#FE3BC8" d="M25.206,6.173c-0.125,0.001-0.25,0.002-0.376,0.002c-0.041,0-0.045-0.006-0.047-0.05
		c0-0.008,0-0.015,0-0.023c0-0.516,0-1.032,0-1.547c0-0.035-0.001-0.071,0.03-0.096c0,0,0,0.001,0,0.001
		c0.009,0.007,0.006,0.021,0.014,0.029c0.009,0.015,0.019,0.029,0.027,0.045c0.122,0.247,0.244,0.494,0.366,0.742
		c0.007,0.013,0.01,0.028,0.016,0.042c-0.016,0.247-0.003,0.495-0.008,0.742C25.229,6.098,25.237,6.14,25.206,6.173z"/>
	<path fill="#FD9E6B" d="M23.549,2.292c0,0.616,0,1.233,0,1.849c0,0.023,0,0.045-0.001,0.068c-0.001,0.014-0.012,0.021-0.025,0.024
		c-0.005-0.003-0.006-0.008-0.005-0.013c-0.004-0.005-0.007-0.01-0.009-0.016c-0.002-0.005-0.004-0.011-0.006-0.016
		c-0.004-0.004-0.007-0.008-0.008-0.014c-0.101-0.216-0.203-0.433-0.304-0.649c0.01-0.07,0.002-0.14,0.002-0.21
		c0.001-0.273,0-0.547,0.001-0.82c0-0.078-0.003-0.155-0.006-0.233c0.093,0.006,0.187,0.012,0.28,0.019
		C23.495,2.284,23.522,2.289,23.549,2.292z"/>
	<path fill="#FDB655" d="M23.188,2.263c0.017,0.015,0.034,0.03,0.03,0.057c-0.002,0.012,0,0.025,0,0.038c0,0.361,0,0.723,0,1.084
		c0,0.02,0,0.04-0.001,0.06c-0.001,0.014-0.012,0.021-0.025,0.024c-0.005-0.003-0.006-0.007-0.004-0.013
		c-0.004-0.005-0.007-0.011-0.01-0.017c-0.002-0.005-0.003-0.01-0.005-0.015c-0.008-0.009-0.005-0.023-0.015-0.031l0,0
		c-0.009-0.008-0.006-0.022-0.014-0.03l0-0.001c-0.009-0.007-0.006-0.021-0.014-0.029c-0.009-0.015-0.018-0.03-0.026-0.045
		c-0.168-0.356-0.336-0.711-0.503-1.067c-0.008-0.018-0.021-0.034-0.02-0.055c0.001-0.002,0.002-0.005,0.003-0.006
		c0.002-0.001,0.005-0.003,0.007-0.003C22.789,2.225,22.989,2.24,23.188,2.263z"/>
	<path fill="#FF22DF" d="M25.206,6.173c0-0.254,0-0.507-0.001-0.761c0-0.036,0-0.071,0.031-0.096c0,0,0,0,0,0
		c0.007,0.009,0.005,0.023,0.015,0.031l0,0c0.008,0.009,0.005,0.023,0.015,0.03l0,0c0.008,0.009,0.005,0.023,0.015,0.03l0,0
		c0.008,0.008,0.005,0.022,0.015,0.03l0,0c0.008,0.008,0.005,0.022,0.015,0.03l0,0.001c0.008,0.008,0.005,0.022,0.015,0.03l0,0.001
		c0.004,0.004,0.007,0.008,0.008,0.013c0.002,0.006,0.005,0.011,0.007,0.017c0.009,0.008,0.005,0.022,0.014,0.029l0.001,0.001
		c0.009,0.008,0.006,0.021,0.015,0.029l0.001,0.001c0.004,0.003,0.007,0.007,0.008,0.012c0.002,0.006,0.005,0.012,0.007,0.018
		c0.006,0.002,0.008,0.006,0.007,0.012c0.056,0.111,0.112,0.222,0.168,0.333c0.028,0.056,0.055,0.112,0.082,0.168
		c0.006,0.013,0.018,0.025,0.009,0.044c-0.008,0.001-0.017,0.004-0.026,0.004c-0.07,0-0.139-0.001-0.209-0.002
		C25.347,6.177,25.277,6.175,25.206,6.173z"/>
	<path fill="#FD9E6B" d="M23.128,3.39c0.011,0.006,0.014,0.017,0.014,0.029C23.132,3.411,23.127,3.402,23.128,3.39z"/>
	<path fill="#FD9E6B" d="M23.142,3.419c0.012,0.007,0.014,0.018,0.014,0.03C23.146,3.442,23.142,3.432,23.142,3.419z"/>
	<path fill="#FD9E6B" d="M23.157,3.45c0.012,0.007,0.015,0.018,0.015,0.031C23.161,3.473,23.156,3.463,23.157,3.45z"/>
	<path fill="#FE55AF" d="M24.828,4.489c-0.011-0.006-0.014-0.017-0.014-0.029C24.824,4.467,24.829,4.476,24.828,4.489z"/>
	<path fill="#FE3BC8" d="M25.371,5.588c-0.012-0.006-0.015-0.017-0.015-0.029C25.367,5.566,25.372,5.576,25.371,5.588z"/>
	<path fill="#FE3BC8" d="M25.356,5.558c-0.012-0.006-0.015-0.017-0.014-0.029C25.353,5.536,25.357,5.546,25.356,5.558z"/>
	<path fill="#FE3BC8" d="M25.326,5.498c-0.012-0.006-0.015-0.017-0.015-0.03C25.323,5.475,25.327,5.485,25.326,5.498z"/>
	<path fill="#FE3BC8" d="M25.312,5.468c-0.012-0.006-0.015-0.017-0.015-0.03C25.308,5.445,25.312,5.455,25.312,5.468z"/>
	<path fill="#FE3BC8" d="M25.297,5.437c-0.013-0.006-0.015-0.017-0.015-0.03C25.293,5.415,25.297,5.425,25.297,5.437z"/>
	<path fill="#FE3BC8" d="M25.282,5.407c-0.013-0.006-0.015-0.017-0.015-0.03C25.278,5.384,25.282,5.395,25.282,5.407z"/>
	<path fill="#FE3BC8" d="M25.267,5.377c-0.013-0.006-0.016-0.017-0.015-0.03C25.263,5.354,25.267,5.364,25.267,5.377z"/>
	<path fill="#FE3BC8" d="M25.252,5.347c-0.013-0.006-0.016-0.017-0.015-0.031C25.248,5.324,25.252,5.334,25.252,5.347z"/>
	<path fill="#FE679F" d="M24.481,3.781C24.473,3.776,24.47,3.769,24.47,3.76C24.478,3.764,24.481,3.771,24.481,3.781z"/>
	<path fill="#FE3BC8" d="M25.394,5.632c-0.004-0.003-0.007-0.007-0.007-0.012C25.393,5.622,25.396,5.626,25.394,5.632z"/>
	<path fill="#FE3BC8" d="M25.38,5.602c-0.003-0.004-0.005-0.008-0.008-0.012C25.378,5.591,25.381,5.595,25.38,5.602z"/>
	<path fill="#FD798E" d="M24.177,3.163c-0.003-0.005-0.007-0.011-0.01-0.016C24.174,3.15,24.178,3.155,24.177,3.163z"/>
	<path fill="#FE3BC8" d="M25.335,5.512c-0.003-0.004-0.006-0.009-0.008-0.013C25.333,5.501,25.337,5.505,25.335,5.512z"/>
	<path fill="#FD798E" d="M24.192,3.193c-0.003-0.005-0.007-0.011-0.01-0.016C24.189,3.18,24.193,3.185,24.192,3.193z"/>
	<path fill="#FD798E" d="M24.206,3.223c-0.003-0.005-0.006-0.01-0.009-0.016C24.204,3.21,24.207,3.215,24.206,3.223z"/>
	<path fill="#FD9E6B" d="M23.177,3.495c0.003,0.006,0.006,0.011,0.01,0.017C23.179,3.509,23.175,3.504,23.177,3.495z"/>
	<path fill="#FE679F" d="M24.496,3.811c-0.007-0.005-0.011-0.012-0.011-0.021C24.493,3.795,24.496,3.801,24.496,3.811z"/>
	<path fill="#FD8C7C" d="M23.495,4.174c0.003,0.005,0.005,0.009,0.008,0.014C23.497,4.185,23.494,4.181,23.495,4.174z"/>
	<path fill="#FD8C7C" d="M23.509,4.204c0.003,0.005,0.006,0.01,0.009,0.016C23.511,4.216,23.508,4.211,23.509,4.204z"/>
	<path fill="#FE6B9B" d="M27.435,6.943c0-0.024,0.015-0.042,0.024-0.063c0.038-0.082,0.076-0.164,0.118-0.244
		c0.02-0.038,0.016-0.068-0.002-0.104c-0.095-0.193-0.189-0.388-0.282-0.582c-0.024-0.05-0.053-0.097-0.068-0.15
		c0.025-0.037,0.064-0.039,0.101-0.037c0.213,0.007,0.426-0.01,0.638-0.019c0.325-0.014,0.65-0.023,0.975-0.037
		c0.217-0.01,0.435-0.024,0.653-0.021c0.025,0,0.05,0.001,0.074-0.007c0.011,0.005,0.023,0.009,0.033,0.016
		c0.461,0.288,0.922,0.576,1.382,0.865c0.014,0.009,0.032,0.014,0.039,0.034c-0.007,0.006-0.014,0.013-0.023,0.018
		c-0.122,0.079-0.244,0.158-0.366,0.237c-0.006,0.004-0.014,0.006-0.021,0.008c-0.078,0.02-0.16,0.014-0.239,0.018
		c-0.163,0.007-0.326,0.013-0.489,0.018c-0.383,0.012-0.767,0.023-1.15,0.044c-0.123,0.007-0.246,0.008-0.368,0.012
		c-0.311,0.008-0.621,0.03-0.932,0.034C27.498,6.983,27.452,6.997,27.435,6.943z"/>
	<path fill="#FD8E7A" d="M27.435,6.943c0.01,0.014,0.024,0.017,0.04,0.017c0.073,0,0.147,0.009,0.218-0.002
		c0.112-0.018,0.225-0.009,0.337-0.013c0.008,0,0.016,0.001,0.022-0.001c0.084-0.024,0.169-0.011,0.254-0.014
		c0.043-0.001,0.085,0,0.128,0c0.013,0,0.026,0.002,0.037-0.001c0.104-0.026,0.209-0.01,0.314-0.014
		c0.037-0.002,0.075,0.002,0.111-0.011c0.018-0.007,0.04-0.004,0.06-0.004c0.073,0,0.145,0,0.218,0c0.045,0,0.09,0.004,0.134-0.012
		c0.016-0.006,0.035-0.003,0.052-0.003c0.078,0,0.155,0,0.233,0c0.04,0,0.08,0.003,0.119-0.011c0.018-0.006,0.04-0.003,0.06-0.003
		c0.075,0,0.15,0,0.226,0c0.047,0,0.095,0.004,0.141-0.012c0.016-0.006,0.035-0.002,0.052-0.003c0.075,0,0.15,0,0.226,0
		c0.042,0,0.084-0.001,0.126-0.011c0.038-0.009,0.079-0.009,0.119,0.004c0.017,0.005,0.034,0.007,0.051,0.01
		c-0.051,0.036-0.101,0.074-0.153,0.108c-0.471,0.306-0.942,0.611-1.413,0.917c-0.017,0.011-0.031,0.025-0.052,0.029
		c-0.039-0.011-0.08-0.009-0.119-0.007c-0.324,0.024-0.65,0.018-0.975,0.042c-0.137,0.01-0.275,0.005-0.413,0.013
		c-0.177,0.01-0.355,0.014-0.533,0.019c-0.037,0.001-0.076,0.007-0.106-0.025c0.006-0.016,0.011-0.033,0.019-0.048
		c0.148-0.308,0.296-0.616,0.444-0.923C27.418,6.967,27.427,6.955,27.435,6.943z"/>
	<path fill="#FE46BD" d="M29.667,5.678c-0.013,0.027-0.036,0.032-0.063,0.031c-0.068-0.001-0.135-0.001-0.203,0
		c-0.037,0-0.075-0.002-0.111,0.011c-0.018,0.007-0.04,0.004-0.06,0.004c-0.073,0-0.145,0-0.218,0c-0.045,0-0.09-0.004-0.134,0.012
		c-0.016,0.006-0.035,0.003-0.052,0.003c-0.083,0-0.165,0-0.248,0c-0.04,0-0.08-0.003-0.119,0.011
		c-0.018,0.006-0.04,0.003-0.06,0.003c-0.08,0-0.16,0-0.241,0c-0.035,0-0.07-0.002-0.104,0.011c-0.018,0.007-0.04,0.004-0.06,0.004
		c-0.075,0-0.15,0-0.226,0c-0.042,0-0.085-0.003-0.126,0.012c-0.018,0.006-0.04,0.003-0.06,0.003c-0.08,0-0.16,0.001-0.241,0
		c-0.04-0.001-0.08,0.002-0.118,0.015c-0.008-0.013-0.016-0.025-0.023-0.038c-0.143-0.295-0.285-0.589-0.428-0.884
		c-0.006-0.013-0.01-0.028-0.016-0.042c0.05-0.036,0.108-0.037,0.165-0.037c0.36,0.001,0.719-0.033,1.079-0.032
		c0.057,0,0.114-0.011,0.171-0.021c0.015,0.008,0.032,0.015,0.046,0.024c0.4,0.25,0.799,0.5,1.199,0.75
		c0.013,0.008,0.024,0.018,0.036,0.027c0.006,0.004,0.011,0.01,0.018,0.012c0.004,0.002,0.009,0.004,0.013,0.007
		c0.005,0.002,0.01,0.006,0.013,0.01c0.014,0.001,0.023,0.009,0.032,0.019c0.005,0.004,0.01,0.007,0.016,0.011
		c0.005,0.003,0.01,0.005,0.015,0.008c0.005,0.001,0.009,0.004,0.012,0.009l0.002,0.001c0.006,0.005,0.011,0.01,0.019,0.012
		c0.006-0.001,0.01,0.001,0.012,0.006c0.005,0.003,0.01,0.006,0.014,0.01l0.001,0c0.005,0.006,0.011,0.012,0.02,0.013
		c0.005-0.001,0.008,0.001,0.01,0.005C29.657,5.671,29.662,5.674,29.667,5.678L29.667,5.678z"/>
	<path fill="#FDA861" d="M26.949,7.952c0.073,0,0.145,0.001,0.218,0.001c0.008,0,0.015,0.001,0.023-0.001
		c0.114-0.028,0.23-0.009,0.344-0.014c0.037-0.002,0.075,0.002,0.111-0.011c0.018-0.007,0.04-0.004,0.06-0.004
		c0.073,0,0.146,0,0.218,0c0.045,0,0.09,0.004,0.134-0.012c0.016-0.006,0.035-0.003,0.052-0.003c0.08,0,0.161,0,0.241,0
		c0.042,0,0.085,0.004,0.126-0.012c0.016-0.006,0.035-0.003,0.052-0.003c0.068,0,0.135,0,0.203,0
		c0.052-0.001,0.104-0.001,0.157-0.011c0.053-0.01,0.11-0.003,0.165-0.003c0.019,0,0.031,0.014,0.04,0.03c0,0,0,0,0,0
		c-0.005,0.004-0.011,0.008-0.016,0.012c-0.001,0.004-0.004,0.006-0.008,0.005c-0.01,0.001-0.016,0.006-0.022,0.014l0,0
		c-0.005,0.004-0.01,0.008-0.015,0.011c-0.002,0.005-0.005,0.006-0.01,0.005c-0.009,0.001-0.015,0.007-0.021,0.013
		c-0.016,0.012-0.031,0.025-0.047,0.036c-0.424,0.275-0.848,0.55-1.272,0.825c-0.017,0.011-0.031,0.025-0.052,0.029
		c-0.053-0.024-0.109-0.007-0.163-0.009c-0.221-0.008-0.44,0.024-0.661,0.016c-0.068-0.002-0.134,0.019-0.202,0.015
		c-0.032-0.002-0.066,0.003-0.092-0.024c0.006-0.016,0.011-0.033,0.018-0.049c0.131-0.273,0.262-0.545,0.393-0.818
		C26.933,7.977,26.942,7.965,26.949,7.952z"/>
	<path fill="#FE2ED3" d="M28.175,4.745c-0.003,0.021-0.015,0.027-0.035,0.031c-0.089,0.019-0.179,0.013-0.268,0.015
		c-0.074,0.002-0.15-0.009-0.223,0.013c-0.016,0.005-0.035,0.001-0.052,0.001c-0.072,0-0.145,0-0.217,0
		c-0.042,0-0.085-0.003-0.126,0.012C27.237,4.823,27.218,4.82,27.2,4.82c-0.075,0-0.15,0-0.225,0c-0.05,0-0.099-0.004-0.148,0.012
		c-0.02,0.007-0.045,0.002-0.067,0.002c-0.01-0.017-0.021-0.034-0.029-0.052c-0.207-0.429-0.413-0.858-0.62-1.287
		c-0.008-0.017-0.016-0.035-0.023-0.052c0.02-0.008,0.028,0.003,0.038,0.009c0.364,0.227,0.727,0.454,1.091,0.682
		c0.285,0.179,0.569,0.358,0.853,0.537c0.021,0.013,0.045,0.023,0.061,0.043c0.006,0.005,0.011,0.011,0.019,0.012
		c0.005-0.001,0.009,0.001,0.011,0.006C28.165,4.737,28.17,4.741,28.175,4.745L28.175,4.745z"/>
	<path fill="#FCC745" d="M26.515,8.857c0.045,0,0.09,0.001,0.135,0.001c0.01,0,0.02,0.002,0.03-0.001
		c0.103-0.027,0.208-0.01,0.313-0.014c0.05-0.002,0.099,0.005,0.148-0.013c0.016-0.006,0.035-0.002,0.052-0.002
		c0.077,0,0.155,0,0.232,0c0.045,0,0.089,0.003,0.133-0.011c0.034-0.011,0.054,0.004,0.074,0.042c0,0,0,0,0,0
		c-0.005,0.004-0.01,0.008-0.015,0.011c-0.002,0.004-0.005,0.006-0.01,0.005c-0.009,0.001-0.015,0.007-0.021,0.013l0,0
		c-0.004,0.005-0.009,0.008-0.015,0.011c-0.002,0.005-0.006,0.007-0.011,0.006c-0.008,0.002-0.014,0.007-0.02,0.013l-0.001,0
		c-0.004,0.005-0.008,0.008-0.014,0.011c-0.002,0.005-0.006,0.007-0.012,0.006c-0.008,0.002-0.013,0.008-0.019,0.013l-0.001,0.001
		c-0.003,0.005-0.007,0.008-0.013,0.01c-0.003,0.005-0.007,0.007-0.013,0.007c-0.007,0.003-0.012,0.008-0.019,0.012l-0.002,0.001
		c-0.002,0.005-0.006,0.008-0.012,0.009c-0.005,0.002-0.009,0.005-0.014,0.007c-0.006,0.004-0.011,0.008-0.017,0.012
		c-0.001,0.004-0.004,0.006-0.009,0.005c-0.01,0-0.016,0.006-0.021,0.014l0,0c-0.005,0.004-0.01,0.008-0.015,0.011
		c-0.002,0.005-0.005,0.006-0.01,0.006c-0.009,0.001-0.015,0.006-0.02,0.013l0,0c-0.004,0.004-0.009,0.008-0.015,0.011
		c-0.002,0.005-0.006,0.007-0.011,0.006c-0.009,0.001-0.014,0.007-0.02,0.013c-0.018,0.022-0.044,0.033-0.067,0.048
		c-0.276,0.179-0.552,0.358-0.827,0.537c-0.111,0.073-0.222,0.146-0.333,0.219c-0.012,0.008-0.025,0.016-0.04,0.025
		c-0.012-0.021,0.001-0.035,0.008-0.048c0.095-0.199,0.19-0.398,0.286-0.597c0.056-0.118,0.113-0.235,0.17-0.352
		C26.492,8.895,26.504,8.876,26.515,8.857z"/>
	<path fill="#FE46BD" d="M28.149,4.728c-0.009,0-0.015-0.005-0.019-0.012C28.138,4.716,28.145,4.72,28.149,4.728z"/>
	<path fill="#FE46BD" d="M28.175,4.745c-0.005-0.004-0.01-0.007-0.015-0.011C28.168,4.733,28.173,4.737,28.175,4.745z"/>
	<path fill="#FE6B9B" d="M29.667,5.678c-0.005-0.004-0.01-0.007-0.016-0.011C29.66,5.666,29.665,5.67,29.667,5.678z"/>
	<path fill="#FE6B9B" d="M29.641,5.662c-0.009,0-0.016-0.005-0.02-0.013C29.63,5.649,29.637,5.653,29.641,5.662z"/>
	<path fill="#FE6B9B" d="M29.62,5.649c-0.005-0.003-0.009-0.007-0.014-0.01C29.614,5.638,29.618,5.642,29.62,5.649z"/>
	<path fill="#FE6B9B" d="M29.594,5.632c-0.006-0.004-0.013-0.008-0.019-0.012C29.584,5.62,29.591,5.624,29.594,5.632z"/>
	<path fill="#FE6B9B" d="M29.573,5.619c-0.005-0.001-0.009-0.004-0.012-0.009C29.569,5.61,29.572,5.613,29.573,5.619z"/>
	<path fill="#FE6B9B" d="M29.547,5.603c-0.005-0.004-0.01-0.007-0.016-0.011C29.539,5.591,29.545,5.595,29.547,5.603z"/>
	<path fill="#FE6B9B" d="M29.5,5.573c-0.004-0.003-0.009-0.007-0.013-0.01C29.494,5.562,29.498,5.566,29.5,5.573z"/>
	<path fill="#FE6B9B" d="M29.473,5.557c-0.006-0.004-0.012-0.008-0.018-0.012C29.464,5.545,29.47,5.549,29.473,5.557z"/>
	<path fill="#FD8E7A" d="M29.079,7.921c0.005-0.004,0.011-0.008,0.016-0.012C29.092,7.917,29.087,7.921,29.079,7.921z"/>
	<path fill="#FD8E7A" d="M29.048,7.939c0.005-0.009,0.012-0.013,0.022-0.014C29.066,7.934,29.058,7.939,29.048,7.939z"/>
	<path fill="#FD8E7A" d="M29.034,7.95c0.005-0.004,0.01-0.007,0.015-0.011C29.047,7.947,29.042,7.951,29.034,7.95z"/>
	<path fill="#FD8E7A" d="M29.003,7.969c0.004-0.008,0.011-0.013,0.021-0.013C29.02,7.964,29.013,7.969,29.003,7.969z"/>
	<path fill="#FDA861" d="M27.617,8.869c0.005-0.004,0.01-0.007,0.015-0.011C27.63,8.866,27.625,8.87,27.617,8.869z"/>
	<path fill="#FDA861" d="M27.587,8.888c0.004-0.008,0.011-0.013,0.021-0.013C27.603,8.883,27.596,8.887,27.587,8.888z"/>
	<path fill="#FDA861" d="M27.572,8.899c0.005-0.004,0.01-0.007,0.015-0.011C27.584,8.895,27.58,8.899,27.572,8.899z"/>
	<path fill="#FDA861" d="M27.541,8.917c0.004-0.008,0.011-0.012,0.02-0.013C27.557,8.913,27.551,8.917,27.541,8.917z"/>
	<path fill="#FDA861" d="M27.527,8.928c0.005-0.004,0.009-0.007,0.014-0.011C27.539,8.925,27.534,8.929,27.527,8.928z"/>
	<path fill="#FDA861" d="M27.496,8.947c0.006-0.004,0.013-0.008,0.019-0.013C27.511,8.942,27.505,8.947,27.496,8.947z"/>
	<path fill="#FDA861" d="M27.482,8.958c0.004-0.003,0.009-0.007,0.013-0.01C27.493,8.954,27.489,8.958,27.482,8.958z"/>
	<path fill="#FDA861" d="M27.451,8.976c0.006-0.004,0.012-0.008,0.019-0.012C27.466,8.972,27.46,8.976,27.451,8.976z"/>
	<path fill="#FDA861" d="M27.437,8.986c0.004-0.003,0.008-0.006,0.012-0.009C27.447,8.984,27.444,8.987,27.437,8.986z"/>
	<path fill="#FDA861" d="M27.406,9.005c0.006-0.004,0.011-0.008,0.017-0.012C27.42,9.002,27.415,9.006,27.406,9.005z"/>
	<path fill="#FDA861" d="M27.376,9.024c0.004-0.009,0.012-0.013,0.021-0.014C27.393,9.019,27.386,9.024,27.376,9.024z"/>
	<path fill="#FDA861" d="M27.361,9.035c0.005-0.004,0.01-0.007,0.015-0.011C27.374,9.032,27.369,9.035,27.361,9.035z"/>
	<path fill="#FDA861" d="M27.331,9.054c0.004-0.008,0.011-0.013,0.02-0.013C27.347,9.049,27.34,9.053,27.331,9.054z"/>
	<path fill="#FDA861" d="M27.316,9.064c0.005-0.004,0.01-0.007,0.015-0.011C27.329,9.061,27.324,9.065,27.316,9.064z"/>
	<path fill="#FDA861" d="M27.285,9.083c0.004-0.008,0.011-0.012,0.02-0.013C27.301,9.079,27.295,9.083,27.285,9.083z"/>
</g>
</svg>
