<?xml version="1.0" encoding="utf-8"?>
<!-- Generator: Adobe Illustrator 24.3.0, SVG Export Plug-In . SVG Version: 6.00 Build 0)  -->
<svg version="1.1" id="Слой_1" xmlns="http://www.w3.org/2000/svg" xmlns:xlink="http://www.w3.org/1999/xlink" x="0px" y="0px"
	 width="32px" height="13px" viewBox="0 0 32 13" enable-background="new 0 0 32 13" xml:space="preserve">
<g>
	<path d="M15.851,12.797c-1.22,0-2.44,0-3.661,0c-0.107,0-0.076,0.015-0.128-0.072c-0.14-0.231-0.28-0.462-0.419-0.694
		c-0.071-0.118-0.141-0.236-0.212-0.354c-0.119-0.198-0.239-0.397-0.358-0.595c-0.078-0.13-0.155-0.261-0.234-0.391
		c-0.111-0.184-0.222-0.368-0.333-0.551c-0.07-0.116-0.139-0.232-0.209-0.347c-0.122-0.203-0.244-0.405-0.365-0.608
		C9.854,9.052,9.776,8.919,9.697,8.786C9.586,8.602,9.475,8.419,9.364,8.235C9.293,8.117,9.223,7.999,9.152,7.881
		C9.033,7.683,8.913,7.485,8.794,7.286c-0.066-0.11-0.132-0.219-0.197-0.329c-0.071-0.118-0.14-0.236-0.213-0.353
		C8.364,6.572,8.36,6.546,8.381,6.512c0.082-0.131,0.16-0.264,0.24-0.396C8.66,6.052,8.699,5.988,8.737,5.924
		C8.85,5.735,8.962,5.547,9.075,5.358C9.2,5.149,9.326,4.941,9.451,4.732c0.127-0.211,0.253-0.422,0.38-0.633
		c0.127-0.211,0.253-0.422,0.38-0.633c0.128-0.213,0.256-0.426,0.384-0.639c0.125-0.209,0.251-0.418,0.376-0.627
		c0.128-0.213,0.256-0.426,0.383-0.639c0.125-0.209,0.251-0.418,0.376-0.626c0.118-0.196,0.237-0.392,0.354-0.589
		c0.012-0.021,0.026-0.033,0.051-0.031c0.017,0.001,0.034,0,0.051,0c2.443,0,4.886,0,7.328,0c0.01,0,0.019,0.001,0.029,0
		c0.041-0.006,0.066,0.009,0.086,0.047c0.039,0.072,0.085,0.14,0.127,0.21c0.113,0.188,0.225,0.377,0.338,0.565
		c0.126,0.211,0.253,0.422,0.38,0.633c0.094,0.157,0.189,0.314,0.283,0.471c0.16,0.267,0.32,0.534,0.48,0.8
		c0.093,0.155,0.186,0.31,0.279,0.465c0.129,0.215,0.258,0.43,0.387,0.645c0.092,0.153,0.184,0.306,0.276,0.459
		C22.32,4.843,22.46,5.074,22.6,5.305c0.08,0.132,0.158,0.265,0.237,0.398c0.109,0.182,0.22,0.363,0.329,0.545
		c0.056,0.093,0.11,0.187,0.166,0.28c0.011,0.019,0.014,0.032,0.002,0.052c-0.061,0.099-0.119,0.199-0.179,0.298
		c-0.038,0.064-0.077,0.128-0.116,0.192c-0.113,0.188-0.225,0.377-0.337,0.565c-0.16,0.267-0.32,0.534-0.48,0.8
		c-0.125,0.209-0.251,0.418-0.376,0.626c-0.128,0.213-0.256,0.426-0.384,0.639c-0.093,0.155-0.186,0.31-0.279,0.465
		c-0.139,0.231-0.279,0.462-0.419,0.694c-0.08,0.132-0.158,0.265-0.237,0.398c-0.14,0.234-0.282,0.467-0.422,0.7
		c-0.072,0.12-0.143,0.24-0.215,0.36c-0.089,0.149-0.18,0.297-0.268,0.447c-0.014,0.024-0.03,0.035-0.058,0.032
		c-0.019-0.002-0.039,0-0.058,0C18.287,12.797,17.069,12.797,15.851,12.797z"/>
	<path d="M0.155,6.587C0.182,6.56,0.211,6.548,0.238,6.533C0.645,6.307,1.053,6.081,1.46,5.856c0.363-0.201,0.726-0.401,1.089-0.602
		c0.333-0.185,0.666-0.37,1-0.555C3.88,4.516,4.212,4.333,4.543,4.15c0.333-0.185,0.666-0.37,1-0.554
		C5.876,3.411,6.21,3.227,6.543,3.043c0.331-0.183,0.662-0.368,0.993-0.551C7.87,2.307,8.204,2.123,8.537,1.939
		c0.3-0.166,0.599-0.333,0.898-0.499c0.158-0.088,0.316-0.176,0.475-0.263c0.106-0.058,0.212-0.059,0.315,0.009
		c0.109,0.071,0.158,0.229,0.086,0.344c-0.055,0.088-0.11,0.176-0.166,0.263c-0.042,0.065-0.085,0.129-0.127,0.194
		C9.905,2.161,9.794,2.336,9.681,2.51C9.556,2.705,9.429,2.899,9.304,3.094c-0.16,0.247-0.32,0.494-0.48,0.741
		C8.699,4.027,8.575,4.22,8.45,4.412C8.311,4.626,8.171,4.84,8.032,5.055c-0.077,0.119-0.154,0.24-0.231,0.359
		C7.689,5.586,7.577,5.758,7.466,5.93C7.392,6.043,7.32,6.157,7.246,6.27C7.22,6.311,7.194,6.352,7.167,6.391
		c-0.015,0.022-0.017,0.041,0,0.065c0.037,0.051,0.071,0.103,0.106,0.155c0.08,0.117,0.161,0.235,0.241,0.352
		c0.119,0.173,0.237,0.346,0.355,0.52c0.069,0.102,0.138,0.204,0.207,0.305C8.198,7.966,8.319,8.143,8.44,8.32
		c0.079,0.116,0.156,0.232,0.235,0.348c0.11,0.161,0.221,0.322,0.331,0.484C9.078,9.257,9.15,9.363,9.222,9.469
		c0.12,0.175,0.24,0.35,0.359,0.526c0.075,0.11,0.148,0.22,0.223,0.33c0.114,0.167,0.229,0.334,0.343,0.502
		c0.071,0.104,0.141,0.208,0.211,0.311c0.114,0.168,0.225,0.337,0.342,0.502c0.066,0.093,0.066,0.214,0.014,0.293
		c-0.065,0.099-0.159,0.145-0.278,0.134c-0.046-0.004-0.088-0.023-0.129-0.045c-0.106-0.057-0.212-0.114-0.319-0.171
		c-0.3-0.161-0.6-0.321-0.899-0.481c-0.304-0.163-0.608-0.325-0.912-0.488c-0.3-0.16-0.6-0.321-0.9-0.481
		c-0.268-0.143-0.536-0.287-0.804-0.43c-0.3-0.16-0.6-0.321-0.899-0.481C5.303,9.343,5.031,9.197,4.759,9.051
		C4.496,8.91,4.232,8.768,3.968,8.627c-0.24-0.128-0.481-0.257-0.721-0.385C2.943,8.08,2.639,7.917,2.335,7.754
		c-0.268-0.143-0.536-0.287-0.803-0.43C1.266,7.181,1,7.038,0.733,6.898C0.67,6.865,0.616,6.817,0.545,6.793
		C0.478,6.77,0.417,6.727,0.353,6.693C0.289,6.659,0.225,6.625,0.155,6.587z"/>
	<path d="M31.583,6.202c-0.054,0.03-0.095,0.054-0.137,0.077c-0.363,0.201-0.726,0.402-1.089,0.603
		c-0.395,0.219-0.789,0.437-1.184,0.656c-0.397,0.22-0.794,0.439-1.191,0.658c-0.397,0.22-0.793,0.44-1.19,0.66
		c-0.395,0.218-0.79,0.436-1.184,0.655c-0.331,0.183-0.662,0.367-0.994,0.551c-0.333,0.185-0.667,0.369-1.001,0.553
		c-0.302,0.167-0.603,0.335-0.905,0.502c-0.289,0.16-0.578,0.32-0.867,0.48c-0.021,0.012-0.042,0.023-0.065,0.032
		c-0.166,0.069-0.353-0.035-0.385-0.197c-0.014-0.073,0-0.14,0.039-0.201c0.135-0.209,0.271-0.416,0.406-0.625
		c0.081-0.125,0.161-0.252,0.243-0.377c0.14-0.217,0.282-0.433,0.422-0.649c0.077-0.119,0.154-0.24,0.231-0.359
		c0.111-0.172,0.224-0.344,0.335-0.516c0.073-0.113,0.146-0.227,0.22-0.341c0.118-0.182,0.237-0.364,0.355-0.546
		c0.07-0.107,0.138-0.215,0.208-0.322c0.121-0.186,0.241-0.372,0.362-0.559c0.077-0.12,0.154-0.239,0.231-0.359
		c0.038-0.059,0.075-0.118,0.114-0.176c0.018-0.027,0.022-0.048,0.001-0.077c-0.055-0.076-0.105-0.156-0.158-0.234
		C24.359,6.026,24.314,5.963,24.27,5.9c-0.155-0.227-0.31-0.454-0.465-0.682c-0.08-0.118-0.159-0.236-0.239-0.354
		c-0.14-0.205-0.281-0.41-0.421-0.615c-0.071-0.104-0.141-0.208-0.211-0.312c-0.121-0.177-0.242-0.355-0.363-0.532
		c-0.077-0.114-0.154-0.228-0.231-0.342c-0.111-0.163-0.224-0.326-0.335-0.49c-0.071-0.104-0.141-0.208-0.212-0.311
		c-0.12-0.175-0.24-0.351-0.359-0.526c-0.072-0.106-0.143-0.212-0.215-0.317c-0.054-0.08-0.109-0.159-0.163-0.239
		c-0.015-0.022-0.03-0.044-0.042-0.067c-0.079-0.152-0.004-0.341,0.178-0.387c0.073-0.019,0.144-0.009,0.21,0.026
		c0.155,0.083,0.311,0.166,0.466,0.249c0.274,0.147,0.549,0.293,0.823,0.44c0.302,0.162,0.604,0.324,0.906,0.486
		c0.268,0.143,0.536,0.286,0.804,0.43c0.268,0.143,0.536,0.287,0.804,0.43c0.3,0.16,0.6,0.321,0.9,0.481
		c0.272,0.146,0.544,0.292,0.816,0.437c0.332,0.177,0.664,0.354,0.996,0.532c0.298,0.159,0.595,0.319,0.893,0.479
		c0.304,0.163,0.608,0.325,0.912,0.488c0.266,0.142,0.532,0.285,0.797,0.427c0.17,0.091,0.34,0.182,0.51,0.273
		c0.002,0.001,0.004,0.002,0.006,0.004c0.054,0.031,0.102,0.068,0.163,0.09c0.058,0.021,0.112,0.057,0.167,0.086
		c0.055,0.029,0.111,0.059,0.166,0.089C31.543,6.179,31.558,6.188,31.583,6.202z"/>
	<path d="M26.93,12.491c-1.293,0-2.585,0-3.878,0c-0.046,0-0.092,0.001-0.136-0.013c-0.164-0.05-0.241-0.213-0.177-0.368
		c0.023-0.056,0.065-0.095,0.116-0.125c0.131-0.077,0.263-0.153,0.394-0.229c0.238-0.138,0.476-0.276,0.714-0.413
		c0.24-0.139,0.48-0.278,0.72-0.417c0.236-0.137,0.471-0.274,0.707-0.411c0.271-0.157,0.543-0.314,0.814-0.471
		c0.234-0.135,0.467-0.271,0.701-0.407c0.273-0.159,0.547-0.317,0.82-0.475c0.238-0.138,0.476-0.276,0.714-0.414
		c0.263-0.153,0.526-0.305,0.789-0.457c0.238-0.138,0.476-0.275,0.714-0.413c0.259-0.15,0.517-0.301,0.776-0.45
		c0.102-0.059,0.207-0.06,0.309,0.003c0.08,0.049,0.118,0.124,0.128,0.216c0.002,0.014,0,0.029,0,0.043c0,1.497,0,2.995,0,4.492
		c0,0.044-0.002,0.086-0.019,0.128c-0.047,0.116-0.136,0.171-0.256,0.181c-0.026,0.002-0.053,0.001-0.08,0.001
		C29.511,12.491,28.221,12.491,26.93,12.491z"/>
	<path d="M4.796,0.294c1.295,0,2.59,0,3.885,0c0.041,0,0.082,0.001,0.122,0.01C8.93,0.332,9.024,0.45,9.017,0.578
		c-0.005,0.09-0.047,0.162-0.123,0.21C8.806,0.843,8.716,0.894,8.626,0.946C8.351,1.105,8.075,1.265,7.8,1.425
		C7.53,1.581,7.261,1.737,6.992,1.893c-0.267,0.155-0.534,0.31-0.801,0.465C5.919,2.515,5.648,2.671,5.376,2.829
		C5.143,2.964,4.909,3.1,4.675,3.236C4.404,3.393,4.133,3.55,3.862,3.708C3.626,3.844,3.39,3.981,3.154,4.117
		C2.885,4.273,2.615,4.43,2.346,4.586c-0.24,0.139-0.48,0.278-0.72,0.417C1.428,5.118,1.23,5.233,1.032,5.348
		C0.99,5.373,0.946,5.393,0.897,5.399C0.76,5.418,0.619,5.33,0.587,5.196C0.583,5.177,0.581,5.158,0.58,5.138
		c-0.001-0.027,0-0.053,0-0.08c0-1.473,0-2.947,0-4.42c0-0.024,0.001-0.048,0-0.072C0.575,0.439,0.676,0.327,0.796,0.303
		c0.026-0.005,0.053-0.007,0.079-0.009c0.026-0.001,0.053,0,0.08,0C2.235,0.294,3.516,0.294,4.796,0.294z"/>
	<path d="M4.618,12.558c-1.288,0-2.576,0-3.864,0c-0.039,0-0.078,0.001-0.116-0.006c-0.112-0.019-0.186-0.084-0.222-0.193
		c-0.007-0.021-0.01-0.042-0.01-0.064c0-0.022,0-0.043,0-0.065c0-1.485,0-2.971,0-4.456c0-0.014,0.001-0.029,0-0.043
		C0.395,7.543,0.607,7.389,0.799,7.475c0.055,0.024,0.106,0.057,0.158,0.087c0.338,0.196,0.677,0.391,1.015,0.587
		c0.265,0.154,0.53,0.308,0.795,0.461C3.042,8.77,3.318,8.93,3.593,9.089c0.269,0.156,0.538,0.313,0.807,0.469
		C4.67,9.714,4.939,9.87,5.209,10.026c0.267,0.155,0.534,0.31,0.801,0.465c0.269,0.156,0.539,0.311,0.808,0.467
		c0.236,0.137,0.471,0.274,0.707,0.411c0.271,0.157,0.543,0.314,0.814,0.472c0.123,0.071,0.246,0.143,0.369,0.215
		c0.118,0.069,0.164,0.201,0.121,0.317c-0.036,0.098-0.108,0.159-0.211,0.178c-0.04,0.007-0.082,0.007-0.123,0.007
		C7.203,12.558,5.91,12.558,4.618,12.558z"/>
	<path d="M27.115,0.228c1.288,0,2.575,0,3.863,0c0.034,0,0.068-0.002,0.101,0.003c0.112,0.015,0.192,0.073,0.231,0.182
		c0.008,0.023,0.011,0.047,0.012,0.071c0.001,0.024,0,0.048,0,0.072c0,1.485,0,2.97,0,4.455c0,0.019,0,0.039,0,0.058
		c0,0.145-0.116,0.252-0.257,0.264c-0.062,0.005-0.119-0.01-0.173-0.042c-0.125-0.073-0.25-0.145-0.376-0.218
		c-0.271-0.157-0.543-0.314-0.814-0.471c-0.234-0.135-0.467-0.271-0.701-0.407c-0.271-0.157-0.543-0.314-0.814-0.471
		c-0.238-0.138-0.475-0.276-0.713-0.414c-0.238-0.138-0.476-0.275-0.714-0.413c-0.236-0.137-0.471-0.274-0.707-0.411
		c-0.273-0.158-0.547-0.316-0.82-0.475C25,1.876,24.766,1.74,24.532,1.605c-0.271-0.157-0.542-0.315-0.814-0.472
		c-0.227-0.132-0.455-0.263-0.683-0.395c-0.044-0.026-0.084-0.057-0.11-0.102c-0.091-0.162-0.007-0.374,0.202-0.404
		c0.033-0.005,0.068-0.003,0.101-0.003C24.525,0.228,25.82,0.228,27.115,0.228z"/>
	<path fill="#666666" d="M19.111,1.258c0.026,0.04,0.05,0.076,0.072,0.113c0.078,0.13,0.156,0.261,0.234,0.391
		c0.081,0.134,0.162,0.269,0.243,0.403c0.079,0.132,0.158,0.265,0.238,0.398c0.078,0.13,0.157,0.26,0.235,0.391
		c0.081,0.134,0.161,0.269,0.242,0.404c0.108,0.18,0.217,0.359,0.325,0.539c0.081,0.134,0.161,0.269,0.241,0.404
		c0.068,0.114,0.136,0.228,0.205,0.341c0.091,0.151,0.181,0.302,0.272,0.453c0.107,0.178,0.215,0.355,0.322,0.533
		c0.051,0.085,0.101,0.17,0.151,0.255c0.078,0.13,0.157,0.26,0.236,0.39c0.051,0.085,0.101,0.17,0.152,0.255
		c0.013,0.021,0.011,0.039-0.001,0.06c-0.058,0.095-0.116,0.19-0.173,0.285c-0.051,0.085-0.101,0.17-0.152,0.255
		c-0.08,0.132-0.16,0.264-0.239,0.397c-0.079,0.132-0.158,0.265-0.237,0.398c-0.079,0.132-0.16,0.264-0.239,0.397
		c-0.078,0.13-0.155,0.261-0.234,0.392c-0.082,0.137-0.165,0.272-0.247,0.409c-0.081,0.134-0.16,0.27-0.241,0.404
		c-0.077,0.128-0.155,0.256-0.232,0.384c-0.072,0.12-0.143,0.241-0.215,0.361c-0.051,0.085-0.103,0.169-0.154,0.254
		c-0.048,0.081-0.096,0.162-0.144,0.243c-0.033,0.056-0.066,0.112-0.1,0.168c-0.112,0.186-0.225,0.371-0.337,0.558
		c-0.075,0.124-0.148,0.249-0.222,0.373c-0.005,0.008-0.011,0.016-0.015,0.025c-0.015,0.033-0.04,0.045-0.075,0.041
		c-0.014-0.002-0.029,0-0.043,0c-2.035,0-4.069,0-6.104,0c-0.031,0-0.062,0-0.09-0.001c-0.009-0.017-0.003-0.028,0.003-0.039
		c0.093-0.169,0.187-0.338,0.28-0.507c0.054-0.097,0.108-0.194,0.161-0.292c0.013-0.024,0.028-0.037,0.057-0.035
		c0.022,0.002,0.043,0,0.065,0c1.701,0,3.402,0,5.103,0c0.031,0,0.065,0.009,0.093-0.006c0.028-0.015,0.037-0.049,0.053-0.076
		c0.083-0.136,0.163-0.273,0.245-0.41c0.087-0.145,0.174-0.289,0.261-0.434c0.14-0.234,0.28-0.468,0.42-0.702
		c0.106-0.176,0.213-0.35,0.319-0.526c0.083-0.139,0.164-0.278,0.247-0.417c0.074-0.124,0.151-0.247,0.225-0.371
		c0.08-0.132,0.158-0.265,0.237-0.398c0.079-0.132,0.16-0.264,0.239-0.397c0.082-0.137,0.163-0.274,0.244-0.41
		c0.056-0.093,0.114-0.185,0.168-0.279c0.05-0.089,0.048-0.06-0.001-0.149c-0.04-0.072-0.084-0.141-0.126-0.211
		c-0.06-0.099-0.119-0.199-0.179-0.298c-0.075-0.124-0.15-0.247-0.225-0.371c-0.052-0.087-0.103-0.174-0.155-0.261
		c-0.08-0.132-0.16-0.264-0.239-0.397c-0.072-0.12-0.143-0.241-0.215-0.361c-0.084-0.141-0.17-0.281-0.254-0.421
		c-0.075-0.124-0.148-0.249-0.223-0.373c-0.082-0.136-0.165-0.272-0.247-0.409c-0.077-0.128-0.153-0.257-0.23-0.386
		c-0.057-0.095-0.115-0.19-0.172-0.285c-0.091-0.151-0.183-0.301-0.273-0.453c-0.056-0.095-0.051-0.073-0.005-0.164
		c0.097-0.189,0.195-0.377,0.293-0.566c0.04-0.077,0.082-0.153,0.123-0.23C19.086,1.285,19.091,1.271,19.111,1.258z"/>
	<path fill="#D9FFFF" d="M10.858,7c0.005,0.001,0.006,0.004,0.004,0.009c0.001,0.009,0.006,0.014,0.012,0.02l0.001,0.001
		c0.009,0.007,0.006,0.021,0.016,0.027l0,0c0.004,0.006,0.008,0.011,0.012,0.016l0.001,0.002c0.009,0.007,0.006,0.02,0.015,0.027
		l0,0c0.061,0.115,0.067,0.238,0.067,0.365c-0.002,0.562-0.001,1.123-0.001,1.685c0,0.034,0.003,0.068-0.006,0.101
		C10.97,9.28,10.967,9.318,10.92,9.304c-0.013-0.017-0.027-0.034-0.038-0.052c-0.08-0.134-0.16-0.268-0.24-0.402
		c-0.044-0.074-0.09-0.147-0.135-0.222c-0.015-0.025-0.033-0.048-0.04-0.076c-0.003-0.005-0.007-0.01-0.01-0.015
		c-0.005-0.002-0.007-0.006-0.005-0.011c-0.001-0.008-0.006-0.013-0.011-0.018l-0.002-0.003c-0.005-0.001-0.008-0.004-0.007-0.01
		c-0.003-0.005-0.006-0.01-0.009-0.014c-0.003-0.006-0.007-0.011-0.011-0.016l-0.004-0.003l0.001-0.005
		c0-0.009-0.006-0.015-0.012-0.021l-0.001-0.002c-0.004-0.003-0.007-0.008-0.009-0.013c-0.002-0.005-0.004-0.009-0.006-0.014
		c-0.003-0.005-0.007-0.011-0.01-0.016c-0.005-0.002-0.007-0.005-0.005-0.01c-0.001-0.008-0.006-0.013-0.011-0.019L10.353,8.36
		c-0.009-0.006-0.006-0.02-0.015-0.026l-0.001-0.001c-0.004-0.004-0.007-0.009-0.011-0.014l-0.003-0.004
		c-0.008-0.007-0.007-0.018-0.015-0.025l-0.001-0.001c-0.004-0.004-0.007-0.008-0.009-0.013c-0.002-0.004-0.004-0.009-0.006-0.013
		c-0.003-0.006-0.006-0.011-0.01-0.016c-0.005-0.002-0.006-0.005-0.005-0.01c-0.001-0.008-0.006-0.014-0.011-0.019l-0.001-0.003
		c-0.005-0.002-0.008-0.005-0.008-0.011c-0.037-0.05-0.071-0.102-0.094-0.16c0.016-0.056,0.021-0.113,0.021-0.172
		c0-0.867-0.001-1.734,0-2.601c0-0.059-0.002-0.116-0.053-0.157c0.024-0.045,0.047-0.09,0.078-0.13
		c0.005-0.006,0.009-0.011,0.011-0.018c-0.001-0.005,0-0.009,0.005-0.011c0.003-0.005,0.006-0.01,0.011-0.013l0.001-0.001
		c0.005-0.005,0.011-0.011,0.012-0.019c-0.002-0.005,0-0.008,0.005-0.01c0.003-0.005,0.007-0.01,0.01-0.015l0,0.001
		c0.01-0.006,0.007-0.02,0.016-0.028l0-0.001c0.006-0.006,0.012-0.012,0.012-0.021l0-0.005l0.004-0.003
		c0.004-0.006,0.009-0.011,0.011-0.018c-0.001-0.005,0-0.009,0.005-0.011c0.003-0.005,0.006-0.01,0.01-0.014l0,0
		c0.006-0.005,0.011-0.01,0.013-0.018c-0.001-0.005,0-0.009,0.005-0.011c0.003-0.005,0.006-0.01,0.01-0.015l0,0
		c0.01-0.006,0.007-0.02,0.016-0.028l0-0.001c0.006-0.006,0.011-0.012,0.012-0.02c-0.002-0.005,0-0.007,0.004-0.009
		c0.004-0.005,0.008-0.011,0.011-0.017L10.394,4.68c0.012-0.006,0.009-0.02,0.016-0.028l0,0c0.009-0.006,0.006-0.02,0.016-0.026
		l0.002-0.002c0.003-0.005,0.007-0.011,0.011-0.015l0,0c0.01-0.007,0.006-0.02,0.015-0.027l0.001-0.001
		c0.005-0.006,0.011-0.012,0.012-0.02c-0.002-0.005,0-0.008,0.004-0.009c0.004-0.005,0.007-0.011,0.011-0.016l-0.001,0.001
		c0.011-0.006,0.008-0.02,0.016-0.028l0,0c0.009-0.007,0.006-0.02,0.015-0.026l0.001-0.002c0.004-0.005,0.008-0.01,0.012-0.015l0,0
		c0.01-0.006,0.007-0.02,0.016-0.027l0.001-0.001c0.005-0.006,0.01-0.011,0.012-0.02c-0.002-0.005,0-0.008,0.005-0.01
		c0.004-0.005,0.007-0.01,0.01-0.016l0,0.001c0.011-0.006,0.008-0.02,0.016-0.028l0-0.001c0.007-0.006,0.012-0.012,0.012-0.021
		l-0.001-0.005l0.004-0.002c0.004-0.005,0.008-0.01,0.011-0.016l0,0.001c0.011-0.005,0.008-0.02,0.017-0.026l0.001-0.002
		c0.005-0.006,0.01-0.011,0.011-0.019c-0.002-0.005,0-0.008,0.005-0.01c0.003-0.005,0.007-0.01,0.01-0.015l0,0.001
		c0.01-0.006,0.007-0.02,0.016-0.028l0-0.001c0.006-0.006,0.012-0.012,0.012-0.021l-0.001-0.005l0.004-0.003
		c0.004-0.005,0.008-0.011,0.011-0.017l-0.001,0.001c0.012-0.004,0.008-0.019,0.017-0.026l0.001-0.002
		c0.005-0.006,0.01-0.011,0.012-0.019c-0.002-0.005,0-0.009,0.005-0.011c0.003-0.005,0.007-0.01,0.01-0.015l0,0
		c0.01-0.006,0.007-0.02,0.016-0.027l0.001-0.001c0.006-0.006,0.011-0.012,0.012-0.02l0-0.006l0.005-0.003
		c0.004-0.005,0.008-0.011,0.011-0.017l-0.001,0.001c0.012-0.005,0.008-0.02,0.017-0.027L10.803,4
		c0.005-0.005,0.011-0.009,0.012-0.017l-0.001,0.001c0.012-0.005,0.009-0.02,0.016-0.028l0,0c0.01-0.006,0.006-0.02,0.015-0.027
		l0.001-0.001c0.006-0.006,0.011-0.011,0.012-0.02c-0.002-0.005,0-0.008,0.004-0.009c0.004-0.005,0.007-0.01,0.01-0.016
		l-0.001,0.001c0.011-0.006,0.008-0.02,0.016-0.028l0,0c0.005-0.005,0.012-0.009,0.011-0.017l0.003,0.001L10.9,3.837
		c0.046-0.018,0.068,0.006,0.079,0.047c0.008,0.031,0.006,0.062,0.006,0.093c0,0.607,0,1.214,0,1.821
		c0,0.046-0.005,0.091-0.022,0.134c0.002,0.005,0,0.008-0.005,0.01c-0.004,0.005-0.007,0.01-0.01,0.016l0-0.001
		c-0.011,0.006-0.008,0.02-0.016,0.028l0,0.001c-0.007,0.005-0.012,0.012-0.012,0.021l0.001,0.005l-0.004,0.003
		c-0.005,0.005-0.01,0.011-0.011,0.018c0.001,0.006-0.001,0.009-0.006,0.011c-0.002,0.005-0.005,0.009-0.01,0.012l-0.001,0.002
		c-0.005,0.005-0.01,0.011-0.012,0.019c0.002,0.005,0,0.009-0.005,0.011c-0.003,0.005-0.007,0.01-0.01,0.015l0,0
		c-0.011,0.006-0.007,0.02-0.016,0.027l-0.001,0.001c-0.006,0.005-0.012,0.011-0.012,0.021l0,0.005L10.829,6.16
		c-0.004,0.005-0.009,0.011-0.011,0.018c0.001,0.005,0,0.009-0.005,0.011c-0.003,0.005-0.006,0.01-0.01,0.014l0,0.001
		c-0.007,0.004-0.011,0.01-0.013,0.018c0.001,0.005,0,0.009-0.005,0.011c-0.003,0.005-0.007,0.01-0.01,0.015l0,0
		c-0.01,0.006-0.007,0.02-0.015,0.027l-0.001,0.001c-0.006,0.005-0.011,0.011-0.012,0.02c0.002,0.005,0,0.007-0.004,0.009
		c-0.004,0.005-0.009,0.01-0.011,0.017c0.001,0.005,0,0.009-0.006,0.012c-0.003,0.005-0.006,0.01-0.01,0.014l0,0
		c-0.007,0.005-0.013,0.011-0.013,0.02c0.001,0.005-0.001,0.008-0.005,0.009c-0.003,0.005-0.007,0.01-0.01,0.015l0,0
		c-0.01,0.006-0.007,0.02-0.015,0.027l-0.001,0.002c-0.006,0.005-0.011,0.011-0.012,0.02c0.002,0.005,0,0.008-0.005,0.009
		c-0.004,0.005-0.008,0.011-0.011,0.017c0.001,0.006-0.001,0.01-0.006,0.012c-0.003,0.005-0.006,0.01-0.01,0.014l0,0.001
		c-0.009,0.006-0.006,0.019-0.015,0.026l-0.002,0.003c-0.004,0.005-0.008,0.01-0.011,0.015l0,0c-0.01,0.008-0.009,0.018-0.003,0.028
		c0.005,0.002,0.006,0.005,0.004,0.01c0.002,0.008,0.007,0.014,0.013,0.019l0,0c0.004,0.005,0.007,0.01,0.01,0.015
		c0.005,0.002,0.006,0.005,0.005,0.01c0.002,0.007,0.007,0.013,0.011,0.019l0.004,0.002l-0.001,0.005
		c0,0.01,0.006,0.016,0.013,0.022l0,0.001c0.008,0.008,0.005,0.022,0.016,0.028l0-0.001c0.003,0.005,0.007,0.011,0.01,0.016
		c0.005,0.002,0.006,0.005,0.005,0.01c0.001,0.008,0.007,0.014,0.012,0.019l0.001,0.001c0.004,0.004,0.008,0.009,0.011,0.014
		c0.005,0.002,0.007,0.005,0.005,0.01c0.001,0.008,0.007,0.013,0.011,0.019l0.001,0.002c0.009,0.006,0.006,0.02,0.015,0.027l0,0.001
		c0.008,0.008,0.005,0.022,0.016,0.028l0-0.001c0.003,0.006,0.007,0.011,0.011,0.016c0.005,0.002,0.006,0.005,0.004,0.009
		c0.001,0.008,0.006,0.014,0.012,0.02l0.001,0.001c0.009,0.006,0.005,0.022,0.018,0.026L10.804,6.91
		c0,0.008,0.007,0.012,0.011,0.017l0.001,0.002c0.009,0.007,0.006,0.02,0.015,0.027l0,0c0.008,0.008,0.004,0.022,0.016,0.028
		l-0.001-0.001C10.85,6.989,10.854,6.995,10.858,7z"/>
	<path fill="#BEFFFF" d="M11.666,2.564c0.021-0.038,0.04-0.077,0.062-0.114c0.107-0.177,0.214-0.354,0.321-0.531
		c0.072-0.119,0.143-0.239,0.215-0.359c0.093-0.155,0.186-0.309,0.279-0.464c0.002-0.004,0.007-0.007,0.01-0.01
		c0.108-0.013,0.217-0.004,0.325-0.006c0.104-0.002,0.208-0.001,0.311,0c0.069,0.001,0.101,0.029,0.112,0.097
		c0.003,0.017,0.003,0.034,0.003,0.051c0,0.28,0.001,0.56,0,0.84c0,0.036-0.002,0.073-0.021,0.105
		c-0.002,0.001-0.005,0.002-0.007,0.002c-0.034-0.002-0.057,0.008-0.075,0.041c-0.042,0.076-0.09,0.148-0.134,0.223
		c-0.08,0.134-0.16,0.269-0.24,0.404c-0.14,0.233-0.281,0.466-0.422,0.699c-0.07,0.116-0.139,0.232-0.208,0.347
		c-0.12,0.2-0.241,0.4-0.361,0.601c-0.019,0.031-0.036,0.063-0.054,0.094c-0.014,0.025-0.028,0.05-0.049,0.07
		c-0.034-0.036-0.024-0.082-0.024-0.124c-0.001-0.608,0-1.217,0-1.825C11.707,2.653,11.709,2.602,11.666,2.564z"/>
	<path fill="#7AFFFF" d="M14.368,1.072c0.024-0.001,0.048-0.004,0.072-0.004c0.851,0,1.702,0,2.553,0
		c0.024,0,0.048,0.002,0.072,0.003c0.056,0.013,0.114,0.01,0.171,0.015c0.086,0.008,0.113,0.032,0.113,0.116
		c0.002,0.298,0.001,0.596,0,0.894c0,0.026-0.001,0.053-0.021,0.074c-0.022,0.001-0.043,0.003-0.065,0.003c-0.682,0-1.363,0-2.045,0
		c-0.022,0-0.043-0.002-0.065-0.003c-0.03-0.032-0.024-0.072-0.024-0.11c-0.001-0.268,0-0.535,0-0.803
		c0-0.119-0.009-0.131-0.128-0.145c-0.125-0.014-0.251-0.003-0.376-0.006c-0.063-0.001-0.125,0.002-0.188-0.002
		C14.41,1.107,14.376,1.112,14.368,1.072z"/>
	<path fill="#B8FFFF" d="M11.86,8.667c0.032,0.051,0.065,0.101,0.096,0.152c0.077,0.128,0.153,0.257,0.23,0.385
		c0.112,0.186,0.224,0.371,0.336,0.557c0.072,0.12,0.143,0.24,0.215,0.36c0.119,0.198,0.239,0.397,0.358,0.595
		c0.035,0.058,0.068,0.116,0.102,0.174c-0.051,0.022-0.05,0.023-0.079,0.075c-0.111,0.2-0.222,0.401-0.333,0.601
		c-0.072,0.131-0.144,0.262-0.216,0.393c-0.008,0.014-0.01,0.033-0.034,0.04c-0.012-0.018-0.026-0.037-0.038-0.057
		c-0.077-0.128-0.153-0.257-0.23-0.385c-0.112-0.186-0.224-0.372-0.336-0.558c-0.031-0.052-0.06-0.104-0.09-0.157
		c0.008-0.055,0.01-0.11,0.01-0.166c0-0.571,0-1.142,0-1.713c0-0.07-0.001-0.139-0.015-0.209C11.83,8.725,11.821,8.689,11.86,8.667z
		"/>
	<path fill="#9FFFFF" d="M14.368,1.072c0.012,0.015,0.029,0.014,0.046,0.014c0.06,0,0.121,0,0.181,0c0.118,0,0.236,0.001,0.355,0
		c0.056,0,0.109,0.014,0.162,0.028c0.028,0.007,0.04,0.024,0.04,0.052c0,0.019,0,0.039,0,0.058c0,0.289,0,0.579,0,0.868
		c0,0.027,0.001,0.053,0.001,0.08c-0.019,0.001-0.038,0.003-0.058,0.003c-0.585,0-1.17,0-1.756,0c-0.019,0-0.038-0.002-0.057-0.003
		c-0.003-0.007-0.009-0.014-0.007-0.02c0.011-0.05,0.006-0.101,0.006-0.151c0.001-0.255,0-0.51,0-0.766c0-0.017,0.001-0.034,0-0.051
		c-0.003-0.061-0.04-0.098-0.1-0.098c-0.159-0.001-0.318,0-0.477,0c-0.051,0-0.101-0.001-0.152-0.001
		c0.005-0.005,0.009-0.013,0.014-0.014c0.019-0.002,0.038-0.003,0.057-0.003c0.562,0,1.124,0,1.686,0
		C14.329,1.069,14.349,1.071,14.368,1.072z"/>
	<path fill="#D7FFFF" d="M11.86,8.667c-0.006,0.015-0.017,0.03-0.01,0.048c0.029,0.083,0.026,0.17,0.026,0.256
		c0,0.588,0,1.175,0,1.763c0,0.019,0,0.039,0,0.058c0,0.025-0.012,0.041-0.033,0.051c-0.034-0.055-0.07-0.109-0.103-0.165
		c-0.079-0.132-0.158-0.264-0.237-0.396c-0.11-0.183-0.221-0.366-0.332-0.55c-0.079-0.132-0.158-0.264-0.237-0.396
		c-0.006-0.01-0.01-0.022-0.014-0.033c0.027-0.003,0.035-0.025,0.039-0.046c0.004-0.019,0.003-0.038,0.003-0.058
		c0-0.615,0-1.23,0-1.846c0-0.073-0.021-0.142-0.037-0.212c-0.003-0.014-0.004-0.028-0.006-0.042
		c0.031,0.048,0.063,0.096,0.092,0.146c0.082,0.136,0.162,0.274,0.244,0.41c0.138,0.229,0.277,0.458,0.415,0.687
		C11.735,8.45,11.797,8.559,11.86,8.667z"/>
	<path fill="#B5FFFF" d="M13.964,8.363c-0.047,0.001-0.089-0.021-0.131-0.036c-0.144-0.052-0.273-0.13-0.389-0.23
		c-0.007-0.006-0.011-0.015-0.017-0.023c0.007-0.116,0.005-0.231,0.005-0.347c0-0.889,0-1.779,0-2.668c0-0.024-0.002-0.049,0-0.072
		c0.007-0.06-0.013-0.097-0.077-0.101c0.077-0.097,0.175-0.169,0.28-0.232c0.109-0.066,0.227-0.112,0.35-0.145
		c0.009-0.002,0.019-0.002,0.028-0.003c0.069-0.006,0.097,0.008,0.099,0.069c0.008,0.225,0.007,0.451,0.001,0.676
		c0,0.015-0.009,0.027-0.016,0.04c-0.035,0.029-0.071,0.057-0.104,0.088c-0.087,0.084-0.138,0.19-0.174,0.304
		c-0.037,0.118-0.047,0.24-0.052,0.363c-0.001,0.027,0.009,0.032,0.037,0.022c0.04-0.015,0.081-0.031,0.121-0.046
		c0.011-0.004,0.023-0.005,0.035-0.007c0.013-0.013,0.034,0,0.046-0.016l-0.001,0c0.013-0.012,0.033-0.001,0.045-0.014l-0.001,0
		c0.013-0.013,0.033-0.002,0.046-0.014l0.005-0.001c0.062,0.001,0.054,0.052,0.056,0.087c0.006,0.105,0.003,0.21,0.002,0.315
		c-0.001,0.079,0.009,0.158-0.008,0.236c-0.019,0.038-0.057,0.041-0.092,0.047c-0.071,0.012-0.142,0.028-0.212,0.046
		c-0.047,0.011-0.071,0.037-0.067,0.087c0.017,0.23,0.047,0.456,0.18,0.653c0.016,0.024,0.031,0.049,0.032,0.079
		C14.003,7.756,14,7.992,13.999,8.228C13.999,8.275,14.004,8.325,13.964,8.363z"/>
	<path fill="#D7FFFF" d="M11.666,2.564C11.735,2.562,11.73,2.58,11.73,2.63c0,0.291,0,0.583,0,0.874c0,0.354,0,0.708,0,1.062
		c0,0.029,0.001,0.058,0.001,0.087c-0.005,0.027-0.022,0.048-0.036,0.07c-0.089,0.149-0.179,0.297-0.268,0.445
		c-0.118,0.196-0.235,0.392-0.353,0.587c-0.036,0.059-0.065,0.123-0.111,0.177c-0.001-0.031-0.002-0.063-0.002-0.094
		c0-0.627,0-1.254,0-1.881c0-0.017,0-0.034,0-0.051C10.96,3.852,10.96,3.851,10.9,3.837c0.059-0.102,0.118-0.204,0.178-0.305
		c0.04-0.068,0.083-0.135,0.124-0.203c0.114-0.19,0.227-0.38,0.34-0.57c0.032-0.054,0.064-0.107,0.097-0.161
		C11.647,2.585,11.657,2.575,11.666,2.564z"/>
	<path fill="#50FEFE" d="M17.328,2.172c0-0.236-0.001-0.472-0.001-0.708c0-0.087,0-0.173,0-0.26c0-0.017,0-0.034-0.001-0.051
		c-0.002-0.019-0.012-0.031-0.031-0.035c-0.021-0.005-0.042-0.014-0.063-0.015c-0.048-0.001-0.094-0.022-0.143-0.018
		c-0.008,0.001-0.016-0.008-0.024-0.013c0.022-0.001,0.043-0.004,0.065-0.004c0.604,0,1.208,0,1.812,0c0.022,0,0.043,0,0.062,0
		c0.011,0.02,0.001,0.032-0.005,0.045c-0.073,0.139-0.147,0.277-0.219,0.416c-0.042,0.079-0.082,0.159-0.123,0.238
		c-0.066,0.126-0.132,0.252-0.197,0.379c-0.012,0.023-0.026,0.03-0.051,0.03c-0.355-0.001-0.71,0-1.066-0.001
		C17.337,2.175,17.333,2.173,17.328,2.172z"/>
	<path fill="#F2FFFF" d="M10.131,5.115c0.002,0,0.005,0,0.007,0c0.053,0.005,0.065,0.015,0.068,0.063c0.001,0.017,0,0.034,0,0.051
		c0,0.897,0,1.793,0,2.69c0,0.036,0,0.072-0.016,0.106c-0.006,0.013-0.016,0.017-0.028,0.019c-0.015-0.021-0.032-0.042-0.045-0.065
		C10.005,7.792,9.893,7.603,9.78,7.415C9.641,7.184,9.501,6.953,9.362,6.721C9.329,6.666,9.298,6.609,9.267,6.553
		C9.298,6.498,9.329,6.444,9.361,6.39c0.09-0.151,0.181-0.302,0.272-0.453c0.141-0.233,0.282-0.467,0.423-0.7
		C10.081,5.197,10.1,5.152,10.131,5.115z"/>
	<path fill="#EBFFFF" d="M13.355,4.886c0.021-0.001,0.033-0.018,0.051-0.026c0.018-0.008,0.041,0.003,0.046,0.023
		c0.002,0.009,0.003,0.019,0.003,0.029c0.001,0.017,0,0.034,0,0.051c0,1.002,0,2.005,0,3.007c0,0.019,0,0.039,0,0.058
		c0,0.022-0.011,0.036-0.028,0.048c0,0-0.004-0.003-0.004-0.003c-0.003-0.004-0.007-0.007-0.01-0.01
		c-0.077-0.061-0.133-0.14-0.185-0.22c-0.104-0.159-0.172-0.333-0.222-0.516c-0.066-0.239-0.089-0.484-0.098-0.73
		C12.9,6.371,12.91,6.15,12.935,5.928c0.022-0.188,0.064-0.371,0.128-0.549c0.063-0.174,0.15-0.334,0.272-0.475
		C13.341,4.898,13.348,4.892,13.355,4.886z"/>
	<path fill="#56FFFF" d="M17.511,5.926c0.027-0.015,0.056-0.011,0.085-0.012c0.14-0.004,0.279,0.008,0.417,0.032
		c0.099,0.018,0.197,0.044,0.29,0.084c0.004,0.002,0.008,0.005,0.012,0.008c0.023,0.031,0.023,0.068,0.023,0.104
		c0,0.671,0,1.341,0,2.012c0,0.036,0,0.073-0.023,0.104c-0.074,0.046-0.156,0.074-0.239,0.098c-0.139,0.039-0.281,0.063-0.426,0.062
		c-0.015-0.027-0.01-0.056-0.01-0.085c0-0.159,0-0.318,0-0.477c0-0.136,0-0.136-0.133-0.138c-0.022,0-0.044,0.001-0.065-0.004
		C17.421,7.71,17.4,7.708,17.398,7.682c0.053,0,0.106-0.001,0.159-0.001c0.061,0,0.12-0.01,0.178-0.028
		c0.127-0.041,0.218-0.121,0.269-0.244c0.06-0.144,0.064-0.293,0.028-0.441C18,6.832,17.917,6.731,17.781,6.681
		c-0.011-0.004-0.022-0.01-0.032-0.016c-0.028-0.029-0.024-0.067-0.024-0.103c-0.001-0.174,0-0.347-0.001-0.521
		c0-0.086-0.005-0.089-0.09-0.092C17.592,5.948,17.547,5.961,17.511,5.926z"/>
	<path fill="#3AFFFF" d="M14.817,5.927c0.097,0.002,0.19,0.029,0.281,0.058c0.101,0.031,0.198,0.073,0.285,0.136
		c0.026,0.033,0.024,0.072,0.024,0.111c0.001,0.615-0.001,1.23,0.001,1.845c0,0.024-0.003,0.048-0.008,0.072
		c-0.051,0.048-0.112,0.08-0.174,0.11c-0.079,0.038-0.159,0.075-0.247,0.089c-0.029-0.032-0.023-0.072-0.023-0.11
		c-0.001-0.258,0-0.516,0-0.774c0-0.029-0.001-0.058-0.013-0.085c-0.012-0.046,0.004-0.09,0.009-0.135
		c0.021-0.17,0.003-0.331-0.109-0.471c-0.016-0.02-0.034-0.041-0.029-0.071c0.013-0.044,0.013-0.09,0.012-0.136
		C14.823,6.352,14.832,6.139,14.817,5.927z"/>
	<path fill="#BFFFFF" d="M17.155,5.281c0.002,0.072-0.014,0.143-0.021,0.214C17.119,5.632,17.1,5.77,17.082,5.908
		c-0.003,0.026-0.009,0.052-0.013,0.078c-0.004,0.024-0.003,0.025,0.033,0.029c0.016-0.01,0.036-0.001,0.051-0.014l-0.001,0
		c0.061,0.008,0.05,0.057,0.051,0.095c0.003,0.152,0.002,0.303,0.001,0.455c0,0.038,0.013,0.077-0.006,0.114
		c-0.082,0.017-0.165,0.03-0.245,0.056c-0.016,0.005-0.033,0.009-0.05,0.005c-0.081-0.018-0.165-0.028-0.245-0.055
		c-0.008-0.028-0.008-0.057-0.008-0.086c0-0.646,0-1.291,0.001-1.937c0-0.043-0.008-0.087,0.02-0.126
		c0.146-0.015,0.293-0.003,0.44-0.007c0.036-0.001,0.044,0.024,0.048,0.051c0.006,0.043,0.003,0.087,0.003,0.13
		c0.002,0.174-0.003,0.347,0.003,0.521C17.165,5.239,17.162,5.26,17.155,5.281z"/>
	<path fill="#1AFFFF" d="M18.313,8.258c0-0.289-0.001-0.579-0.001-0.868c0-0.451,0-0.902,0.001-1.352
		c0.134,0.05,0.245,0.132,0.34,0.238c0.105,0.118,0.169,0.256,0.21,0.407c0.035,0.129,0.048,0.26,0.048,0.394
		c0,0.101-0.001,0.203-0.017,0.303c-0.029,0.18-0.078,0.353-0.176,0.509C18.617,8.048,18.486,8.176,18.313,8.258z"/>
	<path fill="#E3FFFF" d="M16.674,4.522c0,0.693,0,1.386,0,2.08c0,0.024,0.005,0.049-0.015,0.068
		c-0.061-0.002-0.118-0.023-0.177-0.033c-0.055-0.009-0.109-0.022-0.163-0.033c-0.011-0.002-0.022-0.008-0.038-0.013
		c0.002-0.048,0.004-0.096,0.007-0.144c0.013-0.197,0.027-0.394,0.04-0.592c0.018-0.272,0.035-0.544,0.052-0.816
		c0.006-0.096,0.013-0.192,0.017-0.289c0.003-0.077,0.01-0.154,0.02-0.23C16.502,4.512,16.588,4.509,16.674,4.522z"/>
	<path fill="#16FFFF" d="M15.4,8.147c-0.01-0.019-0.017-0.039-0.016-0.062c0.001-0.017,0-0.034,0-0.051c0-0.638,0-1.276-0.001-1.915
		c0.125,0.075,0.219,0.18,0.292,0.304c0.077,0.13,0.123,0.272,0.142,0.422c0.011,0.084,0.021,0.168,0.022,0.252
		c0.002,0.186-0.016,0.371-0.077,0.549c-0.068,0.196-0.178,0.362-0.344,0.49C15.413,8.141,15.406,8.144,15.4,8.147z"/>
	<path fill="#73FFFF" d="M14.817,5.927C14.839,5.962,14.848,6,14.848,6.042c-0.002,0.194-0.001,0.388-0.001,0.583
		c0,0.012,0,0.024,0,0.036c0.001,0.024-0.011,0.041-0.032,0.052c-0.007,0.003-0.014,0.003-0.021,0.001
		c-0.011-0.003-0.021-0.007-0.032-0.011c-0.171-0.096-0.356-0.089-0.542-0.07c-0.028,0.003-0.057,0.016-0.081-0.011
		c-0.001-0.178-0.001-0.356-0.002-0.534c0-0.019,0.001-0.039-0.001-0.058c-0.002-0.025-0.01-0.047-0.035-0.059
		c0.038-0.023,0.081-0.026,0.123-0.035c0.141-0.032,0.284-0.042,0.429-0.028c0.031,0.003,0.062,0.004,0.093,0.007
		C14.771,5.916,14.795,5.915,14.817,5.927z"/>
	<path fill="#7CFFFF" d="M14.097,5.291c-0.001-0.026-0.003-0.053-0.003-0.079c0-0.193,0-0.385,0-0.578c0-0.014,0-0.029,0-0.043
		c-0.001-0.065-0.01-0.075-0.08-0.085c0.055-0.027,0.116-0.031,0.175-0.04c0.141-0.022,0.284-0.026,0.426-0.022
		c0.014,0,0.029,0.003,0.043,0.005c0.01,0.008,0.023,0.009,0.035,0.007c0.061-0.009,0.075,0.026,0.076,0.077
		c0.001,0.121,0,0.241,0.001,0.362c0,0.068,0.001,0.135,0,0.203c0,0.031,0.002,0.063-0.021,0.089c-0.074,0-0.149,0.001-0.223,0.001
		c-0.144,0-0.281,0.026-0.408,0.096C14.111,5.288,14.103,5.289,14.097,5.291z"/>
	<path fill="#94FFFF" d="M17.398,7.682c0.013,0.014,0.03,0.013,0.047,0.013c0.053,0,0.106,0,0.159,0.001
		c0.044,0.001,0.055,0.012,0.055,0.057c0.001,0.097,0,0.193,0,0.29c0,0.099,0,0.198,0,0.297c0,0.027,0.002,0.053-0.012,0.078
		c-0.072,0.006-0.145,0.005-0.217,0.001c-0.125-0.008-0.25-0.02-0.375-0.03c-0.007-0.001-0.013-0.005-0.02-0.008
		c-0.025-0.03-0.023-0.067-0.023-0.103c0-0.149-0.001-0.298,0-0.446c0.001-0.06-0.007-0.119-0.009-0.179
		c0.007-0.001,0.014-0.002,0.021-0.001C17.151,7.661,17.274,7.671,17.398,7.682z"/>
	<path fill="#8DFFFF" d="M16.674,4.522c-0.086,0-0.171-0.001-0.257-0.001c0.002-0.004,0.004-0.011,0.006-0.012
		c0.014-0.002,0.029-0.003,0.043-0.003c0.248,0,0.497,0,0.745,0c0.01,0,0.019,0.002,0.029,0.002
		c0.132,0.013,0.265,0.003,0.397,0.005c0.099,0.002,0.104,0.005,0.105,0.107c0.001,0.173,0.001,0.347,0,0.52
		c0,0.107-0.003,0.109-0.106,0.114c-0.072,0.001-0.144,0.003-0.216,0.003c-0.074,0.001-0.149,0.001-0.223,0
		c-0.019,0-0.032,0.006-0.041,0.022c-0.013-0.039-0.018-0.079-0.017-0.12c0.001-0.185,0.001-0.37,0-0.555
		c0-0.019,0-0.038-0.002-0.058c-0.001-0.013-0.01-0.022-0.023-0.023c-0.012-0.001-0.024-0.002-0.036-0.002
		C16.943,4.522,16.808,4.522,16.674,4.522z"/>
	<path fill="#2CFFFF" d="M18.008,4.509c0.012-0.001,0.024-0.003,0.036-0.003c0.231,0,0.463,0,0.694,0c0.007,0,0.014,0,0.022,0
		c0.03,0.001,0.032,0.002,0.032,0.034c0,0.226,0,0.453,0,0.679c0,0.005,0,0.01,0,0.014c-0.001,0.013-0.007,0.023-0.022,0.023
		c-0.012,0-0.024,0.001-0.036,0.001c-0.171,0-0.342,0-0.513,0c-0.012,0-0.024-0.002-0.036-0.003
		c0.031-0.046,0.035-0.097,0.034-0.151c-0.002-0.154,0-0.309-0.001-0.463c-0.001-0.086-0.011-0.093-0.096-0.098
		C18.083,4.54,18.033,4.563,18.008,4.509z"/>
	<path fill="#5DFFFF" d="M14.95,7.363c0.021,0.019,0.028,0.044,0.028,0.072c0,0.017,0,0.034,0,0.051
		c0,0.287,0.001,0.574,0.001,0.862c-0.005,0.001-0.009,0.002-0.014,0.003c-0.009,0.006-0.02,0.004-0.029,0.01
		c-0.01,0.002-0.019,0.003-0.029,0.005c-0.004,0.003-0.008,0.005-0.013,0.005c-0.139,0.034-0.279,0.05-0.422,0.048
		c-0.027-0.027-0.023-0.062-0.023-0.095c-0.001-0.151-0.004-0.303,0.001-0.454c0.002-0.077-0.007-0.138-0.094-0.157
		c0.002-0.045,0.039-0.032,0.063-0.034c0.126-0.009,0.247-0.036,0.356-0.103c0.006-0.003,0.012-0.006,0.018-0.009
		c0.003-0.002,0.006-0.003,0.008-0.004c0.005-0.003,0.01-0.006,0.015-0.01c0.002-0.002,0.005-0.003,0.007-0.005
		c0.004-0.004,0.008-0.007,0.012-0.01c0.002-0.002,0.004-0.003,0.006-0.005c0.003-0.004,0.007-0.007,0.011-0.01
		c0.002-0.002,0.004-0.003,0.005-0.005c0.003-0.003,0.007-0.007,0.01-0.01c0,0,0.005-0.005,0.004-0.005
		c0.004-0.006,0.007-0.012,0.01-0.018c0.002-0.004,0.004-0.008,0.007-0.012c0.003-0.004,0.006-0.007,0.009-0.011
		c0,0,0.004-0.006,0.004-0.006c0.002-0.004,0.005-0.008,0.007-0.012c0.002-0.004,0.004-0.009,0.006-0.013
		c0.003-0.007,0.006-0.013,0.009-0.02c0.002-0.005,0.004-0.009,0.006-0.014c0.003-0.007,0.005-0.015,0.009-0.022
		C14.941,7.369,14.945,7.365,14.95,7.363z"/>
	<path fill="#84FFFF" d="M17.198,6.664c-0.013-0.031-0.017-0.064-0.017-0.098c0.001-0.156,0-0.313,0-0.469c0-0.017,0-0.034,0-0.051
		c0-0.022-0.011-0.036-0.029-0.046c0.071-0.03,0.148-0.04,0.223-0.056c0.044-0.009,0.089-0.022,0.135-0.018
		c0.053,0.001,0.106,0.001,0.159,0.002c0.017,0,0.034,0,0.051,0.001c0.017,0.001,0.026,0.012,0.026,0.029
		c0.001,0.019,0.001,0.038,0.001,0.058c0,0.19,0,0.38,0,0.57c0,0.026,0.001,0.053,0.001,0.079c-0.006-0.001-0.012-0.002-0.018-0.003
		c-0.008-0.004-0.019-0.004-0.027-0.009c-0.062-0.001-0.123-0.016-0.185-0.014c-0.098,0.003-0.195,0.009-0.292,0.023
		C17.217,6.664,17.208,6.663,17.198,6.664z"/>
	<path fill="#52FFFF" d="M18.008,4.509c0.013,0.014,0.03,0.012,0.047,0.013c0.041,0,0.082,0,0.123,0.001
		c0.041,0.001,0.056,0.015,0.061,0.055c0.002,0.012,0.001,0.024,0.001,0.036c0,0.19,0,0.38,0,0.57c0,0.01,0,0.019,0,0.029
		c0,0.02-0.008,0.031-0.029,0.034c-0.009,0.001-0.018,0.006-0.027,0.009c-0.039,0.001-0.077,0.003-0.116,0.003
		c-0.121,0-0.241,0.001-0.362,0c-0.024,0-0.048-0.002-0.072-0.003c0.019-0.016,0.042-0.005,0.062-0.012
		c0.01-0.003,0.017-0.009,0.019-0.02c0.001-0.012,0.002-0.024,0.002-0.036c0-0.202,0-0.404,0-0.607c0-0.01,0-0.019-0.001-0.029
		c-0.002-0.021-0.01-0.028-0.033-0.03c-0.017-0.001-0.034-0.001-0.051-0.001c-0.111,0-0.222-0.001-0.332-0.001
		c-0.021,0-0.044,0.005-0.062-0.012C17.496,4.504,17.752,4.505,18.008,4.509z"/>
	<path fill="#43FFFF" d="M14.748,5.188c-0.001-0.21-0.001-0.419-0.002-0.629c0-0.022,0-0.043-0.001-0.065
		c-0.001-0.017-0.01-0.026-0.027-0.028c-0.021-0.003-0.044,0.004-0.061-0.016c0.048,0.001,0.096-0.002,0.144,0.003
		c0.141,0.013,0.283,0.029,0.424,0.044c0.009,0.001,0.018,0.006,0.027,0.009c0.038,0.021,0.05,0.056,0.051,0.097
		c0.003,0.187,0.002,0.374,0.001,0.561c0,0.024-0.003,0.048-0.022,0.066c-0.064-0.005-0.128-0.01-0.193-0.014
		c-0.102-0.008-0.205-0.015-0.307-0.023C14.771,5.192,14.759,5.189,14.748,5.188z"/>
	<path fill="#90FFFF" d="M14.353,7.696c0.019,0.022,0.045,0.013,0.068,0.015c0.036,0.004,0.047,0.013,0.049,0.049
		c0.001,0.019,0,0.039,0,0.058c0,0.2,0.001,0.4,0.001,0.6c-0.165,0.011-0.328-0.008-0.489-0.044
		c-0.007-0.001-0.012-0.007-0.018-0.01c0.02-0.095,0.013-0.191,0.013-0.286c0.001-0.125,0-0.25,0-0.375
		c0-0.036,0.003-0.072-0.011-0.107c-0.013-0.031,0.008-0.061,0.011-0.091C14,7.5,14.015,7.513,14.028,7.526
		c0.075,0.076,0.167,0.119,0.271,0.138C14.32,7.669,14.341,7.674,14.353,7.696z"/>
	<path fill="#CBFFFF" d="M17.005,7.652c0.026,0.018,0.032,0.043,0.032,0.074c-0.001,0.218,0,0.436,0,0.654
		c-0.096-0.001-0.19-0.023-0.284-0.036c-0.076-0.01-0.15-0.026-0.226-0.04c-0.009-0.002-0.018-0.006-0.026-0.009
		c0.017-0.043,0.022-0.088,0.021-0.134c-0.001-0.13,0-0.26,0-0.39c0-0.068,0.01-0.139-0.052-0.19c0.046-0.005,0.09,0.01,0.135,0.016
		c0.095,0.012,0.19,0.028,0.284,0.043C16.925,7.656,16.965,7.635,17,7.652L17.005,7.652z"/>
	<path fill="#1EFFFF" d="M15.283,5.23c0-0.2-0.001-0.4,0-0.6c0-0.045-0.007-0.086-0.031-0.124c0.056-0.005,0.11,0.011,0.165,0.018
		c0.086,0.011,0.171,0.027,0.257,0.041c0.028,0.005,0.031,0.007,0.028,0.038c-0.006,0.072-0.013,0.144-0.02,0.216
		c-0.008,0.079-0.015,0.158-0.024,0.237c-0.007,0.065-0.016,0.129-0.024,0.194c-0.003,0.02-0.009,0.024-0.029,0.022
		C15.497,5.258,15.39,5.244,15.283,5.23z"/>
	<path fill="#F0FFFF" d="M16.47,7.579c0.006,0.004,0.011,0.01,0.017,0.013c0.015,0.006,0.035-0.001,0.048,0.012
		c0.015,0.015,0.009,0.036,0.009,0.055c0,0.189,0,0.379,0,0.568c0,0.007-0.001,0.014,0,0.022c0.003,0.032-0.017,0.041-0.043,0.045
		c-0.098-0.011-0.194-0.037-0.29-0.059c-0.014-0.003-0.02-0.013-0.018-0.026c0.007-0.06,0.011-0.12,0.021-0.18
		c0.024-0.135,0.037-0.272,0.055-0.408c0.012-0.09,0.009-0.077,0.088-0.064C16.395,7.563,16.435,7.56,16.47,7.579z"/>
	<path fill="#94FFFF" d="M17,7.652c-0.026,0-0.053,0.001-0.079,0.001c-0.013,0-0.023-0.005-0.032-0.014
		C16.927,7.637,16.965,7.635,17,7.652z"/>
	<path fill="#73FFFF" d="M14.05,5.986c-0.011,0.018-0.028,0.016-0.045,0.014C14.017,5.984,14.033,5.984,14.05,5.986z"/>
	<path fill="#84FFFF" d="M17.153,6c-0.013,0.019-0.032,0.016-0.051,0.014C17.116,5.999,17.134,5.999,17.153,6z"/>
	<path fill="#73FFFF" d="M14.006,5.999c-0.011,0.019-0.029,0.017-0.046,0.016C13.973,6.001,13.989,5.998,14.006,5.999z"/>
	<path fill="#73FFFF" d="M14.096,5.971c-0.012,0.016-0.029,0.017-0.046,0.014C14.062,5.973,14.078,5.969,14.096,5.971z"/>
	<path fill="#D7FFFF" d="M10.28,4.87c0,0.012-0.003,0.023-0.016,0.028C10.265,4.886,10.269,4.876,10.28,4.87z"/>
	<path fill="#D7FFFF" d="M10.933,5.985c0-0.012,0.003-0.023,0.016-0.028C10.948,5.97,10.944,5.979,10.933,5.985z"/>
	<path fill="#D7FFFF" d="M10.846,6.13c0-0.012,0.003-0.023,0.016-0.027C10.861,6.114,10.857,6.124,10.846,6.13z"/>
	<path fill="#D7FFFF" d="M10.759,6.274c0-0.012,0.003-0.022,0.015-0.027C10.774,6.259,10.77,6.269,10.759,6.274z"/>
	<path fill="#D7FFFF" d="M10.672,6.419c0-0.012,0.003-0.022,0.015-0.027C10.687,6.404,10.682,6.413,10.672,6.419z"/>
	<path fill="#D7FFFF" d="M10.613,6.519c0.001-0.011,0.004-0.021,0.015-0.026C10.629,6.505,10.624,6.514,10.613,6.519z"/>
	<path fill="#D7FFFF" d="M10.597,6.565c-0.013-0.011-0.012-0.02,0.003-0.028C10.599,6.546,10.598,6.556,10.597,6.565z"/>
	<path fill="#56FFFF" d="M17.704,6.654c0.011-0.002,0.02-0.001,0.027,0.009C17.72,6.665,17.711,6.663,17.704,6.654z"/>
	<path fill="#D7FFFF" d="M10.673,6.695c-0.013-0.005-0.016-0.016-0.016-0.028C10.669,6.673,10.673,6.683,10.673,6.695z"/>
	<path fill="#D7FFFF" d="M10.628,4.292c-0.001,0.012-0.004,0.022-0.017,0.026C10.612,4.306,10.619,4.298,10.628,4.292z"/>
	<path fill="#D7FFFF" d="M10.744,6.811c-0.012-0.005-0.014-0.015-0.015-0.027C10.739,6.791,10.744,6.799,10.744,6.811z"/>
	<path fill="#D7FFFF" d="M10.76,6.84c-0.013-0.005-0.016-0.016-0.016-0.028C10.756,6.817,10.76,6.828,10.76,6.84z"/>
	<path fill="#D7FFFF" d="M10.805,6.911c-0.014-0.003-0.017-0.013-0.018-0.026C10.798,6.891,10.804,6.899,10.805,6.911z"/>
	<path fill="#D7FFFF" d="M10.831,6.956c-0.012-0.005-0.015-0.015-0.015-0.027C10.826,6.935,10.831,6.944,10.831,6.956z"/>
	<path fill="#D7FFFF" d="M10.848,6.984c-0.013-0.005-0.016-0.016-0.016-0.028C10.843,6.962,10.847,6.972,10.848,6.984z"/>
	<path fill="#D7FFFF" d="M10.89,7.057c-0.013-0.005-0.016-0.015-0.016-0.027C10.885,7.036,10.889,7.045,10.89,7.057z"/>
	<path fill="#D7FFFF" d="M10.919,7.101c-0.012-0.005-0.015-0.015-0.015-0.027C10.914,7.08,10.919,7.089,10.919,7.101z"/>
	<path fill="#D7FFFF" d="M10.888,3.855c0,0.012-0.003,0.023-0.016,0.028C10.873,3.871,10.877,3.861,10.888,3.855z"/>
	<path fill="#D7FFFF" d="M10.309,8.291c0.011,0.005,0.014,0.014,0.015,0.025C10.313,8.311,10.309,8.302,10.309,8.291z"/>
	<path fill="#D7FFFF" d="M10.846,3.929c0,0.012-0.003,0.022-0.015,0.027C10.83,3.944,10.835,3.935,10.846,3.929z"/>
	<path fill="#D7FFFF" d="M10.83,3.956c0,0.013-0.002,0.024-0.016,0.028C10.815,3.972,10.818,3.962,10.83,3.956z"/>
	<path fill="#D7FFFF" d="M10.338,8.334c0.012,0.005,0.015,0.015,0.015,0.026C10.343,8.354,10.338,8.346,10.338,8.334z"/>
	<path fill="#3AFFFF" d="M14.935,8.359c0.007-0.01,0.018-0.011,0.029-0.01C14.957,8.359,14.947,8.361,14.935,8.359z"/>
	<path fill="#D7FFFF" d="M10.802,4.001c0,0.012-0.003,0.023-0.017,0.027C10.786,4.016,10.789,4.006,10.802,4.001z"/>
	<path fill="#D7FFFF" d="M10.758,4.073c0,0.012-0.003,0.022-0.016,0.027C10.743,4.089,10.748,4.079,10.758,4.073z"/>
	<path fill="#D7FFFF" d="M10.715,4.147c-0.001,0.012-0.004,0.022-0.017,0.026C10.699,4.16,10.705,4.152,10.715,4.147z"/>
	<path fill="#D7FFFF" d="M10.671,4.218c0,0.012-0.003,0.023-0.016,0.028C10.656,4.234,10.66,4.224,10.671,4.218z"/>
	<path fill="#D7FFFF" d="M10.584,4.362c0,0.012-0.003,0.023-0.016,0.028C10.569,4.378,10.573,4.368,10.584,4.362z"/>
	<path fill="#D7FFFF" d="M10.541,4.436c-0.001,0.012-0.004,0.022-0.016,0.027C10.526,4.451,10.531,4.442,10.541,4.436z"/>
	<path fill="#D7FFFF" d="M10.512,4.48c-0.001,0.011-0.004,0.021-0.015,0.026C10.497,4.495,10.502,4.486,10.512,4.48z"/>
	<path fill="#D7FFFF" d="M10.497,4.507c0,0.012-0.003,0.023-0.016,0.028C10.482,4.523,10.486,4.513,10.497,4.507z"/>
	<path fill="#D7FFFF" d="M10.454,4.581c-0.001,0.012-0.003,0.022-0.015,0.027C10.439,4.596,10.444,4.587,10.454,4.581z"/>
	<path fill="#D7FFFF" d="M10.426,4.626c-0.001,0.011-0.004,0.021-0.016,0.026C10.41,4.64,10.415,4.631,10.426,4.626z"/>
	<path fill="#D7FFFF" d="M10.41,4.652c0,0.013-0.003,0.024-0.016,0.028C10.395,4.668,10.398,4.658,10.41,4.652z"/>
	<path fill="#D7FFFF" d="M10.367,4.725c0,0.012-0.003,0.022-0.016,0.028C10.352,4.741,10.357,4.732,10.367,4.725z"/>
	<path fill="#D7FFFF" d="M10.9,3.837c0,0.008-0.004,0.014-0.011,0.017C10.888,3.846,10.891,3.84,10.9,3.837z"/>
	<path fill="#D7FFFF" d="M10.873,3.882c-0.003,0.005-0.007,0.011-0.01,0.016C10.861,3.89,10.865,3.884,10.873,3.882z"/>
	<path fill="#D7FFFF" d="M10.858,3.907c-0.001,0.009-0.004,0.015-0.012,0.02C10.846,3.918,10.849,3.911,10.858,3.907z"/>
	<path fill="#D7FFFF" d="M10.815,3.983C10.814,3.991,10.81,3.996,10.803,4C10.803,3.991,10.806,3.985,10.815,3.983z"/>
	<path fill="#D7FFFF" d="M10.786,4.027c-0.004,0.006-0.007,0.011-0.011,0.017C10.774,4.035,10.778,4.029,10.786,4.027z"/>
	<path fill="#D7FFFF" d="M10.771,4.052c0,0.009-0.004,0.016-0.012,0.02C10.759,4.063,10.762,4.056,10.771,4.052z"/>
	<path fill="#D7FFFF" d="M10.743,4.101c-0.003,0.005-0.007,0.01-0.01,0.015C10.732,4.108,10.735,4.102,10.743,4.101z"/>
	<path fill="#D7FFFF" d="M10.728,4.126c-0.004,0.006-0.008,0.012-0.012,0.019C10.716,4.136,10.72,4.13,10.728,4.126z"/>
	<path fill="#D7FFFF" d="M10.698,4.171c-0.004,0.006-0.007,0.011-0.011,0.017C10.687,4.18,10.69,4.174,10.698,4.171z"/>
	<path fill="#D7FFFF" d="M10.684,4.196c0,0.009-0.004,0.016-0.012,0.021C10.671,4.208,10.675,4.2,10.684,4.196z"/>
	<path fill="#D7FFFF" d="M10.656,4.245c-0.003,0.005-0.007,0.01-0.01,0.015C10.645,4.252,10.648,4.247,10.656,4.245z"/>
	<path fill="#D7FFFF" d="M10.641,4.271c-0.004,0.006-0.008,0.013-0.011,0.019C10.629,4.281,10.633,4.274,10.641,4.271z"/>
	<path fill="#D7FFFF" d="M10.612,4.317c-0.004,0.005-0.007,0.011-0.011,0.016C10.6,4.325,10.603,4.319,10.612,4.317z"/>
	<path fill="#D7FFFF" d="M10.597,4.341c-0.001,0.009-0.004,0.017-0.012,0.021C10.584,4.352,10.588,4.345,10.597,4.341z"/>
	<path fill="#D7FFFF" d="M10.569,4.39c-0.003,0.005-0.007,0.01-0.01,0.016C10.557,4.397,10.561,4.392,10.569,4.39z"/>
	<path fill="#D7FFFF" d="M10.554,4.415c-0.001,0.008-0.004,0.015-0.012,0.02C10.542,4.426,10.545,4.419,10.554,4.415z"/>
	<path fill="#D7FFFF" d="M10.526,4.463c-0.004,0.005-0.008,0.01-0.012,0.015C10.513,4.47,10.518,4.465,10.526,4.463z"/>
	<path fill="#D7FFFF" d="M10.482,4.534c-0.004,0.005-0.007,0.011-0.011,0.016C10.47,4.542,10.473,4.537,10.482,4.534z"/>
	<path fill="#D7FFFF" d="M10.467,4.56c-0.001,0.009-0.004,0.015-0.012,0.02C10.454,4.57,10.458,4.564,10.467,4.56z"/>
	<path fill="#D7FFFF" d="M10.902,7.072c-0.004-0.005-0.008-0.01-0.012-0.016C10.898,7.059,10.903,7.063,10.902,7.072z"/>
	<path fill="#D7FFFF" d="M10.703,6.369c0.001-0.009,0.005-0.016,0.013-0.02C10.716,6.358,10.712,6.365,10.703,6.369z"/>
	<path fill="#D7FFFF" d="M10.687,6.392c0.003-0.005,0.007-0.01,0.01-0.015C10.698,6.385,10.695,6.39,10.687,6.392z"/>
	<path fill="#D7FFFF" d="M10.833,6.152c0-0.009,0.004-0.016,0.012-0.021C10.846,6.14,10.842,6.147,10.833,6.152z"/>
	<path fill="#D7FFFF" d="M10.614,6.593c-0.008-0.004-0.012-0.01-0.013-0.019C10.609,6.578,10.614,6.584,10.614,6.593z"/>
	<path fill="#D7FFFF" d="M10.861,6.103c0.003-0.005,0.007-0.01,0.01-0.015C10.873,6.096,10.869,6.101,10.861,6.103z"/>
	<path fill="#D7FFFF" d="M10.625,6.608c-0.003-0.005-0.007-0.01-0.01-0.015C10.622,6.595,10.626,6.6,10.625,6.608z"/>
	<path fill="#D7FFFF" d="M10.876,6.077c0.001-0.008,0.004-0.014,0.012-0.019C10.888,6.067,10.885,6.073,10.876,6.077z"/>
	<path fill="#D7FFFF" d="M10.79,6.222c0.001-0.008,0.005-0.014,0.013-0.018C10.802,6.213,10.798,6.219,10.79,6.222z"/>
	<path fill="#D7FFFF" d="M10.889,6.056c0.003-0.004,0.006-0.008,0.01-0.012C10.9,6.052,10.896,6.055,10.889,6.056z"/>
	<path fill="#D7FFFF" d="M10.905,6.033c0.004-0.006,0.007-0.012,0.011-0.018C10.917,6.024,10.913,6.03,10.905,6.033z"/>
	<path fill="#D7FFFF" d="M10.92,6.007c0-0.009,0.004-0.016,0.012-0.021C10.933,5.996,10.929,6.003,10.92,6.007z"/>
	<path fill="#D7FFFF" d="M10.948,5.958c0.003-0.005,0.007-0.01,0.01-0.016C10.96,5.951,10.956,5.956,10.948,5.958z"/>
	<path fill="#D7FFFF" d="M10.22,4.967c-0.004,0.006-0.007,0.012-0.011,0.018C10.209,4.976,10.212,4.97,10.22,4.967z"/>
	<path fill="#D7FFFF" d="M10.236,4.943c-0.004,0.004-0.007,0.009-0.011,0.013C10.225,4.948,10.229,4.944,10.236,4.943z"/>
	<path fill="#D7FFFF" d="M10.249,4.923c-0.001,0.008-0.005,0.015-0.012,0.019C10.237,4.933,10.241,4.927,10.249,4.923z"/>
	<path fill="#D7FFFF" d="M10.265,4.897c-0.003,0.005-0.007,0.01-0.01,0.015C10.253,4.905,10.257,4.899,10.265,4.897z"/>
	<path fill="#B5FFFF" d="M13.413,8.06c0.006,0.001,0.01,0.004,0.01,0.011C13.416,8.071,13.413,8.068,13.413,8.06z"/>
	<path fill="#D7FFFF" d="M10.258,8.205c0.004,0.003,0.007,0.006,0.008,0.011C10.259,8.214,10.256,8.211,10.258,8.205z"/>
	<path fill="#D7FFFF" d="M10.267,8.218c0.007,0.004,0.011,0.011,0.011,0.019C10.27,8.233,10.266,8.227,10.267,8.218z"/>
	<path fill="#D7FFFF" d="M10.283,8.247c0.003,0.005,0.007,0.011,0.01,0.016C10.285,8.261,10.281,8.255,10.283,8.247z"/>
	<path fill="#D7FFFF" d="M10.299,8.276c0.003,0.004,0.006,0.009,0.009,0.013C10.301,8.288,10.298,8.284,10.299,8.276z"/>
	<path fill="#D7FFFF" d="M10.641,6.638c-0.004-0.006-0.008-0.012-0.011-0.019C10.638,6.622,10.641,6.629,10.641,6.638z"/>
	<path fill="#D7FFFF" d="M10.326,8.319c0.004,0.005,0.007,0.009,0.011,0.014C10.33,8.332,10.326,8.327,10.326,8.319z"/>
	<path fill="#D7FFFF" d="M10.803,6.203c0.003-0.005,0.007-0.009,0.01-0.014C10.814,6.197,10.811,6.202,10.803,6.203z"/>
	<path fill="#D7FFFF" d="M10.657,6.666c-0.008-0.005-0.012-0.012-0.013-0.022C10.653,6.649,10.657,6.657,10.657,6.666z"/>
	<path fill="#D7FFFF" d="M10.354,8.363c0.007,0.004,0.011,0.01,0.011,0.019C10.357,8.378,10.353,8.372,10.354,8.363z"/>
	<path fill="#3AFFFF" d="M14.894,8.369c0.004-0.002,0.009-0.003,0.013-0.005C14.904,8.371,14.9,8.372,14.894,8.369z"/>
	<path fill="#D7FFFF" d="M10.37,8.392c0.003,0.005,0.007,0.011,0.01,0.016C10.372,8.405,10.369,8.4,10.37,8.392z"/>
	<path fill="#D7FFFF" d="M10.386,8.421c0.003,0.004,0.006,0.008,0.009,0.013C10.389,8.432,10.385,8.428,10.386,8.421z"/>
	<path fill="#D7FFFF" d="M10.292,4.849c0,0.009-0.004,0.016-0.012,0.021C10.28,4.86,10.284,4.853,10.292,4.849z"/>
	<path fill="#D7FFFF" d="M10.396,8.436c0.008,0.005,0.012,0.012,0.012,0.021C10.4,8.452,10.396,8.445,10.396,8.436z"/>
	<path fill="#D7FFFF" d="M10.412,8.464c0.004,0.005,0.007,0.011,0.011,0.016C10.415,8.478,10.411,8.473,10.412,8.464z"/>
	<path fill="#D7FFFF" d="M10.433,8.495c0.003,0.002,0.006,0.006,0.007,0.01C10.434,8.503,10.432,8.5,10.433,8.495z"/>
	<path fill="#D7FFFF" d="M10.441,8.508c0.004,0.006,0.007,0.012,0.011,0.018C10.444,8.522,10.44,8.516,10.441,8.508z"/>
	<path fill="#D7FFFF" d="M10.457,8.537c0.003,0.005,0.007,0.01,0.01,0.015C10.46,8.55,10.456,8.545,10.457,8.537z"/>
	<path fill="#D7FFFF" d="M10.308,4.822C10.304,4.828,10.3,4.834,10.297,4.84C10.296,4.832,10.3,4.826,10.308,4.822z"/>
	<path fill="#D7FFFF" d="M10.644,6.467c0.004-0.006,0.007-0.011,0.011-0.017C10.655,6.458,10.652,6.464,10.644,6.467z"/>
	<path fill="#D7FFFF" d="M10.716,6.348c0.003-0.005,0.007-0.01,0.01-0.014C10.727,6.342,10.723,6.346,10.716,6.348z"/>
	<path fill="#D7FFFF" d="M10.683,6.71c-0.003-0.005-0.007-0.011-0.01-0.016C10.681,6.696,10.684,6.702,10.683,6.71z"/>
	<path fill="#D7FFFF" d="M10.323,4.797c-0.003,0.005-0.007,0.009-0.01,0.014C10.312,4.803,10.315,4.799,10.323,4.797z"/>
	<path fill="#D7FFFF" d="M10.336,4.778c-0.001,0.008-0.005,0.015-0.013,0.018C10.323,4.787,10.328,4.782,10.336,4.778z"/>
	<path fill="#D7FFFF" d="M10.7,6.739c-0.008-0.004-0.012-0.011-0.012-0.019C10.696,6.723,10.7,6.73,10.7,6.739z"/>
	<path fill="#D7FFFF" d="M10.712,6.753c-0.004-0.005-0.007-0.009-0.011-0.014C10.709,6.741,10.713,6.745,10.712,6.753z"/>
	<path fill="#D7FFFF" d="M10.818,6.178c0.004-0.006,0.007-0.012,0.011-0.018C10.83,6.168,10.826,6.174,10.818,6.178z"/>
	<path fill="#D7FFFF" d="M10.728,6.783c-0.004-0.006-0.008-0.013-0.011-0.019C10.725,6.767,10.729,6.774,10.728,6.783z"/>
	<path fill="#D7FFFF" d="M10.629,6.493c0.003-0.005,0.006-0.009,0.01-0.014C10.639,6.487,10.636,6.491,10.629,6.493z"/>
	<path fill="#D7FFFF" d="M10.731,6.322c0.004-0.006,0.007-0.012,0.011-0.017C10.743,6.313,10.739,6.319,10.731,6.322z"/>
	<path fill="#D7FFFF" d="M10.352,4.753c-0.003,0.005-0.007,0.01-0.01,0.015C10.341,4.76,10.344,4.755,10.352,4.753z"/>
	<path fill="#D7FFFF" d="M10.77,6.855c-0.004-0.005-0.007-0.011-0.011-0.016C10.768,6.841,10.771,6.846,10.77,6.855z"/>
	<path fill="#D7FFFF" d="M10.38,4.704c-0.001,0.009-0.004,0.016-0.012,0.02C10.367,4.715,10.371,4.708,10.38,4.704z"/>
	<path fill="#D7FFFF" d="M10.787,6.884c-0.007-0.004-0.011-0.011-0.012-0.02C10.783,6.868,10.787,6.875,10.787,6.884z"/>
	<path fill="#D7FFFF" d="M10.746,6.296c0-0.009,0.004-0.016,0.012-0.02C10.758,6.285,10.755,6.292,10.746,6.296z"/>
	<path fill="#D7FFFF" d="M10.815,6.927c-0.007-0.004-0.011-0.01-0.011-0.017C10.813,6.913,10.816,6.919,10.815,6.927z"/>
	<path fill="#D7FFFF" d="M10.659,6.44c0-0.009,0.004-0.015,0.012-0.02C10.671,6.43,10.668,6.437,10.659,6.44z"/>
	<path fill="#D7FFFF" d="M10.774,6.247c0.003-0.005,0.007-0.01,0.01-0.015C10.785,6.241,10.782,6.245,10.774,6.247z"/>
	<path fill="#D7FFFF" d="M10.858,7c-0.004-0.005-0.007-0.011-0.011-0.016C10.855,6.986,10.858,6.992,10.858,7z"/>
	<path fill="#D7FFFF" d="M10.874,7.029c-0.008-0.005-0.011-0.011-0.012-0.02C10.87,7.013,10.874,7.02,10.874,7.029z"/>
	<path fill="#D7FFFF" d="M10.394,4.679c-0.004,0.006-0.007,0.011-0.011,0.017C10.383,4.687,10.386,4.682,10.394,4.679z"/>
	<path fill="#D7FFFF" d="M10.6,6.537c0.004-0.005,0.008-0.01,0.011-0.015C10.612,6.531,10.608,6.535,10.6,6.537z"/>
	<path fill="#D7FFFF" d="M10.439,4.608c-0.004,0.005-0.008,0.01-0.011,0.016C10.428,4.616,10.431,4.61,10.439,4.608z"/>
	<path fill="#666666" d="M1.568,6.817c0.007-0.01,0.017-0.006,0.025-0.006c0.244-0.004,0.488-0.009,0.732-0.012
		C2.562,6.796,2.799,6.8,3.035,6.794c0.447-0.012,0.894-0.004,1.341-0.016c0.396-0.01,0.792-0.002,1.188-0.014
		c0.386-0.012,0.773-0.007,1.159-0.013c0.099-0.002,0.078-0.006,0.128,0.066c0.118,0.171,0.235,0.342,0.352,0.513
		c0.03,0.044,0.059,0.088,0.089,0.132c0.08,0.118,0.159,0.236,0.24,0.353C7.676,8.027,7.82,8.238,7.964,8.449
		C8,8.501,8.035,8.553,8.07,8.605c0.111,0.164,0.222,0.328,0.333,0.491C8.501,9.242,8.6,9.388,8.7,9.534
		c0.126,0.185,0.253,0.371,0.379,0.556c0.092,0.136,0.185,0.271,0.277,0.407c0.128,0.187,0.256,0.375,0.384,0.562
		c0.043,0.064,0.088,0.127,0.131,0.189c-0.017,0.018-0.029,0.004-0.04-0.002c-0.132-0.07-0.264-0.141-0.396-0.212
		c-0.305-0.163-0.609-0.325-0.914-0.488c-0.194-0.104-0.387-0.208-0.581-0.311C7.657,10.084,7.374,9.933,7.09,9.781
		C6.827,9.64,6.563,9.498,6.299,9.357C6.086,9.243,5.873,9.13,5.66,9.016c-0.345-0.184-0.69-0.369-1.034-0.554
		C4.43,8.357,4.234,8.252,4.039,8.148C3.755,7.996,3.472,7.845,3.189,7.694C2.996,7.59,2.802,7.486,2.608,7.382
		C2.325,7.231,2.042,7.08,1.759,6.928C1.702,6.897,1.644,6.866,1.587,6.835C1.58,6.831,1.568,6.83,1.568,6.817z"/>
	<path fill="#61FFFF" d="M5.767,3.999c0.051-0.041,0.111-0.066,0.167-0.098C6.25,3.725,6.568,3.55,6.885,3.375
		c0.019-0.01,0.039-0.018,0.058-0.027c0.071-0.006,0.089,0.006,0.096,0.07C7.043,3.449,7.041,3.48,7.041,3.512
		c0,0.708-0.001,1.417,0.001,2.125c0,0.031-0.002,0.063-0.007,0.094C6.996,5.794,6.958,5.857,6.918,5.92
		c-0.054,0.085-0.11,0.17-0.165,0.255C6.727,6.213,6.701,6.25,6.675,6.288c-0.043,0.01-0.086,0.005-0.13,0.006
		c-0.21,0.004-0.42,0.007-0.629,0.01c-0.024,0-0.048-0.001-0.072-0.002C5.811,6.265,5.82,6.22,5.82,6.177
		C5.82,5.5,5.82,4.824,5.821,4.147C5.821,4.089,5.817,4.036,5.767,3.999z"/>
	<path fill="#85FFFF" d="M5.767,3.999c0.012,0.001,0.024,0,0.036,0.002c0.027,0.005,0.038,0.016,0.04,0.043
		c0.001,0.022,0.001,0.043,0.001,0.065c0,0.702,0,1.404,0,2.106c0,0.029,0.001,0.058,0.001,0.087
		C5.731,6.303,5.618,6.306,5.505,6.307c-0.293,0.004-0.586,0.008-0.88,0.012c-0.034,0-0.067-0.001-0.101-0.002
		C4.493,6.283,4.501,6.24,4.501,6.2C4.5,5.76,4.5,5.321,4.502,4.882c0-0.063-0.01-0.114-0.07-0.144
		C4.517,4.679,4.61,4.635,4.7,4.584c0.273-0.152,0.547-0.303,0.82-0.453c0.01-0.006,0.022-0.01,0.032-0.014
		c0.008-0.009,0.022-0.006,0.029-0.015l0,0C5.59,4.093,5.604,4.096,5.611,4.086L5.61,4.086c0.005-0.004,0.011-0.008,0.017-0.011
		C5.628,4.071,5.631,4.07,5.635,4.071c0.008-0.002,0.014-0.008,0.021-0.012l0.002-0.003l0.004,0.001
		c0.01-0.001,0.016-0.007,0.023-0.012l0.001,0c0.007-0.01,0.021-0.007,0.028-0.015l0,0c0.008-0.008,0.022-0.005,0.029-0.016
		L5.74,4.014c0.006-0.003,0.011-0.008,0.017-0.011C5.759,3.998,5.762,3.997,5.767,3.999z"/>
	<path fill="#46FFFF" d="M7.035,5.73C7.024,5.709,7.016,5.686,7.017,5.661c0.001-0.017,0-0.034,0-0.051c0-0.708,0-1.417,0-2.125
		c0-0.014,0-0.029,0-0.043c-0.001-0.079,0.01-0.071-0.075-0.095c0.036-0.032,0.081-0.05,0.123-0.073
		C7.41,3.083,7.754,2.893,8.098,2.702c0.006-0.003,0.013-0.005,0.02-0.007c0.069-0.014,0.095,0.002,0.107,0.065
		C8.229,2.775,8.229,2.79,8.229,2.804c0,0.361,0.003,0.722-0.002,1.082C8.202,3.93,8.177,3.974,8.15,4.016
		C8.072,4.138,7.992,4.259,7.914,4.38C7.794,4.564,7.675,4.747,7.555,4.932C7.477,5.053,7.4,5.175,7.321,5.296
		C7.23,5.438,7.138,5.579,7.045,5.721C7.043,5.725,7.039,5.727,7.035,5.73z"/>
	<path fill="#A8FFFF" d="M4.432,4.738c0.076,0.004,0.093-0.009,0.092,0.095c-0.001,0.466-0.001,0.931,0,1.397
		c0,0.029,0.001,0.058,0.001,0.087C4.458,6.318,4.391,6.32,4.323,6.321C3.972,6.326,3.622,6.33,3.271,6.334
		c-0.017,0-0.033-0.002-0.05-0.002C3.192,6.303,3.197,6.265,3.196,6.23c-0.001-0.199-0.001-0.398,0-0.597
		c0-0.067,0-0.134-0.023-0.198c0.058-0.043,0.123-0.073,0.186-0.107C3.604,5.191,3.85,5.055,4.095,4.92
		c0.006-0.003,0.013-0.005,0.02-0.007c0.009-0.008,0.024-0.005,0.031-0.016L4.145,4.897c0.009-0.006,0.024-0.003,0.03-0.016
		L4.173,4.882c0.007-0.002,0.012-0.008,0.018-0.012l0.005-0.002c0.01-0.001,0.016-0.007,0.023-0.013l0,0
		C4.227,4.847,4.241,4.85,4.248,4.84l0,0C4.256,4.832,4.27,4.835,4.277,4.825L4.276,4.825c0.006-0.003,0.01-0.009,0.017-0.011
		L4.296,4.81l0.005,0c0.008-0.002,0.014-0.007,0.021-0.012l0.001,0c0.007-0.01,0.02-0.007,0.028-0.014l0.001,0
		c0.007-0.009,0.021-0.006,0.028-0.015l0,0C4.387,4.76,4.401,4.763,4.407,4.752L4.406,4.753C4.413,4.75,4.417,4.744,4.424,4.741
		C4.425,4.737,4.428,4.736,4.432,4.738z"/>
	<path fill="#21FFFF" d="M8.228,3.886C8.216,3.88,8.208,3.871,8.208,3.858C8.207,3.837,8.207,3.815,8.207,3.793
		c0-0.326,0-0.652,0-0.978c0-0.017,0.001-0.034,0-0.051C8.204,2.719,8.187,2.702,8.14,2.696c-0.007-0.001-0.014,0-0.022,0
		c0.057-0.041,0.12-0.07,0.181-0.104C8.684,2.378,9.07,2.164,9.456,1.951c0.006-0.003,0.013-0.006,0.019-0.008
		C9.488,1.95,9.481,1.958,9.476,1.966c-0.085,0.131-0.17,0.263-0.255,0.394C9.079,2.579,8.937,2.797,8.796,3.015
		c-0.07,0.107-0.139,0.214-0.208,0.322C8.476,3.511,8.364,3.685,8.251,3.86C8.245,3.869,8.236,3.877,8.228,3.886z"/>
	<path fill="#CBFFFF" d="M3.173,5.435c0.04,0.017,0.046,0.049,0.046,0.088c-0.001,0.241-0.001,0.481,0,0.722
		c0,0.029,0.001,0.058,0.001,0.087C3.172,6.333,3.124,6.336,3.076,6.337C2.704,6.341,2.333,6.345,1.961,6.35
		C1.831,6.352,1.7,6.355,1.57,6.357c-0.013,0-0.027,0-0.039-0.001C1.529,6.331,1.548,6.33,1.559,6.324
		C1.69,6.251,1.82,6.178,1.951,6.106c0.245-0.135,0.489-0.27,0.734-0.406c0.158-0.087,0.316-0.175,0.474-0.262
		C3.163,5.436,3.169,5.436,3.173,5.435z"/>
	<path fill="#85FFFF" d="M4.277,4.825C4.271,4.838,4.261,4.841,4.248,4.84C4.254,4.829,4.265,4.825,4.277,4.825z"/>
	<path fill="#85FFFF" d="M4.248,4.84C4.242,4.852,4.232,4.856,4.219,4.855C4.225,4.843,4.236,4.839,4.248,4.84z"/>
	<path fill="#85FFFF" d="M4.175,4.881C4.17,4.896,4.159,4.899,4.145,4.897C4.151,4.885,4.163,4.882,4.175,4.881z"/>
	<path fill="#85FFFF" d="M4.146,4.897C4.141,4.911,4.129,4.914,4.116,4.913C4.122,4.901,4.133,4.896,4.146,4.897z"/>
	<path fill="#61FFFF" d="M5.741,4.013C5.736,4.026,5.725,4.029,5.712,4.029C5.718,4.017,5.729,4.013,5.741,4.013z"/>
	<path fill="#61FFFF" d="M5.713,4.029C5.707,4.041,5.697,4.044,5.685,4.044C5.692,4.034,5.7,4.028,5.713,4.029z"/>
	<path fill="#61FFFF" d="M5.611,4.086C5.605,4.099,5.595,4.102,5.582,4.101C5.588,4.09,5.599,4.086,5.611,4.086z"/>
	<path fill="#61FFFF" d="M5.582,4.101C5.576,4.113,5.565,4.116,5.553,4.116C5.559,4.105,5.57,4.101,5.582,4.101z"/>
	<path fill="#85FFFF" d="M4.407,4.752C4.402,4.765,4.392,4.769,4.379,4.768C4.384,4.756,4.395,4.752,4.407,4.752z"/>
	<path fill="#85FFFF" d="M4.379,4.768C4.373,4.78,4.363,4.783,4.351,4.783C4.357,4.773,4.366,4.767,4.379,4.768z"/>
	<path fill="#85FFFF" d="M4.35,4.783C4.344,4.795,4.334,4.798,4.322,4.798C4.329,4.787,4.338,4.783,4.35,4.783z"/>
	<path fill="#61FFFF" d="M5.757,4.003C5.753,4.009,5.748,4.013,5.74,4.014C5.743,4.005,5.749,4.002,5.757,4.003z"/>
	<path fill="#61FFFF" d="M5.684,4.045C5.679,4.053,5.671,4.057,5.661,4.057C5.666,4.047,5.674,4.044,5.684,4.045z"/>
	<path fill="#61FFFF" d="M5.656,4.059C5.651,4.067,5.644,4.071,5.635,4.071C5.639,4.063,5.646,4.059,5.656,4.059z"/>
	<path fill="#61FFFF" d="M5.627,4.075C5.621,4.079,5.615,4.083,5.61,4.086C5.612,4.078,5.618,4.075,5.627,4.075z"/>
	<path fill="#85FFFF" d="M4.219,4.855C4.214,4.864,4.207,4.868,4.197,4.869C4.201,4.859,4.209,4.855,4.219,4.855z"/>
	<path fill="#85FFFF" d="M4.293,4.814C4.289,4.821,4.284,4.825,4.276,4.825C4.278,4.817,4.284,4.813,4.293,4.814z"/>
	<path fill="#85FFFF" d="M4.321,4.798C4.317,4.806,4.31,4.81,4.301,4.811C4.305,4.802,4.312,4.798,4.321,4.798z"/>
	<path fill="#85FFFF" d="M4.192,4.871c-0.004,0.007-0.01,0.011-0.018,0.012C4.176,4.873,4.183,4.87,4.192,4.871z"/>
	<path fill="#85FFFF" d="M4.424,4.741C4.418,4.745,4.412,4.749,4.406,4.753C4.409,4.744,4.415,4.741,4.424,4.741z"/>
	<path fill="#666666" d="M21.87,1.522c0.096,0.051,0.192,0.102,0.287,0.153c0.296,0.159,0.591,0.318,0.887,0.476
		c0.2,0.107,0.401,0.212,0.601,0.319c0.277,0.148,0.553,0.297,0.829,0.446c0.2,0.107,0.401,0.212,0.601,0.32
		c0.298,0.159,0.595,0.32,0.893,0.48c0.177,0.095,0.354,0.188,0.531,0.282c0.234,0.125,0.468,0.252,0.702,0.377
		c0.166,0.089,0.332,0.177,0.499,0.266c0.164,0.088,0.327,0.176,0.491,0.264c0.113,0.06,0.226,0.12,0.339,0.18
		c0.253,0.136,0.506,0.272,0.759,0.407c0.243,0.13,0.486,0.259,0.728,0.388c0.048,0.026,0.096,0.053,0.151,0.084
		c-0.021,0.013-0.037,0.009-0.052,0.01C29.677,5.988,29.24,5.98,28.803,5.99C28.385,6,27.967,5.993,27.55,6.005
		c-0.372,0.011-0.744,0.003-1.116,0.013c-0.435,0.012-0.869,0.009-1.304,0.015c-0.051,0.001-0.101,0.004-0.152,0.008
		c-0.032,0.002-0.054-0.009-0.072-0.036c-0.127-0.188-0.255-0.375-0.383-0.562c-0.141-0.207-0.283-0.414-0.425-0.621
		c-0.106-0.155-0.211-0.312-0.317-0.467c-0.086-0.126-0.172-0.25-0.258-0.376c-0.071-0.104-0.14-0.208-0.21-0.312
		c-0.088-0.13-0.177-0.259-0.266-0.388c-0.039-0.058-0.078-0.116-0.118-0.174c-0.15-0.219-0.299-0.438-0.449-0.657
		c-0.077-0.114-0.154-0.228-0.231-0.341c-0.113-0.165-0.227-0.33-0.34-0.495c-0.017-0.025-0.033-0.052-0.05-0.078
		C21.863,1.529,21.867,1.526,21.87,1.522z"/>
	<path fill="#8CFFFF" d="M25.049,6.506c0.005-0.005,0.01-0.013,0.015-0.013c0.081-0.002,0.163-0.013,0.244-0.001
		c0.026-0.01,0.052-0.006,0.079-0.006c0.294,0,0.588,0,0.882-0.001c0.026,0,0.053,0.007,0.078-0.007
		c0.062-0.005,0.123-0.01,0.185-0.002c0.089,0.023,0.111,0.047,0.112,0.14c0.002,0.574,0.001,1.148,0,1.721
		c0,0.029-0.002,0.058-0.021,0.082L26.62,8.422c-0.004,0.003-0.008,0.006-0.012,0.008c-0.005,0.002-0.01,0.005-0.015,0.007
		c-0.005,0.003-0.01,0.006-0.014,0.009c-0.005,0.002-0.01,0.004-0.015,0.006c-0.005,0.002-0.01,0.005-0.014,0.009
		c-0.004,0.002-0.008,0.004-0.013,0.006c-0.008,0-0.012,0.005-0.017,0.01l-0.004,0.002c-0.001,0.005-0.005,0.007-0.009,0.007
		c-0.006,0.003-0.012,0.005-0.018,0.008c-0.003,0.004-0.007,0.006-0.012,0.008c-0.124,0.07-0.247,0.14-0.371,0.208
		c-0.24,0.133-0.479,0.265-0.719,0.398c-0.023,0.013-0.044,0.029-0.071,0.034c-0.044-0.029-0.038-0.075-0.038-0.118
		c-0.001-0.174-0.001-0.348-0.001-0.521c0-0.596,0-1.192,0-1.788c0-0.022,0-0.043,0-0.065c-0.003-0.084-0.021-0.103-0.105-0.117
		C25.131,6.527,25.084,6.541,25.049,6.506z"/>
	<path fill="#ADFFFF" d="M25.049,6.506c0.034,0,0.068,0.001,0.101,0.001c0.039,0,0.075,0.013,0.112,0.025
		c0.025,0.008,0.04,0.026,0.039,0.054c-0.001,0.022,0,0.043,0,0.065c0,0.793,0,1.586,0,2.379c0,0.039,0,0.077,0.016,0.113
		c0,0-0.004,0.002-0.004,0.002c-0.007,0.007-0.018,0.006-0.024,0.014l-0.003,0.002c-0.003,0.004-0.006,0.006-0.011,0.008
		c-0.005,0.002-0.01,0.005-0.016,0.007c-0.005,0.003-0.009,0.005-0.013,0.009c-0.005,0.002-0.01,0.004-0.015,0.006
		C25.225,9.193,25.22,9.196,25.216,9.2c-0.004,0.002-0.009,0.004-0.013,0.007c-0.006,0.002-0.012,0.005-0.016,0.01l-0.001,0.003
		l-0.004-0.001c-0.001,0.004-0.004,0.007-0.008,0.007c-0.006,0.003-0.013,0.006-0.019,0.008c-0.002,0.004-0.006,0.006-0.01,0.007
		c-0.006,0.003-0.012,0.005-0.018,0.008c-0.004,0.003-0.007,0.006-0.012,0.008c-0.005,0.002-0.01,0.005-0.015,0.007
		c-0.005,0.002-0.01,0.005-0.014,0.009c-0.018,0.017-0.04,0.026-0.063,0.033c-0.001,0.004-0.004,0.006-0.009,0.007
		c-0.006,0.003-0.012,0.006-0.018,0.008c-0.004,0.003-0.008,0.005-0.012,0.008c-0.005,0.002-0.01,0.005-0.016,0.007
		c-0.005,0.002-0.009,0.004-0.013,0.008c-0.085,0.049-0.17,0.098-0.255,0.146c-0.153,0.085-0.306,0.169-0.459,0.253
		c-0.008,0.004-0.017,0.007-0.026,0.011c-0.015-0.024-0.01-0.051-0.01-0.078c0.001-0.555,0-1.11,0-1.664
		c0-0.051,0.002-0.102-0.037-0.142c0.039-0.063,0.077-0.127,0.117-0.19c0.041-0.065,0.085-0.128,0.127-0.193
		c0.145-0.224,0.289-0.449,0.434-0.674C24.913,6.71,24.981,6.608,25.049,6.506z"/>
	<path fill="#66FFFF" d="M26.622,8.42c-0.001-0.029-0.001-0.058-0.001-0.087c0-0.561,0-1.122,0-1.684c0-0.012-0.001-0.024,0-0.036
		c0.008-0.058-0.011-0.099-0.068-0.12c-0.008-0.003-0.015-0.012-0.022-0.018c0.081-0.012,0.163-0.008,0.245-0.009
		c0.291-0.004,0.583-0.006,0.874-0.009c0.012,0,0.023,0.003,0.035,0.005c0.132-0.014,0.265-0.002,0.398-0.006
		c0.03-0.001,0.044,0.015,0.049,0.041c0.005,0.024,0.005,0.048,0.005,0.072c0,0.304,0,0.608,0,0.912
		c0,0.039-0.001,0.077-0.023,0.112c-0.069,0.039-0.137,0.079-0.206,0.118c-0.271,0.15-0.542,0.3-0.813,0.451
		c-0.149,0.083-0.298,0.165-0.448,0.247C26.64,8.414,26.631,8.417,26.622,8.42z"/>
	<path fill="#C5FFFF" d="M24.169,7.869c0.009-0.002,0.02-0.008,0.028-0.005c0.014,0.005,0.025,0.017,0.028,0.031
		c0.004,0.019,0.004,0.038,0.004,0.057c0,0.176,0,0.352,0,0.529c0,0.393,0,0.787,0,1.18c0,0.031,0.003,0.063-0.013,0.092
		c-0.096,0.055-0.191,0.11-0.288,0.164c-0.183,0.102-0.366,0.203-0.549,0.304c-0.025,0.014-0.051,0.025-0.077,0.038
		c-0.047-0.024-0.037-0.069-0.037-0.108c-0.001-0.237-0.001-0.475-0.001-0.712c0-0.043,0.001-0.087-0.034-0.12
		c0.035-0.057,0.07-0.115,0.106-0.172c0.077-0.12,0.156-0.238,0.233-0.358c0.12-0.184,0.239-0.368,0.358-0.553
		c0.072-0.111,0.144-0.223,0.216-0.334C24.15,7.891,24.16,7.881,24.169,7.869z"/>
	<path fill="#3BFFFF" d="M28.115,7.594c0-0.342,0-0.683-0.001-1.025c0-0.116,0.012-0.104-0.103-0.105
		c-0.108-0.001-0.217-0.001-0.325-0.002c0.018-0.01,0.038-0.006,0.057-0.007c0.29-0.003,0.58-0.006,0.869-0.009
		c0.471-0.005,0.942-0.011,1.413-0.017c0.059-0.001,0.118-0.004,0.177-0.002c0.001,0.013-0.003,0.017-0.011,0.021
		c-0.287,0.159-0.574,0.317-0.86,0.476c-0.27,0.15-0.54,0.299-0.809,0.449c-0.131,0.072-0.262,0.145-0.392,0.217
		C28.125,7.593,28.12,7.593,28.115,7.594z"/>
	<path fill="#DFFFFF" d="M23.229,9.319c0.01,0,0.019,0,0.029,0.001c0.017,0.001,0.026,0.011,0.027,0.028
		c0.001,0.019,0.001,0.038,0.001,0.058c0,0.257,0,0.514,0,0.771c0,0.029-0.003,0.058,0.015,0.083
		c-0.039,0.033-0.086,0.052-0.13,0.077c-0.28,0.156-0.561,0.311-0.841,0.467c-0.025,0.014-0.05,0.026-0.077,0.04
		c-0.004-0.021,0.007-0.03,0.014-0.041c0.006-0.011,0.012-0.021,0.019-0.031c0.123-0.19,0.246-0.381,0.37-0.571
		c0.13-0.2,0.259-0.401,0.389-0.601c0.008-0.012,0.018-0.022,0.028-0.033c0.003-0.006,0.007-0.011,0.011-0.015l0,0
		c0.007-0.006,0.013-0.012,0.014-0.022l-0.001-0.004l0.004-0.002c0.003-0.006,0.009-0.01,0.012-0.017L23.11,9.507
		c0.011-0.006,0.008-0.02,0.017-0.028l0-0.001c0.006-0.006,0.011-0.012,0.013-0.02c-0.002-0.004,0-0.007,0.004-0.009
		c0.003-0.006,0.007-0.011,0.011-0.015l0,0c0.005-0.005,0.011-0.009,0.013-0.016l-0.001,0.001c0.012-0.005,0.008-0.02,0.017-0.027
		l0,0c0.006-0.006,0.011-0.012,0.013-0.02c-0.002-0.004,0-0.007,0.004-0.008c0.003-0.006,0.007-0.011,0.011-0.016l0,0
		c0.01-0.006,0.006-0.021,0.016-0.027L23.229,9.319z"/>
	<path fill="#66FFFF" d="M26.346,6.478c-0.008,0.005-0.016,0.011-0.025,0.013c-0.012,0.002-0.024,0.001-0.036,0.001
		c-0.311,0-0.623,0-0.934,0.001c-0.014,0-0.029-0.001-0.043-0.002c0.013-0.008,0.028-0.007,0.042-0.007
		c0.323-0.003,0.645-0.007,0.968-0.01C26.327,6.475,26.337,6.477,26.346,6.478z"/>
	<path fill="#8CFFFF" d="M25.289,9.159c0.004-0.011,0.013-0.014,0.024-0.014C25.308,9.155,25.3,9.16,25.289,9.159z"/>
	<path fill="#C5FFFF" d="M23.229,9.321c0,0.012-0.004,0.022-0.016,0.027C23.213,9.335,23.218,9.327,23.229,9.321z"/>
	<path fill="#C5FFFF" d="M23.185,9.392c0,0.013-0.004,0.023-0.017,0.027C23.169,9.407,23.173,9.397,23.185,9.392z"/>
	<path fill="#C5FFFF" d="M23.127,9.479c0,0.013-0.004,0.023-0.017,0.028C23.11,9.494,23.115,9.485,23.127,9.479z"/>
	<path fill="#66FFFF" d="M26.608,8.43c0.004-0.003,0.008-0.006,0.012-0.008C26.618,8.428,26.615,8.432,26.608,8.43z"/>
	<path fill="#66FFFF" d="M26.579,8.446c0.005-0.003,0.009-0.006,0.014-0.009C26.591,8.445,26.587,8.448,26.579,8.446z"/>
	<path fill="#66FFFF" d="M26.55,8.461c0.003-0.006,0.007-0.01,0.014-0.009C26.562,8.459,26.558,8.462,26.55,8.461z"/>
	<path fill="#66FFFF" d="M26.52,8.477c0.003-0.007,0.009-0.011,0.017-0.01C26.535,8.475,26.529,8.478,26.52,8.477z"/>
	<path fill="#66FFFF" d="M26.478,8.502c0.004-0.003,0.008-0.005,0.012-0.008C26.488,8.501,26.485,8.504,26.478,8.502z"/>
	<path fill="#8CFFFF" d="M25.274,9.169c0.004-0.003,0.007-0.005,0.011-0.008C25.284,9.167,25.281,9.17,25.274,9.169z"/>
	<path fill="#8CFFFF" d="M25.245,9.185c0.004-0.003,0.009-0.006,0.013-0.009C25.257,9.184,25.253,9.187,25.245,9.185z"/>
	<path fill="#8CFFFF" d="M25.216,9.2c0.002-0.006,0.007-0.009,0.014-0.009C25.228,9.198,25.224,9.201,25.216,9.2z"/>
	<path fill="#8CFFFF" d="M25.187,9.216c0.003-0.007,0.008-0.011,0.016-0.01C25.201,9.215,25.195,9.217,25.187,9.216z"/>
	<path fill="#8CFFFF" d="M25.174,9.225c0.001-0.004,0.004-0.006,0.008-0.007C25.182,9.224,25.179,9.226,25.174,9.225z"/>
	<path fill="#8CFFFF" d="M25.144,9.241c0.002-0.005,0.005-0.007,0.01-0.007C25.154,9.24,25.15,9.242,25.144,9.241z"/>
	<path fill="#8CFFFF" d="M25.115,9.256c0.004-0.003,0.008-0.005,0.012-0.008C25.125,9.255,25.122,9.258,25.115,9.256z"/>
	<path fill="#8CFFFF" d="M25.086,9.273c0.002-0.006,0.007-0.01,0.014-0.009C25.098,9.271,25.093,9.274,25.086,9.273z"/>
	<path fill="#8CFFFF" d="M25.014,9.313c0.001-0.004,0.004-0.007,0.009-0.007C25.022,9.312,25.02,9.314,25.014,9.313z"/>
	<path fill="#8CFFFF" d="M24.985,9.329c0.004-0.003,0.008-0.005,0.012-0.008C24.995,9.328,24.992,9.331,24.985,9.329z"/>
	<path fill="#8CFFFF" d="M24.956,9.345c0.002-0.006,0.007-0.009,0.013-0.008C24.967,9.344,24.963,9.346,24.956,9.345z"/>
	<path fill="#C5FFFF" d="M23.213,9.347c-0.004,0.005-0.007,0.01-0.011,0.016C23.201,9.354,23.204,9.349,23.213,9.347z"/>
	<path fill="#C5FFFF" d="M23.198,9.371c0,0.009-0.004,0.016-0.013,0.02C23.185,9.382,23.189,9.375,23.198,9.371z"/>
	<path fill="#C5FFFF" d="M23.169,9.418c-0.001,0.008-0.005,0.014-0.013,0.016C23.155,9.425,23.16,9.42,23.169,9.418z"/>
	<path fill="#C5FFFF" d="M23.155,9.435c-0.004,0.005-0.007,0.01-0.011,0.015C23.143,9.441,23.147,9.436,23.155,9.435z"/>
	<path fill="#C5FFFF" d="M23.14,9.458c0,0.009-0.004,0.016-0.013,0.02C23.127,9.469,23.131,9.462,23.14,9.458z"/>
	<path fill="#C5FFFF" d="M23.111,9.505c-0.004,0.006-0.008,0.011-0.012,0.017C23.099,9.514,23.102,9.508,23.111,9.505z"/>
	<path fill="#C5FFFF" d="M23.096,9.529c-0.001,0.01-0.005,0.017-0.014,0.022C23.082,9.54,23.087,9.533,23.096,9.529z"/>
	<path fill="#C5FFFF" d="M23.083,9.55c-0.004,0.005-0.007,0.01-0.011,0.015C23.071,9.557,23.075,9.552,23.083,9.55z"/>
	<path fill="#66FFFF" d="M26.507,8.487c0.002-0.004,0.005-0.007,0.009-0.007C26.516,8.485,26.513,8.487,26.507,8.487z"/>
	<path fill="#19FFFF" d="M29.476,8.68c0.074-0.053,0.156-0.095,0.235-0.141c0.239-0.14,0.479-0.278,0.719-0.417
		c0.073-0.042,0.146-0.085,0.219-0.127c0.025-0.014,0.033-0.01,0.033,0.021c0,0.017,0,0.034,0,0.051c0,1.294,0,2.588,0,3.882
		c0,0.101,0.014,0.086-0.089,0.087c-0.328,0.001-0.657,0-0.985,0c-0.024,0-0.048-0.003-0.072-0.004
		c-0.033-0.04-0.024-0.087-0.024-0.132c0-0.96,0-1.919-0.001-2.879C29.512,8.905,29.524,8.789,29.476,8.68z"/>
	<path fill="#40FFFF" d="M29.476,8.68c0.049,0.033,0.06,0.08,0.06,0.137c-0.001,1.04-0.001,2.08-0.001,3.12
		c0,0.031,0,0.063,0.001,0.094c-0.019,0.001-0.038,0.004-0.057,0.004c-0.348,0-0.697,0-1.045,0c-0.019,0-0.038-0.003-0.057-0.004
		c-0.033-0.039-0.024-0.087-0.024-0.132c-0.001-0.749,0-1.497,0-2.246c0-0.103,0.008-0.207-0.022-0.308
		c0.033-0.032,0.076-0.049,0.115-0.072c0.244-0.143,0.489-0.284,0.734-0.426c0.006-0.003,0.013-0.005,0.02-0.007
		c0.006-0.003,0.011-0.008,0.017-0.011c0.002-0.004,0.005-0.006,0.009-0.004c0.008-0.001,0.014-0.006,0.02-0.011l0.003-0.004
		l0.005,0c0.01-0.001,0.016-0.006,0.022-0.013l-0.001,0c0.004-0.004,0.009-0.008,0.015-0.01c0.002-0.005,0.006-0.006,0.011-0.005
		c0.007-0.002,0.012-0.007,0.018-0.011l0.003-0.004l0.005,0c0.009,0,0.016-0.006,0.022-0.012l0.001,0
		c0.003-0.005,0.007-0.008,0.013-0.01c0.004-0.002,0.009-0.004,0.013-0.006c0.005-0.004,0.011-0.008,0.016-0.011
		c0.002-0.004,0.005-0.006,0.01-0.004c0.008-0.002,0.014-0.007,0.02-0.012l0.002-0.004l0.004,0.001c0.01,0,0.016-0.007,0.023-0.013
		l0,0c0.004-0.005,0.008-0.008,0.014-0.01C29.467,8.684,29.472,8.682,29.476,8.68z"/>
	<path fill="#63FFFF" d="M28.329,9.345c0.007,0.007,0.013,0.014,0.021,0.019c0.018,0.012,0.025,0.028,0.025,0.049
		c0,0.019,0,0.039,0,0.058c0,0.822,0,1.644,0,2.466c0,0.031,0.001,0.063,0.001,0.094c-0.019,0.001-0.038,0.004-0.057,0.004
		c-0.305,0-0.61,0.001-0.915,0c-0.019,0-0.038-0.003-0.057-0.004c-0.032-0.037-0.024-0.082-0.024-0.124
		c-0.001-0.602,0-1.204,0-1.806c0-0.054,0.002-0.107-0.049-0.143c0.036-0.033,0.081-0.051,0.122-0.076
		c0.193-0.114,0.388-0.226,0.582-0.338c0.006-0.003,0.013-0.005,0.02-0.007c0.008-0.009,0.023-0.005,0.03-0.016l-0.001,0.001
		c0.005-0.004,0.011-0.008,0.016-0.011c0.002-0.004,0.005-0.006,0.009-0.004c0.008-0.002,0.014-0.007,0.02-0.012l0,0
		c0.007-0.009,0.021-0.006,0.028-0.016l-0.001,0c0.005-0.004,0.01-0.008,0.016-0.01c0.002-0.004,0.006-0.006,0.011-0.005
		c0.007-0.003,0.012-0.008,0.018-0.012l0.002-0.004l0.005,0c0.009-0.001,0.016-0.007,0.022-0.013l0,0
		c0.008-0.008,0.022-0.006,0.029-0.016L28.2,9.42c0.005-0.004,0.01-0.008,0.016-0.011c0.002-0.004,0.005-0.006,0.01-0.004
		c0.008-0.002,0.013-0.008,0.02-0.012l0.001,0c0.006-0.01,0.021-0.007,0.027-0.016l-0.001,0c0.008-0.008,0.022-0.005,0.029-0.016
		l-0.001,0.001c0.005-0.004,0.011-0.008,0.017-0.011C28.32,9.346,28.324,9.344,28.329,9.345z"/>
	<path fill="#82FFFF" d="M27.273,9.957c0.014,0.001,0.029,0,0.043,0.003c0.016,0.003,0.026,0.015,0.027,0.03
		c0.002,0.022,0.002,0.043,0.002,0.065c0,0.478,0,0.955,0,1.433c0,0.181,0.001,0.362,0.001,0.543
		c-0.017,0.001-0.033,0.004-0.05,0.004c-0.295,0-0.591,0.001-0.886,0.001c-0.017,0-0.033-0.003-0.05-0.005
		c-0.031-0.034-0.025-0.076-0.025-0.117c-0.001-0.411-0.001-0.823,0-1.234c0-0.056-0.005-0.11-0.036-0.159
		c0.017-0.012,0.034-0.026,0.053-0.037c0.233-0.135,0.466-0.27,0.699-0.405c0.05-0.029,0.1-0.058,0.15-0.087
		C27.226,9.98,27.25,9.969,27.273,9.957z"/>
	<path fill="#A2FFFF" d="M26.301,10.521c0.039,0.007,0.059,0.029,0.059,0.07c0,0.017,0,0.034,0,0.051c0,0.434,0,0.868,0,1.303
		c0,0.029,0.001,0.058,0.002,0.087c-0.023,0.008-0.048,0.004-0.072,0.004c-0.839,0.001-1.677,0.001-2.516,0.002
		c-0.019,0-0.039,0-0.058,0c-0.008,0-0.014-0.004-0.012-0.013c0.002-0.008,0.01-0.009,0.017-0.009
		c0.062-0.011,0.125-0.009,0.187-0.009c0.437,0,0.874,0,1.311,0c0.115,0,0.117-0.002,0.117-0.117c0-0.215-0.001-0.429,0.001-0.644
		c0-0.052-0.006-0.101-0.037-0.143c0.031-0.031,0.072-0.046,0.109-0.068c0.155-0.092,0.312-0.181,0.468-0.271
		c0.006-0.003,0.013-0.005,0.02-0.008c0.007-0.009,0.021-0.006,0.029-0.015l0,0c0.008-0.008,0.022-0.005,0.029-0.016l-0.001,0.001
		c0.007-0.003,0.011-0.008,0.017-0.012l0.002-0.004l0.004,0.001c0.009-0.001,0.016-0.007,0.022-0.013l0,0
		c0.008-0.009,0.021-0.006,0.029-0.015l0,0c0.008-0.008,0.023-0.005,0.029-0.017l-0.002,0.001c0.007-0.001,0.011-0.008,0.017-0.012
		l0.001-0.001c0.007-0.01,0.02-0.007,0.027-0.015l0,0c0.008-0.008,0.022-0.005,0.029-0.016l-0.001,0.001
		c0.005-0.004,0.011-0.008,0.016-0.011l0.003-0.004l0.005,0c0.009-0.001,0.015-0.007,0.021-0.013l0.001,0
		c0.007-0.009,0.021-0.006,0.028-0.015l0,0c0.008-0.008,0.022-0.005,0.029-0.016l-0.001,0.001c0.006-0.003,0.011-0.009,0.017-0.012
		l0.002-0.004l0.004,0.001c0.009-0.001,0.016-0.007,0.022-0.013l0,0C26.281,10.528,26.295,10.531,26.301,10.521L26.301,10.521z"/>
	<path fill="#C2FFFF" d="M25.299,11.101c0.014,0.005,0.028,0.008,0.041,0.014c0.012,0.005,0.018,0.016,0.018,0.029
		c0,0.017,0.001,0.034,0.001,0.051c0,0.251,0,0.502,0,0.753c0,0.083,0.002,0.081-0.078,0.081c-0.497,0-0.995,0.001-1.492,0
		c-0.023,0-0.049,0.009-0.068-0.014c0.095-0.056,0.189-0.114,0.285-0.169c0.239-0.139,0.479-0.277,0.718-0.415
		c0.183-0.106,0.366-0.212,0.549-0.318C25.282,11.108,25.291,11.105,25.299,11.101z"/>
	<path fill="#40FFFF" d="M28.274,9.376c-0.005,0.012-0.015,0.015-0.027,0.016C28.252,9.382,28.261,9.376,28.274,9.376z"/>
	<path fill="#40FFFF" d="M28.302,9.361c-0.006,0.013-0.017,0.016-0.029,0.016C28.279,9.364,28.29,9.361,28.302,9.361z"/>
	<path fill="#40FFFF" d="M28.201,9.419c-0.006,0.012-0.017,0.016-0.029,0.016C28.178,9.423,28.189,9.419,28.201,9.419z"/>
	<path fill="#40FFFF" d="M28.1,9.478c-0.006,0.012-0.016,0.015-0.028,0.016C28.078,9.482,28.087,9.477,28.1,9.478z"/>
	<path fill="#40FFFF" d="M28.027,9.52c-0.006,0.013-0.017,0.016-0.03,0.016C28.004,9.525,28.014,9.521,28.027,9.52z"/>
	<path fill="#82FFFF" d="M26.302,10.521c-0.006,0.013-0.016,0.016-0.029,0.015C26.279,10.524,26.289,10.521,26.302,10.521z"/>
	<path fill="#82FFFF" d="M26.229,10.564c-0.005,0.013-0.016,0.017-0.029,0.016C26.206,10.568,26.216,10.564,26.229,10.564z"/>
	<path fill="#82FFFF" d="M26.2,10.579c-0.006,0.012-0.016,0.015-0.028,0.015C26.178,10.583,26.188,10.579,26.2,10.579z"/>
	<path fill="#82FFFF" d="M26.127,10.622c-0.005,0.013-0.016,0.016-0.029,0.016C26.105,10.627,26.115,10.622,26.127,10.622z"/>
	<path fill="#82FFFF" d="M26.099,10.638c-0.005,0.012-0.016,0.015-0.027,0.015C26.078,10.643,26.086,10.637,26.099,10.638z"/>
	<path fill="#82FFFF" d="M26.054,10.664c-0.005,0.014-0.015,0.017-0.029,0.017C26.031,10.669,26.042,10.665,26.054,10.664z"/>
	<path fill="#82FFFF" d="M26.026,10.681c-0.006,0.013-0.016,0.016-0.029,0.015C26.004,10.685,26.014,10.681,26.026,10.681z"/>
	<path fill="#82FFFF" d="M25.953,10.723c-0.005,0.013-0.016,0.017-0.029,0.016C25.931,10.728,25.941,10.723,25.953,10.723z"/>
	<path fill="#82FFFF" d="M25.925,10.739c-0.006,0.012-0.016,0.015-0.029,0.015C25.902,10.743,25.912,10.739,25.925,10.739z"/>
	<path fill="#19FFFF" d="M29.463,8.686c-0.005,0.003-0.009,0.007-0.014,0.01C29.451,8.689,29.455,8.685,29.463,8.686z"/>
	<path fill="#19FFFF" d="M29.448,8.696c-0.005,0.008-0.013,0.012-0.023,0.013C29.431,8.7,29.439,8.696,29.448,8.696z"/>
	<path fill="#19FFFF" d="M29.42,8.711c-0.007,0.004-0.013,0.008-0.02,0.012C29.404,8.715,29.41,8.711,29.42,8.711z"/>
	<path fill="#19FFFF" d="M29.39,8.728c-0.005,0.004-0.011,0.007-0.016,0.011C29.377,8.731,29.382,8.727,29.39,8.728z"/>
	<path fill="#19FFFF" d="M29.361,8.745c-0.004,0.003-0.009,0.006-0.013,0.01C29.35,8.748,29.354,8.744,29.361,8.745z"/>
	<path fill="#19FFFF" d="M29.347,8.755c-0.005,0.008-0.013,0.011-0.022,0.012C29.33,8.758,29.338,8.754,29.347,8.755z"/>
	<path fill="#19FFFF" d="M29.318,8.77c-0.006,0.004-0.012,0.008-0.018,0.011C29.303,8.774,29.309,8.77,29.318,8.77z"/>
	<path fill="#19FFFF" d="M29.288,8.787c-0.005,0.003-0.01,0.007-0.015,0.01C29.276,8.79,29.28,8.786,29.288,8.787z"/>
	<path fill="#19FFFF" d="M29.274,8.797c-0.005,0.008-0.012,0.012-0.022,0.013C29.257,8.801,29.264,8.797,29.274,8.797z"/>
	<path fill="#19FFFF" d="M29.245,8.813c-0.005,0.007-0.012,0.011-0.02,0.011C29.229,8.816,29.236,8.813,29.245,8.813z"/>
	<path fill="#19FFFF" d="M29.216,8.829c-0.006,0.004-0.011,0.007-0.017,0.011C29.202,8.832,29.208,8.828,29.216,8.829z"/>
	<path fill="#40FFFF" d="M28.318,9.351c-0.006,0.004-0.011,0.007-0.017,0.011C28.304,9.354,28.309,9.35,28.318,9.351z"/>
	<path fill="#40FFFF" d="M28.245,9.393c-0.004,0.007-0.011,0.011-0.02,0.012C28.23,9.396,28.236,9.392,28.245,9.393z"/>
	<path fill="#40FFFF" d="M28.216,9.409C28.211,9.413,28.205,9.416,28.2,9.42C28.203,9.413,28.208,9.408,28.216,9.409z"/>
	<path fill="#40FFFF" d="M28.172,9.435c-0.005,0.008-0.012,0.013-0.022,0.013C28.155,9.439,28.162,9.435,28.172,9.435z"/>
	<path fill="#40FFFF" d="M28.144,9.451c-0.006,0.004-0.012,0.008-0.018,0.012C28.129,9.455,28.135,9.451,28.144,9.451z"/>
	<path fill="#40FFFF" d="M28.114,9.468c-0.005,0.003-0.01,0.007-0.016,0.01C28.102,9.471,28.106,9.467,28.114,9.468z"/>
	<path fill="#40FFFF" d="M28.071,9.493c-0.005,0.008-0.011,0.012-0.02,0.012C28.055,9.497,28.062,9.493,28.071,9.493z"/>
	<path fill="#40FFFF" d="M28.042,9.51c-0.005,0.004-0.011,0.007-0.016,0.011C28.028,9.513,28.034,9.509,28.042,9.51z"/>
	<path fill="#82FFFF" d="M26.273,10.536c-0.005,0.009-0.012,0.013-0.022,0.013C26.255,10.541,26.263,10.536,26.273,10.536z"/>
	<path fill="#82FFFF" d="M26.245,10.553c-0.006,0.004-0.012,0.008-0.017,0.012C26.23,10.555,26.236,10.552,26.245,10.553z"/>
	<path fill="#82FFFF" d="M26.171,10.595c-0.004,0.008-0.011,0.012-0.021,0.013C26.155,10.599,26.162,10.595,26.171,10.595z"/>
	<path fill="#82FFFF" d="M26.143,10.611c-0.005,0.004-0.011,0.008-0.016,0.011C26.129,10.614,26.135,10.611,26.143,10.611z"/>
	<path fill="#82FFFF" d="M26.07,10.653c-0.004,0.007-0.009,0.011-0.017,0.012C26.055,10.656,26.062,10.653,26.07,10.653z"/>
	<path fill="#82FFFF" d="M25.997,10.696c-0.005,0.009-0.012,0.013-0.022,0.013C25.98,10.7,25.987,10.696,25.997,10.696z"/>
	<path fill="#82FFFF" d="M25.969,10.712c-0.006,0.004-0.011,0.008-0.017,0.012C25.954,10.715,25.961,10.712,25.969,10.712z"/>
	<path fill="#BFFFFF" d="M1.795,0.753c0.019-0.002,0.038-0.004,0.057-0.004c0.498,0,0.997,0,1.495,0
		c0.019,0,0.038,0.003,0.057,0.004c0.142,0.046,0.142,0.046,0.142,0.201c0,0.759,0,1.519,0,2.278c0,0.045,0.006,0.092-0.019,0.134
		C3.458,3.417,3.38,3.456,3.306,3.5C3.069,3.638,2.83,3.775,2.593,3.913C2.389,4.031,2.185,4.15,1.981,4.269
		c-0.006,0.003-0.013,0.004-0.02,0.006c-0.039-0.037-0.026-0.086-0.026-0.13C1.934,3.228,1.934,2.31,1.934,1.393
		c0-0.157-0.002-0.314,0.001-0.471C1.936,0.856,1.918,0.81,1.847,0.795C1.824,0.791,1.798,0.784,1.795,0.753z"/>
	<path fill="#F6FFFF" d="M1.795,0.753c0.022,0.024,0.055,0.014,0.08,0.028c0.01,0.006,0.024,0.004,0.035,0.008
		c0.03,0.01,0.05,0.028,0.047,0.064c-0.001,0.019,0,0.039,0,0.058c0,1.09,0,2.181,0,3.271c0,0.031,0.002,0.063,0.003,0.094
		C1.874,4.327,1.788,4.38,1.7,4.431C1.513,4.54,1.325,4.649,1.137,4.757C1.112,4.771,1.089,4.79,1.06,4.796
		c-0.022-0.028-0.01-0.06-0.01-0.089C1.049,3.423,1.05,2.138,1.05,0.854c0-0.024,0-0.048,0-0.072
		C1.051,0.755,1.056,0.75,1.085,0.749c0.01,0,0.019,0,0.029,0c0.21,0,0.42,0,0.63,0C1.761,0.749,1.778,0.751,1.795,0.753z"/>
	<path fill="#92FFFF" d="M3.528,3.366C3.526,3.335,3.524,3.304,3.524,3.272c0-0.786,0-1.571,0-2.357c0-0.019-0.002-0.039,0-0.058
		C3.528,0.819,3.507,0.8,3.474,0.788C3.461,0.783,3.446,0.779,3.434,0.773C3.423,0.768,3.414,0.759,3.405,0.752
		c0.019-0.002,0.038-0.005,0.057-0.005c0.409,0,0.818,0,1.227,0c0.017,0,0.033,0.003,0.05,0.004c0.103,0.038,0.112,0.05,0.112,0.163
		c0.001,0.53,0,1.061,0,1.591c0,0.036,0.002,0.073-0.02,0.105L4.83,2.612C4.824,2.614,4.82,2.617,4.815,2.621
		C4.811,2.622,4.806,2.624,4.802,2.626C4.796,2.628,4.79,2.631,4.786,2.636L4.782,2.638C4.78,2.643,4.777,2.646,4.773,2.646
		C4.767,2.649,4.762,2.651,4.756,2.654C4.752,2.657,4.747,2.66,4.743,2.663C4.738,2.665,4.734,2.668,4.729,2.67
		C4.723,2.671,4.718,2.674,4.714,2.679C4.623,2.733,4.533,2.788,4.441,2.841C4.2,2.982,3.959,3.122,3.717,3.261
		C3.654,3.297,3.595,3.338,3.528,3.366z"/>
	<path fill="#6BFFFF" d="M4.831,2.611C4.83,2.579,4.828,2.548,4.828,2.517c0-0.533,0-1.065,0-1.598c0-0.01-0.001-0.019,0-0.029
		c0.008-0.057-0.01-0.099-0.067-0.12C4.753,0.767,4.746,0.758,4.739,0.752C4.758,0.75,4.777,0.747,4.796,0.747c0.45,0,0.9,0,1.35,0
		c0.019,0,0.038,0.003,0.057,0.004C6.268,0.779,6.287,0.83,6.287,0.897c-0.001,0.265,0,0.529-0.001,0.794
		c0,0.032-0.003,0.063-0.022,0.09c-0.103,0.061-0.206,0.123-0.31,0.183C5.652,2.14,5.348,2.316,5.044,2.491
		C4.974,2.532,4.906,2.577,4.831,2.611z"/>
	<path fill="#36FFFF" d="M6.265,1.78c0-0.285-0.001-0.569-0.001-0.854c0-0.01,0-0.019,0-0.029C6.263,0.819,6.273,0.826,6.216,0.77
		C6.211,0.765,6.208,0.758,6.204,0.752c0.023-0.008,0.048-0.005,0.072-0.005c0.56,0,1.119,0,1.679,0
		c0.023,0,0.046-0.005,0.072,0.007C8.008,0.778,7.985,0.786,7.965,0.798C7.624,0.996,7.282,1.194,6.941,1.392
		c-0.217,0.126-0.433,0.251-0.65,0.376C6.282,1.773,6.273,1.776,6.265,1.78z"/>
	<path fill="#6BFFFF" d="M4.815,2.621c0.003-0.007,0.007-0.01,0.015-0.009C4.828,2.619,4.823,2.622,4.815,2.621z"/>
	<path fill="#6BFFFF" d="M4.786,2.636c0.003-0.007,0.008-0.011,0.016-0.01C4.8,2.635,4.794,2.637,4.786,2.636z"/>
	<path fill="#6BFFFF" d="M4.743,2.663C4.747,2.66,4.752,2.657,4.756,2.654C4.755,2.661,4.751,2.664,4.743,2.663z"/>
	<path fill="#6BFFFF" d="M4.714,2.679c0.003-0.007,0.008-0.01,0.015-0.009C4.727,2.678,4.722,2.68,4.714,2.679z"/>
	<path fill="#6BFFFF" d="M4.773,2.646c0.002-0.004,0.005-0.007,0.009-0.008C4.781,2.644,4.778,2.647,4.773,2.646z"/>
	<path fill="#CCFFFF" d="M1.537,8.432c0.057,0.021,0.106,0.056,0.158,0.086c0.3,0.173,0.599,0.348,0.899,0.522
		c0.064,0.037,0.131,0.07,0.191,0.114c0.005,0.014,0.02,0.012,0.03,0.019l-0.001,0C2.82,9.183,2.834,9.18,2.842,9.188l0,0
		C2.878,9.215,2.89,9.253,2.893,9.295c0.001,0.022,0.002,0.043,0.002,0.065c0,0.874,0,1.748,0,2.621c0,0.04,0.008,0.083-0.021,0.118
		c-0.017,0.001-0.033,0.003-0.05,0.003c-0.401,0-0.803,0.001-1.204,0.001c-0.017,0-0.033-0.002-0.05-0.003
		c-0.036-0.038-0.025-0.086-0.025-0.131c-0.001-0.857,0-1.713,0-2.57c0-0.261-0.002-0.521,0.001-0.782
		C1.544,8.555,1.521,8.494,1.537,8.432z"/>
	<path fill="#A3FFFF" d="M2.873,12.1c-0.001-0.031-0.002-0.063-0.002-0.094c0-0.888,0-1.776,0-2.664
		c0-0.054-0.006-0.105-0.029-0.154C2.905,9.213,2.96,9.252,3.018,9.285c0.267,0.153,0.532,0.309,0.799,0.463
		C3.898,9.795,3.979,9.841,4.06,9.889c0.029,0.017,0.057,0.036,0.085,0.054C4.19,9.986,4.2,10.041,4.2,10.101
		c-0.001,0.632,0,1.263-0.001,1.895c0,0.036,0.005,0.073-0.021,0.104c-0.017,0.001-0.033,0.003-0.05,0.003c-0.401,0-0.803,0-1.204,0
		C2.906,12.103,2.89,12.101,2.873,12.1z"/>
	<path fill="#F6FFFF" d="M1.537,8.432c0.023,0.049,0.03,0.1,0.03,0.154c-0.001,1.14-0.001,2.281-0.001,3.421
		c0,0.031,0.001,0.063,0.002,0.094c-0.019,0.001-0.038,0.003-0.058,0.003c-0.188,0-0.377,0.001-0.565,0
		c-0.021,0-0.043,0.005-0.068-0.01c0-0.021,0-0.045,0-0.069c0-1.297,0-2.593,0-3.89c0-0.022,0-0.043,0.002-0.065
		C0.88,8.059,0.891,8.055,0.9,8.06c0.042,0.023,0.084,0.047,0.126,0.071C1.189,8.225,1.352,8.32,1.514,8.414
		C1.522,8.419,1.529,8.426,1.537,8.432z"/>
	<path fill="#79FFFF" d="M4.177,12.1c-0.001-0.029-0.002-0.058-0.002-0.087c0-0.639,0-1.279,0-1.918
		c0-0.043,0.005-0.087-0.026-0.124C4.145,9.965,4.146,9.952,4.145,9.943c0.047,0.014,0.085,0.044,0.126,0.068
		c0.408,0.235,0.815,0.472,1.223,0.708c0.006,0.004,0.011,0.009,0.017,0.013c0.04,0.043,0.052,0.095,0.052,0.153
		c-0.001,0.373,0,0.746-0.001,1.119c0,0.033,0.003,0.068-0.022,0.096c-0.017,0.001-0.034,0.003-0.05,0.003c-0.421,0-0.841,0-1.262,0
		C4.211,12.103,4.194,12.101,4.177,12.1z"/>
	<path fill="#4CFFFF" d="M5.54,12.1c0-0.128-0.001-0.255-0.001-0.383c0-0.277,0-0.554,0-0.831c0-0.044,0-0.087-0.024-0.126
		c-0.005-0.007-0.003-0.019-0.005-0.028c0.096,0.055,0.193,0.109,0.289,0.164c0.311,0.179,0.621,0.359,0.931,0.539
		c0.029,0.017,0.057,0.036,0.085,0.054c0.034,0.035,0.048,0.077,0.05,0.124c0.003,0.14,0.002,0.279,0.001,0.419
		c0,0.024-0.003,0.048-0.021,0.067c-0.017,0.001-0.034,0.003-0.051,0.003c-0.401,0-0.802,0-1.203,0
		C5.574,12.103,5.557,12.101,5.54,12.1z"/>
	<path fill="#25FFFF" d="M6.844,12.1c0-0.145-0.001-0.289,0-0.434c0-0.051-0.003-0.101-0.023-0.148
		c-0.004-0.009-0.004-0.019-0.005-0.028c0.079,0.036,0.151,0.084,0.226,0.127c0.24,0.138,0.479,0.277,0.718,0.416
		c0.033,0.019,0.065,0.039,0.098,0.058c-0.003,0.017-0.015,0.012-0.023,0.012c-0.323,0-0.646,0-0.969,0
		C6.859,12.102,6.851,12.101,6.844,12.1z"/>
	<path fill="#A3FFFF" d="M2.814,9.173C2.799,9.174,2.788,9.17,2.785,9.154C2.796,9.157,2.809,9.16,2.814,9.173z"/>
	<path fill="#A3FFFF" d="M2.842,9.188C2.829,9.189,2.819,9.186,2.813,9.172C2.826,9.172,2.837,9.175,2.842,9.188z"/>
	<path fill="#32FFFF" d="M28.259,0.683c0.019-0.001,0.038-0.003,0.058-0.003c0.566,0,1.132,0,1.698,0
		c0.019,0,0.038,0.002,0.058,0.003c0.096,0.03,0.11,0.046,0.11,0.149c0.001,1.127,0.001,2.254,0,3.38
		c0,0.04,0.007,0.084-0.038,0.109c-0.063-0.025-0.118-0.064-0.177-0.098c-0.345-0.199-0.689-0.398-1.033-0.598
		c-0.048-0.028-0.099-0.05-0.141-0.087c0.008-0.075,0.008-0.149,0.008-0.224c0-0.797,0-1.594,0-2.39c0-0.024,0-0.048,0-0.072
		c-0.001-0.11-0.02-0.13-0.132-0.132c-0.109-0.002-0.217,0.001-0.326-0.002C28.313,0.717,28.273,0.727,28.259,0.683z"/>
	<path fill="#5FFFFF" d="M28.259,0.683c0.018,0.018,0.04,0.013,0.062,0.013c0.123,0.001,0.246,0.001,0.369,0
		c0.032,0,0.062,0.006,0.091,0.017c0.027,0.01,0.043,0.03,0.043,0.06c0,0.012,0,0.024,0,0.036c0,0.88,0,1.76,0,2.64
		c0,0.014,0,0.029,0,0.043c0,0.022-0.013,0.036-0.031,0.045c-0.005-0.002-0.009-0.004-0.014-0.007
		c-0.005-0.002-0.009-0.005-0.013-0.009c-0.005-0.002-0.011-0.004-0.016-0.006c-0.005-0.002-0.009-0.005-0.012-0.009
		c-0.014,0-0.023-0.009-0.032-0.018c-0.005-0.004-0.009-0.007-0.014-0.01c-0.005-0.002-0.01-0.005-0.015-0.007
		c-0.005-0.002-0.009-0.005-0.012-0.008c-0.006-0.002-0.011-0.005-0.017-0.007c-0.005,0-0.008-0.003-0.01-0.008
		c-0.014-0.001-0.024-0.01-0.034-0.019c-0.004-0.003-0.009-0.006-0.013-0.009c-0.047-0.014-0.085-0.044-0.126-0.068
		c-0.304-0.175-0.608-0.352-0.912-0.529c-0.037-0.022-0.078-0.037-0.109-0.068c-0.007-0.028-0.007-0.057-0.007-0.086
		c0.001-0.61,0-1.22,0-1.83c0-0.121,0-0.122-0.119-0.122c-0.294,0-0.589,0.001-0.883-0.001c-0.037,0-0.084,0.015-0.107-0.035
		c0.019-0.001,0.038-0.003,0.058-0.003c0.604,0,1.209,0,1.813,0C28.221,0.68,28.24,0.682,28.259,0.683z"/>
	<path fill="#0AFDFD" d="M30.144,4.321c0.009-0.02,0.017-0.04,0.015-0.062c-0.001-0.019,0-0.039,0-0.058c0-1.117,0-2.234,0-3.351
		c0-0.11,0-0.11-0.087-0.167c0.017-0.001,0.034-0.003,0.05-0.003c0.222,0,0.445,0,0.667,0c0.014,0,0.029,0,0.043,0.001
		c0.014,0,0.022,0.007,0.023,0.021c0,0.019,0.001,0.039,0.001,0.058c0,1.299,0,2.599,0,3.898c0,0.023-0.001,0.047-0.002,0.075
		c-0.038-0.011-0.064-0.033-0.093-0.049c-0.201-0.115-0.401-0.232-0.601-0.348C30.153,4.332,30.149,4.326,30.144,4.321z"/>
	<path fill="#89FFFF" d="M26.33,0.683c0.009,0.009,0.02,0.012,0.033,0.012c0.019,0,0.039,0,0.058,0c0.319,0,0.637,0.001,0.956,0.001
		c0.087,0,0.084-0.004,0.084,0.082c0,0.632,0,1.265,0,1.897c0,0.028,0.01,0.059-0.016,0.082c-0.011-0.004-0.023-0.007-0.033-0.013
		c-0.268-0.155-0.536-0.311-0.804-0.466c-0.104-0.06-0.208-0.12-0.312-0.18c-0.01-0.006-0.019-0.014-0.028-0.021
		c0.008-0.043,0.01-0.086,0.01-0.129c0-0.373,0-0.747,0-1.12c0-0.106-0.002-0.107-0.11-0.108c-0.299-0.001-0.598,0.002-0.897-0.002
		c-0.349,0.004-0.698,0.002-1.046,0.001c-0.031,0-0.07,0.009-0.085-0.035c0.019-0.001,0.038-0.003,0.058-0.003
		c0.692,0,1.383,0,2.075,0C26.292,0.68,26.311,0.682,26.33,0.683z"/>
	<path fill="#AAFFFF" d="M25.272,0.696c0.32,0,0.641,0,0.961,0c0.014,0,0.029,0,0.043,0.002c0.013,0.001,0.022,0.01,0.023,0.023
		c0.002,0.017,0.002,0.034,0.002,0.05c0,0.409,0,0.819,0,1.228c0,0.014,0,0.029-0.001,0.043c-0.001,0.021-0.016,0.028-0.033,0.033
		c-0.005,0.001-0.009-0.001-0.012-0.006c-0.004-0.004-0.009-0.007-0.014-0.009c-0.005-0.002-0.01-0.005-0.015-0.007
		c-0.004-0.002-0.008-0.004-0.011-0.008l-0.004-0.002c-0.006-0.008-0.017-0.007-0.024-0.013l-0.004-0.002
		c-0.004-0.005-0.01-0.008-0.016-0.01c-0.004-0.002-0.009-0.005-0.013-0.007c-0.004-0.003-0.008-0.006-0.013-0.009
		C26.136,2,26.131,1.997,26.125,1.994c-0.004-0.001-0.007-0.003-0.009-0.007c-0.007-0.003-0.014-0.006-0.021-0.009
		c-0.002-0.002-0.005-0.004-0.007-0.005l-0.004,0.001l-0.002-0.004c-0.004-0.005-0.009-0.008-0.015-0.009
		c-0.005-0.002-0.01-0.005-0.015-0.007c-0.004-0.003-0.008-0.005-0.012-0.008c-0.006-0.003-0.012-0.006-0.018-0.009
		c-0.002-0.002-0.005-0.004-0.007-0.006c-0.015,0-0.026-0.008-0.035-0.018c-0.004-0.004-0.008-0.007-0.013-0.009
		c-0.005-0.003-0.011-0.005-0.016-0.008c-0.004-0.002-0.007-0.004-0.01-0.008c-0.007-0.004-0.014-0.008-0.021-0.012l-0.005-0.003
		c-0.043-0.012-0.077-0.04-0.114-0.061c-0.164-0.093-0.326-0.188-0.488-0.283c-0.014-0.008-0.027-0.019-0.041-0.029
		c-0.022-0.031-0.023-0.067-0.023-0.103c0-0.199,0-0.398,0-0.597C25.249,0.763,25.246,0.726,25.272,0.696z"/>
	<path fill="#CBFFFF" d="M25.272,0.696c0,0.267,0,0.535,0,0.802c-0.052-0.019-0.098-0.052-0.145-0.08
		c-0.409-0.235-0.816-0.472-1.224-0.709c-0.01-0.006-0.018-0.012-0.025-0.017c0.001-0.011,0.005-0.013,0.011-0.013
		c0.084,0.001,0.169,0.001,0.253,0.002c0.021,0.018,0.046,0.012,0.069,0.012c0.173,0.001,0.347,0.001,0.52,0.001
		C24.911,0.695,25.091,0.696,25.272,0.696z"/>
	<path fill="#89FFFF" d="M26.189,2.03c0.011-0.001,0.02,0.002,0.024,0.013C26.202,2.044,26.193,2.04,26.189,2.03z"/>
	<polygon fill="#89FFFF" points="25.915,1.871 25.92,1.875 25.916,1.875 	"/>
	<path fill="#89FFFF" d="M25.941,1.886c0.005,0,0.008,0.003,0.01,0.008C25.945,1.895,25.942,1.892,25.941,1.886z"/>
	<path fill="#89FFFF" d="M25.967,1.902c0.007-0.001,0.011,0.002,0.013,0.009C25.973,1.912,25.969,1.909,25.967,1.902z"/>
	<polygon fill="#89FFFF" points="26.016,1.929 26.023,1.935 26.018,1.934 	"/>
	<path fill="#89FFFF" d="M26.041,1.944c0.004,0.003,0.008,0.006,0.012,0.008C26.046,1.954,26.042,1.951,26.041,1.944z"/>
	<path fill="#89FFFF" d="M26.068,1.96c0.007-0.001,0.012,0.003,0.015,0.009C26.075,1.971,26.069,1.968,26.068,1.96z"/>
	<polygon fill="#89FFFF" points="26.088,1.972 26.095,1.978 26.09,1.977 	"/>
	<path fill="#89FFFF" d="M26.116,1.987c0.005,0,0.008,0.003,0.009,0.007C26.12,1.995,26.117,1.993,26.116,1.987z"/>
	<path fill="#89FFFF" d="M26.142,2.002c0.004,0.003,0.009,0.006,0.013,0.009C26.147,2.013,26.143,2.01,26.142,2.002z"/>
	<path fill="#89FFFF" d="M26.168,2.018c0.008-0.001,0.013,0.002,0.016,0.01C26.176,2.029,26.17,2.027,26.168,2.018z"/>
	<path fill="#89FFFF" d="M26.216,2.045c0.004,0.003,0.007,0.005,0.011,0.008C26.221,2.055,26.217,2.052,26.216,2.045z"/>
	<path fill="#89FFFF" d="M26.242,2.061c0.007,0,0.012,0.003,0.014,0.009C26.249,2.071,26.244,2.068,26.242,2.061z"/>
	<path fill="#32FFFF" d="M28.593,3.422c0.004,0.003,0.009,0.006,0.013,0.009C28.598,3.432,28.594,3.429,28.593,3.422z"/>
	<path fill="#32FFFF" d="M28.639,3.45c0.004,0.001,0.008,0.004,0.01,0.008C28.643,3.458,28.64,3.455,28.639,3.45z"/>
	<path fill="#32FFFF" d="M28.666,3.465c0.004,0.003,0.008,0.005,0.012,0.008C28.671,3.474,28.667,3.471,28.666,3.465z"/>
	<path fill="#32FFFF" d="M28.693,3.48c0.005,0.003,0.01,0.006,0.014,0.01C28.7,3.491,28.695,3.488,28.693,3.48z"/>
	<path fill="#32FFFF" d="M28.739,3.508c0.004,0.003,0.008,0.006,0.012,0.009C28.744,3.518,28.74,3.514,28.739,3.508z"/>
	<path fill="#32FFFF" d="M28.766,3.523c0.004,0.003,0.009,0.006,0.013,0.009C28.772,3.533,28.768,3.529,28.766,3.523z"/>
	<path d="M14.353,7.696c-0.014-0.003-0.028-0.008-0.042-0.01c-0.121-0.016-0.222-0.071-0.307-0.158
		c-0.008-0.008-0.017-0.016-0.026-0.024c-0.027-0.048-0.065-0.089-0.088-0.14c-0.038-0.086-0.073-0.172-0.091-0.265
		c-0.023-0.118-0.037-0.237-0.038-0.358c0-0.035,0.001-0.037,0.033-0.045c0.082-0.02,0.164-0.039,0.246-0.057
		c0.033-0.007,0.066-0.012,0.099-0.018c0.074-0.006,0.149-0.013,0.223-0.018c0.082-0.005,0.164,0.001,0.245,0.017
		c0.067,0.014,0.126,0.045,0.186,0.076c0.001,0.005,0.004,0.007,0.009,0.008c0.005,0.003,0.009,0.006,0.014,0.009
		c0.004,0.006,0.008,0.012,0.013,0.017c0.099,0.092,0.138,0.21,0.148,0.341c0.006,0.091,0.002,0.182-0.024,0.271
		c-0.002,0.007-0.001,0.014-0.002,0.021c-0.004,0.002-0.005,0.006-0.003,0.01c-0.006,0.011-0.005,0.024-0.013,0.033l0,0
		c-0.009,0.008-0.006,0.021-0.014,0.029l-0.004,0.002l0.001,0.004c0,0.01-0.006,0.016-0.013,0.022l0,0
		c-0.005,0.004-0.009,0.009-0.012,0.015l-0.002,0.002c-0.012,0.004-0.007,0.02-0.018,0.025l0.001-0.002
		c-0.003,0.007-0.008,0.012-0.014,0.017l0,0c-0.005,0.005-0.01,0.009-0.014,0.015l0,0c-0.005,0.004-0.01,0.009-0.014,0.014
		l-0.001,0.001c-0.006,0.004-0.01,0.008-0.014,0.014l0,0c-0.006,0.004-0.011,0.009-0.016,0.014c-0.035,0.019-0.07,0.041-0.106,0.058
		c-0.086,0.04-0.178,0.052-0.272,0.056C14.401,7.694,14.377,7.695,14.353,7.696z"/>
	<path fill="#3AFFFF" d="M14.801,6.704c-0.006,0.001-0.009-0.002-0.009-0.008C14.797,6.697,14.8,6.7,14.801,6.704z"/>
	<path fill="#3AFFFF" d="M14.934,7.406c-0.001-0.013,0.002-0.025,0.013-0.033C14.949,7.386,14.948,7.398,14.934,7.406z"/>
	<path fill="#3AFFFF" d="M14.921,7.435c-0.001-0.012,0.004-0.022,0.014-0.029C14.935,7.418,14.932,7.428,14.921,7.435z"/>
	<path fill="#3AFFFF" d="M14.874,7.506c0.001-0.012,0.007-0.02,0.018-0.025C14.891,7.493,14.886,7.503,14.874,7.506z"/>
	<path fill="#3AFFFF" d="M14.905,7.464c0-0.01,0.004-0.017,0.013-0.022C14.918,7.451,14.914,7.459,14.905,7.464z"/>
	<path fill="#3AFFFF" d="M14.894,7.479c0-0.008,0.004-0.013,0.012-0.015C14.902,7.469,14.898,7.474,14.894,7.479z"/>
	<path fill="#3AFFFF" d="M14.861,7.522c0.001-0.009,0.005-0.015,0.014-0.017C14.874,7.513,14.869,7.519,14.861,7.522z"/>
	<path fill="#3AFFFF" d="M14.848,7.537c0.001-0.008,0.005-0.013,0.014-0.015C14.857,7.526,14.853,7.532,14.848,7.537z"/>
	<path fill="#3AFFFF" d="M14.834,7.551c0.001-0.008,0.006-0.013,0.014-0.014C14.843,7.542,14.839,7.547,14.834,7.551z"/>
	<path fill="#3AFFFF" d="M14.819,7.566c0.001-0.008,0.006-0.013,0.014-0.014C14.829,7.557,14.824,7.561,14.819,7.566z"/>
	<path fill="#3AFFFF" d="M14.803,7.58c0.003-0.008,0.008-0.013,0.016-0.014C14.813,7.571,14.808,7.575,14.803,7.58z"/>
</g>
</svg>
