<?xml version="1.0" encoding="utf-8"?>
<!-- Generator: Adobe Illustrator 24.3.0, SVG Export Plug-In . SVG Version: 6.00 Build 0)  -->
<svg version="1.1" id="Слой_1" xmlns="http://www.w3.org/2000/svg" xmlns:xlink="http://www.w3.org/1999/xlink" x="0px" y="0px"
	 width="32px" height="13px" viewBox="0 0 32 13" enable-background="new 0 0 32 13" xml:space="preserve">
<g>
	<path d="M16.064,11.856c-1.102,0-2.203,0-3.305,0c-0.026,0-0.056,0.007-0.076-0.005c-0.022-0.013-0.035-0.041-0.049-0.065
		c-0.08-0.135-0.158-0.27-0.237-0.404c-0.11-0.186-0.219-0.373-0.329-0.559c-0.087-0.147-0.175-0.295-0.261-0.442
		c-0.112-0.19-0.224-0.38-0.336-0.57c-0.087-0.147-0.175-0.295-0.262-0.442c-0.112-0.19-0.224-0.38-0.336-0.57
		c-0.096-0.162-0.192-0.324-0.287-0.487c-0.103-0.175-0.206-0.35-0.31-0.526C10.18,7.624,10.083,7.46,9.986,7.296
		c-0.102-0.173-0.204-0.347-0.306-0.52C9.581,6.61,9.484,6.444,9.385,6.278c-0.026-0.044-0.052-0.089-0.08-0.132
		C9.292,6.125,9.294,6.108,9.307,6.088c0.066-0.11,0.131-0.221,0.196-0.332C9.511,5.741,9.522,5.727,9.53,5.712
		C9.614,5.57,9.696,5.428,9.78,5.286c0.103-0.175,0.207-0.35,0.31-0.525c0.096-0.162,0.192-0.324,0.287-0.486
		c0.103-0.175,0.207-0.35,0.31-0.525c0.098-0.166,0.196-0.332,0.294-0.498c0.101-0.171,0.202-0.343,0.303-0.514
		c0.099-0.168,0.198-0.335,0.297-0.503c0.1-0.17,0.2-0.339,0.3-0.509c0.1-0.17,0.2-0.339,0.3-0.509
		c0.098-0.166,0.196-0.332,0.294-0.498c0.057-0.096,0.112-0.192,0.17-0.287c0.032-0.053,0.034-0.053,0.096-0.053
		c2.214,0,4.428,0,6.642,0c0.079,0,0.061-0.009,0.1,0.056c0.109,0.184,0.217,0.369,0.326,0.553c0.098,0.166,0.196,0.332,0.294,0.498
		c0.101,0.171,0.202,0.343,0.304,0.514c0.098,0.166,0.196,0.332,0.294,0.498c0.101,0.171,0.202,0.343,0.303,0.514
		c0.099,0.168,0.198,0.336,0.297,0.503c0.1,0.17,0.2,0.339,0.3,0.509c0.098,0.166,0.196,0.332,0.294,0.498
		c0.102,0.173,0.204,0.347,0.307,0.52c0.099,0.168,0.198,0.336,0.297,0.503c0.109,0.184,0.219,0.368,0.329,0.552
		c0.01,0.017,0.009,0.031-0.001,0.047c-0.095,0.16-0.19,0.321-0.284,0.481c-0.101,0.171-0.202,0.343-0.304,0.514
		c-0.098,0.166-0.196,0.332-0.294,0.498c-0.101,0.171-0.202,0.343-0.303,0.514c-0.098,0.166-0.196,0.332-0.294,0.498
		c-0.101,0.171-0.203,0.343-0.304,0.514c-0.098,0.166-0.196,0.332-0.294,0.498c-0.102,0.173-0.204,0.347-0.307,0.52
		c-0.097,0.164-0.194,0.328-0.291,0.492c-0.102,0.173-0.204,0.347-0.307,0.52c-0.098,0.166-0.196,0.332-0.294,0.498
		c-0.028,0.048-0.058,0.095-0.085,0.143c-0.009,0.017-0.02,0.026-0.04,0.025c-0.017-0.001-0.034,0-0.051,0
		C18.272,11.856,17.168,11.856,16.064,11.856z"/>
	<path d="M4.602,0.525c0.031,0,0.052,0,0.073,0c0.864,0,1.727,0,2.591,0c0.027,0,0.055-0.002,0.082,0.01
		c0.016,0.007,0.038,0.003,0.057,0.003c0.461,0,0.922,0,1.382,0c0.778,0,1.556,0,2.334,0c0.024,0,0.047,0,0.071,0
		c0.008,0.02-0.004,0.034-0.011,0.048c-0.079,0.166-0.158,0.332-0.236,0.499c-0.075,0.159-0.149,0.318-0.223,0.477
		c-0.098,0.209-0.197,0.418-0.296,0.627c-0.1,0.213-0.201,0.426-0.302,0.638c-0.06,0.126-0.12,0.251-0.18,0.376
		C9.925,3.248,9.912,3.296,9.89,3.34c-0.072,0.15-0.142,0.302-0.213,0.453C9.58,4,9.482,4.208,9.384,4.415
		C9.283,4.629,9.182,4.844,9.08,5.059C8.982,5.268,8.883,5.477,8.784,5.686c-0.061,0.13-0.124,0.259-0.185,0.388
		C8.594,6.085,8.588,6.097,8.583,6.109c-0.005,0.01-0.004,0.021,0.001,0.031C8.589,6.151,8.594,6.163,8.6,6.174
		c0.032,0.068,0.065,0.135,0.097,0.203c0.116,0.246,0.233,0.491,0.349,0.737c0.097,0.205,0.195,0.41,0.292,0.614
		C9.44,7.942,9.542,8.157,9.644,8.371C9.741,8.574,9.837,8.777,9.933,8.98c0.103,0.216,0.206,0.433,0.308,0.649
		c0.097,0.205,0.195,0.409,0.293,0.614c0.102,0.214,0.204,0.429,0.306,0.643c0.096,0.203,0.192,0.406,0.289,0.609
		c0.026,0.054,0.053,0.108,0.078,0.162c0.009,0.018,0.005,0.024-0.013,0.025c-0.019,0.001-0.039,0-0.058,0c-2.15,0-4.299,0-6.449,0
		c-0.086,0-0.084,0.006-0.048-0.071c0.072-0.153,0.144-0.306,0.216-0.459c0.098-0.207,0.196-0.414,0.294-0.621
		c0.102-0.215,0.203-0.429,0.305-0.644C5.552,9.682,5.65,9.475,5.748,9.268C5.85,9.054,5.951,8.839,6.053,8.624
		c0.098-0.207,0.196-0.414,0.294-0.621c0.101-0.213,0.201-0.425,0.302-0.638c0.099-0.209,0.197-0.418,0.296-0.627
		c0.101-0.213,0.202-0.425,0.303-0.638c0.013-0.027,0.026-0.054,0.041-0.08C7.3,6,7.298,5.981,7.288,5.961
		c-0.059-0.116-0.117-0.233-0.176-0.35c-0.005-0.01-0.01-0.019-0.014-0.029C7.013,5.409,6.929,5.236,6.844,5.063
		c-0.103-0.209-0.206-0.418-0.31-0.627C6.495,4.357,6.456,4.279,6.417,4.2C6.306,3.976,6.195,3.751,6.084,3.527
		C5.993,3.341,5.901,3.155,5.809,2.968c-0.107-0.217-0.214-0.434-0.321-0.65C5.39,2.121,5.292,1.923,5.194,1.726
		C5.092,1.519,4.989,1.311,4.887,1.104C4.799,0.926,4.71,0.748,4.622,0.569C4.617,0.558,4.612,0.546,4.602,0.525z"/>
	<path d="M20.925,0.489c2.199,0,4.396,0,6.597,0c-0.017,0.052-0.042,0.097-0.063,0.143c-0.006,0.014-0.015,0.026-0.021,0.04
		c-0.083,0.176-0.165,0.353-0.248,0.529c-0.106,0.225-0.212,0.449-0.319,0.673c-0.094,0.199-0.189,0.398-0.283,0.597
		c-0.104,0.221-0.208,0.441-0.312,0.662c-0.097,0.205-0.195,0.41-0.292,0.615c-0.102,0.215-0.203,0.429-0.305,0.644
		C25.579,4.6,25.48,4.809,25.381,5.018c-0.099,0.209-0.198,0.418-0.297,0.626c-0.075,0.159-0.151,0.317-0.226,0.475
		c-0.005,0.01-0.008,0.02-0.014,0.029c-0.011,0.018-0.01,0.035,0,0.054c0.02,0.038,0.037,0.077,0.056,0.115
		c0.026,0.052,0.052,0.103,0.078,0.155c0.072,0.146,0.143,0.292,0.215,0.438c0.098,0.2,0.197,0.399,0.296,0.599
		c0.1,0.203,0.201,0.407,0.301,0.61c0.099,0.2,0.197,0.399,0.296,0.599c0.101,0.203,0.201,0.407,0.302,0.61
		c0.1,0.201,0.199,0.403,0.299,0.604c0.1,0.201,0.199,0.403,0.299,0.604c0.1,0.201,0.199,0.403,0.299,0.604
		c0.074,0.15,0.149,0.299,0.223,0.448c0.007,0.015,0.021,0.028,0.014,0.048c-0.022,0.01-0.046,0.005-0.069,0.005
		c-0.579,0-1.158,0-1.736,0c-0.084,0-0.167-0.001-0.251,0c-0.036,0-0.073-0.007-0.107,0.013c-0.007,0.004-0.017,0.001-0.025,0.001
		c-0.015,0-0.03,0-0.045,0c-1.423,0-2.847,0-4.27,0c-0.027,0-0.055,0.009-0.08-0.009c0.001-0.027,0.016-0.048,0.027-0.071
		c0.114-0.242,0.228-0.484,0.342-0.726c0.098-0.207,0.195-0.414,0.293-0.621c0.101-0.215,0.203-0.43,0.304-0.644
		c0.096-0.203,0.192-0.406,0.287-0.61c0.01-0.021,0.025-0.04,0.016-0.066c-0.003-0.008,0.005-0.02,0.009-0.029
		c0.018-0.039,0.038-0.077,0.056-0.115c0.076-0.163,0.152-0.326,0.229-0.488c0.098-0.209,0.197-0.418,0.296-0.627
		c0.101-0.215,0.202-0.43,0.304-0.645c0.098-0.207,0.196-0.414,0.294-0.621c0.047-0.099,0.092-0.198,0.141-0.296
		c0.015-0.03,0.015-0.054,0.001-0.084c-0.087-0.181-0.172-0.364-0.258-0.546c-0.035-0.074-0.071-0.147-0.105-0.22
		C23.06,5,22.947,4.762,22.834,4.524c-0.096-0.203-0.193-0.406-0.289-0.609c-0.103-0.216-0.206-0.433-0.309-0.649
		c-0.097-0.203-0.193-0.406-0.29-0.609c-0.102-0.215-0.204-0.429-0.306-0.644c-0.097-0.205-0.195-0.409-0.293-0.614
		c-0.103-0.216-0.205-0.433-0.308-0.65c-0.036-0.075-0.072-0.15-0.108-0.226C20.928,0.514,20.922,0.505,20.925,0.489z"/>
	<path d="M3.313,11.315c-0.008-0.012-0.014-0.02-0.019-0.028c-0.044-0.083-0.088-0.167-0.131-0.25
		c-0.123-0.235-0.245-0.47-0.368-0.706C2.707,10.162,2.618,9.993,2.53,9.824C2.42,9.614,2.31,9.403,2.2,9.193
		C2.102,9.007,2.005,8.822,1.908,8.636C1.805,8.441,1.703,8.245,1.601,8.05C1.504,7.864,1.407,7.678,1.309,7.492
		C1.207,7.297,1.105,7.102,1.003,6.907C0.905,6.721,0.808,6.535,0.71,6.349C0.644,6.222,0.577,6.096,0.51,5.969
		C0.502,5.954,0.495,5.938,0.486,5.923c-0.006-0.01-0.005-0.02,0-0.03C0.499,5.871,0.51,5.848,0.522,5.825
		C0.613,5.657,0.704,5.49,0.794,5.322C0.903,5.121,1.011,4.919,1.12,4.717C1.216,4.539,1.313,4.36,1.41,4.181
		C1.512,3.991,1.615,3.8,1.717,3.61C1.815,3.429,1.912,3.248,2.01,3.068c0.102-0.188,0.203-0.377,0.305-0.565
		C2.413,2.322,2.51,2.141,2.608,1.961C2.71,1.772,2.811,1.584,2.913,1.395C3.011,1.213,3.109,1.03,3.208,0.847
		C3.238,0.793,3.268,0.74,3.3,0.684C3.307,0.694,3.313,0.7,3.317,0.707c0.036,0.068,0.072,0.136,0.107,0.205
		c0.079,0.152,0.157,0.304,0.236,0.456c0.097,0.188,0.195,0.376,0.293,0.564c0.102,0.196,0.203,0.391,0.305,0.587
		C4.355,2.707,4.453,2.895,4.55,3.083C4.652,3.278,4.753,3.474,4.855,3.67c0.099,0.19,0.197,0.38,0.296,0.57
		c0.1,0.192,0.2,0.384,0.299,0.575C5.552,5.01,5.653,5.206,5.754,5.402C5.856,5.597,5.957,5.793,6.06,5.988
		c0.011,0.022,0.011,0.037,0,0.058C5.969,6.219,5.88,6.392,5.791,6.565C5.691,6.757,5.591,6.948,5.491,7.14
		c-0.1,0.192-0.2,0.383-0.299,0.575c-0.1,0.192-0.2,0.383-0.3,0.575C4.793,8.48,4.694,8.669,4.595,8.859
		C4.495,9.053,4.394,9.246,4.293,9.44c-0.099,0.19-0.198,0.38-0.297,0.569c-0.1,0.192-0.2,0.383-0.3,0.575
		c-0.099,0.19-0.198,0.38-0.297,0.569C3.372,11.207,3.343,11.259,3.313,11.315z"/>
	<path d="M28.819,0.862c0.017,0.003,0.019,0.018,0.024,0.029c0.071,0.137,0.142,0.273,0.213,0.41
		c0.108,0.207,0.216,0.414,0.324,0.62c0.096,0.184,0.193,0.368,0.289,0.551c0.103,0.197,0.206,0.394,0.309,0.592
		c0.095,0.182,0.191,0.364,0.286,0.546c0.104,0.199,0.208,0.398,0.312,0.597c0.093,0.178,0.187,0.356,0.28,0.534
		c0.106,0.203,0.212,0.406,0.318,0.609c0.083,0.159,0.167,0.318,0.251,0.477c0.073,0.138,0.145,0.277,0.218,0.415
		c0.007,0.013,0.007,0.023,0,0.036c-0.096,0.177-0.191,0.354-0.287,0.531c-0.096,0.179-0.193,0.358-0.289,0.537
		c-0.103,0.19-0.205,0.381-0.308,0.571c-0.098,0.181-0.195,0.362-0.293,0.542c-0.102,0.188-0.203,0.377-0.305,0.565
		c-0.098,0.181-0.195,0.362-0.293,0.542c-0.102,0.188-0.203,0.377-0.305,0.565c-0.098,0.181-0.195,0.362-0.293,0.542
		c-0.102,0.188-0.203,0.377-0.305,0.565c-0.038,0.07-0.075,0.139-0.113,0.209c-0.006,0.011-0.009,0.025-0.025,0.032
		c-0.012-0.01-0.017-0.026-0.024-0.04c-0.008-0.015-0.018-0.029-0.026-0.045c-0.084-0.162-0.167-0.323-0.25-0.485
		c-0.104-0.201-0.209-0.403-0.313-0.604c-0.095-0.182-0.189-0.365-0.284-0.547c-0.105-0.201-0.209-0.402-0.314-0.604
		c-0.097-0.186-0.193-0.372-0.29-0.559c-0.103-0.198-0.205-0.395-0.308-0.592c-0.097-0.186-0.194-0.372-0.291-0.558
		c-0.103-0.198-0.205-0.395-0.308-0.593c-0.097-0.186-0.193-0.372-0.29-0.558c-0.02-0.038-0.04-0.076-0.061-0.113
		c-0.011-0.02-0.014-0.038-0.001-0.059c0.02-0.033,0.037-0.067,0.055-0.101c0.085-0.163,0.169-0.327,0.254-0.491
		c0.103-0.199,0.207-0.399,0.311-0.598c0.08-0.154,0.161-0.307,0.241-0.461c0.119-0.228,0.237-0.456,0.355-0.684
		c0.097-0.186,0.194-0.372,0.29-0.558c0.103-0.197,0.205-0.395,0.308-0.592c0.094-0.18,0.188-0.36,0.282-0.541
		c0.106-0.203,0.212-0.406,0.317-0.609c0.096-0.184,0.192-0.368,0.288-0.552C28.787,0.91,28.799,0.883,28.819,0.862z"/>
	<path fill="#666666" d="M18.605,10.256c0.026-0.025,0.04-0.054,0.056-0.082c0.085-0.156,0.17-0.312,0.255-0.468
		c0.099-0.18,0.2-0.359,0.299-0.539c0.098-0.178,0.196-0.356,0.295-0.534c0.102-0.184,0.204-0.367,0.305-0.55
		c0.097-0.176,0.194-0.353,0.292-0.529c0.116-0.21,0.234-0.419,0.35-0.628c0.08-0.144,0.158-0.289,0.238-0.434
		c0.044-0.081,0.088-0.162,0.134-0.241c0.016-0.027,0.016-0.049-0.001-0.076c-0.081-0.139-0.159-0.279-0.239-0.419
		c-0.096-0.169-0.192-0.339-0.289-0.508c-0.066-0.115-0.133-0.23-0.198-0.345c-0.082-0.143-0.163-0.287-0.245-0.43
		c-0.103-0.18-0.206-0.361-0.309-0.541c-0.098-0.173-0.196-0.347-0.295-0.52c-0.067-0.117-0.135-0.233-0.202-0.351
		c-0.082-0.143-0.163-0.287-0.244-0.43c-0.018-0.032-0.036-0.063-0.055-0.094c-0.012-0.02-0.02-0.021-0.041-0.006
		c-0.112,0.082-0.224,0.165-0.337,0.247c-0.095,0.07-0.19,0.14-0.285,0.209c-0.025,0.018-0.026,0.018-0.049,0
		c-0.071-0.058-0.142-0.117-0.213-0.176c-0.084-0.07-0.168-0.14-0.252-0.21c-0.128-0.107-0.256-0.214-0.385-0.321
		c-0.081-0.067-0.162-0.134-0.242-0.201c-0.128-0.107-0.256-0.215-0.384-0.322c-0.112-0.093-0.225-0.185-0.337-0.278
		c-0.031-0.026-0.062-0.053-0.093-0.079c-0.011-0.01-0.022-0.01-0.035,0c-0.012,0.009-0.025,0.017-0.037,0.026
		c-0.163,0.125-0.326,0.251-0.489,0.376c-0.166,0.128-0.332,0.257-0.498,0.385c-0.166,0.128-0.334,0.255-0.5,0.383
		c-0.127,0.098-0.254,0.196-0.381,0.295c-0.056,0.043-0.112,0.086-0.168,0.13c-0.016,0.013-0.03,0.013-0.046,0.003
		c-0.05-0.033-0.1-0.066-0.15-0.099c-0.124-0.081-0.247-0.162-0.371-0.243c-0.059-0.039-0.118-0.077-0.178-0.116
		c-0.037-0.024-0.039-0.024-0.063,0.017c-0.025,0.043-0.048,0.086-0.072,0.129c-0.06,0.106-0.12,0.213-0.18,0.319
		c-0.069,0.121-0.138,0.242-0.207,0.362c-0.003,0.006-0.006,0.011-0.01,0.016c-0.007,0.01-0.016,0.013-0.028,0.007
		c-0.025-0.012-0.05-0.024-0.075-0.037c-0.189-0.096-0.378-0.192-0.567-0.288c-0.053-0.027-0.107-0.054-0.16-0.081
		c-0.027-0.014-0.028-0.019-0.013-0.044c0.044-0.076,0.088-0.152,0.133-0.227c0.046-0.077,0.093-0.154,0.139-0.231
		c0.098-0.163,0.196-0.327,0.294-0.49c0.1-0.167,0.2-0.334,0.3-0.501c0.076-0.127,0.153-0.253,0.228-0.38
		c0.017-0.029,0.037-0.045,0.072-0.041c0.013,0.002,0.026,0,0.039,0c1.901,0,3.802,0,5.704,0c0.09,0,0.089,0,0.135,0.077
		c0.099,0.168,0.199,0.335,0.299,0.502c0.081,0.136,0.161,0.273,0.242,0.409c0.065,0.108,0.131,0.216,0.196,0.324
		c0.034,0.057,0.067,0.115,0.101,0.172c0.088,0.147,0.176,0.294,0.264,0.441c0.064,0.107,0.126,0.214,0.19,0.32
		c0.065,0.108,0.131,0.216,0.196,0.324c0.076,0.127,0.151,0.254,0.226,0.381c0.071,0.119,0.144,0.238,0.215,0.358
		c0.029,0.048,0.056,0.096,0.084,0.144c0.112,0.188,0.224,0.375,0.335,0.563C21.4,5.251,21.5,5.419,21.6,5.586
		c0.092,0.154,0.185,0.308,0.278,0.463c0.004,0.007,0.009,0.015,0.013,0.022c0.009,0.014,0.01,0.027,0.001,0.042
		c-0.034,0.057-0.065,0.116-0.099,0.173c-0.098,0.168-0.196,0.337-0.295,0.505c-0.06,0.101-0.121,0.202-0.181,0.303
		c-0.035,0.059-0.068,0.119-0.102,0.178c-0.072,0.124-0.146,0.247-0.218,0.371c-0.08,0.137-0.159,0.274-0.239,0.411
		c-0.081,0.139-0.163,0.277-0.244,0.416c-0.069,0.118-0.137,0.237-0.207,0.355c-0.065,0.111-0.131,0.221-0.196,0.332
		c-0.038,0.065-0.074,0.13-0.112,0.195c-0.101,0.174-0.203,0.347-0.305,0.521c-0.098,0.168-0.196,0.337-0.294,0.505
		c-0.06,0.102-0.121,0.202-0.181,0.303c-0.04,0.068-0.078,0.138-0.118,0.206c-0.046,0.08-0.093,0.159-0.139,0.239
		c-0.009,0.016-0.021,0.026-0.041,0.026c-0.019,0-0.039,0-0.058,0c-1.951,0-3.901,0-5.852,0c-0.015,0-0.03,0-0.045,0
		c-0.053-0.002-0.08-0.043-0.058-0.093c0.027-0.063,0.057-0.125,0.085-0.187c0.076-0.168,0.151-0.336,0.226-0.504
		c0.026-0.057,0.052-0.113,0.079-0.169c0.006-0.012,0.018-0.014,0.024-0.002c0.015,0.025,0.03,0.051,0.044,0.076
		c0.024-0.005,0.03-0.023,0.039-0.036c0.024-0.038,0.047-0.077,0.07-0.115c0.115-0.191,0.23-0.382,0.345-0.572
		c0.052-0.086,0.104-0.172,0.156-0.258c0.008-0.013,0.017-0.025,0.026-0.037c0.008-0.01,0.017-0.012,0.028-0.005
		c0.009,0.006,0.018,0.012,0.026,0.018c0.12,0.093,0.24,0.186,0.361,0.279c0.109,0.084,0.218,0.166,0.326,0.25
		c0.132,0.102,0.264,0.204,0.397,0.306c0.121,0.093,0.242,0.184,0.363,0.277c0.133,0.102,0.264,0.204,0.397,0.306
		c0.059,0.046,0.118,0.092,0.178,0.137c0.024,0.018,0.026,0.017,0.05-0.002c0.127-0.106,0.253-0.212,0.379-0.317
		c0.117-0.097,0.235-0.193,0.351-0.29c0.125-0.104,0.249-0.21,0.374-0.315c0.082-0.069,0.165-0.136,0.248-0.205
		c0.123-0.103,0.246-0.206,0.369-0.31c0.049-0.041,0.099-0.082,0.148-0.123c0.023-0.019,0.031-0.019,0.045,0.005
		c0.034,0.059,0.067,0.119,0.101,0.179c0.065,0.113,0.13,0.226,0.195,0.34c0.042,0.075,0.083,0.15,0.125,0.225
		c0.04,0.071,0.08,0.142,0.12,0.212C18.591,10.233,18.597,10.243,18.605,10.256z"/>
	<path fill="#FF00D7" d="M11.215,4.204c0.021-0.054,0.055-0.101,0.083-0.151c0.013-0.022,0.027-0.043,0.04-0.066
		c0.079-0.135,0.158-0.27,0.237-0.405c0.087-0.148,0.175-0.295,0.262-0.442c0.003-0.006,0.006-0.011,0.01-0.017
		c0.008-0.013,0.019-0.015,0.033-0.007c0.011,0.006,0.023,0.011,0.035,0.017c0.275,0.139,0.55,0.278,0.825,0.418
		c0.013,0.007,0.026,0.015,0.036,0.021c0.007,0.018-0.004,0.027-0.009,0.038c-0.093,0.164-0.186,0.328-0.279,0.492
		c-0.005,0.009-0.01,0.019-0.016,0.028c-0.083,0.147-0.166,0.295-0.249,0.442c-0.1,0.177-0.201,0.354-0.301,0.531
		c-0.099,0.175-0.199,0.35-0.298,0.525c-0.1,0.177-0.201,0.354-0.301,0.531c-0.014,0.024-0.035,0.047-0.038,0.073
		c-0.004,0.027,0.024,0.049,0.037,0.073c0.084,0.154,0.168,0.308,0.253,0.462c0.104,0.19,0.208,0.379,0.313,0.568
		c0.091,0.165,0.182,0.33,0.273,0.495c0.009,0.017,0.016,0.035,0.024,0.052c0.023,0.114,0.016,0.23,0.017,0.345
		c0,0.405,0,0.809,0,1.214c0,0.028,0.001,0.056-0.002,0.083c-0.003,0.024-0.007,0.048-0.032,0.059
		c-0.027,0.011-0.036-0.016-0.053-0.027C12.051,9.465,12,9.369,11.945,9.276c-0.108-0.184-0.217-0.368-0.325-0.552
		c-0.093-0.158-0.187-0.316-0.28-0.474c-0.036-0.061-0.072-0.121-0.108-0.182c-0.007-0.013-0.013-0.027-0.019-0.04
		c0.021-0.037,0.021-0.078,0.021-0.119c0-1.202,0-2.404,0-3.606C11.233,4.27,11.235,4.235,11.215,4.204z"/>
	<path fill="#FF00E8" d="M11.215,4.204c0.006-0.002,0.012-0.005,0.018-0.006c0.009-0.002,0.017,0.001,0.019,0.011
		c0.001,0.006,0.002,0.013,0.002,0.019c0,0.017,0,0.034,0,0.051c0,1.214,0,2.428,0,3.642c0,0.017-0.001,0.034,0,0.051
		c0.002,0.031-0.013,0.048-0.042,0.055c0,0,0,0,0,0c0.001-0.008-0.005-0.012-0.01-0.017l0,0c-0.007-0.007-0.005-0.02-0.015-0.025
		l0.001,0.001c-0.003-0.005-0.006-0.01-0.009-0.015c-0.004-0.002-0.005-0.004-0.004-0.008c-0.001-0.007-0.006-0.012-0.011-0.018l0,0
		c-0.004-0.003-0.007-0.007-0.01-0.012c-0.004-0.001-0.006-0.004-0.005-0.009c-0.001-0.007-0.006-0.012-0.01-0.018l0-0.001
		c-0.008-0.006-0.006-0.018-0.014-0.024l0,0c-0.004-0.004-0.007-0.008-0.009-0.013c-0.004-0.002-0.006-0.006-0.005-0.01
		c-0.002-0.006-0.006-0.01-0.01-0.016c-0.004-0.001-0.005-0.004-0.004-0.008c-0.001-0.008-0.006-0.013-0.011-0.018l0,0
		c-0.008-0.006-0.005-0.019-0.014-0.025l0,0.001c-0.004-0.004-0.007-0.009-0.009-0.013c-0.004-0.002-0.005-0.005-0.004-0.01
		c-0.002-0.006-0.006-0.011-0.01-0.016c-0.004-0.001-0.005-0.004-0.004-0.007c0-0.008-0.006-0.013-0.011-0.019l0,0
		c-0.008-0.007-0.005-0.019-0.014-0.025l0.001,0.001c-0.003-0.006-0.008-0.009-0.01-0.015l-0.001-0.002
		c-0.009-0.005-0.006-0.018-0.015-0.023c-0.005-0.007-0.011-0.013-0.015-0.02c-0.07-0.118-0.139-0.236-0.208-0.354
		c-0.116-0.197-0.232-0.394-0.348-0.592c-0.098-0.166-0.196-0.331-0.294-0.497c-0.012-0.02-0.024-0.04-0.038-0.06
		c-0.011-0.016-0.01-0.03,0-0.047c0.053-0.088,0.104-0.177,0.157-0.265c0.01-0.017,0.021-0.032,0.031-0.049
		c0.084-0.144,0.169-0.288,0.253-0.432c0.102-0.173,0.204-0.346,0.306-0.519c0.05-0.085,0.1-0.17,0.15-0.254
		c0.005-0.009,0.013-0.016,0.02-0.024c0.005-0.005,0.01-0.009,0.011-0.017c-0.001-0.004,0-0.007,0.004-0.009
		c0.003-0.005,0.006-0.01,0.009-0.015c-0.001-0.005,0.001-0.008,0.005-0.011c0.002-0.005,0.005-0.009,0.009-0.012l0,0
		c0.008-0.006,0.005-0.018,0.014-0.024l0.001-0.001c0.004-0.005,0.009-0.01,0.01-0.017c-0.001-0.004,0.001-0.008,0.005-0.009
		c0.003-0.005,0.006-0.009,0.009-0.014l0,0.001c0.01-0.005,0.007-0.018,0.014-0.025l0,0c0.005-0.005,0.01-0.01,0.011-0.018
		c-0.001-0.004,0-0.006,0.004-0.008c0.004-0.005,0.008-0.009,0.01-0.016c-0.001-0.005,0.001-0.008,0.005-0.01
		c0.003-0.005,0.006-0.009,0.009-0.013l0,0c0.009-0.006,0.006-0.018,0.014-0.024l0-0.001c0.004-0.005,0.009-0.009,0.011-0.015
		l-0.001,0.001c0.01-0.005,0.007-0.018,0.015-0.024l0-0.001c0.005-0.005,0.01-0.01,0.01-0.018c-0.001-0.004,0-0.007,0.004-0.008
		c0.003-0.005,0.008-0.009,0.009-0.015c-0.001-0.005,0.001-0.008,0.005-0.01C11.209,4.212,11.212,4.208,11.215,4.204
		C11.215,4.204,11.215,4.204,11.215,4.204z"/>
	<path fill="#FF00C4" d="M12.113,9.555c0.011,0,0.02,0.005,0.029,0.011c0.017,0.012,0.033,0.005,0.036-0.015
		c0.002-0.015,0.002-0.03,0.002-0.045c0-0.5,0-0.999,0-1.499c0-0.023-0.001-0.046-0.009-0.069c-0.007-0.02-0.011-0.043,0.013-0.057
		c0.019,0.018,0.03,0.042,0.042,0.064c0.084,0.154,0.168,0.308,0.252,0.462c0.1,0.182,0.2,0.363,0.3,0.545
		c0.099,0.18,0.198,0.36,0.297,0.539c0.062,0.112,0.125,0.224,0.187,0.336c0.006,0.011,0.012,0.023,0.019,0.034
		c0.008,0.014,0.008,0.028,0.001,0.043c-0.013,0.027-0.026,0.054-0.039,0.081c-0.025,0.055-0.049,0.109-0.073,0.164
		c-0.097,0.214-0.194,0.429-0.291,0.643c-0.003,0.006-0.005,0.012-0.008,0.017c-0.004,0.008-0.016,0.008-0.021,0
		c-0.026-0.042-0.052-0.083-0.077-0.126c-0.083-0.142-0.166-0.285-0.249-0.427c-0.101-0.171-0.202-0.343-0.304-0.514
		c-0.033-0.055-0.066-0.11-0.098-0.165C12.118,9.571,12.116,9.563,12.113,9.555z"/>
	<path fill="#FF004F" d="M15.062,5.362c0.013-0.051,0.039-0.098,0.063-0.145c0.027-0.054,0.022-0.111,0.02-0.167
		c-0.001-0.012-0.009-0.019-0.021-0.019c-0.034-0.001-0.067-0.002-0.101-0.004c0.01-0.159,0.006-0.318,0.006-0.477
		c0-0.071,0.018-0.149-0.069-0.188c0.116-0.005,0.231-0.004,0.347,0C15.384,4.37,15.39,4.373,15.39,4.45
		c0.001,0.583,0,1.165,0.001,1.748c0,0.03-0.008,0.059-0.008,0.089c-0.001,0.02-0.012,0.036-0.02,0.054
		c-0.05,0.111-0.101,0.222-0.152,0.333c-0.036,0.077-0.074,0.154-0.11,0.231c-0.041-0.031-0.033-0.076-0.033-0.118
		c-0.001-0.413,0-0.827-0.001-1.24C15.066,5.486,15.07,5.424,15.062,5.362z"/>
	<path fill="#FF0059" d="M18.057,6.529c-0.054,0.059-0.113,0.115-0.173,0.168c-0.027,0.024-0.055,0.046-0.082,0.069
		c-0.029-0.03-0.021-0.068-0.021-0.103c-0.003-0.279,0.005-0.559-0.005-0.838c0.035-0.068,0.076-0.133,0.104-0.206
		c0.044-0.112,0.06-0.227,0.035-0.346c-0.017-0.081-0.06-0.145-0.127-0.194c-0.017-0.013-0.035-0.024-0.053-0.036
		c-0.021-0.028-0.019-0.06-0.019-0.092c0-0.155,0-0.311,0-0.466c0-0.059,0.002-0.119-0.017-0.176
		c0.114,0.001,0.225,0.019,0.334,0.053c0.008,0.004,0.018,0.003,0.025,0.009l0,0c0.021,0.025,0.02,0.056,0.02,0.086
		c0,0.658,0,1.315,0,1.973C18.079,6.465,18.074,6.498,18.057,6.529z"/>
	<path fill="#FF0026" d="M18.277,4.466c0.154,0.086,0.258,0.214,0.323,0.377c0.049,0.123,0.073,0.25,0.076,0.381
		c0.003,0.124,0,0.248-0.025,0.37c-0.031,0.156-0.086,0.304-0.174,0.438c-0.051,0.079-0.104,0.157-0.167,0.227
		c-0.006,0.006-0.013,0.011-0.019,0.017c-0.042-0.024-0.033-0.066-0.033-0.103c-0.001-0.227-0.001-0.453-0.001-0.68
		c0-0.308,0-0.616,0-0.923C18.256,4.534,18.249,4.496,18.277,4.466z"/>
	<path fill="#FF002E" d="M15.382,6.287c-0.015-0.023-0.013-0.049-0.013-0.075c0-0.139,0-0.278,0-0.417c0-0.441,0-0.882,0-1.323
		c0-0.011,0.001-0.021,0-0.032c-0.001-0.019,0.005-0.039-0.005-0.057c-0.012-0.02-0.037-0.005-0.053-0.017
		c-0.002-0.001-0.003-0.003-0.005-0.004c0.107-0.005,0.214-0.004,0.321,0c0.032,0.005,0.041,0.027,0.043,0.055
		c0.002,0.026,0.002,0.051,0.002,0.077c0,0.297,0.001,0.593,0,0.89c0,0.083,0.004,0.166,0.008,0.249
		c-0.007,0.02-0.014,0.04-0.022,0.059c-0.087,0.191-0.175,0.383-0.263,0.574C15.392,6.274,15.387,6.28,15.382,6.287z"/>
	<path fill="#FF00A9" d="M14.569,7.833c-0.041-0.002-0.079-0.018-0.118-0.029c-0.139-0.037-0.277-0.075-0.415-0.113
		c-0.014-0.004-0.03-0.005-0.042-0.021c0.051-0.111,0.103-0.224,0.155-0.336c0.01-0.021,0.02-0.043,0.03-0.064
		c0.083-0.181,0.166-0.362,0.249-0.543c0.044-0.095,0.089-0.189,0.134-0.284c0.032-0.011,0.036,0.014,0.042,0.033
		c0.013,0.037,0.015,0.075,0.015,0.114c0,0.374,0,0.747,0,1.121c0,0.026,0.001,0.052-0.007,0.076
		C14.604,7.807,14.602,7.835,14.569,7.833z"/>
	<path fill="#FF0042" d="M18.277,4.466c0,0.574,0,1.148,0,1.723c0,0.03-0.004,0.06,0.013,0.088
		c-0.009,0.012-0.016,0.025-0.026,0.036c-0.065,0.076-0.134,0.149-0.207,0.217c0-0.028,0.001-0.056,0.001-0.083
		c0-0.664,0-1.327,0-1.991c0-0.028,0-0.056,0-0.083C18.137,4.389,18.21,4.421,18.277,4.466z"/>
	<path fill="#FF006F" d="M15.062,5.362c0.018,0.017,0.025,0.039,0.025,0.064c0,0.015,0,0.03,0,0.045c0,0.443,0,0.885,0,1.328
		c0,0.036,0.001,0.072,0.013,0.107c0,0,0,0,0,0c-0.009,0.007-0.006,0.019-0.012,0.028c-0.01,0.026-0.019,0.052-0.03,0.077
		c-0.047,0.103-0.093,0.207-0.141,0.309c-0.022,0.048-0.048,0.095-0.072,0.143c-0.043-0.038-0.035-0.09-0.035-0.138
		c-0.001-0.432,0-0.864-0.001-1.296c0-0.038,0.009-0.076-0.002-0.114c0.018-0.057,0.046-0.109,0.071-0.163
		c0.039-0.085,0.078-0.17,0.118-0.254C15,5.486,15.006,5.475,15.012,5.464c0.003-0.005,0.008-0.009,0.008-0.016
		c-0.001-0.004,0-0.007,0.004-0.01c0.006-0.007,0.003-0.018,0.011-0.024l0-0.001c0.007-0.006,0.004-0.018,0.013-0.024l0.001-0.001
		c0.004-0.006,0.009-0.011,0.01-0.018C15.058,5.367,15.059,5.364,15.062,5.362z"/>
	<path fill="#FF008A" d="M14.806,5.915c0.011,0.002,0.021,0.007,0.022,0.02c0.001,0.019,0.001,0.039,0.001,0.058
		c0,0.429,0,0.857,0,1.286c0,0.062-0.004,0.124,0.015,0.185c-0.024,0.073-0.059,0.141-0.09,0.21
		c-0.023,0.052-0.048,0.104-0.072,0.156c-0.015,0.033-0.018,0.035-0.054,0.024c-0.02-0.006-0.043-0.005-0.06-0.02
		c0.023-0.02,0.026-0.047,0.029-0.075c0.001-0.013,0-0.026,0-0.039c0-0.379-0.001-0.758,0.001-1.137
		c0-0.043-0.011-0.084-0.017-0.126c-0.001-0.01-0.012-0.011-0.02-0.013c0.008-0.04,0.033-0.073,0.049-0.11
		c0.035-0.08,0.071-0.159,0.108-0.238c0.024-0.052,0.05-0.103,0.075-0.154c0.003-0.005,0.006-0.01,0.008-0.015
		C14.802,5.921,14.803,5.917,14.806,5.915z"/>
	<path fill="#FF0097" d="M17.556,7.766c-0.09,0.004-0.18,0.005-0.27,0c-0.011-0.015-0.01-0.032-0.01-0.049
		c0.005-0.402,0.001-0.804,0.002-1.206c0-0.041-0.002-0.081-0.007-0.122c0.057-0.062,0.114-0.126,0.179-0.181
		c0.007-0.002,0.012-0.006,0.014-0.014l-0.001,0.001c0.007-0.002,0.012-0.006,0.013-0.014l-0.001,0.001
		c0.009-0.002,0.013-0.008,0.014-0.016c0-0.004,0.002-0.007,0.007-0.008c0.042-0.011,0.05,0.022,0.051,0.047
		c0.007,0.254,0.007,0.508,0,0.762c0,0.015-0.01,0.028-0.015,0.042l0.001-0.001c-0.008,0.002-0.012,0.008-0.015,0.015
		c-0.018,0.024-0.041,0.044-0.065,0.062c0.009,0.034,0.036,0.013,0.055,0.018c0.024,0.006,0.054-0.012,0.073,0.019
		c0.016,0.054,0.008,0.11,0.009,0.165c0.001,0.13,0.001,0.259,0,0.389C17.589,7.709,17.593,7.746,17.556,7.766z"/>
	<path fill="#FF00AF" d="M17.272,6.39c0.013,0.003,0.025,0.008,0.026,0.023c0.001,0.015,0.001,0.03,0.001,0.045
		c0,0.407,0,0.813,0.001,1.22c0,0.031-0.006,0.059-0.014,0.088c-0.086,0.004-0.172,0.005-0.257,0
		c-0.014-0.019-0.009-0.041-0.009-0.062c0.001-0.356,0.005-0.712-0.002-1.069c0.015-0.026,0.039-0.044,0.061-0.064
		C17.142,6.51,17.207,6.45,17.272,6.39z"/>
	<path fill="#FF00D1" d="M17.018,6.635c0.014,0.008,0.023,0.019,0.023,0.036c0,0.017,0,0.034,0,0.051c0,0.314,0,0.629,0,0.943
		c0,0.034-0.001,0.068-0.014,0.101c-0.094,0.004-0.189,0.005-0.283,0c-0.013-0.017-0.009-0.036-0.009-0.055
		c0.002-0.268,0.005-0.537-0.001-0.805c0.014-0.024,0.037-0.041,0.056-0.06c0.061-0.058,0.123-0.116,0.185-0.173
		c0.005-0.004,0.009-0.007,0.013-0.011l0.001-0.001c0.003-0.004,0.007-0.008,0.012-0.011l0.002-0.002
		c0.003-0.005,0.006-0.008,0.011-0.011L17.018,6.635z"/>
	<path fill="#FF000A" d="M15.681,5.633c-0.021-0.026-0.024-0.058-0.028-0.089c-0.002-0.017,0-0.034,0-0.051c0-0.348,0-0.696,0-1.044
		c0-0.013-0.001-0.026,0-0.038c0.003-0.023-0.009-0.036-0.025-0.048c0.079-0.001,0.158-0.002,0.237-0.002
		c0.025,0,0.029,0.005,0.03,0.031c0,0.011,0,0.021,0,0.032c0,0.233,0,0.466,0,0.699c0,0.026-0.001,0.051-0.012,0.075
		c-0.064,0.14-0.128,0.28-0.192,0.42C15.689,5.623,15.684,5.628,15.681,5.633z"/>
	<path fill="#FF00E4" d="M14.058,5.027c-0.102,0.001-0.205,0.002-0.307,0.003c-0.024,0-0.027-0.004-0.028-0.025
		c-0.001-0.015,0-0.03,0-0.045c0-0.175,0-0.35,0-0.525c0-0.015,0-0.03,0-0.045c0.001-0.028,0.003-0.031,0.029-0.031
		c0.053,0,0.107,0.001,0.16,0.001c0.002,0,0.004,0.001,0.006,0.001c0.049,0.009,0.098,0.005,0.147,0.003
		c0.04-0.001,0.062,0.012,0.062,0.053c0.002,0.173,0.005,0.347-0.002,0.52C14.124,4.981,14.106,5.017,14.058,5.027z"/>
	<path fill="#FF007C" d="M17.533,7.01c-0.001-0.026-0.002-0.051-0.002-0.077c0-0.23,0-0.46,0-0.69c0-0.017,0.001-0.034-0.001-0.051
		c-0.002-0.019-0.014-0.03-0.033-0.033c0.019-0.022,0.037-0.046,0.057-0.067c0.059-0.061,0.112-0.126,0.163-0.194
		c0.006-0.008,0.015-0.015,0.022-0.022c0.003-0.005,0.006-0.009,0.01-0.012l0.001-0.001c0.005-0.005,0.009-0.009,0.011-0.016
		c0-0.005,0.002-0.008,0.006-0.01c0.002-0.004,0.005-0.008,0.009-0.011c0,0,0-0.001,0-0.001c0.019,0.017,0.025,0.039,0.025,0.063
		c0,0.015,0,0.03,0,0.045c0,0.278,0.001,0.556,0.001,0.833c-0.04,0.05-0.094,0.086-0.139,0.131
		C17.621,6.938,17.58,6.978,17.533,7.01z"/>
	<path fill="#FF0089" d="M17.699,4.309c0.005,0.004,0.01,0.009,0.015,0.011c0.014,0.004,0.022,0.012,0.022,0.027
		c0,0.009,0,0.017,0,0.026c0,0.215,0,0.43,0,0.645c0,0.009-0.001,0.017-0.001,0.026c-0.005,0.001-0.008-0.001-0.011-0.004
		c-0.008-0.007-0.019-0.004-0.026-0.011c-0.004-0.001-0.008-0.002-0.013-0.003c-0.006-0.002-0.011-0.007-0.017-0.008
		c-0.007-0.002-0.014-0.003-0.021-0.005c-0.009-0.005-0.019-0.004-0.028-0.009c-0.14-0.025-0.281-0.014-0.421-0.016
		c0.016-0.04,0.052-0.029,0.081-0.03c0.091-0.004,0.091-0.003,0.091-0.096c0-0.134-0.003-0.269,0.001-0.403
		c0.002-0.064-0.004-0.117-0.074-0.14c0.006-0.002,0.012-0.006,0.018-0.006C17.443,4.305,17.571,4.298,17.699,4.309z"/>
	<path fill="#FF0079" d="M14.96,4.362c0.018,0.017,0.041,0.007,0.061,0.01c0.019,0.003,0.025,0.009,0.027,0.029
		c0.001,0.013,0.001,0.025,0.001,0.038c0,0.162-0.001,0.323,0.001,0.485c0,0.038-0.007,0.071-0.027,0.103
		c-0.112,0.004-0.223,0.005-0.335,0c-0.019-0.045,0.009-0.087,0.008-0.131c-0.003-0.14-0.002-0.281-0.001-0.421
		c0.001-0.051-0.008-0.088-0.071-0.087c-0.015,0-0.035-0.003-0.037-0.026c0.055-0.001,0.11-0.003,0.164-0.002
		C14.821,4.36,14.89,4.361,14.96,4.362z"/>
	<path fill="#FF0071" d="M17.556,7.766c0.015-0.023,0.013-0.049,0.013-0.075c0-0.193,0-0.386,0-0.579
		c0.093-0.019,0.186-0.003,0.279-0.008c0.016,0.002,0.034-0.005,0.048,0.008c0.017,0.025,0.015,0.053,0.015,0.08
		c0.001,0.156,0.001,0.312,0,0.467c0,0.038,0.002,0.078-0.033,0.106C17.77,7.77,17.663,7.772,17.556,7.766z"/>
	<path fill="#FF009D" d="M14.587,4.362c0.016,0.015,0.036,0.01,0.055,0.01c0.076,0,0.072,0,0.072,0.076c0,0.152,0,0.304,0,0.456
		c0,0.037-0.001,0.073-0.022,0.105c-0.003,0.005-0.003,0.012-0.004,0.019c-0.107,0.004-0.214,0.005-0.321,0
		c0.039-0.192,0.011-0.385,0.019-0.578c0.002-0.04-0.018-0.056-0.058-0.058c-0.031-0.002-0.07,0.013-0.088-0.029
		C14.355,4.357,14.471,4.358,14.587,4.362z"/>
	<path fill="#FF00EF" d="M16.735,6.906c0.014,0.008,0.023,0.019,0.023,0.036c0,0.015,0,0.03,0,0.045c0,0.226,0,0.453,0,0.679
		c0,0.034-0.001,0.068-0.014,0.101c-0.075,0.001-0.15,0.002-0.225,0.003c-0.027,0-0.03-0.004-0.031-0.029c0-0.011,0-0.021,0-0.032
		c0-0.173,0.002-0.347-0.001-0.52c-0.001-0.041,0.013-0.068,0.042-0.094c0.051-0.045,0.101-0.092,0.151-0.138
		c0.004-0.004,0.009-0.007,0.013-0.011l0.002-0.001c0.003-0.005,0.007-0.008,0.012-0.011l0.002-0.002
		c0.003-0.005,0.006-0.008,0.011-0.011l0.002-0.002c0.003-0.005,0.006-0.008,0.011-0.011L16.735,6.906z"/>
	<path fill="#FF00C1" d="M14.24,4.362c0.012,0.013,0.027,0.01,0.042,0.01c0.032,0,0.064,0,0.096,0.001
		c0.019,0.001,0.026,0.008,0.027,0.028c0.001,0.017,0.001,0.034,0.001,0.051c0,0.153,0,0.306,0,0.46c0,0.066,0,0.066-0.039,0.115
		c-0.103,0.004-0.206,0.005-0.309,0C14.1,5,14.109,4.958,14.109,4.911c0-0.153,0-0.306,0-0.459c0-0.017,0-0.034-0.001-0.051
		c-0.001-0.02-0.008-0.027-0.027-0.028C14.041,4.372,14,4.372,13.96,4.372c-0.015,0-0.03,0.003-0.042-0.01
		C14.025,4.357,14.132,4.358,14.24,4.362z"/>
	<path fill="#FF00A9" d="M17.297,4.318c0.002,0,0.004,0.001,0.006,0.001c0.09,0.006,0.086-0.015,0.086,0.088
		c0,0.163,0,0.325,0,0.488c0,0.017,0,0.034-0.001,0.051c-0.001,0.02-0.008,0.027-0.028,0.028c-0.039,0.001-0.077,0.001-0.116,0.002
		c-0.017,0-0.035-0.004-0.048,0.011c-0.06,0.005-0.12,0.016-0.181,0.013c0.064-0.045,0.059-0.112,0.058-0.179
		c-0.002-0.122-0.001-0.243,0-0.365c0-0.039-0.003-0.077-0.021-0.112c0.036-0.017,0.075-0.011,0.112-0.017
		C17.208,4.32,17.252,4.316,17.297,4.318z"/>
	<path fill="#FF004F" d="M17.878,7.766c0.012-0.033,0.014-0.066,0.013-0.101c-0.001-0.184,0-0.368,0-0.553
		c0.093-0.018,0.186-0.005,0.279-0.007c0.027-0.001,0.032,0.025,0.035,0.046c0.005,0.038,0.003,0.077,0.003,0.115
		c0,0.136,0,0.273,0,0.409c0,0.032,0.003,0.065-0.021,0.091C18.083,7.771,17.98,7.771,17.878,7.766z"/>
	<path fill="#FF002E" d="M18.186,7.766c0-0.196,0-0.392,0-0.588c0-0.011,0-0.021,0-0.032c-0.002-0.028-0.007-0.035-0.034-0.035
		c-0.036-0.001-0.072-0.001-0.109-0.001c-0.051,0-0.102,0.001-0.153,0.002c-0.013-0.001-0.026-0.003-0.039-0.004l0.001-0.001
		c0.013-0.002,0.025-0.004,0.038-0.004c0.124,0,0.249,0,0.373,0c0.015,0,0.03,0.003,0.044,0.005
		c0.025-0.007,0.051-0.003,0.077-0.003c0.103,0,0.105,0.001,0.105,0.101c0.001,0.156,0,0.313,0,0.469
		c0,0.032,0.003,0.065-0.02,0.092C18.375,7.771,18.281,7.771,18.186,7.766z"/>
	<path fill="#FF00CA" d="M17.052,4.344c0.039,0.01,0.04,0.01,0.041,0.043c0,0.187,0,0.374,0,0.562c0,0.002,0,0.004,0,0.006
		c-0.002,0.025-0.005,0.03-0.029,0.033c-0.016,0.002-0.035-0.003-0.048,0.012c-0.081,0.012-0.163,0.023-0.245,0.026
		c0.024-0.061,0.018-0.126,0.019-0.189c0.003-0.151-0.007-0.303,0.006-0.454c0.026-0.017,0.057-0.013,0.086-0.018
		C16.939,4.356,16.995,4.343,17.052,4.344z"/>
	<path fill="#FF00EA" d="M16.796,4.384c0.014,0.01,0.014,0.025,0.014,0.041c0,0.047,0,0.094,0,0.141
		c0,0.131-0.002,0.261,0.001,0.392c0.001,0.035-0.011,0.056-0.04,0.07c-0.063,0.01-0.126,0.02-0.189,0.029
		c-0.022,0.003-0.027-0.001-0.029-0.022C16.551,5,16.549,4.966,16.546,4.932c-0.01-0.143-0.021-0.285-0.031-0.428
		c-0.001-0.013-0.002-0.026-0.002-0.038c0-0.027,0.001-0.03,0.026-0.035c0.052-0.011,0.104-0.023,0.157-0.032
		C16.729,4.393,16.761,4.381,16.796,4.384z"/>
	<path fill="#FF000E" d="M18.469,7.766c0-0.194,0-0.388,0-0.581c0-0.013,0-0.026,0-0.038c-0.001-0.028-0.007-0.034-0.034-0.036
		c-0.042-0.002-0.085-0.002-0.127-0.003c0.053-0.011,0.106-0.004,0.16-0.005c0.068-0.001,0.137,0.001,0.205,0.002
		c0.011,0,0.021,0,0.032,0.001c0.015,0.001,0.024,0.007,0.025,0.023c0.001,0.011,0.001,0.021,0.001,0.032c0,0.184,0,0.368,0,0.552
		c0,0.057,0,0.057-0.057,0.056C18.606,7.769,18.538,7.767,18.469,7.766z"/>
	<path fill="#FF004F" d="M17.853,7.108c0,0-0.001,0.001-0.001,0.001c-0.063,0.001-0.126,0.001-0.189,0.002
		c-0.031,0-0.063,0.001-0.094,0.002c-0.037-0.001-0.075-0.001-0.112-0.005c-0.014-0.001-0.013-0.013-0.003-0.022
		c0.007,0.019,0.023,0.016,0.037,0.016c0.076,0,0.153,0,0.229,0.001C17.764,7.104,17.809,7.098,17.853,7.108z"/>
	<path fill="#FF00D7" d="M11.125,7.882c0.01,0.005,0.013,0.014,0.014,0.024C11.13,7.901,11.125,7.893,11.125,7.882z"/>
	<path fill="#FF00D7" d="M11.177,4.27c0,0.011-0.003,0.02-0.015,0.024C11.163,4.283,11.167,4.275,11.177,4.27z"/>
	<path fill="#FF00D7" d="M11.188,7.986C11.2,7.99,11.203,8,11.203,8.011C11.193,8.006,11.188,7.997,11.188,7.986z"/>
	<path fill="#FF0042" d="M18.059,4.371c-0.01,0.001-0.019,0-0.025-0.009C18.043,4.361,18.052,4.363,18.059,4.371z"/>
	<path fill="#FF004F" d="M15.036,5.414c0,0.01-0.002,0.019-0.011,0.024C15.023,5.428,15.027,5.42,15.036,5.414z"/>
	<path fill="#FF00D7" d="M11.151,4.309c0,0.011-0.003,0.02-0.014,0.024C11.138,4.322,11.142,4.314,11.151,4.309z"/>
	<path fill="#FF00D7" d="M11.062,4.463c0,0.01-0.003,0.019-0.014,0.024C11.048,4.477,11.053,4.469,11.062,4.463z"/>
	<path fill="#FF00D7" d="M10.996,7.664c0.011,0.004,0.014,0.013,0.015,0.023C11.001,7.682,10.996,7.675,10.996,7.664z"/>
	<path fill="#FF00D7" d="M11.1,4.398c0,0.011-0.003,0.02-0.014,0.025C11.086,4.412,11.09,4.403,11.1,4.398z"/>
	<path fill="#FF00D7" d="M11.021,7.703c0.011,0.005,0.014,0.014,0.014,0.025C11.026,7.722,11.022,7.714,11.021,7.703z"/>
	<path fill="#FF00D7" d="M11.073,7.793c0.011,0.005,0.014,0.014,0.014,0.025C11.078,7.812,11.073,7.803,11.073,7.793z"/>
	<path fill="#FF0059" d="M17.618,5.003c0.011-0.002,0.021-0.001,0.028,0.009C17.635,5.013,17.626,5.011,17.618,5.003z"/>
	<path fill="#FF0059" d="M17.697,5.028c0.011-0.001,0.02,0.001,0.026,0.011C17.713,5.04,17.704,5.036,17.697,5.028z"/>
	<path fill="#FF004F" d="M15.088,6.933c-0.001-0.012,0.001-0.022,0.012-0.028C15.101,6.916,15.097,6.926,15.088,6.933z"/>
	<path fill="#FF004F" d="M15.049,5.389c-0.001,0.01-0.003,0.019-0.013,0.024C15.035,5.403,15.04,5.395,15.049,5.389z"/>
	<path fill="#FF00D7" d="M11.034,4.511c-0.003,0.005-0.006,0.01-0.009,0.015C11.024,4.518,11.027,4.514,11.034,4.511z"/>
	<path fill="#FF00D7" d="M11.021,4.535c0,0.008-0.004,0.014-0.011,0.017C11.01,4.544,11.013,4.538,11.021,4.535z"/>
	<path fill="#FF0059" d="M17.667,5.016c0.007-0.001,0.013,0.002,0.017,0.008C17.677,5.025,17.671,5.023,17.667,5.016z"/>
	<path fill="#FF004F" d="M15.059,5.37c0,0.008-0.003,0.014-0.01,0.018C15.05,5.38,15.052,5.374,15.059,5.37z"/>
	<path fill="#FF004F" d="M15.021,5.448c0,0.007-0.002,0.012-0.008,0.016C15.012,5.457,15.014,5.452,15.021,5.448z"/>
	<path fill="#FF0059" d="M17.775,5.826c-0.003,0.004-0.006,0.007-0.009,0.011C17.766,5.831,17.769,5.827,17.775,5.826z"/>
	<path fill="#FF0059" d="M17.761,5.847C17.76,5.855,17.756,5.86,17.75,5.863C17.75,5.856,17.754,5.85,17.761,5.847z"/>
	<path fill="#FF0059" d="M17.749,5.864c-0.003,0.004-0.007,0.008-0.01,0.012C17.739,5.87,17.743,5.866,17.749,5.864z"/>
	<path fill="#FF006F" d="M14.803,5.925C14.8,5.93,14.797,5.935,14.794,5.94C14.793,5.933,14.796,5.928,14.803,5.925z"/>
	<path fill="#FF007C" d="M17.49,6.167c-0.001,0.009-0.005,0.014-0.014,0.016C17.478,6.175,17.482,6.17,17.49,6.167z"/>
	<path fill="#FF007C" d="M17.477,6.182c-0.001,0.008-0.005,0.013-0.013,0.014C17.465,6.189,17.47,6.184,17.477,6.182z"/>
	<path fill="#FF007C" d="M17.465,6.195c-0.002,0.008-0.006,0.012-0.014,0.014C17.452,6.202,17.457,6.197,17.465,6.195z"/>
	<path fill="#FF00AF" d="M17.016,6.637c-0.004,0.004-0.008,0.007-0.011,0.011C17.006,6.641,17.01,6.638,17.016,6.637z"/>
	<path fill="#FF00AF" d="M17.004,6.65C17,6.653,16.996,6.657,16.992,6.661C16.993,6.654,16.997,6.65,17.004,6.65z"/>
	<path fill="#FF00AF" d="M16.99,6.662c-0.004,0.004-0.009,0.007-0.013,0.011C16.978,6.665,16.983,6.662,16.99,6.662z"/>
	<path fill="#FF00D1" d="M16.734,6.907c-0.004,0.004-0.007,0.007-0.011,0.011C16.723,6.911,16.727,6.908,16.734,6.907z"/>
	<path fill="#FF00D1" d="M16.721,6.92c-0.004,0.004-0.007,0.007-0.011,0.011C16.71,6.924,16.714,6.921,16.721,6.92z"/>
	<path fill="#FF00D1" d="M16.708,6.933C16.704,6.936,16.7,6.94,16.696,6.944C16.697,6.937,16.701,6.933,16.708,6.933z"/>
	<path fill="#FF00D1" d="M16.695,6.945c-0.004,0.004-0.009,0.007-0.013,0.011C16.683,6.948,16.687,6.945,16.695,6.945z"/>
	<path fill="#FF007C" d="M17.519,7.024c0.002-0.008,0.007-0.013,0.015-0.015C17.532,7.017,17.526,7.022,17.519,7.024z"/>
	<path fill="#FF00D7" d="M11.012,7.689c0.003,0.005,0.007,0.01,0.01,0.015C11.015,7.701,11.012,7.696,11.012,7.689z"/>
	<path fill="#FF00D7" d="M11.036,7.728c0.007,0.004,0.011,0.01,0.011,0.019C11.039,7.743,11.035,7.736,11.036,7.728z"/>
	<path fill="#FF00D7" d="M11.05,7.754c0.003,0.005,0.007,0.011,0.01,0.016C11.053,7.767,11.05,7.761,11.05,7.754z"/>
	<path fill="#FF00D7" d="M11.064,7.78c0.003,0.004,0.006,0.009,0.009,0.013C11.067,7.791,11.064,7.787,11.064,7.78z"/>
	<path fill="#FF00D7" d="M11.087,7.818c0.007,0.004,0.01,0.01,0.011,0.018C11.091,7.832,11.087,7.826,11.087,7.818z"/>
	<path fill="#FF00D7" d="M11.102,7.844c0.003,0.005,0.006,0.01,0.01,0.016C11.105,7.856,11.102,7.851,11.102,7.844z"/>
	<path fill="#FF00D7" d="M11.116,7.87c0.003,0.004,0.006,0.009,0.009,0.013C11.119,7.881,11.116,7.877,11.116,7.87z"/>
	<path fill="#FF00D7" d="M11.139,7.908c0.007,0.004,0.01,0.01,0.01,0.018C11.142,7.922,11.139,7.916,11.139,7.908z"/>
	<path fill="#FF00D7" d="M11.155,7.934c0.003,0.004,0.006,0.008,0.01,0.012C11.158,7.944,11.154,7.941,11.155,7.934z"/>
	<path fill="#FF00D7" d="M11.164,7.946c0.007,0.004,0.011,0.01,0.011,0.018C11.168,7.96,11.165,7.954,11.164,7.946z"/>
	<path fill="#FF00D7" d="M11.179,7.972c0.003,0.005,0.006,0.01,0.009,0.014C11.182,7.985,11.179,7.98,11.179,7.972z"/>
	<path fill="#FF00D7" d="M11.202,8.011c0.007,0.003,0.01,0.009,0.01,0.017C11.205,8.025,11.202,8.019,11.202,8.011z"/>
	<path fill="#FF00D7" d="M11.215,4.204c-0.003,0.004-0.006,0.009-0.009,0.013C11.205,4.21,11.209,4.206,11.215,4.204z"/>
	<path fill="#FF00D7" d="M11.201,4.227c0,0.007-0.003,0.012-0.009,0.015C11.191,4.235,11.195,4.23,11.201,4.227z"/>
	<path fill="#FF00D7" d="M11.188,4.251c0,0.008-0.004,0.014-0.01,0.018C11.177,4.261,11.18,4.255,11.188,4.251z"/>
	<path fill="#FF00D7" d="M11.163,4.293c-0.004,0.005-0.007,0.01-0.011,0.015C11.152,4.3,11.156,4.295,11.163,4.293z"/>
	<path fill="#FF00D7" d="M11.138,4.332c-0.003,0.004-0.006,0.009-0.009,0.013C11.128,4.339,11.131,4.334,11.138,4.332z"/>
	<path fill="#FF00D7" d="M11.124,4.356c-0.003,0.005-0.006,0.011-0.01,0.016C11.114,4.364,11.117,4.359,11.124,4.356z"/>
	<path fill="#FF00D7" d="M11.11,4.379c0,0.008-0.004,0.014-0.011,0.018C11.1,4.389,11.103,4.383,11.11,4.379z"/>
	<path fill="#FF00D7" d="M11.086,4.422c-0.003,0.005-0.006,0.009-0.009,0.014C11.076,4.429,11.079,4.424,11.086,4.422z"/>
	<path fill="#FF00D7" d="M11.072,4.445c0,0.007-0.004,0.013-0.01,0.017C11.062,4.454,11.065,4.449,11.072,4.445z"/>
	<path fill="#FF00D7" d="M11.048,4.488c-0.003,0.004-0.006,0.008-0.009,0.012C11.039,4.493,11.042,4.489,11.048,4.488z"/>
	<path fill="#666666" d="M6.208,2.838c0.023,0.016,0.04,0.036,0.058,0.056c0.035,0.037,0.07,0.075,0.105,0.113
		c0.132,0.14,0.265,0.28,0.398,0.42c0.034,0.036,0.069,0.07,0.103,0.106c0.195,0.205,0.39,0.409,0.585,0.614
		C7.645,4.343,7.833,4.54,8.02,4.737c0.158,0.166,0.316,0.332,0.474,0.498C8.5,5.242,8.506,5.248,8.512,5.254
		c0.01,0.01,0.013,0.021,0.007,0.035C8.503,5.319,8.49,5.351,8.475,5.382C8.403,5.534,8.33,5.687,8.257,5.84
		C8.219,5.919,8.183,5.999,8.143,6.077c-0.016,0.032-0.016,0.059,0,0.091c0.031,0.061,0.06,0.123,0.089,0.185
		c0.069,0.145,0.137,0.29,0.206,0.435c0.064,0.135,0.131,0.27,0.195,0.405c0.086,0.18,0.17,0.36,0.256,0.54
		c0.07,0.147,0.14,0.293,0.21,0.44c0.073,0.155,0.146,0.31,0.22,0.465c0.069,0.145,0.14,0.289,0.209,0.434
		c0.015,0.032,0.034,0.064,0.041,0.099c-0.011,0.01-0.017,0-0.022-0.005C9.461,9.079,9.377,8.99,9.292,8.902
		c-0.039-0.04-0.077-0.08-0.116-0.12c-0.105-0.11-0.21-0.22-0.315-0.33C8.768,8.354,8.675,8.256,8.582,8.159
		C8.42,7.988,8.257,7.817,8.095,7.646c-0.086-0.09-0.172-0.18-0.257-0.27c-0.154-0.161-0.307-0.323-0.46-0.484
		C7.372,6.886,7.366,6.879,7.36,6.873c-0.013-0.012-0.013-0.026-0.004-0.04C7.359,6.825,7.363,6.817,7.366,6.81
		c0.06-0.128,0.12-0.256,0.18-0.384C7.608,6.299,7.669,6.171,7.73,6.044c0.006-0.012,0.011-0.023,0.017-0.035
		c0.008-0.014,0.008-0.028,0-0.043C7.742,5.957,7.738,5.947,7.733,5.938C7.642,5.754,7.55,5.57,7.459,5.386
		C7.398,5.263,7.341,5.138,7.277,5.017c-0.05-0.095-0.093-0.193-0.141-0.288C7.007,4.47,6.878,4.211,6.75,3.952
		c-0.121-0.244-0.24-0.488-0.36-0.732C6.331,3.102,6.271,2.983,6.212,2.864C6.208,2.857,6.201,2.85,6.208,2.838z"/>
	<path fill="#666666" d="M7.742,0.946C7.745,0.944,7.749,0.94,7.752,0.94c0.932,0,1.864,0,2.796,0
		c0.007,0.021-0.003,0.036-0.01,0.051c-0.046,0.099-0.093,0.197-0.14,0.296c-0.036,0.078-0.072,0.155-0.109,0.233
		c-0.078,0.165-0.156,0.329-0.234,0.493C9.98,2.172,9.907,2.332,9.832,2.491C9.771,2.62,9.709,2.749,9.647,2.878
		c-0.005,0.01-0.009,0.019-0.015,0.029C9.625,2.919,9.615,2.921,9.606,2.913C9.593,2.901,9.581,2.889,9.569,2.877
		c-0.09-0.094-0.18-0.189-0.271-0.284C9.162,2.451,9.026,2.308,8.89,2.166C8.726,1.994,8.562,1.821,8.398,1.649
		C8.314,1.56,8.23,1.472,8.146,1.383C8.015,1.245,7.884,1.106,7.753,0.968C7.747,0.962,7.74,0.957,7.742,0.946z"/>
	<path fill="#666666" d="M7.548,11.272c-0.058,0.008-2.221,0.009-2.286,0.002c-0.007-0.011-0.001-0.02,0.003-0.03
		c0.073-0.152,0.147-0.305,0.219-0.457c0.027-0.056,0.052-0.113,0.078-0.169c0.078-0.164,0.157-0.328,0.234-0.493
		c0.058-0.122,0.114-0.244,0.172-0.366C5.98,9.737,5.991,9.714,6.002,9.691c0.012-0.024,0.02-0.026,0.038-0.007
		c0.042,0.043,0.084,0.086,0.125,0.129c0.073,0.076,0.145,0.152,0.217,0.228c0.121,0.127,0.241,0.255,0.362,0.383
		c0.121,0.127,0.243,0.254,0.364,0.381c0.14,0.147,0.28,0.295,0.42,0.443C7.533,11.253,7.538,11.26,7.548,11.272z"/>
	<path fill="#FF009C" d="M8.001,11.148c-0.004-0.002-0.008-0.004-0.011-0.007c-0.107-0.112-0.214-0.225-0.321-0.337
		c-0.007-0.008-0.012-0.017-0.018-0.025c0.007-0.051,0.007-0.102,0.007-0.154c0-0.895,0-1.789,0.001-2.684
		c0-0.042-0.015-0.092,0.033-0.123c0.011,0.009,0.024,0.018,0.034,0.028c0.107,0.112,0.213,0.224,0.32,0.336
		C8.047,8.186,8.049,8.19,8.051,8.194c0.016,0.031,0.022,0.064,0.022,0.099c0,0.921,0,1.843,0,2.764c0,0.024,0.001,0.048-0.009,0.07
		c-0.009,0.02-0.016,0.048-0.05,0.034L8.013,11.16C8.009,11.157,8.005,11.153,8.001,11.148z"/>
	<path fill="#FF00B0" d="M7.691,7.819C7.683,7.834,7.677,7.85,7.678,7.867c0.001,0.017,0,0.034,0,0.051c0,0.918,0,1.837,0,2.755
		c0,0.019-0.001,0.039,0,0.058c0.001,0.022-0.01,0.036-0.028,0.047c0,0,0,0,0,0c-0.002-0.008-0.008-0.012-0.015-0.015
		c-0.029-0.028-0.059-0.056-0.086-0.085c-0.08-0.083-0.159-0.167-0.238-0.251C7.305,10.42,7.3,10.411,7.293,10.402
		c0.022-0.082,0.017-0.166,0.017-0.249c0-0.866,0-1.731,0.001-2.597c0-0.039-0.011-0.082,0.022-0.116
		C7.366,7.473,7.4,7.505,7.432,7.539c0.082,0.086,0.163,0.173,0.245,0.259C7.683,7.804,7.687,7.812,7.691,7.819z"/>
	<path fill="#FF0043" d="M8.195,2.03C8.248,2.083,8.3,2.135,8.352,2.189c0.092,0.096,0.183,0.192,0.274,0.288
		c0.012,0.012,0.022,0.026,0.032,0.039C8.669,2.563,8.664,2.61,8.664,2.657c0,0.659,0,1.319,0,1.978
		c0,0.028,0.002,0.056-0.003,0.083C8.657,4.744,8.653,4.772,8.617,4.771c-0.008-0.007-0.017-0.012-0.025-0.02
		c-0.14-0.148-0.28-0.295-0.42-0.443C8.169,4.305,8.168,4.301,8.166,4.297C8.179,3.961,8.17,3.625,8.172,3.289
		c0.002-0.383,0-0.766,0.001-1.15C8.173,2.102,8.163,2.061,8.195,2.03z"/>
	<path fill="#FF005D" d="M8.195,2.03C8.194,2.058,8.193,2.085,8.193,2.113c0,0.69,0,1.38,0,2.07c0,0.017,0,0.034,0,0.051
		c0,0.025-0.008,0.046-0.027,0.063c0,0,0.001,0,0.001,0C8.164,4.29,8.159,4.286,8.152,4.283l0.001,0.001
		C8.151,4.277,8.146,4.273,8.14,4.27l0.001,0.001C8.138,4.265,8.133,4.26,8.127,4.257l0.001,0.001
		C8.125,4.252,8.12,4.247,8.115,4.244l0.001,0.001c-0.003-0.005-0.008-0.01-0.013-0.014l0,0C8.099,4.226,8.094,4.222,8.09,4.218
		c-0.026-0.025-0.052-0.05-0.077-0.076C7.912,4.035,7.812,3.928,7.712,3.821C7.735,3.78,7.735,3.735,7.735,3.69
		c0-0.659,0-1.318,0-1.978c0-0.045-0.012-0.096,0.033-0.131c0.035,0.035,0.07,0.068,0.104,0.104
		c0.083,0.087,0.165,0.174,0.247,0.261c0.009,0.009,0.016,0.02,0.024,0.03c0.002,0.007,0.006,0.013,0.014,0.015L8.156,1.99
		C8.158,1.998,8.162,2.003,8.17,2.004L8.169,2.003c0.002,0.007,0.007,0.012,0.014,0.014L8.182,2.016
		C8.184,2.023,8.188,2.028,8.195,2.03L8.195,2.03z"/>
	<path fill="#FF008A" d="M8.014,11.161c0.028-0.003,0.033-0.025,0.036-0.046c0.003-0.019,0.001-0.038,0.001-0.058
		c0-0.894,0-1.789,0-2.683c0-0.06,0-0.12-0.001-0.18c0.037,0.038,0.074,0.075,0.111,0.113C8.24,8.39,8.319,8.472,8.398,8.556
		c0.006,0.006,0.01,0.014,0.014,0.021C8.419,8.599,8.42,8.622,8.42,8.646c-0.001,0.84,0,1.68-0.001,2.52
		c0,0.038,0.007,0.078-0.021,0.111c-0.083,0.001-0.167,0.002-0.25,0.003c-0.019,0-0.033-0.006-0.045-0.02
		C8.074,11.227,8.044,11.194,8.014,11.161z"/>
	<path fill="#FF002D" d="M8.617,4.771c0.014-0.007,0.025-0.018,0.026-0.034c0.001-0.019,0.001-0.039,0.001-0.058
		c0-0.69,0-1.379,0-2.069c0-0.032-0.004-0.065,0.015-0.094c0.067,0.069,0.134,0.137,0.201,0.207
		c0.118,0.124,0.236,0.248,0.354,0.372c0.069,0.073,0.138,0.146,0.208,0.218C9.435,3.327,9.438,3.34,9.429,3.359
		c-0.018,0.036-0.034,0.074-0.051,0.11C9.329,3.572,9.281,3.674,9.233,3.777C9.131,3.993,9.028,4.21,8.926,4.426
		C8.881,4.523,8.836,4.619,8.79,4.716c-0.024,0.05-0.049,0.1-0.075,0.153C8.674,4.843,8.645,4.807,8.617,4.771z"/>
	<path fill="#FF00D2" d="M6.926,10.018C6.88,9.971,6.832,9.925,6.787,9.877C6.601,9.681,6.415,9.485,6.229,9.29
		c-0.025-0.027-0.025-0.027-0.008-0.06c0.006-0.011,0.012-0.023,0.017-0.034c0.086-0.182,0.171-0.364,0.257-0.546
		C6.597,8.432,6.7,8.216,6.803,7.999c0.043-0.091,0.086-0.182,0.13-0.272C6.94,7.71,6.95,7.693,6.959,7.676
		c0.004-0.005,0.01-0.008,0.009-0.016l0,0c0.035-0.001,0.041,0.025,0.046,0.051C7.02,7.739,7.018,7.767,7.018,7.794
		c0,0.705,0,1.41,0,2.115c0,0.021,0.001,0.043-0.001,0.064C7.01,10.043,6.987,10.054,6.926,10.018z"/>
	<path fill="#FF00C1" d="M6.926,10.018c0.012,0.003,0.025,0.008,0.037,0.009C6.985,10.031,6.995,10.022,6.996,10
		c0.001-0.017,0.001-0.034,0.001-0.051c0-0.732,0-1.465,0-2.197c0-0.015,0-0.03,0-0.045C6.997,7.685,6.986,7.67,6.968,7.66
		c0.058-0.135,0.121-0.267,0.189-0.402c0.038,0.024,0.061,0.06,0.091,0.089c0.03,0.03,0.062,0.058,0.086,0.094
		c-0.001,0.03-0.002,0.06-0.002,0.09c0,0.917,0,1.833,0,2.75c0,0.017,0.001,0.034,0,0.051c-0.001,0.029-0.01,0.055-0.037,0.07
		c-0.013-0.011-0.027-0.021-0.038-0.033c-0.106-0.111-0.213-0.223-0.319-0.334C6.932,10.03,6.93,10.024,6.926,10.018z"/>
	<path fill="#FF0079" d="M8.398,11.277c0-0.871,0-1.742,0-2.614c0-0.03-0.004-0.06,0.013-0.087c0.025,0.023,0.05,0.046,0.074,0.07
		C8.583,8.749,8.68,8.851,8.777,8.954C8.78,8.957,8.782,8.961,8.784,8.965c0.009,0.027,0.009,0.055,0.009,0.083
		c0,0.706,0,1.413,0,2.119c0,0.038,0.007,0.078-0.021,0.111c-0.103,0.001-0.207,0.002-0.31,0.003
		C8.441,11.28,8.419,11.278,8.398,11.277z"/>
	<path fill="#FF0088" d="M7.32,3.407c-0.021-0.02-0.044-0.04-0.064-0.061C7.147,3.232,7.039,3.119,6.931,3.005
		C6.925,2.999,6.921,2.991,6.917,2.984c0.007-0.042,0.008-0.085,0.008-0.128c0-0.595,0-1.19,0-1.785c0-0.017-0.001-0.034,0-0.051
		c0.002-0.043-0.019-0.061-0.062-0.061C6.788,0.96,6.713,0.961,6.638,0.958C6.61,0.957,6.576,0.967,6.561,0.929
		c0.013-0.001,0.025-0.003,0.038-0.003c0.168,0,0.337,0.001,0.505,0c0.033,0,0.056,0.009,0.078,0.033
		c0.048,0.054,0.1,0.105,0.149,0.158C7.341,1.128,7.35,1.14,7.359,1.152c0.012,0.032,0.019,0.065,0.019,0.1
		c0,0.69,0,1.381-0.001,2.071c0,0.037,0.014,0.086-0.045,0.097l0,0C7.327,3.416,7.323,3.412,7.32,3.407z"/>
	<path fill="#FF0071" d="M7.332,3.42c0.014-0.007,0.024-0.018,0.025-0.035c0.001-0.019,0.001-0.039,0.001-0.058
		c0-0.695,0-1.391,0-2.086c0-0.03,0.001-0.06,0.002-0.09c0.023,0.022,0.047,0.043,0.069,0.067c0.109,0.114,0.218,0.228,0.326,0.343
		c0.006,0.006,0.01,0.014,0.014,0.021C7.756,1.616,7.755,1.652,7.755,1.689c0,0.678,0,1.356,0,2.034c0,0.017,0,0.034,0,0.051
		C7.755,3.812,7.754,3.812,7.712,3.821C7.707,3.817,7.701,3.814,7.697,3.809C7.581,3.688,7.466,3.567,7.35,3.445
		C7.343,3.438,7.338,3.428,7.332,3.42z"/>
	<path fill="#FF0063" d="M8.771,11.277c0-0.742,0-1.483,0-2.225c0-0.03-0.005-0.06,0.012-0.088C8.834,9.016,8.886,9.067,8.936,9.12
		c0.074,0.077,0.147,0.155,0.22,0.233c0.01,0.011,0.019,0.023,0.028,0.035c0.011,0.017,0.01,0.036,0.01,0.056
		c-0.004,0.575-0.001,1.149-0.002,1.724c0,0.038,0.007,0.078-0.021,0.111c-0.091,0.001-0.182,0.003-0.272,0.003
		C8.856,11.28,8.814,11.278,8.771,11.277z"/>
	<path fill="#FF0035" d="M9.634,9.862c0.025,0.014,0.042,0.037,0.061,0.056c0.146,0.153,0.292,0.307,0.438,0.46
		c0.016,0.017,0.03,0.036,0.04,0.057c0.07,0.149,0.14,0.298,0.211,0.447c0.06,0.125,0.12,0.251,0.18,0.376
		c0.002,0.004,0.001,0.008,0.003,0.017c-0.019,0.009-0.04,0.005-0.06,0.005c-0.242,0-0.484,0.001-0.725,0
		c-0.053,0-0.107-0.002-0.16-0.003c-0.022-0.025-0.02-0.056-0.02-0.085c0-0.411-0.001-0.823,0-1.234
		C9.6,9.923,9.593,9.883,9.634,9.862z"/>
	<path fill="#FF009D" d="M6.561,0.929C6.575,0.943,6.593,0.938,6.61,0.938c0.088,0,0.176,0,0.264,0c0.073,0,0.072-0.001,0.072,0.069
		c0,0.139,0,0.279,0,0.418c0,0.493,0,0.986,0,1.478c0,0.019,0,0.039-0.002,0.058C6.943,2.978,6.93,2.982,6.917,2.984
		C6.882,2.949,6.847,2.915,6.813,2.88C6.705,2.767,6.597,2.654,6.489,2.541C6.485,2.537,6.483,2.53,6.479,2.525
		c0.027-0.033,0.034-0.071,0.034-0.114c-0.001-0.454,0-0.909-0.001-1.363c0-0.085-0.004-0.088-0.092-0.089
		C6.318,0.958,6.215,0.961,6.112,0.958c-0.067,0.002-0.135,0.002-0.202,0C5.885,0.957,5.853,0.965,5.841,0.929
		C5.854,0.928,5.867,0.926,5.88,0.926c0.214,0,0.429,0,0.643,0.001C6.535,0.927,6.548,0.928,6.561,0.929z"/>
	<path fill="#FF0050" d="M9.634,9.862C9.619,9.884,9.62,9.91,9.621,9.936c0,0.143,0,0.287,0,0.43c0,0.304,0,0.608,0,0.911
		c-0.036,0.001-0.072,0.003-0.108,0.003c-0.093,0-0.186,0-0.279,0c-0.021,0-0.042-0.002-0.063-0.003c0-0.596,0-1.193,0-1.789
		c0-0.034,0.002-0.068,0.013-0.101C9.196,9.398,9.21,9.408,9.221,9.42c0.112,0.117,0.223,0.234,0.334,0.352
		c0.01,0.011,0.019,0.023,0.028,0.035C9.585,9.815,9.59,9.82,9.597,9.823L9.596,9.821C9.598,9.828,9.603,9.833,9.61,9.836
		L9.609,9.835c0.003,0.006,0.007,0.011,0.013,0.014L9.621,9.848C9.624,9.854,9.629,9.859,9.634,9.862L9.634,9.862z"/>
	<path fill="#FF00B5" d="M6.109,0.939c0.122,0,0.244,0,0.366,0c0.011,0,0.021,0,0.032,0.001c0.015,0.001,0.024,0.009,0.025,0.024
		c0.001,0.015,0.001,0.03,0.001,0.045c0,0.482,0,0.964,0,1.445c0,0.002,0,0.004,0,0.006C6.533,2.514,6.533,2.514,6.479,2.525
		c0,0,0-0.001,0-0.001c0-0.009-0.005-0.014-0.014-0.015l0.001,0.001C6.466,2.503,6.461,2.498,6.453,2.496l0.001,0.001
		C6.453,2.49,6.448,2.485,6.441,2.483l0.001,0.001C6.44,2.477,6.435,2.473,6.428,2.47C6.401,2.443,6.372,2.417,6.346,2.39
		C6.258,2.297,6.17,2.204,6.082,2.111c-0.004-0.005-0.007-0.01-0.011-0.016C6.109,1.748,6.08,1.399,6.089,1.05
		C6.09,1.012,6.082,0.972,6.109,0.939z"/>
	<path fill="#FF00CB" d="M6.109,0.939c0,0.34,0,0.68,0.001,1.021c0,0.037-0.008,0.072-0.015,0.107
		C6.093,2.081,6.084,2.09,6.072,2.095c-0.008-0.007-0.017-0.012-0.025-0.02c-0.149-0.156-0.298-0.313-0.448-0.47
		C5.584,1.59,5.573,1.572,5.564,1.553C5.492,1.407,5.42,1.261,5.349,1.115C5.322,1.061,5.29,1.011,5.27,0.954
		C5.269,0.949,5.267,0.945,5.264,0.941C5.265,0.937,5.265,0.93,5.267,0.93c0.013-0.002,0.025-0.004,0.038-0.004
		c0.171,0,0.341,0,0.512,0c0.008,0,0.017,0.001,0.025,0.002c0.014,0.014,0.031,0.009,0.048,0.009
		C5.963,0.939,6.036,0.939,6.109,0.939z"/>
	<path fill="#FF009D" d="M5.264,0.941C5.27,0.944,5.272,0.948,5.27,0.954C5.264,0.951,5.262,0.947,5.264,0.941z"/>
	<path fill="#FF0043" d="M8.157,1.992C8.149,1.99,8.144,1.985,8.143,1.977C8.15,1.979,8.155,1.984,8.157,1.992z"/>
	<path fill="#FF0043" d="M8.17,2.004C8.162,2.003,8.157,1.998,8.156,1.99C8.163,1.992,8.168,1.997,8.17,2.004z"/>
	<path fill="#FF0043" d="M8.183,2.017C8.175,2.016,8.17,2.011,8.169,2.003C8.176,2.005,8.181,2.009,8.183,2.017z"/>
	<path fill="#FF0043" d="M8.195,2.03C8.188,2.029,8.183,2.024,8.182,2.016C8.189,2.018,8.194,2.023,8.195,2.03z"/>
	<path fill="#FF009D" d="M6.428,2.47c0.008,0.002,0.013,0.007,0.014,0.015C6.434,2.483,6.43,2.478,6.428,2.47z"/>
	<path fill="#FF009D" d="M6.441,2.483C6.449,2.485,6.454,2.49,6.455,2.498C6.447,2.496,6.442,2.491,6.441,2.483z"/>
	<path fill="#FF009D" d="M6.453,2.496c0.008,0.001,0.013,0.006,0.014,0.015C6.459,2.509,6.455,2.504,6.453,2.496z"/>
	<path fill="#FF009D" d="M6.466,2.51c0.009,0.001,0.013,0.006,0.014,0.015C6.472,2.523,6.467,2.518,6.466,2.51z"/>
	<path fill="#FF00C1" d="M6.968,7.66c0.001,0.007-0.003,0.013-0.009,0.016C6.958,7.669,6.961,7.663,6.968,7.66z"/>
	<path fill="#FF0071" d="M7.32,3.407C7.324,3.411,7.327,3.416,7.331,3.42C7.324,3.419,7.32,3.415,7.32,3.407z"/>
	<path fill="#FF0043" d="M8.09,4.218c0.004,0.004,0.008,0.009,0.013,0.013C8.096,4.229,8.091,4.225,8.09,4.218z"/>
	<path fill="#FF0043" d="M8.103,4.231C8.107,4.235,8.111,4.24,8.115,4.244C8.108,4.242,8.104,4.238,8.103,4.231z"/>
	<path fill="#FF0043" d="M8.115,4.244c0.004,0.005,0.009,0.009,0.013,0.014C8.121,4.256,8.116,4.251,8.115,4.244z"/>
	<path fill="#FF0043" d="M8.127,4.257c0.007,0.002,0.012,0.007,0.014,0.014C8.133,4.269,8.129,4.264,8.127,4.257z"/>
	<path fill="#FF0043" d="M8.14,4.27c0.007,0.002,0.012,0.007,0.014,0.014C8.146,4.282,8.141,4.277,8.14,4.27z"/>
	<path fill="#FF0043" d="M8.152,4.283C8.16,4.285,8.164,4.289,8.166,4.297C8.159,4.295,8.154,4.291,8.152,4.283z"/>
	<path fill="#FF0035" d="M9.597,9.823C9.589,9.82,9.585,9.815,9.584,9.807C9.591,9.81,9.596,9.815,9.597,9.823z"/>
	<path fill="#FF0035" d="M9.61,9.836C9.602,9.834,9.598,9.829,9.596,9.821C9.604,9.823,9.608,9.828,9.61,9.836z"/>
	<path fill="#FF0035" d="M9.622,9.849C9.615,9.847,9.61,9.842,9.609,9.835C9.616,9.837,9.621,9.841,9.622,9.849z"/>
	<path fill="#FF0035" d="M9.635,9.862C9.628,9.86,9.623,9.855,9.621,9.848C9.629,9.85,9.633,9.855,9.635,9.862z"/>
	<path fill="#FF009C" d="M7.637,10.764c0.008,0.002,0.013,0.007,0.015,0.015C7.643,10.777,7.639,10.771,7.637,10.764z"/>
	<path fill="#FF008A" d="M8.001,11.148c0.004,0.004,0.008,0.008,0.012,0.012C8.006,11.159,8.002,11.155,8.001,11.148z"/>
	<path fill="#666666" d="M25.918,9.327c-0.024-0.027-0.048-0.054-0.073-0.08c-0.127-0.133-0.255-0.266-0.382-0.399
		c-0.163-0.171-0.325-0.342-0.487-0.513c-0.182-0.191-0.364-0.381-0.546-0.572c-0.167-0.175-0.333-0.351-0.5-0.527
		c-0.09-0.095-0.18-0.189-0.271-0.284c-0.01-0.011-0.021-0.022-0.031-0.033c-0.016-0.016-0.016-0.033-0.007-0.053
		c0.019-0.039,0.035-0.078,0.054-0.117c0.064-0.135,0.13-0.27,0.194-0.406c0.041-0.087,0.08-0.175,0.121-0.262
		c0.013-0.028,0.012-0.052-0.001-0.079c-0.056-0.116-0.11-0.232-0.164-0.348c-0.071-0.151-0.142-0.302-0.214-0.453
		c-0.069-0.145-0.14-0.289-0.209-0.434c-0.037-0.077-0.072-0.155-0.109-0.233c-0.062-0.129-0.125-0.258-0.186-0.388
		c-0.03-0.064-0.058-0.129-0.089-0.193c-0.026-0.056-0.055-0.111-0.082-0.168c-0.083-0.174-0.165-0.348-0.247-0.523
		c-0.041-0.087-0.083-0.174-0.124-0.261c-0.005-0.011-0.011-0.022-0.016-0.045c0.057,0.059,0.105,0.109,0.154,0.16
		c0.107,0.112,0.213,0.223,0.319,0.335c0.093,0.098,0.186,0.195,0.279,0.293c0.162,0.171,0.325,0.342,0.487,0.513
		c0.086,0.09,0.172,0.18,0.257,0.27c0.162,0.171,0.325,0.342,0.487,0.513c0.078,0.082,0.156,0.165,0.235,0.247
		c0.015,0.016,0.019,0.03,0.009,0.051c-0.057,0.117-0.114,0.235-0.17,0.353c-0.04,0.083-0.078,0.167-0.117,0.25
		c-0.032,0.068-0.063,0.136-0.097,0.203c-0.012,0.023-0.013,0.043,0,0.066c0.044,0.086,0.087,0.172,0.129,0.259
		c0.123,0.25,0.246,0.499,0.369,0.749c0.052,0.106,0.1,0.214,0.156,0.317c0.063,0.115,0.109,0.237,0.176,0.35
		c0.017,0.029,0.029,0.062,0.044,0.093c0.104,0.209,0.208,0.418,0.311,0.627c0.11,0.223,0.219,0.446,0.329,0.669
		c0.007,0.015,0.014,0.03,0.021,0.045C25.924,9.323,25.921,9.325,25.918,9.327z"/>
	<path fill="#666666" d="M24.414,11.246c-0.004,0.007-0.01,0.007-0.016,0.007c-0.938,0-1.877,0-2.812,0
		c-0.01-0.015-0.004-0.024,0.001-0.034c0.065-0.135,0.13-0.27,0.194-0.405c0.027-0.056,0.052-0.113,0.078-0.169
		c0.077-0.163,0.154-0.325,0.231-0.487c0.036-0.076,0.069-0.152,0.104-0.228c0.018-0.039,0.038-0.077,0.056-0.115
		c0.087-0.184,0.173-0.368,0.259-0.552c0.002-0.003,0.006-0.006,0.009-0.009c0.001,0,0.004-0.001,0.006-0.001
		c0.002,0,0.004,0.002,0.006,0.003c0.071,0.074,0.143,0.148,0.214,0.223c0.557,0.587,1.114,1.174,1.671,1.762
		C24.416,11.241,24.414,11.244,24.414,11.246z"/>
	<path fill="#666666" d="M26.118,2.503c-0.01-0.006-0.017-0.009-0.021-0.013c-0.502-0.527-1.004-1.055-1.505-1.583
		c-0.002-0.003-0.002-0.008-0.003-0.011c0.001-0.002,0.001-0.004,0.003-0.006c0.001-0.001,0.004-0.001,0.006-0.001
		c0.748,0,1.495-0.001,2.243-0.001c0.011,0,0.021,0.001,0.031,0.002c0.01,0.015,0.001,0.027-0.004,0.037
		c-0.038,0.072-0.071,0.146-0.105,0.22c-0.022,0.049-0.048,0.096-0.07,0.144c-0.088,0.188-0.176,0.376-0.264,0.564
		c-0.058,0.122-0.117,0.243-0.175,0.364c-0.035,0.073-0.069,0.147-0.103,0.221C26.139,2.46,26.13,2.479,26.118,2.503z"/>
	<path fill="#FF0078" d="M23.191,0.891c0.021-0.001,0.043-0.003,0.064-0.003c0.229,0,0.458,0,0.688,0c0.068,0,0.069,0,0.115,0.051
		c0.007,0.008,0.013,0.017,0.019,0.025c0.008,0.023,0.009,0.046,0.009,0.07c-0.001,0.923,0,1.846-0.001,2.769
		c0,0.034,0.004,0.069-0.013,0.101c-0.008,0.014-0.019,0.023-0.037,0.019c-0.016-0.014-0.033-0.028-0.047-0.043
		c-0.131-0.138-0.263-0.276-0.393-0.415c-0.025-0.026-0.055-0.047-0.073-0.08c0.027-0.033,0.034-0.072,0.034-0.114
		c0-0.755,0-1.51-0.001-2.265c0-0.082-0.004-0.086-0.088-0.086C23.399,0.92,23.33,0.922,23.262,0.92
		C23.236,0.919,23.204,0.926,23.191,0.891z"/>
	<path fill="#FF0062" d="M24.035,3.923c0.017-0.007,0.028-0.019,0.029-0.039c0-0.019,0.001-0.039,0.001-0.058
		c0-0.925,0-1.85,0-2.775c0-0.03-0.005-0.06,0.013-0.088c0.038,0.037,0.076,0.074,0.113,0.112c0.097,0.101,0.193,0.204,0.29,0.306
		c0.004,0.005,0.007,0.01,0.011,0.016c0.008,0.018,0.009,0.037,0.009,0.056c-0.005,0.924-0.001,1.848-0.002,2.772
		c0,0.032,0.003,0.064-0.004,0.096c-0.005,0.022-0.009,0.05-0.044,0.037c-0.005-0.004-0.011-0.007-0.015-0.011
		c-0.122-0.128-0.244-0.257-0.366-0.386C24.055,3.951,24.046,3.937,24.035,3.923z"/>
	<path fill="#FF004E" d="M24.448,4.36c0.013-0.003,0.025-0.007,0.026-0.023c0.001-0.021,0.001-0.043,0.001-0.064
		c0-0.92,0-1.84,0-2.761c0-0.039,0.002-0.077,0.015-0.114c0.049,0.05,0.099,0.099,0.147,0.149c0.065,0.067,0.128,0.135,0.192,0.203
		c0.011,0.012,0.021,0.026,0.032,0.039c0.02,0.032,0.022,0.069,0.022,0.105c0,0.918,0,1.836,0,2.754c0,0.024,0.001,0.047-0.005,0.07
		c-0.007,0.025-0.015,0.052-0.052,0.038l-0.002-0.002c-0.005-0.001-0.008-0.004-0.009-0.009c-0.086-0.089-0.173-0.178-0.259-0.267
		C24.519,4.44,24.484,4.399,24.448,4.36z"/>
	<path fill="#FF0094" d="M23.191,0.891C23.206,0.904,23.224,0.9,23.24,0.9c0.092,0,0.184,0,0.276,0.001
		c0.058,0,0.058,0.001,0.059,0.056c0,0.011,0,0.021,0,0.032c0,0.769,0,1.538,0,2.307c0,0.011,0,0.021,0,0.032
		c-0.001,0.048-0.001,0.048-0.054,0.058c0,0,0,0,0,0c-0.001-0.008-0.006-0.013-0.014-0.015l0.001,0.001
		c-0.002-0.008-0.007-0.012-0.014-0.015l0.001,0.001c-0.002-0.007-0.007-0.011-0.014-0.014l0.001,0.001
		c-0.003-0.006-0.007-0.011-0.013-0.014l0.001,0.001c-0.003-0.006-0.008-0.01-0.013-0.014l0.001,0.001
		c-0.003-0.005-0.008-0.01-0.013-0.014l0,0c-0.004-0.005-0.009-0.009-0.013-0.013c-0.01-0.008-0.02-0.015-0.029-0.024
		c-0.116-0.122-0.233-0.244-0.349-0.366c-0.009-0.009-0.015-0.02-0.023-0.03c0.026-0.034,0.034-0.072,0.034-0.114
		c0-0.583,0-1.166-0.001-1.748c0-0.083-0.005-0.087-0.087-0.087c-0.088-0.001-0.176,0.001-0.264-0.001
		c-0.028-0.001-0.062,0.009-0.077-0.029c0.017-0.001,0.034-0.003,0.051-0.003c0.151,0,0.301,0,0.452,0
		C23.158,0.888,23.174,0.89,23.191,0.891z"/>
	<path fill="#FF003A" d="M24.826,4.757c0.02-0.001,0.032-0.011,0.035-0.031c0.002-0.013,0.001-0.026,0.001-0.038
		c0-0.959,0-1.919,0-2.878c0-0.006,0-0.013,0-0.019c0.02,0.019,0.041,0.037,0.06,0.057c0.113,0.119,0.226,0.237,0.338,0.356
		c0.006,0.006,0.01,0.014,0.014,0.021c0.018,0.031,0.02,0.064,0.02,0.099c0,0.596,0,1.192,0,1.788c0,0.045-0.007,0.089-0.005,0.134
		c-0.018,0.057-0.047,0.11-0.072,0.164c-0.023,0.05-0.048,0.1-0.072,0.15c-0.051,0.108-0.102,0.216-0.153,0.324
		c-0.005,0.01-0.009,0.019-0.023,0.027C24.922,4.859,24.868,4.813,24.826,4.757z"/>
	<path fill="#FF00AB" d="M22.638,0.89C22.655,0.905,22.675,0.9,22.693,0.9c0.109,0.001,0.218,0,0.327,0.001
		c0.066,0,0.066,0,0.066,0.068c0,0.607,0,1.214,0,1.821c0,0.006,0,0.013,0,0.019c-0.001,0.049-0.001,0.049-0.054,0.062
		c0,0,0.001,0,0.001,0c-0.001-0.009-0.008-0.012-0.015-0.015c-0.021-0.021-0.044-0.04-0.064-0.062
		c-0.134-0.141-0.267-0.281-0.401-0.422c-0.009-0.009-0.016-0.02-0.024-0.03c0.005-0.04,0.009-0.081,0.009-0.121c0-0.4,0-0.8,0-1.2
		c0-0.098-0.002-0.099-0.101-0.099c-0.105,0-0.21,0.001-0.315-0.001c-0.027-0.001-0.062,0.009-0.076-0.029
		c0.008-0.001,0.017-0.003,0.025-0.003c0.18,0,0.361,0,0.541,0C22.621,0.888,22.63,0.89,22.638,0.89z"/>
	<path fill="#FF00AE" d="M24.102,10.313c-0.03-0.03-0.061-0.059-0.09-0.09c-0.101-0.106-0.201-0.213-0.301-0.32
		c0.024-0.046,0.023-0.095,0.023-0.144c0-0.66,0-1.319,0.001-1.979c0-0.041-0.013-0.088,0.033-0.116
		c0.038,0.037,0.076,0.074,0.113,0.113c0.083,0.087,0.164,0.174,0.246,0.261c0.01,0.011,0.019,0.023,0.028,0.034
		c0.017,0.033,0.02,0.069,0.02,0.106c0,0.684,0,1.368-0.001,2.052c0,0.04,0.017,0.094-0.047,0.109l0.001,0
		c-0.003-0.006-0.008-0.01-0.013-0.014l0.001,0.001C24.112,10.321,24.107,10.317,24.102,10.313z"/>
	<path fill="#FF00CB" d="M22.047,0.89C22.063,0.905,22.083,0.9,22.102,0.9C22.23,0.9,22.359,0.9,22.487,0.9
		c0.076,0,0.072-0.002,0.072,0.075c0,0.428,0,0.855,0,1.283c0,0.015,0,0.03-0.001,0.045c-0.001,0.019-0.012,0.031-0.029,0.039
		c-0.011-0.01-0.023-0.018-0.034-0.029c-0.128-0.135-0.256-0.27-0.385-0.405c-0.035-0.037-0.07-0.075-0.107-0.111
		c-0.023-0.023-0.039-0.05-0.053-0.08c-0.056-0.12-0.113-0.24-0.17-0.359c-0.065-0.135-0.13-0.27-0.194-0.405
		c-0.008-0.017-0.02-0.033-0.02-0.053c0-0.002,0-0.005,0-0.007c0.012-0.007,0.025-0.005,0.037-0.005c0.139,0,0.277,0,0.416,0
		C22.03,0.888,22.038,0.889,22.047,0.89z"/>
	<path fill="#FF0099" d="M24.128,10.339c0.017-0.008,0.026-0.021,0.027-0.04c0-0.019,0-0.039,0-0.058c0-0.695,0-1.391,0-2.086
		c0-0.028,0.001-0.056,0.001-0.083c0.007,0.005,0.015,0.009,0.021,0.015c0.114,0.119,0.227,0.239,0.341,0.359
		c0.004,0.005,0.007,0.011,0.01,0.016c0.017,0.026,0.021,0.055,0.021,0.086c0,0.687,0,1.374,0,2.061c0,0.017,0,0.034-0.005,0.051
		c-0.01,0.037-0.03,0.056-0.07,0.041l0.001,0.001c-0.002-0.009-0.008-0.013-0.017-0.015c-0.071-0.074-0.144-0.146-0.213-0.221
		C24.205,10.424,24.161,10.387,24.128,10.339z"/>
	<path fill="#FF0072" d="M25.247,11.238c-0.081,0.001-0.163,0.002-0.244,0.003c-0.013,0-0.025-0.003-0.034-0.013
		c-0.035-0.041-0.079-0.072-0.108-0.117c0.013-0.717,0.002-1.434,0.006-2.151c0-0.039-0.01-0.082,0.022-0.116
		c0.011,0.01,0.024,0.018,0.034,0.029c0.116,0.122,0.233,0.244,0.349,0.367c0.006,0.006,0.01,0.014,0.014,0.021
		c0.008,0.023,0.008,0.046,0.008,0.07c-0.001,0.591,0,1.181-0.001,1.772C25.294,11.151,25.303,11.206,25.247,11.238z"/>
	<path fill="#FF0087" d="M24.889,8.843c-0.001,0.028-0.001,0.056-0.002,0.084c0,0.692,0,1.384,0,2.076c0,0.017,0,0.034,0,0.051
		c-0.001,0.022-0.008,0.042-0.026,0.056c-0.036-0.036-0.073-0.072-0.108-0.109c-0.087-0.091-0.174-0.183-0.26-0.275
		c-0.007-0.008-0.013-0.017-0.019-0.025c0.008-0.001,0.017-0.002,0.025-0.004c0.017-0.004,0.026-0.015,0.028-0.031
		c0.002-0.021,0.001-0.043,0.001-0.064c0-0.713,0-1.427,0-2.14c0.029,0.028,0.058,0.056,0.086,0.086
		c0.087,0.091,0.174,0.183,0.261,0.275C24.88,8.828,24.884,8.836,24.889,8.843z"/>
	<path fill="#FF00C4" d="M23.769,7.664c-0.008,0.015-0.014,0.031-0.013,0.049c0.001,0.017,0,0.034,0,0.051c0,0.679,0,1.357,0,2.036
		c0,0.019,0,0.039,0,0.058c0,0.029-0.016,0.042-0.044,0.045c-0.005-0.004-0.011-0.007-0.015-0.011
		c-0.107-0.113-0.215-0.225-0.322-0.338c-0.007-0.008-0.012-0.017-0.019-0.025c0.015-0.052,0.019-0.105,0.019-0.159
		c0-0.593,0-1.186,0-1.779c0-0.053,0-0.107-0.017-0.158c0.012-0.043,0.034-0.082,0.054-0.122c0.004-0.009,0.013-0.01,0.021-0.004
		c0.003,0.002,0.006,0.006,0.009,0.009c0.107,0.113,0.214,0.225,0.32,0.338C23.765,7.656,23.767,7.66,23.769,7.664z"/>
	<path fill="#FF00D5" d="M23.358,7.432c0.008,0.002,0.018,0.003,0.021,0.012c0.008,0.022,0.018,0.043,0.016,0.068
		c-0.001,0.011,0,0.021,0,0.032c0,0.625,0,1.249,0,1.874c0,0.032,0,0.064-0.014,0.094c-0.005,0.011-0.014,0.015-0.025,0.017
		c0,0,0,0,0,0c-0.003-0.005-0.008-0.009-0.013-0.013l0,0c-0.004-0.004-0.008-0.009-0.012-0.013l0,0
		c-0.005-0.004-0.008-0.008-0.012-0.013l-0.001-0.001c-0.005-0.003-0.009-0.007-0.011-0.012c-0.022-0.021-0.044-0.04-0.065-0.062
		c-0.127-0.133-0.253-0.267-0.38-0.401c-0.049-0.051-0.097-0.103-0.147-0.153c-0.018-0.018-0.02-0.035-0.009-0.057
		c0.053-0.11,0.105-0.22,0.156-0.33c0.079-0.168,0.157-0.337,0.237-0.505c0.062-0.131,0.125-0.262,0.188-0.393
		c0.005-0.009,0.011-0.018,0.016-0.027c0.009-0.007,0.007-0.019,0.013-0.027c-0.001-0.005,0-0.008,0.004-0.011
		c0.003-0.005,0.006-0.01,0.008-0.015c-0.001-0.004,0-0.008,0.004-0.01c0.003-0.005,0.008-0.01,0.009-0.017
		c-0.001-0.004,0-0.007,0.003-0.009c0.004-0.005,0.009-0.01,0.009-0.018C23.353,7.436,23.354,7.434,23.358,7.432z"/>
	<path fill="#FF005D" d="M25.247,11.238c0.021-0.034,0.026-0.07,0.026-0.11c-0.001-0.594-0.001-1.188,0-1.782
		c0-0.03-0.005-0.06,0.013-0.087c0.032,0.031,0.064,0.062,0.095,0.094c0.1,0.105,0.2,0.21,0.299,0.316
		c0.003,0.003,0.004,0.007,0.006,0.011c0.011,0.042,0.006,0.085,0.006,0.128c0,0.433,0,0.865,0,1.298
		c0,0.047,0.005,0.095-0.034,0.133c-0.095,0.001-0.19,0.002-0.285,0.003C25.332,11.241,25.29,11.239,25.247,11.238z"/>
	<path fill="#FF0024" d="M25.289,4.245c-0.02-0.014-0.024-0.036-0.02-0.057c0.006-0.03,0.003-0.06,0.003-0.09
		c0-0.597,0-1.194,0-1.792c0-0.028,0-0.056,0.001-0.083c0.048,0.048,0.097,0.096,0.144,0.146c0.135,0.141,0.268,0.282,0.403,0.423
		c0.029,0.031,0.058,0.063,0.088,0.094c0.014,0.014,0.016,0.028,0.007,0.046c-0.033,0.069-0.065,0.139-0.098,0.209
		c-0.016,0.033-0.033,0.065-0.048,0.098c-0.081,0.172-0.161,0.345-0.243,0.517c-0.073,0.155-0.147,0.309-0.221,0.463
		C25.301,4.227,25.295,4.236,25.289,4.245z"/>
	<path fill="#FF0048" d="M25.659,11.238c0.017-0.063,0.013-0.127,0.013-0.19c0-0.427,0-0.854,0-1.281c0-0.03-0.003-0.06,0.015-0.087
		c0.048,0.048,0.096,0.096,0.144,0.146c0.074,0.077,0.147,0.155,0.22,0.233c0.012,0.012,0.022,0.026,0.032,0.039
		c0.011,0.015,0.01,0.032,0.01,0.049c-0.004,0.329,0,0.659-0.002,0.988c0,0.037,0.008,0.079-0.033,0.104
		c-0.099,0.001-0.198,0.002-0.298,0.003C25.726,11.241,25.693,11.239,25.659,11.238z"/>
	<path fill="#FF0032" d="M26.058,11.238c0.016-0.025,0.013-0.053,0.013-0.081c0-0.322,0-0.644,0-0.966
		c0-0.032,0.002-0.064,0.012-0.094c0.013,0.011,0.027,0.021,0.038,0.034c0.136,0.143,0.271,0.286,0.407,0.429
		c0.021,0.022,0.037,0.047,0.05,0.074c0.094,0.192,0.189,0.384,0.284,0.576c0.002,0.004,0.004,0.008,0.005,0.012
		c0.002,0.01-0.002,0.017-0.012,0.018c-0.011,0.001-0.021,0.001-0.032,0.001c-0.244,0-0.489,0-0.733,0
		C26.079,11.241,26.068,11.239,26.058,11.238z"/>
	<path fill="#FF00C4" d="M23.317,7.52c0.001,0.012-0.001,0.022-0.013,0.027C23.304,7.536,23.308,7.527,23.317,7.52z"/>
	<polygon fill="#FF00AB" points="21.568,0.893 21.568,0.9 21.564,0.893 	"/>
	<path fill="#FF003A" d="M24.815,4.746c0.004,0.002,0.007,0.005,0.009,0.009C24.819,4.754,24.816,4.751,24.815,4.746z"/>
	<path fill="#FF0094" d="M23.019,2.856c0.008,0.002,0.013,0.006,0.015,0.015C23.026,2.869,23.021,2.864,23.019,2.856z"/>
	<path fill="#FF0078" d="M23.434,3.292c0.004,0.004,0.009,0.009,0.013,0.013C23.44,3.304,23.435,3.299,23.434,3.292z"/>
	<path fill="#FF0078" d="M23.446,3.305c0.004,0.005,0.009,0.009,0.013,0.014C23.452,3.317,23.448,3.312,23.446,3.305z"/>
	<path fill="#FF0078" d="M23.459,3.318c0.007,0.002,0.011,0.007,0.013,0.014C23.464,3.33,23.46,3.326,23.459,3.318z"/>
	<path fill="#FF0078" d="M23.471,3.331c0.007,0.002,0.012,0.007,0.013,0.014C23.477,3.343,23.473,3.339,23.471,3.331z"/>
	<path fill="#FF00C4" d="M23.355,7.44c0,0.008-0.003,0.014-0.009,0.018C23.345,7.45,23.348,7.444,23.355,7.44z"/>
	<path fill="#FF00C4" d="M23.342,7.467c0,0.007-0.003,0.013-0.009,0.017C23.333,7.476,23.336,7.47,23.342,7.467z"/>
	<path fill="#FF00C4" d="M23.33,7.493c-0.003,0.005-0.006,0.01-0.008,0.015C23.321,7.502,23.323,7.496,23.33,7.493z"/>
	<path fill="#FF0078" d="M23.484,3.344c0.008,0.002,0.012,0.007,0.014,0.014C23.489,3.357,23.485,3.352,23.484,3.344z"/>
	<path fill="#FF0078" d="M23.496,3.357c0.008,0.002,0.012,0.007,0.014,0.015C23.502,3.37,23.497,3.365,23.496,3.357z"/>
	<path fill="#FF0078" d="M23.508,3.371c0.008,0.002,0.013,0.006,0.014,0.015C23.514,3.383,23.51,3.378,23.508,3.371z"/>
	<path fill="#FF00C4" d="M23.307,9.476c0.004,0.004,0.008,0.008,0.011,0.012C23.312,9.487,23.308,9.483,23.307,9.476z"/>
	<path fill="#FF00C4" d="M23.32,9.489c0.004,0.004,0.008,0.008,0.012,0.013C23.324,9.501,23.32,9.497,23.32,9.489z"/>
	<path fill="#FF00C4" d="M23.332,9.502c0.004,0.004,0.008,0.009,0.012,0.013C23.337,9.514,23.333,9.51,23.332,9.502z"/>
	<path fill="#FF00C4" d="M23.344,9.515c0.004,0.004,0.008,0.009,0.013,0.013C23.349,9.527,23.345,9.523,23.344,9.515z"/>
	<path fill="#FF0099" d="M24.102,10.313c0.004,0.005,0.009,0.009,0.013,0.014C24.108,10.325,24.104,10.32,24.102,10.313z"/>
	<path fill="#FF0099" d="M24.115,10.326c0.007,0.002,0.011,0.007,0.013,0.014C24.12,10.338,24.116,10.333,24.115,10.326z"/>
	<path fill="#FF0087" d="M24.458,10.687c0.009,0.001,0.014,0.006,0.017,0.015C24.466,10.7,24.461,10.695,24.458,10.687z"/>
	<path fill="#FF007F" d="M3.038,2.032c0.014-0.046,0.044-0.083,0.066-0.124C3.161,1.8,3.22,1.693,3.277,1.585
		C3.281,1.578,3.284,1.57,3.295,1.566c0.013,0,0.014,0.013,0.018,0.022c0.064,0.123,0.128,0.247,0.191,0.371
		c0.02,0.04,0.048,0.076,0.06,0.12c0.018,0.053,0.006,0.106,0.006,0.16c0.001,0.27,0,0.54,0,0.81c0,2.267,0,4.534,0,6.801
		c0,0.032,0.001,0.064-0.007,0.096c-0.006,0.014-0.01,0.028-0.017,0.041C3.475,10.124,3.403,10.262,3.33,10.4
		c-0.005,0.009-0.011,0.017-0.019,0.029c-0.008-0.012-0.014-0.02-0.019-0.029c-0.052-0.098-0.103-0.197-0.155-0.295
		c-0.032-0.061-0.064-0.121-0.096-0.181c-0.008-0.015-0.019-0.029-0.02-0.047C3.047,9.837,3.04,9.793,3.04,9.751
		c0-0.806,0-1.611,0-2.417c0-1.735,0-3.471,0-5.206C3.04,2.096,3.047,2.064,3.038,2.032z"/>
	<path fill="#FF0065" d="M3.564,9.944C3.552,9.908,3.549,9.87,3.549,9.831c0-2.538,0-5.075-0.001-7.613
		c0-0.048,0.014-0.093,0.016-0.14C3.57,2.087,3.577,2.096,3.582,2.105c0.061,0.118,0.122,0.236,0.183,0.353
		c0.092,0.177,0.184,0.353,0.275,0.53c0.01,0.019,0.023,0.036,0.026,0.058c0.008,0.07,0.006,0.141,0.006,0.212
		c0,1.864,0,3.727,0,5.591c0,0.043-0.007,0.085-0.005,0.128C4.045,9.037,4.011,9.092,3.983,9.15
		C3.967,9.182,3.948,9.213,3.932,9.246C3.815,9.47,3.699,9.694,3.582,9.918C3.577,9.927,3.57,9.936,3.564,9.944z"/>
	<path fill="#FF0095" d="M3.038,2.032C3.052,2.04,3.06,2.052,3.061,2.069c0,0.017,0,0.034,0,0.051c0,2.562,0,5.125,0,7.687
		c0,0.019,0,0.039-0.001,0.058C3.06,9.881,3.054,9.883,3.034,9.88C3.029,9.879,3.025,9.877,3.021,9.876c0,0,0,0.001,0,0.001
		C3.019,9.872,3.016,9.868,3.013,9.863C3.009,9.86,3.008,9.857,3.009,9.852C3.006,9.847,3.003,9.842,3,9.837
		C2.996,9.834,2.995,9.831,2.996,9.826C2.993,9.821,2.99,9.816,2.987,9.811c-0.004-0.003-0.005-0.006-0.004-0.01
		C2.98,9.796,2.977,9.791,2.974,9.786C2.97,9.783,2.969,9.78,2.97,9.776C2.968,9.77,2.964,9.765,2.961,9.76
		C2.942,9.727,2.922,9.694,2.904,9.661C2.82,9.5,2.737,9.34,2.654,9.179C2.635,9.142,2.606,9.109,2.597,9.066
		c0.02-0.035,0.019-0.074,0.018-0.113c0-2.025,0.001-4.05,0-6.076c0-0.017-0.002-0.034-0.006-0.051
		c0.005-0.031,0.027-0.053,0.041-0.079C2.724,2.61,2.797,2.472,2.871,2.335c0.037-0.068,0.075-0.134,0.113-0.201
		c0.005-0.005,0.01-0.01,0.01-0.018c-0.001-0.004,0-0.006,0.004-0.008c0.004-0.005,0.009-0.01,0.01-0.017
		c-0.001-0.004,0-0.007,0.004-0.009c0.004-0.005,0.008-0.01,0.009-0.016C3.02,2.062,3.022,2.059,3.025,2.057
		c0.003-0.005,0.006-0.01,0.009-0.015C3.033,2.037,3.034,2.034,3.038,2.032z"/>
	<path fill="#FF00A9" d="M2.61,2.827c0.016,0.009,0.027,0.021,0.027,0.041c0,0.017,0,0.034,0,0.051c0,2.022,0,4.043,0,6.065
		c0,0.015,0,0.03,0,0.045C2.635,9.058,2.635,9.058,2.597,9.066c0,0,0,0,0,0C2.594,9.062,2.591,9.058,2.589,9.053
		C2.585,9.05,2.583,9.047,2.584,9.042c-0.003-0.005-0.006-0.01-0.009-0.015C2.572,9.025,2.57,9.021,2.571,9.017
		c-0.003-0.005-0.006-0.01-0.009-0.015c-0.004-0.002-0.005-0.006-0.004-0.01c-0.002-0.006-0.006-0.01-0.009-0.016
		c-0.053-0.1-0.106-0.199-0.159-0.299C2.316,8.537,2.242,8.397,2.169,8.258C2.16,8.241,2.148,8.225,2.146,8.205
		C2.172,8.16,2.165,8.109,2.165,8.061c0-1.19,0-2.38,0-3.571c0-0.255,0.001-0.509-0.001-0.764c0-0.021,0-0.043-0.006-0.063
		c0.003-0.008,0.004-0.016,0.008-0.024c0.097-0.18,0.194-0.36,0.291-0.54c0.038-0.069,0.077-0.137,0.116-0.206
		c0.004-0.005,0.008-0.01,0.009-0.016c-0.001-0.004,0-0.007,0.004-0.009c0.003-0.005,0.007-0.009,0.009-0.015
		c-0.001-0.004,0.001-0.008,0.004-0.01C2.604,2.837,2.607,2.832,2.61,2.827L2.61,2.827z"/>
	<path fill="#FF004D" d="M4.068,8.977C4.058,8.97,4.052,8.962,4.052,8.95c0-0.019-0.001-0.039-0.001-0.058c0-1.92,0-3.84,0-5.761
		c0-0.019,0-0.039,0-0.058c0-0.011,0.005-0.021,0.014-0.027c0.031,0.056,0.063,0.111,0.093,0.168
		c0.084,0.161,0.167,0.323,0.25,0.484c0.027,0.053,0.061,0.103,0.08,0.16c0.01,0.019,0.013,0.041,0.013,0.062
		C4.491,5.036,4.5,6.152,4.497,7.268c-0.001,0.263,0,0.527,0,0.79c0,0.037-0.005,0.073-0.007,0.109
		C4.478,8.209,4.454,8.244,4.435,8.282C4.417,8.319,4.396,8.353,4.378,8.389C4.3,8.539,4.223,8.689,4.145,8.838
		C4.121,8.885,4.094,8.931,4.068,8.977z"/>
	<path fill="#FF00C2" d="M2.159,3.662c0.019,0.01,0.028,0.025,0.028,0.047c0,0.015,0,0.03,0,0.045c0,1.456,0,2.913,0,4.369
		c0,0.015,0,0.03,0,0.045c-0.001,0.028-0.001,0.028-0.04,0.037c0,0,0,0,0,0c-0.003-0.005-0.006-0.01-0.009-0.015
		c-0.004-0.002-0.005-0.006-0.004-0.01c-0.002-0.006-0.006-0.01-0.009-0.016c-0.035-0.063-0.07-0.126-0.104-0.19
		c-0.095-0.183-0.19-0.366-0.284-0.549C1.736,7.424,1.736,7.422,1.736,7.42C1.75,7.37,1.755,7.319,1.755,7.268
		c0-0.893,0-1.787,0-2.68c0-0.047,0-0.094-0.019-0.139C1.783,4.357,1.83,4.266,1.878,4.176c0.025-0.047,0.051-0.094,0.077-0.141
		c0.047-0.086,0.094-0.173,0.141-0.259c0.004-0.007,0.01-0.014,0.015-0.021c0.005-0.005,0.01-0.01,0.01-0.018
		c-0.001-0.004,0-0.006,0.004-0.008c0.005-0.005,0.009-0.01,0.01-0.017c-0.001-0.004,0-0.007,0.004-0.009
		c0.004-0.005,0.009-0.01,0.009-0.016c-0.001-0.004,0-0.007,0.004-0.009C2.154,3.673,2.157,3.668,2.159,3.662L2.159,3.662z"/>
	<path fill="#FF003A" d="M4.49,8.167C4.481,8.15,4.475,8.132,4.476,8.112c0.001-0.017,0-0.034,0-0.051c0-1.346,0-2.691,0-4.037
		c0-0.04-0.003-0.081,0.011-0.121c0.005-0.013,0.001-0.03,0.002-0.045c0.015,0.013,0.02,0.032,0.029,0.049
		C4.581,4.03,4.645,4.153,4.709,4.276c0.06,0.115,0.121,0.23,0.181,0.345C4.899,4.64,4.907,4.66,4.915,4.68
		c0.008,0.081,0.006,0.162,0.006,0.244c0,0.771,0,1.542,0,2.313c0,0.05-0.003,0.098-0.021,0.145
		C4.896,7.393,4.892,7.405,4.887,7.416C4.849,7.488,4.811,7.56,4.774,7.632C4.683,7.805,4.592,7.979,4.501,8.153
		C4.499,8.158,4.494,8.162,4.49,8.167z"/>
	<path fill="#FF00D3" d="M1.735,4.448c0.009-0.001,0.021-0.01,0.026,0.006c0.007,0.022,0.016,0.044,0.013,0.069
		c-0.001,0.011,0,0.021,0,0.032c0,0.916,0,1.832,0,2.748c0,0.034,0.002,0.068-0.014,0.101C1.755,7.414,1.746,7.418,1.736,7.42
		c0,0,0,0,0,0C1.732,7.416,1.729,7.412,1.727,7.407c-0.004-0.002-0.005-0.006-0.004-0.01c-0.002-0.006-0.006-0.01-0.009-0.016
		C1.709,7.374,1.703,7.367,1.7,7.36C1.625,7.217,1.552,7.075,1.477,6.933C1.369,6.724,1.26,6.516,1.15,6.307
		c-0.061-0.115-0.122-0.23-0.184-0.346C0.961,5.951,0.956,5.939,0.949,5.927C0.942,5.915,0.945,5.903,0.951,5.891
		C0.957,5.88,0.963,5.869,0.969,5.857c0.095-0.175,0.189-0.35,0.284-0.525c0.105-0.194,0.209-0.388,0.314-0.582
		C1.608,4.676,1.648,4.6,1.689,4.525C1.696,4.512,1.705,4.5,1.713,4.487c0.003-0.005,0.008-0.01,0.009-0.016
		c-0.001-0.004,0-0.008,0.004-0.01C1.729,4.457,1.732,4.452,1.735,4.448L1.735,4.448z"/>
	<path fill="#FF0024" d="M4.9,7.381c0-0.877,0-1.753,0-2.63c0-0.015,0-0.03,0-0.045c0-0.011,0.005-0.02,0.015-0.027
		C4.92,4.686,4.926,4.693,4.93,4.7c0.063,0.121,0.126,0.243,0.189,0.364c0.128,0.246,0.257,0.493,0.385,0.739
		c0.03,0.057,0.057,0.115,0.088,0.171c0.016,0.029,0.017,0.054,0.001,0.084C5.556,6.126,5.523,6.195,5.487,6.263
		C5.394,6.442,5.302,6.62,5.209,6.798C5.112,6.984,5.015,7.169,4.918,7.355C4.913,7.364,4.906,7.372,4.9,7.381z"/>
	<path fill="#FF007F" d="M3.034,2.042c-0.003,0.005-0.006,0.01-0.009,0.015C3.025,2.05,3.027,2.044,3.034,2.042z"/>
	<path fill="#FF007F" d="M3.021,2.067C3.018,2.072,3.015,2.077,3.012,2.083C3.011,2.075,3.014,2.07,3.021,2.067z"/>
	<path fill="#FF007F" d="M3.008,2.092c0,0.007-0.003,0.013-0.01,0.017C2.998,2.101,3.001,2.095,3.008,2.092z"/>
	<path fill="#FF007F" d="M2.995,2.116c0,0.008-0.003,0.014-0.01,0.018C2.984,2.126,2.988,2.12,2.995,2.116z"/>
	<path fill="#FF0095" d="M2.61,2.827C2.607,2.832,2.604,2.837,2.601,2.841C2.6,2.834,2.603,2.83,2.61,2.827z"/>
	<path fill="#FF0095" d="M2.597,2.851c0,0.007-0.003,0.012-0.009,0.015C2.587,2.86,2.59,2.855,2.597,2.851z"/>
	<path fill="#FF0095" d="M2.584,2.876c0,0.007-0.003,0.013-0.009,0.016C2.574,2.885,2.577,2.88,2.584,2.876z"/>
	<path fill="#FF00C2" d="M1.713,7.381c0.003,0.005,0.006,0.01,0.009,0.016C1.716,7.393,1.713,7.388,1.713,7.381z"/>
	<path fill="#FF00C2" d="M1.727,7.407C1.73,7.411,1.733,7.416,1.736,7.42C1.729,7.419,1.726,7.414,1.727,7.407z"/>
	<path fill="#FF00A9" d="M2.159,3.662c0,0.007-0.003,0.012-0.009,0.015C2.149,3.67,2.152,3.665,2.159,3.662z"/>
	<path fill="#FF00A9" d="M2.146,3.686c0,0.007-0.003,0.013-0.009,0.016C2.136,3.695,2.139,3.69,2.146,3.686z"/>
	<path fill="#FF00A9" d="M2.133,3.711c0,0.008-0.003,0.013-0.01,0.017C2.123,3.721,2.126,3.715,2.133,3.711z"/>
	<path fill="#FF00A9" d="M2.12,3.736c0,0.008-0.003,0.014-0.01,0.018C2.11,3.746,2.113,3.74,2.12,3.736z"/>
	<path fill="#FF00A9" d="M2.125,8.165c0.006,0.004,0.009,0.009,0.009,0.016C2.127,8.178,2.124,8.173,2.125,8.165z"/>
	<path fill="#FF00A9" d="M2.138,8.191c0.003,0.005,0.006,0.01,0.009,0.015C2.14,8.203,2.137,8.198,2.138,8.191z"/>
	<path fill="#FF0095" d="M2.549,8.976c0.003,0.005,0.006,0.01,0.009,0.016C2.552,8.988,2.549,8.983,2.549,8.976z"/>
	<path fill="#FF0095" d="M2.563,9.001c0.003,0.005,0.006,0.01,0.009,0.015C2.565,9.014,2.562,9.009,2.563,9.001z"/>
	<path fill="#FF0095" d="M2.576,9.027c0.003,0.005,0.006,0.01,0.009,0.015C2.578,9.039,2.575,9.034,2.576,9.027z"/>
	<path fill="#FF0095" d="M2.589,9.053c0.003,0.005,0.006,0.009,0.009,0.014C2.591,9.064,2.588,9.06,2.589,9.053z"/>
	<path fill="#FF00C2" d="M1.736,4.448C1.732,4.452,1.729,4.457,1.726,4.461C1.725,4.454,1.728,4.45,1.736,4.448z"/>
	<path fill="#FF007F" d="M2.961,9.76C2.964,9.765,2.967,9.77,2.97,9.776C2.964,9.772,2.961,9.767,2.961,9.76z"/>
	<path fill="#FF007F" d="M2.974,9.786c0.003,0.005,0.006,0.01,0.009,0.015C2.976,9.798,2.973,9.793,2.974,9.786z"/>
	<path fill="#FF007F" d="M2.987,9.811c0.003,0.005,0.006,0.01,0.009,0.015C2.99,9.823,2.986,9.819,2.987,9.811z"/>
	<path fill="#FF007F" d="M3,9.837c0.003,0.005,0.006,0.01,0.009,0.015C3.003,9.849,2.999,9.844,3,9.837z"/>
	<path fill="#FF007F" d="M3.013,9.863c0.003,0.005,0.006,0.009,0.009,0.014C3.016,9.874,3.012,9.87,3.013,9.863z"/>
	<path fill="#FF00C2" d="M1.722,4.471C1.719,4.477,1.716,4.482,1.713,4.487C1.712,4.48,1.715,4.474,1.722,4.471z"/>
	<path fill="#FF0096" d="M28.565,10.082c-0.03-0.054-0.061-0.107-0.09-0.162c-0.085-0.163-0.169-0.326-0.253-0.489
		c-0.029-0.057-0.06-0.113-0.089-0.17c-0.007-0.013-0.011-0.027-0.017-0.041c0.009-0.042,0.004-0.085,0.004-0.128
		c0-1.947,0-3.894,0-5.84c0-0.046,0.007-0.094-0.014-0.139c0.029-0.059,0.058-0.119,0.088-0.178
		c0.014-0.029,0.031-0.056,0.046-0.085c0.081-0.156,0.161-0.312,0.242-0.468c0.028-0.053,0.058-0.105,0.087-0.157
		c0.038-0.011,0.043,0.019,0.05,0.042c0.01,0.031,0.007,0.064,0.007,0.096c0,2.526,0,5.053,0,7.579c0,0.028,0.002,0.056-0.004,0.083
		C28.615,10.055,28.605,10.084,28.565,10.082z"/>
	<path fill="#FF005C" d="M29.35,2.752c0.025,0.044,0.052,0.088,0.076,0.133c0.136,0.26,0.271,0.519,0.406,0.779
		c0.016,0.03,0.038,0.057,0.046,0.091c0.012,0.031,0.008,0.063,0.008,0.095c0,1.566,0,3.132,0,4.699c0,0.054-0.003,0.107-0.02,0.158
		c-0.004,0.027-0.024,0.045-0.035,0.068c-0.071,0.134-0.143,0.268-0.215,0.402c-0.088,0.164-0.177,0.328-0.266,0.491
		c-0.003,0.005-0.008,0.01-0.012,0.015c-0.019-0.018-0.019-0.042-0.021-0.065c-0.001-0.021-0.001-0.043-0.001-0.064
		c0-2.217,0-4.434,0.001-6.651C29.317,2.851,29.301,2.794,29.35,2.752z"/>
	<path fill="#FF0082" d="M28.565,10.082c0.031-0.015,0.043-0.039,0.04-0.073c-0.001-0.013,0-0.026,0-0.039c0-2.545,0-5.089,0-7.634
		c0-0.021,0.002-0.043-0.001-0.064c-0.003-0.021-0.008-0.043-0.035-0.048c0.022-0.046,0.044-0.093,0.067-0.138
		c0.046-0.089,0.092-0.179,0.14-0.267c0.013-0.025,0.021-0.055,0.051-0.069c0.021,0.019,0.028,0.047,0.041,0.071
		c0.032,0.058,0.063,0.117,0.093,0.176c0.008,0.015,0.014,0.031,0.02,0.047c0.009,0.139,0.005,0.278,0.005,0.417
		c0,2.565,0,5.13,0.001,7.694c0,0.075-0.004,0.149-0.021,0.222c-0.04,0.076-0.079,0.151-0.118,0.226
		c-0.017,0.001-0.02-0.01-0.024-0.019c-0.031-0.059-0.062-0.117-0.093-0.176c-0.049-0.093-0.097-0.186-0.145-0.279
		C28.576,10.114,28.565,10.1,28.565,10.082z"/>
	<path fill="#FF0073" d="M28.965,10.377c-0.009-0.031-0.019-0.061-0.002-0.093c0.005-0.009,0.002-0.021,0.002-0.032
		c0-0.017,0-0.034,0-0.051c0-2.687,0-5.374,0-8.061c0-0.024,0-0.047,0.001-0.071c0-0.011,0.006-0.02,0.016-0.026
		c0.006,0.009,0.013,0.017,0.018,0.026c0.074,0.142,0.148,0.284,0.222,0.426c0.036,0.068,0.072,0.136,0.107,0.204
		c0.009,0.017,0.021,0.033,0.023,0.052c-0.01,0.031-0.013,0.062-0.013,0.095c0,2.277,0,4.553,0,6.83c0,0.002,0,0.004,0,0.006
		c-0.021,0.056-0.054,0.107-0.081,0.16c-0.019,0.038-0.042,0.075-0.062,0.112c-0.072,0.134-0.144,0.268-0.215,0.402
		C28.976,10.364,28.97,10.371,28.965,10.377z"/>
	<path fill="#FF00B0" d="M28.106,3.112c0.023,0.003,0.034,0.016,0.035,0.038c0.001,0.015,0,0.03,0,0.045c0,1.981,0,3.963,0,5.944
		c0,0.015,0,0.03-0.001,0.045c-0.001,0.017-0.01,0.028-0.025,0.035l0,0c-0.008-0.006-0.006-0.018-0.013-0.025l0,0
		c-0.008-0.007-0.006-0.018-0.013-0.025l0,0c-0.008-0.007-0.005-0.019-0.013-0.025l0,0c-0.008-0.007-0.005-0.019-0.013-0.025
		c-0.019-0.016-0.026-0.039-0.037-0.059c-0.085-0.164-0.169-0.327-0.253-0.491c-0.042-0.082-0.085-0.163-0.127-0.245
		c-0.007-0.013-0.012-0.027-0.017-0.041c0.015-0.043,0.016-0.088,0.016-0.133c0-1.328,0-2.656,0-3.984
		c0-0.043,0.002-0.086-0.019-0.126c0.005-0.014,0.01-0.028,0.016-0.041c0.131-0.254,0.263-0.507,0.395-0.761
		c0.004-0.007,0.01-0.014,0.015-0.02c0.004-0.005,0.009-0.01,0.01-0.016c-0.001-0.004,0.001-0.008,0.004-0.01
		c0.003-0.005,0.006-0.01,0.009-0.015c-0.001-0.005,0.001-0.008,0.004-0.011c0.003-0.005,0.006-0.01,0.009-0.015
		c-0.001-0.005,0.001-0.008,0.004-0.011c0.003-0.005,0.006-0.01,0.009-0.014C28.101,3.118,28.102,3.114,28.106,3.112z"/>
	<path fill="#FF003F" d="M29.866,8.708c0-0.024-0.001-0.047-0.001-0.071c0-1.591,0-3.182,0-4.774c0-0.036,0-0.073,0.013-0.107
		c0.006,0.009,0.013,0.017,0.018,0.026c0.073,0.14,0.145,0.28,0.218,0.42c0.098,0.187,0.196,0.374,0.293,0.561
		c0.01,0.019,0.023,0.036,0.026,0.058c0.004,0.03,0.006,0.059,0.006,0.09c0,0.853,0,1.705-0.001,2.558c0,0.07,0.001,0.141-0.02,0.21
		c-0.035,0.083-0.082,0.16-0.124,0.239c-0.007,0.013-0.015,0.026-0.022,0.039c-0.081,0.151-0.161,0.302-0.242,0.453
		c-0.051,0.094-0.102,0.188-0.153,0.282C29.875,8.698,29.87,8.703,29.866,8.708z"/>
	<path fill="#FF00C6" d="M27.626,4.037c0.025,0.003,0.039,0.016,0.039,0.042c0,0.015,0,0.03,0,0.045c0,1.354,0,2.708,0,4.062
		c0,0.009-0.001,0.017,0,0.026c0.003,0.031-0.01,0.054-0.037,0.069c-0.004-0.002-0.005-0.005-0.003-0.008
		c-0.001-0.007-0.006-0.011-0.009-0.017c-0.004-0.002-0.005-0.004-0.004-0.008c-0.001-0.008-0.006-0.013-0.011-0.018l0,0
		c-0.007-0.007-0.005-0.019-0.014-0.026l0,0.001c-0.007-0.008-0.005-0.02-0.013-0.026c-0.006-0.009-0.013-0.017-0.017-0.026
		c-0.074-0.142-0.147-0.284-0.22-0.426c-0.046-0.089-0.093-0.178-0.139-0.267c-0.009-0.017-0.021-0.032-0.022-0.052
		c0.018-0.038,0.019-0.079,0.019-0.12c0-0.761,0-1.521,0-2.282c0-0.036,0.001-0.073-0.018-0.106
		c0.004-0.012,0.008-0.024,0.014-0.036c0.129-0.249,0.258-0.498,0.387-0.747c0.003-0.006,0.008-0.01,0.012-0.015
		c0.005-0.005,0.009-0.01,0.01-0.018C27.598,4.08,27.6,4.077,27.604,4.076c0.003-0.005,0.007-0.009,0.01-0.014
		c0.002-0.004,0.003-0.008,0.005-0.011C27.62,4.045,27.623,4.041,27.626,4.037L27.626,4.037z"/>
	<path fill="#FF0026" d="M30.419,7.679c-0.001-0.015,0-0.031-0.005-0.044c-0.007-0.019-0.006-0.036-0.001-0.056
		c0.005-0.022,0.005-0.047,0.005-0.07c0-0.619,0-1.238,0-1.857c0-0.255,0-0.51,0-0.765c0-0.022-0.009-0.048,0.014-0.066
		c0.016,0.012,0.023,0.03,0.032,0.047c0.083,0.159,0.165,0.319,0.248,0.478c0.105,0.201,0.21,0.402,0.315,0.603
		c0.049,0.093,0.097,0.186,0.146,0.278c0.011,0.02,0.013,0.038,0.001,0.059c-0.098,0.18-0.196,0.361-0.293,0.542
		c-0.025,0.047-0.05,0.095-0.075,0.142c-0.113,0.211-0.226,0.422-0.34,0.633C30.452,7.629,30.435,7.654,30.419,7.679z"/>
	<path fill="#FF00DC" d="M27.177,4.899c0.027-0.005,0.035-0.001,0.037,0.017c0.001,0.015,0.001,0.03,0.001,0.045
		c0,0.788,0,1.577,0,2.365c0,0.013,0,0.026,0,0.039c-0.001,0.026-0.013,0.04-0.039,0.041c-0.02-0.022-0.033-0.05-0.046-0.076
		c-0.084-0.164-0.168-0.328-0.253-0.491c-0.099-0.192-0.2-0.384-0.3-0.575c-0.016-0.03-0.032-0.06-0.049-0.09
		c-0.008-0.014-0.009-0.028,0-0.042c0.019-0.034,0.037-0.067,0.055-0.102c0.085-0.163,0.169-0.327,0.254-0.491
		c0.1-0.192,0.2-0.383,0.3-0.575C27.149,4.942,27.164,4.921,27.177,4.899z"/>
	<path fill="#FF00B0" d="M27.575,8.178c0.011,0.005,0.014,0.015,0.013,0.026C27.578,8.199,27.574,8.189,27.575,8.178z"/>
	<path fill="#FF00B0" d="M27.588,8.204c0.011,0.005,0.014,0.015,0.014,0.026C27.591,8.224,27.588,8.215,27.588,8.204z"/>
	<path fill="#FF0096" d="M28.077,9.142c0.01,0.005,0.013,0.015,0.013,0.025C28.081,9.162,28.077,9.153,28.077,9.142z"/>
	<path fill="#FF0096" d="M28.09,9.168c0.01,0.005,0.013,0.015,0.013,0.025C28.094,9.187,28.09,9.179,28.09,9.168z"/>
	<path fill="#FF0096" d="M28.103,9.194c0.01,0.005,0.013,0.015,0.013,0.025C28.107,9.213,28.103,9.204,28.103,9.194z"/>
	<path fill="#FF0096" d="M28.064,9.117c0.01,0.005,0.013,0.015,0.013,0.025C28.068,9.136,28.064,9.128,28.064,9.117z"/>
	<path fill="#FF0096" d="M28.102,3.122c-0.003,0.005-0.006,0.01-0.009,0.014C28.093,3.13,28.096,3.125,28.102,3.122z"/>
	<path fill="#FF0096" d="M28.089,3.148c-0.003,0.005-0.006,0.01-0.009,0.015C28.079,3.156,28.082,3.151,28.089,3.148z"/>
	<path fill="#FF0096" d="M28.076,3.173c-0.003,0.005-0.006,0.01-0.009,0.015C28.066,3.181,28.069,3.176,28.076,3.173z"/>
	<path fill="#FF0096" d="M28.063,3.199c-0.001,0.007-0.004,0.013-0.01,0.016C28.052,3.207,28.056,3.202,28.063,3.199z"/>
	<path fill="#FF00B0" d="M27.626,4.036c-0.003,0.004-0.006,0.009-0.008,0.013C27.617,4.043,27.62,4.039,27.626,4.036z"/>
	<path fill="#FF00B0" d="M27.613,4.061c-0.003,0.005-0.006,0.01-0.01,0.014C27.603,4.068,27.607,4.064,27.613,4.061z"/>
	<path fill="#FF00B0" d="M27.599,4.084c0,0.008-0.003,0.014-0.01,0.018C27.589,4.094,27.592,4.088,27.599,4.084z"/>
	<path fill="#FF00B0" d="M27.601,8.229c0.007,0.004,0.011,0.01,0.011,0.018C27.605,8.244,27.601,8.238,27.601,8.229z"/>
	<path fill="#FF00B0" d="M27.616,8.255c0.006,0.004,0.009,0.009,0.009,0.017C27.619,8.269,27.616,8.263,27.616,8.255z"/>
</g>
</svg>
