<?xml version="1.0" encoding="utf-8"?>
<!-- Generator: Adobe Illustrator 24.3.0, SVG Export Plug-In . SVG Version: 6.00 Build 0)  -->
<svg version="1.1" id="Слой_1" xmlns="http://www.w3.org/2000/svg" xmlns:xlink="http://www.w3.org/1999/xlink" x="0px" y="0px"
	 width="32px" height="13px" viewBox="0 0 32 13" enable-background="new 0 0 32 13" xml:space="preserve">
<g>
	<path d="M15.869,0.222c1.199,0,2.398,0,3.597,0c0.091,0,0.091,0,0.137,0.079c0.117,0.203,0.234,0.405,0.351,0.608
		c0.145,0.249,0.29,0.498,0.435,0.747c0.133,0.229,0.266,0.457,0.399,0.686c0.147,0.253,0.295,0.507,0.442,0.76
		c0.134,0.231,0.269,0.461,0.403,0.692c0.146,0.251,0.292,0.502,0.439,0.754c0.136,0.233,0.271,0.466,0.407,0.698
		c0.145,0.249,0.29,0.498,0.435,0.747c0.1,0.171,0.199,0.343,0.301,0.514c0.02,0.034,0.023,0.06,0.001,0.096
		c-0.11,0.185-0.218,0.371-0.326,0.557c-0.114,0.196-0.227,0.393-0.34,0.589c-0.142,0.245-0.285,0.49-0.428,0.735
		c-0.139,0.239-0.278,0.478-0.417,0.717c-0.14,0.241-0.281,0.482-0.421,0.723c-0.14,0.241-0.281,0.482-0.421,0.723
		c-0.14,0.241-0.28,0.482-0.421,0.723c-0.14,0.241-0.281,0.482-0.421,0.723c-0.14,0.241-0.281,0.482-0.421,0.723
		c-0.044,0.075-0.044,0.075-0.132,0.075c-2.403,0-4.806,0-7.208,0c-0.1,0-0.072,0.016-0.124-0.074
		c-0.178-0.304-0.354-0.609-0.531-0.913c-0.131-0.225-0.262-0.449-0.393-0.674c-0.15-0.257-0.299-0.515-0.449-0.772
		c-0.131-0.225-0.262-0.449-0.393-0.674c-0.15-0.257-0.3-0.515-0.449-0.772C9.79,8.784,9.658,8.558,9.526,8.331
		c-0.147-0.253-0.295-0.506-0.442-0.76c-0.137-0.235-0.273-0.47-0.41-0.704C8.626,6.785,8.577,6.705,8.53,6.623
		C8.485,6.544,8.484,6.567,8.528,6.491c0.093-0.159,0.186-0.318,0.279-0.477C8.87,5.905,8.932,5.796,8.995,5.688
		c0.153-0.264,0.306-0.527,0.46-0.791C9.58,4.683,9.705,4.469,9.83,4.254c0.155-0.265,0.309-0.531,0.463-0.797
		c0.139-0.239,0.278-0.478,0.418-0.717c0.142-0.243,0.283-0.486,0.424-0.729c0.139-0.239,0.278-0.478,0.417-0.717
		c0.141-0.243,0.283-0.486,0.424-0.729c0.061-0.104,0.123-0.207,0.183-0.312c0.014-0.024,0.029-0.035,0.056-0.033
		c0.019,0.001,0.038,0,0.057,0C13.471,0.222,14.67,0.222,15.869,0.222z"/>
	<path d="M21.89,12.603c0.066-0.04,0.132-0.08,0.198-0.12c0.028-0.017,0.057-0.033,0.085-0.05c0.382-0.231,0.764-0.462,1.146-0.693
		c0.277-0.167,0.554-0.334,0.832-0.502c0.285-0.172,0.57-0.345,0.856-0.517c0.273-0.165,0.546-0.33,0.819-0.494
		c0.287-0.173,0.574-0.347,0.862-0.52c0.188-0.113,0.376-0.227,0.565-0.339c0.038-0.023,0.065-0.051,0.085-0.091
		c0.062-0.125,0.126-0.248,0.19-0.372c0.144-0.279,0.288-0.558,0.432-0.838c0.137-0.264,0.273-0.529,0.41-0.793
		c0.119-0.231,0.239-0.462,0.358-0.692c0.004-0.008,0.009-0.017,0.013-0.025c0.03-0.061,0.035-0.041-0.007-0.107
		c-0.043-0.068-0.087-0.135-0.131-0.202c-0.196-0.301-0.393-0.602-0.589-0.902c-0.138-0.212-0.277-0.423-0.415-0.635
		c-0.142-0.218-0.285-0.435-0.427-0.653c-0.105-0.16-0.211-0.319-0.315-0.48c-0.022-0.035-0.05-0.061-0.084-0.084
		c-0.232-0.155-0.463-0.31-0.695-0.466c-0.333-0.224-0.667-0.449-1-0.673c-0.275-0.185-0.549-0.369-0.824-0.554
		c-0.286-0.193-0.573-0.385-0.859-0.578c-0.265-0.178-0.53-0.356-0.795-0.534c-0.104-0.07-0.208-0.139-0.312-0.209
		c-0.017-0.012-0.034-0.024-0.05-0.035c0.005-0.021,0.019-0.014,0.029-0.014c0.331,0.005,0.662,0.011,0.993,0.017
		c0.272,0.004,0.544,0.008,0.816,0.013c0.572,0.009,1.144,0.018,1.717,0.027c0.761,0.012,1.523,0.026,2.284,0.038
		c0.709,0.012,1.419,0.022,2.128,0.034c0.378,0.006,0.757,0.014,1.135,0.02c0.068,0.001,0.063,0,0.063,0.061c0,0.017,0,0.033,0,0.05
		c0,3.91,0,7.819,0,11.729c0,0.03,0.012,0.067-0.006,0.089c-0.022,0.026-0.062,0.011-0.094,0.011
		c-0.811,0.009-1.622,0.018-2.433,0.027c-0.695,0.007-1.39,0.014-2.086,0.021c-0.454,0.005-0.908,0.009-1.362,0.014
		c-0.88,0.009-1.759,0.018-2.639,0.027c-0.27,0.003-0.539,0.006-0.809,0.01c-0.026,0-0.052,0-0.077,0
		C21.893,12.612,21.891,12.608,21.89,12.603z"/>
	<path d="M0.499,0.506c0.044-0.001,0.086-0.003,0.129-0.004C1.13,0.494,1.631,0.487,2.132,0.479c0.745-0.012,1.49-0.025,2.234-0.037
		C5.102,0.43,5.837,0.419,6.573,0.408c0.608-0.01,1.215-0.02,1.823-0.03C8.798,0.371,9.2,0.364,9.602,0.357
		c0.018,0,0.036-0.001,0.053,0.001C9.658,0.375,9.647,0.378,9.64,0.383C9.448,0.512,9.256,0.641,9.063,0.771
		C9.042,0.785,9.02,0.799,8.998,0.813c-0.247,0.167-0.494,0.333-0.741,0.5C7.979,1.5,7.7,1.687,7.422,1.875
		c-0.282,0.19-0.565,0.38-0.847,0.57C6.294,2.633,6.013,2.821,5.733,3.01C5.529,3.147,5.325,3.284,5.12,3.42
		C5.086,3.443,5.059,3.471,5.037,3.505C4.847,3.798,4.655,4.091,4.464,4.384C4.323,4.599,4.181,4.815,4.04,5.031
		C3.903,5.24,3.766,5.45,3.629,5.659C3.485,5.879,3.341,6.098,3.197,6.318C3.177,6.349,3.155,6.38,3.133,6.411
		c-0.007,0.01-0.009,0.021-0.002,0.033c0.006,0.01,0.011,0.021,0.016,0.032c0.139,0.269,0.277,0.537,0.416,0.806
		C3.704,7.555,3.845,7.827,3.986,8.1c0.134,0.26,0.269,0.521,0.403,0.781c0.058,0.111,0.117,0.221,0.173,0.333
		C4.58,9.248,4.604,9.27,4.635,9.289c0.28,0.168,0.559,0.337,0.838,0.505c0.342,0.207,0.683,0.413,1.025,0.62
		c0.279,0.169,0.558,0.337,0.838,0.505c0.281,0.17,0.562,0.339,0.844,0.509c0.277,0.167,0.554,0.335,0.831,0.502
		c0.283,0.171,0.566,0.342,0.85,0.513c0.048,0.029,0.097,0.058,0.146,0.087c-0.014,0.023-0.032,0.013-0.046,0.013
		c-0.258-0.003-0.515-0.006-0.773-0.009c-0.724-0.007-1.447-0.014-2.171-0.021c-0.934-0.01-1.868-0.02-2.802-0.03
		c-0.454-0.005-0.908-0.009-1.362-0.014c-0.764-0.008-1.528-0.016-2.291-0.024c-0.017,0-0.033,0-0.05-0.002
		c-0.005-0.001-0.011-0.008-0.013-0.014c-0.003-0.006-0.002-0.014-0.002-0.021c0-0.019,0-0.038,0-0.057c0-3.919,0-7.838,0-11.758
		C0.496,0.566,0.493,0.538,0.499,0.506z"/>
	<path d="M11.407,12.657c-0.105-0.067-0.204-0.13-0.303-0.194c-0.248-0.16-0.496-0.321-0.744-0.481
		c-0.28-0.181-0.56-0.361-0.84-0.541c-0.28-0.18-0.56-0.361-0.84-0.541c-0.28-0.18-0.56-0.361-0.84-0.541
		c-0.28-0.18-0.56-0.361-0.84-0.541c-0.28-0.18-0.56-0.361-0.84-0.541c-0.28-0.18-0.56-0.361-0.84-0.542
		C5.269,8.702,5.214,8.681,5.177,8.639c-0.036-0.04-0.062-0.089-0.092-0.134C4.878,8.193,4.671,7.882,4.464,7.572
		C4.322,7.359,4.181,7.147,4.039,6.935C3.947,6.797,3.854,6.66,3.762,6.522C3.753,6.509,3.744,6.495,3.735,6.481
		c-0.005-0.009-0.005-0.018,0-0.026C3.744,6.443,3.752,6.431,3.761,6.42c0.215-0.288,0.431-0.575,0.646-0.863
		c0.128-0.17,0.256-0.34,0.383-0.51C4.942,4.845,5.094,4.642,5.246,4.44C5.33,4.329,5.415,4.218,5.498,4.106
		c0.03-0.041,0.066-0.073,0.109-0.1C6.047,3.73,6.487,3.453,6.928,3.177C7.18,3.018,7.432,2.86,7.684,2.702
		C7.99,2.509,8.297,2.317,8.603,2.125c0.27-0.17,0.54-0.339,0.811-0.509c0.29-0.182,0.58-0.365,0.87-0.547
		c0.1-0.063,0.2-0.126,0.301-0.188c0.065-0.041,0.135-0.053,0.21-0.032c0.145,0.042,0.22,0.203,0.158,0.341
		c-0.01,0.021-0.023,0.041-0.036,0.061c-0.155,0.243-0.31,0.486-0.465,0.73C10.278,2.254,10.105,2.527,9.931,2.8
		C9.79,3.022,9.648,3.243,9.507,3.464C9.369,3.681,9.23,3.898,9.092,4.115C8.949,4.338,8.807,4.562,8.665,4.785
		c-0.136,0.213-0.272,0.426-0.408,0.64c-0.145,0.227-0.29,0.454-0.435,0.681C7.768,6.189,7.714,6.272,7.66,6.356
		C7.625,6.411,7.626,6.397,7.661,6.455C7.769,6.633,7.877,6.81,7.985,6.988C8.193,7.332,8.4,7.676,8.608,8.02
		C8.749,8.252,8.889,8.485,9.03,8.717c0.14,0.23,0.279,0.461,0.419,0.691c0.14,0.23,0.279,0.461,0.419,0.691
		c0.141,0.232,0.282,0.465,0.422,0.697c0.138,0.228,0.277,0.457,0.415,0.685c0.143,0.236,0.287,0.473,0.43,0.709
		c0.083,0.137,0.167,0.275,0.25,0.412C11.394,12.617,11.406,12.629,11.407,12.657z"/>
	<path d="M20.491,0.571c0.026-0.005,0.037,0.01,0.05,0.018c0.219,0.141,0.437,0.282,0.655,0.423c0.29,0.187,0.58,0.374,0.87,0.561
		c0.25,0.161,0.501,0.322,0.751,0.484c0.308,0.198,0.616,0.397,0.924,0.596c0.274,0.177,0.548,0.353,0.823,0.53
		c0.286,0.184,0.572,0.369,0.858,0.553c0.276,0.178,0.552,0.356,0.828,0.534c0.143,0.092,0.286,0.185,0.43,0.276
		c0.033,0.021,0.058,0.047,0.079,0.079c0.107,0.164,0.216,0.328,0.325,0.491c0.151,0.226,0.302,0.452,0.452,0.678
		c0.135,0.203,0.27,0.405,0.406,0.607c0.071,0.106,0.143,0.212,0.213,0.318c0.021,0.031,0.021,0.032-0.001,0.061
		c-0.092,0.123-0.185,0.245-0.278,0.368c-0.087,0.115-0.172,0.231-0.259,0.347c-0.149,0.199-0.298,0.397-0.447,0.596
		c-0.131,0.174-0.261,0.348-0.392,0.522c-0.128,0.17-0.256,0.34-0.383,0.51c-0.024,0.033-0.053,0.06-0.088,0.081
		c-0.045,0.027-0.089,0.054-0.133,0.082c-0.224,0.141-0.448,0.282-0.672,0.423c-0.28,0.176-0.561,0.352-0.841,0.528
		c-0.28,0.176-0.56,0.352-0.841,0.528c-0.282,0.177-0.564,0.355-0.847,0.532c-0.276,0.173-0.552,0.347-0.829,0.52
		c-0.27,0.17-0.541,0.339-0.811,0.509c-0.049,0.031-0.1,0.052-0.159,0.052c-0.178,0-0.298-0.18-0.229-0.344
		c0.009-0.022,0.022-0.042,0.035-0.062c0.081-0.128,0.161-0.256,0.243-0.384c0.14-0.219,0.279-0.439,0.419-0.658
		c0.14-0.219,0.28-0.438,0.42-0.657c0.141-0.221,0.282-0.442,0.423-0.664c0.137-0.215,0.275-0.43,0.412-0.646
		c0.145-0.227,0.29-0.454,0.435-0.682c0.13-0.203,0.26-0.406,0.389-0.61c0.15-0.235,0.3-0.47,0.45-0.706
		c0.027-0.042,0.054-0.083,0.082-0.124c0.014-0.02,0.015-0.037,0.001-0.058c-0.034-0.051-0.066-0.104-0.098-0.156
		c-0.105-0.174-0.209-0.349-0.314-0.523c-0.151-0.251-0.303-0.501-0.455-0.752c-0.137-0.226-0.274-0.453-0.412-0.679
		c-0.144-0.239-0.289-0.477-0.433-0.716c-0.138-0.228-0.277-0.457-0.415-0.685c-0.142-0.234-0.284-0.469-0.426-0.703
		c-0.138-0.228-0.277-0.457-0.415-0.685c-0.142-0.234-0.284-0.469-0.426-0.703c-0.115-0.19-0.23-0.38-0.345-0.57
		C20.508,0.6,20.501,0.588,20.491,0.571z"/>
	<path fill="#666666" d="M15.721,9.483c0.045,0.074,0.091,0.145,0.134,0.218c0.109,0.183,0.214,0.368,0.326,0.548
		c0.143,0.231,0.279,0.466,0.419,0.699c0.101,0.168,0.202,0.336,0.303,0.505c0.006,0.01,0.013,0.02,0.02,0.029
		c0.006,0.008,0.016,0.011,0.025,0.008c0.016-0.005,0.031-0.01,0.047-0.016c0.339-0.126,0.678-0.251,1.017-0.377
		c0.199-0.074,0.398-0.149,0.598-0.222c0.034-0.012,0.055-0.031,0.072-0.062c0.131-0.244,0.263-0.487,0.395-0.73
		c0.16-0.295,0.321-0.589,0.482-0.884c0.099-0.183,0.198-0.366,0.298-0.548c0.095-0.174,0.191-0.348,0.286-0.522
		c0.041-0.075,0.081-0.15,0.121-0.225c0.107-0.197,0.215-0.394,0.323-0.591c0.07-0.129,0.138-0.258,0.208-0.387
		c0.078-0.143,0.158-0.285,0.235-0.429c0.035-0.065,0.04-0.05-0.001-0.121c-0.056-0.099-0.11-0.198-0.166-0.297
		c-0.102-0.181-0.204-0.363-0.305-0.544c-0.119-0.212-0.238-0.425-0.357-0.637c-0.09-0.161-0.181-0.321-0.271-0.482
		c-0.08-0.142-0.159-0.285-0.239-0.427c-0.075-0.134-0.15-0.268-0.225-0.402c-0.082-0.146-0.164-0.293-0.246-0.439
		c-0.075-0.134-0.15-0.268-0.225-0.402c-0.061-0.109-0.124-0.218-0.182-0.329c-0.022-0.042-0.052-0.068-0.097-0.085
		c-0.267-0.102-0.533-0.207-0.799-0.311c-0.275-0.107-0.55-0.214-0.826-0.321c-0.037-0.015-0.076-0.027-0.113-0.043
		c-0.02-0.008-0.031-0.002-0.042,0.014c-0.034,0.048-0.069,0.096-0.104,0.144c-0.201,0.278-0.402,0.555-0.603,0.833
		c-0.125,0.172-0.249,0.345-0.375,0.516c-0.048,0.065-0.043,0.077-0.097-0.003C15.639,2.981,15.52,2.801,15.4,2.623
		c-0.207-0.308-0.415-0.616-0.622-0.923c-0.008-0.012-0.016-0.024-0.025-0.035c-0.008-0.01-0.018-0.013-0.031-0.008
		c-0.022,0.008-0.045,0.015-0.067,0.023c-0.351,0.126-0.702,0.253-1.053,0.379c-0.287,0.103-0.573,0.207-0.86,0.309
		c-0.034,0.012-0.055,0.031-0.072,0.062c-0.072,0.133-0.144,0.266-0.22,0.397c-0.138,0.237-0.265,0.48-0.402,0.717
		c-0.152,0.264-0.295,0.533-0.447,0.798c-0.136,0.238-0.267,0.479-0.401,0.718c-0.145,0.26-0.291,0.519-0.437,0.779
		c-0.105,0.187-0.211,0.375-0.316,0.562c-0.007,0.012-0.015,0.024-0.019,0.038c-0.011,0.033-0.03,0.046-0.067,0.046
		c-0.293-0.002-0.586-0.001-0.88-0.001c-0.014,0-0.028-0.001-0.042-0.003C9.425,6.479,9.423,6.468,9.425,6.459
		C9.428,6.45,9.433,6.442,9.438,6.434c0.147-0.259,0.294-0.518,0.441-0.777c0.138-0.243,0.275-0.485,0.413-0.727
		c0.141-0.249,0.282-0.497,0.423-0.746c0.143-0.253,0.286-0.506,0.43-0.759c0.138-0.243,0.275-0.485,0.413-0.727
		c0.142-0.251,0.284-0.502,0.427-0.752c0.138-0.243,0.275-0.485,0.413-0.727c0.006-0.01,0.012-0.021,0.018-0.031
		c0.011-0.017,0.026-0.026,0.047-0.025c0.017,0.001,0.033,0,0.05,0c2.117,0,4.233,0,6.35,0c0.007,0,0.014,0.001,0.021,0
		c0.04-0.006,0.063,0.012,0.084,0.047c0.194,0.325,0.39,0.648,0.585,0.972c0.138,0.229,0.273,0.459,0.415,0.685
		c0.146,0.232,0.283,0.469,0.426,0.703c0.139,0.228,0.277,0.457,0.415,0.686c0.142,0.235,0.281,0.471,0.426,0.704
		c0.138,0.223,0.269,0.451,0.407,0.673c0.15,0.241,0.293,0.486,0.44,0.728c0.013,0.022,0.028,0.044,0.043,0.065
		c0.009,0.013,0.01,0.026,0.002,0.04c-0.004,0.006-0.007,0.013-0.01,0.019c-0.068,0.119-0.137,0.237-0.205,0.356
		c-0.073,0.127-0.145,0.255-0.218,0.382c-0.137,0.24-0.274,0.48-0.411,0.72c-0.097,0.17-0.196,0.34-0.293,0.51
		c-0.125,0.217-0.249,0.435-0.373,0.652c-0.074,0.129-0.149,0.258-0.223,0.387c-0.092,0.16-0.182,0.32-0.274,0.48
		c-0.08,0.14-0.16,0.279-0.239,0.418c-0.09,0.158-0.18,0.316-0.271,0.474c-0.126,0.219-0.252,0.439-0.378,0.658
		c-0.086,0.15-0.171,0.3-0.256,0.45c-0.002,0.004-0.004,0.008-0.007,0.012c-0.037,0.055-0.021,0.053-0.095,0.053
		c-0.009,0-0.019,0-0.028,0c-2.102,0-4.205,0-6.307,0c-0.028,0-0.057,0-0.085-0.002c-0.017-0.001-0.025-0.014-0.019-0.03
		c0.015-0.037,0.032-0.074,0.048-0.111c0.066-0.147,0.131-0.293,0.197-0.44c0.068-0.151,0.137-0.301,0.205-0.452
		c0.009-0.019,0.018-0.038,0.028-0.057c0.006-0.012,0.016-0.017,0.029-0.012c0.051,0.019,0.102,0.038,0.153,0.057
		c0.458,0.171,0.916,0.343,1.374,0.514c0.027,0.01,0.054,0.018,0.08,0.028c0.016,0.005,0.028,0.001,0.037-0.012
		c0.007-0.01,0.013-0.02,0.018-0.03c0.091-0.166,0.181-0.332,0.272-0.498c0.081-0.147,0.163-0.294,0.244-0.44
		c0.064-0.116,0.128-0.232,0.192-0.347c0.087-0.157,0.174-0.314,0.261-0.471c0.039-0.07,0.077-0.141,0.116-0.211
		C15.695,9.511,15.698,9.496,15.721,9.483z"/>
	<path fill="#00FF28" d="M11.805,10.761c-0.056-0.079-0.1-0.166-0.149-0.249c-0.159-0.271-0.316-0.544-0.474-0.815
		c-0.131-0.225-0.262-0.449-0.393-0.674c-0.151-0.259-0.302-0.519-0.453-0.778c-0.133-0.229-0.267-0.457-0.4-0.686
		C9.792,7.309,9.647,7.059,9.503,6.81C9.484,6.778,9.456,6.75,9.448,6.713c0.007-0.016,0.02-0.011,0.031-0.011
		c0.359,0,0.719,0,1.078-0.001c0.035,0,0.056,0.012,0.072,0.043c0.149,0.277,0.3,0.553,0.45,0.829c0.16,0.295,0.32,0.59,0.481,0.885
		c0.091,0.168,0.184,0.336,0.275,0.504c0.009,0.016,0.016,0.034,0.024,0.051c-0.03,0.049-0.03,0.103-0.03,0.157
		c0,0.49,0,0.98,0,1.47C11.829,10.681,11.839,10.726,11.805,10.761z"/>
	<path fill="#00FFD5" d="M15.058,4.696c0.005-0.001,0.009,0,0.012,0.004c0.006,0.004,0.011,0.009,0.019,0.009
		c0.011,0.004,0.023,0.006,0.033,0.011c0.134,0.062,0.258,0.139,0.36,0.247c0.136,0.143,0.217,0.313,0.242,0.51
		c0.02,0.156,0.011,0.312-0.018,0.466c-0.024,0.131-0.087,0.244-0.178,0.341c-0.052,0.055-0.107,0.107-0.167,0.153
		c-0.011,0.009-0.022,0.018-0.032,0.027c0.004,0.021,0.021,0.026,0.034,0.035c0.072,0.046,0.136,0.102,0.194,0.165
		c0.005,0.005,0.007,0.012,0.011,0.018c-0.025,0.021-0.038,0.047-0.037,0.08c0.001,0.418-0.004,0.837,0.003,1.255
		c0,0.012,0.004,0.023,0.006,0.035c-0.038,0.058-0.091,0.101-0.145,0.142c-0.1,0.075-0.209,0.134-0.326,0.178
		c-0.009,0.003-0.018,0.004-0.027,0.006c-0.028-0.013-0.033-0.038-0.036-0.065c-0.003-0.026-0.002-0.052-0.002-0.078
		c0-1.132,0-2.264,0-3.396c0-0.028-0.002-0.057,0.003-0.085C15.013,4.725,15.019,4.695,15.058,4.696z"/>
	<path fill="#00FF33" d="M13.31,4.936c0.014-0.025,0.038-0.041,0.06-0.059c0.126-0.103,0.269-0.174,0.424-0.221
		c0.004-0.001,0.009,0,0.014-0.001c0.041,0.023,0.036,0.064,0.036,0.101c0.001,0.302,0,0.604,0,0.906
		c0,0.446-0.001,0.892,0.001,1.338c0,0.019-0.001,0.038,0.009,0.055c0.002,0.004,0.005,0.009,0.004,0.013
		c-0.029,0.129-0.024,0.26-0.015,0.39c-0.012,0.021-0.014,0.044-0.014,0.069c0.002,0.265,0.001,0.529,0,0.794
		c0,0.035,0.012,0.07,0.006,0.106c-0.197-0.037-0.375-0.114-0.531-0.24c-0.003-0.003-0.005-0.007-0.008-0.011
		c-0.02-0.034-0.023-0.071-0.023-0.109c0-0.453,0-0.906,0-1.359c0-0.038,0.001-0.076,0.023-0.109
		c0.029-0.043,0.073-0.071,0.11-0.105c0.025-0.023,0.025-0.027,0.002-0.049c-0.034-0.031-0.073-0.058-0.1-0.096
		c-0.007-0.033-0.006-0.066-0.006-0.099c-0.001-0.418,0.005-0.835-0.004-1.253C13.298,4.976,13.3,4.956,13.31,4.936z"/>
	<path fill="#00FF9F" d="M15.058,4.696c-0.018,0.009-0.03,0.023-0.03,0.044c0,0.017,0,0.033,0,0.05c0,1.163,0,2.326,0,3.489
		c0,0.033-0.004,0.067,0.015,0.097c-0.01,0.013-0.024,0.013-0.038,0.013c-0.008,0-0.012,0.006-0.019,0.008
		c-0.009,0.002-0.017,0.004-0.026,0.006c-0.01,0.005-0.021,0.004-0.031,0.01c-0.008,0.002-0.016,0.003-0.025,0.005
		c-0.01,0.005-0.022,0.004-0.032,0.01c-0.008,0.001-0.017,0.003-0.025,0.004c-0.014,0.009-0.032,0.001-0.046,0.011
		c-0.008,0.001-0.017,0.002-0.025,0.003c-0.072,0.008-0.093-0.003-0.094-0.065c-0.002-0.215-0.012-0.431,0.005-0.646
		c0.002-0.008,0.006-0.015,0.01-0.022c0.004-0.006,0.009-0.012,0.014-0.017c0.005-0.004,0.01-0.008,0.016-0.012
		c0.005-0.003,0.011-0.006,0.016-0.009c0.002-0.002,0.005-0.003,0.007-0.005c0.004-0.003,0.009-0.006,0.014-0.009
		c0.004-0.003,0.009-0.005,0.014-0.008c0.004-0.002,0.009-0.005,0.013-0.007c0.002-0.001,0.004-0.003,0.006-0.004
		c0.003-0.003,0.007-0.006,0.011-0.009c0,0,0.005-0.005,0.005-0.005c0.003-0.003,0.006-0.007,0.009-0.01
		c0,0,0.004-0.005,0.004-0.006c0.002-0.004,0.005-0.008,0.007-0.012c0.002-0.004,0.005-0.008,0.007-0.012
		c0.003-0.004,0.006-0.008,0.009-0.011c0.001-0.002,0.003-0.004,0.004-0.006c0.002-0.004,0.005-0.008,0.007-0.012
		c0.002-0.004,0.005-0.009,0.007-0.013c0.003-0.004,0.006-0.008,0.009-0.012c0.001-0.002,0.003-0.004,0.004-0.006
		c0.003-0.007,0.006-0.013,0.008-0.02c0.001-0.005,0.003-0.01,0.005-0.014c0.003-0.007,0.007-0.014,0.01-0.021
		c0.002-0.005,0.004-0.01,0.006-0.014c0.003-0.01,0.005-0.021,0.005-0.032c0.001-0.012,0.002-0.024,0.005-0.035
		c0.005-0.016,0.006-0.032,0.005-0.048c0.003-0.098-0.003-0.194-0.05-0.282c-0.058-0.107-0.152-0.17-0.266-0.209
		c-0.044-0.01-0.089-0.004-0.134-0.006c-0.048-0.002-0.076-0.022-0.077-0.072c-0.004-0.179-0.004-0.357,0-0.536
		c0.001-0.045,0.026-0.068,0.071-0.07c0.028-0.001,0.056,0.001,0.084-0.005c0.079-0.004,0.135-0.048,0.186-0.103
		c0.156-0.171,0.172-0.443,0.034-0.611c-0.07-0.085-0.17-0.115-0.27-0.142C14.478,5.296,14.448,5.3,14.426,5.28
		c-0.005-0.007-0.009-0.015-0.011-0.024c-0.012-0.204-0.006-0.409-0.003-0.613c0.001-0.067,0.015-0.071,0.109-0.061
		c0.123-0.003,0.242,0.023,0.36,0.053C14.941,4.651,15.004,4.663,15.058,4.696z"/>
	<path fill="#00FF42" d="M11.805,10.761c0-0.031,0.001-0.061,0.001-0.092c0-0.515,0-1.031,0-1.546c0-0.024-0.001-0.048,0.004-0.07
		c0.005-0.025,0.019-0.044,0.049-0.04c0.015,0.027,0.031,0.053,0.046,0.08c0.164,0.301,0.327,0.602,0.491,0.903
		c0.113,0.207,0.226,0.415,0.339,0.622c0.008,0.015,0.015,0.03,0.024,0.044c0.014,0.022,0.015,0.042,0.003,0.066
		c-0.028,0.06-0.054,0.121-0.081,0.181c-0.077,0.173-0.154,0.345-0.232,0.517c-0.034,0.075-0.069,0.15-0.104,0.225
		c-0.006,0.014-0.018,0.014-0.026,0c-0.048-0.082-0.095-0.164-0.142-0.245c-0.115-0.198-0.231-0.396-0.346-0.594
		C11.821,10.795,11.813,10.778,11.805,10.761z"/>
	<path fill="#00FFAC" d="M17.27,4.655c0.011-0.012,0.026-0.01,0.039-0.01c0.221-0.001,0.442-0.001,0.663-0.002
		c0.011,0,0.024-0.002,0.032,0.01c-0.063,0.043-0.133,0.017-0.2,0.023c-0.061,0.005-0.123,0.002-0.184,0.002
		c-0.051,0-0.073,0.023-0.072,0.073c0.001,0.021,0,0.043,0,0.064c0,1.142,0,2.284-0.001,3.426c0,0.053,0.016,0.108-0.008,0.161
		c-0.104,0.005-0.208,0.008-0.312-0.002c-0.014-0.024-0.007-0.051-0.007-0.076c0-0.883,0.001-1.766-0.001-2.649
		c-0.001-0.3,0.001-0.599-0.001-0.899c0-0.031-0.002-0.061,0.009-0.091l0,0c0.004-0.004,0.009-0.008,0.014-0.011
		c0.002-0.004,0.005-0.006,0.009-0.006C17.259,4.666,17.265,4.661,17.27,4.655z"/>
	<path fill="#00FFD3" d="M17.54,8.402c-0.012-0.036-0.014-0.073-0.014-0.111c0-1.181,0-2.363,0-3.544c0-0.097-0.008-0.09,0.093-0.09
		c0.064,0,0.128,0.001,0.191,0.002c0.033,0.041,0.022,0.091,0.022,0.137c0.001,1.149,0.001,2.298,0,3.447
		c0,0.053,0.016,0.108-0.008,0.161C17.729,8.408,17.634,8.406,17.54,8.402z"/>
	<path fill="#00FF67" d="M14.573,6.176c-0.022,0.02-0.05,0.011-0.075,0.011c-0.084,0.001-0.081-0.002-0.081,0.082
		c0,0.158,0,0.316,0,0.475c0,0.017,0,0.033,0.001,0.05c0.002,0.022,0.009,0.031,0.03,0.031c0.042,0.001,0.085,0.001,0.127,0.002
		c0.018,0,0.038-0.004,0.054,0.011c-0.023,0.028-0.055,0.022-0.085,0.022c-0.094,0.001-0.188,0.007-0.281-0.001
		c-0.139-0.013-0.245,0.044-0.339,0.137c-0.008,0.006-0.016,0.012-0.024,0.018c-0.004,0.004-0.008,0.009-0.012,0.013
		c-0.003,0.004-0.007,0.009-0.011,0.013c-0.002,0.002-0.004,0.004-0.005,0.006c-0.005,0.006-0.01,0.013-0.016,0.018
		c-0.002,0.001-0.005,0.003-0.007,0.004c-0.015-0.003-0.027-0.01-0.027-0.027c-0.001-0.021-0.001-0.042-0.001-0.064
		c0-0.742,0-1.483,0-2.225c0-0.033,0.005-0.066-0.014-0.097c0.003-0.003,0.006-0.004,0.01-0.002c0.01-0.005,0.022-0.004,0.032-0.011
		c0.101-0.033,0.205-0.053,0.312-0.057c-0.023,0.059-0.022,0.12-0.021,0.181c0.003,0.177-0.006,0.355,0.006,0.532
		c0.001,0.03-0.016,0.047-0.041,0.058c-0.07,0.033-0.123,0.084-0.163,0.149c-0.008,0.009-0.016,0.018-0.021,0.028
		c-0.002,0.005-0.004,0.01-0.006,0.015c-0.003,0.008-0.006,0.015-0.008,0.023c-0.002,0.008-0.004,0.016-0.007,0.024
		c-0.003,0.012-0.005,0.023-0.006,0.035c-0.001,0.013-0.003,0.026-0.006,0.039c-0.008,0.046-0.011,0.091,0.005,0.136
		c0.029,0.114,0.08,0.215,0.172,0.293c0.04,0.034,0.08,0.055,0.133,0.054c0.099-0.001,0.198-0.001,0.296,0
		C14.522,6.155,14.552,6.15,14.573,6.176z"/>
	<path fill="#00FEF7" d="M17.823,8.402c-0.011-0.034-0.014-0.069-0.014-0.104c0-1.197,0-2.393,0-3.59
		c0-0.017,0.001-0.033,0.001-0.05c0.065-0.001,0.129-0.003,0.194-0.004c0.009,0.02,0.006,0.042,0.006,0.063c0,1.206,0,2.412,0,3.618
		c0,0.08,0.008,0.07-0.073,0.07C17.899,8.405,17.861,8.403,17.823,8.402z"/>
	<path fill="#00FF64" d="M13.835,8.428c-0.029-0.017-0.028-0.046-0.028-0.074c0-0.269,0-0.537,0-0.806c0-0.019,0-0.038,0-0.057
		c0-0.018,0.01-0.031,0.025-0.04c0.009,0.003,0.013,0.01,0.016,0.018c0.003,0.008,0.006,0.016,0.01,0.024
		c0.003,0.005,0.005,0.011,0.007,0.016c0.006,0.011,0.014,0.02,0.022,0.03c0.081,0.131,0.204,0.187,0.352,0.207
		c0.051,0.007,0.111-0.005,0.149,0.046c0.018,0.132,0.004,0.264,0.008,0.397c0.002,0.061,0.002,0.123,0,0.184
		c-0.001,0.052,0.015,0.081,0.073,0.078c0.028-0.001,0.058-0.002,0.078,0.023c-0.015,0.01-0.032,0.008-0.048,0.009
		c-0.203,0.007-0.404-0.002-0.603-0.04C13.876,8.44,13.856,8.433,13.835,8.428z"/>
	<path fill="#00FF0A" d="M13.297,6.599c0,0.495,0,0.99,0,1.485c0,0.031,0,0.061-0.001,0.092c-0.081-0.052-0.138-0.128-0.187-0.208
		c-0.083-0.135-0.125-0.283-0.14-0.44c-0.014-0.147-0.007-0.292,0.03-0.435c0.047-0.185,0.139-0.344,0.276-0.477
		C13.281,6.609,13.289,6.605,13.297,6.599z"/>
	<path fill="#00FF38" d="M16.662,5.923c-0.07,0.048-0.14,0.096-0.21,0.144c-0.016,0.011-0.024,0.009-0.035-0.008
		c-0.031-0.05-0.061-0.101-0.091-0.152c-0.073-0.122-0.146-0.243-0.219-0.364c-0.01-0.016-0.019-0.032-0.028-0.049
		c-0.013-0.025-0.013-0.028,0.012-0.045c0.055-0.037,0.11-0.074,0.165-0.111c0.109-0.075,0.218-0.15,0.328-0.224
		c0.019-0.013,0.036-0.031,0.061-0.034c0.023,0.019,0.023,0.045,0.024,0.071c0.002,0.244,0,0.488,0.002,0.732
		C16.669,5.896,16.668,5.91,16.662,5.923z"/>
	<path fill="#00FE0D" d="M13.31,4.936c0.02,0.072,0.015,0.145,0.015,0.218c0,0.366,0,0.733,0,1.099c0,0.033,0.002,0.066-0.017,0.096
		c-0.155-0.128-0.236-0.296-0.267-0.492c-0.016-0.103-0.019-0.207-0.014-0.311c0.009-0.194,0.072-0.369,0.193-0.522
		C13.246,4.992,13.275,4.96,13.31,4.936z"/>
	<path fill="#00FEF6" d="M15.542,8.051C15.522,8.039,15.51,8.023,15.511,8c0-0.014,0-0.028,0-0.042c0-0.403,0-0.805,0-1.208
		c0-0.014,0-0.028,0-0.042c0.002-0.033,0.007-0.036,0.046-0.029c0.005,0.001,0.009,0.002,0.014,0.002c0,0,0,0,0,0
		c0,0.01,0.006,0.014,0.014,0.016l-0.001-0.001c0.002,0.008,0.007,0.012,0.013,0.016l0,0c0.003,0.006,0.009,0.01,0.012,0.016
		l0.001,0.001c0.005,0.003,0.008,0.007,0.01,0.012c0.005,0.002,0.007,0.005,0.006,0.01c0.001,0.008,0.006,0.013,0.012,0.018l0,0
		c0.004,0.004,0.008,0.009,0.01,0.014c0.004,0.002,0.006,0.006,0.006,0.011c0.002,0.007,0.007,0.013,0.011,0.018l0.001,0.001
		c0.009,0.007,0.006,0.02,0.015,0.027c0.043,0.063,0.064,0.136,0.081,0.209c0.026,0.112,0.041,0.227,0.032,0.343
		c-0.01,0.134-0.032,0.266-0.084,0.391c-0.004,0.008-0.009,0.016-0.014,0.024c-0.01,0.008-0.007,0.021-0.013,0.03
		c-0.002,0.004-0.003,0.009-0.005,0.013c-0.003,0.005-0.006,0.01-0.009,0.016c-0.002,0.004-0.004,0.008-0.005,0.013
		c-0.003,0.005-0.006,0.01-0.009,0.014l0,0c-0.01,0.006-0.006,0.02-0.015,0.027l0,0.001c-0.005,0.005-0.01,0.011-0.011,0.018
		c0.001,0.005-0.001,0.008-0.006,0.011c-0.003,0.005-0.006,0.01-0.01,0.014l0,0c-0.006,0.005-0.011,0.01-0.012,0.018
		c0,0.005-0.002,0.009-0.006,0.011C15.589,7.996,15.586,8,15.581,8.003L15.58,8.004c-0.004,0.005-0.008,0.01-0.012,0.015l0,0
		c-0.006,0.004-0.011,0.009-0.013,0.016l0.001-0.001C15.548,8.037,15.542,8.041,15.542,8.051L15.542,8.051z"/>
	<path fill="#00FF88" d="M17.227,4.683c0.012,0.021,0.015,0.044,0.014,0.068c0,0.248,0,0.496,0,0.744
		c0,0.009,0.002,0.02-0.001,0.028c-0.019,0.058-0.012,0.117-0.012,0.176c0,0.9,0,1.8-0.001,2.7
		c-0.006-0.003-0.011-0.008-0.011-0.016c0-0.024-0.001-0.047-0.001-0.071c0-0.886,0-1.772,0-2.657c0-0.028,0-0.056,0-0.082
		c-0.02-0.011-0.03,0.003-0.041,0.01c-0.063,0.041-0.124,0.087-0.191,0.122c-0.037,0.015-0.038-0.015-0.044-0.036
		c-0.007-0.027-0.005-0.056-0.005-0.084c-0.001-0.214,0.001-0.427-0.001-0.641c0-0.028-0.004-0.057,0.022-0.078
		c0.065-0.056,0.142-0.096,0.211-0.146C17.187,4.705,17.204,4.689,17.227,4.683z"/>
	<path fill="#00FF61" d="M16.957,4.865c-0.002,0.009-0.007,0.019-0.005,0.027c0.008,0.033,0.006,0.065,0.006,0.098
		c0,0.212,0,0.424,0,0.636c0,0.019,0,0.038,0.001,0.056c0.001,0.014,0.012,0.019,0.025,0.021c-0.074,0.059-0.153,0.111-0.234,0.159
		c-0.008,0.001-0.014,0.006-0.018,0.012l0,0c-0.004,0.004-0.009,0.007-0.014,0.01c-0.002,0.004-0.005,0.006-0.01,0.006
		c-0.009,0.001-0.014,0.006-0.019,0.013l0,0c-0.005,0.004-0.009,0.007-0.014,0.011c-0.004,0.003-0.008,0.006-0.013,0.008
		c-0.017-0.028-0.016-0.058-0.016-0.089c0-0.224,0-0.447,0-0.671c0-0.028-0.001-0.056-0.002-0.085c0,0,0,0.001,0,0.001
		c0.007-0.002,0.011-0.008,0.017-0.012c0.057-0.049,0.123-0.087,0.185-0.13C16.881,4.912,16.915,4.883,16.957,4.865z"/>
	<path fill="#00FF9A" d="M14.548,8.475c-0.045-0.001-0.089-0.001-0.134-0.003c-0.03-0.001-0.037-0.008-0.038-0.038
		c-0.001-0.019,0-0.038,0-0.056c0-0.2,0-0.4,0-0.6c0.021-0.022,0.05-0.024,0.077-0.027c0.074-0.008,0.147-0.02,0.217-0.047
		c0.015-0.006,0.032-0.008,0.046,0.003c-0.011,0.021-0.014,0.044-0.014,0.068c0,0.2,0,0.4,0,0.6c0,0.005,0,0.009,0,0.014
		c0.002,0.044,0.008,0.051,0.054,0.057c0.007,0.001,0.014,0.001,0.021,0.001C14.702,8.469,14.625,8.475,14.548,8.475z"/>
	<path fill="#00FF6A" d="M14.134,5.323c-0.013-0.038-0.015-0.078-0.015-0.118c0.001-0.176,0-0.352,0-0.528
		c0-0.014,0.001-0.028,0-0.042c-0.002-0.024,0.012-0.033,0.031-0.04c0.004-0.001,0.007-0.006,0.011-0.009
		c0.108-0.019,0.216-0.015,0.325-0.012c0.011,0,0.023,0.005,0.034,0.008c-0.005,0.001-0.009,0.002-0.014,0.002
		c-0.077,0.001-0.075-0.003-0.075,0.081c0,0.177,0,0.354,0,0.531c0,0.028-0.001,0.057-0.002,0.085
		C14.334,5.312,14.235,5.328,14.134,5.323z"/>
	<path fill="#00F2E1" d="M20.929,9.01c0.065-0.115,0.129-0.231,0.194-0.346c0.172-0.302,0.344-0.603,0.517-0.905
		c0.143-0.25,0.286-0.501,0.429-0.751c0.087-0.152,0.174-0.303,0.262-0.455c0.007-0.012,0.012-0.026,0.027-0.032
		c0.02,0.017,0.026,0.035,0.011,0.061c-0.094,0.159-0.186,0.318-0.279,0.477c-0.043,0.074-0.085,0.147-0.128,0.221
		c-0.086,0.149-0.172,0.299-0.259,0.448c-0.139,0.239-0.278,0.478-0.417,0.717c-0.113,0.194-0.227,0.387-0.341,0.581
		C20.931,9.028,20.923,9.025,20.929,9.01z"/>
	<path fill="#00E1A9" d="M19.884,2.297c-0.094-0.156-0.187-0.312-0.281-0.468c-0.142-0.235-0.284-0.469-0.426-0.704
		c-0.028-0.046-0.057-0.092-0.086-0.138c-0.005-0.009-0.008-0.019,0.003-0.023c0.008-0.003,0.02-0.002,0.026,0.002
		c0.009,0.006,0.016,0.017,0.022,0.027c0.043,0.071,0.085,0.142,0.127,0.213c0.096,0.166,0.189,0.333,0.288,0.497
		c0.112,0.186,0.218,0.376,0.328,0.564c0.004,0.006,0.006,0.013,0.009,0.019C19.902,2.299,19.895,2.3,19.884,2.297z"/>
	<path fill="#00B497" d="M20.929,9.01c0.005,0.005,0.01,0.01,0.015,0.016C20.923,9.08,20.889,9.129,20.86,9.18
		c-0.086,0.149-0.173,0.296-0.26,0.445c-0.089,0.152-0.178,0.305-0.267,0.457c-0.006,0.01-0.014,0.018-0.021,0.028
		c-0.007,0.002-0.009-0.001-0.008-0.007c0.022-0.06,0.059-0.113,0.09-0.168c0.088-0.156,0.178-0.311,0.268-0.467
		c0.082-0.143,0.165-0.286,0.247-0.429C20.914,9.027,20.922,9.019,20.929,9.01z"/>
	<path fill="#008469" d="M19.884,2.297c0.004-0.004,0.007-0.008,0.011-0.011c0.004,0.003,0.008,0.005,0.011,0.009
		c0.05,0.085,0.1,0.169,0.15,0.254c0.005,0.008,0.011,0.015,0.006,0.025C20.028,2.542,19.933,2.394,19.884,2.297z"/>
	<path fill="#00765E" d="M20.019,10.608c-0.013,0.049-0.042,0.088-0.07,0.128c-0.001,0.001-0.004,0.001-0.005,0
		c-0.002-0.001-0.004-0.004-0.004-0.006c-0.001-0.002,0-0.005,0.001-0.007C19.961,10.681,19.983,10.64,20.019,10.608z"/>
	<path fill="#00886E" d="M20.146,10.401c-0.016,0.035-0.033,0.069-0.063,0.103c0.007-0.047,0.011-0.055,0.054-0.114
		C20.143,10.391,20.146,10.395,20.146,10.401z"/>
	<path fill="#00B497" d="M20.311,10.108c-0.014,0.036-0.03,0.071-0.058,0.098c-0.002-0.002-0.004-0.003-0.006-0.005
		c0.011-0.037,0.03-0.071,0.056-0.1C20.306,10.104,20.308,10.106,20.311,10.108z"/>
	<path fill="#00B497" d="M20.253,10.207c-0.013,0.036-0.027,0.072-0.059,0.097l-0.001-0.001c0.007-0.04,0.028-0.072,0.054-0.102
		C20.249,10.203,20.251,10.205,20.253,10.207z"/>
	<path fill="#00B497" d="M20.146,10.401c-0.003-0.004-0.006-0.007-0.009-0.011c0.016-0.03,0.025-0.066,0.056-0.087
		c0,0,0.001,0.001,0.001,0.001C20.189,10.342,20.163,10.369,20.146,10.401z"/>
	<path fill="#00FF9A" d="M14.801,8.442c0.012-0.016,0.029-0.012,0.046-0.011C14.834,8.443,14.818,8.444,14.801,8.442z"/>
	<path fill="#00FFD5" d="M15.682,7.836c-0.002-0.013,0.001-0.024,0.013-0.03C15.696,7.818,15.692,7.829,15.682,7.836z"/>
	<path fill="#00FFD5" d="M15.638,7.918c0-0.012,0.003-0.022,0.015-0.027C15.653,7.903,15.648,7.912,15.638,7.918z"/>
	<path fill="#00FF9A" d="M14.929,8.413c0.008-0.01,0.019-0.011,0.031-0.01C14.952,8.412,14.941,8.414,14.929,8.413z"/>
	<path fill="#00FF9A" d="M14.872,8.427c0.008-0.011,0.02-0.011,0.032-0.01C14.896,8.427,14.885,8.429,14.872,8.427z"/>
	<path fill="#00FFD5" d="M15.681,6.84c-0.011-0.005-0.015-0.015-0.015-0.027C15.676,6.82,15.681,6.828,15.681,6.84z"/>
	<path fill="#00FF33" d="M13.85,4.643c-0.008,0.012-0.019,0.012-0.032,0.011C13.826,4.644,13.837,4.641,13.85,4.643z"/>
	<path fill="#00FF38" d="M16.66,5.068c-0.005,0.004-0.011,0.008-0.017,0.012C16.646,5.072,16.652,5.068,16.66,5.068z"/>
	<path fill="#00FF38" d="M16.731,5.876c0.004-0.008,0.01-0.012,0.018-0.012C16.746,5.871,16.74,5.875,16.731,5.876z"/>
	<path fill="#00FF38" d="M16.717,5.886c0.005-0.003,0.009-0.007,0.014-0.01C16.729,5.883,16.725,5.887,16.717,5.886z"/>
	<path fill="#00FF38" d="M16.689,5.905c0.004-0.008,0.01-0.012,0.019-0.013C16.704,5.9,16.697,5.904,16.689,5.905z"/>
	<path fill="#00FF38" d="M16.675,5.915c0.005-0.004,0.01-0.007,0.014-0.011C16.687,5.911,16.682,5.915,16.675,5.915z"/>
	<path fill="#00FFD5" d="M15.584,6.697C15.575,6.695,15.571,6.69,15.57,6.68C15.579,6.683,15.583,6.688,15.584,6.697z"/>
	<path fill="#00FFD5" d="M15.597,6.712c-0.008-0.003-0.013-0.008-0.013-0.016C15.592,6.698,15.596,6.704,15.597,6.712z"/>
	<path fill="#00FFD5" d="M15.609,6.727c-0.007-0.003-0.011-0.008-0.012-0.016C15.604,6.714,15.608,6.719,15.609,6.727z"/>
	<path fill="#00FFD5" d="M15.62,6.741c-0.003-0.004-0.007-0.008-0.01-0.012C15.616,6.73,15.62,6.734,15.62,6.741z"/>
	<path fill="#00FFD5" d="M15.638,6.769c-0.008-0.004-0.012-0.01-0.012-0.018C15.634,6.754,15.638,6.761,15.638,6.769z"/>
	<path fill="#00FFD5" d="M15.649,6.783c-0.003-0.005-0.007-0.009-0.01-0.014C15.646,6.771,15.649,6.776,15.649,6.783z"/>
	<path fill="#00FFD5" d="M15.665,6.812c-0.007-0.004-0.011-0.01-0.011-0.018C15.662,6.798,15.666,6.804,15.665,6.812z"/>
	<path fill="#00FFD5" d="M15.668,7.865c0-0.007,0.003-0.012,0.009-0.016C15.678,7.857,15.675,7.862,15.668,7.865z"/>
	<path fill="#00FFD5" d="M15.653,7.892c0.003-0.005,0.006-0.01,0.009-0.014C15.663,7.885,15.66,7.889,15.653,7.892z"/>
	<path fill="#00FFD5" d="M15.626,7.937c0-0.008,0.004-0.014,0.011-0.018C15.638,7.928,15.634,7.934,15.626,7.937z"/>
	<path fill="#00FFD5" d="M15.61,7.962c0.003-0.005,0.007-0.009,0.01-0.014C15.621,7.956,15.617,7.96,15.61,7.962z"/>
	<path fill="#00FFD5" d="M15.597,7.98c0-0.009,0.005-0.014,0.012-0.018C15.61,7.971,15.606,7.977,15.597,7.98z"/>
	<path fill="#00FFD5" d="M15.581,8.003c0.003-0.004,0.007-0.008,0.01-0.012C15.591,7.998,15.588,8.001,15.581,8.003z"/>
	<path fill="#00FFD5" d="M15.568,8.019c0.004-0.005,0.008-0.01,0.012-0.015C15.58,8.012,15.576,8.017,15.568,8.019z"/>
	<path fill="#00FFD5" d="M15.555,8.035c0.001-0.008,0.006-0.014,0.013-0.016C15.567,8.028,15.563,8.033,15.555,8.035z"/>
	<path fill="#00FFD5" d="M15.542,8.051c0-0.009,0.005-0.014,0.014-0.017C15.555,8.043,15.55,8.048,15.542,8.051z"/>
	<path fill="#00FF9A" d="M14.986,8.397c0.006-0.003,0.013-0.005,0.019-0.008C15,8.396,14.994,8.399,14.986,8.397z"/>
	<path fill="#00FF88" d="M17.27,4.655c-0.004,0.008-0.01,0.012-0.019,0.012C17.254,4.659,17.261,4.655,17.27,4.655z"/>
	<path fill="#00FF88" d="M17.241,4.673c-0.005,0.004-0.009,0.007-0.014,0.011C17.229,4.676,17.234,4.672,17.241,4.673z"/>
	<path fill="#00FF9F" d="M15.09,4.709C15.082,4.71,15.075,4.707,15.071,4.7C15.079,4.699,15.086,4.701,15.09,4.709z"/>
	<path fill="#00FFCE" d="M29.046,6.95c-0.001-0.005,0-0.008,0.004-0.011c0.004-0.006,0.009-0.011,0.01-0.018
		c-0.001-0.005,0-0.008,0.004-0.01c0.003-0.006,0.008-0.011,0.01-0.018c-0.001-0.005,0-0.008,0.004-0.011
		c0.003-0.006,0.008-0.011,0.01-0.017c-0.001-0.005,0-0.008,0.005-0.011c0.003-0.006,0.007-0.011,0.01-0.017
		c-0.001-0.005,0.001-0.009,0.005-0.011c0.003-0.005,0.006-0.011,0.01-0.017c-0.001-0.005,0-0.009,0.005-0.012
		c0.003-0.005,0.006-0.011,0.01-0.016c-0.001-0.005,0.001-0.009,0.005-0.012c0.003-0.005,0.006-0.011,0.01-0.016
		c-0.001-0.005,0.001-0.009,0.005-0.013c0.003-0.005,0.006-0.01,0.009-0.015l0,0.001c0.01-0.007,0.008-0.02,0.015-0.029l0,0.001
		c0.01-0.007,0.007-0.02,0.015-0.029l0,0c0.009-0.007,0.007-0.02,0.014-0.028l0,0c0.009-0.007,0.006-0.02,0.014-0.028l0,0
		c0.009-0.007,0.006-0.02,0.014-0.028l0,0c0.008-0.007,0.005-0.02,0.015-0.026l0.001-0.001c0.004-0.006,0.009-0.011,0.011-0.018
		c-0.001-0.005,0.001-0.009,0.005-0.012c0.003-0.005,0.006-0.011,0.01-0.016c-0.001-0.005,0.001-0.009,0.005-0.012
		c0.003-0.005,0.006-0.011,0.009-0.017c-0.002-0.003-0.002-0.006,0-0.009c-0.003-0.005-0.006-0.011-0.009-0.016
		c-0.005-0.002-0.007-0.006-0.006-0.011c-0.002-0.007-0.007-0.012-0.012-0.018c-0.047-0.051-0.081-0.111-0.114-0.171
		c-0.005-0.003-0.008-0.007-0.01-0.013c-0.005-0.002-0.006-0.006-0.006-0.011c-0.002-0.007-0.007-0.012-0.012-0.018L29.12,6.215
		c-0.009-0.006-0.006-0.021-0.017-0.026l0.001,0.001c-0.002-0.007-0.008-0.011-0.011-0.017l-0.001-0.001
		c-0.01-0.006-0.006-0.02-0.016-0.026l0,0.001c-0.004-0.005-0.007-0.01-0.011-0.015C29.061,6.13,29.06,6.127,29.06,6.123
		c-0.001-0.009-0.006-0.015-0.013-0.02l0,0c-0.004-0.005-0.007-0.009-0.01-0.015c-0.004-0.002-0.006-0.005-0.005-0.009
		c-0.001-0.008-0.006-0.014-0.012-0.019l0,0c-0.004-0.004-0.008-0.009-0.01-0.014c-0.004-0.002-0.006-0.005-0.005-0.01
		c-0.002-0.008-0.007-0.013-0.012-0.019l0,0c-0.005-0.004-0.008-0.008-0.01-0.013c-0.004-0.002-0.006-0.006-0.006-0.011
		c-0.018-0.042-0.022-0.086-0.022-0.132c0-1.582,0-3.163,0-4.745c0-0.009,0-0.019,0-0.028c0.002-0.098,0.006-0.102,0.106-0.101
		c0.045,0.001,0.09-0.006,0.134,0.005c0.012-0.001,0.023-0.003,0.035-0.003c0.257,0.003,0.514,0.006,0.771,0.01
		c0.033,0.001,0.066-0.003,0.098,0.007c0.02,0.023,0.022,0.051,0.023,0.08c0.001,0.033,0,0.066,0,0.099c0,3.57,0,7.141,0,10.711
		c0,0.173-0.009,0.154,0.157,0.158c0.064,0.002,0.133-0.021,0.192,0.024c-0.022,0.01-0.046,0.006-0.07,0.006
		c-0.386,0.004-0.772,0.007-1.158,0.01c-0.045,0-0.089-0.001-0.134-0.002c-0.055,0.018-0.08-0.005-0.083-0.06
		c-0.001-0.028-0.001-0.057-0.001-0.085c0-1.596,0-3.192-0.001-4.788C29.024,7.089,29.038,7.02,29.046,6.95z"/>
	<path fill="#00FFEF" d="M30.471,12.08c-0.097-0.001-0.194-0.002-0.291-0.003c-0.085,0-0.082,0.004-0.082-0.081
		c0-0.726,0-1.452,0-2.178c0-2.909,0-5.818,0-8.727c0-0.028,0-0.057,0-0.085c0.012-0.001,0.023-0.003,0.035-0.003
		c0.244,0.003,0.487,0.006,0.731,0.009c0.019,0,0.038,0.001,0.057,0.002c0.027,0.002,0.031,0.006,0.032,0.035
		c0.001,0.019,0,0.038,0,0.057c0,3.624,0,7.247,0,10.871c0,0.032,0.015,0.072-0.01,0.095c-0.021,0.019-0.059,0.007-0.089,0.008
		c-0.104,0.002-0.208,0.002-0.312,0.003C30.518,12.083,30.495,12.081,30.471,12.08z"/>
	<path fill="#00FFB0" d="M29.046,6.95c0.011,0.021,0.022,0.043,0.012,0.067c-0.014,0.032-0.01,0.065-0.01,0.098
		c0,0.785,0,1.57,0,2.356c0,0.835,0,1.67,0,2.505c0,0.017,0,0.033,0,0.05c-0.001,0.069,0.005,0.063,0.061,0.068
		c-0.014,0.002-0.028,0.006-0.042,0.006c-0.411,0.004-0.822,0.007-1.234,0.01c-0.007,0-0.014-0.002-0.021-0.003
		c-0.023-0.028-0.023-0.061-0.023-0.094c0-0.85,0-1.701,0-2.551c0-0.043,0.01-0.084,0.022-0.125
		c0.003-0.022,0.016-0.039,0.026-0.058c0.18-0.35,0.361-0.7,0.541-1.05c0.137-0.266,0.274-0.532,0.412-0.798
		c0.078-0.151,0.156-0.301,0.235-0.452C29.032,6.969,29.04,6.96,29.046,6.95z"/>
	<path fill="#00FFAB" d="M29.194,0.992c-0.05,0.001-0.099,0.002-0.149,0.002c-0.012,0-0.024,0-0.035,0.001
		c-0.023,0.002-0.03,0.008-0.032,0.03c-0.001,0.021-0.001,0.042-0.001,0.064c0,0.347,0,0.695,0,1.042c0,1.254,0,2.509,0,3.763
		c0,0.033-0.001,0.066-0.001,0.099c-0.009-0.011-0.019-0.021-0.026-0.033c-0.169-0.259-0.338-0.517-0.507-0.776
		c-0.145-0.221-0.289-0.442-0.434-0.663c-0.052-0.079-0.104-0.157-0.156-0.236c-0.009-0.014-0.016-0.029-0.024-0.043
		c-0.02-0.039-0.024-0.081-0.024-0.124c0-1.011,0-2.021,0-3.032c0-0.024,0-0.047,0.004-0.071c0.005-0.03,0.02-0.045,0.053-0.044
		c0.151,0.004,0.302-0.006,0.453,0.005c0.012-0.001,0.023-0.003,0.035-0.003c0.256,0.003,0.512,0.006,0.768,0.01
		C29.143,0.985,29.17,0.98,29.194,0.992z"/>
	<path fill="#00FF89" d="M28.315,0.977c-0.123,0.001-0.246,0.001-0.368,0.002c-0.135,0.001-0.118-0.018-0.118,0.115
		c0,1.016,0,2.032,0,3.048c0,0.033,0,0.066,0.001,0.099c-0.02-0.014-0.029-0.037-0.042-0.056c-0.203-0.31-0.406-0.621-0.608-0.932
		c-0.017-0.026-0.038-0.047-0.064-0.065c-0.138-0.092-0.275-0.185-0.412-0.277c-0.014-0.009-0.026-0.02-0.039-0.03
		c-0.029-0.04-0.037-0.086-0.037-0.134c0-0.562,0-1.124,0-1.686c0-0.04,0.001-0.081,0.037-0.11c0.019-0.001,0.038-0.003,0.056-0.002
		c0.508,0.007,1.016,0.014,1.524,0.022C28.268,0.97,28.292,0.967,28.315,0.977z"/>
	<path fill="#00FF84" d="M27.813,9.337c0,0.012,0.001,0.024,0.001,0.035c0,0.912,0,1.823,0,2.735
		c-0.051,0.009-0.103,0.007-0.155,0.008c-0.377,0.003-0.753,0.006-1.13,0.009c-0.016,0-0.033-0.002-0.049-0.003
		c-0.024-0.027-0.023-0.061-0.023-0.094c0-0.525,0-1.049,0-1.574c0-0.033,0-0.067,0.021-0.095l-0.001,0.001
		c0.006-0.003,0.011-0.007,0.016-0.011c0.001-0.004,0.004-0.005,0.008-0.004c0.009,0,0.015-0.006,0.02-0.013l0,0
		c0.004-0.004,0.009-0.007,0.014-0.01c0.002-0.004,0.006-0.006,0.011-0.005c0.007-0.002,0.013-0.007,0.018-0.011l0.001-0.001
		c0.006-0.009,0.02-0.006,0.026-0.016l-0.001,0c0.005-0.004,0.01-0.007,0.015-0.01c0.002-0.004,0.006-0.006,0.01-0.005
		c0.008-0.002,0.013-0.007,0.019-0.012c0.019-0.013,0.038-0.028,0.058-0.04c0.273-0.165,0.545-0.33,0.818-0.494
		c0.032-0.02,0.064-0.04,0.098-0.057c0.028-0.015,0.047-0.037,0.061-0.066c0.038-0.076,0.077-0.152,0.116-0.227
		C27.794,9.364,27.799,9.347,27.813,9.337z"/>
	<path fill="#00FF65" d="M26.664,0.951c-0.013,0.038-0.014,0.078-0.014,0.118c0,0.55,0,1.101,0,1.651
		c0,0.042-0.003,0.085,0.013,0.126c0.004,0.01,0.001,0.023,0.002,0.035c-0.016-0.009-0.033-0.017-0.049-0.028
		c-0.213-0.143-0.425-0.287-0.638-0.43c-0.16-0.108-0.32-0.216-0.48-0.324c-0.014-0.009-0.026-0.019-0.04-0.029
		c-0.023-0.038-0.022-0.081-0.022-0.123c-0.001-0.306-0.001-0.612,0-0.918c0-0.096,0.005-0.1,0.099-0.099
		c0.047,0.001,0.094-0.006,0.14,0.005c0.016-0.001,0.033-0.003,0.049-0.003c0.233,0.003,0.467,0.005,0.7,0.009
		C26.504,0.942,26.584,0.947,26.664,0.951z"/>
	<path fill="#00FF60" d="M26.478,10.358c0,0.024,0.001,0.047,0.001,0.071c0,0.564,0,1.128,0,1.692
		c-0.056,0.003-0.113,0.007-0.169,0.008c-0.32,0.003-0.64,0.005-0.96,0.008c-0.016,0-0.033-0.002-0.049-0.003
		c-0.042-0.022-0.049-0.061-0.05-0.102c-0.002-0.291-0.001-0.583-0.001-0.874c0-0.027,0.007-0.051,0.022-0.073
		c0.047-0.039,0.103-0.066,0.155-0.098c0.125-0.077,0.25-0.151,0.375-0.227c0.216-0.13,0.432-0.26,0.649-0.39
		C26.461,10.364,26.47,10.362,26.478,10.358z"/>
	<path fill="#00FF42" d="M25.675,0.935c-0.059,0.001-0.118,0.001-0.177,0.002c-0.032,0.001-0.038,0.007-0.04,0.037
		c-0.001,0.014,0,0.028,0,0.042c0,0.314,0,0.628-0.001,0.942c0,0.037,0.013,0.075,0.001,0.112c-0.024-0.006-0.041-0.023-0.06-0.036
		c-0.245-0.165-0.489-0.33-0.734-0.495c-0.28-0.189-0.56-0.376-0.84-0.565c-0.031-0.021-0.067-0.035-0.091-0.064
		c0.009-0.02,0.026-0.012,0.038-0.012c0.149,0.002,0.297,0.006,0.446,0.008c0.458,0.007,0.916,0.013,1.374,0.02
		C25.62,0.928,25.648,0.923,25.675,0.935z"/>
	<path fill="#00FF3C" d="M25.274,11.085c0,0.312,0,0.623-0.001,0.935c0,0.042,0.008,0.079,0.029,0.114
		c-0.019,0.001-0.038,0.003-0.056,0.004c-0.482,0.005-0.964,0.01-1.445,0.015c-0.076,0.001-0.151,0.003-0.227,0.005
		c-0.016,0-0.033,0-0.048,0c-0.01-0.018,0.004-0.023,0.013-0.029c0.07-0.043,0.141-0.086,0.212-0.129
		c0.133-0.081,0.267-0.161,0.4-0.242c0.285-0.172,0.57-0.344,0.855-0.517c0.071-0.043,0.142-0.085,0.213-0.127
		C25.236,11.103,25.255,11.094,25.274,11.085z"/>
	<path fill="#00FFB0" d="M29.233,6.585c0,0.012-0.003,0.022-0.014,0.028C29.218,6.601,29.223,6.592,29.233,6.585z"/>
	<path fill="#00FFB0" d="M29.219,6.614c0,0.012-0.003,0.022-0.014,0.028C29.204,6.63,29.208,6.62,29.219,6.614z"/>
	<path fill="#00FFB0" d="M29.204,6.642c0.001,0.012-0.002,0.023-0.014,0.028C29.189,6.658,29.193,6.648,29.204,6.642z"/>
	<path fill="#00FFB0" d="M29.175,6.698c0.001,0.013-0.002,0.023-0.015,0.029C29.16,6.714,29.165,6.704,29.175,6.698z"/>
	<path fill="#00FF60" d="M26.593,10.288c-0.005,0.012-0.015,0.015-0.026,0.016C26.572,10.294,26.581,10.289,26.593,10.288z"/>
	<path fill="#00FFAB" d="M29.075,6.146c0.012,0.004,0.016,0.014,0.016,0.026C29.082,6.166,29.076,6.158,29.075,6.146z"/>
	<path fill="#00FFB0" d="M29.19,6.67c0.001,0.012-0.002,0.023-0.015,0.029C29.175,6.686,29.179,6.676,29.19,6.67z"/>
	<path fill="#00FFAB" d="M29.103,6.189c0.013,0.004,0.016,0.014,0.017,0.026C29.109,6.209,29.104,6.201,29.103,6.189z"/>
	<path fill="#00FFB0" d="M29.248,6.559c0,0.011-0.004,0.021-0.015,0.026C29.232,6.573,29.237,6.564,29.248,6.559z"/>
	<path fill="#00FFAB" d="M28.982,6.004c0.003,0.004,0.007,0.009,0.01,0.013C28.985,6.015,28.981,6.011,28.982,6.004z"/>
	<path fill="#00FFAB" d="M28.992,6.017c0.008,0.004,0.012,0.01,0.012,0.019C28.996,6.032,28.992,6.026,28.992,6.017z"/>
	<path fill="#00FFAB" d="M29.01,6.046c0.003,0.005,0.007,0.009,0.01,0.014C29.013,6.058,29.009,6.054,29.01,6.046z"/>
	<path fill="#00FFAB" d="M29.02,6.06c0.008,0.004,0.012,0.01,0.012,0.019C29.024,6.076,29.02,6.069,29.02,6.06z"/>
	<path fill="#00FFAB" d="M29.037,6.089c0.003,0.005,0.007,0.01,0.01,0.015C29.04,6.101,29.037,6.097,29.037,6.089z"/>
	<path fill="#00FFAB" d="M29.048,6.103c0.008,0.004,0.013,0.01,0.013,0.02C29.052,6.119,29.048,6.112,29.048,6.103z"/>
	<path fill="#00FFAB" d="M29.065,6.131c0.007,0.003,0.01,0.008,0.011,0.015C29.068,6.144,29.065,6.139,29.065,6.131z"/>
	<path fill="#00FFAB" d="M29.093,6.173c0.007,0.003,0.011,0.009,0.011,0.017C29.096,6.187,29.092,6.181,29.093,6.173z"/>
	<path fill="#00FFAB" d="M29.12,6.216c0.007,0.004,0.011,0.01,0.012,0.018C29.124,6.23,29.12,6.224,29.12,6.216z"/>
	<path fill="#00FFAB" d="M29.138,6.245c0.003,0.004,0.007,0.009,0.01,0.013C29.141,6.256,29.138,6.252,29.138,6.245z"/>
	<path fill="#00FFB0" d="M29.262,6.429c0.007,0.004,0.011,0.01,0.012,0.018C29.266,6.443,29.262,6.437,29.262,6.429z"/>
	<path fill="#00FFB0" d="M29.28,6.458c0.006,0.004,0.009,0.009,0.009,0.016C29.286,6.469,29.283,6.463,29.28,6.458z"/>
	<path fill="#00FFB0" d="M29.288,6.483c0,0.007-0.003,0.013-0.009,0.017C29.278,6.492,29.281,6.486,29.288,6.483z"/>
	<path fill="#00FFB0" d="M29.274,6.511c0,0.007-0.003,0.013-0.01,0.016C29.264,6.52,29.267,6.515,29.274,6.511z"/>
	<path fill="#00FFB0" d="M29.26,6.539c0,0.008-0.004,0.014-0.011,0.018C29.249,6.549,29.252,6.543,29.26,6.539z"/>
	<path fill="#00FFB0" d="M29.161,6.726c-0.003,0.005-0.006,0.01-0.009,0.015C29.151,6.733,29.154,6.728,29.161,6.726z"/>
	<path fill="#00FFB0" d="M29.147,6.753c-0.003,0.005-0.006,0.011-0.01,0.016C29.136,6.761,29.14,6.756,29.147,6.753z"/>
	<path fill="#00FFB0" d="M29.132,6.781c0,0.007-0.003,0.013-0.01,0.016C29.122,6.79,29.125,6.785,29.132,6.781z"/>
	<path fill="#00FFB0" d="M29.118,6.81c0,0.007-0.003,0.013-0.01,0.017C29.108,6.818,29.111,6.813,29.118,6.81z"/>
	<path fill="#00FFB0" d="M29.104,6.838c0,0.008-0.003,0.013-0.01,0.017C29.093,6.847,29.097,6.841,29.104,6.838z"/>
	<path fill="#00FFB0" d="M29.09,6.866c0,0.008-0.003,0.014-0.01,0.017C29.079,6.875,29.082,6.869,29.09,6.866z"/>
	<path fill="#00FFB0" d="M29.075,6.894c0,0.008-0.003,0.014-0.01,0.018C29.064,6.903,29.068,6.897,29.075,6.894z"/>
	<path fill="#00FFB0" d="M29.061,6.922c0,0.008-0.003,0.014-0.01,0.018C29.05,6.931,29.053,6.925,29.061,6.922z"/>
	<path fill="#00FF60" d="M26.636,10.262c-0.004,0.007-0.01,0.011-0.019,0.012C26.621,10.266,26.627,10.262,26.636,10.262z"/>
	<path fill="#00FF60" d="M26.607,10.279c-0.005,0.003-0.01,0.007-0.015,0.01C26.595,10.282,26.599,10.278,26.607,10.279z"/>
	<path fill="#00FF60" d="M26.565,10.305c-0.004,0.007-0.01,0.011-0.018,0.011C26.551,10.309,26.557,10.305,26.565,10.305z"/>
	<path fill="#00FF60" d="M26.536,10.322c-0.005,0.003-0.009,0.007-0.014,0.01C26.524,10.325,26.529,10.321,26.536,10.322z"/>
	<path fill="#00FF60" d="M26.522,10.331c-0.004,0.008-0.011,0.012-0.02,0.013C26.506,10.336,26.513,10.332,26.522,10.331z"/>
	<path fill="#00FF60" d="M26.494,10.348c-0.003,0.007-0.009,0.01-0.016,0.011C26.48,10.351,26.486,10.348,26.494,10.348z"/>
	<path fill="#00FE38" d="M2.014,0.927c0.033-0.001,0.066-0.004,0.099-0.004c0.32-0.005,0.64-0.011,0.96-0.015
		c0.026,0,0.052,0.001,0.077,0.002C3.112,1.142,3.132,1.375,3.132,1.608c-0.002,1.26-0.001,2.52-0.001,3.779
		c0,0.059-0.002,0.118,0.019,0.175c-0.034,0.07-0.082,0.133-0.124,0.198C2.899,5.957,2.769,6.152,2.641,6.348
		c-0.04,0.061-0.038,0.048-0.007,0.107C2.806,6.79,2.979,7.123,3.151,7.457c0.038,0.073,0.077,0.146,0.116,0.22
		c0.01,0.019,0.023,0.036,0.025,0.058C3.281,7.782,3.287,7.829,3.287,7.876c0,1.332,0,2.665,0,3.997c0,0.124,0,0.124,0.125,0.124
		c0.08,0,0.161-0.002,0.241,0.001C3.682,12,3.717,11.993,3.731,12.032c-0.023,0.001-0.047,0.003-0.07,0.002
		c-0.214-0.003-0.429-0.006-0.643-0.008c-0.264-0.003-0.528-0.004-0.792-0.007c-0.028,0-0.056-0.002-0.085-0.004
		c-0.099-0.004-0.199-0.004-0.298-0.001c-0.058,0.002-0.076-0.023-0.077-0.074c0-0.026-0.001-0.052-0.001-0.078
		c0-3.594,0-7.188,0-10.783c0-0.15,0-0.15,0.15-0.15C1.948,0.93,1.981,0.933,2.014,0.927z"/>
	<path fill="#00FF08" d="M2.014,0.927C2,0.939,1.983,0.936,1.966,0.937c-0.045,0-0.09,0-0.135,0.001
		C1.795,0.938,1.79,0.944,1.788,0.978c-0.001,0.017,0,0.033,0,0.05c0,3.629,0,7.258,0,10.887c0,0.021,0,0.043,0.001,0.064
		c0.001,0.016,0.011,0.026,0.027,0.027c0.016,0.001,0.033,0.001,0.05,0.001c0.076,0,0.151,0,0.227,0
		c0.016,0,0.033-0.003,0.048,0.009c-0.113,0-0.227,0.001-0.34,0c-0.232-0.002-0.463-0.006-0.695-0.009
		c-0.045-0.001-0.09,0-0.135-0.002c-0.023-0.001-0.029-0.007-0.03-0.03C0.94,11.956,0.94,11.937,0.94,11.918c0-3.63,0-7.26,0-10.89
		c0-0.095-0.008-0.088,0.088-0.089c0.163-0.002,0.326-0.003,0.489-0.006c0.142-0.002,0.284-0.006,0.425-0.009
		C1.967,0.924,1.99,0.926,2.014,0.927z"/>
	<path fill="#00FF61" d="M3.731,12.032c-0.016-0.015-0.035-0.01-0.054-0.01c-0.109,0-0.218-0.001-0.326-0.001
		c-0.094,0-0.087,0.005-0.087-0.09c0-1.258,0-2.516,0-3.774c0-0.118,0-0.236,0-0.355c0-0.026-0.002-0.053,0.028-0.067c0,0,0,0,0,0
		C3.3,7.743,3.298,7.756,3.306,7.763l0,0c0.008,0.008,0.005,0.021,0.014,0.028l0,0C3.329,7.799,3.326,7.812,3.335,7.82l0-0.001
		c0.004,0.004,0.007,0.009,0.009,0.014C3.346,7.838,3.348,7.842,3.35,7.847c0.004,0.005,0.007,0.01,0.009,0.015
		C3.361,7.866,3.362,7.87,3.364,7.875C3.367,7.88,3.371,7.885,3.373,7.89c0.004,0.003,0.006,0.007,0.005,0.013
		c0.003,0.005,0.007,0.01,0.01,0.016c0.004,0.003,0.006,0.007,0.005,0.012c0.003,0.005,0.006,0.011,0.01,0.016
		C3.406,7.95,3.408,7.954,3.407,7.959C3.41,7.965,3.413,7.97,3.416,7.975C3.42,7.978,3.422,7.982,3.421,7.987
		c0.003,0.006,0.006,0.011,0.01,0.017C3.435,8.007,3.436,8.01,3.436,8.015c0.003,0.006,0.006,0.012,0.01,0.017
		C3.449,8.035,3.451,8.039,3.45,8.043C3.451,8.05,3.456,8.055,3.46,8.061c0.004,0.003,0.005,0.006,0.004,0.011
		c0.001,0.007,0.006,0.012,0.01,0.018c0.004,0.003,0.005,0.006,0.004,0.01c0.001,0.007,0.006,0.012,0.01,0.018
		c0.004,0.002,0.005,0.006,0.004,0.01c0.001,0.008,0.006,0.013,0.01,0.018c0.004,0.002,0.005,0.005,0.004,0.01
		c0.001,0.008,0.006,0.013,0.01,0.019c0.004,0.002,0.005,0.005,0.004,0.009c0,0.008,0.005,0.014,0.011,0.019
		c0.004,0.002,0.005,0.005,0.004,0.009c0,0.009,0.006,0.014,0.011,0.02l0.001,0.001C3.556,8.24,3.553,8.252,3.561,8.26l0,0.001
		c0.009,0.007,0.006,0.02,0.014,0.027l0,0.001C3.58,8.292,3.583,8.296,3.584,8.301C3.602,8.318,3.61,8.341,3.62,8.361
		C3.733,8.58,3.844,8.798,3.956,9.016c0.089,0.172,0.179,0.342,0.267,0.515C4.24,9.564,4.265,9.586,4.296,9.604
		c0.168,0.101,0.335,0.202,0.503,0.303c0.02,0.012,0.039,0.026,0.058,0.039c-0.008,0.061-0.01,0.122-0.01,0.184
		c0,0.575,0,1.149,0,1.724c0,0.019,0,0.038,0,0.057c0.001,0.097,0.005,0.101,0.099,0.102c0.071,0.001,0.142-0.002,0.213,0.001
		c0.028,0.001,0.064-0.007,0.076,0.033c-0.019,0.001-0.038,0.003-0.056,0.003c-0.469-0.005-0.937-0.01-1.406-0.015
		C3.759,12.034,3.745,12.033,3.731,12.032z"/>
	<path fill="#00FF58" d="M3.15,5.563C3.123,5.561,3.115,5.54,3.111,5.519C3.107,5.501,3.108,5.482,3.108,5.463
		c0-1.474,0-2.949-0.001-4.423c0-0.05,0.011-0.093,0.043-0.13c0.084-0.005,0.167-0.008,0.251-0.003
		C3.516,0.893,3.63,0.909,3.745,0.898c0.147-0.006,0.294-0.009,0.441-0.005C4.199,0.91,4.199,0.928,4.199,0.947
		c-0.01,0.938-0.001,1.876-0.005,2.814c0,0.062,0.01,0.122,0.017,0.183c-0.054,0.097-0.118,0.187-0.178,0.28
		C3.953,4.35,3.87,4.473,3.789,4.598c-0.056,0.085-0.11,0.17-0.166,0.255c-0.01,0.016-0.017,0.034-0.035,0.044
		c-0.004,0.005-0.007,0.01-0.011,0.015C3.575,4.923,3.568,4.932,3.559,4.94c-0.003,0.005-0.007,0.01-0.01,0.015
		C3.547,4.967,3.54,4.975,3.531,4.982c-0.004,0.005-0.007,0.01-0.01,0.016C3.518,5.002,3.516,5.007,3.514,5.011
		C3.512,5.016,3.509,5.02,3.505,5.022L3.504,5.024C3.5,5.029,3.494,5.034,3.492,5.041C3.49,5.045,3.488,5.049,3.486,5.054
		C3.484,5.058,3.481,5.062,3.477,5.065L3.476,5.067c-0.005,0.005-0.01,0.011-0.012,0.018c0,0.005-0.002,0.009-0.006,0.012
		c-0.002,0.005-0.006,0.009-0.01,0.013l0,0.001C3.442,5.114,3.437,5.12,3.436,5.128c0,0.005-0.002,0.008-0.006,0.011
		C3.428,5.143,3.424,5.148,3.42,5.152l0,0C3.414,5.157,3.409,5.163,3.408,5.171c0,0.005-0.001,0.008-0.005,0.01
		c-0.003,0.005-0.007,0.01-0.01,0.014l0,0C3.385,5.2,3.38,5.205,3.38,5.214c0,0.004-0.001,0.007-0.005,0.009
		c-0.004,0.005-0.007,0.01-0.01,0.015C3.362,5.243,3.359,5.248,3.357,5.252c-0.001,0.005-0.003,0.009-0.008,0.01L3.347,5.265
		C3.344,5.271,3.338,5.276,3.336,5.282C3.334,5.286,3.332,5.291,3.329,5.295C3.328,5.3,3.325,5.304,3.32,5.306L3.319,5.308
		C3.315,5.313,3.31,5.318,3.308,5.325c0,0.005-0.002,0.009-0.006,0.012C3.3,5.342,3.296,5.346,3.292,5.349L3.292,5.35
		C3.287,5.356,3.281,5.361,3.28,5.369c0,0.005-0.002,0.009-0.006,0.011c-0.002,0.005-0.006,0.009-0.01,0.013l0,0
		C3.258,5.398,3.253,5.404,3.251,5.412c0,0.005-0.001,0.008-0.005,0.01c-0.003,0.005-0.006,0.01-0.01,0.014l0,0
		C3.23,5.441,3.224,5.447,3.223,5.455C3.224,5.46,3.222,5.463,3.218,5.465c-0.003,0.005-0.007,0.01-0.01,0.015l0-0.001
		c-0.007,0.005-0.013,0.011-0.013,0.02C3.195,5.503,3.194,5.505,3.19,5.507C3.187,5.512,3.183,5.517,3.18,5.522L3.18,5.521
		C3.174,5.525,3.168,5.53,3.167,5.539l0.002-0.002C3.155,5.54,3.159,5.556,3.15,5.563L3.15,5.563z"/>
	<path fill="#00FF78" d="M4.212,3.945C4.178,3.922,4.178,3.885,4.173,3.85C4.17,3.832,4.172,3.813,4.172,3.794
		c0-0.894,0-1.788,0-2.682c0-0.073-0.004-0.146,0.014-0.218C4.259,0.89,4.332,0.886,4.405,0.884c0.137-0.003,0.273-0.003,0.41-0.005
		C5.08,0.875,5.346,0.87,5.612,0.866c0.026,0,0.052,0.001,0.077,0.002C5.678,0.908,5.642,0.9,5.614,0.901
		c-0.066,0.003-0.132,0-0.198,0.001C5.338,0.904,5.331,0.91,5.33,0.988c-0.001,0.217,0,0.434,0,0.651c0,0.311,0,0.622,0,0.934
		c0,0.052,0.004,0.104,0.021,0.153c-0.017,0.013-0.032,0.027-0.05,0.039C5.132,2.877,4.963,2.99,4.794,3.103
		C4.76,3.125,4.733,3.152,4.71,3.187C4.632,3.311,4.552,3.434,4.472,3.556C4.391,3.679,4.31,3.801,4.229,3.923
		C4.224,3.931,4.218,3.937,4.212,3.945z"/>
	<path fill="#00FF95" d="M5.235,12.047C5.22,12.031,5.2,12.035,5.182,12.035c-0.094-0.001-0.189,0-0.283-0.001
		c-0.016,0-0.033,0-0.049-0.002c-0.013-0.001-0.021-0.01-0.023-0.023c-0.001-0.016-0.002-0.033-0.002-0.05c0-0.643,0-1.285,0-1.928
		c0-0.012,0-0.024,0-0.035c-0.001-0.024,0.011-0.04,0.032-0.05c0.005,0,0.008,0.001,0.011,0.005c0.005,0.003,0.01,0.007,0.016,0.01
		L4.882,9.961c0.006,0.011,0.02,0.007,0.027,0.016l0.001,0c0.006,0.005,0.011,0.01,0.019,0.012c0.005,0,0.008,0.001,0.01,0.005
		c0.005,0.003,0.01,0.007,0.015,0.01c0.075,0.036,0.143,0.083,0.213,0.126c0.306,0.184,0.611,0.369,0.916,0.553
		c0.075,0.045,0.15,0.089,0.225,0.135c0.012,0.007,0.022,0.017,0.033,0.025c-0.017,0.04-0.019,0.082-0.019,0.125
		c0,0.32,0,0.641,0,0.961c0,0.095,0.004,0.097,0.101,0.098c0.049,0,0.099-0.002,0.148,0.001c0.026,0.002,0.059-0.005,0.069,0.033
		c-0.019,0.001-0.038,0.003-0.056,0.003c-0.436-0.005-0.871-0.009-1.307-0.014C5.263,12.05,5.249,12.048,5.235,12.047z"/>
	<path fill="#00FF9B" d="M5.351,2.725C5.324,2.723,5.315,2.703,5.31,2.682C5.307,2.664,5.307,2.645,5.307,2.626
		c0-0.555,0-1.11,0-1.665c0-0.084-0.003-0.081,0.081-0.081c0.083,0,0.165,0,0.248-0.001c0.018,0,0.038,0.004,0.053-0.012
		c0.007-0.001,0.014-0.003,0.021-0.003C6.009,0.86,6.307,0.855,6.606,0.85c0.012,0,0.023,0.002,0.035,0.003
		c-0.003,0.03-0.028,0.032-0.047,0.032c-0.067,0-0.074,0.04-0.073,0.093c0.001,0.24,0,0.48,0.001,0.72
		c0,0.074-0.015,0.152,0.034,0.218c-0.027,0.019-0.053,0.039-0.08,0.057c-0.24,0.162-0.479,0.323-0.719,0.485
		c-0.015,0.01-0.032,0.019-0.048,0.028C5.701,2.487,5.696,2.492,5.69,2.497L5.689,2.498C5.686,2.502,5.682,2.505,5.677,2.506
		C5.673,2.508,5.669,2.511,5.664,2.513C5.658,2.516,5.653,2.521,5.648,2.525L5.646,2.526C5.643,2.531,5.64,2.534,5.634,2.535
		C5.63,2.537,5.626,2.54,5.622,2.542C5.616,2.544,5.611,2.549,5.605,2.553L5.604,2.554c-0.003,0.005-0.007,0.008-0.012,0.01
		C5.589,2.568,5.585,2.571,5.58,2.57C5.573,2.573,5.568,2.577,5.563,2.582L5.562,2.583c-0.003,0.005-0.007,0.008-0.012,0.01
		C5.547,2.597,5.543,2.599,5.538,2.599C5.531,2.601,5.525,2.606,5.52,2.611l-0.001,0c-0.003,0.004-0.008,0.008-0.013,0.01
		C5.504,2.626,5.501,2.628,5.496,2.627C5.488,2.629,5.483,2.634,5.478,2.64l0,0C5.474,2.644,5.469,2.648,5.464,2.65
		c-0.002,0.004-0.005,0.006-0.01,0.006C5.446,2.657,5.44,2.662,5.435,2.668l0,0c-0.004,0.004-0.009,0.008-0.014,0.01
		c-0.002,0.004-0.005,0.006-0.01,0.005C5.403,2.685,5.398,2.691,5.393,2.697l0,0C5.389,2.701,5.384,2.704,5.379,2.707
		C5.377,2.711,5.374,2.713,5.37,2.713C5.361,2.714,5.355,2.719,5.351,2.725L5.351,2.725z"/>
	<path fill="#00FFB9" d="M6.641,12.061c-0.015-0.016-0.035-0.012-0.053-0.012c-0.071,0-0.142,0-0.213-0.001
		c-0.017,0-0.033,0-0.049-0.002c-0.013-0.001-0.022-0.01-0.023-0.023c-0.002-0.016-0.002-0.033-0.002-0.049c0-0.35,0-0.699,0-1.049
		c0-0.014,0-0.028,0.001-0.043c0.001-0.025,0.016-0.038,0.041-0.04l0.001,0c0.006,0.005,0.011,0.01,0.019,0.012
		c0.005-0.001,0.008,0.001,0.01,0.005c0.005,0.003,0.01,0.006,0.015,0.01l-0.001,0c0.006,0.01,0.02,0.006,0.027,0.016l0.001,0.001
		c0.006,0.004,0.011,0.009,0.018,0.011c0.005-0.001,0.009,0.001,0.011,0.005c0.005,0.003,0.01,0.006,0.014,0.01l0,0
		c0.005,0.007,0.011,0.012,0.02,0.012c0.004-0.001,0.007,0.001,0.008,0.005c0.005,0.004,0.01,0.009,0.017,0.011
		c0.005-0.001,0.009,0.001,0.012,0.006c0.005,0.002,0.01,0.006,0.014,0.01l0,0c0.007,0.009,0.02,0.006,0.027,0.015l0.001,0
		c0.005,0.005,0.011,0.01,0.019,0.012c0.005-0.001,0.008,0.001,0.01,0.005c0.005,0.003,0.01,0.007,0.015,0.01l0,0
		c0.006,0.01,0.02,0.007,0.026,0.016l0.001,0.001c0.005,0.005,0.011,0.01,0.018,0.011c0.005-0.001,0.009,0.001,0.011,0.006
		c0.005,0.003,0.01,0.006,0.014,0.01l0,0c0.006,0.01,0.02,0.006,0.026,0.015c0.019,0.01,0.038,0.019,0.056,0.03
		c0.195,0.118,0.391,0.235,0.586,0.354c0.044,0.027,0.092,0.046,0.131,0.082c-0.042,0.151-0.018,0.305-0.024,0.457
		c-0.002,0.052,0.03,0.062,0.073,0.062c0.13,0,0.259-0.002,0.389,0.001c0.03,0.001,0.069-0.011,0.083,0.033
		c-0.019,0.001-0.037,0.003-0.056,0.003c-0.419-0.004-0.838-0.009-1.257-0.014C6.664,12.064,6.652,12.062,6.641,12.061z"/>
	<path fill="#00FFC0" d="M6.556,1.916C6.528,1.919,6.51,1.905,6.504,1.879C6.5,1.863,6.5,1.847,6.5,1.83c0-0.299,0-0.599,0-0.898
		c0-0.014,0-0.028,0.002-0.042c0.001-0.013,0.011-0.021,0.023-0.022c0.023-0.002,0.047-0.001,0.071-0.002
		c0.016,0,0.033,0.002,0.046-0.013c0.127-0.004,0.255-0.008,0.382-0.011C7.379,0.836,7.735,0.83,8.092,0.825
		c0.023,0,0.046,0,0.067,0C8.164,0.842,8.153,0.846,8.147,0.85C7.886,1.025,7.626,1.2,7.365,1.375
		C7.248,1.454,7.131,1.534,7.013,1.613C6.972,1.64,6.93,1.665,6.888,1.691C6.879,1.692,6.873,1.697,6.869,1.704l0,0
		C6.864,1.707,6.86,1.711,6.855,1.714C6.853,1.718,6.85,1.72,6.846,1.72c-0.009,0-0.015,0.006-0.019,0.013l0,0
		c-0.005,0.004-0.01,0.007-0.015,0.011C6.811,1.747,6.808,1.749,6.804,1.748c-0.009,0-0.015,0.005-0.02,0.013l0.001,0
		C6.779,1.764,6.774,1.768,6.768,1.772L6.767,1.773c-0.006,0.01-0.02,0.006-0.025,0.017l0.001-0.001
		C6.736,1.792,6.732,1.798,6.726,1.801L6.724,1.802C6.722,1.807,6.718,1.81,6.713,1.811C6.709,1.813,6.705,1.816,6.701,1.818
		C6.694,1.82,6.689,1.825,6.683,1.83L6.682,1.83C6.68,1.835,6.675,1.838,6.67,1.84C6.668,1.845,6.664,1.847,6.659,1.846
		C6.652,1.849,6.646,1.854,6.641,1.858L6.64,1.859c-0.003,0.005-0.007,0.008-0.013,0.01C6.625,1.873,6.622,1.875,6.617,1.875
		C6.609,1.877,6.604,1.882,6.598,1.887l-0.001,0C6.595,1.892,6.59,1.895,6.585,1.898c-0.002,0.004-0.006,0.006-0.01,0.006
		C6.567,1.905,6.561,1.91,6.556,1.916L6.556,1.916z"/>
	<path fill="#00FED9" d="M7.989,12.076c-0.017-0.018-0.04-0.012-0.06-0.012c-0.139-0.001-0.279-0.001-0.418-0.001
		c-0.094,0-0.088,0.006-0.088-0.089c0-0.111,0.001-0.222-0.001-0.333c0-0.032,0.008-0.06,0.017-0.09
		c0.005-0.014,0.016-0.023,0.029-0.029c0.005-0.001,0.009,0.001,0.011,0.006c0.005,0.003,0.01,0.006,0.015,0.01l0,0
		c0.006,0.009,0.02,0.006,0.026,0.016l0.001,0.001c0.006,0.004,0.011,0.009,0.018,0.011c0.005-0.001,0.009,0.001,0.011,0.005
		c0.005,0.003,0.01,0.006,0.014,0.01l0,0c0.005,0.006,0.011,0.012,0.02,0.012c0.004-0.001,0.007,0.001,0.009,0.005
		c0.005,0.004,0.01,0.008,0.017,0.011c0.005-0.001,0.009,0.001,0.012,0.006c0.005,0.002,0.01,0.005,0.013,0.01l0,0
		c0.005,0.006,0.011,0.011,0.019,0.012c0.004-0.001,0.008,0.001,0.009,0.005c0.005,0.004,0.01,0.007,0.015,0.01L7.678,11.65
		c0.006,0.011,0.02,0.007,0.027,0.016l0.001,0c0.005,0.005,0.011,0.01,0.019,0.012c0.005-0.001,0.008,0.001,0.01,0.005
		c0.005,0.003,0.01,0.007,0.015,0.01l-0.001,0c0.006,0.01,0.02,0.007,0.027,0.016l0.001,0.001c0.006,0.005,0.011,0.01,0.019,0.011
		c0.004-0.001,0.008,0,0.01,0.004c0.005,0.004,0.01,0.009,0.017,0.011c0.005-0.001,0.009,0.001,0.012,0.006
		c0.005,0.002,0.01,0.006,0.014,0.01l0,0c0.005,0.006,0.011,0.012,0.019,0.012c0.004-0.001,0.007,0.001,0.009,0.005
		c0.005,0.004,0.01,0.007,0.016,0.01c0.007,0.002,0.014,0.004,0.02,0.008c0.147,0.089,0.294,0.177,0.442,0.266
		c0.008,0.005,0.015,0.01,0.022,0.015c0.001,0.01-0.006,0.014-0.013,0.014C8.238,12.08,8.113,12.078,7.989,12.076z"/>
	<path fill="#00FE38" d="M3.745,0.898c-0.01,0.008-0.021,0.01-0.033,0.01c-0.103-0.001-0.207-0.001-0.31-0.001
		c0.007-0.002,0.013-0.006,0.02-0.006C3.529,0.898,3.637,0.893,3.745,0.898z"/>
	<path fill="#00FE38" d="M3.306,7.763C3.295,7.757,3.292,7.747,3.292,7.735C3.302,7.742,3.307,7.751,3.306,7.763z"/>
	<path fill="#00FE38" d="M3.321,7.791C3.309,7.785,3.306,7.775,3.306,7.763C3.317,7.77,3.321,7.779,3.321,7.791z"/>
	<path fill="#00FE38" d="M3.335,7.82C3.323,7.814,3.321,7.803,3.321,7.791C3.331,7.798,3.336,7.807,3.335,7.82z"/>
	<path fill="#00FE38" d="M3.15,5.563C3.151,5.55,3.154,5.54,3.168,5.537C3.166,5.548,3.16,5.557,3.15,5.563z"/>
	<path fill="#00FE38" d="M3.561,8.26C3.55,8.254,3.548,8.244,3.547,8.233C3.557,8.239,3.562,8.248,3.561,8.26z"/>
	<path fill="#00FE38" d="M3.576,8.288C3.565,8.282,3.562,8.272,3.562,8.261C3.571,8.267,3.576,8.276,3.576,8.288z"/>
	<path fill="#00FF61" d="M4.909,9.977c-0.012,0-0.022-0.004-0.027-0.016C4.894,9.962,4.903,9.967,4.909,9.977z"/>
	<path fill="#00FF9B" d="M6.742,1.79c0.004-0.012,0.014-0.016,0.025-0.017C6.761,1.783,6.753,1.789,6.742,1.79z"/>
	<path fill="#00FF95" d="M6.413,10.886c-0.012,0-0.022-0.004-0.027-0.016C6.398,10.87,6.407,10.876,6.413,10.886z"/>
	<path fill="#00FF95" d="M6.555,10.971c-0.012,0-0.022-0.003-0.027-0.015C6.54,10.956,6.549,10.96,6.555,10.971z"/>
	<path fill="#00FF95" d="M6.626,11.014c-0.012,0-0.022-0.004-0.026-0.016C6.611,10.998,6.62,11.003,6.626,11.014z"/>
	<path fill="#00FF95" d="M6.696,11.056c-0.012,0-0.021-0.004-0.026-0.015C6.682,11.041,6.69,11.046,6.696,11.056z"/>
	<path fill="#00FFB9" d="M7.519,11.553c-0.012,0-0.021-0.004-0.026-0.016C7.505,11.538,7.513,11.543,7.519,11.553z"/>
	<path fill="#00FFB9" d="M7.705,11.666c-0.012,0-0.022-0.004-0.027-0.016C7.69,11.651,7.699,11.656,7.705,11.666z"/>
	<path fill="#00FFB9" d="M7.775,11.709c-0.012,0-0.022-0.004-0.027-0.016C7.761,11.693,7.769,11.699,7.775,11.709z"/>
	<path fill="#00FE38" d="M3.492,5.041C3.496,5.035,3.5,5.03,3.504,5.024C3.503,5.032,3.5,5.038,3.492,5.041z"/>
	<path fill="#00FE38" d="M3.477,5.065C3.48,5.061,3.483,5.057,3.486,5.054C3.486,5.06,3.483,5.064,3.477,5.065z"/>
	<path fill="#00FE38" d="M3.464,5.084c0.004-0.006,0.008-0.012,0.012-0.018C3.476,5.075,3.472,5.081,3.464,5.084z"/>
	<path fill="#00FE38" d="M3.448,5.109C3.452,5.104,3.455,5.1,3.458,5.096C3.458,5.103,3.455,5.107,3.448,5.109z"/>
	<path fill="#00FE38" d="M3.436,5.128c0.001-0.008,0.005-0.014,0.012-0.018C3.448,5.118,3.444,5.124,3.436,5.128z"/>
	<path fill="#00FE38" d="M3.42,5.152c0.003-0.004,0.007-0.009,0.01-0.013C3.431,5.146,3.427,5.15,3.42,5.152z"/>
	<path fill="#00FE38" d="M3.408,5.171c0-0.009,0.005-0.015,0.012-0.019C3.42,5.161,3.416,5.167,3.408,5.171z"/>
	<path fill="#00FE38" d="M3.392,5.195c0.003-0.005,0.007-0.009,0.01-0.014C3.403,5.188,3.399,5.193,3.392,5.195z"/>
	<path fill="#00FE38" d="M3.38,5.214c0-0.009,0.005-0.016,0.013-0.02C3.392,5.204,3.388,5.21,3.38,5.214z"/>
	<path fill="#00FE38" d="M3.364,5.239c0.003-0.005,0.007-0.01,0.01-0.015C3.375,5.231,3.371,5.236,3.364,5.239z"/>
	<path fill="#00FE38" d="M3.348,5.263c0.002-0.004,0.004-0.008,0.008-0.01C3.354,5.256,3.351,5.259,3.348,5.263z"/>
	<path fill="#00FE38" d="M3.336,5.282C3.34,5.276,3.343,5.271,3.347,5.265C3.347,5.273,3.343,5.279,3.336,5.282z"/>
	<path fill="#00FE38" d="M3.32,5.306c0.003-0.004,0.006-0.008,0.009-0.011C3.33,5.301,3.326,5.305,3.32,5.306z"/>
	<path fill="#00FE38" d="M3.308,5.325c0.004-0.006,0.008-0.012,0.012-0.018C3.319,5.316,3.315,5.322,3.308,5.325z"/>
	<path fill="#00FE38" d="M3.292,5.349c0.003-0.004,0.006-0.008,0.01-0.012C3.302,5.344,3.298,5.348,3.292,5.349z"/>
	<path fill="#00FE38" d="M3.28,5.369C3.28,5.36,3.284,5.354,3.292,5.35C3.291,5.359,3.287,5.365,3.28,5.369z"/>
	<path fill="#00FE38" d="M3.264,5.393c0.003-0.004,0.007-0.009,0.01-0.013C3.274,5.387,3.27,5.391,3.264,5.393z"/>
	<path fill="#00FE38" d="M3.251,5.412c0.001-0.009,0.005-0.015,0.012-0.019C3.263,5.402,3.259,5.408,3.251,5.412z"/>
	<path fill="#00FE38" d="M3.236,5.436c0.003-0.005,0.007-0.009,0.01-0.014C3.246,5.429,3.242,5.434,3.236,5.436z"/>
	<path fill="#00FE38" d="M3.223,5.455C3.224,5.446,3.228,5.44,3.236,5.436C3.235,5.445,3.231,5.451,3.223,5.455z"/>
	<path fill="#00FE38" d="M3.195,5.499c0-0.009,0.005-0.016,0.013-0.02C3.207,5.488,3.203,5.494,3.195,5.499z"/>
	<path fill="#00FE38" d="M3.18,5.522c0.004-0.005,0.007-0.01,0.011-0.015C3.19,5.515,3.187,5.52,3.18,5.522z"/>
	<path fill="#00FE38" d="M3.167,5.539C3.168,5.53,3.172,5.524,3.18,5.521C3.18,5.53,3.176,5.536,3.167,5.539z"/>
	<path fill="#00FE38" d="M3.208,5.479c0.003-0.005,0.007-0.01,0.01-0.015C3.218,5.472,3.215,5.477,3.208,5.479z"/>
	<path fill="#00FF9B" d="M6.869,1.704c0.004-0.008,0.01-0.012,0.019-0.013C6.884,1.699,6.878,1.703,6.869,1.704z"/>
	<path fill="#00FF9B" d="M6.855,1.714c0.005-0.003,0.01-0.007,0.014-0.01C6.867,1.711,6.862,1.715,6.855,1.714z"/>
	<path fill="#00FF9B" d="M6.826,1.732C6.83,1.724,6.836,1.72,6.846,1.72C6.842,1.728,6.835,1.732,6.826,1.732z"/>
	<path fill="#00FF9B" d="M6.812,1.743c0.005-0.004,0.01-0.007,0.015-0.011C6.825,1.74,6.82,1.743,6.812,1.743z"/>
	<path fill="#00FF9B" d="M6.784,1.761c0.004-0.009,0.01-0.013,0.02-0.013C6.8,1.757,6.793,1.761,6.784,1.761z"/>
	<path fill="#00FF9B" d="M6.768,1.772c0.005-0.004,0.011-0.008,0.016-0.011C6.782,1.768,6.777,1.772,6.768,1.772z"/>
	<path fill="#00FF9B" d="M6.726,1.801C6.729,1.794,6.735,1.79,6.742,1.789C6.74,1.797,6.734,1.801,6.726,1.801z"/>
	<path fill="#00FF9B" d="M6.713,1.811c0.004-0.003,0.008-0.006,0.012-0.009C6.723,1.808,6.72,1.812,6.713,1.811z"/>
	<path fill="#00FF9B" d="M6.683,1.83c0.004-0.007,0.009-0.011,0.017-0.012C6.698,1.826,6.692,1.83,6.683,1.83z"/>
	<path fill="#00FF9B" d="M6.67,1.84c0.004-0.003,0.008-0.007,0.012-0.01C6.681,1.837,6.677,1.84,6.67,1.84z"/>
	<path fill="#00FF9B" d="M6.641,1.858c0.004-0.007,0.01-0.011,0.018-0.012C6.655,1.854,6.65,1.858,6.641,1.858z"/>
	<path fill="#00FF9B" d="M6.627,1.869c0.004-0.003,0.008-0.007,0.013-0.01C6.639,1.865,6.635,1.869,6.627,1.869z"/>
	<path fill="#00FF9B" d="M6.598,1.887c0.004-0.007,0.01-0.012,0.018-0.012C6.613,1.883,6.607,1.887,6.598,1.887z"/>
	<path fill="#00FF9B" d="M6.585,1.898c0.004-0.003,0.009-0.007,0.013-0.01C6.596,1.894,6.592,1.898,6.585,1.898z"/>
	<path fill="#00FF9B" d="M6.556,1.916c0.004-0.008,0.01-0.012,0.018-0.012C6.571,1.911,6.565,1.916,6.556,1.916z"/>
	<path fill="#00FF78" d="M5.69,2.497C5.694,2.49,5.7,2.486,5.709,2.486C5.705,2.493,5.699,2.497,5.69,2.497z"/>
	<path fill="#00FF78" d="M5.648,2.525c0.006-0.004,0.011-0.008,0.017-0.011C5.661,2.521,5.656,2.525,5.648,2.525z"/>
	<path fill="#00FF78" d="M5.634,2.535c0.004-0.003,0.008-0.006,0.011-0.009C5.645,2.532,5.641,2.535,5.634,2.535z"/>
	<path fill="#00FF78" d="M5.605,2.553C5.611,2.55,5.617,2.546,5.622,2.542C5.619,2.549,5.613,2.553,5.605,2.553z"/>
	<path fill="#00FF78" d="M5.592,2.564C5.596,2.561,5.6,2.557,5.604,2.554C5.602,2.56,5.599,2.564,5.592,2.564z"/>
	<path fill="#00FE38" d="M3.344,7.833c-0.003-0.005-0.006-0.01-0.009-0.014C3.341,7.822,3.345,7.826,3.344,7.833z"/>
	<path fill="#00FE38" d="M3.359,7.862C3.356,7.857,3.353,7.852,3.35,7.847C3.356,7.85,3.359,7.855,3.359,7.862z"/>
	<path fill="#00FE38" d="M3.373,7.89C3.37,7.885,3.367,7.88,3.364,7.875C3.37,7.878,3.374,7.883,3.373,7.89z"/>
	<path fill="#00FF78" d="M5.563,2.582C5.566,2.575,5.572,2.571,5.58,2.57C5.577,2.578,5.571,2.582,5.563,2.582z"/>
	<path fill="#00FF78" d="M5.549,2.593c0.004-0.003,0.008-0.007,0.012-0.01C5.56,2.589,5.556,2.593,5.549,2.593z"/>
	<path fill="#00FE38" d="M3.388,7.919c-0.003-0.005-0.006-0.01-0.01-0.016C3.385,7.906,3.388,7.911,3.388,7.919z"/>
	<path fill="#00FE38" d="M3.402,7.947c-0.003-0.005-0.006-0.011-0.01-0.016C3.399,7.934,3.403,7.939,3.402,7.947z"/>
	<path fill="#00FE38" d="M3.416,7.975C3.413,7.97,3.41,7.965,3.407,7.959C3.414,7.962,3.417,7.968,3.416,7.975z"/>
	<path fill="#00FE38" d="M3.431,8.004c-0.003-0.006-0.006-0.011-0.01-0.017C3.428,7.99,3.432,7.996,3.431,8.004z"/>
	<path fill="#00FE38" d="M3.445,8.032c-0.007-0.004-0.01-0.009-0.01-0.017C3.443,8.019,3.446,8.024,3.445,8.032z"/>
	<path fill="#00FE38" d="M3.46,8.061c-0.007-0.004-0.01-0.01-0.01-0.017C3.457,8.047,3.46,8.053,3.46,8.061z"/>
	<path fill="#00FE38" d="M3.474,8.089c-0.003-0.006-0.007-0.012-0.01-0.018C3.471,8.075,3.475,8.081,3.474,8.089z"/>
	<path fill="#00FE38" d="M3.489,8.117c-0.007-0.004-0.01-0.01-0.01-0.018C3.486,8.103,3.489,8.109,3.489,8.117z"/>
	<path fill="#00FE38" d="M3.503,8.146c-0.007-0.004-0.01-0.01-0.01-0.018C3.5,8.131,3.503,8.137,3.503,8.146z"/>
	<path fill="#00FE38" d="M3.518,8.174c-0.007-0.004-0.01-0.011-0.01-0.019C3.515,8.159,3.518,8.166,3.518,8.174z"/>
	<path fill="#00FE38" d="M3.532,8.202C3.525,8.198,3.521,8.192,3.521,8.183C3.529,8.188,3.532,8.194,3.532,8.202z"/>
	<path fill="#00FE38" d="M3.547,8.232C3.539,8.227,3.536,8.22,3.536,8.211C3.543,8.216,3.547,8.223,3.547,8.232z"/>
	<path fill="#00FF78" d="M5.52,2.611c0.004-0.007,0.01-0.011,0.018-0.012C5.535,2.607,5.529,2.611,5.52,2.611z"/>
	<path fill="#00FF78" d="M5.507,2.621c0.004-0.003,0.009-0.007,0.013-0.01C5.518,2.618,5.514,2.622,5.507,2.621z"/>
	<path fill="#00FF78" d="M5.478,2.64c0.004-0.008,0.01-0.012,0.018-0.012C5.492,2.635,5.486,2.639,5.478,2.64z"/>
	<path fill="#00FE38" d="M3.584,8.301C3.582,8.297,3.579,8.293,3.576,8.289C3.579,8.293,3.582,8.297,3.584,8.301z"/>
	<path fill="#00FF78" d="M5.464,2.65c0.004-0.003,0.009-0.007,0.013-0.01C5.475,2.647,5.471,2.65,5.464,2.65z"/>
	<path fill="#00FF78" d="M5.435,2.668c0.004-0.008,0.01-0.012,0.019-0.012C5.45,2.664,5.444,2.668,5.435,2.668z"/>
	<path fill="#00FF78" d="M5.421,2.679c0.005-0.003,0.009-0.007,0.014-0.01C5.433,2.675,5.429,2.679,5.421,2.679z"/>
	<path fill="#00FF78" d="M5.393,2.697c0.004-0.008,0.01-0.012,0.019-0.013C5.408,2.692,5.402,2.696,5.393,2.697z"/>
	<path fill="#00FF78" d="M5.379,2.707C5.383,2.704,5.388,2.7,5.393,2.697C5.391,2.704,5.386,2.708,5.379,2.707z"/>
	<path fill="#00FF78" d="M5.35,2.726C5.354,2.717,5.36,2.713,5.37,2.713C5.366,2.721,5.359,2.725,5.35,2.726z"/>
	<path fill="#00FF61" d="M4.883,9.962c-0.007,0-0.012-0.004-0.016-0.01C4.876,9.951,4.881,9.954,4.883,9.962z"/>
	<path fill="#00FF61" d="M4.929,9.989c-0.009,0-0.015-0.004-0.019-0.012C4.918,9.978,4.925,9.981,4.929,9.989z"/>
	<path fill="#00FF61" d="M4.954,10.005c-0.005-0.003-0.01-0.007-0.015-0.01C4.947,9.994,4.951,9.998,4.954,10.005z"/>
	<path fill="#00FF95" d="M6.362,10.855c-0.008,0-0.015-0.004-0.019-0.012C6.352,10.843,6.358,10.847,6.362,10.855z"/>
	<path fill="#00FF95" d="M6.387,10.871c-0.005-0.003-0.01-0.007-0.015-0.01C6.38,10.86,6.384,10.863,6.387,10.871z"/>
	<path fill="#00FF95" d="M6.432,10.898c-0.008,0-0.014-0.004-0.018-0.011C6.422,10.886,6.428,10.89,6.432,10.898z"/>
	<path fill="#00FF95" d="M6.457,10.913c-0.005-0.003-0.009-0.007-0.014-0.01C6.451,10.903,6.455,10.906,6.457,10.913z"/>
	<path fill="#00FF95" d="M6.477,10.925c-0.009,0-0.016-0.004-0.02-0.012C6.466,10.913,6.473,10.917,6.477,10.925z"/>
	<path fill="#00FF95" d="M6.502,10.941c-0.008,0-0.013-0.004-0.017-0.011C6.494,10.93,6.499,10.933,6.502,10.941z"/>
	<path fill="#00FF95" d="M6.528,10.956c-0.005-0.003-0.009-0.006-0.014-0.01C6.521,10.946,6.526,10.949,6.528,10.956z"/>
	<path fill="#00FF95" d="M6.575,10.983c-0.009,0-0.015-0.004-0.019-0.012C6.565,10.971,6.571,10.975,6.575,10.983z"/>
	<path fill="#00FF95" d="M6.6,10.998c-0.005-0.003-0.01-0.007-0.015-0.01C6.593,10.987,6.598,10.991,6.6,10.998z"/>
	<path fill="#00FF78" d="M5.677,2.506C5.681,2.503,5.685,2.5,5.689,2.498C5.687,2.503,5.684,2.506,5.677,2.506z"/>
	<path fill="#00FF95" d="M6.645,11.025c-0.008,0-0.014-0.004-0.018-0.011C6.635,11.014,6.642,11.018,6.645,11.025z"/>
	<path fill="#00FF95" d="M6.67,11.041c-0.005-0.003-0.01-0.007-0.014-0.01C6.664,11.03,6.668,11.034,6.67,11.041z"/>
	<path fill="#00FE38" d="M3.577,4.911c0.004-0.005,0.008-0.01,0.011-0.015C3.588,4.904,3.584,4.909,3.577,4.911z"/>
	<path fill="#00FFB9" d="M7.493,11.538c-0.005-0.003-0.01-0.007-0.015-0.01C7.487,11.527,7.491,11.531,7.493,11.538z"/>
	<path fill="#00FE38" d="M3.549,4.954c0.003-0.005,0.007-0.01,0.01-0.015C3.559,4.947,3.555,4.952,3.549,4.954z"/>
	<path fill="#00FFB9" d="M7.539,11.565c-0.008,0-0.014-0.004-0.018-0.011C7.529,11.554,7.535,11.557,7.539,11.565z"/>
	<path fill="#00FFB9" d="M7.564,11.581c-0.005-0.003-0.009-0.007-0.014-0.01C7.557,11.57,7.562,11.574,7.564,11.581z"/>
	<path fill="#00FFB9" d="M7.584,11.593c-0.009,0-0.016-0.004-0.02-0.012C7.573,11.581,7.58,11.584,7.584,11.593z"/>
	<path fill="#00FFB9" d="M7.609,11.608c-0.008,0-0.013-0.004-0.017-0.011C7.601,11.597,7.606,11.601,7.609,11.608z"/>
	<path fill="#00FFB9" d="M7.634,11.623c-0.004-0.003-0.009-0.007-0.013-0.01C7.628,11.613,7.632,11.617,7.634,11.623z"/>
	<path fill="#00FFB9" d="M7.654,11.635c-0.009,0-0.015-0.004-0.019-0.012C7.644,11.623,7.65,11.627,7.654,11.635z"/>
	<path fill="#00FFB9" d="M7.679,11.651c-0.007,0-0.012-0.004-0.015-0.01C7.671,11.64,7.677,11.643,7.679,11.651z"/>
	<path fill="#00FE38" d="M3.521,4.998c0.003-0.005,0.007-0.01,0.01-0.016C3.531,4.99,3.528,4.995,3.521,4.998z"/>
	<path fill="#00FFB9" d="M7.724,11.678c-0.009,0-0.015-0.004-0.019-0.012C7.714,11.666,7.721,11.67,7.724,11.678z"/>
	<path fill="#00FFB9" d="M7.749,11.693c-0.005-0.003-0.01-0.007-0.015-0.01C7.742,11.683,7.747,11.686,7.749,11.693z"/>
	<path fill="#00FE38" d="M3.505,5.022c0.003-0.004,0.006-0.007,0.009-0.011C3.514,5.017,3.511,5.021,3.505,5.022z"/>
	<path fill="#00FFB9" d="M7.796,11.72c-0.009,0-0.015-0.004-0.019-0.011C7.785,11.709,7.792,11.712,7.796,11.72z"/>
	<path fill="#00FFB9" d="M7.822,11.735c-0.008,0-0.013-0.003-0.017-0.011C7.814,11.724,7.819,11.728,7.822,11.735z"/>
	<path fill="#00FFB9" d="M7.847,11.751c-0.005-0.003-0.009-0.007-0.014-0.01C7.841,11.74,7.845,11.744,7.847,11.751z"/>
	<path fill="#00FFB9" d="M7.867,11.763c-0.009,0-0.015-0.004-0.019-0.012C7.857,11.751,7.863,11.755,7.867,11.763z"/>
	<path fill="#00FFB9" d="M7.893,11.778c-0.008,0-0.013-0.004-0.016-0.01C7.885,11.767,7.89,11.771,7.893,11.778z"/>
	<path fill="#666666" d="M10.025,11.228c-0.013,0.005-0.021-0.005-0.03-0.01c-0.147-0.095-0.294-0.189-0.441-0.284
		c-0.298-0.192-0.596-0.384-0.893-0.576c-0.127-0.082-0.255-0.163-0.382-0.245C7.984,9.923,7.69,9.733,7.396,9.544
		c-0.119-0.077-0.238-0.153-0.358-0.23C6.741,9.122,6.443,8.929,6.145,8.737C6.014,8.653,5.883,8.569,5.752,8.484
		c-0.07-0.045-0.139-0.09-0.209-0.133C5.514,8.333,5.492,8.31,5.473,8.282C5.286,8,5.099,7.719,4.911,7.438
		C4.76,7.212,4.61,6.986,4.459,6.76c-0.007-0.01-0.013-0.019-0.02-0.029C4.43,6.716,4.406,6.704,4.419,6.683
		c0.011-0.019,0.035-0.01,0.053-0.01c0.333,0,0.667,0,1,0c0.553,0,1.106,0,1.66,0.001c0.012,0,0.024,0,0.035,0
		c0.107,0.001,0.106,0.002,0.161,0.092C7.494,7.041,7.661,7.315,7.828,7.59c0.124,0.204,0.243,0.411,0.369,0.613
		c0.14,0.225,0.273,0.453,0.411,0.679c0.129,0.212,0.258,0.424,0.386,0.636c0.129,0.212,0.257,0.424,0.385,0.636
		c0.16,0.265,0.32,0.53,0.48,0.794c0.051,0.085,0.104,0.169,0.156,0.253C10.021,11.21,10.029,11.217,10.025,11.228z"/>
	<path fill="#00FF71" d="M7.649,5.535C7.648,5.54,7.647,5.545,7.645,5.548C7.558,5.686,7.471,5.824,7.383,5.962
		C7.333,6.042,7.28,6.121,7.23,6.201C7.216,6.223,7.2,6.233,7.173,6.233C6.946,6.231,6.719,6.231,6.492,6.23
		c-0.002,0-0.005-0.001-0.007-0.001C6.429,6.224,6.41,6.189,6.407,6.138C6.406,6.112,6.406,6.086,6.406,6.06
		c0-0.651,0.001-1.302-0.001-1.953c0-0.026,0.001-0.052,0.009-0.077c0.031-0.021,0.061-0.044,0.093-0.064
		c0.269-0.169,0.539-0.338,0.808-0.508c0.088-0.055,0.176-0.11,0.264-0.165C7.59,3.286,7.604,3.281,7.616,3.275
		c0.039,0.036,0.026,0.084,0.026,0.127c0.001,0.636,0,1.271,0.001,1.907C7.644,5.384,7.64,5.46,7.649,5.535z"/>
	<path fill="#00FF9F" d="M7.649,5.535c-0.016-0.008-0.027-0.02-0.028-0.038C7.62,5.476,7.62,5.455,7.62,5.434
		c0-0.689,0-1.378,0-2.067c0-0.031-0.003-0.061-0.004-0.092c0,0,0,0,0,0c0.009,0,0.013-0.006,0.018-0.012l0,0
		c0.004-0.004,0.009-0.008,0.014-0.01c0.002-0.004,0.006-0.006,0.01-0.005c0.008-0.002,0.013-0.007,0.019-0.012l0.001,0
		c0.003-0.005,0.008-0.008,0.013-0.01c0.077-0.049,0.155-0.099,0.232-0.148c0.215-0.136,0.43-0.272,0.645-0.407
		c0.086-0.054,0.173-0.105,0.259-0.157c0.019,0.019,0.018,0.042,0.016,0.066c-0.02,0.307-0.005,0.613-0.009,0.92
		C8.834,3.544,8.843,3.585,8.871,3.62C8.869,3.638,8.857,3.65,8.849,3.664c-0.137,0.215-0.274,0.43-0.411,0.645
		C8.24,4.619,8.042,4.93,7.844,5.24C7.835,5.254,7.825,5.267,7.815,5.28c-0.003,0.005-0.006,0.01-0.01,0.014l0,0
		C7.8,5.299,7.794,5.303,7.793,5.311L7.794,5.31C7.781,5.314,7.785,5.329,7.776,5.335L7.775,5.336
		C7.771,5.342,7.766,5.347,7.764,5.354c0,0.005-0.002,0.009-0.006,0.011c-0.002,0.005-0.006,0.01-0.01,0.013l0,0
		C7.742,5.384,7.737,5.39,7.736,5.398c0,0.004-0.001,0.008-0.005,0.01c-0.003,0.005-0.007,0.01-0.01,0.015l0,0
		c-0.01,0.006-0.006,0.02-0.016,0.026L7.704,5.449C7.7,5.455,7.695,5.46,7.693,5.467c0,0.005-0.002,0.009-0.006,0.012
		c-0.002,0.005-0.005,0.01-0.01,0.013l0,0.001c-0.005,0.006-0.01,0.011-0.012,0.018c0.001,0.005-0.001,0.008-0.005,0.011
		C7.656,5.526,7.653,5.531,7.649,5.535L7.649,5.535z"/>
	<path fill="#00FF44" d="M6.414,4.03c0.012,0.021,0.016,0.044,0.015,0.068c-0.001,0.028,0,0.057,0,0.085c0,0.634,0,1.269,0,1.903
		c0,0.017,0.001,0.033,0,0.049C6.424,6.181,6.443,6.211,6.485,6.229C6.468,6.23,6.452,6.232,6.436,6.232c-0.322,0-0.644,0-0.966,0
		c-0.016,0-0.033-0.002-0.049-0.003C5.359,6.202,5.356,6.147,5.356,6.092c-0.001-0.323,0-0.646-0.001-0.969
		c0-0.036,0.006-0.07,0.021-0.103c0.006-0.01,0.011-0.021,0.018-0.03c0.145-0.193,0.289-0.385,0.434-0.578
		C5.844,4.39,5.862,4.372,5.884,4.358C6.053,4.253,6.22,4.147,6.389,4.042C6.396,4.037,6.405,4.034,6.414,4.03z"/>
	<path fill="#00FFCD" d="M8.871,3.62C8.866,3.622,8.862,3.623,8.857,3.625C8.845,3.629,8.832,3.63,8.829,3.615
		C8.823,3.581,8.811,3.548,8.812,3.511c0.001-0.283,0.001-0.567,0.001-0.85c0-0.024,0-0.047,0.009-0.07
		c0.01-0.025,0.004-0.051,0.006-0.077c0.067-0.044,0.134-0.088,0.201-0.131c0.08-0.051,0.16-0.1,0.24-0.15
		c0.249-0.157,0.499-0.314,0.748-0.47c0.013-0.008,0.025-0.022,0.044-0.019l0.002,0.002c0.001,0.029-0.02,0.047-0.034,0.068
		C9.886,2.039,9.742,2.263,9.599,2.488C9.431,2.752,9.263,3.016,9.094,3.28C9.073,3.314,9.048,3.345,9.025,3.378
		C9.02,3.383,9.014,3.388,9.013,3.396c0,0.005-0.001,0.008-0.006,0.011c-0.003,0.005-0.006,0.01-0.01,0.014l0,0
		C8.991,3.426,8.986,3.431,8.985,3.44C8.986,3.444,8.984,3.447,8.98,3.449c-0.004,0.005-0.007,0.01-0.01,0.015l0-0.001
		C8.96,3.469,8.963,3.484,8.954,3.49L8.953,3.491C8.949,3.497,8.944,3.502,8.942,3.509C8.942,3.514,8.94,3.518,8.936,3.52
		C8.934,3.525,8.93,3.53,8.926,3.534l0,0C8.92,3.539,8.915,3.545,8.914,3.553c0.001,0.005-0.001,0.008-0.005,0.01
		c-0.003,0.005-0.006,0.01-0.01,0.015l0,0c-0.007,0.005-0.012,0.011-0.012,0.02c0.001,0.004-0.001,0.007-0.005,0.008
		C8.877,3.61,8.874,3.615,8.871,3.62L8.871,3.62z"/>
	<path fill="#00FF22" d="M5.377,5.019C5.377,5.05,5.378,5.081,5.378,5.111c0,0.327,0.001,0.654-0.001,0.981
		c0,0.052,0.008,0.098,0.043,0.137C5.406,6.23,5.392,6.232,5.378,6.232c-0.284,0-0.567,0-0.851,0c-0.016,0-0.033,0.004-0.048-0.004
		C4.473,6.213,4.482,6.204,4.489,6.196c0.125-0.166,0.25-0.332,0.374-0.499c0.123-0.165,0.245-0.33,0.368-0.494
		C5.279,5.14,5.328,5.08,5.377,5.019z"/>
	<path fill="#00FF71" d="M7.776,5.335C7.776,5.323,7.78,5.313,7.794,5.31C7.792,5.321,7.786,5.329,7.776,5.335z"/>
	<path fill="#00FF9F" d="M8.954,3.49c0-0.012,0.004-0.022,0.016-0.026C8.97,3.476,8.964,3.484,8.954,3.49z"/>
	<path fill="#00FF71" d="M7.705,5.448c0.001-0.012,0.004-0.021,0.016-0.026C7.72,5.434,7.715,5.442,7.705,5.448z"/>
	<path fill="#00FF71" d="M7.805,5.294c0.003-0.005,0.007-0.009,0.01-0.014C7.816,5.288,7.812,5.292,7.805,5.294z"/>
	<path fill="#00FF71" d="M7.793,5.311c0.001-0.008,0.005-0.014,0.013-0.017C7.805,5.303,7.801,5.308,7.793,5.311z"/>
	<path fill="#00FF71" d="M7.764,5.354c0-0.008,0.004-0.014,0.011-0.018C7.775,5.344,7.772,5.35,7.764,5.354z"/>
	<path fill="#00FF71" d="M7.748,5.379c0.003-0.004,0.007-0.009,0.01-0.013C7.759,5.372,7.755,5.377,7.748,5.379z"/>
	<path fill="#00FF71" d="M7.736,5.398c0-0.009,0.004-0.015,0.012-0.019C7.748,5.388,7.744,5.394,7.736,5.398z"/>
	<path fill="#00FF71" d="M7.72,5.422c0.003-0.005,0.007-0.01,0.01-0.015C7.731,5.415,7.728,5.42,7.72,5.422z"/>
	<path fill="#00FF71" d="M7.693,5.467C7.696,5.461,7.7,5.455,7.704,5.449C7.704,5.458,7.7,5.463,7.693,5.467z"/>
	<path fill="#00FF71" d="M7.677,5.491c0.003-0.004,0.007-0.009,0.01-0.013C7.687,5.486,7.683,5.49,7.677,5.491z"/>
	<path fill="#00FF71" d="M7.665,5.511c0-0.008,0.004-0.015,0.012-0.018C7.676,5.501,7.672,5.507,7.665,5.511z"/>
	<path fill="#00FF71" d="M7.649,5.535c0.003-0.005,0.007-0.009,0.01-0.014C7.66,5.529,7.656,5.533,7.649,5.535z"/>
	<polygon fill="#00FFCD" points="10.06,1.745 10.066,1.735 10.072,1.741 10.062,1.747 	"/>
	<path fill="#00FF71" d="M7.691,3.226c-0.004,0.003-0.009,0.007-0.013,0.01C7.68,3.229,7.684,3.226,7.691,3.226z"/>
	<path fill="#00FF71" d="M7.677,3.236c-0.004,0.008-0.01,0.012-0.019,0.012C7.662,3.24,7.669,3.236,7.677,3.236z"/>
	<path fill="#00FF71" d="M7.648,3.254c-0.005,0.003-0.01,0.007-0.014,0.01C7.636,3.257,7.641,3.253,7.648,3.254z"/>
	<path fill="#00FF71" d="M7.634,3.264C7.631,3.272,7.625,3.276,7.617,3.276C7.62,3.267,7.626,3.264,7.634,3.264z"/>
	<path fill="#00FF9F" d="M9.013,3.396c0-0.008,0.004-0.014,0.012-0.018C9.025,3.386,9.021,3.392,9.013,3.396z"/>
	<path fill="#00FF9F" d="M8.997,3.421c0.003-0.005,0.007-0.009,0.01-0.014C9.008,3.414,9.004,3.419,8.997,3.421z"/>
	<path fill="#00FF9F" d="M8.985,3.44c0-0.009,0.004-0.015,0.012-0.019C8.997,3.43,8.993,3.436,8.985,3.44z"/>
	<path fill="#00FF9F" d="M8.97,3.464c0-0.007,0.004-0.012,0.01-0.015C8.981,3.457,8.977,3.462,8.97,3.464z"/>
	<path fill="#00FF9F" d="M8.942,3.509c0-0.008,0.004-0.014,0.011-0.018C8.953,3.499,8.949,3.505,8.942,3.509z"/>
	<path fill="#00FF9F" d="M8.926,3.534c0.003-0.005,0.007-0.009,0.01-0.014C8.937,3.527,8.933,3.532,8.926,3.534z"/>
	<path fill="#00FF9F" d="M8.914,3.553c0-0.009,0.004-0.015,0.012-0.019C8.926,3.543,8.922,3.549,8.914,3.553z"/>
	<path fill="#00FF9F" d="M8.898,3.577c0-0.007,0.004-0.012,0.01-0.015C8.909,3.57,8.906,3.575,8.898,3.577z"/>
	<path fill="#00FF9F" d="M8.886,3.597c0-0.009,0.004-0.016,0.012-0.02C8.898,3.586,8.894,3.593,8.886,3.597z"/>
	<path fill="#00FF9F" d="M8.87,3.621c0-0.008,0.004-0.013,0.011-0.016C8.882,3.613,8.878,3.619,8.87,3.621z"/>
	<path fill="#666666" d="M21.877,1.983C21.895,1.988,21.909,2,21.923,2.01c0.181,0.117,0.361,0.234,0.542,0.35
		c0.28,0.181,0.56,0.361,0.84,0.542c0.28,0.181,0.56,0.361,0.84,0.542c0.276,0.178,0.553,0.356,0.829,0.533
		c0.427,0.275,0.854,0.551,1.282,0.826c0.05,0.032,0.107,0.055,0.146,0.099c0.038,0.042,0.065,0.093,0.097,0.14
		c0.065,0.099,0.129,0.198,0.195,0.296c0.121,0.181,0.242,0.361,0.363,0.542c0.126,0.189,0.252,0.377,0.378,0.566
		c0.011,0.016,0.021,0.031,0.031,0.047c0.007,0.012,0.021,0.023,0.015,0.038c-0.009,0.019-0.029,0.011-0.044,0.011
		c-0.352,0-0.705,0-1.057,0c-0.551,0-1.102-0.001-1.653-0.001c-0.014,0-0.029-0.002-0.043,0c-0.044,0.006-0.069-0.017-0.091-0.053
		c-0.112-0.189-0.226-0.377-0.339-0.566c-0.128-0.212-0.257-0.425-0.386-0.637c-0.16-0.265-0.318-0.531-0.481-0.794
		c-0.148-0.239-0.291-0.482-0.437-0.722c-0.136-0.224-0.272-0.449-0.408-0.673c-0.141-0.232-0.282-0.465-0.423-0.697
		c-0.078-0.129-0.157-0.258-0.236-0.388C21.88,2.005,21.873,1.998,21.877,1.983z"/>
	<path fill="#00FF88" d="M24.119,7.889c0.019-0.032,0.038-0.065,0.058-0.097c0.124-0.195,0.249-0.39,0.373-0.585
		c0.041-0.064,0.084-0.126,0.123-0.19c0.016-0.026,0.035-0.034,0.064-0.033c0.057,0.002,0.113,0,0.17,0c0.437,0,0.874,0,1.311,0
		c0.21,0,0.42,0,0.63,0.001c0.019,0,0.038,0.002,0.056,0.003c0,0.01-0.004,0.017-0.013,0.021c-0.083,0.021-0.168,0.008-0.252,0.01
		c-0.082,0.002-0.164,0.002-0.246-0.001c-0.31,0.004-0.619,0.001-0.929,0.002c-0.109,0-0.11,0-0.11,0.111
		c0,0.653,0,1.305-0.001,1.958c0,0.058,0.008,0.113,0.025,0.167c-0.015,0.019-0.037,0.029-0.057,0.041
		c-0.364,0.229-0.728,0.458-1.093,0.686c-0.024,0.015-0.05,0.027-0.074,0.041c-0.041-0.029-0.037-0.074-0.038-0.116
		c-0.002-0.151-0.001-0.302-0.001-0.454c0-0.489,0-0.978,0-1.467C24.115,7.955,24.12,7.922,24.119,7.889z"/>
	<path fill="#00FFB6" d="M25.378,9.256c-0.014-0.003-0.027-0.007-0.032-0.023c-0.007-0.022-0.017-0.044-0.015-0.069
		c0.001-0.012,0-0.024,0-0.035c0-0.68,0-1.361,0-2.041c0-0.095-0.007-0.09,0.087-0.09c0.288,0,0.576-0.001,0.865-0.001
		c0.038,0,0.076,0.001,0.113,0.002c0.029,0.034,0.022,0.076,0.022,0.115c0.001,0.326,0.001,0.652,0,0.978
		c0,0.076,0.003,0.151,0.021,0.225c-0.028,0.055-0.07,0.1-0.106,0.149c-0.083,0.112-0.168,0.221-0.251,0.333
		c-0.022,0.029-0.047,0.052-0.077,0.071c-0.154,0.096-0.307,0.192-0.461,0.288c-0.008,0.005-0.017,0.008-0.025,0.012
		c-0.007,0.002-0.012,0.007-0.017,0.011l-0.001,0.001c-0.006,0.01-0.02,0.006-0.026,0.016l0,0c-0.005,0.004-0.01,0.007-0.015,0.01
		c-0.003,0.004-0.007,0.006-0.012,0.005c-0.007,0.002-0.012,0.008-0.018,0.011l-0.001,0.001c-0.006,0.01-0.02,0.006-0.026,0.016
		l0.001,0c-0.005,0.004-0.01,0.007-0.015,0.01C25.385,9.254,25.382,9.256,25.378,9.256z"/>
	<path fill="#00FF5B" d="M24.119,7.889c0.011,0.006,0.018,0.015,0.019,0.028c0.001,0.024,0.001,0.047,0.001,0.071
		c0,0.637,0,1.274,0,1.911c0,0.043,0.003,0.084,0.016,0.125c-0.011,0.017-0.029,0.024-0.045,0.033
		c-0.321,0.202-0.642,0.403-0.964,0.605c-0.008,0.005-0.017,0.008-0.025,0.012c-0.039,0.015-0.05-0.014-0.06-0.041
		c-0.011-0.029-0.009-0.06-0.009-0.091c0-0.295,0-0.59,0-0.885c0-0.043,0.006-0.085,0.022-0.125
		c0.013-0.036,0.037-0.066,0.057-0.097c0.204-0.321,0.408-0.642,0.612-0.963c0.116-0.181,0.232-0.362,0.348-0.544
		C24.098,7.914,24.109,7.902,24.119,7.889z"/>
	<path fill="#00FF38" d="M23.072,9.533c0.001,0.028,0.002,0.056,0.002,0.085c0,0.315,0,0.63,0,0.945
		c0,0.021-0.002,0.043,0.002,0.063c0.004,0.024,0.015,0.045,0.044,0.048c-0.041,0.036-0.089,0.061-0.135,0.09
		c-0.142,0.09-0.284,0.178-0.426,0.267c-0.224,0.14-0.448,0.281-0.672,0.421c-0.015,0.01-0.029,0.024-0.05,0.024
		c-0.007-0.014,0.005-0.021,0.01-0.03c0.12-0.189,0.241-0.378,0.362-0.567c0.08-0.126,0.159-0.252,0.239-0.377
		c0.152-0.239,0.304-0.478,0.457-0.717c0.048-0.076,0.097-0.151,0.146-0.226C23.056,9.55,23.065,9.542,23.072,9.533z"/>
	<path fill="#00FFD9" d="M26.437,8.317c-0.035-0.018-0.033-0.054-0.042-0.085c-0.004-0.013-0.001-0.028-0.001-0.042
		c0-0.397,0-0.794,0-1.191c0.144-0.001,0.288-0.001,0.432-0.002c0.026,0,0.052-0.001,0.078-0.001
		c0.161-0.011,0.323-0.002,0.485-0.005c0.014,0,0.029,0.001,0.028,0.021c-0.009,0.014-0.017,0.028-0.027,0.041
		c-0.203,0.271-0.406,0.542-0.609,0.813c-0.007,0.009-0.015,0.018-0.023,0.027c-0.002,0.005-0.005,0.009-0.01,0.012l-0.001,0.001
		c-0.004,0.005-0.008,0.01-0.012,0.016l0,0c-0.006,0.004-0.012,0.008-0.013,0.016l0.001-0.001c-0.009,0.002-0.014,0.008-0.015,0.017
		c0,0.005-0.002,0.008-0.006,0.01c-0.002,0.005-0.006,0.009-0.01,0.012l-0.001,0.001c-0.004,0.005-0.009,0.009-0.012,0.016l0-0.001
		c-0.007,0.004-0.012,0.01-0.013,0.018c0,0.005-0.002,0.008-0.006,0.01c-0.002,0.005-0.006,0.009-0.01,0.013l-0.001,0.001
		c-0.004,0.005-0.01,0.009-0.012,0.016l0.001-0.001c-0.008,0.004-0.013,0.01-0.013,0.018c0,0.005-0.002,0.008-0.006,0.009
		c-0.003,0.005-0.006,0.009-0.011,0.013l0,0.001c-0.004,0.005-0.01,0.009-0.012,0.016l0.001-0.001
		c-0.008,0.004-0.013,0.01-0.014,0.019c0,0.005-0.002,0.008-0.006,0.009c-0.003,0.005-0.006,0.01-0.011,0.013l0,0.001
		c-0.004,0.005-0.01,0.009-0.012,0.016l0.001-0.001c-0.008,0.004-0.013,0.01-0.014,0.019c0,0.004-0.002,0.007-0.006,0.009
		c-0.003,0.005-0.006,0.01-0.011,0.013l0,0c-0.005,0.005-0.011,0.009-0.012,0.016l0.001-0.001c-0.008,0.004-0.013,0.01-0.014,0.019
		c0,0.004-0.002,0.007-0.006,0.008c-0.003,0.005-0.006,0.01-0.011,0.014l0,0c-0.005,0.005-0.011,0.009-0.012,0.017l0.001-0.001
		C26.457,8.28,26.46,8.295,26.45,8.3l-0.001,0.002C26.446,8.307,26.442,8.312,26.437,8.317L26.437,8.317z"/>
	<path fill="#00FFB6" d="M27.418,7.011c-0.016-0.02-0.039-0.014-0.059-0.015c-0.121,0-0.241,0-0.362,0
		c-0.031,0-0.061-0.001-0.092-0.002c0-0.003,0-0.005-0.001-0.008c0.122-0.001,0.244-0.002,0.367-0.003
		c0.049,0,0.099-0.001,0.148,0.002C27.434,6.988,27.429,7.003,27.418,7.011z"/>
	<path fill="#00FFB6" d="M26.45,8.3c0.001-0.012,0.005-0.021,0.018-0.024C26.467,8.287,26.461,8.295,26.45,8.3z"/>
	<path fill="#00FF88" d="M25.473,9.197c0.005-0.012,0.014-0.016,0.026-0.016C25.493,9.192,25.485,9.197,25.473,9.197z"/>
	<path fill="#00FF88" d="M25.402,9.24c0.005-0.012,0.014-0.016,0.026-0.016C25.422,9.234,25.414,9.24,25.402,9.24z"/>
	<path fill="#00FFB6" d="M26.749,7.903c0.003-0.004,0.007-0.008,0.01-0.012C26.759,7.899,26.756,7.902,26.749,7.903z"/>
	<path fill="#00FFB6" d="M26.736,7.92c0.001-0.008,0.005-0.013,0.012-0.016C26.748,7.913,26.744,7.918,26.736,7.92z"/>
	<path fill="#00FFB6" d="M26.723,7.936c0.001-0.008,0.005-0.014,0.013-0.016C26.736,7.929,26.732,7.934,26.723,7.936z"/>
	<path fill="#00FFB6" d="M26.709,7.952c0.001-0.009,0.006-0.015,0.015-0.017C26.723,7.944,26.717,7.949,26.709,7.952z"/>
	<path fill="#00FFB6" d="M26.692,7.975c0.003-0.004,0.007-0.008,0.01-0.012C26.703,7.97,26.699,7.973,26.692,7.975z"/>
	<path fill="#00FFB6" d="M26.68,7.992c0.001-0.008,0.005-0.013,0.012-0.016C26.691,7.984,26.687,7.989,26.68,7.992z"/>
	<path fill="#00FFB6" d="M26.667,8.009c0-0.009,0.005-0.015,0.013-0.018C26.679,8,26.675,8.006,26.667,8.009z"/>
	<path fill="#00FFB6" d="M26.65,8.032c0.003-0.004,0.007-0.008,0.01-0.013C26.661,8.026,26.657,8.03,26.65,8.032z"/>
	<path fill="#00FFB6" d="M26.637,8.049c0.004-0.005,0.008-0.011,0.012-0.016C26.649,8.041,26.645,8.046,26.637,8.049z"/>
	<path fill="#00FFB6" d="M26.624,8.066c0-0.009,0.005-0.015,0.013-0.019C26.637,8.057,26.632,8.063,26.624,8.066z"/>
	<path fill="#00FFB6" d="M26.607,8.089c0.004-0.004,0.007-0.009,0.011-0.013C26.618,8.083,26.614,8.087,26.607,8.089z"/>
	<path fill="#00FFB6" d="M26.595,8.106c0.001-0.008,0.005-0.013,0.012-0.016C26.607,8.098,26.603,8.103,26.595,8.106z"/>
	<path fill="#00FFB6" d="M26.582,8.123c0-0.009,0.005-0.016,0.014-0.019C26.594,8.114,26.59,8.12,26.582,8.123z"/>
	<path fill="#00FFB6" d="M26.565,8.146c0.004-0.004,0.007-0.009,0.011-0.013C26.576,8.14,26.572,8.144,26.565,8.146z"/>
	<path fill="#00FFB6" d="M26.552,8.162c0.001-0.008,0.005-0.013,0.012-0.016C26.564,8.155,26.56,8.16,26.552,8.162z"/>
	<path fill="#00FFB6" d="M26.539,8.18c0-0.009,0.005-0.016,0.014-0.019C26.552,8.171,26.548,8.177,26.539,8.18z"/>
	<path fill="#00FFB6" d="M26.522,8.203c0.004-0.004,0.007-0.009,0.011-0.013C26.533,8.197,26.53,8.201,26.522,8.203z"/>
	<path fill="#00FFB6" d="M26.51,8.219c0.001-0.008,0.005-0.013,0.012-0.016C26.522,8.211,26.518,8.217,26.51,8.219z"/>
	<path fill="#00FFB6" d="M26.496,8.238c0-0.01,0.005-0.016,0.014-0.019C26.509,8.227,26.505,8.234,26.496,8.238z"/>
	<path fill="#00FFB6" d="M26.48,8.26c0.004-0.005,0.007-0.009,0.011-0.014C26.491,8.254,26.487,8.258,26.48,8.26z"/>
	<path fill="#00FFB6" d="M26.467,8.276c0.001-0.008,0.005-0.013,0.012-0.017C26.479,8.268,26.475,8.274,26.467,8.276z"/>
	<path fill="#00FFB6" d="M26.437,8.317c0.004-0.005,0.008-0.01,0.012-0.015C26.449,8.31,26.445,8.315,26.437,8.317z"/>
	<path fill="#00FF88" d="M25.5,9.181c0.004-0.007,0.009-0.011,0.017-0.011C25.514,9.177,25.509,9.181,25.5,9.181z"/>
	<path fill="#00FF88" d="M25.458,9.207c0.005-0.003,0.01-0.007,0.015-0.01C25.471,9.205,25.466,9.208,25.458,9.207z"/>
	<path fill="#00FF88" d="M25.429,9.223c0.004-0.007,0.01-0.011,0.018-0.011C25.444,9.22,25.438,9.224,25.429,9.223z"/>
	<path fill="#00FF88" d="M25.387,9.25c0.003-0.007,0.008-0.01,0.015-0.01C25.4,9.247,25.395,9.251,25.387,9.25z"/>
	<path d="M14.715,7.706c-0.061,0.022-0.122,0.048-0.187,0.056c-0.051,0.006-0.102,0.011-0.153,0.016
		c-0.075-0.008-0.151-0.01-0.224-0.029c-0.087-0.022-0.165-0.059-0.224-0.127c-0.023-0.026-0.042-0.057-0.063-0.085
		c-0.007-0.008-0.005-0.021-0.013-0.029c-0.001-0.005-0.003-0.009-0.004-0.014c-0.002-0.006-0.008-0.011-0.009-0.018
		c-0.002-0.008-0.003-0.016-0.005-0.024c-0.005-0.037-0.01-0.075-0.016-0.112c-0.012-0.084-0.002-0.165,0.026-0.244
		c0.003-0.009,0.005-0.018,0.007-0.027c0,0,0,0,0,0c0.009-0.007,0.006-0.02,0.015-0.028l0,0c0.004-0.004,0.008-0.008,0.01-0.014
		c0.004-0.002,0.006-0.006,0.006-0.011c0.002-0.007,0.007-0.013,0.013-0.018c0.052-0.051,0.106-0.099,0.173-0.131
		c0.037-0.017,0.073-0.028,0.115-0.027c0.127,0.002,0.253,0.001,0.38,0.001c0.023,0,0.047-0.002,0.07-0.003
		c0.039,0.016,0.077,0.034,0.113,0.057c0.127,0.081,0.189,0.199,0.197,0.347c0.002,0.035,0.001,0.07,0.001,0.106
		c-0.008,0.014-0.004,0.031-0.009,0.046c-0.002,0.012-0.004,0.025-0.006,0.037c-0.004,0.011-0.004,0.024-0.011,0.034
		c-0.004,0.003-0.005,0.006-0.003,0.01c-0.003,0.006-0.005,0.012-0.008,0.018c-0.002,0.005-0.003,0.01-0.005,0.014
		c-0.008,0.008-0.005,0.021-0.014,0.029l0,0c-0.004,0.003-0.007,0.008-0.009,0.013c-0.002,0.004-0.004,0.009-0.006,0.013
		c-0.003,0.006-0.008,0.011-0.012,0.017l-0.001,0.002c-0.005,0.002-0.008,0.006-0.009,0.011c-0.005,0.002-0.007,0.006-0.007,0.011
		c-0.002,0.008-0.007,0.014-0.015,0.018l0.001-0.001c-0.003,0.007-0.008,0.012-0.015,0.015l0.001-0.001
		c-0.003,0.007-0.008,0.012-0.015,0.015L14.8,7.647c-0.004,0.008-0.01,0.013-0.019,0.015c-0.005,0-0.008,0.002-0.01,0.006
		c-0.005,0.002-0.009,0.005-0.012,0.01l-0.001,0.001c-0.006,0.004-0.011,0.009-0.018,0.012c-0.005-0.001-0.009,0.001-0.011,0.005
		C14.724,7.699,14.719,7.702,14.715,7.706L14.715,7.706z"/>
	<path d="M14.134,5.323c0.096-0.029,0.196-0.038,0.296-0.041c0,0,0-0.001,0-0.001c0.023,0.013,0.049-0.001,0.072,0.01
		c0.048,0.011,0.096,0.021,0.142,0.041c0.126,0.055,0.201,0.15,0.229,0.285c0.016,0.08,0.015,0.159-0.002,0.238
		c-0.017,0.077-0.053,0.146-0.106,0.204c-0.022,0.024-0.048,0.045-0.071,0.068c-0.033,0.033-0.072,0.051-0.12,0.048
		c-0.068-0.001-0.137-0.002-0.205-0.003c-0.061,0-0.123-0.002-0.184,0.001c-0.043,0.002-0.077-0.012-0.11-0.038
		c-0.097-0.078-0.166-0.173-0.191-0.297c-0.002-0.012-0.005-0.023-0.008-0.034c-0.008-0.047-0.007-0.094-0.001-0.141
		c0.001-0.013,0.003-0.026,0.004-0.04c0.005-0.01,0.005-0.021,0.009-0.031c0.002-0.008,0.003-0.016,0.005-0.025
		c0.001-0.007,0.006-0.012,0.009-0.018c0.001-0.005,0.003-0.01,0.004-0.014c0.008-0.008,0.005-0.021,0.013-0.029
		c0.009-0.013,0.019-0.027,0.028-0.04c0.037-0.052,0.085-0.093,0.142-0.122C14.106,5.338,14.12,5.33,14.134,5.323z"/>
	<path fill="#00FF6A" d="M14.502,5.291c-0.025,0.001-0.049,0.004-0.072-0.01C14.455,5.28,14.481,5.271,14.502,5.291z"/>
	<path fill="#00FF9A" d="M14.932,7.393c-0.002-0.016-0.001-0.032,0.009-0.046C14.942,7.363,14.946,7.38,14.932,7.393z"/>
	<path fill="#00FF9A" d="M14.886,7.536c0-0.012,0.004-0.021,0.014-0.029C14.9,7.519,14.898,7.53,14.886,7.536z"/>
	<path fill="#00FF9A" d="M14.916,7.465c-0.001-0.013,0.001-0.025,0.011-0.034C14.928,7.444,14.928,7.456,14.916,7.465z"/>
	<path fill="#00FF9A" d="M14.904,7.493c-0.001-0.008,0.002-0.014,0.008-0.018C14.91,7.481,14.907,7.487,14.904,7.493z"/>
	<path fill="#00FF9A" d="M14.877,7.549c-0.001-0.007,0.003-0.011,0.009-0.013C14.883,7.541,14.88,7.545,14.877,7.549z"/>
	<path fill="#00FF9A" d="M14.859,7.579c0-0.008,0.004-0.014,0.012-0.017C14.867,7.568,14.863,7.573,14.859,7.579z"/>
	<path fill="#00FF9A" d="M14.849,7.592c0.003-0.004,0.006-0.007,0.009-0.011C14.855,7.585,14.852,7.588,14.849,7.592z"/>
	<path fill="#00FF9A" d="M14.827,7.62c0.002-0.009,0.007-0.014,0.015-0.018C14.84,7.611,14.836,7.617,14.827,7.62z"/>
	<path fill="#00FF9A" d="M14.813,7.634c0.002-0.008,0.007-0.013,0.015-0.015C14.826,7.627,14.821,7.632,14.813,7.634z"/>
	<path fill="#00FF9A" d="M14.799,7.649c0.002-0.008,0.007-0.013,0.015-0.015C14.812,7.641,14.807,7.646,14.799,7.649z"/>
	<path fill="#00FF9A" d="M14.781,7.662c0.004-0.008,0.01-0.013,0.019-0.015C14.797,7.656,14.791,7.661,14.781,7.662z"/>
	<path fill="#00FF9A" d="M14.76,7.678c0.002-0.006,0.005-0.01,0.012-0.01C14.768,7.672,14.764,7.675,14.76,7.678z"/>
	<path fill="#00FF9A" d="M14.74,7.691c0.004-0.008,0.01-0.012,0.018-0.012C14.753,7.683,14.746,7.687,14.74,7.691z"/>
	<path fill="#00FF9A" d="M14.715,7.706c0.003-0.007,0.007-0.01,0.015-0.01C14.724,7.699,14.72,7.703,14.715,7.706z"/>
	<path fill="#00FF33" d="M13.876,5.663c0,0.047,0,0.094,0.001,0.141c-0.003-0.004-0.008-0.007-0.008-0.011
		C13.865,5.749,13.855,5.705,13.876,5.663z"/>
	<path fill="#00FF33" d="M13.921,5.507c0,0.012-0.004,0.021-0.013,0.029C13.907,5.524,13.909,5.513,13.921,5.507z"/>
	<path fill="#00FF33" d="M13.89,5.592c0.001,0.012,0,0.023-0.009,0.031C13.878,5.612,13.879,5.601,13.89,5.592z"/>
	<path fill="#00FF33" d="M13.864,7.039c0,0.012-0.005,0.021-0.015,0.028C13.85,7.055,13.853,7.045,13.864,7.039z"/>
	<path fill="#00FF33" d="M13.903,5.55c0.001,0.008-0.002,0.014-0.009,0.018C13.894,5.56,13.897,5.554,13.903,5.55z"/>
	<path fill="#00FF33" d="M13.893,6.997c-0.001,0.008-0.005,0.014-0.013,0.018C13.881,7.006,13.885,7.001,13.893,6.997z"/>
	<path fill="#00FF33" d="M13.874,7.026c0,0.007-0.003,0.011-0.01,0.014C13.868,7.035,13.871,7.03,13.874,7.026z"/>
	<path fill="#00FF33" d="M13.851,7.507c0.009,0.007,0.014,0.017,0.013,0.029C13.852,7.529,13.85,7.519,13.851,7.507z"/>
	<path fill="#00FF33" d="M13.838,7.475c0.007,0.004,0.009,0.011,0.009,0.018C13.844,7.487,13.841,7.481,13.838,7.475z"/>
</g>
</svg>
