<?xml version="1.0" encoding="utf-8"?>
<!-- Generator: Adobe Illustrator 24.3.0, SVG Export Plug-In . SVG Version: 6.00 Build 0)  -->
<svg version="1.1" id="Слой_1" xmlns="http://www.w3.org/2000/svg" xmlns:xlink="http://www.w3.org/1999/xlink" x="0px" y="0px"
	 width="32px" height="13px" viewBox="0 0 32 13" enable-background="new 0 0 32 13" xml:space="preserve">
<g>
	<path d="M7.688,5.86C7.631,5.915,7.573,5.97,7.514,6.027C7.543,6.071,7.579,6.103,7.61,6.138c0.031,0.036,0.064,0.071,0.096,0.106
		C7.739,6.28,7.771,6.315,7.803,6.351C7.835,6.386,7.867,6.421,7.9,6.457c0.032,0.035,0.064,0.071,0.096,0.106
		C8.028,6.598,8.06,6.634,8.092,6.669S8.157,6.74,8.189,6.775s0.064,0.071,0.097,0.106S8.35,6.952,8.382,6.987
		c0.032,0.035,0.064,0.071,0.096,0.106C8.511,7.129,8.543,7.164,8.575,7.2C8.607,7.235,8.639,7.27,8.671,7.306
		c0.032,0.035,0.064,0.071,0.097,0.106c0.032,0.035,0.065,0.07,0.098,0.105C8.898,7.551,8.93,7.587,8.963,7.622
		c0.032,0.035,0.064,0.071,0.096,0.106c0.032,0.035,0.064,0.071,0.097,0.106C9.188,7.87,9.22,7.905,9.252,7.941
		c0.032,0.035,0.064,0.071,0.097,0.106c0.032,0.035,0.064,0.071,0.097,0.106c0.032,0.035,0.064,0.071,0.096,0.106
		S9.606,8.33,9.638,8.365C9.67,8.401,9.702,8.436,9.734,8.471c0.032,0.035,0.064,0.071,0.097,0.106
		c0.032,0.035,0.064,0.071,0.097,0.106C9.96,8.719,9.992,8.754,10.024,8.79s0.064,0.071,0.096,0.106
		c0.032,0.035,0.064,0.071,0.096,0.106c0.032,0.035,0.064,0.071,0.097,0.106c0.032,0.035,0.064,0.071,0.096,0.106
		c0.032,0.035,0.064,0.071,0.097,0.106c0.032,0.035,0.064,0.071,0.097,0.106c0.032,0.035,0.064,0.071,0.096,0.106
		c0.032,0.035,0.064,0.071,0.096,0.106c0.032,0.035,0.064,0.071,0.096,0.106c0.032,0.035,0.064,0.071,0.096,0.106
		s0.064,0.071,0.097,0.106c0.032,0.035,0.064,0.071,0.097,0.106c0.032,0.035,0.064,0.071,0.097,0.106
		c0.032,0.035,0.065,0.07,0.098,0.105c0.032,0.035,0.064,0.071,0.097,0.106c0.032,0.035,0.064,0.071,0.097,0.106
		c0.032,0.035,0.064,0.071,0.096,0.106c0.032,0.035,0.064,0.071,0.097,0.106c0.032,0.035,0.064,0.069,0.098,0.11
		c-0.03,0.009-0.055,0.004-0.078,0.004c-0.027,0-0.054-0.001-0.08-0.001c-0.025,0-0.05-0.001-0.075-0.001
		c-0.025,0-0.05-0.001-0.075-0.001c-0.027,0-0.054,0-0.08-0.001c-0.025,0-0.05-0.001-0.075-0.001c-0.025,0-0.05-0.001-0.075-0.001
		c-0.025,0-0.05-0.001-0.075-0.001c-0.027-0.001-0.054-0.001-0.08-0.002c-0.025-0.001-0.05-0.001-0.075-0.002
		c-0.025-0.001-0.05-0.001-0.075-0.002c-0.027,0-0.054-0.001-0.08-0.001c-0.025,0-0.05-0.001-0.075-0.001
		c-0.025,0-0.05,0-0.075-0.001c-0.027,0-0.054-0.001-0.08-0.001c-0.025,0-0.05-0.001-0.075-0.001c-0.025,0-0.05-0.001-0.075-0.001
		c-0.025-0.001-0.05-0.001-0.075-0.002c-0.027-0.001-0.054-0.002-0.08-0.002c-0.025-0.001-0.05-0.001-0.075-0.002
		c-0.025,0-0.05-0.001-0.075-0.001c-0.027,0-0.054-0.001-0.08-0.001c-0.025,0-0.05-0.001-0.075-0.001
		c-0.025,0-0.05-0.001-0.075-0.001c-0.027,0-0.054-0.001-0.08-0.001c-0.025,0-0.05-0.001-0.075-0.001
		c-0.025,0-0.05-0.001-0.075-0.002c-0.025-0.001-0.05-0.002-0.075-0.002c-0.027-0.001-0.054-0.001-0.08-0.001
		c-0.025,0-0.05-0.001-0.075-0.001c-0.025,0-0.05-0.001-0.075-0.001c-0.027,0-0.054-0.001-0.08-0.001
		c-0.024,0-0.048-0.003-0.081,0.003c0.034,0.03,0.064,0.053,0.094,0.076c0.03,0.024,0.06,0.048,0.09,0.071
		c0.031,0.025,0.063,0.05,0.094,0.075c0.03,0.024,0.06,0.048,0.09,0.071c0.03,0.024,0.059,0.047,0.09,0.072
		c-0.016,0.014-0.032,0.009-0.046,0.008c-0.189-0.003-0.379-0.006-0.568-0.01c-0.463-0.008-0.926-0.015-1.388-0.022
		c-0.637-0.01-1.274-0.019-1.911-0.029c-0.273-0.004-0.547-0.01-0.82-0.013c-0.035,0-0.061-0.01-0.088-0.033
		c-0.377-0.312-0.755-0.623-1.133-0.934C2.993,9.418,2.15,8.724,1.307,8.031C1.159,7.909,1.011,7.788,0.863,7.667
		c-0.012-0.01-0.023-0.02-0.036-0.029C0.808,7.625,0.801,7.609,0.801,7.585c0.001-0.076,0-0.153,0-0.229c0-1.105,0-2.21,0-3.316
		c0-0.081-0.01-0.058,0.053-0.1C1.813,3.293,2.771,2.647,3.73,2c0.477-0.322,0.954-0.643,1.431-0.965
		c0.03-0.02,0.059-0.03,0.095-0.029c0.731,0.007,1.461,0.012,2.192,0.018c0.423,0.004,0.845,0.007,1.268,0.011
		c0.61,0.006,1.22,0.012,1.83,0.018c0.016,0,0.033-0.003,0.056,0.006c-0.053,0.039-0.105,0.068-0.158,0.106
		c0.018,0.011,0.033,0.007,0.047,0.007c0.017,0.001,0.034,0,0.052,0c0.015,0,0.031,0,0.046,0c0.017,0,0.034,0,0.052,0
		c0.015,0,0.031,0,0.046,0c0.015,0,0.031,0,0.046,0c0.017,0,0.034,0,0.052,0c0.015,0,0.031,0,0.046,0c0.017,0,0.034,0,0.052,0
		c0.015,0,0.031,0,0.046,0s0.031,0,0.046,0c0.017,0,0.034,0,0.052,0c0.015,0,0.031,0,0.046,0c0.017,0,0.034,0,0.052,0
		c0.015,0,0.031,0,0.046,0c0.015,0,0.031,0,0.046,0c0.017,0,0.034,0,0.052,0c0.015,0,0.031,0,0.046,0s0.031,0,0.046,0
		c0.017,0,0.034,0,0.052,0c0.015,0,0.031,0,0.046,0c0.017,0,0.034,0,0.052,0c0.015,0,0.031,0,0.046,0c0.015,0,0.031,0,0.046,0
		c0.017,0,0.034,0,0.052,0c0.015,0,0.031,0,0.046,0c0.017,0,0.034,0,0.052,0c0.015,0,0.03,0,0.043,0
		c0.007,0.018-0.005,0.024-0.012,0.032c-0.154,0.175-0.309,0.35-0.464,0.524c-0.197,0.222-0.394,0.443-0.591,0.664
		c-0.635,0.717-1.27,1.435-1.905,2.152c-0.366,0.414-0.734,0.827-1.1,1.24C7.705,5.801,7.692,5.818,7.677,5.833
		C7.662,5.848,7.68,5.85,7.688,5.86z"/>
	<path d="M21.609,11.144c0.025-0.02,0.05-0.04,0.075-0.06c0.025-0.02,0.051-0.041,0.076-0.061c0.025-0.02,0.051-0.041,0.076-0.061
		c0.024-0.019,0.048-0.038,0.072-0.057c0.025-0.02,0.051-0.04,0.076-0.061c0.025-0.02,0.05-0.038,0.072-0.059
		c-0.004-0.006-0.004-0.008-0.006-0.009c-0.001-0.001-0.004,0-0.006,0c-0.002,0-0.004,0-0.006,0c-0.006,0-0.011,0-0.017,0
		c-0.033,0-0.065,0.001-0.098,0.001c-0.79,0.014-1.58,0.027-2.369,0.041c-0.002,0-0.004,0-0.006,0c-0.002,0-0.004,0-0.006-0.001
		c-0.01-0.014,0.003-0.021,0.01-0.028c0.128-0.142,0.257-0.283,0.386-0.425c0.44-0.484,0.88-0.968,1.32-1.452
		c0.801-0.88,1.601-1.759,2.402-2.639c0.067-0.074,0.135-0.146,0.202-0.219c0.016-0.018,0.016-0.02-0.002-0.037
		c-0.039-0.039-0.079-0.077-0.119-0.116c-0.014-0.013-0.027-0.027-0.04-0.041c0.008-0.009,0.026-0.009,0.011-0.025
		c-0.14-0.157-0.279-0.315-0.418-0.472c-0.639-0.722-1.277-1.444-1.916-2.165c-0.579-0.654-1.16-1.308-1.739-1.962
		c-0.014-0.016-0.036-0.028-0.036-0.054c0.02-0.008,0.041-0.004,0.062-0.004c0.406,0,0.811,0,1.217,0.001c0.015,0,0.031,0,0.046,0
		c0.005,0,0.012,0.002,0.014-0.005c0.002-0.006-0.002-0.01-0.007-0.014c-0.037-0.024-0.074-0.047-0.111-0.072
		c-0.011-0.007-0.024-0.011-0.03-0.025c0.003-0.011,0.012-0.006,0.019-0.007c0.008-0.001,0.015,0,0.023,0
		c0.251-0.002,0.501-0.004,0.752-0.006c0.815-0.007,1.63-0.014,2.444-0.021c0.484-0.004,0.968-0.009,1.452-0.013
		c0.218-0.002,0.436-0.003,0.654-0.007c0.032,0,0.058,0.007,0.085,0.025c0.749,0.506,1.499,1.011,2.249,1.516
		c0.688,0.464,1.375,0.927,2.064,1.39c0.039,0.026,0.055,0.052,0.055,0.101c-0.002,1.172-0.001,2.344-0.001,3.516
		c0,0.079,0.009,0.055-0.05,0.104c-0.547,0.451-1.095,0.902-1.643,1.353c-0.824,0.678-1.648,1.356-2.472,2.034
		c-0.028,0.023-0.057,0.033-0.093,0.034c-0.639,0.009-1.278,0.018-1.916,0.028c-0.49,0.007-0.979,0.015-1.469,0.023
		c-0.423,0.007-0.845,0.013-1.268,0.02c-0.023,0-0.046,0-0.068,0C21.612,11.15,21.611,11.147,21.609,11.144z"/>
	<path d="M22.982,6.054c-0.014,0.017-0.025,0.03-0.037,0.043c-0.528,0.6-1.055,1.201-1.583,1.801
		c-0.832,0.946-1.665,1.892-2.498,2.838c-0.053,0.06-0.107,0.119-0.16,0.18c-0.012,0.014-0.025,0.023-0.044,0.021
		c-0.013-0.001-0.027,0-0.04,0c-1.81,0-3.619,0-5.429,0.001c-0.046,0-0.077-0.014-0.109-0.046c-0.583-0.585-1.168-1.169-1.752-1.753
		C10.495,8.304,9.66,7.47,8.825,6.636c-0.184-0.184-0.369-0.367-0.553-0.55c-0.014-0.013-0.027-0.027-0.04-0.041
		C8.236,6.028,8.25,6.02,8.26,6.009c0.164-0.163,0.328-0.327,0.492-0.49c0.508-0.504,1.016-1.007,1.524-1.511
		c0.329-0.326,0.657-0.652,0.985-0.978c0.61-0.605,1.22-1.21,1.83-1.815c0.007-0.007,0.014-0.013,0.02-0.021
		c0.011-0.012,0.024-0.018,0.04-0.017c0.013,0.001,0.027,0,0.04,0c1.81,0,3.619,0,5.429,0c0.082,0,0.056-0.011,0.111,0.051
		c0.85,0.964,1.699,1.928,2.549,2.892c0.554,0.628,1.108,1.256,1.662,1.885C22.954,6.021,22.966,6.035,22.982,6.054z"/>
	<path d="M4.326,1.166C3.257,1.882,2.197,2.602,1.127,3.32C1.124,3.291,1.125,3.27,1.125,3.25c0-0.526,0-1.051,0-1.577
		c0-0.161,0-0.321,0-0.482c0-0.015,0-0.031,0-0.046c0-0.011,0.006-0.018,0.017-0.018c0.017,0,0.034-0.001,0.052,0
		c0.484,0.004,0.967,0.009,1.451,0.013C3.073,1.145,3.502,1.148,3.93,1.152c0.117,0.001,0.233,0.003,0.35,0.004
		C4.292,1.157,4.306,1.153,4.326,1.166z"/>
	<path d="M27.078,1.156c0.145,0,0.291,0.001,0.436,0c0.61-0.006,1.22-0.012,1.83-0.018c0.296-0.003,0.593-0.004,0.889-0.006
		c0.008,0,0.015,0,0.023,0.001c0.007,0,0.011,0.006,0.011,0.011c0.001,0.015,0.001,0.031,0.001,0.046c0,0.195,0,0.39,0,0.585
		c0,0.491,0,0.983,0,1.474c0,0.021,0,0.042,0,0.062c-0.018,0.01-0.027-0.004-0.037-0.011C29.988,3.135,29.744,2.97,29.5,2.806
		c-0.201-0.136-0.402-0.272-0.603-0.407C28.306,2,27.715,1.602,27.124,1.204c-0.017-0.011-0.033-0.024-0.05-0.035
		C27.075,1.164,27.077,1.16,27.078,1.156z"/>
	<path d="M1.125,8.421c0.012,0.005,0.017,0.006,0.021,0.01c0.909,0.747,1.819,1.495,2.728,2.242c-0.007,0.014-0.018,0.01-0.026,0.01
		c-0.105-0.001-0.21-0.002-0.316-0.004c-0.503-0.008-1.006-0.016-1.509-0.024c-0.279-0.004-0.558-0.009-0.837-0.014
		c-0.069-0.001-0.061,0.008-0.061-0.062c0-0.7,0-1.399,0-2.099C1.125,8.463,1.125,8.445,1.125,8.421z"/>
	<path d="M27.521,10.684c0.042-0.044,2.661-2.201,2.738-2.256c0.012,0.004,0.008,0.015,0.009,0.024c0.001,0.015,0,0.031,0,0.046
		c0,0.692,0,1.384,0,2.075c0,0.017,0,0.034,0,0.052c0,0.014-0.008,0.02-0.022,0.021c-0.023,0-0.046,0.001-0.069,0.001
		c-0.413,0.006-0.826,0.012-1.239,0.018c-0.463,0.007-0.925,0.014-1.388,0.021C27.544,10.686,27.536,10.685,27.521,10.684z"/>
	<path fill="#FFF900" d="M8.729,10.776c-0.021,0-0.041,0-0.062,0c-0.444-0.007-0.887-0.014-1.331-0.021
		c-0.438-0.007-0.876-0.013-1.314-0.019c-0.277-0.004-0.555-0.01-0.832-0.013c-0.037,0-0.065-0.012-0.093-0.035
		c-0.426-0.352-0.853-0.703-1.28-1.054C2.981,8.943,2.143,8.254,1.306,7.565C1.264,7.531,1.223,7.498,1.181,7.465
		C1.166,7.453,1.158,7.44,1.16,7.421c0.001-0.013,0-0.027,0-0.04c0-0.853,0-1.706,0-2.559c0-0.021,0-0.041,0-0.061
		C1.18,4.756,1.188,4.77,1.198,4.777c0.225,0.178,0.45,0.356,0.675,0.534c0.617,0.49,1.233,0.981,1.85,1.471
		c0.837,0.665,1.674,1.33,2.511,1.995c0.815,0.647,1.629,1.294,2.444,1.941c0.019,0.015,0.038,0.031,0.057,0.046
		C8.732,10.768,8.731,10.772,8.729,10.776z"/>
	<path fill="#FFF900" d="M9.4,1.412c-0.014,0.01-0.028,0.02-0.042,0.029c-0.17,0.11-0.34,0.22-0.51,0.33
		C8.006,2.315,7.165,2.858,6.323,3.402c-0.836,0.54-1.673,1.081-2.509,1.621C3.511,5.219,3.207,5.415,2.904,5.61
		C2.897,5.615,2.891,5.619,2.884,5.623C2.861,5.637,2.86,5.638,2.839,5.622c-0.042-0.033-0.084-0.066-0.126-0.1
		C2.247,5.151,1.78,4.779,1.313,4.408C1.274,4.377,1.235,4.346,1.195,4.317c-0.026-0.018-0.04-0.039-0.036-0.071
		c0.003-0.025-0.004-0.052,0.004-0.074c0.009-0.025,0.04-0.034,0.062-0.049C2.057,3.562,2.889,3.001,3.721,2.44
		c0.517-0.348,1.034-0.696,1.55-1.045c0.032-0.021,0.063-0.03,0.101-0.03C5.951,1.372,6.531,1.376,7.11,1.381
		c0.428,0.004,0.857,0.008,1.285,0.011c0.325,0.003,0.65,0.006,0.975,0.009c0.009,0,0.018,0,0.027,0
		C9.398,1.405,9.399,1.408,9.4,1.412z"/>
	<path fill="#FE5E0D" d="M7.495,9.317C7.482,9.308,7.469,9.301,7.458,9.291C7.254,9.129,7.05,8.967,6.846,8.805
		c-0.01-0.008-0.019-0.018-0.029-0.027C6.84,8.749,6.845,8.717,6.845,8.681c0-0.794,0-1.588,0-2.382
		c0-0.069-0.005-0.071-0.076-0.074C6.735,6.224,6.695,6.24,6.67,6.2c0.057,0,0.114-0.001,0.172-0.001
		C6.945,6.2,7.048,6.203,7.151,6.205c0.02,0,0.036,0.004,0.051,0.02C7.321,6.356,7.441,6.488,7.56,6.619
		c0.002,0.003,0.004,0.007,0.005,0.01C7.57,6.65,7.572,6.671,7.572,6.692c-0.001,0.835,0,1.669-0.001,2.504
		c0,0.027,0.002,0.054-0.003,0.08C7.559,9.316,7.539,9.339,7.495,9.317z"/>
	<path fill="#FE4109" d="M8.856,10.397c-0.034-0.025-0.069-0.048-0.101-0.074c-0.205-0.163-0.41-0.326-0.615-0.489
		C8.131,9.827,8.123,9.818,8.115,9.81C8.133,9.768,8.13,9.724,8.13,9.68c0-0.747,0-1.494,0-2.242c0-0.053-0.007-0.108,0.031-0.154
		c0.017,0.009,0.028,0.026,0.041,0.04c0.17,0.186,0.339,0.373,0.508,0.559c0.06,0.066,0.122,0.132,0.183,0.198
		c0.013,0.014,0.024,0.029,0.036,0.044c0.009,0.026,0.008,0.053,0.008,0.079c0,0.681,0,1.362,0,2.044
		c0,0.03,0.003,0.061-0.005,0.091C8.922,10.378,8.902,10.406,8.856,10.397z"/>
	<path fill="#FE6F0F" d="M6.67,6.2c0.013,0.011,0.029,0.007,0.044,0.007c0.04,0.001,0.08,0,0.12,0.001
		c0.022,0,0.027,0.007,0.028,0.027c0.001,0.015,0.001,0.031,0.001,0.046c0,0.806,0,1.613,0,2.419c0,0.011,0,0.023,0,0.034
		C6.862,8.768,6.858,8.771,6.817,8.778l0,0C6.814,8.773,6.81,8.769,6.804,8.767l0.001,0.001C6.802,8.761,6.797,8.757,6.79,8.756
		c-0.003,0-0.006-0.001-0.007-0.005C6.779,8.75,6.775,8.747,6.773,8.743L6.772,8.742C6.768,8.739,6.764,8.735,6.76,8.732l0,0
		C6.756,8.727,6.752,8.723,6.746,8.721C6.73,8.71,6.714,8.7,6.7,8.688C6.574,8.589,6.45,8.489,6.324,8.39
		C6.242,8.325,6.16,8.261,6.078,8.196C6.063,8.184,6.046,8.175,6.036,8.158c0.031-0.034,0.029-0.077,0.029-0.119
		c0-0.58,0-1.161,0-1.741c0-0.035-0.009-0.073,0.019-0.104c0.009-0.001,0.019-0.003,0.028-0.003
		c0.175,0.002,0.349,0.004,0.524,0.006C6.648,6.197,6.659,6.199,6.67,6.2z"/>
	<path fill="#FE520B" d="M7.321,3.189c0.041-0.028,0.081-0.056,0.123-0.083c0.183-0.118,0.365-0.236,0.548-0.354
		c0.013-0.008,0.026-0.015,0.04-0.022C8.059,2.73,8.059,2.752,8.062,2.77c0.004,0.023,0.002,0.046,0.002,0.069
		c0,0.632,0,1.265,0.001,1.897c0,0.059-0.007,0.114-0.043,0.162C8.018,4.904,8.015,4.911,8.01,4.917
		C7.787,5.17,7.563,5.422,7.339,5.675C7.334,5.68,7.328,5.684,7.322,5.689C7.311,5.677,7.309,5.661,7.313,5.646
		C7.335,5.569,7.327,5.49,7.327,5.412c0.001-0.611,0.001-1.223,0-1.834C7.327,3.448,7.331,3.318,7.321,3.189z"/>
	<path fill="#FE640E" d="M7.321,3.189c0.018,0.014,0.025,0.033,0.024,0.055c0,0.015,0,0.031,0,0.046c0,0.751,0,1.503,0,2.254
		c0,0.036,0.003,0.072-0.018,0.106C7.321,5.66,7.324,5.676,7.322,5.689c-0.04,0.046-0.08,0.093-0.119,0.139
		C7.192,5.841,7.178,5.844,7.162,5.844c-0.04-0.001-0.08-0.001-0.12-0.001C6.829,5.841,6.617,5.839,6.405,5.837
		c-0.017,0-0.035,0.004-0.05-0.006c0.018-0.022,0.044-0.02,0.069-0.02c0.059-0.001,0.118-0.002,0.178,0
		c0.045,0.001,0.063-0.018,0.06-0.062c-0.001-0.013,0-0.027,0-0.04c0-0.676,0-1.352,0-2.028c0-0.023,0.001-0.046,0.005-0.068
		c0.009-0.007,0.017-0.015,0.026-0.021c0.201-0.13,0.402-0.26,0.604-0.39C7.304,3.196,7.313,3.193,7.321,3.189z"/>
	<path fill="#FE4F0B" d="M8.162,7.285C8.16,7.306,8.162,7.327,8.154,7.347C8.145,7.369,8.149,7.393,8.149,7.415
		c0,0.77,0,1.541,0,2.311c0,0.017,0,0.034-0.001,0.052C8.147,9.799,8.135,9.809,8.115,9.81l0,0C8.111,9.806,8.107,9.802,8.102,9.799
		L8.103,9.8C8.099,9.794,8.095,9.79,8.087,9.789c-0.004,0-0.006-0.002-0.008-0.005C8.076,9.782,8.073,9.779,8.071,9.775L8.069,9.774
		c-0.004-0.003-0.008-0.006-0.012-0.01l0,0C8.053,9.76,8.05,9.756,8.044,9.754l0.001,0.001C8.042,9.748,8.037,9.744,8.03,9.743
		C8.02,9.736,8.01,9.731,8.002,9.724C7.841,9.596,7.68,9.468,7.519,9.34C7.51,9.333,7.503,9.325,7.495,9.317
		c0.011-0.001,0.023,0,0.034-0.003c0.012-0.002,0.019-0.012,0.022-0.024c0.001-0.007,0.001-0.015,0.001-0.023
		c0-0.015,0-0.031,0-0.046c0-0.836,0-1.673,0-2.509c0-0.028-0.004-0.058,0.013-0.083c0.011,0.01,0.023,0.02,0.033,0.031
		c0.143,0.157,0.285,0.314,0.428,0.471C8.034,7.14,8.04,7.149,8.046,7.158C8.05,7.163,8.053,7.168,8.058,7.171l0,0
		c0.003,0.004,0.007,0.008,0.011,0.012l0,0c0.004,0.004,0.007,0.007,0.01,0.011L8.08,7.195c0.004,0.003,0.007,0.006,0.01,0.011
		l0.001,0.002c0.004,0.002,0.007,0.006,0.009,0.01L8.103,7.22c0.004,0.001,0.007,0.004,0.008,0.008
		c0.008,0.005,0.014,0.011,0.017,0.02C8.129,7.255,8.133,7.26,8.14,7.262L8.139,7.261c0.002,0.006,0.006,0.01,0.012,0.013
		L8.15,7.273C8.153,7.278,8.156,7.283,8.162,7.285L8.162,7.285z"/>
	<path fill="#FD8312" d="M6.084,6.194c0,0.025-0.001,0.05-0.001,0.074c0,0.599,0,1.198,0,1.796c0,0.015,0,0.031,0,0.046
		C6.082,8.149,6.079,8.152,6.036,8.158C6.025,8.151,6.013,8.144,6.003,8.136C5.712,7.905,5.421,7.674,5.13,7.442
		c-0.012-0.009-0.022-0.02-0.033-0.031c0.035-0.036,0.039-0.079,0.039-0.127c-0.001-0.331,0-0.661-0.001-0.992
		c0-0.089-0.001-0.09-0.089-0.09c-0.027,0-0.054,0.002-0.08-0.001c-0.02-0.002-0.044,0.002-0.052-0.025c0.088,0,0.175,0,0.263,0.001
		c0.215,0.003,0.43,0.006,0.645,0.009c0.072,0.001,0.145,0.002,0.217,0.003C6.055,6.189,6.07,6.187,6.084,6.194z"/>
	<path fill="#FE4209" d="M8.022,4.898C8.025,4.887,8.024,4.874,8.03,4.865c0.016-0.026,0.016-0.054,0.016-0.083
		c0-0.663,0-1.326-0.001-1.989c0-0.022,0.009-0.047-0.014-0.064c0.01-0.008,0.02-0.017,0.031-0.024
		c0.198-0.128,0.396-0.256,0.594-0.384c0.009-0.006,0.02-0.011,0.03-0.016C8.691,2.303,8.695,2.3,8.7,2.297
		C8.705,2.29,8.712,2.284,8.722,2.283C8.726,2.28,8.73,2.277,8.734,2.274C8.735,2.271,8.738,2.27,8.742,2.27
		C8.749,2.27,8.753,2.265,8.757,2.26l0,0c0.003-0.003,0.007-0.006,0.011-0.008C8.77,2.249,8.773,2.247,8.777,2.248
		c0.006-0.001,0.01-0.005,0.015-0.009l0.001-0.001C8.823,2.226,8.825,2.25,8.83,2.267c0.006,0.022,0.004,0.046,0.004,0.068
		c0,0.523,0,1.046,0,1.57c0,0.035,0.001,0.069-0.018,0.1l0-0.001C8.811,4.008,8.807,4.012,8.804,4.017l0.001-0.001
		c-0.005,0.003-0.01,0.007-0.012,0.013l0.001-0.001c-0.006,0.002-0.01,0.006-0.013,0.013L8.783,4.04
		C8.776,4.042,8.772,4.046,8.77,4.053l0.001-0.001C8.765,4.054,8.761,4.058,8.759,4.064L8.76,4.063
		c-0.01,0.002-0.007,0.015-0.015,0.019C8.737,4.093,8.73,4.104,8.721,4.114C8.495,4.369,8.269,4.624,8.043,4.879
		C8.037,4.886,8.029,4.892,8.022,4.898z"/>
	<path fill="#FE2D06" d="M8.856,10.397c0.05-0.017,0.062-0.032,0.063-0.081c0-0.013,0-0.027,0-0.04c0-0.691,0-1.382,0-2.072
		c0-0.026-0.005-0.054,0.011-0.078C8.937,8.133,8.946,8.14,8.954,8.148c0.25,0.275,0.5,0.55,0.75,0.825
		c0.01,0.011,0.019,0.024,0.028,0.036c0.012,0.017,0.008,0.037,0.008,0.056c-0.002,0.412,0,0.824-0.001,1.236
		c0,0.043,0.007,0.09-0.041,0.117c-0.006,0.001-0.011,0.002-0.017,0.002c-0.179-0.003-0.358-0.006-0.538-0.008
		c-0.08-0.001-0.16-0.002-0.24-0.004C8.887,10.407,8.869,10.413,8.856,10.397z"/>
	<path fill="#FE2F06" d="M8.815,4.005c0-0.362,0-0.725,0-1.087c0-0.204,0-0.408,0-0.612c0-0.017,0-0.034-0.001-0.051
		c-0.001-0.011-0.01-0.015-0.02-0.017c0.004-0.004,0.007-0.009,0.012-0.012c0.26-0.168,0.52-0.337,0.781-0.505
		c0.006-0.004,0.014-0.006,0.02-0.01C9.633,1.741,9.625,1.777,9.625,1.81c0.001,0.39,0.001,0.779,0,1.169
		c0,0.039,0.012,0.08-0.007,0.119C9.592,3.13,9.565,3.163,9.538,3.194C9.309,3.453,9.08,3.711,8.852,3.969
		C8.84,3.982,8.831,3.997,8.815,4.005z"/>
	<path fill="#FE7110" d="M6.666,3.613c0.008,0.006,0.013,0.014,0.013,0.024c0,0.015,0.001,0.031,0.001,0.046c0,0.69,0,1.38,0,2.071
		c0,0.082,0.006,0.075-0.073,0.076c-0.084,0-0.168,0.001-0.252,0.002c-0.065,0-0.129,0.001-0.194,0.001
		C5.948,5.83,5.734,5.827,5.521,5.825c-0.017,0-0.034,0.004-0.05-0.006c0.022-0.025,0.052-0.02,0.08-0.02
		c0.134-0.001,0.267,0,0.401-0.001C6.06,5.798,6.076,5.782,6.076,5.676c0-0.544,0.001-1.088-0.001-1.632
		c0-0.019,0-0.038,0.006-0.056c0.052-0.035,0.103-0.07,0.156-0.104C6.328,3.825,6.419,3.767,6.51,3.709
		c0.009-0.006,0.02-0.01,0.03-0.016c0.005-0.002,0.009-0.006,0.014-0.009l0.002-0.001c0.001-0.005,0.003-0.007,0.008-0.006
		c0.004-0.002,0.008-0.004,0.012-0.006C6.58,3.668,6.584,3.665,6.588,3.663c0.001-0.003,0.004-0.005,0.008-0.004
		c0.007-0.001,0.012-0.005,0.016-0.01l0,0C6.614,3.645,6.618,3.643,6.622,3.64C6.624,3.637,6.626,3.635,6.63,3.636
		c0.006-0.001,0.011-0.005,0.015-0.01l0.001,0c0.003-0.003,0.006-0.006,0.01-0.008C6.658,3.614,6.662,3.612,6.666,3.613z"/>
	<path fill="#FF1E04" d="M9.618,3.098C9.61,3.071,9.607,3.043,9.607,3.014c0-0.434,0-0.868,0-1.302
		C9.608,1.709,9.61,1.708,9.613,1.708C9.621,1.708,9.625,1.703,9.63,1.698C9.637,1.692,9.644,1.685,9.652,1.68
		c0.066-0.043,0.132-0.085,0.197-0.128c0.017-0.011,0.033-0.018,0.053-0.016c0.011,0.001,0.023,0,0.034,0c0.331,0,0.661,0,0.992,0
		c0.021,0,0.041,0.001,0.063,0.001c0.001,0.021-0.013,0.029-0.022,0.04c-0.096,0.109-0.192,0.218-0.289,0.326
		c-0.341,0.385-0.681,0.77-1.022,1.155C9.646,3.072,9.636,3.089,9.618,3.098z"/>
	<path fill="#FD8012" d="M6.082,3.988c0.009,0.019,0.015,0.039,0.013,0.061c-0.001,0.011,0,0.023,0,0.034c0,0.537,0,1.074,0,1.612
		c0,0.011-0.001,0.023,0,0.034C6.1,5.786,6.064,5.806,6.016,5.816C6.001,5.82,5.985,5.817,5.97,5.817c-0.143,0-0.287,0-0.43,0
		c-0.023,0-0.046,0.001-0.069,0.002c-0.006,0-0.013,0-0.019-0.001c-0.019-0.022-0.018-0.05-0.018-0.076
		C5.433,5.313,5.434,4.884,5.432,4.454c0-0.017,0.001-0.034,0.007-0.051c0.007-0.006,0.014-0.013,0.022-0.018
		C5.65,4.263,5.839,4.141,6.028,4.019c0.009-0.006,0.02-0.01,0.03-0.016c0.004-0.003,0.009-0.005,0.013-0.008
		C6.075,3.993,6.078,3.99,6.082,3.988z"/>
	<path fill="#FD9C16" d="M4.914,6.177c0.013,0.012,0.029,0.008,0.044,0.008c0.054,0,0.107,0,0.161,0.001
		c0.029,0,0.033,0.005,0.034,0.033c0.001,0.013,0,0.027,0,0.04c0,0.354,0,0.707,0,1.061c0,0.008,0,0.015,0,0.023
		C5.153,7.393,5.152,7.394,5.097,7.412C5.081,7.401,5.066,7.39,5.051,7.379c-0.41-0.326-0.82-0.652-1.23-0.977
		C3.734,6.332,3.647,6.264,3.56,6.196C3.548,6.187,3.535,6.179,3.526,6.162C3.549,6.154,3.57,6.158,3.59,6.158
		C3.888,6.162,4.186,6.166,4.485,6.17c0.122,0.002,0.245,0.003,0.367,0.004C4.872,6.174,4.893,6.176,4.914,6.177z"/>
	<path fill="#FF1C04" d="M9.699,10.418c0.019-0.03,0.024-0.063,0.024-0.098c-0.001-0.407,0-0.814-0.001-1.221
		c0-0.031,0-0.061,0.011-0.09C9.776,9.055,9.819,9.1,9.862,9.147c0.291,0.32,0.581,0.639,0.872,0.959
		c0.086,0.095,0.172,0.189,0.259,0.284c0.012,0.014,0.024,0.028,0.038,0.046c-0.018,0.01-0.033,0.007-0.047,0.006
		c-0.161-0.003-0.321-0.006-0.482-0.008c-0.185-0.003-0.371-0.004-0.556-0.007C9.863,10.425,9.781,10.421,9.699,10.418z"/>
	<path fill="#FD9F16" d="M4.597,5.807C4.584,5.808,4.571,5.81,4.558,5.81C4.294,5.807,4.03,5.805,3.767,5.802
		C3.612,5.8,3.457,5.796,3.303,5.793C3.297,5.78,3.308,5.777,3.315,5.772c0.156-0.1,0.312-0.2,0.467-0.301
		C3.92,5.382,4.058,5.293,4.196,5.204C4.39,5.079,4.584,4.953,4.778,4.828c0.013-0.008,0.026-0.015,0.04-0.022
		c0.028-0.001,0.033,0.021,0.039,0.041c0.005,0.015,0.005,0.03,0.005,0.045c0.001,0.282,0.001,0.564,0,0.846
		c0,0.069-0.006,0.074-0.076,0.073C4.723,5.81,4.66,5.817,4.597,5.807z"/>
	<path fill="#FD8F14" d="M4.597,5.807c0.063,0,0.126-0.001,0.189-0.002c0.013,0,0.027-0.001,0.04-0.002
		C4.835,5.802,4.84,5.797,4.841,5.788c0.001-0.011,0.002-0.023,0.002-0.034c0-0.292,0-0.584,0-0.876
		c0-0.027-0.001-0.054-0.026-0.072C4.825,4.8,4.832,4.793,4.84,4.788c0.148-0.096,0.296-0.191,0.444-0.287
		c0.009-0.006,0.02-0.01,0.03-0.016C5.317,4.483,5.321,4.48,5.325,4.477c0.002-0.003,0.004-0.005,0.008-0.004
		c0.007,0,0.011-0.005,0.015-0.01l0.001,0C5.352,4.46,5.355,4.457,5.359,4.455C5.361,4.451,5.364,4.45,5.368,4.45
		c0.006-0.001,0.011-0.005,0.015-0.01L5.384,4.44c0.003-0.003,0.006-0.006,0.01-0.008c0.002-0.004,0.005-0.005,0.009-0.005
		c0.006-0.001,0.01-0.005,0.014-0.009l0.001-0.001C5.421,4.414,5.424,4.411,5.428,4.41C5.432,4.408,5.436,4.406,5.44,4.404
		c0.007,0.016,0.014,0.031,0.012,0.049c-0.001,0.006,0,0.011,0,0.017c0,0.449,0,0.899,0,1.348c-0.059,0-0.118,0.001-0.177,0.001
		C5.068,5.818,4.861,5.816,4.653,5.813C4.635,5.813,4.615,5.817,4.597,5.807z"/>
	<path fill="#FE2F06" d="M8.745,4.082C8.747,4.073,8.75,4.065,8.76,4.063C8.759,4.072,8.754,4.078,8.745,4.082z"/>
	<path fill="#FE640E" d="M6.622,3.64C6.618,3.643,6.615,3.646,6.611,3.648C6.613,3.643,6.616,3.64,6.622,3.64z"/>
	<path fill="#FE640E" d="M6.611,3.648c-0.003,0.006-0.008,0.01-0.016,0.01C6.598,3.652,6.604,3.649,6.611,3.648z"/>
	<path fill="#FE640E" d="M6.588,3.663C6.584,3.665,6.58,3.668,6.576,3.671C6.578,3.665,6.581,3.662,6.588,3.663z"/>
	<path fill="#FE640E" d="M6.564,3.677C6.562,3.68,6.559,3.682,6.556,3.683C6.557,3.679,6.56,3.677,6.564,3.677z"/>
	<path fill="#FE640E" d="M6.554,3.685C6.549,3.688,6.545,3.691,6.54,3.694C6.543,3.688,6.547,3.685,6.554,3.685z"/>
	<path fill="#FE7110" d="M6.071,3.995C6.067,3.998,6.063,4.001,6.059,4.004C6.061,3.998,6.065,3.995,6.071,3.995z"/>
	<path fill="#FE2F06" d="M8.804,4.017C8.806,4.011,8.81,4.007,8.816,4.005C8.815,4.011,8.811,4.016,8.804,4.017z"/>
	<path fill="#FE2F06" d="M8.793,4.029c0.001-0.007,0.005-0.011,0.012-0.013C8.804,4.023,8.8,4.028,8.793,4.029z"/>
	<path fill="#FE2F06" d="M8.782,4.041C8.783,4.034,8.787,4.03,8.794,4.028C8.793,4.035,8.789,4.04,8.782,4.041z"/>
	<path fill="#FE2F06" d="M8.77,4.053C8.772,4.046,8.776,4.041,8.783,4.04C8.781,4.047,8.777,4.051,8.77,4.053z"/>
	<path fill="#FE2F06" d="M8.759,4.064C8.76,4.057,8.764,4.053,8.771,4.051C8.77,4.058,8.766,4.063,8.759,4.064z"/>
	<path fill="#FD8012" d="M5.428,4.41C5.425,4.412,5.422,4.415,5.419,4.417C5.42,4.412,5.423,4.41,5.428,4.41z"/>
	<path fill="#FD8012" d="M5.417,4.418C5.414,4.424,5.409,4.427,5.403,4.428C5.406,4.421,5.411,4.418,5.417,4.418z"/>
	<path fill="#FD8012" d="M5.394,4.432C5.39,4.435,5.387,4.438,5.384,4.44C5.385,4.435,5.388,4.432,5.394,4.432z"/>
	<path fill="#FD8012" d="M5.383,4.441C5.38,4.447,5.375,4.45,5.368,4.45C5.371,4.444,5.376,4.441,5.383,4.441z"/>
	<path fill="#FD8012" d="M5.359,4.455C5.356,4.458,5.352,4.46,5.349,4.463C5.35,4.457,5.354,4.454,5.359,4.455z"/>
	<path fill="#FD8012" d="M5.348,4.463C5.345,4.47,5.34,4.473,5.333,4.473C5.336,4.467,5.341,4.463,5.348,4.463z"/>
	<path fill="#FD8012" d="M5.325,4.477C5.321,4.48,5.317,4.483,5.313,4.486C5.315,4.48,5.319,4.477,5.325,4.477z"/>
	<path fill="#FE2F06" d="M9.63,1.698c-0.003,0.007-0.009,0.01-0.017,0.011C9.617,1.702,9.622,1.698,9.63,1.698z"/>
	<path fill="#FE2F06" d="M8.792,2.239c-0.005,0.003-0.01,0.006-0.015,0.009C8.78,2.242,8.786,2.239,8.792,2.239z"/>
	<path fill="#FE2F06" d="M8.768,2.252C8.765,2.255,8.761,2.257,8.757,2.26C8.759,2.255,8.762,2.252,8.768,2.252z"/>
	<path fill="#FE2F06" d="M8.757,2.26C8.754,2.267,8.749,2.27,8.742,2.27C8.745,2.264,8.75,2.261,8.757,2.26z"/>
	<path fill="#FE2F06" d="M8.734,2.274C8.73,2.277,8.726,2.28,8.722,2.283C8.724,2.277,8.728,2.274,8.734,2.274z"/>
	<path fill="#FE2F06" d="M8.7,2.297C8.695,2.3,8.691,2.303,8.687,2.305C8.689,2.3,8.693,2.297,8.7,2.297z"/>
	<path fill="#FE4109" d="M8.058,7.171C8.054,7.167,8.05,7.163,8.046,7.158C8.053,7.16,8.057,7.164,8.058,7.171z"/>
	<path fill="#FE4109" d="M8.069,7.183C8.065,7.179,8.061,7.175,8.058,7.171C8.064,7.172,8.068,7.176,8.069,7.183z"/>
	<path fill="#FE4109" d="M8.079,7.194c-0.003-0.004-0.007-0.008-0.01-0.011C8.075,7.184,8.079,7.188,8.079,7.194z"/>
	<path fill="#FE4109" d="M8.09,7.206C8.087,7.202,8.083,7.199,8.08,7.195C8.086,7.196,8.089,7.2,8.09,7.206z"/>
	<path fill="#FE4109" d="M8.101,7.218c-0.003-0.003-0.006-0.007-0.009-0.01C8.097,7.209,8.1,7.212,8.101,7.218z"/>
	<path fill="#FE4109" d="M8.111,7.228C8.107,7.226,8.105,7.223,8.103,7.22C8.108,7.22,8.11,7.223,8.111,7.228z"/>
	<path fill="#FE4109" d="M8.14,7.262C8.133,7.26,8.129,7.255,8.128,7.247C8.134,7.25,8.139,7.255,8.14,7.262z"/>
	<path fill="#FE4109" d="M8.151,7.274C8.144,7.272,8.14,7.268,8.139,7.261C8.146,7.263,8.149,7.267,8.151,7.274z"/>
	<path fill="#FE4109" d="M8.162,7.285C8.155,7.283,8.152,7.279,8.15,7.273C8.157,7.275,8.16,7.279,8.162,7.285z"/>
	<path fill="#FE5E0D" d="M6.746,8.721C6.753,8.722,6.757,8.726,6.76,8.732C6.753,8.731,6.748,8.728,6.746,8.721z"/>
	<path fill="#FE5E0D" d="M6.76,8.732c0.004,0.003,0.008,0.007,0.012,0.01C6.766,8.742,6.762,8.738,6.76,8.732z"/>
	<path fill="#FE5E0D" d="M6.773,8.743c0.003,0.003,0.007,0.006,0.01,0.009C6.777,8.751,6.774,8.748,6.773,8.743z"/>
	<path fill="#FE5E0D" d="M6.79,8.756c0.008,0.001,0.013,0.005,0.016,0.012C6.798,8.767,6.793,8.763,6.79,8.756z"/>
	<path fill="#FE5E0D" d="M6.804,8.767c0.006,0.001,0.011,0.005,0.013,0.011C6.811,8.777,6.806,8.774,6.804,8.767z"/>
	<path fill="#FE640E" d="M6.656,3.618C6.653,3.62,6.649,3.623,6.646,3.626C6.647,3.62,6.651,3.617,6.656,3.618z"/>
	<path fill="#FE4109" d="M8.03,9.743c0.007,0.001,0.013,0.005,0.016,0.012C8.038,9.753,8.033,9.749,8.03,9.743z"/>
	<path fill="#FE4109" d="M8.044,9.754c0.004,0.004,0.009,0.007,0.013,0.011C8.051,9.764,8.046,9.76,8.044,9.754z"/>
	<path fill="#FE4109" d="M8.057,9.764c0.004,0.003,0.008,0.007,0.012,0.01C8.063,9.774,8.059,9.77,8.057,9.764z"/>
	<path fill="#FE4109" d="M8.071,9.775C8.074,9.778,8.077,9.781,8.08,9.783C8.074,9.783,8.072,9.78,8.071,9.775z"/>
	<path fill="#FE4109" d="M8.087,9.789C8.095,9.789,8.1,9.793,8.103,9.8C8.096,9.799,8.091,9.795,8.087,9.789z"/>
	<path fill="#FE640E" d="M6.645,3.626C6.642,3.632,6.637,3.635,6.63,3.636C6.633,3.63,6.638,3.626,6.645,3.626z"/>
	<path fill="#FE4109" d="M8.102,9.799C8.106,9.803,8.111,9.806,8.115,9.81C8.108,9.809,8.104,9.806,8.102,9.799z"/>
	<path fill="#FFF900" d="M24.448,10.753c-0.56,0.009-1.121,0.017-1.681,0.026c-0.032,0-0.065,0.001-0.097,0.002
		c-0.005,0-0.008-0.001-0.008-0.006c0-0.003,0.001-0.008,0.003-0.01c0.01-0.009,0.02-0.017,0.031-0.026
		c0.362-0.288,0.724-0.576,1.086-0.864c0.819-0.651,1.638-1.301,2.457-1.952c0.852-0.677,1.704-1.353,2.556-2.03
		c0.461-0.366,0.922-0.732,1.384-1.098c0.015-0.012,0.027-0.032,0.051-0.03c0.007,0.018,0.004,0.037,0.004,0.056
		c0,0.858,0,1.717,0,2.575c0,0.065,0.008,0.047-0.043,0.09c-0.44,0.362-0.88,0.725-1.32,1.087c-0.836,0.688-1.671,1.375-2.507,2.063
		c-0.028,0.023-0.058,0.044-0.085,0.068c-0.019,0.016-0.039,0.021-0.063,0.022c-0.153,0.001-0.306,0.003-0.459,0.005
		C25.32,10.738,24.884,10.746,24.448,10.753C24.448,10.753,24.448,10.753,24.448,10.753z"/>
	<path fill="#FFF900" d="M21.991,1.412c0.035-0.009,0.058-0.008,0.08-0.008c0.354-0.003,0.708-0.005,1.061-0.008
		c0.484-0.004,0.968-0.009,1.451-0.013c0.43-0.004,0.861-0.008,1.291-0.012c0.052,0,0.103-0.001,0.155-0.003
		c0.032-0.001,0.059,0.007,0.085,0.025c0.279,0.188,0.558,0.376,0.837,0.564c0.612,0.413,1.223,0.826,1.835,1.238
		c0.464,0.313,0.929,0.625,1.393,0.939c0.064,0.043,0.051,0.02,0.053,0.1c0,0.01-0.001,0.019,0,0.029
		c0.003,0.022-0.008,0.035-0.024,0.048C30.134,4.37,30.06,4.43,29.985,4.49c-0.37,0.294-0.739,0.588-1.109,0.882
		c-0.1,0.08-0.201,0.159-0.302,0.238c-0.043,0.034-0.035,0.036-0.083,0.005c-0.189-0.123-0.379-0.245-0.568-0.368
		c-0.517-0.334-1.033-0.669-1.55-1.003c-0.833-0.539-1.666-1.077-2.499-1.615c-0.608-0.393-1.217-0.786-1.825-1.179
		C22.033,1.44,22.017,1.43,21.991,1.412z"/>
	<path fill="#FE580C" d="M24.452,8.883c-0.013,0.011-0.025,0.024-0.038,0.034c-0.186,0.148-0.373,0.297-0.559,0.445
		c-0.127,0.101-0.254,0.201-0.382,0.301c-0.01,0.008-0.022,0.015-0.033,0.022c-0.038,0.012-0.047-0.015-0.053-0.042
		c-0.006-0.028-0.004-0.057-0.004-0.086c0-0.768,0-1.535,0.001-2.303c0-0.047-0.016-0.095,0.006-0.141
		c0.012-0.015,0.023-0.03,0.036-0.044c0.251-0.275,0.502-0.551,0.753-0.826c0.005-0.006,0.01-0.011,0.015-0.017
		c0.01-0.012,0.022-0.019,0.04-0.019c0.055,0.001,0.111,0.001,0.166,0.001c0.027,0.031,0.019,0.069,0.019,0.105
		c0,0.805,0,1.61,0,2.415C24.42,8.782,24.422,8.835,24.452,8.883z"/>
	<path fill="#FE4009" d="M23.391,7.113c0.015,0.056,0.012,0.113,0.012,0.17c0,0.769,0,1.539,0,2.308c0,0.017,0,0.034,0,0.052
		c0,0.025,0.012,0.039,0.037,0.041c-0.011,0.01-0.022,0.021-0.033,0.031c-0.26,0.207-0.52,0.414-0.78,0.62
		c-0.012,0.009-0.025,0.017-0.037,0.026c-0.036,0.002-0.045-0.023-0.051-0.05c-0.006-0.026-0.004-0.053-0.004-0.08
		c0-0.696,0-1.391,0-2.087c0-0.038-0.002-0.077,0.019-0.111c0.007-0.009,0.013-0.019,0.021-0.027
		c0.261-0.287,0.522-0.575,0.783-0.862C23.368,7.133,23.377,7.12,23.391,7.113z"/>
	<path fill="#FE570C" d="M24.44,5.842c-0.013,0.002-0.026,0.006-0.039,0.006c-0.054,0.001-0.107,0-0.161,0.002
		c-0.021,0.001-0.036-0.005-0.05-0.022c-0.025-0.029-0.05-0.058-0.076-0.086c-0.179-0.202-0.358-0.403-0.537-0.605
		c-0.009-0.01-0.016-0.021-0.024-0.032c-0.032-0.052-0.042-0.109-0.042-0.17c0.001-0.659,0-1.318,0.001-1.976
		c0-0.038-0.018-0.088,0.042-0.104c0.012,0.006,0.024,0.012,0.035,0.019c0.252,0.162,0.504,0.324,0.755,0.486
		c0.009,0.006,0.018,0.014,0.027,0.021c0.003,0.023,0.005,0.045,0.005,0.068c-0.001,0.755,0,1.509-0.001,2.264
		C24.373,5.772,24.379,5.82,24.44,5.842z"/>
	<path fill="#FE6E0F" d="M24.452,8.883c-0.02-0.001-0.035-0.004-0.041-0.03c-0.007-0.03-0.01-0.06-0.01-0.09
		c0-0.828,0-1.657,0-2.485c0-0.023,0-0.046,0-0.069c0.006-0.001,0.011-0.002,0.017-0.002c0.226-0.003,0.452-0.007,0.679-0.01
		c0.009,0,0.019,0.001,0.028,0.002c0.098,0.009,0.098,0.009,0.098,0.112c0,0.6,0,1.201,0,1.801c0,0.046-0.002,0.093,0.038,0.126
		c-0.008,0.008-0.015,0.017-0.024,0.024c-0.218,0.174-0.437,0.347-0.655,0.521c-0.009,0.007-0.019,0.013-0.028,0.019
		c-0.006,0.002-0.011,0.006-0.015,0.011l0,0c-0.004,0.003-0.008,0.007-0.012,0.01l-0.001,0.001c-0.002,0.004-0.006,0.007-0.01,0.009
		c-0.001,0.003-0.003,0.005-0.006,0.004c-0.008,0.001-0.013,0.005-0.016,0.012l0.001-0.001c-0.006,0.002-0.01,0.007-0.013,0.011l0,0
		c-0.004,0.004-0.008,0.007-0.012,0.01l-0.001,0.001c-0.002,0.004-0.006,0.007-0.01,0.009C24.458,8.881,24.456,8.883,24.452,8.883z"
		/>
	<path fill="#FE6C0F" d="M24.44,5.842c-0.011-0.001-0.023-0.002-0.034-0.002c-0.049-0.002-0.049-0.002-0.049-0.053
		c0-0.126,0-0.252,0-0.379c0-0.65,0-1.3,0-1.95c0-0.017,0-0.034,0.001-0.052c0-0.01,0.005-0.018,0.014-0.024
		c0.004,0,0.007,0.002,0.01,0.005c0.004,0.002,0.007,0.005,0.011,0.008l0,0c0.004,0.005,0.008,0.009,0.015,0.01
		c0.004,0,0.006,0.001,0.008,0.005c0.004,0.003,0.008,0.005,0.011,0.008c0.01,0.001,0.017,0.007,0.023,0.014
		c0.004,0.003,0.008,0.006,0.012,0.008c0.004,0.002,0.007,0.004,0.011,0.006c0.004,0,0.007,0.002,0.008,0.007l0.002,0.001
		c0.004,0.003,0.008,0.007,0.014,0.009c0.01,0.005,0.021,0.01,0.03,0.016c0.198,0.128,0.396,0.256,0.594,0.384
		c0.011,0.007,0.021,0.016,0.031,0.024c0.007,0.03,0.004,0.061,0.004,0.091c0,0.578,0,1.156,0,1.735c0,0.01,0,0.019,0,0.029
		c0.002,0.061,0.006,0.065,0.065,0.068c0.028,0.002,0.058-0.004,0.08,0.02c-0.014,0.009-0.03,0.006-0.045,0.006
		c-0.265,0.003-0.529,0.005-0.794,0.008C24.455,5.844,24.447,5.843,24.44,5.842z"/>
	<path fill="#FE470A" d="M23.553,2.856c-0.015,0.007-0.024,0.019-0.024,0.036c0,0.015,0,0.031,0,0.046c0,0.672,0,1.344,0,2.017
		c0,0.035,0.002,0.069,0.016,0.101c0.007,0.016,0.007,0.033,0.007,0.05c-0.008-0.008-0.017-0.015-0.025-0.023
		c-0.235-0.266-0.471-0.531-0.706-0.797c-0.018-0.02-0.034-0.041-0.05-0.062c-0.016-0.027-0.019-0.057-0.019-0.088
		c0-0.563,0-1.126,0.001-1.69c0-0.03-0.016-0.072,0.034-0.084c0.012,0.006,0.024,0.011,0.035,0.019
		c0.232,0.15,0.463,0.299,0.694,0.449C23.53,2.837,23.541,2.847,23.553,2.856z"/>
	<path fill="#FE3207" d="M22.788,2.361c-0.011,0.007-0.015,0.016-0.015,0.029c0,0.017,0,0.034,0,0.052c0,0.569,0,1.138,0,1.708
		c0,0.025,0,0.05,0,0.074c-0.011-0.01-0.023-0.02-0.033-0.032c-0.27-0.304-0.539-0.609-0.809-0.914
		c-0.015-0.017-0.029-0.035-0.043-0.053c-0.009-0.016-0.009-0.033-0.009-0.05c0.004-0.43,0-0.86,0.002-1.289
		c0-0.033-0.008-0.07,0.02-0.098c0.045,0.02,0.085,0.051,0.126,0.078c0.243,0.157,0.486,0.314,0.729,0.472
		C22.767,2.344,22.777,2.353,22.788,2.361z"/>
	<path fill="#FE3207" d="M22.554,8.034c0,0.101,0,0.202,0,0.304c0,0.64,0,1.28,0,1.919c0,0.013,0.001,0.027,0,0.04
		c-0.003,0.03,0.008,0.052,0.036,0.065c-0.008,0.008-0.016,0.016-0.024,0.024c-0.018,0.018-0.04,0.026-0.067,0.026
		c-0.101,0.001-0.202,0.005-0.302,0.006c-0.084,0.001-0.167,0.001-0.251,0.001c-0.045-0.018-0.061-0.054-0.063-0.1
		c-0.001-0.017-0.001-0.034-0.001-0.052c0-0.479,0-0.959,0-1.438c0-0.021,0-0.042,0.007-0.062c0.007-0.009,0.013-0.019,0.021-0.027
		c0.208-0.229,0.416-0.458,0.624-0.687C22.539,8.045,22.547,8.04,22.554,8.034z"/>
	<path fill="#FF2104" d="M21.888,8.766C21.901,8.787,21.9,8.81,21.9,8.833c0,0.145,0,0.29,0,0.435c0,0.338,0,0.676,0,1.014
		c0,0.077,0,0.077,0.046,0.135c-0.094,0.003-0.187,0.007-0.281,0.009c-0.105,0.002-0.21,0.002-0.315,0.004
		c-0.308,0.005-0.616,0.009-0.923,0.014c-0.019,0-0.038,0-0.055,0c-0.006-0.018,0.006-0.024,0.013-0.032
		c0.19-0.21,0.38-0.419,0.571-0.628c0.095-0.105,0.19-0.21,0.285-0.314c0.209-0.229,0.418-0.457,0.627-0.686
		C21.873,8.778,21.881,8.773,21.888,8.766z"/>
	<path fill="#FD7F11" d="M25.262,8.238c-0.045-0.003-0.054-0.011-0.057-0.052c-0.001-0.015,0-0.031,0-0.046c0-0.611,0-1.221,0-1.832
		c0-0.01,0.001-0.019,0-0.029c-0.002-0.021,0.007-0.044-0.006-0.061c-0.014-0.02-0.039-0.006-0.059-0.011
		c-0.005-0.001-0.01-0.005-0.015-0.008c0.008-0.001,0.015-0.002,0.023-0.003c0.244-0.004,0.489-0.007,0.733-0.01
		c0.011,0,0.023,0.001,0.034,0.002c0.012,0.021,0.008,0.045,0.008,0.068c0,0.426,0,0.853,0,1.279c0,0.056,0.001,0.111,0.016,0.164
		c-0.008,0.008-0.015,0.017-0.024,0.024c-0.207,0.165-0.414,0.329-0.621,0.494C25.285,8.224,25.273,8.231,25.262,8.238z"/>
	<path fill="#FF1F04" d="M21.901,1.788C21.901,1.813,21.9,1.838,21.9,1.863c0,0.422,0,0.845,0,1.267
		c0,0.033-0.002,0.065-0.012,0.096c-0.017-0.01-0.028-0.026-0.04-0.04c-0.157-0.177-0.314-0.355-0.471-0.533
		c-0.313-0.353-0.627-0.706-0.941-1.059c-0.013-0.015-0.029-0.029-0.037-0.047c0.015-0.012,0.029-0.008,0.041-0.008
		c0.346,0,0.692,0,1.038-0.001c0.03,0,0.055,0.007,0.08,0.024c0.097,0.064,0.196,0.127,0.293,0.19
		c0.013,0.008,0.027,0.014,0.036,0.027C21.893,1.782,21.895,1.788,21.901,1.788L21.901,1.788z"/>
	<path fill="#FD7C11" d="M25.301,5.831c-0.044-0.001-0.088-0.001-0.132-0.002c-0.026-0.001-0.031-0.006-0.032-0.03
		c-0.001-0.013,0-0.027,0-0.04c0-0.6,0-1.201,0-1.801c0-0.015,0-0.031,0.001-0.046c0-0.01,0.006-0.018,0.014-0.024
		c0.031,0.011,0.056,0.032,0.083,0.05c0.174,0.112,0.348,0.225,0.522,0.337c0.013,0.008,0.024,0.018,0.036,0.027
		c-0.004,0.036-0.005,0.072-0.005,0.109c0,0.433,0,0.866,0,1.3c0,0.089,0,0.089,0.089,0.089c0.074,0,0.149-0.001,0.223,0
		c0.026,0,0.054-0.003,0.075,0.02c-0.014,0.008-0.03,0.006-0.045,0.006c-0.265,0.003-0.529,0.005-0.794,0.008
		C25.323,5.833,25.312,5.831,25.301,5.831z"/>
	<path fill="#FD8C13" d="M26.173,5.819c-0.09-0.001-0.18-0.001-0.269-0.002c-0.034,0-0.069,0-0.103,0
		c-0.028-0.001-0.032-0.005-0.033-0.035c0-0.01,0-0.019,0-0.029c0-0.46,0-0.92,0-1.381c0-0.011,0-0.023,0-0.034
		c0-0.017,0.009-0.029,0.023-0.036c0,0,0,0,0,0c0.004,0.006,0.009,0.01,0.016,0.01c0.003-0.001,0.006,0.001,0.007,0.004
		c0.004,0.003,0.008,0.006,0.012,0.008c0.004,0.002,0.007,0.004,0.011,0.006c0.004,0.001,0.007,0.003,0.008,0.007l0.002,0.001
		c0.004,0.003,0.008,0.007,0.014,0.009c0.01,0.005,0.021,0.01,0.03,0.016c0.21,0.135,0.42,0.27,0.63,0.406
		c0.013,0.008,0.027,0.014,0.036,0.027c-0.008,0.309-0.002,0.618-0.003,0.927c0,0.046,0.021,0.065,0.066,0.064
		c0.118,0,0.237-0.001,0.355,0c0.028,0,0.058-0.005,0.08,0.02c-0.01,0.007-0.022,0.006-0.033,0.006
		c-0.276,0.003-0.552,0.006-0.828,0.008C26.188,5.822,26.181,5.82,26.173,5.819z"/>
	<path fill="#FD8F14" d="M25.94,7.699c-0.025-0.012-0.037-0.032-0.035-0.06c0.001-0.009,0-0.019,0-0.029c0-0.45,0-0.9,0-1.35
		c0-0.024-0.005-0.05,0.01-0.072c0.011-0.001,0.023-0.002,0.034-0.003c0.256-0.004,0.513-0.007,0.769-0.011
		c0.019,0,0.038,0.001,0.057,0.002c-0.016,0.035-0.048,0.025-0.074,0.025c-0.039,0.001-0.055,0.017-0.055,0.055
		c0,0.26,0,0.52,0,0.78c0,0.031,0.013,0.055,0.029,0.079c-0.008,0.008-0.015,0.017-0.024,0.024
		c-0.229,0.182-0.458,0.363-0.688,0.545C25.956,7.69,25.948,7.694,25.94,7.699z"/>
	<path fill="#FDA116" d="M27.057,5.808c-0.053-0.001-0.107-0.002-0.16-0.002c-0.094,0-0.187,0-0.281,0c-0.013,0-0.027,0-0.04,0
		c-0.018,0-0.028-0.01-0.034-0.025c-0.008-0.018-0.005-0.038-0.005-0.057c0-0.17,0-0.34,0-0.51c0-0.118,0-0.237,0-0.355
		c0-0.015,0-0.031,0.001-0.046c0.001-0.011,0.011-0.015,0.02-0.017c0,0,0.002,0.001,0.002,0.001
		c0.004,0.004,0.008,0.008,0.014,0.009c0.003,0.002,0.007,0.003,0.01,0.005c0.004,0.002,0.007,0.004,0.01,0.007l0.001,0.001
		c0.004,0.004,0.008,0.008,0.014,0.009c0.004,0,0.007,0.001,0.009,0.005c0.004,0.002,0.007,0.005,0.01,0.008l0.001,0.001
		c0.004,0.005,0.008,0.009,0.015,0.009c0.01,0.005,0.021,0.01,0.03,0.016c0.467,0.301,0.933,0.603,1.4,0.905
		c0.006,0.004,0.012,0.009,0.019,0.014c-0.006,0.019-0.022,0.011-0.033,0.012c-0.25,0.004-0.5,0.007-0.75,0.01
		c-0.073,0.001-0.145,0.002-0.218,0.002C27.08,5.81,27.068,5.808,27.057,5.808z"/>
	<path fill="#FDA317" d="M26.676,7.116c-0.044-0.009-0.046-0.011-0.047-0.049c0-0.011,0-0.023,0-0.034c0-0.258,0-0.516,0-0.774
		c0-0.015,0-0.031,0.001-0.046c0.001-0.021,0.007-0.026,0.029-0.027c0.029-0.001,0.057,0,0.086-0.001
		c0.011,0,0.023,0.001,0.032-0.008c0.011-0.001,0.023-0.002,0.034-0.003c0.335-0.004,0.669-0.009,1.004-0.013
		c0.016,0,0.033-0.003,0.054,0.004c-0.012,0.02-0.028,0.029-0.042,0.04c-0.223,0.177-0.446,0.355-0.669,0.532
		c-0.088,0.07-0.177,0.14-0.265,0.21c-0.013,0.011-0.028,0.02-0.042,0.03c-0.007,0.002-0.011,0.006-0.015,0.011l0.001-0.001
		c-0.005,0.003-0.008,0.007-0.013,0.01l0,0c-0.003,0.004-0.006,0.007-0.011,0.009c-0.005,0.007-0.01,0.013-0.019,0.015
		c-0.006,0.002-0.011,0.006-0.015,0.011l0.001,0c-0.005,0.003-0.008,0.007-0.013,0.01l-0.001,0
		c-0.003,0.004-0.006,0.007-0.011,0.009c-0.001,0.003-0.003,0.005-0.006,0.004c-0.008,0.001-0.013,0.005-0.016,0.012l0.001-0.001
		c-0.006,0.002-0.01,0.006-0.013,0.011l0,0c-0.004,0.003-0.008,0.007-0.012,0.01l-0.001,0.001c-0.003,0.004-0.006,0.007-0.01,0.009
		c-0.001,0.003-0.003,0.005-0.006,0.004C26.683,7.105,26.678,7.109,26.676,7.116L26.676,7.116z"/>
	<path fill="#FD7C11" d="M25.807,4.312c-0.007,0-0.013-0.003-0.016-0.01C25.798,4.302,25.804,4.306,25.807,4.312z"/>
	<path fill="#FD7C11" d="M25.827,4.325c-0.004-0.003-0.008-0.006-0.012-0.008C25.821,4.316,25.825,4.319,25.827,4.325z"/>
	<path fill="#FD7C11" d="M25.846,4.337c-0.004-0.001-0.007-0.003-0.008-0.007C25.843,4.33,25.845,4.333,25.846,4.337z"/>
	<path fill="#FD7C11" d="M25.862,4.347c-0.005-0.003-0.009-0.006-0.014-0.009C25.855,4.338,25.859,4.341,25.862,4.347z"/>
	<path fill="#FD8C13" d="M26.574,4.806c-0.006,0-0.011-0.003-0.014-0.009C26.567,4.797,26.571,4.8,26.574,4.806z"/>
	<path fill="#FE3207" d="M21.901,1.789c-0.005-0.003-0.009-0.007-0.014-0.01C21.895,1.78,21.899,1.783,21.901,1.789z"/>
	<path fill="#FD8C13" d="M26.593,4.819c-0.003-0.002-0.006-0.005-0.01-0.007C26.589,4.811,26.592,4.813,26.593,4.819z"/>
	<path fill="#FD8C13" d="M26.609,4.829c-0.007,0-0.011-0.003-0.014-0.009C26.601,4.82,26.606,4.822,26.609,4.829z"/>
	<path fill="#FD8C13" d="M26.628,4.841c-0.003-0.003-0.007-0.005-0.01-0.008C26.624,4.833,26.627,4.836,26.628,4.841z"/>
	<path fill="#FD8C13" d="M26.644,4.851c-0.007,0-0.012-0.003-0.015-0.009C26.636,4.842,26.641,4.845,26.644,4.851z"/>
	<path fill="#FE570C" d="M24.39,3.396c-0.004-0.003-0.007-0.005-0.011-0.008C24.385,3.388,24.389,3.391,24.39,3.396z"/>
	<path fill="#FD8F14" d="M26.835,6.989c0.003-0.007,0.008-0.01,0.015-0.011C26.848,6.984,26.843,6.988,26.835,6.989z"/>
	<path fill="#FD8F14" d="M26.823,6.999c0.004-0.003,0.008-0.007,0.013-0.01C26.834,6.995,26.83,6.998,26.823,6.999z"/>
	<path fill="#FD8F14" d="M26.812,7.008c0.004-0.003,0.007-0.006,0.011-0.009C26.822,7.005,26.818,7.008,26.812,7.008z"/>
	<path fill="#FD8F14" d="M26.778,7.034c0.003-0.007,0.008-0.01,0.015-0.011C26.79,7.03,26.785,7.034,26.778,7.034z"/>
	<path fill="#FD8F14" d="M26.766,7.044c0.004-0.003,0.008-0.007,0.013-0.01C26.777,7.04,26.773,7.044,26.766,7.044z"/>
	<path fill="#FD8F14" d="M26.755,7.054c0.004-0.003,0.007-0.006,0.011-0.009C26.764,7.05,26.761,7.054,26.755,7.054z"/>
	<path fill="#FD8F14" d="M26.733,7.07c0.003-0.008,0.008-0.011,0.016-0.012C26.746,7.065,26.74,7.069,26.733,7.07z"/>
	<path fill="#FD8F14" d="M26.72,7.08c0.002-0.006,0.007-0.01,0.013-0.011C26.732,7.076,26.727,7.079,26.72,7.08z"/>
	<path fill="#FD8F14" d="M26.708,7.09c0.004-0.003,0.008-0.007,0.012-0.01C26.719,7.086,26.715,7.089,26.708,7.09z"/>
	<path fill="#FD8F14" d="M26.697,7.099c0.003-0.003,0.007-0.006,0.01-0.009C26.706,7.096,26.703,7.099,26.697,7.099z"/>
	<path fill="#FD8F14" d="M26.675,7.116c0.003-0.007,0.008-0.011,0.016-0.012C26.688,7.111,26.683,7.115,26.675,7.116z"/>
	<path fill="#FE570C" d="M24.406,3.406c-0.007,0-0.012-0.004-0.015-0.01C24.398,3.396,24.403,3.4,24.406,3.406z"/>
	<path fill="#FE570C" d="M24.425,3.419c-0.004-0.003-0.008-0.005-0.011-0.008C24.42,3.41,24.424,3.413,24.425,3.419z"/>
	<path fill="#FE570C" d="M24.461,3.441c-0.004-0.003-0.008-0.006-0.012-0.008C24.455,3.433,24.459,3.435,24.461,3.441z"/>
	<path fill="#FE570C" d="M24.48,3.454c-0.004-0.001-0.006-0.003-0.008-0.007C24.477,3.447,24.479,3.449,24.48,3.454z"/>
	<path fill="#FE570C" d="M24.496,3.464c-0.005-0.003-0.009-0.006-0.014-0.009C24.489,3.455,24.493,3.458,24.496,3.464z"/>
	<path fill="#FE580C" d="M24.54,8.813c0.003-0.006,0.008-0.01,0.015-0.011C24.551,8.808,24.547,8.812,24.54,8.813z"/>
	<path fill="#FE580C" d="M24.528,8.823c0.004-0.003,0.008-0.007,0.012-0.01C24.538,8.818,24.534,8.822,24.528,8.823z"/>
	<path fill="#FE580C" d="M24.517,8.832c0.003-0.003,0.007-0.006,0.01-0.009C24.526,8.828,24.522,8.832,24.517,8.832z"/>
	<path fill="#FE580C" d="M24.494,8.848c0.003-0.007,0.008-0.011,0.016-0.012C24.507,8.843,24.502,8.847,24.494,8.848z"/>
	<path fill="#FE580C" d="M24.482,8.858c0.002-0.006,0.007-0.01,0.013-0.011C24.494,8.854,24.489,8.858,24.482,8.858z"/>
	<path fill="#FE580C" d="M24.47,8.868c0.004-0.003,0.008-0.007,0.012-0.01C24.481,8.864,24.477,8.868,24.47,8.868z"/>
	<path fill="#FE580C" d="M24.459,8.878c0.003-0.003,0.007-0.006,0.01-0.009C24.468,8.874,24.465,8.877,24.459,8.878z"/>
	<path fill="#FDBE1A" d="M20.109,8.411c-0.008,0.011-0.015,0.022-0.024,0.032c-0.415,0.473-0.83,0.945-1.246,1.418
		c-0.131,0.149-0.264,0.298-0.395,0.447c-0.021,0.024-0.042,0.033-0.074,0.033c-0.195-0.001-0.39-0.001-0.585-0.001
		c-1.446,0-2.892,0-4.338,0c-0.087,0-0.059,0.012-0.119-0.048c-0.626-0.626-1.252-1.252-1.878-1.878
		c-0.015-0.015-0.028-0.031-0.042-0.046c-0.003-0.006-0.007-0.01-0.013-0.013l0.001,0.001c-0.003-0.005-0.007-0.01-0.012-0.012
		l0.001,0.001c-0.003-0.005-0.007-0.009-0.012-0.012l0.001,0.001c-0.003-0.005-0.007-0.009-0.012-0.012l0.001,0.001
		c-0.003-0.005-0.007-0.009-0.012-0.012l0.001,0.001c-0.003-0.005-0.007-0.009-0.012-0.012l0,0.001
		c-0.009-0.019,0.001-0.029,0.017-0.035c0.014-0.006,0.03-0.008,0.045-0.007c0.155,0.006,0.309-0.015,0.463-0.011
		c0.223,0.005,0.446-0.019,0.669-0.012c0.029,0.001,0.057-0.001,0.085,0.004c0.04,0.011,0.062,0.043,0.086,0.072
		c0.276,0.344,0.551,0.69,0.829,1.033c0.052,0.064,0.058,0.067,0.136,0.042c0.283-0.093,0.567-0.184,0.851-0.275
		c0.46-0.148,0.92-0.298,1.381-0.446c0.039-0.012,0.075-0.01,0.112,0.001c0.375,0.107,0.751,0.211,1.126,0.317
		c0.403,0.114,0.806,0.228,1.209,0.34c0.049,0.014,0.073,0.001,0.097-0.04c0.168-0.285,0.345-0.564,0.515-0.848
		c0.018-0.029,0.032-0.062,0.071-0.07c0.011-0.002,0.023-0.003,0.034-0.003c0.254,0.005,0.507-0.02,0.761-0.012
		c0.073,0.003,0.144-0.018,0.217-0.01C20.101,8.342,20.117,8.361,20.109,8.411z"/>
	<path fill="#FF1803" d="M11.487,3.659c0.011-0.013,0.022-0.026,0.034-0.038c0.422-0.419,0.843-0.838,1.265-1.257
		c0.178-0.176,0.356-0.353,0.533-0.529c0.008-0.008,0.017-0.015,0.024-0.024c0.021-0.027,0.047-0.033,0.08-0.033
		c0.214,0.001,0.428,0.001,0.642,0.001c1.426,0,2.853,0,4.279,0c0.081,0,0.06-0.012,0.116,0.052c0.273,0.309,0.547,0.619,0.82,0.928
		c0.09,0.102,0.179,0.204,0.269,0.306c0.006,0.007,0.011,0.015,0.017,0.023c-0.018,0.029-0.048,0.027-0.076,0.029
		c-0.188,0.013-0.377,0.012-0.566,0.012c-0.084,0-0.167,0.01-0.25,0.019c-0.035,0.005-0.046-0.023-0.059-0.045
		c-0.043-0.07-0.084-0.141-0.132-0.218c-0.018,0.046-0.016,0.087-0.02,0.127c-0.028,0.268-0.054,0.536-0.083,0.803
		c-0.008,0.072-0.023,0.082-0.086,0.044c-0.278-0.168-0.556-0.337-0.835-0.504c-0.197-0.118-0.392-0.239-0.589-0.356
		c-0.037-0.022-0.075-0.035-0.119-0.034c-0.245,0.001-0.49-0.008-0.734,0.003c-0.241,0.011-0.482,0.004-0.722,0.009
		c-0.031,0.001-0.06,0.006-0.089,0.02c-0.23,0.114-0.461,0.223-0.692,0.334c-0.363,0.175-0.727,0.35-1.092,0.523
		c-0.061,0.029-0.081,0.017-0.088-0.053c-0.001-0.008-0.001-0.015-0.001-0.023c0.007-0.199-0.011-0.397-0.014-0.596
		c-0.002-0.131-0.007-0.262-0.015-0.394c-0.07,0.085-0.137,0.17-0.202,0.257c-0.148,0.195-0.295,0.391-0.445,0.584
		c-0.017,0.021-0.029,0.052-0.067,0.044c-0.039-0.014-0.078-0.018-0.118-0.01c-0.017,0.003-0.034,0.005-0.051,0.004
		c-0.283-0.007-0.565,0.018-0.848,0.012C11.544,3.677,11.512,3.684,11.487,3.659z"/>
	<path fill="#FE4F0B" d="M11.487,3.659c0.143,0,0.287,0.001,0.43,0.001c0.008,0,0.016,0.001,0.023-0.001
		c0.047-0.016,0.095-0.01,0.142-0.01c0.111-0.001,0.222,0,0.333,0c0.023,0,0.045-0.001,0.068-0.007
		c0.031-0.008,0.064-0.009,0.095,0.006c0.011,0.005,0.019,0.012,0.024,0.023c0,0-0.001,0.006-0.001,0.006
		c-0.001,0.004-0.003,0.007-0.005,0.01c0,0-0.003,0.005-0.003,0.005c-0.002,0.003-0.004,0.007-0.005,0.01
		c-0.001,0.004-0.003,0.007-0.006,0.01c-0.002,0.003-0.005,0.006-0.007,0.009c0,0-0.004,0.004-0.004,0.004
		c-0.002,0.003-0.005,0.006-0.008,0.008c0,0-0.003,0.004-0.003,0.004c-0.002,0.003-0.004,0.006-0.006,0.01
		c-0.002,0.004-0.004,0.007-0.006,0.01c-0.002,0.003-0.005,0.006-0.007,0.009c-0.001,0.001-0.003,0.003-0.004,0.004
		c-0.002,0.003-0.005,0.006-0.008,0.008c0,0-0.004,0.004-0.003,0.005c-0.002,0.003-0.004,0.007-0.006,0.01
		c-0.002,0.004-0.004,0.007-0.006,0.01c-0.002,0.003-0.005,0.006-0.008,0.009c-0.001,0.002-0.003,0.003-0.004,0.005
		c-0.003,0.003-0.005,0.007-0.008,0.01c-0.001,0.002-0.002,0.004-0.003,0.006c-0.003,0.007-0.005,0.013-0.008,0.02
		c-0.165,0.227-0.337,0.449-0.507,0.672c-0.204,0.269-0.407,0.539-0.613,0.807c-0.184,0.239-0.368,0.478-0.547,0.721
		c-0.009,0.012-0.016,0.028-0.036,0.015c-0.024-0.023-0.055-0.025-0.086-0.025c-0.29,0.004-0.581,0.008-0.871,0.021
		C9.741,6.067,9.656,6.066,9.572,6.064C9.459,6.061,9.347,6.076,9.235,6.075C9.177,6.074,9.197,6.12,9.181,6.144
		C9.147,6.119,9.12,6.086,9.09,6.057c-0.004-0.004-0.005-0.01-0.009-0.016C9.092,6.03,9.103,6.019,9.113,6.008
		c0.561-0.557,1.122-1.114,1.683-1.671c0.131-0.131,0.263-0.261,0.394-0.392c0.091-0.09,0.183-0.179,0.274-0.269
		C11.472,3.67,11.48,3.665,11.487,3.659z"/>
	<path fill="#FD8913" d="M9.181,6.144C9.185,6.124,9.17,6.112,9.163,6.097C9.154,6.075,9.164,6.06,9.188,6.059
		c0.027-0.001,0.054,0,0.08-0.001c0.028,0,0.057,0.001,0.085-0.008c0.016-0.005,0.034-0.003,0.051-0.003c0.13,0,0.26,0,0.39,0
		c0.025,0,0.049,0,0.074-0.008c0.016-0.005,0.034-0.003,0.051-0.003c0.132,0,0.264,0,0.396,0c0.023,0,0.045,0.001,0.068-0.008
		c0.012-0.004,0.026-0.004,0.04-0.004c0.103,0,0.206,0,0.31,0c0.004,0,0.008,0,0.011,0c0.024-0.001,0.041,0.006,0.046,0.032
		c0.001,0.005,0.007,0.009,0.01,0.013c0.025-0.006,0.032,0.015,0.044,0.029c0.141,0.161,0.274,0.328,0.414,0.49
		c0.221,0.256,0.435,0.517,0.653,0.775c0.165,0.195,0.329,0.392,0.493,0.588c0.07,0.084,0.141,0.166,0.209,0.251
		c0.011,0.013,0.033,0.024,0.019,0.047c-0.12,0-0.24,0-0.361,0c-0.023,0-0.045,0.001-0.068,0.007
		c-0.018,0.005-0.038,0.004-0.057,0.004c-0.128,0-0.256,0-0.383,0c-0.027,0-0.053-0.001-0.079,0.008
		c-0.014,0.005-0.03,0.003-0.045,0.003c-0.08,0-0.16,0-0.24,0c-0.013,0-0.027,0-0.04,0.001c-0.014,0.001-0.018,0.012-0.021,0.023
		c-0.032-0.021-0.058-0.049-0.085-0.076c-0.68-0.679-1.36-1.359-2.039-2.039C9.203,6.17,9.192,6.156,9.181,6.144z"/>
	<path fill="#FE630E" d="M21.131,4.864c0.03,0.024,0.052,0.055,0.078,0.084c0.317,0.358,0.633,0.717,0.95,1.075
		c0.009,0.01,0.017,0.02,0.024,0.029c-0.002,0.015-0.011,0.023-0.019,0.031c-0.119,0.135-0.237,0.27-0.356,0.405
		c-0.006,0.007-0.014,0.012-0.021,0.018c-0.084-0.007-0.168-0.01-0.252,0.002c-0.017,0.002-0.034,0.004-0.051,0.004
		c-0.285-0.008-0.569,0.016-0.854,0.013c-0.128-0.001-0.255,0.015-0.384,0.01c-0.027-0.001-0.054,0.001-0.08-0.004
		c-0.049-0.021-0.018-0.05-0.005-0.073c0.057-0.099,0.118-0.196,0.176-0.295c0.076-0.13,0.078-0.087,0.001-0.216
		c-0.127-0.213-0.258-0.423-0.384-0.637c-0.012-0.02-0.024-0.039-0.033-0.06c-0.003-0.006-0.006-0.013-0.009-0.02
		c-0.002-0.004-0.004-0.008-0.005-0.012c-0.002-0.004-0.003-0.007-0.005-0.011c-0.002-0.003-0.003-0.007-0.005-0.01
		c-0.002-0.005-0.005-0.01-0.008-0.015c-0.002-0.003-0.005-0.006-0.007-0.008c-0.003-0.003-0.005-0.006-0.006-0.009
		c-0.002-0.003-0.004-0.007-0.005-0.01c-0.002-0.003-0.004-0.007-0.005-0.01c-0.002-0.003-0.004-0.007-0.005-0.01
		c-0.002-0.003-0.004-0.007-0.006-0.01c-0.002-0.003-0.005-0.006-0.007-0.009c-0.003-0.003-0.005-0.006-0.007-0.009
		c-0.002-0.003-0.004-0.007-0.005-0.01c-0.002-0.003-0.004-0.006-0.006-0.009c0,0-0.003-0.004-0.004-0.004
		c-0.003-0.003-0.005-0.006-0.007-0.009c-0.002-0.003-0.004-0.006-0.005-0.01c-0.003-0.005-0.005-0.01-0.008-0.015
		c-0.002-0.003-0.004-0.006-0.005-0.01c-0.002-0.003-0.004-0.006-0.006-0.009c0,0-0.003-0.004-0.003-0.004
		c-0.003-0.003-0.005-0.006-0.007-0.009c-0.002-0.003-0.004-0.006-0.005-0.01c-0.003-0.005-0.005-0.01-0.008-0.015
		c-0.002-0.003-0.004-0.006-0.005-0.01c-0.002-0.003-0.004-0.006-0.006-0.009c0,0-0.003-0.004-0.003-0.004
		c-0.003-0.003-0.005-0.006-0.007-0.009c-0.002-0.003-0.004-0.006-0.005-0.01c-0.003-0.005-0.005-0.01-0.008-0.015
		c-0.002-0.003-0.004-0.006-0.005-0.01c-0.002-0.003-0.004-0.006-0.006-0.009c0,0-0.003-0.004-0.003-0.004
		c-0.003-0.003-0.005-0.006-0.007-0.009c-0.002-0.003-0.004-0.006-0.005-0.01c-0.003-0.005-0.005-0.01-0.008-0.015
		c-0.002-0.003-0.004-0.006-0.005-0.01c-0.002-0.003-0.004-0.006-0.006-0.009c0,0-0.003-0.004-0.003-0.004
		c-0.003-0.003-0.005-0.006-0.007-0.009c-0.002-0.003-0.004-0.006-0.005-0.01c-0.003-0.005-0.005-0.01-0.008-0.015
		c-0.002-0.003-0.004-0.006-0.005-0.01c-0.002-0.003-0.004-0.006-0.006-0.009c0,0-0.003-0.004-0.004-0.004
		c-0.003-0.003-0.005-0.006-0.007-0.009c-0.002-0.003-0.004-0.007-0.005-0.01c-0.003-0.005-0.005-0.01-0.008-0.015
		c-0.002-0.003-0.004-0.007-0.006-0.01c-0.002-0.003-0.005-0.007-0.007-0.01c-0.001-0.002-0.003-0.003-0.004-0.005
		c-0.003-0.004-0.006-0.008-0.008-0.012C19.604,4.72,19.602,4.716,19.6,4.711c-0.003-0.009-0.004-0.017-0.001-0.026
		c0.003-0.006,0.007-0.012,0.012-0.016c0.049-0.026,0.103-0.028,0.156-0.027c0.294,0.006,0.588-0.019,0.882-0.013
		c0.067,0.001,0.133-0.016,0.2-0.011c0.027,0.002,0.054,0,0.077,0.016l-0.001,0c0.001,0.007,0.005,0.011,0.012,0.013l-0.001-0.001
		c0.002,0.006,0.006,0.01,0.011,0.013l0,0c0.002,0.006,0.006,0.009,0.011,0.012l0,0c0.003,0.004,0.007,0.008,0.011,0.012
		l0.001,0.001c0.004,0.003,0.007,0.007,0.01,0.011l0.001,0.001c0.004,0.003,0.007,0.006,0.009,0.01l0.002,0.002
		C20.996,4.708,20.999,4.711,21,4.715c0.008,0.005,0.014,0.011,0.017,0.021c0.001,0.007,0.005,0.011,0.011,0.014l0-0.001
		c0.002,0.006,0.006,0.009,0.011,0.012l0,0c0.003,0.004,0.007,0.008,0.011,0.012l0,0.001c0.003,0.004,0.007,0.007,0.01,0.011
		l0.001,0.001c0.004,0.003,0.007,0.006,0.009,0.01l0.002,0.002c0.004,0.002,0.007,0.005,0.009,0.009l0.003,0.003
		c0.005,0,0.007,0.002,0.007,0.007c0.012,0.01,0.023,0.02,0.029,0.034C21.123,4.857,21.126,4.861,21.131,4.864z"/>
	<path fill="#FD9715" d="M20.143,6.517c0.107,0,0.214,0,0.321,0.001c0.01,0,0.02,0.002,0.028-0.001
		c0.041-0.015,0.083-0.01,0.125-0.01c0.099-0.001,0.199,0,0.298,0c0.044,0,0.088,0.004,0.131-0.01
		c0.014-0.005,0.03-0.002,0.046-0.002c0.13,0,0.26,0,0.39,0c0.023,0,0.046,0.001,0.068-0.007c0.01-0.004,0.022-0.004,0.034-0.004
		c0.052,0,0.103,0,0.155,0c0.02,0,0.038,0.003,0.048,0.024c0,0,0-0.001,0-0.001c-0.005,0.003-0.009,0.007-0.012,0.013l0.001-0.001
		c-0.006,0.003-0.01,0.007-0.012,0.013l0.001-0.001c-0.007,0.002-0.011,0.006-0.012,0.013l0.001-0.001
		c-0.011,0.002-0.008,0.015-0.016,0.019l-0.001,0.001c-0.003,0.005-0.006,0.008-0.01,0.011l0,0
		c-0.003,0.005-0.007,0.008-0.011,0.012l0,0c-0.004,0.004-0.008,0.008-0.011,0.013l0.001-0.001
		c-0.005,0.003-0.009,0.007-0.012,0.013l0.001-0.001c-0.006,0.003-0.01,0.007-0.012,0.013l0.001-0.001
		c-0.007,0.003-0.012,0.008-0.013,0.016c0,0.003-0.001,0.005-0.005,0.006c-0.001,0.005-0.004,0.008-0.009,0.01l-0.001,0.001
		c-0.002,0.005-0.006,0.008-0.01,0.011l0,0c-0.003,0.005-0.007,0.008-0.011,0.012l0,0c-0.004,0.004-0.008,0.008-0.011,0.012
		l0.001-0.001c-0.005,0.003-0.009,0.007-0.012,0.013l0.001-0.001c-0.005,0.003-0.01,0.007-0.012,0.013l0.001-0.001
		c-0.007,0.003-0.011,0.008-0.012,0.015c-0.011,0.013-0.021,0.027-0.032,0.04c-0.474,0.538-0.948,1.077-1.422,1.615
		c-0.009,0.01-0.015,0.022-0.029,0.027c0.001-0.018-0.003-0.034-0.018-0.046c-0.011-0.009-0.024-0.012-0.037-0.011
		c-0.044,0.002-0.088-0.005-0.131,0.009c-0.016,0.005-0.034,0.002-0.051,0.002c-0.13,0-0.26,0-0.39,0
		c-0.023,0-0.046-0.001-0.068,0.007c-0.012,0.004-0.026,0.004-0.04,0.004c-0.119,0-0.237,0-0.356-0.001
		c-0.016-0.033,0.011-0.054,0.025-0.076c0.223-0.365,0.442-0.732,0.665-1.097c0.131-0.215,0.259-0.432,0.393-0.646
		C20.111,6.54,20.116,6.515,20.143,6.517z"/>
	<path fill="#FE3D08" d="M20.927,4.633c-0.044,0.001-0.088,0.002-0.132,0.003c-0.015,0-0.032-0.003-0.046,0.001
		c-0.049,0.015-0.098,0.01-0.148,0.01c-0.109,0.001-0.218,0-0.327,0c-0.023,0-0.045,0-0.068,0.007
		c-0.018,0.005-0.038,0.005-0.057,0.005c-0.128,0-0.256,0.002-0.384-0.001c-0.046-0.001-0.09,0.015-0.136,0.014
		c-0.015,0-0.023,0.013-0.028,0.026c-0.02-0.001-0.029-0.016-0.038-0.031c-0.197-0.325-0.395-0.65-0.589-0.977
		c-0.003-0.007-0.005-0.014-0.008-0.02c-0.004-0.008-0.009-0.015-0.013-0.023c-0.003-0.005-0.006-0.011-0.009-0.017
		c-0.002-0.004-0.004-0.007-0.006-0.011c-0.003-0.005-0.006-0.01-0.01-0.015c-0.004-0.005-0.007-0.01-0.01-0.015
		c-0.003-0.005-0.006-0.01-0.009-0.016c-0.002-0.003-0.004-0.007-0.005-0.01c-0.002-0.005-0.005-0.01-0.008-0.015
		c-0.002-0.003-0.004-0.007-0.005-0.01c-0.002-0.003-0.004-0.006-0.006-0.009c0,0-0.003-0.005-0.004-0.004
		c-0.003-0.003-0.005-0.006-0.007-0.009c-0.002-0.003-0.004-0.007-0.006-0.01c-0.003-0.005-0.006-0.01-0.01-0.015
		c-0.004-0.005-0.007-0.01-0.01-0.015c-0.003-0.005-0.006-0.01-0.009-0.016c-0.002-0.003-0.004-0.007-0.005-0.011
		c-0.003-0.005-0.005-0.01-0.008-0.015c-0.002-0.003-0.004-0.007-0.006-0.01c-0.002-0.003-0.004-0.007-0.007-0.01
		c-0.001-0.002-0.003-0.003-0.004-0.005c-0.003-0.003-0.006-0.006-0.009-0.01c-0.004-0.005-0.008-0.01-0.011-0.016
		c-0.003-0.005-0.006-0.011-0.009-0.016c-0.002-0.003-0.004-0.007-0.006-0.01c-0.002-0.003-0.004-0.007-0.006-0.01
		c-0.001-0.001-0.002-0.003-0.004-0.005c-0.003-0.003-0.005-0.006-0.007-0.009c-0.002-0.003-0.004-0.007-0.005-0.01
		c-0.003-0.005-0.005-0.01-0.008-0.015c-0.002-0.003-0.004-0.007-0.005-0.01c-0.002-0.003-0.004-0.006-0.006-0.009
		c0,0-0.003-0.004-0.004-0.004c-0.003-0.003-0.005-0.006-0.007-0.009c-0.002-0.003-0.004-0.007-0.005-0.01
		c-0.003-0.005-0.005-0.01-0.008-0.015c-0.002-0.003-0.004-0.006-0.005-0.01c-0.002-0.003-0.004-0.006-0.006-0.009
		c0,0-0.003-0.004-0.003-0.004c-0.003-0.003-0.005-0.006-0.007-0.009c-0.002-0.003-0.004-0.006-0.005-0.01
		c-0.003-0.005-0.005-0.01-0.008-0.015c-0.002-0.003-0.004-0.007-0.005-0.01c-0.002-0.003-0.004-0.006-0.006-0.01
		c-0.001-0.002-0.002-0.003-0.004-0.005c-0.002-0.003-0.004-0.007-0.006-0.01c-0.001-0.004,0-0.008,0.003-0.011
		c0.007-0.015,0.018-0.024,0.035-0.025c0.019,0,0.038,0,0.057,0c0.027,0,0.053,0.001,0.079-0.008
		c0.016-0.005,0.034-0.003,0.051-0.003c0.131,0,0.263,0,0.394,0c0.023,0,0.045,0.001,0.068-0.007
		c0.014-0.005,0.03-0.004,0.045-0.004c0.032-0.001,0.065-0.001,0.097,0c0.027,0.001,0.053-0.003,0.078-0.012
		c0.012,0.008,0.022,0.018,0.027,0.032c0.002,0.006,0.006,0.011,0.012,0.014l-0.001-0.001c0.003,0.005,0.007,0.009,0.011,0.012l0,0
		c0.003,0.004,0.007,0.008,0.011,0.012l0.001,0.001c0.004,0.003,0.007,0.007,0.01,0.011l0.001,0.002
		c0.004,0.002,0.007,0.006,0.009,0.01l0.002,0.003c0.005,0,0.007,0.003,0.007,0.007c0.019,0.018,0.038,0.036,0.051,0.059
		c0.004,0.003,0.007,0.007,0.01,0.011l0.001,0.001c0.004,0.003,0.007,0.006,0.009,0.01l0.002,0.002
		c0.004,0.001,0.006,0.004,0.007,0.008c0.023,0.021,0.045,0.044,0.062,0.071c0.004,0.003,0.007,0.006,0.009,0.01l0.002,0.002
		c0.004,0.002,0.006,0.004,0.008,0.008c0.013,0.014,0.027,0.027,0.039,0.041c0.349,0.396,0.697,0.791,1.046,1.187
		C20.912,4.611,20.919,4.622,20.927,4.633z"/>
	<path fill="#FE630E" d="M21.738,6.562c0.001-0.01,0.004-0.018,0.016-0.019C21.752,6.552,21.747,6.558,21.738,6.562z"/>
	<path fill="#FE3D08" d="M20.938,4.645c-0.007-0.001-0.011-0.006-0.012-0.013C20.933,4.634,20.936,4.639,20.938,4.645z"/>
	<path fill="#FE3D08" d="M20.948,4.657c-0.007-0.002-0.01-0.006-0.011-0.013C20.943,4.647,20.947,4.651,20.948,4.657z"/>
	<path fill="#FE3D08" d="M20.959,4.669c-0.006-0.002-0.01-0.006-0.011-0.012C20.954,4.659,20.958,4.663,20.959,4.669z"/>
	<path fill="#FE3D08" d="M20.97,4.681c-0.004-0.004-0.007-0.008-0.011-0.012C20.965,4.671,20.969,4.675,20.97,4.681z"/>
	<path fill="#FE3D08" d="M20.98,4.693c-0.003-0.004-0.007-0.007-0.01-0.011C20.976,4.683,20.98,4.687,20.98,4.693z"/>
	<path fill="#FE3D08" d="M20.991,4.705c-0.003-0.003-0.006-0.007-0.009-0.01C20.987,4.695,20.99,4.699,20.991,4.705z"/>
	<path fill="#FE3D08" d="M21,4.715c-0.004-0.002-0.006-0.004-0.008-0.008C20.997,4.707,21,4.71,21,4.715z"/>
	<path fill="#FE3D08" d="M21.029,4.749c-0.007-0.002-0.011-0.007-0.011-0.014C21.024,4.738,21.028,4.742,21.029,4.749z"/>
	<path fill="#FE3D08" d="M21.04,4.761c-0.006-0.002-0.01-0.006-0.011-0.012C21.035,4.75,21.038,4.754,21.04,4.761z"/>
	<path fill="#FE3D08" d="M21.05,4.773c-0.006-0.002-0.009-0.006-0.011-0.012C21.046,4.762,21.049,4.766,21.05,4.773z"/>
	<path fill="#FE3D08" d="M21.061,4.785c-0.003-0.004-0.007-0.008-0.01-0.011C21.057,4.774,21.06,4.778,21.061,4.785z"/>
	<path fill="#FE3D08" d="M21.071,4.796c-0.003-0.003-0.006-0.007-0.009-0.01C21.068,4.787,21.071,4.79,21.071,4.796z"/>
	<path fill="#FE3D08" d="M21.082,4.808c-0.003-0.003-0.006-0.006-0.009-0.009C21.078,4.799,21.081,4.802,21.082,4.808z"/>
	<path fill="#FE3D08" d="M21.091,4.818c-0.003-0.001-0.005-0.004-0.007-0.007C21.089,4.811,21.091,4.813,21.091,4.818z"/>
	<path fill="#FE3D08" d="M21.131,4.864c-0.006-0.002-0.01-0.006-0.011-0.012C21.126,4.854,21.13,4.858,21.131,4.864z"/>
	<path fill="#FF1803" d="M19.605,3.132c-0.007-0.002-0.01-0.007-0.012-0.014C19.6,3.121,19.604,3.125,19.605,3.132z"/>
	<path fill="#FF1803" d="M19.616,3.144c-0.004-0.004-0.007-0.008-0.011-0.012C19.611,3.133,19.615,3.137,19.616,3.144z"/>
	<path fill="#FF1803" d="M19.626,3.155c-0.004-0.004-0.007-0.008-0.011-0.012C19.622,3.145,19.626,3.149,19.626,3.155z"/>
	<path fill="#FF1803" d="M19.637,3.167c-0.003-0.004-0.007-0.007-0.01-0.011C19.633,3.157,19.636,3.161,19.637,3.167z"/>
	<path fill="#FF1803" d="M19.647,3.179c-0.003-0.003-0.006-0.007-0.009-0.01C19.644,3.17,19.647,3.173,19.647,3.179z"/>
	<path fill="#FF1803" d="M19.657,3.189c-0.003-0.002-0.006-0.004-0.007-0.007C19.654,3.182,19.657,3.184,19.657,3.189z"/>
	<path fill="#FF1803" d="M19.718,3.259c-0.003-0.004-0.007-0.007-0.01-0.011C19.714,3.249,19.717,3.252,19.718,3.259z"/>
	<path fill="#FF1803" d="M19.728,3.27c-0.003-0.003-0.006-0.007-0.009-0.01C19.724,3.261,19.728,3.265,19.728,3.27z"/>
	<path fill="#FF1803" d="M19.737,3.28c-0.003-0.002-0.006-0.004-0.008-0.008C19.735,3.273,19.737,3.275,19.737,3.28z"/>
	<path fill="#FE630E" d="M21.774,6.519c0.001-0.007,0.005-0.011,0.012-0.013C21.785,6.513,21.781,6.517,21.774,6.519z"/>
	<path fill="#FE630E" d="M21.763,6.531c0.001-0.007,0.005-0.012,0.012-0.013C21.774,6.525,21.77,6.53,21.763,6.531z"/>
	<path fill="#FE630E" d="M21.753,6.543c0-0.008,0.005-0.012,0.012-0.013C21.764,6.537,21.76,6.542,21.753,6.543z"/>
	<path fill="#FF1803" d="M19.809,3.362c-0.003-0.003-0.006-0.007-0.009-0.01C19.805,3.353,19.808,3.356,19.809,3.362z"/>
	<path fill="#FE630E" d="M21.727,6.574c0.003-0.004,0.007-0.008,0.01-0.011C21.737,6.569,21.733,6.573,21.727,6.574z"/>
	<path fill="#FE630E" d="M21.716,6.586c0.004-0.004,0.007-0.008,0.011-0.012C21.726,6.581,21.722,6.585,21.716,6.586z"/>
	<path fill="#FE630E" d="M21.705,6.598c0.001-0.006,0.005-0.01,0.011-0.013C21.715,6.593,21.712,6.597,21.705,6.598z"/>
	<path fill="#FE630E" d="M21.694,6.611c0.001-0.007,0.005-0.011,0.012-0.013C21.704,6.605,21.701,6.609,21.694,6.611z"/>
	<path fill="#FE630E" d="M21.683,6.623c0.001-0.007,0.005-0.011,0.012-0.013C21.694,6.617,21.69,6.621,21.683,6.623z"/>
	<path fill="#FE630E" d="M21.671,6.637c0.001-0.008,0.005-0.013,0.013-0.016C21.683,6.629,21.678,6.634,21.671,6.637z"/>
	<path fill="#FF1803" d="M19.818,3.372c-0.004-0.002-0.006-0.004-0.008-0.008C19.815,3.365,19.818,3.367,19.818,3.372z"/>
	<path fill="#FE630E" d="M21.658,6.653c0.003-0.003,0.006-0.006,0.009-0.01C21.666,6.649,21.663,6.652,21.658,6.653z"/>
	<path fill="#FE630E" d="M21.635,6.678c0.004-0.004,0.007-0.008,0.011-0.012C21.645,6.672,21.642,6.676,21.635,6.678z"/>
	<path fill="#FE630E" d="M21.624,6.69c0.004-0.004,0.007-0.008,0.011-0.012C21.635,6.684,21.631,6.689,21.624,6.69z"/>
	<path fill="#FE630E" d="M21.613,6.702c0.001-0.007,0.005-0.011,0.012-0.013C21.624,6.696,21.62,6.701,21.613,6.702z"/>
	<path fill="#FE630E" d="M21.602,6.715c0.001-0.007,0.005-0.011,0.012-0.013C21.613,6.708,21.609,6.713,21.602,6.715z"/>
	<path fill="#FE630E" d="M21.591,6.729c0.001-0.008,0.005-0.013,0.012-0.015C21.602,6.721,21.598,6.726,21.591,6.729z"/>
	<path fill="#FD8913" d="M11.339,8.296c0.007,0.002,0.011,0.006,0.012,0.012C11.344,8.308,11.34,8.303,11.339,8.296z"/>
	<path fill="#FD8913" d="M11.35,8.308c0.007,0.002,0.011,0.006,0.012,0.012C11.355,8.319,11.351,8.315,11.35,8.308z"/>
	<path fill="#FD8913" d="M11.362,8.319c0.007,0.002,0.011,0.006,0.012,0.012C11.367,8.33,11.363,8.326,11.362,8.319z"/>
	<path fill="#FE630E" d="M21.646,6.665c0.003-0.004,0.007-0.008,0.01-0.011C21.656,6.661,21.653,6.664,21.646,6.665z"/>
	<path fill="#FD8913" d="M11.385,8.342c0.007,0.002,0.011,0.006,0.012,0.012C11.39,8.353,11.386,8.349,11.385,8.342z"/>
	<path fill="#FD8913" d="M11.396,8.354c0.007,0.002,0.011,0.006,0.013,0.013C11.402,8.365,11.397,8.361,11.396,8.354z"/>
	<path fill="#FD8913" d="M11.373,8.331c0.007,0.002,0.011,0.006,0.012,0.012C11.378,8.342,11.374,8.338,11.373,8.331z"/>
	<path fill="#FCC21B" d="M1.963,2.321C1.956,2.327,1.949,2.334,1.942,2.339C1.806,2.431,1.67,2.523,1.534,2.615
		C1.521,2.624,1.508,2.631,1.496,2.639c-0.016-0.014-0.01-0.03-0.01-0.044c0-0.223,0-0.447,0-0.67c0-0.124,0-0.248,0-0.372
		c0-0.015,0-0.031,0.001-0.046c0.001-0.008,0.007-0.013,0.015-0.015c0.004-0.001,0.008-0.001,0.011-0.001
		c0.113,0.002,0.225,0.003,0.338,0.005c0.021,0.004,0.042,0.002,0.063,0.002C1.972,1.498,1.98,1.503,1.98,1.563
		c0.001,0.223,0.002,0.446,0,0.669C1.979,2.262,1.977,2.293,1.963,2.321z"/>
	<path fill="#FD9515" d="M1.963,2.321C1.958,2.306,1.948,2.291,1.956,2.272c0.01-0.02,0.006-0.041,0.006-0.062
		c0-0.213,0-0.426,0-0.639c0-0.004,0-0.008,0-0.011c0-0.056,0-0.056-0.057-0.057C1.888,1.502,1.868,1.509,1.851,1.495
		c0.044-0.001,0.088-0.002,0.131-0.002C2.104,1.495,2.226,1.498,2.348,1.5c0.009,0,0.019,0.002,0.028,0.003
		C2.391,1.52,2.393,1.541,2.393,1.562c0,0.133,0.002,0.266-0.001,0.398C2.392,1.988,2.391,2.017,2.376,2.043l0,0
		C2.373,2.046,2.368,2.049,2.364,2.052C2.355,2.059,2.347,2.066,2.337,2.073C2.224,2.149,2.111,2.226,1.998,2.302
		C1.987,2.309,1.975,2.315,1.963,2.321z"/>
	<path fill="#FD6F0F" d="M2.376,2.043c-0.003-0.02-0.011-0.039-0.002-0.061c0.006-0.015,0.002-0.034,0.002-0.051
		c0-0.143,0.001-0.285,0.001-0.428C2.39,1.502,2.403,1.5,2.417,1.5c0.239,0.002,0.478,0.004,0.717,0.006
		c0.007,0,0.015,0.001,0.022,0.001c0.005,0.017-0.01,0.02-0.018,0.026C3.036,1.601,2.935,1.67,2.833,1.738
		C2.697,1.83,2.561,1.922,2.425,2.014C2.409,2.025,2.395,2.038,2.376,2.043z"/>
	<path fill="#FD6F0F" d="M2.364,2.052c0.004-0.003,0.008-0.006,0.012-0.009C2.375,2.049,2.371,2.052,2.364,2.052z"/>
	<path fill="#FCCB1C" d="M29.815,1.496c0.025-0.001,0.05-0.002,0.074-0.003c0.014,0,0.021,0.008,0.021,0.021
		c0,0.011,0,0.023,0,0.034c0,0.349,0,0.699,0,1.048c0,0.013,0,0.027,0,0.039C29.905,2.638,29.9,2.641,29.898,2.64
		c-0.104-0.067-0.208-0.135-0.308-0.209c-0.019-0.024-0.019-0.053-0.019-0.082c0-0.256-0.001-0.512,0-0.768
		c0-0.08,0.005-0.083,0.084-0.084C29.708,1.497,29.762,1.499,29.815,1.496z"/>
	<path fill="#FDAA18" d="M29.815,1.496c-0.009,0.009-0.021,0.007-0.032,0.007c-0.05,0-0.099,0-0.149,0.001
		c-0.042,0.001-0.043,0.002-0.044,0.047c0,0.004,0,0.008,0,0.011c0,0.28,0,0.561,0,0.841c0,0.01,0,0.019,0.001,0.029
		c-0.01-0.005-0.02-0.01-0.029-0.016c-0.093-0.062-0.186-0.125-0.278-0.188c-0.009-0.006-0.018-0.014-0.026-0.021
		c-0.025-0.02-0.029-0.048-0.029-0.077c-0.001-0.187-0.001-0.374,0-0.56c0-0.023,0.001-0.046,0.018-0.065
		c0.006-0.001,0.011-0.002,0.017-0.002c0.177-0.003,0.354-0.005,0.531-0.008C29.8,1.493,29.808,1.495,29.815,1.496z"/>
	<path fill="#FD8613" d="M29.245,1.504c0,0.21,0.001,0.42,0.001,0.629c0,0.025-0.001,0.05,0.011,0.073
		c-0.011-0.006-0.024-0.012-0.034-0.019c-0.112-0.075-0.223-0.151-0.335-0.226c-0.008-0.005-0.014-0.012-0.022-0.018
		c-0.01-0.019-0.015-0.039-0.016-0.06c-0.002-0.108-0.001-0.216,0-0.324c0-0.019,0.001-0.038,0.016-0.053
		c0.096-0.002,0.192-0.003,0.288-0.004C29.184,1.501,29.215,1.503,29.245,1.504z"/>
	<path fill="#FD5E0D" d="M28.866,1.506c0,0.11,0,0.22,0.001,0.33c0,0.028-0.002,0.057,0.004,0.085
		c0.001,0.006-0.003,0.014-0.005,0.022c-0.021-0.012-0.044-0.024-0.064-0.037c-0.177-0.119-0.355-0.239-0.532-0.359
		c-0.011-0.007-0.024-0.012-0.029-0.024c-0.001-0.01,0.007-0.009,0.012-0.009c0.201-0.008,0.401-0.006,0.602-0.008
		C28.858,1.504,28.862,1.505,28.866,1.506z"/>
	<path fill="#FCC21B" d="M1.492,10.281c-0.013-0.019-0.006-0.041-0.006-0.061c-0.001-0.274,0-0.549,0-0.823c0-0.059,0-0.118,0-0.177
		c0-0.011-0.004-0.023,0.005-0.032C1.5,9.183,1.505,9.189,1.511,9.194c0.094,0.078,0.188,0.155,0.282,0.233
		C1.797,9.431,1.8,9.436,1.804,9.44c0.017,0.016,0.017,0.037,0.017,0.058c-0.002,0.235,0,0.469-0.001,0.704
		c0,0.019,0,0.038-0.005,0.057c-0.004,0.016-0.013,0.027-0.032,0.027C1.686,10.283,1.589,10.293,1.492,10.281z"/>
	<path fill="#FDA216" d="M1.492,10.281c0.08,0,0.16,0,0.241,0c0.015,0,0.031,0,0.046-0.001c0.013-0.001,0.021-0.008,0.022-0.021
		c0.001-0.017,0.001-0.034,0.001-0.052c0-0.223,0-0.447,0-0.67c0-0.032,0.001-0.064,0.002-0.096C1.81,9.444,1.817,9.447,1.823,9.452
		c0.1,0.082,0.199,0.164,0.299,0.247c0.006,0.005,0.01,0.011,0.015,0.016C2.154,9.74,2.154,9.769,2.154,9.797
		c0,0.137,0.001,0.273,0,0.41c0,0.092-0.008,0.098-0.104,0.086c-0.009,0.001-0.019,0.003-0.028,0.003
		c-0.164-0.002-0.329-0.003-0.493-0.006C1.516,10.29,1.501,10.296,1.492,10.281z"/>
	<path fill="#FD7310" d="M2.05,10.293c0.021-0.001,0.042-0.002,0.063-0.003c0.013-0.001,0.021-0.008,0.022-0.022
		c0.001-0.015,0.001-0.03,0.001-0.046c0-0.147,0-0.293,0-0.44c0-0.023,0.002-0.046,0.003-0.068C2.148,9.722,2.16,9.729,2.17,9.738
		c0.216,0.178,0.433,0.357,0.649,0.536c0.011,0.009,0.027,0.015,0.029,0.033c-0.003,0.001-0.006,0.004-0.009,0.004
		C2.594,10.307,2.35,10.303,2.106,10.3C2.087,10.299,2.068,10.303,2.05,10.293z"/>
	<path fill="#FCBB1A" d="M29.497,9.523c0.007-0.007,0.013-0.014,0.02-0.02c0.119-0.099,0.239-0.197,0.358-0.296
		c0.008-0.007,0.015-0.017,0.028-0.018c0.011,0.003,0.008,0.012,0.008,0.019c0,0.348,0,0.696,0,1.044c0,0.008,0,0.015-0.001,0.023
		c-0.001,0.011-0.007,0.017-0.018,0.018c-0.002,0-0.004,0-0.006,0c-0.105,0-0.21,0.001-0.315,0.001
		c-0.022,0.006-0.044,0.008-0.065-0.002c-0.016-0.021-0.015-0.047-0.015-0.071c-0.001-0.215,0.001-0.431-0.001-0.646
		C29.49,9.556,29.493,9.539,29.497,9.523z"/>
	<path fill="#FD9314" d="M29.497,9.523c0.016,0.022,0.013,0.047,0.013,0.072c0,0.211,0,0.422,0,0.632
		c0,0.021,0.001,0.042,0.001,0.063c-0.046,0.018-0.093,0.008-0.14,0.007c-0.062-0.001-0.14,0.028-0.182-0.012
		c-0.047-0.045-0.016-0.127-0.019-0.192c-0.004-0.085,0.002-0.171-0.004-0.256c-0.001-0.018,0.001-0.034,0.009-0.05l0.001-0.001
		c0.004-0.003,0.008-0.006,0.011-0.009l0.002-0.001c0.002-0.004,0.006-0.007,0.01-0.009l0.003-0.002
		c0-0.005,0.002-0.007,0.007-0.006C29.303,9.677,29.397,9.596,29.497,9.523z"/>
	<path fill="#FD6F0F" d="M29.176,9.787c0.016,0.052,0.012,0.105,0.012,0.158c0,0.093,0,0.187,0,0.28c0,0.013,0,0.027,0.001,0.04
		c0.001,0.018,0.007,0.023,0.024,0.025c0.002,0,0.004,0,0.006,0c0.097-0.001,0.194-0.001,0.292-0.002
		c0.02,0.001,0.04,0.003,0.061,0.004c-0.02,0.01-0.041,0.006-0.062,0.006c-0.128,0.002-0.256,0.003-0.384,0.005
		c-0.174,0.003-0.347,0.006-0.521,0.008c-0.019,0-0.038,0-0.057,0c-0.004-0.019,0.012-0.023,0.021-0.031
		c0.141-0.117,0.283-0.233,0.424-0.349c0.046-0.038,0.091-0.076,0.137-0.113C29.145,9.809,29.161,9.798,29.176,9.787z"/>
	<path fill="#FD6F0F" d="M29.21,9.758c-0.001,0.003-0.004,0.005-0.007,0.006C29.203,9.76,29.205,9.758,29.21,9.758z"/>
	<path fill="#FD6F0F" d="M29.2,9.767c-0.003,0.003-0.007,0.006-0.01,0.009C29.19,9.77,29.194,9.767,29.2,9.767z"/>
	<path fill="#FD6F0F" d="M29.188,9.777c-0.004,0.003-0.008,0.006-0.011,0.009C29.178,9.78,29.181,9.777,29.188,9.777z"/>
	<path d="M18.788,3.354c0,0.004,0.001,0.007,0.004,0.008c0.002,0.004,0.005,0.008,0.008,0.012c0.001,0.01,0.008,0.016,0.015,0.022
		c0.002,0.004,0.005,0.008,0.008,0.011l0,0c0.005,0.005,0.009,0.009,0.01,0.016c-0.001,0.003,0,0.006,0.003,0.007
		c0.003,0.005,0.007,0.008,0.009,0.014c0,0.004,0.001,0.007,0.004,0.01c0.002,0.004,0.004,0.008,0.008,0.011
		c0.001,0.01,0.007,0.017,0.014,0.023c0.003,0.004,0.006,0.009,0.008,0.013c0,0.004,0.001,0.007,0.005,0.01
		c0.002,0.004,0.004,0.008,0.008,0.011l0,0c0.005,0.005,0.009,0.009,0.01,0.016c-0.001,0.003,0.001,0.006,0.004,0.008
		c0.003,0.004,0.006,0.009,0.008,0.013c0.002,0.003,0.003,0.007,0.005,0.01c0.001,0.004,0.004,0.008,0.008,0.01
		c0.001,0.01,0.007,0.017,0.014,0.024c0.003,0.004,0.005,0.008,0.008,0.013c0.002,0.003,0.003,0.007,0.005,0.01
		c0.001,0.004,0.004,0.007,0.007,0.01c0.001,0.01,0.007,0.018,0.014,0.025c0.003,0.004,0.005,0.008,0.008,0.012
		c0.035,0.061,0.07,0.122,0.107,0.183c0.162,0.268,0.324,0.536,0.486,0.804c0.008,0.013,0.014,0.028,0.026,0.037
		c0,0.003,0.001,0.006,0.004,0.007c0.003,0.005,0.007,0.009,0.009,0.014c-0.001,0.004,0.001,0.007,0.004,0.009
		c0.002,0.005,0.004,0.008,0.008,0.011l0,0c0.005,0.005,0.009,0.01,0.01,0.016c-0.001,0.003,0,0.005,0.003,0.007
		c0.002,0.005,0.006,0.009,0.009,0.014c-0.001,0.004,0.001,0.007,0.004,0.009c0.001,0.005,0.004,0.008,0.008,0.011l0,0
		c0.004,0.005,0.009,0.009,0.01,0.016c-0.001,0.003,0.001,0.006,0.004,0.007c0.002,0.005,0.006,0.009,0.009,0.014
		c0,0.004,0.001,0.007,0.004,0.01c0.001,0.004,0.004,0.008,0.008,0.011l0,0c0.004,0.005,0.009,0.009,0.01,0.016
		c-0.001,0.003,0.001,0.006,0.004,0.007c0.003,0.005,0.005,0.009,0.008,0.013c0,0.004,0.001,0.007,0.005,0.01
		c0.001,0.005,0.004,0.008,0.008,0.011l0,0c0.004,0.005,0.008,0.009,0.01,0.016c-0.001,0.003,0.001,0.006,0.004,0.008
		c0.003,0.005,0.005,0.009,0.008,0.013c0.002,0.003,0.003,0.007,0.005,0.01c0.001,0.005,0.004,0.008,0.008,0.01l0,0.001
		c0.004,0.005,0.008,0.009,0.01,0.016c-0.001,0.004,0.001,0.006,0.004,0.008C19.781,4.996,19.784,5,19.787,5.004
		c0.002,0.004,0.003,0.007,0.005,0.011c0.001,0.004,0.003,0.008,0.007,0.01l0,0.001c0.004,0.005,0.008,0.009,0.009,0.015
		c0,0.004,0.001,0.006,0.004,0.008c0.002,0.004,0.005,0.009,0.008,0.012c0.002,0.004,0.004,0.007,0.005,0.011
		c0.001,0.005,0.003,0.008,0.007,0.01l0,0.001c0.003,0.005,0.008,0.009,0.009,0.015c0,0.004,0.001,0.007,0.004,0.009
		c0.002,0.004,0.005,0.008,0.008,0.012l0,0c0.007,0.005,0.004,0.017,0.013,0.021l0,0.001c0.003,0.005,0.007,0.009,0.009,0.015
		c0,0.004,0.001,0.007,0.004,0.009c0.002,0.004,0.005,0.008,0.008,0.011l0,0c0.007,0.005,0.004,0.017,0.013,0.021l0.001,0.001
		c0.003,0.005,0.007,0.009,0.009,0.015c0,0.004,0.001,0.007,0.004,0.009c0.002,0.004,0.005,0.008,0.008,0.011
		c0.026,0.057,0.062,0.109,0.095,0.163c0.123,0.205,0.246,0.409,0.37,0.613c0.005,0.008,0.009,0.017,0.015,0.024
		c0.012,0.016,0.009,0.031-0.001,0.047c-0.053,0.086-0.105,0.173-0.157,0.26c-0.032,0.052-0.063,0.105-0.095,0.157
		c-0.004,0.006-0.006,0.014-0.009,0.021c-0.028,0.045-0.058,0.09-0.085,0.135C19.719,7.211,19.38,7.77,19.041,8.33
		c-0.009,0.014-0.021,0.027-0.023,0.045c-0.028,0.032-0.046,0.07-0.068,0.106c-0.168,0.275-0.336,0.551-0.504,0.827
		c-0.035,0.057-0.026,0.046-0.08,0.031c-0.673-0.189-1.346-0.378-2.019-0.568C16.232,8.739,16.116,8.708,16,8.674
		c-0.033-0.01-0.062-0.009-0.094,0.002c-0.37,0.121-0.741,0.24-1.112,0.36c-0.385,0.124-0.771,0.249-1.156,0.373
		c-0.061,0.02-0.049,0.026-0.094-0.029c-0.287-0.358-0.574-0.715-0.862-1.073c-0.016-0.019-0.033-0.037-0.049-0.056
		c-0.009-0.012-0.017-0.025-0.027-0.036c-0.429-0.511-0.857-1.022-1.287-1.533c-0.164-0.195-0.328-0.388-0.492-0.583
		c-0.009-0.01-0.018-0.019-0.028-0.029C10.8,6.06,10.798,6.05,10.804,6.042c0.009-0.012,0.018-0.024,0.028-0.037
		c0.142-0.187,0.284-0.375,0.426-0.562c0.396-0.52,0.791-1.04,1.187-1.561c0.011-0.015,0.022-0.031,0.032-0.047
		c0.002-0.006,0.006-0.011,0.011-0.015l0,0c0.003-0.004,0.008-0.008,0.01-0.013l0.001-0.001c0.004-0.002,0.007-0.005,0.008-0.01
		c0.003-0.001,0.005-0.004,0.005-0.008c0.002-0.007,0.006-0.011,0.011-0.015l-0.001,0.001c0.003-0.005,0.007-0.008,0.01-0.013
		l0-0.001c0.004-0.002,0.007-0.006,0.009-0.01c0.003-0.001,0.005-0.004,0.005-0.007c0.001-0.007,0.006-0.012,0.011-0.016
		L12.557,3.73c0.003-0.005,0.007-0.008,0.01-0.013l0,0c0.004-0.003,0.007-0.006,0.009-0.011c0.003-0.001,0.005-0.003,0.004-0.007
		c0.001-0.007,0.006-0.012,0.012-0.016l-0.001,0.001c0.002-0.005,0.007-0.008,0.01-0.013c0,0,0,0,0,0
		c0.012-0.014,0.025-0.028,0.037-0.043c0.212-0.278,0.423-0.557,0.635-0.836c0.009-0.012,0.019-0.024,0.028-0.036
		c0.004-0.005,0.008-0.008,0.014-0.006c0.007,0.003,0.005,0.009,0.006,0.015c0.001,0.01,0.001,0.019,0.001,0.029
		c0.001,0.032,0.001,0.065,0.002,0.097c0.005,0.176,0.01,0.352,0.015,0.527c0.004,0.122,0.008,0.245,0.012,0.367
		c0.001,0.025,0.001,0.049,0.007,0.072c0.017,0.005,0.028-0.005,0.039-0.01c0.067-0.032,0.135-0.064,0.202-0.096
		c0.345-0.165,0.689-0.331,1.034-0.496c0.189-0.091,0.379-0.182,0.568-0.274c0.03-0.015,0.06-0.022,0.093-0.022
		c0.199,0,0.398-0.001,0.597-0.003c0.291-0.002,0.581-0.005,0.872-0.008c0.036,0,0.066,0.007,0.097,0.026
		c0.477,0.29,0.955,0.578,1.432,0.867c0.015,0.009,0.029,0.018,0.045,0.026c0.014,0.007,0.022,0.003,0.024-0.012
		c0.005-0.046,0.009-0.091,0.014-0.137c0.01-0.101,0.021-0.201,0.031-0.302c0.009-0.087,0.018-0.175,0.026-0.262
		c0.009-0.089,0.017-0.179,0.026-0.268c0.001-0.013,0.001-0.027,0.012-0.037c0.015,0.004,0.019,0.018,0.025,0.029
		c0.043,0.07,0.085,0.141,0.128,0.211c0.012,0.019,0.025,0.038,0.038,0.057c0,0.004,0.001,0.008,0.005,0.01
		c0.001,0.004,0.004,0.008,0.008,0.01l0,0c0.004,0.005,0.009,0.009,0.01,0.016c-0.001,0.003,0.001,0.006,0.004,0.008
		c0.003,0.004,0.005,0.009,0.008,0.013c0.002,0.003,0.003,0.007,0.005,0.01c0.001,0.004,0.004,0.008,0.008,0.01l0,0.001
		c0.004,0.005,0.008,0.009,0.01,0.016c-0.001,0.004,0.001,0.006,0.004,0.008c0.003,0.004,0.005,0.009,0.008,0.013
		c0.002,0.003,0.003,0.007,0.005,0.01c0.001,0.004,0.004,0.008,0.007,0.01l0,0.001c0.004,0.005,0.008,0.009,0.01,0.015
		c-0.001,0.004,0.001,0.006,0.004,0.008c0.002,0.004,0.005,0.009,0.008,0.013c0.002,0.004,0.003,0.007,0.005,0.011
		c0.001,0.004,0.003,0.008,0.007,0.01l0,0.001C18.782,3.344,18.786,3.348,18.788,3.354z"/>
	<path fill="#FF1803" d="M12.602,3.671c-0.001,0.007-0.004,0.011-0.01,0.013C12.595,3.68,12.599,3.676,12.602,3.671z"/>
	<path fill="#FF1803" d="M12.593,3.684c-0.001,0.008-0.005,0.013-0.012,0.016C12.582,3.692,12.585,3.687,12.593,3.684z"/>
	<path fill="#FF1803" d="M12.577,3.706c0,0.006-0.003,0.009-0.009,0.011C12.571,3.713,12.574,3.71,12.577,3.706z"/>
	<path fill="#FF1803" d="M12.567,3.717c-0.001,0.007-0.004,0.011-0.01,0.013C12.561,3.726,12.564,3.722,12.567,3.717z"/>
	<path fill="#FF1803" d="M12.558,3.729c-0.001,0.007-0.005,0.012-0.011,0.016C12.547,3.738,12.551,3.732,12.558,3.729z"/>
	<path fill="#FF1803" d="M12.542,3.752c0,0.006-0.003,0.009-0.009,0.01C12.536,3.759,12.539,3.756,12.542,3.752z"/>
	<path fill="#FF1803" d="M12.533,3.763c-0.001,0.006-0.004,0.011-0.01,0.013C12.526,3.772,12.529,3.767,12.533,3.763z"/>
	<path fill="#FF1803" d="M12.523,3.775c-0.001,0.007-0.005,0.012-0.011,0.015C12.513,3.783,12.516,3.778,12.523,3.775z"/>
	<path fill="#FF1803" d="M12.507,3.798c0,0.005-0.003,0.008-0.008,0.01C12.501,3.805,12.504,3.801,12.507,3.798z"/>
	<path fill="#FF1803" d="M12.498,3.809c-0.001,0.006-0.004,0.011-0.01,0.013C12.491,3.817,12.495,3.813,12.498,3.809z"/>
	<path fill="#FF1803" d="M12.488,3.821c-0.001,0.007-0.005,0.012-0.011,0.015C12.478,3.829,12.482,3.824,12.488,3.821z"/>
	<path fill="#FE3D08" d="M19.869,5.139c-0.008-0.005-0.012-0.012-0.013-0.021C19.865,5.122,19.868,5.13,19.869,5.139z"/>
	<path fill="#FE3D08" d="M19.903,5.196c-0.008-0.005-0.012-0.012-0.013-0.021C19.9,5.179,19.902,5.187,19.903,5.196z"/>
	<path fill="#FE3D08" d="M19.615,4.719c-0.006-0.003-0.009-0.008-0.009-0.014C19.609,4.709,19.612,4.714,19.615,4.719z"/>
	<path fill="#FE3D08" d="M19.627,4.739c-0.005-0.002-0.008-0.005-0.008-0.011C19.622,4.731,19.624,4.735,19.627,4.739z"/>
	<path fill="#FE3D08" d="M19.637,4.755c-0.006-0.004-0.01-0.009-0.01-0.016C19.634,4.742,19.637,4.748,19.637,4.755z"/>
	<path fill="#FE3D08" d="M19.649,4.776c-0.006-0.003-0.009-0.007-0.009-0.014C19.643,4.766,19.646,4.771,19.649,4.776z"/>
	<path fill="#FE3D08" d="M19.662,4.796c-0.005-0.002-0.008-0.005-0.008-0.011C19.656,4.789,19.659,4.792,19.662,4.796z"/>
	<path fill="#FE3D08" d="M19.672,4.812c-0.006-0.003-0.01-0.009-0.01-0.016C19.668,4.799,19.671,4.805,19.672,4.812z"/>
	<path fill="#FE3D08" d="M19.684,4.833c-0.006-0.003-0.009-0.007-0.009-0.014C19.678,4.824,19.681,4.828,19.684,4.833z"/>
	<path fill="#FE3D08" d="M19.696,4.853c-0.005-0.002-0.008-0.005-0.008-0.011C19.691,4.846,19.693,4.849,19.696,4.853z"/>
	<path fill="#FE3D08" d="M19.706,4.869c-0.006-0.003-0.01-0.009-0.01-0.016C19.702,4.857,19.706,4.862,19.706,4.869z"/>
	<path fill="#FE3D08" d="M19.718,4.89c-0.006-0.003-0.009-0.007-0.008-0.013C19.713,4.881,19.715,4.886,19.718,4.89z"/>
	<path fill="#FE3D08" d="M19.731,4.91c-0.005-0.002-0.008-0.005-0.008-0.011C19.725,4.903,19.728,4.907,19.731,4.91z"/>
	<path fill="#FE3D08" d="M19.74,4.926c-0.006-0.003-0.01-0.009-0.01-0.016C19.737,4.914,19.74,4.919,19.74,4.926z"/>
	<path fill="#FE3D08" d="M19.753,4.947c-0.006-0.003-0.009-0.007-0.008-0.013C19.747,4.938,19.75,4.943,19.753,4.947z"/>
	<path fill="#FE3D08" d="M19.765,4.967c-0.005-0.002-0.008-0.005-0.008-0.01C19.76,4.961,19.763,4.964,19.765,4.967z"/>
	<path fill="#FE3D08" d="M19.775,4.984c-0.006-0.003-0.009-0.008-0.01-0.016C19.771,4.971,19.775,4.977,19.775,4.984z"/>
	<path fill="#FE3D08" d="M19.787,5.004c-0.006-0.002-0.009-0.006-0.008-0.013C19.782,4.996,19.784,5,19.787,5.004z"/>
	<path fill="#FE3D08" d="M19.8,5.025c-0.005-0.002-0.008-0.005-0.007-0.01C19.795,5.018,19.797,5.021,19.8,5.025z"/>
	<path fill="#FE3D08" d="M19.809,5.041C19.803,5.037,19.8,5.032,19.8,5.025C19.806,5.029,19.809,5.034,19.809,5.041z"/>
	<path fill="#FE3D08" d="M19.822,5.061c-0.006-0.002-0.009-0.006-0.008-0.012C19.816,5.053,19.819,5.057,19.822,5.061z"/>
	<path fill="#FE3D08" d="M19.834,5.082c-0.005-0.001-0.007-0.004-0.007-0.01C19.829,5.075,19.832,5.078,19.834,5.082z"/>
	<path fill="#FE3D08" d="M19.844,5.098c-0.006-0.003-0.009-0.008-0.009-0.015C19.84,5.086,19.843,5.091,19.844,5.098z"/>
	<path fill="#FE3D08" d="M19.856,5.118c-0.006-0.002-0.009-0.006-0.008-0.012C19.851,5.11,19.853,5.114,19.856,5.118z"/>
	<path fill="#FE3D08" d="M19.878,5.155c-0.006-0.003-0.009-0.008-0.009-0.015C19.872,5.145,19.875,5.15,19.878,5.155z"/>
	<path fill="#FE3D08" d="M19.891,5.175c-0.005-0.002-0.008-0.006-0.008-0.012C19.885,5.168,19.888,5.171,19.891,5.175z"/>
	<path fill="#FE3D08" d="M19.913,5.212c-0.006-0.003-0.009-0.008-0.009-0.015C19.907,5.202,19.91,5.207,19.913,5.212z"/>
	<path fill="#FE3D08" d="M19.925,5.232c-0.005-0.002-0.008-0.005-0.008-0.011C19.92,5.225,19.922,5.229,19.925,5.232z"/>
	<path fill="#FF1803" d="M18.961,3.636c-0.005-0.001-0.008-0.004-0.007-0.01C18.956,3.63,18.959,3.633,18.961,3.636z"/>
	<path fill="#FF1803" d="M18.983,3.673c-0.005-0.002-0.008-0.006-0.008-0.012C18.978,3.665,18.981,3.669,18.983,3.673z"/>
	<path fill="#FF1803" d="M18.675,3.166c-0.005-0.002-0.008-0.005-0.008-0.01C18.669,3.159,18.672,3.163,18.675,3.166z"/>
	<path fill="#FF1803" d="M18.685,3.183c-0.006-0.003-0.01-0.009-0.01-0.016C18.681,3.17,18.684,3.176,18.685,3.183z"/>
	<path fill="#FF1803" d="M18.697,3.203c-0.006-0.003-0.009-0.007-0.008-0.013C18.691,3.195,18.694,3.199,18.697,3.203z"/>
	<path fill="#FF1803" d="M18.709,3.223c-0.005-0.002-0.008-0.005-0.008-0.01C18.704,3.217,18.707,3.22,18.709,3.223z"/>
	<path fill="#FF1803" d="M18.719,3.24c-0.006-0.003-0.009-0.009-0.01-0.016C18.715,3.228,18.718,3.233,18.719,3.24z"/>
	<path fill="#FF1803" d="M18.731,3.26c-0.005-0.003-0.009-0.007-0.008-0.013C18.726,3.252,18.728,3.256,18.731,3.26z"/>
	<path fill="#FF1803" d="M18.744,3.281c-0.005-0.002-0.008-0.005-0.007-0.01C18.739,3.274,18.741,3.277,18.744,3.281z"/>
	<path fill="#FF1803" d="M18.753,3.297c-0.006-0.003-0.009-0.008-0.01-0.015C18.75,3.285,18.753,3.29,18.753,3.297z"/>
	<path fill="#FF1803" d="M18.766,3.318c-0.005-0.002-0.008-0.006-0.008-0.013C18.76,3.309,18.763,3.313,18.766,3.318z"/>
	<path fill="#FF1803" d="M18.778,3.338c-0.002-0.003-0.005-0.006-0.007-0.01C18.773,3.331,18.776,3.335,18.778,3.338z"/>
	<path fill="#FF1803" d="M18.788,3.354c-0.006-0.003-0.009-0.008-0.009-0.015C18.782,3.344,18.785,3.349,18.788,3.354z"/>
	<path fill="#FF1803" d="M18.8,3.375c-0.005-0.002-0.008-0.006-0.008-0.012C18.795,3.366,18.797,3.371,18.8,3.375z"/>
	<path fill="#FF1803" d="M18.823,3.408c-0.005-0.002-0.008-0.005-0.008-0.011C18.818,3.401,18.821,3.404,18.823,3.408z"/>
	<path fill="#FF1803" d="M18.833,3.424c-0.006-0.004-0.01-0.009-0.01-0.016C18.83,3.411,18.833,3.417,18.833,3.424z"/>
	<path fill="#FF1803" d="M18.846,3.445c-0.006-0.003-0.009-0.007-0.009-0.014C18.84,3.436,18.843,3.44,18.846,3.445z"/>
	<path fill="#FF1803" d="M18.858,3.465C18.853,3.463,18.85,3.46,18.85,3.454C18.853,3.458,18.855,3.462,18.858,3.465z"/>
	<path fill="#FF1803" d="M18.88,3.502c-0.006-0.003-0.009-0.007-0.008-0.013C18.874,3.493,18.877,3.498,18.88,3.502z"/>
	<path fill="#FF1803" d="M18.892,3.522c-0.005-0.002-0.008-0.005-0.008-0.011C18.887,3.515,18.89,3.519,18.892,3.522z"/>
	<path fill="#FF1803" d="M18.902,3.538c-0.006-0.003-0.009-0.009-0.01-0.016C18.899,3.526,18.902,3.531,18.902,3.538z"/>
	<path fill="#FF1803" d="M18.914,3.559c-0.006-0.003-0.009-0.007-0.008-0.013C18.909,3.55,18.912,3.555,18.914,3.559z"/>
	<path fill="#FF1803" d="M18.927,3.579c-0.005-0.002-0.008-0.005-0.008-0.01C18.922,3.573,18.924,3.576,18.927,3.579z"/>
	<path fill="#FF1803" d="M18.949,3.616c-0.005-0.002-0.008-0.007-0.008-0.013C18.943,3.608,18.946,3.612,18.949,3.616z"/>
	<path fill="#FE4A0A" d="M14.463,5.622c-0.001-0.058,0.013-0.114,0.024-0.17c0.024-0.13,0.06-0.256,0.113-0.378
		c0.044-0.098,0.098-0.19,0.169-0.271c0.135-0.156,0.307-0.25,0.507-0.292c0.145-0.031,0.291-0.04,0.439-0.028
		c0.103,0.008,0.205,0.023,0.303,0.055c0.247,0.08,0.427,0.238,0.545,0.469c0.065,0.127,0.107,0.261,0.136,0.4
		c0.009,0.045,0.022,0.089,0.022,0.135c-0.221-0.016-0.442,0.01-0.663,0.012c-0.038-0.005-0.039-0.037-0.044-0.065
		c-0.015-0.075-0.038-0.147-0.074-0.216c-0.076-0.147-0.2-0.205-0.376-0.195c-0.173,0.01-0.284,0.106-0.342,0.268
		c-0.024,0.068-0.042,0.138-0.056,0.21c-0.003,0.017,0.005,0.053-0.036,0.04c-0.019-0.023-0.046-0.025-0.073-0.025
		c-0.163,0.002-0.327,0.017-0.49,0.013C14.527,5.582,14.497,5.607,14.463,5.622z"/>
	<path fill="#FCCA1C" d="M16.724,6.575c-0.002,0.069-0.02,0.136-0.035,0.203c-0.024,0.103-0.057,0.202-0.102,0.298
		c-0.134,0.288-0.359,0.459-0.668,0.522c-0.147,0.03-0.295,0.037-0.445,0.026c-0.096-0.007-0.19-0.02-0.282-0.046
		c-0.253-0.071-0.439-0.225-0.56-0.457c-0.064-0.123-0.106-0.253-0.135-0.388c-0.006-0.028-0.015-0.055-0.013-0.085
		c-0.011-0.035,0.015-0.039,0.037-0.041c0.04-0.004,0.079-0.013,0.119-0.013c0.141-0.001,0.281-0.002,0.422-0.013
		c0.025-0.002,0.05-0.001,0.074,0.005c0.028,0.008,0.036,0.031,0.042,0.056c0.013,0.052,0.028,0.103,0.049,0.153
		c0.074,0.18,0.221,0.243,0.411,0.234c0.192-0.009,0.303-0.116,0.354-0.296c0.009-0.033,0.02-0.066,0.027-0.099
		c0.005-0.025,0.012-0.049,0.04-0.058c0.029-0.008,0.06-0.016,0.09-0.015c0.165,0.003,0.33-0.014,0.495-0.013
		C16.673,6.546,16.705,6.541,16.724,6.575z"/>
	<path fill="#FCCC1C" d="M19.169,6.565c-0.002,0.071-0.02,0.14-0.036,0.208c-0.028,0.121-0.068,0.238-0.126,0.349
		c-0.126,0.241-0.323,0.392-0.584,0.461c-0.156,0.041-0.316,0.051-0.477,0.042c-0.109-0.006-0.216-0.02-0.322-0.051
		c-0.233-0.068-0.409-0.208-0.53-0.418c-0.066-0.115-0.11-0.239-0.141-0.367c-0.001-0.005-0.001-0.011-0.001-0.017
		c-0.009-0.062-0.001-0.083,0.052-0.083c0.2-0.002,0.4-0.029,0.6-0.011c0.032,0.011,0.038,0.041,0.047,0.068
		c0.094,0.31,0.416,0.331,0.611,0.232c0.078-0.039,0.123-0.107,0.154-0.185c0.022-0.057,0.041-0.115,0.05-0.176
		c0.004-0.025,0.01-0.049,0.025-0.069c0.019-0.025,0.046-0.034,0.076-0.034c0.181,0.003,0.361-0.02,0.542-0.013
		C19.169,6.502,19.174,6.509,19.169,6.565z"/>
	<path fill="#FE4C0B" d="M16.977,5.267C17.047,5.01,17.172,4.79,17.4,4.64c0.117-0.077,0.247-0.12,0.384-0.142
		c0.148-0.024,0.297-0.027,0.446-0.01c0.14,0.017,0.274,0.052,0.398,0.121c0.173,0.096,0.299,0.236,0.386,0.412
		c0.07,0.142,0.113,0.292,0.141,0.446c0.001,0.006,0,0.011,0,0.017c-0.01,0.006-0.022,0.007-0.033,0.007
		c-0.177-0.009-0.352,0.017-0.529,0.011c-0.034-0.001-0.069-0.001-0.091,0.033c-0.022,0.02-0.03,0.001-0.035-0.015
		c-0.009-0.025-0.013-0.052-0.02-0.078c-0.013-0.054-0.033-0.105-0.055-0.156c-0.121-0.285-0.557-0.259-0.674-0.045
		c-0.011,0.019-0.02,0.049-0.055,0.036c-0.053-0.026-0.11-0.019-0.164-0.013c-0.088,0.01-0.176,0.008-0.263,0.009
		c-0.052,0-0.103,0.002-0.154,0.008C17.047,5.285,17.009,5.293,16.977,5.267z"/>
	<path fill="#FE670E" d="M13.644,5.483c0.001,0.015,0.002,0.03,0.002,0.046c0,0.279,0,0.558,0,0.838c0,0.015-0.002,0.03-0.002,0.046
		c-0.034-0.013-0.025-0.044-0.026-0.069c-0.002-0.097,0-0.195-0.001-0.292c-0.001-0.06-0.007-0.065-0.066-0.066
		c-0.155-0.003-0.309,0.019-0.464,0.012c-0.05-0.002-0.053,0.032-0.053,0.069c0,0.178,0,0.355,0,0.533
		c0,0.057,0.002,0.115-0.001,0.172c0.003,0.245,0.001,0.489,0.001,0.734c0,0.015-0.001,0.031-0.006,0.045
		c-0.003,0.007-0.007,0.013-0.013,0.018c-0.006-0.006-0.007-0.013-0.007-0.021c0-0.015,0-0.031,0-0.046
		c0-0.716,0.001-1.432,0.001-2.148c0-0.019,0-0.038-0.001-0.057c-0.001-0.016-0.01-0.021-0.022-0.013
		c-0.013,0.008-0.025,0.017-0.038,0.025c-0.172,0.117-0.344,0.234-0.517,0.351c-0.016,0.011-0.032,0.021-0.045,0.03
		c-0.012-0.002-0.016-0.009-0.02-0.015c-0.08-0.135-0.159-0.269-0.239-0.404c-0.004-0.006-0.006-0.014-0.009-0.021
		c-0.004-0.027,0.018-0.031,0.035-0.037c0.016-0.006,0.034-0.008,0.051-0.008c0.159,0.006,0.317-0.008,0.475-0.013
		c0.296-0.009,0.591-0.014,0.887-0.031c0.065-0.004,0.075,0.005,0.075,0.072C13.642,5.315,13.638,5.399,13.644,5.483z"/>
	<path fill="#FE3808" d="M13.644,5.483c-0.011-0.013-0.008-0.029-0.008-0.044c0-0.067,0-0.134,0-0.201c0-0.013,0-0.027-0.001-0.04
		c-0.001-0.013-0.008-0.022-0.021-0.022c-0.019-0.001-0.039-0.004-0.057,0.002c-0.03,0.01-0.06,0.008-0.091,0.009
		c-0.061,0-0.122,0-0.184,0c-0.032,0-0.065-0.002-0.096,0.009c-0.014,0.005-0.03,0.002-0.046,0.002c-0.073,0-0.145,0-0.218,0
		c-0.03,0-0.061-0.002-0.091,0.009c-0.014,0.005-0.03,0.003-0.046,0.003c-0.063,0-0.126,0-0.189,0c-0.038,0-0.076-0.003-0.114,0.009
		c-0.014,0.005-0.03,0.002-0.046,0.002c-0.078,0-0.157,0-0.235,0c-0.031,0-0.061,0.003-0.084,0.027
		c-0.037-0.05-0.037-0.05,0.013-0.085c0.292-0.199,0.584-0.398,0.876-0.598c0.033-0.023,0.066-0.033,0.106-0.033
		c0.157,0.002,0.314,0.001,0.47,0.001c0.015,0,0.031,0,0.046,0.001c0.008,0.001,0.014,0.005,0.015,0.014
		c0.001,0.011,0.001,0.023,0.001,0.034c0,0.289,0,0.577,0,0.866C13.646,5.46,13.645,5.472,13.644,5.483z"/>
	<path fill="#FD8B13" d="M18.489,5.545c0.007-0.053,0.013-0.06,0.062-0.06c0.073-0.001,0.145,0,0.218,0
		c0.025,0,0.049,0.001,0.074-0.008c0.012-0.004,0.026-0.004,0.04-0.004c0.073,0,0.145,0,0.218,0c0.019,0,0.038,0.001,0.055,0.011
		c0.014,0.038,0.016,0.079,0.021,0.118c0.013,0.102,0.022,0.205,0.025,0.308c0.005,0.172,0.005,0.343-0.012,0.514
		c-0.005,0.047-0.004,0.095-0.02,0.14c-0.001-0.008-0.001-0.015-0.002-0.023c-0.004-0.02-0.007-0.024-0.025-0.024
		c-0.093,0-0.187,0-0.28,0c-0.079,0.02-0.159,0.008-0.239,0.011c-0.017,0.001-0.034,0.001-0.051,0
		c-0.033-0.003-0.06,0.007-0.079,0.035c-0.022-0.02-0.014-0.045-0.012-0.07c0.024-0.292,0.026-0.585-0.003-0.877
		C18.475,5.591,18.471,5.566,18.489,5.545z"/>
	<path fill="#FD8913" d="M16.724,6.575c-0.017-0.01-0.035-0.012-0.055-0.012c-0.055,0.001-0.11,0-0.165,0
		c-0.006,0-0.012-0.001-0.017,0c-0.086,0.02-0.174,0.007-0.26,0.011c-0.043,0.002-0.087-0.004-0.13,0.01
		c-0.015,0.005-0.034,0.001-0.051,0.001c-0.018-0.019-0.015-0.042-0.013-0.065c0.029-0.276,0.029-0.552,0.008-0.828
		C16.04,5.674,16.04,5.655,16.04,5.636c0.001-0.022,0.003-0.045-0.002-0.067c-0.001-0.01,0-0.019,0.007-0.026
		c0.075-0.019,0.152-0.01,0.228-0.012c0.046-0.001,0.092,0.006,0.136-0.01c0.007-0.002,0.015-0.001,0.023-0.001
		c0.08,0,0.161,0.001,0.241-0.001c0.021,0,0.036,0.008,0.049,0.023c0.014,0.05,0.016,0.101,0.021,0.152
		c0.02,0.205,0.021,0.41,0.011,0.616c-0.004,0.078-0.014,0.155-0.022,0.233C16.732,6.553,16.727,6.564,16.724,6.575z"/>
	<path fill="#FD8713" d="M15.151,6.597c-0.042,0-0.084,0-0.126,0c-0.026,0-0.053-0.001-0.079,0.008
		c-0.014,0.005-0.03,0.003-0.045,0.003c-0.067,0-0.133,0-0.2,0c-0.04,0-0.079-0.002-0.119,0.009
		c-0.023,0.006-0.049,0.002-0.074,0.003c-0.017,0-0.022,0.012-0.026,0.026c-0.013-0.018-0.01-0.04-0.013-0.061
		c-0.017-0.102-0.026-0.204-0.03-0.307c-0.006-0.143-0.006-0.286,0.001-0.429c0.004-0.076,0.007-0.152,0.022-0.228
		c0.015-0.009,0.005-0.032,0.019-0.039c0.013-0.007,0.03-0.005,0.044-0.01c0.02-0.008,0.041-0.007,0.062-0.007
		c0.069,0,0.137,0,0.206,0c0.036,0,0.073,0.004,0.108-0.01c0.007-0.003,0.015-0.002,0.023-0.002c0.059,0,0.118,0,0.178,0
		c0.031,0,0.032,0.002,0.037,0.037c0.001,0.004,0.001,0.008,0.001,0.011c0.019,0.021,0.016,0.046,0.014,0.07
		c-0.016,0.154-0.023,0.307-0.02,0.462c0.002,0.131,0.014,0.262,0.027,0.393C15.163,6.551,15.171,6.576,15.151,6.597z"/>
	<path fill="#FD9B15" d="M17.616,6.689c-0.073,0-0.145,0-0.218,0c-0.04,0-0.08-0.004-0.119,0.01
		c-0.012,0.004-0.026,0.002-0.04,0.002c-0.067,0-0.134,0-0.2,0c-0.013,0-0.028-0.002-0.04,0.002
		c-0.041,0.013-0.05,0.009-0.047,0.056c0,0.004-0.001,0.008-0.001,0.011c-0.02-0.044-0.024-0.092-0.032-0.138
		c-0.039-0.228-0.044-0.458-0.038-0.689c0-0.004,0.001-0.007,0.002-0.011c0.031-0.035,0.075-0.039,0.116-0.038
		c0.157,0.002,0.313-0.013,0.469-0.013c0.034,0,0.07,0,0.094,0.031c0.008,0.012,0.01,0.026,0.009,0.04
		c-0.01,0.049-0.011,0.098,0.002,0.146c0.008,0.184,0.016,0.367,0.051,0.549C17.628,6.661,17.629,6.677,17.616,6.689z"/>
	<path fill="#FD9715" d="M13.018,6.77c-0.001-0.017-0.002-0.034-0.002-0.051c0-0.225,0.001-0.45,0.001-0.676
		c0-0.068-0.002-0.065,0.066-0.065c0.065,0,0.13,0,0.195,0c0.032,0,0.065,0.003,0.096-0.009c0.008-0.003,0.019-0.002,0.028-0.002
		c0.063,0,0.126,0,0.189,0c0.042,0,0.044,0.002,0.044,0.047c0.001,0.115,0,0.229,0.001,0.344c0,0.018-0.006,0.038,0.008,0.055
		c0.001,0.015,0.002,0.03,0.002,0.045c0,0.291,0.001,0.582,0.001,0.873c0,0.015-0.002,0.03-0.002,0.045
		c-0.035-0.015-0.026-0.048-0.026-0.074c-0.002-0.149,0-0.298-0.001-0.447c0-0.075-0.003-0.076-0.077-0.079
		c-0.147-0.007-0.294,0.015-0.441,0.012C13.071,6.787,13.042,6.792,13.018,6.77z"/>
	<path fill="#FCC81C" d="M13.018,6.77c0.061,0,0.122,0,0.184-0.001c0.03,0,0.061,0.003,0.091-0.009
		c0.008-0.003,0.019-0.002,0.028-0.002c0.092,0,0.184,0,0.275,0c0.008,0,0.015,0.001,0.023,0.002
		c0.008,0.001,0.014,0.007,0.015,0.015c0.001,0.017,0.002,0.034,0.002,0.051c0,0.164,0,0.329,0.001,0.493
		c0,0.018-0.006,0.038,0.008,0.055c0.003,0.062,0.005,0.124-0.001,0.186c-0.119,0.011-0.239,0.004-0.359,0.004
		c-0.089,0-0.178,0.007-0.267-0.004c-0.001-0.013-0.002-0.026-0.002-0.04c0-0.241,0.001-0.482,0.002-0.724
		C13.016,6.789,13.017,6.78,13.018,6.77z"/>
	<path fill="#FE6A0F" d="M17.56,5.921c-0.021-0.018-0.045-0.025-0.074-0.024c-0.042,0.002-0.084,0.001-0.126,0.001
		c-0.019,0-0.038,0.001-0.056,0.006c-0.016,0.005-0.034,0.005-0.051,0.005c-0.065,0-0.13,0.002-0.195,0
		c-0.06-0.002-0.117,0.009-0.174,0.023c0-0.032-0.001-0.065,0.001-0.097c0.011-0.179,0.033-0.357,0.079-0.531
		c0.003-0.013,0.009-0.025,0.013-0.038c0.049-0.001,0.099,0.004,0.147-0.01c0.012-0.004,0.026-0.001,0.04-0.001
		c0.069,0,0.137,0,0.206,0c0.034,0,0.068-0.004,0.102-0.008c0.058-0.007,0.118-0.003,0.177-0.002c0.017,0,0.026,0.015,0.027,0.032
		c0.011,0.021,0.001,0.041-0.006,0.06c-0.053,0.144-0.075,0.294-0.081,0.447C17.586,5.83,17.588,5.879,17.56,5.921z"/>
	<path fill="#FD9715" d="M13.017,7.562c0.209,0,0.418,0,0.626,0c-0.002,0.005-0.005,0.01-0.012,0.01
		c-0.015,0-0.03,0.001-0.046,0.001c-0.172,0-0.343,0-0.515,0c-0.019,0-0.038,0.004-0.056-0.005
		C13.015,7.566,13.016,7.564,13.017,7.562z"/>
	<path d="M15.151,6.597c-0.005-0.045-0.009-0.091-0.015-0.136c-0.011-0.087-0.015-0.174-0.017-0.262
		c-0.004-0.154-0.002-0.308,0.01-0.462c0.004-0.045,0.008-0.091,0.012-0.136c0.015-0.032,0.013-0.067,0.021-0.1
		c0.019-0.086,0.043-0.17,0.087-0.247c0.051-0.091,0.126-0.152,0.228-0.177c0.026-0.006,0.052-0.011,0.079-0.013
		c0.067-0.006,0.133,0,0.198,0.021c0.084,0.027,0.145,0.082,0.19,0.156c0.04,0.066,0.063,0.138,0.081,0.213
		c0.007,0.029,0.008,0.06,0.021,0.088c0.001,0.008,0.002,0.015,0.003,0.023c0.01,0.019-0.002,0.041,0.009,0.059
		c0,0.013,0,0.027,0.001,0.04c0.013,0.11,0.014,0.22,0.016,0.33c0.003,0.165-0.001,0.331-0.018,0.496
		c-0.003,0.032-0.014,0.063-0.01,0.096c-0.007,0.03-0.014,0.059-0.021,0.089c-0.015,0.061-0.035,0.121-0.065,0.176
		C15.9,6.959,15.81,7.02,15.687,7.036c-0.075,0.01-0.148,0.008-0.221-0.009c-0.096-0.022-0.168-0.078-0.219-0.161
		c-0.042-0.069-0.065-0.146-0.084-0.224C15.159,6.626,15.155,6.612,15.151,6.597z"/>
	<path d="M17.56,5.921c0.004-0.059,0.008-0.118,0.013-0.177c0.009-0.114,0.023-0.228,0.056-0.338
		c0.013-0.044,0.031-0.086,0.046-0.129c0.009-0.014,0.019-0.028,0.028-0.042c0.06-0.094,0.146-0.148,0.256-0.165
		c0.061-0.009,0.122-0.009,0.182,0.002c0.093,0.017,0.168,0.062,0.223,0.138c0.044,0.061,0.071,0.13,0.091,0.203
		c0.012,0.044,0.022,0.088,0.033,0.133c0.005,0.053,0.01,0.106,0.016,0.16c0.015,0.143,0.013,0.286,0.013,0.43
		c-0.001,0.107-0.003,0.214-0.014,0.321c-0.004,0.036-0.014,0.071-0.011,0.108c-0.012,0.05-0.022,0.101-0.035,0.15
		c-0.013,0.052-0.033,0.101-0.06,0.148c-0.051,0.089-0.127,0.146-0.228,0.167c-0.089,0.019-0.178,0.018-0.267-0.005
		c-0.085-0.022-0.152-0.07-0.201-0.142c-0.03-0.045-0.051-0.094-0.069-0.144c-0.006-0.016-0.011-0.033-0.016-0.049
		c-0.011-0.07-0.028-0.138-0.035-0.209c-0.011-0.108-0.018-0.217-0.02-0.326c0-0.021-0.002-0.042-0.002-0.063
		c-0.006-0.046-0.007-0.091,0.001-0.137C17.56,5.944,17.56,5.932,17.56,5.921z"/>
	<path fill="#FE4A0A" d="M16.057,5.624c-0.011-0.018-0.01-0.039-0.009-0.059C16.064,5.582,16.057,5.604,16.057,5.624z"/>
	<path fill="#FE6A0F" d="M17.56,5.955c0.003,0.046,0.004,0.091-0.001,0.137c-0.003-0.007-0.009-0.013-0.009-0.02
		c-0.001-0.032-0.001-0.065,0-0.097C17.551,5.968,17.557,5.962,17.56,5.955z"/>
</g>
</svg>
