<?xml version="1.0" encoding="utf-8"?>
<!-- Generator: Adobe Illustrator 24.3.0, SVG Export Plug-In . SVG Version: 6.00 Build 0)  -->
<svg version="1.1" id="Слой_1" xmlns="http://www.w3.org/2000/svg" xmlns:xlink="http://www.w3.org/1999/xlink" x="0px" y="0px"
	 width="32px" height="13px" viewBox="0 0 32 13" enable-background="new 0 0 32 13" xml:space="preserve">
<g>
	<path d="M15.993,13.035c-0.486,0-0.972,0-1.459,0c-0.593-0.001-1.185,0-1.778-0.004c-0.167-0.001-0.334-0.003-0.501-0.004
		c-0.008,0-0.015,0-0.023,0c-0.019,0-0.034-0.006-0.043-0.024c-0.005-0.011-0.013-0.022-0.019-0.033
		c-0.275-0.475-0.551-0.95-0.825-1.425c-0.235-0.407-0.469-0.816-0.705-1.223c-0.24-0.416-0.482-0.832-0.723-1.248
		C9.688,8.677,9.459,8.281,9.23,7.884c-0.183-0.315-0.366-0.63-0.548-0.946c-0.076-0.131-0.15-0.264-0.227-0.394
		c-0.017-0.028-0.016-0.049,0-0.076c0.127-0.216,0.252-0.433,0.378-0.649c0.237-0.407,0.471-0.815,0.711-1.22
		c0.223-0.377,0.442-0.756,0.662-1.134c0.207-0.356,0.416-0.712,0.624-1.068c0.2-0.343,0.4-0.686,0.601-1.029
		c0.212-0.363,0.424-0.725,0.636-1.088c0.049-0.083,0.098-0.165,0.146-0.248c0.014-0.024,0.03-0.036,0.059-0.036
		C12.359-0.001,12.445,0,12.531,0c0.425,0,0.851,0,1.276,0c0.676,0.001,1.352-0.002,2.028,0.005
		c0.572,0.006,1.144,0.002,1.717,0.004c0.57,0.002,1.139,0.002,1.709,0.003c0.167,0,0.334,0.003,0.501,0.002
		c0.032,0,0.05,0.01,0.066,0.038c0.108,0.189,0.219,0.376,0.328,0.565c0.174,0.3,0.346,0.601,0.52,0.901
		c0.236,0.407,0.472,0.814,0.708,1.222c0.233,0.403,0.467,0.806,0.7,1.208c0.062,0.107,0.125,0.214,0.187,0.321
		c0.168,0.292,0.334,0.584,0.502,0.876c0.239,0.414,0.479,0.828,0.719,1.241c0.023,0.039,0.045,0.079,0.07,0.117
		c0.016,0.025,0.013,0.045-0.001,0.069c-0.107,0.181-0.212,0.362-0.318,0.544c-0.063,0.107-0.125,0.214-0.187,0.321
		c-0.127,0.219-0.254,0.438-0.381,0.656c-0.194,0.332-0.385,0.666-0.582,0.996c-0.222,0.372-0.436,0.747-0.655,1.121
		c-0.169,0.288-0.337,0.577-0.505,0.865c-0.244,0.417-0.485,0.836-0.732,1.251c-0.131,0.22-0.257,0.441-0.387,0.662
		c-0.008,0.013-0.015,0.026-0.023,0.039c-0.008,0.014-0.021,0.021-0.038,0.02c-0.061-0.001-0.122,0-0.182-0.001
		c-0.051-0.001-0.101-0.005-0.152-0.005c-0.456,0-0.912,0-1.368,0c-0.625-0.001-1.251-0.003-1.876-0.004c-0.061,0-0.121,0-0.182,0
		C15.993,13.037,15.993,13.036,15.993,13.035z"/>
	<path d="M22.004,1.959c0.013-0.012,0.029-0.007,0.043-0.006c0.38,0.013,0.759,0.022,1.139,0.041
		c0.346,0.017,0.693,0.028,1.04,0.042c0.008,0,0.015,0.001,0.023,0.001c0.024-0.002,0.038,0.01,0.046,0.032
		c0.004,0.009,0.009,0.018,0.013,0.027c0.272,0.548,0.544,1.097,0.816,1.645c0.193,0.39,0.385,0.78,0.577,1.17
		c0.189,0.383,0.379,0.766,0.569,1.149c0.083,0.168,0.166,0.335,0.251,0.502c0.015,0.03,0.017,0.054,0.001,0.085
		c-0.068,0.13-0.134,0.261-0.2,0.392c-0.08,0.161-0.159,0.322-0.239,0.483c-0.085,0.172-0.171,0.344-0.257,0.516
		c-0.16,0.321-0.321,0.643-0.481,0.964c-0.212,0.425-0.422,0.852-0.638,1.275c-0.137,0.268-0.268,0.539-0.404,0.808
		c-0.047,0.093-0.028,0.075-0.124,0.082c-0.164,0.013-0.328,0.027-0.492,0.04c-0.144,0.012-0.288,0.023-0.432,0.035
		c-0.106,0.009-0.212,0.018-0.318,0.026c-0.093,0.007-0.187,0.012-0.28,0.019c-0.177,0.014-0.353,0.029-0.53,0.043
		c-0.048,0.004-0.096,0.006-0.142,0.009c-0.011-0.027,0.006-0.043,0.014-0.06c0.112-0.235,0.225-0.47,0.337-0.705
		c0.101-0.212,0.201-0.425,0.302-0.638c0.167-0.352,0.333-0.704,0.504-1.054c0.198-0.407,0.387-0.818,0.585-1.225
		c0.168-0.343,0.326-0.691,0.494-1.034c0.007-0.014,0.012-0.028,0.02-0.041c0.018-0.029,0.015-0.054,0-0.085
		c-0.108-0.218-0.213-0.436-0.321-0.654c-0.194-0.392-0.389-0.784-0.584-1.176c-0.19-0.383-0.38-0.766-0.57-1.149
		c-0.124-0.249-0.248-0.498-0.372-0.747c-0.124-0.252-0.248-0.504-0.371-0.756C22.017,1.997,22.003,1.981,22.004,1.959z"/>
	<path d="M10.017,11.304c-0.017,0-0.035,0.001-0.052,0c-0.167-0.013-0.333-0.027-0.5-0.04c-0.078-0.006-0.156-0.012-0.235-0.019
		c-0.156-0.014-0.312-0.028-0.469-0.041c-0.078-0.007-0.156-0.013-0.235-0.019c-0.25-0.02-0.499-0.041-0.749-0.06
		c-0.033-0.002-0.049-0.017-0.062-0.044c-0.112-0.232-0.225-0.464-0.339-0.695c-0.19-0.386-0.381-0.771-0.572-1.156
		C6.618,8.853,6.432,8.476,6.246,8.1C6.13,7.867,6.014,7.634,5.898,7.4c-0.13-0.263-0.259-0.526-0.389-0.79
		C5.504,6.599,5.499,6.588,5.493,6.576C5.486,6.562,5.484,6.548,5.492,6.533c0.014-0.027,0.027-0.054,0.041-0.081
		c0.122-0.245,0.243-0.489,0.365-0.734C6.087,5.34,6.276,4.963,6.465,4.585C6.646,4.224,6.827,3.862,7.008,3.5
		C7.2,3.115,7.393,2.731,7.586,2.347c0.051-0.102,0.105-0.202,0.153-0.305C7.757,2.003,7.78,1.99,7.82,1.991
		c0.051,0.002,0.101,0.001,0.152-0.001c0.387-0.014,0.774-0.029,1.161-0.043c0.132-0.005,0.263-0.005,0.395-0.009
		C9.68,1.934,9.832,1.927,9.984,1.922c0.015-0.001,0.03-0.001,0.045,0c0.009,0.001,0.012,0.01,0.01,0.017
		c-0.006,0.017-0.014,0.033-0.022,0.048C9.895,2.232,9.777,2.478,9.651,2.72c-0.183,0.353-0.354,0.71-0.533,1.065
		c-0.196,0.388-0.39,0.777-0.585,1.166C8.35,5.318,8.167,5.685,7.984,6.051c-0.066,0.131-0.132,0.262-0.2,0.392
		c-0.019,0.037-0.02,0.066-0.002,0.105C7.929,6.853,8.073,7.16,8.217,7.466c0.139,0.295,0.278,0.59,0.418,0.885
		C8.692,8.47,8.749,8.588,8.805,8.707c0.117,0.25,0.232,0.5,0.35,0.749c0.183,0.389,0.367,0.777,0.551,1.166
		c0.097,0.206,0.196,0.411,0.293,0.617C10.007,11.259,10.025,11.277,10.017,11.304z"/>
	<path d="M6.414,9.913C6.352,9.909,6.286,9.905,6.221,9.9C6.136,9.893,6.05,9.884,5.964,9.877C5.682,9.855,5.399,9.833,5.116,9.81
		C4.985,9.8,4.854,9.791,4.723,9.778C4.63,9.769,4.654,9.782,4.616,9.706C4.522,9.518,4.43,9.33,4.337,9.141
		C4.084,8.629,3.832,8.116,3.579,7.603C3.404,7.25,3.229,6.896,3.054,6.543C3.046,6.527,3.039,6.51,3.03,6.495
		c-0.013-0.02-0.008-0.037,0.002-0.057c0.072-0.142,0.145-0.284,0.216-0.426c0.15-0.301,0.299-0.602,0.45-0.903
		c0.192-0.384,0.385-0.769,0.578-1.153c0.12-0.24,0.241-0.479,0.361-0.718c0.007-0.014,0.014-0.027,0.02-0.041
		c0.007-0.016,0.018-0.023,0.035-0.024c0.124-0.004,0.248-0.01,0.372-0.014c0.071-0.002,0.142-0.001,0.213-0.003
		c0.334-0.012,0.668-0.026,1.002-0.039C6.32,3.116,6.363,3.115,6.406,3.114c0.031-0.001,0.035,0.006,0.02,0.037
		c-0.091,0.184-0.182,0.367-0.273,0.55C6.128,3.753,6.101,3.805,6.075,3.857c-0.196,0.394-0.39,0.789-0.59,1.181
		C5.286,5.427,5.093,5.82,4.898,6.211C4.866,6.274,4.834,6.337,4.801,6.4C4.789,6.422,4.789,6.441,4.8,6.464
		c0.182,0.384,0.364,0.768,0.546,1.152c0.161,0.341,0.321,0.682,0.482,1.022c0.103,0.217,0.206,0.434,0.309,0.651
		C6.229,9.486,6.321,9.683,6.414,9.88C6.418,9.889,6.422,9.898,6.414,9.913z"/>
	<path d="M25.586,9.963c-0.004-0.029,0.014-0.05,0.024-0.072c0.12-0.251,0.24-0.502,0.36-0.753c0.084-0.176,0.167-0.352,0.251-0.528
		c0.156-0.326,0.312-0.652,0.467-0.979c0.173-0.363,0.346-0.726,0.521-1.088c0.021-0.044,0.018-0.078-0.003-0.119
		c-0.086-0.169-0.169-0.339-0.253-0.51c-0.248-0.503-0.496-1.007-0.745-1.51c-0.192-0.388-0.384-0.775-0.576-1.162
		c-0.012-0.024-0.023-0.05-0.036-0.08c0.019,0,0.031,0,0.043,0c0.256,0.009,0.511,0.018,0.767,0.028
		c0.286,0.01,0.572,0.021,0.858,0.032c0.035,0.001,0.074-0.006,0.104,0.013c0.027,0.018,0.034,0.055,0.048,0.084
		c0.161,0.324,0.32,0.649,0.481,0.973c0.19,0.383,0.38,0.765,0.57,1.148c0.11,0.222,0.221,0.444,0.331,0.666
		c0.064,0.129,0.125,0.26,0.189,0.389c0.014,0.028,0.012,0.05-0.001,0.078c-0.155,0.31-0.309,0.62-0.464,0.93
		c-0.178,0.357-0.354,0.716-0.536,1.072c-0.197,0.387-0.389,0.778-0.582,1.167c-0.005,0.009-0.009,0.018-0.014,0.027
		c-0.031,0.057-0.032,0.056-0.099,0.061c-0.091,0.007-0.181,0.016-0.272,0.023c-0.093,0.007-0.187,0.012-0.28,0.019
		c-0.237,0.019-0.474,0.038-0.711,0.058c-0.134,0.011-0.267,0.022-0.401,0.032C25.612,9.964,25.599,9.963,25.586,9.963z"/>
	<path fill="#666666" d="M12.891,12.119c-0.005-0.025,0.007-0.039,0.015-0.054c0.093-0.177,0.186-0.354,0.285-0.528
		c0.048-0.084,0.091-0.17,0.136-0.255c0.008-0.016,0.016-0.031,0.025-0.047c0.009-0.017,0.022-0.027,0.042-0.026
		c0.018,0,0.035,0,0.053,0c0.805,0.001,1.611,0.001,2.416,0.002c0.372,0,0.745,0.001,1.117,0.002
		c0.552,0.001,1.104,0.002,1.656,0.002c0.106,0,0.081,0.011,0.135-0.079c0.173-0.291,0.344-0.584,0.515-0.877
		c0.224-0.385,0.447-0.77,0.672-1.155c0.087-0.149,0.176-0.296,0.263-0.444c0.139-0.238,0.277-0.477,0.415-0.716
		c0.06-0.103,0.122-0.204,0.182-0.307c0.077-0.131,0.152-0.263,0.228-0.394c0.107-0.183,0.215-0.366,0.323-0.55
		c0.026-0.044,0.05-0.088,0.077-0.131c0.015-0.025,0.013-0.046-0.001-0.07c-0.064-0.109-0.126-0.219-0.19-0.329
		c-0.086-0.149-0.173-0.297-0.26-0.446c-0.104-0.18-0.208-0.359-0.311-0.539c-0.122-0.21-0.244-0.42-0.365-0.631
		c-0.122-0.21-0.243-0.421-0.365-0.631c-0.138-0.239-0.276-0.478-0.415-0.716c-0.164-0.282-0.321-0.569-0.489-0.848
		c-0.089-0.147-0.171-0.299-0.258-0.447c-0.058-0.1-0.038-0.083-0.14-0.083c-0.831-0.001-1.661-0.001-2.492-0.002
		c-0.577-0.001-1.155-0.001-1.732-0.002c-0.355-0.001-0.709-0.002-1.064-0.002c-0.093,0-0.075-0.014-0.128,0.077
		c-0.151,0.258-0.297,0.518-0.451,0.774c-0.127,0.21-0.247,0.424-0.371,0.636c-0.151,0.257-0.303,0.515-0.454,0.772
		c-0.005,0.009-0.01,0.018-0.016,0.026c-0.008,0.011-0.02,0.015-0.033,0.01c-0.007-0.003-0.014-0.006-0.021-0.01
		c-0.245-0.121-0.49-0.242-0.735-0.363c-0.005-0.002-0.009-0.004-0.014-0.007C11.113,3.716,11.11,3.71,11.127,3.68
		c0.023-0.042,0.048-0.083,0.073-0.125c0.085-0.147,0.17-0.294,0.255-0.44c0.073-0.124,0.147-0.248,0.22-0.372
		c0.126-0.216,0.251-0.434,0.377-0.65c0.099-0.17,0.201-0.34,0.3-0.51c0.107-0.184,0.213-0.368,0.32-0.552
		c0.02-0.035,0.044-0.068,0.065-0.103c0.013-0.022,0.032-0.031,0.057-0.03c0.015,0.001,0.03,0,0.046,0
		c0.446,0,0.892-0.008,1.337,0.002c0.585,0.013,1.17,0.002,1.754,0.007c0.16,0.001,0.319,0.002,0.479,0.002
		c0.927,0.001,1.854,0.001,2.781,0.002c0.003,0,0.005,0,0.008,0c0.08,0.001,0.073-0.007,0.112,0.063
		c0.117,0.207,0.235,0.413,0.354,0.619c0.097,0.169,0.196,0.337,0.294,0.505c0.124,0.215,0.248,0.43,0.372,0.644
		c0.102,0.175,0.204,0.35,0.306,0.525c0.099,0.171,0.198,0.342,0.296,0.513c0.106,0.184,0.212,0.368,0.319,0.552
		c0.139,0.241,0.279,0.482,0.419,0.722c0.132,0.228,0.265,0.455,0.396,0.683c0.094,0.162,0.186,0.325,0.279,0.488
		c0.049,0.086,0.096,0.172,0.148,0.256c0.022,0.035,0.022,0.063,0.002,0.097c-0.091,0.152-0.179,0.305-0.269,0.458
		c-0.062,0.107-0.124,0.215-0.187,0.322c-0.17,0.29-0.341,0.58-0.511,0.871C21.308,8.607,21.09,8.984,20.87,9.36
		c-0.165,0.282-0.331,0.563-0.496,0.844c-0.061,0.105-0.121,0.211-0.182,0.316c-0.091,0.155-0.183,0.309-0.273,0.465
		c-0.121,0.208-0.242,0.416-0.363,0.623c-0.088,0.151-0.177,0.301-0.265,0.452c-0.01,0.017-0.022,0.034-0.032,0.052
		c-0.01,0.017-0.025,0.025-0.044,0.024c-0.018,0-0.035,0-0.053,0c-0.441,0-0.881,0.008-1.322-0.002
		c-0.587-0.013-1.175-0.002-1.762-0.007c-0.132-0.001-0.263-0.002-0.395-0.002c-0.907-0.001-1.813-0.002-2.72-0.002
		C12.939,12.122,12.914,12.12,12.891,12.119z"/>
	<path fill="#D425FD" d="M18.32,7.57c-0.014,0.015-0.027,0.03-0.042,0.044c-0.143,0.132-0.286,0.265-0.429,0.397
		c-0.018,0.017-0.036,0.035-0.052,0.051c0.003,0.018,0.014,0.016,0.024,0.016c0.013,0,0.025,0,0.038,0
		c0.544,0.001,1.089,0.002,1.633,0.003c0.018,0,0.035,0,0.053,0c0.03,0.001,0.033,0.004,0.034,0.037c0.001,0.035,0,0.071,0,0.106
		c-0.001,0.24-0.002,0.481-0.002,0.721c0,0.081,0.004,0.076-0.072,0.076c-0.347,0-0.694,0-1.041,0
		c-0.552-0.001-1.104-0.002-1.656-0.004c-0.104,0-0.207-0.004-0.311-0.006c-0.035-0.001-0.036-0.003-0.037-0.041
		c-0.001-0.038,0-0.076,0-0.114c0.001-0.23,0.003-0.461,0.003-0.691c0-0.032,0.008-0.057,0.032-0.08
		c0.181-0.174,0.36-0.349,0.54-0.523c0.011-0.01,0.023-0.019,0.035-0.029c0.117-0.018,0.236-0.016,0.354-0.018
		c0.206-0.005,0.412-0.025,0.619-0.02c0.045,0.001,0.091-0.002,0.136-0.01c0.037-0.006,0.076-0.008,0.113,0
		C18.351,7.498,18.357,7.518,18.32,7.57z"/>
	<path fill="#826EF8" d="M9.517,6.225c0.003-0.021,0.016-0.037,0.026-0.054c0.093-0.159,0.187-0.319,0.28-0.478
		c0.112-0.192,0.221-0.386,0.336-0.577c0.163-0.271,0.319-0.546,0.478-0.819c0.088-0.151,0.177-0.301,0.266-0.451
		c0.005-0.009,0.01-0.018,0.016-0.026c0.007-0.008,0.016-0.012,0.027-0.007c0.012,0.005,0.023,0.01,0.034,0.016
		c0.31,0.154,0.621,0.309,0.931,0.464c0.018,0.009,0.038,0.015,0.051,0.031c0,0.022-0.014,0.037-0.024,0.055
		c-0.212,0.363-0.424,0.725-0.636,1.088c-0.085,0.146-0.168,0.294-0.255,0.44c-0.062,0.104-0.126,0.207-0.19,0.31
		c-0.119-0.025-0.236,0.005-0.354,0.005c-0.27,0-0.54,0.002-0.81-0.002C9.634,6.219,9.577,6.254,9.517,6.225z"/>
	<path fill="#DA20FD" d="M15.685,8.082c0.01,0.016,0.007,0.034,0.007,0.052c0,0.273,0,0.546,0,0.819c0,0.013,0,0.025-0.001,0.038
		c-0.001,0.011-0.007,0.019-0.018,0.02c-0.018,0.001-0.035,0.002-0.053,0.001c-0.768-0.001-1.537-0.002-2.305-0.003
		c-0.02,0-0.04-0.003-0.06-0.005c-0.202-0.008-0.405-0.003-0.607-0.002c-0.053,0-0.069-0.014-0.068-0.068
		c0.003-0.24,0.003-0.481,0-0.721c-0.001-0.058,0.024-0.079,0.075-0.078c0.116,0.001,0.233-0.016,0.348-0.015
		c0.246,0.003,0.492-0.003,0.735-0.022c0.622-0.047,1.244-0.011,1.865-0.024C15.63,8.074,15.659,8.067,15.685,8.082z"/>
	<path fill="#9F55FA" d="M9.517,6.225c0.005,0,0.011,0.002,0.015,0c0.055-0.032,0.116-0.028,0.177-0.028c0.278,0,0.555,0,0.833,0
		c0.033,0,0.064-0.003,0.097-0.01c0.059-0.013,0.121-0.006,0.181-0.004c0.019,0.001,0.031,0.015,0.039,0.032
		c0.001,0.006-0.001,0.01-0.006,0.013c-0.003,0.005-0.007,0.011-0.01,0.016l0-0.001c-0.011,0.007-0.007,0.021-0.017,0.029l0,0.001
		c-0.006,0.006-0.011,0.012-0.012,0.021c0.001,0.005-0.001,0.008-0.005,0.01C10.804,6.31,10.8,6.316,10.797,6.322
		c0.001,0.006-0.001,0.01-0.006,0.013c-0.003,0.005-0.006,0.01-0.01,0.015c-0.003,0.005-0.005,0.011-0.008,0.016
		c-0.001,0.005-0.004,0.009-0.008,0.012L10.764,6.38c-0.005,0.006-0.011,0.012-0.012,0.02c0.001,0.005-0.001,0.009-0.006,0.011
		c-0.004,0.005-0.007,0.011-0.01,0.017c-0.002,0.005-0.004,0.009-0.006,0.014c-0.002,0.005-0.006,0.01-0.01,0.014
		c-0.001,0.013-0.008,0.023-0.018,0.032c-0.009,0.015-0.008,0.029,0,0.044c0.029,0.047,0.058,0.094,0.086,0.142
		c0.258,0.445,0.516,0.89,0.773,1.335c0.014,0.024,0.025,0.049,0.038,0.073c-0.015,0.016-0.036,0.019-0.056,0.017
		c-0.395-0.03-0.789,0.021-1.184,0.007c-0.028-0.001-0.056,0-0.083-0.005c-0.017-0.013-0.024-0.032-0.034-0.05
		c-0.13-0.225-0.26-0.451-0.391-0.676c-0.153-0.265-0.307-0.529-0.46-0.794c-0.01-0.017-0.019-0.036-0.03-0.052
		C9.35,6.512,9.352,6.497,9.362,6.48c0.042-0.069,0.077-0.142,0.125-0.207c0.011-0.006,0.008-0.022,0.018-0.029l0.001-0.001
		C9.509,6.237,9.516,6.233,9.517,6.225L9.517,6.225z"/>
	<path fill="#B93EFB" d="M10.276,8.101c0.008-0.011,0.018-0.018,0.031-0.019c0.02-0.001,0.04-0.001,0.061-0.001
		c0.144,0,0.288,0,0.432,0c0.058,0,0.116,0.006,0.173-0.013c0.016-0.005,0.035-0.002,0.053-0.002c0.114,0,0.227-0.001,0.341,0
		c0.063,0,0.126-0.006,0.188,0.014c0.014,0.004,0.03,0.001,0.045,0.002c0.042,0.069,0.086,0.137,0.126,0.207
		c0.202,0.351,0.403,0.702,0.605,1.053c0.045,0.079,0.092,0.157,0.138,0.236c0.01,0.017,0.018,0.036,0.027,0.054
		c-0.018,0.018-0.041,0.015-0.064,0.014c-0.419-0.02-0.837,0.014-1.256,0.016c-0.047-0.06-0.079-0.128-0.117-0.194
		c-0.1-0.173-0.197-0.347-0.296-0.52c-0.149-0.258-0.299-0.515-0.448-0.773C10.3,8.151,10.282,8.129,10.276,8.101z"/>
	<path fill="#7E71F8" d="M16.553,5.077c-0.002-0.007-0.006-0.014-0.007-0.021c-0.008-0.136-0.015-0.273-0.023-0.409
		c-0.005-0.088-0.011-0.177-0.017-0.265c-0.001-0.013-0.001-0.025-0.002-0.038c-0.003-0.022,0.01-0.033,0.029-0.037
		c0.044-0.01,0.089-0.02,0.133-0.029c0.206-0.043,0.412-0.081,0.621-0.104c0.292-0.033,0.585-0.057,0.879-0.04
		c0.2,0.012,0.397,0.047,0.585,0.121c0.235,0.093,0.428,0.239,0.56,0.458c0.036,0.06,0.073,0.121,0.088,0.192
		c-0.078,0.047-0.168,0.037-0.25,0.038c-0.235,0-0.47,0.012-0.705,0.021c-0.333,0.014-0.667,0.026-1,0.038
		c-0.25,0.009-0.5,0.022-0.751,0.02C16.637,5.02,16.589,5.031,16.553,5.077z"/>
	<path fill="#CD2BFC" d="M11.175,9.662c0.009-0.017,0.021-0.029,0.041-0.03c0.018-0.001,0.035-0.001,0.053-0.001
		c0.132,0,0.263,0,0.395,0c0.04,0,0.081,0.003,0.12-0.012c0.016-0.006,0.035-0.003,0.053-0.003c0.177,0,0.354,0,0.531,0
		c0.025,0,0.05,0,0.075,0.009c0.016,0.006,0.035,0.004,0.052,0.006c0.004,0.002,0.006,0.005,0.004,0.009
		c0.001,0.009,0.007,0.015,0.013,0.021l0,0.001c0.01,0.007,0.006,0.022,0.017,0.029l0-0.001c0.004,0.005,0.008,0.01,0.011,0.016
		c0.005,0.002,0.006,0.006,0.005,0.011c0.002,0.008,0.007,0.013,0.012,0.019c0.004,0.001,0.006,0.004,0.004,0.009
		c0.001,0.01,0.007,0.016,0.013,0.022l0,0c0.009,0.008,0.006,0.023,0.017,0.03L12.59,9.797c0.004,0.005,0.007,0.011,0.011,0.016
		c0.005,0.002,0.006,0.006,0.005,0.011c0.002,0.008,0.007,0.014,0.012,0.02c0.004,0.001,0.005,0.004,0.004,0.008
		c0,0.01,0.006,0.017,0.013,0.023l0,0c0.004,0.004,0.008,0.009,0.01,0.015c0.005,0.003,0.007,0.007,0.006,0.013
		c0.003,0.006,0.007,0.012,0.011,0.018c0.004,0.002,0.006,0.005,0.005,0.01c0.001,0.009,0.007,0.015,0.012,0.021l0,0.001
		c0.01,0.007,0.006,0.022,0.016,0.029l0,0c0.004,0.005,0.008,0.01,0.011,0.015c0.047,0.08,0.095,0.16,0.142,0.241
		c0.144,0.248,0.289,0.497,0.433,0.745c0.01,0.017,0.02,0.035,0.029,0.052c-0.006,0.023-0.033,0.009-0.042,0.025
		c-0.007,0.013-0.015,0.026-0.023,0.039c-0.005,0.008-0.012,0.016-0.018,0.024c-0.058-0.049-0.128-0.043-0.195-0.036
		c-0.254,0.026-0.509,0.009-0.764,0.013c-0.086,0.001-0.171,0.001-0.257,0.006c-0.006-0.008-0.013-0.015-0.018-0.024
		c-0.136-0.234-0.272-0.468-0.408-0.702c-0.006-0.011-0.01-0.023-0.015-0.034c-0.006-0.002-0.008-0.005-0.008-0.011
		c-0.003-0.006-0.005-0.011-0.008-0.017c-0.004-0.004-0.007-0.009-0.01-0.014c-0.002-0.004-0.004-0.009-0.006-0.013
		c-0.003-0.006-0.006-0.012-0.011-0.017c-0.005-0.002-0.006-0.006-0.005-0.011c-0.001-0.009-0.006-0.014-0.012-0.02l-0.001-0.002
		c-0.005-0.003-0.007-0.007-0.009-0.012c-0.002-0.005-0.005-0.01-0.007-0.016c-0.004-0.005-0.007-0.01-0.01-0.015
		c-0.005-0.003-0.007-0.007-0.006-0.013c-0.002-0.007-0.007-0.012-0.011-0.018c-0.004-0.002-0.006-0.005-0.005-0.01
		c0-0.009-0.006-0.015-0.012-0.021l-0.001-0.001c-0.004-0.004-0.008-0.008-0.009-0.013c-0.002-0.005-0.005-0.01-0.007-0.015
		c-0.004-0.005-0.007-0.011-0.01-0.016c-0.005-0.003-0.007-0.007-0.006-0.012c-0.002-0.008-0.007-0.014-0.012-0.02l-0.001-0.002
		c-0.01-0.007-0.006-0.021-0.016-0.028l0-0.001c-0.004-0.004-0.008-0.009-0.01-0.014c-0.002-0.005-0.004-0.009-0.006-0.014
		c-0.003-0.006-0.007-0.012-0.011-0.017c-0.005-0.002-0.006-0.006-0.005-0.011c-0.001-0.008-0.007-0.014-0.012-0.02l-0.001-0.001
		c-0.01-0.007-0.006-0.021-0.016-0.028l0,0c-0.004-0.004-0.007-0.009-0.01-0.015c-0.005-0.003-0.007-0.007-0.006-0.013
		c-0.003-0.006-0.007-0.012-0.011-0.018c-0.004-0.002-0.006-0.005-0.005-0.01c-0.001-0.009-0.006-0.015-0.012-0.021l0-0.001
		c-0.009-0.007-0.006-0.022-0.016-0.029l0,0c-0.004-0.005-0.007-0.01-0.01-0.016c-0.005-0.003-0.007-0.007-0.006-0.012
		c-0.002-0.007-0.007-0.013-0.011-0.019c-0.004-0.002-0.006-0.005-0.005-0.009c0-0.009-0.006-0.016-0.013-0.022l0-0.001
		c-0.009-0.008-0.006-0.023-0.017-0.029l0.001,0.001c-0.003-0.005-0.007-0.011-0.011-0.016c-0.005-0.002-0.006-0.006-0.006-0.011
		C11.187,9.674,11.182,9.667,11.175,9.662L11.175,9.662z"/>
	<path fill="#9160F9" d="M15.476,4.8c0.055,0.092,0.083,0.195,0.105,0.298c0.035,0.164,0.043,0.331,0.038,0.498
		c-0.004,0.117-0.019,0.232-0.038,0.347c-0.002,0.015-0.003,0.03-0.014,0.043c-0.11,0.019-0.221,0.011-0.331,0.015
		c-0.231,0.009-0.463,0.028-0.695,0.022c-0.013,0-0.025-0.002-0.036-0.008c0.007-0.022,0.013-0.043,0.02-0.065
		c0.048-0.146,0.068-0.295,0.04-0.448c-0.025-0.138-0.097-0.242-0.217-0.313c-0.057-0.034-0.118-0.056-0.182-0.072
		c-0.161-0.041-0.324-0.048-0.489-0.038c-0.121,0.008-0.242,0.013-0.363,0.025c-0.148,0.015-0.296,0.034-0.444,0.053
		c-0.055,0.007-0.11,0.016-0.165,0.023c-0.024,0.003-0.033-0.004-0.035-0.028c-0.005-0.07-0.012-0.141-0.008-0.212
		c-0.016-0.041,0.002-0.062,0.041-0.072c0.034-0.008,0.069-0.017,0.105-0.016c0.185,0.006,0.368-0.015,0.553-0.017
		c0.391-0.006,0.782-0.026,1.173-0.042c0.174-0.007,0.348-0.012,0.522-0.018c0.114-0.004,0.227,0.006,0.341-0.007
		C15.428,4.766,15.458,4.769,15.476,4.8z"/>
	<path fill="#7A75F8" d="M15.476,4.8c-0.023-0.012-0.047-0.021-0.072-0.009C15.38,4.802,15.355,4.8,15.33,4.8
		c-0.099,0-0.197,0-0.296,0c-0.053,0-0.106-0.005-0.158,0.013c-0.016,0.005-0.035,0.002-0.053,0.002c-0.073,0-0.147,0-0.22,0
		c-0.045,0-0.091-0.004-0.135,0.012c-0.016,0.006-0.035,0.003-0.053,0.003c-0.078,0-0.157,0-0.235,0c-0.04,0-0.08-0.003-0.12,0.012
		c-0.018,0.007-0.04,0.003-0.06,0.003c-0.076,0-0.152,0-0.227,0c-0.035,0-0.07-0.001-0.105,0.011
		c-0.018,0.007-0.04,0.004-0.06,0.004c-0.099,0-0.197,0-0.296,0c-0.058,0-0.116-0.006-0.173,0.013
		c-0.016,0.005-0.035,0.002-0.053,0.002c-0.073,0-0.147,0.003-0.22-0.001c-0.061-0.003-0.12,0.012-0.18,0.018
		c-0.028,0.003-0.022,0.029-0.026,0.048c-0.003-0.012-0.008-0.024-0.009-0.036c-0.012-0.179-0.023-0.359-0.035-0.538
		c0-0.008-0.001-0.015-0.001-0.023c0-0.036,0.001-0.039,0.035-0.047c0.183-0.041,0.366-0.077,0.552-0.104
		c0.148-0.022,0.296-0.044,0.444-0.056c0.247-0.02,0.495-0.031,0.743-0.003c0.184,0.021,0.364,0.06,0.535,0.136
		c0.226,0.101,0.406,0.255,0.526,0.474C15.462,4.762,15.476,4.778,15.476,4.8z"/>
	<path fill="#B640FB" d="M18.32,7.57c0.004-0.009,0.007-0.019,0.012-0.027c0.009-0.014,0.004-0.023-0.01-0.028
		c-0.012-0.004-0.024-0.01-0.036-0.01c-0.042,0.001-0.085-0.006-0.127,0.009c-0.018,0.006-0.04,0.006-0.06,0.006
		c-0.073,0.001-0.146,0-0.219,0c-0.043,0-0.085-0.003-0.127,0.012c-0.016,0.006-0.035,0.003-0.052,0.003c-0.081,0-0.161,0-0.242,0
		c-0.038,0-0.075-0.003-0.112,0.012c-0.013,0.005-0.03,0.003-0.045,0.003c-0.053,0-0.106-0.001-0.159,0
		c-0.026,0-0.05-0.004-0.073-0.016c0.021-0.035,0.056-0.057,0.085-0.085c0.106-0.105,0.215-0.207,0.321-0.312
		c0.187-0.185,0.37-0.375,0.544-0.572c0.079-0.089,0.151-0.184,0.22-0.281c0.01-0.014,0.021-0.028,0.032-0.042
		c0.006-0.006,0.012-0.012,0.013-0.021c-0.001-0.005,0.001-0.008,0.005-0.009c0.004-0.006,0.007-0.011,0.011-0.017l-0.001,0.001
		c0.042-0.034,0.092-0.037,0.143-0.038c0.257-0.003,0.513-0.012,0.769-0.03c0.043-0.003,0.086-0.005,0.128,0.003
		c0.036,0.006,0.072,0.017,0.057,0.068c0.002,0.005,0.001,0.01-0.003,0.014c-0.007,0.009-0.004,0.022-0.012,0.031
		c-0.001,0.005-0.003,0.01-0.004,0.015c-0.004,0.007-0.01,0.012-0.009,0.02c0.002,0.004,0.001,0.008-0.004,0.01
		c-0.009,0.008-0.005,0.021-0.014,0.029l0,0.001c-0.009,0.008-0.006,0.022-0.015,0.029l0,0.001c-0.009,0.008-0.006,0.022-0.014,0.03
		c-0.002,0.005-0.004,0.011-0.006,0.016c-0.002,0.005-0.005,0.01-0.009,0.015c-0.002,0.005-0.004,0.01-0.006,0.015
		c-0.002,0.005-0.006,0.01-0.01,0.015c-0.002,0.005-0.004,0.011-0.007,0.016c-0.002,0.005-0.005,0.01-0.009,0.013
		c-0.014,0.044-0.041,0.08-0.065,0.119c-0.105,0.17-0.236,0.32-0.367,0.47c-0.157,0.178-0.331,0.338-0.505,0.499
		C18.334,7.564,18.327,7.566,18.32,7.57z"/>
	<path fill="#9959FA" d="M19.398,6.2c-0.003-0.029-0.018-0.048-0.048-0.047c-0.07,0.003-0.141-0.011-0.211,0.011
		c-0.016,0.005-0.035,0.003-0.053,0.003c-0.068,0-0.137,0-0.205,0c-0.048,0-0.096-0.005-0.143,0.012
		c-0.016,0.006-0.035,0.003-0.053,0.003c-0.058,0-0.116,0-0.174,0c-0.06,0-0.121-0.004-0.18,0.014c-0.009,0.003-0.02,0-0.03,0
		c0.013-0.027,0.026-0.054,0.039-0.081c0.088-0.169,0.132-0.348,0.116-0.539c-0.007-0.084-0.03-0.163-0.074-0.236
		c-0.029-0.048-0.071-0.085-0.112-0.122c-0.006,0-0.009-0.003-0.011-0.009l-0.003-0.002c-0.006-0.004-0.011-0.009-0.018-0.012
		c-0.005-0.002-0.009-0.004-0.014-0.007c-0.005-0.002-0.01-0.006-0.014-0.01c-0.006-0.002-0.011-0.004-0.017-0.007
		c-0.005-0.002-0.01-0.005-0.014-0.008c-0.005-0.002-0.011-0.003-0.016-0.005c-0.005-0.003-0.011-0.006-0.017-0.009
		c-0.01-0.003-0.02-0.006-0.029-0.009c-0.005-0.001-0.01-0.004-0.015-0.007c-0.01-0.002-0.02-0.005-0.03-0.007
		c-0.006-0.003-0.012-0.005-0.018-0.007c-0.014-0.003-0.029-0.005-0.043-0.008c-0.01-0.003-0.021-0.003-0.031-0.009
		c-0.021,0.002-0.041,0-0.06-0.006c-0.016-0.005-0.033-0.001-0.048-0.008c-0.137-0.002-0.274-0.003-0.412,0.003
		c-0.017,0.001-0.035-0.002-0.052-0.004c-0.03,0.013-0.063,0-0.093,0.009c-0.034,0.007-0.069,0.009-0.103,0.007
		c-0.02,0.009-0.043,0.001-0.064,0.009c-0.029,0.007-0.058,0.009-0.088,0.007c-0.016,0.007-0.033,0.003-0.049,0.008
		c-0.025,0.006-0.049,0.009-0.075,0.006c-0.014,0.009-0.032,0.003-0.047,0.009c-0.024,0.007-0.049,0.009-0.074,0.007
		c-0.01,0.004-0.021,0.005-0.032,0.007c-0.024,0.007-0.049,0.01-0.075,0.008c-0.015,0.008-0.032,0.003-0.047,0.009
		c-0.019,0.007-0.039,0.009-0.059,0.007c-0.015,0.006-0.031,0.009-0.045-0.002c-0.009-0.034-0.009-0.068-0.006-0.103
		c0.001-0.013,0.001-0.025,0.003-0.038C16.562,5.01,16.573,5,16.602,4.998c0.018-0.001,0.035-0.001,0.053-0.001
		c0.084,0,0.167,0,0.251,0c0.018,0,0.037,0.003,0.053-0.002c0.052-0.018,0.105-0.012,0.158-0.013c0.081-0.001,0.162,0,0.243,0
		c0.048,0,0.096,0.005,0.143-0.012c0.016-0.006,0.035-0.003,0.053-0.003c0.076,0,0.152,0,0.228,0c0.043,0,0.086,0.004,0.128-0.012
		c0.016-0.006,0.035-0.003,0.053-0.003c0.068,0,0.137,0,0.205,0c0.053-0.001,0.106,0.005,0.158-0.013
		c0.016-0.005,0.035-0.002,0.053-0.002c0.081,0,0.162,0,0.243,0c0.035,0,0.07,0.002,0.105-0.011c0.018-0.007,0.04-0.004,0.06-0.004
		c0.106,0,0.213,0,0.319,0c0.043,0,0.086,0.003,0.128-0.012c0.016-0.006,0.035-0.003,0.053-0.003
		c0.038-0.001,0.076-0.002,0.114-0.002c0,0-0.001,0-0.001,0c0.005,0.011,0.004,0.024,0.013,0.033
		c0.004,0.002,0.005,0.005,0.002,0.009c0.004,0.012,0.003,0.026,0.013,0.037c0.035,0.079,0.047,0.165,0.058,0.249
		c0.033,0.26,0.023,0.518-0.028,0.775C19.443,6.072,19.429,6.139,19.398,6.2z"/>
	<path fill="#AE46FB" d="M14.506,6.015C14.528,6,14.553,6,14.578,6C14.636,6,14.694,6,14.752,6c0.045,0,0.09,0.004,0.135-0.012
		c0.016-0.006,0.035-0.003,0.053-0.003c0.076,0,0.151,0,0.227,0c0.038,0,0.075,0.003,0.112-0.012
		c0.011-0.005,0.025-0.003,0.037-0.003c0.068,0,0.136,0,0.204,0c0.018,0,0.036,0,0.048,0.016c-0.001,0.059-0.022,0.114-0.039,0.169
		c-0.052,0.168-0.13,0.322-0.228,0.469c-0.12,0.18-0.263,0.34-0.407,0.499c-0.007,0.007-0.016,0.012-0.024,0.018
		c-0.05,0.007-0.101,0.008-0.151,0.008c-0.336-0.004-0.672,0.03-1.008,0.029c-0.043,0-0.094,0.012-0.121-0.041
		c0.006-0.008,0.011-0.017,0.018-0.024c0.118-0.121,0.238-0.241,0.355-0.364c0.175-0.183,0.336-0.378,0.469-0.594
		C14.459,6.111,14.481,6.062,14.506,6.015z"/>
	<path fill="#C433FC" d="M13.59,7.137c0.022,0.014,0.046,0.018,0.072,0.018c0.083-0.001,0.166,0,0.249,0
		c0.008,0,0.016,0.001,0.023-0.001c0.094-0.025,0.19-0.011,0.285-0.015c0.058-0.002,0.116,0.006,0.172-0.014
		c0.011-0.004,0.025-0.002,0.038-0.002c0.126,0,0.252,0,0.378,0c0.022,0,0.046-0.005,0.063,0.016c0,0,0,0,0,0
		c-0.008,0.003-0.013,0.009-0.015,0.017l0.001-0.001c-0.008,0.003-0.014,0.008-0.016,0.017l0.001-0.001
		c-0.008,0.002-0.014,0.008-0.016,0.016l0.001-0.001c-0.009,0.002-0.014,0.008-0.016,0.016l0.001-0.001
		c-0.008,0.002-0.014,0.008-0.016,0.016l0.001-0.001c-0.008,0.003-0.013,0.008-0.016,0.016l0.001-0.001
		c-0.008,0.003-0.014,0.008-0.016,0.016l0.001-0.001c-0.008,0.003-0.014,0.008-0.016,0.016l0.001-0.001
		c-0.009,0.002-0.014,0.008-0.016,0.016l0.001-0.001c-0.009,0.002-0.014,0.007-0.016,0.016l0.001-0.001
		c-0.01,0.002-0.014,0.008-0.016,0.017c-0.03,0.04-0.064,0.075-0.106,0.104c-0.007,0.003-0.013,0.008-0.016,0.015l0,0
		c-0.007,0.003-0.012,0.008-0.016,0.015l0,0c-0.006,0.004-0.011,0.009-0.015,0.014L14.549,7.46c-0.005,0.004-0.01,0.009-0.015,0.014
		l-0.001,0.001c-0.005,0.005-0.009,0.009-0.014,0.013l-0.002,0.001c-0.004,0.005-0.009,0.009-0.014,0.013l-0.002,0.002
		c-0.003,0.005-0.008,0.009-0.013,0.013l-0.003,0.003c-0.003,0.005-0.007,0.009-0.013,0.012l-0.003,0.003
		c-0.002,0.006-0.006,0.009-0.012,0.011L14.453,7.55c0,0.006-0.003,0.009-0.009,0.009c-0.059,0.062-0.124,0.119-0.187,0.177
		c-0.112,0.102-0.223,0.205-0.335,0.308c-0.004,0.003-0.006,0.008-0.009,0.012c0.01,0.022,0.031,0.012,0.046,0.012
		c0.248,0.001,0.495,0,0.743,0.001c0.308,0.001,0.617,0.002,0.925,0.004c0.019,0,0.041-0.008,0.057,0.01c-0.532,0-1.064,0-1.596,0
		c-0.046,0-0.09,0.004-0.135,0.015c-0.083,0.02-0.168,0.032-0.254,0.031c-0.068-0.001-0.137,0-0.205,0c-0.033,0-0.065,0-0.097,0.01
		c-0.021,0.007-0.045,0.004-0.068,0.005c-0.114,0-0.228,0-0.342,0c-0.03,0-0.06,0-0.09,0.01c-0.018,0.006-0.04,0.005-0.06,0.005
		c-0.061,0.001-0.122,0-0.182,0c-0.065,0.001-0.066,0.001-0.066,0.069c-0.001,0.068,0,0.137,0,0.205c0,0.154,0,0.309,0,0.463
		c0,0.015,0,0.03,0,0.046c0.002,0.047,0.005,0.052,0.053,0.052c0.18,0.001,0.36,0,0.539,0.001c0.025,0,0.051-0.008,0.073,0.01
		c-0.013,0.001-0.025,0.002-0.038,0.003c-0.2,0-0.4,0-0.6,0c-0.036,0-0.039-0.004-0.041-0.039c-0.001-0.018,0-0.035,0-0.053
		c0-0.235-0.001-0.47,0.001-0.706c0.001-0.118-0.018-0.08,0.073-0.169c0.088-0.087,0.18-0.17,0.269-0.257
		c0.125-0.121,0.249-0.244,0.374-0.366c0.018-0.017,0.038-0.033,0.056-0.05c0.004-0.005,0.009-0.01,0.015-0.014l0.001-0.001
		c0.003-0.005,0.008-0.009,0.013-0.012c0.011-0.014,0.022-0.028,0.039-0.036c0.011-0.002,0.018-0.006,0.019-0.018l-0.002,0.002
		c0.01-0.001,0.016-0.007,0.017-0.017l-0.002,0.002c0.01-0.001,0.015-0.007,0.017-0.017l-0.002,0.002
		c0.01-0.001,0.015-0.007,0.017-0.017l-0.002,0.002c0.009-0.002,0.015-0.007,0.017-0.017l-0.002,0.002
		c0.009-0.002,0.015-0.008,0.017-0.017l-0.002,0.002c0.009-0.002,0.014-0.008,0.017-0.017l-0.002,0.002
		c0.009-0.002,0.014-0.008,0.017-0.017l-0.001,0.001c0.008-0.003,0.014-0.008,0.017-0.017l-0.001,0.001
		c0.008-0.003,0.014-0.008,0.017-0.016l-0.001,0.001C13.582,7.151,13.588,7.145,13.59,7.137L13.59,7.137z"/>
	<path fill="#E318FE" d="M12.012,11.104c0.009-0.017,0.022-0.027,0.042-0.028c0.02-0.001,0.04-0.001,0.06-0.001
		c0.249,0,0.499,0,0.748,0c0.035,0,0.069-0.002,0.104-0.01c0.036-0.008,0.075-0.004,0.113-0.005c0.03,0,0.061-0.001,0.091,0
		c0.043,0.002,0.048,0.007,0.057,0.061c-0.002,0.021-0.015,0.037-0.024,0.055c-0.169,0.317-0.339,0.633-0.509,0.95
		c-0.013,0.024-0.028,0.047-0.04,0.067c-0.019,0.002-0.021-0.01-0.025-0.018c-0.202-0.348-0.403-0.696-0.605-1.044
		C12.019,11.122,12.016,11.113,12.012,11.104z"/>
	<path fill="#7E71F8" d="M17.316,5.099c0.029-0.02,0.062-0.009,0.093-0.009C17.379,5.103,17.348,5.103,17.316,5.099z"/>
	<path fill="#7E71F8" d="M17.149,5.114c0.019-0.017,0.042-0.009,0.064-0.009C17.193,5.118,17.171,5.118,17.149,5.114z"/>
	<path fill="#7E71F8" d="M17.873,5.09c0.017-0.002,0.034-0.006,0.048,0.008C17.904,5.102,17.888,5.101,17.873,5.09z"/>
	<path fill="#7E71F8" d="M17.012,5.129c0.014-0.014,0.032-0.01,0.049-0.008C17.046,5.132,17.03,5.133,17.012,5.129z"/>
	<path fill="#7E71F8" d="M16.891,5.144c0.014-0.014,0.03-0.01,0.047-0.009C16.923,5.146,16.907,5.147,16.891,5.144z"/>
	<path fill="#7E71F8" d="M16.663,5.175c0.014-0.014,0.031-0.01,0.047-0.009C16.696,5.178,16.68,5.178,16.663,5.175z"/>
	<path fill="#826EF8" d="M10.702,6.531c-0.016-0.022-0.016-0.023,0-0.044C10.702,6.502,10.702,6.517,10.702,6.531z"/>
	<path fill="#7E71F8" d="M16.559,5.18c0.015,0.001,0.03,0.001,0.045,0.002C16.589,5.19,16.573,5.202,16.559,5.18z"/>
	<path fill="#826EF8" d="M9.505,6.245C9.504,6.257,9.5,6.268,9.487,6.273C9.487,6.26,9.493,6.251,9.505,6.245z"/>
	<path fill="#7E71F8" d="M16.785,5.159c0.009-0.009,0.021-0.009,0.032-0.007C16.808,5.16,16.797,5.162,16.785,5.159z"/>
	<path fill="#9959FA" d="M19.382,6.245c-0.001-0.012,0.001-0.024,0.012-0.031C19.396,6.226,19.392,6.236,19.382,6.245z"/>
	<path fill="#9959FA" d="M19.351,6.319c0-0.012,0.002-0.023,0.014-0.029C19.366,6.302,19.363,6.312,19.351,6.319z"/>
	<path fill="#7E71F8" d="M17.981,5.105c0.011-0.001,0.022-0.001,0.031,0.009C18,5.116,17.99,5.114,17.981,5.105z"/>
	<path fill="#9959FA" d="M19.321,6.38c-0.001-0.013,0.002-0.024,0.014-0.03C19.336,6.362,19.332,6.373,19.321,6.38z"/>
	<path fill="#826EF8" d="M10.826,6.273c0-0.013,0.004-0.024,0.017-0.029C10.842,6.256,10.837,6.266,10.826,6.273z"/>
	<path fill="#7E71F8" d="M19.412,4.936c-0.013-0.007-0.015-0.019-0.013-0.033C19.41,4.912,19.413,4.923,19.412,4.936z"/>
	<path fill="#7E71F8" d="M19.427,4.982c-0.014-0.009-0.014-0.022-0.013-0.037C19.425,4.955,19.428,4.968,19.427,4.982z"/>
	<path fill="#B93EFB" d="M12.529,9.692c-0.013-0.006-0.016-0.017-0.017-0.029C12.523,9.669,12.529,9.679,12.529,9.692z"/>
	<path fill="#B93EFB" d="M11.204,9.708c0.014,0.005,0.017,0.016,0.017,0.029C11.21,9.731,11.205,9.721,11.204,9.708z"/>
	<path fill="#9959FA" d="M19.336,6.349c0-0.012,0.003-0.023,0.015-0.029C19.351,6.332,19.346,6.342,19.336,6.349z"/>
	<path fill="#B93EFB" d="M12.59,9.798c-0.013-0.005-0.017-0.017-0.017-0.03C12.585,9.775,12.59,9.785,12.59,9.798z"/>
	<path fill="#B93EFB" d="M11.266,9.815c0.013,0.005,0.016,0.016,0.016,0.029C11.271,9.837,11.266,9.827,11.266,9.815z"/>
	<path fill="#B93EFB" d="M11.327,9.921c0.012,0.005,0.016,0.016,0.016,0.028C11.332,9.943,11.327,9.933,11.327,9.921z"/>
	<path fill="#B93EFB" d="M12.696,9.981c-0.013-0.006-0.016-0.016-0.016-0.029C12.69,9.958,12.696,9.968,12.696,9.981z"/>
	<path fill="#B93EFB" d="M11.388,10.027c0.012,0.005,0.015,0.016,0.016,0.028C11.394,10.048,11.388,10.039,11.388,10.027z"/>
	<path fill="#9959FA" d="M18.301,6.196c-0.004,0.006-0.007,0.011-0.011,0.017C18.29,6.204,18.293,6.198,18.301,6.196z"/>
	<path fill="#826EF8" d="M9.518,6.225C9.513,6.231,9.509,6.237,9.505,6.244C9.505,6.235,9.509,6.228,9.518,6.225z"/>
	<path fill="#826EF8" d="M10.842,6.244c0.003-0.005,0.007-0.01,0.01-0.016C10.853,6.237,10.849,6.242,10.842,6.244z"/>
	<path fill="#9959FA" d="M18.285,6.222c-0.001,0.01-0.005,0.017-0.013,0.021C18.272,6.234,18.277,6.226,18.285,6.222z"/>
	<path fill="#9959FA" d="M19.369,6.279c-0.001-0.008,0.002-0.015,0.009-0.02C19.379,6.268,19.376,6.275,19.369,6.279z"/>
	<path fill="#826EF8" d="M10.797,6.322c0.004-0.006,0.007-0.012,0.011-0.018C10.809,6.313,10.805,6.319,10.797,6.322z"/>
	<path fill="#826EF8" d="M10.781,6.35c0.003-0.005,0.007-0.01,0.01-0.015C10.792,6.343,10.788,6.348,10.781,6.35z"/>
	<path fill="#826EF8" d="M10.765,6.378c0.001-0.005,0.004-0.009,0.008-0.012C10.774,6.373,10.771,6.377,10.765,6.378z"/>
	<path fill="#826EF8" d="M10.752,6.4c0-0.009,0.004-0.016,0.012-0.02C10.764,6.389,10.761,6.396,10.752,6.4z"/>
	<path fill="#9959FA" d="M19.306,6.412c0.003-0.005,0.006-0.01,0.009-0.015C19.317,6.404,19.313,6.409,19.306,6.412z"/>
	<path fill="#826EF8" d="M10.736,6.428c0.004-0.006,0.007-0.011,0.011-0.017C10.747,6.42,10.744,6.425,10.736,6.428z"/>
	<path fill="#9959FA" d="M19.291,6.441c0.003-0.005,0.006-0.01,0.01-0.015C19.301,6.434,19.298,6.439,19.291,6.441z"/>
	<path fill="#826EF8" d="M10.72,6.456c0.003-0.005,0.007-0.009,0.01-0.014C10.73,6.449,10.727,6.454,10.72,6.456z"/>
	<path fill="#9959FA" d="M19.276,6.471c0.003-0.004,0.006-0.009,0.009-0.013C19.286,6.465,19.282,6.469,19.276,6.471z"/>
	<path fill="#826EF8" d="M10.813,6.294c0-0.009,0.004-0.016,0.012-0.021C10.825,6.283,10.822,6.29,10.813,6.294z"/>
	<path fill="#AE46FB" d="M13.591,7.137c-0.002,0.009-0.008,0.014-0.017,0.016C13.576,7.144,13.581,7.139,13.591,7.137z"/>
	<path fill="#AE46FB" d="M14.855,7.157c0.002-0.009,0.007-0.014,0.015-0.017C14.869,7.15,14.864,7.155,14.855,7.157z"/>
	<path fill="#AE46FB" d="M13.575,7.152c-0.002,0.009-0.008,0.015-0.017,0.016C13.56,7.159,13.566,7.154,13.575,7.152z"/>
	<path fill="#AE46FB" d="M14.84,7.173c0.002-0.009,0.007-0.015,0.016-0.017C14.854,7.165,14.849,7.171,14.84,7.173z"/>
	<path fill="#AE46FB" d="M13.56,7.167c-0.002,0.009-0.008,0.015-0.017,0.017C13.545,7.174,13.551,7.169,13.56,7.167z"/>
	<path fill="#AE46FB" d="M14.825,7.188c0.002-0.009,0.007-0.015,0.016-0.016C14.839,7.181,14.834,7.186,14.825,7.188z"/>
	<path fill="#AE46FB" d="M13.545,7.182c-0.002,0.009-0.008,0.015-0.017,0.017C13.53,7.189,13.535,7.184,13.545,7.182z"/>
	<path fill="#AE46FB" d="M14.809,7.203c0.002-0.009,0.007-0.015,0.016-0.016C14.824,7.196,14.818,7.202,14.809,7.203z"/>
	<path fill="#AE46FB" d="M13.529,7.197c-0.002,0.009-0.007,0.015-0.017,0.017C13.514,7.205,13.52,7.199,13.529,7.197z"/>
	<path fill="#AE46FB" d="M14.794,7.218c0.002-0.009,0.007-0.014,0.016-0.016C14.808,7.211,14.803,7.216,14.794,7.218z"/>
	<path fill="#AE46FB" d="M13.514,7.212c-0.002,0.009-0.007,0.015-0.017,0.017C13.499,7.22,13.505,7.214,13.514,7.212z"/>
	<path fill="#AE46FB" d="M14.779,7.233c0.002-0.009,0.007-0.014,0.016-0.016C14.793,7.226,14.788,7.232,14.779,7.233z"/>
	<path fill="#AE46FB" d="M13.499,7.227c-0.002,0.01-0.007,0.015-0.017,0.017C13.484,7.235,13.489,7.229,13.499,7.227z"/>
	<path fill="#AE46FB" d="M14.764,7.249c0.002-0.009,0.007-0.014,0.016-0.016C14.778,7.241,14.773,7.247,14.764,7.249z"/>
	<path fill="#AE46FB" d="M13.483,7.242c-0.002,0.01-0.007,0.015-0.017,0.017C13.468,7.25,13.474,7.244,13.483,7.242z"/>
	<path fill="#AE46FB" d="M14.749,7.264c0.002-0.009,0.007-0.015,0.016-0.016C14.763,7.257,14.758,7.262,14.749,7.264z"/>
	<path fill="#AE46FB" d="M13.468,7.257c-0.001,0.01-0.007,0.015-0.017,0.017C13.453,7.265,13.458,7.259,13.468,7.257z"/>
	<path fill="#AE46FB" d="M14.734,7.28c0.001-0.009,0.007-0.015,0.016-0.016C14.748,7.272,14.743,7.278,14.734,7.28z"/>
	<path fill="#AE46FB" d="M13.452,7.272c-0.001,0.01-0.007,0.015-0.017,0.017C13.437,7.28,13.443,7.274,13.452,7.272z"/>
	<path fill="#AE46FB" d="M14.719,7.295c0.001-0.009,0.007-0.015,0.016-0.016C14.733,7.287,14.728,7.293,14.719,7.295z"/>
	<path fill="#AE46FB" d="M13.437,7.287c-0.002,0.011-0.009,0.016-0.019,0.018C13.421,7.296,13.427,7.289,13.437,7.287z"/>
	<path fill="#AE46FB" d="M14.703,7.311c0.002-0.01,0.007-0.015,0.016-0.017C14.718,7.303,14.712,7.309,14.703,7.311z"/>
	<path fill="#AE46FB" d="M13.379,7.341c-0.004,0.004-0.009,0.008-0.013,0.012C13.366,7.345,13.371,7.341,13.379,7.341z"/>
	<path fill="#AE46FB" d="M13.364,7.354c-0.005,0.005-0.01,0.009-0.015,0.014C13.351,7.359,13.356,7.354,13.364,7.354z"/>
	<path fill="#AE46FB" d="M14.581,7.43c0.002-0.008,0.008-0.013,0.016-0.015C14.595,7.423,14.59,7.428,14.581,7.43z"/>
	<path fill="#AE46FB" d="M14.565,7.444c0.002-0.008,0.008-0.013,0.016-0.015C14.579,7.438,14.574,7.443,14.565,7.444z"/>
	<path fill="#AE46FB" d="M14.55,7.459c0.002-0.008,0.007-0.013,0.015-0.014C14.563,7.453,14.558,7.458,14.55,7.459z"/>
	<path fill="#AE46FB" d="M14.534,7.473c0.005-0.005,0.01-0.009,0.015-0.014C14.548,7.468,14.543,7.473,14.534,7.473z"/>
	<path fill="#AE46FB" d="M14.519,7.488c0.005-0.004,0.01-0.009,0.014-0.013C14.532,7.483,14.527,7.487,14.519,7.488z"/>
	<path fill="#AE46FB" d="M14.504,7.502c0.005-0.004,0.009-0.009,0.014-0.013C14.516,7.498,14.512,7.502,14.504,7.502z"/>
	<path fill="#AE46FB" d="M14.488,7.517c0.004-0.004,0.009-0.008,0.013-0.013C14.501,7.512,14.496,7.516,14.488,7.517z"/>
	<path fill="#AE46FB" d="M14.473,7.531c0.004-0.004,0.008-0.008,0.013-0.012C14.485,7.527,14.48,7.531,14.473,7.531z"/>
	<path fill="#AE46FB" d="M14.458,7.546c0.004-0.004,0.008-0.008,0.012-0.011C14.469,7.542,14.465,7.545,14.458,7.546z"/>
	<path fill="#AE46FB" d="M14.444,7.559c0.002-0.004,0.005-0.007,0.009-0.009C14.453,7.555,14.45,7.558,14.444,7.559z"/>
	<path fill="#B93EFB" d="M12.512,9.662C12.504,9.657,12.5,9.65,12.499,9.641C12.508,9.645,12.512,9.652,12.512,9.662z"/>
	<path fill="#B93EFB" d="M11.175,9.662c0.008,0.004,0.013,0.011,0.013,0.02C11.18,9.679,11.175,9.672,11.175,9.662z"/>
	<path fill="#7E71F8" d="M18.055,5.121c0.006,0.002,0.012,0.005,0.018,0.007C18.065,5.13,18.059,5.128,18.055,5.121z"/>
	<path fill="#B93EFB" d="M11.194,9.693c0.004,0.005,0.007,0.011,0.011,0.016C11.197,9.707,11.193,9.701,11.194,9.693z"/>
	<path fill="#B93EFB" d="M12.539,9.707c-0.004-0.005-0.007-0.011-0.011-0.016C12.536,9.694,12.54,9.699,12.539,9.707z"/>
	<path fill="#B93EFB" d="M12.556,9.738c-0.004-0.006-0.008-0.013-0.012-0.019C12.553,9.722,12.557,9.729,12.556,9.738z"/>
	<path fill="#7E71F8" d="M18.103,5.135c0.005,0.002,0.01,0.005,0.015,0.007C18.111,5.144,18.106,5.141,18.103,5.135z"/>
	<path fill="#B93EFB" d="M12.573,9.768c-0.008-0.005-0.013-0.012-0.013-0.022C12.569,9.751,12.573,9.758,12.573,9.768z"/>
	<path fill="#B93EFB" d="M11.239,9.769c0.004,0.006,0.008,0.012,0.011,0.019C11.242,9.784,11.238,9.778,11.239,9.769z"/>
	<path fill="#7E71F8" d="M18.148,5.151c0.006,0.003,0.011,0.006,0.017,0.009C18.157,5.161,18.151,5.158,18.148,5.151z"/>
	<path fill="#B93EFB" d="M11.255,9.799c0.003,0.005,0.007,0.01,0.01,0.016C11.258,9.812,11.255,9.807,11.255,9.799z"/>
	<path fill="#B93EFB" d="M12.6,9.814c-0.004-0.005-0.007-0.011-0.011-0.016C12.598,9.8,12.601,9.805,12.6,9.814z"/>
	<path fill="#B93EFB" d="M12.617,9.844c-0.008-0.004-0.012-0.011-0.012-0.02C12.614,9.828,12.618,9.835,12.617,9.844z"/>
	<path fill="#B93EFB" d="M11.283,9.844c0.008,0.005,0.012,0.012,0.012,0.021C11.286,9.861,11.282,9.854,11.283,9.844z"/>
	<path fill="#B93EFB" d="M12.634,9.875c-0.009-0.005-0.013-0.013-0.013-0.023C12.63,9.857,12.634,9.864,12.634,9.875z"/>
	<path fill="#B93EFB" d="M11.3,9.875c0.007,0.004,0.011,0.01,0.011,0.018C11.303,9.89,11.299,9.884,11.3,9.875z"/>
	<path fill="#B93EFB" d="M12.645,9.889c-0.003-0.005-0.007-0.01-0.01-0.015C12.642,9.877,12.646,9.881,12.645,9.889z"/>
	<path fill="#B93EFB" d="M11.317,9.906c0.003,0.005,0.007,0.01,0.01,0.015C11.32,9.918,11.316,9.914,11.317,9.906z"/>
	<path fill="#B93EFB" d="M12.662,9.92c-0.004-0.006-0.007-0.012-0.011-0.018C12.658,9.905,12.662,9.911,12.662,9.92z"/>
	<path fill="#7E71F8" d="M18.18,5.165c0.005,0.003,0.009,0.006,0.014,0.008C18.187,5.175,18.183,5.171,18.18,5.165z"/>
	<path fill="#B93EFB" d="M12.679,9.951c-0.008-0.005-0.012-0.012-0.012-0.021C12.675,9.934,12.679,9.941,12.679,9.951z"/>
	<path fill="#B93EFB" d="M11.344,9.951c0.008,0.005,0.012,0.011,0.012,0.02C11.347,9.967,11.343,9.96,11.344,9.951z"/>
	<path fill="#7E71F8" d="M18.211,5.18c0.005,0.003,0.009,0.006,0.014,0.01C18.218,5.191,18.213,5.187,18.211,5.18z"/>
	<path fill="#B93EFB" d="M11.361,9.982c0.004,0.006,0.007,0.011,0.011,0.017C11.364,9.996,11.36,9.99,11.361,9.982z"/>
	<path fill="#B93EFB" d="M12.706,9.996c-0.004-0.005-0.007-0.01-0.011-0.015C12.703,9.983,12.707,9.988,12.706,9.996z"/>
	<path fill="#B93EFB" d="M11.378,10.012c0.003,0.005,0.007,0.009,0.01,0.014C11.381,10.024,11.377,10.02,11.378,10.012z"/>
	<path fill="#7E71F8" d="M18.239,5.196c0.006,0.004,0.012,0.008,0.018,0.012C18.248,5.208,18.242,5.204,18.239,5.196z"/>
	<path fill="#B93EFB" d="M11.405,10.057c0.007,0.004,0.011,0.011,0.012,0.02C11.408,10.073,11.405,10.066,11.405,10.057z"/>
	<path fill="#B93EFB" d="M11.422,10.088c0.003,0.005,0.007,0.011,0.01,0.016C11.425,10.102,11.421,10.096,11.422,10.088z"/>
	<path fill="#B93EFB" d="M11.439,10.119c0.003,0.004,0.006,0.009,0.009,0.013C11.442,10.13,11.439,10.126,11.439,10.119z"/>
	<path fill="#7E71F8" d="M18.26,5.21c0.005,0.002,0.008,0.005,0.011,0.009C18.264,5.219,18.261,5.216,18.26,5.21z"/>
	<path fill="#B93EFB" d="M11.221,9.738c0.008,0.005,0.012,0.012,0.013,0.022C11.225,9.755,11.221,9.748,11.221,9.738z"/>
	<path fill="#B93EFB" d="M11.467,10.164c0.007,0.004,0.011,0.01,0.011,0.018C11.47,10.179,11.466,10.173,11.467,10.164z"/>
	<path fill="#B93EFB" d="M11.483,10.195c0.003,0.005,0.007,0.01,0.01,0.015C11.486,10.208,11.483,10.203,11.483,10.195z"/>
	<path fill="#B93EFB" d="M11.501,10.226c0.003,0.004,0.006,0.008,0.009,0.012C11.503,10.236,11.5,10.232,11.501,10.226z"/>
	<path fill="#B93EFB" d="M11.511,10.24c0.008,0.004,0.012,0.011,0.012,0.02C11.514,10.256,11.51,10.249,11.511,10.24z"/>
	<path fill="#B93EFB" d="M11.528,10.271c0.004,0.006,0.007,0.011,0.011,0.017C11.531,10.285,11.527,10.279,11.528,10.271z"/>
	<path fill="#B93EFB" d="M11.545,10.301c0.003,0.005,0.007,0.01,0.01,0.014C11.548,10.313,11.544,10.309,11.545,10.301z"/>
	<path fill="#B93EFB" d="M11.563,10.332c0.004,0.003,0.007,0.006,0.008,0.011C11.565,10.342,11.562,10.339,11.563,10.332z"/>
	<path fill="#B93EFB" d="M11.449,10.133c0.008,0.005,0.012,0.012,0.012,0.021C11.453,10.15,11.449,10.143,11.449,10.133z"/>
	<path fill="#995AFA" d="M24.602,6.139c-0.003-0.006-0.006-0.013-0.008-0.019c-0.006-0.002-0.008-0.006-0.008-0.012
		c-0.003-0.006-0.005-0.011-0.008-0.017c-0.004-0.004-0.007-0.008-0.009-0.014c-0.002-0.006-0.004-0.011-0.007-0.017
		c-0.004-0.004-0.007-0.008-0.009-0.014c-0.002-0.006-0.004-0.011-0.007-0.017c-0.004-0.004-0.007-0.008-0.009-0.014
		C24.537,6.011,24.535,6.005,24.533,6c-0.009-0.008-0.006-0.022-0.015-0.03l0-0.001c-0.009-0.008-0.006-0.022-0.015-0.03l0-0.001
		c-0.009-0.008-0.006-0.022-0.015-0.03l0-0.001c-0.009-0.008-0.006-0.022-0.015-0.03l0-0.001c-0.009-0.008-0.006-0.022-0.015-0.03
		l0-0.001c-0.009-0.008-0.006-0.021-0.015-0.03l0-0.001c-0.018-0.04,0.016-0.048,0.039-0.058c0.028-0.012,0.059-0.01,0.09-0.01
		c0.305,0,0.61,0,0.916,0c0.038,0,0.076,0,0.109,0.025l0.004,0.003L25.598,5.78c0,0.01,0.006,0.016,0.012,0.023l0.004,0.003
		L25.614,5.81c0,0.01,0.006,0.016,0.012,0.023c0.004,0.002,0.005,0.004,0.003,0.008c0,0.009,0.006,0.015,0.012,0.022
		c0.004,0.002,0.005,0.004,0.003,0.009c0,0.009,0.006,0.015,0.012,0.022c0.004,0.002,0.005,0.005,0.004,0.009
		c0,0.009,0.006,0.015,0.011,0.022c0.004,0.002,0.005,0.005,0.004,0.009c0.001,0.009,0.006,0.015,0.011,0.021
		c0.004,0.002,0.005,0.005,0.004,0.009c0.001,0.009,0.006,0.015,0.011,0.021c0.004,0.002,0.005,0.005,0.004,0.01
		c0.001,0.008,0.006,0.014,0.011,0.021c0.004,0.002,0.006,0.006,0.004,0.01c0.001,0.008,0.006,0.014,0.011,0.02
		c0.009,0.015,0.019,0.03,0.027,0.046c0.071,0.142,0.141,0.285,0.212,0.428c0.007,0.014,0.013,0.027,0.02,0.041
		c0.015,0.029,0.015,0.055,0,0.086c-0.137,0.273-0.272,0.547-0.409,0.82c-0.082,0.165-0.165,0.329-0.249,0.494
		c-0.011,0.022-0.018,0.047-0.037,0.065c-0.379-0.015-0.759-0.015-1.138-0.001c-0.023,0.001-0.046,0.002-0.064-0.017
		c0.048-0.103,0.096-0.205,0.144-0.308c0.103-0.217,0.205-0.433,0.308-0.65c0.069-0.143,0.138-0.286,0.207-0.429
		c0.009-0.018,0.016-0.037,0.026-0.055c0.013-0.022,0.011-0.042-0.001-0.064c-0.035-0.067-0.068-0.135-0.101-0.203
		c-0.009-0.018-0.021-0.035-0.022-0.056c-0.006-0.002-0.008-0.006-0.008-0.012c-0.003-0.006-0.005-0.012-0.008-0.019
		c-0.006-0.002-0.008-0.006-0.008-0.012c-0.003-0.006-0.005-0.012-0.008-0.019c-0.006-0.002-0.008-0.006-0.007-0.012
		c-0.003-0.006-0.005-0.013-0.008-0.019C24.603,6.149,24.601,6.145,24.602,6.139z"/>
	<path fill="#BF38FC" d="M24.093,8.006c0.028-0.001,0.055,0,0.082-0.009c0.019-0.006,0.04-0.006,0.06-0.006c0.321,0,0.643,0,0.964,0
		c0.036,0,0.071,0,0.096,0.033c0.001,0.006-0.001,0.01-0.005,0.013c-0.004,0.006-0.007,0.012-0.01,0.018
		c0.001,0.005-0.001,0.01-0.005,0.013c-0.004,0.006-0.007,0.012-0.01,0.018c0.001,0.005-0.001,0.009-0.005,0.012
		c-0.004,0.006-0.007,0.012-0.01,0.018c0.001,0.005-0.001,0.009-0.005,0.013c-0.004,0.006-0.007,0.012-0.01,0.018
		c-0.065,0.134-0.129,0.268-0.195,0.401c-0.226,0.454-0.452,0.907-0.679,1.361c-0.016,0.031-0.036,0.06-0.053,0.091
		c-0.054-0.021-0.109-0.011-0.164-0.01c-0.297,0.002-0.594,0.001-0.891,0c-0.032,0-0.067,0.004-0.09-0.027
		c0.018-0.061,0.05-0.116,0.077-0.173c0.045-0.096,0.091-0.192,0.137-0.287c0.232-0.486,0.463-0.971,0.695-1.457
		C24.077,8.032,24.085,8.019,24.093,8.006z"/>
	<path fill="#7E71F8" d="M25.595,5.772c-0.351,0-0.702,0-1.054,0c-0.025,0-0.05-0.003-0.074,0.01
		c-0.014,0.008-0.025,0.017-0.026,0.034c-0.008-0.013-0.017-0.025-0.024-0.038c-0.285-0.574-0.57-1.149-0.854-1.724
		c-0.012-0.025-0.022-0.051-0.033-0.076c0.029-0.027,0.065-0.024,0.1-0.024c0.324-0.001,0.647-0.001,0.971,0
		c0.036,0,0.071,0.001,0.102,0.023c0.009,0.015,0.019,0.029,0.027,0.045c0.285,0.574,0.569,1.148,0.854,1.722
		C25.589,5.753,25.592,5.763,25.595,5.772z"/>
	<path fill="#6489F7" d="M24.704,3.978c-0.159,0-0.318,0.001-0.477,0.001c-0.232,0-0.464,0-0.696,0c0,0-0.004-0.003-0.004-0.003
		l0.001-0.005c0-0.009-0.006-0.016-0.012-0.023c-0.004-0.002-0.005-0.004-0.003-0.008c-0.001-0.009-0.006-0.015-0.012-0.022
		c-0.025-0.049-0.051-0.098-0.076-0.148c-0.168-0.34-0.336-0.68-0.504-1.02c-0.037-0.075-0.075-0.149-0.112-0.224
		c-0.008-0.016-0.016-0.032-0.022-0.048c-0.004-0.011,0.002-0.02,0.014-0.021c0.015-0.001,0.03-0.001,0.045,0
		c0.245,0.009,0.491,0.018,0.736,0.027c0.094,0.003,0.187,0.005,0.281,0.008c0.028,0.001,0.056,0.003,0.083,0.003
		c0.023,0,0.038,0.011,0.047,0.031c0.006,0.014,0.014,0.027,0.02,0.041c0.127,0.259,0.253,0.518,0.38,0.777
		c0.093,0.188,0.187,0.376,0.28,0.564C24.686,3.931,24.694,3.955,24.704,3.978z"/>
	<path fill="#D326FD" d="M23.162,9.962c0.025,0.001,0.05,0.004,0.075,0.004c0.299,0,0.599,0,0.898,0c0.03,0,0.059-0.002,0.089-0.011
		c0.04-0.012,0.06,0.001,0.081,0.043c0.001,0.006,0,0.01-0.005,0.013c-0.003,0.006-0.007,0.012-0.01,0.017
		c0.001,0.005,0,0.01-0.005,0.013c-0.004,0.006-0.007,0.012-0.01,0.018c0.001,0.005,0,0.01-0.005,0.013
		c-0.004,0.006-0.007,0.012-0.01,0.018c0.001,0.005,0,0.01-0.005,0.013c-0.004,0.006-0.007,0.012-0.01,0.018
		c0.001,0.005,0,0.009-0.005,0.012c-0.004,0.006-0.007,0.012-0.01,0.018c0.001,0.005,0,0.009-0.005,0.012
		c-0.004,0.006-0.007,0.012-0.01,0.018c0.001,0.005,0,0.009-0.005,0.012c-0.004,0.006-0.008,0.012-0.01,0.018
		c0.001,0.006-0.001,0.01-0.006,0.012c-0.003,0.006-0.007,0.011-0.01,0.017c-0.002,0.005-0.003,0.009-0.005,0.014
		c-0.003,0.006-0.007,0.011-0.01,0.017c-0.002,0.005-0.004,0.009-0.005,0.014c-0.003,0.006-0.007,0.011-0.01,0.017
		c-0.002,0.005-0.003,0.009-0.005,0.014c-0.004,0.006-0.007,0.011-0.01,0.017c0.001,0.006-0.001,0.01-0.005,0.013
		c-0.004,0.006-0.007,0.011-0.01,0.017c0.001,0.006-0.001,0.01-0.005,0.013c-0.004,0.006-0.007,0.011-0.01,0.017
		c0.001,0.005,0,0.01-0.005,0.013c-0.004,0.006-0.007,0.011-0.01,0.018c0.001,0.005-0.001,0.01-0.005,0.013
		c-0.004,0.006-0.007,0.011-0.01,0.018c0.001,0.005,0,0.01-0.005,0.013c-0.004,0.006-0.007,0.012-0.01,0.018
		c0.001,0.005,0,0.009-0.005,0.012c-0.004,0.006-0.008,0.012-0.01,0.018c0.001,0.005,0,0.009-0.005,0.012
		c-0.004,0.006-0.009,0.011-0.01,0.018c0.001,0.005,0,0.009-0.005,0.012c-0.004,0.006-0.01,0.011-0.01,0.019
		c0.001,0.005,0,0.009-0.005,0.012c-0.004,0.006-0.01,0.011-0.01,0.019c0.001,0.005,0,0.009-0.005,0.012
		c-0.005,0.006-0.01,0.011-0.01,0.019c0.001,0.005,0,0.009-0.005,0.011c-0.005,0.006-0.01,0.011-0.01,0.019
		c0.001,0.005,0,0.009-0.005,0.011c-0.005,0.006-0.01,0.011-0.01,0.019c-0.006,0.01-0.015,0.012-0.025,0.013
		c-0.138,0.011-0.276,0.026-0.415,0.031c-0.068,0.002-0.136,0.009-0.204,0.015c-0.151,0.013-0.301,0.026-0.452,0.039
		c-0.032,0.003-0.064,0.008-0.1,0.001c0.003-0.012,0.005-0.022,0.009-0.031c0.05-0.107,0.101-0.214,0.152-0.321
		c0.004-0.009,0.011-0.017,0.017-0.025c0.004-0.006,0.01-0.012,0.011-0.02c-0.002-0.005,0-0.008,0.004-0.011
		c0.005-0.006,0.011-0.012,0.011-0.021c-0.002-0.004,0-0.007,0.004-0.009c0.008-0.008,0.005-0.022,0.014-0.029l0-0.001
		c0.008-0.008,0.006-0.022,0.014-0.03l0,0c0.009-0.008,0.006-0.022,0.015-0.03l0,0c0.007-0.006,0.012-0.012,0.013-0.021
		c-0.002-0.004,0-0.007,0.004-0.009c0.005-0.006,0.011-0.013,0.011-0.022c-0.002-0.004-0.001-0.007,0.003-0.008
		c0.008-0.008,0.005-0.022,0.014-0.03l0,0c0.009-0.008,0.006-0.022,0.015-0.031l0,0c0.01-0.008,0.007-0.023,0.015-0.032
		c0.002-0.005,0.003-0.009,0.005-0.014c0.003-0.006,0.006-0.012,0.01-0.017c-0.001-0.005,0-0.01,0.005-0.013
		c0.004-0.006,0.007-0.012,0.01-0.018c-0.001-0.005,0-0.009,0.005-0.012c0.003-0.006,0.009-0.012,0.01-0.019
		c-0.002-0.005,0-0.008,0.004-0.011c0.004-0.006,0.01-0.012,0.011-0.021c-0.002-0.004-0.001-0.008,0.004-0.01
		C23.156,9.975,23.164,9.971,23.162,9.962L23.162,9.962z"/>
	<path fill="#7E71F8" d="M24.473,5.879c0.012,0.006,0.015,0.017,0.015,0.03C24.477,5.901,24.472,5.891,24.473,5.879z"/>
	<path fill="#7E71F8" d="M24.488,5.909c0.012,0.007,0.015,0.018,0.015,0.03C24.492,5.932,24.487,5.922,24.488,5.909z"/>
	<path fill="#7E71F8" d="M24.503,5.939c0.012,0.006,0.015,0.017,0.015,0.03C24.507,5.962,24.502,5.952,24.503,5.939z"/>
	<path fill="#7E71F8" d="M24.518,5.97C24.53,5.976,24.533,5.987,24.533,6C24.522,5.993,24.517,5.983,24.518,5.97z"/>
	<path fill="#7E71F8" d="M24.443,5.818c0.012,0.007,0.014,0.018,0.015,0.03C24.447,5.84,24.442,5.83,24.443,5.818z"/>
	<path fill="#7E71F8" d="M24.457,5.848c0.012,0.006,0.015,0.017,0.015,0.03C24.462,5.871,24.457,5.861,24.457,5.848z"/>
	<path fill="#BF38FC" d="M23.089,10.116c0.001,0.013-0.002,0.025-0.015,0.032C23.073,10.135,23.078,10.124,23.089,10.116z"/>
	<path fill="#BF38FC" d="M23.074,10.148c0,0.013-0.002,0.024-0.015,0.031C23.059,10.166,23.063,10.155,23.074,10.148z"/>
	<path fill="#BF38FC" d="M23.059,10.179c0,0.012-0.003,0.023-0.014,0.03C23.044,10.196,23.049,10.186,23.059,10.179z"/>
	<path fill="#BF38FC" d="M23.013,10.27c0,0.013-0.003,0.024-0.015,0.03C22.998,10.287,23.002,10.277,23.013,10.27z"/>
	<path fill="#BF38FC" d="M22.998,10.3c0,0.012-0.003,0.024-0.014,0.03C22.983,10.318,22.988,10.308,22.998,10.3z"/>
	<path fill="#BF38FC" d="M22.983,10.331c0,0.012-0.003,0.023-0.014,0.029C22.968,10.348,22.973,10.339,22.983,10.331z"/>
	<path fill="#7E71F8" d="M25.611,5.802c-0.008-0.005-0.012-0.013-0.012-0.023C25.607,5.785,25.611,5.793,25.611,5.802z"/>
	<path fill="#7E71F8" d="M25.626,5.833c-0.008-0.005-0.012-0.013-0.012-0.023C25.622,5.815,25.626,5.823,25.626,5.833z"/>
	<path fill="#7E71F8" d="M25.641,5.863c-0.008-0.005-0.012-0.013-0.012-0.022C25.637,5.846,25.641,5.854,25.641,5.863z"/>
	<path fill="#7E71F8" d="M25.656,5.894c-0.008-0.005-0.012-0.013-0.012-0.022C25.653,5.877,25.656,5.884,25.656,5.894z"/>
	<path fill="#7E71F8" d="M25.671,5.924c-0.008-0.005-0.011-0.013-0.011-0.022C25.668,5.907,25.671,5.914,25.671,5.924z"/>
	<path fill="#7E71F8" d="M25.686,5.954c-0.008-0.005-0.011-0.012-0.011-0.021C25.683,5.938,25.686,5.945,25.686,5.954z"/>
	<path fill="#7E71F8" d="M25.701,5.985C25.693,5.98,25.69,5.973,25.69,5.964C25.698,5.968,25.702,5.975,25.701,5.985z"/>
	<path fill="#7E71F8" d="M25.716,6.015c-0.007-0.005-0.011-0.012-0.011-0.021C25.713,5.999,25.716,6.006,25.716,6.015z"/>
	<path fill="#7E71F8" d="M24.539,6.017c0.003,0.005,0.006,0.009,0.009,0.014C24.541,6.028,24.538,6.024,24.539,6.017z"/>
	<path fill="#7E71F8" d="M25.731,6.045c-0.004-0.007-0.007-0.013-0.011-0.02C25.728,6.029,25.732,6.036,25.731,6.045z"/>
	<path fill="#7E71F8" d="M24.554,6.047c0.003,0.005,0.006,0.009,0.009,0.014C24.557,6.058,24.553,6.054,24.554,6.047z"/>
	<path fill="#7E71F8" d="M24.569,6.077c0.003,0.005,0.006,0.009,0.009,0.014C24.572,6.089,24.568,6.085,24.569,6.077z"/>
	<path fill="#7E71F8" d="M24.586,6.108c0.004,0.003,0.007,0.007,0.008,0.012C24.588,6.118,24.585,6.114,24.586,6.108z"/>
	<path fill="#7E71F8" d="M24.602,6.139c0.004,0.003,0.006,0.007,0.007,0.011C24.603,6.148,24.601,6.145,24.602,6.139z"/>
	<path fill="#7E71F8" d="M24.617,6.169c0.004,0.003,0.006,0.007,0.007,0.012C24.618,6.179,24.615,6.176,24.617,6.169z"/>
	<path fill="#7E71F8" d="M24.632,6.199c0.004,0.003,0.007,0.007,0.008,0.012C24.633,6.21,24.63,6.206,24.632,6.199z"/>
	<path fill="#7E71F8" d="M24.647,6.23c0.004,0.003,0.007,0.007,0.008,0.012C24.648,6.24,24.645,6.236,24.647,6.23z"/>
	<path fill="#995AFA" d="M25.279,8.055c0-0.008,0.003-0.014,0.01-0.018C25.29,8.045,25.287,8.051,25.279,8.055z"/>
	<path fill="#7E71F8" d="M23.501,3.919c0.008,0.005,0.011,0.013,0.012,0.022C23.505,3.936,23.501,3.928,23.501,3.919z"/>
	<path fill="#995AFA" d="M25.264,8.085c0-0.008,0.003-0.014,0.01-0.018C25.275,8.076,25.272,8.082,25.264,8.085z"/>
	<path fill="#7E71F8" d="M23.516,3.949c0.008,0.005,0.012,0.013,0.012,0.023C23.52,3.967,23.516,3.959,23.516,3.949z"/>
	<path fill="#995AFA" d="M25.249,8.116c0-0.008,0.003-0.014,0.01-0.018C25.26,8.106,25.257,8.112,25.249,8.116z"/>
	<path fill="#995AFA" d="M25.234,8.146c0-0.008,0.003-0.014,0.01-0.018C25.245,8.137,25.242,8.143,25.234,8.146z"/>
	<path fill="#BF38FC" d="M23.162,9.962c0.001,0.009-0.003,0.015-0.01,0.019C23.151,9.972,23.154,9.965,23.162,9.962z"/>
	<path fill="#BF38FC" d="M23.148,9.991c0,0.009-0.003,0.016-0.011,0.021C23.137,10.002,23.14,9.995,23.148,9.991z"/>
	<path fill="#BF38FC" d="M24.291,10.03c0.003-0.006,0.007-0.012,0.01-0.017C24.302,10.02,24.299,10.026,24.291,10.03z"/>
	<path fill="#BF38FC" d="M23.133,10.022c-0.003,0.006-0.007,0.013-0.01,0.019C23.122,10.033,23.125,10.026,23.133,10.022z"/>
	<path fill="#BF38FC" d="M24.276,10.06c0.003-0.006,0.007-0.012,0.01-0.018C24.287,10.051,24.284,10.057,24.276,10.06z"/>
	<path fill="#BF38FC" d="M23.118,10.053c-0.003,0.006-0.007,0.012-0.01,0.018C23.107,10.063,23.111,10.057,23.118,10.053z"/>
	<path fill="#BF38FC" d="M24.261,10.091c0.003-0.006,0.007-0.012,0.01-0.018C24.272,10.081,24.269,10.087,24.261,10.091z"/>
	<path fill="#BF38FC" d="M23.104,10.085c-0.003,0.006-0.007,0.012-0.01,0.017C23.093,10.094,23.096,10.088,23.104,10.085z"/>
	<path fill="#BF38FC" d="M24.246,10.121c0.003-0.006,0.007-0.012,0.01-0.018C24.257,10.112,24.254,10.118,24.246,10.121z"/>
	<path fill="#BF38FC" d="M24.231,10.152c0.003-0.006,0.007-0.012,0.01-0.018C24.242,10.142,24.239,10.148,24.231,10.152z"/>
	<path fill="#BF38FC" d="M24.216,10.182c0-0.008,0.003-0.014,0.01-0.018C24.226,10.172,24.223,10.179,24.216,10.182z"/>
	<path fill="#BF38FC" d="M24.2,10.213c0-0.008,0.003-0.014,0.01-0.018C24.212,10.203,24.208,10.209,24.2,10.213z"/>
	<path fill="#BF38FC" d="M23.041,10.217c0,0.009-0.003,0.017-0.011,0.022C23.029,10.229,23.033,10.222,23.041,10.217z"/>
	<path fill="#BF38FC" d="M24.185,10.242c0.003-0.006,0.007-0.011,0.01-0.017C24.195,10.233,24.192,10.238,24.185,10.242z"/>
	<path fill="#BF38FC" d="M23.026,10.248c0,0.01-0.005,0.017-0.013,0.021C23.013,10.26,23.018,10.253,23.026,10.248z"/>
	<path fill="#BF38FC" d="M24.169,10.272c0.003-0.006,0.007-0.011,0.01-0.017C24.18,10.264,24.177,10.269,24.169,10.272z"/>
	<path fill="#BF38FC" d="M24.154,10.303c0.003-0.006,0.007-0.011,0.01-0.017C24.165,10.294,24.162,10.299,24.154,10.303z"/>
	<path fill="#BF38FC" d="M24.139,10.333c0.003-0.006,0.007-0.011,0.01-0.017C24.15,10.324,24.147,10.33,24.139,10.333z"/>
	<path fill="#BF38FC" d="M24.124,10.364c0.003-0.006,0.007-0.011,0.01-0.017C24.135,10.355,24.132,10.361,24.124,10.364z"/>
	<path fill="#BF38FC" d="M22.965,10.37c0,0.009-0.003,0.016-0.011,0.021C22.954,10.382,22.957,10.374,22.965,10.37z"/>
	<path fill="#BF38FC" d="M24.109,10.394c0.003-0.006,0.007-0.012,0.01-0.017C24.12,10.385,24.117,10.391,24.109,10.394z"/>
	<path fill="#BF38FC" d="M22.951,10.401c0,0.008-0.003,0.015-0.011,0.02C22.939,10.412,22.943,10.406,22.951,10.401z"/>
	<path fill="#BF38FC" d="M24.094,10.425c0.003-0.006,0.007-0.012,0.01-0.018C24.105,10.416,24.102,10.422,24.094,10.425z"/>
	<path fill="#BF38FC" d="M24.079,10.455c0.003-0.006,0.007-0.012,0.01-0.018C24.09,10.446,24.087,10.452,24.079,10.455z"/>
	<path fill="#BF38FC" d="M24.064,10.486c0-0.008,0.003-0.014,0.01-0.018C24.075,10.477,24.072,10.483,24.064,10.486z"/>
	<path fill="#BF38FC" d="M24.049,10.517c0-0.008,0.003-0.014,0.01-0.018C24.06,10.507,24.057,10.513,24.049,10.517z"/>
	<path fill="#BF38FC" d="M24.034,10.547c0-0.008,0.003-0.014,0.01-0.018C24.044,10.537,24.041,10.544,24.034,10.547z"/>
	<path fill="#BF38FC" d="M24.019,10.578c0-0.008,0.003-0.015,0.01-0.019C24.03,10.568,24.026,10.574,24.019,10.578z"/>
	<path fill="#BF38FC" d="M24.003,10.608c0-0.008,0.003-0.015,0.01-0.019C24.014,10.598,24.011,10.605,24.003,10.608z"/>
	<path fill="#BF38FC" d="M23.988,10.639c0-0.008,0.003-0.015,0.01-0.019C24,10.629,23.996,10.635,23.988,10.639z"/>
	<path fill="#BF38FC" d="M23.973,10.67c0-0.008,0.003-0.015,0.01-0.019C23.984,10.659,23.981,10.666,23.973,10.67z"/>
	<path fill="#BF38FC" d="M23.958,10.7c0-0.008,0.003-0.015,0.01-0.019C23.969,10.69,23.966,10.696,23.958,10.7z"/>
	<path fill="#BE39FC" d="M8.14,8.43c0.013,0.024,0.028,0.048,0.039,0.073c0.277,0.585,0.553,1.171,0.83,1.756
		c0.07,0.149,0.141,0.297,0.212,0.445c0.008,0.018,0.022,0.034,0.021,0.056c-0.013,0.014-0.028,0.008-0.042,0.007
		c-0.182-0.014-0.363-0.029-0.545-0.044c-0.184-0.015-0.368-0.031-0.552-0.044c-0.042-0.003-0.062-0.02-0.08-0.055
		c-0.134-0.275-0.27-0.549-0.406-0.824C7.419,9.399,7.22,8.998,7.021,8.597C7,8.554,6.978,8.511,6.965,8.465
		C6.949,8.417,6.986,8.409,7.017,8.399c0.032-0.01,0.065-0.007,0.098-0.007c0.218,0,0.435,0,0.653,0c0.063,0,0.126-0.002,0.189-0.01
		C8.023,8.374,8.089,8.375,8.14,8.43z"/>
	<path fill="#A450FA" d="M8.14,8.43C8.092,8.416,8.043,8.393,7.993,8.402C7.837,8.427,7.68,8.413,7.524,8.415
		c-0.154,0.003-0.308,0-0.463,0.001c-0.018,0-0.036,0-0.053,0.004C6.986,8.425,6.967,8.437,6.965,8.465
		c-0.03-0.041-0.05-0.087-0.072-0.132c-0.17-0.343-0.339-0.687-0.508-1.031C6.36,7.253,6.328,7.207,6.313,7.153
		C6.307,7.151,6.305,7.148,6.306,7.142C6.288,7.115,6.271,7.087,6.265,7.054c0-0.009-0.006-0.014-0.011-0.02
		c-0.004-0.002-0.006-0.006-0.004-0.01c0-0.009-0.006-0.014-0.011-0.02c-0.004-0.002-0.006-0.006-0.004-0.01
		c0-0.008-0.006-0.014-0.011-0.02C6.219,6.971,6.218,6.967,6.219,6.963c-0.001-0.008-0.006-0.014-0.011-0.02
		C6.204,6.941,6.203,6.937,6.204,6.932c-0.001-0.008-0.006-0.014-0.011-0.02C6.189,6.91,6.188,6.906,6.189,6.901
		C6.188,6.893,6.183,6.888,6.178,6.882C6.174,6.88,6.173,6.876,6.174,6.871C6.173,6.863,6.168,6.858,6.163,6.852
		C6.159,6.849,6.157,6.845,6.159,6.84c-0.001-0.008-0.006-0.013-0.01-0.019C6.144,6.819,6.142,6.815,6.144,6.81
		C6.143,6.802,6.137,6.797,6.133,6.791C6.129,6.788,6.127,6.784,6.129,6.779C6.127,6.772,6.122,6.767,6.118,6.76
		C6.114,6.758,6.112,6.754,6.114,6.749C6.112,6.741,6.107,6.736,6.103,6.73C6.099,6.727,6.097,6.723,6.098,6.718
		C6.097,6.711,6.091,6.706,6.088,6.7C6.084,6.696,6.082,6.692,6.083,6.687c0.001-0.036,0.03-0.036,0.054-0.039
		c0.035-0.006,0.07-0.012,0.105-0.013c0.323-0.009,0.647-0.005,0.97-0.002c0.042,0,0.079,0.015,0.105,0.052l0-0.001
		c0.008,0.009,0.005,0.023,0.015,0.031l0,0c0.009,0.009,0.006,0.022,0.015,0.031l0,0c0.009,0.008,0.006,0.021,0.014,0.03
		c0.004,0.002,0.005,0.004,0.003,0.008c0,0.009,0.006,0.015,0.011,0.022c0.004,0.002,0.005,0.005,0.004,0.01
		c0.001,0.008,0.006,0.014,0.011,0.021c0.004,0.003,0.006,0.006,0.004,0.011C7.394,6.854,7.4,6.859,7.404,6.866
		c0.004,0.003,0.006,0.007,0.004,0.012c0.003,0.006,0.007,0.012,0.01,0.018c0.004,0.003,0.006,0.008,0.005,0.013
		C7.427,6.915,7.43,6.92,7.433,6.926C7.445,6.948,7.458,6.97,7.469,6.993C7.56,7.186,7.654,7.379,7.742,7.574
		c0.12,0.266,0.25,0.528,0.373,0.793C8.125,8.388,8.138,8.407,8.14,8.43z"/>
	<path fill="#8A67F9" d="M7.317,6.684C7.268,6.661,7.217,6.652,7.163,6.653c-0.28,0.001-0.559,0.001-0.839,0.001
		c-0.04,0-0.08-0.001-0.119,0.011C6.182,6.672,6.155,6.668,6.13,6.669c-0.018,0-0.035,0.001-0.047,0.018
		C6.057,6.655,6.046,6.616,6.025,6.581c-0.012-0.02-0.008-0.038,0.001-0.057c0.034-0.068,0.067-0.136,0.101-0.203
		c0.199-0.397,0.398-0.795,0.597-1.192c0.012-0.025,0.027-0.048,0.04-0.072c0.033-0.024,0.071-0.023,0.109-0.023
		c0.32,0,0.64,0,0.96,0c0.037,0,0.077-0.005,0.107,0.025C7.935,5.075,7.93,5.092,7.922,5.107C7.823,5.306,7.725,5.505,7.625,5.703
		C7.507,5.94,7.388,6.177,7.269,6.413C7.267,6.418,7.265,6.422,7.262,6.427C7.233,6.468,7.233,6.508,7.259,6.553
		C7.282,6.594,7.305,6.637,7.317,6.684z"/>
	<path fill="#747AF8" d="M7.941,5.059c-0.359,0-0.718,0-1.077-0.001c-0.033,0-0.066-0.001-0.099-0.001
		c0.009-0.037,0.029-0.07,0.047-0.103c0.083-0.15,0.155-0.306,0.232-0.46c0.108-0.215,0.214-0.43,0.321-0.644
		c0.043-0.086,0.087-0.171,0.131-0.256C7.5,3.585,7.507,3.577,7.512,3.569c0.015-0.023,0.037-0.034,0.063-0.036
		c0.01-0.001,0.02-0.002,0.03-0.002c0.313,0.01,0.626-0.02,0.939-0.015c0.052,0.001,0.107-0.003,0.15,0.038
		C8.637,3.672,8.581,3.79,8.522,3.908c-0.11,0.222-0.22,0.444-0.331,0.666c-0.077,0.154-0.156,0.307-0.234,0.46
		C7.953,5.043,7.947,5.05,7.941,5.059z"/>
	<path fill="#5D8EF7" d="M8.695,3.554c-0.005,0-0.01,0.001-0.015,0C8.595,3.531,8.51,3.54,8.424,3.539c-0.053-0.001-0.106,0-0.159,0
		c-0.038,0-0.075-0.002-0.112,0.011c-0.02,0.007-0.045,0.004-0.068,0.004c-0.162,0-0.323,0-0.485,0c-0.03,0-0.061-0.001-0.088,0.015
		C7.519,3.536,7.539,3.509,7.554,3.48c0.121-0.245,0.242-0.489,0.364-0.733c0.042-0.084,0.086-0.166,0.127-0.25
		c0.014-0.029,0.033-0.038,0.065-0.039c0.147-0.004,0.293-0.01,0.44-0.015c0.222-0.008,0.445-0.016,0.667-0.023
		c0.012,0,0.025,0,0.036,0C9.258,2.432,9.256,2.441,9.251,2.45C9.112,2.729,8.974,3.007,8.836,3.285
		C8.833,3.29,8.83,3.293,8.827,3.297c0.002,0.006-0.001,0.01-0.007,0.011C8.814,3.332,8.802,3.353,8.787,3.372
		c-0.005,0.006-0.01,0.012-0.011,0.021c0.002,0.004,0,0.008-0.004,0.01c-0.005,0.006-0.01,0.012-0.011,0.021
		c0.002,0.004,0,0.008-0.004,0.01c-0.005,0.006-0.01,0.012-0.011,0.021c0.002,0.004,0.001,0.007-0.004,0.009
		C8.737,3.469,8.731,3.476,8.731,3.484c0.002,0.004,0,0.007-0.004,0.009C8.722,3.499,8.717,3.505,8.715,3.511
		c0.001,0.005-0.001,0.01-0.005,0.013C8.706,3.53,8.703,3.536,8.699,3.541C8.701,3.546,8.699,3.551,8.695,3.554z"/>
	<path fill="#8A67F9" d="M7.36,6.775c-0.011-0.007-0.014-0.018-0.014-0.03C7.356,6.753,7.361,6.762,7.36,6.775z"/>
	<path fill="#8A67F9" d="M7.346,6.745C7.334,6.738,7.331,6.727,7.331,6.714C7.342,6.721,7.346,6.732,7.346,6.745z"/>
	<path fill="#8A67F9" d="M7.331,6.714C7.318,6.707,7.316,6.696,7.316,6.683C7.327,6.69,7.331,6.701,7.331,6.714z"/>
	<path fill="#8A67F9" d="M6.088,6.7c0.003,0.006,0.007,0.012,0.01,0.019C6.091,6.714,6.087,6.708,6.088,6.7z"/>
	<path fill="#8A67F9" d="M6.103,6.73c0.003,0.006,0.007,0.012,0.01,0.019C6.106,6.745,6.103,6.738,6.103,6.73z"/>
	<path fill="#8A67F9" d="M6.118,6.76c0.003,0.006,0.007,0.013,0.01,0.019C6.121,6.775,6.118,6.769,6.118,6.76z"/>
	<path fill="#8A67F9" d="M6.133,6.791C6.137,6.797,6.14,6.803,6.144,6.81C6.136,6.806,6.133,6.799,6.133,6.791z"/>
	<path fill="#8A67F9" d="M7.375,6.805C7.367,6.8,7.363,6.793,7.363,6.783C7.372,6.788,7.375,6.796,7.375,6.805z"/>
	<path fill="#8A67F9" d="M6.148,6.821c0.003,0.006,0.007,0.013,0.01,0.019C6.151,6.836,6.148,6.83,6.148,6.821z"/>
	<path fill="#8A67F9" d="M7.389,6.835c-0.007-0.005-0.011-0.012-0.011-0.02C7.386,6.819,7.39,6.826,7.389,6.835z"/>
	<path fill="#8A67F9" d="M6.163,6.852C6.167,6.858,6.17,6.865,6.174,6.871C6.166,6.867,6.163,6.86,6.163,6.852z"/>
	<path fill="#8A67F9" d="M7.404,6.866C7.4,6.859,7.397,6.853,7.393,6.846C7.401,6.851,7.404,6.857,7.404,6.866z"/>
	<path fill="#8A67F9" d="M6.178,6.882c0.004,0.006,0.007,0.013,0.011,0.019C6.181,6.897,6.178,6.891,6.178,6.882z"/>
	<path fill="#8A67F9" d="M7.418,6.896C7.415,6.89,7.412,6.884,7.408,6.878C7.416,6.881,7.419,6.888,7.418,6.896z"/>
	<path fill="#8A67F9" d="M6.193,6.913c0.007,0.005,0.011,0.011,0.011,0.02C6.196,6.928,6.193,6.921,6.193,6.913z"/>
	<path fill="#8A67F9" d="M7.433,6.926C7.43,6.921,7.426,6.915,7.423,6.909C7.43,6.913,7.434,6.918,7.433,6.926z"/>
	<path fill="#8A67F9" d="M6.209,6.943c0.007,0.005,0.011,0.011,0.011,0.02C6.211,6.959,6.208,6.952,6.209,6.943z"/>
	<path fill="#8A67F9" d="M6.224,6.973c0.007,0.005,0.011,0.012,0.011,0.02C6.226,6.989,6.223,6.982,6.224,6.973z"/>
	<path fill="#8A67F9" d="M6.239,7.004c0.008,0.005,0.011,0.012,0.011,0.02C6.241,7.02,6.238,7.013,6.239,7.004z"/>
	<path fill="#8A67F9" d="M6.254,7.034c0.008,0.005,0.011,0.012,0.011,0.02C6.257,7.05,6.253,7.043,6.254,7.034z"/>
	<path fill="#8A67F9" d="M6.306,7.142C6.31,7.145,6.312,7.148,6.313,7.153C6.307,7.151,6.305,7.148,6.306,7.142z"/>
	<path fill="#747AF8" d="M8.82,3.309c0.001-0.004,0.004-0.008,0.007-0.011C8.828,3.304,8.825,3.307,8.82,3.309z"/>
	<path fill="#747AF8" d="M8.776,3.393C8.78,3.386,8.784,3.379,8.787,3.372C8.788,3.381,8.784,3.388,8.776,3.393z"/>
	<path fill="#747AF8" d="M8.761,3.423c0.004-0.007,0.008-0.014,0.011-0.021C8.773,3.411,8.769,3.418,8.761,3.423z"/>
	<path fill="#747AF8" d="M8.746,3.454C8.75,3.447,8.753,3.44,8.757,3.433C8.758,3.442,8.754,3.449,8.746,3.454z"/>
	<path fill="#747AF8" d="M8.731,3.484c0-0.009,0.004-0.016,0.012-0.021C8.743,3.472,8.739,3.48,8.731,3.484z"/>
	<path fill="#747AF8" d="M8.715,3.511c0.004-0.006,0.008-0.012,0.012-0.018C8.727,3.502,8.722,3.508,8.715,3.511z"/>
	<path fill="#747AF8" d="M8.699,3.541c0.003-0.006,0.007-0.011,0.01-0.017C8.71,3.532,8.706,3.538,8.699,3.541z"/>
	<path fill="#9F54FA" d="M4.397,8.175c-0.016-0.014-0.022-0.034-0.03-0.052C4.154,7.695,3.942,7.266,3.73,6.838
		c-0.046-0.093-0.091-0.186-0.136-0.28C3.587,6.545,3.583,6.53,3.578,6.516C3.579,6.484,3.606,6.483,3.627,6.48
		C3.83,6.447,4.035,6.464,4.24,6.467c0.015,0,0.028,0.01,0.041,0.018C4.289,6.5,4.299,6.515,4.307,6.53
		C4.55,7.043,4.792,7.556,5.035,8.07c0.009,0.018,0.015,0.037,0.022,0.056c-0.105,0.04-0.214,0.041-0.324,0.032
		C4.62,8.148,4.507,8.139,4.397,8.175z"/>
	<path fill="#8968F9" d="M4.281,6.485c-0.169,0-0.337,0.002-0.506,0.001C3.712,6.485,3.652,6.504,3.589,6.507
		c-0.004,0-0.008,0.006-0.011,0.009C3.552,6.491,3.554,6.465,3.569,6.434c0.075-0.149,0.147-0.298,0.221-0.447
		C3.855,5.858,3.919,5.73,3.983,5.601c0.052-0.104,0.105-0.207,0.158-0.31C4.15,5.274,4.162,5.257,4.172,5.24
		c0.005-0.006,0.01-0.012,0.011-0.021c-0.002-0.004,0-0.008,0.004-0.01c0.005-0.006,0.01-0.012,0.011-0.021
		c-0.002-0.004,0-0.008,0.004-0.01c0.005-0.006,0.011-0.012,0.011-0.021c-0.002-0.004,0-0.007,0.004-0.009
		c0.005-0.006,0.011-0.012,0.012-0.021C4.227,5.123,4.228,5.12,4.233,5.118c0.005-0.006,0.011-0.013,0.012-0.022
		C4.242,5.093,4.243,5.09,4.247,5.088c0.006-0.006,0.012-0.013,0.012-0.022C4.257,5.062,4.258,5.059,4.263,5.058
		c0.006-0.006,0.012-0.013,0.012-0.022C4.273,5.031,4.274,5.029,4.278,5.027c0.008-0.008,0.005-0.022,0.014-0.029l0-0.001
		c0.008-0.008,0.005-0.022,0.015-0.03l0-0.001c0.008-0.008,0.005-0.022,0.015-0.03l0-0.001c0.008-0.008,0.006-0.022,0.015-0.03l0,0
		c0.01-0.008,0.022-0.012,0.035-0.012C4.554,4.9,4.736,4.894,4.918,4.899C4.947,4.9,4.988,4.89,4.993,4.94
		c0.001,0.005,0,0.009-0.005,0.012c-0.004,0.006-0.01,0.012-0.011,0.019c0.001,0.005,0,0.008-0.004,0.011
		c-0.004,0.006-0.01,0.011-0.011,0.019c0.001,0.005,0,0.009-0.004,0.011c-0.004,0.006-0.01,0.011-0.011,0.019
		c0.001,0.005,0,0.009-0.004,0.011c-0.005,0.006-0.01,0.012-0.011,0.02C4.895,5.157,4.848,5.246,4.8,5.334
		c0.002,0.006,0,0.009-0.006,0.011C4.79,5.351,4.787,5.358,4.784,5.364C4.786,5.37,4.784,5.374,4.778,5.375
		C4.775,5.382,4.773,5.388,4.77,5.394C4.771,5.4,4.769,5.404,4.763,5.406C4.76,5.412,4.758,5.419,4.755,5.425
		c0.001,0.006-0.002,0.01-0.007,0.012C4.745,5.443,4.743,5.449,4.74,5.455c0.001,0.006-0.002,0.01-0.007,0.012
		C4.732,5.488,4.719,5.504,4.71,5.522C4.569,5.803,4.427,6.084,4.286,6.365C4.281,6.374,4.278,6.384,4.272,6.392
		c-0.013,0.021-0.014,0.042,0,0.064C4.277,6.465,4.278,6.475,4.281,6.485z"/>
	<path fill="#717DF8" d="M4.993,4.94C4.982,4.923,4.965,4.921,4.946,4.921c-0.053,0-0.106,0-0.158,0c-0.111,0-0.221-0.001-0.332,0
		c-0.041,0-0.08-0.003-0.119-0.015C4.339,4.885,4.351,4.869,4.36,4.851c0.085-0.172,0.171-0.344,0.257-0.516
		C4.725,4.12,4.833,3.906,4.941,3.692C4.947,3.681,4.953,3.67,4.959,3.658c0.006-0.013,0.017-0.018,0.03-0.02
		c0.018-0.002,0.035-0.003,0.053-0.004c0.187-0.007,0.374-0.013,0.561-0.019c0.017-0.001,0.035-0.006,0.054,0.009
		C5.645,3.647,5.633,3.672,5.621,3.696c-0.166,0.335-0.332,0.67-0.499,1.005C5.081,4.782,5.036,4.86,4.993,4.94z"/>
	<path fill="#B93DFB" d="M4.397,8.175c0.002-0.012,0.005-0.026,0.019-0.03c0.026-0.009,0.051-0.019,0.08-0.018
		c0.06,0.001,0.121,0,0.181,0.001c0.017,0,0.036,0.001,0.052,0.006C4.77,8.148,4.815,8.149,4.855,8.14
		c0.065-0.015,0.13-0.01,0.194-0.014c0.003,0,0.005,0,0.008,0c0.009,0.015,0.018,0.03,0.026,0.046
		c0.176,0.373,0.351,0.746,0.527,1.119c0.012,0.025,0.022,0.05,0.032,0.073C5.626,9.381,5.61,9.376,5.596,9.375
		C5.533,9.369,5.47,9.362,5.407,9.357C5.279,9.346,5.15,9.334,5.021,9.327C4.974,9.325,4.95,9.306,4.93,9.265
		C4.779,8.956,4.626,8.648,4.474,8.34C4.447,8.285,4.415,8.233,4.397,8.175z"/>
	<path fill="#717DF8" d="M4.338,4.906c0,0.012-0.003,0.023-0.015,0.03C4.322,4.924,4.327,4.914,4.338,4.906z"/>
	<path fill="#717DF8" d="M4.323,4.937C4.322,4.949,4.319,4.96,4.308,4.967C4.307,4.954,4.312,4.945,4.323,4.937z"/>
	<path fill="#717DF8" d="M4.307,4.968C4.307,4.98,4.304,4.991,4.292,4.997C4.292,4.985,4.297,4.975,4.307,4.968z"/>
	<path fill="#717DF8" d="M4.292,4.998C4.292,5.01,4.289,5.021,4.278,5.027C4.277,5.015,4.282,5.005,4.292,4.998z"/>
	<path fill="#717DF8" d="M4.733,5.467C4.734,5.462,4.736,5.458,4.74,5.455C4.741,5.462,4.738,5.465,4.733,5.467z"/>
	<path fill="#717DF8" d="M4.947,5.032C4.951,5.026,4.954,5.02,4.958,5.013C4.958,5.022,4.955,5.028,4.947,5.032z"/>
	<path fill="#717DF8" d="M4.977,4.972c0.004-0.006,0.007-0.013,0.011-0.019C4.988,4.961,4.985,4.968,4.977,4.972z"/>
	<path fill="#717DF8" d="M4.962,5.002c0.004-0.006,0.007-0.013,0.011-0.019C4.973,4.992,4.97,4.998,4.962,5.002z"/>
	<path fill="#717DF8" d="M4.275,5.035c0,0.009-0.004,0.017-0.012,0.022C4.262,5.048,4.266,5.04,4.275,5.035z"/>
	<path fill="#717DF8" d="M4.932,5.063c0.004-0.007,0.007-0.013,0.011-0.02C4.943,5.052,4.94,5.059,4.932,5.063z"/>
	<path fill="#717DF8" d="M4.259,5.066c0,0.009-0.004,0.017-0.012,0.022C4.247,5.078,4.251,5.071,4.259,5.066z"/>
	<path fill="#717DF8" d="M4.244,5.097c0,0.009-0.004,0.017-0.012,0.022C4.232,5.109,4.236,5.102,4.244,5.097z"/>
	<path fill="#717DF8" d="M4.229,5.127c0,0.009-0.004,0.016-0.012,0.021C4.217,5.139,4.221,5.132,4.229,5.127z"/>
	<path fill="#717DF8" d="M4.214,5.158c0,0.009-0.004,0.016-0.011,0.021C4.202,5.17,4.205,5.162,4.214,5.158z"/>
	<path fill="#717DF8" d="M4.199,5.189c0,0.009-0.004,0.016-0.011,0.021C4.187,5.2,4.19,5.193,4.199,5.189z"/>
	<path fill="#717DF8" d="M4.183,5.219c0,0.009-0.004,0.016-0.011,0.021C4.172,5.231,4.175,5.224,4.183,5.219z"/>
	<path fill="#717DF8" d="M4.793,5.345C4.794,5.34,4.796,5.337,4.8,5.334C4.801,5.34,4.799,5.343,4.793,5.345z"/>
	<path fill="#717DF8" d="M4.778,5.375c0.001-0.004,0.003-0.008,0.006-0.011C4.786,5.37,4.784,5.374,4.778,5.375z"/>
	<path fill="#717DF8" d="M4.763,5.406C4.764,5.401,4.766,5.397,4.77,5.394C4.772,5.401,4.769,5.404,4.763,5.406z"/>
	<path fill="#717DF8" d="M4.748,5.436c0.001-0.005,0.004-0.009,0.007-0.012C4.757,5.431,4.754,5.435,4.748,5.436z"/>
	<path fill="#9D56FA" d="M27.441,5.819c-0.002-0.005-0.004-0.01-0.006-0.016C27.426,5.795,27.43,5.78,27.42,5.773l0,0
		c-0.016-0.043,0.02-0.049,0.044-0.05c0.19-0.008,0.381-0.009,0.571,0c0.015,0.001,0.028,0.011,0.04,0.019
		c0.007,0.01,0.015,0.02,0.02,0.031c0.116,0.233,0.232,0.466,0.348,0.699c0.006,0.011,0.011,0.023,0.017,0.034
		c0.009,0.017,0.009,0.033,0,0.05C28.43,6.616,28.4,6.678,28.37,6.739c-0.203,0.407-0.407,0.813-0.61,1.22
		c-0.006,0.011-0.014,0.021-0.02,0.031c-0.042-0.019-0.087-0.022-0.132-0.022c-0.145,0-0.291,0.001-0.436,0
		c-0.034,0-0.071,0.005-0.1-0.023c0.007-0.035,0.026-0.065,0.041-0.097c0.149-0.313,0.298-0.625,0.447-0.937
		c0.057-0.119,0.115-0.236,0.173-0.354c0.007-0.014,0.012-0.028,0.02-0.041c0.014-0.024,0.01-0.046-0.002-0.071
		c-0.083-0.165-0.164-0.33-0.246-0.496c-0.009-0.018-0.022-0.034-0.023-0.056c-0.009-0.007-0.006-0.021-0.015-0.029l0-0.001
		c-0.009-0.008-0.006-0.022-0.015-0.029l0-0.001C27.446,5.829,27.443,5.824,27.441,5.819z"/>
	<path fill="#7976F8" d="M28.076,5.741c-0.189,0-0.378,0-0.568,0.001c-0.02,0-0.04,0-0.06,0.001
		c-0.019,0.001-0.025,0.014-0.028,0.03c-0.016-0.014-0.021-0.034-0.03-0.052c-0.161-0.324-0.321-0.648-0.481-0.972
		c-0.166-0.335-0.333-0.671-0.499-1.006c-0.011-0.022-0.021-0.045-0.032-0.07c0.017-0.014,0.035-0.009,0.051-0.009
		c0.119,0.005,0.238,0.012,0.356,0.017c0.078,0.004,0.157,0.008,0.235,0.009c0.035,0,0.054,0.011,0.07,0.044
		c0.065,0.134,0.133,0.267,0.199,0.401c0.126,0.254,0.252,0.508,0.377,0.762c0.13,0.263,0.259,0.526,0.388,0.789
		C28.062,5.703,28.069,5.722,28.076,5.741z"/>
	<path fill="#BA3DFB" d="M27.071,7.945c0.194,0,0.387,0,0.581,0c0.015,0,0.03,0,0.045,0.001c0.027,0.002,0.04,0.019,0.042,0.044
		c0,0,0,0,0,0c-0.009,0.008-0.006,0.022-0.015,0.03l0,0c-0.01,0.008-0.007,0.022-0.015,0.03l0,0c-0.01,0.008-0.007,0.022-0.015,0.03
		l0,0c-0.01,0.008-0.007,0.022-0.015,0.031l0,0c-0.01,0.008-0.007,0.022-0.015,0.03l0,0c-0.011,0.008-0.007,0.022-0.015,0.031
		c-0.002,0.005-0.004,0.01-0.006,0.015c-0.003,0.006-0.006,0.011-0.009,0.015c-0.002,0.005-0.004,0.01-0.006,0.015
		c-0.003,0.006-0.006,0.011-0.009,0.016c-0.002,0.005-0.004,0.01-0.005,0.015c-0.003,0.005-0.006,0.011-0.01,0.016
		c-0.002,0.005-0.004,0.01-0.006,0.015c-0.002,0.005-0.006,0.01-0.01,0.013l-0.001,0.001c-0.006,0.006-0.012,0.012-0.012,0.021
		c0.001,0.004,0,0.008-0.004,0.01c-0.006,0.006-0.011,0.012-0.011,0.021c-0.01,0.023-0.019,0.047-0.03,0.069
		c-0.107,0.217-0.215,0.435-0.323,0.652c-0.046,0.093-0.093,0.185-0.139,0.278c-0.01,0.02-0.023,0.03-0.047,0.031
		c-0.088,0.006-0.176,0.015-0.264,0.023c-0.123,0.01-0.247,0.019-0.37,0.029c-0.004,0-0.009-0.003-0.014-0.005
		c-0.008-0.025,0.01-0.043,0.019-0.063c0.075-0.158,0.151-0.314,0.226-0.472c0.096-0.201,0.191-0.402,0.286-0.602
		c0.03-0.064,0.063-0.127,0.094-0.19c0.003-0.006,0.009-0.012,0.01-0.019c-0.001-0.005,0-0.009,0.004-0.012
		c0.004-0.007,0.01-0.012,0.011-0.02c-0.002-0.005,0-0.008,0.004-0.01c0.005-0.006,0.01-0.012,0.011-0.021
		c-0.002-0.004-0.001-0.007,0.004-0.009c0.005-0.007,0.011-0.013,0.011-0.022c-0.002-0.004-0.001-0.006,0.003-0.008
		C27.065,7.967,27.062,7.953,27.071,7.945L27.071,7.945z"/>
	<path fill="#7976F8" d="M27.466,5.863c0.012,0.006,0.015,0.017,0.015,0.029C27.471,5.886,27.466,5.876,27.466,5.863z"/>
	<path fill="#7976F8" d="M27.42,5.773c0.013,0.006,0.016,0.018,0.015,0.031C27.424,5.796,27.419,5.785,27.42,5.773z"/>
	<path fill="#9D56FA" d="M27.071,7.945c0,0.012-0.003,0.023-0.014,0.03C27.056,7.963,27.061,7.953,27.071,7.945z"/>
	<path fill="#9D56FA" d="M27.724,8.021c0-0.013,0.002-0.024,0.015-0.03C27.74,8.003,27.735,8.014,27.724,8.021z"/>
	<path fill="#9D56FA" d="M27.709,8.051c0-0.013,0.003-0.024,0.015-0.03C27.725,8.034,27.72,8.044,27.709,8.051z"/>
	<path fill="#9D56FA" d="M27.694,8.082c-0.001-0.013,0.002-0.024,0.015-0.03C27.71,8.064,27.705,8.075,27.694,8.082z"/>
	<path fill="#9D56FA" d="M27.679,8.113c-0.001-0.013,0.002-0.024,0.015-0.031C27.695,8.095,27.69,8.106,27.679,8.113z"/>
	<path fill="#9D56FA" d="M27.664,8.143c-0.001-0.013,0.002-0.024,0.015-0.03C27.679,8.125,27.675,8.136,27.664,8.143z"/>
	<path fill="#9D56FA" d="M27.649,8.174c-0.001-0.013,0.002-0.025,0.015-0.031C27.664,8.156,27.66,8.167,27.649,8.174z"/>
	<path fill="#7976F8" d="M27.451,5.833c0.012,0.006,0.015,0.017,0.015,0.029C27.455,5.855,27.451,5.846,27.451,5.833z"/>
	<path fill="#7976F8" d="M27.441,5.819c0.003,0.005,0.006,0.009,0.01,0.014C27.444,5.83,27.44,5.826,27.441,5.819z"/>
	<path fill="#9D56FA" d="M27.053,7.983c0,0.009-0.003,0.017-0.011,0.022C27.041,7.996,27.045,7.988,27.053,7.983z"/>
	<path fill="#9D56FA" d="M27.038,8.015c0,0.009-0.003,0.016-0.011,0.021C27.027,8.027,27.03,8.019,27.038,8.015z"/>
	<path fill="#9D56FA" d="M27.023,8.046c-0.004,0.007-0.007,0.013-0.011,0.02C27.012,8.057,27.015,8.051,27.023,8.046z"/>
	<path fill="#9D56FA" d="M27.008,8.078c0,0.008-0.003,0.015-0.01,0.019C26.998,8.088,27.001,8.082,27.008,8.078z"/>
	<path fill="#9D56FA" d="M27.634,8.205c0.003-0.005,0.006-0.01,0.009-0.015C27.644,8.197,27.641,8.202,27.634,8.205z"/>
	<path fill="#9D56FA" d="M27.619,8.235c0.003-0.005,0.006-0.01,0.009-0.016C27.629,8.227,27.626,8.232,27.619,8.235z"/>
	<path fill="#9D56FA" d="M27.604,8.266c0.003-0.005,0.006-0.011,0.01-0.016C27.614,8.258,27.611,8.263,27.604,8.266z"/>
	<path fill="#9D56FA" d="M27.588,8.294c0.003-0.004,0.007-0.009,0.01-0.013C27.599,8.288,27.595,8.292,27.588,8.294z"/>
	<path fill="#9D56FA" d="M27.575,8.316c0-0.009,0.004-0.016,0.012-0.021C27.587,8.304,27.583,8.311,27.575,8.316z"/>
	<path fill="#9D56FA" d="M27.56,8.346c0-0.009,0.003-0.016,0.011-0.021C27.571,8.335,27.568,8.342,27.56,8.346z"/>
</g>
</svg>
