<?xml version="1.0" encoding="utf-8"?>
<!-- Generator: Adobe Illustrator 24.3.0, SVG Export Plug-In . SVG Version: 6.00 Build 0)  -->
<svg version="1.1" id="Слой_1" xmlns="http://www.w3.org/2000/svg" xmlns:xlink="http://www.w3.org/1999/xlink" x="0px" y="0px"
	 width="32px" height="13px" viewBox="0 0 32 13" enable-background="new 0 0 32 13" xml:space="preserve">
<g>
	<path d="M19.857,13c-2.501,0-5.002,0-7.503,0c-0.077-0.078-0.117-0.18-0.171-0.273c-0.371-0.644-0.743-1.287-1.114-1.93
		c-0.339-0.587-0.675-1.175-1.014-1.762C9.754,8.513,9.453,7.991,9.151,7.47c-0.173-0.3-0.346-0.6-0.518-0.901
		c-0.029-0.05-0.029-0.089,0-0.139c0.31-0.534,0.618-1.069,0.927-1.604c0.397-0.689,0.793-1.38,1.191-2.068
		c0.248-0.428,0.496-0.856,0.742-1.285c0.259-0.451,0.518-0.901,0.78-1.35c0.027-0.046,0.037-0.115,0.113-0.116
		c2.479,0,4.958,0,7.437,0c0.045-0.004,0.067,0.024,0.087,0.059c0.343,0.593,0.684,1.187,1.027,1.781
		c0.306,0.53,0.612,1.061,0.919,1.591c0.34,0.589,0.678,1.179,1.018,1.768c0.228,0.396,0.455,0.792,0.688,1.185
		c0.045,0.077,0.046,0.136,0.002,0.214c-0.449,0.781-0.901,1.561-1.351,2.341c-0.365,0.632-0.729,1.266-1.095,1.898
		c-0.395,0.682-0.789,1.364-1.18,2.049C19.916,12.932,19.899,12.976,19.857,13z"/>
	<path fill="#383838" d="M19.857,0c0,0.005-0.001,0.01-0.001,0.015c-0.04,0-0.08,0-0.12,0c-2.422,0-4.844,0-7.266,0
		c-0.038,0-0.075,0.001-0.113,0.001C12.356,0.011,12.355,0.005,12.354,0C14.855,0,17.356,0,19.857,0z"/>
	<path fill="#05F906" d="M19.193,2.727c-0.059-0.099-0.118-0.198-0.176-0.297c-0.083-0.143-0.165-0.287-0.248-0.43
		c-0.005-0.009-0.011-0.017-0.016-0.026c-0.01-0.019-0.024-0.031-0.048-0.029c-0.015,0.001-0.03,0-0.045,0c-1.702,0-3.404,0-5.106,0
		c-0.003,0-0.005,0-0.008,0c-0.05-0.009-0.076,0.015-0.1,0.058c-0.288,0.503-0.578,1.004-0.868,1.506
		c-0.012,0.022-0.027,0.042-0.041,0.062c-0.042,0.063-0.102,0.083-0.175,0.083c-0.341,0-0.681,0.001-1.022-0.001
		c-0.105-0.001-0.126-0.027-0.104-0.118c0.022-0.057,0.057-0.106,0.087-0.158c0.241-0.42,0.484-0.839,0.726-1.258
		c0.134-0.232,0.269-0.465,0.402-0.697c0.109-0.189,0.217-0.379,0.326-0.568c0.007-0.013,0.015-0.026,0.023-0.039
		c0.009-0.017,0.023-0.026,0.042-0.026c0.018,0,0.035,0,0.053,0c2.141,0,4.283,0,6.424,0c0.008,0,0.015,0.001,0.023,0
		c0.044-0.006,0.068,0.014,0.089,0.052c0.108,0.192,0.219,0.384,0.329,0.575c0.119,0.207,0.238,0.413,0.357,0.619
		c0.12,0.209,0.241,0.417,0.361,0.626c0.01,0.017,0.018,0.036,0.026,0.054c0.017,0.043-0.014,0.053-0.044,0.061
		c-0.027,0.008-0.055,0.006-0.082,0.006c-0.349,0-0.697,0-1.046,0C19.278,2.781,19.226,2.78,19.193,2.727z"/>
	<path fill="#666666" d="M16.159,12.107c-1.017,0-2.033,0-3.05,0c-0.103,0-0.104,0.006-0.054-0.087
		c0.139-0.262,0.278-0.523,0.415-0.785c0.016-0.031,0.035-0.046,0.07-0.042c0.017,0.002,0.035,0,0.053,0c1.702,0,3.404,0,5.106,0
		c0.094,0,0.094,0,0.14-0.079c0.141-0.243,0.281-0.487,0.421-0.73c0.117-0.202,0.234-0.404,0.35-0.606
		c0.091-0.159,0.182-0.318,0.274-0.476c0.101-0.176,0.203-0.352,0.305-0.528c0.104-0.18,0.208-0.36,0.313-0.541
		c0.102-0.176,0.203-0.352,0.305-0.528c0.048-0.083,0.095-0.165,0.143-0.248c0.005-0.009,0.009-0.018,0.015-0.026
		c0.019-0.03,0.022-0.032,0.054-0.022c0.029,0.009,0.057,0.019,0.085,0.029c0.227,0.08,0.454,0.16,0.681,0.239
		c0.012,0.004,0.024,0.008,0.035,0.013c0.024,0.01,0.028,0.018,0.016,0.039c-0.023,0.042-0.047,0.083-0.071,0.124
		c-0.142,0.245-0.284,0.491-0.426,0.736c-0.161,0.278-0.322,0.556-0.482,0.834c-0.106,0.185-0.212,0.37-0.318,0.555
		c-0.101,0.176-0.203,0.352-0.305,0.528c-0.104,0.18-0.208,0.36-0.312,0.541c-0.102,0.176-0.203,0.352-0.305,0.528
		c-0.087,0.15-0.173,0.3-0.26,0.45c-0.008,0.013-0.015,0.026-0.022,0.039c-0.015,0.03-0.039,0.044-0.073,0.042
		c-0.023-0.001-0.045,0-0.068,0C18.183,12.107,17.171,12.107,16.159,12.107z"/>
	<path fill="#2DC43B" d="M11.438,7.527c0.032,0.036,0.052,0.08,0.075,0.121c0.204,0.352,0.407,0.704,0.61,1.056
		c0.189,0.328,0.378,0.656,0.568,0.985c0.247,0.428,0.493,0.857,0.74,1.285c0.007,0.013,0.015,0.026,0.02,0.04
		c0.005,0.012-0.003,0.023-0.012,0.022c-0.04-0.002-0.055,0.025-0.071,0.055c-0.143,0.271-0.286,0.541-0.429,0.812
		c-0.046,0.086-0.092,0.172-0.138,0.257c-0.022,0-0.025-0.017-0.032-0.029c-0.087-0.15-0.174-0.299-0.26-0.449
		c-0.142-0.245-0.283-0.491-0.425-0.737c-0.142-0.246-0.284-0.491-0.425-0.737c-0.083-0.143-0.166-0.287-0.248-0.43
		c-0.126-0.22-0.253-0.439-0.379-0.659c-0.14-0.243-0.281-0.487-0.421-0.73c-0.157-0.272-0.314-0.543-0.471-0.815
		c-0.005-0.009-0.008-0.018-0.011-0.028c0.018-0.018,0.04-0.017,0.063-0.016c0.368,0.017,0.737,0.003,1.106,0.008
		C11.344,7.539,11.39,7.523,11.438,7.527z"/>
	<path fill="#1ADD22" d="M11.438,7.527c-0.023,0.027-0.055,0.032-0.088,0.035c-0.017,0.002-0.035,0-0.053,0
		c-0.331,0-0.662,0-0.992,0c-0.042,0-0.085,0.003-0.126-0.013c-0.016-0.006-0.035-0.002-0.052-0.003
		C10.055,7.424,9.982,7.301,9.91,7.177c-0.115-0.2-0.231-0.399-0.344-0.6C9.512,6.482,9.511,6.518,9.565,6.424
		c0.305-0.53,0.612-1.059,0.917-1.589c0.239-0.415,0.477-0.83,0.716-1.245c0.011-0.019,0.019-0.041,0.038-0.055
		c0.006,0.077-0.011,0.096,0.1,0.096c0.328-0.002,0.655-0.001,0.983-0.001c0.121,0,0.121,0,0.218-0.059
		c-0.006,0.014-0.01,0.028-0.018,0.041c-0.094,0.163-0.188,0.325-0.282,0.488c-0.166,0.289-0.332,0.578-0.499,0.867
		c-0.177,0.306-0.353,0.612-0.53,0.918c-0.103,0.178-0.206,0.356-0.308,0.534c-0.009,0.015-0.016,0.032-0.026,0.046
		c-0.016,0.023-0.016,0.044-0.001,0.069c0.036,0.06,0.07,0.122,0.105,0.183c0.145,0.252,0.29,0.504,0.434,0.756
		C11.422,7.49,11.429,7.509,11.438,7.527z"/>
	<path fill="#20D629" d="M22.18,5.618c0.043,0.053,0.071,0.115,0.105,0.173c0.128,0.219,0.253,0.438,0.38,0.657
		c0.001,0.002,0.003,0.004,0.004,0.006c0.022,0.029,0.024,0.057,0.002,0.089c-0.021,0.031-0.038,0.065-0.057,0.097
		c-0.149,0.258-0.298,0.517-0.446,0.775c-0.026,0.046-0.052,0.092-0.079,0.137c-0.035,0.058-0.025,0.054-0.087,0.033
		c-0.095-0.032-0.189-0.066-0.284-0.099c-0.234-0.082-0.468-0.163-0.702-0.245c-0.012-0.004-0.024-0.008-0.035-0.013
		c-0.019-0.008-0.023-0.016-0.013-0.034c0.016-0.029,0.032-0.057,0.049-0.085c0.103-0.181,0.207-0.361,0.31-0.542
		c0.006-0.011,0.011-0.022,0.019-0.033c0.016-0.023,0.016-0.044,0.001-0.069c-0.049-0.082-0.095-0.165-0.143-0.247
		c-0.102-0.176-0.203-0.351-0.305-0.527c-0.007-0.013-0.012-0.027-0.018-0.041C20.914,5.616,20.959,5.625,21,5.625
		c0.328-0.001,0.657-0.002,0.985,0C22.05,5.626,22.115,5.612,22.18,5.618z"/>
	<path fill="#02FC02" d="M18.033,5.497c-0.001-0.005,0.001-0.01,0.005-0.014c0.003-0.006,0.007-0.012,0.01-0.018
		c0.009-0.052,0.005-0.105,0.004-0.158c0-0.024-0.008-0.031-0.032-0.032c-0.023-0.001-0.045-0.001-0.068-0.001
		c-0.479,0-0.958,0-1.438,0c-0.104,0-0.092,0.011-0.092-0.092c-0.001-0.201-0.001-0.401,0-0.602c0-0.1-0.009-0.09,0.087-0.09
		c0.662,0,1.325,0,1.987,0c0.113,0,0.226,0,0.339,0c0.018,0,0.035,0,0.053,0.001c0.015,0.001,0.023,0.01,0.023,0.024
		c0.001,0.023,0.001,0.045,0.001,0.068c0,0.258-0.002,0.517,0.001,0.775c0.001,0.068-0.013,0.129-0.05,0.185
		c-0.063,0.043-0.136,0.022-0.204,0.029c-0.188,0.017-0.378,0.014-0.567,0.023c-0.037,0.002-0.095,0.006-0.073-0.067l0,0
		C18.029,5.52,18.026,5.506,18.033,5.497z"/>
	<path fill="#12E817" d="M19.193,2.727c0.031,0.025,0.066,0.03,0.105,0.03c0.373-0.001,0.746-0.001,1.119-0.001
		c0.015,0,0.03,0,0.045-0.001c0.027-0.002,0.041-0.016,0.043-0.043c0.034,0.037,0.053,0.084,0.078,0.127
		c0.243,0.419,0.485,0.84,0.727,1.26c0.025,0.043,0.046,0.088,0.07,0.132c0.015,0.05-0.018,0.067-0.056,0.079
		c-0.027,0.008-0.055,0.006-0.082,0.006c-0.328,0-0.655,0.001-0.983,0c-0.06,0-0.121-0.001-0.173-0.039
		c-0.004-0.002-0.005-0.005-0.004-0.009c-0.001-0.009-0.007-0.015-0.013-0.021l0-0.001c-0.009-0.007-0.006-0.022-0.017-0.029
		l0.001,0.001c-0.004-0.005-0.007-0.01-0.011-0.016c-0.004-0.003-0.006-0.007-0.005-0.012c-0.002-0.007-0.007-0.013-0.011-0.019
		c-0.004-0.002-0.005-0.006-0.004-0.01c-0.001-0.008-0.006-0.014-0.011-0.02c-0.004-0.002-0.005-0.005-0.004-0.009
		c-0.001-0.009-0.007-0.016-0.013-0.022l0,0c-0.004-0.004-0.008-0.009-0.01-0.014c-0.057-0.097-0.115-0.194-0.171-0.291
		c-0.2-0.346-0.4-0.693-0.6-1.04C19.204,2.755,19.199,2.741,19.193,2.727z"/>
	<path fill="#32BE41" d="M15.832,7.352c0.001,0.234-0.041,0.459-0.152,0.667c-0.114,0.213-0.291,0.355-0.515,0.44
		c-0.11,0.042-0.225,0.068-0.342,0.084c-0.183,0.025-0.366,0.019-0.549,0.013c-0.155-0.005-0.31-0.022-0.464-0.04
		c-0.154-0.018-0.308-0.04-0.461-0.065c-0.037-0.006-0.074-0.012-0.111-0.019c-0.031-0.006-0.037-0.017-0.034-0.047
		c0.019-0.172,0.038-0.344,0.057-0.515c0.005-0.042,0.01-0.085,0.015-0.127c0.002-0.019,0.012-0.026,0.031-0.024
		c0.192,0.018,0.385,0.032,0.577,0.044c0.093,0.006,0.185,0.01,0.278,0.013c0.033,0.001,0.065,0.004,0.098,0.006
		c0.118,0.008,0.236,0.003,0.352-0.023c0.049-0.011,0.096-0.029,0.141-0.052c0.088-0.045,0.152-0.114,0.191-0.205
		c0.005-0.011,0.011-0.022,0.017-0.033c0.053,0.027,0.11,0.032,0.168,0.024c0.183-0.025,0.369-0.005,0.553-0.025
		c0.067-0.007,0.125-0.005,0.127-0.093C15.806,7.361,15.817,7.351,15.832,7.352z"/>
	<path fill="#14E51A" d="M20.086,4.278c0.015,0,0.031-0.003,0.045,0.001c0.059,0.02,0.119,0.012,0.179,0.014
		c0.113,0.003,0.225-0.008,0.338,0.007c0.215-0.015,0.431-0.003,0.646-0.007c0.059-0.001,0.064-0.005,0.087-0.061
		c0.01,0.006,0.015,0.016,0.016,0.028c0.003,0.006,0.007,0.012,0.011,0.018c0.004,0.003,0.005,0.006,0.005,0.01
		c0.001,0.009,0.006,0.015,0.012,0.02l0.001,0.001c0.004,0.003,0.008,0.008,0.01,0.013c0.002,0.005,0.004,0.01,0.006,0.014
		c0.003,0.005,0.007,0.011,0.01,0.016c0.004,0.003,0.006,0.007,0.005,0.012c0.001,0.007,0.007,0.013,0.011,0.018
		c0.009,0.009,0.016,0.018,0.018,0.031c0.004,0.004,0.008,0.009,0.01,0.014c0.002,0.005,0.004,0.009,0.006,0.014
		c0.003,0.006,0.007,0.011,0.011,0.017c0.004,0.003,0.006,0.007,0.005,0.011c0.002,0.008,0.007,0.014,0.012,0.02l0.001,0.002
		c0.005,0.002,0.008,0.006,0.009,0.012c0.002,0.005,0.005,0.011,0.007,0.016c0.004,0.004,0.007,0.009,0.01,0.015
		c0.004,0.003,0.006,0.008,0.006,0.013c0.003,0.006,0.007,0.012,0.011,0.017c0.004,0.003,0.005,0.006,0.005,0.011
		c0.001,0.008,0.007,0.014,0.012,0.02l0.001,0.001c0.005,0.003,0.008,0.007,0.01,0.013c0.002,0.005,0.004,0.01,0.006,0.015
		c0.004,0.005,0.007,0.01,0.01,0.016c0.004,0.003,0.006,0.007,0.005,0.012c0.002,0.007,0.007,0.012,0.011,0.018
		c0.004,0.002,0.005,0.006,0.005,0.01c0.001,0.009,0.006,0.015,0.013,0.021l0,0.001c0.005,0.004,0.008,0.008,0.01,0.013
		c0.002,0.005,0.004,0.009,0.006,0.014c0.004,0.005,0.007,0.011,0.011,0.016c0.004,0.003,0.006,0.007,0.005,0.012
		c0.002,0.007,0.007,0.013,0.011,0.018c0.004,0.002,0.005,0.005,0.004,0.009c0,0.009,0.006,0.016,0.013,0.021l0,0
		c0.004,0.004,0.008,0.009,0.01,0.014c0.004,0.003,0.006,0.008,0.006,0.013c0.003,0.006,0.007,0.011,0.011,0.017
		c0.004,0.003,0.005,0.007,0.005,0.011c0.002,0.008,0.007,0.014,0.012,0.02l0.001,0.002c0.005,0.003,0.008,0.007,0.009,0.012
		c0.002,0.005,0.005,0.01,0.007,0.015c0.004,0.005,0.008,0.01,0.01,0.015c0.004,0.003,0.006,0.008,0.006,0.013
		c0.003,0.006,0.007,0.012,0.011,0.017c0.004,0.003,0.005,0.006,0.005,0.011c0.001,0.009,0.007,0.014,0.012,0.02l0.001,0.001
		C21.82,4.99,21.824,4.995,21.825,5c0.002,0.005,0.004,0.01,0.006,0.014c0.004,0.005,0.007,0.01,0.01,0.016
		c0.004,0.003,0.006,0.007,0.005,0.012c0.002,0.007,0.007,0.012,0.011,0.018c0.004,0.002,0.005,0.006,0.005,0.01
		c0.001,0.009,0.007,0.015,0.013,0.021l0,0.001c0.005,0.004,0.008,0.008,0.01,0.014c0.002,0.005,0.004,0.009,0.006,0.014
		c0.004,0.005,0.007,0.011,0.011,0.017c0.004,0.003,0.006,0.007,0.005,0.012c0.002,0.008,0.007,0.013,0.011,0.019
		c0.003,0.002,0.005,0.005,0.004,0.009c0.001,0.009,0.006,0.016,0.013,0.021l0,0c0.004,0.004,0.008,0.009,0.01,0.014
		c0.004,0.003,0.006,0.008,0.006,0.013c0.003,0.006,0.007,0.012,0.011,0.017c0.004,0.003,0.005,0.006,0.005,0.011
		c0.002,0.008,0.007,0.014,0.012,0.02l0.001,0.001c0.005,0.003,0.008,0.007,0.009,0.012c0.002,0.005,0.004,0.01,0.007,0.015
		c0.004,0.005,0.008,0.01,0.01,0.015c0.004,0.003,0.006,0.007,0.005,0.013c0.003,0.006,0.007,0.012,0.011,0.018
		c0.004,0.002,0.005,0.006,0.005,0.01c0.001,0.009,0.007,0.015,0.012,0.021l0,0.001c0.005,0.003,0.008,0.008,0.01,0.013
		c0.002,0.005,0.004,0.009,0.006,0.014c0.004,0.005,0.007,0.011,0.011,0.016c0.004,0.003,0.006,0.007,0.005,0.012
		c0.002,0.007,0.007,0.012,0.011,0.018c0.004,0.002,0.005,0.005,0.004,0.01c0.001,0.009,0.007,0.015,0.013,0.021l0,0
		c0.005,0.004,0.008,0.008,0.01,0.014c0.002,0.005,0.004,0.009,0.006,0.014c0.004,0.006,0.007,0.011,0.011,0.017
		c0.004,0.003,0.005,0.007,0.005,0.011c0.002,0.008,0.008,0.013,0.012,0.02l0.001,0.002c0.01,0.006,0.007,0.021,0.016,0.028l0,0
		c0.004,0.004,0.008,0.009,0.01,0.015c0.002,0.005,0.004,0.01,0.007,0.015c-0.03,0.026-0.065,0.032-0.104,0.032
		c-0.368-0.001-0.737-0.001-1.105-0.001c-0.03,0-0.06,0.001-0.09,0.002c0,0,0.001,0,0.001,0c-0.003-0.006-0.007-0.012-0.011-0.017
		c-0.004-0.002-0.005-0.005-0.004-0.009c-0.001-0.009-0.007-0.015-0.013-0.021l0,0c-0.005-0.004-0.008-0.009-0.01-0.014
		c-0.004-0.003-0.006-0.008-0.006-0.013c-0.004-0.006-0.007-0.011-0.011-0.017c-0.004-0.003-0.005-0.006-0.005-0.011
		c-0.002-0.008-0.007-0.014-0.012-0.02l-0.001-0.001c-0.01-0.007-0.007-0.021-0.016-0.028l0,0c-0.004-0.004-0.008-0.009-0.01-0.015
		c-0.004-0.003-0.006-0.008-0.006-0.013c-0.003-0.006-0.007-0.012-0.011-0.018c-0.004-0.003-0.005-0.006-0.005-0.011
		c-0.002-0.008-0.007-0.014-0.012-0.02l-0.001-0.001c-0.005-0.003-0.008-0.007-0.01-0.013c-0.002-0.005-0.004-0.01-0.006-0.015
		c-0.004-0.005-0.007-0.01-0.01-0.016c-0.004-0.003-0.006-0.007-0.005-0.012c-0.002-0.007-0.007-0.012-0.011-0.018
		c-0.004-0.002-0.005-0.006-0.005-0.01c-0.001-0.009-0.007-0.015-0.013-0.021l0-0.001c-0.005-0.004-0.008-0.008-0.01-0.014
		c-0.002-0.005-0.004-0.009-0.006-0.014c-0.004-0.005-0.007-0.011-0.011-0.017c-0.004-0.003-0.006-0.007-0.005-0.012
		c-0.002-0.007-0.007-0.013-0.011-0.019c-0.004-0.002-0.005-0.005-0.004-0.009c-0.001-0.009-0.007-0.016-0.013-0.021l0,0
		c-0.004-0.004-0.008-0.009-0.01-0.014c-0.004-0.003-0.006-0.008-0.006-0.013c-0.003-0.006-0.007-0.011-0.011-0.017
		c-0.004-0.003-0.005-0.006-0.005-0.011c-0.002-0.008-0.007-0.014-0.012-0.02l-0.001-0.001c-0.01-0.007-0.007-0.021-0.016-0.028l0,0
		c-0.004-0.005-0.008-0.01-0.01-0.015c-0.004-0.003-0.006-0.008-0.005-0.013c-0.003-0.006-0.007-0.012-0.011-0.018
		c-0.004-0.003-0.005-0.006-0.005-0.01c-0.001-0.009-0.007-0.014-0.012-0.02l0-0.001c-0.005-0.003-0.008-0.008-0.01-0.013
		c-0.002-0.005-0.004-0.01-0.006-0.014c-0.004-0.005-0.007-0.011-0.01-0.016c-0.004-0.003-0.006-0.007-0.005-0.012
		c-0.002-0.007-0.007-0.012-0.011-0.018c-0.004-0.002-0.005-0.006-0.005-0.01c-0.001-0.009-0.007-0.015-0.013-0.021l0,0
		c-0.004-0.004-0.008-0.008-0.01-0.014c-0.002-0.005-0.004-0.009-0.006-0.014c-0.004-0.006-0.007-0.011-0.011-0.017
		c-0.004-0.003-0.006-0.007-0.005-0.012c-0.002-0.008-0.007-0.013-0.012-0.02l-0.001-0.002c-0.01-0.007-0.007-0.021-0.016-0.028l0,0
		c-0.004-0.004-0.008-0.009-0.01-0.014c-0.08-0.136-0.16-0.273-0.239-0.41C20.128,4.358,20.1,4.321,20.086,4.278z"/>
	<path fill="#01FD02" d="M15.369,4.639c0.013,0.002,0.021,0.01,0.029,0.019c0.005,0.003,0.01,0.007,0.015,0.011l0,0
		c0.005,0.006,0.01,0.011,0.018,0.014c0.009,0.007,0.018,0.014,0.027,0.021c0.005,0.002,0.009,0.006,0.012,0.011l0.002,0.002
		c0.006,0.003,0.01,0.008,0.013,0.013l0.002,0.002c0.006,0.003,0.01,0.008,0.013,0.013l0.002,0.002
		c0.006,0.003,0.01,0.008,0.013,0.013l0.002,0.002c0.006,0.003,0.01,0.008,0.013,0.014l0.002,0.002
		c0.005,0.002,0.009,0.006,0.011,0.012c0.009,0.008,0.018,0.016,0.021,0.028c0.003,0.007,0.008,0.013,0.013,0.018l0,0.001
		c0.005,0.004,0.008,0.008,0.011,0.014c0.004,0.002,0.006,0.006,0.006,0.011c0.001,0.008,0.007,0.014,0.013,0.02l0,0
		c0.005,0.004,0.008,0.009,0.01,0.014c0.004,0.003,0.006,0.008,0.006,0.013c0.003,0.006,0.007,0.012,0.011,0.017
		c0.004,0.003,0.005,0.007,0.005,0.012c0.002,0.007,0.007,0.012,0.01,0.018c0.004,0.003,0.005,0.007,0.005,0.012
		c0.003,0.006,0.006,0.012,0.01,0.018c0.004,0.004,0.005,0.008,0.004,0.014c0.008,0.009,0.005,0.023,0.013,0.032
		c0.003,0.003,0.004,0.007,0.003,0.011c0.006,0.011,0.003,0.025,0.013,0.034c0.003,0.003,0.004,0.007,0.002,0.011
		c0.013,0.032-0.007,0.046-0.031,0.057c-0.023,0.011-0.048,0.015-0.073,0.014c-0.168-0.007-0.335,0.017-0.502,0.016
		c-0.2-0.001-0.4,0.013-0.6,0.019c-0.157,0.005-0.314,0.012-0.471,0.004c-0.02-0.001-0.04,0.002-0.057,0.015L13.96,5.215
		l-0.006-0.002c-0.041,0.011-0.082,0.008-0.123,0.003c-0.027-0.003-0.053-0.008-0.075,0.013l0.001-0.001
		c-0.123-0.011-0.245,0.013-0.368,0.004c-0.029-0.002-0.053-0.013-0.072-0.034l0,0c-0.016-0.029,0.002-0.062-0.012-0.091
		c-0.001-0.019-0.003-0.038-0.004-0.057c-0.014-0.03,0.003-0.064-0.012-0.093c-0.013-0.114-0.026-0.229-0.038-0.343
		c-0.003-0.027-0.001-0.031,0.024-0.037c0.061-0.014,0.122-0.028,0.183-0.04c0.184-0.036,0.369-0.066,0.556-0.089
		c0.212-0.026,0.425-0.029,0.637-0.015c0.157,0.011,0.314,0.033,0.464,0.085c0.083,0.028,0.165,0.058,0.237,0.111
		C15.358,4.631,15.363,4.635,15.369,4.639z"/>
	<path fill="#22D32C" d="M15.832,7.352c-0.013,0.011-0.013,0.026-0.013,0.041c0,0.023,0,0.045-0.002,0.068
		c-0.001,0.014-0.011,0.023-0.025,0.024c-0.035,0.001-0.07,0.001-0.105,0.002c-0.042,0.001-0.085-0.003-0.127,0.012
		c-0.018,0.006-0.04,0.003-0.06,0.003c-0.078,0-0.156,0-0.233,0c-0.037,0-0.074,0.004-0.111,0.01
		c-0.051,0.008-0.105,0.004-0.158,0.003c-0.027-0.001-0.037-0.023-0.04-0.047c0.002-0.009,0.003-0.018,0.005-0.028
		c0.005-0.01,0.005-0.023,0.01-0.033c0.001-0.019,0.003-0.038,0.004-0.057c0.008-0.029,0.008-0.059,0-0.088
		c-0.002-0.019-0.003-0.038-0.005-0.057c-0.004-0.011-0.004-0.023-0.01-0.034c-0.003-0.007-0.007-0.013-0.01-0.02
		c-0.046-0.135-0.146-0.212-0.276-0.255c-0.047-0.016-0.097-0.025-0.147-0.029c-0.09-0.007-0.18-0.009-0.27-0.009
		c-0.173,0.001-0.346,0-0.519,0c-0.02,0-0.04,0-0.06-0.001c-0.017-0.001-0.028-0.009-0.029-0.027
		c-0.001-0.015-0.001-0.03-0.001-0.045c0-0.193,0-0.386,0-0.579c0-0.008,0-0.015,0-0.023c0.001-0.049,0.002-0.051,0.052-0.051
		c0.173,0,0.346,0,0.519,0c0.09,0,0.18,0,0.271,0c-0.019,0.047-0.061,0.035-0.096,0.036C14.199,6.171,14,6.169,13.802,6.17
		c-0.108,0-0.139,0.045-0.111,0.151c0.01,0.04,0.04,0.04,0.07,0.042c0.071,0.005,0.14-0.014,0.21-0.014
		c0.356,0,0.711-0.03,1.068-0.032c0.08,0,0.16-0.018,0.24-0.013c0.032,0.002,0.066-0.003,0.091,0.024
		c-0.019,0.016-0.037,0.033-0.055,0.049c0,0.02,0.017,0.022,0.029,0.03c0.053,0.034,0.107,0.065,0.158,0.102
		c0.184,0.131,0.286,0.311,0.317,0.533c0.002,0.017,0.001,0.035,0.002,0.052c0.015,0.034-0.002,0.072,0.011,0.106
		C15.838,7.25,15.837,7.301,15.832,7.352z"/>
	<path fill="#1BDC23" d="M18.019,5.528c0.009,0.042,0.01,0.046,0.036,0.045c0.07-0.002,0.14,0.011,0.209-0.012
		c0.016-0.005,0.035-0.003,0.052-0.003c0.078,0,0.155,0,0.233,0c0.04,0,0.079,0.002,0.119-0.011c0.023-0.007,0.05-0.003,0.075-0.004
		c0.04,0,0.08,0,0.12,0c0,0.024-0.014,0.042-0.023,0.063c-0.193,0.431-0.386,0.862-0.579,1.294c-0.045,0.1-0.088,0.202-0.133,0.302
		c-0.011,0.025-0.024,0.049-0.037,0.074c-0.068,0.042-0.146,0.027-0.219,0.033c-0.174,0.012-0.349,0.009-0.523,0.019
		c-0.043,0.003-0.098,0.008-0.116-0.053c0-0.005,0.001-0.01,0.005-0.014c0.003-0.006,0.009-0.011,0.01-0.018
		c-0.001-0.005,0.001-0.008,0.004-0.012c0.004-0.006,0.01-0.012,0.01-0.02c-0.001-0.004,0-0.007,0.003-0.01
		c0.009-0.008,0.005-0.022,0.014-0.03c0.002-0.005,0.003-0.01,0.005-0.016c0.003-0.006,0.006-0.011,0.01-0.016
		C17.33,7.056,17.364,6.972,17.4,6.89c0.169-0.377,0.34-0.754,0.51-1.131C17.945,5.681,17.976,5.602,18.019,5.528z"/>
	<path fill="#11E916" d="M15.37,6.328c-0.065,0-0.131-0.001-0.196-0.001c-0.01,0-0.021-0.002-0.03,0.001
		c-0.099,0.027-0.2,0.01-0.299,0.014c-0.055,0.002-0.11-0.005-0.164,0.013c-0.016,0.005-0.035,0.002-0.052,0.002
		c-0.083,0-0.166,0-0.249,0c-0.037,0-0.075-0.002-0.112,0.011c-0.018,0.007-0.04,0.004-0.06,0.004c-0.073,0-0.146,0-0.218,0
		c-0.045,0-0.089,0.003-0.134,0.011c-0.054,0.009-0.11,0.003-0.165,0.002c-0.014,0-0.024-0.011-0.024-0.024
		c-0.001-0.063-0.001-0.125,0-0.188c0-0.014,0.01-0.023,0.024-0.024c0.022-0.002,0.045-0.002,0.068-0.002c0.221,0,0.442,0,0.663,0
		c0.024,0,0.051,0.008,0.071-0.013c0.024-0.007,0.049-0.013,0.072-0.022c0.162-0.065,0.269-0.181,0.321-0.346
		c0.05-0.157,0.01-0.393-0.229-0.499c-0.071-0.032-0.146-0.051-0.225-0.056c-0.12-0.007-0.241,0-0.361,0.002
		c-0.035,0.001-0.07,0-0.105,0.001c0.024-0.026,0.053-0.038,0.087-0.025c0.022,0.009,0.044,0.008,0.066,0.008
		c0.085,0,0.17,0,0.255,0c0.025,0,0.05,0,0.071-0.018c0.019-0.016,0.043-0.012,0.065-0.012c0.095,0,0.19,0,0.285,0
		c0.027,0,0.054,0,0.081-0.009c0.018-0.006,0.039-0.005,0.059-0.006c0.075-0.001,0.15,0,0.225,0c0.045,0,0.09,0.003,0.134-0.012
		c0.018-0.006,0.04-0.003,0.06-0.003c0.08,0,0.16-0.001,0.24,0c0.028,0,0.054-0.007,0.08-0.016c0.017-0.006,0.021-0.019,0.025-0.034
		c0.004,0.009,0.011,0.017,0.013,0.026c0.06,0.237,0.071,0.475,0.014,0.713C15.677,6.041,15.55,6.204,15.37,6.328z"/>
	<path fill="#31BF40" d="M17.234,7.274c0.02,0.022,0.048,0.03,0.074,0.03c0.059,0.001,0.12,0.011,0.179-0.008
		c0.018-0.006,0.04-0.004,0.059-0.005c0.075,0,0.15,0,0.225,0c0.05,0,0.099-0.002,0.149-0.011c0.056-0.01,0.115-0.003,0.172-0.004
		c-0.019,0.068-0.054,0.129-0.082,0.193c-0.114,0.259-0.231,0.517-0.347,0.775c-0.045,0.101-0.09,0.201-0.135,0.302
		c-0.005,0.011-0.01,0.023-0.016,0.034c-0.007,0.012-0.016,0.018-0.031,0.013c-0.065-0.018-0.13-0.036-0.195-0.055
		c-0.164-0.046-0.328-0.092-0.492-0.138c-0.012-0.003-0.024-0.007-0.036-0.011c-0.018-0.006-0.023-0.016-0.015-0.035
		c0.021-0.048,0.043-0.096,0.064-0.144c0.131-0.29,0.261-0.58,0.392-0.87C17.209,7.317,17.215,7.292,17.234,7.274z"/>
	<path fill="#11E916" d="M13.317,5.198c0.078,0.018,0.214,0.02,0.297,0.003c0.025-0.005,0.05-0.008,0.071,0.01
		c0.021,0.019,0.047,0.014,0.071,0.017c-0.009,0.003-0.018,0.009-0.028,0.01c-0.127,0.014-0.253,0.028-0.38,0.041
		c-0.021,0.002-0.029-0.003-0.031-0.022C13.316,5.238,13.317,5.218,13.317,5.198z"/>
	<path fill="#11E916" d="M13.756,5.229c0.009-0.025,0.029-0.038,0.052-0.03c0.048,0.018,0.098,0.008,0.146,0.014
		c-0.027,0.015-0.058,0.011-0.087,0.012C13.83,5.228,13.793,5.228,13.756,5.229z"/>
	<path fill="#32BE41" d="M15.831,7.199c-0.009-0.009-0.012-0.021-0.012-0.033c0-0.024,0.001-0.049,0.001-0.073
		C15.839,7.127,15.833,7.163,15.831,7.199z"/>
	<path fill="#32BE41" d="M14.978,7.262c0.019,0.029,0.019,0.059,0,0.088C14.978,7.321,14.978,7.291,14.978,7.262z"/>
	<path fill="#11E916" d="M13.29,4.957c0.024,0.029,0.011,0.062,0.012,0.093C13.285,5.02,13.289,4.988,13.29,4.957z"/>
	<path fill="#11E916" d="M13.305,5.107c0.023,0.028,0.011,0.06,0.012,0.091C13.3,5.17,13.304,5.138,13.305,5.107z"/>
	<path fill="#11E916" d="M15.682,5.031c-0.012-0.007-0.014-0.019-0.013-0.032C15.68,5.007,15.684,5.018,15.682,5.031z"/>
	<path fill="#11E916" d="M15.698,5.076c-0.013-0.008-0.015-0.02-0.013-0.034C15.697,5.051,15.7,5.063,15.698,5.076z"/>
	<path fill="#32BE41" d="M14.963,7.171c0.012,0.009,0.012,0.021,0.01,0.034C14.963,7.196,14.962,7.184,14.963,7.171z"/>
	<path fill="#31BF40" d="M17.28,7.17c0.001,0.012-0.002,0.023-0.014,0.03C17.266,7.188,17.27,7.177,17.28,7.17z"/>
	<path fill="#14E51A" d="M20.052,4.218c0.013,0.005,0.016,0.017,0.017,0.029C20.058,4.241,20.052,4.231,20.052,4.218z"/>
	<path fill="#20D629" d="M20.399,4.821c0.012,0.005,0.015,0.016,0.016,0.028C20.405,4.842,20.399,4.833,20.399,4.821z"/>
	<path fill="#1BDC23" d="M18.033,5.497c0.002,0.013-0.001,0.025-0.015,0.032C18.018,5.515,18.022,5.504,18.033,5.497z"/>
	<path fill="#20D629" d="M20.791,5.498c0.012,0.006,0.015,0.016,0.016,0.028C20.796,5.52,20.791,5.511,20.791,5.498z"/>
	<path fill="#32BE41" d="M14.974,7.408c0.002,0.013,0.001,0.024-0.01,0.033C14.962,7.428,14.964,7.417,14.974,7.408z"/>
	<path fill="#20D629" d="M20.565,5.107c0.012,0.005,0.016,0.016,0.016,0.028C20.57,5.129,20.565,5.119,20.565,5.107z"/>
	<path fill="#20D629" d="M22.163,5.589c-0.012-0.006-0.015-0.016-0.016-0.028C22.157,5.567,22.163,5.576,22.163,5.589z"/>
	<path fill="#11E916" d="M15.369,4.639c-0.005-0.004-0.011-0.007-0.016-0.011C15.361,4.627,15.366,4.631,15.369,4.639z"/>
	<path fill="#20D629" d="M21.616,4.639c-0.003-0.005-0.007-0.01-0.01-0.016C21.612,4.626,21.616,4.631,21.616,4.639z"/>
	<path fill="#11E916" d="M15.413,4.669c-0.005-0.004-0.01-0.008-0.015-0.011C15.406,4.658,15.411,4.662,15.413,4.669z"/>
	<path fill="#20D629" d="M21.633,4.669c-0.007-0.004-0.011-0.01-0.011-0.018C21.629,4.655,21.633,4.661,21.633,4.669z"/>
	<path fill="#11E916" d="M15.431,4.683c-0.009-0.001-0.015-0.006-0.018-0.014C15.422,4.67,15.428,4.675,15.431,4.683z"/>
	<path fill="#20D629" d="M21.65,4.7c-0.008-0.004-0.012-0.011-0.013-0.021C21.645,4.684,21.649,4.691,21.65,4.7z"/>
	<path fill="#11E916" d="M15.47,4.716c-0.004-0.004-0.008-0.007-0.012-0.011C15.466,4.705,15.469,4.709,15.47,4.716z"/>
	<path fill="#20D629" d="M21.66,4.714c-0.003-0.004-0.007-0.009-0.01-0.013C21.654,4.705,21.657,4.709,21.66,4.714z"/>
	<path fill="#11E916" d="M15.486,4.73c-0.005-0.004-0.009-0.009-0.014-0.013C15.48,4.718,15.485,4.723,15.486,4.73z"/>
	<path fill="#11E916" d="M15.501,4.746c-0.004-0.004-0.009-0.009-0.013-0.013C15.495,4.733,15.5,4.738,15.501,4.746z"/>
	<path fill="#20D629" d="M21.677,4.744c-0.004-0.005-0.007-0.011-0.011-0.016C21.673,4.731,21.677,4.736,21.677,4.744z"/>
	<path fill="#11E916" d="M15.516,4.761c-0.004-0.004-0.009-0.009-0.013-0.013C15.51,4.748,15.515,4.753,15.516,4.761z"/>
	<path fill="#11E916" d="M15.53,4.776c-0.004-0.005-0.009-0.009-0.013-0.014C15.525,4.763,15.53,4.768,15.53,4.776z"/>
	<path fill="#20D629" d="M21.693,4.775c-0.004-0.006-0.008-0.012-0.011-0.018C21.689,4.76,21.693,4.766,21.693,4.775z"/>
	<path fill="#11E916" d="M15.543,4.79c-0.004-0.004-0.007-0.008-0.011-0.012C15.539,4.779,15.543,4.782,15.543,4.79z"/>
	<path fill="#20D629" d="M21.711,4.805c-0.008-0.004-0.013-0.012-0.013-0.021C21.706,4.789,21.71,4.796,21.711,4.805z"/>
	<path fill="#20D629" d="M20.389,4.806c0.003,0.005,0.007,0.01,0.01,0.014C20.393,4.818,20.389,4.814,20.389,4.806z"/>
	<path fill="#20D629" d="M21.721,4.819c-0.003-0.005-0.007-0.009-0.01-0.014C21.717,4.808,21.721,4.812,21.721,4.819z"/>
	<path fill="#11E916" d="M15.578,4.835c-0.008-0.004-0.012-0.01-0.013-0.018C15.572,4.821,15.577,4.827,15.578,4.835z"/>
	<path fill="#11E916" d="M15.589,4.85c-0.004-0.005-0.007-0.009-0.011-0.014C15.585,4.838,15.589,4.842,15.589,4.85z"/>
	<path fill="#20D629" d="M21.737,4.85c-0.004-0.006-0.007-0.011-0.011-0.017C21.734,4.836,21.738,4.842,21.737,4.85z"/>
	<path fill="#20D629" d="M20.416,4.85c0.004,0.007,0.008,0.013,0.012,0.02C20.42,4.866,20.417,4.859,20.416,4.85z"/>
	<path fill="#11E916" d="M15.608,4.881c-0.008-0.004-0.013-0.011-0.013-0.02C15.603,4.865,15.608,4.871,15.608,4.881z"/>
	<path fill="#20D629" d="M21.754,4.881c-0.007-0.005-0.012-0.011-0.012-0.02C21.75,4.865,21.754,4.872,21.754,4.881z"/>
	<path fill="#11E916" d="M15.619,4.895c-0.003-0.005-0.007-0.009-0.01-0.014C15.615,4.883,15.619,4.888,15.619,4.895z"/>
	<path fill="#20D629" d="M20.433,4.881c0.004,0.006,0.007,0.011,0.011,0.017C20.437,4.895,20.433,4.889,20.433,4.881z"/>
	<path fill="#20D629" d="M21.764,4.894c-0.003-0.004-0.006-0.008-0.009-0.012C21.761,4.884,21.765,4.888,21.764,4.894z"/>
	<path fill="#11E916" d="M15.635,4.925c-0.004-0.006-0.007-0.012-0.011-0.017C15.632,4.911,15.636,4.917,15.635,4.925z"/>
	<path fill="#20D629" d="M20.45,4.912c0.003,0.005,0.007,0.009,0.01,0.014C20.453,4.923,20.45,4.919,20.45,4.912z"/>
	<path fill="#20D629" d="M21.782,4.925c-0.003-0.005-0.007-0.01-0.01-0.015C21.778,4.913,21.782,4.917,21.782,4.925z"/>
	<path fill="#20D629" d="M20.46,4.926c0.008,0.005,0.012,0.012,0.013,0.021C20.465,4.942,20.461,4.935,20.46,4.926z"/>
	<path fill="#11E916" d="M15.65,4.955c-0.007-0.004-0.011-0.01-0.01-0.018C15.647,4.941,15.651,4.947,15.65,4.955z"/>
	<path fill="#20D629" d="M21.798,4.955c-0.004-0.006-0.007-0.012-0.011-0.017C21.794,4.941,21.798,4.947,21.798,4.955z"/>
	<path fill="#20D629" d="M20.477,4.957c0.007,0.004,0.011,0.01,0.011,0.018C20.481,4.971,20.478,4.965,20.477,4.957z"/>
	<path fill="#11E916" d="M15.665,4.986c-0.007-0.004-0.01-0.01-0.01-0.018C15.662,4.971,15.666,4.977,15.665,4.986z"/>
	<path fill="#20D629" d="M21.815,4.986c-0.008-0.004-0.012-0.011-0.012-0.02C21.811,4.97,21.815,4.977,21.815,4.986z"/>
	<path fill="#20D629" d="M20.494,4.987c0.003,0.005,0.007,0.011,0.01,0.016C20.498,5,20.494,4.995,20.494,4.987z"/>
	<path fill="#20D629" d="M21.825,5c-0.003-0.004-0.007-0.009-0.01-0.013C21.819,4.991,21.822,4.996,21.825,5z"/>
	<path fill="#20D629" d="M20.511,5.017c0.003,0.004,0.007,0.009,0.01,0.013C20.517,5.026,20.514,5.022,20.511,5.017z"/>
	<path fill="#20D629" d="M21.842,5.03c-0.003-0.005-0.007-0.011-0.01-0.016C21.838,5.018,21.842,5.023,21.842,5.03z"/>
	<path fill="#20D629" d="M20.521,5.031c0.008,0.005,0.012,0.011,0.012,0.02C20.525,5.047,20.521,5.04,20.521,5.031z"/>
	<path fill="#20D629" d="M21.859,5.061c-0.007-0.004-0.011-0.01-0.011-0.018C21.855,5.047,21.858,5.053,21.859,5.061z"/>
	<path fill="#20D629" d="M20.538,5.062c0.004,0.006,0.007,0.012,0.011,0.018C20.542,5.076,20.538,5.07,20.538,5.062z"/>
	<path fill="#20D629" d="M21.876,5.091c-0.008-0.005-0.012-0.011-0.013-0.021C21.871,5.075,21.875,5.082,21.876,5.091z"/>
	<path fill="#20D629" d="M20.554,5.092c0.003,0.005,0.007,0.01,0.01,0.015C20.558,5.105,20.554,5.1,20.554,5.092z"/>
	<path fill="#20D629" d="M21.886,5.106c-0.003-0.005-0.007-0.009-0.01-0.014C21.882,5.094,21.886,5.099,21.886,5.106z"/>
	<path fill="#20D629" d="M21.903,5.136c-0.004-0.006-0.007-0.011-0.011-0.017C21.899,5.123,21.903,5.128,21.903,5.136z"/>
	<path fill="#20D629" d="M20.582,5.136c0.008,0.005,0.012,0.011,0.012,0.02C20.586,5.152,20.582,5.145,20.582,5.136z"/>
	<path fill="#20D629" d="M21.919,5.166c-0.004-0.006-0.008-0.012-0.011-0.019C21.915,5.152,21.919,5.158,21.919,5.166z"/>
	<path fill="#20D629" d="M20.599,5.168c0.004,0.006,0.007,0.011,0.011,0.017C20.602,5.181,20.598,5.176,20.599,5.168z"/>
	<path fill="#20D629" d="M21.937,5.197c-0.009-0.005-0.013-0.012-0.013-0.021C21.932,5.18,21.936,5.187,21.937,5.197z"/>
	<path fill="#20D629" d="M20.615,5.198c0.003,0.005,0.007,0.01,0.01,0.014C20.619,5.21,20.615,5.205,20.615,5.198z"/>
	<path fill="#20D629" d="M21.947,5.211c-0.003-0.005-0.007-0.01-0.01-0.014C21.943,5.199,21.947,5.204,21.947,5.211z"/>
	<path fill="#20D629" d="M20.625,5.212c0.008,0.005,0.013,0.012,0.013,0.021C20.63,5.229,20.626,5.222,20.625,5.212z"/>
	<path fill="#20D629" d="M21.963,5.242c-0.004-0.006-0.007-0.011-0.011-0.017C21.96,5.228,21.964,5.233,21.963,5.242z"/>
	<path fill="#20D629" d="M20.643,5.243c0.004,0.006,0.008,0.012,0.011,0.019C20.647,5.257,20.643,5.251,20.643,5.243z"/>
	<path fill="#20D629" d="M21.98,5.273c-0.008-0.005-0.012-0.011-0.012-0.02C21.976,5.257,21.98,5.264,21.98,5.273z"/>
	<path fill="#20D629" d="M20.659,5.273c0.004,0.006,0.007,0.011,0.011,0.017C20.663,5.286,20.659,5.281,20.659,5.273z"/>
	<path fill="#20D629" d="M21.99,5.286c-0.003-0.004-0.006-0.008-0.009-0.012C21.984,5.278,21.987,5.282,21.99,5.286z"/>
	<path fill="#20D629" d="M20.676,5.303c0.003,0.005,0.007,0.009,0.01,0.014C20.68,5.315,20.676,5.31,20.676,5.303z"/>
	<path fill="#20D629" d="M22.007,5.317c-0.003-0.005-0.007-0.01-0.01-0.015C22.004,5.304,22.008,5.309,22.007,5.317z"/>
	<path fill="#20D629" d="M20.686,5.317c0.008,0.005,0.012,0.012,0.013,0.021C20.691,5.334,20.687,5.327,20.686,5.317z"/>
	<path fill="#20D629" d="M22.024,5.347c-0.004-0.006-0.007-0.012-0.011-0.018C22.02,5.333,22.024,5.339,22.024,5.347z"/>
	<path fill="#20D629" d="M20.704,5.348c0.007,0.004,0.011,0.01,0.011,0.018C20.708,5.362,20.704,5.356,20.704,5.348z"/>
	<path fill="#20D629" d="M22.041,5.378c-0.008-0.005-0.012-0.011-0.012-0.021C22.037,5.362,22.041,5.369,22.041,5.378z"/>
	<path fill="#20D629" d="M20.72,5.378c0.003,0.005,0.007,0.011,0.01,0.016C20.724,5.391,20.72,5.386,20.72,5.378z"/>
	<path fill="#20D629" d="M22.051,5.392c-0.003-0.004-0.007-0.009-0.01-0.013C22.048,5.381,22.052,5.385,22.051,5.392z"/>
	<path fill="#20D629" d="M20.737,5.409c0.003,0.004,0.006,0.009,0.01,0.013C20.74,5.42,20.737,5.416,20.737,5.409z"/>
	<path fill="#20D629" d="M22.068,5.422c-0.004-0.005-0.007-0.011-0.011-0.016C22.064,5.409,22.069,5.414,22.068,5.422z"/>
	<path fill="#20D629" d="M20.747,5.423c0.008,0.005,0.012,0.011,0.012,0.02C20.752,5.439,20.747,5.432,20.747,5.423z"/>
	<path fill="#20D629" d="M22.085,5.453c-0.004-0.006-0.008-0.012-0.011-0.018C22.081,5.438,22.085,5.444,22.085,5.453z"/>
	<path fill="#20D629" d="M20.764,5.454c0.004,0.006,0.007,0.012,0.011,0.018C20.768,5.468,20.764,5.462,20.764,5.454z"/>
	<path fill="#1BDC23" d="M18.048,5.465c0,0.008-0.003,0.014-0.01,0.018C18.037,5.475,18.04,5.469,18.048,5.465z"/>
	<path fill="#20D629" d="M22.102,5.483c-0.008-0.005-0.013-0.012-0.013-0.021C22.097,5.467,22.101,5.474,22.102,5.483z"/>
	<path fill="#20D629" d="M20.781,5.484c0.003,0.005,0.007,0.01,0.01,0.015C20.784,5.496,20.78,5.491,20.781,5.484z"/>
	<path fill="#20D629" d="M22.112,5.497c-0.003-0.005-0.007-0.009-0.01-0.014C22.109,5.486,22.112,5.49,22.112,5.497z"/>
	<path fill="#20D629" d="M22.129,5.528c-0.004-0.006-0.007-0.011-0.011-0.017C22.125,5.514,22.129,5.52,22.129,5.528z"/>
	<path fill="#20D629" d="M20.808,5.528c0.004,0.007,0.008,0.013,0.012,0.02C20.812,5.544,20.808,5.537,20.808,5.528z"/>
	<path fill="#14E51A" d="M19.983,4.098c0.003,0.005,0.007,0.009,0.01,0.014C19.986,4.11,19.982,4.106,19.983,4.098z"/>
	<path fill="#20D629" d="M22.146,5.559c-0.004-0.007-0.008-0.013-0.012-0.02C22.142,5.544,22.145,5.55,22.146,5.559z"/>
	<path fill="#20D629" d="M20.825,5.559c0.004,0.006,0.007,0.011,0.011,0.017C20.829,5.573,20.824,5.567,20.825,5.559z"/>
	<path fill="#14E51A" d="M19.993,4.112c0.009,0.005,0.013,0.012,0.013,0.022C19.998,4.129,19.993,4.122,19.993,4.112z"/>
	<path fill="#20D629" d="M20.841,5.589c0.003,0.005,0.007,0.009,0.01,0.014C20.845,5.601,20.841,5.597,20.841,5.589z"/>
	<path fill="#20D629" d="M22.173,5.603c-0.003-0.005-0.007-0.01-0.01-0.015C22.169,5.591,22.173,5.595,22.173,5.603z"/>
	<path fill="#20D629" d="M20.852,5.604c0.008,0.005,0.013,0.012,0.013,0.021C20.857,5.62,20.852,5.613,20.852,5.604z"/>
	<path fill="#14E51A" d="M20.01,4.143c0.007,0.005,0.011,0.012,0.011,0.02C20.014,4.159,20.01,4.152,20.01,4.143z"/>
	<path fill="#20D629" d="M20.869,5.634c0.004,0.006,0.008,0.011,0.011,0.017C20.872,5.648,20.869,5.642,20.869,5.634z"/>
	<path fill="#14E51A" d="M20.025,4.173c0.004,0.006,0.008,0.012,0.011,0.019C20.029,4.188,20.026,4.182,20.025,4.173z"/>
	<path fill="#14E51A" d="M20.042,4.204c0.004,0.005,0.007,0.01,0.011,0.016C20.046,4.216,20.042,4.211,20.042,4.204z"/>
	<path fill="#14E51A" d="M20.069,4.248c0.008,0.005,0.012,0.012,0.013,0.021C20.074,4.264,20.069,4.257,20.069,4.248z"/>
	<path fill="#20D629" d="M21.407,4.277c-0.007-0.004-0.011-0.01-0.011-0.018C21.403,4.263,21.407,4.269,21.407,4.277z"/>
	<path fill="#20D629" d="M21.424,4.308c-0.008-0.004-0.012-0.011-0.012-0.02C21.419,4.292,21.423,4.299,21.424,4.308z"/>
	<path fill="#20D629" d="M21.434,4.322c-0.003-0.004-0.007-0.009-0.01-0.013C21.428,4.313,21.431,4.318,21.434,4.322z"/>
	<path fill="#20D629" d="M21.451,4.352c-0.003-0.005-0.007-0.011-0.01-0.016C21.447,4.34,21.451,4.345,21.451,4.352z"/>
	<path fill="#20D629" d="M21.467,4.383c-0.004-0.006-0.007-0.012-0.011-0.018C21.463,4.368,21.467,4.375,21.467,4.383z"/>
	<path fill="#20D629" d="M21.495,4.428c-0.003-0.005-0.007-0.009-0.01-0.014C21.491,4.416,21.495,4.42,21.495,4.428z"/>
	<path fill="#20D629" d="M21.511,4.458c-0.004-0.006-0.007-0.011-0.011-0.017C21.508,4.445,21.512,4.45,21.511,4.458z"/>
	<path fill="#20D629" d="M21.528,4.489c-0.007-0.004-0.011-0.011-0.012-0.02C21.524,4.474,21.528,4.48,21.528,4.489z"/>
	<path fill="#31BF40" d="M17.295,7.138c-0.003,0.005-0.006,0.011-0.01,0.016C17.285,7.147,17.288,7.142,17.295,7.138z"/>
	<path fill="#20D629" d="M21.538,4.503c-0.004-0.003-0.007-0.007-0.009-0.012C21.532,4.495,21.535,4.499,21.538,4.503z"/>
	<path fill="#31BF40" d="M17.263,7.21c0,0.009-0.003,0.015-0.01,0.02C17.253,7.222,17.256,7.215,17.263,7.21z"/>
	<path fill="#31BF40" d="M17.249,7.242c0,0.008-0.003,0.014-0.01,0.018C17.238,7.252,17.242,7.246,17.249,7.242z"/>
	<path fill="#20D629" d="M21.555,4.533c-0.003-0.005-0.007-0.01-0.01-0.015C21.552,4.521,21.556,4.526,21.555,4.533z"/>
	<path fill="#20D629" d="M21.572,4.563c-0.004-0.006-0.007-0.012-0.011-0.017C21.568,4.55,21.572,4.555,21.572,4.563z"/>
	<path fill="#20D629" d="M21.589,4.594c-0.008-0.004-0.012-0.011-0.012-0.02C21.585,4.579,21.589,4.585,21.589,4.594z"/>
	<path fill="#20D629" d="M21.599,4.608c-0.003-0.004-0.006-0.008-0.01-0.013C21.593,4.6,21.596,4.604,21.599,4.608z"/>
	<path d="M10.421,1.939C10.402,1.975,10.39,2,10.377,2.023C10,2.709,9.623,3.394,9.246,4.08C8.841,4.816,8.437,5.553,8.033,6.289
		C7.991,6.366,7.99,6.336,8.029,6.418c0.506,1.075,1.013,2.15,1.519,3.225c0.248,0.526,0.495,1.053,0.742,1.579
		c0.01,0.022,0.027,0.042,0.026,0.073c-0.013,0-0.025,0.001-0.036,0c-0.143-0.011-0.285-0.023-0.428-0.035
		c-0.08-0.007-0.16-0.014-0.24-0.021c-0.245-0.02-0.49-0.04-0.735-0.06c-0.218-0.017-0.435-0.034-0.653-0.051
		c-0.03-0.002-0.061-0.011-0.09-0.008c-0.062,0.007-0.086-0.027-0.11-0.077c-0.209-0.428-0.421-0.855-0.632-1.282
		C6.935,8.839,6.48,7.914,6.024,6.99C5.961,6.862,5.899,6.733,5.835,6.606c-0.014-0.027-0.015-0.05,0-0.077
		c0.072-0.14,0.142-0.282,0.214-0.423c0.318-0.62,0.637-1.24,0.955-1.86C7.37,3.529,7.737,2.813,8.105,2.096
		c0.048-0.094,0.022-0.075,0.122-0.079c0.341-0.014,0.682-0.026,1.023-0.04c0.14-0.005,0.281-0.011,0.421-0.016
		c0.233-0.008,0.467-0.016,0.7-0.024C10.384,1.938,10.396,1.939,10.421,1.939z"/>
	<path d="M0.028,6.587c0.005-0.005,0.009-0.012,0.015-0.016C2.378,5.11,4.714,3.648,7.049,2.187
		c0.003-0.002,0.009-0.001,0.017-0.001C7.071,2.21,7.054,2.228,7.046,2.246C6.904,2.54,6.762,2.833,6.62,3.127
		C6.464,3.45,6.308,3.773,6.153,4.096C5.762,4.906,5.371,5.718,4.98,6.529C4.979,6.531,4.978,6.533,4.977,6.535
		C4.951,6.572,4.955,6.606,4.975,6.647c0.133,0.273,0.263,0.547,0.394,0.82c0.349,0.725,0.698,1.451,1.047,2.176
		c0.243,0.506,0.486,1.013,0.729,1.519c0.009,0.019,0.024,0.037,0.024,0.063C7.104,11.195,0.085,6.635,0.028,6.587z"/>
	<path d="M21.668,11.011c0.017-0.032,0.028-0.054,0.039-0.075c0.209-0.38,0.418-0.76,0.627-1.141
		c0.515-0.936,1.029-1.873,1.543-2.809c0.063-0.114,0.123-0.23,0.188-0.343c0.022-0.038,0.019-0.066,0.001-0.103
		c-0.216-0.455-0.43-0.911-0.645-1.367c-0.149-0.315-0.297-0.63-0.446-0.946c-0.39-0.828-0.78-1.656-1.17-2.484
		c-0.013-0.027-0.03-0.052-0.034-0.087c0.048-0.003,0.092,0.002,0.136,0.005c0.088,0.007,0.175,0.016,0.262,0.023
		c0.243,0.02,0.485,0.04,0.728,0.059c0.218,0.017,0.435,0.034,0.653,0.051c0.138,0.011,0.275,0.02,0.413,0.034
		c0.079,0.008,0.06-0.006,0.095,0.065c0.127,0.256,0.253,0.513,0.38,0.769c0.23,0.465,0.46,0.931,0.69,1.396
		c0.372,0.753,0.743,1.507,1.114,2.26c0.004,0.009,0.008,0.018,0.014,0.027c0.015,0.024,0.013,0.045,0,0.07
		c-0.072,0.141-0.142,0.282-0.214,0.423c-0.48,0.937-0.961,1.874-1.441,2.812c-0.207,0.404-0.413,0.808-0.62,1.212
		c-0.041,0.081-0.022,0.069-0.112,0.072c-0.354,0.013-0.708,0.025-1.061,0.038c-0.351,0.013-0.702,0.027-1.054,0.04
		C21.729,11.012,21.704,11.011,21.668,11.011z"/>
	<path d="M24.966,2.183c0.028-0.004,0.045,0.018,0.066,0.031c0.305,0.19,0.609,0.38,0.913,0.57c0.704,0.44,1.409,0.88,2.113,1.321
		c1.291,0.808,2.582,1.617,3.872,2.425c0.017,0.011,0.034,0.021,0.05,0.033c0.015,0.01,0.014,0.026-0.001,0.037
		c-0.014,0.01-0.029,0.02-0.044,0.029c-0.13,0.085-0.261,0.169-0.392,0.254c-1.431,0.929-2.862,1.859-4.293,2.788
		c-0.772,0.502-1.544,1.004-2.316,1.506c-0.022,0.015-0.046,0.028-0.071,0.044c-0.008-0.027,0.008-0.042,0.016-0.059
		c0.11-0.231,0.221-0.461,0.332-0.692c0.558-1.162,1.117-2.323,1.675-3.485c0.056-0.118,0.113-0.235,0.168-0.353
		c0.027-0.058,0.028-0.037,0-0.097c-0.136-0.283-0.272-0.565-0.409-0.847c-0.237-0.49-0.474-0.98-0.71-1.47
		c-0.316-0.655-0.631-1.31-0.946-1.966c-0.01-0.022-0.03-0.041-0.024-0.069L24.966,2.183z"/>
	<polygon points="24.964,2.185 24.954,2.18 24.961,2.173 24.966,2.183 	"/>
	<path fill="#666666" d="M9.597,2.444c0.005,0.011,0.001,0.021-0.004,0.029C9.537,2.575,9.482,2.676,9.426,2.777
		c-0.07,0.127-0.141,0.255-0.211,0.382C9.087,3.389,8.96,3.62,8.833,3.851C8.761,3.983,8.69,4.115,8.618,4.247
		c-0.129,0.235-0.259,0.47-0.389,0.705C8.137,5.119,8.046,5.287,7.954,5.454c-0.129,0.235-0.259,0.47-0.389,0.705
		c-0.019,0.035-0.04,0.07-0.056,0.107C7.494,6.3,7.471,6.313,7.433,6.312c-0.09-0.002-0.181,0-0.271,0
		c-0.203,0.001-0.407,0.001-0.61,0.001c-0.022,0-0.045-0.002-0.065-0.002c-0.009-0.02,0.001-0.033,0.008-0.046
		c0.117-0.227,0.235-0.455,0.352-0.682c0.007-0.013,0.014-0.027,0.021-0.04C7.04,5.206,7.212,4.869,7.384,4.532
		c0.124-0.244,0.249-0.487,0.373-0.73C7.954,3.417,8.151,3.034,8.349,2.65c0.024-0.047,0.05-0.093,0.074-0.139
		c0.009-0.017,0.021-0.027,0.041-0.028C8.496,2.48,8.529,2.475,8.561,2.474c0.188-0.007,0.376-0.012,0.564-0.018
		c0.133-0.004,0.266-0.01,0.398-0.014C9.548,2.44,9.573,2.435,9.597,2.444z"/>
	<path fill="#18DF20" d="M6.466,6.793c0.01-0.011,0.022-0.01,0.035-0.01C6.876,6.782,7.252,6.781,7.627,6.78
		c0.008,0,0.015,0.001,0.023,0C7.67,6.779,7.682,6.79,7.691,6.807c0.016,0.034,0.033,0.067,0.049,0.101
		c0.063,0.136,0.126,0.272,0.19,0.408C7.983,7.43,8.037,7.543,8.09,7.656C8.096,7.669,8.1,7.684,8.105,7.698
		C8.13,7.766,8.113,7.837,8.114,7.906c0.001,0.66,0.001,1.319,0,1.979c0,0.033,0.002,0.065-0.003,0.098
		c-0.004,0.03-0.008,0.062-0.049,0.064c-0.05-0.098-0.101-0.195-0.149-0.294C7.783,9.491,7.654,9.229,7.526,8.966
		C7.516,8.946,7.502,8.928,7.5,8.904c0.02-0.05,0.023-0.102,0.023-0.155c0-0.607,0-1.213,0-1.82c0-0.11-0.002-0.111-0.115-0.111
		c-0.276,0-0.552,0-0.827,0C6.541,6.817,6.499,6.824,6.466,6.793z"/>
	<path fill="#21D52A" d="M8.062,10.047c0.017-0.009,0.027-0.022,0.027-0.042C8.09,9.983,8.09,9.96,8.09,9.937
		c0-0.679,0-1.359,0-2.038c0-0.05-0.004-0.1,0.013-0.149c0.006-0.016,0.002-0.035,0.002-0.052c0.041,0.083,0.083,0.165,0.122,0.248
		C8.343,8.191,8.458,8.435,8.572,8.68c0.032,0.068,0.067,0.134,0.092,0.205C8.676,8.972,8.672,9.06,8.672,9.147
		c0,0.465,0,0.931,0,1.396c0,0.032,0.002,0.065-0.005,0.097c-0.006,0.028-0.014,0.057-0.054,0.042
		c-0.072,0.001-0.144-0.003-0.216-0.013c-0.026-0.003-0.04-0.015-0.051-0.037c-0.059-0.121-0.12-0.242-0.179-0.363
		C8.131,10.196,8.097,10.121,8.062,10.047z"/>
	<path fill="#10EA15" d="M6.466,6.793c0.329,0,0.658,0,0.986,0.001c0.1,0,0.095-0.007,0.095,0.093c0,0.635,0,1.27,0,1.905
		c0,0.02,0.002,0.041-0.002,0.06C7.541,8.877,7.531,8.9,7.5,8.904c0,0,0.001,0,0.001,0C7.498,8.899,7.494,8.894,7.491,8.888
		C7.487,8.885,7.485,8.881,7.486,8.876C7.483,8.87,7.479,8.864,7.475,8.858C7.472,8.855,7.47,8.851,7.471,8.846
		C7.468,8.84,7.464,8.834,7.461,8.828C7.457,8.825,7.455,8.82,7.456,8.815c-0.003-0.006-0.007-0.012-0.01-0.017
		C7.442,8.794,7.44,8.79,7.441,8.785c-0.003-0.006-0.007-0.012-0.01-0.017C7.427,8.764,7.425,8.76,7.426,8.755
		c-0.004-0.006-0.007-0.011-0.01-0.017C7.365,8.637,7.313,8.537,7.263,8.436C7.028,7.961,6.794,7.486,6.559,7.012
		C6.529,6.951,6.501,6.89,6.471,6.829C6.466,6.817,6.459,6.806,6.466,6.793z"/>
	<path fill="#29C936" d="M8.613,10.682c0.019-0.003,0.033-0.011,0.034-0.033c0-0.023,0.001-0.045,0.001-0.068
		c0-0.531,0-1.063,0-1.594c0-0.035-0.005-0.071,0.017-0.102c0.028,0.036,0.043,0.079,0.062,0.119c0.151,0.319,0.3,0.639,0.45,0.959
		c0.116,0.247,0.232,0.494,0.349,0.741c0.007,0.016,0.019,0.03,0.013,0.053c-0.049,0.003-0.099-0.001-0.149-0.005
		c-0.082-0.006-0.164-0.016-0.247-0.023c-0.092-0.008-0.185-0.013-0.277-0.02c-0.075-0.005-0.15-0.011-0.225-0.017
		C8.631,10.691,8.622,10.685,8.613,10.682z"/>
	<path fill="#18DF20" d="M7.416,8.738c0.003,0.006,0.007,0.011,0.01,0.017C7.419,8.751,7.415,8.746,7.416,8.738z"/>
	<path fill="#18DF20" d="M7.431,8.768c0.003,0.006,0.007,0.012,0.01,0.017C7.434,8.781,7.43,8.776,7.431,8.768z"/>
	<path fill="#18DF20" d="M7.446,8.798c0.003,0.006,0.007,0.012,0.01,0.017C7.449,8.812,7.445,8.806,7.446,8.798z"/>
	<path fill="#18DF20" d="M7.461,8.828c0.003,0.006,0.007,0.012,0.01,0.018C7.464,8.842,7.46,8.836,7.461,8.828z"/>
	<path fill="#18DF20" d="M7.475,8.858C7.479,8.864,7.482,8.87,7.486,8.876C7.479,8.872,7.475,8.866,7.475,8.858z"/>
	<path fill="#18DF20" d="M7.491,8.888c0.004,0.005,0.007,0.011,0.011,0.016C7.493,8.902,7.49,8.896,7.491,8.888z"/>
	<path fill="#1FD629" d="M1.46,6.96C1.419,6.945,1.389,6.914,1.353,6.891C1.22,6.806,1.088,6.72,0.956,6.634
		C0.94,6.623,0.92,6.615,0.909,6.597C0.907,6.58,0.921,6.577,0.93,6.571c0.577-0.361,1.154-0.723,1.732-1.084
		c0.01-0.007,0.022-0.011,0.034-0.016c0.047,0.026,0.098,0.034,0.152,0.034c0.637-0.001,1.274,0,1.911,0
		c0.045,0,0.09-0.001,0.133-0.02c0.02-0.009,0.043-0.017,0.064-0.001C4.956,5.504,4.943,5.521,4.935,5.539
		C4.776,5.867,4.617,6.196,4.458,6.524C4.457,6.526,4.457,6.529,4.455,6.531C4.428,6.57,4.425,6.609,4.454,6.648
		C4.458,6.654,4.458,6.662,4.46,6.67c0.003,0.006,0.007,0.012,0.01,0.018C4.474,6.691,4.475,6.695,4.475,6.7
		c0.003,0.006,0.007,0.011,0.01,0.017C4.489,6.721,4.49,6.726,4.489,6.731C4.493,6.736,4.496,6.742,4.5,6.748
		c0.002,0.005,0.003,0.009,0.005,0.014c0.004,0.005,0.007,0.01,0.01,0.016c0.002,0.005,0.003,0.01,0.005,0.015
		c0.004,0.005,0.007,0.01,0.01,0.015c0.002,0.005,0.004,0.01,0.005,0.015C4.543,6.832,4.54,6.846,4.549,6.854l0,0
		c0.009,0.008,0.006,0.022,0.014,0.03l0,0.001C4.573,6.892,4.57,6.906,4.578,6.914C4.581,6.917,4.583,6.92,4.582,6.924
		c0.002,0.042-0.031,0.047-0.06,0.054C4.491,6.986,4.458,6.984,4.425,6.984c-0.939,0-1.879,0-2.818,0
		C1.556,6.984,1.507,6.98,1.46,6.96z"/>
	<path fill="#21D32B" d="M1.46,6.96c0.997,0,1.994,0,2.99,0c0.02,0,0.04,0,0.06,0C4.54,6.959,4.565,6.95,4.582,6.925
		C4.62,7,4.659,7.076,4.696,7.152C4.813,7.396,4.93,7.639,5.047,7.883c0.045,0.095,0.091,0.19,0.136,0.284
		c0.006,0.013,0.011,0.028,0.016,0.042c0.004,0.057-0.025,0.082-0.08,0.084c-0.03,0.001-0.06,0.001-0.09,0.001
		c-0.443,0-0.885-0.001-1.328,0.001c-0.094,0-0.184-0.005-0.267-0.055c-0.053-0.033-0.107-0.064-0.16-0.098
		C2.692,7.764,2.109,7.386,1.527,7.008C1.504,6.993,1.478,6.981,1.46,6.96z"/>
	<path fill="#13E619" d="M4.956,5.483C4.933,5.484,4.912,5.495,4.895,5.509C4.873,5.526,4.85,5.53,4.825,5.528
		c-0.015-0.001-0.03,0-0.045,0c-0.652,0-1.304,0-1.956,0c-0.02,0-0.04,0-0.06,0C2.726,5.527,2.703,5.509,2.696,5.471
		c0.093-0.06,0.185-0.12,0.279-0.178c0.491-0.308,0.983-0.614,1.474-0.922c0.476-0.298,0.952-0.598,1.428-0.897
		c0.018-0.012,0.037-0.022,0.059-0.035c0.004,0.028-0.011,0.043-0.019,0.06c-0.09,0.188-0.181,0.375-0.272,0.562
		c-0.22,0.457-0.439,0.913-0.659,1.37C4.977,5.449,4.966,5.466,4.956,5.483z"/>
	<path fill="#2DC43A" d="M3.434,8.24c0.012,0.001,0.026,0,0.037,0.005C3.525,8.27,3.582,8.27,3.64,8.27c0.477-0.001,0.953,0,1.43,0
		c0.013,0,0.025,0.001,0.038,0c0.02-0.001,0.041,0,0.059-0.005c0.023-0.007,0.009-0.038,0.026-0.051
		c0.002-0.002,0.004-0.003,0.006-0.005c0.033,0.042,0.05,0.092,0.073,0.139c0.114,0.235,0.226,0.47,0.339,0.705
		C5.734,9.312,5.858,9.57,5.981,9.828C5.991,9.848,6,9.869,6.008,9.89c0.002,0.004,0,0.01-0.002,0.014
		C6.001,9.912,5.993,9.908,5.988,9.904C5.901,9.849,5.814,9.793,5.728,9.737C5.59,9.646,5.452,9.554,5.313,9.464
		C4.936,9.219,4.559,8.975,4.183,8.73C3.955,8.583,3.728,8.436,3.501,8.288C3.478,8.273,3.452,8.262,3.434,8.24z"/>
	<path fill="#21D32B" d="M4.563,6.884c-0.012-0.007-0.014-0.018-0.014-0.03C4.559,6.862,4.564,6.872,4.563,6.884z"/>
	<path fill="#21D32B" d="M4.578,6.914C4.567,6.907,4.564,6.897,4.564,6.885C4.574,6.892,4.578,6.902,4.578,6.914z"/>
	<path fill="#21D32B" d="M4.549,6.854C4.537,6.847,4.534,6.836,4.534,6.823C4.544,6.831,4.549,6.841,4.549,6.854z"/>
	<path fill="#21D32B" d="M4.47,6.688C4.467,6.682,4.463,6.676,4.46,6.67C4.467,6.674,4.471,6.679,4.47,6.688z"/>
	<path fill="#21D32B" d="M4.5,6.748c-0.003-0.006-0.007-0.011-0.01-0.017C4.493,6.737,4.496,6.742,4.5,6.748z"/>
	<path fill="#21D32B" d="M4.514,6.778c-0.003-0.005-0.007-0.011-0.01-0.016C4.508,6.767,4.511,6.772,4.514,6.778z"/>
	<path fill="#21D32B" d="M4.529,6.808c-0.003-0.005-0.006-0.01-0.01-0.015C4.522,6.797,4.526,6.803,4.529,6.808z"/>
	<path fill="#21D32B" d="M4.485,6.718C4.481,6.712,4.478,6.706,4.475,6.7C4.481,6.704,4.485,6.71,4.485,6.718z"/>
	<path fill="#666666" d="M22.493,10.51c-0.008-0.024,0.008-0.04,0.017-0.057c0.063-0.117,0.128-0.233,0.192-0.349
		c0.076-0.139,0.151-0.277,0.227-0.416c0.094-0.172,0.188-0.343,0.282-0.514c0.069-0.125,0.138-0.25,0.207-0.375
		c0.132-0.239,0.264-0.479,0.396-0.718c0.092-0.167,0.183-0.334,0.275-0.501c0.099-0.18,0.199-0.36,0.298-0.54
		c0.052-0.095,0.102-0.19,0.153-0.285c0.017-0.031,0.035-0.061,0.052-0.092c0.011-0.02,0.027-0.029,0.049-0.029
		c0.015-0.001,0.03-0.001,0.045-0.001c0.286-0.001,0.572-0.001,0.858-0.002c0.015,0,0.03,0,0.045,0.001
		c0.015,0.001,0.021,0.012,0.015,0.026C25.6,6.669,25.594,6.68,25.589,6.691c-0.173,0.337-0.346,0.674-0.518,1.011
		c-0.032,0.063-0.064,0.125-0.096,0.188c-0.15,0.293-0.299,0.585-0.449,0.878c-0.211,0.413-0.423,0.826-0.634,1.239
		c-0.07,0.136-0.14,0.272-0.21,0.408c-0.006,0.011-0.011,0.022-0.018,0.033c-0.008,0.014-0.02,0.022-0.037,0.022
		c-0.003,0-0.005,0-0.008,0c-0.088,0.004-0.175,0.009-0.263,0.012c-0.221,0.007-0.441,0.013-0.662,0.02
		c-0.058,0.002-0.115,0.007-0.173,0.01C22.512,10.513,22.503,10.511,22.493,10.51z"/>
	<path fill="#16E21D" d="M24.179,3.208c0.011,0.02,0.023,0.039,0.033,0.059c0.136,0.273,0.272,0.547,0.407,0.821
		c0.061,0.123,0.119,0.248,0.178,0.372c-0.015,0.064-0.019,0.129-0.019,0.194c0.001,0.439,0,0.879,0,1.318
		c0,0.135,0.015,0.15,0.153,0.15c0.196,0.001,0.392,0,0.588,0.001c0.037,0,0.076-0.005,0.107,0.024
		c-0.01,0.022-0.03,0.013-0.046,0.013c-0.13,0.001-0.261,0.001-0.391,0.002c-0.233,0.001-0.466,0.001-0.7,0.002
		c-0.018,0-0.035-0.001-0.053,0c-0.017,0-0.029-0.007-0.036-0.022c-0.004-0.009-0.009-0.018-0.013-0.027
		c-0.082-0.174-0.165-0.349-0.247-0.524c-0.008-0.018-0.02-0.035-0.02-0.056c-0.001-0.008-0.006-0.014-0.011-0.021
		c-0.002-0.005-0.004-0.009-0.006-0.014c-0.012-0.733-0.003-1.465-0.004-2.198c0-0.051-0.011-0.113,0.055-0.142l-0.001,0.001
		c0.003,0.006,0.007,0.012,0.011,0.017c0.004,0.003,0.005,0.006,0.004,0.01C24.169,3.196,24.175,3.202,24.179,3.208z"/>
	<path fill="#1FD728" d="M24.154,3.16c-0.025,0.033-0.029,0.073-0.032,0.112c-0.002,0.017,0,0.035,0,0.053c0,0.692,0,1.384,0,2.076
		c0,0.023,0,0.045-0.001,0.068c0,0.013-0.007,0.024-0.018,0.031c-0.036-0.055-0.06-0.115-0.088-0.174
		c-0.117-0.247-0.233-0.494-0.349-0.741c-0.035-0.075-0.07-0.15-0.105-0.225c-0.005-0.011-0.008-0.023-0.012-0.035
		c-0.011-0.035-0.026-0.068-0.026-0.108c0.004-0.607,0.001-1.215,0.003-1.822c0-0.042-0.009-0.086,0.024-0.122
		c0.045,0.001,0.09,0.004,0.135,0.004c0.029,0,0.047,0.013,0.058,0.039c0.004,0.009,0.009,0.018,0.013,0.027
		c0.127,0.259,0.255,0.517,0.382,0.776C24.145,3.132,24.149,3.146,24.154,3.16z"/>
	<path fill="#28CB34" d="M23.549,2.272c0,0.613,0,1.225-0.001,1.838c0,0.045,0.007,0.09-0.011,0.134
		c-0.005,0.012,0.001,0.024,0.004,0.036c0.004,0.014,0.004,0.029,0.006,0.044c-0.019-0.018-0.025-0.043-0.036-0.065
		c-0.097-0.206-0.193-0.413-0.29-0.619c-0.22-0.467-0.44-0.933-0.66-1.4c-0.007-0.015-0.019-0.03-0.014-0.05
		c0.007-0.001,0.015-0.004,0.022-0.003c0.08,0.007,0.159,0.015,0.239,0.022c0.072,0.006,0.145,0.012,0.217,0.018
		c0.092,0.007,0.185,0.013,0.277,0.02c0.072,0.005,0.145,0.011,0.217,0.017C23.53,2.264,23.54,2.269,23.549,2.272z"/>
	<path fill="#0CEF10" d="M25.626,6.146c-0.246,0-0.491,0-0.737-0.001c-0.027,0-0.055,0.002-0.081-0.011
		c-0.034-0.017-0.057-0.04-0.054-0.081c0.001-0.007,0-0.015,0-0.023c0-0.486,0-0.972,0-1.458c0-0.033,0.001-0.065,0.021-0.093
		c0.006-0.008,0.014-0.014,0.022-0.02C24.8,4.463,24.801,4.466,24.8,4.471c0.003,0.006,0.007,0.011,0.01,0.017
		c0.004,0.004,0.006,0.008,0.005,0.013c0.004,0.006,0.007,0.011,0.01,0.017c0.004,0.004,0.006,0.008,0.005,0.013
		c0.004,0.005,0.007,0.011,0.01,0.017c0.004,0.004,0.006,0.008,0.005,0.014c0.004,0.005,0.007,0.011,0.01,0.017
		c0.002,0.005,0.003,0.009,0.005,0.014c0.004,0.005,0.007,0.011,0.01,0.016c0.002,0.005,0.003,0.009,0.005,0.014
		c0.004,0.005,0.007,0.011,0.01,0.016c0.002,0.005,0.003,0.009,0.005,0.014c0.004,0.005,0.007,0.01,0.01,0.016
		c0.002,0.005,0.003,0.009,0.005,0.014c0.004,0.005,0.007,0.01,0.01,0.016c0.002,0.005,0.003,0.01,0.005,0.014
		c0.004,0.005,0.007,0.01,0.01,0.016c0.002,0.005,0.004,0.01,0.005,0.015c0.004,0.005,0.007,0.01,0.01,0.016
		c0.002,0.005,0.004,0.01,0.005,0.015c0.004,0.005,0.007,0.01,0.009,0.015c0.002,0.005,0.004,0.01,0.006,0.015
		c0.004,0.004,0.007,0.009,0.009,0.015c0.049,0.098,0.099,0.197,0.148,0.295c0.159,0.321,0.318,0.642,0.476,0.963
		C25.61,6.1,25.627,6.12,25.626,6.146z"/>
	<path fill="#16E21D" d="M24.885,4.639c-0.003-0.005-0.007-0.011-0.01-0.016C24.882,4.626,24.886,4.631,24.885,4.639z"/>
	<path fill="#16E21D" d="M24.9,4.669c-0.003-0.005-0.007-0.011-0.01-0.016C24.897,4.656,24.901,4.661,24.9,4.669z"/>
	<path fill="#16E21D" d="M24.915,4.699c-0.003-0.005-0.007-0.011-0.01-0.016C24.912,4.687,24.916,4.691,24.915,4.699z"/>
	<path fill="#16E21D" d="M24.93,4.729c-0.003-0.005-0.006-0.01-0.01-0.016C24.923,4.719,24.927,4.724,24.93,4.729z"/>
	<path fill="#16E21D" d="M24.945,4.759c-0.003-0.005-0.006-0.01-0.01-0.016C24.939,4.749,24.942,4.754,24.945,4.759z"/>
	<path fill="#16E21D" d="M24.96,4.789c-0.003-0.005-0.006-0.01-0.009-0.015C24.953,4.779,24.957,4.784,24.96,4.789z"/>
	<path fill="#16E21D" d="M24.975,4.819c-0.003-0.005-0.006-0.01-0.009-0.015C24.968,4.81,24.972,4.815,24.975,4.819z"/>
	<path fill="#1FD728" d="M24.164,3.178c-0.004-0.006-0.007-0.011-0.011-0.017C24.162,3.163,24.164,3.17,24.164,3.178z"/>
	<path fill="#1FD728" d="M24.179,3.208c-0.004-0.007-0.007-0.013-0.011-0.02C24.175,3.193,24.179,3.199,24.179,3.208z"/>
	<path fill="#1FD728" d="M24.108,5.514c0.008,0.005,0.011,0.012,0.011,0.021C24.112,5.53,24.108,5.523,24.108,5.514z"/>
	<path fill="#16E21D" d="M24.81,4.488c-0.003-0.006-0.007-0.011-0.01-0.017C24.807,4.475,24.811,4.48,24.81,4.488z"/>
	<path fill="#16E21D" d="M24.825,4.518c-0.003-0.006-0.007-0.011-0.01-0.017C24.822,4.505,24.826,4.51,24.825,4.518z"/>
	<path fill="#16E21D" d="M24.84,4.549c-0.003-0.006-0.007-0.011-0.01-0.017C24.837,4.535,24.841,4.541,24.84,4.549z"/>
	<path fill="#16E21D" d="M24.855,4.579c-0.003-0.006-0.007-0.011-0.01-0.017C24.852,4.566,24.856,4.571,24.855,4.579z"/>
	<path fill="#16E21D" d="M24.87,4.609c-0.003-0.005-0.007-0.011-0.01-0.016C24.867,4.596,24.871,4.601,24.87,4.609z"/>
	<path fill="#28CB34" d="M30.725,6.339c0.041,0.013,0.074,0.042,0.11,0.064c0.075,0.045,0.149,0.093,0.224,0.139
		c0.021,0.013,0.041,0.028,0.06,0.041c-0.001,0.022-0.017,0.026-0.029,0.033c-0.137,0.089-0.274,0.177-0.411,0.266
		c-0.494,0.322-0.988,0.644-1.482,0.965c-0.842,0.547-1.684,1.092-2.526,1.639c-0.208,0.135-0.416,0.271-0.624,0.407
		c-0.008,0.005-0.017,0.01-0.025,0.015c-0.02-0.016-0.002-0.029,0.003-0.039c0.105-0.222,0.211-0.444,0.318-0.666
		c0.263-0.547,0.527-1.094,0.79-1.641c0.147-0.305,0.292-0.611,0.438-0.917c0.004-0.009,0.008-0.018,0.013-0.027
		c0.014-0.024,0.012-0.046,0-0.071c-0.028-0.054-0.053-0.108-0.079-0.162c-0.004-0.009-0.006-0.019-0.009-0.028
		c0.016-0.015,0.036-0.014,0.057-0.014c1.013,0.011,2.026,0.002,3.039,0.004C30.636,6.347,30.681,6.352,30.725,6.339z"/>
	<path fill="#13E619" d="M30.725,6.339c-0.006,0.017-0.014,0.032-0.036,0.033c-0.018,0-0.035,0.001-0.053,0.001
		c-1.005,0-2.01,0-3.016,0.001c-0.043,0-0.083-0.015-0.126-0.016c-0.009-0.015-0.019-0.029-0.027-0.045
		c-0.208-0.431-0.417-0.863-0.625-1.294c-0.13-0.269-0.26-0.537-0.389-0.806c-0.116-0.242-0.232-0.484-0.348-0.726
		c-0.006-0.013-0.012-0.027-0.018-0.04c0.019-0.014,0.029,0.003,0.04,0.009c0.362,0.226,0.724,0.451,1.085,0.678
		c0.48,0.301,0.96,0.603,1.44,0.904c0.3,0.188,0.6,0.375,0.899,0.563c0.008,0.005,0.015,0.012,0.023,0.019
		c0.005,0.006,0.011,0.011,0.019,0.012c0.005,0,0.008,0.002,0.011,0.006c0.005,0.004,0.011,0.007,0.016,0.011
		c0.005,0.002,0.01,0.005,0.015,0.007c0.005,0.001,0.009,0.005,0.011,0.01l0.002,0.001c0.006,0.004,0.011,0.009,0.018,0.012
		c0.005,0,0.01,0.002,0.013,0.006c0.005,0.002,0.01,0.006,0.013,0.01l0.001,0.001c0.005,0.006,0.011,0.011,0.019,0.012
		c0.005,0,0.009,0.002,0.012,0.006c0.005,0.003,0.011,0.007,0.016,0.011c0.005,0.002,0.01,0.005,0.015,0.007
		c0.005,0.001,0.009,0.004,0.011,0.01l0.002,0.001c0.006,0.004,0.011,0.009,0.018,0.012c0.005,0,0.01,0.002,0.013,0.006
		c0.005,0.002,0.01,0.006,0.014,0.01l0.001,0c0.005,0.006,0.011,0.011,0.019,0.013c0.005,0,0.009,0.002,0.011,0.006
		c0.005,0.003,0.011,0.007,0.016,0.011c0.005,0.002,0.01,0.005,0.015,0.007c0.005,0.001,0.009,0.004,0.011,0.01l0.002,0.001
		c0.006,0.004,0.011,0.009,0.018,0.012c0.005,0,0.01,0.002,0.013,0.006c0.005,0.002,0.01,0.006,0.014,0.01l0.001,0
		c0.006,0.006,0.011,0.011,0.019,0.013c0.005,0,0.009,0.002,0.011,0.006c0.005,0.003,0.011,0.007,0.016,0.011
		c0.005,0.002,0.01,0.005,0.015,0.007c0.006,0.001,0.009,0.004,0.011,0.01l0.002,0.001c0.006,0.004,0.011,0.009,0.018,0.012
		c0.005,0,0.01,0.002,0.013,0.006c0.005,0.002,0.01,0.006,0.014,0.01l0.001,0c0.006,0.006,0.011,0.011,0.019,0.013
		c0.005,0,0.009,0.002,0.011,0.006c0.005,0.003,0.011,0.007,0.016,0.011c0.005,0.002,0.01,0.005,0.015,0.007
		c0.006,0.001,0.009,0.004,0.011,0.01l0.002,0.001c0.006,0.004,0.011,0.009,0.018,0.012c0.005,0,0.01,0.002,0.013,0.006
		c0.005,0.002,0.01,0.006,0.013,0.01l0.001,0c0.006,0.006,0.011,0.011,0.019,0.013c0.005,0,0.009,0.002,0.011,0.006
		c0.005,0.003,0.011,0.007,0.016,0.011c0.005,0.002,0.01,0.005,0.015,0.007c0.006,0.001,0.009,0.004,0.011,0.009l0.002,0.001
		c0.006,0.004,0.011,0.009,0.018,0.012c0.005,0,0.01,0.002,0.013,0.006c0.005,0.002,0.01,0.006,0.013,0.01l0.001,0
		c0.006,0.005,0.011,0.011,0.019,0.013c0.005,0,0.009,0.002,0.011,0.006c0.005,0.003,0.011,0.007,0.016,0.011
		c0.005,0.002,0.01,0.005,0.015,0.007c0.006,0.001,0.009,0.004,0.011,0.009l0.002,0.001c0.006,0.004,0.011,0.009,0.018,0.012
		c0.005,0,0.01,0.002,0.013,0.006c0.005,0.002,0.01,0.006,0.014,0.01l0.001,0c0.006,0.005,0.011,0.011,0.02,0.013
		c0.005,0,0.008,0.002,0.011,0.005c0.005,0.003,0.01,0.007,0.015,0.011l0,0c0.005,0.007,0.011,0.013,0.021,0.014
		c0.004,0,0.007,0.002,0.01,0.005c0.005,0.004,0.011,0.008,0.017,0.011c0.005,0,0.01,0.002,0.013,0.006
		c0.006,0.002,0.01,0.006,0.013,0.01l0.001,0c0.006,0.005,0.011,0.011,0.019,0.013c0.005,0,0.008,0.002,0.011,0.005
		c0.005,0.003,0.011,0.007,0.015,0.011l0,0c0.005,0.007,0.011,0.013,0.021,0.014c0.004,0,0.007,0.002,0.009,0.005
		c0.006,0.004,0.011,0.008,0.017,0.011c0.005,0,0.01,0.002,0.013,0.006c0.006,0.002,0.01,0.006,0.013,0.01l0.001,0
		c0.006,0.005,0.012,0.011,0.02,0.013c0.005,0,0.008,0.002,0.011,0.005c0.005,0.003,0.01,0.007,0.015,0.011l0,0
		c0.005,0.006,0.009,0.013,0.018,0.013L30.725,6.339z"/>
	<path fill="#28CB34" d="M29.595,5.632c-0.009,0-0.015-0.005-0.019-0.012C29.585,5.62,29.591,5.624,29.595,5.632z"/>
	<path fill="#28CB34" d="M29.622,5.648c-0.005-0.004-0.011-0.007-0.016-0.011C29.614,5.637,29.619,5.641,29.622,5.648z"/>
	<path fill="#28CB34" d="M29.648,5.664c-0.004-0.003-0.008-0.006-0.011-0.01C29.641,5.658,29.644,5.661,29.648,5.664z"/>
	<path fill="#28CB34" d="M29.669,5.677c-0.006-0.004-0.012-0.008-0.018-0.012C29.659,5.666,29.665,5.67,29.669,5.677z"/>
	<path fill="#28CB34" d="M29.695,5.694c-0.005-0.003-0.009-0.007-0.014-0.01C29.689,5.683,29.693,5.687,29.695,5.694z"/>
	<path fill="#28CB34" d="M29.715,5.707c-0.009,0-0.015-0.005-0.019-0.012C29.705,5.695,29.711,5.699,29.715,5.707z"/>
	<path fill="#28CB34" d="M29.743,5.723c-0.005-0.004-0.01-0.007-0.016-0.011C29.735,5.712,29.74,5.716,29.743,5.723z"/>
	<path fill="#28CB34" d="M29.769,5.74c-0.004-0.003-0.008-0.006-0.011-0.01C29.761,5.733,29.765,5.737,29.769,5.74z"/>
	<path fill="#28CB34" d="M29.789,5.753c-0.006-0.004-0.012-0.008-0.018-0.012C29.779,5.741,29.786,5.745,29.789,5.753z"/>
	<path fill="#28CB34" d="M29.816,5.769c-0.005-0.003-0.009-0.007-0.014-0.01C29.81,5.759,29.814,5.763,29.816,5.769z"/>
	<path fill="#28CB34" d="M29.836,5.782c-0.009,0-0.015-0.005-0.019-0.013C29.826,5.77,29.832,5.774,29.836,5.782z"/>
	<path fill="#28CB34" d="M29.863,5.799c-0.005-0.004-0.011-0.007-0.016-0.011C29.855,5.788,29.86,5.792,29.863,5.799z"/>
	<path fill="#28CB34" d="M29.889,5.815c-0.004-0.003-0.008-0.006-0.011-0.01C29.884,5.805,29.888,5.809,29.889,5.815z"/>
	<path fill="#28CB34" d="M29.91,5.828c-0.006-0.004-0.012-0.008-0.018-0.012C29.9,5.817,29.906,5.821,29.91,5.828z"/>
	<path fill="#28CB34" d="M29.936,5.845c-0.005-0.003-0.009-0.007-0.014-0.01C29.93,5.834,29.934,5.838,29.936,5.845z"/>
	<path fill="#28CB34" d="M29.957,5.858c-0.009,0-0.015-0.005-0.019-0.013C29.946,5.846,29.952,5.85,29.957,5.858z"/>
	<path fill="#28CB34" d="M29.984,5.874c-0.005-0.004-0.01-0.007-0.016-0.011C29.976,5.863,29.981,5.867,29.984,5.874z"/>
	<path fill="#28CB34" d="M30.01,5.891c-0.004-0.003-0.008-0.006-0.011-0.01C30.002,5.884,30.006,5.887,30.01,5.891z"/>
	<path fill="#28CB34" d="M30.03,5.904c-0.006-0.004-0.012-0.008-0.018-0.012C30.02,5.892,30.027,5.896,30.03,5.904z"/>
	<path fill="#28CB34" d="M30.057,5.92c-0.005-0.003-0.009-0.007-0.014-0.01C30.051,5.909,30.055,5.913,30.057,5.92z"/>
	<path fill="#28CB34" d="M30.077,5.933c-0.009,0-0.015-0.005-0.019-0.013C30.067,5.921,30.073,5.925,30.077,5.933z"/>
	<path fill="#28CB34" d="M30.104,5.949c-0.005-0.004-0.01-0.007-0.016-0.011C30.096,5.938,30.101,5.943,30.104,5.949z"/>
	<path fill="#28CB34" d="M30.151,5.979c-0.006-0.004-0.012-0.008-0.018-0.012C30.141,5.968,30.147,5.971,30.151,5.979z"/>
	<path fill="#28CB34" d="M30.177,5.995c-0.005-0.003-0.009-0.007-0.014-0.01C30.171,5.985,30.175,5.989,30.177,5.995z"/>
	<path fill="#28CB34" d="M30.198,6.008c-0.009,0-0.015-0.005-0.019-0.013C30.187,5.996,30.193,6.001,30.198,6.008z"/>
	<path fill="#28CB34" d="M30.225,6.025c-0.005-0.004-0.01-0.007-0.016-0.011C30.217,6.014,30.222,6.018,30.225,6.025z"/>
	<path fill="#28CB34" d="M30.251,6.041c-0.005-0.002-0.009-0.005-0.011-0.009C30.243,6.035,30.247,6.038,30.251,6.041z"/>
	<path fill="#28CB34" d="M30.271,6.054c-0.006-0.004-0.012-0.008-0.018-0.012C30.261,6.043,30.268,6.047,30.271,6.054z"/>
	<path fill="#28CB34" d="M30.298,6.071c-0.004-0.003-0.009-0.007-0.013-0.01C30.292,6.06,30.296,6.064,30.298,6.071z"/>
	<path fill="#28CB34" d="M30.318,6.084c-0.009,0-0.015-0.005-0.019-0.013C30.308,6.072,30.314,6.076,30.318,6.084z"/>
	<path fill="#28CB34" d="M30.345,6.1c-0.005-0.004-0.01-0.007-0.016-0.011C30.337,6.089,30.342,6.093,30.345,6.1z"/>
	<path fill="#28CB34" d="M30.371,6.117c-0.004-0.003-0.008-0.006-0.011-0.009C30.366,6.107,30.37,6.111,30.371,6.117z"/>
	<path fill="#28CB34" d="M30.392,6.13c-0.006-0.004-0.012-0.008-0.018-0.012C30.382,6.118,30.388,6.122,30.392,6.13z"/>
	<path fill="#28CB34" d="M30.418,6.146c-0.005-0.003-0.009-0.007-0.014-0.01C30.412,6.136,30.416,6.14,30.418,6.146z"/>
	<path fill="#28CB34" d="M30.439,6.159c-0.009,0-0.015-0.005-0.02-0.013C30.428,6.147,30.435,6.151,30.439,6.159z"/>
	<path fill="#28CB34" d="M30.465,6.175c-0.005-0.004-0.01-0.007-0.015-0.011C30.458,6.164,30.463,6.169,30.465,6.175z"/>
	<path fill="#28CB34" d="M30.486,6.189c-0.01,0-0.017-0.005-0.021-0.014C30.474,6.176,30.481,6.18,30.486,6.189z"/>
	<path fill="#28CB34" d="M30.512,6.205c-0.008,0-0.014-0.004-0.017-0.011C30.503,6.194,30.509,6.198,30.512,6.205z"/>
	<path fill="#28CB34" d="M30.539,6.222c-0.004-0.003-0.009-0.007-0.013-0.01C30.533,6.211,30.537,6.215,30.539,6.222z"/>
	<path fill="#28CB34" d="M30.559,6.235c-0.009,0-0.015-0.005-0.019-0.013C30.549,6.222,30.555,6.227,30.559,6.235z"/>
	<path fill="#28CB34" d="M30.586,6.251c-0.005-0.004-0.01-0.007-0.015-0.011C30.578,6.24,30.583,6.244,30.586,6.251z"/>
	<path fill="#28CB34" d="M30.606,6.264c-0.01,0-0.017-0.005-0.021-0.014C30.595,6.251,30.602,6.256,30.606,6.264z"/>
	<path fill="#28CB34" d="M30.633,6.28c-0.008,0-0.014-0.004-0.017-0.011C30.624,6.269,30.63,6.273,30.633,6.28z"/>
	<path fill="#28CB34" d="M30.659,6.297c-0.004-0.003-0.009-0.007-0.013-0.01C30.653,6.286,30.657,6.29,30.659,6.297z"/>
	<path fill="#28CB34" d="M30.68,6.31c-0.009,0-0.015-0.005-0.02-0.013C30.669,6.298,30.676,6.302,30.68,6.31z"/>
	<path fill="#28CB34" d="M30.706,6.326c-0.005-0.004-0.01-0.007-0.015-0.011C30.699,6.315,30.704,6.319,30.706,6.326z"/>
	<path fill="#28CB34" d="M30.724,6.339c-0.009,0-0.015-0.005-0.018-0.013C30.715,6.327,30.721,6.33,30.724,6.339z"/>
	<path fill="#28CB34" d="M30.13,5.966c-0.004-0.003-0.008-0.006-0.011-0.01C30.123,5.96,30.126,5.963,30.13,5.966z"/>
</g>
</svg>
