<?xml version="1.0" encoding="utf-8"?>
<!-- Generator: Adobe Illustrator 24.3.0, SVG Export Plug-In . SVG Version: 6.00 Build 0)  -->
<svg version="1.1" id="Слой_1" xmlns="http://www.w3.org/2000/svg" xmlns:xlink="http://www.w3.org/1999/xlink" x="0px" y="0px"
	 width="32px" height="13px" viewBox="0 0 32 13" enable-background="new 0 0 32 13" xml:space="preserve">
<g>
	<path d="M15.682,12.151c-1.107,0-2.213,0-3.32,0c-0.013,0-0.026,0-0.038,0c-0.065,0-0.064,0-0.1-0.057
		c-0.115-0.186-0.231-0.372-0.347-0.557c-0.111-0.179-0.221-0.358-0.333-0.536c-0.096-0.155-0.194-0.31-0.29-0.465
		c-0.111-0.179-0.221-0.358-0.333-0.536c-0.111-0.179-0.223-0.357-0.334-0.535c-0.096-0.155-0.192-0.311-0.289-0.466
		c-0.111-0.179-0.223-0.357-0.334-0.536C9.871,8.31,9.777,8.158,9.683,8.006C9.584,7.848,9.485,7.689,9.387,7.53
		C9.292,7.378,9.198,7.227,9.104,7.075C9.022,6.943,8.941,6.811,8.858,6.68C8.845,6.66,8.844,6.645,8.857,6.623
		C9.009,6.382,9.159,6.14,9.309,5.898c0.127-0.204,0.253-0.408,0.38-0.612c0.125-0.2,0.25-0.4,0.374-0.6
		c0.097-0.155,0.193-0.311,0.289-0.466c0.111-0.179,0.223-0.357,0.334-0.536c0.095-0.153,0.19-0.307,0.286-0.46
		c0.098-0.157,0.196-0.314,0.293-0.471c0.094-0.152,0.188-0.303,0.282-0.455c0.099-0.159,0.198-0.317,0.297-0.476
		c0.096-0.155,0.192-0.311,0.289-0.466c0.038-0.061,0.077-0.122,0.115-0.184c0.01-0.016,0.022-0.024,0.042-0.022
		c0.015,0.001,0.03,0,0.045,0c2.23,0,4.46,0,6.691,0c0.004,0,0.009,0,0.013,0c0.069,0.002,0.057-0.009,0.095,0.052
		c0.154,0.249,0.311,0.497,0.465,0.746c0.112,0.18,0.223,0.362,0.335,0.542c0.14,0.226,0.282,0.45,0.422,0.676
		c0.141,0.227,0.282,0.455,0.423,0.683C20.919,4.075,21.06,4.3,21.2,4.526c0.127,0.204,0.253,0.408,0.38,0.612
		c0.126,0.202,0.252,0.404,0.378,0.606c0.111,0.179,0.222,0.358,0.333,0.536c0.066,0.106,0.133,0.213,0.199,0.319
		c0.002,0.004,0.004,0.007,0.007,0.011c0.022,0.026,0.022,0.051,0.002,0.081c-0.035,0.051-0.066,0.104-0.098,0.156
		c-0.098,0.157-0.196,0.314-0.293,0.471c-0.098,0.157-0.196,0.314-0.293,0.471c-0.096,0.155-0.192,0.311-0.289,0.466
		c-0.096,0.155-0.193,0.31-0.29,0.465c-0.095,0.153-0.191,0.307-0.286,0.46c-0.098,0.157-0.196,0.314-0.293,0.471
		c-0.095,0.153-0.191,0.307-0.286,0.46c-0.096,0.155-0.193,0.31-0.29,0.465c-0.096,0.155-0.193,0.311-0.289,0.466
		c-0.098,0.157-0.195,0.314-0.293,0.471c-0.095,0.153-0.191,0.307-0.286,0.46c-0.033,0.052-0.065,0.105-0.097,0.157
		c-0.009,0.014-0.02,0.021-0.036,0.021c-0.021-0.001-0.043,0-0.064,0C17.904,12.151,16.793,12.151,15.682,12.151z"/>
	<path d="M20.724,2.644c0.02,0,0.036,0,0.053,0c0.541-0.001,1.081-0.002,1.622-0.002c0.596-0.001,1.192-0.001,1.788-0.002
		c0.479-0.001,0.958-0.003,1.436-0.004c0.766-0.002,1.532-0.003,2.298-0.004c0.381-0.001,0.762-0.001,1.143-0.002
		c0.017,0,0.034,0.002,0.051,0c0.036-0.005,0.056,0.01,0.074,0.043c0.082,0.154,0.167,0.306,0.25,0.459
		c0.08,0.145,0.159,0.291,0.238,0.436c0.084,0.153,0.168,0.305,0.252,0.458c0.082,0.149,0.163,0.299,0.244,0.447
		c0.082,0.149,0.164,0.297,0.246,0.446c0.064,0.117,0.128,0.235,0.192,0.352c0.084,0.153,0.168,0.305,0.252,0.458
		c0.082,0.149,0.163,0.298,0.244,0.448c0.051,0.093,0.102,0.186,0.154,0.279c0.012,0.021,0.013,0.037,0.001,0.059
		c-0.117,0.222-0.232,0.444-0.348,0.667c-0.11,0.211-0.221,0.421-0.331,0.632c-0.112,0.215-0.223,0.43-0.335,0.645
		c-0.126,0.241-0.253,0.481-0.379,0.722C29.79,9.335,29.71,9.49,29.63,9.644c-0.082,0.156-0.164,0.312-0.246,0.468
		c-0.064,0.122-0.128,0.245-0.191,0.368c-0.03,0.059-0.02,0.051-0.087,0.052c-0.2,0.002-0.4,0.002-0.6,0.004
		c-0.717,0.006-1.434,0.011-2.151,0.017c-0.472,0.004-0.945,0.008-1.417,0.012c-0.56,0.005-1.119,0.009-1.679,0.014
		c-0.47,0.004-0.941,0.008-1.411,0.012c-0.379,0.003-0.758,0.007-1.136,0.01c-0.028,0-0.055,0-0.083,0
		c-0.008-0.021,0.006-0.034,0.014-0.047c0.049-0.085,0.099-0.169,0.149-0.253c0.082-0.139,0.164-0.278,0.246-0.417
		c0.082-0.139,0.165-0.278,0.247-0.417c0.081-0.137,0.162-0.275,0.242-0.412c0.081-0.137,0.161-0.275,0.242-0.412
		c0.067-0.113,0.134-0.227,0.201-0.34c0.081-0.137,0.162-0.275,0.243-0.412c0.083-0.141,0.166-0.282,0.25-0.423
		c0.083-0.141,0.167-0.281,0.25-0.422c0.08-0.135,0.159-0.271,0.239-0.407c0.025-0.042,0.049-0.084,0.075-0.126
		c0.01-0.017,0.01-0.03,0-0.047c-0.109-0.178-0.217-0.356-0.325-0.534c-0.096-0.158-0.191-0.317-0.287-0.475
		c-0.093-0.155-0.187-0.309-0.281-0.463c-0.083-0.136-0.165-0.273-0.248-0.409c-0.099-0.164-0.198-0.327-0.297-0.491
		c-0.081-0.135-0.162-0.269-0.244-0.404c-0.079-0.131-0.159-0.262-0.238-0.392c-0.083-0.136-0.165-0.273-0.248-0.409
		c-0.039-0.064-0.077-0.127-0.116-0.191C20.736,2.685,20.725,2.671,20.724,2.644z"/>
	<path d="M10.819,10.625c-0.025,0-0.044,0-0.062,0c-0.743-0.006-1.485-0.012-2.228-0.018c-0.47-0.004-0.94-0.007-1.411-0.012
		c-0.666-0.006-1.332-0.013-1.998-0.018c-0.368-0.003-0.736-0.005-1.104-0.007c-0.555-0.004-1.111-0.009-1.666-0.014
		c-0.089-0.001-0.071,0.013-0.114-0.071c-0.096-0.185-0.193-0.369-0.29-0.553C1.864,9.775,1.783,9.618,1.701,9.462
		C1.606,9.279,1.51,9.097,1.415,8.914C1.349,8.788,1.284,8.662,1.218,8.536C1.15,8.406,1.081,8.276,1.014,8.146
		C0.963,8.048,0.912,7.95,0.861,7.852c-0.068-0.13-0.136-0.26-0.203-0.39C0.592,7.336,0.526,7.21,0.46,7.084
		c-0.068-0.13-0.136-0.26-0.204-0.39C0.228,6.64,0.201,6.584,0.172,6.53c-0.008-0.015-0.008-0.027,0-0.041
		c0.076-0.138,0.152-0.275,0.227-0.413c0.063-0.115,0.126-0.231,0.19-0.347c0.083-0.151,0.165-0.302,0.248-0.453
		c0.068-0.125,0.136-0.25,0.205-0.375c0.081-0.147,0.162-0.294,0.243-0.441c0.081-0.147,0.162-0.294,0.242-0.441
		C1.61,3.867,1.694,3.714,1.778,3.561c0.08-0.145,0.159-0.291,0.239-0.436C2.096,2.98,2.176,2.835,2.255,2.689
		c0.014-0.025,0.03-0.035,0.06-0.035c0.194,0.002,0.387,0.001,0.581,0.001C3.417,2.656,3.939,2.657,4.46,2.657
		C5.209,2.658,5.958,2.659,6.707,2.66c0.315,0,0.63,0.002,0.945,0.002c0.796,0.002,1.592,0.003,2.387,0.005
		c0.206,0,0.413,0.001,0.619,0.001c0.015,0,0.03,0,0.045,0.001c0.011,0.001,0.013,0.009,0.01,0.018
		c-0.004,0.01-0.009,0.019-0.015,0.028c-0.096,0.158-0.193,0.316-0.288,0.474c-0.097,0.16-0.193,0.32-0.289,0.48
		c-0.096,0.158-0.192,0.316-0.288,0.474C9.737,4.302,9.641,4.46,9.546,4.618C9.448,4.78,9.35,4.942,9.252,5.104
		C9.157,5.26,9.063,5.416,8.968,5.572C8.87,5.734,8.772,5.896,8.674,6.057c-0.087,0.144-0.173,0.288-0.26,0.431
		C8.404,6.505,8.4,6.516,8.411,6.534c0.092,0.153,0.182,0.307,0.273,0.461c0.095,0.161,0.189,0.322,0.284,0.483
		c0.098,0.166,0.198,0.332,0.296,0.499C9.345,8.114,9.425,8.252,9.505,8.39c0.08,0.136,0.16,0.271,0.24,0.406
		c0.082,0.139,0.164,0.278,0.246,0.417c0.097,0.165,0.195,0.329,0.292,0.494c0.081,0.137,0.162,0.275,0.243,0.412
		c0.083,0.141,0.166,0.282,0.25,0.422C10.79,10.566,10.805,10.591,10.819,10.625z"/>
	<path fill="#666666" d="M19.451,4.811c0.008-0.013,0.023-0.017,0.036-0.023c0.219-0.105,0.437-0.21,0.656-0.314
		c0.004-0.002,0.008-0.003,0.012-0.005c0.013-0.007,0.024-0.005,0.033,0.008c0.005,0.007,0.009,0.014,0.014,0.022
		c0.102,0.164,0.204,0.329,0.306,0.493c0.065,0.105,0.131,0.209,0.196,0.314c0.099,0.159,0.197,0.318,0.296,0.477
		c0.097,0.155,0.194,0.31,0.291,0.465c0.089,0.142,0.177,0.286,0.266,0.428c0.015,0.023,0.013,0.042-0.001,0.064
		c-0.109,0.173-0.217,0.346-0.325,0.519c-0.096,0.155-0.192,0.311-0.288,0.467c-0.062,0.099-0.124,0.198-0.186,0.297
		c-0.088,0.141-0.175,0.282-0.262,0.422c-0.079,0.126-0.157,0.252-0.236,0.379c-0.109,0.175-0.217,0.35-0.326,0.525
		c-0.099,0.159-0.198,0.317-0.297,0.476c-0.096,0.155-0.192,0.311-0.289,0.466c-0.096,0.155-0.194,0.31-0.29,0.465
		c-0.083,0.133-0.166,0.267-0.249,0.401c-0.053,0.085-0.106,0.169-0.158,0.254c-0.014,0.023-0.03,0.034-0.057,0.032
		c-0.017-0.002-0.034,0-0.051,0c-1.856,0-3.711,0-5.567,0c-0.017,0-0.034,0-0.051,0c-0.035,0-0.046-0.003-0.022-0.045
		c0.088-0.153,0.175-0.306,0.262-0.46c0.045-0.079,0.091-0.158,0.136-0.238c0.013-0.023,0.029-0.035,0.056-0.033
		c0.019,0.001,0.038,0,0.057,0c1.549,0,3.098,0,4.647,0c0.021,0,0.043-0.001,0.064,0c0.024,0.001,0.04-0.01,0.052-0.029
		c0.031-0.051,0.063-0.101,0.095-0.151c0.084-0.135,0.168-0.271,0.252-0.407c0.097-0.157,0.195-0.314,0.292-0.471
		c0.11-0.177,0.221-0.353,0.331-0.53c0.098-0.157,0.194-0.315,0.292-0.472c0.066-0.107,0.133-0.213,0.2-0.319
		c0.094-0.152,0.188-0.303,0.283-0.455c0.099-0.159,0.198-0.317,0.297-0.476c0.096-0.155,0.192-0.311,0.289-0.466
		c0.035-0.056,0.069-0.112,0.105-0.168c0.008-0.012,0.008-0.022,0-0.035c-0.043-0.068-0.085-0.137-0.128-0.206
		c-0.084-0.135-0.168-0.271-0.252-0.406c-0.063-0.101-0.126-0.202-0.189-0.303c-0.1-0.161-0.199-0.322-0.299-0.482
		c-0.066-0.106-0.133-0.213-0.199-0.319c-0.028-0.045-0.056-0.09-0.084-0.136C19.454,4.828,19.449,4.821,19.451,4.811z"/>
	<path fill="#EF00FF" d="M19.356,2.899C19.36,2.9,19.361,2.902,19.36,2.906c0.005,0.056-0.006,0.072-0.064,0.074
		c-0.091,0.004-0.182,0.012-0.273,0.012c-0.231,0-0.462,0.016-0.693,0.016c-0.047,0-0.094-0.002-0.133-0.033
		c-0.033-0.052-0.068-0.103-0.099-0.155c-0.012-0.019-0.025-0.027-0.046-0.026c-0.015,0.001-0.03,0-0.045,0
		c-1.549,0-3.098,0-4.646,0c-0.027,0-0.058-0.011-0.08,0.008c-0.019,0.016-0.03,0.041-0.043,0.063
		c-0.077,0.124-0.155,0.249-0.232,0.374c-0.004,0.007-0.011,0.012-0.017,0.018c-0.029,0.043-0.07,0.056-0.12,0.058
		c-0.193,0.006-0.386,0.01-0.58,0.015c-0.142,0.004-0.284,0.012-0.427,0.009c-0.041-0.001-0.089,0-0.091-0.062
		c-0.001-0.004,0-0.007,0.004-0.008c0.004-0.005,0.008-0.01,0.01-0.016c-0.001-0.004,0.001-0.008,0.005-0.01
		c0.002-0.005,0.005-0.009,0.01-0.012l0,0c0.004-0.005,0.009-0.01,0.011-0.016c-0.001-0.004,0.001-0.007,0.004-0.01
		c0.003-0.005,0.006-0.009,0.009-0.014l0,0.001c0.009-0.005,0.006-0.018,0.014-0.024l0-0.001c0.003-0.005,0.009-0.009,0.011-0.015
		l-0.001,0.001c0.01-0.005,0.007-0.018,0.014-0.025l0,0c0.005-0.005,0.01-0.01,0.01-0.018c-0.001-0.004,0-0.006,0.004-0.008
		c0.004-0.004,0.007-0.009,0.01-0.014l0,0.001c0.007-0.004,0.011-0.009,0.012-0.018c-0.001-0.004,0-0.006,0.004-0.007
		c0.004-0.005,0.008-0.009,0.01-0.016c-0.001-0.004,0.001-0.008,0.005-0.01c0.003-0.005,0.006-0.009,0.009-0.013l0,0
		c0.006-0.004,0.01-0.009,0.012-0.016c-0.001-0.004,0.001-0.007,0.005-0.009c0.003-0.005,0.006-0.009,0.009-0.014l0,0.001
		c0.009-0.006,0.007-0.018,0.014-0.025l0,0c0.004-0.005,0.01-0.008,0.011-0.015l-0.001,0.001c0.012-0.004,0.008-0.017,0.016-0.024
		l0,0c0.005-0.005,0.01-0.01,0.01-0.018c-0.001-0.004,0-0.006,0.004-0.008c0.004-0.005,0.008-0.009,0.01-0.016
		c0.06-0.098,0.119-0.196,0.179-0.293c0.098-0.159,0.197-0.318,0.296-0.476c0.055-0.088,0.112-0.176,0.165-0.265
		c0.016-0.026,0.034-0.035,0.062-0.032c0.013,0.001,0.026,0,0.038,0c1.951,0,3.901,0,5.852,0c0.088,0,0.071-0.017,0.124,0.07
		c0.126,0.204,0.254,0.407,0.381,0.611c0.008,0.012,0.013,0.027,0.019,0.04c0.001,0.007,0.006,0.013,0.011,0.017l0,0
		c0.004,0.004,0.007,0.008,0.01,0.013c0.004,0.002,0.005,0.005,0.005,0.009c0.001,0.007,0.006,0.012,0.01,0.017l0,0.001
		c0.008,0.006,0.005,0.018,0.014,0.024l0,0c0.004,0.004,0.007,0.009,0.01,0.014l0.001,0.002c0.009,0.005,0.006,0.017,0.014,0.023
		l0,0c0.004,0.004,0.007,0.008,0.009,0.013c0.004,0.002,0.006,0.006,0.005,0.01c0.002,0.006,0.007,0.011,0.01,0.016l0.001,0.001
		c0.005,0.002,0.008,0.006,0.009,0.011c0.004,0.002,0.006,0.006,0.005,0.011c0.003,0.005,0.006,0.01,0.009,0.015
		c0.004,0.002,0.005,0.005,0.004,0.009c0.001,0.007,0.006,0.012,0.01,0.017l0,0.001c0.004,0.003,0.007,0.006,0.009,0.011
		c0.004,0.002,0.006,0.005,0.006,0.009c0.001,0.007,0.006,0.012,0.01,0.017l0,0.001c0.008,0.006,0.006,0.018,0.014,0.024l0,0
		c0.004,0.004,0.007,0.008,0.009,0.013c0.004,0.001,0.006,0.003,0.005,0.007c0,0.008,0.005,0.013,0.011,0.018l0,0
		c0.007,0.007,0.004,0.02,0.014,0.025l-0.001-0.001C19.35,2.889,19.353,2.894,19.356,2.899z"/>
	<path fill="#AB00FF" d="M16.584,8.34c-0.004,0.001-0.008,0-0.01-0.004c-0.005-0.003-0.01-0.008-0.016-0.008
		c-0.004,0.001-0.007,0-0.009-0.004c-0.005-0.003-0.009-0.008-0.015-0.009c-0.004,0.001-0.008-0.001-0.01-0.004
		c-0.005-0.003-0.01-0.006-0.014-0.009c-0.004-0.002-0.008-0.004-0.011-0.005c-0.005-0.002-0.008-0.004-0.011-0.008l-0.001,0
		c-0.005-0.005-0.01-0.01-0.018-0.01c-0.004,0.001-0.006-0.001-0.008-0.005c-0.004-0.003-0.009-0.006-0.013-0.01l0,0
		c-0.005-0.006-0.01-0.011-0.018-0.011c-0.004,0.001-0.006-0.001-0.008-0.005c-0.004-0.003-0.008-0.006-0.012-0.01l0,0
		c-0.004-0.005-0.009-0.009-0.015-0.012c-0.004-0.002-0.007-0.004-0.011-0.006c-0.005-0.001-0.008-0.004-0.01-0.008l-0.002-0.002
		c-0.005-0.003-0.009-0.006-0.012-0.011l-0.001-0.001c-0.004-0.004-0.009-0.008-0.014-0.011l0,0
		c-0.004-0.005-0.008-0.01-0.015-0.012l0.001,0.001c-0.002-0.007-0.007-0.012-0.014-0.014l0.001,0.001
		c-0.002-0.007-0.008-0.012-0.015-0.014c-0.027-0.014-0.045-0.038-0.062-0.061c-0.002-0.007-0.006-0.013-0.013-0.016l0.001,0.001
		c-0.002-0.006-0.007-0.01-0.012-0.014l0,0c-0.004-0.004-0.008-0.008-0.012-0.013l-0.001-0.001c-0.004-0.003-0.008-0.007-0.01-0.011
		c-0.004-0.001-0.005-0.003-0.005-0.007c0-0.009-0.005-0.014-0.012-0.018l0.001,0.001c-0.002-0.006-0.007-0.01-0.011-0.014l0,0
		c-0.004-0.003-0.007-0.007-0.01-0.012c-0.004-0.001-0.005-0.004-0.004-0.007c0-0.008-0.005-0.014-0.012-0.018l0,0
		c-0.003-0.004-0.006-0.008-0.009-0.013c-0.004-0.002-0.005-0.005-0.005-0.009c-0.001-0.007-0.006-0.013-0.012-0.017l0,0
		c-0.003-0.004-0.006-0.008-0.009-0.013C16.101,7.903,16.1,7.9,16.101,7.896C16.1,7.889,16.095,7.885,16.092,7.88
		c-0.004-0.002-0.005-0.005-0.004-0.009c-0.001-0.007-0.006-0.012-0.011-0.018l0-0.001c-0.004-0.003-0.007-0.007-0.009-0.011
		c-0.002-0.004-0.003-0.008-0.005-0.012c-0.007-0.008-0.004-0.02-0.012-0.027l0,0c-0.007-0.007-0.005-0.018-0.012-0.025
		c-0.003-0.001-0.004-0.004-0.003-0.007c0-0.008-0.005-0.013-0.011-0.019l0,0c-0.008-0.007-0.005-0.018-0.011-0.025
		c-0.004-0.002-0.005-0.006-0.003-0.01C16.006,7.707,16.008,7.696,16,7.688l-0.003-0.003l0.001-0.004
		c0-0.007-0.005-0.013-0.008-0.018c-0.004-0.003-0.005-0.006-0.004-0.01c-0.005-0.009-0.003-0.021-0.011-0.028
		c-0.003-0.002-0.004-0.005-0.002-0.008c-0.004-0.01-0.003-0.021-0.01-0.03c-0.003-0.003-0.004-0.006-0.002-0.01
		c-0.005-0.009-0.004-0.02-0.009-0.029c-0.001-0.004-0.002-0.008-0.002-0.012c-0.007-0.007-0.004-0.018-0.01-0.026
		c-0.004-0.003-0.005-0.007-0.003-0.012c-0.01-0.012-0.001-0.028-0.011-0.04c-0.001-0.007-0.002-0.013-0.003-0.02
		c-0.003-0.01-0.004-0.021-0.009-0.031c-0.001-0.008-0.002-0.016-0.003-0.024c-0.012-0.016,0.002-0.038-0.012-0.053
		c-0.003-0.002-0.004-0.004-0.002-0.007c-0.004-0.065,0.016-0.097,0.077-0.098c0.19-0.002,0.38-0.026,0.571-0.015
		c0.026,0.002,0.05,0.009,0.073,0.021c0.006,0.003,0.012,0.007,0.018,0.011c0.011,0.008,0.018,0.02,0.023,0.032
		c0.003,0.008,0.005,0.017,0.006,0.026c0.001,0.013,0.002,0.026,0.007,0.039c0.002,0.005,0.003,0.01,0.004,0.014
		c0.003,0.009,0.006,0.019,0.009,0.028c0.002,0.007,0.004,0.014,0.005,0.021c0.001,0.007,0.003,0.014,0.005,0.021
		c0.002,0.004,0.004,0.009,0.006,0.013c0.003,0.007,0.007,0.014,0.01,0.02c0.003,0.005,0.006,0.009,0.008,0.014
		c0.005,0.007,0.01,0.014,0.015,0.021c0.05,0.095,0.108,0.182,0.201,0.242c0.178,0.115,0.481,0.101,0.642-0.037
		c0.1-0.086,0.133-0.204,0.142-0.331c0.003-0.049-0.006-0.098,0.008-0.146c0.019-0.037,0.054-0.05,0.091-0.049
		c0.204,0.005,0.408-0.018,0.612-0.014c0.074,0.001,0.08,0.008,0.078,0.081c-0.002,0.095,0.006,0.191-0.005,0.286
		c0.004,0.05-0.008,0.097-0.019,0.145c-0.079,0.326-0.273,0.555-0.584,0.683c-0.129,0.053-0.263,0.083-0.4,0.101
		c-0.129,0.016-0.258,0.019-0.388,0.014c-0.158-0.006-0.312-0.036-0.46-0.093c-0.01-0.004-0.019-0.009-0.028-0.014
		c-0.005-0.002-0.009-0.004-0.014-0.007c-0.005,0.001-0.008,0-0.012-0.004C16.595,8.345,16.589,8.343,16.584,8.34z"/>
	<path fill="#8C00FF" d="M13.101,6.487c-0.005-0.051,0.001-0.102,0.004-0.153c0.006-0.11,0.014-0.221,0.021-0.331
		c0.011-0.163,0.023-0.327,0.034-0.49c0.01-0.142,0.019-0.284,0.029-0.427c0.001-0.013,0.001-0.026,0.002-0.038
		c0.002-0.022,0.006-0.027,0.026-0.028c0.013-0.001,0.026,0,0.038,0c0.681,0,1.362,0,2.043,0c0.068,0,0.064-0.005,0.064,0.06
		c0,0.181,0,0.362,0,0.543c0,0.013,0,0.026-0.001,0.038c-0.001,0.012-0.007,0.019-0.02,0.02c-0.019,0.001-0.038,0.001-0.057,0.001
		c-0.443,0-0.885,0-1.328,0c-0.023,0-0.047,0-0.066,0c-0.018,0.013-0.018,0.028-0.02,0.042c-0.019,0.148-0.037,0.295-0.056,0.443
		C13.808,6.22,13.8,6.273,13.792,6.325c-0.002,0.017,0.006,0.024,0.023,0.02c0.079-0.018,0.157-0.037,0.236-0.054
		c0.13-0.028,0.26-0.037,0.393-0.026c0.132,0.011,0.262,0.028,0.388,0.068c0.061,0.019,0.121,0.039,0.174,0.076
		c-0.027,0.027-0.059,0.02-0.09,0.011c-0.069-0.019-0.138-0.019-0.208-0.008c-0.019,0.003-0.038,0.006-0.057,0.005
		c-0.24-0.008-0.479,0.013-0.719,0.014c-0.214,0.001-0.428,0.018-0.643,0.013C13.224,6.442,13.163,6.467,13.101,6.487z"/>
	<path fill="#A100FF" d="M16.641,7.251c-0.015,0.002-0.03,0.003-0.042-0.008c-0.017-0.016-0.038-0.016-0.06-0.016
		c-0.087,0-0.174,0-0.261,0c-0.004,0-0.009-0.001-0.013,0c-0.094,0.022-0.19,0.011-0.285,0.012c-0.034,0-0.056,0.015-0.075,0.04
		c-0.01,0.013-0.007,0.028-0.01,0.043c-0.01-0.01-0.009-0.023-0.011-0.036c-0.032-0.209-0.046-0.418-0.043-0.629
		c0.001-0.107,0.013-0.212,0.02-0.318c0.001-0.019,0.007-0.038,0.01-0.056c0.005-0.054,0.042-0.071,0.088-0.069
		c0.187,0.006,0.372-0.019,0.559-0.014c0.013,0,0.025,0.001,0.038,0.002c0.068,0.009,0.078,0.024,0.069,0.097
		c0,0.017,0,0.034,0.001,0.051c0,0.017-0.004,0.034,0.003,0.051c0.02,0.005,0.037-0.006,0.054-0.013
		c0.122-0.045,0.245-0.085,0.372-0.11c0.102-0.02,0.206-0.03,0.31-0.025c0.128,0.005,0.254,0.016,0.379,0.045
		c0.15,0.035,0.292,0.091,0.416,0.185c0.14,0.106,0.234,0.244,0.291,0.409c0.056,0.163,0.069,0.332,0.064,0.503
		c-0.001,0.044,0.004,0.089-0.013,0.132c0-0.083-0.001-0.166-0.001-0.248c0-0.019,0-0.038,0-0.057
		c-0.001-0.037-0.005-0.041-0.04-0.042c-0.034-0.001-0.068-0.001-0.102,0c-0.063,0.002-0.127-0.008-0.19,0.011
		c-0.014,0.004-0.03,0.001-0.044,0.001c-0.1,0-0.2,0-0.299,0c-0.019,0-0.038,0-0.056,0.008c-0.021,0.01-0.035,0.024-0.037,0.047
		c-0.028-0.009-0.029-0.035-0.035-0.056c-0.057-0.186-0.195-0.291-0.39-0.301c-0.202-0.01-0.399,0.019-0.594,0.064
		c-0.053,0.012-0.075,0.039-0.072,0.093c0.003,0.042,0,0.085,0.008,0.127C16.656,7.199,16.661,7.227,16.641,7.251z"/>
	<path fill="#CE00FF" d="M11.771,3.277c0.015,0.033,0.041,0.044,0.077,0.044c0.102-0.002,0.204-0.001,0.306-0.001
		c0.011,0,0.022,0.002,0.032-0.001c0.052-0.018,0.105-0.011,0.158-0.011c0.079-0.001,0.157,0,0.236,0
		c0.044,0,0.088,0.001,0.133-0.01c0.03-0.008,0.063-0.002,0.095-0.003c0.015,0,0.03-0.002,0.045,0
		c0.051,0.006,0.096-0.008,0.137-0.038c-0.006,0.013-0.011,0.028-0.019,0.04c-0.093,0.15-0.186,0.299-0.28,0.449
		c-0.097,0.155-0.193,0.31-0.29,0.465c-0.1,0.16-0.2,0.321-0.3,0.482c-0.036,0.058-0.072,0.116-0.107,0.174
		c-0.011,0.018-0.021,0.037-0.037,0.052c-0.056,0.037-0.12,0.044-0.184,0.042c-0.272-0.006-0.544,0.022-0.816,0.014
		c-0.043-0.001-0.085,0.006-0.127,0.008c-0.045,0.002-0.081-0.011-0.078-0.067l0,0c0.008-0.006,0.006-0.018,0.014-0.024l0-0.001
		c0.003-0.005,0.009-0.009,0.011-0.015l-0.001,0.001c0.01-0.005,0.007-0.018,0.015-0.024l0-0.001c0.005-0.005,0.009-0.01,0.01-0.018
		c-0.001-0.004,0-0.007,0.004-0.009c0.003-0.005,0.006-0.009,0.009-0.014l-0.001,0.001c0.007-0.004,0.012-0.009,0.012-0.017
		c-0.001-0.004,0.001-0.006,0.004-0.008c0.003-0.005,0.008-0.009,0.009-0.015c-0.001-0.005,0.001-0.008,0.005-0.01
		c0.002-0.005,0.005-0.009,0.009-0.013l0,0c0.006-0.004,0.01-0.009,0.012-0.016c-0.001-0.004,0.001-0.007,0.005-0.009
		c0.003-0.005,0.006-0.009,0.009-0.013l0,0c0.009-0.006,0.006-0.018,0.014-0.024l0-0.001c0.004-0.005,0.009-0.01,0.01-0.017
		c0-0.005,0.002-0.008,0.006-0.009c0.002-0.005,0.005-0.009,0.009-0.011l0-0.001c0.005-0.005,0.01-0.01,0.01-0.018
		c-0.001-0.004,0-0.007,0.004-0.008c0.003-0.005,0.007-0.009,0.009-0.015c0.002-0.004,0.004-0.007,0.006-0.011
		c0.001-0.005,0.004-0.008,0.009-0.01l0.001-0.002c0.003-0.005,0.008-0.01,0.01-0.016c-0.001-0.005,0.001-0.008,0.005-0.01
		c0.003-0.005,0.005-0.009,0.009-0.013l0,0c0.008-0.005,0.005-0.018,0.014-0.023l0.001-0.002c0.003-0.005,0.007-0.01,0.01-0.014
		l0,0.001c0.009-0.006,0.006-0.018,0.014-0.024l0-0.001c0.005-0.005,0.01-0.01,0.01-0.018c-0.001-0.004,0.001-0.007,0.005-0.009
		c0.003-0.005,0.006-0.009,0.01-0.012l0,0c0.005-0.005,0.01-0.01,0.011-0.018c-0.001-0.004,0-0.007,0.004-0.008
		c0.003-0.005,0.008-0.009,0.009-0.015c-0.001-0.005,0.001-0.008,0.005-0.01c0.002-0.005,0.005-0.009,0.009-0.012l0,0
		c0.005-0.005,0.009-0.009,0.011-0.016c-0.001-0.004,0.001-0.008,0.005-0.01c0.003-0.005,0.006-0.009,0.009-0.013l0,0
		c0.009-0.006,0.006-0.018,0.014-0.024l0-0.001c0.004-0.005,0.009-0.008,0.011-0.015l-0.001,0.001
		c0.01-0.005,0.007-0.018,0.015-0.024l0-0.001c0.005-0.005,0.01-0.01,0.01-0.018c-0.001-0.004,0-0.007,0.004-0.008
		c0.003-0.005,0.007-0.009,0.01-0.014c0.044-0.073,0.087-0.146,0.131-0.218c0.097-0.157,0.195-0.314,0.292-0.47
		c0.05-0.081,0.1-0.162,0.151-0.243C11.754,3.296,11.763,3.287,11.771,3.277z"/>
	<path fill="#D400FF" d="M18.198,2.975c0.004,0,0.009-0.001,0.013,0c0.109,0.024,0.22,0.008,0.33,0.013
		c0.148-0.026,0.297-0.007,0.445-0.013c0.036-0.001,0.072,0.002,0.107-0.01c0.019-0.006,0.042-0.003,0.063-0.003
		c0.049,0,0.098,0,0.147,0c0.046-0.001,0.048-0.003,0.058-0.056c0.028,0.024,0.042,0.059,0.06,0.089
		c0.158,0.252,0.314,0.505,0.47,0.758c0.096,0.155,0.193,0.31,0.29,0.465c0.012,0.02,0.023,0.04,0.034,0.06
		c-0.005,0.019-0.021,0.022-0.033,0.028c-0.284,0.136-0.567,0.271-0.851,0.407c-0.008,0.004-0.015,0.007-0.023,0.011
		c-0.014,0.006-0.025,0.003-0.033-0.009c-0.016-0.025-0.032-0.05-0.047-0.076c-0.126-0.204-0.253-0.408-0.379-0.612
		c-0.112-0.18-0.225-0.36-0.337-0.541c-0.103-0.166-0.207-0.332-0.31-0.498C18.199,2.984,18.199,2.979,18.198,2.975z"/>
	<path fill="#8B00FF" d="M16.627,6.298c0-0.004-0.001-0.008-0.001-0.013c-0.003-0.049-0.011-0.058-0.057-0.065
		c-0.013-0.002-0.025-0.001-0.038-0.001c-0.057,0-0.115,0-0.172,0c-0.03,0-0.059-0.001-0.088,0.009
		c-0.015,0.006-0.034,0.003-0.051,0.003c-0.074,0-0.149,0-0.223,0c-0.011,0-0.021,0.001-0.032,0
		c-0.043-0.005-0.074,0.01-0.091,0.051c-0.004-0.047,0.007-0.094,0.016-0.139c0.02-0.096,0.041-0.191,0.072-0.284
		c0.062-0.186,0.15-0.356,0.284-0.501c0.15-0.162,0.335-0.266,0.546-0.326c0.136-0.039,0.274-0.059,0.415-0.065
		c0.179-0.007,0.357,0.003,0.535,0.021c0.178,0.018,0.355,0.042,0.531,0.068c0.034,0.005,0.067,0.01,0.101,0.016
		c0.019,0.003,0.026,0.011,0.024,0.031c-0.003,0.028-0.007,0.055-0.01,0.082c-0.012,0.114-0.024,0.228-0.037,0.343
		c-0.005,0.049-0.011,0.097-0.017,0.146c-0.002,0.016-0.011,0.022-0.026,0.021c-0.013-0.001-0.025-0.003-0.038-0.004
		c-0.104-0.011-0.207-0.023-0.311-0.034c-0.148-0.016-0.297-0.025-0.445-0.032c-0.11-0.005-0.221-0.01-0.331,0.007
		c-0.136,0.02-0.259,0.068-0.357,0.168c-0.08,0.081-0.129,0.179-0.157,0.288c-0.015,0.06-0.032,0.119-0.033,0.182
		C16.635,6.278,16.63,6.288,16.627,6.298z"/>
	<path fill="#6F00FF" d="M12.701,9.577c0.002,0.004,0.004,0.008,0.005,0.012c0.003,0.005,0.006,0.009,0.009,0.014
		c0.004,0.002,0.005,0.005,0.005,0.009c0.002,0.007,0.006,0.012,0.012,0.016l0,0c0.003,0.004,0.007,0.008,0.009,0.013
		c0.004,0.002,0.005,0.006,0.005,0.01c0.001,0.006,0.006,0.011,0.01,0.016c0.003,0.002,0.005,0.004,0.004,0.008
		c0.001,0.008,0.005,0.014,0.012,0.018l0,0c0.003,0.004,0.007,0.009,0.01,0.013c0.003,0.002,0.005,0.004,0.004,0.008
		c0.001,0.008,0.006,0.013,0.011,0.018l0,0c0.004,0.003,0.007,0.007,0.008,0.011c0.002,0.004,0.004,0.008,0.005,0.011
		c0.003,0.006,0.007,0.01,0.011,0.015l0.001,0.001c0.004,0.002,0.007,0.006,0.008,0.01c0.002,0.004,0.004,0.008,0.005,0.012
		c0.003,0.004,0.006,0.009,0.009,0.014c0.004,0.002,0.005,0.006,0.005,0.01c0.002,0.007,0.006,0.011,0.011,0.017l0.001,0.001
		c0.004,0.003,0.007,0.007,0.009,0.011c0.004,0.002,0.006,0.006,0.005,0.01c0.002,0.006,0.006,0.011,0.01,0.016
		c0.003,0.002,0.005,0.004,0.004,0.008c0.001,0.008,0.006,0.013,0.011,0.018l0,0c0.004,0.003,0.007,0.007,0.009,0.012
		c0.004,0.001,0.006,0.004,0.005,0.008c0.001,0.008,0.006,0.013,0.011,0.018l0,0c0.008,0.006,0.005,0.019,0.014,0.025l0-0.001
		c0.003,0.004,0.006,0.009,0.009,0.013c0.004,0.001,0.005,0.004,0.005,0.007c0,0.008,0.005,0.014,0.012,0.018l0-0.001
		c0.003,0.004,0.006,0.009,0.009,0.013c0.004,0.002,0.005,0.006,0.005,0.011c0.004,0.047-0.028,0.059-0.064,0.059
		c-0.066,0.001-0.131,0.014-0.196,0.013c-0.265-0.005-0.529,0.02-0.794,0.015c-0.048-0.001-0.093-0.007-0.127-0.045
		c-0.05-0.079-0.101-0.157-0.15-0.236c-0.097-0.155-0.193-0.31-0.289-0.465c-0.099-0.159-0.198-0.317-0.296-0.476
		c-0.037-0.06-0.074-0.119-0.111-0.178c-0.012-0.02-0.027-0.038-0.033-0.062c0.057-0.029,0.121-0.019,0.179-0.018
		c0.252,0.003,0.504-0.021,0.756-0.015c0.079,0.002,0.157,0.001,0.23-0.032c0.035,0.038,0.057,0.084,0.084,0.127
		c0.104,0.165,0.207,0.331,0.31,0.497c0.002,0.003,0.002,0.008,0.003,0.012c0.003,0.005,0.006,0.009,0.009,0.014
		c0.004,0.002,0.005,0.006,0.005,0.01c0.001,0.007,0.006,0.012,0.01,0.017l0.001,0.001c0.004,0.002,0.007,0.006,0.009,0.01
		c0.004,0.002,0.006,0.006,0.006,0.01c0.001,0.006,0.006,0.011,0.01,0.016c0.003,0.002,0.005,0.004,0.004,0.008
		c0,0.008,0.005,0.013,0.011,0.018l0,0c0.004,0.003,0.007,0.007,0.009,0.012c0.004,0.002,0.006,0.004,0.006,0.009
		c0.001,0.008,0.005,0.013,0.011,0.017l0,0.001c0.004,0.003,0.006,0.007,0.008,0.011c0.002,0.004,0.004,0.008,0.005,0.012
		c0.003,0.005,0.006,0.009,0.009,0.014c0.007,0.007,0.015,0.014,0.016,0.025c0.003,0.004,0.006,0.009,0.009,0.014
		c0.004,0.002,0.005,0.006,0.005,0.01c0.001,0.006,0.006,0.011,0.01,0.016c0.007,0.007,0.014,0.014,0.015,0.024
		c0.003,0.005,0.006,0.01,0.01,0.014c0.003,0.002,0.005,0.004,0.004,0.008c0,0.008,0.005,0.013,0.011,0.018l0,0
		c0.004,0.003,0.007,0.007,0.008,0.012c0.004,0.003,0.006,0.006,0.005,0.011c0.002,0.006,0.007,0.011,0.011,0.016l0,0.001
		C12.697,9.568,12.699,9.572,12.701,9.577z"/>
	<path fill="#9000FF" d="M12.08,8.582c-0.02,0.04-0.059,0.044-0.096,0.05c-0.014,0.002-0.03,0.001-0.044,0.001
		c-0.108,0-0.216,0-0.324,0c-0.038,0-0.076-0.003-0.113,0.01c-0.015,0.005-0.034,0.002-0.05,0.002c-0.106,0-0.212,0-0.318,0
		c-0.013,0-0.026,0.001-0.038,0c-0.033-0.004-0.062,0.011-0.094,0.012c-0.029,0.001-0.057-0.018-0.087-0.011
		c-0.006-0.006-0.013-0.011-0.017-0.018c-0.093-0.149-0.185-0.299-0.278-0.448c-0.099-0.158-0.198-0.316-0.296-0.475
		c-0.106-0.171-0.211-0.343-0.316-0.514c0.017-0.013,0.036-0.008,0.055-0.005c0.105,0.018,0.212,0.014,0.317,0.006
		c0.095-0.007,0.19-0.012,0.286-0.009c0.144,0.005,0.288-0.018,0.432-0.014c0.033,0.001,0.061-0.017,0.092-0.022
		c0.052,0.067,0.092,0.142,0.137,0.213c0.131,0.208,0.26,0.417,0.389,0.626c0.017,0.027,0.032,0.055,0.047,0.082
		c0.003,0.005,0.006,0.01,0.009,0.014c0.004,0.002,0.005,0.005,0.005,0.009c0.001,0.007,0.006,0.012,0.01,0.017l0.001,0.001
		c0.004,0.003,0.007,0.007,0.009,0.011c0.004,0.002,0.006,0.005,0.005,0.01c0.001,0.007,0.006,0.012,0.01,0.017l0.001,0.001
		c0.008,0.006,0.006,0.018,0.014,0.024l0,0c0.004,0.004,0.007,0.008,0.009,0.012c0.004,0.001,0.006,0.004,0.005,0.008
		c0,0.008,0.005,0.013,0.011,0.018l0,0c0.004,0.003,0.007,0.008,0.009,0.012c0.004,0.003,0.006,0.006,0.005,0.011
		c0.003,0.005,0.006,0.01,0.009,0.015c0.007,0.007,0.015,0.013,0.016,0.024c0.003,0.005,0.006,0.01,0.009,0.014
		c0.004,0.002,0.005,0.005,0.004,0.009c0.001,0.007,0.006,0.012,0.01,0.017l0.001,0.001c0.008,0.006,0.005,0.019,0.015,0.023
		l-0.001-0.001c0.001,0.006,0.007,0.01,0.01,0.015l0.001,0.001c0.009,0.006,0.006,0.018,0.014,0.024l0,0
		c0.004,0.004,0.007,0.008,0.009,0.012c0.004,0.002,0.006,0.006,0.005,0.01c0.002,0.007,0.007,0.011,0.011,0.016l0,0
		c0.004,0.003,0.007,0.007,0.009,0.012c0.004,0.003,0.006,0.006,0.005,0.011c0.003,0.005,0.006,0.01,0.009,0.015
		c0.004,0.002,0.005,0.005,0.004,0.009c0.001,0.007,0.006,0.012,0.012,0.017l0,0c0.004,0.004,0.007,0.008,0.01,0.013
		c0.004,0.002,0.005,0.005,0.004,0.009c0.002,0.007,0.006,0.012,0.01,0.017l0.001,0.001c0.009,0.006,0.006,0.018,0.014,0.024l0,0
		c0.004,0.004,0.007,0.009,0.01,0.013c0.004,0.001,0.005,0.004,0.004,0.007C12.069,8.571,12.074,8.577,12.08,8.582L12.08,8.582z"/>
	<path fill="#A300FF" d="M13.101,6.487c0.023-0.009,0.03-0.038,0.051-0.046c0.021-0.008,0.047-0.002,0.068-0.009
		c0.027-0.009,0.054-0.008,0.082-0.008c0.119,0,0.238,0,0.357,0c0.025,0,0.05,0,0.075-0.008c0.018-0.006,0.038-0.004,0.057-0.005
		c0.119,0,0.238,0,0.357,0c0.023,0,0.046,0,0.069-0.007c0.018-0.005,0.038-0.005,0.057-0.005c0.104,0,0.208,0,0.312,0
		c0.049,0,0.097-0.003,0.145-0.009c0.062-0.008,0.127-0.013,0.188,0.013c0.029,0.012,0.058,0.009,0.088,0.008
		c0.095,0.042,0.173,0.106,0.24,0.183c0.09,0.102,0.148,0.221,0.182,0.352c0.054,0.204,0.054,0.411,0.025,0.618
		c-0.003,0.021-0.006,0.042-0.017,0.061c-0.238-0.048-0.476,0.008-0.714-0.005c-0.036-0.002-0.067,0.027-0.105,0.016
		c0.003-0.008,0.005-0.016,0.009-0.024c0.072-0.142,0.074-0.291,0.035-0.441c-0.028-0.107-0.098-0.181-0.201-0.225
		c-0.092-0.039-0.189-0.047-0.288-0.044c-0.081,0.003-0.162,0.004-0.242,0.018c-0.017,0.003-0.034,0.002-0.051,0.003
		c-0.017,0.01-0.037-0.001-0.054,0.01c-0.007,0.001-0.014,0.002-0.021,0.003c-0.014,0.007-0.03,0-0.043,0.01L13.76,6.949
		l-0.006-0.001c-0.012,0.009-0.028,0.001-0.04,0.011l-0.005,0.003l-0.006-0.001c-0.008,0.006-0.019,0.004-0.027,0.009
		c-0.013,0.007-0.026,0.007-0.039,0.001c-0.013-0.01-0.029-0.003-0.043-0.01c-0.012,0.002-0.023,0-0.034-0.005
		c-0.01-0.004-0.02-0.005-0.03-0.008c-0.007-0.001-0.014-0.002-0.021-0.003c-0.013-0.009-0.029-0.003-0.043-0.01
		c-0.007-0.001-0.014-0.002-0.021-0.003c-0.013-0.01-0.029-0.003-0.043-0.01c-0.007-0.001-0.014-0.002-0.021-0.003
		c-0.013-0.009-0.029-0.003-0.043-0.01c-0.007-0.001-0.014-0.002-0.021-0.003c-0.013-0.009-0.029-0.002-0.042-0.01
		c-0.007-0.001-0.015-0.002-0.022-0.003c-0.013-0.009-0.029-0.003-0.042-0.01c-0.007-0.001-0.014-0.002-0.022-0.003
		c-0.013-0.009-0.029-0.002-0.042-0.01c-0.007-0.001-0.015-0.002-0.022-0.003c-0.013-0.009-0.029-0.002-0.042-0.01
		c-0.021-0.015-0.009-0.035-0.007-0.053c0.014-0.043-0.003-0.089,0.01-0.132c-0.004-0.012-0.003-0.023,0.002-0.034
		c0.016-0.039-0.002-0.081,0.011-0.12C13.096,6.509,13.097,6.498,13.101,6.487z"/>
	<path fill="#B300FF" d="M14.62,7.636c0.041-0.029,0.087-0.039,0.138-0.038c0.07,0.002,0.14,0.001,0.21,0
		c0.034,0,0.067,0.002,0.101-0.01c0.015-0.006,0.034-0.003,0.051-0.003c0.068,0,0.136,0,0.204,0c0.065,0,0.065,0,0.115,0.038
		c-0.001,0.004-0.001,0.009-0.002,0.013c-0.009,0.012-0.002,0.029-0.01,0.041c-0.001,0.008-0.002,0.015-0.004,0.023
		c-0.005,0.009-0.004,0.019-0.009,0.028c0.002,0.004,0.001,0.007-0.002,0.01c-0.008,0.008-0.006,0.02-0.01,0.03
		c0.001,0.004,0,0.007-0.003,0.009c-0.007,0.008-0.004,0.019-0.01,0.027c0.002,0.004,0.001,0.008-0.003,0.011
		c-0.006,0.008-0.003,0.019-0.01,0.026c-0.001,0.004-0.002,0.008-0.004,0.012c-0.003,0.005-0.007,0.01-0.008,0.016
		c0.001,0.004,0,0.007-0.004,0.009c-0.003,0.005-0.006,0.01-0.009,0.015c0.001,0.004,0,0.008-0.004,0.011
		c-0.003,0.005-0.007,0.01-0.009,0.016c0.001,0.004,0,0.007-0.004,0.01c-0.003,0.005-0.008,0.01-0.009,0.016
		c0.001,0.004,0,0.008-0.004,0.01c-0.003,0.005-0.006,0.009-0.01,0.013l0,0c-0.006,0.005-0.011,0.01-0.011,0.018
		c0.001,0.004,0,0.006-0.004,0.008c-0.004,0.005-0.008,0.009-0.01,0.015c0.001,0.005-0.001,0.008-0.005,0.01
		c-0.002,0.005-0.005,0.008-0.009,0.011l-0.001,0.001c-0.004,0.005-0.007,0.009-0.011,0.013l0,0
		c-0.006,0.004-0.01,0.009-0.012,0.017c0,0.004-0.001,0.008-0.006,0.009c-0.002,0.005-0.005,0.008-0.009,0.011l-0.001,0.001
		c-0.004,0.005-0.007,0.009-0.012,0.013l0,0c-0.004,0.004-0.009,0.008-0.012,0.013l0,0c-0.005,0.004-0.01,0.008-0.012,0.014
		l0.001-0.001c-0.006,0.003-0.011,0.007-0.013,0.014l0.001-0.001c-0.007,0.002-0.011,0.007-0.014,0.013l0.001-0.001
		c-0.006,0.003-0.011,0.007-0.014,0.014l0.001-0.001c-0.006,0.003-0.011,0.007-0.014,0.014l0.001-0.001
		c-0.006,0.002-0.01,0.007-0.014,0.013l0,0c-0.005,0.003-0.009,0.008-0.014,0.012l0,0c-0.004,0.004-0.008,0.008-0.013,0.012
		l-0.001,0.001c-0.003,0.004-0.007,0.007-0.011,0.01c-0.002,0.004-0.005,0.006-0.009,0.005c-0.008,0.001-0.013,0.006-0.017,0.013
		l0.001-0.001c-0.006,0.002-0.01,0.007-0.014,0.011l-0.001,0c-0.003,0.004-0.007,0.007-0.011,0.009
		c-0.002,0.004-0.006,0.006-0.01,0.005c-0.007,0.002-0.011,0.006-0.016,0.011l-0.001,0c-0.003,0.004-0.007,0.007-0.012,0.009
		c-0.004,0.002-0.008,0.003-0.011,0.005c-0.005,0.003-0.01,0.006-0.014,0.009c-0.002,0.004-0.004,0.005-0.008,0.004
		c-0.007,0.001-0.012,0.005-0.018,0.01L14.95,8.316l-0.004,0c-0.008,0-0.013,0.005-0.019,0.01l-0.001,0
		c-0.006,0.008-0.018,0.005-0.025,0.012l-0.003,0.003l-0.004,0c-0.008,0-0.013,0.005-0.018,0.009l-0.004,0.003l-0.005,0
		c-0.007,0.001-0.011,0.006-0.016,0.008c-0.003,0.004-0.007,0.005-0.012,0.004c-0.008,0.006-0.019,0.004-0.027,0.011l-0.004,0.003
		l-0.005,0c-0.009,0.005-0.021,0.003-0.029,0.011L14.77,8.392l-0.005-0.001c-0.009,0.004-0.021,0.003-0.029,0.01l-0.005,0.003
		l-0.006-0.001c-0.009,0.005-0.019,0.004-0.028,0.009c-0.058,0.022-0.12,0.029-0.18,0.039c-0.086,0.013-0.173,0.017-0.261,0.017
		c-0.179,0.001-0.357-0.015-0.534-0.037c-0.226-0.028-0.449-0.068-0.671-0.117c-0.008-0.002-0.017-0.003-0.025-0.005
		c-0.038-0.01-0.039-0.013-0.033-0.053c0.015-0.101,0.028-0.202,0.042-0.303c0.01-0.074,0.02-0.147,0.03-0.221
		c0.004-0.032,0.009-0.037,0.041-0.032c0.063,0.009,0.126,0.02,0.189,0.029c0.162,0.025,0.324,0.045,0.487,0.062
		c0.146,0.014,0.292,0.026,0.439,0.026c0.058,0,0.115-0.005,0.17-0.021c0.081-0.024,0.152-0.066,0.204-0.134
		c0.004-0.005,0.009-0.008,0.014-0.012C14.612,7.644,14.618,7.641,14.62,7.636L14.62,7.636z"/>
	<path fill="#B500FF" d="M10.751,4.916c0.017,0.047,0.028,0.061,0.094,0.047c0.028-0.006,0.054-0.008,0.082-0.008c0.1,0,0.2,0,0.3,0
		c0.049,0,0.097,0.005,0.145-0.011c0.015-0.005,0.034-0.002,0.051-0.002c0.106,0,0.213-0.001,0.319,0.001
		c0.06,0.001,0.118-0.011,0.176-0.021c0.012-0.002,0.025-0.002,0.038-0.003c-0.011,0.04-0.039,0.07-0.06,0.104
		c-0.154,0.249-0.31,0.497-0.465,0.745c-0.067,0.108-0.134,0.217-0.201,0.325c-0.005,0.009-0.013,0.016-0.02,0.024
		c-0.068,0.055-0.152,0.056-0.23,0.056c-0.295-0.002-0.589,0.023-0.884,0.015c-0.011,0-0.021,0-0.032-0.001
		c-0.062-0.006-0.07-0.018-0.054-0.082l0,0c0.004-0.005,0.009-0.01,0.011-0.016c-0.001-0.005,0.001-0.008,0.005-0.011
		c0.002-0.005,0.005-0.009,0.009-0.012l0,0c0.008-0.006,0.005-0.018,0.014-0.024l0.001-0.001c0.003-0.005,0.008-0.009,0.011-0.015
		l-0.001,0.001c0.009-0.005,0.007-0.018,0.015-0.024l0-0.001c0.004-0.005,0.009-0.01,0.01-0.017
		c-0.001-0.004,0.001-0.007,0.004-0.009c0.003-0.005,0.006-0.009,0.009-0.014l0,0.001c0.006-0.004,0.011-0.009,0.012-0.017
		c-0.001-0.004,0.001-0.007,0.004-0.009c0.003-0.005,0.006-0.01,0.009-0.015c-0.001-0.005,0.001-0.008,0.005-0.011
		c0.002-0.005,0.005-0.009,0.009-0.012l0,0c0.005-0.005,0.01-0.01,0.011-0.017c0-0.004,0.001-0.007,0.005-0.009
		c0.002-0.005,0.005-0.009,0.009-0.013l0,0c0.008-0.006,0.005-0.018,0.014-0.024l0-0.001c0.004-0.005,0.009-0.01,0.01-0.017
		c0-0.005,0.002-0.008,0.006-0.009c0.002-0.005,0.004-0.008,0.009-0.011l0-0.001c0.004-0.005,0.009-0.01,0.01-0.017
		c-0.001-0.004,0.001-0.007,0.004-0.009c0.003-0.005,0.006-0.01,0.009-0.015c0.002-0.004,0.004-0.007,0.005-0.011
		c0.002-0.005,0.004-0.008,0.009-0.01l0.001-0.001c0.003-0.005,0.008-0.01,0.01-0.016c-0.001-0.005,0.001-0.008,0.005-0.011
		c0.002-0.005,0.005-0.009,0.009-0.013c0.033-0.056,0.066-0.113,0.1-0.168c0.098-0.158,0.196-0.316,0.295-0.473
		C10.691,5.007,10.715,4.957,10.751,4.916z"/>
	<path fill="#A400FF" d="M10.011,6.105c-0.004,0.068,0.007,0.063,0.063,0.063c0.133,0,0.267,0,0.4,0
		c0.013,0,0.026,0.003,0.038-0.001c0.052-0.017,0.105-0.011,0.157-0.011c0.081-0.001,0.161-0.003,0.242,0.001
		c0.068,0.003,0.134-0.014,0.202-0.015c0.016,0,0.033-0.008,0.049-0.014c0.016-0.006,0.032-0.012,0.049-0.011
		c-0.019,0.048-0.05,0.088-0.077,0.132c-0.076,0.125-0.155,0.249-0.233,0.373c-0.011,0.018-0.015,0.034-0.008,0.054
		c0.002,0.007,0.006,0.012,0.011,0.016l0,0c0.004,0.004,0.007,0.008,0.009,0.012c0.004,0.002,0.005,0.006,0.005,0.01
		c0.002,0.006,0.006,0.01,0.009,0.015c0.004,0.002,0.005,0.004,0.004,0.008c0.001,0.008,0.006,0.013,0.012,0.018l0,0
		c0.004,0.004,0.007,0.008,0.01,0.013c0.004,0.002,0.005,0.005,0.004,0.008c0.001,0.007,0.006,0.012,0.01,0.018l0,0.001
		c0.008,0.006,0.005,0.019,0.014,0.024l0-0.001c0.004,0.005,0.007,0.01,0.011,0.014l0.001,0.001
		c0.009,0.005,0.006,0.018,0.014,0.023l0,0c0.003,0.004,0.006,0.008,0.009,0.013c0.004,0.002,0.005,0.006,0.005,0.01
		c0.002,0.006,0.007,0.011,0.01,0.016l0.001,0.001c0.004,0.002,0.007,0.006,0.009,0.011c0.004,0.002,0.006,0.006,0.005,0.01
		c0.002,0.006,0.006,0.01,0.009,0.015c0.004,0.002,0.005,0.004,0.004,0.008c0.001,0.007,0.006,0.013,0.011,0.018l0,0.001
		c0.004,0.003,0.007,0.007,0.009,0.011c0.004,0.002,0.006,0.004,0.006,0.009c0.001,0.007,0.006,0.012,0.01,0.018l0,0.001
		c0.008,0.006,0.005,0.018,0.014,0.024l0,0c0.003,0.004,0.007,0.008,0.009,0.013c0.004,0.001,0.005,0.004,0.005,0.008
		c0.001,0.008,0.006,0.013,0.012,0.018l0,0c0.004,0.004,0.007,0.008,0.009,0.013c0.004,0.002,0.006,0.006,0.005,0.01
		c0.002,0.006,0.006,0.01,0.009,0.015c0.004,0.002,0.005,0.004,0.004,0.008c0.001,0.008,0.006,0.014,0.012,0.017l-0.001-0.001
		c0.003,0.005,0.006,0.009,0.009,0.014c0.004,0.002,0.005,0.005,0.005,0.009c-0.015,0.034-0.042,0.044-0.078,0.043
		c-0.042-0.002-0.085-0.001-0.128,0c-0.03,0-0.059-0.001-0.088,0.009c-0.017,0.006-0.038,0.004-0.057,0.004
		c-0.096,0-0.191,0-0.287,0c-0.051,0-0.102-0.006-0.152,0.011c-0.013,0.005-0.03,0.002-0.044,0.002
		c-0.062,0-0.123-0.002-0.185,0.001c-0.056,0.002-0.11-0.008-0.162-0.025c-0.048-0.075-0.096-0.15-0.143-0.225
		c-0.055-0.088-0.11-0.176-0.165-0.265C9.692,6.692,9.687,6.682,9.682,6.674C9.671,6.657,9.673,6.643,9.683,6.626
		C9.716,6.574,9.748,6.522,9.78,6.47c0.074-0.119,0.148-0.238,0.222-0.357C10.004,6.109,10.008,6.107,10.011,6.105z"/>
	<path fill="#5B00FF" d="M11.794,10.064c0.043,0.022,0.088,0.026,0.136,0.025c0.089-0.002,0.178,0,0.267-0.001
		c0.034,0,0.067,0.002,0.101-0.01c0.015-0.006,0.034-0.003,0.051-0.003c0.106,0,0.212,0,0.318,0c0.04,0,0.08,0.001,0.12-0.01
		c0.03-0.008,0.063-0.003,0.095-0.003c0.011,0,0.021-0.001,0.032,0c0.033,0.005,0.052-0.012,0.062-0.041
		c0.043,0.052,0.074,0.112,0.109,0.169c0.062,0.1,0.123,0.201,0.185,0.301c0.001,0.008,0.005,0.014,0.013,0.017l0-0.001
		c-0.001,0.039-0.042,0.007-0.052,0.029c-0.07,0.122-0.139,0.243-0.209,0.365c-0.083,0.146-0.167,0.292-0.25,0.437
		c-0.025,0.044-0.05,0.089-0.076,0.133c-0.006,0.01-0.02,0.01-0.026,0.001c-0.01-0.014-0.019-0.028-0.028-0.043
		c-0.095-0.153-0.191-0.307-0.286-0.46c-0.096-0.155-0.193-0.31-0.289-0.466C11.974,10.358,11.884,10.211,11.794,10.064z"/>
	<path fill="#5100E3" d="M13.23,10.537c0.005-0.011,0.015-0.014,0.026-0.015c0.011,0,0.02-0.005,0.027-0.014
		c0.032,0,0.064,0,0.096,0c1.541,0,3.081,0,4.622,0c0.023,0,0.047,0.001,0.07,0.002c0.003,0,0.008,0.006,0.008,0.007
		c-0.002,0.005-0.005,0.013-0.009,0.015c-0.007,0.003-0.016,0.004-0.025,0.004c-0.021,0.001-0.043,0-0.064,0
		c-1.558,0-3.115,0-4.673,0C13.281,10.536,13.255,10.537,13.23,10.537z"/>
	<path fill="#8C00FF" d="M13.087,6.674c0.001,0.033,0.001,0.065,0.002,0.098c0,0.012-0.001,0.025-0.011,0.034
		C13.077,6.762,13.073,6.717,13.087,6.674z"/>
	<path fill="#8C00FF" d="M13.1,6.521c0.001,0.029,0.001,0.058,0.002,0.087c0,0.013-0.001,0.025-0.012,0.033
		C13.09,6.6,13.086,6.56,13.1,6.521z"/>
	<path fill="#A100FF" d="M15.898,7.33c0.019,0.014,0.011,0.035,0.012,0.053C15.898,7.367,15.898,7.349,15.898,7.33z"/>
	<path fill="#8C00FF" d="M13.83,6.933c0.015-0.018,0.035-0.011,0.054-0.01C13.867,6.934,13.848,6.934,13.83,6.933z"/>
	<path fill="#8C00FF" d="M13.339,6.91c0.015-0.002,0.031-0.005,0.043,0.01C13.367,6.921,13.352,6.921,13.339,6.91z"/>
	<path fill="#8C00FF" d="M13.766,6.946c0.012-0.015,0.028-0.012,0.043-0.01C13.796,6.947,13.781,6.947,13.766,6.946z"/>
	<path fill="#8C00FF" d="M13.403,6.923c0.015-0.002,0.031-0.005,0.043,0.01C13.43,6.934,13.416,6.934,13.403,6.923z"/>
	<path fill="#A100FF" d="M15.925,7.458c0.014,0.01,0.011,0.025,0.011,0.04C15.926,7.486,15.923,7.473,15.925,7.458z"/>
	<path fill="#8C00FF" d="M13.715,6.959c0.01-0.015,0.025-0.012,0.04-0.011C13.743,6.958,13.729,6.96,13.715,6.959z"/>
	<path fill="#8C00FF" d="M13.594,6.962c0.015-0.002,0.031-0.005,0.043,0.01C13.622,6.973,13.607,6.973,13.594,6.962z"/>
	<path fill="#8C00FF" d="M13.467,6.936c0.015-0.002,0.031-0.005,0.043,0.01C13.494,6.947,13.479,6.947,13.467,6.936z"/>
	<path fill="#8C00FF" d="M13.085,6.859c0.015-0.001,0.03-0.005,0.042,0.01C13.111,6.87,13.097,6.869,13.085,6.859z"/>
	<path fill="#8C00FF" d="M13.149,6.872c0.015-0.001,0.03-0.005,0.042,0.01C13.175,6.883,13.161,6.883,13.149,6.872z"/>
	<path fill="#8C00FF" d="M13.212,6.885c0.015-0.002,0.031-0.005,0.042,0.01C13.239,6.896,13.224,6.895,13.212,6.885z"/>
	<path fill="#A300FF" d="M15.427,7.678c-0.001-0.015-0.004-0.03,0.01-0.041C15.438,7.652,15.437,7.666,15.427,7.678z"/>
	<path fill="#8C00FF" d="M13.276,6.898c0.015-0.001,0.031-0.005,0.042,0.01C13.303,6.909,13.288,6.908,13.276,6.898z"/>
	<path fill="#B500FF" d="M10.893,4.687c0,0.011-0.003,0.02-0.014,0.024C10.879,4.701,10.883,4.693,10.893,4.687z"/>
	<path fill="#D400FF" d="M19.18,2.618c-0.011-0.005-0.014-0.013-0.014-0.024C19.175,2.599,19.18,2.607,19.18,2.618z"/>
	<path fill="#D400FF" d="M19.205,2.656c-0.01-0.004-0.013-0.013-0.014-0.023C19.201,2.638,19.206,2.645,19.205,2.656z"/>
	<path fill="#B500FF" d="M11.148,4.279c0,0.011-0.003,0.02-0.015,0.024C11.134,4.292,11.138,4.284,11.148,4.279z"/>
	<path fill="#A400FF" d="M10.076,6.003c-0.001,0.011-0.004,0.02-0.015,0.024C10.062,6.017,10.067,6.009,10.076,6.003z"/>
	<path fill="#B500FF" d="M11.02,4.483c0,0.011-0.003,0.02-0.014,0.024C11.006,4.497,11.011,4.488,11.02,4.483z"/>
	<path fill="#B500FF" d="M11.122,4.317c0,0.011-0.003,0.02-0.014,0.024C11.109,4.331,11.113,4.323,11.122,4.317z"/>
	<path fill="#B500FF" d="M10.995,4.523c-0.001,0.01-0.004,0.019-0.014,0.023C10.981,4.535,10.986,4.527,10.995,4.523z"/>
	<path fill="#A400FF" d="M10.05,6.042c-0.001,0.01-0.003,0.019-0.014,0.024C10.036,6.055,10.041,6.047,10.05,6.042z"/>
	<path fill="#A400FF" d="M10.178,5.837c0,0.01-0.003,0.019-0.014,0.024C10.164,5.851,10.169,5.843,10.178,5.837z"/>
	<path fill="#9000FF" d="M11.11,7.023c-0.011-0.005-0.013-0.014-0.014-0.024C11.105,7.005,11.11,7.013,11.11,7.023z"/>
	<path fill="#8C00FF" d="M13.677,6.97c0.007-0.009,0.017-0.011,0.027-0.009C13.696,6.969,13.687,6.971,13.677,6.97z"/>
	<path fill="#9000FF" d="M11.008,6.857c-0.01-0.004-0.013-0.013-0.014-0.023C11.003,6.839,11.008,6.847,11.008,6.857z"/>
	<path fill="#CE00FF" d="M11.863,3.129c0,0.011-0.003,0.02-0.014,0.025C11.849,3.143,11.853,3.134,11.863,3.129z"/>
	<path fill="#9000FF" d="M10.983,6.819c-0.011-0.004-0.014-0.014-0.014-0.024C10.978,6.8,10.982,6.808,10.983,6.819z"/>
	<path fill="#A100FF" d="M15.913,7.407c0.011,0.008,0.01,0.019,0.009,0.031C15.913,7.429,15.912,7.419,15.913,7.407z"/>
	<path fill="#A100FF" d="M15.938,7.509c0.009,0.006,0.011,0.016,0.01,0.026C15.941,7.528,15.937,7.52,15.938,7.509z"/>
	<path fill="#A100FF" d="M15.951,7.548c0.01,0.007,0.011,0.018,0.009,0.029C15.952,7.568,15.95,7.559,15.951,7.548z"/>
	<path fill="#CE00FF" d="M11.965,2.963c0,0.011-0.003,0.02-0.014,0.025C11.951,2.977,11.955,2.968,11.965,2.963z"/>
	<path fill="#A100FF" d="M15.963,7.586c0.011,0.007,0.012,0.018,0.01,0.03C15.963,7.608,15.961,7.597,15.963,7.586z"/>
	<path fill="#A100FF" d="M15.975,7.624c0.011,0.006,0.012,0.017,0.011,0.028C15.976,7.645,15.974,7.635,15.975,7.624z"/>
	<path fill="#CE00FF" d="M11.99,2.924c0,0.011-0.003,0.021-0.016,0.024C11.976,2.938,11.981,2.93,11.99,2.924z"/>
	<path fill="#A100FF" d="M16,7.688c0.011,0.007,0.012,0.017,0.011,0.029C16.002,7.709,15.999,7.699,16,7.688z"/>
	<path fill="#A300FF" d="M15.414,7.729c-0.001-0.011-0.001-0.021,0.009-0.028C15.424,7.712,15.423,7.722,15.414,7.729z"/>
	<path fill="#A100FF" d="M16.014,7.726c0.009,0.006,0.011,0.015,0.011,0.025C16.017,7.745,16.013,7.737,16.014,7.726z"/>
	<path fill="#A300FF" d="M15.401,7.769c-0.001-0.012-0.001-0.023,0.01-0.03C15.413,7.75,15.412,7.761,15.401,7.769z"/>
	<path fill="#A300FF" d="M15.388,7.805c-0.001-0.011,0-0.021,0.01-0.027C15.399,7.788,15.397,7.797,15.388,7.805z"/>
	<path fill="#A100FF" d="M16.039,7.777c0.01,0.006,0.012,0.015,0.012,0.025C16.042,7.796,16.038,7.788,16.039,7.777z"/>
	<path fill="#A100FF" d="M16.051,7.803c0.011,0.006,0.013,0.016,0.012,0.027C16.054,7.823,16.05,7.814,16.051,7.803z"/>
	<path fill="#A300FF" d="M15.375,7.842c-0.001-0.01,0.001-0.02,0.01-0.026C15.386,7.826,15.383,7.835,15.375,7.842z"/>
	<path fill="#D400FF" d="M19.347,2.885c-0.012-0.004-0.015-0.014-0.014-0.025C19.343,2.866,19.347,2.874,19.347,2.885z"/>
	<path fill="#6F00FF" d="M11.825,8.173c-0.01-0.005-0.013-0.014-0.014-0.024C11.82,8.154,11.825,8.162,11.825,8.173z"/>
	<path fill="#D400FF" d="M19.308,2.822c-0.01-0.005-0.014-0.014-0.014-0.024C19.303,2.803,19.308,2.811,19.308,2.822z"/>
	<path fill="#CE00FF" d="M11.838,3.168c0,0.011-0.003,0.02-0.014,0.024C11.824,3.181,11.827,3.173,11.838,3.168z"/>
	<path fill="#A300FF" d="M14.902,8.338c0.005-0.01,0.015-0.012,0.025-0.012C14.921,8.335,14.913,8.338,14.902,8.338z"/>
	<path fill="#B500FF" d="M10.765,4.892c0,0.011-0.003,0.02-0.014,0.024C10.751,4.906,10.756,4.898,10.765,4.892z"/>
	<path fill="#6F00FF" d="M11.952,8.377c-0.01-0.005-0.013-0.014-0.014-0.024C11.947,8.359,11.952,8.367,11.952,8.377z"/>
	<path fill="#B500FF" d="M10.791,4.853c0,0.011-0.003,0.02-0.015,0.024C10.777,4.867,10.781,4.859,10.791,4.853z"/>
	<path fill="#A300FF" d="M14.813,8.376c0.006-0.01,0.016-0.011,0.027-0.011C14.833,8.374,14.824,8.377,14.813,8.376z"/>
	<path fill="#A300FF" d="M14.774,8.389c0.007-0.011,0.017-0.012,0.029-0.011C14.796,8.388,14.786,8.391,14.774,8.389z"/>
	<path fill="#A300FF" d="M14.736,8.402c0.007-0.011,0.018-0.012,0.029-0.01C14.758,8.401,14.748,8.403,14.736,8.402z"/>
	<path fill="#A300FF" d="M14.698,8.413c0.007-0.01,0.017-0.011,0.028-0.009C14.718,8.412,14.709,8.415,14.698,8.413z"/>
	<path fill="#6F00FF" d="M12.055,8.543c-0.011-0.004-0.014-0.013-0.014-0.024C12.05,8.525,12.054,8.533,12.055,8.543z"/>
	<path fill="#8C00FF" d="M13.53,6.949c0.011-0.002,0.022-0.002,0.03,0.008C13.549,6.958,13.539,6.957,13.53,6.949z"/>
	<path fill="#5B00FF" d="M12.936,9.96c-0.011-0.005-0.014-0.014-0.014-0.025C12.932,9.941,12.936,9.95,12.936,9.96z"/>
	<path fill="#6F00FF" d="M11.929,8.338c-0.012-0.003-0.015-0.012-0.015-0.023C11.922,8.32,11.928,8.327,11.929,8.338z"/>
	<path fill="#B500FF" d="M11.07,4.403c0,0.007-0.003,0.012-0.009,0.015C11.06,4.411,11.063,4.406,11.07,4.403z"/>
	<path fill="#B500FF" d="M11.056,4.426c0,0.008-0.004,0.014-0.011,0.018C11.046,4.436,11.049,4.43,11.056,4.426z"/>
	<path fill="#B500FF" d="M11.045,4.444c-0.003,0.004-0.006,0.008-0.01,0.012C11.035,4.449,11.039,4.446,11.045,4.444z"/>
	<path fill="#B500FF" d="M11.031,4.465c0,0.008-0.004,0.014-0.01,0.018C11.02,4.474,11.024,4.468,11.031,4.465z"/>
	<path fill="#B500FF" d="M11.007,4.507C11.003,4.512,11,4.516,10.996,4.521C10.997,4.514,11,4.509,11.007,4.507z"/>
	<path fill="#B500FF" d="M10.981,4.545c-0.003,0.004-0.006,0.009-0.009,0.013C10.972,4.552,10.975,4.548,10.981,4.545z"/>
	<path fill="#B500FF" d="M10.968,4.569c-0.003,0.005-0.007,0.011-0.01,0.016C10.958,4.577,10.961,4.572,10.968,4.569z"/>
	<path fill="#B500FF" d="M10.957,4.586c-0.003,0.003-0.006,0.007-0.009,0.01C10.948,4.591,10.951,4.588,10.957,4.586z"/>
	<path fill="#B500FF" d="M10.942,4.607c0,0.007-0.003,0.012-0.009,0.015C10.932,4.615,10.936,4.61,10.942,4.607z"/>
	<path fill="#B500FF" d="M10.929,4.631c0,0.008-0.004,0.014-0.01,0.018C10.918,4.64,10.921,4.634,10.929,4.631z"/>
	<path fill="#B500FF" d="M10.918,4.649c-0.003,0.004-0.006,0.008-0.009,0.012C10.909,4.654,10.912,4.651,10.918,4.649z"/>
	<path fill="#B500FF" d="M10.903,4.67c0,0.008-0.004,0.013-0.01,0.017C10.893,4.679,10.896,4.673,10.903,4.67z"/>
	<path fill="#B500FF" d="M10.879,4.711c-0.003,0.004-0.006,0.009-0.009,0.013C10.87,4.718,10.873,4.714,10.879,4.711z"/>
	<path fill="#B500FF" d="M10.865,4.734c-0.001,0.008-0.005,0.013-0.012,0.016C10.854,4.742,10.858,4.737,10.865,4.734z"/>
	<path fill="#B500FF" d="M10.854,4.75c-0.003,0.004-0.006,0.009-0.009,0.013C10.844,4.756,10.847,4.752,10.854,4.75z"/>
	<path fill="#B500FF" d="M10.84,4.773c0,0.007-0.003,0.012-0.009,0.015C10.83,4.781,10.833,4.776,10.84,4.773z"/>
	<path fill="#B500FF" d="M10.826,4.796c0,0.008-0.005,0.014-0.012,0.017C10.815,4.805,10.819,4.8,10.826,4.796z"/>
	<path fill="#B500FF" d="M10.815,4.813c-0.003,0.005-0.006,0.009-0.009,0.014C10.805,4.82,10.808,4.815,10.815,4.813z"/>
	<path fill="#B500FF" d="M10.801,4.835c0,0.008-0.004,0.014-0.01,0.018C10.791,4.845,10.794,4.839,10.801,4.835z"/>
	<path fill="#B500FF" d="M10.776,4.876c-0.004,0.005-0.007,0.01-0.011,0.015C10.765,4.883,10.769,4.878,10.776,4.876z"/>
	<path fill="#A400FF" d="M10.266,5.695c-0.003,0.004-0.006,0.008-0.009,0.013C10.257,5.701,10.26,5.697,10.266,5.695z"/>
	<path fill="#A400FF" d="M10.253,5.718c-0.003,0.005-0.007,0.011-0.01,0.016C10.243,5.727,10.246,5.722,10.253,5.718z"/>
	<path fill="#A400FF" d="M10.242,5.736c-0.003,0.003-0.006,0.007-0.009,0.01C10.232,5.74,10.236,5.737,10.242,5.736z"/>
	<path fill="#A400FF" d="M10.227,5.757c-0.003,0.005-0.006,0.01-0.009,0.015C10.218,5.764,10.221,5.76,10.227,5.757z"/>
	<path fill="#A400FF" d="M10.214,5.781c0,0.008-0.004,0.013-0.01,0.017C10.203,5.79,10.207,5.784,10.214,5.781z"/>
	<path fill="#A400FF" d="M10.203,5.799C10.2,5.802,10.197,5.806,10.194,5.81C10.194,5.804,10.198,5.8,10.203,5.799z"/>
	<path fill="#A400FF" d="M10.188,5.819c0,0.007-0.004,0.013-0.01,0.017C10.178,5.828,10.181,5.823,10.188,5.819z"/>
	<path fill="#A400FF" d="M10.164,5.861c-0.003,0.004-0.006,0.008-0.009,0.013C10.155,5.867,10.158,5.863,10.164,5.861z"/>
	<path fill="#A400FF" d="M10.15,5.882c0,0.008-0.004,0.014-0.011,0.017C10.139,5.891,10.142,5.886,10.15,5.882z"/>
	<path fill="#A400FF" d="M10.139,5.9c-0.003,0.004-0.006,0.008-0.009,0.012C10.13,5.906,10.133,5.902,10.139,5.9z"/>
	<path fill="#A400FF" d="M10.125,5.923c-0.003,0.005-0.006,0.01-0.009,0.015C10.115,5.93,10.119,5.926,10.125,5.923z"/>
	<path fill="#A400FF" d="M10.112,5.946c-0.001,0.008-0.005,0.014-0.012,0.017C10.1,5.955,10.104,5.949,10.112,5.946z"/>
	<path fill="#A400FF" d="M10.1,5.962c-0.003,0.005-0.006,0.009-0.009,0.014C10.09,5.969,10.093,5.964,10.1,5.962z"/>
	<path fill="#A400FF" d="M10.086,5.985c0,0.008-0.004,0.013-0.01,0.017C10.076,5.994,10.079,5.989,10.086,5.985z"/>
	<path fill="#A400FF" d="M10.061,6.026c-0.004,0.005-0.007,0.01-0.011,0.015C10.05,6.033,10.054,6.028,10.061,6.026z"/>
	<path fill="#A400FF" d="M10.037,6.066c-0.003,0.004-0.006,0.008-0.009,0.012C10.027,6.072,10.031,6.068,10.037,6.066z"/>
	<path fill="#A400FF" d="M10.023,6.089c-0.004,0.005-0.007,0.011-0.011,0.016C10.012,6.097,10.016,6.092,10.023,6.089z"/>
	<path fill="#9000FF" d="M10.905,6.691c-0.007-0.003-0.011-0.009-0.011-0.016C10.901,6.678,10.905,6.684,10.905,6.691z"/>
	<path fill="#9000FF" d="M10.914,6.704c-0.003-0.004-0.006-0.008-0.009-0.012C10.911,6.693,10.915,6.697,10.914,6.704z"/>
	<path fill="#9000FF" d="M10.928,6.729c-0.006-0.003-0.009-0.008-0.009-0.015C10.925,6.717,10.929,6.722,10.928,6.729z"/>
	<path fill="#9000FF" d="M10.954,6.768c-0.003-0.004-0.007-0.009-0.01-0.013C10.95,6.757,10.954,6.761,10.954,6.768z"/>
	<path fill="#9000FF" d="M10.968,6.794c-0.007-0.004-0.01-0.01-0.01-0.018C10.965,6.78,10.968,6.786,10.968,6.794z"/>
	<path fill="#9000FF" d="M10.993,6.832c-0.004-0.005-0.007-0.01-0.011-0.014C10.989,6.821,10.993,6.825,10.993,6.832z"/>
	<path fill="#9000FF" d="M11.016,6.87c-0.003-0.004-0.006-0.009-0.009-0.013C11.014,6.859,11.017,6.863,11.016,6.87z"/>
	<path fill="#9000FF" d="M11.032,6.896c-0.003-0.005-0.007-0.011-0.01-0.016C11.028,6.883,11.031,6.889,11.032,6.896z"/>
	<path fill="#9000FF" d="M11.041,6.908c-0.003-0.004-0.006-0.007-0.009-0.011C11.038,6.899,11.042,6.902,11.041,6.908z"/>
	<path fill="#9000FF" d="M11.056,6.934c-0.003-0.005-0.006-0.01-0.009-0.015C11.053,6.922,11.056,6.927,11.056,6.934z"/>
	<path fill="#9000FF" d="M11.07,6.96c-0.007-0.004-0.01-0.01-0.011-0.018C11.067,6.946,11.07,6.952,11.07,6.96z"/>
	<path fill="#9000FF" d="M11.08,6.972c-0.003-0.004-0.006-0.008-0.009-0.011C11.076,6.962,11.08,6.966,11.08,6.972z"/>
	<path fill="#9000FF" d="M11.096,6.998c-0.007-0.004-0.01-0.01-0.01-0.018C11.092,6.984,11.096,6.99,11.096,6.998z"/>
	<path fill="#9000FF" d="M11.119,7.036c-0.003-0.004-0.006-0.009-0.009-0.013C11.116,7.025,11.119,7.029,11.119,7.036z"/>
	<path fill="#9000FF" d="M11.135,7.062c-0.007-0.004-0.011-0.01-0.012-0.018C11.131,7.047,11.135,7.053,11.135,7.062z"/>
	<path fill="#9000FF" d="M11.144,7.074c-0.003-0.004-0.006-0.009-0.009-0.013C11.141,7.064,11.144,7.068,11.144,7.074z"/>
	<path fill="#9000FF" d="M11.158,7.1c-0.003-0.005-0.006-0.01-0.009-0.015C11.155,7.088,11.158,7.093,11.158,7.1z"/>
	<path fill="#9000FF" d="M11.175,7.125c-0.008-0.003-0.012-0.009-0.012-0.017C11.17,7.111,11.174,7.117,11.175,7.125z"/>
	<path fill="#9000FF" d="M11.183,7.138c-0.003-0.005-0.006-0.009-0.009-0.014C11.181,7.126,11.184,7.131,11.183,7.138z"/>
	<path fill="#9000FF" d="M10.944,6.755c-0.007-0.004-0.011-0.009-0.012-0.018C10.939,6.741,10.943,6.747,10.944,6.755z"/>
	<path fill="#D400FF" d="M19.141,2.554C19.134,2.55,19.13,2.545,19.13,2.537C19.138,2.54,19.141,2.546,19.141,2.554z"/>
	<path fill="#D400FF" d="M19.151,2.566c-0.003-0.004-0.007-0.008-0.01-0.013C19.148,2.555,19.152,2.559,19.151,2.566z"/>
	<path fill="#D400FF" d="M19.166,2.593c-0.007-0.004-0.01-0.01-0.01-0.017C19.163,2.579,19.166,2.585,19.166,2.593z"/>
	<path fill="#D400FF" d="M19.19,2.631c-0.003-0.005-0.007-0.009-0.01-0.014C19.187,2.619,19.191,2.624,19.19,2.631z"/>
	<path fill="#D400FF" d="M19.214,2.669c-0.003-0.004-0.006-0.008-0.009-0.013C19.212,2.658,19.215,2.662,19.214,2.669z"/>
	<path fill="#D400FF" d="M19.229,2.695c-0.006-0.003-0.01-0.009-0.01-0.016C19.226,2.682,19.229,2.688,19.229,2.695z"/>
	<path fill="#D400FF" d="M19.239,2.707C19.236,2.703,19.233,2.7,19.23,2.696C19.236,2.697,19.24,2.7,19.239,2.707z"/>
	<path fill="#D400FF" d="M19.254,2.733c-0.006-0.003-0.009-0.008-0.009-0.015C19.251,2.72,19.254,2.725,19.254,2.733z"/>
	<path fill="#D400FF" d="M19.268,2.759c-0.007-0.004-0.01-0.01-0.01-0.017C19.265,2.745,19.268,2.751,19.268,2.759z"/>
	<path fill="#D400FF" d="M19.277,2.771c-0.003-0.004-0.006-0.008-0.009-0.011C19.274,2.761,19.278,2.765,19.277,2.771z"/>
	<path fill="#A300FF" d="M14.62,7.635c-0.003,0.005-0.007,0.01-0.01,0.015C14.61,7.643,14.613,7.638,14.62,7.635z"/>
	<path fill="#D400FF" d="M19.293,2.797c-0.007-0.004-0.01-0.009-0.01-0.017C19.291,2.783,19.294,2.789,19.293,2.797z"/>
	<path fill="#A100FF" d="M15.99,7.663c0.006,0.005,0.009,0.011,0.008,0.018C15.992,7.677,15.989,7.67,15.99,7.663z"/>
	<path fill="#D400FF" d="M19.317,2.835c-0.003-0.004-0.006-0.009-0.009-0.013C19.314,2.824,19.317,2.828,19.317,2.835z"/>
	<path fill="#D400FF" d="M19.333,2.86c-0.007-0.004-0.011-0.01-0.011-0.018C19.33,2.846,19.333,2.852,19.333,2.86z"/>
	<path fill="#CE00FF" d="M12.014,2.883c0,0.007-0.003,0.012-0.01,0.016C12.004,2.891,12.008,2.886,12.014,2.883z"/>
	<path fill="#D400FF" d="M19.356,2.899c-0.006-0.003-0.009-0.008-0.009-0.014C19.354,2.887,19.356,2.891,19.356,2.899z"/>
	<path fill="#A100FF" d="M16.026,7.751c0.007,0.004,0.01,0.011,0.011,0.019C16.029,7.766,16.026,7.76,16.026,7.751z"/>
	<path fill="#CE00FF" d="M12.001,2.906c0,0.008-0.003,0.014-0.01,0.018C11.99,2.916,11.993,2.91,12.001,2.906z"/>
	<path fill="#CE00FF" d="M11.976,2.947c0,0.007-0.004,0.012-0.011,0.015C11.965,2.955,11.968,2.95,11.976,2.947z"/>
	<path fill="#CE00FF" d="M11.951,2.987c0,0.007-0.003,0.011-0.009,0.014C11.941,2.994,11.944,2.989,11.951,2.987z"/>
	<path fill="#CE00FF" d="M11.938,3.01c0,0.008-0.004,0.013-0.012,0.016C11.926,3.018,11.93,3.013,11.938,3.01z"/>
	<path fill="#A100FF" d="M16.068,7.842c0.003,0.004,0.006,0.007,0.009,0.011C16.071,7.851,16.068,7.848,16.068,7.842z"/>
	<path fill="#A300FF" d="M15.363,7.87c0-0.007,0.002-0.012,0.008-0.016C15.372,7.861,15.369,7.867,15.363,7.87z"/>
	<path fill="#A100FF" d="M16.077,7.853c0.007,0.004,0.01,0.01,0.011,0.018C16.081,7.867,16.078,7.861,16.077,7.853z"/>
	<path fill="#A300FF" d="M15.35,7.895c0.003-0.005,0.006-0.01,0.009-0.015C15.359,7.887,15.356,7.892,15.35,7.895z"/>
	<path fill="#A100FF" d="M16.092,7.88c0.003,0.005,0.006,0.011,0.009,0.016C16.094,7.892,16.091,7.887,16.092,7.88z"/>
	<path fill="#CE00FF" d="M11.926,3.026c-0.003,0.004-0.006,0.009-0.009,0.013C11.916,3.032,11.919,3.027,11.926,3.026z"/>
	<path fill="#A300FF" d="M15.337,7.921c0.003-0.005,0.006-0.01,0.009-0.016C15.346,7.912,15.344,7.918,15.337,7.921z"/>
	<path fill="#A100FF" d="M16.105,7.905c0.003,0.004,0.006,0.009,0.009,0.013C16.108,7.916,16.105,7.912,16.105,7.905z"/>
	<path fill="#A100FF" d="M16.114,7.918c0.007,0.003,0.011,0.009,0.012,0.017C16.119,7.931,16.115,7.926,16.114,7.918z"/>
	<path fill="#A300FF" d="M15.325,7.947c0.003-0.005,0.006-0.011,0.009-0.016C15.334,7.938,15.331,7.943,15.325,7.947z"/>
	<path fill="#A100FF" d="M16.131,7.944c0.003,0.004,0.006,0.009,0.009,0.013C16.134,7.954,16.13,7.95,16.131,7.944z"/>
	<path fill="#A300FF" d="M15.311,7.969c0.003-0.004,0.006-0.009,0.01-0.013C15.321,7.963,15.317,7.967,15.311,7.969z"/>
	<path fill="#A100FF" d="M16.14,7.956c0.007,0.004,0.011,0.01,0.012,0.018C16.144,7.971,16.14,7.964,16.14,7.956z"/>
	<path fill="#A300FF" d="M15.299,7.987c0-0.008,0.004-0.014,0.011-0.018C15.31,7.977,15.307,7.983,15.299,7.987z"/>
	<path fill="#A100FF" d="M16.156,7.982c0.003,0.004,0.007,0.008,0.01,0.012C16.159,7.992,16.155,7.989,16.156,7.982z"/>
	<path fill="#A300FF" d="M15.286,8.01c0-0.007,0.003-0.012,0.01-0.015C15.296,8.002,15.293,8.007,15.286,8.01z"/>
	<path fill="#A100FF" d="M16.166,7.994c0.004,0.005,0.008,0.01,0.011,0.014C16.171,8.006,16.168,8.001,16.166,7.994z"/>
	<path fill="#A100FF" d="M16.177,8.008c0.008,0.003,0.012,0.01,0.012,0.018C16.182,8.022,16.178,8.016,16.177,8.008z"/>
	<path fill="#A300FF" d="M15.272,8.031c0.003-0.004,0.006-0.007,0.009-0.011C15.281,8.027,15.278,8.03,15.272,8.031z"/>
	<path fill="#A300FF" d="M15.26,8.046c0.004-0.004,0.008-0.009,0.011-0.013C15.27,8.039,15.266,8.043,15.26,8.046z"/>
	<path fill="#A100FF" d="M16.194,8.033c0.003,0.004,0.007,0.008,0.01,0.011C16.198,8.044,16.194,8.04,16.194,8.033z"/>
	<path fill="#A300FF" d="M15.248,8.062c0.001-0.008,0.005-0.013,0.012-0.017C15.259,8.053,15.255,8.059,15.248,8.062z"/>
	<path fill="#A100FF" d="M16.205,8.045c0.004,0.004,0.008,0.008,0.012,0.013C16.21,8.056,16.206,8.052,16.205,8.045z"/>
	<path fill="#A100FF" d="M16.217,8.058c0.004,0.005,0.008,0.009,0.012,0.014C16.222,8.07,16.218,8.065,16.217,8.058z"/>
	<path fill="#6F00FF" d="M11.771,8.083c-0.003-0.005-0.006-0.01-0.009-0.014C11.768,8.071,11.771,8.076,11.771,8.083z"/>
	<path fill="#A300FF" d="M15.233,8.082c0.003-0.004,0.006-0.007,0.009-0.011C15.243,8.078,15.239,8.081,15.233,8.082z"/>
	<path fill="#A100FF" d="M16.228,8.071c0.007,0.003,0.012,0.008,0.013,0.016C16.234,8.085,16.229,8.079,16.228,8.071z"/>
	<path fill="#A300FF" d="M15.221,8.096c0.004-0.004,0.008-0.008,0.012-0.013C15.232,8.091,15.228,8.095,15.221,8.096z"/>
	<path fill="#6F00FF" d="M11.785,8.109c-0.007-0.004-0.01-0.009-0.01-0.017C11.782,8.096,11.785,8.101,11.785,8.109z"/>
	<path fill="#A300FF" d="M15.209,8.11c0.004-0.004,0.008-0.009,0.012-0.013C15.219,8.103,15.215,8.108,15.209,8.11z"/>
	<path fill="#6F00FF" d="M11.795,8.121c-0.003-0.004-0.006-0.007-0.009-0.011C11.792,8.111,11.795,8.115,11.795,8.121z"/>
	<path fill="#A300FF" d="M15.197,8.124c0.001-0.007,0.006-0.012,0.012-0.014C15.208,8.117,15.204,8.122,15.197,8.124z"/>
	<path fill="#A300FF" d="M15.184,8.137c0.001-0.008,0.006-0.012,0.013-0.014C15.196,8.13,15.192,8.135,15.184,8.137z"/>
	<path fill="#6F00FF" d="M11.811,8.148c-0.006-0.004-0.01-0.009-0.01-0.017C11.807,8.134,11.811,8.14,11.811,8.148z"/>
	<path fill="#A300FF" d="M15.171,8.149c0.002-0.007,0.007-0.012,0.014-0.013C15.183,8.144,15.179,8.148,15.171,8.149z"/>
	<path fill="#CE00FF" d="M11.912,3.049c0,0.007-0.003,0.013-0.01,0.016C11.902,3.057,11.905,3.052,11.912,3.049z"/>
	<path fill="#A300FF" d="M15.158,8.162c0.002-0.007,0.006-0.012,0.014-0.014C15.17,8.156,15.166,8.16,15.158,8.162z"/>
	<path fill="#A100FF" d="M16.303,8.149c0.008,0.002,0.013,0.006,0.015,0.014C16.31,8.161,16.306,8.156,16.303,8.149z"/>
	<path fill="#A300FF" d="M15.145,8.175c0.002-0.007,0.006-0.012,0.014-0.014C15.158,8.169,15.153,8.173,15.145,8.175z"/>
	<path fill="#A100FF" d="M16.317,8.161c0.008,0.002,0.012,0.006,0.014,0.014C16.323,8.174,16.319,8.169,16.317,8.161z"/>
	<path fill="#6F00FF" d="M11.834,8.185c-0.003-0.004-0.006-0.008-0.009-0.012C11.831,8.175,11.834,8.179,11.834,8.185z"/>
	<path fill="#A300FF" d="M15.132,8.186c0.002-0.007,0.007-0.011,0.014-0.013C15.145,8.182,15.14,8.186,15.132,8.186z"/>
	<path fill="#A100FF" d="M16.33,8.174c0.007,0.001,0.012,0.005,0.015,0.012C16.337,8.186,16.332,8.182,16.33,8.174z"/>
	<path fill="#A300FF" d="M15.119,8.198c0.005-0.004,0.009-0.008,0.014-0.012C15.13,8.193,15.126,8.197,15.119,8.198z"/>
	<path fill="#A100FF" d="M16.344,8.186c0.005,0.004,0.009,0.008,0.014,0.011C16.351,8.197,16.346,8.193,16.344,8.186z"/>
	<path fill="#6F00FF" d="M11.85,8.211c-0.007-0.004-0.011-0.01-0.011-0.018C11.847,8.197,11.85,8.203,11.85,8.211z"/>
	<path fill="#A300FF" d="M15.106,8.21c0.004-0.004,0.008-0.008,0.013-0.012C15.117,8.206,15.113,8.21,15.106,8.21z"/>
	<path fill="#A100FF" d="M16.359,8.198c0.004,0.004,0.008,0.007,0.012,0.011C16.364,8.209,16.36,8.205,16.359,8.198z"/>
	<path fill="#6F00FF" d="M11.859,8.223c-0.003-0.004-0.006-0.008-0.009-0.012C11.856,8.213,11.859,8.217,11.859,8.223z"/>
	<path fill="#A300FF" d="M15.094,8.22c0.004-0.003,0.007-0.006,0.011-0.01C15.104,8.217,15.101,8.221,15.094,8.22z"/>
	<path fill="#A100FF" d="M16.373,8.211c0.003,0.003,0.006,0.006,0.01,0.008C16.376,8.219,16.374,8.216,16.373,8.211z"/>
	<path fill="#A300FF" d="M15.069,8.238c0.003-0.008,0.008-0.012,0.017-0.013C15.082,8.233,15.077,8.237,15.069,8.238z"/>
	<path fill="#A100FF" d="M16.393,8.225c0.007,0.001,0.012,0.005,0.015,0.012C16.401,8.236,16.396,8.232,16.393,8.225z"/>
	<path fill="#6F00FF" d="M11.873,8.249c-0.003-0.005-0.006-0.01-0.009-0.015C11.87,8.237,11.873,8.242,11.873,8.249z"/>
	<path fill="#A300FF" d="M15.055,8.249c0.005-0.004,0.01-0.008,0.014-0.011C15.067,8.245,15.063,8.249,15.055,8.249z"/>
	<path fill="#A100FF" d="M16.409,8.237c0.004,0.003,0.008,0.007,0.012,0.01C16.414,8.247,16.41,8.243,16.409,8.237z"/>
	<path fill="#A300FF" d="M15.043,8.258c0.004-0.003,0.008-0.006,0.011-0.009C15.053,8.255,15.049,8.259,15.043,8.258z"/>
	<path fill="#CE00FF" d="M11.899,3.072c0,0.009-0.004,0.014-0.012,0.018C11.888,3.082,11.891,3.076,11.899,3.072z"/>
	<path fill="#A300FF" d="M15.017,8.275c0.003-0.007,0.009-0.01,0.016-0.011C15.03,8.27,15.024,8.274,15.017,8.275z"/>
	<path fill="#A100FF" d="M16.446,8.263c0.004,0.003,0.009,0.006,0.013,0.01C16.452,8.273,16.448,8.269,16.446,8.263z"/>
	<path fill="#6F00FF" d="M11.898,8.287c-0.003-0.005-0.006-0.01-0.009-0.014C11.895,8.276,11.899,8.28,11.898,8.287z"/>
	<path fill="#A300FF" d="M15.005,8.284c0.004-0.003,0.008-0.006,0.012-0.009C15.015,8.281,15.011,8.284,15.005,8.284z"/>
	<path fill="#A100FF" d="M16.467,8.277c0.008,0,0.014,0.004,0.018,0.01C16.477,8.287,16.471,8.284,16.467,8.277z"/>
	<path fill="#A300FF" d="M14.979,8.298c0.005-0.003,0.01-0.006,0.014-0.009C14.991,8.295,14.986,8.298,14.979,8.298z"/>
	<path fill="#A100FF" d="M16.486,8.288c0.004,0.003,0.008,0.006,0.011,0.008C16.491,8.296,16.488,8.293,16.486,8.288z"/>
	<path fill="#6F00FF" d="M11.913,8.314c-0.006-0.004-0.01-0.009-0.01-0.017C11.91,8.3,11.913,8.306,11.913,8.314z"/>
	<path fill="#A300FF" d="M14.953,8.312c0.004-0.007,0.01-0.01,0.018-0.01C14.967,8.309,14.961,8.313,14.953,8.312z"/>
	<path fill="#A100FF" d="M16.509,8.302c0.005,0.003,0.01,0.006,0.014,0.009C16.516,8.311,16.511,8.308,16.509,8.302z"/>
	<path fill="#CE00FF" d="M11.888,3.089c-0.001,0.007-0.004,0.011-0.01,0.014C11.877,3.095,11.88,3.091,11.888,3.089z"/>
	<path fill="#A300FF" d="M14.927,8.326c0.004-0.007,0.01-0.01,0.018-0.01C14.942,8.323,14.936,8.326,14.927,8.326z"/>
	<path fill="#A100FF" d="M16.533,8.315c0.005,0.003,0.01,0.006,0.015,0.009C16.541,8.324,16.536,8.321,16.533,8.315z"/>
	<path fill="#CE00FF" d="M11.873,3.111c0,0.008-0.003,0.014-0.01,0.018C11.863,3.121,11.866,3.114,11.873,3.111z"/>
	<path fill="#A100FF" d="M16.558,8.328c0.005,0.003,0.011,0.006,0.016,0.008C16.567,8.336,16.562,8.334,16.558,8.328z"/>
	<path fill="#6F00FF" d="M11.938,8.352c-0.003-0.005-0.007-0.01-0.01-0.015C11.935,8.339,11.938,8.345,11.938,8.352z"/>
	<path fill="#A300FF" d="M14.877,8.35c0.004-0.007,0.011-0.009,0.018-0.009C14.891,8.348,14.885,8.351,14.877,8.35z"/>
	<path fill="#A100FF" d="M16.584,8.34c0.005,0.003,0.01,0.006,0.015,0.009C16.592,8.35,16.587,8.347,16.584,8.34z"/>
	<path fill="#CE00FF" d="M11.849,3.153c-0.001,0.007-0.004,0.012-0.011,0.015C11.838,3.16,11.842,3.155,11.849,3.153z"/>
	<path fill="#CE00FF" d="M11.824,3.191c0,0.006-0.003,0.011-0.009,0.014C11.814,3.198,11.817,3.193,11.824,3.191z"/>
	<path fill="#A300FF" d="M14.851,8.361c0.005-0.003,0.011-0.005,0.016-0.008C14.864,8.359,14.858,8.362,14.851,8.361z"/>
	<path fill="#A100FF" d="M16.611,8.353c0.005,0.002,0.009,0.005,0.014,0.007C16.618,8.361,16.614,8.358,16.611,8.353z"/>
	<path fill="#CE00FF" d="M11.81,3.215c0,0.008-0.004,0.013-0.011,0.016C11.8,3.223,11.803,3.218,11.81,3.215z"/>
	<path fill="#CE00FF" d="M11.799,3.231c-0.003,0.004-0.006,0.008-0.01,0.012C11.789,3.236,11.793,3.233,11.799,3.231z"/>
	<path fill="#6F00FF" d="M11.961,8.389c-0.003-0.004-0.006-0.008-0.009-0.012C11.958,8.379,11.961,8.383,11.961,8.389z"/>
	<path fill="#CE00FF" d="M11.785,3.253c0,0.007-0.003,0.012-0.01,0.016C11.775,3.261,11.778,3.256,11.785,3.253z"/>
	<path fill="#B500FF" d="M11.172,4.238c-0.003,0.005-0.007,0.009-0.01,0.014C11.162,4.245,11.165,4.24,11.172,4.238z"/>
	<path fill="#6F00FF" d="M11.977,8.416c-0.007-0.003-0.011-0.009-0.011-0.016C11.973,8.403,11.977,8.408,11.977,8.416z"/>
	<path fill="#B500FF" d="M11.158,4.26c0,0.008-0.003,0.014-0.01,0.018C11.148,4.27,11.151,4.264,11.158,4.26z"/>
	<path fill="#6F00FF" d="M11.986,8.428c-0.003-0.004-0.006-0.008-0.009-0.012C11.984,8.418,11.987,8.421,11.986,8.428z"/>
	<path fill="#6F00FF" d="M12,8.453c-0.003-0.005-0.006-0.01-0.009-0.015C11.998,8.442,12.001,8.446,12,8.453z"/>
	<path fill="#6F00FF" d="M12.016,8.479c-0.007-0.003-0.011-0.009-0.012-0.017C12.012,8.466,12.016,8.471,12.016,8.479z"/>
	<path fill="#6F00FF" d="M12.026,8.492c-0.003-0.004-0.006-0.009-0.01-0.013C12.023,8.481,12.026,8.485,12.026,8.492z"/>
	<path fill="#6F00FF" d="M12.04,8.518c-0.006-0.004-0.01-0.009-0.01-0.017C12.037,8.505,12.04,8.51,12.04,8.518z"/>
	<path fill="#B500FF" d="M11.134,4.302c-0.004,0.005-0.007,0.01-0.011,0.015C11.123,4.309,11.127,4.304,11.134,4.302z"/>
	<path fill="#6F00FF" d="M12.065,8.556c-0.003-0.004-0.007-0.009-0.01-0.013C12.061,8.544,12.065,8.548,12.065,8.556z"/>
	<path fill="#6F00FF" d="M12.08,8.582c-0.007-0.004-0.011-0.01-0.011-0.018C12.076,8.567,12.08,8.573,12.08,8.582z"/>
	<path fill="#B500FF" d="M11.109,4.341C11.106,4.345,11.103,4.35,11.1,4.354C11.099,4.347,11.102,4.343,11.109,4.341z"/>
	<path fill="#A100FF" d="M16.429,8.251c0.008,0,0.014,0.004,0.018,0.011C16.439,8.262,16.432,8.259,16.429,8.251z"/>
	<path fill="#5B00FF" d="M12.5,9.258c-0.003-0.006-0.007-0.011-0.01-0.017C12.497,9.245,12.5,9.251,12.5,9.258z"/>
	<path fill="#5B00FF" d="M12.51,9.27c-0.003-0.003-0.006-0.007-0.009-0.01C12.506,9.261,12.51,9.264,12.51,9.27z"/>
	<path fill="#5B00FF" d="M12.525,9.296c-0.003-0.005-0.006-0.01-0.01-0.016C12.522,9.284,12.525,9.289,12.525,9.296z"/>
	<path fill="#5B00FF" d="M12.539,9.322c-0.007-0.004-0.011-0.01-0.011-0.018C12.536,9.308,12.539,9.314,12.539,9.322z"/>
	<path fill="#5B00FF" d="M12.548,9.334c-0.003-0.004-0.006-0.008-0.009-0.012C12.545,9.324,12.548,9.328,12.548,9.334z"/>
	<path fill="#5B00FF" d="M12.565,9.36c-0.007-0.004-0.01-0.01-0.011-0.017C12.561,9.347,12.565,9.352,12.565,9.36z"/>
	<path fill="#5B00FF" d="M12.573,9.372c-0.003-0.004-0.005-0.008-0.008-0.011C12.571,9.363,12.574,9.366,12.573,9.372z"/>
	<path fill="#5B00FF" d="M12.588,9.398c-0.003-0.005-0.006-0.009-0.009-0.014C12.585,9.387,12.588,9.391,12.588,9.398z"/>
	<path fill="#5B00FF" d="M12.613,9.436c-0.003-0.005-0.006-0.009-0.009-0.014C12.61,9.425,12.613,9.43,12.613,9.436z"/>
	<path fill="#5B00FF" d="M12.627,9.462c-0.003-0.005-0.006-0.011-0.01-0.016C12.624,9.45,12.627,9.455,12.627,9.462z"/>
	<path fill="#5B00FF" d="M12.652,9.5c-0.003-0.005-0.007-0.01-0.01-0.014C12.649,9.489,12.653,9.493,12.652,9.5z"/>
	<path fill="#5B00FF" d="M12.667,9.526c-0.007-0.004-0.01-0.01-0.011-0.018C12.663,9.512,12.667,9.518,12.667,9.526z"/>
	<path fill="#5B00FF" d="M12.676,9.538c-0.003-0.004-0.006-0.008-0.008-0.012C12.673,9.529,12.676,9.532,12.676,9.538z"/>
	<path fill="#5B00FF" d="M12.692,9.565c-0.004-0.005-0.007-0.01-0.011-0.016C12.688,9.552,12.692,9.557,12.692,9.565z"/>
	<path fill="#5B00FF" d="M12.701,9.577c-0.003-0.004-0.006-0.007-0.008-0.011C12.698,9.567,12.701,9.571,12.701,9.577z"/>
	<path fill="#5B00FF" d="M12.715,9.603c-0.003-0.005-0.006-0.009-0.009-0.014C12.712,9.591,12.716,9.596,12.715,9.603z"/>
	<path fill="#5B00FF" d="M12.732,9.628c-0.007-0.003-0.011-0.009-0.012-0.016C12.727,9.615,12.731,9.621,12.732,9.628z"/>
	<path fill="#5B00FF" d="M12.741,9.641c-0.003-0.004-0.006-0.008-0.009-0.013C12.738,9.63,12.741,9.634,12.741,9.641z"/>
	<path fill="#5B00FF" d="M12.755,9.667c-0.003-0.005-0.006-0.01-0.01-0.016C12.752,9.654,12.755,9.659,12.755,9.667z"/>
	<path fill="#5B00FF" d="M12.77,9.692c-0.008-0.004-0.011-0.01-0.012-0.018C12.765,9.678,12.769,9.684,12.77,9.692z"/>
	<path fill="#5B00FF" d="M12.78,9.705c-0.003-0.004-0.007-0.009-0.01-0.013C12.777,9.693,12.78,9.698,12.78,9.705z"/>
	<path fill="#5B00FF" d="M12.795,9.731c-0.007-0.004-0.01-0.01-0.011-0.018C12.791,9.717,12.794,9.723,12.795,9.731z"/>
	<path fill="#5B00FF" d="M12.803,9.743c-0.003-0.004-0.006-0.008-0.008-0.011C12.8,9.733,12.803,9.737,12.803,9.743z"/>
	<path fill="#5B00FF" d="M12.819,9.769c-0.004-0.005-0.007-0.01-0.011-0.015C12.815,9.757,12.819,9.762,12.819,9.769z"/>
	<path fill="#5B00FF" d="M12.828,9.781c-0.003-0.003-0.006-0.007-0.008-0.01C12.826,9.772,12.829,9.775,12.828,9.781z"/>
	<path fill="#5B00FF" d="M12.843,9.807c-0.003-0.005-0.006-0.009-0.009-0.014C12.84,9.796,12.843,9.8,12.843,9.807z"/>
	<path fill="#5B00FF" d="M12.858,9.833c-0.006-0.004-0.01-0.009-0.011-0.017C12.854,9.82,12.857,9.826,12.858,9.833z"/>
	<path fill="#5B00FF" d="M12.868,9.845c-0.003-0.004-0.006-0.008-0.009-0.011C12.864,9.835,12.868,9.839,12.868,9.845z"/>
	<path fill="#5B00FF" d="M12.882,9.871c-0.003-0.005-0.006-0.01-0.01-0.016C12.879,9.859,12.882,9.864,12.882,9.871z"/>
	<path fill="#5B00FF" d="M12.897,9.897c-0.007-0.004-0.011-0.01-0.011-0.018C12.893,9.883,12.897,9.889,12.897,9.897z"/>
	<path fill="#5B00FF" d="M12.906,9.909c-0.003-0.004-0.006-0.008-0.009-0.012C12.903,9.899,12.906,9.903,12.906,9.909z"/>
	<path fill="#5B00FF" d="M12.922,9.935c-0.007-0.004-0.01-0.01-0.011-0.018C12.918,9.921,12.922,9.927,12.922,9.935z"/>
	<path fill="#B500FF" d="M11.095,4.364c-0.001,0.007-0.004,0.013-0.011,0.016C11.085,4.373,11.088,4.367,11.095,4.364z"/>
	<path fill="#5B00FF" d="M12.945,9.973c-0.003-0.004-0.006-0.009-0.009-0.013C12.942,9.962,12.945,9.966,12.945,9.973z"/>
	<path fill="#5B00FF" d="M12.962,9.999c-0.008-0.004-0.011-0.01-0.012-0.018C12.958,9.984,12.961,9.99,12.962,9.999z"/>
	<path fill="#5B00FF" d="M12.97,10.011c-0.003-0.004-0.006-0.009-0.009-0.013C12.967,10,12.971,10.005,12.97,10.011z"/>
	<path fill="#B500FF" d="M11.084,4.381c-0.003,0.004-0.006,0.008-0.009,0.012C11.074,4.386,11.077,4.382,11.084,4.381z"/>
	<path fill="#5100E3" d="M13.282,10.509c-0.008-0.003-0.012-0.008-0.013-0.017C13.277,10.495,13.281,10.501,13.282,10.509z"/>
	<path fill="#5B00FF" d="M12.485,9.232c-0.003-0.005-0.006-0.009-0.009-0.014C12.483,9.221,12.486,9.225,12.485,9.232z"/>
	<path fill="#7B00FF" d="M21.347,10.194c0.042-0.072,0.077-0.132,0.112-0.192c0.083-0.141,0.166-0.282,0.249-0.423
		c0.096-0.163,0.192-0.326,0.288-0.489c0.097-0.165,0.194-0.329,0.292-0.494c0.045-0.077,0.091-0.154,0.135-0.231
		c0.011-0.019,0.025-0.027,0.046-0.025c0.017,0.001,0.034,0,0.051,0c2.004,0,4.009,0,6.013,0c0.032,0,0.064-0.006,0.095,0.008
		c0.004,0.002,0.009,0.002,0.012,0.001c0.071-0.019,0.144-0.008,0.215-0.008c0.298-0.002,0.596-0.001,0.894-0.001
		c0.023,0,0.046,0,0.069,0c0.006,0.027-0.009,0.045-0.018,0.063c-0.109,0.209-0.219,0.418-0.329,0.627
		c-0.082,0.156-0.162,0.313-0.244,0.47c-0.105,0.202-0.211,0.403-0.315,0.605c-0.013,0.025-0.03,0.031-0.056,0.031
		c-0.151,0-0.302,0.002-0.453,0.003c-0.319,0.002-0.638,0.004-0.957,0.007c-0.513,0.004-1.026,0.008-1.538,0.013
		c-0.491,0.004-0.983,0.008-1.474,0.012c-0.543,0.004-1.085,0.009-1.628,0.014c-0.466,0.004-0.932,0.007-1.398,0.011
		C21.392,10.194,21.375,10.194,21.347,10.194z"/>
	<path fill="#B700FF" d="M29.884,4.84c-0.084,0-0.164,0.001-0.246,0c-0.002-0.015-0.003-0.025-0.004-0.036
		c-0.004-0.026-0.006-0.028-0.031-0.029c-0.025,0-0.028,0.002-0.031,0.028c-0.001,0.004,0,0.008-0.001,0.013
		c0,0.015-0.007,0.024-0.023,0.024c-0.006,0-0.013,0-0.019,0c-0.017,0-0.034,0-0.051,0c-2.286,0-4.571,0-6.857,0
		c-0.102,0-0.077,0.014-0.129-0.072c-0.114-0.189-0.229-0.378-0.344-0.567c-0.127-0.209-0.254-0.418-0.38-0.627
		c-0.101-0.167-0.202-0.335-0.303-0.502c-0.001-0.002-0.003-0.003-0.004-0.005c-0.01-0.017-0.007-0.024,0.011-0.025
		c0.015,0,0.03,0,0.045,0c0.626-0.001,1.251-0.002,1.877-0.002c0.904-0.001,1.809-0.002,2.713-0.003
		c0.904-0.002,1.809-0.004,2.713-0.006c0.095,0,0.072-0.013,0.116,0.068c0.116,0.213,0.233,0.425,0.349,0.637
		c0.111,0.201,0.221,0.402,0.332,0.603c0.088,0.16,0.175,0.321,0.263,0.481C29.883,4.822,29.882,4.827,29.884,4.84z"/>
	<path fill="#7C00FF" d="M28.9,5.246c0.017-0.011,0.032-0.007,0.046-0.007c0.37,0,0.741,0,1.111,0c0.004,0,0.009,0,0.013,0
		c0.029-0.004,0.046,0.007,0.061,0.034c0.072,0.135,0.147,0.269,0.22,0.403c0.083,0.151,0.166,0.302,0.249,0.453
		c0.06,0.11,0.12,0.22,0.181,0.33c0.012,0.022,0.014,0.042,0.001,0.065c-0.08,0.15-0.159,0.301-0.238,0.451
		c-0.082,0.156-0.162,0.313-0.244,0.47c-0.067,0.128-0.134,0.256-0.201,0.384c-0.003,0.006-0.006,0.011-0.009,0.017
		c-0.017,0.032-0.024,0.073-0.055,0.091c-0.028,0.016-0.067,0.005-0.101,0.005c-0.111,0.001-0.221,0.001-0.332,0
		c-0.021,0-0.043,0.004-0.062-0.005c-0.011-0.016-0.002-0.034-0.01-0.05c-0.002-0.003-0.006-0.006-0.009-0.007
		c-0.007-0.002-0.012,0.001-0.016,0.006c-0.001,0.002-0.003,0.004-0.003,0.006c-0.002,0.015,0,0.033-0.008,0.043
		c-0.013,0.015-0.036,0.008-0.055,0.008c-0.164,0-0.328,0-0.492,0c-0.015,0-0.03,0-0.043,0c-0.012-0.016-0.001-0.026,0.005-0.037
		c0.055-0.094,0.11-0.187,0.165-0.281c0.082-0.139,0.164-0.278,0.246-0.417c0.098-0.167,0.197-0.333,0.295-0.5
		c0.019-0.033,0.038-0.067,0.059-0.099c0.018-0.027,0.015-0.05-0.002-0.076c-0.034-0.054-0.066-0.109-0.099-0.163
		c-0.101-0.167-0.202-0.335-0.304-0.502c-0.111-0.184-0.223-0.367-0.334-0.551C28.922,5.294,28.906,5.272,28.9,5.246z"/>
	<path fill="#CC00FF" d="M24.3,7.939c-0.006-0.014,0-0.023,0.006-0.032c0.147-0.249,0.293-0.498,0.441-0.747
		c0.109-0.185,0.219-0.369,0.329-0.554c0.014-0.024,0.027-0.048,0.04-0.073c-0.014-0.026-0.026-0.053-0.042-0.078
		c-0.099-0.164-0.198-0.327-0.298-0.49c-0.097-0.16-0.194-0.32-0.291-0.48c-0.045-0.074-0.09-0.149-0.135-0.224
		c-0.009-0.014-0.003-0.023,0.015-0.024c0.013,0,0.026,0,0.038,0c0.317,0,0.634,0,0.951,0c0.06,0,0.057-0.011,0.095,0.053
		c0.097,0.162,0.196,0.324,0.294,0.485c0.095,0.156,0.189,0.313,0.283,0.469c0.053,0.087,0.106,0.174,0.159,0.261
		c0.008,0.013,0.014,0.026,0.022,0.039c0.006,0.01,0.005,0.02-0.001,0.03c-0.019,0.033-0.038,0.066-0.057,0.099
		c-0.148,0.251-0.296,0.502-0.444,0.752c-0.09,0.152-0.179,0.304-0.269,0.456c-0.005,0.009-0.013,0.017-0.017,0.027
		c-0.011,0.025-0.03,0.031-0.057,0.031c-0.347-0.001-0.694,0-1.04,0C24.315,7.941,24.307,7.94,24.3,7.939z"/>
	<path fill="#9800FF" d="M28.105,6.545c-0.077-0.127-0.152-0.253-0.228-0.378c-0.096-0.158-0.192-0.316-0.288-0.474
		c-0.083-0.136-0.165-0.273-0.247-0.409c-0.005-0.009-0.011-0.018-0.015-0.028c-0.003-0.006,0.001-0.014,0.007-0.015
		c0.019-0.002,0.038-0.002,0.057-0.002c0.24,0,0.481,0,0.721,0c0.081,0,0.162,0.002,0.242-0.001c0.03-0.001,0.048,0.011,0.062,0.035
		c0.049,0.082,0.099,0.164,0.148,0.246c0.081,0.135,0.163,0.269,0.244,0.404c0.081,0.135,0.163,0.269,0.244,0.404
		c0.038,0.064,0.077,0.127,0.116,0.191c0.008,0.013,0.015,0.026,0.023,0.038c0.009,0.014,0.007,0.028-0.001,0.041
		c-0.02,0.033-0.038,0.066-0.058,0.099c-0.148,0.251-0.295,0.502-0.443,0.752c-0.088,0.15-0.177,0.3-0.266,0.45
		c-0.005,0.009-0.011,0.018-0.017,0.027c-0.008,0.011-0.018,0.018-0.032,0.017c-0.013-0.001-0.026,0-0.038,0
		c-0.33,0-0.659,0-0.989,0c-0.015,0-0.03,0-0.045-0.001c-0.009,0-0.015-0.01-0.01-0.018c0.029-0.05,0.057-0.099,0.086-0.149
		c0.1-0.17,0.201-0.34,0.302-0.51c0.095-0.161,0.191-0.322,0.286-0.483C28.013,6.703,28.059,6.624,28.105,6.545z"/>
	<path fill="#EC00FF" d="M22.675,7.941c0.026-0.044,0.044-0.077,0.064-0.11c0.125-0.212,0.251-0.424,0.376-0.636
		c0.096-0.163,0.192-0.326,0.288-0.489c0.037-0.062,0.073-0.125,0.111-0.186c0.014-0.022,0.017-0.04,0.002-0.064
		c-0.169-0.275-0.336-0.551-0.504-0.827c-0.074-0.122-0.147-0.244-0.221-0.365c-0.009-0.015-0.005-0.024,0.012-0.025
		c0.013,0,0.026,0,0.038,0c0.315,0,0.63,0,0.944,0c0.067,0,0.052-0.005,0.085,0.048c0.081,0.13,0.159,0.261,0.238,0.392
		c0.098,0.162,0.196,0.323,0.294,0.485c0.068,0.113,0.135,0.226,0.205,0.338c0.014,0.023,0.014,0.041,0,0.064
		c-0.055,0.091-0.108,0.183-0.162,0.274c-0.082,0.139-0.164,0.278-0.246,0.417c-0.08,0.135-0.159,0.271-0.239,0.406
		c-0.049,0.082-0.099,0.164-0.146,0.247c-0.014,0.024-0.03,0.031-0.056,0.03c-0.066-0.001-0.132,0-0.198,0c-0.27,0-0.54,0-0.81,0
		C22.729,7.941,22.708,7.941,22.675,7.941z"/>
	<path fill="#B000FF" d="M25.907,7.94c-0.007-0.012-0.002-0.02,0.003-0.027c0.108-0.183,0.217-0.365,0.325-0.548
		c0.111-0.188,0.222-0.377,0.333-0.566c0.04-0.068,0.079-0.136,0.121-0.202c0.017-0.027,0.016-0.049-0.001-0.076
		c-0.08-0.13-0.159-0.261-0.239-0.392c-0.08-0.133-0.161-0.265-0.241-0.398c-0.084-0.138-0.167-0.276-0.251-0.414
		c-0.013-0.021-0.031-0.041-0.033-0.067c0.024-0.02,0.052-0.009,0.078-0.01c0.249-0.001,0.498,0,0.747,0
		c0.011,0,0.021,0.001,0.032,0c0.028-0.002,0.047,0.006,0.062,0.033c0.036,0.065,0.077,0.127,0.116,0.191
		c0.1,0.165,0.201,0.33,0.301,0.496c0.097,0.16,0.193,0.32,0.289,0.481c0.005,0.009,0.012,0.018,0.017,0.027
		c0.059,0.103,0.059,0.061,0.002,0.162c-0.079,0.138-0.161,0.275-0.242,0.412c-0.101,0.17-0.201,0.34-0.302,0.51
		c-0.066,0.112-0.131,0.224-0.197,0.335c-0.003,0.006-0.007,0.011-0.009,0.017c-0.014,0.03-0.036,0.041-0.071,0.041
		c-0.155-0.002-0.311-0.001-0.466-0.001c-0.113,0-0.225,0-0.338,0C25.929,7.941,25.917,7.94,25.907,7.94z"/>
	<path fill="#8000FF" d="M10.09,10.218c-0.028,0-0.047,0-0.066,0c-0.366-0.002-0.732-0.004-1.098-0.007
		c-0.508-0.004-1.017-0.008-1.525-0.013c-0.521-0.004-1.042-0.009-1.564-0.013c-0.511-0.004-1.021-0.008-1.532-0.013
		c-0.519-0.004-1.038-0.008-1.557-0.013c-0.057,0-0.115-0.003-0.172-0.003c-0.025,0-0.039-0.01-0.05-0.031
		C2.492,10.06,2.457,9.994,2.423,9.928c-0.085-0.162-0.17-0.324-0.254-0.486c-0.081-0.155-0.16-0.309-0.241-0.464
		c-0.068-0.13-0.136-0.26-0.204-0.389C1.691,8.527,1.658,8.465,1.626,8.402C1.621,8.393,1.618,8.383,1.615,8.375
		C1.626,8.36,1.64,8.364,1.652,8.364c0.362,0,0.723,0,1.085-0.001c0.024,0,0.047,0.012,0.068,0.008
		c0.021-0.003,0.041-0.008,0.063-0.008c0.017,0,0.034,0,0.051,0c1.993,0,3.987,0,5.98,0c0.006,0,0.013,0,0.019,0
		c0.027,0.002,0.059-0.009,0.081,0.007c0.019,0.014,0.03,0.04,0.043,0.062C9.168,8.647,9.294,8.862,9.42,9.076
		c0.111,0.189,0.223,0.377,0.334,0.565C9.86,9.82,9.966,10,10.071,10.179C10.076,10.188,10.08,10.198,10.09,10.218z"/>
	<path fill="#BD00FF" d="M1.559,4.864C1.554,4.84,1.568,4.824,1.577,4.808c0.048-0.09,0.098-0.179,0.147-0.269
		C1.792,4.415,1.86,4.29,1.929,4.165c0.083-0.151,0.166-0.302,0.249-0.453c0.064-0.117,0.129-0.235,0.193-0.352
		c0.049-0.09,0.098-0.179,0.146-0.269c0.015-0.028,0.033-0.04,0.065-0.039C2.686,3.054,2.79,3.053,2.894,3.053
		c0.592,0.001,1.183,0.002,1.775,0.003c0.353,0.001,0.706,0.001,1.06,0.002C6.523,3.06,7.316,3.061,8.11,3.063
		c0.604,0.001,1.209,0.002,1.813,0.002c0.019,0,0.038,0,0.054,0C9.986,3.08,9.979,3.089,9.973,3.098
		C9.858,3.289,9.742,3.48,9.627,3.671C9.47,3.929,9.313,4.186,9.157,4.444C9.077,4.575,8.998,4.706,8.92,4.838
		C8.909,4.856,8.896,4.866,8.874,4.864c-0.015-0.001-0.03,0-0.045,0c-2.403,0-4.805,0-7.208,0C1.601,4.864,1.58,4.864,1.559,4.864z"
		/>
	<path fill="#7A00FF" d="M1.937,5.263c0.181,0,0.362,0,0.543,0c0.017,0,0.034,0,0.051,0.002C2.538,5.265,2.54,5.273,2.538,5.279
		C2.536,5.285,2.533,5.291,2.53,5.296C2.395,5.518,2.26,5.739,2.126,5.961c-0.121,0.2-0.242,0.4-0.364,0.6
		c-0.015,0.025-0.015,0.045,0,0.07C1.873,6.815,1.982,7,2.091,7.185c0.111,0.189,0.222,0.377,0.333,0.566
		c0.037,0.062,0.074,0.124,0.11,0.187C2.545,7.955,2.54,7.965,2.519,7.966c-0.015,0.001-0.03,0-0.045,0c-0.336,0-0.672,0-1.009,0
		c-0.081,0-0.062,0.007-0.097-0.057C1.3,7.781,1.235,7.652,1.168,7.524C1.087,7.367,1.005,7.211,0.923,7.055
		c-0.09-0.171-0.179-0.343-0.269-0.514c-0.01-0.019-0.01-0.035,0.001-0.054c0.125-0.225,0.249-0.45,0.372-0.676
		c0.092-0.168,0.184-0.336,0.275-0.503c0.004-0.007,0.008-0.015,0.012-0.023C1.322,5.271,1.333,5.263,1.35,5.263
		c0.015,0.001,0.03,0,0.045,0C1.575,5.263,1.756,5.263,1.937,5.263C1.937,5.263,1.937,5.263,1.937,5.263z"/>
	<path fill="#CC00FF" d="M7.14,7.966c-0.02,0-0.039,0-0.058,0c-0.328,0-0.655,0-0.983,0c-0.006,0-0.013-0.001-0.019,0
		C6.049,7.97,6.03,7.956,6.015,7.928c-0.069-0.12-0.14-0.238-0.21-0.357C5.707,7.407,5.61,7.242,5.513,7.078
		C5.421,6.922,5.329,6.767,5.237,6.611c-0.011-0.019-0.011-0.034,0-0.053c0.078-0.127,0.155-0.254,0.232-0.381
		C5.55,6.043,5.632,5.909,5.713,5.774c0.095-0.156,0.189-0.313,0.283-0.469c0.004-0.007,0.01-0.014,0.014-0.021
		c0.008-0.014,0.02-0.021,0.037-0.02c0.011,0.001,0.021,0,0.032,0c0.321,0,0.642,0,0.964,0c0.016,0,0.033,0.001,0.047,0.002
		c0.005,0.021-0.007,0.032-0.014,0.045C6.963,5.496,6.849,5.683,6.736,5.87c-0.111,0.183-0.223,0.367-0.334,0.55
		C6.379,6.459,6.356,6.497,6.333,6.536C6.324,6.55,6.325,6.563,6.334,6.577c0.038,0.064,0.075,0.128,0.113,0.192
		C6.53,6.91,6.613,7.051,6.696,7.192c0.098,0.166,0.197,0.333,0.295,0.499C7.038,7.77,7.084,7.848,7.131,7.927
		C7.136,7.936,7.142,7.945,7.14,7.966z"/>
	<path fill="#9900FF" d="M3.595,7.966c-0.168,0-0.336-0.001-0.504,0.001C3.053,7.967,3.033,7.954,3.015,7.923
		C2.952,7.814,2.888,7.707,2.824,7.599C2.739,7.454,2.654,7.31,2.568,7.165c-0.08-0.136-0.159-0.271-0.239-0.407
		C2.304,6.714,2.278,6.67,2.251,6.627c-0.013-0.02-0.012-0.038,0.001-0.058C2.3,6.491,2.347,6.412,2.394,6.334
		C2.477,6.198,2.56,6.062,2.642,5.925C2.725,5.789,2.808,5.653,2.89,5.516C2.927,5.454,2.965,5.392,3.002,5.33
		C3.01,5.318,3.019,5.306,3.025,5.292c0.012-0.025,0.031-0.03,0.057-0.03c0.332,0.001,0.664,0,0.996,0c0.008,0,0.017,0,0.025,0.002
		C4.11,5.267,4.113,5.274,4.111,5.28c-0.004,0.01-0.008,0.02-0.014,0.028C3.935,5.576,3.773,5.843,3.611,6.11
		C3.53,6.245,3.447,6.378,3.367,6.514C3.327,6.58,3.328,6.559,3.367,6.627c0.132,0.226,0.265,0.45,0.398,0.676
		c0.123,0.209,0.246,0.417,0.37,0.626c0.004,0.007,0.009,0.015,0.011,0.023c0.002,0.006-0.001,0.013-0.008,0.014
		C4.121,7.965,4.104,7.966,4.087,7.966C3.923,7.966,3.759,7.966,3.595,7.966C3.595,7.966,3.595,7.966,3.595,7.966z"/>
	<path fill="#EB00FF" d="M8.656,5.266C8.65,5.28,8.648,5.288,8.644,5.295C8.569,5.418,8.494,5.542,8.419,5.665
		C8.338,5.8,8.255,5.934,8.174,6.068C8.09,6.206,8.008,6.345,7.923,6.482c-0.013,0.021-0.012,0.036,0,0.057
		c0.121,0.202,0.241,0.405,0.361,0.608c0.111,0.188,0.222,0.377,0.333,0.566C8.655,7.78,8.695,7.845,8.734,7.911
		c0.008,0.014,0.015,0.03,0.021,0.043C8.748,7.97,8.736,7.965,8.726,7.965c-0.347,0-0.693,0-1.04,0c-0.004,0-0.009,0-0.013,0
		C7.652,7.968,7.638,7.958,7.627,7.939C7.585,7.866,7.541,7.793,7.498,7.72C7.417,7.583,7.336,7.445,7.256,7.308
		C7.173,7.167,7.089,7.026,7.006,6.886C6.954,6.798,6.902,6.71,6.85,6.622c-0.003-0.005-0.007-0.011-0.01-0.016
		c-0.028-0.054-0.033-0.04,0.002-0.097c0.17-0.282,0.341-0.563,0.512-0.844c0.075-0.123,0.15-0.247,0.224-0.371
		c0.014-0.023,0.03-0.031,0.056-0.031c0.332,0.001,0.664,0,0.995,0C8.636,5.263,8.642,5.264,8.656,5.266z"/>
	<path fill="#B100FF" d="M5.534,7.96C5.523,7.97,5.51,7.966,5.498,7.966c-0.268,0-0.536,0-0.804,0c-0.004,0-0.009,0-0.013,0
		C4.66,7.968,4.645,7.961,4.634,7.941C4.612,7.902,4.588,7.865,4.565,7.826C4.389,7.528,4.213,7.23,4.037,6.931
		c-0.06-0.103-0.121-0.205-0.181-0.308C3.854,6.622,3.853,6.62,3.852,6.618c-0.028-0.053-0.03-0.04,0-0.092
		c0.048-0.081,0.096-0.16,0.145-0.24C4.079,6.152,4.16,6.017,4.242,5.883C4.361,5.686,4.48,5.49,4.598,5.293
		c0.012-0.02,0.025-0.031,0.05-0.031c0.285,0.001,0.57,0,0.856,0.001c0.004,0,0.008,0.002,0.012,0.003
		c0.006,0.012-0.001,0.02-0.007,0.029c-0.087,0.144-0.173,0.288-0.26,0.431c-0.08,0.133-0.161,0.265-0.242,0.398
		C4.925,6.26,4.843,6.397,4.76,6.533C4.757,6.539,4.753,6.544,4.749,6.549C4.734,6.57,4.733,6.59,4.748,6.613
		C4.78,6.666,4.81,6.72,4.842,6.773c0.1,0.17,0.201,0.34,0.302,0.511c0.11,0.187,0.221,0.373,0.331,0.56
		C5.492,7.872,5.51,7.901,5.527,7.931C5.532,7.939,5.539,7.948,5.534,7.96z"/>
	<path d="M16.641,7.251c-0.002-0.028-0.003-0.055-0.007-0.082c-0.009-0.059-0.009-0.119-0.01-0.178
		c-0.001-0.031,0.002-0.034,0.035-0.043c0.047-0.012,0.095-0.024,0.143-0.034c0.152-0.031,0.306-0.052,0.462-0.047
		c0.062,0.002,0.123,0.01,0.182,0.03c0.134,0.044,0.227,0.131,0.266,0.269c0.007,0.026,0.015,0.053,0.023,0.079
		c0,0.044,0.002,0.089,0,0.133c-0.004,0.081-0.023,0.159-0.063,0.231c-0.045,0.081-0.112,0.138-0.198,0.172
		c-0.134,0.053-0.272,0.064-0.412,0.028c-0.134-0.034-0.232-0.119-0.302-0.237c-0.017-0.029-0.032-0.059-0.048-0.089
		c-0.002-0.006-0.007-0.01-0.008-0.017c0.002-0.004,0.001-0.007-0.003-0.009c-0.006-0.007-0.004-0.019-0.011-0.026l0,0
		c-0.008-0.009-0.008-0.02-0.011-0.031c-0.001-0.007-0.003-0.014-0.004-0.021c-0.004-0.009-0.004-0.019-0.009-0.028
		c0.002-0.004,0.001-0.007-0.002-0.01c-0.01-0.013-0.003-0.03-0.011-0.043c-0.001-0.007-0.002-0.014-0.003-0.021
		C16.644,7.27,16.645,7.26,16.641,7.251L16.641,7.251z"/>
	<path fill="#A100FF" d="M16.653,7.3c0.011,0.012,0.011,0.027,0.011,0.043C16.648,7.331,16.652,7.315,16.653,7.3z"/>
	<path fill="#A100FF" d="M16.665,7.353c0.008,0.008,0.01,0.017,0.009,0.028C16.665,7.373,16.664,7.363,16.665,7.353z"/>
	<path fill="#A100FF" d="M16.678,7.402c0.009,0.008,0.011,0.019,0.011,0.031C16.678,7.425,16.677,7.414,16.678,7.402z"/>
	<path fill="#A100FF" d="M16.69,7.432c0.01,0.006,0.012,0.015,0.011,0.026C16.691,7.452,16.69,7.442,16.69,7.432z"/>
	<path fill="#A100FF" d="M16.64,7.251c0.009,0.007,0.01,0.017,0.009,0.027C16.64,7.272,16.638,7.262,16.64,7.251z"/>
	<path fill="#A100FF" d="M16.704,7.466c0.006,0.004,0.009,0.009,0.008,0.017C16.709,7.477,16.707,7.472,16.704,7.466z"/>
</g>
</svg>
