<?xml version="1.0" encoding="utf-8"?>
<!-- Generator: Adobe Illustrator 24.3.0, SVG Export Plug-In . SVG Version: 6.00 Build 0)  -->
<svg version="1.1" id="Слой_1" xmlns="http://www.w3.org/2000/svg" xmlns:xlink="http://www.w3.org/1999/xlink" x="0px" y="0px"
	 width="32px" height="13px" viewBox="0 0 32 13" enable-background="new 0 0 32 13" xml:space="preserve">
<g>
	<path d="M16.884,0.414c1.045,0,2.09,0,3.135,0c0.092,0,0.067-0.014,0.11,0.068c0.65,1.249,1.299,2.499,1.948,3.748
		c0.398,0.766,0.796,1.531,1.194,2.297c0.01,0.019,0.027,0.039,0.026,0.058c-0.001,0.022-0.016,0.043-0.027,0.064
		c-0.386,0.743-0.772,1.486-1.158,2.228c-0.574,1.105-1.149,2.209-1.723,3.314c-0.088,0.169-0.176,0.339-0.264,0.509
		c-0.005,0.01-0.011,0.019-0.015,0.029c-0.01,0.027-0.029,0.035-0.056,0.032c-0.013-0.001-0.026,0-0.039,0c-2.084,0-4.167,0-6.251,0
		c-0.106,0-0.078,0.018-0.129-0.08c-0.486-0.935-0.972-1.87-1.458-2.805c-0.56-1.078-1.121-2.156-1.681-3.234
		c-0.001-0.002-0.002-0.004-0.003-0.006c-0.025-0.049-0.025-0.049,0.001-0.1c0.202-0.389,0.404-0.777,0.606-1.166
		c0.804-1.547,1.608-3.093,2.411-4.64c0.049-0.095,0.1-0.19,0.148-0.286c0.011-0.022,0.024-0.033,0.049-0.031
		c0.019,0.002,0.039,0,0.058,0C14.807,0.414,15.845,0.414,16.884,0.414z"/>
	<path d="M12.231,2.117c-0.003,0.029-0.016,0.047-0.026,0.066c-0.233,0.462-0.467,0.923-0.701,1.385
		c-0.473,0.935-0.945,1.869-1.42,2.803c-0.023,0.045-0.023,0.079-0.001,0.124c0.328,0.661,0.654,1.324,0.981,1.986
		c0.409,0.83,0.818,1.66,1.227,2.489c0.009,0.017,0.017,0.035,0.025,0.052c0.008,0.016,0.003,0.025-0.014,0.025
		c-0.054,0-0.107-0.001-0.161-0.002c-0.385-0.003-0.77-0.006-1.155-0.009c-0.488-0.004-0.976-0.006-1.464-0.014
		c-0.845-0.013-1.69-0.017-2.535-0.025c-0.527-0.005-1.053-0.013-1.58-0.019c-0.346-0.004-0.692-0.005-1.038-0.008
		c-0.011,0-0.022-0.001-0.032,0c-0.023,0.002-0.034-0.01-0.043-0.03c-0.036-0.085-0.074-0.169-0.111-0.254
		C3.875,9.978,3.566,9.27,3.257,8.561c-0.3-0.689-0.6-1.377-0.901-2.066c-0.036-0.082-0.034-0.057,0-0.131
		c0.196-0.429,0.393-0.859,0.59-1.288C3.393,4.103,3.839,3.13,4.285,2.156c0.03-0.066,0.016-0.055,0.084-0.055
		c0.869,0.001,1.737,0.001,2.606,0.002C7.41,2.104,7.844,2.105,8.278,2.106C8.59,2.107,8.902,2.109,9.214,2.111
		c0.338,0.001,0.675,0.003,1.013,0.004c0.649,0.001,1.299,0.001,1.948,0.002C12.191,2.117,12.209,2.117,12.231,2.117z"/>
	<path d="M21.607,2.089c0.137,0,0.261,0,0.386,0c0.71-0.001,1.419-0.001,2.129-0.002c0.447-0.001,0.895-0.002,1.342-0.003
		c0.447-0.001,0.895-0.002,1.342-0.004c0.452-0.001,0.903-0.003,1.355-0.004c0.434-0.001,0.869-0.002,1.303-0.002
		c0.004,0,0.009,0,0.013,0c0.064,0.001,0.054-0.007,0.081,0.051c0.182,0.396,0.363,0.792,0.545,1.188
		c0.251,0.548,0.503,1.096,0.754,1.645c0.211,0.46,0.422,0.921,0.633,1.382c0.034,0.074,0.033,0.051,0.001,0.125
		C31.266,6.977,31.043,7.488,30.82,8c-0.42,0.962-0.839,1.924-1.259,2.886c-0.025,0.058-0.01,0.055-0.084,0.056
		c-0.366,0.003-0.731,0.003-1.097,0.011c-0.643,0.013-1.286,0.01-1.928,0.02c-0.35,0.005-0.701,0.006-1.051,0.009
		c-0.819,0.008-1.638,0.016-2.457,0.024c-0.361,0.004-0.722,0.006-1.084,0.01c-0.105,0.001-0.211,0.005-0.316,0.007
		c-0.022,0-0.027-0.008-0.017-0.028c0.057-0.116,0.114-0.231,0.171-0.347c0.348-0.707,0.697-1.413,1.045-2.12
		c0.335-0.68,0.671-1.359,1.005-2.039c0.051-0.105,0.052-0.063-0.001-0.169c-0.291-0.577-0.584-1.153-0.875-1.729
		c-0.406-0.803-0.812-1.605-1.218-2.408C21.639,2.156,21.625,2.127,21.607,2.089z"/>
	<path fill="#FE3607" d="M12.578,4.035c0.026-0.068,0.064-0.131,0.097-0.196c0.224-0.433,0.45-0.865,0.675-1.298
		c0.229-0.44,0.458-0.881,0.687-1.321c0.035-0.068,0.023-0.057,0.092-0.057c1.839,0,3.677,0,5.516,0c0.011,0,0.022,0.001,0.032,0
		c0.019-0.001,0.032,0.007,0.041,0.024c0.019,0.038,0.04,0.076,0.06,0.114c0.267,0.515,0.535,1.029,0.802,1.544
		c0.083,0.16,0.167,0.32,0.25,0.48c0.009,0.017,0.021,0.033,0.023,0.053c-0.03,0.029-0.068,0.02-0.104,0.021
		c-0.335,0.012-0.671,0.013-1.006,0.018c-0.016-0.013-0.021-0.032-0.03-0.049c-0.183-0.351-0.365-0.701-0.547-1.052
		c-0.034-0.065-0.024-0.057-0.092-0.057c-1.458,0-2.915,0-4.373,0c-0.071,0-0.058-0.01-0.093,0.055
		c-0.238,0.457-0.475,0.915-0.713,1.372c-0.057,0.111-0.115,0.221-0.173,0.331c-0.009,0.017-0.014,0.036-0.03,0.049
		c-0.055-0.021-0.112-0.021-0.17-0.023c-0.281-0.008-0.561,0.016-0.841,0.013C12.645,4.056,12.607,4.065,12.578,4.035z"/>
	<path fill="#666666" d="M19.535,11.902c-0.007,0.001-0.015,0.003-0.023,0.003c-0.021,0-0.043,0-0.065,0c-1.703,0-3.406,0-5.109,0
		c-0.111,0-0.111,0.011-0.06-0.094c0.114-0.236,0.227-0.473,0.34-0.709c0.006-0.012,0.012-0.023,0.017-0.035
		c0.009-0.02,0.023-0.029,0.046-0.027c0.017,0.001,0.034,0,0.052,0c1.415,0,2.83,0,4.244,0c0.011,0,0.022,0.001,0.032,0
		c0.037-0.005,0.059,0.01,0.077,0.043c0.146,0.263,0.294,0.525,0.441,0.787C19.532,11.88,19.541,11.888,19.535,11.902z"/>
	<path fill="#FE7010" d="M12.578,4.035c0.129,0.001,0.258,0.001,0.387,0.002c0.108-0.023,0.218-0.011,0.327-0.012
		c0.107-0.002,0.215,0.001,0.322-0.001c0.036-0.001,0.063,0.009,0.078,0.044c0.001,0.004,0,0.006-0.003,0.008
		c-0.004,0.006-0.009,0.011-0.01,0.018c0.001,0.003,0,0.006-0.003,0.008c-0.004,0.006-0.009,0.011-0.01,0.018
		c0.001,0.004,0,0.006-0.004,0.008c-0.003,0.006-0.008,0.011-0.009,0.017c-0.018,0.037-0.034,0.074-0.053,0.11
		c-0.377,0.726-0.755,1.452-1.132,2.178c-0.022,0.042-0.042,0.085-0.065,0.126c-0.014,0.024-0.012,0.043,0.001,0.066
		c0.033,0.06,0.064,0.122,0.096,0.183c0.046,0.088,0.091,0.175,0.136,0.263c0.004,0.007,0.006,0.016,0.009,0.024
		c-0.011,0.026-0.035,0.029-0.059,0.032c-0.019,0.002-0.039,0.002-0.058,0.001c-0.287-0.009-0.574,0.017-0.861,0.012
		c-0.045-0.001-0.078,0.015-0.106,0.048c-0.013-0.009-0.017-0.024-0.024-0.037C11.448,6.98,11.36,6.81,11.272,6.641
		c-0.002-0.004-0.004-0.008-0.006-0.011c-0.017-0.026-0.018-0.05-0.002-0.078c0.023-0.039,0.042-0.08,0.063-0.12
		c0.281-0.541,0.562-1.082,0.843-1.623c0.127-0.244,0.254-0.487,0.381-0.731C12.559,4.064,12.569,4.049,12.578,4.035z"/>
	<path fill="#FE5F0D" d="M19.743,3.417c0.007-0.015,0.018-0.024,0.035-0.024c0.017-0.001,0.034-0.001,0.052-0.001
		c0.183,0,0.365,0,0.548,0c0.028,0,0.055,0.001,0.083-0.008c0.018-0.006,0.038-0.004,0.057-0.004
		c0.112-0.001,0.223-0.001,0.335-0.001c0,0,0,0,0,0c0.003,0.004,0.006,0.009,0.008,0.013c0.002,0.004,0.003,0.008,0.005,0.012
		c0.003,0.005,0.006,0.009,0.008,0.014c0.004,0.003,0.005,0.007,0.005,0.011c0.003,0.005,0.005,0.01,0.008,0.014
		c0.004,0.003,0.005,0.006,0.005,0.011c0.002,0.005,0.005,0.01,0.009,0.015c0.021,0.037,0.042,0.075,0.062,0.113
		c0.435,0.837,0.871,1.675,1.306,2.512c0.01,0.019,0.018,0.039,0.026,0.058c-0.03,0.028-0.068,0.02-0.104,0.021
		c-0.28,0.001-0.56,0.002-0.841-0.001c-0.062-0.001-0.114,0.006-0.138,0.072c-0.015-0.013-0.021-0.032-0.03-0.049
		c-0.243-0.468-0.487-0.936-0.73-1.404c-0.111-0.213-0.222-0.426-0.332-0.639c-0.011-0.021-0.02-0.043-0.03-0.064
		c-0.009-0.006-0.005-0.018-0.013-0.025l0,0c-0.008-0.007-0.005-0.019-0.013-0.025v0c-0.004-0.003-0.007-0.007-0.008-0.012
		c-0.002-0.004-0.004-0.008-0.005-0.013c-0.007-0.007-0.004-0.02-0.014-0.026l0,0.001c-0.003-0.004-0.006-0.009-0.009-0.013
		c-0.004-0.003-0.005-0.007-0.004-0.011c-0.003-0.005-0.006-0.009-0.009-0.014c-0.003-0.003-0.005-0.006-0.004-0.011
		c-0.003-0.005-0.006-0.01-0.009-0.015C20,3.918,19.998,3.915,19.999,3.911c-0.003-0.005-0.006-0.01-0.009-0.016
		c-0.004-0.002-0.005-0.005-0.004-0.009c-0.001-0.006-0.006-0.011-0.009-0.016c-0.003-0.002-0.005-0.005-0.004-0.009
		c-0.001-0.007-0.006-0.012-0.009-0.017c-0.003-0.002-0.004-0.005-0.004-0.009c-0.001-0.007-0.006-0.012-0.01-0.017
		c-0.003-0.002-0.004-0.005-0.003-0.008c-0.001-0.007-0.006-0.012-0.01-0.018c-0.003-0.001-0.004-0.004-0.003-0.007
		c0-0.008-0.006-0.013-0.01-0.019l0,0c-0.008-0.006-0.006-0.018-0.013-0.025l0,0c-0.008-0.007-0.006-0.019-0.013-0.025l0,0
		c-0.008-0.007-0.005-0.019-0.013-0.026l0,0c-0.007-0.007-0.005-0.02-0.013-0.026l0,0.001c-0.007-0.008-0.004-0.02-0.013-0.026
		l0.001,0.001c-0.004-0.004-0.007-0.009-0.009-0.014c-0.003-0.003-0.005-0.006-0.004-0.011c-0.003-0.005-0.006-0.01-0.009-0.015
		c-0.003-0.003-0.005-0.006-0.004-0.01c-0.003-0.005-0.006-0.01-0.009-0.015c-0.003-0.002-0.005-0.006-0.004-0.01
		c-0.002-0.006-0.007-0.011-0.009-0.016c-0.003-0.002-0.005-0.005-0.004-0.009c-0.002-0.006-0.006-0.011-0.009-0.017
		c-0.003-0.002-0.004-0.005-0.004-0.009c-0.001-0.007-0.006-0.012-0.01-0.017c-0.003-0.002-0.004-0.005-0.003-0.008
		c-0.001-0.007-0.006-0.012-0.01-0.018c-0.003-0.002-0.004-0.004-0.003-0.007c-0.001-0.008-0.006-0.013-0.011-0.019l0-0.001
		C19.747,3.436,19.75,3.424,19.743,3.417L19.743,3.417z"/>
	<path fill="#FDB719" d="M19.497,6.783c0.052,0.07,0.079,0.152,0.1,0.235c0.036,0.143,0.045,0.288,0.034,0.435
		c-0.009,0.116-0.029,0.23-0.067,0.34c-0.091,0.26-0.264,0.449-0.509,0.571c-0.159,0.08-0.329,0.121-0.506,0.139
		c-0.181,0.018-0.361,0.012-0.539-0.015c-0.153-0.023-0.301-0.068-0.438-0.144c-0.217-0.12-0.364-0.299-0.434-0.536
		c-0.076-0.257-0.077-0.516-0.003-0.775c0.009-0.033,0.017-0.066,0.037-0.095c0.029-0.021,0.063-0.028,0.097-0.028
		c0.169-0.003,0.336-0.027,0.504-0.028c0.036,0,0.072-0.007,0.108-0.01c0.04-0.003,0.081-0.01,0.116,0.02
		c0.005,0.005,0.008,0.012,0.009,0.018c0.001,0.006,0,0.013-0.002,0.019c-0.001,0.003-0.003,0.005-0.004,0.008
		c-0.003,0.005-0.007,0.009-0.011,0.013c-0.002,0.002-0.004,0.004-0.006,0.006c-0.004,0.004-0.007,0.007-0.011,0.01
		c-0.002,0.002-0.004,0.003-0.005,0.005c-0.003,0.003-0.007,0.006-0.01,0.01c-0.002,0.002-0.003,0.003-0.005,0.005
		c-0.003,0.003-0.006,0.006-0.009,0.01c-0.001,0.002-0.003,0.003-0.004,0.005c-0.002,0.004-0.004,0.007-0.006,0.011
		c-0.002,0.004-0.004,0.008-0.007,0.011c-0.002,0.004-0.005,0.007-0.008,0.01c0,0-0.004,0.005-0.004,0.005
		c-0.002,0.004-0.004,0.007-0.007,0.011c-0.002,0.004-0.004,0.008-0.006,0.012c-0.003,0.006-0.006,0.013-0.009,0.019
		c-0.001,0.005-0.003,0.01-0.004,0.015c-0.002,0.011-0.003,0.022-0.004,0.034c-0.017,0.093-0.027,0.185-0.01,0.281
		c0.039,0.212,0.15,0.33,0.363,0.36c0.091,0.013,0.183,0.009,0.275-0.01c0.222-0.046,0.318-0.206,0.333-0.409
		c0.006-0.09,0.001-0.18-0.031-0.266c-0.002-0.006-0.003-0.011-0.005-0.017c-0.002-0.005-0.003-0.01-0.005-0.015
		c-0.002-0.007-0.005-0.014-0.008-0.02c-0.003-0.004-0.005-0.008-0.008-0.011c-0.003-0.003-0.005-0.007-0.007-0.011
		C18.78,7.003,18.778,7,18.777,6.996c-0.002-0.004-0.004-0.007-0.006-0.011c0,0-0.004-0.005-0.004-0.005
		c-0.003-0.003-0.006-0.006-0.008-0.009c0,0-0.004-0.004-0.004-0.004c-0.003-0.003-0.006-0.006-0.009-0.009
		c0,0-0.004-0.005-0.005-0.004c-0.003-0.003-0.006-0.006-0.009-0.009c-0.002-0.001-0.003-0.003-0.005-0.005
		c-0.004-0.003-0.007-0.006-0.011-0.009c-0.002-0.001-0.004-0.003-0.006-0.004C18.705,6.925,18.7,6.922,18.696,6.92
		c-0.005-0.003-0.009-0.007-0.014-0.011c-0.004-0.005-0.007-0.01-0.01-0.016c-0.003-0.007-0.004-0.013-0.005-0.021
		c0-0.045,0.032-0.053,0.065-0.054c0.16-0.001,0.319-0.028,0.479-0.028c0.075,0,0.148-0.018,0.223-0.014
		C19.455,6.778,19.477,6.773,19.497,6.783z"/>
	<path fill="#FD8913" d="M21.212,6.243c0.001-0.019,0-0.039,0.002-0.058c0.002-0.02,0.013-0.031,0.033-0.033
		c0.019-0.002,0.038-0.001,0.058-0.001c0.33,0,0.66,0,0.989,0c0.004,0.002,0.005,0.005,0.004,0.009c0,0.007,0.005,0.011,0.009,0.016
		c0.004,0.002,0.005,0.005,0.004,0.009c0,0.007,0.004,0.012,0.009,0.017c0.024,0.043,0.048,0.086,0.071,0.13
		c0.035,0.067,0.07,0.133,0.104,0.2c0.032,0.063,0.035,0.047-0.001,0.117c-0.073,0.141-0.146,0.282-0.22,0.423
		c-0.249,0.478-0.497,0.957-0.746,1.435c-0.01,0.019-0.016,0.04-0.033,0.055c-0.036-0.027-0.078-0.031-0.121-0.031
		c-0.306,0.001-0.613,0-0.919,0.001c-0.023,0-0.047,0.005-0.069-0.008c0.001-0.02,0.014-0.036,0.023-0.053
		c0.312-0.6,0.624-1.2,0.936-1.8c0.008-0.015,0.017-0.03,0.026-0.044c0.003-0.004,0.005-0.009,0.008-0.013
		c0.002-0.004,0.003-0.008,0.005-0.013c0.004-0.008,0.004-0.016,0-0.024c-0.003-0.003-0.005-0.006-0.004-0.011
		c-0.002-0.006-0.007-0.01-0.009-0.016c-0.003-0.002-0.005-0.006-0.004-0.01c-0.002-0.006-0.007-0.01-0.009-0.016
		c-0.003-0.002-0.005-0.005-0.004-0.009C21.352,6.51,21.347,6.505,21.344,6.5c-0.003-0.002-0.005-0.004-0.004-0.008
		c-0.001-0.007-0.006-0.012-0.009-0.018c-0.003-0.002-0.004-0.004-0.003-0.008c-0.001-0.007-0.006-0.012-0.01-0.018
		c-0.003-0.002-0.004-0.004-0.003-0.007c-0.001-0.008-0.006-0.013-0.01-0.019c-0.003-0.002-0.004-0.004-0.003-0.007
		c-0.001-0.008-0.006-0.013-0.011-0.019l0,0c-0.008-0.006-0.006-0.018-0.013-0.025l0,0c-0.008-0.007-0.006-0.019-0.013-0.026l0,0
		c-0.008-0.007-0.005-0.019-0.013-0.026l0,0c-0.007-0.007-0.005-0.019-0.014-0.026l0,0.001c-0.007-0.008-0.005-0.02-0.014-0.026
		l0,0.001c-0.007-0.008-0.004-0.02-0.014-0.027L21.212,6.243z"/>
	<path fill="#FD9415" d="M11.56,7.187c0.001-0.011,0-0.022,0.002-0.032c0.004-0.024,0.014-0.033,0.038-0.035
		c0.015-0.001,0.03-0.001,0.045-0.001c0.09,0,0.18,0,0.27,0c0.038,0,0.077,0.002,0.114-0.01c0.018-0.006,0.038-0.003,0.057-0.003
		c0.161,0,0.321,0,0.482,0c0.026,0,0.052,0.003,0.074-0.013c0.003,0.002,0.005,0.005,0.004,0.009c0,0.007,0.005,0.011,0.009,0.016
		c0.004,0.002,0.005,0.005,0.004,0.009c0,0.008,0.005,0.012,0.009,0.018l0.001,0.002c0.008,0.006,0.005,0.017,0.012,0.024
		l0.001,0.002c0.008,0.006,0.005,0.018,0.013,0.024l0.001,0.001c0.007,0.006,0.005,0.018,0.013,0.024l0.001,0.001
		c0.007,0.007,0.004,0.019,0.013,0.024l0,0.001c0.003,0.004,0.006,0.008,0.008,0.012c0.002,0.005,0.004,0.009,0.005,0.014
		c0.003,0.004,0.006,0.008,0.008,0.012c0.002,0.004,0.003,0.009,0.005,0.013c0.003,0.004,0.006,0.009,0.008,0.013
		c0.002,0.004,0.003,0.008,0.005,0.012c0.003,0.005,0.005,0.009,0.008,0.014c0.002,0.004,0.003,0.008,0.005,0.012
		c0.002,0.005,0.005,0.01,0.008,0.014c0.004,0.003,0.005,0.006,0.005,0.011c0.002,0.005,0.005,0.01,0.009,0.015
		c0.004,0.003,0.005,0.006,0.005,0.011c0.002,0.006,0.005,0.011,0.009,0.015c0.004,0.003,0.005,0.006,0.004,0.01
		c0,0.007,0.005,0.011,0.009,0.015c0.008,0.013,0.017,0.025,0.024,0.038c0.308,0.593,0.616,1.186,0.925,1.779
		c0.007,0.013,0.012,0.027,0.018,0.041c-0.011,0.012-0.026,0.013-0.041,0.013c-0.321,0.01-0.642,0.007-0.962,0.007
		c-0.039,0-0.077,0.006-0.115,0.006c-0.008-0.012-0.017-0.024-0.024-0.037c-0.232-0.446-0.464-0.892-0.695-1.337
		c-0.007-0.013-0.012-0.027-0.017-0.041c-0.003-0.005-0.006-0.01-0.009-0.016c-0.004-0.002-0.005-0.006-0.004-0.01
		c-0.002-0.006-0.006-0.011-0.009-0.016c-0.003-0.002-0.005-0.005-0.004-0.009c-0.002-0.006-0.006-0.011-0.01-0.016
		c-0.003-0.002-0.004-0.005-0.003-0.009c-0.002-0.007-0.006-0.011-0.01-0.017c-0.003-0.002-0.004-0.004-0.003-0.008
		c-0.001-0.007-0.006-0.012-0.01-0.018c-0.003-0.001-0.004-0.004-0.003-0.007c-0.001-0.008-0.006-0.013-0.01-0.019
		c-0.003-0.001-0.004-0.003-0.003-0.007c0-0.008-0.006-0.014-0.011-0.019c-0.003-0.001-0.004-0.003-0.002-0.006
		c0-0.008-0.006-0.014-0.011-0.019l0,0c-0.008-0.007-0.005-0.019-0.013-0.026l0,0c-0.007-0.007-0.005-0.019-0.013-0.026l0,0
		c-0.007-0.007-0.005-0.019-0.013-0.026l0,0.001c-0.004-0.004-0.007-0.009-0.009-0.014c-0.004-0.003-0.005-0.006-0.004-0.011
		c-0.003-0.005-0.006-0.01-0.009-0.015c-0.004-0.002-0.005-0.006-0.004-0.01c-0.002-0.006-0.007-0.01-0.009-0.016
		c-0.004-0.002-0.005-0.006-0.004-0.01c-0.002-0.006-0.007-0.011-0.009-0.016c-0.003-0.002-0.005-0.005-0.004-0.009
		c-0.002-0.006-0.007-0.011-0.01-0.016c-0.003-0.002-0.005-0.005-0.003-0.009c-0.002-0.006-0.006-0.011-0.01-0.017
		c-0.003-0.002-0.005-0.004-0.003-0.008c-0.001-0.007-0.006-0.012-0.01-0.018c-0.003-0.001-0.004-0.004-0.003-0.007
		c-0.001-0.008-0.006-0.013-0.01-0.019c-0.003-0.001-0.004-0.003-0.003-0.007c-0.001-0.008-0.006-0.013-0.011-0.019
		c-0.003-0.001-0.004-0.003-0.002-0.006c-0.001-0.008-0.006-0.014-0.011-0.019l0,0c-0.008-0.007-0.006-0.019-0.013-0.025l0,0
		c-0.008-0.007-0.005-0.019-0.013-0.026l0,0c-0.008-0.007-0.005-0.019-0.013-0.026l0,0.001c-0.004-0.004-0.007-0.008-0.009-0.013
		c-0.004-0.003-0.005-0.006-0.004-0.011c-0.004-0.005-0.006-0.01-0.009-0.015c-0.004-0.002-0.005-0.006-0.004-0.01
		c-0.003-0.005-0.006-0.01-0.009-0.016c-0.004-0.002-0.005-0.006-0.004-0.01c-0.002-0.006-0.007-0.01-0.009-0.016
		c-0.003-0.002-0.005-0.005-0.004-0.009c-0.002-0.006-0.007-0.011-0.01-0.016C11.56,7.194,11.559,7.191,11.56,7.187z"/>
	<path fill="#FDB319" d="M12.671,9.325c0.007-0.015,0.018-0.025,0.034-0.025c0.017-0.001,0.034-0.001,0.051-0.001
		c0.249,0,0.498,0,0.747,0c0.032,0,0.063-0.003,0.095-0.009c0.048-0.008,0.098-0.01,0.147,0.004c0.014,0.004,0.03,0.003,0.044,0.005
		c0.018,0.032,0.036,0.063,0.053,0.096c0.249,0.478,0.497,0.956,0.746,1.434c0.01,0.019,0.019,0.038,0.025,0.05
		c0.002,0.013,0,0.017-0.006,0.016c-0.035-0.003-0.052,0.016-0.066,0.047c-0.15,0.318-0.302,0.636-0.454,0.953
		c-0.012,0.025-0.02,0.052-0.041,0.074c-0.017-0.016-0.024-0.036-0.034-0.054c-0.31-0.596-0.62-1.192-0.929-1.789
		c-0.131-0.251-0.261-0.503-0.392-0.755C12.684,9.356,12.678,9.34,12.671,9.325z"/>
	<path fill="#FD8913" d="M18,6.925c-0.002-0.022-0.013-0.037-0.036-0.037c-0.036,0-0.073-0.007-0.108,0.006
		c-0.019,0.007-0.038,0.005-0.057,0.006c-0.062,0.002-0.124-0.005-0.185,0.011c-0.028,0.007-0.06,0.001-0.09,0.002
		c-0.03,0-0.059,0-0.089,0.009c-0.02,0.006-0.042,0.003-0.064,0.004c-0.051,0.002-0.103-0.005-0.153,0.011
		c-0.013,0.004-0.03,0-0.045,0c0.008-0.043,0.031-0.079,0.052-0.117c0.061-0.11,0.14-0.205,0.23-0.292
		c0.017-0.016,0.032-0.033,0.048-0.049c-0.008-0.023-0.028-0.034-0.043-0.049c-0.066-0.065-0.128-0.133-0.178-0.211
		c-0.093-0.145-0.135-0.305-0.135-0.476c-0.016-0.129-0.006-0.143,0.117-0.15c0.19-0.011,0.379-0.024,0.569-0.033
		c0.035-0.002,0.069,0.002,0.088,0.038c0.014,0.057,0.007,0.115,0.007,0.173c0,0.14,0.062,0.251,0.16,0.345
		c0.032,0.031,0.071,0.045,0.117,0.045c0.103-0.001,0.206-0.002,0.309,0c0.056,0.001,0.099-0.02,0.137-0.059
		c0.134-0.133,0.16-0.297,0.14-0.475c-0.003-0.025-0.01-0.051-0.004-0.077c0.016-0.048,0.058-0.056,0.098-0.058
		c0.202-0.013,0.405-0.023,0.607-0.037c0.033-0.002,0.064,0.007,0.082,0.039c0.013,0.051,0.011,0.102,0.01,0.154
		c-0.002,0.09-0.007,0.18-0.02,0.27c-0.022,0.149-0.083,0.279-0.183,0.391c-0.037,0.042-0.078,0.08-0.117,0.12
		c-0.009,0.009-0.019,0.017-0.028,0.026c-0.019,0.019-0.019,0.025,0.001,0.04c0.017,0.013,0.034,0.026,0.051,0.04
		c0.076,0.064,0.144,0.135,0.197,0.22c0.006,0.009,0.009,0.019,0.013,0.029c-0.017,0.01-0.035,0.014-0.055,0.014
		c-0.055,0-0.11-0.001-0.166,0.011c-0.039,0.008-0.081,0.002-0.122,0.002c-0.032,0-0.064-0.003-0.095,0.01
		c-0.009,0.004-0.021,0.003-0.032,0.003c-0.055,0.001-0.11-0.002-0.166,0.011c-0.03,0.007-0.064,0.002-0.096,0.002
		c-0.009,0-0.017,0-0.026,0c-0.063,0.001-0.063,0.001-0.056,0.064c-0.01,0.006-0.021,0.006-0.031,0.002
		c-0.161-0.065-0.33-0.025-0.495-0.031c-0.033-0.001-0.061,0.018-0.088,0.035C18.049,6.918,18.028,6.936,18,6.925z"/>
	<path fill="#FDA917" d="M20.387,8.524c0.02-0.01,0.04-0.012,0.062-0.012c0.329,0,0.657,0,0.986,0c0.004,0,0.009,0,0.013,0
		c0.038,0.002,0.042,0.006,0.049,0.051c-0.006,0.014-0.011,0.028-0.017,0.041c-0.328,0.632-0.657,1.264-0.985,1.896
		c-0.009,0.017-0.014,0.036-0.03,0.049c-0.039-0.026-0.083-0.031-0.129-0.031c-0.293-0.001-0.585,0.023-0.878,0.013
		c-0.035-0.001-0.074,0.008-0.103-0.021c0.001-0.018,0.012-0.032,0.02-0.047c0.329-0.634,0.659-1.268,0.989-1.901
		C20.37,8.549,20.374,8.533,20.387,8.524z"/>
	<path fill="#FE5E0D" d="M17.912,5.614c-0.003-0.01-0.004-0.023-0.015-0.027c-0.018-0.006-0.035-0.02-0.055-0.012
		c-0.031,0.013-0.064,0.008-0.095,0.009c-0.047,0.002-0.093,0-0.141,0.01c-0.041,0.009-0.086,0.002-0.129,0.003
		c-0.026,0-0.051-0.001-0.076,0.008c-0.025,0.009-0.051,0.006-0.077,0.004c-0.052-0.005-0.102,0.011-0.153,0.015
		c-0.012,0.001-0.02,0.009-0.02,0.021c-0.002,0.032-0.002,0.064-0.003,0.097c-0.002-0.006-0.006-0.012-0.006-0.018
		c-0.01-0.158,0-0.313,0.052-0.464c0.078-0.23,0.228-0.401,0.436-0.522c0.114-0.066,0.237-0.11,0.366-0.138
		c0.189-0.042,0.379-0.045,0.57-0.025c0.157,0.016,0.308,0.058,0.45,0.127c0.277,0.136,0.465,0.348,0.539,0.652
		c0.011,0.046,0.024,0.092,0.02,0.14c-0.018-0.007-0.036-0.013-0.054-0.02c-0.015-0.006-0.03-0.007-0.044-0.001
		C19.451,5.484,19.425,5.48,19.4,5.481c-0.043,0.001-0.085,0-0.128,0.01c-0.035,0.008-0.073,0.002-0.109,0.003
		c-0.041,0.001-0.081,0-0.121,0.01c-0.033,0.008-0.068,0.004-0.103,0.003c-0.035-0.001-0.068,0.006-0.102,0.013
		c-0.026,0.005-0.036,0.02-0.039,0.044C18.77,5.556,18.767,5.53,18.756,5.51c-0.07-0.136-0.186-0.198-0.334-0.204
		c-0.07-0.003-0.142-0.007-0.212,0.011c-0.123,0.032-0.21,0.103-0.256,0.223C17.945,5.566,17.947,5.602,17.912,5.614z"/>
	<path fill="#FE5B0D" d="M14.568,5.61c0.001-0.054,0.001-0.107,0.004-0.161c0.005-0.101,0.013-0.201,0.019-0.302
		c0.007-0.122,0.012-0.245,0.019-0.367c0.003-0.047,0.008-0.094,0.013-0.141c0.046-0.017,0.093-0.008,0.14-0.008
		c0.604-0.001,1.208-0.001,1.813,0c0.089,0,0.081-0.01,0.081,0.078c0,0.202,0,0.404,0,0.606c0,0.059,0,0.06-0.061,0.06
		c-0.417,0-0.834,0-1.251,0c-0.087,0-0.081-0.013-0.091,0.081c-0.006,0.057-0.007,0.116-0.023,0.172
		c-0.032-0.043-0.073-0.048-0.124-0.043c-0.164,0.014-0.33,0.015-0.494,0.037C14.595,5.623,14.58,5.62,14.568,5.61z"/>
	<path fill="#FDC31B" d="M16.556,8.026c0.001,0.004-0.001,0.007-0.004,0.008c-0.003,0.005-0.006,0.009-0.01,0.014l0-0.001
		c-0.006,0.005-0.011,0.01-0.012,0.019c-0.067,0.11-0.16,0.195-0.268,0.265c-0.108,0.069-0.226,0.113-0.351,0.14
		c-0.168,0.036-0.337,0.033-0.507,0.021c-0.169-0.012-0.337-0.038-0.504-0.07c-0.143-0.027-0.285-0.061-0.427-0.097
		c-0.006-0.002-0.012-0.004-0.018-0.006c-0.027-0.009-0.031-0.014-0.028-0.042c0.009-0.079,0.018-0.158,0.027-0.237
		c0.012-0.102,0.024-0.205,0.036-0.307c0-0.004,0-0.009,0.001-0.013c0.005-0.027-0.002-0.062,0.017-0.079
		c0.022-0.02,0.052,0.004,0.079,0.008c0.102,0.016,0.203,0.035,0.305,0.051c0.102,0.016,0.204,0.033,0.306,0.044
		c0.145,0.017,0.291,0.026,0.437,0.02c0.066-0.003,0.126-0.024,0.182-0.058c0.007-0.004,0.015-0.008,0.023-0.011
		c0.007,0,0.011-0.004,0.014-0.01l0.002-0.002c0.004-0.003,0.008-0.006,0.011-0.011l0.002-0.002c0.004-0.003,0.008-0.007,0.011-0.01
		l0.002-0.002c0.004-0.003,0.007-0.007,0.011-0.011l0.002-0.002c0.004-0.003,0.008-0.007,0.011-0.012l0.001-0.001
		c0.006-0.003,0.01-0.007,0.011-0.014c0.002-0.004,0.004-0.008,0.006-0.012c0.002-0.004,0.004-0.007,0.008-0.01l0.002-0.002
		c0.004-0.005,0.009-0.009,0.01-0.015c-0.001-0.005,0.001-0.008,0.005-0.01c0.083-0.035,0.173-0.022,0.259-0.031
		c0.128-0.012,0.256-0.014,0.384-0.025c0.046-0.004,0.095-0.013,0.131,0.031c-0.001,0.008-0.002,0.017-0.004,0.025
		c-0.012,0.016,0,0.038-0.011,0.054c0.002,0.004,0.001,0.007-0.002,0.011c-0.01,0.012-0.003,0.03-0.011,0.043
		C16.7,7.681,16.7,7.684,16.697,7.686c-0.012,0.012-0.002,0.029-0.012,0.041c0.002,0.004,0.001,0.007-0.002,0.011
		c-0.007,0.009-0.006,0.02-0.01,0.03c0.002,0.004,0.001,0.007-0.002,0.009c-0.007,0.009-0.006,0.02-0.011,0.03
		c0.002,0.004,0.001,0.007-0.003,0.009c-0.007,0.008-0.005,0.02-0.011,0.028c0.001,0.004,0,0.008-0.003,0.01
		c-0.004,0.006-0.009,0.011-0.009,0.019c0.002,0.003,0.001,0.005-0.002,0.007c-0.007,0.007-0.005,0.019-0.012,0.027l0-0.001
		c-0.009,0.007-0.006,0.02-0.013,0.028c0.001,0.005,0,0.008-0.004,0.011c-0.003,0.005-0.006,0.01-0.009,0.015
		c0.001,0.005,0,0.008-0.004,0.011c-0.002,0.005-0.005,0.009-0.009,0.013l0,0c-0.008,0.006-0.006,0.019-0.014,0.025l0,0
		C16.562,8.014,16.558,8.019,16.556,8.026z"/>
	<path fill="#FD8012" d="M14.568,5.61c0.048-0.008,0.096-0.017,0.145-0.023c0.03-0.004,0.06-0.002,0.09-0.002
		c0.034-0.001,0.068,0,0.102-0.009c0.028-0.007,0.06-0.003,0.089-0.004c0.045-0.002,0.09,0.006,0.134-0.011
		c0.008-0.003,0.017-0.002,0.025-0.002c0.057-0.001,0.068,0.009,0.076,0.069c-0.001,0.016-0.003,0.032-0.004,0.048
		c-0.012,0.025,0.003,0.054-0.01,0.079c-0.001,0.012-0.002,0.025-0.003,0.037c-0.013,0.025,0.003,0.054-0.01,0.079
		c0.003,0.017,0.001,0.034-0.004,0.05c-0.01,0.021,0.002,0.045-0.009,0.066c-0.002,0.036-0.005,0.073-0.007,0.109
		c-0.001,0.017,0.007,0.024,0.024,0.019c0.052-0.014,0.104-0.028,0.155-0.043c0.182-0.056,0.367-0.063,0.554-0.03
		c0.091,0.016,0.181,0.037,0.266,0.072c0.213,0.087,0.365,0.236,0.46,0.445c0.003,0.006,0.003,0.012,0.004,0.019
		c-0.047,0.029-0.1,0.019-0.151,0.024c-0.166,0.018-0.334,0.024-0.501,0.034c-0.184,0.012-0.368,0.026-0.552,0.035
		c-0.171,0.009-0.343,0.025-0.514,0.03c-0.081,0.003-0.163,0.003-0.241,0.033c-0.013-0.001-0.026-0.001-0.038-0.004
		c-0.046-0.011-0.093-0.017-0.135-0.038C14.497,6.646,14.51,6.6,14.512,6.553c0.006-0.122,0.012-0.244,0.019-0.366
		c0.004-0.064,0.009-0.128,0.014-0.192c0.011-0.043-0.004-0.088,0.009-0.13c-0.003-0.025-0.002-0.051,0.003-0.076
		c0.014-0.052-0.004-0.105,0.01-0.157C14.567,5.625,14.567,5.618,14.568,5.61z"/>
	<path fill="#FCC81C" d="M19.354,10.51c0.199,0,0.398,0.001,0.597,0.001c0.006,0,0.013,0.001,0.019-0.001
		c0.082-0.022,0.166-0.01,0.249-0.012c0.056-0.002,0.111-0.001,0.167,0c0.015,0,0.03,0.001,0.044,0.004
		c0.024,0.006,0.036,0.021,0.034,0.047l0,0c-0.005,0.006-0.01,0.011-0.011,0.019l0.001,0.004l-0.003,0.002
		c-0.005,0.006-0.01,0.011-0.011,0.019c0.002,0.003,0.001,0.006-0.003,0.007c-0.004,0.006-0.009,0.011-0.01,0.019
		c0.001,0.003,0,0.006-0.003,0.007c-0.004,0.006-0.009,0.011-0.01,0.018c0.001,0.004,0,0.006-0.004,0.008
		c-0.003,0.006-0.008,0.011-0.01,0.017c0.001,0.004,0,0.007-0.004,0.009c-0.003,0.006-0.008,0.01-0.01,0.016
		c0.001,0.004,0,0.007-0.004,0.009c-0.003,0.005-0.006,0.01-0.009,0.015l0.001-0.001c-0.01,0.006-0.008,0.019-0.014,0.027l0-0.001
		c-0.009,0.006-0.007,0.019-0.014,0.026l0-0.001c-0.009,0.006-0.007,0.019-0.013,0.026l0-0.001
		c-0.009,0.006-0.006,0.019-0.014,0.026l0,0c-0.008,0.007-0.006,0.019-0.013,0.026l0,0c-0.008,0.007-0.005,0.019-0.013,0.026l0,0
		c-0.007,0.007-0.005,0.019-0.013,0.025l0,0c-0.005,0.006-0.01,0.011-0.011,0.019c0.002,0.003,0.001,0.005-0.003,0.007
		c-0.005,0.006-0.01,0.011-0.01,0.019c0.001,0.003,0,0.006-0.003,0.007c-0.004,0.006-0.009,0.011-0.01,0.018
		c0.001,0.004,0,0.006-0.003,0.007c-0.004,0.006-0.009,0.011-0.01,0.018c0.001,0.004,0,0.006-0.004,0.008
		c-0.003,0.006-0.008,0.01-0.01,0.017c0.001,0.004,0,0.007-0.004,0.009c-0.003,0.006-0.008,0.01-0.01,0.016
		c0.001,0.004,0,0.007-0.004,0.01c-0.003,0.005-0.006,0.01-0.009,0.015l0.001-0.001c-0.01,0.006-0.008,0.018-0.014,0.027l0-0.001
		c-0.009,0.006-0.007,0.019-0.014,0.026l0-0.001c-0.009,0.006-0.007,0.019-0.014,0.026l0,0c-0.008,0.007-0.006,0.019-0.013,0.026
		l0,0c-0.008,0.007-0.006,0.019-0.013,0.026l0,0c-0.008,0.007-0.005,0.019-0.013,0.026l0,0c-0.005,0.005-0.01,0.011-0.011,0.019
		c0.002,0.003,0.001,0.005-0.003,0.007c-0.005,0.006-0.01,0.011-0.01,0.019c0.001,0.003,0,0.006-0.003,0.007
		c-0.004,0.006-0.009,0.011-0.01,0.019c0.001,0.003,0,0.006-0.003,0.007c-0.004,0.006-0.009,0.011-0.01,0.018
		c0.001,0.004,0,0.006-0.004,0.008c-0.004,0.005-0.008,0.01-0.01,0.017c0.001,0.004,0,0.007-0.004,0.009
		c-0.003,0.005-0.008,0.01-0.01,0.016c0.001,0.004,0,0.007-0.004,0.01c-0.003,0.005-0.007,0.01-0.009,0.016
		c0.001,0.004,0,0.008-0.004,0.01c-0.003,0.005-0.006,0.01-0.009,0.015c0.001,0.005-0.001,0.008-0.004,0.01
		c-0.002,0.005-0.005,0.01-0.009,0.015c0.001,0.005,0,0.008-0.005,0.011c-0.002,0.005-0.005,0.01-0.009,0.014
		c-0.005,0.012-0.009,0.024-0.014,0.035c-0.071,0.137-0.142,0.273-0.213,0.41c-0.007,0.013-0.011,0.027-0.024,0.035
		c-0.013-0.008-0.018-0.02-0.024-0.031c-0.068-0.121-0.136-0.242-0.204-0.364c-0.005-0.009-0.008-0.019-0.012-0.029
		c-0.001-0.008-0.006-0.013-0.011-0.019l0,0c-0.008-0.007-0.005-0.019-0.014-0.025l0,0.001c-0.004-0.004-0.007-0.009-0.009-0.014
		c-0.004-0.002-0.005-0.006-0.004-0.01c-0.002-0.006-0.007-0.011-0.01-0.016c-0.003-0.002-0.005-0.005-0.003-0.008
		c-0.001-0.007-0.006-0.012-0.011-0.018l0,0c-0.008-0.006-0.006-0.019-0.014-0.025l0,0c-0.007-0.007-0.005-0.02-0.014-0.026
		l0.001,0.001c-0.003-0.005-0.007-0.009-0.01-0.014c-0.004-0.002-0.005-0.005-0.004-0.009c-0.002-0.007-0.006-0.012-0.01-0.017
		c-0.003-0.001-0.004-0.003-0.003-0.006c0-0.008-0.006-0.014-0.011-0.019l0,0c-0.008-0.007-0.005-0.019-0.014-0.025l0,0.001
		c-0.004-0.004-0.007-0.009-0.009-0.014c-0.004-0.002-0.005-0.005-0.004-0.009c-0.002-0.006-0.007-0.011-0.009-0.016
		c-0.004-0.001-0.005-0.004-0.004-0.008c-0.001-0.007-0.006-0.013-0.01-0.018l-0.003-0.002l0-0.004c0-0.008-0.006-0.014-0.011-0.019
		l0,0c-0.007-0.007-0.005-0.02-0.014-0.026l0.001,0.001c-0.003-0.005-0.007-0.009-0.009-0.014c-0.004-0.002-0.005-0.005-0.004-0.009
		c-0.002-0.007-0.006-0.012-0.01-0.017c-0.003-0.002-0.004-0.004-0.003-0.007c-0.001-0.008-0.006-0.013-0.011-0.018l0,0
		c-0.008-0.007-0.005-0.019-0.014-0.025l0,0c-0.007-0.007-0.005-0.02-0.014-0.026l0.001,0.001c-0.003-0.005-0.007-0.01-0.01-0.015
		c-0.004-0.002-0.005-0.004-0.004-0.008c-0.001-0.007-0.006-0.012-0.011-0.018l0-0.001c-0.009-0.006-0.006-0.018-0.013-0.025l0,0
		c-0.008-0.007-0.005-0.019-0.014-0.025l0,0.001c-0.004-0.004-0.007-0.009-0.009-0.014c-0.004-0.002-0.005-0.005-0.004-0.009
		c-0.007-0.015-0.007-0.029-0.001-0.044c0.002-0.004,0.004-0.008,0.006-0.013c0.002-0.004,0.005-0.009,0.008-0.013
		c0.002-0.004,0.004-0.009,0.005-0.013c0.002-0.004,0.005-0.008,0.008-0.012c0.002-0.005,0.004-0.009,0.005-0.014
		c0.002-0.004,0.004-0.008,0.008-0.011l0.001-0.001c0.008-0.006,0.005-0.017,0.012-0.024l0.001-0.002
		c0.008-0.006,0.005-0.018,0.012-0.024l0.001-0.002c0.008-0.006,0.005-0.018,0.012-0.024l0.001-0.002
		c0.005-0.005,0.01-0.009,0.009-0.017c-0.001-0.004,0-0.007,0.004-0.009c0.005-0.005,0.009-0.009,0.009-0.016
		c-0.001-0.004,0.001-0.007,0.005-0.009c0.004-0.005,0.009-0.009,0.009-0.016c-0.001-0.004,0.001-0.008,0.005-0.01
		c0.004-0.004,0.007-0.01,0.009-0.015c-0.001-0.005,0.001-0.008,0.005-0.01c0.004-0.004,0.007-0.009,0.009-0.015
		c-0.001-0.005,0.001-0.008,0.004-0.011c0.003-0.004,0.006-0.009,0.009-0.014c0.002-0.004,0.003-0.008,0.005-0.012
		c0.003-0.005,0.006-0.009,0.008-0.014c0.002-0.004,0.003-0.008,0.005-0.012c0.003-0.005,0.005-0.009,0.008-0.014
		c0.002-0.004,0.004-0.008,0.005-0.012C19.348,10.518,19.351,10.514,19.354,10.51L19.354,10.51z"/>
	<path fill="#FDA517" d="M14.685,6.734c0-0.027,0.014-0.04,0.04-0.04c0.092,0,0.183-0.021,0.275-0.014
		c0.019,0.002,0.039,0.002,0.057-0.006c0.023-0.01,0.046-0.006,0.07-0.007c0.053-0.002,0.106,0.003,0.16-0.01
		c0.032-0.008,0.068-0.002,0.103-0.002c0.026,0,0.051,0,0.076-0.008c0.02-0.006,0.042-0.004,0.064-0.005
		c0.057-0.002,0.115,0.006,0.172-0.011c0.02-0.006,0.043-0.001,0.064-0.002c0.036-0.001,0.072-0.001,0.108-0.009
		c0.037-0.008,0.077-0.003,0.115-0.004c0.034-0.001,0.068,0.002,0.102-0.009c0.019-0.006,0.042-0.003,0.064-0.003
		c0.055-0.002,0.111,0.005,0.166-0.011c0.02-0.006,0.043-0.001,0.064-0.002c0.036-0.001,0.072-0.003,0.108-0.009
		c0.05-0.008,0.101-0.008,0.152-0.005c0.04,0.074,0.06,0.155,0.076,0.237c0.033,0.164,0.044,0.33,0.033,0.498
		c-0.004,0.066-0.007,0.132-0.018,0.198c-0.002,0.013-0.001,0.026-0.01,0.036c-0.056-0.016-0.112-0.021-0.17-0.004
		c-0.014,0.004-0.03,0.002-0.045,0.003c-0.064,0.002-0.127-0.004-0.191,0.011c-0.03,0.007-0.064,0.001-0.096,0.002
		c-0.032,0-0.064-0.002-0.095,0.01c-0.013,0.005-0.029,0.003-0.044,0.003c-0.045,0-0.09,0-0.134,0
		c0.066-0.142,0.08-0.292,0.062-0.446c-0.003-0.025-0.008-0.051-0.014-0.076c-0.043-0.179-0.163-0.283-0.347-0.303
		c-0.086-0.009-0.171-0.003-0.257,0.005c-0.107,0.01-0.212,0.031-0.313,0.066c-0.021,0.007-0.042,0.008-0.063,0.003
		c-0.106-0.026-0.212-0.051-0.318-0.077C14.695,6.742,14.69,6.737,14.685,6.734z"/>
	<path fill="#FE5B0D" d="M14.567,5.633c0,0.041,0.001,0.081,0.001,0.122c0,0.013,0,0.026-0.011,0.035
		C14.556,5.738,14.552,5.685,14.567,5.633z"/>
	<path fill="#FE5B0D" d="M14.554,5.866c0,0.034,0.001,0.068,0.001,0.101c0,0.011-0.002,0.021-0.01,0.029
		C14.543,5.952,14.54,5.908,14.554,5.866z"/>
	<path fill="#FE5B0D" d="M15.214,5.754c0.001-0.027-0.01-0.055,0.01-0.079C15.225,5.702,15.227,5.729,15.214,5.754z"/>
	<path fill="#FE5B0D" d="M15.201,5.87c0.001-0.027-0.01-0.055,0.01-0.079C15.212,5.818,15.214,5.845,15.201,5.87z"/>
	<path fill="#FE5B0D" d="M15.188,5.986c0-0.022-0.008-0.046,0.009-0.066C15.199,5.943,15.2,5.966,15.188,5.986z"/>
	<path fill="#FDA517" d="M16.71,7.624c0-0.019-0.007-0.039,0.011-0.054C16.724,7.59,16.722,7.608,16.71,7.624z"/>
	<path fill="#FDA517" d="M16.698,7.677c-0.002-0.016-0.004-0.031,0.011-0.043C16.711,7.65,16.709,7.665,16.698,7.677z"/>
	<path fill="#FDA517" d="M16.685,7.728c-0.001-0.015-0.003-0.031,0.012-0.041C16.698,7.702,16.696,7.716,16.685,7.728z"/>
	<path fill="#FDA917" d="M19.16,10.883c0,0.015,0,0.029,0.001,0.044C19.144,10.906,19.144,10.904,19.16,10.883z"/>
	<path fill="#FE5F0D" d="M21.225,6.268c0.011,0.005,0.014,0.015,0.014,0.026C21.229,6.288,21.224,6.279,21.225,6.268z"/>
	<path fill="#FE3607" d="M20.038,3.985C20.049,3.991,20.052,4,20.051,4.012C20.042,4.005,20.038,3.996,20.038,3.985z"/>
	<path fill="#FE5F0D" d="M21.384,6.578c0.011,0.008,0.012,0.016,0,0.024C21.384,6.594,21.384,6.586,21.384,6.578z"/>
	<path fill="#FE3607" d="M20.065,4.037c0.01,0.005,0.013,0.015,0.013,0.025C20.069,4.056,20.064,4.048,20.065,4.037z"/>
	<path fill="#FE3607" d="M20.078,4.062c0.01,0.005,0.013,0.015,0.013,0.025C20.081,4.082,20.078,4.073,20.078,4.062z"/>
	<path fill="#FE7010" d="M12.696,7.196c-0.01-0.005-0.013-0.014-0.013-0.024C12.693,7.178,12.697,7.185,12.696,7.196z"/>
	<path fill="#FE3607" d="M19.743,3.417c0.01,0.006,0.012,0.015,0.013,0.025C19.747,3.436,19.743,3.428,19.743,3.417z"/>
	<path fill="#FE5F0D" d="M21.212,6.242c0.012,0.005,0.015,0.015,0.014,0.027C21.215,6.263,21.212,6.254,21.212,6.242z"/>
	<path fill="#FE5F0D" d="M21.238,6.294c0.011,0.005,0.014,0.015,0.014,0.026C21.242,6.314,21.238,6.305,21.238,6.294z"/>
	<path fill="#FE5F0D" d="M21.252,6.319c0.011,0.005,0.014,0.015,0.013,0.026C21.255,6.339,21.251,6.33,21.252,6.319z"/>
	<path fill="#FE5F0D" d="M21.265,6.345c0.01,0.005,0.013,0.015,0.013,0.026C21.268,6.365,21.265,6.356,21.265,6.345z"/>
	<path fill="#FE5F0D" d="M21.278,6.371c0.01,0.005,0.013,0.015,0.013,0.025C21.282,6.39,21.278,6.382,21.278,6.371z"/>
	<path fill="#FE7010" d="M11.652,7.364c0.01,0.005,0.013,0.015,0.013,0.025C11.656,7.383,11.651,7.375,11.652,7.364z"/>
	<path fill="#FE3607" d="M19.857,3.637c0.011,0.005,0.014,0.015,0.013,0.026C19.861,3.657,19.857,3.648,19.857,3.637z"/>
	<path fill="#FE3607" d="M19.87,3.663c0.011,0.005,0.014,0.015,0.013,0.026C19.875,3.683,19.87,3.674,19.87,3.663z"/>
	<path fill="#FE7010" d="M11.793,7.635c0.011,0.005,0.014,0.015,0.013,0.026C11.796,7.655,11.793,7.646,11.793,7.635z"/>
	<path fill="#FE3607" d="M19.884,3.688c0.011,0.005,0.013,0.015,0.013,0.026C19.888,3.708,19.883,3.7,19.884,3.688z"/>
	<path fill="#FE7010" d="M11.806,7.661c0.011,0.005,0.013,0.015,0.013,0.026C11.81,7.681,11.806,7.672,11.806,7.661z"/>
	<path fill="#FE7010" d="M11.819,7.686c0.01,0.005,0.013,0.015,0.013,0.026C11.824,7.706,11.819,7.697,11.819,7.686z"/>
	<path fill="#FE3607" d="M19.897,3.714c0.01,0.005,0.013,0.015,0.013,0.025C19.901,3.733,19.896,3.725,19.897,3.714z"/>
	<path fill="#FDA517" d="M16.672,7.768c-0.002-0.012-0.001-0.022,0.01-0.03C16.684,7.75,16.682,7.76,16.672,7.768z"/>
	<path fill="#FDA517" d="M16.646,7.844c-0.001-0.011,0-0.022,0.011-0.028C16.658,7.827,16.655,7.836,16.646,7.844z"/>
	<path fill="#FDA517" d="M16.62,7.906c-0.001-0.011,0.002-0.021,0.012-0.027C16.633,7.891,16.629,7.9,16.62,7.906z"/>
	<path fill="#FDA517" d="M16.607,7.934c-0.001-0.012,0.001-0.022,0.013-0.028C16.621,7.917,16.616,7.927,16.607,7.934z"/>
	<path fill="#FE3607" d="M19.91,3.74c0.01,0.006,0.013,0.015,0.013,0.025C19.914,3.759,19.91,3.751,19.91,3.74z"/>
	<path fill="#FDA517" d="M16.567,8.008c0-0.011,0.003-0.02,0.014-0.025C16.581,7.994,16.577,8.003,16.567,8.008z"/>
	<path fill="#FE7010" d="M11.625,7.312c0.011,0.005,0.014,0.015,0.013,0.026C11.629,7.333,11.625,7.323,11.625,7.312z"/>
	<path fill="#FE7010" d="M12.71,7.222c-0.01-0.005-0.013-0.014-0.013-0.024C12.706,7.203,12.71,7.211,12.71,7.222z"/>
	<path fill="#FE7010" d="M11.639,7.338c0.011,0.005,0.013,0.015,0.013,0.026C11.642,7.358,11.639,7.349,11.639,7.338z"/>
	<path fill="#FDA517" d="M16.66,7.807c-0.002-0.012-0.001-0.023,0.011-0.03C16.672,7.788,16.669,7.799,16.66,7.807z"/>
	<path fill="#FDA917" d="M20.182,11.093c-0.001-0.012,0.001-0.022,0.014-0.027C20.195,11.077,20.192,11.087,20.182,11.093z"/>
	<path fill="#FDA917" d="M20.362,10.744c-0.001-0.012,0.001-0.022,0.014-0.027C20.375,10.729,20.373,10.739,20.362,10.744z"/>
	<path fill="#FDA917" d="M19.239,10.732c0,0.01-0.002,0.019-0.012,0.024C19.226,10.745,19.23,10.737,19.239,10.732z"/>
	<path fill="#FDA917" d="M20.349,10.77c-0.001-0.012,0.002-0.021,0.014-0.026C20.363,10.755,20.359,10.764,20.349,10.77z"/>
	<path fill="#FDA917" d="M19.225,10.757c0.001,0.01-0.002,0.019-0.012,0.024C19.213,10.771,19.216,10.762,19.225,10.757z"/>
	<path fill="#FDA917" d="M20.336,10.795c-0.001-0.012,0.002-0.021,0.013-0.026C20.35,10.78,20.345,10.789,20.336,10.795z"/>
	<path fill="#FDA917" d="M19.212,10.782c0.001,0.01-0.002,0.019-0.012,0.024C19.2,10.796,19.202,10.788,19.212,10.782z"/>
	<path fill="#FDA917" d="M20.323,10.821c-0.001-0.011,0.002-0.021,0.014-0.026C20.337,10.806,20.332,10.815,20.323,10.821z"/>
	<path fill="#FDA917" d="M20.31,10.846c0-0.011,0.003-0.02,0.013-0.026C20.323,10.832,20.319,10.84,20.31,10.846z"/>
	<path fill="#FDA917" d="M20.296,10.872c0-0.011,0.003-0.02,0.013-0.026C20.31,10.857,20.306,10.866,20.296,10.872z"/>
	<path fill="#FDA917" d="M20.283,10.897c0-0.011,0.003-0.02,0.013-0.025C20.297,10.883,20.292,10.891,20.283,10.897z"/>
	<path fill="#FE7010" d="M12.723,7.247c-0.011-0.005-0.013-0.014-0.013-0.024C12.719,7.228,12.723,7.237,12.723,7.247z"/>
	<path fill="#FDA917" d="M19.173,10.95c0.011,0.005,0.014,0.014,0.014,0.025C19.177,10.969,19.173,10.961,19.173,10.95z"/>
	<path fill="#FDA917" d="M19.187,10.975c0.01,0.005,0.013,0.014,0.013,0.025C19.192,10.994,19.187,10.986,19.187,10.975z"/>
	<path fill="#FE7010" d="M12.683,7.17c-0.01-0.005-0.012-0.014-0.012-0.024C12.68,7.152,12.684,7.16,12.683,7.17z"/>
	<path fill="#FDA917" d="M19.224,11.04c0.011,0.005,0.015,0.014,0.014,0.026C19.228,11.061,19.225,11.051,19.224,11.04z"/>
	<path fill="#FDA917" d="M19.238,11.066c0.011,0.005,0.014,0.014,0.014,0.025C19.243,11.085,19.238,11.076,19.238,11.066z"/>
	<path fill="#FDA917" d="M20.168,11.118c-0.001-0.012,0.002-0.021,0.014-0.026C20.182,11.103,20.178,11.112,20.168,11.118z"/>
	<path fill="#FDA917" d="M20.155,11.143c-0.001-0.011,0.003-0.021,0.014-0.026C20.169,11.129,20.165,11.137,20.155,11.143z"/>
	<path fill="#FDA917" d="M20.142,11.169c0-0.011,0.003-0.02,0.013-0.026C20.156,11.154,20.152,11.163,20.142,11.169z"/>
	<path fill="#FDA917" d="M19.289,11.156c0.011,0.005,0.014,0.014,0.014,0.026C19.294,11.176,19.289,11.167,19.289,11.156z"/>
	<path fill="#FDA917" d="M20.129,11.194c0-0.011,0.003-0.02,0.013-0.026C20.142,11.179,20.139,11.189,20.129,11.194z"/>
	<path fill="#FDA917" d="M20.116,11.22c0-0.011,0.003-0.02,0.013-0.026C20.129,11.205,20.125,11.214,20.116,11.22z"/>
	<path fill="#FDA917" d="M19.354,11.272c0.011,0.005,0.014,0.014,0.014,0.025C19.359,11.291,19.354,11.283,19.354,11.272z"/>
	<path fill="#FDA917" d="M19.405,11.362c0.011,0.005,0.014,0.014,0.014,0.026C19.409,11.383,19.406,11.373,19.405,11.362z"/>
	<path fill="#FDA917" d="M19.419,11.388c0.011,0.005,0.014,0.014,0.014,0.025C19.424,11.407,19.419,11.399,19.419,11.388z"/>
	<path fill="#FDA917" d="M19.47,11.478c0.011,0.005,0.014,0.014,0.014,0.025C19.475,11.497,19.47,11.489,19.47,11.478z"/>
	<path fill="#FE7010" d="M12.656,7.118c-0.006-0.003-0.009-0.009-0.009-0.016C12.654,7.105,12.657,7.111,12.656,7.118z"/>
	<path fill="#FE7010" d="M12.67,7.145c-0.007-0.004-0.01-0.01-0.009-0.018C12.667,7.131,12.67,7.137,12.67,7.145z"/>
	<path fill="#FE7010" d="M11.564,7.196c0.003,0.005,0.006,0.011,0.01,0.016C11.567,7.209,11.563,7.204,11.564,7.196z"/>
	<path fill="#FE7010" d="M11.577,7.222c0.003,0.005,0.006,0.011,0.009,0.016C11.58,7.235,11.577,7.229,11.577,7.222z"/>
	<path fill="#FE7010" d="M11.59,7.248c0.003,0.005,0.006,0.01,0.009,0.016C11.593,7.26,11.59,7.255,11.59,7.248z"/>
	<path fill="#FE7010" d="M12.731,7.26c-0.003-0.004-0.005-0.008-0.008-0.012C12.729,7.25,12.732,7.253,12.731,7.26z"/>
	<path fill="#FE7010" d="M11.604,7.274c0.003,0.005,0.006,0.01,0.009,0.015C11.607,7.285,11.603,7.281,11.604,7.274z"/>
	<path fill="#FE7010" d="M12.745,7.286c-0.003-0.004-0.005-0.008-0.008-0.012C12.743,7.275,12.745,7.279,12.745,7.286z"/>
	<path fill="#FE7010" d="M11.617,7.299c0.003,0.004,0.006,0.009,0.009,0.013C11.619,7.311,11.616,7.306,11.617,7.299z"/>
	<path fill="#FE7010" d="M12.758,7.311c-0.003-0.004-0.005-0.009-0.008-0.013C12.755,7.301,12.758,7.305,12.758,7.311z"/>
	<path fill="#FE7010" d="M12.771,7.337c-0.003-0.005-0.005-0.009-0.008-0.014C12.769,7.326,12.771,7.331,12.771,7.337z"/>
	<path fill="#FE3607" d="M20.861,3.391c-0.003-0.004-0.006-0.009-0.008-0.013C20.858,3.38,20.862,3.384,20.861,3.391z"/>
	<path fill="#FE7010" d="M12.798,7.389c-0.006-0.003-0.009-0.008-0.009-0.015C12.796,7.377,12.799,7.382,12.798,7.389z"/>
	<path fill="#FE7010" d="M11.665,7.39c0.007,0.004,0.011,0.011,0.011,0.019C11.668,7.405,11.665,7.398,11.665,7.39z"/>
	<path fill="#FE7010" d="M12.811,7.415c-0.006-0.003-0.009-0.008-0.009-0.015C12.809,7.402,12.812,7.407,12.811,7.415z"/>
	<path fill="#FE7010" d="M11.678,7.415c0.007,0.004,0.01,0.011,0.011,0.019C11.681,7.43,11.678,7.424,11.678,7.415z"/>
	<path fill="#FE7010" d="M12.824,7.44c-0.006-0.003-0.009-0.008-0.009-0.015C12.822,7.428,12.825,7.433,12.824,7.44z"/>
	<path fill="#FE7010" d="M11.692,7.441c0.007,0.004,0.01,0.011,0.01,0.019C11.695,7.456,11.692,7.449,11.692,7.441z"/>
	<path fill="#FE7010" d="M11.705,7.467c0.007,0.004,0.01,0.01,0.01,0.018C11.708,7.481,11.705,7.475,11.705,7.467z"/>
	<path fill="#FE7010" d="M11.718,7.493c0.006,0.004,0.01,0.01,0.01,0.017C11.721,7.506,11.718,7.501,11.718,7.493z"/>
	<path fill="#FE7010" d="M11.731,7.519c0.003,0.005,0.006,0.011,0.01,0.016C11.734,7.532,11.731,7.526,11.731,7.519z"/>
	<path fill="#FE3607" d="M20.874,3.417c-0.003-0.005-0.006-0.009-0.008-0.014C20.871,3.406,20.874,3.41,20.874,3.417z"/>
	<path fill="#FE7010" d="M11.745,7.545c0.003,0.005,0.006,0.011,0.009,0.016C11.747,7.557,11.744,7.552,11.745,7.545z"/>
	<path fill="#FE7010" d="M11.758,7.57c0.003,0.005,0.006,0.01,0.009,0.016C11.761,7.583,11.758,7.578,11.758,7.57z"/>
	<path fill="#FE3607" d="M20.887,3.443c-0.003-0.005-0.006-0.01-0.008-0.014C20.885,3.431,20.888,3.436,20.887,3.443z"/>
	<path fill="#FDA517" d="M15.946,7.58c0,0.007-0.003,0.012-0.01,0.015C15.937,7.588,15.94,7.583,15.946,7.58z"/>
	<path fill="#FE7010" d="M11.771,7.596c0.003,0.005,0.006,0.01,0.009,0.015C11.774,7.608,11.771,7.603,11.771,7.596z"/>
	<path fill="#FDA517" d="M15.935,7.598c-0.003,0.003-0.005,0.007-0.008,0.01C15.926,7.602,15.929,7.599,15.935,7.598z"/>
	<path fill="#FE7010" d="M11.784,7.622c0.003,0.005,0.006,0.009,0.009,0.014C11.787,7.633,11.784,7.629,11.784,7.622z"/>
	<path fill="#FDA517" d="M15.921,7.619c-0.001,0.007-0.005,0.012-0.011,0.014C15.91,7.626,15.914,7.622,15.921,7.619z"/>
	<path fill="#FE3607" d="M19.756,3.443c0.007,0.004,0.01,0.011,0.011,0.019C19.759,3.457,19.756,3.451,19.756,3.443z"/>
	<path fill="#FDA517" d="M15.908,7.634c-0.001,0.007-0.005,0.011-0.011,0.012C15.897,7.639,15.901,7.635,15.908,7.634z"/>
	<path fill="#FE3607" d="M20.9,3.468c-0.003-0.005-0.006-0.01-0.009-0.015C20.898,3.456,20.901,3.461,20.9,3.468z"/>
	<path fill="#FDA517" d="M15.896,7.649c-0.004,0.004-0.007,0.007-0.011,0.011C15.885,7.653,15.889,7.649,15.896,7.649z"/>
	<path fill="#FE3607" d="M19.769,3.469c0.007,0.004,0.01,0.01,0.01,0.018C19.773,3.483,19.769,3.477,19.769,3.469z"/>
	<path fill="#FDA517" d="M15.883,7.662c-0.004,0.003-0.007,0.007-0.011,0.01C15.872,7.665,15.876,7.662,15.883,7.662z"/>
	<path fill="#FDA517" d="M15.869,7.674c-0.001,0.006-0.005,0.01-0.011,0.011C15.859,7.678,15.862,7.674,15.869,7.674z"/>
	<path fill="#FE3607" d="M19.783,3.495c0.006,0.004,0.01,0.01,0.01,0.017C19.786,3.508,19.782,3.503,19.783,3.495z"/>
	<path fill="#FDA517" d="M15.856,7.686c-0.002,0.007-0.007,0.011-0.014,0.01C15.844,7.689,15.849,7.686,15.856,7.686z"/>
	<path fill="#FE3607" d="M19.796,3.521c0.003,0.006,0.006,0.011,0.009,0.017C19.799,3.534,19.796,3.528,19.796,3.521z"/>
	<path fill="#FE7010" d="M11.833,7.712c0.007,0.004,0.011,0.011,0.011,0.019C11.836,7.727,11.832,7.721,11.833,7.712z"/>
	<path fill="#FE7010" d="M11.846,7.738c0.007,0.004,0.01,0.011,0.011,0.019C11.849,7.753,11.846,7.746,11.846,7.738z"/>
	<path fill="#FE3607" d="M19.809,3.547c0.003,0.005,0.006,0.011,0.009,0.016C19.812,3.559,19.809,3.554,19.809,3.547z"/>
	<path fill="#FE7010" d="M11.859,7.764c0.007,0.004,0.01,0.011,0.01,0.019C11.862,7.778,11.859,7.772,11.859,7.764z"/>
	<path fill="#FE7010" d="M12.784,7.363c-0.006-0.003-0.008-0.008-0.008-0.014C12.783,7.351,12.785,7.356,12.784,7.363z"/>
	<path fill="#FE7010" d="M11.873,7.79c0.007,0.004,0.01,0.01,0.01,0.018C11.875,7.803,11.872,7.797,11.873,7.79z"/>
	<path fill="#FE7010" d="M11.886,7.815c0.006,0.004,0.01,0.009,0.01,0.017C11.889,7.829,11.885,7.823,11.886,7.815z"/>
	<path fill="#FE3607" d="M19.822,3.572c0.003,0.005,0.006,0.01,0.009,0.015C19.825,3.585,19.822,3.58,19.822,3.572z"/>
	<path fill="#FE7010" d="M11.899,7.841c0.003,0.005,0.006,0.011,0.01,0.016C11.902,7.854,11.899,7.849,11.899,7.841z"/>
	<path fill="#FDA517" d="M16.634,7.873c-0.001-0.008,0.002-0.014,0.009-0.019C16.643,7.862,16.641,7.869,16.634,7.873z"/>
	<path fill="#FE7010" d="M11.912,7.867c0.003,0.005,0.006,0.011,0.009,0.016C11.915,7.88,11.912,7.875,11.912,7.867z"/>
	<path fill="#FE3607" d="M19.836,3.598c0.003,0.005,0.006,0.01,0.009,0.015C19.838,3.61,19.835,3.606,19.836,3.598z"/>
	<path fill="#FE7010" d="M11.926,7.893c0.006,0.003,0.009,0.009,0.009,0.016C11.928,7.905,11.925,7.9,11.926,7.893z"/>
	<path fill="#FE3607" d="M19.849,3.624c0.003,0.005,0.006,0.009,0.009,0.014C19.851,3.636,19.848,3.631,19.849,3.624z"/>
	<path fill="#FDA517" d="M16.594,7.959c0.003-0.005,0.006-0.01,0.009-0.015C16.604,7.952,16.6,7.956,16.594,7.959z"/>
	<path fill="#FE3607" d="M19.923,3.765c0.007,0.004,0.01,0.011,0.01,0.019C19.927,3.78,19.924,3.774,19.923,3.765z"/>
	<path fill="#FDA517" d="M16.581,7.984c0.003-0.004,0.006-0.009,0.009-0.013C16.591,7.977,16.587,7.982,16.581,7.984z"/>
	<path fill="#FE3607" d="M19.937,3.792c0.007,0.004,0.01,0.01,0.01,0.018C19.94,3.805,19.937,3.8,19.937,3.792z"/>
	<path fill="#FDA517" d="M16.556,8.026c0-0.008,0.004-0.014,0.011-0.018C16.567,8.017,16.564,8.023,16.556,8.026z"/>
	<path fill="#FDA517" d="M16.542,8.048c0.003-0.005,0.007-0.009,0.01-0.014C16.553,8.042,16.549,8.046,16.542,8.048z"/>
	<path fill="#FDA517" d="M16.531,8.067c0-0.009,0.004-0.015,0.012-0.019C16.542,8.056,16.538,8.063,16.531,8.067z"/>
	<path fill="#FE3607" d="M19.95,3.817c0.006,0.004,0.01,0.01,0.01,0.017C19.953,3.831,19.95,3.825,19.95,3.817z"/>
	<path fill="#FE3607" d="M19.964,3.843c0.003,0.006,0.006,0.011,0.009,0.017C19.966,3.857,19.963,3.851,19.964,3.843z"/>
	<path fill="#FE3607" d="M19.977,3.869c0.003,0.005,0.006,0.011,0.009,0.016C19.98,3.882,19.977,3.877,19.977,3.869z"/>
	<path fill="#FE3607" d="M19.99,3.895c0.003,0.005,0.006,0.01,0.009,0.016C19.993,3.907,19.99,3.902,19.99,3.895z"/>
	<path fill="#FE3607" d="M20.003,3.921c0.003,0.005,0.006,0.01,0.009,0.015C20.006,3.933,20.003,3.928,20.003,3.921z"/>
	<path fill="#FDA917" d="M19.354,10.51c-0.003,0.004-0.005,0.008-0.008,0.013C19.345,10.516,19.348,10.512,19.354,10.51z"/>
	<path fill="#FDA917" d="M19.341,10.535c-0.003,0.005-0.005,0.009-0.008,0.014C19.332,10.542,19.334,10.537,19.341,10.535z"/>
	<path fill="#FDA917" d="M20.453,10.569c0-0.008,0.004-0.015,0.011-0.019C20.464,10.558,20.461,10.564,20.453,10.569z"/>
	<path fill="#FDA917" d="M19.327,10.56c0,0.006-0.003,0.011-0.008,0.014C19.318,10.568,19.321,10.563,19.327,10.56z"/>
	<path fill="#FDA917" d="M20.44,10.594c0-0.008,0.004-0.014,0.011-0.019C20.451,10.584,20.448,10.59,20.44,10.594z"/>
	<path fill="#FDA917" d="M19.314,10.586c0,0.007-0.003,0.011-0.009,0.014C19.305,10.593,19.308,10.588,19.314,10.586z"/>
	<path fill="#FDA917" d="M20.427,10.619c0-0.008,0.003-0.014,0.01-0.018C20.438,10.609,20.435,10.615,20.427,10.619z"/>
	<path fill="#FDA917" d="M19.301,10.611c0,0.007-0.003,0.012-0.009,0.015C19.292,10.619,19.295,10.614,19.301,10.611z"/>
	<path fill="#FDA917" d="M20.414,10.645c0-0.008,0.003-0.014,0.01-0.018C20.424,10.635,20.421,10.641,20.414,10.645z"/>
	<path fill="#FDA917" d="M19.288,10.636c0.001,0.007-0.002,0.012-0.009,0.015C19.279,10.644,19.281,10.639,19.288,10.636z"/>
	<path fill="#FDA917" d="M20.401,10.67c0-0.008,0.003-0.013,0.01-0.017C20.411,10.66,20.408,10.666,20.401,10.67z"/>
	<path fill="#FE3607" d="M20.016,3.947c0.003,0.005,0.006,0.01,0.009,0.014C20.019,3.958,20.016,3.954,20.016,3.947z"/>
	<path fill="#FDA917" d="M20.388,10.695c0-0.007,0.003-0.013,0.01-0.016C20.398,10.686,20.395,10.691,20.388,10.695z"/>
	<path fill="#FDA917" d="M19.262,10.687c0.001,0.007-0.002,0.013-0.009,0.016C19.252,10.696,19.255,10.69,19.262,10.687z"/>
	<path fill="#FDA917" d="M20.375,10.719c0.003-0.005,0.006-0.01,0.009-0.015C20.385,10.711,20.382,10.716,20.375,10.719z"/>
	<path fill="#FDA917" d="M19.249,10.713c0.001,0.008-0.003,0.013-0.009,0.017C19.239,10.722,19.242,10.716,19.249,10.713z"/>
	<path fill="#FE3607" d="M20.057,4.024c0.003,0.004,0.005,0.008,0.008,0.012C20.059,4.034,20.056,4.03,20.057,4.024z"/>
	<path fill="#FE3607" d="M13.679,4.093c0-0.008,0.004-0.014,0.01-0.018C13.689,4.083,13.686,4.089,13.679,4.093z"/>
	<path fill="#FE3607" d="M13.666,4.119c0-0.008,0.003-0.014,0.01-0.018C13.676,4.109,13.673,4.115,13.666,4.119z"/>
	<path fill="#FE3607" d="M13.653,4.144c0-0.007,0.003-0.013,0.009-0.017C13.662,4.134,13.659,4.14,13.653,4.144z"/>
	<path fill="#FE5F0D" d="M22.308,6.177c-0.006-0.004-0.009-0.009-0.009-0.016C22.306,6.164,22.308,6.169,22.308,6.177z"/>
	<path fill="#FE5F0D" d="M22.321,6.202c-0.007-0.004-0.01-0.009-0.009-0.017C22.319,6.189,22.322,6.195,22.321,6.202z"/>
	<path fill="#FE3607" d="M20.03,3.973c0.003,0.004,0.006,0.009,0.009,0.013C20.032,3.984,20.029,3.979,20.03,3.973z"/>
	<path fill="#FDA917" d="M19.199,10.808c-0.003,0.004-0.005,0.007-0.008,0.011C19.19,10.813,19.193,10.809,19.199,10.808z"/>
	<path fill="#FE5F0D" d="M21.291,6.396c0.007,0.004,0.011,0.011,0.011,0.019C21.294,6.411,21.291,6.405,21.291,6.396z"/>
	<path fill="#FDA917" d="M19.186,10.833c-0.003,0.004-0.005,0.008-0.008,0.012C19.177,10.839,19.18,10.835,19.186,10.833z"/>
	<path fill="#FE5F0D" d="M21.304,6.422c0.007,0.004,0.01,0.01,0.01,0.019C21.308,6.437,21.304,6.431,21.304,6.422z"/>
	<path fill="#FDA917" d="M19.173,10.858c-0.003,0.004-0.005,0.009-0.008,0.013C19.164,10.864,19.167,10.86,19.173,10.858z"/>
	<path fill="#FE5F0D" d="M21.318,6.448c0.007,0.004,0.01,0.01,0.01,0.018C21.321,6.462,21.318,6.456,21.318,6.448z"/>
	<path fill="#FE5F0D" d="M21.331,6.474c0.006,0.004,0.009,0.01,0.009,0.018C21.334,6.488,21.331,6.482,21.331,6.474z"/>
	<path fill="#FDA917" d="M20.272,10.916c0-0.008,0.004-0.015,0.011-0.019C20.284,10.906,20.28,10.912,20.272,10.916z"/>
	<path fill="#FDA917" d="M20.26,10.942c0-0.008,0.004-0.014,0.01-0.019C20.271,10.932,20.267,10.938,20.26,10.942z"/>
	<path fill="#FDA917" d="M19.164,10.936c0.003,0.005,0.006,0.009,0.009,0.014C19.167,10.948,19.164,10.943,19.164,10.936z"/>
	<path fill="#FE5F0D" d="M21.344,6.5c0.006,0.004,0.009,0.01,0.009,0.017C21.347,6.513,21.344,6.507,21.344,6.5z"/>
	<path fill="#FDA917" d="M20.247,10.968c0-0.008,0.003-0.014,0.01-0.018C20.257,10.957,20.254,10.964,20.247,10.968z"/>
	<path fill="#FE5F0D" d="M21.358,6.526c0.003,0.005,0.006,0.011,0.009,0.016C21.36,6.538,21.357,6.533,21.358,6.526z"/>
	<path fill="#FDA917" d="M20.234,10.993c0-0.008,0.003-0.014,0.01-0.018C20.244,10.983,20.241,10.989,20.234,10.993z"/>
	<path fill="#FDA917" d="M19.201,11.001c0.007,0.004,0.01,0.01,0.011,0.018C19.205,11.014,19.201,11.009,19.201,11.001z"/>
	<path fill="#FDA917" d="M20.22,11.018c0-0.007,0.003-0.013,0.01-0.017C20.23,11.008,20.227,11.014,20.22,11.018z"/>
	<path fill="#FDA917" d="M19.215,11.027c0.006,0.003,0.009,0.008,0.01,0.015C19.218,11.039,19.215,11.034,19.215,11.027z"/>
	<path fill="#FDA917" d="M20.207,11.043c0.003-0.005,0.006-0.011,0.01-0.016C20.217,11.034,20.214,11.039,20.207,11.043z"/>
	<path fill="#FE5F0D" d="M21.371,6.551c0.006,0.003,0.009,0.009,0.009,0.016C21.374,6.564,21.37,6.559,21.371,6.551z"/>
	<path fill="#FE5F0D" d="M21.379,6.614c-0.003,0.004-0.005,0.009-0.008,0.013C21.371,6.621,21.373,6.617,21.379,6.614z"/>
	<path fill="#FDA917" d="M20.194,11.067c0.003-0.005,0.006-0.01,0.009-0.015C20.205,11.06,20.202,11.065,20.194,11.067z"/>
	<path fill="#FDA917" d="M19.275,10.661c0.001,0.007-0.002,0.013-0.009,0.016C19.266,10.67,19.268,10.665,19.275,10.661z"/>
	<path fill="#FDA917" d="M19.252,11.091c0.007,0.004,0.011,0.01,0.011,0.018C19.256,11.105,19.252,11.099,19.252,11.091z"/>
	<path fill="#FDA917" d="M19.266,11.117c0.006,0.004,0.01,0.009,0.01,0.017C19.269,11.13,19.266,11.125,19.266,11.117z"/>
	<path fill="#FDA917" d="M19.28,11.143c0.003,0.005,0.006,0.009,0.009,0.014C19.283,11.155,19.28,11.15,19.28,11.143z"/>
	<path fill="#FDA917" d="M19.303,11.181c0.007,0.004,0.011,0.011,0.011,0.019C19.307,11.197,19.303,11.19,19.303,11.181z"/>
	<path fill="#FDA917" d="M19.317,11.207c0.007,0.004,0.01,0.01,0.01,0.018C19.32,11.221,19.317,11.215,19.317,11.207z"/>
	<path fill="#FDA917" d="M20.105,11.239c0-0.008,0.004-0.015,0.011-0.019C20.116,11.229,20.112,11.235,20.105,11.239z"/>
	<path fill="#FDA917" d="M19.332,11.233c0.006,0.004,0.009,0.009,0.009,0.016C19.335,11.246,19.331,11.24,19.332,11.233z"/>
	<path fill="#FDA917" d="M20.092,11.265c0-0.008,0.004-0.014,0.01-0.019C20.103,11.254,20.099,11.261,20.092,11.265z"/>
	<path fill="#FDA917" d="M19.345,11.259c0.003,0.005,0.006,0.009,0.009,0.014C19.348,11.27,19.345,11.266,19.345,11.259z"/>
	<path fill="#FDA917" d="M20.079,11.29c0-0.008,0.003-0.014,0.01-0.019C20.09,11.28,20.086,11.286,20.079,11.29z"/>
	<path fill="#FDA917" d="M19.368,11.297c0.007,0.004,0.011,0.011,0.011,0.019C19.372,11.312,19.368,11.306,19.368,11.297z"/>
	<path fill="#FDA917" d="M20.066,11.316c0-0.008,0.003-0.014,0.01-0.018C20.076,11.305,20.073,11.312,20.066,11.316z"/>
	<path fill="#FDA917" d="M19.382,11.323c0.006,0.004,0.01,0.009,0.01,0.017C19.386,11.337,19.382,11.331,19.382,11.323z"/>
	<path fill="#FDA917" d="M20.053,11.34c0-0.007,0.003-0.013,0.01-0.017C20.063,11.331,20.06,11.337,20.053,11.34z"/>
	<path fill="#FDA917" d="M19.396,11.349c0.003,0.005,0.006,0.009,0.01,0.014C19.399,11.361,19.396,11.356,19.396,11.349z"/>
	<path fill="#FDA917" d="M20.04,11.365c0-0.007,0.003-0.013,0.01-0.016C20.05,11.357,20.046,11.362,20.04,11.365z"/>
	<path fill="#FDA917" d="M20.027,11.391c0.003-0.005,0.006-0.011,0.009-0.016C20.037,11.382,20.033,11.388,20.027,11.391z"/>
	<path fill="#FDA917" d="M20.014,11.416c0.003-0.005,0.006-0.01,0.009-0.015C20.023,11.408,20.02,11.413,20.014,11.416z"/>
	<path fill="#FDA917" d="M19.433,11.413c0.007,0.004,0.01,0.01,0.011,0.018C19.437,11.427,19.433,11.422,19.433,11.413z"/>
	<path fill="#FDA917" d="M20.001,11.441c0.003-0.005,0.006-0.01,0.009-0.015C20.01,11.434,20.007,11.438,20.001,11.441z"/>
	<path fill="#FDA917" d="M19.447,11.439c0.003,0.005,0.007,0.011,0.01,0.016C19.45,11.452,19.447,11.447,19.447,11.439z"/>
	<path fill="#FDA917" d="M19.987,11.466c0.003-0.005,0.006-0.009,0.009-0.014C19.997,11.459,19.993,11.464,19.987,11.466z"/>
	<path fill="#FDA917" d="M19.462,11.465c0.003,0.005,0.006,0.009,0.009,0.014C19.464,11.477,19.461,11.472,19.462,11.465z"/>
	<path fill="#FDA917" d="M19.484,11.504c0.007,0.004,0.011,0.011,0.011,0.019C19.488,11.519,19.484,11.512,19.484,11.504z"/>
	<path fill="#FDA717" d="M3.694,8.512c0.025,0,0.048,0,0.072,0c0.314,0,0.628,0,0.942,0c0.03,0,0.06-0.007,0.089,0.009
		C4.8,8.523,4.805,8.523,4.809,8.522C4.872,8.501,4.937,8.513,5,8.513c1.843-0.001,3.686-0.001,5.529,0
		c0.108,0,0.08-0.019,0.128,0.079c0.318,0.643,0.635,1.287,0.952,1.93c0.01,0.021,0.024,0.04,0.026,0.064
		c-0.018,0.012-0.035,0.008-0.052,0.007c-0.437-0.003-0.873-0.006-1.31-0.01c-0.366-0.003-0.731-0.009-1.097-0.013
		c-0.482-0.005-0.963-0.009-1.445-0.013c-0.482-0.004-0.963-0.008-1.445-0.013c-0.363-0.004-0.727-0.009-1.09-0.013
		c-0.191-0.002-0.383-0.004-0.574-0.006c-0.011,0-0.022-0.001-0.032,0c-0.023,0.002-0.035-0.009-0.043-0.029
		c-0.058-0.134-0.117-0.268-0.175-0.402C4.154,9.592,3.935,9.09,3.717,8.588C3.707,8.565,3.691,8.543,3.694,8.512z"/>
	<path fill="#FE3F09" d="M11.538,2.567c0.001,0.031-0.014,0.048-0.023,0.067c-0.191,0.378-0.382,0.755-0.573,1.133
		c-0.129,0.255-0.258,0.51-0.387,0.765c-0.027,0.054-0.019,0.051-0.083,0.051c-0.011,0-0.022,0-0.032,0c-2.243,0-4.485,0-6.728,0
		c-0.025,0-0.051,0.004-0.074-0.005C3.633,4.556,3.646,4.542,3.652,4.527c0.119-0.26,0.238-0.519,0.357-0.779
		c0.173-0.377,0.346-0.754,0.519-1.13C4.564,2.54,4.546,2.552,4.632,2.552c1.223,0.001,2.447,0.003,3.67,0.004
		c0.146,0,0.292,0,0.439,0.002c0.901,0.01,1.802,0.006,2.703,0.008C11.474,2.567,11.504,2.567,11.538,2.567z"/>
	<path fill="#FDC21B" d="M8.877,8.055C8.862,8.068,8.846,8.063,8.832,8.063c-0.314,0-0.628,0-0.942,0c-0.011,0-0.021,0-0.032,0
		c-0.015,0-0.024-0.007-0.03-0.02C7.823,8.031,7.817,8.02,7.811,8.008C7.576,7.53,7.341,7.053,7.105,6.575
		C7.104,6.571,7.101,6.567,7.099,6.564c-0.026-0.056-0.028-0.04,0.002-0.101c0.233-0.462,0.467-0.924,0.701-1.385
		c0.005-0.01,0.01-0.019,0.015-0.029c0.006-0.014,0.017-0.018,0.031-0.018c0.009,0,0.017,0,0.026,0c0.307,0,0.615,0,0.922,0
		c0.011,0,0.021,0.001,0.032,0.001c0.006,0.025-0.01,0.042-0.02,0.06C8.648,5.41,8.486,5.728,8.325,6.046
		C8.26,6.176,8.195,6.307,8.127,6.437C8.111,6.468,8.11,6.493,8.126,6.525C8.309,6.893,8.49,7.261,8.671,7.628
		C8.734,7.755,8.797,7.882,8.859,8.01C8.866,8.025,8.876,8.039,8.877,8.055z"/>
	<path fill="#FE7210" d="M6.038,5.031C6.033,5.063,6.019,5.082,6.009,5.103c-0.167,0.33-0.334,0.659-0.501,0.989
		C5.447,6.212,5.387,6.333,5.325,6.453c-0.017,0.032-0.016,0.057,0,0.089c0.173,0.348,0.345,0.697,0.517,1.046
		c0.068,0.139,0.137,0.277,0.205,0.416c0.007,0.013,0.013,0.027,0.018,0.041c0.003,0.009-0.003,0.017-0.012,0.018
		c-0.015,0.001-0.03,0.001-0.045,0.001c-0.305,0-0.611,0-0.916,0c-0.006,0-0.013-0.001-0.019,0c-0.033,0.005-0.05-0.012-0.064-0.04
		C4.909,7.821,4.809,7.619,4.71,7.417C4.575,7.143,4.44,6.869,4.305,6.596C4.301,6.588,4.299,6.58,4.294,6.573
		C4.275,6.545,4.277,6.52,4.293,6.49c0.073-0.141,0.144-0.284,0.215-0.425C4.672,5.74,4.836,5.417,5,5.093
		c0.005-0.01,0.011-0.019,0.014-0.029c0.01-0.026,0.028-0.033,0.055-0.033c0.234,0.001,0.469,0,0.703,0
		C5.858,5.031,5.944,5.031,6.038,5.031z"/>
	<path fill="#FCEC21" d="M10.293,5.03c-0.003,0.032-0.018,0.051-0.028,0.072c-0.212,0.42-0.425,0.839-0.637,1.258
		c-0.006,0.011-0.01,0.024-0.017,0.034c-0.017,0.024-0.013,0.047,0,0.072c0.068,0.136,0.135,0.273,0.202,0.41
		c0.185,0.375,0.37,0.751,0.555,1.126c0.008,0.017,0.022,0.032,0.021,0.052c-0.011,0.012-0.025,0.007-0.037,0.007
		c-0.32,0-0.64,0-0.961,0c-0.011,0-0.021,0-0.032-0.001c-0.009,0-0.016-0.006-0.02-0.014c-0.008-0.015-0.016-0.03-0.023-0.046
		c-0.24-0.487-0.48-0.974-0.72-1.461C8.592,6.535,8.59,6.529,8.587,6.524C8.57,6.498,8.569,6.474,8.585,6.447
		c0.018-0.029,0.032-0.061,0.047-0.092c0.213-0.421,0.426-0.843,0.64-1.264c0.036-0.072,0.02-0.06,0.096-0.06
		c0.288-0.001,0.576,0,0.864,0C10.251,5.03,10.27,5.03,10.293,5.03z"/>
	<path fill="#FE4A0A" d="M3.897,8.061C3.88,8.062,3.863,8.064,3.846,8.064c-0.099,0-0.198,0-0.297,0
		c-0.067,0-0.059,0.006-0.085-0.054C3.413,7.892,3.361,7.774,3.309,7.656C3.142,7.272,2.975,6.889,2.808,6.505
		C2.803,6.493,2.798,6.481,2.792,6.47C2.78,6.447,2.782,6.425,2.793,6.402c0.022-0.046,0.043-0.094,0.065-0.14
		c0.179-0.39,0.358-0.781,0.537-1.171c0.032-0.069,0.02-0.058,0.089-0.058c0.34-0.001,0.679,0,1.019-0.001c0.017,0,0.034,0,0.051,0
		C4.564,5.056,4.548,5.071,4.54,5.087C4.4,5.365,4.259,5.642,4.118,5.92C4.027,6.1,3.936,6.28,3.845,6.461
		c-0.007,0.013-0.013,0.027-0.02,0.04c-0.01,0.018-0.01,0.036,0,0.055C3.845,6.598,3.867,6.64,3.887,6.683
		c0.026,0.054,0.058,0.105,0.076,0.163C3.951,6.931,3.946,7.017,3.946,7.102c0,0.208-0.021,0.415-0.016,0.623
		C3.932,7.82,3.912,7.913,3.916,8.008C3.917,8.027,3.91,8.046,3.897,8.061z"/>
	<path fill="#FD9815" d="M6.936,5.031c0.116,0,0.232,0,0.348,0c0.017,0,0.034,0,0.052,0C7.353,5.032,7.357,5.04,7.349,5.057
		C7.34,5.076,7.33,5.095,7.32,5.115C7.095,5.559,6.87,6.003,6.646,6.448c-0.039,0.077-0.038,0.052,0,0.129
		c0.23,0.466,0.46,0.932,0.689,1.398c0.01,0.021,0.021,0.042,0.031,0.064c0.007,0.015,0.001,0.023-0.018,0.024
		c-0.013,0.001-0.026,0-0.039,0c-0.239,0-0.477,0-0.716,0c-0.013,0-0.026,0-0.039,0c-0.014,0-0.024-0.007-0.03-0.02
		c-0.006-0.014-0.014-0.027-0.02-0.04C6.268,7.521,6.03,7.04,5.793,6.558C5.76,6.49,5.759,6.511,5.795,6.44
		c0.227-0.448,0.453-0.897,0.68-1.345c0.039-0.077,0.02-0.063,0.106-0.064C6.7,5.03,6.818,5.031,6.936,5.031
		C6.936,5.031,6.936,5.031,6.936,5.031z"/>
	<path fill="#FE5D0D" d="M3.897,8.061c0-0.054,0-0.107-0.001-0.161c0-0.021,0.001-0.042,0.007-0.064
		c0.005-0.018,0.005-0.038,0.005-0.057c0.001-0.082,0-0.163,0-0.245c0-0.036-0.002-0.073,0.01-0.108
		C3.925,7.41,3.922,7.392,3.922,7.375c0-0.082,0-0.163,0-0.245c0-0.034,0.002-0.068,0.009-0.102
		c0.008-0.042,0.004-0.086,0.004-0.128c0-0.024,0.006-0.042,0.028-0.054c0,0,0,0,0,0c0.003,0.005,0.005,0.01,0.009,0.014
		c0.004,0.002,0.005,0.006,0.004,0.01c0.002,0.005,0.005,0.011,0.009,0.016c0.004,0.003,0.005,0.006,0.004,0.01
		c0.002,0.005,0.005,0.011,0.009,0.015c0.004,0.003,0.005,0.006,0.004,0.011c0.003,0.005,0.005,0.01,0.009,0.015
		c0.004,0.003,0.005,0.007,0.004,0.011c0.003,0.005,0.006,0.01,0.009,0.015C4.026,6.967,4.028,6.97,4.027,6.975
		C4.03,6.98,4.032,6.984,4.035,6.989C4.039,6.992,4.041,6.996,4.04,7.001c0.003,0.005,0.006,0.01,0.008,0.014
		C4.05,7.019,4.051,7.023,4.053,7.026c0.003,0.005,0.006,0.01,0.008,0.014c0.002,0.004,0.003,0.008,0.005,0.012
		c0.003,0.005,0.006,0.009,0.008,0.014c0.001,0.004,0.003,0.008,0.004,0.012c0.003,0.004,0.006,0.009,0.008,0.014
		C4.088,7.097,4.09,7.101,4.091,7.105c0.003,0.004,0.006,0.009,0.008,0.013c0.002,0.004,0.003,0.008,0.005,0.012
		C4.107,7.135,4.11,7.139,4.112,7.144C4.14,7.199,4.169,7.254,4.197,7.31c0.115,0.233,0.23,0.466,0.345,0.699
		C4.549,8.024,4.555,8.04,4.56,8.053C4.552,8.065,4.544,8.064,4.535,8.064c-0.206,0-0.413,0-0.619,0
		C3.91,8.064,3.904,8.062,3.897,8.061z"/>
	<path fill="#FE4A0A" d="M4.035,6.989C4.033,6.984,4.03,6.98,4.027,6.975C4.033,6.978,4.036,6.982,4.035,6.989z"/>
	<path fill="#FE4A0A" d="M4.048,7.015C4.045,7.01,4.043,7.005,4.04,7.001C4.046,7.004,4.049,7.008,4.048,7.015z"/>
	<path fill="#FE4A0A" d="M4.061,7.041c-0.003-0.005-0.006-0.01-0.008-0.014C4.059,7.029,4.062,7.034,4.061,7.041z"/>
	<path fill="#FE4A0A" d="M4.074,7.067C4.071,7.062,4.068,7.057,4.065,7.053C4.071,7.055,4.075,7.06,4.074,7.067z"/>
	<path fill="#FE4A0A" d="M4.087,7.092C4.084,7.088,4.081,7.083,4.078,7.079C4.084,7.081,4.087,7.086,4.087,7.092z"/>
	<path fill="#FE4A0A" d="M4.099,7.118C4.097,7.114,4.094,7.109,4.091,7.105C4.097,7.107,4.1,7.112,4.099,7.118z"/>
	<path fill="#FE4A0A" d="M4.112,7.144C4.109,7.139,4.107,7.135,4.104,7.131C4.107,7.135,4.109,7.139,4.112,7.144z"/>
	<path fill="#FE4A0A" d="M3.971,6.86c-0.003-0.005-0.006-0.01-0.009-0.014C3.97,6.849,3.972,6.854,3.971,6.86z"/>
	<path fill="#FE4A0A" d="M3.984,6.886c-0.003-0.005-0.006-0.01-0.009-0.016C3.982,6.874,3.985,6.879,3.984,6.886z"/>
	<path fill="#FE4A0A" d="M3.997,6.912c-0.003-0.005-0.006-0.01-0.009-0.015C3.995,6.9,3.998,6.905,3.997,6.912z"/>
	<path fill="#FE4A0A" d="M4.01,6.938c-0.003-0.005-0.006-0.01-0.009-0.015C4.008,6.926,4.011,6.931,4.01,6.938z"/>
	<path fill="#FE4A0A" d="M4.023,6.964C4.02,6.959,4.017,6.954,4.014,6.949C4.02,6.952,4.023,6.957,4.023,6.964z"/>
	<path fill="#FDAE18" d="M30.152,8.486c-0.002,0.033-0.017,0.055-0.027,0.078c-0.167,0.384-0.334,0.768-0.502,1.152
		c-0.104,0.238-0.208,0.476-0.312,0.714c-0.007,0.016-0.014,0.031-0.021,0.047c-0.006,0.014-0.016,0.019-0.03,0.019
		c-0.013,0-0.026,0-0.039,0c-0.583,0.006-1.165,0.012-1.748,0.018c-0.479,0.005-0.959,0.008-1.438,0.013
		c-0.361,0.004-0.722,0.008-1.083,0.012c-0.482,0.005-0.963,0.009-1.445,0.013c-0.413,0.004-0.826,0.007-1.238,0.011
		c-0.071,0.001-0.073,0.005-0.04-0.062c0.323-0.653,0.644-1.306,0.967-1.959c0.033-0.066,0.02-0.058,0.09-0.058
		c1.892,0,3.784,0,5.676,0c0.021,0,0.043-0.003,0.064,0.005c0.006,0.002,0.013,0.005,0.018,0.003
		c0.04-0.015,0.081-0.007,0.121-0.008c0.303-0.001,0.606,0,0.909,0C30.099,8.486,30.123,8.486,30.152,8.486z"/>
	<path fill="#FE550C" d="M22.299,2.54c0.05,0,0.088,0,0.127,0c0.619-0.001,1.238-0.002,1.858-0.002
		c0.391-0.001,0.783-0.001,1.174-0.002c0.602-0.002,1.204-0.004,1.806-0.006c0.649-0.002,1.299-0.003,1.948-0.005
		c0.088,0,0.069-0.011,0.104,0.065c0.28,0.609,0.559,1.218,0.838,1.827c0.017,0.037,0.034,0.074,0.051,0.111
		c0.008,0.019,0.003,0.031-0.016,0.031c-0.064,0.001-0.129,0-0.193,0c-0.013,0-0.019-0.008-0.021-0.02
		c-0.001-0.009-0.001-0.017-0.001-0.026c0.001-0.028-0.013-0.032-0.037-0.03c-0.012,0.001-0.02,0.007-0.022,0.019
		c-0.003,0.017,0.005,0.037-0.008,0.05c-0.017,0.015-0.041,0.006-0.062,0.008c-0.009,0.001-0.017,0-0.026,0c-2.135,0-4.27,0-6.405,0
		c-0.116,0-0.085,0.02-0.138-0.085c-0.316-0.623-0.631-1.246-0.946-1.869C22.32,2.588,22.312,2.569,22.299,2.54z"/>
	<path fill="#FE4E0B" d="M29.845,8.031c-0.055,0.008-0.331,0.011-0.53,0.006c-0.01,0-0.02-0.002-0.035-0.004
		c0.01-0.022,0.018-0.039,0.026-0.056c0.185-0.376,0.37-0.751,0.556-1.127c0.048-0.098,0.095-0.197,0.146-0.294
		c0.02-0.038,0.02-0.069,0-0.108c-0.149-0.29-0.296-0.582-0.444-0.873c-0.085-0.169-0.171-0.337-0.256-0.506
		c-0.009-0.017-0.016-0.035-0.025-0.054c0.016-0.014,0.034-0.009,0.05-0.009c0.292,0,0.585,0,0.877,0c0.06,0,0.12,0.001,0.181,0
		c0.023,0,0.036,0.008,0.045,0.028c0.034,0.074,0.068,0.148,0.102,0.223c0.164,0.357,0.328,0.714,0.491,1.072
		c0.045,0.099,0.044,0.066,0,0.167c-0.211,0.485-0.422,0.969-0.633,1.453c-0.008,0.018-0.016,0.035-0.023,0.053
		c-0.009,0.025-0.023,0.037-0.052,0.037c-0.133-0.002-0.267-0.001-0.4-0.001c-0.036,0-0.04-0.004-0.04-0.041
		c0-0.006,0.001-0.013-0.002-0.019c-0.002-0.005-0.008-0.012-0.013-0.013c-0.004-0.001-0.012,0.006-0.013,0.011
		c-0.003,0.01-0.002,0.021-0.003,0.032C29.848,8.016,29.846,8.024,29.845,8.031z"/>
	<path fill="#FDB119" d="M24.962,8.034C24.978,8,24.989,7.975,25.001,7.951c0.236-0.479,0.473-0.959,0.709-1.438
		c0.035-0.071,0.034-0.045-0.002-0.117c-0.223-0.441-0.446-0.881-0.669-1.322c-0.01-0.02-0.025-0.04-0.027-0.063
		c0.016-0.012,0.031-0.007,0.046-0.007c0.303,0,0.606,0,0.909,0c0.009,0,0.017,0,0.026,0c0.017-0.001,0.029,0.005,0.036,0.021
		c0.005,0.012,0.012,0.023,0.018,0.034c0.23,0.456,0.461,0.912,0.691,1.368c0.003,0.006,0.005,0.012,0.009,0.017
		c0.022,0.03,0.015,0.058-0.001,0.09c-0.24,0.485-0.479,0.97-0.717,1.456c-0.016,0.033-0.033,0.047-0.072,0.047
		c-0.316-0.002-0.632-0.001-0.948-0.001C24.996,8.037,24.984,8.035,24.962,8.034z"/>
	<path fill="#FE7010" d="M27.776,8.037c0.004-0.032,0.017-0.049,0.026-0.068c0.235-0.478,0.471-0.956,0.706-1.434
		c0.039-0.079,0.039-0.05-0.001-0.129c-0.222-0.441-0.446-0.882-0.669-1.323c-0.011-0.023-0.022-0.046-0.032-0.066
		c0.008-0.018,0.02-0.013,0.03-0.013c0.312,0,0.624,0,0.935-0.001c0.031,0,0.046,0.011,0.059,0.037
		c0.092,0.184,0.186,0.368,0.279,0.552c0.142,0.282,0.285,0.564,0.427,0.846c0.002,0.004,0.004,0.008,0.006,0.011
		c0.025,0.035,0.022,0.068,0.002,0.107c-0.136,0.271-0.269,0.543-0.403,0.814c-0.101,0.204-0.201,0.408-0.302,0.613
		c-0.005,0.01-0.01,0.019-0.014,0.029c-0.007,0.019-0.022,0.025-0.041,0.024c-0.009,0-0.017,0-0.026,0c-0.312,0-0.624,0-0.935,0
		C27.811,8.037,27.796,8.037,27.776,8.037z"/>
	<path fill="#FD9314" d="M26.467,8.037c0.014-0.03,0.022-0.049,0.032-0.068c0.234-0.476,0.469-0.952,0.704-1.428
		c0.034-0.069,0.031-0.049,0-0.112c-0.227-0.449-0.454-0.897-0.68-1.345c-0.011-0.023-0.027-0.044-0.031-0.068
		c0.008-0.017,0.023-0.012,0.034-0.012c0.256,0,0.512,0,0.768-0.001c0.032,0,0.049,0.011,0.064,0.04
		c0.117,0.234,0.236,0.468,0.355,0.702c0.113,0.222,0.225,0.445,0.337,0.667c0.008,0.015,0.015,0.031,0.023,0.046
		c0.005,0.01,0.005,0.021,0,0.031c-0.006,0.012-0.012,0.023-0.017,0.035c-0.239,0.486-0.478,0.971-0.718,1.457
		C27.332,7.99,27.326,8,27.322,8.01c-0.008,0.022-0.024,0.028-0.045,0.027c-0.013-0.001-0.026,0-0.039,0c-0.232,0-0.464,0-0.697,0
		C26.521,8.037,26.499,8.037,26.467,8.037z"/>
	<path fill="#FCDE1F" d="M24.531,7.962c-0.028,0.074-0.028,0.074-0.103,0.074c-0.303,0-0.606,0-0.91,0
		c-0.021,0-0.042,0.004-0.063-0.004c-0.003-0.023,0.011-0.038,0.019-0.055c0.179-0.364,0.359-0.728,0.538-1.092
		c0.07-0.143,0.139-0.286,0.212-0.427c0.02-0.039,0.02-0.068,0-0.107c-0.216-0.423-0.43-0.846-0.644-1.27
		c-0.011-0.023-0.022-0.046-0.032-0.067C23.56,5,23.571,5.004,23.581,5.004c0.305,0,0.611,0,0.916,0c0.009,0,0.017,0.001,0.026,0
		c0.012-0.001,0.021,0.006,0.026,0.016c0.008,0.015,0.014,0.031,0.02,0.047c0.009,0.202,0.015,0.403-0.004,0.605
		c-0.003,0.03-0.002,0.06-0.002,0.09c0,0.292,0.001,0.584,0,0.876c-0.003,0.401-0.02,0.803-0.012,1.204
		C24.551,7.884,24.533,7.921,24.531,7.962z"/>
	<path fill="#FCCC1C" d="M24.531,7.962c-0.004-0.012-0.015-0.023-0.01-0.036c0.013-0.036,0.008-0.072,0.008-0.108
		c0-0.243,0-0.485,0-0.728c0-0.028,0-0.055,0.008-0.083c0.006-0.022,0.004-0.047,0.004-0.07c0-0.406,0-0.812,0-1.217
		c0-0.032-0.002-0.064,0.009-0.095c0.006-0.017,0.003-0.038,0.003-0.057c0-0.142,0-0.283,0-0.425c0-0.026-0.001-0.052,0.014-0.075
		c0.016,0.015,0.023,0.036,0.032,0.055c0.216,0.427,0.432,0.854,0.648,1.282c0.002,0.004,0.003,0.008,0.006,0.011
		c0.023,0.03,0.015,0.057-0.001,0.088c-0.235,0.475-0.469,0.951-0.703,1.427C24.546,7.941,24.538,7.951,24.531,7.962z"/>
	<path d="M18,6.925c0.028-0.016,0.056-0.032,0.083-0.049c0.03-0.019,0.062-0.027,0.098-0.026c0.118,0.001,0.237,0.002,0.355,0
		c0.04-0.001,0.076,0.007,0.11,0.029c0.012,0.008,0.027,0.013,0.04,0.02c0,0,0,0,0,0c0.003,0.005,0.008,0.009,0.013,0.011
		c0.001,0.003,0.003,0.005,0.006,0.004c0.008,0.002,0.013,0.007,0.018,0.013l-0.001-0.001c0.005,0.004,0.01,0.008,0.014,0.013
		l-0.001-0.001c0.005,0.004,0.01,0.008,0.014,0.013l-0.001-0.001c0.005,0.004,0.01,0.008,0.013,0.014L18.76,6.965
		c0.005,0.004,0.01,0.008,0.013,0.014l-0.001-0.001c0.007,0.004,0.012,0.01,0.014,0.018c-0.001,0.003,0,0.006,0.004,0.007
		c0.003,0.005,0.006,0.01,0.01,0.014l0,0c0.008,0.006,0.005,0.019,0.014,0.025l0,0.001c0.004,0.006,0.009,0.011,0.01,0.018
		c0.038,0.095,0.049,0.194,0.04,0.296c-0.005,0.062-0.018,0.123-0.043,0.181c-0.047,0.108-0.127,0.182-0.238,0.22
		c-0.144,0.048-0.29,0.05-0.437,0.009c-0.129-0.036-0.217-0.119-0.261-0.244c-0.042-0.122-0.05-0.247-0.022-0.374
		c0.003-0.012,0.005-0.025,0.008-0.038c0.006-0.008,0.005-0.02,0.011-0.028c0.003-0.001,0.004-0.004,0.003-0.007
		c0.001-0.008,0.006-0.013,0.01-0.019c0.003-0.001,0.004-0.004,0.003-0.007c0.001-0.008,0.006-0.013,0.011-0.019l0,0
		c0.005-0.003,0.008-0.008,0.01-0.013c0.004-0.001,0.005-0.004,0.005-0.008C17.926,7,17.93,6.995,17.936,6.99l0,0
		c0.004-0.004,0.009-0.008,0.012-0.013l0,0c0.005-0.004,0.009-0.008,0.012-0.013l0.001-0.001c0.005-0.003,0.009-0.007,0.012-0.012
		l0.001-0.001c0.005-0.003,0.009-0.007,0.013-0.012l0,0C17.992,6.934,17.996,6.93,18,6.925L18,6.925z"/>
	<path fill="#FD8913" d="M17.883,7.08c0.001,0.011-0.002,0.021-0.011,0.028C17.87,7.097,17.872,7.087,17.883,7.08z"/>
	<path fill="#FD8913" d="M18.814,7.04C18.805,7.035,18.8,7.027,18.8,7.016C18.811,7.02,18.814,7.03,18.814,7.04z"/>
	<path fill="#FD8913" d="M17.973,6.951c-0.001,0.007-0.005,0.011-0.012,0.012C17.962,6.956,17.966,6.952,17.973,6.951z"/>
	<path fill="#FD8913" d="M18.761,6.965c-0.008-0.002-0.012-0.006-0.013-0.014C18.755,6.953,18.759,6.958,18.761,6.965z"/>
	<path fill="#FD8913" d="M17.96,6.964c-0.001,0.007-0.005,0.012-0.012,0.013C17.949,6.97,17.953,6.966,17.96,6.964z"/>
	<path fill="#FD8913" d="M18.773,6.979c-0.008-0.001-0.012-0.006-0.013-0.014C18.767,6.967,18.772,6.972,18.773,6.979z"/>
	<path fill="#FD8913" d="M18.786,6.996c-0.008-0.003-0.013-0.009-0.014-0.018C18.781,6.981,18.785,6.987,18.786,6.996z"/>
	<path fill="#FD8913" d="M17.936,6.99c-0.001,0.008-0.004,0.014-0.012,0.018C17.924,6.999,17.928,6.993,17.936,6.99z"/>
	<path fill="#FD8913" d="M18.8,7.016c-0.007-0.002-0.011-0.007-0.01-0.014C18.793,7.007,18.797,7.012,18.8,7.016z"/>
	<path fill="#FD8913" d="M17.919,7.015c0,0.007-0.003,0.011-0.01,0.013C17.913,7.024,17.916,7.02,17.919,7.015z"/>
	<path fill="#FD8913" d="M17.909,7.028c0,0.009-0.003,0.015-0.011,0.019C17.898,7.039,17.902,7.033,17.909,7.028z"/>
	<path fill="#FD8913" d="M18.824,7.059c-0.007-0.004-0.011-0.01-0.01-0.018C18.821,7.045,18.824,7.051,18.824,7.059z"/>
	<path fill="#FD8913" d="M17.895,7.054c0,0.008-0.002,0.015-0.01,0.019C17.885,7.065,17.888,7.059,17.895,7.054z"/>
	<path fill="#FD8913" d="M17.948,6.977c-0.001,0.007-0.005,0.012-0.012,0.013C17.937,6.983,17.941,6.979,17.948,6.977z"/>
	<path fill="#FD8913" d="M18.698,6.91c-0.007,0-0.012-0.004-0.013-0.011C18.689,6.903,18.694,6.906,18.698,6.91z"/>
	<path fill="#FD8913" d="M18.722,6.927c-0.009-0.001-0.014-0.005-0.018-0.013C18.713,6.914,18.719,6.918,18.722,6.927z"/>
	<path fill="#FD8913" d="M18,6.925c-0.002,0.007-0.006,0.011-0.013,0.012C17.988,6.931,17.993,6.927,18,6.925z"/>
	<path fill="#FD8913" d="M18.735,6.939c-0.008-0.001-0.013-0.005-0.014-0.013C18.729,6.928,18.733,6.932,18.735,6.939z"/>
	<path fill="#FD8913" d="M17.986,6.938c-0.001,0.007-0.005,0.011-0.013,0.012C17.975,6.943,17.979,6.939,17.986,6.938z"/>
	<path fill="#FD8913" d="M18.748,6.952c-0.008-0.001-0.012-0.005-0.014-0.013C18.742,6.94,18.746,6.945,18.748,6.952z"/>
	<path d="M17.912,5.614c0.013-0.016,0.012-0.036,0.018-0.054c0.043-0.133,0.132-0.219,0.266-0.256
		c0.11-0.031,0.221-0.03,0.331-0.001c0.125,0.033,0.211,0.111,0.258,0.231c0.004,0.01,0.009,0.019,0.014,0.029
		c0.014,0.068,0.019,0.136,0.017,0.205c-0.006,0.166-0.081,0.295-0.209,0.396c-0.013,0.01-0.026,0.014-0.041,0.014
		c-0.135,0-0.271,0-0.406,0c-0.018,0-0.032-0.006-0.046-0.018c-0.13-0.104-0.204-0.236-0.205-0.404
		C17.907,5.708,17.91,5.661,17.912,5.614z"/>
</g>
</svg>
