<?xml version="1.0" encoding="utf-8"?>
<!-- Generator: Adobe Illustrator 24.3.0, SVG Export Plug-In . SVG Version: 6.00 Build 0)  -->
<svg version="1.1" id="Слой_1" xmlns="http://www.w3.org/2000/svg" xmlns:xlink="http://www.w3.org/1999/xlink" x="0px" y="0px"
	 width="32px" height="13px" viewBox="0 0 32 13" enable-background="new 0 0 32 13" xml:space="preserve">
<g>
	<path d="M16.107,12.755c-1.222,0-2.445,0-3.667,0c-0.029,0-0.06,0.005-0.085-0.006c-0.025-0.011-0.034-0.045-0.049-0.069
		c-0.083-0.136-0.167-0.272-0.25-0.409c-0.079-0.13-0.158-0.261-0.237-0.391c-0.081-0.132-0.162-0.264-0.242-0.396
		c-0.056-0.092-0.111-0.184-0.167-0.275c-0.083-0.136-0.167-0.272-0.25-0.408c-0.078-0.128-0.155-0.257-0.233-0.385
		c-0.083-0.136-0.167-0.272-0.25-0.409c-0.076-0.124-0.151-0.249-0.226-0.373c-0.087-0.142-0.174-0.284-0.261-0.427
		c-0.078-0.128-0.155-0.257-0.233-0.385C9.853,8.652,9.748,8.481,9.644,8.31C9.568,8.186,9.493,8.062,9.417,7.938
		C9.33,7.795,9.243,7.653,9.156,7.511C9.081,7.387,9.006,7.262,8.93,7.138c-0.086-0.14-0.172-0.281-0.257-0.421
		C8.65,6.681,8.629,6.643,8.606,6.607C8.597,6.593,8.598,6.582,8.607,6.568C8.704,6.41,8.801,6.251,8.898,6.093
		C8.974,5.969,9.049,5.844,9.125,5.72C9.21,5.58,9.296,5.44,9.382,5.299c0.079-0.13,0.158-0.261,0.237-0.391
		C9.701,4.774,9.783,4.64,9.865,4.506c0.077-0.126,0.153-0.253,0.23-0.379c0.084-0.138,0.169-0.276,0.253-0.415
		c0.077-0.126,0.153-0.253,0.23-0.379c0.107-0.175,0.214-0.35,0.321-0.524c0.077-0.126,0.153-0.253,0.23-0.379
		c0.084-0.138,0.169-0.276,0.253-0.415c0.078-0.128,0.155-0.257,0.234-0.385c0.083-0.136,0.167-0.272,0.25-0.409
		c0.078-0.128,0.156-0.257,0.234-0.385c0.077-0.126,0.154-0.252,0.229-0.379c0.015-0.025,0.034-0.038,0.064-0.035
		c0.019,0.002,0.038,0,0.057,0c2.44,0,4.879,0,7.319,0c0.116,0,0.088-0.013,0.144,0.08c0.101,0.167,0.204,0.333,0.306,0.5
		c0.078,0.128,0.156,0.257,0.234,0.385c0.083,0.136,0.167,0.272,0.25,0.409c0.078,0.128,0.156,0.257,0.234,0.385
		c0.105,0.173,0.211,0.345,0.317,0.518c0.079,0.13,0.158,0.261,0.237,0.391c0.082,0.134,0.164,0.268,0.246,0.402
		c0.077,0.126,0.153,0.253,0.23,0.379c0.086,0.14,0.172,0.28,0.257,0.421c0.079,0.13,0.158,0.261,0.237,0.391
		c0.08,0.132,0.162,0.264,0.242,0.396c0.079,0.13,0.158,0.261,0.238,0.391c0.082,0.134,0.164,0.268,0.246,0.402
		c0.078,0.128,0.156,0.257,0.234,0.385c0.059,0.098,0.119,0.196,0.179,0.292c0.016,0.025,0.019,0.044,0.002,0.071
		c-0.086,0.137-0.17,0.276-0.254,0.414c-0.103,0.169-0.207,0.337-0.31,0.506c-0.078,0.128-0.156,0.257-0.234,0.385
		c-0.105,0.173-0.211,0.346-0.316,0.519c-0.079,0.13-0.158,0.261-0.238,0.391c-0.082,0.134-0.164,0.268-0.246,0.402
		c-0.079,0.13-0.158,0.261-0.237,0.391c-0.082,0.134-0.164,0.268-0.246,0.402c-0.077,0.126-0.153,0.253-0.23,0.379
		c-0.086,0.14-0.172,0.28-0.257,0.421c-0.079,0.13-0.158,0.261-0.237,0.391c-0.081,0.132-0.162,0.264-0.243,0.396
		c-0.079,0.13-0.158,0.261-0.238,0.391c-0.082,0.134-0.164,0.268-0.246,0.403c-0.061,0.1-0.122,0.199-0.18,0.3
		c-0.018,0.031-0.039,0.045-0.074,0.041c-0.016-0.002-0.033,0-0.05,0C18.547,12.755,17.327,12.755,16.107,12.755z"/>
	<path d="M0.369,6.615c0.107-0.058,0.2-0.11,0.294-0.161C1.142,6.193,1.621,5.931,2.1,5.67c0.517-0.282,1.033-0.563,1.55-0.845
		c0.471-0.257,0.941-0.514,1.411-0.771c0.425-0.232,0.849-0.463,1.274-0.694C6.783,3.115,7.23,2.87,7.678,2.626
		C8.13,2.38,8.582,2.134,9.033,1.887c0.358-0.195,0.715-0.391,1.073-0.586c0.046-0.025,0.091-0.052,0.144-0.063
		c0.14-0.029,0.289,0.056,0.327,0.191c0.021,0.075,0.012,0.146-0.031,0.212c-0.143,0.217-0.286,0.434-0.428,0.651
		C9.991,2.486,9.865,2.68,9.738,2.873C9.614,3.062,9.489,3.251,9.364,3.44C9.286,3.559,9.208,3.679,9.129,3.799
		c-0.105,0.159-0.21,0.318-0.315,0.477C8.736,4.396,8.659,4.516,8.58,4.635C8.498,4.761,8.415,4.886,8.333,5.011
		C8.255,5.129,8.179,5.247,8.101,5.364C8.016,5.493,7.931,5.623,7.846,5.752C7.765,5.876,7.685,6,7.604,6.123
		c-0.059,0.09-0.12,0.178-0.177,0.268c-0.05,0.079-0.051,0.056-0.001,0.13c0.136,0.199,0.273,0.396,0.41,0.594
		c0.148,0.213,0.297,0.426,0.444,0.64C8.408,7.94,8.534,8.125,8.662,8.309c0.125,0.18,0.25,0.36,0.375,0.54
		C9.14,8.998,9.242,9.148,9.345,9.297c0.126,0.182,0.253,0.364,0.379,0.546c0.077,0.112,0.154,0.224,0.231,0.336
		c0.108,0.157,0.217,0.313,0.326,0.47c0.102,0.147,0.202,0.295,0.304,0.442c0.104,0.151,0.209,0.302,0.314,0.452
		c0.016,0.024,0.03,0.049,0.048,0.071c0.109,0.141,0.041,0.353-0.151,0.409c-0.076,0.022-0.151,0.013-0.222-0.024
		c-0.112-0.059-0.224-0.117-0.335-0.176c-0.379-0.2-0.759-0.4-1.138-0.6c-0.43-0.227-0.859-0.454-1.289-0.681
		c-0.447-0.236-0.894-0.47-1.341-0.706C6.068,9.622,5.666,9.41,5.264,9.197C4.813,8.959,4.361,8.722,3.911,8.484
		C3.422,8.226,2.933,7.968,2.444,7.711C1.966,7.458,1.487,7.207,1.009,6.953c-0.057-0.03-0.118-0.053-0.164-0.1
		C0.841,6.85,0.837,6.847,0.833,6.846c-0.11-0.03-0.201-0.097-0.302-0.145C0.48,6.676,0.431,6.648,0.369,6.615z"/>
	<path d="M31.864,6.233c-0.007,0.02-0.024,0.025-0.038,0.033c-0.305,0.167-0.611,0.333-0.916,0.499
		c-0.423,0.231-0.845,0.462-1.267,0.692c-0.494,0.269-0.987,0.538-1.481,0.808c-0.45,0.245-0.899,0.491-1.349,0.736
		c-0.544,0.297-1.088,0.593-1.632,0.89c-0.473,0.258-0.945,0.516-1.418,0.774c-0.425,0.232-0.849,0.463-1.274,0.695
		c-0.128,0.07-0.255,0.139-0.383,0.209c-0.038,0.021-0.076,0.038-0.119,0.046c-0.15,0.025-0.292-0.065-0.326-0.212
		c-0.009-0.04-0.009-0.08,0.006-0.12c0.011-0.032,0.025-0.062,0.043-0.09c0.075-0.114,0.149-0.227,0.223-0.341
		c0.08-0.121,0.16-0.243,0.24-0.364c0.11-0.167,0.22-0.334,0.33-0.502c0.08-0.122,0.159-0.244,0.239-0.365
		c0.103-0.157,0.207-0.314,0.311-0.472c0.079-0.119,0.157-0.239,0.235-0.359c0.082-0.125,0.165-0.251,0.247-0.376
		c0.077-0.118,0.154-0.235,0.231-0.353c0.107-0.163,0.215-0.326,0.322-0.49c0.077-0.118,0.154-0.235,0.231-0.353
		c0.107-0.163,0.215-0.326,0.322-0.49c0.068-0.104,0.136-0.207,0.204-0.311c0.015-0.023,0.015-0.026-0.002-0.051
		c-0.157-0.227-0.314-0.455-0.471-0.682c-0.137-0.198-0.274-0.396-0.41-0.594c-0.161-0.233-0.323-0.466-0.484-0.7
		c-0.161-0.233-0.323-0.466-0.484-0.7c-0.161-0.233-0.323-0.467-0.484-0.7c-0.16-0.231-0.32-0.463-0.48-0.694
		c-0.172-0.249-0.345-0.497-0.518-0.746c-0.069-0.1-0.138-0.2-0.208-0.3c-0.029-0.042-0.05-0.088-0.056-0.138
		c-0.009-0.074,0.013-0.143,0.062-0.199c0.081-0.091,0.21-0.125,0.326-0.076c0.035,0.015,0.069,0.032,0.103,0.05
		c0.447,0.236,0.893,0.472,1.34,0.708c0.449,0.237,0.898,0.473,1.347,0.71c0.426,0.224,0.851,0.449,1.277,0.674
		c0.451,0.238,0.902,0.476,1.353,0.714c0.4,0.211,0.801,0.423,1.201,0.634c0.451,0.238,0.902,0.475,1.353,0.713
		c0.493,0.26,0.986,0.521,1.479,0.781c0.074,0.039,0.146,0.081,0.222,0.116c0.042,0.019,0.07,0.06,0.114,0.072
		c0.042,0.011,0.08,0.032,0.117,0.051C31.65,6.119,31.757,6.176,31.864,6.233z"/>
	<path d="M27.211,12.451c-1.299,0-2.597,0-3.896,0c-0.041,0-0.081,0-0.121-0.01c-0.159-0.038-0.248-0.205-0.189-0.357
		c0.023-0.058,0.064-0.1,0.117-0.13c0.114-0.065,0.227-0.131,0.341-0.196c0.424-0.242,0.848-0.485,1.273-0.727
		c0.381-0.217,0.762-0.435,1.142-0.652c0.354-0.202,0.708-0.404,1.061-0.607c0.383-0.219,0.766-0.437,1.149-0.656
		c0.447-0.255,0.894-0.511,1.341-0.767c0.43-0.246,0.861-0.491,1.291-0.737c0.099-0.057,0.198-0.115,0.298-0.17
		c0.103-0.056,0.206-0.052,0.305,0.013c0.074,0.049,0.116,0.119,0.118,0.209c0.001,0.019,0,0.038,0,0.057c0,1.47,0,2.939,0,4.409
		c0,0.017-0.001,0.033,0,0.05c0.004,0.12-0.087,0.229-0.207,0.259c-0.03,0.008-0.061,0.011-0.092,0.01c-0.069-0.001-0.138,0-0.208,0
		C29.694,12.451,28.452,12.451,27.211,12.451z"/>
	<path d="M5.03,0.403c1.301,0,2.602,0,3.903,0c0.041,0,0.081,0,0.121,0.012C9.145,0.441,9.21,0.497,9.242,0.585
		c0.037,0.102,0.01,0.204-0.073,0.28C9.148,0.884,9.123,0.899,9.098,0.913C8.484,1.265,7.869,1.616,7.255,1.967
		c-0.61,0.349-1.221,0.697-1.832,1.046C4.792,3.373,4.161,3.734,3.53,4.095C2.965,4.418,2.4,4.74,1.835,5.063
		C1.641,5.174,1.446,5.285,1.252,5.397c-0.068,0.04-0.139,0.058-0.219,0.046C0.896,5.422,0.796,5.3,0.8,5.176
		c0.001-0.019,0-0.038,0-0.057c0-1.46,0-2.921,0-4.381c0-0.017,0.001-0.033,0-0.05C0.791,0.543,0.908,0.409,1.077,0.403
		c0.021-0.001,0.043,0,0.064,0C2.438,0.403,3.734,0.403,5.03,0.403z"/>
	<path d="M29.282,4.259c-0.011,0.01-0.008,0.023-0.008,0.034c0,0.043,0.001,0.086,0.001,0.129c0,0.017,0,0.033,0,0.05
		c0,0.009,0,0.02-0.013,0.021c-0.014,0.002-0.015-0.009-0.015-0.018c-0.001-0.021-0.001-0.043-0.001-0.064
		c-0.001-0.045-0.004-0.091-0.002-0.136c0.002-0.034-0.013-0.052-0.041-0.067c-0.187-0.105-0.373-0.212-0.559-0.319
		c-0.404-0.231-0.807-0.461-1.21-0.692c-0.476-0.272-0.952-0.544-1.428-0.815c-0.495-0.283-0.989-0.566-1.483-0.848
		c-0.401-0.229-0.803-0.459-1.205-0.688c-0.051-0.029-0.094-0.064-0.124-0.115c-0.061-0.103-0.04-0.239,0.057-0.324
		c0.044-0.039,0.096-0.063,0.155-0.067c0.033-0.002,0.067-0.003,0.1-0.003c1.525,0,3.051,0,4.576,0c1.065,0,2.129,0,3.194,0
		c0.036,0,0.072,0,0.107,0.005c0.133,0.018,0.234,0.135,0.233,0.266c0,0.012,0,0.024,0,0.036c0,1.477,0,2.954,0,4.431
		c0,0.045-0.002,0.09-0.019,0.133c-0.051,0.13-0.196,0.189-0.308,0.169c-0.04-0.007-0.078-0.021-0.114-0.042
		c-0.304-0.174-0.608-0.348-0.912-0.522c-0.308-0.176-0.616-0.353-0.925-0.528C29.32,4.276,29.304,4.261,29.282,4.259z"/>
	<path d="M4.851,12.516c-1.294,0-2.588,0-3.881,0c-0.029,0-0.057,0-0.086-0.001c-0.136-0.007-0.262-0.127-0.255-0.267
		c0.001-0.014,0-0.029,0-0.043c0-1.474,0-2.949,0-4.423c0-0.036-0.003-0.071,0.007-0.107c0.029-0.107,0.13-0.191,0.244-0.201
		c0.066-0.006,0.127,0.009,0.185,0.043c0.157,0.09,0.314,0.18,0.472,0.27c0.474,0.271,0.948,0.541,1.422,0.812
		c0.447,0.255,0.894,0.511,1.341,0.766c0.426,0.243,0.853,0.487,1.279,0.73c0.381,0.218,0.761,0.436,1.142,0.653
		c0.422,0.241,0.844,0.482,1.266,0.723c0.31,0.177,0.621,0.354,0.931,0.532c0.025,0.014,0.05,0.029,0.072,0.047
		c0.15,0.122,0.12,0.375-0.087,0.45c-0.027,0.01-0.055,0.016-0.084,0.016c-0.026,0-0.053,0-0.079,0
		C7.443,12.516,6.147,12.516,4.851,12.516z"/>
	<path fill="#666666" d="M20.233,4.462c0.013-0.017,0.029-0.022,0.044-0.029c0.236-0.115,0.472-0.23,0.707-0.345
		c0.011-0.005,0.021-0.011,0.032-0.015c0.01-0.004,0.019,0,0.025,0.008c0.007,0.009,0.014,0.019,0.02,0.029
		c0.102,0.169,0.204,0.339,0.307,0.508c0.054,0.09,0.111,0.178,0.165,0.268c0.079,0.13,0.157,0.261,0.237,0.392
		c0.077,0.126,0.154,0.252,0.231,0.379c0.063,0.104,0.127,0.207,0.19,0.311c0.103,0.169,0.206,0.338,0.309,0.507
		c0.009,0.014,0.017,0.029,0.025,0.043c0.012,0.021,0.031,0.041,0.032,0.063c0.003,0.028-0.021,0.052-0.035,0.076
		c-0.082,0.134-0.165,0.268-0.247,0.402C22.172,7.228,22.07,7.4,21.965,7.571c-0.082,0.134-0.166,0.267-0.247,0.402
		c-0.106,0.175-0.211,0.352-0.317,0.527c-0.121,0.199-0.245,0.398-0.367,0.597c-0.104,0.171-0.206,0.343-0.311,0.514
		c-0.081,0.132-0.163,0.263-0.244,0.396c-0.077,0.126-0.153,0.253-0.229,0.379c-0.082,0.134-0.164,0.269-0.246,0.403
		c-0.079,0.13-0.158,0.261-0.238,0.391c-0.083,0.136-0.167,0.272-0.25,0.408c-0.054,0.087-0.108,0.174-0.159,0.263
		c-0.019,0.034-0.043,0.048-0.081,0.045c-0.017-0.002-0.033,0-0.05,0c-2.036,0-4.072,0-6.108,0c-0.019,0-0.038-0.001-0.057,0
		c-0.033,0.001-0.045-0.008-0.026-0.041c0.064-0.112,0.126-0.225,0.189-0.337c0.079-0.141,0.158-0.283,0.238-0.424
		c0.003-0.006,0.007-0.012,0.01-0.019c0.016-0.038,0.043-0.054,0.084-0.048c0.019,0.003,0.038,0,0.057,0c1.702,0,3.404,0,5.105,0
		c0.097,0,0.096-0.001,0.148-0.088c0.081-0.135,0.164-0.268,0.246-0.402c0.06-0.098,0.118-0.196,0.178-0.293
		c0.104-0.171,0.209-0.341,0.313-0.512c0.104-0.171,0.206-0.343,0.311-0.514c0.079-0.13,0.16-0.259,0.24-0.39
		c0.081-0.132,0.16-0.265,0.24-0.398c0.053-0.088,0.107-0.175,0.161-0.262c0.064-0.106,0.129-0.212,0.193-0.318
		c0.048-0.079,0.097-0.159,0.146-0.238c0.057-0.093,0.114-0.187,0.172-0.281c0.086-0.14,0.172-0.28,0.257-0.421
		c0.058-0.096,0.116-0.192,0.174-0.287c0.017-0.027,0.019-0.049,0-0.078c-0.057-0.088-0.11-0.179-0.164-0.268
		c-0.057-0.094-0.114-0.187-0.171-0.281c-0.112-0.183-0.224-0.366-0.335-0.549c-0.104-0.171-0.207-0.343-0.311-0.514
		c-0.053-0.088-0.107-0.175-0.161-0.262c-0.034-0.055-0.067-0.11-0.1-0.165C20.245,4.491,20.239,4.475,20.233,4.462z"/>
	<path fill="#FF1FFF" d="M10.384,5.152c0.021-0.053,0.056-0.099,0.085-0.148c0.08-0.135,0.163-0.268,0.245-0.402
		c0.084-0.138,0.169-0.276,0.253-0.414c0.056-0.091,0.111-0.183,0.166-0.275c0.007-0.012,0.016-0.023,0.025-0.034
		c0.032,0.036,0.023,0.081,0.023,0.123c0.001,0.595,0.001,1.189,0,1.784c0,0.067,0.005,0.133,0.021,0.198
		c-0.023,0.06-0.064,0.111-0.096,0.166c-0.058,0.1-0.121,0.199-0.181,0.298c-0.023,0.038-0.046,0.077-0.071,0.115
		c-0.012,0.019-0.01,0.034,0.001,0.052c0.058,0.095,0.117,0.19,0.174,0.286c0.042,0.071,0.092,0.138,0.126,0.214
		c-0.019,0.05-0.017,0.103-0.017,0.155c0,0.61,0,1.219-0.001,1.829c0,0.042,0.01,0.087-0.023,0.123
		c-0.019-0.012-0.027-0.033-0.038-0.051c-0.158-0.258-0.315-0.516-0.472-0.774c-0.072-0.118-0.144-0.236-0.215-0.354
		c-0.004-0.006-0.004-0.013-0.007-0.02c-0.01-0.052-0.006-0.104-0.006-0.157c0-0.855,0-1.71,0-2.564
		C10.376,5.252,10.377,5.202,10.384,5.152z"/>
	<path fill="#FF3CFF" d="M12.045,8.576c0.042,0.046,0.067,0.104,0.1,0.156c0.083,0.131,0.161,0.265,0.242,0.397
		c0.103,0.169,0.207,0.337,0.309,0.506c0.081,0.132,0.16,0.265,0.241,0.397c0.079,0.13,0.16,0.26,0.239,0.39
		c0.079,0.13,0.158,0.261,0.237,0.391c0.011,0.018,0.026,0.035,0.028,0.057c-0.039,0.015-0.04,0.015-0.061,0.05
		c-0.057,0.099-0.112,0.199-0.168,0.299c-0.085,0.152-0.17,0.303-0.255,0.455c-0.05,0.089-0.1,0.179-0.15,0.268
		c-0.005,0.008-0.011,0.015-0.019,0.028c-0.015-0.022-0.029-0.04-0.041-0.059c-0.079-0.13-0.158-0.261-0.237-0.391
		c-0.104-0.171-0.209-0.341-0.313-0.512c-0.07-0.116-0.139-0.233-0.208-0.349c-0.001-0.009-0.006-0.015-0.012-0.021l0-0.001
		c-0.009-0.007-0.005-0.021-0.016-0.027l0,0.001c-0.004-0.005-0.007-0.01-0.01-0.015c-0.005-0.002-0.006-0.005-0.005-0.01
		c-0.002-0.008-0.007-0.013-0.012-0.019l-0.001-0.001c-0.005-0.004-0.008-0.008-0.011-0.013c-0.005-0.002-0.007-0.006-0.005-0.011
		c-0.002-0.007-0.007-0.013-0.011-0.018c-0.004-0.001-0.006-0.004-0.004-0.009c-0.01-0.052-0.006-0.104-0.006-0.157
		c0-0.595,0-1.19,0-1.785c0-0.033-0.002-0.067,0.003-0.1c0.005-0.028,0.011-0.058,0.05-0.057l0,0
		c0.003,0.006,0.006,0.011,0.01,0.016c0.004,0.001,0.006,0.004,0.004,0.009c0.001,0.009,0.006,0.015,0.012,0.02l0,0.001
		c0.009,0.007,0.005,0.021,0.016,0.027L11.99,8.488c0.002,0.007,0.008,0.011,0.012,0.016l0.001,0.001
		c0.009,0.007,0.006,0.021,0.015,0.027l0,0c0.004,0.005,0.007,0.009,0.01,0.015c0.005,0.002,0.006,0.006,0.005,0.011
		C12.035,8.565,12.04,8.57,12.045,8.576z"/>
	<path fill="#FFC2FF" d="M19.425,1.202c0.046,0.052,0.075,0.115,0.111,0.174c0.129,0.209,0.255,0.419,0.383,0.629
		c0.149,0.244,0.299,0.488,0.447,0.732c0.103,0.169,0.205,0.338,0.307,0.507c0.124,0.203,0.248,0.407,0.373,0.61
		c0.015,0.024,0.014,0.028-0.014,0.042c-0.15,0.073-0.3,0.146-0.45,0.219c-0.163,0.079-0.325,0.159-0.488,0.238
		c-0.019,0.009-0.039,0.017-0.058,0.025c-0.048-0.058-0.079-0.123-0.117-0.183c-0.082-0.131-0.16-0.265-0.241-0.397
		c-0.102-0.167-0.204-0.333-0.306-0.5c-0.004-0.006-0.005-0.013-0.007-0.02c-0.008-0.045-0.009-0.09-0.009-0.135
		c0-0.603,0-1.207,0-1.81c0-0.036-0.004-0.072,0.008-0.107C19.375,1.198,19.389,1.167,19.425,1.202z"/>
	<path fill="#FF42FF" d="M13.419,2.348c-0.01,0.019-0.018,0.039-0.029,0.057c-0.111,0.183-0.223,0.365-0.334,0.548
		c-0.127,0.207-0.253,0.414-0.38,0.621c-0.08,0.132-0.16,0.264-0.24,0.397c-0.073,0.12-0.146,0.24-0.219,0.36
		c-0.002,0.004-0.007,0.006-0.01,0.009c-0.008,0.004-0.014,0.01-0.014,0.02c0.002,0.004,0,0.007-0.004,0.008
		c-0.004,0.006-0.009,0.011-0.011,0.017c0.001,0.005,0,0.009-0.005,0.011c-0.003,0.005-0.006,0.01-0.01,0.014l0,0
		c-0.027,0.032-0.041,0.007-0.052-0.014c-0.015-0.028-0.014-0.06-0.014-0.091c-0.001-0.629,0-1.258-0.001-1.887
		c0-0.029,0.007-0.057,0.007-0.085l0,0c0.011-0.006,0.008-0.02,0.016-0.028l0-0.001c0.006-0.006,0.012-0.012,0.012-0.021
		c-0.001-0.005,0.001-0.007,0.005-0.008c0.003-0.005,0.007-0.01,0.011-0.014l0,0c0.009-0.006,0.005-0.02,0.015-0.026
		c0.027-0.067,0.071-0.124,0.107-0.185c0.077-0.131,0.159-0.26,0.238-0.39c0.093-0.152,0.187-0.305,0.278-0.458
		c0.016-0.027,0.035-0.033,0.064-0.033c0.157,0.001,0.315,0,0.472,0.001c0.019,0,0.038,0.002,0.057,0.004
		c0.029,0.034,0.023,0.076,0.023,0.116c0.001,0.306,0,0.613,0.001,0.919C13.402,2.255,13.395,2.304,13.419,2.348z"/>
	<path fill="#FF2DFF" d="M12.102,2.333c0.009,0.017,0.017,0.034,0.016,0.054c-0.001,0.019,0,0.038,0,0.057c0,0.624,0,1.248,0,1.871
		c0,0.028-0.004,0.057,0.009,0.084c0.009,0.019,0.021,0.015,0.035,0.011c-0.022,0.056-0.058,0.103-0.088,0.154
		c-0.084,0.141-0.17,0.28-0.256,0.42c-0.103,0.168-0.206,0.336-0.309,0.505c-0.08,0.132-0.16,0.264-0.24,0.396
		c-0.021,0.034-0.04,0.07-0.067,0.1c-0.009-0.002-0.022-0.002-0.024-0.013c-0.007-0.03-0.021-0.058-0.02-0.09
		c0.001-0.019,0-0.038,0-0.057c0-0.648,0-1.297,0-1.945c0.047-0.08,0.094-0.16,0.141-0.239c0.057-0.094,0.115-0.187,0.172-0.28
		c0.086-0.14,0.172-0.28,0.257-0.42c0.056-0.092,0.11-0.184,0.166-0.275C11.964,2.554,12.025,2.439,12.102,2.333z"/>
	<path fill="#FF2CFF" d="M11.948,8.416c-0.018,0.01-0.03,0.023-0.03,0.045c0,0.021,0,0.043,0,0.064c0,0.628,0,1.257,0,1.885
		c0,0.036,0.003,0.072-0.017,0.104c-0.051-0.066-0.089-0.14-0.133-0.211c-0.113-0.182-0.224-0.365-0.335-0.549
		c-0.08-0.132-0.161-0.265-0.24-0.398c-0.027-0.045-0.061-0.085-0.077-0.136c0-0.133,0.001-0.267,0.001-0.4c0-0.536,0-1.071,0-1.607
		c0-0.019,0-0.038,0.001-0.057c0.001-0.025,0.014-0.039,0.039-0.042C11.2,7.169,11.23,7.231,11.266,7.29
		c0.087,0.139,0.171,0.279,0.257,0.419c0.074,0.122,0.148,0.243,0.222,0.365c0.064,0.105,0.129,0.211,0.193,0.316
		C11.943,8.398,11.945,8.408,11.948,8.416z"/>
	<path fill="#FF12FF" d="M10.384,5.152c0.01,0.019,0.017,0.039,0.015,0.062c-0.001,0.012,0,0.024,0,0.036c0,0.89,0,1.779,0,2.669
		c0,0.036,0.004,0.072-0.017,0.104c-0.053-0.068-0.092-0.144-0.137-0.217c-0.112-0.18-0.221-0.361-0.331-0.542
		c-0.079-0.13-0.158-0.261-0.237-0.391C9.63,6.793,9.583,6.713,9.532,6.635C9.512,6.604,9.508,6.58,9.53,6.546
		c0.063-0.098,0.122-0.199,0.182-0.299C9.77,6.151,9.829,6.056,9.887,5.961c0.084-0.138,0.169-0.276,0.253-0.414
		c0.076-0.124,0.151-0.248,0.226-0.372C10.372,5.167,10.378,5.16,10.384,5.152z"/>
	<path fill="#FF3BFF" d="M13.591,4.877c0.045-0.056,0.104-0.095,0.163-0.133c0.075-0.049,0.152-0.094,0.239-0.119
		c0.013,0.022,0.009,0.046,0.009,0.07c-0.001,0.235,0,0.47,0,0.706c0,0.081,0.012,0.16,0.018,0.24
		c-0.025,0.076-0.052,0.152-0.062,0.232c-0.009,0.073-0.019,0.145-0.019,0.219c0,0.02,0.012,0.023,0.027,0.024
		c0.028,0.029,0.022,0.066,0.022,0.101c0.001,0.163,0,0.327,0.001,0.49c-0.061,0.123-0.022,0.247-0.006,0.371
		c0.006,0.051,0.033,0.101,0.013,0.154c-0.029,0.035-0.022,0.077-0.022,0.117c-0.001,0.286,0,0.572-0.001,0.858
		c0,0.037,0.008,0.077-0.021,0.109c-0.131-0.05-0.248-0.12-0.346-0.221c-0.039-0.037-0.036-0.086-0.036-0.133
		c0-0.498,0-0.996,0-1.494c0-0.488,0-0.977,0-1.465C13.57,4.959,13.566,4.916,13.591,4.877z"/>
	<path fill="#FFB3FF" d="M19.425,1.202c-0.009-0.001-0.02-0.006-0.028-0.003c-0.012,0.004-0.016,0.017-0.017,0.029
		c-0.001,0.021-0.001,0.043-0.001,0.064c0,0.632,0,1.264,0,1.896c0,0.031,0.004,0.062-0.014,0.09
		c-0.054-0.072-0.096-0.152-0.144-0.229c-0.111-0.18-0.221-0.361-0.331-0.541c-0.033-0.055-0.066-0.11-0.099-0.165
		c-0.017-0.028-0.032-0.058-0.057-0.081c-0.042-0.013-0.085-0.004-0.127-0.006c-0.067-0.003-0.088-0.021-0.094-0.089
		c-0.004-0.043-0.002-0.085-0.002-0.128c0-0.252,0-0.504,0-0.755c0-0.038-0.005-0.077,0.022-0.109
		c0.021-0.001,0.043-0.004,0.064-0.004c0.248,0,0.496,0,0.744,0c0.017,0,0.033-0.001,0.05,0.001
		C19.413,1.171,19.423,1.182,19.425,1.202z"/>
	<path fill="#FF7EFF" d="M16.945,2.26c-0.017,0.001-0.033,0.003-0.05,0.003c-0.368,0-0.736,0-1.104,0
		c-0.017,0-0.033-0.002-0.05-0.003c-0.071-0.012-0.142-0.004-0.213-0.005c-0.106-0.002-0.123-0.017-0.124-0.125
		c-0.001-0.195,0-0.39,0-0.584c0-0.093,0-0.185,0-0.278c0-0.033-0.002-0.067,0.022-0.095c0.019-0.001,0.038-0.004,0.057-0.004
		c0.344,0,0.689,0,1.033,0c0.019,0,0.038,0.003,0.056,0.004c0.028,0.032,0.022,0.072,0.022,0.109c0.001,0.269,0,0.539,0,0.808
		c0,0.122,0.014,0.134,0.137,0.135c0.048,0,0.095-0.002,0.143,0.001C16.902,2.229,16.935,2.222,16.945,2.26z"/>
	<path fill="#FF1FFF" d="M13.591,4.877c0.001,0.033,0.002,0.067,0.002,0.1c0,1.004,0,2.008,0,3.012c0,0.036-0.001,0.072,0.013,0.106
		c-0.045-0.025-0.074-0.067-0.107-0.104c-0.054-0.06-0.1-0.127-0.14-0.198c-0.071-0.124-0.126-0.256-0.167-0.393
		c-0.041-0.138-0.066-0.278-0.085-0.419c-0.038-0.278-0.037-0.556-0.018-0.834c0.01-0.15,0.032-0.299,0.065-0.445
		c0.042-0.187,0.104-0.366,0.201-0.532c0.059-0.101,0.13-0.194,0.214-0.276C13.575,4.886,13.583,4.882,13.591,4.877z"/>
	<path fill="#FF5AFF" d="M13.419,2.348c-0.025-0.003-0.038-0.017-0.039-0.042c-0.001-0.019-0.001-0.038-0.001-0.057
		c0-0.358,0-0.717,0-1.075c0.016-0.001,0.033-0.004,0.049-0.004c0.325,0,0.65,0,0.976,0c0.016,0,0.033,0.003,0.049,0.004
		c0.027,0.032,0.022,0.072,0.022,0.109c0,0.264,0,0.529,0,0.793c0,0.138,0.008,0.145,0.144,0.15
		c0.033,0.001,0.073-0.011,0.091,0.034c-0.017,0.001-0.033,0.003-0.05,0.003c-0.339,0-0.679,0-1.018,0
		c-0.017,0-0.033-0.002-0.05-0.003c-0.033-0.009-0.067-0.009-0.1,0c-0.005,0.001-0.01,0.001-0.015,0.002
		c-0.004,0.005-0.009,0.009-0.014,0.012l-0.001,0.002c-0.004,0.006-0.009,0.011-0.011,0.018c-0.002,0.004-0.005,0.007-0.007,0.011
		c-0.001,0.005-0.004,0.009-0.009,0.012l-0.001,0.002c-0.004,0.006-0.01,0.011-0.011,0.019C13.425,2.343,13.423,2.346,13.419,2.348z
		"/>
	<path fill="#FF93FF" d="M16.945,2.26c-0.015-0.016-0.035-0.012-0.054-0.012c-0.076,0-0.153,0-0.229,0
		c-0.022,0-0.042-0.003-0.059-0.019c-0.02-0.019-0.032-0.04-0.031-0.069c0.002-0.048,0-0.095,0-0.143c0-0.281,0-0.562,0-0.843
		c0.016-0.001,0.033-0.004,0.049-0.004c0.32,0,0.641,0,0.961,0c0.016,0,0.033,0.003,0.049,0.004
		c0.028,0.032,0.023,0.072,0.023,0.109c0.001,0.274,0,0.548,0,0.822c0,0.113,0.009,0.12,0.123,0.121
		c0.083,0.001,0.167-0.002,0.25,0.001c0.028,0.001,0.064-0.007,0.077,0.034c-0.017,0.001-0.033,0.003-0.05,0.003
		c-0.354,0-0.707,0-1.061,0C16.978,2.263,16.962,2.261,16.945,2.26z"/>
	<path fill="#FF41FF" d="M17.217,8.334c-0.045-0.006-0.085-0.028-0.124-0.048c-0.078-0.039-0.154-0.081-0.218-0.142
		c-0.011-0.027-0.01-0.056-0.01-0.085c0-1.043,0-2.086,0-3.13c0-0.043-0.004-0.086,0.021-0.125c0.099-0.081,0.207-0.145,0.33-0.183
		c0.031,0.031,0.023,0.071,0.024,0.108c0.003,0.294-0.005,0.588,0.006,0.883c-0.056,0.14-0.088,0.286-0.094,0.437
		c-0.001,0.017-0.001,0.033-0.001,0.05c0,0.011,0.008,0.017,0.019,0.014c0.016-0.003,0.032-0.008,0.048-0.012
		c0.025,0.027,0.022,0.062,0.022,0.095c0.001,0.126,0.001,0.252,0,0.378c0,0.041,0.003,0.081,0.022,0.118
		c0.008,0.03-0.016,0.038-0.035,0.043c-0.055,0.012-0.062,0.051-0.06,0.097c0.006,0.141,0.03,0.279,0.071,0.414
		c0.009,0.032,0.024,0.063,0.014,0.097c-0.013,0.024-0.01,0.051-0.01,0.077c-0.001,0.269,0,0.537-0.001,0.806
		C17.24,8.263,17.247,8.303,17.217,8.334z"/>
	<path fill="#FF69FF" d="M14.711,2.26c-0.013-0.014-0.03-0.012-0.046-0.012c-0.043,0-0.086,0.001-0.129,0
		c-0.047-0.002-0.08-0.034-0.082-0.081c-0.001-0.017,0-0.033,0-0.05c0-0.314,0-0.629,0-0.943c0.016-0.001,0.033-0.004,0.049-0.004
		c0.292,0,0.583,0,0.875,0c0.016,0,0.033,0.003,0.049,0.004c0,0.319,0,0.639,0,0.958c0,0.019-0.001,0.038,0.001,0.057
		c0.003,0.035,0.025,0.055,0.06,0.058c0.014,0.001,0.029,0,0.043,0c0.055,0,0.11,0,0.165,0c0.017,0,0.034-0.002,0.047,0.012
		c-0.014,0.001-0.028,0.003-0.042,0.003c-0.315,0-0.631,0-0.946,0C14.739,2.263,14.725,2.261,14.711,2.26z"/>
	<path fill="#FFA3FF" d="M18.105,2.26c-0.015-0.016-0.035-0.012-0.054-0.012c-0.105,0-0.21-0.003-0.315,0.001
		c-0.082,0.002-0.105-0.017-0.105-0.102c0.002-0.324,0.001-0.649,0.001-0.973c0.016-0.001,0.033-0.004,0.049-0.004
		c0.268,0,0.536,0,0.804,0c0.016,0,0.033,0.003,0.049,0.004c0,0.317,0,0.635,0,0.952c0,0.019-0.001,0.038,0,0.057
		c0.003,0.043,0.023,0.063,0.068,0.065c0.031,0.001,0.062,0,0.093,0c0.015,0,0.029,0.001,0.039,0.013
		c-0.149,0.001-0.298,0.002-0.446,0.002C18.228,2.263,18.167,2.261,18.105,2.26z"/>
	<path fill="#FF27FF" d="M16.886,4.805c0.001,0.031,0.002,0.062,0.002,0.093c0,1.05,0,2.099,0,3.149
		c0,0.033,0.006,0.067-0.013,0.098c-0.086-0.06-0.154-0.137-0.216-0.221c-0.028-0.037-0.061-0.072-0.075-0.119
		c-0.005-0.047-0.005-0.095-0.005-0.143c0-0.803,0-1.607,0-2.41c0-0.033,0.005-0.066,0.005-0.1c0.014-0.046,0.048-0.081,0.075-0.118
		C16.723,4.947,16.796,4.867,16.886,4.805z"/>
	<path fill="#FFE2FF" d="M15.547,6.153c0.084,0.043,0.151,0.107,0.212,0.178c0.121,0.141,0.189,0.306,0.226,0.487
		c0.033,0.163,0.04,0.327,0.027,0.491c-0.013,0.172-0.051,0.34-0.129,0.495c-0.07,0.138-0.167,0.255-0.29,0.35
		c-0.005,0.004-0.013,0.006-0.019,0.008c-0.008,0.002-0.013,0.007-0.018,0.013l0,0c-0.005,0.004-0.009,0.008-0.015,0.011
		l-0.002,0.004l-0.005,0c-0.009,0.001-0.016,0.006-0.021,0.013l0,0C15.475,8.2,15.471,8.17,15.465,8.142
		c-0.005-0.026-0.004-0.052-0.004-0.078c0-0.598,0-1.197,0-1.795c0-0.029-0.002-0.058,0.006-0.085
		c0.008-0.029,0.02-0.056,0.059-0.043l0.002,0.001C15.533,6.149,15.538,6.153,15.547,6.153z"/>
	<path fill="#FFC4FF" d="M18.364,5.997c0.105,0.014,0.202,0.053,0.296,0.098c0.036,0.017,0.074,0.033,0.103,0.062
		c-0.019,0.04-0.019,0.083-0.019,0.126c0,0.591,0,1.181,0,1.772c0,0.045,0.01,0.09,0.005,0.135
		c-0.053,0.048-0.119,0.076-0.184,0.104c-0.054,0.024-0.107,0.049-0.167,0.056c-0.043,0.014-0.055-0.015-0.065-0.046
		c-0.009-0.03-0.007-0.061-0.007-0.092c0-0.243-0.001-0.486,0-0.729c0-0.024-0.001-0.048-0.007-0.071
		c-0.006-0.067,0.025-0.129,0.023-0.196c-0.002-0.083-0.002-0.165-0.014-0.248c0.022-0.287,0.007-0.574,0.012-0.861
		C18.342,6.068,18.334,6.028,18.364,5.997z"/>
	<path fill="#FFC1FF" d="M15.527,6.141c-0.028,0.004-0.042,0.02-0.042,0.048c0,0.01,0,0.019,0,0.029c0,0.632,0,1.263,0,1.895
		c0,0.034,0,0.067,0.029,0.092c-0.046,0.041-0.103,0.063-0.159,0.088c-0.068,0.03-0.138,0.059-0.213,0.07
		c-0.067,0.007-0.078,0-0.079-0.07c-0.004-0.145,0-0.29-0.002-0.435c-0.001-0.114,0.005-0.228-0.006-0.342
		c0.003-0.056,0.039-0.1,0.054-0.152c0.03-0.104,0.026-0.21,0.026-0.316c0.024-0.302,0.007-0.604,0.012-0.906
		c0.001-0.031-0.002-0.062,0.005-0.093c0.007-0.034,0.026-0.05,0.062-0.036c0.095,0.015,0.182,0.055,0.267,0.098
		C15.496,6.119,15.515,6.125,15.527,6.141z"/>
	<path fill="#FFE1FF" d="M18.749,8.189c-0.021-0.019-0.028-0.043-0.027-0.071c0-0.014,0-0.029,0-0.043c0-0.609,0-1.218,0-1.827
		c0-0.019,0-0.038,0-0.057c0.001-0.027,0.002-0.027,0.041-0.036c0,0,0.003,0.001,0.003,0.001c0.004,0.006,0.009,0.01,0.017,0.011
		c0.004,0.002,0.008,0.005,0.012,0.007c0.004,0.002,0.008,0.005,0.011,0.009l0.003,0.002c0.004,0.004,0.009,0.008,0.014,0.011
		c0.068,0.037,0.119,0.095,0.166,0.153c0.074,0.091,0.128,0.194,0.166,0.305c0.044,0.13,0.066,0.262,0.071,0.399
		c0.005,0.155,0.003,0.309-0.03,0.462c-0.051,0.231-0.154,0.433-0.334,0.592c-0.005,0.005-0.012,0.008-0.018,0.011
		c-0.01,0-0.016,0.006-0.02,0.014l0.001-0.001c-0.007,0.002-0.011,0.008-0.016,0.013l0,0c-0.005,0.004-0.009,0.008-0.015,0.012
		L18.791,8.16c-0.003,0.005-0.007,0.008-0.012,0.01c-0.002,0.005-0.005,0.007-0.01,0.006c-0.007,0.002-0.013,0.006-0.018,0.012
		L18.749,8.189z"/>
	<path fill="#FF10FF" d="M16.583,5.152c0.011,0.007,0.018,0.016,0.018,0.029c0.001,0.019,0.001,0.038,0.001,0.057
		c0,0.827,0,1.653,0,2.48c0,0.019,0,0.038-0.001,0.057c0,0.013-0.007,0.022-0.017,0.029c-0.063-0.085-0.102-0.182-0.138-0.28
		c-0.088-0.241-0.13-0.491-0.147-0.746c-0.014-0.212-0.011-0.423,0.002-0.635c0.013-0.2,0.047-0.397,0.103-0.589
		c0.039-0.135,0.09-0.266,0.165-0.386C16.573,5.163,16.578,5.158,16.583,5.152z"/>
	<path fill="#FF63FF" d="M14.021,5.641c-0.012-0.003-0.025-0.008-0.024-0.022c0.001-0.074-0.018-0.145-0.017-0.219
		c0.003-0.231,0.001-0.461,0.001-0.692c0-0.029-0.002-0.057,0.014-0.083c0.061-0.033,0.128-0.048,0.193-0.065
		c0.094-0.025,0.189-0.037,0.286-0.048c0.007-0.001,0.014,0.001,0.021,0.002c-0.012,0.248,0.003,0.495-0.009,0.743
		c-0.019,0.016-0.044,0.016-0.067,0.023c-0.134,0.042-0.243,0.117-0.324,0.232c-0.004,0.006-0.01,0.01-0.014,0.015
		c-0.006,0.005-0.011,0.011-0.012,0.019c0.001,0.005-0.001,0.008-0.006,0.01c-0.003,0.005-0.006,0.01-0.01,0.014l0,0
		c-0.009,0.007-0.007,0.021-0.014,0.029l0,0c-0.01,0.008-0.007,0.022-0.014,0.031C14.026,5.634,14.025,5.638,14.021,5.641z"/>
	<path fill="#FF60FF" d="M17.245,5.612c-0.021-0.019-0.028-0.043-0.028-0.07c0-0.017,0-0.033,0-0.05c0-0.261,0-0.523,0-0.784
		c0-0.029-0.001-0.057-0.001-0.086c0.056-0.031,0.118-0.045,0.18-0.06c0.101-0.025,0.202-0.045,0.307-0.048
		c-0.017,0.057-0.021,0.116-0.019,0.175c0.007,0.189-0.013,0.379,0.012,0.568c-0.027,0.009-0.054,0.018-0.08,0.027
		c-0.156,0.053-0.274,0.151-0.351,0.298C17.259,5.593,17.252,5.602,17.245,5.612z"/>
	<path fill="#FF8EFF" d="M14.485,5.257c-0.005-0.007-0.014-0.014-0.016-0.022c-0.003-0.014-0.002-0.028-0.002-0.042
		c0-0.203,0-0.407-0.001-0.61c0-0.027,0.003-0.051,0.027-0.068c0.088-0.011,0.176-0.013,0.264-0.011
		c0.076,0.002,0.152,0.006,0.228,0.01c0.014,0.001,0.029,0,0.041,0.009C14.997,4.558,14.99,4.6,14.99,4.647
		c0.001,0.164,0.001,0.327,0,0.491c0,0.035,0.004,0.072-0.021,0.102c-0.045,0-0.09,0.001-0.135,0
		C14.717,5.236,14.601,5.24,14.485,5.257z"/>
	<path fill="#FF8CFF" d="M17.695,5.257c-0.017-0.004-0.032-0.011-0.033-0.031c-0.001-0.014-0.001-0.028-0.001-0.043
		c0-0.197,0-0.394,0-0.591c0-0.005,0.001-0.01,0-0.014c-0.007-0.034,0.012-0.052,0.041-0.064c0.087-0.011,0.175-0.013,0.263-0.011
		c0.078,0.002,0.157,0.006,0.235,0.01c0.016,0.001,0.033,0,0.048,0.009c-0.074,0.026-0.081,0.083-0.08,0.152
		c0.004,0.154,0.002,0.309,0.001,0.463c0,0.035,0.005,0.072-0.021,0.102c-0.038,0-0.076,0.002-0.114,0.001
		C17.922,5.236,17.808,5.24,17.695,5.257z"/>
	<path fill="#FFB6FF" d="M18.149,5.239c0-0.218,0-0.435-0.001-0.653c0-0.005,0-0.009,0-0.014c0.002-0.041,0.006-0.045,0.044-0.047
		c0.019-0.001,0.038-0.002,0.057-0.003c0.093-0.002,0.184,0.013,0.275,0.024c0.042,0.005,0.085,0.001,0.125,0.02
		c-0.019,0.04-0.022,0.082-0.022,0.125c0.001,0.141,0.002,0.281-0.001,0.422c-0.001,0.063,0.001,0.122,0.051,0.168
		c-0.061-0.005-0.122-0.009-0.183-0.014c-0.104-0.008-0.207-0.016-0.311-0.024C18.173,5.243,18.161,5.241,18.149,5.239z"/>
	<path fill="#FFB9FF" d="M14.969,5.24c0-0.218,0-0.437-0.001-0.655c0-0.007,0-0.014,0-0.021c0.002-0.031,0.004-0.033,0.038-0.039
		c0.007-0.001,0.014-0.002,0.021-0.003c0.097-0.001,0.193,0.014,0.289,0.026c0.037,0.005,0.076,0,0.111,0.018
		c0.024,0.031,0.021,0.067,0.021,0.102c0,0.144,0.001,0.289,0,0.433c0,0.061-0.001,0.123,0.021,0.181
		c-0.061-0.004-0.122-0.009-0.183-0.013c-0.082-0.006-0.165-0.012-0.247-0.018C15.016,5.247,14.993,5.243,14.969,5.24z"/>
	<path fill="#FF60FF" d="M17.217,8.334c0-0.303,0-0.605,0.001-0.908c0-0.019,0-0.038,0.001-0.057
		c0.001-0.018,0.011-0.031,0.027-0.039c0.005,0.001,0.008,0.004,0.011,0.009c0.004,0.006,0.008,0.012,0.011,0.018
		c0.002,0.004,0.004,0.009,0.006,0.013c0.003,0.007,0.007,0.013,0.011,0.02c0.003,0.004,0.006,0.009,0.009,0.014
		c0.006,0.007,0.012,0.013,0.018,0.02c0.076,0.116,0.174,0.205,0.308,0.248c0.027,0.009,0.041,0.024,0.022,0.053
		c-0.017,0.034-0.015,0.07-0.015,0.105c0,0.162,0,0.324,0,0.487c0,0.035,0.004,0.072-0.021,0.103
		c-0.086,0.004-0.167-0.018-0.249-0.038C17.308,8.37,17.26,8.359,17.217,8.334z"/>
	<path fill="#FF5DFF" d="M13.952,8.315c0-0.335,0-0.669,0-1.004c0-0.026-0.003-0.052,0.012-0.076c0.009-0.015,0.02-0.008,0.03-0.005
		c0.003,0.001,0.005,0.003,0.008,0.004c0.006,0.006,0.011,0.014,0.015,0.022c0.003,0.005,0.005,0.011,0.007,0.017
		c0.004,0.012,0.01,0.023,0.017,0.033c0.062,0.131,0.137,0.25,0.268,0.324c0.024,0.013,0.042,0.032,0.034,0.064
		c-0.021,0.092-0.009,0.185-0.011,0.277c-0.002,0.095,0.001,0.19-0.001,0.285c-0.001,0.055,0.005,0.108,0.022,0.16
		c-0.107-0.005-0.209-0.032-0.309-0.064C14.012,8.342,13.98,8.334,13.952,8.315z"/>
	<path fill="#FFDDFF" d="M18.679,5.281c-0.012-0.015-0.03-0.012-0.046-0.014c-0.017-0.002-0.025-0.013-0.025-0.029
		c0-0.012,0-0.024,0-0.036c0-0.188,0-0.376,0-0.565c0-0.01,0-0.019,0-0.029c0.001-0.032,0.001-0.032,0.043-0.043
		c0.053-0.003,0.104,0.01,0.156,0.017c0.087,0.012,0.174,0.027,0.261,0.041c0.024,0.004,0.027,0.008,0.025,0.034
		c-0.004,0.048-0.009,0.095-0.014,0.142c-0.017,0.161-0.035,0.322-0.053,0.483c-0.001,0.007-0.001,0.014-0.003,0.021
		c-0.002,0.014-0.011,0.019-0.025,0.017C18.892,5.308,18.785,5.294,18.679,5.281z"/>
	<path fill="#FF9BFF" d="M15.069,7.503c0.013,0.036,0.015,0.074,0.015,0.112c-0.001,0.216,0,0.432,0,0.648c0,0.014,0,0.029,0,0.043
		c0,0.038-0.002,0.059,0.058,0.055c-0.019,0.018-0.045,0.016-0.067,0.02c-0.095,0.02-0.19,0.041-0.289,0.038
		c-0.007,0.002-0.013,0.005-0.02,0.005c-0.114,0.005-0.12,0-0.12-0.116c0-0.169-0.001-0.338,0-0.507c0-0.043,0-0.088,0.053-0.105
		c0.103-0.035,0.211-0.059,0.294-0.137C15.016,7.539,15.028,7.501,15.069,7.503z"/>
	<path fill="#FFA2FF" d="M18.364,5.997c0,0.268,0,0.536,0,0.803c0,0.033,0,0.065-0.01,0.098c-0.008,0.024-0.004,0.052-0.006,0.078
		c-0.021-0.001-0.027-0.018-0.032-0.033c-0.045-0.128-0.138-0.206-0.261-0.254c-0.013-0.005-0.026-0.011-0.039-0.018
		c-0.017-0.01-0.036-0.015-0.048-0.032c-0.004-0.008-0.007-0.016-0.009-0.024c-0.009-0.197-0.005-0.394-0.003-0.592
		c0.001-0.072,0.013-0.078,0.096-0.069C18.158,5.953,18.262,5.965,18.364,5.997z"/>
	<path fill="#FFA2FF" d="M18.333,7.4c0.018,0.028,0.016,0.059,0.016,0.09c0,0.25,0,0.5,0,0.749c0,0.019-0.001,0.038,0.001,0.057
		c0.004,0.027,0.015,0.05,0.048,0.053c-0.033,0.022-0.071,0.025-0.108,0.033c-0.098,0.02-0.196,0.042-0.297,0.038
		c-0.047-0.005-0.038-0.044-0.038-0.071c-0.001-0.205-0.006-0.409,0.002-0.614c0.001-0.008,0.004-0.016,0.007-0.024
		c0.007-0.015,0.02-0.024,0.033-0.033c0.122-0.048,0.231-0.112,0.296-0.234C18.303,7.427,18.305,7.401,18.333,7.4z"/>
	<path fill="#FFDDFF" d="M15.47,5.281c-0.006-0.004-0.011-0.01-0.017-0.012c-0.02-0.005-0.027-0.018-0.026-0.037
		c0-0.005,0-0.009,0-0.014c0-0.218,0.001-0.436,0.001-0.654c0.055-0.003,0.109,0.011,0.163,0.018
		c0.087,0.012,0.174,0.027,0.261,0.041c0.03,0.005,0.033,0.009,0.031,0.035c-0.005,0.05-0.007,0.1-0.015,0.149
		c-0.019,0.118-0.025,0.236-0.039,0.354c-0.005,0.047-0.01,0.095-0.015,0.142c-0.002,0.015-0.011,0.02-0.025,0.018
		C15.682,5.308,15.576,5.295,15.47,5.281z"/>
	<path fill="#FF85FF" d="M14.381,5.985c0.022-0.016,0.05-0.014,0.075-0.019c0.119-0.025,0.238-0.027,0.359-0.019
		c0.009,0.001,0.018,0.004,0.027,0.007c0.015,0.158,0.004,0.316,0.006,0.475c0.001,0.073,0.012,0.147-0.011,0.218
		c-0.036,0.044-0.079,0.018-0.119,0.012c-0.023-0.009-0.048-0.011-0.072-0.009c-0.043-0.001-0.085,0.002-0.128,0
		c-0.14-0.003-0.142-0.005-0.143-0.146c-0.001-0.155,0.003-0.31-0.002-0.464C14.37,6.02,14.369,6.001,14.381,5.985z"/>
	<path fill="#FFAAFF" d="M14.823,6.66c0.001-0.076,0.002-0.152,0.002-0.227c0-0.137,0-0.275,0-0.412
		c0-0.023-0.006-0.048,0.016-0.066c0.127,0.001,0.251,0.018,0.372,0.058c-0.042,0.01-0.042,0.01-0.044,0.041
		c-0.001,0.019,0,0.038,0,0.057c0,0.254,0,0.508,0,0.761c0,0.033-0.001,0.065-0.01,0.098c-0.008,0.029-0.004,0.061-0.006,0.092
		c-0.022-0.002-0.026-0.019-0.029-0.035c-0.025-0.162-0.121-0.268-0.265-0.336c-0.011-0.007-0.021-0.015-0.031-0.023
		C14.827,6.665,14.825,6.662,14.823,6.66z"/>
	<path fill="#FF5EFF" d="M14.381,5.985c0.013,0.036,0.015,0.074,0.015,0.112c-0.001,0.15,0,0.3,0,0.45c0,0.017,0,0.033,0.001,0.05
		c0.002,0.022,0.009,0.029,0.031,0.031c0.033,0.002,0.067,0.002,0.1,0.003c-0.009,0.03-0.035,0.03-0.058,0.031
		c-0.134,0.003-0.264,0.034-0.395,0.059c-0.03,0.006-0.061,0.017-0.09-0.003c-0.01-0.007-0.018-0.016-0.018-0.029
		c-0.001-0.019-0.001-0.038-0.001-0.057c0-0.172,0-0.345,0-0.517c0.109-0.051,0.224-0.085,0.339-0.117
		C14.33,5.992,14.354,5.981,14.381,5.985z"/>
	<path fill="#FF83FF" d="M17.973,7.699c0.001,0.028,0.003,0.057,0.003,0.085c0,0.19,0,0.38,0,0.57c0,0.023-0.007,0.048,0.017,0.065
		c-0.083,0.018-0.305,0.017-0.389-0.001c0-0.216,0-0.431,0-0.647c0-0.009,0-0.019,0-0.028c0.001-0.032,0.002-0.032,0.043-0.042
		c0.008-0.009,0.02-0.016,0.031-0.014c0.085,0.011,0.17,0.006,0.256-0.003C17.948,7.683,17.962,7.689,17.973,7.699z"/>
	<path fill="#FF7AFF" d="M14.724,7.705C14.668,7.73,14.668,7.73,14.668,7.79c0,0.185,0,0.369,0,0.554c0,0.017,0,0.033,0.002,0.05
		c0.001,0.013,0.011,0.021,0.024,0.022c0.031,0.002,0.062,0.002,0.092,0.003c-0.007,0.002-0.013,0.006-0.02,0.006
		c-0.138,0.008-0.276,0.014-0.413-0.01c-0.006-0.004-0.011-0.01-0.017-0.012C14.32,8.4,14.31,8.392,14.31,8.375
		c0-0.01,0-0.019,0-0.029c0-0.195,0-0.391,0-0.586c0-0.034,0.002-0.067,0.033-0.089c0.01-0.006,0.02-0.007,0.031-0.005
		c0.011,0.002,0.022,0.004,0.033,0.006c0.086,0.015,0.172,0.036,0.26,0.017C14.687,7.684,14.71,7.685,14.724,7.705z"/>
	<path fill="#FF83FF" d="M18.051,5.954c-0.073,0.008-0.075-0.01-0.075,0.084c0,0.176,0,0.352,0,0.528
		c0,0.026-0.001,0.052-0.001,0.078c-0.012,0.012-0.028,0.012-0.043,0.01c-0.026-0.007-0.053-0.007-0.08-0.005
		c-0.038,0-0.075,0.002-0.113,0c-0.156-0.002-0.156-0.002-0.157-0.16c0-0.145,0.001-0.29,0-0.434c0-0.024-0.003-0.048,0.009-0.07
		c0.086-0.029,0.175-0.037,0.265-0.041C17.92,5.942,17.986,5.937,18.051,5.954z"/>
	<path fill="#FF61FF" d="M17.59,5.985c0.017,0.025,0.015,0.054,0.015,0.083c0,0.162,0,0.324,0,0.485c0,0.075,0,0.075,0.074,0.075
		c0.024,0,0.048,0.001,0.071,0.002c-0.007,0.031-0.034,0.031-0.056,0.032c-0.121,0.004-0.239,0.028-0.357,0.048
		c-0.025,0.004-0.051,0.011-0.074-0.009c-0.027-0.003-0.044-0.017-0.045-0.046c0-0.017,0-0.033,0-0.05c0-0.169,0-0.337,0-0.506
		c0.003-0.004,0.006-0.006,0.011-0.004c0.006-0.002,0.011-0.005,0.017-0.008C17.357,6.044,17.47,6.004,17.59,5.985z"/>
	<path fill="#FF42FF" d="M13.493,2.26c0.033-0.019,0.066-0.019,0.1,0C13.56,2.265,13.527,2.265,13.493,2.26z"/>
	<path fill="#FF2CFF" d="M11.991,8.489c-0.013-0.004-0.016-0.015-0.016-0.027C11.985,8.468,11.99,8.478,11.991,8.489z"/>
	<path fill="#FF2CFF" d="M12.019,8.532c-0.012-0.005-0.015-0.015-0.015-0.027C12.014,8.511,12.019,8.521,12.019,8.532z"/>
	<path fill="#FF2DFF" d="M12.162,2.236c-0.001,0.011-0.004,0.021-0.015,0.026C12.147,2.25,12.152,2.242,12.162,2.236z"/>
	<path fill="#FF2DFF" d="M12.118,2.305c0,0.012-0.003,0.023-0.016,0.028C12.103,2.321,12.107,2.311,12.118,2.305z"/>
	<path fill="#FF2CFF" d="M11.959,10.61c0.012,0.005,0.015,0.016,0.016,0.027C11.964,10.631,11.96,10.622,11.959,10.61z"/>
	<path fill="#FF3BFF" d="M14.038,5.598c0-0.012,0.002-0.023,0.014-0.029C14.052,5.582,14.048,5.592,14.038,5.598z"/>
	<path fill="#FF3BFF" d="M14.024,5.629c-0.001-0.013,0.001-0.024,0.014-0.031C14.038,5.611,14.035,5.622,14.024,5.629z"/>
	<path fill="#FF3BFF" d="M14.052,5.57c0.003-0.005,0.007-0.009,0.01-0.014C14.062,5.563,14.059,5.567,14.052,5.57z"/>
	<path fill="#FF3BFF" d="M14.068,5.546c0-0.009,0.004-0.015,0.012-0.019C14.081,5.536,14.077,5.542,14.068,5.546z"/>
	<path fill="#FF42FF" d="M13.423,2.338c0.004-0.006,0.008-0.013,0.011-0.019C13.435,2.328,13.431,2.334,13.423,2.338z"/>
	<path fill="#FF42FF" d="M13.435,2.317c0.003-0.004,0.006-0.008,0.009-0.012C13.442,2.31,13.438,2.314,13.435,2.317z"/>
	<path fill="#FF2DFF" d="M12.13,2.284c0,0.009-0.004,0.016-0.012,0.021C12.118,2.295,12.122,2.288,12.13,2.284z"/>
	<path fill="#FFC4FF" d="M18.823,8.134c0.004-0.009,0.011-0.014,0.02-0.014C18.84,8.129,18.833,8.133,18.823,8.134z"/>
	<path fill="#FF42FF" d="M13.452,2.295c0.004-0.006,0.008-0.012,0.011-0.018C13.464,2.285,13.46,2.291,13.452,2.295z"/>
	<path fill="#FFC4FF" d="M18.793,8.159c0.005-0.004,0.01-0.008,0.015-0.012C18.806,8.155,18.802,8.159,18.793,8.159z"/>
	<path fill="#FFC1FF" d="M15.556,8.175c0.003-0.008,0.009-0.012,0.018-0.013C15.571,8.171,15.565,8.175,15.556,8.175z"/>
	<path fill="#FFC4FF" d="M18.779,8.17c0.004-0.003,0.008-0.007,0.012-0.01C18.79,8.167,18.786,8.171,18.779,8.17z"/>
	<path fill="#FFC1FF" d="M15.541,8.187c0.005-0.004,0.01-0.008,0.015-0.011C15.555,8.184,15.55,8.188,15.541,8.187z"/>
	<path fill="#FFC4FF" d="M18.75,8.188c0.004-0.007,0.01-0.011,0.018-0.012C18.765,8.185,18.759,8.189,18.75,8.188z"/>
	<path fill="#FFC1FF" d="M15.513,8.204c0.005-0.008,0.012-0.012,0.021-0.013C15.53,8.2,15.523,8.204,15.513,8.204z"/>
	<path fill="#FF42FF" d="M13.464,2.274c0.005-0.004,0.009-0.008,0.014-0.012C13.474,2.266,13.469,2.27,13.464,2.274z"/>
	<path fill="#FF2CFF" d="M11.958,8.432c-0.003-0.005-0.007-0.011-0.01-0.016C11.956,8.419,11.959,8.424,11.958,8.432z"/>
	<path fill="#FF2CFF" d="M11.974,8.461c-0.008-0.005-0.011-0.011-0.012-0.02C11.971,8.445,11.975,8.452,11.974,8.461z"/>
	<path fill="#FF2DFF" d="M12.146,2.262c-0.004,0.005-0.007,0.009-0.011,0.014C12.135,2.268,12.139,2.264,12.146,2.262z"/>
	<path fill="#FF2CFF" d="M12.003,8.504c-0.004-0.005-0.008-0.011-0.012-0.016C11.999,8.49,12.003,8.496,12.003,8.504z"/>
	<path fill="#FF41FF" d="M17.245,6.089c-0.006,0.003-0.011,0.005-0.017,0.008C17.231,6.089,17.237,6.087,17.245,6.089z"/>
	<path fill="#FF2CFF" d="M12.029,8.547c-0.003-0.005-0.007-0.01-0.01-0.015C12.026,8.534,12.029,8.539,12.029,8.547z"/>
	<path fill="#FF2CFF" d="M12.045,8.576c-0.004-0.006-0.007-0.012-0.011-0.018C12.041,8.561,12.045,8.567,12.045,8.576z"/>
	<path fill="#FFC1FF" d="M15.547,6.153c-0.009,0-0.014-0.003-0.018-0.011C15.537,6.142,15.544,6.145,15.547,6.153z"/>
	<path fill="#FFC4FF" d="M18.808,8.147c0.003-0.007,0.008-0.012,0.016-0.013C18.822,8.142,18.817,8.146,18.808,8.147z"/>
	<path fill="#FFC4FF" d="M18.783,6.168c-0.008,0-0.014-0.004-0.017-0.011C18.774,6.156,18.78,6.16,18.783,6.168z"/>
	<path fill="#FFC4FF" d="M18.805,6.184c-0.004-0.003-0.007-0.006-0.011-0.009C18.801,6.174,18.805,6.178,18.805,6.184z"/>
	<path fill="#FFC4FF" d="M18.822,6.198c-0.007-0.001-0.012-0.004-0.014-0.011C18.817,6.186,18.821,6.19,18.822,6.198z"/>
	<path fill="#FF2CFF" d="M11.905,10.523c0.004,0.006,0.007,0.012,0.011,0.018C11.908,10.538,11.905,10.532,11.905,10.523z"/>
	<path fill="#FF2CFF" d="M11.921,10.552c0.004,0.004,0.007,0.009,0.011,0.013C11.925,10.564,11.921,10.56,11.921,10.552z"/>
	<path fill="#FF2CFF" d="M11.933,10.566c0.007,0.004,0.011,0.01,0.012,0.019C11.937,10.581,11.933,10.575,11.933,10.566z"/>
	<path fill="#FF2CFF" d="M11.95,10.595c0.003,0.005,0.007,0.01,0.01,0.015C11.952,10.608,11.949,10.603,11.95,10.595z"/>
	<path fill="#FF2DFF" d="M12.162,4.41c0.003-0.005,0.007-0.01,0.01-0.014C12.172,4.403,12.169,4.408,12.162,4.41z"/>
	<path fill="#FF2CFF" d="M11.975,10.638c0.008,0.005,0.012,0.012,0.012,0.021C11.979,10.654,11.975,10.647,11.975,10.638z"/>
	<path fill="#FF2DFF" d="M12.177,4.384c0.004-0.006,0.007-0.012,0.011-0.017C12.188,4.375,12.184,4.381,12.177,4.384z"/>
	<path fill="#FF2DFF" d="M12.192,4.359c0.001-0.009,0.006-0.016,0.014-0.02C12.205,4.348,12.2,4.355,12.192,4.359z"/>
	<path fill="#666666" d="M1.795,6.846c0.014-0.003,0.019-0.004,0.024-0.004C2,6.838,2.181,6.833,2.362,6.831
		c0.253-0.003,0.506,0.002,0.759-0.006c0.42-0.013,0.84-0.003,1.26-0.015C4.76,6.799,5.14,6.808,5.519,6.797
		c0.432-0.012,0.864-0.008,1.296-0.014c0.057-0.001,0.114-0.004,0.171-0.008c0.038-0.003,0.062,0.013,0.082,0.044
		C7.134,6.918,7.203,7.015,7.27,7.113c0.105,0.151,0.21,0.301,0.314,0.452c0.077,0.112,0.153,0.224,0.231,0.336
		c0.11,0.159,0.22,0.317,0.33,0.476C8.22,8.485,8.294,8.593,8.368,8.701c0.109,0.157,0.217,0.313,0.326,0.47
		C8.77,9.28,8.845,9.391,8.921,9.5c0.107,0.155,0.215,0.309,0.322,0.464c0.08,0.116,0.159,0.232,0.239,0.348
		c0.103,0.149,0.207,0.297,0.31,0.446c0.08,0.116,0.159,0.232,0.239,0.347c0.027,0.039,0.054,0.078,0.08,0.116
		c-0.012,0.019-0.023,0.006-0.031,0.002c-0.104-0.054-0.207-0.108-0.311-0.162c-0.224-0.118-0.448-0.235-0.671-0.353
		c-0.238-0.126-0.476-0.252-0.715-0.377c-0.365-0.192-0.73-0.385-1.095-0.577C7.035,9.62,6.782,9.487,6.529,9.353
		C6.223,9.192,5.918,9.03,5.612,8.869C5.393,8.753,5.173,8.638,4.953,8.522C4.7,8.389,4.447,8.255,4.194,8.122
		c-0.255-0.135-0.51-0.269-0.766-0.404c-0.167-0.088-0.333-0.176-0.5-0.264C2.661,7.313,2.393,7.172,2.125,7.03
		C2.037,6.984,1.948,6.937,1.86,6.89C1.839,6.879,1.817,6.87,1.795,6.846z"/>
	<path fill="#FF8FFF" d="M5.786,4.181C5.814,4.155,5.85,4.141,5.883,4.123c0.214-0.118,0.428-0.235,0.642-0.351
		c0.006-0.003,0.013-0.004,0.02-0.006c0.024,0.036,0.023,0.077,0.023,0.117c0.001,0.786,0.001,1.571,0,2.357
		c0,0.031,0.002,0.062-0.02,0.089C6.462,6.342,6.373,6.334,6.286,6.335C6.143,6.336,6,6.335,5.857,6.335
		c-0.076,0-0.097-0.02-0.105-0.094C5.749,6.217,5.75,6.193,5.75,6.169c0-0.619,0-1.238,0-1.857C5.75,4.266,5.739,4.215,5.786,4.181z
		"/>
	<path fill="#FFA2FF" d="M6.547,6.324c0-0.58,0-1.159,0-1.739c0-0.227,0-0.453,0-0.68c0-0.035,0.004-0.071-0.009-0.106
		C6.534,3.791,6.542,3.777,6.545,3.766c0,0,0.002-0.001,0.002-0.001c0.007-0.008,0.02-0.005,0.026-0.014L6.575,3.75
		c0.004-0.004,0.008-0.007,0.013-0.009C6.664,3.698,6.74,3.655,6.817,3.613C6.924,3.554,7.032,3.495,7.14,3.436
		c0.021-0.011,0.042-0.02,0.064-0.03c0.028,0.058,0.023,0.121,0.024,0.182c0,0.692,0,1.384,0,2.076c0,0.05-0.003,0.1,0.019,0.148
		c-0.04,0.064-0.08,0.128-0.122,0.191C7.06,6.105,6.993,6.206,6.927,6.307c-0.01,0.015-0.021,0.023-0.04,0.024
		C6.794,6.331,6.701,6.333,6.609,6.334c-0.004,0-0.009-0.003-0.014-0.004C6.578,6.334,6.561,6.343,6.547,6.324z"/>
	<path fill="#FF79FF" d="M6.547,6.324C6.563,6.326,6.579,6.328,6.595,6.33c-0.023,0.01-0.047,0.006-0.07,0.006
		c-0.316,0.003-0.632,0.006-0.948,0.01c-0.05,0.001-0.1,0.002-0.15,0.003c-0.016,0-0.033,0.003-0.049-0.005
		c-0.14,0.013-0.28,0.002-0.42,0.006C4.928,6.35,4.915,6.335,4.909,6.309C4.903,6.28,4.904,6.252,4.904,6.223
		c0-0.485,0-0.971,0-1.456c0-0.04-0.004-0.081,0.021-0.117c0.066-0.046,0.139-0.08,0.21-0.119C5.343,4.417,5.552,4.304,5.76,4.19
		c0.008-0.004,0.017-0.006,0.026-0.009C5.771,4.207,5.772,4.236,5.773,4.264c0,0.15,0,0.3,0,0.45c0,0.498,0,0.996,0,1.494
		c0,0.026-0.004,0.052,0.008,0.077C5.792,6.312,5.808,6.33,5.839,6.328c0.012-0.001,0.024,0,0.036,0c0.203,0,0.405,0,0.608,0
		C6.504,6.328,6.525,6.325,6.547,6.324z"/>
	<path fill="#FFB2FF" d="M7.247,5.812c-0.04-0.008-0.041-0.008-0.042-0.035c-0.001-0.021,0-0.043,0-0.064c0-0.718,0-1.435,0-2.153
		c0-0.035,0.005-0.071-0.01-0.106c-0.008-0.017,0.005-0.032,0.01-0.048C7.268,3.361,7.34,3.329,7.408,3.291
		c0.144-0.079,0.288-0.158,0.432-0.237c0.012-0.007,0.026-0.011,0.039-0.016c0.05,0.03,0.036,0.08,0.036,0.123
		c0.001,0.489,0,0.977,0.001,1.466c0,0.052-0.005,0.105,0.006,0.157c-0.037,0.074-0.088,0.14-0.133,0.21
		c-0.082,0.128-0.166,0.254-0.25,0.381C7.442,5.52,7.344,5.666,7.247,5.812z"/>
	<path fill="#FF61FF" d="M4.926,4.65c0.001,0.031,0.002,0.062,0.002,0.093c0,0.502,0,1.005,0,1.507c0,0.021,0,0.043,0.001,0.064
		C4.93,6.331,4.94,6.34,4.956,6.341c0.019,0.001,0.038,0.001,0.057,0.001c0.121,0.001,0.243,0.001,0.365,0.002
		C5.36,6.353,5.341,6.35,5.322,6.35C5.025,6.353,4.728,6.356,4.43,6.359C4.361,6.36,4.292,6.361,4.223,6.362
		c-0.012,0-0.023-0.002-0.035-0.004C4.17,6.365,4.152,6.368,4.135,6.355C4.114,6.326,4.117,6.292,4.117,6.259
		C4.116,5.89,4.118,5.521,4.116,5.153c0-0.026-0.002-0.053,0.022-0.072c0.01-0.015,0.026-0.02,0.041-0.028
		C4.41,4.926,4.642,4.8,4.874,4.673C4.89,4.664,4.908,4.658,4.926,4.65z"/>
	<path fill="#FFC8FF" d="M7.922,4.783c-0.018-0.01-0.029-0.024-0.029-0.045c0-0.019,0-0.038,0-0.057c0-0.517,0-1.035,0-1.552
		c0-0.031,0.006-0.062-0.014-0.09c0.002-0.005,0.005-0.006,0.01-0.005c0.008-0.001,0.013-0.006,0.018-0.011l0.003-0.001
		c0.007-0.008,0.018-0.007,0.026-0.013l0.003-0.001C7.945,2.999,7.956,3,7.963,2.992l0.002-0.001
		c0.004-0.004,0.008-0.006,0.012-0.009c0.005-0.002,0.01-0.004,0.015-0.006c0.004-0.003,0.009-0.006,0.014-0.008
		C8.01,2.966,8.015,2.964,8.019,2.962c0.005-0.003,0.011-0.006,0.016-0.01C8.128,2.9,8.221,2.847,8.314,2.796
		c0.093-0.052,0.187-0.103,0.281-0.153c0.008-0.004,0.018-0.006,0.026-0.009C8.65,2.678,8.645,2.729,8.645,2.779
		c0.001,0.249,0,0.498,0.001,0.748c0,0.042-0.005,0.086,0.019,0.124c-0.031,0.07-0.08,0.128-0.121,0.192
		c-0.079,0.124-0.16,0.247-0.242,0.369c-0.07,0.104-0.134,0.213-0.21,0.313C8.087,4.53,8.082,4.535,8.08,4.543
		c0.001,0.005,0,0.009-0.005,0.01c-0.003,0.005-0.006,0.01-0.01,0.014l0,0C8.059,4.572,8.053,4.576,8.052,4.584l0.001-0.001
		c-0.012,0.005-0.008,0.02-0.017,0.026L8.035,4.61C8.03,4.616,8.025,4.621,8.023,4.629c0.001,0.005,0,0.008-0.005,0.01
		c-0.003,0.005-0.006,0.01-0.01,0.014l0,0C8.001,4.659,7.995,4.665,7.995,4.674c0.001,0.005-0.001,0.007-0.006,0.008
		c-0.003,0.005-0.006,0.01-0.011,0.013l0,0.001C7.973,4.702,7.967,4.707,7.966,4.715c0.001,0.005,0,0.008-0.005,0.01
		C7.958,4.73,7.954,4.735,7.95,4.74l0,0C7.943,4.745,7.938,4.751,7.938,4.76l0,0.005L7.934,4.768
		C7.93,4.773,7.926,4.778,7.922,4.783L7.922,4.783z"/>
	<path fill="#FF4FFF" d="M4.138,5.081C4.128,5.119,4.141,5.156,4.14,5.194C4.139,5.552,4.14,5.909,4.14,6.267
		c0,0.029,0,0.057,0,0.086c-0.015,0.018-0.036,0.01-0.054,0.01C3.879,6.364,3.671,6.362,3.464,6.365
		c-0.063,0.001-0.089-0.027-0.09-0.083C3.37,6.036,3.371,5.791,3.373,5.545c0-0.022,0.009-0.042,0.021-0.06
		C3.396,5.481,3.399,5.48,3.403,5.481c0.009,0,0.014-0.006,0.02-0.011l0.002-0.001c0.007-0.008,0.02-0.005,0.027-0.014l0.002-0.001
		C3.456,5.45,3.46,5.448,3.465,5.446c0.074-0.042,0.148-0.084,0.223-0.125c0.139-0.076,0.278-0.152,0.418-0.228
		C4.116,5.088,4.127,5.085,4.138,5.081z"/>
	<path fill="#FF3AFF" d="M3.395,5.486c0,0.255,0,0.51,0,0.765c0,0.024-0.003,0.048,0.005,0.071c0.008,0.024,0.02,0.034,0.047,0.036
		c0.007,0,0.014,0,0.021,0c0.212,0,0.424,0,0.636,0c0.012,0,0.024-0.002,0.035-0.003c0.016,0.002,0.032,0.004,0.048,0.005
		c-0.02,0.01-0.042,0.006-0.063,0.006c-0.32,0.003-0.64,0.006-0.959,0.01C2.705,6.379,2.244,6.386,1.784,6.391
		c-0.009,0-0.019,0.001-0.026-0.006C1.755,6.372,1.767,6.37,1.774,6.366c0.391-0.214,0.782-0.427,1.174-0.641
		c0.128-0.07,0.255-0.14,0.383-0.209C3.351,5.505,3.373,5.496,3.395,5.486z"/>
	<path fill="#FFD9FF" d="M8.665,3.651c-0.04-0.008-0.04-0.008-0.041-0.035c-0.001-0.019,0-0.038,0-0.057c0-0.259,0-0.519,0-0.778
		c0-0.038,0.004-0.076-0.009-0.113C8.611,2.658,8.619,2.645,8.622,2.633c0.014-0.009,0.026-0.02,0.041-0.028
		c0.343-0.187,0.686-0.375,1.029-0.562c0.01-0.005,0.019-0.016,0.035-0.005C9.71,2.066,9.693,2.094,9.675,2.121
		C9.572,2.278,9.468,2.435,9.364,2.592C9.286,2.712,9.208,2.831,9.13,2.951C9.025,3.11,8.92,3.269,8.815,3.428
		C8.781,3.48,8.747,3.532,8.714,3.584c-0.009,0.014-0.014,0.03-0.03,0.039C8.672,3.628,8.675,3.643,8.665,3.649L8.665,3.651z"/>
	<path fill="#FFB2FF" d="M7.963,2.992C7.958,3.004,7.949,3.007,7.938,3.007C7.943,2.997,7.952,2.992,7.963,2.992z"/>
	<path fill="#FFB2FF" d="M7.935,3.008C7.93,3.018,7.92,3.021,7.909,3.021C7.915,3.011,7.924,3.007,7.935,3.008z"/>
	<path fill="#FFC8FF" d="M8.665,3.649C8.666,3.637,8.67,3.627,8.684,3.624C8.682,3.635,8.675,3.643,8.665,3.649z"/>
	<path fill="#FF8FFF" d="M6.574,3.751C6.569,3.763,6.559,3.765,6.548,3.765C6.554,3.755,6.562,3.751,6.574,3.751z"/>
	<path fill="#FFB2FF" d="M8.035,4.609c0-0.012,0.004-0.022,0.017-0.026C8.051,4.594,8.046,4.604,8.035,4.609z"/>
	<path fill="#FF3AFF" d="M3.451,5.455C3.446,5.467,3.436,5.469,3.425,5.469C3.43,5.458,3.44,5.455,3.451,5.455z"/>
	<path fill="#FFB2FF" d="M7.906,3.022c-0.004,0.007-0.01,0.011-0.018,0.011C7.892,3.025,7.898,3.022,7.906,3.022z"/>
	<path fill="#FFB2FF" d="M8.08,4.543c0.001-0.008,0.004-0.015,0.012-0.019C8.093,4.533,8.089,4.539,8.08,4.543z"/>
	<path fill="#FF3AFF" d="M3.423,5.47c-0.004,0.008-0.011,0.011-0.02,0.011C3.407,5.473,3.414,5.469,3.423,5.47z"/>
	<path fill="#FFB2FF" d="M7.977,2.983C7.973,2.986,7.969,2.988,7.965,2.991C7.966,2.984,7.97,2.981,7.977,2.983z"/>
	<path fill="#FF3AFF" d="M3.465,5.446C3.461,5.449,3.457,5.452,3.453,5.454C3.455,5.448,3.458,5.445,3.465,5.446z"/>
	<path fill="#FFB2FF" d="M7.922,4.783c0.004-0.005,0.008-0.01,0.012-0.015C7.934,4.776,7.93,4.781,7.922,4.783z"/>
	<path fill="#FFB2FF" d="M8.006,2.968C8.001,2.971,7.997,2.974,7.992,2.977C7.994,2.969,7.999,2.967,8.006,2.968z"/>
	<path fill="#FFB2FF" d="M8.035,2.952c-0.005,0.003-0.01,0.007-0.016,0.01C8.022,2.954,8.027,2.951,8.035,2.952z"/>
	<path fill="#FFB2FF" d="M7.938,4.76c0-0.009,0.004-0.017,0.013-0.021C7.95,4.749,7.946,4.756,7.938,4.76z"/>
	<path fill="#FFB2FF" d="M7.95,4.74c0.003-0.005,0.007-0.01,0.01-0.015C7.962,4.733,7.958,4.738,7.95,4.74z"/>
	<path fill="#FFB2FF" d="M7.966,4.715C7.966,4.706,7.97,4.7,7.978,4.696C7.978,4.705,7.974,4.711,7.966,4.715z"/>
	<path fill="#FFB2FF" d="M7.978,4.695c0.004-0.004,0.007-0.009,0.011-0.013C7.989,4.69,7.985,4.694,7.978,4.695z"/>
	<path fill="#FFB2FF" d="M7.995,4.674c0-0.009,0.004-0.016,0.013-0.021C8.008,4.663,8.004,4.67,7.995,4.674z"/>
	<path fill="#FFB2FF" d="M8.008,4.654c0.003-0.005,0.007-0.01,0.01-0.014C8.019,4.647,8.015,4.652,8.008,4.654z"/>
	<path fill="#FFB2FF" d="M8.023,4.629c0-0.008,0.004-0.015,0.012-0.019C8.035,4.619,8.031,4.625,8.023,4.629z"/>
	<path fill="#FFB2FF" d="M8.052,4.584C8.053,4.576,8.057,4.57,8.065,4.567C8.065,4.576,8.06,4.582,8.052,4.584z"/>
	<path fill="#FFB2FF" d="M8.065,4.567c0.003-0.005,0.007-0.009,0.01-0.014C8.076,4.561,8.072,4.566,8.065,4.567z"/>
	<path fill="#FF8FFF" d="M6.588,3.741C6.584,3.744,6.579,3.747,6.575,3.75C6.577,3.743,6.581,3.74,6.588,3.741z"/>
	<path fill="#666666" d="M22.131,1.618c0.035,0.003,0.062,0.025,0.091,0.04c0.15,0.078,0.299,0.158,0.449,0.237
		c0.32,0.169,0.641,0.339,0.961,0.508c0.302,0.159,0.604,0.317,0.906,0.476c0.247,0.13,0.494,0.26,0.74,0.391
		c0.268,0.141,0.536,0.283,0.804,0.424c0.255,0.135,0.511,0.269,0.766,0.403c0.257,0.136,0.515,0.272,0.772,0.408
		c0.179,0.095,0.359,0.189,0.538,0.284c0.255,0.135,0.511,0.269,0.766,0.404c0.251,0.132,0.502,0.265,0.753,0.397
		c0.251,0.132,0.502,0.265,0.753,0.397c0.008,0.004,0.016,0.01,0.024,0.015c-0.006,0.018-0.02,0.011-0.029,0.011
		c-0.036,0.001-0.072,0-0.107,0.001c-0.492,0.012-0.983,0.007-1.475,0.018c-0.401,0.009-0.802,0.002-1.203,0.014
		c-0.413,0.012-0.826,0.003-1.238,0.015c-0.372,0.011-0.745,0.007-1.117,0.012c-0.073,0.001-0.072,0.019-0.131-0.071
		c-0.077-0.118-0.159-0.232-0.239-0.348c-0.08-0.116-0.161-0.231-0.241-0.346c-0.063-0.09-0.125-0.18-0.188-0.27
		c-0.076-0.11-0.151-0.22-0.227-0.33c-0.108-0.157-0.218-0.313-0.326-0.47c-0.06-0.086-0.118-0.173-0.177-0.26
		c-0.073-0.106-0.146-0.212-0.219-0.318c-0.065-0.094-0.13-0.188-0.195-0.282c-0.073-0.106-0.146-0.212-0.219-0.318
		c-0.081-0.118-0.163-0.235-0.245-0.352c-0.107-0.155-0.215-0.309-0.322-0.464c-0.073-0.106-0.146-0.212-0.219-0.318
		c-0.065-0.094-0.131-0.188-0.195-0.282C22.135,1.637,22.134,1.626,22.131,1.618L22.131,1.618z"/>
	<path fill="#FF5EFF" d="M25.715,9.079c-0.019,0.022-0.047,0.03-0.072,0.044c-0.147,0.081-0.295,0.162-0.443,0.242
		c-0.01,0.006-0.022,0.008-0.033,0.013c-0.039-0.001-0.044-0.031-0.048-0.059c-0.005-0.033-0.003-0.067-0.003-0.1
		c-0.001-0.763,0.002-1.525-0.001-2.288c0-0.026-0.002-0.053,0.008-0.078c0.035-0.073,0.087-0.136,0.129-0.205
		c0.018-0.031,0.04-0.059,0.058-0.09c0.014-0.023,0.031-0.034,0.058-0.033c0.031,0.001,0.062-0.002,0.093-0.002
		c0.167-0.002,0.334-0.004,0.501-0.006c0.007,0,0.014,0.002,0.021,0.002c-0.013,0.036-0.045,0.03-0.072,0.032
		c-0.043,0.003-0.086,0.003-0.129,0.001c-0.056-0.003-0.078,0.023-0.075,0.077c0.001,0.019,0,0.038,0,0.057
		c0,0.736,0,1.472-0.001,2.208C25.705,8.956,25.716,9.017,25.715,9.079z"/>
	<path fill="#FF6DFF" d="M25.715,9.079c-0.025-0.023-0.029-0.053-0.032-0.084c-0.001-0.017,0-0.033,0-0.05c0-0.772,0-1.545,0-2.317
		c0-0.021,0-0.043,0.001-0.064c0.001-0.026,0.008-0.033,0.036-0.034c0.069-0.001,0.138,0,0.207-0.001
		c0.019,0,0.039,0.005,0.055-0.01c0.091-0.006,0.183-0.007,0.274-0.002c0.032,0.036,0.023,0.081,0.023,0.123
		c0.001,0.656,0.001,1.311,0,1.967c0,0.053,0.002,0.105,0.019,0.155c-0.06,0.043-0.127,0.073-0.191,0.109
		c-0.114,0.064-0.228,0.125-0.343,0.188c-0.006,0.003-0.013,0.004-0.02,0.006c-0.006,0.003-0.011,0.006-0.017,0.01
		C25.724,9.078,25.72,9.08,25.715,9.079z"/>
	<path fill="#FF50FF" d="M25.122,6.853c0.014,0.041,0.017,0.083,0.017,0.126c-0.001,0.765,0,1.53,0,2.295
		c0,0.021,0,0.043,0.001,0.064c0.001,0.018,0.012,0.031,0.028,0.039c-0.042,0.036-0.094,0.055-0.141,0.082
		c-0.125,0.069-0.25,0.137-0.376,0.206c-0.019,0.01-0.038,0.018-0.058,0.027c-0.041-0.006-0.042-0.04-0.047-0.07
		c-0.005-0.033-0.003-0.066-0.003-0.1c0-0.568,0-1.137,0-1.705c0-0.033-0.004-0.066,0.009-0.098c0.05-0.078,0.099-0.156,0.149-0.233
		c0.08-0.123,0.162-0.246,0.242-0.369c0.055-0.083,0.109-0.167,0.164-0.25C25.111,6.861,25.117,6.858,25.122,6.853z"/>
	<path fill="#FF8DFF" d="M27.199,6.504c0.129-0.007,0.259-0.006,0.389-0.003c0.044,0.035,0.037,0.085,0.037,0.132
		c0.001,0.405,0,0.81,0,1.215c0,0.062,0.001,0.124,0.007,0.185c-0.066,0.047-0.14,0.08-0.21,0.12
		c-0.163,0.09-0.326,0.179-0.49,0.267c-0.01,0.006-0.022,0.009-0.033,0.013c-0.033,0.017-0.049,0.001-0.058-0.029
		c-0.007-0.023-0.006-0.047-0.006-0.071c0-0.572,0-1.144,0-1.716c0-0.012,0.001-0.024,0.001-0.036c0-0.052,0.021-0.076,0.078-0.074
		C27.009,6.509,27.104,6.511,27.199,6.504z"/>
	<path fill="#FF7DFF" d="M27.199,6.504c-0.014,0.013-0.031,0.01-0.047,0.01c-0.069,0-0.138,0-0.207,0c-0.014,0-0.029,0-0.043,0
		c-0.039,0.002-0.043,0.006-0.044,0.048c0,0.01,0,0.019,0,0.029c0,0.59,0,1.18,0,1.77c0,0.012,0,0.024,0,0.036
		c0.001,0.027,0.002,0.027,0.041,0.035c-0.013,0.009-0.026,0.02-0.04,0.028c-0.176,0.096-0.353,0.192-0.529,0.288
		c-0.01,0.006-0.021,0.009-0.032,0.014c-0.025-0.002-0.04-0.016-0.041-0.041c-0.001-0.021-0.001-0.043-0.001-0.064
		c0-0.713,0-1.427,0-2.14c0.038-0.001,0.076-0.004,0.114-0.004c0.253-0.004,0.505-0.007,0.758-0.01
		C27.152,6.502,27.176,6.503,27.199,6.504z"/>
	<path fill="#FFA5FF" d="M27.632,8.033c-0.018-0.01-0.029-0.024-0.029-0.046c0-0.019,0-0.038,0-0.057c0-0.439,0-0.878,0-1.317
		c0-0.038-0.001-0.076-0.015-0.112c0.009-0.001,0.019-0.003,0.028-0.003c0.277-0.004,0.553-0.007,0.83-0.011
		c0.014,0,0.028,0.002,0.043,0.002c-0.01,0.306-0.002,0.611-0.005,0.917c0,0.052,0.002,0.104,0.011,0.156
		c-0.055,0.042-0.118,0.069-0.178,0.102c-0.208,0.115-0.416,0.228-0.625,0.341c-0.01,0.006-0.022,0.008-0.033,0.013
		C27.652,8.027,27.638,8.022,27.632,8.033L27.632,8.033z"/>
	<path fill="#FF40FF" d="M24.552,7.719c0.014,0.036,0.014,0.074,0.014,0.113c0,0.585,0,1.169,0,1.754
		c0,0.038-0.006,0.077,0.027,0.107c-0.06,0.043-0.127,0.073-0.191,0.109c-0.124,0.069-0.25,0.137-0.375,0.205
		c-0.021,0.011-0.043,0.02-0.064,0.03c-0.036,0.014-0.04-0.015-0.045-0.036c-0.008-0.03-0.005-0.061-0.005-0.092
		c0-0.344-0.001-0.689,0.001-1.033c0-0.063-0.022-0.128,0.006-0.19c0.014-0.041,0.044-0.073,0.067-0.109
		c0.102-0.158,0.206-0.314,0.309-0.471c0.077-0.117,0.154-0.235,0.231-0.352C24.534,7.741,24.543,7.73,24.552,7.719z"/>
	<path fill="#FF2DFF" d="M23.919,8.684c0.003,0.03,0.003,0.061,0.013,0.091c0.007,0.022,0.004,0.047,0.004,0.071
		c0,0.368,0,0.737,0,1.105c0,0.021,0,0.043,0.002,0.064c0.001,0.014,0.013,0.018,0.025,0.021c-0.069,0.048-0.144,0.083-0.217,0.123
		c-0.385,0.211-0.77,0.421-1.155,0.631c-0.021,0.011-0.042,0.022-0.063,0.033c-0.015-0.013-0.002-0.023,0.004-0.031
		c0.053-0.082,0.106-0.164,0.16-0.246c0.081-0.123,0.163-0.247,0.244-0.37c0.109-0.165,0.218-0.33,0.326-0.496
		c0.103-0.157,0.206-0.315,0.309-0.473c0.112-0.171,0.225-0.342,0.338-0.514C23.911,8.69,23.916,8.687,23.919,8.684z"/>
	<path fill="#FFBCFF" d="M28.495,7.562c-0.018-0.004-0.032-0.011-0.032-0.032c0-0.014-0.001-0.029-0.001-0.043
		c0-0.307,0-0.615,0-0.922c0-0.007,0.001-0.014,0-0.021c-0.004-0.025,0.01-0.04,0.027-0.054c0.014-0.001,0.028-0.003,0.042-0.003
		c0.368-0.005,0.736-0.009,1.104-0.013c0.024,0,0.047,0.001,0.071,0.002c-0.013,0.04-0.049,0.031-0.077,0.032
		c-0.066,0.003-0.133,0-0.199,0.001c-0.032,0.001-0.057,0.011-0.057,0.048c0,0.156-0.007,0.313,0.004,0.469
		c0.001,0.017,0.009,0.032,0.014,0.048c-0.014,0.009-0.026,0.02-0.041,0.028c-0.276,0.151-0.553,0.302-0.83,0.452
		C28.513,7.557,28.504,7.559,28.495,7.562z"/>
	<path fill="#FFD5FF" d="M29.391,7.072c-0.025-0.003-0.039-0.015-0.041-0.041C29.35,7.02,29.35,7.008,29.35,6.996
		c0-0.147,0-0.295,0-0.442c0-0.012,0-0.024,0.001-0.036c0.002-0.022,0.009-0.03,0.03-0.031c0.026-0.001,0.052-0.001,0.078-0.001
		c0.067,0,0.133,0,0.2,0c0.016,0,0.034,0.003,0.047-0.011c0.009-0.001,0.019-0.003,0.028-0.003c0.236-0.003,0.472-0.006,0.708-0.009
		c0.014,0,0.028,0,0.044,0c0,0.025-0.02,0.028-0.032,0.035c-0.113,0.062-0.226,0.123-0.339,0.185
		c-0.144,0.079-0.289,0.157-0.433,0.236c-0.019,0.01-0.038,0.018-0.058,0.027c-0.007,0.002-0.012,0.007-0.018,0.01L29.603,6.96
		l-0.006,0c-0.007,0.002-0.012,0.007-0.018,0.011l-0.003,0.004l-0.005,0c-0.009,0.001-0.015,0.006-0.02,0.012L29.55,6.987
		c-0.007,0.008-0.02,0.005-0.027,0.014l-0.001,0C29.514,7.01,29.5,7.006,29.494,7.017l0,0c-0.005,0.004-0.01,0.007-0.015,0.01
		l-0.005,0.005l-0.007,0c-0.007,0.002-0.012,0.007-0.018,0.01l-0.004,0.005l-0.006,0c-0.007,0.002-0.013,0.007-0.019,0.011
		l-0.002,0.004L29.415,7.06c-0.009,0-0.015,0.006-0.021,0.012L29.391,7.072z"/>
	<path fill="#FFBCFF" d="M29.522,7.001c0.006-0.012,0.016-0.014,0.027-0.014C29.544,6.998,29.534,7.001,29.522,7.001z"/>
	<path fill="#FFBCFF" d="M29.494,7.017c0.005-0.012,0.015-0.016,0.027-0.015C29.515,7.012,29.506,7.017,29.494,7.017z"/>
	<path fill="#FF8DFF" d="M27.632,8.033c0.005-0.012,0.015-0.015,0.027-0.015C27.653,8.028,27.644,8.033,27.632,8.033z"/>
	<path fill="#FFBCFF" d="M29.608,6.956c0.006-0.003,0.012-0.007,0.018-0.01C29.622,6.953,29.617,6.957,29.608,6.956z"/>
	<path fill="#FFBCFF" d="M29.579,6.971c0.004-0.007,0.01-0.011,0.018-0.011C29.594,6.968,29.588,6.971,29.579,6.971z"/>
	<path fill="#FFBCFF" d="M29.551,6.986c0.004-0.008,0.011-0.012,0.02-0.012C29.567,6.983,29.56,6.987,29.551,6.986z"/>
	<path fill="#FFBCFF" d="M29.479,7.027c0.005-0.003,0.01-0.007,0.015-0.01C29.492,7.024,29.487,7.028,29.479,7.027z"/>
	<path fill="#FFBCFF" d="M29.45,7.041c0.004-0.007,0.01-0.01,0.018-0.01C29.464,7.039,29.459,7.042,29.45,7.041z"/>
	<path fill="#FFBCFF" d="M29.421,7.057c0.004-0.007,0.01-0.011,0.019-0.011C29.437,7.054,29.43,7.058,29.421,7.057z"/>
	<path fill="#FFBCFF" d="M29.393,7.072c0.005-0.008,0.012-0.011,0.021-0.012C29.41,7.069,29.403,7.073,29.393,7.072z"/>
	<polygon fill="#666666" points="22.131,1.618 22.127,1.615 22.131,1.618 	"/>
	<path fill="#FF5EFF" d="M25.726,9.074c0.006-0.003,0.011-0.006,0.017-0.01C25.74,9.072,25.734,9.075,25.726,9.074z"/>
	<path fill="#FFEAFF" d="M30.164,8.458c0.054-0.043,0.117-0.072,0.177-0.106c0.187-0.109,0.376-0.216,0.564-0.323
		c0.018-0.01,0.034-0.027,0.062-0.024c0.001,0.026,0.002,0.051,0.002,0.077c0,0.51,0,1.02,0,1.531c0,0.77,0,1.54,0,2.31
		c0,0.091,0.012,0.079-0.08,0.079c-0.217,0.001-0.434,0-0.651,0c-0.024,0-0.047-0.002-0.071-0.003
		c-0.033-0.039-0.023-0.086-0.023-0.131c0-1.033,0-2.065,0-3.098c0-0.072,0-0.143,0-0.215C30.143,8.521,30.144,8.487,30.164,8.458z"
		/>
	<path fill="#FFD1FF" d="M30.164,8.458c0.001,0.033,0.002,0.067,0.002,0.1c0,1.116,0,2.231,0,3.347c0,0.031,0,0.062,0.001,0.093
		c-0.014,0.001-0.028,0.004-0.042,0.004c-0.196,0-0.393,0-0.589,0c-0.014,0-0.028-0.002-0.042-0.003
		c-0.025-0.027-0.023-0.062-0.023-0.095c0-0.988,0-1.976,0-2.964c0-0.034,0.002-0.067,0.02-0.097
		c0.043-0.035,0.093-0.057,0.14-0.084c0.169-0.097,0.338-0.194,0.507-0.291C30.146,8.463,30.155,8.461,30.164,8.458z"/>
	<path fill="#FFBFFF" d="M29.491,8.843c0.001,0.033,0.003,0.067,0.003,0.1c0,0.99,0,1.979,0,2.969c0,0.029,0,0.057,0,0.086
		c-0.196,0.006-0.392,0.006-0.587,0c-0.025-0.027-0.023-0.062-0.023-0.095c0-0.877,0-1.754,0-2.631c0-0.033-0.001-0.067,0.022-0.095
		c0.084-0.058,0.175-0.103,0.263-0.155c0.094-0.056,0.189-0.109,0.284-0.162C29.464,8.853,29.478,8.849,29.491,8.843z"/>
	<path fill="#FFACFF" d="M28.905,9.177c0,0.031,0.001,0.062,0.001,0.093c0,0.909,0,1.819,0,2.728c-0.191,0.006-0.382,0.006-0.573,0
		c-0.032-0.039-0.023-0.086-0.023-0.131c-0.001-0.747,0-1.493,0-2.24c0-0.041-0.017-0.087,0.021-0.122
		c0.061-0.045,0.13-0.078,0.195-0.116c0.117-0.068,0.235-0.135,0.352-0.202C28.887,9.183,28.896,9.181,28.905,9.177z"/>
	<path fill="#FF9AFF" d="M28.332,9.505c-0.002,0.007-0.006,0.014-0.005,0.021c0.01,0.047,0.006,0.095,0.006,0.142
		c0,0.777,0,1.553,0.001,2.33c-0.014,0.001-0.028,0.004-0.042,0.004c-0.144,0-0.288,0-0.432,0c-0.014,0-0.028-0.002-0.042-0.003
		c-0.031-0.037-0.023-0.081-0.023-0.123c-0.001-0.635-0.001-1.27,0.001-1.906c0-0.054-0.019-0.109,0.007-0.162
		c0.053-0.04,0.113-0.068,0.17-0.101c0.1-0.058,0.201-0.116,0.302-0.173C28.293,9.522,28.313,9.514,28.332,9.505z"/>
	<path fill="#FF7BFF" d="M27.331,11.998c-0.014,0.001-0.028,0.004-0.042,0.004c-0.201,0-0.402,0-0.603,0
		c-0.014,0-0.028-0.002-0.042-0.003c-0.025-0.027-0.023-0.061-0.023-0.095c0-0.443,0-0.886,0-1.329c0-0.041-0.001-0.082,0.036-0.111
		c0.009-0.007,0.018-0.016,0.028-0.021c0.208-0.12,0.417-0.239,0.626-0.358c0.006-0.003,0.013-0.004,0.02-0.006
		c0.028,0.026,0.024,0.061,0.024,0.094c0.001,0.577,0.001,1.154,0,1.731C27.353,11.936,27.355,11.97,27.331,11.998z"/>
	<path fill="#FF8BFF" d="M27.331,11.998c0-0.609,0-1.218,0-1.827c0-0.031-0.001-0.062-0.001-0.093c0,0,0.001,0,0.001,0
		c0.004-0.003,0.009-0.007,0.014-0.009c0.043-0.034,0.094-0.057,0.141-0.084c0.095-0.055,0.19-0.109,0.285-0.163
		c0.01-0.006,0.021-0.009,0.032-0.014c0.019,0.065,0.015,0.132,0.015,0.198c0,0.664,0,1.328,0,1.993
		c-0.019,0.001-0.037,0.004-0.056,0.004c-0.125,0-0.25,0-0.375,0C27.368,12.001,27.349,11.999,27.331,11.998z"/>
	<path fill="#FF5FFF" d="M26.655,10.464c-0.013,0.027-0.013,0.055-0.013,0.084c0,0.484,0,0.967,0.001,1.451
		c-0.014,0.001-0.028,0.004-0.042,0.004c-0.225,0-0.45,0-0.675,0c-0.014,0-0.028-0.002-0.042-0.004
		c-0.024-0.028-0.023-0.062-0.023-0.095c0-0.3,0-0.601,0-0.901c0-0.034,0.001-0.067,0.021-0.096c0.051-0.04,0.109-0.067,0.165-0.099
		c0.192-0.111,0.384-0.22,0.576-0.33C26.633,10.471,26.645,10.468,26.655,10.464z"/>
	<path fill="#FF4BFF" d="M25.881,10.906c0.001,0.031,0.002,0.062,0.002,0.093c0,0.333,0,0.666,0,1
		c-0.014,0.001-0.028,0.004-0.042,0.004c-0.187,0-0.374,0-0.56,0c-0.014,0-0.028-0.002-0.042-0.004
		c-0.019-0.021-0.022-0.047-0.022-0.073c-0.002-0.203,0-0.407-0.001-0.61c0-0.012,0.003-0.023,0.008-0.034
		c0.046-0.038,0.1-0.061,0.151-0.091c0.157-0.091,0.316-0.181,0.474-0.271C25.859,10.913,25.871,10.91,25.881,10.906z"/>
	<path fill="#FF36FF" d="M25.224,11.281c0.017,0.025,0.015,0.054,0.015,0.083c0,0.211,0,0.423,0,0.634
		c-0.017,0.001-0.033,0.004-0.05,0.004c-0.384,0-0.767,0-1.151,0c-0.018,0-0.037,0.004-0.053-0.004
		c-0.004-0.017,0.009-0.019,0.015-0.022c0.388-0.222,0.777-0.444,1.166-0.666C25.185,11.298,25.205,11.29,25.224,11.281z"/>
	<path fill="#FF7BFF" d="M27.344,10.069c-0.005,0.003-0.009,0.006-0.014,0.009C27.332,10.071,27.337,10.068,27.344,10.069z"/>
	<path fill="#FF21FF" d="M2.453,4.182C2.407,4.221,2.352,4.245,2.301,4.274C2.154,4.359,2.007,4.443,1.86,4.527
		C1.848,4.534,1.834,4.538,1.821,4.544C1.785,4.507,1.796,4.459,1.796,4.415C1.796,3.621,1.796,2.827,1.796,2.032
		c0-0.353,0-0.706,0-1.059c0-0.04-0.005-0.082,0.023-0.117C1.84,0.855,1.861,0.852,1.883,0.852c0.445,0,0.889-0.001,1.334-0.001
		c0.021,0,0.042,0.003,0.064,0.004C3.277,0.86,3.274,0.863,3.271,0.866c-0.07,0.026-0.142,0.01-0.213,0.013
		c-0.16,0.005-0.32,0.001-0.479,0.002c-0.119,0.001-0.12,0.001-0.12,0.119c0,1.03,0,2.059,0,3.089
		C2.458,4.121,2.458,4.152,2.453,4.182z"/>
	<path fill="#FF10FF" d="M1.819,0.857c0,1.193,0,2.387,0,3.58c0,0.036,0.001,0.071,0.002,0.107C1.776,4.58,1.724,4.604,1.675,4.632
		C1.555,4.702,1.435,4.77,1.315,4.838C1.305,4.844,1.296,4.853,1.282,4.85C1.268,4.843,1.274,4.83,1.273,4.819
		c-0.001-0.017,0-0.033,0-0.05c0-1.275,0-2.55,0-3.825c0-0.107-0.015-0.091,0.089-0.092c0.129-0.001,0.257,0,0.386,0
		C1.772,0.852,1.796,0.849,1.819,0.857z"/>
	<path fill="#FF38FF" d="M2.453,4.182c-0.01-0.007-0.017-0.017-0.017-0.03C2.435,4.134,2.435,4.115,2.435,4.096
		c0-1.048,0-2.097,0-3.145c0-0.017,0-0.033,0-0.05C2.437,0.866,2.443,0.86,2.479,0.86c0.191,0,0.381,0,0.572,0.001
		c0.005,0,0.009,0.001,0.014,0.002c0.034,0.039,0.023,0.086,0.023,0.13c0.001,0.894,0.001,1.788,0,2.683
		c0,0.05,0.011,0.1-0.007,0.149C3.033,3.863,2.976,3.888,2.923,3.919C2.799,3.991,2.675,4.061,2.551,4.132
		c-0.014,0.008-0.03,0.014-0.045,0.02C2.503,4.157,2.498,4.16,2.493,4.162C2.49,4.167,2.486,4.169,2.481,4.168
		C2.475,4.171,2.47,4.174,2.464,4.178C2.462,4.182,2.458,4.184,2.453,4.182z"/>
	<path fill="#FF4AFF" d="M3.081,3.824C3.072,3.807,3.064,3.79,3.065,3.77c0.001-0.014,0-0.029,0-0.043c0-0.955,0-1.91,0-2.865
		C3.137,0.861,3.209,0.859,3.28,0.857c0.149-0.008,0.298-0.009,0.447,0.001c0.029,0.038,0.02,0.082,0.02,0.124
		c0.001,0.743,0.001,1.485,0,2.228c0,0.076,0.007,0.152,0.009,0.228C3.714,3.473,3.664,3.495,3.618,3.522
		c-0.17,0.098-0.34,0.195-0.511,0.292C3.099,3.819,3.089,3.821,3.081,3.824z"/>
	<path fill="#FF62FF" d="M3.756,3.438C3.731,3.415,3.727,3.385,3.725,3.354c-0.001-0.017,0-0.033,0-0.05c0-0.814,0-1.627,0-2.441
		c0.02-0.02,0.045-0.01,0.068-0.01c0.167-0.001,0.334-0.001,0.501,0c0.055,0.004,0.111-0.009,0.165,0.007
		c0.027,0.038,0.018,0.083,0.018,0.125c0.001,0.607,0.001,1.214,0,1.821c0,0.07,0.003,0.138,0.034,0.202
		C4.504,3.013,4.497,3.02,4.489,3.024C4.258,3.157,4.027,3.289,3.795,3.421C3.783,3.428,3.769,3.432,3.756,3.438z"/>
	<path fill="#FF79FF" d="M4.511,3.007c-0.02-0.001-0.037-0.001-0.042-0.028C4.459,2.925,4.454,2.871,4.454,2.816
		c0.001-0.651,0.001-1.302,0.001-1.954c0.004-0.003,0.007-0.009,0.011-0.009c0.217,0,0.433-0.007,0.65,0.003
		c0.029,0.037,0.021,0.082,0.021,0.124c0.001,0.475,0,0.951,0,1.426c0,0.057-0.002,0.114,0.007,0.171
		c0.004,0.027,0,0.052-0.014,0.076c-0.017,0.02-0.043,0.028-0.065,0.041C4.918,2.779,4.771,2.864,4.623,2.948
		C4.611,2.955,4.598,2.959,4.585,2.964C4.58,2.968,4.575,2.972,4.57,2.975C4.568,2.979,4.564,2.981,4.56,2.98
		C4.552,2.981,4.546,2.986,4.541,2.991L4.537,2.995L4.532,2.994C4.524,2.995,4.518,3,4.512,3.006L4.511,3.007z"/>
	<path fill="#FF8CFF" d="M5.13,2.653C5.126,2.625,5.128,2.597,5.119,2.569C5.112,2.544,5.114,2.517,5.114,2.491
		c0-0.543,0-1.086,0-1.629c0.081-0.023,0.163-0.005,0.244-0.01c0.115,0.003,0.231-0.007,0.346,0.006
		c0.027,0.035,0.02,0.077,0.02,0.117c0.001,0.342,0,0.685,0,1.027c0,0.102-0.004,0.204,0.011,0.306
		C5.674,2.352,5.606,2.385,5.541,2.423C5.442,2.48,5.344,2.536,5.245,2.592c-0.01,0.006-0.022,0.009-0.032,0.013
		C5.206,2.615,5.192,2.611,5.186,2.621l0,0c-0.005,0.004-0.01,0.007-0.015,0.01L5.167,2.636l-0.006,0
		C5.153,2.638,5.148,2.642,5.142,2.646C5.138,2.649,5.134,2.651,5.13,2.653z"/>
	<path fill="#FF9FFF" d="M5.735,2.308C5.711,2.292,5.702,2.268,5.701,2.241c-0.001-0.017,0-0.033,0-0.05c0-0.443,0-0.886,0-1.328
		c0.006-0.004,0.009-0.01,0.018-0.01c0.185,0.001,0.37-0.005,0.555,0.003c0.03,0.031,0.023,0.071,0.023,0.109
		c0.001,0.29,0,0.581,0,0.871c0,0.048,0,0.095,0.019,0.141C6.27,2.014,6.215,2.037,6.164,2.067c-0.123,0.072-0.247,0.142-0.37,0.212
		c-0.01,0.006-0.022,0.009-0.032,0.013C5.755,2.294,5.75,2.299,5.744,2.303C5.743,2.308,5.74,2.309,5.735,2.308z"/>
	<path fill="#FFAFFF" d="M6.315,1.976C6.291,1.973,6.276,1.96,6.275,1.935C6.274,1.916,6.274,1.897,6.274,1.877
		c0-0.338,0-0.677,0-1.015c0.085-0.023,0.172-0.004,0.258-0.01c0.124,0.003,0.249-0.005,0.373,0.004
		c0.027,0.03,0.021,0.067,0.021,0.102c0.001,0.152,0.001,0.304,0,0.456C6.926,1.483,6.93,1.551,6.937,1.62
		c-0.05,0.04-0.109,0.067-0.164,0.099C6.657,1.787,6.539,1.853,6.421,1.92C6.411,1.926,6.4,1.929,6.389,1.933
		C6.385,1.937,6.38,1.941,6.375,1.943C6.372,1.948,6.369,1.95,6.363,1.949C6.356,1.95,6.351,1.955,6.346,1.96L6.343,1.964
		L6.338,1.963c-0.009,0-0.015,0.006-0.021,0.012L6.315,1.976z"/>
	<path fill="#FFC8FF" d="M6.937,1.62C6.913,1.604,6.905,1.58,6.904,1.553c0-0.017,0-0.033,0-0.05c0-0.213,0-0.427,0-0.64
		c0.02-0.02,0.045-0.01,0.067-0.01c0.206-0.001,0.412-0.001,0.617-0.001c0.216,0,0.433-0.001,0.649,0
		C8.249,0.854,8.254,0.86,8.251,0.871c-0.084,0.049-0.168,0.1-0.252,0.148C7.662,1.212,7.325,1.404,6.988,1.596
		C6.972,1.605,6.957,1.618,6.937,1.62z"/>
	<path fill="#FF62FF" d="M6.532,0.857C6.474,0.857,6.415,0.858,6.357,0.859C6.33,0.86,6.302,0.861,6.274,0.862
		C6.26,0.861,6.246,0.859,6.232,0.859c-0.163,0-0.326,0-0.488,0c-0.014,0-0.028,0.002-0.042,0.003
		C5.645,0.861,5.589,0.86,5.532,0.859C5.474,0.858,5.415,0.858,5.357,0.857c0,0,0-0.001,0-0.001
		c0.019-0.002,0.038-0.004,0.056-0.004c0.354,0,0.708,0,1.062,0c0.019,0,0.038,0.003,0.057,0.004L6.532,0.857z"/>
	<path fill="#FF79FF" d="M6.532,0.857c0,0,0-0.002,0-0.002c0.016-0.001,0.033-0.004,0.049-0.004c0.32,0,0.641,0,0.961,0
		c0.016,0,0.033,0.003,0.049,0.004l0,0.002C7.526,0.857,7.459,0.858,7.393,0.859c-0.137,0.001-0.274,0-0.411,0.001
		c-0.026,0-0.052,0.002-0.078,0.003C6.848,0.861,6.792,0.86,6.736,0.859C6.668,0.858,6.6,0.857,6.532,0.857z"/>
	<path fill="#FF4AFF" d="M5.356,0.856c0,0,0,0.001,0,0.001c-0.055,0.001-0.11,0.001-0.165,0.002C5.166,0.86,5.14,0.861,5.114,0.862
		C5.097,0.861,5.081,0.859,5.064,0.859c-0.187,0-0.373,0-0.56,0c-0.016,0-0.033,0.002-0.049,0.003
		C4.402,0.861,4.35,0.859,4.297,0.857l0-0.001c0.019-0.002,0.038-0.004,0.056-0.004c0.316,0,0.631,0,0.947,0
		C5.319,0.851,5.337,0.854,5.356,0.856z"/>
	<path fill="#FF38FF" d="M4.297,0.856c0,0,0,0.001,0,0.001C4.135,0.858,3.972,0.858,3.81,0.859c-0.029,0-0.057,0.002-0.086,0.003
		C3.682,0.861,3.64,0.86,3.598,0.859C3.492,0.858,3.386,0.858,3.28,0.857c0,0,0-0.001,0-0.001c0.019-0.002,0.038-0.004,0.056-0.004
		c0.301,0,0.603,0,0.904,0C4.259,0.852,4.278,0.854,4.297,0.856z"/>
	<path fill="#FF8CFF" d="M7.592,0.856c0,0,0-0.002,0-0.002c0.007-0.001,0.014-0.004,0.021-0.004c0.214,0,0.427,0,0.641-0.001
		c0.002,0,0.005,0,0.007,0.001c0.006,0.002,0.006,0.005-0.001,0.008C8.256,0.86,8.253,0.861,8.251,0.862
		C8.225,0.861,8.199,0.859,8.173,0.859c-0.168,0-0.336,0-0.504,0C7.644,0.859,7.618,0.857,7.592,0.856z"/>
	<path fill="#FF79FF" d="M5.186,2.621c0.005-0.012,0.015-0.015,0.027-0.016C5.207,2.616,5.198,2.621,5.186,2.621z"/>
	<path fill="#FF62FF" d="M4.512,3.006c0.004-0.008,0.011-0.012,0.02-0.012C4.528,3.003,4.522,3.006,4.512,3.006z"/>
	<path fill="#FF62FF" d="M4.541,2.991C4.545,2.984,4.551,2.98,4.56,2.98C4.556,2.988,4.55,2.992,4.541,2.991z"/>
	<path fill="#FF62FF" d="M4.57,2.975c0.005-0.003,0.01-0.007,0.015-0.01C4.582,2.972,4.578,2.976,4.57,2.975z"/>
	<path fill="#FF9FFF" d="M8.251,0.862C8.253,0.86,8.256,0.859,8.259,0.859c0.01,0.012-0.001,0.01-0.007,0.012
		C8.251,0.868,8.251,0.865,8.251,0.862z"/>
	<path fill="#FF79FF" d="M5.142,2.646C5.148,2.643,5.154,2.639,5.16,2.636C5.157,2.644,5.151,2.647,5.142,2.646z"/>
	<path fill="#FF79FF" d="M5.171,2.631c0.005-0.003,0.01-0.007,0.015-0.01C5.184,2.629,5.179,2.632,5.171,2.631z"/>
	<path fill="#FF8CFF" d="M5.744,2.303C5.75,2.299,5.756,2.296,5.761,2.292C5.758,2.3,5.753,2.304,5.744,2.303z"/>
	<path fill="#FF9FFF" d="M6.317,1.975c0.005-0.008,0.012-0.011,0.021-0.012C6.334,1.972,6.326,1.975,6.317,1.975z"/>
	<path fill="#FF9FFF" d="M6.346,1.96c0.006-0.004,0.012-0.007,0.018-0.011C6.36,1.957,6.354,1.96,6.346,1.96z"/>
	<path fill="#FF9FFF" d="M6.375,1.943c0.005-0.003,0.01-0.007,0.014-0.01C6.387,1.94,6.382,1.944,6.375,1.943z"/>
	<path fill="#FF21FF" d="M2.464,4.178c0.006-0.003,0.011-0.007,0.017-0.01C2.478,4.175,2.472,4.179,2.464,4.178z"/>
	<path fill="#FF21FF" d="M2.493,4.162c0.004-0.003,0.009-0.006,0.013-0.01C2.504,4.159,2.5,4.163,2.493,4.162z"/>
	<path fill="#FFEBFF" d="M30.438,0.789c0.017-0.001,0.033-0.003,0.05-0.003c0.198,0,0.396,0,0.594,0c0.014,0,0.029,0,0.043,0.001
		c0.011,0,0.017,0.007,0.017,0.018c0.001,0.017,0.001,0.033,0.001,0.05c0,1.288,0,2.576,0,3.864c0,0.069,0.008,0.083-0.07,0.037
		c-0.196-0.114-0.393-0.224-0.59-0.337c-0.016-0.009-0.031-0.021-0.047-0.032c-0.021-0.032-0.021-0.067-0.021-0.103
		c0-1.131,0-2.262,0-3.393C30.416,0.855,30.412,0.818,30.438,0.789z"/>
	<path fill="#FFD7FF" d="M30.438,0.789c0,0.386,0,0.773,0,1.159c0,0.78,0,1.559,0,2.339c0,0.033-0.001,0.067-0.002,0.1
		c-0.08-0.036-0.153-0.084-0.229-0.127c-0.136-0.076-0.271-0.155-0.407-0.233c-0.008-0.005-0.015-0.011-0.022-0.017
		c-0.039-0.028-0.036-0.07-0.036-0.11c-0.001-0.198,0-0.396,0-0.593c0-0.796,0-1.592,0-2.387c0-0.044-0.01-0.091,0.022-0.131
		C29.989,0.783,30.214,0.783,30.438,0.789z"/>
	<path fill="#FFC0FF" d="M29.765,0.789c0,0.508,0,1.015,0,1.523c0,0.534,0,1.067,0,1.601c0,0.033-0.004,0.067,0.013,0.098
		c-0.06-0.023-0.113-0.06-0.169-0.092c-0.168-0.094-0.335-0.19-0.502-0.286c-0.006-0.003-0.011-0.009-0.017-0.014
		c-0.005-0.003-0.01-0.007-0.015-0.01l0,0c-0.006-0.01-0.02-0.007-0.027-0.015l-0.001,0c-0.006-0.006-0.012-0.012-0.021-0.012
		l-0.005,0.001l-0.002-0.004c-0.023-0.031-0.024-0.066-0.024-0.102c0-0.862,0-1.723,0-2.585c0-0.035-0.004-0.072,0.023-0.102
		c0.014-0.001,0.028-0.003,0.042-0.003c0.22,0,0.44,0,0.66,0C29.737,0.785,29.751,0.787,29.765,0.789z"/>
	<path fill="#FFA7FF" d="M29.02,0.789c0,0.889,0,1.778,0,2.667c0,0.041,0,0.081,0,0.122c-0.068-0.028-0.129-0.07-0.193-0.106
		c-0.159-0.089-0.317-0.18-0.475-0.271c-0.008-0.005-0.015-0.012-0.022-0.018C28.31,3.152,28.31,3.116,28.31,3.08
		c0-0.73,0-1.46,0-2.19c0-0.035-0.004-0.072,0.023-0.102c0.014-0.001,0.028-0.003,0.042-0.003c0.201,0,0.402,0,0.603,0
		C28.992,0.785,29.006,0.788,29.02,0.789z"/>
	<path fill="#FF94FF" d="M28.333,0.789c0,0.779,0,1.559,0,2.338c0,0.019-0.001,0.038-0.002,0.057
		c-0.059-0.024-0.112-0.061-0.168-0.092c-0.116-0.065-0.23-0.132-0.345-0.198c-0.006-0.003-0.011-0.008-0.016-0.013
		C27.779,2.85,27.78,2.814,27.78,2.778c0-0.629,0-1.258,0-1.887c0-0.035-0.004-0.072,0.023-0.102
		c0.026-0.001,0.052-0.003,0.078-0.003c0.127,0,0.255,0,0.382,0C28.286,0.786,28.309,0.788,28.333,0.789z"/>
	<path fill="#FF85FF" d="M27.803,0.789c0,0.678,0,1.357,0,2.035c0,0.019-0.001,0.038-0.001,0.057
		c-0.068-0.029-0.129-0.07-0.193-0.106c-0.101-0.057-0.202-0.115-0.303-0.172c-0.012-0.007-0.023-0.017-0.034-0.025
		c-0.029-0.02-0.023-0.05-0.023-0.078c0.002-0.529,0-1.058,0.001-1.587c0-0.042-0.009-0.087,0.022-0.123
		c0.026-0.001,0.052-0.003,0.078-0.003c0.127,0,0.255,0,0.382,0C27.756,0.786,27.779,0.788,27.803,0.789z"/>
	<path fill="#FF72FF" d="M27.273,0.789c0,0.564,0,1.127,0.001,1.691c0,0.033-0.014,0.065-0.001,0.098
		c-0.053-0.017-0.097-0.05-0.144-0.077c-0.125-0.07-0.249-0.141-0.373-0.212C26.741,2.28,26.728,2.27,26.715,2.26
		c-0.024-0.039-0.022-0.082-0.022-0.125c-0.001-0.417-0.001-0.834,0-1.251c0-0.033-0.003-0.067,0.022-0.095
		c0.023-0.001,0.047-0.003,0.07-0.003c0.139,0,0.278,0,0.418,0C27.226,0.786,27.249,0.788,27.273,0.789z"/>
	<path fill="#FF62FF" d="M26.714,0.789c0,0.45,0.001,0.901,0,1.351c0,0.04,0.013,0.08,0.001,0.12
		c-0.051-0.02-0.095-0.051-0.142-0.077c-0.123-0.07-0.246-0.14-0.369-0.21c-0.012-0.007-0.022-0.017-0.034-0.025
		c-0.034-0.023-0.036-0.059-0.036-0.095c-0.001-0.328-0.001-0.655,0-0.983c0-0.028,0-0.057,0.022-0.08
		c0.021-0.001,0.042-0.003,0.063-0.003c0.144,0,0.288,0,0.432,0C26.672,0.786,26.693,0.788,26.714,0.789z"/>
	<path fill="#FF4EFF" d="M26.156,0.789c0,0.356,0,0.712,0,1.069c0,0.031-0.003,0.062,0.014,0.09
		c-0.056-0.02-0.105-0.055-0.156-0.084c-0.168-0.095-0.335-0.191-0.502-0.286c-0.01-0.006-0.019-0.014-0.029-0.021
		c-0.005-0.003-0.01-0.006-0.014-0.009l0,0c-0.021-0.026-0.022-0.057-0.022-0.088c-0.001-0.194-0.001-0.389,0-0.583
		c0-0.031-0.001-0.062,0.022-0.087c0.014-0.001,0.028-0.003,0.042-0.003c0.201,0,0.402,0,0.603,0
		C26.127,0.786,26.142,0.788,26.156,0.789z"/>
	<path fill="#FF36FF" d="M25.468,0.789c0,0.253,0,0.505-0.001,0.758c-0.056-0.02-0.105-0.055-0.156-0.085
		c-0.369-0.21-0.737-0.42-1.105-0.631c-0.018-0.011-0.036-0.022-0.054-0.033c0.001-0.016,0.013-0.012,0.021-0.013
		c0.009-0.001,0.019,0,0.029,0c0.291,0,0.582,0,0.873,0c0.107,0,0.215,0,0.322,0C25.421,0.786,25.444,0.788,25.468,0.789z"/>
	<path fill="#FFA7FF" d="M29.05,3.594c0.012,0,0.022,0.003,0.027,0.015C29.065,3.609,29.056,3.604,29.05,3.594z"/>
	<path fill="#FF36FF" d="M25.468,1.547c0.005,0.003,0.01,0.006,0.014,0.009C25.475,1.557,25.47,1.554,25.468,1.547z"/>
	<path fill="#FFA7FF" d="M29.077,3.609c0.005,0.003,0.01,0.007,0.015,0.01C29.084,3.62,29.079,3.617,29.077,3.609z"/>
	<path fill="#FFA7FF" d="M29.028,3.581c0.009,0,0.016,0.004,0.021,0.012C29.039,3.594,29.032,3.59,29.028,3.581z"/>
	<path fill="#FF15FF" d="M2.005,12.067c-0.017,0.001-0.033,0.003-0.05,0.003c-0.262,0-0.525,0-0.787,0c-0.014,0-0.029,0-0.043-0.001
		c-0.014,0-0.022-0.007-0.023-0.021c-0.001-0.019-0.001-0.038-0.001-0.057c0-1.283,0-2.565,0-3.848c0-0.023-0.004-0.047,0.004-0.07
		c0.022-0.005,0.037,0.011,0.052,0.02C1.331,8.191,1.502,8.29,1.674,8.388c0.072,0.041,0.145,0.083,0.217,0.124
		c0.01,0.006,0.019,0.014,0.029,0.02C1.914,8.597,1.914,8.661,1.914,8.726c0,1.052,0,2.104,0,3.156c0,0.026,0.001,0.052,0,0.079
		c-0.001,0.041,0.012,0.069,0.056,0.077C1.986,12.04,2.003,12.045,2.005,12.067z"/>
	<path fill="#FF2CFF" d="M2.005,12.067c-0.025-0.021-0.055-0.008-0.083-0.012c-0.021-0.003-0.029-0.01-0.031-0.032
		c-0.001-0.019-0.001-0.038-0.001-0.057c0-1.116,0-2.232,0-3.349c0-0.019,0-0.038,0.001-0.057c0.001-0.017,0.012-0.024,0.028-0.027
		C1.925,8.535,1.93,8.538,1.936,8.541C1.941,8.54,1.944,8.542,1.945,8.547l0.003,0.002c0.005,0.004,0.01,0.009,0.017,0.011
		c0.015,0.007,0.031,0.012,0.045,0.02c0.202,0.115,0.403,0.23,0.605,0.345C2.624,8.93,2.63,8.937,2.638,8.943
		C2.664,8.983,2.659,9.03,2.659,9.075c0,0.935,0,1.87,0,2.805c0,0.024,0.002,0.048,0,0.072c-0.004,0.057,0.019,0.084,0.078,0.083
		c0.026,0,0.06-0.004,0.07,0.033c-0.014,0.001-0.028,0.003-0.042,0.003c-0.239,0-0.478,0-0.717,0
		C2.033,12.07,2.019,12.068,2.005,12.067z"/>
	<path fill="#FF45FF" d="M2.807,12.067c-0.02-0.019-0.045-0.011-0.068-0.012c-0.115-0.001-0.103,0.011-0.103-0.104
		c0-0.972,0-1.944,0-2.916c0-0.031,0.001-0.062,0.002-0.093C2.72,8.981,2.796,9.03,2.874,9.074c0.149,0.085,0.298,0.169,0.447,0.254
		C3.337,9.338,3.352,9.349,3.368,9.36c0.027,0.041,0.021,0.087,0.021,0.132c0,0.789,0,1.578,0,2.366c0,0.014,0,0.029,0,0.043
		c0,0.13,0,0.128,0.128,0.132c0.042,0.001,0.092-0.019,0.12,0.034C3.624,12.068,3.61,12.07,3.595,12.07c-0.249,0-0.497,0-0.746,0
		C2.835,12.07,2.821,12.068,2.807,12.067z"/>
	<path fill="#FF5BFF" d="M3.638,12.067c-0.013-0.014-0.03-0.012-0.047-0.012c-0.053,0-0.105,0-0.158,0c-0.014,0-0.029,0-0.043-0.002
		c-0.013-0.001-0.021-0.01-0.023-0.023c-0.001-0.014-0.002-0.029-0.002-0.043c0-0.864,0-1.727,0-2.591
		c0-0.012,0.001-0.024,0.001-0.036c0.005,0.002,0.009,0.005,0.014,0.007c0.005,0.003,0.01,0.006,0.014,0.01l0,0
		c0.006,0.01,0.019,0.007,0.026,0.015l0.002,0.001C3.431,9.4,3.443,9.399,3.45,9.407l0.003,0.001
		c0.005,0.004,0.01,0.009,0.017,0.011c0.058,0.023,0.108,0.058,0.161,0.088c0.126,0.071,0.251,0.142,0.376,0.214
		C4.019,9.728,4.03,9.737,4.041,9.745c0.026,0.041,0.021,0.087,0.021,0.132c0,0.656,0,1.311,0,1.967c0,0.024,0,0.048,0,0.072
		c0,0.116,0,0.116,0.114,0.117c0.043,0,0.086-0.002,0.129,0.002c0.024,0.002,0.055-0.002,0.063,0.033
		C4.125,12.072,3.881,12.072,3.638,12.067z"/>
	<path fill="#FF70FF" d="M4.368,12.067c-0.015-0.016-0.035-0.012-0.054-0.012c-0.067,0-0.133,0-0.2,0c-0.017,0-0.033,0-0.05-0.002
		c-0.013-0.001-0.022-0.01-0.023-0.023c-0.002-0.017-0.002-0.033-0.002-0.05c0-0.728,0-1.457,0-2.185
		c0-0.017,0.001-0.033,0.002-0.05C4.046,9.748,4.05,9.75,4.054,9.752c0.005,0.005,0.01,0.009,0.018,0.01
		c0.005-0.001,0.009,0.001,0.011,0.006c0.005,0.003,0.009,0.006,0.014,0.01l0.001,0c0.006,0.01,0.02,0.006,0.026,0.014
		c0.048,0.017,0.088,0.046,0.131,0.071c0.141,0.08,0.281,0.161,0.422,0.241c0.008,0.005,0.015,0.011,0.022,0.017
		c-0.016,0.551-0.003,1.101-0.007,1.652c0,0.057-0.001,0.114,0,0.172c0.002,0.08,0.008,0.086,0.085,0.087
		c0.072,0.001,0.143-0.002,0.215,0.001c0.029,0.001,0.064-0.007,0.078,0.033c-0.009,0.001-0.019,0.003-0.028,0.003
		c-0.215,0-0.43,0-0.646,0C4.387,12.07,4.378,12.068,4.368,12.067z"/>
	<path fill="#FF83FF" d="M5.07,12.067c-0.015-0.016-0.035-0.012-0.054-0.012c-0.091,0-0.181,0-0.272,0c-0.017,0-0.033,0-0.05-0.002
		c-0.013-0.001-0.022-0.01-0.023-0.023c-0.002-0.017-0.002-0.033-0.002-0.05c0-0.593,0-1.186,0-1.779c0-0.012,0-0.024,0-0.036
		c0-0.021,0.011-0.036,0.03-0.045c0.066,0.027,0.125,0.068,0.187,0.102c0.145,0.081,0.289,0.164,0.433,0.247
		c0.01,0.006,0.018,0.014,0.028,0.021c-0.009,0.061-0.01,0.123-0.01,0.185c0,0.416,0,0.832,0,1.248c0,0.105,0.003,0.107,0.108,0.108
		c0.083,0,0.167-0.002,0.25,0.001c0.029,0.001,0.064-0.007,0.077,0.033c-0.009,0.001-0.019,0.003-0.028,0.003
		c-0.215,0-0.43,0-0.646,0C5.089,12.07,5.08,12.068,5.07,12.067z"/>
	<path fill="#FF99FF" d="M5.772,12.067c-0.018-0.017-0.04-0.011-0.061-0.012c-0.107-0.001-0.215,0-0.322,0
		c-0.074,0-0.075,0-0.075-0.075c0-0.467,0-0.935,0-1.402c0-0.012,0-0.024,0-0.036c-0.001-0.024,0.011-0.04,0.033-0.051
		c0.005-0.001,0.009,0.001,0.011,0.005c0.005,0.004,0.011,0.007,0.017,0.01c0.068,0.029,0.129,0.071,0.194,0.107
		c0.125,0.07,0.249,0.141,0.373,0.212c0.012,0.007,0.023,0.017,0.034,0.025c-0.016,0.133-0.007,0.267-0.008,0.4
		c-0.001,0.231-0.001,0.463,0,0.694c0,0.08,0.007,0.086,0.086,0.087c0.107,0.001,0.215-0.001,0.322,0.001
		c0.03,0.001,0.069-0.01,0.085,0.033c-0.012,0.001-0.023,0.003-0.035,0.003c-0.206,0-0.411,0-0.617,0
		C5.796,12.07,5.784,12.068,5.772,12.067z"/>
	<path fill="#FFABFF" d="M6.46,12.067c-0.018-0.017-0.04-0.012-0.061-0.012c-0.121-0.001-0.243,0-0.364,0
		c-0.019,0-0.038,0-0.057-0.001c-0.023-0.001-0.031-0.009-0.032-0.03c-0.001-0.017-0.001-0.033-0.001-0.05c0-0.349,0-0.699,0-1.048
		c0-0.017,0-0.033,0.001-0.05c0.001-0.018,0.015-0.022,0.029-0.026c0.004,0.002,0.009,0.004,0.013,0.005
		c0.005,0.003,0.01,0.006,0.014,0.009c0.066,0.028,0.124,0.068,0.186,0.103c0.104,0.058,0.206,0.117,0.309,0.176
		c0.018,0.01,0.035,0.023,0.053,0.035c-0.02,0.094-0.01,0.189-0.011,0.284c-0.001,0.157-0.001,0.314,0,0.471
		c0,0.095,0.004,0.099,0.102,0.099c0.126,0.001,0.252-0.001,0.378,0.001c0.03,0.001,0.069-0.01,0.084,0.033
		c-0.019,0.001-0.038,0.003-0.056,0.003c-0.177,0-0.354,0-0.532,0C6.497,12.07,6.479,12.068,6.46,12.067z"/>
	<path fill="#FFBEFF" d="M7.104,12.067c-0.018-0.017-0.04-0.012-0.061-0.012c-0.145,0-0.291,0-0.436,0
		c-0.095,0-0.09,0.006-0.09-0.088c0-0.233,0-0.467,0-0.7c0-0.019,0-0.038,0.001-0.057c0.001-0.021,0.016-0.027,0.033-0.031
		c0.005-0.001,0.008,0,0.01,0.005c0.005,0.004,0.01,0.008,0.016,0.01c0.06,0.023,0.112,0.06,0.168,0.091
		c0.147,0.082,0.292,0.166,0.438,0.25c0.008,0.005,0.014,0.012,0.021,0.017c-0.009,0.128-0.007,0.257-0.006,0.385
		c0.001,0.086,0.008,0.094,0.094,0.095c0.15,0.001,0.3-0.001,0.45,0.001c0.033,0,0.073-0.011,0.092,0.033
		C7.591,12.072,7.348,12.071,7.104,12.067z"/>
	<path fill="#FFD5FF" d="M7.835,12.067c-0.018-0.017-0.04-0.012-0.061-0.012c-0.165,0-0.329,0-0.494,0
		c-0.019,0-0.038,0.001-0.057-0.001c-0.031-0.002-0.043-0.014-0.046-0.043c-0.001-0.009-0.001-0.019-0.001-0.029
		c0-0.11,0-0.219,0-0.329c0-0.036,0.006-0.071,0.029-0.1c0,0,0.001,0.001,0.001,0.001c0.006,0.01,0.019,0.006,0.026,0.014
		l0.003,0.001c0.005,0.006,0.01,0.011,0.019,0.011c0.005-0.001,0.008,0.001,0.01,0.005c0.005,0.004,0.01,0.007,0.015,0.01
		c0.005,0.002,0.009,0.004,0.014,0.006c0.005,0.003,0.009,0.005,0.013,0.008l0.001,0.001c0.006,0.01,0.019,0.007,0.025,0.015
		l0.003,0.001c0.005,0.005,0.01,0.01,0.017,0.011c0.005-0.001,0.009,0.001,0.011,0.005c0.005,0.004,0.01,0.007,0.016,0.009
		c0.064,0.035,0.129,0.07,0.193,0.106c0.167,0.095,0.334,0.19,0.501,0.285c0.008,0.004,0.014,0.011,0.02,0.015
		c-0.001,0.005-0.001,0.008-0.003,0.009c-0.002,0.001-0.004,0.002-0.007,0.002C8.001,12.068,7.918,12.068,7.835,12.067z"/>
	<path fill="#FF45FF" d="M3.422,9.392c-0.012,0-0.021-0.003-0.026-0.015C3.407,9.377,3.416,9.381,3.422,9.392z"/>
	<path fill="#FF45FF" d="M3.45,9.407c-0.011,0-0.02-0.003-0.026-0.014C3.435,9.393,3.444,9.397,3.45,9.407z"/>
	<path fill="#FF5BFF" d="M4.124,9.793c-0.012,0-0.022-0.003-0.026-0.014C4.109,9.778,4.118,9.782,4.124,9.793z"/>
	<path fill="#FFBEFF" d="M7.232,11.568c-0.011,0-0.021-0.003-0.026-0.014C7.217,11.553,7.226,11.558,7.232,11.568z"/>
	<path fill="#FFBEFF" d="M7.332,11.625c-0.012,0-0.021-0.003-0.026-0.015C7.318,11.61,7.327,11.614,7.332,11.625z"/>
	<path fill="#FF15FF" d="M1.945,8.547C1.941,8.546,1.938,8.544,1.936,8.541C1.941,8.54,1.944,8.542,1.945,8.547z"/>
	<path fill="#FF15FF" d="M1.966,8.56C1.96,8.556,1.954,8.553,1.948,8.549C1.957,8.549,1.963,8.552,1.966,8.56z"/>
	<path fill="#FF45FF" d="M3.395,9.377C3.391,9.373,3.386,9.37,3.381,9.367C3.389,9.366,3.394,9.369,3.395,9.377z"/>
	<path fill="#FF45FF" d="M3.47,9.419C3.464,9.415,3.458,9.412,3.453,9.408C3.461,9.407,3.467,9.411,3.47,9.419z"/>
	<path fill="#FF5BFF" d="M4.072,9.762C4.066,9.759,4.06,9.755,4.054,9.752C4.063,9.751,4.069,9.754,4.072,9.762z"/>
	<path fill="#FF5BFF" d="M4.097,9.778c-0.005-0.003-0.009-0.006-0.014-0.01C4.091,9.767,4.095,9.77,4.097,9.778z"/>
	<path fill="#FF83FF" d="M5.375,10.507c-0.008,0-0.013-0.003-0.017-0.01C5.366,10.496,5.372,10.499,5.375,10.507z"/>
	<path fill="#FF99FF" d="M6.003,10.865c-0.005-0.003-0.009-0.006-0.014-0.009C5.996,10.855,6.001,10.858,6.003,10.865z"/>
	<path fill="#FFABFF" d="M6.577,11.194c-0.008,0-0.013-0.004-0.016-0.01C6.569,11.183,6.575,11.186,6.577,11.194z"/>
	<path fill="#FFBEFF" d="M7.253,11.58c-0.008,0-0.015-0.003-0.019-0.011C7.243,11.568,7.25,11.571,7.253,11.58z"/>
	<path fill="#FFBEFF" d="M7.278,11.595c-0.007,0-0.012-0.004-0.015-0.01C7.271,11.584,7.277,11.587,7.278,11.595z"/>
	<path fill="#FFBEFF" d="M7.306,11.61c-0.004-0.003-0.009-0.006-0.013-0.008C7.3,11.6,7.304,11.602,7.306,11.61z"/>
	<path fill="#FFBEFF" d="M7.352,11.637c-0.008,0-0.014-0.004-0.017-0.011C7.343,11.626,7.349,11.629,7.352,11.637z"/>
	<path fill="#FFBEFF" d="M7.38,11.652c-0.007,0-0.013-0.003-0.016-0.009C7.372,11.641,7.377,11.644,7.38,11.652z"/>
	<path d="M14.369,7.679c-0.009-0.003-0.018-0.006-0.026-0.009c-0.152-0.078-0.252-0.201-0.314-0.357
		c-0.002-0.004-0.005-0.008-0.007-0.012c-0.006-0.009-0.003-0.021-0.011-0.029c-0.001-0.005-0.002-0.009-0.003-0.014
		c-0.005-0.008-0.002-0.02-0.012-0.027c0,0,0-0.001,0-0.001c-0.018-0.088-0.039-0.176-0.049-0.266
		c-0.007-0.064-0.008-0.128-0.011-0.192c-0.001-0.03,0.012-0.043,0.04-0.047c0.004-0.001,0.008-0.005,0.012-0.008
		c0.034,0.002,0.066-0.012,0.098-0.019c0.131-0.029,0.262-0.052,0.396-0.059c0.016-0.001,0.033-0.005,0.049-0.008
		c0.041,0.003,0.081,0.004,0.122,0c0.019,0.01,0.04,0.002,0.059,0.008c0.038,0.007,0.076,0.014,0.114,0.021c0,0,0.001,0,0.001,0
		c0.009,0.006,0.021,0.004,0.03,0.011c0.013,0.006,0.025,0.013,0.038,0.019c0.136,0.064,0.216,0.172,0.248,0.318
		c0.004,0.018,0.001,0.038,0.014,0.054c0,0.033,0.001,0.067,0.001,0.1c0.001,0.114-0.018,0.223-0.078,0.322
		c-0.004,0.006-0.005,0.013-0.008,0.02c-0.033,0.033-0.061,0.071-0.099,0.099c-0.056,0.041-0.117,0.069-0.184,0.087
		c-0.02,0.005-0.041,0.011-0.061,0.016c-0.002,0-0.005-0.001-0.007-0.001c-0.113,0.017-0.224,0.01-0.335-0.018
		C14.379,7.684,14.374,7.681,14.369,7.679z"/>
	<path d="M17.263,6.702c0.053-0.002,0.103-0.02,0.154-0.028c0.092-0.015,0.184-0.03,0.277-0.034
		c0.019-0.001,0.038,0.001,0.056-0.008c0.036,0.005,0.073,0.004,0.109,0c0.023,0.012,0.05,0,0.074,0.009
		c0.014,0.005,0.028,0.007,0.043,0.005c0,0,0.001,0,0.001,0c0.013,0.011,0.031,0.002,0.044,0.012
		c0.017,0.007,0.035,0.013,0.052,0.02c0.127,0.051,0.218,0.136,0.261,0.268c0.004,0.011,0.005,0.023,0.014,0.031
		c0.016,0.066,0.021,0.134,0.02,0.202c-0.001,0.061-0.005,0.122-0.026,0.18c-0.005,0.013-0.006,0.027-0.008,0.041
		c-0.017,0.031-0.031,0.064-0.05,0.093c-0.054,0.082-0.128,0.14-0.219,0.175c-0.02,0.008-0.04,0.015-0.06,0.023
		c-0.009,0.006-0.02,0.005-0.029,0.008c0,0-0.002,0-0.002,0c-0.024,0.002-0.047,0.003-0.071,0.007
		c-0.071,0.011-0.142,0.011-0.213-0.001c-0.014-0.002-0.028-0.002-0.042-0.003c-0.011-0.005-0.021-0.01-0.032-0.014
		c-0.119-0.037-0.213-0.108-0.284-0.21c-0.015-0.021-0.03-0.042-0.045-0.063c-0.004-0.005-0.007-0.011-0.01-0.017
		c0.001-0.005,0-0.009-0.005-0.012c-0.003-0.006-0.008-0.011-0.01-0.017c0.002-0.005,0-0.008-0.004-0.011
		c-0.004-0.006-0.01-0.012-0.01-0.02l0.001-0.005c0,0-0.004-0.003-0.004-0.003c-0.061-0.17-0.098-0.345-0.099-0.527
		c0-0.014-0.001-0.028,0-0.043c0-0.016,0.007-0.026,0.023-0.031C17.2,6.721,17.233,6.719,17.263,6.702z"/>
	<path fill="#FF41FF" d="M17.249,7.338c0.008,0.004,0.011,0.011,0.01,0.02C17.251,7.354,17.248,7.347,17.249,7.338z"/>
	<path fill="#FF41FF" d="M17.262,7.37c0.007,0.003,0.01,0.009,0.01,0.017C17.265,7.383,17.262,7.377,17.262,7.37z"/>
	<path fill="#FF41FF" d="M17.276,7.399c0.007,0.003,0.011,0.009,0.01,0.017C17.283,7.41,17.28,7.404,17.276,7.399z"/>
	<path fill="#FF3BFF" d="M13.994,7.231c0.009,0.007,0.013,0.015,0.012,0.027C13.996,7.252,13.994,7.242,13.994,7.231z"/>
	<path fill="#FF3BFF" d="M14.009,7.272c0.009,0.008,0.013,0.017,0.011,0.029C14.01,7.294,14.009,7.284,14.009,7.272z"/>
	<path fill="#FF83FF" d="M18.02,6.656c-0.016,0.001-0.032,0.001-0.044-0.012C17.992,6.642,18.008,6.64,18.02,6.656z"/>
	<path fill="#FF83FF" d="M17.975,7.699c0.008-0.011,0.018-0.01,0.029-0.008C17.997,7.701,17.987,7.703,17.975,7.699z"/>
	<path fill="#FF5EFF" d="M14.709,6.639c-0.02,0.002-0.041,0.002-0.059-0.008C14.67,6.63,14.691,6.623,14.709,6.639z"/>
	<path fill="#FF85FF" d="M14.854,6.671c-0.012,0.001-0.023,0-0.03-0.011C14.836,6.657,14.847,6.659,14.854,6.671z"/>
	<path fill="#FF5DFF" d="M14.369,7.679c0.007-0.002,0.011,0.001,0.014,0.007C14.378,7.684,14.374,7.682,14.369,7.679z"/>
	<path fill="#FF61FF" d="M17.932,6.64c-0.025,0.002-0.05,0.001-0.074-0.009C17.884,6.63,17.91,6.621,17.932,6.64z"/>
</g>
</svg>
