<?xml version="1.0" encoding="utf-8"?>
<!-- Generator: Adobe Illustrator 24.3.0, SVG Export Plug-In . SVG Version: 6.00 Build 0)  -->
<svg version="1.1" id="Слой_1" xmlns="http://www.w3.org/2000/svg" xmlns:xlink="http://www.w3.org/1999/xlink" x="0px" y="0px"
	 width="32px" height="13px" viewBox="0 0 32 13" enable-background="new 0 0 32 13" xml:space="preserve">
<g>
	<path d="M19.747,13c-2.543,0-5.087,0-7.63,0c-0.079-0.067-0.115-0.164-0.165-0.25c-0.243-0.416-0.489-0.831-0.732-1.248
		c-0.275-0.471-0.551-0.941-0.826-1.411c-0.245-0.418-0.489-0.837-0.735-1.255C9.301,8.231,8.945,7.624,8.589,7.017
		C8.504,6.872,8.417,6.728,8.332,6.583C8.298,6.523,8.3,6.474,8.334,6.415c0.372-0.632,0.744-1.264,1.114-1.898
		c0.29-0.497,0.58-0.993,0.872-1.489c0.336-0.572,0.671-1.144,1.008-1.715c0.237-0.402,0.473-0.806,0.71-1.209
		c0.025-0.042,0.037-0.105,0.11-0.096c2.5,0,4.999,0,7.499,0c0.025,0,0.05-0.001,0.075,0.001c0.04,0.005,0.057,0.034,0.076,0.066
		c0.182,0.301,0.357,0.606,0.535,0.909c0.232,0.394,0.461,0.79,0.693,1.184C21.352,2.719,21.675,3.272,22,3.824
		c0.219,0.372,0.436,0.746,0.655,1.118c0.27,0.459,0.533,0.922,0.812,1.376c0.077,0.125,0.088,0.217,0.007,0.351
		C23.1,7.285,22.74,7.91,22.376,8.532c-0.27,0.462-0.542,0.923-0.811,1.385c-0.243,0.417-0.487,0.832-0.732,1.248
		c-0.308,0.524-0.614,1.049-0.924,1.572C19.856,12.826,19.808,12.917,19.747,13z"/>
	<path fill="#383838" d="M12.116,0.015C12.115,0.01,12.115,0.005,12.117,0c2.543,0,5.087,0,7.63,0c0,0.01,0.001,0.02,0.001,0.029
		c-0.018-0.009-0.037-0.015-0.058-0.014c-0.023,0.001-0.045,0-0.068,0c-2.48,0-4.959,0-7.439,0
		C12.161,0.015,12.138,0.015,12.116,0.015z"/>
	<path fill="#666666" d="M15.978,12.077c-1.035,0-2.071,0-3.106,0c-0.103,0-0.105,0.007-0.055-0.087
		c0.122-0.228,0.244-0.456,0.366-0.684c0.021-0.04,0.044-0.079,0.066-0.118c0.009-0.017,0.023-0.026,0.042-0.026
		c0.025,0,0.05,0,0.075,0c1.726,0,3.453,0,5.179,0c0.127,0,0.099,0.017,0.162-0.093c0.125-0.218,0.25-0.436,0.38-0.651
		c0.086-0.142,0.167-0.286,0.251-0.429c0.137-0.234,0.276-0.467,0.413-0.701c0.098-0.167,0.194-0.334,0.292-0.501
		c0.097-0.165,0.195-0.328,0.291-0.493c0.065-0.11,0.129-0.221,0.194-0.332c0.157-0.269,0.314-0.538,0.472-0.806
		c0.123-0.21,0.246-0.42,0.371-0.629c0.02-0.033,0.019-0.059,0-0.09c-0.088-0.149-0.176-0.299-0.263-0.448
		c-0.1-0.171-0.2-0.343-0.301-0.514c-0.102-0.173-0.205-0.345-0.307-0.518c-0.127-0.217-0.254-0.434-0.38-0.65
		c-0.006-0.011-0.012-0.022-0.018-0.033c-0.013-0.026-0.011-0.034,0.016-0.047c0.132-0.067,0.264-0.134,0.397-0.201
		c0.11-0.055,0.22-0.11,0.33-0.166c0.013-0.007,0.027-0.013,0.041-0.02c0.011-0.005,0.02-0.001,0.026,0.008
		c0.006,0.008,0.011,0.017,0.016,0.026c0.099,0.169,0.198,0.338,0.297,0.507c0.109,0.186,0.219,0.372,0.329,0.558
		c0.047,0.08,0.093,0.161,0.14,0.241c0.099,0.169,0.199,0.337,0.299,0.506c0.051,0.087,0.101,0.174,0.152,0.261
		c0.08,0.137,0.16,0.273,0.24,0.41c0.009,0.015,0.02,0.03,0.026,0.046c0.012,0.03,0.048,0.054,0.043,0.085
		c-0.005,0.03-0.03,0.057-0.046,0.085c-0.137,0.234-0.273,0.469-0.41,0.703c-0.1,0.171-0.203,0.341-0.303,0.512
		c-0.133,0.227-0.265,0.456-0.399,0.683c-0.093,0.158-0.187,0.315-0.281,0.473c-0.056,0.095-0.11,0.192-0.166,0.287
		c-0.111,0.188-0.222,0.376-0.332,0.565c-0.134,0.23-0.268,0.46-0.402,0.69c-0.096,0.165-0.195,0.328-0.291,0.493
		c-0.051,0.087-0.101,0.174-0.152,0.26c-0.078,0.134-0.157,0.269-0.236,0.403c-0.075,0.128-0.152,0.254-0.225,0.384
		c-0.023,0.041-0.051,0.058-0.096,0.053c-0.017-0.002-0.035,0-0.053,0C18.034,12.077,17.006,12.077,15.978,12.077z"/>
	<path fill="#C5362C" d="M18.901,2.446c-0.037-0.032-0.053-0.078-0.078-0.119c-0.069-0.114-0.136-0.229-0.202-0.344
		c-0.016-0.028-0.034-0.041-0.066-0.038c-0.017,0.002-0.035,0-0.053,0c-1.718,0-3.436,0-5.154,0c-0.005,0-0.01,0.001-0.015,0
		c-0.054-0.01-0.087,0.012-0.113,0.061c-0.055,0.102-0.116,0.2-0.175,0.299c-0.01,0.017-0.017,0.037-0.034,0.049
		c-0.097-0.005-0.194-0.003-0.291,0.003c-0.353,0.019-0.707,0.021-1.059,0.062c-0.01,0.001-0.02-0.002-0.029-0.007
		c0.033-0.079,0.082-0.15,0.124-0.224c0.073-0.129,0.15-0.255,0.225-0.383c0.145-0.247,0.29-0.494,0.435-0.741
		c0.045-0.076,0.091-0.15,0.134-0.227c0.018-0.033,0.042-0.047,0.079-0.043c0.015,0.001,0.03,0,0.045,0c2.166,0,4.333,0,6.499,0
		c0.123,0,0.091-0.018,0.156,0.09c0.104,0.175,0.208,0.35,0.311,0.525c0.038,0.065,0.075,0.131,0.113,0.196
		c0.099,0.169,0.198,0.338,0.297,0.507c0.034,0.058,0.07,0.116,0.104,0.175c0.006,0.011,0.01,0.023,0.014,0.034
		c-0.087,0.026-0.177,0.018-0.266,0.022c-0.293,0.014-0.586,0.024-0.878,0.043C18.974,2.391,18.934,2.409,18.901,2.446z"/>
	<path fill="#D87328" d="M11.605,4.753c0,0.005-0.002,0.01-0.006,0.013c-0.002,0.006-0.005,0.01-0.01,0.014l0,0
		c-0.006,0.006-0.012,0.012-0.013,0.021c0.001,0.004-0.001,0.007-0.004,0.01c-0.004,0.006-0.009,0.011-0.011,0.019
		c0,0.005-0.001,0.009-0.005,0.012c-0.003,0.006-0.007,0.011-0.011,0.016l0-0.001c-0.007,0.005-0.012,0.011-0.014,0.02
		c0,0.004-0.002,0.008-0.005,0.01c-0.003,0.006-0.007,0.011-0.011,0.017c-0.002,0.005-0.004,0.009-0.006,0.014
		c-0.002,0.006-0.005,0.01-0.01,0.014l0,0c-0.006,0.006-0.011,0.012-0.012,0.021c0,0.004-0.001,0.008-0.005,0.01
		c-0.004,0.006-0.009,0.011-0.011,0.018c-0.049,0.087-0.097,0.175-0.147,0.262c-0.073,0.126-0.146,0.251-0.22,0.376
		c-0.097,0.164-0.194,0.327-0.291,0.492c-0.071,0.121-0.14,0.243-0.211,0.364c-0.012,0.02-0.011,0.036,0.001,0.056
		c0.03,0.049,0.058,0.1,0.087,0.15c0.011,0.019,0.026,0.037,0.029,0.06c-0.086,0.028-0.177,0.02-0.265,0.024
		c-0.29,0.013-0.581,0.024-0.871,0.043c-0.053,0.003-0.097,0.02-0.134,0.057c-0.052-0.065-0.089-0.139-0.131-0.21
		c-0.022-0.037-0.041-0.075-0.065-0.11c-0.019-0.029-0.019-0.053,0-0.083c0.067-0.109,0.131-0.22,0.195-0.33
		c0.134-0.229,0.267-0.459,0.402-0.688c0.149-0.255,0.3-0.51,0.449-0.765c0.004-0.006,0.009-0.012,0.013-0.018
		c0.003-0.005,0.006-0.01,0.01-0.015l0,0c0.01-0.007,0.007-0.021,0.016-0.028l0.001-0.001c0.005-0.006,0.01-0.011,0.012-0.019
		c0-0.005,0.003-0.009,0.007-0.012c0.002-0.005,0.006-0.01,0.01-0.013l0.001-0.001c0.005-0.006,0.011-0.011,0.012-0.02
		c0-0.005,0.001-0.008,0.005-0.011c0.004-0.005,0.007-0.011,0.011-0.017c0-0.005,0.002-0.01,0.006-0.013
		c0.003-0.005,0.006-0.01,0.01-0.015l0,0c0.01-0.007,0.006-0.021,0.016-0.028l0.001-0.002c0.005-0.006,0.01-0.012,0.012-0.019
		c0-0.005,0.001-0.009,0.005-0.012c0.004-0.006,0.007-0.011,0.011-0.017c0.002-0.005,0.004-0.009,0.006-0.014
		c0.002-0.005,0.006-0.01,0.01-0.014l0-0.001c0.006-0.006,0.012-0.012,0.012-0.021c-0.001-0.004,0.001-0.007,0.005-0.009
		c0.053-0.035,0.113-0.037,0.173-0.038c0.09-0.002,0.18-0.008,0.269-0.011c0.255-0.009,0.509-0.027,0.764-0.034
		c0.027-0.001,0.055-0.001,0.082,0.004c0.046,0.01,0.073,0.033,0.053,0.085c0,0.004-0.001,0.008-0.005,0.01
		c-0.004,0.006-0.009,0.011-0.011,0.018c0,0.005-0.001,0.009-0.005,0.012C11.808,4.41,11.804,4.415,11.8,4.419l0-0.001
		c-0.01,0.007-0.007,0.022-0.016,0.029l0,0.001c-0.004,0.006-0.01,0.01-0.013,0.017l0.001-0.001
		c-0.012,0.006-0.008,0.021-0.018,0.028l0,0.001c-0.005,0.006-0.011,0.012-0.012,0.021c0.001,0.004-0.001,0.008-0.005,0.01
		c-0.004,0.006-0.009,0.011-0.011,0.018c0,0.005-0.001,0.009-0.005,0.012C11.718,4.56,11.714,4.566,11.71,4.57l0,0
		c-0.01,0.007-0.006,0.022-0.016,0.029l0,0.001c-0.005,0.006-0.01,0.012-0.012,0.02c0,0.004-0.001,0.008-0.005,0.011
		c-0.004,0.006-0.007,0.012-0.011,0.018c0,0.005-0.001,0.009-0.006,0.013c-0.002,0.006-0.006,0.011-0.011,0.015l0,0
		c-0.006,0.006-0.012,0.012-0.013,0.021c0.001,0.004-0.001,0.007-0.004,0.009c-0.004,0.006-0.01,0.011-0.011,0.019
		c0,0.005-0.001,0.008-0.005,0.011C11.612,4.742,11.608,4.747,11.605,4.753z"/>
	<path fill="#E5A026" d="M9.447,6.863c0-0.023,0.004-0.044,0.023-0.061c0.017-0.014,0.036-0.015,0.056-0.016
		c0.035,0,0.07,0.001,0.104-0.012c0.015-0.006,0.035-0.003,0.052-0.003c0.053,0,0.105,0,0.158,0c0.035,0,0.07,0.002,0.104-0.011
		c0.016-0.006,0.035-0.004,0.052-0.004c0.055,0,0.11,0,0.165,0c0.032,0,0.064,0.001,0.096-0.01c0.018-0.006,0.039-0.005,0.059-0.005
		c0.045-0.001,0.09,0,0.135,0c0.008,0,0.015-0.001,0.022,0c0.043,0.005,0.084-0.008,0.126-0.015c0.04-0.006,0.077,0.022,0.118,0.013
		C10.778,6.84,10.84,6.94,10.9,7.041c0.127,0.216,0.253,0.433,0.379,0.65c0.156,0.266,0.312,0.532,0.469,0.798
		c0.093,0.158,0.187,0.315,0.28,0.472c0.005,0.008,0.008,0.018,0.011,0.027c-0.106,0.015-0.213,0.018-0.32,0.023
		c-0.286,0.013-0.571,0.022-0.856,0.043c-0.041,0.003-0.078,0.018-0.118,0.024c-0.008-0.01-0.016-0.019-0.022-0.029
		c-0.104-0.177-0.208-0.355-0.311-0.533c-0.17-0.29-0.34-0.58-0.51-0.87C9.839,7.539,9.777,7.433,9.715,7.327
		C9.644,7.206,9.572,7.085,9.502,6.964C9.488,6.94,9.476,6.915,9.463,6.891C9.453,6.884,9.457,6.869,9.447,6.863L9.447,6.863z"/>
	<path fill="#CF552A" d="M11.832,4.364c-0.001-0.007-0.002-0.015-0.002-0.022c-0.003-0.026-0.018-0.043-0.044-0.042
		c-0.09,0.003-0.18-0.013-0.27,0.01c-0.017,0.004-0.035,0.003-0.052,0.004c-0.055,0-0.111,0-0.166,0
		c-0.032,0-0.065-0.001-0.097,0.01c-0.018,0.006-0.04,0.005-0.06,0.005c-0.055,0.001-0.11,0-0.166,0c-0.03,0-0.06-0.001-0.089,0.01
		c-0.016,0.006-0.035,0.005-0.052,0.005c-0.043,0.001-0.085,0-0.128,0c-0.05,0.001-0.1-0.004-0.149,0.012
		c-0.02,0.007-0.045,0.002-0.067,0.003c0.018-0.053,0.052-0.097,0.079-0.145c0.048-0.085,0.099-0.169,0.149-0.253
		c0.105-0.18,0.21-0.36,0.315-0.539c0.159-0.27,0.318-0.541,0.478-0.811c0.039-0.067,0.081-0.132,0.122-0.198
		c0.046-0.02,0.094-0.035,0.145-0.03c0.007,0.001,0.016,0.001,0.022-0.001c0.076-0.024,0.154-0.011,0.231-0.014
		c0.045-0.002,0.09,0.004,0.134-0.012c0.016-0.006,0.035-0.003,0.052-0.003c0.05,0,0.1,0,0.15,0c0.015,0,0.031,0.003,0.045-0.001
		c0.091-0.024,0.184-0.011,0.276-0.014c0.035-0.001,0.069-0.006,0.104-0.01c0.074-0.01,0.15-0.018,0.218,0.027
		c-0.035,0.081-0.088,0.152-0.131,0.228C12.763,2.79,12.642,2.995,12.521,3.2c-0.119,0.203-0.24,0.406-0.359,0.609
		c-0.1,0.171-0.2,0.342-0.3,0.513C11.854,4.336,11.842,4.35,11.832,4.364z"/>
	<path fill="#DF8E27" d="M19.144,6.288c0.032,0.016,0.056,0.042,0.081,0.066c0.145,0.141,0.248,0.308,0.309,0.501
		c0.029,0.091,0.056,0.182,0.062,0.278c-0.354-0.006-0.707,0.025-1.06,0.044c-0.028-0.004-0.044-0.023-0.057-0.045
		c-0.12-0.195-0.308-0.269-0.523-0.277c-0.263-0.011-0.52,0.041-0.774,0.105c-0.05,0.013-0.068,0.043-0.069,0.092
		c0,0.041,0.011,0.087-0.027,0.12c-0.085,0.026-0.174,0.023-0.261,0.025c-0.163,0.004-0.325,0.026-0.488,0.019
		c-0.05-0.002-0.1,0.011-0.15,0.013c-0.044,0.001-0.066,0.031-0.091,0.057c-0.002-0.004-0.006-0.008-0.007-0.013
		c-0.012-0.111-0.028-0.221-0.024-0.333c-0.012-0.155-0.002-0.311-0.006-0.466c-0.001-0.036,0.018-0.049,0.048-0.056
		c0.032-0.008,0.064-0.015,0.097-0.015c0.266-0.002,0.531-0.022,0.797-0.034c0.258-0.012,0.516-0.019,0.774-0.04
		C17.887,6.32,18,6.318,18.113,6.314c0.268-0.008,0.536-0.034,0.805-0.034c0.053,0,0.105-0.015,0.158-0.011
		C19.099,6.273,19.122,6.279,19.144,6.288z"/>
	<path fill="#EDBD24" d="M10.745,9.078c0.017-0.032,0.042-0.047,0.079-0.045c0.027,0.002,0.054,0,0.081-0.01
		c0.018-0.006,0.039-0.005,0.059-0.005c0.058-0.001,0.115,0,0.173,0c0.027,0,0.054,0,0.082-0.009
		c0.018-0.006,0.039-0.005,0.059-0.006c0.055-0.001,0.11,0,0.165,0c0.032,0,0.064,0.001,0.096-0.011
		c0.018-0.006,0.04-0.004,0.059-0.004c0.055,0,0.11,0,0.165,0c0.03,0,0.059-0.003,0.089-0.009c0.049-0.01,0.099-0.013,0.148,0.004
		c0.012,0.004,0.025,0.003,0.037,0.005c0.004,0.002,0.006,0.005,0.005,0.01c0,0.009,0.006,0.015,0.012,0.02l0.001,0.001
		c0.009,0.007,0.006,0.022,0.016,0.028l0,0c0.004,0.005,0.007,0.01,0.01,0.016c0.004,0.003,0.006,0.007,0.006,0.012
		c0.002,0.008,0.007,0.013,0.012,0.019l0.001,0.002c0.01,0.007,0.007,0.021,0.016,0.028l0,0.001c0.004,0.004,0.008,0.009,0.01,0.014
		c0.002,0.004,0.004,0.009,0.006,0.013c0.003,0.006,0.007,0.011,0.011,0.017c0.004,0.003,0.006,0.006,0.005,0.011
		c0.001,0.008,0.007,0.014,0.012,0.02l0.001,0.002c0.01,0.007,0.006,0.021,0.016,0.028l0,0c0.004,0.004,0.007,0.009,0.01,0.015
		c0.004,0.003,0.006,0.007,0.006,0.013c0.003,0.006,0.007,0.012,0.011,0.017c0.004,0.002,0.006,0.006,0.005,0.01
		c0.001,0.009,0.006,0.014,0.012,0.02l0.001,0.001c0.009,0.007,0.006,0.022,0.016,0.028c0.022,0.015,0.031,0.039,0.043,0.061
		c0.139,0.238,0.278,0.477,0.417,0.715c0.094,0.16,0.189,0.319,0.284,0.479c0.005,0.008,0.007,0.018,0.011,0.028
		c-0.01,0.005-0.02,0.006-0.029,0c-0.087-0.064-0.182-0.055-0.281-0.042c-0.114,0.014-0.23,0.01-0.345,0.015
		c-0.147,0.007-0.295,0.025-0.443,0.019c-0.091-0.004-0.169,0.002-0.186,0.114c-0.006-0.008-0.013-0.015-0.018-0.023
		c-0.106-0.181-0.212-0.362-0.318-0.543c-0.077-0.131-0.154-0.263-0.231-0.394c-0.009-0.015-0.015-0.031-0.023-0.047
		c-0.002-0.007-0.007-0.012-0.011-0.019c-0.004-0.002-0.005-0.005-0.005-0.009c-0.001-0.009-0.007-0.015-0.012-0.021l0,0
		c-0.009-0.007-0.006-0.022-0.017-0.029l0.001,0.001c-0.003-0.006-0.009-0.011-0.013-0.017L11.062,9.62
		c-0.01-0.007-0.007-0.021-0.017-0.028l0,0.001c-0.004-0.005-0.008-0.01-0.011-0.016c-0.004-0.003-0.006-0.006-0.005-0.011
		c-0.002-0.007-0.007-0.013-0.011-0.019c-0.004-0.002-0.005-0.005-0.004-0.009c-0.001-0.009-0.007-0.015-0.013-0.021l0,0
		c-0.009-0.008-0.006-0.022-0.017-0.029l0,0.001c-0.004-0.005-0.008-0.011-0.011-0.016c-0.004-0.003-0.006-0.006-0.005-0.011
		c-0.002-0.008-0.007-0.013-0.012-0.019c-0.004-0.002-0.005-0.004-0.004-0.009c-0.001-0.009-0.006-0.016-0.013-0.022l0,0
		c-0.009-0.008-0.006-0.023-0.017-0.029l0.001,0.001c-0.004-0.005-0.007-0.011-0.011-0.017c-0.004-0.002-0.006-0.006-0.005-0.01
		c-0.002-0.008-0.007-0.014-0.012-0.02l0-0.001c-0.01-0.007-0.007-0.021-0.016-0.029l0,0c-0.005-0.004-0.008-0.009-0.011-0.015
		c-0.004-0.003-0.006-0.007-0.005-0.012c-0.003-0.007-0.008-0.012-0.011-0.018c-0.004-0.002-0.006-0.005-0.005-0.01
		c-0.001-0.009-0.007-0.015-0.013-0.021l0,0c-0.005-0.004-0.009-0.009-0.011-0.014c-0.004-0.002-0.006-0.005-0.006-0.01
		c-0.002-0.008-0.007-0.014-0.012-0.02l0-0.001c-0.01-0.007-0.007-0.021-0.016-0.029l0,0c-0.005-0.004-0.008-0.01-0.011-0.015
		c-0.004-0.003-0.006-0.007-0.005-0.012c-0.003-0.007-0.008-0.012-0.011-0.018c-0.004-0.002-0.006-0.005-0.005-0.01
		C10.756,9.091,10.751,9.085,10.745,9.078L10.745,9.078z"/>
	<path fill="#D26129" d="M18.901,2.446c0-0.002,0-0.005,0.001-0.007c0.006-0.055,0.017-0.066,0.066-0.071
		c0.114-0.011,0.229-0.02,0.344-0.016c0.027,0.001,0.055,0,0.082-0.009c0.018-0.006,0.04-0.005,0.059-0.005
		c0.053-0.001,0.105,0,0.158,0c0.035,0,0.07,0.002,0.104-0.011c0.016-0.006,0.035-0.004,0.052-0.004c0.053,0,0.105,0,0.158,0
		c0.013,0,0.025-0.001,0.038,0c0.036,0.005,0.068-0.017,0.103-0.016c0.035,0.001,0.067,0.022,0.103,0.015
		c0.015,0.023,0.03,0.046,0.044,0.07c0.103,0.175,0.205,0.351,0.308,0.527c0.12,0.203,0.24,0.406,0.36,0.61
		c0.019,0.032,0.037,0.065,0.054,0.095c-0.009,0.023-0.027,0.027-0.042,0.035c-0.316,0.16-0.632,0.32-0.948,0.48
		c-0.007,0.003-0.014,0.006-0.02,0.01c-0.016,0.009-0.029,0.005-0.038-0.01c-0.032-0.054-0.065-0.107-0.097-0.162
		c-0.131-0.226-0.262-0.452-0.394-0.678c-0.083-0.143-0.168-0.286-0.252-0.429c-0.078-0.132-0.155-0.264-0.232-0.396
		C18.908,2.465,18.905,2.456,18.901,2.446z"/>
	<path fill="#F9E322" d="M19.478,8.27c-0.021,0.071-0.059,0.133-0.1,0.193c-0.175,0.26-0.418,0.428-0.712,0.526
		c-0.191,0.064-0.389,0.096-0.59,0.108c-0.133,0.008-0.266,0.009-0.398-0.002c-0.351-0.03-0.67-0.141-0.941-0.373
		c-0.067-0.057-0.126-0.122-0.181-0.191c-0.04-0.051-0.085-0.099-0.111-0.16c-0.024-0.069,0.024-0.079,0.071-0.082
		c0.078-0.004,0.155-0.013,0.233-0.014c0.269-0.005,0.537-0.023,0.805-0.036c0.256-0.013,0.512-0.018,0.767-0.04
		c0.1-0.008,0.201-0.006,0.301-0.011c0.256-0.013,0.511-0.027,0.767-0.035c0.044-0.001,0.099-0.012,0.117,0.052l0,0
		c-0.009,0.009-0.007,0.023-0.013,0.033c0.001,0.005,0,0.009-0.004,0.012C19.484,8.256,19.478,8.262,19.478,8.27z"/>
	<path fill="#EBB324" d="M19.505,8.204c-0.017-0.02-0.04-0.031-0.066-0.029c-0.075,0.004-0.15-0.01-0.225,0.012
		c-0.028,0.008-0.06,0.003-0.09,0.003c-0.045,0-0.09,0-0.136,0c-0.013,0-0.026-0.002-0.038,0.001
		c-0.081,0.023-0.165,0.011-0.247,0.014c-0.04,0.001-0.08-0.003-0.119,0.012c-0.018,0.007-0.04,0.003-0.06,0.003
		c-0.048,0-0.095,0-0.143,0c-0.037,0-0.075-0.003-0.112,0.011c-0.016,0.006-0.035,0.003-0.052,0.004c-0.058,0-0.116,0-0.173,0
		c-0.047,0.001-0.094,0.001-0.142,0.011c-0.046,0.01-0.095,0.003-0.143,0.004c-0.042,0.001-0.085-0.002-0.127,0.012
		c-0.02,0.007-0.045,0.003-0.067,0.003c-0.05,0-0.101,0-0.151,0c-0.015,0-0.031-0.003-0.045,0.001
		c-0.086,0.023-0.175,0.011-0.262,0.014c-0.035,0.001-0.07-0.002-0.104,0.011c-0.016,0.006-0.035,0.003-0.052,0.004
		c-0.055,0-0.111,0-0.166,0c-0.033,0-0.064,0.003-0.097,0.01c-0.036,0.008-0.075,0.004-0.112,0.005c-0.025,0.001-0.05-0.001-0.075,0
		c-0.044,0.002-0.048,0.007-0.057,0.061c-0.023-0.021-0.035-0.047-0.046-0.075c-0.009-0.008-0.005-0.023-0.016-0.03l0.001,0.001
		c-0.004-0.005-0.007-0.01-0.01-0.016c-0.005-0.003-0.006-0.007-0.005-0.013c-0.004-0.006-0.007-0.011-0.01-0.017
		c-0.004-0.003-0.006-0.007-0.005-0.013c-0.003-0.006-0.007-0.011-0.01-0.017c-0.002-0.005-0.003-0.009-0.005-0.014
		c-0.008-0.009-0.005-0.024-0.015-0.032l0,0c-0.008-0.008-0.005-0.022-0.014-0.03c-0.004-0.002-0.005-0.005-0.003-0.009
		c-0.001-0.008-0.006-0.014-0.01-0.021c-0.004-0.003-0.005-0.007-0.004-0.012c-0.003-0.006-0.007-0.012-0.01-0.018
		c-0.005-0.003-0.006-0.007-0.005-0.012c-0.006-0.01-0.004-0.024-0.013-0.034C16.26,8.006,16.259,8.003,16.261,8
		c0-0.009-0.006-0.014-0.01-0.021c-0.001-0.005-0.002-0.01-0.004-0.014c-0.008-0.009-0.005-0.021-0.012-0.031
		c-0.001-0.005-0.002-0.009-0.003-0.014c-0.008-0.009-0.005-0.022-0.011-0.031c-0.002-0.008-0.003-0.016-0.005-0.024
		c-0.004-0.012-0.004-0.026-0.012-0.037c-0.004-0.003-0.005-0.007-0.002-0.011c-0.006-0.011-0.004-0.024-0.011-0.034
		c-0.001-0.008-0.003-0.016-0.004-0.024c-0.004-0.012-0.004-0.025-0.011-0.037c-0.001-0.005-0.002-0.01-0.003-0.014
		c-0.003-0.033,0.02-0.042,0.045-0.051c0.021-0.007,0.044-0.014,0.066-0.014c0.284-0.004,0.568-0.037,0.853-0.033
		c0.008,0,0.015,0.002,0.022,0.003c0.008,0.002,0.016,0.005,0.023,0.009c0.009,0.007,0.015,0.017,0.019,0.027
		c0.003,0.006,0.005,0.012,0.007,0.018c0.004,0.011,0.008,0.022,0.013,0.032c0.002,0.005,0.005,0.01,0.007,0.015
		c0.003,0.007,0.007,0.014,0.011,0.021c0.003,0.005,0.005,0.009,0.007,0.014c0.003,0.005,0.005,0.009,0.007,0.014
		c0.003,0.005,0.005,0.01,0.007,0.014c0.003,0.005,0.005,0.009,0.007,0.014c0.002,0.005,0.004,0.009,0.006,0.014
		c0.003,0.007,0.007,0.013,0.01,0.02c0.003,0.004,0.005,0.009,0.007,0.013c0.003,0.004,0.005,0.008,0.008,0.012
		c0,0,0.005,0.006,0.005,0.006c0.003,0.004,0.006,0.008,0.009,0.012c0.003,0.004,0.005,0.009,0.007,0.013
		c0.003,0.004,0.005,0.008,0.008,0.013c0,0,0.004,0.006,0.005,0.006c0.003,0.004,0.006,0.008,0.009,0.012
		c0.003,0.004,0.005,0.009,0.007,0.013c0.003,0.004,0.005,0.009,0.008,0.013c0.002,0.002,0.003,0.004,0.005,0.006
		c0.004,0.004,0.007,0.008,0.011,0.011c0.002,0.002,0.004,0.004,0.006,0.006c0.004,0.004,0.008,0.007,0.012,0.011
		c0.002,0.002,0.004,0.004,0.006,0.006c0.005,0.004,0.009,0.008,0.013,0.013c0.012,0.012,0.023,0.023,0.035,0.035
		c0.004,0.004,0.009,0.008,0.013,0.012c0.002,0.002,0.004,0.004,0.007,0.006c0.005,0.003,0.009,0.007,0.014,0.01
		c0.009,0.006,0.019,0.013,0.028,0.02c0.007,0.005,0.014,0.009,0.021,0.014c0.007,0.004,0.014,0.009,0.02,0.014
		c0.006,0.005,0.013,0.009,0.019,0.013c0.005,0.002,0.009,0.005,0.014,0.007c0.007,0.004,0.013,0.007,0.02,0.01
		c0.005,0.002,0.01,0.004,0.015,0.006c0.01,0.004,0.021,0.006,0.032,0.009c0.006,0.001,0.012,0.003,0.018,0.004
		c0.01,0.002,0.02,0.003,0.031,0.003c0.145,0.018,0.289,0.027,0.432-0.011c0.24-0.065,0.399-0.259,0.425-0.506
		c0.011-0.103,0.004-0.204,0-0.306c0-0.017,0.001-0.034-0.003-0.051c-0.002-0.006-0.003-0.012-0.005-0.018
		c-0.003-0.011-0.006-0.023-0.01-0.034c-0.002-0.005-0.004-0.011-0.005-0.016c-0.003-0.011-0.006-0.021-0.009-0.032
		c-0.001-0.006,0-0.011,0.002-0.016c0.041-0.012,0.082-0.019,0.126-0.017c0.027,0.002,0.055,0,0.082-0.009
		c0.018-0.006,0.039-0.005,0.059-0.006c0.053-0.001,0.105,0,0.158,0c0.035,0,0.07,0.002,0.104-0.011
		c0.018-0.007,0.04-0.004,0.06-0.004c0.055,0,0.11,0,0.166,0c0.03,0,0.059-0.003,0.089-0.009c0.059-0.012,0.12-0.007,0.18-0.003
		c0.018,0.001,0.035,0.018,0.052,0.028C19.6,7.136,19.6,7.14,19.598,7.144c0.01,0.021-0.002,0.045,0.011,0.065
		c0.027,0.177,0.024,0.354,0.008,0.532c-0.012,0.132-0.042,0.262-0.081,0.388C19.528,8.154,19.524,8.182,19.505,8.204z"/>
	<path fill="#CB4A2B" d="M13.672,6.137c-0.001-0.027-0.003-0.055-0.003-0.082c0-0.192,0-0.385,0-0.577c0-0.025,0-0.05,0-0.073
		c-0.016-0.013-0.025-0.003-0.035,0.003C13.6,5.429,13.567,5.45,13.533,5.472c-0.127-0.018-0.255-0.011-0.382,0.001
		c-0.14,0.012-0.28,0.01-0.419,0.021c-0.129,0.01-0.259,0.013-0.389,0.027c-0.047-0.074-0.094-0.147-0.14-0.221
		c-0.013-0.02-0.01-0.029,0.011-0.043c0.06-0.041,0.121-0.081,0.181-0.121c0.179-0.12,0.357-0.24,0.536-0.359
		c0.014-0.01,0.031-0.016,0.046-0.024c0.08-0.037,0.168-0.032,0.252-0.035C13.49,4.709,13.75,4.691,14.01,4.68
		c0.16-0.007,0.321-0.007,0.481-0.024c0.012-0.001,0.025-0.002,0.038-0.003c0.157-0.008,0.159-0.006,0.158,0.15
		c-0.001,0.249,0.004,0.497-0.003,0.746c-0.065,0.042-0.139,0.038-0.21,0.039c-0.233,0.004-0.465,0.025-0.698,0.031
		c-0.054,0.001-0.068,0.028-0.068,0.076c0.001,0.118,0.002,0.236-0.001,0.354C13.706,6.08,13.719,6.121,13.672,6.137z"/>
	<path fill="#CB492B" d="M16.488,4.836c0-0.005,0.002-0.008,0.006-0.011c0.003-0.005,0.007-0.01,0.011-0.014l0-0.001
		c0.005-0.005,0.011-0.01,0.014-0.016l-0.001,0.001c0.007-0.004,0.012-0.009,0.015-0.016L16.533,4.78
		c0.007-0.004,0.013-0.008,0.015-0.017l-0.001,0c0.026-0.02,0.055-0.035,0.089-0.034c0.128,0.005,0.255-0.014,0.383-0.018
		c0.348-0.012,0.696-0.031,1.044-0.047c0.398-0.019,0.796-0.041,1.194-0.056c0.018-0.001,0.035,0,0.053,0
		c0.109,0.003,0.122,0.019,0.108,0.133c-0.001,0.024-0.003,0.048-0.004,0.072c-0.013,0.029,0.004,0.062-0.011,0.092
		c-0.001,0.02-0.002,0.04-0.004,0.059c-0.014,0.029,0.003,0.063-0.011,0.092c0.002,0.025,0.001,0.05-0.005,0.074
		c-0.009,0.013,0.001,0.031-0.012,0.042c-0.016,0.005-0.031,0.004-0.046-0.001c-0.02-0.011-0.043,0.001-0.063-0.011
		c-0.019-0.002-0.039-0.003-0.058-0.005c-0.02-0.01-0.043,0.001-0.062-0.01c-0.019-0.001-0.039-0.003-0.058-0.004
		c-0.024-0.012-0.053,0.003-0.077-0.011c-0.02-0.001-0.039-0.003-0.059-0.004c-0.025-0.011-0.054,0.002-0.079-0.01
		c-0.024-0.001-0.048-0.003-0.072-0.004c-0.03-0.013-0.063,0.003-0.093-0.011c-0.024-0.001-0.049-0.002-0.073-0.003
		c-0.035-0.014-0.074,0.003-0.109-0.011c-0.034-0.001-0.068-0.003-0.102-0.004c-0.066-0.016-0.133,0.005-0.199-0.012
		c-0.093,0-0.186,0-0.279,0c-0.025,0.013-0.054-0.001-0.079,0.011c-0.014,0.001-0.028,0.003-0.042,0.004
		c-0.015,0.01-0.034,0.001-0.048,0.012C17.748,5.103,17.724,5.11,17.7,5.117c-0.194,0.061-0.345,0.175-0.443,0.356
		c-0.018,0.033-0.038,0.064-0.056,0.096c-0.185-0.032-0.37,0.004-0.555,0.009c-0.162,0.005-0.325,0.003-0.486,0.031
		c0.013-0.097,0.044-0.189,0.076-0.28c0.051-0.144,0.115-0.281,0.194-0.412c0.004-0.006,0.01-0.011,0.015-0.016
		c0.006-0.005,0.012-0.011,0.013-0.02c0-0.005,0.002-0.008,0.006-0.011c0.003-0.005,0.007-0.01,0.011-0.015l0,0
		C16.481,4.851,16.486,4.845,16.488,4.836z"/>
	<path fill="#D77028" d="M16.16,5.61c0.017-0.02,0.036-0.033,0.064-0.03c0.027,0.002,0.054-0.001,0.081-0.01
		c0.018-0.006,0.039-0.004,0.059-0.005c0.055,0,0.11,0,0.165,0c0.03,0,0.059,0.001,0.089-0.009c0.018-0.006,0.039-0.005,0.059-0.005
		c0.053-0.001,0.105,0,0.158,0c0.035,0,0.07,0.003,0.104-0.011c0.011-0.005,0.025-0.004,0.037-0.004c0.055,0,0.11,0,0.165,0
		c0.028,0,0.049,0.009,0.061,0.035c0.001,0.004-0.001,0.008-0.004,0.011c-0.009,0.009-0.006,0.023-0.013,0.033
		c-0.018,0.075-0.039,0.15-0.054,0.225c-0.021,0.103-0.027,0.208-0.027,0.313c0,0.025,0.008,0.03,0.033,0.021
		c0.091-0.033,0.182-0.068,0.274-0.1c0.033-0.012,0.065-0.026,0.101-0.026c0.015-0.01,0.036,0.001,0.049-0.014l0,0
		c0.013-0.012,0.032-0.001,0.045-0.013c0.004-0.003,0.009-0.004,0.014-0.002c0.018-0.015,0.044,0.002,0.062-0.014
		c0.003-0.003,0.007-0.004,0.011-0.001c0.025-0.015,0.056,0.005,0.08-0.015c0.003-0.003,0.006-0.004,0.009-0.001
		c0.031-0.014,0.066,0.006,0.096-0.013c0.009,0,0.017-0.001,0.026-0.001c0.078-0.01,0.156-0.01,0.234,0c0.009,0,0.018,0,0.026,0.001
		c0.053,0.034,0.113-0.011,0.167,0.015l0,0c0.033,0.032,0.075-0.006,0.109,0.015c0.004-0.002,0.008-0.002,0.011,0.001
		c0.02,0.016,0.046,0.002,0.066,0.014c0.008,0.001,0.016,0.002,0.025,0.003c0.014,0.012,0.034,0.002,0.048,0.012
		c0.004-0.002,0.008-0.001,0.012,0.002c0.013,0.013,0.034,0.002,0.048,0.013c0.005-0.002,0.009-0.001,0.013,0.002
		c0.009,0.008,0.022,0.007,0.032,0.012L18.692,6.06c0.013,0.019,0.035,0.006,0.051,0.016c0.004-0.002,0.006-0.002,0.009,0.002
		c0.01,0.01,0.024,0.008,0.035,0.013c0.004-0.001,0.008,0,0.011,0.003c0.032,0.02,0.061,0.051,0.105,0.044l0.001,0
		c0.008,0.009,0.021,0.006,0.029,0.014l0.001,0c0.007,0.009,0.021,0.006,0.028,0.015l0.001,0.001
		c0.025,0.055,0.096,0.064,0.121,0.119c-0.027,0.001-0.055,0-0.082,0.009c-0.018,0.006-0.039,0.006-0.059,0.006
		c-0.055,0.001-0.11,0-0.166,0c-0.032,0-0.065-0.001-0.097,0.01c-0.018,0.006-0.04,0.004-0.06,0.005c-0.055,0.001-0.11,0-0.166,0
		c-0.03,0-0.06-0.001-0.089,0.01c-0.018,0.006-0.04,0.005-0.059,0.005c-0.053,0.001-0.105,0-0.158,0
		c-0.035,0-0.07-0.002-0.104,0.011c-0.016,0.006-0.035,0.004-0.052,0.004c-0.055,0-0.11,0-0.166,0c-0.032,0-0.065-0.001-0.097,0.01
		c-0.018,0.006-0.04,0.004-0.06,0.005c-0.055,0.001-0.11,0-0.166,0c-0.03,0-0.06-0.001-0.089,0.01
		c-0.018,0.006-0.04,0.005-0.059,0.005c-0.053,0.001-0.105,0-0.158,0c-0.035,0-0.07-0.002-0.104,0.011
		c-0.016,0.006-0.035,0.004-0.052,0.004c-0.055,0-0.11,0-0.166,0c-0.032,0-0.065-0.001-0.097,0.01
		c-0.018,0.006-0.04,0.004-0.06,0.005c-0.055,0.001-0.11,0-0.166,0c-0.03,0-0.06-0.001-0.089,0.009
		c-0.018,0.006-0.039,0.005-0.059,0.005c-0.048,0.001-0.096,0.003-0.143-0.001c-0.059-0.004-0.114,0.013-0.171,0.018
		c-0.014,0.001-0.022,0.011-0.023,0.025c-0.001,0.02-0.002,0.04-0.002,0.06c-0.001,0.138-0.002,0.276-0.002,0.414
		c-0.012-0.023-0.01-0.049-0.01-0.074c0-0.148-0.005-0.297,0.001-0.445c0.009-0.254,0.034-0.506,0.088-0.755
		C16.148,5.648,16.155,5.629,16.16,5.61z"/>
	<path fill="#F4D423" d="M11.71,10.723c-0.001-0.025,0.001-0.05-0.006-0.075c-0.007-0.026-0.001-0.036,0.025-0.045
		c0.028-0.01,0.057-0.018,0.088-0.017c0.053,0.002,0.105,0.001,0.158,0c0.037,0,0.075,0.003,0.112-0.011
		c0.016-0.006,0.035-0.003,0.052-0.003c0.058,0,0.116,0,0.173,0c0.028,0,0.055,0,0.082-0.009c0.019-0.006,0.039-0.006,0.059-0.006
		c0.048-0.001,0.095,0,0.143,0c0.042,0,0.084-0.002,0.127-0.011c0.046-0.009,0.095-0.007,0.142-0.001
		c0.034,0.004,0.069,0.015,0.092,0.046c0.009,0.012,0.021,0.022,0.036,0.026c0.042,0.056,0.072,0.12,0.108,0.18
		c0.036,0.06,0.072,0.121,0.108,0.181c0.011,0.019,0.008,0.029-0.012,0.03c-0.026,0.001-0.042,0.011-0.052,0.034
		c-0.003,0.007-0.007,0.013-0.01,0.02c-0.124,0.232-0.249,0.465-0.373,0.697c-0.064,0.119-0.129,0.238-0.193,0.358
		c-0.005,0.009-0.011,0.017-0.016,0.025c-0.021,0-0.024-0.016-0.031-0.027c-0.075-0.128-0.15-0.255-0.225-0.383
		c-0.166-0.284-0.332-0.567-0.498-0.851C11.768,10.827,11.731,10.779,11.71,10.723z"/>
	<path fill="#C4302C" d="M19.417,4.74c-0.001-0.02-0.001-0.04-0.002-0.06c-0.003-0.036-0.015-0.047-0.053-0.049
		c-0.015-0.001-0.03,0-0.045,0c-0.055,0-0.11,0-0.166,0c-0.037,0-0.075-0.003-0.112,0.011c-0.016,0.006-0.035,0.003-0.052,0.004
		c-0.053,0-0.105,0-0.158,0c-0.035,0-0.07-0.002-0.104,0.011C18.709,4.662,18.69,4.66,18.672,4.66c-0.048,0-0.095,0-0.143,0
		c-0.042,0-0.085-0.003-0.127,0.012c-0.02,0.007-0.045,0.003-0.067,0.003c-0.05,0-0.1,0-0.151,0c-0.015,0-0.031-0.003-0.045,0.001
		c-0.086,0.023-0.175,0.011-0.262,0.014c-0.035,0.001-0.07-0.002-0.104,0.011c-0.016,0.006-0.035,0.004-0.052,0.004
		c-0.055,0-0.11,0-0.166,0c-0.032,0-0.065-0.001-0.097,0.01c-0.018,0.006-0.04,0.004-0.06,0.005c-0.055,0.001-0.11,0-0.166,0
		c-0.03,0-0.06-0.001-0.089,0.01c-0.018,0.006-0.04,0.005-0.059,0.005c-0.05,0.001-0.1,0-0.151,0c-0.037,0-0.074,0-0.112,0.011
		c-0.028,0.008-0.06,0.004-0.09,0.004c-0.062,0.001-0.125-0.004-0.187,0.012c0.039-0.069,0.095-0.123,0.152-0.175
		c0.179-0.164,0.385-0.278,0.617-0.348c0.13-0.039,0.263-0.063,0.397-0.08c0.2-0.024,0.401-0.019,0.601-0.009
		c0.127,0.006,0.254,0.025,0.381,0.038c0.16,0.016,0.318,0.039,0.476,0.064c0.084,0.013,0.168,0.028,0.252,0.042
		c0.031,0.005,0.041,0.007,0.038,0.05c-0.006,0.075-0.013,0.15-0.02,0.225c-0.004,0.04-0.008,0.08-0.012,0.12
		C19.427,4.707,19.428,4.725,19.417,4.74z"/>
	<path fill="#F5D522" d="M13.673,9.003c-0.007-0.03-0.005-0.061-0.001-0.092c0.012-0.077,0.005-0.155,0.005-0.232
		c0.001-0.218,0.002-0.436-0.001-0.654c-0.001-0.057,0.016-0.082,0.074-0.086c0.205-0.014,0.41-0.024,0.615-0.03
		c0.053-0.002,0.105-0.006,0.157-0.011c0.054-0.005,0.11-0.017,0.16,0.018c0.011,0.115,0.004,0.23,0.005,0.344
		c0.001,0.242,0.001,0.485,0,0.727c-0.006,0.028-0.029,0.023-0.048,0.023c-0.315,0-0.63,0.001-0.944,0
		C13.686,9.01,13.68,9.006,13.673,9.003z"/>
	<path fill="#E8AC25" d="M14.678,7.918c-0.038,0-0.075-0.001-0.113-0.001c-0.01,0-0.021-0.002-0.03,0.001
		c-0.094,0.025-0.19,0.011-0.285,0.015c-0.02,0.001-0.041-0.001-0.06,0.005c-0.03,0.01-0.059,0.009-0.089,0.01
		c-0.05,0-0.1,0-0.151,0c-0.033,0-0.065,0-0.097,0.01c-0.021,0.007-0.045,0.004-0.067,0.005c-0.025,0.001-0.05,0-0.075,0.002
		c-0.014,0.001-0.024,0.01-0.025,0.024c-0.002,0.022-0.002,0.045-0.002,0.068c0,0.261-0.001,0.523-0.001,0.784
		c0,0.024,0.008,0.051-0.012,0.072c-0.001-0.015-0.003-0.03-0.003-0.045c0-0.292,0-0.584,0.001-0.876
		c0-0.015,0.002-0.03,0.003-0.045c0.013-0.122,0.004-0.245,0.005-0.368c0.002-0.14,0.003-0.281-0.001-0.421
		c-0.001-0.057,0.023-0.079,0.074-0.077c0.088,0.002,0.175-0.014,0.262-0.016c0.193-0.005,0.385-0.014,0.577-0.027
		c0.032-0.002,0.066-0.005,0.093,0.019c0.01,0.283,0.003,0.566,0.003,0.849C14.686,7.91,14.681,7.914,14.678,7.918z"/>
	<path fill="#D87428" d="M13.672,6.137c0.019-0.019,0.012-0.043,0.012-0.064c0.001-0.133,0-0.266,0.001-0.4
		c0-0.077,0.001-0.077,0.08-0.078c0.035,0,0.07,0,0.106,0c0.013,0,0.026,0.002,0.038-0.001c0.089-0.025,0.18-0.011,0.27-0.014
		c0.03-0.001,0.06,0,0.089-0.01c0.018-0.006,0.04-0.005,0.06-0.005c0.058-0.001,0.116,0,0.173,0c0.028,0,0.055,0,0.082-0.009
		c0.031-0.011,0.065-0.004,0.097-0.005c0.006,0.008,0.009,0.018,0.008,0.028c-0.001,0.266,0.003,0.532-0.003,0.799
		c-0.072,0.043-0.155,0.036-0.233,0.039c-0.223,0.008-0.446,0.021-0.668,0.032c-0.055,0.003-0.076,0.024-0.075,0.077
		c0.001,0.156,0.002,0.311-0.001,0.467c-0.001,0.034,0.012,0.077-0.035,0.096c-0.001-0.017-0.003-0.035-0.003-0.052
		c0-0.285,0-0.569,0.001-0.854C13.67,6.167,13.671,6.152,13.672,6.137z"/>
	<path fill="#DE8F27" d="M13.672,7.087c0.02-0.021,0.012-0.047,0.012-0.072c0.001-0.165,0.001-0.33,0.001-0.496
		c0-0.1-0.007-0.095,0.092-0.095c0.047,0,0.095,0.003,0.141-0.012c0.018-0.006,0.04-0.002,0.06-0.003
		c0.09-0.004,0.179,0.007,0.269-0.013c0.045-0.01,0.095-0.001,0.142-0.002c0.055-0.001,0.109,0.001,0.164-0.012
		c0.04-0.01,0.085-0.003,0.127-0.003c0.017,0.1,0.003,0.202,0.008,0.302c-0.006,0.126,0.012,0.252-0.009,0.377
		c-0.045,0-0.09-0.006-0.134,0.011c-0.016,0.006-0.035,0.003-0.052,0.003c-0.053,0-0.106,0-0.158,0c-0.035,0-0.07-0.002-0.104,0.011
		c-0.016,0.006-0.035,0.004-0.052,0.004c-0.055,0-0.111,0-0.166,0c-0.033,0-0.064,0.003-0.097,0.01
		c-0.039,0.008-0.08,0.005-0.12,0.005c-0.121,0.001-0.109-0.012-0.109,0.109c-0.001,0.221,0,0.442-0.001,0.663
		c0,0.024,0.008,0.051-0.012,0.072c-0.001-0.015-0.003-0.03-0.003-0.045c0-0.257,0-0.514,0.001-0.77
		C13.669,7.117,13.671,7.102,13.672,7.087z"/>
	<path fill="#C22C2D" d="M14.682,6.68c-0.001-0.1-0.002-0.201-0.002-0.301c0-0.151,0.001-0.301,0.001-0.452
		c0-0.126-0.001-0.251-0.001-0.377c0-0.273,0.001-0.547,0.001-0.82c0-0.01-0.001-0.02-0.002-0.03
		c-0.002-0.014-0.012-0.023-0.025-0.023c-0.062,0-0.125-0.009-0.187,0.007c-0.019,0.005-0.039,0.006-0.059,0.006
		c-0.055,0.001-0.11,0-0.166,0c-0.04,0-0.08-0.003-0.119,0.012c-0.016,0.006-0.035,0.003-0.052,0.003c-0.053,0-0.105,0-0.158,0
		c-0.035,0-0.07-0.002-0.104,0.011c-0.016,0.006-0.035,0.004-0.052,0.004c-0.05,0-0.1,0-0.15,0c-0.032,0-0.065-0.001-0.097,0.01
		c-0.018,0.006-0.04,0.005-0.059,0.005c-0.055,0.001-0.11,0-0.166,0c-0.037,0-0.075-0.002-0.111,0.012
		C13.156,4.753,13.137,4.75,13.12,4.75c-0.048,0-0.095,0-0.143,0c0.062-0.055,0.134-0.096,0.202-0.143
		c0.134-0.092,0.271-0.182,0.406-0.272c0.04-0.026,0.081-0.051,0.119-0.079c0.03-0.022,0.061-0.03,0.098-0.03
		c0.141,0.001,0.281,0.001,0.422,0.001c0.125,0,0.251,0,0.376,0c0.02,0,0.04,0,0.06,0.001c0.021,0.002,0.03,0.011,0.031,0.035
		c0.001,0.015,0.001,0.03,0.001,0.045c0.001,0.77,0.001,1.541,0.001,2.311c0,0.02-0.002,0.04-0.004,0.06
		C14.687,6.679,14.685,6.68,14.682,6.68z"/>
	<path fill="#E9AE25" d="M17.183,7.631c-0.07,0-0.14,0-0.21,0c-0.035,0-0.07-0.002-0.104,0.011
		c-0.016,0.006-0.035,0.004-0.052,0.004c-0.05,0-0.1,0-0.15,0c-0.032,0-0.064-0.001-0.096,0.01
		c-0.018,0.006-0.039,0.005-0.059,0.005c-0.053,0.001-0.105,0.003-0.158-0.001c-0.051-0.003-0.099,0.014-0.148,0.018
		c-0.016,0.001-0.025,0.015-0.032,0.029c-0.024-0.05-0.028-0.105-0.039-0.159c-0.01-0.051-0.025-0.102-0.022-0.155
		C16.1,7.374,16.112,7.35,16.1,7.33c-0.001-0.014-0.002-0.028-0.004-0.043c0.006-0.076,0.006-0.076,0.08-0.078
		c0.008,0,0.015,0.001,0.022-0.001c0.091-0.025,0.184-0.011,0.276-0.014c0.035-0.001,0.07,0.002,0.104-0.011
		c0.016-0.006,0.035-0.004,0.052-0.004c0.055,0,0.11,0,0.165,0c0.032,0,0.064,0.001,0.096-0.01c0.018-0.006,0.039-0.004,0.059-0.005
		c0.048-0.001,0.095-0.001,0.143-0.001c0.003,0.003,0.005,0.006,0.008,0.008c0.015,0.031,0.006,0.067,0.019,0.098
		c0.004,0.015,0.005,0.029,0.006,0.044c0,0.023,0.003,0.045,0.013,0.065C17.156,7.462,17.203,7.541,17.183,7.631z"/>
	<path fill="#D36629" d="M12.343,5.519c0.017-0.021,0.04-0.031,0.066-0.029c0.053,0.003,0.103-0.021,0.156-0.017
		c0.052,0.004,0.105,0.001,0.158,0.001c0.022,0,0.046,0.003,0.067-0.006c0.024-0.01,0.049-0.009,0.074-0.009
		c0.055,0,0.111,0,0.166,0c0.03,0,0.06,0.001,0.089-0.009c0.018-0.006,0.04-0.005,0.06-0.005c0.065-0.001,0.131,0,0.196,0
		c0.02,0,0.041,0.001,0.059-0.005c0.043-0.015,0.072,0,0.098,0.033c-0.002,0.004-0.005,0.005-0.008,0.005
		c-0.009,0.002-0.015,0.007-0.02,0.014l0,0c-0.005,0.004-0.01,0.008-0.016,0.012c-0.002,0.004-0.005,0.005-0.009,0.005
		c-0.009,0.001-0.016,0.007-0.021,0.014l0.001,0c-0.005,0.004-0.01,0.008-0.016,0.012c-0.002,0.004-0.006,0.005-0.01,0.005
		c-0.009,0.002-0.015,0.007-0.021,0.013l0,0c-0.004,0.005-0.009,0.009-0.014,0.011c-0.002,0.004-0.006,0.006-0.01,0.006
		c-0.008,0.002-0.014,0.007-0.02,0.014l0,0c-0.004,0.005-0.009,0.009-0.015,0.011c-0.002,0.004-0.006,0.006-0.01,0.005
		c-0.009,0.002-0.015,0.007-0.02,0.014l0,0c-0.005,0.004-0.01,0.008-0.015,0.012c-0.002,0.004-0.005,0.005-0.009,0.005
		c-0.009,0.001-0.015,0.007-0.021,0.014l0.001,0c-0.005,0.004-0.01,0.008-0.016,0.012c-0.002,0.004-0.005,0.005-0.009,0.005
		c-0.01,0.001-0.016,0.007-0.021,0.014l0.001-0.001c-0.005,0.004-0.011,0.008-0.016,0.012c-0.002,0.004-0.005,0.005-0.009,0.005
		c-0.009,0.001-0.016,0.007-0.022,0.013l0,0c-0.004,0.005-0.009,0.008-0.015,0.011c-0.002,0.004-0.006,0.006-0.01,0.005
		c-0.009,0.002-0.015,0.007-0.02,0.014l0,0c-0.005,0.004-0.01,0.008-0.015,0.012c-0.002,0.004-0.005,0.005-0.01,0.005
		c-0.009,0.001-0.015,0.007-0.02,0.014c-0.02,0.015-0.039,0.031-0.06,0.045c-0.11,0.074-0.22,0.146-0.33,0.22
		C12.665,6.055,12.66,6.06,12.63,6.006c-0.031-0.054-0.063-0.108-0.095-0.161c-0.019-0.032-0.038-0.064-0.057-0.096
		c-0.004-0.006-0.007-0.011-0.011-0.017c-0.004-0.003-0.005-0.006-0.005-0.011C12.46,5.712,12.454,5.706,12.45,5.7l-0.001-0.001
		c-0.01-0.007-0.007-0.022-0.017-0.028l0,0.001c-0.004-0.005-0.008-0.01-0.011-0.016c-0.004-0.003-0.006-0.007-0.005-0.012
		c-0.002-0.007-0.007-0.013-0.012-0.019c-0.003-0.002-0.005-0.005-0.004-0.009c-0.001-0.009-0.007-0.016-0.013-0.021l0,0
		c-0.005-0.004-0.008-0.009-0.011-0.015c-0.004-0.003-0.006-0.007-0.005-0.012c-0.002-0.007-0.008-0.012-0.011-0.018
		c-0.004-0.002-0.005-0.005-0.005-0.009C12.355,5.532,12.35,5.525,12.343,5.519L12.343,5.519z"/>
	<path fill="#D87428" d="M14.682,6.68c0.003,0,0.006,0,0.008-0.001c0.001,0.027,0.002,0.055,0.002,0.083
		c0.001,0.714,0.001,1.429,0.002,2.143c0,0.027-0.002,0.055-0.003,0.082c-0.003,0-0.005,0-0.008,0
		c-0.001-0.324-0.002-0.647-0.003-0.971c0-0.033-0.001-0.065-0.001-0.098c0.001-0.045,0.002-0.09,0.002-0.136
		c0-0.241-0.001-0.483-0.002-0.724c0.001-0.097,0.001-0.193,0.002-0.29C14.68,6.739,14.681,6.71,14.682,6.68z"/>
	<path fill="#E8AC25" d="M14.683,8.987c0.003,0.001,0.006,0.001,0.008,0c0.001,0.013,0.001,0.027-0.015,0.029
		c-0.017,0.003-0.035,0.002-0.052,0.002c-0.297,0-0.594,0-0.891-0.001c-0.02,0-0.045,0.012-0.06-0.014c0.311,0,0.621,0,0.932,0
		C14.632,9.003,14.661,9.013,14.683,8.987z"/>
	<path fill="#D47128" d="M19.083,6.289c-0.013-0.021-0.039-0.019-0.058-0.032c-0.033-0.023-0.059-0.046-0.063-0.087
		c0.068,0.028,0.127,0.07,0.182,0.119C19.124,6.288,19.103,6.288,19.083,6.289z"/>
	<path fill="#D47128" d="M18.137,5.971c-0.078,0-0.156,0-0.234,0c0.02-0.013,0.043-0.011,0.065-0.01
		C18.024,5.963,18.081,5.953,18.137,5.971z"/>
	<path fill="#D47128" d="M18.33,5.986c-0.041,0.003-0.082-0.003-0.122,0.013c-0.021,0.008-0.036-0.008-0.045-0.027
		C18.219,5.97,18.276,5.967,18.33,5.986z"/>
	<path fill="#D47128" d="M18.902,6.138c-0.029,0.02-0.055,0.018-0.077-0.01c-0.009-0.011-0.018-0.023-0.027-0.034
		C18.835,6.102,18.869,6.118,18.902,6.138z"/>
	<path fill="#C4302C" d="M18.22,5.069c0.053,0,0.105-0.001,0.158-0.001c0.015,0,0.03,0,0.041,0.013
		C18.353,5.08,18.286,5.087,18.22,5.069z"/>
	<path fill="#D47128" d="M18.439,6.001c-0.022,0.003-0.044,0-0.064,0.009c-0.024,0.01-0.036-0.004-0.044-0.024
		C18.367,5.985,18.404,5.984,18.439,6.001z"/>
	<path fill="#C4302C" d="M18.521,5.084c0.026-0.001,0.052-0.001,0.078-0.002c0.012,0,0.023,0.003,0.032,0.013
		C18.593,5.096,18.556,5.101,18.521,5.084z"/>
	<path fill="#D47128" d="M17.877,5.972c-0.001,0.01-0.004,0.021-0.016,0.021c-0.027-0.001-0.054-0.005-0.08-0.007
		C17.811,5.968,17.844,5.971,17.877,5.972z"/>
	<path fill="#C4302C" d="M19.401,4.903c0.001-0.031-0.011-0.063,0.011-0.092C19.413,4.843,19.418,4.875,19.401,4.903z"/>
	<path fill="#C4302C" d="M19.386,5.055c0.001-0.031-0.012-0.064,0.011-0.092C19.399,4.994,19.403,5.026,19.386,5.055z"/>
	<path fill="#C4302C" d="M18.703,5.099c0.031,0.001,0.064-0.011,0.093,0.011C18.764,5.111,18.733,5.116,18.703,5.099z"/>
	<path fill="#C4302C" d="M18.868,5.114c0.027,0,0.055-0.01,0.079,0.01C18.92,5.126,18.893,5.13,18.868,5.114z"/>
	<path fill="#C4302C" d="M19.005,5.129c0.026,0.001,0.054-0.01,0.077,0.011C19.056,5.142,19.029,5.144,19.005,5.129z"/>
	<path fill="#C4302C" d="M17.863,5.08c0.024-0.021,0.052-0.011,0.079-0.011C17.917,5.084,17.889,5.081,17.863,5.08z"/>
	<path fill="#D47128" d="M17.772,5.986c-0.023,0.027-0.053,0.013-0.08,0.015C17.716,5.985,17.744,5.986,17.772,5.986z"/>
	<path fill="#D47128" d="M18.516,6.016c-0.023,0-0.048,0.01-0.066-0.014C18.473,6.001,18.496,6,18.516,6.016z"/>
	<path fill="#C4302C" d="M19.141,5.144c0.021,0,0.044-0.008,0.062,0.01C19.181,5.157,19.16,5.158,19.141,5.144z"/>
	<path fill="#C4302C" d="M19.261,5.159c0.022,0,0.045-0.008,0.063,0.011C19.302,5.172,19.28,5.174,19.261,5.159z"/>
	<path fill="#D47128" d="M17.681,6.002c-0.017,0.022-0.041,0.013-0.062,0.014C17.637,6.002,17.659,6.001,17.681,6.002z"/>
	<path fill="#DF8E27" d="M19.609,7.208c-0.021-0.019-0.013-0.042-0.011-0.065C19.614,7.163,19.612,7.186,19.609,7.208z"/>
	<path fill="#DF8E27" d="M16.1,7.33c0.02,0.019,0.013,0.042,0.011,0.065C16.096,7.375,16.098,7.352,16.1,7.33z"/>
	<path fill="#C4302C" d="M17.772,5.096c0.013-0.017,0.031-0.013,0.048-0.012C17.806,5.096,17.789,5.097,17.772,5.096z"/>
	<path fill="#D47128" d="M17.605,6.019c-0.012,0.016-0.029,0.013-0.045,0.013C17.573,6.02,17.588,6.017,17.605,6.019z"/>
	<path fill="#D47128" d="M18.743,6.076c-0.019,0.001-0.039,0.007-0.051-0.016C18.711,6.059,18.729,6.062,18.743,6.076z"/>
	<path fill="#C4302C" d="M19.37,5.171c0-0.015-0.003-0.031,0.012-0.042C19.382,5.144,19.39,5.162,19.37,5.171z"/>
	<path fill="#D47128" d="M18.589,6.031c-0.017,0.001-0.035,0.005-0.048-0.012C18.558,6.017,18.575,6.019,18.589,6.031z"/>
	<path fill="#D47128" d="M17.56,6.032c-0.012,0.02-0.031,0.015-0.049,0.014C17.525,6.033,17.542,6.031,17.56,6.032z"/>
	<path fill="#D47128" d="M18.648,6.047c-0.017,0.001-0.035,0.004-0.048-0.013C18.618,6.032,18.635,6.034,18.648,6.047z"/>
	<path fill="#D87328" d="M9.447,6.862C9.46,6.868,9.464,6.878,9.463,6.891C9.452,6.885,9.447,6.875,9.447,6.862z"/>
	<path fill="#CF552A" d="M11.784,4.448c0-0.013,0.004-0.023,0.016-0.029C11.801,4.432,11.795,4.441,11.784,4.448z"/>
	<path fill="#CF552A" d="M10.428,4.466c0,0.012-0.004,0.023-0.016,0.028C10.412,4.481,10.417,4.472,10.428,4.466z"/>
	<path fill="#CF552A" d="M11.754,4.493c0-0.013,0.004-0.024,0.018-0.028C11.771,4.477,11.765,4.487,11.754,4.493z"/>
	<path fill="#CF552A" d="M11.693,4.598c0-0.012,0.004-0.023,0.016-0.029C11.71,4.582,11.704,4.592,11.693,4.598z"/>
	<path fill="#CF552A" d="M10.338,4.616c0,0.012-0.004,0.023-0.016,0.028C10.321,4.632,10.327,4.622,10.338,4.616z"/>
	<path fill="#D47128" d="M18.693,6.06c-0.013,0.002-0.024,0-0.032-0.012C18.674,6.047,18.686,6.048,18.693,6.06z"/>
	<path fill="#D47128" d="M18.786,6.091c-0.014,0.001-0.027,0.001-0.035-0.013C18.765,6.077,18.777,6.08,18.786,6.091z"/>
	<path fill="#CB492B" d="M17.184,5.613c-0.002-0.013,0-0.025,0.013-0.033C17.199,5.593,17.195,5.604,17.184,5.613z"/>
	<path fill="#D47128" d="M18.932,6.153c-0.012,0-0.023-0.003-0.029-0.014C18.915,6.138,18.925,6.143,18.932,6.153z"/>
	<path fill="#CB4A2B" d="M12.432,5.671c0.012,0.005,0.016,0.016,0.017,0.028C12.438,5.693,12.433,5.683,12.432,5.671z"/>
	<path fill="#E9AE25" d="M16.175,7.722c0.013,0.009,0.013,0.023,0.011,0.037C16.175,7.748,16.173,7.736,16.175,7.722z"/>
	<path fill="#E9AE25" d="M16.19,7.782c0.012,0.009,0.013,0.021,0.011,0.034C16.191,7.807,16.189,7.795,16.19,7.782z"/>
	<path fill="#E9AE25" d="M16.204,7.827c0.014,0.009,0.014,0.023,0.012,0.037C16.205,7.854,16.203,7.841,16.204,7.827z"/>
	<path fill="#E9AE25" d="M16.221,7.888c0.011,0.008,0.012,0.019,0.011,0.031C16.224,7.911,16.22,7.9,16.221,7.888z"/>
	<path fill="#E9AE25" d="M16.236,7.933c0.011,0.008,0.012,0.019,0.012,0.031C16.239,7.956,16.235,7.945,16.236,7.933z"/>
	<path fill="#E9AE25" d="M16.264,8.008c0.013,0.008,0.014,0.02,0.013,0.034C16.266,8.033,16.263,8.022,16.264,8.008z"/>
	<path fill="#E9AE25" d="M16.31,8.114c0.012,0.007,0.014,0.018,0.014,0.03C16.314,8.136,16.309,8.126,16.31,8.114z"/>
	<path fill="#E9AE25" d="M16.323,8.144c0.013,0.007,0.015,0.019,0.015,0.032C16.328,8.168,16.323,8.157,16.323,8.144z"/>
	<path fill="#EBB324" d="M19.492,8.237c-0.003-0.014,0-0.026,0.013-0.033C19.507,8.218,19.504,8.229,19.492,8.237z"/>
	<path fill="#E9AE25" d="M16.383,8.265c0.013,0.006,0.016,0.017,0.016,0.03C16.388,8.288,16.383,8.278,16.383,8.265z"/>
	<path fill="#E5A026" d="M12.073,9.048c-0.013-0.005-0.017-0.016-0.016-0.028C12.068,9.025,12.073,9.035,12.073,9.048z"/>
	<path fill="#E5A026" d="M12.117,9.124c-0.012-0.005-0.016-0.016-0.016-0.028C12.111,9.102,12.117,9.111,12.117,9.124z"/>
	<path fill="#E5A026" d="M10.789,9.154c0.012,0.006,0.016,0.016,0.016,0.029C10.795,9.177,10.789,9.167,10.789,9.154z"/>
	<path fill="#E5A026" d="M12.177,9.229c-0.012-0.005-0.016-0.016-0.016-0.028C12.172,9.207,12.177,9.217,12.177,9.229z"/>
	<path fill="#E5A026" d="M10.88,9.305c0.012,0.006,0.016,0.016,0.016,0.029C10.885,9.327,10.88,9.318,10.88,9.305z"/>
	<path fill="#E5A026" d="M12.239,9.334c-0.013-0.005-0.017-0.015-0.016-0.028C12.233,9.312,12.238,9.322,12.239,9.334z"/>
	<path fill="#D47128" d="M18.961,6.168c-0.012,0-0.023-0.003-0.028-0.015C18.945,6.153,18.954,6.158,18.961,6.168z"/>
	<path fill="#E5A026" d="M10.924,9.381c0.013,0.005,0.017,0.016,0.017,0.029C10.929,9.404,10.924,9.394,10.924,9.381z"/>
	<path fill="#E5A026" d="M10.984,9.486c0.013,0.006,0.017,0.016,0.017,0.029C10.99,9.509,10.984,9.499,10.984,9.486z"/>
	<path fill="#E5A026" d="M11.045,9.592c0.012,0.005,0.016,0.016,0.017,0.028C11.051,9.614,11.045,9.605,11.045,9.592z"/>
	<path fill="#E5A026" d="M11.075,9.637c0.013,0.005,0.017,0.016,0.017,0.029C11.081,9.66,11.075,9.65,11.075,9.637z"/>
	<path fill="#CB4A2B" d="M12.36,5.55c0.004,0.006,0.008,0.012,0.011,0.018C12.364,5.564,12.361,5.558,12.36,5.55z"/>
	<path fill="#CB4A2B" d="M13.398,5.561c0.005-0.004,0.01-0.008,0.014-0.011C13.411,5.557,13.406,5.561,13.398,5.561z"/>
	<path fill="#CB4A2B" d="M13.368,5.58c0.004-0.008,0.011-0.013,0.02-0.014C13.384,5.575,13.377,5.579,13.368,5.58z"/>
	<path fill="#CB4A2B" d="M12.377,5.58c0.004,0.005,0.007,0.01,0.011,0.015C12.381,5.593,12.377,5.588,12.377,5.58z"/>
	<path fill="#CB4A2B" d="M13.353,5.591c0.005-0.004,0.01-0.008,0.015-0.011C13.366,5.587,13.361,5.592,13.353,5.591z"/>
	<path fill="#CB4A2B" d="M12.388,5.595c0.009,0.004,0.013,0.012,0.013,0.021C12.393,5.612,12.388,5.605,12.388,5.595z"/>
	<path fill="#CB4A2B" d="M13.323,5.611c0.004-0.009,0.011-0.013,0.02-0.014C13.339,5.605,13.332,5.61,13.323,5.611z"/>
	<path fill="#CB4A2B" d="M13.308,5.622c0.005-0.004,0.01-0.008,0.015-0.012C13.321,5.618,13.316,5.622,13.308,5.622z"/>
	<path fill="#CB4A2B" d="M12.405,5.625c0.007,0.004,0.011,0.01,0.012,0.019C12.409,5.64,12.405,5.634,12.405,5.625z"/>
	<path fill="#CB4A2B" d="M13.278,5.641c0.004-0.009,0.011-0.013,0.021-0.014C13.294,5.636,13.287,5.64,13.278,5.641z"/>
	<path fill="#CB4A2B" d="M13.263,5.653c0.005-0.004,0.011-0.008,0.016-0.012C13.276,5.648,13.271,5.653,13.263,5.653z"/>
	<path fill="#CB4A2B" d="M12.422,5.656c0.004,0.005,0.007,0.01,0.011,0.016C12.426,5.669,12.422,5.664,12.422,5.656z"/>
	<path fill="#CB4A2B" d="M13.233,5.672c0.004-0.009,0.011-0.014,0.021-0.014C13.249,5.666,13.242,5.671,13.233,5.672z"/>
	<path fill="#CB4A2B" d="M13.217,5.683c0.005-0.004,0.011-0.008,0.016-0.012C13.231,5.679,13.226,5.683,13.217,5.683z"/>
	<path fill="#CB4A2B" d="M13.187,5.701c0.005-0.009,0.012-0.013,0.022-0.013C13.204,5.696,13.197,5.7,13.187,5.701z"/>
	<path fill="#CB4A2B" d="M12.45,5.7c0.008,0.004,0.012,0.011,0.012,0.02C12.454,5.716,12.45,5.709,12.45,5.7z"/>
	<path fill="#CB4A2B" d="M13.172,5.712c0.005-0.004,0.01-0.008,0.015-0.011C13.185,5.708,13.18,5.712,13.172,5.712z"/>
	<path fill="#CB4A2B" d="M13.142,5.731c0.004-0.008,0.011-0.013,0.02-0.014C13.158,5.726,13.151,5.73,13.142,5.731z"/>
	<path fill="#CB4A2B" d="M12.467,5.731c0.004,0.006,0.007,0.011,0.011,0.017C12.471,5.745,12.466,5.739,12.467,5.731z"/>
	<path fill="#CB4A2B" d="M13.127,5.743c0.005-0.004,0.01-0.008,0.015-0.012C13.14,5.738,13.135,5.743,13.127,5.743z"/>
	<path fill="#CB4A2B" d="M13.097,5.762c0.004-0.009,0.011-0.013,0.02-0.014C13.113,5.756,13.106,5.761,13.097,5.762z"/>
	<path fill="#CF552A" d="M11.605,4.753c0.004-0.006,0.007-0.011,0.011-0.017C11.616,4.744,11.612,4.749,11.605,4.753z"/>
	<path fill="#CF552A" d="M10.485,4.368c0,0.009-0.004,0.016-0.012,0.021C10.473,4.379,10.477,4.372,10.485,4.368z"/>
	<path fill="#CF552A" d="M11.816,4.392c0.004-0.006,0.007-0.012,0.011-0.018C11.827,4.382,11.824,4.388,11.816,4.392z"/>
	<path fill="#CF552A" d="M10.473,4.389c-0.003,0.005-0.007,0.009-0.01,0.014C10.462,4.396,10.466,4.391,10.473,4.389z"/>
	<path fill="#CF552A" d="M11.8,4.419c0.004-0.005,0.007-0.01,0.011-0.016C11.811,4.412,11.807,4.417,11.8,4.419z"/>
	<path fill="#CF552A" d="M10.457,4.417c-0.004,0.006-0.007,0.011-0.011,0.017C10.446,4.425,10.449,4.42,10.457,4.417z"/>
	<path fill="#CF552A" d="M10.441,4.445c0,0.009-0.004,0.015-0.012,0.019C10.429,4.455,10.433,4.449,10.441,4.445z"/>
	<path fill="#CF552A" d="M11.771,4.466c0.004-0.006,0.009-0.012,0.013-0.017C11.784,4.458,11.78,4.463,11.771,4.466z"/>
	<path fill="#CF552A" d="M10.412,4.494c-0.003,0.005-0.007,0.01-0.01,0.015C10.401,4.501,10.405,4.496,10.412,4.494z"/>
	<path fill="#CF552A" d="M11.741,4.514c0-0.009,0.004-0.016,0.012-0.021C11.754,4.503,11.749,4.51,11.741,4.514z"/>
	<path fill="#CF552A" d="M10.396,4.522c0,0.008-0.004,0.014-0.011,0.017C10.385,4.531,10.389,4.525,10.396,4.522z"/>
	<path fill="#CF552A" d="M11.726,4.543c0-0.008,0.004-0.014,0.011-0.018C11.737,4.533,11.733,4.539,11.726,4.543z"/>
	<path fill="#CF552A" d="M10.38,4.55c0,0.009-0.004,0.015-0.012,0.02C10.368,4.561,10.372,4.554,10.38,4.55z"/>
	<path fill="#CF552A" d="M11.71,4.57c0.004-0.005,0.007-0.01,0.011-0.015C11.721,4.563,11.717,4.567,11.71,4.57z"/>
	<path fill="#CF552A" d="M10.35,4.595c0,0.009-0.004,0.015-0.012,0.019C10.338,4.606,10.342,4.599,10.35,4.595z"/>
	<path fill="#CF552A" d="M11.681,4.62c0-0.009,0.004-0.016,0.012-0.02C11.693,4.608,11.689,4.615,11.681,4.62z"/>
	<path fill="#CF552A" d="M11.665,4.648c0-0.008,0.004-0.014,0.011-0.018C11.677,4.639,11.672,4.644,11.665,4.648z"/>
	<path fill="#CF552A" d="M10.321,4.644c-0.003,0.005-0.007,0.01-0.01,0.015C10.311,4.652,10.314,4.647,10.321,4.644z"/>
	<path fill="#CF552A" d="M11.649,4.675c0.004-0.005,0.007-0.01,0.011-0.015C11.66,4.668,11.656,4.673,11.649,4.675z"/>
	<path fill="#E9AE25" d="M16.252,7.978c0.003,0.007,0.007,0.014,0.01,0.021C16.254,7.995,16.251,7.987,16.252,7.978z"/>
	<path fill="#CF552A" d="M11.636,4.697c0-0.01,0.004-0.017,0.013-0.021C11.649,4.685,11.645,4.692,11.636,4.697z"/>
	<path fill="#E9AE25" d="M16.282,8.054c0.003,0.006,0.007,0.012,0.01,0.018C16.289,8.066,16.286,8.06,16.282,8.054z"/>
	<path fill="#E9AE25" d="M16.296,8.084c0.003,0.007,0.007,0.014,0.01,0.021C16.299,8.1,16.296,8.093,16.296,8.084z"/>
	<path fill="#CF552A" d="M11.62,4.725c0-0.009,0.004-0.015,0.011-0.019C11.632,4.714,11.628,4.721,11.62,4.725z"/>
	<path fill="#CF552A" d="M11.589,4.78c0.003-0.005,0.007-0.009,0.01-0.014C11.599,4.774,11.595,4.778,11.589,4.78z"/>
	<path fill="#C4302C" d="M16.547,4.762c-0.001,0.009-0.006,0.015-0.015,0.017C16.534,4.771,16.538,4.765,16.547,4.762z"/>
	<path fill="#CF552A" d="M11.576,4.802c0-0.009,0.004-0.016,0.013-0.021C11.588,4.79,11.584,4.797,11.576,4.802z"/>
	<path fill="#C4302C" d="M16.534,4.779c-0.002,0.008-0.007,0.014-0.015,0.016C16.52,4.787,16.526,4.781,16.534,4.779z"/>
	<path fill="#E9AE25" d="M16.343,8.19c0.003,0.006,0.006,0.012,0.01,0.017C16.346,8.203,16.342,8.198,16.343,8.19z"/>
	<path fill="#C4302C" d="M16.519,4.794C16.514,4.8,16.51,4.805,16.505,4.811C16.506,4.802,16.51,4.797,16.519,4.794z"/>
	<path fill="#E9AE25" d="M16.358,8.22c0.003,0.006,0.007,0.012,0.01,0.017C16.361,8.233,16.357,8.228,16.358,8.22z"/>
	<path fill="#E9AE25" d="M16.373,8.25c0.003,0.005,0.007,0.011,0.01,0.016C16.377,8.263,16.373,8.258,16.373,8.25z"/>
	<path fill="#EBB324" d="M19.478,8.27c-0.001-0.009,0.002-0.016,0.01-0.021C19.489,8.258,19.486,8.266,19.478,8.27z"/>
	<path fill="#CF552A" d="M11.56,4.83c0.004-0.006,0.008-0.012,0.011-0.019C11.571,4.82,11.567,4.826,11.56,4.83z"/>
	<path fill="#C4302C" d="M16.505,4.811c-0.004,0.005-0.007,0.009-0.011,0.014C16.493,4.818,16.498,4.813,16.505,4.811z"/>
	<path fill="#CF552A" d="M11.544,4.857c0.004-0.005,0.007-0.01,0.011-0.016C11.555,4.849,11.551,4.854,11.544,4.857z"/>
	<path fill="#C4302C" d="M16.488,4.836c-0.001,0.009-0.005,0.016-0.014,0.02C16.475,4.847,16.48,4.84,16.488,4.836z"/>
	<path fill="#E5A026" d="M12.056,9.018c-0.008-0.004-0.012-0.011-0.012-0.02C12.052,9.002,12.056,9.009,12.056,9.018z"/>
	<path fill="#CF552A" d="M11.53,4.876c0.001-0.009,0.006-0.016,0.014-0.02C11.544,4.866,11.539,4.872,11.53,4.876z"/>
	<path fill="#C4302C" d="M16.474,4.856c-0.004,0.005-0.007,0.01-0.011,0.015C16.463,4.863,16.467,4.858,16.474,4.856z"/>
	<path fill="#CF552A" d="M11.514,4.903c0.004-0.006,0.007-0.011,0.011-0.017C11.525,4.895,11.521,4.9,11.514,4.903z"/>
	<path fill="#E5A026" d="M12.083,9.063c-0.007-0.003-0.01-0.008-0.01-0.016C12.08,9.05,12.084,9.055,12.083,9.063z"/>
	<path fill="#C4302C" d="M16.457,4.881c0,0.009-0.005,0.016-0.013,0.02C16.445,4.892,16.45,4.886,16.457,4.881z"/>
	<path fill="#E5A026" d="M10.745,9.079c0.008,0.005,0.012,0.011,0.012,0.021C10.749,9.095,10.745,9.088,10.745,9.079z"/>
	<path fill="#E5A026" d="M12.1,9.094c-0.007-0.004-0.012-0.01-0.012-0.019C12.097,9.079,12.1,9.085,12.1,9.094z"/>
	<path fill="#CF552A" d="M11.498,4.931c0.003-0.005,0.007-0.009,0.01-0.014C11.508,4.924,11.504,4.929,11.498,4.931z"/>
	<path fill="#E5A026" d="M10.762,9.109c0.007,0.004,0.011,0.01,0.011,0.018C10.766,9.124,10.762,9.118,10.762,9.109z"/>
	<path fill="#E5A026" d="M12.127,9.139c-0.003-0.005-0.007-0.009-0.01-0.014C12.124,9.126,12.128,9.131,12.127,9.139z"/>
	<path fill="#E5A026" d="M10.779,9.139c0.004,0.005,0.007,0.01,0.011,0.015C10.782,9.152,10.778,9.147,10.779,9.139z"/>
	<path fill="#CF552A" d="M11.485,4.952c0-0.009,0.004-0.016,0.012-0.021C11.498,4.941,11.493,4.948,11.485,4.952z"/>
	<path fill="#E5A026" d="M10.806,9.184c0.008,0.005,0.012,0.011,0.012,0.02C10.81,9.2,10.805,9.193,10.806,9.184z"/>
	<path fill="#E5A026" d="M12.161,9.199c-0.008-0.004-0.012-0.011-0.012-0.02C12.157,9.184,12.161,9.19,12.161,9.199z"/>
	<path fill="#CF552A" d="M11.469,4.98c0.004-0.006,0.007-0.012,0.011-0.018C11.481,4.97,11.477,4.976,11.469,4.98z"/>
	<path fill="#E5A026" d="M10.824,9.215c0.004,0.005,0.008,0.01,0.011,0.014C10.828,9.227,10.823,9.223,10.824,9.215z"/>
	<path fill="#E5A026" d="M10.835,9.229c0.008,0.004,0.013,0.011,0.013,0.021C10.84,9.246,10.836,9.239,10.835,9.229z"/>
	<path fill="#E5A026" d="M12.188,9.244c-0.003-0.005-0.007-0.01-0.01-0.015C12.185,9.232,12.189,9.236,12.188,9.244z"/>
	<path fill="#E5A026" d="M10.853,9.26c0.007,0.004,0.011,0.01,0.011,0.018C10.856,9.274,10.852,9.268,10.853,9.26z"/>
	<path fill="#E5A026" d="M12.204,9.274c-0.007-0.004-0.011-0.009-0.011-0.017C12.202,9.26,12.205,9.266,12.204,9.274z"/>
	<path fill="#E5A026" d="M10.869,9.29c0.004,0.005,0.007,0.01,0.011,0.015C10.873,9.303,10.869,9.298,10.869,9.29z"/>
	<path fill="#E5A026" d="M12.221,9.305c-0.008-0.004-0.012-0.011-0.012-0.02C12.218,9.289,12.222,9.296,12.221,9.305z"/>
	<path fill="#CF552A" d="M10.367,4.571c-0.003,0.004-0.007,0.009-0.01,0.013C10.357,4.577,10.361,4.573,10.367,4.571z"/>
	<path fill="#CB4A2B" d="M13.504,5.49c0.004-0.009,0.011-0.013,0.02-0.014C13.52,5.484,13.513,5.489,13.504,5.49z"/>
	<path fill="#E5A026" d="M10.896,9.335c0.008,0.004,0.012,0.011,0.012,0.02C10.9,9.351,10.896,9.344,10.896,9.335z"/>
	<path fill="#CB4A2B" d="M13.489,5.501c0.005-0.004,0.01-0.008,0.016-0.012C13.502,5.497,13.497,5.502,13.489,5.501z"/>
	<path fill="#E5A026" d="M10.913,9.365c0.007,0.003,0.011,0.009,0.011,0.017C10.916,9.379,10.913,9.374,10.913,9.365z"/>
	<path fill="#CB4A2B" d="M13.459,5.521c0.004-0.009,0.011-0.014,0.021-0.014C13.475,5.515,13.468,5.52,13.459,5.521z"/>
	<path fill="#E5A026" d="M10.94,9.411c0.009,0.005,0.013,0.012,0.013,0.022C10.944,9.428,10.94,9.42,10.94,9.411z"/>
	<path fill="#E5A026" d="M10.957,9.441c0.008,0.004,0.012,0.011,0.012,0.019C10.961,9.456,10.957,9.45,10.957,9.441z"/>
	<path fill="#E5A026" d="M10.974,9.471c0.004,0.005,0.007,0.011,0.011,0.016C10.977,9.485,10.973,9.479,10.974,9.471z"/>
	<path fill="#CB4A2B" d="M12.343,5.52c0.008,0.005,0.013,0.012,0.013,0.021C12.348,5.536,12.343,5.529,12.343,5.52z"/>
	<path fill="#E5A026" d="M11.001,9.516c0.008,0.005,0.013,0.012,0.013,0.021C11.005,9.533,11.001,9.526,11.001,9.516z"/>
	<path fill="#E5A026" d="M11.018,9.546c0.007,0.004,0.011,0.01,0.011,0.019C11.022,9.561,11.018,9.555,11.018,9.546z"/>
	<path fill="#E5A026" d="M11.035,9.577c0.004,0.005,0.007,0.011,0.011,0.016C11.038,9.59,11.034,9.585,11.035,9.577z"/>
	<path fill="#CB4A2B" d="M13.444,5.532c0.005-0.004,0.011-0.008,0.016-0.012C13.457,5.528,13.452,5.532,13.444,5.532z"/>
	<path fill="#E5A026" d="M11.063,9.621c0.007,0.003,0.012,0.009,0.013,0.017C11.067,9.635,11.063,9.63,11.063,9.621z"/>
	<path fill="#CB4A2B" d="M13.413,5.549c0.004-0.008,0.011-0.013,0.021-0.013C13.429,5.544,13.422,5.549,13.413,5.549z"/>
	<path fill="#E5A026" d="M11.092,9.667c0.008,0.005,0.012,0.012,0.012,0.021C11.096,9.683,11.092,9.676,11.092,9.667z"/>
	<path fill="#E5A026" d="M11.109,9.697c0.007,0.004,0.011,0.01,0.011,0.018C11.112,9.712,11.109,9.706,11.109,9.697z"/>
	<path fill="#E5A026" d="M12.144,9.169c-0.007-0.003-0.011-0.009-0.011-0.017C12.141,9.155,12.144,9.16,12.144,9.169z"/>
	<path d="M22.415,2.07c0.056,0.003,0.104,0.006,0.151,0.007c0.211,0.007,0.422,0.013,0.633,0.021
		c0.331,0.012,0.663,0.025,0.994,0.038c0.156,0.006,0.311,0.013,0.467,0.016c0.037,0.001,0.058,0.011,0.075,0.046
		c0.09,0.185,0.183,0.369,0.275,0.553c0.088,0.175,0.176,0.35,0.264,0.525c0.071,0.141,0.142,0.282,0.213,0.424
		c0.167,0.332,0.333,0.664,0.5,0.996c0.072,0.144,0.144,0.287,0.216,0.431c0.086,0.17,0.171,0.341,0.257,0.511
		c0.075,0.15,0.151,0.301,0.227,0.451c0.093,0.184,0.186,0.367,0.28,0.55c0.023,0.044,0.022,0.084-0.001,0.128
		c-0.066,0.127-0.129,0.255-0.194,0.383c-0.091,0.182-0.182,0.364-0.273,0.545c-0.069,0.137-0.138,0.273-0.207,0.41
		c-0.089,0.177-0.177,0.355-0.266,0.532c-0.073,0.146-0.146,0.292-0.22,0.437c-0.164,0.327-0.329,0.655-0.493,0.982
		c-0.077,0.153-0.153,0.305-0.229,0.458c-0.117,0.233-0.235,0.466-0.352,0.7c-0.012,0.024-0.027,0.036-0.057,0.039
		c-0.263,0.019-0.526,0.041-0.789,0.062c-0.253,0.02-0.506,0.04-0.759,0.06c-0.215,0.017-0.431,0.036-0.646,0.054
		c-0.02,0.002-0.04,0-0.061,0c-0.013-0.015,0.001-0.027,0.007-0.039c0.075-0.159,0.151-0.317,0.227-0.476
		c0.081-0.17,0.162-0.34,0.244-0.509c0.077-0.161,0.154-0.321,0.231-0.482c0.081-0.17,0.163-0.339,0.244-0.509
		c0.078-0.163,0.156-0.326,0.234-0.489c0.08-0.168,0.16-0.335,0.241-0.502c0.077-0.161,0.154-0.321,0.231-0.482
		c0.081-0.17,0.163-0.339,0.244-0.509c0.076-0.158,0.152-0.317,0.228-0.475c0.042-0.088,0.083-0.177,0.129-0.264
		c0.02-0.038,0.016-0.068-0.002-0.104c-0.073-0.14-0.143-0.282-0.214-0.423c-0.111-0.222-0.222-0.445-0.333-0.667
		c-0.076-0.153-0.153-0.305-0.23-0.458c-0.081-0.161-0.162-0.323-0.243-0.484c-0.08-0.159-0.16-0.318-0.24-0.478
		c-0.077-0.152-0.153-0.305-0.23-0.457c-0.082-0.164-0.164-0.327-0.247-0.491c-0.075-0.15-0.151-0.301-0.226-0.451
		c-0.083-0.166-0.167-0.332-0.25-0.498C22.45,2.147,22.426,2.117,22.415,2.07z"/>
	<path d="M9.592,11.426c-0.134-0.01-0.264-0.02-0.394-0.03c-0.165-0.013-0.33-0.026-0.496-0.04c-0.155-0.012-0.31-0.025-0.466-0.038
		c-0.083-0.007-0.165-0.014-0.248-0.021c-0.215-0.017-0.431-0.034-0.646-0.049c-0.032-0.002-0.05-0.015-0.063-0.043
		c-0.033-0.068-0.069-0.134-0.102-0.201c-0.12-0.24-0.239-0.481-0.359-0.721c-0.076-0.153-0.153-0.305-0.23-0.457
		C6.506,9.663,6.424,9.499,6.342,9.335C6.265,9.182,6.189,9.03,6.112,8.877C6.03,8.714,5.948,8.55,5.866,8.386
		c-0.075-0.15-0.151-0.3-0.226-0.451C5.477,7.613,5.315,7.29,5.153,6.967c-0.039-0.078-0.08-0.157-0.12-0.235
		C5.028,6.721,5.021,6.711,5.015,6.699C5.12,6.489,5.226,6.276,5.332,6.064c0.164-0.327,0.329-0.655,0.493-0.982
		c0.069-0.137,0.138-0.274,0.206-0.41C6.121,4.494,6.209,4.317,6.298,4.14c0.073-0.146,0.147-0.291,0.22-0.437
		c0.085-0.168,0.169-0.336,0.253-0.505c0.079-0.157,0.157-0.314,0.236-0.471c0.079-0.157,0.158-0.314,0.237-0.471
		c0.018-0.036,0.03-0.079,0.062-0.101c0.033-0.023,0.078-0.011,0.118-0.012c0.389-0.015,0.778-0.029,1.167-0.043
		c0.173-0.006,0.346-0.012,0.52-0.018c0.138-0.005,0.276-0.01,0.414-0.015c0.022-0.001,0.044,0,0.064,0
		c0.006,0.021-0.005,0.034-0.011,0.046C9.447,2.376,9.316,2.639,9.185,2.901C9.113,3.045,9.04,3.188,8.968,3.332
		C8.804,3.659,8.639,3.987,8.475,4.314C8.404,4.455,8.333,4.596,8.262,4.738C8.175,4.91,8.088,5.083,8.002,5.255
		C7.923,5.412,7.844,5.569,7.765,5.726c-0.141,0.28-0.283,0.56-0.423,0.841c-0.042,0.083-0.042,0.05,0,0.137
		C7.467,6.97,7.594,7.235,7.721,7.5c0.078,0.163,0.156,0.326,0.234,0.489c0.079,0.165,0.158,0.33,0.238,0.496
		C8.271,8.649,8.35,8.814,8.429,8.98c0.079,0.165,0.158,0.33,0.237,0.496c0.08,0.167,0.16,0.335,0.241,0.502
		c0.076,0.158,0.152,0.317,0.228,0.475c0.084,0.174,0.167,0.348,0.251,0.523c0.063,0.131,0.126,0.262,0.189,0.394
		C9.582,11.385,9.593,11.399,9.592,11.426z"/>
	<path d="M17.11,7.311c-0.001-0.014-0.003-0.028-0.004-0.042c-0.015-0.034,0.005-0.072-0.012-0.106c0,0,0,0,0,0
		c0-0.053-0.001-0.105-0.001-0.158c0-0.039,0.002-0.042,0.039-0.053c0.125-0.036,0.252-0.065,0.381-0.085
		c0.141-0.022,0.283-0.038,0.426-0.034c0.091,0.002,0.18,0.017,0.265,0.048c0.127,0.046,0.227,0.126,0.293,0.246
		c0.007,0.013,0.016,0.025,0.024,0.038c0.002,0.005,0.004,0.009,0.006,0.014c0.007,0.01,0.005,0.023,0.013,0.032
		c-0.001,0.005,0,0.009,0.003,0.013c0.006,0.01,0.005,0.023,0.011,0.033c-0.002,0.005-0.001,0.009,0.002,0.012
		c0.011,0.015,0.003,0.034,0.012,0.05c0.003,0.04,0.007,0.08,0.009,0.12c0.007,0.123-0.004,0.245-0.045,0.362
		c-0.061,0.175-0.183,0.29-0.356,0.349c-0.15,0.051-0.303,0.058-0.459,0.027c-0.015-0.003-0.03-0.003-0.045-0.005
		c-0.008,0-0.014-0.005-0.021-0.009c-0.006-0.001-0.011-0.003-0.017-0.004c-0.008-0.009-0.021-0.005-0.029-0.012
		C17.603,8.142,17.6,8.14,17.595,8.142c-0.008-0.001-0.013-0.006-0.019-0.01c-0.003-0.004-0.007-0.006-0.011-0.005
		c-0.008-0.001-0.013-0.007-0.019-0.011c-0.008-0.009-0.018-0.017-0.03-0.018c-0.005-0.004-0.01-0.008-0.015-0.011
		c-0.008-0.01-0.016-0.018-0.029-0.02c-0.006-0.004-0.011-0.007-0.016-0.012l-0.003-0.002c-0.003-0.005-0.006-0.008-0.012-0.01
		c-0.015-0.019-0.031-0.037-0.052-0.051c-0.001-0.005-0.004-0.009-0.009-0.01l-0.003-0.004c-0.003-0.006-0.006-0.01-0.012-0.013
		l-0.002-0.002c-0.004-0.005-0.008-0.01-0.013-0.015l0,0c-0.006-0.005-0.011-0.011-0.014-0.019c0-0.006-0.002-0.01-0.007-0.012
		c-0.001-0.006-0.005-0.009-0.01-0.012l-0.001-0.002c-0.004-0.006-0.009-0.011-0.012-0.018c-0.002-0.004-0.005-0.009-0.007-0.013
		c-0.002-0.006-0.005-0.01-0.01-0.013l-0.001-0.001c-0.006-0.006-0.011-0.012-0.012-0.021c0.001-0.004,0-0.008-0.004-0.01
		c-0.004-0.006-0.009-0.011-0.011-0.019c0.001-0.005,0-0.009-0.005-0.011c-0.003-0.006-0.009-0.012-0.01-0.019
		c0.001-0.005,0-0.009-0.004-0.011c-0.004-0.006-0.009-0.012-0.011-0.019c0.001-0.005-0.001-0.009-0.005-0.011
		c-0.003-0.006-0.007-0.012-0.01-0.018c0.002-0.005,0-0.009-0.004-0.012c-0.006-0.009-0.004-0.022-0.012-0.03l0,0
		c-0.009-0.01-0.009-0.024-0.013-0.036c0.002-0.004,0.001-0.007-0.002-0.01c-0.021-0.086-0.041-0.171-0.062-0.257
		C17.109,7.354,17.121,7.33,17.11,7.311z"/>
	<path fill="#DF8E27" d="M18.569,7.319c-0.013-0.014-0.014-0.032-0.012-0.05C18.574,7.282,18.572,7.301,18.569,7.319z"/>
	<path fill="#DF8E27" d="M18.54,7.211c-0.011-0.008-0.014-0.019-0.013-0.032C18.539,7.186,18.542,7.198,18.54,7.211z"/>
	<path fill="#DF8E27" d="M18.554,7.257c-0.01-0.009-0.013-0.02-0.011-0.033C18.555,7.232,18.557,7.244,18.554,7.257z"/>
	<path fill="#E9AE25" d="M17.185,7.641c0.011,0.009,0.014,0.022,0.013,0.036C17.184,7.668,17.184,7.655,17.185,7.641z"/>
	<path fill="#E9AE25" d="M17.199,7.676c0.009,0.008,0.014,0.018,0.012,0.03C17.2,7.699,17.198,7.688,17.199,7.676z"/>
	<path fill="#E9AE25" d="M17.606,8.146c0.012-0.001,0.021,0.004,0.029,0.012C17.623,8.159,17.613,8.157,17.606,8.146z"/>
	<path fill="#E9AE25" d="M17.215,7.718c0.007,0.004,0.01,0.01,0.01,0.018C17.221,7.73,17.218,7.724,17.215,7.718z"/>
	<path fill="#E9AE25" d="M17.23,7.747c0.008,0.004,0.011,0.011,0.011,0.019C17.237,7.76,17.234,7.753,17.23,7.747z"/>
	<path fill="#E9AE25" d="M17.245,7.778c0.007,0.004,0.011,0.01,0.01,0.019C17.252,7.79,17.249,7.784,17.245,7.778z"/>
	<path fill="#E9AE25" d="M17.26,7.808c0.008,0.004,0.011,0.01,0.011,0.019C17.268,7.82,17.264,7.814,17.26,7.808z"/>
	<path fill="#E9AE25" d="M17.276,7.836c0.008,0.004,0.012,0.011,0.012,0.021C17.28,7.853,17.276,7.845,17.276,7.836z"/>
	<path fill="#E9AE25" d="M17.289,7.858c0.006,0.002,0.01,0.006,0.01,0.013C17.295,7.867,17.292,7.863,17.289,7.858z"/>
	<path fill="#E9AE25" d="M17.305,7.885c0.008,0.004,0.012,0.009,0.012,0.018C17.313,7.897,17.309,7.891,17.305,7.885z"/>
	<path fill="#E9AE25" d="M17.319,7.905c0.003,0.004,0.007,0.008,0.01,0.012C17.325,7.913,17.322,7.909,17.319,7.905z"/>
	<path fill="#E9AE25" d="M17.336,7.929c0.008,0.004,0.013,0.01,0.014,0.019C17.341,7.944,17.337,7.937,17.336,7.929z"/>
	<path fill="#E9AE25" d="M17.35,7.947c0.008,0.002,0.012,0.007,0.013,0.015C17.358,7.958,17.354,7.953,17.35,7.947z"/>
	<path fill="#E9AE25" d="M17.364,7.965c0.007,0.002,0.011,0.006,0.012,0.013C17.372,7.974,17.368,7.969,17.364,7.965z"/>
	<path fill="#E9AE25" d="M17.379,7.982c0.003,0.003,0.006,0.007,0.01,0.01C17.384,7.99,17.381,7.986,17.379,7.982z"/>
	<path fill="#E9AE25" d="M17.441,8.043c0.007,0,0.01,0.004,0.012,0.01C17.448,8.05,17.444,8.046,17.441,8.043z"/>
	<path fill="#E9AE25" d="M17.455,8.055c0.008,0,0.014,0.004,0.016,0.012C17.466,8.063,17.461,8.059,17.455,8.055z"/>
	<path fill="#E9AE25" d="M17.501,8.087c0.008,0,0.012,0.004,0.015,0.011C17.511,8.094,17.506,8.09,17.501,8.087z"/>
	<path fill="#E9AE25" d="M17.546,8.116c0.008,0,0.015,0.003,0.019,0.011C17.558,8.123,17.552,8.119,17.546,8.116z"/>
	<path fill="#E9AE25" d="M17.652,8.162c0.009-0.001,0.016,0.001,0.021,0.009C17.666,8.169,17.659,8.166,17.652,8.162z"/>
	<path fill="#E9AE25" d="M17.576,8.131c0.008,0,0.015,0.003,0.019,0.01C17.589,8.138,17.582,8.135,17.576,8.131z"/>
	<path fill="#DF8E27" d="M17.094,7.162c0.016,0.034,0.013,0.07,0.012,0.106c-0.01-0.009-0.014-0.02-0.014-0.033
		C17.093,7.211,17.093,7.187,17.094,7.162z"/>
	<path fill="#DF8E27" d="M17.11,7.311c0.014,0.019,0.012,0.042,0.011,0.064C17.101,7.356,17.108,7.333,17.11,7.311z"/>
	<path fill="#D36329" d="M24.751,5.659c-0.008-0.012-0.017-0.024-0.024-0.038c-0.111-0.222-0.222-0.444-0.333-0.666
		c-0.087-0.175-0.174-0.35-0.262-0.525c-0.036-0.072-0.074-0.142-0.11-0.214c-0.009-0.018-0.015-0.037-0.023-0.055
		c-0.009-0.008-0.006-0.022-0.015-0.03l0,0c-0.009-0.008-0.006-0.022-0.015-0.03l0,0c-0.009-0.008-0.006-0.022-0.015-0.03l0,0
		c-0.009-0.008-0.007-0.022-0.015-0.03l0,0c-0.019-0.032-0.003-0.052,0.026-0.066c0.023-0.011,0.048-0.016,0.073-0.016
		c0.261-0.001,0.52-0.028,0.781-0.031c0.045-0.001,0.09-0.005,0.135-0.011c0.04-0.005,0.08-0.01,0.115,0.019
		c0.04,0.078,0.08,0.156,0.12,0.235c0.106,0.211,0.211,0.422,0.317,0.633c0.079,0.157,0.159,0.314,0.238,0.47
		c0.04,0.078,0.08,0.157,0.119,0.235c0.009,0.018,0.021,0.034,0.022,0.055c-0.006,0.004-0.012,0.01-0.02,0.009
		c-0.336-0.027-0.669,0.023-1.004,0.029C24.812,5.603,24.784,5.634,24.751,5.659z"/>
	<path fill="#F5D722" d="M25.115,9.381c-0.014,0.032-0.027,0.064-0.043,0.096c-0.044,0.087-0.089,0.174-0.132,0.262
		c-0.111,0.222-0.221,0.444-0.332,0.666c-0.058,0.117-0.119,0.232-0.175,0.35c-0.018,0.037-0.042,0.051-0.081,0.054
		c-0.068,0.004-0.135,0.011-0.203,0.016c-0.15,0.012-0.3,0.023-0.45,0.035c-0.153,0.012-0.305,0.024-0.458,0.035
		c-0.01,0.001-0.02,0.001-0.027,0.001c-0.016-0.014-0.004-0.025,0-0.035c0.135-0.283,0.269-0.566,0.404-0.849
		c0.071-0.149,0.143-0.299,0.215-0.447c0.023-0.047,0.049-0.093,0.074-0.139c0.021-0.035,0.053-0.049,0.093-0.053
		c0.172-0.017,0.344-0.02,0.516-0.027c0.172-0.007,0.344-0.03,0.517-0.017C25.066,9.331,25.124,9.31,25.115,9.381z"/>
	<path fill="#C6382C" d="M25.069,3.936c-0.052,0.002-0.105-0.006-0.156,0.013c-0.016,0.006-0.035,0.002-0.052,0.002
		c-0.055,0-0.11,0-0.165,0c-0.015,0-0.031-0.003-0.045,0.001c-0.086,0.024-0.174,0.011-0.261,0.014
		c-0.035,0.001-0.069-0.001-0.104,0.011c-0.018,0.006-0.04,0.004-0.059,0.004c-0.06,0-0.12,0.001-0.18,0
		c-0.028,0-0.054,0.005-0.081,0.014c-0.026,0.008-0.027,0.026-0.027,0.046c-0.038-0.053-0.064-0.113-0.093-0.171
		c-0.139-0.276-0.276-0.552-0.414-0.828c-0.065-0.13-0.131-0.26-0.196-0.39c-0.011-0.022-0.029-0.042-0.025-0.07
		c0.007-0.002,0.015-0.005,0.021-0.005c0.115,0.004,0.231-0.001,0.346,0.012c0.012,0.001,0.025,0.001,0.038,0.002
		c0.238,0.007,0.476,0.015,0.715,0.022c0.087,0.003,0.074-0.004,0.112,0.072c0.115,0.229,0.229,0.458,0.344,0.686
		c0.081,0.161,0.163,0.323,0.243,0.484C25.043,3.882,25.065,3.905,25.069,3.936z"/>
	<path fill="#ECB724" d="M25.115,9.381c-0.003-0.02-0.014-0.031-0.035-0.031c-0.055,0-0.11-0.001-0.165,0
		c-0.057,0.001-0.114,0-0.171,0.012c-0.053,0.011-0.11,0.003-0.165,0.003c-0.05,0.001-0.1-0.005-0.148,0.013
		C24.42,9.382,24.406,9.38,24.393,9.38c-0.025,0-0.05,0-0.075,0c-0.035,0-0.07-0.002-0.105,0c-0.082,0.005-0.163,0.021-0.246,0.015
		c-0.025-0.002-0.039,0.022-0.059,0.029c0.001-0.005,0-0.01,0.002-0.015c0.068-0.142,0.136-0.285,0.204-0.427
		c0.067-0.14,0.133-0.281,0.2-0.421c0.071-0.149,0.143-0.298,0.214-0.447c0.003-0.007,0.009-0.012,0.013-0.018
		c0.023-0.033,0.055-0.048,0.095-0.052c0.187-0.016,0.374-0.022,0.561-0.029C25.354,8.012,25.511,7.99,25.669,8
		c0.045,0.003,0.092,0,0.113,0.054c-0.066,0.135-0.132,0.269-0.198,0.404c-0.088,0.177-0.177,0.354-0.265,0.53
		c-0.059,0.119-0.119,0.237-0.179,0.355C25.132,9.357,25.129,9.372,25.115,9.381z"/>
	<path fill="#E49D26" d="M25.781,8.055c-0.03-0.025-0.065-0.034-0.104-0.032c-0.062,0.003-0.125,0.001-0.188,0.001
		c-0.027,0-0.054,0.001-0.081,0.009c-0.018,0.006-0.039,0.005-0.059,0.005c-0.053,0.001-0.105,0-0.158,0
		c-0.035,0-0.069-0.002-0.104,0.011c-0.018,0.007-0.039,0.004-0.059,0.004c-0.055,0-0.11,0-0.165,0c-0.03,0-0.059,0.002-0.089,0.009
		C24.744,8.07,24.71,8.07,24.678,8.068c-0.049-0.003-0.094,0.005-0.136,0.03c0-0.021,0.013-0.038,0.021-0.056
		c0.074-0.156,0.149-0.312,0.225-0.467c0.055-0.113,0.11-0.225,0.166-0.337c0.004-0.006,0.007-0.011,0.01-0.017
		c-0.001-0.005,0.001-0.009,0.005-0.013c0.004-0.006,0.007-0.012,0.01-0.018c-0.001-0.005,0.001-0.009,0.005-0.012
		c0.004-0.006,0.01-0.011,0.01-0.019c-0.001-0.005,0-0.008,0.004-0.011c0.005-0.006,0.01-0.012,0.011-0.02
		c-0.001-0.004,0-0.008,0.004-0.01c0.008-0.008,0.005-0.021,0.014-0.029l0-0.001c0.009-0.008,0.006-0.022,0.014-0.03l0,0
		c0.01-0.008,0.007-0.021,0.015-0.03l0,0c0.007-0.005,0.012-0.011,0.013-0.02c-0.001-0.004,0.001-0.008,0.004-0.01
		c0.008-0.008,0.004-0.021,0.014-0.028l0-0.001c0.008-0.008,0.006-0.022,0.014-0.03l0-0.001c0.009-0.008,0.007-0.022,0.014-0.031
		l0,0c0.032-0.058,0.084-0.076,0.148-0.086c0.14-0.021,0.28-0.013,0.42-0.023c0.202-0.015,0.405-0.018,0.607-0.03
		c0.056-0.003,0.092,0.019,0.094,0.08c-0.002,0.005-0.004,0.009-0.006,0.014c-0.003,0.006-0.009,0.012-0.011,0.019
		c0.001,0.005-0.001,0.008-0.004,0.011c-0.004,0.006-0.009,0.012-0.011,0.019c0.001,0.005-0.001,0.008-0.004,0.011
		c-0.004,0.006-0.01,0.012-0.011,0.02c0.001,0.004,0,0.008-0.004,0.01c-0.004,0.006-0.009,0.012-0.011,0.02
		c0.001,0.004,0,0.008-0.004,0.01c-0.004,0.006-0.009,0.012-0.011,0.02c0.001,0.004,0,0.008-0.004,0.01
		c-0.005,0.006-0.01,0.012-0.011,0.02c0.001,0.004,0,0.007-0.004,0.01c-0.005,0.006-0.01,0.012-0.011,0.02
		c0.001,0.004,0,0.007-0.004,0.01c-0.005,0.006-0.01,0.012-0.011,0.021c0.001,0.004,0,0.007-0.004,0.009
		c-0.005,0.006-0.011,0.012-0.011,0.021c0.001,0.004-0.001,0.007-0.005,0.009c-0.004,0.006-0.008,0.012-0.011,0.018
		c0.001,0.005-0.001,0.009-0.005,0.013c-0.003,0.006-0.007,0.012-0.01,0.018c0.001,0.005-0.001,0.009-0.005,0.013
		c-0.003,0.006-0.007,0.012-0.01,0.018c0.001,0.005-0.001,0.009-0.005,0.013c-0.004,0.006-0.007,0.012-0.01,0.018
		c0.001,0.005-0.001,0.009-0.005,0.012c-0.004,0.006-0.007,0.012-0.01,0.018c0.001,0.005-0.001,0.009-0.005,0.012
		c-0.004,0.006-0.007,0.012-0.01,0.018c0.001,0.005-0.001,0.009-0.004,0.012c-0.003,0.006-0.009,0.011-0.01,0.019
		c0.001,0.005-0.001,0.009-0.005,0.012c-0.003,0.006-0.009,0.011-0.011,0.019c0.001,0.005-0.001,0.009-0.004,0.012
		c-0.004,0.006-0.009,0.011-0.01,0.019c-0.027,0.059-0.054,0.118-0.082,0.176c-0.072,0.145-0.145,0.29-0.218,0.434
		C25.803,8.021,25.797,8.041,25.781,8.055z"/>
	<path fill="#DC8227" d="M26.384,6.848c-0.005-0.005-0.014-0.01-0.015-0.016c-0.008-0.043-0.039-0.052-0.073-0.044
		c-0.096,0.023-0.194,0.01-0.291,0.014c-0.01,0-0.021-0.002-0.03,0.001c-0.088,0.026-0.179,0.01-0.268,0.014
		c-0.03,0.001-0.059,0-0.089,0.01c-0.018,0.006-0.039,0.005-0.059,0.005c-0.052,0.001-0.105,0-0.158,0
		c-0.035,0-0.07-0.004-0.103,0.012c-0.006,0.003-0.015,0.004-0.022,0.003c-0.066-0.011-0.116,0.02-0.162,0.06
		c0.018-0.063,0.054-0.118,0.079-0.178c0.012-0.03,0.034-0.059,0.036-0.09c0.003-0.034-0.025-0.064-0.04-0.096
		c-0.115-0.232-0.231-0.463-0.346-0.694c-0.031-0.063-0.069-0.122-0.092-0.189c0.002-0.023,0.004-0.044,0.022-0.062
		c0.019-0.017,0.04-0.018,0.063-0.018c0.028,0,0.055,0,0.083,0c0.015,0,0.031,0.003,0.045-0.001
		c0.076-0.023,0.154-0.011,0.231-0.014c0.045-0.002,0.09,0.003,0.134-0.012c0.02-0.007,0.045-0.003,0.067-0.003
		c0.055,0,0.11,0,0.165,0c0.017,0,0.037,0.002,0.052-0.004c0.037-0.014,0.074-0.01,0.111-0.011c0.048-0.002,0.095-0.001,0.138,0.026
		c0.006,0.004,0.015,0.002,0.022,0.004c0.008,0.013,0.017,0.025,0.024,0.038c0.084,0.166,0.167,0.332,0.25,0.498
		c0.089,0.177,0.178,0.355,0.267,0.532c0.008,0.016,0.015,0.032,0.023,0.047c0.007,0.014,0.01,0.028,0.002,0.043
		C26.428,6.764,26.415,6.811,26.384,6.848z"/>
	<path fill="#DC8227" d="M25.114,6.907c0.001,0.013-0.002,0.024-0.014,0.031C25.099,6.924,25.104,6.914,25.114,6.907z"/>
	<path fill="#C6382C" d="M23.94,4.041c0.012,0.007,0.015,0.017,0.015,0.03C23.944,4.064,23.939,4.054,23.94,4.041z"/>
	<path fill="#DC8227" d="M25.085,6.969c0,0.012-0.002,0.022-0.014,0.028C25.07,6.985,25.075,6.975,25.085,6.969z"/>
	<path fill="#DC8227" d="M25.1,6.938c0.001,0.012-0.002,0.023-0.014,0.03C25.085,6.955,25.089,6.945,25.1,6.938z"/>
	<path fill="#DC8227" d="M25.054,7.028c0.001,0.013-0.002,0.024-0.015,0.03C25.039,7.045,25.043,7.034,25.054,7.028z"/>
	<path fill="#DC8227" d="M25.039,7.058c0.001,0.013-0.002,0.023-0.014,0.03C25.024,7.075,25.029,7.065,25.039,7.058z"/>
	<path fill="#DC8227" d="M25.025,7.089c0,0.012-0.002,0.023-0.014,0.029C25.01,7.105,25.014,7.096,25.025,7.089z"/>
	<path fill="#C6382C" d="M23.955,4.072c0.012,0.007,0.015,0.017,0.015,0.03C23.958,4.095,23.954,4.084,23.955,4.072z"/>
	<path fill="#C6382C" d="M23.969,4.102c0.012,0.007,0.015,0.017,0.015,0.03C23.973,4.125,23.969,4.115,23.969,4.102z"/>
	<path fill="#C6382C" d="M23.984,4.132c0.012,0.007,0.015,0.017,0.015,0.03C23.988,4.155,23.984,4.145,23.984,4.132z"/>
	<path fill="#DC8227" d="M26.368,6.881c0-0.008,0.003-0.015,0.011-0.019C26.379,6.871,26.376,6.877,26.368,6.881z"/>
	<path fill="#DC8227" d="M26.353,6.911c0-0.008,0.003-0.015,0.011-0.019C26.364,6.901,26.361,6.907,26.353,6.911z"/>
	<path fill="#DC8227" d="M26.338,6.942c0-0.009,0.003-0.015,0.011-0.02C26.349,6.931,26.346,6.938,26.338,6.942z"/>
	<path fill="#DC8227" d="M26.323,6.972c0-0.009,0.003-0.015,0.011-0.02C26.335,6.961,26.331,6.968,26.323,6.972z"/>
	<path fill="#DC8227" d="M26.308,7.003c0-0.009,0.003-0.015,0.011-0.02C26.319,6.992,26.316,6.998,26.308,7.003z"/>
	<path fill="#DC8227" d="M25.067,7.007c0,0.009-0.004,0.016-0.013,0.02C25.054,7.018,25.059,7.011,25.067,7.007z"/>
	<path fill="#DC8227" d="M26.293,7.033c0-0.009,0.003-0.016,0.011-0.02C26.305,7.022,26.301,7.029,26.293,7.033z"/>
	<path fill="#DC8227" d="M26.278,7.063c0-0.009,0.003-0.016,0.011-0.02C26.29,7.052,26.286,7.059,26.278,7.063z"/>
	<path fill="#DC8227" d="M26.263,7.094c0-0.009,0.003-0.016,0.011-0.021C26.275,7.082,26.271,7.09,26.263,7.094z"/>
	<path fill="#DC8227" d="M26.248,7.124c0-0.009,0.003-0.016,0.011-0.021C26.26,7.113,26.256,7.12,26.248,7.124z"/>
	<path fill="#DC8227" d="M25.007,7.128c0.001,0.009-0.003,0.016-0.011,0.02C24.996,7.139,24.999,7.132,25.007,7.128z"/>
	<path fill="#DC8227" d="M26.232,7.151c0-0.008,0.004-0.014,0.011-0.018C26.243,7.142,26.239,7.148,26.232,7.151z"/>
	<path fill="#DC8227" d="M24.992,7.159c0,0.008-0.003,0.015-0.01,0.019C24.981,7.169,24.984,7.163,24.992,7.159z"/>
	<path fill="#DC8227" d="M26.217,7.181c0-0.008,0.003-0.014,0.01-0.018C26.228,7.172,26.224,7.178,26.217,7.181z"/>
	<path fill="#DC8227" d="M24.977,7.19c0.001,0.008-0.003,0.014-0.01,0.018C24.966,7.2,24.969,7.193,24.977,7.19z"/>
	<path fill="#DC8227" d="M26.202,7.212c0-0.008,0.003-0.014,0.01-0.018C26.213,7.202,26.209,7.208,26.202,7.212z"/>
	<path fill="#DC8227" d="M24.963,7.221c0,0.008-0.003,0.014-0.01,0.017C24.952,7.23,24.955,7.224,24.963,7.221z"/>
	<path fill="#DC8227" d="M26.187,7.242c0-0.008,0.003-0.014,0.01-0.018C26.198,7.233,26.194,7.238,26.187,7.242z"/>
	<path fill="#DC8227" d="M26.172,7.272c0-0.008,0.003-0.014,0.01-0.018C26.183,7.263,26.179,7.269,26.172,7.272z"/>
	<path fill="#DC8227" d="M26.157,7.303c0-0.008,0.003-0.014,0.01-0.018C26.168,7.293,26.164,7.299,26.157,7.303z"/>
	<path fill="#DC8227" d="M26.142,7.333c0-0.008,0.003-0.014,0.01-0.019C26.153,7.323,26.149,7.329,26.142,7.333z"/>
	<path fill="#DC8227" d="M26.127,7.363c0.003-0.006,0.007-0.012,0.011-0.019C26.138,7.353,26.134,7.359,26.127,7.363z"/>
	<path fill="#DC8227" d="M26.112,7.394c0-0.008,0.003-0.015,0.01-0.019C26.123,7.383,26.119,7.39,26.112,7.394z"/>
	<path fill="#C9432B" d="M6.596,4.629c0.003-0.028,0.02-0.051,0.032-0.076c0.103-0.207,0.207-0.413,0.31-0.62
		c0.101-0.202,0.2-0.405,0.304-0.606c0.081-0.156,0.157-0.314,0.236-0.471c0.035-0.07,0.073-0.138,0.107-0.207
		C7.6,2.62,7.62,2.607,7.651,2.61c0.002,0,0.005,0,0.008,0c0.188-0.006,0.377-0.012,0.565-0.019C8.399,2.585,8.575,2.576,8.75,2.569
		c0.017-0.001,0.035,0,0.051,0c0.01,0.025-0.005,0.041-0.014,0.058c-0.073,0.146-0.147,0.291-0.22,0.437
		c-0.11,0.22-0.219,0.441-0.329,0.661C8.096,4.007,7.954,4.289,7.811,4.572C7.806,4.583,7.797,4.593,7.791,4.603
		C7.568,4.58,7.347,4.613,7.124,4.619c-0.16,0.004-0.32,0.015-0.48,0.025C6.627,4.645,6.61,4.643,6.596,4.629z"/>
	<path fill="#F3CE23" d="M7.849,8.882c0.005,0.008,0.012,0.016,0.016,0.025C7.969,9.125,8.073,9.342,8.178,9.56
		c0.086,0.179,0.171,0.358,0.257,0.537c0.076,0.158,0.152,0.317,0.228,0.475c0.042,0.088,0.086,0.176,0.128,0.264
		c0.007,0.015,0.019,0.03,0.015,0.052c-0.042,0.005-0.084-0.001-0.125-0.005c-0.165-0.013-0.33-0.026-0.496-0.04
		c-0.18-0.015-0.36-0.03-0.541-0.043c-0.026-0.002-0.041-0.012-0.052-0.034c-0.038-0.077-0.078-0.152-0.116-0.228
		C7.336,10.259,7.198,9.98,7.059,9.701C6.98,9.541,6.899,9.382,6.82,9.223C6.802,9.184,6.773,9.151,6.764,9.108
		c-0.01-0.008-0.006-0.022-0.015-0.03l0,0C6.739,9.07,6.742,9.057,6.734,9.048l0,0c-0.01-0.008-0.007-0.021-0.015-0.03l0-0.001
		c-0.01-0.007-0.007-0.021-0.015-0.03l0-0.001C6.694,8.98,6.697,8.966,6.689,8.958C6.686,8.956,6.684,8.953,6.685,8.948
		c0-0.059,0.042-0.068,0.086-0.072c0.07-0.005,0.14-0.008,0.21-0.012C7.229,8.853,7.477,8.842,7.725,8.83
		C7.774,8.827,7.822,8.832,7.849,8.882z"/>
	<path fill="#E6A326" d="M7.849,8.882C7.82,8.861,7.79,8.849,7.752,8.852C7.69,8.857,7.628,8.846,7.567,8.866
		c-0.014,0.005-0.03,0.001-0.045,0.002C7.422,8.872,7.323,8.861,7.223,8.881C7.168,8.891,7.109,8.882,7.051,8.883
		c-0.035,0-0.07-0.002-0.104,0.011C6.932,8.899,6.913,8.898,6.896,8.898c-0.04,0.001-0.08,0.002-0.12,0
		C6.733,8.895,6.703,8.909,6.685,8.948C6.677,8.936,6.667,8.924,6.661,8.911C6.56,8.709,6.459,8.507,6.358,8.306
		c-0.085-0.17-0.17-0.341-0.256-0.511C6.044,7.678,5.985,7.561,5.927,7.445C5.918,7.427,5.912,7.408,5.904,7.39
		C5.93,7.33,5.987,7.343,6.033,7.339c0.095-0.008,0.19-0.008,0.286-0.013c0.22-0.012,0.441-0.017,0.661-0.033
		C7.026,7.289,7.069,7.3,7.107,7.33c0.007,0.013,0.015,0.026,0.022,0.039c0.115,0.24,0.229,0.48,0.344,0.719
		c0.084,0.176,0.169,0.353,0.254,0.529C7.761,8.69,7.797,8.761,7.832,8.833C7.839,8.849,7.851,8.863,7.849,8.882z"/>
	<path fill="#D66D29" d="M6.596,4.629c0.066-0.014,0.135-0.006,0.201-0.017c0.1-0.016,0.2-0.009,0.3-0.013
		c0.008,0,0.015,0.001,0.023-0.001c0.094-0.025,0.19-0.011,0.284-0.015c0.018-0.001,0.037,0.003,0.052-0.003
		C7.495,4.567,7.535,4.57,7.575,4.57c0.045,0,0.09,0,0.136,0c0.032,0,0.06,0.007,0.08,0.033C7.776,4.654,7.745,4.697,7.722,4.744
		c-0.054,0.11-0.109,0.221-0.164,0.331C7.47,5.252,7.381,5.429,7.292,5.607C7.218,5.755,7.144,5.903,7.069,6.05
		C7.045,6.097,7.018,6.142,6.992,6.187c-0.044-0.027-0.091-0.03-0.143-0.03c-0.274,0.004-0.546,0.033-0.82,0.033
		c-0.078,0-0.153,0.027-0.231,0.022c0.003-0.029,0.02-0.051,0.032-0.076c0.027-0.054,0.057-0.106,0.083-0.16
		c0.127-0.253,0.253-0.507,0.38-0.76c0.095-0.188,0.19-0.376,0.286-0.564C6.584,4.645,6.591,4.637,6.596,4.629z"/>
	<path fill="#DE8827" d="M5.798,6.213c0.029-0.022,0.06-0.035,0.097-0.031c0.017,0.002,0.035-0.001,0.052-0.007
		c0.022-0.007,0.044-0.008,0.067-0.008c0.048,0,0.095,0,0.143,0c0.042,0,0.085,0.003,0.127-0.012
		C6.299,6.15,6.318,6.153,6.336,6.153c0.055,0,0.11,0,0.166,0c0.015,0,0.031,0.003,0.045-0.001c0.094-0.024,0.19-0.011,0.284-0.014
		c0.022-0.001,0.045-0.001,0.067-0.007C6.951,6.118,6.954,6.12,6.981,6.167c0.004,0.006,0.007,0.013,0.01,0.02
		c0.001,0.005-0.001,0.008-0.005,0.011c-0.004,0.006-0.01,0.012-0.011,0.02c0.001,0.004,0,0.008-0.004,0.01
		c-0.005,0.006-0.01,0.012-0.011,0.02c0.001,0.004,0,0.008-0.004,0.01c-0.005,0.006-0.01,0.012-0.011,0.021
		c0.001,0.004,0,0.007-0.004,0.009C6.938,6.295,6.932,6.301,6.931,6.31c0.001,0.004,0,0.007-0.004,0.009
		C6.922,6.325,6.917,6.331,6.916,6.34c0.001,0.004,0,0.007-0.004,0.009C6.907,6.356,6.902,6.362,6.901,6.371
		c0.001,0.004,0,0.007-0.003,0.009C6.892,6.386,6.886,6.392,6.886,6.401c0.001,0.004,0,0.007-0.003,0.009
		C6.877,6.416,6.871,6.422,6.871,6.431c0.001,0.004,0,0.007-0.003,0.009C6.859,6.448,6.863,6.462,6.853,6.469l0,0.001
		c-0.008,0.008-0.005,0.022-0.015,0.03l0,0.001C6.83,6.508,6.832,6.522,6.823,6.53l0,0C6.815,6.538,6.817,6.552,6.808,6.56l0,0
		C6.8,6.568,6.803,6.582,6.793,6.589L6.792,6.59C6.788,6.596,6.782,6.602,6.78,6.609c0.001,0.005,0,0.008-0.004,0.012
		c-0.007,0.01-0.007,0.02,0.003,0.029l0,0.001c0.004,0.004,0.007,0.008,0.009,0.014C6.8,6.686,6.813,6.707,6.824,6.729
		c0.058,0.121,0.114,0.243,0.172,0.365c0.03,0.063,0.062,0.125,0.092,0.187C7.096,7.297,7.101,7.313,7.107,7.33
		C7.028,7.314,6.95,7.31,6.87,7.327C6.82,7.338,6.765,7.329,6.713,7.33c-0.045,0-0.09-0.004-0.134,0.012
		C6.563,7.347,6.544,7.344,6.527,7.344c-0.055,0-0.11,0-0.165,0c-0.015,0-0.031-0.003-0.045,0.001
		C6.225,7.369,6.132,7.357,6.04,7.359C5.993,7.361,5.947,7.371,5.904,7.39C5.876,7.34,5.847,7.29,5.821,7.239
		c-0.08-0.158-0.159-0.318-0.239-0.476C5.578,6.754,5.574,6.744,5.569,6.736c-0.017-0.026-0.017-0.051,0-0.077
		C5.577,6.646,5.584,6.633,5.591,6.62c0.003-0.006,0.007-0.011,0.01-0.017c0.002-0.005,0.004-0.009,0.007-0.014
		c0.002-0.005,0.005-0.01,0.01-0.013l0.001-0.002C5.624,6.569,5.63,6.563,5.63,6.554c-0.001-0.004,0-0.007,0.004-0.01
		c0.008-0.008,0.005-0.021,0.014-0.028l0.001-0.001c0.008-0.008,0.005-0.021,0.015-0.029l0.001-0.001
		c0.008-0.008,0.005-0.021,0.014-0.029l0-0.001c0.008-0.008,0.005-0.022,0.014-0.029l0-0.001c0.009-0.008,0.006-0.021,0.015-0.029
		l0-0.001c0.009-0.008,0.006-0.022,0.015-0.029l0-0.001c0.009-0.008,0.006-0.022,0.015-0.03l0-0.001
		c0.009-0.008,0.006-0.022,0.015-0.03l0-0.001c0.009-0.008,0.006-0.022,0.015-0.03l0,0c0.009-0.008,0.007-0.022,0.015-0.03l0,0
		C5.792,6.236,5.79,6.222,5.798,6.213L5.798,6.213z"/>
	<path fill="#D66D29" d="M6.793,6.589C6.793,6.577,6.797,6.566,6.808,6.56C6.809,6.573,6.804,6.583,6.793,6.589z"/>
	<path fill="#D66D29" d="M5.723,6.365c0,0.012-0.003,0.023-0.015,0.029C5.708,6.382,5.713,6.372,5.723,6.365z"/>
	<path fill="#D66D29" d="M6.779,6.65C6.763,6.642,6.762,6.632,6.776,6.621C6.777,6.631,6.778,6.641,6.779,6.65z"/>
	<path fill="#D66D29" d="M6.853,6.469c0-0.012,0.003-0.023,0.014-0.029C6.869,6.452,6.864,6.462,6.853,6.469z"/>
	<path fill="#D66D29" d="M5.678,6.456c0,0.012-0.003,0.023-0.014,0.029C5.663,6.472,5.668,6.463,5.678,6.456z"/>
	<path fill="#D66D29" d="M6.838,6.499c0-0.012,0.003-0.023,0.015-0.03C6.854,6.482,6.849,6.492,6.838,6.499z"/>
	<path fill="#D66D29" d="M5.663,6.486c0,0.012-0.003,0.023-0.015,0.029C5.647,6.502,5.652,6.493,5.663,6.486z"/>
	<path fill="#D66D29" d="M6.823,6.53c0-0.012,0.003-0.023,0.015-0.03C6.839,6.512,6.833,6.522,6.823,6.53z"/>
	<path fill="#D66D29" d="M5.648,6.516c0,0.012-0.003,0.022-0.014,0.028C5.633,6.532,5.637,6.523,5.648,6.516z"/>
	<path fill="#D66D29" d="M6.808,6.56c0-0.013,0.003-0.023,0.015-0.03C6.824,6.543,6.819,6.553,6.808,6.56z"/>
	<path fill="#D66D29" d="M5.738,6.334c0,0.013-0.003,0.023-0.015,0.03C5.722,6.351,5.727,6.341,5.738,6.334z"/>
	<path fill="#D66D29" d="M5.753,6.304c0,0.013-0.003,0.023-0.015,0.03C5.738,6.321,5.742,6.311,5.753,6.304z"/>
	<path fill="#D66D29" d="M5.708,6.395c0,0.012-0.003,0.023-0.015,0.029C5.693,6.412,5.697,6.402,5.708,6.395z"/>
	<path fill="#D66D29" d="M5.768,6.274c0.001,0.013-0.002,0.023-0.015,0.03C5.753,6.291,5.757,6.281,5.768,6.274z"/>
	<path fill="#E6A326" d="M6.749,9.079c0.012,0.006,0.016,0.017,0.015,0.03C6.753,9.101,6.748,9.092,6.749,9.079z"/>
	<path fill="#D66D29" d="M5.783,6.244c0.001,0.013-0.002,0.024-0.015,0.03C5.767,6.261,5.772,6.251,5.783,6.244z"/>
	<path fill="#E6A326" d="M6.689,8.958c0.012,0.006,0.015,0.017,0.014,0.029C6.693,8.98,6.688,8.971,6.689,8.958z"/>
	<path fill="#D66D29" d="M5.798,6.213c0.001,0.013-0.003,0.024-0.015,0.03C5.783,6.231,5.787,6.22,5.798,6.213z"/>
	<path fill="#E6A326" d="M6.704,8.988c0.012,0.006,0.016,0.017,0.015,0.03C6.708,9.01,6.703,9.001,6.704,8.988z"/>
	<path fill="#E6A326" d="M6.719,9.018c0.012,0.006,0.016,0.017,0.015,0.03C6.723,9.041,6.718,9.031,6.719,9.018z"/>
	<path fill="#E6A326" d="M6.734,9.048c0.012,0.006,0.016,0.017,0.015,0.03C6.738,9.071,6.733,9.061,6.734,9.048z"/>
	<path fill="#D66D29" d="M5.693,6.425c0,0.012-0.003,0.023-0.014,0.029C5.678,6.442,5.682,6.432,5.693,6.425z"/>
	<path fill="#D66D29" d="M5.63,6.554c0,0.009-0.003,0.016-0.011,0.021C5.618,6.566,5.622,6.559,5.63,6.554z"/>
	<path fill="#D66D29" d="M5.617,6.577c-0.003,0.004-0.007,0.008-0.01,0.013C5.607,6.582,5.611,6.579,5.617,6.577z"/>
	<path fill="#D66D29" d="M6.78,6.609c0-0.009,0.004-0.015,0.012-0.019C6.791,6.599,6.787,6.605,6.78,6.609z"/>
	<path fill="#D66D29" d="M5.601,6.603C5.598,6.609,5.594,6.614,5.591,6.62C5.59,6.612,5.594,6.607,5.601,6.603z"/>
	<path fill="#D66D29" d="M6.788,6.665C6.785,6.66,6.782,6.655,6.779,6.651C6.785,6.653,6.788,6.658,6.788,6.665z"/>
	<path fill="#D66D29" d="M6.871,6.431c0-0.009,0.004-0.017,0.012-0.022C6.883,6.419,6.879,6.426,6.871,6.431z"/>
	<path fill="#D66D29" d="M6.886,6.401c0-0.009,0.004-0.017,0.012-0.021C6.898,6.389,6.894,6.396,6.886,6.401z"/>
	<path fill="#D66D29" d="M6.901,6.371c0-0.009,0.003-0.016,0.011-0.021C6.913,6.359,6.909,6.366,6.901,6.371z"/>
	<path fill="#D66D29" d="M6.916,6.34c0-0.009,0.004-0.016,0.011-0.021C6.928,6.328,6.924,6.335,6.916,6.34z"/>
	<path fill="#D66D29" d="M6.931,6.31c0-0.009,0.004-0.016,0.011-0.021C6.943,6.298,6.939,6.305,6.931,6.31z"/>
	<path fill="#D66D29" d="M6.946,6.279c0-0.009,0.003-0.016,0.011-0.021C6.958,6.268,6.954,6.275,6.946,6.279z"/>
	<path fill="#D66D29" d="M6.961,6.249c0-0.009,0.004-0.016,0.011-0.02C6.973,6.238,6.969,6.244,6.961,6.249z"/>
	<path fill="#D66D29" d="M6.976,6.219c0-0.009,0.003-0.016,0.011-0.02C6.988,6.207,6.984,6.214,6.976,6.219z"/>
</g>
</svg>
