<?xml version="1.0" encoding="utf-8"?>
<!-- Generator: Adobe Illustrator 24.3.0, SVG Export Plug-In . SVG Version: 6.00 Build 0)  -->
<svg version="1.1" id="Слой_1" xmlns="http://www.w3.org/2000/svg" xmlns:xlink="http://www.w3.org/1999/xlink" x="0px" y="0px"
	 width="32px" height="13px" viewBox="0 0 32 13" enable-background="new 0 0 32 13" xml:space="preserve">
<g>
	<path fill="#020101" d="M0,6.488c0.008,0,0.016,0,0.021,0.008c0.04,0.068,0.08,0.136,0.119,0.205
		c0.004,0.007,0.004,0.015-0.001,0.022C0.101,6.787,0.062,6.852,0.024,6.916C0.018,6.925,0.009,6.929,0,6.932
		C0,6.784,0,6.636,0,6.488z"/>
	<path fill="#F6F787" d="M32,6.596c0,0.3,0,0.6,0,0.9c-0.008,0.003-0.015,0.001-0.02-0.007c-0.014-0.026-0.011-0.054-0.011-0.082
		c0-0.241,0-0.482,0-0.722c0-0.028-0.002-0.056,0.011-0.082C31.985,6.595,31.992,6.592,32,6.596z"/>
	<path fill="#727271" d="M32,6.596c-0.004-0.001-0.007-0.002-0.01-0.003c-0.019-0.011-0.023-0.028-0.02-0.048
		c-0.002-0.229-0.001-0.458-0.001-0.688c0-0.031-0.006-0.065,0.02-0.09c0.004,0,0.007,0,0.01,0.001C32,6.044,32,6.32,32,6.596z"/>
	<path fill="#727271" d="M31.989,7.495C31.993,7.493,31.997,7.493,32,7.495c0,0.268,0,0.536,0,0.804l-0.006-0.001L31.989,8.3
		c-0.02-0.018-0.02-0.043-0.02-0.066c0.001-0.236-0.005-0.472,0.004-0.708C31.974,7.513,31.979,7.502,31.989,7.495z"/>
	<path d="M16.755,12.271c-1.131,0-2.263,0-3.394,0c-0.024,0-0.051,0.009-0.07-0.005c-0.018-0.013-0.029-0.037-0.042-0.057
		c-0.278-0.429-0.556-0.857-0.834-1.286c-0.395-0.609-0.791-1.219-1.186-1.828c-0.253-0.39-0.505-0.781-0.758-1.171
		c-0.21-0.325-0.421-0.65-0.631-0.975C9.837,6.944,9.833,6.94,9.83,6.935C9.822,6.924,9.823,6.913,9.831,6.902
		c0.028-0.043,0.056-0.087,0.085-0.131c0.344-0.531,0.689-1.061,1.033-1.592c0.288-0.444,0.575-0.887,0.863-1.331
		c0.36-0.556,0.721-1.112,1.081-1.668c0.122-0.188,0.243-0.375,0.364-0.563c0.008-0.012,0.016-0.023,0.023-0.035
		c0.007-0.012,0.017-0.016,0.03-0.016c0.016,0,0.032,0,0.048,0c2.271,0,4.541,0,6.812,0c0.006,0,0.012,0.001,0.018,0
		c0.035-0.007,0.054,0.012,0.072,0.04c0.268,0.416,0.537,0.831,0.806,1.247c0.193,0.298,0.387,0.596,0.58,0.894
		c0.316,0.487,0.632,0.974,0.948,1.462c0.278,0.429,0.556,0.857,0.833,1.286c0.084,0.129,0.167,0.258,0.251,0.387
		c0.004,0.007,0.008,0.014,0.013,0.02c0.01,0.013,0.008,0.025-0.001,0.038c-0.03,0.047-0.06,0.094-0.091,0.141
		c-0.377,0.581-0.754,1.161-1.131,1.742c-0.329,0.507-0.658,1.015-0.987,1.522c-0.407,0.628-0.814,1.256-1.22,1.884
		c-0.002,0.003-0.004,0.007-0.006,0.01c-0.013,0.026-0.034,0.036-0.063,0.033c-0.018-0.002-0.036,0-0.054,0
		C19.01,12.271,17.883,12.271,16.755,12.271z"/>
	<path d="M28.496,1.668c0.001,0.023-0.011,0.037-0.019,0.052c-0.2,0.384-0.399,0.768-0.599,1.152c-0.167,0.32-0.334,0.64-0.5,0.961
		c-0.194,0.373-0.389,0.746-0.583,1.12c-0.136,0.262-0.273,0.524-0.409,0.786c-0.121,0.234-0.242,0.467-0.364,0.701
		c-0.087,0.168-0.175,0.336-0.263,0.504c-0.012,0.022-0.011,0.039,0.001,0.061c0.136,0.249,0.27,0.498,0.405,0.747
		c0.152,0.281,0.305,0.561,0.457,0.841c0.179,0.329,0.358,0.659,0.537,0.989c0.178,0.328,0.356,0.656,0.534,0.984
		c0.15,0.277,0.301,0.554,0.452,0.83c0.118,0.217,0.235,0.435,0.353,0.653c0.003,0.005,0.005,0.011,0.007,0.016
		c-0.005,0.013-0.016,0.01-0.025,0.01c-0.016,0-0.032,0-0.048,0c-0.69,0-1.379,0-2.069,0c-0.026,0-0.052-0.004-0.076,0.009
		c-0.008,0.004-0.02,0.002-0.029,0.003c-0.012,0-0.024,0-0.036,0c-1.467,0-2.935,0-4.402,0c-0.022,0-0.043,0-0.062,0
		c-0.008-0.015,0-0.023,0.004-0.032c0.154-0.298,0.308-0.595,0.463-0.893c0.144-0.278,0.288-0.556,0.432-0.834
		c0.121-0.234,0.243-0.467,0.364-0.701c0.011-0.021,0.022-0.042,0.033-0.064c0.004-0.007,0.01-0.017,0.008-0.022
		c-0.013-0.03,0.008-0.049,0.02-0.071c0.147-0.283,0.294-0.567,0.44-0.85c0.15-0.29,0.301-0.581,0.451-0.872
		c0.149-0.287,0.298-0.574,0.447-0.86c0.013-0.025,0.015-0.046,0.001-0.072c-0.131-0.247-0.26-0.494-0.389-0.742
		c-0.178-0.341-0.356-0.683-0.534-1.024c-0.149-0.285-0.297-0.569-0.446-0.854c-0.17-0.325-0.34-0.651-0.51-0.976
		c-0.16-0.306-0.32-0.612-0.48-0.917c-0.104-0.2-0.209-0.4-0.313-0.599c-0.004-0.009-0.007-0.018-0.011-0.026
		c0.005-0.015,0.017-0.01,0.026-0.01c0.014-0.001,0.028,0,0.042,0c1.057,0,2.115,0,3.172,0c1.151,0,2.303,0,3.454,0
		C28.453,1.666,28.474,1.667,28.496,1.668z"/>
	<path d="M11.781,1.69c-0.028,0.054-0.05,0.098-0.073,0.142c-0.159,0.306-0.318,0.612-0.477,0.919
		c-0.192,0.37-0.384,0.74-0.576,1.11c-0.056,0.108-0.112,0.216-0.167,0.324c-0.011,0.022-0.028,0.042-0.019,0.072
		c0.003,0.01-0.01,0.025-0.017,0.037c-0.039,0.076-0.079,0.152-0.118,0.229c-0.163,0.315-0.326,0.631-0.49,0.946
		C9.723,5.702,9.602,5.936,9.48,6.17C9.355,6.412,9.229,6.655,9.103,6.897c-0.011,0.02-0.01,0.034,0.001,0.054
		C9.22,7.172,9.335,7.394,9.45,7.615c0.136,0.26,0.271,0.52,0.407,0.78c0.121,0.232,0.242,0.463,0.363,0.695
		c0.144,0.276,0.288,0.552,0.432,0.828c0.121,0.232,0.242,0.463,0.363,0.695c0.143,0.274,0.286,0.548,0.429,0.822
		c0.104,0.2,0.209,0.4,0.313,0.599c0.009,0.018,0.019,0.035,0.028,0.053c0.007,0.015,0.003,0.023-0.012,0.023
		c-0.018,0-0.036,0-0.054,0c-0.836,0-1.671,0-2.507,0c-1.367,0-2.734,0-4.102,0c-0.026,0-0.052,0-0.077,0
		c-0.011-0.017,0.001-0.028,0.007-0.04c0.158-0.302,0.316-0.605,0.473-0.907c0.2-0.384,0.4-0.768,0.599-1.152
		c0.169-0.326,0.338-0.651,0.507-0.977c0.158-0.304,0.317-0.608,0.475-0.913C7.23,7.862,7.364,7.604,7.498,7.345
		C7.584,7.181,7.67,7.017,7.756,6.852C7.761,6.843,7.765,6.834,7.77,6.826c0.011-0.017,0.008-0.034-0.001-0.051
		C7.766,6.77,7.763,6.765,7.761,6.759C7.547,6.367,7.333,5.974,7.12,5.582C6.905,5.186,6.691,4.789,6.476,4.393
		C6.29,4.051,6.104,3.709,5.918,3.368C5.749,3.056,5.58,2.744,5.41,2.432C5.286,2.204,5.163,1.976,5.039,1.748
		C5.033,1.736,5.023,1.725,5.027,1.705C5.039,1.7,5.055,1.703,5.07,1.703c0.246,0,0.492,0,0.738,0c0.452,0,0.903,0,1.355,0
		c0.026,0,0.051,0.003,0.076-0.009C7.252,1.687,7.271,1.69,7.286,1.69c0.166,0,0.332,0,0.498,0c1.305,0,2.61,0,3.916,0
		C11.724,1.69,11.748,1.69,11.781,1.69z"/>
	<path d="M3.689,1.853c0.026,0.046,0.052,0.09,0.078,0.134C3.955,2.318,4.144,2.649,4.333,2.98C4.556,3.37,4.778,3.76,5,4.15
		c0.17,0.298,0.34,0.596,0.511,0.894c0.186,0.326,0.372,0.652,0.557,0.977c0.141,0.248,0.283,0.495,0.424,0.744
		C6.533,6.838,6.534,6.81,6.491,6.886C6.25,7.307,6.009,7.728,5.768,8.149C5.627,8.396,5.485,8.644,5.343,8.891
		C5.11,9.298,4.877,9.705,4.644,10.112c-0.223,0.39-0.446,0.779-0.668,1.169c-0.088,0.154-0.176,0.308-0.265,0.462
		c-0.004,0.007-0.008,0.013-0.012,0.021c-0.006-0.006-0.012-0.008-0.015-0.013C2.72,10.076,1.756,8.4,0.792,6.723
		c0.961-1.62,1.92-3.239,2.88-4.857C3.674,1.862,3.681,1.859,3.689,1.853z"/>
	<path d="M31.987,7.518c0,0.149,0.001,0.298,0.001,0.448c0,0.111,0.001,0.223,0.001,0.334c-0.003,0.023-0.018,0.04-0.029,0.058
		c-0.277,0.467-0.554,0.933-0.831,1.4c-0.33,0.556-0.659,1.112-0.989,1.668c-0.098,0.165-0.195,0.33-0.292,0.493
		c-0.015,0.001-0.018-0.01-0.022-0.018c-0.109-0.191-0.218-0.381-0.327-0.572c-0.178-0.312-0.356-0.624-0.534-0.935
		c-0.187-0.327-0.374-0.655-0.561-0.982c-0.142-0.249-0.285-0.499-0.427-0.748c-0.214-0.376-0.429-0.752-0.643-1.128
		c-0.103-0.18-0.206-0.36-0.308-0.541c-0.006-0.01-0.011-0.021-0.018-0.031c-0.006-0.009-0.005-0.018,0-0.028
		c0.012-0.021,0.023-0.042,0.035-0.062c0.188-0.329,0.377-0.658,0.565-0.987c0.177-0.31,0.354-0.62,0.532-0.93
		c0.226-0.395,0.452-0.789,0.678-1.184c0.166-0.291,0.333-0.582,0.499-0.873c0.162-0.282,0.323-0.564,0.485-0.846
		c0.008-0.014,0.013-0.029,0.027-0.037c0.011-0.002,0.014,0.008,0.017,0.014c0.177,0.308,0.354,0.616,0.531,0.924
		c0.178,0.31,0.356,0.619,0.534,0.928c0.206,0.358,0.412,0.716,0.617,1.074c0.142,0.247,0.285,0.494,0.426,0.742
		c0.013,0.022,0.031,0.042,0.034,0.069c-0.001,0.034-0.001,0.067-0.001,0.101c0,0.211,0,0.421,0,0.632
		c0,0.021,0.005,0.044-0.007,0.064c-0.036-0.013-0.045-0.049-0.061-0.077c-0.166-0.289-0.333-0.578-0.499-0.867
		c-0.004-0.007-0.007-0.013-0.01-0.02c-0.002-0.004-0.004-0.008-0.006-0.012c-0.002-0.004-0.004-0.008-0.006-0.012
		c-0.002-0.004-0.004-0.008-0.005-0.011c-0.003-0.006-0.005-0.011-0.008-0.017c-0.002-0.003-0.004-0.007-0.006-0.011
		c-0.002-0.003-0.004-0.007-0.006-0.01c-0.003-0.003-0.005-0.006-0.007-0.01c-0.003-0.003-0.005-0.006-0.007-0.01
		c-0.002-0.003-0.004-0.007-0.006-0.01c-0.002-0.003-0.004-0.007-0.006-0.01c0,0-0.004-0.005-0.004-0.005
		c-0.003-0.003-0.005-0.006-0.007-0.009c-0.002-0.003-0.004-0.007-0.005-0.01c-0.002-0.005-0.005-0.01-0.008-0.015
		c-0.002-0.003-0.003-0.007-0.005-0.01c-0.002-0.003-0.003-0.007-0.005-0.01c-0.002-0.003-0.004-0.007-0.005-0.01
		c-0.002-0.005-0.005-0.01-0.008-0.015c-0.002-0.003-0.004-0.007-0.006-0.01c-0.002-0.004-0.004-0.007-0.007-0.011
		c-0.003-0.004-0.005-0.007-0.008-0.011c-0.003-0.004-0.006-0.008-0.009-0.012c-0.003-0.004-0.006-0.009-0.008-0.014
		c-0.173-0.3-0.346-0.601-0.52-0.902c-0.04-0.069-0.078-0.139-0.12-0.207c-0.194-0.343-0.392-0.685-0.59-1.026
		c-0.062-0.115-0.132-0.227-0.2-0.353c-0.191,0.33-0.375,0.652-0.558,0.975c-0.23,0.398-0.459,0.796-0.684,1.196
		c-0.269,0.464-0.534,0.931-0.801,1.397c-0.088,0.154-0.178,0.307-0.266,0.462c-0.026,0.046-0.025,0.081,0.001,0.127
		c0.258,0.455,0.521,0.907,0.777,1.363c0.091,0.162,0.182,0.324,0.277,0.483c0.225,0.401,0.457,0.798,0.683,1.198
		c0.186,0.324,0.369,0.651,0.557,0.974c0.029,0.05,0.032,0.05,0.06,0.003c0.045-0.077,0.091-0.154,0.138-0.23
		c0.002-0.005,0.005-0.01,0.008-0.015c0.004-0.007,0.008-0.015,0.013-0.022c0.19-0.321,0.382-0.641,0.57-0.963
		c0.215-0.359,0.427-0.72,0.641-1.08c0.002-0.005,0.005-0.009,0.008-0.014c0.003-0.004,0.006-0.008,0.009-0.012
		c0.001-0.002,0.003-0.004,0.004-0.005c0.004-0.005,0.008-0.011,0.012-0.016c0.002-0.004,0.004-0.008,0.006-0.011
		c0.002-0.004,0.004-0.007,0.006-0.011c0.002-0.004,0.004-0.007,0.006-0.011c0.002-0.003,0.005-0.007,0.007-0.01
		c0.001-0.002,0.002-0.003,0.004-0.005c0.002-0.003,0.004-0.007,0.006-0.01c0.002-0.004,0.004-0.007,0.006-0.01
		c0.003-0.005,0.006-0.01,0.008-0.015c0.001-0.004,0.003-0.007,0.006-0.01c0.002-0.003,0.004-0.006,0.007-0.009
		c0,0,0.004-0.004,0.004-0.004c0.003-0.005,0.006-0.01,0.009-0.015c0.001-0.004,0.003-0.007,0.005-0.01
		c0.002-0.004,0.003-0.007,0.005-0.01c0.001-0.004,0.003-0.007,0.005-0.01c0.003-0.005,0.005-0.011,0.008-0.016
		c0.002-0.004,0.004-0.007,0.006-0.011c0.002-0.004,0.005-0.007,0.007-0.01c0.001-0.002,0.002-0.004,0.004-0.005
		c0.002-0.004,0.004-0.008,0.006-0.012c0.002-0.004,0.004-0.009,0.006-0.013c0.003-0.007,0.007-0.014,0.011-0.021
		c0.173-0.294,0.348-0.585,0.521-0.879C31.951,7.54,31.958,7.516,31.987,7.518z"/>
	<path fill="#E4F12D" d="M31.361,5.492c0.004,0.002,0.005,0.005,0.004,0.009c0.002,0.006,0.007,0.01,0.009,0.015l0.001,0.001
		c0.008,0.005,0.006,0.016,0.013,0.022l0,0c0.007,0.006,0.005,0.018,0.013,0.023l0-0.001c0.003,0.004,0.006,0.008,0.009,0.013
		c0.003,0.002,0.005,0.004,0.004,0.008c0.001,0.006,0.006,0.011,0.009,0.016c0.037,0.05,0.064,0.106,0.095,0.159
		c0.155,0.268,0.309,0.536,0.463,0.804c0.003,0.01,0.006,0.019,0.01,0.029c-0.001,0.014-0.002,0.028-0.002,0.042
		c0,0.275,0,0.549,0,0.824c0,0.012,0.001,0.024,0.001,0.036c-0.001,0.008-0.002,0.016-0.002,0.024
		c-0.03,0.03-0.046,0.069-0.067,0.104c-0.159,0.266-0.316,0.533-0.474,0.799c-0.007,0.012-0.016,0.023-0.024,0.034
		c-0.003,0.004-0.006,0.009-0.008,0.014c0.001,0.004-0.001,0.008-0.005,0.01c-0.002,0.004-0.005,0.008-0.008,0.011L31.4,8.492
		c-0.005,0.004-0.01,0.009-0.01,0.016c0.001,0.004,0,0.006-0.004,0.008c-0.004,0.004-0.008,0.008-0.009,0.015
		c0,0.005-0.002,0.008-0.006,0.01c-0.002,0.004-0.004,0.008-0.008,0.011l0,0.001c-0.007,0.006-0.005,0.017-0.012,0.022l-0.001,0.002
		c-0.004,0.004-0.008,0.008-0.01,0.014c0.001,0.004-0.001,0.008-0.005,0.01c-0.002,0.004-0.005,0.009-0.008,0.013
		c-0.002,0.004-0.004,0.008-0.006,0.012c-0.001,0.004-0.003,0.007-0.007,0.009l-0.001,0.002c-0.004,0.005-0.008,0.009-0.009,0.015
		c0.001,0.004,0,0.007-0.004,0.009c-0.003,0.004-0.006,0.008-0.008,0.013l0,0c-0.009,0.004-0.006,0.016-0.014,0.022L31.28,8.695
		c-0.005,0.005-0.009,0.01-0.009,0.017c0.001,0.004-0.001,0.006-0.004,0.007c-0.03,0.01-0.033-0.014-0.037-0.032
		c-0.006-0.025-0.004-0.052-0.004-0.078c0-1.042,0-2.085,0-3.127c0-0.028-0.002-0.056,0.005-0.084
		c0.007-0.027,0.017-0.051,0.053-0.039l-0.001-0.001c0.001,0.006,0.006,0.01,0.01,0.015l0,0c0.007,0.006,0.005,0.017,0.013,0.023
		l0,0c0.006,0.007,0.004,0.019,0.013,0.024l-0.001-0.001c0.003,0.005,0.006,0.009,0.01,0.014c0.003,0.001,0.004,0.003,0.003,0.006
		c0,0.007,0.005,0.012,0.009,0.018l0.003,0.002l-0.001,0.004c0,0.008,0.005,0.014,0.012,0.018l0-0.001
		C31.356,5.484,31.359,5.488,31.361,5.492z"/>
	<path fill="#80FD61" d="M12.546,9.868c-0.045-0.068-0.092-0.135-0.136-0.204c-0.191-0.295-0.382-0.59-0.573-0.884
		c-0.329-0.508-0.658-1.015-0.987-1.523c-0.063-0.097-0.126-0.194-0.189-0.292c-0.004-0.007-0.008-0.014-0.013-0.02
		c-0.014-0.018-0.013-0.036,0-0.055c0.04-0.06,0.078-0.121,0.117-0.181c0.326-0.502,0.652-1.005,0.978-1.507
		C12,4.806,12.256,4.409,12.514,4.012c0.01-0.015,0.021-0.029,0.032-0.043c0.024,0.039,0.006,0.075-0.012,0.107
		c-0.03,0.056-0.041,0.115-0.041,0.179c0.001,0.544,0,1.087,0,1.631c0,0.03,0.001,0.06,0.005,0.09
		c0.016,0.035-0.005,0.062-0.022,0.088c-0.136,0.214-0.266,0.432-0.404,0.645c-0.058,0.091-0.109,0.186-0.171,0.275
		c-0.02,0.029-0.017,0.054,0.001,0.083c0.165,0.267,0.325,0.537,0.488,0.805c0.064,0.106,0.129,0.211,0.193,0.318
		c0.016,0.027,0.03,0.054,0.002,0.082c-0.026,0.033-0.019,0.073-0.019,0.11c-0.001,0.462,0,0.923-0.001,1.385
		C12.565,9.8,12.573,9.838,12.546,9.868z"/>
	<path fill="#EDF029" d="M21.467,4.725c0.004,0.002,0.005,0.004,0.004,0.008c0.001,0.007,0.006,0.011,0.01,0.016
		c0.044,0.054,0.079,0.115,0.117,0.173c0.348,0.535,0.695,1.071,1.043,1.607c0.074,0.114,0.148,0.227,0.221,0.342
		c0.037,0.059,0.037,0.039,0.002,0.093c-0.118,0.185-0.238,0.369-0.358,0.553c-0.317,0.489-0.634,0.978-0.952,1.467
		c-0.039,0.06-0.079,0.119-0.119,0.179c-0.038,0.001-0.045-0.028-0.051-0.055c-0.007-0.029-0.005-0.06-0.005-0.089
		c0-0.467,0.001-0.934-0.001-1.401c0-0.066,0.013-0.131,0.019-0.196c-0.004-0.032,0.011-0.058,0.027-0.084
		c0.056-0.092,0.11-0.185,0.168-0.276c0.027-0.042,0.028-0.076,0.002-0.121c-0.063-0.106-0.138-0.205-0.194-0.316
		c-0.002-0.005-0.004-0.009-0.006-0.014c-0.001-0.002-0.002-0.004-0.003-0.007c-0.002-0.004-0.005-0.008-0.007-0.012
		c-0.002-0.004-0.004-0.008-0.006-0.012c-0.002-0.004-0.004-0.008-0.006-0.011c-0.002-0.003-0.004-0.007-0.005-0.011
		c-0.002-0.005-0.005-0.011-0.008-0.015c-0.002-0.003-0.005-0.006-0.007-0.009c-0.003-0.003-0.005-0.006-0.007-0.009
		c-0.002-0.003-0.004-0.007-0.005-0.01c-0.002-0.003-0.003-0.007-0.005-0.01c-0.002-0.003-0.004-0.006-0.005-0.01
		c-0.002-0.003-0.004-0.007-0.005-0.01c-0.002-0.003-0.004-0.006-0.006-0.009c-0.003-0.003-0.005-0.006-0.007-0.009
		c-0.002-0.003-0.004-0.006-0.006-0.01c-0.002-0.003-0.004-0.006-0.006-0.01c-0.002-0.003-0.005-0.006-0.007-0.009
		c-0.003-0.003-0.005-0.006-0.007-0.01c-0.002-0.003-0.004-0.007-0.005-0.011c-0.002-0.003-0.004-0.007-0.006-0.011
		c-0.002-0.003-0.004-0.007-0.006-0.011c-0.002-0.004-0.004-0.007-0.007-0.011c-0.003-0.003-0.005-0.007-0.008-0.01
		c-0.003-0.004-0.005-0.007-0.008-0.011c-0.003-0.004-0.005-0.008-0.008-0.012c-0.003-0.004-0.007-0.009-0.01-0.013
		c-0.002-0.003-0.003-0.005-0.005-0.007c-0.003-0.006-0.005-0.011-0.007-0.018c-0.002-0.007-0.002-0.014-0.003-0.021
		c-0.006-0.194-0.002-0.387-0.003-0.581c-0.001-0.393,0-0.786,0-1.179c0-0.03-0.004-0.061,0.01-0.088
		c0.012-0.024,0.028-0.034,0.047-0.004c0.024,0.037,0.045,0.075,0.081,0.102l0,0c0.007,0.006,0.004,0.018,0.014,0.023l-0.001-0.001
		c0.002,0.006,0.007,0.009,0.01,0.014l0,0.001c0.007,0.006,0.005,0.018,0.014,0.023l-0.001-0.001
		C21.393,4.617,21.4,4.63,21.411,4.64L21.41,4.639c0.003,0.005,0.006,0.009,0.009,0.014c0.003,0.001,0.005,0.003,0.004,0.006
		c0.001,0.008,0.005,0.013,0.012,0.017l-0.001-0.001c0.003,0.004,0.006,0.009,0.009,0.013c0.004,0.001,0.005,0.004,0.004,0.008
		c0.001,0.007,0.006,0.012,0.011,0.016l0,0C21.461,4.716,21.464,4.72,21.467,4.725z"/>
	<path fill="#8CFB5A" d="M12.496,5.996c-0.013-0.007-0.022-0.018-0.022-0.033c-0.001-0.016,0-0.032,0-0.048c0-0.56,0-1.12,0-1.68
		c0-0.059,0.008-0.114,0.044-0.164c0.021-0.029,0.024-0.067,0.028-0.102c0.053-0.084,0.106-0.169,0.16-0.252
		c0.309-0.477,0.619-0.954,0.928-1.431c0.02-0.031,0.037-0.066,0.065-0.092c0.036-0.001,0.072-0.003,0.107-0.003
		c0.128,0,0.256,0,0.384,0c0.02,0,0.04,0.002,0.06,0.003c-0.005,0.034-0.034,0.035-0.058,0.04C14.101,2.253,14.1,2.252,14.1,2.346
		c0,0.411,0,0.822,0,1.233c0,0.038,0.004,0.076-0.013,0.112c-0.018,0.031-0.044,0.026-0.066,0.01
		c-0.041-0.028-0.064-0.012-0.086,0.025c-0.174,0.28-0.348,0.56-0.523,0.839c-0.273,0.437-0.545,0.875-0.819,1.311
		c-0.019,0.03-0.036,0.062-0.057,0.092C12.525,5.98,12.521,6.003,12.496,5.996z"/>
	<path fill="#DFF130" d="M21.349,4.545c-0.034-0.004-0.049-0.032-0.068-0.054c-0.012-0.015-0.02-0.034-0.03-0.051
		c-0.002-0.003-0.007-0.005-0.009-0.005c-0.003,0.001-0.007,0.005-0.008,0.008c-0.002,0.007-0.004,0.015-0.005,0.023
		c-0.001,0.016,0,0.032,0,0.048c0,0.577,0,1.154,0,1.731c0,0.026-0.001,0.052-0.002,0.078c-0.03-0.001-0.037-0.027-0.049-0.047
		c-0.188-0.294-0.37-0.593-0.555-0.889c-0.284-0.454-0.567-0.907-0.849-1.362c-0.017-0.027-0.035-0.054-0.038-0.087
		c-0.05-0.094-0.049-0.195-0.049-0.297c0.001-0.437,0-0.874,0.001-1.311c0-0.097,0.056-0.137,0.153-0.114
		c0.05,0.075,0.1,0.149,0.149,0.224c0.289,0.445,0.577,0.89,0.866,1.335c0.157,0.243,0.315,0.485,0.472,0.728
		C21.335,4.517,21.342,4.531,21.349,4.545z"/>
	<path fill="#A2F94F" d="M14.068,3.708c0.011-0.032,0.014-0.066,0.014-0.1c0-0.427,0-0.855,0-1.282c0-0.016,0-0.032,0-0.048
		c-0.001-0.035,0.013-0.045,0.044-0.055c0.015-0.005,0.031-0.004,0.047-0.004c0.029,0,0.055-0.006,0.078-0.025
		c0.018-0.001,0.036-0.003,0.054-0.003c0.52,0,1.04,0,1.56,0c0.018,0,0.036,0.002,0.053,0.003c-0.015,0.045-0.056,0.037-0.089,0.041
		c-0.091,0.011-0.097,0.015-0.096,0.107c0.002,0.341-0.005,0.682,0.004,1.022c0.014,0.037-0.016,0.05-0.038,0.065
		c-0.185,0.134-0.374,0.261-0.559,0.393c-0.119,0.085-0.241,0.165-0.358,0.252c-0.042,0.031-0.078,0.037-0.125,0.008
		c-0.183-0.114-0.371-0.221-0.554-0.335C14.085,3.738,14.068,3.729,14.068,3.708z"/>
	<path fill="#CBF43A" d="M19.841,2.218c-0.016,0-0.032,0.003-0.046,0.011c-0.016,0.009-0.033,0.013-0.051,0.015
		c-0.03,0.003-0.036,0.012-0.037,0.043c-0.001,0.012,0,0.024,0,0.036c0,0.483,0,0.966,0,1.449c0,0.035,0.004,0.066,0.022,0.098
		c0.015,0.028,0.028,0.057,0.025,0.091c-0.033-0.005-0.042-0.035-0.056-0.058c-0.038-0.063-0.081-0.124-0.119-0.187
		c-0.039-0.065-0.045-0.066-0.105-0.023c-0.151,0.105-0.3,0.212-0.451,0.318c-0.184,0.129-0.14,0.115-0.299-0.001
		c-0.119-0.087-0.236-0.179-0.354-0.268c-0.028-0.021-0.054-0.042-0.061-0.079c-0.014-0.034-0.013-0.071-0.013-0.106
		c0-0.403,0-0.805,0-1.208c0-0.112,0.028-0.14,0.141-0.142c0.044-0.001,0.087,0.001,0.13-0.012c0.02-0.001,0.04-0.003,0.06-0.003
		c0.379,0,0.758,0,1.137,0c0.016,0,0.032,0,0.048,0.001C19.828,2.192,19.837,2.203,19.841,2.218z"/>
	<path fill="#8DFB5A" d="M12.546,9.868c0-0.515,0-1.03,0-1.546c0-0.006,0-0.012,0-0.018c0.001-0.045,0.003-0.047,0.052-0.055
		c0.035,0.003,0.041,0.035,0.055,0.057c0.202,0.33,0.401,0.662,0.602,0.993c0.243,0.401,0.484,0.803,0.729,1.203
		c0.014,0.023,0.055,0.051,0.005,0.082c-0.045,0.003-0.033,0.039-0.033,0.063c-0.001,0.274-0.001,0.547-0.001,0.821
		c0,0.036,0,0.072,0,0.108c0,0.024,0,0.048-0.019,0.067c-0.072,0.001-0.144,0.001-0.215,0.003c-0.021,0-0.032-0.009-0.043-0.026
		c-0.049-0.077-0.1-0.154-0.15-0.231c-0.234-0.361-0.468-0.723-0.703-1.084c-0.086-0.132-0.172-0.264-0.257-0.396
		C12.56,9.897,12.554,9.882,12.546,9.868z"/>
	<path fill="#9EF951" d="M13.937,11.644c0-0.337,0-0.673,0-1.01c0-0.014,0-0.028,0-0.042c0-0.016-0.003-0.035,0.014-0.042
		c0.015-0.005,0.022,0.014,0.034,0.02c0.007,0.004,0.015,0.005,0.022,0.008c0.002,0.002,0.004,0.003,0.006,0.005
		c0.01,0.015,0.008,0.036,0.024,0.048c0.003,0.003,0.007,0.007,0.01,0.01c0.003,0.003,0.006,0.006,0.009,0.009
		c0.001,0.001,0.003,0.003,0.004,0.004c0.003,0.002,0.006,0.005,0.009,0.007c0,0,0.005,0.001,0.005,0
		c0.006-0.003,0.008-0.009,0.012-0.014c0.188-0.297,0.381-0.589,0.577-0.881c0.031-0.046,0.046-0.048,0.099-0.012
		c0.145,0.099,0.288,0.2,0.432,0.301c0.055,0.039,0.112,0.076,0.166,0.117c0.02,0.016,0.046,0.032,0.014,0.061
		c-0.052,0.013-0.052,0.053-0.052,0.094c0,0.406,0,0.811,0,1.217c0,0.033,0.006,0.069-0.019,0.097
		c-0.016,0.001-0.032,0.002-0.048,0.002c-0.424,0-0.848,0-1.272,0C13.968,11.646,13.952,11.645,13.937,11.644z"/>
	<path fill="#E2F12E" d="M21.409,7.398c0.015,0.033,0.004,0.067-0.003,0.099c-0.005,0.024-0.009,0.047-0.009,0.071
		c0,0.5,0,1.001,0,1.501c0,0.037,0,0.072,0.037,0.094c-0.046,0.072-0.09,0.145-0.137,0.217c-0.282,0.436-0.565,0.871-0.847,1.306
		c-0.011,0.017-0.023,0.032-0.035,0.048c-0.033,0.012-0.037-0.015-0.043-0.034c-0.012-0.034-0.013-0.071-0.013-0.107
		c0-0.43,0-0.859,0-1.289c0-0.082,0.016-0.163,0.036-0.242c0.014-0.062,0.05-0.112,0.082-0.165c0.274-0.45,0.547-0.9,0.818-1.352
		c0.023-0.038,0.048-0.074,0.07-0.112C21.375,7.418,21.384,7.397,21.409,7.398z"/>
	<path fill="#CCF43A" d="M19.418,11.644c-0.014,0.001-0.028,0.003-0.042,0.003c-0.324,0-0.648,0-0.972,0
		c-0.014,0-0.028-0.002-0.042-0.002c-0.021-0.023-0.019-0.052-0.019-0.079c0-0.433,0-0.865,0-1.298c0-0.057,0.013-0.11,0.037-0.161
		c0.005-0.033,0.028-0.051,0.052-0.07c0.12-0.096,0.246-0.185,0.367-0.28c0.049-0.038,0.068-0.034,0.104,0.024
		c0.161,0.262,0.324,0.523,0.483,0.786c0.021,0.036,0.058,0.062,0.067,0.105c-0.014,0.059-0.015,0.118-0.015,0.178
		c0.001,0.235,0,0.47,0,0.705C19.437,11.585,19.442,11.618,19.418,11.644z"/>
	<path fill="#ACF84A" d="M15.304,11.644c0-0.448,0-0.895,0-1.343c0-0.018,0-0.036,0.001-0.054c0.002-0.018,0.014-0.029,0.033-0.023
		c0.02,0.007,0.035,0.001,0.051-0.008c0.002,0,0.004,0,0.006,0c0.004,0.001,0.008,0.002,0.012,0.004
		c0.004,0.002,0.007,0.004,0.01,0.006c0.003,0.002,0.006,0.005,0.009,0.008c0.002,0.001,0.003,0.002,0.005,0.003
		c0.004,0.002,0.007,0.004,0.01,0.006c0.004,0.002,0.007,0.004,0.01,0.006c0.003,0.002,0.007,0.005,0.01,0.007
		c0.002,0.001,0.003,0.002,0.005,0.004c0.004,0.002,0.007,0.004,0.011,0.006c0.004,0.002,0.007,0.004,0.011,0.007
		c0.004,0.002,0.007,0.005,0.01,0.008c0.002,0.001,0.003,0.003,0.005,0.004c0.003,0.003,0.007,0.006,0.01,0.008
		c0.002,0.001,0.004,0.002,0.006,0.003c0.009,0.004,0.018,0.007,0.027,0.011c0.204,0.132,0.4,0.277,0.6,0.416
		c0.218,0.152,0.436,0.302,0.652,0.457c0.039,0.028,0.075,0.044,0.117,0.006c0.014-0.013,0.04-0.028,0.051,0.008
		c-0.059,0.114-0.033,0.237-0.039,0.357c-0.001,0.031,0.006,0.064-0.018,0.091c-0.016,0.001-0.032,0.002-0.048,0.002
		c-0.504,0-1.008,0-1.512,0C15.336,11.646,15.32,11.645,15.304,11.644z"/>
	<path fill="#D7F234" d="M19.418,11.644c0-0.291,0-0.581,0-0.872c0-0.033-0.005-0.068,0.02-0.097
		c0.005-0.006,0.002-0.019,0.002-0.029c-0.014-0.025,0.005-0.042,0.016-0.06c0.254-0.427,0.513-0.85,0.771-1.274
		c0.046-0.075,0.09-0.151,0.136-0.225c0.012-0.019,0.02-0.045,0.049-0.047c0.005,0.023-0.008,0.043-0.012,0.064
		c-0.018,0.094-0.025,0.189-0.024,0.285c0.002,0.404,0.001,0.807,0,1.211c0,0.041,0.009,0.079,0.015,0.118
		c0.002,0.011,0.013,0.014,0.023,0.016c-0.008,0.025-0.025,0.045-0.039,0.066c-0.173,0.267-0.346,0.534-0.519,0.801
		c-0.002,0.003-0.004,0.007-0.006,0.01c-0.013,0.026-0.032,0.037-0.062,0.035c-0.048-0.002-0.096,0-0.143-0.001
		C19.569,11.646,19.494,11.645,19.418,11.644z"/>
	<path fill="#C1F53F" d="M16.911,11.644c0-0.107,0.001-0.214,0-0.321c-0.001-0.04,0.005-0.075,0.035-0.103
		c0.013-0.012,0.014-0.028,0.012-0.044c0-0.003,0.001-0.006,0.001-0.009c0.002-0.005,0.005-0.011,0.008-0.015
		c0.065-0.06,0.137-0.109,0.207-0.162c0.383-0.289,0.762-0.582,1.146-0.869c0.023-0.017,0.043-0.044,0.078-0.037
		c0,0.016,0.004,0.033-0.006,0.047c-0.027,0.042-0.03,0.089-0.03,0.137c0,0.447,0,0.893,0,1.34c0,0.012,0,0.024,0,0.036
		c-0.016,0.001-0.032,0.002-0.048,0.002c-0.452,0-0.904,0-1.356,0C16.943,11.647,16.927,11.645,16.911,11.644z"/>
	<path fill="#C0F53F" d="M18.567,2.194c-0.031,0.019-0.066,0.026-0.102,0.024c-0.037-0.003-0.072,0.006-0.105,0.016
		c-0.038,0.012-0.046,0.024-0.045,0.06c0.001,0.014,0,0.028,0,0.042c0,0.357,0,0.713,0,1.07c0,0.093-0.006,0.187,0.01,0.279
		c-0.026,0.01-0.041-0.009-0.058-0.022c-0.378-0.287-0.757-0.574-1.134-0.863c-0.021-0.016-0.041-0.033-0.044-0.061
		c-0.007-0.147-0.003-0.294-0.002-0.441c0.001-0.064,0.018-0.079,0.081-0.086c0.051-0.006,0.102-0.005,0.152-0.018
		c0.016-0.001,0.032-0.003,0.047-0.003c0.384,0,0.768,0,1.152,0C18.535,2.191,18.551,2.193,18.567,2.194z"/>
	<path fill="#B0F748" d="M17.32,2.194c-0.024,0.02-0.056,0.016-0.084,0.023c-0.032,0.008-0.065,0.017-0.1,0.015
		c-0.019-0.001-0.029,0.012-0.031,0.03c-0.002,0.016-0.001,0.032-0.001,0.048c0,0.149,0,0.299,0,0.448
		c-0.028,0.009-0.044-0.013-0.063-0.026c-0.039-0.028-0.079-0.055-0.114-0.087c-0.037-0.033-0.067-0.029-0.105-0.002
		C16.599,2.8,16.376,2.954,16.154,3.11c-0.038,0.026-0.074,0.054-0.115,0.075c-0.004,0.003-0.009,0.005-0.013,0.008
		c-0.002,0.001-0.004,0.003-0.006,0.004c-0.004,0.003-0.008,0.005-0.012,0.008C16.004,3.208,16,3.21,15.996,3.212
		c-0.004,0.002-0.008,0.005-0.011,0.007c-0.002,0.001-0.004,0.003-0.005,0.004c-0.003,0.003-0.007,0.006-0.01,0.008
		c-0.007,0.006-0.014,0.01-0.022,0.015c-0.005,0.003-0.011,0.007-0.016,0.011c-0.007,0.005-0.014,0.01-0.021,0.014
		c-0.005,0.003-0.011,0.007-0.016,0.011c-0.007,0.005-0.014,0.01-0.021,0.014c-0.003,0.003-0.007,0.005-0.01,0.007
		c-0.002,0.001-0.003,0.003-0.005,0.004c-0.003,0.003-0.007,0.005-0.01,0.008c-0.004,0.002-0.007,0.004-0.011,0.006
		c-0.003,0.002-0.007,0.005-0.011,0.007c-0.002,0.001-0.003,0.003-0.005,0.004c-0.003,0.003-0.006,0.006-0.01,0.008
		c-0.007,0.005-0.014,0.01-0.021,0.015c-0.003,0.002-0.007,0.005-0.01,0.007c-0.002,0.001-0.003,0.003-0.005,0.004
		c-0.003,0.003-0.007,0.005-0.01,0.007c-0.004,0.002-0.007,0.004-0.011,0.006c-0.004,0.002-0.008,0.002-0.012,0.003
		c-0.002,0-0.004,0-0.006,0c-0.01-0.002-0.02-0.006-0.021-0.018c-0.002-0.016-0.001-0.032-0.001-0.048c0-0.336,0-0.671,0-1.007
		c0-0.002,0-0.004,0-0.006c0-0.068,0.014-0.084,0.084-0.084c0.036,0,0.071-0.007,0.106-0.015c0.005-0.001,0.009-0.007,0.014-0.01
		c0.014-0.001,0.028-0.003,0.042-0.003c0.44,0,0.88,0,1.32,0C17.292,2.191,17.306,2.193,17.32,2.194z"/>
	<path fill="#DFF130" d="M21.411,4.64c-0.018-0.006-0.026-0.018-0.024-0.037C21.398,4.613,21.409,4.624,21.411,4.64z"/>
	<path fill="#DFF130" d="M21.363,4.568c-0.011-0.004-0.014-0.013-0.014-0.023C21.359,4.55,21.363,4.558,21.363,4.568z"/>
	<path fill="#DFF130" d="M21.387,4.604c-0.011-0.004-0.014-0.012-0.014-0.023C21.383,4.586,21.387,4.594,21.387,4.604z"/>
	<path fill="#DFF130" d="M21.373,4.581c-0.003-0.005-0.007-0.009-0.01-0.014C21.369,4.569,21.372,4.574,21.373,4.581z"/>
	<path fill="#DFF130" d="M21.419,4.653c-0.003-0.005-0.006-0.009-0.009-0.014C21.417,4.642,21.419,4.646,21.419,4.653z"/>
	<path fill="#DFF130" d="M21.435,4.677c-0.007-0.003-0.011-0.009-0.012-0.017C21.43,4.663,21.434,4.668,21.435,4.677z"/>
	<path fill="#DFF130" d="M21.443,4.689c-0.003-0.004-0.006-0.009-0.009-0.013C21.441,4.678,21.443,4.682,21.443,4.689z"/>
	<path fill="#DFF130" d="M21.458,4.713c-0.007-0.003-0.011-0.009-0.011-0.016C21.454,4.7,21.458,4.705,21.458,4.713z"/>
	<path fill="#DFF130" d="M21.467,4.725c-0.003-0.004-0.006-0.008-0.009-0.013C21.464,4.714,21.467,4.718,21.467,4.725z"/>
	<path fill="#DFF130" d="M21.481,4.749c-0.006-0.003-0.01-0.009-0.01-0.016C21.477,4.736,21.48,4.742,21.481,4.749z"/>
	<path fill="#666666" d="M23.412,3.982c0.009,0.008,0.019,0.015,0.028,0.023c0.131,0.126,0.262,0.252,0.394,0.378
		c0.199,0.191,0.398,0.381,0.597,0.572c0.087,0.083,0.173,0.166,0.26,0.249c0.193,0.185,0.387,0.37,0.58,0.555
		c0.126,0.12,0.252,0.24,0.378,0.359c0.009,0.008,0.018,0.016,0.026,0.025c0.021,0.023,0.022,0.029,0.007,0.058
		c-0.074,0.142-0.148,0.283-0.222,0.425c-0.054,0.104-0.108,0.209-0.163,0.313c-0.015,0.028-0.014,0.049,0.002,0.077
		c0.065,0.115,0.126,0.231,0.189,0.347c0.099,0.182,0.198,0.365,0.297,0.547c0.129,0.237,0.257,0.474,0.386,0.711
		c0.114,0.21,0.229,0.421,0.343,0.631c0.07,0.13,0.14,0.26,0.211,0.39c0.043,0.079,0.086,0.158,0.129,0.237
		c0.005,0.008,0.012,0.016,0.009,0.028c-0.012,0.005-0.017-0.007-0.022-0.012c-0.143-0.137-0.285-0.274-0.428-0.411
		c-0.198-0.189-0.395-0.379-0.593-0.568c-0.058-0.055-0.116-0.11-0.174-0.165c-0.124-0.119-0.248-0.238-0.372-0.357
		c-0.18-0.173-0.361-0.345-0.541-0.518c-0.065-0.062-0.13-0.124-0.195-0.186c-0.01-0.01-0.02-0.02-0.03-0.029
		C24.494,7.65,24.491,7.639,24.5,7.624c0.024-0.046,0.047-0.092,0.071-0.138c0.052-0.099,0.104-0.198,0.156-0.297
		c0.052-0.101,0.103-0.203,0.156-0.303c0.014-0.026,0.013-0.046-0.001-0.072c-0.112-0.212-0.223-0.424-0.334-0.637
		c-0.044-0.085-0.088-0.17-0.132-0.255c-0.128-0.244-0.256-0.488-0.383-0.732c-0.123-0.235-0.246-0.47-0.369-0.705
		c-0.079-0.15-0.156-0.301-0.234-0.452C23.422,4.015,23.412,4,23.412,3.982C23.413,3.981,23.412,3.982,23.412,3.982z"/>
	<path fill="#666666" d="M23.861,11.708c-0.462,0-0.923,0-1.385,0c-0.08,0-0.074,0.002-0.041-0.062
		c0.127-0.246,0.255-0.493,0.383-0.739c0.107-0.207,0.215-0.415,0.322-0.622c0.069-0.133,0.139-0.265,0.208-0.398
		c0.005-0.009,0.009-0.018,0.014-0.026c0.01-0.017,0.016-0.018,0.033-0.005c0.011,0.009,0.021,0.018,0.032,0.028
		c0.168,0.162,0.337,0.324,0.505,0.486c0.19,0.183,0.381,0.365,0.571,0.547c0.097,0.093,0.193,0.185,0.29,0.278
		c0.16,0.153,0.321,0.306,0.481,0.46c0.014,0.013,0.032,0.024,0.038,0.044c-0.018,0.02-0.041,0.009-0.061,0.009
		C24.788,11.708,24.325,11.708,23.861,11.708z"/>
	<path fill="#DBF232" d="M25.633,2.746c0.031,0.028,0.063,0.055,0.093,0.084c0.368,0.352,0.736,0.704,1.104,1.056
		c0.007,0.007,0.014,0.014,0.022,0.021c0.013,0.011,0.014,0.021,0.006,0.036c-0.046,0.086-0.09,0.173-0.135,0.26
		c-0.143,0.274-0.286,0.548-0.429,0.822c-0.129,0.248-0.258,0.495-0.386,0.743c-0.005,0.009-0.009,0.018-0.018,0.023
		c-0.016-0.005-0.026-0.018-0.037-0.029c-0.081-0.077-0.162-0.155-0.242-0.232c-0.006-0.005-0.01-0.012-0.016-0.018
		c-0.005,0-0.007-0.002-0.007-0.007l-0.003,0l0-0.003c-0.005-0.001-0.008-0.004-0.009-0.009l-0.003-0.003
		c-0.004-0.002-0.008-0.005-0.009-0.009l-0.003-0.003c-0.004-0.002-0.007-0.005-0.009-0.009l-0.002-0.002
		c-0.019-0.026-0.02-0.056-0.02-0.086c0-0.856,0-1.711,0.001-2.567c0-0.045-0.012-0.1,0.055-0.115l0,0
		c0.004,0.004,0.008,0.008,0.012,0.012l0,0c0.004,0.005,0.008,0.009,0.012,0.012l0,0c0.003,0.005,0.008,0.009,0.013,0.012l-0.001,0
		C25.623,2.738,25.628,2.742,25.633,2.746z"/>
	<path fill="#A5F84D" d="M24.816,8.515c0.05,0.046,0.1,0.091,0.149,0.137c0.232,0.222,0.464,0.444,0.696,0.666
		c0.016,0.015,0.03,0.032,0.045,0.047c-0.006,0.048-0.007,0.095-0.007,0.143c0,0.622,0,1.245,0,1.867
		c0,0.037,0.009,0.077-0.019,0.109c-0.032-0.03-0.065-0.059-0.097-0.089c-0.257-0.246-0.514-0.491-0.77-0.737
		c-0.011-0.011-0.021-0.023-0.032-0.035c-0.019-0.026-0.02-0.056-0.02-0.086c0-0.636-0.001-1.272,0.001-1.908
		C24.761,8.585,24.749,8.529,24.816,8.515z"/>
	<path fill="#8CFB5A" d="M24.816,8.515c-0.025,0.011-0.031,0.035-0.036,0.058c-0.002,0.01-0.001,0.02-0.001,0.03
		c0,0.673,0,1.347,0,2.02c-0.012-0.01-0.025-0.02-0.036-0.03c-0.385-0.368-0.77-0.737-1.155-1.106
		c-0.035-0.033-0.04-0.028-0.013-0.079c0.145-0.277,0.289-0.555,0.433-0.833c0.087-0.168,0.174-0.337,0.261-0.505
		c0.007-0.014,0.016-0.028,0.024-0.041c0.004-0.006,0.01-0.006,0.016-0.003c0.005,0.003,0.01,0.007,0.014,0.011
		c0.162,0.154,0.323,0.309,0.485,0.464C24.811,8.504,24.813,8.51,24.816,8.515z"/>
	<path fill="#646565" d="M25.493,2.039c0.025,0,0.045,0,0.065,0c0.737,0,1.475,0,2.212,0c0.018,0,0.036,0,0.054,0.001
		c0.009,0.001,0.014,0.008,0.011,0.017c-0.005,0.013-0.01,0.026-0.016,0.039c-0.088,0.17-0.176,0.34-0.265,0.51
		c-0.06,0.115-0.121,0.229-0.181,0.344c-0.094,0.181-0.187,0.362-0.28,0.543c-0.01,0.019-0.018,0.04-0.04,0.054
		c-0.045-0.043-0.089-0.087-0.134-0.129c-0.198-0.189-0.395-0.379-0.593-0.568c-0.176-0.169-0.352-0.337-0.529-0.505
		c-0.09-0.086-0.179-0.171-0.268-0.257C25.516,2.075,25.499,2.066,25.493,2.039z"/>
	<path fill="#C4F53E" d="M25.583,2.698c-0.025,0.014-0.034,0.038-0.036,0.065c-0.001,0.01,0,0.02,0,0.03c0,0.881,0,1.762,0,2.643
		c0,0.01,0,0.02,0,0.03c-0.011-0.009-0.022-0.017-0.032-0.026c-0.195-0.187-0.391-0.374-0.586-0.561
		c-0.007-0.007-0.013-0.015-0.019-0.023c-0.01-0.016-0.009-0.034-0.009-0.052c0.004-0.849,0.001-1.699,0.002-2.548
		c0-0.03-0.002-0.06,0.002-0.09c0.007-0.053,0.022-0.061,0.076-0.044c0.006,0.005,0.014,0.008,0.019,0.014
		c0.186,0.178,0.373,0.356,0.559,0.535C25.569,2.679,25.576,2.689,25.583,2.698z"/>
	<path fill="#C0F53F" d="M25.679,11.485c0-0.676,0-1.353,0-2.029c0-0.018,0-0.036,0-0.054c0-0.018,0.01-0.03,0.026-0.036
		c0.029,0.027,0.06,0.053,0.088,0.08c0.282,0.27,0.565,0.54,0.847,0.81c0.007,0.007,0.013,0.015,0.019,0.023
		c-0.053,0.005-0.064,0.035-0.063,0.085c0.002,0.409,0.001,0.818,0.001,1.227c0,0.035,0.007,0.073-0.02,0.103
		c-0.016,0.001-0.032,0.003-0.047,0.003c-0.195,0-0.39-0.001-0.584,0c-0.034,0-0.06-0.009-0.084-0.033
		C25.802,11.603,25.74,11.545,25.679,11.485z"/>
	<path fill="#AAF84B" d="M24.456,4.422c-0.012-0.01-0.025-0.02-0.036-0.03c-0.165-0.158-0.331-0.316-0.496-0.474
		c-0.011-0.011-0.021-0.023-0.032-0.035c-0.02-0.026-0.02-0.056-0.02-0.086c0-0.555,0-1.11,0-1.666c0-0.028-0.003-0.056,0.016-0.081
		c0.057-0.013,0.114-0.006,0.171-0.005c0.136,0.001,0.273-0.006,0.41,0.004c0.02,0.023,0.018,0.052,0.018,0.08
		c0,0.734,0.001,1.469,0,2.203C24.487,4.364,24.494,4.401,24.456,4.422z"/>
	<path fill="#B8F644" d="M24.456,4.422c0.007-0.012,0.012-0.025,0.011-0.04c-0.001-0.016,0-0.032,0-0.048c0-0.761,0-1.522,0-2.283
		c0.076-0.014,0.153-0.005,0.229-0.006c0.069-0.001,0.138-0.005,0.207,0.003c0.031,0.02,0.056,0.046,0.078,0.074
		c-0.004,0-0.008,0-0.012,0c-0.046,0.002-0.046,0.002-0.047,0.048c0,0.014,0,0.028,0,0.042c0,0.848,0,1.696,0,2.545
		c0,0.034,0,0.068-0.013,0.1c-0.006-0.004-0.014-0.008-0.019-0.014c-0.134-0.128-0.268-0.256-0.401-0.384
		c-0.009-0.008-0.016-0.018-0.024-0.027c-0.005,0-0.007-0.003-0.008-0.008L24.456,4.422z"/>
	<path fill="#D9F233" d="M26.578,11.694c0-0.024,0.001-0.048,0.001-0.072c0-0.429,0-0.858,0-1.287c0-0.018,0-0.036,0-0.054
		c0.001-0.021,0.013-0.029,0.031-0.022c0.017,0.006,0.033,0.013,0.05,0.02c0.012,0.01,0.025,0.02,0.036,0.03
		c0.257,0.245,0.513,0.491,0.77,0.736c0.029,0.028,0.052,0.059,0.072,0.095c0.094,0.176,0.19,0.35,0.285,0.525
		c0.004,0.007,0.005,0.014,0.008,0.02c-0.006,0.014-0.017,0.012-0.026,0.012c-0.036,0-0.072,0-0.108,0c-0.351,0-0.703,0-1.054-0.001
		C26.621,11.697,26.6,11.695,26.578,11.694z"/>
	<path fill="#98FA54" d="M23.892,2.051c0,0.61,0,1.221,0,1.831c-0.014-0.012-0.028-0.022-0.041-0.035
		c-0.181-0.173-0.363-0.347-0.544-0.521c-0.01-0.01-0.018-0.021-0.027-0.031c-0.01-0.014-0.011-0.029-0.011-0.046
		c0.007-0.365,0.001-0.73,0.003-1.096c0.001-0.11,0-0.11,0.112-0.11c0.15,0,0.299,0,0.449,0C23.854,2.045,23.874,2.039,23.892,2.051
		z"/>
	<path fill="#87FC5D" d="M23.892,2.051c-0.183,0-0.367,0-0.55-0.001c-0.01,0-0.02,0-0.03,0.002c-0.011,0.001-0.018,0.009-0.019,0.02
		c-0.001,0.018-0.001,0.036-0.001,0.054c0,0.333,0,0.666,0,0.999c0,0.057,0.004,0.115-0.012,0.172
		c-0.009-0.007-0.019-0.014-0.028-0.022c-0.133-0.127-0.265-0.254-0.399-0.381c-0.027-0.025-0.047-0.053-0.064-0.085
		c-0.126-0.242-0.253-0.485-0.379-0.727c-0.005-0.01-0.009-0.021-0.013-0.031c0.01-0.015,0.023-0.009,0.033-0.01
		c0.01-0.001,0.02,0,0.03,0c0.514,0,1.027,0,1.541,0c0.28,0,0.559,0,0.839,0c0.021,0,0.044-0.008,0.063,0.009
		c-0.104,0.001-0.207,0.001-0.311,0.002c-0.042,0-0.084,0.001-0.125,0.001C24.276,2.051,24.084,2.051,23.892,2.051z"/>
	<path fill="#666666" d="M23.413,3.981c-0.002-0.001-0.005-0.001-0.005-0.002C23.408,3.976,23.41,3.977,23.413,3.981
		C23.412,3.982,23.413,3.981,23.413,3.981z"/>
	<path fill="#AAF84B" d="M24.459,4.425c0.003,0.002,0.006,0.004,0.008,0.008C24.462,4.432,24.459,4.43,24.459,4.425z"/>
	<path fill="#C4F53E" d="M25.55,5.468c0.003,0.003,0.006,0.006,0.009,0.009C25.553,5.477,25.55,5.474,25.55,5.468z"/>
	<path fill="#C4F53E" d="M25.596,2.71c-0.004-0.004-0.008-0.008-0.012-0.012C25.59,2.699,25.594,2.703,25.596,2.71z"/>
	<path fill="#C4F53E" d="M25.608,2.722C25.604,2.718,25.6,2.714,25.595,2.71C25.603,2.711,25.607,2.715,25.608,2.722z"/>
	<path fill="#C4F53E" d="M25.62,2.734c-0.006-0.002-0.011-0.006-0.013-0.012C25.615,2.723,25.619,2.727,25.62,2.734z"/>
	<path fill="#C4F53E" d="M25.633,2.746c-0.007-0.002-0.011-0.006-0.013-0.012C25.627,2.734,25.631,2.738,25.633,2.746z"/>
	<path fill="#C4F53E" d="M25.587,5.504c0.003,0.001,0.006,0.004,0.007,0.007C25.589,5.511,25.587,5.509,25.587,5.504z"/>
	<path fill="#C4F53E" d="M25.575,5.492c0.003,0.003,0.006,0.006,0.009,0.009C25.578,5.501,25.575,5.498,25.575,5.492z"/>
	<path fill="#C4F53E" d="M25.562,5.48c0.003,0.003,0.006,0.006,0.009,0.009C25.565,5.489,25.562,5.486,25.562,5.48z"/>
	<path fill="#666666" d="M6.676,3.873C6.7,3.894,6.721,3.912,6.741,3.931C6.897,4.081,7.052,4.231,7.208,4.38
		c0.189,0.181,0.378,0.362,0.567,0.543C7.96,5.1,8.145,5.277,8.33,5.454c0.193,0.185,0.387,0.37,0.58,0.555
		c0.033,0.032,0.068,0.062,0.1,0.094C9.036,6.128,9.037,6.131,9.021,6.16c-0.083,0.161-0.167,0.323-0.25,0.484
		c-0.043,0.083-0.085,0.167-0.13,0.25C8.628,6.918,8.631,6.937,8.643,6.96c0.05,0.095,0.1,0.191,0.15,0.287
		c0.151,0.288,0.301,0.577,0.452,0.865c0.1,0.191,0.2,0.382,0.299,0.573c0.104,0.2,0.208,0.4,0.313,0.6
		c0.087,0.166,0.174,0.332,0.261,0.499c0.001,0.001-0.001,0.003-0.002,0.006c-0.015-0.001-0.022-0.014-0.031-0.023
		c-0.1-0.095-0.199-0.19-0.299-0.286c-0.203-0.195-0.407-0.39-0.61-0.585c-0.18-0.173-0.361-0.345-0.542-0.518
		C8.442,8.195,8.25,8.011,8.058,7.827c-0.065-0.062-0.13-0.124-0.195-0.186C7.828,7.608,7.828,7.607,7.85,7.566
		c0.087-0.169,0.174-0.337,0.261-0.506c0.038-0.073,0.075-0.145,0.115-0.217c0.017-0.031,0.018-0.058,0-0.09
		C8.147,6.613,8.07,6.471,7.993,6.328C7.936,6.223,7.879,6.118,7.822,6.012c-0.09-0.165-0.179-0.33-0.269-0.494
		C7.481,5.385,7.409,5.251,7.337,5.117C7.21,4.884,7.083,4.651,6.956,4.418C6.887,4.292,6.82,4.165,6.751,4.039
		C6.728,3.995,6.703,3.951,6.68,3.907C6.675,3.899,6.668,3.891,6.676,3.873z"/>
	<path fill="#666666" d="M10.149,3.936c-0.014-0.013-0.024-0.02-0.032-0.028C9.973,3.769,9.829,3.63,9.684,3.492
		C9.494,3.31,9.304,3.127,9.113,2.945c-0.055-0.052-0.11-0.104-0.165-0.157C8.817,2.663,8.686,2.536,8.555,2.411
		C8.448,2.309,8.34,2.208,8.233,2.106C8.225,2.098,8.217,2.088,8.21,2.079c-0.004-0.005,0-0.012,0.006-0.013
		c0.006-0.002,0.012-0.002,0.018-0.002c0.016,0,0.032,0,0.048,0c0.917,0,1.834,0,2.751,0.001c0.027,0,0.055-0.009,0.08,0.008
		c0,0.028-0.018,0.048-0.03,0.07c-0.128,0.248-0.256,0.496-0.385,0.744c-0.1,0.193-0.2,0.386-0.301,0.579
		c-0.074,0.143-0.149,0.287-0.223,0.43C10.169,3.908,10.16,3.919,10.149,3.936z"/>
	<path fill="#A6F84D" d="M8.899,11.73c-0.085,0.007-0.171,0.001-0.256,0.003c-0.021,0-0.032-0.013-0.045-0.025
		c-0.08-0.077-0.161-0.154-0.241-0.231c-0.075-0.071-0.149-0.143-0.224-0.215c-0.013-0.012-0.024-0.026-0.036-0.039
		c-0.004-0.002-0.008-0.006-0.01-0.01l-0.001-0.001c-0.009-0.023-0.008-0.047-0.008-0.071c0-0.851,0-1.702,0-2.553
		c0-0.028-0.002-0.056,0.005-0.084c0.008-0.033,0.024-0.056,0.063-0.038C8.197,8.516,8.25,8.564,8.302,8.613
		C8.507,8.808,8.711,9.004,8.915,9.2C8.927,9.211,8.941,9.22,8.947,9.235c-0.026,0.043-0.028,0.09-0.028,0.138
		c0.001,0.749,0,1.498,0,2.247C8.919,11.658,8.926,11.697,8.899,11.73z"/>
	<path fill="#C1F53F" d="M8.899,11.73c0-0.026,0.001-0.052,0.001-0.078c0-0.771,0-1.542,0-2.313c0-0.012,0-0.024,0-0.036
		c0-0.047,0-0.047,0.047-0.068c0.011,0.009,0.022,0.017,0.032,0.026c0.263,0.251,0.525,0.502,0.788,0.754
		c0.011,0.011,0.026,0.019,0.032,0.035c-0.039,0.036-0.04,0.084-0.04,0.132c0,0.481,0,0.963,0,1.444c0,0.035,0.006,0.073-0.02,0.103
		c-0.014,0.001-0.028,0.003-0.041,0.003c-0.252,0-0.505,0-0.757,0C8.926,11.733,8.912,11.731,8.899,11.73z"/>
	<path fill="#666666" d="M8.028,11.723c-0.003,0.008-0.009,0.008-0.015,0.008c-0.773,0-1.546,0-2.317,0
		c-0.008-0.017,0.001-0.027,0.006-0.037c0.092-0.177,0.184-0.354,0.276-0.531c0.048-0.092,0.095-0.185,0.143-0.277
		c0.103-0.198,0.204-0.398,0.31-0.595c0.038-0.072,0.026-0.083,0.094-0.017c0.162,0.157,0.325,0.313,0.488,0.47
		c0.091,0.087,0.182,0.174,0.273,0.261c0.186,0.178,0.372,0.356,0.559,0.534c0.053,0.051,0.107,0.102,0.161,0.153
		C8.014,11.701,8.028,11.708,8.028,11.723z"/>
	<path fill="#94FA56" d="M8.144,8.467c-0.043,0.007-0.047,0.01-0.048,0.045c-0.001,0.016,0,0.032,0,0.048c0,0.857,0,1.714,0,2.571
		c0,0.028,0.005,0.056-0.011,0.082c-0.009-0.007-0.019-0.014-0.028-0.022c-0.178-0.17-0.356-0.34-0.533-0.51
		c-0.01-0.009-0.018-0.021-0.027-0.031c-0.018-0.026-0.019-0.056-0.019-0.086c0-0.721,0-1.443,0-2.164c0-0.05,0.01-0.099,0.02-0.147
		c0-0.019,0.014-0.033,0.022-0.048c0.031-0.06,0.061-0.121,0.093-0.181C7.635,7.976,7.636,7.976,7.672,8.01
		c0.055,0.052,0.11,0.104,0.165,0.157c0.092,0.088,0.184,0.176,0.276,0.265C8.124,8.443,8.134,8.455,8.144,8.467z"/>
	<path fill="#A9F84B" d="M7.748,4.34C7.737,4.331,7.726,4.323,7.716,4.314C7.474,4.082,7.231,3.85,6.989,3.618
		C6.978,3.607,6.968,3.595,6.957,3.583C6.948,3.56,6.949,3.536,6.949,3.512c0-0.439,0-0.878,0-1.317c0-0.012,0-0.024,0-0.036
		c0.003-0.074,0.007-0.078,0.079-0.078c0.182,0,0.363,0,0.545,0c0.02,0,0.04-0.004,0.059,0.004c0.059,0.048,0.114,0.101,0.164,0.157
		c-0.03,0.042-0.029,0.09-0.029,0.138c0,0.617,0,1.234,0,1.851C7.767,4.268,7.776,4.308,7.748,4.34z"/>
	<path fill="#BDF541" d="M7.748,4.34c0-0.667,0-1.334,0-2.001c0-0.02-0.001-0.04,0.002-0.06c0.004-0.024,0.018-0.04,0.046-0.037
		c0,0,0,0,0,0C7.8,2.247,7.804,2.251,7.809,2.254l0,0c0.004,0.005,0.008,0.009,0.013,0.012l0,0c0.003,0.005,0.008,0.009,0.013,0.012
		c0.011,0.009,0.022,0.017,0.032,0.026C8.04,2.471,8.215,2.638,8.389,2.805C8.401,2.816,8.411,2.828,8.421,2.84
		C8.415,2.888,8.415,2.936,8.415,2.983c0,0.622,0,1.244-0.001,1.866c0,0.037,0.01,0.077-0.021,0.108
		c-0.012-0.01-0.025-0.019-0.037-0.03C8.18,4.758,8.003,4.588,7.827,4.419C7.82,4.412,7.813,4.404,7.807,4.397
		C7.802,4.396,7.8,4.394,7.799,4.389L7.796,4.386C7.792,4.384,7.789,4.381,7.787,4.377L7.784,4.375
		c-0.004-0.002-0.008-0.005-0.01-0.01L7.772,4.363c-0.004-0.002-0.008-0.006-0.01-0.01L7.76,4.352
		c-0.004-0.003-0.008-0.006-0.011-0.01L7.748,4.34z"/>
	<path fill="#DFF130" d="M8.998,3.393C9.022,3.414,9.047,3.434,9.07,3.456c0.286,0.273,0.572,0.546,0.857,0.82
		C9.977,4.325,9.98,4.312,9.945,4.379C9.777,4.703,9.609,5.027,9.441,5.351C9.374,5.48,9.307,5.609,9.24,5.738
		c-0.003,0.005-0.007,0.01-0.01,0.014C9.219,5.752,9.212,5.745,9.205,5.738c-0.076-0.073-0.153-0.147-0.229-0.22
		C8.973,5.516,8.972,5.512,8.97,5.508c-0.013-0.03-0.018-0.061-0.018-0.093c0-0.643,0-1.286,0.001-1.929
		C8.953,3.451,8.937,3.402,8.998,3.393z"/>
	<path fill="#CFF338" d="M8.998,3.393C8.982,3.4,8.972,3.411,8.972,3.429c0,0.018,0,0.036,0,0.054c0,0.647,0,1.294,0,1.942
		c0,0.028-0.001,0.056-0.002,0.084C8.956,5.497,8.942,5.487,8.929,5.474C8.798,5.35,8.668,5.225,8.538,5.1
		C8.529,5.092,8.523,5.082,8.515,5.073C8.512,5.069,8.508,5.064,8.503,5.062l0,0C8.5,5.056,8.496,5.052,8.491,5.05l0,0
		C8.488,5.044,8.484,5.04,8.478,5.038l0,0c-0.002-0.006-0.006-0.01-0.013-0.012l0,0C8.464,5.02,8.46,5.016,8.454,5.014l0,0
		C8.452,5.008,8.448,5.004,8.441,5.003l0.001,0.001C8.44,4.996,8.436,4.992,8.429,4.991L8.43,4.991
		C8.429,4.984,8.423,4.98,8.416,4.979C8.405,4.975,8.398,4.968,8.394,4.957c0.001-0.028,0.002-0.056,0.002-0.084
		c0-0.647,0-1.294,0-1.941c0-0.018,0-0.036,0-0.054c0-0.018,0.01-0.03,0.025-0.038c0,0,0,0,0,0c0.003,0.006,0.007,0.01,0.013,0.013
		L8.433,2.852c0.003,0.006,0.007,0.011,0.014,0.013L8.445,2.864C8.447,2.87,8.451,2.875,8.458,2.877L8.457,2.875
		c0.002,0.007,0.006,0.012,0.014,0.013L8.47,2.887C8.471,2.894,8.475,2.899,8.483,2.9L8.482,2.899
		c0.001,0.008,0.006,0.012,0.014,0.013L8.494,2.91c0.001,0.008,0.005,0.013,0.013,0.013L8.506,2.922
		c0.001,0.01,0.007,0.013,0.016,0.014c0.009,0.007,0.019,0.014,0.028,0.022C8.692,3.094,8.833,3.23,8.975,3.366
		C8.984,3.374,8.991,3.384,8.998,3.393z"/>
	<path fill="#8FFB58" d="M7.632,2.085C7.444,2.086,7.257,2.086,7.069,2.087c-0.02,0-0.04,0-0.06,0
		C6.973,2.088,6.97,2.091,6.969,2.13c0,0.016,0,0.032,0,0.048c0,0.443,0,0.887,0,1.33c0,0.026,0.005,0.052-0.011,0.076
		C6.938,3.566,6.918,3.55,6.899,3.532C6.619,3.264,6.34,2.996,6.06,2.729C6.032,2.702,6.009,2.673,5.991,2.639
		C5.903,2.476,5.814,2.314,5.725,2.151C5.713,2.128,5.7,2.107,5.693,2.083C5.707,2.072,5.719,2.076,5.73,2.076
		c0.617,0,1.234,0,1.851,0C7.598,2.076,7.617,2.07,7.632,2.085z"/>
	<path fill="#83FC5F" d="M7.496,8.251C7.505,8.28,7.511,8.307,7.499,8.338C7.492,8.355,7.496,8.378,7.496,8.398
		c0,0.736,0,1.473,0,2.209c0,0.014,0,0.028,0,0.042c-0.009-0.007-0.019-0.014-0.028-0.022c-0.254-0.243-0.509-0.486-0.762-0.729
		C6.658,9.851,6.653,9.865,6.69,9.794c0.201-0.385,0.402-0.771,0.602-1.157c0.06-0.115,0.119-0.23,0.179-0.345
		C7.478,8.277,7.488,8.264,7.496,8.251z"/>
	<path fill="#D5F334" d="M9.738,11.73c0-0.024,0.001-0.048,0.001-0.072c0-0.501,0-1.001,0-1.502c0-0.016,0-0.032,0-0.048
		c0-0.017,0.004-0.031,0.016-0.044c0.012-0.013,0.027-0.015,0.044-0.014c0,0,0,0,0,0c0.004,0.004,0.008,0.007,0.012,0.011l0,0
		c0.004,0.004,0.008,0.008,0.012,0.012l0,0c0.004,0.004,0.008,0.008,0.012,0.012l0,0c0.004,0.005,0.008,0.009,0.013,0.012l0,0
		c0.003,0.005,0.007,0.009,0.013,0.012l-0.001-0.001c0.003,0.005,0.008,0.009,0.014,0.012c0.047,0.043,0.094,0.086,0.141,0.13
		c0.135,0.128,0.269,0.257,0.403,0.385c0.011,0.011,0.025,0.02,0.032,0.035c-0.01,0.083-0.005,0.167-0.006,0.25
		c-0.001,0.237,0,0.474,0,0.711c0,0.033,0.005,0.068-0.02,0.097c-0.014,0.001-0.028,0.003-0.041,0.003c-0.2,0-0.401,0-0.601,0
		C9.766,11.733,9.752,11.731,9.738,11.73z"/>
	<path fill="#E7F02B" d="M10.422,11.73c0-0.324,0-0.648,0.001-0.972c0-0.016,0-0.032,0-0.048c0-0.018,0.01-0.029,0.025-0.038
		c0,0,0,0,0,0c0.003,0.006,0.007,0.01,0.013,0.013l-0.001-0.001c0.003,0.006,0.007,0.01,0.013,0.012l-0.001-0.001
		c0.002,0.007,0.006,0.011,0.013,0.013l-0.001-0.001c0.002,0.007,0.006,0.011,0.014,0.013l-0.001-0.001
		c0.001,0.007,0.006,0.012,0.013,0.013l-0.001-0.001c0.002,0.007,0.006,0.012,0.014,0.012l-0.001-0.001
		c0.001,0.008,0.005,0.013,0.013,0.013l-0.001-0.001c0.001,0.01,0.007,0.014,0.016,0.014c0.055,0.043,0.103,0.095,0.153,0.143
		c0.011,0.011,0.018,0.026,0.026,0.04c0.126,0.24,0.252,0.481,0.377,0.721c0.009,0.017,0.02,0.034,0.022,0.053
		c-0.006,0.009-0.014,0.008-0.022,0.008c-0.222,0-0.444,0-0.665-0.001C10.434,11.733,10.428,11.731,10.422,11.73z"/>
	<path fill="#BDF541" d="M8.483,2.9C8.475,2.899,8.471,2.895,8.47,2.887C8.477,2.888,8.481,2.893,8.483,2.9z"/>
	<path fill="#A9F84B" d="M7.749,4.341c0.004,0.003,0.007,0.007,0.011,0.01C7.754,4.351,7.75,4.348,7.749,4.341z"/>
	<path fill="#A9F84B" d="M7.762,4.353c0.003,0.003,0.007,0.007,0.01,0.01C7.766,4.362,7.763,4.359,7.762,4.353z"/>
	<path fill="#A9F84B" d="M7.774,4.365c0.003,0.003,0.007,0.006,0.01,0.01C7.778,4.374,7.775,4.371,7.774,4.365z"/>
	<path fill="#A9F84B" d="M7.787,4.377C7.79,4.38,7.793,4.383,7.796,4.386C7.791,4.386,7.788,4.383,7.787,4.377z"/>
	<path fill="#A9F84B" d="M7.799,4.389c0.004,0.002,0.006,0.004,0.008,0.008C7.802,4.397,7.799,4.394,7.799,4.389z"/>
	<path fill="#BDF541" d="M8.416,4.979C8.424,4.98,8.428,4.984,8.43,4.991C8.423,4.99,8.418,4.986,8.416,4.979z"/>
	<path fill="#BDF541" d="M8.429,4.991c0.007,0.001,0.012,0.005,0.013,0.012C8.435,5.002,8.431,4.998,8.429,4.991z"/>
	<path fill="#BDF541" d="M8.441,5.003c0.007,0.001,0.011,0.005,0.013,0.012C8.447,5.014,8.443,5.01,8.441,5.003z"/>
	<path fill="#BDF541" d="M8.454,5.014C8.461,5.016,8.465,5.02,8.466,5.027C8.459,5.025,8.455,5.021,8.454,5.014z"/>
	<path fill="#BDF541" d="M8.466,5.026c0.007,0.001,0.011,0.005,0.013,0.012C8.472,5.037,8.467,5.033,8.466,5.026z"/>
	<path fill="#BDF541" d="M8.478,5.038C8.485,5.04,8.489,5.044,8.491,5.05C8.484,5.049,8.48,5.045,8.478,5.038z"/>
	<path fill="#BDF541" d="M8.491,5.05c0.006,0.001,0.01,0.005,0.012,0.012C8.496,5.06,8.492,5.057,8.491,5.05z"/>
	<path fill="#BDF541" d="M8.503,5.062c0.006,0.001,0.01,0.005,0.012,0.012C8.508,5.072,8.504,5.068,8.503,5.062z"/>
	<path fill="#A9F84B" d="M7.809,2.254C7.804,2.25,7.8,2.246,7.796,2.242C7.803,2.243,7.807,2.247,7.809,2.254z"/>
	<path fill="#A9F84B" d="M7.821,2.266C7.817,2.262,7.813,2.258,7.808,2.254C7.816,2.255,7.82,2.259,7.821,2.266z"/>
	<path fill="#A9F84B" d="M7.834,2.278C7.827,2.276,7.823,2.272,7.82,2.265C7.828,2.267,7.832,2.271,7.834,2.278z"/>
	<path fill="#BDF541" d="M8.434,2.853C8.427,2.851,8.422,2.847,8.421,2.84C8.428,2.841,8.432,2.846,8.434,2.853z"/>
	<path fill="#BDF541" d="M8.446,2.865C8.439,2.863,8.434,2.859,8.433,2.852C8.44,2.853,8.445,2.857,8.446,2.865z"/>
	<path fill="#BDF541" d="M8.458,2.877C8.451,2.875,8.447,2.871,8.445,2.864C8.452,2.865,8.457,2.869,8.458,2.877z"/>
	<path fill="#BDF541" d="M8.471,2.888C8.463,2.887,8.459,2.883,8.457,2.875C8.464,2.877,8.469,2.881,8.471,2.888z"/>
	<path fill="#BDF541" d="M8.495,2.911C8.487,2.911,8.483,2.907,8.482,2.899C8.489,2.9,8.494,2.904,8.495,2.911z"/>
	<path fill="#BDF541" d="M8.507,2.923C8.499,2.923,8.495,2.918,8.494,2.91C8.501,2.912,8.506,2.916,8.507,2.923z"/>
	<path fill="#BDF541" d="M8.522,2.937C8.513,2.935,8.508,2.931,8.506,2.922C8.514,2.924,8.519,2.929,8.522,2.937z"/>
	<path fill="#C1F53F" d="M9.811,10.062c-0.004-0.004-0.008-0.008-0.012-0.011C9.806,10.052,9.81,10.055,9.811,10.062z"/>
	<path fill="#C1F53F" d="M9.823,10.074c-0.004-0.004-0.008-0.008-0.012-0.012C9.818,10.063,9.822,10.067,9.823,10.074z"/>
	<path fill="#C1F53F" d="M9.836,10.086c-0.004-0.004-0.008-0.008-0.012-0.012C9.83,10.075,9.834,10.079,9.836,10.086z"/>
	<path fill="#C1F53F" d="M9.848,10.098c-0.004-0.004-0.008-0.008-0.013-0.012C9.843,10.086,9.847,10.091,9.848,10.098z"/>
	<path fill="#C1F53F" d="M9.86,10.11c-0.004-0.004-0.008-0.008-0.013-0.012C9.855,10.098,9.859,10.103,9.86,10.11z"/>
	<path fill="#C1F53F" d="M9.873,10.122c-0.007-0.002-0.011-0.006-0.014-0.012C9.867,10.11,9.871,10.114,9.873,10.122z"/>
	<path fill="#D5F334" d="M10.46,10.685c-0.007-0.002-0.011-0.006-0.013-0.013C10.455,10.673,10.459,10.677,10.46,10.685z"/>
	<path fill="#D5F334" d="M10.473,10.696c-0.007-0.001-0.012-0.005-0.013-0.012C10.467,10.685,10.472,10.689,10.473,10.696z"/>
	<path fill="#D5F334" d="M10.485,10.708c-0.007-0.001-0.012-0.006-0.013-0.013C10.479,10.697,10.484,10.701,10.485,10.708z"/>
	<path fill="#D5F334" d="M10.498,10.72c-0.007-0.001-0.012-0.005-0.014-0.013C10.491,10.708,10.496,10.712,10.498,10.72z"/>
	<path fill="#D5F334" d="M10.51,10.732c-0.008-0.001-0.012-0.005-0.013-0.013C10.504,10.72,10.508,10.724,10.51,10.732z"/>
	<path fill="#D5F334" d="M10.522,10.743c-0.008,0-0.012-0.005-0.014-0.012C10.516,10.732,10.521,10.736,10.522,10.743z"/>
	<path fill="#D5F334" d="M10.534,10.755c-0.008-0.001-0.012-0.005-0.013-0.013C10.529,10.743,10.533,10.748,10.534,10.755z"/>
	<path fill="#D5F334" d="M10.549,10.768c-0.009-0.001-0.014-0.006-0.016-0.014C10.541,10.756,10.546,10.761,10.549,10.768z"/>
	<path fill="#94FA56" d="M8.086,11.213c0.003,0.003,0.007,0.007,0.01,0.01C8.09,11.223,8.086,11.219,8.086,11.213z"/>
	<path fill="#B0F748" d="M3.874,10.626c-0.022,0.054-0.055,0.101-0.083,0.151c-0.029,0.054-0.061,0.106-0.092,0.16
		c-0.021-0.01-0.026-0.028-0.035-0.043c-0.075-0.129-0.149-0.259-0.223-0.388c-0.125-0.218-0.25-0.435-0.375-0.652
		c-0.008-0.014-0.014-0.029-0.02-0.043C3.037,9.784,3.039,9.756,3.039,9.728c0.001-1.958,0-3.916,0-5.873
		c0-0.048,0.005-0.095,0.018-0.142c0.019-0.051,0.052-0.094,0.079-0.14c0.173-0.294,0.347-0.587,0.521-0.88
		c0.005-0.008,0.011-0.017,0.016-0.024c0.013,0.003,0.017,0.012,0.021,0.02c0.061,0.107,0.123,0.215,0.184,0.322
		c0.004,0.007,0.006,0.015,0.009,0.022C3.868,3.051,3.86,3.073,3.859,3.098C3.858,3.122,3.858,3.146,3.858,3.17
		c0,2.443,0,4.886,0.001,7.329C3.858,10.541,3.847,10.586,3.874,10.626z"/>
	<path fill="#C3F53E" d="M3.874,10.626c-0.025,0.004-0.033,0.001-0.035-0.016c-0.001-0.018-0.001-0.036-0.001-0.054
		c0-0.3,0-0.599,0-0.899c0-2.179,0-4.358,0-6.537c0-0.02-0.001-0.04,0-0.06C3.84,3.028,3.851,3.023,3.886,3.034l0,0
		C3.89,3.037,3.893,3.041,3.895,3.046C3.899,3.048,3.9,3.051,3.899,3.055C3.901,3.06,3.905,3.065,3.908,3.07
		c0.003,0.002,0.005,0.004,0.004,0.008c0.001,0.007,0.006,0.012,0.011,0.016l0,0C3.929,3.1,3.927,3.112,3.934,3.118l0,0
		C3.938,3.121,3.94,3.125,3.942,3.13c0.004,0.002,0.005,0.004,0.005,0.008c0.001,0.006,0.006,0.011,0.009,0.016
		C3.959,3.155,3.96,3.158,3.959,3.162c0.001,0.007,0.006,0.011,0.01,0.017l0.001,0.001c0.008,0.005,0.005,0.017,0.013,0.023l0,0
		C3.989,3.208,3.987,3.22,3.995,3.225C4.033,3.274,4.06,3.33,4.09,3.384c0.174,0.303,0.346,0.606,0.519,0.909
		C4.618,4.308,4.625,4.324,4.633,4.34c-0.022,0.038-0.02,0.081-0.02,0.123c0,1.001,0,2.002,0,3.003c0,0.611,0.002,1.223-0.001,1.834
		c0,0.01,0,0.02,0.004,0.029C4.577,9.402,4.538,9.474,4.498,9.544c-0.152,0.266-0.305,0.533-0.458,0.799
		c-0.011,0.019-0.023,0.037-0.035,0.055c-0.004,0.004-0.008,0.008-0.01,0.014c0.001,0.004-0.001,0.008-0.005,0.01
		c-0.003,0.004-0.005,0.009-0.008,0.013c-0.002,0.004-0.003,0.007-0.005,0.011c-0.002,0.004-0.005,0.008-0.008,0.011L3.97,10.458
		c-0.005,0.004-0.01,0.009-0.01,0.017c0.001,0.004,0,0.006-0.003,0.007c-0.004,0.005-0.008,0.009-0.009,0.016
		c0.001,0.004-0.001,0.007-0.005,0.008c-0.003,0.004-0.006,0.008-0.009,0.012c-0.002,0.004-0.003,0.008-0.005,0.012
		c-0.002,0.004-0.004,0.008-0.007,0.012c0,0.011-0.007,0.017-0.015,0.024C3.905,10.571,3.9,10.575,3.9,10.581
		c0.001,0.004,0,0.007-0.004,0.009c-0.003,0.004-0.006,0.008-0.009,0.013l0,0C3.878,10.608,3.881,10.619,3.874,10.626L3.874,10.626z
		"/>
	<path fill="#99FA54" d="M3.057,3.713C3.06,3.725,3.07,3.735,3.066,3.747C3.054,3.778,3.059,3.811,3.059,3.842
		c0,1.954,0,3.909,0,5.863c0,0.036-0.001,0.072-0.013,0.106C3.012,9.769,2.99,9.72,2.963,9.674C2.735,9.277,2.506,8.88,2.278,8.483
		C2.273,8.475,2.27,8.465,2.266,8.457C2.246,8.41,2.26,8.362,2.26,8.314c-0.001-0.245,0-0.491,0-0.736c0-0.792,0-1.585-0.001-2.377
		c0-0.067,0.005-0.131,0.031-0.193C2.294,4.984,2.31,4.965,2.322,4.945c0.234-0.396,0.469-0.792,0.704-1.188
		C3.035,3.742,3.042,3.725,3.057,3.713z"/>
	<path fill="#D9F233" d="M4.616,9.33C4.603,9.323,4.595,9.312,4.594,9.297c0-0.016,0-0.032,0-0.048c0-1.608,0-3.216,0-4.824
		c0-0.014,0-0.028,0-0.042c0-0.027,0.013-0.041,0.039-0.043c0.049,0.084,0.099,0.168,0.147,0.253C4.96,4.907,5.139,5.22,5.318,5.535
		c0.023,0.041,0.052,0.08,0.067,0.126C5.363,5.697,5.369,5.738,5.369,5.777c0,0.713-0.001,1.426,0,2.139
		c0,0.032-0.007,0.064,0.002,0.095C5.336,8.076,5.301,8.14,5.264,8.204C5.067,8.55,4.868,8.896,4.67,9.242
		c-0.006,0.01-0.013,0.02-0.02,0.03C4.648,9.276,4.645,9.279,4.642,9.283l0,0C4.634,9.288,4.637,9.3,4.63,9.306L4.629,9.307
		C4.625,9.311,4.62,9.316,4.619,9.322C4.621,9.326,4.619,9.329,4.616,9.33z"/>
	<path fill="#85FC5E" d="M2.289,5.008c0.002,0.024,0.003,0.048-0.006,0.071C2.279,5.09,2.28,5.102,2.279,5.114
		c-0.001,0.016,0,0.032,0,0.048c0,0.983,0,1.966,0,2.948c0,0.115,0.01,0.231-0.012,0.346c-0.033-0.041-0.055-0.088-0.08-0.133
		c-0.201-0.347-0.4-0.694-0.6-1.042C1.488,7.111,1.39,6.939,1.292,6.768c-0.003-0.005-0.006-0.01-0.009-0.015
		c-0.013-0.018-0.013-0.036,0-0.055C1.307,6.659,1.33,6.619,1.353,6.58c0.208-0.35,0.415-0.7,0.623-1.049
		c0.096-0.161,0.191-0.323,0.286-0.484C2.27,5.033,2.28,5.021,2.289,5.008z"/>
	<path fill="#ECF029" d="M5.371,8.011C5.359,8.003,5.35,7.993,5.35,7.977c0-0.016,0-0.032,0-0.048c0-0.731,0-1.461,0-2.192
		c0-0.016,0-0.032,0-0.048c0.001-0.022,0.001-0.022,0.035-0.029c0,0,0,0,0,0C5.392,5.667,5.39,5.679,5.399,5.684L5.398,5.683
		c0.003,0.005,0.006,0.009,0.009,0.013C5.41,5.698,5.412,5.701,5.41,5.705c0.002,0.006,0.006,0.011,0.01,0.016l0.001,0.001
		c0.008,0.005,0.005,0.017,0.013,0.022l0,0C5.44,5.751,5.438,5.762,5.446,5.768l0-0.001C5.449,5.772,5.452,5.776,5.455,5.78
		C5.459,5.782,5.46,5.784,5.459,5.788C5.46,5.795,5.464,5.799,5.468,5.804c0.003,0.001,0.004,0.004,0.003,0.007
		c0.001,0.007,0.005,0.013,0.011,0.017l0,0c0.006,0.007,0.004,0.018,0.013,0.024l0-0.001C5.497,5.855,5.5,5.86,5.502,5.864
		c0.004,0.001,0.005,0.003,0.004,0.007c0.001,0.007,0.005,0.012,0.01,0.017l0.003,0.002L5.519,5.894c0,0.008,0.005,0.013,0.01,0.018
		l0,0.001c0.004,0.003,0.007,0.006,0.008,0.011c0.004,0.002,0.006,0.005,0.005,0.01c0.003,0.005,0.006,0.01,0.008,0.014
		c0.034,0.058,0.07,0.116,0.103,0.175c0.125,0.218,0.249,0.436,0.373,0.654c0.004,0.007,0.008,0.014,0.012,0.021
		c0.013,0.019,0.01,0.037-0.001,0.056c-0.035,0.06-0.07,0.121-0.104,0.181C5.815,7.242,5.696,7.45,5.577,7.657
		C5.573,7.664,5.568,7.67,5.563,7.676C5.56,7.68,5.557,7.685,5.554,7.689C5.553,7.693,5.551,7.696,5.55,7.7
		C5.548,7.704,5.545,7.709,5.542,7.713C5.54,7.717,5.538,7.721,5.536,7.725c0,0.005-0.002,0.008-0.007,0.009L5.528,7.735
		C5.524,7.74,5.52,7.745,5.519,7.751c0.001,0.004,0,0.007-0.004,0.009C5.512,7.764,5.508,7.769,5.507,7.775
		c0.001,0.005-0.001,0.008-0.005,0.01C5.5,7.788,5.497,7.792,5.494,7.795l0,0C5.486,7.801,5.488,7.813,5.482,7.819L5.481,7.82
		c-0.005,0.004-0.009,0.009-0.01,0.015C5.472,7.839,5.47,7.842,5.467,7.844C5.464,7.848,5.461,7.853,5.459,7.858
		c0.001,0.005-0.001,0.008-0.005,0.01C5.452,7.872,5.449,7.876,5.446,7.879l0,0.001C5.438,7.885,5.44,7.897,5.433,7.902l0,0.001
		C5.428,7.908,5.424,7.913,5.423,7.919c0.001,0.004-0.001,0.007-0.005,0.008C5.416,7.932,5.413,7.937,5.41,7.941
		c0.001,0.004,0,0.008-0.004,0.01C5.404,7.956,5.401,7.96,5.398,7.964l0,0c-0.006,0.004-0.01,0.009-0.01,0.017
		c0.001,0.003,0,0.006-0.003,0.007C5.38,7.992,5.375,7.997,5.375,8.004C5.376,8.008,5.375,8.01,5.371,8.011z"/>
	<path fill="#B0F748" d="M3.983,3.202C3.973,3.197,3.97,3.189,3.969,3.179C3.979,3.184,3.983,3.191,3.983,3.202z"/>
	<path fill="#B0F748" d="M3.995,3.225C3.985,3.221,3.982,3.212,3.982,3.201C3.991,3.207,3.994,3.216,3.995,3.225z"/>
	<path fill="#D9F233" d="M5.482,7.819c0-0.01,0.002-0.018,0.012-0.023C5.494,7.806,5.491,7.814,5.482,7.819z"/>
	<path fill="#D9F233" d="M5.433,7.902c0-0.01,0.002-0.018,0.012-0.023C5.445,7.889,5.442,7.897,5.433,7.902z"/>
	<path fill="#D9F233" d="M5.494,5.852c-0.01-0.005-0.013-0.014-0.013-0.024C5.491,5.833,5.494,5.842,5.494,5.852z"/>
	<path fill="#D9F233" d="M5.446,5.768c-0.01-0.005-0.013-0.014-0.013-0.024C5.443,5.75,5.446,5.758,5.446,5.768z"/>
	<path fill="#D9F233" d="M5.434,5.744C5.424,5.74,5.421,5.732,5.421,5.722C5.43,5.727,5.434,5.734,5.434,5.744z"/>
	<path fill="#C3F53E" d="M4.63,9.306c0-0.01,0.002-0.019,0.013-0.023C4.643,9.293,4.64,9.301,4.63,9.306z"/>
	<path fill="#D9F233" d="M5.399,5.684C5.388,5.68,5.385,5.671,5.385,5.661C5.394,5.666,5.398,5.674,5.399,5.684z"/>
	<path fill="#B0F748" d="M3.934,3.118c-0.01-0.005-0.012-0.014-0.012-0.024C3.931,3.1,3.934,3.108,3.934,3.118z"/>
	<path fill="#B0F748" d="M3.874,10.626c0-0.01,0.002-0.019,0.013-0.023C3.886,10.612,3.883,10.62,3.874,10.626z"/>
	<path fill="#D9F233" d="M5.537,5.924C5.534,5.92,5.532,5.917,5.529,5.913C5.534,5.915,5.537,5.918,5.537,5.924z"/>
	<path fill="#D9F233" d="M5.55,5.948c-0.003-0.005-0.006-0.01-0.008-0.014C5.548,5.937,5.551,5.941,5.55,5.948z"/>
	<path fill="#D9F233" d="M5.516,5.888c-0.006-0.004-0.009-0.01-0.01-0.017C5.514,5.875,5.517,5.881,5.516,5.888z"/>
	<path fill="#D9F233" d="M5.529,5.913c-0.007-0.004-0.01-0.01-0.01-0.018C5.526,5.898,5.529,5.905,5.529,5.913z"/>
	<path fill="#D9F233" d="M5.502,5.864C5.5,5.86,5.497,5.856,5.494,5.851C5.5,5.853,5.503,5.858,5.502,5.864z"/>
	<path fill="#D9F233" d="M5.554,7.689C5.557,7.685,5.56,7.68,5.563,7.676C5.564,7.683,5.56,7.687,5.554,7.689z"/>
	<path fill="#D9F233" d="M5.542,7.713C5.545,7.708,5.547,7.704,5.55,7.7C5.551,7.706,5.548,7.71,5.542,7.713z"/>
	<path fill="#D9F233" d="M5.529,7.733C5.53,7.729,5.532,7.726,5.536,7.725C5.534,7.728,5.531,7.73,5.529,7.733z"/>
	<path fill="#D9F233" d="M5.519,7.751c0-0.007,0.003-0.012,0.009-0.016C5.528,7.743,5.526,7.748,5.519,7.751z"/>
	<path fill="#D9F233" d="M5.507,7.775c0-0.006,0.003-0.011,0.008-0.015C5.516,7.767,5.513,7.772,5.507,7.775z"/>
	<path fill="#D9F233" d="M5.494,7.795c0.003-0.004,0.005-0.007,0.008-0.011C5.502,7.79,5.499,7.794,5.494,7.795z"/>
	<path fill="#D9F233" d="M5.471,7.835c0-0.007,0.004-0.012,0.01-0.015C5.481,7.827,5.478,7.832,5.471,7.835z"/>
	<path fill="#D9F233" d="M5.459,7.858c0-0.006,0.003-0.011,0.008-0.014C5.468,7.851,5.465,7.855,5.459,7.858z"/>
	<path fill="#D9F233" d="M5.446,7.879c0.003-0.004,0.005-0.007,0.008-0.011C5.455,7.874,5.451,7.878,5.446,7.879z"/>
	<path fill="#D9F233" d="M5.423,7.919c0-0.007,0.003-0.013,0.009-0.016C5.433,7.911,5.43,7.916,5.423,7.919z"/>
	<path fill="#D9F233" d="M5.41,7.941c0.003-0.005,0.005-0.009,0.008-0.014C5.419,7.934,5.417,7.939,5.41,7.941z"/>
	<path fill="#D9F233" d="M5.398,7.964C5.401,7.96,5.403,7.956,5.406,7.952C5.407,7.958,5.404,7.962,5.398,7.964z"/>
	<path fill="#D9F233" d="M5.387,7.981c0-0.008,0.003-0.013,0.01-0.017C5.398,7.971,5.394,7.977,5.387,7.981z"/>
	<path fill="#D9F233" d="M5.375,8.004c0-0.007,0.003-0.013,0.009-0.016C5.385,7.995,5.382,8.001,5.375,8.004z"/>
	<path fill="#D9F233" d="M5.482,5.828c-0.007-0.004-0.01-0.009-0.011-0.017C5.478,5.815,5.482,5.82,5.482,5.828z"/>
	<path fill="#D9F233" d="M5.468,5.804C5.462,5.801,5.459,5.795,5.459,5.788C5.465,5.791,5.468,5.797,5.468,5.804z"/>
	<path fill="#D9F233" d="M5.455,5.78C5.452,5.776,5.449,5.772,5.446,5.767C5.452,5.769,5.456,5.773,5.455,5.78z"/>
	<path fill="#D9F233" d="M5.42,5.721C5.414,5.717,5.411,5.712,5.41,5.705C5.417,5.708,5.42,5.714,5.42,5.721z"/>
	<path fill="#D9F233" d="M5.407,5.696C5.404,5.692,5.401,5.687,5.398,5.683C5.405,5.685,5.407,5.69,5.407,5.696z"/>
	<path fill="#C3F53E" d="M4.642,9.283C4.645,9.279,4.648,9.275,4.65,9.271C4.651,9.277,4.648,9.281,4.642,9.283z"/>
	<path fill="#C3F53E" d="M4.619,9.322c0-0.007,0.004-0.012,0.01-0.015C4.629,9.314,4.626,9.319,4.619,9.322z"/>
	<path fill="#B0F748" d="M3.895,3.046C3.892,3.042,3.889,3.038,3.886,3.033C3.893,3.035,3.896,3.039,3.895,3.046z"/>
	<path fill="#B0F748" d="M3.908,3.07C3.905,3.065,3.902,3.06,3.899,3.055C3.905,3.058,3.908,3.063,3.908,3.07z"/>
	<path fill="#B0F748" d="M3.922,3.094C3.915,3.09,3.912,3.085,3.911,3.078C3.918,3.081,3.922,3.086,3.922,3.094z"/>
	<path fill="#B0F748" d="M3.942,3.13C3.94,3.126,3.937,3.122,3.934,3.118C3.94,3.12,3.943,3.124,3.942,3.13z"/>
	<path fill="#B0F748" d="M3.956,3.154C3.953,3.149,3.95,3.143,3.947,3.138C3.954,3.141,3.957,3.147,3.956,3.154z"/>
	<path fill="#B0F748" d="M3.996,10.413c0.003-0.005,0.006-0.01,0.01-0.014C4.006,10.405,4.002,10.41,3.996,10.413z"/>
	<path fill="#B0F748" d="M3.983,10.436c0.003-0.004,0.005-0.009,0.008-0.013C3.992,10.429,3.989,10.433,3.983,10.436z"/>
	<path fill="#B0F748" d="M3.97,10.457c0.003-0.004,0.005-0.007,0.008-0.011C3.979,10.453,3.976,10.456,3.97,10.457z"/>
	<path fill="#B0F748" d="M3.96,10.475c0-0.007,0.003-0.013,0.01-0.017C3.97,10.466,3.967,10.471,3.96,10.475z"/>
	<path fill="#B0F748" d="M3.948,10.498c0-0.007,0.003-0.012,0.009-0.016C3.957,10.49,3.954,10.495,3.948,10.498z"/>
	<path fill="#B0F748" d="M3.935,10.519c0.003-0.004,0.006-0.008,0.009-0.012C3.944,10.513,3.941,10.517,3.935,10.519z"/>
	<path fill="#B0F748" d="M3.923,10.543c0.002-0.004,0.005-0.008,0.007-0.012C3.931,10.537,3.928,10.541,3.923,10.543z"/>
	<path fill="#B0F748" d="M3.9,10.581c0.003-0.005,0.006-0.01,0.008-0.015C3.909,10.573,3.906,10.578,3.9,10.581z"/>
	<path fill="#B0F748" d="M3.969,3.178C3.963,3.174,3.96,3.169,3.959,3.162C3.966,3.165,3.969,3.171,3.969,3.178z"/>
	<path fill="#B0F748" d="M3.887,10.603c0.003-0.004,0.006-0.008,0.009-0.013C3.897,10.597,3.894,10.601,3.887,10.603z"/>
	<path fill="#B0F748" d="M29.265,3.824c0.044-0.08,0.088-0.161,0.134-0.24c0.134-0.236,0.27-0.471,0.404-0.706
		c0.008-0.014,0.013-0.029,0.027-0.038c0.008-0.002,0.011,0.003,0.014,0.008c0.066,0.114,0.132,0.228,0.197,0.342
		c0.002,0.003,0.002,0.008,0.003,0.011C30.024,3.25,30.029,3.3,30.029,3.35c0,2.118,0,4.237,0,6.355
		c0,0.348-0.002,0.695,0.001,1.043c0,0.016-0.001,0.032,0.005,0.047c-0.034,0.07-0.078,0.134-0.116,0.201
		c-0.021,0.036-0.042,0.071-0.061,0.103c-0.016,0.005-0.019-0.004-0.023-0.01c-0.192-0.337-0.385-0.674-0.577-1.011
		c-0.003-0.005-0.003-0.011-0.005-0.017c-0.01-0.029-0.007-0.059-0.007-0.089c0-1.993,0-3.985,0-5.978
		C29.245,3.937,29.246,3.88,29.265,3.824z"/>
	<path fill="#C1F53F" d="M30.035,10.796c-0.012-0.004-0.023-0.008-0.024-0.023c-0.001-0.016-0.001-0.032-0.001-0.048
		c0-2.482,0-4.965,0-7.447c0-0.014,0-0.028,0.001-0.042c0.001-0.021,0.013-0.032,0.034-0.034c0.042,0.058,0.074,0.123,0.11,0.185
		c0.155,0.267,0.308,0.535,0.462,0.803c0.008,0.014,0.014,0.029,0.021,0.043c-0.034,0.047-0.032,0.101-0.032,0.155
		c0,1.524,0,3.049,0,4.573c0,0.224,0,0.448,0,0.671c0,0.06,0.003,0.12,0.015,0.178c-0.039,0.067-0.077,0.135-0.116,0.202
		c-0.144,0.244-0.289,0.487-0.433,0.731c-0.008,0.014-0.018,0.026-0.027,0.039C30.04,10.786,30.037,10.791,30.035,10.796
		L30.035,10.796z"/>
	<path fill="#98FA54" d="M29.265,3.824c0.001,0.014,0.006,0.028,0.004,0.041c-0.005,0.026-0.003,0.052-0.003,0.078
		c0,2.005,0,4.009,0,6.014c0,0.036,0,0.072-0.013,0.106c-0.022-0.019-0.031-0.046-0.045-0.07c-0.187-0.327-0.373-0.655-0.559-0.982
		c-0.024-0.042-0.048-0.083-0.072-0.124c-0.004-0.007-0.005-0.015-0.008-0.022c-0.009-0.029-0.007-0.059-0.007-0.089
		c0.001-1.203,0-2.405,0-3.608c0-0.05,0.002-0.1,0.019-0.148c0.044-0.078,0.087-0.157,0.131-0.234
		c0.173-0.302,0.346-0.605,0.519-0.907C29.241,3.86,29.253,3.842,29.265,3.824z"/>
	<path fill="#CFF338" d="M30.619,9.81c-0.008-0.002-0.017-0.003-0.019-0.012c-0.006-0.029-0.019-0.057-0.015-0.088
		c0.001-0.008,0-0.016,0-0.024c0-1.78,0-3.561,0-5.341c0-0.028-0.002-0.055,0.008-0.083c0.008-0.024,0.021-0.031,0.044-0.031
		c0.049,0.084,0.1,0.167,0.148,0.251c0.161,0.279,0.321,0.558,0.481,0.838c0.007,0.012,0.016,0.023,0.017,0.038
		c-0.026,0.003-0.039,0.018-0.038,0.044c0,0.014,0,0.028,0,0.042c0,1.067,0,2.134,0,3.201c0,0.018,0,0.036,0.001,0.054
		c0.001,0.011,0.01,0.016,0.021,0.019C31.232,8.78,31.198,8.84,31.162,8.9c-0.171,0.289-0.342,0.577-0.513,0.865
		C30.64,9.781,30.629,9.795,30.619,9.81z"/>
	<path fill="#8AFB5B" d="M28.58,5.02c0,0.024,0.001,0.048,0.001,0.072c0,1.224,0,2.448,0,3.672c0,0.034-0.002,0.068-0.013,0.1
		c-0.034-0.042-0.056-0.092-0.083-0.138c-0.169-0.294-0.337-0.589-0.505-0.884c-0.16-0.281-0.32-0.562-0.48-0.842
		c-0.004-0.007-0.007-0.015-0.012-0.021c-0.017-0.02-0.012-0.038,0-0.06c0.091-0.157,0.181-0.315,0.271-0.472
		c0.15-0.262,0.299-0.523,0.449-0.785c0.12-0.21,0.24-0.419,0.36-0.629C28.572,5.029,28.577,5.024,28.58,5.02z"/>
	<path fill="#CFF338" d="M31.305,5.396c-0.01-0.005-0.013-0.013-0.013-0.023C31.302,5.378,31.305,5.386,31.305,5.396z"/>
	<path fill="#CFF338" d="M31.318,5.42c-0.011-0.005-0.013-0.014-0.013-0.024C31.314,5.401,31.317,5.41,31.318,5.42z"/>
	<path fill="#CFF338" d="M31.352,8.573c0-0.01,0.003-0.018,0.012-0.022C31.365,8.561,31.361,8.569,31.352,8.573z"/>
	<path fill="#CFF338" d="M31.28,8.694c0-0.01,0.003-0.018,0.014-0.022C31.293,8.682,31.288,8.689,31.28,8.694z"/>
	<path fill="#CFF338" d="M31.401,5.564c-0.01-0.004-0.013-0.013-0.013-0.023C31.396,5.546,31.401,5.554,31.401,5.564z"/>
	<path fill="#CFF338" d="M31.388,5.541c-0.009-0.005-0.012-0.013-0.013-0.022C31.385,5.523,31.388,5.531,31.388,5.541z"/>
	<path fill="#CFF338" d="M31.292,5.373c-0.006-0.003-0.01-0.008-0.01-0.015C31.289,5.361,31.292,5.366,31.292,5.373z"/>
	<path fill="#CFF338" d="M31.327,5.433c-0.003-0.005-0.006-0.009-0.01-0.014C31.324,5.421,31.327,5.426,31.327,5.433z"/>
	<path fill="#CFF338" d="M31.339,5.457c-0.006-0.004-0.009-0.01-0.009-0.018C31.337,5.443,31.34,5.449,31.339,5.457z"/>
	<path fill="#CFF338" d="M31.353,5.48c-0.007-0.004-0.011-0.01-0.012-0.018C31.349,5.466,31.353,5.472,31.353,5.48z"/>
	<path fill="#CFF338" d="M31.414,8.469c0-0.006,0.003-0.011,0.008-0.014C31.423,8.462,31.42,8.467,31.414,8.469z"/>
	<path fill="#CFF338" d="M31.401,8.491c0.003-0.004,0.006-0.007,0.008-0.011C31.41,8.486,31.407,8.489,31.401,8.491z"/>
	<path fill="#CFF338" d="M31.39,8.508c0-0.007,0.003-0.013,0.01-0.016C31.4,8.499,31.397,8.504,31.39,8.508z"/>
	<path fill="#CFF338" d="M31.378,8.53c0-0.007,0.003-0.011,0.009-0.015C31.387,8.523,31.385,8.527,31.378,8.53z"/>
	<path fill="#CFF338" d="M31.365,8.551c0.003-0.004,0.005-0.007,0.008-0.011C31.373,8.546,31.37,8.549,31.365,8.551z"/>
	<path fill="#CFF338" d="M31.342,8.589c0.003-0.005,0.006-0.01,0.01-0.014C31.351,8.582,31.348,8.587,31.342,8.589z"/>
	<path fill="#CFF338" d="M31.329,8.612c0.003-0.004,0.005-0.009,0.008-0.013C31.338,8.606,31.335,8.61,31.329,8.612z"/>
	<path fill="#CFF338" d="M31.316,8.633c0.001-0.004,0.003-0.007,0.007-0.009C31.321,8.627,31.318,8.63,31.316,8.633z"/>
	<path fill="#CFF338" d="M31.306,8.65c0-0.007,0.003-0.012,0.009-0.016C31.315,8.642,31.313,8.647,31.306,8.65z"/>
	<path fill="#CFF338" d="M31.294,8.672c0.003-0.004,0.006-0.009,0.008-0.013C31.303,8.666,31.3,8.671,31.294,8.672z"/>
	<path fill="#CFF338" d="M31.271,8.712c0-0.007,0.003-0.013,0.009-0.017C31.28,8.702,31.277,8.708,31.271,8.712z"/>
	<path fill="#CFF338" d="M31.422,5.6c-0.003-0.005-0.006-0.011-0.009-0.016C31.42,5.588,31.423,5.593,31.422,5.6z"/>
	<path fill="#CFF338" d="M31.41,5.576c-0.003-0.004-0.006-0.009-0.009-0.013C31.408,5.565,31.411,5.569,31.41,5.576z"/>
	<path fill="#CFF338" d="M31.375,5.517c-0.003-0.005-0.006-0.01-0.009-0.015C31.371,5.505,31.374,5.51,31.375,5.517z"/>
	<path fill="#CFF338" d="M31.361,5.492c-0.003-0.004-0.006-0.009-0.008-0.013C31.359,5.481,31.362,5.486,31.361,5.492z"/>
	<path fill="#B0F748" d="M30.035,10.796c0-0.006,0.003-0.011,0.009-0.014C30.044,10.789,30.041,10.794,30.035,10.796z"/>
	<path d="M15.835,3.311c0.003-0.002,0.007-0.004,0.01-0.005c0.004-0.002,0.007-0.004,0.01-0.008l0.002-0.001
		c0.005-0.003,0.009-0.008,0.014-0.01c0.01-0.001,0.016-0.008,0.022-0.015c0.004-0.003,0.008-0.006,0.012-0.009
		c0.01-0.002,0.018-0.008,0.024-0.016c0.004-0.002,0.008-0.005,0.011-0.009c0.011-0.001,0.019-0.008,0.025-0.017
		c0.004-0.001,0.007-0.004,0.009-0.007l0.002-0.001c0.004-0.004,0.008-0.008,0.014-0.01c0.004-0.002,0.007-0.004,0.011-0.006
		c0.005,0,0.008-0.002,0.008-0.007l0.003-0.002c0.004-0.003,0.009-0.006,0.013-0.009c0.02-0.005,0.034-0.02,0.05-0.031
		c0.247-0.172,0.494-0.345,0.741-0.518c0.019-0.013,0.038-0.038,0.06-0.034c0.021,0.004,0.04,0.025,0.059,0.039
		c0.056,0.041,0.109,0.087,0.168,0.123c0.015,0.013,0.029,0.027,0.045,0.039c0.381,0.289,0.761,0.578,1.142,0.866
		c0.011,0.008,0.023,0.015,0.035,0.023c0.058,0.045,0.116,0.091,0.174,0.135c0.108,0.082,0.216,0.164,0.324,0.246
		c0.042,0.032,0.039,0.037,0.086,0.003c0.169-0.12,0.339-0.239,0.508-0.358c0.034-0.024,0.068-0.048,0.103-0.072
		c0.017-0.011,0.021-0.011,0.033,0.008c0.046,0.072,0.091,0.145,0.137,0.218c0.02,0.032,0.042,0.063,0.062,0.094
		c0.036,0.06,0.071,0.12,0.108,0.179c0.397,0.636,0.794,1.272,1.19,1.908c0.05,0.079,0.099,0.159,0.148,0.239
		c0.008,0.013,0.019,0.025,0.028,0.038c-0.001,0.004,0.001,0.007,0.004,0.009c0.002,0.004,0.005,0.008,0.009,0.012l0,0
		c0.005,0.004,0.01,0.009,0.01,0.016c-0.001,0.004,0,0.006,0.004,0.008c0.003,0.004,0.006,0.009,0.009,0.013l0-0.001
		c0.009,0.004,0.006,0.017,0.014,0.022l0.001,0.001c0.004,0.005,0.009,0.01,0.009,0.016c-0.001,0.004,0.001,0.007,0.004,0.008
		c0.003,0.004,0.006,0.008,0.009,0.012l0,0c0.007,0.006,0.004,0.017,0.013,0.022l0.001,0.001c0.003,0.005,0.008,0.008,0.01,0.014
		l0-0.001c0.009,0.005,0.006,0.017,0.014,0.022l0,0.001c0.005,0.005,0.009,0.01,0.01,0.017c0,0.004,0.001,0.007,0.005,0.008
		c0.002,0.004,0.005,0.008,0.008,0.012l0,0c0.007,0.005,0.004,0.017,0.013,0.022l0.001,0.002c0.003,0.005,0.007,0.009,0.01,0.014
		c0.002,0.004,0.003,0.007,0.005,0.011c0.002,0.004,0.004,0.008,0.008,0.011l0,0.001c0.005,0.004,0.009,0.009,0.01,0.015
		c0.02,0.048,0.052,0.089,0.079,0.133c0.044,0.073,0.089,0.146,0.137,0.218c0.018,0.028,0.016,0.049-0.001,0.076
		c-0.065,0.105-0.129,0.211-0.193,0.317c-0.008,0.014-0.019,0.026-0.021,0.042c-0.039,0.046-0.065,0.1-0.096,0.151
		c-0.273,0.45-0.546,0.901-0.819,1.352c-0.028,0.046-0.054,0.093-0.081,0.14c-0.053,0.073-0.095,0.152-0.142,0.228
		C20.08,9.582,19.891,9.896,19.7,10.21c-0.084,0.138-0.167,0.277-0.251,0.415c-0.004,0.007-0.006,0.015-0.009,0.022
		c-0.009,0.003-0.018,0.007-0.025-0.005c-0.035-0.058-0.071-0.115-0.107-0.173c-0.142-0.231-0.284-0.462-0.426-0.692
		c-0.001-0.002-0.002-0.003-0.003-0.005c-0.025-0.039-0.02-0.043-0.061-0.012c-0.133,0.101-0.267,0.203-0.4,0.304
		c-0.008,0.006-0.014,0.014-0.021,0.02c-0.017,0.003-0.027,0.016-0.04,0.026c-0.45,0.341-0.901,0.683-1.351,1.025
		c-0.013,0.01-0.024,0.021-0.036,0.031c-0.005,0.003-0.009,0.007-0.014,0.011c0,0,0,0,0,0c-0.029,0.013-0.052,0.037-0.078,0.055
		c-0.011,0.008-0.022,0.009-0.033,0.001c-0.039-0.027-0.079-0.055-0.118-0.082c-0.389-0.272-0.779-0.545-1.168-0.817
		c-0.01-0.007-0.02-0.012-0.031-0.018c-0.004-0.009-0.017-0.005-0.021-0.015l0.001,0.001c-0.006-0.002-0.009-0.007-0.014-0.01
		l-0.001,0c-0.003-0.004-0.006-0.007-0.011-0.009c-0.002-0.004-0.005-0.005-0.008-0.004c-0.006-0.002-0.011-0.006-0.015-0.011l0,0
		c-0.004-0.004-0.008-0.007-0.012-0.009c-0.001-0.003-0.003-0.005-0.007-0.004c-0.008-0.001-0.013-0.006-0.017-0.012l0.001,0
		c-0.004-0.004-0.009-0.007-0.013-0.01l-0.001-0.001c-0.005-0.009-0.017-0.006-0.022-0.014c0,0,0.001,0,0.001,0
		c-0.007-0.013-0.02-0.019-0.031-0.027c-0.203-0.142-0.405-0.284-0.608-0.426c-0.011-0.008-0.023-0.016-0.035-0.023
		c-0.006-0.004-0.012-0.002-0.016,0.003c-0.008,0.009-0.015,0.019-0.022,0.029c-0.175,0.267-0.351,0.533-0.526,0.8
		c-0.021,0.032-0.046,0.06-0.059,0.096c-0.005,0.013-0.014,0.011-0.023,0.007l-0.001-0.001c-0.002-0.005-0.007-0.009-0.01-0.013
		l0,0.001c-0.005-0.004-0.01-0.008-0.011-0.015l0.001,0.001c-0.027-0.015-0.027-0.046-0.04-0.069c0,0,0-0.001,0-0.001
		c-0.039-0.079-0.088-0.151-0.134-0.226c-0.236-0.391-0.473-0.782-0.71-1.173c-0.184-0.304-0.368-0.608-0.552-0.912
		c-0.004-0.007-0.01-0.012-0.016-0.017c-0.026-0.059-0.063-0.111-0.096-0.165c-0.204-0.338-0.409-0.676-0.614-1.013
		c-0.029-0.048-0.029-0.048,0-0.094c0.196-0.313,0.391-0.626,0.587-0.939c0.008-0.013,0.015-0.028,0.022-0.042
		c0.042-0.053,0.074-0.113,0.11-0.171c0.194-0.309,0.387-0.619,0.58-0.929c0.248-0.398,0.496-0.796,0.744-1.193
		c0.01-0.017,0.018-0.036,0.038-0.047c0.033,0.017,0.066,0.034,0.099,0.052c0.008,0.006,0.015,0.013,0.023,0.018
		c0.202,0.121,0.403,0.242,0.605,0.363c0.005,0.003,0.011,0.005,0.016,0.008c0.02-0.005,0.035-0.019,0.051-0.031
		c0.314-0.219,0.627-0.439,0.941-0.658c0.011-0.008,0.021-0.017,0.032-0.026c0,0,0.001-0.001,0.001-0.001
		c0.005-0.003,0.008-0.008,0.014-0.01c0.004-0.002,0.007-0.004,0.011-0.006c0.004-0.001,0.007-0.003,0.009-0.008l0.002-0.002
		c0.005-0.003,0.009-0.006,0.013-0.009c0.011-0.001,0.017-0.008,0.024-0.016c0.004-0.002,0.008-0.005,0.011-0.008l0.001-0.001
		C15.825,3.317,15.829,3.313,15.835,3.311z"/>
	<path fill="#DFF130" d="M21.337,6.499c-0.009-0.005-0.013-0.013-0.014-0.022C21.335,6.481,21.337,6.489,21.337,6.499z"/>
	<path fill="#DFF130" d="M21.374,6.558c-0.009-0.005-0.013-0.012-0.013-0.022C21.371,6.541,21.373,6.549,21.374,6.558z"/>
	<path fill="#DFF130" d="M21.278,6.403c-0.008-0.005-0.013-0.012-0.014-0.022C21.274,6.384,21.277,6.393,21.278,6.403z"/>
	<path fill="#DFF130" d="M21.314,6.463c-0.008-0.005-0.012-0.013-0.013-0.022C21.311,6.445,21.313,6.453,21.314,6.463z"/>
	<path fill="#DFF130" d="M21.241,6.344c-0.006-0.001-0.01-0.005-0.009-0.012C21.235,6.337,21.238,6.34,21.241,6.344z"/>
	<path fill="#DFF130" d="M21.251,6.361c-0.007-0.003-0.01-0.009-0.01-0.016C21.248,6.348,21.251,6.354,21.251,6.361z"/>
	<path fill="#DFF130" d="M21.264,6.382c-0.007-0.002-0.009-0.007-0.009-0.013C21.261,6.371,21.264,6.376,21.264,6.382z"/>
	<path fill="#DFF130" d="M21.288,6.42c-0.007-0.003-0.01-0.009-0.009-0.016C21.284,6.408,21.287,6.413,21.288,6.42z"/>
	<path fill="#DFF130" d="M21.301,6.44c-0.006-0.002-0.01-0.005-0.009-0.012C21.295,6.433,21.298,6.436,21.301,6.44z"/>
	<path fill="#DFF130" d="M21.324,6.478c-0.007-0.002-0.01-0.007-0.01-0.014C21.32,6.467,21.323,6.471,21.324,6.478z"/>
	<path fill="#DFF130" d="M21.347,6.517c-0.007-0.003-0.01-0.009-0.01-0.017C21.344,6.504,21.347,6.51,21.347,6.517z"/>
	<path fill="#DFF130" d="M21.361,6.536c-0.006-0.002-0.009-0.006-0.008-0.012C21.355,6.529,21.358,6.532,21.361,6.536z"/>
	<path fill="#DFF130" d="M21.384,6.574c-0.006-0.003-0.01-0.007-0.01-0.014C21.378,6.565,21.381,6.569,21.384,6.574z"/>
	<path fill="#DFF130" d="M21.397,6.596c-0.006-0.002-0.008-0.005-0.008-0.011C21.392,6.588,21.394,6.592,21.397,6.596z"/>
	<path fill="#DFF130" d="M21.408,6.611c-0.007-0.003-0.011-0.007-0.01-0.015C21.404,6.599,21.407,6.604,21.408,6.611z"/>
	<path fill="#8DFB5A" d="M14.008,10.579c0.016,0.021,0.034,0.042,0.04,0.069C14.006,10.642,14.008,10.61,14.008,10.579z"/>
	<path fill="#8DFB5A" d="M14.069,10.676c0.008-0.002,0.015-0.005,0.023-0.007C14.088,10.684,14.08,10.687,14.069,10.676z"/>
	<path fill="#8DFB5A" d="M14.047,10.647c0.007,0.002,0.01,0.008,0.011,0.015C14.051,10.659,14.047,10.654,14.047,10.647z"/>
	<path fill="#8DFB5A" d="M14.057,10.661c0.007,0.002,0.01,0.007,0.01,0.013C14.064,10.67,14.061,10.665,14.057,10.661z"/>
	<path fill="#9EF951" d="M15.389,10.216c0.01,0.001,0.017,0.005,0.022,0.014C15.401,10.23,15.392,10.227,15.389,10.216z"/>
	<path fill="#9EF951" d="M15.509,10.3c0.01,0,0.017,0.006,0.021,0.015C15.521,10.314,15.512,10.311,15.509,10.3z"/>
	<path fill="#9EF951" d="M15.412,10.232c0.007,0,0.011,0.003,0.013,0.01C15.421,10.238,15.416,10.235,15.412,10.232z"/>
	<path fill="#9EF951" d="M15.425,10.241c0.008,0,0.014,0.004,0.017,0.012C15.434,10.252,15.428,10.248,15.425,10.241z"/>
	<path fill="#9EF951" d="M15.448,10.257c0.007,0,0.011,0.003,0.012,0.009C15.456,10.263,15.452,10.26,15.448,10.257z"/>
	<path fill="#9EF951" d="M15.46,10.266c0.008,0,0.013,0.004,0.015,0.011C15.469,10.276,15.464,10.272,15.46,10.266z"/>
	<path fill="#9EF951" d="M15.484,10.281c0.006,0,0.01,0.003,0.011,0.009C15.492,10.287,15.488,10.284,15.484,10.281z"/>
	<path fill="#9EF951" d="M15.496,10.291c0.007,0,0.012,0.003,0.014,0.01C15.506,10.297,15.501,10.294,15.496,10.291z"/>
	<path fill="#ACF84A" d="M16.958,11.177c0.002-0.007,0.007-0.01,0.014-0.011C16.967,11.17,16.963,11.173,16.958,11.177z"/>
	<path fill="#A2F94F" d="M15.974,3.214c-0.001,0.005-0.004,0.008-0.009,0.007C15.968,3.219,15.971,3.216,15.974,3.214z"/>
	<path fill="#A2F94F" d="M15.94,3.238c-0.001,0.006-0.005,0.009-0.011,0.009C15.933,3.244,15.936,3.241,15.94,3.238z"/>
	<path fill="#A2F94F" d="M15.905,3.263c-0.002,0.006-0.005,0.01-0.012,0.009C15.897,3.269,15.901,3.266,15.905,3.263z"/>
	<path fill="#A2F94F" d="M15.871,3.287c-0.003,0.006-0.008,0.009-0.014,0.01C15.861,3.294,15.866,3.29,15.871,3.287z"/>
	<path fill="#A2F94F" d="M15.855,3.298c-0.001,0.005-0.004,0.009-0.01,0.008C15.848,3.303,15.851,3.301,15.855,3.298z"/>
	<path fill="#A2F94F" d="M15.835,3.311c-0.003,0.007-0.007,0.01-0.014,0.01C15.823,3.316,15.828,3.312,15.835,3.311z"/>
	<path fill="#A2F94F" d="M15.82,3.322c-0.001,0.006-0.005,0.009-0.011,0.008C15.813,3.328,15.816,3.325,15.82,3.322z"/>
	<path fill="#A2F94F" d="M15.785,3.347c-0.002,0.006-0.007,0.009-0.013,0.009C15.776,3.353,15.781,3.35,15.785,3.347z"/>
	<path fill="#A2F94F" d="M15.77,3.357c-0.001,0.005-0.003,0.008-0.009,0.008C15.763,3.361,15.766,3.359,15.77,3.357z"/>
	<path fill="#A2F94F" d="M15.75,3.371c-0.002,0.006-0.007,0.01-0.014,0.01C15.739,3.375,15.744,3.372,15.75,3.371z"/>
	<path fill="#A2F94F" d="M16.025,3.179c-0.002,0.006-0.006,0.01-0.013,0.009C16.016,3.185,16.021,3.182,16.025,3.179z"/>
	<path fill="#A2F94F" d="M16.01,3.19c-0.001,0.005-0.003,0.007-0.008,0.007C16.003,3.193,16.006,3.191,16.01,3.19z"/>
	<path fill="#A2F94F" d="M15.99,3.203c-0.002,0.007-0.007,0.01-0.014,0.01C15.979,3.207,15.984,3.204,15.99,3.203z"/>
	<path fill="#D6F334" d="M19.168,8.257C19.08,8.331,18.98,8.386,18.87,8.421c-0.006,0-0.01,0.004-0.015,0.007
		c-0.004,0.001-0.009,0.002-0.013,0.003c-0.045-0.007-0.041-0.043-0.042-0.073c-0.003-0.095-0.001-0.191-0.001-0.286
		c0-0.113,0-0.227,0-0.34c0-0.04,0.005-0.079,0.02-0.116c0.023-0.057,0.048-0.113,0.063-0.173c0.019-0.078,0.025-0.156,0.024-0.238
		c-0.02-0.005-0.037,0.003-0.053,0.007c-0.031,0.007-0.06,0.021-0.092,0.021c-0.041,0.009-0.05-0.022-0.052-0.049
		c-0.006-0.143-0.01-0.287,0.002-0.43c0.003-0.034,0.021-0.06,0.055-0.072c0.027-0.014,0.057-0.018,0.086-0.023
		c0.033-0.005,0.049-0.024,0.046-0.058c-0.013-0.216-0.051-0.423-0.195-0.596c-0.018-0.021-0.038-0.041-0.038-0.072
		c0.007-0.177,0.001-0.354,0.003-0.531c0-0.024-0.001-0.048,0.003-0.071c0.007-0.037,0.025-0.059,0.066-0.044
		c0.021-0.002,0.039,0.007,0.058,0.012c0.131,0.038,0.252,0.096,0.36,0.179c0.009,0.007,0.017,0.016,0.026,0.024
		c-0.013,0.175-0.006,0.351-0.006,0.527c0,0.724-0.002,1.449,0.001,2.173C19.175,8.222,19.175,8.24,19.168,8.257z"/>
	<path fill="#E9F02B" d="M19.168,8.257c-0.013-0.024-0.014-0.049-0.014-0.076c0.001-0.112,0-0.224,0-0.336c0-0.745,0-1.491,0-2.236
		c0-0.016,0-0.032,0-0.048c0-0.023,0.006-0.043,0.026-0.057c0.082,0.056,0.144,0.131,0.202,0.21c0.09,0.124,0.152,0.261,0.196,0.407
		c0.056,0.184,0.085,0.373,0.092,0.565c0.002,0.062,0.009,0.124,0.008,0.185c-0.003,0.184-0.013,0.367-0.048,0.548
		c-0.039,0.201-0.101,0.393-0.213,0.567c-0.061,0.094-0.134,0.179-0.22,0.251C19.188,8.244,19.178,8.25,19.168,8.257z"/>
	<path fill="#95FA56" d="M17.62,5.387c0.08-0.046,0.168-0.073,0.257-0.095c0.081-0.02,0.163-0.041,0.247-0.039
		c-0.038,0.191-0.01,0.384-0.018,0.576c0,0.012,0.001,0.024,0,0.036c0,0.035-0.028,0.047-0.052,0.058
		c-0.229,0.105-0.289,0.467-0.117,0.661c0.055,0.063,0.127,0.094,0.206,0.115c0.018,0.005,0.056,0.002,0.035,0.042
		c-0.025,0.025-0.024,0.058-0.024,0.089c0,0.133,0,0.266,0,0.4c0,0.029,0.004,0.06-0.019,0.085
		c-0.052,0.006-0.103-0.005-0.154-0.011c-0.126-0.016-0.249-0.047-0.366-0.098c-0.012-0.005-0.027-0.008-0.036-0.02
		c-0.007-0.04-0.003-0.08-0.003-0.119c0-0.51,0-1.02,0-1.53C17.576,5.482,17.574,5.427,17.62,5.387z"/>
	<path fill="#80FD60" d="M17.62,5.387c-0.022,0.053-0.025,0.107-0.025,0.164c0.001,0.519,0.001,1.038,0.001,1.557
		c0,0.018,0,0.036-0.001,0.054c0,0.011-0.006,0.019-0.015,0.024c-0.032-0.007-0.058-0.026-0.085-0.042
		c-0.148-0.087-0.262-0.207-0.337-0.362c-0.037-0.075-0.062-0.155-0.078-0.238c-0.027-0.134-0.03-0.269-0.012-0.404
		c0.039-0.293,0.18-0.524,0.428-0.686C17.534,5.428,17.574,5.401,17.62,5.387z"/>
	<path fill="#D2F337" d="M15.834,7.57c0.001,0.004-0.001,0.007-0.004,0.01c-0.003,0.005-0.007,0.009-0.008,0.015
		c0.001,0.004,0,0.007-0.003,0.009c-0.004,0.004-0.008,0.009-0.008,0.015c0.001,0.004-0.001,0.007-0.004,0.009
		c-0.003,0.004-0.006,0.009-0.008,0.015c0.001,0.004,0,0.007-0.003,0.009c-0.003,0.005-0.01,0.007-0.008,0.014l0,0.001
		c-0.035-0.003-0.038-0.031-0.043-0.056c-0.005-0.026-0.003-0.052-0.003-0.078c0-0.405,0-0.81,0-1.214
		c0-0.032,0.004-0.064,0.008-0.095l0,0c0.008-0.006,0.005-0.017,0.012-0.024l0,0c0.007-0.006,0.005-0.018,0.012-0.024l0,0
		c0.007-0.007,0.005-0.018,0.012-0.025l0,0c0.008-0.006,0.005-0.017,0.013-0.023l0,0c0.007-0.007,0.005-0.018,0.011-0.025l0,0
		c0.008-0.006,0.005-0.017,0.013-0.023c0.015-0.032,0.012-0.066,0.012-0.099c0-0.063,0-0.063-0.061-0.069
		c-0.018-0.021-0.018-0.048-0.018-0.073c-0.001-0.157-0.001-0.314,0-0.471c0-0.024,0-0.048,0.016-0.068
		c0.114-0.011,0.227-0.008,0.341-0.002c0.025,0.031,0.017,0.069,0.017,0.104c0.001,0.437,0.001,0.874,0,1.311
		c0,0.086,0.003,0.171,0.007,0.257c-0.004,0.026-0.02,0.047-0.031,0.07c-0.074,0.149-0.149,0.298-0.224,0.447
		c-0.003,0.007-0.009,0.013-0.013,0.02c-0.004,0.004-0.008,0.008-0.009,0.014c0.001,0.004,0,0.007-0.004,0.01
		c-0.004,0.005-0.008,0.009-0.008,0.016c0.001,0.004,0,0.007-0.003,0.008C15.839,7.56,15.835,7.564,15.834,7.57z"/>
	<path fill="#A3F94F" d="M15.421,8.395c-0.023,0.049-0.046,0.097-0.069,0.146c-0.005,0.01-0.014,0.014-0.024,0.013
		c-0.01-0.001-0.02-0.003-0.029-0.005c-0.205-0.051-0.41-0.103-0.615-0.155c-0.01-0.002-0.02-0.004-0.027-0.017
		c0.026-0.051,0.052-0.105,0.079-0.158c0.206-0.406,0.411-0.811,0.617-1.217c0.011-0.021,0.016-0.045,0.035-0.062
		c0.041,0.03,0.033,0.075,0.033,0.115c0.001,0.423,0,0.846,0.001,1.269C15.42,8.348,15.411,8.372,15.421,8.395z"/>
	<path fill="#E7F02C" d="M16.134,6.971c-0.021-0.026-0.022-0.058-0.026-0.09c-0.001-0.01,0-0.02,0-0.03c0-0.517,0-1.034,0-1.551
		c0.065-0.015,0.131-0.005,0.196-0.006c0.098-0.001,0.195-0.004,0.293,0.002c0.001,0.018,0.004,0.036,0.004,0.053
		c0,0.217,0,0.435,0,0.652c0,0.031-0.005,0.058-0.019,0.086c-0.135,0.266-0.268,0.533-0.402,0.8
		c-0.003,0.007-0.009,0.013-0.013,0.019c-0.004,0.005-0.008,0.009-0.009,0.016c0.001,0.004,0,0.007-0.003,0.009
		c-0.006,0.006-0.003,0.017-0.011,0.023l0,0.001C16.14,6.96,16.134,6.963,16.134,6.971L16.134,6.971z"/>
	<path fill="#BAF642" d="M15.421,8.395c-0.01-0.003-0.019-0.007-0.02-0.019C15.4,8.358,15.4,8.34,15.4,8.322
		c0-0.426,0-0.851,0-1.277c0-0.036-0.002-0.072-0.014-0.106c0.013-0.048,0.041-0.09,0.063-0.134c0.089-0.179,0.18-0.358,0.271-0.536
		c0.008-0.016,0.018-0.03,0.027-0.046c0.014,0.021,0.012,0.046,0.012,0.069c0,0.181,0,0.363,0,0.544c0,0.249,0,0.498,0,0.748
		c0,0.03,0,0.06,0.027,0.082c-0.027,0.071-0.065,0.136-0.099,0.204c-0.08,0.161-0.161,0.32-0.241,0.48
		c-0.004,0.007-0.008,0.014-0.012,0.02c-0.003,0.004-0.006,0.009-0.008,0.014C15.427,8.39,15.425,8.393,15.421,8.395z"/>
	<path fill="#8CFB5A" d="M17.895,8.512c-0.048-0.004-0.096-0.005-0.143-0.011c-0.14-0.017-0.281-0.036-0.421-0.054
		c-0.038-0.005-0.075-0.011-0.112-0.016c-0.043-0.006-0.045-0.009-0.04-0.054c0.003-0.032,0.009-0.063,0.012-0.095
		c0.015-0.127,0.029-0.254,0.043-0.38c0.001-0.01,0.002-0.02,0.004-0.03c0.002-0.011,0.009-0.018,0.02-0.018
		c0.016,0,0.032,0.001,0.048,0.003c0.192,0.025,0.385,0.04,0.578,0.054c0.066,0.005,0.132,0.005,0.197,0.008
		c0.016,0.001,0.032-0.001,0.047,0.006c-0.036,0.032-0.079,0.018-0.12,0.02c-0.083,0.003-0.092,0.01-0.093,0.094
		c-0.001,0.129,0,0.259-0.001,0.388C17.913,8.457,17.918,8.488,17.895,8.512z"/>
	<path fill="#B6F645" d="M18.099,5.877c-0.014-0.012-0.012-0.028-0.012-0.044c0-0.058,0-0.115,0-0.173c0-0.103,0-0.207,0-0.31
		c0-0.058,0-0.058,0.037-0.099c0.02-0.01,0.043-0.009,0.064-0.01c0.091-0.004,0.183-0.005,0.274,0
		c0.087,0.005,0.174,0.019,0.259,0.038c0.006,0.001,0.01,0.005,0.016,0.008c-0.004,0-0.008,0-0.012,0.001
		c-0.03,0.007-0.036,0.012-0.038,0.037c-0.001,0.016,0,0.032,0,0.048c0,0.168,0,0.336,0,0.503c0,0.026,0.001,0.052-0.015,0.075
		c-0.022,0.008-0.039-0.005-0.055-0.016c-0.139-0.087-0.288-0.098-0.444-0.061C18.149,5.881,18.124,5.897,18.099,5.877z"/>
	<path fill="#BBF642" d="M18.134,7.315c0-0.163,0.001-0.327,0.001-0.49c0-0.016,0-0.032,0-0.048c0.001-0.04,0.003-0.042,0.05-0.05
		c0.006-0.004,0.013-0.006,0.02-0.005c0.097-0.002,0.193,0.01,0.29-0.007c0.077-0.02,0.157-0.019,0.234-0.035
		c0.019-0.004,0.04-0.004,0.055,0.012c-0.001,0.001-0.002,0.004-0.004,0.004c-0.013,0.005-0.029,0.007-0.037,0.016
		c-0.009,0.011-0.012,0.029-0.015,0.044c-0.003,0.013-0.004,0.027-0.005,0.041c0,0.121,0,0.243,0,0.364c0,0.018,0,0.036,0.009,0.052
		c0.007,0.012,0.016,0.017,0.028,0.02c-0.047,0.021-0.098,0.029-0.148,0.04c-0.1,0.023-0.201,0.042-0.305,0.046
		c-0.016,0.001-0.032,0.004-0.047-0.002c-0.014,0.006-0.029,0.005-0.043,0C18.189,7.322,18.162,7.32,18.134,7.315z"/>
	<path fill="#98FA54" d="M15.327,5.913c-0.012,0.001-0.024,0.003-0.035,0.003c-0.152,0-0.305,0-0.457,0
		c-0.012,0-0.024-0.002-0.035-0.003c-0.019-0.022-0.018-0.048-0.018-0.074c-0.001-0.154-0.001-0.308,0-0.462
		c0.001-0.079,0.005-0.083,0.087-0.082c0.154,0.002,0.308-0.005,0.461,0.003c0.017,0.017,0.018,0.04,0.018,0.062
		c0.001,0.162,0.001,0.324,0,0.486C15.347,5.87,15.345,5.894,15.327,5.913z"/>
	<path fill="#A9F84B" d="M17.895,8.512c0-0.163,0-0.326,0.001-0.49c0-0.014-0.001-0.028,0-0.042
		c0.002-0.034,0.019-0.051,0.052-0.053c0.032-0.001,0.064,0,0.096,0c0.028,0,0.056-0.001,0.084-0.002
		c0.014-0.001,0.028-0.003,0.042-0.002c0.08,0.002,0.159-0.003,0.238-0.019c0.006-0.001,0.012,0,0.018,0
		c0.014,0.02,0.007,0.042,0.007,0.064c0.001,0.183-0.007,0.366,0.005,0.548c-0.014,0.009-0.031,0.008-0.046,0.008
		C18.224,8.532,18.059,8.532,17.895,8.512z"/>
	<path fill="#C4F53D" d="M18.436,8.516c-0.012-0.004-0.023-0.008-0.024-0.023c-0.001-0.016-0.001-0.032-0.001-0.048
		c0-0.151,0-0.303,0-0.454c0-0.03,0.002-0.059,0.013-0.088c0.009-0.004,0.018-0.008,0.028-0.01c0.152-0.04,0.271-0.125,0.354-0.259
		c0.004-0.007,0.009-0.013,0.014-0.019c0,0.249,0,0.498,0,0.748c0,0.012,0,0.024,0.001,0.036c0.001,0.015,0.01,0.025,0.023,0.032
		c-0.052,0.027-0.109,0.038-0.165,0.051C18.598,8.5,18.518,8.517,18.436,8.516z"/>
	<path fill="#78FD64" d="M15.329,5.301c-0.159,0-0.318,0-0.477,0c-0.01,0-0.02,0-0.03,0.002c-0.011,0.001-0.018,0.008-0.019,0.019
		c-0.001,0.018-0.001,0.036-0.001,0.054c0,0.179-0.001,0.358-0.001,0.537c-0.014,0.001-0.028,0.003-0.042,0.003
		c-0.11,0-0.219,0-0.329,0c-0.012,0-0.024,0-0.036-0.001c-0.011-0.001-0.018-0.008-0.018-0.02c0-0.01-0.001-0.02-0.001-0.03
		c0-0.17-0.001-0.339,0-0.509c0.001-0.076-0.006-0.066,0.068-0.067c0.315,0,0.63,0,0.945,0c0.02,0,0.04,0.001,0.06,0.002
		C15.45,5.3,15.447,5.305,15.44,5.309C15.402,5.32,15.364,5.325,15.329,5.301z"/>
	<path fill="#BCF642" d="M15.329,5.301c0.04,0,0.08-0.001,0.12-0.001c0.108-0.008,0.216-0.011,0.324,0.002
		c0,0.204-0.001,0.408-0.001,0.611c-0.01,0.001-0.02,0.003-0.029,0.003c-0.129,0-0.257,0-0.386,0c-0.01,0-0.02-0.002-0.029-0.003
		c0-0.15,0.001-0.3,0.001-0.45C15.328,5.409,15.328,5.355,15.329,5.301z"/>
	<path fill="#98FA54" d="M15.772,5.302c-0.108-0.001-0.216-0.001-0.324-0.002c0-0.003,0-0.005,0-0.008
		c0.018-0.001,0.036-0.002,0.054-0.002c0.346,0,0.693,0,1.039,0c0.019,0,0.04-0.008,0.057,0.008
		c-0.109,0.001-0.219,0.002-0.328,0.003c-0.054,0-0.107,0.001-0.161,0.001C15.996,5.301,15.884,5.301,15.772,5.302z"/>
	<path fill="#95FA56" d="M18.218,7.318c0.014-0.002,0.029-0.004,0.043,0C18.246,7.324,18.232,7.324,18.218,7.318z"/>
	<path fill="#D2F337" d="M16.144,6.955c0-0.009,0.002-0.018,0.011-0.023C16.156,6.942,16.152,6.949,16.144,6.955z"/>
	<path fill="#BAF642" d="M15.821,6.081c0,0.01-0.003,0.018-0.013,0.023C15.807,6.094,15.813,6.087,15.821,6.081z"/>
	<path fill="#BAF642" d="M15.808,6.104c0,0.01-0.002,0.019-0.011,0.025C15.796,6.118,15.799,6.11,15.808,6.104z"/>
	<path fill="#BAF642" d="M15.784,6.152c0,0.01-0.002,0.019-0.012,0.025C15.772,6.166,15.775,6.157,15.784,6.152z"/>
	<path fill="#BAF642" d="M15.772,6.176c0,0.01-0.002,0.019-0.012,0.024C15.761,6.19,15.764,6.182,15.772,6.176z"/>
	<path fill="#BAF642" d="M15.76,6.2c0,0.01-0.003,0.019-0.012,0.024C15.747,6.214,15.75,6.205,15.76,6.2z"/>
	<path fill="#BAF642" d="M15.797,6.129c0,0.01-0.003,0.019-0.013,0.023C15.783,6.142,15.789,6.135,15.797,6.129z"/>
	<path fill="#D2F337" d="M16.158,6.924c0-0.007,0.003-0.012,0.009-0.016C16.167,6.915,16.164,6.92,16.158,6.924z"/>
	<path fill="#D2F337" d="M16.135,6.971c0-0.007,0.003-0.012,0.009-0.015C16.144,6.963,16.142,6.968,16.135,6.971z"/>
	<path fill="#BAF642" d="M15.858,7.522c0-0.007,0.003-0.011,0.009-0.014C15.867,7.515,15.864,7.52,15.858,7.522z"/>
	<path fill="#BAF642" d="M15.846,7.548c0-0.007,0.002-0.012,0.008-0.016C15.855,7.539,15.853,7.544,15.846,7.548z"/>
	<path fill="#BAF642" d="M15.834,7.57c0-0.007,0.003-0.011,0.009-0.014C15.844,7.563,15.84,7.568,15.834,7.57z"/>
	<path fill="#BAF642" d="M15.822,7.595c0-0.007,0.002-0.012,0.008-0.015C15.83,7.587,15.828,7.592,15.822,7.595z"/>
	<path fill="#BAF642" d="M15.81,7.619c0-0.007,0.003-0.012,0.008-0.015C15.819,7.611,15.817,7.616,15.81,7.619z"/>
	<path fill="#BAF642" d="M15.798,7.643c0-0.006,0.002-0.011,0.008-0.015C15.806,7.635,15.804,7.64,15.798,7.643z"/>
	<path fill="#BAF642" d="M15.787,7.666c-0.001-0.007,0.002-0.011,0.008-0.014C15.795,7.659,15.793,7.664,15.787,7.666z"/>
	<path fill="#A3F94F" d="M15.426,8.386c0-0.006,0.003-0.011,0.008-0.014C15.435,8.378,15.432,8.383,15.426,8.386z"/>
	<path fill="#C4F53D" d="M18.855,8.428c0.003-0.006,0.008-0.008,0.015-0.007C18.867,8.427,18.862,8.429,18.855,8.428z"/>
	<path d="M18.194,6.729L18.19,6.726c0,0-0.005,0.001-0.005,0.001c-0.009-0.003-0.018-0.007-0.028-0.01
		c-0.029-0.009-0.058-0.015-0.086-0.025c-0.132-0.05-0.211-0.146-0.238-0.284c-0.019-0.098-0.014-0.195,0.023-0.288
		c0.035-0.089,0.093-0.157,0.176-0.205c0.022-0.013,0.045-0.025,0.068-0.037c0.046-0.01,0.092-0.024,0.139-0.031
		c0.098-0.014,0.194-0.009,0.288,0.026c0.041,0.015,0.08,0.036,0.116,0.061c0.01,0.007,0.02,0.013,0.03,0.019
		c0.041,0.046,0.083,0.09,0.115,0.144c0.049,0.083,0.079,0.174,0.099,0.267c0.017,0.08,0.023,0.161,0.028,0.243
		c0.001,0.012,0,0.024,0,0.036c0,0.014-0.007,0.022-0.021,0.025c-0.027,0.005-0.055,0.01-0.082,0.016
		c-0.01,0.002-0.019,0.006-0.028,0.009c-0.032-0.004-0.063,0.008-0.094,0.012c-0.065,0.008-0.13,0.017-0.195,0.025
		C18.395,6.736,18.294,6.738,18.194,6.729z"/>
	<path fill="#95FA56" d="M18.194,6.729c0.1,0.008,0.2,0.002,0.3,0.001c-0.007,0.007-0.016,0.01-0.027,0.01c-0.081,0-0.161,0-0.242,0
		C18.214,6.74,18.203,6.738,18.194,6.729z"/>
</g>
</svg>
