<?xml version="1.0" encoding="utf-8"?>
<!-- Generator: Adobe Illustrator 24.3.0, SVG Export Plug-In . SVG Version: 6.00 Build 0)  -->
<svg version="1.1" id="Слой_1" xmlns="http://www.w3.org/2000/svg" xmlns:xlink="http://www.w3.org/1999/xlink" x="0px" y="0px"
	 width="32px" height="13px" viewBox="0 0 32 13" enable-background="new 0 0 32 13" xml:space="preserve">
<g>
	<path d="M19.786,13c-2.524,0-5.047,0-7.571,0c-0.076-0.076-0.12-0.173-0.172-0.264c-0.225-0.395-0.457-0.786-0.686-1.179
		c-0.337-0.58-0.677-1.158-1.014-1.738C9.924,9.096,9.5,8.374,9.081,7.651C8.884,7.312,8.687,6.973,8.488,6.636
		C8.472,6.61,8.46,6.582,8.443,6.557c-0.03-0.044-0.022-0.082,0.003-0.125c0.427-0.725,0.849-1.453,1.273-2.18
		c0.524-0.901,1.05-1.801,1.574-2.702c0.288-0.495,0.574-0.991,0.867-1.483c0.02-0.034,0.038-0.066,0.086-0.058
		c2.502,0,5.005,0,7.507,0c0.043-0.005,0.069,0.014,0.091,0.051c0.21,0.354,0.413,0.713,0.622,1.068
		c0.218,0.37,0.433,0.742,0.65,1.113c0.234,0.402,0.467,0.804,0.701,1.205c0.283,0.483,0.565,0.968,0.847,1.452
		c0.229,0.393,0.46,0.784,0.687,1.179c0.061,0.107,0.119,0.216,0.188,0.317c0.05,0.073,0.047,0.134,0.003,0.207
		c-0.146,0.246-0.291,0.493-0.434,0.741c-0.279,0.483-0.561,0.964-0.842,1.446c-0.283,0.484-0.564,0.968-0.847,1.452
		c-0.23,0.392-0.457,0.787-0.687,1.179c-0.296,0.505-0.587,1.013-0.886,1.516C19.831,12.96,19.814,12.985,19.786,13z"/>
	<path d="M3,6.47c0.023,0.002,0.028-0.017,0.036-0.032c0.045-0.09,0.089-0.18,0.134-0.27C3.304,5.898,3.439,5.629,3.573,5.36
		C3.7,5.106,3.826,4.852,3.953,4.598C4.084,4.336,4.215,4.073,4.347,3.81C4.441,3.622,4.535,3.434,4.63,3.245
		c0.003-0.007,0.008-0.013,0.01-0.02c0.009-0.027,0.027-0.04,0.057-0.039c0.023,0.001,0.045-0.001,0.068-0.002
		c0.387-0.014,0.773-0.028,1.16-0.042c0.166-0.006,0.331-0.011,0.498-0.017C6.433,3.147,6.419,3.163,6.41,3.18
		C6.296,3.409,6.182,3.637,6.067,3.867C5.9,4.201,5.734,4.536,5.567,4.871c-0.13,0.261-0.26,0.521-0.39,0.781
		C5.061,5.883,4.945,6.114,4.83,6.346C4.821,6.364,4.814,6.383,4.803,6.4C4.788,6.424,4.791,6.445,4.803,6.47
		c0.12,0.251,0.24,0.503,0.359,0.754c0.094,0.197,0.186,0.395,0.28,0.592c0.153,0.322,0.306,0.644,0.459,0.966
		c0.125,0.263,0.25,0.526,0.376,0.788c0.043,0.091,0.088,0.18,0.132,0.271C6.417,9.86,6.423,9.878,6.431,9.897
		C6.424,9.9,6.421,9.905,6.417,9.905C6.269,9.893,6.122,9.88,5.974,9.868c-0.15-0.012-0.301-0.023-0.451-0.035
		C5.36,9.82,5.198,9.806,5.035,9.793C4.947,9.786,4.86,9.779,4.772,9.773C4.749,9.771,4.727,9.768,4.704,9.769
		C4.667,9.769,4.646,9.75,4.631,9.717C4.555,9.561,4.479,9.406,4.402,9.251C4.272,8.99,4.142,8.73,4.012,8.47
		C3.887,8.22,3.763,7.971,3.639,7.722c-0.134-0.27-0.268-0.539-0.403-0.809c-0.066-0.132-0.133-0.264-0.2-0.397
		C3.028,6.501,3.023,6.483,3,6.485C3,6.48,3,6.475,3,6.47z"/>
	<path fill="#383838" d="M19.786,0c0.004,0.003,0.006,0.008,0.004,0.013c-0.033,0.001-0.065,0.002-0.098,0.002
		c-2.452,0-4.904,0-7.356,0c-0.04,0-0.08,0-0.121,0c0-0.005,0-0.01-0.001-0.015C14.739,0,17.262,0,19.786,0z"/>
	<path fill="#F100FF" d="M19.331,0.8c0.022,0.015,0.03,0.04,0.042,0.061c0.164,0.281,0.328,0.563,0.492,0.845
		c0.124,0.212,0.248,0.424,0.372,0.636c0.094,0.16,0.187,0.32,0.281,0.48c0.014,0.024,0.031,0.045,0.037,0.073
		c-0.043,0.017-0.061-0.014-0.075-0.042c-0.059-0.119-0.153-0.205-0.259-0.279c-0.591-0.416-1.237-0.704-1.943-0.862
		c-0.474-0.106-0.954-0.138-1.437-0.12c-0.53,0.02-1.047,0.122-1.548,0.299c-0.009,0.003-0.019,0.006-0.031,0.017
		c0.039,0.002,0.075,0.001,0.111,0.001c1.053,0,2.105,0,3.158,0c0.033,0,0.066-0.003,0.098,0.004
		c0.019,0.004,0.049,0.003,0.039,0.038c-0.027-0.008-0.055-0.006-0.082-0.006c-1.719,0-3.438,0-5.157,0
		c-0.008,0-0.015,0.001-0.023,0c-0.039-0.006-0.063,0.008-0.084,0.045c-0.068,0.123-0.142,0.243-0.213,0.364
		c-0.187,0.321-0.374,0.643-0.56,0.964c-0.13,0.224-0.26,0.447-0.391,0.67c-0.129,0.221-0.258,0.443-0.387,0.664
		c-0.128,0.219-0.256,0.438-0.383,0.657c-0.13,0.223-0.26,0.447-0.391,0.67c-0.09,0.154-0.181,0.307-0.27,0.462
		c-0.041,0.071-0.041,0.046,0.001,0.12c0.16,0.276,0.321,0.551,0.481,0.827c0.168,0.289,0.336,0.577,0.504,0.866
		c0.129,0.221,0.258,0.443,0.387,0.664c0.129,0.221,0.258,0.443,0.387,0.664c0.13,0.223,0.261,0.447,0.391,0.67
		c0.129,0.221,0.258,0.442,0.387,0.664c0.021,0.037,0.044,0.073,0.065,0.11c0.006,0.01,0,0.019-0.013,0.021
		c-0.005,0.001-0.01,0.001-0.015,0.001c-0.081-0.002-0.067,0.003-0.1,0.066c-0.08,0.148-0.158,0.297-0.237,0.446
		c-0.099,0.186-0.2,0.372-0.3,0.557c-0.005,0.009-0.011,0.017-0.018,0.028c-0.02-0.009-0.026-0.029-0.035-0.045
		c-0.144-0.247-0.288-0.495-0.432-0.742c-0.137-0.234-0.273-0.469-0.41-0.703c-0.125-0.215-0.25-0.43-0.376-0.644
		c-0.134-0.23-0.268-0.46-0.402-0.69c-0.062-0.106-0.125-0.212-0.187-0.318c-0.01-0.017-0.018-0.036-0.026-0.054
		c-0.055-0.132-0.114-0.261-0.15-0.4c-0.093-0.361-0.16-0.726-0.186-1.098c-0.014-0.198-0.031-0.396-0.028-0.594
		c0.011-0.879,0.181-1.725,0.528-2.536c0.28-0.656,0.66-1.247,1.128-1.782c0.503-0.575,1.097-1.037,1.762-1.412
		c0.208-0.117,0.429-0.21,0.64-0.321c0.026-0.014,0.053-0.014,0.08-0.014c1.573,0,3.147,0,4.72,0
		C19.292,0.792,19.313,0.786,19.331,0.8z"/>
	<path fill="#666666" d="M12.859,12.113c0.002-0.035,0.016-0.054,0.027-0.073c0.137-0.24,0.259-0.488,0.392-0.73
		c0.013-0.024,0.028-0.047,0.041-0.072c0.013-0.026,0.033-0.034,0.061-0.033c0.023,0.001,0.045,0,0.068,0c1.717,0,3.434,0,5.15,0
		c0.093,0,0.094,0.001,0.141-0.079c0.095-0.163,0.188-0.326,0.283-0.489c0.114-0.195,0.228-0.39,0.342-0.586
		c0.154-0.265,0.308-0.53,0.462-0.795c0.092-0.158,0.186-0.316,0.278-0.474c0.154-0.265,0.308-0.53,0.462-0.795
		c0.106-0.182,0.213-0.364,0.319-0.547c0.018-0.03,0.021-0.032,0.054-0.021c0.119,0.04,0.237,0.081,0.356,0.122
		c0.133,0.046,0.266,0.092,0.398,0.138c0.019,0.007,0.038,0.013,0.056,0.021c0.024,0.01,0.028,0.018,0.016,0.039
		c-0.021,0.037-0.042,0.074-0.063,0.111c-0.075,0.131-0.148,0.263-0.227,0.391c-0.108,0.176-0.208,0.356-0.311,0.534
		c-0.142,0.243-0.283,0.486-0.425,0.729c-0.108,0.184-0.216,0.368-0.324,0.553c-0.138,0.236-0.275,0.473-0.413,0.71
		c-0.108,0.184-0.216,0.368-0.323,0.553c-0.049,0.085-0.098,0.17-0.147,0.254c-0.095,0.163-0.19,0.325-0.285,0.488
		c-0.006,0.011-0.013,0.021-0.02,0.032c-0.007,0.012-0.019,0.016-0.032,0.017c-0.018,0.001-0.035,0.001-0.053,0.001
		c-2.071,0-4.142,0-6.214,0C12.907,12.113,12.885,12.113,12.859,12.113z"/>
	<path fill="#FC00FF" d="M18.668,1.951c-0.005-0.013-0.015-0.019-0.029-0.02c-0.025-0.001-0.05-0.001-0.075-0.001
		c-1.093,0-2.186,0-3.279,0c-0.025,0-0.05-0.001-0.075-0.001c-0.006,0-0.01-0.003-0.009-0.009c0.001-0.004,0.003-0.009,0.006-0.013
		c0.003-0.004,0.008-0.006,0.013-0.008c0.025-0.012,0.049-0.024,0.076-0.033c0.133-0.045,0.268-0.083,0.402-0.121
		c0.14-0.04,0.282-0.065,0.423-0.098c0.046-0.011,0.094-0.012,0.141-0.019c0.049-0.007,0.099-0.013,0.148-0.023
		c0.02-0.004,0.039-0.007,0.059-0.007c0.03,0,0.06,0,0.089-0.011c0.016-0.006,0.035-0.003,0.052-0.004
		c0.057-0.002,0.115,0.006,0.172-0.013c0.014-0.005,0.03-0.002,0.045-0.002c0.178,0,0.357,0,0.535,0c0.028,0,0.055-0.002,0.082,0.01
		c0.007,0.003,0.015,0.004,0.022,0.004c0.08,0,0.16,0.005,0.239,0.014c0.069,0.008,0.138,0.02,0.207,0.027
		c0.078,0.007,0.152,0.027,0.229,0.037c0.067,0.009,0.132,0.028,0.197,0.043c0.163,0.037,0.325,0.082,0.484,0.135
		c0.18,0.06,0.359,0.127,0.53,0.212c0.043,0.021,0.088,0.037,0.13,0.058c0.234,0.116,0.459,0.247,0.675,0.392
		c0.101,0.067,0.19,0.147,0.278,0.229c0.008,0.007,0.013,0.015,0.015,0.025c0.002,0.016,0.008,0.029,0.022,0.037
		c0.016,0.01,0.022,0.026,0.025,0.044c0.005,0.033,0.024,0.054,0.059,0.059c0.048,0.079,0.098,0.157,0.145,0.237
		c0.105,0.18,0.208,0.361,0.313,0.541c0.134,0.23,0.268,0.46,0.402,0.69c0.116,0.2,0.233,0.399,0.349,0.598
		c0.142,0.243,0.283,0.486,0.424,0.729c0.128,0.219,0.256,0.438,0.384,0.657c0.016,0.028,0.035,0.055,0.051,0.083
		c0.046,0.079,0.045,0.06,0.002,0.134c-0.066,0.113-0.132,0.225-0.198,0.338c-0.13,0.223-0.261,0.447-0.391,0.67
		c-0.006,0.011-0.012,0.022-0.019,0.032c-0.006,0.009-0.016,0.013-0.026,0.01c-0.01-0.002-0.019-0.006-0.028-0.01
		c-0.339-0.117-0.678-0.234-1.017-0.351c-0.016-0.006-0.032-0.013-0.048-0.019c0.003-0.029,0.02-0.048,0.032-0.069
		c0.115-0.197,0.23-0.395,0.345-0.592c0.01-0.017,0.02-0.035,0.03-0.052c0.008-0.014,0.009-0.028,0.001-0.043
		c-0.006-0.011-0.013-0.022-0.019-0.033c-0.199-0.343-0.398-0.686-0.598-1.029c-0.1-0.171-0.2-0.342-0.3-0.514
		c-0.011-0.019-0.026-0.037-0.03-0.06c-0.003-0.006-0.007-0.012-0.011-0.018c-0.005-0.002-0.006-0.005-0.005-0.01
		c-0.001-0.009-0.006-0.015-0.012-0.02l-0.001-0.002c-0.009-0.007-0.006-0.021-0.016-0.028l0,0c-0.004-0.005-0.007-0.01-0.01-0.015
		c-0.005-0.003-0.007-0.007-0.006-0.012c-0.002-0.008-0.007-0.013-0.012-0.019l-0.001-0.002c-0.005-0.003-0.008-0.007-0.01-0.013
		c-0.005-0.003-0.007-0.007-0.006-0.012c-0.002-0.007-0.007-0.012-0.011-0.018c-0.005-0.002-0.006-0.005-0.005-0.01
		c-0.001-0.009-0.006-0.015-0.012-0.021l-0.001-0.001c-0.009-0.007-0.006-0.022-0.016-0.028l0,0c-0.004-0.005-0.007-0.01-0.01-0.015
		c-0.005-0.002-0.007-0.006-0.006-0.012C20.205,4.581,20.2,4.576,20.195,4.57c-0.005-0.001-0.006-0.004-0.004-0.009
		c0-0.01-0.006-0.016-0.012-0.022l-0.001-0.001c-0.009-0.008-0.005-0.022-0.016-0.029l0,0c-0.003-0.005-0.007-0.011-0.011-0.016
		c-0.005-0.002-0.007-0.006-0.005-0.011c-0.001-0.008-0.007-0.014-0.012-0.02l-0.001-0.002c-0.01-0.007-0.006-0.021-0.016-0.028
		l0-0.001c-0.004-0.004-0.008-0.009-0.01-0.014c-0.002-0.004-0.004-0.009-0.006-0.013c-0.003-0.006-0.007-0.012-0.011-0.017
		c-0.005-0.002-0.006-0.005-0.005-0.01c-0.001-0.009-0.006-0.014-0.012-0.02l-0.001-0.001c-0.009-0.007-0.006-0.021-0.016-0.028l0,0
		c-0.004-0.005-0.007-0.01-0.01-0.015c-0.005-0.003-0.007-0.007-0.006-0.012c-0.002-0.007-0.007-0.012-0.011-0.018
		c-0.005-0.002-0.006-0.005-0.005-0.009c0-0.009-0.006-0.015-0.012-0.021l-0.001-0.001c-0.009-0.008-0.005-0.022-0.016-0.028l0,0
		c-0.004-0.005-0.007-0.01-0.01-0.016c-0.005-0.002-0.007-0.006-0.005-0.012c-0.001-0.008-0.007-0.013-0.011-0.019
		c-0.004-0.001-0.006-0.004-0.004-0.008c0-0.01-0.006-0.016-0.013-0.022l-0.001-0.001c-0.004-0.004-0.008-0.008-0.01-0.014
		c-0.002-0.005-0.004-0.009-0.006-0.014c-0.003-0.006-0.007-0.011-0.011-0.017c-0.005-0.002-0.006-0.006-0.005-0.011
		c-0.001-0.008-0.007-0.014-0.012-0.02L19.907,4.07c-0.009-0.007-0.006-0.022-0.018-0.027l0.001,0.001
		c-0.001-0.008-0.008-0.012-0.012-0.017l-0.001-0.002c-0.01-0.007-0.006-0.021-0.016-0.028l0-0.001
		c-0.004-0.004-0.008-0.009-0.01-0.014c-0.002-0.004-0.004-0.009-0.006-0.013c-0.003-0.006-0.007-0.012-0.011-0.017
		c-0.005-0.002-0.006-0.006-0.005-0.01c-0.001-0.009-0.006-0.014-0.012-0.02L19.816,3.92c-0.009-0.007-0.006-0.021-0.016-0.028l0,0
		c-0.004-0.005-0.007-0.009-0.01-0.015c-0.005-0.003-0.007-0.007-0.006-0.012c-0.002-0.007-0.007-0.012-0.011-0.018
		c-0.005-0.002-0.006-0.005-0.005-0.01c-0.001-0.009-0.006-0.015-0.012-0.021l-0.001-0.001c-0.009-0.007-0.006-0.022-0.016-0.028
		l0,0c-0.004-0.005-0.007-0.01-0.01-0.015c-0.005-0.002-0.007-0.006-0.005-0.012c-0.001-0.008-0.007-0.013-0.011-0.019
		c-0.005-0.001-0.006-0.004-0.004-0.009c0-0.01-0.006-0.016-0.012-0.022l-0.001-0.001c-0.004-0.004-0.008-0.008-0.01-0.014
		c-0.002-0.005-0.004-0.009-0.006-0.014c-0.003-0.006-0.007-0.011-0.011-0.017c-0.005-0.002-0.007-0.006-0.005-0.011
		c-0.001-0.008-0.007-0.014-0.012-0.02l-0.001-0.002c-0.01-0.007-0.006-0.021-0.016-0.028l0-0.001
		c-0.004-0.004-0.008-0.009-0.01-0.014c-0.005-0.003-0.007-0.007-0.006-0.013c-0.003-0.006-0.007-0.012-0.011-0.018
		c-0.005-0.002-0.006-0.005-0.005-0.01c-0.001-0.009-0.006-0.015-0.012-0.02L19.59,3.528c-0.009-0.007-0.006-0.021-0.016-0.028l0,0
		c-0.004-0.005-0.007-0.01-0.01-0.015c-0.005-0.003-0.007-0.007-0.006-0.012c-0.002-0.007-0.007-0.012-0.011-0.018
		c-0.005-0.002-0.006-0.005-0.005-0.009c0-0.009-0.006-0.015-0.012-0.021L19.53,3.423c-0.009-0.007-0.005-0.022-0.016-0.028l0,0
		c-0.004-0.006-0.008-0.011-0.012-0.016L19.5,3.376c-0.009-0.007-0.006-0.021-0.016-0.027l0,0c-0.004-0.005-0.007-0.01-0.01-0.015
		c-0.005-0.003-0.007-0.006-0.006-0.012c-0.002-0.008-0.007-0.013-0.011-0.019c-0.005-0.001-0.006-0.004-0.004-0.009
		c0-0.009-0.006-0.016-0.012-0.021l-0.001-0.001c-0.009-0.008-0.005-0.022-0.016-0.029l0,0c-0.003-0.005-0.007-0.011-0.011-0.016
		c-0.005-0.002-0.007-0.006-0.005-0.011c-0.001-0.008-0.007-0.014-0.012-0.02l-0.001-0.002c-0.01-0.007-0.006-0.021-0.016-0.028
		l0-0.001c-0.004-0.004-0.008-0.009-0.01-0.014c-0.002-0.004-0.004-0.009-0.006-0.013c-0.003-0.006-0.007-0.012-0.011-0.017
		c-0.005-0.002-0.006-0.005-0.005-0.01c-0.001-0.009-0.006-0.014-0.012-0.02L19.334,3.09c-0.009-0.007-0.006-0.021-0.016-0.028l0,0
		c-0.004-0.005-0.007-0.01-0.01-0.015c-0.005-0.003-0.007-0.007-0.006-0.012c-0.002-0.007-0.007-0.012-0.011-0.018
		c-0.005-0.002-0.006-0.005-0.005-0.009c0-0.009-0.006-0.015-0.012-0.021l-0.001-0.001c-0.009-0.007-0.006-0.022-0.016-0.028l0,0
		c-0.004-0.005-0.007-0.01-0.01-0.016c-0.005-0.002-0.007-0.006-0.005-0.012c-0.001-0.008-0.007-0.013-0.011-0.019
		c-0.005-0.001-0.006-0.004-0.004-0.009c0-0.01-0.006-0.016-0.013-0.022l0-0.001c-0.009-0.008-0.005-0.023-0.017-0.029l0,0.001
		c-0.003-0.005-0.007-0.011-0.011-0.016c-0.005-0.002-0.006-0.006-0.005-0.011c-0.001-0.008-0.007-0.014-0.012-0.02l-0.001-0.002
		c-0.01-0.007-0.006-0.021-0.016-0.028l0,0c-0.004-0.004-0.008-0.009-0.01-0.014c-0.005-0.003-0.007-0.007-0.006-0.013
		c-0.003-0.006-0.007-0.012-0.011-0.018c-0.009-0.007-0.018-0.015-0.019-0.028c-0.003-0.006-0.007-0.012-0.011-0.017
		c-0.005-0.002-0.006-0.006-0.005-0.011c-0.001-0.008-0.007-0.014-0.012-0.02l-0.001-0.002c-0.009-0.007-0.006-0.021-0.016-0.028
		l0,0c-0.004-0.005-0.007-0.009-0.01-0.015c-0.005-0.003-0.007-0.007-0.006-0.012c-0.002-0.007-0.007-0.012-0.011-0.018
		c-0.005-0.002-0.006-0.005-0.005-0.01c-0.001-0.009-0.006-0.015-0.012-0.021l-0.001-0.001c-0.009-0.007-0.006-0.022-0.016-0.028
		l0,0c-0.004-0.005-0.007-0.01-0.01-0.015c-0.005-0.003-0.007-0.006-0.006-0.012c-0.002-0.008-0.007-0.013-0.011-0.019
		c-0.005-0.001-0.006-0.004-0.004-0.009c0-0.01-0.006-0.016-0.012-0.022l0-0.001c-0.009-0.008-0.005-0.022-0.017-0.029l0,0.001
		c-0.003-0.005-0.007-0.011-0.01-0.016c-0.005-0.002-0.007-0.006-0.005-0.011c-0.001-0.008-0.007-0.014-0.012-0.02l-0.001-0.002
		c-0.01-0.007-0.006-0.021-0.016-0.028l0,0c-0.004-0.004-0.008-0.009-0.01-0.014c-0.002-0.004-0.004-0.009-0.006-0.013
		c-0.003-0.006-0.007-0.012-0.011-0.017c-0.005-0.002-0.006-0.005-0.005-0.01c-0.001-0.009-0.007-0.014-0.012-0.02l-0.001-0.001
		c-0.009-0.007-0.006-0.021-0.016-0.028l0,0c-0.004-0.005-0.007-0.01-0.01-0.015c-0.005-0.003-0.007-0.007-0.006-0.012
		c-0.002-0.007-0.007-0.012-0.011-0.018c-0.005-0.002-0.006-0.005-0.005-0.01c-0.001-0.009-0.006-0.015-0.012-0.021l-0.001-0.001
		c-0.009-0.007-0.006-0.022-0.016-0.029l0,0c-0.004-0.005-0.007-0.01-0.01-0.016C18.759,2.11,18.758,2.106,18.759,2.1
		c-0.002-0.008-0.007-0.013-0.011-0.019c-0.005-0.001-0.006-0.004-0.004-0.009c0-0.01-0.006-0.016-0.014-0.021l0,0
		c-0.004-0.005-0.008-0.011-0.012-0.016c-0.005-0.001-0.006-0.004-0.005-0.009c0-0.009-0.006-0.016-0.012-0.021l0-0.001
		c-0.009-0.008-0.005-0.022-0.016-0.029l0,0.001c-0.004-0.005-0.007-0.011-0.011-0.016C18.669,1.959,18.667,1.956,18.668,1.951z"/>
	<path fill="#DC00FF" d="M19.331,0.8c-1.573,0-3.147,0-4.72,0c-0.02,0-0.04,0.001-0.06,0c-0.026-0.001-0.046,0.008-0.068,0.023
		c-0.05,0.032-0.105,0.061-0.16,0.083c-0.091,0.037-0.177,0.083-0.265,0.127c-0.157,0.079-0.31,0.165-0.459,0.257
		c-0.122,0.075-0.24,0.155-0.358,0.235c-0.093,0.063-0.181,0.134-0.27,0.202c-0.068,0.051-0.138,0.1-0.2,0.158
		c-0.059,0.055-0.121,0.105-0.18,0.159c-0.101,0.091-0.2,0.183-0.293,0.282c-0.084,0.089-0.166,0.18-0.247,0.272
		c-0.06,0.068-0.116,0.138-0.173,0.208c-0.06,0.073-0.119,0.148-0.174,0.226c-0.081,0.114-0.16,0.23-0.236,0.348
		c-0.084,0.131-0.166,0.262-0.238,0.4c-0.043,0.082-0.09,0.162-0.129,0.247c-0.053,0.116-0.105,0.233-0.156,0.35
		c-0.084,0.191-0.149,0.388-0.214,0.586c-0.021,0.064-0.037,0.13-0.055,0.195c-0.022,0.08-0.046,0.159-0.064,0.239
		c-0.026,0.117-0.056,0.233-0.071,0.352c-0.01,0.074-0.028,0.147-0.04,0.221c-0.008,0.047-0.009,0.094-0.017,0.141
		c-0.007,0.046-0.014,0.094-0.015,0.141c-0.003,0.123-0.027,0.244-0.018,0.367c0.002,0.03,0,0.06-0.01,0.089
		c-0.006,0.018-0.004,0.04-0.005,0.06c0,0.08,0,0.161,0,0.241c0,0.03,0,0.06,0.01,0.089c0.006,0.018,0.005,0.04,0.005,0.06
		c0.001,0.053,0,0.106,0,0.158c0,0.028-0.002,0.055,0.01,0.082c0.003,0.007,0.005,0.015,0.004,0.022
		c-0.008,0.078,0.013,0.154,0.017,0.232c0.002,0.055,0.008,0.11,0.018,0.164c0.016,0.086,0.029,0.172,0.043,0.258
		c0.013,0.079,0.035,0.156,0.05,0.234c0.025,0.13,0.066,0.256,0.1,0.384c0.003,0.01,0.004,0.02,0.009,0.028
		c0.031,0.049,0.034,0.11,0.069,0.157c0.016,0.022,0.012,0.048,0.009,0.073c-0.009-0.012-0.019-0.023-0.026-0.036
		c-0.166-0.284-0.331-0.569-0.496-0.853C10.114,7.815,9.972,7.57,9.829,7.325c-0.12-0.206-0.24-0.412-0.361-0.618
		C9.444,6.666,9.418,6.626,9.395,6.585c-0.059-0.106-0.06-0.065-0.002-0.166c0.105-0.183,0.212-0.364,0.319-0.547
		c0.152-0.26,0.303-0.521,0.455-0.781c0.128-0.219,0.256-0.438,0.383-0.657c0.13-0.223,0.26-0.447,0.391-0.67
		c0.128-0.219,0.256-0.438,0.383-0.657c0.132-0.226,0.263-0.451,0.394-0.677C11.843,2.215,11.968,2,12.093,1.786
		c0.133-0.228,0.265-0.456,0.398-0.683c0.053-0.091,0.109-0.181,0.16-0.273c0.017-0.031,0.038-0.044,0.072-0.04
		c0.012,0.001,0.025,0,0.038,0c2.151,0,4.302,0,6.452,0c0.03,0,0.06,0,0.09,0C19.315,0.79,19.324,0.791,19.331,0.8z"/>
	<path fill="#FF00FF" d="M15.066,4.313c0.124,0.059,0.227,0.146,0.315,0.251c0.101,0.121,0.168,0.261,0.214,0.411
		c0.063,0.207,0.078,0.419,0.067,0.633c-0.003,0.065-0.007,0.13-0.015,0.195c-0.042,0.345-0.177,0.652-0.388,0.926
		c-0.133,0.173-0.277,0.337-0.432,0.492c-0.103,0.103-0.207,0.205-0.314,0.303c-0.085,0.078-0.172,0.154-0.258,0.23
		c-0.037,0.017-0.057-0.008-0.075-0.032c-0.159-0.204-0.266-0.434-0.34-0.68c-0.018-0.06,0.007-0.113,0.035-0.164
		c0.066-0.072,0.131-0.144,0.198-0.215c0.151-0.161,0.289-0.333,0.403-0.523c0.09-0.151,0.141-0.315,0.147-0.491
		c0.002-0.055-0.003-0.11-0.013-0.165c-0.029-0.15-0.113-0.259-0.25-0.327c-0.054-0.027-0.112-0.042-0.169-0.062
		c-0.066-0.019-0.04-0.058-0.017-0.091c0.074-0.108,0.158-0.208,0.255-0.296c0.16-0.145,0.329-0.279,0.526-0.373
		C14.988,4.318,15.023,4.294,15.066,4.313z"/>
	<path fill="#EA00FF" d="M18.235,8.27c0.002,0.005,0,0.008-0.004,0.01c-0.008,0.008-0.005,0.021-0.013,0.029l0,0.001
		c-0.009,0.008-0.006,0.022-0.014,0.031c-0.002,0.005-0.003,0.01-0.005,0.014c-0.003,0.006-0.007,0.012-0.01,0.018
		c0.001,0.005,0,0.009-0.004,0.013c-0.004,0.006-0.01,0.011-0.01,0.019c0.002,0.005,0,0.008-0.004,0.011
		c-0.008,0.008-0.004,0.021-0.013,0.029l0,0.001c-0.009,0.008-0.007,0.022-0.014,0.031l0,0c-0.011,0.008-0.008,0.022-0.015,0.032
		c0.001,0.005,0,0.01-0.004,0.013c-0.004,0.006-0.009,0.011-0.01,0.019c0.002,0.005,0,0.008-0.004,0.011
		c-0.007,0.008-0.004,0.021-0.013,0.029l0,0.001c-0.07,0.087-0.167,0.141-0.253,0.209c-0.103,0.08-0.218,0.141-0.329,0.208
		c-0.011,0.006-0.022,0.012-0.035,0.007c-0.005-0.001-0.011-0.002-0.016-0.003c-0.01-0.007-0.022-0.005-0.032-0.01
		c-0.009-0.002-0.019-0.004-0.028-0.006c-0.009-0.005-0.021-0.004-0.029-0.01c-0.005-0.001-0.011-0.002-0.016-0.003
		c-0.01-0.008-0.022-0.006-0.033-0.01c-0.009-0.002-0.018-0.004-0.028-0.006c-0.009-0.006-0.021-0.004-0.03-0.01
		c-0.005-0.001-0.01-0.002-0.015-0.003c-0.01-0.008-0.023-0.007-0.034-0.011c-0.099-0.016-0.193-0.049-0.294-0.078
		c0.038-0.087,0.07-0.17,0.114-0.247c0.043,0.013,0.082,0.005,0.123-0.015c0.485-0.241,0.858-0.594,1.116-1.073
		c0.219-0.408,0.304-0.843,0.281-1.301c-0.008-0.166-0.045-0.328-0.088-0.489c-0.013-0.047-0.036-0.075-0.087-0.073
		c0.003-0.031,0.021-0.056,0.032-0.083c0.018-0.044,0.035-0.089,0.059-0.13c0.052-0.087,0.055-0.18,0.05-0.276
		c-0.002-0.029-0.007-0.035-0.036-0.035c-0.083-0.001-0.165,0-0.248,0c-0.027,0-0.055-0.002-0.082-0.004
		c-0.037-0.028-0.053-0.073-0.079-0.109c-0.212-0.293-0.471-0.532-0.785-0.713c-0.08-0.046-0.168-0.051-0.255-0.057
		c-0.112-0.007-0.224-0.024-0.338-0.021c-0.122,0.003-0.122,0.001-0.122,0.119c0,0.226,0,0.452,0,0.678
		c0,0.034,0.007,0.071-0.021,0.1c-0.017-0.01-0.011-0.026-0.011-0.04c0-0.138,0-0.276,0-0.414c0-0.133,0-0.266,0-0.399
		c0-0.02,0-0.04,0.001-0.06c0.001-0.011,0.008-0.018,0.019-0.019c0.012-0.001,0.025-0.002,0.037-0.002c0.507,0,1.015,0,1.522,0.001
		c0.01,0,0.02,0.002,0.03,0.003c0.163-0.001,0.245,0.119,0.334,0.227c0.388,0.471,0.624,1.009,0.698,1.616
		c0.004,0.034,0.022,0.067,0.01,0.102c-0.015,0.056-0.043,0.106-0.066,0.159c-0.087,0.194-0.176,0.388-0.263,0.581
		c-0.17,0.377-0.339,0.753-0.508,1.13c-0.016,0.036-0.036,0.071-0.055,0.107c-0.005,0.006-0.01,0.012-0.01,0.02
		c0.002,0.004,0,0.008-0.004,0.01c-0.008,0.008-0.005,0.021-0.014,0.029l0,0.001c-0.01,0.008-0.007,0.022-0.014,0.032
		c-0.002,0.005-0.003,0.009-0.005,0.014c-0.004,0.006-0.007,0.012-0.01,0.018c0.001,0.005,0,0.009-0.004,0.012
		C18.241,8.256,18.236,8.262,18.235,8.27z"/>
	<path fill="#FB00FF" d="M18.383,5.655c0.006-0.004,0.013-0.008,0.019-0.012c0.039-0.025,0.052-0.022,0.067,0.019
		c0.031,0.082,0.049,0.168,0.065,0.253c0.005,0.027,0.01,0.054,0.015,0.081c0.022,0.116,0.034,0.232,0.03,0.35
		c-0.002,0.063,0,0.125,0,0.188c0,0.032-0.003,0.064-0.01,0.097c-0.01,0.048-0.009,0.099-0.02,0.148
		c-0.024,0.11-0.045,0.219-0.077,0.328c-0.031,0.104-0.071,0.203-0.115,0.301c-0.036,0.08-0.083,0.154-0.125,0.231
		c-0.053,0.097-0.12,0.184-0.186,0.272c-0.038,0.05-0.08,0.096-0.122,0.142c-0.102,0.111-0.213,0.212-0.334,0.301
		c-0.147,0.109-0.304,0.203-0.471,0.278c-0.039,0.017-0.048,0.013-0.081-0.026c0.002-0.026,0.017-0.047,0.027-0.07
		c0.156-0.345,0.313-0.69,0.47-1.035c0.128-0.281,0.255-0.562,0.383-0.843c0.132-0.29,0.264-0.58,0.396-0.87
		C18.335,5.743,18.36,5.7,18.383,5.655z"/>
	<path fill="#ED00FF" d="M13.874,6.878c0.004,0.031-0.008,0.059-0.017,0.088c-0.007,0.019-0.007,0.037-0.003,0.058
		c0.015,0.074,0.045,0.143,0.072,0.213c0.024,0.061,0.053,0.119,0.081,0.178c0.052,0.109,0.121,0.207,0.191,0.305
		c0.014,0.019,0.031,0.033,0.056,0.034c-0.051,0.06-0.113,0.11-0.17,0.164c-0.034,0.032-0.071,0.061-0.106,0.091
		c-0.003,0.005-0.007,0.009-0.012,0.012l-0.003,0.003c-0.004,0.005-0.008,0.011-0.011,0.017l0.001-0.001
		c-0.012,0.009-0.001,0.01,0.004,0.012c0.127-0.001,0.254-0.003,0.381-0.003c0.062,0,0.124-0.005,0.186,0.004
		c0.006,0.028-0.016,0.035-0.034,0.041c-0.05,0.017-0.052,0.038-0.012,0.071c0.127,0.106,0.258,0.207,0.403,0.287
		c0.243,0.133,0.5,0.23,0.775,0.276c0.036,0.006,0.079,0.005,0.081,0.059c0,0.043-0.003,0.086,0.001,0.128
		c0.005,0.055-0.018,0.067-0.069,0.066c-0.291-0.002-0.583-0.001-0.874-0.001c-0.018,0.001-0.035-0.003-0.05-0.012
		c-0.279-0.165-0.552-0.34-0.778-0.578c-0.253-0.267-0.458-0.566-0.594-0.909c-0.012-0.029-0.032-0.059-0.012-0.093l0,0
		c0.006-0.004,0.011-0.009,0.015-0.015l0,0c0.006-0.004,0.011-0.009,0.015-0.015l0,0c0.006-0.004,0.011-0.009,0.015-0.015l0,0
		c0.006-0.004,0.011-0.01,0.015-0.015l0,0c0.005-0.005,0.01-0.01,0.015-0.015l0,0c0.005-0.005,0.01-0.01,0.015-0.015l0,0
		c0.005-0.005,0.01-0.01,0.015-0.015l0,0c0.005-0.005,0.01-0.01,0.015-0.015l0,0c0.005-0.005,0.01-0.01,0.015-0.015l0.001,0
		c0.005-0.005,0.009-0.01,0.015-0.014l0.001-0.001c0.004-0.005,0.009-0.01,0.015-0.014l0.001-0.001
		c0.004-0.005,0.009-0.01,0.014-0.014l0.001-0.001c0.004-0.005,0.009-0.01,0.014-0.014l0.001-0.001
		c0.004-0.005,0.009-0.01,0.014-0.014c0.013-0.015,0.026-0.03,0.04-0.044c0.078-0.078,0.155-0.156,0.233-0.234
		C13.855,6.893,13.865,6.886,13.874,6.878z"/>
	<path fill="#FD00FF" d="M16.558,5.125c0-0.273,0.001-0.547,0.001-0.82c0-0.023,0-0.045,0.001-0.068
		c0.001-0.018,0.012-0.028,0.029-0.028c0.1,0.003,0.2-0.014,0.299,0.011c0.01,0.002,0.02,0.004,0.03,0.003
		c0.081-0.008,0.159,0.012,0.239,0.017c0.047,0.003,0.094,0.015,0.135,0.041c0.108,0.068,0.216,0.134,0.317,0.213
		c0.057,0.045,0.105,0.099,0.165,0.141c0.04,0.028,0.075,0.066,0.102,0.109c0.016,0.025,0.039,0.045,0.061,0.066
		c0.073,0.07,0.127,0.154,0.185,0.236c0.017,0.024,0.032,0.051,0.036,0.082c-0.022,0.001-0.045,0.003-0.067,0.003
		c-0.486,0-0.972,0-1.458,0C16.608,5.131,16.582,5.136,16.558,5.125z"/>
	<path fill="#C800FF" d="M19.198,6.137c-0.006-0.016-0.012-0.033-0.017-0.049c-0.004-0.012-0.013-0.024-0.011-0.035
		c0.006-0.054-0.013-0.104-0.018-0.156c-0.006-0.057-0.019-0.113-0.032-0.169c-0.043-0.175-0.098-0.347-0.168-0.514
		c-0.042-0.101-0.085-0.203-0.144-0.298c-0.053-0.085-0.103-0.172-0.159-0.255c-0.043-0.064-0.093-0.124-0.139-0.186
		c-0.039-0.053-0.089-0.095-0.125-0.15c-0.044-0.065-0.113-0.098-0.188-0.116c-0.014-0.004-0.03-0.002-0.04-0.016
		c0.015-0.001,0.03-0.004,0.044-0.004c0.219,0,0.438,0,0.657,0.001c0.012,0,0.025,0.002,0.037,0.003
		c0.053,0.016,0.088,0.053,0.12,0.097c0.203,0.278,0.365,0.577,0.476,0.903c0.02,0.058,0.065,0.108,0.053,0.176
		c-0.007,0.019-0.012,0.038-0.02,0.056c-0.1,0.223-0.2,0.446-0.301,0.668C19.216,6.108,19.214,6.127,19.198,6.137z"/>
	<path fill="#EC00FF" d="M15.066,4.313c-0.082,0.017-0.154,0.058-0.225,0.1c-0.072,0.043-0.14,0.095-0.208,0.145
		c-0.109,0.08-0.209,0.17-0.3,0.27c-0.057,0.062-0.109,0.129-0.156,0.2C14.156,5.06,14.156,5.06,14.19,5.095
		c-0.208-0.036-0.417-0.033-0.627-0.016c-0.042,0.003-0.085,0.003-0.127,0.004c-0.03-0.042-0.005-0.077,0.015-0.111
		c0.172-0.3,0.379-0.571,0.644-0.795c0.039-0.032,0.066-0.088,0.132-0.06c0.045-0.008,0.09-0.001,0.134,0.002
		c0.192,0.014,0.38,0.05,0.56,0.121C14.971,4.259,15.023,4.277,15.066,4.313z"/>
	<path fill="#DA00FF" d="M13.361,7.389c0.012,0.057,0.036,0.109,0.06,0.161c0.063,0.139,0.134,0.274,0.217,0.403
		c0.041,0.065,0.091,0.125,0.138,0.186c0.095,0.123,0.196,0.241,0.312,0.344c0.127,0.112,0.258,0.22,0.404,0.308
		c0.055,0.034,0.112,0.065,0.167,0.099c0.038,0.023,0.082,0.039,0.106,0.081C14.731,8.99,14.696,8.98,14.662,8.98
		c-0.188,0.001-0.377,0-0.565,0.001c-0.036,0-0.069-0.004-0.098-0.029c-0.308-0.266-0.586-0.557-0.79-0.912
		c-0.048-0.083-0.096-0.165-0.134-0.253c-0.015-0.034-0.029-0.07-0.014-0.109c0.073-0.082,0.154-0.155,0.232-0.231
		C13.314,7.426,13.338,7.408,13.361,7.389z"/>
	<path fill="#BC00FF" d="M13.061,7.678c0.005,0.014,0.011,0.028,0.014,0.043c0.008,0.042,0.023,0.082,0.044,0.119
		c0.043,0.076,0.085,0.153,0.129,0.228c0.038,0.065,0.082,0.125,0.124,0.187c0.055,0.081,0.119,0.153,0.177,0.232
		c0.019,0.026,0.048,0.045,0.066,0.071c0.04,0.056,0.097,0.092,0.143,0.141c0.045,0.047,0.09,0.095,0.139,0.138
		c0.043,0.038,0.089,0.072,0.129,0.115c0.015,0.016,0.033,0.022,0.054,0.022c0.033-0.001,0.065,0,0.098,0
		c0.195-0.001,0.391-0.001,0.586-0.002c0.09,0.001,0.18,0.002,0.27,0.002c0.2,0,0.4,0,0.6,0c0.017,0,0.035,0.001,0.052,0
		c0.036-0.002,0.042-0.008,0.043-0.046c0.001-0.055,0-0.11,0-0.165c-0.023-0.027-0.023-0.06-0.024-0.092
		c-0.001-0.175-0.001-0.35,0-0.525c0-0.033,0-0.065,0.024-0.092c0.004,0.002,0.012,0.004,0.012,0.007
		c0.002,0.015,0.004,0.03,0.004,0.045c0,0.273,0,0.547,0,0.82c0,0.06-0.001,0.061-0.063,0.061c-0.544,0-1.089,0-1.633-0.001
		c-0.015,0-0.03-0.002-0.045-0.003c-0.173-0.004-0.346-0.002-0.519-0.001c-0.043,0-0.075-0.01-0.105-0.043
		c-0.229-0.245-0.425-0.513-0.587-0.806c-0.027-0.049-0.067-0.098-0.035-0.161C12.853,7.868,12.955,7.772,13.061,7.678z"/>
	<path fill="#FA00FF" d="M15.729,8.053c0,0.236,0,0.473,0,0.709c-0.049-0.01-0.097-0.021-0.146-0.029
		c-0.139-0.022-0.27-0.07-0.401-0.117c-0.111-0.04-0.214-0.097-0.318-0.152c-0.093-0.049-0.179-0.108-0.261-0.173
		c-0.057-0.045-0.113-0.09-0.167-0.137c-0.035-0.03-0.029-0.056,0.016-0.067c0.027-0.007,0.054-0.009,0.073-0.033
		c0.02-0.001,0.04-0.004,0.06-0.004c0.362,0,0.724,0,1.087,0C15.689,8.049,15.709,8.051,15.729,8.053z"/>
	<path fill="#D400FF" d="M14.227,4.116c-0.034,0-0.064,0.005-0.083,0.039c-0.008,0.015-0.023,0.027-0.037,0.037
		c-0.091,0.063-0.164,0.147-0.239,0.227c-0.073,0.078-0.136,0.166-0.202,0.249c-0.076,0.096-0.134,0.204-0.199,0.308
		c-0.02,0.032-0.036,0.066-0.032,0.106c-0.014,0.003-0.029,0.008-0.043,0.009c-0.113,0.012-0.227,0.024-0.34,0.036
		C13.035,5.129,13.018,5.129,13,5.129c-0.043-0.023-0.014-0.054-0.004-0.078c0.07-0.178,0.165-0.342,0.271-0.5
		c0.096-0.143,0.203-0.279,0.319-0.406l0,0.001c0.039-0.017,0.083,0.006,0.122-0.014c0.008-0.001,0.016-0.001,0.025-0.002
		c0.056-0.017,0.115,0.005,0.171-0.013c0.095-0.011,0.19-0.013,0.286-0.01C14.203,4.109,14.215,4.113,14.227,4.116z"/>
	<path fill="#BA00FF" d="M13.586,4.145c0.001,0.013-0.002,0.025-0.01,0.035c-0.044,0.054-0.086,0.11-0.132,0.163
		c-0.033,0.038-0.061,0.079-0.09,0.119c-0.056,0.077-0.113,0.153-0.159,0.236c-0.068,0.123-0.141,0.242-0.19,0.375
		C12.999,5.09,12.984,5.109,13,5.129c-0.017,0.013-0.038,0.01-0.058,0.013c-0.062,0.009-0.123,0.018-0.185,0.027
		c-0.038,0.005-0.042,0.002-0.044-0.038c-0.002-0.04-0.002-0.08-0.003-0.12c-0.014-0.094-0.001-0.18,0.042-0.268
		c0.083-0.167,0.185-0.32,0.287-0.475c0.02-0.031,0.046-0.052,0.081-0.061c0.037-0.016,0.078-0.017,0.117-0.022
		c0.103-0.015,0.207-0.028,0.311-0.042C13.561,4.143,13.574,4.145,13.586,4.145z"/>
	<path fill="#9600FE" d="M19.545,5.368c-0.051-0.103-0.079-0.215-0.125-0.32c-0.061-0.14-0.125-0.278-0.201-0.411
		c-0.057-0.1-0.123-0.194-0.186-0.29c-0.02-0.031-0.044-0.06-0.066-0.091c-0.019-0.027-0.057-0.033-0.073-0.064
		c0.017-0.001,0.035-0.004,0.052-0.004c0.183,0,0.367,0,0.55,0.001c0.015,0,0.03,0,0.045,0.001c0.014,0.001,0.023,0.008,0.024,0.023
		c0.001,0.015,0.001,0.03,0.001,0.045c0,0.337,0.001,0.673,0.001,1.01C19.57,5.304,19.573,5.34,19.545,5.368z"/>
	<path fill="#8800FF" d="M12.756,7.972c-0.002,0.036,0.009,0.068,0.026,0.101c0.066,0.133,0.149,0.255,0.23,0.378
		c0.066,0.1,0.137,0.197,0.216,0.288c0.064,0.073,0.128,0.147,0.195,0.219c0.009,0.01,0.02,0.015,0.033,0.015
		c0.018,0,0.035,0,0.053,0c0.146,0,0.291,0,0.437,0.001c0.019,0,0.04-0.006,0.058,0.008c-0.015,0.001-0.03,0.004-0.045,0.004
		c-0.234,0-0.467,0-0.701-0.001c-0.017,0-0.035-0.002-0.052-0.004c-0.025-0.001-0.05-0.001-0.075-0.001
		c-0.167,0-0.166-0.001-0.27-0.133c-0.073-0.093-0.135-0.193-0.205-0.287c-0.012-0.016-0.024-0.034-0.024-0.054
		c0.003-0.139-0.011-0.279,0.007-0.418C12.672,8.044,12.712,8.005,12.756,7.972z"/>
	<path fill="#8E00FE" d="M13.121,4.209c-0.025,0.017-0.044,0.039-0.06,0.065c-0.067,0.105-0.14,0.207-0.203,0.314
		c-0.051,0.086-0.091,0.178-0.136,0.268c-0.008,0.016-0.008,0.034-0.008,0.051c-0.001,0.035-0.002,0.07-0.003,0.105
		c-0.011-0.018-0.009-0.039-0.01-0.058c-0.005-0.07-0.01-0.14-0.014-0.21c-0.008-0.135-0.016-0.27-0.024-0.406
		c-0.002-0.037,0.001-0.043,0.03-0.049c0.137-0.03,0.274-0.059,0.413-0.08C13.111,4.207,13.116,4.208,13.121,4.209z"/>
	<path fill="#D500FD" d="M17.479,9.004c0.05-0.047,0.114-0.072,0.171-0.108c0.085-0.053,0.168-0.108,0.248-0.169
		c0.065-0.05,0.129-0.103,0.199-0.146c-0.001,0.005,0,0.01-0.002,0.015c-0.074,0.164-0.149,0.327-0.223,0.491
		c-0.01,0.023-0.018,0.026-0.041,0.02c-0.115-0.032-0.23-0.065-0.346-0.098C17.482,9.008,17.481,9.006,17.479,9.004z"/>
	<path fill="#5900FF" d="M12.638,8.087c0,0.122,0.001,0.245,0,0.367c0,0.037,0.004,0.069,0.034,0.094
		c0.011,0.009,0.018,0.023,0.027,0.035c0.062,0.087,0.122,0.176,0.185,0.262c0.028,0.038,0.067,0.067,0.087,0.111
		c0.007,0.016,0.025,0.015,0.04,0.015c0.05,0,0.1,0,0.15,0.001c0.015,0,0.03-0.003,0.043,0.008
		c-0.017,0.001-0.035,0.004-0.052,0.004c-0.15,0-0.3,0-0.45-0.001c-0.017,0-0.035-0.001-0.052-0.002
		c-0.011-0.001-0.018-0.009-0.019-0.02c-0.002-0.012-0.002-0.025-0.002-0.037c0-0.263-0.001-0.525-0.001-0.788
		C12.627,8.12,12.622,8.101,12.638,8.087z"/>
	<path fill="#BA00FF" d="M13.905,4.118c-0.01,0.012-0.025,0.014-0.04,0.014c-0.044,0-0.088-0.001-0.131-0.001
		C13.789,4.113,13.847,4.117,13.905,4.118z"/>
	<path fill="#BA00FF" d="M13.709,4.133c-0.009,0.01-0.02,0.015-0.033,0.015c-0.03,0-0.06-0.001-0.09-0.001
		C13.625,4.126,13.667,4.132,13.709,4.133z"/>
	<path fill="#F100FF" d="M18.774,2.127c0.013,0.005,0.016,0.016,0.016,0.029C18.78,2.15,18.775,2.14,18.774,2.127z"/>
	<path fill="#F100FF" d="M18.835,2.233c0.013,0.005,0.016,0.016,0.016,0.028C18.841,2.254,18.835,2.245,18.835,2.233z"/>
	<path fill="#F100FF" d="M19.379,3.168c0.012,0.005,0.015,0.016,0.016,0.028C19.384,3.189,19.378,3.18,19.379,3.168z"/>
	<path fill="#F100FF" d="M19.74,3.786c0.013,0.005,0.016,0.016,0.016,0.028C19.745,3.808,19.74,3.799,19.74,3.786z"/>
	<path fill="#F100FF" d="M18.896,2.338c0.012,0.005,0.015,0.016,0.016,0.028C18.902,2.359,18.896,2.35,18.896,2.338z"/>
	<path fill="#F100FF" d="M19.257,2.957c0.013,0.005,0.016,0.016,0.016,0.028C19.262,2.979,19.257,2.969,19.257,2.957z"/>
	<path fill="#F100FF" d="M20.057,4.329c0.013,0.005,0.016,0.016,0.016,0.028C20.062,4.351,20.057,4.341,20.057,4.329z"/>
	<path fill="#F100FF" d="M20.118,4.434c0.012,0.005,0.015,0.016,0.016,0.028C20.123,4.456,20.117,4.447,20.118,4.434z"/>
	<path fill="#F100FF" d="M20.162,4.51c0.013,0.005,0.016,0.016,0.016,0.029C20.167,4.533,20.162,4.523,20.162,4.51z"/>
	<path fill="#F100FF" d="M19.635,3.605c0.012,0.005,0.015,0.016,0.016,0.028C19.64,3.626,19.635,3.617,19.635,3.605z"/>
	<path fill="#F100FF" d="M20.222,4.616c0.013,0.005,0.016,0.016,0.016,0.028C20.228,4.638,20.223,4.628,20.222,4.616z"/>
	<path fill="#F100FF" d="M20.313,4.766c0.013,0.005,0.016,0.016,0.016,0.028C20.318,4.788,20.313,4.779,20.313,4.766z"/>
	<path fill="#F100FF" d="M19.196,2.851c0.013,0.005,0.017,0.016,0.017,0.029C19.201,2.874,19.197,2.864,19.196,2.851z"/>
	<path fill="#F100FF" d="M19.889,4.043c0.014,0.004,0.017,0.014,0.018,0.027C19.897,4.064,19.89,4.056,19.889,4.043z"/>
	<path fill="#F100FF" d="M19.152,2.776c0.012,0.005,0.015,0.016,0.016,0.028C19.158,2.797,19.152,2.788,19.152,2.776z"/>
	<path fill="#F100FF" d="M19.861,3.997c0.012,0.005,0.015,0.016,0.016,0.028C19.867,4.018,19.861,4.009,19.861,3.997z"/>
	<path fill="#F100FF" d="M19.574,3.5c0.013,0.005,0.016,0.016,0.016,0.028C19.579,3.521,19.574,3.512,19.574,3.5z"/>
	<path fill="#F100FF" d="M19.062,2.625c0.012,0.005,0.016,0.016,0.016,0.028C19.067,2.646,19.062,2.637,19.062,2.625z"/>
	<path fill="#F100FF" d="M19.513,3.394c0.013,0.005,0.016,0.016,0.016,0.028C19.518,3.417,19.514,3.407,19.513,3.394z"/>
	<path fill="#D500FD" d="M17.43,8.991c0.013-0.002,0.024-0.001,0.032,0.01C17.45,9.003,17.439,9.001,17.43,8.991z"/>
	<path fill="#F100FF" d="M19.801,3.892c0.012,0.005,0.016,0.016,0.016,0.028C19.806,3.913,19.801,3.904,19.801,3.892z"/>
	<path fill="#F100FF" d="M19.001,2.519c0.013,0.005,0.016,0.016,0.016,0.028C19.006,2.541,19.001,2.532,19.001,2.519z"/>
	<path fill="#F100FF" d="M19.483,3.349c0.013,0.005,0.016,0.015,0.016,0.027C19.488,3.371,19.484,3.361,19.483,3.349z"/>
	<path fill="#F100FF" d="M19.996,4.224c0.013,0.005,0.016,0.016,0.016,0.028C20.001,4.246,19.996,4.236,19.996,4.224z"/>
	<path fill="#F100FF" d="M18.94,2.414c0.013,0.005,0.016,0.016,0.017,0.029C18.945,2.436,18.94,2.427,18.94,2.414z"/>
	<path fill="#F100FF" d="M19.423,3.243c0.013,0.005,0.016,0.016,0.016,0.029C19.428,3.266,19.423,3.256,19.423,3.243z"/>
	<path fill="#F100FF" d="M18.684,1.977C18.697,1.982,18.7,1.993,18.7,2.005C18.689,1.999,18.684,1.989,18.684,1.977z"/>
	<path fill="#D500FD" d="M18.278,8.174c-0.001-0.012,0.002-0.023,0.014-0.029C18.293,8.157,18.288,8.167,18.278,8.174z"/>
	<path fill="#D500FD" d="M18.264,8.206c-0.001-0.013,0.001-0.025,0.014-0.032C18.279,8.187,18.275,8.198,18.264,8.206z"/>
	<path fill="#D500FD" d="M18.218,8.309c-0.001-0.012,0.002-0.023,0.013-0.029C18.232,8.293,18.228,8.302,18.218,8.309z"/>
	<path fill="#D500FD" d="M18.203,8.341c-0.001-0.013,0.001-0.024,0.014-0.031C18.218,8.323,18.214,8.334,18.203,8.341z"/>
	<path fill="#D500FD" d="M18.157,8.445c0-0.012,0.002-0.022,0.013-0.029C18.172,8.428,18.167,8.438,18.157,8.445z"/>
	<path fill="#D500FD" d="M18.143,8.477c-0.001-0.013,0.001-0.024,0.014-0.031C18.158,8.458,18.154,8.469,18.143,8.477z"/>
	<path fill="#D500FD" d="M18.129,8.509c-0.002-0.014,0.001-0.026,0.015-0.032C18.144,8.489,18.14,8.501,18.129,8.509z"/>
	<path fill="#D500FD" d="M18.097,8.58c0-0.012,0.002-0.022,0.013-0.029C18.112,8.564,18.106,8.573,18.097,8.58z"/>
	<path fill="#F100FF" d="M19.318,3.062c0.013,0.005,0.016,0.016,0.016,0.028C19.323,3.084,19.318,3.075,19.318,3.062z"/>
	<path fill="#D500FD" d="M17.218,8.931c0.013-0.003,0.025-0.002,0.034,0.011C17.238,8.943,17.227,8.942,17.218,8.931z"/>
	<path fill="#D500FD" d="M17.267,8.945c0.012-0.002,0.022,0,0.03,0.01C17.285,8.957,17.274,8.955,17.267,8.945z"/>
	<path fill="#D500FD" d="M17.324,8.961c0.013-0.003,0.025-0.002,0.033,0.01C17.344,8.973,17.333,8.972,17.324,8.961z"/>
	<path fill="#D500FD" d="M17.373,8.975c0.012-0.002,0.022,0,0.029,0.01C17.39,8.987,17.38,8.984,17.373,8.975z"/>
	<path fill="#F100FF" d="M19.686,3.696c0.003,0.005,0.006,0.009,0.01,0.014C19.688,3.708,19.685,3.703,19.686,3.696z"/>
	<path fill="#F100FF" d="M19.696,3.71c0.008,0.005,0.012,0.012,0.013,0.022C19.699,3.728,19.696,3.72,19.696,3.71z"/>
	<path fill="#F100FF" d="M19.713,3.741c0.004,0.006,0.008,0.012,0.011,0.019C19.716,3.756,19.712,3.75,19.713,3.741z"/>
	<path fill="#F100FF" d="M19.729,3.771c0.003,0.005,0.007,0.01,0.01,0.015C19.732,3.784,19.729,3.779,19.729,3.771z"/>
	<path fill="#F100FF" d="M19.757,3.816c0.008,0.005,0.012,0.012,0.012,0.021C19.76,3.832,19.756,3.825,19.757,3.816z"/>
	<path fill="#F100FF" d="M19.773,3.846c0.007,0.004,0.011,0.01,0.011,0.018C19.777,3.861,19.773,3.855,19.773,3.846z"/>
	<path fill="#F100FF" d="M19.79,3.877c0.003,0.005,0.007,0.01,0.01,0.015C19.793,3.889,19.789,3.884,19.79,3.877z"/>
	<path fill="#F100FF" d="M19.817,3.921c0.008,0.005,0.012,0.011,0.012,0.02C19.821,3.937,19.817,3.931,19.817,3.921z"/>
	<path fill="#F100FF" d="M19.834,3.952c0.004,0.006,0.007,0.012,0.011,0.017C19.837,3.966,19.833,3.961,19.834,3.952z"/>
	<path fill="#F100FF" d="M19.851,3.982c0.003,0.005,0.007,0.009,0.01,0.014C19.854,3.994,19.85,3.99,19.851,3.982z"/>
	<path fill="#F100FF" d="M19.878,4.027c0.007,0.004,0.011,0.009,0.012,0.017C19.881,4.042,19.877,4.036,19.878,4.027z"/>
	<path fill="#F100FF" d="M19.908,4.072c0.008,0.004,0.011,0.011,0.012,0.02C19.911,4.088,19.908,4.081,19.908,4.072z"/>
	<path fill="#F100FF" d="M19.925,4.103c0.004,0.006,0.007,0.011,0.011,0.017C19.928,4.117,19.924,4.111,19.925,4.103z"/>
	<path fill="#F100FF" d="M19.942,4.133c0.003,0.005,0.006,0.009,0.01,0.014C19.945,4.145,19.941,4.141,19.942,4.133z"/>
	<path fill="#F100FF" d="M19.952,4.148c0.008,0.005,0.012,0.012,0.013,0.022C19.956,4.165,19.952,4.158,19.952,4.148z"/>
	<path fill="#F100FF" d="M19.969,4.178c0.004,0.006,0.008,0.013,0.011,0.019C19.972,4.193,19.968,4.187,19.969,4.178z"/>
	<path fill="#F100FF" d="M19.986,4.208c0.003,0.005,0.007,0.01,0.01,0.016C19.988,4.222,19.985,4.216,19.986,4.208z"/>
	<path fill="#F100FF" d="M20.013,4.253c0.008,0.005,0.012,0.012,0.012,0.021C20.016,4.27,20.013,4.263,20.013,4.253z"/>
	<path fill="#F100FF" d="M20.03,4.284c0.007,0.004,0.011,0.01,0.011,0.018C20.033,4.298,20.029,4.292,20.03,4.284z"/>
	<path fill="#F100FF" d="M20.046,4.314c0.003,0.005,0.007,0.01,0.01,0.015C20.049,4.327,20.046,4.322,20.046,4.314z"/>
	<path fill="#F100FF" d="M18.673,1.961c0.004,0.005,0.007,0.011,0.011,0.016C18.676,1.975,18.672,1.969,18.673,1.961z"/>
	<path fill="#F100FF" d="M20.074,4.359c0.008,0.005,0.012,0.011,0.012,0.02C20.077,4.375,20.073,4.368,20.074,4.359z"/>
	<path fill="#F100FF" d="M20.091,4.389c0.004,0.006,0.007,0.012,0.011,0.017C20.093,4.404,20.09,4.398,20.091,4.389z"/>
	<path fill="#F100FF" d="M20.107,4.42c0.003,0.005,0.007,0.01,0.01,0.014C20.11,4.432,20.107,4.427,20.107,4.42z"/>
	<path fill="#F100FF" d="M18.701,2.006c0.008,0.005,0.012,0.012,0.012,0.021C18.704,2.023,18.7,2.016,18.701,2.006z"/>
	<path fill="#F100FF" d="M20.134,4.464c0.007,0.004,0.011,0.011,0.012,0.02C20.138,4.48,20.134,4.473,20.134,4.464z"/>
	<path fill="#F100FF" d="M20.151,4.495c0.004,0.005,0.007,0.011,0.011,0.016C20.154,4.508,20.15,4.503,20.151,4.495z"/>
	<path fill="#F100FF" d="M18.717,2.036c0.004,0.005,0.008,0.01,0.012,0.016C18.721,2.05,18.716,2.045,18.717,2.036z"/>
	<path fill="#F100FF" d="M18.729,2.052c0.009,0.004,0.013,0.011,0.014,0.021C18.734,2.069,18.73,2.061,18.729,2.052z"/>
	<path fill="#F100FF" d="M20.178,4.54c0.008,0.005,0.012,0.012,0.012,0.022C20.182,4.557,20.178,4.55,20.178,4.54z"/>
	<path fill="#F100FF" d="M20.195,4.57c0.004,0.006,0.008,0.012,0.011,0.019C20.199,4.585,20.195,4.579,20.195,4.57z"/>
	<path fill="#F100FF" d="M20.212,4.6c0.003,0.005,0.007,0.01,0.01,0.015C20.215,4.614,20.211,4.608,20.212,4.6z"/>
	<path fill="#F100FF" d="M18.747,2.082c0.004,0.006,0.008,0.012,0.011,0.019C18.751,2.097,18.747,2.091,18.747,2.082z"/>
	<path fill="#F100FF" d="M20.239,4.645c0.008,0.005,0.012,0.012,0.012,0.021C20.243,4.662,20.239,4.655,20.239,4.645z"/>
	<path fill="#F100FF" d="M20.256,4.676c0.007,0.004,0.011,0.01,0.011,0.018C20.259,4.69,20.255,4.684,20.256,4.676z"/>
	<path fill="#F100FF" d="M20.273,4.706c0.003,0.004,0.007,0.008,0.01,0.013C20.277,4.718,20.273,4.714,20.273,4.706z"/>
	<path fill="#F100FF" d="M20.285,4.721c0.004,0.006,0.008,0.012,0.012,0.019C20.289,4.736,20.285,4.729,20.285,4.721z"/>
	<path fill="#F100FF" d="M20.303,4.751c0.003,0.005,0.007,0.01,0.01,0.015C20.306,4.764,20.302,4.759,20.303,4.751z"/>
	<path fill="#F100FF" d="M18.764,2.112c0.003,0.005,0.007,0.01,0.01,0.016C18.767,2.125,18.763,2.12,18.764,2.112z"/>
	<path fill="#F100FF" d="M18.791,2.157c0.008,0.005,0.012,0.012,0.012,0.021C18.795,2.174,18.791,2.166,18.791,2.157z"/>
	<path fill="#F100FF" d="M20.33,4.796c0.008,0.005,0.012,0.011,0.012,0.02C20.333,4.812,20.329,4.805,20.33,4.796z"/>
	<path fill="#F100FF" d="M20.347,4.827c0.004,0.006,0.007,0.012,0.011,0.018C20.35,4.841,20.346,4.835,20.347,4.827z"/>
	<path fill="#F100FF" d="M18.808,2.187c0.007,0.004,0.011,0.01,0.011,0.018C18.811,2.202,18.808,2.196,18.808,2.187z"/>
	<path fill="#F100FF" d="M18.825,2.218c0.003,0.005,0.007,0.01,0.01,0.015C18.828,2.23,18.824,2.226,18.825,2.218z"/>
	<path fill="#F100FF" d="M18.852,2.262c0.008,0.005,0.012,0.011,0.012,0.02C18.855,2.279,18.852,2.272,18.852,2.262z"/>
	<path fill="#F100FF" d="M18.869,2.293c0.004,0.006,0.007,0.012,0.011,0.017C18.872,2.307,18.868,2.302,18.869,2.293z"/>
	<path fill="#F100FF" d="M18.886,2.323c0.003,0.005,0.007,0.01,0.01,0.014C18.889,2.336,18.885,2.331,18.886,2.323z"/>
	<path fill="#F100FF" d="M18.913,2.368c0.007,0.004,0.011,0.011,0.012,0.02C18.916,2.384,18.912,2.377,18.913,2.368z"/>
	<path fill="#F100FF" d="M18.93,2.398c0.003,0.005,0.007,0.011,0.01,0.016C18.932,2.412,18.929,2.407,18.93,2.398z"/>
	<path fill="#F100FF" d="M18.957,2.443c0.008,0.005,0.012,0.012,0.012,0.022C18.96,2.461,18.957,2.453,18.957,2.443z"/>
	<path fill="#F100FF" d="M18.974,2.474c0.004,0.006,0.008,0.012,0.011,0.019C18.977,2.489,18.973,2.483,18.974,2.474z"/>
	<path fill="#F100FF" d="M18.991,2.504c0.003,0.005,0.007,0.01,0.01,0.015C18.993,2.517,18.99,2.512,18.991,2.504z"/>
	<path fill="#F100FF" d="M19.018,2.549c0.008,0.005,0.012,0.012,0.012,0.021C19.021,2.566,19.017,2.558,19.018,2.549z"/>
	<path fill="#F100FF" d="M19.034,2.579c0.007,0.004,0.011,0.01,0.011,0.018C19.038,2.594,19.034,2.588,19.034,2.579z"/>
	<path fill="#F100FF" d="M19.051,2.61c0.003,0.005,0.007,0.01,0.01,0.015C19.054,2.622,19.05,2.618,19.051,2.61z"/>
	<path fill="#F100FF" d="M19.078,2.654c0.008,0.005,0.012,0.011,0.012,0.02C19.082,2.671,19.078,2.664,19.078,2.654z"/>
	<path fill="#F100FF" d="M19.095,2.685c0.004,0.006,0.007,0.012,0.011,0.017C19.098,2.699,19.094,2.694,19.095,2.685z"/>
	<path fill="#F100FF" d="M19.125,2.73c0.004,0.006,0.007,0.012,0.011,0.018C19.128,2.745,19.125,2.739,19.125,2.73z"/>
	<path fill="#F100FF" d="M19.142,2.761c0.003,0.005,0.007,0.01,0.01,0.014C19.145,2.773,19.141,2.768,19.142,2.761z"/>
	<path fill="#DA00FF" d="M13.558,7.195c-0.005,0.005-0.01,0.009-0.014,0.014C13.544,7.201,13.549,7.196,13.558,7.195z"/>
	<path fill="#DA00FF" d="M13.543,7.21c-0.005,0.005-0.01,0.009-0.014,0.014C13.529,7.216,13.534,7.211,13.543,7.21z"/>
	<path fill="#F100FF" d="M19.169,2.805c0.008,0.005,0.011,0.011,0.012,0.02C19.172,2.821,19.169,2.814,19.169,2.805z"/>
	<path fill="#DA00FF" d="M13.527,7.225c-0.005,0.005-0.01,0.01-0.015,0.014C13.514,7.231,13.519,7.226,13.527,7.225z"/>
	<path fill="#DA00FF" d="M13.512,7.24c-0.005,0.005-0.01,0.01-0.015,0.014C13.499,7.246,13.504,7.241,13.512,7.24z"/>
	<path fill="#F100FF" d="M19.186,2.836c0.004,0.005,0.007,0.011,0.011,0.016C19.189,2.85,19.185,2.844,19.186,2.836z"/>
	<path fill="#DA00FF" d="M13.497,7.255c-0.005,0.005-0.01,0.01-0.015,0.015C13.484,7.261,13.489,7.256,13.497,7.255z"/>
	<path fill="#DA00FF" d="M13.482,7.27c-0.005,0.005-0.01,0.01-0.015,0.015C13.468,7.276,13.473,7.271,13.482,7.27z"/>
	<path fill="#DA00FF" d="M13.467,7.285c-0.005,0.005-0.01,0.01-0.015,0.015C13.453,7.291,13.458,7.286,13.467,7.285z"/>
	<path fill="#DA00FF" d="M13.452,7.299c-0.005,0.005-0.01,0.01-0.015,0.015C13.438,7.306,13.443,7.301,13.452,7.299z"/>
	<path fill="#DA00FF" d="M13.436,7.314c-0.002,0.008-0.007,0.013-0.015,0.015C13.423,7.321,13.428,7.316,13.436,7.314z"/>
	<path fill="#DA00FF" d="M13.421,7.329c-0.002,0.008-0.007,0.013-0.015,0.015C13.407,7.335,13.413,7.33,13.421,7.329z"/>
	<path fill="#DA00FF" d="M13.406,7.344c-0.005,0.005-0.01,0.01-0.015,0.015C13.392,7.35,13.397,7.345,13.406,7.344z"/>
	<path fill="#DA00FF" d="M13.391,7.359c-0.005,0.005-0.01,0.01-0.015,0.015C13.377,7.365,13.382,7.36,13.391,7.359z"/>
	<path fill="#DA00FF" d="M13.376,7.374c-0.002,0.008-0.007,0.013-0.015,0.015C13.362,7.38,13.367,7.375,13.376,7.374z"/>
	<path fill="#F100FF" d="M19.213,2.881c0.008,0.005,0.012,0.012,0.013,0.022C19.217,2.898,19.213,2.891,19.213,2.881z"/>
	<path fill="#F100FF" d="M19.23,2.911c0.004,0.006,0.008,0.012,0.011,0.019C19.233,2.926,19.229,2.92,19.23,2.911z"/>
	<path fill="#F100FF" d="M19.247,2.941c0.003,0.005,0.007,0.01,0.01,0.016C19.249,2.955,19.246,2.95,19.247,2.941z"/>
	<path fill="#F100FF" d="M19.274,2.986c0.008,0.005,0.012,0.012,0.012,0.021C19.277,3.003,19.274,2.996,19.274,2.986z"/>
	<path fill="#F100FF" d="M19.291,3.017c0.007,0.004,0.011,0.01,0.011,0.018C19.294,3.031,19.29,3.025,19.291,3.017z"/>
	<path fill="#DA00FF" d="M13.573,7.18c-0.005,0.005-0.009,0.009-0.014,0.014C13.56,7.186,13.564,7.181,13.573,7.18z"/>
	<path fill="#F100FF" d="M19.308,3.047c0.003,0.005,0.007,0.01,0.01,0.015C19.31,3.06,19.307,3.055,19.308,3.047z"/>
	<path fill="#F100FF" d="M19.335,3.092c0.008,0.005,0.012,0.011,0.012,0.02C19.338,3.108,19.334,3.101,19.335,3.092z"/>
	<path fill="#DA00FF" d="M13.965,8.021c0.004-0.004,0.008-0.008,0.012-0.012C13.977,8.016,13.973,8.02,13.965,8.021z"/>
	<path fill="#DA00FF" d="M13.951,8.041c0-0.008,0.004-0.014,0.011-0.017C13.96,8.031,13.96,8.039,13.951,8.041z"/>
	<path fill="#DA00FF" d="M13.956,8.051c-0.004-0.001-0.008-0.002-0.012-0.003c0.003-0.003,0.005-0.006,0.008-0.009
		C13.955,8.043,13.956,8.047,13.956,8.051z"/>
	<path fill="#F100FF" d="M19.352,3.122c0.004,0.006,0.007,0.012,0.011,0.017C19.354,3.137,19.351,3.131,19.352,3.122z"/>
	<path fill="#F100FF" d="M19.368,3.153c0.003,0.005,0.007,0.01,0.01,0.014C19.371,3.165,19.368,3.16,19.368,3.153z"/>
	<path fill="#F100FF" d="M19.395,3.197c0.007,0.004,0.011,0.011,0.012,0.02C19.399,3.213,19.395,3.206,19.395,3.197z"/>
	<path fill="#D500FD" d="M18.296,8.135c-0.001-0.009,0.003-0.015,0.01-0.02C18.307,8.123,18.304,8.13,18.296,8.135z"/>
	<path fill="#F100FF" d="M19.412,3.228c0.004,0.005,0.007,0.011,0.011,0.016C19.415,3.242,19.411,3.236,19.412,3.228z"/>
	<path fill="#F100FF" d="M19.439,3.273c0.008,0.005,0.012,0.012,0.012,0.021C19.443,3.29,19.439,3.283,19.439,3.273z"/>
	<path fill="#D500FD" d="M18.25,8.238c0-0.008,0.003-0.014,0.01-0.018C18.26,8.228,18.257,8.234,18.25,8.238z"/>
	<path fill="#D500FD" d="M18.235,8.27c-0.001-0.009,0.003-0.015,0.01-0.02C18.246,8.259,18.243,8.266,18.235,8.27z"/>
	<path fill="#F100FF" d="M19.456,3.303c0.004,0.006,0.008,0.012,0.011,0.019C19.46,3.318,19.456,3.312,19.456,3.303z"/>
	<path fill="#F100FF" d="M19.473,3.334c0.003,0.005,0.007,0.01,0.01,0.015C19.476,3.347,19.472,3.342,19.473,3.334z"/>
	<path fill="#D500FD" d="M18.189,8.373c0-0.008,0.003-0.014,0.01-0.018C18.2,8.364,18.197,8.37,18.189,8.373z"/>
	<path fill="#D500FD" d="M18.175,8.405c0-0.008,0.003-0.015,0.01-0.019C18.186,8.394,18.183,8.401,18.175,8.405z"/>
	<path fill="#F100FF" d="M19.501,3.378c0.004,0.005,0.008,0.011,0.012,0.016C19.505,3.392,19.501,3.387,19.501,3.378z"/>
	<path fill="#F100FF" d="M19.53,3.424c0.008,0.005,0.012,0.012,0.012,0.021C19.534,3.44,19.53,3.433,19.53,3.424z"/>
	<path fill="#F100FF" d="M19.547,3.454c0.007,0.004,0.011,0.01,0.011,0.018C19.55,3.469,19.546,3.463,19.547,3.454z"/>
	<path fill="#D500FD" d="M18.114,8.541c0-0.008,0.003-0.015,0.01-0.019C18.125,8.53,18.122,8.537,18.114,8.541z"/>
	<path fill="#F100FF" d="M19.564,3.484c0.003,0.005,0.007,0.01,0.01,0.015C19.567,3.497,19.563,3.492,19.564,3.484z"/>
	<path fill="#F100FF" d="M19.591,3.529c0.008,0.005,0.012,0.011,0.012,0.02C19.594,3.545,19.591,3.539,19.591,3.529z"/>
	<path fill="#F100FF" d="M19.608,3.56c0.004,0.006,0.007,0.012,0.011,0.018C19.611,3.574,19.607,3.568,19.608,3.56z"/>
	<path fill="#F100FF" d="M19.625,3.59c0.003,0.005,0.007,0.01,0.01,0.014C19.627,3.602,19.624,3.598,19.625,3.59z"/>
	<path fill="#F100FF" d="M19.652,3.635c0.007,0.004,0.011,0.011,0.012,0.02C19.655,3.65,19.651,3.644,19.652,3.635z"/>
	<path fill="#F100FF" d="M19.669,3.665c0.004,0.006,0.007,0.011,0.011,0.017C19.672,3.679,19.668,3.674,19.669,3.665z"/>
	<path d="M10.025,11.281c-0.039,0.003-0.079-0.002-0.118-0.005c-0.09-0.007-0.18-0.016-0.27-0.023
		c-0.243-0.02-0.486-0.039-0.729-0.059c-0.153-0.012-0.306-0.023-0.458-0.035c-0.158-0.013-0.315-0.026-0.473-0.039
		c-0.06-0.005-0.12-0.011-0.18-0.013c-0.037-0.001-0.058-0.017-0.074-0.05c-0.064-0.134-0.13-0.266-0.196-0.399
		C7.388,10.379,7.249,10.1,7.111,9.822C6.99,9.579,6.868,9.337,6.747,9.094C6.61,8.818,6.472,8.542,6.334,8.266
		C6.209,8.014,6.083,7.762,5.958,7.511c-0.132-0.265-0.264-0.53-0.396-0.795C5.541,6.673,5.519,6.63,5.495,6.589
		c-0.014-0.025-0.012-0.045,0-0.07c0.055-0.107,0.109-0.215,0.163-0.322C5.735,6.044,5.81,5.891,5.886,5.738
		C6.02,5.469,6.155,5.199,6.289,4.93c0.128-0.256,0.256-0.512,0.384-0.768c0.13-0.26,0.26-0.521,0.39-0.781
		c0.128-0.256,0.256-0.512,0.384-0.768C7.54,2.427,7.634,2.241,7.726,2.054C7.742,2.021,7.76,2.006,7.799,2.005
		C8.251,1.99,8.703,1.973,9.155,1.957c0.269-0.01,0.537-0.02,0.806-0.029c0.02-0.001,0.04,0,0.058,0
		c0.016,0.017,0.003,0.029-0.004,0.041C9.94,2.119,9.865,2.269,9.79,2.42c-0.081,0.162-0.16,0.324-0.241,0.486
		C9.383,3.238,9.218,3.571,9.052,3.903C8.929,4.15,8.806,4.397,8.682,4.644C8.548,4.914,8.413,5.183,8.279,5.452
		c-0.122,0.245-0.244,0.49-0.366,0.734c-0.045,0.09-0.09,0.179-0.137,0.268C7.76,6.482,7.761,6.505,7.774,6.532
		c0.095,0.197,0.189,0.394,0.282,0.591C8.243,7.515,8.429,7.907,8.615,8.3c0.128,0.27,0.257,0.539,0.386,0.809
		C9.131,9.38,9.26,9.652,9.389,9.924c0.128,0.27,0.256,0.54,0.385,0.809c0.077,0.161,0.154,0.321,0.231,0.482
		C10.014,11.235,10.032,11.252,10.025,11.281z"/>
	<path d="M21.992,1.933c0.052,0,0.104-0.002,0.156,0c0.414,0.015,0.829,0.03,1.243,0.045c0.271,0.01,0.542,0.02,0.814,0.03
		c0.01,0,0.02,0.002,0.03,0.001c0.023-0.001,0.038,0.01,0.046,0.031c0.005,0.012,0.011,0.023,0.016,0.034
		c0.071,0.144,0.142,0.288,0.214,0.432c0.131,0.263,0.262,0.525,0.394,0.788c0.127,0.254,0.254,0.507,0.381,0.761
		c0.132,0.265,0.265,0.53,0.397,0.795c0.123,0.247,0.247,0.494,0.37,0.741c0.134,0.269,0.269,0.539,0.403,0.808
		c0.022,0.045,0.046,0.089,0.07,0.133c0.009,0.017,0.01,0.033,0.001,0.05c-0.007,0.013-0.013,0.027-0.02,0.041
		c-0.127,0.254-0.253,0.508-0.38,0.761c-0.131,0.263-0.262,0.526-0.393,0.788c-0.129,0.258-0.257,0.517-0.386,0.775
		c-0.13,0.261-0.26,0.521-0.39,0.782c-0.129,0.258-0.258,0.517-0.387,0.775c-0.092,0.184-0.184,0.368-0.276,0.552
		c-0.004,0.009-0.01,0.018-0.014,0.027c-0.007,0.015-0.018,0.023-0.034,0.025c-0.012,0.001-0.025,0.002-0.038,0.003
		c-0.283,0.022-0.566,0.044-0.849,0.066c-0.25,0.02-0.501,0.04-0.751,0.06c-0.193,0.016-0.386,0.031-0.579,0.047
		c-0.01,0.001-0.02,0.003-0.03,0.002c-0.008-0.001-0.014-0.009-0.012-0.016c0.007-0.019,0.016-0.037,0.024-0.055
		c0.189-0.399,0.378-0.798,0.568-1.197c0.127-0.268,0.255-0.535,0.382-0.802c0.129-0.272,0.259-0.544,0.388-0.816
		c0.129-0.272,0.259-0.544,0.388-0.816c0.13-0.272,0.259-0.544,0.389-0.816c0.037-0.077,0.073-0.154,0.112-0.23
		c0.015-0.03,0.014-0.054-0.001-0.084c-0.08-0.156-0.158-0.314-0.237-0.471c-0.064-0.128-0.127-0.256-0.191-0.385
		c-0.138-0.276-0.276-0.552-0.413-0.829c-0.117-0.233-0.234-0.467-0.35-0.7c-0.14-0.281-0.28-0.562-0.42-0.842
		c-0.128-0.256-0.256-0.512-0.384-0.768c-0.079-0.157-0.158-0.314-0.236-0.471C22.001,1.973,21.983,1.958,21.992,1.933z"/>
	<path d="M25.59,9.91c-0.002-0.033,0.014-0.051,0.023-0.071c0.153-0.322,0.306-0.644,0.459-0.966
		c0.121-0.254,0.242-0.508,0.363-0.761c0.137-0.288,0.274-0.576,0.411-0.864c0.118-0.247,0.235-0.494,0.353-0.741
		c0.005-0.011,0.01-0.023,0.016-0.034c0.014-0.024,0.011-0.046-0.002-0.071c-0.12-0.238-0.238-0.476-0.357-0.714
		c-0.087-0.175-0.174-0.351-0.261-0.526c-0.16-0.321-0.32-0.643-0.48-0.964c-0.127-0.254-0.253-0.507-0.38-0.761
		c-0.045-0.09-0.091-0.179-0.136-0.269c-0.016-0.031-0.01-0.039,0.027-0.038c0.111,0.003,0.221,0.006,0.332,0.01
		c0.244,0.009,0.487,0.018,0.731,0.027c0.208,0.008,0.417,0.017,0.625,0.024c0.036,0.001,0.053,0.014,0.068,0.045
		c0.077,0.158,0.155,0.316,0.233,0.473c0.132,0.265,0.264,0.53,0.397,0.795c0.126,0.252,0.251,0.503,0.377,0.755
		c0.132,0.265,0.265,0.53,0.397,0.795c0.058,0.117,0.115,0.234,0.177,0.349c0.03,0.055,0.027,0.101,0,0.156
		c-0.174,0.345-0.345,0.692-0.517,1.038c-0.116,0.234-0.233,0.467-0.349,0.701c-0.142,0.285-0.284,0.571-0.426,0.856
		c-0.092,0.184-0.185,0.368-0.277,0.552c-0.006,0.011-0.012,0.022-0.017,0.034c-0.008,0.022-0.023,0.03-0.046,0.031
		c-0.05,0.003-0.1,0.008-0.15,0.012c-0.155,0.012-0.311,0.023-0.466,0.036c-0.153,0.012-0.305,0.026-0.458,0.038
		c-0.153,0.012-0.306,0.024-0.458,0.036C25.729,9.899,25.662,9.904,25.59,9.91z"/>
	<path fill="#9E00FF" d="M4.554,5.822c0,0.021-0.013,0.037-0.022,0.055C4.451,6.038,4.37,6.199,4.289,6.36
		C4.282,6.374,4.276,6.387,4.269,6.4c-0.01,0.019-0.011,0.037-0.001,0.057c0.034,0.07,0.067,0.14,0.1,0.21
		c0.077,0.16,0.153,0.321,0.229,0.481C4.6,7.153,4.599,7.158,4.6,7.163C4.565,7.181,4.562,7.21,4.566,7.245
		c0.071,0.616,0.199,1.219,0.378,1.812c0.027,0.088,0.044,0.18,0.092,0.26c-0.01,0-0.02,0.001-0.03,0.001
		C4.977,9.321,4.959,9.309,4.946,9.283c-0.04-0.084-0.081-0.167-0.123-0.25C4.682,8.747,4.539,8.462,4.397,8.177
		C4.276,7.934,4.155,7.692,4.035,7.449C3.896,7.17,3.757,6.892,3.618,6.613C3.609,6.595,3.598,6.579,3.589,6.561
		C3.54,6.458,3.539,6.496,3.588,6.397c0.02-0.041,0.042-0.08,0.062-0.12c0.099-0.2,0.198-0.4,0.298-0.6
		c0.134-0.27,0.269-0.539,0.403-0.809c0.092-0.184,0.184-0.368,0.277-0.552c0.009-0.018,0.014-0.038,0.03-0.051
		c0.03,0.03,0.019,0.065,0.012,0.099c-0.065,0.32-0.088,0.645-0.11,0.971C4.55,5.47,4.545,5.605,4.546,5.74
		C4.547,5.768,4.548,5.795,4.554,5.822z"/>
	<path fill="#B700FF" d="M4.554,5.822c-0.02-0.01-0.031-0.025-0.031-0.048c0-0.108,0-0.216,0-0.324
		c0.022-0.074,0.014-0.149,0.014-0.224c0-0.043,0.02-0.082,0.016-0.126C4.551,5.059,4.55,5.016,4.566,4.974
		c0.005-0.013,0.003-0.03,0.003-0.045c0.001-0.035-0.003-0.07,0.012-0.104c0.004-0.009,0.003-0.02,0.003-0.03
		c0-0.1,0.025-0.198,0.033-0.297C4.621,4.45,4.634,4.401,4.649,4.353c0.009-0.03,0.011-0.059,0.009-0.089
		C4.679,4.2,4.714,4.142,4.744,4.081c0.061-0.124,0.124-0.247,0.186-0.37c0.037-0.074,0.024-0.06,0.102-0.063
		C5.222,3.64,5.413,3.633,5.603,3.625c0.014-0.001,0.029,0,0.043,0c0.003,0.027-0.011,0.043-0.019,0.06
		C5.475,3.991,5.323,4.296,5.171,4.602c-0.12,0.24-0.24,0.48-0.36,0.72C4.766,5.409,4.719,5.494,4.674,5.58
		C4.665,5.588,4.668,5.602,4.659,5.61l0,0.001C4.65,5.618,4.653,5.632,4.644,5.64l0,0.001C4.635,5.649,4.637,5.662,4.629,5.67
		l0,0.001c-0.01,0.008-0.007,0.021-0.015,0.03l0,0.001c-0.01,0.008-0.007,0.021-0.015,0.03l0,0c-0.01,0.008-0.007,0.021-0.015,0.03
		l0,0c-0.01,0.007-0.007,0.021-0.015,0.03l0,0C4.559,5.799,4.562,5.813,4.554,5.822L4.554,5.822z"/>
	<path fill="#B400FF" d="M5.035,9.318C5.002,9.302,4.981,9.281,4.974,9.241C4.965,9.19,4.946,9.14,4.931,9.09
		C4.908,9.011,4.884,8.932,4.863,8.852C4.818,8.681,4.774,8.509,4.732,8.337C4.702,8.216,4.674,8.095,4.657,7.971
		C4.643,7.872,4.619,7.775,4.602,7.677C4.593,7.628,4.587,7.579,4.584,7.529C4.582,7.489,4.572,7.45,4.566,7.411
		c-0.01-0.056-0.004-0.115-0.024-0.17C4.538,7.229,4.539,7.216,4.538,7.204C4.537,7.149,4.544,7.145,4.6,7.163c0,0,0-0.001,0-0.001
		c0.007,0.009,0.005,0.023,0.015,0.031l0,0C4.622,7.202,4.62,7.216,4.629,7.224l0,0c0.009,0.008,0.006,0.022,0.014,0.03l0,0.001
		c0.01,0.007,0.006,0.021,0.014,0.029c0.004,0.002,0.005,0.005,0.003,0.009c0.001,0.009,0.006,0.015,0.011,0.021
		c0.004,0.002,0.005,0.006,0.004,0.01c0.001,0.008,0.007,0.014,0.011,0.02C4.69,7.347,4.692,7.351,4.69,7.355
		c0.002,0.007,0.007,0.013,0.01,0.019c0.004,0.003,0.006,0.007,0.004,0.012c0.003,0.006,0.007,0.012,0.01,0.018
		C4.79,7.538,4.851,7.679,4.916,7.817c0.065,0.136,0.128,0.272,0.193,0.408C5.245,8.51,5.381,8.795,5.516,9.08
		c0.038,0.079,0.077,0.158,0.115,0.237c0.006,0.013,0.012,0.027,0.02,0.046c-0.073,0.009-0.138-0.005-0.204-0.01
		c-0.07-0.006-0.14-0.011-0.21-0.017C5.17,9.331,5.103,9.324,5.035,9.318z"/>
	<path fill="#9E00FF" d="M4.659,5.61c0-0.012,0.003-0.023,0.015-0.029C4.675,5.593,4.67,5.603,4.659,5.61z"/>
	<path fill="#9E00FF" d="M4.644,5.64c0-0.012,0.003-0.023,0.015-0.029C4.659,5.623,4.655,5.633,4.644,5.64z"/>
	<path fill="#9E00FF" d="M4.629,5.67c-0.001-0.013,0.002-0.023,0.014-0.03C4.644,5.653,4.64,5.664,4.629,5.67z"/>
	<path fill="#9E00FF" d="M4.614,5.701c-0.001-0.013,0.002-0.023,0.015-0.03C4.629,5.684,4.625,5.694,4.614,5.701z"/>
	<path fill="#9E00FF" d="M4.599,5.731c-0.001-0.013,0.002-0.024,0.015-0.03C4.614,5.714,4.61,5.724,4.599,5.731z"/>
	<path fill="#9E00FF" d="M4.584,5.761c-0.001-0.013,0.002-0.024,0.015-0.03C4.599,5.744,4.595,5.754,4.584,5.761z"/>
	<path fill="#9E00FF" d="M4.569,5.792c-0.001-0.013,0.002-0.024,0.015-0.03C4.585,5.774,4.58,5.785,4.569,5.792z"/>
	<path fill="#9E00FF" d="M4.554,5.822c-0.001-0.013,0.002-0.024,0.015-0.03C4.569,5.804,4.565,5.815,4.554,5.822z"/>
	<path fill="#9E00FF" d="M4.614,7.194C4.601,7.187,4.598,7.176,4.599,7.162C4.611,7.17,4.615,7.181,4.614,7.194z"/>
	<path fill="#9E00FF" d="M4.629,7.224C4.616,7.217,4.613,7.206,4.614,7.193C4.625,7.201,4.629,7.211,4.629,7.224z"/>
	<path fill="#9E00FF" d="M4.643,7.254c-0.012-0.007-0.015-0.018-0.014-0.03C4.639,7.231,4.644,7.242,4.643,7.254z"/>
	<path fill="#9E00FF" d="M4.657,7.284C4.646,7.278,4.643,7.267,4.643,7.255C4.653,7.262,4.659,7.272,4.657,7.284z"/>
	<path fill="#9E00FF" d="M4.672,7.314C4.664,7.309,4.661,7.302,4.661,7.293C4.669,7.298,4.673,7.305,4.672,7.314z"/>
	<path fill="#9E00FF" d="M4.686,7.344C4.679,7.34,4.676,7.333,4.676,7.324C4.684,7.329,4.687,7.336,4.686,7.344z"/>
	<path fill="#9E00FF" d="M4.701,7.375C4.697,7.368,4.694,7.362,4.69,7.355C4.698,7.36,4.702,7.366,4.701,7.375z"/>
	<path fill="#9E00FF" d="M4.716,7.405c-0.003-0.006-0.007-0.012-0.01-0.018C4.713,7.39,4.716,7.396,4.716,7.405z"/>
	<path fill="#EE00FF" d="M7.025,4.533c0.013-0.03,0.025-0.06,0.039-0.089C7.183,4.206,7.302,3.968,7.421,3.73
		c0.14-0.281,0.28-0.562,0.42-0.842c0.062-0.123,0.126-0.246,0.185-0.37c0.018-0.037,0.04-0.052,0.081-0.051
		C8.165,2.467,8.223,2.462,8.281,2.46c0.236-0.009,0.472-0.018,0.708-0.027c0.085-0.003,0.17-0.005,0.254-0.007
		c0.009,0.028-0.007,0.043-0.016,0.06C9.13,2.682,9.031,2.877,8.934,3.072C8.858,3.225,8.782,3.378,8.706,3.531
		C8.563,3.819,8.42,4.106,8.277,4.394C8.151,4.645,8.025,4.897,7.9,5.148C7.766,5.415,7.633,5.683,7.499,5.95
		C7.42,6.107,7.341,6.264,7.262,6.421C7.254,6.437,7.247,6.452,7.239,6.468C7.232,6.483,7.233,6.497,7.24,6.512
		c0.002,0.005,0.004,0.009,0.007,0.014c0.08,0.168,0.161,0.335,0.24,0.503C7.54,7.139,7.592,7.25,7.644,7.362
		C7.709,7.498,7.773,7.634,7.837,7.77c0.13,0.274,0.261,0.548,0.392,0.823c0.128,0.27,0.256,0.54,0.385,0.809
		c0.129,0.272,0.259,0.544,0.389,0.816c0.074,0.154,0.148,0.308,0.221,0.462c0.009,0.02,0.026,0.038,0.021,0.063
		c-0.005,0.002-0.009,0.007-0.013,0.006c-0.145-0.012-0.29-0.024-0.436-0.036c-0.135-0.011-0.27-0.022-0.406-0.033
		c-0.007-0.001-0.015-0.003-0.022-0.004c-0.065,0.002-0.101-0.033-0.135-0.086c-0.315-0.489-0.58-1.004-0.791-1.546
		C7.181,8.371,7.003,7.677,6.919,6.96C6.889,6.696,6.873,6.431,6.866,6.165C6.862,5.976,6.868,5.789,6.873,5.601
		C6.88,5.328,6.905,5.056,6.951,4.786C6.966,4.698,7.006,4.619,7.025,4.533z"/>
	<path fill="#DE00FF" d="M7.025,4.533c0.003,0.033,0,0.064-0.01,0.096C6.983,4.732,6.956,4.836,6.951,4.944
		c-0.024,0.062-0.005,0.13-0.028,0.192C6.918,5.15,6.922,5.166,6.921,5.181C6.92,5.219,6.924,5.256,6.91,5.293
		c-0.005,0.013-0.003,0.03-0.003,0.045c-0.002,0.06,0.006,0.12-0.014,0.179C6.887,5.533,6.891,5.552,6.891,5.569
		c0,0.083,0,0.166,0,0.249c0,0.042,0.001,0.084-0.011,0.127C6.872,5.973,6.873,6.006,6.881,6.034c0.01,0.035,0.01,0.069,0.01,0.104
		c0,0.083,0,0.166,0,0.249c0,0.037-0.003,0.075,0.011,0.112c0.005,0.013,0.003,0.03,0.003,0.045c0.002,0.06-0.006,0.12,0.014,0.179
		c0.006,0.018,0.001,0.04,0.002,0.06c0,0.023,0,0.045,0.008,0.067c0.004,0.011,0.006,0.024,0.007,0.037
		c0.001,0.08,0.016,0.159,0.028,0.237c0.013,0.084,0.02,0.168,0.034,0.252c0.017,0.098,0.038,0.196,0.058,0.293
		C7.09,7.833,7.132,7.995,7.175,8.157C7.206,8.27,7.239,8.383,7.272,8.496c0.015,0.05,0.028,0.102,0.047,0.15
		C7.365,8.766,7.396,8.89,7.45,9.006c0.027,0.059,0.048,0.121,0.074,0.181C7.567,9.289,7.609,9.39,7.655,9.49
		c0.054,0.118,0.11,0.236,0.169,0.353C7.865,9.923,7.913,10,7.956,10.079c0.028,0.051,0.053,0.102,0.083,0.152
		c0.062,0.1,0.121,0.202,0.183,0.302c0.019,0.032,0.043,0.062,0.061,0.095c0.014,0.025,0.031,0.037,0.06,0.035
		c0.011-0.001,0.019,0.005,0.026,0.013c-0.096,0.002-0.19-0.015-0.285-0.018c-0.024-0.001-0.035-0.016-0.044-0.035
		c-0.041-0.083-0.082-0.167-0.123-0.25c-0.139-0.278-0.278-0.557-0.416-0.835C7.376,9.29,7.253,9.043,7.13,8.796
		C6.995,8.524,6.859,8.253,6.724,7.981C6.6,7.732,6.475,7.483,6.351,7.234C6.252,7.036,6.154,6.839,6.055,6.641
		C6.047,6.626,6.041,6.609,6.031,6.594C6.015,6.568,6.016,6.545,6.03,6.517c0.044-0.085,0.085-0.171,0.127-0.256
		C6.33,5.915,6.502,5.569,6.675,5.224c0.106-0.213,0.213-0.426,0.32-0.639C7.004,4.566,7.009,4.546,7.025,4.533z"/>
	<path fill="#CF00FF" d="M24.747,6.59c0.001-0.024,0.015-0.042,0.025-0.062c0.013-0.025,0.012-0.046-0.001-0.071
		c-0.046-0.091-0.091-0.183-0.137-0.275c-0.012-0.024-0.022-0.05-0.033-0.075c0.035-0.026,0.035-0.063,0.036-0.102
		c0.02-0.859-0.114-1.697-0.344-2.522c-0.088-0.316-0.212-0.617-0.345-0.916c-0.015-0.034-0.033-0.053-0.073-0.051
		c-0.03,0.002-0.062-0.001-0.062-0.045c0.043,0,0.085,0,0.128,0c0.017,0,0.028,0.008,0.036,0.022
		c0.006,0.011,0.011,0.022,0.017,0.034c0.17,0.342,0.341,0.683,0.511,1.025c0.134,0.27,0.269,0.539,0.403,0.809
		c0.126,0.252,0.251,0.503,0.377,0.755c0.133,0.267,0.267,0.535,0.4,0.802c0.098,0.195,0.195,0.391,0.294,0.586
		c0.019,0.037,0.023,0.066,0.003,0.105c-0.086,0.168-0.168,0.337-0.252,0.506c-0.125,0.252-0.251,0.503-0.376,0.755
		c-0.133,0.267-0.266,0.535-0.4,0.803c-0.124,0.249-0.249,0.499-0.373,0.748c-0.133,0.267-0.267,0.535-0.4,0.802
		c-0.063,0.126-0.126,0.251-0.189,0.377c-0.007,0.013-0.014,0.027-0.021,0.04c-0.006,0.012-0.016,0.019-0.03,0.02
		c-0.148,0.008-0.295,0.03-0.443,0.031c-0.006-0.016,0.001-0.029,0.01-0.042c0.2-0.289,0.347-0.605,0.492-0.923
		c0.223-0.486,0.392-0.99,0.527-1.507c0.103-0.397,0.173-0.8,0.218-1.208c0.012-0.107,0.027-0.214,0.03-0.322
		C24.775,6.653,24.769,6.62,24.747,6.59z"/>
	<path fill="#E800FF" d="M23.812,2.473c0.013,0.027,0.035,0.035,0.062,0.028c0.01-0.002,0.019-0.007,0.029-0.009
		c0.027-0.006,0.037-0.001,0.046,0.025c0.015,0.043,0.035,0.083,0.052,0.125c0.039,0.098,0.086,0.192,0.126,0.289
		c0.041,0.1,0.081,0.2,0.112,0.303c0.057,0.189,0.115,0.378,0.16,0.57c0.042,0.18,0.086,0.36,0.119,0.541
		c0.019,0.105,0.039,0.211,0.053,0.317c0.012,0.091,0.019,0.184,0.04,0.274c0.004,0.017,0.001,0.035,0.003,0.053
		c0.001,0.02,0.001,0.041,0.007,0.059c0.008,0.025,0.008,0.049,0.008,0.074c0,0.038-0.001,0.075,0.011,0.112
		c0.007,0.02,0.003,0.045,0.004,0.067c0.001,0.05-0.005,0.1,0.013,0.149c0.004,0.011,0.002,0.025,0.002,0.037
		c0,0.194,0,0.387,0,0.581c0,0.01,0,0.02-0.001,0.03c-0.002,0.015-0.011,0.021-0.026,0.017c-0.01-0.003-0.019-0.005-0.029-0.007
		c-0.005-0.003-0.006-0.007-0.005-0.013c-0.003-0.005-0.007-0.011-0.01-0.017c-0.002-0.005-0.003-0.009-0.005-0.014
		c-0.003-0.005-0.007-0.011-0.01-0.017c-0.002-0.005-0.003-0.009-0.005-0.014c-0.004-0.005-0.007-0.011-0.01-0.016
		c-0.021-0.023-0.032-0.051-0.045-0.078C24.405,5.727,24.3,5.513,24.193,5.3c-0.134-0.269-0.268-0.539-0.403-0.808
		c-0.127-0.254-0.253-0.507-0.38-0.76c-0.131-0.262-0.262-0.525-0.393-0.787c-0.074-0.148-0.149-0.296-0.223-0.444
		c-0.01-0.02-0.018-0.04-0.026-0.059c0.014-0.018,0.03-0.012,0.044-0.011c0.178,0.006,0.356,0.014,0.534,0.02
		c0.098,0.004,0.196,0.006,0.293,0.01C23.697,2.463,23.755,2.461,23.812,2.473z"/>
	<path fill="#E200FF" d="M24.747,6.59c0.01,0.001,0.02,0.001,0.03,0.002c0.014,0.003,0.025,0.013,0.022,0.026
		c-0.011,0.05,0.004,0.102-0.008,0.15c-0.017,0.071-0.003,0.145-0.026,0.215c-0.003,0.009-0.003,0.02-0.003,0.03
		c0,0.07-0.013,0.139-0.027,0.207c-0.008,0.039-0.01,0.079-0.016,0.118c-0.016,0.119-0.041,0.236-0.059,0.353
		c-0.025,0.153-0.06,0.303-0.096,0.453c-0.034,0.143-0.078,0.284-0.119,0.426c-0.034,0.118-0.067,0.236-0.108,0.351
		c-0.058,0.162-0.109,0.328-0.184,0.484c-0.014,0.029-0.027,0.059-0.037,0.09c-0.028,0.091-0.075,0.175-0.111,0.263
		c-0.057,0.139-0.126,0.273-0.195,0.406c-0.052,0.1-0.108,0.197-0.162,0.296c-0.01,0.018-0.018,0.036-0.027,0.054
		c-0.026,0.055-0.058,0.105-0.103,0.147c-0.009,0.008-0.015,0.02-0.023,0.03c-0.03,0.004-0.059,0.01-0.089,0.013
		c-0.19,0.016-0.38,0.031-0.57,0.046c-0.022,0.002-0.044,0.008-0.067-0.002c-0.001-0.027,0.015-0.047,0.026-0.07
		c0.155-0.326,0.31-0.653,0.465-0.979c0.159-0.335,0.319-0.671,0.478-1.006c0.129-0.272,0.259-0.543,0.388-0.815
		c0.129-0.272,0.259-0.544,0.388-0.815c0.07-0.147,0.141-0.294,0.212-0.441C24.733,6.611,24.741,6.601,24.747,6.59z"/>
	<path fill="#CF00FF" d="M24.556,6.018c0.003,0.005,0.007,0.011,0.01,0.016C24.559,6.031,24.555,6.026,24.556,6.018z"/>
	<path fill="#CF00FF" d="M24.571,6.048c0.003,0.006,0.007,0.011,0.01,0.017C24.573,6.062,24.57,6.056,24.571,6.048z"/>
	<path fill="#CF00FF" d="M24.586,6.078c0.003,0.006,0.007,0.011,0.01,0.017C24.588,6.092,24.585,6.087,24.586,6.078z"/>
	<path fill="#6000FF" d="M27.613,4.781c0.026,0.034,0.044,0.072,0.063,0.11c0.111,0.225,0.222,0.45,0.333,0.675
		c0.024,0.049,0.058,0.094,0.073,0.148c0.047,0.305,0.001,0.61-0.005,0.916c-0.004,0.219-0.033,0.435-0.048,0.653
		c-0.003,0.038-0.012,0.074-0.023,0.11c-0.009,0.021-0.016,0.042-0.026,0.062c-0.097,0.197-0.193,0.394-0.291,0.591
		c-0.038,0.076-0.079,0.149-0.119,0.224c-0.049-0.037-0.028-0.087-0.021-0.132c0.039-0.241,0.082-0.48,0.11-0.723
		c0.032-0.277,0.06-0.554,0.067-0.833c0-0.017,0.005-0.035-0.006-0.051c0.001-0.005,0.001-0.01,0.002-0.014
		c0.011-0.027,0.033-0.055,0.032-0.081c-0.001-0.03-0.023-0.059-0.036-0.087c-0.029-0.06-0.058-0.119-0.088-0.179
		c0.003-0.267,0.013-0.534-0.006-0.802c-0.011-0.15-0.023-0.299-0.034-0.448C27.588,4.872,27.579,4.822,27.613,4.781z"/>
	<path fill="#7100FF" d="M27.721,6.53c0.013,0.002,0.027,0.008,0.027,0.022c0,0.075,0.012,0.15-0.008,0.224
		c-0.006,0.022-0.005,0.045-0.005,0.067c-0.002,0.055,0.006,0.11-0.014,0.164c-0.003,0.009-0.001,0.02-0.001,0.03
		c-0.001,0.045,0.004,0.09-0.013,0.134c-0.002,0.004-0.002,0.01-0.001,0.015c0.008,0.068-0.02,0.133-0.016,0.201
		c-0.022,0.054-0.013,0.113-0.025,0.17c-0.01,0.048-0.011,0.099-0.02,0.148c-0.013,0.076-0.025,0.152-0.038,0.228
		c-0.016,0.093-0.033,0.186-0.047,0.279c-0.003,0.018,0.007,0.039,0.011,0.058c-0.009,0.021-0.016,0.042-0.026,0.062
		c-0.086,0.176-0.172,0.351-0.259,0.526c-0.068,0.137-0.137,0.273-0.206,0.41c-0.006,0.011-0.011,0.022-0.017,0.033
		c-0.006,0.012-0.015,0.02-0.029,0.02c-0.058,0-0.114,0.018-0.172,0.012c0.063-0.049,0.078-0.123,0.098-0.194
		c0.141-0.511,0.245-1.03,0.325-1.554c0.007-0.045,0.014-0.089,0-0.134c0.004-0.012,0.007-0.024,0.012-0.035
		c0.106-0.224,0.212-0.448,0.318-0.673c0.005-0.011,0.013-0.022,0.019-0.032c0.004-0.006,0.01-0.012,0.011-0.02
		c-0.001-0.005,0.001-0.008,0.005-0.01c0.004-0.006,0.007-0.012,0.011-0.017c-0.001-0.005,0-0.01,0.005-0.013
		c0.003-0.006,0.007-0.012,0.01-0.018c-0.001-0.005,0-0.009,0.004-0.012c0.003-0.006,0.009-0.012,0.01-0.019
		c-0.001-0.005,0-0.009,0.004-0.011c0.004-0.006,0.009-0.012,0.011-0.02c-0.001-0.004,0-0.008,0.004-0.01
		c0.005-0.006,0.01-0.012,0.011-0.021C27.716,6.535,27.717,6.532,27.721,6.53z"/>
	<path fill="#7D00FF" d="M27.613,4.781c0,0.045,0,0.09,0,0.135c0,0.015-0.003,0.031,0.001,0.045
		c0.019,0.059,0.012,0.119,0.014,0.179c0.001,0.045,0.019,0.087,0.016,0.134c-0.003,0.045-0.004,0.09,0.013,0.134
		c0.003,0.009,0.002,0.02,0.002,0.03c0,0.228,0,0.457,0,0.685c0,0.01-0.001,0.02-0.004,0.029c-0.003,0.011-0.014,0.013-0.023,0.016
		c-0.011-0.02-0.023-0.039-0.033-0.059c-0.103-0.207-0.205-0.414-0.308-0.621c-0.034-0.067-0.069-0.134-0.103-0.201
		c-0.009-0.018-0.016-0.037-0.024-0.055c0.018-0.166-0.012-0.33-0.029-0.493c-0.032-0.314-0.082-0.626-0.139-0.937
		c-0.013-0.07-0.028-0.128-0.117-0.121c-0.016,0.001-0.035-0.007-0.035-0.031c0.058,0,0.115,0.001,0.173,0
		c0.029-0.001,0.045,0.012,0.057,0.038c0.045,0.095,0.093,0.189,0.14,0.283c0.125,0.251,0.251,0.503,0.376,0.754
		C27.599,4.744,27.606,4.763,27.613,4.781z"/>
	<path fill="#8900FF" d="M27.283,7.451c0.017,0.009,0.028,0.022,0.028,0.041c0.001,0.02,0.003,0.041,0,0.06
		c-0.016,0.101-0.033,0.201-0.051,0.302c-0.007,0.042-0.016,0.083-0.023,0.125c-0.022,0.122-0.04,0.246-0.066,0.367
		c-0.041,0.19-0.086,0.379-0.131,0.568c-0.029,0.119-0.063,0.236-0.094,0.354c-0.009,0.034-0.024,0.06-0.066,0.055
		c-0.006-0.001-0.013,0.007-0.019,0.011c-0.162,0.018-0.324,0.029-0.486,0.041c-0.011-0.023,0.003-0.037,0.01-0.051
		c0.118-0.247,0.236-0.494,0.353-0.741c0.124-0.261,0.248-0.521,0.373-0.782c0.005-0.011,0.013-0.021,0.019-0.032
		c0.01-0.008,0.007-0.023,0.015-0.032c-0.001-0.005,0-0.01,0.005-0.014c0.003-0.006,0.007-0.012,0.01-0.017
		c-0.001-0.005,0-0.009,0.005-0.013c0.003-0.006,0.008-0.011,0.01-0.018c-0.001-0.005,0-0.009,0.004-0.012
		c0.003-0.006,0.009-0.012,0.01-0.019c-0.001-0.005,0-0.008,0.004-0.011c0.004-0.006,0.01-0.012,0.011-0.02
		c-0.001-0.004,0-0.007,0.004-0.01c0.005-0.007,0.011-0.013,0.011-0.022c-0.002-0.004-0.001-0.007,0.003-0.008
		c0.008-0.008,0.005-0.022,0.014-0.03l0,0c0.009-0.008,0.006-0.022,0.015-0.031l0,0c0.007-0.006,0.013-0.012,0.013-0.022
		c-0.001-0.004,0-0.007,0.004-0.009c0.005-0.007,0.011-0.013,0.011-0.021C27.278,7.455,27.279,7.452,27.283,7.451z"/>
	<path fill="#9000FF" d="M26.844,3.651c0.018,0.02,0.042,0.014,0.063,0.014c0.102,0.001,0.08-0.005,0.099,0.083
		c0.028,0.124,0.043,0.25,0.064,0.375c0.014,0.081,0.034,0.161,0.041,0.243c0.005,0.055,0.025,0.108,0.019,0.163
		c0.022,0.062,0.006,0.129,0.027,0.192c0.005,0.016,0.003,0.035,0.003,0.052c0,0.025-0.001,0.05,0.009,0.074
		c0.002,0.004,0.004,0.01,0.004,0.014C27.171,4.966,27.2,5.07,27.192,5.175c-0.002,0.024-0.005,0.045-0.027,0.058
		C27.16,5.23,27.159,5.226,27.16,5.221c-0.003-0.006-0.007-0.012-0.01-0.017c-0.004-0.003-0.006-0.007-0.005-0.013
		c-0.003-0.006-0.007-0.012-0.01-0.017C27.13,5.17,27.129,5.166,27.13,5.16c-0.003-0.006-0.007-0.011-0.01-0.017
		c-0.004-0.003-0.006-0.008-0.005-0.013c-0.003-0.006-0.007-0.011-0.01-0.017C27.1,5.11,27.099,5.105,27.1,5.1
		c-0.003-0.006-0.007-0.011-0.01-0.017c-0.002-0.005-0.003-0.009-0.005-0.014c-0.003-0.005-0.007-0.011-0.01-0.016
		c-0.002-0.005-0.004-0.009-0.005-0.014c-0.003-0.005-0.007-0.011-0.01-0.016c-0.002-0.005-0.003-0.009-0.005-0.014
		c-0.003-0.005-0.007-0.011-0.01-0.016c-0.002-0.005-0.004-0.01-0.005-0.014c-0.004-0.005-0.007-0.01-0.01-0.016
		c-0.002-0.005-0.004-0.01-0.005-0.014c-0.004-0.005-0.007-0.01-0.01-0.016c-0.002-0.005-0.004-0.01-0.005-0.015
		C27.006,4.913,27.003,4.908,27,4.902c-0.002-0.005-0.004-0.01-0.006-0.015c-0.004-0.005-0.007-0.01-0.009-0.015
		c-0.077-0.152-0.155-0.303-0.231-0.455c-0.081-0.161-0.16-0.323-0.24-0.484c-0.041-0.083-0.084-0.165-0.126-0.248
		c-0.008-0.015-0.018-0.03-0.015-0.054C26.53,3.635,26.688,3.635,26.844,3.651z"/>
	<path fill="#4A00FF" d="M28.007,7.393c0-0.045-0.001-0.09-0.001-0.136c0-0.023,0.001-0.045,0.008-0.067
		c0.005-0.016,0.006-0.034,0.007-0.052c0.001-0.045-0.002-0.09,0.013-0.134c0.006-0.018,0.002-0.04,0.002-0.06
		c0.001-0.037-0.001-0.074,0.011-0.112c0.008-0.023,0.003-0.05,0.004-0.075c0.002-0.065-0.007-0.13,0.013-0.194
		c0.005-0.016,0.002-0.035,0.002-0.052c0-0.08,0-0.161,0-0.241c0-0.04-0.003-0.08,0.012-0.119c0.006-0.016,0.003-0.035,0.003-0.052
		c0-0.068,0-0.136,0-0.203c0-0.028-0.002-0.054-0.009-0.082c-0.008-0.033-0.018-0.069,0.01-0.099c0.021,0.02,0.028,0.047,0.04,0.071
		c0.088,0.177,0.175,0.355,0.263,0.533c0.021,0.043,0.044,0.085,0.067,0.126c0.014,0.024,0.013,0.046,0,0.07
		c-0.043,0.082-0.085,0.165-0.126,0.248c-0.089,0.18-0.177,0.36-0.266,0.54C28.045,7.334,28.025,7.363,28.007,7.393z"/>
	<path fill="#7100FF" d="M27.252,7.51c0,0.013-0.003,0.024-0.015,0.031C27.236,7.528,27.241,7.518,27.252,7.51z"/>
	<path fill="#7100FF" d="M27.237,7.541c0,0.012-0.003,0.023-0.014,0.03C27.222,7.558,27.227,7.548,27.237,7.541z"/>
	<path fill="#7100FF" d="M27.145,7.735c0.001,0.013-0.001,0.025-0.015,0.032C27.13,7.754,27.135,7.743,27.145,7.735z"/>
	<path fill="#7D00FF" d="M26.985,4.872c0.003,0.005,0.006,0.01,0.009,0.015C26.988,4.885,26.984,4.88,26.985,4.872z"/>
	<path fill="#7D00FF" d="M27,4.902c0.003,0.005,0.006,0.01,0.009,0.016C27.003,4.915,26.999,4.91,27,4.902z"/>
	<path fill="#7D00FF" d="M27.015,4.933c0.003,0.005,0.006,0.011,0.01,0.016C27.018,4.945,27.014,4.94,27.015,4.933z"/>
	<path fill="#7D00FF" d="M27.03,4.963c0.003,0.005,0.006,0.011,0.01,0.016C27.033,4.975,27.029,4.97,27.03,4.963z"/>
	<path fill="#7D00FF" d="M27.045,4.993c0.003,0.005,0.006,0.011,0.01,0.016C27.048,5.006,27.044,5.001,27.045,4.993z"/>
	<path fill="#7D00FF" d="M27.06,5.023c0.003,0.005,0.007,0.011,0.01,0.016C27.062,5.036,27.059,5.031,27.06,5.023z"/>
	<path fill="#7D00FF" d="M27.075,5.053c0.003,0.005,0.007,0.011,0.01,0.016C27.078,5.066,27.074,5.061,27.075,5.053z"/>
	<path fill="#7D00FF" d="M27.09,5.083c0.003,0.006,0.007,0.011,0.01,0.017C27.092,5.097,27.089,5.091,27.09,5.083z"/>
	<path fill="#7D00FF" d="M27.105,5.113c0.003,0.006,0.007,0.011,0.01,0.017C27.107,5.127,27.104,5.121,27.105,5.113z"/>
	<path fill="#7D00FF" d="M27.12,5.143c0.003,0.006,0.007,0.011,0.01,0.017C27.122,5.157,27.119,5.152,27.12,5.143z"/>
	<path fill="#7D00FF" d="M27.135,5.174c0.003,0.006,0.007,0.012,0.01,0.017C27.137,5.188,27.134,5.182,27.135,5.174z"/>
	<path fill="#7D00FF" d="M27.15,5.204c0.003,0.006,0.007,0.012,0.01,0.017C27.152,5.218,27.149,5.212,27.15,5.204z"/>
	<path fill="#6000FF" d="M27.717,6.539c0,0.009-0.004,0.016-0.011,0.021C27.706,6.551,27.709,6.544,27.717,6.539z"/>
	<path fill="#6000FF" d="M27.702,6.57c-0.004,0.007-0.007,0.013-0.011,0.02C27.691,6.581,27.695,6.575,27.702,6.57z"/>
	<path fill="#6000FF" d="M27.688,6.601c-0.003,0.006-0.007,0.013-0.01,0.019C27.677,6.612,27.68,6.605,27.688,6.601z"/>
	<path fill="#6000FF" d="M27.673,6.632c-0.003,0.006-0.007,0.012-0.01,0.018C27.662,6.642,27.666,6.636,27.673,6.632z"/>
	<path fill="#6000FF" d="M27.658,6.663c-0.004,0.006-0.007,0.011-0.011,0.017C27.647,6.672,27.651,6.667,27.658,6.663z"/>
	<path fill="#6000FF" d="M27.642,6.691c-0.004,0.007-0.007,0.013-0.011,0.02C27.631,6.702,27.634,6.695,27.642,6.691z"/>
	<path fill="#7100FF" d="M27.28,7.459c0,0.009-0.004,0.016-0.011,0.021C27.268,7.471,27.272,7.464,27.28,7.459z"/>
	<path fill="#7100FF" d="M27.265,7.489c0,0.01-0.005,0.017-0.013,0.022C27.251,7.5,27.256,7.493,27.265,7.489z"/>
	<path fill="#7100FF" d="M27.219,7.579c0,0.009-0.003,0.017-0.011,0.022C27.208,7.591,27.211,7.584,27.219,7.579z"/>
	<path fill="#7100FF" d="M27.205,7.61c0,0.009-0.003,0.016-0.011,0.02C27.193,7.622,27.197,7.615,27.205,7.61z"/>
	<path fill="#7100FF" d="M27.175,7.673c-0.003,0.006-0.007,0.012-0.01,0.018C27.164,7.683,27.168,7.677,27.175,7.673z"/>
	<path fill="#7100FF" d="M27.16,7.704c-0.003,0.006-0.007,0.012-0.01,0.017C27.149,7.713,27.153,7.707,27.16,7.704z"/>
	<path fill="#7100FF" d="M27.19,7.642c-0.003,0.006-0.007,0.013-0.01,0.019C27.179,7.652,27.182,7.646,27.19,7.642z"/>
</g>
</svg>
