<?xml version="1.0" encoding="utf-8"?>
<!-- Generator: Adobe Illustrator 16.0.0, SVG Export Plug-In . SVG Version: 6.00 Build 0)  -->
<!DOCTYPE svg PUBLIC "-//W3C//DTD SVG 1.1//EN" "http://www.w3.org/Graphics/SVG/1.1/DTD/svg11.dtd">
<svg version="1.1" id="case1" xmlns="http://www.w3.org/2000/svg" xmlns:xlink="http://www.w3.org/1999/xlink" x="0px" y="0px"
	 width="57.834px" height="36px" viewBox="0 0 57.834 36" enable-background="new 0 0 57.834 36" xml:space="preserve">
<linearGradient id="shape1_1_" gradientUnits="userSpaceOnUse" x1="2.02" y1="17.7705" x2="17.019" y2="17.7705" gradientTransform="matrix(1 0 0 -1 -0.02 35.0947)">
	<stop  offset="0" style="stop-color:#5400D7"/>
	<stop  offset="1" style="stop-color:#9178E2"/>
</linearGradient>
<path id="shape1" fill="url(#shape1_1_)" d="M13.798,25.43v0.289h-0.004v1.547c-1.771,0.375-3.571,0.604-5.38,0.678
	c-1.954-0.101-3.897-0.342-5.816-0.725V25.43c1.895,0.307,3.806,0.5,5.724,0.58C10.158,25.932,11.987,25.736,13.798,25.43
	 M12.327,0.819c-0.023,0.005-0.037,0.025-0.034,0.048h-0.145v0.149c-0.297,0.296-0.542,0.64-0.728,1.016v-0.2l-0.24-0.094H5.46
	C5.24,1.767,5.053,1.915,4.975,2.124C4.876,2.269,4.81,2.434,4.782,2.608c-0.067,0.137-0.067,0.297,0,0.434H4.681v0.049H4.633v0.682
	h0.678c0.177,0.03,0.355,0.045,0.534,0.046h0.054v2.127l-0.15,0.193C5.704,6.223,5.653,6.304,5.598,6.382
	c-0.032,0.224-0.032,0.453,0,0.677C5.439,7.064,5.279,7.079,5.12,7.103c-0.278,0.03-0.553,0.078-0.824,0.145
	C3.81,7.282,3.437,7.315,3.18,7.348c-0.215,0.02-0.427,0.069-0.629,0.145v0.043C2.452,7.537,2.354,7.553,2.259,7.584
	C2.231,7.61,2.213,7.646,2.212,7.683C2.075,7.823,2.002,8.007,2,8.195v0.013c0.001,0.102,0.023,0.204,0.067,0.3V32.16l0.145,0.048
	c0.094,0.093,0.211,0.16,0.339,0.194c0.219,0.125,0.445,0.236,0.678,0.336c0.78,0.391,1.612,0.666,2.471,0.82
	c0.483,0.098,1.035,0.178,1.648,0.24c0.663,0.063,1.332,0.029,1.985-0.1c0.792-0.074,1.573-0.236,2.328-0.481
	c0.761-0.192,1.495-0.485,2.18-0.868h0.049c0.056-0.062,0.12-0.106,0.193-0.146l0.194-0.049V8.555h0.049
	c-0.001,0.005-0.001,0.009,0,0.013c0.002,0.023,0.024,0.039,0.046,0.036v0.047l0.147,0.194h0.049v0.048l0.047,0.045
	c0,0.003,0,0.006,0,0.009c0.003,0.024,0.025,0.042,0.049,0.04v0.1c-0.001,0.003-0.001,0.006,0,0.009
	c0.002,0.024,0.024,0.042,0.048,0.04v0.048h0.046v0.049c0.039,0.001,0.076,0.018,0.1,0.048v0.047h0.049v0.045l0.049,0.048
	c0,0.003,0,0.007,0,0.009c0.002,0.025,0.024,0.043,0.047,0.04v0.1h0.051v0.047l0.145,0.101v0.044c0.001,0,0.002,0,0.004,0
	c0.023,0.001,0.041,0.022,0.04,0.046l0.048,0.1v0.049h0.048v0.047c0.003-0.001,0.008-0.001,0.013,0
	c0.024,0.002,0.041,0.025,0.037,0.049c0,0.004,0,0.007,0.001,0.011c0.003,0.022,0.025,0.039,0.048,0.035v0.1h0.049v0.044
	c0.005-0.001,0.008-0.001,0.012,0c0.024,0.003,0.041,0.024,0.038,0.048v0.1c0.003,0,0.008,0,0.012,0
	c0.024,0.003,0.04,0.026,0.036,0.049h0.048l0.05,0.048v0.046h0.047v0.1h0.05v0.044l0.049,0.049v0.1l0.047,0.049v0.046l0.05,0.049
	v0.047h0.046v0.027l0.048,0.048v0.048l0.049,0.049h0.1v17.916h-0.051v0.05h-0.044v0.043h-0.047c0,0.003,0,0.006,0,0.008
	c-0.003,0.024-0.025,0.044-0.049,0.041l-0.1,0.101v0.773h0.677V30.02h0.047v-0.043l0.056-0.041v-0.047h0.1l0.049-0.102
	c-0.001-0.003-0.001-0.008,0-0.012c0.003-0.023,0.025-0.039,0.048-0.035v-0.047h0.144V10.957c-0.039,0-0.076-0.018-0.1-0.048v-0.338
	l-0.138-0.19v-0.048h-0.05v-0.049c-0.003,0.001-0.008,0.001-0.011,0.001c-0.024-0.003-0.041-0.025-0.037-0.048l-0.1-0.1v-0.049
	h-0.049v-0.047l-0.047-0.048c0-0.004,0-0.008,0-0.012c-0.005-0.023-0.026-0.039-0.05-0.034v-0.1h-0.049V9.798l-0.036-0.047V9.704
	l-0.053-0.049c0.001-0.004,0.001-0.008,0-0.012c-0.003-0.023-0.024-0.038-0.046-0.034v-0.1l-0.048-0.046V8.835l-0.201-0.194V8.596
	c-0.003,0-0.007,0-0.01,0c-0.024-0.003-0.04-0.024-0.038-0.049h-0.048V8.448h-0.049v-0.04l-0.048-0.05V8.259l-0.1-0.1v-0.14
	L15.64,7.965V7.918c-0.004,0-0.009,0-0.012,0c-0.024-0.004-0.039-0.025-0.035-0.048V7.819l-0.045-0.046v-0.14h-0.05v-0.1
	l-0.051-0.048V7.437l-0.049-0.049V7.34h-0.055V7.302l-0.047-0.048v-0.1c-0.004,0-0.008,0-0.011,0
	c-0.024-0.003-0.042-0.025-0.039-0.049v-0.1c0.001-0.005,0.001-0.009,0-0.014c-0.003-0.021-0.025-0.036-0.047-0.032v-0.1
	L15.153,6.81V6.768l-0.048-0.049v-0.1h-0.05V6.477h-0.048v-0.1l-0.049-0.049V6.134l-0.049-0.048V6.037l-0.05-0.048V5.942
	l-0.048-0.05v-0.04h-0.048v-0.1c0-0.004,0-0.007,0-0.011c-0.004-0.024-0.025-0.041-0.05-0.038v-0.1c0.001-0.004,0.001-0.008,0-0.011
	c-0.002-0.023-0.024-0.042-0.048-0.038V5.417c-0.004,0-0.007,0-0.011,0c-0.023-0.003-0.041-0.025-0.038-0.048v-0.1h-0.048v-0.1
	l-0.049-0.051v-0.05l-0.048-0.049V4.98l-0.049-0.048v-0.1l-0.051-0.049V4.542l-0.046-0.049c0-0.003,0-0.005,0-0.008
	c-0.003-0.025-0.025-0.043-0.05-0.041V4.395l-0.093-0.1v-0.05l-0.048-0.046V4.15l-0.05-0.05V3.96l-0.048-0.048v-0.1l-0.049-0.046
	V3.719l-0.048-0.05v-0.05h-0.044V3.476h-0.048V3.427c-0.004,0-0.008,0-0.011,0c-0.023-0.003-0.041-0.025-0.038-0.048V3.235
	l-0.051-0.049V3.138c0-0.004,0-0.009,0-0.013c-0.004-0.023-0.025-0.039-0.049-0.035V3.041l-0.049-0.045v-0.1h-0.051V2.849
	l-0.046-0.047v-0.1l-0.047-0.048V2.513c0-0.004,0-0.006-0.001-0.01c-0.003-0.023-0.024-0.04-0.049-0.036v-0.1h-0.047v-0.1H13.36
	V2.121c0-0.002,0-0.006-0.001-0.009c-0.003-0.025-0.026-0.042-0.05-0.038V2.033H13.26v-0.1c-0.005,0-0.009,0-0.014,0
	c-0.022-0.004-0.038-0.025-0.035-0.048v-0.1l-0.047-0.048h-0.001V1.59l-0.05-0.047V1.495h-0.242V1.448L12.822,1.4V0.867h-0.484
	V0.819c-0.001,0-0.004,0-0.006,0S12.328,0.819,12.327,0.819"/>
<g>
	<g>
		<defs>
			<path id="SVGID_1_" d="M13.798,25.43v0.289h-0.004v1.547c-1.771,0.375-3.571,0.604-5.38,0.678
				c-1.954-0.101-3.897-0.342-5.816-0.725V25.43c1.895,0.307,3.806,0.5,5.724,0.58C10.158,25.932,11.986,25.736,13.798,25.43
				 M12.327,0.819c-0.022,0.005-0.037,0.025-0.034,0.048h-0.145v0.149c-0.297,0.296-0.543,0.64-0.729,1.016v-0.2l-0.24-0.094h-5.72
				c-0.22,0.029-0.407,0.177-0.485,0.386c-0.099,0.145-0.165,0.31-0.193,0.484c-0.067,0.137-0.067,0.297,0,0.434H4.68v0.049H4.632
				v0.682H5.31c0.177,0.03,0.355,0.045,0.534,0.046h0.054v2.127l-0.15,0.193C5.703,6.223,5.652,6.304,5.597,6.382
				c-0.032,0.224-0.032,0.453,0,0.677c-0.159,0.005-0.319,0.02-0.478,0.044c-0.278,0.03-0.553,0.078-0.824,0.145
				c-0.486,0.034-0.859,0.067-1.116,0.1C2.964,7.368,2.752,7.417,2.55,7.493v0.043C2.451,7.537,2.353,7.553,2.258,7.584
				C2.23,7.61,2.212,7.646,2.211,7.683c-0.137,0.14-0.21,0.324-0.212,0.512v0.013C2,8.31,2.022,8.412,2.066,8.508V32.16l0.145,0.048
				c0.094,0.093,0.211,0.16,0.339,0.194c0.219,0.125,0.445,0.236,0.678,0.336c0.78,0.391,1.612,0.666,2.471,0.82
				c0.483,0.098,1.035,0.178,1.648,0.24c0.663,0.063,1.332,0.029,1.985-0.1c0.792-0.074,1.573-0.236,2.328-0.481
				c0.761-0.192,1.495-0.485,2.18-0.868h0.05c0.055-0.062,0.119-0.106,0.192-0.146l0.194-0.049V8.555h0.049
				c-0.001,0.005-0.001,0.009,0,0.013c0.002,0.023,0.023,0.039,0.046,0.036v0.047l0.147,0.194h0.049v0.048l0.047,0.045
				c0,0.003,0,0.006,0,0.009c0.003,0.024,0.025,0.042,0.049,0.04v0.1c-0.001,0.003-0.001,0.006,0,0.009
				c0.002,0.024,0.023,0.042,0.048,0.04v0.048h0.046v0.049c0.039,0.001,0.076,0.018,0.1,0.048v0.047h0.05v0.045l0.049,0.048
				c0,0.003,0,0.007,0,0.009c0.002,0.025,0.024,0.043,0.047,0.04v0.1h0.052v0.047L15.2,9.718v0.044c0.001,0,0.002,0,0.004,0
				c0.023,0.001,0.041,0.022,0.04,0.046l0.048,0.1v0.049h0.048v0.047c0.003-0.001,0.009-0.001,0.013,0
				c0.024,0.002,0.041,0.025,0.037,0.049c0,0.004,0,0.007,0.002,0.011c0.002,0.022,0.024,0.039,0.047,0.035v0.1h0.049v0.044
				c0.006-0.001,0.009-0.001,0.013,0c0.024,0.003,0.041,0.024,0.038,0.048v0.1c0.003,0,0.008,0,0.012,0
				c0.024,0.003,0.04,0.026,0.036,0.049h0.048l0.051,0.048v0.046h0.047v0.1h0.049v0.044l0.05,0.049v0.1l0.047,0.049v0.046
				l0.05,0.049v0.047h0.047v0.027l0.047,0.048v0.048l0.049,0.049h0.101v17.916h-0.051v0.05h-0.044v0.043h-0.047
				c0,0.003,0,0.006,0,0.008c-0.004,0.024-0.025,0.044-0.049,0.041l-0.101,0.101v0.773h0.677V30.02h0.047v-0.043l0.057-0.041v-0.047
				h0.1l0.049-0.102c0-0.003,0-0.008,0-0.012c0.004-0.023,0.025-0.039,0.049-0.035v-0.047h0.144V10.957
				c-0.039,0-0.076-0.018-0.101-0.048v-0.338l-0.137-0.19v-0.048h-0.051v-0.049c-0.003,0.001-0.008,0.001-0.011,0.001
				c-0.024-0.003-0.041-0.025-0.037-0.048l-0.101-0.1v-0.049h-0.049v-0.047L16.47,9.993c0-0.004,0-0.008,0-0.012
				c-0.005-0.023-0.025-0.039-0.05-0.034v-0.1h-0.049V9.798l-0.036-0.047V9.704l-0.053-0.049c0-0.004,0-0.008,0-0.012
				c-0.004-0.023-0.024-0.038-0.047-0.034v-0.1l-0.047-0.046V8.835l-0.201-0.194V8.596c-0.004,0-0.008,0-0.01,0
				c-0.024-0.003-0.041-0.024-0.039-0.049h-0.047V8.448h-0.05v-0.04l-0.048-0.05V8.259l-0.1-0.1v-0.14l-0.051-0.054V7.918
				c-0.005,0-0.01,0-0.013,0c-0.024-0.004-0.039-0.025-0.035-0.048V7.819l-0.045-0.046v-0.14h-0.05v-0.1l-0.051-0.048V7.437
				l-0.049-0.049V7.34h-0.056V7.302l-0.047-0.048v-0.1c-0.004,0-0.008,0-0.011,0c-0.024-0.003-0.042-0.025-0.039-0.049v-0.1
				c0.001-0.005,0.001-0.009,0-0.014c-0.003-0.021-0.025-0.036-0.047-0.032v-0.1L15.152,6.81V6.768l-0.047-0.049v-0.1h-0.051V6.477
				h-0.048v-0.1l-0.049-0.049V6.134l-0.049-0.048V6.037l-0.05-0.048V5.942l-0.049-0.05v-0.04h-0.047v-0.1c0-0.004,0-0.007,0-0.011
				c-0.005-0.024-0.025-0.041-0.051-0.038v-0.1c0.001-0.004,0.001-0.008,0-0.011c-0.002-0.023-0.023-0.042-0.048-0.038V5.417
				c-0.004,0-0.007,0-0.011,0c-0.023-0.003-0.041-0.025-0.038-0.048v-0.1h-0.048v-0.1L14.52,5.118v-0.05l-0.049-0.049V4.98
				l-0.049-0.048v-0.1l-0.051-0.049V4.542l-0.046-0.049c0-0.003,0-0.005,0-0.008c-0.003-0.025-0.025-0.043-0.05-0.041V4.395
				l-0.094-0.1v-0.05l-0.048-0.046V4.15l-0.05-0.05V3.96l-0.048-0.048v-0.1l-0.05-0.046V3.719l-0.047-0.05v-0.05h-0.045V3.476
				h-0.047V3.427c-0.005,0-0.009,0-0.012,0c-0.023-0.003-0.041-0.025-0.038-0.048V3.235l-0.051-0.049V3.138c0-0.004,0-0.009,0-0.013
				c-0.004-0.023-0.024-0.039-0.049-0.035V3.041l-0.05-0.045v-0.1h-0.051V2.849l-0.046-0.047v-0.1l-0.047-0.048V2.513
				c0-0.004,0-0.006-0.001-0.01c-0.003-0.023-0.023-0.04-0.049-0.036v-0.1h-0.047v-0.1h-0.049V2.121c0-0.002,0-0.006,0-0.009
				c-0.004-0.025-0.026-0.042-0.051-0.038V2.033H13.26v-0.1c-0.005,0-0.009,0-0.014,0c-0.021-0.004-0.038-0.025-0.035-0.048v-0.1
				l-0.047-0.048h-0.001V1.59l-0.05-0.047V1.495h-0.242V1.448L12.822,1.4V0.867h-0.484V0.819c-0.001,0-0.004,0-0.006,0
				S12.328,0.819,12.327,0.819"/>
		</defs>
		<clipPath id="SVGID_2_">
			<use xlink:href="#SVGID_1_"  overflow="visible"/>
		</clipPath>
		
			<linearGradient id="SVGID_3_" gradientUnits="userSpaceOnUse" x1="-1170.6055" y1="862.4355" x2="-1125.0737" y2="862.4355" gradientTransform="matrix(0.998 -0.0625 -0.0625 -0.998 1209.8615 802.3019)">
			<stop  offset="0" style="stop-color:#FFFF13"/>
			<stop  offset="1" style="stop-color:#7411C3"/>
		</linearGradient>
		<path clip-path="url(#SVGID_2_)" fill="url(#SVGID_3_)" d="M-4.461,13.083L6.88,7.041L-7.944,16.5l0.544,0.889
			c0,0,28.675-18.854,37.509-21.469c0,0-24.501,15.325-29.155,20.093c0,0,13.448-9.158,17.85-11.281L13.698,8.96l2.087-1.197
			l-4.633,3.985c0,0,8.712-6.801,18.081-9.804l3.51,3.688c0,0-7.874,0.139-18.657,13.961c0,0,4.009-6.148,5.891-8.398
			c0,0-7.489,5.16-15.068,12.245l5.673-6.328c0,0-5.923,4.565-9.842,9.928c0,0,5.677-9.594,20.549-19.411
			c0,0-8.153,2.359-24.858,15.204c0,0,14.581-8.874,15.318-9.347c0.67-0.467-18.496,13.171-20.502,16.78
			c-2.215,3.621-3.487-14.492-3.487-14.492L-4.461,13.083z"/>
	</g>
</g>
<linearGradient id="shape5_1_" gradientUnits="userSpaceOnUse" x1="279.4932" y1="1000.7334" x2="279.4932" y2="1014.4834" gradientTransform="matrix(1 0 0 1 -247.6001 -984.0654)">
	<stop  offset="0" style="stop-color:#7439E3"/>
	<stop  offset="1" style="stop-color:#B4A7F8"/>
</linearGradient>
<path id="shape5" fill="url(#shape5_1_)" d="M41.723,31.251c-0.313,0-0.625-0.05-0.922-0.147c-0.298,0.104-0.609,0.147-0.922,0.147
	h-8.193c-0.185,0-0.441-0.009-0.77-0.075c-0.217,0.051-0.439,0.075-0.664,0.075h-2.664c-0.816,0-1.605-0.342-2.166-0.937
	c-0.078-0.086-0.15-0.174-0.219-0.271l-0.91,0.648c-0.503,0.356-1.1,0.554-1.725,0.554h-3.584c-0.717,0-1.402-0.269-1.937-0.722
	c-0.614,0.427-1.352,0.651-2.112,0.651c-0.75,0-1.479-0.222-2.104-0.642c-0.164-0.11-0.315-0.233-0.452-0.37
	c-1.021-1.021-1.363-2.423-0.92-3.753l0.044-0.128l0.08-0.203c-1.801-0.254-3.145-1.767-3.145-3.646V22.24
	c0-0.741,0.274-1.45,0.773-1.996l4.748-5.232c0.646-1.069,1.762-1.679,3.079-1.679h0.41c2.065,0,3.684,1.618,3.684,3.684
	c0,0-0.001,0.289-0.003,0.331c0.555-0.653,1.372-1.044,2.26-1.044h8.398c0.261,0,0.518,0.034,0.768,0.103
	c0.25-0.067,0.508-0.103,0.771-0.103h9.218c0.243,0,0.481,0.029,0.718,0.087c0.232-0.058,0.479-0.087,0.719-0.087h8.396
	c0.917,0,1.797,0.433,2.354,1.159c0.563,0.726,0.752,1.689,0.52,2.573l-0.407,1.532c-0.146,0.541-0.434,1.02-0.823,1.395
	c-0.02,0.188-0.051,0.372-0.1,0.555l-0.41,1.537c-0.07,0.282-0.188,0.551-0.346,0.799c0.168,0.533,0.188,1.109,0.04,1.656
	l-0.413,1.539c-0.352,1.297-1.521,2.202-2.866,2.202H41.723z M38.684,23.782l0.019-0.009h-0.798L37.9,23.782H38.684z"/>
<path id="ACE" fill="#FFFFFF" d="M15.914,23.163h-3.79c-0.409,0-0.717-0.308-0.717-0.718c0-0.104,0-0.104,0-0.204l5.018-5.531
	c0.103-0.307,0.31-0.41,0.615-0.41h0.41c0.409,0,0.717,0.308,0.717,0.717c0,0.102,0,0.205,0,0.205l-2.458,3.584h4.402
	c0.615,0,0.31,1.127-0.103,1.639l-4.507,5.531c-0.309,0.308-0.717,0.308-1.023,0.104c-0.205-0.206-0.309-0.41-0.205-0.719
	L15.914,23.163L15.914,23.163L15.914,23.163z M23.391,19.271l0.409,0.41l-4.813,8.603h3.584l2.15-1.536h2.97l-0.104,1.536h2.663
	l1.536-9.013H23.391L23.391,19.271z M27.896,20.809l-0.104,3.482h-2.97l2.048-3.482H27.896L27.896,20.809z M31.688,28.284h8.191
	l0.613-2.15l-0.819,0.614h-5.733l1.74-5.941h6.452l0.409-1.535h-9.219l-2.354,7.988c-0.102,0.104-0.102,0.309-0.102,0.409
	c0,0.103,0,0.205,0.103,0.31c0.102,0.104,0.205,0.203,0.307,0.203C31.48,28.284,31.585,28.284,31.688,28.284L31.688,28.284
	L31.688,28.284z M43.977,19.271l0.313,0.609l-2.563,8.396h8.192l0.41-1.534h-5.122l0.717-2.458h4.711l0.41-1.537h-4.506l0.611-1.941
	h4.813l0.409-1.535H43.977L43.977,19.271z"/>
</svg>
