<?xml version="1.0" encoding="utf-8"?>
<!-- Generator: Adobe Illustrator 16.0.0, SVG Export Plug-In . SVG Version: 6.00 Build 0)  -->
<!DOCTYPE svg PUBLIC "-//W3C//DTD SVG 1.1//EN" "http://www.w3.org/Graphics/SVG/1.1/DTD/svg11.dtd">
<svg version="1.1" id="case1" xmlns="http://www.w3.org/2000/svg" xmlns:xlink="http://www.w3.org/1999/xlink" x="0px" y="0px"
	 width="85.75px" height="36px" viewBox="0 0 85.75 36" enable-background="new 0 0 85.75 36" xml:space="preserve">
<linearGradient id="usp_silencer_1_" gradientUnits="userSpaceOnUse" x1="1.2637" y1="15.5947" x2="73.2715" y2="15.5947" gradientTransform="matrix(1 0 0 -1 -0.02 35.0947)">
	<stop  offset="0" style="stop-color:#5400D7"/>
	<stop  offset="1" style="stop-color:#9178E2"/>
</linearGradient>
<path id="usp_silencer" fill="url(#usp_silencer_1_)" d="M73.25,9.223c0.014,0.619-0.034,1.237-0.139,1.847
	c-0.041,0.347-0.135,0.684-0.282,1c-0.054,0.145-0.116,0.287-0.185,0.425H58.123l-0.188-0.141l-0.281,0.095h-11.16l-0.28,0.191
	l-0.42-0.144H41.08v-0.858h-1.587V10.93h-0.981v1.657l0.236,0.19v0.8l-0.236,0.19l-0.093,1.61H27.82
	c-0.073,0.004-0.141,0.039-0.187,0.095c-0.166,0.14-0.294,0.32-0.375,0.522c-0.123,0.345-0.745,1.892-1.864,4.641
	c-0.096,0.221-0.26,0.402-0.469,0.521c-0.237,0.097-0.49,0.145-0.746,0.144l-4.855,0.188c-0.226-0.108-0.46-0.204-0.7-0.279
	c-0.383-0.188-0.792-0.314-1.214-0.378c-0.23-0.052-0.465-0.085-0.7-0.103c-0.126,0.032-0.357,0.078-0.7,0.146
	c-0.271,0.093-0.559,0.125-0.843,0.093l-0.328-0.093L12.457,31.1l-0.093,1.135L12.877,33L2.84,32.904c0-0.6,0.031-1.372,0.094-2.318
	c0.174-1.818,0.47-3.622,0.887-5.4c0.413-1.672,0.976-3.306,1.68-4.879c0.03-0.092,0.249-0.554,0.654-1.373
	c0.136-0.271,0.246-0.558,0.326-0.852c0.11-0.319,0.019-0.674-0.233-0.9c-0.36-0.283-0.772-0.492-1.213-0.615
	c-0.625-0.222-1.028-0.362-1.214-0.426c-0.193-0.033-0.344-0.186-0.375-0.379c-0.026-0.364-0.01-0.73,0.048-1.09l0.093-0.709
	l-1.728-0.189c-0.117,0.001-0.231-0.034-0.327-0.1c-0.206-0.131-0.316-0.37-0.282-0.612c0.039-0.298,0.31-0.509,0.608-0.475
	c0.172-0.034,0.351-0.017,0.513,0.049L2.605,11.4l1.4,0.9l0.607-3.079l0.981-1.895V6.523l0.75,0.427L9.33,7l0.282,0.235H19.79v0.188
	h5.7V7.28h9.807V6h2.334l0.28,0.335v0.852l0.327-0.047l0.323,0.424v0.76h0.938V7.661h1.396V6.285h4.855L46.078,6.1l0.42,0.188h11.16
	l0.326,0.049l0.328-0.14H72.65l0.229,0.279c0.135,0.318,0.229,0.652,0.281,0.994C73.188,7.944,73.221,8.528,73.25,9.223z
	 M25.111,15.475l-5.321,0.048c-0.53,0.535-0.9,0.931-1.12,1.184c-0.342,0.442-0.53,0.693-0.561,0.758
	c-0.221,0.357-0.349,0.764-0.371,1.184c-0.024,0.318,0.006,0.642,0.091,0.947c0.05,0.162,0.112,0.32,0.186,0.473l-0.327,0.238
	c-0.168-0.246-0.294-0.52-0.373-0.807c-0.221-0.439-0.333-0.928-0.328-1.419c0.065-0.638,0.308-1.245,0.7-1.752
	c0.137-0.232,0.311-0.44,0.514-0.617c-0.255,0.041-0.505,0.104-0.748,0.189c-0.449,0.127-0.864,0.354-1.213,0.664
	c-0.324,0.344-0.55,0.77-0.653,1.231c-0.127,0.439-0.094,0.909,0.094,1.325c0.183,0.375,0.455,0.701,0.792,0.947
	c0.361,0.262,0.776,0.438,1.214,0.521c0.281,0.03,0.733,0.05,1.354,0.05c0.344-0.057,0.697-0.021,1.026,0.092
	c0.759,0.099,1.525,0.129,2.29,0.103c0.688,0.019,1.375-0.032,2.054-0.146c0.423-0.652,0.739-1.373,0.934-2.129l0.7-1.992v-0.289
	c0.005-0.163-0.027-0.325-0.094-0.474c-0.145-0.137-0.322-0.234-0.514-0.284L25.111,15.475z"/>
<linearGradient id="shape5_1_" gradientUnits="userSpaceOnUse" x1="306.9814" y1="1000.7334" x2="306.9814" y2="1014.4834" gradientTransform="matrix(1 0 0 1 -247.6001 -984.0654)">
	<stop  offset="0" style="stop-color:#7439E3"/>
	<stop  offset="1" style="stop-color:#B4A7F8"/>
</linearGradient>
<path id="shape5" fill="url(#shape5_1_)" d="M69.212,31.251c-0.313,0-0.625-0.05-0.922-0.147c-0.298,0.104-0.608,0.147-0.922,0.147
	h-8.193c-0.185,0-0.442-0.009-0.771-0.075c-0.217,0.051-0.438,0.075-0.663,0.075h-2.664c-0.815,0-1.604-0.342-2.166-0.937
	c-0.078-0.086-0.149-0.174-0.22-0.271l-0.909,0.648c-0.503,0.356-1.101,0.554-1.726,0.554h-3.584c-0.718,0-1.402-0.269-1.938-0.722
	c-0.614,0.427-1.354,0.651-2.112,0.651c-0.75,0-1.479-0.222-2.104-0.642c-0.164-0.11-0.314-0.233-0.451-0.37
	c-1.021-1.021-1.363-2.423-0.92-3.753l0.044-0.128l0.079-0.203c-1.8-0.254-3.146-1.767-3.146-3.646V22.24
	c0-0.741,0.274-1.45,0.773-1.996l4.748-5.232c0.646-1.069,1.763-1.679,3.08-1.679h0.41c2.063,0,3.684,1.618,3.684,3.684
	c0,0-0.001,0.289-0.003,0.331c0.555-0.653,1.372-1.044,2.26-1.044h8.397c0.262,0,0.519,0.034,0.769,0.103
	c0.25-0.067,0.508-0.103,0.771-0.103h9.22c0.241,0,0.479,0.029,0.718,0.087c0.23-0.058,0.479-0.087,0.721-0.087h8.396
	c0.917,0,1.797,0.433,2.354,1.159c0.563,0.726,0.752,1.689,0.518,2.573l-0.407,1.532c-0.146,0.541-0.435,1.02-0.825,1.395
	c-0.018,0.188-0.049,0.372-0.098,0.555l-0.41,1.537c-0.072,0.282-0.189,0.551-0.346,0.799c0.168,0.533,0.188,1.109,0.039,1.656
	l-0.412,1.539c-0.35,1.297-1.521,2.202-2.866,2.202H69.212z M66.173,23.782l0.017-0.009h-0.795l-0.004,0.009H66.173z"/>
<path id="ACE" fill="#FFFFFF" d="M43.402,23.163h-3.789c-0.409,0-0.717-0.308-0.717-0.718c0-0.104,0-0.104,0-0.204l5.018-5.531
	c0.104-0.307,0.311-0.41,0.615-0.41h0.41c0.408,0,0.717,0.308,0.717,0.717c0,0.102,0,0.205,0,0.205l-2.458,3.584H47.6
	c0.615,0,0.313,1.127-0.103,1.639l-4.507,5.531c-0.309,0.308-0.717,0.308-1.023,0.104c-0.205-0.206-0.309-0.41-0.205-0.719
	L43.402,23.163L43.402,23.163L43.402,23.163z M50.88,19.271l0.409,0.41l-4.813,8.603h3.584l2.147-1.536h2.974l-0.104,1.536h2.663
	l1.535-9.013H50.88L50.88,19.271z M55.387,20.809l-0.104,3.482h-2.97l2.047-3.482H55.387L55.387,20.809z M59.178,28.284h8.19
	l0.612-2.15l-0.818,0.614H61.43l1.739-5.941h6.452l0.408-1.535h-9.217l-2.355,7.988c-0.102,0.104-0.102,0.309-0.102,0.409
	c0,0.103,0,0.205,0.103,0.31c0.103,0.105,0.205,0.203,0.308,0.203C58.971,28.284,59.074,28.284,59.178,28.284L59.178,28.284
	L59.178,28.284z M71.466,19.271l0.312,0.609l-2.563,8.396h8.193l0.408-1.534h-5.121l0.718-2.458h4.711l0.41-1.537h-4.507
	l0.611-1.941h4.814l0.408-1.535H71.466L71.466,19.271z"/>
<g>
	<g>
		<defs>
			<path id="SVGID_1_" d="M73.25,9.223c0.014,0.619-0.034,1.237-0.139,1.847c-0.041,0.347-0.135,0.684-0.282,1
				c-0.054,0.145-0.116,0.287-0.185,0.425H58.123l-0.188-0.141l-0.281,0.095h-11.16l-0.28,0.191l-0.42-0.144H41.08v-0.858h-1.587
				V10.93h-0.981v1.657l0.236,0.19v0.8l-0.236,0.19l-0.093,1.61H27.82c-0.073,0.004-0.141,0.039-0.187,0.095
				c-0.166,0.14-0.294,0.32-0.375,0.522c-0.123,0.345-0.745,1.892-1.864,4.641c-0.096,0.221-0.26,0.402-0.469,0.521
				c-0.237,0.097-0.49,0.145-0.746,0.144l-4.855,0.188c-0.226-0.108-0.46-0.204-0.7-0.279c-0.383-0.188-0.792-0.314-1.214-0.378
				c-0.23-0.052-0.465-0.085-0.7-0.103c-0.126,0.032-0.357,0.078-0.7,0.146c-0.271,0.093-0.559,0.125-0.843,0.093l-0.328-0.093
				L12.457,31.1l-0.093,1.135L12.877,33L2.84,32.904c0-0.6,0.031-1.372,0.094-2.318c0.174-1.818,0.47-3.622,0.887-5.4
				c0.413-1.672,0.976-3.306,1.68-4.879c0.03-0.092,0.249-0.554,0.654-1.373c0.136-0.271,0.246-0.558,0.326-0.852
				c0.11-0.319,0.019-0.674-0.233-0.9c-0.36-0.283-0.772-0.492-1.213-0.615c-0.625-0.222-1.028-0.362-1.214-0.426
				c-0.193-0.033-0.344-0.186-0.375-0.379c-0.026-0.364-0.01-0.73,0.048-1.09l0.093-0.709l-1.728-0.189
				c-0.117,0.001-0.231-0.034-0.327-0.1c-0.206-0.131-0.316-0.37-0.282-0.612c0.039-0.298,0.31-0.509,0.608-0.475
				c0.172-0.034,0.351-0.017,0.513,0.049L2.605,11.4l1.4,0.9l0.607-3.079l0.981-1.895V6.523l0.75,0.427L9.33,7l0.282,0.235H19.79
				v0.188h5.7V7.28h9.807V6h2.334l0.28,0.335v0.852l0.327-0.047l0.323,0.424v0.76h0.937V7.661h1.397V6.285h4.854L46.078,6.1
				l0.42,0.188h11.16l0.326,0.049l0.328-0.14H72.65l0.229,0.279c0.135,0.318,0.229,0.652,0.281,0.994
				C73.188,7.944,73.221,8.528,73.25,9.223z M25.111,15.475l-5.321,0.048c-0.53,0.535-0.9,0.931-1.12,1.184
				c-0.342,0.442-0.53,0.693-0.561,0.758c-0.221,0.357-0.349,0.764-0.371,1.184c-0.024,0.318,0.006,0.642,0.091,0.947
				c0.05,0.162,0.112,0.32,0.186,0.473l-0.327,0.238c-0.168-0.246-0.294-0.52-0.373-0.807c-0.221-0.439-0.333-0.928-0.328-1.419
				c0.065-0.638,0.308-1.245,0.7-1.752c0.137-0.232,0.311-0.44,0.514-0.617c-0.255,0.041-0.505,0.104-0.748,0.189
				c-0.449,0.127-0.864,0.354-1.213,0.664c-0.324,0.344-0.55,0.77-0.653,1.231c-0.127,0.439-0.094,0.909,0.094,1.325
				c0.183,0.375,0.455,0.701,0.792,0.947c0.361,0.262,0.776,0.438,1.214,0.521c0.281,0.03,0.733,0.05,1.354,0.05
				c0.344-0.057,0.697-0.021,1.026,0.092c0.759,0.099,1.525,0.129,2.29,0.103c0.688,0.019,1.375-0.032,2.054-0.146
				c0.423-0.652,0.739-1.373,0.934-2.129l0.7-1.992v-0.289c0.005-0.163-0.027-0.325-0.094-0.474
				c-0.145-0.137-0.322-0.234-0.514-0.284L25.111,15.475z"/>
		</defs>
		<clipPath id="SVGID_2_">
			<use xlink:href="#SVGID_1_"  overflow="visible"/>
		</clipPath>
		
			<linearGradient id="SVGID_3_" gradientUnits="userSpaceOnUse" x1="-1164.5693" y1="860.3535" x2="-1119.0376" y2="860.3535" gradientTransform="matrix(0.998 -0.0625 -0.0625 -0.998 1209.8615 802.3019)">
			<stop  offset="0" style="stop-color:#FFFF13"/>
			<stop  offset="1" style="stop-color:#7411C3"/>
		</linearGradient>
		<path clip-path="url(#SVGID_2_)" fill="url(#SVGID_3_)" d="M1.694,14.783l11.341-6.042L-1.789,18.2l0.544,0.888
			c0,0,28.675-18.854,37.51-21.468c0,0-24.502,15.325-29.156,20.093c0,0,13.448-9.158,17.85-11.281l-5.106,4.229l2.087-1.197
			l-4.633,3.985c0,0,8.712-6.801,18.08-9.804l3.509,3.688c0,0-7.875,0.139-18.658,13.96c0,0,4.009-6.147,5.891-8.397
			c0,0-7.489,5.16-15.068,12.243l5.673-6.326c0,0-5.923,4.566-9.842,9.929c0,0,5.677-9.595,20.549-19.41
			c0,0-8.153,2.359-24.858,15.205c0,0,14.581-8.875,15.318-9.348C18.572,14.721-0.594,28.357-2.6,31.967
			c-2.215,3.621-3.487-14.491-3.487-14.491L1.694,14.783z"/>
	</g>
</g>
</svg>
