<?xml version="1.0" encoding="utf-8"?>
<!-- Generator: Adobe Illustrator 16.0.0, SVG Export Plug-In . SVG Version: 6.00 Build 0)  -->
<!DOCTYPE svg PUBLIC "-//W3C//DTD SVG 1.1//EN" "http://www.w3.org/Graphics/SVG/1.1/DTD/svg11.dtd">
<svg version="1.1" id="case1" xmlns="http://www.w3.org/2000/svg" xmlns:xlink="http://www.w3.org/1999/xlink" x="0px" y="0px"
	 width="74.25px" height="36px" viewBox="0 0 74.25 36" enable-background="new 0 0 74.25 36" xml:space="preserve">
<linearGradient id="mp5sd_1_" gradientUnits="userSpaceOnUse" x1="376.8027" y1="1100.8027" x2="447.7988" y2="1100.8027" gradientTransform="matrix(1 0 0 1 -374.9805 -1084.5049)">
	<stop  offset="0" style="stop-color:#5400D7"/>
	<stop  offset="1" style="stop-color:#9178E2"/>
</linearGradient>
<path id="mp5sd" fill="url(#mp5sd_1_)" d="M72.818,8.995c-0.01,0.506-0.078,1.009-0.201,1.5c-0.043,0.25-0.105,0.494-0.195,0.731
	H50.965v0.615l-0.238,0.308H31.208V11.3h-0.79c-0.149,0.173-0.166,0.424-0.04,0.615l0.554,1.654h0.276l0.08,0.271l-0.475,0.192
	l0.119,0.423c0.133,0.333,0.278,0.718,0.435,1.154c0.602,1.487,1.289,2.939,2.059,4.345c1.03,1.905,2.18,3.741,3.444,5.5
	c0.713,1.026,1.359,1.911,1.94,2.653l-2.93,2.188c-0.554-0.688-1.201-1.551-1.94-2.573c-1.29-1.841-2.466-3.753-3.524-5.729
	c-0.897-1.743-1.676-3.371-2.336-4.884l-0.752-1.769l-0.277,0.077h-1.068l-0.317,1.615h-0.238l0.238-1.538h-1.148l-0.277,0.269
	l-1.386,2.691c-0.085,0.211-0.289,0.349-0.515,0.347h-4.355c-0.333-0.015-0.659-0.107-0.95-0.271l-0.158,0.114
	c-0.21,0.25-0.335,0.563-0.356,0.886c-0.013,0.188-0.067,0.37-0.158,0.536c-0.065,0.149-0.145,0.291-0.238,0.428
	c-0.153,0.17-0.273,0.361-0.356,0.574c-0.075,0.212-0.128,0.435-0.158,0.654c0.013,0.183-0.015,0.365-0.079,0.537
	c-0.069,0.211-0.177,0.406-0.317,0.577c-0.139,0.22-0.258,0.45-0.356,0.69c-0.066,0.226-0.106,0.457-0.119,0.688
	c-0.016,0.188-0.056,0.364-0.119,0.538c-0.098,0.203-0.234,0.389-0.4,0.538c-0.132,0.104-0.238,0.181-0.317,0.229l-4.711-2.5
	c0.048-0.313,0.127-0.625,0.238-0.924c0.275-0.798,0.593-1.58,0.95-2.347c0.366-0.701,0.79-1.37,1.267-2l0.475-0.615l0.277-0.538
	c0.141-0.385,0.233-0.785,0.277-1.192c0.064-0.372-0.006-0.754-0.2-1.077c-0.165-0.262-0.397-0.475-0.673-0.615
	c-0.125-0.036-0.244-0.088-0.356-0.154c-0.08-0.008-0.152-0.05-0.2-0.115c-0.07-0.063-0.125-0.143-0.158-0.231H8.088
	c-0.313-0.038-0.567-0.27-0.634-0.577l-0.475-2.231l-0.2-0.038L6.7,10.637l0.518,1.66L6.98,12.72H5.752l-0.277-0.5l0.792-1.538
	l-0.04-0.346L5.91,10.49c-0.227,0.193-0.416,0.428-0.554,0.692C5.204,11.449,5.085,11.733,5,12.028
	c-0.045,0.097-0.072,0.201-0.079,0.308l-0.435,2.615c-0.1,0.929-0.299,1.844-0.594,2.73c-0.112,0.083-0.218,0.172-0.317,0.269
	c-0.066,0.056-0.151,0.084-0.238,0.078c-0.21,0.025-0.423,0.025-0.633,0c-0.235-0.014-0.459-0.11-0.633-0.27
	c-0.109-0.092-0.191-0.211-0.238-0.346c-0.022-0.13-0.008-0.263,0.04-0.385c0-0.025,0.092-0.602,0.277-1.73
	c0.185-1.051,0.303-1.846,0.356-2.384c0.026-0.333,0.04-1.346,0.04-3.038V7.8c-0.04-0.272-0.013-0.55,0.079-0.808
	C2.751,6.867,2.922,6.797,3.099,6.8C3.63,6.801,4.161,6.852,4.683,6.954C5.105,7.056,5.514,7.146,5.91,7.223h1.069l0.04-0.615
	C7.098,6.352,7.177,6.082,7.257,5.8c0.124-0.342,0.269-0.676,0.435-1c0.086-0.091,0.196-0.158,0.317-0.192h3.009l0.277,0.115h1.386
	l0.037-1.077c0.052-0.216,0.178-0.406,0.356-0.538c0.138-0.098,0.308-0.139,0.475-0.115h0.4l0.158,0.577l0.311-0.77l1.663,0.692
	l-0.356,0.615l0.356,0.577H31.05l0.317,0.038h18.014V4.339h-0.238V2.493L49.301,2.3h0.674l0.553,1.5v0.923h0.357l0.275,0.385v1.307
	h-0.236v0.423h21.578L72.66,7.53C72.76,8.012,72.813,8.502,72.818,8.995z M23.29,15.763l-0.272-0.269h-3.212L19.648,15.8
	c-0.102,0.196-0.182,0.402-0.238,0.615c-0.021,0.233,0.006,0.469,0.079,0.692c0.036,0.196,0.089,0.39,0.158,0.577l0.039,0.385
	l-0.317-0.154c-0.221-0.3-0.383-0.639-0.475-1c-0.052-0.308-0.093-0.641-0.119-1v-0.421h-0.79L17.629,16.3
	c-0.211,0.539-0.33,0.846-0.356,0.923c-0.026,0.23-0.026,0.462,0,0.692c0.232,0.215,0.52,0.362,0.831,0.423h4
	c0.165-0.031,0.301-0.148,0.356-0.307L23.29,15.763z"/>
<g>
	<g>
		<g>
			<defs>
				<path id="SVGID_1_" d="M72.818,8.995c-0.01,0.506-0.078,1.009-0.201,1.5c-0.043,0.25-0.105,0.494-0.195,0.731H50.965v0.615
					l-0.238,0.308H31.208V11.3h-0.79c-0.149,0.173-0.166,0.424-0.04,0.615l0.554,1.654h0.276l0.08,0.271l-0.475,0.192l0.119,0.423
					c0.133,0.333,0.278,0.718,0.435,1.154c0.602,1.487,1.289,2.939,2.059,4.345c1.03,1.905,2.18,3.741,3.443,5.5
					c0.714,1.026,1.359,1.911,1.94,2.653l-2.93,2.188c-0.554-0.688-1.201-1.551-1.94-2.573c-1.29-1.841-2.466-3.753-3.524-5.729
					c-0.897-1.743-1.676-3.371-2.336-4.884l-0.751-1.769l-0.277,0.077h-1.068l-0.317,1.615h-0.238l0.238-1.538h-1.148l-0.277,0.269
					l-1.386,2.691c-0.085,0.211-0.289,0.349-0.515,0.347h-4.355c-0.333-0.015-0.659-0.107-0.95-0.271l-0.158,0.114
					c-0.21,0.25-0.335,0.563-0.356,0.886c-0.013,0.188-0.067,0.37-0.158,0.536c-0.065,0.149-0.145,0.291-0.238,0.428
					c-0.153,0.17-0.273,0.361-0.356,0.574c-0.075,0.212-0.128,0.435-0.158,0.654c0.013,0.183-0.015,0.365-0.079,0.537
					c-0.069,0.211-0.177,0.406-0.317,0.577c-0.139,0.22-0.258,0.45-0.356,0.69c-0.066,0.226-0.106,0.457-0.119,0.688
					c-0.016,0.188-0.056,0.364-0.119,0.538c-0.098,0.203-0.234,0.389-0.4,0.538c-0.132,0.104-0.238,0.181-0.317,0.229l-4.711-2.5
					c0.048-0.313,0.127-0.625,0.238-0.924c0.275-0.798,0.593-1.58,0.95-2.347c0.366-0.701,0.79-1.37,1.267-2l0.475-0.615
					l0.277-0.538c0.141-0.385,0.233-0.785,0.277-1.192c0.064-0.372-0.006-0.754-0.2-1.077c-0.165-0.262-0.397-0.475-0.673-0.615
					c-0.125-0.036-0.244-0.088-0.356-0.154c-0.08-0.008-0.152-0.05-0.2-0.115c-0.07-0.063-0.125-0.143-0.158-0.231H8.088
					c-0.313-0.038-0.567-0.27-0.634-0.577l-0.475-2.231l-0.2-0.038L6.7,10.637l0.518,1.66L6.98,12.72H5.752l-0.277-0.5l0.792-1.538
					l-0.04-0.346L5.91,10.49c-0.227,0.193-0.416,0.428-0.554,0.692C5.204,11.449,5.085,11.733,5,12.028
					c-0.045,0.097-0.072,0.201-0.079,0.308l-0.435,2.615c-0.1,0.929-0.299,1.844-0.594,2.729c-0.112,0.084-0.218,0.172-0.317,0.27
					c-0.066,0.056-0.151,0.084-0.238,0.078c-0.21,0.025-0.423,0.025-0.633,0c-0.235-0.014-0.459-0.11-0.633-0.27
					c-0.109-0.093-0.191-0.212-0.238-0.347c-0.022-0.13-0.008-0.263,0.04-0.385c0-0.025,0.092-0.602,0.277-1.73
					c0.185-1.051,0.303-1.846,0.356-2.384c0.026-0.333,0.04-1.346,0.04-3.038V7.8c-0.04-0.272-0.013-0.55,0.079-0.808
					C2.751,6.867,2.922,6.797,3.099,6.8C3.63,6.801,4.161,6.852,4.683,6.954C5.105,7.056,5.514,7.146,5.91,7.223h1.069l0.04-0.615
					C7.098,6.352,7.177,6.082,7.257,5.8c0.124-0.342,0.269-0.676,0.435-1c0.086-0.091,0.196-0.158,0.317-0.192h3.009l0.277,0.115
					h1.386l0.037-1.077c0.052-0.216,0.178-0.406,0.356-0.538c0.138-0.098,0.308-0.139,0.475-0.115h0.4l0.158,0.577l0.311-0.77
					l1.663,0.692l-0.356,0.615l0.356,0.577H31.05l0.317,0.038h18.014V4.339h-0.238V2.493L49.301,2.3h0.674l0.553,1.5v0.923h0.357
					l0.275,0.385v1.307h-0.236v0.423h21.578L72.66,7.53C72.76,8.012,72.813,8.502,72.818,8.995z M23.29,15.763l-0.272-0.269h-3.212
					L19.648,15.8c-0.102,0.196-0.182,0.402-0.238,0.615c-0.021,0.233,0.006,0.469,0.079,0.692c0.036,0.196,0.089,0.39,0.158,0.577
					l0.039,0.385l-0.317-0.153c-0.221-0.3-0.383-0.639-0.475-1c-0.052-0.308-0.093-0.641-0.119-1v-0.421h-0.79L17.629,16.3
					c-0.211,0.539-0.33,0.846-0.356,0.923c-0.026,0.23-0.026,0.462,0,0.692c0.232,0.215,0.52,0.362,0.831,0.423h4
					c0.165-0.031,0.301-0.148,0.356-0.307L23.29,15.763z"/>
			</defs>
			<clipPath id="SVGID_2_">
				<use xlink:href="#SVGID_1_"  overflow="visible"/>
			</clipPath>
			
				<linearGradient id="SVGID_3_" gradientUnits="userSpaceOnUse" x1="-801.332" y1="276.7109" x2="-755.8018" y2="276.7109" gradientTransform="matrix(0.998 -0.0625 0.0625 0.998 782.3708 -315.5861)">
				<stop  offset="0" style="stop-color:#FFFF13"/>
				<stop  offset="1" style="stop-color:#7411C3"/>
			</linearGradient>
			<path clip-path="url(#SVGID_2_)" fill="url(#SVGID_3_)" d="M7.78,8.983l11.341-6.042L4.298,12.4l0.544,0.889
				c0,0,28.675-18.854,37.51-21.469c0,0-24.502,15.325-29.156,20.093c0,0,13.448-9.158,17.85-11.281L25.94,4.861l2.087-1.197
				l-4.633,3.985c0,0,8.712-6.801,18.08-9.804l3.509,3.688c0,0-7.874,0.139-18.657,13.961c0,0,4.009-6.148,5.891-8.398
				c0,0-7.489,5.16-15.068,12.244l5.673-6.326c0,0-5.923,4.565-9.842,9.927c0,0,5.677-9.593,20.549-19.409
				c0,0-8.153,2.359-24.858,15.204c0,0,14.581-8.875,15.318-9.347c0.67-0.467-18.496,13.169-20.502,16.78
				C1.272,29.79,0,11.677,0,11.677L7.78,8.983z"/>
		</g>
	</g>
</g>
</svg>
