<?xml version="1.0" encoding="utf-8"?>
<!-- Generator: Adobe Illustrator 16.0.0, SVG Export Plug-In . SVG Version: 6.00 Build 0)  -->
<!DOCTYPE svg PUBLIC "-//W3C//DTD SVG 1.1//EN" "http://www.w3.org/Graphics/SVG/1.1/DTD/svg11.dtd">
<svg version="1.1" id="case1" xmlns="http://www.w3.org/2000/svg" xmlns:xlink="http://www.w3.org/1999/xlink" x="0px" y="0px"
	 width="92px" height="36px" viewBox="0 0 92 36" enable-background="new 0 0 92 36" xml:space="preserve">
<linearGradient id="m4a1_silencer_off_2_" gradientUnits="userSpaceOnUse" x1="0.624" y1="16.1206" x2="91.6367" y2="16.1206">
	<stop  offset="0" style="stop-color:#5400D7"/>
	<stop  offset="1" style="stop-color:#9178E2"/>
</linearGradient>
<path id="m4a1_silencer_off" fill="url(#m4a1_silencer_off_2_)" d="M91.635,11.057l-4.15-0.049v-0.184l-2.785,0.046l-0.555,0.184
	l-4.842-0.045l0.959,0.184v0.823l-0.229,0.276l-1.051-0.046v0.368h-0.771v-1.377h0.186v-0.184l-2.974-0.092l-0.092,0.276
	l-0.093,0.684c-0.023,0.05-0.055,0.097-0.094,0.138c-0.061,0.06-0.143,0.093-0.229,0.091c-0.078-0.04-0.154-0.085-0.229-0.136
	l-0.185-0.092l0.045-0.643l-0.091-0.276h-0.592l-0.051,1.005c-0.024,0.088-0.097,0.157-0.185,0.184l-0.185,0.137h-0.312
	l-0.276,0.594L56,13.06l-0.318-0.184l-0.414-0.092l-0.867,0.32l-0.092-1.142l-0.826,0.047l0.045,0.729l-0.045,0.092
	c-0.025,0.085-0.072,0.164-0.137,0.227c-0.091,0.04-0.183,0.07-0.277,0.092l-0.137,0.045c-0.037-0.033-0.088-0.05-0.138-0.045
	c-0.121-0.001-0.229,0.071-0.274,0.184c-0.063,0.092-0.123,0.184-0.185,0.276l-0.093,0.184v3.881l0.275,0.092l0.047,0.32
	l-0.598,0.227v1.417c0.055,1.025,0.19,2.051,0.412,3.059c0.217,0.945,0.551,2.134,1.004,3.564c0.217,0.729,0.412,1.354,0.598,1.869
	l0.185,0.229l-6.892,1.921h-0.188v-0.188c-0.213-0.729-0.458-1.537-0.735-2.42c-0.517-1.826-0.867-3.181-1.05-4.063
	c-0.187-0.902-0.309-1.816-0.368-2.738l-0.092-1.188L44.34,19.87l-0.645-0.093h-4.283l-1.416,0.137H37.77
	c-0.179-0.01-0.355,0.039-0.503,0.141l-0.275,0.274l-1.004,1.918l0.502,0.588l-0.136,0.093c-0.221,0.077-0.436,0.17-0.644,0.275
	c-0.126,0.066-0.235,0.16-0.318,0.275L35.3,23.617l-1.964,3.834c-0.06,0.111-0.076,0.242-0.045,0.367
	c0.055,0.135,0.132,0.259,0.228,0.367c0.054,0.056,0.116,0.103,0.184,0.14l-0.184,0.407l-6.442-1.512L32.88,17.17
	c0.063-0.132,0.11-0.27,0.137-0.411c0.121-0.256,0.153-0.545,0.092-0.821c-0.071-0.285-0.179-0.561-0.32-0.819
	c-0.143-0.205-0.311-0.391-0.502-0.552c-0.171-0.116-0.356-0.208-0.552-0.276l-1.461-0.046v0.184l-0.412,0.045l-0.045-2.512
	l-1.143-0.045l-0.045-0.412h-4.611l-1.097,0.823l-4.342,0.092v0.412l-3.792,0.046l0.046,2.375h-2.647v0.963h-1.278v-0.911
	l-4.296,2.696v-2.194l-5.434,2.467L1.13,19.188l-0.046,0.135c-0.033,0.104-0.123,0.177-0.229,0.187
	c-0.099-0.006-0.178-0.085-0.184-0.187l-0.047-0.141L0.716,7.036h4.842C5.647,7.061,5.716,7.13,5.742,7.219
	c0.08,0.206,0.127,0.423,0.139,0.644l12.473,0.132c0.05,0.023,0.095,0.054,0.136,0.091c0.06,0.061,0.093,0.143,0.092,0.228
	l10.097,0.045l-0.046-0.412h1.188V7.628l0.407-0.045l0.046,0.318l1.186-0.045V7.309h1.188l0.09,0.091l3.06-4.888l0.136-0.184
	c0.089-0.13,0.218-0.228,0.368-0.276c0.136-0.098,0.293-0.161,0.459-0.184h0.276l15.215,1.649l0.46,0.092
	c0.295,0.08,0.563,0.239,0.776,0.46c0.172,0.246,0.326,0.506,0.46,0.776c0.062,0.152,0.122,0.289,0.184,0.412l-0.098,2.964
	l0.319-0.046L54.4,6.852l0.959,0.184V6.715l0.32-0.046V6.577c0.021-0.051,0.055-0.098,0.092-0.139
	C55.846,6.402,55.92,6.372,56,6.346l16.904,0.276L73.09,6.99v0.454l0.46,0.048l0.093,0.045c0.072,0.034,0.125,0.104,0.137,0.184
	c0.055,0.363,0.086,0.729,0.093,1.096h0.595l0.047-1.779l2.782-3.931l0.274-0.228c0.146-0.142,0.351-0.209,0.553-0.184
	c0.391,0.025,0.753,0.206,1.006,0.502c0.088,0.083,0.139,0.199,0.139,0.32c0.004,0.05-0.016,0.099-0.047,0.137l0.047,5.161H84.1
	l0.646,0.232l2.739-0.045V8.817l4.152-0.046 M78.253,6.12c-0.092-0.06-0.171-0.138-0.229-0.23c-0.026-0.092-0.092-0.289-0.184-0.593
	l-0.047-0.459l-1.052-0.092l-1.644,2.561L75.33,7.49h3.104l0.229-0.276V6.12H78.253z M75.373,8.815h2.924l0.139-0.46h-3.061v0.46
	H75.373z M52.348,4.248H39.235c-0.18,0.045-0.351,0.123-0.503,0.228c-0.154,0.121-0.293,0.259-0.417,0.412l-0.184,0.228
	l-0.726,1.782l0.276,0.276l14.576-0.092l0.185-0.045C52.575,7,52.7,6.938,52.809,6.853c0.383-0.271,0.592-0.723,0.553-1.188
	c0.018-0.424-0.172-0.83-0.504-1.095c-0.112-0.087-0.235-0.164-0.364-0.228L52.348,4.248z M5.012,12.835L4.828,12.79H1.447
	l-0.184,0.046c-0.081,0.069-0.131,0.169-0.137,0.276c0.011,0.105,0.083,0.195,0.184,0.228c0.04,0.038,0.086,0.069,0.137,0.092h3.428
	c0.06-0.029,0.107-0.077,0.137-0.137c0.072-0.057,0.121-0.138,0.137-0.228C5.147,12.971,5.095,12.883,5.012,12.835L5.012,12.835z
	 M1.127,7.444v0.499h4.34c-0.002-0.108-0.018-0.215-0.046-0.32c0.003-0.086-0.054-0.162-0.137-0.184L5.1,7.394L1.127,7.444z
	 M43.117,16.168c-0.117-0.058-0.24-0.104-0.367-0.135h-1.734c-0.152,0.119-0.291,0.257-0.412,0.409
	c-0.219,0.329-0.36,0.705-0.412,1.098c-0.024,0.557,0.258,1.082,0.735,1.369l-0.184,0.139c-0.221-0.122-0.421-0.276-0.595-0.46
	c-0.36-0.296-0.591-0.722-0.644-1.185c-0.02-0.331,0.043-0.663,0.184-0.963l0.184-0.409c-0.276,0.031-0.542,0.124-0.778,0.271
	c-0.537,0.345-0.822,0.971-0.729,1.602c0.047,0.427,0.26,0.821,0.593,1.095c0.161,0.166,0.347,0.308,0.551,0.415h4.109v-0.551
	c0.17-0.148,0.296-0.34,0.367-0.553c0.15-0.466,0.118-0.972-0.092-1.415C43.724,16.573,43.45,16.318,43.117,16.168z"/>
<linearGradient id="shape5_1_" gradientUnits="userSpaceOnUse" x1="691.0859" y1="474.4277" x2="691.0859" y2="488.1777" gradientTransform="matrix(1 0 0 1 -622.54 -457.7598)">
	<stop  offset="0" style="stop-color:#7439E3"/>
	<stop  offset="1" style="stop-color:#B4A7F8"/>
</linearGradient>
<path id="shape5" fill="url(#shape5_1_)" d="M78.377,31.251c-0.313,0-0.625-0.05-0.922-0.147c-0.298,0.104-0.609,0.147-0.922,0.147
	H68.34c-0.186,0-0.443-0.009-0.77-0.075c-0.217,0.051-0.439,0.075-0.664,0.075h-2.664c-0.816,0-1.605-0.342-2.166-0.937
	c-0.078-0.086-0.15-0.174-0.219-0.271l-0.91,0.648c-0.504,0.356-1.1,0.554-1.725,0.554h-3.584c-0.719,0-1.402-0.269-1.938-0.722
	c-0.614,0.427-1.353,0.651-2.112,0.651c-0.75,0-1.479-0.222-2.104-0.642c-0.164-0.11-0.314-0.233-0.451-0.37
	c-1.021-1.021-1.363-2.423-0.92-3.753l0.044-0.128l0.079-0.203c-1.8-0.254-3.146-1.767-3.146-3.646V22.24
	c0-0.741,0.274-1.45,0.773-1.996l4.748-5.232c0.646-1.069,1.763-1.679,3.078-1.679h0.41c2.065,0,3.686,1.618,3.686,3.684
	c0,0-0.001,0.289-0.003,0.331c0.555-0.653,1.37-1.044,2.26-1.044h8.397c0.262,0,0.519,0.034,0.769,0.103
	c0.25-0.067,0.508-0.103,0.771-0.103h9.219c0.242,0,0.48,0.029,0.718,0.087c0.231-0.058,0.479-0.087,0.719-0.087h8.396
	c0.918,0,1.798,0.433,2.354,1.159c0.563,0.726,0.752,1.689,0.519,2.573l-0.406,1.532c-0.146,0.541-0.434,1.02-0.825,1.395
	c-0.019,0.188-0.049,0.372-0.098,0.555l-0.41,1.537c-0.072,0.282-0.188,0.551-0.347,0.799c0.168,0.533,0.188,1.109,0.041,1.656
	l-0.414,1.539c-0.351,1.297-1.521,2.202-2.865,2.202H78.377z M75.338,23.782l0.018-0.009h-0.797l-0.004,0.009H75.338z"/>
<path id="ACE" fill="#FFFFFF" d="M52.568,23.163h-3.789c-0.409,0-0.717-0.308-0.717-0.718c0-0.104,0-0.104,0-0.204l5.018-5.531
	c0.104-0.307,0.311-0.41,0.615-0.41h0.41c0.408,0,0.717,0.308,0.717,0.717c0,0.102,0,0.205,0,0.205l-2.458,3.584h4.401
	c0.613,0,0.311,1.127-0.104,1.639l-4.509,5.531c-0.309,0.308-0.717,0.308-1.021,0.104c-0.205-0.206-0.309-0.41-0.205-0.719
	L52.568,23.163L52.568,23.163L52.568,23.163z M60.046,19.271l0.409,0.41l-4.813,8.603h3.584l2.147-1.536h2.974l-0.104,1.536h2.663
	l1.535-9.013H60.046L60.046,19.271z M64.552,20.809l-0.104,3.482h-2.97l2.047-3.482H64.552L64.552,20.809z M68.343,28.284h8.191
	l0.612-2.15l-0.818,0.614h-5.732l1.739-5.941h6.452l0.408-1.535h-9.217l-2.355,7.988c-0.102,0.104-0.102,0.309-0.102,0.409
	c0,0.103,0,0.205,0.103,0.31c0.103,0.105,0.205,0.203,0.308,0.203C68.136,28.284,68.24,28.284,68.343,28.284L68.343,28.284
	L68.343,28.284z M80.632,19.271l0.312,0.609l-2.563,8.396h8.193l0.408-1.534h-5.121l0.718-2.458h4.711l0.41-1.537h-4.507
	l0.611-1.941h4.814l0.408-1.535H80.632L80.632,19.271z"/>
<g>
	<defs>
		<path id="m4a1_silencer_off_1_" d="M91.635,11.057l-4.15-0.049v-0.184l-2.785,0.046l-0.555,0.184l-4.842-0.045l0.959,0.184v0.823
			l-0.229,0.276l-1.051-0.046v0.368h-0.771v-1.377h0.186v-0.184l-2.974-0.092l-0.092,0.276l-0.093,0.684
			c-0.023,0.05-0.055,0.097-0.094,0.138c-0.061,0.06-0.143,0.093-0.229,0.091c-0.078-0.04-0.154-0.085-0.229-0.136l-0.185-0.092
			l0.045-0.643l-0.091-0.276h-0.592l-0.051,1.005c-0.024,0.088-0.097,0.157-0.185,0.184l-0.185,0.137h-0.312l-0.276,0.594L56,13.06
			l-0.318-0.184l-0.414-0.092l-0.867,0.32l-0.092-1.142l-0.826,0.047l0.045,0.729l-0.045,0.092
			c-0.025,0.085-0.072,0.164-0.137,0.227c-0.091,0.04-0.183,0.07-0.277,0.092l-0.137,0.045c-0.037-0.033-0.088-0.05-0.138-0.045
			c-0.121-0.001-0.229,0.071-0.274,0.184c-0.063,0.092-0.123,0.184-0.185,0.276l-0.093,0.184v3.881l0.275,0.092l0.047,0.32
			l-0.598,0.227v1.418c0.055,1.025,0.19,2.051,0.412,3.059c0.217,0.945,0.551,2.134,1.004,3.564
			c0.217,0.729,0.412,1.354,0.598,1.869l0.185,0.229l-6.892,1.921h-0.188v-0.188c-0.213-0.729-0.458-1.537-0.734-2.42
			c-0.518-1.826-0.868-3.181-1.051-4.063c-0.187-0.902-0.309-1.816-0.368-2.738l-0.092-1.188L44.34,19.87l-0.645-0.093h-4.283
			l-1.416,0.137H37.77c-0.179-0.01-0.355,0.039-0.503,0.141l-0.275,0.274l-1.004,1.918l0.502,0.588l-0.136,0.093
			c-0.221,0.077-0.436,0.17-0.644,0.275c-0.126,0.066-0.235,0.16-0.318,0.275L35.3,23.617l-1.964,3.834
			c-0.06,0.111-0.076,0.242-0.045,0.367c0.055,0.135,0.132,0.259,0.228,0.367c0.054,0.056,0.116,0.103,0.184,0.14l-0.184,0.407
			l-6.442-1.512L32.88,17.17c0.063-0.132,0.11-0.27,0.137-0.411c0.121-0.256,0.153-0.545,0.092-0.821
			c-0.071-0.285-0.179-0.561-0.32-0.819c-0.143-0.205-0.311-0.391-0.502-0.552c-0.171-0.116-0.356-0.208-0.552-0.276l-1.461-0.046
			v0.184l-0.412,0.045l-0.045-2.512l-1.143-0.045l-0.045-0.412h-4.611l-1.097,0.823l-4.342,0.092v0.412l-3.792,0.046l0.046,2.375
			h-2.647v0.963h-1.278v-0.911l-4.296,2.696v-2.194l-5.434,2.466L1.13,19.188l-0.046,0.135c-0.033,0.104-0.123,0.177-0.229,0.187
			c-0.099-0.006-0.178-0.085-0.184-0.187l-0.047-0.141L0.716,7.036h4.842C5.647,7.061,5.716,7.13,5.742,7.219
			c0.08,0.206,0.127,0.423,0.139,0.644l12.473,0.132c0.05,0.023,0.095,0.054,0.136,0.091c0.06,0.061,0.093,0.143,0.092,0.228
			l10.097,0.045l-0.046-0.412h1.188V7.628l0.407-0.045l0.046,0.318l1.186-0.045V7.309h1.188l0.09,0.091l3.06-4.888l0.136-0.184
			c0.089-0.13,0.218-0.228,0.368-0.276c0.136-0.098,0.293-0.161,0.459-0.184h0.276l15.215,1.649l0.46,0.092
			c0.295,0.08,0.563,0.239,0.776,0.46c0.172,0.246,0.326,0.506,0.46,0.776c0.062,0.152,0.122,0.289,0.184,0.412l-0.098,2.964
			l0.319-0.046L54.4,6.852l0.959,0.184V6.715l0.32-0.046V6.577c0.021-0.051,0.055-0.098,0.092-0.139
			C55.846,6.402,55.92,6.372,56,6.346l16.904,0.276L73.09,6.99v0.454l0.46,0.048l0.093,0.045c0.072,0.034,0.125,0.104,0.137,0.184
			c0.055,0.363,0.086,0.729,0.093,1.096h0.595l0.047-1.779l2.782-3.931l0.274-0.228c0.146-0.142,0.351-0.209,0.553-0.184
			c0.391,0.025,0.753,0.206,1.006,0.502c0.088,0.083,0.139,0.199,0.139,0.32c0.004,0.05-0.016,0.099-0.047,0.137l0.047,5.161H84.1
			l0.646,0.232l2.739-0.045V8.817l4.152-0.046 M78.253,6.12c-0.092-0.06-0.171-0.138-0.229-0.23
			c-0.026-0.092-0.092-0.289-0.184-0.593l-0.047-0.459l-1.052-0.092l-1.644,2.561L75.33,7.49h3.104l0.229-0.276V6.12H78.253z
			 M75.373,8.815h2.924l0.139-0.46h-3.061v0.46H75.373z M52.348,4.248H39.235c-0.18,0.045-0.351,0.123-0.503,0.228
			c-0.154,0.121-0.293,0.259-0.417,0.412l-0.184,0.228l-0.726,1.782l0.276,0.276l14.576-0.092l0.185-0.045
			C52.575,7,52.7,6.938,52.809,6.853c0.383-0.271,0.592-0.723,0.553-1.188c0.018-0.424-0.172-0.83-0.504-1.095
			c-0.112-0.087-0.235-0.164-0.364-0.228L52.348,4.248z M5.012,12.835L4.828,12.79H1.447l-0.184,0.046
			c-0.081,0.069-0.131,0.169-0.137,0.276c0.011,0.105,0.083,0.195,0.184,0.228c0.04,0.038,0.086,0.069,0.137,0.092h3.428
			c0.06-0.029,0.107-0.077,0.137-0.137c0.072-0.057,0.121-0.138,0.137-0.228C5.147,12.971,5.095,12.883,5.012,12.835L5.012,12.835z
			 M1.127,7.444v0.499h4.34c-0.002-0.108-0.018-0.215-0.046-0.32c0.003-0.086-0.054-0.162-0.137-0.184L5.1,7.394L1.127,7.444z
			 M43.117,16.168c-0.117-0.058-0.24-0.104-0.367-0.135h-1.734c-0.152,0.119-0.291,0.257-0.412,0.409
			c-0.219,0.329-0.36,0.705-0.412,1.098c-0.024,0.558,0.258,1.082,0.735,1.369l-0.184,0.139c-0.221-0.122-0.421-0.276-0.595-0.46
			c-0.36-0.296-0.591-0.722-0.644-1.185c-0.02-0.331,0.043-0.663,0.184-0.963l0.184-0.409c-0.276,0.031-0.542,0.124-0.778,0.271
			c-0.537,0.345-0.822,0.971-0.729,1.602c0.047,0.427,0.26,0.82,0.593,1.095c0.161,0.166,0.347,0.308,0.551,0.415h4.109v-0.551
			c0.17-0.148,0.296-0.34,0.367-0.553c0.15-0.467,0.118-0.973-0.092-1.416C43.724,16.573,43.45,16.318,43.117,16.168z"/>
	</defs>
	<clipPath id="m4a1_silencer_off_3_">
		<use xlink:href="#m4a1_silencer_off_1_"  overflow="visible"/>
	</clipPath>
	
		<linearGradient id="SVGID_1_" gradientUnits="userSpaceOnUse" x1="-1134.2056" y1="-844.0859" x2="-1088.6743" y2="-844.0859" gradientTransform="matrix(0.998 -0.0625 0.0625 0.998 1182.9778 783.8026)">
		<stop  offset="0" style="stop-color:#FFFF13"/>
		<stop  offset="1" style="stop-color:#7411C3"/>
	</linearGradient>
	<path clip-path="url(#m4a1_silencer_off_3_)" fill="url(#SVGID_1_)" d="M6.13,10.621l11.341-6.042L2.647,14.038l0.544,0.889
		c0,0,28.675-18.854,37.51-21.469c0,0-24.502,15.325-29.156,20.093c0,0,13.448-9.158,17.85-11.281l-5.106,4.229l2.087-1.197
		l-4.633,3.985c0,0,8.712-6.801,18.08-9.804l3.509,3.688c0,0-7.874,0.139-18.657,13.961c0,0,4.009-6.148,5.891-8.398
		c0,0-7.489,5.16-15.068,12.244l5.673-6.326c0,0-5.923,4.565-9.842,9.928c0,0,5.677-9.594,20.549-19.41
		c0,0-8.153,2.359-24.858,15.204c0,0,14.581-8.874,15.318-9.347c0.67-0.467-18.496,13.17-20.502,16.78
		c-2.215,3.621-3.487-14.492-3.487-14.492L6.13,10.621z"/>
</g>
</svg>
