<?xml version="1.0" encoding="utf-8"?>
<!-- Generator: Adobe Illustrator 16.0.0, SVG Export Plug-In . SVG Version: 6.00 Build 0)  -->
<!DOCTYPE svg PUBLIC "-//W3C//DTD SVG 1.1//EN" "http://www.w3.org/Graphics/SVG/1.1/DTD/svg11.dtd">
<svg version="1.1" id="tc" xmlns="http://www.w3.org/2000/svg" xmlns:xlink="http://www.w3.org/1999/xlink" x="0px" y="0px"
	 width="92px" height="36px" viewBox="0 0 92 36" enable-background="new 0 0 92 36" xml:space="preserve">
<linearGradient id="SVGID_1_" gradientUnits="userSpaceOnUse" x1="47.1816" y1="17.019" x2="91.582" y2="17.019" gradientTransform="matrix(1 0 0 -1 -0.02 35.0947)">
	<stop  offset="0" style="stop-color:#5400D7"/>
	<stop  offset="1" style="stop-color:#9178E2"/>
</linearGradient>
<path fill="url(#SVGID_1_)" d="M91.307,5.132c-0.078-0.213-0.129-0.432-0.149-0.657c-0.021-0.248-0.183-0.461-0.41-0.551
	l-0.157-0.15L90.387,3.67c-0.253-0.055-0.512-0.088-0.771-0.102c-0.396-0.084-0.808,0.006-1.128,0.251
	c-0.055,0.109-0.125,0.21-0.203,0.304c-0.028,0.058-0.088,0.097-0.151,0.1c-0.075,0.041-0.146,0.092-0.207,0.153
	c-0.071,0.039-0.112,0.119-0.102,0.201v0.05H68.003c-0.039-0.189-0.176-0.343-0.356-0.407h-0.101c-0.104,0-0.31-0.016-0.618-0.05
	h-4.402c-0.787,0.036-1.465,0.05-2.049,0.05h-2.451c-0.031-0.165-0.049-0.334-0.053-0.503c-0.002-0.109-0.037-0.215-0.103-0.304
	c-0.032-0.134-0.127-0.245-0.253-0.3c-0.471-0.102-0.949-0.153-1.43-0.153c-0.018,0.002-0.037,0.002-0.057,0.003H55.82v0.968h-0.15
	c-0.143,0-0.283,0.034-0.411,0.099c-0.129,0.067-0.268,0.117-0.409,0.15c-0.185,0.07-0.371,0.122-0.563,0.152
	c-0.124,0.092-0.266,0.162-0.416,0.201c-0.123,0.007-0.242,0.042-0.35,0.102c-0.192-0.016-0.385-0.051-0.567-0.102
	c-0.228-0.054-0.447-0.12-0.664-0.201c-0.233-0.113-0.517-0.076-0.712,0.095c-0.251,0.081-0.436,0.297-0.471,0.557v0.152
	c0.021,0.341,0.07,0.679,0.154,1.011c0.104,0.502,0.154,0.775,0.154,0.807c-0.031,0.381-0.117,0.754-0.256,1.11
	c-0.146,0.425-0.371,0.82-0.663,1.16L50.29,9.426c-0.241,0.315-0.536,0.589-0.868,0.807c-0.082,0.031-0.169,0.047-0.257,0.048
	c-0.129,0.018-0.242,0.093-0.308,0.204c-0.26-0.003-0.518,0.086-0.719,0.252c-0.178,0.19-0.271,0.446-0.257,0.707v0.106
	c-0.021,0.298,0.116,0.584,0.36,0.757c0.279,0.083,0.574,0.117,0.867,0.101c0.41,0.103,0.854,0.203,1.334,0.301
	c0.477,0.056,0.896,0.34,1.125,0.761c0.272,0.403,0.434,0.873,0.461,1.36c-0.006,0.237-0.043,0.472-0.104,0.701
	c-0.104,0.168-0.354,0.726-0.768,1.667c-0.449,0.942-0.903,1.967-1.387,3.075c-0.51,1.108-0.955,2.117-1.326,3.027
	c-0.375,0.941-0.598,1.463-0.668,1.563v0.052h-0.053c0,0.032-0.103,0.408-0.304,1.107c-0.168,0.68-0.255,1.371-0.258,2.066v0.506
	c-0.009,0.228,0.026,0.448,0.104,0.659c-0.002,0.088,0.017,0.175,0.055,0.251v0.199c-0.012,0.081,0.027,0.163,0.101,0.204v0.206
	c0.185,0.18,0.415,0.302,0.666,0.35c0.667,0.182,1.358,0.266,2.05,0.251c-0.002,0.104-0.021,0.206-0.056,0.306
	c-0.069,0.104-0.104,0.228-0.103,0.353c-0.086,0.58,0.147,1.159,0.617,1.512c0.108,0.063,0.23,0.097,0.355,0.103
	c0.063,0.035,0.133,0.052,0.204,0.053c0.083,0.029,0.169,0.046,0.255,0.05l0.05,0.101h7.172c0.104-0.008,0.205-0.026,0.308-0.049
	c0.188-0.041,0.363-0.131,0.514-0.254c0.372-0.586,0.552-1.272,0.512-1.969v-0.804c-0.102-0.738-0.188-1.314-0.256-1.718
	c-0.031-0.368-0.052-0.656-0.052-0.858v-0.197c0.028-0.026,0.049-0.063,0.052-0.101l2.055-6.981
	c0.092-0.227,0.252-0.421,0.459-0.554c0.299-0.191,0.627-0.328,0.976-0.402c0.522-0.104,1.063-0.104,1.587,0
	c1.074,0.229,2.172,0.365,3.271,0.402c0.617,0.046,1.237,0.012,1.846-0.102c0.718-0.166,1.328-0.336,1.844-0.502
	c0.436-0.146,0.88-0.266,1.331-0.354c0.274-0.042,0.538-0.146,0.771-0.302v-0.151c0.127-0.129,0.246-0.263,0.356-0.405
	c0.169-0.134,0.137-0.386-0.104-0.756V16.53c0.002-0.358,0.037-0.714,0.104-1.063c0.106-0.376,0.3-0.721,0.563-1.009
	c0.422-0.445,0.883-0.851,1.381-1.211c0.422-0.312,0.912-0.518,1.432-0.603c0.25-0.07,0.51-0.106,0.771-0.104h1.328
	c0.479,0,0.973,0.019,1.482,0.053c0.547,0.032,1.128,0.051,1.743,0.051h2.714c0.646,0,1.126-0.019,1.434-0.051
	c0.344-0.034,0.545-0.053,0.615-0.053c0.047-0.027,0.1-0.043,0.15-0.048c0.066-0.109,0.117-0.228,0.152-0.351h3.174V11.79
	c0-0.103,0.019-0.368,0.054-0.804c0-0.406,0.018-0.846,0.051-1.313c0.034-0.444,0.054-0.858,0.054-1.262
	c0.035-0.436,0.053-0.675,0.053-0.708c0-0.01,0-0.021,0.002-0.029c0.009-0.048,0.054-0.079,0.102-0.071
	c0.029-0.025,0.047-0.062,0.051-0.1c-0.004-0.187,0.016-0.372,0.051-0.555V6.293C91.564,5.893,91.477,5.496,91.307,5.132z
	 M72.52,16.282c-0.14,0.874-1.387,1.463-3.737,1.765c-0.888,0.141-1.791,0.107-2.664-0.099c-0.612-0.122-1.199-0.343-1.741-0.658
	l-0.15-0.049c-0.313-0.192-0.574-0.452-0.771-0.759h-0.104v-0.047c-0.178-0.287-0.252-0.625-0.205-0.96
	c0.017-0.291,0.067-0.578,0.153-0.854c0.11-0.347,0.349-0.638,0.666-0.81c0.374-0.203,0.688-0.349,0.921-0.454h0.152
	c0-0.033,0.033-0.049,0.102-0.049c0.032,0,0.241-0.019,0.616-0.052h0.002h5.222c0.552,0.219,1.02,0.608,1.334,1.11
	c0.227,0.364,0.353,0.781,0.357,1.209C72.678,15.819,72.625,16.062,72.52,16.282z"/>
<linearGradient id="SVGID_2_" gradientUnits="userSpaceOnUse" x1="0.4561" y1="17.1753" x2="44.9507" y2="17.1753" gradientTransform="matrix(1 0 0 -1 -0.02 35.0947)">
	<stop  offset="0" style="stop-color:#5400D7"/>
	<stop  offset="1" style="stop-color:#9178E2"/>
</linearGradient>
<path fill="url(#SVGID_2_)" d="M44.471,4.276c-0.047-0.25-0.257-0.439-0.512-0.457L43.854,3.62l-0.101-0.052
	c-0.277-0.11-0.571-0.178-0.869-0.2c-0.388-0.094-0.795,0.022-1.078,0.303C41.76,3.788,41.668,3.88,41.55,3.926
	c-0.081,0.008-0.143,0.071-0.153,0.15c-0.109,0.088-0.18,0.213-0.202,0.351v0.102H21.278c-0.079-0.166-0.183-0.319-0.308-0.454
	c-0.071,0-0.141-0.017-0.205-0.051h-0.564c-0.307,0-0.799-0.021-1.484-0.052c-0.685-0.032-1.638-0.048-2.868-0.048
	c-0.785,0.066-1.464,0.099-2.048,0.099c-0.545,0.035-1.056,0.051-1.535,0.051h-0.972c-0.001-0.311-0.054-0.617-0.155-0.91
	c-0.022-0.123-0.132-0.209-0.256-0.201c-0.436-0.096-0.881-0.146-1.327-0.149H9.089v1.004H9.04C8.887,3.814,8.736,3.833,8.587,3.872
	C8.425,3.9,8.268,3.952,8.121,4.024c-0.158,0.097-0.332,0.163-0.512,0.2L6.89,4.529c-0.206-0.018-0.411-0.05-0.611-0.102
	C6.042,4.346,5.801,4.279,5.557,4.224c-0.233-0.1-0.5-0.082-0.717,0.052C4.637,4.391,4.501,4.598,4.482,4.83v0.203
	C4.495,5.37,4.528,5.706,4.578,6.039C4.656,6.302,4.71,6.573,4.736,6.847C4.664,7.208,4.559,7.561,4.425,7.905
	C4.298,8.338,4.07,8.736,3.76,9.066l-0.154,0.25c-0.24,0.316-0.535,0.589-0.868,0.806c-0.081,0.037-0.168,0.054-0.256,0.051
	c-0.092,0.013-0.177,0.054-0.249,0.113c-0.263-0.003-0.517,0.085-0.721,0.251c-0.031,0.034-0.067,0.068-0.101,0.104
	c-0.155,0.198-0.228,0.449-0.204,0.7v0.048c0.013,0.265,0.122,0.517,0.306,0.707l0.051,0.051c0.259,0.111,0.537,0.163,0.818,0.151
	c0.442,0.067,0.922,0.15,1.432,0.25c0.459,0.065,0.859,0.348,1.075,0.76c0.255,0.408,0.397,0.877,0.41,1.36
	c-0.019,0.237-0.052,0.475-0.102,0.708c-0.309,0.495-0.565,1.02-0.77,1.565c-0.441,0.973-0.903,2.017-1.38,3.127
	c-0.512,1.115-0.973,2.141-1.383,3.078c-0.06,0.112-0.112,0.229-0.155,0.352c-0.134,0.393-0.324,0.766-0.563,1.107v0.097
	c-0.061,0.394-0.147,0.784-0.257,1.169c-0.167,0.658-0.252,1.335-0.253,2.015c0.001,0.104,0.019,0.206,0.052,0.306
	c0.038,0.078,0.056,0.166,0.052,0.252c-0.001,0.236,0.017,0.475,0.052,0.707v0.408c-0.011,0.082,0.029,0.161,0.102,0.2
	c-0.01,0.07,0.009,0.142,0.05,0.2c0.2,0.156,0.426,0.273,0.667,0.352c0.039,0.002,0.075,0.021,0.1,0.051
	c0.606,0.133,1.224,0.199,1.844,0.201v0.656c0.001,0.305,0.037,0.604,0.105,0.901c0.05,0.249,0.223,0.457,0.459,0.554
	c0.287,0.082,0.562,0.2,0.818,0.352h7.214c0.087-0.004,0.173-0.021,0.257-0.051c0.2-0.035,0.382-0.143,0.511-0.304
	c0.427-0.522,0.631-1.196,0.563-1.869c0.015-0.294-0.038-0.589-0.154-0.86c-0.088-0.563-0.139-1.141-0.152-1.713v-1.16l2.104-6.961
	c0.104-0.207,0.242-0.394,0.407-0.556c0.263-0.198,0.558-0.352,0.871-0.452c0.525-0.105,1.064-0.105,1.588,0
	c1.468,0.232,2.594,0.383,3.379,0.452c0.616,0.046,1.235,0.011,1.841-0.102l0.564-0.15c0.409-0.095,0.853-0.222,1.332-0.352
	s0.922-0.269,1.333-0.399c0.274-0.044,0.536-0.15,0.767-0.305v-0.098c0.135-0.101,0.257-0.218,0.36-0.351
	c0.1-0.265,0.08-0.559-0.054-0.806c-0.086-0.189-0.12-0.398-0.102-0.606c0.001-0.356,0.036-0.709,0.102-1.059
	c0.107-0.375,0.3-0.722,0.564-1.01c0.395-0.453,0.841-0.859,1.33-1.211c0.47-0.298,0.991-0.501,1.538-0.604
	c0.216-0.063,0.439-0.099,0.665-0.103h1.484c0.44,0,0.935,0.017,1.484,0.051c0.549,0.034,1.11,0.051,1.694,0.051h2.715
	c0.478,0.007,0.956-0.01,1.433-0.051c0.306-0.034,0.51-0.051,0.615-0.051l0.101-0.05c0.069-0.051,0.122-0.122,0.154-0.2
	c0.003-0.079,0.04-0.151,0.102-0.201h3.073v-0.351c0-0.103,0.019-0.354,0.052-0.76c0.072-0.434,0.106-0.872,0.101-1.311
	c0.038-0.437,0.071-0.874,0.104-1.311c0.034-0.405,0.052-0.624,0.052-0.657V7.353c0.033-0.204,0.067-0.385,0.102-0.554
	c0.071-0.194,0.105-0.398,0.099-0.604c-0.007-0.429-0.131-0.847-0.359-1.211C44.562,4.744,44.53,4.509,44.471,4.276z M25.834,16.135
	c-0.207,0.781-1.485,1.342-3.842,1.715c-0.348,0.055-0.699,0.082-1.048,0.082c-0.526,0-1.052-0.063-1.564-0.185
	c-0.589-0.116-1.158-0.319-1.687-0.604l-0.206-0.052c-0.153-0.185-0.326-0.354-0.513-0.504c-0.099-0.066-0.186-0.151-0.253-0.249
	l-0.104-0.102c-0.174-0.288-0.247-0.625-0.204-0.959c-0.014-0.293,0.038-0.587,0.152-0.857c0.129-0.333,0.363-0.617,0.665-0.809
	l0.922-0.404l0.255-0.101h0.615c0.41-0.035,0.89-0.049,1.436-0.049h1.788c0.685,0,1.352,0,1.999,0.002
	c0.55,0.247,1.013,0.65,1.332,1.16c0.222,0.347,0.346,0.749,0.357,1.159C25.947,15.635,25.913,15.891,25.834,16.135z"/>
<g>
	<defs>
		<path id="SVGID_3_" d="M44.471,4.276c-0.047-0.25-0.257-0.439-0.512-0.457L43.854,3.62l-0.101-0.052
			c-0.277-0.11-0.571-0.178-0.869-0.2c-0.388-0.094-0.795,0.022-1.078,0.303C41.76,3.788,41.668,3.88,41.55,3.926
			c-0.081,0.008-0.143,0.071-0.153,0.15c-0.109,0.088-0.18,0.213-0.202,0.351v0.102H21.278c-0.079-0.166-0.183-0.319-0.308-0.454
			c-0.071,0-0.141-0.017-0.205-0.051h-0.564c-0.307,0-0.799-0.021-1.484-0.052c-0.685-0.032-1.638-0.048-2.868-0.048
			c-0.785,0.066-1.464,0.099-2.048,0.099c-0.545,0.035-1.056,0.051-1.535,0.051h-0.972c-0.001-0.311-0.054-0.617-0.155-0.91
			c-0.022-0.123-0.132-0.209-0.256-0.201c-0.436-0.096-0.881-0.146-1.327-0.149H9.089v1.004H9.04
			C8.887,3.814,8.736,3.833,8.587,3.872C8.425,3.9,8.268,3.952,8.121,4.024c-0.158,0.097-0.332,0.163-0.512,0.2L6.89,4.529
			c-0.206-0.018-0.411-0.05-0.611-0.102C6.042,4.346,5.801,4.279,5.557,4.224c-0.233-0.1-0.5-0.082-0.717,0.052
			C4.637,4.391,4.501,4.598,4.482,4.83v0.203C4.495,5.37,4.528,5.706,4.578,6.039C4.656,6.302,4.71,6.573,4.736,6.847
			C4.664,7.208,4.559,7.561,4.425,7.905C4.298,8.338,4.07,8.736,3.76,9.066l-0.154,0.25c-0.24,0.316-0.535,0.589-0.868,0.806
			c-0.081,0.037-0.168,0.054-0.256,0.051c-0.092,0.013-0.177,0.054-0.249,0.113c-0.263-0.003-0.517,0.085-0.721,0.251
			c-0.031,0.034-0.067,0.068-0.101,0.104c-0.155,0.198-0.228,0.449-0.204,0.7v0.048c0.013,0.265,0.122,0.517,0.306,0.707
			l0.051,0.051c0.259,0.111,0.537,0.163,0.818,0.151c0.442,0.067,0.922,0.15,1.432,0.25c0.459,0.065,0.859,0.348,1.075,0.76
			c0.255,0.408,0.397,0.877,0.41,1.36c-0.019,0.237-0.052,0.475-0.102,0.708c-0.309,0.495-0.565,1.02-0.77,1.565
			c-0.441,0.973-0.903,2.017-1.38,3.127c-0.512,1.115-0.973,2.141-1.383,3.078c-0.06,0.112-0.112,0.229-0.155,0.352
			c-0.134,0.393-0.324,0.766-0.563,1.107v0.097c-0.061,0.394-0.147,0.784-0.257,1.169c-0.167,0.658-0.252,1.335-0.253,2.015
			c0.001,0.104,0.019,0.206,0.052,0.306c0.038,0.078,0.056,0.166,0.052,0.252c-0.001,0.236,0.017,0.475,0.052,0.707v0.408
			c-0.011,0.082,0.029,0.161,0.102,0.2c-0.01,0.07,0.009,0.142,0.05,0.2c0.2,0.156,0.426,0.273,0.667,0.352
			c0.039,0.002,0.075,0.021,0.1,0.051c0.606,0.133,1.224,0.199,1.844,0.201v0.656c0.001,0.305,0.037,0.604,0.105,0.901
			c0.05,0.249,0.223,0.457,0.459,0.554c0.287,0.082,0.562,0.2,0.818,0.352h7.214c0.087-0.004,0.173-0.021,0.257-0.051
			c0.2-0.035,0.382-0.143,0.511-0.304c0.427-0.522,0.631-1.196,0.563-1.869c0.015-0.294-0.038-0.589-0.154-0.86
			c-0.088-0.563-0.139-1.141-0.152-1.713v-1.16l2.104-6.961c0.104-0.207,0.242-0.394,0.407-0.556
			c0.263-0.198,0.558-0.352,0.871-0.452c0.525-0.105,1.064-0.105,1.588,0c1.468,0.232,2.594,0.383,3.379,0.452
			c0.616,0.046,1.235,0.011,1.841-0.102l0.564-0.15c0.409-0.095,0.853-0.222,1.332-0.352s0.922-0.269,1.333-0.399
			c0.274-0.044,0.536-0.15,0.767-0.305v-0.098c0.135-0.101,0.257-0.218,0.36-0.351c0.1-0.265,0.08-0.559-0.054-0.806
			c-0.086-0.189-0.12-0.398-0.102-0.606c0.001-0.356,0.036-0.709,0.102-1.059c0.107-0.375,0.3-0.722,0.564-1.01
			c0.395-0.453,0.841-0.859,1.33-1.211c0.47-0.298,0.991-0.501,1.538-0.604c0.216-0.063,0.439-0.099,0.665-0.103h1.484
			c0.44,0,0.935,0.017,1.484,0.051c0.549,0.034,1.11,0.051,1.694,0.051h2.715c0.478,0.007,0.956-0.01,1.433-0.051
			c0.306-0.034,0.51-0.051,0.615-0.051l0.101-0.05c0.069-0.051,0.122-0.122,0.154-0.2c0.003-0.079,0.04-0.151,0.102-0.201h3.073
			v-0.351c0-0.103,0.019-0.354,0.052-0.76c0.072-0.434,0.106-0.872,0.101-1.311c0.038-0.437,0.071-0.874,0.104-1.311
			c0.034-0.405,0.052-0.624,0.052-0.657V7.353c0.033-0.204,0.067-0.385,0.102-0.554c0.071-0.194,0.105-0.398,0.099-0.604
			c-0.007-0.429-0.131-0.847-0.359-1.211C44.562,4.744,44.53,4.509,44.471,4.276z M25.834,16.135
			c-0.207,0.781-1.485,1.342-3.842,1.715c-0.348,0.055-0.699,0.082-1.048,0.082c-0.526,0-1.052-0.063-1.564-0.185
			c-0.589-0.116-1.158-0.319-1.687-0.604l-0.206-0.052c-0.153-0.185-0.326-0.354-0.513-0.504c-0.099-0.066-0.186-0.151-0.253-0.249
			l-0.104-0.102c-0.174-0.288-0.247-0.625-0.204-0.959c-0.014-0.293,0.038-0.587,0.152-0.857c0.129-0.333,0.363-0.617,0.665-0.809
			l0.922-0.404l0.255-0.101h0.615c0.41-0.035,0.89-0.049,1.436-0.049h1.788c0.685,0,1.352,0,1.999,0.002
			c0.55,0.247,1.013,0.65,1.332,1.16c0.222,0.347,0.346,0.749,0.357,1.159C25.947,15.635,25.913,15.891,25.834,16.135z"/>
	</defs>
	<clipPath id="SVGID_4_">
		<use xlink:href="#SVGID_3_"  overflow="visible"/>
	</clipPath>
	
		<linearGradient id="SVGID_5_" gradientUnits="userSpaceOnUse" x1="-1514.9795" y1="-323.3823" x2="-1469.4487" y2="-323.3823" gradientTransform="matrix(0.998 -0.0625 0.0625 0.998 1532.2892 242.5507)">
		<stop  offset="0" style="stop-color:#FFFF13"/>
		<stop  offset="1" style="stop-color:#7411C3"/>
	</linearGradient>
	<path clip-path="url(#SVGID_4_)" fill="url(#SVGID_5_)" d="M7.973,12.83l11.341-6.042L4.49,16.247l0.544,0.889
		c0,0,28.675-18.854,37.51-21.469c0,0-24.502,15.325-29.156,20.093c0,0,13.448-9.158,17.85-11.281l-5.106,4.229l2.087-1.197
		l-4.633,3.985c0,0,8.712-6.801,18.08-9.804l3.509,3.688c0,0-7.874,0.139-18.657,13.961c0,0,4.009-6.148,5.891-8.398
		c0,0-7.489,5.16-15.068,12.244l5.673-6.326c0,0-5.923,4.565-9.842,9.928c0,0,5.677-9.594,20.549-19.41
		c0,0-8.153,2.359-24.858,15.204c0,0,14.581-8.874,15.318-9.347c0.67-0.467-18.496,13.17-20.502,16.78
		c-2.215,3.621-3.487-14.492-3.487-14.492L7.973,12.83z"/>
	<path clip-path="url(#SVGID_4_)" fill="none" d="M91.307,5.132c-0.078-0.213-0.129-0.432-0.149-0.657
		c-0.021-0.248-0.183-0.461-0.41-0.551l-0.157-0.15L90.387,3.67c-0.253-0.055-0.512-0.088-0.771-0.102
		c-0.396-0.084-0.808,0.006-1.128,0.251c-0.055,0.109-0.125,0.21-0.203,0.304c-0.028,0.058-0.088,0.097-0.151,0.1
		c-0.075,0.041-0.146,0.092-0.207,0.153c-0.071,0.039-0.112,0.119-0.102,0.201v0.05H68.003c-0.039-0.189-0.176-0.343-0.356-0.407
		h-0.101c-0.104,0-0.31-0.016-0.618-0.05h-4.402c-0.787,0.036-1.465,0.05-2.049,0.05h-2.451c-0.031-0.165-0.049-0.334-0.053-0.503
		c-0.002-0.109-0.037-0.215-0.103-0.304c-0.032-0.134-0.127-0.245-0.253-0.3c-0.471-0.102-0.949-0.153-1.43-0.153
		c-0.018,0.002-0.037,0.002-0.057,0.003H55.82v0.968h-0.15c-0.143,0-0.283,0.034-0.411,0.099c-0.129,0.067-0.268,0.117-0.409,0.15
		c-0.185,0.07-0.371,0.122-0.563,0.152c-0.124,0.092-0.266,0.162-0.416,0.201c-0.123,0.007-0.242,0.042-0.35,0.102
		c-0.192-0.016-0.385-0.051-0.567-0.102c-0.228-0.054-0.447-0.12-0.664-0.201c-0.233-0.113-0.517-0.076-0.712,0.095
		c-0.251,0.081-0.436,0.297-0.471,0.557v0.152c0.021,0.341,0.07,0.679,0.154,1.011c0.104,0.502,0.154,0.775,0.154,0.807
		c-0.031,0.381-0.117,0.754-0.256,1.11c-0.146,0.425-0.371,0.82-0.663,1.16L50.29,9.426c-0.241,0.315-0.536,0.589-0.868,0.807
		c-0.082,0.031-0.169,0.047-0.257,0.048c-0.129,0.018-0.242,0.093-0.308,0.204c-0.26-0.003-0.518,0.086-0.719,0.252
		c-0.178,0.19-0.271,0.446-0.257,0.707v0.106c-0.021,0.298,0.116,0.584,0.36,0.757c0.279,0.083,0.574,0.117,0.867,0.101
		c0.41,0.103,0.854,0.203,1.334,0.301c0.477,0.056,0.896,0.34,1.125,0.761c0.272,0.403,0.434,0.873,0.461,1.36
		c-0.006,0.237-0.043,0.472-0.104,0.701c-0.104,0.168-0.354,0.726-0.768,1.667c-0.449,0.942-0.903,1.967-1.387,3.075
		c-0.51,1.108-0.955,2.117-1.326,3.027c-0.375,0.941-0.598,1.463-0.668,1.563v0.052h-0.053c0,0.032-0.103,0.408-0.304,1.107
		c-0.168,0.68-0.255,1.371-0.258,2.066v0.506c-0.009,0.228,0.026,0.448,0.104,0.659c-0.002,0.088,0.017,0.175,0.055,0.251v0.199
		c-0.012,0.081,0.027,0.163,0.101,0.204v0.206c0.185,0.18,0.415,0.302,0.666,0.35c0.667,0.182,1.358,0.266,2.05,0.251
		c-0.002,0.104-0.021,0.206-0.056,0.306c-0.069,0.104-0.104,0.228-0.103,0.353c-0.086,0.58,0.147,1.159,0.617,1.512
		c0.108,0.063,0.23,0.097,0.355,0.103c0.063,0.035,0.133,0.052,0.204,0.053c0.083,0.029,0.169,0.046,0.255,0.05l0.05,0.101h7.172
		c0.104-0.008,0.205-0.026,0.308-0.049c0.188-0.041,0.363-0.131,0.514-0.254c0.372-0.586,0.552-1.272,0.512-1.969v-0.804
		c-0.102-0.738-0.188-1.314-0.256-1.718c-0.031-0.368-0.052-0.656-0.052-0.858v-0.197c0.028-0.026,0.049-0.063,0.052-0.101
		l2.055-6.981c0.092-0.227,0.252-0.421,0.459-0.554c0.299-0.191,0.627-0.328,0.976-0.402c0.522-0.104,1.063-0.104,1.587,0
		c1.074,0.229,2.172,0.365,3.271,0.402c0.617,0.046,1.237,0.012,1.846-0.102c0.718-0.166,1.328-0.336,1.844-0.502
		c0.436-0.146,0.88-0.266,1.331-0.354c0.274-0.042,0.538-0.146,0.771-0.302v-0.151c0.127-0.129,0.246-0.263,0.356-0.405
		c0.169-0.134,0.137-0.386-0.104-0.756V16.53c0.002-0.358,0.037-0.714,0.104-1.063c0.106-0.376,0.3-0.721,0.563-1.009
		c0.422-0.445,0.883-0.851,1.381-1.211c0.422-0.312,0.912-0.518,1.432-0.603c0.25-0.07,0.51-0.106,0.771-0.104h1.328
		c0.479,0,0.973,0.019,1.482,0.053c0.547,0.032,1.128,0.051,1.743,0.051h2.714c0.646,0,1.126-0.019,1.434-0.051
		c0.344-0.034,0.545-0.053,0.615-0.053c0.047-0.027,0.1-0.043,0.15-0.048c0.066-0.109,0.117-0.228,0.152-0.351h3.174V11.79
		c0-0.103,0.019-0.368,0.054-0.804c0-0.406,0.018-0.846,0.051-1.313c0.034-0.444,0.054-0.858,0.054-1.262
		c0.035-0.436,0.053-0.675,0.053-0.708c0-0.01,0-0.021,0.002-0.029c0.009-0.048,0.054-0.079,0.102-0.071
		c0.029-0.025,0.047-0.062,0.051-0.1c-0.004-0.187,0.016-0.372,0.051-0.555V6.293C91.564,5.893,91.477,5.496,91.307,5.132z
		 M72.52,16.282c-0.14,0.874-1.387,1.463-3.737,1.765c-0.888,0.141-1.791,0.107-2.664-0.099c-0.612-0.122-1.199-0.343-1.741-0.658
		l-0.15-0.049c-0.313-0.192-0.574-0.452-0.771-0.759h-0.104v-0.047c-0.178-0.287-0.252-0.625-0.205-0.96
		c0.017-0.291,0.067-0.578,0.153-0.854c0.11-0.347,0.349-0.638,0.666-0.81c0.374-0.203,0.688-0.349,0.921-0.454h0.152
		c0-0.033,0.033-0.049,0.102-0.049c0.032,0,0.241-0.019,0.616-0.052h0.002h5.222c0.552,0.219,1.02,0.608,1.334,1.11
		c0.227,0.364,0.353,0.781,0.357,1.209C72.678,15.819,72.625,16.062,72.52,16.282z"/>
</g>
</svg>
