<?xml version="1.0" encoding="utf-8"?>
<!-- Generator: Adobe Illustrator 16.0.0, SVG Export Plug-In . SVG Version: 6.00 Build 0)  -->
<!DOCTYPE svg PUBLIC "-//W3C//DTD SVG 1.1//EN" "http://www.w3.org/Graphics/SVG/1.1/DTD/svg11.dtd">
<svg version="1.1" id="case1" xmlns="http://www.w3.org/2000/svg" xmlns:xlink="http://www.w3.org/1999/xlink" x="0px" y="0px"
	 width="70.833px" height="36px" viewBox="0 0 70.833 36" enable-background="new 0 0 70.833 36" xml:space="preserve">
<linearGradient id="mag7_1_" gradientUnits="userSpaceOnUse" x1="376.3555" y1="1100.792" x2="443.3438" y2="1100.792" gradientTransform="matrix(1 0 0 1 -374.9805 -1084.5049)">
	<stop  offset="0" style="stop-color:#5400D7"/>
	<stop  offset="1" style="stop-color:#9178E2"/>
</linearGradient>
<path id="mag7" fill="url(#mag7_1_)" d="M2.97,3.958h0.116V3.919h15.2c0.337-0.024,0.661-0.039,0.973-0.039
	c0.025-0.027,0.051-0.052,0.076-0.079h0.195c0.055,0.001,0.108,0.015,0.156,0.04c0.026,0.024,0.051,0.053,0.078,0.078h36.05
	c0.055,0,0.104,0.015,0.149,0.04l0.079,0.079l0.077,0.08c0.021,0.02,0.038,0.048,0.04,0.079c0.021,0.02,0.037,0.048,0.039,0.079
	c0.021-0.002,0.035,0.013,0.039,0.033c0,0.002,0,0.004,0,0.006h0.388v0.943l0.045,0.038v0.156c-0.021,0.021-0.032,0.049-0.039,0.08
	v0.353h-0.157v0.08h0.112c0.058,0,0.104,0.014,0.155,0.04l0.039,0.04l0.074-0.08h0.623c0.031,0.001,0.063,0.016,0.078,0.04V5.966
	c0.057,0,0.107,0.014,0.154,0.04l0.078,0.079c0.002,0.03,0.016,0.059,0.039,0.079c0.002,0.031,0.016,0.059,0.038,0.08v0.704h9.993
	c0.055,0,0.105,0.015,0.154,0.041c0.021,0.026,0.053,0.051,0.079,0.079c0.041,0.004,0.078,0.018,0.112,0.038
	c0.023,0.026,0.054,0.053,0.079,0.08c0.001,0.031,0.019,0.06,0.039,0.079c0.003,0.03,0.02,0.058,0.04,0.077v1.691
	c-0.021,0.02-0.037,0.048-0.039,0.079c0.002,0.03,0.019,0.059,0.039,0.079v0.04l-0.078,0.08v0.116L68.21,9.502v0.082l-0.044,0.039
	c-0.021,0.023-0.048,0.038-0.076,0.04c-0.043,0.005-0.081,0.019-0.115,0.04h-4.816v0.431H63.12v0.041
	c-0.031,0.002-0.06,0.017-0.079,0.04v0.078c-0.023,0.026-0.053,0.051-0.079,0.079H62.93c-0.041,0.005-0.08,0.018-0.117,0.039
	c-0.047-0.024-0.102-0.038-0.151-0.039c-0.042,0.005-0.081,0.018-0.117,0.039H58.27c-0.021,0.023-0.052,0.038-0.08,0.04
	c-0.041,0.005-0.082,0.019-0.117,0.04h-0.076l-0.078,0.08l0.039,0.04c0.001,0.03,0.016,0.059,0.038,0.079v0.077
	c-0.021,0.023-0.05,0.037-0.078,0.039v0.079c-0.022,0.021-0.037,0.048-0.039,0.079h-0.076c-0.03,0.028-0.073,0.043-0.116,0.04
	h-0.351v0.118h-1.36v0.788c-0.115,0.027-0.23,0.041-0.351,0.04v0.04c-0.002,0.031-0.019,0.059-0.04,0.079
	c-0.003,0.03-0.018,0.058-0.038,0.079c0.003,0.019-0.01,0.036-0.026,0.039c-0.004,0-0.008,0-0.012,0
	c-0.003,0.031-0.017,0.059-0.04,0.079v0.076l-0.077,0.079v0.081c-0.024,0.027-0.052,0.053-0.078,0.079v0.079
	c-0.021,0.02-0.037,0.048-0.039,0.079l-0.039,0.04c-0.021,0.02-0.034,0.048-0.039,0.079c-0.021,0.02-0.036,0.048-0.039,0.079
	c-0.021,0.021-0.033,0.049-0.038,0.079l-0.075,0.079c-0.003,0.031-0.02,0.06-0.04,0.08v0.04c-0.002,0.03-0.019,0.058-0.038,0.078
	c-0.015,0.012-0.023,0.026-0.039,0.041c-0.014,0.015-0.023,0.028-0.037,0.04c-0.021,0.021-0.037,0.049-0.039,0.079
	c-0.021,0.02-0.037,0.048-0.039,0.079c0.004,0.019-0.012,0.036-0.026,0.038c-0.005,0-0.007,0-0.011,0l-0.078,0.08
	c-0.021,0.02-0.034,0.048-0.036,0.078l-0.084,0.074c-0.023,0.025-0.056,0.053-0.078,0.079l-0.078,0.079
	c-0.032,0-0.067,0.006-0.101,0.02c-0.016,0.016-0.021,0.037-0.021,0.058c-0.022,0.026-0.053,0.052-0.077,0.079h-0.027
	c-0.021,0.01-0.039,0.017-0.063,0.019l-0.021,0.021c-0.021,0.021-0.034,0.048-0.037,0.079c-0.002,0.031-0.018,0.06-0.04,0.079
	c0.004,0.019-0.011,0.037-0.027,0.04c-0.002,0-0.006,0-0.009,0l-0.077,0.079c-0.077,0.027-0.155,0.053-0.231,0.08
	c-0.065,0.021-0.133,0.047-0.192,0.078v0.04l-0.039,0.041H52.99c0.003,0.02-0.014,0.038-0.03,0.04c-0.002,0-0.006,0-0.008,0
	c-0.05,0.025-0.104,0.038-0.156,0.039H51.24c-0.047-0.025-0.104-0.039-0.153-0.039c-0.022-0.021-0.038-0.049-0.041-0.08h-0.39
	c-0.032-0.029-0.073-0.043-0.116-0.04l-0.039-0.04H50.41c-0.063-0.021-0.127-0.035-0.193-0.038l-0.078-0.081
	c-0.002-0.03-0.017-0.059-0.039-0.079h-0.039c-0.047-0.025-0.102-0.039-0.156-0.04l-0.072-0.078c-0.002-0.031-0.02-0.06-0.039-0.079
	c-0.035-0.032-0.074-0.06-0.116-0.08v-0.042c-1.426,0-2.839,0.013-4.235,0.039c-0.021-0.002-0.037,0.011-0.039,0.03
	c0,0.004,0,0.008,0.002,0.011h-0.041c-0.047,0.025-0.104,0.039-0.154,0.04H44.73l-0.041,0.04c-0.043-0.003-0.084,0.011-0.115,0.04
	c-0.055,0-0.108,0.014-0.156,0.04c-0.023,0.019-0.039,0.046-0.043,0.077l-0.156,0.079c-0.033,0.033-0.072,0.061-0.115,0.081
	c-0.021,0.022-0.049,0.036-0.08,0.038c-0.002,0.03-0.016,0.059-0.037,0.079c-0.002,0.03-0.016,0.059-0.034,0.08h-0.036
	c-0.063,0.022-0.129,0.036-0.193,0.039c-0.033,0.033-0.072,0.059-0.115,0.079l-0.078,0.079c-0.025,0.024-0.049,0.051-0.078,0.077
	v0.079c-0.021,0.021-0.035,0.049-0.037,0.079l-0.155,0.08c-0.034,0.033-0.075,0.059-0.118,0.078
	c-0.018,0.024-0.047,0.04-0.076,0.041c-0.002,0.031-0.018,0.059-0.041,0.079c-0.021,0.028-0.049,0.052-0.075,0.078v0.075
	l-0.075,0.079c-0.021,0.02-0.038,0.049-0.039,0.08l-0.079,0.077c-0.001,0.031-0.019,0.059-0.038,0.079v0.04
	c-0.023,0.052-0.057,0.105-0.08,0.158c-0.021,0.026-0.052,0.052-0.074,0.078v0.079c-0.021,0.021-0.035,0.05-0.037,0.081
	c-0.002,0.031-0.021,0.059-0.041,0.079c-0.002,0.03-0.019,0.058-0.037,0.078c0.002,0.019-0.014,0.037-0.029,0.04
	c-0.004,0-0.008,0-0.01,0c-0.023,0.021-0.037,0.049-0.039,0.079c-0.023,0.021-0.037,0.049-0.039,0.079
	c-0.002,0.03-0.018,0.059-0.039,0.079v0.075c-0.021,0.021-0.037,0.049-0.039,0.079c-0.042,0.02-0.081,0.046-0.115,0.078
	c-0.021,0.021-0.035,0.049-0.037,0.08c-0.033,0.028-0.074,0.042-0.117,0.04c-0.002,0.03-0.017,0.059-0.039,0.079
	c-0.021,0.026-0.051,0.053-0.077,0.079c0.003,0.019-0.011,0.036-0.026,0.039c-0.003,0-0.007,0-0.012,0l-0.039,0.041
	c-0.043-0.003-0.084,0.011-0.115,0.04c-0.056,0.001-0.104,0.015-0.152,0.04l-0.037,0.04c-0.049,0.025-0.104,0.039-0.154,0.04h-0.28
	l-0.038,0.04c-0.044-0.002-0.086,0.012-0.117,0.04h-0.352c-0.031-0.028-0.074-0.042-0.116-0.04l-0.038-0.04h-0.078
	c-0.063-0.023-0.129-0.037-0.193-0.04c0-0.031-0.018-0.06-0.039-0.079h-0.115c-0.053-0.025-0.104-0.053-0.152-0.08
	c-0.029-0.002-0.062-0.016-0.078-0.039l-0.061-0.058c-0.089-0.01-0.173-0.017-0.255-0.02c-0.022-0.025-0.054-0.053-0.077-0.079
	c-0.021,0.002-0.033-0.012-0.037-0.032c-0.001-0.002,0-0.005,0-0.008c-0.021-0.021-0.035-0.049-0.037-0.08
	c-0.004-0.03-0.02-0.058-0.039-0.077c-0.023-0.027-0.053-0.053-0.078-0.079v-0.08c-0.021-0.021-0.035-0.049-0.037-0.079
	c-0.002-0.031-0.019-0.059-0.039-0.079v-0.196c0-0.031-0.018-0.059-0.039-0.079l-0.076-0.081v-0.393
	c-0.023-0.02-0.037-0.048-0.039-0.078v-0.669c-0.002-0.03-0.018-0.058-0.039-0.077v-0.08c-0.021,0.002-0.036-0.011-0.039-0.03
	c0-0.002,0-0.005,0-0.008v-0.079c-1.97,0-3.954,0.014-5.949,0.04c0.002,0.019-0.011,0.037-0.03,0.04c-0.003,0-0.005,0-0.008,0
	c-0.049,0.024-0.102,0.037-0.156,0.038h-0.196v0.08c-0.002,0.03-0.016,0.058-0.039,0.078v0.08c-0.025,0.025-0.051,0.053-0.079,0.079
	c-0.011,0.014-0.024,0.027-0.038,0.038l-0.039,0.021v0.019L32.21,15.42c-0.023,0.02-0.038,0.048-0.04,0.078
	c-0.035,0.021-0.074,0.036-0.114,0.041c-0.001,0.031-0.016,0.059-0.039,0.079c-0.001,0.031-0.016,0.059-0.039,0.079v0.075
	L31.9,15.849c-0.034,0.034-0.074,0.061-0.117,0.08c-0.002,0.03-0.015,0.059-0.038,0.079c-0.027,0.025-0.053,0.052-0.08,0.079
	c-0.02,0.023-0.047,0.038-0.077,0.04c-0.023,0.02-0.037,0.048-0.038,0.078c-0.026,0.026-0.052,0.051-0.079,0.08l-0.078,0.077v0.079
	c-0.025,0.026-0.051,0.054-0.078,0.079l-0.079,0.08c-0.023,0.021-0.037,0.049-0.039,0.079c-0.036,0.021-0.075,0.035-0.116,0.04
	c-0.002,0.03-0.016,0.058-0.038,0.078c-0.025,0.026-0.052,0.053-0.079,0.079l-0.081,0.076l-0.077,0.079
	c-0.027,0.027-0.053,0.053-0.078,0.079c-0.035,0.032-0.075,0.059-0.117,0.079c-0.043,0.021-0.083,0.047-0.118,0.079
	c-0.019,0.023-0.047,0.037-0.077,0.039c-0.002,0.031-0.016,0.06-0.038,0.08c-0.024,0.02-0.039,0.048-0.04,0.079H30.3
	c-0.047,0.025-0.1,0.039-0.154,0.04c-0.023,0.02-0.037,0.048-0.039,0.079c-0.022,0.02-0.036,0.049-0.038,0.078l-0.04,0.039
	c-0.02,0.022-0.047,0.037-0.077,0.039c-0.068,0.055-0.165,0.055-0.233,0c-0.019-0.002-0.037,0.012-0.039,0.031
	c0,0.003,0,0.007,0,0.01c-0.023,0.02-0.037,0.049-0.039,0.078h-0.079c-0.032,0.029-0.075,0.044-0.118,0.041h-5.327
	c-0.048-0.025-0.102-0.039-0.156-0.041l-0.078-0.08c-0.001-0.031-0.016-0.062-0.039-0.08v-0.157l0.019-0.04h-0.136v0.078
	c-0.02-0.001-0.037,0.014-0.039,0.033c0,0.003,0,0.006,0,0.008v0.08c-0.02-0.003-0.037,0.011-0.04,0.029c0,0.004,0,0.008,0,0.01
	c-0.001,0.031-0.016,0.061-0.039,0.08v0.039c-0.023,0.021-0.037,0.049-0.039,0.078c-0.031,0.003-0.06,0.018-0.079,0.043v0.194
	c-0.03,0.002-0.058,0.017-0.077,0.04v0.238c-0.002,0.03-0.016,0.059-0.039,0.079v0.04c-0.023,0.021-0.037,0.05-0.038,0.08v0.037
	c-0.023,0.021-0.038,0.047-0.04,0.078c-0.02-0.002-0.036,0.012-0.038,0.028c0,0.006,0,0.009,0,0.011
	c-0.022,0.021-0.037,0.051-0.039,0.079c-0.019-0.004-0.037,0.013-0.039,0.029c0,0.004,0,0.006,0,0.012v0.197
	c-0.031,0.002-0.059,0.021-0.079,0.041c-0.022,0.021-0.036,0.049-0.037,0.078c-0.019-0.002-0.037,0.01-0.04,0.026
	c0,0.004,0,0.011,0,0.013v0.1c-0.023,0.021-0.037,0.052-0.038,0.08c-0.031,0.002-0.059,0.019-0.078,0.041
	c-0.002,0.029-0.016,0.062-0.038,0.078V19.7c-0.02-0.007-0.037,0.01-0.04,0.026c0,0.004,0,0.008,0,0.013v0.077
	c-0.02-0.004-0.037,0.013-0.039,0.029c0,0.004,0,0.006,0,0.01c-0.001,0.031-0.015,0.062-0.038,0.08v0.037
	c-0.023,0.021-0.037,0.049-0.039,0.08c-0.03,0.002-0.058,0.016-0.078,0.039v0.077c-0.019-0.002-0.037,0.013-0.039,0.031
	c0,0.004,0,0.006,0,0.01v0.08c-0.019-0.002-0.036,0.013-0.038,0.03c0,0.003,0,0.007,0,0.011c-0.024,0.021-0.039,0.048-0.04,0.078
	c-0.019-0.002-0.036,0.013-0.038,0.028c0,0.004,0,0.006,0,0.011v0.116c-0.022,0.021-0.037,0.05-0.039,0.078
	c-0.03,0.002-0.059,0.019-0.078,0.041c-0.001,0.028-0.016,0.06-0.039,0.08v0.026c-0.023,0.021-0.038,0.05-0.039,0.078
	c-0.02-0.002-0.037,0.013-0.04,0.028c0,0.002,0,0.008,0,0.013V21c-0.02-0.002-0.037,0.012-0.039,0.031c0,0.002,0,0.006,0,0.008
	c-0.002,0.031-0.016,0.059-0.038,0.08c-0.023,0.02-0.037,0.049-0.038,0.078c-0.019-0.002-0.037,0.012-0.039,0.031
	c0,0.002,0,0.006,0,0.01c-0.023,0.02-0.038,0.047-0.04,0.078c-0.019-0.002-0.036,0.012-0.038,0.031c0,0.002,0,0.006,0,0.01
	c-0.023,0.02-0.037,0.047-0.038,0.076c-0.061,0.01-0.109,0.059-0.118,0.118c-0.019-0.005-0.036,0.011-0.038,0.026
	c0,0.004,0,0.008,0,0.01v0.08c-0.019-0.002-0.037,0.016-0.039,0.027c0,0.006,0,0.008,0,0.012c-0.001,0.029-0.016,0.063-0.039,0.08
	l-0.043,0.04c-0.002,0.03-0.016,0.059-0.038,0.08v0.041c-0.023,0.02-0.037,0.047-0.039,0.077c-0.019-0.002-0.037,0.013-0.039,0.031
	c0,0.002,0,0.006,0,0.01V22.1l-0.039,0.08c-0.019-0.002-0.036,0.01-0.039,0.026c0,0.004,0,0.008,0,0.013v0.075h-0.031l-0.02,0.041
	v0.078c-0.016,0.002-0.03,0.008-0.039,0.021c-0.015,0.002-0.028,0.008-0.038,0.021v0.08l-0.039,0.041l-0.04,0.076
	c-0.046,0.072-0.115,0.129-0.195,0.156c-0.023,0.021-0.037,0.051-0.039,0.08c-0.03,0.002-0.059,0.02-0.078,0.039V23h0.136
	c0.044,0,0.089,0,0.136,0v0.08c-0.03,0.002-0.059,0.018-0.079,0.039v0.082l-0.039,0.041c-0.001,0.027-0.015,0.061-0.038,0.076v0.236
	c-0.031,0.002-0.059,0.02-0.079,0.04v0.079l-0.039,0.037c-0.001,0.031-0.015,0.061-0.038,0.08v0.436
	c-0.001,0.018-0.007,0.027-0.018,0.039c-0.023,0.008-0.044,0.021-0.059,0.041c-0.023,0.021-0.038,0.049-0.04,0.076
	c-0.019-0.002-0.036,0.014-0.039,0.029c0,0.004,0,0.008,0,0.012v0.232c-0.031,0.002-0.059,0.018-0.079,0.039v0.078l-0.037,0.039
	c-0.002,0.031-0.016,0.061-0.039,0.08v0.041c-0.023,0.02-0.038,0.047-0.039,0.076c-0.02-0.002-0.037,0.012-0.039,0.029
	c0,0.004,0,0.007,0,0.012v0.038c-0.036,0.021-0.076,0.032-0.117,0.038c-0.041,0.008-0.08,0.021-0.115,0.041h-0.123
	c-0.042,0.006-0.082,0.02-0.117,0.039H20.03c-0.034,0.012-0.068,0.021-0.1,0.041c-0.02-0.002-0.037,0.014-0.04,0.029
	c0,0.004,0,0.008,0,0.01c-0.023,0.021-0.038,0.049-0.039,0.08c-0.031,0.002-0.059,0.02-0.078,0.041
	c-0.002,0.027-0.016,0.059-0.039,0.076v0.117c-0.03,0-0.059,0.018-0.078,0.039l-0.079,0.077v0.038
	c-0.023,0.021-0.037,0.051-0.039,0.08c-0.019-0.002-0.037,0.014-0.039,0.029c0,0.004,0,0.008,0,0.01v0.313
	c-0.03,0.002-0.058,0.018-0.077,0.039v0.313l-0.039,0.038c-0.001,0.031-0.016,0.063-0.04,0.08v0.156
	c-0.022,0.021-0.037,0.049-0.039,0.078c0.043,0.021,0.083,0.047,0.118,0.077c0.03,0.003,0.058,0.021,0.077,0.041v0.155
	c-0.025,0.023-0.05,0.054-0.077,0.078c-0.032,0.027-0.075,0.045-0.118,0.041H19.15c-0.023,0.021-0.038,0.049-0.04,0.078
	c-0.03,0.004-0.057,0.019-0.077,0.041c-0.002,0.029-0.016,0.059-0.039,0.078l-0.039,0.039c-0.002,0.029-0.016,0.061-0.038,0.08
	l-0.039,0.039c-0.002,0.031-0.017,0.061-0.04,0.08v0.037c-0.022,0.021-0.035,0.051-0.038,0.08c-0.019-0.002-0.036,0.01-0.039,0.025
	c-0.001,0.005-0.001,0.009,0,0.014h-0.353v0.271l0.079,0.076l0.039,0.041v0.041c0.023,0.021,0.037,0.051,0.039,0.077v0.08
	c-0.022,0.021-0.037,0.047-0.039,0.078c-0.016-0.005-0.032,0.006-0.039,0.021v0.016c-0.022,0.021-0.035,0.049-0.037,0.076h-0.042
	c-0.048,0.023-0.101,0.039-0.154,0.039c-2.513,0-5.013,0.016-7.5,0.039h-0.08c-0.042,0.007-0.082,0.021-0.118,0.041
	c-0.104-0.025-0.208-0.055-0.312-0.08H10.09c-0.048-0.021-0.102-0.036-0.157-0.036c-0.024-0.027-0.051-0.054-0.077-0.077L9.777,28.5
	c-0.024-0.023-0.05-0.055-0.077-0.077c-0.027-0.026-0.051-0.057-0.079-0.08c-0.001-0.03-0.016-0.061-0.039-0.077l-0.077-0.08
	c-0.02-0.022-0.048-0.037-0.079-0.039c-0.026-0.024-0.052-0.054-0.078-0.08c-0.026-0.028-0.053-0.053-0.079-0.077
	c-0.022-0.021-0.036-0.05-0.038-0.08V27.57c0.025-0.024,0.05-0.051,0.079-0.077l0.077-0.078h0.195c0.054,0,0.108,0.015,0.156,0.039
	c0.025,0.024,0.05,0.053,0.078,0.08c0.002,0.028,0.016,0.059,0.039,0.079v-0.237c-0.025-0.024-0.052-0.054-0.079-0.078
	c-0.002-0.03-0.016-0.06-0.038-0.079c0.002-0.021-0.012-0.037-0.031-0.039c-0.002,0-0.005,0-0.007,0v-0.078
	c0.023-0.021,0.037-0.049,0.039-0.078l0.078-0.08h0.039v-0.196c-0.002-0.021,0.011-0.037,0.031-0.039c0.002,0,0.005,0,0.008,0
	c0.002-0.028,0.015-0.062,0.037-0.08c0.011-0.01,0.025-0.021,0.04-0.021c0.009-0.012,0.023-0.021,0.039-0.021l0.079-0.078
	c0.02-0.021,0.047-0.035,0.077-0.041v-0.072c0.061-0.01,0.108-0.057,0.117-0.115l0.038-0.041v-0.079
	c0.021-0.021,0.049-0.036,0.079-0.038v-0.08c-0.002-0.021,0.011-0.035,0.03-0.039c0.002,0,0.005,0,0.008,0
	c0.001-0.027,0.016-0.061,0.039-0.078v-0.234c0.02-0.021,0.048-0.037,0.078-0.039v-0.08c-0.003-0.021,0.011-0.036,0.03-0.04
	c0.003,0,0.006,0,0.008,0c0.003-0.028,0.016-0.058,0.038-0.078c0.021-0.021,0.049-0.036,0.08-0.038V25.21
	c0.019-0.022,0.047-0.039,0.077-0.041v-0.073c-0.003-0.019,0.01-0.035,0.028-0.039c0.003,0,0.007,0,0.011,0V24.98
	c-0.003-0.021,0.01-0.037,0.029-0.039c0.003-0.002,0.006-0.002,0.01,0c0.002-0.03,0.016-0.063,0.039-0.08V24.82
	c0.022-0.021,0.036-0.047,0.038-0.077v-0.039c0.023-0.021,0.038-0.05,0.039-0.08c0.02-0.022,0.048-0.037,0.078-0.039
	c0.001-0.028,0.016-0.06,0.039-0.078v-0.116c-0.003-0.021,0.009-0.035,0.028-0.039c0.004,0,0.007,0,0.011,0v-0.08
	c0.019-0.021,0.047-0.037,0.077-0.039c0.023-0.021,0.037-0.049,0.039-0.08l0.039-0.038c0.002-0.029,0.016-0.06,0.038-0.078V23.92
	c-0.002-0.02,0.011-0.039,0.031-0.041c0.004,0,0.008,0,0.012,0c0.002-0.029,0.017-0.057,0.04-0.076v-0.057
	c0.022-0.02,0.036-0.049,0.038-0.078l0.039-0.043c0.023-0.02,0.037-0.047,0.039-0.078c-0.003-0.018,0.01-0.037,0.029-0.039
	c0.003,0,0.006,0,0.008,0V23.43c-0.002-0.02,0.012-0.037,0.032-0.041c0.002,0,0.005,0,0.007,0c0.002-0.029,0.017-0.059,0.04-0.078
	v-0.037c0.023-0.021,0.037-0.049,0.039-0.08c0.02-0.021,0.048-0.033,0.078-0.033c0.002-0.031,0.016-0.063,0.038-0.078
	c-0.003-0.021,0.01-0.037,0.029-0.041c0.003,0,0.006,0,0.009,0v-0.08c-0.003-0.021,0.011-0.037,0.031-0.041c0.003,0,0.006,0,0.009,0
	v-0.109c0.022-0.021,0.036-0.053,0.038-0.08l0.04-0.037v-0.084c0.02-0.021,0.047-0.035,0.077-0.039
	c0.001-0.029,0.016-0.063,0.039-0.078v-0.041c0.022-0.021,0.036-0.049,0.038-0.078V22.33c0.023-0.02,0.038-0.049,0.04-0.078
	l0.038-0.039v-0.076c0.036-0.021,0.075-0.035,0.116-0.041c0.023-0.02,0.037-0.047,0.038-0.078c-0.002-0.018,0.011-0.035,0.03-0.039
	c0.003,0,0.006,0,0.009,0c0.001-0.027,0.015-0.059,0.038-0.08v-0.115c-0.003-0.02,0.009-0.033,0.027-0.038
	c0.003-0.003,0.006-0.003,0.01,0c0.002-0.03,0.016-0.063,0.039-0.079V21.62c0.002-0.031,0.016-0.062,0.039-0.08v-0.035
	c0.023-0.021,0.037-0.047,0.04-0.077v-0.046c0.023-0.021,0.037-0.049,0.038-0.077l0.038-0.039c0.023-0.021,0.037-0.047,0.039-0.078
	c-0.002-0.021,0.011-0.037,0.031-0.039c0.003-0.002,0.005-0.002,0.008-0.002c0.002-0.026,0.016-0.058,0.038-0.076l0.038-0.04v-0.076
	c0.031-0.002,0.059-0.019,0.079-0.039V20.75c0.001-0.031,0.015-0.061,0.038-0.08v-0.041l0.02-0.018l0.02-0.041V20.55l0.038-0.038
	c0.023-0.021,0.037-0.05,0.039-0.078l0.039-0.039c0-0.03,0.015-0.06,0.039-0.078v-0.041c0.023-0.021,0.037-0.049,0.039-0.08
	c0.02-0.021,0.047-0.034,0.078-0.036c0.002-0.031,0.016-0.062,0.038-0.08V20.04c0.024-0.021,0.038-0.049,0.039-0.08l0.038-0.037
	c0.023-0.021,0.038-0.049,0.04-0.077c-0.006-0.021,0.004-0.039,0.022-0.046c0.009-0.002,0.02-0.002,0.028,0.005v-0.078
	c-0.002-0.021,0.01-0.037,0.03-0.039c0.002-0.002,0.005-0.002,0.008-0.002v-0.082c-0.002-0.019,0.011-0.035,0.031-0.039
	c0.002,0,0.005,0,0.008,0V19.45h0.02c0.035-0.009,0.069-0.021,0.1-0.038V19.38c0.021-0.021,0.033-0.047,0.034-0.075l0.039-0.041
	c0.023-0.021,0.037-0.048,0.038-0.078l0.04-0.041c0.002-0.026,0.016-0.058,0.038-0.078v-1.177c0.02-0.023,0.048-0.037,0.079-0.04
	c0.001-0.03,0.015-0.058,0.037-0.078c-0.002-0.02,0.011-0.038,0.031-0.04c0.003-0.001,0.005-0.001,0.008-0.001v-0.08l0.038-0.041
	c0.023-0.02,0.038-0.049,0.04-0.08l0.039-0.04c0.002-0.03,0.016-0.058,0.038-0.078c-0.002-0.02,0.012-0.038,0.031-0.04
	c0.003,0,0.006,0,0.009,0v-0.118c0.001-0.03,0.015-0.059,0.038-0.079v-0.04c0.002-0.031,0.016-0.059,0.039-0.079v-0.04
	c0.023-0.02,0.037-0.048,0.039-0.078c-0.003-0.018,0.009-0.036,0.027-0.04c0.003,0,0.006,0,0.01,0
	c0.002-0.031,0.017-0.06,0.041-0.079c-0.003-0.02,0.011-0.038,0.031-0.041c0.002,0,0.005,0,0.007,0
	c0.002-0.03,0.016-0.058,0.038-0.078c0.02-0.023,0.047-0.038,0.078-0.04c0.001-0.031,0.016-0.059,0.039-0.079v-0.04
	c0.023-0.02,0.037-0.048,0.039-0.079c-0.003-0.02,0.01-0.037,0.029-0.04c0.003,0,0.006,0,0.009,0
	c0.002-0.03,0.017-0.059,0.039-0.079v-0.038c0.002-0.031,0.016-0.06,0.039-0.081v-0.035c0.001-0.03,0.015-0.058,0.038-0.078
	c-0.002-0.02,0.012-0.038,0.032-0.04c0.003,0,0.006,0,0.008,0c0.001-0.031,0.015-0.06,0.039-0.08c-0.003-0.019,0.01-0.037,0.03-0.04
	c0.002,0,0.005,0,0.008,0c0.002-0.031,0.016-0.059,0.039-0.079c-0.003-0.02,0.011-0.038,0.03-0.041c0.003,0,0.006,0,0.009,0
	c0.022-0.02,0.036-0.048,0.038-0.078l0.04-0.039c0.022-0.021,0.036-0.049,0.038-0.079l0.039-0.04
	c0.023-0.021,0.037-0.049,0.039-0.079c-0.019-0.024-0.047-0.039-0.078-0.041c-0.022-0.02-0.036-0.048-0.038-0.078h-0.18
	c-0.033-0.028-0.075-0.043-0.118-0.04c-0.019,0.002-0.037-0.011-0.039-0.03c0-0.003,0-0.006,0-0.008h-0.31
	c-0.048-0.026-0.102-0.04-0.157-0.041c-0.023-0.02-0.037-0.048-0.038-0.078H13.68c-0.032-0.029-0.074-0.043-0.117-0.04
	c-0.019,0.002-0.037-0.011-0.039-0.03c0-0.003,0-0.007,0-0.011H13.1c-0.048-0.025-0.102-0.039-0.156-0.04
	c-0.023-0.02-0.037-0.048-0.038-0.078h-0.39c-0.031-0.028-0.073-0.043-0.115-0.041c-0.019,0.003-0.037-0.01-0.04-0.029
	c0-0.004,0-0.007,0-0.011H12.05c-0.047-0.024-0.1-0.037-0.154-0.038c-0.022-0.02-0.037-0.047-0.04-0.076h-0.311
	c-0.031-0.029-0.073-0.044-0.116-0.041c-0.019,0.003-0.036-0.009-0.04-0.028c0-0.004,0-0.008,0-0.012h-0.505
	c-0.047-0.025-0.1-0.038-0.154-0.039c-0.023-0.02-0.038-0.049-0.039-0.08h-0.39c-0.032-0.028-0.074-0.042-0.117-0.04l-0.04-0.04
	H9.912c-0.048-0.024-0.101-0.038-0.155-0.038c-0.023-0.021-0.037-0.05-0.039-0.081H9.524c-0.033-0.028-0.075-0.042-0.118-0.039
	l-0.039-0.04H9.134c-0.048-0.025-0.101-0.039-0.155-0.04c-0.023-0.02-0.038-0.048-0.04-0.079H8.823
	c-0.032-0.028-0.074-0.042-0.117-0.04c-0.019,0.002-0.037-0.011-0.039-0.03c0-0.003,0-0.006,0-0.009H8.55
	c-0.047-0.026-0.101-0.04-0.155-0.04c-0.023-0.021-0.037-0.049-0.038-0.079H8.163c-0.032-0.029-0.074-0.043-0.117-0.04l-0.021-0.024
	H7.867c-0.048-0.025-0.101-0.039-0.154-0.04c-0.022-0.021-0.037-0.049-0.039-0.079H7.596c-0.032-0.029-0.075-0.044-0.118-0.04
	l-0.039-0.04H7.283c-0.047-0.025-0.1-0.039-0.153-0.04c-0.023-0.02-0.039-0.048-0.041-0.079H7.011
	c-0.032-0.029-0.074-0.043-0.116-0.041l-0.038-0.04H6.701c-0.049-0.024-0.102-0.037-0.156-0.038
	c-0.033-0.034-0.072-0.061-0.116-0.079l-0.078-0.079H6.313c-0.048-0.025-0.102-0.039-0.156-0.04
	c-0.034-0.034-0.074-0.061-0.117-0.08c-0.026-0.025-0.051-0.052-0.077-0.077H5.924c-0.047-0.021-0.098-0.03-0.15-0.028
	c-0.036-0.031-0.075-0.058-0.118-0.079c-0.026-0.025-0.052-0.051-0.078-0.078h-0.12c-0.048-0.026-0.102-0.04-0.156-0.041
	l-0.077-0.079c-0.024-0.02-0.039-0.048-0.04-0.079H5.146c-0.048-0.025-0.102-0.039-0.156-0.04c-0.023-0.02-0.036-0.048-0.038-0.079
	H4.874L4.72,12.572c-0.043,0.003-0.085-0.012-0.118-0.04c-0.026-0.025-0.052-0.053-0.078-0.079c-0.023-0.02-0.038-0.049-0.039-0.08
	c-0.042-0.019-0.082-0.045-0.115-0.078c-0.035-0.032-0.075-0.059-0.118-0.08l-0.078-0.073l-0.079-0.079L3.94,11.984
	c-0.042,0.003-0.085-0.012-0.117-0.04l-0.078-0.08c-0.023-0.021-0.037-0.048-0.039-0.078c-0.043-0.021-0.082-0.047-0.117-0.08
	c-0.026-0.026-0.051-0.051-0.078-0.079c-0.002-0.03-0.017-0.059-0.039-0.079c-0.025-0.026-0.051-0.052-0.079-0.078l-0.154-0.079
	c-0.031-0.002-0.06-0.018-0.078-0.042c-0.035-0.031-0.075-0.058-0.117-0.078c-0.035-0.031-0.075-0.057-0.118-0.077
	c-0.042-0.021-0.081-0.048-0.116-0.08c-0.012-0.013-0.025-0.025-0.039-0.039H2.5v-0.2c-0.028-0.026-0.052-0.052-0.079-0.08
	l-0.078-0.078c-0.034-0.033-0.073-0.06-0.117-0.079c-0.035-0.033-0.074-0.059-0.117-0.079l-0.077-0.08
	c-0.026-0.016-0.051-0.044-0.077-0.073l-0.04-0.039c-0.022-0.019-0.037-0.046-0.04-0.075v-0.04c-0.03-0.002-0.059-0.016-0.079-0.038
	c-0.02-0.023-0.047-0.038-0.078-0.04c-0.023-0.02-0.037-0.049-0.039-0.079v-0.079c-0.02-0.02-0.031-0.046-0.032-0.074
	C1.62,9.916,1.595,9.891,1.568,9.863V9.781C1.542,9.754,1.515,9.729,1.49,9.701C1.488,9.67,1.474,9.642,1.451,9.622
	c0.003-0.019-0.01-0.037-0.029-0.04c-0.003,0-0.007,0-0.01,0c-0.023-0.02-0.036-0.049-0.037-0.08V8.324
	c0.002-0.03,0.016-0.058,0.038-0.078c0.023-0.021,0.037-0.049,0.039-0.08c0.001-0.031,0.016-0.06,0.039-0.079V7.42
	C1.513,7.399,1.528,7.371,1.53,7.341c0.004-0.031,0.02-0.06,0.045-0.078V7.225c0.026-0.025,0.05-0.053,0.078-0.08
	c0.028-0.027,0.05-0.052,0.077-0.078c0.002-0.031,0.016-0.059,0.039-0.079V6.909l0.078-0.078C1.872,6.803,1.898,6.778,1.924,6.75
	c0.023-0.02,0.038-0.049,0.04-0.079c0.02-0.023,0.048-0.038,0.078-0.04c0.001-0.029,0.013-0.056,0.033-0.076
	c0.001-0.031,0.015-0.06,0.038-0.08c0.004-0.029,0.02-0.055,0.043-0.073V6.241c0.024-0.028,0.05-0.054,0.076-0.08
	C2.235,6.13,2.251,6.102,2.275,6.083V5.73c0.022-0.021,0.036-0.05,0.037-0.081c0.002-0.03,0.016-0.058,0.039-0.078V4.864l0.078-0.08
	c0-0.031,0.012-0.06,0.034-0.082V4.55c0.024-0.02,0.038-0.048,0.04-0.079c0.002-0.031,0.016-0.06,0.039-0.08V4.314
	c0.02-0.023,0.047-0.037,0.077-0.039c0.033-0.034,0.073-0.061,0.117-0.08c0.002-0.03,0.017-0.058,0.039-0.078
	c0.026-0.026,0.052-0.053,0.079-0.08C2.888,4.005,2.927,3.978,2.97,3.958z M30.15,14.225c-1.194,0.027-2.399,0.04-3.616,0.04v0.708
	c0.026,0.052,0.052,0.104,0.078,0.157c0.023,0.021,0.038,0.049,0.04,0.08v0.118c0.025,0.026,0.051,0.051,0.077,0.079
	c0.026,0.028,0.052,0.052,0.079,0.078l0.079,0.08h0.038l0.039,0.04v0.04c0.02-0.002,0.037,0.011,0.039,0.031
	c0,0.003,0,0.006,0,0.009l0.038,0.041v0.076c0.05,0.026,0.1,0.053,0.156,0.079h1.672l0.038-0.041
	c0.036-0.021,0.076-0.033,0.118-0.038c0.023-0.02,0.037-0.048,0.039-0.078h0.039c0.03-0.002,0.059-0.017,0.078-0.041
	c0.067,0.002,0.133-0.012,0.194-0.041l0.077-0.079l0.079-0.08c0.025-0.02,0.042-0.049,0.044-0.081
	c0.025-0.027,0.051-0.053,0.078-0.079v-0.036c0.023-0.02,0.038-0.048,0.039-0.078l0.078-0.08c0.025-0.026,0.05-0.053,0.077-0.079
	v-0.077c0.027-0.026,0.052-0.053,0.08-0.078c0.002-0.03,0.017-0.059,0.039-0.079v-0.114c0.022-0.021,0.036-0.049,0.038-0.079
	c0.026-0.026,0.051-0.053,0.079-0.079l0.078-0.079h0.077v-0.043c-0.001-0.03-0.015-0.059-0.038-0.079
	c-0.002-0.031-0.016-0.059-0.039-0.079v-0.04l0,0L30.15,14.225z M25.288,14.933v-0.077c-0.002,0.03-0.016,0.058-0.038,0.078
	c-0.025,0.027-0.051,0.054-0.079,0.08c-0.028,0.026-0.051,0.053-0.078,0.078v0.04h-0.039v0.041l-0.039,0.04v0.04h-0.04v0.038
	c-0.014,0.014-0.026,0.029-0.04,0.041v0.039h-0.037c-0.023,0.021-0.037,0.049-0.04,0.079c-0.013,0.012-0.025,0.025-0.038,0.039
	l-0.038,0.041c-0.002,0.03-0.016,0.059-0.039,0.079v0.04h-0.021c-0.001,0.015-0.008,0.03-0.02,0.04v0.041
	c-0.022,0.02-0.036,0.048-0.038,0.078v0.079h0.895v-0.162c-0.031-0.003-0.059-0.018-0.079-0.041l-0.078-0.082
	c-0.001-0.03-0.016-0.059-0.039-0.079V15.37c-0.025-0.025-0.051-0.051-0.079-0.079v-0.275C25.284,14.991,25.288,14.96,25.288,14.933
	z M2.504,10.077V9.919h-0.06l0.019,0.019v0.119L2.504,10.077z M7.228,11.097c0.044,0.014,0.09,0.021,0.136,0.021v-0.016H7.228
	V11.097z"/>
<g>
	<g>
		<g>
			<defs>
				<path id="SVGID_1_" d="M2.97,3.958h0.116V3.919h15.2c0.337-0.024,0.661-0.039,0.973-0.039c0.025-0.027,0.051-0.052,0.076-0.079
					h0.195c0.055,0.001,0.108,0.015,0.156,0.04c0.026,0.024,0.051,0.053,0.078,0.078h36.05c0.055,0,0.104,0.015,0.149,0.04
					l0.079,0.079l0.077,0.08c0.021,0.02,0.038,0.048,0.04,0.079c0.021,0.02,0.037,0.048,0.039,0.079
					c0.021-0.002,0.035,0.013,0.039,0.033c0,0.002,0,0.004,0,0.006h0.388v0.943l0.045,0.038v0.156
					c-0.021,0.021-0.032,0.049-0.039,0.08v0.353h-0.157v0.08h0.112c0.058,0,0.104,0.014,0.155,0.04l0.039,0.04l0.074-0.08h0.623
					c0.031,0.001,0.063,0.016,0.078,0.04V5.966c0.057,0,0.107,0.014,0.154,0.04l0.078,0.079c0.002,0.03,0.016,0.059,0.039,0.079
					c0.002,0.031,0.016,0.059,0.038,0.08v0.704h9.993c0.055,0,0.105,0.015,0.154,0.041c0.021,0.026,0.053,0.051,0.079,0.079
					c0.041,0.004,0.078,0.018,0.112,0.038c0.023,0.026,0.054,0.053,0.079,0.08c0.001,0.031,0.019,0.06,0.039,0.079
					c0.003,0.03,0.02,0.058,0.04,0.077v1.691c-0.021,0.02-0.037,0.048-0.039,0.079c0.002,0.03,0.019,0.059,0.039,0.079v0.04
					l-0.078,0.08v0.116L68.21,9.502v0.082l-0.044,0.039c-0.021,0.023-0.048,0.038-0.076,0.04c-0.043,0.005-0.081,0.019-0.115,0.04
					h-4.816v0.431H63.12v0.041c-0.031,0.002-0.06,0.017-0.079,0.04v0.078c-0.023,0.026-0.053,0.051-0.079,0.079H62.93
					c-0.041,0.005-0.08,0.018-0.117,0.039c-0.047-0.024-0.102-0.038-0.151-0.039c-0.042,0.005-0.081,0.018-0.117,0.039H58.27
					c-0.021,0.023-0.052,0.038-0.08,0.04c-0.041,0.005-0.082,0.019-0.117,0.04h-0.076l-0.078,0.08l0.039,0.04
					c0.001,0.03,0.016,0.059,0.038,0.079v0.077c-0.021,0.023-0.05,0.037-0.078,0.039v0.079c-0.022,0.021-0.037,0.048-0.039,0.079
					h-0.076c-0.03,0.028-0.073,0.043-0.116,0.04h-0.351v0.118h-1.36v0.788c-0.115,0.027-0.23,0.041-0.351,0.04v0.04
					c-0.002,0.031-0.019,0.059-0.04,0.079c-0.003,0.03-0.018,0.058-0.038,0.079c0.003,0.019-0.01,0.036-0.026,0.039
					c-0.004,0-0.008,0-0.012,0c-0.003,0.031-0.017,0.059-0.04,0.079v0.076l-0.077,0.079v0.081c-0.024,0.027-0.052,0.053-0.078,0.079
					v0.079c-0.021,0.02-0.037,0.048-0.039,0.079l-0.039,0.04c-0.021,0.02-0.034,0.048-0.039,0.079
					c-0.021,0.02-0.036,0.048-0.039,0.079c-0.021,0.021-0.033,0.049-0.038,0.079l-0.075,0.079c-0.003,0.031-0.02,0.06-0.04,0.08
					v0.04c-0.002,0.03-0.019,0.058-0.038,0.078c-0.015,0.012-0.023,0.026-0.039,0.041c-0.014,0.015-0.023,0.028-0.037,0.04
					c-0.021,0.021-0.037,0.049-0.039,0.079c-0.021,0.02-0.037,0.048-0.039,0.079c0.004,0.019-0.012,0.036-0.026,0.038
					c-0.005,0-0.007,0-0.011,0l-0.078,0.08c-0.021,0.02-0.034,0.048-0.036,0.078l-0.084,0.074c-0.023,0.025-0.056,0.053-0.078,0.079
					l-0.078,0.079c-0.032,0-0.067,0.006-0.101,0.02c-0.016,0.016-0.021,0.037-0.021,0.058c-0.022,0.026-0.053,0.052-0.077,0.079
					h-0.027c-0.021,0.01-0.039,0.017-0.063,0.019l-0.021,0.021c-0.021,0.021-0.034,0.048-0.037,0.079
					c-0.002,0.031-0.018,0.06-0.04,0.079c0.004,0.019-0.011,0.037-0.027,0.04c-0.002,0-0.006,0-0.009,0l-0.077,0.079
					c-0.077,0.027-0.155,0.053-0.231,0.08c-0.065,0.021-0.133,0.047-0.192,0.078v0.04l-0.039,0.041H52.99
					c0.003,0.02-0.014,0.038-0.03,0.04c-0.002,0-0.006,0-0.008,0c-0.05,0.025-0.104,0.038-0.156,0.039H51.24
					c-0.047-0.025-0.104-0.039-0.153-0.039c-0.022-0.021-0.038-0.049-0.041-0.08h-0.39c-0.032-0.029-0.073-0.043-0.116-0.04
					l-0.039-0.04H50.41c-0.063-0.021-0.127-0.035-0.193-0.038l-0.078-0.081c-0.002-0.03-0.017-0.059-0.039-0.079h-0.039
					c-0.047-0.025-0.102-0.039-0.156-0.04l-0.072-0.078c-0.002-0.031-0.02-0.06-0.039-0.079c-0.035-0.032-0.074-0.06-0.116-0.08
					v-0.042c-1.426,0-2.839,0.013-4.235,0.039c-0.021-0.002-0.037,0.011-0.039,0.03c0,0.004,0,0.008,0.002,0.011h-0.041
					c-0.047,0.025-0.104,0.039-0.154,0.04H44.73l-0.041,0.04c-0.043-0.003-0.084,0.011-0.115,0.04c-0.055,0-0.108,0.014-0.156,0.04
					c-0.023,0.019-0.039,0.046-0.043,0.077l-0.156,0.079c-0.033,0.033-0.072,0.061-0.115,0.081c-0.021,0.022-0.049,0.036-0.08,0.038
					c-0.002,0.03-0.016,0.059-0.037,0.079c-0.002,0.03-0.016,0.059-0.034,0.08h-0.036c-0.063,0.022-0.129,0.036-0.193,0.039
					c-0.033,0.033-0.072,0.059-0.115,0.079l-0.078,0.079c-0.025,0.024-0.049,0.051-0.078,0.077v0.079
					c-0.021,0.021-0.035,0.049-0.037,0.079l-0.155,0.08c-0.034,0.033-0.075,0.059-0.118,0.078c-0.018,0.024-0.047,0.04-0.076,0.041
					c-0.002,0.031-0.018,0.059-0.041,0.079c-0.021,0.028-0.049,0.052-0.075,0.078v0.075l-0.075,0.079
					c-0.021,0.02-0.038,0.049-0.039,0.08l-0.079,0.077c-0.001,0.031-0.019,0.059-0.038,0.079v0.04
					c-0.023,0.052-0.057,0.105-0.08,0.158c-0.021,0.026-0.052,0.052-0.074,0.078v0.079c-0.021,0.021-0.035,0.05-0.037,0.081
					c-0.002,0.031-0.021,0.059-0.041,0.079c-0.002,0.03-0.019,0.058-0.037,0.078c0.002,0.019-0.014,0.037-0.029,0.04
					c-0.004,0-0.008,0-0.01,0c-0.023,0.021-0.037,0.049-0.039,0.079c-0.023,0.021-0.037,0.049-0.039,0.079
					c-0.002,0.03-0.018,0.059-0.039,0.079v0.075c-0.021,0.021-0.037,0.049-0.039,0.079c-0.042,0.02-0.081,0.046-0.115,0.078
					c-0.021,0.021-0.035,0.049-0.037,0.08c-0.033,0.028-0.074,0.042-0.117,0.04c-0.002,0.03-0.017,0.059-0.039,0.079
					c-0.021,0.026-0.051,0.053-0.077,0.079c0.003,0.019-0.011,0.036-0.026,0.039c-0.003,0-0.007,0-0.012,0l-0.039,0.041
					c-0.043-0.003-0.084,0.011-0.115,0.04c-0.056,0.001-0.104,0.015-0.152,0.04l-0.037,0.04c-0.049,0.025-0.104,0.039-0.154,0.04
					h-0.28l-0.038,0.04c-0.044-0.002-0.086,0.012-0.117,0.04h-0.352c-0.031-0.028-0.074-0.042-0.116-0.04l-0.038-0.04h-0.078
					c-0.063-0.023-0.129-0.037-0.193-0.04c0-0.031-0.018-0.06-0.039-0.079h-0.115c-0.053-0.025-0.104-0.053-0.152-0.08
					c-0.029-0.002-0.062-0.016-0.078-0.039l-0.061-0.058c-0.089-0.01-0.173-0.017-0.255-0.02c-0.022-0.025-0.054-0.053-0.077-0.079
					c-0.021,0.002-0.033-0.012-0.037-0.032c-0.001-0.002,0-0.005,0-0.008c-0.021-0.021-0.035-0.049-0.037-0.08
					c-0.004-0.03-0.02-0.058-0.039-0.077c-0.023-0.027-0.053-0.053-0.078-0.079v-0.08c-0.021-0.021-0.035-0.049-0.037-0.079
					c-0.002-0.031-0.019-0.059-0.039-0.079v-0.196c0-0.031-0.018-0.059-0.039-0.079l-0.076-0.081v-0.393
					c-0.023-0.02-0.037-0.048-0.039-0.078v-0.669c-0.002-0.03-0.018-0.058-0.039-0.077v-0.08c-0.021,0.002-0.036-0.011-0.039-0.03
					c0-0.002,0-0.005,0-0.008v-0.079c-1.971,0-3.954,0.014-5.949,0.04c0.002,0.019-0.011,0.037-0.03,0.04c-0.003,0-0.005,0-0.008,0
					c-0.049,0.024-0.102,0.037-0.156,0.038h-0.196v0.08c-0.002,0.03-0.016,0.058-0.039,0.078v0.08
					c-0.025,0.025-0.051,0.053-0.079,0.079c-0.011,0.014-0.024,0.027-0.038,0.038l-0.039,0.021v0.019L32.21,15.42
					c-0.023,0.02-0.038,0.048-0.04,0.078c-0.035,0.021-0.074,0.036-0.114,0.041c-0.001,0.031-0.016,0.059-0.039,0.079
					c-0.001,0.031-0.016,0.059-0.039,0.079v0.075L31.9,15.849c-0.034,0.034-0.074,0.061-0.117,0.08
					c-0.002,0.03-0.015,0.059-0.038,0.079c-0.027,0.025-0.053,0.052-0.08,0.079c-0.02,0.023-0.047,0.038-0.077,0.04
					c-0.023,0.02-0.037,0.048-0.038,0.078c-0.026,0.026-0.052,0.051-0.079,0.08l-0.078,0.077v0.079
					c-0.025,0.026-0.051,0.054-0.078,0.079l-0.079,0.08c-0.023,0.021-0.037,0.049-0.039,0.079c-0.036,0.021-0.075,0.035-0.116,0.04
					c-0.002,0.03-0.016,0.058-0.038,0.078c-0.025,0.026-0.052,0.053-0.079,0.079l-0.081,0.076l-0.077,0.079
					c-0.027,0.027-0.053,0.053-0.078,0.079c-0.035,0.032-0.075,0.059-0.117,0.079c-0.043,0.021-0.083,0.047-0.118,0.079
					c-0.019,0.023-0.047,0.037-0.077,0.039c-0.002,0.031-0.016,0.06-0.038,0.08c-0.024,0.02-0.039,0.048-0.04,0.079H30.3
					c-0.047,0.025-0.1,0.039-0.154,0.04c-0.023,0.02-0.037,0.049-0.039,0.079c-0.022,0.021-0.036,0.049-0.038,0.078l-0.04,0.039
					c-0.02,0.022-0.047,0.036-0.077,0.039c-0.068,0.055-0.165,0.055-0.233,0c-0.019-0.003-0.037,0.012-0.039,0.03
					c0,0.004,0,0.008,0,0.011c-0.023,0.021-0.037,0.049-0.039,0.077h-0.079c-0.032,0.029-0.075,0.045-0.118,0.041h-5.327
					c-0.048-0.024-0.102-0.039-0.156-0.041l-0.078-0.08c-0.001-0.03-0.016-0.061-0.039-0.079v-0.157l0.019-0.04h-0.136v0.078
					c-0.02-0.001-0.037,0.015-0.039,0.032c0,0.004,0,0.007,0,0.009v0.08c-0.02-0.003-0.037,0.011-0.04,0.028
					c0,0.004,0,0.008,0,0.011c-0.001,0.03-0.016,0.062-0.039,0.079v0.039c-0.023,0.021-0.037,0.05-0.039,0.078
					c-0.031,0.004-0.06,0.019-0.079,0.043v0.194c-0.03,0.003-0.058,0.017-0.077,0.04v0.238c-0.002,0.029-0.016,0.06-0.039,0.079
					v0.039c-0.023,0.021-0.037,0.051-0.038,0.08v0.037c-0.023,0.021-0.038,0.047-0.04,0.078c-0.02-0.002-0.036,0.012-0.038,0.029
					c0,0.005,0,0.007,0,0.01c-0.022,0.021-0.037,0.051-0.039,0.079c-0.019-0.003-0.037,0.013-0.039,0.03c0,0.004,0,0.006,0,0.011
					v0.198c-0.031,0.002-0.059,0.02-0.079,0.041c-0.022,0.021-0.036,0.049-0.037,0.078c-0.019-0.002-0.037,0.01-0.04,0.027
					c0,0.004,0,0.008,0,0.012v0.1c-0.023,0.021-0.037,0.051-0.038,0.08c-0.031,0.002-0.059,0.018-0.078,0.041
					c-0.002,0.029-0.016,0.061-0.038,0.078v0.12c-0.02-0.005-0.037,0.01-0.04,0.028c0,0.004,0,0.008,0,0.01v0.08
					c-0.02-0.004-0.037,0.011-0.039,0.029c0,0.004,0,0.006,0,0.01c-0.001,0.031-0.015,0.06-0.038,0.08v0.037
					c-0.023,0.021-0.037,0.049-0.039,0.08c-0.03,0.002-0.058,0.016-0.078,0.038v0.076c-0.019-0.002-0.037,0.015-0.039,0.031
					c0,0.004,0,0.006,0,0.01v0.08c-0.019-0.002-0.036,0.015-0.038,0.03c0,0.003,0,0.007,0,0.011
					c-0.024,0.021-0.039,0.048-0.04,0.078c-0.019-0.002-0.036,0.013-0.038,0.026c0,0.004,0,0.006,0,0.013v0.114
					c-0.022,0.021-0.037,0.052-0.039,0.078c-0.03,0.002-0.059,0.021-0.078,0.041c-0.001,0.03-0.016,0.062-0.039,0.08v0.028
					c-0.023,0.021-0.038,0.05-0.039,0.078c-0.02-0.002-0.037,0.013-0.04,0.03c0,0.002,0,0.007,0,0.011V21
					c-0.02-0.002-0.037,0.012-0.039,0.031c0,0.002,0,0.006,0,0.008c-0.002,0.031-0.016,0.059-0.038,0.08
					c-0.023,0.02-0.037,0.049-0.038,0.078c-0.019-0.002-0.037,0.012-0.039,0.031c0,0.002,0,0.006,0,0.01
					c-0.023,0.02-0.038,0.047-0.04,0.078c-0.019-0.002-0.036,0.012-0.038,0.031c0,0.002,0,0.006,0,0.01
					c-0.023,0.02-0.037,0.047-0.038,0.076c-0.061,0.01-0.109,0.059-0.118,0.118c-0.019-0.005-0.036,0.011-0.038,0.026
					c0,0.004,0,0.008,0,0.01v0.08c-0.019-0.002-0.037,0.016-0.039,0.027c0,0.006,0,0.008,0,0.012
					c-0.001,0.029-0.016,0.063-0.039,0.08l-0.043,0.04c-0.002,0.03-0.016,0.059-0.038,0.08v0.041
					c-0.023,0.02-0.037,0.047-0.039,0.077c-0.019-0.002-0.037,0.013-0.039,0.031c0,0.002,0,0.006,0,0.01V22.1l-0.039,0.08
					c-0.019-0.002-0.036,0.01-0.039,0.026c0,0.004,0,0.008,0,0.013v0.075h-0.031l-0.02,0.041v0.078
					c-0.016,0.002-0.03,0.008-0.039,0.021c-0.015,0.002-0.028,0.008-0.038,0.021v0.08l-0.039,0.041l-0.04,0.076
					c-0.046,0.072-0.115,0.129-0.195,0.156c-0.023,0.021-0.037,0.051-0.039,0.08c-0.03,0.002-0.059,0.02-0.078,0.039V23h0.136
					c0.044,0,0.089,0,0.136,0v0.08c-0.03,0.002-0.059,0.018-0.079,0.039v0.082l-0.039,0.041c-0.001,0.027-0.015,0.061-0.038,0.076
					v0.236c-0.031,0.002-0.059,0.02-0.079,0.04v0.079l-0.039,0.037c-0.001,0.031-0.015,0.061-0.038,0.08v0.436
					c-0.001,0.018-0.007,0.027-0.018,0.039c-0.023,0.008-0.044,0.021-0.059,0.041c-0.023,0.021-0.038,0.049-0.04,0.076
					c-0.019-0.002-0.036,0.014-0.039,0.029c0,0.004,0,0.008,0,0.012v0.232c-0.031,0.002-0.059,0.018-0.079,0.039v0.078l-0.037,0.039
					c-0.002,0.031-0.016,0.061-0.039,0.08v0.041c-0.023,0.02-0.038,0.047-0.039,0.076c-0.02-0.002-0.037,0.012-0.039,0.029
					c0,0.004,0,0.007,0,0.012v0.038c-0.036,0.021-0.076,0.032-0.117,0.038c-0.041,0.008-0.08,0.021-0.115,0.041h-0.123
					c-0.042,0.006-0.082,0.02-0.117,0.039H20.03c-0.034,0.012-0.068,0.021-0.1,0.041c-0.02-0.002-0.037,0.014-0.04,0.029
					c0,0.004,0,0.008,0,0.01c-0.023,0.021-0.038,0.049-0.039,0.08c-0.031,0.002-0.059,0.02-0.078,0.041
					c-0.002,0.027-0.016,0.059-0.039,0.076v0.117c-0.03,0-0.059,0.018-0.078,0.039l-0.079,0.077v0.038
					c-0.023,0.021-0.037,0.051-0.039,0.08c-0.019-0.002-0.037,0.014-0.039,0.029c0,0.004,0,0.008,0,0.01v0.313
					c-0.03,0.002-0.058,0.018-0.077,0.039v0.313l-0.039,0.038c-0.001,0.031-0.016,0.063-0.04,0.08v0.156
					c-0.022,0.021-0.037,0.049-0.039,0.078c0.043,0.021,0.083,0.047,0.118,0.077c0.03,0.003,0.058,0.021,0.077,0.041v0.155
					c-0.025,0.023-0.05,0.054-0.077,0.078c-0.032,0.027-0.075,0.045-0.118,0.041H19.15c-0.023,0.021-0.038,0.049-0.04,0.078
					c-0.03,0.004-0.057,0.019-0.077,0.041c-0.002,0.029-0.016,0.059-0.039,0.078l-0.039,0.039c-0.002,0.029-0.016,0.061-0.038,0.08
					l-0.039,0.039c-0.002,0.031-0.017,0.061-0.04,0.08v0.037c-0.022,0.021-0.035,0.051-0.038,0.08
					c-0.019-0.002-0.036,0.01-0.039,0.025c-0.001,0.005-0.001,0.009,0,0.014h-0.353v0.271l0.079,0.076l0.039,0.041v0.041
					c0.023,0.021,0.037,0.051,0.039,0.077v0.08c-0.022,0.021-0.037,0.047-0.039,0.078c-0.016-0.005-0.032,0.006-0.039,0.021v0.016
					c-0.022,0.021-0.035,0.049-0.037,0.076h-0.042c-0.048,0.023-0.101,0.039-0.154,0.039c-2.513,0-5.013,0.016-7.5,0.039h-0.08
					c-0.042,0.007-0.082,0.021-0.118,0.041c-0.104-0.025-0.208-0.055-0.312-0.08H10.09c-0.048-0.021-0.102-0.036-0.157-0.036
					c-0.024-0.027-0.051-0.054-0.077-0.077L9.777,28.5c-0.024-0.023-0.05-0.055-0.077-0.077c-0.027-0.026-0.051-0.057-0.079-0.08
					c-0.001-0.03-0.016-0.061-0.039-0.077l-0.077-0.08c-0.02-0.022-0.048-0.037-0.079-0.039c-0.026-0.024-0.052-0.054-0.078-0.08
					c-0.026-0.028-0.053-0.053-0.079-0.077c-0.022-0.021-0.036-0.05-0.038-0.08V27.57c0.025-0.024,0.05-0.051,0.079-0.077
					l0.077-0.078h0.195c0.054,0,0.108,0.015,0.156,0.039c0.025,0.024,0.05,0.053,0.078,0.08c0.002,0.028,0.016,0.059,0.039,0.079
					v-0.237c-0.025-0.024-0.052-0.054-0.079-0.078c-0.002-0.03-0.016-0.06-0.038-0.079c0.002-0.021-0.012-0.037-0.031-0.039
					c-0.002,0-0.005,0-0.007,0v-0.078c0.023-0.021,0.037-0.049,0.039-0.078l0.078-0.08h0.039v-0.196
					c-0.002-0.021,0.011-0.037,0.031-0.039c0.002,0,0.005,0,0.008,0c0.002-0.028,0.015-0.062,0.037-0.08
					c0.011-0.01,0.025-0.021,0.04-0.021c0.009-0.012,0.023-0.021,0.039-0.021l0.079-0.078c0.02-0.021,0.047-0.035,0.077-0.041
					v-0.072c0.061-0.01,0.108-0.057,0.117-0.115l0.038-0.041v-0.079c0.021-0.021,0.049-0.036,0.079-0.038v-0.08
					c-0.002-0.021,0.011-0.035,0.03-0.039c0.002,0,0.005,0,0.008,0c0.001-0.027,0.016-0.061,0.039-0.078v-0.234
					c0.02-0.021,0.048-0.037,0.078-0.039v-0.08c-0.003-0.021,0.011-0.036,0.03-0.04c0.003,0,0.006,0,0.008,0
					c0.003-0.028,0.016-0.058,0.038-0.078c0.021-0.021,0.049-0.036,0.08-0.038V25.21c0.019-0.022,0.047-0.039,0.077-0.041v-0.073
					c-0.003-0.019,0.01-0.035,0.028-0.039c0.003,0,0.007,0,0.011,0V24.98c-0.003-0.021,0.01-0.037,0.029-0.039
					c0.003-0.002,0.006-0.002,0.01,0c0.002-0.03,0.016-0.063,0.039-0.08V24.82c0.022-0.021,0.036-0.047,0.038-0.077v-0.039
					c0.023-0.021,0.038-0.05,0.039-0.08c0.02-0.022,0.048-0.037,0.078-0.039c0.001-0.028,0.016-0.06,0.039-0.078v-0.116
					c-0.003-0.021,0.009-0.035,0.028-0.039c0.004,0,0.007,0,0.011,0v-0.08c0.019-0.021,0.047-0.037,0.077-0.039
					c0.023-0.021,0.037-0.049,0.039-0.08l0.039-0.038c0.002-0.029,0.016-0.06,0.038-0.078V23.92
					c-0.002-0.02,0.011-0.039,0.031-0.041c0.004,0,0.008,0,0.012,0c0.002-0.029,0.017-0.057,0.04-0.076v-0.057
					c0.022-0.02,0.036-0.049,0.038-0.078l0.039-0.043c0.023-0.02,0.037-0.047,0.039-0.078c-0.003-0.018,0.01-0.037,0.029-0.039
					c0.003,0,0.006,0,0.008,0V23.43c-0.002-0.02,0.012-0.037,0.032-0.041c0.002,0,0.005,0,0.007,0
					c0.002-0.029,0.017-0.059,0.04-0.078v-0.037c0.023-0.021,0.037-0.049,0.039-0.08c0.02-0.021,0.048-0.033,0.078-0.033
					c0.002-0.031,0.016-0.063,0.038-0.078c-0.003-0.021,0.01-0.037,0.029-0.041c0.003,0,0.006,0,0.009,0v-0.08
					c-0.003-0.021,0.011-0.037,0.031-0.041c0.003,0,0.006,0,0.009,0v-0.109c0.022-0.021,0.036-0.053,0.038-0.08l0.04-0.037v-0.084
					c0.02-0.021,0.047-0.035,0.077-0.039c0.001-0.029,0.016-0.063,0.039-0.078v-0.041c0.022-0.021,0.036-0.049,0.038-0.078V22.33
					c0.023-0.02,0.038-0.049,0.04-0.078l0.038-0.039v-0.076c0.036-0.021,0.075-0.035,0.116-0.041
					c0.023-0.02,0.037-0.047,0.038-0.078c-0.002-0.018,0.011-0.035,0.03-0.039c0.003,0,0.006,0,0.009,0
					c0.001-0.027,0.015-0.059,0.038-0.08v-0.115c-0.003-0.02,0.009-0.033,0.027-0.038c0.003-0.003,0.006-0.003,0.01,0
					c0.002-0.03,0.016-0.063,0.039-0.079V21.62c0.002-0.031,0.016-0.062,0.039-0.08v-0.035c0.023-0.021,0.037-0.047,0.04-0.077
					v-0.046c0.023-0.021,0.037-0.049,0.038-0.077l0.038-0.039c0.023-0.021,0.037-0.047,0.039-0.078
					c-0.002-0.021,0.011-0.037,0.031-0.039c0.003-0.002,0.005-0.002,0.008-0.002c0.002-0.026,0.016-0.058,0.038-0.076l0.038-0.04
					v-0.076c0.031-0.002,0.059-0.019,0.079-0.039V20.75c0.001-0.031,0.015-0.061,0.038-0.08v-0.041l0.02-0.018l0.02-0.041V20.55
					l0.038-0.038c0.023-0.021,0.037-0.05,0.039-0.078l0.039-0.039c0-0.03,0.015-0.06,0.039-0.078v-0.041
					c0.023-0.021,0.037-0.049,0.039-0.08c0.02-0.021,0.047-0.034,0.078-0.036c0.002-0.031,0.016-0.062,0.038-0.08V20.04
					c0.024-0.021,0.038-0.049,0.039-0.08l0.038-0.037c0.023-0.021,0.038-0.049,0.04-0.077c-0.006-0.021,0.004-0.039,0.022-0.046
					c0.009-0.002,0.02-0.002,0.028,0.005v-0.078c-0.002-0.021,0.01-0.037,0.03-0.039c0.002-0.002,0.005-0.002,0.008-0.002v-0.082
					c-0.002-0.019,0.011-0.035,0.031-0.039c0.002,0,0.005,0,0.008,0V19.45h0.02c0.035-0.009,0.069-0.021,0.1-0.038V19.38
					c0.021-0.021,0.033-0.047,0.034-0.075l0.039-0.041c0.023-0.021,0.037-0.048,0.038-0.078l0.04-0.041
					c0.002-0.026,0.016-0.058,0.038-0.078v-1.178c0.02-0.023,0.048-0.037,0.079-0.039c0.001-0.031,0.015-0.059,0.037-0.078
					c-0.002-0.021,0.011-0.039,0.031-0.041c0.003,0,0.005,0,0.008,0v-0.08l0.038-0.041c0.023-0.021,0.038-0.049,0.04-0.08
					l0.039-0.041c0.002-0.03,0.016-0.058,0.038-0.078c-0.002-0.02,0.012-0.038,0.031-0.04c0.003,0,0.006,0,0.009,0v-0.118
					c0.001-0.03,0.015-0.059,0.038-0.079v-0.04c0.002-0.031,0.016-0.059,0.039-0.079v-0.04c0.023-0.02,0.037-0.048,0.039-0.078
					c-0.003-0.018,0.009-0.036,0.027-0.04c0.003,0,0.006,0,0.01,0c0.002-0.031,0.017-0.06,0.041-0.079
					c-0.003-0.02,0.011-0.038,0.031-0.041c0.002,0,0.005,0,0.007,0c0.002-0.03,0.016-0.058,0.038-0.078
					c0.02-0.023,0.047-0.038,0.078-0.04c0.001-0.031,0.016-0.059,0.039-0.079v-0.04c0.023-0.02,0.037-0.048,0.039-0.079
					c-0.003-0.02,0.01-0.037,0.029-0.04c0.003,0,0.006,0,0.009,0c0.002-0.03,0.017-0.059,0.039-0.079v-0.038
					c0.002-0.031,0.016-0.06,0.039-0.081v-0.035c0.001-0.03,0.015-0.058,0.038-0.078c-0.002-0.02,0.012-0.038,0.032-0.04
					c0.003,0,0.006,0,0.008,0c0.001-0.031,0.015-0.06,0.039-0.08c-0.003-0.02,0.01-0.037,0.03-0.04c0.002,0,0.005,0,0.008,0
					c0.002-0.031,0.016-0.059,0.039-0.079c-0.003-0.02,0.011-0.038,0.03-0.041c0.003,0,0.006,0,0.009,0
					c0.022-0.02,0.036-0.048,0.038-0.078l0.04-0.039c0.022-0.021,0.036-0.049,0.038-0.079l0.039-0.04
					c0.023-0.021,0.037-0.049,0.039-0.079c-0.019-0.024-0.047-0.039-0.078-0.041c-0.022-0.02-0.036-0.048-0.038-0.078h-0.18
					c-0.033-0.028-0.075-0.043-0.118-0.04c-0.019,0.002-0.037-0.011-0.039-0.03c0-0.003,0-0.006,0-0.008h-0.31
					c-0.048-0.026-0.102-0.04-0.157-0.041c-0.023-0.02-0.037-0.048-0.038-0.078H13.68c-0.032-0.029-0.074-0.043-0.117-0.04
					c-0.019,0.002-0.037-0.011-0.039-0.03c0-0.003,0-0.007,0-0.011H13.1c-0.048-0.025-0.102-0.039-0.156-0.04
					c-0.023-0.02-0.037-0.048-0.038-0.078h-0.39c-0.031-0.028-0.073-0.043-0.115-0.041c-0.019,0.003-0.037-0.01-0.04-0.029
					c0-0.004,0-0.007,0-0.011H12.05c-0.047-0.024-0.1-0.037-0.154-0.038c-0.022-0.02-0.037-0.047-0.04-0.076h-0.311
					c-0.031-0.029-0.073-0.044-0.116-0.041c-0.019,0.003-0.036-0.009-0.04-0.028c0-0.004,0-0.008,0-0.012h-0.505
					c-0.047-0.025-0.1-0.038-0.154-0.039c-0.023-0.02-0.038-0.049-0.039-0.08h-0.39c-0.032-0.028-0.074-0.042-0.117-0.04l-0.04-0.04
					H9.912c-0.048-0.024-0.101-0.038-0.155-0.038c-0.023-0.021-0.037-0.05-0.039-0.081H9.524c-0.033-0.028-0.075-0.042-0.118-0.039
					l-0.039-0.04H9.134c-0.048-0.025-0.101-0.039-0.155-0.04c-0.023-0.02-0.038-0.048-0.04-0.079H8.823
					c-0.032-0.028-0.074-0.042-0.117-0.04c-0.019,0.002-0.037-0.011-0.039-0.03c0-0.003,0-0.006,0-0.009H8.55
					c-0.047-0.026-0.101-0.04-0.155-0.04c-0.023-0.021-0.037-0.049-0.038-0.079H8.163c-0.032-0.029-0.074-0.043-0.117-0.04
					l-0.021-0.024H7.867c-0.048-0.025-0.101-0.039-0.154-0.04c-0.022-0.021-0.037-0.049-0.039-0.079H7.596
					c-0.032-0.029-0.075-0.044-0.118-0.04l-0.039-0.04H7.283c-0.047-0.025-0.1-0.039-0.153-0.04
					c-0.023-0.02-0.039-0.048-0.041-0.079H7.011c-0.032-0.029-0.074-0.043-0.116-0.041l-0.038-0.04H6.701
					c-0.049-0.024-0.102-0.037-0.156-0.038c-0.033-0.034-0.072-0.061-0.116-0.079L6.351,13.35H6.313
					c-0.048-0.025-0.102-0.039-0.156-0.04c-0.034-0.034-0.074-0.061-0.117-0.08c-0.026-0.025-0.051-0.052-0.077-0.077H5.924
					c-0.047-0.021-0.098-0.03-0.15-0.028c-0.036-0.031-0.075-0.058-0.118-0.079c-0.026-0.025-0.052-0.051-0.078-0.078h-0.12
					c-0.048-0.026-0.102-0.04-0.156-0.041l-0.077-0.079c-0.024-0.02-0.039-0.048-0.04-0.079H5.146
					c-0.048-0.025-0.102-0.039-0.156-0.04c-0.023-0.02-0.036-0.048-0.038-0.079H4.874L4.72,12.571
					c-0.043,0.003-0.085-0.012-0.118-0.04c-0.026-0.025-0.052-0.053-0.078-0.079c-0.023-0.02-0.038-0.049-0.039-0.08
					c-0.042-0.019-0.082-0.045-0.115-0.078c-0.035-0.032-0.075-0.059-0.118-0.08l-0.078-0.073l-0.079-0.079L3.94,11.983
					c-0.042,0.003-0.085-0.012-0.117-0.04l-0.078-0.08c-0.023-0.02-0.037-0.048-0.039-0.078c-0.043-0.021-0.082-0.047-0.117-0.08
					c-0.026-0.026-0.051-0.051-0.078-0.079c-0.002-0.03-0.017-0.059-0.039-0.079c-0.025-0.026-0.051-0.052-0.079-0.078L3.239,11.39
					c-0.031-0.002-0.06-0.018-0.078-0.042c-0.035-0.031-0.075-0.058-0.117-0.078c-0.035-0.031-0.075-0.057-0.118-0.077
					c-0.042-0.021-0.081-0.048-0.116-0.08c-0.012-0.013-0.025-0.025-0.039-0.039H2.5v-0.2c-0.028-0.026-0.052-0.052-0.079-0.08
					l-0.078-0.078c-0.034-0.033-0.073-0.06-0.117-0.079c-0.035-0.033-0.074-0.059-0.117-0.079l-0.077-0.08
					c-0.026-0.016-0.051-0.044-0.077-0.073l-0.04-0.039c-0.022-0.019-0.037-0.046-0.04-0.075v-0.04
					c-0.03-0.002-0.059-0.016-0.079-0.038c-0.02-0.023-0.047-0.038-0.078-0.04c-0.023-0.02-0.037-0.049-0.039-0.079v-0.079
					c-0.02-0.02-0.031-0.046-0.032-0.074C1.62,9.915,1.595,9.89,1.568,9.862V9.781C1.542,9.754,1.515,9.729,1.49,9.701
					C1.488,9.67,1.474,9.642,1.451,9.622c0.003-0.019-0.01-0.037-0.029-0.04c-0.003,0-0.007,0-0.01,0
					c-0.023-0.02-0.036-0.049-0.037-0.08V8.324c0.002-0.03,0.016-0.058,0.038-0.078c0.023-0.021,0.037-0.049,0.039-0.08
					c0.001-0.031,0.016-0.06,0.039-0.079V7.42C1.513,7.399,1.528,7.371,1.53,7.341c0.004-0.031,0.02-0.06,0.045-0.078V7.225
					c0.026-0.025,0.05-0.053,0.078-0.08c0.028-0.027,0.05-0.052,0.077-0.078c0.002-0.031,0.016-0.059,0.039-0.079V6.909l0.078-0.078
					C1.872,6.803,1.898,6.778,1.924,6.75c0.023-0.02,0.038-0.049,0.04-0.079c0.02-0.023,0.048-0.038,0.078-0.04
					c0.001-0.029,0.013-0.056,0.033-0.076c0.001-0.031,0.015-0.06,0.038-0.08c0.004-0.029,0.02-0.055,0.043-0.073V6.241
					c0.024-0.028,0.05-0.054,0.076-0.08C2.235,6.13,2.251,6.102,2.275,6.083V5.73c0.022-0.021,0.036-0.05,0.037-0.081
					c0.002-0.03,0.016-0.058,0.039-0.078V4.864l0.078-0.08c0-0.031,0.012-0.06,0.034-0.082V4.55c0.024-0.02,0.038-0.048,0.04-0.079
					c0.002-0.031,0.016-0.06,0.039-0.08V4.314c0.02-0.023,0.047-0.037,0.077-0.039c0.033-0.034,0.073-0.061,0.117-0.08
					c0.002-0.03,0.017-0.058,0.039-0.078c0.026-0.026,0.052-0.053,0.079-0.08C2.888,4.005,2.927,3.978,2.97,3.958z M30.15,14.225
					c-1.194,0.027-2.399,0.04-3.616,0.04v0.708c0.026,0.052,0.052,0.104,0.078,0.157c0.023,0.021,0.038,0.049,0.04,0.08v0.118
					c0.025,0.026,0.051,0.051,0.077,0.079c0.026,0.028,0.052,0.052,0.079,0.078l0.079,0.08h0.038l0.039,0.04v0.04
					c0.02-0.002,0.037,0.011,0.039,0.031c0,0.003,0,0.006,0,0.009l0.038,0.041v0.076c0.05,0.026,0.1,0.053,0.156,0.079h1.672
					l0.038-0.041c0.036-0.021,0.076-0.033,0.118-0.038c0.023-0.02,0.037-0.048,0.039-0.078h0.039
					c0.03-0.002,0.059-0.017,0.078-0.041c0.067,0.002,0.133-0.012,0.194-0.041l0.077-0.079l0.079-0.08
					c0.025-0.02,0.042-0.049,0.044-0.081c0.025-0.027,0.051-0.053,0.078-0.079v-0.036c0.023-0.02,0.038-0.048,0.039-0.078
					l0.078-0.08c0.025-0.026,0.05-0.053,0.077-0.079v-0.077c0.027-0.026,0.052-0.053,0.08-0.078c0.002-0.03,0.017-0.059,0.039-0.079
					v-0.114c0.022-0.021,0.036-0.049,0.038-0.079c0.026-0.026,0.051-0.053,0.079-0.079l0.078-0.079h0.077v-0.043
					c-0.001-0.03-0.015-0.059-0.038-0.079c-0.002-0.031-0.016-0.059-0.039-0.079v-0.04l0,0L30.15,14.225z M25.288,14.933v-0.077
					c-0.002,0.03-0.016,0.058-0.038,0.078c-0.025,0.027-0.051,0.054-0.079,0.08c-0.028,0.026-0.051,0.053-0.078,0.078v0.04h-0.039
					v0.041l-0.039,0.04v0.04h-0.04v0.038c-0.014,0.014-0.026,0.029-0.04,0.041v0.039h-0.037c-0.023,0.021-0.037,0.049-0.04,0.079
					c-0.013,0.012-0.025,0.025-0.038,0.039l-0.038,0.041c-0.002,0.03-0.016,0.059-0.039,0.079v0.04h-0.021
					c-0.001,0.015-0.008,0.03-0.02,0.04v0.041c-0.022,0.02-0.036,0.048-0.038,0.078v0.079h0.895v-0.162
					c-0.031-0.003-0.059-0.018-0.079-0.041l-0.078-0.082c-0.001-0.03-0.016-0.059-0.039-0.079V15.37
					c-0.025-0.025-0.051-0.051-0.079-0.079v-0.275C25.284,14.991,25.288,14.96,25.288,14.933z M2.504,10.077V9.919h-0.06
					l0.019,0.019v0.119L2.504,10.077z M7.228,11.097c0.044,0.014,0.09,0.021,0.136,0.021v-0.016H7.228V11.097z"/>
			</defs>
			<clipPath id="SVGID_2_">
				<use xlink:href="#SVGID_1_"  overflow="visible"/>
			</clipPath>
			
				<linearGradient id="SVGID_3_" gradientUnits="userSpaceOnUse" x1="-804.2334" y1="277.043" x2="-758.7031" y2="277.043" gradientTransform="matrix(0.998 -0.0625 0.0625 0.998 782.3708 -315.5861)">
				<stop  offset="0" style="stop-color:#FFFF13"/>
				<stop  offset="1" style="stop-color:#7411C3"/>
			</linearGradient>
			<path clip-path="url(#SVGID_2_)" fill="url(#SVGID_3_)" d="M4.906,9.496l11.341-6.042L1.423,12.913l0.544,0.889
				c0,0,28.675-18.854,37.51-21.469c0,0-24.5,15.325-29.156,20.093c0,0,13.448-9.158,17.85-11.281l-5.106,4.229l2.087-1.197
				l-4.633,3.985c0,0,8.712-6.801,18.081-9.804l3.508,3.688c0,0-7.873,0.139-18.655,13.961c0,0,4.009-6.148,5.891-8.398
				c0,0-7.489,5.16-15.068,12.243l5.673-6.326c0,0-5.923,4.566-9.842,9.927c0,0,5.677-9.593,20.549-19.41
				c0,0-8.153,2.359-24.858,15.205c0,0,14.581-8.875,15.318-9.348c0.67-0.467-18.496,13.17-20.502,16.78
				c-2.216,3.62-3.488-14.492-3.488-14.492L4.906,9.496z"/>
		</g>
	</g>
</g>
</svg>
