<?xml version="1.0" encoding="utf-8"?>
<!-- Generator: Adobe Illustrator 16.0.0, SVG Export Plug-In . SVG Version: 6.00 Build 0)  -->
<!DOCTYPE svg PUBLIC "-//W3C//DTD SVG 1.1//EN" "http://www.w3.org/Graphics/SVG/1.1/DTD/svg11.dtd">
<svg version="1.1" id="case1" xmlns="http://www.w3.org/2000/svg" xmlns:xlink="http://www.w3.org/1999/xlink" x="0px" y="0px"
	 width="92px" height="36px" viewBox="0 0 92 36" enable-background="new 0 0 92 36" xml:space="preserve">
<linearGradient id="m4a1_2_" gradientUnits="userSpaceOnUse" x1="0.9961" y1="16.6265" x2="90.002" y2="16.6265">
	<stop  offset="0" style="stop-color:#5400D7"/>
	<stop  offset="1" style="stop-color:#9178E2"/>
</linearGradient>
<path id="m4a1" fill="url(#m4a1_2_)" d="M45.258,17.73c0.016-0.336-0.094-0.667-0.309-0.927c-0.183-0.226-0.458-0.356-0.748-0.354
	h-2.116c-0.029-0.029-0.044-0.015-0.044,0.044c-0.098,0.161-0.158,0.343-0.177,0.531c-0.001,0.356,0.09,0.706,0.264,1.016
	c0.123,0.181,0.17,0.402,0.133,0.618c-0.175,0.117-0.513-0.162-1.014-0.84c-0.174-0.247-0.281-0.537-0.308-0.838l-0.044-0.53
	c-0.19,0.096-0.368,0.215-0.53,0.354c-0.288,0.225-0.465,0.563-0.485,0.928c0.031,0.411,0.169,0.807,0.4,1.148
	c0.215,0.327,0.579,0.526,0.97,0.531h2.689c0.448,0.042,0.879-0.185,1.1-0.576C45.202,18.491,45.277,18.111,45.258,17.73z
	 M79.068,5.971c-0.101,0.186-0.188,0.377-0.264,0.573c-0.027,0.179-0.014,0.361,0.043,0.533l0.264,0.575H81.1l0.133-2.61h-1.674
	L79.068,5.971z M83.7,11.099c-0.091-0.002-0.175-0.053-0.218-0.132l-0.09-0.133h-1.367c-0.033,0.339-0.254,0.63-0.571,0.752h-0.663
	c-0.119-0.023-0.219-0.106-0.264-0.22l-0.133-0.177h-2.732v0.706c-0.027,0.223-0.158,0.42-0.354,0.532
	c-0.203,0.193-0.471,0.303-0.748,0.309H55.264c-0.207-0.048-0.375-0.199-0.443-0.4l-0.174-0.4l-0.483,0.795h-0.31v5.083l0.354,0.443
	c-0.064,0.16-0.191,0.287-0.354,0.354c-0.195,0.269-0.248,0.617-0.135,0.93c0.088,1,0.135,1.59,0.135,1.768
	c-0.004,0.532,0.025,1.063,0.088,1.592c0.088,0.354,0.223,0.854,0.399,1.5c0.205,0.768,0.603,2.123,1.191,4.066l0.22,0.133
	c0.088,0.117,0.044,0.223-0.131,0.312c-4.382,1.42-6.705,2.157-6.969,2.216c-0.166,0.012-0.32-0.076-0.4-0.223
	c-0.061-0.125-0.061-0.271,0-0.397c-0.081-0.556-0.215-1.104-0.4-1.634c-0.389-1.264-0.697-2.548-0.925-3.852
	c-0.22-1.182-0.354-2.379-0.399-3.58l0.043-1.192l-0.571-0.179v-0.48c-0.119,0.252-0.321,0.455-0.572,0.575H40.41
	c-0.074,0.229-0.255,0.412-0.486,0.483c-0.147-0.039-0.273-0.133-0.353-0.265l-0.132-0.22c-0.109-0.059-0.23-0.088-0.353-0.089
	c-0.244,0.005-0.458,0.166-0.529,0.399c-0.096,0.229-0.231,0.438-0.4,0.617c-0.125,0.143-0.244,0.289-0.354,0.443
	c-0.048,0.201,0.001,0.415,0.134,0.572c0.133,0.146,0.211,0.336,0.22,0.533c-0.184,0.145-0.394,0.248-0.618,0.31
	c-0.303,0.058-0.562,0.254-0.7,0.528c-0.028,0.061-0.336,0.633-0.925,1.727c-0.315,0.497-0.567,1.029-0.751,1.591
	c0.073,0.206,0.177,0.399,0.309,0.575c0.173,0.184,0.191,0.461,0.044,0.664c-0.324,0.41-1.632,0.456-3.923,0.132
	c-0.711-0.063-1.402-0.272-2.028-0.619c-0.529-0.294-0.707-0.616-0.529-0.972c0.267-0.473,2.133-3.698,5.6-9.681
	c0.181-0.439,0.181-0.933,0-1.372c-0.038-0.471-0.376-0.864-0.837-0.972c-0.25-0.001-0.501,0.014-0.75,0.045
	c-0.163,0.031-0.332,0.016-0.486-0.045c-0.286-0.095-0.481-0.361-0.486-0.662c-0.027-0.384-0.044-0.723-0.044-1.018
	c-0.037-0.413-0.022-0.828,0.044-1.237h-0.22l-0.573-0.222v-0.22h-6.793l-0.088,0.486c-0.165,0.407-0.439,0.759-0.794,1.018
	c-0.376,0.265-0.73,0.56-1.058,0.883l-0.353,0.309L21.4,15.346h-1.051l-0.708,1.239h-2.6v-0.66H15.5
	c-2.262,1.74-3.511,2.685-3.746,2.83c-0.164,0.112-0.342,0.202-0.53,0.267c-0.15,0.021-0.287-0.088-0.306-0.236
	c-0.001-0.012-0.002-0.02-0.002-0.028l-0.044-0.442L3.819,22.87l-0.134,0.528c-0.059,0.261-0.239,0.475-0.484,0.576
	c-0.264,0.058-0.539,0.041-0.794-0.045c-0.272-0.037-0.531-0.145-0.75-0.31c-0.165-0.113-0.313-0.247-0.441-0.399
	C1.055,23.018,0.978,22.762,1,22.505V8.976C0.999,8.625,1.144,8.289,1.4,8.049c0.333-0.311,0.779-0.472,1.234-0.444h21.95
	c0.159,0.044,0.268,0.189,0.265,0.354c0.031,0.119,0.06,0.236,0.088,0.354h6.347V8.05l0.574-0.225h1.1v-0.97l0.221-0.22
	c0.371-0.175,0.781-0.251,1.19-0.22h2.644l0.927-1.328l-0.087-0.442c-0.188-0.064-0.365-0.154-0.529-0.265
	c-0.343-0.244-0.541-0.642-0.53-1.062c0.002-0.304,0.129-0.593,0.352-0.8c0.228-0.247,0.547-0.389,0.883-0.393
	c0.365-0.007,0.716,0.138,0.97,0.4c0.228,0.22,0.355,0.523,0.352,0.84v2.65h0.529V5.308h1.632v0.927h12.431
	c0.191,0.009,0.373,0.107,0.482,0.266c0.104,0.124,0.191,0.258,0.268,0.4c0.027,0.148,0.22,0.059,0.572-0.265h1.321
	c-0.003-0.076,0.015-0.151,0.044-0.22c0.057-0.145,0.199-0.235,0.354-0.221h19.658c0.192,0.009,0.373,0.106,0.485,0.265
	c0.052,0.079,0.108,0.153,0.177,0.221l0.926-1.282c0.379-0.58,0.808-1.127,1.276-1.636l0.222-0.219
	c0.342-0.165,0.722-0.241,1.101-0.221h1.101v5.655h1.322l0.178-0.22c0.088-0.104,0.215-0.167,0.353-0.176h5.288
	c0.224-0.007,0.436,0.091,0.574,0.265C89.889,9.072,90.02,9.394,90,9.725v0.448c0.011,0.271-0.104,0.53-0.311,0.705
	c-0.156,0.141-0.359,0.22-0.57,0.221H83.7z"/>
<linearGradient id="shape5_1_" gradientUnits="userSpaceOnUse" x1="314.9619" y1="-158.8281" x2="314.9619" y2="-172.5781" gradientTransform="matrix(1 0 0 -1 -247.5801 -142.1602)">
	<stop  offset="0" style="stop-color:#7439E3"/>
	<stop  offset="1" style="stop-color:#B4A7F8"/>
</linearGradient>
<path id="shape5" fill="url(#shape5_1_)" d="M77.212,31.251c-0.313,0-0.625-0.05-0.922-0.147c-0.298,0.104-0.608,0.147-0.922,0.147
	h-8.193c-0.185,0-0.442-0.009-0.771-0.075c-0.217,0.051-0.438,0.075-0.663,0.075h-2.664c-0.816,0-1.604-0.342-2.166-0.937
	c-0.078-0.086-0.15-0.174-0.22-0.271l-0.909,0.648c-0.503,0.357-1.101,0.554-1.726,0.554h-3.584c-0.717,0-1.402-0.269-1.937-0.722
	c-0.614,0.427-1.353,0.652-2.112,0.652c-0.75,0-1.479-0.222-2.104-0.642c-0.164-0.11-0.315-0.233-0.452-0.37
	c-1.021-1.021-1.363-2.423-0.92-3.753l0.044-0.128l0.08-0.203c-1.801-0.254-3.146-1.766-3.146-3.646V22.24
	c0-0.741,0.274-1.45,0.773-1.996l4.748-5.232c0.646-1.069,1.762-1.679,3.079-1.679h0.41c2.064,0,3.684,1.618,3.684,3.684
	c0,0-0.001,0.289-0.003,0.331c0.555-0.653,1.372-1.044,2.26-1.044h8.397c0.262,0,0.519,0.034,0.769,0.103
	c0.25-0.067,0.508-0.103,0.771-0.103h9.219c0.242,0,0.48,0.029,0.718,0.087c0.231-0.058,0.478-0.087,0.72-0.087h8.396
	c0.917,0,1.797,0.433,2.354,1.159c0.563,0.726,0.752,1.689,0.518,2.573l-0.407,1.532c-0.146,0.541-0.435,1.02-0.825,1.395
	c-0.018,0.188-0.049,0.372-0.098,0.555l-0.41,1.537c-0.072,0.282-0.189,0.551-0.346,0.799c0.168,0.533,0.188,1.109,0.039,1.656
	l-0.412,1.539c-0.35,1.297-1.521,2.202-2.866,2.202H77.212z M74.173,23.782l0.017-0.009h-0.795l-0.004,0.009H74.173z"/>
<path id="ACE" fill="#FFFFFF" d="M51.402,23.163h-3.789c-0.409,0-0.717-0.308-0.717-0.718c0-0.104,0-0.104,0-0.204l5.018-5.531
	c0.104-0.307,0.311-0.41,0.615-0.41h0.41c0.408,0,0.717,0.308,0.717,0.717c0,0.102,0,0.205,0,0.205l-2.458,3.584H55.6
	c0.615,0,0.312,1.127-0.103,1.639l-4.507,5.531c-0.309,0.308-0.717,0.308-1.023,0.104c-0.205-0.206-0.309-0.41-0.205-0.719
	L51.402,23.163L51.402,23.163L51.402,23.163z M58.88,19.271l0.409,0.41l-4.813,8.603h3.584l2.148-1.536h2.973l-0.104,1.536h2.663
	l1.535-9.013H58.88L58.88,19.271z M63.386,20.809l-0.104,3.482h-2.97l2.047-3.482H63.386L63.386,20.809z M67.177,28.284h8.191
	l0.612-2.15l-0.818,0.614H69.43l1.739-5.941h6.452l0.408-1.535h-9.217l-2.355,7.988c-0.102,0.104-0.102,0.309-0.102,0.409
	c0,0.103,0,0.205,0.103,0.31s0.205,0.203,0.308,0.203C66.971,28.284,67.074,28.284,67.177,28.284L67.177,28.284L67.177,28.284z
	 M79.466,19.271l0.312,0.61l-2.563,8.397h8.193l0.408-1.535h-5.121l0.718-2.458h4.711l0.41-1.537h-4.507l0.611-1.942h4.815
	l0.409-1.535H79.466L79.466,19.271z"/>
<g>
	<defs>
		<path id="m4a1_1_" d="M45.258,17.73c0.016-0.336-0.094-0.667-0.309-0.927c-0.184-0.226-0.458-0.356-0.748-0.354h-2.116
			c-0.029-0.029-0.044-0.015-0.044,0.044c-0.098,0.161-0.158,0.343-0.177,0.531c-0.001,0.356,0.09,0.707,0.264,1.016
			c0.123,0.181,0.17,0.401,0.133,0.618c-0.175,0.117-0.513-0.162-1.014-0.84c-0.174-0.248-0.281-0.538-0.308-0.838l-0.044-0.53
			c-0.19,0.096-0.368,0.215-0.53,0.354c-0.288,0.225-0.465,0.563-0.485,0.928c0.031,0.41,0.169,0.807,0.4,1.147
			c0.215,0.327,0.579,0.526,0.97,0.531h2.689c0.448,0.042,0.879-0.185,1.1-0.576C45.202,18.491,45.277,18.111,45.258,17.73z
			 M79.068,5.971c-0.101,0.186-0.188,0.377-0.264,0.573c-0.027,0.179-0.014,0.361,0.043,0.533l0.264,0.575H81.1l0.133-2.61h-1.674
			L79.068,5.971z M83.7,11.099c-0.091-0.002-0.175-0.053-0.218-0.132l-0.09-0.133h-1.367c-0.033,0.339-0.254,0.63-0.571,0.752
			h-0.663c-0.119-0.023-0.219-0.106-0.264-0.22l-0.133-0.177h-2.732v0.706c-0.027,0.223-0.158,0.42-0.354,0.532
			c-0.203,0.193-0.471,0.303-0.748,0.309H55.264c-0.207-0.048-0.375-0.199-0.443-0.4l-0.174-0.4l-0.483,0.795h-0.31v5.083
			l0.354,0.442c-0.064,0.16-0.191,0.287-0.354,0.354c-0.195,0.269-0.248,0.617-0.135,0.93c0.088,1,0.135,1.59,0.135,1.768
			c-0.004,0.532,0.025,1.063,0.088,1.592c0.088,0.354,0.223,0.854,0.399,1.5c0.205,0.768,0.603,2.123,1.191,4.066l0.22,0.133
			c0.088,0.117,0.044,0.223-0.131,0.312c-4.382,1.42-6.705,2.157-6.969,2.216c-0.166,0.012-0.32-0.076-0.4-0.223
			c-0.061-0.125-0.061-0.271,0-0.397c-0.081-0.556-0.215-1.104-0.4-1.634c-0.389-1.264-0.697-2.548-0.925-3.852
			c-0.22-1.182-0.354-2.379-0.399-3.58l0.043-1.192l-0.571-0.179v-0.48c-0.119,0.252-0.321,0.455-0.572,0.575H40.41
			c-0.074,0.229-0.255,0.412-0.486,0.483c-0.147-0.039-0.273-0.133-0.353-0.265l-0.132-0.22c-0.109-0.059-0.23-0.088-0.353-0.089
			c-0.244,0.005-0.458,0.166-0.529,0.399c-0.096,0.229-0.231,0.438-0.4,0.617c-0.125,0.143-0.244,0.289-0.354,0.443
			c-0.048,0.201,0.001,0.415,0.134,0.572c0.133,0.146,0.211,0.336,0.22,0.533c-0.184,0.145-0.394,0.248-0.618,0.31
			c-0.303,0.058-0.562,0.254-0.7,0.528c-0.028,0.061-0.336,0.633-0.925,1.727c-0.315,0.497-0.567,1.029-0.751,1.591
			c0.073,0.206,0.177,0.399,0.309,0.575c0.173,0.184,0.191,0.461,0.044,0.664c-0.324,0.41-1.632,0.456-3.923,0.132
			c-0.711-0.063-1.402-0.272-2.028-0.619c-0.529-0.294-0.707-0.616-0.529-0.972c0.267-0.473,2.133-3.698,5.6-9.681
			c0.181-0.439,0.181-0.933,0-1.372c-0.038-0.471-0.376-0.864-0.837-0.972c-0.25-0.001-0.501,0.014-0.75,0.045
			c-0.163,0.031-0.332,0.016-0.486-0.045c-0.286-0.095-0.481-0.361-0.486-0.662c-0.027-0.384-0.044-0.723-0.044-1.018
			c-0.037-0.413-0.022-0.828,0.044-1.237h-0.22l-0.573-0.222v-0.22h-6.793l-0.088,0.486c-0.165,0.407-0.439,0.759-0.794,1.018
			c-0.376,0.265-0.73,0.56-1.058,0.883l-0.353,0.309L21.4,15.346h-1.051l-0.708,1.239h-2.6v-0.66H15.5
			c-2.262,1.74-3.511,2.685-3.746,2.83c-0.164,0.112-0.342,0.202-0.53,0.267c-0.15,0.021-0.287-0.088-0.306-0.236
			c-0.001-0.012-0.002-0.02-0.002-0.028l-0.044-0.442L3.819,22.87l-0.134,0.528c-0.059,0.261-0.239,0.475-0.484,0.576
			c-0.264,0.058-0.539,0.041-0.794-0.045c-0.272-0.037-0.531-0.145-0.75-0.31c-0.165-0.113-0.313-0.247-0.441-0.399
			C1.055,23.018,0.978,22.762,1,22.505V8.976C0.999,8.625,1.144,8.289,1.4,8.049c0.333-0.311,0.779-0.472,1.234-0.444h21.95
			c0.159,0.044,0.268,0.189,0.265,0.354c0.031,0.119,0.06,0.236,0.088,0.354h6.347V8.05l0.574-0.225h1.1v-0.97l0.221-0.22
			c0.371-0.175,0.781-0.251,1.19-0.22h2.644l0.927-1.328l-0.087-0.442c-0.188-0.064-0.365-0.154-0.529-0.265
			c-0.343-0.244-0.541-0.642-0.53-1.062c0.002-0.304,0.129-0.593,0.352-0.8c0.228-0.247,0.547-0.389,0.883-0.393
			c0.365-0.007,0.716,0.138,0.97,0.4c0.228,0.22,0.355,0.523,0.352,0.84v2.65h0.529V5.308h1.632v0.927h12.431
			c0.191,0.009,0.373,0.107,0.482,0.266c0.104,0.124,0.191,0.258,0.268,0.4c0.027,0.148,0.22,0.059,0.572-0.265h1.321
			c-0.003-0.076,0.015-0.151,0.044-0.22c0.057-0.145,0.199-0.235,0.354-0.221h19.658c0.192,0.009,0.373,0.106,0.485,0.265
			c0.052,0.079,0.108,0.153,0.177,0.221l0.926-1.282c0.379-0.58,0.808-1.127,1.276-1.636l0.222-0.219
			c0.342-0.165,0.722-0.241,1.101-0.221h1.101v5.655h1.322l0.178-0.22c0.088-0.104,0.215-0.167,0.353-0.176h5.288
			c0.224-0.007,0.436,0.091,0.574,0.265C89.889,9.072,90.02,9.394,90,9.725v0.448c0.011,0.271-0.104,0.53-0.311,0.705
			c-0.156,0.141-0.359,0.22-0.57,0.221H83.7z"/>
	</defs>
	<clipPath id="m4a1_3_">
		<use xlink:href="#m4a1_1_"  overflow="visible"/>
	</clipPath>
	
		<linearGradient id="SVGID_1_" gradientUnits="userSpaceOnUse" x1="-1134.4072" y1="-842.626" x2="-1088.876" y2="-842.626" gradientTransform="matrix(0.998 -0.0625 0.0625 0.998 1182.9778 783.8026)">
		<stop  offset="0" style="stop-color:#FFFF13"/>
		<stop  offset="1" style="stop-color:#7411C3"/>
	</linearGradient>
	<path clip-path="url(#m4a1_3_)" fill="url(#SVGID_1_)" d="M6.02,12.091l11.341-6.042L2.537,15.508l0.544,0.889
		c0,0,28.675-18.854,37.51-21.469c0,0-24.502,15.325-29.156,20.093c0,0,13.448-9.158,17.85-11.281l-5.106,4.229l2.087-1.197
		l-4.633,3.985c0,0,8.712-6.801,18.08-9.804l3.509,3.688c0,0-7.874,0.139-18.657,13.96c0,0,4.009-6.147,5.891-8.397
		c0,0-7.489,5.16-15.068,12.243l5.673-6.326c0,0-5.923,4.566-9.842,9.927c0,0,5.677-9.593,20.549-19.41
		c0,0-8.153,2.359-24.858,15.205c0,0,14.581-8.875,15.318-9.348c0.67-0.467-18.496,13.17-20.502,16.779
		c-2.215,3.621-3.487-14.491-3.487-14.491L6.02,12.091z"/>
</g>
</svg>
