<?xml version="1.0" encoding="utf-8"?>
<!-- Generator: Adobe Illustrator 16.0.0, SVG Export Plug-In . SVG Version: 6.00 Build 0)  -->
<!DOCTYPE svg PUBLIC "-//W3C//DTD SVG 1.1//EN" "http://www.w3.org/Graphics/SVG/1.1/DTD/svg11.dtd">
<svg version="1.1" id="case1" xmlns="http://www.w3.org/2000/svg" xmlns:xlink="http://www.w3.org/1999/xlink" x="0px" y="0px"
	 width="48.5px" height="36px" viewBox="0 0 48.5 36" enable-background="new 0 0 48.5 36" xml:space="preserve">
<linearGradient id="usp_silencer_off_1_" gradientUnits="userSpaceOnUse" x1="376.9492" y1="1103.1318" x2="421.959" y2="1103.1318" gradientTransform="matrix(1 0 0 1 -374.9805 -1084.5049)">
	<stop  offset="0" style="stop-color:#5400D7"/>
	<stop  offset="1" style="stop-color:#9178E2"/>
</linearGradient>
<path id="usp_silencer_off" fill="url(#usp_silencer_off_1_)" d="M46.979,8.785h-1.16v1.9l0.277,0.218v0.922l-0.277,0.218
	l-0.107,1.85H33.238c-0.086,0.004-0.165,0.044-0.221,0.109c-0.194,0.161-0.346,0.367-0.441,0.6
	c-0.145,0.396-0.877,2.171-2.193,5.328c-0.113,0.256-0.308,0.467-0.553,0.601c-0.279,0.11-0.577,0.165-0.877,0.161l-5.714,0.223
	c-0.267-0.129-0.542-0.238-0.825-0.326c-0.452-0.217-0.934-0.359-1.429-0.438c-0.271-0.057-0.546-0.094-0.823-0.106
	c-0.148,0.037-0.42,0.089-0.822,0.165c-0.319,0.104-0.657,0.146-0.992,0.104l-0.386-0.104l-2.8,11.746l-0.11,1.3l0.606,0.874
	L3.848,34.02c0-0.688,0.037-1.576,0.111-2.664c0.205-2.088,0.553-4.16,1.043-6.196c0.486-1.929,1.148-3.804,1.976-5.604
	c0.036-0.104,0.293-0.638,0.77-1.578c0.16-0.313,0.288-0.64,0.383-0.978c0.129-0.369,0.021-0.779-0.275-1.034
	c-0.425-0.327-0.91-0.567-1.428-0.707c-0.735-0.255-1.21-0.415-1.429-0.488c-0.225-0.036-0.402-0.21-0.441-0.435
	c-0.03-0.417-0.011-0.837,0.057-1.25l0.11-0.815l-2.034-0.217c-0.136,0.003-0.271-0.036-0.384-0.112
	c-0.24-0.147-0.37-0.421-0.331-0.7c0.051-0.346,0.369-0.588,0.716-0.544c0.201-0.038,0.409-0.02,0.6,0.056l0.279-1.424l1.649,1.035
	l0.715-3.535l1.154-2.175V3.725l0.88,0.489l3.516,0.055l0.331,0.271h11.975v0.219h6.701V4.594h11.539V3.125h2.746l0.33,0.384v0.979
	l0.387-0.055l0.385,0.492v0.868h1.1 M30.052,14.004l-6.261,0.055c-0.623,0.614-1.064,1.069-1.318,1.36
	c-0.4,0.507-0.623,0.8-0.66,0.871c-0.26,0.408-0.41,0.875-0.436,1.358c-0.029,0.366,0.007,0.734,0.107,1.088
	c0.059,0.187,0.132,0.367,0.219,0.543l-0.384,0.271c-0.198-0.28-0.347-0.595-0.441-0.927c-0.26-0.503-0.392-1.063-0.386-1.629
	c0.078-0.736,0.364-1.434,0.825-2.012c0.161-0.266,0.363-0.505,0.6-0.707c-0.3,0.045-0.595,0.118-0.881,0.217
	c-0.527,0.145-1.015,0.405-1.428,0.762c-0.38,0.392-0.646,0.88-0.769,1.412c-0.15,0.504-0.111,1.045,0.111,1.522
	c0.217,0.433,0.537,0.808,0.932,1.087c0.428,0.303,0.915,0.508,1.429,0.603c0.33,0.033,0.862,0.058,1.593,0.058
	c0.405-0.063,0.819-0.025,1.207,0.104c0.894,0.106,1.794,0.146,2.694,0.108c0.809,0.021,1.618-0.035,2.417-0.164
	c0.496-0.75,0.868-1.574,1.1-2.443l0.825-2.286v-0.332c0.006-0.187-0.032-0.373-0.11-0.543c-0.171-0.156-0.377-0.269-0.601-0.327
	L30.052,14.004z"/>
<g>
	<g>
		<g>
			<defs>
				<path id="SVGID_1_" d="M46.979,8.785h-1.16v1.9l0.277,0.218v0.922l-0.277,0.218l-0.107,1.85H33.238
					c-0.086,0.004-0.164,0.044-0.221,0.109c-0.193,0.161-0.346,0.367-0.441,0.6c-0.145,0.396-0.877,2.171-2.193,5.328
					c-0.112,0.256-0.307,0.467-0.553,0.601c-0.278,0.11-0.576,0.165-0.877,0.161l-5.714,0.223c-0.267-0.129-0.542-0.238-0.825-0.326
					c-0.452-0.217-0.934-0.359-1.429-0.438c-0.271-0.057-0.546-0.094-0.823-0.106c-0.148,0.037-0.42,0.089-0.822,0.165
					c-0.319,0.104-0.657,0.146-0.992,0.104l-0.386-0.104l-2.8,11.746l-0.11,1.3l0.606,0.874L3.848,34.02
					c0-0.688,0.037-1.576,0.111-2.664c0.205-2.088,0.553-4.16,1.043-6.196c0.486-1.929,1.148-3.804,1.976-5.604
					c0.036-0.104,0.293-0.638,0.77-1.578c0.16-0.313,0.288-0.64,0.383-0.978c0.129-0.369,0.021-0.779-0.275-1.034
					c-0.425-0.327-0.91-0.567-1.428-0.707c-0.735-0.255-1.21-0.415-1.429-0.488c-0.225-0.036-0.402-0.21-0.441-0.435
					c-0.03-0.417-0.011-0.837,0.057-1.25l0.11-0.815l-2.034-0.217c-0.136,0.003-0.271-0.036-0.384-0.112
					c-0.24-0.147-0.37-0.421-0.331-0.7c0.051-0.346,0.369-0.588,0.716-0.544c0.201-0.038,0.409-0.02,0.6,0.056l0.279-1.424
					l1.649,1.035l0.715-3.535l1.154-2.175V3.725l0.88,0.489l3.516,0.055l0.331,0.271h11.975v0.219h6.701V4.594h11.539V3.125h2.746
					l0.33,0.384v0.979l0.387-0.055l0.385,0.492v0.868h1.1 M30.052,14.004l-6.262,0.055c-0.623,0.614-1.063,1.069-1.317,1.36
					c-0.4,0.507-0.623,0.8-0.66,0.871c-0.26,0.408-0.41,0.875-0.436,1.358c-0.029,0.366,0.007,0.734,0.107,1.088
					c0.059,0.187,0.132,0.367,0.219,0.543l-0.384,0.271c-0.198-0.28-0.347-0.595-0.441-0.927c-0.26-0.503-0.392-1.063-0.386-1.629
					c0.078-0.736,0.364-1.434,0.825-2.012c0.161-0.266,0.363-0.505,0.6-0.707c-0.3,0.045-0.595,0.118-0.881,0.217
					c-0.527,0.145-1.015,0.405-1.428,0.762c-0.38,0.392-0.646,0.88-0.769,1.412c-0.15,0.504-0.111,1.045,0.111,1.522
					c0.217,0.433,0.537,0.808,0.932,1.087c0.428,0.303,0.915,0.508,1.429,0.603c0.33,0.033,0.862,0.058,1.593,0.058
					c0.405-0.063,0.819-0.025,1.207,0.104c0.895,0.106,1.794,0.146,2.694,0.108c0.809,0.021,1.618-0.035,2.417-0.164
					c0.496-0.75,0.867-1.574,1.1-2.443l0.825-2.286v-0.332c0.006-0.187-0.032-0.373-0.11-0.543c-0.17-0.156-0.377-0.269-0.601-0.327
					L30.052,14.004z"/>
			</defs>
			<clipPath id="SVGID_2_">
				<use xlink:href="#SVGID_1_"  overflow="visible"/>
			</clipPath>
			
				<linearGradient id="SVGID_3_" gradientUnits="userSpaceOnUse" x1="-806.5786" y1="280.4893" x2="-761.0479" y2="280.4893" gradientTransform="matrix(0.998 -0.0625 0.0625 0.998 782.3708 -315.5861)">
				<stop  offset="0" style="stop-color:#FFFF13"/>
				<stop  offset="1" style="stop-color:#7411C3"/>
			</linearGradient>
			<path clip-path="url(#SVGID_2_)" fill="url(#SVGID_3_)" d="M2.78,13.083l11.341-6.042L-0.703,16.5l0.544,0.889
				c0,0,28.675-18.854,37.51-21.469c0,0-24.502,15.325-29.156,20.093c0,0,13.448-9.158,17.85-11.281L20.939,8.96l2.087-1.197
				l-4.633,3.985c0,0,8.712-6.801,18.08-9.804l3.51,3.688c0,0-7.874,0.139-18.657,13.961c0,0,4.009-6.148,5.891-8.398
				c0,0-7.489,5.16-15.068,12.245l5.673-6.328c0,0-5.923,4.566-9.842,9.928c0,0,5.677-9.594,20.549-19.411
				c0,0-8.153,2.359-24.858,15.204c0,0,14.581-8.874,15.318-9.347c0.67-0.467-18.496,13.171-20.502,16.78
				C-3.728,33.887-5,15.774-5,15.774L2.78,13.083z"/>
		</g>
	</g>
</g>
</svg>
