<?xml version="1.0" encoding="utf-8"?>
<!-- Generator: Adobe Illustrator 16.0.0, SVG Export Plug-In . SVG Version: 6.00 Build 0)  -->
<!DOCTYPE svg PUBLIC "-//W3C//DTD SVG 1.1//EN" "http://www.w3.org/Graphics/SVG/1.1/DTD/svg11.dtd">
<svg version="1.1" id="case1" xmlns="http://www.w3.org/2000/svg" xmlns:xlink="http://www.w3.org/1999/xlink" x="0px" y="0px"
	 width="90.333px" height="36px" viewBox="0 0 90.333 36" enable-background="new 0 0 90.333 36" xml:space="preserve">
<linearGradient id="shape_1_" gradientUnits="userSpaceOnUse" x1="-15.3555" y1="2437.2793" x2="70.6099" y2="2437.2793" gradientTransform="matrix(1 0 0 1 16.5996 -2418.541)">
	<stop  offset="0" style="stop-color:#5400D7"/>
	<stop  offset="1" style="stop-color:#9178E2"/>
</linearGradient>
<path id="shape" fill="url(#shape_1_)" d="M36.49,11.375c-0.724-0.118-1.213-0.799-1.095-1.521V8.421
	c-0.022-0.125-0.026-0.252-0.013-0.377c0.078-0.739,0.743-1.273,1.48-1.194h28.59c0.409-0.028,0.807,0.14,1.065,0.455
	c0.31,0.291,0.469,0.7,0.44,1.122V9.86c0.025,0.408-0.133,0.806-0.438,1.075c-0.267,0.312-0.658,0.478-1.065,0.45H36.862
	c-0.053,0.005-0.107,0.009-0.16,0.009C36.631,11.393,36.561,11.387,36.49,11.375 M35.662,3.035c-0.98,0.089-1.767,0.163-2.36,0.223
	c-0.437,0.049-0.868,0.14-1.289,0.27c-0.241,0.015-0.467,0.129-0.622,0.314c-0.102,0.041-0.182,0.122-0.222,0.225v0.136
	c-0.101,0.199-0.177,0.411-0.228,0.628c-0.058,0.358-0.133,0.702-0.22,1.033c-0.091,0.357-0.194,0.732-0.312,1.121
	C30.288,7.344,30.2,7.6,30.141,7.748c-0.522,0.137-1.063,0.198-1.602,0.18h-3.023c-1.187-0.03-2.505-0.076-3.958-0.134
	c-1.483-0.03-2.905-0.104-4.269-0.226h-0.17c-0.483,0.521-1.038,0.976-1.644,1.347c-0.354,0.243-0.747,0.425-1.161,0.54
	c-0.296-0.239-0.565-0.51-0.8-0.811c-0.317-0.379-0.599-0.783-0.844-1.21V7.211H4.266v0.226C4,7.825,3.704,8.261,3.377,8.739
	C3.258,8.994,3.108,9.235,2.933,9.456c-0.392,0.328-0.722,0.722-0.977,1.166c-0.475,0.629-0.712,1.93-0.712,3.905
	c0.019,1.309,0.123,2.614,0.311,3.909c0.349,1.884,0.824,3.742,1.422,5.563l0.178,0.092l0.135,0.132
	c0.919,0.119,1.853,0.073,2.756-0.135c0.851-0.089,1.698-0.224,2.536-0.404c0.771-0.231,1.464-0.44,2.09-0.627
	c0.433-0.141,0.839-0.352,1.2-0.627c0.031,0.114,0.059,0.252,0.09,0.401c0.086,0.121,0.191,0.228,0.311,0.319
	c0.076,0.144,0.165,0.271,0.268,0.404h0.131c0.359-0.188,0.754-0.298,1.157-0.313c0.535-0.122,0.846-0.194,0.934-0.226
	c0.267,0,0.399-0.281,0.399-0.854c0.013-0.109,0.044-0.216,0.09-0.315c0.021-0.072,0.037-0.146,0.045-0.223
	c0.558-0.219,1.142-0.369,1.734-0.451c0.921-0.179,1.958-0.357,3.113-0.539c0,0.176,0.015,0.981,0.044,2.418
	c0.029,1.438,0.104,3.008,0.223,4.713c0.059,1.979,0.178,4.204,0.354,6.688h0.123c0.258,0.021,0.519,0.026,0.778,0.026h0.024
	c0.715,0,1.429-0.068,2.133-0.207c0.86-0.271,1.586-0.522,2.178-0.769c0.46-0.212,0.907-0.448,1.337-0.717
	c0.138-0.153,0.304-0.272,0.491-0.361v-0.223c-0.06-0.72-0.119-1.515-0.179-2.384c-0.061-0.836-0.09-1.643-0.09-2.424
	c-0.029-0.81-0.072-1.539-0.131-2.193c-0.03-0.658-0.045-1.139-0.045-1.438v-0.09c0.494-0.087,0.957-0.303,1.337-0.63L28.811,23
	c0.54-1.973,1.999-3.563,3.916-4.266c0.719-0.3,1.489-0.467,2.268-0.495c0.442-0.029,0.883,0.048,1.29,0.226
	c0.362,0.126,0.633,0.436,0.713,0.809c-0.004,0.166-0.019,0.332-0.047,0.494c-0.06,0.184-0.104,0.328-0.132,0.448
	c-1.194,1.052-2.034,2.447-2.401,3.996c-0.301,1.558-0.509,3.132-0.623,4.714l0.178,0.135c0.113,0.36,0.394,0.646,0.754,0.767
	c0.511,0.257,1.048,0.452,1.603,0.588c0.517,0.174,1.055,0.276,1.601,0.313c0.474,0.119,0.801,0.207,0.978,0.27h0.489l-0.176-0.27
	V30.28c-0.035-0.572,0.121-1.145,0.443-1.615c0.136-0.229,0.301-0.438,0.491-0.628h0.269l-0.267-0.357
	c-0.03-0.089-0.045-0.18-0.045-0.271c-0.031-0.161-0.047-0.326-0.045-0.492c0.032-0.286,0.157-0.558,0.354-0.769
	c0.267-0.297,0.43-0.491,0.491-0.584l0.176-0.09v-0.939c-0.055-0.521,0.143-1.04,0.535-1.396c0.321-0.236,0.591-0.418,0.798-0.537
	c0.233,0.127,0.493,0.203,0.758,0.228c0.478,0.046,0.951,0.124,1.419,0.229c0.528,0.061,1.096,0.113,1.688,0.183
	c0.506-0.003,1.012,0.024,1.516,0.088c0.465,0.021,0.928-0.085,1.33-0.313c0.25-0.347,0.404-0.748,0.445-1.168
	c0.028-0.423,0.045-0.822,0.045-1.217V19.42c0.215-0.135,0.459-0.212,0.713-0.227H68.12c0.338-0.006,0.664-0.112,0.938-0.313
	c0.205-0.231,0.381-0.491,0.529-0.764c0.176-0.263,0.311-0.548,0.399-0.851c0.062-0.271,0.104-0.494,0.136-0.675v-0.04
	c-0.021-0.155,0.012-0.312,0.09-0.449c-0.012-0.077,0.004-0.156,0.045-0.223h0.176c0.104,0.136,0.246,0.244,0.4,0.314
	c0.088,0,0.342-0.016,0.756-0.046c0.258-0.018,0.508-0.112,0.713-0.267c0.176-0.144,0.396-0.222,0.621-0.225
	c0.233-0.047,0.455-0.122,0.67-0.224h7.248c0.035,0.034,0.084,0.051,0.133,0.045c0.035,0.063,0.105,0.098,0.18,0.09
	c0.354,0.192,0.76,0.271,1.154,0.225c0.563-0.001,1.172-0.015,1.824-0.045c0.684-0.029,1.287-0.059,1.822-0.089
	c0.504-0.065,0.787-0.095,0.846-0.095h0.133v-0.135c0.178-0.381,0.271-0.797,0.277-1.215v-0.096c0-0.071-0.004-0.144-0.01-0.215
	c-0.023-0.289-0.113-0.565-0.265-0.811v-0.181l-0.313-0.18c-0.117,0-0.457-0.015-1.021-0.046c-0.601-0.029-1.203-0.029-1.822,0
	c-0.623,0.031-1.188,0.046-1.692,0.046c-0.363-0.008-0.724,0.053-1.064,0.18l-0.354,0.094c-0.154,0.074-0.316,0.136-0.486,0.181
	c-0.15-0.003-0.309,0.028-0.443,0.092h-6.314v-0.087c-0.026-0.056-0.043-0.119-0.043-0.18c-0.026-0.024-0.045-0.059-0.047-0.096
	l-1.199-0.268c-0.149-0.004-0.297-0.019-0.444-0.046c-0.104-0.004-0.209-0.02-0.312-0.043H70.98
	c-0.002-0.257,0.028-0.513,0.088-0.763c0.019-0.158,0.063-0.313,0.14-0.45c0.11-0.637,0.188-1.283,0.223-1.929V7.794
	c0.109-1.144-0.188-2.289-0.844-3.232c-0.076-0.302-0.354-0.509-0.668-0.494H68.98c-0.58-0.088-1.16-0.134-1.739-0.136
	c-0.89,0-2.181-0.016-3.865-0.045c-1.726-0.029-4.004-0.088-6.851-0.178C50.887,3.234,45.23,2.997,39.573,2.997
	C38.264,2.997,36.962,3.009,35.662,3.035"/>
<linearGradient id="shape2_2_" gradientUnits="userSpaceOnUse" x1="66.0034" y1="837.7734" x2="65.6704" y2="823.4395" gradientTransform="matrix(1 0 0 1 -0.04 -806.8105)">
	<stop  offset="0" style="stop-color:#B4A7F8"/>
	<stop  offset="1" style="stop-color:#7439E3"/>
</linearGradient>
<path id="shape2_1_" fill="url(#shape2_2_)" d="M75.559,31.251c-0.313,0-0.625-0.05-0.922-0.147
	c-0.299,0.104-0.609,0.147-0.922,0.147h-8.193c-0.186,0-0.441-0.009-0.77-0.075c-0.217,0.051-0.439,0.075-0.664,0.075h-2.664
	c-0.816,0-1.605-0.342-2.166-0.937c-0.078-0.086-0.15-0.174-0.219-0.271l-0.91,0.646c-0.504,0.358-1.101,0.556-1.726,0.556H52.82
	c-0.717,0-1.401-0.269-1.934-0.722c-0.617,0.427-1.354,0.651-2.115,0.651c-0.75,0-1.479-0.222-2.104-0.642
	c-0.164-0.11-0.314-0.233-0.451-0.37c-1.021-1.021-1.363-2.423-0.92-3.753l0.043-0.128l0.08-0.203
	c-1.8-0.254-3.145-1.767-3.145-3.646V22.24c0-0.741,0.274-1.45,0.773-1.996l4.749-5.232c0.646-1.069,1.762-1.679,3.078-1.679h0.41
	c2.065,0,3.684,1.618,3.684,3.684c0,0,0,0.289-0.002,0.331c0.555-0.653,1.371-1.044,2.26-1.044h8.398
	c0.26,0,0.518,0.034,0.768,0.101c0.25-0.067,0.508-0.101,0.771-0.101h9.217c0.244,0,0.481,0.029,0.719,0.087
	c0.232-0.058,0.479-0.087,0.719-0.087h8.396c0.916,0,1.797,0.433,2.354,1.159c0.563,0.726,0.752,1.689,0.52,2.573l-0.405,1.532
	c-0.146,0.541-0.437,1.02-0.826,1.395c-0.019,0.188-0.047,0.372-0.099,0.555l-0.409,1.537c-0.072,0.282-0.188,0.551-0.347,0.799
	c0.168,0.532,0.188,1.109,0.039,1.656l-0.412,1.539c-0.352,1.296-1.521,2.202-2.866,2.202H75.559z M72.52,23.782l0.018-0.009h-0.799
	l-0.002,0.009H72.52z"/>
<path id="ACE" fill="#FFFFFF" d="M49.749,23.163h-3.791c-0.408,0-0.717-0.308-0.717-0.718c0-0.104,0-0.104,0-0.204l5.018-5.531
	c0.104-0.307,0.311-0.41,0.615-0.41h0.41c0.409,0,0.717,0.308,0.717,0.717c0,0.102,0,0.205,0,0.205l-2.457,3.584h4.401
	c0.615,0,0.31,1.127-0.104,1.639l-4.506,5.531c-0.312,0.308-0.717,0.308-1.021,0.104c-0.205-0.206-0.311-0.41-0.205-0.719
	L49.749,23.163L49.749,23.163L49.749,23.163z M57.225,19.271l0.408,0.41l-4.813,8.603h3.584l2.15-1.536h2.971l-0.104,1.536h2.664
	l1.535-9.013H57.225L57.225,19.271z M61.73,20.809l-0.104,3.482h-2.97l2.048-3.482H61.73L61.73,20.809z M65.521,28.284h8.188
	l0.612-2.15l-0.819,0.614h-5.729l1.74-5.941h6.447l0.41-1.535H67.15l-2.351,7.988c-0.1,0.104-0.1,0.309-0.1,0.409
	c0,0.103,0,0.205,0.104,0.31c0.102,0.104,0.205,0.203,0.307,0.203C65.314,28.284,65.418,28.284,65.521,28.284L65.521,28.284
	L65.521,28.284z M77.811,19.271l0.313,0.606l-2.563,8.396h8.191l0.41-1.533H79.04l0.717-2.458h4.711l0.41-1.537h-4.506l0.612-1.938
	h4.815l0.41-1.535H77.811L77.811,19.271z"/>
<g>
	<g>
		<g>
			<defs>
				<path id="SVGID_1_" d="M36.49,11.375c-0.724-0.118-1.213-0.799-1.095-1.521V8.421c-0.022-0.125-0.026-0.252-0.013-0.377
					c0.078-0.739,0.743-1.273,1.48-1.194h28.59c0.409-0.028,0.807,0.14,1.065,0.455c0.31,0.291,0.469,0.7,0.44,1.122V9.86
					c0.025,0.408-0.133,0.806-0.438,1.075c-0.267,0.312-0.658,0.478-1.065,0.45H36.862c-0.053,0.005-0.107,0.009-0.16,0.009
					C36.631,11.393,36.561,11.387,36.49,11.375 M35.662,3.035c-0.98,0.089-1.767,0.163-2.36,0.223
					c-0.437,0.049-0.868,0.14-1.289,0.27c-0.241,0.015-0.467,0.129-0.622,0.314c-0.102,0.041-0.182,0.122-0.222,0.225v0.136
					c-0.101,0.199-0.177,0.411-0.228,0.628c-0.058,0.358-0.133,0.702-0.22,1.033c-0.091,0.357-0.194,0.732-0.312,1.121
					C30.288,7.344,30.2,7.6,30.141,7.748c-0.522,0.137-1.063,0.198-1.602,0.18h-3.023c-1.187-0.03-2.505-0.076-3.958-0.134
					c-1.483-0.03-2.905-0.104-4.269-0.226h-0.17c-0.483,0.521-1.038,0.976-1.644,1.347c-0.354,0.243-0.747,0.425-1.161,0.54
					c-0.296-0.239-0.565-0.51-0.8-0.811c-0.317-0.379-0.599-0.783-0.844-1.21V7.211H4.266v0.226C4,7.825,3.704,8.261,3.377,8.739
					C3.258,8.994,3.108,9.235,2.933,9.456c-0.392,0.328-0.722,0.722-0.977,1.166c-0.475,0.629-0.712,1.93-0.712,3.905
					c0.019,1.309,0.123,2.614,0.311,3.909c0.349,1.884,0.824,3.742,1.422,5.563l0.178,0.092l0.135,0.132
					c0.919,0.119,1.853,0.073,2.756-0.135c0.851-0.089,1.698-0.224,2.536-0.404c0.771-0.231,1.464-0.44,2.09-0.627
					c0.433-0.141,0.839-0.352,1.2-0.627c0.031,0.114,0.059,0.252,0.09,0.401c0.086,0.121,0.191,0.228,0.311,0.319
					c0.076,0.144,0.165,0.271,0.268,0.404h0.131c0.359-0.188,0.754-0.298,1.157-0.313c0.535-0.122,0.846-0.194,0.934-0.226
					c0.267,0,0.399-0.281,0.399-0.854c0.013-0.109,0.044-0.216,0.09-0.315c0.021-0.072,0.037-0.146,0.045-0.223
					c0.558-0.219,1.142-0.369,1.734-0.451c0.921-0.179,1.958-0.357,3.113-0.539c0,0.176,0.015,0.981,0.044,2.418
					c0.029,1.438,0.104,3.008,0.223,4.713c0.059,1.979,0.178,4.204,0.354,6.688h0.123c0.258,0.021,0.519,0.026,0.778,0.026h0.024
					c0.715,0,1.429-0.068,2.133-0.207c0.86-0.271,1.586-0.522,2.178-0.769c0.46-0.212,0.907-0.448,1.337-0.717
					c0.138-0.153,0.304-0.272,0.491-0.361v-0.223c-0.06-0.72-0.119-1.515-0.179-2.384c-0.061-0.836-0.09-1.643-0.09-2.424
					c-0.029-0.81-0.072-1.539-0.131-2.193c-0.03-0.658-0.045-1.139-0.045-1.438v-0.09c0.494-0.087,0.957-0.303,1.337-0.63L28.811,23
					c0.54-1.973,1.999-3.563,3.916-4.266c0.719-0.3,1.489-0.467,2.268-0.495c0.442-0.029,0.883,0.048,1.29,0.226
					c0.362,0.126,0.633,0.436,0.713,0.809c-0.004,0.166-0.019,0.332-0.047,0.494c-0.06,0.184-0.104,0.328-0.132,0.448
					c-1.194,1.052-2.034,2.447-2.401,3.996c-0.301,1.558-0.509,3.132-0.623,4.714l0.178,0.135c0.113,0.36,0.394,0.646,0.754,0.767
					c0.511,0.257,1.048,0.452,1.603,0.588c0.517,0.174,1.055,0.276,1.601,0.313c0.474,0.119,0.801,0.207,0.978,0.27h0.489
					l-0.176-0.27V30.28c-0.035-0.572,0.121-1.145,0.443-1.615c0.136-0.229,0.301-0.438,0.491-0.628h0.269l-0.267-0.357
					c-0.03-0.089-0.045-0.18-0.045-0.271c-0.031-0.161-0.047-0.326-0.045-0.492c0.032-0.286,0.157-0.558,0.354-0.769
					c0.267-0.297,0.43-0.491,0.491-0.584l0.176-0.09v-0.939c-0.055-0.521,0.143-1.04,0.535-1.396
					c0.321-0.236,0.591-0.418,0.798-0.537c0.233,0.127,0.493,0.203,0.758,0.228c0.478,0.046,0.951,0.124,1.419,0.229
					c0.528,0.061,1.096,0.113,1.688,0.183c0.506-0.003,1.012,0.024,1.516,0.088c0.465,0.021,0.928-0.085,1.33-0.313
					c0.25-0.347,0.404-0.748,0.445-1.168c0.028-0.423,0.045-0.822,0.045-1.217V19.42c0.215-0.135,0.459-0.212,0.713-0.227H68.12
					c0.338-0.006,0.664-0.112,0.938-0.313c0.205-0.231,0.381-0.491,0.529-0.764c0.176-0.263,0.311-0.548,0.399-0.851
					c0.062-0.271,0.104-0.494,0.136-0.675v-0.04c-0.021-0.155,0.012-0.312,0.09-0.449c-0.012-0.077,0.004-0.156,0.045-0.223h0.176
					c0.104,0.136,0.246,0.244,0.4,0.314c0.088,0,0.342-0.016,0.756-0.046c0.258-0.018,0.508-0.112,0.713-0.267
					c0.176-0.144,0.396-0.222,0.621-0.225c0.233-0.047,0.455-0.122,0.67-0.224h7.248c0.035,0.034,0.084,0.051,0.133,0.045
					c0.035,0.063,0.105,0.098,0.18,0.09c0.354,0.192,0.76,0.271,1.154,0.225c0.563-0.001,1.172-0.015,1.824-0.045
					c0.684-0.029,1.287-0.059,1.822-0.089c0.504-0.065,0.787-0.095,0.846-0.095h0.133v-0.135c0.178-0.381,0.271-0.797,0.277-1.215
					v-0.096c0-0.071-0.004-0.144-0.01-0.215c-0.023-0.289-0.113-0.565-0.265-0.811v-0.181l-0.313-0.18
					c-0.117,0-0.457-0.015-1.021-0.046c-0.601-0.029-1.203-0.029-1.822,0c-0.623,0.031-1.188,0.046-1.692,0.046
					c-0.363-0.008-0.724,0.053-1.064,0.18l-0.354,0.094c-0.154,0.074-0.316,0.136-0.486,0.181c-0.15-0.003-0.309,0.028-0.443,0.092
					h-6.314v-0.087c-0.026-0.056-0.043-0.119-0.043-0.18c-0.026-0.024-0.045-0.059-0.047-0.096l-1.199-0.268
					c-0.149-0.004-0.297-0.019-0.444-0.046c-0.104-0.004-0.209-0.02-0.312-0.043H70.98c-0.002-0.257,0.028-0.513,0.088-0.763
					c0.019-0.158,0.063-0.313,0.14-0.45c0.11-0.637,0.188-1.283,0.223-1.929V7.794c0.109-1.144-0.188-2.289-0.844-3.232
					c-0.076-0.302-0.354-0.509-0.668-0.494H68.98c-0.58-0.088-1.16-0.134-1.739-0.136c-0.89,0-2.181-0.016-3.865-0.045
					c-1.726-0.029-4.004-0.088-6.851-0.178C50.887,3.234,45.23,2.997,39.573,2.997C38.264,2.997,36.962,3.009,35.662,3.035"/>
			</defs>
			<clipPath id="SVGID_2_">
				<use xlink:href="#SVGID_1_"  overflow="visible"/>
			</clipPath>
			
				<linearGradient id="SVGID_3_" gradientUnits="userSpaceOnUse" x1="-1565.1431" y1="511.2422" x2="-1519.6143" y2="511.2422" gradientTransform="matrix(0.998 -0.0625 0.0625 0.998 1531.2427 -595.7494)">
				<stop  offset="0" style="stop-color:#FFFF13"/>
				<stop  offset="1" style="stop-color:#7411C3"/>
			</linearGradient>
			<path clip-path="url(#SVGID_2_)" fill="url(#SVGID_3_)" d="M9.025,10.62l11.341-6.042L5.542,14.037l0.544,0.889
				c0,0,28.675-18.854,37.51-21.469c0,0-24.502,15.325-29.156,20.093c0,0,13.448-9.158,17.85-11.281l-5.105,4.229l2.086-1.197
				l-4.633,3.985c0,0,8.713-6.801,18.08-9.804l3.509,3.688c0,0-7.874,0.139-18.657,13.961c0,0,4.01-6.148,5.892-8.398
				c0,0-7.489,5.16-15.067,12.244l5.672-6.326c0,0-5.922,4.564-9.841,9.928c0,0,5.677-9.594,20.548-19.41
				c0,0-8.152,2.359-24.857,15.203c0,0,14.581-8.873,15.318-9.346c0.67-0.467-18.497,13.169-20.502,16.781
				c-2.215,3.62-3.487-14.493-3.487-14.493L9.025,10.62z"/>
		</g>
	</g>
</g>
</svg>
