<?xml version="1.0" encoding="utf-8"?>
<!-- Generator: Adobe Illustrator 16.0.0, SVG Export Plug-In . SVG Version: 6.00 Build 0)  -->
<!DOCTYPE svg PUBLIC "-//W3C//DTD SVG 1.1//EN" "http://www.w3.org/Graphics/SVG/1.1/DTD/svg11.dtd">
<svg version="1.1" id="case1" xmlns="http://www.w3.org/2000/svg" xmlns:xlink="http://www.w3.org/1999/xlink" x="0px" y="0px"
	 width="90.559px" height="36px" viewBox="0 0 90.559 36" enable-background="new 0 0 90.559 36" xml:space="preserve">
<linearGradient id="shape_1_" gradientUnits="userSpaceOnUse" x1="-7.2776" y1="-1617.6362" x2="77.7537" y2="-1617.6362" gradientTransform="matrix(1 0 0 -1 8.2598 -1601.5811)">
	<stop  offset="0" style="stop-color:#5400D7"/>
	<stop  offset="1" style="stop-color:#9178E2"/>
</linearGradient>
<path id="shape" fill="url(#shape_1_)" d="M32.475,20.443c-0.095-0.006-0.188-0.028-0.276-0.066c-0.128-0.1-0.269-0.18-0.417-0.24
	l-0.45-0.441c0.042-0.063,0.099-0.146,0.17-0.235c0.088-0.038,0.184-0.063,0.278-0.063c0.317-0.1,0.644-0.164,0.973-0.203
	c0.461-0.047,0.772-0.066,0.936-0.066h0.903c0.161-0.068,0.334-0.138,0.52-0.206c0.124-0.034,0.252-0.06,0.383-0.065
	c0.093,0,0.139,0.021,0.139,0.065v0.103c-0.067,0.293-0.162,0.576-0.278,0.854c-0.105,0.102-0.179,0.229-0.208,0.375
	c0,0.002,0,0.003,0,0.003c-0.021,0.134-0.146,0.226-0.276,0.2c-0.18,0.056-0.367,0.072-0.556,0.064h-1.108
	C32.961,20.512,32.717,20.486,32.475,20.443 M37.94,5.001c-0.23,0-0.463,0.051-0.677,0.154c-0.226,0.006-0.424,0.157-0.487,0.374
	l-0.138,0.169c-0.09,0.027-0.184,0.038-0.277,0.037c-0.143,0.052-0.295,0.076-0.447,0.066h-0.798c-0.532,0-1.099,0.012-1.699,0.034
	c-0.625,0.022-1.228,0.045-1.806,0.07c-0.359-0.016-0.72,0.006-1.075,0.068c-0.175-0.003-0.348-0.014-0.521-0.033
	c-0.257-0.032-0.514-0.078-0.766-0.138L28.383,5.7c-0.232,0-0.589-0.01-1.076-0.033c-0.486-0.022-1.039-0.033-1.665-0.033
	c-0.646-0.045-1.317-0.067-2.011-0.067c-0.718-0.023-1.39-0.035-2.014-0.035c-0.482-0.061-0.969-0.095-1.458-0.103h-2.497
	L17.457,5.53c0,0.07-0.014,0.14-0.035,0.206c-0.042,0.081-0.088,0.16-0.141,0.237c-0.05,0.13-0.084,0.268-0.104,0.408
	c-0.077,0.254-0.099,0.521-0.069,0.784c0.046,0.292,0.069,0.588,0.069,0.884c0.024,0.319,0.059,0.613,0.104,0.886
	c0.048,0.228,0.069,0.352,0.069,0.375v0.274l2.013,0.135c0.115-0.002,0.23-0.013,0.346-0.033c0.082,0.001,0.165-0.009,0.241-0.033
	c0.063-0.042,0.136-0.066,0.21-0.067c0.091,0,0.415,0.022,0.971,0.067c0.533,0.022,1.146,0.033,1.838,0.033h1.941
	c0.623,0.022,1.028,0.033,1.213,0.033c0.433-0.104,0.875-0.172,1.317-0.203c0.455-0.043,0.907-0.112,1.354-0.207v0.137l0.17,0.647
	l0.28,0.543c0.022,0.091,0.07,0.174,0.139,0.239l0.276,0.204v0.545h-0.312l0.208-0.137V11.35l-0.485-0.58l-0.556-0.136
	c-0.164-0.011-0.325-0.035-0.486-0.069c-0.108-0.056-0.214-0.125-0.312-0.203l-0.554,0.135l-0.74,0.41
	c-0.046,0.109-0.103,0.211-0.171,0.306c-0.077,0.05-0.137,0.123-0.171,0.207c-0.042,0.039-0.076,0.084-0.104,0.136
	c-0.506,0.053-1.015,0.075-1.523,0.068h-1.491c-0.304-0.017-0.604,0.054-0.867,0.204c-0.271,0.102-0.528,0.239-0.765,0.409
	c-0.208,0.137-0.602,0.376-1.181,0.716c-0.578,0.295-0.994,0.5-1.248,0.613c-0.11,0.104-0.264,0.154-0.416,0.135
	c-0.23,0.021-0.416,0.033-0.555,0.033c-0.125-0.05-0.225-0.148-0.277-0.271c-0.099-0.149-0.181-0.31-0.241-0.476
	c-0.146-0.123-0.264-0.274-0.348-0.444h-0.17c-0.279,0-0.96,0.012-2.045,0.033c-1.111,0-2.267,0.023-3.469,0.069
	c-1.224,0.023-2.345,0.045-3.365,0.068c-0.625-0.031-1.252,0.004-1.87,0.102c-0.266,0.044-0.491,0.225-0.589,0.477
	c-0.116,0.273-0.219,0.521-0.312,0.748c-0.232,0-0.533,0.012-0.903,0.035H3.094c-0.396,0.046-0.75,0.078-1.075,0.102
	c-0.19,0.008-0.381,0.055-0.554,0.136c-0.109-0.033-0.228-0.007-0.313,0.069c-0.047,0.076-0.104,0.144-0.17,0.205v0.887
	c0.032,0.188,0.088,0.371,0.17,0.544h0.104c0.023,0.365,0.07,0.729,0.138,1.09c0.047,0.568,0.07,1.146,0.07,1.737
	c0.001,0.183-0.011,0.363-0.035,0.544c-0.032,0.166-0.09,0.326-0.169,0.479v0.78C1.258,20.87,1.22,21.09,1.154,21.3
	c-0.099,0.155-0.155,0.329-0.171,0.513v0.508c-0.003,0.283,0.009,0.568,0.035,0.854c0.069,0.271,0.261,0.5,0.52,0.612
	c0.22,0.095,0.461,0.115,0.694,0.066c0.349-0.002,0.695-0.021,1.04-0.066s0.718-0.094,1.11-0.141
	c0.348-0.045,0.637-0.09,0.868-0.137c0.38-0.107,0.75-0.244,1.109-0.406c0.694-0.25,1.538-0.547,2.532-0.885
	c1.063-0.387,2.186-0.783,3.365-1.188c1.249-0.455,2.393-0.889,3.432-1.299c1.111-0.385,2.07-0.728,2.881-1.021
	c0.81-0.274,1.282-0.432,1.419-0.477c0.209-0.068,0.405-0.126,0.59-0.171c0.131,0.007,0.263-0.017,0.383-0.066
	c0.068-0.017,0.138-0.028,0.208-0.035h5.382c0.248,0.098,0.464,0.262,0.624,0.475c0.191,0.344,0.243,0.749,0.14,1.125
	c-0.09,0.336-0.269,0.645-0.521,0.889c-0.23,0.249-0.45,0.477-0.658,0.681l-0.139,0.17c-0.229,0.159-0.418,0.368-0.556,0.61
	c-0.162,0.271-0.323,0.557-0.484,0.852c-0.158,0.268-0.297,0.535-0.417,0.817l-0.243,0.478l-0.103,0.141l0.277,0.168
	c0.671,0.547,1.378,1.047,2.116,1.5c0.432,0.306,0.913,0.533,1.422,0.68c0.101-0.012,0.195-0.047,0.278-0.104
	c0.163-0.127,0.292-0.291,0.38-0.479c0.14-0.25,0.336-0.604,0.59-1.056c0.254-0.479,0.542-1.114,0.867-1.908
	c0.163-0.271,0.3-0.561,0.415-0.854c0.063-0.19,0.156-0.379,0.278-0.545l0.169-0.17c0.094,0.047,0.222,0.114,0.383,0.207
	c0.166,0.092,0.34,0.172,0.52,0.234l0.487,0.309c0.533,0.188,1.103,0.26,1.665,0.204c0.603-0.018,1.199-0.133,1.768-0.34
	c0.321-0.233,0.574-0.553,0.729-0.918c0.226-0.507,0.41-1.03,0.554-1.565v-0.172h0.729l-0.277,0.58h0.277l0.346-0.58h0.594
	c0.161,1.795,0.277,3.213,0.347,4.256c0.113,0.953,0.197,1.69,0.242,2.213c0.07,0.521,0.105,0.815,0.105,0.889
	c0.015,0.063,0.025,0.138,0.032,0.206l0.14,0.134c0.063,0.016,0.126,0.021,0.19,0.021h0.035c0.064,0,0.128-0.008,0.191-0.021
	c0.206-0.045,0.518-0.104,0.935-0.169c0.418-0.045,0.996-0.125,1.733-0.233c0.671-0.16,1.354-0.3,2.047-0.41
	c0.384-0.021,0.763-0.108,1.109-0.271c0.086-0.16,0.146-0.264,0.172-0.309c0-0.158-0.035-0.51-0.106-1.057
	c-0.048-0.613-0.114-1.326-0.209-2.146c-0.068-0.844-0.148-1.729-0.241-2.657c-0.092-0.953-0.16-1.814-0.209-2.586h4.587v0.271
	l0.17,0.135c0.053,0.051,0.108,0.098,0.17,0.136c0.182,0.114,0.408,0.114,0.59,0c0.15-0.01,0.303-0.033,0.451-0.068
	c0.344-0.051,0.691-0.084,1.04-0.101c0.369-0.045,0.774-0.078,1.214-0.102c0.438-0.045,0.82-0.093,1.146-0.136H66.19v0.138h-0.066
	c0,0.066,0.022,0.1,0.068,0.1v0.171c0.067,0.021,0.16,0.056,0.274,0.103c0.367,0.068,0.738,0.091,1.111,0.068h0.274V17.52h2.668
	l0.904,0.133c0.181,0.055,0.367,0.077,0.555,0.068c0.12,0.003,0.236-0.02,0.351-0.068l0.313-0.136V16.36h0.623l0.275-0.51v-0.136
	c0.004-0.097,0.058-0.187,0.14-0.238l0.139-0.17h0.692l0.348,0.17l0.658-0.17c0.038-0.02,0.063-0.058,0.066-0.101
	c0.084-0.04,0.151-0.099,0.209-0.17h4.854l0.313,0.136c0.273,0.022,0.66,0.056,1.146,0.102c0.46,0.022,0.922,0.033,1.388,0.033
	c0.483,0.001,0.91-0.009,1.281-0.033c0.37-0.045,0.641-0.079,0.801-0.102c0.26-0.085,0.432-0.324,0.438-0.586V14.54
	c-0.003-0.051-0.009-0.103-0.023-0.154c-0.046-0.43-0.093-0.805-0.139-1.124l-0.146-0.145h-9.852
	c-0.06-0.002-0.111-0.014-0.17-0.033l-0.103-0.098h-0.729l-0.067,0.102c-0.093,0.03-0.187,0.042-0.279,0.035h-0.102l0.104-0.137
	V12.71c-0.063-0.095-0.164-0.158-0.277-0.17v-0.92l-0.276-1.53l-0.275-0.784l-0.691-0.17c-0.147,0.014-0.296,0.075-0.416,0.17
	c-0.21,0.114-0.389,0.277-0.521,0.477l-0.106,0.1c-0.027,0.1-0.044,0.204-0.029,0.308c0.002,0.205,0.022,0.41,0.065,0.611
	c0.042,0.256,0.109,0.507,0.208,0.75h-7.04c-0.063-0.084-0.186-0.247-0.35-0.476c-0.043-0.109-0.112-0.204-0.207-0.273h-1.316
	c-0.063,0.054-0.133,0.1-0.208,0.136l-0.275,0.272c-0.188,0.012-0.375,0.047-0.558,0.108c-0.254,0.021-0.521,0.033-0.797,0.033
	c-0.198,0.01-0.396,0.032-0.591,0.07c-0.278,0-0.56,0.022-0.831,0.067c-0.278,0.046-0.544,0.08-0.801,0.102
	c-0.142-0.009-0.278,0.001-0.418,0.035H39.482c0.086-0.12,0.134-0.262,0.14-0.411c0.024-0.075,0.091-0.127,0.169-0.136
	c0.057-0.173,0.203-0.303,0.382-0.339c0.256-0.159,0.767-0.431,1.531-0.818h0.173c0.252-0.191,0.425-0.471,0.483-0.783h1.25
	c0.179-0.067,0.365-0.102,0.556-0.103c0.258,0.007,0.514,0.041,0.766,0.103c0.453,0.115,0.92,0.171,1.387,0.17
	c0.646,0.068,1.293,0.102,1.939,0.101h1.841c0.327,0.032,0.657-0.002,0.972-0.101c0.284-0.253,0.489-0.585,0.589-0.954
	c0.188-0.486,0.236-1.017,0.141-1.53c0.021-0.35-0.08-0.697-0.275-0.988c-0.147-0.17-0.362-0.277-0.59-0.305h-0.143
	c-0.41-0.087-0.828-0.123-1.248-0.103c-0.603,0-1.262,0.01-1.979,0.032c-0.671,0.046-1.317,0.104-1.94,0.17
	c-0.513,0.028-1.021,0.084-1.522,0.17c-0.684,0.146-1.388,0.18-2.084,0.104c-0.787-0.07-1.398-0.104-1.838-0.104L39.898,5.7
	c-0.157,0.012-0.311-0.051-0.415-0.17c-0.062-0.127-0.158-0.233-0.277-0.306c-0.145-0.055-0.299-0.078-0.451-0.068h-0.139
	C38.402,5.053,38.172,5.001,37.94,5.001z"/>
<linearGradient id="shape2_2_" gradientUnits="userSpaceOnUse" x1="65.7507" y1="837.3105" x2="65.7507" y2="823.3101" gradientTransform="matrix(1 0 0 1 -0.04 -806.8105)">
	<stop  offset="0" style="stop-color:#B4A7F8"/>
	<stop  offset="1" style="stop-color:#7439E3"/>
</linearGradient>
<path id="shape2_1_" fill="url(#shape2_2_)" d="M75.542,31.251c-0.313,0-0.625-0.05-0.922-0.147
	c-0.299,0.104-0.609,0.147-0.923,0.147h-8.192c-0.186,0-0.443-0.009-0.771-0.075c-0.217,0.051-0.438,0.075-0.664,0.075h-2.664
	c-0.815,0-1.604-0.342-2.166-0.937c-0.077-0.086-0.149-0.174-0.219-0.271l-0.91,0.646c-0.503,0.359-1.1,0.556-1.725,0.556h-3.584
	c-0.717,0-1.402-0.269-1.934-0.722c-0.617,0.427-1.354,0.652-2.115,0.652c-0.75,0-1.479-0.222-2.104-0.642
	c-0.164-0.11-0.314-0.233-0.452-0.37c-1.021-1.021-1.362-2.423-0.92-3.753l0.044-0.128l0.08-0.203
	c-1.801-0.254-3.145-1.766-3.145-3.646V22.24c0-0.741,0.273-1.45,0.772-1.996l4.748-5.232c0.646-1.069,1.763-1.679,3.079-1.679h0.41
	c2.065,0,3.684,1.618,3.684,3.684c0,0-0.001,0.289-0.003,0.331c0.556-0.653,1.372-1.044,2.261-1.044h8.397
	c0.261,0,0.519,0.034,0.769,0.101c0.25-0.067,0.508-0.101,0.771-0.101h9.218c0.243,0,0.481,0.029,0.719,0.087
	c0.231-0.058,0.478-0.087,0.719-0.087h8.396c0.917,0,1.798,0.433,2.354,1.159c0.563,0.726,0.752,1.689,0.518,2.573l-0.405,1.532
	c-0.146,0.541-0.436,1.02-0.826,1.395c-0.019,0.188-0.047,0.372-0.099,0.555l-0.409,1.537c-0.072,0.282-0.189,0.551-0.347,0.799
	c0.168,0.532,0.188,1.109,0.04,1.656l-0.413,1.539c-0.35,1.296-1.521,2.202-2.865,2.202H75.542z M72.503,23.782l0.017-0.009h-0.798
	l-0.002,0.009H72.503z"/>
<path id="ACE" fill="#FFFFFF" d="M49.73,23.163h-3.79c-0.409,0-0.717-0.308-0.717-0.718c0-0.104,0-0.104,0-0.204l5.018-5.531
	c0.104-0.307,0.311-0.41,0.615-0.41h0.41c0.409,0,0.717,0.308,0.717,0.717c0,0.102,0,0.205,0,0.205l-2.458,3.584h4.402
	c0.615,0,0.31,1.127-0.104,1.639l-4.507,5.531c-0.311,0.308-0.717,0.308-1.021,0.104c-0.205-0.206-0.312-0.41-0.205-0.719
	L49.73,23.163L49.73,23.163L49.73,23.163z M57.208,19.271l0.408,0.41l-4.813,8.603h3.584l2.15-1.536h2.971l-0.104,1.536h2.663
	l1.536-9.013H57.208L57.208,19.271z M61.713,20.809l-0.104,3.482h-2.97l2.048-3.482H61.713L61.713,20.809z M65.504,28.284h8.188
	l0.613-2.15l-0.819,0.614h-5.729l1.74-5.941h6.447l0.409-1.535h-9.221l-2.351,7.988c-0.1,0.104-0.1,0.309-0.1,0.409
	c0,0.103,0,0.205,0.104,0.31c0.102,0.104,0.204,0.203,0.307,0.203C65.297,28.284,65.401,28.284,65.504,28.284L65.504,28.284
	L65.504,28.284z M77.794,19.271l0.313,0.607l-2.563,8.396h8.191l0.41-1.534h-5.123l0.717-2.458h4.711l0.41-1.537h-4.506l0.612-1.939
	h4.815l0.409-1.535H77.794L77.794,19.271z"/>
<g>
	<g>
		<g>
			<defs>
				<path id="SVGID_1_" d="M32.475,20.443c-0.095-0.006-0.188-0.028-0.276-0.066c-0.128-0.1-0.269-0.18-0.417-0.24l-0.45-0.441
					c0.042-0.063,0.099-0.146,0.17-0.235c0.088-0.038,0.184-0.063,0.278-0.063c0.317-0.1,0.644-0.164,0.973-0.203
					c0.461-0.047,0.772-0.066,0.936-0.066h0.903c0.161-0.068,0.334-0.138,0.52-0.206c0.124-0.034,0.252-0.06,0.383-0.065
					c0.093,0,0.139,0.021,0.139,0.065v0.103c-0.067,0.293-0.162,0.576-0.278,0.854c-0.105,0.102-0.179,0.229-0.208,0.375
					c0,0.002,0,0.003,0,0.003c-0.021,0.134-0.146,0.226-0.276,0.2c-0.18,0.056-0.367,0.072-0.556,0.064h-1.108
					C32.961,20.512,32.717,20.486,32.475,20.443 M37.94,5.001c-0.23,0-0.463,0.051-0.677,0.154
					c-0.226,0.006-0.424,0.157-0.487,0.374l-0.138,0.169c-0.09,0.027-0.184,0.038-0.277,0.037c-0.143,0.052-0.295,0.076-0.447,0.066
					h-0.798c-0.532,0-1.099,0.012-1.699,0.034c-0.625,0.022-1.228,0.045-1.806,0.07c-0.359-0.016-0.72,0.006-1.075,0.068
					c-0.175-0.003-0.348-0.014-0.521-0.033c-0.257-0.032-0.514-0.078-0.766-0.138L28.383,5.7c-0.232,0-0.589-0.01-1.076-0.033
					c-0.486-0.022-1.039-0.033-1.665-0.033c-0.646-0.045-1.317-0.067-2.011-0.067c-0.718-0.023-1.39-0.035-2.014-0.035
					c-0.482-0.061-0.969-0.095-1.458-0.103h-2.497L17.457,5.53c0,0.07-0.014,0.14-0.035,0.206c-0.042,0.081-0.088,0.16-0.141,0.237
					c-0.05,0.13-0.084,0.268-0.104,0.408c-0.077,0.254-0.099,0.521-0.069,0.784c0.046,0.292,0.069,0.588,0.069,0.884
					c0.024,0.319,0.059,0.613,0.104,0.886c0.048,0.228,0.069,0.352,0.069,0.375v0.274l2.013,0.135
					c0.115-0.002,0.23-0.013,0.346-0.033c0.082,0.001,0.165-0.009,0.241-0.033c0.063-0.042,0.136-0.066,0.21-0.067
					c0.091,0,0.415,0.022,0.971,0.067c0.533,0.022,1.146,0.033,1.838,0.033h1.941c0.623,0.022,1.028,0.033,1.213,0.033
					c0.433-0.104,0.875-0.172,1.317-0.203c0.455-0.043,0.907-0.112,1.354-0.207v0.137l0.17,0.647l0.28,0.543
					c0.022,0.091,0.07,0.174,0.139,0.239l0.276,0.204v0.545h-0.312l0.208-0.137V11.35l-0.485-0.58l-0.556-0.136
					c-0.164-0.011-0.325-0.035-0.486-0.069c-0.108-0.056-0.214-0.125-0.312-0.203l-0.554,0.135l-0.74,0.41
					c-0.046,0.109-0.103,0.211-0.171,0.306c-0.077,0.05-0.137,0.123-0.171,0.207c-0.042,0.039-0.076,0.084-0.104,0.136
					c-0.506,0.053-1.015,0.075-1.523,0.068h-1.491c-0.304-0.017-0.604,0.054-0.867,0.204c-0.271,0.102-0.528,0.239-0.765,0.409
					c-0.208,0.137-0.602,0.376-1.181,0.716c-0.578,0.295-0.994,0.5-1.248,0.613c-0.11,0.104-0.264,0.154-0.416,0.135
					c-0.23,0.021-0.416,0.033-0.555,0.033c-0.125-0.05-0.225-0.148-0.277-0.271c-0.099-0.149-0.181-0.31-0.241-0.476
					c-0.146-0.123-0.264-0.274-0.348-0.444h-0.17c-0.279,0-0.96,0.012-2.045,0.033c-1.111,0-2.267,0.023-3.469,0.069
					c-1.224,0.023-2.345,0.045-3.365,0.068c-0.625-0.031-1.252,0.004-1.87,0.102c-0.266,0.044-0.491,0.225-0.589,0.477
					c-0.116,0.273-0.219,0.521-0.312,0.748c-0.232,0-0.533,0.012-0.903,0.035H3.094c-0.396,0.046-0.75,0.078-1.075,0.102
					c-0.19,0.008-0.381,0.055-0.554,0.136c-0.109-0.033-0.228-0.007-0.313,0.069c-0.047,0.076-0.104,0.144-0.17,0.205v0.887
					c0.032,0.188,0.088,0.371,0.17,0.544h0.104c0.023,0.365,0.07,0.729,0.138,1.09c0.047,0.568,0.07,1.146,0.07,1.737
					c0.001,0.183-0.011,0.363-0.035,0.544c-0.032,0.166-0.09,0.326-0.169,0.479v0.78C1.258,20.87,1.22,21.09,1.154,21.3
					c-0.099,0.155-0.155,0.329-0.171,0.513v0.508c-0.003,0.283,0.009,0.568,0.035,0.854c0.069,0.271,0.261,0.5,0.52,0.612
					c0.22,0.095,0.461,0.115,0.694,0.066c0.349-0.002,0.695-0.021,1.04-0.066s0.718-0.094,1.11-0.141
					c0.348-0.045,0.637-0.09,0.868-0.137c0.38-0.107,0.75-0.244,1.109-0.406c0.694-0.25,1.538-0.547,2.532-0.885
					c1.063-0.387,2.186-0.783,3.365-1.188c1.249-0.455,2.393-0.889,3.432-1.299c1.111-0.385,2.07-0.728,2.881-1.021
					c0.81-0.274,1.282-0.432,1.419-0.477c0.209-0.068,0.405-0.126,0.59-0.171c0.131,0.007,0.263-0.017,0.383-0.066
					c0.068-0.017,0.138-0.028,0.208-0.035h5.382c0.248,0.098,0.464,0.262,0.624,0.475c0.191,0.344,0.243,0.749,0.14,1.125
					c-0.09,0.336-0.269,0.645-0.521,0.889c-0.23,0.249-0.45,0.477-0.658,0.681l-0.139,0.17c-0.229,0.159-0.418,0.368-0.556,0.61
					c-0.162,0.271-0.323,0.557-0.484,0.852c-0.158,0.268-0.297,0.535-0.417,0.817l-0.243,0.478l-0.103,0.141l0.277,0.168
					c0.671,0.547,1.378,1.047,2.116,1.5c0.432,0.306,0.913,0.533,1.422,0.68c0.101-0.012,0.195-0.047,0.278-0.104
					c0.163-0.127,0.292-0.291,0.38-0.479c0.14-0.25,0.336-0.604,0.59-1.056c0.254-0.479,0.542-1.114,0.867-1.908
					c0.163-0.271,0.3-0.561,0.415-0.854c0.063-0.19,0.156-0.379,0.278-0.545l0.169-0.17c0.094,0.047,0.222,0.114,0.383,0.207
					c0.166,0.092,0.34,0.172,0.52,0.234l0.487,0.309c0.533,0.188,1.103,0.26,1.665,0.204c0.603-0.018,1.199-0.133,1.768-0.34
					c0.321-0.233,0.574-0.553,0.729-0.918c0.226-0.507,0.41-1.03,0.554-1.565v-0.172h0.729l-0.277,0.58h0.277l0.346-0.58h0.594
					c0.161,1.795,0.277,3.213,0.347,4.256c0.113,0.953,0.197,1.69,0.242,2.213c0.07,0.521,0.105,0.815,0.105,0.889
					c0.015,0.063,0.025,0.138,0.032,0.206l0.14,0.134c0.063,0.016,0.126,0.021,0.19,0.021h0.035c0.064,0,0.128-0.008,0.191-0.021
					c0.206-0.045,0.518-0.104,0.935-0.169c0.418-0.045,0.996-0.125,1.733-0.233c0.671-0.16,1.354-0.3,2.047-0.41
					c0.384-0.021,0.763-0.108,1.109-0.271c0.086-0.16,0.146-0.264,0.172-0.309c0-0.158-0.035-0.51-0.106-1.057
					c-0.048-0.613-0.114-1.326-0.209-2.146c-0.068-0.844-0.148-1.729-0.241-2.657c-0.092-0.953-0.16-1.814-0.209-2.586h4.587v0.271
					l0.17,0.135c0.053,0.051,0.108,0.098,0.17,0.136c0.182,0.114,0.408,0.114,0.59,0c0.15-0.01,0.303-0.033,0.451-0.068
					c0.344-0.051,0.691-0.084,1.04-0.101c0.369-0.045,0.774-0.078,1.214-0.102c0.438-0.045,0.82-0.093,1.146-0.136H66.19v0.138
					h-0.066c0,0.066,0.022,0.1,0.068,0.1v0.171c0.067,0.021,0.16,0.056,0.274,0.103c0.367,0.068,0.738,0.091,1.111,0.068h0.274
					V17.52h2.668l0.904,0.133c0.181,0.055,0.367,0.077,0.555,0.068c0.12,0.003,0.236-0.02,0.351-0.068l0.313-0.136V16.36h0.623
					l0.275-0.51v-0.136c0.004-0.097,0.058-0.187,0.14-0.238l0.139-0.17h0.692l0.348,0.17l0.658-0.17
					c0.038-0.02,0.063-0.058,0.066-0.101c0.084-0.04,0.151-0.099,0.209-0.17h4.854l0.313,0.136c0.273,0.022,0.66,0.056,1.146,0.102
					c0.46,0.022,0.922,0.033,1.388,0.033c0.483,0.001,0.91-0.009,1.281-0.033c0.37-0.045,0.641-0.079,0.801-0.102
					c0.26-0.085,0.432-0.324,0.438-0.586V14.54c-0.003-0.051-0.009-0.103-0.023-0.154c-0.046-0.43-0.093-0.805-0.139-1.124
					l-0.146-0.145h-9.852c-0.06-0.002-0.111-0.014-0.17-0.033l-0.103-0.098h-0.729l-0.067,0.102
					c-0.093,0.03-0.187,0.042-0.279,0.035h-0.102l0.104-0.137V12.71c-0.063-0.095-0.164-0.158-0.277-0.17v-0.92l-0.276-1.53
					l-0.275-0.784l-0.691-0.17c-0.147,0.014-0.296,0.075-0.416,0.17c-0.21,0.114-0.389,0.277-0.521,0.477l-0.106,0.1
					c-0.027,0.1-0.044,0.204-0.029,0.308c0.002,0.205,0.022,0.41,0.065,0.611c0.042,0.256,0.109,0.507,0.208,0.75h-7.04
					c-0.063-0.084-0.186-0.247-0.35-0.476c-0.043-0.109-0.112-0.204-0.207-0.273h-1.316c-0.063,0.054-0.133,0.1-0.208,0.136
					l-0.275,0.272c-0.188,0.012-0.375,0.047-0.558,0.108c-0.254,0.021-0.521,0.033-0.797,0.033c-0.198,0.01-0.396,0.032-0.591,0.07
					c-0.278,0-0.56,0.022-0.831,0.067c-0.278,0.046-0.544,0.08-0.801,0.102c-0.142-0.009-0.278,0.001-0.418,0.035H39.482
					c0.086-0.12,0.134-0.262,0.14-0.411c0.024-0.075,0.091-0.127,0.169-0.136c0.057-0.173,0.203-0.303,0.382-0.339
					c0.256-0.159,0.767-0.431,1.531-0.818h0.173c0.252-0.191,0.425-0.471,0.483-0.783h1.25c0.179-0.067,0.365-0.102,0.556-0.103
					c0.258,0.007,0.514,0.041,0.766,0.103c0.453,0.115,0.92,0.171,1.387,0.17c0.646,0.068,1.293,0.102,1.939,0.101h1.841
					c0.327,0.032,0.657-0.002,0.972-0.101c0.284-0.253,0.489-0.585,0.589-0.954c0.188-0.486,0.236-1.017,0.141-1.53
					c0.021-0.35-0.08-0.697-0.275-0.988c-0.147-0.17-0.362-0.277-0.59-0.305h-0.143c-0.41-0.087-0.828-0.123-1.248-0.103
					c-0.603,0-1.262,0.01-1.979,0.032c-0.671,0.046-1.317,0.104-1.94,0.17c-0.513,0.028-1.021,0.084-1.522,0.17
					c-0.684,0.146-1.388,0.18-2.084,0.104c-0.787-0.07-1.398-0.104-1.838-0.104L39.898,5.7c-0.157,0.012-0.311-0.051-0.415-0.17
					c-0.062-0.127-0.158-0.233-0.277-0.306c-0.145-0.055-0.299-0.078-0.451-0.068h-0.139C38.402,5.053,38.172,5.001,37.94,5.001z"/>
			</defs>
			<clipPath id="SVGID_2_">
				<use xlink:href="#SVGID_1_"  overflow="visible"/>
			</clipPath>
			
				<linearGradient id="SVGID_3_" gradientUnits="userSpaceOnUse" x1="-1567.385" y1="511.0938" x2="-1521.8547" y2="511.0938" gradientTransform="matrix(0.998 -0.0625 0.0625 0.998 1531.2429 -595.7424)">
				<stop  offset="0" style="stop-color:#FFFF13"/>
				<stop  offset="1" style="stop-color:#7411C3"/>
			</linearGradient>
			<path clip-path="url(#SVGID_2_)" fill="url(#SVGID_3_)" d="M6.78,10.621l11.342-6.042L3.298,14.038l0.544,0.889
				c0,0,28.675-18.854,37.51-21.469c0,0-24.502,15.325-29.156,20.093c0,0,13.448-9.158,17.851-11.281l-5.106,4.229l2.087-1.197
				l-4.633,3.985c0,0,8.712-6.801,18.08-9.804l3.509,3.687c0,0-7.874,0.139-18.657,13.961c0,0,4.01-6.148,5.892-8.398
				c0,0-7.489,5.16-15.068,12.244l5.673-6.327c0,0-5.923,4.566-9.842,9.927c0,0,5.677-9.593,20.549-19.41
				c0,0-8.152,2.359-24.857,15.205c0,0,14.581-8.875,15.317-9.348c0.67-0.467-18.496,13.169-20.502,16.779
				C0.271,31.424-1,13.312-1,13.312L6.78,10.621z"/>
		</g>
	</g>
</g>
</svg>
