<?xml version="1.0" encoding="utf-8"?>
<!-- Generator: Adobe Illustrator 16.0.0, SVG Export Plug-In . SVG Version: 6.00 Build 0)  -->
<!DOCTYPE svg PUBLIC "-//W3C//DTD SVG 1.1//EN" "http://www.w3.org/Graphics/SVG/1.1/DTD/svg11.dtd">
<svg version="1.1" id="case1" xmlns="http://www.w3.org/2000/svg" xmlns:xlink="http://www.w3.org/1999/xlink" x="0px" y="0px"
	 width="56.25px" height="36px" viewBox="0 0 56.25 36" enable-background="new 0 0 56.25 36" xml:space="preserve">
<linearGradient id="mp7_1_" gradientUnits="userSpaceOnUse" x1="376.377" y1="1102.5215" x2="429.377" y2="1102.5215" gradientTransform="matrix(1 0 0 1 -374.9805 -1084.5049)">
	<stop  offset="0" style="stop-color:#5400D7"/>
	<stop  offset="1" style="stop-color:#9178E2"/>
</linearGradient>
<path id="mp7" fill="url(#mp7_1_)" d="M31.618,11.536v-0.092h-3.721v0.277c0.028,0.022,0.045,0.055,0.048,0.091v0.048l0.052,0.046
	v0.045c0.061,0.032,0.124,0.062,0.186,0.092c0.031,0.031,0.062,0.063,0.1,0.094c0.027,0.022,0.044,0.054,0.047,0.089v0.046
	c0.023,0.028,0.057,0.045,0.093,0.048c0.003,0.036,0.021,0.069,0.048,0.091c0.001,0.036,0.018,0.069,0.046,0.092
	c-0.004,0.022,0.011,0.043,0.034,0.047c0.005,0,0.009,0,0.014,0c0.032,0.062,0.063,0.123,0.093,0.185v0.091l0.039,0.047v0.047
	l0.094,0.091c0.003,0.036,0.021,0.069,0.048,0.093l0.092,0.095v0.047h0.046v0.048c0.032,0.029,0.064,0.06,0.094,0.091v0.091
	l0.047,0.048v0.045c0.036,0.002,0.069,0.02,0.093,0.047c0.003,0.036,0.02,0.069,0.047,0.093h1.273
	c0.024,0.003,0.046-0.014,0.048-0.038c0-0.003,0-0.006,0-0.009c0.035-0.002,0.068-0.019,0.09-0.046v-0.04h0.096V13.48l0.095-0.091
	c0.052,0.002,0.101-0.014,0.14-0.047c0.002-0.036,0.02-0.069,0.047-0.092v-0.139c0.004-0.036,0.021-0.069,0.047-0.093V12.88
	c0.023,0.003,0.045-0.012,0.049-0.035c0-0.003,0-0.007,0-0.011c0.026-0.023,0.043-0.056,0.046-0.091
	c0.03-0.031,0.062-0.063,0.095-0.093c0.002-0.036,0.019-0.069,0.047-0.092V12.51c0.027-0.023,0.045-0.056,0.047-0.092
	s0.02-0.069,0.047-0.091c0.037-0.003,0.07-0.021,0.095-0.048c0.024-0.027,0.059-0.043,0.095-0.046v-0.415
	c0.004-0.035,0.02-0.068,0.047-0.091c-0.003-0.036-0.02-0.068-0.047-0.092C31.618,11.603,31.62,11.569,31.618,11.536z M49.125,7.368
	c0.027,0.023,0.045,0.056,0.049,0.092c-0.004,0.022,0.014,0.043,0.031,0.047c0.006,0.001,0.01,0.001,0.02,0h0.656v0.047h4.283
	l0.232,0.233v2.5l-0.279,0.278h-3.955v0.094c-0.205,0-0.41,0.015-0.613,0.045l-0.047,0.047c-0.027,0.029-0.076,0.076-0.141,0.138
	c-0.037,0.001-0.072,0.018-0.1,0.045c0.027,0.024,0.045,0.058,0.049,0.094c0.027,0.024,0.045,0.057,0.047,0.093
	s0.02,0.068,0.047,0.091v0.418c-0.027,0.023-0.045,0.057-0.047,0.092c-0.029,0.031-0.064,0.061-0.1,0.091v0.371l-0.047,0.045
	c-0.029,0.025-0.047,0.062-0.047,0.1c-0.119,0.059-0.26,0.059-0.375,0c-0.031-0.025-0.051-0.062-0.053-0.1
	c-0.033-0.001-0.066-0.017-0.094-0.045l-0.045-0.045c-0.002-0.037-0.021-0.071-0.051-0.094c-0.029-0.061-0.063-0.122-0.094-0.183
	l-0.047-0.048c-0.029-0.03-0.063-0.06-0.094-0.091l-0.096-0.092c-0.025-0.023-0.045-0.057-0.047-0.093h-0.072
	c-0.033-0.031-0.063-0.062-0.096-0.092c-0.031-0.03-0.063-0.061-0.092-0.094c-0.008-0.036-0.021-0.068-0.051-0.092
	c0-0.03-0.027-0.046-0.094-0.046c-0.029-0.022-0.045-0.055-0.051-0.091l-0.09-0.093c-0.029-0.03-0.063-0.061-0.096-0.094l-0.1-0.091
	c-0.004-0.036-0.021-0.069-0.047-0.092h-0.047c-0.063-0.001-0.129-0.017-0.188-0.047l-0.047-0.045h-0.141
	c-0.021,0.05-0.057,0.097-0.094,0.137c-0.025,0.042-0.041,0.089-0.047,0.137c-0.031,0.034-0.078,0.078-0.143,0.14
	c-0.059,0.055-0.119,0.102-0.188,0.138c-0.079,0.042-0.157,0.088-0.233,0.138c-0.053-0.004-0.104,0.013-0.144,0.048h-0.036v0.046
	c-0.004,0.036-0.021,0.069-0.048,0.092h-0.142c-0.051,0.024-0.1,0.055-0.141,0.093c-0.002,0.036-0.021,0.069-0.051,0.092v0.091
	c0.008,0.023-0.012,0.044-0.031,0.048c-0.004,0-0.011,0-0.015,0v0.091c-0.032,0.002-0.067,0.019-0.095,0.047v11.935
	c-0.004,0.037-0.021,0.07-0.049,0.094l-0.049,0.051v0.092c-0.039,0-0.07,0.02-0.101,0.045l-0.046,0.049h-0.37
	c-0.024-0.025-0.058-0.047-0.095-0.049c-0.158,0-0.314-0.02-0.471-0.045c-0.064-0.002-0.129-0.021-0.188-0.045
	c-0.044-0.018-0.079-0.052-0.093-0.098H44c-0.021,0.008-0.045-0.012-0.049-0.029c0-0.004,0-0.014,0-0.018
	c-0.064,0-0.131-0.016-0.188-0.045c-0.021,0.004-0.044-0.012-0.048-0.033c0-0.004,0-0.008,0-0.012
	c-0.065-0.002-0.131-0.018-0.188-0.047h-0.13v-0.045c-0.064,0-0.129-0.016-0.188-0.045c-0.064,0-0.127-0.016-0.188-0.045
	l-0.048-0.045h-0.284c-0.021-0.029-0.06-0.047-0.095-0.049c-0.036-0.002-0.07-0.018-0.098-0.047
	c-0.052,0.004-0.103-0.012-0.143-0.045c-0.053-0.023-0.1-0.059-0.143-0.092c-0.063-0.031-0.125-0.063-0.188-0.096h-0.047
	c-0.053-0.021-0.102-0.056-0.143-0.092c-0.051-0.021-0.099-0.061-0.14-0.098c-0.004-0.031-0.021-0.066-0.05-0.092
	c-0.021-0.024-0.061-0.045-0.096-0.047c-0.027-0.021-0.045-0.057-0.047-0.092c-0.031-0.029-0.063-0.061-0.094-0.092
	c-0.031-0.023-0.051-0.061-0.051-0.1c-0.033-0.002-0.068-0.021-0.095-0.045c-0.036-0.003-0.068-0.021-0.095-0.046
	c-0.002-0.036-0.021-0.069-0.047-0.097c-0.004-0.034-0.021-0.064-0.047-0.096c-0.002-0.033-0.021-0.063-0.048-0.09
	c0.002-0.021-0.015-0.045-0.034-0.047c-0.004,0-0.009,0-0.013,0v-0.096c-0.005-0.035-0.021-0.068-0.051-0.092V22.08
	c-0.029-0.033-0.062-0.063-0.093-0.092l-0.039-0.047v-0.094c-0.026-0.021-0.045-0.059-0.045-0.096
	c-0.004-0.032-0.021-0.064-0.049-0.094V19.22c0.025-0.022,0.045-0.06,0.049-0.095c0.022-0.021,0.043-0.059,0.045-0.094v-0.787
	c0.031-0.062,0.063-0.124,0.095-0.186c0.026-0.023,0.044-0.056,0.046-0.092v-6.48c-0.042-0.025-0.09-0.041-0.139-0.047h-7.3
	c0.003,0.023-0.014,0.044-0.037,0.047c-0.003,0-0.007,0-0.01,0l0.047,0.045c0.027,0.023,0.045,0.057,0.047,0.093v0.738
	c-0.031,0.032-0.063,0.063-0.094,0.1v0.322c-0.063,0.033-0.127,0.062-0.188,0.093c-0.036,0.001-0.071,0.019-0.095,0.047
	c-0.023,0.027-0.059,0.044-0.094,0.046c-0.028,0.023-0.046,0.056-0.049,0.092c-0.029,0.032-0.062,0.062-0.092,0.092
	c-0.053,0.022-0.1,0.054-0.142,0.092v0.04c-0.027,0.023-0.044,0.056-0.048,0.091v0.184l-0.094,0.093v0.554
	c-0.021-0.004-0.043,0.01-0.047,0.033c-0.002,0.004-0.002,0.009-0.001,0.014c-0.03,0.03-0.062,0.059-0.094,0.093v0.09
	c-0.003,0.036-0.02,0.07-0.047,0.094c0.003,0.022-0.014,0.043-0.036,0.045c-0.004,0-0.008,0-0.012,0v0.185
	c0.003,0.022-0.014,0.043-0.035,0.045c-0.004,0-0.008,0-0.012,0c-0.04,0.04-0.088,0.071-0.14,0.093l-0.047,0.047l-0.095,0.092
	c-0.04,0.033-0.091,0.049-0.143,0.045c-0.125,0.032-0.267,0.064-0.423,0.092c-0.036,0.002-0.071,0.019-0.094,0.048h-1.498
	l-0.047,0.045h-0.14l-3.389,0.094c-0.036,0.002-0.071,0.019-0.095,0.046h-0.328c0.002,0.022-0.014,0.043-0.036,0.045
	c-0.003,0-0.007,0-0.011,0l-0.091,0.092l-0.05,0.048h-0.046v1.661c-0.023-0.003-0.044,0.012-0.048,0.035c0,0.003,0,0.007,0,0.011
	c-0.001,0.036-0.019,0.07-0.046,0.093v2.036c0.027,0.021,0.043,0.057,0.046,0.092c0.002,0.037,0.02,0.067,0.048,0.095v0.879
	c0.027,0.022,0.044,0.058,0.046,0.092l0.05,0.048c0.002,0.036,0.019,0.069,0.046,0.092v0.465c0.027,0.021,0.044,0.06,0.046,0.095
	l0.047,0.045v0.69c0.002,0.035,0.019,0.068,0.046,0.093v0.094c0.029,0.021,0.046,0.06,0.049,0.094v0.646l-0.05,0.046
	c-0.027,0.021-0.043,0.061-0.046,0.094c-0.023,0.026-0.057,0.045-0.093,0.047v0.188l-0.046,0.046v0.093
	c-0.033,0.029-0.065,0.063-0.1,0.092v0.787h0.1c0.002,0.035,0.019,0.066,0.046,0.094v0.877l0.048,0.051
	c0.028,0.021,0.045,0.057,0.047,0.093v0.603c0.002,0.033,0.019,0.066,0.046,0.09c-0.002,0.021,0.014,0.045,0.037,0.047
	c0.004,0,0.008,0,0.012,0v0.557c0.024,0.025,0.058,0.045,0.095,0.047v0.51c0.03,0.029,0.061,0.063,0.093,0.092h0.046v0.604
	c-0.002,0.021,0.014,0.043,0.037,0.045c0.004,0,0.007,0,0.011,0v0.557c0.025,0.023,0.059,0.043,0.095,0.045
	c0.002,0.037,0.019,0.066,0.047,0.092v0.513c0.033,0.028,0.062,0.063,0.093,0.093v0.461l0.041,0.038
	c0.001,0.037,0.019,0.07,0.047,0.095v0.321c0.027,0.022,0.045,0.058,0.049,0.093l0.047,0.054v0.143
	c0.028,0.021,0.046,0.058,0.047,0.091c0.029,0.021,0.046,0.057,0.049,0.094l0.046,0.047v0.277c0.023,0.026,0.057,0.043,0.093,0.047
	v0.047c0.028,0.021,0.045,0.057,0.047,0.092c0.003,0.035,0.02,0.068,0.047,0.093v0.14c0.028,0.021,0.045,0.058,0.048,0.092
	c0.028,0.022,0.045,0.06,0.048,0.093c0.024,0.028,0.058,0.045,0.095,0.048c-0.003,0.021,0.012,0.044,0.034,0.048
	c0.004,0,0.009,0,0.013,0v0.187c0.002,0.035,0.019,0.067,0.046,0.094v0.092h0.059c0.065,0.002,0.13,0.018,0.189,0.045
	c0.027,0.023,0.043,0.059,0.046,0.094c-0.003,0.021,0.015,0.045,0.039,0.049c0.003,0,0.006,0,0.01,0v1.017
	c0.027,0.022,0.044,0.06,0.047,0.094l0.048,0.048v0.139l-0.1,0.094c-0.028,0.021-0.045,0.059-0.048,0.092h-1.737
	c-0.05,0.01-0.099,0.023-0.142,0.047h-0.045c-0.076,0.027-0.156,0.045-0.236,0.049c-0.041,0.035-0.088,0.066-0.139,0.092h-0.048
	c-0.039,0.033-0.09,0.05-0.142,0.046h-1.883c-0.074-0.033-0.154-0.05-0.235-0.046c-0.061-0.03-0.124-0.063-0.186-0.092v-0.049
	c-0.059-0.029-0.125-0.047-0.191-0.047h-1.177V33.73h-0.064c-0.065,0-0.13-0.021-0.188-0.047c-0.032-0.031-0.063-0.063-0.094-0.097
	c-0.004-0.032-0.021-0.065-0.048-0.092V33.45c-0.036-0.007-0.07-0.021-0.094-0.052c-0.003-0.032-0.02-0.065-0.047-0.092V33.12l0,0
	c-0.032-0.028-0.063-0.063-0.095-0.093v-0.142c-0.032-0.028-0.062-0.063-0.094-0.092v-0.369c-0.033-0.03-0.064-0.063-0.095-0.091
	V32.2c0.002-0.022-0.014-0.043-0.037-0.048c-0.003,0-0.006,0-0.009,0c-0.003-0.034-0.021-0.067-0.049-0.092
	c-0.001-0.035-0.019-0.069-0.048-0.093v-0.235l-0.047-0.047c-0.002-0.035-0.019-0.067-0.046-0.093V31.27
	c-0.032-0.025-0.062-0.063-0.095-0.09v-0.281c-0.026-0.021-0.042-0.057-0.045-0.094c0.002-0.021-0.015-0.045-0.039-0.047
	c-0.003,0-0.006,0-0.009,0v-0.275c-0.037,0-0.071-0.018-0.095-0.045l-0.047-0.047v-0.324c-0.003-0.031-0.02-0.064-0.046-0.092
	v-0.184c-0.001-0.035-0.015-0.068-0.038-0.092c-0.002-0.037-0.02-0.07-0.048-0.094c-0.002-0.035-0.019-0.066-0.046-0.09v-0.418
	c-0.028-0.021-0.045-0.059-0.047-0.096c-0.002-0.031-0.02-0.064-0.047-0.092v-0.605c-0.028-0.023-0.044-0.061-0.047-0.098
	c-0.002-0.035-0.02-0.064-0.047-0.092V27.75c-0.023,0.004-0.045-0.014-0.048-0.037c0-0.004,0-0.006,0-0.01
	c-0.001-0.035-0.019-0.068-0.046-0.092v-0.369c-0.003-0.035-0.02-0.068-0.047-0.092c-0.003-0.037-0.02-0.07-0.048-0.094
	l-0.049-0.053V26.82l-0.047-0.051c0.002-0.021-0.014-0.041-0.036-0.045c-0.004,0-0.008,0-0.012,0v-0.689
	c-0.003-0.035-0.02-0.065-0.047-0.096c-0.002-0.031-0.019-0.064-0.046-0.092v-2.492h-0.327c-0.037-0.004-0.071-0.021-0.095-0.049
	c-0.036-0.002-0.07-0.018-0.094-0.045h-0.045c-0.066,0-0.131-0.016-0.189-0.047c-0.03-0.031-0.063-0.061-0.094-0.092
	c-0.031-0.031-0.061-0.061-0.093-0.094v-0.324c-0.035-0.059-0.066-0.121-0.095-0.184v-0.603l-0.095-0.095v-3.511
	c0.022,0.004,0.043-0.011,0.047-0.033c0.001-0.004,0.001-0.008,0-0.012c0.028-0.023,0.045-0.057,0.047-0.093V17.48h0.046v-0.09
	c0.027-0.024,0.044-0.058,0.049-0.094V16.89c0.036-0.002,0.07-0.02,0.093-0.048V16.61c0.028-0.023,0.045-0.056,0.048-0.091
	c0.032-0.031,0.062-0.063,0.094-0.091v-0.14c0.036-0.002,0.07-0.019,0.094-0.046v-0.325c0.028-0.022,0.046-0.057,0.048-0.093
	c0.002-0.035,0.019-0.067,0.046-0.089v-0.092h0.092v-0.28c0.012-0.072,0.068-0.128,0.14-0.14v-0.227l0.048-0.047V13.93l0.093-0.093
	l0.049-0.041v-0.42c-0.027-0.023-0.044-0.056-0.047-0.092c-0.036-0.003-0.069-0.02-0.093-0.047v-0.369
	c-0.027-0.023-0.044-0.056-0.048-0.091c-0.033-0.031-0.062-0.063-0.094-0.093c-0.023-0.028-0.058-0.045-0.094-0.047l-0.047,0.047
	v0.093c-0.003,0.035-0.02,0.067-0.046,0.091v0.046c-0.032,0.032-0.065,0.062-0.1,0.093c-0.036,0.003-0.069,0.019-0.094,0.045
	l-0.037,0.047h-0.14c-0.065-0.007-0.128-0.023-0.189-0.047c-0.04-0.034-0.09-0.05-0.142-0.045h-0.144
	c-1.036,0.032-2.103,0.062-3.2,0.092c-0.027,0.023-0.044,0.056-0.047,0.092c-0.022-0.003-0.043,0.012-0.046,0.034
	c-0.001,0.004-0.001,0.007,0,0.011h-0.14c-0.065,0-0.129-0.016-0.188-0.045c-0.003-0.036-0.021-0.068-0.047-0.092
	c-0.033-0.031-0.062-0.061-0.094-0.092l-0.046-0.046c0.004-0.022-0.011-0.043-0.034-0.047c-0.004-0.001-0.009-0.001-0.013,0
	c-0.002-0.037-0.021-0.071-0.05-0.093v-0.042l-0.047-0.047c-0.036-0.003-0.069-0.02-0.093-0.046h-6.07
	c-0.065-0.001-0.13-0.017-0.188-0.047c-0.024-0.027-0.058-0.043-0.094-0.045l-0.094-0.095v-0.233
	c-0.037-0.002-0.07-0.019-0.095-0.045c-0.036-0.002-0.07-0.018-0.095-0.045l-0.094-0.094c-0.002-0.036-0.02-0.07-0.048-0.092v-0.14
	c-0.003-0.035-0.019-0.068-0.045-0.091v-0.185h-0.1c-0.024-0.002-0.045,0.015-0.047,0.039c0,0.002,0,0.005,0,0.007v0.185
	c-0.027,0.024-0.044,0.058-0.047,0.094v0.045c-0.003,0.035-0.019,0.068-0.045,0.092v0.139c-0.003,0.036-0.021,0.068-0.05,0.089
	v0.135c-0.028,0.026-0.045,0.062-0.047,0.1v0.093c-0.021-0.003-0.042,0.012-0.045,0.033c-0.001,0.004-0.001,0.008,0,0.012v0.462
	c-0.002,0.036-0.019,0.069-0.047,0.092v0.092H6.527c-0.003,0.036-0.02,0.068-0.047,0.092v0.231c-0.001,0.036-0.019,0.07-0.046,0.093
	v0.277c-0.031,0.031-0.064,0.061-0.094,0.091c-0.064,0.062-0.126,0.125-0.189,0.186c-0.032,0-0.047,0.029-0.047,0.092
	c-0.031,0.057-0.047,0.12-0.048,0.186c0.004,0.05-0.013,0.1-0.047,0.137c-0.03,0.057-0.046,0.121-0.047,0.185
	c-0.027,0.024-0.043,0.057-0.046,0.093c-0.057,0.054-0.105,0.116-0.143,0.185v0.14c-0.031,0.057-0.047,0.121-0.048,0.185v0.144
	c-0.062,0.028-0.111,0.078-0.139,0.14c-0.032,0.056-0.048,0.119-0.049,0.183c-0.03,0.032-0.078,0.078-0.14,0.139v0.138
	c-0.023,0.051-0.055,0.098-0.092,0.14c-0.033,0.06-0.062,0.121-0.095,0.184c0.003,0.05-0.013,0.1-0.047,0.138v0.184l-0.046,0.048
	c-0.029,0.022-0.046,0.057-0.047,0.093c-0.035,0.037-0.053,0.087-0.048,0.137l-0.094,0.185c-0.036,0.002-0.07,0.019-0.094,0.046
	L4.787,17.4v0.045l-0.094,0.091v0.094l-0.048,0.046v0.093c-0.003,0.036-0.02,0.068-0.046,0.092c0.002,0.023-0.014,0.043-0.037,0.045
	c-0.003,0-0.007,0-0.011,0C4.524,17.93,4.507,17.964,4.504,18c-0.037,0.001-0.071,0.019-0.094,0.047v0.09
	c-0.001,0.036-0.018,0.07-0.047,0.092v0.093c-0.037,0.002-0.071,0.019-0.095,0.047c-0.028,0.022-0.045,0.056-0.047,0.092
	c-0.036,0.003-0.069,0.02-0.092,0.046c-0.062,0-0.094,0.019-0.094,0.046c-0.028,0.022-0.046,0.059-0.048,0.094h-0.09
	c0.002,0.022-0.015,0.043-0.038,0.045c-0.003,0-0.006,0-0.009,0H3.38c-0.05,0.007-0.098,0.022-0.142,0.052
	c-0.111-0.004-0.222,0.014-0.328,0.045H2.675c-0.157-0.029-0.3-0.063-0.425-0.097c-0.076-0.022-0.154-0.039-0.234-0.043
	C1.925,18.62,1.83,18.602,1.734,18.6c-0.065,0-0.13-0.017-0.189-0.045c-0.002-0.035-0.019-0.07-0.046-0.093L1.405,18.37V6.298h0.046
	L1.397,6.256V6.118c0.027-0.023,0.044-0.057,0.047-0.092c0.031-0.03,0.061-0.062,0.094-0.1c0.033-0.038,0.064-0.06,0.095-0.091
	l0.094-0.091c0.002-0.036,0.02-0.07,0.047-0.093c0.028-0.023,0.045-0.056,0.049-0.092c0.026-0.024,0.042-0.057,0.045-0.092
	c0.036-0.002,0.07-0.019,0.094-0.046l0.048-0.05c0.044-0.024,0.092-0.039,0.141-0.044C2.22,5.309,2.284,5.277,2.34,5.234
	C2.421,5.231,2.5,5.216,2.575,5.189C2.598,5.191,2.619,5.174,2.622,5.15c0-0.003,0-0.006,0-0.009h0.14
	c0.076-0.026,0.155-0.04,0.235-0.042V5.05h0.094c0.065,0.033,0.127,0.063,0.188,0.094c0.022-0.004,0.044,0.01,0.048,0.033
	c0.001,0.005,0.001,0.01,0,0.015C3.325,5.214,3.341,5.235,3.363,5.237c0.003,0,0.006,0,0.01,0v0.094h2.544
	c-0.02-0.016-0.033-0.033-0.048-0.048c-0.003-0.036-0.02-0.068-0.047-0.091V5.146c-0.03-0.032-0.062-0.061-0.1-0.094V4.499
	c0.025-0.026,0.059-0.043,0.095-0.046V4.398c0.028-0.021,0.045-0.054,0.048-0.089C5.892,4.285,5.91,4.252,5.914,4.216
	c0.025-0.024,0.042-0.058,0.045-0.093C5.982,4.126,6.003,4.11,6.006,4.087c0-0.004,0-0.008,0-0.012
	c0.003-0.036,0.021-0.068,0.047-0.092c0.036-0.002,0.07-0.019,0.095-0.045c0.05-0.006,0.097-0.022,0.14-0.048
	c0.037-0.002,0.071-0.019,0.095-0.046V3.431C6.411,3.408,6.427,3.374,6.43,3.338c0.05-0.023,0.097-0.053,0.139-0.09
	c0.042-0.04,0.089-0.074,0.14-0.1l0.05-0.045h0.563c0.05,0.005,0.098,0.021,0.142,0.045c0.024,0.028,0.058,0.045,0.094,0.048
	c0.063,0.031,0.125,0.063,0.188,0.093C7.748,3.324,7.765,3.357,7.792,3.38c0.04,0.033,0.09,0.05,0.142,0.046h0.14v0.052
	C8.15,3.451,8.23,3.435,8.31,3.431c0.038,0,0.075-0.018,0.1-0.046c0.034-0.004,0.064-0.021,0.087-0.046
	c0.049-0.005,0.096-0.02,0.139-0.045h0.142c0.014,0.044,0.049,0.079,0.094,0.091c0.003-0.036,0.021-0.068,0.049-0.091V3.199
	c0.036-0.003,0.07-0.021,0.093-0.048l0.047-0.045c0.033-0.03,0.064-0.062,0.1-0.092c0.031-0.021,0.05-0.056,0.052-0.093l0.093-0.092
	l0.047-0.045V2.599c0.038-0.002,0.074-0.019,0.1-0.047V2.46c0.023-0.027,0.056-0.043,0.092-0.046c0.025-0.029,0.062-0.047,0.1-0.049
	C9.643,2.343,9.659,2.322,9.681,2.32c0.004,0,0.008,0,0.012,0c0.042-0.025,0.089-0.042,0.138-0.048
	c0.06-0.029,0.125-0.044,0.191-0.045V2.183h0.047c0.024,0.002,0.045-0.015,0.047-0.039c0-0.003,0-0.006,0-0.01
	c0.022,0.003,0.043-0.013,0.046-0.035c0-0.003,0-0.006,0-0.01h33.42c-0.004-0.023,0.012-0.044,0.03-0.048c0.009,0,0.013,0,0.017,0
	h0.094V1.999h0.1c0.063,0.03,0.125,0.06,0.188,0.092c0.063,0,0.129,0.016,0.187,0.045c0.026,0.028,0.062,0.044,0.101,0.048
	c0.054,0.022,0.1,0.053,0.142,0.089c0.042,0.039,0.09,0.07,0.146,0.092l0.049,0.048c0.031,0.032,0.063,0.06,0.095,0.092
	c0.03,0.032,0.043,0.064,0.077,0.094V2.69c0.027,0.023,0.045,0.057,0.047,0.093c0.053,0.021,0.1,0.053,0.143,0.092
	c0.026,0.023,0.043,0.056,0.047,0.092c0.029,0.032,0.063,0.061,0.092,0.092c0,0.03,0.031,0.046,0.099,0.046
	c-0.004,0.021,0.011,0.042,0.028,0.045c0.007,0,0.013,0,0.018,0v0.049h0.146c0.021,0.028,0.059,0.045,0.096,0.047
	c0.021-0.003,0.043,0.013,0.047,0.036c0,0.003,0,0.007,0,0.01h0.707c-0.016-0.022,0-0.043,0.023-0.046c0.004-0.001,0.008,0,0.012,0
	c0.049-0.006,0.095-0.022,0.137-0.047h0.189c0.037,0.034,0.088,0.051,0.141,0.047c0.021-0.003,0.043,0.012,0.047,0.034
	c0,0.004,0,0.008,0,0.012h0.094c0.064,0.03,0.127,0.062,0.189,0.091l0.047,0.046c0.051-0.003,0.102,0.014,0.141,0.047h0.047
	c0.057,0.023,0.121,0.061,0.186,0.091v0.044c0.061,0.032,0.123,0.064,0.186,0.094c0.004,0.037,0.021,0.07,0.053,0.094h0.094V4.26
	C47.893,4.329,47.939,4.391,48,4.445l0.049,0.093c0,0.064,0.016,0.128,0.045,0.185v0.323c-0.023,0.028-0.039,0.063-0.041,0.1h0.141
	c0.049,0.005,0.098,0.021,0.141,0.048c-0.002,0.023,0.018,0.043,0.037,0.045c0.004,0,0.008,0,0.012,0l0.098,0.093
	c0.023,0.023,0.045,0.057,0.047,0.093c-0.004,0.023,0.016,0.044,0.037,0.046c0.002,0,0.006,0,0.01,0v0.136
	c-0.002,0.036-0.021,0.07-0.047,0.092v0.099L48.48,5.843v0.32c0,0.048,0.016,0.095,0.041,0.137c0.006,0.073,0.043,0.14,0.1,0.186
	l0.041,0.092c0.002,0.065,0.02,0.129,0.049,0.187v0.32l-0.049,0.047h0.049L48.9,7.224c-0.004,0.023,0.012,0.043,0.035,0.046
	c0.004,0,0.008,0,0.012,0C48.996,7.307,49.063,7.337,49.125,7.368z M26.626,12.974c-0.028-0.023-0.045-0.057-0.047-0.093
	c-0.073-0.008-0.131-0.064-0.142-0.137V12.65c-0.028-0.022-0.045-0.056-0.047-0.092c-0.003,0.036-0.021,0.069-0.048,0.092v0.323
	c0.003,0.036,0.021,0.069,0.048,0.092v0.092c-0.003,0.021,0.012,0.042,0.034,0.045c0.004,0.001,0.009,0,0.013,0v0.371
	c0.033,0.031,0.062,0.063,0.093,0.093v0.047h0.709c-0.037-0.002-0.071-0.019-0.095-0.047c-0.033-0.03-0.064-0.062-0.1-0.093
	c-0.022,0.003-0.043-0.012-0.047-0.035c0-0.003,0-0.007,0-0.011c-0.032-0.032-0.06-0.065-0.093-0.094
	c-0.028-0.022-0.045-0.056-0.047-0.092V13.25c-0.022,0.001-0.041-0.016-0.042-0.039c0-0.004,0-0.008,0.001-0.012
	c-0.038-0.002-0.074-0.018-0.1-0.045c-0.029-0.031-0.061-0.061-0.093-0.092C26.627,13.035,26.627,13.004,26.626,12.974
	L26.626,12.974z M2.009,8.156V9.59c0.027-0.023,0.044-0.056,0.047-0.092V7.693C2.054,7.656,2.037,7.622,2.009,7.598V8.156z"/>
<g>
	<g>
		<g>
			<defs>
				<path id="SVGID_1_" d="M31.618,11.536v-0.092h-3.721v0.277c0.027,0.022,0.045,0.055,0.048,0.091v0.048l0.052,0.046v0.045
					c0.062,0.032,0.125,0.062,0.187,0.092c0.03,0.031,0.062,0.063,0.1,0.094c0.027,0.022,0.044,0.054,0.048,0.089v0.046
					c0.022,0.028,0.057,0.045,0.092,0.048c0.004,0.036,0.021,0.069,0.049,0.091c0.001,0.036,0.018,0.069,0.046,0.092
					c-0.004,0.022,0.011,0.043,0.034,0.047c0.005,0,0.009,0,0.014,0c0.032,0.062,0.063,0.123,0.093,0.185v0.091l0.039,0.047v0.047
					l0.095,0.091c0.002,0.036,0.021,0.069,0.047,0.093l0.093,0.095v0.047h0.046v0.048c0.031,0.029,0.064,0.06,0.094,0.091v0.091
					l0.047,0.048v0.045c0.036,0.002,0.069,0.02,0.094,0.047c0.002,0.036,0.02,0.069,0.047,0.093h1.272
					c0.024,0.003,0.046-0.014,0.048-0.038c0-0.003,0-0.006,0-0.009c0.035-0.002,0.068-0.019,0.09-0.046v-0.04h0.097V13.48
					l0.095-0.091c0.053,0.002,0.102-0.014,0.141-0.047c0.002-0.036,0.02-0.069,0.047-0.092v-0.139
					c0.004-0.036,0.021-0.069,0.047-0.093V12.88c0.023,0.003,0.045-0.012,0.049-0.035c0-0.003,0-0.007,0-0.011
					c0.025-0.023,0.043-0.056,0.046-0.091c0.03-0.031,0.062-0.063,0.095-0.093c0.002-0.036,0.02-0.069,0.047-0.092V12.51
					c0.027-0.023,0.045-0.056,0.047-0.092s0.021-0.069,0.047-0.091c0.037-0.003,0.07-0.021,0.096-0.048
					c0.023-0.027,0.059-0.043,0.095-0.046v-0.415c0.005-0.035,0.021-0.068,0.048-0.091c-0.004-0.036-0.021-0.068-0.048-0.092
					C31.618,11.603,31.62,11.569,31.618,11.536z M49.125,7.368c0.027,0.023,0.045,0.056,0.049,0.092
					c-0.004,0.022,0.014,0.043,0.031,0.047c0.006,0.001,0.01,0.001,0.02,0h0.656v0.047h4.283l0.232,0.233v2.5l-0.279,0.278h-3.955
					v0.094c-0.205,0-0.41,0.015-0.613,0.045l-0.047,0.047c-0.027,0.029-0.076,0.076-0.141,0.138c-0.037,0.001-0.072,0.018-0.1,0.045
					c0.027,0.024,0.045,0.058,0.049,0.094c0.027,0.024,0.045,0.057,0.047,0.093s0.02,0.068,0.047,0.091v0.418
					c-0.027,0.023-0.045,0.057-0.047,0.092c-0.029,0.031-0.064,0.061-0.1,0.091v0.371l-0.047,0.045
					c-0.029,0.025-0.047,0.062-0.047,0.1c-0.119,0.059-0.26,0.059-0.375,0c-0.031-0.025-0.051-0.062-0.053-0.1
					c-0.033-0.001-0.066-0.017-0.094-0.045l-0.045-0.045c-0.002-0.037-0.021-0.071-0.051-0.094
					c-0.029-0.061-0.063-0.122-0.094-0.183l-0.047-0.048c-0.029-0.03-0.063-0.06-0.094-0.091l-0.096-0.092
					c-0.025-0.023-0.045-0.057-0.047-0.093h-0.072c-0.033-0.031-0.063-0.062-0.096-0.092c-0.031-0.03-0.063-0.061-0.092-0.094
					c-0.008-0.036-0.021-0.068-0.051-0.092c0-0.03-0.027-0.046-0.094-0.046c-0.029-0.022-0.045-0.055-0.051-0.091l-0.09-0.093
					c-0.029-0.03-0.063-0.061-0.096-0.094l-0.1-0.091c-0.004-0.036-0.021-0.069-0.047-0.092h-0.047
					c-0.063-0.001-0.129-0.017-0.188-0.047l-0.047-0.045h-0.141c-0.021,0.05-0.057,0.097-0.094,0.137
					c-0.025,0.042-0.041,0.089-0.047,0.137c-0.031,0.034-0.078,0.078-0.143,0.14c-0.059,0.055-0.119,0.102-0.188,0.138
					c-0.079,0.042-0.157,0.088-0.233,0.138c-0.053-0.004-0.104,0.013-0.144,0.048h-0.036v0.046
					c-0.004,0.036-0.021,0.069-0.048,0.092h-0.142c-0.051,0.024-0.1,0.055-0.141,0.093c-0.002,0.036-0.021,0.069-0.051,0.092v0.091
					c0.008,0.023-0.012,0.044-0.031,0.048c-0.004,0-0.011,0-0.015,0v0.091c-0.032,0.002-0.067,0.019-0.095,0.047v11.935
					c-0.004,0.037-0.021,0.07-0.049,0.094l-0.049,0.051v0.092c-0.039,0-0.07,0.02-0.101,0.045l-0.046,0.049h-0.37
					c-0.024-0.025-0.058-0.047-0.095-0.049c-0.158,0-0.314-0.02-0.471-0.045c-0.064-0.002-0.129-0.021-0.188-0.045
					c-0.044-0.018-0.079-0.052-0.093-0.098H44c-0.021,0.008-0.045-0.012-0.049-0.029c0-0.004,0-0.014,0-0.018
					c-0.064,0-0.131-0.016-0.188-0.045c-0.021,0.004-0.044-0.012-0.048-0.033c0-0.004,0-0.008,0-0.012
					c-0.065-0.002-0.131-0.018-0.188-0.047h-0.13v-0.045c-0.064,0-0.129-0.016-0.188-0.045c-0.064,0-0.127-0.016-0.188-0.045
					l-0.048-0.045h-0.284c-0.021-0.029-0.06-0.047-0.095-0.049c-0.036-0.002-0.07-0.018-0.098-0.047
					c-0.052,0.004-0.103-0.012-0.143-0.045c-0.053-0.023-0.1-0.059-0.143-0.092c-0.063-0.031-0.125-0.063-0.188-0.096h-0.047
					c-0.053-0.021-0.102-0.056-0.143-0.092c-0.051-0.021-0.099-0.061-0.14-0.098c-0.004-0.031-0.021-0.066-0.05-0.092
					c-0.021-0.024-0.061-0.045-0.096-0.047c-0.027-0.021-0.045-0.057-0.047-0.092c-0.031-0.029-0.063-0.061-0.094-0.092
					c-0.031-0.023-0.051-0.061-0.051-0.1c-0.033-0.002-0.068-0.021-0.095-0.045c-0.036-0.003-0.068-0.021-0.095-0.046
					c-0.002-0.036-0.021-0.069-0.047-0.097c-0.004-0.034-0.021-0.064-0.047-0.096c-0.002-0.033-0.021-0.063-0.048-0.09
					c0.002-0.021-0.015-0.045-0.034-0.047c-0.004,0-0.009,0-0.013,0v-0.096c-0.005-0.035-0.021-0.068-0.051-0.092V22.08
					c-0.029-0.033-0.062-0.063-0.093-0.092l-0.039-0.047v-0.094c-0.026-0.021-0.045-0.059-0.045-0.096
					c-0.004-0.032-0.021-0.064-0.049-0.094V19.22c0.025-0.022,0.045-0.06,0.049-0.095c0.022-0.021,0.043-0.059,0.045-0.094v-0.787
					c0.031-0.062,0.063-0.124,0.095-0.186c0.026-0.023,0.044-0.056,0.046-0.092v-6.48c-0.042-0.025-0.09-0.041-0.139-0.047h-7.301
					c0.004,0.023-0.014,0.044-0.037,0.047c-0.002,0-0.006,0-0.01,0l0.047,0.045c0.027,0.023,0.045,0.057,0.047,0.093v0.738
					c-0.03,0.032-0.063,0.063-0.094,0.1v0.322c-0.063,0.033-0.127,0.062-0.188,0.093c-0.036,0.001-0.071,0.019-0.096,0.047
					c-0.022,0.027-0.059,0.044-0.094,0.046c-0.027,0.023-0.046,0.056-0.049,0.092c-0.029,0.032-0.063,0.062-0.092,0.092
					c-0.053,0.022-0.1,0.054-0.143,0.092v0.04c-0.026,0.023-0.043,0.056-0.047,0.091v0.184l-0.095,0.093v0.554
					c-0.021-0.004-0.043,0.01-0.047,0.033c-0.002,0.004-0.002,0.009-0.001,0.014c-0.03,0.03-0.063,0.059-0.094,0.093v0.09
					c-0.004,0.036-0.021,0.07-0.047,0.094c0.002,0.022-0.015,0.043-0.037,0.045c-0.004,0-0.008,0-0.012,0v0.185
					c0.004,0.022-0.014,0.043-0.035,0.045c-0.004,0-0.008,0-0.012,0c-0.039,0.04-0.088,0.071-0.14,0.093l-0.047,0.047l-0.095,0.092
					c-0.041,0.033-0.092,0.049-0.144,0.045c-0.125,0.032-0.267,0.064-0.423,0.092c-0.036,0.002-0.071,0.019-0.094,0.048h-1.498
					l-0.047,0.045h-0.141l-3.389,0.094c-0.036,0.002-0.071,0.019-0.095,0.046h-0.322c0.002,0.022-0.014,0.043-0.036,0.045
					c-0.003,0-0.007,0-0.011,0l-0.091,0.092l-0.05,0.048h-0.046v1.661c-0.023-0.003-0.044,0.012-0.048,0.035
					c0,0.003,0,0.007,0,0.011c-0.001,0.036-0.019,0.07-0.046,0.093v2.036c0.027,0.021,0.043,0.057,0.046,0.092
					c0.002,0.037,0.02,0.067,0.048,0.095v0.879c0.027,0.022,0.044,0.058,0.046,0.092l0.05,0.048
					c0.002,0.036,0.019,0.069,0.046,0.092v0.465c0.027,0.021,0.044,0.06,0.046,0.095l0.047,0.045v0.69
					c0.002,0.035,0.019,0.068,0.046,0.093v0.094c0.029,0.021,0.046,0.06,0.049,0.094v0.646l-0.05,0.046
					c-0.027,0.021-0.043,0.061-0.046,0.094c-0.023,0.026-0.057,0.045-0.093,0.047v0.188l-0.046,0.046v0.093
					c-0.033,0.029-0.065,0.063-0.1,0.092v0.787h0.1c0.002,0.035,0.019,0.066,0.046,0.094v0.877l0.048,0.051
					c0.028,0.021,0.045,0.057,0.047,0.093v0.603c0.002,0.033,0.019,0.066,0.046,0.09c-0.002,0.021,0.014,0.045,0.037,0.047
					c0.004,0,0.008,0,0.012,0v0.557c0.024,0.025,0.058,0.045,0.095,0.047v0.51c0.03,0.029,0.061,0.063,0.093,0.092h0.046v0.604
					c-0.002,0.021,0.014,0.043,0.037,0.045c0.004,0,0.007,0,0.011,0v0.557c0.025,0.023,0.059,0.043,0.095,0.045
					c0.002,0.037,0.019,0.066,0.047,0.092v0.513c0.033,0.028,0.062,0.063,0.093,0.093v0.461l0.041,0.038
					c0.001,0.037,0.019,0.07,0.047,0.095v0.321c0.027,0.022,0.045,0.058,0.049,0.093l0.047,0.054v0.143
					c0.028,0.021,0.046,0.058,0.047,0.091c0.029,0.021,0.046,0.057,0.049,0.094l0.046,0.047v0.277
					c0.023,0.026,0.057,0.043,0.092,0.047v0.047c0.028,0.021,0.045,0.057,0.047,0.092c0.004,0.035,0.021,0.068,0.048,0.093v0.14
					c0.028,0.021,0.045,0.058,0.048,0.092c0.027,0.022,0.045,0.06,0.048,0.093c0.024,0.028,0.058,0.045,0.095,0.048
					c-0.002,0.021,0.012,0.044,0.034,0.048c0.005,0,0.009,0,0.013,0v0.187c0.002,0.035,0.02,0.067,0.047,0.094v0.092h0.058
					c0.064,0.002,0.13,0.018,0.189,0.045c0.026,0.023,0.043,0.059,0.045,0.094c-0.002,0.021,0.016,0.045,0.039,0.049
					c0.004,0,0.006,0,0.011,0v1.017c0.026,0.022,0.044,0.06,0.047,0.094l0.048,0.048v0.139l-0.1,0.094
					c-0.028,0.021-0.045,0.059-0.049,0.092h-1.736c-0.05,0.01-0.099,0.023-0.142,0.047h-0.045c-0.076,0.027-0.156,0.045-0.236,0.049
					c-0.041,0.035-0.088,0.066-0.139,0.092h-0.048c-0.039,0.033-0.09,0.05-0.142,0.046h-1.883c-0.074-0.033-0.154-0.05-0.235-0.046
					c-0.061-0.03-0.124-0.063-0.186-0.092v-0.049c-0.059-0.029-0.125-0.047-0.191-0.047h-1.177V33.73h-0.064
					c-0.065,0-0.13-0.021-0.188-0.047c-0.032-0.031-0.063-0.063-0.094-0.097c-0.004-0.032-0.021-0.065-0.048-0.092V33.45
					c-0.036-0.007-0.07-0.021-0.094-0.052c-0.003-0.032-0.02-0.065-0.047-0.092V33.12l0,0c-0.032-0.028-0.063-0.063-0.095-0.093
					v-0.142c-0.032-0.028-0.062-0.063-0.094-0.092v-0.369c-0.033-0.03-0.064-0.063-0.095-0.091V32.2
					c0.002-0.022-0.014-0.043-0.037-0.048c-0.003,0-0.006,0-0.009,0c-0.003-0.034-0.021-0.067-0.049-0.092
					c-0.001-0.035-0.019-0.069-0.048-0.093v-0.235l-0.047-0.047c-0.002-0.035-0.019-0.067-0.046-0.093V31.27
					c-0.032-0.025-0.062-0.063-0.095-0.09v-0.281c-0.026-0.021-0.042-0.057-0.045-0.094c0.002-0.021-0.015-0.045-0.039-0.047
					c-0.003,0-0.006,0-0.009,0v-0.275c-0.037,0-0.071-0.018-0.095-0.045l-0.047-0.047v-0.324c-0.003-0.031-0.02-0.064-0.046-0.092
					v-0.184c-0.001-0.035-0.015-0.068-0.038-0.092c-0.002-0.037-0.02-0.07-0.048-0.094c-0.002-0.035-0.019-0.066-0.046-0.09v-0.418
					c-0.028-0.021-0.045-0.059-0.047-0.096c-0.002-0.031-0.02-0.064-0.047-0.092v-0.605c-0.028-0.023-0.044-0.061-0.047-0.098
					c-0.002-0.035-0.02-0.064-0.047-0.092V27.75c-0.023,0.004-0.045-0.014-0.048-0.037c0-0.004,0-0.006,0-0.01
					c-0.001-0.035-0.019-0.068-0.046-0.092v-0.369c-0.003-0.035-0.02-0.068-0.047-0.092c-0.003-0.037-0.02-0.07-0.048-0.094
					l-0.049-0.053V26.82l-0.047-0.051c0.002-0.021-0.014-0.041-0.036-0.045c-0.004,0-0.008,0-0.012,0v-0.689
					c-0.003-0.035-0.02-0.065-0.047-0.096c-0.002-0.031-0.019-0.064-0.046-0.092v-2.492h-0.327
					c-0.037-0.004-0.071-0.021-0.095-0.049c-0.036-0.002-0.07-0.018-0.094-0.045h-0.045c-0.066,0-0.131-0.016-0.189-0.047
					c-0.03-0.031-0.063-0.061-0.094-0.092c-0.031-0.031-0.061-0.061-0.093-0.094v-0.324c-0.035-0.059-0.066-0.121-0.095-0.184
					v-0.603l-0.095-0.095v-3.511c0.022,0.004,0.043-0.011,0.047-0.033c0.001-0.004,0.001-0.008,0-0.012
					c0.028-0.023,0.045-0.057,0.047-0.093V17.48h0.046v-0.09c0.027-0.024,0.044-0.058,0.049-0.094V16.89
					c0.036-0.002,0.07-0.02,0.093-0.048V16.61c0.028-0.023,0.045-0.056,0.048-0.091c0.032-0.031,0.062-0.063,0.094-0.091v-0.14
					c0.036-0.002,0.07-0.019,0.094-0.046v-0.325c0.028-0.022,0.046-0.057,0.048-0.093c0.002-0.035,0.019-0.067,0.046-0.089v-0.092
					h0.092v-0.28c0.012-0.072,0.068-0.128,0.14-0.14v-0.227l0.048-0.047V13.93l0.093-0.093l0.049-0.041v-0.42
					c-0.027-0.023-0.044-0.056-0.047-0.092c-0.036-0.003-0.069-0.02-0.093-0.047v-0.369c-0.027-0.023-0.044-0.056-0.048-0.091
					c-0.033-0.031-0.062-0.063-0.094-0.093c-0.023-0.028-0.058-0.045-0.094-0.047l-0.047,0.047v0.093
					c-0.003,0.035-0.02,0.067-0.046,0.091v0.046c-0.032,0.032-0.065,0.062-0.1,0.093c-0.036,0.003-0.069,0.019-0.094,0.045
					l-0.037,0.047h-0.14c-0.065-0.007-0.128-0.023-0.189-0.047c-0.04-0.034-0.09-0.05-0.142-0.045h-0.144
					c-1.036,0.032-2.103,0.062-3.2,0.092c-0.027,0.023-0.044,0.056-0.047,0.092c-0.022-0.003-0.043,0.012-0.046,0.034
					c-0.001,0.004-0.001,0.007,0,0.011h-0.14c-0.065,0-0.129-0.016-0.188-0.045c-0.003-0.036-0.021-0.068-0.047-0.092
					c-0.033-0.031-0.062-0.061-0.094-0.092l-0.046-0.046c0.004-0.022-0.011-0.043-0.034-0.047c-0.004-0.001-0.009-0.001-0.013,0
					c-0.002-0.037-0.021-0.071-0.05-0.093v-0.042l-0.047-0.047c-0.036-0.003-0.069-0.02-0.093-0.046h-6.07
					c-0.065-0.001-0.13-0.017-0.188-0.047c-0.024-0.027-0.058-0.043-0.094-0.045l-0.094-0.095v-0.233
					c-0.037-0.002-0.07-0.019-0.095-0.045c-0.036-0.002-0.07-0.018-0.095-0.045l-0.094-0.094c-0.002-0.036-0.02-0.07-0.048-0.092
					v-0.14c-0.003-0.035-0.019-0.068-0.045-0.091v-0.185h-0.1c-0.024-0.002-0.045,0.015-0.047,0.039c0,0.002,0,0.005,0,0.007v0.185
					c-0.027,0.024-0.044,0.058-0.047,0.094v0.045c-0.003,0.035-0.019,0.068-0.045,0.092v0.139c-0.003,0.036-0.021,0.068-0.05,0.089
					v0.135c-0.028,0.026-0.045,0.062-0.047,0.1v0.093c-0.021-0.003-0.042,0.012-0.045,0.033c-0.001,0.004-0.001,0.008,0,0.012v0.462
					c-0.002,0.036-0.019,0.069-0.047,0.092v0.092H6.527c-0.003,0.036-0.02,0.068-0.047,0.092v0.231
					c-0.001,0.036-0.019,0.07-0.046,0.093v0.277c-0.031,0.031-0.064,0.061-0.094,0.091c-0.064,0.062-0.126,0.125-0.189,0.186
					c-0.032,0-0.047,0.029-0.047,0.092c-0.031,0.057-0.047,0.12-0.048,0.186c0.004,0.05-0.013,0.1-0.047,0.137
					c-0.03,0.057-0.046,0.121-0.047,0.185c-0.027,0.024-0.043,0.057-0.046,0.093c-0.057,0.054-0.105,0.116-0.143,0.185v0.14
					c-0.031,0.057-0.047,0.121-0.048,0.185v0.144c-0.062,0.028-0.111,0.078-0.139,0.14c-0.032,0.056-0.048,0.119-0.049,0.183
					c-0.03,0.032-0.078,0.078-0.14,0.139v0.138c-0.023,0.051-0.055,0.098-0.092,0.14c-0.033,0.06-0.062,0.121-0.095,0.184
					c0.003,0.05-0.013,0.1-0.047,0.138v0.184l-0.046,0.048c-0.029,0.022-0.046,0.057-0.047,0.093
					c-0.035,0.037-0.053,0.087-0.048,0.137l-0.094,0.185c-0.036,0.002-0.07,0.019-0.094,0.046L4.787,17.4v0.045l-0.094,0.091v0.094
					l-0.048,0.046v0.093c-0.003,0.036-0.02,0.068-0.046,0.092c0.002,0.023-0.014,0.043-0.037,0.045c-0.003,0-0.007,0-0.011,0
					C4.524,17.93,4.507,17.964,4.504,18c-0.037,0.001-0.071,0.019-0.094,0.047v0.09c-0.001,0.036-0.018,0.07-0.047,0.092v0.093
					c-0.037,0.002-0.071,0.019-0.095,0.047c-0.028,0.022-0.045,0.056-0.047,0.092c-0.036,0.003-0.069,0.02-0.092,0.046
					c-0.062,0-0.094,0.019-0.094,0.046c-0.028,0.022-0.046,0.059-0.048,0.094h-0.09c0.002,0.022-0.015,0.043-0.038,0.045
					c-0.003,0-0.006,0-0.009,0H3.38c-0.05,0.007-0.098,0.022-0.142,0.052c-0.111-0.004-0.222,0.014-0.328,0.045H2.675
					c-0.157-0.029-0.3-0.063-0.425-0.097c-0.076-0.022-0.154-0.039-0.234-0.043C1.925,18.62,1.83,18.602,1.734,18.6
					c-0.065,0-0.13-0.017-0.189-0.045c-0.002-0.035-0.019-0.07-0.046-0.093L1.405,18.37V6.298h0.046L1.397,6.256V6.118
					c0.027-0.023,0.044-0.057,0.047-0.092c0.031-0.03,0.061-0.062,0.094-0.1c0.033-0.038,0.064-0.06,0.095-0.091l0.094-0.091
					c0.002-0.036,0.02-0.07,0.047-0.093c0.028-0.023,0.045-0.056,0.049-0.092c0.026-0.024,0.042-0.057,0.045-0.092
					c0.036-0.002,0.07-0.019,0.094-0.046l0.048-0.05c0.044-0.024,0.092-0.039,0.141-0.044C2.22,5.309,2.284,5.277,2.34,5.234
					C2.421,5.231,2.5,5.216,2.575,5.189C2.598,5.191,2.619,5.174,2.622,5.15c0-0.003,0-0.006,0-0.009h0.14
					c0.076-0.026,0.155-0.04,0.235-0.042V5.05h0.094c0.065,0.033,0.127,0.063,0.188,0.094c0.022-0.004,0.044,0.01,0.048,0.033
					c0.001,0.005,0.001,0.01,0,0.015C3.325,5.214,3.341,5.235,3.363,5.237c0.003,0,0.006,0,0.01,0v0.094h2.544
					c-0.02-0.016-0.033-0.033-0.048-0.048c-0.003-0.036-0.02-0.068-0.047-0.091V5.146c-0.03-0.032-0.062-0.061-0.1-0.094V4.499
					c0.025-0.026,0.059-0.043,0.095-0.046V4.398c0.028-0.021,0.045-0.054,0.048-0.089C5.892,4.285,5.91,4.252,5.914,4.216
					c0.025-0.024,0.042-0.058,0.045-0.093C5.982,4.126,6.003,4.11,6.006,4.087c0-0.004,0-0.008,0-0.012
					c0.003-0.036,0.021-0.068,0.047-0.092c0.036-0.002,0.07-0.019,0.095-0.045c0.05-0.006,0.097-0.022,0.14-0.048
					c0.037-0.002,0.071-0.019,0.095-0.046V3.431C6.411,3.408,6.427,3.374,6.43,3.338c0.05-0.023,0.097-0.053,0.139-0.09
					c0.042-0.04,0.089-0.074,0.14-0.1l0.05-0.045h0.563c0.05,0.005,0.098,0.021,0.142,0.045c0.024,0.028,0.058,0.045,0.094,0.048
					c0.063,0.031,0.125,0.063,0.188,0.093C7.748,3.324,7.765,3.357,7.792,3.38c0.04,0.033,0.09,0.05,0.142,0.046h0.14v0.052
					C8.15,3.451,8.23,3.435,8.31,3.431c0.038,0,0.075-0.018,0.1-0.046c0.034-0.004,0.064-0.021,0.087-0.046
					c0.049-0.005,0.096-0.02,0.139-0.045h0.142c0.014,0.044,0.049,0.079,0.094,0.091c0.003-0.036,0.021-0.068,0.049-0.091V3.199
					c0.036-0.003,0.07-0.021,0.093-0.048l0.047-0.045c0.033-0.03,0.064-0.062,0.1-0.092c0.031-0.021,0.05-0.056,0.052-0.093
					l0.093-0.092l0.047-0.045V2.599c0.038-0.002,0.074-0.019,0.1-0.047V2.46c0.023-0.027,0.056-0.043,0.092-0.046
					c0.025-0.029,0.062-0.047,0.1-0.049C9.643,2.343,9.659,2.322,9.681,2.32c0.004,0,0.008,0,0.012,0
					c0.042-0.025,0.089-0.042,0.138-0.048c0.06-0.029,0.125-0.044,0.191-0.045V2.183h0.047c0.024,0.002,0.045-0.015,0.047-0.039
					c0-0.003,0-0.006,0-0.01c0.022,0.003,0.043-0.013,0.046-0.035c0-0.003,0-0.006,0-0.01h33.42
					c-0.004-0.023,0.012-0.044,0.03-0.048c0.009,0,0.013,0,0.017,0h0.094V1.999h0.1c0.063,0.03,0.125,0.06,0.188,0.092
					c0.063,0,0.129,0.016,0.187,0.045c0.026,0.028,0.062,0.044,0.101,0.048c0.054,0.022,0.1,0.053,0.142,0.089
					c0.042,0.039,0.09,0.07,0.146,0.092l0.049,0.048c0.031,0.032,0.063,0.06,0.095,0.092c0.03,0.032,0.043,0.064,0.077,0.094V2.69
					c0.027,0.023,0.045,0.057,0.047,0.093c0.053,0.021,0.1,0.053,0.143,0.092c0.026,0.023,0.043,0.056,0.047,0.092
					c0.029,0.032,0.063,0.061,0.092,0.092c0,0.03,0.031,0.046,0.099,0.046c-0.004,0.021,0.011,0.042,0.028,0.045
					c0.007,0,0.013,0,0.018,0v0.049h0.146c0.021,0.028,0.059,0.045,0.096,0.047c0.021-0.003,0.043,0.013,0.047,0.036
					c0,0.003,0,0.007,0,0.01h0.707c-0.016-0.022,0-0.043,0.023-0.046c0.004-0.001,0.008,0,0.012,0
					c0.049-0.006,0.095-0.022,0.137-0.047h0.189c0.037,0.034,0.088,0.051,0.141,0.047c0.021-0.003,0.043,0.012,0.047,0.034
					c0,0.004,0,0.008,0,0.012h0.094c0.064,0.03,0.127,0.062,0.189,0.091l0.047,0.046c0.051-0.003,0.102,0.014,0.141,0.047h0.047
					c0.057,0.023,0.121,0.061,0.186,0.091v0.044c0.061,0.032,0.123,0.064,0.186,0.094c0.004,0.037,0.021,0.07,0.053,0.094h0.094
					V4.26C47.893,4.329,47.939,4.391,48,4.445l0.049,0.093c0,0.064,0.016,0.128,0.045,0.185v0.323
					c-0.023,0.028-0.039,0.063-0.041,0.1h0.141c0.049,0.005,0.098,0.021,0.141,0.048c-0.002,0.023,0.018,0.043,0.037,0.045
					c0.004,0,0.008,0,0.012,0l0.098,0.093c0.023,0.023,0.045,0.057,0.047,0.093c-0.004,0.023,0.016,0.044,0.037,0.046
					c0.002,0,0.006,0,0.01,0v0.136c-0.002,0.036-0.021,0.07-0.047,0.092v0.099L48.48,5.843v0.32c0,0.048,0.016,0.095,0.041,0.137
					c0.006,0.073,0.043,0.14,0.1,0.186l0.041,0.092c0.002,0.065,0.02,0.129,0.049,0.187v0.32l-0.049,0.047h0.049L48.9,7.224
					c-0.004,0.023,0.012,0.043,0.035,0.046c0.004,0,0.008,0,0.012,0C48.996,7.307,49.063,7.337,49.125,7.368z M26.626,12.974
					c-0.028-0.023-0.045-0.057-0.047-0.093c-0.073-0.008-0.131-0.064-0.142-0.137V12.65c-0.028-0.022-0.045-0.056-0.047-0.092
					c-0.003,0.036-0.021,0.069-0.048,0.092v0.323c0.003,0.036,0.021,0.069,0.048,0.092v0.092c-0.003,0.021,0.012,0.042,0.034,0.045
					c0.004,0.001,0.009,0,0.013,0v0.371c0.033,0.031,0.062,0.063,0.093,0.093v0.047h0.709c-0.037-0.002-0.07-0.019-0.095-0.047
					c-0.033-0.03-0.063-0.062-0.101-0.093c-0.021,0.003-0.043-0.012-0.047-0.035c0-0.003,0-0.007,0-0.011
					c-0.031-0.032-0.06-0.065-0.093-0.094c-0.028-0.022-0.045-0.056-0.047-0.092V13.25c-0.022,0.001-0.041-0.016-0.042-0.039
					c0-0.004,0-0.008,0.001-0.012c-0.038-0.002-0.074-0.018-0.1-0.045c-0.029-0.031-0.061-0.061-0.093-0.092
					C26.627,13.035,26.627,13.004,26.626,12.974L26.626,12.974z M2.009,8.156V9.59c0.027-0.023,0.044-0.056,0.047-0.092V7.693
					C2.054,7.656,2.037,7.622,2.009,7.598V8.156z"/>
			</defs>
			<clipPath id="SVGID_2_">
				<use xlink:href="#SVGID_1_"  overflow="visible"/>
			</clipPath>
			
				<linearGradient id="SVGID_3_" gradientUnits="userSpaceOnUse" x1="-801.1621" y1="273.9961" x2="-755.6309" y2="273.9961" gradientTransform="matrix(0.998 -0.0625 0.0625 0.998 782.3708 -315.5861)">
				<stop  offset="0" style="stop-color:#FFFF13"/>
				<stop  offset="1" style="stop-color:#7411C3"/>
			</linearGradient>
			<path clip-path="url(#SVGID_2_)" fill="url(#SVGID_3_)" d="M7.781,6.262L19.122,0.22L4.298,9.679l0.544,0.889
				c0,0,28.675-18.854,37.51-21.469c0,0-24.502,15.325-29.156,20.093c0,0,13.448-9.158,17.85-11.281L25.94,2.14l2.087-1.197
				l-4.633,3.985c0,0,8.712-6.801,18.08-9.804l3.509,3.688c0,0-7.873,0.139-18.657,13.961c0,0,4.009-6.148,5.891-8.398
				c0,0-7.489,5.16-15.068,12.244l5.673-6.326c0,0-5.923,4.565-9.842,9.928c0,0,5.677-9.594,20.549-19.411
				c0,0-8.153,2.359-24.858,15.204c0,0,14.581-8.874,15.318-9.347C24.659,6.2,5.493,19.838,3.487,23.447
				C1.272,27.068,0,8.955,0,8.955L7.781,6.262z"/>
		</g>
	</g>
</g>
</svg>
