<?xml version="1.0" encoding="utf-8"?>
<!-- Generator: Adobe Illustrator 16.0.0, SVG Export Plug-In . SVG Version: 6.00 Build 0)  -->
<!DOCTYPE svg PUBLIC "-//W3C//DTD SVG 1.1//EN" "http://www.w3.org/Graphics/SVG/1.1/DTD/svg11.dtd">
<svg version="1.1" id="tc" xmlns="http://www.w3.org/2000/svg" xmlns:xlink="http://www.w3.org/1999/xlink" x="0px" y="0px"
	 width="20.032px" height="36px" viewBox="0 0 20.032 36" enable-background="new 0 0 20.032 36" xml:space="preserve">
<linearGradient id="shape1_1_" gradientUnits="userSpaceOnUse" x1="2.7627" y1="1631.6211" x2="19.4282" y2="1631.6211" gradientTransform="matrix(1 0 0 1 -0.0801 -1613.6211)">
	<stop  offset="0" style="stop-color:#5400D7"/>
	<stop  offset="1" style="stop-color:#9178E2"/>
</linearGradient>
<path id="shape1" fill="url(#shape1_1_)" d="M15.762,26.677v0.313l-0.004,0.004v1.646c-1.967,0.399-3.961,0.646-5.965,0.729
	c-2.166-0.108-4.322-0.367-6.451-0.776v-1.916c2.103,0.331,4.222,0.539,6.347,0.628C11.723,27.217,13.752,27.009,15.762,26.677
	 M8.154,25.384c0.099,0.023,0.197,0.039,0.297,0.052H8.127L8.154,25.384z M10.762,25.271c0.004-0.026,0.027-0.043,0.053-0.039v0.048
	v0.003h-0.053C10.76,25.28,10.76,25.275,10.762,25.271 M11.891,25.175h0.271l-0.271,0.056V25.175z M7.43,24.711
	c-1.041-0.52-1.807-1.464-2.096-2.591c-0.297-1.026-0.441-2.093-0.432-3.16c0.012-1.565,0.378-3.106,1.075-4.509
	c0.478-1.036,1.175-1.956,2.045-2.694c1.038-0.861,2.06-1.653,3.067-2.378c-0.756,0.909-0.979,2.147-0.59,3.263
	c0.267,1.14,0.822,2.192,1.61,3.058c0.687,0.676,1.248,1.465,1.666,2.332c0.668,1.196,0.912,2.583,0.697,3.936
	c-0.093,0.955-0.604,1.82-1.396,2.358c-0.017,0.027-0.031,0.054-0.052,0.076c-0.313,0.486-0.897,0.715-1.457,0.57
	c0.229-0.197,0.271-0.531,0.104-0.779c-0.289-0.77-0.748-1.457-1.342-2.021c-1.254-1.14-1.684-2.245-1.291-3.314
	c-0.152,0.094-0.297,0.195-0.432,0.313c-0.809,0.767-1.238,1.843-1.182,2.95c-0.026,1.244,0.605,2.402,1.664,3.061
	C8.51,25.148,7.942,24.99,7.43,24.711 M14.141,0.313c-0.027,0.001-0.049,0.024-0.047,0.05h-0.16v0.159
	c-0.324,0.314-0.598,0.679-0.809,1.081V1.395l-0.271-0.104H6.508C6.265,1.319,6.059,1.479,5.969,1.707
	C5.861,1.861,5.786,2.039,5.754,2.228c-0.072,0.146-0.072,0.319,0,0.465H5.654v0.05h-0.05V3.47h0.75
	c0.195,0.036,0.393,0.052,0.591,0.054h0.05v2.282l-0.16,0.208c-0.047,0.088-0.1,0.175-0.158,0.258c-0.033,0.241-0.033,0.487,0,0.727
	C6.497,7.007,6.319,7.023,6.141,7.05C5.833,7.082,5.528,7.133,5.227,7.203C4.689,7.238,4.278,7.274,3.991,7.307
	C3.754,7.33,3.519,7.381,3.293,7.46v0.053c-0.109,0.001-0.22,0.018-0.324,0.052C2.939,7.591,2.92,7.628,2.918,7.669
	C2.681,7.897,2.615,8.252,2.756,8.55v25.341l0.162,0.053c0.104,0.104,0.233,0.178,0.375,0.209c0.244,0.139,0.496,0.258,0.752,0.359
	c0.869,0.422,1.791,0.717,2.742,0.881c0.536,0.105,1.146,0.191,1.825,0.265c0.229,0.021,0.462,0.028,0.693,0.03h0.073
	c0.481-0.002,0.963-0.049,1.438-0.138c0.877-0.081,1.743-0.255,2.581-0.521c0.844-0.207,1.658-0.521,2.422-0.938h0.053
	c0.064-0.062,0.141-0.112,0.219-0.151l0.214-0.056V8.603h0.055c0,0.003,0,0.009,0,0.013c0.006,0.025,0.024,0.042,0.054,0.038v0.055
	l0.164,0.208h0.053v0.049l0.053,0.052c0,0.003,0,0.009,0,0.012c0.004,0.027,0.027,0.044,0.055,0.042v0.104c0,0.004,0,0.007,0,0.012
	c0.004,0.025,0.029,0.043,0.059,0.039v0.052h0.06v0.052c0.037,0.003,0.075,0.021,0.104,0.052v0.051h0.056v0.053l0.054,0.048
	c0,0.003,0,0.008,0,0.012c0.004,0.027,0.026,0.045,0.055,0.042v0.104h0.055v0.05l0.162,0.104V9.9
	c0.002-0.001,0.006-0.001,0.009-0.001c0.026,0.003,0.047,0.024,0.045,0.052l0.058,0.103v0.057h0.055v0.051
	c0.004-0.001,0.008-0.001,0.014,0c0.023,0.002,0.041,0.024,0.039,0.05c0,0.003,0,0.009,0,0.012c0.004,0.026,0.025,0.046,0.055,0.042
	v0.104h0.063v0.054c0.005-0.001,0.01-0.001,0.014-0.001c0.021,0.004,0.043,0.026,0.039,0.051v0.104
	c0.004-0.001,0.01-0.001,0.016-0.001c0.023,0.002,0.043,0.026,0.041,0.05h0.049l0.057,0.054v0.049h0.054v0.105H18v0.052l0.058,0.052
	v0.104l0.056,0.05v0.053l0.057,0.05v0.054h0.055v0.053l0.056,0.051v0.028l0.054,0.05h0.104v19.194h-0.053v0.051h-0.055v0.06h-0.055
	c0,0.009,0,0.013,0,0.018c-0.005,0.021-0.029,0.042-0.057,0.038l-0.104,0.104v0.832h0.754v-0.104h0.061V31.57l0.054-0.051v-0.056
	h0.104l0.051-0.104c0-0.006,0-0.01,0-0.014c0.004-0.023,0.025-0.046,0.056-0.039V31.26h0.153V11.182
	c-0.041-0.001-0.078-0.02-0.104-0.05v-0.365l-0.162-0.208v-0.052h-0.056v-0.054c-0.002,0.001-0.008,0.001-0.012,0.001
	c-0.023-0.003-0.043-0.025-0.039-0.05L18.833,10.3v-0.051h-0.056v-0.053l-0.058-0.054c0-0.002,0-0.006,0-0.009
	c-0.004-0.026-0.024-0.044-0.055-0.041V9.988h-0.059V9.935l-0.053-0.051V9.828l-0.055-0.051c0-0.002,0-0.006,0-0.009
	c0.002-0.027-0.021-0.044-0.05-0.041V9.623l-0.057-0.051v-0.67l-0.216-0.209V8.636c0,0-0.004,0-0.006,0
	c-0.022,0.001-0.049-0.019-0.049-0.044h-0.048V8.487h-0.055V8.436l-0.056-0.052V8.28L17.86,8.176V8.022L17.807,7.97V7.92
	c-0.004,0-0.008,0-0.014,0c-0.025-0.003-0.043-0.027-0.041-0.053V7.816l-0.056-0.053V7.609h-0.053V7.506l-0.058-0.054V7.403
	L17.536,7.35V7.3h-0.052V7.251l-0.058-0.053V7.094c-0.004,0-0.008,0-0.012,0c-0.021-0.004-0.043-0.028-0.041-0.054V6.937
	c0.002-0.005,0-0.008,0-0.012c-0.004-0.026-0.027-0.042-0.056-0.04V6.781l-0.051-0.05V6.679l-0.058-0.05V6.524h-0.056V6.37h-0.05
	V6.266l-0.055-0.05V6.008l-0.053-0.053v-0.05l-0.056-0.053V5.799l-0.047-0.051V5.699h-0.06V5.594c0-0.002,0-0.006,0-0.009
	c-0.004-0.027-0.024-0.046-0.057-0.043V5.438c0-0.004,0-0.008-0.002-0.012c0-0.026-0.023-0.042-0.049-0.039V5.233
	c-0.002,0-0.008,0-0.01,0c-0.025-0.002-0.047-0.025-0.045-0.052V5.077H16.62V4.974L16.57,4.92V4.869l-0.06-0.052V4.768l-0.055-0.054
	V4.61l-0.052-0.05V4.299l-0.05-0.053c0-0.003,0-0.007,0-0.011c-0.004-0.026-0.027-0.043-0.057-0.039V4.145L16.197,4.04V3.987
	l-0.051-0.051v-0.05l-0.052-0.053V3.674l-0.059-0.049V3.521l-0.054-0.053v-0.05l-0.058-0.053V3.313h-0.051V3.159h-0.056V3.106
	c-0.004,0-0.008,0.001-0.015,0c-0.022-0.003-0.045-0.025-0.038-0.052V2.899l-0.06-0.051V2.796c0.002-0.004,0-0.007,0-0.011
	c-0.004-0.026-0.027-0.043-0.057-0.04v-0.05l-0.045-0.052V2.54h-0.057V2.483l-0.053-0.05V2.329l-0.056-0.051V2.122
	c0.002-0.004,0.002-0.009,0-0.013c-0.004-0.025-0.028-0.042-0.056-0.036V1.968h-0.051V1.864h-0.055V1.708c0-0.003,0-0.007,0-0.011
	c-0.004-0.026-0.027-0.044-0.055-0.039V1.605h-0.057V1.501c-0.004,0.001-0.008,0.001-0.015,0.001
	c-0.022-0.001-0.045-0.024-0.043-0.05V1.349l-0.056-0.054h0.002V1.137l-0.053-0.05V1.034h-0.269v-0.05l-0.05-0.046V0.362h-0.537
	v-0.05L14.141,0.313L14.141,0.313z"/>
<g>
	<g>
		<g>
			<defs>
				<path id="SVGID_1_" d="M15.762,26.677v0.313l-0.004,0.004v1.646c-1.967,0.399-3.961,0.646-5.965,0.729
					c-2.166-0.108-4.322-0.367-6.451-0.776v-1.916c2.103,0.331,4.222,0.539,6.347,0.628C11.723,27.217,13.752,27.009,15.762,26.677
					 M8.154,25.384c0.099,0.023,0.197,0.039,0.297,0.052H8.127L8.154,25.384z M10.762,25.271c0.004-0.026,0.027-0.043,0.053-0.039
					v0.048v0.003h-0.053C10.76,25.28,10.76,25.275,10.762,25.271 M11.891,25.175h0.271l-0.271,0.056V25.175z M7.43,24.711
					c-1.041-0.52-1.807-1.464-2.096-2.591c-0.297-1.026-0.441-2.093-0.432-3.16c0.012-1.565,0.378-3.106,1.075-4.509
					c0.478-1.036,1.175-1.956,2.045-2.694c1.038-0.861,2.06-1.653,3.067-2.378c-0.756,0.909-0.979,2.147-0.59,3.263
					c0.267,1.14,0.822,2.192,1.61,3.058c0.687,0.676,1.248,1.465,1.666,2.332c0.668,1.196,0.912,2.583,0.697,3.936
					c-0.093,0.955-0.604,1.82-1.396,2.358c-0.017,0.027-0.031,0.054-0.052,0.076c-0.313,0.486-0.897,0.715-1.457,0.57
					c0.229-0.197,0.271-0.531,0.104-0.779c-0.289-0.77-0.748-1.457-1.342-2.021c-1.254-1.14-1.684-2.245-1.291-3.314
					c-0.152,0.094-0.297,0.195-0.432,0.313c-0.809,0.767-1.238,1.843-1.182,2.95c-0.026,1.244,0.605,2.402,1.664,3.061
					C8.51,25.148,7.942,24.99,7.43,24.711 M14.141,0.313c-0.027,0.001-0.049,0.024-0.047,0.05h-0.16v0.159
					c-0.324,0.314-0.598,0.679-0.809,1.081V1.395l-0.271-0.104H6.508C6.265,1.319,6.059,1.479,5.969,1.707
					C5.861,1.861,5.786,2.039,5.754,2.228c-0.072,0.146-0.072,0.319,0,0.465H5.654v0.05h-0.05V3.47h0.75
					c0.195,0.036,0.393,0.052,0.591,0.054h0.05v2.282l-0.16,0.208c-0.047,0.088-0.1,0.175-0.158,0.258
					c-0.033,0.241-0.033,0.487,0,0.727C6.497,7.007,6.319,7.023,6.141,7.05C5.833,7.082,5.528,7.133,5.227,7.203
					C4.689,7.238,4.278,7.274,3.991,7.307C3.754,7.33,3.519,7.381,3.293,7.46v0.053c-0.109,0.001-0.22,0.018-0.324,0.052
					C2.939,7.591,2.92,7.628,2.918,7.669C2.681,7.897,2.615,8.252,2.756,8.55v25.341l0.162,0.053
					c0.104,0.104,0.233,0.178,0.375,0.209c0.244,0.139,0.496,0.258,0.752,0.359c0.869,0.422,1.791,0.717,2.742,0.881
					c0.536,0.105,1.146,0.191,1.825,0.265c0.229,0.021,0.462,0.028,0.693,0.03h0.073c0.481-0.002,0.963-0.049,1.438-0.138
					c0.877-0.081,1.743-0.255,2.581-0.521c0.844-0.207,1.658-0.521,2.422-0.938h0.053c0.064-0.062,0.141-0.112,0.219-0.151
					l0.214-0.056V8.603h0.055c0,0.003,0,0.009,0,0.013c0.006,0.025,0.024,0.042,0.054,0.038v0.055l0.164,0.208h0.053v0.049
					l0.053,0.052c0,0.003,0,0.009,0,0.012c0.004,0.027,0.027,0.044,0.055,0.042v0.104c0,0.004,0,0.007,0,0.012
					c0.004,0.025,0.029,0.043,0.059,0.039v0.052h0.06v0.052c0.037,0.003,0.075,0.021,0.104,0.052v0.051h0.056v0.053l0.054,0.048
					c0,0.003,0,0.008,0,0.012c0.004,0.027,0.026,0.045,0.055,0.042v0.104h0.055v0.05l0.162,0.104V9.9
					c0.002-0.001,0.006-0.001,0.009-0.001c0.026,0.003,0.047,0.024,0.045,0.052l0.058,0.103v0.057h0.055v0.051
					c0.004-0.001,0.008-0.001,0.014,0c0.023,0.002,0.041,0.024,0.039,0.05c0,0.003,0,0.009,0,0.012
					c0.004,0.026,0.025,0.046,0.055,0.042v0.104h0.063v0.054c0.005-0.001,0.01-0.001,0.014-0.001
					c0.021,0.004,0.043,0.026,0.039,0.051v0.104c0.004-0.001,0.01-0.001,0.016-0.001c0.023,0.002,0.043,0.026,0.041,0.05h0.049
					l0.057,0.054v0.049h0.054v0.105H18v0.052l0.058,0.052v0.104l0.056,0.05v0.053l0.057,0.05v0.054h0.055v0.053l0.056,0.051v0.028
					l0.054,0.05h0.104v19.194h-0.053v0.051h-0.055v0.06h-0.055c0,0.009,0,0.013,0,0.018c-0.005,0.021-0.029,0.042-0.057,0.038
					l-0.104,0.104v0.832h0.754v-0.104h0.061V31.57l0.054-0.051v-0.056h0.104l0.051-0.104c0-0.006,0-0.01,0-0.014
					c0.004-0.023,0.025-0.046,0.056-0.039V31.26h0.153V11.182c-0.041-0.001-0.078-0.02-0.104-0.05v-0.365l-0.162-0.208v-0.052
					h-0.056v-0.054c-0.002,0.001-0.008,0.001-0.012,0.001c-0.023-0.003-0.043-0.025-0.039-0.05L18.833,10.3v-0.051h-0.056v-0.053
					l-0.058-0.054c0-0.002,0-0.006,0-0.009c-0.004-0.026-0.024-0.044-0.055-0.041V9.988h-0.059V9.935l-0.053-0.051V9.828
					l-0.055-0.051c0-0.002,0-0.006,0-0.009c0.002-0.027-0.021-0.044-0.05-0.041V9.623l-0.057-0.051v-0.67l-0.216-0.209V8.636
					c0,0-0.004,0-0.006,0c-0.022,0.001-0.049-0.019-0.049-0.044h-0.048V8.487h-0.055V8.436l-0.056-0.052V8.28L17.86,8.176V8.022
					L17.807,7.97V7.92c-0.004,0-0.008,0-0.014,0c-0.025-0.003-0.043-0.027-0.041-0.053V7.816l-0.056-0.053V7.609h-0.053V7.506
					l-0.058-0.054V7.403L17.536,7.35V7.3h-0.052V7.251l-0.058-0.053V7.094c-0.004,0-0.008,0-0.012,0
					c-0.021-0.004-0.043-0.028-0.041-0.054V6.937c0.002-0.005,0-0.008,0-0.012c-0.004-0.026-0.027-0.042-0.056-0.04V6.781
					l-0.051-0.05V6.679l-0.058-0.05V6.524h-0.056V6.37h-0.05V6.266l-0.055-0.05V6.008l-0.053-0.053v-0.05l-0.056-0.053V5.799
					l-0.047-0.051V5.699h-0.06V5.594c0-0.002,0-0.006,0-0.009c-0.004-0.027-0.024-0.046-0.057-0.043V5.438
					c0-0.004,0-0.008-0.002-0.012c0-0.026-0.023-0.042-0.049-0.039V5.233c-0.002,0-0.008,0-0.01,0
					c-0.025-0.002-0.047-0.025-0.045-0.052V5.077H16.62V4.974L16.57,4.92V4.869l-0.06-0.052V4.768l-0.055-0.054V4.61l-0.052-0.05
					V4.299l-0.05-0.053c0-0.003,0-0.007,0-0.011c-0.004-0.026-0.027-0.043-0.057-0.039V4.145L16.197,4.04V3.987l-0.051-0.051v-0.05
					l-0.052-0.053V3.674l-0.059-0.049V3.521l-0.054-0.053v-0.05l-0.058-0.053V3.313h-0.051V3.159h-0.056V3.106
					c-0.004,0-0.008,0.001-0.015,0c-0.022-0.003-0.045-0.025-0.038-0.052V2.899l-0.06-0.051V2.796c0.002-0.004,0-0.007,0-0.011
					c-0.004-0.026-0.027-0.043-0.057-0.04v-0.05l-0.045-0.052V2.54h-0.057V2.483l-0.053-0.05V2.329l-0.056-0.051V2.122
					c0.002-0.004,0.002-0.009,0-0.013c-0.004-0.025-0.028-0.042-0.056-0.036V1.968h-0.051V1.864h-0.055V1.708
					c0-0.003,0-0.007,0-0.011c-0.004-0.026-0.027-0.044-0.055-0.039V1.605h-0.057V1.501c-0.004,0.001-0.008,0.001-0.015,0.001
					c-0.022-0.001-0.045-0.024-0.043-0.05V1.349l-0.056-0.054h0.002V1.137l-0.053-0.05V1.034h-0.269v-0.05l-0.05-0.046V0.362h-0.537
					v-0.05L14.141,0.313L14.141,0.313z"/>
			</defs>
			<clipPath id="SVGID_2_">
				<use xlink:href="#SVGID_1_"  overflow="visible"/>
			</clipPath>
			
				<linearGradient id="SVGID_3_" gradientUnits="userSpaceOnUse" x1="-1572.1084" y1="519.5645" x2="-1526.5801" y2="519.5645" gradientTransform="matrix(0.998 -0.0625 0.0625 0.998 1531.1724 -597.9463)">
				<stop  offset="0" style="stop-color:#FFFF13"/>
				<stop  offset="1" style="stop-color:#7411C3"/>
			</linearGradient>
			<path clip-path="url(#SVGID_2_)" fill="url(#SVGID_3_)" d="M2.522,17.164l11.341-6.042L-0.96,20.58l0.543,0.889
				c0,0,28.676-18.854,37.51-21.468c0,0-24.502,15.325-29.155,20.093c0,0,13.448-9.158,17.851-11.281l-5.105,4.229l2.086-1.197
				l-4.633,3.985c0,0,8.713-6.801,18.08-9.804l3.51,3.688c0,0-7.875,0.139-18.658,13.96c0,0,4.01-6.147,5.893-8.397
				c0,0-7.488,5.161-15.065,12.243l5.672-6.326c0,0-5.922,4.566-9.841,9.93c0,0,5.677-9.596,20.548-19.41
				c0,0-8.151,2.359-24.856,15.205c0,0,14.58-8.875,15.317-9.348c0.67-0.467-18.498,13.17-20.502,16.78
				c-2.215,3.62-3.487-14.49-3.487-14.49L2.522,17.164z"/>
		</g>
	</g>
</g>
</svg>
