<?xml version="1.0" encoding="utf-8"?>
<!-- Generator: Adobe Illustrator 16.0.0, SVG Export Plug-In . SVG Version: 6.00 Build 0)  -->
<!DOCTYPE svg PUBLIC "-//W3C//DTD SVG 1.1//EN" "http://www.w3.org/Graphics/SVG/1.1/DTD/svg11.dtd">
<svg version="1.1" id="case1" xmlns="http://www.w3.org/2000/svg" xmlns:xlink="http://www.w3.org/1999/xlink" x="0px" y="0px"
	 width="92px" height="36px" viewBox="0 0 92 36" enable-background="new 0 0 92 36" xml:space="preserve">
<g>
	<defs>
		<path id="mp9_1_" d="M38.085,0.764c0.04-0.038,0.085-0.068,0.135-0.091V0.3c0.18,0.031,0.362,0.046,0.545,0.046v0.092
			c0.182,0,0.363,0.016,0.542,0.046v0.093c0.048,0.006,0.095,0.021,0.138,0.045v0.092c0.05-0.004,0.099,0.013,0.136,0.047V0.9
			c0.044,0.012,0.078,0.047,0.09,0.091l0.09,0.09c0.05,0.024,0.097,0.057,0.137,0.095c0.059,0.03,0.106,0.079,0.135,0.138
			l0.045,0.046c0.122,0.03,0.243,0.064,0.363,0.093v0.093c0.037,0.033,0.086,0.05,0.136,0.046v0.093h33.604
			c0.072,0.036,0.147,0.066,0.228,0.091c0.028,0.031,0.062,0.063,0.089,0.091c0.041,0.038,0.087,0.07,0.137,0.094l0.045,0.093
			c0.033,0.039,0.051,0.088,0.045,0.139c0.025,0.024,0.043,0.058,0.045,0.093v0.046h0.047c0.021,0.05,0.054,0.097,0.092,0.137
			c0.027,0.031,0.181,0.574,0.451,1.622c0.303,1.08,0.572,1.62,0.815,1.62h1.407l0.27-0.091h0.273V5.576h1.314l0.314,0.046
			l0.271,0.092h1.949l0.186,0.093l0.088,0.138l0.5,0.047l-0.045,4.442l-0.046,0.091l-0.046,0.142l-0.182,0.184h-0.18l-0.223-0.046
			v0.048h-3.99l1.77,4.071v0.232c0.006,0.049,0.021,0.096,0.045,0.138v1.295c-0.604,0.057-1.209,0.073-1.813,0.047
			c-0.06-0.031-0.646-1.126-1.769-3.286c-0.479,0.032-0.968,0.063-1.449,0.093c-0.076-0.003-0.154,0.012-0.229,0.045h-0.316
			c0,0.036-0.018,0.069-0.045,0.093c0,0.065-0.016,0.092-0.045,0.092v0.234c-0.002,0.036-0.019,0.069-0.047,0.091
			c0.006,0.049-0.011,0.099-0.043,0.137v2.911c0.029,0.031,0.062,0.063,0.09,0.093v1.2c0.027,0.022,0.043,0.058,0.045,0.093
			c0.031,0.029,0.062,0.063,0.09,0.092c-0.004,0.052,0.016,0.102,0.05,0.141v1.061c-0.004,0.021,0.011,0.041,0.03,0.045
			c0.004,0.002,0.01,0.002,0.015,0c-0.004,0.051,0.013,0.103,0.044,0.143c0.003,0.033,0.02,0.066,0.044,0.094v0.229
			c0.003,0.035,0.021,0.07,0.047,0.095c-0.005,0.05,0.013,0.101,0.046,0.138v0.188c0.025,0.023,0.041,0.057,0.045,0.091
			c0.022,0.043,0.039,0.091,0.045,0.14c0.025,0.024,0.043,0.059,0.045,0.094c0.024,0.022,0.041,0.058,0.045,0.092v0.093
			c0.022,0.049,0.055,0.096,0.092,0.138c0.002,0.036,0.018,0.07,0.045,0.096v0.229c0,0.035,0.018,0.069,0.045,0.093v0.139
			c0.029,0,0.044,0.031,0.044,0.094c0.026,0.023,0.044,0.058,0.047,0.093c0.026,0.022,0.043,0.058,0.045,0.093
			c0.024,0.043,0.039,0.09,0.044,0.139c0.03,0,0.045,0.031,0.045,0.093v0.094c0.03,0.029,0.063,0.063,0.092,0.095
			c-0.004,0.049,0.014,0.098,0.043,0.137V23.1l0.094,0.092v0.318c0.035,0.043,0.066,0.09,0.091,0.141
			c0.028,0,0.045,0.031,0.045,0.093c0.024,0.022,0.042,0.057,0.045,0.092v0.229c0.025,0.022,0.044,0.058,0.046,0.092
			c0.002,0.035,0.02,0.068,0.045,0.094c0.014,0.044,0.049,0.077,0.092,0.091v0.324c0.022,0.051,0.055,0.099,0.092,0.142v0.276
			c-0.004,0.051,0.014,0.103,0.047,0.14l0.09,0.092v0.324c0.025,0.021,0.043,0.055,0.045,0.09c0.038,0.041,0.068,0.088,0.09,0.142
			c0.002,0.034,0.021,0.067,0.045,0.091v0.186c0.006,0.049,0.021,0.097,0.045,0.14c0.002,0.034,0.02,0.067,0.045,0.094v0.46
			l0.045,0.047c0.021,0.053,0.055,0.1,0.09,0.141c0.027,0.022,0.044,0.058,0.046,0.093v2.543c0.005,0.051-0.013,0.101-0.046,0.14
			v0.047c0.033,0.039,0.052,0.088,0.046,0.139v0.048c-0.021,0.05-0.054,0.097-0.091,0.137c0,0.063-0.016,0.097-0.045,0.097
			c-0.024,0.021-0.043,0.055-0.045,0.09c-0.021-0.002-0.043,0.015-0.045,0.037c0,0.002,0,0.006,0,0.008
			c-0.094,0.021-0.184,0.054-0.271,0.095c-0.078-0.002-0.155,0.015-0.228,0.045c-0.052,0.022-0.098,0.056-0.138,0.093
			c-0.053,0.037-0.116,0.055-0.181,0.047c-0.07,0.032-0.146,0.049-0.229,0.045c-0.029,0.031-0.06,0.063-0.09,0.094
			c-0.063,0.003-0.124,0.018-0.181,0.046c-0.152,0-0.306,0.016-0.454,0.047h-0.091c-0.058,0.028-0.119,0.045-0.185,0.047
			c-0.197-0.002-0.395,0.015-0.59,0.045c-0.072,0.036-0.148,0.065-0.227,0.093c-0.516,0.03-1.028,0.047-1.541,0.047
			c-0.03,0.031-0.063,0.063-0.092,0.094c-0.063,0-0.125,0.017-0.182,0.045c-0.3,0.033-0.6,0.064-0.906,0.095
			c-0.035,0.002-0.067,0.019-0.092,0.045c-0.076,0.024-0.15,0.058-0.226,0.093c-0.078-0.024-0.153-0.058-0.228-0.093
			c-0.043-0.022-0.09-0.038-0.138-0.045h-0.04c-0.079,0.003-0.156-0.015-0.229-0.047c-0.063-0.042-0.123-0.089-0.183-0.138
			c-0.038-0.041-0.084-0.071-0.135-0.096c-0.037-0.039-0.067-0.086-0.091-0.138v-0.049c-0.024-0.043-0.04-0.091-0.045-0.14v-0.09
			c-0.032-0.037-0.049-0.088-0.045-0.14c-0.023-0.024-0.059-0.043-0.094-0.045V30.27c-0.037-0.043-0.065-0.09-0.09-0.142
			c-0.031-0.028-0.063-0.06-0.092-0.093c-0.002-0.035-0.02-0.069-0.045-0.094v-0.139L68.833,29.7v-0.188
			c-0.022-0.05-0.054-0.097-0.09-0.138c-0.03-0.031-0.058-0.062-0.091-0.091V29.1c0.004-0.05-0.012-0.099-0.043-0.138
			c-0.014-0.044-0.049-0.078-0.092-0.092c-0.008-0.05-0.021-0.097-0.045-0.142V28.54c0.004-0.052-0.014-0.101-0.047-0.14v-0.504
			c-0.035-0.041-0.066-0.088-0.09-0.139c-0.035-0.002-0.068-0.02-0.092-0.047c-0.031-0.023-0.051-0.063-0.053-0.102L68.1,27.52
			c-0.004-0.052-0.02-0.1-0.045-0.143v-0.42c0-0.038-0.016-0.073-0.043-0.102c-0.003-0.033-0.02-0.065-0.045-0.09v-0.553
			c-0.031-0.029-0.063-0.063-0.094-0.09c-0.032-0.04-0.048-0.091-0.044-0.143v-0.83c-0.026-0.023-0.042-0.057-0.044-0.094
			c-0.028-0.022-0.045-0.058-0.045-0.095c0.004-0.051-0.014-0.101-0.047-0.138v-1.479c0-0.035-0.017-0.07-0.043-0.094
			c-0.032-0.029-0.063-0.063-0.092-0.091c-0.033-0.039-0.052-0.091-0.045-0.142V21.37c-0.037-0.041-0.068-0.088-0.093-0.14v-1.987
			c-0.022-0.042-0.04-0.091-0.045-0.14c-0.044-0.013-0.079-0.047-0.091-0.09v-2c0.004-0.05-0.014-0.101-0.044-0.14
			c-0.038-0.033-0.087-0.049-0.14-0.045c-0.004-0.05-0.02-0.098-0.045-0.14V16.36c-0.059-0.03-0.104-0.079-0.135-0.138
			c-0.023-0.026-0.057-0.042-0.092-0.045v-0.372c0.004-0.021-0.012-0.042-0.033-0.045c-0.004-0.001-0.007-0.001-0.011,0
			l-0.093-0.091l-0.09-0.047c-0.095-0.022-0.186-0.053-0.271-0.092c-0.053-0.016-0.1-0.049-0.134-0.093V15.39
			c-0.022-0.027-0.056-0.043-0.091-0.047c-0.094,0.001-0.187-0.014-0.272-0.043h-0.771c-0.078,0.003-0.154,0.019-0.229,0.046
			c0.004,0.05-0.012,0.1-0.044,0.139c-0.065,0.018-0.129,0.05-0.183,0.094c-0.066,0.036-0.131,0.082-0.184,0.137
			c0.004,0.021-0.01,0.042-0.029,0.046c-0.006,0-0.01,0.001-0.014,0V15.9c-0.033,0.045-0.082,0.078-0.137,0.093
			c-0.037,0.042-0.068,0.088-0.092,0.139c-0.049,0.023-0.096,0.055-0.135,0.092c-0.045,0.012-0.078,0.046-0.09,0.09l-0.046,0.1
			c-0.061,0.029-0.106,0.078-0.138,0.138c-0.039,0.039-0.086,0.07-0.137,0.093c-0.029,0.031-0.061,0.062-0.09,0.091l-0.049,0.093
			c-0.08,0.009-0.158,0.04-0.225,0.091l-0.137,0.14c-0.034,0.004-0.066,0.02-0.09,0.047c0.004,0.052-0.015,0.102-0.05,0.139
			c-0.049,0.024-0.095,0.055-0.134,0.092c-0.038,0.041-0.066,0.088-0.092,0.138c-0.021,0.028-0.057,0.045-0.092,0.045
			c-0.063,0.064-0.141,0.111-0.227,0.138c-0.011,0.047-0.045,0.083-0.092,0.096c-0.029,0.031-0.076,0.076-0.136,0.138
			c-0.05,0.024-0.095,0.057-0.134,0.094l-0.092,0.094c-0.023,0.051-0.056,0.098-0.091,0.139L61.814,18.3l-0.092,0.097
			c-0.088,0.028-0.18,0.045-0.271,0.045c-0.063,0.029-0.121,0.062-0.186,0.092c-0.021,0.051-0.052,0.098-0.09,0.14
			c-0.054,0.015-0.102,0.048-0.136,0.091c-0.091,0.032-0.181,0.063-0.271,0.092c-0.121,0.033-0.229,0.063-0.318,0.096
			c-0.064,0.041-0.125,0.088-0.184,0.138c-0.069,0.007-0.137,0.039-0.182,0.095l-0.18,0.092c-0.107-0.002-0.217,0.014-0.316,0.047
			h-0.27c-0.241,0.029-0.5,0.062-0.771,0.09c-0.076,0.027-0.152,0.059-0.226,0.094H56.42c-0.087-0.041-0.178-0.072-0.271-0.094
			c-0.148-0.03-0.316-0.063-0.5-0.09h-0.225c-0.041-0.105-0.123-0.188-0.227-0.231c-0.006-0.049-0.021-0.096-0.045-0.138
			c-0.051-0.023-0.096-0.057-0.135-0.094c-0.088-0.039-0.182-0.07-0.272-0.092c0.006-0.045-0.024-0.086-0.069-0.093
			c-0.008-0.001-0.016-0.001-0.023,0c-0.06-0.028-0.105-0.077-0.135-0.14c-0.039-0.038-0.086-0.068-0.137-0.092
			c-0.003,0.035-0.02,0.068-0.046,0.092c-0.022,0.043-0.038,0.091-0.044,0.14c-0.045,0.013-0.08,0.048-0.092,0.093v0.092
			c-0.025,0.023-0.041,0.059-0.045,0.094c-0.023,0.042-0.039,0.089-0.045,0.138c-0.045,0.013-0.078,0.048-0.09,0.093
			c-0.006,0.049-0.021,0.096-0.045,0.139c-0.035,0.003-0.068,0.021-0.093,0.047v0.23c-0.03,0.039-0.05,0.088-0.045,0.139
			l-0.045,0.046c-0.022,0.044-0.04,0.091-0.046,0.141c-0.029,0.032-0.063,0.063-0.09,0.095v0.321
			c0.004,0.052-0.014,0.101-0.047,0.14l-0.047,0.096l-0.09,0.09v0.322c-0.025,0.021-0.043,0.057-0.045,0.092
			c0,0.063-0.016,0.093-0.047,0.093c-0.023,0.042-0.039,0.089-0.044,0.138c-0.026,0.024-0.044,0.061-0.046,0.097
			c-0.037,0.04-0.068,0.088-0.092,0.138v0.188c-0.006,0.049-0.02,0.096-0.044,0.139c-0.046,0.012-0.079,0.047-0.091,0.092
			c-0.002,0.036-0.02,0.068-0.045,0.094v0.092c-0.023,0.043-0.039,0.09-0.045,0.14v0.603l-0.045,0.09
			c-0.023,0.045-0.039,0.092-0.043,0.143l-0.096,0.09v0.646c-0.025,0.021-0.043,0.058-0.045,0.092
			c-0.006,0.05-0.021,0.097-0.045,0.139c-0.029,0.031-0.063,0.063-0.09,0.094v0.648c-0.026,0.021-0.045,0.055-0.047,0.09
			c-0.031,0.039-0.049,0.09-0.045,0.141v6.01l-0.047,0.094c-0.035,0.043-0.063,0.09-0.088,0.139
			c-0.029,0.033-0.063,0.063-0.093,0.096h-0.188V32.3h-7.89v-0.94h-0.905c-0.035,0.002-0.067,0.021-0.091,0.048h-0.951
			c-0.079,0.002-0.157-0.015-0.228-0.048c-0.06-0.063-0.106-0.107-0.135-0.139c-0.029-0.029-0.062-0.063-0.092-0.095V30.8
			c-0.03-0.03-0.061-0.063-0.09-0.093c-0.038-0.042-0.069-0.089-0.093-0.141V29.32c-0.032-0.037-0.047-0.088-0.044-0.137v-2.219
			c0.028-0.025,0.044-0.063,0.044-0.102V24.65c0.028-0.022,0.044-0.057,0.046-0.094c0.061-0.063,0.106-0.104,0.136-0.139v-0.646
			c0.003-0.035,0.02-0.067,0.046-0.092c0.028-0.031,0.06-0.062,0.09-0.094c0.005-0.049,0.021-0.096,0.044-0.139v-0.186
			c0.003-0.035,0.019-0.066,0.046-0.092v-0.646c0.027-0.023,0.043-0.059,0.045-0.094c0.062-0.063,0.106-0.107,0.135-0.139
			c0.027-0.021,0.044-0.059,0.047-0.094c0.037-0.041,0.068-0.088,0.091-0.139l0.044-0.047v-0.14
			c0.001-0.036,0.018-0.069,0.046-0.093c0.005-0.049,0.02-0.096,0.044-0.139v-0.185c0.026-0.022,0.043-0.058,0.046-0.093
			c0.031-0.039,0.048-0.09,0.045-0.141c0.025-0.021,0.042-0.057,0.044-0.092V21.05l0.045-0.091c0.006-0.05,0.021-0.098,0.045-0.143
			c0.041-0.037,0.086-0.066,0.138-0.09c0.029-0.031,0.06-0.063,0.09-0.093v-0.141c0.025-0.022,0.041-0.058,0.043-0.093
			c0.035-0.039,0.052-0.088,0.048-0.139V20.08c0.028-0.033,0.059-0.063,0.091-0.102c0.006-0.047,0.021-0.096,0.044-0.139
			c0.022-0.025,0.058-0.044,0.092-0.047c0.022-0.051,0.054-0.098,0.091-0.139v-0.09c0.004-0.049,0.021-0.096,0.043-0.139
			c0.028-0.023,0.047-0.056,0.051-0.092v-0.23c0.043-0.013,0.078-0.047,0.091-0.092c0.026-0.021,0.042-0.056,0.045-0.091
			c0.002-0.034,0.019-0.067,0.044-0.093c0.021-0.053,0.052-0.1,0.09-0.141c0.045-0.013,0.081-0.047,0.094-0.092
			c0.004-0.05,0.021-0.097,0.045-0.14V18.27l0.088-0.092c0.041-0.039,0.072-0.088,0.093-0.14v-0.276
			c0.005-0.049,0.021-0.096,0.046-0.139l0.09-0.094c0.001-0.035,0.018-0.068,0.044-0.092v-0.43c-0.003-0.051,0.013-0.101,0.046-0.14
			v-0.693c-0.027-0.024-0.043-0.058-0.046-0.094v-0.231c-0.026-0.024-0.042-0.057-0.044-0.093c-0.029-0.031-0.061-0.061-0.09-0.091
			c-0.023-0.043-0.04-0.091-0.046-0.14l-0.089-0.092c-0.037-0.04-0.067-0.086-0.09-0.136v-0.049
			c-0.025-0.042-0.041-0.089-0.045-0.138l-0.094-0.093c-0.037-0.042-0.066-0.089-0.09-0.139l-0.044-0.045
			c0.004-0.051-0.013-0.102-0.045-0.141c-0.041-0.037-0.088-0.068-0.138-0.091c-0.031-0.04-0.047-0.089-0.045-0.139V14.37
			c-0.039-0.038-0.086-0.068-0.136-0.091c-0.045-0.036-0.077-0.085-0.09-0.141l-7.439,0.048c-1.724,0.031-3.447,0.046-5.169,0.046
			c-0.038,0.041-0.069,0.087-0.093,0.138c-0.035,0.002-0.068,0.018-0.091,0.045h-0.317c-0.078-0.003-0.154-0.018-0.227-0.045
			c-0.061-0.031-0.118-0.063-0.18-0.091c-0.023-0.051-0.055-0.099-0.092-0.141c-0.043-0.013-0.078-0.047-0.09-0.091v-0.138
			c-0.022-0.028-0.055-0.045-0.091-0.049c-0.025-0.043-0.04-0.091-0.044-0.14l-0.093-0.09V9.98h-0.814l-0.27-0.091l-0.09-0.091
			C28,9.8,27.966,9.816,27.943,9.844c-0.078-0.026-0.153-0.057-0.227-0.093c-0.038-0.042-0.069-0.089-0.092-0.14
			c-0.044-0.012-0.079-0.046-0.09-0.091V9.372H6.565V10.2l-0.044,0.1l-0.049,0.047V10.9H6.52l0.044,0.045L6.52,11.038l-0.819,9.071
			l-0.044,0.045v0.094L5.611,20.3l-0.409,1.386L3.75,21.822V6.594h0.093l0.181-0.045V6.5h0.091L4.25,6.594l0.09,0.093v0.092h2.361
			l0.135,0.046L6.882,6.87l0.09,0.046H28.56c0.756,0,1.511-0.016,2.266-0.046h0.273V2.151c0.002-0.035,0.018-0.068,0.045-0.091
			c0.059-0.03,0.106-0.079,0.135-0.139h0.182c0.027-0.024,0.043-0.057,0.046-0.093l0.043-0.047c0.022-0.027,0.055-0.044,0.09-0.046
			h0.182V1.689h5.848V1.134c0.078-0.004,0.154-0.02,0.227-0.048V0.9C37.951,0.844,38.015,0.797,38.085,0.764z M57.357,17.055
			c-0.729-0.715-1.182-1.667-1.271-2.685c-0.11,0.085-0.218,0.178-0.315,0.278c-0.383,0.387-0.691,0.842-0.908,1.342l0.139,0.139
			c0.746,0.77,1.744,1.245,2.811,1.342C57.652,17.342,57.5,17.203,57.357,17.055z M62.346,14.835
			c-0.061-0.062-0.121-0.126-0.181-0.186c-0.824-0.873-1.976-1.359-3.176-1.342c-0.464-0.003-0.925,0.075-1.36,0.23
			c-0.064,0.305-0.096,0.615-0.092,0.926c-0.016,1.102,0.373,2.171,1.09,3.008c1.057-0.093,2.041-0.569,2.768-1.342
			c0.381-0.382,0.703-0.818,0.955-1.294H62.346z M42.527,30.152v-0.092h-0.046c-0.004,0.051,0.013,0.102,0.046,0.14V30.152
			L42.527,30.152z"/>
	</defs>
	<clipPath id="mp9_2_">
		<use xlink:href="#mp9_1_"  overflow="visible"/>
	</clipPath>
	<linearGradient id="mp9_3_" gradientUnits="userSpaceOnUse" x1="3.75" y1="16.2998" x2="82.748" y2="16.2998">
		<stop  offset="0" style="stop-color:#5400D7"/>
		<stop  offset="1" style="stop-color:#9178E2"/>
	</linearGradient>
	<path id="mp9" clip-path="url(#mp9_2_)" fill="url(#mp9_3_)" d="M38.085,0.764c0.04-0.038,0.085-0.068,0.135-0.091V0.3
		c0.18,0.031,0.362,0.046,0.545,0.046v0.092c0.182,0,0.363,0.016,0.542,0.046v0.093c0.048,0.006,0.095,0.021,0.138,0.045v0.092
		c0.05-0.004,0.099,0.013,0.136,0.047V0.9c0.044,0.012,0.078,0.047,0.09,0.091l0.09,0.09c0.05,0.024,0.097,0.057,0.137,0.095
		c0.059,0.03,0.106,0.079,0.135,0.138l0.045,0.046c0.122,0.03,0.243,0.064,0.363,0.093v0.093c0.037,0.033,0.086,0.05,0.136,0.046
		v0.093h33.604c0.072,0.036,0.147,0.066,0.228,0.091c0.028,0.031,0.062,0.063,0.089,0.091c0.041,0.038,0.087,0.07,0.137,0.094
		l0.045,0.093c0.033,0.039,0.051,0.088,0.045,0.139c0.025,0.024,0.043,0.058,0.045,0.093v0.046h0.047
		c0.021,0.05,0.054,0.097,0.092,0.137c0.027,0.031,0.181,0.574,0.451,1.622c0.303,1.08,0.572,1.62,0.815,1.62h1.407l0.27-0.091
		h0.273V5.576h1.314l0.314,0.046l0.271,0.092h1.949l0.186,0.093l0.088,0.138l0.5,0.047l-0.045,4.442l-0.046,0.091l-0.046,0.142
		l-0.182,0.184h-0.18l-0.223-0.046v0.048h-3.99l1.77,4.071v0.232c0.006,0.049,0.021,0.096,0.045,0.138v1.295
		c-0.604,0.057-1.209,0.073-1.813,0.047c-0.06-0.031-0.646-1.126-1.769-3.286c-0.479,0.032-0.968,0.063-1.449,0.093
		c-0.076-0.003-0.154,0.012-0.229,0.045h-0.316c0,0.036-0.018,0.069-0.045,0.093c0,0.065-0.016,0.092-0.045,0.092v0.234
		c-0.002,0.036-0.019,0.069-0.047,0.091c0.006,0.049-0.011,0.099-0.043,0.137v2.911c0.029,0.031,0.062,0.063,0.09,0.093v1.2
		c0.027,0.023,0.043,0.057,0.045,0.093c0.031,0.029,0.062,0.062,0.09,0.091c-0.004,0.052,0.016,0.102,0.05,0.141v1.061
		c-0.004,0.021,0.011,0.041,0.03,0.045c0.004,0.002,0.01,0.002,0.015,0c-0.004,0.051,0.013,0.103,0.044,0.143
		c0.003,0.033,0.02,0.066,0.044,0.094v0.229c0.003,0.035,0.021,0.07,0.047,0.095c-0.005,0.05,0.013,0.101,0.046,0.138v0.188
		c0.025,0.023,0.041,0.057,0.045,0.091c0.022,0.043,0.039,0.091,0.045,0.14c0.025,0.024,0.043,0.059,0.045,0.094
		c0.024,0.022,0.041,0.058,0.045,0.092v0.093c0.022,0.049,0.055,0.096,0.092,0.138c0.002,0.036,0.018,0.07,0.045,0.096v0.229
		c0,0.035,0.018,0.069,0.045,0.093v0.139c0.029,0,0.044,0.031,0.044,0.094c0.026,0.023,0.044,0.058,0.047,0.093
		c0.026,0.022,0.043,0.058,0.045,0.093c0.024,0.043,0.039,0.09,0.044,0.139c0.03,0,0.045,0.031,0.045,0.093v0.094
		c0.03,0.029,0.063,0.063,0.092,0.095c-0.004,0.049,0.014,0.098,0.043,0.137V23.1l0.094,0.092v0.318
		c0.035,0.043,0.066,0.09,0.091,0.141c0.028,0,0.045,0.031,0.045,0.093c0.024,0.022,0.042,0.057,0.045,0.092v0.229
		c0.025,0.022,0.044,0.058,0.046,0.092c0.002,0.035,0.02,0.068,0.045,0.094c0.014,0.044,0.049,0.077,0.092,0.091v0.324
		c0.022,0.051,0.055,0.099,0.092,0.142v0.276c-0.004,0.051,0.014,0.103,0.047,0.14l0.09,0.092v0.324
		c0.025,0.021,0.043,0.055,0.045,0.09c0.038,0.041,0.068,0.088,0.09,0.142c0.002,0.034,0.021,0.067,0.045,0.091v0.186
		c0.006,0.049,0.021,0.097,0.045,0.14c0.002,0.034,0.02,0.067,0.045,0.094v0.46l0.045,0.047c0.021,0.053,0.055,0.1,0.09,0.141
		c0.027,0.022,0.044,0.058,0.046,0.093v2.543c0.005,0.051-0.013,0.101-0.046,0.14v0.047c0.033,0.039,0.052,0.088,0.046,0.139v0.048
		c-0.021,0.05-0.054,0.097-0.091,0.137c0,0.063-0.016,0.097-0.045,0.097c-0.024,0.021-0.043,0.055-0.045,0.09
		c-0.021-0.002-0.043,0.015-0.045,0.037c0,0.002,0,0.006,0,0.008c-0.094,0.021-0.184,0.054-0.271,0.095
		c-0.078-0.002-0.155,0.015-0.228,0.045c-0.052,0.022-0.098,0.056-0.138,0.093c-0.053,0.037-0.116,0.055-0.181,0.047
		c-0.07,0.032-0.146,0.049-0.229,0.045c-0.029,0.031-0.06,0.063-0.09,0.094c-0.063,0.003-0.124,0.018-0.181,0.046
		c-0.152,0-0.306,0.016-0.454,0.047h-0.091c-0.058,0.028-0.119,0.045-0.185,0.047c-0.197-0.002-0.395,0.015-0.59,0.045
		c-0.072,0.036-0.148,0.065-0.227,0.093c-0.516,0.03-1.028,0.047-1.541,0.047c-0.03,0.031-0.063,0.063-0.092,0.094
		c-0.063,0-0.125,0.017-0.182,0.045c-0.3,0.033-0.6,0.064-0.906,0.095c-0.035,0.002-0.067,0.019-0.092,0.045
		c-0.076,0.024-0.15,0.058-0.226,0.093c-0.078-0.024-0.153-0.058-0.228-0.093c-0.043-0.022-0.09-0.038-0.138-0.045h-0.04
		c-0.079,0.003-0.156-0.015-0.229-0.047c-0.063-0.042-0.123-0.089-0.183-0.138c-0.038-0.041-0.084-0.071-0.135-0.096
		c-0.037-0.039-0.067-0.086-0.091-0.138v-0.049c-0.024-0.043-0.04-0.091-0.045-0.14v-0.09c-0.032-0.037-0.049-0.088-0.045-0.14
		c-0.023-0.024-0.059-0.043-0.094-0.045V30.27c-0.037-0.043-0.065-0.09-0.09-0.142c-0.031-0.028-0.063-0.06-0.092-0.093
		c-0.002-0.035-0.02-0.069-0.045-0.094v-0.139L68.833,29.7v-0.188c-0.022-0.05-0.054-0.097-0.09-0.138
		c-0.03-0.031-0.058-0.062-0.091-0.091V29.1c0.004-0.05-0.012-0.099-0.043-0.138c-0.014-0.044-0.049-0.078-0.092-0.092
		c-0.008-0.05-0.021-0.097-0.045-0.142V28.54c0.004-0.052-0.014-0.101-0.047-0.14v-0.504c-0.035-0.041-0.066-0.088-0.09-0.139
		c-0.035-0.002-0.068-0.02-0.092-0.047c-0.031-0.023-0.051-0.063-0.053-0.102L68.1,27.52c-0.004-0.052-0.02-0.1-0.045-0.143v-0.42
		c0-0.038-0.016-0.073-0.043-0.102c-0.003-0.033-0.02-0.065-0.045-0.09v-0.553c-0.031-0.029-0.063-0.063-0.094-0.09
		c-0.032-0.04-0.048-0.091-0.044-0.143v-0.83c-0.026-0.023-0.042-0.057-0.044-0.094c-0.028-0.022-0.045-0.058-0.045-0.095
		c0.004-0.051-0.014-0.101-0.047-0.138v-1.479c0-0.035-0.017-0.07-0.043-0.094c-0.032-0.029-0.063-0.063-0.092-0.091
		c-0.033-0.039-0.052-0.091-0.045-0.142V21.37c-0.037-0.041-0.068-0.088-0.093-0.14v-1.987c-0.022-0.042-0.04-0.091-0.045-0.14
		c-0.044-0.013-0.079-0.047-0.091-0.09v-2c0.004-0.05-0.014-0.101-0.044-0.14c-0.038-0.033-0.087-0.049-0.14-0.045
		c-0.004-0.05-0.02-0.098-0.045-0.14V16.36c-0.059-0.03-0.104-0.079-0.135-0.138c-0.023-0.026-0.057-0.042-0.092-0.045v-0.372
		c0.004-0.021-0.012-0.042-0.033-0.045c-0.004-0.001-0.007-0.001-0.011,0l-0.093-0.091l-0.09-0.047
		c-0.095-0.022-0.186-0.053-0.271-0.092c-0.053-0.016-0.1-0.049-0.134-0.093V15.39c-0.022-0.027-0.056-0.043-0.091-0.047
		c-0.094,0.001-0.187-0.014-0.272-0.043h-0.771c-0.078,0.003-0.154,0.019-0.229,0.046c0.004,0.05-0.012,0.1-0.044,0.139
		c-0.065,0.018-0.129,0.05-0.183,0.094c-0.066,0.036-0.131,0.082-0.184,0.137c0.004,0.021-0.01,0.042-0.029,0.046
		c-0.006,0-0.01,0.001-0.014,0V15.9c-0.033,0.045-0.082,0.078-0.137,0.093c-0.037,0.042-0.068,0.088-0.092,0.139
		c-0.049,0.023-0.096,0.055-0.135,0.092c-0.045,0.012-0.078,0.046-0.09,0.09l-0.046,0.1c-0.061,0.029-0.106,0.078-0.138,0.138
		c-0.039,0.039-0.086,0.07-0.137,0.093c-0.029,0.031-0.061,0.062-0.09,0.091l-0.049,0.093c-0.08,0.009-0.158,0.04-0.225,0.091
		l-0.137,0.14c-0.034,0.004-0.066,0.02-0.09,0.047c0.004,0.052-0.015,0.102-0.05,0.139c-0.049,0.024-0.095,0.055-0.134,0.092
		c-0.038,0.041-0.066,0.088-0.092,0.138c-0.021,0.028-0.057,0.045-0.092,0.046c-0.063,0.064-0.141,0.111-0.227,0.137
		c-0.011,0.047-0.045,0.083-0.092,0.096c-0.029,0.031-0.076,0.076-0.136,0.138c-0.05,0.024-0.095,0.056-0.134,0.093l-0.092,0.094
		c-0.023,0.051-0.056,0.098-0.091,0.139L61.814,18.3l-0.092,0.096c-0.088,0.029-0.18,0.045-0.271,0.045
		c-0.063,0.029-0.121,0.062-0.186,0.092c-0.021,0.051-0.052,0.098-0.09,0.14c-0.054,0.015-0.102,0.048-0.136,0.091
		c-0.091,0.032-0.181,0.063-0.271,0.092c-0.121,0.033-0.229,0.063-0.318,0.096c-0.064,0.041-0.125,0.088-0.184,0.138
		c-0.069,0.007-0.137,0.039-0.182,0.095l-0.18,0.092c-0.107-0.002-0.217,0.014-0.316,0.047h-0.27c-0.241,0.029-0.5,0.062-0.771,0.09
		c-0.076,0.027-0.152,0.059-0.226,0.094H56.42c-0.087-0.041-0.178-0.072-0.271-0.094c-0.148-0.03-0.316-0.063-0.5-0.09h-0.225
		c-0.041-0.105-0.123-0.188-0.227-0.231c-0.006-0.049-0.021-0.096-0.045-0.138c-0.051-0.023-0.096-0.057-0.135-0.094
		c-0.088-0.039-0.182-0.07-0.272-0.092c0.006-0.045-0.024-0.086-0.069-0.093c-0.008-0.001-0.016-0.001-0.023,0
		c-0.06-0.028-0.105-0.077-0.135-0.14c-0.039-0.038-0.086-0.068-0.137-0.092c-0.003,0.035-0.02,0.069-0.046,0.092
		c-0.022,0.043-0.038,0.091-0.044,0.14c-0.045,0.013-0.08,0.048-0.092,0.093v0.092c-0.025,0.023-0.041,0.059-0.045,0.094
		c-0.023,0.042-0.039,0.089-0.045,0.138c-0.045,0.013-0.078,0.048-0.09,0.093c-0.006,0.049-0.021,0.096-0.045,0.139
		c-0.035,0.003-0.068,0.021-0.093,0.047v0.23c-0.03,0.039-0.05,0.088-0.045,0.139l-0.045,0.046c-0.022,0.044-0.04,0.091-0.046,0.141
		c-0.029,0.032-0.063,0.063-0.09,0.095v0.321c0.004,0.052-0.014,0.101-0.047,0.14l-0.047,0.096l-0.09,0.09v0.322
		c-0.025,0.021-0.043,0.057-0.045,0.092c0,0.063-0.016,0.093-0.047,0.093c-0.023,0.042-0.039,0.089-0.044,0.138
		c-0.026,0.024-0.044,0.061-0.046,0.097c-0.037,0.04-0.068,0.088-0.092,0.138v0.188c-0.006,0.049-0.02,0.096-0.044,0.139
		c-0.046,0.012-0.079,0.047-0.091,0.092c-0.002,0.036-0.02,0.068-0.045,0.094v0.092c-0.023,0.043-0.039,0.09-0.045,0.14v0.603
		l-0.045,0.09c-0.023,0.045-0.039,0.092-0.043,0.143l-0.096,0.09v0.646c-0.025,0.021-0.043,0.058-0.045,0.092
		c-0.006,0.05-0.021,0.097-0.045,0.139c-0.029,0.031-0.063,0.063-0.09,0.094v0.648c-0.026,0.021-0.045,0.055-0.047,0.09
		c-0.031,0.039-0.049,0.09-0.045,0.141v6.01l-0.047,0.094c-0.035,0.043-0.063,0.09-0.088,0.139
		c-0.029,0.033-0.063,0.063-0.093,0.096h-0.188V32.3h-7.89v-0.94h-0.906c-0.035,0.002-0.067,0.021-0.09,0.048h-0.951
		c-0.079,0.002-0.157-0.015-0.228-0.048c-0.06-0.063-0.106-0.107-0.135-0.139c-0.029-0.029-0.062-0.063-0.092-0.095V30.8
		c-0.03-0.03-0.061-0.063-0.09-0.093c-0.038-0.042-0.069-0.089-0.093-0.141V29.32c-0.032-0.037-0.047-0.088-0.044-0.137v-2.219
		c0.028-0.025,0.044-0.063,0.044-0.102V24.65c0.028-0.022,0.044-0.057,0.046-0.094c0.061-0.063,0.106-0.104,0.136-0.139v-0.646
		c0.003-0.035,0.02-0.067,0.046-0.092c0.028-0.031,0.06-0.062,0.09-0.094c0.005-0.049,0.021-0.096,0.044-0.139v-0.186
		c0.003-0.035,0.019-0.066,0.046-0.092v-0.646c0.027-0.023,0.043-0.059,0.045-0.094c0.062-0.063,0.106-0.107,0.135-0.139
		c0.027-0.021,0.044-0.059,0.047-0.094c0.037-0.041,0.068-0.088,0.091-0.139l0.044-0.047v-0.14c0.001-0.036,0.018-0.069,0.046-0.093
		c0.005-0.049,0.02-0.096,0.044-0.139v-0.185c0.027-0.022,0.043-0.058,0.046-0.093c0.032-0.039,0.048-0.09,0.045-0.141
		c0.026-0.021,0.042-0.057,0.044-0.092V21.05l0.045-0.091c0.006-0.05,0.021-0.098,0.045-0.143c0.041-0.037,0.086-0.066,0.137-0.09
		c0.03-0.031,0.06-0.063,0.09-0.093v-0.141c0.026-0.022,0.042-0.058,0.044-0.093c0.034-0.039,0.051-0.088,0.047-0.139V20.08
		c0.029-0.033,0.059-0.063,0.091-0.102c0.006-0.047,0.021-0.096,0.044-0.139c0.023-0.025,0.057-0.044,0.092-0.047
		c0.022-0.051,0.053-0.098,0.09-0.139v-0.09c0.005-0.049,0.021-0.096,0.044-0.139c0.028-0.023,0.046-0.056,0.05-0.092v-0.23
		c0.044-0.013,0.078-0.047,0.091-0.092c0.026-0.021,0.042-0.056,0.045-0.091c0.002-0.034,0.018-0.067,0.044-0.093
		c0.022-0.053,0.052-0.1,0.09-0.141c0.045-0.013,0.081-0.047,0.093-0.092c0.005-0.05,0.021-0.097,0.045-0.14V18.27l0.089-0.092
		c0.04-0.04,0.071-0.088,0.092-0.14v-0.276c0.005-0.049,0.021-0.096,0.046-0.139l0.09-0.093c0.001-0.036,0.018-0.069,0.044-0.093
		v-0.43c-0.003-0.051,0.013-0.101,0.046-0.14v-0.693c-0.027-0.024-0.043-0.058-0.046-0.094v-0.231
		c-0.026-0.024-0.042-0.057-0.044-0.093c-0.03-0.031-0.06-0.061-0.09-0.091c-0.024-0.043-0.04-0.091-0.046-0.14l-0.089-0.092
		c-0.037-0.04-0.067-0.086-0.09-0.136v-0.049c-0.025-0.042-0.041-0.089-0.045-0.138l-0.093-0.093
		c-0.037-0.042-0.067-0.089-0.09-0.139l-0.044-0.045c0.004-0.051-0.012-0.102-0.045-0.141c-0.041-0.037-0.088-0.068-0.138-0.091
		c-0.031-0.04-0.047-0.089-0.044-0.139V14.37c-0.04-0.038-0.086-0.068-0.136-0.091c-0.045-0.036-0.077-0.085-0.09-0.141
		l-7.439,0.048c-1.724,0.031-3.447,0.046-5.169,0.046c-0.038,0.041-0.069,0.087-0.093,0.138c-0.035,0.002-0.068,0.018-0.091,0.045
		h-0.317c-0.078-0.003-0.154-0.018-0.227-0.045c-0.061-0.031-0.118-0.063-0.18-0.091c-0.023-0.051-0.055-0.099-0.092-0.141
		c-0.043-0.013-0.078-0.047-0.09-0.091v-0.138c-0.022-0.028-0.055-0.045-0.091-0.049c-0.025-0.043-0.04-0.091-0.044-0.14
		l-0.093-0.09V9.98h-0.814l-0.27-0.091l-0.09-0.091C28,9.8,27.966,9.816,27.943,9.844c-0.078-0.026-0.153-0.057-0.227-0.093
		c-0.038-0.042-0.069-0.089-0.092-0.14c-0.044-0.012-0.079-0.046-0.09-0.091V9.372H6.565V10.2l-0.044,0.1l-0.049,0.047V10.9H6.52
		l0.044,0.045L6.52,11.038l-0.819,9.071l-0.044,0.045v0.094L5.611,20.3l-0.409,1.386L3.75,21.822V6.594h0.093l0.181-0.045V6.5h0.091
		L4.25,6.594l0.09,0.093v0.092h2.361l0.135,0.046L6.882,6.87l0.09,0.046H28.56c0.756,0,1.511-0.016,2.266-0.046h0.273V2.151
		c0.002-0.035,0.018-0.068,0.045-0.091c0.059-0.03,0.106-0.079,0.135-0.139h0.182c0.027-0.024,0.043-0.057,0.046-0.093l0.043-0.047
		c0.022-0.027,0.055-0.044,0.09-0.046h0.182V1.689h5.848V1.134c0.078-0.004,0.154-0.02,0.227-0.048V0.9
		C37.951,0.844,38.015,0.797,38.085,0.764z M57.357,17.055c-0.729-0.715-1.182-1.667-1.271-2.685
		c-0.11,0.085-0.218,0.178-0.315,0.278c-0.383,0.387-0.691,0.842-0.908,1.342l0.139,0.139c0.746,0.77,1.744,1.245,2.811,1.342
		C57.652,17.342,57.5,17.203,57.357,17.055z M62.346,14.835c-0.061-0.062-0.121-0.126-0.181-0.186
		c-0.824-0.873-1.976-1.359-3.176-1.342c-0.464-0.003-0.925,0.075-1.36,0.23c-0.064,0.305-0.096,0.615-0.092,0.926
		c-0.016,1.102,0.373,2.171,1.09,3.008c1.057-0.093,2.041-0.569,2.768-1.342c0.381-0.382,0.703-0.818,0.955-1.294H62.346z
		 M42.528,30.152v-0.092h-0.047c-0.004,0.051,0.013,0.102,0.046,0.14L42.528,30.152L42.528,30.152z"/>
	
		<linearGradient id="SVGID_1_" gradientUnits="userSpaceOnUse" x1="-1113.8882" y1="-845.5752" x2="-1068.3574" y2="-845.5752" gradientTransform="matrix(0.998 -0.0625 0.0625 0.998 1182.9778 783.8026)">
		<stop  offset="0" style="stop-color:#FFFF13"/>
		<stop  offset="1" style="stop-color:#7411C3"/>
	</linearGradient>
	<path clip-path="url(#mp9_2_)" fill="url(#SVGID_1_)" d="M26.313,7.865l11.341-6.042l-14.824,9.459l0.544,0.889
		c0,0,28.674-18.854,37.51-21.469c0,0-24.502,15.325-29.156,20.093c0,0,13.448-9.158,17.85-11.281l-5.105,4.229l2.087-1.197
		l-4.633,3.985c0,0,8.712-6.801,18.08-9.804l3.51,3.688c0,0-7.874,0.139-18.657,13.961c0,0,4.009-6.148,5.892-8.398
		c0,0-7.489,5.16-15.068,12.244l5.673-6.326c0,0-5.923,4.565-9.842,9.927c0,0,5.677-9.593,20.549-19.41
		c0,0-8.153,2.359-24.858,15.204c0,0,14.581-8.874,15.318-9.347c0.67-0.467-18.496,13.17-20.502,16.779
		c-2.215,3.621-3.487-14.491-3.487-14.491L26.313,7.865z"/>
</g>
<linearGradient id="shape5_1_" gradientUnits="userSpaceOnUse" x1="315.127" y1="-158.8281" x2="315.127" y2="-172.5781" gradientTransform="matrix(1 0 0 -1 -247.5801 -142.1602)">
	<stop  offset="0" style="stop-color:#7439E3"/>
	<stop  offset="1" style="stop-color:#B4A7F8"/>
</linearGradient>
<path id="shape5" fill="url(#shape5_1_)" d="M77.377,31.251c-0.313,0-0.625-0.05-0.922-0.147c-0.298,0.104-0.609,0.147-0.922,0.147
	H67.34c-0.186,0-0.443-0.009-0.77-0.075c-0.217,0.051-0.439,0.075-0.664,0.075h-2.664c-0.816,0-1.605-0.342-2.166-0.937
	c-0.078-0.086-0.15-0.174-0.219-0.271l-0.91,0.648c-0.504,0.357-1.1,0.554-1.725,0.554h-3.584c-0.718,0-1.402-0.269-1.938-0.722
	c-0.614,0.427-1.352,0.652-2.112,0.652c-0.75,0-1.479-0.222-2.104-0.642c-0.164-0.11-0.314-0.233-0.451-0.37
	c-1.021-1.021-1.363-2.423-0.92-3.753l0.044-0.128l0.079-0.203c-1.8-0.254-3.145-1.766-3.145-3.646V22.24
	c0-0.741,0.274-1.45,0.773-1.996l4.748-5.232c0.646-1.069,1.762-1.679,3.078-1.679h0.41c2.065,0,3.685,1.618,3.685,3.684
	c0,0-0.001,0.289-0.003,0.331c0.555-0.653,1.371-1.044,2.26-1.044h8.398c0.261,0,0.518,0.034,0.768,0.103
	c0.25-0.067,0.508-0.103,0.771-0.103h9.218c0.243,0,0.481,0.029,0.718,0.087c0.232-0.058,0.479-0.087,0.719-0.087h8.396
	c0.917,0,1.797,0.433,2.354,1.159c0.563,0.726,0.752,1.689,0.518,2.573l-0.406,1.532c-0.146,0.541-0.434,1.02-0.825,1.395
	c-0.019,0.188-0.049,0.372-0.098,0.555l-0.41,1.537c-0.072,0.282-0.188,0.551-0.347,0.799c0.168,0.533,0.188,1.109,0.041,1.656
	l-0.414,1.539c-0.35,1.297-1.521,2.202-2.865,2.202H77.377z M74.338,23.782l0.018-0.009h-0.797l-0.004,0.009H74.338z"/>
<path id="ACE" fill="#FFFFFF" d="M51.568,23.163h-3.789c-0.409,0-0.717-0.308-0.717-0.718c0-0.104,0-0.104,0-0.204l5.018-5.531
	c0.104-0.307,0.311-0.41,0.615-0.41h0.41c0.408,0,0.717,0.308,0.717,0.717c0,0.102,0,0.205,0,0.205l-2.458,3.584h4.401
	c0.614,0,0.311,1.127-0.104,1.639l-4.508,5.531c-0.309,0.308-0.717,0.308-1.022,0.104c-0.205-0.206-0.309-0.41-0.205-0.719
	L51.568,23.163L51.568,23.163L51.568,23.163z M59.046,19.271l0.409,0.41l-4.813,8.603h3.584l2.148-1.536h2.973l-0.104,1.536h2.663
	l1.535-9.013H59.046L59.046,19.271z M63.552,20.809l-0.104,3.482h-2.97l2.047-3.482H63.552L63.552,20.809z M67.343,28.284h8.191
	l0.612-2.15l-0.818,0.614h-5.732l1.739-5.941h6.452l0.408-1.535h-9.217l-2.355,7.988c-0.102,0.104-0.102,0.309-0.102,0.409
	c0,0.103,0,0.205,0.103,0.31s0.205,0.203,0.308,0.203C67.136,28.284,67.24,28.284,67.343,28.284L67.343,28.284L67.343,28.284z
	 M79.632,19.271l0.312,0.61l-2.563,8.397h8.193l0.408-1.535h-5.121l0.718-2.458h4.711l0.41-1.537h-4.507l0.611-1.942h4.815
	l0.409-1.535H79.632L79.632,19.271z"/>
</svg>
