<?xml version="1.0" encoding="utf-8"?>
<!-- Generator: Adobe Illustrator 16.0.0, SVG Export Plug-In . SVG Version: 6.00 Build 0)  -->
<!DOCTYPE svg PUBLIC "-//W3C//DTD SVG 1.1//EN" "http://www.w3.org/Graphics/SVG/1.1/DTD/svg11.dtd">
<svg version="1.1" id="case1" xmlns="http://www.w3.org/2000/svg" xmlns:xlink="http://www.w3.org/1999/xlink" x="0px" y="0px"
	 width="83.75px" height="36px" viewBox="0 0 83.75 36" enable-background="new 0 0 83.75 36" xml:space="preserve">
<g>
	<g>
		<g>
			<defs>
				<path id="SVGID_1_" d="M38.085,0.764c0.04-0.038,0.085-0.068,0.135-0.091V0.3c0.18,0.031,0.362,0.046,0.545,0.046v0.092
					c0.182,0,0.363,0.016,0.542,0.046v0.093c0.048,0.006,0.095,0.021,0.138,0.045v0.092c0.05-0.004,0.099,0.013,0.136,0.047V0.9
					c0.044,0.012,0.078,0.047,0.09,0.091l0.09,0.09c0.05,0.024,0.097,0.057,0.137,0.095c0.059,0.03,0.106,0.079,0.135,0.138
					l0.045,0.046c0.122,0.03,0.243,0.064,0.363,0.093v0.093c0.037,0.033,0.086,0.05,0.136,0.046v0.093h33.604
					c0.07,0.036,0.146,0.066,0.228,0.091c0.028,0.031,0.062,0.063,0.089,0.091c0.041,0.038,0.087,0.07,0.137,0.094l0.045,0.093
					c0.033,0.039,0.051,0.088,0.045,0.139c0.025,0.024,0.043,0.058,0.045,0.093v0.046h0.047c0.021,0.05,0.056,0.097,0.094,0.137
					c0.025,0.031,0.181,0.574,0.449,1.622c0.305,1.08,0.572,1.62,0.815,1.62h1.407l0.27-0.091h0.273V5.576h1.314l0.313,0.046
					l0.271,0.092h1.949l0.187,0.093l0.088,0.138l0.5,0.047l-0.045,4.442l-0.046,0.091l-0.047,0.142l-0.183,0.184h-0.18l-0.224-0.046
					v0.048h-3.989l1.771,4.071v0.232c0.006,0.049,0.021,0.096,0.045,0.138v1.295c-0.604,0.057-1.209,0.073-1.813,0.047
					c-0.062-0.031-0.646-1.126-1.771-3.286c-0.479,0.032-0.968,0.063-1.449,0.093c-0.074-0.003-0.152,0.012-0.229,0.045h-0.316
					c0,0.036-0.018,0.069-0.045,0.093c0,0.065-0.016,0.092-0.045,0.092v0.234c-0.002,0.036-0.019,0.069-0.047,0.091
					c0.006,0.049-0.011,0.099-0.043,0.137v2.911c0.029,0.031,0.063,0.063,0.09,0.093v1.2c0.027,0.022,0.043,0.058,0.045,0.093
					c0.031,0.029,0.063,0.063,0.09,0.091c-0.004,0.053,0.018,0.103,0.052,0.142v1.062c-0.005,0.021,0.011,0.041,0.028,0.045
					c0.004,0.002,0.012,0.002,0.017,0c-0.004,0.052,0.013,0.104,0.044,0.144c0.003,0.033,0.021,0.065,0.044,0.094v0.229
					c0.003,0.035,0.021,0.07,0.047,0.096c-0.005,0.05,0.015,0.102,0.046,0.139v0.188c0.025,0.022,0.041,0.057,0.047,0.091
					c0.021,0.043,0.039,0.091,0.045,0.141c0.023,0.023,0.043,0.059,0.045,0.094c0.022,0.021,0.041,0.059,0.045,0.093v0.093
					c0.021,0.049,0.055,0.096,0.092,0.139c0.002,0.035,0.018,0.069,0.045,0.097v0.229c0,0.035,0.018,0.069,0.045,0.095v0.139
					c0.029,0,0.044,0.031,0.044,0.094c0.026,0.023,0.044,0.059,0.047,0.094c0.026,0.021,0.043,0.058,0.045,0.092
					c0.024,0.043,0.039,0.091,0.044,0.141c0.03,0,0.045,0.029,0.045,0.093v0.095c0.03,0.028,0.063,0.063,0.092,0.096
					c-0.004,0.049,0.016,0.098,0.043,0.137V23.1l0.096,0.092v0.318c0.033,0.043,0.064,0.09,0.091,0.141
					c0.026,0,0.045,0.031,0.045,0.095c0.022,0.021,0.042,0.057,0.045,0.092v0.229c0.025,0.021,0.044,0.059,0.048,0.093
					c0.002,0.034,0.02,0.067,0.045,0.094c0.014,0.044,0.049,0.077,0.092,0.091v0.324c0.021,0.051,0.055,0.1,0.092,0.143v0.275
					c-0.004,0.051,0.014,0.104,0.047,0.141l0.09,0.092v0.324c0.025,0.021,0.043,0.056,0.045,0.09
					c0.038,0.041,0.068,0.088,0.09,0.143c0.002,0.034,0.021,0.066,0.045,0.091v0.187c0.006,0.049,0.021,0.098,0.045,0.141
					c0.002,0.033,0.021,0.066,0.045,0.094v0.461l0.045,0.047c0.021,0.054,0.057,0.101,0.092,0.142
					c0.025,0.021,0.044,0.058,0.046,0.093v2.543c0.005,0.051-0.015,0.102-0.046,0.141v0.047c0.031,0.039,0.052,0.088,0.046,0.14
					v0.048c-0.021,0.051-0.056,0.098-0.093,0.137c0,0.063-0.016,0.099-0.045,0.099c-0.022,0.021-0.043,0.055-0.045,0.09
					c-0.021-0.002-0.043,0.015-0.045,0.037c0,0.002,0,0.006,0,0.008c-0.094,0.021-0.184,0.054-0.271,0.095
					c-0.078-0.002-0.155,0.016-0.228,0.045c-0.053,0.022-0.1,0.057-0.14,0.094c-0.053,0.037-0.114,0.055-0.181,0.047
					c-0.07,0.033-0.146,0.049-0.229,0.045c-0.029,0.031-0.061,0.063-0.091,0.095c-0.063,0.003-0.124,0.019-0.181,0.046
					c-0.152,0-0.307,0.016-0.454,0.047h-0.091c-0.059,0.028-0.119,0.045-0.186,0.047c-0.197-0.002-0.396,0.017-0.591,0.045
					c-0.071,0.037-0.147,0.065-0.228,0.095c-0.516,0.028-1.027,0.047-1.541,0.047c-0.029,0.03-0.063,0.063-0.092,0.094
					c-0.063,0-0.125,0.019-0.183,0.045c-0.3,0.033-0.601,0.064-0.905,0.097c-0.035,0.002-0.066,0.018-0.093,0.045
					c-0.075,0.022-0.149,0.058-0.226,0.092c-0.078-0.023-0.153-0.059-0.229-0.092c-0.044-0.022-0.091-0.039-0.139-0.045h-0.04
					c-0.079,0.002-0.155-0.017-0.229-0.049c-0.063-0.041-0.123-0.089-0.183-0.138c-0.038-0.041-0.084-0.071-0.135-0.096
					c-0.037-0.039-0.067-0.086-0.091-0.14V30.92c-0.024-0.043-0.041-0.091-0.045-0.141v-0.09c-0.032-0.037-0.049-0.088-0.045-0.141
					c-0.023-0.023-0.061-0.043-0.095-0.045V30.27c-0.036-0.043-0.065-0.09-0.091-0.142c-0.029-0.028-0.063-0.06-0.092-0.093
					c-0.002-0.035-0.021-0.069-0.045-0.094v-0.14L68.833,29.7v-0.188c-0.022-0.05-0.054-0.097-0.09-0.138
					c-0.03-0.031-0.058-0.062-0.091-0.091V29.1c0.004-0.05-0.012-0.099-0.043-0.138c-0.014-0.044-0.049-0.078-0.092-0.092
					c-0.01-0.05-0.021-0.097-0.045-0.142V28.54c0.004-0.052-0.016-0.101-0.049-0.14v-0.504c-0.033-0.041-0.064-0.088-0.09-0.141
					c-0.035-0.002-0.066-0.021-0.092-0.047c-0.031-0.021-0.053-0.063-0.055-0.104L68.1,27.52c-0.004-0.052-0.02-0.1-0.045-0.143
					v-0.42c0-0.038-0.016-0.073-0.043-0.102c-0.003-0.033-0.02-0.065-0.045-0.09v-0.555c-0.031-0.027-0.063-0.063-0.094-0.09
					c-0.032-0.04-0.048-0.091-0.044-0.145v-0.83c-0.026-0.021-0.042-0.057-0.044-0.094c-0.028-0.021-0.045-0.058-0.045-0.095
					c0.004-0.051-0.014-0.101-0.047-0.138v-1.479c0-0.034-0.019-0.069-0.043-0.095c-0.032-0.028-0.063-0.063-0.092-0.091
					c-0.033-0.039-0.054-0.093-0.045-0.144V21.37c-0.037-0.041-0.068-0.088-0.095-0.14v-1.987c-0.021-0.042-0.04-0.091-0.045-0.14
					c-0.044-0.015-0.079-0.047-0.091-0.09v-2c0.004-0.05-0.016-0.101-0.045-0.14c-0.037-0.033-0.088-0.049-0.141-0.045
					c-0.004-0.05-0.02-0.098-0.045-0.14V16.36c-0.059-0.03-0.104-0.079-0.135-0.138c-0.023-0.026-0.057-0.042-0.092-0.045v-0.372
					c0.004-0.021-0.012-0.042-0.033-0.045c-0.004-0.001-0.007-0.001-0.011,0l-0.093-0.091l-0.09-0.047
					c-0.097-0.022-0.188-0.053-0.271-0.092c-0.053-0.016-0.1-0.049-0.135-0.093V15.39c-0.021-0.027-0.055-0.043-0.09-0.047
					c-0.096,0.001-0.188-0.014-0.272-0.043h-0.771c-0.078,0.003-0.154,0.019-0.229,0.046c0.004,0.05-0.013,0.1-0.044,0.139
					c-0.064,0.018-0.129,0.05-0.184,0.094c-0.065,0.036-0.131,0.082-0.185,0.137c0.004,0.021-0.01,0.042-0.028,0.046
					c-0.007,0-0.011,0.001-0.015,0V15.9c-0.033,0.045-0.082,0.078-0.138,0.093c-0.036,0.042-0.067,0.088-0.092,0.139
					c-0.049,0.023-0.096,0.055-0.135,0.092c-0.045,0.012-0.078,0.046-0.091,0.09l-0.046,0.1c-0.061,0.029-0.105,0.078-0.139,0.138
					c-0.039,0.039-0.086,0.07-0.137,0.093c-0.029,0.031-0.062,0.062-0.091,0.091l-0.049,0.093c-0.08,0.009-0.158,0.04-0.226,0.091
					l-0.137,0.14c-0.035,0.004-0.065,0.02-0.09,0.047c0.004,0.052-0.016,0.102-0.051,0.139c-0.049,0.024-0.096,0.055-0.134,0.092
					c-0.038,0.041-0.065,0.088-0.093,0.138c-0.021,0.028-0.058,0.045-0.092,0.045c-0.063,0.064-0.142,0.111-0.228,0.138
					c-0.011,0.047-0.045,0.083-0.093,0.096c-0.028,0.031-0.075,0.076-0.137,0.138c-0.049,0.024-0.094,0.057-0.133,0.094
					l-0.093,0.094c-0.022,0.051-0.056,0.098-0.091,0.139l-0.059,0.08l-0.093,0.097c-0.089,0.028-0.181,0.045-0.271,0.045
					c-0.063,0.029-0.121,0.062-0.187,0.092c-0.021,0.051-0.053,0.098-0.091,0.14c-0.055,0.016-0.102,0.049-0.137,0.092
					c-0.09,0.031-0.182,0.063-0.271,0.092c-0.12,0.033-0.229,0.063-0.317,0.097c-0.063,0.041-0.125,0.088-0.185,0.138
					c-0.067,0.008-0.137,0.039-0.182,0.096l-0.181,0.092c-0.106-0.002-0.217,0.015-0.315,0.048h-0.271
					c-0.24,0.028-0.5,0.062-0.771,0.09c-0.076,0.026-0.151,0.06-0.228,0.094h-1.899c-0.087-0.041-0.179-0.071-0.271-0.094
					c-0.147-0.03-0.315-0.063-0.5-0.09h-0.226c-0.041-0.104-0.123-0.188-0.228-0.231c-0.006-0.049-0.021-0.096-0.045-0.138
					c-0.051-0.022-0.096-0.058-0.135-0.095c-0.088-0.039-0.183-0.069-0.271-0.092c0.006-0.045-0.024-0.086-0.069-0.092
					c-0.008-0.003-0.017-0.003-0.022,0c-0.061-0.029-0.104-0.078-0.136-0.142c-0.038-0.038-0.086-0.068-0.137-0.092
					c-0.003,0.035-0.021,0.07-0.046,0.092c-0.021,0.043-0.038,0.091-0.044,0.142c-0.046,0.012-0.08,0.047-0.093,0.092v0.092
					c-0.024,0.022-0.041,0.06-0.045,0.095C54.122,19,54.105,19.047,54.1,19.096c-0.045,0.014-0.078,0.049-0.09,0.094
					c-0.006,0.05-0.021,0.097-0.045,0.14c-0.035,0.003-0.068,0.021-0.094,0.047v0.229c-0.029,0.039-0.051,0.088-0.045,0.14
					l-0.045,0.046c-0.021,0.044-0.04,0.091-0.047,0.143c-0.028,0.03-0.063,0.063-0.09,0.094v0.322
					c0.004,0.051-0.015,0.1-0.047,0.139l-0.048,0.097l-0.09,0.09v0.322c-0.024,0.021-0.043,0.058-0.045,0.092
					c0,0.063-0.017,0.093-0.047,0.093c-0.022,0.043-0.039,0.09-0.044,0.139c-0.026,0.023-0.045,0.062-0.047,0.098
					c-0.036,0.04-0.067,0.088-0.092,0.139v0.188c-0.006,0.05-0.021,0.097-0.045,0.14c-0.045,0.013-0.078,0.048-0.09,0.093
					c-0.002,0.035-0.021,0.067-0.045,0.094v0.093c-0.023,0.043-0.039,0.09-0.045,0.14v0.604l-0.045,0.09
					c-0.023,0.046-0.039,0.093-0.044,0.145l-0.097,0.09v0.646c-0.023,0.021-0.043,0.059-0.045,0.092
					c-0.006,0.051-0.021,0.098-0.045,0.141c-0.028,0.029-0.063,0.063-0.09,0.094v0.646c-0.025,0.021-0.046,0.057-0.048,0.092
					c-0.03,0.039-0.049,0.09-0.045,0.141v6.01l-0.047,0.094c-0.035,0.043-0.063,0.09-0.088,0.14
					c-0.029,0.032-0.063,0.063-0.093,0.097H52.1V32.3h-7.89v-0.94h-0.905c-0.035,0.002-0.067,0.021-0.091,0.05h-0.951
					c-0.079,0.002-0.157-0.017-0.228-0.05c-0.06-0.063-0.106-0.105-0.135-0.139c-0.029-0.029-0.062-0.063-0.092-0.095V30.8
					c-0.03-0.03-0.061-0.063-0.09-0.093c-0.038-0.042-0.069-0.089-0.093-0.141V29.32c-0.032-0.037-0.047-0.088-0.044-0.137v-2.221
					c0.028-0.023,0.044-0.063,0.044-0.104V24.65c0.028-0.022,0.044-0.059,0.046-0.094c0.061-0.063,0.106-0.104,0.136-0.141V23.77
					c0.003-0.035,0.02-0.066,0.046-0.092c0.028-0.031,0.06-0.063,0.09-0.095c0.005-0.049,0.021-0.097,0.044-0.14V23.26
					c0.003-0.035,0.019-0.066,0.046-0.092v-0.646c0.027-0.021,0.043-0.059,0.045-0.094c0.062-0.063,0.106-0.107,0.135-0.139
					c0.027-0.021,0.044-0.059,0.047-0.094c0.037-0.041,0.068-0.088,0.091-0.139l0.044-0.049v-0.14
					c0.001-0.036,0.018-0.069,0.046-0.095c0.005-0.049,0.02-0.096,0.044-0.139V21.45c0.026-0.022,0.043-0.058,0.046-0.093
					c0.031-0.039,0.048-0.09,0.045-0.143c0.025-0.021,0.042-0.057,0.044-0.092V21.05l0.045-0.091
					c0.006-0.05,0.021-0.098,0.045-0.143c0.041-0.037,0.086-0.066,0.138-0.09c0.029-0.031,0.06-0.063,0.09-0.095v-0.141
					c0.025-0.021,0.041-0.06,0.043-0.095c0.035-0.039,0.052-0.088,0.048-0.139v-0.18c0.028-0.033,0.059-0.063,0.091-0.102
					c0.006-0.047,0.021-0.098,0.044-0.141c0.022-0.023,0.058-0.044,0.092-0.047c0.022-0.051,0.054-0.1,0.091-0.141v-0.09
					c0.004-0.049,0.021-0.096,0.043-0.139c0.028-0.023,0.047-0.056,0.051-0.092v-0.23c0.043-0.013,0.078-0.047,0.091-0.092
					c0.026-0.021,0.042-0.056,0.045-0.091c0.002-0.034,0.019-0.067,0.044-0.093c0.021-0.053,0.052-0.1,0.09-0.141
					c0.045-0.015,0.081-0.048,0.094-0.093c0.004-0.051,0.021-0.098,0.045-0.141V18.27l0.088-0.092
					c0.041-0.039,0.072-0.088,0.093-0.14v-0.276c0.005-0.049,0.021-0.096,0.046-0.139l0.09-0.094
					c0.001-0.035,0.018-0.068,0.044-0.092v-0.43c-0.003-0.051,0.013-0.101,0.046-0.14v-0.693c-0.027-0.024-0.043-0.058-0.046-0.094
					v-0.231c-0.026-0.024-0.042-0.057-0.044-0.093c-0.029-0.031-0.061-0.061-0.09-0.091c-0.023-0.043-0.04-0.091-0.046-0.14
					l-0.089-0.092c-0.037-0.04-0.067-0.086-0.09-0.136v-0.049c-0.025-0.042-0.041-0.089-0.045-0.138l-0.094-0.093
					c-0.037-0.042-0.066-0.089-0.09-0.139l-0.044-0.045c0.004-0.051-0.013-0.102-0.045-0.141c-0.041-0.037-0.088-0.068-0.138-0.091
					c-0.031-0.04-0.047-0.089-0.045-0.139V14.37c-0.039-0.038-0.086-0.068-0.136-0.091c-0.045-0.036-0.077-0.085-0.09-0.141
					l-7.439,0.048c-1.724,0.031-3.447,0.046-5.169,0.046c-0.038,0.041-0.069,0.087-0.093,0.138
					c-0.035,0.002-0.068,0.018-0.091,0.045h-0.317c-0.078-0.003-0.154-0.018-0.227-0.045c-0.061-0.031-0.118-0.063-0.18-0.091
					c-0.023-0.051-0.055-0.099-0.092-0.141c-0.043-0.013-0.078-0.047-0.09-0.091v-0.138c-0.022-0.028-0.055-0.045-0.091-0.049
					c-0.025-0.043-0.04-0.091-0.044-0.14l-0.093-0.09V9.98h-0.814l-0.27-0.091l-0.09-0.091C28,9.8,27.966,9.816,27.943,9.844
					c-0.078-0.026-0.153-0.057-0.227-0.093c-0.038-0.042-0.069-0.089-0.092-0.14c-0.044-0.012-0.079-0.046-0.09-0.091V9.372H6.565
					V10.2l-0.044,0.1l-0.049,0.047V10.9H6.52l0.044,0.045L6.52,11.038l-0.819,9.071l-0.044,0.045v0.094L5.611,20.3l-0.409,1.386
					L3.75,21.822V6.594h0.093l0.181-0.045V6.5h0.091L4.25,6.594l0.09,0.093v0.092h2.361l0.135,0.046L6.882,6.87l0.09,0.046H28.56
					c0.756,0,1.511-0.016,2.266-0.046h0.273V2.151c0.002-0.035,0.018-0.068,0.045-0.091c0.059-0.03,0.106-0.079,0.135-0.139h0.182
					c0.027-0.024,0.043-0.057,0.046-0.093l0.043-0.047c0.022-0.027,0.055-0.044,0.09-0.046h0.182V1.689h5.848V1.134
					c0.078-0.004,0.154-0.02,0.227-0.048V0.9C37.951,0.844,38.015,0.797,38.085,0.764z M57.357,17.055
					c-0.729-0.715-1.184-1.667-1.271-2.685c-0.109,0.085-0.218,0.178-0.314,0.278c-0.383,0.387-0.69,0.842-0.908,1.342l0.14,0.139
					c0.746,0.77,1.744,1.245,2.812,1.342C57.652,17.342,57.5,17.203,57.357,17.055z M62.346,14.835
					c-0.061-0.062-0.121-0.126-0.181-0.186c-0.824-0.873-1.976-1.359-3.177-1.342c-0.463-0.003-0.924,0.075-1.359,0.23
					c-0.064,0.305-0.096,0.615-0.092,0.926c-0.016,1.102,0.373,2.171,1.09,3.008c1.057-0.093,2.041-0.569,2.768-1.342
					c0.381-0.382,0.703-0.818,0.955-1.294H62.346z M42.527,30.152v-0.092h-0.046c-0.004,0.051,0.013,0.102,0.046,0.14V30.152
					L42.527,30.152z"/>
			</defs>
			<clipPath id="SVGID_2_">
				<use xlink:href="#SVGID_1_"  overflow="visible"/>
			</clipPath>
			
				<linearGradient id="mp9_1_" gradientUnits="userSpaceOnUse" x1="378.7305" y1="1100.8086" x2="457.7266" y2="1100.8086" gradientTransform="matrix(1 0 0 1 -374.9805 -1084.5049)">
				<stop  offset="0" style="stop-color:#5400D7"/>
				<stop  offset="1" style="stop-color:#9178E2"/>
			</linearGradient>
			<path id="mp9" clip-path="url(#SVGID_2_)" fill="url(#mp9_1_)" d="M38.085,0.764c0.04-0.038,0.085-0.068,0.135-0.091V0.3
				c0.18,0.031,0.362,0.046,0.545,0.046v0.092c0.182,0,0.363,0.016,0.542,0.046v0.093c0.048,0.006,0.095,0.021,0.138,0.045v0.092
				c0.05-0.004,0.099,0.013,0.136,0.047V0.9c0.044,0.012,0.078,0.047,0.09,0.091l0.09,0.09c0.05,0.024,0.097,0.057,0.137,0.095
				c0.059,0.03,0.106,0.079,0.135,0.138l0.045,0.046c0.122,0.03,0.243,0.064,0.363,0.093v0.093c0.037,0.033,0.086,0.05,0.136,0.046
				v0.093h33.604c0.07,0.036,0.146,0.066,0.228,0.091c0.028,0.031,0.062,0.063,0.089,0.091c0.041,0.038,0.087,0.07,0.137,0.094
				l0.045,0.093c0.033,0.039,0.051,0.088,0.045,0.139c0.025,0.024,0.043,0.058,0.045,0.093v0.046h0.047
				c0.021,0.05,0.056,0.097,0.094,0.137c0.025,0.031,0.181,0.574,0.449,1.622c0.305,1.08,0.572,1.62,0.815,1.62h1.407l0.27-0.091
				h0.273V5.576h1.314l0.313,0.046l0.271,0.092h1.949l0.187,0.093l0.088,0.138l0.5,0.047l-0.045,4.442l-0.046,0.091l-0.047,0.142
				l-0.183,0.184h-0.18l-0.224-0.046v0.048h-3.989l1.771,4.071v0.232c0.006,0.049,0.021,0.096,0.045,0.138v1.295
				c-0.604,0.057-1.209,0.073-1.813,0.047c-0.062-0.031-0.646-1.126-1.771-3.286c-0.479,0.032-0.968,0.063-1.449,0.093
				c-0.074-0.003-0.152,0.012-0.229,0.045h-0.316c0,0.036-0.018,0.069-0.045,0.093c0,0.065-0.016,0.092-0.045,0.092v0.234
				c-0.002,0.036-0.019,0.069-0.047,0.091c0.006,0.049-0.011,0.099-0.043,0.137v2.911c0.029,0.031,0.063,0.063,0.09,0.093v1.2
				c0.027,0.023,0.043,0.057,0.045,0.093c0.031,0.029,0.063,0.062,0.09,0.091c-0.004,0.052,0.018,0.102,0.052,0.141v1.061
				c-0.005,0.021,0.011,0.041,0.028,0.045c0.004,0.002,0.012,0.002,0.017,0c-0.004,0.051,0.013,0.104,0.044,0.145
				c0.003,0.031,0.021,0.064,0.044,0.094v0.229c0.003,0.035,0.021,0.07,0.047,0.096c-0.005,0.05,0.015,0.102,0.046,0.139v0.188
				c0.025,0.021,0.041,0.057,0.047,0.091c0.021,0.043,0.039,0.091,0.045,0.142c0.023,0.022,0.043,0.059,0.045,0.094
				c0.022,0.021,0.041,0.058,0.045,0.092v0.093c0.021,0.049,0.055,0.097,0.092,0.138c0.002,0.036,0.018,0.07,0.045,0.096v0.229
				c0,0.035,0.018,0.069,0.045,0.093v0.14c0.029,0,0.044,0.03,0.044,0.095c0.026,0.021,0.044,0.059,0.047,0.093
				c0.026,0.021,0.043,0.06,0.045,0.095c0.024,0.043,0.039,0.09,0.044,0.139c0.03,0,0.045,0.031,0.045,0.093v0.095
				c0.03,0.028,0.063,0.063,0.092,0.094c-0.004,0.05,0.016,0.1,0.043,0.139V23.1l0.096,0.092v0.318
				c0.033,0.043,0.064,0.09,0.091,0.141c0.026,0,0.045,0.031,0.045,0.095c0.022,0.021,0.042,0.057,0.045,0.092v0.229
				c0.025,0.021,0.044,0.059,0.048,0.093c0.002,0.034,0.02,0.067,0.045,0.094c0.014,0.044,0.049,0.077,0.092,0.091v0.324
				c0.021,0.051,0.055,0.1,0.092,0.143v0.275c-0.004,0.051,0.014,0.104,0.047,0.141l0.09,0.092v0.324
				c0.025,0.021,0.043,0.056,0.045,0.09c0.038,0.041,0.068,0.088,0.09,0.143c0.002,0.034,0.021,0.066,0.045,0.091v0.187
				c0.006,0.049,0.021,0.098,0.045,0.141c0.002,0.033,0.021,0.066,0.045,0.094v0.461l0.045,0.047
				c0.021,0.054,0.057,0.101,0.092,0.142c0.025,0.021,0.044,0.058,0.046,0.093v2.543c0.005,0.051-0.015,0.102-0.046,0.141v0.047
				c0.031,0.039,0.052,0.088,0.046,0.14v0.048c-0.021,0.051-0.056,0.098-0.093,0.137c0,0.063-0.016,0.099-0.045,0.099
				c-0.022,0.021-0.043,0.055-0.045,0.09c-0.021-0.002-0.043,0.015-0.045,0.037c0,0.002,0,0.006,0,0.008
				c-0.094,0.021-0.184,0.054-0.271,0.095c-0.078-0.002-0.155,0.016-0.228,0.045c-0.053,0.022-0.1,0.057-0.14,0.094
				c-0.053,0.037-0.114,0.055-0.181,0.047c-0.07,0.033-0.146,0.049-0.229,0.045c-0.029,0.031-0.061,0.063-0.091,0.095
				c-0.063,0.003-0.124,0.019-0.181,0.046c-0.152,0-0.307,0.016-0.454,0.047h-0.091c-0.059,0.028-0.119,0.045-0.186,0.047
				c-0.197-0.002-0.396,0.017-0.591,0.045c-0.071,0.037-0.147,0.065-0.228,0.095c-0.516,0.028-1.027,0.047-1.541,0.047
				c-0.029,0.03-0.063,0.063-0.092,0.094c-0.063,0-0.125,0.019-0.183,0.045c-0.3,0.033-0.601,0.064-0.905,0.097
				c-0.035,0.002-0.066,0.018-0.093,0.045c-0.075,0.022-0.149,0.058-0.226,0.092c-0.078-0.023-0.153-0.059-0.229-0.092
				c-0.044-0.022-0.091-0.039-0.139-0.045h-0.04c-0.079,0.002-0.155-0.017-0.229-0.049c-0.063-0.041-0.123-0.089-0.183-0.138
				c-0.038-0.041-0.084-0.071-0.135-0.096c-0.037-0.039-0.067-0.086-0.091-0.14V30.92c-0.024-0.043-0.041-0.091-0.045-0.141v-0.09
				c-0.032-0.037-0.049-0.088-0.045-0.141c-0.023-0.023-0.061-0.043-0.095-0.045V30.27c-0.036-0.043-0.065-0.09-0.091-0.142
				c-0.029-0.028-0.063-0.06-0.092-0.093c-0.002-0.035-0.021-0.069-0.045-0.094v-0.14L68.833,29.7v-0.188
				c-0.022-0.05-0.054-0.097-0.09-0.138c-0.03-0.031-0.058-0.062-0.091-0.091V29.1c0.004-0.05-0.012-0.099-0.043-0.138
				c-0.014-0.044-0.049-0.078-0.092-0.092c-0.01-0.05-0.021-0.097-0.045-0.142V28.54c0.004-0.052-0.016-0.101-0.049-0.14v-0.504
				c-0.033-0.041-0.064-0.088-0.09-0.141c-0.035-0.002-0.066-0.021-0.092-0.047c-0.031-0.021-0.053-0.063-0.055-0.104L68.1,27.52
				c-0.004-0.052-0.02-0.1-0.045-0.143v-0.42c0-0.038-0.016-0.073-0.043-0.102c-0.003-0.033-0.02-0.065-0.045-0.09v-0.555
				c-0.031-0.027-0.063-0.063-0.094-0.09c-0.032-0.04-0.048-0.091-0.044-0.145v-0.83c-0.026-0.021-0.042-0.057-0.044-0.094
				c-0.028-0.021-0.045-0.058-0.045-0.095c0.004-0.051-0.014-0.101-0.047-0.138v-1.479c0-0.034-0.019-0.069-0.043-0.095
				c-0.032-0.028-0.063-0.063-0.092-0.091c-0.033-0.039-0.054-0.093-0.045-0.144V21.37c-0.037-0.041-0.068-0.088-0.095-0.14v-1.987
				c-0.021-0.042-0.04-0.091-0.045-0.14c-0.044-0.015-0.079-0.047-0.091-0.09v-2c0.004-0.05-0.016-0.101-0.045-0.14
				c-0.037-0.033-0.088-0.049-0.141-0.045c-0.004-0.05-0.02-0.098-0.045-0.14V16.36c-0.059-0.03-0.104-0.079-0.135-0.138
				c-0.023-0.026-0.057-0.042-0.092-0.045v-0.372c0.004-0.021-0.012-0.042-0.033-0.045c-0.004-0.001-0.007-0.001-0.011,0
				l-0.093-0.091l-0.09-0.047c-0.097-0.022-0.188-0.053-0.271-0.092c-0.053-0.016-0.1-0.049-0.135-0.093V15.39
				c-0.021-0.027-0.055-0.043-0.09-0.047c-0.096,0.001-0.188-0.014-0.272-0.043h-0.771c-0.078,0.003-0.154,0.019-0.229,0.046
				c0.004,0.05-0.013,0.1-0.044,0.139c-0.064,0.018-0.129,0.05-0.184,0.094c-0.065,0.036-0.131,0.082-0.185,0.137
				c0.004,0.021-0.01,0.042-0.028,0.046c-0.007,0-0.011,0.001-0.015,0V15.9c-0.033,0.045-0.082,0.078-0.138,0.093
				c-0.036,0.042-0.067,0.088-0.092,0.139c-0.049,0.023-0.096,0.055-0.135,0.092c-0.045,0.012-0.078,0.046-0.091,0.09l-0.046,0.1
				c-0.061,0.029-0.105,0.078-0.139,0.138c-0.039,0.039-0.086,0.07-0.137,0.093c-0.029,0.031-0.062,0.062-0.091,0.091l-0.049,0.093
				c-0.08,0.009-0.158,0.04-0.226,0.091l-0.137,0.14c-0.035,0.004-0.065,0.02-0.09,0.047c0.004,0.052-0.016,0.102-0.051,0.139
				c-0.049,0.024-0.096,0.055-0.134,0.092c-0.038,0.041-0.065,0.088-0.093,0.138c-0.021,0.028-0.058,0.045-0.092,0.046
				c-0.063,0.064-0.142,0.111-0.228,0.137c-0.011,0.047-0.045,0.083-0.093,0.096c-0.028,0.031-0.075,0.076-0.137,0.138
				c-0.049,0.024-0.094,0.056-0.133,0.093l-0.093,0.094c-0.022,0.051-0.056,0.098-0.091,0.139L61.814,18.3l-0.092,0.096
				c-0.09,0.029-0.182,0.045-0.271,0.045c-0.063,0.029-0.121,0.062-0.186,0.092c-0.021,0.051-0.054,0.098-0.092,0.14
				c-0.054,0.015-0.102,0.048-0.136,0.091c-0.091,0.032-0.183,0.063-0.271,0.092c-0.121,0.033-0.229,0.063-0.317,0.098
				c-0.063,0.041-0.125,0.088-0.185,0.138c-0.068,0.009-0.138,0.039-0.183,0.097l-0.181,0.092c-0.106-0.002-0.217,0.014-0.315,0.047
				h-0.271c-0.24,0.029-0.5,0.063-0.771,0.09c-0.075,0.027-0.151,0.059-0.228,0.094h-1.899c-0.087-0.041-0.178-0.072-0.271-0.094
				c-0.147-0.03-0.315-0.063-0.5-0.09h-0.226c-0.041-0.105-0.123-0.188-0.228-0.231c-0.006-0.049-0.021-0.096-0.045-0.138
				c-0.051-0.023-0.096-0.057-0.135-0.094c-0.088-0.039-0.183-0.07-0.271-0.092c0.006-0.045-0.023-0.086-0.069-0.095
				c-0.008-0.001-0.016-0.001-0.022,0c-0.061-0.026-0.104-0.075-0.135-0.14c-0.039-0.038-0.086-0.068-0.138-0.092
				c-0.003,0.035-0.021,0.071-0.046,0.092c-0.021,0.043-0.038,0.091-0.044,0.14c-0.045,0.015-0.08,0.05-0.093,0.095v0.092
				c-0.024,0.021-0.04,0.059-0.045,0.094c-0.022,0.042-0.039,0.089-0.045,0.138c-0.045,0.013-0.078,0.048-0.09,0.093
				c-0.006,0.049-0.021,0.097-0.045,0.141c-0.035,0.003-0.068,0.021-0.094,0.047v0.229c-0.029,0.039-0.05,0.088-0.045,0.141
				l-0.045,0.046c-0.021,0.044-0.04,0.091-0.046,0.142c-0.029,0.031-0.063,0.063-0.091,0.096v0.32
				c0.005,0.053-0.014,0.102-0.047,0.141l-0.047,0.096l-0.091,0.09v0.322c-0.024,0.021-0.043,0.057-0.045,0.092
				c0,0.063-0.016,0.094-0.047,0.094c-0.022,0.041-0.039,0.088-0.044,0.137c-0.025,0.024-0.044,0.063-0.046,0.099
				c-0.037,0.04-0.068,0.088-0.093,0.138v0.188c-0.006,0.049-0.021,0.096-0.045,0.139c-0.045,0.013-0.078,0.048-0.09,0.093
				c-0.002,0.035-0.021,0.067-0.045,0.094v0.092c-0.022,0.043-0.039,0.091-0.045,0.141v0.604l-0.045,0.091
				c-0.023,0.045-0.039,0.092-0.044,0.144l-0.096,0.09v0.646c-0.024,0.021-0.043,0.058-0.046,0.092
				c-0.006,0.05-0.021,0.099-0.045,0.14c-0.028,0.03-0.063,0.063-0.09,0.094v0.648c-0.025,0.021-0.045,0.055-0.047,0.09
				c-0.031,0.039-0.05,0.09-0.045,0.141v6.011l-0.048,0.095c-0.034,0.043-0.063,0.09-0.088,0.14
				c-0.028,0.032-0.063,0.063-0.093,0.096H52.1v0.89h-7.89v-0.939h-0.906c-0.035,0.002-0.067,0.021-0.09,0.049h-0.951
				c-0.079,0.002-0.157-0.016-0.228-0.049c-0.06-0.063-0.106-0.105-0.135-0.139c-0.029-0.029-0.062-0.063-0.092-0.096V30.8
				c-0.03-0.03-0.061-0.063-0.09-0.093c-0.038-0.042-0.069-0.089-0.093-0.141V29.32c-0.032-0.037-0.047-0.088-0.044-0.137v-2.221
				c0.028-0.023,0.044-0.063,0.044-0.104V24.65c0.028-0.022,0.044-0.059,0.046-0.094c0.061-0.063,0.106-0.104,0.136-0.141V23.77
				c0.003-0.035,0.02-0.066,0.046-0.092c0.028-0.031,0.06-0.063,0.09-0.095c0.005-0.049,0.021-0.097,0.044-0.14V23.26
				c0.003-0.035,0.019-0.066,0.046-0.092v-0.646c0.027-0.021,0.043-0.059,0.045-0.094c0.062-0.063,0.106-0.107,0.135-0.139
				c0.027-0.021,0.044-0.059,0.047-0.094c0.037-0.041,0.068-0.088,0.091-0.139l0.044-0.049v-0.14
				c0.001-0.036,0.018-0.069,0.046-0.095c0.005-0.049,0.02-0.096,0.044-0.139V21.45c0.027-0.022,0.043-0.058,0.046-0.093
				c0.032-0.039,0.048-0.09,0.045-0.143c0.026-0.021,0.042-0.057,0.044-0.092V21.05l0.045-0.091c0.006-0.05,0.021-0.098,0.045-0.143
				c0.041-0.037,0.086-0.066,0.137-0.09c0.03-0.031,0.06-0.063,0.09-0.095v-0.141c0.026-0.021,0.042-0.06,0.044-0.095
				c0.034-0.039,0.051-0.088,0.047-0.139v-0.18c0.029-0.033,0.059-0.063,0.091-0.102c0.006-0.047,0.021-0.098,0.044-0.141
				c0.023-0.023,0.057-0.044,0.092-0.047c0.022-0.051,0.053-0.1,0.09-0.141v-0.09c0.005-0.049,0.021-0.096,0.044-0.139
				c0.028-0.023,0.046-0.056,0.05-0.092v-0.23c0.044-0.013,0.078-0.047,0.091-0.092c0.026-0.021,0.042-0.056,0.045-0.091
				c0.002-0.034,0.018-0.067,0.044-0.093c0.022-0.053,0.052-0.1,0.09-0.141c0.045-0.015,0.081-0.048,0.093-0.093
				c0.005-0.051,0.021-0.098,0.045-0.141V18.27l0.089-0.092c0.04-0.04,0.071-0.088,0.092-0.14v-0.276
				c0.005-0.049,0.021-0.096,0.046-0.139l0.09-0.093c0.001-0.036,0.018-0.069,0.044-0.093v-0.43
				c-0.003-0.051,0.013-0.101,0.046-0.14v-0.693c-0.027-0.024-0.043-0.058-0.046-0.094v-0.231c-0.026-0.024-0.042-0.057-0.044-0.093
				c-0.03-0.031-0.06-0.061-0.09-0.091c-0.024-0.043-0.04-0.091-0.046-0.14l-0.089-0.092c-0.037-0.04-0.067-0.086-0.09-0.136v-0.049
				c-0.025-0.042-0.041-0.089-0.045-0.138l-0.093-0.093c-0.037-0.042-0.067-0.089-0.09-0.139l-0.044-0.045
				c0.004-0.051-0.012-0.102-0.045-0.141c-0.041-0.037-0.088-0.068-0.138-0.091c-0.031-0.04-0.047-0.089-0.044-0.139V14.37
				c-0.04-0.038-0.086-0.068-0.136-0.091c-0.045-0.036-0.077-0.085-0.09-0.141l-7.439,0.048c-1.724,0.031-3.447,0.046-5.169,0.046
				c-0.038,0.041-0.069,0.087-0.093,0.138c-0.035,0.002-0.068,0.018-0.091,0.045h-0.317c-0.078-0.003-0.154-0.018-0.227-0.045
				c-0.061-0.031-0.118-0.063-0.18-0.091c-0.023-0.051-0.055-0.099-0.092-0.141c-0.043-0.013-0.078-0.047-0.09-0.091v-0.138
				c-0.022-0.028-0.055-0.045-0.091-0.049c-0.025-0.043-0.04-0.091-0.044-0.14l-0.093-0.09V9.98h-0.814l-0.27-0.091l-0.09-0.091
				C28,9.8,27.966,9.816,27.943,9.844c-0.078-0.026-0.153-0.057-0.227-0.093c-0.038-0.042-0.069-0.089-0.092-0.14
				c-0.044-0.012-0.079-0.046-0.09-0.091V9.372H6.565V10.2l-0.044,0.1l-0.049,0.047V10.9H6.52l0.044,0.045L6.52,11.038l-0.819,9.071
				l-0.044,0.045v0.094L5.611,20.3l-0.409,1.386L3.75,21.822V6.594h0.093l0.181-0.045V6.5h0.091L4.25,6.594l0.09,0.093v0.092h2.361
				l0.135,0.046L6.882,6.87l0.09,0.046H28.56c0.756,0,1.511-0.016,2.266-0.046h0.273V2.151c0.002-0.035,0.018-0.068,0.045-0.091
				c0.059-0.03,0.106-0.079,0.135-0.139h0.182c0.027-0.024,0.043-0.057,0.046-0.093l0.043-0.047c0.022-0.027,0.055-0.044,0.09-0.046
				h0.182V1.689h5.848V1.134c0.078-0.004,0.154-0.02,0.227-0.048V0.9C37.951,0.844,38.015,0.797,38.085,0.764z M57.357,17.055
				c-0.729-0.715-1.184-1.667-1.271-2.685c-0.109,0.085-0.218,0.178-0.314,0.278c-0.383,0.387-0.69,0.842-0.908,1.342l0.14,0.139
				c0.746,0.77,1.744,1.245,2.812,1.342C57.652,17.342,57.5,17.203,57.357,17.055z M62.346,14.835
				c-0.061-0.062-0.121-0.126-0.181-0.186c-0.824-0.873-1.976-1.359-3.177-1.342c-0.463-0.003-0.924,0.075-1.359,0.23
				c-0.064,0.305-0.096,0.615-0.092,0.926c-0.016,1.102,0.373,2.171,1.09,3.008c1.057-0.093,2.041-0.569,2.768-1.342
				c0.381-0.382,0.703-0.818,0.955-1.294H62.346z M42.528,30.152v-0.092h-0.047c-0.004,0.051,0.013,0.102,0.046,0.14L42.528,30.152
				L42.528,30.152z"/>
		</g>
	</g>
	<g>
		<g>
			<defs>
				<path id="SVGID_3_" d="M38.085,0.764c0.04-0.038,0.085-0.068,0.135-0.091V0.3c0.18,0.031,0.362,0.046,0.545,0.046v0.092
					c0.182,0,0.363,0.016,0.542,0.046v0.093c0.048,0.006,0.095,0.021,0.138,0.045v0.092c0.05-0.004,0.099,0.013,0.136,0.047V0.9
					c0.044,0.012,0.078,0.047,0.09,0.091l0.09,0.09c0.05,0.024,0.097,0.057,0.137,0.095c0.059,0.03,0.106,0.079,0.135,0.138
					l0.045,0.046c0.122,0.03,0.243,0.064,0.363,0.093v0.093c0.037,0.033,0.086,0.05,0.136,0.046v0.093h33.604
					c0.07,0.036,0.146,0.066,0.228,0.091c0.028,0.031,0.062,0.063,0.089,0.091c0.041,0.038,0.087,0.07,0.137,0.094l0.045,0.093
					c0.033,0.039,0.051,0.088,0.045,0.139c0.025,0.024,0.043,0.058,0.045,0.093v0.046h0.047c0.021,0.05,0.056,0.097,0.094,0.137
					c0.025,0.031,0.181,0.574,0.449,1.622c0.305,1.08,0.572,1.62,0.815,1.62h1.407l0.27-0.091h0.273V5.576h1.314l0.313,0.046
					l0.271,0.092h1.949l0.187,0.093l0.088,0.138l0.5,0.047l-0.045,4.442l-0.046,0.091l-0.047,0.142l-0.183,0.184h-0.18l-0.224-0.046
					v0.048h-3.989l1.771,4.071v0.232c0.006,0.049,0.021,0.096,0.045,0.138v1.295c-0.604,0.057-1.209,0.073-1.813,0.047
					c-0.062-0.031-0.646-1.126-1.771-3.286c-0.479,0.032-0.968,0.063-1.449,0.093c-0.074-0.003-0.152,0.012-0.229,0.045h-0.316
					c0,0.036-0.018,0.069-0.045,0.093c0,0.065-0.016,0.092-0.045,0.092v0.234c-0.002,0.036-0.019,0.069-0.047,0.091
					c0.006,0.049-0.011,0.099-0.043,0.137v2.911c0.029,0.031,0.063,0.063,0.09,0.093v1.2c0.027,0.022,0.043,0.058,0.045,0.093
					c0.031,0.029,0.063,0.063,0.09,0.091c-0.004,0.053,0.018,0.103,0.052,0.142v1.062c-0.005,0.021,0.011,0.041,0.028,0.045
					c0.004,0.002,0.012,0.002,0.017,0c-0.004,0.052,0.013,0.104,0.044,0.144c0.003,0.033,0.021,0.065,0.044,0.094v0.229
					c0.003,0.035,0.021,0.07,0.047,0.096c-0.005,0.05,0.015,0.102,0.046,0.139v0.188c0.025,0.022,0.041,0.057,0.047,0.091
					c0.021,0.043,0.039,0.091,0.045,0.141c0.023,0.023,0.043,0.059,0.045,0.094c0.022,0.021,0.041,0.059,0.045,0.093v0.093
					c0.021,0.049,0.055,0.096,0.092,0.139c0.002,0.035,0.018,0.069,0.045,0.097v0.229c0,0.035,0.018,0.069,0.045,0.095v0.139
					c0.029,0,0.044,0.031,0.044,0.094c0.026,0.023,0.044,0.059,0.047,0.094c0.026,0.021,0.043,0.058,0.045,0.092
					c0.024,0.043,0.039,0.091,0.044,0.141c0.03,0,0.045,0.029,0.045,0.093v0.095c0.03,0.028,0.063,0.063,0.092,0.096
					c-0.004,0.049,0.016,0.098,0.043,0.137V23.1l0.096,0.092v0.318c0.033,0.043,0.064,0.09,0.091,0.141
					c0.026,0,0.045,0.031,0.045,0.095c0.022,0.021,0.042,0.057,0.045,0.092v0.229c0.025,0.021,0.044,0.059,0.048,0.093
					c0.002,0.034,0.02,0.067,0.045,0.094c0.014,0.044,0.049,0.077,0.092,0.091v0.324c0.021,0.051,0.055,0.1,0.092,0.143v0.275
					c-0.004,0.051,0.014,0.104,0.047,0.141l0.09,0.092v0.324c0.025,0.021,0.043,0.056,0.045,0.09
					c0.038,0.041,0.068,0.088,0.09,0.143c0.002,0.034,0.021,0.066,0.045,0.091v0.187c0.006,0.049,0.021,0.098,0.045,0.141
					c0.002,0.033,0.021,0.066,0.045,0.094v0.461l0.045,0.047c0.021,0.054,0.057,0.101,0.092,0.142
					c0.025,0.021,0.044,0.058,0.046,0.093v2.543c0.005,0.051-0.015,0.102-0.046,0.141v0.047c0.031,0.039,0.052,0.088,0.046,0.14
					v0.048c-0.021,0.051-0.056,0.098-0.093,0.137c0,0.063-0.016,0.099-0.045,0.099c-0.022,0.021-0.043,0.055-0.045,0.09
					c-0.021-0.002-0.043,0.015-0.045,0.037c0,0.002,0,0.006,0,0.008c-0.094,0.021-0.184,0.054-0.271,0.095
					c-0.078-0.002-0.155,0.016-0.228,0.045c-0.053,0.022-0.1,0.057-0.14,0.094c-0.053,0.037-0.114,0.055-0.181,0.047
					c-0.07,0.033-0.146,0.049-0.229,0.045c-0.029,0.031-0.061,0.063-0.091,0.095c-0.063,0.003-0.124,0.019-0.181,0.046
					c-0.152,0-0.307,0.016-0.454,0.047h-0.091c-0.059,0.028-0.119,0.045-0.186,0.047c-0.197-0.002-0.396,0.017-0.591,0.045
					c-0.071,0.037-0.147,0.065-0.228,0.095c-0.516,0.028-1.027,0.047-1.541,0.047c-0.029,0.03-0.063,0.063-0.092,0.094
					c-0.063,0-0.125,0.019-0.183,0.045c-0.3,0.033-0.601,0.064-0.905,0.097c-0.035,0.002-0.066,0.018-0.093,0.045
					c-0.075,0.022-0.149,0.058-0.226,0.092c-0.078-0.023-0.153-0.059-0.229-0.092c-0.044-0.022-0.091-0.039-0.139-0.045h-0.04
					c-0.079,0.002-0.155-0.017-0.229-0.049c-0.063-0.041-0.123-0.089-0.183-0.138c-0.038-0.041-0.084-0.071-0.135-0.096
					c-0.037-0.039-0.067-0.086-0.091-0.14V30.92c-0.024-0.043-0.041-0.091-0.045-0.141v-0.09c-0.032-0.037-0.049-0.088-0.045-0.141
					c-0.023-0.023-0.061-0.043-0.095-0.045V30.27c-0.036-0.043-0.065-0.09-0.091-0.142c-0.029-0.028-0.063-0.06-0.092-0.093
					c-0.002-0.035-0.021-0.069-0.045-0.094v-0.14L68.833,29.7v-0.188c-0.022-0.05-0.054-0.097-0.09-0.138
					c-0.03-0.031-0.058-0.062-0.091-0.091V29.1c0.004-0.05-0.012-0.099-0.043-0.138c-0.014-0.044-0.049-0.078-0.092-0.092
					c-0.01-0.05-0.021-0.097-0.045-0.142V28.54c0.004-0.052-0.016-0.101-0.049-0.14v-0.504c-0.033-0.041-0.064-0.088-0.09-0.141
					c-0.035-0.002-0.066-0.021-0.092-0.047c-0.031-0.021-0.053-0.063-0.055-0.104L68.1,27.52c-0.004-0.052-0.02-0.1-0.045-0.143
					v-0.42c0-0.038-0.016-0.073-0.043-0.102c-0.003-0.033-0.02-0.065-0.045-0.09v-0.555c-0.031-0.027-0.063-0.063-0.094-0.09
					c-0.032-0.04-0.048-0.091-0.044-0.145v-0.83c-0.026-0.021-0.042-0.057-0.044-0.094c-0.028-0.021-0.045-0.058-0.045-0.095
					c0.004-0.051-0.014-0.101-0.047-0.138v-1.479c0-0.034-0.019-0.069-0.043-0.095c-0.032-0.028-0.063-0.063-0.092-0.091
					c-0.033-0.039-0.054-0.093-0.045-0.144V21.37c-0.037-0.041-0.068-0.088-0.095-0.14v-1.987c-0.021-0.042-0.04-0.091-0.045-0.14
					c-0.044-0.015-0.079-0.047-0.091-0.09v-2c0.004-0.05-0.016-0.101-0.045-0.14c-0.037-0.033-0.088-0.049-0.141-0.045
					c-0.004-0.05-0.02-0.098-0.045-0.14V16.36c-0.059-0.03-0.104-0.079-0.135-0.138c-0.023-0.026-0.057-0.042-0.092-0.045v-0.372
					c0.004-0.021-0.012-0.042-0.033-0.045c-0.004-0.001-0.007-0.001-0.011,0l-0.093-0.091l-0.09-0.047
					c-0.097-0.022-0.188-0.053-0.271-0.092c-0.053-0.016-0.1-0.049-0.135-0.093V15.39c-0.021-0.027-0.055-0.043-0.09-0.047
					c-0.096,0.001-0.188-0.014-0.272-0.043h-0.771c-0.078,0.003-0.154,0.019-0.229,0.046c0.004,0.05-0.013,0.1-0.044,0.139
					c-0.064,0.018-0.129,0.05-0.184,0.094c-0.065,0.036-0.131,0.082-0.185,0.137c0.004,0.021-0.01,0.042-0.028,0.046
					c-0.007,0-0.011,0.001-0.015,0V15.9c-0.033,0.045-0.082,0.078-0.138,0.093c-0.036,0.042-0.067,0.088-0.092,0.139
					c-0.049,0.023-0.096,0.055-0.135,0.092c-0.045,0.012-0.078,0.046-0.091,0.09l-0.046,0.1c-0.061,0.029-0.105,0.078-0.139,0.138
					c-0.039,0.039-0.086,0.07-0.137,0.093c-0.029,0.031-0.062,0.062-0.091,0.091l-0.049,0.093c-0.08,0.009-0.158,0.04-0.226,0.091
					l-0.137,0.14c-0.035,0.004-0.065,0.02-0.09,0.047c0.004,0.052-0.016,0.102-0.051,0.139c-0.049,0.024-0.096,0.055-0.134,0.092
					c-0.038,0.041-0.065,0.088-0.093,0.138c-0.021,0.028-0.058,0.045-0.092,0.045c-0.063,0.064-0.142,0.111-0.228,0.138
					c-0.011,0.047-0.045,0.083-0.093,0.096c-0.028,0.031-0.075,0.076-0.137,0.138c-0.049,0.024-0.094,0.057-0.133,0.094
					l-0.093,0.094c-0.022,0.051-0.056,0.098-0.091,0.139l-0.059,0.08l-0.093,0.097c-0.089,0.028-0.181,0.045-0.271,0.045
					c-0.063,0.029-0.121,0.062-0.187,0.092c-0.021,0.051-0.053,0.098-0.091,0.14c-0.055,0.016-0.102,0.049-0.137,0.092
					c-0.09,0.031-0.182,0.063-0.271,0.092c-0.12,0.033-0.229,0.063-0.317,0.097c-0.063,0.041-0.125,0.088-0.185,0.138
					c-0.067,0.008-0.137,0.039-0.182,0.096l-0.181,0.092c-0.106-0.002-0.217,0.015-0.315,0.048h-0.271
					c-0.24,0.028-0.5,0.062-0.771,0.09c-0.076,0.026-0.151,0.06-0.228,0.094h-1.899c-0.087-0.041-0.179-0.071-0.271-0.094
					c-0.147-0.03-0.315-0.063-0.5-0.09h-0.226c-0.041-0.104-0.123-0.188-0.228-0.231c-0.006-0.049-0.021-0.096-0.045-0.138
					c-0.051-0.022-0.096-0.058-0.135-0.095c-0.088-0.039-0.183-0.069-0.271-0.092c0.006-0.045-0.024-0.086-0.069-0.092
					c-0.008-0.003-0.017-0.003-0.022,0c-0.061-0.029-0.104-0.078-0.136-0.142c-0.038-0.038-0.086-0.068-0.137-0.092
					c-0.003,0.035-0.021,0.07-0.046,0.092c-0.021,0.043-0.038,0.091-0.044,0.142c-0.046,0.012-0.08,0.047-0.093,0.092v0.092
					c-0.024,0.022-0.041,0.06-0.045,0.095C54.122,19,54.105,19.047,54.1,19.096c-0.045,0.014-0.078,0.049-0.09,0.094
					c-0.006,0.05-0.021,0.097-0.045,0.14c-0.035,0.003-0.068,0.021-0.094,0.047v0.229c-0.029,0.039-0.051,0.088-0.045,0.14
					l-0.045,0.046c-0.021,0.044-0.04,0.091-0.047,0.143c-0.028,0.03-0.063,0.063-0.09,0.094v0.322
					c0.004,0.051-0.015,0.1-0.047,0.139l-0.048,0.097l-0.09,0.09v0.322c-0.024,0.021-0.043,0.058-0.045,0.092
					c0,0.063-0.017,0.093-0.047,0.093c-0.022,0.043-0.039,0.09-0.044,0.139c-0.026,0.023-0.045,0.062-0.047,0.098
					c-0.036,0.04-0.067,0.088-0.092,0.139v0.188c-0.006,0.05-0.021,0.097-0.045,0.14c-0.045,0.013-0.078,0.048-0.09,0.093
					c-0.002,0.035-0.021,0.067-0.045,0.094v0.093c-0.023,0.043-0.039,0.09-0.045,0.14v0.604l-0.045,0.09
					c-0.023,0.046-0.039,0.093-0.044,0.145l-0.097,0.09v0.646c-0.023,0.021-0.043,0.059-0.045,0.092
					c-0.006,0.051-0.021,0.098-0.045,0.141c-0.028,0.029-0.063,0.063-0.09,0.094v0.646c-0.025,0.021-0.046,0.057-0.048,0.092
					c-0.03,0.039-0.049,0.09-0.045,0.141v6.01l-0.047,0.094c-0.035,0.043-0.063,0.09-0.088,0.14
					c-0.029,0.032-0.063,0.063-0.093,0.097H52.1V32.3h-7.89v-0.94h-0.905c-0.035,0.002-0.067,0.021-0.091,0.05h-0.951
					c-0.079,0.002-0.157-0.017-0.228-0.05c-0.06-0.063-0.106-0.105-0.135-0.139c-0.029-0.029-0.062-0.063-0.092-0.095V30.8
					c-0.03-0.03-0.061-0.063-0.09-0.093c-0.038-0.042-0.069-0.089-0.093-0.141V29.32c-0.032-0.037-0.047-0.088-0.044-0.137v-2.221
					c0.028-0.023,0.044-0.063,0.044-0.104V24.65c0.028-0.022,0.044-0.059,0.046-0.094c0.061-0.063,0.106-0.104,0.136-0.141V23.77
					c0.003-0.035,0.02-0.066,0.046-0.092c0.028-0.031,0.06-0.063,0.09-0.095c0.005-0.049,0.021-0.097,0.044-0.14V23.26
					c0.003-0.035,0.019-0.066,0.046-0.092v-0.646c0.027-0.021,0.043-0.059,0.045-0.094c0.062-0.063,0.106-0.107,0.135-0.139
					c0.027-0.021,0.044-0.059,0.047-0.094c0.037-0.041,0.068-0.088,0.091-0.139l0.044-0.049v-0.14
					c0.001-0.036,0.018-0.069,0.046-0.095c0.005-0.049,0.02-0.096,0.044-0.139V21.45c0.026-0.022,0.043-0.058,0.046-0.093
					c0.031-0.039,0.048-0.09,0.045-0.143c0.025-0.021,0.042-0.057,0.044-0.092V21.05l0.045-0.091
					c0.006-0.05,0.021-0.098,0.045-0.143c0.041-0.037,0.086-0.066,0.138-0.09c0.029-0.031,0.06-0.063,0.09-0.095v-0.141
					c0.025-0.021,0.041-0.06,0.043-0.095c0.035-0.039,0.052-0.088,0.048-0.139v-0.18c0.028-0.033,0.059-0.063,0.091-0.102
					c0.006-0.047,0.021-0.098,0.044-0.141c0.022-0.023,0.058-0.044,0.092-0.047c0.022-0.051,0.054-0.1,0.091-0.141v-0.09
					c0.004-0.049,0.021-0.096,0.043-0.139c0.028-0.023,0.047-0.056,0.051-0.092v-0.23c0.043-0.013,0.078-0.047,0.091-0.092
					c0.026-0.021,0.042-0.056,0.045-0.091c0.002-0.034,0.019-0.067,0.044-0.093c0.021-0.053,0.052-0.1,0.09-0.141
					c0.045-0.015,0.081-0.048,0.094-0.093c0.004-0.051,0.021-0.098,0.045-0.141V18.27l0.088-0.092
					c0.041-0.039,0.072-0.088,0.093-0.14v-0.276c0.005-0.049,0.021-0.096,0.046-0.139l0.09-0.094
					c0.001-0.035,0.018-0.068,0.044-0.092v-0.43c-0.003-0.051,0.013-0.101,0.046-0.14v-0.693c-0.027-0.024-0.043-0.058-0.046-0.094
					v-0.231c-0.026-0.024-0.042-0.057-0.044-0.093c-0.029-0.031-0.061-0.061-0.09-0.091c-0.023-0.043-0.04-0.091-0.046-0.14
					l-0.089-0.092c-0.037-0.04-0.067-0.086-0.09-0.136v-0.049c-0.025-0.042-0.041-0.089-0.045-0.138l-0.094-0.093
					c-0.037-0.042-0.066-0.089-0.09-0.139l-0.044-0.045c0.004-0.051-0.013-0.102-0.045-0.141c-0.041-0.037-0.088-0.068-0.138-0.091
					c-0.031-0.04-0.047-0.089-0.045-0.139V14.37c-0.039-0.038-0.086-0.068-0.136-0.091c-0.045-0.036-0.077-0.085-0.09-0.141
					l-7.439,0.048c-1.724,0.031-3.447,0.046-5.169,0.046c-0.038,0.041-0.069,0.087-0.093,0.138
					c-0.035,0.002-0.068,0.018-0.091,0.045h-0.317c-0.078-0.003-0.154-0.018-0.227-0.045c-0.061-0.031-0.118-0.063-0.18-0.091
					c-0.023-0.051-0.055-0.099-0.092-0.141c-0.043-0.013-0.078-0.047-0.09-0.091v-0.138c-0.022-0.028-0.055-0.045-0.091-0.049
					c-0.025-0.043-0.04-0.091-0.044-0.14l-0.093-0.09V9.98h-0.814l-0.27-0.091l-0.09-0.091C28,9.8,27.966,9.816,27.943,9.844
					c-0.078-0.026-0.153-0.057-0.227-0.093c-0.038-0.042-0.069-0.089-0.092-0.14c-0.044-0.012-0.079-0.046-0.09-0.091V9.372H6.565
					V10.2l-0.044,0.1l-0.049,0.047V10.9H6.52l0.044,0.045L6.52,11.038l-0.819,9.071l-0.044,0.045v0.094L5.611,20.3l-0.409,1.386
					L3.75,21.822V6.594h0.093l0.181-0.045V6.5h0.091L4.25,6.594l0.09,0.093v0.092h2.361l0.135,0.046L6.882,6.87l0.09,0.046H28.56
					c0.756,0,1.511-0.016,2.266-0.046h0.273V2.151c0.002-0.035,0.018-0.068,0.045-0.091c0.059-0.03,0.106-0.079,0.135-0.139h0.182
					c0.027-0.024,0.043-0.057,0.046-0.093l0.043-0.047c0.022-0.027,0.055-0.044,0.09-0.046h0.182V1.689h5.848V1.134
					c0.078-0.004,0.154-0.02,0.227-0.048V0.9C37.951,0.844,38.015,0.797,38.085,0.764z M57.357,17.055
					c-0.729-0.715-1.184-1.667-1.271-2.685c-0.109,0.085-0.218,0.178-0.314,0.278c-0.383,0.387-0.69,0.842-0.908,1.342l0.14,0.139
					c0.746,0.77,1.744,1.245,2.812,1.342C57.652,17.342,57.5,17.203,57.357,17.055z M62.346,14.835
					c-0.061-0.062-0.121-0.126-0.181-0.186c-0.824-0.873-1.976-1.359-3.177-1.342c-0.463-0.003-0.924,0.075-1.359,0.23
					c-0.064,0.305-0.096,0.615-0.092,0.926c-0.016,1.102,0.373,2.171,1.09,3.008c1.057-0.093,2.041-0.569,2.768-1.342
					c0.381-0.382,0.703-0.818,0.955-1.294H62.346z M42.527,30.152v-0.092h-0.046c-0.004,0.051,0.013,0.102,0.046,0.14V30.152
					L42.527,30.152z"/>
			</defs>
			<clipPath id="SVGID_4_">
				<use xlink:href="#SVGID_3_"  overflow="visible"/>
			</clipPath>
			
				<linearGradient id="SVGID_5_" gradientUnits="userSpaceOnUse" x1="-782.7637" y1="276.7529" x2="-737.2319" y2="276.7529" gradientTransform="matrix(0.998 -0.0625 0.0625 0.998 782.3708 -315.5861)">
				<stop  offset="0" style="stop-color:#FFFF13"/>
				<stop  offset="1" style="stop-color:#7411C3"/>
			</linearGradient>
			<path clip-path="url(#SVGID_4_)" fill="url(#SVGID_5_)" d="M26.313,7.865l11.341-6.042L22.83,11.282l0.544,0.889
				c0,0,28.674-18.854,37.51-21.469c0,0-24.502,15.325-29.156,20.093c0,0,13.448-9.158,17.85-11.281l-5.105,4.229l2.087-1.197
				l-4.635,3.985c0,0,8.713-6.801,18.08-9.804l3.512,3.688c0,0-7.875,0.139-18.659,13.961c0,0,4.009-6.148,5.892-8.398
				c0,0-7.489,5.16-15.068,12.244l5.673-6.326c0,0-5.923,4.565-9.842,9.926c0,0,5.677-9.592,20.548-19.409
				c0,0-8.152,2.359-24.857,15.204c0,0,14.581-8.874,15.318-9.347c0.67-0.467-18.496,13.169-20.502,16.779
				c-2.215,3.621-3.487-14.491-3.487-14.491L26.313,7.865z"/>
		</g>
	</g>
</g>
</svg>
