<?xml version="1.0" encoding="utf-8"?>
<!-- Generator: Adobe Illustrator 16.0.0, SVG Export Plug-In . SVG Version: 6.00 Build 0)  -->
<!DOCTYPE svg PUBLIC "-//W3C//DTD SVG 1.1//EN" "http://www.w3.org/Graphics/SVG/1.1/DTD/svg11.dtd">
<svg version="1.1" id="case1" xmlns="http://www.w3.org/2000/svg" xmlns:xlink="http://www.w3.org/1999/xlink" x="0px" y="0px"
	 width="92px" height="36px" viewBox="0 0 92 36" enable-background="new 0 0 92 36" xml:space="preserve">
<linearGradient id="nova_2_" gradientUnits="userSpaceOnUse" x1="0.75" y1="16.2998" x2="91.123" y2="16.2998">
	<stop  offset="0" style="stop-color:#5400D7"/>
	<stop  offset="1" style="stop-color:#9178E2"/>
</linearGradient>
<path id="nova" fill="url(#nova_2_)" d="M88.889,7.592c0,0.044,0.01,0.087,0.031,0.125v0.632h1.49
	c0.056-0.002,0.111,0.008,0.162,0.031c0.025,0.001,0.049,0.013,0.066,0.031h0.03V8.38h0.063c0.053,0.025,0.105,0.045,0.162,0.061
	c0.025,0.029,0.047,0.061,0.063,0.096c0.021,0,0.034,0.02,0.034,0.062c0.02,0.017,0.029,0.04,0.031,0.064v0.063
	C91.01,8.754,91,8.786,90.996,8.819c-0.018,0.018-0.028,0.04-0.034,0.064h0.065v0.553c0.014,0.014,0.022,0.03,0.031,0.047
	c0.023,0.026,0.037,0.06,0.033,0.094l0.031,0.033v0.251c-0.002,0.024-0.014,0.048-0.031,0.063l-0.063,0.062v0.759h-0.473
	l0.017,0.028c0.002,0.024,0.014,0.048,0.034,0.063c0.019,0.021,0.041,0.042,0.063,0.063v0.097l-0.018,0.016
	c-2.819-0.01-5.635-0.015-8.445-0.016c-0.035,0.017-0.068,0.038-0.098,0.064l-0.389,0.015v0.079h-0.031v-0.079
	c-0.357,0.02-0.717,0.041-1.07,0.063v0.016h-0.13v0.064L80.02,11.2c-0.017,0.018-0.03,0.033-0.047,0.048
	c-0.021,0.039-0.033,0.082-0.033,0.125c-0.03,0.007-0.064,0.014-0.098,0.018v0.474c0.057,0,0.109,0.008,0.161,0.016v1.865
	c-0.106,0-0.215,0-0.323,0v0.157h-0.878v0.094c-0.002,0.024-0.014,0.047-0.032,0.062c-0.022,0.026-0.035,0.061-0.033,0.095
	c-0.016,0.019-0.037,0.03-0.063,0.03c-0.023,0.002-0.05,0.014-0.064,0.033c-0.02,0.018-0.041,0.029-0.063,0.031l-0.032,0.031
	c-0.041,0.02-0.086,0.031-0.131,0.031h-0.322v0.032c-0.215,0.042-0.432,0.088-0.646,0.127v0.062
	c-0.187,0.021-0.37,0.052-0.551,0.095c-0.035,0.016-0.068,0.037-0.099,0.062c-0.563,0.021-1.125,0.054-1.687,0.095
	c-0.036,0.016-0.067,0.037-0.099,0.063c-0.444-0.011-0.888-0.023-1.33-0.031l-0.064,0.063H73.55
	c-0.051,0.023-0.106,0.034-0.161,0.031h-9.125c-0.1,0.01-0.203,0.02-0.308,0.032V15c-0.476,0.021-0.963,0.053-1.46,0.095v0.064
	c-0.52,0.021-1.027,0.052-1.523,0.094c-0.035,0.016-0.068,0.038-0.098,0.063c-0.409,0.021-0.809,0.052-1.199,0.093
	c-0.035,0.016-0.068,0.037-0.098,0.063c-0.367,0.02-0.745,0.052-1.135,0.094v0.063c-0.435,0.02-0.865,0.053-1.299,0.094v0.063
	c-0.41,0.021-0.811,0.052-1.199,0.094c-0.036,0.016-0.069,0.037-0.098,0.063c-0.521,0.021-1.027,0.054-1.524,0.093
	c-0.034,0.017-0.067,0.038-0.099,0.063c-0.668-0.021-1.328-0.031-1.979-0.031c-0.021-0.021-0.055-0.053-0.098-0.094l-1.035-0.061
	l-0.098-0.095c-0.107-0.02-0.226-0.041-0.356-0.063V15.66c-0.108-0.018-0.218-0.04-0.323-0.06v-0.09
	c-0.054-0.023-0.105-0.044-0.161-0.063v-0.098c-0.108-0.02-0.217-0.042-0.323-0.063v-0.095c-0.054-0.024-0.106-0.046-0.162-0.063
	c-0.021-0.039-0.032-0.082-0.035-0.126c-0.023-0.046-0.057-0.088-0.094-0.125l-0.099-0.095l-0.265-0.126
	c-0.021-0.039-0.03-0.083-0.032-0.126c-0.024-0.047-0.06-0.09-0.099-0.127c-2.275,0.019-4.56,0.041-6.842,0.064v0.061
	c-0.715-0.021-1.428-0.031-2.141-0.032c-0.021-0.02-0.055-0.052-0.098-0.095c-0.108-0.019-0.226-0.041-0.357-0.062V14.26
	c-0.02,0.01-0.042,0.015-0.065,0.015c0.002,0.015-0.008,0.029-0.022,0.031c-0.003,0-0.006,0-0.009,0L39.438,14.4
	c-0.016,0.02-0.04,0.032-0.066,0.032c0.002,0.016-0.008,0.03-0.024,0.032c-0.003,0-0.005,0-0.008,0
	c0.001,0.016-0.01,0.029-0.025,0.031c-0.002,0-0.005,0-0.008,0l-0.031,0.031c-0.025,0.002-0.049,0.013-0.066,0.032h-0.028
	c-0.03,0.017-0.063,0.028-0.097,0.032l-0.032,0.031h-0.036v0.031l-0.064,0.031l-0.033,0.031h-0.018
	c-0.018,0.007-0.034,0.018-0.046,0.032H38.82c-0.03,0.017-0.063,0.027-0.097,0.031c0.002,0.016-0.009,0.03-0.025,0.032
	c-0.002,0-0.005,0-0.007,0c-0.033,0.031-0.065,0.063-0.098,0.094c-0.016-0.002-0.031,0.01-0.033,0.026c0,0.002,0,0.004,0,0.006
	c-0.024,0.001-0.047,0.013-0.063,0.031c-0.015-0.003-0.029,0.007-0.032,0.021c0,0.003-0.001,0.006,0,0.009
	c-0.025,0.001-0.048,0.012-0.064,0.031h-0.035c0.002,0.016-0.009,0.029-0.024,0.032c-0.002,0-0.005,0-0.008,0
	c-0.016,0.019-0.039,0.03-0.064,0.032c0.002,0.015-0.009,0.029-0.024,0.031c-0.003,0-0.006,0-0.009,0v0.037
	c-0.107,0.021-0.216,0.031-0.325,0.031l-0.033,0.031c-0.017,0.018-0.041,0.03-0.065,0.032l-0.064,0.063v0.031l-0.033,0.031v0.031
	c-0.03,0.017-0.063,0.028-0.096,0.032l-0.033,0.032v0.028h-0.031c-0.017,0.019-0.041,0.03-0.065,0.032l-0.097,0.094v0.058
	c-0.03,0.018-0.063,0.029-0.098,0.033l-0.064,0.063v0.063c-0.031,0.016-0.063,0.026-0.098,0.031c-0.017,0.019-0.04,0.03-0.065,0.031
	v0.063h-0.1V16c-0.016,0.018-0.04,0.029-0.064,0.029c0.002,0.016-0.008,0.03-0.023,0.033c-0.002,0-0.005,0-0.008,0
	c-0.015-0.002-0.029,0.007-0.031,0.022c0,0.002,0,0.005,0,0.008l-0.03,0.048v0.062h-0.196c0.001,0.016-0.01,0.031-0.027,0.032
	c-0.002,0-0.004,0-0.006,0v0.064h-0.096c-0.017,0.02-0.04,0.031-0.065,0.034c-0.073,0.021-0.149,0.031-0.226,0.031
	c-0.074,0.021-0.151,0.032-0.228,0.03v0.063h-0.194c-0.041,0.02-0.084,0.031-0.129,0.031c-0.264,0.021-0.519,0.031-0.778,0.031
	H34.12c-0.045,0-0.09-0.011-0.131-0.031c-0.035,0.002-0.069-0.009-0.096-0.031c-0.025-0.002-0.049-0.013-0.065-0.032V16.39
	c-0.041-0.02-0.084-0.031-0.129-0.031c0.015-0.002,0.03,0.008,0.032,0.023c0,0.002,0,0.005,0,0.008v0.252
	c0.011,0.012,0.022,0.021,0.034,0.032l0.032,0.031v0.126c-0.011,0.01-0.021,0.021-0.032,0.031l-0.034-0.031h-0.553
	c-0.034-0.004-0.067-0.015-0.097-0.032l-0.063-0.063v-0.063c-0.03-0.017-0.063-0.027-0.097-0.032V16.61l-0.032-0.031V16.55
	c-0.016,0.003-0.03-0.008-0.033-0.024c0-0.002,0-0.005,0-0.008l-0.032-0.031c-0.025-0.001-0.048-0.013-0.065-0.031
	c0.002-0.015-0.009-0.029-0.024-0.032c-0.003,0-0.006,0-0.009,0v-0.063l-0.037-0.03v-0.032l-0.195-0.188v-0.033
	c-0.015,0.002-0.029-0.009-0.032-0.024c0-0.003,0-0.005,0-0.008l-0.066-0.062v-0.035c0.002-0.016-0.01-0.03-0.025-0.032
	c-0.002,0-0.005,0-0.007,0v-0.056c-0.016-0.019-0.038-0.03-0.063-0.033l-0.032-0.03c0.001-0.017-0.01-0.031-0.026-0.032
	c-0.002,0-0.005,0-0.008,0v-0.034c-0.016,0.002-0.03-0.01-0.032-0.026c0-0.002,0-0.004,0-0.006v-0.034l-0.032-0.029v-0.032
	c-0.016,0.002-0.03-0.009-0.032-0.024c0-0.003,0-0.005,0-0.008l-0.034-0.033v-0.03h-0.031v-0.031
	c0.002-0.016-0.008-0.03-0.024-0.032c-0.003,0-0.006,0-0.008,0c0.001-0.016-0.011-0.03-0.026-0.032c-0.002,0-0.004,0-0.006,0
	l-0.065-0.063v-0.031c0.002-0.016-0.009-0.03-0.024-0.032c-0.003,0-0.005,0-0.007,0v-0.032l-0.033-0.032v-0.189h-0.033
	c0.002-0.015-0.008-0.029-0.024-0.032c-0.002,0-0.005,0-0.008,0v-0.029l-0.032-0.032v-0.034h-0.031
	c-0.055-0.004-0.109-0.015-0.162-0.032h-1.136c-0.211,0.016-0.416,0.025-0.614,0.032v0.031h-0.134l-0.194,0.062
	c-0.238,0.021-0.487,0.042-0.747,0.063c-0.034,0.004-0.068,0.015-0.098,0.031c-0.035-0.002-0.069,0.008-0.096,0.031
	c-0.046-0.005-0.092,0.006-0.13,0.032c-0.025,0.001-0.048,0.012-0.064,0.031c-0.045-0.005-0.091,0.006-0.13,0.031
	c-0.03,0.017-0.063,0.028-0.097,0.032c-0.04,0.02-0.084,0.031-0.129,0.032c-0.047,0.012-0.091,0.033-0.129,0.063
	c-0.066,0.02-0.13,0.042-0.195,0.062c-0.008,0.031-0.033,0.056-0.064,0.063c-0.035-0.002-0.07,0.009-0.098,0.031
	c-0.035,0.016-0.068,0.038-0.097,0.064c-0.04,0.02-0.084,0.03-0.129,0.032v0.032c-0.016,0.007-0.032,0.013-0.049,0.016
	c-0.002,0.017-0.007,0.032-0.016,0.046l-0.065,0.063l-0.032,0.032h-0.034v0.031c-0.041,0.041-0.086,0.085-0.128,0.128l-0.13,0.126
	c-0.064,0.042-0.129,0.087-0.195,0.125v0.221c-0.042,0.021-0.096,0.053-0.162,0.094v0.063c-0.056,0.029-0.11,0.06-0.162,0.094v0.22
	c-0.042,0.021-0.096,0.054-0.162,0.095v0.219c-0.041,0.021-0.096,0.053-0.162,0.095v1.421c-0.023,0.026-0.035,0.061-0.032,0.096
	c-0.021,0.041-0.055,0.074-0.097,0.096l-0.032,0.029c-0.055,0-0.108,0-0.163,0c-0.019,0.017-0.031,0.039-0.033,0.063
	c-0.016,0.034-0.038,0.065-0.065,0.095l-0.064,0.03c-0.055,0.003-0.109,0.015-0.161,0.032h-0.07
	c-0.063-0.021-0.128-0.032-0.194-0.032c-0.015-0.034-0.037-0.065-0.064-0.093c-0.023-0.025-0.035-0.061-0.032-0.096v-0.01
	c-0.151-0.009-0.302-0.014-0.454-0.02v0.029c-0.056,0.029-0.11,0.062-0.163,0.098v0.063c-0.055,0.012-0.109,0.024-0.162,0.047v0.271
	c-0.056,0.028-0.109,0.06-0.162,0.093v0.061c-0.252-0.006-0.509-0.012-0.761-0.016c-0.351-0.01-0.703-0.015-1.053-0.017v0.063
	l0.064,0.063l0.097,0.094c0.019,0.018,0.03,0.039,0.032,0.063v0.033l0.033,0.031v0.1c-0.019,0.017-0.031,0.037-0.033,0.063
	c-0.023,0.025-0.034,0.06-0.032,0.095c-0.017,0.019-0.04,0.028-0.065,0.028h-0.066c-0.027,0.022-0.062,0.034-0.098,0.032h-0.129
	c-0.063-0.021-0.128-0.03-0.194-0.032c-0.03-0.024-0.062-0.046-0.098-0.063c-0.016-0.032-0.038-0.065-0.065-0.094
	c-0.032-0.009-0.056-0.035-0.063-0.065v-0.315c-0.031-0.009-0.056-0.031-0.064-0.063c-0.002-0.024-0.014-0.047-0.033-0.063v-0.06
	c-0.044-0.043-0.079-0.077-0.1-0.096c-0.032-0.008-0.056-0.031-0.064-0.063c-0.001-0.022-0.013-0.046-0.033-0.063
	c-0.017-0.033-0.039-0.064-0.064-0.095L21.21,19.07c-0.023-0.026-0.035-0.063-0.032-0.096c-0.02-0.017-0.031-0.037-0.033-0.063
	V18.88l-0.194-0.063c-0.009-0.029-0.034-0.055-0.065-0.063c-0.026-0.027-0.047-0.059-0.064-0.093
	c-0.055-0.017-0.109-0.039-0.161-0.063h-0.196c-0.056,0.002-0.11,0.012-0.162,0.031c-0.051-0.021-0.106-0.033-0.162-0.031
	c-0.022-0.021-0.042-0.041-0.065-0.062c-0.016-0.036-0.037-0.068-0.065-0.095v-0.347c-0.081,0.018-0.158,0.05-0.228,0.094
	l-0.263,0.127v0.126c-0.078,0.038-0.154,0.081-0.227,0.127c-0.087,0.02-0.175,0.039-0.263,0.062
	c-0.11,0.021-0.218,0.054-0.323,0.095c-0.053,0.024-0.106,0.045-0.162,0.063c-0.081,0.021-0.157,0.051-0.227,0.095
	c-0.035,0.016-0.067,0.037-0.096,0.063c-0.111,0.021-0.219,0.054-0.325,0.095v0.067c-0.11,0.021-0.219,0.054-0.325,0.095v0.063
	c-0.11,0.021-0.219,0.055-0.324,0.096v0.063c-0.132,0.021-0.263,0.053-0.391,0.094c-0.035,0.018-0.067,0.037-0.096,0.063
	c-0.056,0.026-0.11,0.063-0.163,0.097v0.063c-0.131,0.021-0.261,0.053-0.389,0.093c-0.035,0.019-0.068,0.038-0.098,0.063
	c-0.11,0.021-0.218,0.053-0.322,0.094v0.063c-0.111,0.021-0.22,0.053-0.325,0.094v0.063c-0.132,0.021-0.262,0.053-0.388,0.094
	c-0.036,0.018-0.069,0.037-0.099,0.063c-0.11,0.021-0.218,0.055-0.323,0.096v0.063c-0.056,0.029-0.111,0.061-0.163,0.097v0.063
	c-0.081,0.02-0.157,0.049-0.228,0.094c-0.035,0.017-0.068,0.037-0.097,0.063c-0.111,0.021-0.219,0.055-0.324,0.094v0.063
	c-0.11,0.021-0.219,0.054-0.324,0.095v0.062c-0.081,0.021-0.157,0.054-0.228,0.097c-0.035,0.015-0.067,0.037-0.095,0.063
	c-0.081,0.02-0.159,0.049-0.229,0.094c-0.035,0.017-0.067,0.039-0.096,0.063c-0.08,0.02-0.157,0.051-0.227,0.094
	c-0.036,0.018-0.069,0.037-0.098,0.063c-0.056,0.027-0.11,0.061-0.161,0.094v0.063c-0.111,0.021-0.219,0.057-0.324,0.098v0.063
	c-0.111,0.021-0.22,0.054-0.325,0.095v0.065c-0.111,0.021-0.219,0.053-0.323,0.094v0.063c-0.164,0.023-0.326,0.058-0.487,0.097
	v0.063c-0.081,0.02-0.157,0.053-0.228,0.094c-0.035,0.016-0.067,0.038-0.095,0.063c-0.111,0.021-0.22,0.055-0.325,0.096v0.063
	c-0.111,0.021-0.22,0.055-0.325,0.094v0.063c-0.111,0.022-0.219,0.055-0.324,0.094v0.063c-0.152,0.021-0.314,0.055-0.486,0.096
	v0.063c-0.11,0.021-0.219,0.052-0.325,0.093v0.063c-0.111,0.021-0.22,0.053-0.325,0.094v0.064c-0.111,0.021-0.219,0.055-0.324,0.096
	v0.063c-0.107,0.021-0.212,0.055-0.313,0.098v0.063c-0.081,0.021-0.158,0.051-0.228,0.096c-0.035,0.016-0.068,0.037-0.097,0.063
	c-0.111,0.021-0.22,0.054-0.326,0.095v0.063c-0.11,0.021-0.218,0.055-0.323,0.096v0.063c-0.151,0.021-0.313,0.054-0.487,0.094v0.064
	c-0.132,0.021-0.262,0.051-0.388,0.092c-0.036,0.017-0.069,0.039-0.098,0.063c-0.131,0.021-0.261,0.054-0.388,0.095
	c-0.036,0.016-0.068,0.037-0.098,0.063c-0.11,0.021-0.219,0.053-0.324,0.094v0.063c-0.088,0-0.176,0-0.263,0v0.221
	c-0.016,0.035-0.039,0.066-0.065,0.094l-0.03,0.025c-0.016-0.004-0.03,0.01-0.033,0.023c0,0.002,0,0.004,0,0.006
	c-0.034,0.004-0.066,0.016-0.096,0.031H4.515l-0.13-0.063H4.254L4.125,25.34H3.997c-0.052-0.025-0.106-0.046-0.162-0.063
	C3.804,25.255,3.78,25.23,3.771,25.2v-0.031l-0.065-0.063V25.2c-0.022,0.021-0.042,0.043-0.065,0.063l-0.033,0.062
	c-0.003,0.034-0.015,0.065-0.032,0.094c-0.041,0.021-0.084,0.031-0.129,0.033c-0.053,0.022-0.107,0.044-0.162,0.062H2.989
	c-0.055-0.018-0.109-0.037-0.162-0.062H2.762c-0.042-0.022-0.087-0.043-0.129-0.065c-0.022-0.019-0.043-0.041-0.063-0.062
	c-0.053-0.024-0.107-0.046-0.163-0.062c-0.043,0-0.065-0.015-0.065-0.033c-0.066-0.017-0.131-0.035-0.194-0.063
	c-0.045-0.002-0.09-0.015-0.13-0.037l-0.064-0.063c-0.043-0.045-0.076-0.072-0.098-0.094c-0.019-0.017-0.03-0.039-0.031-0.063
	c-0.004-0.034-0.016-0.064-0.034-0.096c-0.002-0.024-0.013-0.049-0.032-0.063c-0.001-0.025-0.014-0.049-0.033-0.063
	c-0.004-0.033-0.015-0.065-0.031-0.094v-0.664c-0.001-0.025-0.013-0.05-0.032-0.063c-0.02-0.017-0.032-0.036-0.035-0.06
	c-0.017-0.029-0.028-0.063-0.033-0.097V23.21c-0.019-0.017-0.031-0.039-0.032-0.063c-0.026-0.028-0.048-0.061-0.065-0.094
	c-0.002-0.027-0.014-0.05-0.033-0.063V22.18c-0.002-0.025-0.014-0.049-0.033-0.063v-0.063c0.003-0.035-0.009-0.07-0.032-0.097
	v-1.103c-0.002-0.021-0.015-0.047-0.035-0.062c0-0.043-0.01-0.063-0.032-0.063c-0.017-0.033-0.039-0.064-0.066-0.094v-1.498
	c-0.021-0.021-0.042-0.041-0.063-0.062C1.2,19.043,1.189,19.012,1.172,18.98v-1.164c-0.026-0.028-0.048-0.06-0.065-0.094
	c-0.014,0.002-0.028-0.007-0.031-0.022c0-0.003,0-0.006,0-0.009V16.78l-0.063-0.06l-0.035-0.063v-0.894
	c-0.017-0.035-0.038-0.066-0.064-0.094C0.913,15.645,0.9,15.622,0.88,15.608v-0.6c-0.004-0.032-0.015-0.064-0.032-0.093
	c-0.025-0.001-0.048-0.012-0.065-0.031c0.003-0.035-0.009-0.07-0.033-0.095v-0.595c0.019-0.015,0.031-0.038,0.033-0.062
	c0.026-0.028,0.048-0.061,0.064-0.095c0.025-0.002,0.048-0.013,0.066-0.031l0.033-0.03h0.032v-0.232
	c0.004-0.034,0.017-0.066,0.035-0.095c0.025-0.001,0.048-0.013,0.065-0.031c0.021-0.042,0.055-0.074,0.097-0.094
	c0.021-0.021,0.042-0.041,0.065-0.062c0.026-0.028,0.048-0.06,0.064-0.094l0.06-0.064c0.042,0,0.065-0.01,0.065-0.031
	c0.056-0.018,0.109-0.039,0.162-0.064c0.022-0.021,0.043-0.042,0.066-0.062h0.128c0.064-0.021,0.13-0.042,0.193-0.062
	c0.072-0.014,0.139-0.046,0.194-0.095c0.034-0.004,0.067-0.015,0.097-0.032h0.325c0.045,0,0.089,0.011,0.13,0.032
	c0.035-0.002,0.069,0.009,0.096,0.032h0.066c0.053,0.024,0.106,0.046,0.162,0.063c0.009,0.031,0.034,0.054,0.065,0.062
	c0.026,0.028,0.048,0.06,0.063,0.096h0.098c0.129-0.022,0.263-0.044,0.388-0.064c0.02-0.015,0.031-0.038,0.033-0.062h1.069
	l0.021,0.016c0.439,0.01,0.882,0.016,1.316,0.016c0.03,0.03,0.053,0.052,0.063,0.062l0.015,0.02
	c0.129,0.006,0.252,0.011,0.373,0.018c0.162,0.019,0.324,0.029,0.487,0.031c0.022,0.02,0.042,0.042,0.064,0.062h0.648
	c0.021-0.02,0.042-0.042,0.065-0.062H7.85c0.563,0,1.125-0.012,1.688-0.031h0.096c0.03-0.018,0.063-0.029,0.097-0.034l0.162-0.016
	v-0.37h0.421c0.063-0.02,0.129-0.031,0.196-0.031c-0.002-0.016,0.009-0.029,0.025-0.031c0.002,0,0.005,0,0.007,0v-0.032h0.257
	c0.015,0.003,0.03-0.007,0.033-0.022c0-0.003,0-0.006,0-0.009h0.422c0.016,0.002,0.03-0.009,0.032-0.025c0-0.002,0-0.005,0-0.007
	h0.324c0.118-0.021,0.237-0.032,0.357-0.031c0.017-0.019,0.04-0.029,0.064-0.032c0.025-0.002,0.048-0.014,0.065-0.032h0.258
	c0.025,0,0.048-0.012,0.063-0.031h0.098c0.024-0.002,0.048-0.013,0.064-0.032h0.358c0.128-0.021,0.258-0.031,0.389-0.032
	c0.017-0.018,0.04-0.028,0.065-0.03c0.015,0.002,0.029-0.009,0.031-0.024c0-0.002,0-0.004,0-0.006h0.455v-0.033
	c0.246,0.018,0.483,0.027,0.714,0.032h0.129c0.012-0.004,0.023-0.009,0.033-0.017c0.165,0,0.327-0.006,0.487-0.016h0.097
	l0.034-0.036h0.13c0.118-0.02,0.238-0.03,0.358-0.031h0.259c0.028-0.022,0.063-0.033,0.098-0.031h0.263
	c0.034-0.004,0.067-0.015,0.097-0.032h0.227c0.185,0,0.369-0.01,0.553-0.031h0.125c0.016,0.002,0.03-0.009,0.033-0.025
	c0-0.002,0-0.005,0-0.008h0.194c-0.002-0.015,0.009-0.029,0.024-0.031c0.002,0,0.006,0,0.009,0h0.294
	c0.04-0.02,0.084-0.03,0.129-0.031h0.325c0.045,0,0.089-0.012,0.129-0.032h0.263c0.045,0,0.089-0.011,0.129-0.031h0.129
	c0.025-0.001,0.048-0.012,0.066-0.03h0.193c0.017-0.02,0.04-0.031,0.065-0.033h0.263c0.04-0.02,0.084-0.03,0.129-0.03h0.284
	c0.044-0.001,0.089-0.012,0.129-0.032h0.263c0.174,0,0.347-0.011,0.52-0.032h0.097c0.025-0.001,0.048-0.013,0.065-0.032h0.129
	l0.032-0.031h0.227c0.03-0.017,0.063-0.028,0.097-0.032h0.197c0.098,0,0.196-0.01,0.292-0.032v0.038h0.129v0.159l0.033,0.031v0.03
	l0.034,0.03v0.032c0.035-0.002,0.069,0.009,0.096,0.031c0.055-0.001,0.11,0.009,0.162,0.031c0.016,0.019,0.04,0.03,0.064,0.032
	v0.033c0.066,0,0.132,0.011,0.195,0.03c0.077-0.001,0.153,0.009,0.227,0.032h0.357c0.052-0.019,0.106-0.029,0.162-0.032
	c0.017-0.018,0.04-0.029,0.065-0.03l0.032-0.033c0.045,0,0.09-0.012,0.131-0.032c0.024-0.002,0.047-0.013,0.065-0.031h0.129
	c0.027-0.023,0.062-0.035,0.098-0.031c0.04-0.021,0.084-0.031,0.129-0.032v-0.03c0.035,0.001,0.07-0.01,0.097-0.033
	c0.015,0.002,0.029-0.009,0.032-0.024c0-0.002,0-0.004,0-0.006h0.13c0.027-0.023,0.062-0.035,0.098-0.032h0.097
	c-0.002-0.016,0.008-0.03,0.024-0.032c0.002,0,0.005,0,0.008,0v-0.033c0.035,0.003,0.07-0.008,0.096-0.031
	c0.016,0.002,0.03-0.008,0.033-0.024c0-0.002,0-0.005,0-0.008h0.129c0.027-0.022,0.061-0.034,0.096-0.032
	c0.041-0.02,0.084-0.03,0.129-0.031v-0.031c0.045-0.001,0.09-0.012,0.131-0.031v-0.033h0.064c0.052-0.018,0.106-0.028,0.162-0.03
	c0.027-0.023,0.063-0.034,0.097-0.032v-0.03c0.025-0.001,0.048-0.012,0.065-0.03v-0.033h0.162c0.031-0.018,0.064-0.029,0.1-0.033
	c0.03-0.017,0.063-0.027,0.097-0.03l0.032-0.032c0.034-0.002,0.068-0.011,0.098-0.026v-0.035h0.162
	c0.03-0.017,0.063-0.028,0.097-0.031c0.017-0.019,0.041-0.03,0.065-0.031v-0.032c0.035,0.003,0.07-0.009,0.096-0.032
	c0.016,0.001,0.029-0.01,0.03-0.026c0-0.002,0-0.004,0-0.005h0.097c0.017-0.019,0.041-0.03,0.066-0.032
	c0.016-0.019,0.04-0.029,0.064-0.031l0.036-0.032c0.045-0.001,0.088-0.012,0.128-0.031c0.026-0.002,0.05-0.014,0.067-0.034h0.032
	c0.027-0.023,0.062-0.035,0.097-0.032c0.017-0.018,0.04-0.029,0.064-0.031l0.033-0.032c0.034-0.004,0.067-0.014,0.098-0.031V10.88
	h0.13c0.017-0.019,0.04-0.03,0.064-0.032c0.041-0.02,0.084-0.031,0.129-0.031l0.035-0.033c0.025-0.002,0.048-0.013,0.065-0.03
	c0.024-0.002,0.048-0.014,0.064-0.032h0.033c0.04-0.021,0.084-0.031,0.129-0.032c0.015-0.017,0.037-0.029,0.06-0.033v-0.031
	c0.035-0.003,0.069-0.014,0.1-0.031v-0.032h0.13l0.033-0.03h0.032c0.04-0.021,0.084-0.032,0.13-0.032V10.47
	c0.024-0.001,0.048-0.013,0.064-0.031v-0.032h0.097c0.018-0.018,0.041-0.028,0.065-0.03c0.04-0.021,0.084-0.032,0.129-0.032v-0.042
	c0.043-0.02,0.086-0.04,0.129-0.059h0.066c0.03-0.017,0.063-0.027,0.096-0.032c0.017-0.021,0.042-0.033,0.068-0.035v-0.033
	c0.045,0,0.089-0.01,0.129-0.03v-0.032h0.129c0.017-0.019,0.04-0.03,0.064-0.032c0.041-0.02,0.085-0.03,0.13-0.031V9.988
	c0.045,0,0.089-0.011,0.13-0.032v-0.03h0.064c0.04-0.021,0.083-0.032,0.127-0.032c0.017-0.019,0.04-0.029,0.065-0.031l0.032-0.032
	c0.025,0,0.048-0.011,0.064-0.03V9.769h0.097c0.016-0.019,0.04-0.031,0.064-0.032c0.041-0.02,0.085-0.031,0.131-0.031V9.672
	c0.025,0,0.049-0.011,0.066-0.03V9.611h0.097c0.04-0.021,0.084-0.032,0.129-0.033c0.016-0.021,0.039-0.033,0.065-0.035V9.516
	c0.025-0.002,0.048-0.013,0.064-0.032c0.024-0.001,0.048-0.012,0.065-0.029h0.065c0.04-0.021,0.084-0.033,0.129-0.033
	c0.017-0.018,0.04-0.029,0.065-0.032l0.032-0.031c0.035-0.004,0.069-0.016,0.099-0.034V9.294h0.096
	c0.017-0.018,0.04-0.029,0.064-0.031c0.04-0.02,0.084-0.031,0.13-0.032V9.199c0.016,0.002,0.03-0.009,0.032-0.025
	c0-0.002,0-0.004,0-0.006V9.137h0.096c0.017-0.019,0.04-0.031,0.066-0.032c0.03-0.017,0.063-0.027,0.097-0.031V9.042
	c0.024-0.001,0.048-0.012,0.064-0.031V8.979h0.13l0.033-0.032c0.04-0.02,0.084-0.03,0.128-0.031V8.885
	c0.043-0.021,0.087-0.042,0.13-0.063V8.79h0.064c0.04-0.02,0.085-0.031,0.13-0.031V8.727c0.043-0.021,0.087-0.042,0.13-0.061h0.034
	c0.026-0.023,0.061-0.035,0.095-0.032c0.027-0.019,0.051-0.03,0.076-0.032V8.57c0.045,0,0.088-0.011,0.128-0.031V8.506h0.065
	c0.03-0.017,0.063-0.028,0.097-0.033l0.034-0.032v-0.03c0.024-0.002,0.047-0.013,0.063-0.031c0.024-0.002,0.048-0.013,0.064-0.031
	h0.032l0.033-0.034c0.03-0.018,0.063-0.028,0.097-0.033V8.254c0.025-0.002,0.048-0.014,0.064-0.033v-0.03h0.102l0.033-0.03
	c0.016-0.021,0.04-0.032,0.065-0.034l0.032-0.031c0.024-0.001,0.047-0.013,0.064-0.03V8.032h0.098
	c-0.002-0.015,0.009-0.029,0.025-0.031c0.002,0,0.005,0,0.007,0c-0.002-0.016,0.009-0.03,0.025-0.032c0.001,0,0.001,0,0.002,0V7.938
	c0.015,0.002,0.029-0.008,0.032-0.023c0-0.002,0-0.005,0-0.007V7.876h0.097V7.843h0.064V7.405c0.11,0,0.216,0.009,0.325,0.016V7.086
	c0.357,0.016,0.713,0.025,1.07,0.032V7.086c0.17,0.019,0.333,0.029,0.487,0.032h0.065v0.319h0.263v0.026h0.358v0.032
	c0.015-0.002,0.029,0.008,0.031,0.023c0,0.002,0,0.005,0,0.008v0.316l5.9,0.016v0.047h0.194c-0.017-0.018-0.039-0.028-0.063-0.03
	V7.859h0.389v0.017L43.36,7.908h1.978V7.876c0.141,0,0.283,0,0.422,0v0.031h0.097V7.876h0.389v0.031h0.226V7.876h0.391v0.031h1.134
	V7.876h0.389v0.031h0.292V7.876c0.271,0,0.543,0,0.813,0v0.031h0.356c0.021,0.026,0.033,0.06,0.03,0.094
	c0.026,0.028,0.048,0.06,0.063,0.094h1.136c0.017,0.029,0.028,0.061,0.032,0.094v0.064h0.063c0.023,0.02,0.057,0.052,0.098,0.094
	v0.031l0.032-0.031h33.919c-0.021-0.02-0.043-0.043-0.063-0.064V8.161c0.269,0.013,0.537,0.022,0.811,0.03l0.068,0.063
	c0.148,0,0.302,0.008,0.452,0.015V7.622c0.053-0.036,0.104-0.068,0.161-0.097V7.438c0.714,0.019,1.429,0.029,2.141,0.031
	C88.828,7.504,88.861,7.546,88.889,7.592z M32.271,13.743c-0.035,0.005-0.067,0.01-0.096,0.017h0.081L32.271,13.743z M33.696,14.752
	c-0.016,0.018-0.04,0.029-0.064,0.031c-0.002,0.016,0.009,0.03,0.025,0.033c0.003,0,0.005,0,0.008,0v0.598h0.064v0.126
	c0.016,0.02,0.04,0.031,0.065,0.033c-0.002,0.016,0.009,0.03,0.024,0.032c0.002,0,0.004,0,0.006,0v0.031
	c0,0.016,0.012,0.029,0.028,0.03c0.001,0,0.003,0,0.005,0v0.032c0.016-0.002,0.03,0.009,0.033,0.024c0,0.003,0,0.005,0,0.008
	c0.034,0.003,0.066,0.014,0.095,0.031v0.063h0.033c0.018,0,0.035,0.006,0.049,0.018c0.024,0.006,0.054,0.012,0.082,0.021v0.016
	c0.012,0.002,0.023,0.007,0.032,0.016c0.045,0,0.089,0.011,0.129,0.031v0.025c0.017,0.018,0.04,0.029,0.065,0.031
	c0.034,0.003,0.067,0.014,0.097,0.031h0.161c0.218-0.021,0.433-0.031,0.65-0.031c0.062-0.021,0.127-0.031,0.193-0.031v-0.06h0.13
	c0.108-0.021,0.218-0.03,0.328-0.028c0.017-0.019,0.041-0.03,0.065-0.033c0.03-0.016,0.063-0.026,0.097-0.03v-0.035
	c0.016,0.002,0.029-0.009,0.031-0.024c0-0.002,0-0.004,0-0.006V15.7h0.13v-1.199c-0.854-0.016-1.708-0.026-2.562-0.031
	L33.696,14.752L33.696,14.752L33.696,14.752z M36.809,14.01c-0.256,0-0.518,0.009-0.777,0.016c0.263,0,0.519,0,0.777,0V14.01
	L36.809,14.01z M1.433,14.248c0.001,0.016-0.01,0.029-0.025,0.031c-0.002,0-0.005,0-0.007,0L1.364,14.31v0.094
	c0.021-0.041,0.055-0.073,0.097-0.094c0.022-0.041,0.043-0.088,0.065-0.125v-0.031c-0.002,0.024-0.014,0.047-0.033,0.063
	C1.478,14.234,1.456,14.245,1.433,14.248z M1.627,14.027l0.065-0.031V13.93l-0.065,0.066V14.027z M1.952,13.807
	c0-0.017,0.006-0.034,0.017-0.047l-0.017,0.016c-0.056,0.017-0.11,0.038-0.162,0.063c-0.016,0.017-0.036,0.036-0.065,0.063h0.13
	v-0.063C1.881,13.815,1.916,13.804,1.952,13.807L1.952,13.807z M1.661,16.614c0.007,0.009,0.019,0.019,0.032,0.032v-0.033
	L1.661,16.614L1.661,16.614z M3.605,24.977c0.027,0.026,0.048,0.061,0.064,0.094c0.019,0.017,0.03,0.037,0.032,0.063v-0.125
	c0.019-0.016,0.031-0.04,0.032-0.063c0.011-0.014,0.022-0.021,0.034-0.03c-0.068,0-0.133,0-0.196,0
	C3.591,24.93,3.603,24.952,3.605,24.977L3.605,24.977L3.605,24.977z"/>
<linearGradient id="shape5_1_" gradientUnits="userSpaceOnUse" x1="315.127" y1="-158.8281" x2="315.127" y2="-172.5781" gradientTransform="matrix(1 0 0 -1 -247.5801 -142.1602)">
	<stop  offset="0" style="stop-color:#7439E3"/>
	<stop  offset="1" style="stop-color:#B4A7F8"/>
</linearGradient>
<path id="shape5" fill="url(#shape5_1_)" d="M77.377,31.251c-0.313,0-0.625-0.05-0.922-0.147c-0.298,0.104-0.609,0.147-0.922,0.147
	H67.34c-0.186,0-0.443-0.009-0.77-0.075c-0.217,0.051-0.439,0.075-0.664,0.075h-2.664c-0.816,0-1.605-0.342-2.166-0.937
	c-0.078-0.086-0.15-0.174-0.219-0.271l-0.91,0.648c-0.504,0.357-1.1,0.554-1.725,0.554h-3.584c-0.718,0-1.402-0.269-1.938-0.722
	c-0.614,0.427-1.352,0.652-2.112,0.652c-0.75,0-1.479-0.222-2.104-0.642c-0.164-0.11-0.314-0.233-0.451-0.37
	c-1.021-1.021-1.363-2.423-0.92-3.753l0.044-0.128l0.079-0.203c-1.8-0.254-3.145-1.766-3.145-3.646V22.24
	c0-0.741,0.274-1.45,0.773-1.996l4.748-5.232c0.646-1.069,1.762-1.679,3.078-1.679h0.41c2.065,0,3.685,1.618,3.685,3.684
	c0,0-0.001,0.289-0.003,0.331c0.555-0.653,1.371-1.044,2.26-1.044h8.398c0.261,0,0.518,0.034,0.768,0.103
	c0.25-0.067,0.508-0.103,0.771-0.103h9.218c0.243,0,0.481,0.029,0.718,0.087c0.232-0.058,0.479-0.087,0.719-0.087h8.396
	c0.917,0,1.797,0.433,2.354,1.159c0.563,0.726,0.752,1.689,0.518,2.573l-0.406,1.532c-0.146,0.541-0.434,1.02-0.825,1.395
	c-0.019,0.188-0.049,0.372-0.098,0.555l-0.41,1.537c-0.072,0.282-0.188,0.551-0.347,0.799c0.168,0.533,0.188,1.109,0.041,1.656
	l-0.414,1.539c-0.35,1.297-1.521,2.202-2.865,2.202H77.377z M74.338,23.782l0.018-0.009h-0.797l-0.004,0.009H74.338z"/>
<path id="ACE" fill="#FFFFFF" d="M51.568,23.163h-3.789c-0.409,0-0.717-0.308-0.717-0.718c0-0.104,0-0.104,0-0.204l5.018-5.531
	c0.104-0.307,0.311-0.41,0.615-0.41h0.41c0.408,0,0.717,0.308,0.717,0.717c0,0.102,0,0.205,0,0.205l-2.458,3.584h4.401
	c0.614,0,0.311,1.127-0.104,1.639l-4.508,5.531c-0.309,0.308-0.717,0.308-1.022,0.104c-0.205-0.206-0.309-0.41-0.205-0.719
	L51.568,23.163L51.568,23.163L51.568,23.163z M59.046,19.271l0.409,0.41l-4.813,8.603h3.584l2.148-1.536h2.973l-0.104,1.536h2.663
	l1.535-9.013H59.046L59.046,19.271z M63.552,20.809l-0.104,3.482h-2.97l2.047-3.482H63.552L63.552,20.809z M67.343,28.284h8.191
	l0.612-2.15l-0.818,0.614h-5.732l1.739-5.941h6.452l0.408-1.535h-9.217l-2.355,7.988c-0.102,0.104-0.102,0.309-0.102,0.409
	c0,0.103,0,0.205,0.103,0.31s0.205,0.203,0.308,0.203C67.136,28.284,67.24,28.284,67.343,28.284L67.343,28.284L67.343,28.284z
	 M79.632,19.271l0.312,0.61l-2.563,8.397h8.193l0.408-1.535h-5.121l0.718-2.458h4.711l0.41-1.537h-4.507l0.611-1.942h4.815
	l0.409-1.535H79.632L79.632,19.271z"/>
<g>
	<defs>
		<path id="nova_1_" d="M88.889,7.592c0,0.044,0.01,0.087,0.031,0.125v0.632h1.49c0.056-0.002,0.111,0.008,0.162,0.031
			c0.025,0.001,0.049,0.013,0.066,0.031h0.03V8.38h0.063c0.053,0.025,0.105,0.045,0.162,0.061c0.025,0.029,0.047,0.061,0.063,0.096
			c0.021,0,0.034,0.02,0.034,0.062c0.02,0.017,0.029,0.04,0.031,0.064v0.063C91.01,8.754,91,8.786,90.996,8.819
			c-0.018,0.018-0.028,0.04-0.034,0.064h0.065v0.553c0.014,0.014,0.022,0.03,0.031,0.047c0.023,0.026,0.037,0.06,0.033,0.094
			l0.031,0.033v0.251c-0.002,0.024-0.014,0.048-0.031,0.063l-0.063,0.062v0.759h-0.473l0.017,0.028
			c0.002,0.024,0.014,0.048,0.034,0.063c0.019,0.021,0.041,0.042,0.063,0.063v0.097l-0.018,0.016
			c-2.819-0.01-5.635-0.015-8.445-0.016c-0.035,0.017-0.068,0.038-0.098,0.064l-0.389,0.015v0.079h-0.031v-0.079
			c-0.357,0.02-0.717,0.041-1.07,0.063v0.016h-0.13v0.064L80.02,11.2c-0.017,0.018-0.03,0.033-0.047,0.048
			c-0.021,0.039-0.033,0.082-0.033,0.125c-0.03,0.007-0.064,0.014-0.098,0.018v0.474c0.057,0,0.109,0.008,0.161,0.016v1.865
			c-0.106,0-0.215,0-0.323,0v0.157h-0.878v0.094c-0.002,0.024-0.014,0.047-0.032,0.062c-0.022,0.026-0.035,0.061-0.033,0.095
			c-0.016,0.019-0.037,0.03-0.063,0.03c-0.023,0.002-0.05,0.014-0.064,0.033c-0.02,0.018-0.041,0.029-0.063,0.031l-0.032,0.031
			c-0.041,0.02-0.086,0.031-0.131,0.031h-0.322v0.032c-0.215,0.042-0.432,0.088-0.646,0.127v0.062
			c-0.187,0.021-0.37,0.052-0.551,0.095c-0.035,0.016-0.068,0.037-0.099,0.062c-0.563,0.021-1.125,0.054-1.687,0.095
			c-0.036,0.016-0.067,0.037-0.099,0.063c-0.444-0.011-0.888-0.023-1.33-0.031l-0.064,0.063H73.55
			c-0.051,0.023-0.106,0.034-0.161,0.031h-9.125c-0.1,0.01-0.203,0.02-0.308,0.032V15c-0.476,0.021-0.963,0.053-1.46,0.095v0.064
			c-0.52,0.021-1.027,0.052-1.523,0.094c-0.035,0.016-0.068,0.038-0.098,0.063c-0.409,0.021-0.809,0.052-1.199,0.093
			c-0.035,0.016-0.068,0.037-0.098,0.063c-0.367,0.02-0.745,0.052-1.135,0.094v0.063c-0.435,0.02-0.865,0.053-1.299,0.094v0.063
			c-0.41,0.021-0.811,0.052-1.199,0.094c-0.036,0.016-0.069,0.037-0.098,0.063c-0.521,0.021-1.027,0.054-1.524,0.093
			c-0.034,0.017-0.067,0.038-0.099,0.063c-0.668-0.021-1.328-0.031-1.979-0.031c-0.021-0.021-0.055-0.053-0.098-0.094l-1.035-0.061
			l-0.098-0.095c-0.107-0.02-0.226-0.041-0.356-0.063V15.66c-0.108-0.018-0.218-0.04-0.323-0.06v-0.09
			c-0.054-0.023-0.105-0.044-0.161-0.063v-0.098c-0.108-0.02-0.217-0.042-0.323-0.063v-0.095c-0.054-0.024-0.106-0.046-0.162-0.063
			c-0.021-0.039-0.032-0.082-0.035-0.126c-0.023-0.046-0.057-0.088-0.094-0.125l-0.099-0.095l-0.265-0.126
			c-0.021-0.039-0.03-0.083-0.032-0.126c-0.024-0.047-0.06-0.09-0.099-0.127c-2.275,0.019-4.56,0.041-6.842,0.064v0.061
			c-0.716-0.021-1.429-0.031-2.142-0.032c-0.021-0.02-0.056-0.052-0.099-0.095c-0.107-0.019-0.226-0.041-0.356-0.062V14.26
			c-0.021,0.01-0.042,0.015-0.065,0.015c0.002,0.015-0.008,0.029-0.021,0.031c-0.003,0-0.006,0-0.009,0L39.438,14.4
			c-0.016,0.02-0.039,0.032-0.065,0.032c0.002,0.016-0.008,0.03-0.024,0.032c-0.002,0-0.005,0-0.008,0
			c0.001,0.016-0.01,0.029-0.025,0.031c-0.002,0-0.004,0-0.008,0l-0.031,0.031c-0.024,0.002-0.049,0.013-0.065,0.032h-0.028
			c-0.029,0.017-0.063,0.028-0.097,0.032l-0.032,0.031h-0.035v0.031l-0.064,0.031l-0.033,0.031h-0.018
			c-0.019,0.007-0.034,0.018-0.047,0.032H38.82c-0.03,0.017-0.063,0.027-0.098,0.031c0.002,0.016-0.009,0.03-0.024,0.032
			c-0.003,0-0.005,0-0.007,0c-0.033,0.031-0.065,0.063-0.099,0.094c-0.016-0.002-0.03,0.01-0.032,0.026c0,0.002,0,0.004,0,0.006
			c-0.024,0.001-0.047,0.013-0.063,0.031c-0.015-0.003-0.029,0.007-0.032,0.021c0,0.003-0.001,0.006,0,0.009
			c-0.025,0.001-0.048,0.012-0.064,0.031h-0.034c0.002,0.016-0.009,0.029-0.024,0.032c-0.002,0-0.005,0-0.008,0
			c-0.016,0.019-0.039,0.03-0.064,0.032c0.002,0.015-0.009,0.029-0.023,0.031c-0.003,0-0.006,0-0.01,0v0.037
			c-0.106,0.021-0.215,0.031-0.324,0.031l-0.033,0.031c-0.018,0.018-0.041,0.03-0.064,0.032l-0.064,0.063v0.031l-0.033,0.031v0.031
			c-0.029,0.017-0.063,0.028-0.096,0.032l-0.033,0.032v0.028h-0.031c-0.017,0.019-0.041,0.03-0.064,0.032l-0.098,0.094v0.058
			c-0.029,0.018-0.063,0.029-0.098,0.033l-0.064,0.063v0.063c-0.03,0.016-0.063,0.026-0.098,0.031
			c-0.017,0.019-0.039,0.03-0.064,0.031v0.063h-0.1V16c-0.017,0.018-0.041,0.029-0.064,0.029c0.002,0.016-0.008,0.03-0.023,0.033
			c-0.002,0-0.005,0-0.008,0c-0.016-0.002-0.029,0.007-0.031,0.022c0,0.002,0,0.005,0,0.008l-0.029,0.048v0.062h-0.196
			c0.001,0.016-0.011,0.031-0.027,0.032c-0.002,0-0.004,0-0.006,0v0.064h-0.096c-0.017,0.02-0.04,0.031-0.065,0.034
			c-0.072,0.021-0.148,0.031-0.226,0.031c-0.074,0.021-0.151,0.032-0.228,0.03v0.063h-0.195c-0.041,0.02-0.084,0.031-0.129,0.031
			c-0.264,0.021-0.519,0.031-0.777,0.031H34.12c-0.045,0-0.091-0.011-0.131-0.031c-0.035,0.002-0.069-0.009-0.097-0.031
			c-0.024-0.002-0.049-0.013-0.064-0.032V16.39c-0.041-0.02-0.084-0.031-0.129-0.031c0.015-0.002,0.029,0.008,0.031,0.023
			c0,0.002,0,0.005,0,0.008v0.252c0.012,0.012,0.022,0.021,0.035,0.032l0.031,0.031v0.126c-0.011,0.01-0.021,0.021-0.031,0.031
			l-0.035-0.031h-0.553c-0.033-0.004-0.066-0.015-0.097-0.032l-0.063-0.063v-0.063c-0.029-0.017-0.063-0.027-0.097-0.032V16.61
			l-0.032-0.031V16.55c-0.016,0.003-0.029-0.008-0.033-0.024c0-0.002,0-0.005,0-0.008l-0.031-0.031
			c-0.025-0.001-0.049-0.013-0.065-0.031c0.002-0.015-0.009-0.029-0.024-0.032c-0.002,0-0.006,0-0.008,0v-0.063l-0.037-0.03v-0.032
			l-0.195-0.188v-0.033c-0.016,0.002-0.029-0.009-0.032-0.024c0-0.003,0-0.005,0-0.008l-0.065-0.062v-0.035
			c0.002-0.016-0.011-0.03-0.025-0.032c-0.002,0-0.005,0-0.008,0v-0.056c-0.016-0.019-0.037-0.03-0.063-0.033l-0.031-0.03
			c0-0.017-0.011-0.031-0.026-0.032c-0.002,0-0.005,0-0.009,0v-0.034c-0.016,0.002-0.029-0.01-0.031-0.026c0-0.002,0-0.004,0-0.006
			v-0.034l-0.032-0.029v-0.032c-0.017,0.002-0.03-0.009-0.032-0.024c0-0.003,0-0.005,0-0.008l-0.033-0.033v-0.03h-0.031v-0.031
			c0.002-0.016-0.008-0.03-0.024-0.032c-0.003,0-0.006,0-0.008,0c0.001-0.016-0.011-0.03-0.026-0.032c-0.002,0-0.004,0-0.006,0
			l-0.064-0.063v-0.031c0.002-0.016-0.01-0.03-0.024-0.032c-0.003,0-0.005,0-0.007,0v-0.032l-0.033-0.032v-0.189h-0.033
			c0.002-0.015-0.008-0.029-0.023-0.032c-0.002,0-0.006,0-0.008,0v-0.029l-0.032-0.032v-0.034h-0.031
			c-0.055-0.004-0.108-0.015-0.162-0.032h-1.136c-0.211,0.016-0.416,0.025-0.614,0.032v0.031h-0.134l-0.193,0.062
			c-0.238,0.021-0.488,0.042-0.748,0.063c-0.033,0.004-0.067,0.015-0.098,0.031c-0.035-0.002-0.068,0.008-0.096,0.031
			c-0.047-0.005-0.092,0.006-0.131,0.032c-0.024,0.001-0.047,0.012-0.063,0.031c-0.045-0.005-0.091,0.006-0.13,0.031
			c-0.03,0.017-0.063,0.028-0.098,0.032c-0.039,0.02-0.084,0.031-0.129,0.032c-0.047,0.012-0.09,0.033-0.129,0.063
			c-0.065,0.02-0.129,0.042-0.194,0.062c-0.009,0.031-0.033,0.056-0.064,0.063c-0.034-0.002-0.069,0.009-0.098,0.031
			c-0.035,0.016-0.068,0.038-0.097,0.064c-0.041,0.02-0.084,0.03-0.129,0.032v0.032c-0.017,0.007-0.033,0.013-0.05,0.016
			c-0.002,0.017-0.007,0.032-0.016,0.046l-0.065,0.063l-0.031,0.032h-0.035v0.031c-0.04,0.041-0.086,0.085-0.127,0.128l-0.131,0.126
			c-0.063,0.042-0.129,0.087-0.194,0.125v0.221c-0.042,0.021-0.097,0.053-0.162,0.094v0.063c-0.056,0.029-0.11,0.06-0.162,0.094
			v0.22c-0.042,0.021-0.096,0.054-0.162,0.095v0.219c-0.041,0.021-0.096,0.053-0.161,0.095v1.421
			c-0.023,0.026-0.035,0.061-0.033,0.096c-0.021,0.041-0.055,0.074-0.097,0.096l-0.032,0.029c-0.055,0-0.107,0-0.162,0
			c-0.02,0.017-0.031,0.039-0.033,0.063c-0.016,0.034-0.038,0.065-0.065,0.095l-0.063,0.03c-0.055,0.003-0.109,0.015-0.161,0.032
			h-0.07c-0.063-0.021-0.128-0.032-0.194-0.032c-0.015-0.034-0.037-0.065-0.063-0.093c-0.022-0.025-0.035-0.061-0.032-0.096v-0.01
			c-0.15-0.009-0.302-0.014-0.454-0.02v0.029c-0.056,0.029-0.11,0.062-0.163,0.098v0.063c-0.055,0.012-0.109,0.024-0.162,0.047
			v0.271c-0.056,0.028-0.108,0.06-0.162,0.093v0.061c-0.252-0.006-0.508-0.012-0.76-0.016c-0.352-0.01-0.703-0.015-1.054-0.017
			v0.063l0.063,0.063l0.098,0.094c0.02,0.018,0.029,0.039,0.031,0.063v0.033l0.033,0.031v0.1c-0.019,0.017-0.031,0.037-0.033,0.063
			c-0.022,0.025-0.033,0.06-0.031,0.095c-0.018,0.019-0.04,0.028-0.064,0.028h-0.066c-0.027,0.022-0.063,0.034-0.098,0.032h-0.129
			c-0.063-0.021-0.129-0.03-0.195-0.032c-0.029-0.024-0.062-0.046-0.098-0.063c-0.016-0.032-0.037-0.065-0.064-0.094
			c-0.032-0.009-0.057-0.035-0.063-0.065v-0.315c-0.03-0.009-0.056-0.031-0.063-0.063c-0.002-0.024-0.014-0.047-0.033-0.063v-0.06
			c-0.044-0.043-0.079-0.077-0.1-0.096c-0.033-0.008-0.057-0.031-0.064-0.063c-0.001-0.022-0.014-0.046-0.033-0.063
			c-0.017-0.033-0.039-0.064-0.064-0.095L21.21,19.07c-0.022-0.026-0.035-0.063-0.032-0.096c-0.02-0.017-0.031-0.037-0.033-0.063
			V18.88l-0.193-0.063c-0.01-0.029-0.034-0.055-0.065-0.063c-0.026-0.027-0.047-0.059-0.063-0.093
			c-0.055-0.017-0.109-0.039-0.161-0.063h-0.196c-0.056,0.002-0.11,0.012-0.162,0.031c-0.051-0.021-0.106-0.033-0.162-0.031
			c-0.022-0.021-0.042-0.041-0.065-0.062c-0.016-0.036-0.037-0.068-0.065-0.095v-0.347c-0.081,0.018-0.158,0.05-0.228,0.094
			l-0.263,0.127v0.126c-0.078,0.038-0.154,0.081-0.227,0.127c-0.087,0.02-0.175,0.039-0.263,0.062
			c-0.11,0.021-0.218,0.054-0.323,0.095c-0.053,0.024-0.106,0.045-0.162,0.063c-0.081,0.021-0.157,0.051-0.227,0.095
			c-0.035,0.016-0.067,0.037-0.096,0.063c-0.111,0.021-0.219,0.054-0.325,0.095v0.067c-0.11,0.021-0.219,0.054-0.325,0.095v0.063
			c-0.11,0.021-0.219,0.055-0.324,0.096v0.063c-0.132,0.021-0.263,0.053-0.391,0.094c-0.035,0.018-0.067,0.037-0.096,0.063
			c-0.056,0.026-0.11,0.063-0.163,0.097v0.063c-0.131,0.021-0.261,0.053-0.389,0.093c-0.035,0.019-0.068,0.038-0.098,0.063
			c-0.11,0.021-0.218,0.053-0.322,0.094v0.063c-0.111,0.021-0.22,0.053-0.325,0.094v0.063c-0.132,0.021-0.262,0.053-0.388,0.094
			c-0.036,0.018-0.069,0.037-0.099,0.063c-0.11,0.021-0.218,0.055-0.323,0.096v0.063c-0.056,0.029-0.111,0.061-0.163,0.097v0.063
			c-0.081,0.02-0.157,0.049-0.228,0.094c-0.035,0.017-0.068,0.037-0.097,0.063c-0.111,0.021-0.219,0.055-0.324,0.094v0.063
			c-0.11,0.021-0.219,0.054-0.324,0.095v0.062c-0.081,0.021-0.157,0.054-0.228,0.097c-0.035,0.015-0.067,0.037-0.095,0.063
			c-0.081,0.02-0.159,0.049-0.229,0.094c-0.035,0.017-0.067,0.039-0.096,0.063c-0.08,0.02-0.157,0.051-0.227,0.094
			c-0.036,0.018-0.069,0.037-0.098,0.063c-0.056,0.027-0.11,0.061-0.161,0.094v0.063c-0.111,0.021-0.219,0.057-0.324,0.098v0.063
			c-0.111,0.021-0.22,0.054-0.325,0.095v0.065c-0.111,0.021-0.219,0.053-0.323,0.094v0.063c-0.164,0.023-0.326,0.058-0.487,0.097
			v0.063c-0.081,0.02-0.157,0.053-0.228,0.094c-0.035,0.016-0.067,0.038-0.095,0.063c-0.111,0.021-0.22,0.055-0.325,0.096v0.063
			c-0.111,0.021-0.22,0.055-0.325,0.094v0.063c-0.111,0.022-0.219,0.055-0.324,0.094v0.063c-0.152,0.021-0.314,0.055-0.486,0.096
			v0.063c-0.11,0.021-0.219,0.052-0.325,0.093v0.063c-0.111,0.021-0.22,0.053-0.325,0.094v0.064
			c-0.111,0.021-0.219,0.055-0.324,0.096v0.063c-0.107,0.021-0.212,0.055-0.313,0.098v0.063c-0.081,0.021-0.158,0.051-0.228,0.096
			c-0.035,0.016-0.068,0.037-0.097,0.063c-0.111,0.021-0.22,0.054-0.326,0.095v0.063c-0.11,0.021-0.218,0.055-0.323,0.096v0.063
			c-0.151,0.021-0.313,0.054-0.487,0.094v0.064c-0.132,0.021-0.262,0.051-0.388,0.092c-0.036,0.017-0.069,0.039-0.098,0.063
			c-0.131,0.021-0.261,0.054-0.388,0.095c-0.036,0.016-0.068,0.037-0.098,0.063c-0.11,0.021-0.219,0.053-0.324,0.094v0.063
			c-0.088,0-0.176,0-0.263,0v0.221c-0.016,0.035-0.039,0.066-0.065,0.094l-0.03,0.025c-0.016-0.004-0.03,0.01-0.033,0.023
			c0,0.002,0,0.004,0,0.006c-0.034,0.004-0.066,0.016-0.096,0.031H4.515l-0.13-0.063H4.254L4.125,25.34H3.997
			c-0.052-0.025-0.106-0.046-0.162-0.063C3.804,25.255,3.78,25.23,3.771,25.2v-0.031l-0.065-0.063V25.2
			c-0.022,0.021-0.042,0.043-0.065,0.063l-0.033,0.062c-0.003,0.034-0.015,0.065-0.032,0.094c-0.041,0.021-0.084,0.031-0.129,0.033
			c-0.053,0.022-0.107,0.044-0.162,0.062H2.989c-0.055-0.018-0.109-0.037-0.162-0.062H2.762c-0.042-0.022-0.087-0.043-0.129-0.065
			c-0.022-0.019-0.043-0.041-0.063-0.062c-0.053-0.024-0.107-0.046-0.163-0.062c-0.043,0-0.065-0.015-0.065-0.033
			c-0.066-0.017-0.131-0.035-0.194-0.063c-0.045-0.002-0.09-0.015-0.13-0.037l-0.064-0.063c-0.043-0.045-0.076-0.072-0.098-0.094
			c-0.019-0.017-0.03-0.039-0.031-0.063c-0.004-0.034-0.016-0.064-0.034-0.096c-0.002-0.024-0.013-0.049-0.032-0.063
			c-0.001-0.025-0.014-0.049-0.033-0.063c-0.004-0.033-0.015-0.065-0.031-0.094v-0.664c-0.001-0.025-0.013-0.05-0.032-0.063
			c-0.02-0.017-0.032-0.036-0.035-0.06c-0.017-0.029-0.028-0.063-0.033-0.097V23.21c-0.019-0.017-0.031-0.039-0.032-0.063
			c-0.026-0.028-0.048-0.061-0.065-0.094c-0.002-0.027-0.014-0.05-0.033-0.063V22.18c-0.002-0.025-0.014-0.049-0.033-0.063v-0.063
			c0.003-0.035-0.009-0.07-0.032-0.097v-1.103c-0.002-0.021-0.015-0.047-0.035-0.062c0-0.043-0.01-0.063-0.032-0.063
			c-0.017-0.033-0.039-0.064-0.066-0.094v-1.498c-0.021-0.021-0.042-0.041-0.063-0.062C1.2,19.043,1.189,19.012,1.172,18.98v-1.164
			c-0.026-0.028-0.048-0.06-0.065-0.094c-0.014,0.002-0.028-0.007-0.031-0.022c0-0.003,0-0.006,0-0.009V16.78l-0.063-0.06
			l-0.035-0.063v-0.894c-0.017-0.035-0.038-0.066-0.064-0.094C0.913,15.645,0.9,15.622,0.88,15.608v-0.6
			c-0.004-0.032-0.015-0.064-0.032-0.093c-0.025-0.001-0.048-0.012-0.065-0.031c0.003-0.035-0.009-0.07-0.033-0.095v-0.595
			c0.019-0.015,0.031-0.038,0.033-0.062c0.026-0.028,0.048-0.061,0.064-0.095c0.025-0.002,0.048-0.013,0.066-0.031l0.033-0.03h0.032
			v-0.232c0.004-0.034,0.017-0.066,0.035-0.095c0.025-0.001,0.048-0.013,0.065-0.031c0.021-0.042,0.055-0.074,0.097-0.094
			c0.021-0.021,0.042-0.041,0.065-0.062c0.026-0.028,0.048-0.06,0.064-0.094l0.06-0.064c0.042,0,0.065-0.01,0.065-0.031
			c0.056-0.018,0.109-0.039,0.162-0.064c0.022-0.021,0.043-0.042,0.066-0.062h0.128c0.064-0.021,0.13-0.042,0.193-0.062
			c0.072-0.014,0.139-0.046,0.194-0.095c0.034-0.004,0.067-0.015,0.097-0.032h0.325c0.045,0,0.089,0.011,0.13,0.032
			c0.035-0.002,0.069,0.009,0.096,0.032h0.066c0.053,0.024,0.106,0.046,0.162,0.063c0.009,0.031,0.034,0.054,0.065,0.062
			c0.026,0.028,0.048,0.06,0.063,0.096h0.098c0.129-0.022,0.263-0.044,0.388-0.064c0.02-0.015,0.031-0.038,0.033-0.062h1.069
			l0.021,0.016c0.439,0.01,0.882,0.016,1.316,0.016c0.03,0.03,0.053,0.052,0.063,0.062l0.015,0.02
			c0.129,0.006,0.252,0.011,0.373,0.018c0.162,0.019,0.324,0.029,0.487,0.031c0.022,0.02,0.042,0.042,0.064,0.062h0.648
			c0.021-0.02,0.042-0.042,0.065-0.062H7.85c0.563,0,1.125-0.012,1.688-0.031h0.096c0.03-0.018,0.063-0.029,0.097-0.034l0.162-0.016
			v-0.37h0.421c0.063-0.02,0.129-0.031,0.196-0.031c-0.002-0.016,0.009-0.029,0.025-0.031c0.002,0,0.005,0,0.007,0v-0.032h0.257
			c0.015,0.003,0.03-0.007,0.033-0.022c0-0.003,0-0.006,0-0.009h0.422c0.016,0.002,0.03-0.009,0.032-0.025c0-0.002,0-0.005,0-0.007
			h0.324c0.118-0.021,0.237-0.032,0.357-0.031c0.017-0.019,0.04-0.029,0.064-0.032c0.025-0.002,0.048-0.014,0.065-0.032h0.258
			c0.025,0,0.048-0.012,0.063-0.031h0.098c0.024-0.002,0.048-0.013,0.064-0.032h0.358c0.128-0.021,0.258-0.031,0.389-0.032
			c0.017-0.018,0.04-0.028,0.065-0.03c0.015,0.002,0.029-0.009,0.031-0.024c0-0.002,0-0.004,0-0.006h0.455v-0.033
			c0.246,0.018,0.483,0.027,0.714,0.032h0.129c0.012-0.004,0.023-0.009,0.033-0.017c0.165,0,0.327-0.006,0.487-0.016h0.097
			l0.034-0.036h0.13c0.118-0.02,0.238-0.03,0.358-0.031h0.259c0.028-0.022,0.063-0.033,0.098-0.031h0.263
			c0.034-0.004,0.067-0.015,0.097-0.032h0.227c0.185,0,0.369-0.01,0.553-0.031h0.125c0.016,0.002,0.03-0.009,0.033-0.025
			c0-0.002,0-0.005,0-0.008h0.194c-0.002-0.015,0.009-0.029,0.024-0.031c0.002,0,0.006,0,0.009,0h0.294
			c0.04-0.02,0.084-0.03,0.129-0.031h0.325c0.045,0,0.089-0.012,0.129-0.032h0.263c0.045,0,0.089-0.011,0.129-0.031h0.129
			c0.025-0.001,0.048-0.012,0.066-0.03h0.193c0.017-0.02,0.04-0.031,0.065-0.033h0.263c0.04-0.02,0.084-0.03,0.129-0.03h0.284
			c0.044-0.001,0.089-0.012,0.129-0.032h0.263c0.174,0,0.347-0.011,0.52-0.032h0.098c0.024-0.001,0.047-0.013,0.064-0.032h0.129
			l0.032-0.031h0.228c0.029-0.017,0.063-0.028,0.097-0.032h0.196c0.099,0,0.196-0.01,0.293-0.032v0.038h0.129v0.159l0.033,0.031
			v0.03l0.033,0.03v0.032c0.035-0.002,0.069,0.009,0.096,0.031c0.056-0.001,0.11,0.009,0.162,0.031
			c0.017,0.019,0.041,0.03,0.064,0.032v0.033c0.066,0,0.132,0.011,0.195,0.03c0.076-0.001,0.152,0.009,0.227,0.032h0.357
			c0.052-0.019,0.105-0.029,0.162-0.032c0.017-0.018,0.039-0.029,0.064-0.03l0.032-0.033c0.045,0,0.09-0.012,0.131-0.032
			c0.024-0.002,0.047-0.013,0.065-0.031h0.129c0.027-0.023,0.062-0.035,0.098-0.031c0.04-0.021,0.084-0.031,0.129-0.032v-0.03
			c0.035,0.001,0.07-0.01,0.098-0.033c0.015,0.002,0.028-0.009,0.031-0.024c0-0.002,0-0.004,0-0.006h0.131
			c0.026-0.023,0.062-0.035,0.098-0.032h0.097c-0.002-0.016,0.008-0.03,0.024-0.032c0.002,0,0.004,0,0.008,0v-0.033
			c0.035,0.003,0.07-0.008,0.096-0.031c0.016,0.002,0.03-0.008,0.033-0.024c0-0.002,0-0.005,0-0.008h0.129
			c0.027-0.022,0.061-0.034,0.096-0.032c0.041-0.02,0.084-0.03,0.129-0.031v-0.031c0.045-0.001,0.09-0.012,0.131-0.031v-0.033h0.064
			c0.053-0.018,0.105-0.028,0.162-0.03c0.027-0.023,0.063-0.034,0.097-0.032v-0.03c0.025-0.001,0.048-0.012,0.065-0.03v-0.033h0.162
			c0.031-0.018,0.063-0.029,0.1-0.033c0.03-0.017,0.063-0.027,0.098-0.03l0.031-0.032c0.034-0.002,0.068-0.011,0.098-0.026v-0.035
			h0.162c0.03-0.017,0.063-0.028,0.098-0.031c0.017-0.019,0.041-0.03,0.064-0.031v-0.032c0.035,0.003,0.07-0.009,0.096-0.032
			c0.017,0.001,0.029-0.01,0.031-0.026c0-0.002,0-0.004,0-0.005h0.096c0.018-0.019,0.041-0.03,0.066-0.032
			c0.016-0.019,0.04-0.029,0.064-0.031l0.035-0.032c0.045-0.001,0.089-0.012,0.129-0.031c0.025-0.002,0.05-0.014,0.066-0.034h0.032
			c0.027-0.023,0.062-0.035,0.097-0.032c0.018-0.018,0.041-0.029,0.064-0.031l0.033-0.032c0.033-0.004,0.066-0.014,0.098-0.031
			V10.88h0.13c0.017-0.019,0.04-0.03,0.064-0.032c0.041-0.02,0.084-0.031,0.129-0.031l0.034-0.033
			c0.025-0.002,0.049-0.013,0.065-0.03c0.024-0.002,0.048-0.014,0.064-0.032h0.032c0.041-0.021,0.084-0.031,0.129-0.032
			c0.016-0.017,0.037-0.029,0.061-0.033v-0.031c0.035-0.003,0.069-0.014,0.1-0.031v-0.032h0.131l0.033-0.03h0.031
			c0.04-0.021,0.084-0.032,0.131-0.032V10.47c0.023-0.001,0.047-0.013,0.063-0.031v-0.032h0.097c0.018-0.018,0.041-0.028,0.065-0.03
			c0.04-0.021,0.084-0.032,0.129-0.032v-0.042c0.043-0.02,0.086-0.04,0.129-0.059h0.065c0.03-0.017,0.063-0.027,0.097-0.032
			c0.017-0.021,0.042-0.033,0.067-0.035v-0.033c0.045,0,0.09-0.01,0.129-0.03v-0.032h0.129c0.018-0.019,0.041-0.03,0.064-0.032
			c0.041-0.02,0.085-0.03,0.131-0.031V9.988c0.045,0,0.088-0.011,0.129-0.032v-0.03h0.064c0.04-0.021,0.083-0.032,0.127-0.032
			c0.018-0.019,0.04-0.029,0.064-0.031l0.033-0.032c0.024,0,0.047-0.011,0.063-0.03V9.769h0.097c0.016-0.019,0.04-0.031,0.064-0.032
			c0.041-0.02,0.085-0.031,0.131-0.031V9.672c0.025,0,0.049-0.011,0.066-0.03V9.611h0.097c0.04-0.021,0.084-0.032,0.129-0.033
			c0.016-0.021,0.039-0.033,0.065-0.035V9.516c0.024-0.002,0.047-0.013,0.063-0.032c0.024-0.001,0.048-0.012,0.065-0.029h0.064
			c0.04-0.021,0.084-0.033,0.129-0.033c0.018-0.018,0.04-0.029,0.065-0.032l0.032-0.031c0.035-0.004,0.068-0.016,0.099-0.034V9.294
			h0.096c0.017-0.018,0.04-0.029,0.064-0.031c0.04-0.02,0.084-0.031,0.13-0.032V9.199c0.016,0.002,0.029-0.009,0.031-0.025
			c0-0.002,0-0.004,0-0.006V9.137h0.097c0.017-0.019,0.04-0.031,0.065-0.032c0.03-0.017,0.063-0.027,0.098-0.031V9.042
			c0.023-0.001,0.048-0.012,0.064-0.031V8.979h0.129l0.033-0.032c0.04-0.02,0.084-0.03,0.129-0.031V8.885
			c0.043-0.021,0.086-0.042,0.129-0.063V8.79h0.064c0.04-0.02,0.085-0.031,0.13-0.031V8.727c0.043-0.021,0.087-0.042,0.13-0.061
			h0.034c0.026-0.023,0.062-0.035,0.095-0.032c0.027-0.019,0.051-0.03,0.076-0.032V8.57c0.045,0,0.088-0.011,0.128-0.031V8.506
			h0.065c0.029-0.017,0.063-0.028,0.097-0.033l0.034-0.032v-0.03c0.023-0.002,0.047-0.013,0.063-0.031
			c0.024-0.002,0.049-0.013,0.064-0.031h0.032l0.032-0.034c0.031-0.018,0.063-0.028,0.098-0.033V8.254
			c0.025-0.002,0.048-0.014,0.064-0.033v-0.03h0.102l0.033-0.03c0.016-0.021,0.039-0.032,0.064-0.034l0.032-0.031
			c0.024-0.001,0.047-0.013,0.063-0.03V8.032h0.099c-0.002-0.015,0.009-0.029,0.024-0.031c0.002,0,0.006,0,0.008,0
			c-0.002-0.016,0.009-0.03,0.024-0.032c0.001,0,0.001,0,0.003,0V7.938c0.014,0.002,0.028-0.008,0.031-0.023
			c0-0.002,0-0.005,0-0.007V7.876h0.098V7.843h0.063V7.405c0.11,0,0.216,0.009,0.325,0.016V7.086
			c0.357,0.016,0.713,0.025,1.07,0.032V7.086c0.17,0.019,0.332,0.029,0.486,0.032h0.064v0.319h0.264v0.026h0.357v0.032
			c0.016-0.002,0.029,0.008,0.031,0.023c0,0.002,0,0.005,0,0.008v0.316l5.9,0.016v0.047h0.193c-0.017-0.018-0.039-0.028-0.063-0.03
			V7.859h0.389v0.017l-0.031,0.032h1.979V7.876c0.141,0,0.283,0,0.422,0v0.031h0.098V7.876h0.389v0.031h0.227V7.876h0.391v0.031
			h1.134V7.876h0.389v0.031h0.292V7.876c0.271,0,0.543,0,0.813,0v0.031h0.356c0.021,0.026,0.033,0.06,0.03,0.094
			c0.026,0.028,0.048,0.06,0.063,0.094h1.136c0.017,0.029,0.028,0.061,0.032,0.094v0.064h0.063c0.023,0.02,0.057,0.052,0.098,0.094
			v0.031l0.032-0.031h33.919c-0.021-0.02-0.043-0.043-0.063-0.064V8.161c0.269,0.013,0.537,0.022,0.811,0.03l0.068,0.063
			c0.148,0,0.302,0.008,0.452,0.015V7.622c0.053-0.036,0.104-0.068,0.161-0.097V7.438c0.714,0.019,1.429,0.029,2.141,0.031
			C88.828,7.504,88.861,7.546,88.889,7.592z M32.271,13.743c-0.035,0.005-0.067,0.01-0.097,0.017h0.081L32.271,13.743z
			 M33.695,14.752c-0.016,0.018-0.039,0.029-0.063,0.031c-0.002,0.016,0.009,0.03,0.025,0.033c0.003,0,0.005,0,0.008,0v0.598h0.063
			v0.126c0.017,0.02,0.041,0.031,0.065,0.033c-0.002,0.016,0.009,0.03,0.024,0.032c0.002,0,0.004,0,0.006,0v0.031
			c0,0.016,0.012,0.029,0.027,0.03c0.002,0,0.004,0,0.006,0v0.032c0.016-0.002,0.029,0.009,0.033,0.024c0,0.003,0,0.005,0,0.008
			c0.033,0.003,0.065,0.014,0.094,0.031v0.063h0.033c0.019,0,0.035,0.006,0.049,0.018c0.024,0.006,0.055,0.012,0.082,0.021v0.016
			c0.013,0.002,0.023,0.007,0.033,0.016c0.045,0,0.088,0.011,0.129,0.031v0.025c0.017,0.018,0.039,0.029,0.064,0.031
			c0.034,0.003,0.066,0.014,0.098,0.031h0.16c0.219-0.021,0.434-0.031,0.65-0.031c0.063-0.021,0.127-0.031,0.193-0.031v-0.06h0.129
			c0.108-0.021,0.219-0.03,0.328-0.028c0.018-0.019,0.041-0.03,0.065-0.033c0.03-0.016,0.063-0.026,0.097-0.03v-0.035
			c0.016,0.002,0.029-0.009,0.031-0.024c0-0.002,0-0.004,0-0.006V15.7h0.13v-1.199c-0.854-0.016-1.708-0.026-2.562-0.031V14.752
			L33.695,14.752L33.695,14.752z M36.809,14.01c-0.256,0-0.518,0.009-0.776,0.016c0.263,0,0.519,0,0.776,0V14.01L36.809,14.01z
			 M1.433,14.248c0.001,0.016-0.01,0.029-0.025,0.031c-0.002,0-0.005,0-0.007,0L1.364,14.31v0.094
			c0.021-0.041,0.055-0.073,0.097-0.094c0.022-0.041,0.043-0.088,0.065-0.125v-0.031c-0.002,0.024-0.014,0.047-0.033,0.063
			C1.478,14.234,1.456,14.245,1.433,14.248z M1.627,14.027l0.065-0.031V13.93l-0.065,0.066V14.027z M1.952,13.807
			c0-0.017,0.006-0.034,0.017-0.047l-0.017,0.016c-0.056,0.017-0.11,0.038-0.162,0.063c-0.016,0.017-0.036,0.036-0.065,0.063h0.13
			v-0.063C1.881,13.815,1.916,13.804,1.952,13.807L1.952,13.807z M1.661,16.614c0.007,0.009,0.019,0.019,0.032,0.032v-0.033
			L1.661,16.614L1.661,16.614z M3.605,24.977c0.027,0.026,0.048,0.061,0.064,0.094c0.019,0.017,0.03,0.037,0.032,0.063v-0.125
			c0.019-0.016,0.031-0.04,0.032-0.063c0.011-0.014,0.022-0.021,0.034-0.03c-0.068,0-0.133,0-0.196,0
			C3.591,24.93,3.603,24.952,3.605,24.977L3.605,24.977L3.605,24.977z"/>
	</defs>
	<clipPath id="nova_3_">
		<use xlink:href="#nova_1_"  overflow="visible"/>
	</clipPath>
	
		<linearGradient id="SVGID_1_" gradientUnits="userSpaceOnUse" x1="-1132.0684" y1="-839.7954" x2="-1086.5376" y2="-839.7954" gradientTransform="matrix(0.998 -0.0625 0.0625 0.998 1182.9778 783.8026)">
		<stop  offset="0" style="stop-color:#FFFF13"/>
		<stop  offset="1" style="stop-color:#7411C3"/>
	</linearGradient>
	<path clip-path="url(#nova_3_)" fill="url(#SVGID_1_)" d="M8.531,14.77l11.341-6.042L5.048,18.187l0.544,0.889
		c0,0,28.675-18.854,37.51-21.469c0,0-24.502,15.325-29.156,20.093c0,0,13.448-9.158,17.85-11.281l-5.106,4.229l2.087-1.197
		l-4.633,3.985c0,0,8.712-6.801,18.08-9.804l3.509,3.688c0,0-7.874,0.139-18.657,13.961c0,0,4.009-6.148,5.891-8.398
		c0,0-7.489,5.16-15.068,12.244l5.673-6.326c0,0-5.923,4.565-9.842,9.928c0,0,5.677-9.594,20.549-19.41
		c0,0-8.153,2.359-24.858,15.204c0,0,14.581-8.874,15.318-9.347c0.67-0.467-18.496,13.17-20.502,16.78
		C2.022,35.575,0.75,17.462,0.75,17.462L8.531,14.77z"/>
</g>
</svg>
