<?xml version="1.0" encoding="utf-8"?>
<!-- Generator: Adobe Illustrator 16.0.0, SVG Export Plug-In . SVG Version: 6.00 Build 0)  -->
<!DOCTYPE svg PUBLIC "-//W3C//DTD SVG 1.1//EN" "http://www.w3.org/Graphics/SVG/1.1/DTD/svg11.dtd">
<svg version="1.1" id="case1" xmlns="http://www.w3.org/2000/svg" xmlns:xlink="http://www.w3.org/1999/xlink" x="0px" y="0px"
	 width="92px" height="36px" viewBox="0 0 92 36" enable-background="new 0 0 92 36" xml:space="preserve">
<linearGradient id="shape_1_" gradientUnits="userSpaceOnUse" x1="-6.0518" y1="-808.1045" x2="81.4521" y2="-808.1045" gradientTransform="matrix(1 0 0 -1 8.2998 -794.7705)">
	<stop  offset="0" style="stop-color:#5400D7"/>
	<stop  offset="1" style="stop-color:#9178E2"/>
</linearGradient>
<path id="shape" fill="url(#shape_1_)" d="M4.265,19.589c-0.233-0.03-0.459-0.11-0.66-0.235c-0.208-0.104-0.368-0.283-0.448-0.502
	c-0.093-0.175-0.141-0.371-0.139-0.566c-0.025-0.231,0.022-0.465,0.139-0.667C3.261,17.413,3.4,17.23,3.573,17.08
	c0.24-0.144,0.516-0.224,0.796-0.234c0.335-0.004,0.663,0.103,0.935,0.301c0.184,0.153,0.326,0.35,0.414,0.572
	c0.097,0.196,0.133,0.417,0.104,0.634c-0.031,0.235-0.128,0.456-0.279,0.636c-0.148,0.176-0.339,0.313-0.553,0.399
	c-0.188,0.133-0.411,0.203-0.641,0.203C4.321,19.592,4.292,19.591,4.265,19.589 M37.621,5.409c-5.45,0.088-9.931,0.335-13.439,0.736
	c-3.51,0.401-6.847,0.914-10.014,1.537c-0.966,0.201-1.867,0.401-2.698,0.602L9.635,8.585l-0.59,0.4L8.387,8.786v0.232
	C8.348,9.164,8.247,9.286,8.11,9.351C7.922,9.422,7.716,9.434,7.521,9.386C7.172,9.342,6.988,9.318,6.966,9.318
	c-0.123-0.004-0.245,0.03-0.347,0.101C6.46,9.517,6.318,9.642,6.201,9.787c-0.692,1.006-1.317,2.055-1.871,3.144
	c-1.037,1.895-1.64,3.053-1.803,3.477c-0.099,0.251-0.179,0.507-0.239,0.769c0,0.09-0.013,0.347-0.036,0.771
	c-0.001,0.039-0.003,0.077-0.004,0.115v0.082c0.005,0.288,0.064,0.574,0.176,0.839c0.087,0.246,0.22,0.477,0.393,0.672
	c0.12,0.203,0.302,0.367,0.52,0.465c0.306,0.206,0.646,0.354,1.005,0.438c0.385,0.11,0.792,0.11,1.177,0
	c0.394-0.089,0.778-0.213,1.149-0.369c0.276-0.09,1.188-0.479,2.734-1.17c1.479-0.667,2.299-1.021,2.46-1.067
	c0.208-0.065,1.027-0.209,2.459-0.435c1.155-0.177,2.368-0.345,3.638-0.499c1.407-0.18,3.912-0.392,7.513-0.638
	c1.087-0.089,2.287-0.155,3.604-0.199c0.957-0.079,1.918-0.079,2.875,0c0.126,0.06,0.244,0.138,0.347,0.232
	c0.095,0.067,0.24,0.19,0.448,0.366c0.27,0.266,0.627,0.422,1.005,0.438c0.137-0.027,0.275-0.039,0.415-0.035
	c0.098,0.004,0.194-0.019,0.278-0.065c0.406-0.204,0.79-0.451,1.143-0.735c0.571-0.477,1.215-0.861,1.906-1.138
	c0.755-0.286,1.55-0.455,2.356-0.5c0.866-0.051,1.733,0.049,2.563,0.299c0.839,0.281,1.642,0.663,2.388,1.138
	c0.795,0.606,1.357,1.468,1.59,2.439c0.174,0.545,0.29,1.104,0.348,1.674l0.617,0.166l0.35-0.437l0.587,0.031l0.485,0.604v0.634
	h7.171c5.194-0.044,8.808-0.146,10.839-0.301c2.32-0.165,4.625-0.499,6.896-1.003c2.399-0.552,4.752-1.304,7.026-2.242
	c2.313-0.962,4.474-2.259,6.408-3.845c0.944-0.699,1.827-1.483,2.634-2.339c-0.646-0.266-1.411-0.579-2.285-0.939
	c-1.383-0.587-2.793-1.101-4.229-1.538C82.109,8.707,80.563,8.239,78.6,7.68c-1.779-0.464-2.809-0.732-3.088-0.8
	c-0.171-0.034-0.345-0.056-0.52-0.067c-0.133,0.01-0.26,0.043-0.379,0.1c-0.17,0.009-0.313,0.132-0.346,0.299
	c-0.051,0.094-0.051,0.206,0,0.3c0.08,0.11,0.207,0.173,0.346,0.168c0.556,0.202,0.926,0.326,1.107,0.37
	c0.62,0.22,1.225,0.489,1.805,0.804c0.386,0.197,0.726,0.47,1.002,0.801c0.104,0.232,0.152,0.485,0.141,0.739
	c-0.021,0.348-0.217,0.661-0.52,0.834c-0.436,0.236-0.938,0.308-1.42,0.201c-0.188-0.047-0.375-0.103-0.561-0.168l-0.236-0.067
	c-1.271-0.443-2.683-0.9-4.229-1.371c-3.022-0.958-5.17-1.573-6.44-1.843c-1.248-0.29-2.646-0.559-4.193-0.802l-1.973-0.337
	l-0.763,0.337l-0.592-0.537l-0.897,0.335l-0.691-0.502L55.253,6.81l-0.627-0.567l-0.729,0.333l-0.551-0.5l-0.729,0.333L51.82,5.944
	l-0.657,0.334l-0.765-0.433l-0.728,0.4l-0.688-0.569L48.15,6.077l-0.656-0.535L46.9,6.01l-0.794-0.468l-0.795,0.402L44.72,5.409
	c-1.016-0.022-2.115-0.034-3.298-0.034C40.238,5.375,38.972,5.386,37.621,5.409"/>
<linearGradient id="shape2_2_" gradientUnits="userSpaceOnUse" x1="68.0762" y1="31.166" x2="67.5762" y2="16.416">
	<stop  offset="0" style="stop-color:#B4A7F8"/>
	<stop  offset="1" style="stop-color:#7439E3"/>
</linearGradient>
<path id="shape2_1_" fill="url(#shape2_2_)" d="M77.559,31.251c-0.313,0-0.625-0.05-0.922-0.147
	c-0.298,0.102-0.609,0.147-0.922,0.147h-8.193c-0.185,0-0.444-0.009-0.77-0.075c-0.217,0.051-0.439,0.075-0.664,0.075h-2.664
	c-0.816,0-1.605-0.342-2.166-0.937c-0.078-0.086-0.15-0.174-0.219-0.27l-0.91,0.648c-0.503,0.359-1.1,0.554-1.725,0.554H54.82
	c-0.717,0-1.402-0.267-1.934-0.72c-0.617,0.425-1.354,0.652-2.115,0.652c-0.75,0-1.479-0.222-2.104-0.642
	c-0.164-0.11-0.315-0.233-0.452-0.37c-1.021-1.021-1.363-2.423-0.92-3.753l0.044-0.128l0.08-0.203
	c-1.801-0.254-3.145-1.766-3.145-3.646V22.24c0-0.741,0.274-1.45,0.773-1.996l4.748-5.232c0.646-1.069,1.762-1.679,3.079-1.679h0.41
	c2.065,0,3.684,1.618,3.684,3.684c0,0-0.001,0.289-0.003,0.331c0.555-0.653,1.372-1.044,2.26-1.044h8.398
	c0.261,0,0.518,0.034,0.768,0.101c0.25-0.067,0.508-0.101,0.771-0.101h9.218c0.243,0,0.481,0.029,0.718,0.087
	c0.232-0.058,0.477-0.087,0.719-0.087h8.396c0.917,0,1.797,0.433,2.354,1.159c0.562,0.726,0.752,1.689,0.517,2.573l-0.407,1.532
	c-0.146,0.541-0.434,1.02-0.826,1.395c-0.017,0.188-0.047,0.372-0.097,0.555l-0.41,1.537c-0.073,0.282-0.19,0.551-0.346,0.799
	c0.168,0.532,0.187,1.109,0.04,1.656l-0.413,1.539c-0.349,1.296-1.522,2.202-2.866,2.202H77.559z M74.52,23.782l0.016-0.009h-0.797
	l-0.002,0.009H74.52z"/>
<path id="ACE" fill="#FFFFFF" d="M51.748,23.163h-3.79c-0.409,0-0.717-0.308-0.717-0.718c0-0.104,0-0.104,0-0.204l5.018-5.531
	c0.103-0.307,0.31-0.41,0.615-0.41h0.41c0.409,0,0.717,0.308,0.717,0.717c0,0.102,0,0.205,0,0.205l-2.458,3.584h4.402
	c0.615,0,0.31,1.127-0.104,1.639l-4.507,5.531c-0.311,0.308-0.717,0.308-1.021,0.104c-0.205-0.206-0.311-0.41-0.205-0.719
	L51.748,23.163L51.748,23.163L51.748,23.163z M59.225,19.271l0.409,0.41l-4.813,8.603h3.584l2.15-1.536h2.971l-0.103,1.536h2.663
	l1.536-9.013H59.225L59.225,19.271z M63.73,20.809l-0.104,3.482h-2.97l2.048-3.482H63.73L63.73,20.809z M67.521,28.284h8.188
	l0.613-2.15l-0.819,0.614h-5.73l1.74-5.941h6.449l0.409-1.535h-9.22L66.8,27.26c-0.1,0.104-0.1,0.309-0.1,0.409
	c0,0.103,0,0.205,0.103,0.31c0.102,0.104,0.205,0.203,0.307,0.203C67.314,28.284,67.419,28.284,67.521,28.284L67.521,28.284
	L67.521,28.284z M79.811,19.271l0.313,0.609l-2.563,8.398h8.192l0.41-1.536H81.04l0.717-2.458h4.711l0.41-1.537h-4.506l0.612-1.941
	H87.8l0.409-1.535H79.811L79.811,19.271z"/>
<g>
	<defs>
		<path id="SVGID_1_" d="M4.265,19.589c-0.233-0.03-0.459-0.11-0.66-0.235c-0.208-0.104-0.368-0.283-0.448-0.502
			c-0.093-0.175-0.141-0.371-0.139-0.566c-0.025-0.231,0.022-0.465,0.139-0.667C3.261,17.413,3.4,17.23,3.573,17.08
			c0.24-0.144,0.516-0.224,0.796-0.234c0.335-0.004,0.663,0.103,0.935,0.301c0.184,0.153,0.326,0.35,0.414,0.572
			c0.097,0.196,0.133,0.417,0.104,0.634c-0.031,0.235-0.128,0.456-0.279,0.636c-0.148,0.176-0.339,0.313-0.553,0.399
			c-0.188,0.133-0.411,0.203-0.641,0.203C4.321,19.592,4.292,19.591,4.265,19.589 M37.621,5.409
			c-5.45,0.088-9.931,0.335-13.439,0.736c-3.51,0.401-6.847,0.914-10.014,1.537c-0.966,0.201-1.867,0.401-2.698,0.602L9.635,8.585
			l-0.59,0.4L8.387,8.786v0.232C8.348,9.164,8.247,9.286,8.11,9.351C7.922,9.422,7.716,9.434,7.521,9.386
			C7.172,9.342,6.988,9.318,6.966,9.318c-0.123-0.004-0.245,0.03-0.347,0.101C6.46,9.517,6.318,9.642,6.201,9.787
			c-0.692,1.006-1.317,2.055-1.871,3.144c-1.037,1.895-1.64,3.053-1.803,3.477c-0.099,0.251-0.179,0.507-0.239,0.769
			c0,0.09-0.013,0.347-0.036,0.771c-0.001,0.039-0.003,0.077-0.004,0.115v0.082c0.005,0.288,0.064,0.574,0.176,0.839
			c0.087,0.246,0.22,0.477,0.393,0.672c0.12,0.203,0.302,0.367,0.52,0.465c0.306,0.206,0.646,0.354,1.005,0.438
			c0.385,0.11,0.792,0.11,1.177,0c0.394-0.089,0.778-0.213,1.149-0.369c0.276-0.09,1.188-0.479,2.734-1.17
			c1.479-0.667,2.299-1.021,2.46-1.067c0.208-0.065,1.027-0.209,2.459-0.435c1.155-0.177,2.368-0.345,3.638-0.499
			c1.407-0.18,3.912-0.392,7.513-0.638c1.087-0.089,2.287-0.155,3.604-0.199c0.957-0.079,1.918-0.079,2.875,0
			c0.126,0.06,0.244,0.138,0.347,0.232c0.095,0.067,0.24,0.19,0.448,0.366c0.27,0.266,0.627,0.422,1.005,0.438
			c0.137-0.027,0.275-0.039,0.415-0.035c0.098,0.004,0.194-0.019,0.278-0.065c0.406-0.204,0.79-0.451,1.143-0.735
			c0.571-0.477,1.215-0.861,1.906-1.138c0.755-0.286,1.55-0.455,2.356-0.5c0.866-0.051,1.733,0.049,2.563,0.299
			c0.839,0.281,1.642,0.663,2.388,1.138c0.795,0.606,1.357,1.468,1.59,2.439c0.174,0.545,0.29,1.104,0.348,1.674l0.617,0.166
			l0.35-0.437l0.587,0.031l0.485,0.604v0.634h7.171c5.194-0.044,8.808-0.146,10.839-0.301c2.32-0.165,4.625-0.499,6.896-1.003
			c2.399-0.552,4.752-1.304,7.026-2.242c2.313-0.962,4.474-2.259,6.408-3.845c0.944-0.699,1.827-1.483,2.634-2.339
			c-0.646-0.266-1.411-0.579-2.285-0.939c-1.383-0.587-2.793-1.101-4.229-1.538C82.109,8.707,80.563,8.239,78.6,7.68
			c-1.779-0.464-2.809-0.732-3.088-0.8c-0.171-0.034-0.345-0.056-0.52-0.067c-0.133,0.01-0.26,0.043-0.379,0.1
			c-0.17,0.009-0.313,0.132-0.346,0.299c-0.051,0.094-0.051,0.206,0,0.3c0.08,0.11,0.207,0.173,0.346,0.168
			c0.556,0.202,0.926,0.326,1.107,0.37c0.62,0.22,1.225,0.489,1.805,0.804c0.386,0.197,0.726,0.47,1.002,0.801
			c0.104,0.232,0.152,0.485,0.141,0.739c-0.021,0.348-0.217,0.661-0.52,0.834c-0.436,0.236-0.938,0.308-1.42,0.201
			c-0.188-0.047-0.375-0.103-0.561-0.168l-0.236-0.067c-1.271-0.443-2.683-0.9-4.229-1.371c-3.022-0.958-5.17-1.573-6.44-1.843
			c-1.248-0.29-2.646-0.559-4.193-0.802l-1.973-0.337l-0.763,0.337l-0.592-0.537l-0.897,0.335l-0.691-0.502L55.253,6.81
			l-0.627-0.567l-0.729,0.333l-0.551-0.5l-0.729,0.333L51.82,5.944l-0.657,0.334l-0.765-0.433l-0.728,0.4l-0.688-0.569L48.15,6.077
			l-0.656-0.535L46.9,6.01l-0.794-0.468l-0.795,0.402L44.72,5.409c-1.016-0.022-2.115-0.034-3.298-0.034
			C40.238,5.375,38.972,5.386,37.621,5.409"/>
	</defs>
	<clipPath id="SVGID_2_">
		<use xlink:href="#SVGID_1_"  overflow="visible"/>
	</clipPath>
	
		<linearGradient id="SVGID_3_" gradientUnits="userSpaceOnUse" x1="-1538.6714" y1="344.2549" x2="-1493.1396" y2="344.2549" gradientTransform="matrix(0.998 -0.0625 -0.0625 -0.998 1559.2941 260.9366)">
		<stop  offset="0" style="stop-color:#FFFF13"/>
		<stop  offset="1" style="stop-color:#7411C3"/>
	</linearGradient>
	<path clip-path="url(#SVGID_2_)" fill="url(#SVGID_3_)" d="M10.028,11.866L21.37,5.824L6.546,15.283l0.544,0.889
		c0,0,28.675-18.854,37.51-21.469c0,0-24.502,15.325-29.155,20.093c0,0,13.447-9.158,17.85-11.281l-5.105,4.229l2.086-1.197
		l-4.633,3.985c0,0,8.713-6.801,18.08-9.804l3.51,3.688c0,0-7.875,0.139-18.658,13.961c0,0,4.01-6.148,5.892-8.398
		c0,0-7.489,5.16-15.067,12.244l5.672-6.326c0,0-5.922,4.565-9.842,9.929c0,0,5.678-9.595,20.549-19.41
		c0,0-8.152,2.359-24.857,15.204c0,0,14.581-8.874,15.318-9.347c0.67-0.467-18.496,13.169-20.502,16.78
		c-2.215,3.62-3.487-14.493-3.487-14.493L10.028,11.866z"/>
</g>
</svg>
