<?xml version="1.0" encoding="utf-8"?>
<!-- Generator: Adobe Illustrator 16.0.0, SVG Export Plug-In . SVG Version: 6.00 Build 0)  -->
<!DOCTYPE svg PUBLIC "-//W3C//DTD SVG 1.1//EN" "http://www.w3.org/Graphics/SVG/1.1/DTD/svg11.dtd">
<svg version="1.1" id="case1" xmlns="http://www.w3.org/2000/svg" xmlns:xlink="http://www.w3.org/1999/xlink" x="0px" y="0px"
	 width="92px" height="36px" viewBox="0 0 92 36" enable-background="new 0 0 92 36" xml:space="preserve">
<linearGradient id="sg556_2_" gradientUnits="userSpaceOnUse" x1="0.8262" y1="16.8184" x2="91.0752" y2="16.8184">
	<stop  offset="0" style="stop-color:#5400D7"/>
	<stop  offset="1" style="stop-color:#9178E2"/>
</linearGradient>
<path id="sg556" fill="url(#sg556_2_)" d="M27.569,2.462h0.044C27.61,2.44,27.626,2.42,27.648,2.417c0.004,0,0.007,0,0.011,0V2.373
	h0.093V2.279h0.046l0.045-0.045V2.048l0.046-0.045V1.138h0.456V1h0.634v1.876h1.094v-0.32h0.636v0.187l0.046,0.042v0.137
	c0.104-0.031,0.216-0.031,0.32,0V2.236h0.093V2.188h0.866V2.143h0.638V2.92h4.693V2.462h3.095V1.823h0.64v0.503
	c-0.002,0.023,0.014,0.043,0.037,0.045c0.003,0,0.006,0,0.009,0v0.186h0.455v0.821c-0.036,0.002-0.069,0.018-0.093,0.045v0.089
	h-0.043v0.186c-0.022-0.003-0.042,0.012-0.046,0.034c0,0.003,0,0.007,0,0.011v0.048c-0.022-0.003-0.042,0.013-0.045,0.036
	c0,0.003,0,0.006,0,0.01V3.93H41.33v0.042l-0.047,0.046V4.11l-0.044,0.046V4.2l-0.047,0.047V4.34h-0.046v0.046L41.099,4.43
	l-0.046,0.093c0.004,0.021-0.01,0.042-0.032,0.046c-0.004,0-0.008,0-0.012,0c0.003,0.022-0.013,0.042-0.036,0.045
	c-0.003,0-0.006,0-0.01,0V4.75l-0.046,0.045v0.046h-0.045v0.135h-0.046v0.093h-0.045v0.093c-0.022-0.003-0.042,0.012-0.045,0.033
	c0,0.004,0,0.007,0,0.011v0.043H40.69v0.047l-0.042,0.045v0.138h-0.049v0.047c0.003,0.021-0.011,0.041-0.033,0.044
	c-0.004,0-0.008,0-0.012,0v0.14c-0.023-0.003-0.043,0.013-0.046,0.036c0,0.003,0,0.007,0,0.011v0.046h-0.046v0.093h-0.043v0.093
	h-0.05V6.03c-0.022-0.003-0.042,0.012-0.045,0.035c0,0.003,0,0.007,0,0.011V6.21h-0.049v0.048h-0.042v0.093l-0.045,0.044h-0.046
	v0.137h-0.045v0.093h-0.046v0.186h-0.046c0.003,0.022-0.012,0.042-0.034,0.045c-0.003,0-0.007,0-0.011,0v0.041l-0.047,0.046
	l-0.044,0.093c-0.022-0.003-0.043,0.013-0.045,0.035c0,0.003,0,0.007,0,0.01v0.043c-0.022-0.003-0.042,0.012-0.045,0.034
	c-0.001,0.004-0.001,0.008,0,0.012v0.047h-0.045v0.138h1.547v0.412h6.197V8.18h26.695v0.229h0.364V8.135h0.319V3.283h0.957v0.043
	h0.139l0.045,0.045v0.327h0.318c0.022,0.027,0.058,0.043,0.094,0.045v1.008h0.316v0.364h0.094v2.654h0.363
	c0.104,0.028,0.213,0.043,0.319,0.046h0.136v1.007h0.225v0.086h1.867v0.187h0.096v0.64h-0.914v0.274l-0.094,0.045v0.047h0.91v0.639
	h-2.096v0.138h8.795v-0.32h4.561v2.148h0.087v0.64h-5.468v0.045h-0.639c0.004-0.022-0.013-0.042-0.033-0.045
	c-0.004,0-0.008,0-0.012,0H84.88v-0.411h-7.835v0.457h-0.138v0.275h-0.365v0.046c-0.036,0.001-0.069,0.018-0.093,0.045v2.194h-0.633
	v-0.044h-0.092c-0.197-0.032-0.396-0.047-0.594-0.046h-0.188l-0.094-0.045v-0.732c0.037-0.001,0.069-0.018,0.094-0.046v-1.326
	h-0.271c-0.038-0.033-0.087-0.05-0.137-0.046v-0.275h-0.408c0.002,0.023-0.017,0.043-0.036,0.045c-0.004,0-0.008,0-0.012,0v1.418
	h-0.045v0.138h-0.594v0.044h-0.047v0.093h-0.043v0.093l-0.095,0.093v0.046c-0.021-0.003-0.041,0.013-0.044,0.034
	c-0.001,0.004,0,0.007,0.001,0.011v0.822h-0.5l-0.048,0.049H72.62v0.093h-0.044V16.6h-0.775l-0.046-0.047
	c-6.257-0.029-12.528-0.044-18.813-0.044v0.186h-0.729v-0.093H52.17v-0.093c-0.021,0.003-0.043-0.013-0.046-0.035
	c0-0.003,0-0.007,0-0.011l-0.045-0.046v-0.051h-0.045v-0.093c0.003-0.023-0.015-0.042-0.035-0.045c-0.004,0-0.008,0-0.01,0
	c-2.248-0.03-4.496-0.046-6.743-0.046h-0.045l-0.045,0.046c-0.022-0.003-0.042,0.011-0.045,0.033c0,0.004,0,0.008,0,0.012h-0.089
	l-0.045,0.044c-0.036,0.002-0.07,0.019-0.093,0.047H44.79c0.002,0.022-0.013,0.042-0.035,0.044c-0.003,0-0.007,0-0.01,0
	l-0.046,0.045h-0.044c-0.022,0.027-0.056,0.044-0.092,0.046c0.002,0.022-0.013,0.042-0.035,0.044c-0.004,0-0.007,0-0.01,0
	l-0.045,0.046H44.38v0.045c-0.036,0.001-0.069,0.018-0.093,0.045c-0.036,0.002-0.069,0.019-0.093,0.045l-0.045,0.045
	c-0.036,0.001-0.071,0.019-0.094,0.046l-0.046,0.044h-0.035c-0.024,0.027-0.057,0.044-0.093,0.046
	c0.003,0.021-0.013,0.042-0.035,0.045c-0.003,0-0.007,0-0.011,0l-0.046,0.044h-0.043c0.002,0.022-0.012,0.043-0.035,0.047
	c-0.003,0-0.007,0-0.011,0l-0.045,0.044h-0.044c-0.023-0.003-0.044,0.012-0.047,0.035c0,0.003,0,0.007,0,0.011l-0.044,0.046h-0.046
	c-0.022-0.003-0.042,0.012-0.045,0.034c0,0.003,0,0.007,0,0.011l-0.045,0.046v1.373h0.364v0.639
	c-0.228,0.004-0.457,0.02-0.683,0.049H43.02v1.277h0.049v0.414h0.045v0.42l0.046,0.045v0.318c-0.003,0.021,0.012,0.043,0.034,0.045
	c0.003,0.002,0.007,0.002,0.011,0v0.32h0.046v0.507l0.045,0.046c-0.003,0.021,0.011,0.041,0.033,0.045c0.003,0,0.007,0,0.011,0
	v0.457c-0.002,0.021,0.012,0.043,0.035,0.045c0.003,0.002,0.008,0.002,0.013,0v0.047l0.044,0.045v0.229l0.045,0.046v0.137
	l0.046,0.045v0.047l0.043,0.046v0.229l0.047,0.045c-0.003,0.021,0.011,0.043,0.033,0.045c0.004,0.002,0.008,0.002,0.012,0v0.229
	h0.045v0.045c-0.002,0.021,0.013,0.043,0.035,0.045c0.004,0.001,0.007,0.001,0.011,0v0.139l0.044,0.047v0.045l0.047,0.045v0.046
	h0.044v0.323l0.093,0.045v0.187c-0.002,0.021,0.013,0.042,0.036,0.044c0.003,0.002,0.005,0.002,0.009,0V25.6h0.047v0.094
	l0.044,0.096v0.045h0.043v0.188h0.045v0.094l0.093,0.093v0.187c-0.004,0.021,0.011,0.041,0.032,0.045
	c0.004,0.002,0.008,0.002,0.014,0c-0.004,0.022,0.011,0.043,0.033,0.047c0.003,0,0.008,0,0.013,0v0.138l0.045,0.046v0.096h0.044
	v0.227h0.045v0.093l0.044,0.095v0.094l0.045,0.043v0.095c-0.002,0.021,0.012,0.043,0.035,0.046c0.004,0.001,0.007,0.001,0.011,0
	v0.046h0.046v0.115c0.021-0.002,0.042,0.015,0.045,0.036c0,0.005,0,0.007,0,0.011l0.044,0.048v0.139
	c-0.003,0.021,0.014,0.041,0.035,0.045c0.004,0,0.007,0,0.01,0v0.094c-0.003,0.021,0.012,0.041,0.034,0.045c0.003,0,0.008,0,0.013,0
	l0.045,0.093v0.095c0.021-0.004,0.042,0.012,0.045,0.033c0,0.003,0,0.008,0,0.012v0.045l0.047,0.041v0.094
	c-0.003,0.023,0.013,0.044,0.036,0.048c0.003,0,0.005,0,0.009,0v0.045h0.047v0.188l0.045,0.045v0.092
	c-0.002,0.021,0.013,0.043,0.035,0.047c0.004,0,0.007,0,0.012,0v0.046c-0.002,0.022,0.014,0.043,0.036,0.046
	c0.003,0,0.005,0,0.009,0v0.045h0.045v0.188l0.093,0.045v0.046l0.045,0.047v0.138c0.022-0.004,0.042,0.012,0.045,0.032
	c0,0.003,0,0.009,0,0.013v0.045c0.022-0.004,0.042,0.012,0.045,0.033c0,0.004,0,0.008,0,0.014v0.037h0.045
	c-0.003,0.021,0.012,0.041,0.034,0.045c0.005,0,0.008,0,0.012,0v0.045c0.037,0.002,0.07,0.019,0.093,0.045l0.046,0.047v0.641H45.7
	v0.094h-0.227v0.092c-0.093,0-0.185,0.018-0.274,0.045h-0.045c-0.023,0.027-0.056,0.046-0.093,0.048
	c-0.048,0.006-0.094,0.021-0.136,0.045h-0.043c-0.036,0.002-0.07,0.019-0.094,0.046L44.743,30.9h-0.134
	c-0.049,0.006-0.096,0.021-0.137,0.045c-0.037,0.002-0.07,0.019-0.094,0.046h-0.043l-0.093,0.094h-0.134
	c-0.047,0.006-0.095,0.021-0.136,0.046v0.047c-0.035,0.002-0.07,0.018-0.093,0.045h-0.093l-0.044,0.043h-0.043
	c-0.036,0.002-0.07,0.021-0.093,0.047H43.56c-0.035,0.002-0.069,0.02-0.093,0.045c-0.036,0.002-0.07,0.021-0.092,0.047h-0.132
	c-0.036,0.003-0.069,0.019-0.093,0.047l-0.047,0.044H43.01c-0.042,0.024-0.089,0.04-0.137,0.046
	c-0.047,0.007-0.094,0.021-0.136,0.046c-0.047,0.005-0.094,0.021-0.136,0.045H42.56c-0.036,0.002-0.069,0.021-0.093,0.048H42.42
	c-0.024,0.024-0.057,0.043-0.093,0.043h-0.041c-0.062,0-0.093,0.016-0.093,0.047c-0.036,0.002-0.07,0.019-0.093,0.045h-0.093
	c-0.024,0.025-0.058,0.043-0.093,0.047c-0.048,0.006-0.094,0.021-0.136,0.045h-0.093c-0.021-0.002-0.042,0.013-0.045,0.033
	c0,0.004,0,0.008,0,0.012c-0.036,0.002-0.07,0.02-0.093,0.046h-0.039l-0.045,0.045h-0.135c-0.094,0.001-0.186,0.017-0.275,0.047
	v0.045H40.96v0.048c-0.057,0.03-0.121,0.047-0.186,0.047h-0.131v0.045c-0.036,0.002-0.07,0.02-0.093,0.047l-0.092,0.046h-0.132
	c-0.036,0-0.07,0.018-0.093,0.045v0.043H40.14c-0.023,0.026-0.057,0.044-0.093,0.046c-0.05-0.004-0.099,0.014-0.137,0.046h-0.266
	v0.045c-0.05-0.004-0.099,0.013-0.137,0.046h-0.911v-0.306H38.55c0.003-0.021-0.012-0.042-0.034-0.045c-0.004,0-0.007,0-0.011,0
	v-0.188c-0.023,0.004-0.043-0.014-0.045-0.035c0-0.004,0-0.008,0-0.01l-0.045-0.043V31.82c-0.021,0.004-0.042-0.012-0.044-0.033
	c0-0.004,0-0.008,0-0.012v-0.188h-0.048V31.4h-0.044V31.09h-0.093v-0.279h-0.044V30.68h-0.045v-0.095l-0.045-0.044v-0.049
	c-0.022,0.003-0.042-0.012-0.045-0.033c0-0.004,0-0.008,0-0.014v-0.092h-0.046V30.17l-0.093-0.094v-0.219h-0.042v-0.094
	c0.003-0.021-0.013-0.043-0.035-0.046c-0.003-0.001-0.007-0.001-0.011,0v-0.093c-0.022,0.003-0.043-0.014-0.046-0.035
	c0-0.003,0-0.008,0-0.012v-0.094c-0.022,0.002-0.042-0.014-0.045-0.033c0-0.006,0-0.01,0-0.014v-0.092l-0.046-0.045v-0.27H37.55
	v-0.319l-0.046-0.046v-0.094l-0.044-0.045V28.35c0.003-0.021-0.012-0.043-0.034-0.045c-0.004,0-0.008,0-0.012,0V28.21h-0.042v-0.278
	l-0.045-0.048V27.79H37.28c0.003-0.021-0.012-0.042-0.034-0.046c-0.003,0-0.007,0-0.011,0v-0.188H37.19v-0.129l-0.045-0.048v-0.187
	l-0.046-0.045v-0.043c-0.021,0.004-0.042-0.012-0.045-0.033c0-0.004,0-0.008,0-0.012v-0.188c0.003-0.021-0.013-0.044-0.036-0.046
	c-0.003-0.001-0.006-0.001-0.01,0v-0.095l-0.045-0.045V26.6c-0.021,0.004-0.041-0.012-0.044-0.033c-0.001-0.004-0.001-0.008,0-0.01
	v-0.095l-0.046-0.046V26.29l-0.045-0.045v-0.093l-0.051-0.047v-0.094h-0.046v-0.187l-0.044-0.048v-0.131L36.641,25.6v-0.093h-0.046
	v-0.093l-0.045-0.041v-0.141l-0.046-0.045v-0.095c0.003-0.021-0.012-0.043-0.034-0.046c-0.003-0.001-0.007-0.001-0.011,0v-0.188
	h-0.045v-0.313c0.002-0.021-0.013-0.041-0.035-0.045c-0.004,0-0.008,0-0.011,0v-0.138l-0.045-0.045v-0.09
	c-0.022,0.004-0.042-0.014-0.045-0.033c-0.001-0.004-0.001-0.008,0-0.012V24.05h-0.046v-0.366c-0.023,0.002-0.042-0.017-0.043-0.039
	c0-0.002,0-0.004,0-0.006h-0.048v-0.279c-0.022,0.004-0.042-0.012-0.045-0.034c0-0.005,0-0.009,0-0.013v-0.359l-0.046-0.046v-0.229
	l-0.047-0.047v-0.227h-0.044v-0.184l-0.048-0.047v-0.41c0.003-0.021-0.013-0.041-0.035-0.047c-0.003,0-0.006,0-0.01,0V21.67h-0.042
	v-0.412h-0.045v-0.318h-0.046v-0.137c0.004-0.021-0.012-0.041-0.033-0.047c-0.004-0.001-0.007-0.001-0.011,0v-0.229
	c-0.021,0.005-0.042-0.012-0.044-0.032c0-0.004,0-0.009,0-0.013v-0.137c-0.022,0.002-0.042-0.013-0.045-0.033
	c-0.001-0.004-0.001-0.008,0-0.014h-7.107v0.229l-0.046,0.047v0.044h-0.093v0.094l-0.047,0.046v0.094l-0.044,0.045
	c-0.031,0.031-0.063,0.063-0.093,0.092v0.23c-0.022-0.005-0.042,0.012-0.045,0.034c0,0.003,0,0.007,0,0.011h-0.093V21.4
	l-0.045,0.045v0.043l-0.093,0.095v0.095c-0.022-0.005-0.043,0.012-0.046,0.033c-0.001,0.004-0.001,0.008,0,0.012v0.137h-0.04V21.9
	l-0.045,0.047v0.044l-0.044,0.045v0.046c-0.023-0.003-0.043,0.014-0.045,0.035c0,0.003,0,0.006,0,0.009v0.047h-0.046v0.046
	c0.003,0.021-0.012,0.041-0.034,0.045c-0.003,0-0.007,0-0.011,0l-0.046,0.045v0.137l-0.093,0.095v0.048h-0.045v0.094
	c-0.022-0.002-0.043,0.016-0.044,0.037c0,0.004,0,0.006,0,0.01v0.043l-0.136,0.094v0.095l-0.093,0.043v0.14h-0.047v0.045h-0.042
	v0.045c0.003,0.021-0.012,0.043-0.034,0.045c-0.004,0-0.007,0-0.011,0c0.003,0.022-0.013,0.043-0.035,0.048
	c-0.004,0-0.007,0-0.011,0v0.093l-0.045,0.045v0.046l-0.045,0.046c-0.021-0.004-0.042,0.014-0.044,0.034
	c-0.001,0.003,0,0.009,0,0.013v0.045h-0.044l-0.047,0.045v0.094c0.003,0.021-0.013,0.041-0.036,0.045c-0.003,0-0.006,0-0.01,0
	c0.003,0.021-0.013,0.043-0.036,0.046c-0.003,0-0.006,0-0.01,0l-0.044,0.093v0.04c-0.022-0.004-0.042,0.013-0.044,0.034
	c-0.001,0.004,0,0.007,0,0.012V24.1l-0.046,0.045h-0.046v0.045l-0.045,0.045v0.14h-0.093v0.094
	c-0.022-0.003-0.042,0.013-0.045,0.033c-0.001,0.004-0.001,0.008,0,0.013v0.045l-0.046,0.045v0.094h-0.06v0.047l-0.045,0.044h-0.046
	v0.187c-0.022-0.002-0.043,0.012-0.046,0.035c0,0.004,0,0.006,0,0.01c-0.023-0.008-0.043,0.008-0.046,0.03c0,0.003,0,0.007,0,0.009
	v0.094l-0.045,0.045v0.046c0.004,0.021-0.01,0.042-0.032,0.046c-0.004,0.001-0.009,0.001-0.013,0.001v0.092l-0.046,0.048v0.092
	c-0.021-0.004-0.042,0.013-0.045,0.033c0,0.006,0,0.01,0,0.012v0.139c0.003,0.021-0.012,0.043-0.034,0.045
	c-0.003,0.001-0.007,0.001-0.011,0v0.188c-0.036,0.002-0.069,0.02-0.093,0.045V26.3l-0.044,0.046v0.094h-0.045v0.597
	c0.003,0.021-0.013,0.042-0.035,0.044c-0.003,0.001-0.007,0.001-0.01,0v0.045h-0.683v-0.063c0.002-0.022-0.014-0.043-0.037-0.045
	c-0.002,0-0.006,0-0.009,0l-0.045-0.045h-0.093c-0.023-0.027-0.057-0.043-0.093-0.047v-0.048h-0.049v-0.045h-0.136
	c-0.023-0.024-0.057-0.043-0.093-0.045c-0.023-0.026-0.057-0.043-0.092-0.045h-0.093v-0.048c-0.023-0.026-0.057-0.043-0.093-0.045
	h-0.093c-0.023-0.026-0.057-0.045-0.093-0.047v-0.043h-0.124v-0.047h-0.093c0.003-0.021-0.013-0.043-0.036-0.046
	c-0.003-0.001-0.007-0.001-0.01,0c-0.023-0.026-0.057-0.045-0.093-0.046h-0.093c-0.023-0.027-0.057-0.044-0.093-0.046V26.33h-0.13
	c-0.038-0.032-0.086-0.049-0.136-0.045l-0.093-0.094h-0.137l-0.046-0.045h-0.047c-0.021,0.004-0.042-0.013-0.044-0.033
	c-0.001-0.004-0.001-0.008,0-0.012l-0.093-0.047l-0.045-0.046h-0.042c-0.023-0.026-0.057-0.044-0.093-0.046
	c-0.038-0.031-0.087-0.049-0.137-0.045c-0.024-0.025-0.058-0.044-0.093-0.046l-0.046-0.045h-0.093
	c-0.022,0.003-0.042-0.015-0.045-0.035c0-0.003,0-0.007,0-0.011l-0.045-0.047h-0.039v-0.049H21.74
	c-0.036-0.002-0.069-0.018-0.093-0.043L21.554,25.6c-0.022,0.002-0.042-0.013-0.044-0.033c0-0.004,0-0.008,0-0.012h-0.134
	l-0.045-0.047h-0.093v-0.046h-0.135v-0.045h-0.044c-0.042-0.024-0.088-0.04-0.136-0.046c-0.024-0.025-0.057-0.043-0.093-0.046
	v-0.046h-0.134c0.002-0.023-0.015-0.043-0.038-0.047c-0.002,0-0.006,0-0.008,0c-0.024-0.025-0.057-0.041-0.093-0.043h-0.134v-0.047
	c-0.036-0.002-0.07-0.02-0.093-0.047h-0.043c-0.058-0.029-0.121-0.047-0.186-0.047c0.003-0.021-0.012-0.043-0.035-0.045
	c-0.001,0-0.003-0.001-0.006-0.001c-0.035-0.002-0.069-0.021-0.093-0.045V24.91h-0.092c-0.023-0.028-0.058-0.045-0.093-0.049h-0.093
	v-0.047h-0.038l-0.044-0.045V24.73h-0.138V24.59h-0.046v-0.729h0.046v-0.137c-0.003-0.022,0.011-0.043,0.033-0.047
	c0.004,0,0.008,0,0.012,0V23.54h0.045v-0.187c0.022,0.002,0.042-0.014,0.045-0.035c0-0.004,0-0.008,0-0.012h0.044
	c0.022,0.004,0.042-0.013,0.045-0.033c0.001-0.004,0.001-0.008,0-0.012V23.17l0.046-0.045v-0.041l0.045-0.046
	c-0.003-0.021,0.012-0.043,0.034-0.045c0.004-0.001,0.007-0.001,0.011,0v-0.048l0.045-0.045v-0.094h0.046v-0.043h0.044v-0.047
	l0.047-0.047v-0.089h0.045v-0.048l0.044-0.047v-0.045l0.137-0.137V22.26h0.045v-0.095l0.093-0.095h0.045
	c-0.003-0.021,0.013-0.041,0.035-0.045c0.004,0,0.007,0,0.011,0v-0.041l0.093-0.094c0.021,0.002,0.042-0.014,0.045-0.035
	c0-0.002,0-0.006,0-0.01V21.8c-0.003-0.022,0.012-0.043,0.033-0.047c0.004,0,0.008,0,0.012,0c0.032-0.028,0.063-0.062,0.092-0.093
	l0.093-0.045v-0.047l0.045-0.045c-0.003-0.021,0.012-0.043,0.034-0.045c0.004-0.002,0.008,0,0.012,0v-0.047
	c-0.003-0.021,0.012-0.041,0.034-0.045c0.004,0,0.007,0,0.011,0v-0.045h0.045v-0.048c0.036-0.001,0.069-0.019,0.092-0.044v-0.048
	c0.023,0.004,0.043-0.013,0.046-0.034c0.001-0.004,0.001-0.008,0-0.012h0.044l0.045-0.092c-0.003-0.022,0.013-0.043,0.035-0.047
	c0.004,0,0.007,0,0.011,0l0.045-0.045c-0.003-0.021,0.012-0.041,0.034-0.045c0.004,0,0.008,0,0.012,0v-0.046
	c0.022,0.002,0.043-0.014,0.046-0.034c0-0.005,0-0.009,0-0.013l0.044-0.045c0.031-0.028,0.063-0.062,0.093-0.095V20.65
	c0.024-0.026,0.058-0.043,0.093-0.045v-0.045c-0.002-0.021,0.013-0.043,0.036-0.045c0.003-0.002,0.007-0.002,0.01,0l0.045-0.047
	V20.43h0.031v-0.095c0.021,0.002,0.042-0.013,0.045-0.032c0-0.005,0-0.01,0-0.014h0.046v-0.044l0.045-0.046h0.045
	c-0.003-0.021,0.012-0.043,0.033-0.047c0.004,0,0.008,0,0.012,0v-0.045l0.137-0.14v-0.045c0.021,0.005,0.042-0.011,0.045-0.032
	c0-0.002,0-0.008,0-0.013l0.044-0.045c0.023,0.003,0.043-0.015,0.046-0.035c0-0.004,0-0.008,0-0.01h0.045l0.093-0.095
	c0.021,0.004,0.041-0.012,0.044-0.032c0.001-0.004,0.001-0.009,0-0.013v-0.045l0.046-0.047c0.022,0.004,0.042-0.012,0.045-0.033
	c0-0.004,0-0.008,0-0.012v-0.047h0.044v-0.046h0.046v-0.046l0.044-0.044c-0.003-0.022,0.012-0.044,0.035-0.048
	c0.003,0,0.007,0,0.011,0l0.046-0.045v-0.047c0.022,0.004,0.042-0.012,0.044-0.035c0-0.002,0-0.006,0-0.01
	c0.022,0.004,0.042-0.013,0.046-0.033c0-0.004,0-0.008,0-0.012v-0.094l0.046-0.046h0.045v-0.094H23v-0.093l0.045-0.045
	c0.022,0,0.042-0.015,0.045-0.037c0-0.002,0-0.006,0-0.01v-0.094l0.044-0.044c0.022,0.003,0.042-0.013,0.046-0.034
	c0-0.005,0-0.009,0-0.012v-0.187c0.023-0.026,0.057-0.043,0.093-0.045v-0.222c0.022,0.003,0.043-0.014,0.046-0.035
	c0-0.004,0-0.007,0-0.01v-0.412H23.27v-0.229c-0.023-0.027-0.057-0.043-0.093-0.045v-0.14h-0.042V17.13l-0.037-0.05v-0.04h-0.045
	l-0.187-0.187c0.003-0.021-0.013-0.042-0.035-0.044c-0.003,0-0.007,0-0.011,0l-0.044-0.046v-0.042H22.74
	c-0.024-0.027-0.057-0.044-0.093-0.046h-0.044c-0.023-0.028-0.057-0.044-0.093-0.045c0.003-0.021-0.012-0.042-0.033-0.045
	c-0.004,0-0.009,0-0.013,0h-0.043c-0.037-0.034-0.087-0.051-0.137-0.047c-0.024-0.026-0.057-0.043-0.093-0.044
	c-0.088-0.03-0.181-0.046-0.274-0.046h-0.042v-0.047h-0.093c-0.042-0.024-0.087-0.04-0.136-0.044h-0.093
	c-0.023-0.028-0.057-0.045-0.093-0.047v-0.045h-0.186c-0.058-0.03-0.121-0.045-0.187-0.045c-0.041-0.025-0.087-0.04-0.136-0.046
	H20.6v-0.186h-0.228v-1.87h-0.501v0.093h-0.318v1.553l0.044,0.045v0.64H19.37v0.138h-3.006v0.914h-0.093v0.274h-0.636v-0.043h-0.093
	v0.044c-0.078,0.004-0.155,0.019-0.228,0.045h-0.955v0.045l-0.045,0.045v0.413h-0.089v0.273l-0.045,0.047v0.138
	c-0.138,0.002-0.275,0.018-0.41,0.045h-1.14v-0.501h-0.046c-0.022-0.002-0.042,0.013-0.045,0.035c0,0.003,0,0.007,0,0.011
	c-0.03,0.031-0.062,0.061-0.093,0.093l-0.045,0.045c-0.022-0.003-0.043,0.016-0.046,0.035c0,0.004,0,0.01,0,0.012h-0.178
	c-0.028,0.021-0.045,0.057-0.047,0.094c-0.061,0-0.093,0.015-0.093,0.045c-0.042,0.023-0.088,0.041-0.137,0.045
	c-0.026,0.023-0.043,0.059-0.045,0.094c-0.022-0.003-0.042,0.014-0.045,0.036c0,0.004,0,0.007,0,0.011h-0.186
	c-0.03,0.029-0.062,0.061-0.093,0.094c-0.021-0.004-0.042,0.012-0.044,0.033c0,0.004,0,0.008,0,0.012
	c-0.024,0.025-0.057,0.041-0.093,0.045v0.095c-0.061,0-0.093,0.015-0.093,0.046c-0.05-0.005-0.099,0.012-0.137,0.045
	c-0.023,0.025-0.057,0.043-0.093,0.045v0.096c-0.05-0.007-0.099,0.012-0.136,0.045L10.89,19.48
	c-0.045,0.012-0.081,0.047-0.093,0.092c-0.022-0.002-0.043,0.012-0.046,0.035c0,0.004,0,0.008,0,0.012
	c-0.045,0.011-0.081,0.047-0.093,0.093h-0.12c-0.026,0.022-0.043,0.058-0.045,0.093l-0.045,0.045
	c-0.042,0.025-0.088,0.041-0.137,0.047c-0.027,0.022-0.042,0.059-0.044,0.095l-0.093,0.045c-0.027,0.022-0.043,0.058-0.045,0.094
	c-0.021-0.005-0.042,0.009-0.045,0.029c-0.001,0.007-0.001,0.011,0,0.015c-0.05-0.004-0.099,0.016-0.136,0.047v0.047
	c-0.023,0.023-0.057,0.043-0.093,0.045c-0.03,0.029-0.06,0.061-0.093,0.094v0.045l-0.093,0.094v0.045L9.53,20.725v0.094H8.263
	v-1.709H8.176l-0.045,0.045C8.073,19.186,8.01,19.2,7.945,19.2v0.139c-0.058,0.029-0.122,0.045-0.186,0.045
	c-0.036,0.003-0.069,0.021-0.093,0.046c0.003,0.021-0.011,0.043-0.033,0.047c-0.004,0-0.008,0-0.012,0
	c-0.038,0.031-0.087,0.049-0.137,0.045c-0.023,0.026-0.057,0.043-0.093,0.045v0.095c-0.042,0.022-0.088,0.039-0.137,0.045
	c-0.062,0-0.093,0.015-0.093,0.045c-0.032,0.031-0.063,0.063-0.093,0.093v0.047H6.975v0.094c0.003,0.021-0.012,0.043-0.034,0.047
	c-0.003,0-0.007,0-0.011,0c-0.05-0.004-0.099,0.013-0.137,0.046L6.748,20.12l-0.093,0.09L6.61,20.256v0.047H6.518
	c-0.027,0.021-0.043,0.057-0.045,0.094v0.045H6.429c-0.023,0.026-0.057,0.043-0.093,0.045c0.003,0.021-0.011,0.041-0.034,0.047
	c-0.003,0-0.008,0-0.012,0c-0.002,0.033-0.018,0.068-0.044,0.094l-0.093,0.092c-0.027,0.025-0.043,0.061-0.046,0.096
	c-0.061,0-0.093,0.014-0.093,0.045L5.968,20.9c-0.071,0.011-0.126,0.065-0.137,0.139l-0.044,0.044l-0.093,0.095v0.045l-0.093,0.092
	c0.003,0.022-0.012,0.043-0.034,0.047c-0.004,0-0.007,0-0.011,0c-0.027,0.022-0.043,0.059-0.045,0.094
	c-0.021-0.002-0.043,0.014-0.046,0.036c0,0.004,0,0.007,0,0.01c-0.027,0.022-0.044,0.06-0.045,0.093
	c-0.036,0.002-0.07,0.02-0.093,0.049v0.045c-0.028,0.021-0.045,0.057-0.045,0.092H5.199v0.094c-0.036,0.002-0.069,0.02-0.093,0.045
	c-0.002,0.036-0.019,0.068-0.046,0.094c-0.022-0.003-0.042,0.012-0.045,0.035c0,0.003,0,0.006,0,0.01
	c0.003,0.021-0.012,0.043-0.033,0.045c-0.004,0.002-0.008,0.002-0.012,0v0.094H4.926c-0.038,0.033-0.087,0.051-0.136,0.046v0.046
	c-0.001,0.035-0.018,0.068-0.045,0.093c0.003,0.021-0.012,0.044-0.035,0.048c-0.003,0-0.007,0-0.01,0v0.139
	c-0.05-0.006-0.098,0.012-0.135,0.047v0.045l-0.093,0.093v0.045c0.004,0.021-0.01,0.041-0.032,0.045
	c-0.004,0.001-0.009,0.001-0.013,0c-0.001,0.035-0.019,0.07-0.046,0.095v0.092c-0.059,0-0.092,0.017-0.092,0.045v0.095
	c-0.022-0.002-0.042,0.013-0.045,0.035c0,0.003,0,0.007,0,0.012l-0.045,0.044c-0.027,0.021-0.043,0.059-0.045,0.094l-0.045,0.047
	v0.045c-0.027,0.021-0.043,0.059-0.046,0.094v0.094c0,0.029-0.03,0.045-0.093,0.045v0.137c-0.002,0.037-0.019,0.069-0.045,0.095
	v0.106c-0.036,0-0.07,0.019-0.093,0.045v0.273H3.519c-0.334-0.029-0.652-0.045-0.957-0.045H2.198c-0.063,0-0.093-0.018-0.093-0.047
	v-0.094c-0.027-0.023-0.042-0.058-0.044-0.094c-0.023,0.004-0.043-0.013-0.046-0.033c-0.001-0.006-0.001-0.008,0-0.013V23.6
	c-0.023-0.027-0.057-0.045-0.093-0.047v-0.32l-0.045-0.045v-0.32l-0.093-0.045v-0.364c0.004-0.021-0.01-0.041-0.031-0.046
	C1.751,22.41,1.748,22.41,1.745,22.41c-0.002-0.035-0.018-0.067-0.045-0.092v-0.228H1.605v-0.55
	c-0.001-0.036-0.018-0.068-0.046-0.094v-0.316c-0.002-0.035-0.018-0.068-0.044-0.094c-0.022,0.004-0.042-0.014-0.045-0.034
	c0-0.004,0-0.007,0-0.012v-0.364l-0.053-0.044v-0.047L1.371,20.48v-0.914c0-0.029-0.032-0.045-0.093-0.045v-0.549
	c-0.022,0.004-0.042-0.016-0.044-0.035c0-0.004,0-0.008,0-0.013v-0.593c-0.002-0.035-0.019-0.069-0.045-0.093v-0.044L1.143,18.15
	v-0.5c0.002-0.022-0.013-0.043-0.036-0.046c-0.003-0.001-0.007-0.001-0.011,0.001v-0.042l-0.045-0.045v-0.831H0.958v-0.731
	c-0.027-0.024-0.044-0.058-0.046-0.093V14.31c-0.026-0.024-0.043-0.058-0.045-0.093l-0.041-0.044v-2.879
	c0.021,0.003,0.042-0.011,0.044-0.033c0.001-0.004,0.001-0.008,0-0.012l0.049-0.047v-0.964c0.002-0.036,0.019-0.069,0.045-0.093
	v-0.73C1,9.414,1.034,9.397,1.057,9.369V9.323c0.456,0,0.911,0.015,1.366,0.046v0.092h0.093v0.044L2.555,9.55v0.687H21.37
	c0.022,0.003,0.043-0.012,0.046-0.035c0-0.004,0-0.007,0-0.011l0.045-0.046h0.046c0.022,0.003,0.042-0.013,0.044-0.035
	c0-0.003,0-0.006,0-0.01v-0.047h0.093v-0.045l0.045-0.093h0.046l0.044-0.093h0.046l0.045-0.045l0.093-0.046V9.688
	c0.035-0.001,0.069-0.018,0.093-0.045l0.046-0.045h0.045V9.552C22.144,9.53,22.159,9.51,22.18,9.507c0.004,0,0.008,0,0.012,0h0.045
	V9.46l0.093-0.093c0.031-0.031,0.062-0.063,0.093-0.093c0.022,0.003,0.042-0.013,0.045-0.035c0-0.003,0-0.008,0-0.011l0.093-0.093
	c0.019-0.003,0.033-0.021,0.032-0.041h0.046c-0.003-0.022,0.011-0.043,0.033-0.046c0.005-0.001,0.01-0.001,0.015,0V9.002
	l0.093-0.045c-0.005-0.021,0.008-0.043,0.03-0.047c0.004-0.001,0.009-0.001,0.013-0.001h0.049l0.231-0.23V8.637h0.044l0.045-0.045
	h0.042c-0.003-0.022,0.013-0.043,0.035-0.046c0.003,0,0.006,0,0.01,0V8.5c0.023-0.027,0.057-0.044,0.093-0.046
	c0.023-0.027,0.057-0.044,0.093-0.045c0.036-0.002,0.07-0.018,0.093-0.044l0.093-0.093h0.136V7.858
	c0.036-0.002,0.069-0.018,0.093-0.044V7.678h0.629v0.093h6.65V7.357c0.003-0.022-0.012-0.042-0.034-0.045c-0.003,0-0.007,0-0.011,0
	V7.265L31.077,7.22V6.535h-0.319v0.458c-0.021-0.003-0.042,0.012-0.045,0.033c0,0.004,0,0.007,0,0.011h-0.637V6.851l-0.045-0.045
	V6.535h-1.822v0.411h-0.045v0.093h-0.633V6.717h-0.093V2.738h0.093V2.552l0.045-0.045V2.462l0,0H27.569z M43.378,16.228l0.044-0.046
	h-0.044V16.228z M34.353,17.051h-2.868v0.045l-0.045,0.093h-0.045v0.137c-0.022-0.003-0.042,0.013-0.045,0.034
	c0,0.004,0,0.007,0,0.011v0.186l-0.045,0.046v0.137h-0.046v0.188c0.004,0.021-0.011,0.042-0.033,0.045
	c-0.003,0.001-0.007,0.001-0.012,0v0.687h0.044v0.094l0.046,0.045v0.096h0.045v0.186h0.045v0.596h2.597v-0.279h0.05V19.34
	c0.022,0.002,0.042-0.016,0.044-0.037c0-0.003,0-0.007,0-0.01h0.045l0.093-0.094h0.045v-0.045l0.093-0.043
	c-0.003-0.023,0.014-0.045,0.037-0.047c0.003-0.002,0.006-0.002,0.01,0l0.093-0.096h0.125l0.045-0.045
	c-0.003-0.021,0.013-0.043,0.034-0.045c0.004-0.001,0.007-0.001,0.011,0l0.093-0.093c0.023,0.003,0.043-0.013,0.046-0.036
	c0.001-0.003,0.001-0.006,0-0.012c0.036-0.002,0.07-0.018,0.093-0.045V18.65h0.093v-0.047c0.021,0.004,0.042-0.013,0.045-0.033
	c0.001-0.004,0.001-0.008,0-0.012h0.093v-0.824l-0.046-0.046c0.003-0.022-0.013-0.042-0.034-0.045c-0.004,0-0.007,0-0.01,0
	c0.003-0.022-0.012-0.042-0.034-0.045c-0.004,0-0.008,0-0.012,0l-0.092-0.045c-0.036-0.002-0.07-0.019-0.093-0.045v-0.046
	c-0.022,0.002-0.043-0.013-0.046-0.035c0-0.004,0-0.007,0-0.011h-0.049c-0.023-0.027-0.057-0.044-0.093-0.046V17.28
	c-0.036-0.002-0.07-0.019-0.093-0.046c-0.021,0.003-0.042-0.011-0.044-0.032c0-0.004,0-0.008,0-0.013l-0.044-0.045h-0.042
	l-0.044-0.049c0.002-0.022-0.014-0.042-0.037-0.045c-0.003,0-0.007,0-0.011,0L34.353,17.051L34.353,17.051z M29.569,17.738
	c-0.021,0.002-0.042-0.013-0.045-0.035c0-0.004,0-0.008,0-0.012c-0.021,0.002-0.042-0.012-0.045-0.033c0-0.004,0-0.008,0-0.013V17.6
	h-0.315v1.371l0.044,0.047c0.022-0.006,0.043,0.01,0.046,0.031c0.001,0.004,0.001,0.01,0,0.014h0.041v0.092h0.045V19.2l0.048,0.046
	v0.046h0.093v0.046l0.093,0.044h0.046v0.046c0.023,0.027,0.057,0.045,0.093,0.047h0.045v0.043h0.04l0.093,0.045v0.095h0.638v-0.095
	h-0.093v-0.092c-0.021,0.002-0.041-0.013-0.045-0.033c0-0.004,0-0.01,0-0.014v-0.04h-0.046v-0.045
	c-0.022,0.002-0.042-0.015-0.045-0.036c0-0.004,0-0.008,0-0.011h-0.047v-0.095l-0.044-0.045v-0.092
	c-0.036-0.002-0.069-0.021-0.093-0.047V18.88h-0.043v-0.137l-0.046-0.048v-0.094l-0.093-0.094v-0.042h-0.047v-0.045
	c-0.029-0.032-0.061-0.063-0.092-0.093v-0.093L29.75,18.19v-0.045h-0.04v-0.094l-0.046-0.046v-0.092H29.62v-0.04
	c-0.022,0.003-0.042-0.011-0.045-0.033c0-0.005,0-0.009,0-0.013v-0.093l0,0L29.569,17.738z"/>
<linearGradient id="shape5_1_" gradientUnits="userSpaceOnUse" x1="314.9619" y1="-158.8281" x2="314.9619" y2="-172.5781" gradientTransform="matrix(1 0 0 -1 -247.5801 -142.1602)">
	<stop  offset="0" style="stop-color:#7439E3"/>
	<stop  offset="1" style="stop-color:#B4A7F8"/>
</linearGradient>
<path id="shape5" fill="url(#shape5_1_)" d="M77.212,31.251c-0.313,0-0.625-0.05-0.922-0.147c-0.298,0.104-0.608,0.147-0.922,0.147
	h-8.193c-0.185,0-0.442-0.009-0.771-0.075c-0.217,0.051-0.438,0.075-0.663,0.075h-2.664c-0.816,0-1.604-0.342-2.166-0.937
	c-0.078-0.086-0.15-0.174-0.22-0.271l-0.909,0.648c-0.503,0.357-1.101,0.554-1.726,0.554h-3.584c-0.717,0-1.402-0.269-1.937-0.722
	c-0.614,0.427-1.353,0.652-2.112,0.652c-0.75,0-1.479-0.222-2.104-0.642c-0.164-0.11-0.315-0.233-0.452-0.37
	c-1.021-1.021-1.363-2.423-0.92-3.753l0.044-0.128l0.08-0.203c-1.801-0.254-3.146-1.766-3.146-3.646V22.24
	c0-0.741,0.274-1.45,0.773-1.996l4.748-5.232c0.646-1.069,1.762-1.679,3.079-1.679h0.41c2.064,0,3.684,1.618,3.684,3.684
	c0,0-0.001,0.289-0.003,0.331c0.555-0.653,1.372-1.044,2.26-1.044h8.397c0.262,0,0.519,0.034,0.769,0.103
	c0.25-0.067,0.508-0.103,0.771-0.103h9.219c0.242,0,0.48,0.029,0.718,0.087c0.231-0.058,0.478-0.087,0.72-0.087h8.396
	c0.917,0,1.797,0.433,2.354,1.159c0.563,0.726,0.752,1.689,0.518,2.573l-0.407,1.532c-0.146,0.541-0.435,1.02-0.825,1.395
	c-0.018,0.188-0.049,0.372-0.098,0.555l-0.41,1.537c-0.072,0.282-0.189,0.551-0.346,0.799c0.168,0.533,0.188,1.109,0.039,1.656
	l-0.412,1.539c-0.35,1.297-1.521,2.202-2.866,2.202H77.212z M74.173,23.782l0.017-0.009h-0.795l-0.004,0.009H74.173z"/>
<path id="ACE" fill="#FFFFFF" d="M51.402,23.163h-3.789c-0.409,0-0.717-0.308-0.717-0.718c0-0.104,0-0.104,0-0.204l5.018-5.531
	c0.104-0.307,0.311-0.41,0.615-0.41h0.41c0.408,0,0.717,0.308,0.717,0.717c0,0.102,0,0.205,0,0.205l-2.458,3.584H55.6
	c0.615,0,0.312,1.127-0.103,1.639l-4.507,5.531c-0.309,0.308-0.717,0.308-1.023,0.104c-0.205-0.206-0.309-0.41-0.205-0.719
	L51.402,23.163L51.402,23.163L51.402,23.163z M58.88,19.271l0.409,0.41l-4.813,8.603h3.584l2.148-1.536h2.973l-0.104,1.536h2.663
	l1.535-9.013H58.88L58.88,19.271z M63.386,20.809l-0.104,3.482h-2.97l2.047-3.482H63.386L63.386,20.809z M67.177,28.284h8.191
	l0.612-2.15l-0.818,0.614H69.43l1.739-5.941h6.452l0.408-1.535h-9.217l-2.355,7.988c-0.102,0.104-0.102,0.309-0.102,0.409
	c0,0.103,0,0.205,0.103,0.31s0.205,0.203,0.308,0.203C66.971,28.284,67.074,28.284,67.177,28.284L67.177,28.284L67.177,28.284z
	 M79.466,19.271l0.312,0.61l-2.563,8.397h8.193l0.408-1.535h-5.121l0.718-2.458h4.711l0.41-1.537h-4.507l0.611-1.942h4.815
	l0.409-1.535H79.466L79.466,19.271z"/>
<g>
	<defs>
		<path id="sg556_1_" d="M27.569,2.462h0.044C27.61,2.44,27.626,2.42,27.648,2.417c0.004,0,0.007,0,0.011,0V2.373h0.093V2.279h0.046
			l0.045-0.045V2.048l0.046-0.045V1.138h0.456V1h0.634v1.876h1.094v-0.32h0.636v0.187l0.046,0.042v0.137
			c0.104-0.031,0.216-0.031,0.32,0V2.236h0.093V2.188h0.866V2.143h0.638V2.92h4.693V2.462h3.095V1.823h0.64v0.503
			c-0.002,0.023,0.014,0.043,0.037,0.045c0.003,0,0.006,0,0.009,0v0.186h0.455v0.821c-0.036,0.002-0.069,0.018-0.093,0.045v0.089
			h-0.043v0.186c-0.022-0.003-0.042,0.012-0.046,0.034c0,0.003,0,0.007,0,0.011v0.048c-0.022-0.003-0.042,0.013-0.045,0.036
			c0,0.003,0,0.006,0,0.01V3.93H41.33v0.042l-0.047,0.046V4.11l-0.044,0.046V4.2l-0.047,0.047V4.34h-0.046v0.046L41.099,4.43
			l-0.046,0.093c0.004,0.021-0.01,0.042-0.032,0.046c-0.004,0-0.008,0-0.012,0c0.003,0.022-0.013,0.042-0.036,0.045
			c-0.003,0-0.006,0-0.01,0V4.75l-0.046,0.045v0.046h-0.045v0.135h-0.046v0.093h-0.045v0.093c-0.022-0.003-0.042,0.012-0.045,0.033
			c0,0.004,0,0.007,0,0.011v0.043H40.69v0.047l-0.042,0.045v0.138h-0.049v0.047c0.003,0.021-0.011,0.041-0.033,0.044
			c-0.004,0-0.008,0-0.012,0v0.14c-0.023-0.003-0.043,0.013-0.046,0.036c0,0.003,0,0.007,0,0.011v0.046h-0.046v0.093h-0.043v0.093
			h-0.05V6.03c-0.022-0.003-0.042,0.012-0.045,0.035c0,0.003,0,0.007,0,0.011V6.21h-0.049v0.048h-0.042v0.093l-0.045,0.044h-0.046
			v0.137h-0.045v0.093h-0.046v0.186h-0.046c0.003,0.022-0.012,0.042-0.034,0.045c-0.003,0-0.007,0-0.011,0v0.041l-0.047,0.046
			l-0.044,0.093c-0.022-0.003-0.043,0.013-0.045,0.035c0,0.003,0,0.007,0,0.01v0.043c-0.022-0.003-0.042,0.012-0.045,0.034
			c-0.001,0.004-0.001,0.008,0,0.012v0.047h-0.045v0.138h1.547v0.412h6.197V8.18h26.695v0.229h0.364V8.135h0.319V3.283h0.957v0.043
			h0.139l0.045,0.045v0.327h0.318c0.022,0.027,0.058,0.043,0.094,0.045v1.008h0.316v0.364h0.094v2.654h0.363
			c0.104,0.028,0.213,0.043,0.319,0.046h0.136v1.007h0.225v0.086h1.867v0.187h0.096v0.64h-0.914v0.274l-0.094,0.045v0.047h0.91
			v0.639h-2.096v0.138h8.795v-0.32h4.561v2.148h0.087v0.64h-5.468v0.045h-0.639c0.004-0.022-0.013-0.042-0.033-0.045
			c-0.004,0-0.008,0-0.012,0H84.88v-0.411h-7.835v0.457h-0.138v0.275h-0.365v0.046c-0.036,0.001-0.069,0.018-0.093,0.045v2.194
			h-0.633v-0.044h-0.092c-0.197-0.032-0.396-0.047-0.594-0.046h-0.188l-0.094-0.045v-0.732c0.037-0.001,0.069-0.018,0.094-0.046
			v-1.326h-0.271c-0.038-0.033-0.087-0.05-0.137-0.046v-0.275h-0.408c0.002,0.023-0.017,0.043-0.036,0.045c-0.004,0-0.008,0-0.012,0
			v1.418h-0.045v0.138h-0.594v0.044h-0.047v0.093h-0.043v0.093l-0.095,0.093v0.046c-0.021-0.003-0.041,0.013-0.044,0.034
			c-0.001,0.004,0,0.007,0.001,0.011v0.822h-0.5l-0.048,0.049H72.62v0.093h-0.044V16.6h-0.775l-0.046-0.047
			c-6.257-0.029-12.528-0.044-18.813-0.044v0.186h-0.729v-0.093H52.17v-0.093c-0.021,0.003-0.043-0.013-0.046-0.035
			c0-0.003,0-0.007,0-0.011l-0.045-0.046v-0.051h-0.045v-0.093c0.003-0.023-0.015-0.042-0.035-0.045c-0.004,0-0.008,0-0.01,0
			c-2.248-0.03-4.496-0.046-6.743-0.046h-0.045l-0.045,0.046c-0.022-0.003-0.042,0.011-0.045,0.033c0,0.004,0,0.008,0,0.012h-0.089
			l-0.045,0.044c-0.036,0.002-0.07,0.019-0.093,0.047H44.79c0.002,0.022-0.013,0.042-0.035,0.044c-0.003,0-0.007,0-0.01,0
			l-0.046,0.045h-0.044c-0.022,0.027-0.056,0.044-0.092,0.046c0.002,0.022-0.013,0.042-0.035,0.044c-0.004,0-0.007,0-0.01,0
			l-0.045,0.046H44.38v0.045c-0.036,0.001-0.069,0.018-0.093,0.045c-0.036,0.002-0.069,0.019-0.093,0.045l-0.045,0.045
			c-0.036,0.001-0.071,0.019-0.094,0.046l-0.046,0.044h-0.035c-0.024,0.027-0.057,0.044-0.093,0.046
			c0.003,0.021-0.013,0.042-0.035,0.045c-0.003,0-0.007,0-0.011,0l-0.046,0.044h-0.043c0.002,0.022-0.012,0.043-0.035,0.047
			c-0.003,0-0.007,0-0.011,0l-0.045,0.044h-0.044c-0.023-0.003-0.044,0.012-0.047,0.035c0,0.003,0,0.007,0,0.011l-0.044,0.046
			h-0.046c-0.022-0.003-0.042,0.012-0.045,0.034c0,0.003,0,0.007,0,0.011l-0.045,0.046v1.373h0.364v0.639
			c-0.228,0.004-0.457,0.02-0.683,0.049H43.02v1.277h0.049v0.414h0.045v0.42l0.046,0.045v0.318
			c-0.003,0.021,0.012,0.043,0.034,0.045c0.003,0.002,0.007,0.002,0.011,0v0.32h0.046v0.507l0.045,0.046
			c-0.003,0.021,0.011,0.041,0.033,0.045c0.003,0,0.007,0,0.011,0v0.457c-0.002,0.021,0.012,0.043,0.035,0.045
			c0.003,0.002,0.008,0.002,0.013,0v0.047l0.044,0.045v0.229l0.045,0.046v0.137l0.046,0.045v0.047l0.043,0.046v0.229l0.047,0.045
			c-0.003,0.021,0.011,0.043,0.033,0.045c0.004,0.002,0.008,0.002,0.012,0v0.229h0.045v0.045c-0.002,0.021,0.013,0.043,0.035,0.045
			c0.004,0.001,0.007,0.001,0.011,0v0.139l0.044,0.047v0.045l0.047,0.045v0.046h0.044v0.323l0.093,0.045v0.187
			c-0.002,0.021,0.013,0.042,0.036,0.044c0.003,0.002,0.005,0.002,0.009,0V25.6h0.047v0.094l0.044,0.096v0.045h0.043v0.188h0.045
			v0.094l0.093,0.093v0.187c-0.004,0.021,0.011,0.041,0.032,0.045c0.004,0.002,0.008,0.002,0.014,0
			c-0.004,0.022,0.011,0.043,0.033,0.047c0.003,0,0.008,0,0.013,0v0.138l0.045,0.046v0.096h0.044v0.227h0.045v0.093l0.044,0.095
			v0.094l0.045,0.043v0.095c-0.002,0.021,0.012,0.043,0.035,0.046c0.004,0.001,0.007,0.001,0.011,0v0.046h0.046v0.115
			c0.021-0.002,0.042,0.015,0.045,0.036c0,0.005,0,0.007,0,0.011l0.044,0.048v0.139c-0.003,0.021,0.014,0.041,0.035,0.045
			c0.004,0,0.007,0,0.01,0v0.094c-0.003,0.021,0.012,0.041,0.034,0.045c0.003,0,0.008,0,0.013,0l0.045,0.093v0.095
			c0.021-0.004,0.042,0.012,0.045,0.033c0,0.003,0,0.008,0,0.012v0.045l0.047,0.041v0.094c-0.003,0.023,0.013,0.044,0.036,0.048
			c0.003,0,0.005,0,0.009,0v0.045h0.047v0.188l0.045,0.045v0.092c-0.002,0.021,0.013,0.043,0.035,0.047c0.004,0,0.007,0,0.012,0
			v0.046c-0.002,0.022,0.014,0.043,0.036,0.046c0.003,0,0.005,0,0.009,0v0.045h0.045v0.188l0.093,0.045v0.046l0.045,0.047v0.138
			c0.022-0.004,0.042,0.012,0.045,0.032c0,0.003,0,0.009,0,0.013v0.045c0.022-0.004,0.042,0.012,0.045,0.033
			c0,0.004,0,0.008,0,0.014v0.037h0.045c-0.004,0.021,0.012,0.041,0.033,0.045c0.006,0,0.008,0,0.012,0v0.045
			c0.037,0.002,0.07,0.019,0.094,0.045l0.046,0.047v0.641H45.7v0.094h-0.227v0.092c-0.093,0-0.185,0.018-0.274,0.045h-0.045
			c-0.023,0.027-0.056,0.046-0.093,0.048c-0.048,0.006-0.094,0.021-0.136,0.045h-0.043c-0.036,0.002-0.07,0.019-0.094,0.046
			L44.743,30.9h-0.134c-0.049,0.006-0.096,0.021-0.137,0.045c-0.037,0.002-0.07,0.019-0.094,0.046h-0.043l-0.093,0.094h-0.134
			c-0.047,0.006-0.095,0.021-0.136,0.046v0.047c-0.035,0.002-0.07,0.018-0.093,0.045h-0.093l-0.044,0.043h-0.043
			c-0.036,0.002-0.07,0.021-0.093,0.047H43.56c-0.035,0.002-0.069,0.02-0.093,0.045c-0.036,0.002-0.07,0.021-0.092,0.047h-0.132
			c-0.036,0.003-0.069,0.019-0.093,0.047l-0.047,0.044H43.01c-0.042,0.024-0.089,0.04-0.137,0.046
			c-0.047,0.007-0.094,0.021-0.136,0.046c-0.047,0.005-0.094,0.021-0.136,0.045H42.56c-0.036,0.002-0.069,0.021-0.093,0.048H42.42
			c-0.024,0.024-0.057,0.043-0.093,0.043h-0.041c-0.062,0-0.093,0.016-0.093,0.047c-0.036,0.002-0.07,0.019-0.093,0.045h-0.093
			c-0.024,0.025-0.058,0.043-0.093,0.047c-0.048,0.006-0.094,0.021-0.136,0.045h-0.093c-0.021-0.002-0.042,0.013-0.045,0.033
			c0,0.004,0,0.008,0,0.012c-0.036,0.002-0.07,0.02-0.093,0.046h-0.039l-0.045,0.045h-0.135c-0.094,0.001-0.186,0.017-0.275,0.047
			v0.045H40.96v0.048c-0.057,0.03-0.121,0.047-0.186,0.047h-0.131v0.045c-0.036,0.002-0.07,0.02-0.093,0.047l-0.092,0.046h-0.132
			c-0.036,0-0.07,0.018-0.093,0.045v0.043H40.14c-0.023,0.026-0.057,0.044-0.093,0.046c-0.05-0.004-0.099,0.014-0.137,0.046h-0.266
			v0.045c-0.05-0.004-0.099,0.013-0.137,0.046h-0.911v-0.306H38.55c0.003-0.021-0.012-0.042-0.034-0.045c-0.004,0-0.007,0-0.011,0
			v-0.188c-0.023,0.004-0.043-0.014-0.045-0.035c0-0.004,0-0.008,0-0.01l-0.045-0.043V31.82c-0.021,0.004-0.042-0.012-0.044-0.033
			c0-0.004,0-0.008,0-0.012v-0.188h-0.048V31.4h-0.044V31.09h-0.093v-0.279h-0.044V30.68h-0.045v-0.095l-0.045-0.044v-0.049
			c-0.022,0.003-0.042-0.012-0.045-0.033c0-0.004,0-0.008,0-0.014v-0.092h-0.046V30.17l-0.093-0.094v-0.219h-0.042v-0.094
			c0.003-0.021-0.013-0.043-0.035-0.046c-0.003-0.001-0.007-0.001-0.011,0v-0.093c-0.022,0.003-0.043-0.014-0.046-0.035
			c0-0.003,0-0.008,0-0.012v-0.094c-0.022,0.002-0.042-0.014-0.045-0.033c0-0.006,0-0.01,0-0.014v-0.092l-0.046-0.045v-0.27H37.55
			v-0.319l-0.046-0.046v-0.094l-0.044-0.045V28.35c0.003-0.021-0.012-0.043-0.034-0.045c-0.004,0-0.008,0-0.012,0V28.21h-0.042
			v-0.278l-0.045-0.048V27.79H37.28c0.003-0.021-0.012-0.042-0.034-0.046c-0.003,0-0.007,0-0.011,0v-0.188H37.19v-0.129
			l-0.045-0.048v-0.187l-0.046-0.045v-0.043c-0.021,0.004-0.042-0.012-0.045-0.033c0-0.004,0-0.008,0-0.012v-0.188
			c0.003-0.021-0.013-0.044-0.036-0.046c-0.003-0.001-0.006-0.001-0.01,0v-0.095l-0.045-0.045V26.6
			c-0.021,0.004-0.041-0.012-0.044-0.033c-0.001-0.004-0.001-0.008,0-0.01v-0.095l-0.046-0.046V26.29l-0.045-0.045v-0.093
			l-0.051-0.047v-0.094h-0.046v-0.187l-0.044-0.048v-0.131L36.641,25.6v-0.093h-0.046v-0.093l-0.045-0.041v-0.141l-0.046-0.045
			v-0.095c0.003-0.021-0.012-0.043-0.034-0.046c-0.003-0.001-0.007-0.001-0.011,0v-0.188h-0.045v-0.313
			c0.002-0.021-0.013-0.041-0.035-0.045c-0.004,0-0.008,0-0.011,0v-0.138l-0.045-0.045v-0.09c-0.022,0.004-0.042-0.014-0.045-0.033
			c-0.001-0.004-0.001-0.008,0-0.012V24.05h-0.046v-0.366c-0.023,0.002-0.042-0.017-0.043-0.039c0-0.002,0-0.004,0-0.006h-0.048
			v-0.279c-0.022,0.004-0.042-0.012-0.045-0.034c0-0.005,0-0.009,0-0.013v-0.359l-0.046-0.046v-0.229l-0.047-0.047v-0.227h-0.044
			v-0.184l-0.048-0.047v-0.41c0.003-0.021-0.013-0.041-0.035-0.047c-0.003,0-0.006,0-0.01,0V21.67h-0.042v-0.412h-0.045v-0.318
			h-0.046v-0.137c0.004-0.021-0.012-0.041-0.033-0.047c-0.004-0.001-0.007-0.001-0.011,0v-0.229
			c-0.021,0.005-0.042-0.012-0.044-0.032c0-0.004,0-0.009,0-0.013v-0.137c-0.022,0.002-0.042-0.013-0.045-0.033
			c-0.001-0.004-0.001-0.008,0-0.014h-7.107v0.229l-0.046,0.047v0.044h-0.093v0.094l-0.047,0.046v0.094l-0.044,0.045
			c-0.031,0.031-0.063,0.063-0.093,0.092v0.23c-0.022-0.005-0.042,0.012-0.045,0.034c0,0.003,0,0.007,0,0.011h-0.093V21.4
			l-0.045,0.045v0.043l-0.093,0.095v0.095c-0.022-0.005-0.043,0.012-0.046,0.033c-0.001,0.004-0.001,0.008,0,0.012v0.137h-0.04V21.9
			l-0.045,0.047v0.044l-0.044,0.045v0.046c-0.023-0.003-0.043,0.014-0.045,0.035c0,0.003,0,0.006,0,0.009v0.047h-0.046v0.046
			c0.003,0.021-0.012,0.041-0.034,0.045c-0.003,0-0.007,0-0.011,0l-0.046,0.045v0.137l-0.093,0.095v0.048h-0.045v0.094
			c-0.022-0.002-0.043,0.016-0.044,0.037c0,0.004,0,0.006,0,0.01v0.043l-0.136,0.094v0.095l-0.093,0.043v0.14h-0.047v0.045h-0.042
			v0.045c0.003,0.021-0.012,0.043-0.034,0.045c-0.004,0-0.007,0-0.011,0c0.003,0.022-0.013,0.043-0.035,0.048
			c-0.004,0-0.007,0-0.011,0v0.093l-0.045,0.045v0.046l-0.045,0.046c-0.021-0.004-0.042,0.014-0.044,0.034
			c-0.001,0.003,0,0.009,0,0.013v0.045h-0.044l-0.047,0.045v0.094c0.003,0.021-0.013,0.041-0.036,0.045c-0.003,0-0.006,0-0.01,0
			c0.003,0.021-0.013,0.043-0.036,0.046c-0.003,0-0.006,0-0.01,0l-0.044,0.093v0.04c-0.022-0.004-0.042,0.013-0.044,0.034
			c-0.001,0.004,0,0.007,0,0.012V24.1l-0.046,0.045h-0.046v0.045l-0.045,0.045v0.14h-0.093v0.094
			c-0.022-0.003-0.042,0.013-0.045,0.033c-0.001,0.004-0.001,0.008,0,0.013v0.045l-0.046,0.045v0.094h-0.06v0.047l-0.045,0.044
			h-0.046v0.187c-0.022-0.002-0.043,0.012-0.046,0.035c0,0.004,0,0.006,0,0.01c-0.023-0.008-0.043,0.008-0.046,0.03
			c0,0.003,0,0.007,0,0.009v0.094l-0.045,0.045v0.046c0.004,0.021-0.01,0.042-0.032,0.046c-0.004,0.001-0.009,0.001-0.013,0.001
			v0.092l-0.046,0.048v0.092c-0.021-0.004-0.042,0.013-0.045,0.033c0,0.006,0,0.01,0,0.012v0.139
			c0.003,0.021-0.012,0.043-0.034,0.045c-0.003,0.001-0.007,0.001-0.011,0v0.188c-0.036,0.002-0.069,0.02-0.093,0.045V26.3
			l-0.044,0.046v0.094h-0.045v0.597c0.003,0.021-0.013,0.042-0.035,0.044c-0.003,0.001-0.007,0.001-0.01,0v0.045h-0.683v-0.063
			c0.002-0.022-0.014-0.043-0.037-0.045c-0.002,0-0.006,0-0.009,0l-0.045-0.045h-0.093c-0.023-0.027-0.057-0.043-0.093-0.047v-0.048
			h-0.049v-0.045h-0.136c-0.023-0.024-0.057-0.043-0.093-0.045c-0.023-0.026-0.057-0.043-0.092-0.045h-0.093v-0.048
			c-0.023-0.026-0.057-0.043-0.093-0.045h-0.093c-0.023-0.026-0.057-0.045-0.093-0.047v-0.043h-0.124v-0.047h-0.093
			c0.003-0.021-0.013-0.043-0.036-0.046c-0.003-0.001-0.007-0.001-0.01,0c-0.023-0.026-0.057-0.045-0.093-0.046h-0.093
			c-0.023-0.027-0.057-0.044-0.093-0.046V26.33h-0.13c-0.038-0.032-0.086-0.049-0.136-0.045l-0.093-0.094h-0.137l-0.046-0.045
			h-0.047c-0.021,0.004-0.042-0.013-0.044-0.033c-0.001-0.004-0.001-0.008,0-0.012l-0.093-0.047l-0.045-0.046h-0.042
			c-0.023-0.026-0.057-0.044-0.093-0.046c-0.038-0.031-0.087-0.049-0.137-0.045c-0.024-0.025-0.058-0.044-0.093-0.046l-0.046-0.045
			h-0.093c-0.022,0.003-0.042-0.015-0.045-0.035c0-0.003,0-0.007,0-0.011l-0.045-0.047h-0.039v-0.049H21.74
			c-0.036-0.002-0.069-0.018-0.093-0.043L21.554,25.6c-0.022,0.002-0.042-0.013-0.044-0.033c0-0.004,0-0.008,0-0.012h-0.134
			l-0.045-0.047h-0.093v-0.046h-0.135v-0.045h-0.044c-0.042-0.024-0.088-0.04-0.136-0.046c-0.024-0.025-0.057-0.043-0.093-0.046
			v-0.046h-0.134c0.002-0.023-0.015-0.043-0.038-0.047c-0.002,0-0.006,0-0.008,0c-0.024-0.025-0.057-0.041-0.093-0.043h-0.134
			v-0.047c-0.036-0.002-0.07-0.02-0.093-0.047h-0.043c-0.058-0.029-0.121-0.047-0.186-0.047c0.003-0.021-0.012-0.043-0.035-0.045
			c-0.001,0-0.003-0.001-0.006-0.001c-0.035-0.002-0.069-0.021-0.093-0.045V24.91h-0.092c-0.023-0.028-0.058-0.045-0.093-0.049
			h-0.093v-0.047h-0.038l-0.044-0.045V24.73h-0.138V24.59h-0.046v-0.729h0.046v-0.137c-0.003-0.022,0.011-0.043,0.033-0.047
			c0.004,0,0.008,0,0.012,0V23.54h0.045v-0.187c0.022,0.002,0.042-0.014,0.045-0.035c0-0.004,0-0.008,0-0.012h0.044
			c0.022,0.004,0.042-0.013,0.045-0.033c0.001-0.004,0.001-0.008,0-0.012V23.17l0.046-0.045v-0.041l0.045-0.046
			c-0.003-0.021,0.012-0.043,0.034-0.045c0.004-0.001,0.007-0.001,0.011,0v-0.048l0.045-0.045v-0.094h0.046v-0.043h0.044v-0.047
			l0.047-0.047v-0.089h0.045v-0.048l0.044-0.047v-0.045l0.137-0.137V22.26h0.045v-0.095l0.093-0.095h0.045
			c-0.003-0.021,0.013-0.041,0.035-0.045c0.004,0,0.007,0,0.011,0v-0.041l0.093-0.094c0.021,0.002,0.042-0.014,0.045-0.035
			c0-0.002,0-0.006,0-0.01V21.8c-0.003-0.022,0.012-0.043,0.033-0.047c0.004,0,0.008,0,0.012,0c0.032-0.028,0.063-0.062,0.092-0.093
			l0.093-0.045v-0.047l0.045-0.045c-0.003-0.021,0.012-0.043,0.034-0.045c0.004-0.002,0.008,0,0.012,0v-0.047
			c-0.003-0.021,0.012-0.041,0.034-0.045c0.004,0,0.007,0,0.011,0v-0.045h0.045v-0.048c0.036-0.001,0.069-0.019,0.092-0.044v-0.048
			c0.023,0.004,0.043-0.013,0.046-0.034c0.001-0.004,0.001-0.008,0-0.012h0.044l0.045-0.092c-0.003-0.022,0.013-0.043,0.035-0.047
			c0.004,0,0.007,0,0.011,0l0.045-0.045c-0.003-0.021,0.012-0.041,0.034-0.045c0.004,0,0.008,0,0.012,0v-0.046
			c0.022,0.002,0.043-0.014,0.046-0.034c0-0.005,0-0.009,0-0.013l0.044-0.045c0.031-0.028,0.063-0.062,0.093-0.095V20.65
			c0.024-0.026,0.058-0.043,0.093-0.045v-0.045c-0.002-0.021,0.013-0.043,0.036-0.045c0.003-0.002,0.007-0.002,0.01,0l0.045-0.047
			V20.43h0.031v-0.095c0.021,0.002,0.042-0.013,0.045-0.032c0-0.005,0-0.01,0-0.014h0.046v-0.044l0.045-0.046h0.045
			c-0.003-0.021,0.012-0.043,0.033-0.047c0.004,0,0.008,0,0.012,0v-0.045l0.137-0.14v-0.045c0.021,0.005,0.042-0.011,0.045-0.032
			c0-0.002,0-0.008,0-0.013l0.044-0.045c0.023,0.003,0.043-0.015,0.046-0.035c0-0.004,0-0.008,0-0.01h0.045l0.093-0.095
			c0.021,0.004,0.041-0.012,0.044-0.032c0.001-0.004,0.001-0.009,0-0.013v-0.045l0.046-0.047c0.022,0.004,0.042-0.012,0.045-0.033
			c0-0.004,0-0.008,0-0.012v-0.047h0.044v-0.046h0.046v-0.046l0.044-0.044c-0.003-0.022,0.012-0.044,0.035-0.048
			c0.003,0,0.007,0,0.011,0l0.046-0.045v-0.047c0.022,0.004,0.042-0.012,0.044-0.035c0-0.002,0-0.006,0-0.01
			c0.022,0.004,0.042-0.013,0.046-0.033c0-0.004,0-0.008,0-0.012v-0.094l0.046-0.046h0.045v-0.094H23v-0.093l0.045-0.045
			c0.022,0,0.042-0.015,0.045-0.037c0-0.002,0-0.006,0-0.01v-0.094l0.044-0.044c0.022,0.003,0.042-0.013,0.046-0.034
			c0-0.005,0-0.009,0-0.012v-0.188c0.023-0.025,0.057-0.043,0.093-0.045v-0.222c0.022,0.003,0.043-0.015,0.046-0.035
			c0-0.004,0-0.007,0-0.01v-0.412H23.27v-0.229c-0.023-0.027-0.057-0.043-0.093-0.045v-0.14h-0.042V17.13l-0.037-0.05v-0.04h-0.045
			l-0.187-0.187c0.003-0.021-0.013-0.042-0.035-0.044c-0.003,0-0.007,0-0.011,0l-0.044-0.046v-0.042H22.74
			c-0.024-0.027-0.057-0.044-0.093-0.046h-0.044c-0.023-0.028-0.057-0.044-0.093-0.045c0.003-0.021-0.012-0.042-0.033-0.045
			c-0.004,0-0.009,0-0.013,0h-0.043c-0.037-0.034-0.087-0.051-0.137-0.047c-0.024-0.026-0.057-0.043-0.093-0.044
			c-0.088-0.03-0.181-0.046-0.274-0.046h-0.042v-0.047h-0.093c-0.042-0.024-0.087-0.04-0.136-0.044h-0.093
			c-0.023-0.028-0.057-0.045-0.093-0.047v-0.045h-0.186c-0.058-0.03-0.121-0.045-0.187-0.045c-0.041-0.025-0.087-0.04-0.136-0.046
			H20.6v-0.186h-0.228v-1.87h-0.501v0.093h-0.318v1.553l0.044,0.045v0.64H19.37v0.138h-3.006v0.914h-0.093v0.274h-0.636v-0.043
			h-0.093v0.043c-0.078,0.004-0.155,0.02-0.228,0.045h-0.955v0.046l-0.045,0.045v0.413h-0.089v0.273l-0.045,0.047v0.138
			c-0.138,0.002-0.275,0.018-0.41,0.045h-1.14v-0.501h-0.046c-0.022-0.002-0.042,0.013-0.045,0.035c0,0.002,0,0.007,0,0.011
			c-0.03,0.03-0.062,0.062-0.093,0.093l-0.045,0.045c-0.022-0.003-0.043,0.016-0.046,0.035c0,0.004,0,0.01,0,0.012h-0.178
			c-0.028,0.021-0.045,0.057-0.047,0.094c-0.061,0-0.093,0.015-0.093,0.045c-0.042,0.023-0.088,0.041-0.137,0.045
			c-0.026,0.023-0.043,0.059-0.045,0.094c-0.022-0.003-0.042,0.014-0.045,0.036c0,0.004,0,0.007,0,0.011h-0.186
			c-0.03,0.029-0.062,0.061-0.093,0.094c-0.021-0.004-0.042,0.012-0.044,0.033c0,0.004,0,0.008,0,0.012
			c-0.024,0.025-0.057,0.041-0.093,0.045v0.095c-0.061,0-0.093,0.015-0.093,0.046c-0.05-0.005-0.099,0.012-0.137,0.045
			c-0.023,0.025-0.057,0.043-0.093,0.045v0.096c-0.05-0.007-0.099,0.012-0.136,0.045L10.89,19.48
			c-0.045,0.012-0.081,0.047-0.093,0.092c-0.022-0.002-0.043,0.012-0.046,0.035c0,0.004,0,0.008,0,0.012
			c-0.045,0.011-0.081,0.047-0.093,0.093h-0.12c-0.026,0.022-0.043,0.058-0.045,0.093l-0.045,0.045
			c-0.042,0.025-0.088,0.041-0.137,0.047c-0.027,0.022-0.042,0.059-0.044,0.095l-0.093,0.045c-0.027,0.022-0.043,0.058-0.045,0.094
			c-0.021-0.005-0.042,0.009-0.045,0.029c-0.001,0.007-0.001,0.011,0,0.015c-0.05-0.004-0.099,0.016-0.136,0.047v0.047
			c-0.023,0.023-0.057,0.043-0.093,0.045c-0.03,0.029-0.06,0.061-0.093,0.094v0.045l-0.093,0.094v0.045L9.53,20.725v0.094H8.263
			v-1.709H8.176l-0.045,0.045C8.073,19.186,8.01,19.2,7.945,19.2v0.139c-0.058,0.029-0.122,0.045-0.186,0.045
			c-0.036,0.003-0.069,0.021-0.093,0.046c0.003,0.021-0.011,0.043-0.033,0.047c-0.004,0-0.008,0-0.012,0
			c-0.038,0.031-0.087,0.049-0.137,0.045c-0.023,0.026-0.057,0.043-0.093,0.045v0.095c-0.042,0.022-0.088,0.039-0.137,0.045
			c-0.062,0-0.093,0.015-0.093,0.045c-0.032,0.031-0.063,0.063-0.093,0.093v0.047H6.975v0.094c0.003,0.021-0.012,0.043-0.034,0.047
			c-0.003,0-0.007,0-0.011,0c-0.05-0.004-0.099,0.013-0.137,0.046L6.748,20.12l-0.093,0.09L6.61,20.256v0.047H6.518
			c-0.027,0.021-0.043,0.057-0.045,0.094v0.045H6.429c-0.023,0.026-0.057,0.043-0.093,0.045c0.003,0.021-0.011,0.041-0.034,0.047
			c-0.003,0-0.008,0-0.012,0c-0.002,0.033-0.018,0.068-0.044,0.094l-0.093,0.092c-0.027,0.025-0.043,0.061-0.046,0.096
			c-0.061,0-0.093,0.014-0.093,0.045L5.968,20.9c-0.071,0.011-0.126,0.065-0.137,0.139l-0.044,0.044l-0.093,0.095v0.045
			l-0.093,0.092c0.003,0.022-0.012,0.043-0.034,0.047c-0.004,0-0.007,0-0.011,0c-0.027,0.022-0.043,0.059-0.045,0.094
			c-0.021-0.002-0.043,0.014-0.046,0.036c0,0.004,0,0.007,0,0.01c-0.027,0.022-0.044,0.06-0.045,0.093
			c-0.036,0.002-0.07,0.02-0.093,0.049v0.045c-0.028,0.021-0.045,0.057-0.045,0.092H5.199v0.094
			c-0.036,0.002-0.069,0.02-0.093,0.045c-0.002,0.036-0.019,0.068-0.046,0.094c-0.022-0.003-0.042,0.012-0.045,0.035
			c0,0.003,0,0.006,0,0.01c0.003,0.021-0.012,0.043-0.033,0.045c-0.004,0.002-0.008,0.002-0.012,0v0.094H4.926
			c-0.038,0.033-0.087,0.051-0.136,0.046v0.046c-0.001,0.035-0.018,0.068-0.045,0.093c0.003,0.021-0.012,0.044-0.035,0.048
			c-0.003,0-0.007,0-0.01,0v0.139c-0.05-0.006-0.098,0.012-0.135,0.047v0.045l-0.093,0.093v0.045
			c0.004,0.021-0.01,0.041-0.032,0.045c-0.004,0.001-0.009,0.001-0.013,0c-0.001,0.035-0.019,0.07-0.046,0.095v0.092
			c-0.059,0-0.092,0.017-0.092,0.045v0.095c-0.022-0.002-0.042,0.013-0.045,0.035c0,0.003,0,0.007,0,0.012l-0.045,0.044
			c-0.027,0.021-0.043,0.059-0.045,0.094l-0.045,0.047v0.045c-0.027,0.021-0.043,0.059-0.046,0.094v0.094
			c0,0.029-0.03,0.045-0.093,0.045v0.137c-0.002,0.037-0.019,0.069-0.045,0.095v0.106c-0.036,0-0.07,0.019-0.093,0.045v0.273H3.519
			c-0.334-0.029-0.652-0.045-0.957-0.045H2.198c-0.063,0-0.093-0.018-0.093-0.047v-0.094c-0.027-0.023-0.042-0.058-0.044-0.094
			c-0.023,0.004-0.043-0.013-0.046-0.033c-0.001-0.006-0.001-0.008,0-0.013V23.6c-0.023-0.027-0.057-0.045-0.093-0.047v-0.32
			l-0.045-0.045v-0.32l-0.093-0.045v-0.364c0.004-0.021-0.01-0.041-0.031-0.046C1.751,22.41,1.748,22.41,1.745,22.41
			c-0.002-0.035-0.018-0.067-0.045-0.092v-0.228H1.605v-0.55c-0.001-0.036-0.018-0.068-0.046-0.094v-0.316
			c-0.002-0.035-0.018-0.068-0.044-0.094c-0.022,0.004-0.042-0.014-0.045-0.034c0-0.004,0-0.007,0-0.012v-0.364l-0.053-0.044v-0.047
			L1.371,20.48v-0.914c0-0.029-0.032-0.045-0.093-0.045v-0.549c-0.022,0.004-0.042-0.016-0.044-0.035c0-0.004,0-0.008,0-0.013
			v-0.593c-0.002-0.035-0.019-0.068-0.045-0.094v-0.043L1.143,18.15v-0.5c0.002-0.022-0.013-0.043-0.036-0.047
			c-0.003,0-0.007,0-0.011,0.002v-0.043l-0.045-0.045v-0.831H0.958v-0.731c-0.027-0.024-0.044-0.058-0.046-0.093V14.31
			c-0.026-0.024-0.043-0.058-0.045-0.093l-0.041-0.044v-2.879c0.021,0.003,0.042-0.011,0.044-0.033c0.001-0.004,0.001-0.008,0-0.012
			l0.049-0.047v-0.964c0.002-0.036,0.019-0.069,0.045-0.093v-0.73C1,9.414,1.034,9.397,1.057,9.369V9.323
			c0.456,0,0.911,0.015,1.366,0.046v0.092h0.093v0.044L2.555,9.55v0.687H21.37c0.022,0.003,0.043-0.012,0.046-0.035
			c0-0.004,0-0.007,0-0.011l0.045-0.046h0.046c0.022,0.003,0.042-0.013,0.044-0.035c0-0.003,0-0.006,0-0.01v-0.047h0.093v-0.045
			l0.045-0.093h0.046l0.044-0.093h0.046l0.045-0.045l0.093-0.046V9.688c0.035-0.001,0.069-0.018,0.093-0.045l0.046-0.045h0.045
			V9.552C22.144,9.53,22.159,9.51,22.18,9.507c0.004,0,0.008,0,0.012,0h0.045V9.46l0.093-0.093c0.031-0.031,0.062-0.063,0.093-0.093
			c0.022,0.003,0.042-0.013,0.045-0.035c0-0.003,0-0.008,0-0.011l0.093-0.093c0.019-0.003,0.033-0.021,0.032-0.041h0.046
			c-0.003-0.022,0.011-0.043,0.033-0.046c0.005-0.001,0.01-0.001,0.015,0V9.002l0.093-0.045c-0.005-0.021,0.008-0.043,0.03-0.047
			c0.004-0.001,0.009-0.001,0.013-0.001h0.049l0.231-0.23V8.637h0.044l0.045-0.045h0.042c-0.003-0.022,0.013-0.043,0.035-0.046
			c0.003,0,0.006,0,0.01,0V8.5c0.023-0.027,0.057-0.044,0.093-0.046c0.023-0.027,0.057-0.044,0.093-0.045
			c0.036-0.002,0.07-0.018,0.093-0.044l0.093-0.093h0.136V7.858c0.036-0.002,0.069-0.018,0.093-0.044V7.678h0.629v0.093h6.65V7.357
			c0.003-0.022-0.012-0.042-0.034-0.045c-0.003,0-0.007,0-0.011,0V7.265L31.077,7.22V6.535h-0.319v0.458
			c-0.021-0.003-0.042,0.012-0.045,0.033c0,0.004,0,0.007,0,0.011h-0.637V6.851l-0.045-0.045V6.535h-1.822v0.411h-0.045v0.093
			h-0.633V6.717h-0.093V2.738h0.093V2.552l0.045-0.045V2.462l0,0H27.569z M43.378,16.228l0.044-0.046h-0.044V16.228z M34.353,17.051
			h-2.868v0.045l-0.045,0.093h-0.045v0.137c-0.022-0.003-0.042,0.013-0.045,0.034c0,0.004,0,0.007,0,0.011v0.186l-0.045,0.047v0.137
			h-0.046v0.188c0.004,0.021-0.011,0.043-0.033,0.045c-0.003,0.002-0.007,0.002-0.012,0v0.688h0.044v0.094l0.046,0.045v0.096h0.045
			v0.186h0.045v0.596h2.597v-0.279h0.05V19.34c0.022,0.002,0.042-0.016,0.044-0.037c0-0.003,0-0.007,0-0.01h0.045l0.093-0.094h0.045
			v-0.045l0.093-0.043c-0.003-0.023,0.014-0.045,0.037-0.047c0.003-0.002,0.006-0.002,0.01,0l0.093-0.096h0.125l0.045-0.045
			c-0.003-0.021,0.013-0.043,0.034-0.045c0.004-0.001,0.007-0.001,0.011,0l0.093-0.093c0.023,0.003,0.043-0.013,0.046-0.036
			c0.001-0.003,0.001-0.006,0-0.012c0.036-0.002,0.07-0.018,0.093-0.045V18.65h0.093v-0.047c0.021,0.004,0.042-0.013,0.045-0.033
			c0.001-0.004,0.001-0.008,0-0.012h0.093v-0.824l-0.046-0.045c0.003-0.022-0.013-0.043-0.034-0.045c-0.004,0-0.007,0-0.01,0
			c0.003-0.022-0.012-0.043-0.034-0.045c-0.004,0-0.008,0-0.012,0l-0.092-0.045c-0.036-0.002-0.07-0.02-0.093-0.046v-0.046
			c-0.022,0.002-0.043-0.013-0.046-0.035c0-0.004,0-0.007,0-0.011h-0.049c-0.023-0.027-0.057-0.044-0.093-0.046V17.28
			c-0.036-0.002-0.07-0.019-0.093-0.046c-0.021,0.003-0.042-0.011-0.044-0.032c0-0.004,0-0.008,0-0.013l-0.044-0.045h-0.042
			l-0.044-0.049c0.002-0.022-0.014-0.042-0.037-0.045c-0.003,0-0.007,0-0.011,0L34.353,17.051L34.353,17.051z M29.569,17.738
			c-0.021,0.002-0.042-0.014-0.045-0.035c0-0.004,0-0.008,0-0.012c-0.021,0.002-0.042-0.012-0.045-0.033c0-0.004,0-0.008,0-0.014
			V17.6h-0.315v1.371l0.044,0.047c0.022-0.006,0.043,0.01,0.046,0.031c0.001,0.004,0.001,0.01,0,0.014h0.041v0.092h0.045V19.2
			l0.048,0.046v0.046h0.093v0.046l0.093,0.044h0.046v0.046c0.023,0.027,0.057,0.045,0.093,0.047h0.045v0.043h0.04l0.093,0.045v0.095
			h0.638v-0.095h-0.093v-0.092c-0.021,0.002-0.041-0.013-0.045-0.033c0-0.004,0-0.01,0-0.014v-0.04h-0.046v-0.045
			c-0.022,0.002-0.042-0.015-0.045-0.036c0-0.004,0-0.008,0-0.011h-0.047v-0.095l-0.044-0.045v-0.092
			c-0.036-0.002-0.069-0.021-0.093-0.047V18.88h-0.043v-0.137l-0.046-0.048v-0.094l-0.093-0.094v-0.042h-0.047v-0.045
			c-0.029-0.032-0.061-0.063-0.092-0.093v-0.094l-0.045-0.045v-0.045h-0.04v-0.094l-0.046-0.046v-0.092H29.62v-0.04
			c-0.022,0.003-0.042-0.012-0.045-0.033c0-0.005,0-0.009,0-0.013v-0.093l0,0L29.569,17.738z"/>
	</defs>
	<clipPath id="sg556_3_">
		<use xlink:href="#sg556_1_"  overflow="visible"/>
	</clipPath>
	
		<linearGradient id="SVGID_1_" gradientUnits="userSpaceOnUse" x1="-1133.6743" y1="-843.0498" x2="-1088.1436" y2="-843.0498" gradientTransform="matrix(0.998 -0.0625 0.0625 0.998 1182.9778 783.8026)">
		<stop  offset="0" style="stop-color:#FFFF13"/>
		<stop  offset="1" style="stop-color:#7411C3"/>
	</linearGradient>
	<path clip-path="url(#sg556_3_)" fill="url(#SVGID_1_)" d="M6.725,11.622L18.065,5.58L3.242,15.039l0.544,0.889
		c0,0,28.675-18.854,37.51-21.469c0,0-24.502,15.325-29.156,20.093c0,0,13.448-9.158,17.85-11.281L24.884,7.5l2.087-1.197
		l-4.633,3.985c0,0,8.712-6.801,18.08-9.804l3.509,3.688c0,0-7.874,0.139-18.657,13.961c0,0,4.009-6.148,5.891-8.398
		c0,0-7.489,5.16-15.068,12.244l5.673-6.326c0,0-5.923,4.565-9.842,9.928c0,0,5.677-9.594,20.549-19.41
		c0,0-8.153,2.359-24.858,15.204c0,0,14.581-8.874,15.318-9.347c0.67-0.467-18.496,13.17-20.502,16.78
		c-2.215,3.621-3.487-14.492-3.487-14.492L6.725,11.622z"/>
</g>
</svg>
