<?xml version="1.0" encoding="utf-8"?>
<!-- Generator: Adobe Illustrator 16.0.0, SVG Export Plug-In . SVG Version: 6.00 Build 0)  -->
<!DOCTYPE svg PUBLIC "-//W3C//DTD SVG 1.1//EN" "http://www.w3.org/Graphics/SVG/1.1/DTD/svg11.dtd">
<svg version="1.1" id="tc" xmlns="http://www.w3.org/2000/svg" xmlns:xlink="http://www.w3.org/1999/xlink" x="0px" y="0px"
	 width="92px" height="36px" viewBox="0 0 92 36" enable-background="new 0 0 92 36" xml:space="preserve">
<linearGradient id="shape1_1_" gradientUnits="userSpaceOnUse" x1="-117.3726" y1="1382.9805" x2="-26.8691" y2="1382.9805" gradientTransform="matrix(1 0 0 1 118.04 -1365.1309)">
	<stop  offset="0" style="stop-color:#DC4A49"/>
	<stop  offset="0.3011" style="stop-color:#BE2126"/>
	<stop  offset="0.7419" style="stop-color:#E10414"/>
	<stop  offset="1" style="stop-color:#FEB243"/>
</linearGradient>
<path id="shape1" fill="url(#shape1_1_)" d="M2.752,24.323C2.51,24.291,2.278,24.208,2.07,24.08
	c-0.215-0.107-0.381-0.294-0.464-0.52C1.51,23.377,1.46,23.176,1.463,22.97c-0.027-0.237,0.023-0.479,0.143-0.688
	c0.106-0.212,0.252-0.399,0.43-0.556c0.249-0.148,0.532-0.233,0.822-0.244c0.348-0.002,0.687,0.104,0.967,0.313
	c0.19,0.159,0.337,0.362,0.429,0.594c0.101,0.202,0.137,0.43,0.108,0.654C4.331,23.286,4.23,23.514,4.074,23.7
	c-0.155,0.183-0.35,0.323-0.571,0.414c-0.195,0.139-0.426,0.213-0.663,0.213C2.811,24.327,2.781,24.325,2.752,24.323 M37.251,9.657
	c-5.637,0.093-10.271,0.348-13.9,0.763s-7.081,0.945-10.354,1.59c-1.002,0.208-1.934,0.414-2.792,0.622l-1.898,0.312l-0.61,0.414
	l-0.68-0.206v0.24c-0.041,0.151-0.145,0.277-0.287,0.345c-0.195,0.073-0.408,0.085-0.61,0.035c-0.36-0.044-0.55-0.069-0.573-0.069
	c-0.127-0.005-0.253,0.031-0.358,0.104c-0.164,0.101-0.311,0.23-0.432,0.38c-0.717,1.04-1.363,2.126-1.936,3.251
	c-1.073,1.958-1.695,3.16-1.863,3.596c-0.103,0.259-0.187,0.522-0.249,0.795c0,0.093-0.013,0.358-0.036,0.797
	c-0.025,0.366,0.036,0.733,0.177,1.072c0.089,0.255,0.228,0.489,0.406,0.692c0.125,0.211,0.313,0.381,0.537,0.479
	c0.316,0.212,0.668,0.361,1.04,0.449c0.398,0.113,0.819,0.113,1.218,0c0.406-0.092,0.804-0.221,1.188-0.383
	c0.287-0.092,1.23-0.496,2.828-1.211c1.53-0.688,2.378-1.059,2.545-1.104c0.213-0.066,1.061-0.217,2.542-0.449
	c1.194-0.186,2.449-0.355,3.761-0.518c1.456-0.188,4.046-0.404,7.771-0.658c1.124-0.092,2.366-0.161,3.728-0.206
	c0.989-0.083,1.983-0.083,2.973,0c0.131,0.063,0.252,0.144,0.359,0.24c0.098,0.069,0.248,0.196,0.463,0.379
	c0.279,0.274,0.649,0.437,1.04,0.452c0.141-0.028,0.285-0.041,0.428-0.036c0.102,0.005,0.201-0.021,0.289-0.065
	c0.419-0.214,0.817-0.47,1.182-0.763c0.592-0.493,1.256-0.894,1.971-1.177c0.781-0.297,1.604-0.473,2.438-0.519
	c0.895-0.055,1.792,0.052,2.65,0.312c0.869,0.289,1.697,0.685,2.468,1.177c0.823,0.627,1.404,1.519,1.646,2.521
	c0.179,0.563,0.299,1.146,0.359,1.731l0.639,0.173l0.361-0.449l0.606,0.031l0.501,0.625v0.655h7.416
	c5.373-0.046,9.109-0.149,11.211-0.312c2.398-0.173,4.781-0.521,7.131-1.037c2.484-0.569,4.916-1.349,7.27-2.318
	c2.396-0.996,4.627-2.337,6.629-3.978c0.979-0.723,1.894-1.534,2.728-2.419c-0.671-0.275-1.459-0.599-2.362-0.972
	c-1.431-0.607-2.89-1.138-4.371-1.59c-1.172-0.391-2.771-0.875-4.804-1.453c-1.839-0.48-2.899-0.757-3.188-0.828
	c-0.176-0.035-0.355-0.058-0.537-0.069c-0.137,0.01-0.271,0.044-0.393,0.103c-0.179,0.01-0.322,0.137-0.357,0.31
	c-0.049,0.096-0.049,0.211,0,0.31c0.082,0.114,0.216,0.18,0.357,0.174c0.572,0.209,0.957,0.336,1.146,0.382
	c0.644,0.229,1.267,0.506,1.864,0.832c0.396,0.204,0.75,0.486,1.035,0.829c0.105,0.24,0.155,0.501,0.146,0.764
	c-0.021,0.36-0.226,0.684-0.536,0.862c-0.447,0.245-0.973,0.319-1.47,0.208c-0.194-0.048-0.388-0.106-0.575-0.174l-0.247-0.069
	c-1.315-0.458-2.772-0.93-4.373-1.417c-3.128-0.989-5.351-1.625-6.663-1.904c-1.291-0.3-2.736-0.578-4.338-0.83l-2.04-0.347
	l-0.788,0.347l-0.609-0.556l-0.932,0.347l-0.714-0.52L55.486,11.1l-0.646-0.587l-0.753,0.345l-0.569-0.517l-0.752,0.344
	l-0.822-0.481l-0.684,0.345l-0.789-0.448l-0.75,0.414l-0.716-0.588l-0.858,0.415l-0.682-0.553L46.85,10.28l-0.822-0.484
	l-0.823,0.416l-0.611-0.556c-1.05-0.023-2.188-0.034-3.41-0.034C39.958,9.623,38.648,9.634,37.251,9.657"/>
<g>
	<defs>
		<path id="SVGID_1_" d="M2.752,24.323C2.51,24.291,2.278,24.208,2.07,24.08c-0.215-0.107-0.381-0.294-0.464-0.52
			C1.51,23.377,1.46,23.176,1.463,22.97c-0.027-0.237,0.023-0.479,0.143-0.688c0.106-0.212,0.252-0.399,0.43-0.556
			c0.249-0.148,0.532-0.233,0.822-0.244c0.348-0.002,0.687,0.104,0.967,0.313c0.19,0.159,0.337,0.362,0.429,0.594
			c0.101,0.202,0.137,0.43,0.108,0.654C4.331,23.286,4.23,23.514,4.074,23.7c-0.155,0.183-0.35,0.323-0.571,0.414
			c-0.195,0.139-0.426,0.213-0.663,0.213C2.811,24.327,2.781,24.325,2.752,24.323 M37.251,9.657
			c-5.637,0.093-10.271,0.348-13.9,0.763s-7.081,0.945-10.354,1.59c-1.002,0.208-1.934,0.414-2.792,0.622l-1.898,0.312l-0.61,0.414
			l-0.68-0.206v0.24c-0.041,0.151-0.145,0.277-0.287,0.345c-0.195,0.073-0.408,0.085-0.61,0.035c-0.36-0.044-0.55-0.069-0.573-0.069
			c-0.127-0.005-0.253,0.031-0.358,0.104c-0.164,0.101-0.311,0.23-0.432,0.38c-0.717,1.04-1.363,2.126-1.936,3.251
			c-1.073,1.958-1.695,3.16-1.863,3.596c-0.103,0.259-0.187,0.522-0.249,0.795c0,0.093-0.013,0.358-0.036,0.797
			c-0.025,0.366,0.036,0.733,0.177,1.072c0.089,0.255,0.228,0.489,0.406,0.692c0.125,0.211,0.313,0.381,0.537,0.479
			c0.316,0.212,0.668,0.361,1.04,0.449c0.398,0.113,0.819,0.113,1.218,0c0.406-0.092,0.804-0.221,1.188-0.383
			c0.287-0.092,1.23-0.496,2.828-1.211c1.53-0.688,2.378-1.059,2.545-1.104c0.213-0.066,1.061-0.217,2.542-0.449
			c1.194-0.186,2.449-0.355,3.761-0.518c1.456-0.188,4.046-0.404,7.771-0.658c1.124-0.092,2.366-0.161,3.728-0.206
			c0.989-0.083,1.983-0.083,2.973,0c0.131,0.063,0.252,0.144,0.359,0.24c0.098,0.069,0.248,0.196,0.463,0.379
			c0.279,0.274,0.649,0.437,1.04,0.452c0.141-0.028,0.285-0.041,0.428-0.036c0.102,0.005,0.201-0.021,0.289-0.065
			c0.419-0.214,0.817-0.47,1.182-0.763c0.592-0.493,1.256-0.894,1.971-1.177c0.781-0.297,1.604-0.473,2.438-0.519
			c0.895-0.055,1.792,0.052,2.65,0.312c0.869,0.289,1.697,0.685,2.468,1.177c0.823,0.627,1.404,1.519,1.646,2.521
			c0.179,0.563,0.299,1.146,0.359,1.731l0.639,0.173l0.361-0.449l0.606,0.031l0.501,0.625v0.655h7.416
			c5.373-0.046,9.109-0.149,11.211-0.312c2.398-0.173,4.781-0.521,7.131-1.037c2.484-0.569,4.916-1.349,7.27-2.318
			c2.396-0.996,4.627-2.337,6.629-3.978c0.979-0.723,1.894-1.534,2.728-2.419c-0.671-0.275-1.459-0.599-2.362-0.972
			c-1.431-0.607-2.89-1.138-4.371-1.59c-1.172-0.391-2.771-0.875-4.804-1.453c-1.839-0.48-2.899-0.757-3.188-0.828
			c-0.176-0.035-0.355-0.058-0.537-0.069c-0.137,0.01-0.271,0.044-0.393,0.103c-0.179,0.01-0.322,0.137-0.357,0.31
			c-0.049,0.096-0.049,0.211,0,0.31c0.082,0.114,0.216,0.18,0.357,0.174c0.572,0.209,0.957,0.336,1.146,0.382
			c0.644,0.229,1.267,0.506,1.864,0.832c0.396,0.204,0.75,0.486,1.035,0.829c0.105,0.24,0.155,0.501,0.146,0.764
			c-0.021,0.36-0.226,0.684-0.536,0.862c-0.447,0.245-0.973,0.319-1.47,0.208c-0.194-0.048-0.388-0.106-0.575-0.174l-0.247-0.069
			c-1.315-0.458-2.772-0.93-4.373-1.417c-3.128-0.989-5.351-1.625-6.663-1.904c-1.291-0.3-2.736-0.578-4.338-0.83l-2.04-0.347
			l-0.788,0.347l-0.609-0.556l-0.932,0.347l-0.714-0.52L55.486,11.1l-0.646-0.587l-0.753,0.345l-0.569-0.517l-0.752,0.344
			l-0.822-0.481l-0.684,0.345l-0.789-0.448l-0.75,0.414l-0.716-0.588l-0.858,0.415l-0.682-0.553L46.85,10.28l-0.822-0.484
			l-0.823,0.416l-0.611-0.556c-1.05-0.023-2.188-0.034-3.41-0.034C39.958,9.623,38.648,9.634,37.251,9.657"/>
	</defs>
	<clipPath id="SVGID_2_">
		<use xlink:href="#SVGID_1_"  overflow="visible"/>
	</clipPath>
	<g clip-path="url(#SVGID_2_)">
		<g>
			
				<linearGradient id="SVGID_3_" gradientUnits="userSpaceOnUse" x1="-811.7881" y1="3.8242" x2="-750.7534" y2="3.8242" gradientTransform="matrix(-1 0 0 -1 -752.7783 19.3398)">
				<stop  offset="0" style="stop-color:#F2E2C8;stop-opacity:0"/>
				<stop  offset="0.9194" style="stop-color:#FEB243;stop-opacity:0.8"/>
			</linearGradient>
			<path fill="url(#SVGID_3_)" d="M33.117,12.088l1.59,0.925c-0.154,0.737,1.71,2.339,1.71,2.339L25.2,9.427l-8.537,1.444
				l23.642,10.514l-12.219-7.251l15.816,5.208l6.834,4.585l2.037-4.405l-2.982,0.025L33.117,12.088z M17.702,19.268
				c-0.207-1.034-2-1.393-2-1.393l-3.915-1.305l-0.695-0.608c-0.338-0.497-2.871-1.827-2.871-1.827
				c0.84,0.457,6.263,1.392,6.263,1.392c1.398,1.379,4.523,1.217,4.523,1.217l-4.872-2.609l-7.306-4.001l-0.958-0.087L5.586,7.945
				L3.932,7.614l-5.957,8.935L4.5,31.031l16.308-0.252l-7.456-4.64l5.568,0.436l7.844,4.204L33,25.614l-7.083-0.666
				C22.565,21.583,17.702,19.268,17.702,19.268z M39.494,9.858l-1.158-0.992L59.01,20.178l-2.74-5.875
				c-0.504-0.106-5.627-2.579-5.627-2.579c-1.808-0.362-5.734-2.906-5.734-2.906H38.28L27.989,0l-1.958,3.134l8.292,5.302
				L39.494,9.858z"/>
		</g>
	</g>
</g>
</svg>
