<?xml version="1.0" encoding="utf-8"?>
<!-- Generator: Adobe Illustrator 16.0.0, SVG Export Plug-In . SVG Version: 6.00 Build 0)  -->
<!DOCTYPE svg PUBLIC "-//W3C//DTD SVG 1.1//EN" "http://www.w3.org/Graphics/SVG/1.1/DTD/svg11.dtd">
<svg version="1.1" id="tc" xmlns="http://www.w3.org/2000/svg" xmlns:xlink="http://www.w3.org/1999/xlink" x="0px" y="0px"
	 width="92px" height="36px" viewBox="0 0 92 36" enable-background="new 0 0 92 36" xml:space="preserve">
<linearGradient id="shape1_1_" gradientUnits="userSpaceOnUse" x1="-116.54" y1="1382.1299" x2="-26.873" y2="1382.1299" gradientTransform="matrix(1 0 0 1 118.04 -1365.1309)">
	<stop  offset="0" style="stop-color:#DC4A49"/>
	<stop  offset="0.3011" style="stop-color:#BE2126"/>
	<stop  offset="0.7419" style="stop-color:#E10414"/>
	<stop  offset="1" style="stop-color:#FEB243"/>
</linearGradient>
<path id="shape1" fill="url(#shape1_1_)" d="M10.686,31.939c-0.924-0.211-1.795-0.609-2.557-1.176
	C7.44,30.32,6.898,29.682,6.57,28.932C6.334,28.416,6.144,27.881,6,27.334c-0.128-0.619-0.128-1.258,0-1.877
	c0.097-0.619,0.239-1.232,0.422-1.834c0.221-0.512,0.543-0.975,0.949-1.361c0.458-0.463,0.966-0.873,1.514-1.223
	c0.42-0.301,0.908-0.494,1.421-0.563c0.564-0.063,1.133-0.078,1.701-0.057c0.779,0.055,1.53,0.313,2.175,0.752
	c0.827,0.563,1.521,1.305,2.037,2.158c0.525,0.813,0.805,1.758,0.803,2.729c0.021,0.823-0.091,1.649-0.33,2.442
	c-0.309,0.709-0.759,1.351-1.324,1.875c-0.594,0.584-1.305,1.033-2.085,1.317c-0.559,0.209-1.147,0.313-1.74,0.313
	C11.256,32.014,10.97,31.988,10.686,31.939 M52.799,0.316l-2.936,0.376c-0.36,0.443-0.793,0.826-1.278,1.131
	c-1.399,0.895-2.957,1.515-4.588,1.829c-1.452,0.269-2.93,0.366-4.406,0.288c-0.535-0.038-1.07-0.08-1.607-0.142L37.32,3.751
	L36.66,3.94l-1.42-0.657c-1.101,0.215-2.35,0.517-3.738,0.892c-2.219,0.541-4.398,1.23-6.525,2.062
	c-1.733,0.718-3.424,1.533-5.064,2.443L17.688,9.9l-0.094,0.331c-0.189,0.093-0.376,0.188-0.57,0.281
	c-0.241,0.085-0.464,0.214-0.659,0.378c-0.071,0.087-0.135,0.18-0.188,0.279c-0.122,0.157-0.236,0.298-0.331,0.422
	c-0.107,0.088-0.241,0.139-0.379,0.142h-0.33c-0.348-0.003-0.679,0.153-0.899,0.423c-0.105,0.168-0.14,0.37-0.098,0.563
	c0.026,0.166-0.047,0.332-0.188,0.423c-0.03,0.032-0.08,0.015-0.142-0.047c-0.091-0.042-0.187-0.073-0.285-0.094
	c-0.269-0.092-0.564-0.058-0.805,0.094c-0.249,0.122-0.399,0.383-0.378,0.659c0.02,0.265-0.084,0.525-0.284,0.702
	c-0.104,0.088-0.245,0.125-0.379,0.096c-0.143-0.021-0.275-0.088-0.38-0.188c-0.269-0.19-0.629-0.19-0.897,0
	c-0.202,0.166-0.337,0.4-0.379,0.658c-0.035,0.248-0.116,0.488-0.238,0.706c-0.063,0.126-0.219,0.143-0.471,0.051
	c-0.171-0.061-0.344-0.109-0.521-0.146c-0.229-0.017-0.439,0.119-0.521,0.332c-0.029,0.126-0.012,0.259,0.047,0.374
	c-0.047,0.248-0.229,0.449-0.471,0.521C7.694,16.96,7.51,17.01,7.327,17c-0.203-0.03-0.41-0.03-0.613,0
	c-0.367,0.304-0.631,0.715-0.76,1.174c-0.125,0.376-0.239,0.75-0.333,1.131l0.521,0.562l-0.992,0.52l-0.474,1.648
	c-0.38,1.278-0.682,2.315-0.902,3.1c-0.295,1.062-0.74,2.07-1.323,3.002C2.105,28.73,1.788,29.23,1.5,29.637l0.188,0.471l2.931,0.66
	l0.663,0.469c0.565,0.348,1.12,0.676,1.655,0.984c1.3,0.781,2.752,1.281,4.259,1.461c0.036,0,0.072,0,0.107,0h0.03
	c1.154-0.002,2.293-0.271,3.324-0.799c0.752-0.311,1.442-0.754,2.034-1.314c0.536-0.563,0.998-1.191,1.376-1.877
	c0.479-0.707,0.844-1.48,1.087-2.305c0.099-0.525,0.147-1.059,0.143-1.596v-0.752l0.142,0.094c0.149,0,0.282-0.096,0.33-0.236
	c0.027-0.096,0.111-0.277,0.236-0.563c0.189-0.346,0.362-0.643,0.521-0.893c0.432-0.74,1.031-1.369,1.75-1.834
	c0.882-0.428,1.863-0.607,2.84-0.521c0.631,0.037,1.196,0.08,1.701,0.141l0.24-0.416c0.202-0.367,0.441-0.713,0.71-1.035
	c0.74-1.028,1.732-1.854,2.882-2.396c1.271-0.59,2.689-0.785,4.072-0.563c0.582,0.058,1.146,0.235,1.656,0.521l0.379-0.755
	c0.333-0.547,0.729-1.053,1.181-1.506c1.243-1.406,3.11-2.094,4.968-1.83c1.473,0.225,2.797,1.02,3.689,2.214
	c0.618,0.685,1.1,1.481,1.422,2.347c0.188,0.469,0.297,0.738,0.332,0.797c0.065,0.229,0.245,0.402,0.473,0.473
	c0.477-0.082,0.938-0.227,1.371-0.426c0.474-0.188,0.933-0.405,1.373-0.652c0.135-0.139,0.188-0.335,0.146-0.521l-0.102-0.33
	l0.951-0.375c0.818-0.283,1.701-0.549,2.646-0.799c2.843-0.769,5.768-1.194,8.709-1.27h2.414c0.889,0.03,1.771,0.108,2.648,0.234
	c2.851,0.546,5.639,1.365,8.33,2.444c3.867,1.537,7.381,3.856,10.313,6.813c1.328,1.3,2.518,2.729,3.546,4.272
	c-0.228-1.457-0.642-2.879-1.229-4.231c-1.519-3.687-3.629-7.102-6.244-10.104c-1.127-1.274-2.344-2.468-3.641-3.57
	c-1.263-1.032-2.494-1.955-3.695-2.77c-1.416-0.955-2.92-1.771-4.489-2.438c-1.875-0.845-3.808-1.566-5.771-2.162
	c-1.979-0.519-3.984-0.911-6.014-1.175L53.367,1.49L53.32,0.975L52.799,0.316z"/>
<g>
	<defs>
		<path id="SVGID_1_" d="M10.686,31.939c-0.924-0.211-1.795-0.609-2.557-1.176C7.44,30.32,6.898,29.682,6.57,28.932
			C6.334,28.416,6.144,27.881,6,27.334c-0.128-0.619-0.128-1.258,0-1.877c0.097-0.619,0.239-1.232,0.422-1.834
			c0.221-0.512,0.543-0.975,0.949-1.361c0.458-0.463,0.966-0.873,1.514-1.223c0.42-0.301,0.908-0.494,1.421-0.563
			c0.564-0.063,1.133-0.078,1.701-0.057c0.779,0.055,1.53,0.313,2.175,0.752c0.827,0.563,1.521,1.305,2.037,2.158
			c0.525,0.813,0.805,1.758,0.803,2.729c0.021,0.823-0.091,1.649-0.33,2.442c-0.309,0.709-0.759,1.351-1.324,1.875
			c-0.594,0.584-1.305,1.033-2.085,1.317c-0.559,0.209-1.147,0.313-1.74,0.313C11.256,32.014,10.97,31.988,10.686,31.939
			 M52.799,0.316l-2.936,0.376c-0.36,0.443-0.793,0.826-1.278,1.131c-1.399,0.895-2.957,1.515-4.588,1.829
			c-1.452,0.269-2.93,0.366-4.406,0.288c-0.535-0.038-1.07-0.08-1.607-0.142L37.32,3.751L36.66,3.94l-1.42-0.657
			c-1.101,0.215-2.35,0.517-3.738,0.892c-2.219,0.541-4.398,1.23-6.525,2.062c-1.733,0.718-3.424,1.533-5.064,2.443L17.688,9.9
			l-0.094,0.331c-0.189,0.093-0.376,0.188-0.57,0.281c-0.241,0.085-0.464,0.214-0.659,0.378c-0.071,0.087-0.135,0.18-0.188,0.279
			c-0.122,0.157-0.236,0.298-0.331,0.422c-0.107,0.088-0.241,0.139-0.379,0.142h-0.33c-0.348-0.003-0.679,0.153-0.899,0.423
			c-0.105,0.168-0.14,0.37-0.098,0.563c0.026,0.166-0.047,0.332-0.188,0.423c-0.03,0.032-0.08,0.015-0.142-0.047
			c-0.091-0.042-0.187-0.073-0.285-0.094c-0.269-0.092-0.564-0.058-0.805,0.094c-0.249,0.122-0.399,0.383-0.378,0.659
			c0.02,0.265-0.084,0.525-0.284,0.702c-0.104,0.088-0.245,0.125-0.379,0.096c-0.143-0.021-0.275-0.088-0.38-0.188
			c-0.269-0.19-0.629-0.19-0.897,0c-0.202,0.166-0.337,0.4-0.379,0.658c-0.035,0.248-0.116,0.488-0.238,0.706
			c-0.063,0.126-0.219,0.143-0.471,0.051c-0.171-0.061-0.344-0.109-0.521-0.146c-0.229-0.017-0.439,0.119-0.521,0.332
			c-0.029,0.126-0.012,0.259,0.047,0.374c-0.047,0.248-0.229,0.449-0.471,0.521C7.694,16.96,7.51,17.01,7.327,17
			c-0.203-0.03-0.41-0.03-0.613,0c-0.367,0.304-0.631,0.715-0.76,1.174c-0.125,0.376-0.239,0.75-0.333,1.131l0.521,0.562
			l-0.992,0.52l-0.474,1.648c-0.38,1.278-0.682,2.315-0.902,3.1c-0.295,1.062-0.74,2.07-1.323,3.002
			C2.105,28.73,1.788,29.23,1.5,29.637l0.188,0.471l2.931,0.66l0.663,0.469c0.565,0.348,1.12,0.676,1.655,0.984
			c1.3,0.781,2.752,1.281,4.259,1.461c0.036,0,0.072,0,0.107,0h0.03c1.154-0.002,2.293-0.271,3.324-0.799
			c0.752-0.311,1.442-0.754,2.034-1.314c0.536-0.563,0.998-1.191,1.376-1.877c0.479-0.707,0.844-1.48,1.087-2.305
			c0.099-0.525,0.147-1.059,0.143-1.596v-0.752l0.142,0.094c0.149,0,0.282-0.096,0.33-0.236c0.027-0.096,0.111-0.277,0.236-0.563
			c0.189-0.346,0.362-0.643,0.521-0.893c0.432-0.74,1.031-1.369,1.75-1.834c0.882-0.428,1.863-0.607,2.84-0.521
			c0.631,0.037,1.196,0.08,1.701,0.141l0.24-0.416c0.202-0.367,0.441-0.713,0.71-1.035c0.74-1.028,1.732-1.854,2.882-2.396
			c1.271-0.59,2.689-0.785,4.072-0.563c0.582,0.058,1.146,0.235,1.656,0.521l0.379-0.755c0.333-0.547,0.729-1.053,1.181-1.506
			c1.243-1.406,3.11-2.094,4.968-1.83c1.473,0.225,2.797,1.02,3.689,2.214c0.618,0.685,1.1,1.481,1.422,2.347
			c0.188,0.469,0.297,0.738,0.332,0.797c0.065,0.229,0.245,0.402,0.473,0.473c0.477-0.082,0.938-0.227,1.371-0.426
			c0.474-0.188,0.933-0.405,1.373-0.652c0.135-0.139,0.188-0.335,0.146-0.521l-0.102-0.33l0.951-0.375
			c0.818-0.283,1.701-0.549,2.646-0.799c2.843-0.769,5.768-1.194,8.709-1.27h2.414c0.889,0.03,1.771,0.108,2.648,0.234
			c2.851,0.546,5.639,1.365,8.33,2.444c3.867,1.537,7.381,3.856,10.313,6.813c1.328,1.3,2.518,2.729,3.546,4.272
			c-0.228-1.457-0.642-2.879-1.229-4.231c-1.519-3.687-3.629-7.102-6.244-10.104c-1.127-1.274-2.344-2.468-3.641-3.57
			c-1.263-1.032-2.494-1.955-3.695-2.77c-1.416-0.955-2.92-1.771-4.489-2.438c-1.875-0.845-3.808-1.566-5.771-2.162
			c-1.979-0.519-3.984-0.911-6.014-1.175L53.367,1.49L53.32,0.975L52.799,0.316z"/>
	</defs>
	<clipPath id="SVGID_2_">
		<use xlink:href="#SVGID_1_"  overflow="visible"/>
	</clipPath>
	<g clip-path="url(#SVGID_2_)">
		<g>
			
				<linearGradient id="SVGID_3_" gradientUnits="userSpaceOnUse" x1="-806.6064" y1="2.3408" x2="-745.5713" y2="2.3408" gradientTransform="matrix(-1 0 0 -1 -752.7783 19.3398)">
				<stop  offset="0" style="stop-color:#F2E2C8;stop-opacity:0"/>
				<stop  offset="0.9194" style="stop-color:#FEB243;stop-opacity:0.8"/>
			</linearGradient>
			<path fill="url(#SVGID_3_)" d="M27.935,13.572l1.59,0.925c-0.154,0.737,1.71,2.339,1.71,2.339l-11.217-5.925l-8.537,1.444
				l23.642,10.513l-12.219-7.25l15.816,5.209l6.834,4.584l2.038-4.405l-2.983,0.026L27.935,13.572z M12.52,20.752
				c-0.207-1.035-2-1.394-2-1.394l-3.915-1.305L5.91,17.446c-0.338-0.497-2.871-1.827-2.871-1.827
				c0.84,0.457,6.263,1.392,6.263,1.392c1.398,1.379,4.523,1.217,4.523,1.217l-4.872-2.609l-7.306-4.001l-0.958-0.087L0.404,9.429
				L-1.25,9.098l-5.957,8.935l6.525,14.482l16.308-0.252l-7.456-4.64l5.568,0.436l7.844,4.204l6.236-5.165l-7.083-0.666
				C17.383,23.066,12.52,20.752,12.52,20.752z M34.312,11.342l-1.158-0.992L53.828,21.66l-2.74-5.875
				c-0.504-0.106-5.627-2.579-5.627-2.579c-1.808-0.362-5.734-2.906-5.734-2.906h-6.628L22.807,1.483l-1.958,3.134l8.292,5.302
				L34.312,11.342z"/>
		</g>
	</g>
</g>
</svg>
