<?xml version="1.0" encoding="utf-8"?>
<!-- Generator: Adobe Illustrator 16.0.0, SVG Export Plug-In . SVG Version: 6.00 Build 0)  -->
<!DOCTYPE svg PUBLIC "-//W3C//DTD SVG 1.1//EN" "http://www.w3.org/Graphics/SVG/1.1/DTD/svg11.dtd">
<svg version="1.1" id="case1" xmlns="http://www.w3.org/2000/svg" xmlns:xlink="http://www.w3.org/1999/xlink" x="0px" y="0px"
	 width="92px" height="36px" viewBox="0 0 92 36" enable-background="new 0 0 92 36" xml:space="preserve">
<linearGradient id="shape_1_" gradientUnits="userSpaceOnUse" x1="-124.4648" y1="2209.2959" x2="-36.2544" y2="2209.2959" gradientTransform="matrix(1 0 0 1 126.3599 -2194.9961)">
	<stop  offset="0" style="stop-color:#DC4A49"/>
	<stop  offset="0.3011" style="stop-color:#BE2126"/>
	<stop  offset="0.7419" style="stop-color:#E10414"/>
	<stop  offset="1" style="stop-color:#FEB243"/>
</linearGradient>
<path id="shape" fill="url(#shape_1_)" d="M37.559,12.229l-0.033,0.321l0.102,0.327l-2.788,0.03v-0.678H37.559z M90.105,6.084
	c-1.316,0.388-2.826,0.808-4.53,1.26c-2.609,0.749-5.259,1.352-7.937,1.809c-1.771,0.282-3.805,0.541-6.098,0.778
	c-2.289,0.215-4.236,0.355-5.855,0.42c-1.035,0.065-1.791,0.1-2.271,0.1c-0.862,0.043-1.622,0.064-2.271,0.064
	c-1.797,0-3.836-0.086-6.125-0.259c-2.289-0.216-4.416-0.518-6.379-0.904C48,9.198,47.425,9.069,46.93,8.963l-0.582-0.165
	l-0.617,0.454l-0.422-0.03v0.29l-0.393-0.127v0.388L44.558,9.61l-0.064,0.292l-0.387-0.129l-0.131,0.29L43.684,9.87l-0.162,0.227
	l-0.289-0.165l-0.099,0.26l-0.258-0.097l-0.161,0.161l-0.324-0.227l-0.226,0.26l-0.26-0.26l-0.258,0.325
	c-0.233-0.186-0.496-0.327-0.778-0.42c-0.721-0.295-1.491-0.448-2.271-0.451h-0.161c-0.608-0.013-1.829-0.013-3.662,0
	c-1.226,0.001-2.727,0.012-4.503,0.03h-0.84c-1.532,0.042-3.12,0.086-4.763,0.129h-0.098c-2.48,0.09-4.39,0.206-5.733,0.35
	c-1.371,0.143-2.734,0.359-4.081,0.647c-1.903,0.479-3.775,1.074-5.605,1.782c-0.608,0.186-1.186,0.459-1.717,0.807
	c-0.8,0.496-1.55,1.071-2.237,1.713c-0.861,0.81-1.632,1.709-2.297,2.684c-0.392,0.54-0.706,1.003-0.94,1.389l-0.035,0.163
	c-0.019,0.15-0.03,0.304-0.031,0.454c0.007,0.211,0.103,0.409,0.259,0.549c0.072,0.073,0.149,0.139,0.231,0.202l1.101,0.55
	l0.225,1.004l0.32,0.159c0.238,0.12,0.487,0.218,0.744,0.291c0.261,0.044,0.533,0.077,0.812,0.097
	c0.128,0.021,0.259,0.029,0.391,0.033l1.875-0.643c0.387-0.325,0.842-0.682,1.362-1.07c0.797-0.646,1.667-1.201,2.593-1.646
	c0.62-0.288,1.272-0.492,1.944-0.613c0.347-0.068,0.908-0.132,1.687-0.195c1.798-0.095,3.601,0.089,5.342,0.549
	c0.795,0.188,1.576,0.438,2.335,0.742l0.457-0.065c0.328-0.286,0.687-0.535,1.069-0.741c0.845-0.502,1.781-0.834,2.754-0.979
	c0.996-0.123,2.008,0,2.95,0.353c0.432,0.144,0.845,0.341,1.229,0.586l0.453-0.033l0.325-0.26c0.255-0.185,0.527-0.347,0.809-0.486
	c0.926-0.442,1.961-0.611,2.98-0.487c0.961,0.247,1.804,0.833,2.367,1.652c0.354,0.439,0.657,0.916,0.906,1.422l0.128,0.067
	c0.187,0.071,0.384,0.115,0.584,0.127c0.203,0.021,0.409,0.021,0.614,0c0.067,0.009,0.135-0.002,0.195-0.03l1.782-1.773l0.323,1.297
	h3.245l0.387-0.322c0.211-0.18,0.472-0.292,0.746-0.318c0.332,0.022,0.651,0.125,0.938,0.289c0.179,0.073,0.352,0.162,0.521,0.26
	l0.097-0.063c0.08-0.063,0.168-0.114,0.26-0.161c0.244-0.178,0.537-0.277,0.846-0.291c0.281,0.014,0.563,0.104,0.813,0.26
	c0.15,0.084,0.278,0.16,0.391,0.229l0.326-0.263c0.209-0.139,0.438-0.229,0.68-0.291c0.304-0.008,0.604,0.063,0.875,0.191
	c0.148,0.071,0.291,0.159,0.42,0.262l0.391-0.295c0.229-0.166,0.498-0.269,0.778-0.289c0.271-0.012,0.536,0.047,0.778,0.164
	c0.127,0.084,0.248,0.158,0.354,0.227L56.3,19.57c0.267-0.17,0.562-0.287,0.87-0.354c0.292-0.032,0.587,0.021,0.846,0.16
	c0.139,0.062,0.271,0.133,0.389,0.229l0.453-0.354c0.254-0.206,0.559-0.351,0.873-0.42c0.291-0.013,0.58,0.081,0.813,0.258
	c0.138,0.075,0.258,0.175,0.354,0.292l1.006-0.16c0.816-0.133,1.658-0.263,2.521-0.39c2.271-0.38,4.518-0.878,6.729-1.488
	c2.003-0.613,3.949-1.379,5.834-2.295c1.57-0.778,3.053-1.588,4.438-2.427c0.932-0.562,2.657-1.822,5.188-3.784
	C87.857,7.864,89.029,6.949,90.105,6.084z"/>
<linearGradient id="shape2_1_" gradientUnits="userSpaceOnUse" x1="8.6094" y1="2.749" x2="8.8594" y2="-12.251" gradientTransform="matrix(1 0 0 -1 59.04 19.3398)">
	<stop  offset="0" style="stop-color:#630A0A"/>
	<stop  offset="0.4892" style="stop-color:#A81513"/>
	<stop  offset="1" style="stop-color:#E4100C"/>
</linearGradient>
<path id="shape2_2_" fill="url(#shape2_1_)" d="M77.557,31.475c-0.313,0-0.625-0.05-0.923-0.146
	c-0.298,0.104-0.608,0.146-0.922,0.146H67.52c-0.186,0-0.441-0.009-0.771-0.074c-0.217,0.052-0.438,0.074-0.664,0.074h-2.664
	c-0.815,0-1.604-0.342-2.166-0.937c-0.078-0.086-0.149-0.174-0.219-0.271l-0.91,0.646c-0.503,0.358-1.101,0.556-1.726,0.556h-3.584
	c-0.717,0-1.401-0.269-1.935-0.722c-0.616,0.427-1.354,0.651-2.114,0.651c-0.75,0-1.479-0.223-2.104-0.643
	c-0.164-0.109-0.313-0.232-0.452-0.37c-1.021-1.021-1.361-2.423-0.92-3.753l0.044-0.128l0.08-0.203
	c-1.801-0.254-3.146-1.766-3.146-3.646v-0.193c0-0.74,0.274-1.449,0.773-1.996l4.748-5.232c0.646-1.069,1.762-1.679,3.079-1.679
	h0.408c2.066,0,3.686,1.618,3.686,3.684c0,0-0.001,0.289-0.003,0.331c0.556-0.653,1.372-1.044,2.261-1.044h8.397
	c0.261,0,0.518,0.034,0.768,0.101c0.25-0.067,0.509-0.101,0.771-0.101h9.218c0.243,0,0.48,0.029,0.718,0.087
	c0.232-0.058,0.479-0.087,0.72-0.087h8.396c0.917,0,1.797,0.433,2.354,1.159c0.563,0.726,0.752,1.689,0.52,2.573l-0.404,1.532
	c-0.146,0.541-0.437,1.021-0.826,1.396c-0.02,0.188-0.047,0.371-0.1,0.555l-0.409,1.537c-0.071,0.281-0.188,0.551-0.347,0.799
	c0.168,0.531,0.188,1.109,0.04,1.656l-0.413,1.539c-0.352,1.295-1.521,2.201-2.866,2.201H77.557L77.557,31.475z M74.518,24.006
	l0.019-0.009h-0.8l-0.002,0.009H74.518z"/>
<path id="ACE" fill="#FFFFFF" d="M51.748,23.163h-3.79c-0.409,0-0.717-0.308-0.717-0.718c0-0.104,0-0.104,0-0.204l5.018-5.531
	c0.103-0.307,0.31-0.41,0.615-0.41h0.41c0.409,0,0.717,0.308,0.717,0.717c0,0.102,0,0.205,0,0.205l-2.458,3.584h4.402
	c0.615,0,0.31,1.127-0.104,1.639l-4.507,5.531c-0.311,0.308-0.717,0.308-1.021,0.104c-0.205-0.206-0.311-0.41-0.205-0.719
	L51.748,23.163L51.748,23.163L51.748,23.163z M59.225,19.271l0.409,0.41l-4.813,8.603h3.584l2.15-1.536h2.971l-0.103,1.536h2.663
	l1.536-9.013H59.225L59.225,19.271z M63.73,20.809l-0.104,3.482h-2.97l2.048-3.482H63.73L63.73,20.809z M67.521,28.284h8.188
	l0.613-2.15l-0.819,0.614h-5.729l1.74-5.941h6.448l0.409-1.535H69.15L66.8,27.26c-0.1,0.104-0.1,0.309-0.1,0.409
	c0,0.103,0,0.205,0.103,0.31c0.102,0.104,0.205,0.203,0.307,0.203C67.314,28.284,67.419,28.284,67.521,28.284L67.521,28.284
	L67.521,28.284z M79.811,19.271l0.313,0.606l-2.563,8.396h8.192l0.41-1.533H81.04l0.717-2.458h4.711l0.41-1.537h-4.506l0.612-1.938
	H87.8l0.409-1.535H79.811L79.811,19.271z"/>
<g>
	<defs>
		<path id="SVGID_1_" d="M37.559,12.229l-0.033,0.321l0.102,0.327l-2.788,0.03v-0.678H37.559z M90.105,6.084
			c-1.316,0.388-2.826,0.808-4.53,1.26c-2.609,0.749-5.259,1.352-7.937,1.809c-1.771,0.282-3.805,0.541-6.098,0.778
			c-2.289,0.215-4.236,0.355-5.855,0.42c-1.035,0.065-1.791,0.1-2.271,0.1c-0.862,0.043-1.622,0.064-2.271,0.064
			c-1.797,0-3.836-0.086-6.125-0.259c-2.289-0.216-4.416-0.518-6.379-0.904C48,9.198,47.425,9.069,46.93,8.963l-0.582-0.165
			l-0.617,0.454l-0.422-0.03v0.29l-0.393-0.127v0.388L44.558,9.61l-0.064,0.292l-0.387-0.129l-0.131,0.29L43.684,9.87l-0.162,0.227
			l-0.289-0.165l-0.099,0.26l-0.258-0.097l-0.161,0.161l-0.324-0.227l-0.226,0.26l-0.26-0.26l-0.258,0.325
			c-0.233-0.186-0.496-0.327-0.778-0.42c-0.721-0.295-1.491-0.448-2.271-0.451h-0.161c-0.608-0.013-1.829-0.013-3.662,0
			c-1.226,0.001-2.727,0.012-4.503,0.03h-0.84c-1.532,0.042-3.12,0.086-4.763,0.129h-0.098c-2.48,0.09-4.39,0.206-5.733,0.35
			c-1.371,0.143-2.734,0.359-4.081,0.647c-1.903,0.479-3.775,1.074-5.605,1.782c-0.608,0.186-1.186,0.459-1.717,0.807
			c-0.8,0.496-1.55,1.071-2.237,1.713c-0.861,0.81-1.632,1.709-2.297,2.684c-0.392,0.54-0.706,1.003-0.94,1.389l-0.035,0.163
			c-0.019,0.15-0.03,0.304-0.031,0.454c0.007,0.211,0.103,0.409,0.259,0.549c0.072,0.073,0.149,0.139,0.231,0.202l1.101,0.55
			l0.225,1.004l0.32,0.159c0.238,0.12,0.487,0.218,0.744,0.291c0.261,0.044,0.533,0.077,0.812,0.097
			c0.128,0.021,0.259,0.029,0.391,0.033l1.875-0.643c0.387-0.325,0.842-0.682,1.362-1.07c0.797-0.646,1.667-1.201,2.593-1.646
			c0.62-0.288,1.272-0.492,1.944-0.613c0.347-0.068,0.908-0.132,1.687-0.195c1.798-0.095,3.601,0.089,5.342,0.549
			c0.795,0.188,1.576,0.438,2.335,0.742l0.457-0.065c0.328-0.286,0.687-0.535,1.069-0.741c0.845-0.502,1.781-0.834,2.754-0.979
			c0.996-0.123,2.008,0,2.95,0.353c0.432,0.144,0.845,0.341,1.229,0.586l0.453-0.033l0.325-0.26
			c0.255-0.185,0.527-0.347,0.809-0.486c0.926-0.442,1.961-0.611,2.98-0.487c0.961,0.247,1.804,0.833,2.367,1.652
			c0.354,0.439,0.657,0.916,0.906,1.422l0.128,0.067c0.187,0.071,0.384,0.115,0.584,0.127c0.203,0.021,0.409,0.021,0.614,0
			c0.067,0.009,0.135-0.002,0.195-0.03l1.782-1.773l0.323,1.297h3.245l0.387-0.322c0.211-0.18,0.472-0.292,0.746-0.318
			c0.332,0.022,0.651,0.125,0.938,0.289c0.179,0.073,0.352,0.162,0.521,0.26l0.097-0.063c0.08-0.063,0.168-0.114,0.26-0.161
			c0.244-0.178,0.537-0.277,0.846-0.291c0.281,0.014,0.563,0.104,0.813,0.26c0.15,0.084,0.278,0.16,0.391,0.229l0.326-0.263
			c0.209-0.139,0.438-0.229,0.68-0.291c0.304-0.008,0.604,0.063,0.875,0.191c0.148,0.071,0.291,0.159,0.42,0.262l0.391-0.295
			c0.229-0.166,0.498-0.269,0.778-0.289c0.271-0.012,0.536,0.047,0.778,0.164c0.127,0.084,0.248,0.158,0.354,0.227L56.3,19.57
			c0.267-0.17,0.562-0.287,0.87-0.354c0.292-0.032,0.587,0.021,0.846,0.16c0.139,0.062,0.271,0.133,0.389,0.229l0.453-0.354
			c0.254-0.206,0.559-0.351,0.873-0.42c0.291-0.013,0.58,0.081,0.813,0.258c0.138,0.075,0.258,0.175,0.354,0.292l1.006-0.16
			c0.816-0.133,1.658-0.263,2.521-0.39c2.271-0.38,4.518-0.878,6.729-1.488c2.003-0.613,3.949-1.379,5.834-2.295
			c1.57-0.778,3.053-1.588,4.438-2.427c0.932-0.562,2.657-1.822,5.188-3.784C87.857,7.864,89.029,6.949,90.105,6.084z"/>
	</defs>
	<clipPath id="SVGID_2_">
		<use xlink:href="#SVGID_1_"  overflow="visible"/>
	</clipPath>
	<g clip-path="url(#SVGID_2_)">
		<g>
			
				<linearGradient id="SVGID_3_" gradientUnits="userSpaceOnUse" x1="-812.5635" y1="5.7842" x2="-751.5283" y2="5.7842" gradientTransform="matrix(-1 0 0 -1 -752.7783 19.3398)">
				<stop  offset="0" style="stop-color:#F2E2C8;stop-opacity:0"/>
				<stop  offset="0.9194" style="stop-color:#FEB243;stop-opacity:0.8"/>
			</linearGradient>
			<path fill="url(#SVGID_3_)" d="M33.892,10.129l1.59,0.924c-0.154,0.737,1.71,2.34,1.71,2.34L25.975,7.467l-8.537,1.444
				L41.08,19.424l-12.219-7.25l15.816,5.209l6.835,4.584l2.037-4.405l-2.982,0.026L33.892,10.129z M18.477,17.309
				c-0.207-1.035-2-1.394-2-1.394l-3.915-1.305l-0.695-0.608c-0.338-0.496-2.871-1.826-2.871-1.826
				c0.84,0.457,6.263,1.392,6.263,1.392c1.398,1.379,4.523,1.217,4.523,1.217l-4.872-2.608L7.604,8.174L6.646,8.088L6.361,5.985
				L4.707,5.654L-1.25,14.59l6.525,14.481l16.308-0.252l-7.456-4.64l5.568,0.436l7.844,4.204l6.236-5.165l-7.083-0.666
				C23.34,19.623,18.477,17.309,18.477,17.309z M40.269,7.898l-1.158-0.992l20.674,11.311l-2.74-5.875
				c-0.504-0.105-5.627-2.578-5.627-2.578c-1.809-0.362-5.734-2.906-5.734-2.906h-6.629L28.764-1.96l-1.958,3.134l8.292,5.303
				L40.269,7.898z"/>
		</g>
	</g>
</g>
</svg>
