<?xml version="1.0" encoding="utf-8"?>
<!-- Generator: Adobe Illustrator 16.0.0, SVG Export Plug-In . SVG Version: 6.00 Build 0)  -->
<!DOCTYPE svg PUBLIC "-//W3C//DTD SVG 1.1//EN" "http://www.w3.org/Graphics/SVG/1.1/DTD/svg11.dtd">
<svg version="1.1" id="case1" xmlns="http://www.w3.org/2000/svg" xmlns:xlink="http://www.w3.org/1999/xlink" x="0px" y="0px"
	 width="92px" height="36px" viewBox="0 0 92 36" enable-background="new 0 0 92 36" xml:space="preserve">
<linearGradient id="knife_t_2_" gradientUnits="userSpaceOnUse" x1="257.7588" y1="-813.9229" x2="348.1299" y2="-813.9229" gradientTransform="matrix(1 0 0 -1 -256.8799 -800.9199)">
	<stop  offset="0" style="stop-color:#DC4A49"/>
	<stop  offset="0.3011" style="stop-color:#BE2126"/>
	<stop  offset="0.7419" style="stop-color:#E10414"/>
	<stop  offset="1" style="stop-color:#FEB243"/>
</linearGradient>
<path id="knife_t" fill="url(#knife_t_2_)" d="M91.25,9.645l-1.939,2.393c-1.183,1.428-2.541,2.7-4.045,3.782
	c-2.391,1.432-5.021,2.412-7.768,2.891c-3.205,0.579-6.458,0.85-9.715,0.811H50.766c-0.119,0.014-0.236-0.004-0.351-0.037
	c0-0.021-0.063-0.229-0.194-0.613c-0.207-0.513-0.336-0.821-0.389-0.928c-0.262-0.513-0.646-0.951-1.122-1.272
	c-0.59-0.383-1.278-0.584-1.981-0.578c-0.783-0.037-1.56,0.136-2.25,0.5c-0.925,0.481-1.694,1.218-2.215,2.121
	c-0.25,0.379-0.435,0.796-0.548,1.231c-0.129,0.773,0.012,1.248,0.429,1.432c0.188,0.029,0.372,0.083,0.548,0.15
	c0.164,0.025,0.314,0.107,0.424,0.23c0.229,0.273,0.259,0.658,0.077,0.963c-0.251,0.285-0.642,0.406-1.009,0.313
	c-0.631-0.095-1.223-0.36-1.708-0.772c-0.648-0.479-1.026-1.238-1.017-2.047V17.4c0.012-0.221-0.014-0.442-0.076-0.654
	c-0.067-0.176-0.241-0.288-0.428-0.274c-0.157,0-1.84,0.244-5.051,0.731c-3.699,0.473-7.423,0.716-11.152,0.73
	c-3.446,0-7.176-0.18-11.19-0.539c-1.995-0.18-3.912-0.36-5.751-0.541c-0.604,0.017-1.165,0.317-1.514,0.81
	C4.01,18.058,3.75,18.472,3.52,18.9c-0.135,0.242-0.382,0.396-0.659,0.422c-0.289-0.016-0.551-0.174-0.7-0.422
	c-0.209-0.313-0.323-1.674-0.35-4.092c-0.287-0.204-0.514-0.481-0.659-0.801c-0.182-0.358-0.276-0.754-0.273-1.157
	c0.001-0.39,0.095-0.774,0.273-1.12c0.146-0.323,0.373-0.602,0.659-0.811C1.742,9.635,1.86,8.35,2.157,7.101
	c0.131-0.267,0.403-0.433,0.7-0.427c0.285,0,0.543,0.167,0.659,0.427C3.739,7.521,4,7.921,4.294,8.295
	c0.338,0.511,0.902,0.828,1.514,0.85c1.84-0.183,3.757-0.363,5.751-0.541c4.017-0.385,7.747-0.578,11.19-0.579
	c3.729,0.013,7.453,0.257,11.152,0.73c3.211,0.487,4.895,0.73,5.051,0.73C39.14,9.5,39.314,9.388,39.38,9.212
	c0.065-0.198,0.091-0.408,0.076-0.617V5.789c-0.009-0.804,0.367-1.564,1.012-2.044c0.486-0.411,1.078-0.679,1.708-0.772
	c0.367-0.094,0.757,0.025,1.008,0.31c0.182,0.292,0.152,0.668-0.075,0.928c-0.1,0.145-0.253,0.243-0.426,0.273
	c-0.105,0.026-0.287,0.078-0.547,0.153c-0.465,0.296-0.646,0.885-0.429,1.391c0.061,0.609,0.275,1.193,0.624,1.697l0.424,0.426
	v1.004h10.652c1.167,0,2.936,0.091,5.323,0.269c3.004,0.231,5.317,0.425,6.953,0.579c4.674,0.444,9.363,0.646,14.063,0.608
	c3.266-0.128,6.166-0.334,8.701-0.618L91.25,9.645z"/>
<linearGradient id="knife_t_3_" gradientUnits="userSpaceOnUse" x1="257.7588" y1="-813.9229" x2="348.1299" y2="-813.9229" gradientTransform="matrix(1 0 0 -1 -256.8799 -800.9199)">
	<stop  offset="0" style="stop-color:#5400D7"/>
	<stop  offset="1" style="stop-color:#9178E2"/>
</linearGradient>
<path id="knife_t_1_" display="none" fill="url(#knife_t_3_)" d="M91.25,9.645l-1.939,2.393c-1.183,1.428-2.541,2.7-4.045,3.782
	c-2.391,1.432-5.021,2.412-7.768,2.891c-3.205,0.579-6.458,0.85-9.715,0.811H50.766c-0.119,0.014-0.236-0.004-0.351-0.037
	c0-0.021-0.063-0.229-0.194-0.613c-0.207-0.513-0.336-0.821-0.389-0.929c-0.262-0.512-0.646-0.951-1.122-1.271
	c-0.59-0.383-1.278-0.584-1.981-0.578c-0.783-0.037-1.56,0.137-2.25,0.5c-0.925,0.48-1.694,1.219-2.215,2.121
	c-0.25,0.379-0.435,0.796-0.548,1.231c-0.129,0.773,0.012,1.248,0.429,1.432c0.188,0.029,0.372,0.083,0.548,0.15
	c0.164,0.025,0.314,0.107,0.424,0.23c0.229,0.273,0.259,0.658,0.077,0.963c-0.251,0.285-0.642,0.406-1.009,0.313
	c-0.631-0.095-1.223-0.36-1.708-0.772c-0.648-0.479-1.026-1.238-1.017-2.047V17.4c0.012-0.221-0.014-0.442-0.076-0.654
	c-0.067-0.176-0.241-0.288-0.428-0.273c-0.157,0-1.84,0.243-5.051,0.73c-3.699,0.473-7.423,0.716-11.152,0.73
	c-3.446,0-7.176-0.181-11.19-0.539c-1.995-0.181-3.912-0.36-5.751-0.541c-0.604,0.017-1.165,0.316-1.514,0.81
	C4.01,18.059,3.75,18.473,3.52,18.9c-0.135,0.242-0.382,0.396-0.659,0.422c-0.289-0.016-0.551-0.174-0.7-0.422
	c-0.209-0.313-0.323-1.674-0.35-4.092c-0.287-0.205-0.514-0.481-0.659-0.802c-0.182-0.358-0.276-0.754-0.273-1.157
	c0.001-0.39,0.095-0.774,0.273-1.12c0.146-0.323,0.373-0.602,0.659-0.811C1.742,9.635,1.86,8.35,2.157,7.101
	c0.131-0.267,0.403-0.433,0.7-0.427c0.285,0,0.543,0.167,0.659,0.427C3.739,7.521,4,7.921,4.294,8.295
	c0.338,0.511,0.902,0.828,1.514,0.85c1.84-0.183,3.757-0.363,5.751-0.541c4.017-0.385,7.747-0.578,11.19-0.579
	c3.729,0.013,7.453,0.257,11.152,0.73c3.211,0.487,4.895,0.73,5.051,0.73C39.14,9.5,39.314,9.388,39.38,9.212
	c0.065-0.198,0.091-0.408,0.076-0.617V5.789c-0.009-0.804,0.367-1.564,1.012-2.044c0.486-0.411,1.078-0.679,1.708-0.772
	c0.367-0.094,0.757,0.025,1.008,0.31c0.182,0.292,0.152,0.668-0.075,0.928c-0.1,0.145-0.253,0.243-0.426,0.273
	c-0.105,0.026-0.287,0.078-0.547,0.153c-0.465,0.296-0.646,0.885-0.429,1.391c0.061,0.609,0.275,1.193,0.624,1.697l0.424,0.426
	v1.004h10.652c1.167,0,2.936,0.091,5.323,0.269c3.004,0.231,5.317,0.425,6.953,0.579c4.674,0.444,9.363,0.646,14.063,0.608
	c3.266-0.128,6.166-0.334,8.701-0.618L91.25,9.645z"/>
<g>
	<defs>
		<path id="SVGID_1_" d="M91.25,9.645l-1.939,2.393c-1.183,1.428-2.541,2.7-4.045,3.782c-2.391,1.432-5.021,2.412-7.768,2.891
			c-3.205,0.579-6.458,0.85-9.715,0.811H50.766c-0.119,0.014-0.236-0.004-0.351-0.037c0-0.021-0.063-0.229-0.194-0.613
			c-0.207-0.513-0.336-0.821-0.389-0.929c-0.262-0.512-0.646-0.951-1.122-1.271c-0.59-0.383-1.278-0.584-1.981-0.578
			c-0.783-0.037-1.56,0.137-2.25,0.5c-0.925,0.48-1.694,1.219-2.215,2.121c-0.25,0.379-0.435,0.796-0.548,1.231
			c-0.129,0.773,0.012,1.248,0.429,1.432c0.188,0.029,0.372,0.083,0.548,0.15c0.164,0.025,0.314,0.107,0.424,0.23
			c0.229,0.273,0.259,0.658,0.077,0.963c-0.251,0.285-0.642,0.406-1.009,0.313c-0.631-0.095-1.223-0.36-1.708-0.772
			c-0.648-0.479-1.026-1.238-1.017-2.047V17.4c0.012-0.221-0.014-0.442-0.076-0.654c-0.067-0.176-0.241-0.288-0.428-0.273
			c-0.157,0-1.84,0.243-5.051,0.73c-3.699,0.473-7.423,0.716-11.152,0.73c-3.446,0-7.176-0.181-11.19-0.539
			c-1.995-0.181-3.912-0.36-5.751-0.541c-0.604,0.017-1.165,0.316-1.514,0.81C4.01,18.059,3.75,18.473,3.52,18.9
			c-0.135,0.242-0.382,0.396-0.659,0.422c-0.289-0.016-0.551-0.174-0.7-0.422c-0.209-0.313-0.323-1.674-0.35-4.092
			c-0.287-0.205-0.514-0.481-0.659-0.802c-0.182-0.358-0.276-0.754-0.273-1.157c0.001-0.39,0.095-0.774,0.273-1.12
			c0.146-0.323,0.373-0.602,0.659-0.811C1.742,9.635,1.86,8.35,2.157,7.101c0.131-0.267,0.403-0.433,0.7-0.427
			c0.285,0,0.543,0.167,0.659,0.427C3.739,7.521,4,7.921,4.294,8.295c0.338,0.511,0.902,0.828,1.514,0.85
			c1.84-0.183,3.757-0.363,5.751-0.541c4.017-0.385,7.747-0.578,11.19-0.579c3.729,0.013,7.453,0.257,11.152,0.73
			c3.211,0.487,4.895,0.73,5.051,0.73C39.14,9.5,39.314,9.388,39.38,9.212c0.065-0.198,0.091-0.408,0.076-0.617V5.789
			c-0.009-0.804,0.367-1.564,1.012-2.044c0.486-0.411,1.078-0.679,1.708-0.772c0.367-0.094,0.757,0.025,1.008,0.31
			c0.182,0.292,0.152,0.668-0.075,0.928c-0.1,0.145-0.253,0.243-0.426,0.273c-0.105,0.026-0.287,0.078-0.547,0.153
			c-0.465,0.296-0.646,0.885-0.429,1.391c0.061,0.609,0.275,1.193,0.624,1.697l0.424,0.426v1.004h10.652
			c1.167,0,2.936,0.091,5.323,0.269c3.004,0.231,5.317,0.425,6.953,0.579c4.674,0.444,9.363,0.646,14.063,0.608
			c3.266-0.128,6.166-0.334,8.701-0.618L91.25,9.645z"/>
	</defs>
	<clipPath id="SVGID_2_">
		<use xlink:href="#SVGID_1_"  overflow="visible"/>
	</clipPath>
	<g clip-path="url(#SVGID_2_)">
		<g>
			
				<linearGradient id="SVGID_3_" gradientUnits="userSpaceOnUse" x1="-811.7041" y1="7.0527" x2="-750.6699" y2="7.0527" gradientTransform="matrix(-1 0 0 -1 -752.7783 19.3398)">
				<stop  offset="0" style="stop-color:#F2E2C8;stop-opacity:0"/>
				<stop  offset="0.9194" style="stop-color:#FEB243;stop-opacity:0.8"/>
			</linearGradient>
			<path fill="url(#SVGID_3_)" d="M33.034,8.859l1.59,0.925c-0.154,0.737,1.71,2.339,1.71,2.339L25.117,6.198L16.58,7.642
				l23.642,10.513l-12.219-7.251l15.816,5.209l6.834,4.584l2.037-4.405l-2.982,0.026L33.034,8.859z M17.619,16.039
				c-0.207-1.035-2-1.393-2-1.393l-3.915-1.305l-0.695-0.608c-0.338-0.497-2.871-1.827-2.871-1.827
				c0.84,0.457,6.263,1.392,6.263,1.392c1.398,1.379,4.523,1.217,4.523,1.217l-4.872-2.609L6.746,6.905L5.788,6.818L5.502,4.716
				L3.849,4.385l-5.957,8.935l6.525,14.482l16.308-0.252l-7.456-4.641l5.568,0.436l7.844,4.205l6.236-5.166l-7.083-0.666
				C22.481,18.354,17.619,16.039,17.619,16.039z M39.411,6.629l-1.158-0.992l20.673,11.311l-2.74-5.875
				c-0.504-0.106-5.627-2.579-5.627-2.579c-1.807-0.362-5.734-2.906-5.734-2.906h-6.628L27.905-3.229l-1.958,3.134l8.292,5.302
				L39.411,6.629z"/>
		</g>
	</g>
</g>
</svg>
