<?xml version="1.0" encoding="utf-8"?>
<!-- Generator: Adobe Illustrator 16.0.0, SVG Export Plug-In . SVG Version: 6.00 Build 0)  -->
<!DOCTYPE svg PUBLIC "-//W3C//DTD SVG 1.1//EN" "http://www.w3.org/Graphics/SVG/1.1/DTD/svg11.dtd">
<svg version="1.1" id="case1" xmlns="http://www.w3.org/2000/svg" xmlns:xlink="http://www.w3.org/1999/xlink" x="0px" y="0px"
	 width="92px" height="36px" viewBox="0 0 92 36" enable-background="new 0 0 92 36" xml:space="preserve">
<linearGradient id="knife_survival_bowie_1_" gradientUnits="userSpaceOnUse" x1="632.7158" y1="1131.0205" x2="722.8398" y2="1131.0205" gradientTransform="matrix(1 0 0 1 -631.8398 -1116.5195)">
	<stop  offset="0" style="stop-color:#DC4A49"/>
	<stop  offset="0.3011" style="stop-color:#BE2126"/>
	<stop  offset="0.7419" style="stop-color:#E10414"/>
	<stop  offset="1" style="stop-color:#FEB243"/>
</linearGradient>
<path id="knife_survival_bowie_5_" fill="url(#knife_survival_bowie_1_)" d="M90.132,13.919c-0.651,0.508-1.313,0.997-1.985,1.469
	c-0.078,0.059-0.16,0.113-0.244,0.164c-2.018,1.406-4.248,2.473-6.604,3.159c-2.347,0.613-4.756,0.96-7.18,1.033
	c-2.438,0.097-4.875-0.104-7.265-0.6c-0.927-0.199-1.896-0.431-2.914-0.685c-1.153-0.29-1.854-0.455-2.094-0.489
	c-1.566-0.339-3.16-0.54-4.761-0.599c-1.868-0.107-4.56-0.117-8.076-0.028l-4.705,0.136l-0.294,0.66l-2.83-0.056
	c-0.054-0.12-0.126-0.23-0.214-0.328c-0.244-0.255-0.529-0.467-0.844-0.626c-0.356-0.167-0.731-0.295-1.115-0.382l-0.49-0.081
	l-0.161,2.338L37.7,19.633c-0.412,0.395-0.769,0.842-1.059,1.33c-0.278,0.539-0.498,1.104-0.654,1.689
	c-0.126,0.363-0.224,0.682-0.297,0.953h-1.523c0.017-0.779,0.153-1.555,0.407-2.289c0.182-0.416,0.381-0.825,0.598-1.229
	l0.297-0.483c-0.148-0.271-0.312-0.535-0.491-0.787c-0.286-0.457-0.633-0.862-1.03-1.223c-0.361-0.27-0.681-0.59-0.95-0.952
	l-0.357-0.519c-0.364-0.198-0.746-0.362-1.14-0.491c-0.779-0.257-1.621-0.247-2.394,0.029c-0.146,0.053-0.879,0.397-2.203,1.033
	c-0.822,0.401-1.69,0.704-2.584,0.899c-1.358,0.23-2.742,0.257-4.107,0.081c-1.525-0.152-3.042-0.387-4.541-0.707
	c-1.614-0.399-2.746-0.664-3.401-0.79c-0.858-0.202-1.729-0.339-2.608-0.409c-0.728-0.013-1.455,0.024-2.176,0.11
	c-0.338,0.027-0.673,0.072-1.006,0.135l-1.011,0.82l-0.214,0.979c-0.042,0.422-0.212,0.821-0.489,1.142
	c-0.237,0.166-0.563,0.366-0.98,0.603l-0.706-0.055c-0.197-0.115-0.38-0.253-0.546-0.41c-0.359-0.311-0.641-0.701-0.819-1.142
	c-0.208-0.64-0.272-1.319-0.191-1.987l0.137-1.254l-0.786-0.518v-1.254l0.599-0.299c0-0.31,0.016-0.653,0.053-1.035
	c0.023-0.552,0.141-1.096,0.35-1.607C2.021,9.694,2.248,9.44,2.53,9.262c0.282-0.141,0.584-0.233,0.896-0.273
	C3.67,8.92,3.933,8.995,4.105,9.181C4.173,9.259,4.22,9.353,4.242,9.454c1.704-0.109,3.599-0.219,5.685-0.329
	c4.206-0.234,7.315-0.334,9.327-0.299c1.795,0.019,4.442,0.155,7.941,0.406C30.405,9.49,32.2,9.608,32.58,9.59
	c0.544-0.028,1.083-0.12,1.605-0.273c0.371-0.106,0.736-0.234,1.093-0.382c0.218-0.099,0.47-0.088,0.679,0.029
	c0.085,0.043,0.145,0.123,0.164,0.217c0.182-0.165,0.398-0.365,0.651-0.6c0.395-0.363,0.743-0.774,1.034-1.224
	c0.246-0.409,0.438-0.849,0.572-1.308l0.133-0.653h1.306v0.679c-0.042,0.473-0.144,0.938-0.3,1.386
	c-0.16,0.428-0.379,0.832-0.651,1.199c-0.12,0.186-0.256,0.359-0.408,0.519l7.669,0.108l-0.489-0.764l1.797,0.764l1.271,0.055
	L48.105,8.47l2.018,0.872h1.252l-0.6-0.872l2.014,0.926h1.172l-0.604-0.764l1.961,0.819l1.225,0.081l-0.518-0.897L57.9,9.532
	l1.309,0.052l-0.547-0.9l1.878,0.9l1.36,0.053l-0.65-0.872l1.711,0.875l1.416-0.109l-0.463-0.707l1.877,0.819l1.001,0.028
	c0.91,0,1.901-0.045,2.992-0.137c1.776-0.164,3.452-0.346,5.03-0.546l0.545,0.409c0.453,0.307,0.934,0.606,1.438,0.897
	c1.435,0.866,2.979,1.516,4.604,1.93c2.017,0.425,4.062,0.699,6.119,0.819l0.625,0.053c1.053,0.075,2.004,0.122,2.854,0.14
	L90.132,13.919z"/>
<g>
	<defs>
		<path id="SVGID_1_" d="M90.132,13.919c-0.651,0.508-1.313,0.997-1.985,1.47c-0.078,0.059-0.16,0.112-0.244,0.164
			c-2.018,1.405-4.248,2.473-6.604,3.158c-2.347,0.613-4.756,0.96-7.18,1.033c-2.438,0.097-4.875-0.104-7.265-0.6
			c-0.927-0.199-1.896-0.431-2.914-0.685c-1.153-0.29-1.854-0.455-2.094-0.488c-1.566-0.34-3.16-0.541-4.761-0.6
			c-1.868-0.107-4.56-0.117-8.076-0.027l-4.705,0.135l-0.294,0.66l-2.83-0.057c-0.054-0.12-0.126-0.23-0.214-0.328
			c-0.244-0.255-0.529-0.467-0.844-0.626c-0.356-0.167-0.731-0.295-1.115-0.382l-0.49-0.081l-0.161,2.338L37.7,19.633
			c-0.412,0.395-0.769,0.842-1.059,1.33c-0.278,0.539-0.498,1.104-0.654,1.689c-0.126,0.363-0.224,0.682-0.297,0.953h-1.523
			c0.017-0.779,0.153-1.555,0.407-2.289c0.182-0.416,0.381-0.825,0.598-1.229l0.297-0.483c-0.148-0.271-0.312-0.535-0.491-0.787
			c-0.286-0.456-0.633-0.862-1.03-1.223c-0.361-0.271-0.681-0.591-0.95-0.953l-0.357-0.519c-0.364-0.198-0.746-0.362-1.14-0.491
			c-0.779-0.257-1.621-0.246-2.394,0.029c-0.146,0.053-0.879,0.396-2.203,1.033c-0.822,0.4-1.69,0.703-2.584,0.898
			c-1.358,0.23-2.742,0.258-4.107,0.081c-1.525-0.151-3.042-0.387-4.541-0.707c-1.614-0.399-2.746-0.663-3.401-0.79
			c-0.858-0.201-1.729-0.339-2.608-0.408c-0.728-0.014-1.455,0.023-2.176,0.109c-0.338,0.027-0.673,0.072-1.006,0.135L5.47,16.833
			l-0.214,0.979c-0.042,0.422-0.212,0.82-0.489,1.142c-0.237,0.166-0.563,0.366-0.98,0.603l-0.706-0.055
			c-0.197-0.115-0.38-0.253-0.546-0.41c-0.359-0.311-0.641-0.701-0.819-1.142c-0.208-0.64-0.272-1.319-0.191-1.987l0.137-1.254
			l-0.786-0.518v-1.254l0.599-0.299c0-0.31,0.016-0.653,0.053-1.035c0.023-0.552,0.141-1.096,0.35-1.607
			C2.021,9.694,2.248,9.44,2.53,9.262c0.282-0.141,0.584-0.233,0.896-0.273C3.67,8.92,3.933,8.995,4.105,9.181
			C4.173,9.259,4.22,9.353,4.242,9.454c1.704-0.109,3.599-0.219,5.685-0.329c4.206-0.234,7.315-0.334,9.327-0.299
			c1.795,0.019,4.442,0.155,7.941,0.406C30.405,9.49,32.2,9.608,32.58,9.59c0.544-0.028,1.083-0.12,1.605-0.273
			c0.371-0.106,0.736-0.234,1.093-0.382c0.218-0.099,0.47-0.088,0.679,0.029c0.085,0.043,0.145,0.123,0.164,0.217
			c0.182-0.165,0.398-0.365,0.651-0.6c0.395-0.363,0.743-0.774,1.034-1.224c0.246-0.409,0.438-0.849,0.572-1.308l0.133-0.653h1.306
			v0.679c-0.042,0.473-0.144,0.938-0.3,1.386c-0.16,0.428-0.379,0.832-0.651,1.199c-0.12,0.186-0.256,0.359-0.408,0.519l7.669,0.108
			l-0.489-0.764l1.797,0.764l1.271,0.055L48.105,8.47l2.018,0.872h1.252l-0.6-0.872l2.014,0.926h1.172l-0.604-0.764l1.961,0.819
			l1.225,0.081l-0.518-0.897L57.9,9.532l1.309,0.052l-0.547-0.9l1.878,0.9l1.36,0.053l-0.65-0.872l1.711,0.875l1.416-0.109
			l-0.463-0.707l1.877,0.819l1.001,0.028c0.91,0,1.901-0.045,2.992-0.137c1.776-0.164,3.452-0.346,5.03-0.546l0.545,0.409
			c0.453,0.307,0.934,0.606,1.438,0.897c1.435,0.866,2.979,1.516,4.604,1.93c2.017,0.425,4.062,0.699,6.119,0.819l0.625,0.053
			c1.053,0.075,2.004,0.122,2.854,0.14L90.132,13.919z"/>
	</defs>
	<clipPath id="SVGID_2_">
		<use xlink:href="#SVGID_1_"  overflow="visible"/>
	</clipPath>
	<g clip-path="url(#SVGID_2_)">
		<g>
			
				<linearGradient id="SVGID_3_" gradientUnits="userSpaceOnUse" x1="-813.0381" y1="6.5527" x2="-752.0034" y2="6.5527" gradientTransform="matrix(-1 0 0 -1 -752.7783 19.3398)">
				<stop  offset="0" style="stop-color:#F2E2C8;stop-opacity:0"/>
				<stop  offset="0.9194" style="stop-color:#FEB243;stop-opacity:0.8"/>
			</linearGradient>
			<path fill="url(#SVGID_3_)" d="M34.367,9.359l1.59,0.925c-0.154,0.737,1.71,2.339,1.71,2.339L26.45,6.698l-8.537,1.444
				l23.642,10.513l-12.219-7.251l15.816,5.209l6.834,4.584l2.037-4.405l-2.982,0.026L34.367,9.359z M18.952,16.539
				c-0.207-1.035-2-1.393-2-1.393l-3.915-1.305l-0.695-0.608c-0.338-0.497-2.871-1.827-2.871-1.827
				c0.84,0.457,6.263,1.392,6.263,1.392c1.398,1.379,4.523,1.217,4.523,1.217l-4.872-2.609L8.079,7.405L7.121,7.318L6.836,5.216
				L5.182,4.885l-5.957,8.935L5.75,28.303l16.308-0.252l-7.456-4.641l5.568,0.436l7.844,4.205l6.236-5.166l-7.083-0.666
				C23.815,18.854,18.952,16.539,18.952,16.539z M40.744,7.129l-1.158-0.992L60.26,17.448l-2.74-5.875
				c-0.504-0.106-5.627-2.579-5.627-2.579c-1.808-0.362-5.734-2.906-5.734-2.906H39.53L29.239-2.729l-1.958,3.134l8.292,5.302
				L40.744,7.129z"/>
		</g>
	</g>
</g>
</svg>
