<?xml version="1.0" encoding="utf-8"?>
<!-- Generator: Adobe Illustrator 16.0.0, SVG Export Plug-In . SVG Version: 6.00 Build 0)  -->
<!DOCTYPE svg PUBLIC "-//W3C//DTD SVG 1.1//EN" "http://www.w3.org/Graphics/SVG/1.1/DTD/svg11.dtd">
<svg version="1.1" id="tc" xmlns="http://www.w3.org/2000/svg" xmlns:xlink="http://www.w3.org/1999/xlink" x="0px" y="0px"
	 width="85.667px" height="36px" viewBox="0 0 85.667 36" enable-background="new 0 0 85.667 36" xml:space="preserve">
<linearGradient id="hhhhh_1_" gradientUnits="userSpaceOnUse" x1="-116.5249" y1="-1348.0293" x2="-33.5244" y2="-1348.0293" gradientTransform="matrix(1 0 0 -1 118.02 -1330.0361)">
	<stop  offset="0" style="stop-color:#DC4A49"/>
	<stop  offset="0.3011" style="stop-color:#BE2126"/>
	<stop  offset="0.7419" style="stop-color:#E10414"/>
	<stop  offset="1" style="stop-color:#FEB243"/>
</linearGradient>
<path id="hhhhh_4_" fill="url(#hhhhh_1_)" d="M41.303,17.971c0.016,0,0.031-0.004,0.047-0.01c0.1-0.033,0.152-0.143,0.118-0.242
	c-0.043-0.28-0.07-0.563-0.082-0.845c-0.011-0.308,0.093-0.608,0.29-0.844c0.076-0.079,0.16-0.15,0.251-0.212v0.001h3.536
	c0.396,0.452,0.595,1.047,0.541,1.646c-1.213,2.201-2.573,4.318-4.077,6.336c-0.705,0.475-1.524,0.752-2.374,0.799
	c-0.94,0.088-1.887,0.088-2.828,0c-0.294-0.096-0.535-0.309-0.667-0.588c-0.223-0.447-0.191-0.979,0.083-1.395
	c0.596-1.311,1.277-2.58,2.038-3.801c0.096-0.07,0.182-0.156,0.252-0.254c0.081-0.066,0.184-0.102,0.289-0.086h1
	c0.112,0,0.183-0.17,0.209-0.505l0.541,0.042c0.099,0.014,0.198,0.02,0.299,0.02C40.95,18.033,41.127,18.012,41.303,17.971
	 M44.173,0.498c-0.361,0-1.681,0.153-3.958,0.46l-3.288,0.463v-0.5c-0.289-0.054-0.581-0.082-0.876-0.086l-0.79,0.127v0.716
	l-0.417,0.044c0.006-0.045,0.004-0.089-0.003-0.133c-0.045-0.252-0.285-0.42-0.538-0.375c-0.224-0.035-0.45,0.062-0.577,0.25
	l-0.082,0.3l-1.416,0.042l-0.25-0.169h-0.375c-0.22,0.086-0.332,0.548-0.332,1.394c-0.052,0.642,0.078,1.286,0.375,1.857h0.499
	l0.21-0.211h1.455l0.084,0.252c0.115,0.157,0.307,0.238,0.5,0.211c0.442,0,0.652-0.154,0.624-0.463h0.623v2.15L34.06,6.785
	c-0.399-0.014-0.796,0.058-1.165,0.212c-0.201,0.111-0.529,0.336-1,0.674l-0.668,0.507v0.3L5.05,9.026
	C4.486,9.109,3.954,9.343,3.511,9.702c-0.483,0.316-0.93,0.685-1.331,1.099c-0.228,0.233-0.411,0.504-0.542,0.801
	c-0.093,0.355-0.141,0.719-0.143,1.084v0.056c0.001,0.126,0.007,0.253,0.019,0.379c0.23,1.874,0.564,3.734,1,5.572
	c0.639,2.895,1.069,4.709,1.29,5.438c0.163,0.518,0.449,0.979,0.834,1.354c0.25,0.229,0.574,0.365,0.915,0.381h4.87
	c0.307,0.02,0.608-0.092,0.832-0.301c0.231-0.219,0.353-0.527,0.334-0.847c-0.094-0.271-0.252-0.521-0.459-0.72l-0.459-0.508
	l0.292-1.016c0.167-0.594,1.013-1.438,2.54-2.529c0.938-0.682,1.943-1.262,3-1.73c0.162,0.039,0.299,0.15,0.374,0.301
	c0.193,0.252,0.334,0.336,0.416,0.252l1.872-1.521c0.396-0.202,0.868-0.186,1.25,0.043l0.168,2.325
	c0.239,2.104,0.601,4.188,1.083,6.244c0.49,2.049,1.102,4.063,1.831,6.033c0.389,0.898,0.707,1.592,0.956,2.064
	c-0.052,1.02,0.062,1.527,0.344,1.531h0.008c0.02,0,0.042-0.004,0.064-0.012c0.277-0.086,1.303-0.455,3.079-1.102
	c1.749-0.621,2.761-0.984,3.039-1.104c0.471-0.252,0.513-0.633,0.126-1.143c-0.916-1.209-1.929-3.813-3.039-7.811
	c-0.612-1.995-1.044-4.045-1.292-6.118l0.084-1.52c0.466-0.132,0.876-0.413,1.166-0.801c0.394-0.33,0.906-0.483,1.416-0.421
	c0.498-0.054,1.346-0.113,2.538-0.169c0.771-0.101,1.552-0.13,2.328-0.085c0.679,0.117,1.141,0.755,1.042,1.436
	c0.02,0.674-0.203,1.333-0.625,1.858c-0.298,0.229-0.576,0.48-0.833,0.759c-0.35,0.411-0.643,0.864-0.875,1.354
	c-0.416,0.729-0.68,1.221-0.791,1.478c-0.307,0.841-0.462,1.728-0.457,2.616c-0.042,0.3-0.014,0.604,0.081,0.889
	c0.115,0.188,0.328,0.283,0.542,0.256c0.389,0,1.36-0.02,2.915-0.045c1.803-0.086,3.176-0.154,4.119-0.211
	c0.809-0.018,1.609-0.156,2.373-0.423c0.716-0.438,1.314-1.054,1.741-1.772c1.471-2.313,2.358-3.658,2.664-4.056
	c0.852-1.358,1.918-2.572,3.16-3.584c1.19-0.238,2.412-0.295,3.621-0.169c1.082,0.057,2.122,0.113,3.122,0.169
	c-0.247,0.111-0.497,0.238-0.75,0.378c-0.497,0.282-0.704,0.537-0.622,0.762c0.057,0.14,0.166,0.393,0.334,0.758
	c0.131,0.341,0.229,0.695,0.288,1.055c0.063,0.504-0.01,1.015-0.206,1.479c-0.248,0.674-0.441,1.36-0.584,2.063
	c-0.175,1.132-0.242,2.273-0.21,3.418l1.041,0.305c0.593,0.193,1.209,0.311,1.83,0.336c0.541,0.006,1.078-0.1,1.582-0.293
	c0.5-0.193,0.692-0.396,0.584-0.596c-0.534-0.842-0.862-1.797-0.957-2.783V20.46c0.041-0.646,0.022-1.297-0.043-1.94
	c-0.071-0.688-0.028-1.392,0.127-2.063c0.025-0.28-0.182-0.462-0.625-0.549l-0.668-0.071l-0.289-0.3
	c0.289-0.06,0.507-0.297,0.541-0.589l0.334-2.577h2.5l0.166-0.252h0.291l0.209,0.252h0.289l0.67-0.716l12.025-0.301l0.125,0.086
	c0.094,0.077,0.211,0.122,0.332,0.126h1.709c0.184,0.009,0.342-0.12,0.372-0.3h0.875l0.166,0.169h1.832l0.168,0.126h1.162
	l0.25-0.084c0.158-0.057,0.326-0.086,0.5-0.086c0.125-0.005,0.252,0.009,0.371,0.043c0.131,0.033,0.256,0.075,0.375,0.126h1.828
	c0.148-0.074,0.262-0.215,0.291-0.379c0.104-0.28,0.162-0.575,0.168-0.874v-0.098c0-0.331-0.058-0.66-0.168-0.972l-0.207-0.38
	h-2.039C81.919,9,81.716,9.089,81.5,9.109c-0.168,0.008-0.336-0.006-0.5-0.042c-0.08-0.057-0.179-0.087-0.281-0.087h-1.039
	c-0.135-0.003-0.26,0.061-0.332,0.17l-0.043,0.166c-0.539-0.073-1.082-0.102-1.625-0.085l-0.373,0.212h-0.754l-0.373-0.337H74.64
	c-0.133,0.028-0.252,0.103-0.334,0.212l-0.211,0.126H61.196l-0.747-0.421V8.051l-2.957-1.477h-1.123V6.405h-0.582v0.169H54.33V6.405
	h-0.584v0.169h-1.457V6.405h-0.582v0.169h-1.414V6.405h-0.623v0.169h-1.416V6.405h-0.627v0.167h-1.371l-0.168-0.8
	c-0.137-0.204-0.377-0.316-0.623-0.294h-0.541l-0.332-0.507h2.08v0.255h0.416v-0.17l0.834-0.042V0.878h-0.834v-0.17H46.63v0.254
	h-0.584l-0.582-0.464H44.173z"/>
<g>
	<defs>
		<path id="SVGID_1_" d="M41.303,17.971c0.016,0,0.031-0.004,0.047-0.01c0.1-0.033,0.152-0.143,0.118-0.242
			c-0.043-0.28-0.07-0.563-0.082-0.845c-0.011-0.308,0.093-0.608,0.29-0.844c0.076-0.079,0.16-0.15,0.251-0.212v0.001h3.536
			c0.396,0.452,0.595,1.047,0.541,1.646c-1.213,2.201-2.573,4.318-4.077,6.336c-0.705,0.475-1.524,0.752-2.374,0.799
			c-0.94,0.088-1.887,0.088-2.828,0c-0.294-0.096-0.535-0.309-0.667-0.588c-0.223-0.447-0.191-0.979,0.083-1.395
			c0.596-1.311,1.277-2.58,2.038-3.801c0.096-0.07,0.182-0.156,0.252-0.254c0.081-0.066,0.184-0.102,0.289-0.086h1
			c0.112,0,0.183-0.17,0.209-0.505l0.541,0.042c0.099,0.014,0.198,0.02,0.299,0.02C40.95,18.033,41.127,18.012,41.303,17.971
			 M44.173,0.498c-0.361,0-1.681,0.153-3.958,0.46l-3.288,0.463v-0.5c-0.289-0.054-0.581-0.082-0.876-0.086l-0.79,0.127v0.716
			l-0.417,0.044c0.006-0.045,0.004-0.089-0.003-0.133c-0.045-0.252-0.285-0.42-0.538-0.375c-0.224-0.035-0.45,0.062-0.577,0.25
			l-0.082,0.3l-1.416,0.042l-0.25-0.169h-0.375c-0.22,0.086-0.332,0.548-0.332,1.394c-0.052,0.642,0.078,1.286,0.375,1.857h0.499
			l0.21-0.211h1.455l0.084,0.252c0.115,0.157,0.307,0.238,0.5,0.211c0.442,0,0.652-0.154,0.624-0.463h0.623v2.15L34.06,6.785
			c-0.399-0.014-0.796,0.058-1.165,0.212c-0.201,0.111-0.529,0.336-1,0.674l-0.668,0.507v0.3L5.05,9.026
			C4.486,9.109,3.954,9.343,3.511,9.702c-0.483,0.316-0.93,0.685-1.331,1.099c-0.228,0.233-0.411,0.504-0.542,0.801
			c-0.093,0.355-0.141,0.719-0.143,1.084v0.056c0.001,0.126,0.007,0.253,0.019,0.379c0.23,1.874,0.564,3.734,1,5.572
			c0.639,2.895,1.069,4.709,1.29,5.438c0.163,0.518,0.449,0.979,0.834,1.354c0.25,0.229,0.574,0.365,0.915,0.381h4.87
			c0.307,0.02,0.608-0.092,0.832-0.301c0.231-0.219,0.353-0.527,0.334-0.847c-0.094-0.271-0.252-0.521-0.459-0.72l-0.459-0.508
			l0.292-1.016c0.167-0.594,1.013-1.438,2.54-2.529c0.938-0.682,1.943-1.262,3-1.73c0.162,0.039,0.299,0.15,0.374,0.301
			c0.193,0.252,0.334,0.336,0.416,0.252l1.872-1.521c0.396-0.202,0.868-0.186,1.25,0.043l0.168,2.325
			c0.239,2.104,0.601,4.188,1.083,6.244c0.49,2.049,1.102,4.063,1.831,6.033c0.389,0.898,0.707,1.592,0.956,2.064
			c-0.052,1.02,0.062,1.527,0.344,1.531h0.008c0.02,0,0.042-0.004,0.064-0.012c0.277-0.086,1.303-0.455,3.079-1.102
			c1.749-0.621,2.761-0.984,3.039-1.104c0.471-0.252,0.513-0.633,0.126-1.143c-0.916-1.209-1.929-3.813-3.039-7.811
			c-0.612-1.995-1.044-4.045-1.292-6.118l0.084-1.52c0.466-0.132,0.876-0.413,1.166-0.801c0.394-0.33,0.906-0.483,1.416-0.421
			c0.498-0.054,1.346-0.113,2.538-0.169c0.771-0.101,1.552-0.13,2.328-0.085c0.679,0.117,1.141,0.755,1.042,1.436
			c0.02,0.674-0.203,1.333-0.625,1.858c-0.298,0.229-0.576,0.48-0.833,0.759c-0.35,0.411-0.643,0.864-0.875,1.354
			c-0.416,0.729-0.68,1.221-0.791,1.478c-0.307,0.841-0.462,1.728-0.457,2.616c-0.042,0.3-0.014,0.604,0.081,0.889
			c0.115,0.188,0.328,0.283,0.542,0.256c0.389,0,1.36-0.02,2.915-0.045c1.803-0.086,3.176-0.154,4.119-0.211
			c0.809-0.018,1.609-0.156,2.373-0.423c0.716-0.438,1.314-1.054,1.741-1.772c1.471-2.313,2.358-3.658,2.664-4.056
			c0.852-1.358,1.918-2.572,3.16-3.584c1.19-0.238,2.412-0.295,3.621-0.169c1.082,0.057,2.122,0.113,3.122,0.169
			c-0.247,0.111-0.497,0.238-0.75,0.378c-0.497,0.282-0.704,0.537-0.622,0.762c0.057,0.14,0.166,0.393,0.334,0.758
			c0.131,0.341,0.229,0.695,0.288,1.055c0.063,0.504-0.01,1.015-0.206,1.479c-0.248,0.674-0.441,1.36-0.584,2.063
			c-0.175,1.132-0.242,2.273-0.21,3.418l1.041,0.305c0.593,0.193,1.209,0.311,1.83,0.336c0.541,0.006,1.078-0.1,1.582-0.293
			c0.5-0.193,0.692-0.396,0.584-0.596c-0.534-0.842-0.862-1.797-0.957-2.783V20.46c0.041-0.646,0.022-1.297-0.043-1.94
			c-0.071-0.688-0.028-1.392,0.127-2.063c0.025-0.28-0.182-0.462-0.625-0.549l-0.668-0.071l-0.289-0.3
			c0.289-0.06,0.507-0.297,0.541-0.589l0.334-2.577h2.5l0.166-0.252h0.291l0.209,0.252h0.289l0.67-0.716l12.025-0.301l0.125,0.086
			c0.094,0.077,0.211,0.122,0.332,0.126h1.709c0.184,0.009,0.342-0.12,0.372-0.3h0.875l0.166,0.169h1.832l0.168,0.126h1.162
			l0.25-0.084c0.158-0.057,0.326-0.086,0.5-0.086c0.125-0.005,0.252,0.009,0.371,0.043c0.131,0.033,0.256,0.075,0.375,0.126h1.828
			c0.148-0.074,0.262-0.215,0.291-0.379c0.104-0.28,0.162-0.575,0.168-0.874v-0.098c0-0.331-0.058-0.66-0.168-0.972l-0.207-0.38
			h-2.039C81.919,9,81.716,9.089,81.5,9.109c-0.168,0.008-0.336-0.006-0.5-0.042c-0.08-0.057-0.179-0.087-0.281-0.087h-1.039
			c-0.135-0.003-0.26,0.061-0.332,0.17l-0.043,0.166c-0.539-0.073-1.082-0.102-1.625-0.085l-0.373,0.212h-0.754l-0.373-0.337H74.64
			c-0.133,0.028-0.252,0.103-0.334,0.212l-0.211,0.126H61.196l-0.747-0.421V8.051l-2.957-1.477h-1.123V6.405h-0.582v0.169H54.33
			V6.405h-0.584v0.169h-1.457V6.405h-0.582v0.169h-1.414V6.405h-0.623v0.169h-1.416V6.405h-0.627v0.167h-1.371l-0.168-0.8
			c-0.137-0.204-0.377-0.316-0.623-0.294h-0.541l-0.332-0.507h2.08v0.255h0.416v-0.17l0.834-0.042V0.878h-0.834v-0.17H46.63v0.254
			h-0.584l-0.582-0.464H44.173z"/>
	</defs>
	<clipPath id="SVGID_2_">
		<use xlink:href="#SVGID_1_"  overflow="visible"/>
	</clipPath>
	<g clip-path="url(#SVGID_2_)">
		<g>
			
				<linearGradient id="SVGID_3_" gradientUnits="userSpaceOnUse" x1="-818.8706" y1="7.1885" x2="-757.8364" y2="7.1885" gradientTransform="matrix(-1 0 0 -1 -759.1113 19.3398)">
				<stop  offset="0" style="stop-color:#F2E2C8;stop-opacity:0"/>
				<stop  offset="0.9194" style="stop-color:#FEB243;stop-opacity:0.8"/>
			</linearGradient>
			<path fill="url(#SVGID_3_)" d="M33.867,8.724l1.59,0.925c-0.154,0.737,1.71,2.339,1.71,2.339L25.95,6.063l-8.537,1.444
				L41.055,18.02l-12.219-7.251l15.816,5.209l6.834,4.584l2.037-4.405l-2.982,0.026L33.867,8.724z M18.452,15.904
				c-0.207-1.035-2-1.393-2-1.393l-3.915-1.305l-0.695-0.608c-0.338-0.497-2.871-1.827-2.871-1.827
				c0.84,0.457,6.263,1.392,6.263,1.392c1.398,1.379,4.523,1.217,4.523,1.217l-4.872-2.609L7.579,6.77L6.621,6.683L6.336,4.581
				L4.682,4.25l-5.957,8.935L5.25,27.667l16.308-0.252l-7.456-4.64l5.568,0.436l7.844,4.204l6.236-5.165l-7.083-0.666
				C23.315,18.219,18.452,15.904,18.452,15.904z M40.244,6.494l-1.158-0.992l20.673,11.311l-2.74-5.875
				c-0.504-0.106-5.627-2.579-5.627-2.579c-1.807-0.362-5.734-2.906-5.734-2.906H39.03L28.739-3.364L26.781-0.23l8.292,5.302
				L40.244,6.494z"/>
		</g>
	</g>
</g>
</svg>
