<?xml version="1.0" encoding="utf-8"?>
<!-- Generator: Adobe Illustrator 16.0.0, SVG Export Plug-In . SVG Version: 6.00 Build 0)  -->
<!DOCTYPE svg PUBLIC "-//W3C//DTD SVG 1.1//EN" "http://www.w3.org/Graphics/SVG/1.1/DTD/svg11.dtd">
<svg version="1.1" id="case1" xmlns="http://www.w3.org/2000/svg" xmlns:xlink="http://www.w3.org/1999/xlink" x="0px" y="0px"
	 width="64.75px" height="36px" viewBox="0 0 64.75 36" enable-background="new 0 0 64.75 36" xml:space="preserve">
<linearGradient id="hegrenade_1_" gradientUnits="userSpaceOnUse" x1="-124.2178" y1="-2177.918" x2="-101.2026" y2="-2177.918" gradientTransform="matrix(1 0 0 -1 126.3398 -2159.9014)">
	<stop  offset="0" style="stop-color:#DC4A49"/>
	<stop  offset="0.3011" style="stop-color:#BE2126"/>
	<stop  offset="0.7419" style="stop-color:#E10414"/>
	<stop  offset="1" style="stop-color:#FEB243"/>
</linearGradient>
<path id="hegrenade" fill="url(#hegrenade_1_)" d="M20.052,9.002v0.085c0.025,0.022,0.04,0.054,0.043,0.087
	c0.002,0.034,0.018,0.065,0.043,0.087v0.041c0.027,0.021,0.043,0.053,0.045,0.087c0.03,0.028,0.06,0.057,0.088,0.086V9.52
	c-0.002,0.021,0.013,0.04,0.033,0.042c0.004,0,0.008,0,0.01,0v0.087c0.027,0.021,0.043,0.053,0.045,0.087
	c0.002,0.035,0.021,0.066,0.045,0.088l0.045,0.042v0.085c0.025,0.021,0.044,0.052,0.046,0.086l0.044,0.045v0.13
	c0.027,0.029,0.061,0.055,0.089,0.086c0.002,0.034,0.019,0.065,0.042,0.088l0.044,0.043v0.086c0.027,0.021,0.043,0.053,0.046,0.087
	v0.043c0.021-0.003,0.04,0.01,0.043,0.03c0.002,0.004,0.002,0.008,0,0.012v0.086c0.026,0.021,0.043,0.053,0.045,0.087
	c0.025,0.021,0.043,0.053,0.045,0.087c0.021-0.002,0.041,0.014,0.043,0.036c0,0.002,0,0.005,0,0.007
	c0.026,0.022,0.043,0.053,0.047,0.087c0.023,0.021,0.039,0.052,0.041,0.085h0.088c0,0.029,0.029,0.045,0.09,0.045
	c0.029,0.027,0.058,0.055,0.087,0.084c0.026,0.021,0.042,0.053,0.046,0.087c0.023,0.022,0.04,0.053,0.043,0.086v0.088
	c0.025,0.021,0.041,0.051,0.044,0.083c0.002,0.034,0.019,0.065,0.044,0.086v0.046c0.002,0.033,0.018,0.063,0.044,0.084v0.088
	c0.026,0.021,0.042,0.052,0.044,0.086c0.021-0.004,0.041,0.01,0.047,0.031c0,0.003,0,0.007,0,0.011v0.045
	c0.025,0.021,0.041,0.052,0.043,0.086v0.085l0.043,0.043c0.004,0.033,0.021,0.063,0.047,0.084c0.002,0.034,0.019,0.065,0.043,0.087
	v0.087c0.021-0.003,0.041,0.01,0.045,0.031c0,0.004,0,0.008,0,0.012l0.043,0.045c0.027,0.021,0.044,0.052,0.044,0.086
	c0.024,0.021,0.04,0.052,0.045,0.085v0.045c0.024,0.022,0.041,0.053,0.044,0.086c0.023,0.022,0.041,0.053,0.045,0.087l0.044,0.042
	c0.024,0.021,0.042,0.051,0.044,0.084l0.046,0.046v0.087c0.025,0.021,0.041,0.052,0.042,0.085l0.047,0.043
	c0.002,0.034,0.02,0.065,0.045,0.087c0,0.033,0.016,0.063,0.041,0.085v0.043c0.026,0.021,0.045,0.052,0.047,0.087l0.043,0.043
	c0.025,0.021,0.043,0.051,0.045,0.085c-0.002,0.021,0.012,0.04,0.033,0.043c0.002,0,0.006,0,0.01,0v0.087
	c0.029,0.058,0.061,0.116,0.09,0.174l0.045,0.042c0.025,0.022,0.041,0.053,0.044,0.087l0.043,0.043v0.089l0.043,0.042v0.085
	c0.003,0.034,0.019,0.065,0.045,0.087v0.088c0.021-0.003,0.04,0.01,0.044,0.031c0,0.003,0,0.006,0,0.01
	c0.025,0.021,0.042,0.054,0.043,0.088v0.042c0.031,0.029,0.061,0.057,0.09,0.087l0.045,0.045v0.085
	c0.002,0.033,0.018,0.064,0.043,0.086v0.084c0.021-0.004,0.041,0.01,0.045,0.031c0,0.004,0.002,0.007,0,0.011v0.088l0.043,0.045
	v0.085l0.039,0.047c0.004,0.032,0.02,0.062,0.043,0.083c0.004,0.034,0.021,0.065,0.047,0.086v0.131
	c0.025,0.021,0.041,0.052,0.043,0.086l0.045,0.045c0.029,0.026,0.059,0.057,0.091,0.084v0.045c0.024,0.022,0.041,0.053,0.043,0.087
	v0.085l0.044,0.043c0.025,0.021,0.042,0.053,0.044,0.086v0.089l0.05,0.043v0.042l0.088,0.088c0.002,0.033,0.019,0.063,0.045,0.084
	c0.002,0.034,0.018,0.066,0.043,0.089c-0.002,0.021,0.014,0.042,0.035,0.043c0.004,0,0.006,0,0.008,0v0.172l0.088,0.087
	c0.029,0.028,0.059,0.057,0.088,0.084v0.087c0.027,0.028,0.059,0.059,0.088,0.089v0.041c0.025,0.022,0.041,0.054,0.043,0.088
	c0.027,0.021,0.043,0.052,0.046,0.086v0.043c0.022,0.026,0.054,0.042,0.088,0.045c0.028,0.058,0.06,0.115,0.089,0.172
	c0.002,0.034,0.018,0.065,0.044,0.086v0.13c0.025,0.021,0.04,0.053,0.042,0.086l0.047,0.045c0.033,0.001,0.064,0.017,0.088,0.043
	v0.085c0.024,0.022,0.041,0.054,0.043,0.086l0.041,0.043v0.174c0.035,0.002,0.066,0.016,0.09,0.041
	c0.002,0.033,0.019,0.066,0.043,0.088c0.021-0.004,0.041,0.01,0.043,0.031c0.002,0.004,0.002,0.006,0,0.01
	c0.005,0.033,0.021,0.064,0.046,0.086v0.438c-0.021-0.004-0.041,0.01-0.044,0.028c-0.002,0.002-0.002,0.009-0.002,0.013v0.086
	l-0.043,0.043v5l0.043,0.045v0.086c0.004,0.033,0.02,0.063,0.046,0.086v1.253l0.048,0.053v0.08l0.044,0.047v1.854l0.043,0.043
	c0.002,0.033,0.019,0.063,0.044,0.086v1.556c-0.021-0.002-0.04,0.016-0.044,0.028c0,0.007,0,0.011,0,0.015V29.9
	c-0.026,0.021-0.043,0.055-0.043,0.088v1.684c-0.002,0.033-0.019,0.064-0.044,0.086v0.086c-0.003,0.033-0.02,0.064-0.044,0.088
	l-0.045,0.043c-0.002,0.033-0.019,0.063-0.043,0.084c-0.025,0.021-0.041,0.053-0.043,0.086c-0.025,0.021-0.042,0.059-0.046,0.088
	h-0.049c0,0.033-0.018,0.064-0.043,0.086h-0.051c-0.063,0.021-0.123,0.054-0.176,0.092c-0.063,0-0.122,0.017-0.178,0.035h-0.309
	c-0.056-0.021-0.113-0.035-0.176-0.035c-0.04-0.032-0.085-0.063-0.132-0.092c-0.003-0.026-0.021-0.063-0.046-0.086v-0.346
	l0.046-0.043c0.028-0.027,0.06-0.059,0.087-0.086c0.027-0.029,0.061-0.057,0.087-0.086h0.177c0.028-0.029,0.059-0.059,0.088-0.088
	v-7.678c-0.025-0.021-0.041-0.053-0.043-0.086c-0.023-0.027-0.056-0.043-0.09-0.045v-1.127c-0.025-0.021-0.041-0.06-0.043-0.086
	v-0.045c-0.027-0.021-0.043-0.06-0.045-0.086v-1.349c-0.025-0.022-0.055-0.062-0.086-0.084v-0.521
	c-0.025-0.021-0.042-0.051-0.044-0.084c-0.024-0.021-0.041-0.059-0.043-0.086V19.96l-0.044-0.041
	c-0.025-0.021-0.043-0.055-0.046-0.088v-0.258c-0.026-0.021-0.042-0.056-0.044-0.091V19.4c-0.021,0.004-0.041-0.012-0.044-0.031
	c0-0.004,0-0.006,0-0.012c-0.002-0.031-0.019-0.064-0.043-0.088v-0.086c-0.034-0.002-0.066-0.021-0.089-0.043V18.62
	c-0.021,0.004-0.041-0.011-0.045-0.031c-0.002-0.004-0.002-0.008-0.002-0.012c-0.021,0.004-0.041-0.013-0.043-0.033
	c-0.002-0.004,0-0.008,0-0.012c-0.004-0.033-0.02-0.063-0.047-0.083c-0.002-0.034-0.018-0.065-0.043-0.087V18.28
	c-0.021,0.002-0.041-0.013-0.043-0.035c0-0.003,0-0.006,0-0.01c-0.003-0.033-0.019-0.064-0.043-0.085
	c-0.027-0.022-0.044-0.054-0.047-0.088c-0.02,0.003-0.039-0.01-0.043-0.03c0-0.004,0-0.008,0-0.012v-0.043
	c-0.025-0.021-0.042-0.053-0.045-0.086c-0.027-0.029-0.059-0.059-0.089-0.087c0.003-0.021-0.013-0.04-0.032-0.043
	c-0.004,0-0.008,0-0.011,0c-0.003-0.034-0.019-0.065-0.044-0.087v-0.085c-0.026-0.022-0.043-0.054-0.047-0.088V17.46l-0.039-0.043
	c-0.002-0.034-0.018-0.064-0.043-0.086c-0.002-0.033-0.018-0.063-0.043-0.084c0.004-0.021-0.012-0.042-0.032-0.045
	c-0.005,0-0.009,0-0.015,0v-0.087c-0.025-0.022-0.041-0.054-0.043-0.088c-0.026-0.021-0.043-0.051-0.045-0.084h-0.043v-0.088
	c-0.002-0.034-0.019-0.065-0.045-0.086v-0.087c-0.022-0.026-0.056-0.041-0.09-0.042c-0.001-0.033-0.017-0.063-0.042-0.084h-0.09
	c-0.039-0.037-0.083-0.067-0.132-0.089c-0.026-0.021-0.042-0.052-0.042-0.086c-0.035-0.001-0.067-0.017-0.091-0.043V16.25
	c-0.025-0.021-0.043-0.053-0.045-0.087l-0.043-0.045v-0.083c-0.032-0.004-0.063-0.02-0.088-0.044l-0.09-0.086
	c-0.002-0.033-0.018-0.064-0.043-0.087v-0.045c-0.002-0.033-0.018-0.064-0.044-0.085c-0.001-0.034-0.019-0.066-0.046-0.086
	c0.004-0.022-0.01-0.042-0.031-0.047c-0.004,0-0.009,0-0.013,0v-0.081c-0.021,0.003-0.041-0.012-0.044-0.033
	c-0.001-0.004,0-0.008,0-0.012c-0.032-0.027-0.059-0.057-0.087-0.087v-0.04c-0.003-0.033-0.019-0.064-0.043-0.087v-0.087
	l-0.088-0.086l-0.046-0.04c-0.029-0.03-0.061-0.058-0.09-0.087V14.74l-0.086-0.088l-0.094-0.086
	c-0.003-0.033-0.019-0.063-0.044-0.085l-0.044-0.042c-0.025-0.022-0.041-0.053-0.044-0.087L20.75,14.31v-0.088
	c-0.021,0.003-0.042-0.011-0.045-0.033c-0.001-0.003-0.002-0.006-0.001-0.009l-0.079-0.087c-0.003-0.035-0.02-0.067-0.047-0.09
	c-0.027-0.021-0.043-0.053-0.044-0.087l-0.044-0.043c-0.026-0.021-0.043-0.052-0.045-0.086c-0.035-0.002-0.066-0.018-0.09-0.043
	V13.66c-0.021,0.002-0.041-0.012-0.043-0.034c-0.002-0.003-0.002-0.006,0-0.009c-0.026-0.022-0.043-0.053-0.045-0.086
	c-0.027-0.03-0.059-0.059-0.086-0.087c0.002-0.021-0.015-0.041-0.035-0.043c-0.004,0-0.008,0-0.013,0
	c-0.002-0.034-0.018-0.064-0.044-0.086c-0.027-0.031-0.058-0.059-0.087-0.087l-0.044-0.046l-0.09-0.079l-0.045-0.046
	c-0.004-0.034-0.021-0.065-0.049-0.087v-0.086c-0.021-0.025-0.053-0.042-0.086-0.045c-0.004-0.033-0.02-0.063-0.045-0.085
	c-0.024-0.022-0.041-0.052-0.045-0.086c-0.021,0.002-0.041-0.014-0.043-0.036c0-0.003,0-0.006,0-0.009
	c-0.021-0.026-0.053-0.042-0.086-0.043c-0.027-0.021-0.043-0.053-0.045-0.087c-0.002-0.034-0.019-0.065-0.044-0.087
	c-1.116,0-2.247,0.015-3.391,0.043c0.003,0.021-0.013,0.041-0.034,0.043c-0.004,0-0.007,0-0.01,0
	c-0.002,0.033-0.018,0.064-0.043,0.087v2.505h0.176c0.09,0,0.178,0.014,0.264,0.042c-0.004,0.022,0.012,0.042,0.033,0.045
	c0.004,0,0.008,0,0.012,0c0.087,0.022,0.176,0.036,0.264,0.041c0.063,0.001,0.122,0.017,0.177,0.045h0.094
	c0.189,0.029,0.381,0.043,0.572,0.042h0.221c0.022,0.026,0.054,0.041,0.087,0.042c0.021,0.027,0.053,0.043,0.088,0.046
	c0.047-0.003,0.096,0.012,0.133,0.042h0.045c0.1,0.027,0.203,0.042,0.307,0.045c0.076-0.003,0.15,0.012,0.221,0.043
	c0.021,0.024,0.052,0.039,0.085,0.041h0.09c0.05-0.004,0.098,0.013,0.131,0.047h0.09c0.056,0.025,0.115,0.039,0.176,0.039
	c0.075,0.003,0.148,0.019,0.223,0.045l0.088,0.085c0.039,0.023,0.084,0.039,0.129,0.045h0.091c0.089,0,0.178,0.016,0.262,0.045
	c0.031,0.027,0.06,0.057,0.091,0.086c0.037,0.037,0.082,0.066,0.131,0.087c0.059,0.027,0.116,0.057,0.176,0.084
	c0.048,0.005,0.093,0.021,0.134,0.045c0.036,0.031,0.084,0.047,0.133,0.043c0.058,0.029,0.115,0.058,0.175,0.084
	c0.012,0.042,0.047,0.076,0.09,0.087l0.037,0.045c0.028,0.028,0.061,0.057,0.088,0.086c0.027,0.029,0.059,0.057,0.088,0.087v0.042
	c0.049,0.021,0.094,0.051,0.133,0.088c0.037,0.031,0.084,0.046,0.133,0.042c0.012,0.042,0.045,0.075,0.087,0.086
	c0.002,0.034,0.019,0.066,0.044,0.088c0.033,0.002,0.064,0.018,0.088,0.043c0.025,0.021,0.042,0.051,0.044,0.084
	c0.028,0.031,0.058,0.059,0.087,0.088c0.023,0.024,0.055,0.04,0.088,0.043l0.088,0.084l0.043,0.045
	c0.028,0.029,0.06,0.057,0.09,0.086c-0.004,0.021,0.012,0.042,0.031,0.045c0.004,0,0.008,0.001,0.012,0
	c0.003,0.033,0.02,0.063,0.044,0.084c0.026,0.021,0.044,0.053,0.047,0.087c0.024,0.022,0.04,0.053,0.042,0.086l0.046,0.045
	c0.024,0.021,0.041,0.053,0.044,0.087l0.042,0.043v0.086l0.047,0.042v0.08c0.024,0.022,0.039,0.053,0.042,0.086
	c0.026,0.021,0.045,0.053,0.047,0.088v0.043c0.024,0.022,0.041,0.053,0.043,0.086v0.045l0.088,0.084v0.047
	c0.002,0.033,0.02,0.063,0.047,0.086v0.172c0.02-0.004,0.039,0.013,0.043,0.031c0,0.004,0,0.008,0,0.012
	c0.025,0.021,0.041,0.054,0.043,0.086v0.043c0.025,0.021,0.041,0.054,0.043,0.087v0.129c0.004,0.034,0.02,0.065,0.047,0.088v0.129
	c0.025,0.021,0.041,0.059,0.043,0.086l0.043,0.049v0.088c0.021-0.004,0.041,0.01,0.045,0.023c0,0.004,0,0.016,0,0.02v0.084
	c0.002,0.027,0.018,0.063,0.044,0.088v0.043c0.002,0.033,0.019,0.063,0.045,0.086v0.131c0.002,0.031,0.019,0.063,0.043,0.092v0.043
	c0.026,0.021,0.043,0.053,0.046,0.086c0.025,0.021,0.041,0.053,0.043,0.086l0.045,0.043c0.027,0.06,0.057,0.117,0.088,0.174v0.087
	c0.002,0.034,0.019,0.065,0.043,0.088v0.086c0.002,0.035,0.021,0.065,0.047,0.089v0.043c0.024,0.021,0.041,0.053,0.043,0.086
	c0.025,0.021,0.043,0.056,0.045,0.088v0.041l0.046,0.045v0.391c0.024,0.021,0.041,0.057,0.043,0.09v0.041l0.045,0.045v2.068
	c-0.026,0.021-0.042,0.059-0.045,0.09c-0.025,0.021-0.041,0.053-0.043,0.085V24.6c-0.003,0.032-0.019,0.063-0.043,0.09v0.086
	c-0.005,0.031-0.021,0.063-0.046,0.089l-0.043,0.043v0.168L23.353,25.1v0.041c-0.024,0.021-0.041,0.053-0.043,0.088v0.215
	c-0.031,0.063-0.061,0.115-0.088,0.179l-0.045,0.047v0.043c-0.025,0.021-0.041,0.056-0.043,0.086v0.088
	c0.002,0.021-0.014,0.039-0.035,0.041c-0.004,0.003-0.008,0-0.011,0v0.084c-0.024,0.021-0.041,0.06-0.043,0.087v0.086l-0.089,0.092
	c-0.002,0.029-0.018,0.063-0.044,0.088v0.084c0.003,0.021-0.011,0.039-0.031,0.043c-0.004,0-0.008,0-0.012,0
	c-0.003,0.031-0.019,0.063-0.044,0.088c-0.002,0.035-0.02,0.063-0.045,0.088v0.086l-0.041,0.045v0.041
	c-0.027,0.029-0.061,0.059-0.088,0.09V27c-0.021-0.004-0.043,0.01-0.045,0.033c0,0.002-0.002,0.006,0,0.01v0.086
	c-0.025,0.021-0.043,0.051-0.045,0.084c-0.002,0.035-0.019,0.066-0.043,0.088v0.045l-0.043,0.043
	c-0.002,0.033-0.02,0.064-0.047,0.086v0.086l-0.039,0.045c-0.002,0.035-0.021,0.066-0.048,0.088v0.082L22.3,27.818
	c-0.025,0.021-0.042,0.058-0.044,0.09l-0.045,0.046c-0.002,0.028-0.019,0.063-0.042,0.086v0.088l-0.045,0.043
	c-0.002,0.033-0.02,0.063-0.044,0.088c-0.003,0.031-0.019,0.063-0.042,0.084c0.001,0.021-0.018,0.041-0.038,0.043
	c-0.003,0-0.006,0-0.008,0c-0.025,0.021-0.042,0.058-0.045,0.087c0.004,0.021-0.013,0.045-0.033,0.049c-0.004,0-0.007,0-0.011,0
	c-0.002,0.028-0.018,0.063-0.045,0.084c0.005,0.021-0.012,0.041-0.032,0.045c-0.003,0-0.007,0-0.011,0
	c-0.002,0.029-0.018,0.063-0.043,0.084c-0.002,0.029-0.019,0.063-0.045,0.086c-0.03,0.024-0.059,0.061-0.086,0.09v0.043
	c-0.026,0.021-0.043,0.053-0.045,0.086c-0.021,0.021-0.054,0.041-0.088,0.043c-0.002,0.033-0.018,0.063-0.044,0.086
	c0.003,0.021-0.011,0.043-0.032,0.045c-0.004,0.002-0.008,0.002-0.012,0c-0.003,0.033-0.02,0.063-0.044,0.084v0.088l-0.088,0.09
	c-0.034,0.002-0.065,0.019-0.087,0.043c-0.029,0.025-0.061,0.057-0.09,0.084v0.041l-0.088,0.088c0.004,0.021-0.01,0.041-0.029,0.045
	c-0.004,0-0.008,0-0.012,0c-0.004,0.033-0.021,0.063-0.047,0.084c-0.002,0.033-0.02,0.063-0.043,0.088
	c-0.028,0.029-0.06,0.062-0.09,0.086l-0.043,0.047c-0.027,0.021-0.043,0.056-0.047,0.087c-0.04,0.021-0.084,0.035-0.13,0.044
	c-0.026,0.021-0.043,0.055-0.044,0.089l-0.044,0.041c-0.049,0.021-0.095,0.052-0.133,0.084c-0.05,0.021-0.095,0.054-0.134,0.089
	c-0.027,0.025-0.058,0.063-0.088,0.088c-0.033,0-0.065,0.021-0.086,0.043c-0.027,0.021-0.043,0.059-0.045,0.086
	c-0.022,0.023-0.055,0.039-0.088,0.045l-0.177,0.086c-0.047,0.01-0.093,0.021-0.133,0.043c-0.048,0.021-0.093,0.055-0.13,0.092
	c-0.031,0.023-0.062,0.057-0.09,0.086c-0.021,0.021-0.054,0.041-0.086,0.043c-0.05,0.021-0.096,0.051-0.136,0.086l-0.176,0.088
	c-0.041,0.021-0.086,0.037-0.132,0.043c-0.004,0.033-0.02,0.063-0.043,0.084l-0.047,0.043c-0.047,0.021-0.09,0.055-0.129,0.09
	c-0.022,0.023-0.056,0.039-0.089,0.043c-0.055,0.025-0.115,0.043-0.177,0.045c-0.022,0.023-0.055,0.039-0.089,0.041
	c-0.048-0.004-0.096,0.012-0.132,0.045c-0.063,0.02-0.124,0.047-0.177,0.086c-0.041,0.021-0.086,0.037-0.133,0.043
	c-0.041,0.021-0.085,0.037-0.131,0.043c-0.076-0.004-0.151,0.013-0.221,0.045h-0.091c-0.054,0.027-0.113,0.041-0.173,0.043
	c-0.057,0.027-0.117,0.041-0.18,0.043c-0.047,0.021-0.092,0.051-0.13,0.084L16.745,32.2l-0.087,0.041h-0.267
	c-0.026,0.021-0.043,0.056-0.045,0.089H16.26c-0.055,0.027-0.115,0.046-0.178,0.046c-0.047,0.005-0.092,0.021-0.133,0.041h-0.087
	c-0.037,0.028-0.085,0.046-0.132,0.041c-0.104,0-0.208,0.017-0.308,0.046H15.29c-0.036,0.03-0.084,0.048-0.132,0.043
	c-0.062,0.002-0.123,0.021-0.177,0.045h-0.045c-0.054,0.024-0.113,0.044-0.173,0.044c-0.075,0.003-0.15,0.021-0.221,0.041
	c-0.041,0.021-0.085,0.038-0.132,0.046c-0.038,0.028-0.085,0.045-0.133,0.041h-0.4c-0.059,0.025-0.117,0.063-0.176,0.088
	c-0.041,0.021-0.086,0.039-0.133,0.043c-0.037,0.032-0.084,0.051-0.132,0.049c-0.104,0.002-0.207,0.02-0.307,0.043h-0.04
	c-0.037,0.027-0.084,0.047-0.133,0.045h-1.98c-0.062-0.004-0.122-0.021-0.177-0.045h-0.042c-0.023-0.023-0.056-0.041-0.09-0.043
	c-0.071-0.023-0.146-0.043-0.221-0.049c-0.057-0.021-0.117-0.06-0.176-0.086c0.003-0.021-0.012-0.043-0.034-0.045
	c-0.003,0-0.006,0-0.01,0h-0.042c-0.13,0.008-0.257-0.039-0.352-0.131l-0.046-0.041c-0.04-0.021-0.085-0.037-0.131-0.045
	c-0.086-0.025-0.176-0.043-0.266-0.043l-0.087-0.046H9.258c-0.071-0.022-0.145-0.039-0.219-0.044
	c-0.06-0.023-0.119-0.057-0.177-0.086l-0.176-0.087H8.559c-0.089-0.026-0.176-0.058-0.263-0.089
	c-0.028-0.026-0.06-0.061-0.087-0.086H8.164c-0.057-0.021-0.117-0.034-0.177-0.041c-0.088-0.024-0.177-0.061-0.263-0.086
	c-0.035-0.002-0.068-0.02-0.09-0.045H7.589c-0.057-0.021-0.116-0.035-0.176-0.043c-0.071-0.033-0.145-0.063-0.22-0.086
	c-0.04-0.035-0.084-0.063-0.133-0.09c-0.061,0-0.121-0.014-0.175-0.041c-0.072-0.031-0.146-0.063-0.223-0.088
	c-0.025-0.021-0.04-0.055-0.041-0.088c-0.056-0.021-0.116-0.035-0.177-0.035c-0.029-0.025-0.059-0.055-0.089-0.086
	c-0.034-0.002-0.065-0.02-0.089-0.041C6.239,31.27,6.21,31.24,6.18,31.211c-0.043-0.01-0.078-0.045-0.089-0.088
	c-0.034-0.002-0.065-0.018-0.088-0.041c-0.028-0.029-0.059-0.059-0.089-0.088c-0.027-0.029-0.057-0.063-0.087-0.086
	c-0.037-0.031-0.084-0.051-0.132-0.045c-0.04-0.035-0.083-0.063-0.13-0.088c-0.021,0.004-0.041-0.019-0.043-0.031
	c0-0.01,0-0.018,0.002-0.021c-0.03-0.022-0.059-0.063-0.087-0.086c-0.022-0.021-0.055-0.045-0.09-0.047
	c-0.003-0.031-0.018-0.063-0.043-0.084c-0.026-0.021-0.042-0.059-0.045-0.089L5.172,30.33c-0.022-0.021-0.054-0.038-0.087-0.041
	c-0.03-0.027-0.059-0.059-0.087-0.09c-0.021,0.006-0.042-0.01-0.045-0.027c0-0.005,0-0.011,0-0.014L4.777,30.07
	c0.003-0.021-0.011-0.041-0.032-0.045c-0.003,0-0.006,0-0.01,0c-0.027-0.021-0.043-0.051-0.047-0.086
	C4.659,29.911,4.63,29.882,4.6,29.854c-0.03-0.027-0.058-0.06-0.089-0.084c-0.034-0.004-0.065-0.021-0.086-0.045
	c-0.002-0.035-0.019-0.064-0.044-0.089c-0.034-0.002-0.066-0.018-0.089-0.043c-0.003-0.032-0.019-0.063-0.044-0.084
	c0.003-0.021-0.011-0.039-0.032-0.043c-0.004,0-0.008,0-0.012,0C4.201,29.434,4.185,29.4,4.16,29.378
	c-0.025-0.022-0.041-0.053-0.043-0.086c-0.029-0.026-0.059-0.058-0.09-0.084c-0.067-0.013-0.12-0.063-0.133-0.131
	c-0.021,0.004-0.041-0.013-0.044-0.033c0-0.002,0-0.006,0-0.01V28.95L3.807,28.9v-0.09c-0.028-0.029-0.06-0.063-0.088-0.095
	c-0.002-0.026-0.019-0.063-0.044-0.084c-0.021,0.009-0.042-0.014-0.044-0.028c0-0.004,0-0.013,0-0.017
	c-0.025-0.021-0.041-0.051-0.043-0.084L3.544,28.46c-0.003-0.03-0.019-0.063-0.045-0.086L3.412,28.29
	c-0.029-0.024-0.058-0.063-0.087-0.088c-0.003-0.033-0.019-0.063-0.044-0.088v-0.123c-0.007-0.035-0.027-0.066-0.057-0.086
	c-0.002-0.033-0.019-0.064-0.044-0.091c-0.021,0.009-0.041-0.01-0.044-0.024c0-0.006-0.001-0.01,0-0.019
	c-0.034-0.002-0.065-0.018-0.087-0.041v-0.09c-0.002-0.031-0.019-0.063-0.046-0.084V27.51c-0.002-0.031-0.018-0.063-0.043-0.088
	c-0.002-0.031-0.02-0.063-0.046-0.084c0.003-0.021-0.011-0.041-0.032-0.045c-0.003,0-0.007,0-0.011,0V27.17
	c-0.002-0.033-0.019-0.064-0.044-0.084v-0.088c-0.021,0.004-0.042-0.012-0.045-0.031c0-0.004,0-0.008,0-0.012
	c-0.003-0.033-0.019-0.063-0.043-0.084v-0.088c0.003-0.021-0.013-0.043-0.035-0.045c-0.003,0-0.007,0-0.011,0v-0.086
	c-0.021,0.002-0.04-0.021-0.041-0.037c0-0.002,0-0.006,0-0.01V26.52l-0.044-0.047v-0.084c-0.03-0.057-0.059-0.113-0.087-0.17
	l-0.044-0.047v-0.127c-0.003-0.035-0.02-0.066-0.046-0.086v-0.301C2.41,25.66,2.39,25.645,2.389,25.623c0-0.004,0-0.006,0-0.01
	L2.3,25.525V25.05c-0.025-0.021-0.042-0.053-0.044-0.086v-0.043C2.23,24.9,2.214,24.868,2.212,24.835v-0.133
	c-0.003-0.033-0.02-0.063-0.046-0.086v-0.041c-0.003-0.033-0.019-0.064-0.044-0.086v-2.72c0.026-0.021,0.042-0.059,0.044-0.088
	C2.17,21.65,2.187,21.618,2.212,21.6V21.12c0.002-0.035,0.019-0.063,0.044-0.088v-0.041c0.022,0.002,0.042-0.017,0.044-0.037
	c0-0.002,0-0.006,0-0.009V20.55c0.029-0.022,0.059-0.058,0.089-0.086h0.044v-0.388c0.003-0.033,0.02-0.063,0.046-0.086v-0.26
	c0.026-0.021,0.042-0.055,0.044-0.088c0.021,0.004,0.041-0.017,0.043-0.033c0-0.004,0-0.006,0-0.008
	c0.029-0.027,0.058-0.063,0.089-0.088V19.43c-0.003-0.021,0.012-0.039,0.032-0.041c0.003,0,0.007,0,0.011,0v-0.22
	c0.026-0.021,0.042-0.055,0.046-0.088v-0.043l0.087-0.088c0.003-0.033,0.019-0.063,0.044-0.084v-0.043
	c0.021,0.002,0.04-0.015,0.043-0.033c0-0.004,0-0.006,0-0.01c0.025-0.021,0.042-0.056,0.045-0.087
	c0.025-0.021,0.041-0.06,0.043-0.09v-0.127c0.027-0.021,0.044-0.053,0.046-0.087V18.27c0.022,0.002,0.042-0.013,0.044-0.036
	c0-0.003,0-0.006,0-0.009c0.025-0.021,0.041-0.052,0.043-0.085c0.029-0.029,0.06-0.058,0.089-0.088l0.044-0.042v-0.086
	c0.025-0.021,0.041-0.053,0.044-0.086l0.087-0.087L3.49,17.67c0.026-0.021,0.042-0.052,0.045-0.086
	c0.025-0.022,0.041-0.054,0.044-0.088l0.043-0.041c0.025-0.023,0.041-0.055,0.044-0.089c0.026-0.021,0.042-0.053,0.044-0.087
	c0.028-0.028,0.06-0.055,0.089-0.084c0.021,0.002,0.041-0.013,0.043-0.034c0-0.003,0-0.006,0-0.009
	c0.034-0.002,0.066-0.018,0.09-0.043l0.087-0.088l0.09-0.084l0.043-0.043c0.026-0.022,0.042-0.055,0.044-0.089
	c0.029-0.026,0.06-0.055,0.088-0.084c0.028-0.029,0.06-0.058,0.089-0.088c0.021,0.003,0.041-0.012,0.044-0.033
	c0-0.003,0-0.006,0-0.009c0.033-0.002,0.064-0.017,0.086-0.042l0.088-0.089c0.029-0.027,0.059-0.057,0.089-0.086l0.044-0.04
	c0.024-0.022,0.04-0.052,0.042-0.085c0.031-0.029,0.059-0.057,0.087-0.087c0.022-0.026,0.054-0.042,0.088-0.045
	c0.004-0.033,0.02-0.063,0.046-0.084c0.061-0.001,0.121-0.017,0.175-0.044c0.029-0.028,0.058-0.057,0.087-0.086
	c0.04-0.035,0.085-0.064,0.134-0.087h0.266l0.086-0.087c0.058-0.028,0.12-0.058,0.176-0.088c0.065-0.015,0.125-0.045,0.178-0.086
	c0.061,0,0.121-0.014,0.175-0.041c0.069-0.032,0.145-0.046,0.221-0.043c0.035-0.002,0.067-0.019,0.089-0.045h0.05
	c0.054-0.027,0.113-0.042,0.173-0.042c0.039-0.024,0.082-0.04,0.127-0.046c0.055-0.027,0.114-0.042,0.175-0.042h0.133
	c0.061,0,0.121-0.015,0.176-0.042h0.044c0.054-0.028,0.115-0.043,0.176-0.045c0.131-0.029,0.266-0.043,0.4-0.041
	c0.04-0.036,0.085-0.065,0.134-0.087c0.061,0,0.121-0.016,0.176-0.043c0.022-0.024,0.053-0.039,0.086-0.04
	c0.048,0.003,0.096-0.012,0.133-0.043l0.044-0.043h0.176c0.266,0,0.544-0.013,0.836-0.042h0.221v-0.048h0.438v-1.643
	c-0.026-0.02-0.043-0.049-0.048-0.081v-0.651H9.877c-0.003-0.033-0.019-0.064-0.043-0.086v-0.172H9.701V6.542
	c-0.28,0-0.559,0.014-0.837,0.042H8.732C8.678,6.613,8.618,6.627,8.557,6.627H8.383c-0.069-0.029-0.144-0.044-0.22-0.043
	c-0.05,0.005-0.1-0.01-0.139-0.042C7.953,6.507,7.88,6.478,7.804,6.455C7.778,6.434,7.762,6.404,7.76,6.371
	C7.732,6.342,7.701,6.314,7.673,6.283c-0.021,0.004-0.04-0.01-0.044-0.031c0-0.004,0-0.008,0-0.012
	C7.603,6.219,7.587,6.187,7.585,6.153V6.109C7.56,6.088,7.544,6.056,7.542,6.023V5.802C7.54,5.781,7.555,5.761,7.576,5.759
	c0.003,0,0.007,0,0.01,0V5.678C7.588,5.644,7.605,5.613,7.63,5.591l0.044-0.043l0.09-0.086l0.044-0.043
	c0.055-0.028,0.115-0.044,0.177-0.045h0.039V4.988L8.07,4.945l0.089-0.086c0.025-0.022,0.042-0.053,0.044-0.087
	c0.026-0.03,0.058-0.058,0.086-0.088C8.286,4.662,8.302,4.642,8.323,4.639c0.003,0,0.007,0,0.01,0l0.091-0.084
	C8.472,4.559,8.52,4.544,8.557,4.513L8.601,4.47h0.793V4.426c0.023-0.025,0.055-0.041,0.09-0.043
	c0.027-0.028,0.057-0.057,0.087-0.086c0.048,0.004,0.096-0.011,0.132-0.042V4.126h6.473V3.088c0.037-0.031,0.085-0.046,0.134-0.043
	V3.002h1.145v0.3l0.044,0.045v0.087c0.026,0.021,0.042,0.052,0.044,0.086l0.044,0.043v0.039c0.026,0.021,0.042,0.053,0.043,0.087
	V3.78c0.003,0.021-0.013,0.041-0.034,0.043c-0.003,0-0.006,0-0.009,0V3.91c-0.025,0.021-0.042,0.051-0.044,0.084
	c-0.026,0.022-0.042,0.054-0.044,0.088v0.174h0.176c0.031,0.028,0.06,0.057,0.087,0.084c0.023,0.026,0.056,0.042,0.09,0.043
	c0.026,0.022,0.042,0.054,0.045,0.088c0.033,0.003,0.065,0.018,0.088,0.043c0.025,0.023,0.04,0.055,0.041,0.089l0.045,0.041
	c0.025,0.022,0.04,0.054,0.043,0.088c0.025,0.022,0.043,0.054,0.045,0.088v0.04c0.025,0.021,0.041,0.053,0.043,0.086v0.128
	C18.2,5.108,18.184,5.138,18.159,5.16v0.042h0.047c0.002,0.033,0.018,0.065,0.043,0.087v0.085c0.027,0.021,0.043,0.054,0.046,0.088
	l0.042,0.04v0.177c0.026,0.021,0.043,0.053,0.046,0.086h0.043c0.025,0.021,0.041,0.053,0.043,0.086
	c0.034,0.003,0.065,0.018,0.089,0.043c0.025,0.022,0.041,0.054,0.043,0.088l0.046,0.042c0.025,0.022,0.041,0.053,0.043,0.086
	l0.045,0.043v0.085l0.046,0.044V6.37c0.002,0.033,0.021,0.063,0.046,0.084v0.087l0.043,0.042V6.67l0.043,0.043v0.089l0.045,0.045
	c0.002,0.033,0.018,0.064,0.043,0.087v0.082c0.027,0.028,0.059,0.058,0.089,0.087c0.021-0.003,0.043,0.012,0.046,0.033
	c0,0.003,0.002,0.006,0,0.009c0.024,0.022,0.041,0.054,0.043,0.087V7.36l0.049,0.042c0.027,0.029,0.059,0.059,0.088,0.086
	c0.002,0.034,0.019,0.065,0.045,0.087c0.002,0.033,0.018,0.064,0.043,0.087v0.04c0.025,0.022,0.041,0.053,0.043,0.087v0.046
	c0.027,0.021,0.043,0.053,0.045,0.087c0.033,0.002,0.064,0.018,0.086,0.043v0.087c0.025,0.021,0.042,0.053,0.044,0.087v0.085
	c0.021-0.003,0.042,0.012,0.044,0.034c0.001,0.003,0.001,0.006,0.001,0.009c0.026,0.021,0.042,0.053,0.044,0.087v0.043
	c-0.002,0.035,0.014,0.066,0.039,0.089l0.044,0.041c0.003,0.035,0.021,0.066,0.047,0.087c0.002,0.033,0.017,0.063,0.041,0.087v0.043
	c0.027,0.021,0.044,0.052,0.048,0.086c0.025,0.021,0.041,0.053,0.043,0.087l0.043,0.041C20.005,8.986,20.024,9.002,20.052,9.002z
	 M3.453,21.516v-0.213l-0.044,0.043v0.086c-0.025,0.021-0.041,0.053-0.043,0.086v0.258c0.002-0.026,0.018-0.063,0.043-0.086v-0.088
	c0.02,0.004,0.04-0.008,0.043-0.021c0.001-0.013,0.001-0.017,0-0.021v-0.047L3.453,21.516L3.453,21.516z"/>
<g>
	<defs>
		<path id="SVGID_1_" d="M20.052,9.002v0.085c0.025,0.022,0.04,0.054,0.043,0.087c0.002,0.034,0.018,0.065,0.043,0.087v0.041
			c0.027,0.021,0.043,0.053,0.045,0.087c0.03,0.028,0.06,0.057,0.088,0.086V9.52c-0.002,0.021,0.013,0.04,0.033,0.042
			c0.004,0,0.008,0,0.01,0v0.087c0.027,0.021,0.043,0.053,0.045,0.087c0.002,0.035,0.021,0.066,0.045,0.088l0.045,0.042v0.085
			c0.025,0.021,0.044,0.052,0.046,0.086l0.044,0.045v0.13c0.027,0.029,0.061,0.055,0.089,0.086c0.002,0.034,0.019,0.065,0.042,0.088
			l0.044,0.043v0.086c0.027,0.021,0.043,0.053,0.046,0.087v0.043c0.021-0.003,0.04,0.01,0.043,0.03c0.002,0.004,0.002,0.008,0,0.012
			v0.086c0.026,0.021,0.043,0.053,0.045,0.087c0.025,0.021,0.043,0.053,0.045,0.087c0.021-0.002,0.041,0.014,0.043,0.036
			c0,0.002,0,0.005,0,0.007c0.026,0.022,0.043,0.053,0.047,0.087c0.023,0.021,0.039,0.052,0.041,0.085h0.088
			c0,0.029,0.029,0.045,0.09,0.045c0.029,0.027,0.058,0.055,0.087,0.084c0.026,0.021,0.042,0.053,0.046,0.087
			c0.023,0.022,0.04,0.053,0.043,0.086v0.088c0.025,0.021,0.041,0.051,0.044,0.083c0.002,0.034,0.019,0.065,0.044,0.086v0.046
			c0.002,0.033,0.018,0.063,0.044,0.084v0.088c0.026,0.021,0.042,0.052,0.044,0.086c0.021-0.004,0.041,0.01,0.047,0.031
			c0,0.003,0,0.007,0,0.011v0.045c0.025,0.021,0.041,0.052,0.043,0.086v0.085l0.043,0.043c0.004,0.033,0.021,0.063,0.047,0.084
			c0.002,0.034,0.019,0.065,0.043,0.087v0.087c0.021-0.003,0.041,0.01,0.045,0.031c0,0.004,0,0.008,0,0.012l0.043,0.045
			c0.027,0.021,0.044,0.052,0.044,0.086c0.024,0.021,0.04,0.052,0.045,0.085v0.045c0.024,0.022,0.041,0.053,0.044,0.086
			c0.023,0.022,0.041,0.053,0.045,0.087l0.044,0.042c0.024,0.021,0.042,0.051,0.044,0.084l0.046,0.046v0.087
			c0.025,0.021,0.041,0.052,0.042,0.085l0.047,0.043c0.002,0.034,0.02,0.065,0.045,0.087c0,0.033,0.016,0.063,0.041,0.085v0.043
			c0.026,0.021,0.045,0.052,0.047,0.087l0.043,0.043c0.025,0.021,0.043,0.051,0.045,0.085c-0.002,0.021,0.012,0.04,0.033,0.043
			c0.002,0,0.006,0,0.01,0v0.087c0.029,0.058,0.061,0.116,0.09,0.174l0.045,0.042c0.025,0.022,0.041,0.053,0.044,0.087l0.043,0.043
			v0.089l0.043,0.042v0.085c0.003,0.034,0.019,0.065,0.045,0.087v0.088c0.021-0.003,0.04,0.01,0.044,0.031c0,0.003,0,0.006,0,0.01
			c0.025,0.021,0.042,0.054,0.043,0.088v0.042c0.031,0.029,0.061,0.057,0.09,0.087l0.045,0.045v0.085
			c0.002,0.033,0.018,0.064,0.043,0.086v0.084c0.021-0.004,0.041,0.01,0.045,0.031c0,0.004,0.002,0.007,0,0.011v0.088l0.043,0.045
			v0.085l0.039,0.047c0.004,0.032,0.02,0.062,0.043,0.083c0.004,0.034,0.021,0.065,0.047,0.086v0.131
			c0.025,0.021,0.041,0.052,0.043,0.086l0.045,0.045c0.029,0.026,0.059,0.057,0.091,0.084v0.045
			c0.024,0.022,0.041,0.053,0.043,0.087v0.085l0.044,0.043c0.025,0.021,0.042,0.053,0.044,0.086v0.089l0.05,0.043v0.042l0.088,0.088
			c0.002,0.033,0.019,0.063,0.045,0.084c0.002,0.034,0.018,0.066,0.043,0.089c-0.002,0.021,0.014,0.042,0.035,0.043
			c0.004,0,0.006,0,0.008,0v0.172l0.088,0.087c0.029,0.028,0.059,0.057,0.088,0.084v0.087c0.027,0.028,0.059,0.059,0.088,0.089
			v0.041c0.025,0.022,0.041,0.054,0.043,0.088c0.027,0.021,0.043,0.052,0.046,0.086v0.043c0.022,0.026,0.054,0.042,0.088,0.045
			c0.028,0.058,0.06,0.115,0.089,0.172c0.002,0.034,0.018,0.065,0.044,0.086v0.13c0.025,0.021,0.04,0.053,0.042,0.086l0.047,0.045
			c0.033,0.001,0.064,0.017,0.088,0.043v0.085c0.024,0.022,0.041,0.054,0.043,0.086l0.041,0.043v0.174
			c0.035,0.002,0.066,0.016,0.09,0.041c0.002,0.033,0.019,0.066,0.043,0.088c0.021-0.004,0.041,0.01,0.043,0.031
			c0.002,0.004,0.002,0.006,0,0.01c0.005,0.033,0.021,0.064,0.046,0.086v0.438c-0.021-0.004-0.041,0.01-0.044,0.028
			c-0.002,0.002-0.002,0.009-0.002,0.013v0.086l-0.043,0.043v5l0.043,0.045v0.086c0.004,0.033,0.02,0.063,0.046,0.086v1.253
			l0.048,0.053v0.08l0.044,0.047v1.854l0.043,0.043c0.002,0.033,0.019,0.063,0.044,0.086v1.556c-0.021-0.002-0.04,0.016-0.044,0.028
			c0,0.007,0,0.011,0,0.015V29.9c-0.026,0.021-0.043,0.055-0.043,0.088v1.684c-0.002,0.033-0.019,0.064-0.044,0.086v0.086
			c-0.003,0.033-0.02,0.064-0.044,0.088l-0.045,0.043c-0.002,0.033-0.019,0.063-0.043,0.084c-0.025,0.021-0.041,0.053-0.043,0.086
			c-0.025,0.021-0.042,0.059-0.046,0.088h-0.049c0,0.033-0.018,0.064-0.043,0.086h-0.051c-0.063,0.021-0.123,0.054-0.176,0.092
			c-0.063,0-0.122,0.017-0.178,0.035h-0.309c-0.056-0.021-0.113-0.035-0.176-0.035c-0.04-0.032-0.085-0.063-0.132-0.092
			c-0.003-0.026-0.021-0.063-0.046-0.086v-0.346l0.046-0.043c0.028-0.027,0.06-0.059,0.087-0.086
			c0.027-0.029,0.061-0.057,0.087-0.086h0.177c0.028-0.029,0.059-0.059,0.088-0.088v-7.678c-0.025-0.021-0.041-0.053-0.043-0.086
			c-0.023-0.027-0.056-0.043-0.09-0.045v-1.127c-0.025-0.021-0.041-0.06-0.043-0.086v-0.045c-0.027-0.021-0.043-0.06-0.045-0.086
			v-1.349c-0.025-0.022-0.055-0.062-0.086-0.084v-0.521c-0.025-0.021-0.042-0.051-0.044-0.084c-0.024-0.021-0.041-0.059-0.043-0.086
			V19.96l-0.044-0.041c-0.025-0.021-0.043-0.055-0.046-0.088v-0.258c-0.026-0.021-0.042-0.056-0.044-0.091V19.4
			c-0.021,0.004-0.041-0.012-0.044-0.031c0-0.004,0-0.006,0-0.012c-0.002-0.031-0.019-0.064-0.043-0.088v-0.086
			c-0.034-0.002-0.066-0.021-0.089-0.043V18.62c-0.021,0.004-0.041-0.011-0.045-0.031c-0.002-0.004-0.002-0.008-0.002-0.012
			c-0.021,0.004-0.041-0.013-0.043-0.033c-0.002-0.004,0-0.008,0-0.012c-0.004-0.033-0.02-0.063-0.047-0.083
			c-0.002-0.034-0.018-0.065-0.043-0.087V18.28c-0.021,0.002-0.041-0.013-0.043-0.035c0-0.003,0-0.006,0-0.01
			c-0.003-0.033-0.019-0.064-0.043-0.085c-0.027-0.022-0.044-0.054-0.047-0.088c-0.02,0.003-0.039-0.01-0.043-0.03
			c0-0.004,0-0.008,0-0.012v-0.043c-0.025-0.021-0.042-0.053-0.045-0.086c-0.027-0.029-0.059-0.059-0.089-0.087
			c0.003-0.021-0.013-0.04-0.032-0.043c-0.004,0-0.008,0-0.011,0c-0.003-0.034-0.019-0.065-0.044-0.087v-0.085
			c-0.026-0.022-0.043-0.054-0.047-0.088V17.46l-0.039-0.043c-0.002-0.034-0.018-0.064-0.043-0.086
			c-0.002-0.033-0.018-0.063-0.043-0.084c0.004-0.021-0.012-0.042-0.032-0.045c-0.005,0-0.009,0-0.015,0v-0.087
			c-0.025-0.022-0.041-0.054-0.043-0.088c-0.026-0.021-0.043-0.051-0.045-0.084h-0.043v-0.088c-0.002-0.034-0.019-0.065-0.045-0.086
			v-0.087c-0.022-0.026-0.056-0.041-0.09-0.042c-0.001-0.033-0.017-0.063-0.042-0.084h-0.09c-0.039-0.037-0.083-0.067-0.132-0.089
			c-0.026-0.021-0.042-0.052-0.042-0.086c-0.035-0.001-0.067-0.017-0.091-0.043V16.25c-0.025-0.021-0.043-0.053-0.045-0.087
			l-0.043-0.045v-0.083c-0.032-0.004-0.063-0.02-0.088-0.044l-0.09-0.086c-0.002-0.033-0.018-0.064-0.043-0.087v-0.045
			c-0.002-0.033-0.018-0.064-0.044-0.085c-0.001-0.034-0.019-0.066-0.046-0.086c0.004-0.022-0.01-0.042-0.031-0.047
			c-0.004,0-0.009,0-0.013,0v-0.081c-0.021,0.003-0.041-0.012-0.044-0.033c-0.001-0.004,0-0.008,0-0.012
			c-0.032-0.027-0.059-0.057-0.087-0.087v-0.04c-0.003-0.033-0.019-0.064-0.043-0.087v-0.087l-0.088-0.086l-0.046-0.04
			c-0.029-0.03-0.061-0.058-0.09-0.087V14.74l-0.086-0.088l-0.094-0.086c-0.003-0.033-0.019-0.063-0.044-0.085l-0.044-0.042
			c-0.025-0.022-0.041-0.053-0.044-0.087L20.75,14.31v-0.088c-0.021,0.003-0.042-0.011-0.045-0.033
			c-0.001-0.003-0.002-0.006-0.001-0.009l-0.079-0.087c-0.003-0.035-0.02-0.067-0.047-0.09c-0.027-0.021-0.043-0.053-0.044-0.087
			l-0.044-0.043c-0.026-0.021-0.043-0.052-0.045-0.086c-0.035-0.002-0.066-0.018-0.09-0.043V13.66
			c-0.021,0.002-0.041-0.012-0.043-0.034c-0.002-0.003-0.002-0.006,0-0.009c-0.026-0.022-0.043-0.053-0.045-0.086
			c-0.027-0.03-0.059-0.059-0.086-0.087c0.002-0.021-0.015-0.041-0.035-0.043c-0.004,0-0.008,0-0.013,0
			c-0.002-0.034-0.018-0.064-0.044-0.086c-0.027-0.031-0.058-0.059-0.087-0.087l-0.044-0.046l-0.09-0.079l-0.045-0.046
			c-0.004-0.034-0.021-0.065-0.049-0.087v-0.086c-0.021-0.025-0.053-0.042-0.086-0.045c-0.004-0.033-0.02-0.063-0.045-0.085
			c-0.024-0.022-0.041-0.052-0.045-0.086c-0.021,0.002-0.041-0.014-0.043-0.036c0-0.003,0-0.006,0-0.009
			c-0.021-0.026-0.053-0.042-0.086-0.043c-0.027-0.021-0.043-0.053-0.045-0.087c-0.002-0.034-0.019-0.065-0.044-0.087
			c-1.116,0-2.247,0.015-3.391,0.043c0.003,0.021-0.013,0.041-0.034,0.043c-0.004,0-0.007,0-0.01,0
			c-0.002,0.033-0.018,0.064-0.043,0.087v2.505h0.176c0.09,0,0.178,0.014,0.264,0.042c-0.004,0.022,0.012,0.042,0.033,0.045
			c0.004,0,0.008,0,0.012,0c0.087,0.022,0.176,0.036,0.264,0.041c0.063,0.001,0.122,0.017,0.177,0.045h0.094
			c0.189,0.029,0.381,0.043,0.572,0.042h0.221c0.022,0.026,0.054,0.041,0.087,0.042c0.021,0.027,0.053,0.043,0.088,0.046
			c0.047-0.003,0.096,0.012,0.133,0.042h0.045c0.1,0.027,0.203,0.042,0.307,0.045c0.076-0.003,0.15,0.012,0.221,0.043
			c0.021,0.024,0.052,0.039,0.085,0.041h0.09c0.05-0.004,0.098,0.013,0.131,0.047h0.09c0.056,0.025,0.115,0.039,0.176,0.039
			c0.075,0.003,0.148,0.019,0.223,0.045l0.088,0.085c0.039,0.023,0.084,0.039,0.129,0.045h0.091c0.089,0,0.178,0.016,0.262,0.045
			c0.031,0.027,0.06,0.057,0.091,0.086c0.037,0.037,0.082,0.066,0.131,0.087c0.059,0.027,0.116,0.057,0.176,0.084
			c0.048,0.005,0.093,0.021,0.134,0.045c0.036,0.031,0.084,0.047,0.133,0.043c0.058,0.029,0.115,0.058,0.175,0.084
			c0.012,0.042,0.047,0.076,0.09,0.087l0.037,0.045c0.028,0.028,0.061,0.057,0.088,0.086c0.027,0.029,0.059,0.057,0.088,0.087v0.042
			c0.049,0.021,0.094,0.051,0.133,0.088c0.037,0.031,0.084,0.046,0.133,0.042c0.012,0.042,0.045,0.075,0.087,0.086
			c0.002,0.034,0.019,0.066,0.044,0.088c0.033,0.002,0.064,0.018,0.088,0.043c0.025,0.021,0.042,0.051,0.044,0.084
			c0.028,0.031,0.058,0.059,0.087,0.088c0.023,0.024,0.055,0.04,0.088,0.043l0.088,0.084l0.043,0.045
			c0.028,0.029,0.06,0.057,0.09,0.086c-0.004,0.021,0.012,0.042,0.031,0.045c0.004,0,0.008,0.001,0.012,0
			c0.003,0.033,0.02,0.063,0.044,0.084c0.026,0.021,0.044,0.053,0.047,0.087c0.024,0.022,0.04,0.053,0.042,0.086l0.046,0.045
			c0.024,0.021,0.041,0.053,0.044,0.087l0.042,0.043v0.086l0.047,0.042v0.08c0.024,0.022,0.039,0.053,0.042,0.086
			c0.026,0.021,0.045,0.053,0.047,0.088v0.043c0.024,0.022,0.041,0.053,0.043,0.086v0.045l0.088,0.084v0.047
			c0.002,0.033,0.02,0.063,0.047,0.086v0.172c0.02-0.004,0.039,0.013,0.043,0.031c0,0.004,0,0.008,0,0.012
			c0.025,0.021,0.041,0.054,0.043,0.086v0.043c0.025,0.021,0.041,0.054,0.043,0.087v0.129c0.004,0.034,0.02,0.065,0.047,0.088v0.129
			c0.025,0.021,0.041,0.059,0.043,0.086l0.043,0.049v0.088c0.021-0.004,0.041,0.01,0.045,0.023c0,0.004,0,0.016,0,0.02v0.084
			c0.002,0.027,0.018,0.063,0.044,0.088v0.043c0.002,0.033,0.019,0.063,0.045,0.086v0.131c0.002,0.031,0.019,0.063,0.043,0.092
			v0.043c0.026,0.021,0.043,0.053,0.046,0.086c0.025,0.021,0.041,0.053,0.043,0.086l0.045,0.043c0.027,0.06,0.057,0.117,0.088,0.174
			v0.087c0.002,0.034,0.019,0.065,0.043,0.088v0.086c0.002,0.035,0.021,0.065,0.047,0.089v0.043
			c0.024,0.021,0.041,0.053,0.043,0.086c0.025,0.021,0.043,0.056,0.045,0.088v0.041l0.046,0.045v0.391
			c0.024,0.021,0.041,0.057,0.043,0.09v0.041l0.045,0.045v2.068c-0.026,0.021-0.042,0.059-0.045,0.09
			c-0.025,0.021-0.041,0.053-0.043,0.085V24.6c-0.003,0.032-0.019,0.063-0.043,0.09v0.086c-0.005,0.031-0.021,0.063-0.046,0.089
			l-0.043,0.043v0.168L23.353,25.1v0.041c-0.024,0.021-0.041,0.053-0.043,0.088v0.215c-0.031,0.063-0.061,0.115-0.088,0.179
			l-0.045,0.047v0.043c-0.025,0.021-0.041,0.056-0.043,0.086v0.088c0.002,0.021-0.014,0.039-0.035,0.041
			c-0.004,0.003-0.008,0-0.011,0v0.084c-0.024,0.021-0.041,0.06-0.043,0.087v0.086l-0.089,0.092
			c-0.002,0.029-0.018,0.063-0.044,0.088v0.084c0.003,0.021-0.011,0.039-0.031,0.043c-0.004,0-0.008,0-0.012,0
			c-0.003,0.031-0.019,0.063-0.044,0.088c-0.002,0.035-0.02,0.063-0.045,0.088v0.086l-0.041,0.045v0.041
			c-0.027,0.029-0.061,0.059-0.088,0.09V27c-0.021-0.004-0.043,0.01-0.045,0.033c0,0.002-0.002,0.006,0,0.01v0.086
			c-0.025,0.021-0.043,0.051-0.045,0.084c-0.002,0.035-0.019,0.066-0.043,0.088v0.045l-0.043,0.043
			c-0.002,0.033-0.02,0.064-0.047,0.086v0.086l-0.039,0.045c-0.002,0.035-0.021,0.066-0.048,0.088v0.082L22.3,27.818
			c-0.025,0.021-0.042,0.058-0.044,0.09l-0.045,0.046c-0.002,0.028-0.019,0.063-0.042,0.086v0.088l-0.045,0.043
			c-0.002,0.033-0.02,0.063-0.044,0.088c-0.003,0.031-0.019,0.063-0.042,0.084c0.001,0.021-0.018,0.041-0.038,0.043
			c-0.003,0-0.006,0-0.008,0c-0.025,0.021-0.042,0.058-0.045,0.087c0.004,0.021-0.013,0.045-0.033,0.049c-0.004,0-0.007,0-0.011,0
			c-0.002,0.028-0.018,0.063-0.045,0.084c0.005,0.021-0.012,0.041-0.032,0.045c-0.003,0-0.007,0-0.011,0
			c-0.002,0.029-0.018,0.063-0.043,0.084c-0.002,0.029-0.019,0.063-0.045,0.086c-0.03,0.024-0.059,0.061-0.086,0.09v0.043
			c-0.026,0.021-0.043,0.053-0.045,0.086c-0.021,0.021-0.054,0.041-0.088,0.043c-0.002,0.033-0.018,0.063-0.044,0.086
			c0.003,0.021-0.011,0.043-0.032,0.045c-0.004,0.002-0.008,0.002-0.012,0c-0.003,0.033-0.02,0.063-0.044,0.084v0.088l-0.088,0.09
			c-0.034,0.002-0.065,0.019-0.087,0.043c-0.029,0.025-0.061,0.057-0.09,0.084v0.041l-0.088,0.088
			c0.004,0.021-0.01,0.041-0.029,0.045c-0.004,0-0.008,0-0.012,0c-0.004,0.033-0.021,0.063-0.047,0.084
			c-0.002,0.033-0.02,0.063-0.043,0.088c-0.028,0.029-0.06,0.062-0.09,0.086l-0.043,0.047c-0.027,0.021-0.043,0.056-0.047,0.087
			c-0.04,0.021-0.084,0.035-0.13,0.044c-0.026,0.021-0.043,0.055-0.044,0.089l-0.044,0.041c-0.049,0.021-0.095,0.052-0.133,0.084
			c-0.05,0.021-0.095,0.054-0.134,0.089c-0.027,0.025-0.058,0.063-0.088,0.088c-0.033,0-0.065,0.021-0.086,0.043
			c-0.027,0.021-0.043,0.059-0.045,0.086c-0.022,0.023-0.055,0.039-0.088,0.045l-0.177,0.086c-0.047,0.01-0.093,0.021-0.133,0.043
			c-0.048,0.021-0.093,0.055-0.13,0.092c-0.031,0.023-0.062,0.057-0.09,0.086c-0.021,0.021-0.054,0.041-0.086,0.043
			c-0.05,0.021-0.096,0.051-0.136,0.086l-0.176,0.088c-0.041,0.021-0.086,0.037-0.132,0.043c-0.004,0.033-0.02,0.063-0.043,0.084
			l-0.047,0.043c-0.047,0.021-0.09,0.055-0.129,0.09c-0.022,0.023-0.056,0.039-0.089,0.043c-0.055,0.025-0.115,0.043-0.177,0.045
			c-0.022,0.023-0.055,0.039-0.089,0.041c-0.048-0.004-0.096,0.012-0.132,0.045c-0.063,0.02-0.124,0.047-0.177,0.086
			c-0.041,0.021-0.086,0.037-0.133,0.043c-0.041,0.021-0.085,0.037-0.131,0.043c-0.076-0.004-0.151,0.013-0.221,0.045h-0.091
			c-0.054,0.027-0.113,0.041-0.173,0.043c-0.057,0.027-0.117,0.041-0.18,0.043c-0.047,0.021-0.092,0.051-0.13,0.084L16.745,32.2
			l-0.087,0.041h-0.267c-0.026,0.021-0.043,0.056-0.045,0.089H16.26c-0.055,0.027-0.115,0.046-0.178,0.046
			c-0.047,0.005-0.092,0.021-0.133,0.041h-0.087c-0.037,0.028-0.085,0.046-0.132,0.041c-0.104,0-0.208,0.017-0.308,0.046H15.29
			c-0.036,0.03-0.084,0.048-0.132,0.043c-0.062,0.002-0.123,0.021-0.177,0.045h-0.045c-0.054,0.024-0.113,0.044-0.173,0.044
			c-0.075,0.003-0.15,0.021-0.221,0.041c-0.041,0.021-0.085,0.038-0.132,0.046c-0.038,0.028-0.085,0.045-0.133,0.041h-0.4
			c-0.059,0.025-0.117,0.063-0.176,0.088c-0.041,0.021-0.086,0.039-0.133,0.043c-0.037,0.032-0.084,0.051-0.132,0.049
			c-0.104,0.002-0.207,0.02-0.307,0.043h-0.04c-0.037,0.027-0.084,0.047-0.133,0.045h-1.98c-0.062-0.004-0.122-0.021-0.177-0.045
			h-0.042c-0.023-0.023-0.056-0.041-0.09-0.043c-0.071-0.023-0.146-0.043-0.221-0.049c-0.057-0.021-0.117-0.06-0.176-0.086
			c0.003-0.021-0.012-0.043-0.034-0.045c-0.003,0-0.006,0-0.01,0h-0.042c-0.13,0.008-0.257-0.039-0.352-0.131l-0.046-0.041
			c-0.04-0.021-0.085-0.037-0.131-0.045c-0.086-0.025-0.176-0.043-0.266-0.043l-0.087-0.046H9.258
			c-0.071-0.022-0.145-0.039-0.219-0.044c-0.06-0.023-0.119-0.057-0.177-0.086l-0.176-0.087H8.559
			c-0.089-0.026-0.176-0.058-0.263-0.089c-0.028-0.026-0.06-0.061-0.087-0.086H8.164c-0.057-0.021-0.117-0.034-0.177-0.041
			c-0.088-0.024-0.177-0.061-0.263-0.086c-0.035-0.002-0.068-0.02-0.09-0.045H7.589c-0.057-0.021-0.116-0.035-0.176-0.043
			c-0.071-0.033-0.145-0.063-0.22-0.086c-0.04-0.035-0.084-0.063-0.133-0.09c-0.061,0-0.121-0.014-0.175-0.041
			c-0.072-0.031-0.146-0.063-0.223-0.088c-0.025-0.021-0.04-0.055-0.041-0.088c-0.056-0.021-0.116-0.035-0.177-0.035
			c-0.029-0.025-0.059-0.055-0.089-0.086c-0.034-0.002-0.065-0.02-0.089-0.041C6.239,31.27,6.21,31.24,6.18,31.211
			c-0.043-0.01-0.078-0.045-0.089-0.088c-0.034-0.002-0.065-0.018-0.088-0.041c-0.028-0.029-0.059-0.059-0.089-0.088
			c-0.027-0.029-0.057-0.063-0.087-0.086c-0.037-0.031-0.084-0.051-0.132-0.045c-0.04-0.035-0.083-0.063-0.13-0.088
			c-0.021,0.004-0.041-0.019-0.043-0.031c0-0.01,0-0.018,0.002-0.021c-0.03-0.022-0.059-0.063-0.087-0.086
			c-0.022-0.021-0.055-0.045-0.09-0.047c-0.003-0.031-0.018-0.063-0.043-0.084c-0.026-0.021-0.042-0.059-0.045-0.089L5.172,30.33
			c-0.022-0.021-0.054-0.038-0.087-0.041c-0.03-0.027-0.059-0.059-0.087-0.09c-0.021,0.006-0.042-0.01-0.045-0.027
			c0-0.005,0-0.011,0-0.014L4.777,30.07c0.003-0.021-0.011-0.041-0.032-0.045c-0.003,0-0.006,0-0.01,0
			c-0.027-0.021-0.043-0.051-0.047-0.086C4.659,29.911,4.63,29.882,4.6,29.854c-0.03-0.027-0.058-0.06-0.089-0.084
			c-0.034-0.004-0.065-0.021-0.086-0.045c-0.002-0.035-0.019-0.064-0.044-0.089c-0.034-0.002-0.066-0.018-0.089-0.043
			c-0.003-0.032-0.019-0.063-0.044-0.084c0.003-0.021-0.011-0.039-0.032-0.043c-0.004,0-0.008,0-0.012,0
			C4.201,29.434,4.185,29.4,4.16,29.378c-0.025-0.022-0.041-0.053-0.043-0.086c-0.029-0.026-0.059-0.058-0.09-0.084
			c-0.067-0.013-0.12-0.063-0.133-0.131c-0.021,0.004-0.041-0.013-0.044-0.033c0-0.002,0-0.006,0-0.01V28.95L3.807,28.9v-0.09
			c-0.028-0.029-0.06-0.063-0.088-0.095c-0.002-0.026-0.019-0.063-0.044-0.084c-0.021,0.009-0.042-0.014-0.044-0.028
			c0-0.004,0-0.013,0-0.017c-0.025-0.021-0.041-0.051-0.043-0.084L3.544,28.46c-0.003-0.03-0.019-0.063-0.045-0.086L3.412,28.29
			c-0.029-0.024-0.058-0.063-0.087-0.088c-0.003-0.033-0.019-0.063-0.044-0.088v-0.123c-0.007-0.035-0.027-0.066-0.057-0.086
			c-0.002-0.033-0.019-0.064-0.044-0.091c-0.021,0.009-0.041-0.01-0.044-0.024c0-0.006-0.001-0.01,0-0.019
			c-0.034-0.002-0.065-0.018-0.087-0.041v-0.09c-0.002-0.031-0.019-0.063-0.046-0.084V27.51c-0.002-0.031-0.018-0.063-0.043-0.088
			c-0.002-0.031-0.02-0.063-0.046-0.084c0.003-0.021-0.011-0.041-0.032-0.045c-0.003,0-0.007,0-0.011,0V27.17
			c-0.002-0.033-0.019-0.064-0.044-0.084v-0.088c-0.021,0.004-0.042-0.012-0.045-0.031c0-0.004,0-0.008,0-0.012
			c-0.003-0.033-0.019-0.063-0.043-0.084v-0.088c0.003-0.021-0.013-0.043-0.035-0.045c-0.003,0-0.007,0-0.011,0v-0.086
			c-0.021,0.002-0.04-0.021-0.041-0.037c0-0.002,0-0.006,0-0.01V26.52l-0.044-0.047v-0.084c-0.03-0.057-0.059-0.113-0.087-0.17
			l-0.044-0.047v-0.127c-0.003-0.035-0.02-0.066-0.046-0.086v-0.301C2.41,25.66,2.39,25.645,2.389,25.623c0-0.004,0-0.006,0-0.01
			L2.3,25.525V25.05c-0.025-0.021-0.042-0.053-0.044-0.086v-0.043C2.23,24.9,2.214,24.868,2.212,24.835v-0.133
			c-0.003-0.033-0.02-0.063-0.046-0.086v-0.041c-0.003-0.033-0.019-0.064-0.044-0.086v-2.72c0.026-0.021,0.042-0.059,0.044-0.088
			C2.17,21.65,2.187,21.618,2.212,21.6V21.12c0.002-0.035,0.019-0.063,0.044-0.088v-0.041c0.022,0.002,0.042-0.017,0.044-0.037
			c0-0.002,0-0.006,0-0.009V20.55c0.029-0.022,0.059-0.058,0.089-0.086h0.044v-0.388c0.003-0.033,0.02-0.063,0.046-0.086v-0.26
			c0.026-0.021,0.042-0.055,0.044-0.088c0.021,0.004,0.041-0.017,0.043-0.033c0-0.004,0-0.006,0-0.008
			c0.029-0.027,0.058-0.063,0.089-0.088V19.43c-0.003-0.021,0.012-0.039,0.032-0.041c0.003,0,0.007,0,0.011,0v-0.22
			c0.026-0.021,0.042-0.055,0.046-0.088v-0.043l0.087-0.088c0.003-0.033,0.019-0.063,0.044-0.084v-0.043
			c0.021,0.002,0.04-0.015,0.043-0.033c0-0.004,0-0.006,0-0.01c0.025-0.021,0.042-0.056,0.045-0.087
			c0.025-0.021,0.041-0.06,0.043-0.09v-0.127c0.027-0.021,0.044-0.053,0.046-0.087V18.27c0.022,0.002,0.042-0.013,0.044-0.036
			c0-0.003,0-0.006,0-0.009c0.025-0.021,0.041-0.052,0.043-0.085c0.029-0.029,0.06-0.058,0.089-0.088l0.044-0.042v-0.086
			c0.025-0.021,0.041-0.053,0.044-0.086l0.087-0.087L3.49,17.67c0.026-0.021,0.042-0.052,0.045-0.086
			c0.025-0.022,0.041-0.054,0.044-0.088l0.043-0.041c0.025-0.023,0.041-0.055,0.044-0.089c0.026-0.021,0.042-0.053,0.044-0.087
			c0.028-0.028,0.06-0.055,0.089-0.084c0.021,0.002,0.041-0.013,0.043-0.034c0-0.003,0-0.006,0-0.009
			c0.034-0.002,0.066-0.018,0.09-0.043l0.087-0.088l0.09-0.084l0.043-0.043c0.026-0.022,0.042-0.055,0.044-0.089
			c0.029-0.026,0.06-0.055,0.088-0.084c0.028-0.029,0.06-0.058,0.089-0.088c0.021,0.003,0.041-0.012,0.044-0.033
			c0-0.003,0-0.006,0-0.009c0.033-0.002,0.064-0.017,0.086-0.042l0.088-0.089c0.029-0.027,0.059-0.057,0.089-0.086l0.044-0.04
			c0.024-0.022,0.04-0.052,0.042-0.085c0.031-0.029,0.059-0.057,0.087-0.087c0.022-0.026,0.054-0.042,0.088-0.045
			c0.004-0.033,0.02-0.063,0.046-0.084c0.061-0.001,0.121-0.017,0.175-0.044c0.029-0.028,0.058-0.057,0.087-0.086
			c0.04-0.035,0.085-0.064,0.134-0.087h0.266l0.086-0.087c0.058-0.028,0.12-0.058,0.176-0.088c0.065-0.015,0.125-0.045,0.178-0.086
			c0.061,0,0.121-0.014,0.175-0.041c0.069-0.032,0.145-0.046,0.221-0.043c0.035-0.002,0.067-0.019,0.089-0.045h0.05
			c0.054-0.027,0.113-0.042,0.173-0.042c0.039-0.024,0.082-0.04,0.127-0.046c0.055-0.027,0.114-0.042,0.175-0.042h0.133
			c0.061,0,0.121-0.015,0.176-0.042h0.044c0.054-0.028,0.115-0.043,0.176-0.045c0.131-0.029,0.266-0.043,0.4-0.041
			c0.04-0.036,0.085-0.065,0.134-0.087c0.061,0,0.121-0.016,0.176-0.043c0.022-0.024,0.053-0.039,0.086-0.04
			c0.048,0.003,0.096-0.012,0.133-0.043l0.044-0.043h0.176c0.266,0,0.544-0.013,0.836-0.042h0.221v-0.048h0.438v-1.643
			c-0.026-0.02-0.043-0.049-0.048-0.081v-0.651H9.877c-0.003-0.033-0.019-0.064-0.043-0.086v-0.172H9.701V6.542
			c-0.28,0-0.559,0.014-0.837,0.042H8.732C8.678,6.613,8.618,6.627,8.557,6.627H8.383c-0.069-0.029-0.144-0.044-0.22-0.043
			c-0.05,0.005-0.1-0.01-0.139-0.042C7.953,6.507,7.88,6.478,7.804,6.455C7.778,6.434,7.762,6.404,7.76,6.371
			C7.732,6.342,7.701,6.314,7.673,6.283c-0.021,0.004-0.04-0.01-0.044-0.031c0-0.004,0-0.008,0-0.012
			C7.603,6.219,7.587,6.187,7.585,6.153V6.109C7.56,6.088,7.544,6.056,7.542,6.023V5.802C7.54,5.781,7.555,5.761,7.576,5.759
			c0.003,0,0.007,0,0.01,0V5.678C7.588,5.644,7.605,5.613,7.63,5.591l0.044-0.043l0.09-0.086l0.044-0.043
			c0.055-0.028,0.115-0.044,0.177-0.045h0.039V4.988L8.07,4.945l0.089-0.086c0.025-0.022,0.042-0.053,0.044-0.087
			c0.026-0.03,0.058-0.058,0.086-0.088C8.286,4.662,8.302,4.642,8.323,4.639c0.003,0,0.007,0,0.01,0l0.091-0.084
			C8.472,4.559,8.52,4.544,8.557,4.513L8.601,4.47h0.793V4.426c0.023-0.025,0.055-0.041,0.09-0.043
			c0.027-0.028,0.057-0.057,0.087-0.086c0.048,0.004,0.096-0.011,0.132-0.042V4.126h6.473V3.088
			c0.037-0.031,0.085-0.046,0.134-0.043V3.002h1.145v0.3l0.044,0.045v0.087c0.026,0.021,0.042,0.052,0.044,0.086l0.044,0.043v0.039
			c0.026,0.021,0.042,0.053,0.043,0.087V3.78c0.003,0.021-0.013,0.041-0.034,0.043c-0.003,0-0.006,0-0.009,0V3.91
			c-0.025,0.021-0.042,0.051-0.044,0.084c-0.026,0.022-0.042,0.054-0.044,0.088v0.174h0.176c0.031,0.028,0.06,0.057,0.087,0.084
			c0.023,0.026,0.056,0.042,0.09,0.043c0.026,0.022,0.042,0.054,0.045,0.088c0.033,0.003,0.065,0.018,0.088,0.043
			c0.025,0.023,0.04,0.055,0.041,0.089l0.045,0.041c0.025,0.022,0.04,0.054,0.043,0.088c0.025,0.022,0.043,0.054,0.045,0.088v0.04
			c0.025,0.021,0.041,0.053,0.043,0.086v0.128C18.2,5.108,18.184,5.138,18.159,5.16v0.042h0.047
			c0.002,0.033,0.018,0.065,0.043,0.087v0.085c0.027,0.021,0.043,0.054,0.046,0.088l0.042,0.04v0.177
			c0.026,0.021,0.043,0.053,0.046,0.086h0.043c0.025,0.021,0.041,0.053,0.043,0.086c0.034,0.003,0.065,0.018,0.089,0.043
			c0.025,0.022,0.041,0.054,0.043,0.088l0.046,0.042c0.025,0.022,0.041,0.053,0.043,0.086l0.045,0.043v0.085l0.046,0.044V6.37
			c0.002,0.033,0.021,0.063,0.046,0.084v0.087l0.043,0.042V6.67l0.043,0.043v0.089l0.045,0.045c0.002,0.033,0.018,0.064,0.043,0.087
			v0.082c0.027,0.028,0.059,0.058,0.089,0.087c0.021-0.003,0.043,0.012,0.046,0.033c0,0.003,0.002,0.006,0,0.009
			c0.024,0.022,0.041,0.054,0.043,0.087V7.36l0.049,0.042c0.027,0.029,0.059,0.059,0.088,0.086c0.002,0.034,0.019,0.065,0.045,0.087
			c0.002,0.033,0.018,0.064,0.043,0.087v0.04c0.025,0.022,0.041,0.053,0.043,0.087v0.046c0.027,0.021,0.043,0.053,0.045,0.087
			c0.033,0.002,0.064,0.018,0.086,0.043v0.087c0.025,0.021,0.042,0.053,0.044,0.087v0.085c0.021-0.003,0.042,0.012,0.044,0.034
			c0.001,0.003,0.001,0.006,0.001,0.009c0.026,0.021,0.042,0.053,0.044,0.087v0.043c-0.002,0.035,0.014,0.066,0.039,0.089
			l0.044,0.041c0.003,0.035,0.021,0.066,0.047,0.087c0.002,0.033,0.017,0.063,0.041,0.087v0.043
			c0.027,0.021,0.044,0.052,0.048,0.086c0.025,0.021,0.041,0.053,0.043,0.087l0.043,0.041C20.005,8.986,20.024,9.002,20.052,9.002z
			 M3.453,21.516v-0.213l-0.044,0.043v0.086c-0.025,0.021-0.041,0.053-0.043,0.086v0.258c0.002-0.026,0.018-0.063,0.043-0.086
			v-0.088c0.02,0.004,0.04-0.008,0.043-0.021c0.001-0.013,0.001-0.017,0-0.021v-0.047L3.453,21.516L3.453,21.516z"/>
	</defs>
	<clipPath id="SVGID_2_">
		<use xlink:href="#SVGID_1_"  overflow="visible"/>
	</clipPath>
	<g clip-path="url(#SVGID_2_)">
		<g>
			
				<linearGradient id="SVGID_3_" gradientUnits="userSpaceOnUse" x1="-832.7373" y1="0.1553" x2="-771.7026" y2="0.1553" gradientTransform="matrix(-1 0 0 -1 -780.0283 19.3398)">
				<stop  offset="0" style="stop-color:#F2E2C8;stop-opacity:0"/>
				<stop  offset="0.9194" style="stop-color:#FEB243;stop-opacity:0.8"/>
			</linearGradient>
			<path fill="url(#SVGID_3_)" d="M26.816,15.758l1.59,0.924c-0.154,0.737,1.709,2.34,1.709,2.34l-11.216-5.926l-8.537,1.444
				l23.642,10.513l-12.219-7.25l15.816,5.209l6.834,4.584l2.037-4.405l-2.982,0.026L26.816,15.758z M11.401,22.938
				c-0.207-1.035-2-1.394-2-1.394l-3.915-1.305l-0.695-0.608c-0.338-0.496-2.871-1.826-2.871-1.826
				c0.84,0.457,6.263,1.392,6.263,1.392c1.398,1.379,4.523,1.217,4.523,1.217l-4.872-2.608l-7.306-4.002l-0.958-0.086l-0.285-2.103
				l-1.654-0.331l-5.957,8.936L-1.801,34.7l16.308-0.252l-7.456-4.64l5.568,0.436l7.844,4.204l6.236-5.165l-7.083-0.666
				C16.264,25.252,11.401,22.938,11.401,22.938z M33.193,13.527l-1.158-0.992l20.673,11.311l-2.74-5.875
				c-0.504-0.105-5.627-2.578-5.627-2.578c-1.809-0.362-5.734-2.906-5.734-2.906h-6.628L21.688,3.669L19.73,6.803l8.292,5.302
				L33.193,13.527z"/>
		</g>
	</g>
</g>
<linearGradient id="shape2_2_" gradientUnits="userSpaceOnUse" x1="-18.7061" y1="3.1079" x2="-18.8311" y2="-12.1421" gradientTransform="matrix(1 0 0 -1 59.04 19.3398)">
	<stop  offset="0" style="stop-color:#630A0A"/>
	<stop  offset="0.4892" style="stop-color:#A81513"/>
	<stop  offset="1" style="stop-color:#E4100C"/>
</linearGradient>
<path id="shape2_1_" fill="url(#shape2_2_)" d="M50.129,31.251c-0.313,0-0.625-0.05-0.923-0.147
	c-0.297,0.104-0.606,0.147-0.921,0.147h-8.193c-0.185,0-0.445-0.009-0.771-0.075c-0.217,0.051-0.438,0.075-0.661,0.075h-2.664
	c-0.813,0-1.604-0.342-2.166-0.937c-0.078-0.086-0.147-0.174-0.222-0.271L32.7,30.689c-0.503,0.357-1.101,0.556-1.726,0.556H27.39
	c-0.717,0-1.402-0.269-1.935-0.722c-0.616,0.427-1.351,0.65-2.114,0.65c-0.75,0-1.479-0.222-2.104-0.642
	c-0.164-0.11-0.315-0.233-0.452-0.37c-1.021-1.021-1.363-2.423-0.92-3.753l0.044-0.128l0.08-0.203
	c-1.801-0.254-3.145-1.768-3.145-3.646V22.24c0-0.741,0.274-1.45,0.773-1.996l4.748-5.232c0.646-1.069,1.762-1.679,3.079-1.679h0.41
	c2.064,0,3.684,1.618,3.684,3.684c0,0-0.001,0.289-0.003,0.331c0.555-0.653,1.372-1.044,2.26-1.044h8.396
	c0.263,0,0.52,0.034,0.77,0.101c0.25-0.067,0.51-0.101,0.771-0.101h9.218c0.243,0,0.481,0.029,0.717,0.087
	c0.233-0.058,0.476-0.087,0.72-0.087h8.396c0.917,0,1.797,0.433,2.354,1.159c0.559,0.726,0.752,1.689,0.514,2.573l-0.4,1.532
	c-0.146,0.541-0.438,1.02-0.829,1.395c-0.021,0.188-0.045,0.372-0.101,0.555l-0.403,1.537c-0.075,0.282-0.188,0.551-0.353,0.799
	c0.168,0.532,0.188,1.109,0.041,1.656l-0.414,1.539c-0.346,1.297-1.521,2.202-2.859,2.202H50.129z M47.09,23.782l0.014-0.009h-0.793
	l-0.002,0.009H47.09z"/>
<path id="ACE" fill="#FFFFFF" d="M24.317,23.163h-3.789c-0.409,0-0.717-0.308-0.717-0.718c0-0.104,0-0.104,0-0.204l5.018-5.531
	c0.104-0.307,0.311-0.41,0.615-0.41h0.41c0.408,0,0.717,0.308,0.717,0.717c0,0.102,0,0.205,0,0.205l-2.459,3.584h4.402
	c0.615,0,0.311,1.127-0.103,1.639l-4.507,5.531c-0.309,0.308-0.717,0.308-1.023,0.104c-0.205-0.206-0.309-0.41-0.205-0.719
	L24.317,23.163L24.317,23.163L24.317,23.163z M31.795,19.271l0.409,0.41l-4.813,8.603h3.584l2.149-1.536h2.972l-0.104,1.536h2.662
	l1.537-9.013H31.795L31.795,19.271z M36.301,20.809l-0.104,3.482h-2.969l2.047-3.482H36.301L36.301,20.809z M40.092,28.284h8.191
	l0.611-2.15l-0.817,0.614h-5.731l1.738-5.941h6.452l0.407-1.535h-9.217l-2.354,7.988c-0.103,0.104-0.103,0.309-0.103,0.409
	c0,0.103,0,0.205,0.104,0.31c0.104,0.105,0.205,0.203,0.309,0.203C39.887,28.284,39.988,28.284,40.092,28.284L40.092,28.284
	L40.092,28.284z M52.381,19.271l0.313,0.605l-2.563,8.396h8.193l0.406-1.533h-5.121l0.72-2.458h4.711l0.41-1.537h-4.509l0.611-1.938
	h4.813l0.405-1.535H52.381L52.381,19.271z"/>
</svg>
