<?xml version="1.0" encoding="utf-8"?>
<!-- Generator: Adobe Illustrator 16.0.0, SVG Export Plug-In . SVG Version: 6.00 Build 0)  -->
<!DOCTYPE svg PUBLIC "-//W3C//DTD SVG 1.1//EN" "http://www.w3.org/Graphics/SVG/1.1/DTD/svg11.dtd">
<svg version="1.1" id="case1" xmlns="http://www.w3.org/2000/svg" xmlns:xlink="http://www.w3.org/1999/xlink" x="0px" y="0px"
	 width="86.5px" height="36px" viewBox="0 0 86.5 36" enable-background="new 0 0 86.5 36" xml:space="preserve">
<linearGradient id="ump45_1_" gradientUnits="userSpaceOnUse" x1="258.627" y1="1659.125" x2="341.6445" y2="1659.125" gradientTransform="matrix(1 0 0 1 -256.9004 -1642.8252)">
	<stop  offset="0" style="stop-color:#DC4A49"/>
	<stop  offset="0.3011" style="stop-color:#BE2126"/>
	<stop  offset="0.7419" style="stop-color:#E10414"/>
	<stop  offset="1" style="stop-color:#FEB243"/>
</linearGradient>
<path id="ump45" fill="url(#ump45_1_)" d="M79.654,3.61c0.029,0.136,0.104,0.257,0.218,0.342c0.11,0.314,0.239,0.729,0.383,1.242
	c0.082,0.534,0.197,1.063,0.341,1.584v1.37c0.112,0.082,0.188,0.204,0.213,0.341c0.032,0.179,0.09,0.353,0.172,0.515h0.254
	c0.146,0.002,0.285-0.012,0.431-0.042h0.258l2.351,0.042l0.086,0.17c0.002,0.151,0.047,0.299,0.127,0.427
	c0.088,0.209,0.16,0.425,0.215,0.644c0.058,0.225,0.058,0.46,0,0.685c-0.051,0.221-0.213,0.399-0.428,0.47
	c-0.303,0.124-0.615,0.196-0.938,0.213c-0.237,0.049-0.479,0.078-0.726,0.086c-0.146,0.034-0.287,0.077-0.43,0.128
	c-0.146,0.022-0.289,0.065-0.427,0.128h-0.256c-0.183-0.009-0.354-0.053-0.519-0.128c0.004,0.235-0.037,0.468-0.125,0.686
	c-0.065,0.265-0.287,0.466-0.558,0.513c-0.086-0.005-0.174,0.01-0.254,0.042c-0.015,0.042-0.045,0.075-0.088,0.086l-0.082,0.043
	v0.727l-0.218,0.686h-1.405c-0.451,0.076-0.912-0.032-1.281-0.3c-0.12,0.004-0.233,0.068-0.299,0.171l-0.131,0.128h-0.082
	c-0.276,0.037-0.541,0.14-0.771,0.3c-0.188,0.125-0.338,0.304-0.431,0.514v0.643c0.009,0.387,0.033,0.771,0.091,1.154v5.735
	c-0.029,0.6-0.063,1.1-0.091,1.5c-0.084,0.572-0.151,1.027-0.215,1.369c-0.108,0.313-0.194,0.57-0.254,0.771
	c-0.078,0.146-0.121,0.308-0.127,0.472l-0.138,0.217h-0.168c-0.379,0.072-0.764,0.115-1.146,0.129
	c-0.414,0.041-0.828-0.082-1.149-0.344v-0.086c-0.104-0.138-0.222-0.27-0.345-0.388c-0.159-0.173-0.237-0.405-0.215-0.646
	c-0.041-0.26-0.065-0.516-0.086-0.771v-0.171l-0.17-0.128c0.146-1.771,0.239-3.236,0.299-4.406c0.088-1.113,0.146-2,0.172-2.657
	c0.035-0.504,0.104-1.006,0.22-1.5c0.058-0.314,0.101-0.525,0.127-0.643c-0.11-0.01-0.215-0.055-0.304-0.127
	c-0.071-0.109-0.155-0.209-0.256-0.301l-0.215-0.252c-0.063-0.027-0.113-0.058-0.17-0.084c-0.035-0.062-0.104-0.096-0.179-0.087
	c-0.021-0.141-0.114-0.257-0.256-0.3c-0.106-0.097-0.24-0.169-0.383-0.212c-0.104,0.011-0.216-0.02-0.302-0.086
	c-0.086,0-0.127-0.014-0.127-0.043H69.8l-0.643,0.129c-0.063-0.016-0.119-0.045-0.171-0.086c-0.063,0.007-0.12-0.008-0.172-0.043
	h-0.424c-0.082,0.024-0.168,0.039-0.261,0.043c-0.135,0.056-0.274,0.084-0.426,0.086H65.1c0.004-0.129,0.021-0.259,0.041-0.386
	c0.004-0.143,0.021-0.286,0.043-0.427v-0.304c-0.396,0.198-0.787,0.427-1.147,0.685c-0.326,0.206-0.688,0.351-1.063,0.428h-1.752
	c0.057,0.228,0.127,0.543,0.213,0.94c0.086,0.396,0.172,0.826,0.258,1.283c0.059,0.515,0.143,1.086,0.256,1.713
	c-0.088-0.006-0.176,0.01-0.256,0.043l-0.471,0.257c0.053,0.334,0.123,0.662,0.215,0.985c0.17,0.601,0.354,1.369,0.557,2.31
	c0.172,0.94,0.387,1.981,0.645,3.125c0.229,1.201,0.494,2.386,0.813,3.554c0.133,0.604,0.268,1.213,0.4,1.842
	c0.021,0.104,0.043,0.199,0.063,0.304c-0.074,0.004-0.146,0.021-0.215,0.043c-0.104-0.002-0.201,0.014-0.302,0.043
	c-0.101,0.021-0.196,0.041-0.301,0.043c-0.066,0.026-0.144,0.063-0.213,0.084c-0.229-0.002-0.457,0.019-0.685,0.043
	c-0.101-0.004-0.2,0.015-0.3,0.043c-0.096,0.022-0.195,0.038-0.299,0.04c-0.063,0.035-0.14,0.063-0.211,0.086
	c-0.429,0-0.869,0.018-1.324,0.043c-0.103,0-0.196,0.016-0.299,0.043c-0.099,0.023-0.199,0.041-0.302,0.043
	c-0.067,0.033-0.141,0.063-0.215,0.084h-0.722L58.316,30.4c-0.004-0.017-0.004-0.027,0-0.041c-0.287-1.355-0.586-2.652-0.897-3.896
	c-0.282-1.313-0.567-2.498-0.854-3.553c-0.193-1.059-0.383-1.898-0.557-2.523c-0.172-0.623-0.248-0.955-0.248-0.986h-1.15
	c-0.34,0.029-0.641,0.043-0.896,0.043c-0.213,0.027-0.426,0.041-0.646,0.043c-0.196-0.021-0.396,0.043-0.555,0.176
	c-0.224,0.086-0.416,0.23-0.558,0.426c-0.144,0.201-0.254,0.371-0.34,0.516c-0.06,0.146-0.146,0.271-0.259,0.385
	c-0.104,0.105-0.219,0.209-0.34,0.302c-0.328,0.13-0.674,0.2-1.023,0.216c-0.623,0.086-1.251,0.127-1.879,0.127h-2.084
	c-0.424,0.041-0.852-0.033-1.236-0.213c-0.396-0.104-0.781-0.25-1.153-0.432c-0.339-0.16-0.667-0.346-0.98-0.553
	c-0.409,0.467-0.702,1.021-0.853,1.625c0.113,0.254,0.2,0.438,0.255,0.557c0.051,0.094,0.081,0.193,0.086,0.301h0.129l-0.47,0.471
	c-0.036-0.029-0.082-0.047-0.129-0.043c-0.087-0.012-0.177,0.004-0.255,0.043c-0.175,0.185-0.307,0.401-0.384,0.646
	c-0.2,0.343-0.44,0.729-0.724,1.152c-0.211,0.414-0.397,0.848-0.556,1.282c-0.132,0.226-0.219,0.474-0.255,0.729v0.938
	c0.084,0.086,0.057,0.229-0.087,0.432c-0.291,0.188-0.643,0.246-0.979,0.172c-0.172-0.081-0.514-0.238-1.026-0.471
	c-0.482-0.287-1.023-0.604-1.622-0.938c-0.568-0.314-1.08-0.615-1.536-0.898c-0.331-0.188-0.609-0.449-0.811-0.771
	c0.013-0.164,0.057-0.322,0.129-0.473c0.057-0.143,0.242-0.482,0.554-1.023c0.257-0.543,0.669-1.326,1.237-2.354
	c0.6-1,1.383-2.354,2.348-4.07c-0.042-0.466-0.144-0.926-0.3-1.367c-0.181-0.697-0.744-1.229-1.45-1.37L34.17,14.32
	c-0.309-0.075-0.622-0.132-0.938-0.171c-0.267-0.058-0.538-0.086-0.811-0.085c-0.31-0.065-0.624-0.108-0.939-0.129
	c-0.436-0.085-0.879-0.127-1.323-0.127c-0.426-0.03-0.853-0.03-1.279,0c-0.306-0.02-0.612,0.023-0.9,0.127L5.919,21.76H5.833
	c-0.058,0-0.214,0.018-0.469,0.043c-0.339,0.063-0.682,0.104-1.026,0.127c-0.313,0-0.668-0.014-1.066-0.041
	c-0.299-0.027-0.589-0.113-0.853-0.258c-0.149-0.148-0.24-0.348-0.256-0.557V15.85c0.024-0.564-0.048-1.129-0.213-1.669v-2.052
	c0-0.286-0.014-0.572-0.043-0.856c-0.055-0.268-0.083-0.541-0.085-0.814c-0.083-0.35-0.112-0.711-0.085-1.07
	C1.735,9.049,1.963,8.75,2.291,8.661c0.279-0.073,0.564-0.116,0.852-0.13c0.514,0,1.097-0.014,1.75-0.043
	c0.683,0,1.409-0.014,2.176-0.042h17.37c0.292-0.112,0.593-0.198,0.9-0.256c0.374-0.137,0.76-0.237,1.153-0.3
	c0.425-0.143,0.825-0.256,1.194-0.342c0.189-0.07,0.372-0.155,0.547-0.255l0.9-0.643c0.184-0.077,0.356-0.178,0.513-0.3
	c0.134-0.016,0.264-0.06,0.381-0.128c0.524-0.245,1.089-0.39,1.666-0.428c0.176,0.022,0.354-0.007,0.513-0.085
	c0.107,0.011,0.214-0.019,0.3-0.084c0.383-0.313,0.739-0.655,1.065-1.026c0.512-0.569,1.01-1.097,1.493-1.583
	c0.39-0.217,0.847-0.278,1.28-0.171c0.569,0.058,1,0.114,1.28,0.171c0.087,0,0.173-0.014,0.256-0.043
	c0.046,0.004,0.093-0.011,0.127-0.043c0.061-0.007,0.122,0.008,0.172,0.043c0.136,0.084,0.279,0.156,0.428,0.214h1.026l0.254,0.512
	v1.8h0.17V4.424h2.219V3.868h1.194v0.557h0.811V3.868h1.109v0.557h0.769V3.868h1.151v0.557h0.938V3.868h1.107v0.557h0.938V3.868
	h1.15v0.557h0.938V3.868h1.151v0.557h0.727V3.868h1.275v0.557h0.688V3.868h1.149v0.557h1.192V5.5h15.66
	c0.283-0.228,0.642-0.542,1.063-0.942c0.34-0.272,0.646-0.589,0.896-0.942c-0.004-0.201,0.015-0.402,0.043-0.6
	c0.027-0.112,0.043-0.227,0.041-0.342c0.103-0.238,0.188-0.481,0.258-0.728c0.134-0.22,0.353-0.375,0.603-0.426h0.349
	c0.24-0.113,0.5-0.188,0.767-0.22c0.289,0.044,0.532,0.24,0.642,0.514c0.288,0.355,0.506,0.762,0.641,1.2
	C79.602,3.205,79.645,3.406,79.654,3.61z M57.934,5.024H40.74V5.5h17.193V5.024L57.934,5.024z M44.195,19.107
	c0.224,0.197,0.514,0.305,0.812,0.299h3.968c0.312-0.018,0.604-0.121,0.854-0.299c0.185-0.166,0.291-0.398,0.3-0.646
	c0.021-0.354-0.083-0.703-0.3-0.983c-0.261-0.155-0.554-0.243-0.854-0.257h-3.968c-0.291-0.006-0.575,0.084-0.812,0.257
	c-0.291,0.241-0.448,0.606-0.426,0.983C43.794,18.734,43.955,18.977,44.195,19.107z M21.879,12.899
	c0.083-0.505-0.258-0.981-0.763-1.064c-0.086-0.014-0.175-0.016-0.262-0.006h-1.876c-0.24-0.007-0.473,0.086-0.641,0.257
	c-0.207,0.218-0.315,0.512-0.3,0.813c-0.003,0.225,0.11,0.436,0.3,0.558c0.157,0.192,0.393,0.303,0.641,0.3h1.876
	c0.286,0.009,0.564-0.099,0.768-0.3C21.79,13.322,21.885,13.115,21.879,12.899z M7.579,11.058c-0.452-0.081-0.907-0.137-1.364-0.169
	c-0.344,0.01-0.688-0.019-1.025-0.086c0,0.4,0.015,0.914,0.042,1.539C5.318,13,5.375,13.67,5.403,14.354
	c0,0.686,0.028,1.342,0.085,1.969c0.029,0.6,0.045,0.986,0.045,1.156c0.266,0.211,0.569,0.371,0.894,0.471
	c0.467,0.162,0.958,0.25,1.452,0.256c0.481-0.061,0.954-0.174,1.409-0.342c0.541-0.172,1.109-0.371,1.706-0.6l1.707-0.771
	c0.512-0.257,0.909-0.47,1.193-0.644c0.192-0.211,0.299-0.485,0.3-0.77c-0.024-0.453-0.11-0.899-0.255-1.328
	c-0.171-0.515-0.328-0.972-0.469-1.37c-0.404-0.022-0.805-0.079-1.2-0.169c-0.512-0.146-1.152-0.316-1.92-0.515
	c-0.42-0.135-0.847-0.25-1.279-0.342c-0.478-0.175-0.979-0.276-1.488-0.3L7.579,11.058z"/>
<g>
	<defs>
		<path id="SVGID_1_" d="M79.654,3.61c0.029,0.136,0.104,0.257,0.218,0.342c0.11,0.314,0.239,0.729,0.383,1.242
			c0.082,0.534,0.197,1.063,0.341,1.584v1.37c0.112,0.082,0.188,0.204,0.213,0.341c0.032,0.179,0.09,0.353,0.172,0.515h0.254
			c0.146,0.002,0.285-0.012,0.431-0.042h0.258l2.351,0.042l0.086,0.17c0.002,0.151,0.047,0.299,0.127,0.427
			c0.088,0.209,0.16,0.425,0.215,0.644c0.058,0.225,0.058,0.46,0,0.685c-0.051,0.221-0.213,0.399-0.428,0.47
			c-0.303,0.124-0.615,0.196-0.938,0.213c-0.237,0.049-0.479,0.078-0.726,0.086c-0.146,0.034-0.287,0.077-0.43,0.128
			c-0.146,0.022-0.289,0.065-0.427,0.128h-0.256c-0.183-0.009-0.354-0.053-0.519-0.128c0.004,0.235-0.037,0.468-0.125,0.686
			c-0.065,0.265-0.287,0.466-0.558,0.513c-0.086-0.005-0.174,0.01-0.254,0.042c-0.015,0.042-0.045,0.075-0.088,0.086l-0.082,0.043
			v0.727l-0.218,0.686h-1.405c-0.451,0.076-0.912-0.032-1.281-0.3c-0.12,0.004-0.233,0.068-0.299,0.171l-0.131,0.128h-0.082
			c-0.276,0.037-0.541,0.14-0.771,0.3c-0.188,0.125-0.338,0.304-0.431,0.514v0.643c0.009,0.387,0.033,0.771,0.091,1.154v5.735
			c-0.029,0.6-0.063,1.1-0.091,1.5c-0.084,0.572-0.151,1.027-0.215,1.369c-0.108,0.313-0.194,0.57-0.254,0.771
			c-0.078,0.146-0.121,0.308-0.127,0.472l-0.138,0.217h-0.168c-0.379,0.072-0.764,0.115-1.146,0.129
			c-0.414,0.041-0.828-0.082-1.149-0.344v-0.086c-0.104-0.138-0.222-0.27-0.345-0.388c-0.159-0.173-0.237-0.405-0.215-0.646
			c-0.041-0.26-0.065-0.516-0.086-0.771v-0.171l-0.17-0.128c0.146-1.771,0.239-3.236,0.299-4.406c0.088-1.113,0.146-2,0.172-2.657
			c0.035-0.503,0.104-1.005,0.22-1.5c0.058-0.314,0.101-0.525,0.127-0.643c-0.11-0.01-0.215-0.055-0.304-0.127
			c-0.071-0.109-0.155-0.209-0.256-0.301l-0.215-0.252c-0.063-0.027-0.113-0.058-0.17-0.084c-0.035-0.062-0.104-0.096-0.179-0.087
			c-0.021-0.141-0.114-0.257-0.256-0.3c-0.106-0.097-0.24-0.169-0.383-0.212c-0.104,0.011-0.216-0.02-0.302-0.086
			c-0.086,0-0.127-0.014-0.127-0.043H69.8l-0.643,0.129c-0.063-0.016-0.119-0.045-0.171-0.086c-0.063,0.007-0.12-0.008-0.172-0.043
			h-0.424c-0.082,0.024-0.168,0.039-0.261,0.043c-0.135,0.056-0.274,0.084-0.426,0.086H65.1c0.004-0.129,0.021-0.259,0.041-0.386
			c0.004-0.143,0.021-0.286,0.043-0.427v-0.304c-0.396,0.198-0.787,0.427-1.147,0.685c-0.326,0.206-0.688,0.351-1.063,0.428h-1.752
			c0.057,0.228,0.127,0.543,0.213,0.94c0.086,0.396,0.172,0.826,0.258,1.283c0.059,0.515,0.143,1.086,0.256,1.713
			c-0.088-0.007-0.176,0.01-0.256,0.043l-0.471,0.257c0.053,0.334,0.123,0.662,0.215,0.985c0.17,0.601,0.354,1.369,0.557,2.31
			c0.172,0.94,0.387,1.981,0.645,3.125c0.229,1.201,0.494,2.386,0.813,3.554c0.133,0.604,0.268,1.213,0.4,1.842
			c0.021,0.104,0.043,0.199,0.063,0.304c-0.074,0.004-0.146,0.021-0.215,0.043c-0.104-0.002-0.201,0.014-0.302,0.043
			c-0.101,0.021-0.196,0.041-0.301,0.043c-0.066,0.026-0.144,0.063-0.213,0.084c-0.229-0.002-0.457,0.019-0.685,0.043
			c-0.101-0.004-0.2,0.015-0.3,0.043c-0.096,0.022-0.195,0.038-0.299,0.04c-0.063,0.035-0.14,0.063-0.211,0.086
			c-0.429,0-0.869,0.018-1.324,0.043c-0.103,0-0.196,0.016-0.299,0.043c-0.099,0.023-0.199,0.041-0.302,0.043
			c-0.067,0.033-0.141,0.063-0.215,0.084h-0.722L58.316,30.4c-0.004-0.017-0.004-0.027,0-0.041
			c-0.287-1.355-0.586-2.652-0.897-3.896c-0.282-1.313-0.567-2.498-0.854-3.553c-0.193-1.059-0.383-1.898-0.557-2.523
			c-0.172-0.623-0.248-0.955-0.248-0.986h-1.15c-0.34,0.029-0.641,0.043-0.896,0.043c-0.213,0.027-0.426,0.041-0.646,0.043
			c-0.196-0.021-0.396,0.043-0.555,0.176c-0.224,0.086-0.416,0.23-0.558,0.426c-0.144,0.201-0.254,0.371-0.34,0.516
			c-0.06,0.146-0.146,0.271-0.259,0.385c-0.104,0.105-0.219,0.209-0.34,0.302c-0.328,0.13-0.674,0.2-1.023,0.216
			c-0.623,0.086-1.251,0.127-1.879,0.127h-2.084c-0.424,0.041-0.852-0.033-1.236-0.213c-0.396-0.104-0.781-0.25-1.153-0.432
			c-0.338-0.16-0.666-0.346-0.979-0.553c-0.409,0.467-0.702,1.021-0.853,1.625c0.113,0.254,0.2,0.438,0.255,0.557
			c0.051,0.094,0.081,0.193,0.086,0.301h0.129l-0.47,0.471c-0.036-0.029-0.082-0.047-0.129-0.043
			c-0.087-0.012-0.177,0.004-0.255,0.043c-0.175,0.185-0.307,0.401-0.384,0.646c-0.2,0.343-0.44,0.729-0.724,1.152
			c-0.211,0.414-0.397,0.848-0.556,1.282c-0.132,0.226-0.219,0.474-0.255,0.729v0.938c0.084,0.086,0.057,0.229-0.087,0.432
			c-0.291,0.188-0.643,0.246-0.979,0.172c-0.172-0.081-0.514-0.238-1.026-0.471c-0.482-0.287-1.023-0.604-1.622-0.938
			c-0.568-0.314-1.08-0.615-1.536-0.898c-0.331-0.188-0.609-0.449-0.811-0.771c0.013-0.164,0.057-0.322,0.129-0.473
			c0.057-0.143,0.242-0.482,0.554-1.023c0.257-0.543,0.669-1.326,1.237-2.354c0.6-1,1.383-2.354,2.348-4.069
			c-0.042-0.466-0.144-0.926-0.3-1.368c-0.181-0.697-0.744-1.229-1.45-1.37l-1.793-0.685c-0.309-0.075-0.622-0.132-0.938-0.171
			c-0.267-0.058-0.538-0.086-0.811-0.085c-0.31-0.065-0.624-0.108-0.939-0.129c-0.436-0.085-0.879-0.127-1.323-0.127
			c-0.426-0.03-0.853-0.03-1.279,0c-0.306-0.02-0.612,0.023-0.9,0.127L5.919,21.76H5.833c-0.058,0-0.214,0.018-0.469,0.043
			c-0.339,0.063-0.682,0.104-1.026,0.127c-0.313,0-0.668-0.014-1.066-0.041c-0.299-0.027-0.589-0.113-0.853-0.258
			c-0.149-0.148-0.24-0.348-0.256-0.557V15.85c0.024-0.564-0.048-1.129-0.213-1.669v-2.052c0-0.286-0.014-0.572-0.043-0.856
			c-0.055-0.268-0.083-0.541-0.085-0.814c-0.083-0.35-0.112-0.711-0.085-1.07C1.735,9.049,1.963,8.75,2.291,8.661
			c0.279-0.073,0.564-0.116,0.852-0.13c0.514,0,1.097-0.014,1.75-0.043c0.683,0,1.409-0.014,2.176-0.042h17.37
			c0.292-0.112,0.593-0.198,0.9-0.256c0.374-0.137,0.76-0.237,1.153-0.3c0.425-0.143,0.825-0.256,1.194-0.342
			c0.189-0.07,0.372-0.155,0.547-0.255l0.9-0.643c0.184-0.077,0.356-0.178,0.513-0.3c0.134-0.016,0.264-0.06,0.381-0.128
			c0.524-0.245,1.089-0.39,1.666-0.428c0.176,0.022,0.354-0.007,0.513-0.085c0.107,0.011,0.214-0.019,0.3-0.084
			c0.383-0.313,0.739-0.655,1.065-1.026c0.512-0.569,1.01-1.097,1.493-1.583c0.39-0.217,0.847-0.278,1.28-0.171
			c0.569,0.058,1,0.114,1.28,0.171c0.087,0,0.173-0.014,0.256-0.043c0.046,0.004,0.093-0.011,0.127-0.043
			c0.061-0.007,0.122,0.008,0.172,0.043c0.136,0.084,0.279,0.156,0.428,0.214h1.026l0.254,0.512v1.8h0.17V4.424h2.219V3.868h1.195
			v0.557h0.811V3.868h1.108v0.557h0.77V3.868h1.15v0.557h0.938V3.868h1.107v0.557h0.938V3.868h1.15v0.557h0.938V3.868h1.151v0.557
			h0.727V3.868h1.275v0.557h0.688V3.868h1.149v0.557h1.194V5.5h15.66c0.283-0.228,0.641-0.542,1.063-0.942
			c0.34-0.272,0.646-0.589,0.896-0.942c-0.004-0.201,0.014-0.402,0.043-0.6c0.026-0.112,0.043-0.227,0.041-0.342
			c0.102-0.238,0.188-0.481,0.26-0.728c0.131-0.22,0.35-0.375,0.6-0.426h0.348c0.241-0.113,0.5-0.188,0.768-0.22
			c0.289,0.044,0.531,0.24,0.643,0.514c0.287,0.355,0.506,0.762,0.641,1.2C79.602,3.205,79.645,3.406,79.654,3.61z M57.934,5.024
			H40.74V5.5h17.193V5.024L57.934,5.024z M44.195,19.107c0.224,0.197,0.514,0.305,0.812,0.299h3.968
			c0.312-0.018,0.604-0.121,0.854-0.299c0.185-0.166,0.291-0.398,0.3-0.646c0.021-0.354-0.083-0.703-0.3-0.983
			c-0.261-0.155-0.554-0.243-0.854-0.257h-3.968c-0.291-0.006-0.575,0.084-0.812,0.257c-0.291,0.241-0.448,0.606-0.426,0.983
			C43.794,18.734,43.955,18.977,44.195,19.107z M21.879,12.899c0.083-0.505-0.258-0.981-0.763-1.064
			c-0.086-0.014-0.175-0.016-0.262-0.006h-1.876c-0.24-0.007-0.473,0.086-0.641,0.257c-0.207,0.218-0.315,0.512-0.3,0.813
			c-0.003,0.225,0.11,0.436,0.3,0.558c0.157,0.192,0.393,0.303,0.641,0.3h1.876c0.286,0.009,0.564-0.099,0.768-0.3
			C21.79,13.322,21.885,13.115,21.879,12.899z M7.579,11.058c-0.452-0.081-0.907-0.137-1.364-0.169
			c-0.344,0.01-0.688-0.019-1.025-0.086c0,0.4,0.015,0.914,0.042,1.539C5.318,13,5.375,13.67,5.403,14.354
			c0,0.686,0.028,1.342,0.085,1.969c0.029,0.6,0.045,0.986,0.045,1.156c0.266,0.21,0.569,0.371,0.894,0.471
			c0.467,0.161,0.958,0.25,1.452,0.256c0.481-0.062,0.954-0.174,1.409-0.343c0.541-0.172,1.109-0.37,1.706-0.599l1.707-0.771
			c0.512-0.257,0.909-0.47,1.193-0.644c0.192-0.211,0.299-0.485,0.3-0.77c-0.024-0.453-0.11-0.899-0.255-1.328
			c-0.171-0.515-0.328-0.972-0.469-1.37c-0.404-0.022-0.805-0.079-1.2-0.169c-0.512-0.146-1.152-0.316-1.92-0.515
			c-0.42-0.135-0.847-0.25-1.279-0.342c-0.478-0.175-0.979-0.276-1.488-0.3L7.579,11.058z"/>
	</defs>
	<clipPath id="SVGID_2_">
		<use xlink:href="#SVGID_1_"  overflow="visible"/>
	</clipPath>
	<g clip-path="url(#SVGID_2_)">
		<g>
			
				<linearGradient id="SVGID_3_" gradientUnits="userSpaceOnUse" x1="-817.2881" y1="8.2197" x2="-756.2534" y2="8.2197" gradientTransform="matrix(-1 0 0 -1 -758.2783 19.3398)">
				<stop  offset="0" style="stop-color:#F2E2C8;stop-opacity:0"/>
				<stop  offset="0.9194" style="stop-color:#FEB243;stop-opacity:0.8"/>
			</linearGradient>
			<path fill="url(#SVGID_3_)" d="M33.117,7.693l1.59,0.925c-0.154,0.737,1.71,2.339,1.71,2.339L25.2,5.032l-8.537,1.444
				l23.642,10.513L28.086,9.738l15.816,5.209l6.834,4.584l2.037-4.405l-2.982,0.026L33.117,7.693z M17.702,14.873
				c-0.207-1.035-2-1.393-2-1.393l-3.915-1.305l-0.695-0.608C10.754,11.07,8.221,9.74,8.221,9.74
				c0.84,0.457,6.263,1.392,6.263,1.392c1.398,1.379,4.523,1.217,4.523,1.217L14.135,9.74L6.829,5.739L5.871,5.652L5.586,3.55
				L3.932,3.219l-5.957,8.935L4.5,26.636l16.308-0.252l-7.456-4.64l5.568,0.436l7.844,4.204L33,21.219l-7.083-0.666
				C22.565,17.188,17.702,14.873,17.702,14.873z M39.494,5.463l-1.158-0.992L59.01,15.782l-2.74-5.875
				c-0.504-0.106-5.627-2.579-5.627-2.579c-1.808-0.362-5.734-2.906-5.734-2.906H38.28L27.989-4.396l-1.958,3.134l8.292,5.302
				L39.494,5.463z"/>
		</g>
	</g>
</g>
</svg>
