<?xml version="1.0" encoding="utf-8"?>
<!-- Generator: Adobe Illustrator 16.0.0, SVG Export Plug-In . SVG Version: 6.00 Build 0)  -->
<!DOCTYPE svg PUBLIC "-//W3C//DTD SVG 1.1//EN" "http://www.w3.org/Graphics/SVG/1.1/DTD/svg11.dtd">
<svg version="1.1" id="case1" xmlns="http://www.w3.org/2000/svg" xmlns:xlink="http://www.w3.org/1999/xlink" x="0px" y="0px"
	 width="62.5px" height="36px" viewBox="0 0 62.5 36" enable-background="new 0 0 62.5 36" xml:space="preserve">
<linearGradient id="incgrenade_1_" gradientUnits="userSpaceOnUse" x1="-242.5366" y1="-2736.2246" x2="-226.5488" y2="-2736.2246" gradientTransform="matrix(1 0 0 -1 244.4199 -2718.2217)">
	<stop  offset="0" style="stop-color:#DC4A49"/>
	<stop  offset="0.3011" style="stop-color:#BE2126"/>
	<stop  offset="0.7419" style="stop-color:#E10414"/>
	<stop  offset="1" style="stop-color:#FEB243"/>
</linearGradient>
<path id="incgrenade" fill="url(#incgrenade_1_)" d="M13.783,1.942l0.053,0.051v0.1c-0.002,0.024,0.017,0.046,0.041,0.048
	c0.004,0,0.008,0,0.012,0v0.1h0.051V2.29c0.025-0.004,0.049,0.013,0.053,0.037c0,0.004,0,0.008,0,0.012v0.15h0.052v0.1h0.052v0.1
	c0.023-0.004,0.047,0.011,0.051,0.035c0.001,0.004,0.001,0.009,0,0.013v0.149l0.053,0.049v0.1l0.052,0.049v0.055h0.054v0.1
	l0.049,0.049v0.048c0.025-0.004,0.049,0.013,0.053,0.039c0.001,0.003,0.001,0.007,0.001,0.011v0.051l0.052,0.048v0.15
	c-0.002,0.025,0.016,0.047,0.04,0.05c0.004,0,0.008,0,0.012,0v0.051h0.052v0.148h0.053v0.049l0.052,0.051V4.03l0.052,0.051v0.1
	l0.056,0.049v0.151l0.051,0.051v0.05l0.05,0.048v0.051l0.101,0.1V4.73c0.02-0.004,0.041,0.013,0.047,0.037c0,0.004,0,0.008,0,0.012
	l0.048,0.05V5.08l0.052,0.049v0.1L15.18,5.28v0.048l0.055,0.049v0.05l0.049,0.051v0.1h0.052v0.1
	c-0.002,0.025,0.019,0.047,0.043,0.049c0.003,0,0.006,0,0.009,0v0.148c0.024-0.004,0.049,0.013,0.053,0.037c0,0.004,0,0.008,0,0.012
	v0.1c0.025-0.003,0.049,0.016,0.053,0.042c0,0.003,0,0.006,0,0.01v0.1h0.053v0.047l0.051,0.049v0.051l0.051,0.051v0.048L15.7,6.473
	v0.2l0.052,0.049v0.1h0.053V6.97h0.053v0.1l0.051,0.049v0.049l0.051,0.049v0.1c0.023-0.004,0.047,0.013,0.053,0.037
	c0,0.004,0,0.008,0,0.012v0.1c-0.004,0.025,0.014,0.048,0.039,0.051c0.004,0,0.008,0,0.012,0v0.1l0.054,0.052v0.046h0.05v0.048
	l0.052,0.051V7.86l0.054,0.052v0.1h0.051v0.147l0.053,0.051v0.049c-0.003,0.025,0.016,0.048,0.04,0.051c0.004,0,0.008,0,0.012,0
	v0.048l0.054,0.051v0.148l0.102,0.1v0.1l0.052,0.049v0.05h0.054v0.1h0.051C16.732,8.981,16.754,9,16.777,8.999
	c0.002,0,0.005,0,0.007,0v0.056l0.207,0.2v0.644l0.053,0.049v0.1c0.024-0.003,0.047,0.015,0.05,0.04c0,0.003,0,0.006,0,0.01
	l0.053,0.048V10.2l0.053,0.049V10.3h0.053v0.1c0.025-0.003,0.048,0.014,0.053,0.04c0,0.003,0,0.006,0,0.01l0.053,0.051v0.051h0.052
	v0.049l0.1,0.1c-0.003,0.024,0.015,0.045,0.04,0.048c0.003,0,0.008,0,0.01,0v0.052h0.053v0.049l0.156,0.2v0.351
	c0.025,0.029,0.062,0.046,0.101,0.049v19.3h-0.149v0.048c-0.023-0.004-0.048,0.015-0.052,0.039c0,0.004,0,0.008,0,0.013l-0.05,0.104
	h-0.102v0.051l-0.052,0.048v0.043h-0.055V31.2h-0.724v-0.8l0.1-0.104c0.023,0.005,0.048-0.012,0.053-0.036c0-0.004,0-0.009,0-0.013
	h0.053v-0.062h0.049v-0.054h0.055v-18.45h-0.102l-0.052-0.049v-0.027l-0.053-0.049v-0.051h-0.052v-0.051l-0.051-0.049v-0.051
	l-0.054-0.048v-0.1l-0.056-0.05v-0.05h-0.049v-0.1h-0.053v-0.048l-0.052-0.051h-0.048c0.003-0.024-0.016-0.046-0.039-0.049
	c-0.004,0-0.01,0-0.014,0v-0.1c0.003-0.024-0.014-0.045-0.037-0.048c-0.004,0-0.01,0-0.014,0V10.66h-0.06v-0.1
	c-0.024,0.003-0.049-0.014-0.052-0.039c-0.001-0.004-0.001-0.008,0-0.012c0.003-0.024-0.016-0.045-0.04-0.048
	c-0.003,0-0.007,0-0.011,0v-0.048h-0.053v-0.055l-0.053-0.1c0.002-0.025-0.018-0.047-0.043-0.049c-0.002,0-0.006,0-0.009,0v-0.05
	l-0.155-0.1v-0.048h-0.05v-0.1c-0.024,0.003-0.048-0.014-0.052-0.04c0-0.003-0.002-0.008,0-0.012L15.64,9.813v-0.05h-0.05V9.714
	c-0.025-0.029-0.063-0.046-0.1-0.049V9.614h-0.057v-0.05c-0.022,0.004-0.047-0.013-0.051-0.037
	c-0.001-0.004-0.001-0.008-0.001-0.012v-0.1c-0.024,0.003-0.048-0.014-0.052-0.039c0-0.004,0-0.008,0-0.012l-0.053-0.049V9.267
	h-0.049L15.07,9.068V9.016c-0.023,0.003-0.045-0.013-0.049-0.037c-0.002-0.004-0.002-0.008,0-0.012H14.97v24.305l-0.205,0.061
	c-0.079,0.029-0.148,0.088-0.209,0.146H14.51c-0.733,0.396-1.516,0.697-2.326,0.896c-0.807,0.256-1.639,0.424-2.481,0.5
	c-0.698,0.131-1.412,0.165-2.119,0.104c-0.653-0.063-1.238-0.146-1.755-0.248c-0.914-0.158-1.8-0.439-2.635-0.852
	c-0.248-0.104-0.489-0.219-0.724-0.352c-0.136-0.029-0.26-0.104-0.361-0.196l-0.155-0.056V8.916C1.819,8.63,1.881,8.289,2.109,8.069
	c0.002-0.039,0.021-0.075,0.05-0.1C2.259,7.936,2.364,7.92,2.47,7.92V7.868c0.218-0.076,0.443-0.125,0.672-0.147
	c0.275-0.033,0.672-0.067,1.188-0.1c0.289-0.068,0.583-0.118,0.878-0.148c0.171-0.026,0.343-0.042,0.516-0.048
	c-0.034-0.232-0.034-0.468,0-0.7c0.055-0.08,0.105-0.163,0.152-0.248l0.154-0.2V4.083H5.98C5.79,4.082,5.6,4.064,5.412,4.032H4.69
	v-0.7h0.05V3.285h0.1c-0.07-0.141-0.07-0.307,0-0.448c0.03-0.18,0.101-0.351,0.207-0.5c0.085-0.218,0.283-0.372,0.516-0.4h6.1
	l0.259,0.1v0.2c0.201-0.386,0.464-0.737,0.777-1.039V1.045h0.154c-0.002-0.025,0.018-0.046,0.041-0.047c0.004,0,0.008,0,0.012,0
	v0.047h0.516v0.553l0.053,0.045v0.049h0.26v0.05l0.05,0.049L13.783,1.942L13.783,1.942z M7.016,11.998
	c-0.836,0.71-1.507,1.595-1.966,2.591c-0.669,1.348-1.022,2.83-1.033,4.334c-0.01,1.027,0.13,2.052,0.414,3.038
	c0.279,1.083,1.014,1.992,2.015,2.491c0.493,0.269,1.04,0.421,1.6,0.446c-1.016-0.627-1.625-1.744-1.6-2.938
	c-0.055-1.065,0.361-2.103,1.136-2.836c0.129-0.112,0.269-0.213,0.416-0.3c-0.378,1.029,0.035,2.092,1.24,3.188
	c0.571,0.541,1.012,1.205,1.29,1.941c0.162,0.238,0.119,0.561-0.1,0.749c0.536,0.14,1.101-0.081,1.4-0.547
	c0.019-0.022,0.035-0.048,0.047-0.075c0.764-0.516,1.258-1.348,1.344-2.266c0.207-1.301-0.03-2.635-0.672-3.792
	c-0.401-0.833-0.942-1.592-1.6-2.242c-0.759-0.832-1.293-1.843-1.551-2.939C9.022,11.77,9.238,10.58,9.964,9.706
	C8.995,10.409,8.013,11.171,7.016,11.998z M14.456,26.643v-0.301c-1.933,0.318-3.882,0.52-5.839,0.6
	c-2.043-0.082-4.08-0.273-6.1-0.6v1.842c2.046,0.396,4.118,0.646,6.2,0.746c1.928-0.08,3.846-0.313,5.736-0.701v-1.582
	L14.456,26.643z M10.994,24.898h-0.259v0.051L10.994,24.898z M9.701,24.998v-0.045c-0.025-0.004-0.048,0.013-0.052,0.037
	c0,0.004-0.001,0.008,0,0.012h0.052V24.998z M7.428,25.146c-0.096-0.019-0.191-0.025-0.285-0.049l-0.026,0.049H7.428z"/>
<g>
	<defs>
		<path id="SVGID_1_" d="M13.783,1.942l0.053,0.051v0.1c-0.002,0.024,0.017,0.046,0.041,0.048c0.004,0,0.008,0,0.012,0v0.1h0.051
			V2.29c0.025-0.004,0.049,0.013,0.053,0.037c0,0.004,0,0.008,0,0.012v0.15h0.052v0.1h0.052v0.1
			c0.023-0.004,0.047,0.011,0.051,0.035c0.001,0.004,0.001,0.009,0,0.013v0.149l0.053,0.049v0.1l0.052,0.049v0.055h0.054v0.1
			l0.049,0.049v0.048c0.025-0.004,0.049,0.013,0.053,0.039c0.001,0.003,0.001,0.007,0.001,0.011v0.051l0.052,0.048v0.15
			c-0.002,0.025,0.016,0.047,0.04,0.05c0.004,0,0.008,0,0.012,0v0.051h0.052v0.148h0.053v0.049l0.052,0.051V4.03l0.052,0.051v0.1
			l0.056,0.049v0.151l0.051,0.051v0.05l0.05,0.048v0.051l0.101,0.1V4.73c0.02-0.004,0.041,0.013,0.047,0.037
			c0,0.004,0,0.008,0,0.012l0.048,0.05V5.08l0.052,0.049v0.1L15.18,5.28v0.048l0.055,0.049v0.05l0.049,0.051v0.1h0.052v0.1
			c-0.002,0.025,0.019,0.047,0.043,0.049c0.003,0,0.006,0,0.009,0v0.148c0.024-0.004,0.049,0.013,0.053,0.037
			c0,0.004,0,0.008,0,0.012v0.1c0.025-0.003,0.049,0.016,0.053,0.042c0,0.003,0,0.006,0,0.01v0.1h0.053v0.047l0.051,0.049v0.051
			l0.051,0.051v0.048L15.7,6.473v0.2l0.052,0.049v0.1h0.053V6.97h0.053v0.1l0.051,0.049v0.049l0.051,0.049v0.1
			c0.023-0.004,0.047,0.013,0.053,0.037c0,0.004,0,0.008,0,0.012v0.1c-0.004,0.025,0.014,0.048,0.039,0.051c0.004,0,0.008,0,0.012,0
			v0.1l0.054,0.052v0.046h0.05v0.048l0.052,0.051V7.86l0.054,0.052v0.1h0.051v0.147l0.053,0.051v0.049
			c-0.003,0.025,0.016,0.048,0.04,0.051c0.004,0,0.008,0,0.012,0v0.048l0.054,0.051v0.148l0.102,0.1v0.1l0.052,0.049v0.05h0.054v0.1
			h0.051C16.732,8.981,16.754,9,16.777,8.999c0.002,0,0.005,0,0.007,0v0.056l0.207,0.2v0.644l0.053,0.049v0.1
			c0.024-0.003,0.047,0.015,0.05,0.04c0,0.003,0,0.006,0,0.01l0.053,0.048V10.2l0.053,0.049V10.3h0.053v0.1
			c0.025-0.003,0.048,0.014,0.053,0.04c0,0.003,0,0.006,0,0.01l0.053,0.051v0.051h0.052v0.049l0.1,0.1
			c-0.003,0.024,0.015,0.045,0.04,0.048c0.003,0,0.008,0,0.01,0v0.052h0.053v0.049l0.156,0.2v0.351
			c0.025,0.029,0.062,0.046,0.101,0.049v19.3h-0.149v0.048c-0.023-0.004-0.048,0.015-0.052,0.039c0,0.004,0,0.008,0,0.013
			l-0.05,0.104h-0.102v0.051l-0.052,0.048v0.043h-0.055V31.2h-0.724v-0.8l0.1-0.104c0.023,0.005,0.048-0.012,0.053-0.036
			c0-0.004,0-0.009,0-0.013h0.053v-0.062h0.049v-0.054h0.055v-18.45h-0.102l-0.052-0.049v-0.027l-0.053-0.049v-0.051h-0.052v-0.051
			l-0.051-0.049v-0.051l-0.054-0.048v-0.1l-0.056-0.05v-0.05h-0.049v-0.1h-0.053v-0.048l-0.052-0.051h-0.048
			c0.003-0.024-0.016-0.046-0.039-0.049c-0.004,0-0.01,0-0.014,0v-0.1c0.003-0.024-0.014-0.045-0.037-0.048c-0.004,0-0.01,0-0.014,0
			V10.66h-0.06v-0.1c-0.024,0.003-0.049-0.014-0.052-0.039c-0.001-0.004-0.001-0.008,0-0.012c0.003-0.024-0.016-0.045-0.04-0.048
			c-0.003,0-0.007,0-0.011,0v-0.048h-0.053v-0.055l-0.053-0.1c0.002-0.025-0.018-0.047-0.043-0.049c-0.002,0-0.006,0-0.009,0v-0.05
			l-0.155-0.1v-0.048h-0.05v-0.1c-0.024,0.003-0.048-0.014-0.052-0.04c0-0.003-0.002-0.008,0-0.012L15.64,9.813v-0.05h-0.05V9.714
			c-0.025-0.029-0.063-0.046-0.1-0.049V9.614h-0.057v-0.05c-0.022,0.004-0.047-0.013-0.051-0.037
			c-0.001-0.004-0.001-0.008-0.001-0.012v-0.1c-0.024,0.003-0.048-0.014-0.052-0.039c0-0.004,0-0.008,0-0.012l-0.053-0.049V9.267
			h-0.049L15.07,9.068V9.016c-0.023,0.003-0.045-0.013-0.049-0.037c-0.002-0.004-0.002-0.008,0-0.012H14.97v24.305l-0.205,0.061
			c-0.079,0.029-0.148,0.088-0.209,0.146H14.51c-0.733,0.396-1.516,0.697-2.326,0.896c-0.807,0.256-1.639,0.424-2.481,0.5
			c-0.698,0.131-1.412,0.165-2.119,0.104c-0.653-0.063-1.238-0.146-1.755-0.248c-0.914-0.158-1.8-0.439-2.635-0.852
			c-0.248-0.104-0.489-0.219-0.724-0.352c-0.136-0.029-0.26-0.104-0.361-0.196l-0.155-0.056V8.916
			C1.819,8.63,1.881,8.289,2.109,8.069c0.002-0.039,0.021-0.075,0.05-0.1C2.259,7.936,2.364,7.92,2.47,7.92V7.868
			c0.218-0.076,0.443-0.125,0.672-0.147c0.275-0.033,0.672-0.067,1.188-0.1c0.289-0.068,0.583-0.118,0.878-0.148
			c0.171-0.026,0.343-0.042,0.516-0.048c-0.034-0.232-0.034-0.468,0-0.7c0.055-0.08,0.105-0.163,0.152-0.248l0.154-0.2V4.083H5.98
			C5.79,4.082,5.6,4.064,5.412,4.032H4.69v-0.7h0.05V3.285h0.1c-0.07-0.141-0.07-0.307,0-0.448c0.03-0.18,0.101-0.351,0.207-0.5
			c0.085-0.218,0.283-0.372,0.516-0.4h6.1l0.259,0.1v0.2c0.201-0.386,0.464-0.737,0.777-1.039V1.045h0.154
			c-0.002-0.025,0.018-0.046,0.041-0.047c0.004,0,0.008,0,0.012,0v0.047h0.516v0.553l0.053,0.045v0.049h0.26v0.05l0.05,0.049
			L13.783,1.942L13.783,1.942z M7.016,11.998c-0.836,0.71-1.507,1.595-1.966,2.591c-0.669,1.348-1.022,2.83-1.033,4.334
			c-0.01,1.027,0.13,2.052,0.414,3.038c0.279,1.083,1.014,1.992,2.015,2.491c0.493,0.269,1.04,0.421,1.6,0.446
			c-1.016-0.627-1.625-1.744-1.6-2.938c-0.055-1.065,0.361-2.103,1.136-2.836c0.129-0.112,0.269-0.213,0.416-0.3
			c-0.378,1.029,0.035,2.092,1.24,3.188c0.571,0.541,1.012,1.205,1.29,1.941c0.162,0.238,0.119,0.561-0.1,0.749
			c0.536,0.14,1.101-0.081,1.4-0.547c0.019-0.022,0.035-0.048,0.047-0.075c0.764-0.516,1.258-1.348,1.344-2.266
			c0.207-1.301-0.03-2.635-0.672-3.792c-0.401-0.833-0.942-1.592-1.6-2.242c-0.759-0.832-1.293-1.843-1.551-2.939
			C9.022,11.77,9.238,10.58,9.964,9.706C8.995,10.409,8.013,11.171,7.016,11.998z M14.456,26.643v-0.301
			c-1.933,0.318-3.882,0.52-5.839,0.6c-2.043-0.082-4.08-0.273-6.1-0.6v1.842c2.046,0.396,4.118,0.646,6.2,0.746
			c1.928-0.08,3.846-0.313,5.736-0.701v-1.582L14.456,26.643z M10.994,24.898h-0.259v0.051L10.994,24.898z M9.701,24.998v-0.045
			c-0.025-0.004-0.048,0.013-0.052,0.037c0,0.004-0.001,0.008,0,0.012h0.052V24.998z M7.428,25.146
			c-0.096-0.019-0.191-0.025-0.285-0.049l-0.026,0.049H7.428z"/>
	</defs>
	<clipPath id="SVGID_2_">
		<use xlink:href="#SVGID_1_"  overflow="visible"/>
	</clipPath>
	<g clip-path="url(#SVGID_2_)">
		<g>
			
				<linearGradient id="SVGID_3_" gradientUnits="userSpaceOnUse" x1="-833.6621" y1="-0.1523" x2="-772.6274" y2="-0.1523" gradientTransform="matrix(-1 0 0 -1 -782.2783 19.3398)">
				<stop  offset="0" style="stop-color:#F2E2C8;stop-opacity:0"/>
				<stop  offset="0.9194" style="stop-color:#FEB243;stop-opacity:0.8"/>
			</linearGradient>
			<path fill="url(#SVGID_3_)" d="M25.491,16.065l1.59,0.925c-0.154,0.737,1.71,2.338,1.71,2.338l-11.217-5.924l-8.537,1.444
				L32.68,25.361L20.46,18.11l15.815,5.208l6.835,4.585l2.037-4.405l-2.982,0.025L25.491,16.065z M10.076,23.244
				c-0.207-1.034-2-1.393-2-1.393l-3.915-1.305l-0.695-0.607c-0.338-0.498-2.871-1.828-2.871-1.828
				c0.84,0.457,6.263,1.392,6.263,1.392c1.398,1.379,4.523,1.217,4.523,1.217l-4.872-2.609l-7.306-4.001l-0.958-0.087l-0.285-2.102
				l-1.654-0.331l-5.957,8.935l6.525,14.482l16.308-0.252l-7.456-4.64l5.568,0.436l7.844,4.204l6.236-5.165l-7.083-0.666
				C14.939,25.56,10.076,23.244,10.076,23.244z M31.868,13.835l-1.158-0.992l20.674,11.312l-2.74-5.875
				c-0.504-0.106-5.627-2.579-5.627-2.579c-1.808-0.362-5.734-2.906-5.734-2.906h-6.628L20.363,3.977l-1.958,3.134l8.292,5.302
				L31.868,13.835z"/>
		</g>
	</g>
</g>
<linearGradient id="shape2_2_" gradientUnits="userSpaceOnUse" x1="-139.5005" y1="-555.4067" x2="-139.7505" y2="-570.4076" gradientTransform="matrix(1 0 0 -1 177.1201 -538.9805)">
	<stop  offset="0" style="stop-color:#630A0A"/>
	<stop  offset="0.4892" style="stop-color:#A81513"/>
	<stop  offset="1" style="stop-color:#E4100C"/>
</linearGradient>
<path id="shape2_1_" fill="url(#shape2_2_)" d="M47.38,31.251c-0.313,0-0.625-0.05-0.923-0.147
	c-0.297,0.104-0.607,0.147-0.921,0.147h-8.193c-0.185,0-0.446-0.009-0.771-0.075c-0.217,0.051-0.438,0.075-0.663,0.075h-2.664
	c-0.815,0-1.604-0.342-2.166-0.937c-0.078-0.086-0.149-0.174-0.22-0.271l-0.909,0.646c-0.503,0.355-1.101,0.556-1.726,0.556H24.64
	c-0.717,0-1.402-0.269-1.935-0.722c-0.616,0.427-1.351,0.648-2.114,0.648c-0.75,0-1.479-0.222-2.104-0.642
	c-0.164-0.11-0.315-0.233-0.452-0.37c-1.021-1.021-1.363-2.424-0.92-3.753l0.044-0.13l0.08-0.201
	c-1.801-0.254-3.145-1.77-3.145-3.646V22.24c0-0.741,0.274-1.45,0.773-1.996l4.748-5.232c0.646-1.069,1.762-1.679,3.079-1.679h0.41
	c2.064,0,3.684,1.618,3.684,3.684c0,0-0.001,0.289-0.003,0.331c0.555-0.653,1.372-1.044,2.26-1.044h8.396
	c0.263,0,0.52,0.034,0.77,0.101c0.25-0.067,0.51-0.101,0.771-0.101H48.2c0.243,0,0.481,0.029,0.717,0.087
	c0.233-0.058,0.476-0.087,0.72-0.087h8.396c0.917,0,1.797,0.433,2.354,1.159c0.559,0.726,0.752,1.689,0.514,2.573l-0.398,1.532
	c-0.146,0.541-0.438,1.02-0.829,1.395c-0.021,0.188-0.045,0.372-0.103,0.555l-0.401,1.537c-0.075,0.282-0.188,0.551-0.354,0.799
	c0.168,0.532,0.188,1.109,0.041,1.656l-0.414,1.539c-0.346,1.297-1.521,2.202-2.857,2.202H47.38z M44.341,23.782l0.013-0.009h-0.793
	l-0.002,0.009H44.341z"/>
<path id="ACE" fill="#FFFFFF" d="M21.568,23.163h-3.789c-0.409,0-0.717-0.308-0.717-0.718c0-0.104,0-0.104,0-0.204l5.018-5.531
	c0.104-0.307,0.311-0.41,0.615-0.41h0.41c0.408,0,0.717,0.308,0.717,0.717c0,0.102,0,0.205,0,0.205l-2.459,3.584h4.402
	c0.615,0,0.311,1.127-0.103,1.639l-4.507,5.531c-0.309,0.308-0.717,0.308-1.023,0.104c-0.205-0.206-0.309-0.41-0.205-0.719
	L21.568,23.163L21.568,23.163L21.568,23.163z M29.046,19.271l0.409,0.41l-4.813,8.603h3.584l2.149-1.536h2.973l-0.104,1.536h2.663
	l1.534-9.013H29.046L29.046,19.271z M33.552,20.809l-0.104,3.482h-2.969l2.046-3.482H33.552L33.552,20.809z M37.343,28.284h8.191
	l0.612-2.15l-0.818,0.614h-5.732l1.739-5.941h6.452l0.408-1.535h-9.217l-2.355,7.988c-0.102,0.104-0.102,0.309-0.102,0.409
	c0,0.103,0,0.205,0.103,0.31c0.103,0.105,0.205,0.203,0.308,0.203C37.137,28.284,37.24,28.284,37.343,28.284L37.343,28.284
	L37.343,28.284z M49.632,19.271l0.312,0.604l-2.563,8.396h8.193l0.408-1.532h-5.121l0.718-2.458h4.711l0.41-1.537h-4.507
	l0.611-1.938h4.813l0.406-1.535H49.632L49.632,19.271z"/>
</svg>
