<?xml version="1.0" encoding="utf-8"?>
<!-- Generator: Adobe Illustrator 16.0.0, SVG Export Plug-In . SVG Version: 6.00 Build 0)  -->
<!DOCTYPE svg PUBLIC "-//W3C//DTD SVG 1.1//EN" "http://www.w3.org/Graphics/SVG/1.1/DTD/svg11.dtd">
<svg version="1.1" id="case1" xmlns="http://www.w3.org/2000/svg" xmlns:xlink="http://www.w3.org/1999/xlink" x="0px" y="0px"
	 width="82.75px" height="36px" viewBox="0 0 82.75 36" enable-background="new 0 0 82.75 36" xml:space="preserve">
<linearGradient id="mp5sd_1_" gradientUnits="userSpaceOnUse" x1="-116.2373" y1="-539.5229" x2="-45.2417" y2="-539.5229" gradientTransform="matrix(1 0 0 -1 118.0601 -523.2256)">
	<stop  offset="0" style="stop-color:#DC4A49"/>
	<stop  offset="0.3011" style="stop-color:#BE2126"/>
	<stop  offset="0.7419" style="stop-color:#E10414"/>
	<stop  offset="1" style="stop-color:#FEB243"/>
</linearGradient>
<path id="mp5sd" fill="url(#mp5sd_1_)" d="M72.818,8.995c-0.01,0.506-0.078,1.009-0.201,1.5c-0.043,0.25-0.105,0.494-0.196,0.731
	H50.965v0.615l-0.238,0.308H31.208V11.3h-0.79c-0.149,0.173-0.166,0.424-0.04,0.615l0.554,1.654h0.276l0.08,0.271l-0.475,0.192
	l0.119,0.423c0.133,0.333,0.278,0.718,0.435,1.154c0.602,1.487,1.289,2.939,2.059,4.345c1.03,1.905,2.18,3.741,3.444,5.5
	c0.713,1.026,1.359,1.911,1.94,2.653l-2.93,2.188c-0.554-0.688-1.201-1.551-1.94-2.572c-1.29-1.842-2.466-3.755-3.524-5.729
	c-0.897-1.743-1.676-3.371-2.336-4.884l-0.752-1.769l-0.277,0.077h-1.068l-0.317,1.615h-0.238l0.238-1.538h-1.148l-0.277,0.269
	l-1.386,2.691c-0.085,0.211-0.289,0.349-0.515,0.347h-4.355c-0.333-0.015-0.659-0.107-0.95-0.271l-0.158,0.114
	c-0.21,0.25-0.335,0.562-0.356,0.886c-0.013,0.188-0.067,0.37-0.158,0.536c-0.065,0.147-0.145,0.291-0.238,0.427
	c-0.153,0.17-0.273,0.362-0.356,0.575c-0.075,0.212-0.128,0.434-0.158,0.654c0.013,0.183-0.015,0.363-0.079,0.535
	c-0.069,0.212-0.177,0.406-0.317,0.577c-0.139,0.222-0.258,0.45-0.356,0.688c-0.066,0.228-0.106,0.457-0.119,0.689
	c-0.016,0.188-0.056,0.364-0.119,0.538c-0.098,0.203-0.234,0.388-0.4,0.538c-0.132,0.104-0.238,0.18-0.317,0.229l-4.711-2.5
	c0.048-0.313,0.127-0.625,0.238-0.924c0.275-0.797,0.593-1.58,0.95-2.346c0.366-0.701,0.79-1.37,1.267-2l0.475-0.615l0.277-0.538
	c0.141-0.385,0.233-0.785,0.277-1.192c0.064-0.372-0.006-0.754-0.2-1.077c-0.165-0.262-0.397-0.475-0.673-0.615
	c-0.125-0.036-0.244-0.088-0.356-0.154c-0.08-0.008-0.152-0.05-0.2-0.115c-0.07-0.063-0.125-0.143-0.158-0.231H8.088
	c-0.313-0.038-0.567-0.27-0.634-0.577l-0.475-2.23l-0.2-0.038L6.7,10.638l0.518,1.66L6.98,12.721H5.752l-0.277-0.5l0.792-1.538
	l-0.04-0.346L5.91,10.491c-0.227,0.193-0.416,0.428-0.554,0.692C5.204,11.45,5.085,11.734,5,12.029
	c-0.045,0.097-0.072,0.201-0.079,0.308l-0.435,2.615c-0.1,0.929-0.299,1.844-0.594,2.73c-0.112,0.083-0.218,0.172-0.317,0.269
	c-0.066,0.056-0.151,0.084-0.238,0.078c-0.21,0.025-0.423,0.025-0.633,0c-0.235-0.014-0.459-0.11-0.633-0.27
	c-0.109-0.092-0.191-0.211-0.238-0.346c-0.022-0.13-0.008-0.263,0.04-0.385c0-0.025,0.092-0.602,0.277-1.73
	c0.185-1.051,0.303-1.846,0.356-2.384c0.026-0.333,0.04-1.346,0.04-3.038V7.8c-0.04-0.272-0.013-0.55,0.079-0.808
	C2.751,6.867,2.922,6.797,3.099,6.8C3.63,6.801,4.161,6.852,4.683,6.954C5.105,7.056,5.514,7.146,5.91,7.223h1.069l0.04-0.615
	C7.098,6.352,7.177,6.082,7.257,5.8c0.124-0.342,0.269-0.676,0.435-1c0.086-0.091,0.196-0.158,0.317-0.192h3.009l0.277,0.115h1.386
	l0.037-1.077c0.052-0.216,0.178-0.406,0.356-0.538c0.138-0.098,0.308-0.139,0.475-0.115h0.4l0.158,0.577l0.311-0.77l1.663,0.692
	l-0.356,0.615l0.356,0.577H31.05l0.317,0.038h18.014V4.339h-0.238V2.493L49.301,2.3h0.674l0.553,1.5v0.923h0.357l0.275,0.385v1.307
	h-0.236v0.423h21.578L72.66,7.53C72.76,8.012,72.813,8.502,72.818,8.995z M23.29,15.763l-0.272-0.269h-3.212L19.648,15.8
	c-0.102,0.196-0.182,0.402-0.238,0.615c-0.021,0.233,0.006,0.469,0.079,0.692c0.036,0.196,0.089,0.39,0.158,0.577l0.039,0.385
	l-0.317-0.154c-0.221-0.3-0.383-0.639-0.475-1c-0.052-0.308-0.093-0.641-0.119-1v-0.421h-0.79L17.629,16.3
	c-0.211,0.539-0.33,0.846-0.356,0.923c-0.026,0.23-0.026,0.462,0,0.692c0.232,0.215,0.52,0.362,0.831,0.423h4
	c0.165-0.031,0.301-0.148,0.356-0.307L23.29,15.763z"/>
<linearGradient id="shape5_1_" gradientUnits="userSpaceOnUse" x1="187.3262" y1="1559.0537" x2="187.3262" y2="1572.8037" gradientTransform="matrix(1 0 0 1 -129.52 -1542.3857)">
	<stop  offset="0" style="stop-color:#630A0A"/>
	<stop  offset="0.4892" style="stop-color:#A81513"/>
	<stop  offset="1" style="stop-color:#E4100C"/>
</linearGradient>
<path id="shape5" fill="url(#shape5_1_)" d="M67.635,31.251c-0.313,0-0.625-0.05-0.922-0.147c-0.298,0.104-0.609,0.147-0.922,0.147
	h-8.193c-0.186,0-0.443-0.009-0.77-0.075c-0.217,0.051-0.439,0.075-0.664,0.075H53.5c-0.816,0-1.605-0.342-2.166-0.937
	c-0.078-0.086-0.15-0.174-0.219-0.271l-0.91,0.648c-0.504,0.354-1.1,0.554-1.725,0.554h-3.584c-0.721,0-1.402-0.269-1.938-0.722
	c-0.614,0.427-1.352,0.649-2.112,0.649c-0.75,0-1.479-0.222-2.104-0.642c-0.164-0.11-0.315-0.233-0.452-0.37
	c-1.021-1.021-1.363-2.423-0.92-3.753l0.044-0.128l0.08-0.203c-1.801-0.254-3.145-1.769-3.145-3.646V22.24
	c0-0.741,0.274-1.45,0.773-1.996l4.748-5.232c0.646-1.069,1.762-1.679,3.08-1.679h0.409c2.063,0,3.686,1.618,3.686,3.684
	c0,0-0.001,0.289-0.003,0.331c0.556-0.653,1.371-1.044,2.26-1.044H57.7c0.261,0,0.518,0.034,0.768,0.103
	c0.25-0.067,0.509-0.103,0.771-0.103h9.219c0.244,0,0.48,0.029,0.719,0.087c0.232-0.058,0.479-0.087,0.721-0.087h8.396
	c0.917,0,1.797,0.433,2.354,1.159c0.563,0.726,0.752,1.689,0.518,2.573l-0.405,1.532c-0.146,0.541-0.435,1.02-0.825,1.395
	c-0.02,0.188-0.049,0.372-0.098,0.555l-0.41,1.537c-0.072,0.282-0.188,0.551-0.348,0.799c0.168,0.533,0.188,1.109,0.041,1.656
	l-0.414,1.539c-0.35,1.297-1.521,2.202-2.864,2.202H67.635z M64.596,23.782l0.018-0.009h-0.797l-0.004,0.009H64.596z"/>
<path id="ACE" fill="#FFFFFF" d="M41.826,23.163h-3.792c-0.409,0-0.717-0.308-0.717-0.718c0-0.104,0-0.104,0-0.204l5.018-5.531
	c0.104-0.307,0.313-0.41,0.613-0.41h0.409c0.408,0,0.718,0.308,0.718,0.717c0,0.102,0,0.205,0,0.205l-2.458,3.584h4.4
	c0.614,0,0.313,1.127-0.104,1.639l-4.507,5.531c-0.309,0.308-0.717,0.308-1.023,0.104c-0.205-0.206-0.309-0.41-0.205-0.719
	L41.826,23.163L41.826,23.163L41.826,23.163z M49.305,19.271l0.408,0.41L44.9,28.284h3.584l2.146-1.536h2.976l-0.104,1.536h2.663
	l1.535-9.013H49.305L49.305,19.271z M53.811,20.809l-0.104,3.482h-2.971l2.049-3.482H53.811L53.811,20.809z M57.602,28.284h8.19
	l0.612-2.15l-0.818,0.614h-5.732l1.739-5.941h6.452l0.408-1.535h-9.217l-2.355,7.988c-0.102,0.104-0.102,0.309-0.102,0.409
	c0,0.103,0,0.205,0.103,0.31c0.103,0.105,0.205,0.203,0.308,0.203C57.395,28.284,57.498,28.284,57.602,28.284L57.602,28.284
	L57.602,28.284z M69.891,19.271l0.313,0.607l-2.563,8.396h8.192l0.408-1.533H71.12l0.718-2.458h4.711l0.41-1.537h-4.507l0.61-1.94
	h4.813l0.408-1.535H69.891L69.891,19.271z"/>
<g>
	<defs>
		<path id="SVGID_1_" d="M72.818,8.995c-0.01,0.506-0.078,1.009-0.201,1.5c-0.043,0.25-0.105,0.494-0.196,0.731H50.965v0.615
			l-0.238,0.308H31.208V11.3h-0.79c-0.149,0.173-0.166,0.424-0.04,0.615l0.554,1.654h0.276l0.08,0.271l-0.475,0.192l0.119,0.423
			c0.133,0.333,0.278,0.718,0.435,1.154c0.602,1.487,1.289,2.939,2.059,4.345c1.03,1.905,2.18,3.741,3.443,5.5
			c0.714,1.026,1.359,1.911,1.94,2.653l-2.93,2.188c-0.554-0.688-1.201-1.551-1.94-2.572c-1.29-1.842-2.466-3.755-3.524-5.729
			c-0.897-1.743-1.676-3.371-2.336-4.884l-0.751-1.769l-0.277,0.077h-1.068l-0.317,1.615h-0.238l0.238-1.538h-1.148l-0.277,0.269
			l-1.386,2.691c-0.085,0.211-0.289,0.349-0.515,0.347h-4.355c-0.333-0.015-0.659-0.107-0.95-0.271l-0.158,0.114
			c-0.21,0.25-0.335,0.562-0.356,0.886c-0.013,0.188-0.067,0.37-0.158,0.536c-0.065,0.147-0.145,0.291-0.238,0.427
			c-0.153,0.17-0.273,0.362-0.356,0.575c-0.075,0.212-0.128,0.434-0.158,0.654c0.013,0.183-0.015,0.363-0.079,0.535
			c-0.069,0.212-0.177,0.406-0.317,0.577c-0.139,0.222-0.258,0.45-0.356,0.688c-0.066,0.228-0.106,0.457-0.119,0.689
			c-0.016,0.188-0.056,0.364-0.119,0.538c-0.098,0.203-0.234,0.388-0.4,0.538c-0.132,0.104-0.238,0.18-0.317,0.229l-4.711-2.5
			c0.048-0.313,0.127-0.625,0.238-0.924c0.275-0.797,0.593-1.58,0.95-2.346c0.366-0.701,0.79-1.37,1.267-2l0.475-0.615l0.277-0.538
			c0.141-0.385,0.233-0.785,0.277-1.192c0.064-0.372-0.006-0.754-0.2-1.077c-0.165-0.262-0.397-0.475-0.673-0.615
			c-0.125-0.036-0.244-0.088-0.356-0.154c-0.08-0.008-0.152-0.05-0.2-0.115c-0.07-0.063-0.125-0.143-0.158-0.231H8.088
			c-0.313-0.038-0.567-0.27-0.634-0.577l-0.475-2.23l-0.2-0.038L6.7,10.638l0.518,1.66L6.98,12.721H5.752l-0.277-0.5l0.792-1.538
			l-0.04-0.346L5.91,10.491c-0.227,0.193-0.416,0.428-0.554,0.692C5.204,11.45,5.085,11.734,5,12.029
			c-0.045,0.097-0.072,0.201-0.079,0.308l-0.435,2.615c-0.1,0.929-0.299,1.844-0.594,2.729c-0.112,0.084-0.218,0.172-0.317,0.27
			c-0.066,0.056-0.151,0.084-0.238,0.078c-0.21,0.025-0.423,0.025-0.633,0c-0.235-0.014-0.459-0.11-0.633-0.27
			c-0.109-0.093-0.191-0.212-0.238-0.347c-0.022-0.13-0.008-0.263,0.04-0.385c0-0.025,0.092-0.602,0.277-1.73
			c0.185-1.051,0.303-1.846,0.356-2.384c0.026-0.333,0.04-1.346,0.04-3.038V7.8c-0.04-0.272-0.013-0.55,0.079-0.808
			C2.751,6.867,2.922,6.797,3.099,6.8C3.63,6.801,4.161,6.852,4.683,6.954C5.105,7.056,5.514,7.146,5.91,7.223h1.069l0.04-0.615
			C7.098,6.352,7.177,6.082,7.257,5.8c0.124-0.342,0.269-0.676,0.435-1c0.086-0.091,0.196-0.158,0.317-0.192h3.009l0.277,0.115
			h1.386l0.037-1.077c0.052-0.216,0.178-0.406,0.356-0.538c0.138-0.098,0.308-0.139,0.475-0.115h0.4l0.158,0.577l0.311-0.77
			l1.663,0.692l-0.356,0.615l0.356,0.577H31.05l0.317,0.038h18.014V4.339h-0.238V2.493L49.301,2.3h0.674l0.553,1.5v0.923h0.357
			l0.275,0.385v1.307h-0.236v0.423h21.578L72.66,7.53C72.76,8.012,72.813,8.502,72.818,8.995z M23.29,15.763l-0.272-0.269h-3.212
			L19.648,15.8c-0.102,0.196-0.182,0.402-0.238,0.615c-0.021,0.233,0.006,0.469,0.079,0.692c0.036,0.196,0.089,0.39,0.158,0.577
			l0.039,0.385l-0.317-0.153c-0.221-0.3-0.383-0.639-0.475-1c-0.052-0.308-0.093-0.641-0.119-1v-0.421h-0.79L17.629,16.3
			c-0.211,0.539-0.33,0.846-0.356,0.923c-0.026,0.23-0.026,0.462,0,0.692c0.232,0.215,0.52,0.362,0.831,0.423h4
			c0.165-0.031,0.301-0.148,0.356-0.307L23.29,15.763z"/>
	</defs>
	<clipPath id="SVGID_2_">
		<use xlink:href="#SVGID_1_"  overflow="visible"/>
	</clipPath>
	<g clip-path="url(#SVGID_2_)">
		<g>
			
				<linearGradient id="SVGID_3_" gradientUnits="userSpaceOnUse" x1="-819.8291" y1="10.1875" x2="-758.7949" y2="10.1875" gradientTransform="matrix(-1 0 0 -1 -762.0283 19.3398)">
				<stop  offset="0" style="stop-color:#F2E2C8;stop-opacity:0"/>
				<stop  offset="0.9194" style="stop-color:#FEB243;stop-opacity:0.8"/>
			</linearGradient>
			<path fill="url(#SVGID_3_)" d="M31.909,5.725l1.59,0.924c-0.154,0.737,1.71,2.34,1.71,2.34L23.992,3.063l-8.537,1.444
				L39.097,15.02L26.877,7.77l15.816,5.209l6.834,4.584l2.037-4.405l-2.982,0.026L31.909,5.725z M16.494,12.905
				c-0.207-1.035-2-1.394-2-1.394l-3.915-1.305L9.883,9.598C9.545,9.102,7.013,7.772,7.013,7.772
				c0.84,0.457,6.263,1.392,6.263,1.392c1.398,1.379,4.523,1.217,4.523,1.217l-4.872-2.608L5.621,3.77L4.663,3.684L4.377,1.582
				L2.724,1.25l-5.957,8.936l6.525,14.482L19.6,24.416l-7.456-4.641l5.568,0.436l7.844,4.205l6.236-5.166l-7.083-0.666
				C21.356,15.219,16.494,12.905,16.494,12.905z M38.286,3.495l-1.158-0.992l20.673,11.311l-2.74-5.875
				c-0.504-0.105-5.627-2.578-5.627-2.578c-1.807-0.362-5.734-2.906-5.734-2.906h-6.628L26.78-6.364L24.822-3.23l8.292,5.303
				L38.286,3.495z"/>
		</g>
	</g>
</g>
</svg>
