<?xml version="1.0" encoding="utf-8"?>
<!-- Generator: Adobe Illustrator 16.0.0, SVG Export Plug-In . SVG Version: 6.00 Build 0)  -->
<!DOCTYPE svg PUBLIC "-//W3C//DTD SVG 1.1//EN" "http://www.w3.org/Graphics/SVG/1.1/DTD/svg11.dtd">
<svg version="1.1" id="case1" xmlns="http://www.w3.org/2000/svg" xmlns:xlink="http://www.w3.org/1999/xlink" x="0px" y="0px"
	 width="92px" height="36px" viewBox="0 0 92 36" enable-background="new 0 0 92 36" xml:space="preserve">
<linearGradient id="m249_1_" gradientUnits="userSpaceOnUse" x1="0.624" y1="13.8672" x2="91.127" y2="13.8672">
	<stop  offset="0" style="stop-color:#DC4A49"/>
	<stop  offset="0.3011" style="stop-color:#BE2126"/>
	<stop  offset="0.7419" style="stop-color:#E10414"/>
	<stop  offset="1" style="stop-color:#FEB243"/>
</linearGradient>
<path id="m249" fill="url(#m249_1_)" d="M52.174,1.751h0.854l0.412,0.136c0.061,0.126,0.172,0.217,0.313,0.24h0.312l0.063,0.136
	c0.081-0.004,0.161,0.007,0.232,0.034c0.078,0.047,0.184,0.033,0.24-0.034c0.137,0.004,0.271,0.016,0.407,0.034
	c0.166,0.049,0.325,0.118,0.478,0.205c0.16,0.056,0.313,0.136,0.442,0.239c0.085,0.037,0.164,0.083,0.239,0.137
	c0.063,0.023,0.134,0.035,0.203,0.035c0.064,0.058,0.148,0.094,0.236,0.102h0.31c0.08,0.005,0.16,0.016,0.237,0.034
	c0.146,0.05,0.283,0.119,0.408,0.205c0.154,0.046,0.295,0.089,0.404,0.136l0.176,0.102h0.104c0.066,0.182,0.124,0.355,0.17,0.513
	c0.072,0.176,0.131,0.359,0.171,0.545c0.044,0.19,0.065,0.385,0.065,0.58c0.002,0.16-0.01,0.32-0.032,0.478
	c-0.002,0.165-0.035,0.326-0.103,0.477c-0.095,0.414-0.277,0.801-0.552,1.128c-0.141,0.11-0.233,0.268-0.271,0.443
	c-0.039,0.032-0.088,0.055-0.137,0.068c-0.059,0.02-0.109,0.032-0.17,0.035h9.063c0.039,0.077,0.07,0.157,0.104,0.238
	c0.041,0.119,0.107,0.225,0.201,0.308c0.436,0.069,0.909,0.16,1.436,0.273c0.498,0.137,0.998,0.261,1.498,0.375
	c0.5,0.092,0.92,0.171,1.264,0.238c0.229,0.073,0.473,0.108,0.716,0.103c0.204,0,0.331-0.194,0.375-0.581
	c0.051-0.154,0.071-0.316,0.063-0.479L72.79,6.87V6.563c0-0.183,0.015-0.366,0.034-0.548c0.021-0.249,0.057-0.501,0.104-0.75h1.09
	v3.753l-0.035,0.273V9.36c0,0.067,0.088,0.101,0.271,0.101c0.398,0.109,0.814,0.144,1.229,0.103c0.771,0,1.703-0.011,2.793-0.035
	c1.113,0,2.312-0.011,3.578-0.034c1.25-0.022,2.435-0.034,3.543-0.034c0.363-0.022,0.729-0.034,1.095-0.034h0.889
	c0.22-0.003,0.438,0.008,0.646,0.034h0.748c0.269,0.001,0.526-0.033,0.783-0.101h1.021c0.158,0,0.238,0.034,0.238,0.101
	c0.176,0.519,0.273,1.059,0.311,1.605c-0.02,0.156-0.146,0.274-0.309,0.273c-0.271,0.102-0.563,0.137-0.854,0.103
	c-0.521,0-1.074-0.023-1.671-0.068L86.7,11.306c-0.3,0.024-0.599,0.001-0.888-0.067H74.43c0,0.067-0.137,0.102-0.408,0.102v0.478
	h1.533l0.547,0.582v1.604h-0.719c-0.099-0.026-0.191-0.073-0.271-0.136c-0.057-0.014-0.104-0.05-0.137-0.102
	c-0.043-0.017-0.091-0.029-0.138-0.034c-0.079,0.001-0.159,0.013-0.237,0.034h-0.375c-0.178,0.048-0.361,0.071-0.545,0.068
	l-5.246,0.171c-0.729,0.068-1.396,0.125-2.012,0.17c-0.613,0.024-0.932,0.034-0.954,0.034c-0.135,0.225-0.282,0.441-0.442,0.649
	c-0.209,0.297-0.558,0.465-0.92,0.444c-0.521-0.097-0.979-0.406-1.263-0.854c-0.143,0.004-0.282-0.031-0.407-0.103
	c-0.088-0.071-0.189-0.118-0.308-0.136c0.06,0.281,0.095,0.567,0.103,0.854v0.649c0.004,0.239-0.006,0.479-0.027,0.716
	c-0.038,0.122-0.102,0.238-0.176,0.342c-0.182,0.022-0.359,0.022-0.547,0c-0.186-0.057-0.367-0.124-0.545-0.205
	c-0.396-0.034-0.793-0.046-1.188-0.034H57.12c-1.021,0-2.103,0.012-3.238,0.034H51.6c0.035,0.12,0.069,0.247,0.104,0.375
	c0.233,0.812,0.372,1.646,0.407,2.491v6.414c0.063,0.311,0.005,0.627-0.17,0.889c-0.154-0.045-0.315-0.063-0.479-0.063h-7.395
	c-0.221,0.021-0.443-0.016-0.648-0.104c-0.165-0.131-0.245-0.342-0.206-0.549l-0.064-10.991c0.042-0.084,0.064-0.178,0.064-0.272
	c-0.077-0.183-0.26-0.299-0.459-0.29c-0.028,0.004-0.055,0.01-0.088,0.017c-0.105,0.064-0.189,0.16-0.237,0.273
	c-0.088,0-0.137,0.08-0.137,0.24c0,0.148,0.011,0.297,0.033,0.443c-0.005,0.102,0.033,0.201,0.103,0.274
	c-0.033,0.086-0.079,0.167-0.137,0.237c-0.067,0.059-0.15,0.095-0.238,0.103c0.063,0.14,0.098,0.29,0.102,0.443
	c0.024,0.169,0.037,0.341,0.035,0.512c0.003,0.335-0.042,0.669-0.137,0.99c-0.144,0.301-0.423,0.519-0.75,0.58
	c-0.34,0.172-0.71,0.274-1.09,0.307c-0.385,0.046-0.773,0.046-1.158,0c-0.387-0.045-0.705-0.088-0.955-0.137
	c-0.146,0.015-0.289-0.051-0.374-0.17l-0.273-0.065c-0.13-0.019-0.251-0.08-0.341-0.175c-0.021,0.069-0.113,0.343-0.272,0.818
	c-0.181,0.454-0.386,0.968-0.614,1.536c-0.227,0.548-0.42,1.059-0.579,1.533c-0.096,0.23-0.176,0.476-0.239,0.719
	c0.075,0.121,0.144,0.246,0.205,0.373c0.019,0.113,0.03,0.229,0.035,0.345c-0.015,0.119-0.077,0.229-0.171,0.307
	c-0.082,0.22-0.209,0.419-0.375,0.581c-0.453,0.217-0.978,0.217-1.431,0c-0.363-0.088-0.75-0.206-1.158-0.341
	c-0.41-0.16-0.783-0.31-1.125-0.442c-0.386-0.139-0.794-0.298-1.225-0.479h-0.24l0.137-0.206c0.273-0.479,0.591-1.023,0.955-1.641
	c0.387-0.611,0.738-1.191,1.056-1.737c0.34-0.549,0.613-1.015,0.817-1.4c0.146-0.21,0.26-0.44,0.341-0.683
	c0.067-0.224,0.055-0.465-0.034-0.682c-0.079-0.275-0.263-0.509-0.511-0.649l-0.444-0.24c-0.12-0.062-0.24-0.118-0.354-0.169
	l-6.729-0.479H19.4c-1.27,0.004-2.537,0.129-3.782,0.375c-1.454,0.273-2.249,0.604-2.385,0.991
	c-0.099,0.294-0.123,0.609-0.068,0.916c0.056,0.469,0.232,0.916,0.511,1.296c0.271,0.342,0.351,0.58,0.239,0.717
	c-0.057,0.074-0.147,0.111-0.239,0.102l-11.96,0.549c-0.329-0.007-0.629-0.188-0.784-0.479c-0.213-0.35-0.319-0.75-0.307-1.157
	V8.814C0.764,8.636,0.954,8.506,1.17,8.439c0.585-0.227,1.239-0.202,1.805,0.068C5.17,8.949,7.389,9.256,9.621,9.429
	c0.546,0.124,1.023,0.454,1.331,0.922c0.369,0.488,0.902,0.827,1.5,0.956c0.681,0.04,1.364,0.017,2.041-0.068
	c0.71-0.059,1.416-0.162,2.114-0.308c1.299-0.23,2.575-0.574,3.815-1.025c0.659-0.25,1.579-0.647,2.76-1.192
	c1.522-0.639,3.154-0.976,4.804-0.991l0.444-0.067c0.636-0.09,1.272-0.181,1.907-0.274c0.475-0.062,0.953-0.084,1.431-0.068V7.04
	c0.13-0.3,0.244-0.608,0.341-0.921c0.055-0.225,0.16-0.436,0.306-0.615c0.166-0.187,0.377-0.328,0.614-0.409
	c0.313-0.076,0.637-0.099,0.958-0.068c0.34,0.068,0.703,0.148,1.089,0.24c0.356,0.061,0.709,0.14,1.057,0.239l0.987,0.34
	c0.095,0.052,0.168,0.137,0.205,0.239c0.095,0.062,0.157,0.162,0.171,0.274c0.049,0.166,0.071,0.338,0.067,0.511v0.443h5.486V6.87
	h2.896v0.443c0.226,0,0.51,0.011,0.852,0.033h1.158c0.386,0,0.738,0.012,1.057,0.033c0.168,0.033,0.34,0.056,0.512,0.069
	c0.067,0,0.354-0.022,0.854-0.069c0.5-0.021,1.104-0.055,1.81-0.101c0.701-0.022,1.434-0.08,2.182-0.171
	c0.721-0.037,1.438-0.116,2.146-0.238c0.117-0.068,0.227-0.161,0.309-0.273c0.135-0.09,0.25-0.206,0.34-0.341
	c0.119-0.254,0.225-0.517,0.307-0.785c-0.184-0.168-0.39-0.306-0.611-0.409c-0.116-0.047-0.229-0.104-0.34-0.171
	c-0.168,0.033-0.33-0.035-0.418-0.171c-0.254-0.1-0.518-0.18-0.783-0.239C55,4.412,54.727,4.355,54.5,4.309h-0.134
	c-0.25-0.135-0.534-0.195-0.816-0.171L52.895,4c-0.186-0.041-0.367-0.097-0.543-0.169c-0.125-0.101-0.233-0.216-0.34-0.341V3.456
	h-0.72c-0.194-0.003-0.388,0.008-0.58,0.035c-0.114,0-0.229-0.012-0.34-0.035c-0.197-0.234-0.326-0.517-0.374-0.819
	c0.025-0.561,0.229-1.098,0.579-1.536V1h0.067c0.388,0.087,0.764,0.213,1.123,0.375C51.919,1.482,52.057,1.609,52.174,1.751z
	 M40.985,16.186c-0.788,0.062-1.579,0.073-2.368,0.033c-0.31,0.381-0.265,0.938,0.102,1.264c0.202,0.19,0.473,0.289,0.75,0.273
	h0.887c0.211-0.014,0.408-0.113,0.546-0.273c0.185-0.191,0.283-0.45,0.271-0.716C41.168,16.559,41.103,16.357,40.985,16.186z"/>
<g>
	<defs>
		<path id="SVGID_1_" d="M52.174,1.751h0.854l0.412,0.136c0.061,0.126,0.172,0.217,0.313,0.24h0.312l0.063,0.136
			c0.081-0.004,0.161,0.007,0.232,0.034c0.078,0.047,0.184,0.033,0.24-0.034c0.137,0.004,0.271,0.016,0.407,0.034
			c0.166,0.049,0.325,0.118,0.478,0.205c0.16,0.056,0.313,0.136,0.442,0.239c0.085,0.037,0.164,0.083,0.239,0.137
			c0.063,0.023,0.134,0.035,0.203,0.035c0.064,0.058,0.148,0.094,0.236,0.102h0.31c0.08,0.005,0.16,0.016,0.237,0.034
			c0.146,0.05,0.283,0.119,0.408,0.205c0.154,0.046,0.295,0.089,0.404,0.136l0.176,0.102h0.104c0.066,0.182,0.124,0.355,0.17,0.513
			c0.072,0.176,0.131,0.359,0.171,0.545c0.044,0.19,0.065,0.385,0.065,0.58c0.002,0.16-0.01,0.32-0.032,0.478
			c-0.002,0.165-0.035,0.326-0.103,0.477c-0.095,0.414-0.277,0.801-0.552,1.128c-0.141,0.11-0.233,0.268-0.271,0.443
			c-0.039,0.032-0.088,0.055-0.137,0.068c-0.059,0.02-0.109,0.032-0.17,0.035h9.063c0.039,0.077,0.07,0.157,0.104,0.238
			c0.041,0.119,0.107,0.225,0.201,0.308c0.436,0.069,0.909,0.16,1.436,0.273c0.498,0.137,0.998,0.261,1.498,0.375
			c0.5,0.092,0.92,0.171,1.264,0.238c0.229,0.073,0.473,0.108,0.716,0.103c0.204,0,0.331-0.194,0.375-0.581
			c0.051-0.154,0.071-0.316,0.063-0.479L72.79,6.87V6.563c0-0.183,0.015-0.366,0.034-0.548c0.021-0.249,0.057-0.501,0.104-0.75h1.09
			v3.753l-0.035,0.273V9.36c0,0.067,0.088,0.101,0.271,0.101c0.398,0.109,0.814,0.144,1.229,0.103c0.771,0,1.703-0.011,2.793-0.035
			c1.113,0,2.312-0.011,3.578-0.034c1.25-0.022,2.435-0.034,3.543-0.034c0.363-0.022,0.729-0.034,1.095-0.034h0.889
			c0.22-0.003,0.438,0.008,0.646,0.034h0.748c0.269,0.001,0.526-0.033,0.783-0.101h1.021c0.158,0,0.238,0.034,0.238,0.101
			c0.176,0.519,0.273,1.059,0.311,1.605c-0.02,0.156-0.146,0.274-0.309,0.273c-0.271,0.102-0.563,0.137-0.854,0.103
			c-0.521,0-1.074-0.023-1.671-0.068L86.7,11.306c-0.3,0.024-0.599,0.001-0.888-0.067H74.43c0,0.067-0.137,0.102-0.408,0.102v0.478
			h1.533l0.547,0.582v1.604h-0.719c-0.099-0.026-0.191-0.073-0.271-0.136c-0.057-0.014-0.104-0.05-0.137-0.102
			c-0.043-0.017-0.091-0.029-0.138-0.034c-0.079,0.001-0.159,0.013-0.237,0.034h-0.375c-0.178,0.048-0.361,0.071-0.545,0.068
			l-5.246,0.171c-0.729,0.068-1.396,0.125-2.012,0.17c-0.613,0.024-0.932,0.034-0.954,0.034c-0.135,0.225-0.282,0.44-0.442,0.649
			c-0.209,0.297-0.558,0.465-0.92,0.443c-0.521-0.097-0.979-0.406-1.263-0.854c-0.143,0.004-0.282-0.031-0.407-0.104
			c-0.088-0.071-0.189-0.118-0.308-0.136c0.06,0.281,0.095,0.567,0.103,0.854v0.648c0.004,0.239-0.006,0.479-0.027,0.717
			c-0.038,0.121-0.102,0.237-0.176,0.342c-0.182,0.021-0.359,0.021-0.547,0c-0.186-0.058-0.367-0.125-0.545-0.205
			c-0.396-0.034-0.793-0.047-1.188-0.034H57.12c-1.021,0-2.103,0.012-3.238,0.034H51.6c0.035,0.119,0.069,0.246,0.104,0.375
			c0.233,0.812,0.372,1.646,0.407,2.491v6.413c0.063,0.31,0.005,0.627-0.17,0.89c-0.154-0.045-0.315-0.063-0.479-0.063h-7.395
			c-0.221,0.021-0.443-0.017-0.648-0.104c-0.165-0.131-0.245-0.342-0.206-0.549l-0.064-10.99c0.042-0.084,0.064-0.178,0.064-0.271
			c-0.077-0.184-0.26-0.299-0.459-0.29c-0.028,0.004-0.055,0.01-0.088,0.017c-0.105,0.064-0.189,0.16-0.237,0.273
			c-0.088,0-0.137,0.08-0.137,0.24c0,0.148,0.011,0.297,0.033,0.443c-0.005,0.102,0.033,0.201,0.103,0.273
			c-0.033,0.086-0.079,0.167-0.137,0.237c-0.067,0.059-0.15,0.095-0.238,0.103c0.063,0.141,0.098,0.29,0.102,0.443
			c0.024,0.169,0.037,0.341,0.035,0.512c0.003,0.335-0.042,0.67-0.137,0.99c-0.144,0.301-0.423,0.518-0.75,0.58
			c-0.34,0.172-0.71,0.275-1.09,0.307c-0.385,0.045-0.773,0.045-1.158,0c-0.387-0.045-0.705-0.088-0.955-0.137
			c-0.146,0.014-0.289-0.051-0.374-0.17l-0.273-0.066c-0.13-0.018-0.251-0.078-0.341-0.174c-0.021,0.069-0.113,0.342-0.272,0.818
			c-0.181,0.455-0.386,0.968-0.614,1.537c-0.227,0.547-0.42,1.058-0.579,1.533c-0.096,0.229-0.176,0.475-0.239,0.719
			c0.075,0.121,0.144,0.246,0.205,0.373c0.019,0.113,0.03,0.229,0.035,0.344c-0.015,0.119-0.077,0.23-0.171,0.307
			c-0.082,0.219-0.209,0.418-0.375,0.581c-0.453,0.216-0.978,0.216-1.431,0c-0.363-0.088-0.75-0.206-1.158-0.341
			c-0.41-0.16-0.783-0.309-1.125-0.443c-0.386-0.138-0.794-0.297-1.225-0.479h-0.24l0.137-0.206c0.273-0.478,0.591-1.024,0.955-1.64
			c0.387-0.612,0.738-1.192,1.056-1.738c0.34-0.549,0.613-1.014,0.817-1.4c0.146-0.21,0.26-0.439,0.341-0.683
			c0.067-0.224,0.055-0.466-0.034-0.683c-0.079-0.274-0.263-0.508-0.511-0.648L32.24,16.05c-0.12-0.062-0.24-0.118-0.354-0.169
			l-6.729-0.479H19.4c-1.27,0.004-2.537,0.129-3.782,0.375c-1.454,0.272-2.249,0.604-2.385,0.99
			c-0.099,0.295-0.123,0.609-0.068,0.916c0.056,0.469,0.232,0.917,0.511,1.297c0.271,0.342,0.351,0.58,0.239,0.717
			c-0.057,0.074-0.147,0.111-0.239,0.102l-11.96,0.549c-0.329-0.007-0.629-0.188-0.784-0.479c-0.213-0.35-0.319-0.75-0.307-1.157
			V8.814C0.764,8.636,0.954,8.506,1.17,8.439c0.585-0.227,1.239-0.202,1.805,0.068C5.17,8.949,7.389,9.256,9.621,9.429
			c0.546,0.124,1.023,0.454,1.331,0.922c0.369,0.488,0.902,0.827,1.5,0.956c0.681,0.04,1.364,0.017,2.041-0.068
			c0.71-0.059,1.416-0.162,2.114-0.308c1.299-0.23,2.575-0.574,3.815-1.025c0.659-0.25,1.579-0.647,2.76-1.192
			c1.522-0.639,3.154-0.976,4.804-0.991l0.444-0.067c0.636-0.09,1.272-0.181,1.907-0.274c0.475-0.062,0.953-0.084,1.431-0.068V7.04
			c0.13-0.3,0.244-0.608,0.341-0.921c0.055-0.225,0.16-0.436,0.306-0.615c0.166-0.187,0.377-0.328,0.614-0.409
			c0.313-0.076,0.637-0.099,0.958-0.068c0.34,0.068,0.703,0.148,1.089,0.24c0.356,0.061,0.709,0.14,1.057,0.239l0.987,0.34
			c0.095,0.052,0.168,0.137,0.205,0.239c0.095,0.062,0.157,0.162,0.171,0.274c0.049,0.166,0.071,0.338,0.067,0.511v0.443h5.486V6.87
			h2.896v0.443c0.226,0,0.51,0.011,0.852,0.033h1.158c0.386,0,0.738,0.012,1.057,0.033c0.168,0.033,0.34,0.056,0.512,0.069
			c0.067,0,0.354-0.022,0.854-0.069c0.5-0.021,1.104-0.055,1.81-0.101c0.701-0.022,1.434-0.08,2.182-0.171
			c0.721-0.037,1.438-0.116,2.146-0.238c0.117-0.068,0.227-0.161,0.309-0.273c0.135-0.09,0.25-0.206,0.34-0.341
			c0.119-0.254,0.225-0.517,0.307-0.785c-0.184-0.168-0.39-0.306-0.611-0.409c-0.116-0.047-0.229-0.104-0.34-0.171
			c-0.168,0.033-0.33-0.035-0.418-0.171c-0.254-0.1-0.518-0.18-0.783-0.239C55,4.412,54.727,4.355,54.5,4.309h-0.134
			c-0.25-0.135-0.534-0.195-0.816-0.171L52.895,4c-0.186-0.041-0.367-0.097-0.543-0.169c-0.125-0.101-0.233-0.216-0.34-0.341V3.456
			h-0.72c-0.194-0.003-0.388,0.008-0.58,0.035c-0.114,0-0.229-0.012-0.34-0.035c-0.197-0.234-0.326-0.517-0.374-0.819
			c0.025-0.561,0.229-1.098,0.579-1.536V1h0.067c0.388,0.087,0.764,0.213,1.123,0.375C51.919,1.482,52.057,1.609,52.174,1.751z
			 M40.985,16.186c-0.788,0.063-1.579,0.073-2.368,0.033c-0.31,0.381-0.265,0.938,0.102,1.264c0.202,0.19,0.473,0.289,0.75,0.273
			h0.887c0.211-0.014,0.408-0.113,0.546-0.273c0.185-0.19,0.283-0.449,0.271-0.715C41.168,16.559,41.103,16.357,40.985,16.186z"/>
	</defs>
	<clipPath id="SVGID_2_">
		<use xlink:href="#SVGID_1_"  overflow="visible"/>
	</clipPath>
	<g clip-path="url(#SVGID_2_)">
		<g>
			
				<linearGradient id="SVGID_3_" gradientUnits="userSpaceOnUse" x1="-810.5381" y1="6.8867" x2="-749.5034" y2="6.8867" gradientTransform="matrix(-1 0 0 -1 -752.7783 19.3398)">
				<stop  offset="0" style="stop-color:#F2E2C8;stop-opacity:0"/>
				<stop  offset="0.9194" style="stop-color:#FEB243;stop-opacity:0.8"/>
			</linearGradient>
			<path fill="url(#SVGID_3_)" d="M31.867,9.026l1.59,0.925c-0.154,0.737,1.71,2.339,1.71,2.339L23.95,6.365l-8.537,1.444
				l23.642,10.513l-12.219-7.251l15.816,5.209l6.834,4.584l2.037-4.405l-2.982,0.026L31.867,9.026z M16.452,16.206
				c-0.207-1.035-2-1.393-2-1.393l-3.915-1.305L9.842,12.9c-0.338-0.497-2.871-1.827-2.871-1.827
				c0.84,0.457,6.263,1.392,6.263,1.392c1.398,1.379,4.523,1.217,4.523,1.217l-4.872-2.609L5.579,7.072L4.621,6.985L4.336,4.883
				L2.682,4.552l-5.957,8.935L3.25,27.969l16.308-0.252l-7.456-4.64l5.568,0.436l7.844,4.204l6.236-5.165l-7.083-0.666
				C21.315,18.521,16.452,16.206,16.452,16.206z M38.244,6.796l-1.158-0.992L57.76,17.115l-2.74-5.875
				c-0.504-0.106-5.627-2.579-5.627-2.579c-1.808-0.362-5.734-2.906-5.734-2.906H37.03L26.739-3.063l-1.958,3.134l8.292,5.302
				L38.244,6.796z"/>
		</g>
	</g>
</g>
</svg>
