<?xml version="1.0" encoding="utf-8"?>
<!-- Generator: Adobe Illustrator 16.0.0, SVG Export Plug-In . SVG Version: 6.00 Build 0)  -->
<!DOCTYPE svg PUBLIC "-//W3C//DTD SVG 1.1//EN" "http://www.w3.org/Graphics/SVG/1.1/DTD/svg11.dtd">
<svg version="1.1" id="tc" xmlns="http://www.w3.org/2000/svg" xmlns:xlink="http://www.w3.org/1999/xlink" x="0px" y="0px"
	 width="92px" height="36px" viewBox="0 0 92 36" enable-background="new 0 0 92 36" xml:space="preserve">
<linearGradient id="shape1_1_" gradientUnits="userSpaceOnUse" x1="-117.4478" y1="1384.6016" x2="-26.623" y2="1384.6016" gradientTransform="matrix(1 0 0 1 118.04 -1365.1309)">
	<stop  offset="0" style="stop-color:#DC4A49"/>
	<stop  offset="0.3011" style="stop-color:#BE2126"/>
	<stop  offset="0.7419" style="stop-color:#E10414"/>
	<stop  offset="1" style="stop-color:#FEB243"/>
</linearGradient>
<path id="shape1" fill="url(#shape1_1_)" d="M54.021,21.18L54.021,21.18L54.021,21.18 M29.577,9.233c-0.008,0-0.017,0-0.025,0
	c-0.306,0-2.893,0.279-7.759,0.838c-1.037,0.133-2.317,0.368-3.841,0.702c-1.904,0.377-3.777,0.892-5.606,1.539
	c-1.275,0.521-2.487,1.183-3.614,1.975c-1.429,0.936-2.77,2-4.007,3.18c-1.011,1.018-1.849,2.194-2.484,3.48
	c-0.457,0.914-0.834,1.865-1.127,2.844c-0.23,0.844-0.386,1.705-0.463,2.577c-0.065,0.589-0.076,1.183-0.034,1.772
	c0.155,1.049,0.387,1.569,0.694,1.569c0.548-0.295,1.024-0.706,1.393-1.205c0.399-0.442,0.918-1.048,1.56-1.807
	c1.342-1.604,2.03-2.425,2.055-2.444c0.756-0.938,1.612-1.788,2.553-2.541c0.432-0.334,0.947-0.542,1.491-0.604
	c0.302-0.033,0.608,0,0.896,0.102c0.411,0.165,0.766,0.441,1.027,0.803c0.24,0.245,0.531,0.563,0.863,0.938
	c0.189,0.142,0.433,0.188,0.662,0.132c0.25-0.021,0.496-0.076,0.729-0.167c0.247-0.233,0.42-0.539,0.499-0.871
	c0.169-0.487,0.369-0.973,0.598-1.438c0.192-0.461,0.486-0.873,0.859-1.201c0.336-0.271,0.69-0.521,1.062-0.737
	c0.333-0.184,0.721-0.242,1.092-0.166c0.384,0.062,0.753,0.185,1.096,0.366c0.211,0.107,0.434,0.195,0.661,0.267
	c0.143,0.031,0.288,0.046,0.433,0.036c0.302-0.021,0.601-0.079,0.891-0.167c0.972-0.223,1.524-0.346,1.659-0.364
	c0.532-0.139,1.073-0.229,1.621-0.27c0.311,0,0.921-0.011,1.824-0.033c1.125-0.036,2.249,0.065,3.349,0.305
	c0.794,0.135,1.657,0.289,2.587,0.467c0.23,0.037,0.462,0.062,0.695,0.064c0.161,0.016,0.323-0.021,0.464-0.101
	c0.13-0.188,0.23-0.39,0.299-0.604c0.244-0.422,0.477-0.802,0.697-1.138c0.349-0.464,0.857-0.785,1.426-0.9
	c0.499-0.115,1.011-0.161,1.522-0.136c0.458,0.02,0.905,0.158,1.293,0.401c0.426,0.272,0.806,0.613,1.125,1.004
	c0.449,0.636,0.828,1.319,1.128,2.039c0.269,0.589,0.501,1.19,0.695,1.81c0.055,0.234,0.145,0.46,0.269,0.669
	c0.087,0.198,0.209,0.382,0.363,0.533c0.133,0.138,1.017-0.103,2.651-0.703c0.952-0.276,1.883-0.626,2.788-1.038
	c0.285-0.154,0.506-0.275,0.66-0.365l0.33,0.467l4.84,0.064c0.002,0,0.004,0.004,0.006,0.004c-0.063-0.047-0.078-0.065-0.033-0.065
	c0.039,0.028,0.084,0.054,0.135,0.065h-0.102c0.067,0.008,0.138,0.028,0.191,0.063c1.311,0.381,2.637,0.69,3.979,0.938
	c2.564,0.512,4.393,0.813,5.473,0.9c1.111,0.092,2.229,0.125,3.354,0.102h0.396c0.59-0.019,1.805-0.053,3.646-0.102
	c1.574-0.057,3.146-0.2,4.707-0.436c0.992-0.18,2.433-0.467,4.312-0.871c1.416-0.338,2.774-0.865,4.046-1.571
	c0.6-0.313,1.645-0.913,3.145-1.805c0.938-0.643,1.808-1.383,2.588-2.208c0.528-0.536,1.014-1.048,1.459-1.539l0.101-0.236
	c-1.397,0.265-2.815,0.412-4.241,0.439c-2.343,0.113-3.82,0.179-4.441,0.202c-3.498-0.075-6.989-0.399-10.439-0.972
	c-1.646-0.257-3.273-0.626-4.873-1.106c-0.408-0.11-0.828-0.232-1.259-0.367l-3.084-1.007l-1.462,0.201
	c-1.211,0.09-2.461,0.167-3.738,0.234c-1.398,0.12-2.809,0.154-4.212,0.101c-0.282-0.119-0.519-0.331-0.665-0.603l-0.23-0.5h1.063
	v-0.566l-3.62-0.031l0.1,0.534c-0.02,0.03-0.029,0.065-0.033,0.101c-0.043,0.089-0.063,0.055-0.063-0.101
	c-0.063-0.196-0.188-0.363-0.364-0.468l-0.299-0.17L38.771,9.5h-2.122l-0.267,0.2l-3.015-0.133c-2.012-0.066-3.04-0.099-3.083-0.099
	c-0.066-0.047-0.133-0.088-0.2-0.136c-0.143-0.063-0.298-0.097-0.455-0.1L29.577,9.233L29.577,9.233z"/>
<g>
	<defs>
		<path id="SVGID_1_" d="M54.021,21.18L54.021,21.18L54.021,21.18 M29.577,9.233c-0.008,0-0.017,0-0.025,0
			c-0.306,0-2.893,0.279-7.759,0.838c-1.037,0.133-2.317,0.368-3.841,0.702c-1.904,0.377-3.777,0.892-5.606,1.539
			c-1.275,0.521-2.487,1.183-3.614,1.975c-1.429,0.936-2.77,2-4.007,3.18c-1.011,1.018-1.849,2.194-2.484,3.48
			c-0.457,0.914-0.834,1.865-1.127,2.844c-0.23,0.844-0.386,1.705-0.463,2.577c-0.065,0.589-0.076,1.183-0.034,1.772
			c0.155,1.049,0.387,1.569,0.694,1.569c0.548-0.295,1.024-0.706,1.393-1.205c0.399-0.442,0.918-1.048,1.56-1.807
			c1.342-1.604,2.03-2.425,2.055-2.444c0.756-0.938,1.612-1.788,2.553-2.541c0.432-0.334,0.947-0.542,1.491-0.604
			c0.302-0.033,0.608,0,0.896,0.102c0.411,0.165,0.766,0.441,1.027,0.803c0.24,0.245,0.531,0.563,0.863,0.938
			c0.189,0.142,0.433,0.188,0.662,0.132c0.25-0.021,0.496-0.076,0.729-0.167c0.247-0.233,0.42-0.539,0.499-0.871
			c0.169-0.487,0.369-0.973,0.598-1.438c0.192-0.461,0.486-0.873,0.859-1.201c0.336-0.271,0.69-0.521,1.062-0.737
			c0.333-0.184,0.721-0.242,1.092-0.166c0.384,0.062,0.753,0.185,1.096,0.366c0.211,0.107,0.434,0.195,0.661,0.267
			c0.143,0.031,0.288,0.046,0.433,0.036c0.302-0.021,0.601-0.079,0.891-0.167c0.972-0.223,1.524-0.346,1.659-0.364
			c0.532-0.139,1.073-0.229,1.621-0.27c0.311,0,0.921-0.011,1.824-0.033c1.125-0.036,2.249,0.065,3.349,0.305
			c0.794,0.135,1.657,0.289,2.587,0.467c0.23,0.037,0.462,0.062,0.695,0.064c0.161,0.016,0.323-0.021,0.464-0.101
			c0.13-0.188,0.23-0.39,0.299-0.604c0.244-0.422,0.477-0.802,0.697-1.138c0.349-0.464,0.857-0.785,1.426-0.9
			c0.499-0.115,1.011-0.161,1.522-0.136c0.458,0.02,0.905,0.158,1.293,0.401c0.426,0.272,0.806,0.613,1.125,1.004
			c0.449,0.636,0.828,1.319,1.128,2.039c0.269,0.589,0.501,1.19,0.695,1.81c0.055,0.234,0.145,0.46,0.269,0.669
			c0.087,0.198,0.209,0.382,0.363,0.533c0.133,0.138,1.017-0.103,2.651-0.703c0.952-0.276,1.883-0.626,2.788-1.038
			c0.285-0.154,0.506-0.275,0.66-0.365l0.33,0.467l4.84,0.064c0.002,0,0.004,0.004,0.006,0.004
			c-0.063-0.047-0.078-0.065-0.033-0.065c0.039,0.028,0.084,0.054,0.135,0.065h-0.102c0.067,0.008,0.138,0.028,0.191,0.063
			c1.311,0.381,2.637,0.69,3.979,0.938c2.564,0.512,4.393,0.813,5.473,0.9c1.111,0.092,2.229,0.125,3.354,0.102h0.396
			c0.59-0.019,1.805-0.053,3.646-0.102c1.574-0.057,3.146-0.2,4.707-0.436c0.992-0.18,2.433-0.467,4.312-0.871
			c1.416-0.338,2.774-0.865,4.046-1.571c0.6-0.313,1.645-0.913,3.145-1.805c0.938-0.643,1.808-1.383,2.588-2.208
			c0.528-0.536,1.014-1.048,1.459-1.539l0.101-0.236c-1.397,0.265-2.815,0.412-4.241,0.439c-2.343,0.113-3.82,0.179-4.441,0.202
			c-3.498-0.075-6.989-0.399-10.439-0.972c-1.646-0.257-3.273-0.626-4.873-1.106c-0.408-0.11-0.828-0.232-1.259-0.367l-3.084-1.007
			l-1.462,0.201c-1.211,0.09-2.461,0.167-3.738,0.234c-1.398,0.12-2.809,0.154-4.212,0.101c-0.282-0.119-0.519-0.331-0.665-0.603
			l-0.23-0.5h1.063v-0.566l-3.62-0.031l0.1,0.534c-0.02,0.03-0.029,0.065-0.033,0.101c-0.043,0.089-0.063,0.055-0.063-0.101
			c-0.063-0.196-0.188-0.363-0.364-0.468l-0.299-0.17L38.771,9.5h-2.122l-0.267,0.2l-3.015-0.133
			c-2.012-0.066-3.04-0.099-3.083-0.099c-0.066-0.047-0.133-0.088-0.2-0.136c-0.143-0.063-0.298-0.097-0.455-0.1L29.577,9.233
			L29.577,9.233z"/>
	</defs>
	<clipPath id="SVGID_2_">
		<use xlink:href="#SVGID_1_"  overflow="visible"/>
	</clipPath>
	<g clip-path="url(#SVGID_2_)">
		<g>
			
				<linearGradient id="SVGID_3_" gradientUnits="userSpaceOnUse" x1="-808.2881" y1="3.8242" x2="-747.2534" y2="3.8242" gradientTransform="matrix(-1 0 0 -1 -752.7783 19.3398)">
				<stop  offset="0" style="stop-color:#F2E2C8;stop-opacity:0"/>
				<stop  offset="0.9194" style="stop-color:#FEB243;stop-opacity:0.8"/>
			</linearGradient>
			<path fill="url(#SVGID_3_)" d="M29.617,12.089l1.59,0.924c-0.154,0.737,1.71,2.34,1.71,2.34L21.7,9.427l-8.537,1.444
				l23.642,10.513l-12.219-7.25l15.816,5.209l6.834,4.584l2.037-4.405l-2.982,0.026L29.617,12.089z M14.202,19.269
				c-0.207-1.035-2-1.394-2-1.394L8.287,16.57l-0.695-0.608c-0.338-0.496-2.871-1.826-2.871-1.826
				c0.84,0.457,6.263,1.392,6.263,1.392c1.398,1.379,4.523,1.217,4.523,1.217l-4.872-2.608l-7.306-4.002l-0.958-0.086L2.086,7.945
				L0.432,7.614l-5.957,8.936L1,31.031l16.308-0.252l-7.456-4.64l5.568,0.436l7.844,4.204l6.236-5.165l-7.083-0.666
				C19.065,21.583,14.202,19.269,14.202,19.269z M35.994,9.858l-1.158-0.992L55.51,20.177l-2.74-5.875
				c-0.504-0.105-5.627-2.578-5.627-2.578c-1.808-0.362-5.734-2.906-5.734-2.906H34.78L24.489,0l-1.958,3.134l8.292,5.303
				L35.994,9.858z"/>
		</g>
	</g>
</g>
</svg>
