<?xml version="1.0" encoding="utf-8"?>
<!-- Generator: Adobe Illustrator 16.0.0, SVG Export Plug-In . SVG Version: 6.00 Build 0)  -->
<!DOCTYPE svg PUBLIC "-//W3C//DTD SVG 1.1//EN" "http://www.w3.org/Graphics/SVG/1.1/DTD/svg11.dtd">
<svg version="1.1" id="case1" xmlns="http://www.w3.org/2000/svg" xmlns:xlink="http://www.w3.org/1999/xlink" x="0px" y="0px"
	 width="92px" height="36px" viewBox="0 0 92 36" enable-background="new 0 0 92 36" xml:space="preserve">
<linearGradient id="knife_survival_bowie_1_" gradientUnits="userSpaceOnUse" x1="257.7559" y1="-815.4209" x2="347.8799" y2="-815.4209" gradientTransform="matrix(1 0 0 -1 -256.8799 -800.9199)">
	<stop  offset="0" style="stop-color:#DC4A49"/>
	<stop  offset="0.3011" style="stop-color:#BE2126"/>
	<stop  offset="0.7419" style="stop-color:#E10414"/>
	<stop  offset="1" style="stop-color:#FEB243"/>
</linearGradient>
<path id="knife_survival_bowie_5_" fill="url(#knife_survival_bowie_1_)" d="M90.132,13.919c-0.651,0.508-1.313,0.997-1.985,1.469
	c-0.078,0.059-0.16,0.113-0.244,0.164c-2.018,1.406-4.248,2.473-6.605,3.159c-2.347,0.613-4.756,0.96-7.18,1.033
	c-2.438,0.097-4.875-0.104-7.264-0.6c-0.927-0.199-1.896-0.43-2.914-0.684c-1.154-0.29-1.855-0.455-2.094-0.489
	c-1.566-0.339-3.16-0.54-4.761-0.599c-1.868-0.107-4.56-0.117-8.076-0.028l-4.705,0.136L44.01,18.14l-2.83-0.056
	c-0.054-0.12-0.126-0.23-0.214-0.328c-0.244-0.255-0.529-0.467-0.844-0.626c-0.356-0.167-0.731-0.295-1.115-0.382l-0.49-0.081
	l-0.161,2.338L37.7,19.633c-0.412,0.395-0.769,0.842-1.059,1.33c-0.278,0.539-0.498,1.104-0.654,1.689
	c-0.126,0.363-0.224,0.682-0.297,0.953h-1.523c0.017-0.779,0.153-1.555,0.407-2.289c0.182-0.416,0.381-0.825,0.598-1.229
	l0.297-0.484c-0.148-0.271-0.312-0.535-0.491-0.787c-0.286-0.456-0.633-0.862-1.03-1.223c-0.361-0.27-0.681-0.59-0.95-0.952
	l-0.357-0.519c-0.364-0.198-0.746-0.362-1.14-0.491c-0.779-0.257-1.621-0.247-2.394,0.029c-0.146,0.053-0.879,0.397-2.203,1.033
	c-0.822,0.401-1.69,0.704-2.584,0.899c-1.358,0.23-2.742,0.257-4.107,0.081c-1.525-0.152-3.042-0.387-4.541-0.707
	c-1.614-0.399-2.746-0.664-3.401-0.79c-0.858-0.202-1.729-0.339-2.608-0.409c-0.728-0.013-1.455,0.024-2.176,0.11
	c-0.338,0.027-0.673,0.072-1.006,0.135l-1.011,0.82l-0.214,0.979c-0.042,0.422-0.212,0.821-0.489,1.142
	c-0.237,0.166-0.563,0.366-0.98,0.603l-0.706-0.055c-0.197-0.115-0.38-0.253-0.546-0.41c-0.359-0.311-0.641-0.701-0.819-1.142
	c-0.208-0.64-0.272-1.319-0.191-1.987l0.137-1.254l-0.786-0.518v-1.254l0.599-0.299c0-0.31,0.016-0.653,0.053-1.035
	c0.023-0.552,0.141-1.096,0.35-1.607C2.021,9.694,2.248,9.44,2.53,9.262c0.282-0.141,0.584-0.233,0.896-0.273
	C3.67,8.92,3.933,8.995,4.105,9.181C4.173,9.259,4.22,9.353,4.242,9.454c1.704-0.109,3.599-0.219,5.685-0.329
	c4.206-0.234,7.315-0.334,9.327-0.299c1.795,0.019,4.442,0.155,7.941,0.406C30.405,9.49,32.2,9.608,32.58,9.59
	c0.544-0.028,1.083-0.12,1.605-0.273c0.371-0.106,0.736-0.234,1.093-0.382c0.218-0.099,0.47-0.088,0.679,0.029
	c0.085,0.043,0.145,0.123,0.164,0.217c0.182-0.165,0.398-0.365,0.651-0.6c0.395-0.363,0.743-0.774,1.034-1.224
	c0.246-0.409,0.438-0.849,0.572-1.308l0.133-0.653h1.306v0.679c-0.042,0.473-0.144,0.938-0.3,1.386
	c-0.16,0.428-0.379,0.832-0.651,1.199c-0.12,0.186-0.256,0.359-0.408,0.519l7.669,0.108l-0.489-0.764l1.797,0.764l1.271,0.055
	L48.105,8.47l2.018,0.872h1.252l-0.6-0.872l2.014,0.926h1.172l-0.604-0.764l1.961,0.819l1.225,0.081l-0.518-0.897L57.9,9.532
	l1.309,0.052l-0.547-0.9l1.878,0.9l1.36,0.053l-0.65-0.872l1.711,0.875l1.416-0.109l-0.463-0.707l1.877,0.819l1.001,0.028
	c0.91,0,1.901-0.045,2.992-0.137c1.776-0.164,3.452-0.346,5.03-0.546l0.545,0.409c0.453,0.307,0.934,0.606,1.439,0.897
	c1.434,0.866,2.979,1.516,4.604,1.93c2.017,0.425,4.062,0.699,6.119,0.819l0.625,0.053c1.053,0.075,2.004,0.122,2.854,0.14
	L90.132,13.919z"/>
<linearGradient id="shape2_2_" gradientUnits="userSpaceOnUse" x1="324.2617" y1="-816.3799" x2="324.2617" y2="-831.9634" gradientTransform="matrix(1 0 0 -1 -256.8799 -800.9199)">
	<stop  offset="0" style="stop-color:#630A0A"/>
	<stop  offset="0.4892" style="stop-color:#A81513"/>
	<stop  offset="1" style="stop-color:#E4100C"/>
</linearGradient>
<path id="shape2_1_" fill="url(#shape2_2_)" d="M77.214,31.251c-0.313,0-0.625-0.05-0.923-0.147
	c-0.297,0.103-0.607,0.147-0.921,0.147h-8.193c-0.185,0-0.446-0.009-0.77-0.075c-0.218,0.051-0.439,0.075-0.664,0.075h-2.664
	c-0.815,0-1.604-0.342-2.166-0.937c-0.078-0.086-0.149-0.174-0.22-0.271l-0.909,0.647c-0.503,0.359-1.101,0.555-1.726,0.555h-3.584
	c-0.72,0-1.401-0.268-1.938-0.723c-0.616,0.428-1.354,0.654-2.114,0.654c-0.75,0-1.479-0.222-2.104-0.642
	c-0.162-0.11-0.313-0.233-0.45-0.37c-1.021-1.021-1.363-2.423-0.92-3.753l0.044-0.128l0.08-0.203
	c-1.801-0.254-3.146-1.766-3.146-3.646V22.24c0-0.741,0.274-1.45,0.773-1.996l4.748-5.232c0.646-1.069,1.762-1.679,3.077-1.679h0.41
	c2.063,0,3.686,1.618,3.686,3.684c0,0-0.001,0.289-0.003,0.331c0.555-0.653,1.372-1.044,2.26-1.044h8.396
	c0.264,0,0.521,0.034,0.771,0.101c0.25-0.067,0.511-0.101,0.771-0.101h9.22c0.241,0,0.481,0.029,0.717,0.087
	c0.231-0.058,0.476-0.087,0.72-0.087h8.396c0.917,0,1.797,0.433,2.354,1.159c0.563,0.726,0.752,1.689,0.516,2.573l-0.405,1.532
	c-0.146,0.541-0.435,1.02-0.829,1.395c-0.016,0.188-0.045,0.372-0.094,0.555l-0.41,1.537c-0.075,0.282-0.189,0.551-0.348,0.799
	c0.168,0.533,0.187,1.109,0.039,1.656l-0.412,1.539c-0.348,1.297-1.522,2.202-2.864,2.202H77.214z M74.175,23.782l0.013-0.009
	h-0.793l-0.002,0.009H74.175z"/>
<path id="ACE" fill="#FFFFFF" d="M51.402,23.163h-3.789c-0.409,0-0.717-0.308-0.717-0.718c0-0.104,0-0.104,0-0.204l5.018-5.531
	c0.104-0.307,0.311-0.41,0.615-0.41h0.41c0.408,0,0.717,0.308,0.717,0.717c0,0.102,0,0.205,0,0.205l-2.458,3.584H55.6
	c0.615,0,0.313,1.127-0.103,1.639l-4.507,5.531c-0.309,0.308-0.717,0.308-1.023,0.104c-0.205-0.206-0.309-0.41-0.205-0.719
	L51.402,23.163L51.402,23.163L51.402,23.163z M58.88,19.271l0.409,0.41l-4.813,8.603h3.584l2.146-1.536h2.975l-0.104,1.536h2.663
	l1.535-9.013H58.88L58.88,19.271z M63.387,20.809l-0.104,3.482h-2.971l2.047-3.482H63.387L63.387,20.809z M67.177,28.284h8.191
	l0.612-2.15l-0.818,0.614H69.43l1.739-5.941h6.452l0.408-1.535h-9.217l-2.355,7.988c-0.102,0.104-0.102,0.309-0.102,0.409
	c0,0.103,0,0.205,0.103,0.31c0.103,0.105,0.205,0.203,0.308,0.203C66.971,28.284,67.074,28.284,67.177,28.284L67.177,28.284
	L67.177,28.284z M79.466,19.271l0.312,0.608l-2.563,8.396h8.193l0.408-1.533h-5.121l0.718-2.458h4.711l0.41-1.537h-4.507l0.611-1.94
	h4.813l0.407-1.535H79.466L79.466,19.271z"/>
<g>
	<defs>
		<path id="SVGID_1_" d="M90.132,13.919c-0.651,0.508-1.313,0.997-1.985,1.47c-0.078,0.059-0.16,0.112-0.244,0.164
			c-2.018,1.405-4.248,2.473-6.605,3.158c-2.347,0.613-4.756,0.96-7.18,1.033c-2.438,0.097-4.875-0.104-7.264-0.6
			c-0.927-0.199-1.896-0.43-2.914-0.684c-1.154-0.29-1.855-0.455-2.094-0.488c-1.566-0.34-3.16-0.541-4.761-0.6
			c-1.868-0.107-4.56-0.117-8.076-0.027l-4.705,0.135l-0.294,0.66l-2.83-0.057c-0.054-0.12-0.126-0.23-0.214-0.328
			c-0.244-0.255-0.529-0.467-0.844-0.626c-0.356-0.167-0.731-0.295-1.115-0.382l-0.49-0.081l-0.161,2.338L37.7,19.633
			c-0.412,0.395-0.769,0.842-1.059,1.33c-0.278,0.539-0.498,1.104-0.654,1.689c-0.126,0.363-0.224,0.682-0.297,0.953h-1.523
			c0.017-0.779,0.153-1.555,0.407-2.289c0.182-0.416,0.381-0.825,0.598-1.229l0.297-0.484c-0.148-0.271-0.312-0.535-0.491-0.787
			c-0.286-0.455-0.633-0.862-1.03-1.223c-0.361-0.271-0.681-0.591-0.95-0.953l-0.357-0.519c-0.364-0.198-0.746-0.362-1.14-0.491
			c-0.779-0.257-1.621-0.246-2.394,0.029c-0.146,0.053-0.879,0.396-2.203,1.033c-0.822,0.4-1.69,0.703-2.584,0.898
			c-1.358,0.23-2.742,0.258-4.107,0.081c-1.525-0.151-3.042-0.387-4.541-0.707c-1.614-0.399-2.746-0.663-3.401-0.79
			c-0.858-0.201-1.729-0.339-2.608-0.408c-0.728-0.014-1.455,0.023-2.176,0.109c-0.338,0.027-0.673,0.072-1.006,0.135L5.47,16.833
			l-0.214,0.979c-0.042,0.422-0.212,0.82-0.489,1.142c-0.237,0.166-0.563,0.366-0.98,0.603l-0.706-0.055
			c-0.197-0.115-0.38-0.253-0.546-0.41c-0.359-0.311-0.641-0.701-0.819-1.142c-0.208-0.64-0.272-1.319-0.191-1.987l0.137-1.254
			l-0.786-0.518v-1.254l0.599-0.299c0-0.31,0.016-0.653,0.053-1.035c0.023-0.552,0.141-1.096,0.35-1.607
			C2.021,9.694,2.248,9.44,2.53,9.262c0.282-0.141,0.584-0.233,0.896-0.273C3.67,8.92,3.933,8.995,4.105,9.181
			C4.173,9.259,4.22,9.353,4.242,9.454c1.704-0.109,3.599-0.219,5.685-0.329c4.206-0.234,7.315-0.334,9.327-0.299
			c1.795,0.019,4.442,0.155,7.941,0.406C30.405,9.49,32.2,9.608,32.58,9.59c0.544-0.028,1.083-0.12,1.605-0.273
			c0.371-0.106,0.736-0.234,1.093-0.382c0.218-0.099,0.47-0.088,0.679,0.029c0.085,0.043,0.145,0.123,0.164,0.217
			c0.182-0.165,0.398-0.365,0.651-0.6c0.395-0.363,0.743-0.774,1.034-1.224c0.246-0.409,0.438-0.849,0.572-1.308l0.133-0.653h1.306
			v0.679c-0.042,0.473-0.144,0.938-0.3,1.386c-0.16,0.428-0.379,0.832-0.651,1.199c-0.12,0.186-0.256,0.359-0.408,0.519l7.669,0.108
			l-0.489-0.764l1.797,0.764l1.271,0.055L48.105,8.47l2.018,0.872h1.252l-0.6-0.872l2.014,0.926h1.172l-0.604-0.764l1.961,0.819
			l1.225,0.081l-0.518-0.897L57.9,9.532l1.309,0.052l-0.547-0.9l1.878,0.9l1.36,0.053l-0.65-0.872l1.711,0.875l1.416-0.109
			l-0.463-0.707l1.877,0.819l1.001,0.028c0.91,0,1.901-0.045,2.992-0.137c1.776-0.164,3.452-0.346,5.03-0.546l0.545,0.409
			c0.453,0.307,0.934,0.606,1.439,0.897c1.434,0.866,2.979,1.516,4.604,1.93c2.017,0.425,4.062,0.699,6.119,0.819l0.625,0.053
			c1.053,0.075,2.004,0.122,2.854,0.14L90.132,13.919z"/>
	</defs>
	<clipPath id="SVGID_2_">
		<use xlink:href="#SVGID_1_"  overflow="visible"/>
	</clipPath>
	<g clip-path="url(#SVGID_2_)">
		<g>
			
				<linearGradient id="SVGID_3_" gradientUnits="userSpaceOnUse" x1="-812.2783" y1="8.916" x2="-751.2437" y2="8.916" gradientTransform="matrix(-1 0 0 -1 -752.7783 19.3398)">
				<stop  offset="0" style="stop-color:#F2E2C8;stop-opacity:0"/>
				<stop  offset="0.9194" style="stop-color:#FEB243;stop-opacity:0.8"/>
			</linearGradient>
			<path fill="url(#SVGID_3_)" d="M33.607,6.996l1.59,0.925c-0.154,0.737,1.71,2.339,1.71,2.339L25.69,4.335l-8.537,1.444
				l23.642,10.513L28.576,9.041l15.816,5.209l6.834,4.584l2.037-4.405l-2.982,0.026L33.607,6.996z M18.192,14.176
				c-0.207-1.035-2-1.393-2-1.393l-3.915-1.305l-0.695-0.608c-0.338-0.497-2.871-1.827-2.871-1.827
				c0.84,0.457,6.263,1.392,6.263,1.392c1.398,1.379,4.523,1.217,4.523,1.217l-4.872-2.609L7.319,5.042L6.361,4.955L6.076,2.853
				L4.422,2.522l-5.957,8.935L4.99,25.939l16.308-0.252l-7.456-4.641l5.568,0.436l7.844,4.205l6.236-5.166l-7.083-0.666
				C23.055,16.491,18.192,14.176,18.192,14.176z M39.984,4.766l-1.158-0.992L59.5,15.085L56.76,9.21
				c-0.504-0.106-5.627-2.579-5.627-2.579c-1.808-0.362-5.734-2.906-5.734-2.906H38.77L28.479-5.092l-1.958,3.134l8.292,5.302
				L39.984,4.766z"/>
		</g>
	</g>
</g>
</svg>
