<?xml version="1.0" encoding="utf-8"?>
<!-- Generator: Adobe Illustrator 16.0.0, SVG Export Plug-In . SVG Version: 6.00 Build 0)  -->
<!DOCTYPE svg PUBLIC "-//W3C//DTD SVG 1.1//EN" "http://www.w3.org/Graphics/SVG/1.1/DTD/svg11.dtd">
<svg version="1.1" id="case1" xmlns="http://www.w3.org/2000/svg" xmlns:xlink="http://www.w3.org/1999/xlink" x="0px" y="0px"
	 width="92px" height="36px" viewBox="0 0 92 36" enable-background="new 0 0 92 36" xml:space="preserve">
<linearGradient id="knife_widowmaker_1_" gradientUnits="userSpaceOnUse" x1="-116.3301" y1="574.6211" x2="-27.8301" y2="574.6211" gradientTransform="matrix(1 0 0 1 118.0801 -558.3203)">
	<stop  offset="0" style="stop-color:#DC4A49"/>
	<stop  offset="0.3011" style="stop-color:#BE2126"/>
	<stop  offset="0.7419" style="stop-color:#E10414"/>
	<stop  offset="1" style="stop-color:#FEB243"/>
</linearGradient>
<path id="knife_widowmaker" fill="url(#knife_widowmaker_1_)" d="M12.199,28.188c1.932-1.903,1.952-5.021,0.044-6.951
	c-0.015-0.014-0.029-0.025-0.044-0.045c-1.956-1.934-5.104-1.934-7.06,0c-1.932,1.908-1.952,5.021-0.044,6.953
	c0.015,0.019,0.029,0.028,0.044,0.043C7.094,30.122,10.243,30.122,12.199,28.188z M65.759,7.365
	c-0.28-0.004-0.552,0.107-0.747,0.309c-0.41,0.408-0.41,1.071-0.003,1.48c0.001,0,0.001,0.001,0.003,0.002
	c0.415,0.409,1.081,0.409,1.495,0c0.41-0.409,0.411-1.071,0.003-1.48c-0.001-0.001-0.002-0.001-0.003-0.002
	C66.311,7.473,66.041,7.361,65.759,7.365z M62.406,6.107c-0.331-0.005-0.648,0.125-0.881,0.361
	c-0.481,0.475-0.486,1.251-0.012,1.732c0.004,0.004,0.008,0.008,0.012,0.011c0.229,0.236,0.55,0.368,0.881,0.363
	c0.328,0.005,0.646-0.127,0.876-0.364c0.481-0.468,0.491-1.238,0.022-1.72c-0.011-0.008-0.018-0.016-0.022-0.023
	C63.052,6.232,62.734,6.102,62.406,6.107z M58.67,4.915c-0.412-0.007-0.811,0.156-1.1,0.452c-0.604,0.595-0.606,1.564-0.012,2.166
	c0.004,0.004,0.008,0.008,0.012,0.013c0.609,0.601,1.589,0.601,2.197,0c0.602-0.594,0.604-1.563,0.012-2.166
	c-0.004-0.004-0.008-0.008-0.012-0.013C59.479,5.071,59.083,4.908,58.67,4.915z M27.324,7.234c1.269-0.291,2.555-0.495,3.851-0.614
	c0.833-0.083,2.099-0.167,3.801-0.252c1.663-0.085,2.922-0.17,3.777-0.257c1.272-0.12,2.535-0.332,3.776-0.634
	c1.984-0.466,3.909-1.154,5.741-2.05c0.531-0.268,1.223-0.646,2.063-1.134c1.009-0.585,1.729-0.991,2.157-1.22l3.045,2.202
	c0.297-0.121,0.438-0.46,0.316-0.757c-0.006-0.013-0.014-0.025-0.021-0.038l-1.09-1.373L58,1.549l1.002,1.456
	c0.137,0.201,0.385,0.294,0.619,0.232l0.199-1.474l2.262,2.074l0.184-1.44L64.366,4.5V3.093l2.288,2.152V3.954
	c14.184,5.4,22.05,13.835,23.596,25.306C78.906,19.243,67.21,14.076,55.16,13.758l-0.358,0.422l-2.204,0.273
	c-2.373,2.486-4.758,3.74-7.153,3.76c-0.229-0.457-0.481-0.901-0.756-1.332c-0.286-0.442-0.637-0.838-1.041-1.176
	c-1.143-0.839-2.544-1.248-3.958-1.155c-2.765,0.155-5.449,0.985-7.82,2.417c-1.302,0.69-2.543,1.49-3.711,2.391
	c-1.278-0.117-2.565-0.103-3.84,0.052c-2.558,0.176-5.021,1.036-7.126,2.503c-0.424,0.344-0.732,0.809-0.885,1.333
	c-0.167,0.604-0.304,1.215-0.408,1.834c-0.119,0.69-0.298,1.374-0.535,2.036c-0.278,0.73-0.709,1.396-1.264,1.951
	c-0.095,0.1-0.224,0.233-0.399,0.427c-1.3,1.325-3.09,2.063-4.949,2.034c-1.859,0.029-3.647-0.707-4.948-2.032
	c-1.338-1.276-2.082-3.06-2.054-4.904c0.02-0.924,0.226-1.835,0.605-2.679c0.435-1.026,1.046-1.971,1.809-2.784
	c2.696-2.837,5.848-5.203,9.325-7C17.879,9.923,22.526,8.281,27.324,7.234z"/>
<linearGradient id="SVGID_1_" gradientUnits="userSpaceOnUse" x1="324.2598" y1="-817.5869" x2="324.2598" y2="-831.3372" gradientTransform="matrix(1 0 0 -1 -256.8799 -800.9199)">
	<stop  offset="0" style="stop-color:#630A0A"/>
	<stop  offset="0.4892" style="stop-color:#A81513"/>
	<stop  offset="1" style="stop-color:#E4100C"/>
</linearGradient>
<path fill="url(#SVGID_1_)" d="M77.212,31.251c-0.313,0-0.625-0.05-0.922-0.147c-0.298,0.104-0.608,0.147-0.922,0.147h-8.193
	c-0.185,0-0.442-0.009-0.771-0.075c-0.217,0.051-0.438,0.075-0.663,0.075h-2.664c-0.815,0-1.604-0.342-2.166-0.937
	c-0.078-0.086-0.149-0.174-0.22-0.271l-0.909,0.648c-0.503,0.355-1.101,0.554-1.726,0.554h-3.584c-0.719,0-1.402-0.269-1.938-0.722
	c-0.614,0.427-1.354,0.65-2.112,0.65c-0.75,0-1.479-0.222-2.104-0.642c-0.164-0.11-0.314-0.233-0.451-0.37
	c-1.021-1.021-1.363-2.423-0.92-3.753l0.044-0.128l0.079-0.203c-1.8-0.254-3.146-1.768-3.146-3.646V22.24
	c0-0.741,0.274-1.45,0.773-1.996l4.747-5.232c0.646-1.069,1.764-1.679,3.08-1.679h0.41c2.063,0,3.685,1.618,3.685,3.684
	c0,0-0.001,0.289-0.003,0.331c0.555-0.653,1.371-1.044,2.26-1.044h8.396c0.263,0,0.52,0.034,0.77,0.103
	c0.25-0.067,0.508-0.103,0.771-0.103h9.22c0.241,0,0.479,0.029,0.718,0.087c0.23-0.058,0.479-0.087,0.721-0.087h8.396
	c0.917,0,1.797,0.433,2.354,1.159c0.563,0.726,0.752,1.689,0.519,2.573l-0.407,1.532c-0.146,0.541-0.436,1.02-0.825,1.395
	c-0.018,0.188-0.049,0.372-0.098,0.555l-0.41,1.537c-0.072,0.282-0.188,0.551-0.347,0.799c0.168,0.533,0.188,1.109,0.039,1.656
	l-0.412,1.539c-0.35,1.297-1.521,2.202-2.865,2.202H77.212z"/>
<path id="ACE" fill="#FFFFFF" d="M51.402,23.163h-3.789c-0.409,0-0.717-0.308-0.717-0.718c0-0.104,0-0.104,0-0.204l5.018-5.531
	c0.104-0.307,0.311-0.41,0.615-0.41h0.41c0.408,0,0.717,0.308,0.717,0.717c0,0.102,0,0.205,0,0.205l-2.458,3.584H55.6
	c0.615,0,0.313,1.127-0.103,1.639l-4.507,5.531c-0.309,0.308-0.717,0.308-1.023,0.104c-0.205-0.206-0.309-0.41-0.205-0.719
	L51.402,23.163L51.402,23.163L51.402,23.163z M58.88,19.271l0.409,0.41l-4.813,8.603h3.584l2.146-1.536h2.975l-0.104,1.536h2.663
	l1.535-9.013H58.88L58.88,19.271z M63.387,20.809l-0.104,3.482h-2.971l2.047-3.482H63.387L63.387,20.809z M67.177,28.284h8.191
	l0.612-2.15l-0.818,0.614H69.43l1.739-5.941h6.452l0.408-1.535h-9.217l-2.355,7.988c-0.102,0.104-0.102,0.309-0.102,0.409
	c0,0.103,0,0.205,0.103,0.31c0.103,0.105,0.205,0.203,0.308,0.203C66.971,28.284,67.074,28.284,67.177,28.284L67.177,28.284
	L67.177,28.284z M79.466,19.271l0.312,0.608l-2.563,8.396h8.193l0.408-1.533h-5.121l0.718-2.458h4.711l0.41-1.537h-4.507l0.611-1.94
	h4.813l0.407-1.535H79.466L79.466,19.271z"/>
<g>
	<defs>
		<path id="SVGID_2_" d="M12.199,28.188c1.932-1.903,1.952-5.021,0.044-6.951c-0.015-0.014-0.029-0.025-0.044-0.045
			c-1.956-1.934-5.104-1.934-7.06,0c-1.932,1.908-1.952,5.021-0.044,6.953c0.015,0.019,0.029,0.028,0.044,0.043
			C7.094,30.122,10.243,30.122,12.199,28.188z M65.759,7.365c-0.28-0.004-0.552,0.107-0.747,0.309
			c-0.41,0.408-0.41,1.071-0.003,1.48c0.001,0,0.001,0.001,0.003,0.002c0.415,0.409,1.081,0.409,1.495,0
			c0.41-0.409,0.411-1.071,0.003-1.48c-0.001-0.001-0.002-0.001-0.003-0.002C66.311,7.473,66.041,7.361,65.759,7.365z M62.406,6.107
			c-0.331-0.005-0.648,0.125-0.881,0.361c-0.481,0.475-0.486,1.251-0.012,1.732c0.004,0.004,0.008,0.008,0.012,0.011
			c0.229,0.236,0.55,0.368,0.881,0.363c0.328,0.005,0.646-0.127,0.876-0.364c0.481-0.468,0.491-1.238,0.022-1.72
			c-0.011-0.008-0.018-0.016-0.022-0.023C63.052,6.232,62.734,6.102,62.406,6.107z M58.67,4.915c-0.412-0.007-0.811,0.156-1.1,0.452
			c-0.604,0.595-0.606,1.564-0.012,2.166c0.004,0.004,0.008,0.008,0.012,0.013c0.609,0.601,1.589,0.601,2.197,0
			c0.602-0.594,0.604-1.563,0.012-2.166c-0.004-0.004-0.008-0.008-0.012-0.013C59.479,5.071,59.083,4.908,58.67,4.915z
			 M27.324,7.234c1.269-0.291,2.555-0.495,3.851-0.614c0.833-0.083,2.099-0.167,3.801-0.252c1.663-0.085,2.922-0.17,3.777-0.257
			c1.272-0.12,2.535-0.332,3.776-0.634c1.984-0.466,3.909-1.154,5.741-2.05c0.531-0.268,1.223-0.646,2.063-1.134
			c1.009-0.585,1.729-0.991,2.157-1.22l3.045,2.202c0.297-0.121,0.438-0.46,0.316-0.757c-0.006-0.013-0.014-0.025-0.021-0.038
			l-1.09-1.373L58,1.549l1.002,1.456c0.137,0.201,0.385,0.294,0.619,0.232l0.199-1.474l2.262,2.074l0.184-1.44L64.366,4.5V3.093
			l2.288,2.152V3.954c14.184,5.4,22.05,13.835,23.596,25.306C78.906,19.243,67.21,14.076,55.16,13.758l-0.358,0.422l-2.204,0.273
			c-2.373,2.486-4.758,3.74-7.153,3.76c-0.229-0.457-0.481-0.901-0.756-1.332c-0.286-0.442-0.637-0.838-1.041-1.176
			c-1.143-0.839-2.544-1.248-3.958-1.155c-2.765,0.155-5.449,0.985-7.82,2.417c-1.302,0.69-2.543,1.49-3.711,2.391
			c-1.278-0.117-2.565-0.103-3.84,0.052c-2.558,0.176-5.021,1.036-7.126,2.503c-0.424,0.344-0.732,0.809-0.885,1.333
			c-0.167,0.604-0.304,1.215-0.408,1.834c-0.119,0.69-0.298,1.374-0.535,2.036c-0.278,0.73-0.709,1.396-1.264,1.951
			c-0.095,0.1-0.224,0.233-0.399,0.427c-1.3,1.325-3.09,2.063-4.949,2.034c-1.859,0.029-3.647-0.707-4.948-2.032
			c-1.338-1.276-2.082-3.06-2.054-4.904c0.02-0.924,0.226-1.835,0.605-2.679c0.435-1.026,1.046-1.971,1.809-2.784
			c2.696-2.837,5.848-5.203,9.325-7C17.879,9.923,22.526,8.281,27.324,7.234z"/>
	</defs>
	<clipPath id="SVGID_3_">
		<use xlink:href="#SVGID_2_"  overflow="visible"/>
	</clipPath>
	<g clip-path="url(#SVGID_3_)">
		<g>
			
				<linearGradient id="SVGID_4_" gradientUnits="userSpaceOnUse" x1="-807.2783" y1="3.8242" x2="-746.2437" y2="3.8242" gradientTransform="matrix(-1 0 0 -1 -752.7783 19.3398)">
				<stop  offset="0" style="stop-color:#F2E2C8;stop-opacity:0"/>
				<stop  offset="0.9194" style="stop-color:#FEB243;stop-opacity:0.8"/>
			</linearGradient>
			<path fill="url(#SVGID_4_)" d="M28.607,12.088l1.59,0.925c-0.154,0.737,1.71,2.339,1.71,2.339L20.69,9.427l-8.537,1.444
				l23.642,10.514l-12.219-7.251l15.816,5.208l6.834,4.585l2.037-4.405l-2.982,0.025L28.607,12.088z M13.192,19.268
				c-0.207-1.034-2-1.393-2-1.393L7.277,16.57l-0.695-0.608c-0.338-0.497-2.871-1.827-2.871-1.827
				c0.84,0.457,6.263,1.392,6.263,1.392c1.398,1.379,4.523,1.217,4.523,1.217l-4.872-2.609l-7.306-4.001l-0.958-0.087L1.076,7.945
				l-1.654-0.331l-5.957,8.935l6.525,14.482l16.308-0.252l-7.456-4.64l5.568,0.436l7.844,4.204l6.236-5.165l-7.083-0.666
				C18.055,21.583,13.192,19.268,13.192,19.268z M34.984,9.858l-1.158-0.992L54.5,20.178l-2.74-5.875
				c-0.504-0.106-5.627-2.579-5.627-2.579c-1.808-0.362-5.734-2.906-5.734-2.906H33.77L23.479,0l-1.958,3.134l8.292,5.302
				L34.984,9.858z"/>
		</g>
	</g>
</g>
</svg>
