<?xml version="1.0" encoding="utf-8"?>
<!-- Generator: Adobe Illustrator 16.0.0, SVG Export Plug-In . SVG Version: 6.00 Build 0)  -->
<!DOCTYPE svg PUBLIC "-//W3C//DTD SVG 1.1//EN" "http://www.w3.org/Graphics/SVG/1.1/DTD/svg11.dtd">
<svg version="1.1" id="tc" xmlns="http://www.w3.org/2000/svg" xmlns:xlink="http://www.w3.org/1999/xlink" x="0px" y="0px"
	 width="92px" height="36px" viewBox="0 0 92 36" enable-background="new 0 0 92 36" xml:space="preserve">
<linearGradient id="SVGID_1_" gradientUnits="userSpaceOnUse" x1="-70.9048" y1="-541.3013" x2="-26.4995" y2="-541.3013" gradientTransform="matrix(1 0 0 -1 118.0601 -523.2256)">
	<stop  offset="0" style="stop-color:#DC4A49"/>
	<stop  offset="0.3011" style="stop-color:#BE2126"/>
	<stop  offset="0.7419" style="stop-color:#E10414"/>
	<stop  offset="1" style="stop-color:#FEB243"/>
</linearGradient>
<path fill="url(#SVGID_1_)" d="M91.307,5.132c-0.078-0.213-0.129-0.432-0.147-0.657c-0.021-0.248-0.185-0.461-0.41-0.551
	l-0.157-0.15L90.387,3.67c-0.253-0.055-0.512-0.088-0.771-0.102c-0.396-0.084-0.808,0.006-1.128,0.251
	c-0.055,0.109-0.125,0.21-0.203,0.304c-0.028,0.058-0.088,0.097-0.151,0.1c-0.075,0.041-0.146,0.092-0.207,0.153
	c-0.071,0.039-0.112,0.119-0.102,0.201v0.05H68.003c-0.039-0.189-0.176-0.343-0.356-0.407h-0.101c-0.104,0-0.31-0.016-0.618-0.05
	h-4.402c-0.787,0.036-1.465,0.05-2.049,0.05h-2.451c-0.029-0.165-0.049-0.334-0.053-0.503c-0.002-0.109-0.037-0.215-0.103-0.304
	c-0.032-0.134-0.127-0.245-0.253-0.3c-0.471-0.102-0.949-0.153-1.43-0.153c-0.02,0.002-0.037,0.002-0.059,0.003h-0.311v0.968h-0.149
	c-0.144,0-0.282,0.034-0.411,0.099c-0.129,0.067-0.268,0.117-0.408,0.15c-0.186,0.07-0.371,0.122-0.563,0.152
	c-0.124,0.092-0.267,0.162-0.416,0.201c-0.123,0.007-0.242,0.042-0.351,0.102c-0.191-0.016-0.385-0.051-0.566-0.102
	c-0.229-0.054-0.447-0.12-0.664-0.201c-0.232-0.113-0.518-0.076-0.712,0.095c-0.251,0.081-0.437,0.297-0.472,0.557v0.152
	c0.021,0.341,0.069,0.679,0.154,1.011c0.104,0.502,0.153,0.775,0.153,0.807c-0.031,0.381-0.117,0.754-0.256,1.11
	c-0.146,0.425-0.371,0.82-0.663,1.16L50.29,9.426c-0.241,0.315-0.536,0.589-0.868,0.807c-0.082,0.031-0.169,0.047-0.257,0.048
	c-0.129,0.018-0.242,0.093-0.308,0.204c-0.26-0.003-0.52,0.086-0.719,0.252c-0.18,0.19-0.271,0.446-0.259,0.707v0.106
	c-0.021,0.298,0.116,0.584,0.36,0.757c0.277,0.083,0.572,0.117,0.865,0.101c0.41,0.103,0.854,0.203,1.334,0.301
	c0.479,0.056,0.896,0.34,1.125,0.761c0.272,0.403,0.436,0.873,0.461,1.36c-0.006,0.237-0.043,0.472-0.104,0.701
	c-0.104,0.168-0.354,0.726-0.768,1.667c-0.449,0.942-0.903,1.967-1.387,3.075c-0.512,1.106-0.955,2.117-1.326,3.025
	c-0.375,0.941-0.599,1.465-0.668,1.563v0.053h-0.053c0,0.031-0.104,0.408-0.306,1.105c-0.168,0.682-0.255,1.371-0.258,2.066v0.506
	c-0.011,0.229,0.024,0.448,0.104,0.659c-0.003,0.088,0.018,0.175,0.055,0.251v0.199c-0.012,0.081,0.026,0.163,0.102,0.204v0.206
	c0.186,0.18,0.415,0.302,0.666,0.35c0.667,0.182,1.357,0.266,2.051,0.251c-0.003,0.104-0.021,0.206-0.057,0.306
	c-0.068,0.104-0.104,0.229-0.104,0.354c-0.086,0.58,0.146,1.159,0.616,1.512c0.108,0.063,0.229,0.099,0.354,0.104
	c0.063,0.035,0.134,0.052,0.203,0.053c0.084,0.029,0.17,0.046,0.256,0.05l0.051,0.101h7.172c0.104-0.008,0.205-0.024,0.309-0.049
	c0.188-0.041,0.362-0.131,0.515-0.254c0.372-0.586,0.552-1.271,0.512-1.969v-0.804c-0.103-0.738-0.188-1.314-0.256-1.718
	c-0.031-0.368-0.052-0.656-0.052-0.858v-0.197c0.027-0.026,0.049-0.063,0.052-0.101l2.056-6.981
	c0.092-0.227,0.252-0.421,0.459-0.554c0.299-0.191,0.627-0.328,0.977-0.402c0.521-0.104,1.063-0.104,1.587,0
	c1.073,0.229,2.172,0.365,3.271,0.402c0.616,0.046,1.236,0.012,1.846-0.102c0.719-0.166,1.328-0.336,1.845-0.502
	c0.437-0.146,0.88-0.268,1.331-0.354c0.273-0.042,0.537-0.146,0.771-0.302v-0.151c0.127-0.129,0.245-0.263,0.355-0.405
	c0.169-0.134,0.137-0.386-0.104-0.756V16.53c0.002-0.358,0.037-0.714,0.104-1.063c0.105-0.376,0.3-0.721,0.563-1.009
	c0.422-0.445,0.883-0.851,1.381-1.211c0.422-0.312,0.912-0.518,1.433-0.603c0.25-0.07,0.51-0.106,0.771-0.104h1.328
	c0.479,0,0.973,0.019,1.481,0.053c0.547,0.032,1.128,0.051,1.743,0.051h2.714c0.646,0,1.126-0.019,1.435-0.051
	c0.344-0.034,0.545-0.053,0.614-0.053c0.047-0.027,0.101-0.043,0.149-0.048c0.065-0.109,0.117-0.228,0.151-0.351h3.175V11.79
	c0-0.103,0.02-0.368,0.055-0.804c0-0.406,0.018-0.846,0.051-1.313c0.033-0.444,0.055-0.858,0.055-1.262
	c0.034-0.436,0.053-0.675,0.053-0.708c0-0.01,0-0.021,0.002-0.029c0.01-0.048,0.055-0.079,0.103-0.071
	c0.028-0.025,0.047-0.062,0.051-0.1c-0.004-0.187,0.017-0.372,0.052-0.555V6.293C91.564,5.893,91.477,5.496,91.307,5.132z
	 M72.52,16.282c-0.14,0.874-1.387,1.463-3.735,1.765c-0.89,0.141-1.791,0.107-2.664-0.099c-0.612-0.122-1.199-0.343-1.741-0.658
	l-0.148-0.049c-0.313-0.192-0.574-0.452-0.771-0.759h-0.104v-0.047c-0.18-0.287-0.252-0.625-0.205-0.96
	c0.017-0.291,0.065-0.578,0.151-0.854c0.11-0.347,0.351-0.638,0.666-0.81c0.374-0.203,0.688-0.349,0.923-0.454h0.15
	c0-0.033,0.031-0.049,0.104-0.049c0.03,0,0.239-0.019,0.614-0.052h0.002h5.224c0.552,0.219,1.02,0.608,1.334,1.11
	c0.227,0.364,0.353,0.781,0.355,1.209C72.678,15.819,72.625,16.062,72.52,16.282z"/>
<linearGradient id="SVGID_2_" gradientUnits="userSpaceOnUse" x1="-117.624" y1="-541.1455" x2="-73.1294" y2="-541.1455" gradientTransform="matrix(1 0 0 -1 118.0601 -523.2256)">
	<stop  offset="0" style="stop-color:#DC4A49"/>
	<stop  offset="0.3011" style="stop-color:#BE2126"/>
	<stop  offset="0.7419" style="stop-color:#E10414"/>
	<stop  offset="1" style="stop-color:#FEB243"/>
</linearGradient>
<path fill="url(#SVGID_2_)" d="M44.471,4.276c-0.047-0.25-0.257-0.439-0.512-0.457L43.854,3.62l-0.101-0.052
	c-0.277-0.11-0.571-0.178-0.869-0.2c-0.388-0.094-0.795,0.022-1.078,0.303C41.76,3.788,41.668,3.88,41.55,3.926
	c-0.081,0.008-0.143,0.071-0.153,0.15c-0.109,0.088-0.18,0.213-0.202,0.351v0.102H21.278c-0.079-0.166-0.183-0.319-0.308-0.454
	c-0.071,0-0.141-0.017-0.205-0.051h-0.564c-0.307,0-0.799-0.021-1.484-0.052c-0.685-0.032-1.638-0.048-2.868-0.048
	c-0.785,0.066-1.464,0.099-2.048,0.099c-0.545,0.035-1.056,0.051-1.535,0.051h-0.972c-0.001-0.311-0.054-0.617-0.155-0.91
	c-0.022-0.123-0.132-0.209-0.256-0.201c-0.436-0.096-0.881-0.146-1.327-0.149H9.089v1.004H9.04C8.887,3.814,8.736,3.833,8.587,3.872
	C8.425,3.9,8.268,3.952,8.121,4.024c-0.158,0.097-0.332,0.163-0.512,0.2L6.89,4.529c-0.206-0.018-0.411-0.05-0.611-0.102
	C6.042,4.346,5.801,4.279,5.557,4.224c-0.233-0.1-0.5-0.082-0.717,0.052C4.637,4.391,4.501,4.598,4.482,4.83v0.203
	C4.495,5.37,4.528,5.706,4.578,6.039C4.656,6.302,4.71,6.573,4.736,6.847C4.664,7.208,4.559,7.561,4.425,7.905
	C4.298,8.338,4.07,8.736,3.76,9.066l-0.154,0.25c-0.24,0.316-0.535,0.589-0.868,0.806c-0.081,0.037-0.168,0.054-0.256,0.051
	c-0.092,0.013-0.177,0.054-0.249,0.113c-0.263-0.003-0.517,0.085-0.721,0.251c-0.031,0.034-0.067,0.068-0.101,0.104
	c-0.155,0.198-0.228,0.449-0.204,0.7v0.048c0.013,0.265,0.122,0.517,0.306,0.707l0.051,0.051c0.259,0.111,0.537,0.163,0.818,0.151
	c0.442,0.067,0.922,0.15,1.432,0.25c0.459,0.065,0.859,0.348,1.075,0.76c0.255,0.408,0.397,0.877,0.41,1.36
	c-0.019,0.237-0.052,0.475-0.102,0.708c-0.309,0.495-0.565,1.02-0.77,1.565c-0.441,0.973-0.903,2.017-1.38,3.127
	c-0.512,1.115-0.973,2.141-1.383,3.078c-0.06,0.11-0.112,0.229-0.155,0.352c-0.134,0.393-0.324,0.766-0.563,1.107v0.097
	c-0.061,0.394-0.147,0.784-0.257,1.169c-0.167,0.658-0.252,1.335-0.253,2.015c0.001,0.104,0.019,0.206,0.052,0.306
	c0.038,0.078,0.056,0.166,0.052,0.252C0.539,28.68,0.557,28.92,0.592,29.15v0.408c-0.011,0.082,0.029,0.161,0.102,0.2
	c-0.01,0.07,0.009,0.142,0.05,0.2c0.2,0.156,0.426,0.273,0.667,0.352c0.039,0.002,0.075,0.021,0.1,0.051
	c0.606,0.135,1.224,0.199,1.844,0.201v0.656c0.001,0.305,0.037,0.604,0.105,0.901c0.05,0.249,0.223,0.457,0.459,0.554
	c0.287,0.082,0.562,0.2,0.818,0.352h7.214c0.087-0.004,0.173-0.021,0.257-0.051c0.2-0.035,0.382-0.143,0.511-0.304
	c0.427-0.522,0.631-1.196,0.563-1.869c0.015-0.294-0.038-0.589-0.154-0.86c-0.088-0.563-0.139-1.141-0.152-1.713v-1.16l2.104-6.961
	c0.104-0.207,0.242-0.394,0.407-0.556c0.263-0.198,0.558-0.352,0.871-0.452c0.525-0.104,1.064-0.104,1.588,0
	c1.468,0.232,2.594,0.383,3.379,0.452c0.616,0.046,1.235,0.011,1.841-0.102l0.564-0.15c0.409-0.095,0.853-0.222,1.332-0.352
	s0.922-0.269,1.333-0.399c0.274-0.044,0.536-0.15,0.767-0.305v-0.098c0.135-0.101,0.257-0.218,0.36-0.351
	c0.1-0.265,0.08-0.559-0.054-0.806c-0.086-0.189-0.12-0.398-0.102-0.606c0.001-0.356,0.036-0.709,0.102-1.059
	c0.107-0.375,0.3-0.722,0.564-1.01c0.395-0.453,0.841-0.859,1.33-1.211c0.47-0.298,0.991-0.501,1.538-0.604
	c0.216-0.063,0.439-0.099,0.665-0.103h1.484c0.44,0,0.935,0.017,1.484,0.051c0.549,0.034,1.11,0.051,1.694,0.051h2.715
	c0.478,0.007,0.956-0.01,1.433-0.051c0.306-0.034,0.51-0.051,0.615-0.051l0.101-0.05c0.069-0.051,0.122-0.122,0.154-0.2
	c0.003-0.079,0.04-0.151,0.102-0.201h3.073v-0.351c0-0.103,0.019-0.354,0.052-0.76c0.072-0.434,0.106-0.872,0.101-1.311
	c0.038-0.437,0.071-0.874,0.104-1.311c0.034-0.405,0.052-0.624,0.052-0.657V7.353c0.033-0.204,0.067-0.385,0.102-0.554
	c0.071-0.194,0.105-0.398,0.099-0.604c-0.007-0.429-0.131-0.847-0.359-1.211C44.562,4.744,44.53,4.509,44.471,4.276z M25.834,16.135
	c-0.207,0.781-1.485,1.342-3.842,1.715c-0.348,0.055-0.699,0.082-1.048,0.082c-0.526,0-1.052-0.063-1.564-0.185
	c-0.589-0.116-1.158-0.319-1.687-0.604l-0.206-0.052c-0.153-0.185-0.326-0.354-0.513-0.504c-0.099-0.066-0.186-0.151-0.253-0.249
	l-0.104-0.102c-0.174-0.288-0.247-0.625-0.204-0.959c-0.014-0.293,0.038-0.587,0.152-0.857c0.129-0.333,0.363-0.617,0.665-0.809
	l0.922-0.404l0.255-0.101h0.615c0.41-0.035,0.89-0.049,1.436-0.049h1.788c0.685,0,1.352,0,1.999,0.002
	c0.55,0.247,1.013,0.65,1.332,1.16c0.222,0.347,0.346,0.749,0.357,1.159C25.947,15.635,25.913,15.891,25.834,16.135z"/>
<g>
	<defs>
		<path id="SVGID_3_" d="M44.471,4.276c-0.047-0.25-0.257-0.439-0.512-0.457L43.854,3.62l-0.101-0.052
			c-0.277-0.11-0.571-0.178-0.869-0.2c-0.388-0.094-0.795,0.022-1.078,0.303C41.76,3.788,41.668,3.88,41.55,3.926
			c-0.081,0.008-0.143,0.071-0.153,0.15c-0.109,0.088-0.18,0.213-0.202,0.351v0.102H21.278c-0.079-0.166-0.183-0.319-0.308-0.454
			c-0.071,0-0.141-0.017-0.205-0.051h-0.564c-0.307,0-0.799-0.021-1.484-0.052c-0.685-0.032-1.638-0.048-2.868-0.048
			c-0.785,0.066-1.464,0.099-2.048,0.099c-0.545,0.035-1.056,0.051-1.535,0.051h-0.972c-0.001-0.311-0.054-0.617-0.155-0.91
			c-0.022-0.123-0.132-0.209-0.256-0.201c-0.436-0.096-0.881-0.146-1.327-0.149H9.089v1.004H9.04
			C8.887,3.814,8.736,3.833,8.587,3.872C8.425,3.9,8.268,3.952,8.121,4.024c-0.158,0.097-0.332,0.163-0.512,0.2L6.89,4.529
			c-0.206-0.018-0.411-0.05-0.611-0.102C6.042,4.346,5.801,4.279,5.557,4.224c-0.233-0.1-0.5-0.082-0.717,0.052
			C4.637,4.391,4.501,4.598,4.482,4.83v0.203C4.495,5.37,4.528,5.706,4.578,6.039C4.656,6.302,4.71,6.573,4.736,6.847
			C4.664,7.208,4.559,7.561,4.425,7.905C4.298,8.338,4.07,8.736,3.76,9.066l-0.154,0.25c-0.24,0.316-0.535,0.589-0.868,0.806
			c-0.081,0.037-0.168,0.054-0.256,0.051c-0.092,0.013-0.177,0.054-0.249,0.113c-0.263-0.003-0.517,0.085-0.721,0.251
			c-0.031,0.034-0.067,0.068-0.101,0.104c-0.155,0.198-0.228,0.449-0.204,0.7v0.048c0.013,0.265,0.122,0.517,0.306,0.707
			l0.051,0.051c0.259,0.111,0.537,0.163,0.818,0.151c0.442,0.067,0.922,0.15,1.432,0.25c0.459,0.065,0.859,0.348,1.075,0.76
			c0.255,0.408,0.397,0.877,0.41,1.36c-0.019,0.237-0.052,0.475-0.102,0.708c-0.309,0.495-0.565,1.02-0.77,1.565
			c-0.441,0.973-0.903,2.017-1.38,3.127c-0.512,1.115-0.973,2.141-1.383,3.078c-0.06,0.11-0.112,0.229-0.155,0.352
			c-0.134,0.393-0.324,0.766-0.563,1.107v0.097c-0.061,0.394-0.147,0.784-0.257,1.169c-0.167,0.658-0.252,1.335-0.253,2.015
			c0.001,0.104,0.019,0.206,0.052,0.306c0.038,0.078,0.056,0.166,0.052,0.252C0.539,28.68,0.557,28.92,0.592,29.15v0.408
			c-0.011,0.082,0.029,0.161,0.102,0.2c-0.01,0.07,0.009,0.142,0.05,0.2c0.2,0.156,0.426,0.273,0.667,0.352
			c0.039,0.002,0.075,0.021,0.1,0.051c0.606,0.135,1.224,0.199,1.844,0.201v0.656c0.001,0.305,0.037,0.604,0.105,0.901
			c0.05,0.249,0.223,0.457,0.459,0.554c0.287,0.082,0.562,0.2,0.818,0.352h7.214c0.087-0.004,0.173-0.021,0.257-0.051
			c0.2-0.035,0.382-0.143,0.511-0.304c0.427-0.522,0.631-1.196,0.563-1.869c0.015-0.294-0.038-0.589-0.154-0.86
			c-0.088-0.563-0.139-1.141-0.152-1.713v-1.16l2.104-6.961c0.104-0.207,0.242-0.394,0.407-0.556
			c0.263-0.198,0.558-0.352,0.871-0.452c0.525-0.104,1.064-0.104,1.588,0c1.468,0.232,2.594,0.383,3.379,0.452
			c0.616,0.046,1.235,0.011,1.841-0.102l0.564-0.15c0.409-0.095,0.853-0.222,1.332-0.352s0.922-0.269,1.333-0.399
			c0.274-0.044,0.536-0.15,0.767-0.305v-0.098c0.135-0.101,0.257-0.218,0.36-0.351c0.1-0.265,0.08-0.559-0.054-0.806
			c-0.086-0.189-0.12-0.398-0.102-0.606c0.001-0.356,0.036-0.709,0.102-1.059c0.107-0.375,0.3-0.722,0.564-1.01
			c0.395-0.453,0.841-0.859,1.33-1.211c0.47-0.298,0.991-0.501,1.538-0.604c0.216-0.063,0.439-0.099,0.665-0.103h1.484
			c0.44,0,0.935,0.017,1.484,0.051c0.549,0.034,1.11,0.051,1.694,0.051h2.715c0.478,0.007,0.956-0.01,1.433-0.051
			c0.306-0.034,0.51-0.051,0.615-0.051l0.101-0.05c0.069-0.051,0.122-0.122,0.154-0.2c0.003-0.079,0.04-0.151,0.102-0.201h3.073
			v-0.351c0-0.103,0.019-0.354,0.052-0.76c0.072-0.434,0.106-0.872,0.101-1.311c0.038-0.437,0.071-0.874,0.104-1.311
			c0.034-0.405,0.052-0.624,0.052-0.657V7.353c0.033-0.204,0.067-0.385,0.102-0.554c0.071-0.194,0.105-0.398,0.099-0.604
			c-0.007-0.429-0.131-0.847-0.359-1.211C44.562,4.744,44.53,4.509,44.471,4.276z M25.834,16.135
			c-0.207,0.781-1.485,1.342-3.842,1.715c-0.348,0.055-0.699,0.082-1.048,0.082c-0.526,0-1.052-0.063-1.564-0.185
			c-0.589-0.116-1.158-0.319-1.687-0.604l-0.206-0.052c-0.153-0.185-0.326-0.354-0.513-0.504c-0.099-0.066-0.186-0.151-0.253-0.249
			l-0.104-0.102c-0.174-0.288-0.247-0.625-0.204-0.959c-0.014-0.293,0.038-0.587,0.152-0.857c0.129-0.333,0.363-0.617,0.665-0.809
			l0.922-0.404l0.255-0.101h0.615c0.41-0.035,0.89-0.049,1.436-0.049h1.788c0.685,0,1.352,0,1.999,0.002
			c0.55,0.247,1.013,0.65,1.332,1.16c0.222,0.347,0.346,0.749,0.357,1.159C25.947,15.635,25.913,15.891,25.834,16.135z"/>
	</defs>
	<clipPath id="SVGID_4_">
		<use xlink:href="#SVGID_3_"  overflow="visible"/>
	</clipPath>
	<g clip-path="url(#SVGID_4_)">
		<g>
			
				<linearGradient id="SVGID_5_" gradientUnits="userSpaceOnUse" x1="-809.5479" y1="0.8643" x2="-748.5137" y2="0.8643" gradientTransform="matrix(-1 0 0 -1 -752.7783 19.3398)">
				<stop  offset="0" style="stop-color:#F2E2C8;stop-opacity:0"/>
				<stop  offset="0.9194" style="stop-color:#FEB243;stop-opacity:0.8"/>
			</linearGradient>
			<path fill="url(#SVGID_5_)" d="M30.877,15.049l1.59,0.924c-0.154,0.737,1.71,2.34,1.71,2.34L22.96,12.387l-8.537,1.444
				l23.642,10.513l-12.219-7.25l15.816,5.209l6.834,4.584l2.037-4.405l-2.982,0.026L30.877,15.049z M15.462,22.229
				c-0.207-1.035-2-1.394-2-1.394L9.547,19.53l-0.695-0.608c-0.338-0.496-2.871-1.826-2.871-1.826
				c0.84,0.457,6.263,1.392,6.263,1.392c1.398,1.379,4.523,1.217,4.523,1.217l-4.872-2.608l-7.306-4.002l-0.958-0.086l-0.285-2.103
				l-1.654-0.331l-5.957,8.936L2.26,33.991l16.308-0.252l-7.456-4.64l5.568,0.436l7.844,4.204l6.236-5.165l-7.083-0.666
				C20.325,24.543,15.462,22.229,15.462,22.229z M37.254,12.818l-1.158-0.992L56.77,23.137l-2.74-5.875
				c-0.504-0.105-5.627-2.578-5.627-2.578c-1.807-0.362-5.734-2.906-5.734-2.906H36.04L25.749,2.96l-1.958,3.134l8.292,5.303
				L37.254,12.818z"/>
		</g>
	</g>
</g>
<g>
	<defs>
		<path id="SVGID_6_" d="M91.307,5.132c-0.078-0.213-0.129-0.432-0.147-0.657c-0.021-0.248-0.185-0.461-0.41-0.551l-0.157-0.15
			L90.387,3.67c-0.253-0.055-0.512-0.088-0.771-0.102c-0.396-0.084-0.808,0.006-1.128,0.251c-0.055,0.109-0.125,0.21-0.203,0.304
			c-0.028,0.058-0.088,0.097-0.151,0.1c-0.075,0.041-0.146,0.092-0.207,0.153c-0.071,0.039-0.112,0.119-0.102,0.201v0.05H68.003
			c-0.039-0.189-0.176-0.343-0.356-0.407h-0.101c-0.104,0-0.31-0.016-0.618-0.05h-4.402c-0.787,0.036-1.465,0.05-2.049,0.05h-2.451
			c-0.029-0.165-0.049-0.334-0.053-0.503c-0.002-0.109-0.037-0.215-0.103-0.304c-0.032-0.134-0.127-0.245-0.253-0.3
			c-0.471-0.102-0.949-0.153-1.43-0.153c-0.02,0.002-0.037,0.002-0.059,0.003h-0.311v0.968h-0.149c-0.144,0-0.282,0.034-0.411,0.099
			c-0.129,0.067-0.268,0.117-0.408,0.15c-0.186,0.07-0.371,0.122-0.563,0.152c-0.124,0.092-0.267,0.162-0.416,0.201
			c-0.123,0.007-0.242,0.042-0.351,0.102c-0.191-0.016-0.385-0.051-0.566-0.102c-0.229-0.054-0.447-0.12-0.664-0.201
			c-0.232-0.113-0.518-0.076-0.712,0.095c-0.251,0.081-0.437,0.297-0.472,0.557v0.152c0.021,0.341,0.069,0.679,0.154,1.011
			c0.104,0.502,0.153,0.775,0.153,0.807c-0.031,0.381-0.117,0.754-0.256,1.11c-0.146,0.425-0.371,0.82-0.663,1.16L50.29,9.426
			c-0.241,0.315-0.536,0.589-0.868,0.807c-0.082,0.031-0.169,0.047-0.257,0.048c-0.129,0.018-0.242,0.093-0.308,0.204
			c-0.26-0.003-0.52,0.086-0.719,0.252c-0.18,0.19-0.271,0.446-0.259,0.707v0.106c-0.021,0.298,0.116,0.584,0.36,0.757
			c0.277,0.083,0.572,0.117,0.865,0.101c0.41,0.103,0.854,0.203,1.334,0.301c0.479,0.056,0.896,0.34,1.125,0.761
			c0.272,0.403,0.436,0.873,0.461,1.36c-0.006,0.237-0.043,0.472-0.104,0.701c-0.104,0.168-0.354,0.726-0.768,1.667
			c-0.449,0.942-0.903,1.967-1.387,3.075c-0.512,1.106-0.955,2.117-1.326,3.025c-0.375,0.941-0.599,1.465-0.668,1.563v0.053h-0.053
			c0,0.031-0.104,0.408-0.306,1.105c-0.168,0.682-0.255,1.371-0.258,2.066v0.506c-0.011,0.229,0.024,0.448,0.104,0.659
			c-0.003,0.088,0.018,0.175,0.055,0.251v0.199c-0.012,0.081,0.026,0.163,0.102,0.204v0.206c0.186,0.18,0.415,0.302,0.666,0.35
			c0.667,0.182,1.357,0.266,2.051,0.251c-0.003,0.104-0.021,0.206-0.057,0.306c-0.068,0.104-0.104,0.229-0.104,0.354
			c-0.086,0.58,0.146,1.159,0.616,1.512c0.108,0.063,0.229,0.099,0.354,0.104c0.063,0.035,0.134,0.052,0.203,0.053
			c0.084,0.029,0.17,0.046,0.256,0.05l0.051,0.101h7.172c0.104-0.008,0.205-0.024,0.309-0.049c0.188-0.041,0.362-0.131,0.515-0.254
			c0.372-0.586,0.552-1.271,0.512-1.969v-0.804c-0.103-0.738-0.188-1.314-0.256-1.718c-0.031-0.368-0.052-0.656-0.052-0.858v-0.197
			c0.027-0.026,0.049-0.063,0.052-0.101l2.056-6.981c0.092-0.227,0.252-0.421,0.459-0.554c0.299-0.191,0.627-0.328,0.977-0.402
			c0.521-0.104,1.063-0.104,1.587,0c1.073,0.229,2.172,0.365,3.271,0.402c0.616,0.046,1.236,0.012,1.846-0.102
			c0.719-0.166,1.328-0.336,1.845-0.502c0.437-0.146,0.88-0.268,1.331-0.354c0.273-0.042,0.537-0.146,0.771-0.302v-0.151
			c0.127-0.129,0.245-0.263,0.355-0.405c0.169-0.134,0.137-0.386-0.104-0.756V16.53c0.002-0.358,0.037-0.714,0.104-1.063
			c0.105-0.376,0.3-0.721,0.563-1.009c0.422-0.445,0.883-0.851,1.381-1.211c0.422-0.312,0.912-0.518,1.433-0.603
			c0.25-0.07,0.51-0.106,0.771-0.104h1.328c0.479,0,0.973,0.019,1.481,0.053c0.547,0.032,1.128,0.051,1.743,0.051h2.714
			c0.646,0,1.126-0.019,1.435-0.051c0.344-0.034,0.545-0.053,0.614-0.053c0.047-0.027,0.101-0.043,0.149-0.048
			c0.065-0.109,0.117-0.228,0.151-0.351h3.175V11.79c0-0.103,0.02-0.368,0.055-0.804c0-0.406,0.018-0.846,0.051-1.313
			c0.033-0.444,0.055-0.858,0.055-1.262c0.034-0.436,0.053-0.675,0.053-0.708c0-0.01,0-0.021,0.002-0.029
			c0.01-0.048,0.055-0.079,0.103-0.071c0.028-0.025,0.047-0.062,0.051-0.1c-0.004-0.187,0.017-0.372,0.052-0.555V6.293
			C91.564,5.893,91.477,5.496,91.307,5.132z M72.52,16.282c-0.14,0.874-1.387,1.463-3.735,1.765
			c-0.89,0.141-1.791,0.107-2.664-0.099c-0.612-0.122-1.199-0.343-1.741-0.658l-0.148-0.049c-0.313-0.192-0.574-0.452-0.771-0.759
			h-0.104v-0.047c-0.18-0.287-0.252-0.625-0.205-0.96c0.017-0.291,0.065-0.578,0.151-0.854c0.11-0.347,0.351-0.638,0.666-0.81
			c0.374-0.203,0.688-0.349,0.923-0.454h0.15c0-0.033,0.031-0.049,0.104-0.049c0.03,0,0.239-0.019,0.614-0.052h0.002h5.224
			c0.552,0.219,1.02,0.608,1.334,1.11c0.227,0.364,0.353,0.781,0.355,1.209C72.678,15.819,72.625,16.062,72.52,16.282z"/>
	</defs>
	<clipPath id="SVGID_7_">
		<use xlink:href="#SVGID_6_"  overflow="visible"/>
	</clipPath>
	<g clip-path="url(#SVGID_7_)">
		<g>
			
				<linearGradient id="SVGID_8_" gradientUnits="userSpaceOnUse" x1="-809.5479" y1="0.8643" x2="-748.5137" y2="0.8643" gradientTransform="matrix(-1 0 0 -1 -752.7783 19.3398)">
				<stop  offset="0" style="stop-color:#F2E2C8;stop-opacity:0"/>
				<stop  offset="0.9194" style="stop-color:#FEB243;stop-opacity:0.8"/>
			</linearGradient>
			<path fill="url(#SVGID_8_)" d="M30.877,15.049l1.59,0.924c-0.153,0.737,1.711,2.34,1.711,2.34L22.96,12.387l-8.537,1.444
				l23.642,10.513l-12.219-7.25l15.816,5.209l6.834,4.584l2.037-4.405l-2.982,0.026L30.877,15.049z M15.462,22.229
				c-0.207-1.035-2-1.394-2-1.394L9.547,19.53l-0.695-0.608c-0.338-0.496-2.871-1.826-2.871-1.826
				c0.84,0.457,6.263,1.392,6.263,1.392c1.398,1.379,4.523,1.217,4.523,1.217l-4.872-2.608l-7.306-4.002l-0.958-0.086l-0.285-2.103
				l-1.654-0.331l-5.957,8.936L2.26,33.991l16.308-0.252l-7.456-4.64l5.568,0.436l7.844,4.204l6.235-5.165l-7.083-0.666
				C20.325,24.543,15.462,22.229,15.462,22.229z M37.254,12.818l-1.158-0.992L56.77,23.137l-2.74-5.875
				c-0.504-0.105-5.627-2.578-5.627-2.578c-1.807-0.362-5.734-2.906-5.734-2.906H36.04L25.749,2.96l-1.958,3.134l8.293,5.303
				L37.254,12.818z"/>
		</g>
	</g>
</g>
</svg>
