<?xml version="1.0" encoding="utf-8"?>
<!-- Generator: Adobe Illustrator 16.0.0, SVG Export Plug-In . SVG Version: 6.00 Build 0)  -->
<!DOCTYPE svg PUBLIC "-//W3C//DTD SVG 1.1//EN" "http://www.w3.org/Graphics/SVG/1.1/DTD/svg11.dtd">
<svg version="1.1" id="case1" xmlns="http://www.w3.org/2000/svg" xmlns:xlink="http://www.w3.org/1999/xlink" x="0px" y="0px"
	 width="67.5px" height="36px" viewBox="0 0 67.5 36" enable-background="new 0 0 67.5 36" xml:space="preserve">
<linearGradient id="molotov_1_" gradientUnits="userSpaceOnUse" x1="-116.2798" y1="-541.2271" x2="-92.3037" y2="-541.2271" gradientTransform="matrix(1 0 0 -1 118.0601 -523.2256)">
	<stop  offset="0" style="stop-color:#DC4A49"/>
	<stop  offset="0.3011" style="stop-color:#BE2126"/>
	<stop  offset="0.7419" style="stop-color:#E10414"/>
	<stop  offset="1" style="stop-color:#FEB243"/>
</linearGradient>
<path id="molotov" fill="url(#molotov_1_)" d="M19.189,10.362L19.189,10.362 M18.225,0.49c-0.381,0.613-0.551,1.333-0.482,2.052
	c-0.088,0.677-0.005,1.364,0.242,2c0.129,0.189,0.482,0.635,1.059,1.335c0.354,0.418,0.571,0.934,0.625,1.479
	C19.557,7.931,19.311,8.47,18.95,8.93c-0.001,0.027-0.009,0.053-0.023,0.075c-0.031-0.199-0.04-0.4-0.024-0.6
	c0.035-0.438-0.017-0.873-0.152-1.287c-0.167-0.447-0.49-0.82-0.91-1.048l-0.529-0.191c0.229,0.582,0.229,1.229,0,1.812
	c-0.129,0.223-0.321,0.573-0.578,1.051c-0.152,0.7-0.103,1.428,0.145,2.1c0.176,0.508,0.418,0.99,0.723,1.432l0.121,0.116
	c0.426-0.508,0.915-1.088,1.469-1.742c-0.033-0.092-0.033-0.193,0-0.285h-0.049l1.445-1.957c0.037-0.063,0.109-0.096,0.182-0.086
	c0.171,0.014,0.338,0.059,0.493,0.132c0.41,0.158,0.798,0.366,1.157,0.619c0.363,0.271,0.702,0.575,1.012,0.908
	c0.181,0.151,0.271,0.385,0.241,0.619l-1.446,1.957c-0.072,0.042-0.158,0.059-0.242,0.049c-0.241,0.4-0.475,0.781-0.699,1.144
	c0.77-0.004,1.506-0.313,2.049-0.859c0.8-0.89,1.313-1.494,1.541-1.812c0.331-0.345,0.408-0.861,0.191-1.287
	c-0.229-0.202-0.321-0.517-0.24-0.811c0.136-0.296,0.314-0.57,0.529-0.813c0.214-0.348,0.345-0.739,0.385-1.145
	c0.031-0.318,0.016-0.64-0.049-0.953c-0.24-0.762-0.69-1.44-1.299-1.957c-0.506-0.368-0.904-0.861-1.158-1.432
	c-0.531,0.576-0.61,1.437-0.192,2.1c0.303,0.28,0.446,0.692,0.384,1.1c-0.033,0.037-0.082,0.058-0.132,0.059
	c-0.17-0.039-0.315-0.148-0.399-0.3c-0.289-0.38-0.466-0.619-0.531-0.715c-0.185-0.309-0.314-0.647-0.383-1
	c-0.09-0.408-0.41-0.725-0.818-0.811c-0.74-0.148-1.443-0.44-2.071-0.859C18.598,1.789,18.291,1.163,18.225,0.49 M21.257,8.453
	c0.409,0.159,0.798,0.367,1.157,0.619c0.364,0.271,0.703,0.575,1.011,0.908c0.182,0.151,0.272,0.385,0.242,0.619l-1.446,1.954
	c-0.074,0.042-0.158,0.059-0.242,0.049c-1.768,2.927-2.811,4.612-3.133,5.056c-0.263,0.851-0.408,1.732-0.435,2.623
	c-0.075,1.191-0.421,2.35-1.011,3.387L9.018,35.311c-0.549,0.248-1.173,0.271-1.735,0.049c-1.004-0.271-1.951-0.727-2.793-1.336
	c-0.854-0.59-1.591-1.334-2.17-2.188c-0.395-0.438-0.586-1.032-0.53-1.624l8.385-11.688c0.775-0.917,1.77-1.625,2.892-2.055
	c0.354-0.159,0.835-0.381,1.445-0.668c0.322-0.135,0.617-0.329,0.869-0.571c0.193-0.289,1.461-1.816,3.807-4.582
	c-0.033-0.092-0.033-0.192,0-0.285h-0.051l1.446-1.957C20.65,8.276,20.871,8.291,21.257,8.453L21.257,8.453z"/>
<linearGradient id="shape5_1_" gradientUnits="userSpaceOnUse" x1="545.0273" y1="-997.6533" x2="545.0273" y2="-1011.4033" gradientTransform="matrix(1 0 0 -1 -504.4805 -980.9854)">
	<stop  offset="0" style="stop-color:#630A0A"/>
	<stop  offset="0.4892" style="stop-color:#A81513"/>
	<stop  offset="1" style="stop-color:#E4100C"/>
</linearGradient>
<path id="shape5" fill="url(#shape5_1_)" d="M50.377,31.251c-0.313,0-0.625-0.05-0.922-0.147c-0.298,0.104-0.609,0.147-0.922,0.147
	H40.34c-0.186,0-0.443-0.009-0.77-0.075c-0.217,0.051-0.439,0.075-0.664,0.075h-2.664c-0.816,0-1.605-0.342-2.166-0.937
	c-0.078-0.086-0.15-0.174-0.219-0.271l-0.91,0.648c-0.503,0.354-1.1,0.554-1.725,0.554h-3.584c-0.717,0-1.402-0.269-1.937-0.722
	c-0.614,0.427-1.352,0.648-2.112,0.648c-0.75,0-1.479-0.222-2.104-0.642c-0.164-0.11-0.315-0.233-0.452-0.37
	c-1.021-1.021-1.363-2.424-0.92-3.753l0.044-0.128l0.08-0.203c-1.801-0.254-3.145-1.77-3.145-3.646V22.24
	c0-0.741,0.274-1.45,0.773-1.996l4.748-5.232c0.646-1.068,1.762-1.679,3.079-1.679h0.41c2.065,0,3.684,1.618,3.684,3.685
	c0,0-0.001,0.289-0.003,0.33c0.555-0.652,1.372-1.043,2.26-1.043h8.398c0.261,0,0.518,0.033,0.768,0.102
	c0.25-0.066,0.508-0.102,0.771-0.102h9.217c0.244,0,0.482,0.028,0.719,0.086c0.232-0.058,0.479-0.086,0.719-0.086h8.396
	c0.917,0,1.797,0.432,2.354,1.158c0.563,0.727,0.752,1.689,0.518,2.573L63.5,21.568c-0.146,0.541-0.438,1.02-0.825,1.395
	c-0.021,0.188-0.049,0.372-0.098,0.555l-0.41,1.537c-0.071,0.282-0.188,0.551-0.351,0.799c0.168,0.533,0.188,1.109,0.041,1.656
	l-0.414,1.539c-0.35,1.297-1.521,2.202-2.861,2.202H50.377z M47.338,23.782l0.018-0.009h-0.797l-0.004,0.009H47.338z"/>
<path id="ACE" fill="#FFFFFF" d="M24.569,23.163h-3.79c-0.409,0-0.717-0.308-0.717-0.718c0-0.104,0-0.104,0-0.204l5.018-5.531
	c0.103-0.307,0.31-0.41,0.615-0.41h0.41c0.409,0,0.717,0.308,0.717,0.717c0,0.102,0,0.205,0,0.205l-2.458,3.584h4.402
	c0.615,0,0.31,1.127-0.103,1.639l-4.507,5.531c-0.309,0.308-0.717,0.308-1.023,0.104c-0.205-0.206-0.309-0.41-0.205-0.719
	L24.569,23.163L24.569,23.163L24.569,23.163z M32.046,19.271l0.409,0.41l-4.813,8.603h3.584l2.15-1.536h2.972l-0.104,1.536h2.663
	l1.536-9.013H32.046L32.046,19.271z M36.552,20.809l-0.104,3.482h-2.969l2.046-3.482H36.552L36.552,20.809z M40.343,28.284h8.191
	l0.612-2.15l-0.818,0.614h-5.732l1.739-5.941h6.452l0.408-1.535h-9.217l-2.355,7.988c-0.102,0.104-0.102,0.309-0.102,0.409
	c0,0.103,0,0.205,0.103,0.31c0.103,0.105,0.205,0.203,0.308,0.203C40.137,28.284,40.24,28.284,40.343,28.284L40.343,28.284
	L40.343,28.284z M52.632,19.271l0.312,0.606l-2.563,8.396h8.193l0.408-1.532h-5.121l0.718-2.458h4.711l0.41-1.537h-4.507
	l0.611-1.939h4.813l0.406-1.535H52.632L52.632,19.271z"/>
<g>
	<defs>
		<path id="SVGID_1_" d="M19.189,10.362L19.189,10.362 M18.225,0.49c-0.381,0.613-0.551,1.333-0.481,2.052
			c-0.089,0.677-0.005,1.364,0.241,2c0.13,0.189,0.482,0.635,1.06,1.335c0.354,0.418,0.571,0.934,0.625,1.479
			c-0.113,0.575-0.359,1.114-0.72,1.574c-0.001,0.027-0.009,0.053-0.023,0.075c-0.03-0.199-0.04-0.4-0.024-0.6
			c0.035-0.438-0.016-0.873-0.151-1.287c-0.167-0.447-0.49-0.82-0.91-1.048l-0.528-0.191c0.229,0.582,0.229,1.229,0,1.812
			c-0.129,0.223-0.321,0.573-0.578,1.051c-0.152,0.7-0.104,1.428,0.145,2.1c0.176,0.508,0.418,0.99,0.723,1.432l0.121,0.116
			c0.426-0.508,0.916-1.088,1.469-1.742c-0.032-0.092-0.032-0.193,0-0.285h-0.049l1.445-1.957c0.037-0.063,0.109-0.096,0.182-0.086
			c0.172,0.014,0.338,0.059,0.494,0.132c0.409,0.158,0.797,0.366,1.156,0.619c0.363,0.271,0.702,0.575,1.012,0.908
			c0.182,0.151,0.271,0.385,0.241,0.619l-1.446,1.957c-0.072,0.042-0.158,0.059-0.242,0.049c-0.24,0.4-0.475,0.781-0.698,1.144
			c0.771-0.004,1.506-0.313,2.049-0.859c0.8-0.89,1.313-1.494,1.541-1.812c0.331-0.345,0.408-0.861,0.19-1.287
			c-0.229-0.202-0.32-0.517-0.239-0.811c0.136-0.296,0.313-0.57,0.528-0.813c0.215-0.348,0.346-0.739,0.386-1.145
			c0.03-0.318,0.016-0.64-0.05-0.953c-0.239-0.762-0.689-1.44-1.299-1.957c-0.506-0.368-0.903-0.861-1.158-1.432
			c-0.53,0.576-0.609,1.437-0.191,2.1c0.303,0.28,0.446,0.692,0.384,1.1c-0.032,0.037-0.081,0.058-0.132,0.059
			c-0.17-0.039-0.314-0.148-0.398-0.3c-0.289-0.38-0.467-0.619-0.531-0.715c-0.186-0.309-0.314-0.647-0.383-1
			c-0.09-0.408-0.41-0.725-0.818-0.811c-0.74-0.148-1.443-0.44-2.071-0.859C18.598,1.789,18.291,1.163,18.225,0.49 M21.257,8.453
			c0.409,0.159,0.798,0.367,1.157,0.619c0.363,0.271,0.703,0.575,1.011,0.908c0.183,0.151,0.272,0.385,0.242,0.619l-1.446,1.954
			c-0.074,0.042-0.158,0.059-0.242,0.049c-1.768,2.927-2.811,4.612-3.133,5.056c-0.263,0.851-0.408,1.732-0.435,2.623
			c-0.075,1.191-0.421,2.35-1.011,3.387L9.018,35.311c-0.549,0.248-1.173,0.271-1.735,0.049c-1.004-0.271-1.951-0.727-2.793-1.336
			c-0.854-0.59-1.591-1.334-2.17-2.188c-0.395-0.438-0.586-1.032-0.53-1.624l8.385-11.688c0.775-0.917,1.77-1.625,2.892-2.055
			c0.354-0.159,0.836-0.381,1.445-0.668c0.322-0.135,0.617-0.329,0.869-0.571c0.193-0.289,1.461-1.816,3.807-4.582
			c-0.033-0.092-0.033-0.192,0-0.285h-0.051l1.446-1.957C20.65,8.276,20.871,8.291,21.257,8.453L21.257,8.453z"/>
	</defs>
	<clipPath id="SVGID_2_">
		<use xlink:href="#SVGID_1_"  overflow="visible"/>
	</clipPath>
	<g clip-path="url(#SVGID_2_)">
		<g>
			
				<linearGradient id="SVGID_3_" gradientUnits="userSpaceOnUse" x1="-826.6943" y1="-1.1445" x2="-765.6602" y2="-1.1445" gradientTransform="matrix(-1 0 0 -1 -777.2783 19.3398)">
				<stop  offset="0" style="stop-color:#F2E2C8;stop-opacity:0"/>
				<stop  offset="0.9194" style="stop-color:#FEB243;stop-opacity:0.8"/>
			</linearGradient>
			<path fill="url(#SVGID_3_)" d="M23.524,17.058l1.59,0.925c-0.154,0.736,1.71,2.339,1.71,2.339l-11.217-5.925L7.07,15.84
				l23.642,10.513l-12.219-7.251l15.816,5.209l6.834,4.585l2.037-4.406l-2.982,0.026L23.524,17.058z M8.109,24.237
				c-0.207-1.034-2-1.394-2-1.394l-3.915-1.305l-0.695-0.607c-0.338-0.497-2.871-1.827-2.871-1.827
				c0.84,0.457,6.263,1.392,6.263,1.392c1.398,1.379,4.523,1.217,4.523,1.217l-4.872-2.608l-7.306-4.001l-0.958-0.087l-0.285-2.102
				l-1.654-0.331l-5.957,8.935L-5.093,36l16.308-0.252l-7.456-4.639l5.568,0.436l7.844,4.203l6.236-5.164l-7.083-0.666
				C12.972,26.553,8.109,24.237,8.109,24.237z M29.901,14.828l-1.158-0.992l20.673,11.311l-2.74-5.875
				c-0.504-0.105-5.627-2.579-5.627-2.579c-1.807-0.362-5.734-2.906-5.734-2.906h-6.628L18.396,4.969l-1.958,3.134l8.292,5.302
				L29.901,14.828z"/>
		</g>
	</g>
</g>
</svg>
