<?xml version="1.0" encoding="utf-8"?>
<!-- Generator: Adobe Illustrator 16.0.0, SVG Export Plug-In . SVG Version: 6.00 Build 0)  -->
<!DOCTYPE svg PUBLIC "-//W3C//DTD SVG 1.1//EN" "http://www.w3.org/Graphics/SVG/1.1/DTD/svg11.dtd">
<svg version="1.1" id="case1" xmlns="http://www.w3.org/2000/svg" xmlns:xlink="http://www.w3.org/1999/xlink" x="0px" y="0px"
	 width="18.25px" height="36px" viewBox="0 0 18.25 36" enable-background="new 0 0 18.25 36" xml:space="preserve">
<linearGradient id="shape1_1_" gradientUnits="userSpaceOnUse" x1="258.9004" y1="1660.1484" x2="273.9053" y2="1660.1484" gradientTransform="matrix(1 0 0 1 -256.9004 -1642.8252)">
	<stop  offset="0" style="stop-color:#DC4A49"/>
	<stop  offset="0.3011" style="stop-color:#BE2126"/>
	<stop  offset="0.7419" style="stop-color:#E10414"/>
	<stop  offset="1" style="stop-color:#FEB243"/>
</linearGradient>
<path id="shape1" fill="url(#shape1_1_)" d="M13.798,25.43v0.289h-0.004v1.547c-1.771,0.375-3.571,0.604-5.38,0.678
	c-1.954-0.101-3.897-0.342-5.816-0.725V25.43c1.895,0.307,3.806,0.5,5.724,0.58C10.158,25.932,11.986,25.736,13.798,25.43
	 M12.327,0.819c-0.022,0.005-0.037,0.025-0.034,0.048h-0.145v0.149c-0.297,0.296-0.543,0.64-0.729,1.016v-0.2L11.18,1.738H5.46
	C5.24,1.767,5.053,1.915,4.975,2.124C4.876,2.269,4.81,2.434,4.782,2.608c-0.067,0.137-0.067,0.297,0,0.434H4.681v0.049H4.633v0.682
	h0.678c0.177,0.03,0.355,0.045,0.534,0.046h0.054v2.127l-0.15,0.193C5.704,6.223,5.653,6.304,5.598,6.382
	c-0.032,0.224-0.032,0.453,0,0.677C5.439,7.064,5.279,7.079,5.12,7.103c-0.278,0.03-0.553,0.078-0.824,0.145
	C3.81,7.282,3.437,7.315,3.18,7.348c-0.215,0.02-0.427,0.069-0.629,0.145v0.043C2.452,7.537,2.354,7.553,2.259,7.584
	C2.231,7.61,2.213,7.646,2.212,7.683C2.075,7.823,2.002,8.007,2,8.195v0.013c0.001,0.102,0.023,0.204,0.067,0.3V32.16l0.145,0.048
	c0.094,0.093,0.211,0.16,0.339,0.194c0.219,0.125,0.445,0.236,0.678,0.336c0.78,0.391,1.612,0.666,2.471,0.82
	c0.483,0.098,1.035,0.178,1.648,0.237c0.663,0.063,1.332,0.029,1.985-0.101c0.792-0.073,1.573-0.235,2.328-0.479
	c0.761-0.19,1.495-0.483,2.18-0.866h0.05c0.055-0.063,0.119-0.106,0.192-0.146l0.194-0.049V8.555h0.049
	c-0.001,0.005-0.001,0.009,0,0.013c0.002,0.023,0.023,0.039,0.046,0.036v0.047l0.147,0.194h0.049v0.048l0.047,0.045
	c0,0.003,0,0.006,0,0.009c0.003,0.024,0.025,0.042,0.049,0.04v0.1c-0.001,0.003-0.001,0.006,0,0.009
	c0.002,0.024,0.023,0.042,0.048,0.04v0.048h0.046v0.049c0.039,0.001,0.076,0.018,0.1,0.048v0.047h0.051v0.045l0.049,0.048
	c0,0.003,0,0.007,0,0.009c0.002,0.025,0.023,0.043,0.047,0.04v0.1h0.053v0.047l0.145,0.101v0.044c0.001,0,0.002,0,0.004,0
	c0.023,0.001,0.041,0.022,0.04,0.046l0.048,0.1v0.049h0.048v0.047c0.003-0.001,0.009-0.001,0.013,0
	c0.024,0.002,0.041,0.025,0.037,0.049c0,0.004,0,0.007,0.002,0.011c0.002,0.022,0.024,0.039,0.047,0.035v0.1h0.049v0.044
	c0.007-0.001,0.01-0.001,0.014,0c0.023,0.003,0.041,0.024,0.038,0.048v0.1c0.003,0,0.008,0,0.012,0
	c0.024,0.003,0.04,0.026,0.036,0.049h0.049l0.051,0.048v0.046h0.047v0.1h0.049v0.044l0.05,0.049v0.1l0.047,0.049v0.046l0.05,0.049
	v0.047h0.047v0.027l0.047,0.048v0.048l0.05,0.049h0.101v17.916h-0.051v0.052h-0.044V29.2h-0.047c0,0.004,0,0.007,0,0.009
	c-0.005,0.021-0.025,0.044-0.05,0.041l-0.101,0.104v0.771h0.677V30.02h0.047v-0.043l0.058-0.041v-0.047h0.101l0.049-0.102
	c0-0.003,0-0.008,0-0.012c0.004-0.023,0.024-0.039,0.049-0.035v-0.047h0.144V10.957c-0.039,0-0.075-0.018-0.101-0.048v-0.338
	l-0.137-0.19v-0.048h-0.052v-0.049c-0.003,0.001-0.008,0.001-0.011,0.001c-0.023-0.003-0.041-0.025-0.037-0.048l-0.102-0.1v-0.049
	h-0.049v-0.047l-0.047-0.048c0-0.004,0-0.008,0-0.012c-0.005-0.023-0.025-0.039-0.05-0.034v-0.1h-0.049V9.798l-0.036-0.047V9.704
	l-0.053-0.049c0-0.004,0-0.008,0-0.012c-0.004-0.023-0.024-0.038-0.047-0.034v-0.1l-0.047-0.046V8.835l-0.201-0.194V8.596
	c-0.004,0-0.008,0-0.01,0c-0.024-0.003-0.041-0.024-0.039-0.049h-0.047V8.448h-0.051v-0.04l-0.048-0.05V8.259l-0.101-0.1v-0.14
	l-0.051-0.054V7.918c-0.004,0-0.01,0-0.013,0c-0.024-0.004-0.039-0.025-0.034-0.048V7.819L15.55,7.773v-0.14H15.5v-0.1l-0.051-0.048
	V7.437L15.4,7.388V7.34h-0.057V7.302l-0.047-0.048v-0.1c-0.004,0-0.008,0-0.011,0c-0.022-0.003-0.042-0.025-0.039-0.049v-0.1
	c0.001-0.005,0.001-0.009,0-0.014C15.244,6.97,15.223,6.955,15.2,6.959v-0.1L15.152,6.81V6.768l-0.047-0.049v-0.1h-0.051V6.477
	h-0.049v-0.1l-0.049-0.049V6.134l-0.049-0.048V6.037l-0.051-0.048V5.942l-0.049-0.05v-0.04h-0.047v-0.1c0-0.004,0-0.007,0-0.011
	c-0.005-0.024-0.025-0.041-0.051-0.038v-0.1c0.001-0.004,0.001-0.008,0-0.011c-0.002-0.023-0.023-0.042-0.048-0.038V5.417
	c-0.004,0-0.007,0-0.011,0c-0.023-0.003-0.041-0.025-0.039-0.048v-0.1h-0.047v-0.1L14.52,5.118v-0.05l-0.049-0.049V4.98
	l-0.049-0.048v-0.1l-0.051-0.049V4.542l-0.046-0.049c0-0.003,0-0.005,0-0.008c-0.003-0.025-0.025-0.043-0.05-0.041V4.395l-0.094-0.1
	v-0.05l-0.049-0.046V4.15l-0.05-0.05V3.96l-0.048-0.048v-0.1l-0.051-0.046V3.719l-0.047-0.05v-0.05h-0.045V3.476h-0.047V3.427
	c-0.005,0-0.009,0-0.012,0c-0.023-0.003-0.041-0.025-0.038-0.048V3.235l-0.051-0.049V3.138c0-0.004,0-0.009,0-0.013
	c-0.004-0.023-0.024-0.039-0.05-0.035V3.041l-0.049-0.045v-0.1h-0.051V2.849l-0.047-0.047v-0.1l-0.047-0.048V2.513
	c0-0.004,0-0.006-0.001-0.01c-0.003-0.023-0.022-0.04-0.049-0.036v-0.1h-0.048v-0.1h-0.049V2.121c0-0.002,0-0.006,0-0.009
	c-0.004-0.025-0.025-0.042-0.051-0.038V2.033H13.26v-0.1c-0.005,0-0.009,0-0.014,0c-0.021-0.004-0.038-0.025-0.035-0.048v-0.1
	l-0.047-0.048h-0.001V1.59l-0.05-0.047V1.495h-0.242V1.448L12.822,1.4V0.867h-0.484V0.819c-0.001,0-0.004,0-0.006,0
	S12.328,0.819,12.327,0.819"/>
<g>
	<defs>
		<path id="SVGID_1_" d="M13.798,25.43v0.289h-0.004v1.547c-1.771,0.375-3.571,0.604-5.38,0.678
			c-1.954-0.101-3.897-0.342-5.816-0.725V25.43c1.895,0.307,3.806,0.5,5.724,0.58C10.158,25.932,11.986,25.736,13.798,25.43
			 M12.327,0.819c-0.022,0.005-0.037,0.025-0.034,0.048h-0.145v0.149c-0.297,0.296-0.543,0.64-0.729,1.016v-0.2L11.18,1.738H5.459
			c-0.22,0.029-0.407,0.177-0.485,0.386c-0.099,0.145-0.165,0.31-0.193,0.484c-0.067,0.137-0.067,0.297,0,0.434H4.68v0.049H4.632
			v0.682H5.31c0.177,0.03,0.355,0.045,0.534,0.046h0.054v2.127l-0.15,0.193C5.703,6.223,5.652,6.304,5.597,6.382
			c-0.032,0.224-0.032,0.453,0,0.677c-0.159,0.005-0.319,0.02-0.478,0.044c-0.278,0.03-0.553,0.078-0.824,0.145
			c-0.486,0.034-0.859,0.067-1.116,0.1C2.964,7.368,2.752,7.417,2.55,7.493v0.043C2.451,7.537,2.353,7.553,2.258,7.584
			C2.23,7.61,2.212,7.646,2.211,7.683c-0.137,0.14-0.21,0.324-0.212,0.512v0.013C2,8.31,2.022,8.412,2.066,8.508V32.16l0.145,0.048
			c0.094,0.093,0.211,0.16,0.339,0.194c0.219,0.125,0.445,0.236,0.678,0.336c0.78,0.391,1.612,0.666,2.471,0.82
			c0.483,0.098,1.035,0.178,1.648,0.237c0.663,0.063,1.332,0.029,1.985-0.101c0.792-0.073,1.572-0.235,2.328-0.479
			c0.761-0.19,1.494-0.483,2.18-0.866h0.051c0.055-0.063,0.118-0.106,0.191-0.146l0.193-0.049V8.555h0.05
			c-0.001,0.005-0.001,0.009,0,0.013c0.002,0.023,0.022,0.039,0.046,0.036v0.047l0.146,0.194h0.049v0.048l0.047,0.045
			c0,0.003,0,0.006,0,0.009c0.004,0.024,0.025,0.042,0.05,0.04v0.1c-0.001,0.003-0.001,0.006,0,0.009
			c0.002,0.024,0.022,0.042,0.048,0.04v0.048h0.046v0.049c0.039,0.001,0.076,0.018,0.101,0.048v0.047h0.051v0.045l0.049,0.048
			c0,0.003,0,0.007,0,0.009c0.002,0.025,0.023,0.043,0.047,0.04v0.1h0.053v0.047L15.2,9.718v0.044c0.001,0,0.002,0,0.004,0
			c0.022,0.001,0.041,0.022,0.04,0.046l0.048,0.1v0.049h0.048v0.047c0.003-0.001,0.01-0.001,0.014,0
			c0.023,0.002,0.041,0.025,0.037,0.049c0,0.004,0,0.007,0.002,0.011c0.002,0.022,0.023,0.039,0.047,0.035v0.1h0.049v0.044
			c0.007-0.001,0.01-0.001,0.014,0c0.023,0.003,0.041,0.024,0.038,0.048v0.1c0.003,0,0.008,0,0.012,0
			c0.024,0.003,0.04,0.026,0.036,0.049h0.049l0.051,0.048v0.046h0.047v0.1h0.05v0.044l0.05,0.049v0.1l0.047,0.049v0.046l0.051,0.049
			v0.047h0.047v0.027l0.047,0.048v0.048l0.05,0.049h0.101v17.916h-0.051v0.052h-0.044V29.2h-0.047c0,0.004,0,0.007,0,0.009
			c-0.005,0.021-0.025,0.044-0.05,0.041l-0.102,0.104v0.771h0.678V30.02h0.047v-0.043l0.058-0.041v-0.047h0.101l0.049-0.102
			c0-0.003,0-0.008,0-0.012c0.004-0.023,0.024-0.039,0.049-0.035v-0.047h0.145V10.957c-0.039,0-0.076-0.018-0.102-0.048v-0.338
			l-0.137-0.19v-0.048h-0.052v-0.049c-0.003,0.001-0.008,0.001-0.011,0.001c-0.023-0.003-0.041-0.025-0.037-0.048l-0.102-0.1v-0.049
			H16.52v-0.047l-0.047-0.048c0-0.004,0-0.008,0-0.012c-0.006-0.023-0.024-0.039-0.051-0.034v-0.1h-0.049V9.798l-0.036-0.047V9.704
			l-0.053-0.049c0-0.004,0-0.008,0-0.012c-0.005-0.023-0.024-0.038-0.048-0.034v-0.1l-0.047-0.046V8.835l-0.201-0.194V8.596
			c-0.004,0-0.008,0-0.01,0c-0.023-0.003-0.041-0.024-0.039-0.049h-0.047V8.448h-0.051v-0.04l-0.048-0.05V8.259l-0.101-0.1v-0.14
			l-0.051-0.054V7.918c-0.006,0-0.011,0-0.014,0c-0.023-0.004-0.039-0.025-0.035-0.048V7.819l-0.045-0.046v-0.14h-0.05v-0.1
			l-0.051-0.048V7.437l-0.05-0.049V7.34h-0.057V7.302l-0.047-0.048v-0.1c-0.004,0-0.008,0-0.011,0
			c-0.022-0.003-0.042-0.025-0.039-0.049v-0.1c0.001-0.005,0.001-0.009,0-0.014c-0.003-0.021-0.024-0.036-0.047-0.032v-0.1
			L15.152,6.81V6.768l-0.047-0.049v-0.1h-0.051V6.477h-0.05v-0.1l-0.049-0.049V6.134l-0.049-0.048V6.037l-0.052-0.048V5.942
			l-0.049-0.05v-0.04H14.76v-0.1c0-0.004,0-0.007,0-0.011c-0.005-0.024-0.025-0.041-0.051-0.038v-0.1
			c0.001-0.004,0.001-0.008,0-0.011c-0.002-0.023-0.023-0.042-0.048-0.038V5.417c-0.004,0-0.007,0-0.011,0
			c-0.023-0.003-0.041-0.025-0.039-0.048v-0.1h-0.047v-0.1L14.52,5.118v-0.05l-0.049-0.049V4.98l-0.049-0.048v-0.1l-0.051-0.049
			V4.542l-0.046-0.049c0-0.003,0-0.005,0-0.008c-0.003-0.025-0.025-0.043-0.05-0.041V4.395l-0.094-0.1v-0.05l-0.05-0.046V4.15
			l-0.05-0.05V3.96l-0.048-0.048v-0.1l-0.052-0.046V3.719l-0.047-0.05v-0.05h-0.045V3.476h-0.047V3.427c-0.005,0-0.009,0-0.012,0
			c-0.023-0.003-0.041-0.025-0.038-0.048V3.235l-0.051-0.049V3.138c0-0.004,0-0.009,0-0.013c-0.005-0.023-0.024-0.039-0.05-0.035
			V3.041l-0.049-0.045v-0.1h-0.052V2.849l-0.047-0.047v-0.1l-0.047-0.048V2.513c0-0.004,0-0.006-0.001-0.01
			c-0.003-0.023-0.021-0.04-0.049-0.036v-0.1H13.4v-0.1h-0.049V2.121c0-0.002,0-0.006,0-0.009c-0.004-0.025-0.024-0.042-0.051-0.038
			V2.033H13.26v-0.1c-0.005,0-0.009,0-0.014,0c-0.021-0.004-0.038-0.025-0.035-0.048v-0.1l-0.047-0.048h-0.001V1.59l-0.05-0.047
			V1.495h-0.242V1.448L12.822,1.4V0.867h-0.484V0.819c-0.001,0-0.004,0-0.006,0S12.328,0.819,12.327,0.819"/>
	</defs>
	<clipPath id="SVGID_2_">
		<use xlink:href="#SVGID_1_"  overflow="visible"/>
	</clipPath>
	<g clip-path="url(#SVGID_2_)">
		<g>
			
				<linearGradient id="SVGID_3_" gradientUnits="userSpaceOnUse" x1="-869.7881" y1="-1.1445" x2="-808.7534" y2="-1.1445" gradientTransform="matrix(-1 0 0 -1 -826.5283 19.3398)">
				<stop  offset="0" style="stop-color:#F2E2C8;stop-opacity:0"/>
				<stop  offset="0.9194" style="stop-color:#FEB243;stop-opacity:0.8"/>
			</linearGradient>
			<path fill="url(#SVGID_3_)" d="M17.367,17.057l1.59,0.925c-0.154,0.737,1.71,2.338,1.71,2.338L9.45,14.396L0.913,15.84
				l23.642,10.514l-12.219-7.252l15.816,5.209l6.834,4.585l2.037-4.405l-2.982,0.025L17.367,17.057z M1.952,24.236
				c-0.207-1.034-2-1.393-2-1.393l-3.915-1.305l-0.695-0.607c-0.338-0.498-2.871-1.828-2.871-1.828
				c0.84,0.457,6.263,1.393,6.263,1.393c1.398,1.379,4.523,1.217,4.523,1.217l-4.872-2.609l-7.306-4l-0.958-0.087l-0.285-2.102
				l-1.654-0.331l-5.957,8.935L-11.25,36l16.308-0.252l-7.456-4.64l5.568,0.436l7.844,4.204l6.236-5.165l-7.083-0.666
				C6.815,26.552,1.952,24.236,1.952,24.236z M23.744,14.827l-1.158-0.992L43.26,25.146l-2.74-5.875
				c-0.504-0.106-5.627-2.58-5.627-2.58c-1.808-0.362-5.734-2.906-5.734-2.906h-6.629L12.238,4.969l-1.957,3.134l8.292,5.302
				L23.744,14.827z"/>
		</g>
	</g>
</g>
</svg>
