<?xml version="1.0" encoding="utf-8"?>
<!-- Generator: Adobe Illustrator 16.0.0, SVG Export Plug-In . SVG Version: 6.00 Build 0)  -->
<!DOCTYPE svg PUBLIC "-//W3C//DTD SVG 1.1//EN" "http://www.w3.org/Graphics/SVG/1.1/DTD/svg11.dtd">
<svg version="1.1" id="case1" xmlns="http://www.w3.org/2000/svg" xmlns:xlink="http://www.w3.org/1999/xlink" x="0px" y="0px"
	 width="46px" height="36px" viewBox="0 0 46 36" enable-background="new 0 0 46 36" xml:space="preserve">
<path fill="none" d="M42.425,3.092V3.5h0.447v9.132H31.997l-0.044,0.048v0.134c-0.021,0.027-0.057,0.044-0.09,0.046
	c-0.051,0.023-0.096,0.053-0.135,0.09l-0.045,0.045v0.045c-0.047,0.006-0.099,0.022-0.138,0.048
	c-0.004,0.034-0.021,0.066-0.046,0.089h-0.04c-0.028,0.032-0.062,0.061-0.089,0.09c-0.021-0.002-0.044,0.014-0.046,0.037
	c0,0.003,0,0.007,0,0.011v0.045c-0.035,0.003-0.066,0.02-0.091,0.046h-0.088v4.408h0.224v0.775h-0.045v0.543H18.038V19.4
	c-0.03,0.021-0.046,0.061-0.046,0.1c-0.021,0.051-0.053,0.098-0.09,0.139v0.721c-0.025,0.025-0.041,0.063-0.043,0.098
	c-0.059,0.023-0.105,0.07-0.135,0.137v0.596c-0.023,0.043-0.039,0.088-0.045,0.137c-0.044,0.012-0.078,0.047-0.089,0.09v0.727
	c-0.065,0.035-0.127,0.082-0.179,0.137v0.547c-0.055,0.018-0.102,0.046-0.135,0.092v0.454c-0.024,0.021-0.041,0.058-0.043,0.09
	c-0.029,0.063-0.077,0.104-0.135,0.146v0.271c-0.029,0-0.045,0.03-0.045,0.095c-0.037,0.038-0.066,0.086-0.09,0.135v0.229
	c-0.025,0.021-0.042,0.06-0.045,0.093c-0.027,0.063-0.074,0.104-0.134,0.141v0.271c-0.029,0-0.043,0.032-0.043,0.095
	c-0.038,0.039-0.068,0.086-0.091,0.138v0.315c-0.069,0.004-0.133,0.034-0.178,0.09c-0.031,0-0.045,0.028-0.045,0.095
	c-0.035,0.041-0.066,0.086-0.091,0.136v0.457l-0.178,0.09V26.6c-0.028,0.03-0.075,0.075-0.136,0.135v0.318
	c-0.049,0.055-0.109,0.104-0.176,0.135v0.365c-0.033,0.036-0.05,0.086-0.045,0.135c-0.045-0.006-0.084,0.024-0.09,0.067
	c-0.001,0.009-0.001,0.017,0,0.021v0.41c-0.066,0.037-0.126,0.082-0.179,0.14v0.5c-0.04,0.034-0.086,0.065-0.136,0.092v0.729
	l-0.18,0.09v1.64h0.051c0.021-0.003,0.041,0.013,0.045,0.031c0,0.004,0,0.009,0,0.014v0.229l0.043,0.047v0.139
	c0.021-0.004,0.041,0.014,0.043,0.029c0,0.005,0,0.012,0,0.016v0.02c-0.002,0.021,0.014,0.043,0.037,0.045c0.004,0,0.008,0,0.012,0
	v0.049c-0.004,0.02,0.011,0.041,0.031,0.045c0.004,0,0.01,0,0.014,0v0.045l0.043,0.047v0.182c0.034,0.002,0.066,0.021,0.089,0.043
	V32.4l0.044,0.049v0.043h0.045v0.047c-0.004,0.02,0.01,0.039,0.029,0.045c0.005,0,0.01,0,0.016,0h0.045v0.051
	c0.021-0.004,0.041,0.012,0.045,0.033c0,0.004,0,0.008,0,0.012v0.047h0.088v0.043c0.022,0.027,0.055,0.045,0.088,0.047h0.093v0.045
	c-0.004,0.023,0.01,0.046,0.032,0.053c0.002,0.002,0.007,0.002,0.011,0.002h0.223v0.045h0.046V33h0.135v0.045h0.088
	c-0.002,0.023,0.014,0.045,0.037,0.047c0.002,0,0.006,0,0.01,0v0.363h-0.854V33.41h-0.089l-0.045,0.045h-0.495
	c-0.104-0.002-0.21,0.014-0.311,0.045H13.79c-0.072-0.025-0.147-0.041-0.224-0.045v-0.141h-0.358
	c-0.056-0.027-0.117-0.043-0.179-0.045v-0.186h-0.4c-0.146-0.025-0.296-0.047-0.445-0.047v-0.09
	c-0.135-0.031-0.271-0.049-0.41-0.049c-0.149,0-0.299-0.016-0.446-0.047v-0.045h-0.271c-0.357-0.025-0.729-0.047-1.119-0.047v-0.09
	c-0.359-0.029-0.687-0.063-0.985-0.09c-0.042-0.014-0.075-0.045-0.087-0.088c-0.18,0-0.359-0.016-0.536-0.043
	c-0.031-0.033-0.062-0.063-0.09-0.098c-0.179-0.025-0.359-0.063-0.538-0.088c-0.042-0.02-0.075-0.052-0.087-0.097
	c-0.181,0-0.358-0.021-0.535-0.046c-0.031-0.027-0.063-0.063-0.091-0.09c-0.18-0.033-0.344-0.063-0.493-0.098v-0.09
	c-0.12,0-0.24-0.018-0.356-0.045c-0.029-0.033-0.06-0.063-0.091-0.096c-0.071-0.033-0.146-0.063-0.223-0.088H5.554V30.93h-2.5V30.7
	H2.873v-3c0.058-0.021,0.118-0.039,0.179-0.05V26.8c0.01-0.045,0.043-0.077,0.088-0.09c0.023-0.043,0.039-0.089,0.045-0.138v-0.453
	c0.057-0.021,0.117-0.038,0.178-0.045V25.21c0.033-0.043,0.082-0.074,0.136-0.089v-0.592c0.056-0.022,0.114-0.039,0.175-0.049V23.9
	c0.04-0.024,0.084-0.043,0.131-0.049V23.45c0.065-0.017,0.127-0.046,0.18-0.089V23c0.05-0.023,0.096-0.053,0.135-0.09v-0.271
	c0.063-0.027,0.111-0.076,0.139-0.139c0.003-0.035,0.02-0.068,0.045-0.092v-0.09c0.049,0.004,0.098-0.012,0.135-0.045V22
	c0.059-0.029,0.104-0.078,0.133-0.139c0.002-0.033,0.019-0.066,0.046-0.088V21.55c0.048-0.022,0.093-0.055,0.133-0.092V21.1
	l0.179-0.09V20.73c0.04-0.037,0.086-0.066,0.135-0.09V20.5c0.025-0.023,0.041-0.055,0.045-0.09c0.021-0.049,0.052-0.096,0.088-0.137
	c-0.004-0.049,0.013-0.104,0.046-0.135c0.028-0.033,0.059-0.063,0.089-0.1c0.033-0.037,0.052-0.086,0.047-0.135V19.68
	c0.043-0.053,0.107-0.088,0.176-0.092v-0.27c0.031-0.027,0.075-0.074,0.135-0.135V18.82c0.049-0.023,0.094-0.053,0.135-0.09
	c0-0.063,0.015-0.092,0.045-0.092V18.55c0.049-0.022,0.095-0.054,0.135-0.092V18.23c0.057-0.027,0.119-0.058,0.178-0.088V18
	c0.049-0.023,0.096-0.053,0.137-0.089v-0.133c0.011-0.043,0.045-0.078,0.088-0.088c0.021-0.05,0.051-0.097,0.089-0.137v-0.274
	c0.011-0.044,0.045-0.079,0.089-0.092c0.033-0.037,0.05-0.085,0.047-0.134v-0.094c0.057-0.061,0.1-0.1,0.133-0.136
	c0-0.063,0.016-0.09,0.045-0.09V16.6c0.059-0.03,0.105-0.078,0.135-0.136v-0.322c0.055-0.029,0.117-0.044,0.179-0.044v-0.41
	c0.049-0.023,0.094-0.054,0.133-0.091v-0.724c0.063-0.001,0.125-0.018,0.181-0.047v-0.41c-0.063,0-0.125-0.016-0.181-0.046V14.1
	c-0.062-0.001-0.122-0.018-0.176-0.047c-0.031-0.032-0.077-0.074-0.136-0.135v-0.136c-0.002-0.037-0.019-0.071-0.045-0.095
	l-0.267-0.09V13.5c-0.062-0.027-0.12-0.058-0.18-0.088c-0.03-0.029-0.076-0.077-0.134-0.138v-0.09
	c-0.063-0.032-0.119-0.061-0.18-0.089c-0.029-0.033-0.06-0.063-0.091-0.093c-0.053-0.028-0.112-0.042-0.172-0.042v-0.09
	l-0.179-0.091V12.69c-0.101-0.035-0.205-0.051-0.312-0.048v-0.09l-0.18-0.09c-0.03-0.029-0.06-0.06-0.089-0.09
	c-0.057-0.029-0.117-0.044-0.18-0.045v-0.09c-0.179-0.032-0.344-0.062-0.49-0.091l-0.092-0.091
	c-0.069-0.033-0.146-0.048-0.224-0.045v-0.09c-0.206-0.032-0.416-0.061-0.624-0.093v-0.32H3.056V9.819
	c0.046-0.025,0.089-0.055,0.128-0.09V8.683C3.346,8.655,3.511,8.64,3.676,8.638V7.273C3.725,7.251,3.77,7.219,3.807,7.18V6.955
	c0.063-0.061,0.107-0.1,0.137-0.135c0.002-0.035,0.019-0.068,0.043-0.093V6.456c0.05,0.003,0.099-0.013,0.135-0.046V6
	C4.188,5.982,4.25,5.951,4.303,5.907V5.682c0.05-0.024,0.095-0.056,0.134-0.093V5.363l0.18-0.09V5.182
	C4.665,5.185,4.714,5.169,4.75,5.136v-0.27c0.063,0,0.125-0.017,0.179-0.048V4.729c0.05-0.024,0.095-0.054,0.134-0.09V4.41
	c0.061-0.03,0.12-0.061,0.18-0.089V4.229c0.05,0.003,0.099-0.014,0.136-0.048V4.092C5.43,4.061,5.491,4.032,5.548,4V3.91
	c0.05,0.004,0.099-0.013,0.136-0.046v-0.09C5.739,3.745,5.8,3.729,5.862,3.728V3.274c0.418,0,0.837,0.015,1.254,0.047V2.5
	c5.101,0.027,10.201,0.042,15.3,0.045V3h0.625v0.092c0.049,0.023,0.095,0.054,0.136,0.09v0.773h5.638V2.5
	c3.816,0.027,7.621,0.042,11.408,0.045V2.5c0.357,0.027,0.698,0.045,1.029,0.045h0.982v0.09c0.063,0,0.125,0.017,0.181,0.048v0.27
	C42.425,2.987,42.425,3.033,42.425,3.092z M21.482,13.139c-0.076,0.023-0.15,0.053-0.223,0.089
	c-0.039,0.038-0.086,0.069-0.135,0.093c-0.031,0.028-0.074,0.073-0.134,0.134v0.137c-0.039,0.037-0.084,0.068-0.134,0.09v0.23
	c-0.06,0.029-0.118,0.061-0.178,0.088v0.228c-0.041,0.038-0.087,0.068-0.137,0.09v0.365c-0.037,0.04-0.066,0.085-0.089,0.136
	c-0.029,0.03-0.06,0.06-0.089,0.09v0.272c-0.002,0.035-0.02,0.066-0.045,0.089c-0.028,0.032-0.062,0.063-0.09,0.091v0.274
	c-0.032,0.038-0.049,0.087-0.045,0.137l0.045,0.093v0.226c0.022,0.05,0.053,0.095,0.09,0.135c0.025,0.023,0.041,0.055,0.045,0.09
	v0.137l0.134,0.136c0.005,0.048,0.021,0.094,0.044,0.136c0.03,0,0.044,0.028,0.044,0.09c0.039,0.04,0.07,0.085,0.093,0.136v1.409
	h8.899v-0.59c0.237,0,0.478,0.016,0.713,0.046v-0.179c0.036-0.001,0.069-0.019,0.091-0.048V13.5h-0.398v-0.136
	c-0.029-0.004-0.063-0.021-0.088-0.045v-0.047h-0.09c-0.002-0.035-0.02-0.067-0.046-0.09v-0.045c0.005-0.021-0.01-0.042-0.03-0.046
	c-0.004-0.001-0.01-0.001-0.015,0v-0.048H29.58v-0.09h-0.09c-0.004-0.035-0.02-0.068-0.045-0.091l-0.09-0.046
	c-0.022-0.025-0.061-0.041-0.09-0.045c-0.041-0.025-0.086-0.04-0.138-0.044v-0.092h-4.833v0.455
	c-0.061,0.028-0.119,0.058-0.179,0.089v2c0.024,0.022,0.043,0.054,0.046,0.089c0.021-0.001,0.042,0.016,0.044,0.038
	c0,0.003,0,0.007-0.001,0.011c-0.003,0.021,0.012,0.041,0.031,0.044c0.006,0,0.011,0,0.015,0c-0.004,0.021,0.013,0.042,0.031,0.046
	c0.004,0.001,0.009,0.001,0.013,0c-0.004,0.021,0.012,0.042,0.03,0.046c0.005,0.001,0.01,0.001,0.017,0v0.091
	c0.021,0.027,0.055,0.043,0.088,0.045c0.027,0.03,0.063,0.061,0.09,0.09v0.046c-0.004,0.022,0.013,0.043,0.035,0.047
	c0.004,0,0.006,0,0.01,0c0.025,0.024,0.043,0.057,0.045,0.093l0.045,0.044h0.091V16c0.034,0.003,0.065,0.019,0.089,0.044
	l0.045,0.048c0.035,0.002,0.066,0.017,0.09,0.043v0.09h0.086c0.033,0.03,0.063,0.061,0.092,0.09v0.046
	c0.035,0.003,0.066,0.02,0.088,0.047c0.063,0,0.125,0.016,0.182,0.046v0.09H25.6c0.049,0.023,0.094,0.053,0.133,0.089v0.048
	c0.078-0.004,0.154,0.011,0.227,0.044c0.077,0.004,0.148,0.02,0.227,0.046v0.093h0.625v0.77h-1.435v-0.048
	c-0.058-0.027-0.117-0.042-0.183-0.044c-0.068-0.035-0.146-0.065-0.223-0.09V17.4c-0.037-0.031-0.086-0.046-0.135-0.044
	c-0.063-0.001-0.123-0.017-0.179-0.046v-0.04c-0.036-0.035-0.085-0.052-0.134-0.048c-0.063-0.028-0.121-0.061-0.178-0.089v-0.045
	L24.3,17.044c-0.022-0.028-0.054-0.045-0.09-0.048v-0.045c-0.049-0.022-0.094-0.052-0.134-0.088
	c-0.036-0.003-0.069-0.02-0.092-0.047v-0.09c-0.021-0.027-0.053-0.043-0.088-0.044c-0.021-0.028-0.057-0.046-0.09-0.048
	c-0.025-0.022-0.041-0.054-0.043-0.089L23.718,16.5c-0.001-0.035-0.018-0.067-0.044-0.09c-0.021-0.027-0.055-0.044-0.09-0.047
	v-0.048c-0.029-0.03-0.057-0.061-0.089-0.09v-0.047c-0.029-0.028-0.06-0.06-0.088-0.089l-0.046-0.048V16
	c-0.034-0.004-0.065-0.021-0.088-0.046v-0.047l-0.09-0.091v-0.044c0-0.031-0.031-0.047-0.091-0.047v-0.136h-0.221V15.5
	c0.003-0.022-0.013-0.043-0.034-0.047c-0.004,0-0.008,0-0.012,0c-0.003-0.034-0.02-0.066-0.043-0.09v-0.818
	c0.057,0,0.089-0.014,0.089-0.045v-1.863h-0.763v0.182c-0.151,0.032-0.313,0.062-0.493,0.091v0.046
	c-0.04,0.037-0.084,0.067-0.134,0.091L21.482,13.139L21.482,13.139z M10.339,32.639c0.078-0.004,0.156,0.012,0.228,0.045v-0.049
	c-0.103-0.033-0.209-0.051-0.315-0.049L10.339,32.639z"/>
<linearGradient id="p250_1_" gradientUnits="userSpaceOnUse" x1="259.7725" y1="1660.8252" x2="299.7725" y2="1660.8252" gradientTransform="matrix(1 0 0 1 -256.9004 -1642.8252)">
	<stop  offset="0" style="stop-color:#DC4A49"/>
	<stop  offset="0.3011" style="stop-color:#BE2126"/>
	<stop  offset="0.7419" style="stop-color:#E10414"/>
	<stop  offset="1" style="stop-color:#FEB243"/>
</linearGradient>
<path id="p250" fill="url(#p250_1_)" d="M42.425,3.092V3.5h0.447v9.132H31.997l-0.044,0.048v0.134
	c-0.021,0.027-0.057,0.044-0.09,0.046c-0.051,0.023-0.096,0.053-0.135,0.09l-0.045,0.045v0.045
	c-0.047,0.006-0.099,0.022-0.138,0.048c-0.004,0.034-0.021,0.066-0.046,0.089h-0.04c-0.028,0.032-0.062,0.061-0.089,0.09
	c-0.021-0.002-0.044,0.014-0.046,0.037c0,0.003,0,0.007,0,0.011v0.045c-0.035,0.003-0.066,0.02-0.091,0.046h-0.088v4.408h0.224
	v0.775h-0.045v0.543H18.038V19.4c-0.03,0.021-0.046,0.061-0.046,0.1c-0.022,0.051-0.053,0.098-0.089,0.139v0.721
	c-0.026,0.025-0.042,0.063-0.043,0.098c-0.059,0.023-0.106,0.07-0.136,0.137v0.596c-0.023,0.043-0.039,0.088-0.045,0.137
	c-0.043,0.012-0.077,0.047-0.088,0.09v0.727c-0.066,0.035-0.127,0.082-0.179,0.137v0.547c-0.054,0.018-0.101,0.046-0.134,0.092
	v0.454c-0.025,0.021-0.041,0.058-0.044,0.09c-0.029,0.063-0.077,0.104-0.135,0.146v0.271c-0.028,0-0.044,0.03-0.044,0.095
	c-0.037,0.038-0.067,0.086-0.09,0.135v0.229c-0.026,0.021-0.042,0.06-0.045,0.093c-0.028,0.063-0.075,0.104-0.134,0.141v0.271
	c-0.029,0-0.043,0.032-0.043,0.095c-0.038,0.039-0.068,0.086-0.09,0.138v0.315c-0.07,0.004-0.134,0.034-0.178,0.09
	c-0.031,0-0.045,0.028-0.045,0.095c-0.036,0.041-0.067,0.086-0.091,0.136v0.457l-0.178,0.09V26.6
	c-0.028,0.03-0.075,0.075-0.135,0.135v0.318c-0.05,0.055-0.11,0.104-0.177,0.135v0.365c-0.033,0.036-0.049,0.086-0.045,0.135
	c-0.044-0.006-0.084,0.024-0.089,0.067c-0.001,0.009-0.001,0.017,0,0.021v0.41c-0.066,0.037-0.126,0.082-0.179,0.14v0.5
	c-0.04,0.034-0.086,0.065-0.136,0.092v0.729l-0.179,0.09v1.64h0.051c0.021-0.003,0.041,0.013,0.044,0.031c0,0.004,0,0.009,0,0.014
	v0.229l0.044,0.047v0.139c0.021-0.004,0.041,0.014,0.043,0.029c0,0.005,0,0.012,0,0.016v0.02c-0.003,0.021,0.013,0.043,0.036,0.045
	c0.004,0,0.008,0,0.012,0v0.049c-0.004,0.02,0.011,0.041,0.032,0.045c0.004,0,0.009,0,0.013,0v0.045l0.043,0.047v0.182
	c0.034,0.002,0.066,0.021,0.089,0.043V32.4l0.044,0.049v0.043h0.045v0.047c-0.004,0.02,0.009,0.039,0.029,0.045
	c0.005,0,0.01,0,0.016,0h0.044v0.051c0.021-0.004,0.042,0.012,0.045,0.033c0,0.004,0,0.008,0,0.012v0.047h0.089v0.043
	c0.022,0.027,0.054,0.045,0.088,0.047h0.092v0.045c-0.004,0.023,0.01,0.046,0.032,0.053c0.003,0.002,0.007,0.002,0.011,0.002h0.223
	v0.045h0.046V33h0.134v0.045h0.089c-0.003,0.023,0.013,0.045,0.036,0.047c0.003,0,0.006,0,0.01,0v0.363h-0.853V33.41h-0.089
	l-0.045,0.045h-0.495c-0.104-0.002-0.21,0.014-0.311,0.045H13.79c-0.072-0.025-0.147-0.041-0.223-0.045v-0.141h-0.359
	c-0.056-0.027-0.117-0.043-0.179-0.045v-0.186h-0.4c-0.146-0.025-0.296-0.047-0.446-0.047v-0.09
	c-0.134-0.031-0.271-0.049-0.409-0.049c-0.15,0-0.3-0.016-0.447-0.047v-0.045h-0.271c-0.357-0.025-0.729-0.047-1.118-0.047v-0.09
	c-0.36-0.029-0.687-0.063-0.986-0.09c-0.042-0.014-0.075-0.045-0.087-0.088c-0.18,0-0.359-0.016-0.536-0.043
	c-0.031-0.033-0.061-0.063-0.09-0.098c-0.179-0.025-0.359-0.063-0.538-0.088c-0.042-0.02-0.075-0.052-0.087-0.097
	c-0.18,0-0.358-0.021-0.535-0.046c-0.031-0.027-0.063-0.063-0.091-0.09c-0.179-0.033-0.343-0.063-0.493-0.098v-0.09
	c-0.12,0-0.24-0.018-0.356-0.045c-0.03-0.033-0.06-0.063-0.091-0.096c-0.072-0.033-0.146-0.063-0.223-0.088H5.553V30.93h-2.5V30.7
	H2.872v-3c0.057-0.021,0.118-0.039,0.179-0.05V26.8c0.01-0.045,0.043-0.077,0.087-0.09c0.024-0.043,0.04-0.089,0.045-0.138v-0.453
	c0.057-0.021,0.118-0.038,0.179-0.045V25.21c0.033-0.043,0.081-0.074,0.135-0.089v-0.592c0.056-0.022,0.115-0.039,0.175-0.049V23.9
	c0.04-0.024,0.084-0.043,0.131-0.049V23.45c0.065-0.017,0.127-0.046,0.18-0.089V23c0.049-0.023,0.095-0.053,0.134-0.09v-0.271
	c0.062-0.027,0.111-0.076,0.139-0.139c0.003-0.035,0.019-0.068,0.045-0.092v-0.09c0.049,0.004,0.097-0.012,0.134-0.045V22
	c0.059-0.029,0.105-0.078,0.133-0.139c0.002-0.033,0.019-0.066,0.046-0.088V21.55c0.048-0.022,0.093-0.055,0.133-0.092V21.1
	l0.179-0.09V20.73c0.04-0.037,0.085-0.066,0.134-0.09V20.5c0.026-0.023,0.042-0.055,0.045-0.09c0.022-0.049,0.052-0.096,0.089-0.137
	c-0.004-0.049,0.012-0.104,0.045-0.135c0.029-0.033,0.059-0.063,0.089-0.1c0.034-0.037,0.052-0.086,0.047-0.135V19.68
	c0.043-0.053,0.107-0.088,0.176-0.092v-0.27c0.031-0.027,0.075-0.074,0.135-0.135V18.82c0.049-0.023,0.094-0.053,0.134-0.09
	c0-0.063,0.015-0.092,0.045-0.092V18.55C5.914,18.527,5.96,18.496,6,18.458V18.23c0.057-0.027,0.119-0.058,0.178-0.088V18
	c0.049-0.023,0.095-0.053,0.136-0.089v-0.133c0.011-0.043,0.045-0.078,0.089-0.088c0.021-0.05,0.05-0.097,0.088-0.137v-0.274
	c0.011-0.044,0.045-0.079,0.089-0.092c0.033-0.037,0.05-0.085,0.047-0.134v-0.094c0.057-0.061,0.1-0.1,0.133-0.136
	c0-0.063,0.016-0.09,0.045-0.09V16.6c0.058-0.03,0.105-0.078,0.134-0.136v-0.322c0.055-0.029,0.117-0.044,0.179-0.044v-0.41
	c0.049-0.023,0.094-0.054,0.133-0.091v-0.724c0.063-0.001,0.125-0.018,0.18-0.047v-0.41c-0.063,0-0.125-0.016-0.18-0.046V14.1
	c-0.062-0.001-0.122-0.018-0.176-0.047c-0.031-0.032-0.077-0.074-0.135-0.135v-0.136c-0.002-0.037-0.019-0.071-0.046-0.095
	l-0.266-0.09V13.5c-0.061-0.027-0.12-0.058-0.18-0.088c-0.03-0.029-0.076-0.077-0.134-0.138v-0.09
	c-0.062-0.032-0.119-0.061-0.179-0.089c-0.03-0.033-0.06-0.063-0.091-0.093c-0.053-0.028-0.112-0.042-0.172-0.042v-0.09
	l-0.179-0.091V12.69c-0.1-0.035-0.205-0.051-0.311-0.048v-0.09l-0.18-0.09c-0.03-0.029-0.059-0.06-0.089-0.09
	c-0.056-0.029-0.117-0.044-0.179-0.045v-0.09c-0.179-0.032-0.344-0.062-0.491-0.091l-0.091-0.091
	c-0.07-0.033-0.147-0.048-0.224-0.045v-0.09c-0.206-0.032-0.416-0.061-0.624-0.093v-0.32H3.052V9.819
	c0.045-0.025,0.088-0.055,0.127-0.09V8.683C3.342,8.655,3.507,8.64,3.672,8.638V7.273C3.721,7.251,3.766,7.219,3.803,7.18V6.955
	C3.866,6.894,3.91,6.855,3.94,6.82c0.002-0.035,0.018-0.068,0.043-0.093V6.456C4.032,6.459,4.081,6.443,4.117,6.41V6
	c0.066-0.018,0.128-0.049,0.181-0.093V5.682c0.049-0.024,0.095-0.056,0.134-0.093V5.363l0.179-0.09V5.182
	c0.048,0.003,0.097-0.013,0.133-0.046v-0.27c0.063,0,0.125-0.017,0.179-0.048V4.729c0.049-0.024,0.094-0.054,0.134-0.09V4.41
	c0.06-0.03,0.12-0.061,0.18-0.089V4.229c0.049,0.003,0.098-0.014,0.135-0.048V4.092C5.43,4.061,5.491,4.032,5.548,4V3.91
	c0.05,0.004,0.099-0.013,0.135-0.046v-0.09C5.738,3.745,5.8,3.729,5.862,3.728V3.274c0.417,0,0.836,0.015,1.253,0.047V2.5
	c5.101,0.027,10.201,0.042,15.3,0.045V3h0.625v0.092c0.049,0.023,0.095,0.054,0.136,0.09v0.773h5.637V2.5
	c3.818,0.027,7.621,0.042,11.408,0.045V2.5c0.359,0.027,0.7,0.045,1.031,0.045h0.984v0.09c0.063,0,0.125,0.017,0.179,0.048v0.27
	C42.425,2.987,42.425,3.033,42.425,3.092z M21.483,13.139c-0.077,0.023-0.151,0.053-0.223,0.089
	c-0.04,0.038-0.086,0.069-0.135,0.093c-0.031,0.028-0.074,0.073-0.134,0.134v0.137c-0.039,0.037-0.084,0.068-0.133,0.09v0.23
	c-0.06,0.029-0.119,0.061-0.179,0.088v0.228c-0.04,0.038-0.086,0.068-0.136,0.09v0.365c-0.037,0.04-0.067,0.085-0.089,0.136
	c-0.029,0.03-0.06,0.06-0.089,0.09v0.272c-0.002,0.035-0.019,0.066-0.045,0.089c-0.028,0.032-0.061,0.063-0.089,0.091v0.274
	c-0.033,0.038-0.049,0.087-0.045,0.137l0.045,0.093v0.226c0.022,0.05,0.052,0.095,0.089,0.135c0.026,0.023,0.042,0.055,0.045,0.09
	v0.137l0.134,0.136c0.005,0.048,0.02,0.094,0.044,0.136c0.03,0,0.044,0.028,0.044,0.09c0.039,0.04,0.07,0.085,0.092,0.136v1.409h8.9
	v-0.59c0.237,0,0.478,0.016,0.713,0.046v-0.179c0.036-0.001,0.069-0.019,0.091-0.048V13.5h-0.398v-0.136
	c-0.029-0.004-0.063-0.021-0.088-0.045v-0.047h-0.09c-0.002-0.035-0.02-0.067-0.045-0.09v-0.045
	c0.004-0.021-0.011-0.042-0.031-0.046c-0.004-0.001-0.01-0.001-0.015,0v-0.048h-0.134v-0.09h-0.09
	c-0.004-0.035-0.02-0.068-0.045-0.091l-0.09-0.046c-0.022-0.025-0.061-0.041-0.09-0.045c-0.041-0.025-0.086-0.04-0.138-0.044v-0.092
	H24.3v0.455c-0.06,0.028-0.12,0.058-0.179,0.089v2c0.025,0.022,0.043,0.054,0.046,0.089c0.022-0.001,0.042,0.016,0.044,0.038
	c0,0.003,0,0.007-0.001,0.011c-0.003,0.021,0.013,0.041,0.033,0.044c0.004,0,0.009,0,0.013,0c-0.004,0.021,0.01,0.042,0.031,0.046
	c0.004,0.001,0.009,0.001,0.013,0c-0.004,0.021,0.009,0.042,0.03,0.046c0.005,0.001,0.01,0.001,0.016,0v0.091
	c0.021,0.027,0.053,0.043,0.086,0.045c0.03,0.03,0.063,0.061,0.09,0.09v0.046c-0.002,0.022,0.015,0.043,0.035,0.047
	c0.004,0,0.008,0,0.012,0c0.025,0.024,0.041,0.057,0.045,0.093l0.046,0.044h0.09V16c0.034,0.003,0.063,0.019,0.089,0.044
	l0.045,0.048c0.035,0.002,0.066,0.017,0.092,0.043v0.09h0.086c0.031,0.03,0.061,0.061,0.092,0.09v0.046
	c0.035,0.003,0.064,0.02,0.088,0.047c0.063,0,0.123,0.016,0.179,0.046v0.09H25.6c0.049,0.023,0.094,0.053,0.133,0.089v0.048
	c0.078-0.004,0.154,0.011,0.226,0.044c0.077,0.004,0.149,0.02,0.226,0.046v0.093h0.625v0.77h-1.434v-0.048
	c-0.057-0.027-0.117-0.042-0.182-0.044c-0.069-0.035-0.146-0.065-0.223-0.09V17.4c-0.037-0.031-0.086-0.046-0.135-0.044
	c-0.063-0.001-0.123-0.017-0.179-0.046v-0.04c-0.036-0.035-0.085-0.052-0.134-0.048c-0.063-0.028-0.121-0.061-0.178-0.089v-0.045
	L24.3,17.044c-0.022-0.028-0.054-0.045-0.09-0.048v-0.045c-0.049-0.022-0.094-0.052-0.134-0.088
	c-0.036-0.003-0.069-0.02-0.092-0.047v-0.09c-0.021-0.027-0.053-0.043-0.088-0.044c-0.021-0.028-0.056-0.046-0.09-0.048
	c-0.025-0.022-0.041-0.054-0.043-0.089L23.718,16.5c-0.001-0.035-0.018-0.067-0.044-0.09c-0.021-0.027-0.055-0.044-0.09-0.047
	v-0.048c-0.029-0.03-0.057-0.061-0.089-0.09v-0.047c-0.029-0.028-0.059-0.06-0.088-0.089l-0.046-0.048V16
	c-0.034-0.004-0.065-0.021-0.088-0.046v-0.047l-0.089-0.091v-0.044c0-0.031-0.032-0.047-0.091-0.047v-0.136h-0.221V15.5
	c0.003-0.022-0.012-0.043-0.034-0.047c-0.004,0-0.008,0-0.012,0c-0.003-0.034-0.019-0.066-0.043-0.09v-0.818
	c0.057,0,0.089-0.014,0.089-0.045v-1.863h-0.763v0.182c-0.151,0.032-0.313,0.062-0.493,0.091v0.046
	c-0.04,0.037-0.084,0.067-0.133,0.091V13.139z M10.339,32.639c0.078-0.004,0.156,0.012,0.227,0.045v-0.049
	c-0.102-0.033-0.208-0.051-0.315-0.049L10.339,32.639z"/>
<g>
	<defs>
		<path id="SVGID_1_" d="M42.425,3.092V3.5h0.447v9.132H31.997l-0.044,0.048v0.134c-0.021,0.027-0.057,0.044-0.09,0.046
			c-0.051,0.023-0.096,0.053-0.135,0.09l-0.045,0.045v0.045c-0.047,0.006-0.099,0.022-0.138,0.048
			c-0.004,0.034-0.021,0.066-0.046,0.089h-0.04c-0.028,0.032-0.062,0.061-0.089,0.09c-0.021-0.002-0.044,0.014-0.046,0.037
			c0,0.003,0,0.007,0,0.011v0.045c-0.035,0.003-0.066,0.02-0.091,0.046h-0.088v4.408h0.224v0.775h-0.045v0.543H18.038V19.4
			c-0.03,0.021-0.046,0.061-0.046,0.1c-0.021,0.051-0.053,0.098-0.09,0.139v0.721c-0.025,0.025-0.041,0.063-0.043,0.098
			c-0.059,0.023-0.105,0.07-0.135,0.137v0.596c-0.023,0.043-0.039,0.088-0.045,0.137c-0.044,0.012-0.078,0.047-0.089,0.09v0.727
			c-0.065,0.035-0.127,0.082-0.179,0.137v0.547c-0.055,0.018-0.102,0.046-0.135,0.092v0.454c-0.024,0.021-0.041,0.058-0.043,0.09
			c-0.029,0.063-0.077,0.104-0.135,0.146v0.271c-0.029,0-0.045,0.03-0.045,0.095c-0.037,0.038-0.066,0.086-0.09,0.135v0.229
			c-0.025,0.021-0.042,0.06-0.045,0.093c-0.027,0.063-0.074,0.104-0.134,0.141v0.271c-0.029,0-0.043,0.032-0.043,0.095
			c-0.038,0.039-0.068,0.086-0.091,0.138v0.315c-0.069,0.004-0.133,0.034-0.178,0.09c-0.031,0-0.045,0.028-0.045,0.095
			c-0.035,0.041-0.066,0.086-0.091,0.136v0.457l-0.178,0.09V26.6c-0.028,0.03-0.075,0.075-0.136,0.135v0.318
			c-0.049,0.055-0.109,0.104-0.176,0.135v0.365c-0.033,0.036-0.05,0.086-0.045,0.135c-0.045-0.006-0.084,0.024-0.09,0.067
			c-0.001,0.009-0.001,0.017,0,0.021v0.41c-0.066,0.037-0.126,0.082-0.179,0.14v0.5c-0.04,0.034-0.086,0.065-0.136,0.092v0.729
			l-0.18,0.09v1.64h0.051c0.021-0.003,0.041,0.013,0.045,0.031c0,0.004,0,0.009,0,0.014v0.229l0.043,0.047v0.139
			c0.021-0.004,0.041,0.014,0.043,0.029c0,0.005,0,0.012,0,0.016v0.02c-0.002,0.021,0.014,0.043,0.037,0.045
			c0.004,0,0.008,0,0.012,0v0.049c-0.004,0.02,0.011,0.041,0.031,0.045c0.004,0,0.01,0,0.014,0v0.045l0.043,0.047v0.182
			c0.034,0.002,0.066,0.021,0.089,0.043V32.4l0.044,0.049v0.043h0.045v0.047c-0.004,0.02,0.01,0.039,0.029,0.045
			c0.005,0,0.01,0,0.016,0h0.045v0.051c0.021-0.004,0.041,0.012,0.045,0.033c0,0.004,0,0.008,0,0.012v0.047h0.088v0.043
			c0.022,0.027,0.055,0.045,0.088,0.047h0.093v0.045c-0.004,0.023,0.01,0.046,0.032,0.053c0.002,0.002,0.007,0.002,0.011,0.002
			h0.223v0.045h0.046V33h0.135v0.045h0.088c-0.002,0.023,0.014,0.045,0.037,0.047c0.002,0,0.006,0,0.01,0v0.363h-0.854V33.41h-0.089
			l-0.045,0.045h-0.495c-0.104-0.002-0.21,0.014-0.311,0.045H13.79c-0.072-0.025-0.147-0.041-0.224-0.045v-0.141h-0.358
			c-0.056-0.027-0.117-0.043-0.179-0.045v-0.186h-0.4c-0.146-0.025-0.296-0.047-0.445-0.047v-0.09
			c-0.135-0.031-0.271-0.049-0.41-0.049c-0.149,0-0.299-0.016-0.446-0.047v-0.045h-0.271c-0.357-0.025-0.729-0.047-1.119-0.047
			v-0.09c-0.359-0.029-0.687-0.063-0.985-0.09c-0.042-0.014-0.075-0.045-0.087-0.088c-0.18,0-0.359-0.016-0.536-0.043
			c-0.031-0.033-0.062-0.063-0.09-0.098c-0.179-0.025-0.359-0.063-0.538-0.088c-0.042-0.02-0.075-0.052-0.087-0.097
			c-0.181,0-0.358-0.021-0.535-0.046c-0.031-0.027-0.063-0.063-0.091-0.09c-0.18-0.033-0.344-0.063-0.493-0.098v-0.09
			c-0.12,0-0.24-0.018-0.356-0.045c-0.029-0.033-0.06-0.063-0.091-0.096c-0.071-0.033-0.146-0.063-0.223-0.088H5.554V30.93h-2.5
			V30.7H2.873v-3c0.058-0.021,0.118-0.039,0.179-0.05V26.8c0.01-0.045,0.043-0.077,0.088-0.09c0.023-0.043,0.039-0.089,0.045-0.138
			v-0.453c0.057-0.021,0.117-0.038,0.178-0.045V25.21c0.033-0.043,0.082-0.074,0.136-0.089v-0.592
			c0.056-0.022,0.114-0.039,0.175-0.049V23.9c0.04-0.024,0.084-0.043,0.131-0.049V23.45c0.065-0.017,0.127-0.046,0.18-0.089V23
			c0.05-0.023,0.096-0.053,0.135-0.09v-0.271c0.063-0.027,0.111-0.076,0.139-0.139c0.003-0.035,0.02-0.068,0.045-0.092v-0.09
			c0.049,0.004,0.098-0.012,0.135-0.045V22c0.059-0.029,0.104-0.078,0.133-0.139c0.002-0.033,0.019-0.066,0.046-0.088V21.55
			c0.048-0.022,0.093-0.055,0.133-0.092V21.1l0.179-0.09V20.73c0.04-0.037,0.086-0.066,0.135-0.09V20.5
			c0.025-0.023,0.041-0.055,0.045-0.09c0.021-0.049,0.052-0.096,0.088-0.137c-0.004-0.049,0.013-0.104,0.046-0.135
			c0.028-0.033,0.059-0.063,0.089-0.1c0.033-0.037,0.052-0.086,0.047-0.135V19.68c0.043-0.053,0.107-0.088,0.176-0.092v-0.27
			c0.031-0.027,0.075-0.074,0.135-0.135V18.82c0.049-0.023,0.094-0.053,0.135-0.09c0-0.063,0.015-0.092,0.045-0.092V18.55
			c0.049-0.022,0.095-0.054,0.135-0.092V18.23c0.057-0.027,0.119-0.058,0.178-0.088V18c0.049-0.023,0.096-0.053,0.137-0.089v-0.133
			c0.011-0.043,0.045-0.078,0.088-0.088c0.021-0.05,0.051-0.097,0.089-0.137v-0.274c0.011-0.044,0.045-0.079,0.089-0.092
			c0.033-0.037,0.05-0.085,0.047-0.134v-0.094c0.057-0.061,0.1-0.1,0.133-0.136c0-0.063,0.016-0.09,0.045-0.09V16.6
			c0.059-0.03,0.105-0.078,0.135-0.136v-0.322c0.055-0.029,0.117-0.044,0.179-0.044v-0.41c0.049-0.023,0.094-0.054,0.133-0.091
			v-0.724c0.063-0.001,0.125-0.018,0.181-0.047v-0.41c-0.063,0-0.125-0.016-0.181-0.046V14.1c-0.062-0.001-0.122-0.018-0.176-0.047
			c-0.031-0.032-0.077-0.074-0.136-0.135v-0.136c-0.002-0.037-0.019-0.071-0.045-0.095l-0.267-0.09V13.5
			c-0.062-0.027-0.12-0.058-0.18-0.088c-0.03-0.029-0.076-0.077-0.134-0.138v-0.09c-0.063-0.032-0.119-0.061-0.18-0.089
			c-0.029-0.033-0.06-0.063-0.091-0.093c-0.053-0.028-0.112-0.042-0.172-0.042v-0.09l-0.179-0.091V12.69
			c-0.101-0.035-0.205-0.051-0.312-0.048v-0.09l-0.18-0.09c-0.03-0.029-0.06-0.06-0.089-0.09c-0.057-0.029-0.117-0.044-0.18-0.045
			v-0.09c-0.179-0.032-0.344-0.062-0.49-0.091l-0.092-0.091c-0.069-0.033-0.146-0.048-0.224-0.045v-0.09
			c-0.206-0.032-0.416-0.061-0.624-0.093v-0.32H3.056V9.819c0.046-0.025,0.089-0.055,0.128-0.09V8.683
			C3.346,8.655,3.511,8.64,3.676,8.638V7.273C3.725,7.251,3.77,7.219,3.807,7.18V6.955c0.063-0.061,0.107-0.1,0.137-0.135
			c0.002-0.035,0.019-0.068,0.043-0.093V6.456c0.05,0.003,0.099-0.013,0.135-0.046V6C4.188,5.982,4.25,5.951,4.303,5.907V5.682
			c0.05-0.024,0.095-0.056,0.134-0.093V5.363l0.18-0.09V5.182C4.665,5.185,4.714,5.169,4.75,5.136v-0.27
			c0.063,0,0.125-0.017,0.179-0.048V4.729c0.05-0.024,0.095-0.054,0.134-0.09V4.41c0.061-0.03,0.12-0.061,0.18-0.089V4.229
			c0.05,0.003,0.099-0.014,0.136-0.048V4.092C5.43,4.061,5.491,4.032,5.548,4V3.91c0.05,0.004,0.099-0.013,0.136-0.046v-0.09
			C5.739,3.745,5.8,3.729,5.862,3.728V3.274c0.418,0,0.837,0.015,1.254,0.047V2.5c5.101,0.027,10.201,0.042,15.3,0.045V3h0.625
			v0.092c0.049,0.023,0.095,0.054,0.136,0.09v0.773h5.638V2.5c3.816,0.027,7.621,0.042,11.408,0.045V2.5
			c0.357,0.027,0.698,0.045,1.029,0.045h0.982v0.09c0.063,0,0.125,0.017,0.181,0.048v0.27C42.425,2.987,42.425,3.033,42.425,3.092z
			 M21.482,13.139c-0.076,0.023-0.15,0.053-0.223,0.089c-0.039,0.038-0.086,0.069-0.135,0.093c-0.031,0.028-0.074,0.073-0.134,0.134
			v0.137c-0.039,0.037-0.084,0.068-0.134,0.09v0.23c-0.06,0.029-0.118,0.061-0.178,0.088v0.228c-0.041,0.038-0.087,0.068-0.137,0.09
			v0.365c-0.037,0.04-0.066,0.085-0.089,0.136c-0.029,0.03-0.06,0.06-0.089,0.09v0.272c-0.002,0.035-0.02,0.066-0.045,0.089
			c-0.028,0.032-0.062,0.063-0.09,0.091v0.274c-0.032,0.038-0.049,0.087-0.045,0.137l0.045,0.093v0.226
			c0.022,0.05,0.053,0.095,0.09,0.135c0.025,0.023,0.041,0.055,0.045,0.09v0.137l0.134,0.136c0.005,0.048,0.021,0.094,0.044,0.136
			c0.03,0,0.044,0.028,0.044,0.09c0.039,0.04,0.07,0.085,0.093,0.136v1.409h8.899v-0.59c0.237,0,0.478,0.016,0.713,0.046v-0.179
			c0.036-0.001,0.069-0.019,0.091-0.048V13.5h-0.398v-0.136c-0.029-0.004-0.063-0.021-0.088-0.045v-0.047h-0.09
			c-0.002-0.035-0.02-0.067-0.046-0.09v-0.045c0.005-0.021-0.01-0.042-0.03-0.046c-0.004-0.001-0.01-0.001-0.015,0v-0.048H29.58
			v-0.09h-0.09c-0.004-0.035-0.02-0.068-0.045-0.091l-0.09-0.046c-0.022-0.025-0.061-0.041-0.09-0.045
			c-0.041-0.025-0.086-0.04-0.138-0.044v-0.092h-4.833v0.455c-0.061,0.028-0.119,0.058-0.179,0.089v2
			c0.024,0.022,0.043,0.054,0.046,0.089c0.021-0.001,0.042,0.016,0.044,0.038c0,0.003,0,0.007-0.001,0.011
			c-0.003,0.021,0.012,0.041,0.031,0.044c0.006,0,0.011,0,0.015,0c-0.004,0.021,0.013,0.042,0.031,0.046
			c0.004,0.001,0.009,0.001,0.013,0c-0.004,0.021,0.012,0.042,0.03,0.046c0.005,0.001,0.01,0.001,0.017,0v0.091
			c0.021,0.027,0.055,0.043,0.088,0.045c0.027,0.03,0.063,0.061,0.09,0.09v0.046c-0.004,0.022,0.013,0.043,0.035,0.047
			c0.004,0,0.006,0,0.01,0c0.025,0.024,0.043,0.057,0.045,0.093l0.045,0.044h0.091V16c0.034,0.003,0.065,0.019,0.089,0.044
			l0.045,0.048c0.035,0.002,0.066,0.017,0.09,0.043v0.09h0.086c0.033,0.03,0.063,0.061,0.092,0.09v0.046
			c0.035,0.003,0.066,0.02,0.088,0.047c0.063,0,0.125,0.016,0.182,0.046v0.09H25.6c0.049,0.023,0.094,0.053,0.133,0.089v0.048
			c0.078-0.004,0.154,0.011,0.227,0.044c0.077,0.004,0.148,0.02,0.227,0.046v0.093h0.625v0.77h-1.435v-0.048
			c-0.058-0.027-0.117-0.042-0.183-0.044c-0.068-0.035-0.146-0.065-0.223-0.09V17.4c-0.037-0.031-0.086-0.046-0.135-0.044
			c-0.063-0.001-0.123-0.017-0.179-0.046v-0.04c-0.036-0.035-0.085-0.052-0.134-0.048c-0.063-0.028-0.121-0.061-0.178-0.089v-0.045
			L24.3,17.044c-0.022-0.028-0.054-0.045-0.09-0.048v-0.045c-0.049-0.022-0.094-0.052-0.134-0.088
			c-0.036-0.003-0.069-0.02-0.092-0.047v-0.09c-0.021-0.027-0.053-0.043-0.088-0.044c-0.021-0.028-0.057-0.046-0.09-0.048
			c-0.025-0.022-0.041-0.054-0.043-0.089L23.718,16.5c-0.001-0.035-0.018-0.067-0.044-0.09c-0.021-0.027-0.055-0.044-0.09-0.047
			v-0.048c-0.029-0.03-0.057-0.061-0.089-0.09v-0.047c-0.029-0.028-0.06-0.06-0.088-0.089l-0.046-0.048V16
			c-0.034-0.004-0.065-0.021-0.088-0.046v-0.047l-0.09-0.091v-0.044c0-0.031-0.031-0.047-0.091-0.047v-0.136h-0.221V15.5
			c0.003-0.022-0.013-0.043-0.034-0.047c-0.004,0-0.008,0-0.012,0c-0.003-0.034-0.02-0.066-0.043-0.09v-0.818
			c0.057,0,0.089-0.014,0.089-0.045v-1.863h-0.763v0.182c-0.151,0.032-0.313,0.062-0.493,0.091v0.046
			c-0.04,0.037-0.084,0.067-0.134,0.091L21.482,13.139L21.482,13.139z M10.339,32.639c0.078-0.004,0.156,0.012,0.228,0.045v-0.049
			c-0.103-0.033-0.209-0.051-0.315-0.049L10.339,32.639z"/>
	</defs>
	<clipPath id="SVGID_2_">
		<use xlink:href="#SVGID_1_"  overflow="visible"/>
	</clipPath>
	<g clip-path="url(#SVGID_2_)">
		<g>
			
				<linearGradient id="SVGID_3_" gradientUnits="userSpaceOnUse" x1="-856.3096" y1="1.4854" x2="-795.2754" y2="1.4854" gradientTransform="matrix(-1 0 0 -1 -798.7783 19.3398)">
				<stop  offset="0" style="stop-color:#F2E2C8;stop-opacity:0"/>
				<stop  offset="0.9194" style="stop-color:#FEB243;stop-opacity:0.8"/>
			</linearGradient>
			<path fill="url(#SVGID_3_)" d="M31.639,14.427l1.59,0.925c-0.153,0.737,1.711,2.339,1.711,2.339l-11.217-5.925l-8.538,1.444
				l23.642,10.513l-12.22-7.25l15.816,5.209l6.834,4.584l2.037-4.405l-2.982,0.026L31.639,14.427z M16.224,21.607
				c-0.207-1.035-2-1.394-2-1.394l-3.915-1.305l-0.695-0.608c-0.338-0.497-2.871-1.827-2.871-1.827
				c0.84,0.457,6.263,1.392,6.263,1.392c1.398,1.379,4.523,1.217,4.523,1.217l-4.872-2.609l-7.306-4.001l-0.958-0.087l-0.285-2.102
				L2.454,9.953l-5.957,8.936L3.022,33.37l16.308-0.252l-7.456-4.64l5.568,0.436l7.844,4.204l6.235-5.165l-7.082-0.666
				C21.087,23.922,16.224,21.607,16.224,21.607z M38.016,12.197l-1.158-0.992l20.674,11.311l-2.74-5.875
				c-0.504-0.106-5.627-2.579-5.627-2.579c-1.807-0.362-5.734-2.906-5.734-2.906h-6.628L26.511,2.339l-1.958,3.134l8.293,5.302
				L38.016,12.197z"/>
		</g>
	</g>
</g>
</svg>
