<?xml version="1.0" encoding="utf-8"?>
<!-- Generator: Adobe Illustrator 16.0.0, SVG Export Plug-In . SVG Version: 6.00 Build 0)  -->
<!DOCTYPE svg PUBLIC "-//W3C//DTD SVG 1.1//EN" "http://www.w3.org/Graphics/SVG/1.1/DTD/svg11.dtd">
<svg version="1.1" id="case1" xmlns="http://www.w3.org/2000/svg" xmlns:xlink="http://www.w3.org/1999/xlink" x="0px" y="0px"
	 width="89.167px" height="36px" viewBox="0 0 89.167 36" enable-background="new 0 0 89.167 36" xml:space="preserve">
<linearGradient id="shape_1_" gradientUnits="userSpaceOnUse" x1="-124.583" y1="-2174.2021" x2="-41.5923" y2="-2174.2021" gradientTransform="matrix(1 0 0 -1 126.3398 -2159.9014)">
	<stop  offset="0" style="stop-color:#DC4A49"/>
	<stop  offset="0.3011" style="stop-color:#BE2126"/>
	<stop  offset="0.7419" style="stop-color:#E10414"/>
	<stop  offset="1" style="stop-color:#FEB243"/>
</linearGradient>
<path id="shape" fill="url(#shape_1_)" d="M6.246,24.486c-0.409-0.338-0.75-0.752-1.006-1.219
	C5.496,23.736,5.837,24.148,6.246,24.486 M7.906,23.345c-0.185,0.261-0.42,0.481-0.694,0.648c-0.245,0.284-0.591,0.461-0.966,0.493
	c0.375-0.032,0.721-0.209,0.966-0.493C7.486,23.826,7.721,23.605,7.906,23.345c0.012-0.028,0.017-0.057,0.016-0.086
	C7.922,23.288,7.918,23.316,7.906,23.345 M5.24,23.27c-0.199-0.379-0.424-0.758-0.657-1.141C4.816,22.512,5.035,22.891,5.24,23.27
	 M4.505,21.902l0.078,0.227L4.505,21.902z M48.458,21.902l0.008,0.053l0.033,0.177c0.229,0.382,0.465,0.761,0.694,1.14
	c0.234,0.479,0.578,0.896,1,1.225c0.158-0.021,0.313-0.063,0.455-0.123c-0.144,0.063-0.295,0.104-0.453,0.121
	c-0.424-0.323-0.766-0.741-1-1.225c-0.229-0.379-0.463-0.756-0.696-1.141L48.458,21.902 M4.505,21.893v0.01h0.001L4.505,21.893
	c0,0,0-0.002,0-0.004C4.505,21.891,4.505,21.891,4.505,21.893 M4.505,21.889v0.004V21.889 M4.505,21.886
	c0.001,0.001,0.001,0.001,0.001,0.003C4.505,21.887,4.505,21.886,4.505,21.886L4.505,21.886 M4.505,21.889c0,0,0-0.002,0-0.003
	C4.502,21.861,4.5,21.836,4.5,21.811C4.5,21.836,4.501,21.861,4.505,21.889 M4.5,21.811c0-0.047,0.007-0.092,0.02-0.136
	C4.506,21.719,4.5,21.764,4.5,21.811 M4.521,21.667c0.002-0.008,0.004-0.015,0.008-0.022C4.525,21.652,4.523,21.659,4.521,21.667
	 M7.713,22.092c0.106,0.378,0.176,0.766,0.207,1.157c-0.03-0.394-0.101-0.78-0.207-1.159c-0.074-0.477-0.19-0.947-0.347-1.404
	C7.523,21.143,7.639,21.613,7.713,22.092 M51.28,20.688c0.191,0.448,0.322,0.922,0.39,1.405c0.063,0.241,0.11,0.485,0.146,0.732
	c-0.006-0.052-0.015-0.103-0.021-0.153c-0.03-0.195-0.071-0.389-0.123-0.58C51.602,21.607,51.471,21.136,51.28,20.688L51.28,20.688
	c-0.028-0.093-0.067-0.182-0.11-0.267C51.21,20.506,51.25,20.595,51.28,20.688 M6.691,20.336c-0.002,0-0.002,0-0.002,0
	c-0.008,0.002-0.016,0.003-0.024,0.005c-0.005,0.001-0.011,0.002-0.017,0.004c-0.004,0-0.009,0.001-0.012,0.003
	c-0.01,0.002-0.021,0.004-0.031,0.006l0,0c-0.33,0.078-0.64,0.23-0.904,0.447c-0.326,0.215-0.642,0.42-0.935,0.618
	c-0.013,0.011-0.026,0.019-0.04,0.028c-0.035,0.021-0.072,0.048-0.107,0.07c-0.041,0.027-0.071,0.071-0.09,0.127
	c0.019-0.057,0.051-0.101,0.092-0.127c0.337-0.229,0.697-0.471,1.085-0.723c0.351-0.281,0.782-0.464,1.235-0.5
	C6.857,20.309,6.773,20.32,6.691,20.336 M6.941,20.302c0.116-0.017,0.232,0.025,0.311,0.113c-0.066-0.075-0.161-0.117-0.26-0.117
	C6.975,20.298,6.959,20.3,6.941,20.302 M50.856,20.302c-0.205,0.021-0.407,0.067-0.601,0.138c-0.006,0.002-0.012,0.006-0.021,0.014
	c-0.002,0.001-0.004,0.002-0.006,0.002c-0.144,0.053-0.271,0.111-0.396,0.189c0.312-0.188,0.653-0.304,1.021-0.338
	c0.114-0.021,0.237,0.021,0.313,0.114c-0.062-0.081-0.146-0.127-0.242-0.127C50.903,20.294,50.878,20.296,50.856,20.302
	 M48.035,18.861h-0.002l0,0c0.206,0.043,0.426,0.043,0.633-0.002c0.021-0.004,0.039-0.01,0.06-0.021
	C48.498,18.902,48.259,18.907,48.035,18.861 M48.033,18.861L48.033,18.861c-0.146-0.036-0.289-0.104-0.416-0.19
	C47.742,18.761,47.882,18.826,48.033,18.861 M47.612,18.67c-0.086-0.063-0.163-0.138-0.229-0.222
	C47.449,18.532,47.526,18.605,47.612,18.67 M51.242,16.731c-0.003,0-0.003,0-0.003,0.001L51.242,16.731
	c0.575-0.453,1.096-0.979,1.536-1.56C52.444,15.546,51.93,16.064,51.242,16.731 M52.778,15.172c0.002-0.001,0.002-0.002,0.005-0.003
	c0.166-0.218,0.321-0.443,0.471-0.675c0-0.001,0-0.001,0-0.001C53.104,14.727,52.946,14.953,52.778,15.172 M46.72,14.53
	c0,0.51,0.025,1.043,0.076,1.601c0.018,0.759,0.187,1.507,0.498,2.198c0.021,0.041,0.056,0.081,0.084,0.119
	c-0.028-0.038-0.062-0.077-0.084-0.119c-0.313-0.693-0.479-1.442-0.496-2.202v-0.001c-0.051-0.558-0.076-1.092-0.076-1.601
	l0.035-1.858L46.72,14.53z M46.757,12.667L46.757,12.667z M46.74,12.275c-0.002,0.131,0.004,0.261,0.018,0.392
	c-0.061-0.627,0.033-1.255,0.271-1.834C46.837,11.291,46.742,11.78,46.74,12.275 M47.296,10.271c-0.106,0.181-0.2,0.368-0.276,0.562
	C47.096,10.64,47.19,10.453,47.296,10.271c0.188-0.155,0.416-0.26,0.656-0.299c0.188,0.002,0.377,0.055,0.541,0.15
	c0.905,0.636,1.762,1.348,2.551,2.129c-0.789-0.781-1.646-1.493-2.551-2.129c-0.164-0.096-0.354-0.148-0.541-0.151
	C47.712,10.011,47.487,10.115,47.296,10.271 M6.437,8.637c0.072,0.072,0.17,0.112,0.272,0.11c0.046,0.021,0.096,0.032,0.146,0.032
	c0.174-0.006,0.313-0.145,0.317-0.315c0-0.001,0-0.001,0-0.002c0-0.005,0-0.01,0-0.016C7.176,8.43,7.18,8.413,7.185,8.393
	c0.006-0.023,0.01-0.05,0.018-0.078c-0.012,0.053-0.022,0.097-0.03,0.131c0.004,0.18-0.138,0.327-0.317,0.333
	c-0.05,0.001-0.1-0.011-0.146-0.032c-0.103,0.002-0.2-0.038-0.272-0.111l-1.816-0.91L6.437,8.637z M50.352,8.634
	c0,0.001,0.002,0.002,0.002,0.003l0.002,0.001c0.021,0.018,0.043,0.031,0.065,0.044c0.072,0.04,0.147,0.063,0.231,0.063
	c0.043,0.021,0.097,0.031,0.146,0.031c-0.049,0-0.096-0.011-0.144-0.031C50.546,8.743,50.44,8.705,50.352,8.634l-1.817-0.911
	L50.352,8.634z M48.535,7.723l-0.002-0.001c-0.025-0.008-0.056-0.018-0.078-0.031C48.479,7.704,48.503,7.715,48.535,7.723
	 M48.455,7.69c-0.004,0-0.004-0.001-0.006-0.002C48.451,7.689,48.451,7.69,48.455,7.69 M48.449,7.688
	c-0.003,0-0.003-0.001-0.005-0.002C48.446,7.688,48.446,7.688,48.449,7.688 M48.421,7.676c0.009,0.004,0.017,0.008,0.021,0.011
	C48.421,7.676,48.4,7.664,48.38,7.648C48.395,7.658,48.41,7.667,48.421,7.676 M4.621,7.725C4.496,7.684,4.386,7.603,4.31,7.495
	C4.386,7.604,4.496,7.684,4.621,7.725 M7.203,8.314c0.009-0.04,0.019-0.085,0.029-0.135c0.039-0.177,0.09-0.417,0.154-0.721
	C7.303,7.847,7.242,8.132,7.203,8.314 M4.31,7.495C4.228,7.429,4.173,7.336,4.158,7.231C4.172,7.336,4.228,7.43,4.31,7.495
	 M7.557,5.063C7.408,4.887,7.234,4.73,7.043,4.602C7.234,4.731,7.406,4.887,7.557,5.063 M6.787,4.419
	c0.097,0.058,0.171,0.119,0.256,0.183C6.965,4.544,6.898,4.488,6.816,4.435C6.805,4.429,6.797,4.424,6.787,4.419
	c-0.045-0.027-0.09-0.052-0.135-0.075C6.697,4.367,6.744,4.392,6.787,4.419 M4.894,5.595c-0.268,0.471-0.5,0.96-0.701,1.463
	C4.394,6.555,4.63,6.065,4.898,5.595C5.095,5.021,5.457,4.52,5.937,4.15C5.456,4.52,5.092,5.021,4.894,5.595 M48.803,5.593
	c-0.326,0.504-0.574,1.057-0.729,1.638c0.034,0.097,0.086,0.186,0.151,0.263c0.021,0.028,0.045,0.057,0.069,0.082
	c0.017,0.014,0.024,0.026,0.043,0.04c-0.041-0.036-0.08-0.076-0.11-0.12c-0.063-0.078-0.117-0.167-0.151-0.264
	c0.155-0.581,0.401-1.134,0.729-1.637C49,5.008,49.38,4.503,49.891,4.151c0.287,0.025,0.563,0.117,0.813,0.269
	c0.133,0.067,0.258,0.146,0.369,0.237c-0.064-0.054-0.137-0.102-0.207-0.146c-0.055-0.033-0.105-0.063-0.162-0.092
	c-0.246-0.151-0.523-0.243-0.814-0.269C49.38,4.502,49.003,5.008,48.803,5.593 M7.252,20.415c0.021,0.094,0.063,0.185,0.115,0.267
	C7.314,20.6,7.273,20.51,7.252,20.415c0.021,0.095,0.063,0.187,0.115,0.267c0.156,0.457,0.272,0.93,0.347,1.406
	c0.106,0.379,0.177,0.766,0.207,1.158c0.001,0.004,0.001,0.009,0.001,0.013v-0.001c0-0.004,0-0.009-0.001-0.013
	c0.001,0.004,0.001,0.009,0.001,0.013v0.001c0.001,0.03-0.004,0.06-0.016,0.087c-0.185,0.262-0.42,0.481-0.694,0.648
	c-0.245,0.283-0.591,0.461-0.966,0.494c-0.409-0.34-0.75-0.752-1.006-1.219c-0.205-0.379-0.424-0.756-0.657-1.146L4.505,21.9
	c-0.001-0.002,0-0.008,0-0.01V21.88c-0.013-0.067-0.007-0.146,0.012-0.219c0.019-0.063,0.054-0.104,0.101-0.146
	c0.002-0.002,0.002-0.002,0.002-0.002c0.002,0,0.002-0.003,0.002-0.003c0.035-0.021,0.07-0.05,0.105-0.069
	c0.014-0.01,0.027-0.021,0.04-0.025c0.294-0.199,0.608-0.407,0.939-0.623c0.264-0.215,0.571-0.363,0.899-0.439l0,0
	c0.01-0.002,0.021-0.006,0.031-0.01c0.003,0,0.008,0,0.012-0.002c0.006-0.002,0.012-0.003,0.017-0.004
	c0.009-0.002,0.017-0.003,0.024-0.005c0,0,0,0,0.002,0c0.082-0.019,0.166-0.024,0.25-0.034C7.056,20.285,7.173,20.326,7.252,20.415
	 M4.088,18.861c-0.293-0.079-0.544-0.271-0.7-0.532c-0.312-0.692-0.481-1.44-0.5-2.199c-0.075-0.53-0.114-1.064-0.116-1.601
	l0.038-1.862c-0.063-0.839,0.14-1.677,0.578-2.396c0.171-0.159,0.386-0.264,0.616-0.3c0.203-0.002,0.404,0.05,0.58,0.152
	c0.888,0.646,1.729,1.357,2.514,2.126c0.838,0.635,1.58,1.39,2.2,2.241c-0.538,0.854-1.217,1.612-2.007,2.241
	c-0.723,0.793-1.541,1.496-2.434,2.091c-0.147,0.047-0.302,0.07-0.455,0.07C4.297,18.895,4.191,18.883,4.088,18.861 M7.632,5.277
	c0.016,0.098,0.023,0.195,0.023,0.296c0,0.014,0,0.027,0,0.042c0-0.015,0-0.028,0-0.042C7.656,5.473,7.648,5.375,7.632,5.277
	 M5.937,4.15c0.192,0.014,0.377,0.056,0.555,0.123c0.102,0.04,0.201,0.088,0.295,0.145c0.011,0.006,0.02,0.011,0.029,0.017
	C6.9,4.489,6.966,4.544,7.042,4.598c0.192,0.131,0.366,0.287,0.516,0.465c0.038,0.066,0.063,0.14,0.073,0.215
	c0.017,0.111,0.026,0.225,0.024,0.338c-0.008,0.35-0.043,0.699-0.101,1.046C7.491,6.964,7.434,7.229,7.385,7.46
	c0.049-0.222,0.103-0.477,0.164-0.763C7.551,6.685,7.554,6.672,7.557,6.66c0.058-0.347,0.091-0.695,0.101-1.045
	c-0.01,0.35-0.043,0.699-0.101,1.046C7.554,6.673,7.551,6.685,7.549,6.697C7.408,7.381,7.299,7.875,7.232,8.18
	C7.213,8.266,7.197,8.337,7.185,8.393C7.18,8.413,7.176,8.432,7.172,8.448c0,0.005,0,0.009,0,0.014c0,0.001,0,0.001,0,0.002
	c-0.001,0.045-0.013,0.089-0.031,0.13c-0.077,0.162-0.27,0.23-0.431,0.154C6.607,8.75,6.51,8.71,6.438,8.638L4.621,7.725
	C4.496,7.684,4.386,7.604,4.31,7.495C4.228,7.43,4.172,7.336,4.158,7.231c-0.002-0.06,0.009-0.118,0.031-0.174
	c0.2-0.503,0.435-0.992,0.7-1.463C5.089,5.021,5.453,4.519,5.937,4.15c0.248,0.019,0.491,0.083,0.715,0.193
	c-0.053-0.025-0.105-0.049-0.16-0.07C6.314,4.206,6.129,4.164,5.937,4.15 M5.777,2.402c-0.746,0.914-1.369,1.923-1.854,3
	C3.154,6.715,2.555,8.121,2.144,9.585c-0.234,1.075-0.363,2.171-0.387,3.271v1.746c0.025,0.759,0.064,1.557,0.115,2.394
	c0.039,1.154,0.261,2.297,0.658,3.384c0.541,1.063,1.045,2.036,1.509,2.929c0.901,1.729,1.571,2.696,2.009,2.924
	c0.09,0.041,0.188,0.063,0.291,0.065h0.044c0.396-0.01,0.89-0.284,1.481-0.827c0.436-0.41,0.826-0.867,1.162-1.363
	c0.311-0.412,0.437-0.938,0.349-1.439c-0.522-0.865-0.876-1.814-1.046-2.813c-0.043-0.611,0.009-1.229,0.154-1.83
	c0.135-0.621,0.569-1.135,1.16-1.368c0.674-0.356,1.444-0.488,2.199-0.379c0.841,0.188,1.592,0.657,2.127,1.332
	c0.503,0.45,0.898,1.009,1.158,1.633c0.027,0.195,0.076,0.654,0.154,1.365c0.058,0.371,0.135,0.738,0.234,1.104
	c0.041,0.114,0.123,0.209,0.23,0.27l0.31-0.188c0.175-0.188,0.306-0.403,0.388-0.646c0.125-0.209,0.205-0.438,0.234-0.688
	c0.241-0.167,0.521-0.271,0.813-0.299l0.307-0.038c0.258-0.021,0.529-0.063,0.809-0.114c0.209-0.05,1.332-0.147,3.367-0.3
	c2.45-0.201,4.809-0.491,7.074-0.874c2.834-0.497,5.589-1.364,8.195-2.582c1.184-0.536,2.371-1.132,3.556-1.792
	c-0.237-0.255-0.508-0.475-0.808-0.652c-0.334-0.176-0.785-0.443-1.354-0.799c-0.436-0.275-0.9-0.545-1.389-0.8
	c-1.318-0.719-2.721-1.268-4.176-1.633c-0.67-0.155-1.493-0.33-2.476-0.533c-1.082-0.2-1.764-0.343-2.046-0.42
	c-2.016-0.372-4.059-0.575-6.109-0.606l-4.367-0.27c0-0.101-0.101-0.149-0.307-0.149h-0.354c-0.182-0.019-0.354-0.084-0.5-0.19
	c-0.053-0.1-0.219-0.392-0.5-0.873c-0.285-0.432-0.442-0.659-0.467-0.685c-0.065,0-0.131,0.015-0.191,0.043
	C15.67,6.99,15.615,7.11,15.602,7.238L15.289,8.75c-0.063,0.575-0.208,1.139-0.427,1.675c-0.403,0.832-1.049,1.523-1.854,1.981
	c-0.48,0.311-1.021,0.518-1.587,0.604c-0.405,0.044-0.817-0.008-1.2-0.151c-0.596-0.204-1.136-0.542-1.583-0.986
	c-0.229-0.304-0.388-0.654-0.464-1.027c-0.023-0.28-0.053-0.758-0.08-1.445C8.13,8.806,8.288,8.224,8.559,7.693
	C8.717,7.305,8.95,6.814,9.254,6.206c0.133-0.244,0.188-0.524,0.154-0.8c-0.066-0.207-0.172-0.4-0.309-0.568
	C8.633,4.076,8.017,3.416,7.286,2.9C6.759,2.5,6.353,2.303,6.068,2.303C5.951,2.304,5.855,2.337,5.777,2.402 M50.856,20.302
	c0.117-0.03,0.24,0.017,0.313,0.114c0.043,0.087,0.082,0.175,0.11,0.266c0.193,0.448,0.322,0.922,0.392,1.406
	c0.052,0.192,0.091,0.387,0.121,0.584c0.035,0.223,0.062,0.447,0.065,0.673c-0.155,0.195-0.342,0.366-0.549,0.507
	c0.207-0.141,0.394-0.311,0.547-0.506c-0.006-0.175-0.021-0.348-0.045-0.521c0.021,0.173,0.037,0.346,0.043,0.521
	c-0.155,0.195-0.34,0.366-0.549,0.508c-0.062,0.045-0.117,0.09-0.187,0.146c-0.134,0.16-0.291,0.286-0.476,0.371
	c0.164-0.077,0.313-0.188,0.438-0.328c0.014-0.02,0.021-0.025,0.037-0.043c0,0,0,0,0-0.001l0,0c0.008-0.006,0.018-0.017,0.021-0.021
	c0.06-0.045,0.106-0.086,0.161-0.123c-0.055,0.041-0.104,0.08-0.161,0.123c-0.011,0.006-0.019,0.017-0.021,0.021
	c-0.016,0.017-0.021,0.024-0.037,0.044c-0.229,0.26-0.547,0.421-0.896,0.451l0,0l0,0c-0.424-0.323-0.77-0.741-1-1.223
	c-0.229-0.379-0.463-0.758-0.701-1.142l-0.023-0.177l-0.01-0.055c-0.063-0.131-0.033-0.282,0.07-0.381
	c-0.104,0.1-0.135,0.25-0.07,0.381c-0.063-0.131-0.031-0.282,0.072-0.381c0.363-0.229,0.727-0.474,1.084-0.726
	c0.072-0.058,0.146-0.104,0.227-0.153c-0.041,0.022-0.082,0.053-0.123,0.08c-0.029,0.021-0.063,0.047-0.097,0.068
	c-0.358,0.252-0.724,0.493-1.089,0.727c0.365-0.229,0.729-0.475,1.084-0.727c0.033-0.021,0.063-0.049,0.102-0.068
	c0.162-0.111,0.336-0.205,0.521-0.273c0.002,0,0.004-0.002,0.006-0.004c0.007-0.002,0.013-0.004,0.019-0.006
	C50.449,20.368,50.651,20.322,50.856,20.302 M47.296,10.271c0.188-0.156,0.414-0.26,0.656-0.3c0.188,0.003,0.377,0.054,0.541,0.15
	c0.903,0.638,1.76,1.349,2.549,2.13c0.187,0.164,0.354,0.32,0.519,0.468c-0.16-0.146-0.332-0.303-0.517-0.467
	c0.185,0.165,0.354,0.321,0.519,0.468c0.651,0.496,1.226,1.096,1.688,1.773h0.002c0-0.001,0-0.002-0.002-0.002
	c-0.465-0.68-1.032-1.277-1.688-1.774c0.651,0.497,1.226,1.095,1.688,1.773c0,0,0,0,0,0.001c0.002,0,0.002,0,0.002,0.001
	c0,0,0,0,0,0.001c0.011,0.09-0.146,0.314-0.474,0.676c-0.442,0.582-0.963,1.108-1.541,1.563c-0.713,0.74-1.483,1.423-2.313,2.034
	c0.826-0.612,1.601-1.292,2.312-2.034l0,0c-0.715,0.74-1.483,1.423-2.313,2.034c-0.039,0.024-0.079,0.043-0.123,0.063
	c-0.024,0.009-0.055,0.017-0.081,0.021c0.028-0.009,0.059-0.017,0.086-0.021c-0.048,0.015-0.097,0.022-0.146,0.032
	c-0.207,0.05-0.429,0.051-0.638,0.006c-0.146-0.033-0.291-0.104-0.416-0.188c-0.127-0.093-0.229-0.208-0.313-0.343
	c0,0,0-0.001-0.002-0.001c0,0,0,0,0-0.001c-0.313-0.691-0.479-1.44-0.498-2.199c-0.051-0.56-0.076-1.094-0.076-1.6l0.037-1.862
	c-0.019-0.13-0.021-0.261-0.021-0.392C46.742,11.571,46.932,10.878,47.296,10.271 M51.471,5.063c0.047,0.07,0.075,0.148,0.09,0.231
	C51.546,5.211,51.518,5.133,51.471,5.063 M48.8,5.592c0.197-0.586,0.576-1.092,1.084-1.444c0.289,0.025,0.564,0.117,0.814,0.269
	c0.061,0.029,0.111,0.06,0.168,0.094c0.232,0.146,0.438,0.333,0.604,0.553c-0.115-0.152-0.25-0.289-0.396-0.406
	c0.146,0.116,0.279,0.253,0.395,0.404c0.048,0.069,0.078,0.148,0.091,0.231c0.047,0.458,0.019,0.92-0.091,1.367
	c-0.204,0.964-0.319,1.56-0.346,1.786c0.004,0.18-0.146,0.326-0.319,0.33c0,0-0.003,0-0.005,0c0.002,0,0.005,0,0.007,0
	c0.182-0.004,0.321-0.15,0.319-0.33c0.021-0.229,0.142-0.822,0.347-1.786c0.106-0.446,0.141-0.907,0.096-1.364
	c0.047,0.458,0.019,0.919-0.092,1.367c-0.203,0.964-0.317,1.559-0.347,1.786c0,0.05-0.017,0.1-0.03,0.145
	c-0.076,0.162-0.271,0.231-0.435,0.155c-0.084-0.001-0.168-0.024-0.242-0.066C50.4,8.67,50.376,8.656,50.356,8.638l-1.817-0.913
	c-0.039-0.011-0.076-0.026-0.11-0.048c-0.019-0.009-0.027-0.019-0.046-0.03c-0.016-0.01-0.022-0.02-0.039-0.03
	c0.017,0.011,0.025,0.021,0.041,0.032c-0.026-0.021-0.059-0.047-0.084-0.072c-0.022-0.026-0.051-0.055-0.069-0.083
	c-0.063-0.078-0.117-0.167-0.149-0.264c0.155-0.581,0.403-1.133,0.731-1.636L48.8,5.592z M50.003,2.303
	c-0.108,0.003-0.2,0.036-0.271,0.1c-0.746,0.913-1.371,1.923-1.854,3c-0.768,1.319-1.377,2.723-1.813,4.184
	c-0.207,1.078-0.323,2.171-0.353,3.27v1.746c0,0.759,0.037,1.557,0.113,2.394c0.014,1.159,0.235,2.305,0.657,3.384
	c0.519,1.064,1.021,2.036,1.511,2.928c0.9,1.729,1.57,2.697,2.01,2.924c0.09,0.041,0.188,0.063,0.291,0.066h0.043
	c0.395-0.01,0.875-0.285,1.445-0.826c0.438-0.421,0.842-0.877,1.199-1.365c0.313-0.402,0.434-0.938,0.309-1.438
	c-0.498-0.87-0.84-1.821-1.006-2.813c-0.047-0.607-0.008-1.228,0.113-1.829c0.146-0.63,0.596-1.145,1.199-1.368
	c0.66-0.354,1.422-0.486,2.16-0.379c0.854,0.178,1.621,0.646,2.164,1.332c0.488,0.456,0.871,1.014,1.123,1.633
	c0.088,0.448,0.148,0.905,0.188,1.364c0.031,0.375,0.106,0.746,0.231,1.104c0.041,0.114,0.121,0.21,0.229,0.271l0.271-0.189
	c0.187-0.188,0.328-0.404,0.429-0.646c0.104-0.221,0.187-0.446,0.231-0.687c0.231-0.179,0.521-0.28,0.813-0.299l0.313-0.037
	c0.229-0.022,0.5-0.063,0.813-0.115c0.207-0.049,1.328-0.146,3.358-0.299c2.449-0.201,4.8-0.491,7.037-0.877
	c4.151-0.771,8.146-2.25,11.789-4.376c-0.252-0.255-0.539-0.474-0.854-0.648c-0.313-0.176-0.746-0.443-1.313-0.799
	c-1.729-1.097-3.623-1.917-5.606-2.43c-0.646-0.155-1.468-0.33-2.472-0.533c-1.06-0.2-1.739-0.343-2.051-0.419
	c-2.002-0.373-4.033-0.575-6.07-0.608l-4.36-0.27c-0.058-0.117-0.187-0.18-0.312-0.15h-0.39c-0.168-0.021-0.325-0.088-0.465-0.189
	c-0.053-0.101-0.222-0.393-0.5-0.873c-0.274-0.438-0.435-0.667-0.459-0.691c-0.063-0.003-0.133,0.01-0.19,0.037
	c-0.084,0.095-0.142,0.216-0.151,0.344l-0.313,1.519c-0.089,0.57-0.229,1.131-0.429,1.675c-0.401,0.833-1.056,1.524-1.854,1.981
	c-0.492,0.316-1.053,0.521-1.627,0.604c-0.396,0.045-0.789-0.008-1.158-0.151c-0.596-0.204-1.143-0.542-1.584-0.986
	c-0.25-0.292-0.408-0.648-0.463-1.027c-0.063-0.479-0.096-0.962-0.078-1.445c0.033-0.595,0.188-1.178,0.465-1.708
	c0.154-0.381,0.389-0.878,0.697-1.483c0.137-0.244,0.188-0.524,0.15-0.8c-0.063-0.208-0.17-0.401-0.307-0.571
	c-0.471-0.763-1.088-1.423-1.818-1.939c-0.52-0.388-0.922-0.585-1.205-0.593h-0.025V2.303H50.003z"/>
<g>
	<defs>
		<path id="SVGID_1_" d="M6.246,24.486c-0.409-0.338-0.75-0.752-1.006-1.219C5.496,23.736,5.837,24.148,6.246,24.486 M7.906,23.345
			c-0.185,0.261-0.42,0.481-0.694,0.648c-0.245,0.284-0.591,0.461-0.966,0.493c0.375-0.032,0.721-0.209,0.966-0.493
			C7.486,23.826,7.721,23.605,7.906,23.345c0.012-0.028,0.017-0.057,0.016-0.086C7.922,23.288,7.918,23.316,7.906,23.345
			 M5.24,23.27c-0.199-0.379-0.424-0.758-0.657-1.141C4.816,22.512,5.035,22.891,5.24,23.27 M4.505,21.902l0.078,0.227L4.505,21.902
			z M48.458,21.902l0.008,0.053l0.033,0.177c0.229,0.382,0.465,0.761,0.694,1.14c0.234,0.479,0.578,0.896,1,1.225
			c0.158-0.021,0.313-0.063,0.455-0.123c-0.144,0.063-0.295,0.104-0.453,0.121c-0.424-0.323-0.766-0.741-1-1.225
			c-0.229-0.379-0.463-0.756-0.696-1.141L48.458,21.902 M4.505,21.893v0.01h0.001L4.505,21.893c0,0,0-0.002,0-0.004
			C4.505,21.891,4.505,21.891,4.505,21.893 M4.505,21.889v0.004V21.889 M4.505,21.886c0.001,0.001,0.001,0.001,0.001,0.003
			C4.505,21.887,4.505,21.886,4.505,21.886L4.505,21.886 M4.505,21.889c0,0,0-0.002,0-0.003C4.502,21.861,4.5,21.836,4.5,21.811
			C4.5,21.836,4.501,21.861,4.505,21.889 M4.5,21.811c0-0.047,0.007-0.092,0.02-0.136C4.506,21.719,4.5,21.764,4.5,21.811
			 M4.521,21.667c0.002-0.008,0.004-0.015,0.008-0.022C4.525,21.652,4.523,21.659,4.521,21.667 M7.713,22.092
			c0.106,0.378,0.176,0.766,0.207,1.157c-0.03-0.394-0.101-0.78-0.207-1.159c-0.074-0.477-0.19-0.947-0.347-1.404
			C7.523,21.143,7.639,21.613,7.713,22.092 M51.28,20.688c0.191,0.448,0.322,0.922,0.39,1.405c0.063,0.241,0.11,0.485,0.146,0.732
			c-0.006-0.052-0.015-0.103-0.021-0.153c-0.03-0.195-0.071-0.389-0.123-0.58C51.602,21.607,51.471,21.136,51.28,20.688
			L51.28,20.688c-0.028-0.093-0.067-0.182-0.11-0.267C51.21,20.506,51.25,20.595,51.28,20.688 M6.691,20.336
			c-0.002,0-0.002,0-0.002,0c-0.008,0.002-0.016,0.003-0.024,0.005c-0.005,0.001-0.011,0.002-0.017,0.004
			c-0.004,0-0.009,0.001-0.012,0.003c-0.01,0.002-0.021,0.004-0.031,0.006l0,0c-0.33,0.078-0.64,0.23-0.904,0.447
			c-0.326,0.215-0.642,0.42-0.935,0.618c-0.013,0.011-0.026,0.019-0.04,0.028c-0.035,0.021-0.072,0.048-0.107,0.07
			c-0.041,0.027-0.071,0.071-0.09,0.127c0.019-0.057,0.051-0.101,0.092-0.127c0.337-0.229,0.697-0.471,1.085-0.723
			c0.351-0.281,0.782-0.464,1.235-0.5C6.857,20.309,6.773,20.32,6.691,20.336 M6.941,20.302c0.116-0.017,0.232,0.025,0.311,0.113
			c-0.066-0.075-0.161-0.117-0.26-0.117C6.975,20.298,6.959,20.3,6.941,20.302 M50.856,20.302c-0.205,0.021-0.407,0.067-0.601,0.138
			c-0.006,0.002-0.012,0.006-0.021,0.014c-0.002,0.001-0.004,0.002-0.006,0.002c-0.144,0.053-0.271,0.111-0.396,0.189
			c0.312-0.188,0.653-0.304,1.021-0.338c0.114-0.021,0.237,0.021,0.313,0.114c-0.062-0.081-0.146-0.127-0.242-0.127
			C50.903,20.294,50.878,20.296,50.856,20.302 M48.035,18.861h-0.002l0,0c0.206,0.043,0.426,0.043,0.633-0.002
			c0.021-0.004,0.039-0.01,0.06-0.021C48.498,18.902,48.259,18.907,48.035,18.861 M48.033,18.861L48.033,18.861
			c-0.146-0.036-0.289-0.104-0.416-0.19C47.742,18.761,47.882,18.826,48.033,18.861 M47.612,18.67
			c-0.086-0.063-0.163-0.138-0.229-0.222C47.449,18.532,47.526,18.605,47.612,18.67 M51.242,16.731c-0.003,0-0.003,0-0.003,0.001
			L51.242,16.731c0.575-0.453,1.096-0.979,1.536-1.56C52.444,15.546,51.93,16.064,51.242,16.731 M52.778,15.172
			c0.002-0.001,0.002-0.002,0.005-0.003c0.166-0.218,0.321-0.443,0.471-0.675c0-0.001,0-0.001,0-0.001
			C53.104,14.727,52.946,14.953,52.778,15.172 M46.72,14.53c0,0.51,0.025,1.043,0.076,1.601c0.018,0.759,0.187,1.507,0.498,2.198
			c0.021,0.041,0.056,0.081,0.084,0.119c-0.028-0.038-0.062-0.077-0.084-0.119c-0.313-0.693-0.479-1.442-0.496-2.202v-0.001
			c-0.051-0.558-0.076-1.092-0.076-1.601l0.035-1.858L46.72,14.53z M46.757,12.667L46.757,12.667z M46.74,12.275
			c-0.002,0.131,0.004,0.261,0.018,0.392c-0.061-0.627,0.033-1.255,0.271-1.834C46.837,11.291,46.742,11.78,46.74,12.275
			 M47.296,10.271c-0.106,0.181-0.2,0.368-0.276,0.562C47.096,10.64,47.19,10.453,47.296,10.271c0.188-0.155,0.416-0.26,0.656-0.299
			c0.188,0.002,0.377,0.055,0.541,0.15c0.905,0.636,1.762,1.348,2.551,2.129c-0.789-0.781-1.646-1.493-2.551-2.129
			c-0.164-0.096-0.354-0.148-0.541-0.151C47.712,10.011,47.487,10.115,47.296,10.271 M6.437,8.637
			c0.072,0.072,0.17,0.112,0.272,0.11c0.046,0.021,0.096,0.032,0.146,0.032c0.174-0.006,0.313-0.145,0.317-0.315
			c0-0.001,0-0.001,0-0.002c0-0.005,0-0.01,0-0.016C7.176,8.43,7.18,8.413,7.185,8.393c0.006-0.023,0.01-0.05,0.018-0.078
			c-0.012,0.053-0.022,0.097-0.03,0.131c0.004,0.18-0.138,0.327-0.317,0.333c-0.05,0.001-0.1-0.011-0.146-0.032
			c-0.103,0.002-0.2-0.038-0.272-0.111l-1.816-0.91L6.437,8.637z M50.352,8.634c0,0.001,0.002,0.002,0.002,0.003l0.002,0.001
			c0.021,0.018,0.043,0.031,0.065,0.044c0.072,0.04,0.147,0.063,0.231,0.063c0.043,0.021,0.097,0.031,0.146,0.031
			c-0.049,0-0.096-0.011-0.144-0.031C50.546,8.743,50.44,8.705,50.352,8.634l-1.817-0.911L50.352,8.634z M48.535,7.723l-0.002-0.001
			c-0.025-0.008-0.056-0.018-0.078-0.031C48.479,7.704,48.503,7.715,48.535,7.723 M48.455,7.69c-0.004,0-0.004-0.001-0.006-0.002
			C48.451,7.689,48.451,7.69,48.455,7.69 M48.449,7.688c-0.003,0-0.003-0.001-0.005-0.002C48.446,7.688,48.446,7.688,48.449,7.688
			 M48.421,7.676c0.009,0.004,0.017,0.008,0.021,0.011C48.421,7.676,48.4,7.664,48.38,7.648C48.395,7.658,48.41,7.667,48.421,7.676
			 M4.621,7.725C4.496,7.684,4.386,7.603,4.31,7.495C4.386,7.604,4.496,7.684,4.621,7.725 M7.203,8.314
			c0.009-0.04,0.019-0.085,0.029-0.135c0.039-0.177,0.09-0.417,0.154-0.721C7.303,7.847,7.242,8.132,7.203,8.314 M4.31,7.495
			C4.228,7.429,4.173,7.336,4.158,7.231C4.172,7.336,4.228,7.43,4.31,7.495 M7.557,5.063C7.408,4.887,7.234,4.73,7.043,4.602
			C7.234,4.731,7.406,4.887,7.557,5.063 M6.787,4.419c0.097,0.058,0.171,0.119,0.256,0.183C6.965,4.544,6.898,4.488,6.816,4.435
			C6.805,4.429,6.797,4.424,6.787,4.419c-0.045-0.027-0.09-0.052-0.135-0.075C6.697,4.367,6.744,4.392,6.787,4.419 M4.894,5.595
			c-0.268,0.471-0.5,0.96-0.701,1.463C4.394,6.555,4.63,6.065,4.898,5.595C5.095,5.021,5.457,4.52,5.937,4.15
			C5.456,4.52,5.092,5.021,4.894,5.595 M48.803,5.593c-0.326,0.504-0.574,1.057-0.729,1.638c0.034,0.097,0.086,0.186,0.151,0.263
			c0.021,0.028,0.045,0.057,0.069,0.082c0.017,0.014,0.024,0.026,0.043,0.04c-0.041-0.036-0.08-0.076-0.11-0.12
			c-0.063-0.078-0.117-0.167-0.151-0.264c0.155-0.581,0.401-1.134,0.729-1.637C49,5.008,49.38,4.503,49.891,4.151
			c0.287,0.025,0.563,0.117,0.813,0.269c0.133,0.067,0.258,0.146,0.369,0.237c-0.064-0.054-0.137-0.102-0.207-0.146
			c-0.055-0.033-0.105-0.063-0.162-0.092c-0.246-0.151-0.523-0.243-0.814-0.269C49.38,4.502,49.003,5.008,48.803,5.593
			 M7.252,20.415c0.021,0.094,0.063,0.185,0.115,0.267C7.314,20.6,7.273,20.51,7.252,20.415c0.021,0.095,0.063,0.187,0.115,0.267
			c0.156,0.457,0.272,0.93,0.347,1.406c0.106,0.379,0.177,0.766,0.207,1.158c0.001,0.004,0.001,0.009,0.001,0.013v-0.001
			c0-0.004,0-0.009-0.001-0.013c0.001,0.004,0.001,0.009,0.001,0.013v0.001c0.001,0.03-0.004,0.06-0.016,0.087
			c-0.185,0.262-0.42,0.481-0.694,0.648c-0.245,0.283-0.591,0.461-0.966,0.494c-0.409-0.34-0.75-0.752-1.006-1.219
			c-0.205-0.379-0.424-0.756-0.657-1.146L4.505,21.9c-0.001-0.002,0-0.008,0-0.01V21.88c-0.013-0.067-0.007-0.146,0.012-0.219
			c0.019-0.063,0.054-0.104,0.101-0.146c0.002-0.002,0.002-0.002,0.002-0.002c0.002,0,0.002-0.003,0.002-0.003
			c0.035-0.021,0.07-0.05,0.105-0.069c0.014-0.01,0.027-0.021,0.04-0.025c0.294-0.199,0.608-0.407,0.939-0.623
			c0.264-0.215,0.571-0.363,0.899-0.439l0,0c0.01-0.002,0.021-0.006,0.031-0.01c0.003,0,0.008,0,0.012-0.002
			c0.006-0.002,0.012-0.003,0.017-0.004c0.009-0.002,0.017-0.003,0.024-0.005c0,0,0,0,0.002,0c0.082-0.019,0.166-0.024,0.25-0.034
			C7.056,20.285,7.173,20.326,7.252,20.415 M4.088,18.861c-0.293-0.079-0.544-0.271-0.7-0.532c-0.312-0.692-0.481-1.44-0.5-2.199
			c-0.075-0.53-0.114-1.064-0.116-1.601l0.038-1.862c-0.063-0.839,0.14-1.677,0.578-2.396c0.171-0.159,0.386-0.264,0.616-0.3
			c0.203-0.002,0.404,0.05,0.58,0.152c0.888,0.646,1.729,1.357,2.514,2.126c0.838,0.635,1.58,1.39,2.2,2.241
			c-0.538,0.854-1.217,1.612-2.007,2.241c-0.723,0.793-1.541,1.496-2.434,2.091c-0.147,0.047-0.302,0.07-0.455,0.07
			C4.297,18.895,4.191,18.883,4.088,18.861 M7.632,5.277c0.016,0.098,0.023,0.195,0.023,0.296c0,0.014,0,0.027,0,0.042
			c0-0.015,0-0.028,0-0.042C7.656,5.473,7.648,5.375,7.632,5.277 M5.937,4.15c0.192,0.014,0.377,0.056,0.555,0.123
			c0.102,0.04,0.201,0.088,0.295,0.145c0.011,0.006,0.02,0.011,0.029,0.017C6.9,4.489,6.966,4.544,7.042,4.598
			c0.192,0.131,0.366,0.287,0.516,0.465c0.038,0.066,0.063,0.14,0.073,0.215c0.017,0.111,0.026,0.225,0.024,0.338
			c-0.008,0.35-0.043,0.699-0.101,1.046C7.491,6.964,7.434,7.229,7.385,7.46c0.049-0.222,0.103-0.477,0.164-0.763
			C7.551,6.685,7.554,6.672,7.557,6.66c0.058-0.347,0.091-0.695,0.101-1.045c-0.01,0.35-0.043,0.699-0.101,1.046
			C7.554,6.673,7.551,6.685,7.549,6.697C7.408,7.381,7.299,7.875,7.232,8.18C7.213,8.266,7.197,8.337,7.185,8.393
			C7.18,8.413,7.176,8.432,7.172,8.448c0,0.005,0,0.009,0,0.014c0,0.001,0,0.001,0,0.002c-0.001,0.045-0.013,0.089-0.031,0.13
			c-0.077,0.162-0.27,0.23-0.431,0.154C6.607,8.75,6.51,8.71,6.438,8.638L4.621,7.725C4.496,7.684,4.386,7.604,4.31,7.495
			C4.228,7.43,4.172,7.336,4.158,7.231c-0.002-0.06,0.009-0.118,0.031-0.174c0.2-0.503,0.435-0.992,0.7-1.463
			C5.089,5.021,5.453,4.519,5.937,4.15c0.248,0.019,0.491,0.083,0.715,0.193c-0.053-0.025-0.105-0.049-0.16-0.07
			C6.314,4.206,6.129,4.164,5.937,4.15 M5.777,2.402c-0.746,0.914-1.369,1.923-1.854,3C3.154,6.715,2.555,8.121,2.144,9.585
			c-0.234,1.075-0.363,2.171-0.387,3.271v1.746c0.025,0.759,0.064,1.557,0.115,2.394c0.039,1.154,0.261,2.297,0.658,3.384
			c0.541,1.063,1.045,2.036,1.509,2.929c0.901,1.729,1.571,2.696,2.009,2.924c0.09,0.041,0.188,0.063,0.291,0.065h0.044
			c0.396-0.01,0.89-0.284,1.481-0.827c0.436-0.41,0.826-0.867,1.162-1.363c0.311-0.412,0.437-0.938,0.349-1.439
			c-0.522-0.865-0.876-1.814-1.046-2.813c-0.043-0.611,0.009-1.229,0.154-1.83c0.135-0.621,0.569-1.135,1.16-1.368
			c0.674-0.356,1.444-0.488,2.199-0.379c0.841,0.188,1.592,0.657,2.127,1.332c0.503,0.45,0.898,1.009,1.158,1.633
			c0.027,0.195,0.076,0.654,0.154,1.365c0.058,0.371,0.135,0.738,0.234,1.104c0.041,0.114,0.123,0.209,0.23,0.27l0.31-0.188
			c0.175-0.188,0.306-0.403,0.388-0.646c0.125-0.209,0.205-0.438,0.234-0.688c0.241-0.167,0.521-0.271,0.813-0.299l0.307-0.038
			c0.258-0.021,0.529-0.063,0.809-0.114c0.209-0.05,1.332-0.147,3.367-0.3c2.45-0.201,4.809-0.491,7.074-0.874
			c2.834-0.497,5.589-1.364,8.195-2.582c1.184-0.536,2.371-1.132,3.556-1.792c-0.237-0.255-0.508-0.475-0.808-0.652
			c-0.334-0.176-0.785-0.443-1.354-0.799c-0.436-0.275-0.9-0.545-1.389-0.8c-1.318-0.719-2.721-1.268-4.176-1.633
			c-0.67-0.155-1.493-0.33-2.476-0.533c-1.082-0.2-1.764-0.343-2.046-0.42c-2.016-0.372-4.059-0.575-6.109-0.606l-4.367-0.27
			c0-0.101-0.101-0.149-0.307-0.149h-0.354c-0.182-0.019-0.354-0.084-0.5-0.19c-0.053-0.1-0.219-0.392-0.5-0.873
			c-0.285-0.432-0.442-0.659-0.467-0.685c-0.065,0-0.131,0.015-0.191,0.043C15.67,6.99,15.615,7.11,15.602,7.238L15.289,8.75
			c-0.063,0.575-0.208,1.139-0.427,1.675c-0.403,0.832-1.049,1.523-1.854,1.981c-0.48,0.311-1.021,0.518-1.587,0.604
			c-0.405,0.044-0.817-0.008-1.2-0.151c-0.596-0.204-1.136-0.542-1.583-0.986c-0.229-0.304-0.388-0.654-0.464-1.027
			c-0.023-0.28-0.053-0.758-0.08-1.445C8.13,8.806,8.288,8.224,8.559,7.693C8.717,7.305,8.95,6.814,9.254,6.206
			c0.133-0.244,0.188-0.524,0.154-0.8c-0.066-0.207-0.172-0.4-0.309-0.568C8.633,4.076,8.017,3.416,7.286,2.9
			C6.759,2.5,6.353,2.303,6.068,2.303C5.951,2.304,5.855,2.337,5.777,2.402 M50.856,20.302c0.117-0.03,0.24,0.017,0.313,0.114
			c0.043,0.087,0.082,0.175,0.11,0.266c0.193,0.448,0.322,0.922,0.392,1.406c0.052,0.192,0.091,0.387,0.121,0.584
			c0.035,0.223,0.062,0.447,0.065,0.673c-0.155,0.195-0.342,0.366-0.549,0.507c0.207-0.141,0.394-0.311,0.547-0.506
			c-0.006-0.175-0.021-0.348-0.045-0.521c0.021,0.173,0.037,0.346,0.043,0.521c-0.155,0.195-0.34,0.366-0.549,0.508
			c-0.062,0.045-0.117,0.09-0.187,0.146c-0.134,0.16-0.291,0.286-0.476,0.371c0.164-0.077,0.313-0.188,0.438-0.328
			c0.014-0.02,0.021-0.025,0.037-0.043c0,0,0,0,0-0.001l0,0c0.008-0.006,0.018-0.017,0.021-0.021
			c0.06-0.045,0.106-0.086,0.161-0.123c-0.055,0.041-0.104,0.08-0.161,0.123c-0.011,0.006-0.019,0.017-0.021,0.021
			c-0.016,0.017-0.021,0.024-0.037,0.044c-0.229,0.26-0.547,0.421-0.896,0.451l0,0l0,0c-0.424-0.323-0.77-0.741-1-1.223
			c-0.229-0.379-0.463-0.758-0.701-1.142l-0.023-0.177l-0.01-0.055c-0.063-0.131-0.033-0.282,0.07-0.381
			c-0.104,0.1-0.135,0.25-0.07,0.381c-0.063-0.131-0.031-0.282,0.072-0.381c0.363-0.229,0.727-0.474,1.084-0.726
			c0.072-0.058,0.146-0.104,0.227-0.153c-0.041,0.022-0.082,0.053-0.123,0.08c-0.029,0.021-0.063,0.047-0.097,0.068
			c-0.358,0.252-0.724,0.493-1.089,0.727c0.365-0.229,0.729-0.475,1.084-0.727c0.033-0.021,0.063-0.049,0.102-0.068
			c0.162-0.111,0.336-0.205,0.521-0.273c0.002,0,0.004-0.002,0.006-0.004c0.007-0.002,0.013-0.004,0.019-0.006
			C50.449,20.368,50.651,20.322,50.856,20.302 M47.296,10.271c0.188-0.156,0.414-0.26,0.656-0.3c0.188,0.003,0.377,0.054,0.541,0.15
			c0.903,0.638,1.76,1.349,2.549,2.13c0.187,0.164,0.354,0.32,0.519,0.468c-0.16-0.146-0.332-0.303-0.517-0.467
			c0.185,0.165,0.354,0.321,0.519,0.468c0.651,0.496,1.226,1.096,1.688,1.773h0.002c0-0.001,0-0.002-0.002-0.002
			c-0.465-0.68-1.032-1.277-1.688-1.774c0.651,0.497,1.226,1.095,1.688,1.773c0,0,0,0,0,0.001c0.002,0,0.002,0,0.002,0.001
			c0,0,0,0,0,0.001c0.011,0.09-0.146,0.314-0.474,0.676c-0.442,0.582-0.963,1.108-1.541,1.563c-0.713,0.74-1.483,1.423-2.313,2.034
			c0.826-0.612,1.601-1.292,2.312-2.034l0,0c-0.715,0.74-1.483,1.423-2.313,2.034c-0.039,0.024-0.079,0.043-0.123,0.063
			c-0.024,0.009-0.055,0.017-0.081,0.021c0.028-0.009,0.059-0.017,0.086-0.021c-0.048,0.015-0.097,0.022-0.146,0.032
			c-0.207,0.05-0.429,0.051-0.638,0.006c-0.146-0.033-0.291-0.104-0.416-0.188c-0.127-0.093-0.229-0.208-0.313-0.343
			c0,0,0-0.001-0.002-0.001c0,0,0,0,0-0.001c-0.313-0.691-0.479-1.44-0.498-2.199c-0.051-0.56-0.076-1.094-0.076-1.6l0.037-1.862
			c-0.019-0.13-0.021-0.261-0.021-0.392C46.742,11.571,46.932,10.878,47.296,10.271 M51.471,5.063
			c0.047,0.07,0.075,0.148,0.09,0.231C51.546,5.211,51.518,5.133,51.471,5.063 M48.8,5.592c0.197-0.586,0.576-1.092,1.084-1.444
			c0.289,0.025,0.564,0.117,0.814,0.269c0.061,0.029,0.111,0.06,0.168,0.094c0.232,0.146,0.438,0.333,0.604,0.553
			c-0.115-0.152-0.25-0.289-0.396-0.406c0.146,0.116,0.279,0.253,0.395,0.404c0.048,0.069,0.078,0.148,0.091,0.231
			c0.047,0.458,0.019,0.92-0.091,1.367c-0.204,0.964-0.319,1.56-0.346,1.786c0.004,0.18-0.146,0.326-0.319,0.33c0,0-0.003,0-0.005,0
			c0.002,0,0.005,0,0.007,0c0.182-0.004,0.321-0.15,0.319-0.33c0.021-0.229,0.142-0.822,0.347-1.786
			c0.106-0.446,0.141-0.907,0.096-1.364c0.047,0.458,0.019,0.919-0.092,1.367c-0.203,0.964-0.317,1.559-0.347,1.786
			c0,0.05-0.017,0.1-0.03,0.145c-0.076,0.162-0.271,0.231-0.435,0.155c-0.084-0.001-0.168-0.024-0.242-0.066
			C50.4,8.67,50.376,8.656,50.356,8.638l-1.817-0.913c-0.039-0.011-0.076-0.026-0.11-0.048c-0.019-0.009-0.027-0.019-0.046-0.03
			c-0.016-0.01-0.022-0.02-0.039-0.03c0.017,0.011,0.025,0.021,0.041,0.032c-0.026-0.021-0.059-0.047-0.084-0.072
			c-0.022-0.026-0.051-0.055-0.069-0.083c-0.063-0.078-0.117-0.167-0.149-0.264c0.155-0.581,0.403-1.133,0.731-1.636L48.8,5.592z
			 M50.003,2.303c-0.108,0.003-0.2,0.036-0.271,0.1c-0.746,0.913-1.371,1.923-1.854,3c-0.768,1.319-1.377,2.723-1.813,4.184
			c-0.207,1.078-0.323,2.171-0.353,3.27v1.746c0,0.759,0.037,1.557,0.113,2.394c0.014,1.159,0.235,2.305,0.657,3.384
			c0.519,1.064,1.021,2.036,1.511,2.928c0.9,1.729,1.57,2.697,2.01,2.924c0.09,0.041,0.188,0.063,0.291,0.066h0.043
			c0.395-0.01,0.875-0.285,1.445-0.826c0.438-0.421,0.842-0.877,1.199-1.365c0.313-0.402,0.434-0.938,0.309-1.438
			c-0.498-0.87-0.84-1.821-1.006-2.813c-0.047-0.607-0.008-1.228,0.113-1.829c0.146-0.63,0.596-1.145,1.199-1.368
			c0.66-0.354,1.422-0.486,2.16-0.379c0.854,0.178,1.621,0.646,2.164,1.332c0.488,0.456,0.871,1.014,1.123,1.633
			c0.088,0.448,0.148,0.905,0.188,1.364c0.031,0.375,0.106,0.746,0.231,1.104c0.041,0.114,0.121,0.21,0.229,0.271l0.271-0.189
			c0.187-0.188,0.328-0.404,0.429-0.646c0.104-0.221,0.187-0.446,0.231-0.687c0.231-0.179,0.521-0.28,0.813-0.299l0.313-0.037
			c0.229-0.022,0.5-0.063,0.813-0.115c0.207-0.049,1.328-0.146,3.358-0.299c2.449-0.201,4.8-0.491,7.037-0.877
			c4.151-0.771,8.146-2.25,11.789-4.376c-0.252-0.255-0.539-0.474-0.854-0.648c-0.313-0.176-0.746-0.443-1.313-0.799
			c-1.729-1.097-3.623-1.917-5.606-2.43c-0.646-0.155-1.468-0.33-2.472-0.533c-1.06-0.2-1.739-0.343-2.051-0.419
			c-2.002-0.373-4.033-0.575-6.07-0.608l-4.36-0.27c-0.058-0.117-0.187-0.18-0.312-0.15h-0.39c-0.168-0.021-0.325-0.088-0.465-0.189
			c-0.053-0.101-0.222-0.393-0.5-0.873c-0.274-0.438-0.435-0.667-0.459-0.691c-0.063-0.003-0.133,0.01-0.19,0.037
			c-0.084,0.095-0.142,0.216-0.151,0.344l-0.313,1.519c-0.089,0.57-0.229,1.131-0.429,1.675c-0.401,0.833-1.056,1.524-1.854,1.981
			c-0.492,0.316-1.053,0.521-1.627,0.604c-0.396,0.045-0.789-0.008-1.158-0.151c-0.596-0.204-1.143-0.542-1.584-0.986
			c-0.25-0.292-0.408-0.648-0.463-1.027c-0.063-0.479-0.096-0.962-0.078-1.445c0.033-0.595,0.188-1.178,0.465-1.708
			c0.154-0.381,0.389-0.878,0.697-1.483c0.137-0.244,0.188-0.524,0.15-0.8c-0.063-0.208-0.17-0.401-0.307-0.571
			c-0.471-0.763-1.088-1.423-1.818-1.939c-0.52-0.388-0.922-0.585-1.205-0.593h-0.025V2.303H50.003z"/>
	</defs>
	<clipPath id="SVGID_2_">
		<use xlink:href="#SVGID_1_"  overflow="visible"/>
	</clipPath>
	<g clip-path="url(#SVGID_2_)">
		<g>
			
				<linearGradient id="SVGID_3_" gradientUnits="userSpaceOnUse" x1="-816.646" y1="5.0391" x2="-755.6113" y2="5.0391" gradientTransform="matrix(-1 0 0 -1 -755.6113 19.3398)">
				<stop  offset="0" style="stop-color:#F2E2C8;stop-opacity:0"/>
				<stop  offset="0.9194" style="stop-color:#FEB243;stop-opacity:0.8"/>
			</linearGradient>
			<path fill="url(#SVGID_3_)" d="M35.142,10.874l1.59,0.924c-0.154,0.737,1.71,2.34,1.71,2.34L27.225,8.212l-8.537,1.444
				L42.33,20.169l-12.219-7.25l15.815,5.209l6.835,4.584l2.037-4.405l-2.982,0.026L35.142,10.874z M19.727,18.054
				c-0.207-1.035-2-1.394-2-1.394l-3.915-1.305l-0.695-0.608c-0.338-0.496-2.871-1.826-2.871-1.826
				c0.84,0.457,6.263,1.392,6.263,1.392c1.398,1.379,4.523,1.217,4.523,1.217l-4.872-2.608L8.854,8.919L7.896,8.833L7.611,6.73
				L5.957,6.399L0,15.335l6.525,14.481l16.308-0.252l-7.456-4.64l5.568,0.436l7.844,4.204l6.236-5.165l-7.083-0.666
				C24.59,20.368,19.727,18.054,19.727,18.054z M41.519,8.644l-1.158-0.992l20.674,11.311l-2.74-5.875
				c-0.504-0.105-5.627-2.578-5.627-2.578c-1.808-0.362-5.734-2.906-5.734-2.906h-6.628L30.014-1.215l-1.958,3.134l8.292,5.303
				L41.519,8.644z"/>
		</g>
	</g>
</g>
<linearGradient id="shape2_2_" gradientUnits="userSpaceOnUse" x1="6.5967" y1="3.0083" x2="6.8467" y2="-11.9921" gradientTransform="matrix(1 0 0 -1 59.04 19.3398)">
	<stop  offset="0" style="stop-color:#630A0A"/>
	<stop  offset="0.4892" style="stop-color:#A81513"/>
	<stop  offset="1" style="stop-color:#E4100C"/>
</linearGradient>
<path id="shape2_1_" fill="url(#shape2_2_)" d="M75.542,31.251c-0.313,0-0.625-0.05-0.922-0.147c-0.3,0.104-0.608,0.147-0.925,0.147
	h-8.19c-0.187,0-0.442-0.009-0.771-0.075c-0.217,0.051-0.438,0.075-0.664,0.075h-2.662c-0.814,0-1.604-0.342-2.166-0.937
	c-0.076-0.086-0.148-0.174-0.221-0.271l-0.91,0.646c-0.502,0.357-1.1,0.556-1.725,0.556h-3.584c-0.719,0-1.402-0.269-1.936-0.722
	c-0.617,0.427-1.354,0.65-2.115,0.65c-0.75,0-1.479-0.222-2.103-0.642c-0.164-0.11-0.315-0.233-0.453-0.37
	c-1.021-1.021-1.363-2.423-0.92-3.753l0.045-0.128l0.08-0.203c-1.801-0.254-3.146-1.768-3.146-3.646V22.24
	c0-0.741,0.274-1.45,0.773-1.996l4.747-5.232c0.646-1.069,1.764-1.679,3.08-1.679h0.41c2.064,0,3.684,1.618,3.684,3.684
	c0,0-0.002,0.289-0.004,0.331c0.557-0.653,1.373-1.044,2.262-1.044h8.396c0.262,0,0.52,0.034,0.77,0.101
	c0.25-0.067,0.508-0.101,0.771-0.101h9.219c0.242,0,0.479,0.029,0.721,0.087c0.229-0.058,0.477-0.087,0.719-0.087h8.395
	c0.918,0,1.799,0.433,2.355,1.159c0.563,0.726,0.752,1.689,0.518,2.573l-0.406,1.532c-0.146,0.541-0.436,1.02-0.826,1.395
	c-0.018,0.188-0.047,0.372-0.098,0.555l-0.41,1.537c-0.072,0.282-0.188,0.551-0.346,0.799c0.168,0.532,0.188,1.109,0.039,1.656
	l-0.412,1.539c-0.35,1.296-1.521,2.202-2.865,2.202H75.542z M72.503,23.782l0.017-0.009h-0.797l-0.002,0.009H72.503z"/>
<path id="ACE" fill="#FFFFFF" d="M49.731,23.163h-3.788c-0.41,0-0.717-0.308-0.717-0.718c0-0.104,0-0.104,0-0.204l5.018-5.531
	c0.104-0.307,0.312-0.41,0.614-0.41h0.41c0.407,0,0.717,0.308,0.717,0.717c0,0.102,0,0.205,0,0.205l-2.459,3.584h4.402
	c0.614,0,0.311,1.127-0.104,1.639l-4.508,5.531c-0.311,0.308-0.717,0.308-1.02,0.104c-0.205-0.206-0.313-0.41-0.205-0.719
	L49.731,23.163L49.731,23.163L49.731,23.163z M57.208,19.271l0.408,0.41l-4.813,8.603h3.584l2.149-1.536h2.971l-0.104,1.536h2.662
	l1.537-9.013H57.208L57.208,19.271z M61.712,20.809l-0.104,3.482h-2.971l2.049-3.482H61.712L61.712,20.809z M65.503,28.284h8.188
	l0.613-2.15l-0.818,0.614h-5.729l1.74-5.941h6.446l0.408-1.535H67.13l-2.35,7.988c-0.101,0.104-0.101,0.309-0.101,0.409
	c0,0.103,0,0.205,0.104,0.31c0.102,0.104,0.201,0.203,0.307,0.203C65.296,28.284,65.403,28.284,65.503,28.284L65.503,28.284
	L65.503,28.284z M77.794,19.271l0.313,0.605l-2.563,8.396h8.19l0.41-1.533h-5.123l0.718-2.458h4.711l0.409-1.537h-4.506l0.61-1.938
	h4.816l0.407-1.535H77.794L77.794,19.271z"/>
</svg>
