<?xml version="1.0" encoding="utf-8"?>
<!-- Generator: Adobe Illustrator 16.0.0, SVG Export Plug-In . SVG Version: 6.00 Build 0)  -->
<!DOCTYPE svg PUBLIC "-//W3C//DTD SVG 1.1//EN" "http://www.w3.org/Graphics/SVG/1.1/DTD/svg11.dtd">
<svg version="1.1" id="tc" xmlns="http://www.w3.org/2000/svg" xmlns:xlink="http://www.w3.org/1999/xlink" x="0px" y="0px"
	 width="58.66px" height="36px" viewBox="0 0 58.66 36" enable-background="new 0 0 58.66 36" xml:space="preserve">
<linearGradient id="shape1_1_" gradientUnits="userSpaceOnUse" x1="-116.8291" y1="2189.9414" x2="-61.3418" y2="2189.9414" gradientTransform="matrix(1 0 0 1 118 -2171.9414)">
	<stop  offset="0" style="stop-color:#DC4A49"/>
	<stop  offset="0.3011" style="stop-color:#BE2126"/>
	<stop  offset="0.7419" style="stop-color:#E10414"/>
	<stop  offset="1" style="stop-color:#FEB243"/>
</linearGradient>
<path id="shape1" fill="url(#shape1_1_)" d="M27.492,16.661c-0.197-0.2-0.293-0.481-0.258-0.761v-2.434
	c-0.016-0.262,0.077-0.519,0.258-0.708c0.078-0.13,0.207-0.222,0.354-0.253h7.308c0.172,0.002,0.332,0.101,0.404,0.26
	c0.182,0.19,0.271,0.446,0.262,0.708V15.9c0.033,0.28-0.063,0.56-0.262,0.761c-0.074,0.155-0.234,0.256-0.408,0.257h-7.304
	C27.699,16.884,27.57,16.791,27.492,16.661 M8.472,0.88L8.32,1.032C8.242,1.144,8.175,1.263,8.115,1.387
	C8.032,1.423,7.973,1.499,7.959,1.589C7.958,1.698,7.922,1.804,7.858,1.895C7.113,1.897,6.374,1.983,5.649,2.151
	c-0.173,0.065-0.332,0.169-0.464,0.3L5.13,2.556c-0.027,0.047-0.045,0.1-0.05,0.154c0,0.099,0.015,0.148,0.05,0.148h0.055
	c0.124,0.177,0.179,0.395,0.151,0.61v3.809l0.05,0.094v0.361C5.353,7.9,5.336,8.07,5.335,8.24C5.329,8.656,5.4,9.069,5.542,9.459
	c0.2,0.363,0.563,0.608,0.976,0.66c0.546,0.275,1.081,0.559,1.595,0.865c0.558,0.384,1.001,0.91,1.288,1.524
	c0.166,0.49,0.251,1.002,0.253,1.521c-0.024,0.918-0.197,1.827-0.515,2.691c-0.453,1.188-0.983,2.337-1.588,3.449
	c-0.618,0.915-1.286,1.847-2.006,2.795c-0.621,0.945-1.217,1.845-1.801,2.687c-0.548,0.813-0.994,1.49-1.338,2.033
	c-0.413,0.541-0.634,0.83-0.669,0.862v-0.103C1.672,28.77,1.586,29.089,1.48,29.41c-0.219,0.582-0.324,1.201-0.307,1.826
	c-0.001,0.029-0.002,0.056-0.002,0.084v0.049c0.004,0.456,0.129,0.902,0.364,1.295c0.417,0.624,1.101,1.018,1.851,1.063
	c0.133,0.034,0.271,0.055,0.409,0.051h0.826c-0.023,0.281-0.092,0.563-0.208,0.813c-0.037,0.148-0.053,0.302-0.053,0.458h11.517
	c0.135,0.131,0.331,0.081,0.565-0.154c0.508-0.326,0.772-0.926,0.668-1.521l0.104-0.104c0.925-2.771,1.764-5.078,2.518-6.896
	c0.717-1.861,1.352-3.354,1.902-4.473c0.436-0.822,0.952-1.604,1.542-2.334c0.285-0.375,0.61-0.715,0.976-1.014
	c0.264-0.102,0.543-0.155,0.826-0.156c0.28,0.146,0.573,0.263,0.873,0.354c0.479,0.103,1.126,0.201,1.953,0.304
	c0.926,0.069,2.042,0.104,3.342,0.104c1.377,0.026,3.051,0,5.037-0.104c0.623,0.051,1.252-0.018,1.854-0.203V18.7l0.722-0.813
	v-0.151c-0.104-0.443-0.209-0.902-0.31-1.373c-0.069-0.387-0.123-0.776-0.151-1.167c-0.036-0.441-0.056-0.81-0.056-1.114v-0.409
	c-0.008-0.224,0.025-0.448,0.104-0.661c0.118-0.215,0.299-0.393,0.518-0.508c0.307-0.07,0.729-0.155,1.281-0.252
	c0.715-0.117,1.438-0.169,2.157-0.156c0.794-0.001,1.808-0.018,3.035-0.048c1.235,0,2.485-0.05,3.756-0.155
	c1.271-0.036,2.45-0.068,3.55-0.098c0.771-0.007,1.547-0.076,2.313-0.205c0.184,0.014,0.354-0.022,0.521-0.102
	c0.787-0.474,1.182-1.88,1.182-4.211l-0.361-5.54h-1.852l-0.256-0.25c-0.084-0.048-0.154-0.119-0.207-0.203L53,1.589
	c-0.063,0.015-0.113,0.053-0.152,0.104l-0.105,0.203h-42.47c-0.001-0.105-0.019-0.209-0.053-0.307c0.007-0.11-0.028-0.22-0.1-0.303
	l-0.16-0.354L8.472,0.88z"/>
<g>
	<defs>
		<path id="SVGID_1_" d="M27.492,16.661c-0.197-0.2-0.293-0.481-0.258-0.761v-2.434c-0.016-0.262,0.077-0.519,0.258-0.708
			c0.078-0.13,0.207-0.222,0.354-0.253h7.308c0.172,0.002,0.332,0.101,0.404,0.26c0.182,0.19,0.271,0.446,0.262,0.708V15.9
			c0.033,0.28-0.063,0.56-0.262,0.761c-0.074,0.155-0.234,0.256-0.408,0.257h-7.304C27.699,16.884,27.57,16.791,27.492,16.661
			 M8.472,0.88L8.32,1.032C8.242,1.144,8.175,1.263,8.115,1.387C8.032,1.423,7.973,1.499,7.959,1.589
			C7.958,1.698,7.922,1.804,7.858,1.895C7.113,1.897,6.374,1.983,5.649,2.151c-0.173,0.065-0.332,0.169-0.464,0.3L5.13,2.556
			c-0.027,0.047-0.045,0.1-0.05,0.154c0,0.099,0.015,0.148,0.05,0.148h0.055c0.124,0.177,0.179,0.395,0.151,0.61v3.809l0.05,0.094
			v0.361C5.353,7.9,5.336,8.07,5.335,8.24C5.329,8.656,5.4,9.069,5.542,9.459c0.2,0.363,0.563,0.608,0.976,0.66
			c0.546,0.275,1.081,0.559,1.595,0.865c0.558,0.384,1.001,0.91,1.288,1.524c0.166,0.49,0.251,1.002,0.253,1.521
			c-0.024,0.918-0.197,1.827-0.515,2.691c-0.453,1.188-0.983,2.337-1.588,3.449c-0.618,0.915-1.286,1.847-2.006,2.795
			c-0.621,0.945-1.217,1.845-1.801,2.687c-0.548,0.813-0.994,1.49-1.338,2.033c-0.413,0.541-0.634,0.83-0.669,0.862v-0.103
			C1.672,28.77,1.586,29.089,1.48,29.41c-0.219,0.582-0.324,1.201-0.307,1.826c-0.001,0.029-0.002,0.056-0.002,0.084v0.049
			c0.004,0.456,0.129,0.902,0.364,1.295c0.417,0.624,1.101,1.018,1.851,1.063c0.133,0.034,0.271,0.055,0.409,0.051h0.826
			c-0.023,0.281-0.092,0.563-0.208,0.813c-0.037,0.148-0.053,0.302-0.053,0.458h11.517c0.135,0.131,0.331,0.081,0.565-0.154
			c0.508-0.326,0.772-0.926,0.668-1.521l0.104-0.104c0.925-2.771,1.764-5.078,2.518-6.896c0.717-1.861,1.352-3.354,1.902-4.473
			c0.436-0.822,0.952-1.604,1.542-2.334c0.285-0.375,0.61-0.715,0.976-1.014c0.264-0.102,0.543-0.155,0.826-0.156
			c0.28,0.146,0.573,0.263,0.873,0.354c0.479,0.103,1.126,0.201,1.953,0.304c0.926,0.069,2.042,0.104,3.342,0.104
			c1.377,0.026,3.051,0,5.037-0.104c0.623,0.051,1.252-0.018,1.854-0.203V18.7l0.722-0.813v-0.151
			c-0.104-0.443-0.209-0.902-0.31-1.373c-0.069-0.387-0.123-0.776-0.151-1.167c-0.036-0.441-0.056-0.81-0.056-1.114v-0.409
			c-0.008-0.224,0.025-0.448,0.104-0.661c0.118-0.215,0.299-0.393,0.518-0.508c0.307-0.07,0.729-0.155,1.281-0.252
			c0.715-0.117,1.438-0.169,2.157-0.156c0.794-0.001,1.808-0.018,3.035-0.048c1.235,0,2.485-0.05,3.756-0.155
			c1.271-0.036,2.45-0.068,3.55-0.098c0.771-0.007,1.547-0.076,2.313-0.205c0.184,0.014,0.354-0.022,0.521-0.102
			c0.787-0.474,1.182-1.88,1.182-4.211l-0.361-5.54h-1.852l-0.256-0.25c-0.084-0.048-0.154-0.119-0.207-0.203L53,1.589
			c-0.063,0.015-0.113,0.053-0.152,0.104l-0.105,0.203h-42.47c-0.001-0.105-0.019-0.209-0.053-0.307
			c0.007-0.11-0.028-0.22-0.1-0.303l-0.16-0.354L8.472,0.88z"/>
	</defs>
	<clipPath id="SVGID_2_">
		<use xlink:href="#SVGID_1_"  overflow="visible"/>
	</clipPath>
	<g clip-path="url(#SVGID_2_)">
		<g>
			
				<linearGradient id="SVGID_3_" gradientUnits="userSpaceOnUse" x1="-842.7764" y1="-1.1445" x2="-781.7417" y2="-1.1445" gradientTransform="matrix(-1 0 0 -1 -786.1182 19.3398)">
				<stop  offset="0" style="stop-color:#F2E2C8;stop-opacity:0"/>
				<stop  offset="0.9194" style="stop-color:#FEB243;stop-opacity:0.8"/>
			</linearGradient>
			<path fill="url(#SVGID_3_)" d="M30.766,17.058l1.59,0.924c-0.154,0.737,1.71,2.34,1.71,2.34l-11.217-5.926l-8.537,1.444
				l23.642,10.513l-12.219-7.25l15.816,5.209l6.834,4.584l2.037-4.405l-2.982,0.026L30.766,17.058z M15.351,24.237
				c-0.207-1.035-2-1.394-2-1.394l-3.915-1.305L8.74,20.931c-0.338-0.496-2.871-1.826-2.871-1.826
				c0.84,0.457,6.263,1.392,6.263,1.392c1.398,1.379,4.523,1.217,4.523,1.217l-4.872-2.608l-7.306-4.002L3.52,15.017l-0.285-2.103
				l-1.654-0.331l-5.957,8.936L2.148,36l16.308-0.252L11,31.108l5.568,0.436l7.844,4.204l6.236-5.165l-7.083-0.666
				C20.213,26.552,15.351,24.237,15.351,24.237z M37.143,14.827l-1.158-0.992l20.674,11.311l-2.74-5.875
				c-0.504-0.105-5.627-2.578-5.627-2.578c-1.808-0.362-5.734-2.906-5.734-2.906h-6.629L25.637,4.969l-1.958,3.134l8.292,5.303
				L37.143,14.827z"/>
		</g>
	</g>
</g>
</svg>
