<?xml version="1.0" encoding="utf-8"?>
<!-- Generator: Adobe Illustrator 16.0.0, SVG Export Plug-In . SVG Version: 6.00 Build 0)  -->
<!DOCTYPE svg PUBLIC "-//W3C//DTD SVG 1.1//EN" "http://www.w3.org/Graphics/SVG/1.1/DTD/svg11.dtd">
<svg version="1.1" id="case1" xmlns="http://www.w3.org/2000/svg" xmlns:xlink="http://www.w3.org/1999/xlink" x="0px" y="0px"
	 width="92px" height="36px" viewBox="0 0 92 36" enable-background="new 0 0 92 36" xml:space="preserve">
<linearGradient id="hkp2000_4_" gradientUnits="userSpaceOnUse" x1="10.0518" y1="848.7461" x2="49.082" y2="848.7461" gradientTransform="matrix(1 0 0 1 8.3198 -829.8652)">
	<stop  offset="0" style="stop-color:#B1DB7F;stop-opacity:0"/>
	<stop  offset="0.1061" style="stop-color:#B1DB7F;stop-opacity:0.1061"/>
	<stop  offset="1" style="stop-color:#B1DB7F"/>
</linearGradient>
<path id="hkp2000" fill="url(#hkp2000_4_)" d="M57.059,13.208c-0.109,0.243-0.344,0.407-0.607,0.429
	c-0.469,0.03-3.656,0.078-9.569,0.143c-0.21,0.006-0.418,0.055-0.608,0.143c-0.341,0.095-0.617,0.342-0.75,0.669
	c-0.107,0.502-0.124,1.02-0.047,1.527c0.03,0.381,0.093,0.954,0.188,1.718c0.033,0.404,0.096,0.806,0.186,1.2
	c0,0.221-0.171,0.349-0.515,0.38c-0.649,0.147-1.308,0.26-1.97,0.335c-1.135,0.165-2.277,0.262-3.422,0.286
	c-1.908,0.032-4.035-0.032-6.379-0.19c-2.032,5.506-3.048,8.436-3.048,8.783c0,0.383,0.078,1.607,0.234,3.676
	c0.35,0.275,0.727,0.518,1.125,0.715c0.178,0.037,0.3,0.203,0.282,0.387c0.009,0.074-0.028,0.15-0.095,0.189l-0.328,0.19
	c-0.367,0.097-0.751,0.112-1.125,0.048c-0.593-0.098-4.579-0.911-11.957-2.439c-0.375-0.063-0.375-1.112,0-3.149
	c0.271-1.267,0.632-2.511,1.079-3.724c0.461-1.34,1.011-2.646,1.646-3.916c0.542-1.014,0.967-2.088,1.265-3.197
	c0.311-0.773,0.468-1.6,0.463-2.433c-0.266-0.564-0.734-1.007-1.312-1.241c-0.569-0.296-1.166-0.536-1.781-0.716
	c-0.312-0.031-0.59-0.208-0.751-0.477c-0.154-0.164-0.295-0.34-0.422-0.526c-0.127-0.317-0.175-0.66-0.14-1V9.821
	c-0.049-0.517,0.015-1.039,0.187-1.529c0.594-1.051,1.047-1.83,1.359-2.338c0.227-0.35,0.496-0.671,0.8-0.956
	c0.176-0.237,0.453-0.378,0.748-0.383c0.249,0.032,0.501,0.032,0.75,0l0.47-0.048c0.113-0.225,0.255-0.434,0.423-0.621
	c0.471-0.115,0.968-0.064,1.406,0.144l0.187,0.524h12.9v0.429h5.58V4.614l12.852-0.047l0.418,0.239
	c0.22,0.109,0.361,0.328,0.375,0.572c0.063,1.242,0.125,2.404,0.188,3.486c0.094,1.176,0.077,2.358-0.047,3.532
	C57.135,12.905,57.059,13.175,57.059,13.208z M43.598,14.401c-0.117-0.056-0.244-0.089-0.373-0.1v0.1l-4.176-0.047
	c-0.167,0.509-0.099,1.067,0.186,1.521c0.27,0.459,0.583,0.892,0.938,1.289c0.252,0.223,0.562,0.371,0.892,0.428
	c0.312,0.032,0.453,0.113,0.422,0.239c-0.041,0.168-0.207,0.274-0.377,0.239h-0.606c-0.431-0.11-0.822-0.34-1.128-0.664
	c-0.504-0.398-0.933-0.882-1.266-1.431c-0.138-0.53-0.201-1.076-0.186-1.623l-0.848-0.049c-0.508,0.003-0.988,0.23-1.312,0.621
	c-0.31,0.375-0.477,0.849-0.469,1.336v1.289c0.125,0.45,0.484,0.797,0.938,0.908c0.741,0.307,1.543,0.438,2.344,0.382
	c0.876-0.128,1.563-0.208,2.063-0.239c0.455-0.024,0.91-0.01,1.361,0.047c0.656,0.064,1.109,0.103,1.359,0.103
	c0.271,0.021,0.543-0.017,0.801-0.103c0.063-0.063,0.189-0.188,0.377-0.378c0.153-0.495,0.186-1.019,0.094-1.528
	c0.012-0.61-0.115-1.214-0.375-1.767C44.135,14.69,43.893,14.48,43.598,14.401L43.598,14.401z"/>
<g>
	<g>
		<defs>
			<path id="SVGID_1_" d="M57.059,13.208c-0.109,0.243-0.344,0.407-0.607,0.429c-0.469,0.03-3.656,0.078-9.569,0.143
				c-0.21,0.006-0.418,0.055-0.608,0.143c-0.341,0.095-0.617,0.342-0.75,0.669c-0.107,0.502-0.124,1.02-0.047,1.527
				c0.03,0.381,0.093,0.954,0.188,1.718c0.033,0.404,0.096,0.806,0.186,1.2c0,0.221-0.171,0.349-0.515,0.38
				c-0.649,0.147-1.308,0.26-1.97,0.335c-1.135,0.165-2.277,0.262-3.422,0.286c-1.908,0.032-4.035-0.032-6.379-0.19
				c-2.032,5.506-3.048,8.436-3.048,8.783c0,0.383,0.078,1.607,0.234,3.676c0.35,0.275,0.727,0.518,1.125,0.715
				c0.178,0.037,0.3,0.203,0.282,0.387c0.009,0.074-0.028,0.15-0.095,0.189l-0.328,0.19c-0.367,0.097-0.751,0.112-1.125,0.048
				c-0.593-0.098-4.579-0.911-11.957-2.439c-0.375-0.063-0.375-1.112,0-3.149c0.271-1.267,0.632-2.511,1.079-3.724
				c0.461-1.34,1.011-2.646,1.646-3.916c0.542-1.014,0.967-2.088,1.265-3.197c0.311-0.773,0.468-1.6,0.463-2.433
				c-0.266-0.564-0.734-1.007-1.312-1.241c-0.569-0.296-1.166-0.536-1.781-0.716c-0.312-0.031-0.59-0.208-0.751-0.477
				c-0.154-0.164-0.295-0.34-0.422-0.526c-0.127-0.317-0.175-0.66-0.14-1V9.821c-0.049-0.517,0.015-1.039,0.187-1.529
				c0.594-1.051,1.047-1.83,1.359-2.338c0.227-0.35,0.496-0.671,0.8-0.956c0.176-0.237,0.453-0.378,0.748-0.383
				c0.249,0.032,0.501,0.032,0.75,0l0.47-0.048c0.113-0.225,0.255-0.434,0.423-0.621c0.471-0.115,0.968-0.064,1.406,0.144
				l0.187,0.524h12.9v0.429h5.58V4.614l12.852-0.047l0.418,0.239c0.22,0.109,0.361,0.328,0.375,0.572
				c0.063,1.242,0.125,2.404,0.188,3.486c0.094,1.176,0.077,2.358-0.047,3.532C57.135,12.905,57.059,13.175,57.059,13.208z
				 M43.598,14.401c-0.117-0.056-0.244-0.089-0.373-0.1v0.1l-4.176-0.047c-0.167,0.509-0.099,1.067,0.186,1.521
				c0.27,0.459,0.583,0.892,0.938,1.289c0.252,0.223,0.562,0.371,0.892,0.428c0.312,0.032,0.453,0.113,0.422,0.239
				c-0.041,0.168-0.207,0.274-0.377,0.239h-0.606c-0.431-0.11-0.822-0.34-1.128-0.664c-0.504-0.398-0.933-0.882-1.266-1.431
				c-0.138-0.53-0.201-1.076-0.186-1.623l-0.848-0.049c-0.508,0.003-0.988,0.23-1.312,0.621c-0.31,0.375-0.477,0.849-0.469,1.336
				v1.289c0.125,0.45,0.484,0.797,0.938,0.908c0.741,0.307,1.543,0.438,2.344,0.382c0.876-0.128,1.563-0.208,2.063-0.239
				c0.455-0.024,0.91-0.01,1.361,0.047c0.656,0.064,1.109,0.103,1.359,0.103c0.271,0.021,0.543-0.017,0.801-0.103
				c0.063-0.063,0.189-0.188,0.377-0.378c0.153-0.495,0.186-1.019,0.094-1.528c0.012-0.61-0.115-1.214-0.375-1.767
				C44.135,14.69,43.893,14.48,43.598,14.401L43.598,14.401z"/>
		</defs>
		<clipPath id="SVGID_2_">
			<use xlink:href="#SVGID_1_"  overflow="visible"/>
		</clipPath>
		<g clip-path="url(#SVGID_2_)">
			<path fill="#033500" d="M26.408,36.275c-0.508,0-1.016,0-1.523,0c-0.962-0.195-1.925-0.396-3.081-0.629
				c-0.092,0.104-0.316,0.364-0.541,0.629c-4.574,0-9.147,0-13.721,0c-0.277-0.461-0.643-0.896-0.798-1.396
				c-0.098-0.313,0.119-0.727,0.195-1.094c0.338,0.081,0.689,0.128,1.01,0.255c0.158,0.063,0.259,0.271,0.386,0.411
				c0.571,0.633,0.943,0.422,1.261-0.294c-0.311-0.224-0.584-0.417-1.002-0.718c1.415-0.545,1.932-1.512,1.884-2.938
				c-0.012-0.35,0.739-0.859,1.234-1.054c0.57-0.222,1.256-0.122,1.872-0.257c0.819-0.178,1.796-0.027,2.474-1.103
				c-0.479-0.159-0.853-0.353-1.246-0.405c-0.562-0.086-1.154,0-1.7-0.132c-0.363-0.088-0.958-0.448-0.942-0.646
				c0.04-0.475,0.255-1.146,0.616-1.344c1.44-0.781,3.218-0.51,4.385,0.095c1.223,0.633,2.229,0.672,3.375,0.469
				c2.883-0.508,5.544-0.302,7.77,1.896c0.438,0.436,1.043,0.729,1.619,0.979c1.744,0.752,3.928,0.147,5.049-1.34
				c0.693-0.918,0.39-1.806-0.635-2.198c-0.687-0.265-1.623-0.589-1.864-1.145c-0.403-0.924-0.923-1.156-1.8-1.141
				c-1.238,0.021-2.081-0.734-2.223-1.992c-0.083-0.731-0.17-1.486-0.078-2.207c0.042-0.338,0.459-0.689,0.788-0.914
				c0.769-0.524,1.607-0.947,2.382-1.462c1.347-0.9,2.661-1.786,4.336-0.681c0.249,0.163,0.691,0.152,1.007,0.07
				c1.209-0.307,2.403-0.677,3.702-1.052c-0.229-0.477-0.493-1.025-0.774-1.608c-0.294,0-0.579,0-0.863,0
				c0.244-0.265,0.52-0.396,0.782-0.373c0.985,0.093,1.963,0.271,2.948,0.349c0.855,0.068,1.392-0.419,1.556-1.229
				c0.163-0.81-0.138-1.511-0.947-1.753c-1.313-0.391-2.096-1.636-3.6-1.877C38.753,8.3,38.088,8.015,37.449,8.93
				c-0.468-0.502-0.553-0.957,0-1.308c0.239-0.152,0.608-0.131,0.918-0.133c1.081-0.008,2.205,0.279,2.975-0.92
				c0.189-0.292,0.861-0.288,1.318-0.389c0.365-0.082,0.776-0.042,1.101-0.195c0.313-0.146,0.54-0.471,0.805-0.718
				c-0.342-0.143-0.687-0.403-1.029-0.399c-0.562,0.004-1.118,0.206-1.684,0.278c-0.744,0.094-1.334-0.274-1.386-0.975
				c-0.03-0.41,0.345-0.984,0.708-1.25c0.368-0.269,0.942-0.284,1.433-0.35c0.687-0.091,1.385-0.083,2.066-0.198
				c0.635-0.108,0.566-0.539,0.223-0.893c-0.205-0.212-0.546-0.428-0.815-0.416c-1.453,0.065-2.912,0.131-4.346,0.35
				c-0.502,0.078-1.09,0.494-1.372,0.928c-0.659,1.014-1.58,1.431-2.674,1.785c-0.574,0.186-1.189,0.78-1.427,1.342
				c-0.369,0.87-0.901,1.259-1.777,1.275c-0.857,0.016-1.717-0.041-2.569,0.021c-0.284,0.021-0.548,0.312-0.821,0.479
				c0.208,0.186,0.444,0.349,0.62,0.561c0.298,0.361,0.559,0.75,0.835,1.129c-0.34,0.233-0.654,0.553-1.031,0.668
				c-0.299,0.091-0.678-0.05-1.014-0.121c-0.779-0.167-1.541-0.656-2.35-0.037c-0.107,0.084-0.397-0.08-0.605-0.116
				c-0.259-0.046-0.521-0.081-0.782-0.114c-0.611-0.076-1.22-0.186-1.833-0.215c-0.739-0.037-1.92-0.286-2.14,0.055
				c-0.631,0.979-2.167,1.172-2.196,2.641c-0.009,0.504-0.302,1.001-0.514,1.653c-0.221-0.292-0.39-0.514-0.566-0.747
				c-1.682,0.283-3.585-0.339-4.983,1.143c0.414,1.389,1.444,1.379,2.535,1.297c3.097-0.232,6.195-0.39,9.275,0.199
				c0.295,0.057,0.812,0.13,0.828,0.249c0.042,0.32-0.129,0.667-0.223,1.033c-1.355-0.399-2.422-0.15-3.43,0.638
				c-0.36,0.283-0.922,0.393-1.402,0.425c-1.284,0.092-1.357,0.152-1.014,1.519c0.912,0.119,1.868,0.209,2.803,0.399
				c0.162,0.033,0.386,0.55,0.321,0.765c-0.388,1.301-1.201,2.202-2.594,2.479c-0.769,0.151-1.635,0.149-2.28,0.522
				c-1.235,0.715-2.398,0.936-3.748,0.401c-0.56-0.224-1.377-0.476-1.802-0.231c-1.397,0.797-2.364,0.274-3.409-0.623
				c-0.759-0.653-1.69-0.965-2.782-0.574c0.142,0.297,0.245,0.559,0.386,0.798c0.936,1.58,1.397,3.31,1.64,5.11
				c0.197,1.466-0.619,2.271-2.069,1.981c-0.492-0.095-0.987-0.223-1.452-0.409c-0.53-0.214-0.993-0.352-1.438,0.168
				c-0.445,0.52-0.271,0.981,0.04,1.467c0.418,0.66,0.351,1.141-0.516,1.289c0-5.397,0-10.795,0-16.194
				c0.274,0.041,0.631-0.014,0.804,0.141c0.492,0.438,0.927,0.944,1.35,1.455c0.609,0.732,1.355,0.857,2.105,0.363
				c1.206-0.795,2.343-0.602,3.601-0.118c1.011,0.391,2.11,0.609,3.19,0.734c0.821,0.098,1.543-0.6,1.405-1.192
				c-0.212-0.903-0.962-0.588-1.483-0.475c-0.783,0.171-1.433-0.014-1.876-0.593c-0.827-1.076-1.821-1.19-3.026-0.819
				c-0.822,0.256-1.12-0.063-0.977-0.914c0.034-0.2,0.095-0.395,0.194-0.793c-1.685,0.499-2.708-0.39-3.247-1.608
				c-0.453-1.017-1.022-1.392-2.039-1.322c0-1.333,0-2.667,0-4.001C2.654,6.834,3.261,6.435,2.99,5.575
				C2.738,5.519,2.472,5.461,2.207,5.403c0-0.762,0-1.525,0-2.287c1.08,0.322,2.161,0.643,3.242,0.964
				c1.556-1.301,2.943-0.736,4.289,0.379c0.088,0.072,0.243,0.06,0.362,0.102c0.737,0.264,0.597,0.875,0.396,1.343
				c-0.194,0.444-0.606,0.575-1.09,0.183c-0.63-0.509-1.324-0.513-2.021-0.063c-1.29,0.835-2.59,1.654-3.941,2.516
				c0.567,0.944,1.036,1.726,1.57,2.617c1.476-1.458,3.063-2.496,5.147-1.097C9.977,9.748,9.793,9.438,9.535,9.002
				c1.23-0.408,2.372-0.881,3.56-1.15c1.167-0.267,2.378-0.349,3.575-0.461c0.332-0.031,0.68,0.124,1.023,0.187
				c0.229,0.042,0.46,0.073,0.749,0.118c0.007-0.941-0.662-1.143-1.203-1.502c-0.589-0.393-1.149-0.852-1.643-1.358
				c-0.857-0.879-1.644-1.829-2.488-2.722C12.95,1.947,12.64,1.796,12.43,1.829c-1.035,0.16-1.788-0.2-2.25-1.209
				C9.653,1.727,9.427,1.788,8.394,1.204C7.065,0.451,6.85,0.484,5.793,1.596C5.597,1.803,5.34,1.97,5.2,2.208
				C4.771,2.94,4.328,3.189,3.556,2.575C3.213,2.303,2.663,2.292,2.207,2.163c0-3.621,0-7.242,0-10.863
				c0.145,0,0.29-0.001,0.436-0.001C3.669-9.349,4.698-9.735,5.859-8.96c0.188,0.126,0.555-0.044,0.834-0.021
				c0.894,0.076,1.832,0.036,2.663,0.312c0.685,0.227,1.166,0.253,1.689-0.229c0.679-0.625,1.227-0.443,1.883,0.166
				c0.768,0.711,1.694,1.249,2.552,1.861c0.084-0.042,0.167-0.084,0.251-0.126c-0.42-1.681,1.833-2.364,1.419-4.179
				c-0.26,0.287-0.438,0.483-0.775,0.856c0.225-0.536,0.354-0.845,0.5-1.19c-0.231-0.163-0.429-0.313-0.637-0.448
				c-1.327-0.854-2.519-1.785-2.664-3.558c-0.019-0.231-0.547-0.482-0.883-0.612c-0.634-0.247-1.341-0.332-1.934-0.645
				c-0.275-0.144-0.51-0.679-0.475-1.006c0.029-0.26,0.483-0.651,0.771-0.671c0.743-0.051,1.497,0.063,2.246,0.125
				c0.716,0.063,1.44,0.253,2.142,0.185c0.696-0.067,1.084-0.688,0.822-1.323c-0.128-0.311-0.77-0.555-1.188-0.568
				c-0.68-0.021-1.366,0.229-2.052,0.252c-0.754,0.026-1.068-0.483-0.832-1.195c0.364-1.102,1.398-1.656,2.675-1.394
				c0.854,0.175,1.696,0.407,2.474,0.597c-0.117,0.303-0.231,0.599-0.344,0.894c0.314,0.102,0.624,0.267,0.945,0.29
				c0.503,0.038,1.039,0.077,1.516-0.054c2.401-0.655,4.633-0.165,6.833,0.832c1.837,0.832,3.785,1.38,5.803,1.265
				c0.995-0.057,1.989-0.526,2.929-0.934c0.264-0.115,0.479-0.688,0.447-1.025c-0.023-0.247-0.485-0.455-0.753-0.678
				c-0.706-0.594-1.51-1.106-2.088-1.805c-0.471-0.568-0.79-0.759-1.327-0.268c0.12,0.234,0.26,0.443,0.318,0.674
				c0.012,0.048-0.27,0.193-0.43,0.259c-0.337,0.139-0.737,0.185-1.016,0.395c-0.644,0.482-1.296,0.47-1.954,0.139
				c-0.848-0.425-1.673-0.894-2.494-1.367c-0.987-0.571-1.044-1.006-0.299-1.836c0.16-0.178,0.263-0.408,0.404-0.631
				c0.622,0.923,1.497,0.918,2.058,0.009c0.358-0.582,0.679-0.997,1.508-0.667c0.335,0.134,1.087-0.065,1.254-0.348
				c0.604-1.024,1.446-1.246,2.544-1.254c1.125-0.007,2.092,0.705,2.381,1.789c0.126,0.479,0.525,1.011,0.952,1.26
				c1.154,0.67,1.187,0.616,0.552,1.909c0.431,0.062,0.831,0.107,1.227,0.177c0.992,0.175,2.052,0.197,2.956,0.584
				c1.07,0.458,1.973,0.448,2.98-0.063c1.096-0.555,2.248-0.997,3.357-1.524c0.711-0.336,1.445-0.663,2.066-1.133
				c0.828-0.628,1.014-1.613,0.58-2.267c0.385-0.178,0.771-0.358,1.156-0.539c-0.391-0.766-0.84-0.685-1.25-0.254
				c-0.166-0.263-0.272-0.624-0.428-0.644c-0.879-0.114-0.75-0.679-0.641-1.26c6.396,0,12.795,0,19.246,0c0,4.192,0,8.384,0,12.577
				c-0.148,0.025-0.33,0.007-0.448,0.083c-0.338,0.216-0.646,0.472-0.97,0.711c0.268,0.177,0.523,0.374,0.803,0.525
				c0.188,0.101,0.411,0.14,0.615,0.206c0,1.715,0,3.43,0,5.146c-0.564,0.024-1.139,0.003-1.695,0.086
				c-0.926,0.139-1.854,0.301-2.755,0.551c-0.248,0.069-0.573,0.493-0.557,0.731c0.021,0.247,0.375,0.534,0.647,0.679
				c0.264,0.139,0.607,0.177,0.916,0.157c1.147-0.078,2.297-0.196,3.44-0.3c0,4.701,0,9.401,0,14.103
				c-0.591-0.171-1.19-0.31-1.771-0.521c-0.529-0.193-1.006-0.561-1.545-0.68c-1.086-0.241-2.205-0.344-3.302-0.553
				c-0.267-0.051-0.502-0.289-0.749-0.441c0.155-0.246,0.25-0.601,0.471-0.718c1.045-0.557,2.109-0.475,3.197,0.09
				c0.355-0.66,0.707-1.31,1.16-2.146c-0.967-0.075-1.744-0.12-2.518-0.202c-0.448-0.047-0.926-0.081-1.334-0.255
				c-1.074-0.462-1.17-0.45-1.67,0.861c-0.783-0.414-1.559-0.783-2.287-1.222c-0.724-0.435-1.4-0.941-1.984-1.339
				c-0.063,0.48,0,1.012-0.229,1.337c-0.146,0.209-0.728,0.148-1.108,0.146c-0.17-0.001-0.333-0.175-0.511-0.24
				c-0.926-0.336-1.854-0.662-2.785-0.991c-0.064,0.133-0.131,0.266-0.194,0.399c0.411,0.304,0.815,0.618,1.235,0.91
				c0.724,0.505,1.58,0.887,2.152,1.526c0.594,0.662,0.904,1.582,2.088,1.477c-0.472,0.135-0.916,0.182-1.246,0.011
				c-1.149-0.595-2.246-1.291-3.395-1.888c-0.296-0.152-0.721-0.16-1.059-0.093c-0.58,0.117-0.67-0.093-0.6-0.601
				c0.105-0.755-0.297-0.756-0.896-0.527c0.479,0.705,0.245,1.053-0.501,1.192c-0.496,0.093-1.037,0.163-1.453,0.414
				c-0.346,0.211-0.828,0.745-0.76,1.004c0.201,0.742,0.496,1.587,1.039,2.076c0.729,0.655,0.645,1.121,0.133,1.746l0.023-0.021
				c-0.545,0.679-1.246,0.885-2.106,0.82c-0.301-0.023-0.627,0.28-0.943,0.434c0.27,0.269,0.494,0.654,0.819,0.777
				c0.395,0.148,0.875,0.109,1.314,0.093c1.383-0.047,2.475,0.616,3.649,1.379c-0.907,0.772-1.729,1.469-2.546,2.166
				c0.061,0.08,0.111,0.161,0.169,0.24c1.334-0.107,2.327,0.606,3.231,1.402c1.387,1.215,2.924,1.788,4.781,1.676
				c0.641-0.036,1.336,0.246,1.945,0.524c0.859,0.39,2.673,0.027,3.324-0.642c0.343-0.35,0.881-0.569,1.371-0.707
				c0.511-0.141,1.078-0.063,1.604-0.164c1.333-0.25,1.691-0.825,1.598-2.193c-0.023-0.355,0.188-1.001,0.4-1.052
				c1.186-0.282,1.398-1.148,1.527-2.139c0.048-0.364,0.166-0.721,0.25-1.08c0,1.269,0,2.541,0,3.812
				c-0.938,0.188-1.508,0.751-1.705,1.688c-0.112,0.526-0.239,1.048-0.326,1.577c-0.188,1.141-0.477,2.219-1.449,2.983
				c-0.191,0.15-0.445,0.417-0.422,0.603c0.053,0.452,0.197,0.915,0.417,1.314c0.084,0.155,0.617,0.274,0.687,0.19
				c0.267-0.313,0.479-0.7,0.603-1.094c0.063-0.207-0.14-0.479-0.162-0.726c-0.11-1.068,0.229-1.423,1.31-1.493
				c0.355-0.023,0.703-0.183,1.055-0.281c0,5.462,0,10.927,0,16.389c-1.002,0.253-1.268-0.565-1.715-1.155
				c-0.252-0.332-0.637-0.898-0.867-0.854c-0.967,0.175-1.9,0.525-2.828,0.859c-0.123,0.047-0.146,0.357-0.214,0.54
				c0.442,0.091,0.815,0.14,1.169,0.254c0.73,0.236,1.385,0.81,1.057,1.517c-0.4,0.854-0.14,1.646-0.22,2.464
				c-5.147,0-10.291,0-15.438,0c0.652-0.343,1.275-0.888,1.963-0.987c1.431-0.207,2.895-0.2,4.343-0.238
				c1.323-0.035,2.347-0.668,3.569-1.607c-1.307,0.115-2.146-0.041-2.205-1.346c-0.01-0.197-0.42-0.451-0.689-0.552
				c-0.471-0.17-0.975-0.325-1.466-0.338c-0.63-0.016-0.66-0.351-0.604-0.81c0.084-0.695,0.606-0.881,1.166-0.854
				c0.973,0.054,1.957,0.126,2.908,0.313c2.082,0.41,3.197-0.163,3.566-2.075c-0.563-0.138-1.137-0.267-1.705-0.408
				c-0.426-0.104-0.906-0.137-1.252-0.366c-0.684-0.453-1.289-1.021-1.795-1.438c0.123-0.481,0.537-1.154,0.351-1.539
				c-0.336-0.7-1.062-0.394-1.678-0.125c0.179,0.39,0.336,0.737,0.608,1.343c-0.627-0.099-1.054-0.068-1.379-0.232
				c-1.105-0.562-1.095-0.584-1.563,0.631c-0.708,1.826-1.468,2.345-3.343,2.313c-0.824-0.011-1.651-0.032-2.478,0.011
				c-0.563,0.026-1.135,0.104-1.671,0.262c-0.917,0.279-1.103,0.932-0.559,1.728c0.176,0.255,0.351,0.513,0.617,0.897
				c-0.857,0.197-1.585,0.416-2.328,0.527c-0.792,0.116-1.316,0.36-1.226,1.312c0.073,0.749-0.41,0.963-1.085,0.97
				c-0.765,0.014-0.941-0.428-0.83-1.041c0.092-0.514,0.296-1.006,0.435-1.509c0.135-0.496,0.249-0.995,0.433-1.733
				c-0.565,0.223-0.806,0.291-1.018,0.41c-1.274,0.709-2.572,1.127-4.084,0.827c-1.021-0.199-1.38,0.331-1.106,1.36
				c0.057,0.217,0.113,0.433,0.205,0.634c0.375,0.827,0.037,1.284-0.776,1.438c-0.394,0.074-0.809,0.036-1.215,0.059
				c-0.868,0.041-1.735,0.104-2.604,0.124c-0.347,0.006-0.695-0.089-1.042-0.138c-0.506,0.068-1.451,0.321-1.476,0.646
				C28.166,36.025,27.167,35.954,26.408,36.275z M41.85-11.28c-0.506-0.012-1.013-0.015-1.519-0.039
				c-1.125-0.052-2.171,0.039-2.434,1.039c-0.736,0.209-1.301,0.232-1.689,0.507c-0.968,0.688-1.977,0.949-3.135,0.706
				c-0.494-0.104-0.998-0.164-1.499-0.226c-2.19-0.268-4.439-0.16-6.527-1.093c-0.346-0.154-0.873-0.159-1.218-0.009
				c-1.118,0.486-2.135,0.152-3.194-0.166c-0.506-0.151-0.937-0.043-1.19,0.594c-0.238,0.6-0.706,1.104-1.054,1.665
				c-0.351,0.563-0.678,1.14-0.965,1.625c1.021,0.124,1.914,0.183,2.786,0.351c0.915,0.176,1.805,0.469,2.711,0.691
				c0.487,0.119,1.021,0.118,1.464,0.32c0.286,0.13,0.643,0.559,0.61,0.808c-0.033,0.26-0.462,0.583-0.775,0.667
				c-0.445,0.122-0.942,0.054-1.417,0.061c-1.293,0.019-1.536,0.359-0.964,1.612c-1.077,0.229-2.122,0.45-3.167,0.672
				c0.012,0.146,0.023,0.293,0.035,0.439c0.689,0.102,1.377,0.203,2.148,0.317c0,0.447,0,0.898,0,1.457
				c1.685-0.36,2.899,0.451,4.072,1.356c1.288,0.993,2.804,1.208,4.359,1.44c2.12,0.313,3.654-1.24,5.563-1.571
				c0.501-0.086,0.44-0.631,0.047-0.863c-0.29-0.17-0.738-0.236-1.063-0.151c-0.887,0.23-1.73,0.631-2.62,0.829
				c-0.349,0.078-0.818-0.139-1.154-0.35c-0.167-0.105-0.301-0.622-0.204-0.729c0.246-0.271,0.627-0.421,0.963-0.603
				c0.074-0.04,0.2,0.021,0.28-0.015c0.242-0.106,0.632-0.201,0.67-0.366c0.045-0.204-0.144-0.574-0.34-0.697
				c-0.529-0.331-1.103-0.603-1.684-0.834c-0.556-0.221-1.21-0.26-1.695-0.572c-0.384-0.248-0.892-0.919-0.786-1.172
				c0.167-0.404,0.825-0.897,1.224-0.855c0.917,0.094,1.833,0.415,2.692,0.781c0.869,0.371,1.632,0.992,2.504,1.351
				c2.478,1.02,4.796,0.662,6.135-1.666c0.424-0.737,0.878-0.901,1.582-0.78c0.361,0.062,0.707,0.218,1.068,0.286
				c0.452,0.087,1.036,0.333,1.351,0.148c1.015-0.594,2.102-0.302,3.138-0.481c0.753-0.129,1.462-0.514,2.191-0.785
				c-0.037-0.125-0.074-0.25-0.112-0.376c-0.667-0.248-1.242,1.307-1.851,0.396c0.898-0.657,1.775-1.289,2.643-1.934
				c0.416-0.309,0.725-0.448,1.037,0.175c0.148,0.294,0.556,0.553,0.895,0.643c1.551,0.409,3.081,0.701,4.182,2.136
				c0.687,0.894,1.877,1.139,3.025,0.978c1-0.141,1.979-0.436,2.979-0.573c0.795-0.108,0.556-0.744,0.655-1.171
				c0.021-0.092-0.479-0.426-0.754-0.449c-0.789-0.063-1.588,0.004-2.384-0.033c-1.991-0.094-2.771-1.458-1.841-3.191
				c0.124-0.231,0.23-0.47,0.379-0.765c-1.794-0.191-3.836,0.603-4.648-1.705c-0.336,0-0.617,0-0.912,0
				c-0.229,0.804-0.461,1.608-0.69,2.416c-0.366,1.292-1.565,0.43-2.271,0.865C49.337-8.08,49.1-8.084,48.922-8.128
				c-0.357-0.092-0.826-0.136-1.027-0.381c-0.761-0.929-1.618-1.065-2.703-0.663c-0.543,0.201-1.421-0.596-1.136-0.886
				c0.956-0.97,0.831-1.952,0.339-3.032c-0.037-0.081,0.025-0.206,0.054-0.389c-0.402,0.033-0.844-0.064-0.996,0.104
				c-0.592,0.654-1.091,1.392-1.625,2.098L41.85-11.28z M47.77-19.759c-0.683,0.318-1.138,0.673-1.625,0.724
				c-0.733,0.075-1.267,0.238-1.24,1.075c0.026,0.798,0.286,1.363,1.259,1.466c0.43,0.046,1.136,0.504,1.158,0.817
				c0.057,0.757,0.395,1.201,0.908,1.67c0.801,0.733,0.748,1.091-0.121,1.712c0.863,0.487,1.798,0.606,2.797,0.184
				c1.779-0.754,3.553-1.047,5.434-0.354c0.348,0.127,1.085,0.027,1.203-0.199c0.753-1.441,1.928-1.86,3.469-1.901
				c1.078-0.028,2.139-0.46,3.223-0.592c0.899-0.109,1.117-0.349,1.012-1.276c-0.035-0.313,0.189-0.687,0.38-0.982
				c0.132-0.21,0.396-0.336,0.923-0.75c-2.229-0.091-3.218-1.008-2.729-3.094c-0.506-0.036-0.91-0.009-1.282-0.109
				c-0.39-0.107-0.961-0.252-1.071-0.531c-0.277-0.722-0.798-0.668-1.375-0.731c-0.742-0.081-1.477-0.269-2.301-0.428
				c-0.607,0.425-1.409,0.982-2.205,1.546c-0.592,0.42-1.195,0.829-1.757,1.29c-0.164,0.136-0.329,0.506-0.259,0.643
				c0.105,0.203,0.424,0.403,0.656,0.414c0.596,0.026,1.224,0.037,1.795-0.109c1.627-0.415,3.135-0.101,4.563,0.666
				c0.285,0.152,0.632,0.584,0.598,0.835c-0.043,0.281-0.451,0.594-0.769,0.723c-0.364,0.151-0.808,0.16-1.213,0.153
				c-1.283-0.019-2.259,0.415-2.884,1.619c-0.192,0.376-0.643,0.747-1.047,0.868c-1.472,0.439-2.983,0.577-4.479,0.106
				c-0.271-0.086-0.607-0.528-0.605-0.802c0.013-1.422,0.049-1.438-1.34-1.812c-0.767-0.205-1.109-0.668-1.078-1.449
				C47.784-18.827,47.77-19.285,47.77-19.759z M48.764,20.795c-1.094,0.328-2.224,0.655-3.348,1.006
				c-0.39,0.124-0.778,0.276-1.136,0.471c-1.193,0.666-1.395,0.672-2.202-0.407c-0.519-0.693-1.144-0.956-1.97-0.86
				c-0.408,0.045-0.822,0.061-1.231,0.104c-0.748,0.078-1.336-0.143-1.571-0.904c-0.247-0.803,0.074-1.393,0.848-1.656
				c0.714-0.243,1.452-0.443,2.196-0.56c1.594-0.244,3.205-0.388,4.795-0.65c0.47-0.079,1.053-0.339,0.843-1.025
				c-0.21-0.693-0.772-0.456-1.274-0.385c-1.05,0.148-2.105,0.253-3.157,0.39c-0.139,0.019-0.267,0.124-0.403,0.18
				c-0.447,0.187-0.885,0.483-1.347,0.532c-0.875,0.088-1.764,0.015-2.647,0.041c-1.917,0.053-2.422,0.583-2.722,1.833
				c0.204,0.082,0.422,0.14,0.611,0.246c0.299,0.166,0.85,0.438,0.821,0.537c-0.104,0.39-0.354,0.764-0.63,1.072
				c-0.202,0.227-0.559,0.307-0.79,0.514c-0.275,0.25-0.489,0.567-0.855,1.009c0.538,0.095,0.808,0.175,1.08,0.185
				c1.588,0.059,2.793,0.77,3.838,1.963c1.09,1.245,2.293,1.459,3.631,0.485c1.54-1.116,3.19-1.374,5.004-1.438
				c1.101-0.043,2.188-0.455,3.281-0.699c-0.019-0.115-0.031-0.229-0.049-0.344c-0.469-0.123-1.089-0.107-1.363-0.41
				C48.743,21.72,48.814,21.104,48.764,20.795z M39.181-15.348c-0.093-0.026-0.293-0.112-0.499-0.134
				c-1.976-0.204-3.955-0.385-5.931-0.598c-0.874-0.094-1.737-0.291-2.612-0.362c-1.115-0.091-2.167,0.135-2.887,1.085
				c-0.594,0.786-0.159,1.756,0.794,1.799c0.215,0.01,0.487-0.346,0.652-0.292c0.764,0.249,1.595,0.457,2.225,0.92
				c0.993,0.729,1.928,0.661,2.925,0.183C35.628-13.6,37.397-14.476,39.181-15.348z M64.137,29.484
				c1.108-1.78,1.115-2.172-0.072-3.449c-0.235-0.26-0.793-0.549-0.984-0.439c-0.313,0.176-0.589,0.659-0.62,1.032
				C62.348,27.905,63.087,28.749,64.137,29.484z M18.385,19.384c-0.916,0-1.785-0.02-2.649,0.019
				c-0.16,0.008-0.423,0.24-0.432,0.383c-0.01,0.146,0.21,0.41,0.371,0.445c0.841,0.188,1.696,0.324,2.607,0.485
				C18.322,20.191,18.35,19.829,18.385,19.384z M56.523-26.741c0.304,0.132,0.636,0.373,0.99,0.41
				c0.532,0.055,1.104,0.043,1.609-0.099c0.177-0.05,0.223-0.571,0.327-0.877c-0.313-0.049-0.658-0.198-0.943-0.126
				C57.848-27.265,57.212-26.99,56.523-26.741z M49.376,19.891c0.185,0.611,0.276,1.183,0.536,1.66
				c0.138,0.258,0.656,0.564,0.844,0.483c0.453-0.196,0.387-1.646-0.025-2.173C50.253,19.256,49.811,19.557,49.376,19.891z
				 M9.564,13.438c-0.72-0.16-1.221-0.267-1.855-0.409C8.234,14.292,8.439,14.345,9.564,13.438z"/>
			<path fill="#EADA7F" d="M2.207,32.652c0.866-0.15,0.934-0.629,0.516-1.289c-0.311-0.484-0.485-0.949-0.04-1.467
				c0.445-0.521,0.908-0.381,1.438-0.168c0.464,0.188,0.959,0.313,1.452,0.407c1.45,0.286,2.266-0.519,2.069-1.979
				c-0.242-1.805-0.704-3.532-1.64-5.112c-0.142-0.239-0.244-0.501-0.386-0.798c1.091-0.391,2.022-0.08,2.782,0.574
				c1.045,0.896,2.012,1.422,3.409,0.623c0.425-0.241,1.243,0.009,1.802,0.231c1.35,0.533,2.513,0.314,3.748-0.399
				c0.645-0.375,1.511-0.373,2.28-0.524c1.393-0.276,2.206-1.177,2.594-2.478c0.064-0.215-0.159-0.732-0.321-0.767
				c-0.935-0.19-1.892-0.28-2.803-0.397c-0.343-1.367-0.27-1.427,1.014-1.521c0.48-0.032,1.042-0.142,1.402-0.425
				c1.008-0.788,2.075-1.037,3.43-0.638c0.094-0.366,0.265-0.713,0.223-1.033c-0.016-0.119-0.533-0.191-0.828-0.249
				c-3.08-0.588-6.178-0.431-9.275-0.199c-1.091,0.082-2.122,0.092-2.535-1.297c1.398-1.482,3.302-0.86,4.983-1.143
				c0.176,0.233,0.345,0.454,0.566,0.747c0.212-0.652,0.505-1.149,0.514-1.653c0.029-1.469,1.564-1.662,2.196-2.641
				c0.22-0.341,1.401-0.091,2.14-0.055c0.613,0.029,1.223,0.139,1.833,0.215c0.261,0.033,0.523,0.068,0.782,0.114
				c0.208,0.036,0.498,0.2,0.605,0.116c0.81-0.619,1.571-0.13,2.35,0.037c0.336,0.07,0.715,0.212,1.014,0.121
				c0.377-0.115,0.691-0.436,1.031-0.668c-0.276-0.378-0.537-0.768-0.835-1.129c-0.176-0.212-0.412-0.375-0.62-0.561
				c0.273-0.167,0.537-0.458,0.821-0.479c0.853-0.062,1.712-0.005,2.569-0.021c0.876-0.016,1.408-0.405,1.777-1.275
				c0.238-0.562,0.854-1.156,1.427-1.342c1.094-0.354,2.015-0.771,2.674-1.785c0.282-0.434,0.87-0.85,1.372-0.928
				c1.434-0.219,2.893-0.285,4.346-0.35c0.269-0.012,0.61,0.204,0.815,0.416c0.343,0.354,0.413,0.785-0.223,0.893
				c-0.681,0.114-1.379,0.106-2.066,0.198c-0.491,0.065-1.065,0.081-1.433,0.35c-0.363,0.266-0.738,0.84-0.708,1.25
				c0.052,0.701,0.642,1.069,1.386,0.975c0.565-0.072,1.122-0.274,1.684-0.278c0.342-0.003,0.687,0.257,1.029,0.399
				c-0.265,0.247-0.494,0.572-0.805,0.718c-0.325,0.153-0.736,0.113-1.101,0.195c-0.457,0.102-1.129,0.097-1.318,0.389
				c-0.77,1.199-1.894,0.913-2.975,0.92c-0.31,0.002-0.679-0.019-0.918,0.133c-0.553,0.351-0.468,0.806,0,1.308
				c0.639-0.914,1.304-0.63,2.252-0.477c1.504,0.241,2.287,1.487,3.6,1.877c0.809,0.242,1.11,0.943,0.947,1.753
				c-0.165,0.809-0.701,1.297-1.556,1.229c-0.985-0.078-1.963-0.256-2.948-0.349c-0.262-0.023-0.538,0.107-0.782,0.373
				c0.284,0,0.569,0,0.863,0c0.281,0.583,0.545,1.132,0.774,1.608c-1.299,0.375-2.493,0.745-3.702,1.052
				c-0.316,0.083-0.759,0.093-1.007-0.07c-1.676-1.104-2.989-0.219-4.336,0.681c-0.774,0.515-1.613,0.938-2.382,1.462
				c-0.329,0.223-0.746,0.573-0.788,0.911c-0.093,0.722-0.005,1.477,0.078,2.207c0.142,1.26,0.984,2.017,2.223,1.992
				c0.877-0.016,1.397,0.217,1.8,1.143c0.241,0.555,1.177,0.879,1.864,1.144c1.024,0.396,1.328,1.28,0.635,2.198
				c-1.121,1.488-3.305,2.092-5.049,1.34c-0.576-0.25-1.181-0.546-1.619-0.979c-2.226-2.198-4.887-2.404-7.77-1.896
				c-1.146,0.203-2.152,0.164-3.375-0.469c-1.167-0.604-2.945-0.876-4.385-0.094c-0.361,0.197-0.576,0.869-0.616,1.343
				c-0.016,0.194,0.579,0.56,0.942,0.646c0.546,0.131,1.139,0.045,1.7,0.131c0.394,0.058,0.768,0.246,1.246,0.408
				c-0.678,1.07-1.654,0.922-2.474,1.101c-0.616,0.135-1.302,0.034-1.872,0.257c-0.495,0.191-1.246,0.705-1.234,1.054
				c0.047,1.427-0.469,2.394-1.884,2.938c0.418,0.298,0.691,0.492,1.002,0.715c-0.317,0.716-0.689,0.927-1.261,0.294
				c-0.127-0.142-0.228-0.349-0.386-0.411c-0.32-0.127-0.672-0.174-1.01-0.255c-0.076,0.368-0.292,0.778-0.195,1.094
				c0.155,0.501,0.521,0.935,0.798,1.396c-1.779,0-3.558,0-5.336,0C2.207,35.068,2.207,33.861,2.207,32.652z M33.145,8.925
				c-0.969,0.388-1.766,0.707-2.677,1.074C31.734,10.646,32.712,10.295,33.145,8.925z M26.032,22.934
				c-0.262-0.234-0.507-0.642-0.769-0.651c-0.402-0.017-0.843,0.192-1.202,0.409c-0.077,0.05,0.081,0.781,0.208,0.808
				C24.892,23.619,25.59,23.764,26.032,22.934z M17.449,25.367c0.884-0.398,1.426-0.645,1.968-0.891
				c-0.03-0.141-0.061-0.276-0.09-0.418c-0.597,0.051-1.203,0.063-1.78,0.191C17.453,24.275,17.487,24.852,17.449,25.367z"/>
			<path fill="#FFFFFF" d="M49.086-29.853c-0.109,0.581-0.238,1.146,0.641,1.26c0.152,0.02,0.26,0.381,0.426,0.644
				c0.412-0.431,0.861-0.512,1.25,0.254c-0.389,0.181-0.771,0.361-1.154,0.539c0.432,0.653,0.248,1.638-0.58,2.267
				c-0.621,0.47-1.355,0.797-2.066,1.133c-1.113,0.528-2.264,0.97-3.357,1.524c-1.008,0.511-1.911,0.521-2.98,0.063
				c-0.904-0.387-1.963-0.409-2.956-0.584c-0.396-0.07-0.795-0.116-1.227-0.177c0.634-1.293,0.602-1.239-0.552-1.909
				c-0.426-0.249-0.826-0.781-0.952-1.26c-0.289-1.083-1.256-1.796-2.381-1.789c-1.098,0.008-1.939,0.229-2.544,1.254
				c-0.167,0.282-0.919,0.482-1.254,0.348c-0.829-0.33-1.15,0.085-1.508,0.667c-0.561,0.91-1.436,0.914-2.058-0.009
				c-0.141,0.224-0.244,0.453-0.404,0.631c-0.745,0.831-0.688,1.266,0.299,1.836c0.821,0.473,1.646,0.942,2.494,1.367
				c0.658,0.331,1.31,0.343,1.954-0.139c0.279-0.209,0.679-0.255,1.016-0.394c0.16-0.066,0.442-0.211,0.43-0.259
				c-0.058-0.23-0.198-0.44-0.318-0.674c0.537-0.491,0.856-0.3,1.327,0.268c0.578,0.699,1.382,1.211,2.088,1.805
				c0.268,0.224,0.73,0.431,0.753,0.678c0.032,0.338-0.184,0.911-0.447,1.025c-0.94,0.408-1.934,0.877-2.929,0.934
				c-2.018,0.115-3.965-0.434-5.803-1.265c-2.2-0.997-4.432-1.487-6.833-0.832c-0.477,0.131-1.013,0.092-1.516,0.054
				c-0.321-0.023-0.63-0.188-0.945-0.29c0.113-0.295,0.228-0.591,0.344-0.894c-0.778-0.189-1.62-0.421-2.474-0.597
				c-1.277-0.263-2.312,0.292-2.675,1.394c-0.236,0.711,0.078,1.222,0.832,1.195c0.687-0.024,1.372-0.275,2.052-0.252
				c0.418,0.014,1.061,0.258,1.188,0.568c0.262,0.635-0.126,1.255-0.822,1.323c-0.701,0.068-1.426-0.123-2.142-0.185
				c-0.749-0.063-1.503-0.176-2.246-0.125c-0.287,0.021-0.742,0.411-0.771,0.671c-0.035,0.327,0.2,0.862,0.475,1.006
				c0.593,0.313,1.3,0.398,1.934,0.646c0.336,0.13,0.865,0.381,0.883,0.612c0.145,1.772,1.337,2.704,2.664,3.558
				c0.208,0.135,0.406,0.285,0.637,0.448c-0.146,0.345-0.275,0.655-0.5,1.19c0.338-0.373,0.516-0.569,0.775-0.856
				c0.414,1.815-1.839,2.498-1.419,4.179c-0.084,0.042-0.167,0.084-0.251,0.126c-0.858-0.613-1.784-1.15-2.552-1.861
				c-0.656-0.609-1.204-0.791-1.883-0.166c-0.523,0.482-1.004,0.456-1.689,0.229C8.525-8.95,7.587-8.91,6.693-8.987
				C6.414-9.009,6.047-8.839,5.859-8.966c-1.161-0.775-2.19-0.389-3.216,0.259c0.245-0.458,0.489-0.917,0.794-1.488
				c-0.311-0.105-0.771-0.261-1.23-0.415c0-0.636,0-1.271,0-1.906c1.02-0.017,2.089,0.059,2.375-1.339
				c0.372,0.166,0.684,0.413,1.002,0.42c0.399,0.01,0.803-0.175,1.205-0.276c-0.122-0.397-0.128-1.004-0.388-1.146
				c-0.483-0.262-1.111-0.28-1.684-0.346c-0.365-0.042-0.739,0.016-1.109,0.021c-1.036,0.014-0.938-1.014-1.399-1.527
				c0-0.19,0-0.382,0-0.572c1.019,0.421,2.038,0.84,3.063,1.264c0.009-0.051-0.007-0.2,0.06-0.276
				c0.928-1.053,0.887-1.004-0.264-1.916c-0.54-0.428-0.88-1.108-1.397-1.79c1.067-0.228,1.83-0.389,2.59-0.551
				c-0.022-0.111-0.046-0.222-0.069-0.334c-0.823,0.059-1.646,0.117-2.468,0.175c-0.35-1.056-0.699-2.112-1.07-3.228
				c0.903,0,1.909,0.61,2.593-0.463c-0.321-0.402-0.785-0.74-0.902-1.173c-0.392-1.452-0.721-1.789-2.136-1.808
				c0-0.825,0-1.652,0-2.478c1.27,0,2.541,0,3.811,0c0.508,0.521,1.016,1.042,1.523,1.563c0.078-0.066,0.155-0.133,0.234-0.199
				c0.03-0.261,0.062-0.522,0.094-0.804c1.272,0.56,2.481,0.924,3.68,0c0.26,0.309,0.473,0.697,0.8,0.893
				c0.168,0.101,0.541-0.144,0.823-0.231c-0.009-0.106-0.018-0.213-0.027-0.319c-0.539-0.107-1.079-0.214-1.618-0.32
				c0.499-0.024,1.149-0.259,1.469-0.031c0.839,0.6,1.602,0.935,2.66,0.283c-0.154,0.474-0.349,0.911-0.646,0.997
				c-0.595,0.172-1.245,0.138-1.87,0.215c-0.49,0.06-0.976,0.16-1.463,0.242c0.021,0.094,0.044,0.188,0.066,0.281
				c1.757,0.277,3.468,0.332,4.779-1.254c0.746,1.263,1.767,1.687,3.032,1.647c-0.011,0.78,0.471,0.586,0.934,0.511
				c0.744-0.121,1.638-0.663,2.072,0.639c0.03-0.389-0.009-0.778-0.212-0.908c-0.977-0.621-0.618-1.967-1.479-2.642
				c-0.049-0.038,0.129-0.367,0.202-0.56c1.334,0,2.668,0,4.002,0c0.258,0.668,0.447,1.379,0.81,1.987
				c0.152,0.256,0.672,0.293,1.024,0.429c0.006-0.373,0.083-0.76,0.003-1.113c-0.102-0.449-0.329-0.87-0.503-1.303
				c1.081,0,2.161,0,3.24,0c0.632,0.967,1.083,0.967,1.715,0c3.621,0,7.242,0,10.863,0c0.083,0.833-0.526,0.895-1.098,0.954
				c-0.88,0.09-1.768,0.117-2.647,0.218c-0.798,0.093-1.449,0.863-1.316,1.585c0.136,0.748,0.485,1.23,1.419,1.069
				c0.982-0.171,1.843,0.215,2.628,0.838c1.161,0.923,1.921,0.934,3.046-0.03c0.871-0.746,1.773-1.007,2.89-0.718
				c0.951,0.245,1.763,0.009,2.187-0.92c-1.491-1.444-3.294-1.737-5.268-1.445c-0.234,0.035-0.505-0.161-0.76-0.25
				c0.568-0.296,1.106-0.333,1.614-0.479c0.829-0.237,1.638-0.545,2.454-0.824C47.941-29.853,48.514-29.853,49.086-29.853z
				 M23.062-23.768c-1.775,0.048-3.104,0.877-4.44,1.688C20.164-22.309,21.908-21.953,23.062-23.768z M15.629-26.733
				c0.033,0.108,0.067,0.215,0.101,0.323c0.631,0.195,1.208,0.264,1.403-0.805C16.573-27.035,16.101-26.885,15.629-26.733z
				 M9.887-15.386c0.051-0.146,0.103-0.287,0.154-0.43c-0.4-0.159-0.8-0.316-1.2-0.475c-0.048,0.112-0.097,0.225-0.146,0.338
				C9.093-15.764,9.489-15.575,9.887-15.386z M13.134-14.986c0.001-0.077,0.002-0.153,0.003-0.228c-0.511,0-1.022,0-1.532,0
				c0.003,0.103,0.007,0.204,0.01,0.306C12.122-14.935,12.628-14.96,13.134-14.986z"/>
			<path fill="#EADA7F" d="M68.332,7.69c-0.083,0.358-0.202,0.715-0.25,1.08c-0.129,0.99-0.344,1.856-1.527,2.139
				c-0.212,0.051-0.427,0.696-0.4,1.052c0.098,1.368-0.264,1.943-1.598,2.193c-0.523,0.1-1.094,0.021-1.604,0.164
				c-0.49,0.137-1.028,0.356-1.37,0.707c-0.651,0.669-2.466,1.031-3.325,0.642c-0.609-0.279-1.307-0.561-1.945-0.524
				c-1.856,0.112-3.396-0.461-4.779-1.676c-0.906-0.796-1.899-1.51-3.233-1.402c-0.056-0.079-0.108-0.16-0.169-0.24
				c0.819-0.697,1.641-1.394,2.547-2.166c-1.178-0.764-2.269-1.427-3.65-1.379c-0.439,0.016-0.92,0.055-1.314-0.093
				c-0.325-0.123-0.549-0.508-0.819-0.777c0.316-0.154,0.642-0.457,0.943-0.434c0.863,0.065,1.562-0.141,2.106-0.82
				c0.215,0.972,0.418,1.069,1.559,0.604c-0.6-0.22-1.091-0.401-1.582-0.582c0.514-0.625,0.598-1.091-0.132-1.746
				c-0.543-0.488-0.839-1.333-1.039-2.076c-0.069-0.259,0.413-0.792,0.765-1.004c0.416-0.251,0.957-0.321,1.452-0.414
				c0.747-0.14,0.979-0.487,0.501-1.192c0.602-0.229,1.004-0.229,0.896,0.527c-0.07,0.508,0.019,0.718,0.6,0.601
				c0.337-0.067,0.764-0.06,1.059,0.093c1.146,0.597,2.242,1.293,3.394,1.888c0.331,0.171,0.774,0.124,1.247-0.011
				c-1.184,0.105-1.495-0.813-2.09-1.477c-0.57-0.64-1.43-1.021-2.151-1.526c-0.42-0.292-0.823-0.606-1.233-0.91
				c0.063-0.133,0.129-0.266,0.193-0.399c0.932,0.33,1.857,0.655,2.784,0.991c0.178,0.064,0.341,0.239,0.511,0.24
				c0.385,0.002,0.963,0.064,1.108-0.146c0.229-0.325,0.164-0.856,0.229-1.337c0.584,0.396,1.264,0.904,1.983,1.339
				c0.729,0.439,1.505,0.808,2.287,1.222c0.5-1.311,0.596-1.323,1.671-0.861c0.406,0.175,0.885,0.208,1.334,0.255
				c0.771,0.083,1.55,0.127,2.518,0.202c-0.453,0.835-0.805,1.486-1.16,2.146c-1.088-0.565-2.15-0.647-3.197-0.09
				c-0.221,0.117-0.313,0.473-0.471,0.718c0.248,0.152,0.481,0.39,0.75,0.441c1.096,0.208,2.215,0.312,3.301,0.553
				c0.539,0.119,1.016,0.487,1.545,0.68c0.576,0.211,1.18,0.351,1.77,0.521C68.332,6.165,68.332,6.927,68.332,7.69z M49.18,5.582
				c0.903,0.402,1.248,0.294,1.317-0.402c0.058-0.568,0.118-1.137,0.206-1.982c-0.291,0.567-0.446,0.945-0.667,1.281
				C49.781,4.866,49.469,5.215,49.18,5.582z M61.05,7.858c0.823-0.374,0.972-0.926,0.646-1.771
				c-0.273-0.715-0.473-0.828-1.266-0.575C61.504,6.019,61.518,6.814,61.05,7.858z M61.702,3.856
				c-0.138,0.13-0.274,0.261-0.411,0.392c0.293,0.287,0.582,0.575,0.872,0.862c0.12-0.123,0.354-0.338,0.342-0.354
				C62.256,4.442,61.977,4.152,61.702,3.856z M63.605,8.831c-0.625-0.882-1.086-0.963-1.729-0.358
				C62.432,8.588,62.963,8.697,63.605,8.831z"/>
			<path fill="#FFFFFF" d="M26.408,36.275c0.759-0.321,1.758-0.25,1.855-1.533c0.024-0.322,0.97-0.575,1.476-0.646
				c0.347,0.049,0.696,0.146,1.042,0.137c0.868-0.02,1.735-0.082,2.604-0.123c0.406-0.021,0.821,0.021,1.215-0.059
				c0.813-0.154,1.151-0.611,0.776-1.438c-0.091-0.201-0.147-0.418-0.205-0.635c-0.274-1.028,0.085-1.562,1.106-1.359
				c1.512,0.3,2.81-0.118,4.084-0.827c0.212-0.119,0.453-0.188,1.018-0.41c-0.184,0.738-0.298,1.237-0.433,1.733
				c-0.139,0.503-0.343,0.994-0.435,1.509c-0.112,0.612,0.065,1.054,0.83,1.041c0.675-0.007,1.158-0.222,1.085-0.972
				c-0.09-0.946,0.434-1.19,1.226-1.312c0.743-0.11,1.471-0.331,2.328-0.526c-0.266-0.387-0.441-0.645-0.617-0.896
				c-0.544-0.796-0.358-1.448,0.559-1.729c0.536-0.157,1.109-0.231,1.671-0.263c0.823-0.043,1.65-0.02,2.476-0.009
				c1.877,0.027,2.637-0.49,3.345-2.314c0.472-1.215,0.458-1.188,1.563-0.631c0.326,0.163,0.75,0.137,1.377,0.233
				c-0.271-0.604-0.431-0.953-0.606-1.345c0.616-0.266,1.342-0.573,1.678,0.125c0.188,0.387-0.226,1.06-0.35,1.539
				c0.505,0.416,1.11,0.981,1.794,1.438c0.346,0.229,0.824,0.265,1.252,0.368c0.566,0.145,1.143,0.271,1.705,0.408
				c-0.369,1.91-1.484,2.486-3.566,2.074c-0.951-0.188-1.938-0.264-2.906-0.313c-0.562-0.027-1.082,0.156-1.166,0.854
				c-0.059,0.459-0.023,0.793,0.604,0.811c0.493,0.014,0.997,0.168,1.466,0.338c0.272,0.102,0.683,0.354,0.69,0.553
				c0.058,1.303,0.898,1.461,2.207,1.344c-1.229,0.939-2.246,1.574-3.572,1.607c-1.448,0.039-2.912,0.032-4.34,0.239
				c-0.688,0.101-1.313,0.646-1.963,0.985c-0.571,0-1.145,0-1.715,0c0.399-1.004,0.283-1.291-0.715-1.713
				c-0.805-0.343-1.611-0.677-2.414-1.013c0.293-0.104,0.583-0.213,0.873-0.319c-0.201-0.248-0.403-0.498-0.604-0.746
				c-0.082,0.045-0.162,0.096-0.242,0.141c0,0.316,0,0.634,0,0.947c-0.184-0.01-0.392-0.08-0.547-0.021
				c-0.486,0.196-1.086,0.332-1.381,0.702c-0.224,0.286-0.087,0.89-0.042,1.344c0.024,0.233,0.198,0.452,0.306,0.681
				C37.335,36.275,31.871,36.275,26.408,36.275z"/>
			<path fill="#EADA7F" d="M2.207,2.163c0.456,0.129,1.006,0.14,1.349,0.412C4.328,3.189,4.771,2.94,5.2,2.208
				C5.34,1.97,5.597,1.803,5.793,1.596C6.85,0.484,7.065,0.451,8.394,1.204c1.033,0.584,1.259,0.523,1.786-0.585
				c0.462,1.009,1.215,1.369,2.25,1.209c0.21-0.033,0.52,0.119,0.678,0.285c0.844,0.893,1.63,1.843,2.488,2.722
				c0.494,0.507,1.054,0.966,1.643,1.358c0.541,0.36,1.209,0.562,1.203,1.502c-0.288-0.045-0.519-0.077-0.749-0.118
				C17.35,7.515,17.002,7.36,16.67,7.391c-1.196,0.112-2.408,0.194-3.575,0.461c-1.188,0.27-2.33,0.742-3.56,1.15
				c0.258,0.436,0.442,0.746,0.626,1.058C8.077,8.661,6.49,9.699,5.015,11.157C4.48,10.266,4.012,9.484,3.444,8.54
				c1.351-0.861,2.65-1.681,3.941-2.516c0.697-0.45,1.391-0.446,2.021,0.063c0.484,0.392,0.896,0.261,1.089-0.183
				c0.202-0.468,0.342-1.08-0.395-1.343c-0.118-0.042-0.274-0.03-0.362-0.102C8.392,3.343,7.004,2.778,5.448,4.08
				c-1.08-0.322-2.161-0.643-3.241-0.964C2.207,2.798,2.207,2.481,2.207,2.163z"/>
			<path fill="#EADA7F" d="M2.207,11.31c1.017-0.07,1.586,0.306,2.04,1.328c0.539,1.218,1.563,2.107,3.247,1.608
				c-0.099,0.397-0.16,0.592-0.194,0.792c-0.144,0.853,0.154,1.17,0.977,0.914c1.205-0.372,2.199-0.257,3.026,0.819
				c0.444,0.579,1.094,0.764,1.876,0.593c0.521-0.113,1.271-0.428,1.483,0.475c0.138,0.594-0.584,1.29-1.405,1.194
				c-1.08-0.125-2.179-0.346-3.19-0.736c-1.257-0.483-2.395-0.677-3.601,0.118c-0.75,0.495-1.496,0.369-2.105-0.363
				c-0.423-0.511-0.858-1.017-1.35-1.455c-0.173-0.155-0.53-0.101-0.804-0.141C2.207,14.74,2.207,13.024,2.207,11.31z"/>
			<path d="M47.372-29.853c-0.817,0.278-1.625,0.586-2.454,0.824c-0.507,0.146-1.045,0.182-1.614,0.479
				c0.255,0.088,0.525,0.284,0.76,0.25c1.974-0.292,3.777,0.001,5.268,1.445c-0.424,0.93-1.234,1.166-2.186,0.92
				c-1.117-0.29-2.02-0.028-2.891,0.718c-1.125,0.964-1.885,0.953-3.046,0.03c-0.785-0.623-1.646-1.009-2.628-0.838
				c-0.934,0.161-1.283-0.321-1.419-1.069c-0.133-0.723,0.518-1.493,1.316-1.585c0.879-0.102,1.767-0.128,2.647-0.218
				c0.572-0.06,1.182-0.121,1.098-0.954C43.941-29.853,45.655-29.853,47.372-29.853z"/>
			<path d="M11.549-29.293c-1.198,0.924-2.407,0.561-3.68,0c-0.033,0.281-0.064,0.542-0.094,0.804
				c-0.079,0.066-0.156,0.133-0.234,0.199c-0.508-0.52-1.016-1.042-1.523-1.563c5.019,0,10.037,0,15.055,0
				c-0.072,0.193-0.251,0.522-0.202,0.56c0.861,0.674,0.502,2.021,1.479,2.642c0.203,0.129,0.242,0.519,0.212,0.908
				c-0.434-1.301-1.328-0.759-2.072-0.639c-0.463,0.075-0.944,0.27-0.934-0.511c-1.266,0.04-2.287-0.384-3.032-1.647
				c-1.312,1.586-3.022,1.531-4.779,1.254c-0.022-0.094-0.045-0.188-0.066-0.281c0.488-0.082,0.973-0.182,1.463-0.242
				c0.625-0.077,1.275-0.043,1.87-0.215c0.296-0.086,0.491-0.523,0.645-0.997c-1.059,0.652-1.821,0.317-2.66-0.283
				c-0.319-0.229-0.97,0.007-1.469,0.031L11.549-29.293z"/>
			<path fill="#FFFFFF" d="M64.714,36.275c0.08-0.815-0.183-1.607,0.22-2.465c0.328-0.705-0.324-1.276-1.057-1.516
				c-0.354-0.115-0.727-0.164-1.169-0.254c0.065-0.186,0.091-0.495,0.214-0.54c0.928-0.334,1.862-0.688,2.828-0.86
				c0.23-0.047,0.615,0.522,0.868,0.854c0.446,0.59,0.712,1.407,1.714,1.153c0,1.078,0.014,2.16-0.016,3.238
				c-0.004,0.133-0.236,0.256-0.365,0.383c0.105-0.932-0.594-1.039-1.207-1.043c-0.719-0.006-1.592-0.071-1.648,1.043
				C64.968,36.275,64.84,36.275,64.714,36.275z"/>
			<path fill="#FFFFFF" d="M68.332,16.265c-0.352,0.099-0.695,0.258-1.055,0.281c-1.078,0.07-1.42,0.425-1.31,1.493
				c0.024,0.246,0.228,0.518,0.162,0.725c-0.123,0.396-0.336,0.78-0.603,1.094c-0.066,0.084-0.602-0.034-0.686-0.189
				c-0.221-0.398-0.365-0.861-0.418-1.314c-0.021-0.187,0.229-0.453,0.422-0.603c0.975-0.764,1.264-1.843,1.449-2.983
				c0.087-0.529,0.215-1.051,0.326-1.577c0.197-0.936,0.77-1.499,1.705-1.688C68.332,13.088,68.332,14.676,68.332,16.265z"/>
			<path d="M44.432,33.551c0.805,0.336,1.612,0.67,2.416,1.012c1,0.422,1.116,0.709,0.715,1.713c-1.587,0-3.178,0-4.766,0
				c-0.107-0.227-0.281-0.442-0.306-0.678c-0.045-0.457-0.182-1.059,0.042-1.345c0.295-0.37,0.896-0.506,1.381-0.702
				c0.155-0.061,0.363,0.012,0.547,0.021L44.432,33.551z"/>
			<path d="M2.207-27.375c1.415,0.019,1.744,0.356,2.136,1.808c0.117,0.433,0.581,0.771,0.902,1.173
				c-0.685,1.073-1.69,0.463-2.593,0.463c0.371,1.116,0.72,2.171,1.07,3.228l0.027-0.019c-0.514,0.069-1.027,0.139-1.541,0.208
				C2.207-22.802,2.207-25.089,2.207-27.375z"/>
			<path d="M3.721-20.704c0.822-0.058,1.645-0.116,2.468-0.175c0.023,0.112,0.047,0.223,0.069,0.334
				c-0.76,0.162-1.522,0.323-2.59,0.551c0.517,0.682,0.857,1.362,1.397,1.79c1.151,0.912,1.191,0.863,0.264,1.916
				c-0.067,0.076-0.051,0.225-0.06,0.276c-1.025-0.423-2.044-0.843-3.063-1.264c0-0.699,0-1.397,0-2.095
				c0.725-0.211,1.388-0.491,1.541-1.352L3.721-20.704z"/>
			<path fill="#FFFFFF" d="M68.332-8.7c-1.146,0.104-2.293,0.223-3.441,0.3c-0.308,0.02-0.654-0.019-0.916-0.157
				c-0.271-0.146-0.629-0.432-0.646-0.679c-0.02-0.238,0.311-0.662,0.557-0.731c0.901-0.25,1.829-0.413,2.758-0.551
				c0.557-0.083,1.131-0.062,1.692-0.086C68.332-9.97,68.332-9.335,68.332-8.7z"/>
			<path d="M2.207-16.703c0.462,0.513,0.363,1.541,1.399,1.527c0.37-0.005,0.745-0.064,1.109-0.021
				c0.573,0.066,1.201,0.084,1.684,0.346c0.26,0.142,0.267,0.749,0.388,1.146c-0.401,0.101-0.806,0.286-1.205,0.276
				c-0.318-0.008-0.63-0.254-1.002-0.42c-0.285,1.398-1.355,1.323-2.375,1.339C2.207-13.908,2.207-15.306,2.207-16.703z"/>
			<path d="M26.408-29.853c0.174,0.433,0.402,0.854,0.503,1.303c0.08,0.353,0.003,0.74-0.003,1.113
				c-0.352-0.136-0.872-0.173-1.024-0.429c-0.363-0.607-0.552-1.318-0.81-1.987C25.52-29.853,25.964-29.853,26.408-29.853z"/>
			<path d="M65.096,36.275c0.057-1.117,0.93-1.049,1.648-1.043c0.613,0.002,1.313,0.108,1.207,1.043
				C67.001,36.275,66.047,36.275,65.096,36.275z"/>
			<path fill="#FFFFFF" d="M68.332-15.75c-0.204-0.066-0.428-0.104-0.615-0.206c-0.279-0.151-0.535-0.348-0.803-0.525
				c0.322-0.239,0.632-0.495,0.97-0.711c0.118-0.077,0.3-0.059,0.448-0.083C68.332-16.767,68.332-16.259,68.332-15.75z"/>
			<path d="M2.207-10.604c0.459,0.154,0.919,0.31,1.23,0.415c-0.305,0.572-0.55,1.03-0.794,1.488C2.497-8.701,2.352-8.7,2.207-8.7
				C2.207-9.335,2.207-9.97,2.207-10.604z"/>
			<path fill="#FFFFFF" d="M3.748-20.723c-0.153,0.861-0.816,1.141-1.541,1.352c0-0.382,0-0.763,0-1.145
				C2.72-20.584,3.234-20.653,3.748-20.723z"/>
			<path fill="#FFFFFF" d="M2.207,5.403C2.473,5.461,2.738,5.519,2.99,5.574c0.271,0.86-0.335,1.26-0.783,1.734
				C2.207,6.672,2.207,6.038,2.207,5.403z"/>
			<path fill="#FFFFFF" d="M21.263,36.275c0.225-0.265,0.449-0.522,0.541-0.629c1.156,0.232,2.118,0.434,3.081,0.629
				C23.677,36.275,22.471,36.275,21.263,36.275z"/>
			<path d="M31.363-29.853c-0.632,0.967-1.083,0.967-1.715,0C30.22-29.853,30.792-29.853,31.363-29.853z"/>
			<path fill="#EADA7F" d="M41.831-11.28c0.535-0.707,1.034-1.444,1.625-2.098c0.152-0.167,0.594-0.071,0.996-0.104
				c-0.029,0.183-0.091,0.309-0.054,0.389c0.491,1.08,0.616,2.062-0.339,3.032c-0.286,0.29,0.593,1.086,1.136,0.886
				c1.085-0.402,1.942-0.266,2.702,0.663c0.201,0.245,0.67,0.289,1.028,0.381c0.177,0.044,0.415,0.048,0.56-0.041
				c0.705-0.436,1.904,0.427,2.271-0.865c0.229-0.807,0.461-1.612,0.689-2.416c0.297,0,0.576,0,0.912,0
				c0.813,2.307,2.855,1.513,4.649,1.705c-0.146,0.295-0.255,0.534-0.379,0.765c-0.931,1.733-0.151,3.097,1.843,3.191
				c0.793,0.038,1.592-0.03,2.381,0.033c0.273,0.021,0.773,0.356,0.754,0.449c-0.102,0.427,0.141,1.063-0.654,1.171
				c-1,0.137-1.979,0.432-2.979,0.573c-1.148,0.161-2.344-0.084-3.025-0.978c-1.102-1.435-2.631-1.727-4.182-2.136
				c-0.341-0.089-0.744-0.348-0.896-0.642c-0.313-0.624-0.621-0.484-1.037-0.175c-0.866,0.645-1.743,1.277-2.645,1.934
				c0.609,0.91,1.186-0.644,1.853-0.396c0.038,0.125,0.075,0.251,0.11,0.376c-0.729,0.271-1.438,0.656-2.189,0.785
				c-1.036,0.179-2.123-0.112-3.138,0.481c-0.315,0.184-0.899-0.062-1.351-0.148c-0.361-0.068-0.707-0.225-1.068-0.286
				c-0.704-0.121-1.158,0.043-1.582,0.78c-1.339,2.328-3.657,2.686-6.135,1.666c-0.873-0.358-1.636-0.979-2.504-1.35
				c-0.859-0.366-1.775-0.687-2.692-0.781c-0.399-0.042-1.057,0.451-1.224,0.855c-0.105,0.253,0.402,0.924,0.786,1.172
				c0.485,0.313,1.139,0.351,1.695,0.572c0.581,0.231,1.155,0.503,1.684,0.834c0.196,0.123,0.385,0.494,0.34,0.697
				c-0.038,0.165-0.428,0.26-0.67,0.366c-0.08,0.036-0.206-0.025-0.28,0.015c-0.336,0.181-0.717,0.332-0.963,0.603
				c-0.097,0.107,0.036,0.624,0.204,0.729c0.336,0.211,0.805,0.428,1.154,0.35c0.89-0.198,1.733-0.599,2.62-0.829
				c0.325-0.085,0.773-0.019,1.063,0.151c0.393,0.232,0.454,0.776-0.047,0.863c-1.909,0.331-3.443,1.885-5.563,1.571
				c-1.555-0.231-3.071-0.447-4.359-1.44c-1.173-0.905-2.387-1.716-4.072-1.356c0-0.559,0-1.01,0-1.457
				c-0.771-0.114-1.459-0.215-2.148-0.317C18.7-1.203,18.689-1.35,18.677-1.496c1.044-0.222,2.089-0.443,3.167-0.672
				c-0.572-1.252-0.33-1.594,0.964-1.612c0.475-0.006,0.972,0.063,1.417-0.061C24.538-3.925,24.967-4.248,25-4.508
				c0.032-0.25-0.324-0.678-0.61-0.808c-0.442-0.203-0.977-0.202-1.464-0.32c-0.906-0.222-1.796-0.515-2.711-0.691
				c-0.872-0.168-1.764-0.228-2.786-0.351c0.287-0.484,0.614-1.063,0.965-1.625c0.348-0.559,0.815-1.065,1.054-1.665
				c0.253-0.637,0.684-0.745,1.19-0.594c1.059,0.318,2.077,0.652,3.194,0.166c0.345-0.15,0.873-0.145,1.218,0.009
				c2.088,0.933,4.337,0.825,6.527,1.093c0.501,0.062,1.005,0.122,1.499,0.226c1.158,0.243,2.167-0.018,3.135-0.706
				c0.388-0.275,0.953-0.298,1.689-0.507c0.262-1,1.308-1.091,2.434-1.039c0.506,0.024,1.012,0.026,1.514,0.04
				c-0.861,0.463-0.238,0.958,0.042,1.438c-0.378,0.23-0.696,0.422-1.147,0.695c0.935,0.033,1.694-0.134,1.874-0.873
				C42.695-10.355,42.112-10.854,41.831-11.28z M42.991-7.553c-0.085,0.11-0.17,0.221-0.254,0.332
				c0.428,0.322,0.856,0.645,1.285,0.967c0.089-0.122,0.179-0.245,0.269-0.368C43.857-6.932,43.425-7.243,42.991-7.553z
				 M40.135-8.163c-0.081,0.047-0.161,0.095-0.242,0.142c0.171,0.279,0.298,0.606,0.532,0.813c0.094,0.082,0.422-0.104,0.761-0.2
				C40.724-7.74,40.43-7.951,40.135-8.163z"/>
			<path fill="#FFFFFF" d="M47.77-19.759c0,0.474,0.018,0.932-0.004,1.389c-0.031,0.781,0.313,1.244,1.078,1.449
				c1.389,0.374,1.352,0.389,1.34,1.812c-0.002,0.274,0.338,0.716,0.606,0.802c1.492,0.471,3.007,0.333,4.478-0.106
				c0.405-0.122,0.854-0.492,1.047-0.868c0.625-1.204,1.602-1.638,2.885-1.619c0.404,0.006,0.849-0.002,1.213-0.153
				c0.314-0.129,0.727-0.442,0.768-0.723c0.035-0.251-0.312-0.683-0.597-0.835c-1.431-0.767-2.938-1.081-4.563-0.666
				c-0.572,0.146-1.199,0.136-1.795,0.109c-0.232-0.01-0.551-0.21-0.656-0.414c-0.07-0.137,0.095-0.506,0.259-0.643
				c0.562-0.461,1.165-0.869,1.757-1.29c0.796-0.564,1.598-1.121,2.205-1.546c0.824,0.159,1.559,0.347,2.301,0.428
				c0.577,0.063,1.098,0.009,1.375,0.731c0.11,0.279,0.684,0.424,1.071,0.531c0.371,0.101,0.776,0.073,1.282,0.109
				c-0.488,2.086,0.502,3.003,2.729,3.094c-0.522,0.414-0.791,0.541-0.923,0.75c-0.188,0.295-0.415,0.67-0.38,0.982
				c0.106,0.927-0.108,1.167-1.011,1.276c-1.084,0.132-2.146,0.563-3.223,0.592c-1.541,0.041-2.717,0.46-3.47,1.901
				c-0.118,0.226-0.854,0.326-1.203,0.199c-1.881-0.693-3.651-0.4-5.435,0.354c-0.998,0.423-1.934,0.304-2.797-0.184
				c0.869-0.621,0.922-0.979,0.121-1.712c-0.514-0.469-0.852-0.913-0.908-1.67c-0.021-0.313-0.729-0.771-1.157-0.817
				c-0.974-0.103-1.233-0.668-1.259-1.466c-0.027-0.837,0.507-1,1.24-1.075C46.631-19.085,47.086-19.441,47.77-19.759z"/>
			<path fill="#EADA7F" d="M48.764,20.795c0.053,0.309-0.021,0.924,0.254,1.223c0.276,0.301,0.896,0.287,1.365,0.409
				c0.016,0.117,0.03,0.229,0.047,0.345c-1.094,0.244-2.181,0.656-3.281,0.698c-1.813,0.066-3.462,0.324-5.002,1.44
				c-1.338,0.974-2.541,0.76-3.631-0.485c-1.045-1.194-2.25-1.905-3.838-1.963c-0.272-0.01-0.542-0.09-1.08-0.185
				c0.367-0.44,0.58-0.758,0.855-1.008c0.231-0.207,0.588-0.287,0.79-0.515c0.275-0.312,0.525-0.685,0.63-1.071
				c0.028-0.102-0.522-0.371-0.821-0.537c-0.189-0.107-0.407-0.166-0.612-0.246c0.301-1.25,0.807-1.781,2.723-1.833
				c0.883-0.025,1.772,0.047,2.647-0.041c0.462-0.048,0.9-0.345,1.347-0.532c0.136-0.056,0.264-0.161,0.403-0.18
				c1.051-0.137,2.106-0.242,3.157-0.39c0.502-0.071,1.064-0.308,1.274,0.385c0.21,0.686-0.374,0.946-0.843,1.025
				c-1.59,0.262-3.202,0.406-4.795,0.65c-0.744,0.117-1.482,0.317-2.196,0.56c-0.774,0.265-1.095,0.854-0.848,1.656
				c0.235,0.763,0.823,0.983,1.571,0.905c0.409-0.043,0.823-0.061,1.231-0.104c0.827-0.095,1.451,0.167,1.97,0.86
				c0.808,1.08,1.009,1.074,2.202,0.408c0.357-0.194,0.746-0.348,1.136-0.472C46.54,21.45,47.67,21.123,48.764,20.795z"/>
			<path fill="#FFFFFF" d="M39.181-15.348c-1.783,0.872-3.552,1.748-5.333,2.601c-0.998,0.479-1.932,0.546-2.925-0.183
				c-0.63-0.463-1.461-0.671-2.225-0.92c-0.166-0.054-0.438,0.302-0.652,0.292c-0.953-0.043-1.388-1.013-0.794-1.799
				c0.721-0.95,1.772-1.176,2.887-1.085c0.875,0.071,1.738,0.268,2.612,0.362c1.976,0.213,3.955,0.394,5.931,0.598
				C38.888-15.46,39.088-15.374,39.181-15.348z"/>
			<path fill="#FFFFFF" d="M64.137,29.484c-1.05-0.735-1.789-1.579-1.68-2.856c0.031-0.373,0.309-0.856,0.62-1.032
				c0.192-0.105,0.749,0.182,0.987,0.439C65.252,27.313,65.245,27.704,64.137,29.484z"/>
			<path fill="#EADA7F" d="M18.385,19.384c-0.035,0.445-0.063,0.808-0.104,1.332c-0.911-0.161-1.766-0.296-2.607-0.485
				c-0.16-0.035-0.38-0.301-0.371-0.445c0.009-0.143,0.272-0.375,0.432-0.383C16.6,19.364,17.469,19.384,18.385,19.384z"/>
			<path fill="#FFFFFF" d="M56.523-26.741c0.688-0.249,1.324-0.523,1.983-0.692c0.285-0.072,0.63,0.077,0.943,0.126
				c-0.104,0.306-0.15,0.827-0.327,0.877c-0.51,0.142-1.077,0.154-1.609,0.099C57.159-26.369,56.827-26.609,56.523-26.741z"/>
			<path fill="#909B4E" d="M49.376,19.891c0.435-0.332,0.877-0.634,1.354-0.029c0.412,0.527,0.479,1.978,0.023,2.174
				c-0.188,0.082-0.706-0.227-0.844-0.483C49.652,21.07,49.561,20.502,49.376,19.891z"/>
			<path fill="#EADA7F" d="M9.564,13.438c-1.125,0.907-1.33,0.854-1.855-0.408C8.343,13.171,8.844,13.278,9.564,13.438z"/>
			<path fill="#052B00" d="M33.145,8.925c-0.433,1.37-1.411,1.722-2.677,1.074C31.379,9.632,32.176,9.313,33.145,8.925z"/>
			<path fill="#052B00" d="M26.032,22.934c-0.442,0.83-1.141,0.688-1.763,0.564c-0.126-0.025-0.284-0.757-0.208-0.807
				c0.359-0.217,0.8-0.426,1.202-0.41C25.525,22.292,25.77,22.697,26.032,22.934z"/>
			<path fill="#052B00" d="M17.449,25.367c0.039-0.516,0.004-1.092,0.098-1.114c0.578-0.132,1.184-0.144,1.78-0.194
				c0.03,0.145,0.06,0.28,0.09,0.42C18.875,24.723,18.333,24.969,17.449,25.367z"/>
			<path d="M23.062-23.768c-1.153,1.815-2.897,1.459-4.44,1.688C19.958-22.891,21.286-23.72,23.062-23.768z"/>
			<path d="M11.527-29.272c0.539,0.106,1.079,0.213,1.618,0.32c0.009,0.106,0.018,0.212,0.027,0.319
				c-0.282,0.089-0.655,0.333-0.823,0.232c-0.327-0.196-0.54-0.584-0.8-0.893L11.527-29.272z"/>
			<path d="M15.629-26.733c0.472-0.151,0.944-0.302,1.504-0.482c-0.195,1.069-0.772,1-1.403,0.805
				C15.697-26.518,15.663-26.625,15.629-26.733z"/>
			<path d="M9.887-15.386c-0.397-0.189-0.794-0.378-1.191-0.566c0.048-0.114,0.097-0.227,0.146-0.338
				c0.399,0.158,0.8,0.316,1.2,0.475C9.99-15.672,9.938-15.529,9.887-15.386z"/>
			<path d="M13.134-14.986c-0.506,0.025-1.012,0.051-1.519,0.078c-0.003-0.102-0.006-0.204-0.01-0.306c0.51,0,1.021,0,1.532,0
				C13.137-15.139,13.136-15.063,13.134-14.986z"/>
			<path fill="#052B00" d="M49.18,5.582c0.289-0.367,0.604-0.716,0.856-1.104c0.221-0.335,0.376-0.714,0.667-1.281
				c-0.088,0.846-0.148,1.414-0.206,1.979C50.428,5.876,50.083,5.984,49.18,5.582z"/>
			<path d="M61.05,7.858c0.468-1.044,0.454-1.839-0.62-2.346c0.793-0.253,0.989-0.141,1.266,0.575
				C62.021,6.932,61.873,7.484,61.05,7.858z"/>
			<path d="M61.702,3.856c0.272,0.296,0.554,0.585,0.803,0.9c0.015,0.016-0.222,0.231-0.342,0.354
				c-0.29-0.287-0.579-0.575-0.872-0.862C61.428,4.117,61.564,3.986,61.702,3.856z"/>
			<path d="M63.605,8.831c-0.646-0.134-1.174-0.243-1.729-0.358C62.52,7.867,62.98,7.949,63.605,8.831z"/>
			<path fill="#052B00" d="M47.914,6.175c0.49,0.181,0.984,0.362,1.582,0.582c-1.139,0.466-1.344,0.369-1.559-0.604L47.914,6.175z"
				/>
			<path d="M44.462,33.57c0-0.313,0-0.631,0-0.947c0.081-0.045,0.161-0.094,0.242-0.139c0.2,0.248,0.402,0.496,0.604,0.744
				c-0.29,0.106-0.58,0.217-0.873,0.319C44.432,33.551,44.462,33.57,44.462,33.57z"/>
			<path d="M41.831-11.28c0.281,0.426,0.864,0.924,0.783,1.261c-0.179,0.739-0.939,0.906-1.874,0.873
				c0.451-0.273,0.769-0.465,1.147-0.695c-0.28-0.479-0.903-0.975-0.042-1.438C41.85-11.28,41.831-11.28,41.831-11.28z"/>
			<path d="M42.991-7.553c0.434,0.31,0.866,0.621,1.3,0.931c-0.09,0.123-0.18,0.246-0.269,0.368
				c-0.429-0.322-0.856-0.645-1.285-0.967C42.821-7.332,42.906-7.443,42.991-7.553z"/>
			<path d="M40.135-8.163c0.295,0.212,0.589,0.423,1.051,0.754c-0.338,0.097-0.667,0.282-0.761,0.2
				c-0.234-0.206-0.361-0.534-0.532-0.813C39.975-8.068,40.054-8.115,40.135-8.163z"/>
		</g>
	</g>
</g>
<linearGradient id="hkp2000_5_" gradientUnits="userSpaceOnUse" x1="10.0518" y1="848.7461" x2="49.082" y2="848.7461" gradientTransform="matrix(1 0 0 1 8.3198 -829.8652)">
	<stop  offset="0" style="stop-color:#B1DB7F;stop-opacity:0"/>
	<stop  offset="0.1061" style="stop-color:#B1DB7F;stop-opacity:0.1061"/>
	<stop  offset="1" style="stop-color:#B1DB7F"/>
</linearGradient>
<path id="hkp2000_3_" fill="url(#hkp2000_5_)" d="M57.059,13.208c-0.109,0.243-0.344,0.407-0.607,0.429
	c-0.469,0.03-3.656,0.078-9.569,0.143c-0.21,0.006-0.418,0.055-0.608,0.143c-0.341,0.095-0.617,0.342-0.75,0.669
	c-0.107,0.502-0.124,1.02-0.047,1.527c0.03,0.381,0.093,0.954,0.188,1.718c0.033,0.404,0.096,0.806,0.186,1.2
	c0,0.221-0.171,0.349-0.515,0.38c-0.649,0.147-1.308,0.26-1.97,0.335c-1.135,0.165-2.277,0.262-3.422,0.286
	c-1.908,0.032-4.035-0.032-6.379-0.19c-2.032,5.506-3.048,8.436-3.048,8.783c0,0.383,0.078,1.607,0.234,3.676
	c0.35,0.275,0.727,0.518,1.125,0.715c0.178,0.037,0.3,0.203,0.282,0.387c0.009,0.074-0.028,0.15-0.095,0.189l-0.328,0.19
	c-0.367,0.097-0.751,0.112-1.125,0.048c-0.593-0.098-4.579-0.911-11.957-2.439c-0.375-0.063-0.375-1.112,0-3.149
	c0.271-1.267,0.632-2.511,1.079-3.724c0.461-1.34,1.011-2.646,1.646-3.916c0.542-1.014,0.967-2.088,1.265-3.197
	c0.311-0.773,0.468-1.6,0.463-2.433c-0.266-0.564-0.734-1.007-1.312-1.241c-0.569-0.296-1.166-0.536-1.781-0.716
	c-0.312-0.031-0.59-0.208-0.751-0.477c-0.154-0.164-0.295-0.34-0.422-0.526c-0.127-0.317-0.175-0.66-0.14-1V9.821
	c-0.049-0.517,0.015-1.039,0.187-1.529c0.594-1.051,1.047-1.83,1.359-2.338c0.227-0.35,0.496-0.671,0.8-0.956
	c0.176-0.237,0.453-0.378,0.748-0.383c0.249,0.032,0.501,0.032,0.75,0l0.47-0.048c0.113-0.225,0.255-0.434,0.423-0.621
	c0.471-0.115,0.968-0.064,1.406,0.144l0.187,0.524h12.9v0.429h5.58V4.614l12.852-0.047l0.418,0.239
	c0.22,0.109,0.361,0.328,0.375,0.572c0.063,1.242,0.125,2.404,0.188,3.486c0.094,1.176,0.077,2.358-0.047,3.532
	C57.135,12.905,57.059,13.175,57.059,13.208z M43.598,14.401c-0.117-0.056-0.244-0.089-0.373-0.1v0.1l-4.176-0.047
	c-0.167,0.509-0.099,1.067,0.186,1.521c0.27,0.459,0.583,0.892,0.938,1.289c0.252,0.223,0.562,0.371,0.892,0.428
	c0.312,0.032,0.453,0.113,0.422,0.239c-0.041,0.168-0.207,0.274-0.377,0.239h-0.606c-0.431-0.11-0.822-0.34-1.128-0.664
	c-0.504-0.398-0.933-0.882-1.266-1.431c-0.138-0.53-0.201-1.076-0.186-1.623l-0.848-0.049c-0.508,0.003-0.988,0.23-1.312,0.621
	c-0.31,0.375-0.477,0.849-0.469,1.336v1.289c0.125,0.45,0.484,0.797,0.938,0.908c0.741,0.307,1.543,0.438,2.344,0.382
	c0.876-0.128,1.563-0.208,2.063-0.239c0.455-0.024,0.91-0.01,1.361,0.047c0.656,0.064,1.109,0.103,1.359,0.103
	c0.271,0.021,0.543-0.017,0.801-0.103c0.063-0.063,0.189-0.188,0.377-0.378c0.153-0.495,0.186-1.019,0.094-1.528
	c0.012-0.61-0.115-1.214-0.375-1.767C44.135,14.69,43.893,14.48,43.598,14.401L43.598,14.401z"/>
<linearGradient id="hkp2000_6_" gradientUnits="userSpaceOnUse" x1="10.0518" y1="848.7461" x2="49.082" y2="848.7461" gradientTransform="matrix(1 0 0 1 8.3198 -829.8652)">
	<stop  offset="0" style="stop-color:#B1DB7F;stop-opacity:0"/>
	<stop  offset="0.1061" style="stop-color:#B1DB7F;stop-opacity:0.1061"/>
	<stop  offset="1" style="stop-color:#B1DB7F"/>
</linearGradient>
<path id="hkp2000_1_" fill="url(#hkp2000_6_)" d="M57.059,13.208c-0.109,0.243-0.344,0.407-0.607,0.429
	c-0.469,0.03-3.656,0.078-9.569,0.143c-0.21,0.006-0.418,0.055-0.608,0.143c-0.341,0.095-0.617,0.342-0.75,0.669
	c-0.107,0.502-0.124,1.02-0.047,1.527c0.03,0.381,0.093,0.954,0.188,1.718c0.033,0.404,0.096,0.806,0.186,1.2
	c0,0.221-0.171,0.349-0.515,0.38c-0.649,0.147-1.308,0.26-1.97,0.335c-1.135,0.165-2.277,0.262-3.422,0.286
	c-1.908,0.032-4.035-0.032-6.379-0.19c-2.032,5.506-3.048,8.436-3.048,8.783c0,0.383,0.078,1.607,0.234,3.676
	c0.35,0.275,0.727,0.518,1.125,0.715c0.178,0.037,0.3,0.203,0.282,0.387c0.009,0.074-0.028,0.15-0.095,0.189l-0.328,0.19
	c-0.367,0.097-0.751,0.112-1.125,0.048c-0.593-0.098-4.579-0.911-11.957-2.439c-0.375-0.063-0.375-1.112,0-3.149
	c0.271-1.267,0.632-2.511,1.079-3.724c0.461-1.34,1.011-2.646,1.646-3.916c0.542-1.014,0.967-2.088,1.265-3.197
	c0.311-0.773,0.468-1.6,0.463-2.433c-0.266-0.564-0.734-1.007-1.312-1.241c-0.569-0.296-1.166-0.536-1.781-0.716
	c-0.312-0.031-0.59-0.208-0.751-0.477c-0.154-0.164-0.295-0.34-0.422-0.526c-0.127-0.317-0.175-0.66-0.14-1V9.821
	c-0.049-0.517,0.015-1.039,0.187-1.529c0.594-1.051,1.047-1.83,1.359-2.338c0.227-0.35,0.496-0.671,0.8-0.956
	c0.176-0.237,0.453-0.378,0.748-0.383c0.249,0.032,0.501,0.032,0.75,0l0.47-0.048c0.113-0.225,0.255-0.434,0.423-0.621
	c0.471-0.115,0.968-0.064,1.406,0.144l0.187,0.524h12.9v0.429h5.58V4.614l12.852-0.047l0.418,0.239
	c0.22,0.109,0.361,0.328,0.375,0.572c0.063,1.242,0.125,2.404,0.188,3.486c0.094,1.176,0.077,2.358-0.047,3.532
	C57.135,12.905,57.059,13.175,57.059,13.208z M43.598,14.401c-0.117-0.056-0.244-0.089-0.373-0.1v0.1l-4.176-0.047
	c-0.167,0.509-0.099,1.067,0.186,1.521c0.27,0.459,0.583,0.892,0.938,1.289c0.252,0.223,0.562,0.371,0.892,0.428
	c0.312,0.032,0.453,0.113,0.422,0.239c-0.041,0.168-0.207,0.274-0.377,0.239h-0.606c-0.431-0.11-0.822-0.34-1.128-0.664
	c-0.504-0.398-0.933-0.882-1.266-1.431c-0.138-0.53-0.201-1.076-0.186-1.623l-0.848-0.049c-0.508,0.003-0.988,0.23-1.312,0.621
	c-0.31,0.375-0.477,0.849-0.469,1.336v1.289c0.125,0.45,0.484,0.797,0.938,0.908c0.741,0.307,1.543,0.438,2.344,0.382
	c0.876-0.128,1.563-0.208,2.063-0.239c0.455-0.024,0.91-0.01,1.361,0.047c0.656,0.064,1.109,0.103,1.359,0.103
	c0.271,0.021,0.543-0.017,0.801-0.103c0.063-0.063,0.189-0.188,0.377-0.378c0.153-0.495,0.186-1.019,0.094-1.528
	c0.012-0.61-0.115-1.214-0.375-1.767C44.135,14.69,43.893,14.48,43.598,14.401L43.598,14.401z"/>
<linearGradient id="hkp2000_7_" gradientUnits="userSpaceOnUse" x1="10.0518" y1="848.7461" x2="49.082" y2="848.7461" gradientTransform="matrix(1 0 0 1 8.3198 -829.8652)">
	<stop  offset="0" style="stop-color:#B1DB7F;stop-opacity:0"/>
	<stop  offset="0.1061" style="stop-color:#B1DB7F;stop-opacity:0.1061"/>
	<stop  offset="1" style="stop-color:#B1DB7F"/>
</linearGradient>
<path id="hkp2000_2_" fill="url(#hkp2000_7_)" d="M57.059,13.208c-0.109,0.243-0.344,0.407-0.607,0.429
	c-0.469,0.03-3.656,0.078-9.569,0.143c-0.21,0.006-0.418,0.055-0.608,0.143c-0.341,0.095-0.617,0.342-0.75,0.669
	c-0.107,0.502-0.124,1.02-0.047,1.527c0.03,0.381,0.093,0.954,0.188,1.718c0.033,0.404,0.096,0.806,0.186,1.2
	c0,0.221-0.171,0.349-0.515,0.38c-0.649,0.147-1.308,0.26-1.97,0.335c-1.135,0.165-2.277,0.262-3.422,0.286
	c-1.908,0.032-4.035-0.032-6.379-0.19c-2.032,5.506-3.048,8.436-3.048,8.783c0,0.383,0.078,1.607,0.234,3.676
	c0.35,0.275,0.727,0.518,1.125,0.715c0.178,0.037,0.3,0.203,0.282,0.387c0.009,0.074-0.028,0.15-0.095,0.189l-0.328,0.19
	c-0.367,0.097-0.751,0.112-1.125,0.048c-0.593-0.098-4.579-0.911-11.957-2.439c-0.375-0.063-0.375-1.112,0-3.149
	c0.271-1.267,0.632-2.511,1.079-3.724c0.461-1.34,1.011-2.646,1.646-3.916c0.542-1.014,0.967-2.088,1.265-3.197
	c0.311-0.773,0.468-1.6,0.463-2.433c-0.266-0.564-0.734-1.007-1.312-1.241c-0.569-0.296-1.166-0.536-1.781-0.716
	c-0.312-0.031-0.59-0.208-0.751-0.477c-0.154-0.164-0.295-0.34-0.422-0.526c-0.127-0.317-0.175-0.66-0.14-1V9.821
	c-0.049-0.517,0.015-1.039,0.187-1.529c0.594-1.051,1.047-1.83,1.359-2.338c0.227-0.35,0.496-0.671,0.8-0.956
	c0.176-0.237,0.453-0.378,0.748-0.383c0.249,0.032,0.501,0.032,0.75,0l0.47-0.048c0.113-0.225,0.255-0.434,0.423-0.621
	c0.471-0.115,0.968-0.064,1.406,0.144l0.187,0.524h12.9v0.429h5.58V4.614l12.852-0.047l0.418,0.239
	c0.22,0.109,0.361,0.328,0.375,0.572c0.063,1.242,0.125,2.404,0.188,3.486c0.094,1.176,0.077,2.358-0.047,3.532
	C57.135,12.905,57.059,13.175,57.059,13.208z M43.598,14.401c-0.117-0.056-0.244-0.089-0.373-0.1v0.1l-4.176-0.047
	c-0.167,0.509-0.099,1.067,0.186,1.521c0.27,0.459,0.583,0.892,0.938,1.289c0.252,0.223,0.562,0.371,0.892,0.428
	c0.312,0.032,0.453,0.113,0.422,0.239c-0.041,0.168-0.207,0.274-0.377,0.239h-0.606c-0.431-0.11-0.822-0.34-1.128-0.664
	c-0.504-0.398-0.933-0.882-1.266-1.431c-0.138-0.53-0.201-1.076-0.186-1.623l-0.848-0.049c-0.508,0.003-0.988,0.23-1.312,0.621
	c-0.31,0.375-0.477,0.849-0.469,1.336v1.289c0.125,0.45,0.484,0.797,0.938,0.908c0.741,0.307,1.543,0.438,2.344,0.382
	c0.876-0.128,1.563-0.208,2.063-0.239c0.455-0.024,0.91-0.01,1.361,0.047c0.656,0.064,1.109,0.103,1.359,0.103
	c0.271,0.021,0.543-0.017,0.801-0.103c0.063-0.063,0.189-0.188,0.377-0.378c0.153-0.495,0.186-1.019,0.094-1.528
	c0.012-0.61-0.115-1.214-0.375-1.767C44.135,14.69,43.893,14.48,43.598,14.401L43.598,14.401z"/>
<linearGradient id="shape2_2_" gradientUnits="userSpaceOnUse" x1="54.5205" y1="18.2515" x2="54.6865" y2="4.2506" gradientTransform="matrix(1 0 0 -1 -0.02 35.0947)">
	<stop  offset="2.307277e-007" style="stop-color:#4A5344"/>
	<stop  offset="1" style="stop-color:#8DB958"/>
</linearGradient>
<path id="shape2_1_" fill="url(#shape2_2_)" d="M64.38,31.251c-0.313,0-0.625-0.05-0.923-0.147
	c-0.297,0.101-0.607,0.147-0.921,0.147h-8.193c-0.185,0-0.446-0.009-0.771-0.075c-0.217,0.051-0.438,0.075-0.663,0.075h-2.664
	c-0.815,0-1.604-0.342-2.166-0.937c-0.078-0.086-0.149-0.174-0.22-0.269l-0.909,0.649c-0.503,0.359-1.1,0.553-1.725,0.553h-3.584
	c-0.717,0-1.402-0.266-1.935-0.719c-0.616,0.424-1.35,0.652-2.114,0.652c-0.75,0-1.478-0.222-2.104-0.642
	c-0.164-0.11-0.315-0.233-0.452-0.37c-1.021-1.021-1.363-2.423-0.92-3.753l0.044-0.128l0.08-0.203
	c-1.801-0.254-3.145-1.766-3.145-3.646V22.24c0-0.741,0.274-1.45,0.773-1.996l4.748-5.232c0.646-1.069,1.762-1.679,3.079-1.679h0.41
	c2.065,0,3.684,1.618,3.684,3.684c0,0-0.001,0.289-0.003,0.331c0.555-0.653,1.372-1.044,2.26-1.044h8.397
	c0.262,0,0.519,0.034,0.769,0.101c0.25-0.067,0.509-0.101,0.771-0.101H65.2c0.243,0,0.481,0.029,0.717,0.087
	c0.233-0.058,0.476-0.087,0.72-0.087h8.396c0.917,0,1.797,0.433,2.354,1.159c0.559,0.726,0.752,1.689,0.514,2.573l-0.405,1.532
	c-0.146,0.541-0.435,1.02-0.829,1.395c-0.016,0.188-0.045,0.372-0.096,0.555l-0.408,1.537c-0.075,0.282-0.191,0.551-0.348,0.799
	c0.168,0.532,0.187,1.109,0.041,1.656l-0.414,1.539c-0.346,1.297-1.522,2.202-2.864,2.202H64.38z M61.341,23.782l0.013-0.009h-0.793
	l-0.002,0.009H61.341z"/>
<path id="ACE" fill="#FFFFFF" d="M38.569,23.163h-3.79c-0.409,0-0.717-0.308-0.717-0.718c0-0.104,0-0.104,0-0.204l5.018-5.531
	c0.103-0.307,0.31-0.41,0.615-0.41h0.41c0.409,0,0.717,0.308,0.717,0.717c0,0.102,0,0.205,0,0.205l-2.458,3.584h4.402
	c0.615,0,0.31,1.127-0.103,1.639l-4.507,5.531c-0.309,0.308-0.717,0.308-1.023,0.104c-0.205-0.206-0.309-0.41-0.205-0.719
	L38.569,23.163L38.569,23.163L38.569,23.163z M46.046,19.271l0.409,0.41l-4.813,8.603h3.584l2.15-1.536h2.972l-0.104,1.536h2.663
	l1.536-9.013H46.046L46.046,19.271z M50.552,20.809l-0.104,3.482h-2.969l2.047-3.482H50.552L50.552,20.809z M54.343,28.284h8.191
	l0.612-2.15l-0.818,0.614h-5.732l1.739-5.941h6.452l0.408-1.535h-9.217l-2.355,7.988c-0.102,0.104-0.102,0.309-0.102,0.409
	c0,0.103,0,0.205,0.103,0.31s0.205,0.203,0.308,0.203C54.137,28.284,54.24,28.284,54.343,28.284L54.343,28.284L54.343,28.284z
	 M66.632,19.271l0.312,0.61l-2.563,8.398h8.193l0.408-1.536h-5.121l0.718-2.458h4.711l0.41-1.537h-4.507l0.611-1.942h4.815
	l0.409-1.535H66.632L66.632,19.271z"/>
</svg>
