<?xml version="1.0" encoding="utf-8"?>
<!-- Generator: Adobe Illustrator 16.0.0, SVG Export Plug-In . SVG Version: 6.00 Build 0)  -->
<!DOCTYPE svg PUBLIC "-//W3C//DTD SVG 1.1//EN" "http://www.w3.org/Graphics/SVG/1.1/DTD/svg11.dtd">
<svg version="1.1" id="case1" xmlns="http://www.w3.org/2000/svg" xmlns:xlink="http://www.w3.org/1999/xlink" x="0px" y="0px"
	 width="92px" height="36px" viewBox="0 0 92 36" enable-background="new 0 0 92 36" xml:space="preserve">
<linearGradient id="shape_4_" gradientUnits="userSpaceOnUse" x1="-13.4155" y1="-788.563" x2="72.5508" y2="-788.563" gradientTransform="matrix(1 0 0 -1 16.6597 -769.8252)">
	<stop  offset="0" style="stop-color:#B1DB7F;stop-opacity:0"/>
	<stop  offset="0.1061" style="stop-color:#B1DB7F;stop-opacity:0.1061"/>
	<stop  offset="1" style="stop-color:#B1DB7F"/>
</linearGradient>
<path id="shape" fill="url(#shape_4_)" d="M38.49,11.375c-0.724-0.118-1.213-0.799-1.095-1.521V8.421
	c-0.022-0.125-0.026-0.252-0.013-0.377c0.078-0.739,0.743-1.273,1.48-1.194h28.589c0.41-0.028,0.807,0.14,1.066,0.455
	c0.309,0.291,0.469,0.7,0.442,1.122V9.86c0.028,0.408-0.133,0.806-0.438,1.075c-0.265,0.312-0.658,0.478-1.066,0.45H38.862
	c-0.053,0.005-0.107,0.009-0.16,0.009C38.631,11.393,38.561,11.387,38.49,11.375 M37.662,3.035c-0.98,0.089-1.767,0.163-2.36,0.223
	c-0.437,0.049-0.868,0.14-1.289,0.27c-0.241,0.015-0.467,0.129-0.622,0.314c-0.102,0.041-0.182,0.122-0.222,0.225v0.136
	c-0.101,0.199-0.177,0.411-0.228,0.628c-0.058,0.358-0.133,0.702-0.22,1.033c-0.091,0.357-0.194,0.732-0.312,1.121
	C32.288,7.344,32.2,7.6,32.141,7.748c-0.522,0.137-1.063,0.198-1.602,0.18h-3.023c-1.187-0.03-2.505-0.076-3.958-0.134
	c-1.483-0.03-2.905-0.104-4.269-0.226h-0.17c-0.483,0.521-1.038,0.976-1.644,1.347c-0.354,0.243-0.747,0.425-1.161,0.54
	c-0.296-0.239-0.565-0.51-0.8-0.811c-0.317-0.379-0.599-0.783-0.844-1.21V7.211H6.266v0.226C6,7.825,5.704,8.261,5.377,8.739
	C5.258,8.994,5.108,9.235,4.933,9.456c-0.392,0.328-0.722,0.722-0.977,1.166c-0.475,0.629-0.712,1.93-0.712,3.905
	c0.019,1.309,0.123,2.614,0.311,3.909c0.349,1.884,0.824,3.742,1.422,5.563l0.178,0.092l0.135,0.132
	c0.919,0.119,1.853,0.073,2.756-0.135c0.851-0.089,1.698-0.224,2.536-0.404c0.771-0.234,1.464-0.443,2.09-0.627
	c0.433-0.141,0.839-0.352,1.2-0.627c0.031,0.114,0.059,0.252,0.09,0.401c0.086,0.121,0.191,0.228,0.311,0.319
	c0.076,0.144,0.165,0.274,0.268,0.404h0.131c0.359-0.188,0.754-0.295,1.157-0.313c0.535-0.122,0.846-0.194,0.934-0.226
	c0.267,0,0.399-0.281,0.399-0.854c0.013-0.109,0.044-0.216,0.09-0.315c0.021-0.072,0.037-0.146,0.045-0.223
	c0.558-0.219,1.142-0.369,1.734-0.451c0.921-0.179,1.958-0.357,3.113-0.539c0,0.176,0.015,0.981,0.044,2.418
	c0.029,1.438,0.104,3.008,0.223,4.713c0.059,1.978,0.178,4.204,0.354,6.688h0.123c0.258,0.021,0.519,0.026,0.778,0.026h0.024
	c0.715,0,1.429-0.068,2.133-0.207c0.86-0.271,1.586-0.522,2.178-0.766c0.46-0.212,0.907-0.451,1.337-0.717
	c0.138-0.153,0.304-0.275,0.491-0.361v-0.223c-0.06-0.717-0.119-1.512-0.179-2.382c-0.061-0.835-0.09-1.642-0.09-2.423
	c-0.029-0.81-0.072-1.539-0.131-2.196c-0.03-0.658-0.045-1.136-0.045-1.435v-0.09c0.494-0.087,0.957-0.303,1.337-0.63l0.09-0.044
	c0.54-1.973,1.999-3.563,3.916-4.266c0.719-0.3,1.489-0.467,2.268-0.495c0.442-0.029,0.883,0.048,1.29,0.226
	c0.362,0.126,0.633,0.435,0.713,0.808c-0.004,0.166-0.019,0.332-0.047,0.494c-0.06,0.182-0.104,0.328-0.132,0.449
	c-1.194,1.051-2.034,2.447-2.401,3.996c-0.301,1.557-0.509,3.131-0.623,4.713l0.178,0.135c0.113,0.361,0.394,0.646,0.754,0.765
	c0.511,0.257,1.048,0.452,1.603,0.588c0.517,0.174,1.055,0.278,1.601,0.313c0.474,0.119,0.801,0.207,0.978,0.269h0.489l-0.176-0.269
	v-0.449c-0.035-0.572,0.121-1.143,0.443-1.615c0.136-0.229,0.301-0.439,0.491-0.628h0.269l-0.267-0.358
	c-0.03-0.088-0.045-0.179-0.045-0.271c-0.031-0.161-0.047-0.326-0.045-0.492c0.032-0.286,0.157-0.555,0.354-0.767
	c0.267-0.297,0.43-0.493,0.491-0.584l0.176-0.09v-0.941c-0.055-0.521,0.143-1.04,0.535-1.395c0.321-0.235,0.591-0.418,0.798-0.537
	c0.233,0.127,0.493,0.203,0.758,0.226c0.478,0.046,0.952,0.124,1.419,0.229c0.53,0.06,1.096,0.115,1.688,0.182
	c0.506-0.002,1.012,0.025,1.516,0.088c0.465,0.021,0.928-0.085,1.331-0.313c0.25-0.346,0.403-0.748,0.444-1.168
	c0.029-0.422,0.045-0.822,0.045-1.216v-1.209c0.215-0.135,0.459-0.212,0.713-0.227H70.12c0.338-0.005,0.664-0.112,0.937-0.313
	c0.205-0.232,0.381-0.491,0.53-0.764c0.175-0.263,0.31-0.548,0.399-0.851c0.062-0.271,0.105-0.494,0.136-0.675V16.55
	c-0.021-0.155,0.012-0.312,0.09-0.449c-0.012-0.077,0.004-0.156,0.045-0.223h0.175c0.104,0.136,0.246,0.244,0.401,0.314
	c0.088,0,0.342-0.016,0.756-0.046c0.257-0.018,0.507-0.112,0.713-0.267c0.175-0.144,0.396-0.222,0.621-0.225
	c0.233-0.047,0.455-0.122,0.67-0.224h7.248c0.035,0.034,0.084,0.051,0.132,0.045c0.036,0.063,0.106,0.098,0.18,0.09
	c0.354,0.192,0.758,0.271,1.154,0.225c0.563-0.001,1.172-0.015,1.825-0.045c0.683-0.029,1.287-0.059,1.822-0.089
	c0.504-0.065,0.786-0.095,0.846-0.095h0.132v-0.135c0.178-0.381,0.272-0.797,0.278-1.215v-0.096c0-0.071-0.004-0.144-0.01-0.215
	c-0.023-0.289-0.113-0.565-0.265-0.811v-0.181l-0.313-0.18c-0.117,0-0.457-0.015-1.021-0.046c-0.598-0.029-1.203-0.029-1.822,0
	c-0.623,0.031-1.188,0.046-1.692,0.046c-0.364-0.008-0.724,0.053-1.065,0.18l-0.355,0.094c-0.156,0.074-0.318,0.136-0.488,0.181
	c-0.15-0.003-0.307,0.028-0.443,0.092h-6.315v-0.087c-0.026-0.056-0.043-0.119-0.043-0.18c-0.026-0.024-0.045-0.059-0.047-0.096
	l-1.199-0.268c-0.149-0.004-0.297-0.019-0.444-0.046c-0.104-0.004-0.209-0.02-0.312-0.043h-0.399
	c-0.002-0.257,0.028-0.513,0.088-0.763c0.017-0.158,0.062-0.313,0.138-0.45c0.112-0.637,0.188-1.283,0.222-1.929V7.794
	c0.11-1.144-0.188-2.289-0.843-3.232c-0.077-0.302-0.354-0.509-0.669-0.494h-0.934C70.4,3.98,69.82,3.934,69.241,3.932
	c-0.89,0-2.181-0.016-3.866-0.045c-1.725-0.029-4.003-0.088-6.85-0.178C52.887,3.234,47.23,2.997,41.573,2.997
	C40.264,2.997,38.962,3.009,37.662,3.035"/>
<g>
	<g>
		<defs>
			<path id="SVGID_1_" d="M38.49,11.375c-0.724-0.118-1.213-0.799-1.095-1.521V8.421c-0.022-0.125-0.026-0.252-0.013-0.377
				c0.078-0.739,0.743-1.273,1.48-1.194h28.589c0.41-0.028,0.807,0.14,1.066,0.455c0.309,0.291,0.469,0.7,0.442,1.122V9.86
				c0.028,0.408-0.133,0.806-0.438,1.075c-0.265,0.312-0.658,0.478-1.066,0.45H38.862c-0.053,0.005-0.107,0.009-0.16,0.009
				C38.631,11.393,38.561,11.387,38.49,11.375 M37.662,3.035c-0.98,0.089-1.767,0.163-2.36,0.223
				c-0.437,0.049-0.868,0.14-1.289,0.27c-0.241,0.015-0.467,0.129-0.622,0.314c-0.102,0.041-0.182,0.122-0.222,0.225v0.136
				c-0.101,0.199-0.177,0.411-0.228,0.628c-0.058,0.358-0.133,0.702-0.22,1.033c-0.091,0.357-0.194,0.732-0.312,1.121
				C32.288,7.344,32.2,7.6,32.141,7.748c-0.522,0.137-1.063,0.198-1.602,0.18h-3.023c-1.187-0.03-2.505-0.076-3.958-0.134
				c-1.483-0.03-2.905-0.104-4.269-0.226h-0.17c-0.483,0.521-1.038,0.976-1.644,1.347c-0.354,0.243-0.747,0.425-1.161,0.54
				c-0.296-0.239-0.565-0.51-0.8-0.811c-0.317-0.379-0.599-0.783-0.844-1.21V7.211H6.266v0.226C6,7.825,5.704,8.261,5.377,8.739
				C5.258,8.994,5.108,9.235,4.933,9.456c-0.392,0.328-0.722,0.722-0.977,1.166c-0.475,0.629-0.712,1.93-0.712,3.905
				c0.019,1.309,0.123,2.614,0.311,3.909c0.349,1.884,0.824,3.742,1.422,5.563l0.178,0.092l0.135,0.132
				c0.919,0.119,1.853,0.073,2.756-0.135c0.851-0.089,1.698-0.224,2.536-0.404c0.771-0.234,1.464-0.443,2.09-0.627
				c0.433-0.141,0.839-0.352,1.2-0.627c0.031,0.114,0.059,0.252,0.09,0.401c0.086,0.121,0.191,0.228,0.311,0.319
				c0.076,0.144,0.165,0.274,0.268,0.404h0.131c0.359-0.188,0.754-0.295,1.157-0.313c0.535-0.122,0.846-0.194,0.934-0.226
				c0.267,0,0.399-0.281,0.399-0.854c0.013-0.109,0.044-0.216,0.09-0.315c0.021-0.072,0.037-0.146,0.045-0.223
				c0.558-0.219,1.142-0.369,1.734-0.451c0.921-0.179,1.958-0.357,3.113-0.539c0,0.176,0.015,0.981,0.044,2.418
				c0.029,1.438,0.104,3.008,0.223,4.713c0.059,1.978,0.178,4.204,0.354,6.688h0.123c0.258,0.021,0.519,0.026,0.778,0.026h0.024
				c0.715,0,1.429-0.068,2.133-0.207c0.86-0.271,1.586-0.522,2.178-0.766c0.46-0.212,0.907-0.451,1.337-0.717
				c0.138-0.153,0.304-0.275,0.491-0.361v-0.223c-0.06-0.717-0.119-1.512-0.179-2.382c-0.061-0.835-0.09-1.642-0.09-2.423
				c-0.029-0.81-0.072-1.539-0.131-2.196c-0.03-0.658-0.045-1.136-0.045-1.435v-0.09c0.494-0.087,0.957-0.303,1.337-0.63l0.09-0.044
				c0.54-1.973,1.999-3.563,3.916-4.266c0.719-0.3,1.489-0.467,2.268-0.495c0.442-0.029,0.883,0.048,1.29,0.226
				c0.362,0.126,0.633,0.435,0.713,0.808c-0.004,0.166-0.019,0.332-0.047,0.494c-0.06,0.182-0.104,0.328-0.132,0.449
				c-1.194,1.051-2.034,2.447-2.401,3.996c-0.301,1.557-0.509,3.131-0.623,4.713l0.178,0.135c0.113,0.361,0.394,0.646,0.754,0.765
				c0.511,0.257,1.048,0.452,1.603,0.588c0.517,0.174,1.055,0.278,1.601,0.313c0.474,0.119,0.801,0.207,0.978,0.269h0.489
				l-0.176-0.269v-0.449c-0.035-0.572,0.121-1.143,0.443-1.615c0.136-0.229,0.301-0.439,0.491-0.628h0.269l-0.267-0.358
				c-0.03-0.088-0.045-0.179-0.045-0.271c-0.031-0.161-0.047-0.326-0.045-0.492c0.032-0.286,0.157-0.555,0.354-0.767
				c0.267-0.297,0.43-0.493,0.491-0.584l0.176-0.09v-0.941c-0.055-0.521,0.143-1.04,0.535-1.395
				c0.321-0.235,0.591-0.418,0.798-0.537c0.233,0.127,0.493,0.203,0.758,0.226c0.478,0.046,0.952,0.124,1.419,0.229
				c0.53,0.06,1.096,0.115,1.688,0.182c0.506-0.002,1.012,0.025,1.516,0.088c0.465,0.021,0.928-0.085,1.331-0.313
				c0.25-0.346,0.403-0.748,0.444-1.168c0.029-0.422,0.045-0.822,0.045-1.216v-1.209c0.215-0.135,0.459-0.212,0.713-0.227H70.12
				c0.338-0.005,0.664-0.112,0.937-0.313c0.205-0.232,0.381-0.491,0.53-0.764c0.175-0.263,0.31-0.548,0.399-0.851
				c0.062-0.271,0.105-0.494,0.136-0.675V16.55c-0.021-0.155,0.012-0.312,0.09-0.449c-0.012-0.077,0.004-0.156,0.045-0.223h0.175
				c0.104,0.136,0.246,0.244,0.401,0.314c0.088,0,0.342-0.016,0.756-0.046c0.257-0.018,0.507-0.112,0.713-0.267
				c0.175-0.144,0.396-0.222,0.621-0.225c0.233-0.047,0.455-0.122,0.67-0.224h7.248c0.035,0.034,0.084,0.051,0.132,0.045
				c0.036,0.063,0.106,0.098,0.18,0.09c0.354,0.192,0.758,0.271,1.154,0.225c0.563-0.001,1.172-0.015,1.825-0.045
				c0.683-0.029,1.287-0.059,1.822-0.089c0.504-0.065,0.786-0.095,0.846-0.095h0.132v-0.135c0.178-0.381,0.272-0.797,0.278-1.215
				v-0.096c0-0.071-0.004-0.144-0.01-0.215c-0.023-0.289-0.113-0.565-0.265-0.811v-0.181l-0.313-0.18
				c-0.117,0-0.457-0.015-1.021-0.046c-0.598-0.029-1.203-0.029-1.822,0c-0.623,0.031-1.188,0.046-1.692,0.046
				c-0.364-0.008-0.724,0.053-1.065,0.18l-0.355,0.094c-0.156,0.074-0.318,0.136-0.488,0.181c-0.15-0.003-0.307,0.028-0.443,0.092
				h-6.315v-0.087c-0.026-0.056-0.043-0.119-0.043-0.18c-0.026-0.024-0.045-0.059-0.047-0.096l-1.199-0.268
				c-0.149-0.004-0.297-0.019-0.444-0.046c-0.104-0.004-0.209-0.02-0.312-0.043h-0.399c-0.002-0.257,0.028-0.513,0.088-0.763
				c0.017-0.158,0.062-0.313,0.138-0.45c0.112-0.637,0.188-1.283,0.222-1.929V7.794c0.11-1.144-0.188-2.289-0.843-3.232
				c-0.077-0.302-0.354-0.509-0.669-0.494h-0.934C70.4,3.98,69.82,3.934,69.241,3.932c-0.89,0-2.181-0.016-3.866-0.045
				c-1.725-0.029-4.003-0.088-6.85-0.178C52.887,3.234,47.23,2.997,41.573,2.997C40.264,2.997,38.962,3.009,37.662,3.035"/>
		</defs>
		<clipPath id="SVGID_2_">
			<use xlink:href="#SVGID_1_"  overflow="visible"/>
		</clipPath>
		<g clip-path="url(#SVGID_2_)">
			<path fill="#033500" d="M23.686,35.566c-0.508,0-1.016,0-1.523,0c-0.962-0.194-1.925-0.396-3.081-0.629
				c-0.092,0.104-0.316,0.365-0.541,0.629c-4.574,0-9.147,0-13.721,0c-0.277-0.461-0.643-0.895-0.798-1.396
				c-0.098-0.313,0.119-0.726,0.195-1.094c0.338,0.082,0.689,0.129,1.01,0.256c0.158,0.063,0.259,0.271,0.386,0.41
				c0.571,0.633,0.943,0.422,1.261-0.293c-0.311-0.224-0.584-0.418-1.002-0.718c1.415-0.545,1.932-1.512,1.884-2.938
				c-0.012-0.35,0.739-0.859,1.234-1.055c0.57-0.221,1.256-0.121,1.872-0.256c0.819-0.178,1.796-0.027,2.474-1.103
				c-0.479-0.159-0.853-0.352-1.246-0.405c-0.562-0.086-1.154,0-1.7-0.132c-0.363-0.088-0.958-0.448-0.942-0.646
				c0.04-0.473,0.255-1.145,0.616-1.342c1.44-0.783,3.218-0.51,4.385,0.094c1.223,0.633,2.229,0.672,3.375,0.469
				c2.883-0.508,5.544-0.303,7.77,1.896c0.438,0.434,1.043,0.729,1.619,0.979c1.744,0.752,3.928,0.148,5.049-1.34
				c0.693-0.918,0.39-1.805-0.635-2.199c-0.687-0.264-1.623-0.588-1.864-1.143c-0.403-0.926-0.923-1.158-1.8-1.143
				c-1.238,0.022-2.081-0.734-2.223-1.992c-0.083-0.731-0.17-1.485-0.078-2.207c0.042-0.338,0.459-0.69,0.788-0.913
				c0.769-0.524,1.607-0.947,2.382-1.462c1.347-0.9,2.661-1.786,4.336-0.681c0.249,0.163,0.691,0.152,1.007,0.07
				c1.209-0.307,2.403-0.677,3.702-1.052c-0.229-0.477-0.493-1.025-0.774-1.608c-0.294,0-0.579,0-0.863,0
				c0.244-0.265,0.52-0.396,0.782-0.373c0.985,0.093,1.963,0.271,2.948,0.349c0.855,0.068,1.392-0.419,1.556-1.229
				c0.163-0.81-0.138-1.511-0.947-1.753c-1.313-0.391-2.096-1.636-3.6-1.877c-0.948-0.153-1.613-0.438-2.252,0.477
				c-0.468-0.502-0.553-0.957,0-1.308c0.239-0.152,0.608-0.131,0.918-0.133c1.081-0.008,2.205,0.279,2.975-0.92
				c0.189-0.292,0.861-0.288,1.318-0.389c0.365-0.082,0.776-0.042,1.101-0.195c0.313-0.146,0.54-0.471,0.805-0.718
				c-0.342-0.143-0.687-0.403-1.029-0.399c-0.562,0.004-1.118,0.206-1.684,0.278c-0.744,0.094-1.334-0.274-1.386-0.975
				c-0.03-0.41,0.345-0.984,0.708-1.25c0.368-0.269,0.942-0.284,1.433-0.35c0.687-0.091,1.385-0.083,2.066-0.198
				c0.635-0.108,0.566-0.539,0.223-0.893c-0.205-0.212-0.546-0.428-0.815-0.416c-1.453,0.065-2.912,0.131-4.346,0.35
				c-0.502,0.078-1.09,0.494-1.372,0.928c-0.659,1.014-1.58,1.431-2.674,1.785c-0.574,0.186-1.189,0.78-1.427,1.342
				c-0.369,0.87-0.901,1.259-1.777,1.275c-0.857,0.016-1.717-0.041-2.569,0.021c-0.284,0.021-0.548,0.312-0.821,0.479
				c0.208,0.186,0.444,0.349,0.62,0.561c0.298,0.361,0.559,0.75,0.835,1.129c-0.34,0.233-0.654,0.553-1.031,0.668
				c-0.299,0.091-0.678-0.05-1.014-0.121c-0.779-0.167-1.541-0.656-2.35-0.037c-0.107,0.084-0.397-0.08-0.605-0.116
				c-0.259-0.046-0.521-0.081-0.782-0.114c-0.611-0.076-1.22-0.186-1.833-0.215c-0.739-0.037-1.92-0.286-2.14,0.055
				c-0.631,0.979-2.167,1.172-2.196,2.641c-0.009,0.504-0.302,1.001-0.514,1.653c-0.221-0.292-0.39-0.514-0.566-0.747
				c-1.682,0.283-3.585-0.339-4.983,1.143c0.414,1.389,1.444,1.379,2.535,1.297c3.097-0.232,6.195-0.39,9.275,0.199
				c0.295,0.057,0.812,0.13,0.828,0.249c0.042,0.32-0.129,0.667-0.223,1.033c-1.355-0.399-2.422-0.15-3.43,0.638
				c-0.36,0.283-0.922,0.393-1.402,0.425c-1.284,0.092-1.357,0.152-1.014,1.519c0.912,0.12,1.868,0.208,2.803,0.399
				c0.162,0.033,0.386,0.549,0.321,0.766c-0.388,1.299-1.201,2.201-2.594,2.478c-0.769,0.151-1.635,0.149-2.28,0.524
				c-1.235,0.715-2.398,0.934-3.748,0.399c-0.56-0.224-1.377-0.476-1.802-0.231c-1.397,0.799-2.364,0.274-3.409-0.623
				c-0.759-0.653-1.69-0.963-2.782-0.573c0.142,0.297,0.245,0.558,0.386,0.798c0.936,1.58,1.397,3.309,1.64,5.111
				c0.197,1.465-0.619,2.27-2.069,1.979c-0.492-0.094-0.987-0.223-1.452-0.407c-0.53-0.216-0.993-0.353-1.438,0.168
				C-0.486,29.7-0.312,30.163,0,30.648c0.418,0.66,0.351,1.14-0.516,1.289c0-5.397,0-10.795,0-16.195
				c0.274,0.041,0.631-0.014,0.804,0.141c0.492,0.438,0.927,0.944,1.35,1.455c0.609,0.732,1.355,0.858,2.105,0.363
				c1.206-0.795,2.343-0.602,3.601-0.118c1.011,0.39,2.11,0.611,3.19,0.736c0.821,0.096,1.543-0.6,1.405-1.194
				c-0.212-0.903-0.962-0.588-1.483-0.475c-0.783,0.171-1.433-0.014-1.876-0.593c-0.827-1.076-1.821-1.19-3.026-0.819
				c-0.822,0.256-1.12-0.062-0.977-0.914c0.034-0.2,0.095-0.395,0.194-0.793c-1.685,0.499-2.708-0.39-3.247-1.608
				c-0.453-1.017-1.022-1.392-2.039-1.322c0-1.333,0-2.667,0-4.001c0.447-0.475,1.054-0.874,0.783-1.734
				C0.015,4.811-0.25,4.752-0.516,4.694c0-0.762,0-1.525,0-2.287c1.08,0.322,2.161,0.643,3.242,0.964
				C4.282,2.07,5.669,2.635,7.015,3.75c0.088,0.072,0.243,0.06,0.362,0.102c0.737,0.264,0.597,0.875,0.396,1.343
				C7.579,5.64,7.167,5.771,6.683,5.378C6.053,4.87,5.359,4.866,4.662,5.315c-1.29,0.835-2.59,1.654-3.941,2.516
				c0.567,0.944,1.036,1.726,1.57,2.617C3.767,8.99,5.354,7.952,7.438,9.351C7.254,9.04,7.07,8.729,6.813,8.293
				c1.23-0.408,2.372-0.881,3.56-1.15c1.167-0.267,2.378-0.349,3.575-0.461c0.332-0.031,0.68,0.124,1.023,0.187
				c0.229,0.042,0.46,0.073,0.749,0.118c0.007-0.941-0.662-1.143-1.203-1.502c-0.589-0.393-1.149-0.852-1.643-1.358
				c-0.857-0.879-1.644-1.829-2.488-2.722C10.228,1.238,9.918,1.087,9.708,1.12c-1.035,0.16-1.788-0.2-2.25-1.209
				C6.93,1.019,6.704,1.08,5.671,0.496C4.342-0.257,4.127-0.225,3.07,0.888C2.875,1.094,2.617,1.261,2.478,1.5
				c-0.43,0.731-0.873,0.98-1.645,0.367C0.49,1.594-0.06,1.583-0.516,1.455c0-3.621,0-7.242,0-10.863
				c0.145,0,0.29-0.001,0.436-0.001c1.026-0.648,2.055-1.034,3.216-0.259C3.324-9.542,3.691-9.712,3.97-9.689
				c0.894,0.076,1.832,0.036,2.663,0.312C7.318-9.15,7.799-9.125,8.322-9.606c0.679-0.625,1.227-0.443,1.883,0.166
				c0.768,0.711,1.694,1.249,2.552,1.861c0.084-0.042,0.167-0.084,0.251-0.126c-0.42-1.681,1.833-2.364,1.419-4.179
				c-0.26,0.287-0.438,0.483-0.775,0.856c0.225-0.536,0.354-0.845,0.5-1.19c-0.231-0.163-0.429-0.313-0.637-0.448
				c-1.327-0.854-2.519-1.785-2.664-3.558c-0.019-0.231-0.547-0.482-0.883-0.612c-0.634-0.247-1.341-0.332-1.934-0.645
				c-0.275-0.144-0.51-0.679-0.475-1.006c0.029-0.26,0.483-0.651,0.771-0.671c0.743-0.051,1.497,0.063,2.246,0.125
				c0.716,0.063,1.44,0.253,2.142,0.185c0.696-0.067,1.084-0.688,0.822-1.323c-0.128-0.311-0.77-0.555-1.188-0.568
				c-0.68-0.021-1.366,0.229-2.052,0.252c-0.754,0.026-1.068-0.483-0.832-1.195c0.364-1.102,1.398-1.656,2.675-1.394
				c0.854,0.175,1.696,0.407,2.474,0.597c-0.117,0.303-0.231,0.599-0.344,0.894c0.314,0.102,0.624,0.267,0.945,0.29
				c0.503,0.038,1.039,0.077,1.516-0.054c2.401-0.655,4.633-0.165,6.833,0.832c1.837,0.832,3.785,1.38,5.803,1.265
				c0.995-0.057,1.989-0.526,2.929-0.934c0.264-0.115,0.479-0.688,0.447-1.025c-0.023-0.247-0.485-0.455-0.753-0.678
				c-0.706-0.594-1.51-1.106-2.088-1.805c-0.471-0.568-0.79-0.759-1.327-0.268c0.12,0.234,0.26,0.443,0.318,0.674
				c0.012,0.048-0.27,0.193-0.43,0.259c-0.337,0.139-0.737,0.185-1.016,0.395c-0.644,0.482-1.296,0.47-1.954,0.139
				c-0.848-0.425-1.673-0.894-2.494-1.367c-0.987-0.571-1.044-1.006-0.299-1.836c0.16-0.178,0.263-0.408,0.404-0.631
				c0.622,0.923,1.497,0.918,2.058,0.009c0.358-0.582,0.679-0.997,1.508-0.667c0.335,0.134,1.087-0.065,1.254-0.348
				c0.604-1.024,1.446-1.246,2.544-1.254c1.125-0.007,2.092,0.705,2.381,1.789c0.126,0.479,0.525,1.011,0.952,1.26
				c1.154,0.67,1.187,0.616,0.552,1.909c0.431,0.062,0.831,0.107,1.227,0.177c0.992,0.175,2.052,0.197,2.956,0.584
				c1.07,0.458,1.973,0.448,2.98-0.063c1.096-0.555,2.248-0.997,3.357-1.524c0.711-0.336,1.446-0.663,2.067-1.133
				c0.828-0.628,1.013-1.613,0.58-2.267c0.385-0.178,0.771-0.358,1.156-0.539c-0.391-0.766-0.84-0.685-1.25-0.254
				c-0.166-0.263-0.272-0.624-0.428-0.644c-0.879-0.114-0.75-0.679-0.641-1.26c6.396,0,12.795,0,19.247,0c0,4.192,0,8.384,0,12.577
				c-0.148,0.025-0.33,0.007-0.448,0.083c-0.339,0.216-0.646,0.472-0.97,0.711c0.268,0.177,0.522,0.374,0.803,0.525
				c0.188,0.101,0.41,0.14,0.615,0.206c0,1.715,0,3.43,0,5.146c-0.564,0.024-1.14,0.003-1.695,0.086
				c-0.926,0.139-1.854,0.301-2.755,0.551c-0.248,0.069-0.573,0.493-0.558,0.731c0.021,0.247,0.375,0.534,0.647,0.679
				c0.265,0.139,0.608,0.177,0.916,0.157c1.147-0.078,2.297-0.196,3.44-0.3c0,4.701,0,9.401,0,14.103
				c-0.59-0.171-1.19-0.31-1.77-0.521c-0.529-0.193-1.006-0.561-1.545-0.68c-1.086-0.241-2.205-0.344-3.303-0.553
				c-0.266-0.051-0.502-0.289-0.748-0.441c0.154-0.246,0.25-0.601,0.471-0.718c1.045-0.557,2.109-0.475,3.197,0.09
				c0.355-0.66,0.707-1.31,1.16-2.146c-0.967-0.075-1.744-0.12-2.519-0.202c-0.448-0.047-0.926-0.081-1.334-0.255
				c-1.073-0.462-1.17-0.45-1.67,0.861c-0.782-0.414-1.558-0.783-2.287-1.222c-0.723-0.435-1.399-0.941-1.983-1.339
				c-0.063,0.48,0,1.012-0.229,1.337c-0.146,0.209-0.728,0.148-1.108,0.146c-0.17-0.001-0.332-0.175-0.511-0.24
				c-0.926-0.336-1.854-0.662-2.784-0.991c-0.064,0.133-0.132,0.266-0.195,0.399c0.412,0.304,0.816,0.618,1.236,0.91
				c0.723,0.505,1.58,0.887,2.151,1.526c0.595,0.662,0.905,1.582,2.088,1.477c-0.466,0.134-0.911,0.181-1.241,0.01
				c-1.148-0.595-2.244-1.291-3.394-1.888c-0.296-0.152-0.722-0.16-1.058-0.093c-0.582,0.117-0.67-0.093-0.601-0.601
				c0.104-0.755-0.297-0.756-0.896-0.527c0.479,0.705,0.246,1.053-0.501,1.192c-0.496,0.093-1.037,0.163-1.453,0.414
				c-0.351,0.211-0.833,0.745-0.764,1.004c0.2,0.742,0.496,1.587,1.039,2.076c0.729,0.655,0.645,1.121,0.133,1.746l0.023-0.021
				c-0.545,0.679-1.246,0.885-2.106,0.82c-0.301-0.023-0.627,0.28-0.943,0.434c0.27,0.269,0.494,0.654,0.819,0.777
				c0.395,0.148,0.875,0.109,1.315,0.093c1.382-0.047,2.474,0.616,3.649,1.379c-0.906,0.772-1.729,1.469-2.545,2.166
				c0.06,0.08,0.112,0.161,0.169,0.24c1.333-0.107,2.328,0.606,3.232,1.402c1.387,1.215,2.924,1.788,4.781,1.676
				c0.641-0.036,1.336,0.246,1.945,0.524c0.858,0.39,2.673,0.027,3.324-0.642c0.342-0.35,0.881-0.569,1.371-0.707
				c0.51-0.141,1.077-0.063,1.604-0.164c1.333-0.25,1.691-0.825,1.598-2.193c-0.023-0.355,0.188-1.001,0.4-1.052
				c1.186-0.282,1.398-1.148,1.527-2.139c0.047-0.364,0.166-0.721,0.25-1.08c0,1.269,0,2.541,0,3.812
				c-0.938,0.188-1.509,0.751-1.705,1.688c-0.112,0.526-0.24,1.048-0.326,1.577c-0.188,1.141-0.478,2.219-1.449,2.983
				c-0.191,0.15-0.445,0.417-0.422,0.603c0.053,0.452,0.197,0.915,0.416,1.314c0.084,0.154,0.617,0.272,0.688,0.19
				c0.266-0.313,0.479-0.701,0.602-1.095c0.063-0.206-0.139-0.478-0.161-0.724c-0.111-1.068,0.229-1.423,1.309-1.493
				c0.356-0.023,0.703-0.183,1.056-0.281c0,5.464,0,10.929,0,16.39c-1.002,0.252-1.269-0.566-1.715-1.156
				c-0.252-0.332-0.638-0.898-0.867-0.854c-0.967,0.174-1.9,0.524-2.828,0.858c-0.123,0.048-0.146,0.357-0.215,0.541
				c0.442,0.091,0.815,0.14,1.17,0.254c0.729,0.236,1.385,0.81,1.057,1.517c-0.4,0.854-0.141,1.646-0.221,2.463
				c-5.146,0-10.291,0-15.438,0c0.652-0.342,1.275-0.887,1.963-0.986c1.43-0.207,2.895-0.201,4.342-0.238
				c1.324-0.035,2.348-0.668,3.57-1.608c-1.307,0.116-2.146-0.041-2.205-1.345c-0.01-0.199-0.42-0.451-0.689-0.553
				c-0.471-0.17-0.975-0.324-1.467-0.338c-0.629-0.016-0.66-0.35-0.604-0.809c0.084-0.695,0.605-0.881,1.166-0.854
				c0.973,0.054,1.957,0.125,2.908,0.313c2.082,0.412,3.197-0.162,3.566-2.074c-0.563-0.137-1.138-0.266-1.705-0.408
				c-0.427-0.104-0.906-0.137-1.252-0.367c-0.685-0.453-1.289-1.021-1.795-1.438c0.123-0.482,0.536-1.154,0.351-1.539
				c-0.337-0.701-1.062-0.393-1.679-0.125c0.18,0.389,0.336,0.738,0.608,1.342c-0.627-0.098-1.053-0.068-1.379-0.232
				c-1.104-0.561-1.095-0.584-1.563,0.631c-0.707,1.826-1.468,2.345-3.343,2.314c-0.823-0.012-1.651-0.033-2.477,0.01
				c-0.562,0.027-1.135,0.104-1.671,0.263c-0.917,0.278-1.103,0.932-0.559,1.727c0.176,0.257,0.351,0.515,0.617,0.898
				c-0.857,0.196-1.585,0.415-2.328,0.526c-0.792,0.117-1.316,0.361-1.226,1.312c0.073,0.75-0.41,0.963-1.085,0.971
				c-0.765,0.015-0.941-0.428-0.83-1.041c0.092-0.514,0.296-1.006,0.435-1.51c0.135-0.496,0.249-0.994,0.433-1.731
				c-0.565,0.223-0.806,0.291-1.018,0.409c-1.274,0.709-2.572,1.127-4.084,0.826c-1.021-0.199-1.38,0.332-1.106,1.36
				c0.057,0.218,0.113,0.433,0.205,0.634c0.375,0.828,0.037,1.284-0.776,1.438c-0.394,0.074-0.809,0.037-1.215,0.06
				c-0.868,0.041-1.735,0.104-2.604,0.123c-0.347,0.006-0.695-0.089-1.042-0.138c-0.506,0.068-1.451,0.322-1.476,0.646
				C25.443,35.316,24.444,35.245,23.686,35.566z M39.127-11.989c-0.506-0.012-1.013-0.015-1.519-0.039
				c-1.125-0.052-2.171,0.039-2.434,1.039c-0.736,0.209-1.301,0.232-1.689,0.507c-0.968,0.688-1.977,0.949-3.135,0.706
				c-0.494-0.104-0.998-0.164-1.499-0.226c-2.19-0.268-4.439-0.16-6.527-1.093c-0.346-0.154-0.873-0.159-1.218-0.009
				c-1.118,0.486-2.135,0.152-3.194-0.166c-0.506-0.151-0.937-0.043-1.19,0.594c-0.238,0.6-0.706,1.104-1.054,1.665
				c-0.351,0.563-0.678,1.14-0.965,1.625c1.021,0.124,1.914,0.183,2.786,0.351c0.915,0.176,1.805,0.469,2.711,0.691
				c0.487,0.119,1.021,0.118,1.464,0.32c0.286,0.13,0.643,0.559,0.61,0.808c-0.033,0.26-0.462,0.583-0.775,0.667
				c-0.445,0.122-0.942,0.054-1.417,0.061c-1.293,0.019-1.536,0.359-0.964,1.612c-1.077,0.229-2.122,0.45-3.167,0.672
				c0.012,0.146,0.023,0.293,0.035,0.439c0.689,0.102,1.377,0.203,2.148,0.317c0,0.447,0,0.898,0,1.457
				c1.685-0.36,2.899,0.451,4.072,1.356c1.288,0.993,2.804,1.208,4.359,1.44c2.12,0.313,3.654-1.24,5.563-1.571
				c0.501-0.086,0.44-0.631,0.047-0.863c-0.29-0.17-0.738-0.236-1.063-0.151c-0.887,0.23-1.73,0.631-2.62,0.829
				c-0.349,0.078-0.818-0.139-1.154-0.35c-0.167-0.105-0.301-0.622-0.204-0.729c0.246-0.271,0.627-0.421,0.963-0.603
				c0.074-0.04,0.2,0.021,0.28-0.015c0.242-0.106,0.632-0.201,0.67-0.366c0.045-0.204-0.144-0.574-0.34-0.697
				c-0.529-0.331-1.103-0.603-1.684-0.834c-0.556-0.221-1.21-0.26-1.695-0.572c-0.384-0.248-0.892-0.919-0.786-1.172
				c0.167-0.404,0.825-0.897,1.224-0.855c0.917,0.094,1.833,0.415,2.692,0.781c0.869,0.371,1.632,0.992,2.504,1.351
				c2.478,1.02,4.796,0.662,6.135-1.666c0.424-0.737,0.878-0.901,1.582-0.78c0.361,0.062,0.707,0.218,1.068,0.286
				c0.452,0.087,1.036,0.333,1.351,0.148c1.015-0.594,2.102-0.302,3.138-0.481c0.753-0.129,1.462-0.514,2.191-0.785
				c-0.037-0.125-0.074-0.25-0.112-0.376c-0.667-0.248-1.242,1.307-1.851,0.396c0.9-0.657,1.777-1.289,2.644-1.934
				c0.416-0.309,0.725-0.448,1.037,0.175c0.147,0.294,0.556,0.553,0.895,0.643c1.551,0.409,3.081,0.701,4.182,2.136
				c0.687,0.894,1.877,1.139,3.025,0.978c1-0.141,1.979-0.436,2.979-0.573c0.795-0.108,0.557-0.744,0.655-1.171
				C59.9-6.108,59.4-6.442,59.126-6.465c-0.789-0.063-1.588,0.004-2.383-0.033c-1.992-0.094-2.771-1.458-1.841-3.191
				c0.123-0.231,0.23-0.47,0.379-0.765c-1.795-0.191-3.836,0.603-4.649-1.705c-0.336,0-0.616,0-0.911,0
				c-0.229,0.804-0.462,1.608-0.691,2.416c-0.365,1.292-1.564,0.43-2.271,0.865c-0.146,0.089-0.383,0.085-0.561,0.041
				c-0.357-0.092-0.826-0.136-1.027-0.381c-0.761-0.929-1.618-1.065-2.703-0.663c-0.543,0.201-1.421-0.596-1.136-0.886
				c0.956-0.97,0.831-1.952,0.339-3.032c-0.037-0.081,0.025-0.206,0.054-0.389c-0.402,0.033-0.844-0.064-0.996,0.104
				c-0.592,0.654-1.091,1.392-1.625,2.098L39.127-11.989z M45.047-20.467c-0.683,0.318-1.138,0.673-1.625,0.724
				c-0.733,0.075-1.267,0.238-1.24,1.075c0.026,0.798,0.286,1.363,1.259,1.466c0.43,0.046,1.136,0.504,1.158,0.817
				c0.057,0.757,0.395,1.201,0.909,1.67c0.801,0.733,0.748,1.091-0.121,1.712c0.863,0.487,1.798,0.606,2.796,0.184
				c1.779-0.754,3.553-1.047,5.435-0.354c0.348,0.127,1.085,0.027,1.202-0.199c0.754-1.441,1.929-1.86,3.47-1.901
				c1.078-0.028,2.14-0.46,3.224-0.592c0.898-0.109,1.116-0.349,1.01-1.276c-0.035-0.313,0.19-0.687,0.381-0.982
				c0.132-0.21,0.396-0.336,0.923-0.75c-2.228-0.091-3.218-1.008-2.729-3.094c-0.506-0.036-0.91-0.009-1.281-0.109
				c-0.391-0.107-0.961-0.252-1.071-0.531c-0.277-0.722-0.798-0.668-1.375-0.731c-0.742-0.081-1.478-0.269-2.302-0.428
				c-0.606,0.425-1.408,0.982-2.205,1.546c-0.592,0.42-1.194,0.829-1.756,1.29c-0.164,0.136-0.33,0.506-0.26,0.643
				c0.106,0.203,0.424,0.403,0.656,0.414c0.596,0.026,1.225,0.037,1.795-0.109c1.627-0.415,3.135-0.101,4.563,0.666
				c0.285,0.152,0.633,0.584,0.598,0.835c-0.043,0.281-0.451,0.594-0.768,0.723c-0.364,0.151-0.808,0.16-1.213,0.153
				c-1.283-0.019-2.258,0.415-2.883,1.619c-0.193,0.376-0.644,0.747-1.048,0.868c-1.472,0.439-2.983,0.577-4.479,0.106
				c-0.271-0.086-0.606-0.528-0.604-0.802c0.013-1.422,0.05-1.438-1.34-1.812c-0.767-0.205-1.109-0.668-1.078-1.449
				C45.062-19.536,45.047-19.994,45.047-20.467z M46.041,20.086c-1.094,0.328-2.224,0.656-3.348,1.006
				c-0.39,0.125-0.778,0.277-1.136,0.473c-1.193,0.664-1.395,0.672-2.202-0.409c-0.519-0.693-1.144-0.955-1.97-0.859
				c-0.408,0.045-0.822,0.06-1.231,0.104c-0.748,0.078-1.336-0.144-1.571-0.904c-0.247-0.803,0.074-1.393,0.848-1.657
				c0.714-0.243,1.452-0.443,2.196-0.56c1.594-0.244,3.205-0.388,4.795-0.65c0.47-0.079,1.053-0.339,0.843-1.025
				c-0.21-0.693-0.772-0.456-1.274-0.385c-1.05,0.148-2.105,0.253-3.157,0.39c-0.139,0.019-0.267,0.124-0.403,0.18
				c-0.447,0.187-0.885,0.483-1.347,0.532c-0.875,0.088-1.764,0.015-2.647,0.041c-1.917,0.053-2.422,0.583-2.722,1.833
				c0.204,0.082,0.422,0.139,0.611,0.246c0.299,0.167,0.85,0.438,0.821,0.538c-0.104,0.389-0.354,0.764-0.63,1.071
				c-0.202,0.228-0.559,0.308-0.79,0.515c-0.275,0.25-0.489,0.567-0.855,1.008c0.538,0.096,0.808,0.176,1.08,0.186
				c1.588,0.057,2.793,0.77,3.838,1.963c1.09,1.245,2.293,1.459,3.631,0.485c1.54-1.117,3.19-1.375,5.004-1.44
				c1.101-0.041,2.188-0.455,3.282-0.699c-0.018-0.114-0.031-0.227-0.048-0.344c-0.47-0.121-1.089-0.106-1.364-0.408
				C46.021,21.012,46.092,20.396,46.041,20.086z M36.458-16.057c-0.093-0.026-0.293-0.112-0.499-0.134
				c-1.976-0.204-3.955-0.385-5.931-0.598c-0.874-0.094-1.737-0.291-2.612-0.362c-1.115-0.091-2.167,0.135-2.887,1.085
				c-0.594,0.786-0.159,1.756,0.794,1.799c0.215,0.01,0.487-0.346,0.652-0.292c0.764,0.249,1.595,0.457,2.225,0.92
				c0.993,0.729,1.928,0.661,2.925,0.183C32.905-14.309,34.674-15.185,36.458-16.057z M61.414,28.775
				c1.107-1.78,1.115-2.172-0.072-3.448c-0.236-0.261-0.793-0.55-0.984-0.438c-0.313,0.176-0.59,0.657-0.621,1.03
				C59.625,27.195,60.363,28.04,61.414,28.775z M15.662,18.676c-0.916,0-1.785-0.02-2.649,0.018c-0.16,0.009-0.423,0.24-0.432,0.384
				c-0.01,0.146,0.21,0.411,0.371,0.444c0.841,0.189,1.696,0.324,2.607,0.486C15.599,19.482,15.627,19.121,15.662,18.676z
				 M53.801-27.45c0.305,0.132,0.637,0.373,0.99,0.41c0.533,0.055,1.104,0.043,1.609-0.099c0.178-0.05,0.223-0.571,0.328-0.877
				c-0.314-0.049-0.658-0.198-0.943-0.126C55.125-27.974,54.488-27.699,53.801-27.45z M46.652,19.184
				c0.186,0.609,0.277,1.181,0.537,1.658c0.138,0.26,0.656,0.564,0.844,0.484c0.453-0.197,0.387-1.646-0.025-2.174
				C47.529,18.547,47.088,18.85,46.652,19.184z M6.841,12.729c-0.72-0.16-1.221-0.267-1.855-0.409
				C5.511,13.583,5.716,13.636,6.841,12.729z"/>
			<path fill="#EADA7F" d="M-0.516,31.943C0.35,31.794,0.418,31.314,0,30.655c-0.311-0.484-0.485-0.949-0.04-1.468
				c0.445-0.521,0.908-0.381,1.438-0.168c0.464,0.188,0.959,0.313,1.452,0.408c1.45,0.285,2.266-0.52,2.069-1.979
				c-0.242-1.806-0.704-3.533-1.64-5.113c-0.142-0.239-0.244-0.501-0.386-0.798c1.091-0.391,2.022-0.08,2.782,0.574
				c1.045,0.896,2.012,1.423,3.409,0.623c0.425-0.241,1.243,0.009,1.802,0.232c1.35,0.533,2.513,0.314,3.748-0.4
				c0.645-0.375,1.511-0.373,2.28-0.523c1.393-0.275,2.206-1.178,2.594-2.479c0.064-0.215-0.159-0.732-0.321-0.767
				c-0.935-0.19-1.892-0.28-2.803-0.398c-0.343-1.367-0.27-1.427,1.014-1.519c0.48-0.032,1.042-0.142,1.402-0.425
				c1.008-0.788,2.075-1.037,3.43-0.638c0.094-0.366,0.265-0.713,0.223-1.033c-0.016-0.119-0.533-0.191-0.828-0.249
				c-3.08-0.588-6.178-0.431-9.275-0.199c-1.091,0.082-2.122,0.092-2.535-1.297c1.398-1.482,3.302-0.86,4.983-1.143
				c0.176,0.233,0.345,0.454,0.566,0.747c0.212-0.652,0.505-1.149,0.514-1.653c0.029-1.469,1.564-1.662,2.196-2.641
				c0.22-0.341,1.401-0.091,2.14-0.055c0.613,0.029,1.223,0.139,1.833,0.215c0.261,0.033,0.523,0.068,0.782,0.114
				c0.208,0.036,0.498,0.2,0.605,0.116c0.81-0.619,1.571-0.13,2.35,0.037c0.336,0.07,0.715,0.212,1.014,0.121
				c0.377-0.115,0.691-0.436,1.031-0.668c-0.276-0.378-0.537-0.768-0.835-1.129c-0.176-0.212-0.412-0.375-0.62-0.561
				c0.273-0.167,0.537-0.458,0.821-0.479c0.853-0.061,1.712-0.004,2.569-0.02c0.876-0.016,1.408-0.405,1.777-1.275
				c0.238-0.562,0.854-1.156,1.427-1.342c1.094-0.354,2.015-0.771,2.674-1.785c0.282-0.434,0.87-0.85,1.372-0.928
				c1.434-0.219,2.893-0.285,4.346-0.35c0.269-0.012,0.61,0.204,0.815,0.416c0.343,0.354,0.413,0.785-0.223,0.893
				c-0.681,0.114-1.379,0.106-2.066,0.198c-0.491,0.065-1.065,0.081-1.433,0.35c-0.363,0.266-0.738,0.84-0.708,1.25
				c0.052,0.701,0.642,1.069,1.386,0.975c0.565-0.072,1.122-0.274,1.684-0.278c0.342-0.003,0.687,0.257,1.029,0.399
				c-0.265,0.247-0.494,0.572-0.805,0.718c-0.325,0.153-0.736,0.113-1.101,0.195c-0.457,0.102-1.129,0.097-1.318,0.389
				c-0.77,1.199-1.894,0.913-2.975,0.92c-0.31,0.002-0.679-0.019-0.918,0.133c-0.553,0.351-0.468,0.806,0,1.308
				c0.639-0.914,1.304-0.63,2.252-0.477c1.504,0.241,2.287,1.487,3.6,1.877c0.809,0.242,1.11,0.943,0.947,1.753
				c-0.165,0.809-0.701,1.297-1.556,1.229c-0.985-0.078-1.963-0.256-2.948-0.349c-0.262-0.023-0.538,0.107-0.782,0.373
				c0.284,0,0.569,0,0.863,0c0.281,0.583,0.545,1.132,0.774,1.608c-1.299,0.375-2.493,0.745-3.702,1.052
				c-0.316,0.083-0.759,0.093-1.007-0.07c-1.676-1.104-2.989-0.219-4.336,0.681c-0.774,0.515-1.613,0.938-2.382,1.462
				c-0.329,0.223-0.746,0.575-0.788,0.913c-0.093,0.72-0.005,1.476,0.078,2.208c0.142,1.259,0.984,2.016,2.223,1.992
				c0.877-0.017,1.397,0.217,1.8,1.141c0.241,0.555,1.177,0.879,1.864,1.145c1.024,0.396,1.328,1.279,0.635,2.197
				c-1.121,1.488-3.305,2.092-5.049,1.34c-0.576-0.25-1.181-0.545-1.619-0.979c-2.226-2.197-4.887-2.404-7.77-1.896
				c-1.146,0.203-2.152,0.164-3.375-0.469c-1.167-0.602-2.945-0.875-4.385-0.092c-0.361,0.197-0.576,0.869-0.616,1.342
				c-0.016,0.195,0.579,0.559,0.942,0.645c0.546,0.131,1.139,0.045,1.7,0.131c0.394,0.058,0.768,0.246,1.246,0.408
				c-0.678,1.07-1.654,0.922-2.474,1.101c-0.616,0.135-1.302,0.034-1.872,0.258c-0.495,0.19-1.246,0.705-1.234,1.053
				c0.047,1.429-0.469,2.396-1.884,2.939c0.418,0.297,0.691,0.491,1.002,0.715c-0.317,0.715-0.689,0.926-1.261,0.293
				c-0.127-0.142-0.228-0.349-0.386-0.41c-0.32-0.127-0.672-0.174-1.01-0.256c-0.076,0.369-0.292,0.778-0.195,1.094
				c0.155,0.503,0.521,0.937,0.798,1.396c-1.779,0-3.558,0-5.336,0C-0.516,34.359-0.516,33.152-0.516,31.943z M30.422,8.216
				c-0.969,0.388-1.766,0.707-2.677,1.074C29.011,9.938,29.989,9.586,30.422,8.216z M23.31,22.225
				c-0.262-0.233-0.507-0.641-0.769-0.651c-0.402-0.017-0.843,0.194-1.202,0.411c-0.077,0.048,0.081,0.779,0.208,0.807
				C22.169,22.911,22.867,23.057,23.31,22.225z M14.727,24.659c0.884-0.398,1.426-0.646,1.968-0.892
				c-0.03-0.141-0.061-0.276-0.09-0.418c-0.597,0.051-1.203,0.063-1.78,0.191C14.73,23.566,14.764,24.145,14.727,24.659z"/>
			<path fill="#FFFFFF" d="M46.363-30.562c-0.109,0.581-0.238,1.146,0.641,1.26c0.152,0.02,0.26,0.381,0.426,0.644
				c0.412-0.431,0.861-0.512,1.25,0.254c-0.389,0.181-0.771,0.361-1.154,0.539c0.431,0.653,0.248,1.638-0.58,2.267
				c-0.621,0.47-1.356,0.797-2.067,1.133c-1.112,0.528-2.263,0.97-3.357,1.524c-1.008,0.511-1.911,0.521-2.98,0.063
				c-0.904-0.387-1.963-0.409-2.956-0.584c-0.396-0.07-0.795-0.116-1.227-0.177c0.634-1.293,0.602-1.239-0.552-1.909
				c-0.426-0.249-0.826-0.781-0.952-1.26c-0.289-1.083-1.256-1.796-2.381-1.789c-1.098,0.008-1.939,0.229-2.544,1.254
				c-0.167,0.282-0.919,0.482-1.254,0.348c-0.829-0.33-1.15,0.085-1.508,0.667c-0.561,0.91-1.436,0.914-2.058-0.009
				c-0.141,0.224-0.244,0.453-0.404,0.631c-0.745,0.831-0.688,1.266,0.299,1.836c0.821,0.473,1.646,0.942,2.494,1.367
				c0.658,0.331,1.31,0.343,1.954-0.139c0.279-0.209,0.679-0.255,1.016-0.394c0.16-0.066,0.442-0.211,0.43-0.259
				c-0.058-0.23-0.198-0.44-0.318-0.674c0.537-0.491,0.856-0.3,1.327,0.268c0.578,0.699,1.382,1.211,2.088,1.805
				c0.268,0.224,0.73,0.431,0.753,0.678c0.032,0.338-0.184,0.911-0.447,1.025c-0.94,0.408-1.934,0.877-2.929,0.934
				c-2.018,0.115-3.965-0.434-5.803-1.265c-2.2-0.997-4.432-1.487-6.833-0.832c-0.477,0.131-1.013,0.092-1.516,0.054
				c-0.321-0.023-0.63-0.188-0.945-0.29c0.113-0.295,0.228-0.591,0.344-0.894c-0.778-0.189-1.62-0.421-2.474-0.597
				c-1.277-0.263-2.312,0.292-2.675,1.394c-0.236,0.711,0.078,1.222,0.832,1.195c0.687-0.024,1.372-0.275,2.052-0.252
				c0.418,0.014,1.061,0.258,1.188,0.568c0.262,0.635-0.126,1.255-0.822,1.323c-0.701,0.068-1.426-0.123-2.142-0.185
				c-0.749-0.063-1.503-0.176-2.246-0.125c-0.287,0.021-0.742,0.411-0.771,0.671c-0.035,0.327,0.2,0.862,0.475,1.006
				c0.593,0.313,1.3,0.398,1.934,0.646c0.336,0.13,0.865,0.381,0.883,0.612c0.145,1.772,1.337,2.704,2.664,3.558
				c0.208,0.135,0.406,0.285,0.637,0.448c-0.146,0.345-0.275,0.655-0.5,1.19c0.338-0.373,0.516-0.569,0.775-0.856
				c0.414,1.815-1.839,2.498-1.419,4.179c-0.084,0.042-0.167,0.084-0.251,0.126c-0.858-0.613-1.784-1.15-2.552-1.861
				c-0.656-0.609-1.204-0.791-1.883-0.166c-0.525,0.483-1.006,0.456-1.691,0.23C5.802-9.659,4.864-9.619,3.97-9.695
				C3.691-9.717,3.324-9.547,3.136-9.674c-1.161-0.775-2.19-0.389-3.216,0.259c0.245-0.458,0.489-0.917,0.794-1.488
				c-0.311-0.105-0.771-0.261-1.23-0.415c0-0.636,0-1.271,0-1.906c1.02-0.017,2.089,0.059,2.375-1.339
				c0.372,0.166,0.684,0.413,1.002,0.42c0.399,0.01,0.803-0.175,1.205-0.276c-0.122-0.397-0.128-1.004-0.388-1.146
				c-0.483-0.262-1.111-0.28-1.684-0.346c-0.365-0.042-0.739,0.016-1.109,0.021c-1.036,0.014-0.938-1.014-1.399-1.527
				c0-0.19,0-0.382,0-0.572c1.019,0.421,2.038,0.84,3.063,1.264c0.009-0.051-0.007-0.2,0.06-0.276
				c0.928-1.053,0.887-1.004-0.264-1.916c-0.54-0.428-0.88-1.108-1.397-1.79c1.067-0.228,1.83-0.389,2.59-0.551
				c-0.022-0.111-0.046-0.222-0.069-0.334c-0.823,0.059-1.646,0.117-2.468,0.175c-0.35-1.056-0.699-2.112-1.07-3.228
				c0.903,0,1.909,0.61,2.593-0.463c-0.321-0.402-0.785-0.74-0.902-1.173c-0.392-1.452-0.721-1.789-2.136-1.808
				c0-0.825,0-1.652,0-2.478c1.27,0,2.541,0,3.811,0c0.508,0.521,1.016,1.042,1.523,1.563c0.078-0.066,0.155-0.133,0.234-0.199
				c0.03-0.261,0.062-0.522,0.094-0.804c1.272,0.56,2.481,0.924,3.68,0c0.26,0.309,0.473,0.697,0.8,0.893
				c0.168,0.101,0.541-0.144,0.823-0.231c-0.009-0.106-0.018-0.213-0.027-0.319c-0.539-0.107-1.079-0.214-1.618-0.32
				c0.499-0.024,1.149-0.259,1.469-0.031c0.839,0.6,1.602,0.935,2.66,0.283c-0.154,0.474-0.349,0.911-0.646,0.997
				c-0.595,0.172-1.245,0.138-1.87,0.215c-0.49,0.06-0.976,0.16-1.463,0.242C8.978-28.185,9-28.09,9.022-27.998
				c1.757,0.277,3.468,0.332,4.779-1.254c0.746,1.263,1.767,1.687,3.032,1.647c-0.011,0.78,0.471,0.586,0.934,0.511
				c0.744-0.121,1.638-0.663,2.072,0.639c0.03-0.389-0.009-0.778-0.212-0.908c-0.977-0.621-0.618-1.967-1.479-2.642
				c-0.049-0.038,0.129-0.367,0.202-0.56c1.334,0,2.668,0,4.002,0c0.258,0.668,0.447,1.379,0.81,1.987
				c0.152,0.256,0.672,0.293,1.024,0.429c0.006-0.373,0.083-0.76,0.003-1.113c-0.102-0.449-0.329-0.87-0.503-1.303
				c1.081,0,2.161,0,3.24,0c0.632,0.967,1.083,0.967,1.715,0c3.621,0,7.242,0,10.863,0c0.083,0.833-0.526,0.895-1.098,0.954
				c-0.88,0.09-1.768,0.117-2.647,0.218c-0.798,0.093-1.449,0.863-1.316,1.585c0.136,0.748,0.485,1.23,1.419,1.069
				c0.982-0.171,1.843,0.215,2.628,0.838c1.161,0.923,1.921,0.934,3.046-0.03c0.871-0.746,1.773-1.007,2.89-0.718
				c0.951,0.245,1.761,0.009,2.186-0.92c-1.491-1.444-3.294-1.737-5.269-1.445c-0.234,0.035-0.505-0.161-0.76-0.25
				c0.568-0.296,1.106-0.333,1.614-0.479c0.829-0.237,1.637-0.545,2.454-0.824C45.219-30.562,45.791-30.562,46.363-30.562z
				 M20.339-24.477c-1.775,0.048-3.104,0.877-4.44,1.688C17.441-23.018,19.186-22.662,20.339-24.477z M12.906-27.441
				c0.033,0.108,0.067,0.215,0.101,0.323c0.631,0.195,1.208,0.264,1.403-0.805C13.851-27.744,13.378-27.593,12.906-27.441z
				 M7.165-16.094c0.051-0.146,0.103-0.287,0.154-0.43c-0.4-0.159-0.8-0.316-1.2-0.475c-0.048,0.112-0.097,0.225-0.146,0.338
				C6.37-16.473,6.766-16.284,7.165-16.094z M10.411-15.694c0.001-0.077,0.002-0.153,0.003-0.228c-0.511,0-1.022,0-1.532,0
				c0.003,0.103,0.007,0.204,0.01,0.306C9.399-15.644,9.905-15.668,10.411-15.694z"/>
			<path fill="#EADA7F" d="M65.609,6.981c-0.084,0.358-0.202,0.715-0.25,1.08c-0.129,0.99-0.344,1.856-1.527,2.139
				c-0.212,0.051-0.428,0.696-0.4,1.052c0.098,1.368-0.264,1.943-1.598,2.193c-0.523,0.1-1.094,0.021-1.604,0.164
				c-0.49,0.137-1.028,0.356-1.371,0.707c-0.65,0.669-2.465,1.031-3.324,0.642c-0.609-0.279-1.307-0.561-1.945-0.524
				c-1.857,0.112-3.396-0.461-4.779-1.676c-0.906-0.796-1.899-1.51-3.233-1.402c-0.056-0.079-0.109-0.16-0.169-0.24
				c0.819-0.697,1.64-1.394,2.546-2.166c-1.177-0.764-2.268-1.427-3.65-1.379c-0.44,0.016-0.921,0.055-1.315-0.093
				C42.664,7.355,42.44,6.97,42.17,6.701c0.316-0.154,0.642-0.457,0.943-0.434c0.863,0.065,1.562-0.141,2.106-0.82
				c0.215,0.972,0.418,1.069,1.558,0.604c-0.599-0.22-1.09-0.401-1.582-0.582c0.514-0.625,0.598-1.091-0.132-1.746
				c-0.543-0.488-0.839-1.333-1.039-2.076c-0.07-0.259,0.413-0.792,0.765-1.004c0.415-0.251,0.956-0.321,1.452-0.414
				c0.746-0.14,0.979-0.487,0.501-1.192c0.603-0.229,1.004-0.229,0.896,0.527c-0.07,0.508,0.02,0.718,0.6,0.601
				c0.338-0.067,0.765-0.06,1.06,0.093c1.146,0.597,2.242,1.293,3.394,1.888c0.33,0.171,0.774,0.124,1.246-0.011
				c-1.183,0.105-1.494-0.813-2.088-1.477c-0.572-0.64-1.431-1.021-2.152-1.526c-0.42-0.292-0.824-0.606-1.234-0.91
				c0.063-0.133,0.129-0.266,0.194-0.399c0.931,0.33,1.858,0.655,2.784,0.991c0.178,0.064,0.341,0.239,0.511,0.24
				c0.384,0.002,0.962,0.064,1.108-0.146c0.229-0.325,0.164-0.856,0.229-1.337c0.584,0.396,1.264,0.904,1.984,1.339
				c0.729,0.439,1.504,0.808,2.287,1.222c0.5-1.311,0.596-1.323,1.67-0.861c0.408,0.175,0.886,0.208,1.334,0.255
				c0.772,0.083,1.551,0.127,2.518,0.202c-0.453,0.835-0.805,1.486-1.16,2.146c-1.088-0.565-2.15-0.647-3.197-0.09
				c-0.221,0.117-0.313,0.473-0.471,0.718c0.248,0.152,0.482,0.39,0.75,0.441c1.096,0.208,2.215,0.312,3.301,0.553
				c0.539,0.119,1.016,0.487,1.545,0.68c0.576,0.211,1.18,0.351,1.771,0.521C65.609,5.457,65.609,6.218,65.609,6.981z M46.457,4.874
				c0.902,0.402,1.248,0.294,1.316-0.402c0.059-0.568,0.119-1.137,0.207-1.982c-0.291,0.567-0.446,0.945-0.668,1.281
				C47.059,4.158,46.746,4.506,46.457,4.874z M58.327,7.149c0.823-0.374,0.972-0.926,0.646-1.771
				C58.698,4.664,58.5,4.55,57.707,4.804C58.781,5.311,58.795,6.105,58.327,7.149z M58.979,3.147
				c-0.138,0.13-0.273,0.261-0.41,0.392c0.293,0.287,0.582,0.575,0.871,0.862c0.121-0.123,0.354-0.338,0.343-0.354
				C59.533,3.733,59.254,3.443,58.979,3.147z M60.883,8.123c-0.625-0.882-1.086-0.963-1.729-0.358
				C59.709,7.879,60.24,7.989,60.883,8.123z"/>
			<path fill="#FFFFFF" d="M23.686,35.566c0.759-0.321,1.758-0.25,1.855-1.532c0.024-0.322,0.97-0.576,1.476-0.646
				c0.347,0.049,0.696,0.145,1.042,0.137c0.868-0.021,1.735-0.082,2.604-0.123c0.406-0.021,0.821,0.02,1.215-0.06
				c0.813-0.153,1.151-0.61,0.776-1.438c-0.091-0.201-0.147-0.419-0.205-0.636c-0.274-1.028,0.085-1.561,1.106-1.358
				c1.512,0.299,2.81-0.119,4.084-0.828c0.212-0.119,0.453-0.188,1.018-0.41c-0.184,0.738-0.298,1.238-0.433,1.734
				c-0.139,0.502-0.343,0.993-0.435,1.508c-0.112,0.612,0.065,1.055,0.83,1.041c0.675-0.006,1.158-0.222,1.085-0.972
				c-0.09-0.946,0.434-1.19,1.226-1.311c0.743-0.111,1.471-0.332,2.328-0.527c-0.266-0.387-0.441-0.645-0.617-0.896
				c-0.544-0.797-0.358-1.449,0.559-1.729c0.536-0.157,1.109-0.231,1.671-0.262c0.823-0.043,1.65-0.02,2.477-0.01
				c1.877,0.029,2.635-0.49,3.344-2.314c0.472-1.215,0.457-1.188,1.563-0.631c0.326,0.164,0.75,0.137,1.377,0.234
				c-0.271-0.604-0.431-0.953-0.606-1.344c0.617-0.266,1.342-0.574,1.678,0.125c0.188,0.385-0.227,1.059-0.35,1.539
				c0.504,0.416,1.11,0.979,1.793,1.438c0.347,0.23,0.826,0.264,1.252,0.367c0.567,0.145,1.143,0.273,1.705,0.408
				c-0.369,1.912-1.483,2.488-3.565,2.076c-0.952-0.189-1.938-0.265-2.907-0.314c-0.561-0.027-1.082,0.156-1.166,0.854
				c-0.058,0.459-0.023,0.793,0.604,0.812c0.494,0.012,0.998,0.168,1.467,0.338c0.271,0.103,0.683,0.354,0.689,0.554
				c0.059,1.303,0.898,1.461,2.207,1.344c-1.228,0.938-2.246,1.574-3.572,1.606c-1.447,0.039-2.911,0.031-4.34,0.238
				c-0.688,0.103-1.313,0.646-1.963,0.985c-0.571,0-1.144,0-1.715,0c0.4-1.004,0.283-1.291-0.714-1.713
				c-0.804-0.342-1.61-0.676-2.413-1.012c0.293-0.105,0.583-0.213,0.873-0.32c-0.201-0.248-0.403-0.498-0.604-0.746
				c-0.082,0.045-0.162,0.097-0.242,0.142c0,0.315,0,0.633,0,0.946c-0.184-0.01-0.392-0.079-0.547-0.021
				c-0.486,0.197-1.086,0.332-1.381,0.703c-0.224,0.285-0.087,0.89-0.042,1.345c0.024,0.231,0.198,0.45,0.306,0.68
				C34.612,35.566,29.148,35.566,23.686,35.566z"/>
			<path fill="#EADA7F" d="M-0.516,1.455c0.456,0.129,1.006,0.14,1.349,0.412C1.605,2.48,2.048,2.231,2.478,1.5
				c0.14-0.238,0.397-0.405,0.593-0.612c1.057-1.112,1.272-1.145,2.601-0.392C6.704,1.08,6.93,1.019,7.458-0.089
				C7.92,0.92,8.673,1.28,9.708,1.12c0.21-0.033,0.52,0.119,0.678,0.285c0.844,0.893,1.63,1.843,2.488,2.722
				c0.494,0.507,1.054,0.966,1.643,1.358c0.541,0.36,1.209,0.562,1.203,1.502c-0.289-0.046-0.52-0.077-0.75-0.118
				c-0.343-0.062-0.691-0.217-1.023-0.186c-1.196,0.112-2.408,0.194-3.575,0.461c-1.188,0.27-2.33,0.742-3.56,1.15
				C7.07,8.729,7.254,9.04,7.438,9.352c-2.084-1.399-3.671-0.361-5.146,1.097C1.757,9.558,1.29,8.775,0.721,7.832
				c1.351-0.861,2.65-1.681,3.941-2.516c0.697-0.45,1.391-0.446,2.021,0.063C7.167,5.771,7.579,5.64,7.772,5.195
				c0.202-0.468,0.342-1.08-0.395-1.343C7.259,3.811,7.104,3.823,7.015,3.75c-1.346-1.116-2.734-1.681-4.29-0.379
				c-1.08-0.322-2.161-0.643-3.241-0.964C-0.516,2.089-0.516,1.772-0.516,1.455z"/>
			<path fill="#EADA7F" d="M-0.516,10.602c1.017-0.07,1.586,0.306,2.04,1.328c0.539,1.218,1.563,2.107,3.247,1.608
				c-0.099,0.397-0.16,0.592-0.194,0.792c-0.144,0.853,0.154,1.17,0.977,0.914c1.205-0.372,2.199-0.257,3.026,0.819
				c0.444,0.579,1.094,0.764,1.876,0.593c0.521-0.113,1.271-0.428,1.483,0.475c0.138,0.594-0.584,1.29-1.405,1.194
				c-1.08-0.125-2.179-0.346-3.19-0.736c-1.257-0.483-2.395-0.677-3.601,0.118c-0.75,0.495-1.496,0.369-2.105-0.363
				c-0.423-0.511-0.858-1.017-1.35-1.455c-0.173-0.155-0.53-0.101-0.804-0.141C-0.516,14.032-0.516,12.315-0.516,10.602z"/>
			<path d="M44.649-30.562c-0.817,0.278-1.625,0.586-2.454,0.824c-0.507,0.146-1.045,0.182-1.614,0.479
				c0.255,0.088,0.525,0.284,0.76,0.25c1.974-0.292,3.777,0.001,5.269,1.445c-0.424,0.93-1.234,1.166-2.186,0.92
				c-1.116-0.29-2.019-0.028-2.89,0.718c-1.125,0.964-1.885,0.953-3.046,0.03c-0.785-0.623-1.646-1.009-2.628-0.838
				c-0.934,0.161-1.283-0.321-1.419-1.069c-0.133-0.723,0.518-1.493,1.316-1.585c0.879-0.102,1.767-0.128,2.647-0.218
				c0.572-0.06,1.182-0.121,1.098-0.954C41.218-30.562,42.932-30.562,44.649-30.562z"/>
			<path d="M8.826-30.001c-1.198,0.924-2.407,0.561-3.68,0c-0.033,0.281-0.064,0.542-0.094,0.804
				c-0.079,0.066-0.156,0.133-0.234,0.199c-0.508-0.52-1.016-1.042-1.523-1.563c5.019,0,10.037,0,15.055,0
				c-0.072,0.193-0.251,0.522-0.202,0.56c0.861,0.674,0.502,2.021,1.479,2.642c0.203,0.129,0.242,0.519,0.212,0.908
				c-0.434-1.301-1.328-0.759-2.072-0.639c-0.463,0.075-0.944,0.27-0.934-0.511c-1.266,0.04-2.287-0.384-3.032-1.647
				c-1.312,1.586-3.022,1.531-4.779,1.254C9-28.088,8.978-28.183,8.957-28.275c0.488-0.082,0.973-0.182,1.463-0.242
				c0.625-0.077,1.275-0.043,1.87-0.215c0.296-0.086,0.491-0.523,0.645-0.997c-1.059,0.652-1.821,0.317-2.66-0.283
				c-0.319-0.229-0.97,0.007-1.469,0.031L8.826-30.001z"/>
			<path fill="#FFFFFF" d="M61.991,35.566c0.079-0.815-0.183-1.606,0.22-2.465c0.328-0.705-0.324-1.276-1.057-1.516
				c-0.354-0.115-0.727-0.164-1.17-0.254c0.065-0.184,0.092-0.494,0.215-0.539c0.928-0.334,1.861-0.688,2.828-0.861
				c0.229-0.047,0.615,0.523,0.867,0.855c0.446,0.59,0.713,1.408,1.715,1.154c0,1.078,0.014,2.16-0.017,3.238
				c-0.004,0.133-0.235,0.256-0.364,0.383c0.104-0.933-0.595-1.039-1.207-1.043c-0.719-0.006-1.592-0.072-1.648,1.043
				C62.245,35.566,62.117,35.566,61.991,35.566z"/>
			<path fill="#FFFFFF" d="M65.609,15.557c-0.353,0.099-0.695,0.258-1.055,0.281c-1.078,0.07-1.421,0.425-1.31,1.493
				c0.024,0.246,0.228,0.518,0.162,0.724c-0.123,0.395-0.337,0.781-0.603,1.095c-0.066,0.082-0.602-0.036-0.686-0.19
				c-0.221-0.399-0.365-0.862-0.418-1.314c-0.021-0.187,0.229-0.453,0.422-0.603c0.975-0.764,1.264-1.843,1.449-2.983
				c0.087-0.529,0.215-1.051,0.326-1.577c0.197-0.936,0.77-1.499,1.705-1.688C65.609,12.379,65.609,13.967,65.609,15.557z"/>
			<path d="M41.709,32.843c0.805,0.337,1.612,0.671,2.416,1.013c1,0.422,1.116,0.709,0.714,1.713c-1.588,0-3.178,0-4.766,0
				c-0.107-0.228-0.281-0.443-0.306-0.678c-0.045-0.457-0.182-1.06,0.042-1.347c0.295-0.369,0.896-0.506,1.381-0.701
				c0.155-0.061,0.363,0.013,0.547,0.021L41.709,32.843z"/>
			<path d="M-0.516-28.083c1.415,0.019,1.744,0.356,2.136,1.808c0.117,0.433,0.581,0.771,0.902,1.173
				c-0.685,1.073-1.69,0.463-2.593,0.463C0.3-23.523,0.649-22.468,1-21.412l0.027-0.019C0.512-21.361,0-21.292-0.515-21.223
				C-0.516-23.51-0.516-25.797-0.516-28.083z"/>
			<path d="M0.999-21.413c0.822-0.058,1.645-0.116,2.468-0.175c0.023,0.112,0.047,0.223,0.069,0.334
				c-0.76,0.162-1.522,0.323-2.59,0.551c0.517,0.682,0.857,1.362,1.397,1.79c1.15,0.913,1.19,0.864,0.263,1.916
				c-0.067,0.076-0.051,0.225-0.06,0.276c-1.025-0.423-2.044-0.843-3.063-1.264c0-0.699,0-1.397,0-2.095
				c0.725-0.211,1.388-0.491,1.541-1.352L0.999-21.413z"/>
			<path fill="#FFFFFF" d="M65.609-9.409c-1.146,0.104-2.293,0.223-3.441,0.3c-0.309,0.02-0.654-0.019-0.916-0.157
				c-0.271-0.146-0.629-0.432-0.646-0.679c-0.02-0.238,0.31-0.662,0.557-0.731c0.9-0.25,1.829-0.413,2.757-0.551
				c0.558-0.083,1.131-0.062,1.692-0.086C65.609-10.678,65.609-10.043,65.609-9.409z"/>
			<path d="M-0.516-17.412c0.462,0.513,0.363,1.541,1.399,1.527c0.37-0.005,0.745-0.064,1.109-0.021
				c0.573,0.066,1.201,0.084,1.684,0.346c0.26,0.142,0.267,0.749,0.388,1.146c-0.401,0.101-0.806,0.286-1.205,0.276
				c-0.318-0.008-0.63-0.254-1.002-0.42c-0.285,1.398-1.355,1.323-2.375,1.339C-0.516-14.617-0.516-16.015-0.516-17.412z"/>
			<path d="M23.686-30.562c0.174,0.433,0.402,0.854,0.503,1.303c0.08,0.353,0.003,0.74-0.003,1.113
				c-0.352-0.136-0.872-0.173-1.024-0.429c-0.363-0.607-0.552-1.318-0.81-1.987C22.797-30.562,23.241-30.562,23.686-30.562z"/>
			<path d="M62.373,35.566c0.057-1.116,0.93-1.049,1.648-1.043c0.612,0.002,1.313,0.109,1.207,1.043
				C64.277,35.566,63.324,35.566,62.373,35.566z"/>
			<path fill="#FFFFFF" d="M65.609-16.458c-0.205-0.066-0.428-0.104-0.615-0.206c-0.279-0.151-0.535-0.348-0.803-0.525
				c0.322-0.239,0.632-0.495,0.97-0.711c0.118-0.077,0.3-0.059,0.448-0.083C65.609-17.476,65.609-16.967,65.609-16.458z"/>
			<path d="M-0.516-11.313c0.459,0.154,0.919,0.31,1.23,0.415c-0.305,0.572-0.55,1.03-0.794,1.488c-0.146,0-0.291,0.001-0.436,0.001
				C-0.516-10.043-0.516-10.678-0.516-11.313z"/>
			<path fill="#FFFFFF" d="M1.025-21.432c-0.153,0.861-0.816,1.141-1.541,1.352c0-0.382,0-0.763,0-1.145
				C-0.002-21.292,0.511-21.361,1.025-21.432z"/>
			<path fill="#FFFFFF" d="M-0.516,4.694C-0.25,4.752,0.015,4.81,0.267,4.865c0.271,0.86-0.335,1.26-0.783,1.734
				C-0.516,5.963-0.516,5.33-0.516,4.694z"/>
			<path fill="#FFFFFF" d="M18.541,35.566c0.225-0.264,0.449-0.522,0.541-0.629c1.156,0.232,2.118,0.435,3.081,0.629
				C20.954,35.566,19.749,35.566,18.541,35.566z"/>
			<path d="M28.64-30.562c-0.632,0.967-1.083,0.967-1.715,0C27.498-30.562,28.069-30.562,28.64-30.562z"/>
			<path fill="#EADA7F" d="M39.108-11.989c0.535-0.707,1.034-1.444,1.625-2.098c0.152-0.167,0.594-0.071,0.996-0.104
				c-0.029,0.183-0.091,0.309-0.054,0.389c0.491,1.08,0.616,2.062-0.339,3.032c-0.286,0.29,0.593,1.086,1.136,0.886
				c1.085-0.402,1.942-0.266,2.702,0.663c0.201,0.245,0.67,0.289,1.028,0.381c0.177,0.044,0.415,0.048,0.56-0.041
				c0.705-0.436,1.904,0.427,2.271-0.865c0.229-0.807,0.461-1.612,0.689-2.416c0.297,0,0.575,0,0.911,0
				c0.813,2.307,2.856,1.513,4.65,1.705c-0.146,0.295-0.255,0.534-0.38,0.765c-0.93,1.733-0.151,3.097,1.843,3.191
				c0.793,0.038,1.592-0.03,2.381,0.033c0.274,0.021,0.774,0.356,0.754,0.449c-0.101,0.427,0.142,1.063-0.653,1.171
				c-1,0.137-1.979,0.432-2.979,0.573c-1.147,0.161-2.343-0.084-3.024-0.978c-1.103-1.435-2.632-1.727-4.183-2.136
				c-0.34-0.089-0.744-0.348-0.896-0.642c-0.313-0.624-0.621-0.484-1.037-0.175c-0.866,0.645-1.743,1.277-2.644,1.934
				c0.609,0.91,1.184-0.644,1.851-0.396c0.038,0.125,0.075,0.251,0.111,0.376c-0.729,0.271-1.438,0.656-2.19,0.785
				c-1.036,0.179-2.123-0.112-3.138,0.481c-0.315,0.184-0.899-0.062-1.351-0.148c-0.361-0.068-0.707-0.225-1.068-0.286
				c-0.704-0.121-1.158,0.043-1.582,0.78c-1.339,2.328-3.657,2.686-6.135,1.666c-0.873-0.358-1.636-0.979-2.504-1.35
				c-0.859-0.366-1.775-0.687-2.692-0.781c-0.399-0.042-1.057,0.451-1.224,0.855c-0.105,0.253,0.402,0.924,0.786,1.172
				c0.485,0.313,1.139,0.351,1.695,0.572c0.581,0.231,1.155,0.503,1.684,0.834c0.196,0.123,0.385,0.494,0.34,0.697
				c-0.038,0.165-0.428,0.26-0.67,0.366c-0.08,0.036-0.206-0.025-0.28,0.015c-0.336,0.181-0.717,0.332-0.963,0.603
				c-0.097,0.107,0.036,0.624,0.204,0.729c0.336,0.211,0.805,0.428,1.154,0.35c0.89-0.198,1.733-0.599,2.62-0.829
				c0.325-0.085,0.773-0.019,1.063,0.151c0.393,0.232,0.454,0.776-0.047,0.863c-1.909,0.331-3.443,1.885-5.563,1.571
				c-1.555-0.231-3.071-0.447-4.359-1.44c-1.173-0.905-2.387-1.716-4.072-1.356c0-0.559,0-1.01,0-1.457
				c-0.771-0.114-1.459-0.215-2.148-0.317c-0.012-0.146-0.023-0.293-0.035-0.439c1.044-0.222,2.089-0.443,3.167-0.672
				c-0.572-1.252-0.33-1.594,0.964-1.612c0.475-0.006,0.972,0.063,1.417-0.061c0.313-0.084,0.742-0.407,0.775-0.667
				c0.032-0.25-0.324-0.678-0.61-0.808c-0.442-0.203-0.977-0.202-1.464-0.32c-0.906-0.222-1.796-0.515-2.711-0.691
				c-0.872-0.168-1.764-0.228-2.786-0.351c0.287-0.484,0.614-1.063,0.965-1.625c0.348-0.559,0.815-1.065,1.054-1.665
				c0.253-0.637,0.684-0.745,1.19-0.594c1.059,0.318,2.077,0.652,3.194,0.166c0.345-0.15,0.873-0.145,1.218,0.009
				c2.088,0.933,4.337,0.825,6.527,1.093c0.501,0.062,1.005,0.122,1.499,0.226c1.158,0.243,2.167-0.018,3.135-0.706
				c0.388-0.275,0.953-0.298,1.689-0.507c0.262-1,1.308-1.091,2.434-1.039c0.506,0.024,1.012,0.026,1.514,0.04
				c-0.861,0.463-0.238,0.958,0.042,1.438c-0.378,0.23-0.696,0.422-1.147,0.695c0.935,0.033,1.694-0.134,1.874-0.873
				C39.972-11.063,39.389-11.563,39.108-11.989z M40.269-8.261c-0.085,0.11-0.17,0.221-0.254,0.332
				c0.428,0.322,0.856,0.645,1.285,0.967c0.089-0.122,0.179-0.245,0.269-0.368C41.134-7.641,40.702-7.952,40.269-8.261z
				 M37.412-8.872c-0.081,0.047-0.161,0.095-0.242,0.142c0.171,0.279,0.298,0.606,0.532,0.813c0.094,0.082,0.422-0.104,0.761-0.2
				C38.001-8.449,37.708-8.66,37.412-8.872z"/>
			<path fill="#FFFFFF" d="M45.047-20.467c0,0.474,0.017,0.932-0.004,1.389c-0.031,0.781,0.313,1.244,1.078,1.449
				c1.389,0.374,1.352,0.389,1.34,1.812c-0.002,0.274,0.338,0.716,0.605,0.802c1.492,0.471,3.008,0.333,4.479-0.106
				c0.405-0.122,0.854-0.492,1.047-0.868c0.625-1.204,1.602-1.638,2.885-1.619c0.404,0.006,0.849-0.002,1.213-0.153
				c0.314-0.129,0.726-0.442,0.767-0.723c0.036-0.251-0.312-0.683-0.597-0.835c-1.43-0.767-2.938-1.081-4.563-0.666
				c-0.572,0.146-1.199,0.136-1.795,0.109c-0.232-0.01-0.551-0.21-0.656-0.414c-0.07-0.137,0.094-0.506,0.258-0.643
				c0.562-0.461,1.166-0.869,1.758-1.29c0.796-0.564,1.597-1.121,2.205-1.546c0.824,0.159,1.558,0.347,2.301,0.428
				c0.576,0.063,1.097,0.009,1.375,0.731c0.109,0.279,0.683,0.424,1.07,0.531c0.371,0.101,0.777,0.073,1.283,0.109
				c-0.488,2.086,0.502,3.003,2.729,3.094c-0.522,0.414-0.791,0.541-0.923,0.75c-0.188,0.295-0.416,0.67-0.381,0.982
				c0.107,0.927-0.108,1.167-1.01,1.276c-1.084,0.132-2.146,0.563-3.223,0.592c-1.541,0.041-2.717,0.46-3.471,1.901
				c-0.117,0.226-0.854,0.326-1.202,0.199c-1.882-0.693-3.651-0.4-5.435,0.354c-0.998,0.423-1.935,0.304-2.798-0.184
				c0.869-0.621,0.922-0.979,0.121-1.712c-0.513-0.469-0.851-0.913-0.908-1.67c-0.022-0.313-0.728-0.771-1.158-0.817
				c-0.974-0.103-1.233-0.668-1.259-1.466c-0.027-0.837,0.507-1,1.24-1.075C43.908-19.793,44.363-20.149,45.047-20.467z"/>
			<path fill="#EADA7F" d="M46.041,20.086c0.053,0.309-0.021,0.924,0.254,1.225c0.275,0.301,0.896,0.287,1.365,0.408
				c0.016,0.117,0.029,0.229,0.047,0.344c-1.094,0.244-2.181,0.657-3.281,0.698c-1.814,0.066-3.464,0.324-5.004,1.441
				c-1.338,0.973-2.541,0.76-3.631-0.486c-1.045-1.192-2.25-1.905-3.838-1.962c-0.272-0.01-0.542-0.09-1.08-0.186
				c0.367-0.439,0.58-0.758,0.855-1.008c0.231-0.207,0.588-0.287,0.79-0.515c0.275-0.312,0.525-0.685,0.63-1.071
				c0.028-0.101-0.522-0.371-0.821-0.538c-0.189-0.107-0.407-0.165-0.612-0.246c0.301-1.25,0.807-1.781,2.723-1.833
				c0.883-0.025,1.772,0.047,2.647-0.041c0.462-0.048,0.9-0.345,1.347-0.532c0.136-0.056,0.264-0.161,0.403-0.18
				c1.051-0.137,2.106-0.242,3.157-0.39c0.502-0.071,1.064-0.308,1.274,0.385c0.21,0.686-0.374,0.946-0.843,1.025
				c-1.59,0.262-3.202,0.406-4.795,0.65c-0.744,0.117-1.482,0.317-2.196,0.56c-0.774,0.264-1.095,0.854-0.848,1.657
				c0.235,0.762,0.823,0.982,1.571,0.904c0.409-0.043,0.823-0.06,1.231-0.104c0.827-0.097,1.451,0.166,1.97,0.858
				c0.808,1.082,1.009,1.074,2.202,0.41c0.357-0.194,0.746-0.348,1.136-0.473C43.817,20.742,44.947,20.414,46.041,20.086z"/>
			<path fill="#FFFFFF" d="M36.458-16.057c-1.783,0.872-3.552,1.748-5.333,2.601c-0.998,0.479-1.932,0.546-2.925-0.183
				c-0.63-0.463-1.461-0.671-2.225-0.92c-0.166-0.054-0.438,0.302-0.652,0.292c-0.953-0.043-1.388-1.013-0.794-1.799
				c0.721-0.95,1.772-1.176,2.887-1.085c0.875,0.071,1.738,0.268,2.612,0.362c1.976,0.213,3.955,0.394,5.931,0.598
				C36.166-16.168,36.365-16.083,36.458-16.057z"/>
			<path fill="#FFFFFF" d="M61.414,28.775c-1.051-0.735-1.789-1.58-1.68-2.856c0.031-0.373,0.309-0.854,0.619-1.03
				c0.192-0.107,0.75,0.182,0.987,0.438C62.529,26.604,62.521,26.995,61.414,28.775z"/>
			<path fill="#EADA7F" d="M15.662,18.676c-0.035,0.445-0.063,0.809-0.104,1.332c-0.911-0.162-1.766-0.297-2.607-0.486
				c-0.16-0.033-0.38-0.301-0.371-0.444c0.009-0.144,0.272-0.375,0.432-0.384C13.877,18.656,14.747,18.676,15.662,18.676z"/>
			<path fill="#FFFFFF" d="M53.801-27.45c0.688-0.249,1.324-0.523,1.984-0.692c0.285-0.072,0.629,0.077,0.943,0.126
				c-0.105,0.306-0.15,0.827-0.328,0.877c-0.508,0.142-1.076,0.154-1.609,0.099C54.438-27.078,54.104-27.317,53.801-27.45z"/>
			<path fill="#909B4E" d="M46.652,19.184c0.436-0.334,0.877-0.635,1.354-0.031c0.412,0.527,0.479,1.978,0.024,2.175
				c-0.188,0.082-0.706-0.226-0.844-0.484C46.93,20.361,46.838,19.793,46.652,19.184z"/>
			<path fill="#EADA7F" d="M6.841,12.729c-1.125,0.907-1.33,0.854-1.855-0.408C5.62,12.462,6.122,12.569,6.841,12.729z"/>
			<path fill="#052B00" d="M30.422,8.216c-0.433,1.37-1.411,1.722-2.677,1.074C28.656,8.923,29.453,8.604,30.422,8.216z"/>
			<path fill="#052B00" d="M23.31,22.225c-0.442,0.832-1.141,0.688-1.763,0.565c-0.126-0.024-0.284-0.757-0.208-0.808
				c0.359-0.217,0.8-0.426,1.202-0.41C22.802,21.584,23.047,21.988,23.31,22.225z"/>
			<path fill="#052B00" d="M14.727,24.659c0.039-0.517,0.004-1.093,0.098-1.115c0.578-0.131,1.184-0.144,1.78-0.192
				c0.03,0.143,0.06,0.278,0.09,0.42C16.152,24.016,15.61,24.261,14.727,24.659z"/>
			<path d="M20.339-24.477c-1.153,1.815-2.897,1.459-4.44,1.688C17.235-23.6,18.563-24.428,20.339-24.477z"/>
			<path d="M8.804-29.98c0.539,0.106,1.079,0.213,1.618,0.32c0.009,0.106,0.018,0.212,0.027,0.319
				c-0.282,0.089-0.655,0.333-0.823,0.232c-0.327-0.196-0.54-0.584-0.8-0.893L8.804-29.98z"/>
			<path d="M12.906-27.441c0.472-0.151,0.944-0.302,1.504-0.482c-0.195,1.069-0.772,1-1.403,0.805
				C12.974-27.227,12.94-27.333,12.906-27.441z"/>
			<path d="M7.165-16.094c-0.397-0.189-0.794-0.378-1.191-0.566c0.048-0.114,0.097-0.227,0.146-0.338
				c0.399,0.158,0.8,0.316,1.2,0.475C7.268-16.38,7.215-16.237,7.165-16.094z"/>
			<path d="M10.411-15.694c-0.506,0.025-1.012,0.051-1.519,0.078c-0.003-0.102-0.006-0.204-0.01-0.306c0.51,0,1.021,0,1.532,0
				C10.415-15.848,10.414-15.771,10.411-15.694z"/>
			<path fill="#052B00" d="M46.457,4.874c0.289-0.367,0.604-0.716,0.855-1.104c0.222-0.335,0.377-0.714,0.668-1.281
				c-0.088,0.846-0.148,1.414-0.207,1.979C47.705,5.167,47.359,5.275,46.457,4.874z"/>
			<path d="M58.327,7.149c0.468-1.044,0.454-1.839-0.62-2.346c0.793-0.253,0.988-0.141,1.266,0.575
				C59.299,6.224,59.15,6.775,58.327,7.149z"/>
			<path d="M58.979,3.147c0.272,0.296,0.555,0.585,0.804,0.9c0.015,0.016-0.222,0.231-0.343,0.354
				c-0.289-0.287-0.578-0.575-0.871-0.862C58.705,3.409,58.842,3.277,58.979,3.147z"/>
			<path d="M60.883,8.123c-0.645-0.134-1.174-0.243-1.729-0.358C59.797,7.159,60.258,7.241,60.883,8.123z"/>
			<path fill="#052B00" d="M45.191,5.466c0.49,0.181,0.984,0.362,1.583,0.582c-1.14,0.466-1.344,0.369-1.56-0.604L45.191,5.466z"/>
			<path d="M41.739,32.861c0-0.313,0-0.631,0-0.946c0.081-0.045,0.161-0.095,0.242-0.14c0.2,0.248,0.402,0.496,0.604,0.744
				c-0.29,0.107-0.58,0.217-0.873,0.32C41.709,32.843,41.739,32.861,41.739,32.861z"/>
			<path d="M39.108-11.989c0.281,0.426,0.864,0.924,0.783,1.261c-0.179,0.739-0.939,0.906-1.874,0.873
				c0.451-0.273,0.769-0.465,1.147-0.695c-0.28-0.479-0.903-0.975-0.042-1.438C39.127-11.989,39.108-11.989,39.108-11.989z"/>
			<path d="M40.269-8.261c0.434,0.31,0.866,0.621,1.3,0.931c-0.09,0.123-0.18,0.246-0.269,0.368
				c-0.429-0.322-0.856-0.645-1.285-0.967C40.098-8.041,40.183-8.151,40.269-8.261z"/>
			<path d="M37.412-8.872c0.295,0.212,0.589,0.423,1.051,0.754c-0.338,0.097-0.667,0.282-0.761,0.2
				c-0.234-0.206-0.361-0.534-0.532-0.813C37.252-8.776,37.332-8.824,37.412-8.872z"/>
		</g>
	</g>
</g>
<linearGradient id="shape_5_" gradientUnits="userSpaceOnUse" x1="-13.4155" y1="-788.563" x2="72.5508" y2="-788.563" gradientTransform="matrix(1 0 0 -1 16.6597 -769.8252)">
	<stop  offset="0" style="stop-color:#B1DB7F;stop-opacity:0"/>
	<stop  offset="0.1061" style="stop-color:#B1DB7F;stop-opacity:0.1061"/>
	<stop  offset="1" style="stop-color:#B1DB7F"/>
</linearGradient>
<path id="shape_3_" fill="url(#shape_5_)" d="M38.49,11.375c-0.724-0.118-1.213-0.799-1.095-1.521V8.421
	c-0.022-0.125-0.026-0.252-0.013-0.377c0.078-0.739,0.743-1.273,1.48-1.194h28.589c0.41-0.028,0.807,0.14,1.066,0.455
	c0.309,0.291,0.469,0.7,0.442,1.122V9.86c0.028,0.408-0.133,0.806-0.438,1.075c-0.265,0.312-0.658,0.478-1.066,0.45H38.862
	c-0.053,0.005-0.107,0.009-0.16,0.009C38.631,11.393,38.561,11.387,38.49,11.375 M37.662,3.035c-0.98,0.089-1.767,0.163-2.36,0.223
	c-0.437,0.049-0.868,0.14-1.289,0.27c-0.241,0.015-0.467,0.129-0.622,0.314c-0.102,0.041-0.182,0.122-0.222,0.225v0.136
	c-0.101,0.199-0.177,0.411-0.228,0.628c-0.058,0.358-0.133,0.702-0.22,1.033c-0.091,0.357-0.194,0.732-0.312,1.121
	C32.288,7.344,32.2,7.6,32.141,7.748c-0.522,0.137-1.063,0.198-1.602,0.18h-3.023c-1.187-0.03-2.505-0.076-3.958-0.134
	c-1.483-0.03-2.905-0.104-4.269-0.226h-0.17c-0.483,0.521-1.038,0.976-1.644,1.347c-0.354,0.243-0.747,0.425-1.161,0.54
	c-0.296-0.239-0.565-0.51-0.8-0.811c-0.317-0.379-0.599-0.783-0.844-1.21V7.211H6.266v0.226C6,7.825,5.704,8.261,5.377,8.739
	C5.258,8.994,5.108,9.235,4.933,9.456c-0.392,0.328-0.722,0.722-0.977,1.166c-0.475,0.629-0.712,1.93-0.712,3.905
	c0.019,1.309,0.123,2.614,0.311,3.909c0.349,1.884,0.824,3.742,1.422,5.563l0.178,0.092l0.135,0.132
	c0.919,0.119,1.853,0.073,2.756-0.135c0.851-0.089,1.698-0.224,2.536-0.404c0.771-0.234,1.464-0.443,2.09-0.627
	c0.433-0.141,0.839-0.352,1.2-0.627c0.031,0.114,0.059,0.252,0.09,0.401c0.086,0.121,0.191,0.228,0.311,0.319
	c0.076,0.144,0.165,0.274,0.268,0.404h0.131c0.359-0.188,0.754-0.295,1.157-0.313c0.535-0.122,0.846-0.194,0.934-0.226
	c0.267,0,0.399-0.281,0.399-0.854c0.013-0.109,0.044-0.216,0.09-0.315c0.021-0.072,0.037-0.146,0.045-0.223
	c0.558-0.219,1.142-0.369,1.734-0.451c0.921-0.179,1.958-0.357,3.113-0.539c0,0.176,0.015,0.981,0.044,2.418
	c0.029,1.438,0.104,3.008,0.223,4.713c0.059,1.978,0.178,4.204,0.354,6.688h0.123c0.258,0.021,0.519,0.026,0.778,0.026h0.024
	c0.715,0,1.429-0.068,2.133-0.207c0.86-0.271,1.586-0.522,2.178-0.766c0.46-0.212,0.907-0.451,1.337-0.717
	c0.138-0.153,0.304-0.275,0.491-0.361v-0.223c-0.06-0.717-0.119-1.512-0.179-2.382c-0.061-0.835-0.09-1.642-0.09-2.423
	c-0.029-0.81-0.072-1.539-0.131-2.196c-0.03-0.658-0.045-1.136-0.045-1.435v-0.09c0.494-0.087,0.957-0.303,1.337-0.63l0.09-0.044
	c0.54-1.973,1.999-3.563,3.916-4.266c0.719-0.3,1.489-0.467,2.268-0.495c0.442-0.029,0.883,0.048,1.29,0.226
	c0.362,0.126,0.633,0.435,0.713,0.808c-0.004,0.166-0.019,0.332-0.047,0.494c-0.06,0.182-0.104,0.328-0.132,0.449
	c-1.194,1.051-2.034,2.447-2.401,3.996c-0.301,1.557-0.509,3.131-0.623,4.713l0.178,0.135c0.113,0.361,0.394,0.646,0.754,0.765
	c0.511,0.257,1.048,0.452,1.603,0.588c0.517,0.174,1.055,0.278,1.601,0.313c0.474,0.119,0.801,0.207,0.978,0.269h0.489l-0.176-0.269
	v-0.449c-0.035-0.572,0.121-1.143,0.443-1.615c0.136-0.229,0.301-0.439,0.491-0.628h0.269l-0.267-0.358
	c-0.03-0.088-0.045-0.179-0.045-0.271c-0.031-0.161-0.047-0.326-0.045-0.492c0.032-0.286,0.157-0.555,0.354-0.767
	c0.267-0.297,0.43-0.493,0.491-0.584l0.176-0.09v-0.941c-0.055-0.521,0.143-1.04,0.535-1.395c0.321-0.235,0.591-0.418,0.798-0.537
	c0.233,0.127,0.493,0.203,0.758,0.226c0.478,0.046,0.952,0.124,1.419,0.229c0.53,0.06,1.096,0.115,1.688,0.182
	c0.506-0.002,1.012,0.025,1.516,0.088c0.465,0.021,0.928-0.085,1.331-0.313c0.25-0.346,0.403-0.748,0.444-1.168
	c0.029-0.422,0.045-0.822,0.045-1.216v-1.209c0.215-0.135,0.459-0.212,0.713-0.227H70.12c0.338-0.005,0.664-0.112,0.937-0.313
	c0.205-0.232,0.381-0.491,0.53-0.764c0.175-0.263,0.31-0.548,0.399-0.851c0.062-0.271,0.105-0.494,0.136-0.675V16.55
	c-0.021-0.155,0.012-0.312,0.09-0.449c-0.012-0.077,0.004-0.156,0.045-0.223h0.175c0.104,0.136,0.246,0.244,0.401,0.314
	c0.088,0,0.342-0.016,0.756-0.046c0.257-0.018,0.507-0.112,0.713-0.267c0.175-0.144,0.396-0.222,0.621-0.225
	c0.233-0.047,0.455-0.122,0.67-0.224h7.248c0.035,0.034,0.084,0.051,0.132,0.045c0.036,0.063,0.106,0.098,0.18,0.09
	c0.354,0.192,0.758,0.271,1.154,0.225c0.563-0.001,1.172-0.015,1.825-0.045c0.683-0.029,1.287-0.059,1.822-0.089
	c0.504-0.065,0.786-0.095,0.846-0.095h0.132v-0.135c0.178-0.381,0.272-0.797,0.278-1.215v-0.096c0-0.071-0.004-0.144-0.01-0.215
	c-0.023-0.289-0.113-0.565-0.265-0.811v-0.181l-0.313-0.18c-0.117,0-0.457-0.015-1.021-0.046c-0.598-0.029-1.203-0.029-1.822,0
	c-0.623,0.031-1.188,0.046-1.692,0.046c-0.364-0.008-0.724,0.053-1.065,0.18l-0.355,0.094c-0.156,0.074-0.318,0.136-0.488,0.181
	c-0.15-0.003-0.307,0.028-0.443,0.092h-6.315v-0.087c-0.026-0.056-0.043-0.119-0.043-0.18c-0.026-0.024-0.045-0.059-0.047-0.096
	l-1.199-0.268c-0.149-0.004-0.297-0.019-0.444-0.046c-0.104-0.004-0.209-0.02-0.312-0.043h-0.399
	c-0.002-0.257,0.028-0.513,0.088-0.763c0.017-0.158,0.062-0.313,0.138-0.45c0.112-0.637,0.188-1.283,0.222-1.929V7.794
	c0.11-1.144-0.188-2.289-0.843-3.232c-0.077-0.302-0.354-0.509-0.669-0.494h-0.934C70.4,3.98,69.82,3.934,69.241,3.932
	c-0.89,0-2.181-0.016-3.866-0.045c-1.725-0.029-4.003-0.088-6.85-0.178C52.887,3.234,47.23,2.997,41.573,2.997
	C40.264,2.997,38.962,3.009,37.662,3.035"/>
<linearGradient id="shape_6_" gradientUnits="userSpaceOnUse" x1="-13.4155" y1="-788.563" x2="72.5508" y2="-788.563" gradientTransform="matrix(1 0 0 -1 16.6597 -769.8252)">
	<stop  offset="0" style="stop-color:#B1DB7F;stop-opacity:0"/>
	<stop  offset="0.1061" style="stop-color:#B1DB7F;stop-opacity:0.1061"/>
	<stop  offset="1" style="stop-color:#B1DB7F"/>
</linearGradient>
<path id="shape_1_" fill="url(#shape_6_)" d="M38.49,11.375c-0.724-0.118-1.213-0.799-1.095-1.521V8.421
	c-0.022-0.125-0.026-0.252-0.013-0.377c0.078-0.739,0.743-1.273,1.48-1.194h28.589c0.41-0.028,0.807,0.14,1.066,0.455
	c0.309,0.291,0.469,0.7,0.442,1.122V9.86c0.028,0.408-0.133,0.806-0.438,1.075c-0.265,0.312-0.658,0.478-1.066,0.45H38.862
	c-0.053,0.005-0.107,0.009-0.16,0.009C38.631,11.393,38.561,11.387,38.49,11.375 M37.662,3.035c-0.98,0.089-1.767,0.163-2.36,0.223
	c-0.437,0.049-0.868,0.14-1.289,0.27c-0.241,0.015-0.467,0.129-0.622,0.314c-0.102,0.041-0.182,0.122-0.222,0.225v0.136
	c-0.101,0.199-0.177,0.411-0.228,0.628c-0.058,0.358-0.133,0.702-0.22,1.033c-0.091,0.357-0.194,0.732-0.312,1.121
	C32.288,7.344,32.2,7.6,32.141,7.748c-0.522,0.137-1.063,0.198-1.602,0.18h-3.023c-1.187-0.03-2.505-0.076-3.958-0.134
	c-1.483-0.03-2.905-0.104-4.269-0.226h-0.17c-0.483,0.521-1.038,0.976-1.644,1.347c-0.354,0.243-0.747,0.425-1.161,0.54
	c-0.296-0.239-0.565-0.51-0.8-0.811c-0.317-0.379-0.599-0.783-0.844-1.21V7.211H6.266v0.226C6,7.825,5.704,8.261,5.377,8.739
	C5.258,8.994,5.108,9.235,4.933,9.456c-0.392,0.328-0.722,0.722-0.977,1.166c-0.475,0.629-0.712,1.93-0.712,3.905
	c0.019,1.309,0.123,2.614,0.311,3.909c0.349,1.884,0.824,3.742,1.422,5.563l0.178,0.092l0.135,0.132
	c0.919,0.119,1.853,0.073,2.756-0.135c0.851-0.089,1.698-0.224,2.536-0.404c0.771-0.234,1.464-0.443,2.09-0.627
	c0.433-0.141,0.839-0.352,1.2-0.627c0.031,0.114,0.059,0.252,0.09,0.401c0.086,0.121,0.191,0.228,0.311,0.319
	c0.076,0.144,0.165,0.274,0.268,0.404h0.131c0.359-0.188,0.754-0.295,1.157-0.313c0.535-0.122,0.846-0.194,0.934-0.226
	c0.267,0,0.399-0.281,0.399-0.854c0.013-0.109,0.044-0.216,0.09-0.315c0.021-0.072,0.037-0.146,0.045-0.223
	c0.558-0.219,1.142-0.369,1.734-0.451c0.921-0.179,1.958-0.357,3.113-0.539c0,0.176,0.015,0.981,0.044,2.418
	c0.029,1.438,0.104,3.008,0.223,4.713c0.059,1.978,0.178,4.204,0.354,6.688h0.123c0.258,0.021,0.519,0.026,0.778,0.026h0.024
	c0.715,0,1.429-0.068,2.133-0.207c0.86-0.271,1.586-0.522,2.178-0.766c0.46-0.212,0.907-0.451,1.337-0.717
	c0.138-0.153,0.304-0.275,0.491-0.361v-0.223c-0.06-0.717-0.119-1.512-0.179-2.382c-0.061-0.835-0.09-1.642-0.09-2.423
	c-0.029-0.81-0.072-1.539-0.131-2.196c-0.03-0.658-0.045-1.136-0.045-1.435v-0.09c0.494-0.087,0.957-0.303,1.337-0.63l0.09-0.044
	c0.54-1.973,1.999-3.563,3.916-4.266c0.719-0.3,1.489-0.467,2.268-0.495c0.442-0.029,0.883,0.048,1.29,0.226
	c0.362,0.126,0.633,0.435,0.713,0.808c-0.004,0.166-0.019,0.332-0.047,0.494c-0.06,0.182-0.104,0.328-0.132,0.449
	c-1.194,1.051-2.034,2.447-2.401,3.996c-0.301,1.557-0.509,3.131-0.623,4.713l0.178,0.135c0.113,0.361,0.394,0.646,0.754,0.765
	c0.511,0.257,1.048,0.452,1.603,0.588c0.517,0.174,1.055,0.278,1.601,0.313c0.474,0.119,0.801,0.207,0.978,0.269h0.489l-0.176-0.269
	v-0.449c-0.035-0.572,0.121-1.143,0.443-1.615c0.136-0.229,0.301-0.439,0.491-0.628h0.269l-0.267-0.358
	c-0.03-0.088-0.045-0.179-0.045-0.271c-0.031-0.161-0.047-0.326-0.045-0.492c0.032-0.286,0.157-0.555,0.354-0.767
	c0.267-0.297,0.43-0.493,0.491-0.584l0.176-0.09v-0.941c-0.055-0.521,0.143-1.04,0.535-1.395c0.321-0.235,0.591-0.418,0.798-0.537
	c0.233,0.127,0.493,0.203,0.758,0.226c0.478,0.046,0.952,0.124,1.419,0.229c0.53,0.06,1.096,0.115,1.688,0.182
	c0.506-0.002,1.012,0.025,1.516,0.088c0.465,0.021,0.928-0.085,1.331-0.313c0.25-0.346,0.403-0.748,0.444-1.168
	c0.029-0.422,0.045-0.822,0.045-1.216v-1.209c0.215-0.135,0.459-0.212,0.713-0.227H70.12c0.338-0.005,0.664-0.112,0.937-0.313
	c0.205-0.232,0.381-0.491,0.53-0.764c0.175-0.263,0.31-0.548,0.399-0.851c0.062-0.271,0.105-0.494,0.136-0.675V16.55
	c-0.021-0.155,0.012-0.312,0.09-0.449c-0.012-0.077,0.004-0.156,0.045-0.223h0.175c0.104,0.136,0.246,0.244,0.401,0.314
	c0.088,0,0.342-0.016,0.756-0.046c0.257-0.018,0.507-0.112,0.713-0.267c0.175-0.144,0.396-0.222,0.621-0.225
	c0.233-0.047,0.455-0.122,0.67-0.224h7.248c0.035,0.034,0.084,0.051,0.132,0.045c0.036,0.063,0.106,0.098,0.18,0.09
	c0.354,0.192,0.758,0.271,1.154,0.225c0.563-0.001,1.172-0.015,1.825-0.045c0.683-0.029,1.287-0.059,1.822-0.089
	c0.504-0.065,0.786-0.095,0.846-0.095h0.132v-0.135c0.178-0.381,0.272-0.797,0.278-1.215v-0.096c0-0.071-0.004-0.144-0.01-0.215
	c-0.023-0.289-0.113-0.565-0.265-0.811v-0.181l-0.313-0.18c-0.117,0-0.457-0.015-1.021-0.046c-0.598-0.029-1.203-0.029-1.822,0
	c-0.623,0.031-1.188,0.046-1.692,0.046c-0.364-0.008-0.724,0.053-1.065,0.18l-0.355,0.094c-0.156,0.074-0.318,0.136-0.488,0.181
	c-0.15-0.003-0.307,0.028-0.443,0.092h-6.315v-0.087c-0.026-0.056-0.043-0.119-0.043-0.18c-0.026-0.024-0.045-0.059-0.047-0.096
	l-1.199-0.268c-0.149-0.004-0.297-0.019-0.444-0.046c-0.104-0.004-0.209-0.02-0.312-0.043h-0.399
	c-0.002-0.257,0.028-0.513,0.088-0.763c0.017-0.158,0.062-0.313,0.138-0.45c0.112-0.637,0.188-1.283,0.222-1.929V7.794
	c0.11-1.144-0.188-2.289-0.843-3.232c-0.077-0.302-0.354-0.509-0.669-0.494h-0.934C70.4,3.98,69.82,3.934,69.241,3.932
	c-0.89,0-2.181-0.016-3.866-0.045c-1.725-0.029-4.003-0.088-6.85-0.178C52.887,3.234,47.23,2.997,41.573,2.997
	C40.264,2.997,38.962,3.009,37.662,3.035"/>
<linearGradient id="shape_7_" gradientUnits="userSpaceOnUse" x1="-13.4155" y1="-788.563" x2="72.5508" y2="-788.563" gradientTransform="matrix(1 0 0 -1 16.6597 -769.8252)">
	<stop  offset="0" style="stop-color:#B1DB7F;stop-opacity:0"/>
	<stop  offset="0.1061" style="stop-color:#B1DB7F;stop-opacity:0.1061"/>
	<stop  offset="1" style="stop-color:#B1DB7F"/>
</linearGradient>
<path id="shape_2_" fill="url(#shape_7_)" d="M38.49,11.375c-0.724-0.118-1.213-0.799-1.095-1.521V8.421
	c-0.022-0.125-0.026-0.252-0.013-0.377c0.078-0.739,0.743-1.273,1.48-1.194h28.589c0.41-0.028,0.807,0.14,1.066,0.455
	c0.309,0.291,0.469,0.7,0.442,1.122V9.86c0.028,0.408-0.133,0.806-0.438,1.075c-0.265,0.312-0.658,0.478-1.066,0.45H38.862
	c-0.053,0.005-0.107,0.009-0.16,0.009C38.631,11.393,38.561,11.387,38.49,11.375 M37.662,3.035c-0.98,0.089-1.767,0.163-2.36,0.223
	c-0.437,0.049-0.868,0.14-1.289,0.27c-0.241,0.015-0.467,0.129-0.622,0.314c-0.102,0.041-0.182,0.122-0.222,0.225v0.136
	c-0.101,0.199-0.177,0.411-0.228,0.628c-0.058,0.358-0.133,0.702-0.22,1.033c-0.091,0.357-0.194,0.732-0.312,1.121
	C32.288,7.344,32.2,7.6,32.141,7.748c-0.522,0.137-1.063,0.198-1.602,0.18h-3.023c-1.187-0.03-2.505-0.076-3.958-0.134
	c-1.483-0.03-2.905-0.104-4.269-0.226h-0.17c-0.483,0.521-1.038,0.976-1.644,1.347c-0.354,0.243-0.747,0.425-1.161,0.54
	c-0.296-0.239-0.565-0.51-0.8-0.811c-0.317-0.379-0.599-0.783-0.844-1.21V7.211H6.266v0.226C6,7.825,5.704,8.261,5.377,8.739
	C5.258,8.994,5.108,9.235,4.933,9.456c-0.392,0.328-0.722,0.722-0.977,1.166c-0.475,0.629-0.712,1.93-0.712,3.905
	c0.019,1.309,0.123,2.614,0.311,3.909c0.349,1.884,0.824,3.742,1.422,5.563l0.178,0.092l0.135,0.132
	c0.919,0.119,1.853,0.073,2.756-0.135c0.851-0.089,1.698-0.224,2.536-0.404c0.771-0.234,1.464-0.443,2.09-0.627
	c0.433-0.141,0.839-0.352,1.2-0.627c0.031,0.114,0.059,0.252,0.09,0.401c0.086,0.121,0.191,0.228,0.311,0.319
	c0.076,0.144,0.165,0.274,0.268,0.404h0.131c0.359-0.188,0.754-0.295,1.157-0.313c0.535-0.122,0.846-0.194,0.934-0.226
	c0.267,0,0.399-0.281,0.399-0.854c0.013-0.109,0.044-0.216,0.09-0.315c0.021-0.072,0.037-0.146,0.045-0.223
	c0.558-0.219,1.142-0.369,1.734-0.451c0.921-0.179,1.958-0.357,3.113-0.539c0,0.176,0.015,0.981,0.044,2.418
	c0.029,1.438,0.104,3.008,0.223,4.713c0.059,1.978,0.178,4.204,0.354,6.688h0.123c0.258,0.021,0.519,0.026,0.778,0.026h0.024
	c0.715,0,1.429-0.068,2.133-0.207c0.86-0.271,1.586-0.522,2.178-0.766c0.46-0.212,0.907-0.451,1.337-0.717
	c0.138-0.153,0.304-0.275,0.491-0.361v-0.223c-0.06-0.717-0.119-1.512-0.179-2.382c-0.061-0.835-0.09-1.642-0.09-2.423
	c-0.029-0.81-0.072-1.539-0.131-2.196c-0.03-0.658-0.045-1.136-0.045-1.435v-0.09c0.494-0.087,0.957-0.303,1.337-0.63l0.09-0.044
	c0.54-1.973,1.999-3.563,3.916-4.266c0.719-0.3,1.489-0.467,2.268-0.495c0.442-0.029,0.883,0.048,1.29,0.226
	c0.362,0.126,0.633,0.435,0.713,0.808c-0.004,0.166-0.019,0.332-0.047,0.494c-0.06,0.182-0.104,0.328-0.132,0.449
	c-1.194,1.051-2.034,2.447-2.401,3.996c-0.301,1.557-0.509,3.131-0.623,4.713l0.178,0.135c0.113,0.361,0.394,0.646,0.754,0.765
	c0.511,0.257,1.048,0.452,1.603,0.588c0.517,0.174,1.055,0.278,1.601,0.313c0.474,0.119,0.801,0.207,0.978,0.269h0.489l-0.176-0.269
	v-0.449c-0.035-0.572,0.121-1.143,0.443-1.615c0.136-0.229,0.301-0.439,0.491-0.628h0.269l-0.267-0.358
	c-0.03-0.088-0.045-0.179-0.045-0.271c-0.031-0.161-0.047-0.326-0.045-0.492c0.032-0.286,0.157-0.555,0.354-0.767
	c0.267-0.297,0.43-0.493,0.491-0.584l0.176-0.09v-0.941c-0.055-0.521,0.143-1.04,0.535-1.395c0.321-0.235,0.591-0.418,0.798-0.537
	c0.233,0.127,0.493,0.203,0.758,0.226c0.478,0.046,0.952,0.124,1.419,0.229c0.53,0.06,1.096,0.115,1.688,0.182
	c0.506-0.002,1.012,0.025,1.516,0.088c0.465,0.021,0.928-0.085,1.331-0.313c0.25-0.346,0.403-0.748,0.444-1.168
	c0.029-0.422,0.045-0.822,0.045-1.216v-1.209c0.215-0.135,0.459-0.212,0.713-0.227H70.12c0.338-0.005,0.664-0.112,0.937-0.313
	c0.205-0.232,0.381-0.491,0.53-0.764c0.175-0.263,0.31-0.548,0.399-0.851c0.062-0.271,0.105-0.494,0.136-0.675V16.55
	c-0.021-0.155,0.012-0.312,0.09-0.449c-0.012-0.077,0.004-0.156,0.045-0.223h0.175c0.104,0.136,0.246,0.244,0.401,0.314
	c0.088,0,0.342-0.016,0.756-0.046c0.257-0.018,0.507-0.112,0.713-0.267c0.175-0.144,0.396-0.222,0.621-0.225
	c0.233-0.047,0.455-0.122,0.67-0.224h7.248c0.035,0.034,0.084,0.051,0.132,0.045c0.036,0.063,0.106,0.098,0.18,0.09
	c0.354,0.192,0.758,0.271,1.154,0.225c0.563-0.001,1.172-0.015,1.825-0.045c0.683-0.029,1.287-0.059,1.822-0.089
	c0.504-0.065,0.786-0.095,0.846-0.095h0.132v-0.135c0.178-0.381,0.272-0.797,0.278-1.215v-0.096c0-0.071-0.004-0.144-0.01-0.215
	c-0.023-0.289-0.113-0.565-0.265-0.811v-0.181l-0.313-0.18c-0.117,0-0.457-0.015-1.021-0.046c-0.598-0.029-1.203-0.029-1.822,0
	c-0.623,0.031-1.188,0.046-1.692,0.046c-0.364-0.008-0.724,0.053-1.065,0.18l-0.355,0.094c-0.156,0.074-0.318,0.136-0.488,0.181
	c-0.15-0.003-0.307,0.028-0.443,0.092h-6.315v-0.087c-0.026-0.056-0.043-0.119-0.043-0.18c-0.026-0.024-0.045-0.059-0.047-0.096
	l-1.199-0.268c-0.149-0.004-0.297-0.019-0.444-0.046c-0.104-0.004-0.209-0.02-0.312-0.043h-0.399
	c-0.002-0.257,0.028-0.513,0.088-0.763c0.017-0.158,0.062-0.313,0.138-0.45c0.112-0.637,0.188-1.283,0.222-1.929V7.794
	c0.11-1.144-0.188-2.289-0.843-3.232c-0.077-0.302-0.354-0.509-0.669-0.494h-0.934C70.4,3.98,69.82,3.934,69.241,3.932
	c-0.89,0-2.181-0.016-3.866-0.045c-1.725-0.029-4.003-0.088-6.85-0.178C52.887,3.234,47.23,2.997,41.573,2.997
	C40.264,2.997,38.962,3.009,37.662,3.035"/>
<linearGradient id="shape2_2_" gradientUnits="userSpaceOnUse" x1="67.7471" y1="18.5947" x2="67.7471" y2="4.0951" gradientTransform="matrix(1 0 0 -1 -0.02 35.0947)">
	<stop  offset="2.307277e-007" style="stop-color:#4A5344"/>
	<stop  offset="1" style="stop-color:#8DB958"/>
</linearGradient>
<path id="shape2_1_" fill="url(#shape2_2_)" d="M77.559,31.251c-0.313,0-0.625-0.05-0.922-0.147
	c-0.298,0.102-0.609,0.147-0.922,0.147h-8.193c-0.185,0-0.444-0.009-0.77-0.075c-0.217,0.051-0.439,0.075-0.664,0.075h-2.664
	c-0.816,0-1.605-0.342-2.166-0.937c-0.078-0.086-0.15-0.174-0.219-0.27l-0.91,0.648c-0.503,0.359-1.1,0.554-1.725,0.554H54.82
	c-0.717,0-1.402-0.267-1.934-0.72c-0.617,0.425-1.354,0.652-2.115,0.652c-0.75,0-1.479-0.222-2.104-0.642
	c-0.164-0.11-0.315-0.233-0.452-0.37c-1.021-1.021-1.363-2.423-0.92-3.753l0.044-0.128l0.08-0.203
	c-1.801-0.254-3.145-1.766-3.145-3.646V22.24c0-0.741,0.274-1.45,0.773-1.996l4.748-5.232c0.646-1.069,1.762-1.679,3.079-1.679h0.41
	c2.065,0,3.684,1.618,3.684,3.684c0,0-0.001,0.289-0.003,0.331c0.555-0.653,1.372-1.044,2.26-1.044h8.398
	c0.261,0,0.518,0.034,0.768,0.101c0.25-0.067,0.508-0.101,0.771-0.101h9.218c0.243,0,0.481,0.029,0.718,0.087
	c0.232-0.058,0.477-0.087,0.719-0.087h8.396c0.917,0,1.797,0.433,2.354,1.159c0.562,0.726,0.752,1.689,0.517,2.573l-0.407,1.532
	c-0.146,0.541-0.434,1.02-0.826,1.395c-0.017,0.188-0.047,0.372-0.097,0.555l-0.41,1.537c-0.073,0.282-0.19,0.551-0.346,0.799
	c0.168,0.532,0.187,1.109,0.04,1.656l-0.413,1.539c-0.349,1.296-1.522,2.202-2.866,2.202H77.559z M74.52,23.782l0.016-0.009h-0.797
	l-0.002,0.009H74.52z"/>
<path id="ACE" fill="#FFFFFF" d="M51.748,23.163h-3.79c-0.409,0-0.717-0.308-0.717-0.718c0-0.104,0-0.104,0-0.204l5.018-5.531
	c0.103-0.307,0.31-0.41,0.615-0.41h0.41c0.409,0,0.717,0.308,0.717,0.717c0,0.102,0,0.205,0,0.205l-2.458,3.584h4.402
	c0.615,0,0.31,1.127-0.104,1.639l-4.507,5.531c-0.311,0.308-0.717,0.308-1.021,0.104c-0.205-0.206-0.311-0.41-0.205-0.719
	L51.748,23.163L51.748,23.163L51.748,23.163z M59.225,19.271l0.409,0.41l-4.813,8.603h3.584l2.15-1.536h2.971l-0.103,1.536h2.663
	l1.536-9.013H59.225L59.225,19.271z M63.73,20.809l-0.104,3.482h-2.97l2.048-3.482H63.73L63.73,20.809z M67.521,28.284h8.188
	l0.613-2.15l-0.819,0.614h-5.73l1.74-5.941h6.449l0.409-1.535h-9.22L66.8,27.26c-0.1,0.104-0.1,0.309-0.1,0.409
	c0,0.103,0,0.205,0.103,0.31c0.102,0.104,0.205,0.203,0.307,0.203C67.314,28.284,67.419,28.284,67.521,28.284L67.521,28.284
	L67.521,28.284z M79.811,19.271l0.313,0.609l-2.563,8.398h8.192l0.41-1.536H81.04l0.717-2.458h4.711l0.41-1.537h-4.506l0.612-1.941
	H87.8l0.409-1.535H79.811L79.811,19.271z"/>
</svg>
