<?xml version="1.0" encoding="utf-8"?>
<!-- Generator: Adobe Illustrator 16.0.0, SVG Export Plug-In . SVG Version: 6.00 Build 0)  -->
<!DOCTYPE svg PUBLIC "-//W3C//DTD SVG 1.1//EN" "http://www.w3.org/Graphics/SVG/1.1/DTD/svg11.dtd">
<svg version="1.1" id="case1" xmlns="http://www.w3.org/2000/svg" xmlns:xlink="http://www.w3.org/1999/xlink" x="0px" y="0px"
	 width="92px" height="36px" viewBox="0 0 92 36" enable-background="new 0 0 92 36" xml:space="preserve">
<path id="m4a1" fill="#B1DB7F" d="M45.258,17.73c0.016-0.336-0.094-0.667-0.309-0.927c-0.183-0.226-0.458-0.356-0.748-0.354h-2.116
	c-0.029-0.029-0.044-0.015-0.044,0.044c-0.098,0.161-0.158,0.343-0.177,0.531c-0.001,0.356,0.09,0.706,0.264,1.016
	c0.123,0.181,0.17,0.402,0.133,0.618c-0.175,0.117-0.513-0.162-1.014-0.84c-0.174-0.247-0.281-0.537-0.308-0.838l-0.044-0.53
	c-0.19,0.096-0.368,0.215-0.53,0.354c-0.288,0.225-0.465,0.563-0.485,0.928c0.031,0.411,0.169,0.807,0.4,1.148
	c0.215,0.327,0.579,0.526,0.97,0.531h2.689c0.448,0.042,0.879-0.185,1.1-0.576C45.202,18.491,45.277,18.111,45.258,17.73z
	 M79.068,5.971c-0.101,0.186-0.188,0.377-0.264,0.573c-0.027,0.179-0.014,0.361,0.043,0.533l0.264,0.575H81.1l0.133-2.61h-1.674
	L79.068,5.971z M83.7,11.099c-0.091-0.002-0.175-0.053-0.218-0.132l-0.09-0.133h-1.367c-0.033,0.339-0.254,0.63-0.571,0.752h-0.663
	c-0.119-0.023-0.219-0.106-0.264-0.22l-0.133-0.177h-2.732v0.706c-0.027,0.223-0.158,0.42-0.354,0.532
	c-0.203,0.193-0.471,0.303-0.748,0.309H55.264c-0.207-0.048-0.375-0.199-0.443-0.4l-0.174-0.4l-0.483,0.795h-0.31v5.083l0.354,0.443
	c-0.064,0.16-0.191,0.287-0.354,0.354c-0.195,0.269-0.248,0.617-0.135,0.93c0.088,1,0.135,1.59,0.135,1.768
	c-0.004,0.532,0.025,1.063,0.088,1.592c0.088,0.354,0.223,0.854,0.399,1.5c0.205,0.768,0.603,2.123,1.191,4.066l0.22,0.133
	c0.088,0.117,0.044,0.223-0.131,0.312c-4.382,1.42-6.705,2.157-6.969,2.216c-0.166,0.012-0.32-0.076-0.4-0.223
	c-0.061-0.125-0.061-0.271,0-0.397c-0.081-0.556-0.215-1.104-0.4-1.634c-0.389-1.264-0.697-2.548-0.925-3.852
	c-0.22-1.182-0.354-2.379-0.399-3.58l0.043-1.192l-0.571-0.179v-0.48c-0.119,0.252-0.321,0.455-0.572,0.575H40.41
	c-0.074,0.229-0.255,0.412-0.486,0.483c-0.147-0.039-0.273-0.133-0.353-0.265l-0.132-0.22c-0.109-0.059-0.23-0.088-0.353-0.089
	c-0.244,0.005-0.458,0.166-0.529,0.399c-0.096,0.229-0.231,0.438-0.4,0.617c-0.125,0.143-0.244,0.289-0.354,0.443
	c-0.048,0.201,0.001,0.415,0.134,0.572c0.133,0.146,0.211,0.336,0.22,0.533c-0.184,0.145-0.394,0.248-0.618,0.31
	c-0.303,0.058-0.562,0.254-0.7,0.528c-0.028,0.061-0.336,0.633-0.925,1.727c-0.315,0.497-0.567,1.029-0.751,1.591
	c0.073,0.206,0.177,0.399,0.309,0.575c0.173,0.184,0.191,0.461,0.044,0.664c-0.324,0.41-1.632,0.456-3.923,0.132
	c-0.711-0.063-1.402-0.272-2.028-0.619c-0.529-0.294-0.707-0.616-0.529-0.972c0.267-0.473,2.133-3.698,5.6-9.681
	c0.181-0.439,0.181-0.933,0-1.372c-0.038-0.471-0.376-0.864-0.837-0.972c-0.25-0.001-0.501,0.014-0.75,0.045
	c-0.163,0.031-0.332,0.016-0.486-0.045c-0.286-0.095-0.481-0.361-0.486-0.662c-0.027-0.384-0.044-0.723-0.044-1.018
	c-0.037-0.413-0.022-0.828,0.044-1.237h-0.22l-0.573-0.222v-0.22h-6.793l-0.088,0.486c-0.165,0.407-0.439,0.759-0.794,1.018
	c-0.376,0.265-0.73,0.56-1.058,0.883l-0.353,0.309L21.4,15.346h-1.051l-0.708,1.239h-2.6v-0.66H15.5
	c-2.262,1.74-3.511,2.685-3.746,2.83c-0.164,0.112-0.342,0.202-0.53,0.267c-0.15,0.021-0.287-0.088-0.306-0.236
	c-0.001-0.012-0.002-0.02-0.002-0.028l-0.044-0.442L3.819,22.87l-0.134,0.528c-0.059,0.261-0.239,0.475-0.484,0.576
	c-0.264,0.058-0.539,0.041-0.794-0.045c-0.272-0.037-0.531-0.145-0.75-0.31c-0.165-0.113-0.313-0.247-0.441-0.399
	C1.055,23.018,0.978,22.762,1,22.505V8.976C0.999,8.625,1.144,8.289,1.4,8.049c0.333-0.311,0.779-0.472,1.234-0.444h21.95
	c0.159,0.044,0.268,0.189,0.265,0.354c0.031,0.119,0.06,0.236,0.088,0.354h6.347V8.05l0.574-0.225h1.1v-0.97l0.221-0.22
	c0.371-0.175,0.781-0.251,1.19-0.22h2.644l0.927-1.328l-0.087-0.442c-0.188-0.064-0.365-0.154-0.529-0.265
	c-0.343-0.244-0.541-0.642-0.53-1.062c0.002-0.304,0.129-0.593,0.352-0.8c0.228-0.247,0.547-0.389,0.883-0.393
	c0.365-0.007,0.716,0.138,0.97,0.4c0.228,0.22,0.355,0.523,0.352,0.84v2.65h0.529V5.308h1.632v0.927h12.431
	c0.191,0.009,0.373,0.107,0.482,0.266c0.104,0.124,0.191,0.258,0.268,0.4c0.027,0.148,0.22,0.059,0.572-0.265h1.321
	c-0.003-0.076,0.015-0.151,0.044-0.22c0.057-0.145,0.199-0.235,0.354-0.221h19.658c0.192,0.009,0.373,0.106,0.485,0.265
	c0.052,0.079,0.108,0.153,0.177,0.221l0.926-1.282c0.379-0.58,0.808-1.127,1.276-1.636l0.222-0.219
	c0.342-0.165,0.722-0.241,1.101-0.221h1.101v5.655h1.322l0.178-0.22c0.088-0.104,0.215-0.167,0.353-0.176h5.288
	c0.224-0.007,0.436,0.091,0.574,0.265C89.889,9.072,90.02,9.394,90,9.725v0.448c0.011,0.271-0.104,0.53-0.311,0.705
	c-0.156,0.141-0.359,0.22-0.57,0.221H83.7z"/>
<g>
	<g>
		<defs>
			<path id="SVGID_1_" d="M45.258,17.73c0.016-0.336-0.094-0.667-0.309-0.927c-0.183-0.226-0.458-0.356-0.748-0.354h-2.116
				c-0.029-0.029-0.044-0.015-0.044,0.044c-0.098,0.161-0.158,0.343-0.177,0.531c-0.001,0.356,0.09,0.706,0.264,1.016
				c0.123,0.181,0.17,0.402,0.133,0.618c-0.175,0.117-0.513-0.162-1.014-0.84c-0.174-0.247-0.281-0.537-0.308-0.838l-0.044-0.53
				c-0.19,0.096-0.368,0.215-0.53,0.354c-0.288,0.225-0.465,0.563-0.485,0.928c0.031,0.411,0.169,0.807,0.4,1.148
				c0.215,0.327,0.579,0.526,0.97,0.531h2.689c0.448,0.042,0.879-0.185,1.1-0.576C45.202,18.491,45.277,18.111,45.258,17.73z
				 M79.068,5.971c-0.101,0.186-0.188,0.377-0.264,0.573c-0.027,0.179-0.014,0.361,0.043,0.533l0.264,0.575H81.1l0.133-2.61h-1.674
				L79.068,5.971z M83.7,11.099c-0.091-0.002-0.175-0.053-0.218-0.132l-0.09-0.133h-1.367c-0.033,0.339-0.254,0.63-0.571,0.752
				h-0.663c-0.119-0.023-0.219-0.106-0.264-0.22l-0.133-0.177h-2.732v0.706c-0.027,0.223-0.158,0.42-0.354,0.532
				c-0.203,0.193-0.471,0.303-0.748,0.309H55.264c-0.207-0.048-0.375-0.199-0.443-0.4l-0.174-0.4l-0.483,0.795h-0.31v5.083
				l0.354,0.443c-0.064,0.16-0.191,0.287-0.354,0.354c-0.195,0.269-0.248,0.617-0.135,0.93c0.088,1,0.135,1.59,0.135,1.768
				c-0.004,0.532,0.025,1.063,0.088,1.592c0.088,0.354,0.223,0.854,0.399,1.5c0.205,0.768,0.603,2.123,1.191,4.066l0.22,0.133
				c0.088,0.117,0.044,0.223-0.131,0.312c-4.382,1.42-6.705,2.157-6.969,2.216c-0.166,0.012-0.32-0.076-0.4-0.223
				c-0.061-0.125-0.061-0.271,0-0.397c-0.081-0.556-0.215-1.104-0.4-1.634c-0.389-1.264-0.697-2.548-0.925-3.852
				c-0.22-1.182-0.354-2.379-0.399-3.58l0.043-1.192l-0.571-0.179v-0.48c-0.119,0.252-0.321,0.455-0.572,0.575H40.41
				c-0.074,0.229-0.255,0.412-0.486,0.483c-0.147-0.039-0.273-0.133-0.353-0.265l-0.132-0.22c-0.109-0.059-0.23-0.088-0.353-0.089
				c-0.244,0.005-0.458,0.166-0.529,0.399c-0.096,0.229-0.231,0.438-0.4,0.617c-0.125,0.143-0.244,0.289-0.354,0.443
				c-0.048,0.201,0.001,0.415,0.134,0.572c0.133,0.146,0.211,0.336,0.22,0.533c-0.184,0.145-0.394,0.248-0.618,0.31
				c-0.303,0.058-0.562,0.254-0.7,0.528c-0.028,0.061-0.336,0.633-0.925,1.727c-0.315,0.497-0.567,1.029-0.751,1.591
				c0.073,0.206,0.177,0.399,0.309,0.575c0.173,0.184,0.191,0.461,0.044,0.664c-0.324,0.41-1.632,0.456-3.923,0.132
				c-0.711-0.063-1.402-0.272-2.028-0.619c-0.529-0.294-0.707-0.616-0.529-0.972c0.267-0.473,2.133-3.698,5.6-9.681
				c0.181-0.439,0.181-0.933,0-1.372c-0.038-0.471-0.376-0.864-0.837-0.972c-0.25-0.001-0.501,0.014-0.75,0.045
				c-0.163,0.031-0.332,0.016-0.486-0.045c-0.286-0.095-0.481-0.361-0.486-0.662c-0.027-0.384-0.044-0.723-0.044-1.018
				c-0.037-0.413-0.022-0.828,0.044-1.237h-0.22l-0.573-0.222v-0.22h-6.793l-0.088,0.486c-0.165,0.407-0.439,0.759-0.794,1.018
				c-0.376,0.265-0.73,0.56-1.058,0.883l-0.353,0.309L21.4,15.346h-1.051l-0.708,1.239h-2.6v-0.66H15.5
				c-2.262,1.74-3.511,2.685-3.746,2.83c-0.164,0.112-0.342,0.202-0.53,0.267c-0.15,0.021-0.287-0.088-0.306-0.236
				c-0.001-0.012-0.002-0.02-0.002-0.028l-0.044-0.442L3.819,22.87l-0.134,0.528c-0.059,0.261-0.239,0.475-0.484,0.576
				c-0.264,0.058-0.539,0.041-0.794-0.045c-0.272-0.037-0.531-0.145-0.75-0.31c-0.165-0.113-0.313-0.247-0.441-0.399
				C1.055,23.018,0.978,22.762,1,22.505V8.976C0.999,8.625,1.144,8.289,1.4,8.049c0.333-0.311,0.779-0.472,1.234-0.444h21.95
				c0.159,0.044,0.268,0.189,0.265,0.354c0.031,0.119,0.06,0.236,0.088,0.354h6.347V8.05l0.574-0.225h1.1v-0.97l0.221-0.22
				c0.371-0.175,0.781-0.251,1.19-0.22h2.644l0.927-1.328l-0.087-0.442c-0.188-0.064-0.365-0.154-0.529-0.265
				c-0.343-0.244-0.541-0.642-0.53-1.062c0.002-0.304,0.129-0.593,0.352-0.8c0.228-0.247,0.547-0.389,0.883-0.393
				c0.365-0.007,0.716,0.138,0.97,0.4c0.228,0.22,0.355,0.523,0.352,0.84v2.65h0.529V5.308h1.632v0.927h12.431
				c0.191,0.009,0.373,0.107,0.482,0.266c0.104,0.124,0.191,0.258,0.268,0.4c0.027,0.148,0.22,0.059,0.572-0.265h1.321
				c-0.003-0.076,0.015-0.151,0.044-0.22c0.057-0.145,0.199-0.235,0.354-0.221h19.658c0.192,0.009,0.373,0.106,0.485,0.265
				c0.052,0.079,0.108,0.153,0.177,0.221l0.926-1.282c0.379-0.58,0.808-1.127,1.276-1.636l0.222-0.219
				c0.342-0.165,0.722-0.241,1.101-0.221h1.101v5.655h1.322l0.178-0.22c0.088-0.104,0.215-0.167,0.353-0.176h5.288
				c0.224-0.007,0.436,0.091,0.574,0.265C89.889,9.072,90.02,9.394,90,9.725v0.448c0.011,0.271-0.104,0.53-0.311,0.705
				c-0.156,0.141-0.359,0.22-0.57,0.221H83.7z"/>
		</defs>
		<clipPath id="SVGID_2_">
			<use xlink:href="#SVGID_1_"  overflow="visible"/>
		</clipPath>
		<g clip-path="url(#SVGID_2_)">
			<g>
				<g>
					<path fill="#033500" d="M23.912,31.275c-0.508,0-1.016,0-1.523,0c-0.962-0.195-1.925-0.396-3.081-0.629
						c-0.092,0.104-0.316,0.365-0.541,0.629c-4.574,0-9.147,0-13.721,0c-0.277-0.461-0.643-0.896-0.798-1.396
						c-0.098-0.313,0.119-0.727,0.195-1.094c0.338,0.081,0.689,0.128,1.01,0.255c0.158,0.063,0.259,0.271,0.386,0.411
						c0.571,0.633,0.943,0.422,1.261-0.295c-0.311-0.223-0.584-0.416-1.002-0.717c1.415-0.545,1.932-1.512,1.884-2.938
						c-0.012-0.35,0.739-0.859,1.234-1.055c0.57-0.221,1.256-0.121,1.872-0.256c0.819-0.178,1.796-0.027,2.474-1.103
						c-0.479-0.159-0.853-0.353-1.246-0.405c-0.562-0.086-1.154,0-1.7-0.131c-0.363-0.089-0.958-0.449-0.942-0.646
						c0.04-0.475,0.255-1.146,0.616-1.344c1.44-0.781,3.218-0.51,4.385,0.094c1.223,0.634,2.229,0.673,3.375,0.47
						c2.883-0.508,5.544-0.302,7.77,1.896c0.438,0.436,1.043,0.729,1.619,0.979c1.744,0.752,3.928,0.147,5.049-1.34
						c0.693-0.918,0.39-1.806-0.635-2.198c-0.687-0.266-1.623-0.589-1.864-1.145c-0.403-0.923-0.923-1.156-1.8-1.14
						c-1.238,0.022-2.081-0.734-2.223-1.992c-0.083-0.732-0.17-1.487-0.078-2.207c0.042-0.338,0.459-0.69,0.788-0.913
						c0.769-0.524,1.607-0.947,2.382-1.462c1.347-0.9,2.661-1.786,4.336-0.681c0.249,0.163,0.691,0.152,1.007,0.07
						c1.209-0.307,2.403-0.677,3.702-1.052c-0.229-0.477-0.493-1.025-0.774-1.608c-0.294,0-0.579,0-0.863,0
						c0.244-0.265,0.52-0.396,0.782-0.373c0.985,0.093,1.963,0.271,2.948,0.349c0.855,0.068,1.392-0.419,1.556-1.229
						c0.163-0.81-0.139-1.511-0.947-1.753c-1.313-0.391-2.096-1.636-3.6-1.877c-0.948-0.15-1.613-0.435-2.252,0.48
						c-0.468-0.502-0.553-0.957,0-1.308c0.239-0.152,0.608-0.131,0.918-0.133c1.081-0.008,2.205,0.279,2.975-0.92
						c0.189-0.292,0.861-0.288,1.318-0.389c0.365-0.082,0.776-0.042,1.102-0.195c0.313-0.146,0.539-0.471,0.805-0.718
						c-0.342-0.143-0.688-0.403-1.029-0.399c-0.562,0.004-1.118,0.206-1.684,0.278c-0.744,0.094-1.334-0.274-1.386-0.975
						c-0.03-0.41,0.345-0.984,0.708-1.25c0.368-0.269,0.942-0.284,1.433-0.35c0.687-0.091,1.385-0.083,2.066-0.198
						c0.635-0.108,0.566-0.539,0.223-0.893c-0.205-0.212-0.545-0.428-0.814-0.416c-1.453,0.065-2.912,0.131-4.346,0.35
						c-0.502,0.078-1.09,0.494-1.372,0.928c-0.659,1.014-1.58,1.431-2.674,1.785c-0.574,0.186-1.189,0.78-1.427,1.342
						c-0.369,0.87-0.901,1.259-1.777,1.275c-0.857,0.016-1.717-0.041-2.569,0.021c-0.284,0.021-0.548,0.312-0.821,0.479
						c0.208,0.186,0.444,0.349,0.62,0.561c0.298,0.361,0.559,0.75,0.835,1.129c-0.34,0.233-0.654,0.553-1.031,0.668
						c-0.299,0.091-0.678-0.05-1.014-0.121c-0.779-0.167-1.541-0.656-2.35-0.037c-0.107,0.084-0.397-0.08-0.605-0.116
						c-0.259-0.046-0.521-0.081-0.782-0.114c-0.611-0.076-1.22-0.186-1.833-0.215c-0.739-0.037-1.92-0.286-2.14,0.055
						c-0.631,0.979-2.167,1.172-2.196,2.641c-0.009,0.504-0.302,1.001-0.514,1.653c-0.221-0.292-0.39-0.514-0.566-0.747
						c-1.682,0.283-3.585-0.339-4.983,1.143c0.414,1.389,1.444,1.379,2.535,1.297c3.097-0.232,6.195-0.39,9.275,0.199
						c0.295,0.057,0.812,0.13,0.828,0.249c0.042,0.32-0.129,0.667-0.223,1.033c-1.355-0.399-2.422-0.15-3.43,0.638
						c-0.36,0.283-0.922,0.393-1.402,0.425c-1.284,0.092-1.357,0.152-1.014,1.519c0.912,0.119,1.868,0.208,2.803,0.399
						c0.162,0.033,0.386,0.55,0.321,0.765c-0.388,1.3-1.201,2.202-2.594,2.478c-0.769,0.152-1.635,0.15-2.28,0.524
						c-1.235,0.714-2.398,0.934-3.748,0.401c-0.56-0.224-1.377-0.475-1.802-0.232c-1.397,0.797-2.364,0.275-3.409-0.623
						c-0.759-0.654-1.69-0.964-2.782-0.575c0.142,0.297,0.245,0.559,0.386,0.798c0.936,1.58,1.397,3.309,1.64,5.111
						c0.197,1.465-0.619,2.27-2.069,1.98c-0.492-0.095-0.987-0.223-1.452-0.408c-0.53-0.215-0.993-0.353-1.438,0.168
						c-0.445,0.519-0.271,0.98,0.04,1.467c0.418,0.66,0.351,1.14-0.516,1.289c0-5.398,0-10.795,0-16.195
						c0.274,0.041,0.631-0.014,0.804,0.141c0.492,0.438,0.927,0.944,1.35,1.455c0.609,0.732,1.355,0.858,2.105,0.363
						c1.206-0.795,2.343-0.602,3.601-0.118c1.011,0.39,2.11,0.611,3.19,0.736c0.821,0.096,1.543-0.6,1.405-1.194
						c-0.212-0.903-0.962-0.588-1.483-0.475c-0.783,0.171-1.433-0.014-1.876-0.593c-0.827-1.076-1.821-1.19-3.026-0.819
						c-0.822,0.256-1.12-0.061-0.977-0.914C4.839,9.833,4.9,9.638,4.999,9.24C3.312,9.739,2.289,8.85,1.75,7.632
						C1.297,6.615,0.728,6.24-0.289,6.31c0-1.333,0-2.667,0-4.001c0.447-0.475,1.054-0.874,0.783-1.734
						C0.242,0.519-0.024,0.461-0.289,0.403c0-0.762,0-1.525,0-2.287c1.08,0.322,2.161,0.643,3.242,0.964
						c1.556-1.301,2.943-0.736,4.289,0.379c0.088,0.072,0.243,0.06,0.362,0.102C8.341-0.175,8.201,0.436,8,0.904
						C7.806,1.348,7.394,1.479,6.91,1.087C6.28,0.578,5.586,0.574,4.889,1.024c-1.29,0.835-2.59,1.654-3.941,2.516
						c0.567,0.944,1.036,1.726,1.57,2.617C3.994,4.699,5.581,3.661,7.665,5.06C7.481,4.748,7.297,4.438,7.039,4.002
						c1.23-0.408,2.372-0.881,3.56-1.15c1.167-0.267,2.378-0.349,3.575-0.461c0.332-0.031,0.68,0.124,1.023,0.187
						c0.229,0.042,0.46,0.073,0.749,0.118c0.007-0.941-0.662-1.143-1.203-1.502c-0.589-0.393-1.149-0.852-1.643-1.358
						c-0.857-0.879-1.644-1.829-2.488-2.722c-0.158-0.167-0.468-0.318-0.678-0.285c-1.035,0.16-1.788-0.2-2.25-1.209
						C7.157-3.273,6.931-3.212,5.898-3.796c-1.329-0.753-1.544-0.72-2.601,0.392C3.101-3.197,2.844-3.03,2.704-2.792
						C2.275-2.06,1.832-1.811,1.06-2.425C0.717-2.697,0.167-2.708-0.289-2.837c0-3.621,0-7.242,0-10.863
						c0.145,0,0.29-0.001,0.436-0.001c1.026-0.648,2.055-1.034,3.216-0.259c0.188,0.126,0.555-0.044,0.834-0.021
						c0.894,0.076,1.832,0.036,2.663,0.312c0.685,0.227,1.166,0.253,1.689-0.229c0.679-0.625,1.227-0.443,1.883,0.166
						c0.768,0.711,1.694,1.249,2.552,1.861c0.084-0.042,0.167-0.084,0.251-0.126c-0.42-1.681,1.833-2.364,1.419-4.179
						c-0.26,0.287-0.438,0.483-0.775,0.856c0.225-0.536,0.354-0.845,0.5-1.19c-0.231-0.163-0.429-0.313-0.637-0.448
						c-1.327-0.854-2.519-1.785-2.664-3.558c-0.019-0.231-0.547-0.482-0.883-0.612c-0.634-0.247-1.341-0.332-1.934-0.645
						c-0.275-0.144-0.51-0.679-0.475-1.006c0.029-0.26,0.483-0.651,0.771-0.671c0.743-0.051,1.497,0.063,2.246,0.125
						c0.716,0.063,1.44,0.253,2.142,0.185c0.696-0.067,1.084-0.688,0.822-1.323c-0.128-0.311-0.77-0.555-1.188-0.568
						c-0.68-0.021-1.366,0.229-2.052,0.252c-0.754,0.026-1.068-0.483-0.832-1.195c0.364-1.102,1.398-1.656,2.675-1.394
						c0.854,0.175,1.696,0.407,2.474,0.597c-0.117,0.303-0.231,0.599-0.344,0.894c0.314,0.102,0.624,0.267,0.945,0.29
						c0.503,0.038,1.039,0.077,1.516-0.054c2.401-0.655,4.633-0.165,6.833,0.832c1.837,0.832,3.785,1.38,5.803,1.265
						c0.995-0.057,1.989-0.526,2.929-0.934c0.264-0.115,0.479-0.688,0.447-1.025c-0.023-0.247-0.485-0.455-0.753-0.678
						c-0.706-0.594-1.51-1.106-2.088-1.805c-0.471-0.568-0.79-0.759-1.327-0.268c0.12,0.234,0.26,0.443,0.318,0.674
						c0.012,0.048-0.27,0.193-0.43,0.259c-0.337,0.139-0.737,0.185-1.016,0.395c-0.644,0.482-1.296,0.47-1.954,0.139
						c-0.848-0.425-1.673-0.894-2.494-1.367c-0.987-0.571-1.044-1.006-0.299-1.836c0.16-0.178,0.263-0.408,0.404-0.631
						c0.622,0.923,1.497,0.918,2.058,0.009c0.358-0.582,0.679-0.997,1.508-0.667c0.335,0.134,1.087-0.065,1.254-0.348
						c0.604-1.024,1.446-1.246,2.544-1.254c1.125-0.007,2.092,0.705,2.381,1.789c0.126,0.479,0.525,1.011,0.952,1.26
						c1.154,0.67,1.187,0.616,0.552,1.909c0.431,0.062,0.831,0.107,1.227,0.177c0.992,0.175,2.052,0.197,2.956,0.584
						c1.07,0.458,1.973,0.448,2.98-0.063c1.096-0.555,2.248-0.997,3.357-1.524c0.711-0.336,1.446-0.663,2.067-1.133
						c0.828-0.628,1.014-1.613,0.58-2.267c0.385-0.178,0.771-0.358,1.157-0.539c-0.392-0.766-0.841-0.685-1.25-0.254
						c-0.166-0.263-0.273-0.624-0.429-0.644c-0.878-0.114-0.75-0.679-0.641-1.26c6.396,0,12.795,0,19.246,0
						c0,4.192,0,8.384,0,12.577c-0.148,0.025-0.33,0.007-0.447,0.083c-0.339,0.216-0.646,0.472-0.971,0.711
						c0.268,0.177,0.523,0.374,0.803,0.525c0.188,0.101,0.411,0.14,0.615,0.206c0,1.715,0,3.43,0,5.146
						c-0.564,0.024-1.139,0.003-1.695,0.086c-0.926,0.139-1.854,0.301-2.755,0.551c-0.247,0.069-0.573,0.493-0.557,0.731
						c0.021,0.247,0.375,0.534,0.647,0.679c0.264,0.139,0.607,0.177,0.916,0.157c1.147-0.078,2.297-0.196,3.44-0.3
						c0,4.701,0,9.401,0,14.103c-0.59-0.171-1.19-0.31-1.771-0.521c-0.528-0.193-1.006-0.561-1.545-0.68
						c-1.086-0.241-2.205-0.344-3.302-0.553c-0.267-0.051-0.502-0.289-0.749-0.441c0.155-0.246,0.25-0.601,0.471-0.718
						c1.045-0.557,2.109-0.475,3.197,0.09c0.356-0.66,0.707-1.31,1.16-2.146c-0.967-0.075-1.744-0.12-2.518-0.202
						c-0.448-0.047-0.926-0.081-1.334-0.255c-1.074-0.462-1.17-0.45-1.67,0.861c-0.782-0.414-1.559-0.783-2.287-1.222
						c-0.723-0.435-1.4-0.941-1.984-1.339c-0.063,0.48,0,1.012-0.229,1.337c-0.146,0.209-0.728,0.148-1.108,0.146
						c-0.17-0.001-0.333-0.175-0.511-0.24c-0.926-0.336-1.854-0.662-2.784-0.991c-0.065,0.133-0.132,0.266-0.195,0.399
						c0.411,0.304,0.815,0.618,1.235,0.91c0.724,0.505,1.581,0.887,2.152,1.526c0.594,0.662,0.904,1.582,2.088,1.477
						c-0.473,0.135-0.916,0.182-1.246,0.011c-1.149-0.595-2.245-1.291-3.395-1.888c-0.296-0.152-0.721-0.16-1.058-0.093
						c-0.581,0.117-0.67-0.093-0.601-0.601c0.105-0.755-0.297-0.756-0.896-0.527c0.479,0.705,0.246,1.053-0.501,1.192
						C45.957-3.966,45.416-3.896,45-3.645c-0.346,0.211-0.828,0.745-0.76,1.004c0.201,0.742,0.496,1.587,1.039,2.076
						c0.729,0.655,0.645,1.121,0.133,1.746l0.023-0.021c-0.545,0.679-1.246,0.885-2.106,0.82c-0.302-0.023-0.627,0.28-0.943,0.434
						c0.271,0.269,0.494,0.654,0.819,0.777C43.6,3.339,44.08,3.3,44.52,3.284c1.383-0.047,2.475,0.616,3.65,1.379
						c-0.906,0.772-1.729,1.469-2.546,2.166c0.06,0.08,0.112,0.161,0.169,0.24c1.334-0.107,2.327,0.606,3.232,1.402
						c1.386,1.215,2.924,1.788,4.781,1.676c0.641-0.036,1.336,0.246,1.944,0.524c0.858,0.39,2.673,0.027,3.325-0.642
						c0.342-0.35,0.88-0.569,1.369-0.707c0.512-0.141,1.078-0.063,1.604-0.164c1.333-0.25,1.692-0.825,1.599-2.193
						c-0.024-0.355,0.188-1.001,0.399-1.052c1.187-0.282,1.397-1.148,1.527-2.139c0.048-0.364,0.167-0.721,0.25-1.08
						c0,1.269,0,2.541,0,3.812c-0.938,0.188-1.509,0.751-1.705,1.688c-0.112,0.526-0.239,1.048-0.326,1.577
						c-0.188,1.141-0.478,2.219-1.448,2.983c-0.191,0.15-0.445,0.417-0.423,0.603c0.054,0.452,0.197,0.914,0.417,1.314
						c0.084,0.155,0.617,0.274,0.688,0.191c0.266-0.314,0.479-0.701,0.602-1.095c0.063-0.206-0.139-0.478-0.162-0.724
						c-0.111-1.068,0.229-1.423,1.309-1.493c0.356-0.023,0.703-0.183,1.056-0.281c0,5.464,0,10.928,0,16.389
						c-1.002,0.253-1.269-0.565-1.715-1.155c-0.252-0.332-0.638-0.899-0.867-0.854c-0.967,0.174-1.899,0.526-2.828,0.86
						c-0.123,0.046-0.146,0.357-0.214,0.54c0.441,0.09,0.814,0.139,1.169,0.254c0.729,0.236,1.385,0.809,1.058,1.516
						c-0.4,0.854-0.141,1.646-0.221,2.464c-5.146,0-10.291,0-15.438,0c0.651-0.343,1.274-0.888,1.963-0.986
						c1.43-0.207,2.894-0.198,4.342-0.237c1.324-0.035,2.347-0.668,3.57-1.609c-1.308,0.117-2.147-0.041-2.205-1.344
						c-0.01-0.199-0.42-0.451-0.69-0.551c-0.469-0.172-0.974-0.326-1.466-0.34c-0.628-0.018-0.66-0.352-0.604-0.811
						c0.084-0.694,0.605-0.881,1.166-0.854c0.973,0.053,1.955,0.127,2.907,0.313c2.082,0.412,3.197-0.161,3.566-2.073
						c-0.563-0.138-1.138-0.267-1.705-0.408c-0.427-0.104-0.906-0.137-1.252-0.366c-0.685-0.453-1.289-1.021-1.795-1.438
						c0.122-0.479,0.536-1.154,0.351-1.539c-0.336-0.7-1.063-0.394-1.678-0.125c0.179,0.392,0.336,0.737,0.607,1.343
						c-0.627-0.099-1.053-0.068-1.379-0.232c-1.104-0.562-1.094-0.584-1.563,0.631c-0.708,1.826-1.469,2.345-3.344,2.313
						c-0.823-0.011-1.65-0.032-2.477,0.011c-0.563,0.026-1.135,0.104-1.671,0.262c-0.917,0.279-1.103,0.932-0.56,1.728
						c0.177,0.255,0.352,0.513,0.617,0.897c-0.856,0.197-1.584,0.416-2.328,0.527c-0.792,0.116-1.315,0.36-1.226,1.312
						c0.073,0.749-0.41,0.963-1.085,0.97c-0.765,0.014-0.941-0.428-0.83-1.041c0.092-0.514,0.296-1.006,0.435-1.509
						c0.135-0.496,0.249-0.995,0.433-1.733c-0.565,0.223-0.806,0.291-1.018,0.41c-1.274,0.709-2.572,1.127-4.084,0.827
						c-1.021-0.198-1.38,0.331-1.106,1.36c0.057,0.217,0.113,0.433,0.205,0.634c0.375,0.827,0.037,1.284-0.776,1.438
						c-0.394,0.074-0.809,0.037-1.215,0.059c-0.868,0.041-1.735,0.104-2.604,0.124c-0.347,0.006-0.695-0.089-1.042-0.138
						c-0.506,0.068-1.451,0.322-1.476,0.646C25.67,31.025,24.671,30.954,23.912,31.275z M39.354-16.28
						c-0.506-0.012-1.013-0.015-1.519-0.039c-1.125-0.052-2.171,0.039-2.434,1.039c-0.736,0.209-1.301,0.232-1.689,0.507
						c-0.968,0.688-1.977,0.949-3.135,0.706c-0.494-0.104-0.998-0.164-1.499-0.226c-2.19-0.268-4.439-0.16-6.527-1.093
						c-0.346-0.154-0.873-0.159-1.218-0.009c-1.118,0.486-2.135,0.152-3.194-0.166c-0.506-0.151-0.937-0.043-1.19,0.594
						c-0.238,0.6-0.706,1.104-1.054,1.665c-0.351,0.563-0.678,1.14-0.965,1.625c1.021,0.124,1.914,0.183,2.786,0.351
						c0.915,0.176,1.805,0.469,2.711,0.691c0.487,0.119,1.021,0.118,1.464,0.32c0.286,0.13,0.643,0.559,0.61,0.808
						c-0.033,0.26-0.462,0.583-0.775,0.667c-0.445,0.122-0.942,0.054-1.417,0.061c-1.293,0.019-1.536,0.359-0.964,1.612
						c-1.077,0.229-2.122,0.45-3.167,0.672c0.012,0.146,0.023,0.293,0.035,0.439c0.689,0.102,1.377,0.203,2.148,0.317
						c0,0.447,0,0.898,0,1.457c1.685-0.36,2.899,0.451,4.072,1.356c1.288,0.993,2.804,1.208,4.359,1.44
						c2.12,0.313,3.654-1.24,5.563-1.571c0.501-0.086,0.44-0.631,0.047-0.863c-0.29-0.17-0.738-0.236-1.063-0.151
						c-0.887,0.23-1.73,0.631-2.62,0.829c-0.349,0.078-0.818-0.139-1.154-0.35c-0.167-0.105-0.301-0.622-0.204-0.729
						c0.246-0.271,0.627-0.421,0.963-0.603c0.074-0.04,0.2,0.021,0.28-0.015c0.242-0.106,0.632-0.201,0.67-0.366
						c0.045-0.204-0.144-0.574-0.34-0.697c-0.529-0.331-1.103-0.603-1.684-0.834c-0.556-0.221-1.21-0.26-1.695-0.572
						c-0.384-0.248-0.892-0.919-0.786-1.172c0.167-0.404,0.825-0.897,1.224-0.855c0.917,0.094,1.833,0.415,2.692,0.781
						c0.869,0.371,1.632,0.992,2.504,1.351c2.478,1.02,4.796,0.662,6.135-1.666c0.424-0.737,0.878-0.901,1.582-0.78
						c0.361,0.062,0.707,0.218,1.068,0.286c0.452,0.087,1.036,0.333,1.35,0.148c1.016-0.594,2.103-0.302,3.139-0.481
						c0.753-0.129,1.462-0.514,2.191-0.785c-0.037-0.125-0.074-0.25-0.112-0.376c-0.667-0.248-1.242,1.307-1.851,0.396
						c0.899-0.657,1.776-1.289,2.643-1.934c0.416-0.309,0.725-0.448,1.037,0.175c0.148,0.294,0.556,0.553,0.895,0.643
						c1.551,0.409,3.082,0.701,4.183,2.136c0.686,0.894,1.877,1.139,3.024,0.978c1-0.141,1.979-0.436,2.979-0.573
						c0.795-0.108,0.556-0.744,0.655-1.171c0.021-0.092-0.479-0.426-0.754-0.449c-0.789-0.063-1.59,0.004-2.383-0.033
						c-1.992-0.094-2.771-1.458-1.842-3.191c0.124-0.231,0.23-0.47,0.379-0.765c-1.794-0.191-3.836,0.603-4.648-1.705
						c-0.336,0-0.616,0-0.912,0c-0.229,0.804-0.461,1.608-0.69,2.416c-0.366,1.292-1.565,0.43-2.271,0.865
						c-0.146,0.089-0.383,0.085-0.562,0.041c-0.357-0.092-0.826-0.136-1.027-0.381c-0.761-0.929-1.617-1.065-2.703-0.663
						c-0.543,0.201-1.42-0.596-1.135-0.886c0.955-0.97,0.83-1.952,0.338-3.032c-0.037-0.081,0.025-0.206,0.055-0.389
						c-0.402,0.033-0.844-0.064-0.996,0.104c-0.592,0.654-1.091,1.392-1.625,2.098L39.354-16.28z M45.273-24.759
						c-0.683,0.318-1.138,0.673-1.625,0.724c-0.732,0.075-1.267,0.238-1.24,1.075c0.027,0.798,0.287,1.363,1.26,1.466
						c0.43,0.046,1.136,0.504,1.158,0.817c0.057,0.757,0.395,1.201,0.908,1.67c0.801,0.733,0.748,1.091-0.121,1.712
						c0.863,0.487,1.798,0.606,2.797,0.184c1.779-0.754,3.553-1.047,5.434-0.354c0.348,0.127,1.086,0.027,1.203-0.199
						c0.753-1.441,1.928-1.86,3.469-1.901c1.078-0.028,2.139-0.46,3.224-0.592c0.899-0.109,1.116-0.349,1.011-1.276
						c-0.035-0.313,0.189-0.687,0.38-0.982c0.132-0.21,0.396-0.336,0.923-0.75c-2.228-0.091-3.218-1.008-2.729-3.094
						c-0.506-0.036-0.91-0.009-1.282-0.109c-0.39-0.107-0.961-0.252-1.071-0.531c-0.277-0.722-0.798-0.668-1.375-0.731
						c-0.742-0.081-1.477-0.269-2.301-0.428c-0.607,0.425-1.409,0.982-2.205,1.546c-0.592,0.42-1.195,0.829-1.757,1.29
						c-0.164,0.136-0.329,0.506-0.259,0.643c0.105,0.203,0.424,0.403,0.656,0.414c0.596,0.026,1.224,0.037,1.795-0.109
						c1.627-0.415,3.135-0.101,4.563,0.666c0.285,0.152,0.633,0.584,0.598,0.835c-0.043,0.281-0.451,0.594-0.769,0.723
						c-0.364,0.151-0.808,0.16-1.213,0.153c-1.283-0.019-2.259,0.415-2.884,1.619c-0.192,0.376-0.643,0.747-1.047,0.868
						c-1.472,0.439-2.983,0.577-4.479,0.106c-0.271-0.086-0.607-0.528-0.605-0.802c0.013-1.422,0.05-1.438-1.339-1.812
						c-0.767-0.205-1.109-0.668-1.078-1.449C45.288-23.827,45.273-24.285,45.273-24.759z M46.268,15.795
						c-1.094,0.328-2.224,0.655-3.348,1.006c-0.391,0.124-0.777,0.276-1.137,0.471c-1.192,0.665-1.395,0.672-2.201-0.409
						c-0.519-0.693-1.144-0.956-1.97-0.86c-0.408,0.045-0.822,0.06-1.231,0.104c-0.748,0.079-1.336-0.142-1.571-0.905
						c-0.247-0.801,0.074-1.392,0.848-1.656c0.714-0.243,1.452-0.443,2.196-0.56c1.594-0.244,3.205-0.388,4.794-0.65
						c0.471-0.079,1.054-0.339,0.844-1.025c-0.211-0.693-0.772-0.456-1.274-0.385c-1.05,0.148-2.105,0.253-3.157,0.39
						c-0.139,0.019-0.267,0.124-0.403,0.18c-0.447,0.187-0.885,0.483-1.347,0.532c-0.875,0.088-1.764,0.015-2.647,0.041
						c-1.917,0.053-2.422,0.583-2.722,1.833c0.204,0.082,0.422,0.139,0.611,0.246c0.299,0.167,0.85,0.437,0.821,0.538
						c-0.104,0.388-0.354,0.762-0.63,1.072c-0.202,0.226-0.559,0.306-0.79,0.513c-0.275,0.251-0.489,0.568-0.855,1.008
						c0.538,0.095,0.808,0.175,1.08,0.185c1.588,0.057,2.793,0.769,3.838,1.964c1.09,1.244,2.293,1.459,3.631,0.484
						c1.54-1.116,3.19-1.374,5.004-1.44c1.101-0.042,2.188-0.455,3.282-0.699c-0.019-0.115-0.031-0.227-0.049-0.344
						c-0.469-0.122-1.089-0.107-1.363-0.409C46.247,16.72,46.318,16.104,46.268,15.795z M36.685-20.348
						c-0.093-0.026-0.293-0.112-0.499-0.134c-1.976-0.204-3.955-0.385-5.931-0.598c-0.874-0.094-1.737-0.291-2.612-0.362
						c-1.115-0.091-2.167,0.135-2.887,1.085c-0.594,0.786-0.159,1.756,0.794,1.799c0.215,0.01,0.487-0.346,0.652-0.292
						c0.764,0.249,1.595,0.457,2.225,0.92c0.993,0.729,1.928,0.661,2.925,0.183C33.132-18.6,34.901-19.476,36.685-20.348z
						 M61.641,24.484c1.108-1.78,1.115-2.172-0.072-3.449c-0.235-0.26-0.793-0.549-0.984-0.439c-0.313,0.176-0.589,0.659-0.62,1.032
						C59.852,22.904,60.591,23.749,61.641,24.484z M15.889,14.384c-0.916,0-1.785-0.02-2.649,0.018
						c-0.16,0.007-0.423,0.24-0.432,0.382c-0.01,0.146,0.21,0.412,0.371,0.446c0.841,0.189,1.696,0.324,2.607,0.486
						C15.826,15.191,15.854,14.829,15.889,14.384z M54.027-31.741c0.304,0.132,0.636,0.373,0.99,0.41
						c0.532,0.055,1.104,0.043,1.609-0.099c0.178-0.05,0.223-0.571,0.327-0.877c-0.315-0.049-0.658-0.198-0.943-0.126
						C55.352-32.265,54.716-31.99,54.027-31.741z M46.88,14.891c0.185,0.611,0.276,1.181,0.536,1.66
						c0.139,0.258,0.656,0.564,0.844,0.483c0.453-0.196,0.387-1.646-0.025-2.173C47.757,14.256,47.314,14.557,46.88,14.891z
						 M7.068,8.438c-0.72-0.16-1.221-0.267-1.855-0.409C5.738,9.292,5.943,9.345,7.068,8.438z"/>
					<path fill="#EADA7F" d="M-0.289,27.652c0.866-0.15,0.934-0.629,0.516-1.289c-0.311-0.484-0.485-0.949-0.04-1.467
						c0.445-0.521,0.908-0.381,1.438-0.168c0.464,0.188,0.959,0.313,1.452,0.408c1.45,0.285,2.266-0.52,2.069-1.98
						c-0.242-1.805-0.704-3.532-1.64-5.112c-0.142-0.24-0.244-0.501-0.386-0.798c1.091-0.39,2.022-0.08,2.782,0.575
						c1.045,0.898,2.012,1.421,3.409,0.623c0.425-0.242,1.243,0.008,1.802,0.232c1.35,0.533,2.513,0.314,3.748-0.401
						c0.645-0.375,1.511-0.373,2.28-0.524c1.393-0.276,2.206-1.177,2.594-2.478c0.064-0.215-0.159-0.732-0.321-0.765
						c-0.935-0.192-1.892-0.281-2.803-0.399c-0.343-1.367-0.27-1.427,1.014-1.519c0.48-0.032,1.042-0.142,1.402-0.425
						c1.008-0.788,2.075-1.037,3.43-0.638c0.094-0.366,0.265-0.713,0.223-1.033c-0.016-0.119-0.533-0.191-0.828-0.249
						c-3.08-0.588-6.178-0.431-9.275-0.199c-1.091,0.082-2.122,0.092-2.535-1.297c1.398-1.482,3.302-0.86,4.983-1.143
						c0.176,0.233,0.345,0.454,0.566,0.747c0.212-0.652,0.505-1.149,0.514-1.653c0.029-1.469,1.564-1.662,2.196-2.641
						c0.22-0.341,1.401-0.091,2.14-0.055c0.613,0.029,1.223,0.139,1.833,0.215c0.261,0.033,0.523,0.068,0.782,0.114
						c0.208,0.036,0.498,0.2,0.605,0.116c0.81-0.619,1.571-0.13,2.35,0.037c0.336,0.07,0.715,0.212,1.014,0.121
						c0.377-0.115,0.691-0.436,1.031-0.668c-0.276-0.378-0.537-0.768-0.835-1.129c-0.176-0.212-0.412-0.375-0.62-0.561
						c0.273-0.167,0.537-0.458,0.821-0.479c0.853-0.062,1.712-0.005,2.569-0.021c0.876-0.016,1.408-0.405,1.777-1.275
						c0.238-0.562,0.854-1.156,1.427-1.342c1.094-0.354,2.015-0.771,2.674-1.785c0.282-0.434,0.87-0.85,1.372-0.928
						c1.434-0.219,2.893-0.285,4.346-0.35c0.269-0.012,0.61,0.204,0.815,0.416c0.343,0.354,0.412,0.785-0.224,0.893
						c-0.681,0.114-1.379,0.106-2.066,0.198c-0.491,0.065-1.065,0.081-1.433,0.35c-0.363,0.266-0.738,0.84-0.708,1.25
						c0.052,0.701,0.642,1.069,1.386,0.975c0.565-0.072,1.122-0.274,1.684-0.278c0.342-0.003,0.687,0.257,1.028,0.399
						c-0.265,0.247-0.493,0.572-0.805,0.718c-0.325,0.153-0.736,0.113-1.101,0.195c-0.457,0.102-1.129,0.097-1.318,0.389
						c-0.77,1.199-1.894,0.913-2.975,0.92c-0.31,0.002-0.679-0.019-0.918,0.133c-0.553,0.351-0.468,0.806,0,1.308
						c0.639-0.914,1.304-0.63,2.252-0.477c1.504,0.241,2.287,1.487,3.6,1.877c0.81,0.242,1.11,0.943,0.947,1.753
						c-0.165,0.809-0.701,1.297-1.556,1.229c-0.985-0.078-1.963-0.256-2.948-0.349c-0.262-0.023-0.538,0.107-0.782,0.373
						c0.284,0,0.569,0,0.863,0c0.281,0.583,0.545,1.132,0.774,1.608c-1.299,0.375-2.493,0.745-3.702,1.052
						c-0.316,0.083-0.759,0.093-1.007-0.07c-1.676-1.104-2.989-0.219-4.336,0.681c-0.774,0.515-1.613,0.938-2.382,1.462
						c-0.329,0.223-0.746,0.575-0.788,0.913c-0.093,0.72-0.005,1.475,0.078,2.207c0.142,1.258,0.984,2.015,2.223,1.992
						c0.877-0.016,1.397,0.217,1.8,1.141c0.241,0.555,1.177,0.879,1.864,1.144c1.024,0.396,1.328,1.28,0.635,2.198
						c-1.121,1.488-3.305,2.093-5.049,1.34c-0.576-0.25-1.181-0.546-1.619-0.979c-2.226-2.196-4.887-2.402-7.77-1.896
						c-1.146,0.203-2.152,0.164-3.375-0.469c-1.167-0.603-2.945-0.876-4.385-0.093c-0.361,0.197-0.576,0.869-0.616,1.342
						c-0.016,0.195,0.579,0.559,0.942,0.645c0.546,0.131,1.139,0.045,1.7,0.131c0.394,0.059,0.768,0.246,1.246,0.408
						c-0.678,1.071-1.654,0.922-2.474,1.1c-0.616,0.137-1.302,0.035-1.872,0.259c-0.495,0.19-1.246,0.705-1.234,1.054
						c0.047,1.428-0.469,2.395-1.884,2.938c0.418,0.299,0.691,0.492,1.002,0.716c-0.317,0.716-0.689,0.927-1.261,0.294
						c-0.127-0.143-0.228-0.35-0.386-0.411c-0.32-0.127-0.672-0.174-1.01-0.255c-0.076,0.368-0.292,0.777-0.195,1.094
						c0.155,0.502,0.521,0.936,0.798,1.396c-1.779,0-3.558,0-5.336,0C-0.289,30.068-0.289,28.861-0.289,27.652z M30.649,3.925
						c-0.969,0.388-1.766,0.707-2.677,1.074C29.238,5.646,30.216,5.295,30.649,3.925z M23.536,17.933
						c-0.262-0.235-0.507-0.641-0.769-0.652c-0.402-0.016-0.843,0.194-1.202,0.411c-0.077,0.048,0.081,0.78,0.208,0.806
						C22.396,18.619,23.094,18.764,23.536,17.933z M14.953,20.367c0.884-0.398,1.426-0.645,1.968-0.891
						c-0.03-0.141-0.061-0.276-0.09-0.418c-0.597,0.051-1.203,0.063-1.78,0.191C14.957,19.275,14.991,19.852,14.953,20.367z"/>
					<path fill="#FFFFFF" d="M46.59-34.853c-0.109,0.581-0.238,1.146,0.641,1.26c0.152,0.021,0.261,0.381,0.427,0.644
						c0.411-0.431,0.86-0.512,1.25,0.254c-0.39,0.181-0.771,0.361-1.155,0.539c0.432,0.653,0.248,1.638-0.58,2.267
						c-0.621,0.47-1.356,0.797-2.067,1.133c-1.111,0.528-2.263,0.97-3.357,1.524c-1.008,0.511-1.911,0.521-2.98,0.063
						c-0.904-0.387-1.963-0.409-2.956-0.584c-0.396-0.07-0.795-0.116-1.227-0.177c0.634-1.293,0.602-1.239-0.552-1.909
						c-0.426-0.249-0.826-0.781-0.952-1.26c-0.289-1.083-1.256-1.796-2.381-1.789c-1.098,0.008-1.939,0.229-2.544,1.254
						c-0.167,0.282-0.919,0.482-1.254,0.348c-0.829-0.33-1.15,0.085-1.508,0.667c-0.561,0.91-1.436,0.914-2.058-0.009
						c-0.141,0.224-0.244,0.453-0.404,0.631c-0.745,0.831-0.688,1.266,0.299,1.836c0.821,0.473,1.646,0.942,2.494,1.367
						c0.658,0.331,1.31,0.343,1.954-0.139c0.279-0.209,0.679-0.255,1.016-0.394c0.16-0.066,0.442-0.211,0.43-0.259
						c-0.058-0.23-0.198-0.44-0.318-0.674c0.537-0.491,0.856-0.3,1.327,0.268c0.578,0.699,1.382,1.211,2.088,1.805
						c0.268,0.224,0.73,0.431,0.753,0.678c0.032,0.338-0.184,0.911-0.447,1.025c-0.94,0.408-1.934,0.877-2.929,0.934
						c-2.018,0.115-3.965-0.434-5.803-1.265c-2.2-0.997-4.432-1.487-6.833-0.832c-0.477,0.131-1.013,0.092-1.516,0.054
						c-0.321-0.023-0.63-0.188-0.945-0.29c0.113-0.295,0.228-0.591,0.344-0.894c-0.778-0.189-1.62-0.421-2.474-0.597
						c-1.277-0.263-2.312,0.292-2.675,1.394c-0.236,0.711,0.078,1.222,0.832,1.195c0.687-0.024,1.372-0.275,2.052-0.252
						c0.418,0.014,1.061,0.258,1.188,0.568c0.262,0.635-0.126,1.255-0.822,1.323c-0.701,0.068-1.426-0.123-2.142-0.185
						c-0.749-0.063-1.503-0.176-2.246-0.125c-0.287,0.021-0.742,0.411-0.771,0.671c-0.035,0.327,0.2,0.862,0.475,1.006
						c0.593,0.313,1.3,0.398,1.934,0.646c0.336,0.13,0.865,0.381,0.883,0.612c0.145,1.772,1.337,2.704,2.664,3.558
						c0.208,0.135,0.406,0.285,0.637,0.448c-0.146,0.345-0.275,0.655-0.5,1.19c0.338-0.373,0.516-0.569,0.775-0.856
						c0.414,1.815-1.839,2.498-1.419,4.179c-0.084,0.042-0.167,0.084-0.251,0.126c-0.858-0.613-1.784-1.15-2.552-1.861
						c-0.656-0.609-1.204-0.791-1.883-0.166c-0.523,0.482-1.004,0.456-1.689,0.229c-0.831-0.276-1.769-0.236-2.663-0.313
						c-0.279-0.022-0.646,0.148-0.834,0.021c-1.161-0.775-2.19-0.389-3.216,0.259c0.245-0.458,0.489-0.917,0.794-1.488
						C0.63-15.3,0.17-15.456-0.289-15.61c0-0.636,0-1.271,0-1.906c1.02-0.017,2.089,0.059,2.375-1.339
						c0.372,0.166,0.684,0.413,1.002,0.42c0.399,0.01,0.803-0.175,1.205-0.276c-0.122-0.397-0.128-1.004-0.388-1.146
						c-0.483-0.262-1.111-0.28-1.684-0.346c-0.365-0.042-0.739,0.016-1.109,0.021c-1.036,0.014-0.938-1.014-1.399-1.527
						c0-0.19,0-0.382,0-0.572c1.019,0.421,2.038,0.84,3.063,1.264c0.009-0.051-0.007-0.2,0.06-0.276
						c0.928-1.053,0.887-1.004-0.264-1.916c-0.54-0.428-0.88-1.108-1.397-1.79c1.067-0.228,1.83-0.389,2.59-0.551
						c-0.022-0.111-0.046-0.222-0.069-0.334c-0.823,0.059-1.646,0.117-2.468,0.175c-0.35-1.056-0.699-2.112-1.07-3.228
						c0.903,0,1.909,0.61,2.593-0.463c-0.321-0.402-0.785-0.74-0.902-1.173c-0.392-1.452-0.721-1.789-2.136-1.808
						c0-0.825,0-1.652,0-2.478c1.27,0,2.541,0,3.811,0c0.508,0.521,1.016,1.042,1.523,1.563c0.078-0.066,0.155-0.133,0.234-0.199
						c0.03-0.261,0.062-0.522,0.094-0.804c1.272,0.56,2.481,0.924,3.68,0c0.26,0.309,0.473,0.697,0.8,0.893
						c0.168,0.101,0.541-0.144,0.823-0.231c-0.009-0.106-0.018-0.213-0.027-0.319c-0.539-0.107-1.079-0.214-1.618-0.32
						c0.499-0.024,1.149-0.259,1.469-0.031c0.839,0.6,1.602,0.935,2.66,0.283c-0.154,0.474-0.349,0.911-0.646,0.997
						c-0.595,0.172-1.245,0.138-1.87,0.215c-0.49,0.06-0.976,0.16-1.463,0.242c0.021,0.094,0.044,0.188,0.066,0.281
						c1.757,0.277,3.468,0.332,4.779-1.254c0.746,1.263,1.767,1.687,3.032,1.647c-0.011,0.78,0.471,0.586,0.934,0.511
						c0.744-0.121,1.638-0.663,2.072,0.639c0.03-0.389-0.009-0.778-0.212-0.908c-0.977-0.621-0.618-1.967-1.479-2.642
						c-0.049-0.038,0.129-0.367,0.202-0.56c1.334,0,2.668,0,4.002,0c0.258,0.668,0.447,1.379,0.81,1.987
						c0.152,0.256,0.672,0.293,1.024,0.429c0.006-0.373,0.083-0.76,0.003-1.113c-0.102-0.449-0.329-0.87-0.503-1.303
						c1.081,0,2.161,0,3.24,0c0.632,0.967,1.083,0.967,1.715,0c3.621,0,7.242,0,10.863,0c0.083,0.833-0.526,0.895-1.098,0.954
						c-0.88,0.09-1.768,0.117-2.647,0.218c-0.798,0.093-1.449,0.863-1.316,1.585c0.136,0.748,0.485,1.23,1.419,1.069
						c0.982-0.171,1.843,0.215,2.628,0.838c1.161,0.923,1.921,0.934,3.046-0.03c0.871-0.746,1.773-1.007,2.89-0.718
						c0.951,0.245,1.762,0.009,2.186-0.92c-1.491-1.444-3.294-1.737-5.268-1.445c-0.234,0.035-0.506-0.161-0.76-0.25
						c0.568-0.296,1.106-0.333,1.614-0.479c0.829-0.237,1.637-0.545,2.454-0.824C45.445-34.853,46.018-34.853,46.59-34.853z
						 M20.566-28.768c-1.775,0.048-3.104,0.877-4.44,1.688C17.668-27.309,19.412-26.953,20.566-28.768z M13.133-31.733
						c0.033,0.108,0.067,0.215,0.101,0.323c0.631,0.195,1.208,0.264,1.403-0.805C14.077-32.035,13.605-31.885,13.133-31.733z
						 M7.391-20.386c0.051-0.144,0.103-0.287,0.154-0.43c-0.4-0.159-0.8-0.316-1.2-0.475c-0.048,0.112-0.097,0.225-0.146,0.338
						C6.597-20.764,6.993-20.575,7.391-20.386z M10.638-19.986c0.001-0.077,0.002-0.153,0.003-0.228c-0.511,0-1.022,0-1.532,0
						c0.003,0.103,0.007,0.204,0.01,0.306C9.626-19.935,10.132-19.96,10.638-19.986z"/>
					<path fill="#EADA7F" d="M65.836,2.69c-0.083,0.358-0.202,0.715-0.25,1.08c-0.129,0.99-0.343,1.856-1.527,2.139
						c-0.211,0.051-0.427,0.696-0.399,1.052c0.097,1.368-0.265,1.943-1.599,2.193c-0.523,0.1-1.094,0.021-1.604,0.164
						c-0.49,0.137-1.027,0.356-1.37,0.707c-0.651,0.669-2.466,1.031-3.325,0.642c-0.609-0.279-1.307-0.561-1.945-0.524
						c-1.856,0.112-3.396-0.461-4.779-1.676c-0.906-0.796-1.898-1.51-3.233-1.402c-0.056-0.079-0.109-0.16-0.169-0.24
						c0.819-0.697,1.641-1.394,2.547-2.166c-1.178-0.764-2.269-1.427-3.65-1.379c-0.439,0.016-0.92,0.055-1.314-0.093
						c-0.325-0.123-0.549-0.508-0.818-0.777c0.315-0.154,0.642-0.457,0.942-0.434c0.863,0.065,1.562-0.141,2.106-0.82
						c0.215,0.972,0.418,1.069,1.559,0.604c-0.6-0.22-1.091-0.401-1.582-0.582c0.514-0.625,0.598-1.091-0.132-1.746
						c-0.543-0.488-0.839-1.333-1.039-2.076c-0.07-0.259,0.413-0.792,0.764-1.004c0.416-0.251,0.957-0.321,1.453-0.414
						c0.747-0.14,0.979-0.487,0.5-1.192c0.603-0.229,1.004-0.229,0.896,0.527c-0.07,0.508,0.019,0.718,0.6,0.601
						c0.338-0.067,0.764-0.06,1.059,0.093c1.146,0.597,2.242,1.293,3.394,1.888c0.331,0.171,0.774,0.124,1.247-0.011
						c-1.184,0.105-1.495-0.813-2.089-1.477c-0.571-0.64-1.431-1.021-2.152-1.526c-0.42-0.292-0.823-0.606-1.233-0.91
						c0.063-0.133,0.129-0.266,0.193-0.399c0.932,0.33,1.858,0.655,2.784,0.991c0.179,0.064,0.341,0.239,0.511,0.24
						c0.385,0.002,0.963,0.064,1.108-0.146c0.229-0.325,0.164-0.856,0.229-1.337c0.584,0.396,1.264,0.904,1.983,1.339
						c0.729,0.439,1.505,0.808,2.287,1.222c0.5-1.311,0.596-1.323,1.671-0.861c0.407,0.175,0.885,0.208,1.334,0.255
						c0.771,0.083,1.55,0.127,2.518,0.202c-0.453,0.835-0.805,1.486-1.16,2.146c-1.088-0.565-2.15-0.647-3.197-0.09
						c-0.221,0.117-0.313,0.473-0.471,0.718c0.248,0.152,0.481,0.39,0.75,0.441c1.096,0.208,2.215,0.312,3.301,0.553
						c0.539,0.119,1.016,0.487,1.545,0.68c0.576,0.211,1.18,0.351,1.77,0.521C65.836,1.165,65.836,1.927,65.836,2.69z M46.684,0.582
						c0.903,0.402,1.248,0.294,1.317-0.402c0.058-0.568,0.118-1.137,0.206-1.982c-0.291,0.567-0.446,0.945-0.667,1.281
						C47.285-0.134,46.973,0.215,46.684,0.582z M58.555,2.858c0.822-0.374,0.971-0.926,0.646-1.771
						c-0.274-0.715-0.474-0.828-1.267-0.575C59.008,1.019,59.021,1.814,58.555,2.858z M59.206-1.144
						c-0.138,0.13-0.274,0.261-0.411,0.392c0.293,0.287,0.582,0.575,0.872,0.862c0.12-0.123,0.354-0.338,0.342-0.354
						C59.76-0.558,59.48-0.848,59.206-1.144z M61.109,3.831c-0.625-0.882-1.086-0.963-1.729-0.358
						C59.936,3.588,60.467,3.697,61.109,3.831z"/>
					<path fill="#FFFFFF" d="M23.912,31.275c0.759-0.321,1.758-0.25,1.855-1.533c0.024-0.322,0.97-0.575,1.476-0.646
						c0.347,0.049,0.696,0.146,1.042,0.137c0.868-0.02,1.735-0.082,2.604-0.123c0.406-0.021,0.821,0.021,1.215-0.059
						c0.813-0.154,1.151-0.611,0.776-1.438c-0.091-0.201-0.147-0.418-0.205-0.635c-0.274-1.028,0.085-1.562,1.106-1.359
						c1.512,0.3,2.81-0.118,4.084-0.827c0.212-0.119,0.453-0.188,1.018-0.41c-0.184,0.738-0.298,1.237-0.433,1.733
						c-0.139,0.503-0.343,0.994-0.435,1.509c-0.112,0.612,0.065,1.054,0.83,1.041c0.675-0.007,1.158-0.222,1.085-0.972
						c-0.09-0.946,0.434-1.19,1.227-1.312c0.742-0.11,1.471-0.329,2.328-0.526c-0.267-0.385-0.441-0.645-0.617-0.896
						c-0.545-0.796-0.358-1.447,0.559-1.729c0.536-0.158,1.109-0.231,1.671-0.262c0.823-0.044,1.65-0.021,2.476-0.01
						c1.877,0.027,2.636-0.488,3.344-2.314c0.473-1.215,0.458-1.188,1.564-0.631c0.324,0.164,0.75,0.137,1.377,0.233
						c-0.271-0.604-0.432-0.953-0.607-1.345c0.618-0.266,1.342-0.573,1.678,0.125c0.188,0.387-0.226,1.06-0.35,1.539
						c0.505,0.416,1.111,0.981,1.794,1.438c0.347,0.229,0.825,0.265,1.252,0.368c0.567,0.145,1.142,0.271,1.705,0.406
						c-0.369,1.912-1.483,2.488-3.565,2.076c-0.953-0.188-1.938-0.264-2.908-0.313c-0.561-0.027-1.082,0.156-1.166,0.854
						c-0.058,0.459-0.022,0.793,0.604,0.811c0.493,0.014,0.997,0.168,1.466,0.338c0.272,0.102,0.684,0.354,0.69,0.553
						c0.058,1.303,0.897,1.461,2.207,1.344c-1.228,0.939-2.246,1.574-3.572,1.607c-1.448,0.039-2.912,0.032-4.34,0.239
						c-0.688,0.101-1.313,0.646-1.963,0.985c-0.571,0-1.144,0-1.715,0c0.4-1.004,0.283-1.291-0.715-1.713
						c-0.804-0.342-1.609-0.677-2.412-1.013c0.293-0.104,0.582-0.213,0.873-0.319c-0.201-0.248-0.404-0.498-0.604-0.746
						c-0.082,0.045-0.162,0.096-0.242,0.141c0,0.316,0,0.634,0,0.947c-0.185-0.01-0.392-0.08-0.547-0.021
						c-0.486,0.196-1.086,0.332-1.381,0.702c-0.224,0.286-0.087,0.89-0.042,1.345c0.024,0.232,0.198,0.451,0.306,0.68
						C34.839,31.275,29.375,31.275,23.912,31.275z"/>
					<path fill="#EADA7F" d="M-0.289-2.837c0.456,0.129,1.006,0.14,1.349,0.412C1.832-1.811,2.275-2.06,2.704-2.792
						c0.14-0.238,0.397-0.405,0.593-0.612c1.057-1.112,1.272-1.145,2.601-0.392c1.033,0.584,1.259,0.523,1.786-0.585
						c0.462,1.009,1.215,1.369,2.25,1.209c0.21-0.033,0.52,0.119,0.678,0.285c0.844,0.893,1.63,1.843,2.488,2.722
						c0.494,0.507,1.054,0.966,1.643,1.358c0.541,0.36,1.209,0.562,1.203,1.502c-0.288-0.045-0.519-0.077-0.749-0.118
						c-0.343-0.062-0.691-0.217-1.023-0.186c-1.196,0.112-2.408,0.194-3.575,0.461c-1.188,0.27-2.33,0.742-3.56,1.15
						C7.297,4.438,7.481,4.748,7.665,5.06C5.581,3.661,3.994,4.699,2.519,6.157C1.984,5.266,1.516,4.484,0.948,3.54
						c1.351-0.861,2.65-1.681,3.941-2.516C5.586,0.574,6.28,0.578,6.91,1.087c0.484,0.392,0.896,0.261,1.089-0.183
						c0.202-0.468,0.342-1.08-0.395-1.343C7.486-0.481,7.33-0.469,7.242-0.541C5.896-1.657,4.508-2.222,2.952-0.92
						c-1.08-0.322-2.161-0.643-3.241-0.964C-0.289-2.202-0.289-2.519-0.289-2.837z"/>
					<path fill="#EADA7F" d="M-0.289,6.31c1.017-0.07,1.586,0.306,2.04,1.328C2.29,8.856,3.314,9.745,4.998,9.246
						c-0.099,0.397-0.16,0.592-0.194,0.792c-0.144,0.853,0.154,1.17,0.977,0.914c1.205-0.372,2.199-0.257,3.026,0.819
						c0.444,0.579,1.094,0.764,1.876,0.593c0.521-0.113,1.271-0.428,1.483,0.475c0.138,0.594-0.584,1.29-1.405,1.194
						c-1.08-0.125-2.179-0.346-3.19-0.736c-1.257-0.483-2.395-0.677-3.601,0.118c-0.75,0.495-1.496,0.369-2.105-0.363
						c-0.423-0.511-0.858-1.017-1.35-1.455c-0.173-0.155-0.53-0.101-0.804-0.141C-0.289,9.74-0.289,8.024-0.289,6.31z"/>
					<path d="M44.876-34.853c-0.817,0.278-1.625,0.586-2.454,0.824c-0.507,0.146-1.045,0.182-1.614,0.479
						c0.254,0.088,0.525,0.284,0.76,0.25c1.974-0.292,3.776,0.001,5.268,1.445c-0.424,0.93-1.234,1.166-2.186,0.92
						c-1.115-0.29-2.019-0.028-2.89,0.718c-1.125,0.964-1.885,0.953-3.046,0.03c-0.785-0.623-1.646-1.009-2.628-0.838
						c-0.934,0.161-1.283-0.321-1.419-1.069c-0.133-0.723,0.518-1.493,1.316-1.585c0.879-0.102,1.767-0.128,2.647-0.218
						c0.572-0.06,1.182-0.121,1.098-0.954C41.445-34.853,43.158-34.853,44.876-34.853z"/>
					<path d="M9.053-34.293c-1.198,0.924-2.407,0.561-3.68,0c-0.033,0.281-0.064,0.542-0.094,0.804
						C5.2-33.423,5.123-33.356,5.045-33.29c-0.508-0.52-1.016-1.042-1.523-1.563c5.019,0,10.037,0,15.055,0
						c-0.072,0.193-0.251,0.522-0.202,0.56c0.861,0.674,0.502,2.021,1.479,2.642c0.203,0.129,0.242,0.519,0.212,0.908
						c-0.434-1.301-1.328-0.759-2.072-0.639c-0.463,0.075-0.944,0.27-0.934-0.511c-1.266,0.04-2.287-0.384-3.032-1.647
						c-1.312,1.586-3.022,1.531-4.779,1.254c-0.022-0.094-0.045-0.188-0.066-0.281c0.488-0.082,0.973-0.182,1.463-0.242
						c0.625-0.077,1.275-0.043,1.87-0.215c0.296-0.086,0.491-0.523,0.645-0.997c-1.059,0.652-1.821,0.317-2.66-0.283
						c-0.319-0.229-0.97,0.007-1.469,0.031L9.053-34.293z"/>
					<path fill="#FFFFFF" d="M62.218,31.275c0.08-0.815-0.183-1.607,0.22-2.465c0.328-0.705-0.323-1.276-1.057-1.516
						c-0.354-0.115-0.727-0.164-1.169-0.254c0.065-0.186,0.091-0.495,0.214-0.54c0.928-0.334,1.862-0.688,2.828-0.86
						c0.23-0.045,0.615,0.522,0.868,0.854c0.446,0.59,0.712,1.407,1.714,1.153c0,1.078,0.014,2.16-0.016,3.238
						c-0.004,0.133-0.236,0.256-0.365,0.383c0.105-0.932-0.594-1.039-1.207-1.043c-0.719-0.006-1.592-0.072-1.648,1.043
						C62.473,31.275,62.344,31.275,62.218,31.275z"/>
					<path fill="#FFFFFF" d="M65.836,11.265c-0.352,0.099-0.695,0.258-1.055,0.281c-1.078,0.07-1.42,0.425-1.309,1.493
						c0.023,0.246,0.227,0.518,0.161,0.724c-0.123,0.395-0.336,0.781-0.602,1.095c-0.067,0.083-0.603-0.036-0.687-0.191
						c-0.221-0.4-0.365-0.862-0.418-1.314c-0.021-0.187,0.229-0.453,0.422-0.603c0.976-0.764,1.265-1.843,1.449-2.983
						c0.087-0.529,0.215-1.051,0.326-1.577c0.197-0.936,0.77-1.499,1.705-1.688C65.836,8.088,65.836,9.676,65.836,11.265z"/>
					<path d="M41.936,28.551c0.805,0.336,1.612,0.67,2.416,1.012c1,0.422,1.116,0.709,0.715,1.713c-1.588,0-3.178,0-4.766,0
						c-0.107-0.227-0.281-0.442-0.306-0.678c-0.045-0.457-0.182-1.059,0.042-1.345c0.295-0.37,0.896-0.506,1.381-0.702
						c0.154-0.061,0.363,0.012,0.547,0.021L41.936,28.551z"/>
					<path d="M-0.289-32.375c1.415,0.019,1.744,0.356,2.136,1.808c0.117,0.433,0.581,0.771,0.902,1.173
						c-0.685,1.073-1.69,0.463-2.593,0.463c0.371,1.116,0.72,2.171,1.07,3.228l0.027-0.019c-0.514,0.069-1.027,0.139-1.541,0.208
						C-0.289-27.802-0.289-30.089-0.289-32.375z"/>
					<path d="M1.225-25.704c0.822-0.058,1.645-0.116,2.468-0.175c0.023,0.112,0.047,0.223,0.069,0.334
						c-0.76,0.162-1.522,0.323-2.59,0.551c0.517,0.682,0.857,1.362,1.397,1.79c1.151,0.912,1.191,0.863,0.264,1.916
						c-0.067,0.076-0.051,0.225-0.06,0.276c-1.025-0.423-2.044-0.843-3.063-1.264c0-0.699,0-1.397,0-2.095
						c0.725-0.211,1.388-0.491,1.541-1.352L1.225-25.704z"/>
					<path fill="#FFFFFF" d="M65.836-13.7c-1.146,0.104-2.293,0.223-3.441,0.3c-0.308,0.02-0.653-0.019-0.916-0.157
						c-0.271-0.146-0.629-0.432-0.646-0.679c-0.02-0.238,0.309-0.662,0.557-0.731c0.901-0.25,1.829-0.413,2.758-0.551
						c0.557-0.083,1.131-0.062,1.692-0.086C65.836-14.97,65.836-14.335,65.836-13.7z"/>
					<path d="M-0.289-21.703c0.462,0.513,0.363,1.541,1.399,1.527c0.37-0.005,0.745-0.064,1.109-0.021
						c0.573,0.066,1.201,0.084,1.684,0.346c0.26,0.142,0.267,0.749,0.388,1.146c-0.401,0.101-0.806,0.286-1.205,0.276
						c-0.318-0.008-0.63-0.254-1.002-0.42c-0.285,1.398-1.355,1.323-2.375,1.339C-0.289-18.908-0.289-20.306-0.289-21.703z"/>
					<path d="M23.912-34.853c0.174,0.433,0.402,0.854,0.503,1.303c0.08,0.353,0.003,0.74-0.003,1.113
						c-0.352-0.136-0.872-0.173-1.024-0.429c-0.363-0.607-0.552-1.318-0.81-1.987C23.024-34.853,23.468-34.853,23.912-34.853z"/>
					<path d="M62.6,31.275c0.058-1.117,0.93-1.049,1.648-1.043c0.613,0.002,1.313,0.108,1.207,1.043
						C64.505,31.275,63.551,31.275,62.6,31.275z"/>
					<path fill="#FFFFFF" d="M65.836-20.75c-0.204-0.066-0.428-0.104-0.615-0.206c-0.279-0.151-0.535-0.348-0.803-0.525
						c0.322-0.239,0.632-0.495,0.971-0.711c0.117-0.077,0.299-0.059,0.447-0.083C65.836-21.767,65.836-21.259,65.836-20.75z"/>
					<path d="M-0.289-15.604c0.459,0.154,0.919,0.31,1.23,0.415c-0.305,0.572-0.55,1.03-0.794,1.488
						c-0.146,0-0.291,0.001-0.436,0.001C-0.289-14.335-0.289-14.97-0.289-15.604z"/>
					<path fill="#FFFFFF" d="M1.252-25.723c-0.153,0.861-0.816,1.141-1.541,1.352c0-0.382,0-0.763,0-1.145
						C0.224-25.584,0.738-25.653,1.252-25.723z"/>
					<path fill="#FFFFFF" d="M-0.289,0.403c0.266,0.058,0.531,0.116,0.783,0.171c0.271,0.86-0.335,1.26-0.783,1.734
						C-0.289,1.672-0.289,1.038-0.289,0.403z"/>
					<path fill="#FFFFFF" d="M18.767,31.275c0.225-0.264,0.449-0.522,0.541-0.629c1.156,0.232,2.118,0.434,3.081,0.629
						C21.181,31.275,19.975,31.275,18.767,31.275z"/>
					<path d="M28.867-34.853c-0.632,0.967-1.083,0.967-1.715,0C27.724-34.853,28.296-34.853,28.867-34.853z"/>
					<path fill="#EADA7F" d="M39.335-16.28c0.535-0.707,1.034-1.444,1.625-2.098c0.151-0.167,0.594-0.071,0.996-0.104
						c-0.029,0.183-0.091,0.309-0.054,0.389c0.49,1.08,0.615,2.062-0.34,3.032c-0.285,0.29,0.594,1.086,1.137,0.886
						c1.084-0.402,1.941-0.266,2.701,0.663c0.201,0.245,0.67,0.289,1.028,0.381c0.177,0.044,0.415,0.048,0.56-0.041
						c0.705-0.436,1.904,0.427,2.271-0.865c0.229-0.807,0.462-1.612,0.689-2.416c0.297,0,0.575,0,0.911,0
						c0.814,2.307,2.856,1.513,4.65,1.705c-0.146,0.295-0.255,0.534-0.379,0.765c-0.93,1.733-0.152,3.097,1.842,3.191
						c0.793,0.038,1.592-0.03,2.381,0.033c0.274,0.021,0.774,0.356,0.754,0.449c-0.101,0.427,0.142,1.063-0.653,1.171
						c-1,0.137-1.979,0.432-2.979,0.573c-1.147,0.161-2.343-0.084-3.024-0.978c-1.103-1.435-2.632-1.727-4.183-2.136
						c-0.34-0.089-0.744-0.348-0.896-0.642c-0.313-0.624-0.621-0.484-1.037-0.175c-0.866,0.645-1.743,1.277-2.644,1.934
						c0.609,0.91,1.185-0.644,1.852-0.396c0.038,0.125,0.075,0.251,0.111,0.376c-0.729,0.271-1.438,0.656-2.19,0.785
						c-1.036,0.179-2.123-0.112-3.138,0.481c-0.315,0.184-0.899-0.062-1.351-0.148c-0.361-0.068-0.707-0.225-1.068-0.286
						c-0.704-0.121-1.158,0.043-1.582,0.78c-1.339,2.328-3.657,2.686-6.135,1.666c-0.873-0.358-1.636-0.979-2.504-1.35
						c-0.859-0.366-1.775-0.687-2.692-0.781c-0.399-0.042-1.057,0.451-1.224,0.855c-0.105,0.253,0.402,0.924,0.786,1.172
						c0.485,0.313,1.139,0.351,1.695,0.572c0.581,0.231,1.155,0.503,1.684,0.834c0.196,0.123,0.385,0.494,0.34,0.697
						c-0.038,0.165-0.428,0.26-0.67,0.366c-0.08,0.036-0.206-0.025-0.28,0.015c-0.336,0.181-0.717,0.332-0.963,0.603
						c-0.097,0.107,0.036,0.624,0.204,0.729c0.336,0.211,0.805,0.428,1.154,0.35c0.89-0.198,1.733-0.599,2.62-0.829
						c0.325-0.085,0.773-0.019,1.063,0.151c0.393,0.232,0.454,0.776-0.047,0.863c-1.909,0.331-3.443,1.885-5.563,1.571
						c-1.555-0.231-3.071-0.447-4.359-1.44c-1.173-0.905-2.387-1.716-4.072-1.356c0-0.559,0-1.01,0-1.457
						c-0.771-0.114-1.459-0.215-2.148-0.317c-0.012-0.146-0.023-0.293-0.035-0.439c1.044-0.222,2.089-0.443,3.167-0.672
						c-0.572-1.252-0.33-1.594,0.964-1.612c0.475-0.006,0.972,0.063,1.417-0.061c0.313-0.084,0.742-0.407,0.775-0.667
						c0.032-0.25-0.324-0.678-0.61-0.808c-0.442-0.203-0.977-0.202-1.464-0.32c-0.906-0.222-1.796-0.515-2.711-0.691
						c-0.872-0.168-1.764-0.228-2.786-0.351c0.287-0.484,0.614-1.063,0.965-1.625c0.348-0.559,0.815-1.065,1.054-1.665
						c0.253-0.637,0.684-0.745,1.19-0.594c1.059,0.318,2.077,0.652,3.194,0.166c0.345-0.15,0.873-0.145,1.218,0.009
						c2.088,0.933,4.337,0.825,6.527,1.093c0.501,0.062,1.005,0.122,1.499,0.226c1.158,0.243,2.167-0.018,3.135-0.706
						c0.388-0.275,0.953-0.298,1.689-0.507c0.262-1,1.308-1.091,2.434-1.039c0.506,0.024,1.012,0.026,1.514,0.04
						c-0.861,0.463-0.238,0.958,0.042,1.438c-0.378,0.23-0.696,0.422-1.147,0.695c0.935,0.033,1.694-0.134,1.874-0.873
						C40.199-15.355,39.616-15.854,39.335-16.28z M40.495-12.553c-0.085,0.11-0.17,0.221-0.254,0.332
						c0.428,0.322,0.856,0.645,1.285,0.967c0.09-0.122,0.18-0.245,0.27-0.368C41.361-11.932,40.929-12.243,40.495-12.553z
						 M37.639-13.163c-0.081,0.047-0.161,0.095-0.242,0.142c0.171,0.279,0.298,0.606,0.532,0.813c0.094,0.082,0.422-0.104,0.761-0.2
						C38.228-12.74,37.934-12.951,37.639-13.163z"/>
					<path fill="#FFFFFF" d="M45.273-24.759c0,0.474,0.017,0.932-0.004,1.389c-0.031,0.781,0.313,1.244,1.078,1.449
						c1.389,0.374,1.352,0.389,1.34,1.812c-0.002,0.274,0.338,0.716,0.605,0.802c1.492,0.471,3.007,0.333,4.479-0.106
						c0.404-0.122,0.854-0.492,1.047-0.868c0.625-1.204,1.601-1.638,2.884-1.619c0.405,0.006,0.849-0.002,1.213-0.153
						c0.315-0.129,0.726-0.442,0.767-0.723c0.036-0.251-0.311-0.683-0.596-0.835c-1.43-0.767-2.938-1.081-4.563-0.666
						c-0.572,0.146-1.199,0.136-1.795,0.109c-0.233-0.01-0.552-0.21-0.656-0.414c-0.071-0.137,0.094-0.506,0.258-0.643
						c0.561-0.461,1.165-0.869,1.757-1.29c0.796-0.564,1.597-1.121,2.205-1.546c0.825,0.159,1.558,0.347,2.301,0.428
						c0.577,0.063,1.097,0.009,1.375,0.731c0.11,0.279,0.683,0.424,1.071,0.531c0.371,0.101,0.777,0.073,1.283,0.109
						c-0.489,2.086,0.502,3.003,2.729,3.094c-0.523,0.414-0.791,0.541-0.923,0.75c-0.188,0.295-0.415,0.67-0.38,0.982
						c0.107,0.927-0.109,1.167-1.01,1.276c-1.084,0.132-2.146,0.563-3.223,0.592c-1.541,0.041-2.718,0.46-3.471,1.901
						c-0.118,0.226-0.854,0.326-1.203,0.199c-1.881-0.693-3.65-0.4-5.435,0.354c-0.998,0.423-1.934,0.304-2.797-0.184
						c0.869-0.621,0.922-0.979,0.121-1.712c-0.513-0.469-0.851-0.913-0.908-1.67c-0.021-0.313-0.728-0.771-1.157-0.817
						c-0.974-0.103-1.233-0.668-1.259-1.466c-0.027-0.837,0.507-1,1.24-1.075C44.135-24.085,44.59-24.441,45.273-24.759z"/>
					<path fill="#EADA7F" d="M46.268,15.795c0.053,0.308-0.021,0.924,0.253,1.223c0.276,0.301,0.896,0.287,1.365,0.409
						c0.016,0.117,0.03,0.229,0.047,0.344c-1.094,0.244-2.181,0.657-3.281,0.699c-1.813,0.066-3.463,0.324-5.003,1.44
						c-1.338,0.974-2.541,0.76-3.631-0.485c-1.045-1.194-2.25-1.906-3.838-1.963c-0.272-0.01-0.542-0.09-1.08-0.185
						c0.367-0.44,0.58-0.757,0.855-1.008c0.231-0.207,0.588-0.287,0.79-0.513c0.275-0.311,0.525-0.684,0.63-1.072
						c0.028-0.101-0.522-0.371-0.821-0.538c-0.189-0.107-0.407-0.165-0.612-0.246c0.301-1.25,0.807-1.781,2.723-1.833
						c0.883-0.025,1.772,0.047,2.647-0.041c0.462-0.048,0.9-0.345,1.347-0.532c0.136-0.056,0.264-0.161,0.403-0.18
						c1.051-0.137,2.106-0.242,3.157-0.39c0.502-0.071,1.064-0.308,1.274,0.385c0.21,0.686-0.374,0.946-0.843,1.025
						c-1.59,0.262-3.203,0.406-4.795,0.65c-0.744,0.117-1.482,0.317-2.196,0.56c-0.774,0.264-1.095,0.855-0.848,1.656
						c0.235,0.763,0.823,0.984,1.571,0.905c0.409-0.043,0.823-0.059,1.231-0.104c0.827-0.095,1.451,0.167,1.97,0.86
						c0.808,1.081,1.009,1.074,2.202,0.409c0.357-0.195,0.746-0.347,1.136-0.471C44.044,16.45,45.174,16.123,46.268,15.795z"/>
					<path fill="#FFFFFF" d="M36.685-20.348c-1.783,0.872-3.552,1.748-5.333,2.601c-0.998,0.479-1.932,0.546-2.925-0.183
						c-0.63-0.463-1.461-0.671-2.225-0.92c-0.166-0.054-0.438,0.302-0.652,0.292c-0.953-0.043-1.388-1.013-0.794-1.799
						c0.721-0.95,1.772-1.176,2.887-1.085c0.875,0.071,1.738,0.268,2.612,0.362c1.976,0.213,3.955,0.394,5.931,0.598
						C36.392-20.46,36.592-20.374,36.685-20.348z"/>
					<path fill="#FFFFFF" d="M61.641,24.484c-1.05-0.735-1.789-1.58-1.68-2.856c0.031-0.373,0.309-0.856,0.62-1.032
						c0.192-0.107,0.749,0.182,0.987,0.439C62.756,22.313,62.749,22.704,61.641,24.484z"/>
					<path fill="#EADA7F" d="M15.889,14.384c-0.035,0.445-0.063,0.808-0.104,1.332c-0.911-0.162-1.766-0.296-2.607-0.486
						c-0.16-0.034-0.38-0.301-0.371-0.446c0.009-0.142,0.272-0.375,0.432-0.382C14.104,14.364,14.973,14.384,15.889,14.384z"/>
					<path fill="#FFFFFF" d="M54.027-31.741c0.688-0.249,1.324-0.523,1.983-0.692c0.285-0.072,0.628,0.077,0.943,0.126
						c-0.104,0.306-0.149,0.827-0.327,0.877c-0.509,0.142-1.077,0.154-1.609,0.099C54.663-31.369,54.331-31.609,54.027-31.741z"/>
					<path fill="#909B4E" d="M46.88,14.891c0.435-0.333,0.877-0.634,1.354-0.03c0.412,0.527,0.479,1.977,0.023,2.173
						c-0.188,0.082-0.706-0.225-0.844-0.483C47.156,16.071,47.064,15.502,46.88,14.891z"/>
					<path fill="#EADA7F" d="M7.068,8.438C5.943,9.345,5.738,9.292,5.213,8.03C5.847,8.171,6.348,8.278,7.068,8.438z"/>
					<path fill="#052B00" d="M30.649,3.925c-0.433,1.37-1.411,1.722-2.677,1.074C28.883,4.632,29.68,4.313,30.649,3.925z"/>
					<path fill="#052B00" d="M23.536,17.933c-0.442,0.831-1.141,0.687-1.763,0.565c-0.126-0.025-0.284-0.757-0.208-0.806
						c0.359-0.217,0.8-0.427,1.202-0.411C23.029,17.292,23.274,17.697,23.536,17.933z"/>
					<path fill="#052B00" d="M14.953,20.367c0.039-0.516,0.004-1.092,0.098-1.114c0.578-0.132,1.184-0.144,1.78-0.194
						c0.03,0.145,0.06,0.28,0.09,0.42C16.379,19.723,15.837,19.969,14.953,20.367z"/>
					<path d="M20.566-28.768c-1.153,1.815-2.897,1.459-4.44,1.688C17.462-27.891,18.79-28.72,20.566-28.768z"/>
					<path d="M9.031-34.272c0.539,0.106,1.079,0.213,1.618,0.32c0.009,0.106,0.018,0.212,0.027,0.319
						c-0.282,0.089-0.655,0.333-0.823,0.232c-0.327-0.196-0.54-0.584-0.8-0.893L9.031-34.272z"/>
					<path d="M13.133-31.733c0.472-0.151,0.944-0.302,1.504-0.482c-0.195,1.069-0.772,1-1.403,0.805
						C13.201-31.518,13.167-31.625,13.133-31.733z"/>
					<path d="M7.391-20.386c-0.397-0.189-0.794-0.378-1.191-0.566c0.048-0.114,0.097-0.227,0.146-0.338
						c0.399,0.158,0.8,0.316,1.2,0.475C7.494-20.672,7.442-20.529,7.391-20.386z"/>
					<path d="M10.638-19.986c-0.506,0.025-1.012,0.051-1.519,0.078c-0.003-0.102-0.006-0.204-0.01-0.306c0.51,0,1.021,0,1.532,0
						C10.641-20.139,10.64-20.063,10.638-19.986z"/>
					<path fill="#052B00" d="M46.684,0.582c0.289-0.367,0.604-0.716,0.856-1.104c0.221-0.335,0.376-0.714,0.667-1.281
						c-0.088,0.846-0.148,1.414-0.206,1.981C47.932,0.876,47.587,0.984,46.684,0.582z"/>
					<path d="M58.555,2.858c0.467-1.044,0.453-1.839-0.621-2.346c0.793-0.253,0.989-0.141,1.267,0.575
						C59.525,1.932,59.377,2.484,58.555,2.858z"/>
					<path d="M59.206-1.144c0.272,0.296,0.554,0.585,0.803,0.9c0.015,0.016-0.222,0.231-0.342,0.354
						c-0.29-0.287-0.579-0.575-0.872-0.862C58.932-0.883,59.068-1.014,59.206-1.144z"/>
					<path d="M61.109,3.831c-0.646-0.134-1.174-0.243-1.729-0.358C60.023,2.867,60.484,2.949,61.109,3.831z"/>
					<path fill="#052B00" d="M45.418,1.175c0.49,0.181,0.984,0.362,1.582,0.582c-1.139,0.466-1.344,0.369-1.559-0.604L45.418,1.175z
						"/>
					<path d="M41.966,28.57c0-0.313,0-0.631,0-0.947c0.081-0.045,0.161-0.094,0.242-0.139c0.2,0.248,0.401,0.496,0.604,0.744
						c-0.291,0.106-0.58,0.217-0.873,0.319C41.936,28.551,41.966,28.57,41.966,28.57z"/>
					<path d="M39.335-16.28c0.281,0.426,0.864,0.924,0.783,1.261c-0.179,0.739-0.939,0.906-1.874,0.873
						c0.451-0.273,0.769-0.465,1.147-0.695c-0.28-0.479-0.903-0.975-0.042-1.438C39.354-16.28,39.335-16.28,39.335-16.28z"/>
					<path d="M40.495-12.553c0.434,0.31,0.866,0.621,1.3,0.931c-0.09,0.123-0.18,0.246-0.27,0.368
						c-0.429-0.322-0.855-0.645-1.285-0.967C40.325-12.332,40.41-12.443,40.495-12.553z"/>
					<path d="M37.639-13.163c0.295,0.212,0.589,0.423,1.051,0.754c-0.338,0.097-0.667,0.282-0.761,0.2
						c-0.234-0.206-0.361-0.534-0.532-0.813C37.479-13.068,37.558-13.115,37.639-13.163z"/>
				</g>
			</g>
		</g>
	</g>
</g>
<linearGradient id="m4a1_1_" gradientUnits="userSpaceOnUse" x1="375.9561" y1="-259.2261" x2="464.9619" y2="-259.2261" gradientTransform="matrix(1 0 0 -1 -374.96 -242.5996)">
	<stop  offset="0" style="stop-color:#B1DB7F;stop-opacity:0"/>
	<stop  offset="0.1061" style="stop-color:#B1DB7F;stop-opacity:0.1061"/>
	<stop  offset="1" style="stop-color:#B1DB7F"/>
</linearGradient>
<path id="m4a1_2_" fill="url(#m4a1_1_)" d="M45.258,17.73c0.016-0.336-0.094-0.667-0.309-0.927
	c-0.183-0.226-0.458-0.356-0.748-0.354h-2.116c-0.029-0.029-0.044-0.015-0.044,0.044c-0.098,0.161-0.158,0.343-0.177,0.531
	c-0.001,0.356,0.09,0.706,0.264,1.016c0.123,0.181,0.17,0.402,0.133,0.618c-0.175,0.117-0.513-0.162-1.014-0.84
	c-0.174-0.247-0.281-0.537-0.308-0.838l-0.044-0.53c-0.19,0.096-0.368,0.215-0.53,0.354c-0.288,0.225-0.465,0.563-0.485,0.928
	c0.031,0.411,0.169,0.807,0.4,1.148c0.215,0.327,0.579,0.526,0.97,0.531h2.689c0.448,0.042,0.879-0.185,1.1-0.576
	C45.202,18.491,45.277,18.111,45.258,17.73z M79.068,5.971c-0.101,0.186-0.188,0.377-0.264,0.573
	c-0.027,0.179-0.014,0.361,0.043,0.533l0.264,0.575H81.1l0.133-2.61h-1.674L79.068,5.971z M83.7,11.099
	c-0.091-0.002-0.175-0.053-0.218-0.132l-0.09-0.133h-1.367c-0.033,0.339-0.254,0.63-0.571,0.752h-0.663
	c-0.119-0.023-0.219-0.106-0.264-0.22l-0.133-0.177h-2.732v0.706c-0.027,0.223-0.158,0.42-0.354,0.532
	c-0.203,0.193-0.471,0.303-0.748,0.309H55.264c-0.207-0.048-0.375-0.199-0.443-0.4l-0.174-0.4l-0.483,0.795h-0.31v5.083l0.354,0.443
	c-0.064,0.16-0.191,0.287-0.354,0.354c-0.195,0.269-0.248,0.617-0.135,0.93c0.088,1,0.135,1.59,0.135,1.768
	c-0.004,0.532,0.025,1.063,0.088,1.592c0.088,0.354,0.223,0.854,0.399,1.5c0.205,0.768,0.603,2.123,1.191,4.066l0.22,0.133
	c0.088,0.117,0.044,0.223-0.131,0.312c-4.382,1.42-6.705,2.157-6.969,2.216c-0.166,0.012-0.32-0.076-0.4-0.223
	c-0.061-0.125-0.061-0.271,0-0.397c-0.081-0.556-0.215-1.104-0.4-1.634c-0.389-1.264-0.697-2.548-0.925-3.852
	c-0.22-1.182-0.354-2.379-0.399-3.58l0.043-1.192l-0.571-0.179v-0.48c-0.119,0.252-0.321,0.455-0.572,0.575H40.41
	c-0.074,0.229-0.255,0.412-0.486,0.483c-0.147-0.039-0.273-0.133-0.353-0.265l-0.132-0.22c-0.109-0.059-0.23-0.088-0.353-0.089
	c-0.244,0.005-0.458,0.166-0.529,0.399c-0.096,0.229-0.231,0.438-0.4,0.617c-0.125,0.143-0.244,0.289-0.354,0.443
	c-0.048,0.201,0.001,0.415,0.134,0.572c0.133,0.146,0.211,0.336,0.22,0.533c-0.184,0.145-0.394,0.248-0.618,0.31
	c-0.303,0.058-0.562,0.254-0.7,0.528c-0.028,0.061-0.336,0.633-0.925,1.727c-0.315,0.497-0.567,1.029-0.751,1.591
	c0.073,0.206,0.177,0.399,0.309,0.575c0.173,0.184,0.191,0.461,0.044,0.664c-0.324,0.41-1.632,0.456-3.923,0.132
	c-0.711-0.063-1.402-0.272-2.028-0.619c-0.529-0.294-0.707-0.616-0.529-0.972c0.267-0.473,2.133-3.698,5.6-9.681
	c0.181-0.439,0.181-0.933,0-1.372c-0.038-0.471-0.376-0.864-0.837-0.972c-0.25-0.001-0.501,0.014-0.75,0.045
	c-0.163,0.031-0.332,0.016-0.486-0.045c-0.286-0.095-0.481-0.361-0.486-0.662c-0.027-0.384-0.044-0.723-0.044-1.018
	c-0.037-0.413-0.022-0.828,0.044-1.237h-0.22l-0.573-0.222v-0.22h-6.793l-0.088,0.486c-0.165,0.407-0.439,0.759-0.794,1.018
	c-0.376,0.265-0.73,0.56-1.058,0.883l-0.353,0.309L21.4,15.346h-1.051l-0.708,1.239h-2.6v-0.66H15.5
	c-2.262,1.74-3.511,2.685-3.746,2.83c-0.164,0.112-0.342,0.202-0.53,0.267c-0.15,0.021-0.287-0.088-0.306-0.236
	c-0.001-0.012-0.002-0.02-0.002-0.028l-0.044-0.442L3.819,22.87l-0.134,0.528c-0.059,0.261-0.239,0.475-0.484,0.576
	c-0.264,0.058-0.539,0.041-0.794-0.045c-0.272-0.037-0.531-0.145-0.75-0.31c-0.165-0.113-0.313-0.247-0.441-0.399
	C1.055,23.018,0.978,22.762,1,22.505V8.976C0.999,8.625,1.144,8.289,1.4,8.049c0.333-0.311,0.779-0.472,1.234-0.444h21.95
	c0.159,0.044,0.268,0.189,0.265,0.354c0.031,0.119,0.06,0.236,0.088,0.354h6.347V8.05l0.574-0.225h1.1v-0.97l0.221-0.22
	c0.371-0.175,0.781-0.251,1.19-0.22h2.644l0.927-1.328l-0.087-0.442c-0.188-0.064-0.365-0.154-0.529-0.265
	c-0.343-0.244-0.541-0.642-0.53-1.062c0.002-0.304,0.129-0.593,0.352-0.8c0.228-0.247,0.547-0.389,0.883-0.393
	c0.365-0.007,0.716,0.138,0.97,0.4c0.228,0.22,0.355,0.523,0.352,0.84v2.65h0.529V5.308h1.632v0.927h12.431
	c0.191,0.009,0.373,0.107,0.482,0.266c0.104,0.124,0.191,0.258,0.268,0.4c0.027,0.148,0.22,0.059,0.572-0.265h1.321
	c-0.003-0.076,0.015-0.151,0.044-0.22c0.057-0.145,0.199-0.235,0.354-0.221h19.658c0.192,0.009,0.373,0.106,0.485,0.265
	c0.052,0.079,0.108,0.153,0.177,0.221l0.926-1.282c0.379-0.58,0.808-1.127,1.276-1.636l0.222-0.219
	c0.342-0.165,0.722-0.241,1.101-0.221h1.101v5.655h1.322l0.178-0.22c0.088-0.104,0.215-0.167,0.353-0.176h5.288
	c0.224-0.007,0.436,0.091,0.574,0.265C89.889,9.072,90.02,9.394,90,9.725v0.448c0.011,0.271-0.104,0.53-0.311,0.705
	c-0.156,0.141-0.359,0.22-0.57,0.221H83.7z"/>
<linearGradient id="m4a1_5_" gradientUnits="userSpaceOnUse" x1="375.9561" y1="-259.2261" x2="464.9619" y2="-259.2261" gradientTransform="matrix(1 0 0 -1 -374.96 -242.5996)">
	<stop  offset="0" style="stop-color:#B1DB7F;stop-opacity:0"/>
	<stop  offset="0.1061" style="stop-color:#B1DB7F;stop-opacity:0.1061"/>
	<stop  offset="1" style="stop-color:#B1DB7F"/>
</linearGradient>
<path id="m4a1_3_" fill="url(#m4a1_5_)" d="M45.258,17.73c0.016-0.336-0.094-0.667-0.309-0.927
	c-0.183-0.226-0.458-0.356-0.748-0.354h-2.116c-0.029-0.029-0.044-0.015-0.044,0.044c-0.098,0.161-0.158,0.343-0.177,0.531
	c-0.001,0.356,0.09,0.706,0.264,1.016c0.123,0.181,0.17,0.402,0.133,0.618c-0.175,0.117-0.513-0.162-1.014-0.84
	c-0.174-0.247-0.281-0.537-0.308-0.838l-0.044-0.53c-0.19,0.096-0.368,0.215-0.53,0.354c-0.288,0.225-0.465,0.563-0.485,0.928
	c0.031,0.411,0.169,0.807,0.4,1.148c0.215,0.327,0.579,0.526,0.97,0.531h2.689c0.448,0.042,0.879-0.185,1.1-0.576
	C45.202,18.491,45.277,18.111,45.258,17.73z M79.068,5.971c-0.101,0.186-0.188,0.377-0.264,0.573
	c-0.027,0.179-0.014,0.361,0.043,0.533l0.264,0.575H81.1l0.133-2.61h-1.674L79.068,5.971z M83.7,11.099
	c-0.091-0.002-0.175-0.053-0.218-0.132l-0.09-0.133h-1.367c-0.033,0.339-0.254,0.63-0.571,0.752h-0.663
	c-0.119-0.023-0.219-0.106-0.264-0.22l-0.133-0.177h-2.732v0.706c-0.027,0.223-0.158,0.42-0.354,0.532
	c-0.203,0.193-0.471,0.303-0.748,0.309H55.264c-0.207-0.048-0.375-0.199-0.443-0.4l-0.174-0.4l-0.483,0.795h-0.31v5.083l0.354,0.443
	c-0.064,0.16-0.191,0.287-0.354,0.354c-0.195,0.269-0.248,0.617-0.135,0.93c0.088,1,0.135,1.59,0.135,1.768
	c-0.004,0.532,0.025,1.063,0.088,1.592c0.088,0.354,0.223,0.854,0.399,1.5c0.205,0.768,0.603,2.123,1.191,4.066l0.22,0.133
	c0.088,0.117,0.044,0.223-0.131,0.312c-4.382,1.42-6.705,2.157-6.969,2.216c-0.166,0.012-0.32-0.076-0.4-0.223
	c-0.061-0.125-0.061-0.271,0-0.397c-0.081-0.556-0.215-1.104-0.4-1.634c-0.389-1.264-0.697-2.548-0.925-3.852
	c-0.22-1.182-0.354-2.379-0.399-3.58l0.043-1.192l-0.571-0.179v-0.48c-0.119,0.252-0.321,0.455-0.572,0.575H40.41
	c-0.074,0.229-0.255,0.412-0.486,0.483c-0.147-0.039-0.273-0.133-0.353-0.265l-0.132-0.22c-0.109-0.059-0.23-0.088-0.353-0.089
	c-0.244,0.005-0.458,0.166-0.529,0.399c-0.096,0.229-0.231,0.438-0.4,0.617c-0.125,0.143-0.244,0.289-0.354,0.443
	c-0.048,0.201,0.001,0.415,0.134,0.572c0.133,0.146,0.211,0.336,0.22,0.533c-0.184,0.145-0.394,0.248-0.618,0.31
	c-0.303,0.058-0.562,0.254-0.7,0.528c-0.028,0.061-0.336,0.633-0.925,1.727c-0.315,0.497-0.567,1.029-0.751,1.591
	c0.073,0.206,0.177,0.399,0.309,0.575c0.173,0.184,0.191,0.461,0.044,0.664c-0.324,0.41-1.632,0.456-3.923,0.132
	c-0.711-0.063-1.402-0.272-2.028-0.619c-0.529-0.294-0.707-0.616-0.529-0.972c0.267-0.473,2.133-3.698,5.6-9.681
	c0.181-0.439,0.181-0.933,0-1.372c-0.038-0.471-0.376-0.864-0.837-0.972c-0.25-0.001-0.501,0.014-0.75,0.045
	c-0.163,0.031-0.332,0.016-0.486-0.045c-0.286-0.095-0.481-0.361-0.486-0.662c-0.027-0.384-0.044-0.723-0.044-1.018
	c-0.037-0.413-0.022-0.828,0.044-1.237h-0.22l-0.573-0.222v-0.22h-6.793l-0.088,0.486c-0.165,0.407-0.439,0.759-0.794,1.018
	c-0.376,0.265-0.73,0.56-1.058,0.883l-0.353,0.309L21.4,15.346h-1.051l-0.708,1.239h-2.6v-0.66H15.5
	c-2.262,1.74-3.511,2.685-3.746,2.83c-0.164,0.112-0.342,0.202-0.53,0.267c-0.15,0.021-0.287-0.088-0.306-0.236
	c-0.001-0.012-0.002-0.02-0.002-0.028l-0.044-0.442L3.819,22.87l-0.134,0.528c-0.059,0.261-0.239,0.475-0.484,0.576
	c-0.264,0.058-0.539,0.041-0.794-0.045c-0.272-0.037-0.531-0.145-0.75-0.31c-0.165-0.113-0.313-0.247-0.441-0.399
	C1.055,23.018,0.978,22.762,1,22.505V8.976C0.999,8.625,1.144,8.289,1.4,8.049c0.333-0.311,0.779-0.472,1.234-0.444h21.95
	c0.159,0.044,0.268,0.189,0.265,0.354c0.031,0.119,0.06,0.236,0.088,0.354h6.347V8.05l0.574-0.225h1.1v-0.97l0.221-0.22
	c0.371-0.175,0.781-0.251,1.19-0.22h2.644l0.927-1.328l-0.087-0.442c-0.188-0.064-0.365-0.154-0.529-0.265
	c-0.343-0.244-0.541-0.642-0.53-1.062c0.002-0.304,0.129-0.593,0.352-0.8c0.228-0.247,0.547-0.389,0.883-0.393
	c0.365-0.007,0.716,0.138,0.97,0.4c0.228,0.22,0.355,0.523,0.352,0.84v2.65h0.529V5.308h1.632v0.927h12.431
	c0.191,0.009,0.373,0.107,0.482,0.266c0.104,0.124,0.191,0.258,0.268,0.4c0.027,0.148,0.22,0.059,0.572-0.265h1.321
	c-0.003-0.076,0.015-0.151,0.044-0.22c0.057-0.145,0.199-0.235,0.354-0.221h19.658c0.192,0.009,0.373,0.106,0.485,0.265
	c0.052,0.079,0.108,0.153,0.177,0.221l0.926-1.282c0.379-0.58,0.808-1.127,1.276-1.636l0.222-0.219
	c0.342-0.165,0.722-0.241,1.101-0.221h1.101v5.655h1.322l0.178-0.22c0.088-0.104,0.215-0.167,0.353-0.176h5.288
	c0.224-0.007,0.436,0.091,0.574,0.265C89.889,9.072,90.02,9.394,90,9.725v0.448c0.011,0.271-0.104,0.53-0.311,0.705
	c-0.156,0.141-0.359,0.22-0.57,0.221H83.7z"/>
<linearGradient id="m4a1_6_" gradientUnits="userSpaceOnUse" x1="375.9561" y1="-259.2261" x2="464.9619" y2="-259.2261" gradientTransform="matrix(1 0 0 -1 -374.96 -242.5996)">
	<stop  offset="0" style="stop-color:#B1DB7F;stop-opacity:0"/>
	<stop  offset="0.1061" style="stop-color:#B1DB7F;stop-opacity:0.1061"/>
	<stop  offset="1" style="stop-color:#B1DB7F"/>
</linearGradient>
<path id="m4a1_4_" fill="url(#m4a1_6_)" d="M45.258,17.73c0.016-0.336-0.094-0.667-0.309-0.927
	c-0.183-0.226-0.458-0.356-0.748-0.354h-2.116c-0.029-0.029-0.044-0.015-0.044,0.044c-0.098,0.161-0.158,0.343-0.177,0.531
	c-0.001,0.356,0.09,0.706,0.264,1.016c0.123,0.181,0.17,0.402,0.133,0.618c-0.175,0.117-0.513-0.162-1.014-0.84
	c-0.174-0.247-0.281-0.537-0.308-0.838l-0.044-0.53c-0.19,0.096-0.368,0.215-0.53,0.354c-0.288,0.225-0.465,0.563-0.485,0.928
	c0.031,0.411,0.169,0.807,0.4,1.148c0.215,0.327,0.579,0.526,0.97,0.531h2.689c0.448,0.042,0.879-0.185,1.1-0.576
	C45.202,18.491,45.277,18.111,45.258,17.73z M79.068,5.971c-0.101,0.186-0.188,0.377-0.264,0.573
	c-0.027,0.179-0.014,0.361,0.043,0.533l0.264,0.575H81.1l0.133-2.61h-1.674L79.068,5.971z M83.7,11.099
	c-0.091-0.002-0.175-0.053-0.218-0.132l-0.09-0.133h-1.367c-0.033,0.339-0.254,0.63-0.571,0.752h-0.663
	c-0.119-0.023-0.219-0.106-0.264-0.22l-0.133-0.177h-2.732v0.706c-0.027,0.223-0.158,0.42-0.354,0.532
	c-0.203,0.193-0.471,0.303-0.748,0.309H55.264c-0.207-0.048-0.375-0.199-0.443-0.4l-0.174-0.4l-0.483,0.795h-0.31v5.083l0.354,0.443
	c-0.064,0.16-0.191,0.287-0.354,0.354c-0.195,0.269-0.248,0.617-0.135,0.93c0.088,1,0.135,1.59,0.135,1.768
	c-0.004,0.532,0.025,1.063,0.088,1.592c0.088,0.354,0.223,0.854,0.399,1.5c0.205,0.768,0.603,2.123,1.191,4.066l0.22,0.133
	c0.088,0.117,0.044,0.223-0.131,0.312c-4.382,1.42-6.705,2.157-6.969,2.216c-0.166,0.012-0.32-0.076-0.4-0.223
	c-0.061-0.125-0.061-0.271,0-0.397c-0.081-0.556-0.215-1.104-0.4-1.634c-0.389-1.264-0.697-2.548-0.925-3.852
	c-0.22-1.182-0.354-2.379-0.399-3.58l0.043-1.192l-0.571-0.179v-0.48c-0.119,0.252-0.321,0.455-0.572,0.575H40.41
	c-0.074,0.229-0.255,0.412-0.486,0.483c-0.147-0.039-0.273-0.133-0.353-0.265l-0.132-0.22c-0.109-0.059-0.23-0.088-0.353-0.089
	c-0.244,0.005-0.458,0.166-0.529,0.399c-0.096,0.229-0.231,0.438-0.4,0.617c-0.125,0.143-0.244,0.289-0.354,0.443
	c-0.048,0.201,0.001,0.415,0.134,0.572c0.133,0.146,0.211,0.336,0.22,0.533c-0.184,0.145-0.394,0.248-0.618,0.31
	c-0.303,0.058-0.562,0.254-0.7,0.528c-0.028,0.061-0.336,0.633-0.925,1.727c-0.315,0.497-0.567,1.029-0.751,1.591
	c0.073,0.206,0.177,0.399,0.309,0.575c0.173,0.184,0.191,0.461,0.044,0.664c-0.324,0.41-1.632,0.456-3.923,0.132
	c-0.711-0.063-1.402-0.272-2.028-0.619c-0.529-0.294-0.707-0.616-0.529-0.972c0.267-0.473,2.133-3.698,5.6-9.681
	c0.181-0.439,0.181-0.933,0-1.372c-0.038-0.471-0.376-0.864-0.837-0.972c-0.25-0.001-0.501,0.014-0.75,0.045
	c-0.163,0.031-0.332,0.016-0.486-0.045c-0.286-0.095-0.481-0.361-0.486-0.662c-0.027-0.384-0.044-0.723-0.044-1.018
	c-0.037-0.413-0.022-0.828,0.044-1.237h-0.22l-0.573-0.222v-0.22h-6.793l-0.088,0.486c-0.165,0.407-0.439,0.759-0.794,1.018
	c-0.376,0.265-0.73,0.56-1.058,0.883l-0.353,0.309L21.4,15.346h-1.051l-0.708,1.239h-2.6v-0.66H15.5
	c-2.262,1.74-3.511,2.685-3.746,2.83c-0.164,0.112-0.342,0.202-0.53,0.267c-0.15,0.021-0.287-0.088-0.306-0.236
	c-0.001-0.012-0.002-0.02-0.002-0.028l-0.044-0.442L3.819,22.87l-0.134,0.528c-0.059,0.261-0.239,0.475-0.484,0.576
	c-0.264,0.058-0.539,0.041-0.794-0.045c-0.272-0.037-0.531-0.145-0.75-0.31c-0.165-0.113-0.313-0.247-0.441-0.399
	C1.055,23.018,0.978,22.762,1,22.505V8.976C0.999,8.625,1.144,8.289,1.4,8.049c0.333-0.311,0.779-0.472,1.234-0.444h21.95
	c0.159,0.044,0.268,0.189,0.265,0.354c0.031,0.119,0.06,0.236,0.088,0.354h6.347V8.05l0.574-0.225h1.1v-0.97l0.221-0.22
	c0.371-0.175,0.781-0.251,1.19-0.22h2.644l0.927-1.328l-0.087-0.442c-0.188-0.064-0.365-0.154-0.529-0.265
	c-0.343-0.244-0.541-0.642-0.53-1.062c0.002-0.304,0.129-0.593,0.352-0.8c0.228-0.247,0.547-0.389,0.883-0.393
	c0.365-0.007,0.716,0.138,0.97,0.4c0.228,0.22,0.355,0.523,0.352,0.84v2.65h0.529V5.308h1.632v0.927h12.431
	c0.191,0.009,0.373,0.107,0.482,0.266c0.104,0.124,0.191,0.258,0.268,0.4c0.027,0.148,0.22,0.059,0.572-0.265h1.321
	c-0.003-0.076,0.015-0.151,0.044-0.22c0.057-0.145,0.199-0.235,0.354-0.221h19.658c0.192,0.009,0.373,0.106,0.485,0.265
	c0.052,0.079,0.108,0.153,0.177,0.221l0.926-1.282c0.379-0.58,0.808-1.127,1.276-1.636l0.222-0.219
	c0.342-0.165,0.722-0.241,1.101-0.221h1.101v5.655h1.322l0.178-0.22c0.088-0.104,0.215-0.167,0.353-0.176h5.288
	c0.224-0.007,0.436,0.091,0.574,0.265C89.889,9.072,90.02,9.394,90,9.725v0.448c0.011,0.271-0.104,0.53-0.311,0.705
	c-0.156,0.141-0.359,0.22-0.57,0.221H83.7z"/>
</svg>
