<?xml version="1.0" encoding="utf-8"?>
<!-- Generator: Adobe Illustrator 16.0.0, SVG Export Plug-In . SVG Version: 6.00 Build 0)  -->
<!DOCTYPE svg PUBLIC "-//W3C//DTD SVG 1.1//EN" "http://www.w3.org/Graphics/SVG/1.1/DTD/svg11.dtd">
<svg version="1.1" id="case1" xmlns="http://www.w3.org/2000/svg" xmlns:xlink="http://www.w3.org/1999/xlink" x="0px" y="0px"
	 width="92px" height="36px" viewBox="0 0 92 36" enable-background="new 0 0 92 36" xml:space="preserve">
<path id="xm1014" fill="#B1DB7F" d="M91.625,11.202c0,0.255-0.011,0.51-0.033,0.767c-0.021,0.263-0.085,0.521-0.189,0.765
	c-0.303,0.198-0.658,0.297-1.021,0.285c-0.556,0.021-1.099,0.032-1.631,0.031v0.323h0.096c0.07-0.001,0.131,0.056,0.133,0.127
	c0,0.011-0.002,0.022-0.004,0.033c0.268-0.007,0.532-0.028,0.799-0.065c0.347-0.062,0.703,0.019,0.99,0.224
	c0.254,0.148,0.42,0.41,0.446,0.702c0.126,0.348,0.159,0.721,0.097,1.084c-0.164,0.504-0.574,0.89-1.089,1.021H67.453
	c-0.385,0.076-0.762,0.194-1.12,0.353c-0.927,0.245-1.885,0.353-2.844,0.319h-6.878c-1.364,0.042-2.771,0.063-4.221,0.063H45.42
	c-0.46,0.025-0.921,0.004-1.376-0.063c-0.236-0.101-0.482-0.176-0.735-0.223h-1.918c-0.248-0.077-0.507-0.109-0.767-0.095
	c-0.379-0.021-0.778-0.043-1.183-0.063h-1.056c-0.203-0.006-0.405,0.004-0.607,0.03c-0.214,0.035-0.408,0.149-0.543,0.319
	c-0.332,0.275-0.729,0.461-1.151,0.542c-0.162-0.029-0.314-0.094-0.447-0.19c-0.214-0.063-0.501-0.137-0.864-0.223
	c-0.358-0.094-0.721-0.168-1.088-0.223c-0.404-0.063-0.649-0.095-0.735-0.095h-1.183c-0.398-0.015-0.79,0.097-1.119,0.32
	c-0.239,0.101-0.425,0.297-0.512,0.541c-0.234,0.235-0.512,0.522-0.83,0.864c-0.254,0.291-0.587,0.501-0.959,0.604h-0.544
	c-0.113,0.084-0.245,0.14-0.384,0.16c-0.073,0.021-0.148,0.031-0.224,0.029c-0.189,0-0.51,0.012-0.959,0.03
	c-0.426,0-0.874,0.021-1.341,0.063c-0.45,0.016-0.898,0.059-1.342,0.127c-0.266,0.008-0.522,0.099-0.735,0.256
	c-0.146,0.191-0.254,0.408-0.319,0.639c-0.172,0.385-0.374,0.854-0.609,1.404c-0.276,0.554-0.563,1.148-0.862,1.785
	c-0.3,0.597-0.588,1.147-0.864,1.66c-0.019,0.299,0.013,0.603,0.095,0.893c0.033,0.143,0.076,0.279,0.128,0.415l0.16,0.159
	c0.061,0.125,0.16,0.226,0.284,0.283c0.125,0.086,0.198,0.229,0.19,0.381l-0.13,0.188c-0.127,0.103-0.288,0.146-0.447,0.128
	c-0.221,0.043-0.445,0.064-0.67,0.068c-0.289-0.004-0.578-0.024-0.864-0.063c-0.359-0.084-0.794-0.189-1.305-0.316
	c-0.533-0.084-1.044-0.178-1.536-0.283c-0.447-0.148-0.841-0.284-1.183-0.415c-0.244,0.004-0.478-0.101-0.64-0.283l-0.095-0.128
	V26.42h-0.033c-0.136-0.105-0.208-0.273-0.189-0.445v-0.223c0.157-0.333,0.339-0.652,0.544-0.957
	c0.316-0.554,0.657-1.182,1.023-1.881c0.363-0.684,0.714-1.32,1.054-1.917c0.188-0.341,0.359-0.692,0.512-1.052
	c0-0.172-0.011-0.396-0.032-0.672c-0.017-0.226-0.107-0.438-0.256-0.605c-0.32-0.115-0.653-0.19-0.992-0.223
	c-0.294-0.066-0.6-0.066-0.895,0c-0.217,0.05-0.446,0.016-0.64-0.096h-0.129c0.002-0.095,0.013-0.19,0.032-0.284
	c-0.002-0.075,0.01-0.15,0.033-0.223c0.037-0.032,0.06-0.078,0.063-0.126c-0.084,0-0.479,0.074-1.183,0.221
	c-0.703,0.129-1.449,0.298-2.238,0.513c-0.788,0.17-1.502,0.351-2.142,0.542c-0.664,0.148-1.011,0.223-1.055,0.223
	c-0.123,0.075-0.231,0.172-0.32,0.285c-0.148,0.229-0.319,0.443-0.511,0.639c-0.161,0.209-0.301,0.434-0.417,0.67
	c-0.128,0.275-0.245,0.563-0.351,0.861c-0.128,0.277-0.235,0.514-0.319,0.703c-0.051,0.143-0.115,0.281-0.19,0.415
	c-0.173,0.099-0.334,0.215-0.479,0.351c-0.363,0.201-0.736,0.383-1.119,0.543c-0.554,0.276-1.312,0.596-2.275,0.957H1.489
	l-0.673-0.224L0.625,12.383l4.989-0.737c0.145-0.012,0.286-0.055,0.414-0.127c0.084-0.063,0.16-0.138,0.224-0.223
	c0.08-0.08,0.154-0.165,0.224-0.254l16.339-1.5v0.189c0.076,0.16,0.172,0.31,0.284,0.447c0.049,0.101,0.144,0.172,0.254,0.19
	c0.025,0.051,0.073,0.086,0.129,0.095c0.074-0.005,0.142-0.04,0.19-0.095l0.189-0.19V9.735h0.129
	c0.467-0.708,0.808-1.197,1.023-1.468V8.203h0.049c0.028-0.036,0.055-0.069,0.081-0.095c0.008-0.012,0.019-0.022,0.031-0.03h0.975
	c0.044,0.035,0.082,0.078,0.112,0.125h0.19v0.27c0.144,0.147,0.338,0.233,0.543,0.241l0.319,0.159h1.024
	c0.268-0.006,0.536,0.015,0.8,0.063c0.155-0.02,0.298,0.09,0.318,0.246c0,0.004,0,0.007,0.001,0.01c0.126,0,0.189,0.178,0.189,0.542
	v0.32c0.044,0.005,0.087,0.015,0.129,0.03c0.023,0.032,0.057,0.055,0.095,0.065l0.095,0.031V9.193h11.429v-0.64h0.672v0.64h1.662
	v0.223c0,0.216,0.032,0.431,0.094,0.638c0.022,0.135,0.104,0.252,0.223,0.319h41.919c0.158-0.129,0.307-0.268,0.446-0.414
	c0.126-0.155,0.205-0.343,0.225-0.541l0.128-0.38c0.014-0.217,0.057-0.433,0.129-0.639c0.047-0.181,0.194-0.319,0.379-0.351
	c0.246,0.047,0.484,0.133,0.703,0.255c0.299,0.171,0.629,0.363,0.992,0.574c0.33,0.207,0.648,0.431,0.958,0.67
	c0.19,0.196,0.361,0.41,0.511,0.64c0.075,0.05,0.141,0.115,0.189,0.189c0.061-0.003,0.113,0.037,0.128,0.095
	c0.052,0.019,0.104,0.029,0.16,0.031h0.159l0.553,0.218v0.482H91.625z M86.443,13.053h-0.99l-0.16-0.224h-17.84
	c-0.186,0.128-0.311,0.323-0.354,0.543v0.16c0.775,0.061,1.557,0.082,2.334,0.063h4.83c1.918-0.043,3.94-0.086,6.072-0.128
	c2.195-0.042,4.188-0.074,5.979-0.095h0.447C86.723,13.216,86.6,13.095,86.443,13.053L86.443,13.053z M26.908,8.613
	c0.025,0.002,0.047,0.014,0.063,0.032h0.063c0,0.017,0.012,0.03,0.028,0.03c0.001,0,0.003,0,0.004,0h-0.16V8.613H26.908z
	 M28.123,17.483c0.016-0.303-0.062-0.604-0.224-0.861c-0.175-0.202-0.437-0.308-0.703-0.284h-2.334
	c-0.273-0.003-0.536,0.099-0.736,0.284c-0.182,0.249-0.272,0.553-0.256,0.861c0.001,0.237,0.093,0.466,0.256,0.639
	c0.191,0.203,0.457,0.318,0.736,0.318h2.334c0.273,0.022,0.54-0.098,0.703-0.318c0.145-0.181,0.223-0.404,0.224-0.635V17.483z
	 M24.478,8.682c0.024-0.001,0.048-0.012,0.064-0.03h0.033v0.03H24.48H24.478z"/>
<g>
	<g>
		<defs>
			<path id="SVGID_1_" d="M91.625,11.202c0,0.255-0.011,0.51-0.033,0.767c-0.021,0.263-0.085,0.521-0.189,0.765
				c-0.303,0.198-0.658,0.297-1.021,0.285c-0.556,0.021-1.099,0.032-1.631,0.031v0.323h0.096c0.07-0.001,0.131,0.056,0.133,0.127
				c0,0.011-0.002,0.022-0.004,0.033c0.268-0.007,0.532-0.028,0.799-0.065c0.347-0.062,0.703,0.019,0.99,0.224
				c0.254,0.148,0.42,0.41,0.446,0.702c0.126,0.348,0.159,0.721,0.097,1.084c-0.164,0.504-0.574,0.89-1.089,1.021H67.453
				c-0.385,0.076-0.762,0.194-1.12,0.353c-0.927,0.245-1.885,0.353-2.844,0.319h-6.878c-1.364,0.042-2.771,0.063-4.221,0.063H45.42
				c-0.46,0.025-0.921,0.004-1.376-0.063c-0.236-0.101-0.482-0.176-0.735-0.223h-1.918c-0.248-0.077-0.507-0.109-0.767-0.095
				c-0.379-0.021-0.778-0.043-1.183-0.063h-1.056c-0.203-0.006-0.405,0.004-0.607,0.03c-0.214,0.035-0.408,0.149-0.543,0.319
				c-0.332,0.275-0.729,0.461-1.151,0.542c-0.162-0.029-0.314-0.094-0.447-0.19c-0.214-0.063-0.501-0.137-0.864-0.223
				c-0.358-0.094-0.721-0.168-1.088-0.223c-0.404-0.063-0.649-0.095-0.735-0.095h-1.183c-0.398-0.015-0.79,0.097-1.119,0.32
				c-0.239,0.101-0.425,0.297-0.512,0.541c-0.234,0.235-0.512,0.522-0.83,0.864c-0.254,0.291-0.587,0.501-0.959,0.604h-0.544
				c-0.113,0.084-0.245,0.14-0.384,0.16c-0.073,0.021-0.148,0.031-0.224,0.029c-0.189,0-0.51,0.012-0.959,0.03
				c-0.426,0-0.874,0.021-1.341,0.063c-0.45,0.016-0.898,0.059-1.342,0.127c-0.266,0.008-0.522,0.099-0.735,0.256
				c-0.146,0.191-0.254,0.408-0.319,0.639c-0.172,0.385-0.374,0.854-0.609,1.404c-0.276,0.554-0.563,1.148-0.862,1.785
				c-0.3,0.597-0.588,1.147-0.864,1.66c-0.019,0.299,0.013,0.603,0.095,0.893c0.033,0.143,0.076,0.279,0.128,0.415l0.16,0.159
				c0.061,0.125,0.16,0.226,0.284,0.283c0.125,0.086,0.198,0.229,0.19,0.381l-0.13,0.188c-0.127,0.103-0.288,0.146-0.447,0.128
				c-0.221,0.043-0.445,0.064-0.67,0.068c-0.289-0.004-0.578-0.024-0.864-0.063c-0.359-0.084-0.794-0.189-1.305-0.316
				c-0.533-0.084-1.044-0.178-1.536-0.283c-0.447-0.148-0.841-0.284-1.183-0.415c-0.244,0.004-0.478-0.101-0.64-0.283l-0.095-0.128
				V26.42h-0.033c-0.136-0.105-0.208-0.273-0.189-0.445v-0.223c0.157-0.333,0.339-0.652,0.544-0.957
				c0.316-0.554,0.657-1.182,1.023-1.881c0.363-0.684,0.714-1.32,1.054-1.917c0.188-0.341,0.359-0.692,0.512-1.052
				c0-0.172-0.011-0.396-0.032-0.672c-0.017-0.226-0.107-0.438-0.256-0.605c-0.32-0.115-0.653-0.19-0.992-0.223
				c-0.294-0.066-0.6-0.066-0.895,0c-0.217,0.05-0.446,0.016-0.64-0.096h-0.129c0.002-0.095,0.013-0.19,0.032-0.284
				c-0.002-0.075,0.01-0.15,0.033-0.223c0.037-0.032,0.06-0.078,0.063-0.126c-0.084,0-0.479,0.074-1.183,0.221
				c-0.703,0.129-1.449,0.298-2.238,0.513c-0.788,0.17-1.502,0.351-2.142,0.542c-0.664,0.148-1.011,0.223-1.055,0.223
				c-0.123,0.075-0.231,0.172-0.32,0.285c-0.148,0.229-0.319,0.443-0.511,0.639c-0.161,0.209-0.301,0.434-0.417,0.67
				c-0.128,0.275-0.245,0.563-0.351,0.861c-0.128,0.277-0.235,0.514-0.319,0.703c-0.051,0.143-0.115,0.281-0.19,0.415
				c-0.173,0.099-0.334,0.215-0.479,0.351c-0.363,0.201-0.736,0.383-1.119,0.543c-0.554,0.276-1.312,0.596-2.275,0.957H1.489
				l-0.673-0.224L0.625,12.383l4.989-0.737c0.145-0.012,0.286-0.055,0.414-0.127c0.084-0.063,0.16-0.138,0.224-0.223
				c0.08-0.08,0.154-0.165,0.224-0.254l16.339-1.5v0.189c0.076,0.16,0.172,0.31,0.284,0.447c0.049,0.101,0.144,0.172,0.254,0.19
				c0.025,0.051,0.073,0.086,0.129,0.095c0.074-0.005,0.142-0.04,0.19-0.095l0.189-0.19V9.735h0.129
				c0.467-0.708,0.808-1.197,1.023-1.468V8.203h0.049c0.028-0.036,0.055-0.069,0.081-0.095c0.008-0.012,0.019-0.022,0.031-0.03
				h0.975c0.044,0.035,0.082,0.078,0.112,0.125h0.19v0.27c0.144,0.147,0.338,0.233,0.543,0.241l0.319,0.159h1.024
				c0.268-0.006,0.536,0.015,0.8,0.063c0.155-0.02,0.298,0.09,0.318,0.246c0,0.004,0,0.007,0.001,0.01
				c0.126,0,0.189,0.178,0.189,0.542v0.32c0.044,0.005,0.087,0.015,0.129,0.03c0.023,0.032,0.057,0.055,0.095,0.065l0.095,0.031
				V9.193h11.429v-0.64h0.672v0.64h1.662v0.223c0,0.216,0.032,0.431,0.094,0.638c0.022,0.135,0.104,0.252,0.223,0.319h41.919
				c0.158-0.129,0.307-0.268,0.446-0.414c0.126-0.155,0.205-0.343,0.225-0.541l0.128-0.38c0.014-0.217,0.057-0.433,0.129-0.639
				c0.047-0.181,0.194-0.319,0.379-0.351c0.246,0.047,0.484,0.133,0.703,0.255c0.299,0.171,0.629,0.363,0.992,0.574
				c0.33,0.207,0.648,0.431,0.958,0.67c0.19,0.196,0.361,0.41,0.511,0.64c0.075,0.05,0.141,0.115,0.189,0.189
				c0.061-0.003,0.113,0.037,0.128,0.095c0.052,0.019,0.104,0.029,0.16,0.031h0.159l0.553,0.218v0.482H91.625z M86.443,13.053h-0.99
				l-0.16-0.224h-17.84c-0.186,0.128-0.311,0.323-0.354,0.543v0.16c0.775,0.061,1.557,0.082,2.334,0.063h4.83
				c1.918-0.043,3.94-0.086,6.072-0.128c2.195-0.042,4.188-0.074,5.979-0.095h0.447C86.723,13.216,86.6,13.095,86.443,13.053
				L86.443,13.053z M26.908,8.613c0.025,0.002,0.047,0.014,0.063,0.032h0.063c0,0.017,0.012,0.03,0.028,0.03
				c0.001,0,0.003,0,0.004,0h-0.16V8.613H26.908z M28.123,17.483c0.016-0.303-0.062-0.604-0.224-0.861
				c-0.175-0.202-0.437-0.308-0.703-0.284h-2.334c-0.273-0.003-0.536,0.099-0.736,0.284c-0.182,0.249-0.272,0.553-0.256,0.861
				c0.001,0.237,0.093,0.466,0.256,0.639c0.191,0.203,0.457,0.318,0.736,0.318h2.334c0.273,0.022,0.54-0.098,0.703-0.318
				c0.145-0.181,0.223-0.404,0.224-0.635V17.483z M24.478,8.682c0.024-0.001,0.048-0.012,0.064-0.03h0.033v0.03H24.48H24.478z"/>
		</defs>
		<clipPath id="SVGID_2_">
			<use xlink:href="#SVGID_1_"  overflow="visible"/>
		</clipPath>
		<g clip-path="url(#SVGID_2_)">
			<g>
				<g>
					<g>
						<g>
							<g>
								<g>
									<path fill="#033500" d="M21.958,50.518c-0.508,0-1.016,0-1.523,0c-0.962-0.195-1.925-0.395-3.081-0.629
										c-0.092,0.105-0.316,0.365-0.541,0.629c-4.574,0-9.147,0-13.721,0c-0.277-0.461-0.643-0.895-0.798-1.395
										c-0.098-0.314,0.119-0.727,0.195-1.094c0.338,0.08,0.689,0.127,1.01,0.254c0.158,0.063,0.259,0.271,0.386,0.412
										c0.571,0.633,0.943,0.422,1.261-0.295c-0.311-0.223-0.584-0.416-1.002-0.717c1.415-0.545,1.932-1.513,1.884-2.938
										c-0.012-0.351,0.739-0.858,1.234-1.054c0.57-0.223,1.256-0.123,1.872-0.258c0.819-0.178,1.796-0.026,2.474-1.102
										c-0.479-0.16-0.853-0.352-1.246-0.406c-0.562-0.086-1.154,0-1.7-0.131c-0.363-0.088-0.958-0.449-0.942-0.645
										c0.04-0.476,0.255-1.146,0.616-1.344c1.44-0.781,3.218-0.511,4.385,0.094c1.223,0.633,2.229,0.672,3.375,0.469
										c2.883-0.508,5.544-0.301,7.77,1.896c0.438,0.436,1.043,0.729,1.619,0.979c1.744,0.752,3.928,0.148,5.049-1.34
										c0.693-0.918,0.391-1.805-0.635-2.197c-0.687-0.266-1.623-0.59-1.864-1.145c-0.403-0.924-0.923-1.156-1.8-1.142
										c-1.238,0.021-2.081-0.733-2.223-1.991c-0.083-0.732-0.17-1.486-0.078-2.207c0.042-0.339,0.459-0.689,0.788-0.912
										c0.769-0.525,1.607-0.947,2.382-1.463c1.347-0.9,2.661-1.785,4.336-0.683c0.248,0.164,0.691,0.151,1.006,0.069
										c1.209-0.307,2.404-0.676,3.703-1.051c-0.229-0.479-0.494-1.024-0.773-1.608c-0.295,0-0.58,0-0.863,0
										c0.244-0.265,0.52-0.396,0.781-0.373c0.984,0.094,1.963,0.271,2.947,0.351c0.855,0.067,1.393-0.419,1.557-1.23
										c0.164-0.811-0.139-1.512-0.947-1.754c-1.313-0.391-2.096-1.635-3.6-1.877c-0.947-0.151-1.613-0.438-2.252,0.479
										c-0.469-0.502-0.553-0.957,0-1.31c0.238-0.151,0.607-0.131,0.918-0.133c1.082-0.008,2.205,0.279,2.975-0.92
										c0.189-0.293,0.861-0.289,1.318-0.389c0.365-0.082,0.775-0.043,1.102-0.195c0.313-0.146,0.539-0.471,0.805-0.719
										c-0.342-0.145-0.688-0.404-1.029-0.4c-0.563,0.004-1.117,0.207-1.684,0.277c-0.744,0.094-1.334-0.273-1.387-0.973
										c-0.029-0.41,0.346-0.984,0.709-1.25c0.367-0.27,0.941-0.283,1.432-0.35c0.688-0.092,1.387-0.084,2.066-0.197
										c0.635-0.109,0.566-0.539,0.223-0.895c-0.205-0.211-0.545-0.428-0.814-0.416c-1.453,0.066-2.912,0.131-4.346,0.352
										c-0.502,0.078-1.09,0.494-1.371,0.928c-0.66,1.014-1.58,1.43-2.676,1.786c-0.572,0.187-1.188,0.776-1.425,1.342
										c-0.369,0.869-0.902,1.259-1.778,1.272c-0.857,0.019-1.717-0.041-2.569,0.021c-0.284,0.021-0.548,0.313-0.821,0.479
										c0.208,0.188,0.444,0.351,0.62,0.563c0.298,0.358,0.559,0.75,0.835,1.129c-0.34,0.232-0.654,0.554-1.031,0.669
										c-0.299,0.09-0.678-0.052-1.014-0.121c-0.779-0.168-1.541-0.656-2.35-0.037c-0.107,0.084-0.397-0.08-0.605-0.117
										c-0.259-0.045-0.521-0.08-0.782-0.113c-0.611-0.076-1.22-0.186-1.833-0.215c-0.739-0.037-1.92-0.287-2.14,0.055
										c-0.631,0.979-2.167,1.172-2.196,2.641c-0.009,0.504-0.302,1.002-0.514,1.654c-0.221-0.293-0.39-0.516-0.566-0.748
										c-1.682,0.283-3.585-0.338-4.983,1.143c0.414,1.39,1.444,1.379,2.535,1.298c3.097-0.229,6.195-0.39,9.275,0.198
										c0.295,0.058,0.812,0.131,0.828,0.25c0.042,0.32-0.129,0.666-0.223,1.033c-1.355-0.4-2.422-0.15-3.43,0.637
										c-0.36,0.283-0.922,0.396-1.402,0.427c-1.284,0.092-1.357,0.151-1.014,1.521c0.912,0.118,1.868,0.207,2.803,0.397
										c0.162,0.032,0.386,0.551,0.321,0.767c-0.388,1.299-1.201,2.2-2.594,2.477c-0.769,0.152-1.635,0.15-2.28,0.525
										c-1.235,0.713-2.398,0.934-3.748,0.399c-0.56-0.226-1.377-0.476-1.802-0.231c-1.397,0.797-2.364,0.274-3.409-0.623
										c-0.759-0.654-1.69-0.963-2.782-0.574c0.142,0.297,0.245,0.559,0.386,0.797c0.936,1.58,1.397,3.309,1.64,5.111
										c0.197,1.465-0.619,2.27-2.069,1.981c-0.492-0.097-0.987-0.224-1.452-0.41c-0.53-0.213-0.993-0.353-1.438,0.168
										c-0.445,0.521-0.271,0.981,0.04,1.468c0.418,0.659,0.351,1.141-0.516,1.289c0-5.398,0-10.795,0-16.195
										c0.274,0.041,0.631-0.014,0.804,0.141c0.492,0.439,0.927,0.945,1.35,1.455c0.609,0.732,1.355,0.859,2.105,0.363
										c1.206-0.795,2.343-0.603,3.601-0.117c1.011,0.391,2.11,0.611,3.19,0.736c0.821,0.096,1.543-0.601,1.405-1.195
										C10,31.174,9.25,31.488,8.729,31.602c-0.783,0.172-1.433-0.014-1.876-0.592c-0.827-1.076-1.821-1.191-3.026-0.82
										c-0.822,0.256-1.12-0.061-0.977-0.914c0.034-0.198,0.095-0.395,0.194-0.793c-1.685,0.5-2.708-0.389-3.247-1.606
										c-0.453-1.019-1.022-1.394-2.039-1.321c0-1.332,0-2.666,0-4c0.447-0.478,1.054-0.875,0.783-1.734
										c-0.252-0.057-0.518-0.115-0.783-0.172c0-0.762,0-1.525,0-2.288c1.08,0.322,2.161,0.643,3.242,0.965
										c1.556-1.303,2.943-0.736,4.289,0.379c0.088,0.07,0.243,0.059,0.362,0.102c0.737,0.262,0.597,0.875,0.396,1.342
										c-0.194,0.445-0.606,0.576-1.09,0.185c-0.63-0.511-1.324-0.515-2.021-0.063c-1.29,0.834-2.59,1.654-3.941,2.517
										c0.567,0.942,1.036,1.728,1.57,2.616c1.476-1.459,3.063-2.495,5.147-1.098c-0.184-0.313-0.368-0.621-0.626-1.059
										c1.23-0.406,2.372-0.881,3.56-1.148c1.167-0.268,2.378-0.35,3.575-0.461c0.332-0.031,0.68,0.123,1.023,0.186
										c0.229,0.044,0.46,0.074,0.749,0.119c0.007-0.94-0.662-1.143-1.203-1.502c-0.589-0.395-1.149-0.854-1.643-1.358
										c-0.857-0.877-1.644-1.828-2.488-2.721C8.5,16.189,8.19,16.039,7.98,16.072c-1.035,0.16-1.788-0.199-2.25-1.209
										c-0.527,1.107-0.753,1.168-1.786,0.584C2.615,14.695,2.4,14.726,1.343,15.84c-0.196,0.207-0.453,0.373-0.593,0.611
										c-0.429,0.732-0.872,0.981-1.644,0.367c-0.343-0.271-0.893-0.283-1.349-0.412c0-3.621,0-7.242,0-10.863
										c0.145,0,0.29,0,0.436,0c1.026-0.648,2.055-1.034,3.216-0.26C1.597,5.41,1.964,5.24,2.243,5.261
										c0.894,0.076,1.832,0.037,2.663,0.313C5.591,5.8,6.072,5.828,6.595,5.345C7.274,4.72,7.822,4.902,8.479,5.511
										c0.768,0.711,1.694,1.248,2.552,1.861c0.084-0.043,0.167-0.084,0.251-0.127c-0.42-1.682,1.833-2.363,1.419-4.178
										c-0.26,0.286-0.438,0.482-0.775,0.855c0.225-0.536,0.354-0.846,0.5-1.19c-0.231-0.163-0.429-0.313-0.637-0.448
										C10.461,1.431,9.269,0.5,9.125-1.273c-0.02-0.231-0.548-0.481-0.884-0.612C7.607-2.131,6.9-2.217,6.307-2.53
										c-0.275-0.145-0.51-0.679-0.475-1.006c0.029-0.26,0.483-0.651,0.771-0.671C7.346-4.258,8.1-4.144,8.849-4.082
										c0.716,0.063,1.44,0.253,2.142,0.185c0.696-0.067,1.084-0.688,0.822-1.323c-0.128-0.311-0.77-0.555-1.188-0.568
										c-0.68-0.021-1.366,0.229-2.052,0.252C7.819-5.51,7.505-6.019,7.741-6.731c0.364-1.102,1.398-1.656,2.675-1.394
										c0.854,0.175,1.696,0.407,2.474,0.597c-0.117,0.303-0.231,0.599-0.344,0.894c0.314,0.102,0.624,0.267,0.945,0.29
										c0.503,0.038,1.039,0.077,1.516-0.054c2.401-0.655,4.633-0.165,6.833,0.832c1.837,0.832,3.785,1.38,5.803,1.265
										c0.995-0.057,1.989-0.526,2.928-0.934c0.266-0.115,0.48-0.688,0.447-1.025c-0.023-0.247-0.484-0.455-0.752-0.678
										c-0.707-0.594-1.51-1.106-2.088-1.805c-0.471-0.568-0.79-0.759-1.327-0.268c0.12,0.234,0.26,0.443,0.318,0.674
										c0.012,0.048-0.27,0.193-0.43,0.259c-0.337,0.139-0.737,0.185-1.016,0.395c-0.644,0.482-1.296,0.47-1.954,0.139
										c-0.848-0.425-1.673-0.894-2.494-1.367c-0.987-0.571-1.044-1.006-0.299-1.836c0.16-0.178,0.263-0.408,0.404-0.631
										c0.622,0.923,1.497,0.918,2.058,0.009c0.358-0.582,0.679-0.997,1.508-0.667c0.335,0.134,1.087-0.065,1.254-0.348
										c0.604-1.024,1.446-1.246,2.544-1.254c1.124-0.007,2.093,0.705,2.382,1.789c0.125,0.479,0.523,1.011,0.951,1.26
										c1.154,0.67,1.188,0.616,0.553,1.909c0.43,0.062,0.83,0.107,1.227,0.177c0.992,0.175,2.051,0.197,2.955,0.584
										c1.07,0.458,1.973,0.448,2.98-0.063c1.096-0.555,2.248-0.997,3.357-1.524c0.711-0.336,1.447-0.663,2.068-1.133
										c0.828-0.628,1.012-1.613,0.58-2.267c0.385-0.178,0.77-0.358,1.156-0.539c-0.391-0.766-0.84-0.685-1.25-0.254
										c-0.166-0.263-0.273-0.624-0.428-0.644c-0.879-0.114-0.75-0.679-0.641-1.26c6.396,0,12.796,0,19.244,0
										c0,4.192,0,8.384,0,12.577c-0.147,0.025-0.33,0.007-0.446,0.083c-0.336,0.216-0.646,0.472-0.97,0.711
										c0.269,0.177,0.522,0.374,0.804,0.524c0.188,0.102,0.409,0.141,0.612,0.207c0,1.715,0,3.43,0,5.146
										c-0.563,0.024-1.137,0.003-1.692,0.086c-0.927,0.14-1.854,0.302-2.754,0.552c-0.248,0.068-0.574,0.492-0.558,0.73
										c0.021,0.246,0.375,0.533,0.646,0.68c0.265,0.139,0.609,0.176,0.916,0.156c1.148-0.078,2.297-0.195,3.439-0.301
										c0,4.701,0,9.402,0,14.104c-0.588-0.174-1.189-0.313-1.768-0.523c-0.529-0.193-1.006-0.559-1.545-0.678
										c-1.086-0.24-2.205-0.344-3.302-0.553c-0.268-0.051-0.502-0.289-0.75-0.441c0.156-0.247,0.25-0.602,0.472-0.717
										c1.045-0.559,2.108-0.477,3.197,0.09c0.356-0.66,0.706-1.311,1.159-2.146c-0.967-0.076-1.743-0.121-2.519-0.203
										c-0.446-0.047-0.926-0.08-1.334-0.254c-1.073-0.463-1.17-0.449-1.67,0.861c-0.78-0.414-1.557-0.783-2.287-1.223
										c-0.723-0.436-1.399-0.941-1.983-1.338c-0.063,0.479,0,1.012-0.229,1.336c-0.146,0.209-0.727,0.148-1.106,0.146
										c-0.17-0.002-0.334-0.176-0.512-0.24c-0.927-0.336-1.854-0.662-2.783-0.99c-0.065,0.133-0.133,0.266-0.194,0.398
										c0.409,0.303,0.813,0.617,1.233,0.91c0.726,0.504,1.582,0.887,2.151,1.525c0.595,0.662,0.906,1.582,2.088,1.477
										c-0.471,0.135-0.916,0.182-1.245,0.012c-1.148-0.596-2.244-1.291-3.394-1.889c-0.297-0.152-0.721-0.16-1.059-0.092
										c-0.58,0.117-0.67-0.094-0.6-0.602c0.105-0.756-0.297-0.756-0.896-0.527c0.479,0.705,0.246,1.053-0.5,1.191
										c-0.496,0.094-1.037,0.164-1.453,0.414c-0.352,0.211-0.834,0.746-0.766,1.004c0.201,0.743,0.496,1.588,1.039,2.078
										c0.73,0.653,0.645,1.12,0.133,1.745l0.023-0.021c-0.545,0.68-1.246,0.885-2.105,0.82c-0.303-0.023-0.627,0.28-0.943,0.434
										c0.27,0.27,0.494,0.654,0.818,0.777c0.395,0.147,0.875,0.108,1.314,0.094c1.383-0.047,2.475,0.615,3.65,1.379
										c-0.906,0.771-1.729,1.469-2.545,2.166c0.059,0.08,0.111,0.16,0.168,0.24c1.334-0.107,2.328,0.604,3.231,1.401
										c1.388,1.216,2.925,1.787,4.781,1.677c0.641-0.037,1.336,0.246,1.945,0.522c0.859,0.392,2.674,0.026,3.326-0.644
										c0.342-0.35,0.879-0.567,1.369-0.707c0.512-0.141,1.078-0.063,1.604-0.164c1.334-0.25,1.693-0.823,1.598-2.192
										c-0.022-0.354,0.189-1,0.4-1.052c1.186-0.282,1.396-1.147,1.525-2.139c0.049-0.365,0.168-0.721,0.25-1.08
										c0,1.269,0,2.541,0,3.812c-0.937,0.188-1.506,0.752-1.703,1.688c-0.111,0.525-0.238,1.047-0.326,1.576
										c-0.188,1.141-0.477,2.219-1.449,2.982c-0.191,0.15-0.445,0.418-0.422,0.604c0.053,0.453,0.197,0.914,0.418,1.314
										c0.084,0.154,0.617,0.273,0.686,0.191c0.267-0.314,0.479-0.701,0.603-1.097c0.063-0.204-0.14-0.479-0.162-0.725
										c-0.11-1.066,0.229-1.423,1.31-1.492c0.356-0.022,0.701-0.185,1.053-0.281c0,5.466,0,10.929,0,16.39
										c-1,0.254-1.266-0.564-1.713-1.154c-0.252-0.332-0.637-0.9-0.867-0.855c-0.967,0.174-1.9,0.527-2.828,0.861
										c-0.123,0.045-0.146,0.357-0.213,0.539c0.441,0.09,0.814,0.139,1.168,0.254c0.73,0.236,1.385,0.809,1.057,1.516
										c-0.399,0.855-0.139,1.646-0.219,2.463c-5.148,0-10.291,0-15.439,0c0.652-0.342,1.275-0.887,1.962-0.985
										c1.431-0.207,2.896-0.199,4.343-0.238c1.323-0.034,2.348-0.668,3.569-1.608c-1.307,0.117-2.146-0.041-2.205-1.344
										c-0.01-0.199-0.42-0.451-0.688-0.552c-0.469-0.17-0.976-0.325-1.467-0.338c-0.627-0.019-0.66-0.353-0.604-0.812
										c0.084-0.694,0.607-0.881,1.166-0.854c0.974,0.053,1.957,0.127,2.908,0.313c2.082,0.412,3.197-0.162,3.566-2.074
										c-0.563-0.137-1.137-0.266-1.705-0.407c-0.426-0.104-0.906-0.138-1.252-0.367c-0.684-0.452-1.289-1.021-1.795-1.438
										c0.123-0.479,0.537-1.153,0.352-1.539c-0.336-0.698-1.063-0.393-1.678-0.125c0.178,0.392,0.336,0.738,0.607,1.345
										c-0.627-0.101-1.054-0.069-1.379-0.233c-1.105-0.562-1.095-0.584-1.563,0.631c-0.709,1.826-1.47,2.346-3.344,2.313
										c-0.824-0.011-1.65-0.033-2.477,0.01c-0.563,0.027-1.135,0.104-1.67,0.263c-0.918,0.278-1.104,0.932-0.561,1.729
										c0.178,0.254,0.352,0.512,0.617,0.896c-0.855,0.197-1.584,0.416-2.328,0.526c-0.791,0.117-1.314,0.361-1.225,1.313
										c0.072,0.748-0.41,0.963-1.086,0.969c-0.766,0.014-0.941-0.428-0.83-1.041c0.092-0.514,0.297-1.006,0.436-1.508
										c0.135-0.496,0.248-0.996,0.434-1.734c-0.566,0.223-0.807,0.291-1.02,0.41c-1.273,0.709-2.57,1.127-4.084,0.828
										c-1.02-0.199-1.379,0.33-1.105,1.359c0.057,0.217,0.113,0.434,0.205,0.635c0.375,0.826,0.037,1.283-0.775,1.438
										c-0.394,0.076-0.808,0.037-1.215,0.059c-0.868,0.041-1.735,0.104-2.604,0.125c-0.347,0.007-0.695-0.09-1.042-0.139
										c-0.506,0.07-1.451,0.322-1.476,0.646C23.716,50.268,22.717,50.197,21.958,50.518z M37.399,2.963
										c-0.506-0.013-1.012-0.015-1.518-0.039c-1.125-0.052-2.172,0.039-2.436,1.039c-0.734,0.209-1.301,0.231-1.688,0.507
										c-0.969,0.688-1.978,0.949-3.135,0.705c-0.494-0.104-0.998-0.163-1.499-0.225c-2.19-0.269-4.439-0.16-6.527-1.094
										c-0.346-0.154-0.873-0.158-1.218-0.009C18.261,4.333,17.244,4,16.185,3.682c-0.506-0.151-0.937-0.043-1.19,0.595
										c-0.238,0.6-0.706,1.104-1.054,1.664c-0.351,0.563-0.678,1.141-0.965,1.625c1.021,0.123,1.914,0.184,2.786,0.352
										c0.915,0.176,1.805,0.469,2.711,0.689c0.487,0.119,1.021,0.119,1.464,0.32c0.286,0.131,0.643,0.561,0.61,0.809
										c-0.033,0.26-0.462,0.584-0.775,0.668c-0.445,0.121-0.942,0.053-1.417,0.061c-1.293,0.018-1.536,0.359-0.964,1.611
										c-1.077,0.229-2.122,0.451-3.167,0.672c0.012,0.146,0.023,0.293,0.035,0.439c0.689,0.102,1.377,0.203,2.148,0.316
										c0,0.447,0,0.898,0,1.457c1.685-0.359,2.899,0.451,4.072,1.357c1.288,0.993,2.804,1.208,4.359,1.44
										c2.12,0.313,3.654-1.241,5.563-1.573c0.5-0.086,0.439-0.631,0.047-0.861c-0.291-0.17-0.738-0.236-1.063-0.152
										c-0.888,0.23-1.731,0.631-2.621,0.83c-0.349,0.078-0.818-0.139-1.154-0.35c-0.167-0.105-0.301-0.623-0.204-0.73
										c0.246-0.27,0.627-0.42,0.963-0.602c0.074-0.041,0.2,0.02,0.28-0.016c0.242-0.105,0.632-0.201,0.67-0.367
										c0.045-0.203-0.144-0.572-0.34-0.695c-0.529-0.332-1.103-0.604-1.684-0.834c-0.556-0.223-1.21-0.262-1.695-0.572
										c-0.384-0.248-0.892-0.92-0.786-1.172c0.167-0.404,0.825-0.898,1.224-0.855c0.917,0.094,1.833,0.414,2.692,0.781
										c0.869,0.371,1.632,0.992,2.504,1.35c2.479,1.021,4.795,0.662,6.135-1.666c0.424-0.736,0.879-0.9,1.582-0.779
										c0.361,0.063,0.707,0.219,1.068,0.287c0.451,0.086,1.035,0.332,1.35,0.146c1.016-0.594,2.104-0.301,3.139-0.48
										c0.754-0.129,1.463-0.514,2.191-0.785c-0.037-0.125-0.074-0.25-0.111-0.375c-0.668-0.248-1.242,1.307-1.852,0.395
										c0.9-0.656,1.777-1.289,2.643-1.934c0.416-0.309,0.725-0.447,1.037,0.176c0.147,0.293,0.558,0.553,0.896,0.643
										c1.551,0.408,3.082,0.701,4.182,2.137c0.686,0.893,1.877,1.139,3.025,0.977c1-0.141,1.979-0.436,2.979-0.572
										c0.795-0.107,0.556-0.744,0.653-1.172c0.021-0.092-0.479-0.426-0.754-0.447c-0.789-0.064-1.588,0.004-2.383-0.033
										c-1.992-0.094-2.771-1.459-1.84-3.191c0.123-0.23,0.23-0.471,0.379-0.766c-1.795-0.19-3.836,0.604-4.65-1.705
										c-0.336,0-0.614,0-0.911,0c-0.229,0.805-0.461,1.609-0.688,2.416c-0.367,1.293-1.567,0.43-2.271,0.865
										c-0.145,0.09-0.383,0.086-0.561,0.041c-0.357-0.092-0.826-0.137-1.027-0.381c-0.76-0.929-1.617-1.064-2.703-0.662
										c-0.543,0.199-1.42-0.597-1.135-0.887c0.955-0.97,0.83-1.952,0.338-3.031C39.908,1.074,39.97,0.949,40,0.766
										c-0.402,0.033-0.844-0.063-0.996,0.104c-0.592,0.653-1.092,1.392-1.625,2.098L37.399,2.963z M43.319-5.516
										c-0.682,0.318-1.137,0.673-1.625,0.724c-0.732,0.075-1.266,0.238-1.24,1.075c0.027,0.798,0.287,1.363,1.26,1.466
										c0.43,0.046,1.137,0.504,1.158,0.816c0.057,0.758,0.395,1.201,0.908,1.67c0.801,0.733,0.748,1.092-0.121,1.713
										c0.863,0.486,1.799,0.605,2.797,0.184c1.778-0.754,3.553-1.047,5.435-0.354c0.348,0.127,1.086,0.026,1.202-0.199
										c0.755-1.441,1.929-1.86,3.47-1.901c1.078-0.028,2.139-0.46,3.223-0.592c0.9-0.109,1.117-0.349,1.012-1.276
										c-0.035-0.313,0.189-0.687,0.379-0.982c0.133-0.21,0.396-0.336,0.924-0.75c-2.229-0.091-3.219-1.008-2.729-3.094
										c-0.506-0.036-0.91-0.009-1.281-0.109c-0.391-0.107-0.961-0.252-1.071-0.531c-0.277-0.722-0.797-0.668-1.375-0.731
										c-0.742-0.081-1.478-0.269-2.302-0.428c-0.606,0.425-1.407,0.982-2.204,1.546c-0.593,0.42-1.195,0.829-1.757,1.29
										c-0.164,0.136-0.33,0.506-0.26,0.643c0.106,0.203,0.424,0.403,0.655,0.414c0.597,0.026,1.226,0.037,1.795-0.109
										c1.628-0.415,3.136-0.101,4.564,0.666c0.285,0.152,0.631,0.584,0.596,0.835c-0.043,0.281-0.451,0.594-0.768,0.723
										c-0.363,0.151-0.807,0.16-1.213,0.153c-1.283-0.019-2.258,0.415-2.883,1.619c-0.193,0.376-0.643,0.747-1.047,0.868
										c-1.471,0.438-2.984,0.576-4.479,0.105c-0.271-0.086-0.607-0.527-0.605-0.802c0.012-1.422,0.049-1.438-1.34-1.812
										c-0.766-0.205-1.109-0.668-1.078-1.449C43.335-4.584,43.319-5.042,43.319-5.516z M44.313,35.037
										c-1.094,0.328-2.223,0.656-3.348,1.006c-0.391,0.125-0.777,0.277-1.137,0.473c-1.191,0.664-1.395,0.672-2.201-0.41
										c-0.52-0.692-1.145-0.955-1.971-0.858c-0.406,0.045-0.82,0.062-1.23,0.104c-0.748,0.08-1.336-0.144-1.57-0.904
										c-0.248-0.801,0.074-1.393,0.848-1.656c0.715-0.242,1.451-0.443,2.195-0.561c1.594-0.244,3.205-0.388,4.795-0.65
										c0.471-0.078,1.055-0.338,0.844-1.023c-0.211-0.693-0.771-0.457-1.273-0.387c-1.051,0.148-2.105,0.254-3.158,0.391
										c-0.139,0.021-0.266,0.125-0.402,0.181c-0.447,0.188-0.885,0.483-1.348,0.532c-0.875,0.088-1.764,0.015-2.646,0.041
										c-1.916,0.054-2.422,0.582-2.723,1.832c0.205,0.082,0.422,0.14,0.611,0.246c0.299,0.168,0.85,0.438,0.822,0.539
										c-0.105,0.387-0.355,0.762-0.631,1.07c-0.201,0.227-0.559,0.307-0.789,0.514c-0.275,0.252-0.49,0.568-0.855,1.008
										c0.538,0.097,0.807,0.177,1.08,0.187c1.588,0.058,2.793,0.771,3.838,1.963c1.09,1.244,2.293,1.459,3.631,0.484
										c1.539-1.115,3.189-1.373,5.004-1.438c1.102-0.041,2.188-0.455,3.281-0.699c-0.018-0.115-0.031-0.228-0.047-0.345
										c-0.469-0.12-1.09-0.106-1.365-0.407C44.294,35.963,44.364,35.348,44.313,35.037z M34.731-1.105
										c-0.094-0.026-0.293-0.112-0.5-0.134c-1.975-0.204-3.955-0.385-5.93-0.598c-0.874-0.094-1.737-0.291-2.612-0.362
										c-1.115-0.091-2.167,0.135-2.887,1.085c-0.594,0.786-0.159,1.756,0.794,1.799c0.215,0.01,0.487-0.346,0.652-0.292
										c0.764,0.249,1.595,0.457,2.225,0.92c0.993,0.729,1.928,0.661,2.925,0.183C31.179,0.643,32.946-0.233,34.731-1.105z
										 M59.688,43.727c1.108-1.779,1.114-2.172-0.072-3.449c-0.236-0.26-0.793-0.549-0.984-0.438
										c-0.314,0.177-0.59,0.66-0.621,1.033C57.896,42.146,58.639,42.992,59.688,43.727z M13.935,33.627
										c-0.916,0-1.785-0.02-2.649,0.018c-0.16,0.008-0.423,0.24-0.432,0.383c-0.01,0.146,0.21,0.412,0.371,0.445
										c0.841,0.189,1.696,0.324,2.607,0.486C13.872,34.434,13.9,34.072,13.935,33.627z M52.073-12.498
										c0.305,0.132,0.637,0.373,0.989,0.41c0.533,0.055,1.104,0.043,1.611-0.099c0.176-0.05,0.221-0.571,0.326-0.877
										c-0.314-0.049-0.658-0.198-0.943-0.126C53.396-13.022,52.764-12.747,52.073-12.498z M44.927,34.135
										c0.184,0.609,0.275,1.18,0.535,1.658c0.139,0.26,0.656,0.564,0.844,0.484c0.453-0.197,0.387-1.646-0.025-2.174
										C45.804,33.498,45.36,33.801,44.927,34.135z M5.114,27.682c-0.72-0.16-1.221-0.268-1.855-0.41
										C3.784,28.535,3.989,28.588,5.114,27.682z"/>
									<path fill="#EADA7F" d="M-2.243,46.895c0.866-0.149,0.934-0.629,0.516-1.289c-0.311-0.483-0.485-0.949-0.04-1.467
										c0.445-0.52,0.908-0.381,1.438-0.168c0.464,0.188,0.959,0.314,1.452,0.408c1.45,0.287,2.266-0.518,2.069-1.98
										c-0.242-1.805-0.704-3.53-1.64-5.11c-0.142-0.24-0.244-0.502-0.386-0.8c1.091-0.389,2.022-0.079,2.782,0.576
										c1.045,0.896,2.012,1.42,3.409,0.623c0.425-0.242,1.243,0.008,1.802,0.23c1.35,0.533,2.513,0.314,3.748-0.4
										c0.645-0.375,1.511-0.373,2.28-0.522c1.393-0.274,2.206-1.179,2.594-2.479c0.064-0.215-0.159-0.731-0.321-0.766
										c-0.935-0.191-1.892-0.279-2.803-0.398c-0.343-1.367-0.27-1.426,1.014-1.52c0.48-0.031,1.042-0.141,1.402-0.424
										c1.008-0.789,2.075-1.037,3.43-0.639c0.094-0.365,0.265-0.713,0.223-1.033c-0.016-0.119-0.533-0.189-0.828-0.248
										c-3.08-0.588-6.178-0.432-9.275-0.199c-1.091,0.082-2.122,0.092-2.535-1.297c1.398-1.482,3.302-0.859,4.983-1.143
										c0.176,0.231,0.345,0.453,0.566,0.746c0.212-0.652,0.505-1.148,0.514-1.652c0.029-1.469,1.564-1.662,2.196-2.641
										c0.22-0.343,1.401-0.093,2.14-0.058c0.613,0.028,1.223,0.142,1.833,0.217c0.261,0.031,0.523,0.065,0.782,0.113
										c0.208,0.034,0.498,0.198,0.605,0.114c0.81-0.619,1.571-0.129,2.35,0.037c0.336,0.07,0.715,0.213,1.014,0.121
										c0.377-0.115,0.691-0.436,1.031-0.668c-0.276-0.377-0.537-0.768-0.835-1.129c-0.176-0.211-0.412-0.375-0.62-0.561
										c0.273-0.168,0.537-0.459,0.821-0.479c0.853-0.064,1.712-0.007,2.569-0.021c0.876-0.016,1.408-0.404,1.777-1.275
										c0.238-0.563,0.855-1.156,1.427-1.342c1.094-0.354,2.016-0.771,2.674-1.786c0.281-0.434,0.869-0.85,1.371-0.928
										c1.436-0.219,2.895-0.285,4.348-0.35c0.268-0.012,0.609,0.203,0.814,0.416c0.344,0.354,0.412,0.785-0.223,0.893
										c-0.682,0.115-1.379,0.105-2.066,0.199c-0.49,0.064-1.064,0.08-1.434,0.35c-0.363,0.266-0.738,0.84-0.707,1.25
										c0.051,0.699,0.641,1.065,1.385,0.974c0.566-0.072,1.123-0.273,1.686-0.277c0.342-0.004,0.686,0.256,1.027,0.4
										c-0.264,0.245-0.492,0.571-0.805,0.717c-0.324,0.153-0.736,0.113-1.1,0.194c-0.457,0.103-1.129,0.099-1.318,0.39
										c-0.77,1.199-1.895,0.914-2.975,0.92c-0.311,0.002-0.68-0.019-0.918,0.133c-0.555,0.352-0.469,0.807,0,1.309
										c0.639-0.914,1.303-0.629,2.252-0.477c1.504,0.24,2.287,1.486,3.6,1.877c0.809,0.242,1.109,0.943,0.947,1.752
										c-0.166,0.811-0.701,1.299-1.557,1.23c-0.984-0.078-1.963-0.256-2.947-0.351c-0.264-0.022-0.539,0.106-0.783,0.373
										c0.285,0,0.57,0,0.863,0c0.281,0.582,0.545,1.133,0.773,1.606c-1.299,0.375-2.492,0.746-3.701,1.054
										c-0.316,0.081-0.76,0.094-1.008-0.07c-1.675-1.104-2.988-0.219-4.335,0.683c-0.774,0.514-1.613,0.938-2.382,1.461
										c-0.329,0.223-0.746,0.576-0.788,0.914c-0.093,0.719-0.005,1.475,0.078,2.207c0.142,1.258,0.984,2.014,2.223,1.992
										c0.877-0.019,1.397,0.217,1.8,1.141c0.241,0.555,1.177,0.879,1.863,1.143c1.025,0.396,1.328,1.281,0.635,2.199
										c-1.121,1.488-3.304,2.092-5.048,1.34c-0.576-0.25-1.181-0.547-1.619-0.98c-2.226-2.197-4.887-2.401-7.77-1.895
										c-1.146,0.203-2.152,0.164-3.375-0.469c-1.167-0.604-2.945-0.877-4.385-0.094c-0.361,0.196-0.576,0.869-0.616,1.342
										c-0.016,0.195,0.579,0.559,0.942,0.645c0.546,0.131,1.139,0.045,1.7,0.131c0.394,0.059,0.768,0.246,1.246,0.408
										c-0.678,1.072-1.654,0.922-2.474,1.1c-0.616,0.138-1.302,0.035-1.872,0.258c-0.495,0.191-1.246,0.705-1.234,1.056
										c0.047,1.427-0.469,2.394-1.884,2.938c0.418,0.299,0.691,0.492,1.002,0.715c-0.317,0.717-0.689,0.928-1.261,0.295
										c-0.127-0.143-0.228-0.35-0.386-0.412c-0.32-0.127-0.672-0.174-1.01-0.254c-0.076,0.367-0.292,0.777-0.195,1.094
										c0.155,0.5,0.521,0.934,0.798,1.395c-1.779,0-3.558,0-5.336,0C-2.243,49.311-2.243,48.104-2.243,46.895z M28.695,23.168
										c-0.969,0.389-1.766,0.707-2.677,1.074C27.284,24.889,28.262,24.537,28.695,23.168z M21.583,37.176
										c-0.262-0.234-0.507-0.641-0.769-0.652c-0.402-0.016-0.843,0.195-1.202,0.412c-0.077,0.047,0.081,0.779,0.208,0.806
										C20.442,37.861,21.14,38.006,21.583,37.176z M13,39.609c0.884-0.398,1.426-0.646,1.968-0.891
										c-0.03-0.14-0.061-0.275-0.09-0.419c-0.597,0.052-1.203,0.063-1.78,0.193C13.003,38.518,13.037,39.094,13,39.609z"/>
									<path fill="#FFFFFF" d="M44.636-15.61c-0.109,0.581-0.238,1.146,0.641,1.26c0.152,0.021,0.26,0.381,0.426,0.644
										c0.412-0.431,0.861-0.512,1.25,0.254c-0.389,0.181-0.77,0.361-1.154,0.539c0.43,0.653,0.248,1.638-0.58,2.267
										c-0.621,0.47-1.357,0.797-2.068,1.133c-1.111,0.528-2.262,0.97-3.357,1.524c-1.008,0.511-1.91,0.521-2.98,0.063
										c-0.904-0.387-1.963-0.409-2.955-0.584c-0.396-0.07-0.795-0.116-1.227-0.177c0.633-1.293,0.602-1.239-0.553-1.909
										c-0.426-0.249-0.826-0.781-0.951-1.26c-0.289-1.083-1.258-1.796-2.382-1.789c-1.098,0.008-1.939,0.229-2.544,1.254
										c-0.167,0.282-0.919,0.482-1.254,0.348c-0.829-0.33-1.15,0.085-1.508,0.667c-0.561,0.91-1.436,0.914-2.058-0.009
										c-0.141,0.224-0.244,0.453-0.404,0.631c-0.745,0.831-0.688,1.266,0.299,1.836c0.821,0.473,1.646,0.942,2.494,1.367
										c0.658,0.331,1.31,0.343,1.954-0.139c0.279-0.209,0.679-0.255,1.016-0.394c0.16-0.066,0.442-0.211,0.43-0.259
										c-0.058-0.23-0.198-0.44-0.318-0.674c0.537-0.491,0.856-0.3,1.327,0.268c0.578,0.699,1.382,1.211,2.088,1.805
										c0.268,0.224,0.729,0.431,0.752,0.678c0.033,0.338-0.184,0.911-0.447,1.025c-0.939,0.408-1.933,0.877-2.928,0.934
										c-2.018,0.115-3.965-0.434-5.803-1.265c-2.2-0.997-4.432-1.487-6.833-0.832c-0.477,0.131-1.013,0.092-1.516,0.054
										c-0.321-0.023-0.63-0.188-0.945-0.29c0.113-0.295,0.228-0.591,0.344-0.894c-0.778-0.189-1.62-0.421-2.474-0.597
										C9.139-8.394,8.104-7.839,7.741-6.737C7.505-6.026,7.819-5.515,8.573-5.542c0.687-0.024,1.372-0.275,2.052-0.252
										c0.418,0.014,1.061,0.258,1.188,0.568c0.262,0.635-0.126,1.255-0.822,1.323C10.29-3.835,9.565-4.026,8.849-4.088
										C8.1-4.151,7.346-4.264,6.603-4.213c-0.287,0.021-0.742,0.411-0.77,0.671c-0.035,0.327,0.2,0.862,0.475,1.006
										c0.593,0.313,1.3,0.398,1.934,0.646c0.335,0.13,0.864,0.382,0.883,0.612c0.145,1.771,1.337,2.704,2.664,3.559
										c0.208,0.135,0.406,0.284,0.637,0.447c-0.146,0.346-0.275,0.655-0.5,1.189c0.338-0.372,0.516-0.568,0.775-0.855
										c0.414,1.814-1.839,2.498-1.419,4.18c-0.084,0.041-0.167,0.084-0.251,0.125c-0.858-0.613-1.784-1.15-2.552-1.861
										C7.823,4.898,7.275,4.716,6.596,5.34c-0.524,0.482-1.005,0.456-1.69,0.23C4.075,5.292,3.137,5.333,2.243,5.255
										C1.964,5.234,1.597,5.404,1.409,5.277c-1.161-0.775-2.19-0.389-3.216,0.26c0.245-0.459,0.489-0.918,0.794-1.488
										c-0.311-0.105-0.771-0.262-1.23-0.415c0-0.636,0-1.271,0-1.906c1.02-0.017,2.089,0.06,2.375-1.339
										c0.372,0.166,0.684,0.413,1.002,0.42c0.399,0.01,0.803-0.175,1.205-0.275C2.217,0.135,2.211-0.471,1.951-0.614
										C1.468-0.875,0.84-0.894,0.267-0.959c-0.365-0.043-0.739,0.016-1.109,0.021C-1.878-0.924-1.78-1.953-2.241-2.465
										c0-0.19,0-0.382,0-0.572c1.019,0.421,2.038,0.84,3.063,1.264c0.009-0.051-0.007-0.199,0.06-0.275
										C1.81-3.103,1.769-3.054,0.618-3.966c-0.54-0.428-0.88-1.108-1.397-1.79c1.067-0.228,1.83-0.389,2.59-0.551
										C1.789-6.418,1.765-6.529,1.742-6.641C0.919-6.582,0.096-6.524-0.726-6.466c-0.35-1.056-0.699-2.112-1.07-3.228
										c0.903,0,1.909,0.61,2.593-0.463c-0.321-0.402-0.785-0.74-0.902-1.173c-0.392-1.452-0.721-1.789-2.136-1.808
										c0-0.825,0-1.652,0-2.478c1.27,0,2.541,0,3.811,0c0.508,0.521,1.016,1.042,1.523,1.563
										c0.078-0.066,0.155-0.133,0.234-0.199c0.03-0.261,0.062-0.522,0.094-0.804c1.272,0.56,2.481,0.924,3.68,0
										c0.26,0.309,0.473,0.697,0.8,0.893c0.168,0.101,0.541-0.144,0.823-0.231c-0.009-0.106-0.018-0.213-0.027-0.319
										c-0.539-0.107-1.079-0.214-1.618-0.32c0.499-0.024,1.149-0.259,1.469-0.031c0.839,0.6,1.602,0.935,2.66,0.283
										c-0.154,0.474-0.349,0.911-0.646,0.997c-0.595,0.172-1.245,0.138-1.87,0.215c-0.49,0.06-0.976,0.16-1.463,0.242
										c0.021,0.094,0.044,0.188,0.066,0.281c1.757,0.277,3.468,0.332,4.779-1.254c0.746,1.263,1.767,1.687,3.032,1.647
										c-0.011,0.78,0.471,0.586,0.934,0.511c0.744-0.121,1.638-0.663,2.072,0.639c0.03-0.389-0.009-0.778-0.212-0.908
										c-0.977-0.621-0.618-1.967-1.479-2.642c-0.049-0.038,0.129-0.367,0.202-0.56c1.334,0,2.668,0,4.002,0
										c0.258,0.668,0.447,1.379,0.81,1.987c0.152,0.256,0.672,0.293,1.024,0.429c0.006-0.373,0.083-0.76,0.003-1.113
										c-0.102-0.449-0.329-0.87-0.503-1.303c1.081,0,2.161,0,3.24,0c0.632,0.967,1.083,0.967,1.715,0c3.62,0,7.241,0,10.862,0
										c0.084,0.833-0.525,0.895-1.098,0.954c-0.879,0.09-1.768,0.117-2.646,0.218c-0.799,0.093-1.449,0.863-1.316,1.585
										c0.137,0.748,0.484,1.23,1.42,1.069c0.98-0.171,1.842,0.215,2.627,0.838c1.162,0.923,1.922,0.934,3.047-0.03
										c0.871-0.746,1.773-1.007,2.889-0.718c0.951,0.245,1.762,0.009,2.186-0.92c-1.49-1.444-3.293-1.737-5.268-1.445
										c-0.234,0.035-0.506-0.161-0.76-0.25c0.568-0.296,1.105-0.333,1.613-0.479c0.83-0.237,1.637-0.545,2.455-0.824
										C43.491-15.61,44.063-15.61,44.636-15.61z M18.612-9.525c-1.775,0.048-3.104,0.877-4.44,1.688
										C15.714-8.066,17.458-7.71,18.612-9.525z M11.179-12.49c0.033,0.108,0.067,0.215,0.101,0.323
										c0.631,0.195,1.208,0.264,1.403-0.805C12.124-12.792,11.651-12.642,11.179-12.49z M5.438-1.143
										c0.051-0.144,0.103-0.287,0.154-0.43c-0.4-0.159-0.8-0.316-1.2-0.475C4.343-1.936,4.294-1.823,4.245-1.709
										C4.643-1.521,5.04-1.333,5.438-1.143z M8.684-0.743C8.685-0.82,8.686-0.896,8.688-0.971c-0.511,0-1.022,0-1.532,0
										c0.003,0.104,0.007,0.204,0.01,0.307C7.672-0.692,8.178-0.717,8.684-0.743z"/>
									<path fill="#EADA7F" d="M63.88,21.934c-0.082,0.357-0.2,0.715-0.25,1.08c-0.129,0.99-0.34,1.855-1.524,2.139
										c-0.211,0.052-0.426,0.695-0.4,1.052c0.098,1.368-0.264,1.942-1.598,2.192c-0.523,0.101-1.094,0.021-1.604,0.164
										c-0.489,0.137-1.026,0.355-1.369,0.707c-0.651,0.67-2.467,1.031-3.325,0.644c-0.609-0.279-1.308-0.562-1.945-0.522
										c-1.857,0.11-3.396-0.461-4.779-1.679c-0.906-0.795-1.9-1.51-3.234-1.399c-0.055-0.08-0.109-0.16-0.168-0.24
										c0.818-0.697,1.639-1.396,2.545-2.166c-1.176-0.764-2.268-1.428-3.65-1.379c-0.439,0.016-0.92,0.055-1.314-0.094
										c-0.324-0.123-0.549-0.509-0.818-0.777c0.316-0.154,0.643-0.457,0.943-0.434c0.863,0.063,1.561-0.142,2.105-0.82
										c0.215,0.973,0.418,1.07,1.559,0.604c-0.6-0.221-1.09-0.401-1.582-0.582c0.514-0.625,0.598-1.094-0.131-1.745
										c-0.543-0.489-0.84-1.335-1.039-2.078c-0.07-0.26,0.412-0.793,0.764-1.004c0.416-0.252,0.957-0.322,1.453-0.414
										c0.746-0.141,0.979-0.486,0.5-1.191c0.602-0.23,1.004-0.23,0.896,0.525c-0.07,0.508,0.02,0.719,0.601,0.602
										c0.338-0.066,0.764-0.061,1.059,0.094c1.146,0.596,2.242,1.293,3.393,1.887c0.332,0.172,0.775,0.125,1.248-0.01
										c-1.184,0.105-1.496-0.814-2.09-1.477c-0.57-0.641-1.43-1.021-2.152-1.527c-0.42-0.291-0.824-0.605-1.234-0.91
										c0.064-0.133,0.13-0.266,0.195-0.398c0.93,0.33,1.857,0.654,2.783,0.99c0.178,0.064,0.342,0.24,0.512,0.24
										c0.383,0.002,0.961,0.064,1.107-0.145c0.229-0.326,0.164-0.857,0.229-1.338c0.584,0.396,1.265,0.904,1.984,1.34
										c0.73,0.438,1.506,0.807,2.287,1.221c0.5-1.311,0.596-1.322,1.672-0.861c0.406,0.176,0.885,0.209,1.334,0.256
										c0.771,0.082,1.549,0.127,2.516,0.201c-0.453,0.836-0.803,1.486-1.16,2.146c-1.088-0.564-2.149-0.646-3.196-0.09
										c-0.222,0.117-0.313,0.473-0.472,0.719c0.248,0.15,0.482,0.389,0.75,0.439c1.097,0.209,2.216,0.313,3.302,0.555
										c0.539,0.118,1.017,0.483,1.545,0.678c0.576,0.211,1.181,0.351,1.769,0.521C63.88,20.408,63.88,21.17,63.88,21.934z
										 M44.729,19.824c0.904,0.402,1.248,0.295,1.318-0.402c0.057-0.566,0.117-1.135,0.205-1.98
										c-0.291,0.566-0.445,0.945-0.666,1.281C45.331,19.107,45.019,19.457,44.729,19.824z M56.602,22.102
										c0.821-0.375,0.971-0.926,0.645-1.771c-0.273-0.715-0.473-0.828-1.266-0.574C57.055,20.262,57.066,21.057,56.602,22.102z
										 M57.253,18.1c-0.139,0.129-0.274,0.262-0.412,0.392c0.293,0.287,0.582,0.572,0.873,0.859
										c0.119-0.123,0.354-0.338,0.343-0.354C57.807,18.686,57.525,18.395,57.253,18.1z M59.154,23.074
										c-0.625-0.883-1.086-0.963-1.729-0.357C57.98,22.83,58.514,22.939,59.154,23.074z"/>
									<path fill="#FFFFFF" d="M21.958,50.518c0.759-0.32,1.758-0.25,1.855-1.533c0.024-0.321,0.97-0.573,1.476-0.646
										c0.347,0.05,0.696,0.146,1.042,0.138c0.868-0.021,1.735-0.082,2.604-0.123c0.406-0.021,0.822,0.02,1.214-0.06
										c0.814-0.153,1.152-0.61,0.777-1.438c-0.092-0.201-0.148-0.418-0.205-0.635c-0.275-1.027,0.084-1.561,1.105-1.359
										c1.512,0.302,2.811-0.116,4.084-0.825c0.213-0.119,0.453-0.188,1.018-0.41c-0.184,0.737-0.297,1.235-0.434,1.731
										c-0.139,0.504-0.342,0.994-0.434,1.511c-0.113,0.61,0.064,1.053,0.83,1.041c0.674-0.009,1.158-0.224,1.084-0.974
										c-0.09-0.944,0.434-1.188,1.227-1.311c0.742-0.111,1.471-0.33,2.328-0.527c-0.266-0.385-0.441-0.643-0.617-0.896
										c-0.545-0.795-0.357-1.447,0.559-1.729c0.537-0.158,1.109-0.229,1.672-0.262c0.822-0.043,1.65-0.02,2.475-0.008
										c1.877,0.027,2.637-0.49,3.344-2.316c0.474-1.215,0.459-1.188,1.563-0.631c0.326,0.164,0.75,0.137,1.377,0.234
										c-0.271-0.604-0.43-0.953-0.606-1.344c0.619-0.267,1.343-0.574,1.679,0.125c0.188,0.387-0.226,1.059-0.351,1.539
										c0.506,0.416,1.11,0.981,1.795,1.438c0.347,0.23,0.824,0.264,1.252,0.369c0.565,0.143,1.142,0.271,1.705,0.406
										c-0.369,1.912-1.483,2.488-3.565,2.076c-0.953-0.188-1.939-0.265-2.908-0.313c-0.562-0.029-1.082,0.155-1.166,0.853
										c-0.057,0.459-0.023,0.793,0.604,0.811c0.494,0.014,0.998,0.168,1.467,0.338c0.271,0.102,0.683,0.354,0.689,0.553
										c0.059,1.303,0.898,1.461,2.207,1.344c-1.227,0.939-2.246,1.574-3.572,1.607c-1.447,0.039-2.912,0.033-4.34,0.24
										c-0.688,0.1-1.313,0.645-1.963,0.984c-0.57,0-1.143,0-1.715,0c0.4-1.004,0.283-1.291-0.715-1.713
										c-0.803-0.343-1.609-0.677-2.412-1.013c0.293-0.104,0.582-0.213,0.873-0.319c-0.201-0.248-0.404-0.498-0.604-0.746
										c-0.082,0.045-0.162,0.096-0.242,0.141c0,0.316,0,0.635,0,0.947c-0.186-0.01-0.393-0.08-0.547-0.021
										c-0.486,0.194-1.086,0.332-1.381,0.701c-0.225,0.286-0.088,0.889-0.043,1.344c0.023,0.233,0.197,0.453,0.307,0.681
										C32.886,50.518,27.421,50.518,21.958,50.518z"/>
									<path fill="#EADA7F" d="M-2.243,16.406c0.456,0.129,1.006,0.141,1.349,0.412c0.772,0.614,1.215,0.365,1.644-0.367
										c0.14-0.238,0.397-0.404,0.593-0.611c1.057-1.113,1.272-1.145,2.601-0.393c1.033,0.584,1.259,0.523,1.786-0.584
										c0.462,1.008,1.215,1.367,2.25,1.209c0.21-0.033,0.52,0.117,0.678,0.283c0.844,0.895,1.63,1.844,2.488,2.721
										c0.494,0.508,1.054,0.967,1.643,1.359c0.541,0.36,1.209,0.563,1.203,1.502c-0.288-0.045-0.519-0.076-0.749-0.117
										c-0.343-0.063-0.691-0.217-1.023-0.187c-1.196,0.111-2.408,0.193-3.575,0.462c-1.188,0.27-2.33,0.741-3.56,1.147
										c0.258,0.438,0.442,0.745,0.626,1.06C3.627,22.904,2.04,23.941,0.565,25.4c-0.535-0.892-1.003-1.674-1.571-2.617
										c1.351-0.861,2.65-1.682,3.941-2.516c0.697-0.451,1.391-0.447,2.021,0.063c0.484,0.393,0.896,0.262,1.089-0.184
										c0.202-0.467,0.342-1.08-0.395-1.342c-0.118-0.043-0.274-0.031-0.362-0.103c-1.346-1.117-2.734-1.682-4.29-0.379
										c-1.08-0.322-2.161-0.645-3.241-0.965C-2.243,17.041-2.243,16.724-2.243,16.406z"/>
									<path fill="#EADA7F" d="M-2.243,25.553c1.017-0.07,1.586,0.307,2.04,1.328c0.539,1.219,1.563,2.107,3.247,1.607
										c-0.099,0.398-0.16,0.592-0.194,0.793c-0.144,0.854,0.154,1.17,0.977,0.914c1.205-0.373,2.199-0.258,3.026,0.818
										c0.444,0.579,1.094,0.764,1.876,0.594C9.25,31.494,10,31.18,10.212,32.082c0.138,0.594-0.584,1.289-1.405,1.193
										c-1.08-0.125-2.179-0.346-3.19-0.736c-1.257-0.482-2.395-0.676-3.601,0.119c-0.75,0.494-1.496,0.369-2.105-0.363
										c-0.423-0.512-0.858-1.018-1.35-1.455c-0.173-0.154-0.53-0.102-0.804-0.141C-2.243,28.982-2.243,27.268-2.243,25.553z"/>
									<path d="M42.923-15.61c-0.818,0.278-1.625,0.586-2.455,0.824c-0.506,0.146-1.045,0.182-1.613,0.479
										c0.254,0.088,0.525,0.284,0.76,0.25c1.975-0.292,3.777,0.001,5.268,1.445c-0.424,0.93-1.234,1.166-2.186,0.92
										c-1.115-0.29-2.018-0.028-2.889,0.718c-1.125,0.964-1.885,0.953-3.047,0.03c-0.785-0.623-1.646-1.009-2.627-0.838
										c-0.936,0.161-1.283-0.321-1.42-1.069c-0.133-0.723,0.518-1.493,1.316-1.585c0.879-0.102,1.768-0.128,2.646-0.218
										c0.572-0.06,1.182-0.121,1.098-0.954C39.491-15.61,41.204-15.61,42.923-15.61z"/>
									<path d="M7.099-15.05c-1.198,0.924-2.407,0.561-3.68,0c-0.033,0.281-0.064,0.542-0.094,0.804
										c-0.079,0.066-0.156,0.133-0.234,0.199c-0.508-0.52-1.016-1.042-1.523-1.563c5.019,0,10.037,0,15.055,0
										c-0.072,0.193-0.251,0.522-0.202,0.56c0.861,0.674,0.502,2.021,1.479,2.642c0.203,0.129,0.242,0.519,0.212,0.908
										c-0.434-1.301-1.328-0.759-2.072-0.639c-0.463,0.075-0.944,0.27-0.934-0.511c-1.266,0.04-2.287-0.384-3.032-1.647
										c-1.312,1.586-3.022,1.531-4.779,1.254c-0.022-0.094-0.045-0.188-0.066-0.281c0.488-0.082,0.973-0.182,1.463-0.242
										c0.625-0.077,1.275-0.043,1.87-0.215c0.296-0.086,0.491-0.523,0.645-0.997c-1.059,0.652-1.821,0.317-2.66-0.283
										c-0.319-0.229-0.97,0.007-1.469,0.031L7.099-15.05z"/>
									<path fill="#FFFFFF" d="M60.266,50.518c0.08-0.813-0.185-1.606,0.219-2.465c0.328-0.705-0.324-1.275-1.058-1.514
										c-0.354-0.117-0.727-0.164-1.168-0.254c0.064-0.186,0.091-0.496,0.214-0.541c0.928-0.334,1.862-0.688,2.827-0.861
										c0.229-0.045,0.615,0.523,0.869,0.855c0.445,0.59,0.711,1.408,1.711,1.154c0,1.078,0.015,2.16-0.016,3.237
										c-0.005,0.134-0.236,0.257-0.365,0.384c0.104-0.933-0.592-1.039-1.205-1.043c-0.719-0.007-1.592-0.072-1.647,1.043
										C60.52,50.518,60.391,50.518,60.266,50.518z"/>
									<path fill="#FFFFFF" d="M63.88,30.508c-0.353,0.1-0.692,0.258-1.053,0.281c-1.078,0.07-1.42,0.426-1.31,1.492
										c0.025,0.246,0.228,0.52,0.162,0.725c-0.123,0.395-0.336,0.781-0.602,1.096c-0.066,0.082-0.602-0.037-0.686-0.19
										c-0.222-0.399-0.365-0.861-0.418-1.313c-0.021-0.188,0.229-0.453,0.422-0.604c0.975-0.765,1.264-1.843,1.449-2.981
										c0.088-0.529,0.215-1.052,0.325-1.576c0.197-0.938,0.771-1.5,1.703-1.689C63.88,27.33,63.88,28.918,63.88,30.508z"/>
									<path d="M39.981,47.793c0.805,0.336,1.613,0.67,2.416,1.012c1,0.422,1.117,0.709,0.715,1.713c-1.588,0-3.178,0-4.766,0
										c-0.107-0.227-0.281-0.442-0.305-0.678c-0.047-0.457-0.184-1.059,0.041-1.344c0.295-0.371,0.896-0.506,1.381-0.703
										c0.154-0.061,0.363,0.012,0.547,0.021L39.981,47.793z"/>
									<path d="M-2.243-13.132c1.415,0.019,1.744,0.356,2.136,1.808c0.117,0.433,0.581,0.771,0.902,1.173
										C0.11-9.078-0.895-9.688-1.798-9.688c0.371,1.116,0.72,2.171,1.07,3.228l0.027-0.019C-1.215-6.41-1.728-6.34-2.242-6.271
										C-2.243-8.559-2.243-10.846-2.243-13.132z"/>
									<path d="M-0.729-6.461c0.822-0.058,1.645-0.116,2.468-0.175c0.023,0.112,0.047,0.223,0.069,0.334
										c-0.76,0.162-1.522,0.323-2.59,0.551c0.517,0.682,0.857,1.362,1.397,1.79c1.151,0.912,1.191,0.863,0.264,1.916
										C0.813-1.969,0.828-1.82,0.819-1.769c-1.025-0.423-2.044-0.843-3.063-1.264c0-0.699,0-1.397,0-2.095
										c0.725-0.211,1.388-0.491,1.541-1.352L-0.729-6.461z"/>
									<path fill="#FFFFFF" d="M63.88,5.542c-1.146,0.104-2.291,0.223-3.438,0.301c-0.308,0.02-0.654-0.02-0.916-0.158
										c-0.271-0.145-0.629-0.432-0.646-0.678c-0.02-0.238,0.309-0.662,0.557-0.73c0.9-0.25,1.828-0.414,2.756-0.552
										c0.558-0.083,1.132-0.062,1.691-0.086C63.88,4.273,63.88,4.908,63.88,5.542z"/>
									<path d="M-2.243-2.459c0.462,0.513,0.363,1.541,1.399,1.527c0.37-0.006,0.745-0.064,1.109-0.021
										C0.838-0.887,1.466-0.87,1.949-0.608c0.26,0.143,0.267,0.749,0.388,1.146C1.936,0.639,1.531,0.824,1.132,0.814
										C0.814,0.806,0.502,0.56,0.13,0.394c-0.285,1.398-1.355,1.323-2.375,1.339C-2.243,0.335-2.243-1.063-2.243-2.459z"/>
									<path d="M21.958-15.61c0.174,0.433,0.402,0.854,0.503,1.303c0.08,0.353,0.003,0.74-0.003,1.113
										c-0.352-0.136-0.872-0.173-1.024-0.429c-0.363-0.607-0.552-1.318-0.81-1.987C21.07-15.61,21.514-15.61,21.958-15.61z"/>
									<path d="M60.646,50.518c0.057-1.117,0.93-1.049,1.647-1.043c0.613,0.002,1.312,0.109,1.205,1.043
										C62.552,50.518,61.598,50.518,60.646,50.518z"/>
									<path fill="#FFFFFF" d="M63.88-1.506c-0.203-0.066-0.428-0.104-0.612-0.207c-0.279-0.15-0.535-0.348-0.804-0.524
										c0.322-0.239,0.634-0.495,0.97-0.711c0.116-0.077,0.299-0.059,0.446-0.083C63.88-2.524,63.88-2.016,63.88-1.506z"/>
									<path d="M-2.243,3.639c0.459,0.153,0.919,0.31,1.23,0.415c-0.305,0.572-0.55,1.029-0.794,1.488c-0.146,0-0.291,0-0.436,0
										C-2.243,4.908-2.243,4.273-2.243,3.639z"/>
									<path fill="#FFFFFF" d="M-0.702-6.48c-0.153,0.861-0.816,1.141-1.541,1.352c0-0.382,0-0.763,0-1.145
										C-1.729-6.341-1.216-6.41-0.702-6.48z"/>
									<path fill="#FFFFFF" d="M-2.243,19.646c0.266,0.057,0.531,0.115,0.783,0.17c0.271,0.861-0.335,1.26-0.783,1.733
										C-2.243,20.914-2.243,20.281-2.243,19.646z"/>
									<path fill="#FFFFFF" d="M16.813,50.518c0.225-0.264,0.449-0.521,0.541-0.629c1.156,0.234,2.118,0.434,3.081,0.629
										C19.227,50.518,18.021,50.518,16.813,50.518z"/>
									<path d="M26.913-15.61c-0.632,0.967-1.083,0.967-1.715,0C25.771-15.61,26.342-15.61,26.913-15.61z"/>
									<path fill="#EADA7F" d="M37.382,2.963c0.535-0.707,1.033-1.444,1.625-2.099c0.15-0.166,0.594-0.07,0.996-0.104
										c-0.029,0.184-0.092,0.309-0.055,0.389c0.49,1.08,0.615,2.063-0.34,3.032c-0.285,0.29,0.594,1.085,1.137,0.886
										c1.084-0.402,1.941-0.266,2.701,0.662c0.201,0.246,0.67,0.289,1.029,0.383c0.176,0.043,0.414,0.047,0.559-0.041
										c0.705-0.438,1.903,0.426,2.271-0.865c0.229-0.808,0.461-1.612,0.689-2.416c0.297,0,0.576,0,0.912,0
										c0.814,2.307,2.857,1.513,4.65,1.705c-0.146,0.295-0.255,0.533-0.38,0.764c-0.93,1.734-0.151,3.098,1.843,3.191
										c0.793,0.039,1.592-0.029,2.381,0.033c0.274,0.021,0.774,0.355,0.754,0.449c-0.1,0.428,0.141,1.063-0.654,1.17
										c-1,0.139-1.979,0.434-2.979,0.574c-1.148,0.16-2.342-0.084-3.025-0.979c-1.102-1.436-2.631-1.727-4.182-2.137
										c-0.34-0.088-0.744-0.348-0.896-0.641c-0.314-0.625-0.621-0.484-1.037-0.176c-0.867,0.645-1.744,1.277-2.645,1.934
										c0.609,0.91,1.186-0.643,1.852-0.395c0.039,0.125,0.076,0.25,0.111,0.375c-0.729,0.271-1.438,0.656-2.189,0.785
										c-1.037,0.18-2.123-0.111-3.139,0.48c-0.314,0.186-0.898-0.061-1.352-0.146c-0.361-0.068-0.707-0.227-1.068-0.287
										c-0.703-0.121-1.156,0.043-1.58,0.779c-1.34,2.328-3.658,2.688-6.136,1.666c-0.873-0.357-1.636-0.979-2.504-1.35
										c-0.859-0.365-1.775-0.686-2.692-0.781c-0.399-0.041-1.057,0.451-1.224,0.855c-0.105,0.254,0.402,0.924,0.786,1.172
										c0.485,0.313,1.139,0.352,1.695,0.572c0.581,0.23,1.155,0.504,1.684,0.834c0.196,0.123,0.385,0.494,0.34,0.697
										c-0.038,0.164-0.428,0.26-0.67,0.365c-0.08,0.037-0.206-0.023-0.28,0.016c-0.336,0.182-0.717,0.332-0.963,0.604
										c-0.097,0.107,0.036,0.623,0.204,0.729c0.336,0.211,0.805,0.428,1.154,0.35c0.89-0.197,1.733-0.598,2.62-0.828
										c0.326-0.086,0.773-0.02,1.063,0.15c0.395,0.232,0.455,0.775-0.047,0.863c-1.908,0.33-3.442,1.885-5.562,1.571
										c-1.555-0.23-3.071-0.447-4.359-1.44c-1.173-0.904-2.387-1.717-4.072-1.355c0-0.559,0-1.01,0-1.457
										c-0.771-0.115-1.459-0.215-2.148-0.318c-0.012-0.145-0.023-0.293-0.035-0.438c1.044-0.223,2.089-0.443,3.167-0.672
										c-0.572-1.252-0.33-1.596,0.964-1.613c0.475-0.006,0.972,0.064,1.417-0.061c0.313-0.084,0.742-0.406,0.775-0.666
										c0.032-0.25-0.324-0.68-0.61-0.809c-0.442-0.203-0.977-0.203-1.464-0.32c-0.906-0.223-1.796-0.516-2.711-0.691
										c-0.872-0.168-1.764-0.229-2.786-0.352c0.287-0.482,0.614-1.063,0.965-1.625c0.348-0.559,0.815-1.064,1.054-1.664
										c0.253-0.637,0.684-0.744,1.19-0.594C17.247,4,18.265,4.333,19.382,3.847c0.345-0.15,0.873-0.145,1.218,0.009
										c2.088,0.933,4.337,0.825,6.527,1.093c0.501,0.063,1.005,0.123,1.499,0.227c1.158,0.242,2.167-0.018,3.134-0.706
										c0.389-0.274,0.953-0.298,1.689-0.507c0.262-1,1.309-1.092,2.434-1.039c0.506,0.023,1.012,0.025,1.514,0.04
										c-0.861,0.463-0.238,0.958,0.043,1.438c-0.379,0.229-0.697,0.422-1.146,0.694c0.934,0.032,1.693-0.134,1.873-0.873
										C38.245,3.888,37.661,3.389,37.382,2.963z M38.542,6.689C38.456,6.8,38.37,6.912,38.286,7.021
										c0.43,0.322,0.857,0.646,1.285,0.969c0.09-0.123,0.18-0.246,0.27-0.369C39.407,7.31,38.976,7,38.542,6.689z M35.685,6.08
										c-0.08,0.047-0.16,0.096-0.242,0.143c0.172,0.279,0.299,0.605,0.533,0.813c0.094,0.082,0.422-0.104,0.76-0.199
										C36.274,6.503,35.979,6.292,35.685,6.08z"/>
									<path fill="#FFFFFF" d="M43.319-5.516c0,0.474,0.018,0.932-0.004,1.389c-0.031,0.781,0.314,1.244,1.078,1.449
										c1.389,0.375,1.352,0.388,1.34,1.812c-0.002,0.273,0.338,0.716,0.607,0.802c1.492,0.472,3.006,0.333,4.477-0.106
										c0.406-0.121,0.855-0.491,1.048-0.867c0.625-1.204,1.602-1.638,2.885-1.619c0.403,0.006,0.849-0.002,1.213-0.153
										c0.313-0.129,0.726-0.442,0.767-0.723c0.037-0.251-0.312-0.683-0.597-0.835c-1.43-0.767-2.938-1.081-4.563-0.666
										c-0.571,0.146-1.198,0.136-1.795,0.109c-0.231-0.01-0.551-0.21-0.655-0.414c-0.07-0.137,0.094-0.506,0.258-0.643
										c0.562-0.461,1.166-0.869,1.758-1.29c0.796-0.564,1.597-1.121,2.205-1.546c0.824,0.159,1.558,0.347,2.302,0.428
										c0.575,0.063,1.096,0.009,1.375,0.731c0.108,0.279,0.682,0.424,1.069,0.531c0.371,0.101,0.776,0.073,1.283,0.109
										c-0.488,2.086,0.502,3.003,2.729,3.094c-0.523,0.414-0.791,0.541-0.923,0.75c-0.188,0.295-0.416,0.67-0.381,0.982
										c0.106,0.927-0.108,1.167-1.01,1.276c-1.084,0.131-2.144,0.562-3.222,0.591c-1.541,0.041-2.717,0.46-3.47,1.9
										c-0.118,0.227-0.854,0.326-1.202,0.199c-1.882-0.693-3.652-0.4-5.437,0.354c-0.998,0.423-1.934,0.304-2.797-0.185
										c0.869-0.621,0.922-0.979,0.121-1.712c-0.512-0.469-0.85-0.913-0.908-1.67c-0.021-0.313-0.727-0.771-1.156-0.817
										c-0.975-0.103-1.234-0.667-1.26-1.465c-0.027-0.837,0.508-1,1.24-1.075C42.181-4.842,42.636-5.198,43.319-5.516z"/>
									<path fill="#EADA7F" d="M44.313,35.037c0.053,0.309-0.02,0.926,0.254,1.225c0.277,0.301,0.896,0.287,1.365,0.408
										c0.016,0.117,0.031,0.229,0.047,0.344c-1.094,0.244-2.18,0.658-3.281,0.699c-1.813,0.066-3.463,0.324-5.004,1.439
										c-1.338,0.975-2.541,0.76-3.631-0.484c-1.045-1.193-2.25-1.906-3.838-1.963c-0.271-0.01-0.541-0.09-1.079-0.186
										c0.367-0.439,0.58-0.756,0.854-1.008c0.23-0.207,0.588-0.287,0.791-0.515c0.273-0.312,0.523-0.685,0.629-1.069
										c0.027-0.103-0.521-0.371-0.82-0.539c-0.189-0.107-0.408-0.164-0.613-0.246c0.303-1.25,0.809-1.781,2.725-1.832
										c0.883-0.025,1.771,0.047,2.646-0.041c0.461-0.049,0.9-0.347,1.346-0.533c0.137-0.055,0.266-0.16,0.404-0.18
										c1.051-0.138,2.105-0.242,3.156-0.392c0.502-0.069,1.064-0.308,1.275,0.388c0.209,0.686-0.375,0.944-0.844,1.022
										c-1.59,0.264-3.203,0.405-4.795,0.649c-0.744,0.117-1.482,0.316-2.197,0.562c-0.773,0.264-1.094,0.854-0.848,1.655
										c0.236,0.763,0.824,0.984,1.572,0.904c0.408-0.043,0.822-0.059,1.23-0.104c0.826-0.096,1.451,0.166,1.971,0.859
										c0.807,1.082,1.008,1.073,2.201,0.41c0.357-0.195,0.746-0.349,1.137-0.474C42.091,35.693,43.22,35.365,44.313,35.037z"/>
									<path fill="#FFFFFF" d="M34.731-1.105c-1.783,0.872-3.553,1.748-5.333,2.601c-0.998,0.479-1.932,0.547-2.925-0.183
										c-0.63-0.463-1.461-0.671-2.225-0.92c-0.166-0.054-0.438,0.302-0.652,0.292c-0.953-0.043-1.388-1.013-0.794-1.799
										c0.721-0.95,1.772-1.176,2.887-1.085c0.875,0.071,1.738,0.269,2.612,0.362c1.975,0.213,3.956,0.394,5.93,0.598
										C34.438-1.217,34.638-1.131,34.731-1.105z"/>
									<path fill="#FFFFFF" d="M59.688,43.727c-1.049-0.733-1.789-1.58-1.681-2.854c0.031-0.373,0.31-0.856,0.621-1.033
										c0.19-0.106,0.748,0.183,0.986,0.438C60.802,41.555,60.796,41.947,59.688,43.727z"/>
									<path fill="#EADA7F" d="M13.935,33.627c-0.035,0.445-0.063,0.809-0.104,1.332c-0.911-0.162-1.766-0.297-2.607-0.486
										c-0.16-0.033-0.38-0.301-0.371-0.445c0.009-0.143,0.272-0.375,0.432-0.383C12.15,33.607,13.019,33.627,13.935,33.627z"/>
									<path fill="#FFFFFF" d="M52.073-12.498c0.688-0.249,1.323-0.523,1.983-0.692c0.285-0.072,0.629,0.077,0.943,0.126
										c-0.105,0.306-0.15,0.827-0.326,0.877c-0.51,0.142-1.078,0.154-1.611,0.099C52.71-12.126,52.378-12.366,52.073-12.498z"/>
									<path fill="#909B4E" d="M44.927,34.135c0.434-0.334,0.877-0.635,1.354-0.031c0.412,0.527,0.479,1.978,0.025,2.174
										c-0.189,0.082-0.707-0.225-0.844-0.483C45.202,35.314,45.11,34.744,44.927,34.135z"/>
									<path fill="#EADA7F" d="M5.114,27.682c-1.125,0.906-1.33,0.854-1.855-0.408C3.893,27.414,4.394,27.521,5.114,27.682z"/>
									<path fill="#052B00" d="M28.695,23.168c-0.433,1.369-1.411,1.723-2.677,1.074C26.929,23.875,27.726,23.557,28.695,23.168z"
										/>
									<path fill="#052B00" d="M21.583,37.176c-0.442,0.83-1.141,0.688-1.763,0.564c-0.126-0.023-0.284-0.756-0.208-0.805
										c0.359-0.218,0.8-0.429,1.202-0.412C21.075,36.535,21.32,36.939,21.583,37.176z"/>
									<path fill="#052B00" d="M13,39.609c0.039-0.516,0.004-1.092,0.098-1.113c0.578-0.133,1.184-0.145,1.78-0.195
										c0.03,0.145,0.06,0.281,0.09,0.42C14.425,38.965,13.883,39.211,13,39.609z"/>
									<path d="M18.612-9.525c-1.153,1.815-2.897,1.459-4.44,1.688C15.508-8.648,16.836-9.477,18.612-9.525z"/>
									<path d="M7.077-15.029c0.539,0.106,1.079,0.213,1.618,0.32c0.009,0.106,0.018,0.212,0.027,0.319
										c-0.282,0.089-0.655,0.333-0.823,0.232c-0.327-0.196-0.54-0.584-0.8-0.893L7.077-15.029z"/>
									<path d="M11.179-12.49c0.472-0.151,0.944-0.302,1.504-0.482c-0.195,1.069-0.772,1-1.403,0.805
										C11.247-12.275,11.213-12.382,11.179-12.49z"/>
									<path d="M5.438-1.143c-0.397-0.19-0.795-0.378-1.192-0.566c0.048-0.113,0.097-0.227,0.146-0.338
										c0.399,0.158,0.8,0.316,1.2,0.476C5.541-1.428,5.488-1.286,5.438-1.143z"/>
									<path d="M8.684-0.743C8.178-0.717,7.672-0.692,7.166-0.665C7.163-0.768,7.16-0.869,7.156-0.972c0.51,0,1.021,0,1.532,0
										C8.688-0.896,8.686-0.82,8.684-0.743z"/>
									<path fill="#052B00" d="M44.729,19.824c0.289-0.367,0.604-0.717,0.857-1.104c0.221-0.334,0.375-0.714,0.666-1.282
										c-0.088,0.848-0.148,1.415-0.205,1.98C45.978,20.119,45.634,20.227,44.729,19.824z"/>
									<path d="M56.602,22.102c0.467-1.045,0.453-1.84-0.621-2.346c0.793-0.254,0.99-0.143,1.266,0.574
										C57.57,21.176,57.423,21.727,56.602,22.102z"/>
									<path d="M57.253,18.1c0.271,0.295,0.554,0.583,0.804,0.898c0.014,0.016-0.224,0.23-0.343,0.354
										c-0.291-0.287-0.58-0.572-0.873-0.859C56.979,18.361,57.114,18.229,57.253,18.1z"/>
									<path d="M59.154,23.074c-0.645-0.135-1.174-0.244-1.729-0.357C58.068,22.109,58.529,22.191,59.154,23.074z"/>
									<path fill="#052B00" d="M43.464,20.418c0.49,0.182,0.984,0.361,1.582,0.582c-1.139,0.467-1.344,0.369-1.559-0.604
										L43.464,20.418z"/>
									<path d="M40.013,47.813c0-0.313,0-0.631,0-0.946c0.08-0.046,0.16-0.095,0.242-0.14c0.199,0.248,0.4,0.496,0.604,0.744
										c-0.291,0.107-0.58,0.217-0.873,0.32C39.981,47.793,40.013,47.813,40.013,47.813z"/>
									<path d="M37.382,2.963c0.279,0.426,0.863,0.924,0.783,1.261c-0.18,0.739-0.939,0.906-1.875,0.873
										c0.451-0.273,0.77-0.465,1.146-0.695c-0.279-0.479-0.902-0.975-0.041-1.438C37.399,2.963,37.382,2.963,37.382,2.963z"/>
									<path d="M38.542,6.689C38.976,7,39.407,7.31,39.841,7.621c-0.09,0.123-0.18,0.246-0.27,0.369
										c-0.428-0.322-0.855-0.646-1.285-0.969C38.37,6.912,38.456,6.8,38.542,6.689z"/>
									<path d="M35.685,6.08c0.295,0.213,0.59,0.424,1.051,0.754c-0.338,0.098-0.666,0.283-0.76,0.201
										C35.741,6.828,35.614,6.5,35.442,6.22C35.524,6.175,35.604,6.128,35.685,6.08z"/>
								</g>
							</g>
						</g>
					</g>
				</g>
			</g>
		</g>
	</g>
</g>
<linearGradient id="xm1014_1_" gradientUnits="userSpaceOnUse" x1="375.585" y1="-260.5981" x2="466.585" y2="-260.5981" gradientTransform="matrix(1 0 0 -1 -374.96 -242.5996)">
	<stop  offset="0" style="stop-color:#B1DB7F;stop-opacity:0"/>
	<stop  offset="0.1061" style="stop-color:#B1DB7F;stop-opacity:0.1061"/>
	<stop  offset="1" style="stop-color:#B1DB7F"/>
</linearGradient>
<path id="xm1014_2_" fill="url(#xm1014_1_)" d="M91.625,11.202c0,0.255-0.011,0.51-0.033,0.767
	c-0.021,0.263-0.085,0.521-0.189,0.765c-0.303,0.198-0.658,0.297-1.021,0.285c-0.556,0.021-1.099,0.032-1.631,0.031v0.323h0.096
	c0.07-0.001,0.131,0.056,0.133,0.127c0,0.011-0.002,0.022-0.004,0.033c0.268-0.007,0.532-0.028,0.799-0.065
	c0.347-0.062,0.703,0.019,0.99,0.224c0.254,0.148,0.42,0.41,0.446,0.702c0.126,0.348,0.159,0.721,0.097,1.084
	c-0.164,0.504-0.574,0.89-1.089,1.021H67.453c-0.385,0.076-0.762,0.194-1.12,0.353c-0.927,0.245-1.885,0.353-2.844,0.319h-6.878
	c-1.364,0.042-2.771,0.063-4.221,0.063H45.42c-0.46,0.025-0.921,0.004-1.376-0.063c-0.236-0.101-0.482-0.176-0.735-0.223h-1.918
	c-0.248-0.077-0.507-0.109-0.767-0.095c-0.379-0.021-0.778-0.043-1.183-0.063h-1.056c-0.203-0.006-0.405,0.004-0.607,0.03
	c-0.214,0.035-0.408,0.149-0.543,0.319c-0.332,0.275-0.729,0.461-1.151,0.542c-0.162-0.029-0.314-0.094-0.447-0.19
	c-0.214-0.063-0.501-0.137-0.864-0.223c-0.358-0.094-0.721-0.168-1.088-0.223c-0.404-0.063-0.649-0.095-0.735-0.095h-1.183
	c-0.398-0.015-0.79,0.097-1.119,0.32c-0.239,0.101-0.425,0.297-0.512,0.541c-0.234,0.235-0.512,0.522-0.83,0.864
	c-0.254,0.291-0.587,0.501-0.959,0.604h-0.544c-0.113,0.084-0.245,0.14-0.384,0.16c-0.073,0.021-0.148,0.031-0.224,0.029
	c-0.189,0-0.51,0.012-0.959,0.03c-0.426,0-0.874,0.021-1.341,0.063c-0.45,0.016-0.898,0.059-1.342,0.127
	c-0.266,0.008-0.522,0.099-0.735,0.256c-0.146,0.191-0.254,0.408-0.319,0.639c-0.172,0.385-0.374,0.854-0.609,1.404
	c-0.276,0.554-0.563,1.148-0.862,1.785c-0.3,0.597-0.588,1.147-0.864,1.66c-0.019,0.299,0.013,0.603,0.095,0.893
	c0.033,0.143,0.076,0.279,0.128,0.415l0.16,0.159c0.061,0.125,0.16,0.226,0.284,0.283c0.125,0.086,0.198,0.229,0.19,0.381
	l-0.13,0.188c-0.127,0.103-0.288,0.146-0.447,0.128c-0.221,0.043-0.445,0.064-0.67,0.068c-0.289-0.004-0.578-0.024-0.864-0.063
	c-0.359-0.084-0.794-0.189-1.305-0.316c-0.533-0.084-1.044-0.178-1.536-0.283c-0.447-0.148-0.841-0.284-1.183-0.415
	c-0.244,0.004-0.478-0.101-0.64-0.283l-0.095-0.128V26.42h-0.033c-0.136-0.105-0.208-0.273-0.189-0.445v-0.223
	c0.157-0.333,0.339-0.652,0.544-0.957c0.316-0.554,0.657-1.182,1.023-1.881c0.363-0.684,0.714-1.32,1.054-1.917
	c0.188-0.341,0.359-0.692,0.512-1.052c0-0.172-0.011-0.396-0.032-0.672c-0.017-0.226-0.107-0.438-0.256-0.605
	c-0.32-0.115-0.653-0.19-0.992-0.223c-0.294-0.066-0.6-0.066-0.895,0c-0.217,0.05-0.446,0.016-0.64-0.096h-0.129
	c0.002-0.095,0.013-0.19,0.032-0.284c-0.002-0.075,0.01-0.15,0.033-0.223c0.037-0.032,0.06-0.078,0.063-0.126
	c-0.084,0-0.479,0.074-1.183,0.221c-0.703,0.129-1.449,0.298-2.238,0.513c-0.788,0.17-1.502,0.351-2.142,0.542
	c-0.664,0.148-1.011,0.223-1.055,0.223c-0.123,0.075-0.231,0.172-0.32,0.285c-0.148,0.229-0.319,0.443-0.511,0.639
	c-0.161,0.209-0.301,0.434-0.417,0.67c-0.128,0.275-0.245,0.563-0.351,0.861c-0.128,0.277-0.235,0.514-0.319,0.703
	c-0.051,0.143-0.115,0.281-0.19,0.415c-0.173,0.099-0.334,0.215-0.479,0.351c-0.363,0.201-0.736,0.383-1.119,0.543
	c-0.554,0.276-1.312,0.596-2.275,0.957H1.489l-0.673-0.224L0.625,12.383l4.989-0.737c0.145-0.012,0.286-0.055,0.414-0.127
	c0.084-0.063,0.16-0.138,0.224-0.223c0.08-0.08,0.154-0.165,0.224-0.254l16.339-1.5v0.189c0.076,0.16,0.172,0.31,0.284,0.447
	c0.049,0.101,0.144,0.172,0.254,0.19c0.025,0.051,0.073,0.086,0.129,0.095c0.074-0.005,0.142-0.04,0.19-0.095l0.189-0.19V9.735
	h0.129c0.467-0.708,0.808-1.197,1.023-1.468V8.203h0.049c0.028-0.036,0.055-0.069,0.081-0.095c0.008-0.012,0.019-0.022,0.031-0.03
	h0.975c0.044,0.035,0.082,0.078,0.112,0.125h0.19v0.27c0.144,0.147,0.338,0.233,0.543,0.241l0.319,0.159h1.024
	c0.268-0.006,0.536,0.015,0.8,0.063c0.155-0.02,0.298,0.09,0.318,0.246c0,0.004,0,0.007,0.001,0.01c0.126,0,0.189,0.178,0.189,0.542
	v0.32c0.044,0.005,0.087,0.015,0.129,0.03c0.023,0.032,0.057,0.055,0.095,0.065l0.095,0.031V9.193h11.429v-0.64h0.672v0.64h1.662
	v0.223c0,0.216,0.032,0.431,0.094,0.638c0.022,0.135,0.104,0.252,0.223,0.319h41.919c0.158-0.129,0.307-0.268,0.446-0.414
	c0.126-0.155,0.205-0.343,0.225-0.541l0.128-0.38c0.014-0.217,0.057-0.433,0.129-0.639c0.047-0.181,0.194-0.319,0.379-0.351
	c0.246,0.047,0.484,0.133,0.703,0.255c0.299,0.171,0.629,0.363,0.992,0.574c0.33,0.207,0.648,0.431,0.958,0.67
	c0.19,0.196,0.361,0.41,0.511,0.64c0.075,0.05,0.141,0.115,0.189,0.189c0.061-0.003,0.113,0.037,0.128,0.095
	c0.052,0.019,0.104,0.029,0.16,0.031h0.159l0.553,0.218v0.482H91.625z M86.443,13.053h-0.99l-0.16-0.224h-17.84
	c-0.186,0.128-0.311,0.323-0.354,0.543v0.16c0.775,0.061,1.557,0.082,2.334,0.063h4.83c1.918-0.043,3.94-0.086,6.072-0.128
	c2.195-0.042,4.188-0.074,5.979-0.095h0.447C86.723,13.216,86.6,13.095,86.443,13.053L86.443,13.053z M26.908,8.613
	c0.025,0.002,0.047,0.014,0.063,0.032h0.063c0,0.017,0.012,0.03,0.028,0.03c0.001,0,0.003,0,0.004,0h-0.16V8.613H26.908z
	 M28.123,17.483c0.016-0.303-0.062-0.604-0.224-0.861c-0.175-0.202-0.437-0.308-0.703-0.284h-2.334
	c-0.273-0.003-0.536,0.099-0.736,0.284c-0.182,0.249-0.272,0.553-0.256,0.861c0.001,0.237,0.093,0.466,0.256,0.639
	c0.191,0.203,0.457,0.318,0.736,0.318h2.334c0.273,0.022,0.54-0.098,0.703-0.318c0.145-0.181,0.223-0.404,0.224-0.635V17.483z
	 M24.478,8.682c0.024-0.001,0.048-0.012,0.064-0.03h0.033v0.03H24.48H24.478z"/>
<linearGradient id="xm1014_5_" gradientUnits="userSpaceOnUse" x1="375.585" y1="-260.5981" x2="466.585" y2="-260.5981" gradientTransform="matrix(1 0 0 -1 -374.96 -242.5996)">
	<stop  offset="0" style="stop-color:#B1DB7F;stop-opacity:0"/>
	<stop  offset="0.1061" style="stop-color:#B1DB7F;stop-opacity:0.1061"/>
	<stop  offset="1" style="stop-color:#B1DB7F"/>
</linearGradient>
<path id="xm1014_3_" fill="url(#xm1014_5_)" d="M91.625,11.202c0,0.255-0.011,0.51-0.033,0.767
	c-0.021,0.263-0.085,0.521-0.189,0.765c-0.303,0.198-0.658,0.297-1.021,0.285c-0.556,0.021-1.099,0.032-1.631,0.031v0.323h0.096
	c0.07-0.001,0.131,0.056,0.133,0.127c0,0.011-0.002,0.022-0.004,0.033c0.268-0.007,0.532-0.028,0.799-0.065
	c0.347-0.062,0.703,0.019,0.99,0.224c0.254,0.148,0.42,0.41,0.446,0.702c0.126,0.348,0.159,0.721,0.097,1.084
	c-0.164,0.504-0.574,0.89-1.089,1.021H67.453c-0.385,0.076-0.762,0.194-1.12,0.353c-0.927,0.245-1.885,0.353-2.844,0.319h-6.878
	c-1.364,0.042-2.771,0.063-4.221,0.063H45.42c-0.46,0.025-0.921,0.004-1.376-0.063c-0.236-0.101-0.482-0.176-0.735-0.223h-1.918
	c-0.248-0.077-0.507-0.109-0.767-0.095c-0.379-0.021-0.778-0.043-1.183-0.063h-1.056c-0.203-0.006-0.405,0.004-0.607,0.03
	c-0.214,0.035-0.408,0.149-0.543,0.319c-0.332,0.275-0.729,0.461-1.151,0.542c-0.162-0.029-0.314-0.094-0.447-0.19
	c-0.214-0.063-0.501-0.137-0.864-0.223c-0.358-0.094-0.721-0.168-1.088-0.223c-0.404-0.063-0.649-0.095-0.735-0.095h-1.183
	c-0.398-0.015-0.79,0.097-1.119,0.32c-0.239,0.101-0.425,0.297-0.512,0.541c-0.234,0.235-0.512,0.522-0.83,0.864
	c-0.254,0.291-0.587,0.501-0.959,0.604h-0.544c-0.113,0.084-0.245,0.14-0.384,0.16c-0.073,0.021-0.148,0.031-0.224,0.029
	c-0.189,0-0.51,0.012-0.959,0.03c-0.426,0-0.874,0.021-1.341,0.063c-0.45,0.016-0.898,0.059-1.342,0.127
	c-0.266,0.008-0.522,0.099-0.735,0.256c-0.146,0.191-0.254,0.408-0.319,0.639c-0.172,0.385-0.374,0.854-0.609,1.404
	c-0.276,0.554-0.563,1.148-0.862,1.785c-0.3,0.597-0.588,1.147-0.864,1.66c-0.019,0.299,0.013,0.603,0.095,0.893
	c0.033,0.143,0.076,0.279,0.128,0.415l0.16,0.159c0.061,0.125,0.16,0.226,0.284,0.283c0.125,0.086,0.198,0.229,0.19,0.381
	l-0.13,0.188c-0.127,0.103-0.288,0.146-0.447,0.128c-0.221,0.043-0.445,0.064-0.67,0.068c-0.289-0.004-0.578-0.024-0.864-0.063
	c-0.359-0.084-0.794-0.189-1.305-0.316c-0.533-0.084-1.044-0.178-1.536-0.283c-0.447-0.148-0.841-0.284-1.183-0.415
	c-0.244,0.004-0.478-0.101-0.64-0.283l-0.095-0.128V26.42h-0.033c-0.136-0.105-0.208-0.273-0.189-0.445v-0.223
	c0.157-0.333,0.339-0.652,0.544-0.957c0.316-0.554,0.657-1.182,1.023-1.881c0.363-0.684,0.714-1.32,1.054-1.917
	c0.188-0.341,0.359-0.692,0.512-1.052c0-0.172-0.011-0.396-0.032-0.672c-0.017-0.226-0.107-0.438-0.256-0.605
	c-0.32-0.115-0.653-0.19-0.992-0.223c-0.294-0.066-0.6-0.066-0.895,0c-0.217,0.05-0.446,0.016-0.64-0.096h-0.129
	c0.002-0.095,0.013-0.19,0.032-0.284c-0.002-0.075,0.01-0.15,0.033-0.223c0.037-0.032,0.06-0.078,0.063-0.126
	c-0.084,0-0.479,0.074-1.183,0.221c-0.703,0.129-1.449,0.298-2.238,0.513c-0.788,0.17-1.502,0.351-2.142,0.542
	c-0.664,0.148-1.011,0.223-1.055,0.223c-0.123,0.075-0.231,0.172-0.32,0.285c-0.148,0.229-0.319,0.443-0.511,0.639
	c-0.161,0.209-0.301,0.434-0.417,0.67c-0.128,0.275-0.245,0.563-0.351,0.861c-0.128,0.277-0.235,0.514-0.319,0.703
	c-0.051,0.143-0.115,0.281-0.19,0.415c-0.173,0.099-0.334,0.215-0.479,0.351c-0.363,0.201-0.736,0.383-1.119,0.543
	c-0.554,0.276-1.312,0.596-2.275,0.957H1.489l-0.673-0.224L0.625,12.383l4.989-0.737c0.145-0.012,0.286-0.055,0.414-0.127
	c0.084-0.063,0.16-0.138,0.224-0.223c0.08-0.08,0.154-0.165,0.224-0.254l16.339-1.5v0.189c0.076,0.16,0.172,0.31,0.284,0.447
	c0.049,0.101,0.144,0.172,0.254,0.19c0.025,0.051,0.073,0.086,0.129,0.095c0.074-0.005,0.142-0.04,0.19-0.095l0.189-0.19V9.735
	h0.129c0.467-0.708,0.808-1.197,1.023-1.468V8.203h0.049c0.028-0.036,0.055-0.069,0.081-0.095c0.008-0.012,0.019-0.022,0.031-0.03
	h0.975c0.044,0.035,0.082,0.078,0.112,0.125h0.19v0.27c0.144,0.147,0.338,0.233,0.543,0.241l0.319,0.159h1.024
	c0.268-0.006,0.536,0.015,0.8,0.063c0.155-0.02,0.298,0.09,0.318,0.246c0,0.004,0,0.007,0.001,0.01c0.126,0,0.189,0.178,0.189,0.542
	v0.32c0.044,0.005,0.087,0.015,0.129,0.03c0.023,0.032,0.057,0.055,0.095,0.065l0.095,0.031V9.193h11.429v-0.64h0.672v0.64h1.662
	v0.223c0,0.216,0.032,0.431,0.094,0.638c0.022,0.135,0.104,0.252,0.223,0.319h41.919c0.158-0.129,0.307-0.268,0.446-0.414
	c0.126-0.155,0.205-0.343,0.225-0.541l0.128-0.38c0.014-0.217,0.057-0.433,0.129-0.639c0.047-0.181,0.194-0.319,0.379-0.351
	c0.246,0.047,0.484,0.133,0.703,0.255c0.299,0.171,0.629,0.363,0.992,0.574c0.33,0.207,0.648,0.431,0.958,0.67
	c0.19,0.196,0.361,0.41,0.511,0.64c0.075,0.05,0.141,0.115,0.189,0.189c0.061-0.003,0.113,0.037,0.128,0.095
	c0.052,0.019,0.104,0.029,0.16,0.031h0.159l0.553,0.218v0.482H91.625z M86.443,13.053h-0.99l-0.16-0.224h-17.84
	c-0.186,0.128-0.311,0.323-0.354,0.543v0.16c0.775,0.061,1.557,0.082,2.334,0.063h4.83c1.918-0.043,3.94-0.086,6.072-0.128
	c2.195-0.042,4.188-0.074,5.979-0.095h0.447C86.723,13.216,86.6,13.095,86.443,13.053L86.443,13.053z M26.908,8.613
	c0.025,0.002,0.047,0.014,0.063,0.032h0.063c0,0.017,0.012,0.03,0.028,0.03c0.001,0,0.003,0,0.004,0h-0.16V8.613H26.908z
	 M28.123,17.483c0.016-0.303-0.062-0.604-0.224-0.861c-0.175-0.202-0.437-0.308-0.703-0.284h-2.334
	c-0.273-0.003-0.536,0.099-0.736,0.284c-0.182,0.249-0.272,0.553-0.256,0.861c0.001,0.237,0.093,0.466,0.256,0.639
	c0.191,0.203,0.457,0.318,0.736,0.318h2.334c0.273,0.022,0.54-0.098,0.703-0.318c0.145-0.181,0.223-0.404,0.224-0.635V17.483z
	 M24.478,8.682c0.024-0.001,0.048-0.012,0.064-0.03h0.033v0.03H24.48H24.478z"/>
<linearGradient id="xm1014_6_" gradientUnits="userSpaceOnUse" x1="375.585" y1="-260.5981" x2="466.585" y2="-260.5981" gradientTransform="matrix(1 0 0 -1 -374.96 -242.5996)">
	<stop  offset="0" style="stop-color:#B1DB7F;stop-opacity:0"/>
	<stop  offset="0.1061" style="stop-color:#B1DB7F;stop-opacity:0.1061"/>
	<stop  offset="1" style="stop-color:#B1DB7F"/>
</linearGradient>
<path id="xm1014_4_" fill="url(#xm1014_6_)" d="M91.625,11.202c0,0.255-0.011,0.51-0.033,0.767
	c-0.021,0.263-0.085,0.521-0.189,0.765c-0.303,0.198-0.658,0.297-1.021,0.285c-0.556,0.021-1.099,0.032-1.631,0.031v0.323h0.096
	c0.07-0.001,0.131,0.056,0.133,0.127c0,0.011-0.002,0.022-0.004,0.033c0.268-0.007,0.532-0.028,0.799-0.065
	c0.347-0.062,0.703,0.019,0.99,0.224c0.254,0.148,0.42,0.41,0.446,0.702c0.126,0.348,0.159,0.721,0.097,1.084
	c-0.164,0.504-0.574,0.89-1.089,1.021H67.453c-0.385,0.076-0.762,0.194-1.12,0.353c-0.927,0.245-1.885,0.353-2.844,0.319h-6.878
	c-1.364,0.042-2.771,0.063-4.221,0.063H45.42c-0.46,0.025-0.921,0.004-1.376-0.063c-0.236-0.101-0.482-0.176-0.735-0.223h-1.918
	c-0.248-0.077-0.507-0.109-0.767-0.095c-0.379-0.021-0.778-0.043-1.183-0.063h-1.056c-0.203-0.006-0.405,0.004-0.607,0.03
	c-0.214,0.035-0.408,0.149-0.543,0.319c-0.332,0.275-0.729,0.461-1.151,0.542c-0.162-0.029-0.314-0.094-0.447-0.19
	c-0.214-0.063-0.501-0.137-0.864-0.223c-0.358-0.094-0.721-0.168-1.088-0.223c-0.404-0.063-0.649-0.095-0.735-0.095h-1.183
	c-0.398-0.015-0.79,0.097-1.119,0.32c-0.239,0.101-0.425,0.297-0.512,0.541c-0.234,0.235-0.512,0.522-0.83,0.864
	c-0.254,0.291-0.587,0.501-0.959,0.604h-0.544c-0.113,0.084-0.245,0.14-0.384,0.16c-0.073,0.021-0.148,0.031-0.224,0.029
	c-0.189,0-0.51,0.012-0.959,0.03c-0.426,0-0.874,0.021-1.341,0.063c-0.45,0.016-0.898,0.059-1.342,0.127
	c-0.266,0.008-0.522,0.099-0.735,0.256c-0.146,0.191-0.254,0.408-0.319,0.639c-0.172,0.385-0.374,0.854-0.609,1.404
	c-0.276,0.554-0.563,1.148-0.862,1.785c-0.3,0.597-0.588,1.147-0.864,1.66c-0.019,0.299,0.013,0.603,0.095,0.893
	c0.033,0.143,0.076,0.279,0.128,0.415l0.16,0.159c0.061,0.125,0.16,0.226,0.284,0.283c0.125,0.086,0.198,0.229,0.19,0.381
	l-0.13,0.188c-0.127,0.103-0.288,0.146-0.447,0.128c-0.221,0.043-0.445,0.064-0.67,0.068c-0.289-0.004-0.578-0.024-0.864-0.063
	c-0.359-0.084-0.794-0.189-1.305-0.316c-0.533-0.084-1.044-0.178-1.536-0.283c-0.447-0.148-0.841-0.284-1.183-0.415
	c-0.244,0.004-0.478-0.101-0.64-0.283l-0.095-0.128V26.42h-0.033c-0.136-0.105-0.208-0.273-0.189-0.445v-0.223
	c0.157-0.333,0.339-0.652,0.544-0.957c0.316-0.554,0.657-1.182,1.023-1.881c0.363-0.684,0.714-1.32,1.054-1.917
	c0.188-0.341,0.359-0.692,0.512-1.052c0-0.172-0.011-0.396-0.032-0.672c-0.017-0.226-0.107-0.438-0.256-0.605
	c-0.32-0.115-0.653-0.19-0.992-0.223c-0.294-0.066-0.6-0.066-0.895,0c-0.217,0.05-0.446,0.016-0.64-0.096h-0.129
	c0.002-0.095,0.013-0.19,0.032-0.284c-0.002-0.075,0.01-0.15,0.033-0.223c0.037-0.032,0.06-0.078,0.063-0.126
	c-0.084,0-0.479,0.074-1.183,0.221c-0.703,0.129-1.449,0.298-2.238,0.513c-0.788,0.17-1.502,0.351-2.142,0.542
	c-0.664,0.148-1.011,0.223-1.055,0.223c-0.123,0.075-0.231,0.172-0.32,0.285c-0.148,0.229-0.319,0.443-0.511,0.639
	c-0.161,0.209-0.301,0.434-0.417,0.67c-0.128,0.275-0.245,0.563-0.351,0.861c-0.128,0.277-0.235,0.514-0.319,0.703
	c-0.051,0.143-0.115,0.281-0.19,0.415c-0.173,0.099-0.334,0.215-0.479,0.351c-0.363,0.201-0.736,0.383-1.119,0.543
	c-0.554,0.276-1.312,0.596-2.275,0.957H1.489l-0.673-0.224L0.625,12.383l4.989-0.737c0.145-0.012,0.286-0.055,0.414-0.127
	c0.084-0.063,0.16-0.138,0.224-0.223c0.08-0.08,0.154-0.165,0.224-0.254l16.339-1.5v0.189c0.076,0.16,0.172,0.31,0.284,0.447
	c0.049,0.101,0.144,0.172,0.254,0.19c0.025,0.051,0.073,0.086,0.129,0.095c0.074-0.005,0.142-0.04,0.19-0.095l0.189-0.19V9.735
	h0.129c0.467-0.708,0.808-1.197,1.023-1.468V8.203h0.049c0.028-0.036,0.055-0.069,0.081-0.095c0.008-0.012,0.019-0.022,0.031-0.03
	h0.975c0.044,0.035,0.082,0.078,0.112,0.125h0.19v0.27c0.144,0.147,0.338,0.233,0.543,0.241l0.319,0.159h1.024
	c0.268-0.006,0.536,0.015,0.8,0.063c0.155-0.02,0.298,0.09,0.318,0.246c0,0.004,0,0.007,0.001,0.01c0.126,0,0.189,0.178,0.189,0.542
	v0.32c0.044,0.005,0.087,0.015,0.129,0.03c0.023,0.032,0.057,0.055,0.095,0.065l0.095,0.031V9.193h11.429v-0.64h0.672v0.64h1.662
	v0.223c0,0.216,0.032,0.431,0.094,0.638c0.022,0.135,0.104,0.252,0.223,0.319h41.919c0.158-0.129,0.307-0.268,0.446-0.414
	c0.126-0.155,0.205-0.343,0.225-0.541l0.128-0.38c0.014-0.217,0.057-0.433,0.129-0.639c0.047-0.181,0.194-0.319,0.379-0.351
	c0.246,0.047,0.484,0.133,0.703,0.255c0.299,0.171,0.629,0.363,0.992,0.574c0.33,0.207,0.648,0.431,0.958,0.67
	c0.19,0.196,0.361,0.41,0.511,0.64c0.075,0.05,0.141,0.115,0.189,0.189c0.061-0.003,0.113,0.037,0.128,0.095
	c0.052,0.019,0.104,0.029,0.16,0.031h0.159l0.553,0.218v0.482H91.625z M86.443,13.053h-0.99l-0.16-0.224h-17.84
	c-0.186,0.128-0.311,0.323-0.354,0.543v0.16c0.775,0.061,1.557,0.082,2.334,0.063h4.83c1.918-0.043,3.94-0.086,6.072-0.128
	c2.195-0.042,4.188-0.074,5.979-0.095h0.447C86.723,13.216,86.6,13.095,86.443,13.053L86.443,13.053z M26.908,8.613
	c0.025,0.002,0.047,0.014,0.063,0.032h0.063c0,0.017,0.012,0.03,0.028,0.03c0.001,0,0.003,0,0.004,0h-0.16V8.613H26.908z
	 M28.123,17.483c0.016-0.303-0.062-0.604-0.224-0.861c-0.175-0.202-0.437-0.308-0.703-0.284h-2.334
	c-0.273-0.003-0.536,0.099-0.736,0.284c-0.182,0.249-0.272,0.553-0.256,0.861c0.001,0.237,0.093,0.466,0.256,0.639
	c0.191,0.203,0.457,0.318,0.736,0.318h2.334c0.273,0.022,0.54-0.098,0.703-0.318c0.145-0.181,0.223-0.404,0.224-0.635V17.483z
	 M24.478,8.682c0.024-0.001,0.048-0.012,0.064-0.03h0.033v0.03H24.48H24.478z"/>
</svg>
