<?xml version="1.0" encoding="utf-8"?>
<!-- Generator: Adobe Illustrator 16.0.0, SVG Export Plug-In . SVG Version: 6.00 Build 0)  -->
<!DOCTYPE svg PUBLIC "-//W3C//DTD SVG 1.1//EN" "http://www.w3.org/Graphics/SVG/1.1/DTD/svg11.dtd">
<svg version="1.1" id="tc" xmlns="http://www.w3.org/2000/svg" xmlns:xlink="http://www.w3.org/1999/xlink" x="0px" y="0px"
	 width="92px" height="36px" viewBox="0 0 92 36" enable-background="new 0 0 92 36" xml:space="preserve">
<linearGradient id="shape1_5_" gradientUnits="userSpaceOnUse" x1="0.603" y1="17.0933" x2="91.4375" y2="17.0933" gradientTransform="matrix(1 0 0 -1 -0.02 35.0947)">
	<stop  offset="0" style="stop-color:#B1DB7F;stop-opacity:0"/>
	<stop  offset="0.1061" style="stop-color:#B1DB7F;stop-opacity:0.1061"/>
	<stop  offset="1" style="stop-color:#B1DB7F"/>
</linearGradient>
<path id="shape1" fill="url(#shape1_5_)" d="M38.52,8.738l-0.134,0.665c-0.135,0.466-0.328,0.913-0.576,1.329
	c-0.294,0.456-0.644,0.875-1.042,1.244c-0.256,0.243-0.475,0.444-0.657,0.612c-0.019-0.095-0.08-0.176-0.165-0.222
	c-0.211-0.119-0.466-0.13-0.685-0.029c-0.358,0.15-0.725,0.278-1.097,0.387c-0.528,0.157-1.071,0.25-1.619,0.279
	c-0.383,0.015-2.192-0.099-5.427-0.363c-3.525-0.258-6.192-0.396-8.003-0.414c-2.027-0.036-5.161,0.064-9.4,0.303
	c-2.102,0.111-4.013,0.223-5.732,0.335c-0.02-0.104-0.066-0.198-0.135-0.276C3.674,12.4,3.41,12.323,3.162,12.392
	c-0.314,0.041-0.621,0.134-0.905,0.277c-0.287,0.183-0.518,0.443-0.664,0.75c-0.21,0.52-0.329,1.072-0.353,1.633
	c-0.037,0.388-0.053,0.737-0.053,1.053L0.583,16.41v1.27l0.793,0.524L1.24,19.479c-0.083,0.681-0.016,1.369,0.193,2.021
	c0.178,0.445,0.46,0.845,0.822,1.162c0.165,0.16,0.35,0.301,0.549,0.417l0.711,0.057c0.421-0.241,0.749-0.442,0.985-0.61
	c0.278-0.327,0.451-0.732,0.493-1.161l0.223-0.997l1.018-0.831c0.334-0.065,0.672-0.111,1.012-0.14
	c0.728-0.09,1.461-0.127,2.194-0.112c0.886,0.069,1.765,0.21,2.628,0.415c0.66,0.13,1.8,0.398,3.427,0.804
	c1.511,0.325,3.038,0.565,4.576,0.72c1.377,0.18,2.772,0.152,4.14-0.082c0.902-0.199,1.777-0.508,2.605-0.916
	c1.334-0.646,2.073-0.996,2.219-1.051c0.778-0.279,1.628-0.29,2.413-0.027c0.398,0.131,0.783,0.297,1.147,0.502l0.36,0.528
	c0.27,0.367,0.592,0.694,0.956,0.972c0.403,0.365,0.753,0.783,1.042,1.244c0.181,0.258,0.346,0.526,0.496,0.803l-0.304,0.498
	c-0.218,0.406-0.418,0.822-0.604,1.244c-0.253,0.75-0.392,1.535-0.41,2.328h1.535c0.075-0.279,0.172-0.603,0.3-0.971
	c0.157-0.596,0.378-1.171,0.661-1.718c0.291-0.499,0.65-0.955,1.067-1.354l0.661-0.638l0.163-2.381l0.492,0.076
	c0.388,0.087,0.765,0.218,1.124,0.387c0.318,0.163,0.607,0.379,0.851,0.638c0.088,0.101,0.161,0.213,0.216,0.334l2.853,0.057
	l0.3-0.666l4.744-0.137c3.545-0.093,6.258-0.084,8.139,0.025c1.615,0.063,3.22,0.268,4.799,0.609
	c0.236,0.039,0.941,0.203,2.109,0.498c1.022,0.257,2.002,0.49,2.934,0.691c2.404,0.503,4.863,0.709,7.318,0.61
	c2.444-0.075,4.873-0.429,7.238-1.052c2.381-0.698,4.631-1.783,6.66-3.211c0.085-0.053,0.168-0.106,0.247-0.166
	c0.677-0.479,1.345-0.978,2.002-1.492l0.873-0.691c-0.858-0.021-1.819-0.066-2.877-0.14l-0.63-0.056
	c-2.074-0.12-4.137-0.397-6.168-0.829c-1.633-0.423-3.192-1.085-4.631-1.966c-0.514-0.297-0.998-0.602-1.454-0.914l-0.55-0.416
	c-1.588,0.202-3.278,0.387-5.069,0.554c-1.097,0.091-2.101,0.139-3.017,0.139L66.01,13.06l-1.892-0.831l0.467,0.719l-1.427,0.111
	l-1.727-0.888l0.656,0.888l-1.369-0.054l-1.893-0.916l0.549,0.915l-1.313-0.056l-1.894-0.913l0.519,0.917l-1.234-0.083l-1.973-0.831
	l0.604,0.774h-1.181l-2.027-0.94l0.604,0.882h-1.26l-2.029-0.882l0.604,0.882l-1.287-0.056L45.7,11.922l0.492,0.775l-7.729-0.105
	c0.154-0.164,0.293-0.341,0.413-0.53c0.275-0.375,0.496-0.785,0.656-1.22c0.159-0.457,0.26-0.93,0.303-1.411V8.738H38.52z"/>
<g>
	<defs>
		<path id="shape1_1_" d="M38.52,8.738l-0.134,0.665c-0.135,0.466-0.328,0.913-0.576,1.329c-0.294,0.456-0.644,0.875-1.042,1.244
			c-0.256,0.243-0.475,0.444-0.657,0.612c-0.019-0.095-0.08-0.176-0.165-0.222c-0.211-0.119-0.466-0.13-0.685-0.029
			c-0.358,0.15-0.725,0.278-1.097,0.387c-0.528,0.157-1.071,0.25-1.619,0.279c-0.383,0.015-2.192-0.099-5.427-0.363
			c-3.525-0.258-6.192-0.396-8.003-0.414c-2.027-0.036-5.161,0.064-9.4,0.303c-2.102,0.111-4.013,0.223-5.732,0.335
			c-0.02-0.104-0.066-0.198-0.135-0.276C3.674,12.4,3.41,12.323,3.162,12.392c-0.314,0.041-0.621,0.134-0.905,0.277
			c-0.287,0.183-0.518,0.443-0.664,0.75c-0.21,0.52-0.329,1.072-0.353,1.633c-0.037,0.388-0.053,0.737-0.053,1.053L0.583,16.41v1.27
			l0.793,0.524L1.24,19.479c-0.083,0.681-0.016,1.369,0.193,2.021c0.178,0.445,0.46,0.845,0.822,1.162
			c0.165,0.16,0.35,0.301,0.549,0.417l0.711,0.057c0.421-0.241,0.749-0.442,0.985-0.61c0.278-0.327,0.451-0.732,0.493-1.161
			l0.223-0.997l1.018-0.831c0.334-0.065,0.672-0.111,1.012-0.14c0.728-0.09,1.461-0.127,2.194-0.112
			c0.886,0.069,1.765,0.21,2.628,0.415c0.66,0.13,1.8,0.398,3.427,0.804c1.511,0.325,3.038,0.565,4.576,0.72
			c1.377,0.18,2.772,0.152,4.14-0.082c0.902-0.199,1.777-0.508,2.605-0.916c1.334-0.646,2.073-0.996,2.219-1.051
			c0.778-0.279,1.628-0.29,2.413-0.027c0.398,0.131,0.783,0.297,1.147,0.502l0.36,0.528c0.27,0.367,0.592,0.694,0.956,0.972
			c0.403,0.365,0.753,0.783,1.042,1.244c0.181,0.258,0.346,0.526,0.496,0.803l-0.304,0.498c-0.218,0.406-0.418,0.822-0.604,1.244
			c-0.253,0.75-0.392,1.535-0.41,2.328h1.535c0.075-0.279,0.172-0.603,0.3-0.971c0.157-0.596,0.378-1.171,0.661-1.718
			c0.291-0.499,0.65-0.955,1.067-1.354l0.661-0.638l0.163-2.381l0.492,0.076c0.388,0.087,0.765,0.218,1.124,0.387
			c0.318,0.163,0.607,0.379,0.851,0.638c0.088,0.101,0.161,0.213,0.216,0.334l2.853,0.057l0.3-0.666l4.744-0.137
			c3.545-0.093,6.258-0.084,8.139,0.025c1.615,0.063,3.22,0.268,4.799,0.609c0.236,0.039,0.941,0.203,2.109,0.498
			c1.022,0.257,2.002,0.49,2.934,0.691c2.404,0.503,4.863,0.709,7.318,0.61c2.444-0.075,4.873-0.429,7.238-1.052
			c2.381-0.698,4.631-1.783,6.66-3.211c0.085-0.053,0.168-0.106,0.247-0.166c0.677-0.479,1.345-0.978,2.002-1.492l0.873-0.691
			c-0.858-0.021-1.819-0.066-2.877-0.14l-0.63-0.056c-2.074-0.12-4.137-0.397-6.168-0.829c-1.633-0.423-3.192-1.085-4.631-1.966
			c-0.514-0.297-0.998-0.602-1.454-0.914l-0.55-0.416c-1.588,0.202-3.278,0.387-5.069,0.554c-1.097,0.091-2.101,0.139-3.017,0.139
			L66.01,13.06l-1.892-0.831l0.467,0.719l-1.427,0.111l-1.727-0.888l0.656,0.888l-1.369-0.054l-1.893-0.916l0.549,0.915
			l-1.313-0.056l-1.894-0.913l0.519,0.917l-1.234-0.083l-1.973-0.831l0.604,0.774h-1.181l-2.027-0.94l0.604,0.882h-1.26
			l-2.029-0.882l0.604,0.882l-1.287-0.056L45.7,11.922l0.492,0.775l-7.729-0.105c0.154-0.164,0.293-0.341,0.413-0.53
			c0.275-0.375,0.496-0.785,0.656-1.22c0.159-0.457,0.26-0.93,0.303-1.411V8.738H38.52z"/>
	</defs>
	<clipPath id="shape1_6_">
		<use xlink:href="#shape1_1_"  overflow="visible"/>
	</clipPath>
	<g clip-path="url(#shape1_6_)">
		<path fill="#033500" d="M26.783,55.917c-0.508,0-1.016,0-1.523,0c-0.962-0.195-1.925-0.396-3.08-0.629
			c-0.093,0.104-0.316,0.363-0.541,0.629c-4.574,0-9.147,0-13.722,0c-0.276-0.461-0.644-0.896-0.798-1.396
			c-0.098-0.313,0.119-0.727,0.195-1.094c0.338,0.08,0.688,0.127,1.01,0.254c0.158,0.064,0.259,0.271,0.386,0.412
			c0.571,0.633,0.942,0.422,1.261-0.295c-0.311-0.223-0.584-0.416-1.002-0.717c1.415-0.545,1.932-1.512,1.885-2.938
			c-0.013-0.35,0.738-0.859,1.233-1.055c0.57-0.221,1.256-0.121,1.872-0.256c0.818-0.178,1.796-0.027,2.475-1.104
			c-0.479-0.158-0.854-0.352-1.246-0.404c-0.563-0.086-1.154,0-1.701-0.133c-0.362-0.088-0.957-0.447-0.941-0.645
			c0.04-0.475,0.255-1.146,0.616-1.344c1.44-0.781,3.218-0.51,4.385,0.094c1.224,0.633,2.229,0.672,3.375,0.469
			c2.884-0.508,5.544-0.301,7.771,1.896c0.438,0.436,1.043,0.729,1.619,0.979c1.744,0.752,3.928,0.148,5.049-1.34
			c0.693-0.918,0.39-1.805-0.635-2.197c-0.688-0.266-1.623-0.59-1.865-1.145c-0.402-0.924-0.922-1.156-1.799-1.141
			c-1.238,0.021-2.082-0.734-2.224-1.992c-0.083-0.732-0.17-1.486-0.078-2.207c0.042-0.338,0.459-0.689,0.788-0.914
			c0.77-0.523,1.607-0.945,2.383-1.461c1.346-0.9,2.66-1.787,4.336-0.682c0.248,0.164,0.69,0.152,1.006,0.07
			c1.209-0.307,2.403-0.678,3.703-1.053c-0.229-0.477-0.494-1.023-0.774-1.607c-0.294,0-0.579,0-0.863,0
			c0.244-0.266,0.521-0.396,0.782-0.373c0.984,0.094,1.963,0.271,2.947,0.35c0.855,0.068,1.393-0.42,1.557-1.229
			c0.163-0.811-0.139-1.512-0.947-1.754c-1.313-0.391-2.096-1.637-3.6-1.877c-0.948-0.15-1.613-0.436-2.252,0.48
			c-0.469-0.502-0.553-0.957,0-1.309c0.238-0.152,0.607-0.131,0.918-0.133c1.081-0.008,2.205,0.279,2.975-0.92
			c0.189-0.293,0.861-0.287,1.318-0.389c0.365-0.082,0.775-0.043,1.102-0.195c0.313-0.146,0.539-0.471,0.805-0.719
			c-0.342-0.143-0.688-0.402-1.029-0.398c-0.563,0.004-1.118,0.207-1.684,0.277c-0.744,0.096-1.334-0.273-1.387-0.975
			c-0.029-0.41,0.346-0.984,0.708-1.25c0.368-0.27,0.942-0.283,1.433-0.35c0.688-0.092,1.386-0.084,2.066-0.197
			c0.635-0.109,0.566-0.539,0.223-0.895c-0.205-0.211-0.545-0.428-0.814-0.416c-1.453,0.066-2.912,0.131-4.346,0.352
			c-0.502,0.078-1.09,0.494-1.373,0.928c-0.658,1.014-1.579,1.43-2.674,1.785c-0.573,0.186-1.188,0.779-1.426,1.342
			c-0.369,0.869-0.902,1.258-1.777,1.275c-0.857,0.016-1.717-0.041-2.569,0.02c-0.284,0.021-0.548,0.313-0.821,0.48
			c0.209,0.186,0.444,0.348,0.62,0.561c0.298,0.361,0.56,0.75,0.835,1.129c-0.34,0.232-0.654,0.553-1.031,0.668
			c-0.299,0.09-0.678-0.051-1.014-0.121c-0.779-0.168-1.541-0.656-2.35-0.037c-0.107,0.084-0.397-0.08-0.605-0.115
			c-0.259-0.047-0.521-0.082-0.781-0.115c-0.611-0.076-1.221-0.186-1.834-0.215c-0.738-0.037-1.92-0.285-2.14,0.055
			c-0.631,0.98-2.167,1.172-2.196,2.641c-0.009,0.506-0.302,1.002-0.514,1.654c-0.221-0.293-0.391-0.514-0.566-0.748
			c-1.682,0.283-3.584-0.338-4.982,1.145c0.414,1.389,1.443,1.379,2.535,1.297c3.097-0.232,6.195-0.391,9.275,0.199
			c0.295,0.057,0.812,0.129,0.827,0.248c0.042,0.32-0.129,0.668-0.223,1.033c-1.354-0.398-2.423-0.15-3.431,0.639
			c-0.359,0.281-0.922,0.393-1.401,0.424c-1.284,0.092-1.356,0.152-1.015,1.52c0.912,0.119,1.869,0.207,2.804,0.398
			c0.161,0.033,0.386,0.551,0.321,0.766c-0.389,1.299-1.201,2.201-2.594,2.479c-0.77,0.15-1.636,0.148-2.281,0.523
			c-1.234,0.715-2.397,0.934-3.748,0.4c-0.56-0.223-1.377-0.475-1.801-0.232c-1.397,0.799-2.365,0.275-3.41-0.623
			c-0.758-0.652-1.689-0.963-2.781-0.574c0.142,0.297,0.244,0.559,0.386,0.799c0.937,1.58,1.397,3.309,1.64,5.111
			c0.197,1.465-0.619,2.27-2.068,1.98c-0.492-0.096-0.987-0.223-1.452-0.408c-0.53-0.215-0.993-0.354-1.438,0.168
			c-0.445,0.518-0.271,0.98,0.041,1.467c0.418,0.66,0.351,1.139-0.517,1.289c0-5.398,0-10.797,0-16.195
			c0.274,0.041,0.631-0.016,0.804,0.141c0.492,0.438,0.928,0.943,1.35,1.455c0.609,0.73,1.355,0.857,2.105,0.363
			c1.206-0.795,2.344-0.604,3.602-0.119c1.011,0.391,2.109,0.611,3.189,0.736c0.821,0.096,1.543-0.6,1.405-1.193
			c-0.212-0.904-0.962-0.588-1.483-0.477c-0.783,0.172-1.433-0.014-1.876-0.592c-0.827-1.076-1.821-1.189-3.026-0.818
			c-0.821,0.256-1.119-0.063-0.977-0.914c0.034-0.201,0.096-0.396,0.194-0.793c-1.685,0.498-2.708-0.391-3.247-1.609
			C4.168,31.257,3.6,30.882,2.582,30.95c0-1.332,0-2.666,0-4c0.447-0.475,1.055-0.875,0.783-1.734
			c-0.252-0.057-0.518-0.113-0.783-0.172c0-0.762,0-1.525,0-2.287c1.08,0.322,2.161,0.643,3.242,0.965
			c1.556-1.303,2.943-0.736,4.289,0.379c0.088,0.072,0.242,0.059,0.361,0.102c0.737,0.264,0.598,0.875,0.396,1.342
			c-0.194,0.445-0.605,0.576-1.09,0.184C9.15,25.22,8.457,25.216,7.76,25.665c-1.289,0.834-2.59,1.654-3.941,2.516
			c0.568,0.943,1.037,1.727,1.57,2.617c1.477-1.457,3.063-2.496,5.147-1.098c-0.185-0.311-0.368-0.621-0.626-1.057
			c1.23-0.408,2.372-0.881,3.561-1.15c1.166-0.268,2.377-0.35,3.574-0.461c0.332-0.031,0.68,0.123,1.023,0.188
			c0.229,0.041,0.459,0.072,0.748,0.117c0.008-0.941-0.662-1.143-1.203-1.502c-0.588-0.393-1.148-0.852-1.643-1.357
			c-0.857-0.879-1.644-1.83-2.488-2.723c-0.157-0.166-0.467-0.318-0.678-0.285c-1.035,0.16-1.787-0.199-2.25-1.209
			c-0.527,1.107-0.753,1.168-1.785,0.584c-1.33-0.752-1.545-0.721-2.602,0.393c-0.195,0.207-0.453,0.373-0.593,0.611
			c-0.429,0.732-0.872,0.98-1.644,0.367c-0.344-0.271-0.894-0.283-1.35-0.412c0-3.621,0-7.242,0-10.863c0.145,0,0.29,0,0.436,0
			c1.026-0.648,2.056-1.035,3.217-0.26c0.188,0.127,0.555-0.043,0.834-0.021c0.894,0.076,1.832,0.037,2.662,0.313
			c0.686,0.227,1.166,0.254,1.689-0.229c0.68-0.625,1.227-0.443,1.883,0.166c0.768,0.711,1.694,1.248,2.553,1.861
			c0.084-0.043,0.166-0.084,0.25-0.127c-0.42-1.68,1.834-2.363,1.42-4.178c-0.26,0.285-0.438,0.482-0.775,0.855
			c0.225-0.537,0.354-0.846,0.5-1.189c-0.23-0.164-0.43-0.314-0.637-0.449c-1.327-0.854-2.52-1.785-2.664-3.559
			c-0.02-0.23-0.547-0.48-0.883-0.611c-0.635-0.246-1.342-0.332-1.935-0.645c-0.274-0.145-0.51-0.68-0.475-1.006
			c0.028-0.26,0.483-0.652,0.771-0.672c0.743-0.051,1.497,0.063,2.246,0.125c0.717,0.063,1.439,0.254,2.143,0.186
			c0.695-0.066,1.084-0.688,0.822-1.322C16.51-0.134,15.868-0.378,15.45-0.39c-0.681-0.021-1.366,0.229-2.052,0.252
			c-0.754,0.025-1.068-0.484-0.832-1.195c0.363-1.102,1.397-1.656,2.675-1.395c0.854,0.176,1.696,0.408,2.474,0.598
			c-0.117,0.303-0.23,0.6-0.344,0.895c0.314,0.102,0.624,0.266,0.945,0.289c0.502,0.039,1.039,0.078,1.516-0.055
			c2.4-0.654,4.633-0.164,6.833,0.832c1.837,0.832,3.785,1.381,5.803,1.266c0.995-0.057,1.989-0.525,2.929-0.934
			c0.265-0.115,0.479-0.688,0.447-1.025c-0.023-0.246-0.484-0.455-0.753-0.678c-0.706-0.594-1.51-1.105-2.088-1.805
			c-0.471-0.568-0.79-0.759-1.327-0.27c0.12,0.234,0.26,0.443,0.318,0.676c0.012,0.047-0.27,0.191-0.43,0.258
			c-0.338,0.139-0.737,0.186-1.017,0.396c-0.644,0.48-1.296,0.469-1.954,0.139C27.746-2.571,26.921-3.04,26.1-3.513
			c-0.986-0.572-1.043-1.007-0.299-1.837c0.16-0.178,0.264-0.407,0.404-0.631c0.622,0.924,1.497,0.918,2.059,0.01
			c0.357-0.582,0.678-0.997,1.508-0.667c0.334,0.134,1.086-0.065,1.254-0.349c0.604-1.023,1.445-1.246,2.543-1.254
			c1.125-0.007,2.093,0.705,2.382,1.789c0.126,0.479,0.524,1.012,0.952,1.26c1.154,0.67,1.187,0.617,0.552,1.91
			c0.431,0.063,0.831,0.107,1.228,0.178c0.991,0.174,2.051,0.197,2.955,0.584c1.07,0.457,1.973,0.447,2.98-0.064
			c1.096-0.555,2.248-0.996,3.357-1.523c0.711-0.336,1.445-0.664,2.066-1.133c0.828-0.629,1.014-1.613,0.58-2.268
			c0.385-0.178,0.771-0.357,1.156-0.539c-0.391-0.766-0.84-0.686-1.25-0.254c-0.166-0.264-0.271-0.624-0.428-0.645
			c-0.879-0.113-0.75-0.679-0.641-1.26c6.396,0,12.795,0,19.246,0c0,4.192,0,8.384,0,12.578c-0.148,0.025-0.33,0.006-0.447,0.082
			c-0.338,0.217-0.646,0.473-0.971,0.711c0.268,0.178,0.523,0.375,0.803,0.525c0.188,0.102,0.412,0.141,0.615,0.207
			c0,1.715,0,3.43,0,5.145c-0.564,0.025-1.139,0.004-1.695,0.086c-0.926,0.141-1.854,0.303-2.754,0.553
			c-0.248,0.068-0.574,0.492-0.557,0.73c0.02,0.246,0.375,0.533,0.646,0.68c0.264,0.139,0.607,0.176,0.916,0.156
			c1.148-0.078,2.297-0.195,3.441-0.301c0,4.701,0,9.402,0,14.104c-0.592-0.172-1.191-0.311-1.771-0.521
			c-0.529-0.193-1.006-0.561-1.545-0.68c-1.086-0.24-2.205-0.344-3.301-0.553c-0.268-0.051-0.502-0.289-0.75-0.441
			c0.156-0.246,0.25-0.602,0.471-0.717c1.045-0.559,2.109-0.477,3.197,0.09c0.355-0.66,0.707-1.311,1.16-2.146
			c-0.967-0.074-1.744-0.121-2.518-0.203c-0.447-0.047-0.926-0.08-1.334-0.254c-1.074-0.463-1.17-0.449-1.67,0.861
			c-0.783-0.414-1.559-0.783-2.287-1.223c-0.723-0.436-1.4-0.941-1.984-1.338c-0.063,0.479,0,1.012-0.229,1.336
			c-0.146,0.209-0.727,0.148-1.107,0.146c-0.172-0.002-0.334-0.176-0.512-0.24c-0.926-0.336-1.854-0.662-2.785-0.99
			c-0.064,0.133-0.131,0.266-0.193,0.398c0.41,0.303,0.814,0.617,1.234,0.91c0.725,0.504,1.58,0.887,2.152,1.525
			c0.594,0.662,0.904,1.582,2.088,1.477c-0.471,0.135-0.916,0.182-1.246,0.012c-1.148-0.596-2.246-1.291-3.395-1.889
			c-0.295-0.152-0.721-0.16-1.059-0.092c-0.58,0.117-0.67-0.094-0.6-0.602c0.105-0.756-0.297-0.756-0.895-0.527
			c0.479,0.705,0.244,1.053-0.502,1.191c-0.496,0.094-1.037,0.164-1.453,0.414c-0.346,0.211-0.828,0.746-0.76,1.004
			c0.201,0.742,0.496,1.588,1.039,2.076c0.73,0.656,0.646,1.121,0.135,1.746l0.021-0.02c-0.545,0.678-1.246,0.885-2.105,0.818
			c-0.301-0.021-0.627,0.281-0.943,0.436c0.27,0.268,0.494,0.652,0.819,0.775c0.396,0.148,0.875,0.109,1.315,0.094
			c1.381-0.047,2.475,0.615,3.65,1.379c-0.908,0.771-1.73,1.469-2.547,2.166c0.061,0.08,0.111,0.162,0.17,0.24
			c1.334-0.107,2.326,0.605,3.23,1.402c1.387,1.215,2.924,1.787,4.781,1.676c0.641-0.037,1.336,0.246,1.945,0.523
			c0.859,0.391,2.674,0.027,3.324-0.643c0.344-0.35,0.881-0.568,1.371-0.705c0.512-0.143,1.078-0.064,1.604-0.164
			c1.334-0.25,1.691-0.826,1.598-2.193c-0.023-0.355,0.189-1.002,0.4-1.053c1.186-0.281,1.398-1.148,1.527-2.139
			c0.049-0.363,0.166-0.721,0.25-1.08c0,1.27,0,2.541,0,3.813c-0.938,0.188-1.508,0.75-1.705,1.688
			c-0.111,0.525-0.238,1.049-0.326,1.576c-0.188,1.143-0.477,2.221-1.449,2.984c-0.191,0.148-0.445,0.416-0.422,0.602
			c0.053,0.453,0.197,0.914,0.418,1.314c0.084,0.156,0.617,0.273,0.686,0.191c0.268-0.314,0.48-0.701,0.604-1.096
			c0.063-0.205-0.141-0.477-0.162-0.723c-0.111-1.068,0.229-1.424,1.309-1.494c0.355-0.023,0.703-0.182,1.055-0.281
			c0,5.465,0,10.93,0,16.391c-1.002,0.252-1.268-0.566-1.715-1.156c-0.252-0.332-0.637-0.898-0.867-0.854
			c-0.967,0.176-1.9,0.525-2.828,0.859c-0.123,0.047-0.146,0.357-0.213,0.541c0.441,0.09,0.814,0.139,1.168,0.254
			c0.73,0.236,1.385,0.809,1.057,1.516c-0.4,0.854-0.139,1.646-0.219,2.465c-5.148,0-10.291,0-15.439,0
			c0.652-0.344,1.275-0.889,1.963-0.988c1.432-0.207,2.895-0.199,4.344-0.236c1.322-0.035,2.346-0.668,3.568-1.609
			c-1.307,0.117-2.146-0.041-2.205-1.344c-0.01-0.199-0.42-0.451-0.689-0.553c-0.469-0.17-0.975-0.324-1.465-0.338
			c-0.629-0.016-0.66-0.352-0.605-0.811c0.084-0.695,0.607-0.881,1.166-0.854c0.973,0.053,1.957,0.125,2.908,0.313
			c2.082,0.412,3.197-0.162,3.566-2.074c-0.563-0.137-1.137-0.266-1.705-0.408c-0.426-0.104-0.906-0.137-1.252-0.367
			c-0.684-0.453-1.289-1.021-1.795-1.438c0.123-0.482,0.537-1.154,0.352-1.539c-0.336-0.701-1.063-0.393-1.678-0.125
			c0.178,0.389,0.336,0.738,0.607,1.342c-0.627-0.098-1.053-0.068-1.379-0.232c-1.105-0.561-1.094-0.584-1.563,0.631
			c-0.709,1.826-1.469,2.346-3.344,2.314c-0.824-0.012-1.65-0.033-2.477,0.01c-0.563,0.027-1.136,0.104-1.672,0.262
			c-0.917,0.279-1.104,0.932-0.559,1.729c0.176,0.256,0.351,0.514,0.617,0.896c-0.857,0.197-1.586,0.416-2.328,0.527
			c-0.793,0.117-1.316,0.361-1.227,1.313c0.073,0.748-0.41,0.963-1.085,0.969c-0.765,0.016-0.94-0.428-0.83-1.041
			c0.093-0.514,0.296-1.006,0.435-1.508c0.136-0.496,0.25-0.996,0.434-1.732c-0.564,0.223-0.807,0.291-1.018,0.408
			c-1.274,0.709-2.572,1.127-4.084,0.828c-1.021-0.199-1.381,0.33-1.106,1.359c0.058,0.217,0.112,0.434,0.205,0.635
			c0.375,0.826,0.037,1.283-0.776,1.438c-0.394,0.074-0.809,0.037-1.215,0.059c-0.867,0.041-1.734,0.105-2.604,0.125
			c-0.348,0.006-0.695-0.09-1.043-0.139c-0.506,0.068-1.45,0.322-1.476,0.646C28.541,55.667,27.542,55.595,26.783,55.917z
			 M42.225,8.36c-0.506-0.012-1.013-0.014-1.519-0.039c-1.125-0.051-2.171,0.039-2.435,1.039c-0.735,0.209-1.301,0.232-1.688,0.508
			c-0.968,0.688-1.978,0.949-3.136,0.705c-0.493-0.104-0.997-0.164-1.498-0.225c-2.19-0.27-4.439-0.16-6.527-1.094
			c-0.346-0.154-0.873-0.158-1.218-0.01c-1.118,0.486-2.136,0.152-3.194-0.166c-0.506-0.15-0.938-0.043-1.189,0.596
			c-0.238,0.6-0.707,1.104-1.055,1.664c-0.351,0.563-0.678,1.141-0.965,1.625c1.021,0.125,1.914,0.184,2.786,0.352
			c0.915,0.176,1.806,0.469,2.711,0.691c0.487,0.117,1.021,0.117,1.464,0.318c0.286,0.131,0.643,0.561,0.61,0.809
			c-0.033,0.26-0.462,0.584-0.774,0.668c-0.445,0.121-0.943,0.053-1.418,0.061c-1.293,0.02-1.535,0.359-0.964,1.611
			c-1.077,0.229-2.122,0.451-3.167,0.672c0.012,0.146,0.023,0.293,0.035,0.439c0.689,0.102,1.377,0.203,2.148,0.316
			c0,0.447,0,0.898,0,1.457c1.685-0.359,2.898,0.451,4.072,1.357c1.287,0.992,2.803,1.207,4.358,1.439
			c2.12,0.313,3.653-1.24,5.563-1.572c0.5-0.086,0.439-0.631,0.047-0.861c-0.291-0.17-0.738-0.236-1.063-0.152
			c-0.887,0.23-1.729,0.631-2.62,0.83c-0.349,0.078-0.818-0.139-1.154-0.35c-0.166-0.105-0.301-0.623-0.203-0.73
			c0.246-0.27,0.627-0.42,0.963-0.602c0.074-0.041,0.199,0.02,0.279-0.016c0.242-0.105,0.633-0.201,0.67-0.367
			c0.045-0.203-0.144-0.572-0.34-0.695c-0.529-0.332-1.103-0.604-1.684-0.834c-0.557-0.223-1.21-0.262-1.695-0.572
			c-0.384-0.248-0.892-0.92-0.785-1.172c0.166-0.404,0.824-0.898,1.223-0.855c0.918,0.094,1.834,0.414,2.693,0.781
			c0.868,0.371,1.631,0.992,2.504,1.352c2.478,1.02,4.795,0.66,6.135-1.666c0.424-0.738,0.877-0.902,1.582-0.781
			c0.361,0.063,0.707,0.219,1.068,0.287c0.451,0.086,1.035,0.332,1.35,0.146c1.016-0.594,2.103-0.301,3.139-0.48
			c0.754-0.129,1.463-0.514,2.191-0.785c-0.037-0.125-0.074-0.25-0.111-0.375c-0.668-0.248-1.242,1.307-1.852,0.395
			c0.9-0.656,1.777-1.289,2.643-1.934c0.416-0.309,0.725-0.447,1.037,0.176c0.148,0.293,0.557,0.553,0.895,0.643
			c1.551,0.408,3.082,0.701,4.182,2.137c0.688,0.893,1.877,1.139,3.025,0.977c1-0.141,1.98-0.436,2.98-0.572
			c0.795-0.107,0.555-0.744,0.654-1.172c0.021-0.092-0.479-0.426-0.754-0.447c-0.789-0.064-1.588,0.004-2.383-0.033
			C57.85,13.759,57.07,12.394,58,10.661c0.125-0.23,0.23-0.471,0.379-0.766c-1.793-0.191-3.836,0.604-4.648-1.705
			c-0.336,0-0.617,0-0.912,0c-0.229,0.805-0.461,1.609-0.689,2.416c-0.367,1.293-1.566,0.43-2.271,0.865
			c-0.146,0.09-0.383,0.086-0.561,0.041c-0.357-0.092-0.826-0.137-1.027-0.381c-0.762-0.93-1.619-1.064-2.703-0.662
			c-0.543,0.199-1.422-0.598-1.137-0.887c0.957-0.971,0.832-1.951,0.34-3.031c-0.037-0.082,0.024-0.207,0.054-0.391
			c-0.402,0.033-0.845-0.063-0.996,0.105c-0.593,0.652-1.091,1.391-1.625,2.098L42.225,8.36z M48.145-0.118
			C47.463,0.2,47.007,0.556,46.52,0.606c-0.732,0.074-1.267,0.238-1.24,1.074c0.027,0.799,0.287,1.363,1.26,1.467
			c0.43,0.045,1.137,0.504,1.158,0.816c0.057,0.758,0.395,1.201,0.908,1.67c0.803,0.732,0.748,1.092-0.121,1.713
			c0.863,0.486,1.799,0.605,2.799,0.184c1.777-0.754,3.553-1.047,5.434-0.354c0.348,0.127,1.084,0.025,1.203-0.199
			c0.752-1.441,1.928-1.861,3.469-1.902c1.078-0.027,2.139-0.459,3.223-0.592c0.898-0.109,1.117-0.348,1.012-1.275
			c-0.035-0.313,0.189-0.688,0.379-0.982c0.133-0.209,0.396-0.336,0.924-0.75c-2.229-0.09-3.219-1.008-2.73-3.094
			c-0.506-0.035-0.908-0.01-1.281-0.109c-0.391-0.107-0.961-0.252-1.07-0.531c-0.277-0.721-0.799-0.668-1.375-0.73
			c-0.742-0.08-1.477-0.27-2.301-0.428c-0.607,0.426-1.41,0.982-2.205,1.545c-0.592,0.422-1.195,0.83-1.758,1.291
			c-0.164,0.137-0.328,0.506-0.26,0.643c0.107,0.203,0.426,0.404,0.656,0.414c0.596,0.025,1.225,0.037,1.795-0.109
			c1.627-0.414,3.137-0.1,4.564,0.666c0.285,0.152,0.631,0.584,0.596,0.836c-0.043,0.281-0.451,0.594-0.768,0.723
			c-0.363,0.15-0.807,0.16-1.213,0.152c-1.283-0.018-2.258,0.416-2.883,1.619C56.5,4.739,56.051,5.11,55.646,5.231
			c-1.473,0.438-2.984,0.576-4.479,0.105c-0.271-0.086-0.607-0.527-0.605-0.803c0.012-1.422,0.049-1.438-1.34-1.811
			c-0.768-0.205-1.109-0.668-1.078-1.449C48.16,0.813,48.145,0.356,48.145-0.118z M49.139,40.437
			c-1.094,0.328-2.224,0.654-3.348,1.006c-0.391,0.123-0.777,0.275-1.137,0.471c-1.192,0.664-1.395,0.672-2.201-0.41
			c-0.52-0.691-1.145-0.955-1.971-0.859c-0.407,0.045-0.821,0.061-1.23,0.104c-0.748,0.08-1.336-0.141-1.57-0.904
			c-0.248-0.801,0.073-1.393,0.848-1.656c0.714-0.242,1.451-0.443,2.195-0.561c1.594-0.242,3.205-0.387,4.795-0.648
			c0.471-0.08,1.053-0.34,0.844-1.025c-0.211-0.693-0.772-0.457-1.274-0.385c-1.05,0.148-2.104,0.252-3.157,0.389
			c-0.139,0.02-0.267,0.125-0.402,0.182c-0.447,0.186-0.885,0.482-1.348,0.531c-0.875,0.088-1.764,0.016-2.646,0.041
			c-1.917,0.053-2.422,0.582-2.723,1.832c0.205,0.082,0.422,0.141,0.611,0.246c0.299,0.168,0.85,0.438,0.821,0.539
			c-0.104,0.389-0.354,0.762-0.63,1.072c-0.202,0.225-0.559,0.305-0.79,0.512c-0.275,0.252-0.489,0.568-0.854,1.008
			c0.537,0.096,0.807,0.176,1.079,0.186c1.589,0.057,2.793,0.77,3.839,1.963c1.09,1.246,2.293,1.459,3.631,0.486
			c1.539-1.117,3.189-1.375,5.004-1.441c1.102-0.041,2.188-0.455,3.281-0.699c-0.018-0.113-0.031-0.227-0.047-0.344
			c-0.469-0.121-1.09-0.105-1.365-0.408C49.119,41.36,49.189,40.745,49.139,40.437z M39.557,4.292
			c-0.094-0.025-0.293-0.111-0.5-0.133c-1.976-0.205-3.955-0.385-5.931-0.598c-0.874-0.094-1.737-0.291-2.612-0.363
			c-1.115-0.09-2.166,0.135-2.887,1.086c-0.594,0.785-0.159,1.756,0.794,1.799c0.216,0.01,0.487-0.346,0.652-0.293
			c0.764,0.25,1.595,0.457,2.225,0.92c0.993,0.73,1.929,0.662,2.925,0.184C36.003,6.04,37.771,5.165,39.557,4.292z M64.512,49.126
			c1.109-1.781,1.115-2.172-0.072-3.449c-0.234-0.26-0.793-0.549-0.984-0.439c-0.313,0.176-0.588,0.658-0.619,1.031
			C62.723,47.546,63.463,48.39,64.512,49.126z M18.76,39.024c-0.916,0-1.785-0.02-2.648,0.018c-0.16,0.008-0.424,0.24-0.432,0.383
			c-0.011,0.146,0.209,0.412,0.37,0.445c0.841,0.189,1.696,0.324,2.607,0.486C18.697,39.831,18.725,39.47,18.76,39.024z M56.898-7.1
			c0.305,0.132,0.637,0.373,0.99,0.41c0.533,0.055,1.104,0.043,1.609-0.1c0.178-0.05,0.223-0.57,0.328-0.877
			c-0.314-0.049-0.658-0.197-0.943-0.126C58.223-7.625,57.588-7.35,56.898-7.1z M49.752,39.532c0.184,0.611,0.275,1.182,0.535,1.66
			c0.139,0.258,0.656,0.564,0.844,0.482c0.453-0.195,0.387-1.646-0.025-2.174C50.629,38.897,50.186,39.198,49.752,39.532z
			 M9.939,33.079c-0.721-0.16-1.222-0.268-1.855-0.41C8.609,33.933,8.814,33.985,9.939,33.079z"/>
		<path fill="#EADA7F" d="M2.582,52.294c0.866-0.15,0.934-0.629,0.516-1.289c-0.311-0.484-0.484-0.949-0.039-1.467
			c0.444-0.521,0.907-0.381,1.438-0.168c0.464,0.188,0.959,0.313,1.452,0.406c1.45,0.287,2.266-0.518,2.069-1.979
			c-0.242-1.805-0.705-3.533-1.641-5.113c-0.143-0.24-0.244-0.5-0.386-0.797c1.091-0.391,2.022-0.08,2.782,0.574
			c1.045,0.896,2.012,1.422,3.408,0.623c0.426-0.242,1.243,0.008,1.803,0.232c1.35,0.533,2.513,0.314,3.748-0.402
			c0.645-0.375,1.511-0.373,2.279-0.523c1.393-0.275,2.206-1.176,2.594-2.479c0.064-0.215-0.158-0.73-0.32-0.764
			c-0.936-0.193-1.893-0.281-2.803-0.4c-0.344-1.365-0.271-1.426,1.014-1.518c0.48-0.033,1.042-0.143,1.402-0.426
			c1.008-0.787,2.074-1.037,3.43-0.639c0.094-0.365,0.265-0.713,0.223-1.031c-0.016-0.119-0.533-0.191-0.828-0.25
			c-3.08-0.588-6.178-0.432-9.274-0.199c-1.091,0.082-2.122,0.092-2.535-1.297c1.397-1.482,3.302-0.859,4.983-1.143
			c0.176,0.232,0.345,0.453,0.565,0.746c0.212-0.65,0.505-1.148,0.515-1.652c0.028-1.469,1.563-1.662,2.195-2.641
			c0.221-0.342,1.401-0.092,2.141-0.055c0.612,0.029,1.223,0.139,1.832,0.215c0.262,0.033,0.523,0.068,0.783,0.113
			c0.207,0.037,0.497,0.201,0.604,0.117c0.81-0.619,1.571-0.131,2.35,0.035c0.336,0.07,0.716,0.213,1.015,0.121
			c0.377-0.113,0.69-0.436,1.031-0.668c-0.277-0.377-0.537-0.768-0.836-1.129c-0.176-0.211-0.412-0.375-0.619-0.561
			c0.272-0.166,0.536-0.457,0.82-0.479c0.854-0.063,1.712-0.006,2.568-0.021c0.877-0.016,1.408-0.404,1.777-1.275
			c0.238-0.561,0.854-1.156,1.428-1.342c1.094-0.354,2.015-0.771,2.674-1.785c0.281-0.434,0.869-0.85,1.371-0.928
			c1.435-0.219,2.894-0.285,4.347-0.35c0.269-0.012,0.61,0.203,0.815,0.416c0.343,0.354,0.412,0.785-0.224,0.893
			c-0.681,0.115-1.379,0.105-2.065,0.199c-0.491,0.064-1.065,0.08-1.434,0.35c-0.363,0.266-0.738,0.84-0.708,1.25
			c0.052,0.701,0.642,1.068,1.386,0.975c0.565-0.072,1.123-0.273,1.685-0.277c0.342-0.004,0.687,0.256,1.028,0.398
			c-0.264,0.246-0.493,0.572-0.805,0.719c-0.324,0.152-0.736,0.111-1.101,0.193c-0.457,0.104-1.129,0.098-1.318,0.391
			c-0.771,1.197-1.894,0.912-2.975,0.92c-0.31,0.002-0.679-0.02-0.918,0.133c-0.554,0.35-0.468,0.805,0,1.307
			c0.639-0.914,1.304-0.629,2.252-0.477c1.504,0.242,2.286,1.486,3.6,1.877c0.81,0.242,1.11,0.943,0.947,1.754
			c-0.165,0.809-0.701,1.297-1.556,1.229c-0.985-0.078-1.963-0.256-2.948-0.35c-0.263-0.023-0.538,0.107-0.782,0.373
			c0.284,0,0.569,0,0.863,0c0.281,0.584,0.545,1.133,0.773,1.609c-1.299,0.375-2.492,0.744-3.701,1.051
			c-0.316,0.084-0.76,0.094-1.008-0.07c-1.676-1.104-2.988-0.219-4.336,0.682c-0.773,0.516-1.613,0.938-2.382,1.463
			c-0.329,0.223-0.746,0.574-0.788,0.912c-0.093,0.721-0.005,1.475,0.078,2.207c0.143,1.258,0.984,2.016,2.223,1.992
			c0.877-0.016,1.397,0.217,1.801,1.141c0.24,0.555,1.177,0.879,1.863,1.145c1.024,0.396,1.328,1.279,0.635,2.197
			c-1.121,1.488-3.305,2.092-5.049,1.34c-0.576-0.25-1.181-0.545-1.619-0.979c-2.226-2.197-4.887-2.404-7.77-1.896
			c-1.146,0.203-2.152,0.164-3.375-0.469c-1.167-0.602-2.945-0.875-4.385-0.092c-0.361,0.197-0.576,0.869-0.616,1.342
			c-0.017,0.195,0.579,0.559,0.942,0.645c0.546,0.131,1.139,0.045,1.699,0.131c0.395,0.059,0.769,0.246,1.246,0.408
			c-0.678,1.07-1.654,0.922-2.474,1.102c-0.616,0.135-1.302,0.033-1.872,0.256c-0.495,0.191-1.246,0.705-1.234,1.055
			c0.047,1.428-0.469,2.395-1.883,2.938c0.418,0.299,0.69,0.492,1.002,0.715c-0.318,0.717-0.689,0.928-1.262,0.295
			c-0.127-0.143-0.229-0.35-0.386-0.412c-0.32-0.127-0.673-0.174-1.011-0.254C7.238,53.8,7.023,54.21,7.12,54.526
			c0.155,0.5,0.521,0.936,0.798,1.396c-1.779,0-3.559,0-5.336,0C2.582,54.71,2.582,53.503,2.582,52.294z M33.52,28.565
			c-0.969,0.389-1.766,0.707-2.677,1.074C32.109,30.286,33.087,29.937,33.52,28.565z M26.407,42.573
			c-0.263-0.234-0.507-0.641-0.769-0.65c-0.402-0.018-0.844,0.193-1.203,0.41c-0.076,0.049,0.082,0.779,0.209,0.807
			C25.268,43.261,25.965,43.405,26.407,42.573z M17.824,45.009c0.884-0.398,1.426-0.645,1.968-0.891
			c-0.03-0.141-0.062-0.277-0.09-0.418c-0.597,0.051-1.203,0.063-1.78,0.191C17.828,43.917,17.861,44.493,17.824,45.009z"/>
		<path fill="#FFFFFF" d="M49.461-10.212c-0.109,0.581-0.238,1.146,0.641,1.261c0.152,0.02,0.26,0.381,0.426,0.643
			c0.412-0.43,0.861-0.512,1.25,0.255c-0.389,0.181-0.77,0.36-1.154,0.538c0.432,0.654,0.248,1.639-0.58,2.268
			c-0.621,0.471-1.355,0.797-2.066,1.133c-1.113,0.529-2.264,0.97-3.357,1.525c-1.008,0.51-1.911,0.521-2.98,0.063
			c-0.904-0.387-1.963-0.408-2.955-0.584c-0.396-0.07-0.795-0.115-1.228-0.178c0.634-1.292,0.603-1.238-0.552-1.908
			c-0.426-0.25-0.826-0.781-0.952-1.261c-0.289-1.083-1.257-1.796-2.382-1.789c-1.098,0.009-1.938,0.229-2.543,1.255
			c-0.168,0.281-0.92,0.481-1.254,0.348c-0.83-0.33-1.15,0.084-1.508,0.666c-0.562,0.91-1.437,0.914-2.059-0.008
			c-0.141,0.224-0.244,0.453-0.404,0.631c-0.744,0.83-0.688,1.266,0.299,1.835c0.821,0.473,1.646,0.943,2.494,1.367
			c0.658,0.332,1.311,0.344,1.954-0.139c0.279-0.209,0.679-0.256,1.017-0.395c0.16-0.066,0.441-0.211,0.43-0.258
			c-0.059-0.23-0.198-0.441-0.318-0.676c0.537-0.49,0.856-0.299,1.327,0.27c0.578,0.699,1.382,1.211,2.088,1.805
			c0.269,0.225,0.729,0.432,0.753,0.678c0.032,0.338-0.184,0.91-0.447,1.025c-0.939,0.408-1.934,0.877-2.928,0.934
			c-2.019,0.115-3.966-0.434-5.804-1.266c-2.2-0.996-4.433-1.486-6.833-0.832c-0.477,0.131-1.014,0.092-1.516,0.055
			c-0.321-0.023-0.631-0.188-0.945-0.289c0.113-0.295,0.229-0.592,0.344-0.895c-0.777-0.189-1.619-0.422-2.474-0.598
			c-1.277-0.264-2.312,0.293-2.675,1.395c-0.236,0.711,0.078,1.223,0.832,1.195c0.687-0.025,1.371-0.275,2.052-0.252
			c0.418,0.014,1.062,0.258,1.188,0.568c0.262,0.635-0.127,1.254-0.822,1.322c-0.701,0.068-1.426-0.123-2.143-0.186
			c-0.749-0.063-1.503-0.176-2.246-0.125c-0.287,0.021-0.742,0.412-0.771,0.672c-0.035,0.326,0.2,0.861,0.475,1.006
			c0.593,0.313,1.3,0.398,1.935,0.646c0.336,0.129,0.865,0.381,0.883,0.611c0.145,1.771,1.337,2.703,2.664,3.559
			c0.207,0.135,0.406,0.285,0.637,0.447c-0.146,0.346-0.275,0.654-0.5,1.189c0.338-0.373,0.516-0.568,0.775-0.855
			c0.414,1.814-1.84,2.498-1.42,4.18c-0.084,0.041-0.166,0.084-0.25,0.125c-0.858-0.613-1.785-1.15-2.553-1.861
			c-0.656-0.609-1.203-0.791-1.883-0.166c-0.523,0.482-1.004,0.457-1.689,0.23c-0.83-0.277-1.769-0.236-2.662-0.314
			c-0.279-0.021-0.646,0.148-0.834,0.021c-1.161-0.775-2.19-0.389-3.217,0.26c0.246-0.459,0.489-0.918,0.795-1.488
			C3.503,9.341,3.043,9.185,2.584,9.03c0-0.635,0-1.27,0-1.906c1.02-0.016,2.089,0.061,2.375-1.338
			c0.372,0.166,0.684,0.412,1.002,0.42c0.398,0.01,0.803-0.176,1.205-0.275C7.044,5.532,7.038,4.927,6.777,4.784
			c-0.482-0.262-1.11-0.281-1.684-0.346c-0.365-0.043-0.738,0.016-1.109,0.02C2.949,4.474,3.047,3.444,2.586,2.933
			c0-0.191,0-0.383,0-0.572c1.02,0.42,2.038,0.84,3.063,1.264c0.01-0.051-0.006-0.199,0.061-0.275
			c0.928-1.055,0.887-1.004-0.264-1.916c-0.541-0.43-0.881-1.109-1.397-1.791c1.067-0.229,1.83-0.389,2.591-0.551
			c-0.022-0.111-0.047-0.223-0.07-0.334C5.746-1.185,4.923-1.126,4.102-1.067c-0.351-1.057-0.699-2.113-1.07-3.229
			c0.902,0,1.908,0.61,2.593-0.463C5.303-5.161,4.839-5.5,4.723-5.932C4.33-7.384,4.001-7.721,2.586-7.741c0-0.824,0-1.652,0-2.478
			c1.27,0,2.541,0,3.811,0C6.904-9.698,7.413-9.176,7.92-8.655c0.078-0.066,0.155-0.134,0.234-0.199
			c0.029-0.262,0.062-0.522,0.094-0.805c1.271,0.561,2.48,0.924,3.68,0c0.26,0.309,0.473,0.697,0.801,0.893
			c0.168,0.102,0.541-0.143,0.822-0.23c-0.009-0.105-0.018-0.213-0.027-0.318c-0.539-0.107-1.078-0.215-1.617-0.32
			c0.498-0.023,1.148-0.26,1.469-0.031c0.839,0.6,1.602,0.936,2.66,0.283c-0.154,0.475-0.35,0.911-0.646,0.997
			c-0.595,0.172-1.244,0.138-1.869,0.215c-0.49,0.06-0.977,0.16-1.463,0.242c0.021,0.094,0.043,0.188,0.065,0.28
			c1.757,0.277,3.468,0.332,4.778-1.254c0.746,1.264,1.768,1.688,3.033,1.647c-0.012,0.78,0.471,0.586,0.934,0.511
			c0.744-0.121,1.638-0.662,2.072,0.639c0.029-0.389-0.01-0.777-0.213-0.907c-0.977-0.621-0.617-1.968-1.479-2.642
			c-0.049-0.039,0.129-0.367,0.202-0.561c1.334,0,2.668,0,4.002,0c0.258,0.668,0.446,1.379,0.81,1.986
			c0.152,0.257,0.672,0.293,1.024,0.43c0.006-0.373,0.083-0.76,0.003-1.113c-0.102-0.449-0.329-0.869-0.503-1.303
			c1.081,0,2.161,0,3.239,0c0.633,0.967,1.084,0.967,1.716,0c3.62,0,7.241,0,10.862,0c0.084,0.833-0.525,0.895-1.098,0.954
			c-0.88,0.09-1.768,0.116-2.646,0.218C38.061-8.95,37.41-8.18,37.543-7.458c0.137,0.748,0.484,1.229,1.419,1.069
			c0.981-0.172,1.843,0.215,2.628,0.838c1.161,0.923,1.922,0.934,3.047-0.03c0.87-0.745,1.772-1.007,2.889-0.718
			c0.951,0.245,1.762,0.009,2.186-0.92c-1.49-1.444-3.294-1.737-5.268-1.445c-0.234,0.035-0.506-0.16-0.76-0.25
			c0.567-0.296,1.105-0.333,1.613-0.479c0.829-0.237,1.637-0.545,2.455-0.824C48.316-10.212,48.889-10.212,49.461-10.212z
			 M23.438-4.127c-1.775,0.048-3.104,0.876-4.44,1.689C20.539-2.669,22.283-2.312,23.438-4.127z M16.004-7.092
			c0.033,0.107,0.066,0.215,0.102,0.322c0.631,0.195,1.207,0.265,1.402-0.805C16.948-7.395,16.477-7.245,16.004-7.092z
			 M10.262,4.255c0.051-0.145,0.104-0.287,0.154-0.43c-0.4-0.16-0.8-0.316-1.2-0.475C9.168,3.462,9.119,3.575,9.07,3.688
			C9.468,3.876,9.863,4.065,10.262,4.255z M13.509,4.655c0.001-0.078,0.003-0.154,0.003-0.229c-0.511,0-1.021,0-1.531,0
			c0.002,0.104,0.006,0.205,0.01,0.307C12.497,4.706,13.003,4.681,13.509,4.655z"/>
		<path fill="#EADA7F" d="M68.707,27.331c-0.082,0.357-0.201,0.715-0.25,1.08c-0.129,0.99-0.344,1.855-1.527,2.139
			c-0.211,0.051-0.426,0.695-0.4,1.053c0.098,1.367-0.264,1.941-1.598,2.191c-0.523,0.102-1.094,0.021-1.604,0.164
			c-0.49,0.139-1.027,0.357-1.369,0.707c-0.652,0.67-2.467,1.031-3.326,0.643c-0.609-0.279-1.307-0.561-1.945-0.523
			c-1.855,0.111-3.395-0.461-4.779-1.676c-0.906-0.797-1.898-1.51-3.232-1.402c-0.057-0.08-0.109-0.16-0.17-0.24
			c0.82-0.697,1.641-1.395,2.547-2.166c-1.178-0.764-2.268-1.428-3.65-1.379c-0.44,0.016-0.922,0.055-1.315-0.094
			c-0.325-0.123-0.549-0.508-0.819-0.775c0.316-0.154,0.643-0.457,0.943-0.436c0.863,0.066,1.563-0.141,2.105-0.818
			c0.217,0.971,0.418,1.068,1.561,0.604c-0.602-0.221-1.092-0.402-1.582-0.582c0.514-0.625,0.598-1.092-0.133-1.746
			c-0.543-0.488-0.84-1.334-1.039-2.076c-0.07-0.26,0.414-0.793,0.766-1.004c0.414-0.252,0.955-0.32,1.451-0.414
			c0.748-0.141,0.979-0.486,0.502-1.191c0.602-0.23,1.004-0.23,0.895,0.525c-0.068,0.51,0.02,0.719,0.602,0.602
			c0.336-0.066,0.764-0.061,1.059,0.094c1.146,0.596,2.242,1.293,3.393,1.887c0.332,0.172,0.775,0.125,1.248-0.01
			c-1.184,0.105-1.496-0.813-2.09-1.477c-0.57-0.641-1.43-1.021-2.152-1.527c-0.42-0.291-0.824-0.605-1.234-0.91
			c0.064-0.133,0.129-0.266,0.195-0.398c0.93,0.33,1.857,0.654,2.783,0.99c0.178,0.064,0.342,0.24,0.512,0.24
			c0.383,0.002,0.961,0.064,1.107-0.145c0.229-0.326,0.164-0.857,0.229-1.338c0.584,0.396,1.264,0.904,1.984,1.34
			c0.73,0.438,1.506,0.807,2.287,1.221c0.5-1.311,0.596-1.322,1.672-0.861c0.406,0.176,0.885,0.209,1.334,0.256
			c0.771,0.082,1.549,0.127,2.516,0.201c-0.453,0.836-0.803,1.486-1.16,2.146c-1.088-0.564-2.148-0.646-3.195-0.09
			c-0.223,0.117-0.314,0.473-0.473,0.719c0.248,0.15,0.482,0.389,0.75,0.439c1.098,0.209,2.215,0.313,3.301,0.555
			c0.539,0.119,1.018,0.486,1.545,0.68c0.576,0.211,1.182,0.35,1.771,0.521C68.707,25.806,68.707,26.567,68.707,27.331z
			 M49.555,25.224c0.904,0.4,1.248,0.293,1.318-0.402c0.057-0.568,0.117-1.137,0.205-1.982c-0.291,0.566-0.445,0.945-0.666,1.281
			C50.156,24.507,49.844,24.856,49.555,25.224z M61.426,27.499c0.822-0.375,0.971-0.926,0.645-1.771
			c-0.273-0.715-0.473-0.828-1.266-0.574C61.879,25.659,61.893,26.454,61.426,27.499z M62.078,23.497
			c-0.139,0.129-0.275,0.262-0.412,0.393c0.293,0.287,0.582,0.574,0.873,0.861c0.119-0.123,0.354-0.338,0.342-0.354
			C62.631,24.083,62.352,23.792,62.078,23.497z M63.98,28.472c-0.625-0.881-1.086-0.963-1.729-0.357
			C62.807,28.229,63.338,28.339,63.98,28.472z"/>
		<path fill="#FFFFFF" d="M26.783,55.917c0.759-0.322,1.758-0.25,1.855-1.533c0.023-0.322,0.969-0.576,1.475-0.646
			c0.348,0.049,0.697,0.145,1.043,0.137c0.867-0.02,1.734-0.082,2.604-0.123c0.406-0.021,0.821,0.02,1.215-0.059
			c0.813-0.154,1.151-0.611,0.776-1.438c-0.091-0.201-0.147-0.418-0.205-0.635c-0.274-1.029,0.085-1.563,1.106-1.359
			c1.512,0.299,2.81-0.119,4.084-0.828c0.212-0.119,0.453-0.188,1.018-0.41c-0.184,0.738-0.298,1.238-0.434,1.734
			c-0.139,0.502-0.342,0.994-0.434,1.508c-0.113,0.613,0.064,1.055,0.829,1.041c0.675-0.006,1.158-0.221,1.085-0.971
			c-0.09-0.947,0.434-1.191,1.227-1.313c0.742-0.109,1.471-0.33,2.328-0.525c-0.267-0.387-0.441-0.645-0.617-0.896
			c-0.545-0.797-0.358-1.449,0.559-1.729c0.536-0.158,1.109-0.232,1.672-0.264c0.822-0.043,1.65-0.02,2.475-0.008
			c1.877,0.027,2.637-0.49,3.346-2.314c0.471-1.215,0.457-1.189,1.563-0.631c0.326,0.162,0.75,0.137,1.377,0.232
			c-0.27-0.604-0.43-0.953-0.605-1.344c0.615-0.266,1.342-0.574,1.678,0.125c0.188,0.387-0.227,1.059-0.35,1.539
			c0.504,0.416,1.109,0.98,1.793,1.438c0.346,0.23,0.824,0.266,1.252,0.369c0.566,0.145,1.143,0.271,1.705,0.408
			c-0.369,1.91-1.484,2.486-3.566,2.074c-0.951-0.188-1.938-0.264-2.906-0.313c-0.561-0.027-1.082,0.156-1.166,0.854
			c-0.059,0.459-0.023,0.793,0.604,0.811c0.494,0.012,0.998,0.168,1.467,0.338c0.271,0.102,0.682,0.354,0.689,0.553
			c0.059,1.303,0.898,1.461,2.207,1.344c-1.229,0.939-2.246,1.574-3.572,1.607c-1.447,0.039-2.912,0.031-4.34,0.238
			c-0.688,0.102-1.313,0.646-1.963,0.986c-0.57,0-1.145,0-1.715,0c0.4-1.004,0.283-1.291-0.715-1.713
			c-0.804-0.344-1.609-0.678-2.412-1.014c0.293-0.104,0.582-0.213,0.873-0.318c-0.201-0.248-0.403-0.498-0.604-0.746
			c-0.082,0.045-0.162,0.096-0.242,0.141c0,0.316,0,0.633,0,0.947c-0.185-0.01-0.392-0.08-0.547-0.021
			c-0.485,0.195-1.086,0.332-1.381,0.701c-0.224,0.287-0.087,0.891-0.042,1.346c0.023,0.232,0.197,0.451,0.306,0.68
			C37.71,55.917,32.246,55.917,26.783,55.917z"/>
		<path fill="#EADA7F" d="M2.582,21.804c0.456,0.129,1.006,0.141,1.35,0.412c0.771,0.613,1.215,0.365,1.644-0.367
			c0.14-0.238,0.397-0.404,0.593-0.611c1.057-1.113,1.271-1.145,2.602-0.393c1.032,0.584,1.258,0.523,1.785-0.584
			c0.463,1.008,1.215,1.367,2.25,1.209c0.211-0.033,0.521,0.119,0.678,0.283c0.845,0.895,1.631,1.844,2.488,2.723
			c0.494,0.508,1.055,0.967,1.643,1.357c0.541,0.361,1.21,0.563,1.203,1.502c-0.287-0.045-0.519-0.076-0.748-0.117
			c-0.344-0.063-0.691-0.217-1.023-0.186c-1.195,0.111-2.408,0.193-3.574,0.461c-1.188,0.27-2.33,0.742-3.561,1.15
			c0.258,0.436,0.441,0.746,0.626,1.057c-2.084-1.398-3.671-0.359-5.146,1.098c-0.535-0.891-1.004-1.674-1.572-2.617
			c1.352-0.861,2.65-1.682,3.941-2.516c0.697-0.449,1.391-0.445,2.021,0.063c0.484,0.393,0.896,0.262,1.089-0.184
			c0.202-0.467,0.342-1.078-0.396-1.342c-0.117-0.043-0.273-0.029-0.361-0.102c-1.346-1.117-2.734-1.682-4.29-0.379
			c-1.08-0.322-2.161-0.645-3.241-0.965C2.582,22.438,2.582,22.122,2.582,21.804z"/>
		<path fill="#EADA7F" d="M2.582,30.95c1.018-0.068,1.586,0.307,2.04,1.328c0.539,1.219,1.563,2.107,3.247,1.609
			c-0.1,0.396-0.16,0.592-0.194,0.791c-0.144,0.854,0.154,1.17,0.978,0.914c1.205-0.371,2.199-0.258,3.025,0.818
			c0.444,0.58,1.094,0.766,1.877,0.594c0.521-0.113,1.271-0.428,1.482,0.475c0.138,0.594-0.584,1.291-1.405,1.195
			c-1.08-0.125-2.179-0.348-3.19-0.736c-1.256-0.484-2.395-0.678-3.601,0.117c-0.75,0.496-1.495,0.369-2.104-0.363
			c-0.424-0.51-0.858-1.016-1.35-1.455c-0.174-0.154-0.531-0.1-0.805-0.141C2.582,34.382,2.582,32.665,2.582,30.95z"/>
		<path d="M47.748-10.212c-0.818,0.278-1.626,0.586-2.455,0.824c-0.507,0.146-1.045,0.182-1.613,0.479
			c0.254,0.088,0.524,0.283,0.76,0.25c1.974-0.293,3.777,0,5.268,1.444c-0.424,0.931-1.234,1.166-2.186,0.92
			c-1.115-0.29-2.019-0.028-2.89,0.718c-1.125,0.965-1.885,0.953-3.046,0.03c-0.785-0.623-1.646-1.009-2.628-0.838
			c-0.935,0.161-1.283-0.321-1.419-1.069c-0.133-0.723,0.518-1.492,1.316-1.585c0.879-0.103,1.767-0.128,2.646-0.218
			c0.572-0.061,1.182-0.121,1.098-0.954C44.316-10.212,46.029-10.212,47.748-10.212z"/>
		<path d="M11.924-9.653c-1.197,0.924-2.406,0.562-3.68,0C8.211-9.372,8.18-9.11,8.15-8.848C8.07-8.782,7.994-8.715,7.916-8.649
			C7.408-9.169,6.9-9.692,6.393-10.212c5.02,0,10.037,0,15.056,0c-0.072,0.192-0.251,0.522-0.202,0.56
			c0.861,0.674,0.502,2.021,1.479,2.643c0.203,0.129,0.242,0.52,0.213,0.908c-0.435-1.301-1.328-0.76-2.072-0.639
			c-0.463,0.074-0.944,0.27-0.934-0.512c-1.267,0.04-2.287-0.384-3.033-1.646c-1.312,1.586-3.021,1.531-4.778,1.254
			c-0.022-0.094-0.045-0.188-0.065-0.281c0.487-0.082,0.973-0.182,1.463-0.242c0.625-0.076,1.274-0.043,1.869-0.215
			c0.297-0.086,0.491-0.523,0.646-0.997c-1.06,0.651-1.821,0.317-2.66-0.283c-0.319-0.229-0.97,0.007-1.47,0.031L11.924-9.653z"/>
		<path fill="#FFFFFF" d="M65.09,55.917c0.08-0.816-0.184-1.607,0.219-2.465c0.328-0.705-0.324-1.277-1.057-1.516
			c-0.354-0.115-0.727-0.164-1.168-0.254c0.064-0.186,0.09-0.496,0.213-0.541c0.928-0.334,1.863-0.688,2.828-0.859
			c0.23-0.047,0.615,0.521,0.869,0.854c0.445,0.59,0.711,1.408,1.713,1.154c0,1.078,0.014,2.16-0.016,3.238
			c-0.004,0.133-0.236,0.256-0.365,0.383c0.105-0.932-0.594-1.039-1.207-1.043c-0.719-0.006-1.592-0.072-1.648,1.043
			C65.344,55.917,65.215,55.917,65.09,55.917z"/>
		<path fill="#FFFFFF" d="M68.707,35.905c-0.352,0.1-0.695,0.258-1.055,0.281c-1.078,0.07-1.42,0.426-1.309,1.494
			c0.023,0.246,0.227,0.518,0.162,0.723c-0.123,0.396-0.336,0.781-0.604,1.096c-0.066,0.082-0.602-0.035-0.686-0.191
			c-0.221-0.4-0.365-0.861-0.418-1.314c-0.021-0.186,0.229-0.453,0.422-0.602c0.975-0.766,1.264-1.844,1.449-2.984
			c0.088-0.529,0.215-1.051,0.326-1.576c0.197-0.936,0.77-1.5,1.705-1.688C68.707,32.729,68.707,34.317,68.707,35.905z"/>
		<path d="M44.807,53.192c0.805,0.336,1.612,0.67,2.416,1.012c1,0.422,1.117,0.709,0.715,1.713c-1.588,0-3.179,0-4.767,0
			c-0.106-0.227-0.28-0.443-0.306-0.678c-0.045-0.457-0.182-1.059,0.042-1.346c0.295-0.369,0.896-0.506,1.381-0.701
			c0.155-0.061,0.362,0.012,0.547,0.021L44.807,53.192z"/>
		<path d="M2.582-7.735c1.415,0.02,1.744,0.356,2.136,1.809C4.835-5.493,5.299-5.155,5.62-4.753C4.936-3.681,3.93-4.291,3.027-4.291
			c0.371,1.116,0.72,2.172,1.07,3.229l0.026-0.02C3.609-1.013,3.098-0.942,2.583-0.874C2.582-3.161,2.582-5.448,2.582-7.735z"/>
		<path d="M4.096-1.063c0.822-0.059,1.646-0.115,2.469-0.174c0.022,0.111,0.047,0.223,0.068,0.334
			c-0.76,0.162-1.521,0.322-2.59,0.551C4.561,0.329,4.9,1.009,5.439,1.437C6.591,2.349,6.631,2.3,5.704,3.353
			c-0.067,0.076-0.052,0.225-0.06,0.275C4.619,3.206,3.6,2.786,2.581,2.364c0-0.699,0-1.396,0-2.094
			C3.307,0.06,3.969-0.222,4.122-1.083L4.096-1.063z"/>
		<path fill="#FFFFFF" d="M68.707,10.94c-1.146,0.104-2.293,0.223-3.441,0.301c-0.307,0.02-0.654-0.02-0.916-0.158
			c-0.271-0.145-0.629-0.432-0.646-0.678c-0.02-0.238,0.311-0.662,0.557-0.73c0.902-0.25,1.83-0.414,2.758-0.553
			c0.557-0.082,1.131-0.061,1.693-0.086C68.707,9.671,68.707,10.306,68.707,10.94z"/>
		<path d="M2.582,2.938C3.044,3.45,2.945,4.479,3.98,4.466C4.352,4.46,4.727,4.401,5.09,4.444C5.663,4.511,6.291,4.528,6.773,4.79
			c0.261,0.143,0.268,0.748,0.389,1.146c-0.4,0.1-0.807,0.285-1.205,0.275c-0.318-0.008-0.63-0.254-1.002-0.42
			C4.67,7.19,3.6,7.114,2.58,7.132C2.582,5.733,2.582,4.335,2.582,2.938z"/>
		<path d="M26.783-10.212c0.174,0.433,0.402,0.854,0.503,1.304c0.08,0.352,0.003,0.739-0.003,1.112
			c-0.352-0.136-0.872-0.173-1.024-0.429c-0.362-0.607-0.552-1.318-0.81-1.987C25.895-10.212,26.339-10.212,26.783-10.212z"/>
		<path d="M65.471,55.917c0.057-1.117,0.93-1.049,1.648-1.043c0.613,0.002,1.313,0.107,1.207,1.043
			C67.377,55.917,66.422,55.917,65.471,55.917z"/>
		<path fill="#FFFFFF" d="M68.707,3.892c-0.203-0.066-0.428-0.105-0.615-0.207c-0.279-0.15-0.535-0.348-0.803-0.525
			c0.322-0.238,0.633-0.494,0.971-0.711c0.117-0.076,0.299-0.059,0.447-0.082C68.707,2.874,68.707,3.382,68.707,3.892z"/>
		<path d="M2.582,9.036c0.459,0.154,0.919,0.311,1.23,0.416c-0.306,0.572-0.551,1.029-0.795,1.488c-0.146,0-0.291,0-0.436,0
			C2.582,10.306,2.582,9.671,2.582,9.036z"/>
		<path fill="#FFFFFF" d="M4.123-1.083C3.971-0.222,3.307,0.06,2.582,0.271c0-0.383,0-0.764,0-1.146
			C3.096-0.942,3.609-1.013,4.123-1.083z"/>
		<path fill="#FFFFFF" d="M2.582,25.044c0.266,0.059,0.531,0.115,0.783,0.172c0.271,0.859-0.336,1.26-0.783,1.732
			C2.582,26.313,2.582,25.679,2.582,25.044z"/>
		<path fill="#FFFFFF" d="M21.639,55.917c0.225-0.266,0.448-0.523,0.541-0.629c1.155,0.232,2.117,0.434,3.08,0.629
			C24.052,55.917,22.846,55.917,21.639,55.917z"/>
		<path d="M31.738-10.212c-0.633,0.968-1.084,0.968-1.715,0C30.596-10.212,31.167-10.212,31.738-10.212z"/>
		<path fill="#EADA7F" d="M42.206,8.36c0.535-0.707,1.034-1.443,1.625-2.098c0.151-0.166,0.594-0.07,0.996-0.104
			c-0.029,0.184-0.091,0.309-0.054,0.389c0.49,1.08,0.615,2.063-0.34,3.031c-0.285,0.291,0.594,1.086,1.137,0.887
			c1.084-0.402,1.941-0.266,2.701,0.662c0.201,0.246,0.67,0.289,1.029,0.383c0.176,0.043,0.414,0.047,0.559-0.041
			c0.705-0.438,1.904,0.426,2.271-0.865c0.229-0.807,0.461-1.613,0.689-2.416c0.297,0,0.576,0,0.912,0
			c0.814,2.307,2.855,1.512,4.65,1.705c-0.146,0.295-0.256,0.533-0.379,0.764c-0.932,1.734-0.152,3.098,1.842,3.191
			c0.793,0.039,1.592-0.029,2.381,0.033C62.5,13.903,63,14.237,62.98,14.331c-0.102,0.428,0.141,1.063-0.654,1.17
			c-1,0.139-1.979,0.434-2.979,0.574c-1.148,0.16-2.344-0.084-3.025-0.979c-1.102-1.436-2.631-1.727-4.182-2.137
			c-0.34-0.088-0.744-0.348-0.896-0.641c-0.313-0.625-0.621-0.484-1.037-0.176c-0.865,0.645-1.742,1.277-2.643,1.934
			c0.609,0.91,1.184-0.643,1.852-0.395c0.037,0.125,0.074,0.25,0.109,0.375c-0.729,0.271-1.438,0.656-2.189,0.785
			c-1.036,0.18-2.123-0.111-3.138,0.48c-0.315,0.186-0.899-0.061-1.351-0.146c-0.361-0.068-0.707-0.227-1.068-0.287
			c-0.704-0.121-1.158,0.043-1.582,0.779c-1.34,2.328-3.657,2.688-6.135,1.666c-0.873-0.357-1.637-0.979-2.504-1.35
			c-0.859-0.365-1.775-0.686-2.692-0.781c-0.399-0.041-1.058,0.451-1.224,0.855c-0.105,0.254,0.401,0.924,0.785,1.172
			c0.485,0.313,1.139,0.352,1.695,0.572c0.581,0.23,1.154,0.504,1.684,0.834c0.196,0.123,0.385,0.494,0.34,0.697
			c-0.037,0.164-0.428,0.26-0.67,0.365c-0.08,0.037-0.205-0.023-0.279,0.016c-0.336,0.182-0.717,0.332-0.963,0.604
			c-0.098,0.107,0.035,0.623,0.203,0.729c0.336,0.211,0.806,0.428,1.154,0.35c0.891-0.197,1.733-0.598,2.62-0.828
			c0.325-0.086,0.772-0.02,1.063,0.15c0.393,0.232,0.453,0.775-0.047,0.863c-1.91,0.33-3.443,1.885-5.563,1.57
			c-1.556-0.23-3.071-0.447-4.358-1.439c-1.174-0.904-2.388-1.717-4.072-1.355c0-0.559,0-1.01,0-1.457
			c-0.771-0.115-1.459-0.215-2.148-0.318c-0.011-0.145-0.021-0.293-0.034-0.438c1.044-0.223,2.089-0.443,3.167-0.672
			c-0.572-1.252-0.33-1.596,0.965-1.613c0.475-0.006,0.971,0.064,1.416-0.061c0.313-0.084,0.742-0.406,0.775-0.666
			c0.032-0.25-0.324-0.68-0.609-0.809c-0.442-0.203-0.978-0.203-1.465-0.32c-0.906-0.223-1.796-0.516-2.711-0.691
			c-0.872-0.168-1.764-0.229-2.785-0.35c0.286-0.484,0.613-1.064,0.965-1.625c0.348-0.561,0.814-1.066,1.054-1.666
			c0.253-0.637,0.684-0.744,1.19-0.594c1.059,0.318,2.076,0.652,3.193,0.166c0.345-0.15,0.873-0.145,1.218,0.008
			c2.089,0.934,4.337,0.826,6.527,1.094c0.501,0.063,1.005,0.123,1.499,0.227c1.158,0.242,2.167-0.018,3.135-0.707
			c0.389-0.273,0.953-0.297,1.689-0.506c0.262-1,1.308-1.092,2.434-1.039c0.506,0.023,1.012,0.025,1.514,0.039
			c-0.861,0.463-0.238,0.959,0.043,1.439c-0.379,0.229-0.697,0.422-1.147,0.693c0.935,0.033,1.694-0.133,1.874-0.873
			C43.07,9.286,42.486,8.786,42.206,8.36z M43.366,12.089c-0.085,0.109-0.171,0.221-0.255,0.33c0.429,0.322,0.856,0.646,1.285,0.969
			c0.09-0.123,0.18-0.246,0.27-0.369C44.232,12.708,43.8,12.397,43.366,12.089z M40.51,11.478c-0.08,0.047-0.16,0.096-0.242,0.143
			c0.172,0.279,0.299,0.605,0.532,0.813c0.095,0.082,0.423-0.104,0.761-0.199C41.1,11.901,40.805,11.69,40.51,11.478z"/>
		<path fill="#FFFFFF" d="M48.145-0.118c0,0.475,0.018,0.932-0.004,1.389c-0.031,0.781,0.314,1.244,1.078,1.449
			c1.389,0.375,1.352,0.389,1.34,1.813c-0.002,0.273,0.338,0.715,0.607,0.801c1.492,0.473,3.006,0.334,4.477-0.105
			c0.406-0.121,0.855-0.492,1.047-0.867c0.625-1.205,1.602-1.639,2.883-1.619c0.406,0.006,0.852-0.002,1.215-0.152
			c0.314-0.131,0.727-0.443,0.768-0.725c0.035-0.25-0.311-0.682-0.596-0.834c-1.432-0.768-2.939-1.082-4.564-0.666
			c-0.572,0.146-1.199,0.135-1.795,0.109c-0.232-0.01-0.551-0.211-0.656-0.414c-0.07-0.137,0.096-0.506,0.26-0.645
			c0.561-0.461,1.164-0.867,1.756-1.289c0.797-0.564,1.598-1.121,2.205-1.547c0.824,0.16,1.559,0.348,2.301,0.43
			c0.578,0.063,1.098,0.008,1.375,0.73c0.111,0.279,0.684,0.424,1.072,0.531c0.371,0.1,0.775,0.072,1.281,0.107
			c-0.488,2.088,0.502,3.004,2.73,3.096C66.4,1.888,66.133,2.015,66,2.224c-0.188,0.295-0.414,0.67-0.379,0.98
			c0.105,0.928-0.109,1.168-1.012,1.277c-1.084,0.131-2.145,0.563-3.223,0.592c-1.541,0.041-2.717,0.459-3.469,1.9
			C57.799,7.2,57.063,7.3,56.715,7.173c-1.881-0.693-3.652-0.4-5.436,0.354c-0.998,0.424-1.934,0.305-2.797-0.184
			c0.869-0.621,0.922-0.979,0.121-1.711c-0.514-0.471-0.852-0.914-0.908-1.672c-0.021-0.313-0.729-0.77-1.158-0.816
			c-0.975-0.104-1.232-0.668-1.26-1.465c-0.026-0.838,0.508-1,1.24-1.076C47.006,0.556,47.461,0.2,48.145-0.118z"/>
		<path fill="#EADA7F" d="M49.139,40.437c0.053,0.307-0.02,0.924,0.254,1.223c0.277,0.301,0.896,0.287,1.365,0.408
			c0.016,0.117,0.031,0.23,0.047,0.344c-1.094,0.244-2.18,0.658-3.281,0.699c-1.813,0.066-3.463,0.324-5.004,1.441
			c-1.338,0.973-2.541,0.76-3.631-0.486c-1.045-1.193-2.25-1.906-3.838-1.963c-0.271-0.01-0.542-0.09-1.08-0.186
			c0.367-0.439,0.58-0.756,0.855-1.008c0.23-0.207,0.588-0.287,0.79-0.512c0.274-0.313,0.524-0.684,0.63-1.072
			c0.027-0.102-0.521-0.371-0.821-0.539c-0.188-0.105-0.407-0.164-0.612-0.246c0.301-1.25,0.808-1.779,2.724-1.832
			c0.883-0.025,1.772,0.047,2.647-0.041c0.461-0.049,0.899-0.346,1.346-0.531c0.137-0.057,0.265-0.162,0.404-0.182
			c1.051-0.137,2.105-0.24,3.156-0.389c0.502-0.072,1.064-0.309,1.273,0.385c0.211,0.686-0.373,0.945-0.842,1.025
			c-1.59,0.262-3.203,0.406-4.795,0.648c-0.744,0.117-1.482,0.318-2.197,0.561c-0.773,0.264-1.094,0.855-0.848,1.656
			c0.235,0.764,0.823,0.984,1.571,0.904c0.409-0.043,0.823-0.059,1.231-0.104c0.826-0.094,1.451,0.168,1.97,0.859
			c0.808,1.082,1.009,1.074,2.202,0.41c0.357-0.195,0.746-0.348,1.136-0.471C46.915,41.091,48.045,40.765,49.139,40.437z"/>
		<path fill="#FFFFFF" d="M39.557,4.292c-1.783,0.873-3.553,1.748-5.334,2.602c-0.998,0.479-1.932,0.547-2.925-0.184
			c-0.63-0.463-1.461-0.67-2.225-0.92c-0.166-0.053-0.438,0.303-0.652,0.293c-0.953-0.043-1.388-1.014-0.794-1.799
			c0.721-0.951,1.771-1.176,2.887-1.086c0.875,0.072,1.738,0.27,2.612,0.363c1.976,0.213,3.955,0.393,5.931,0.598
			C39.264,4.181,39.463,4.267,39.557,4.292z"/>
		<path fill="#FFFFFF" d="M64.512,49.126c-1.049-0.736-1.789-1.58-1.68-2.857c0.031-0.373,0.309-0.855,0.621-1.031
			c0.191-0.105,0.748,0.182,0.986,0.439C65.627,46.954,65.621,47.345,64.512,49.126z"/>
		<path fill="#EADA7F" d="M18.76,39.024c-0.035,0.445-0.063,0.809-0.104,1.332c-0.911-0.162-1.766-0.295-2.607-0.486
			c-0.16-0.033-0.38-0.301-0.371-0.445c0.01-0.143,0.272-0.375,0.432-0.383C16.975,39.005,17.844,39.024,18.76,39.024z"/>
		<path fill="#FFFFFF" d="M56.898-7.1c0.688-0.25,1.324-0.523,1.984-0.692c0.285-0.071,0.629,0.077,0.943,0.126
			c-0.105,0.307-0.15,0.827-0.328,0.877c-0.51,0.143-1.076,0.154-1.609,0.1C57.535-6.729,57.203-6.968,56.898-7.1z"/>
		<path fill="#909B4E" d="M49.752,39.532c0.434-0.334,0.877-0.635,1.354-0.031c0.412,0.527,0.479,1.979,0.023,2.174
			c-0.188,0.082-0.705-0.225-0.844-0.482C50.027,40.712,49.936,40.144,49.752,39.532z"/>
		<path fill="#EADA7F" d="M9.939,33.079c-1.125,0.906-1.33,0.854-1.855-0.408C8.718,32.812,9.219,32.919,9.939,33.079z"/>
		<path fill="#052B00" d="M33.52,28.565c-0.433,1.371-1.41,1.723-2.677,1.074C31.754,29.272,32.551,28.954,33.52,28.565z"/>
		<path fill="#052B00" d="M26.407,42.573c-0.442,0.832-1.142,0.688-1.763,0.566c-0.127-0.025-0.285-0.758-0.209-0.807
			c0.359-0.217,0.801-0.428,1.203-0.41C25.9,41.933,26.145,42.339,26.407,42.573z"/>
		<path fill="#052B00" d="M17.824,45.009c0.039-0.516,0.004-1.092,0.098-1.115c0.578-0.131,1.184-0.143,1.78-0.193
			c0.03,0.145,0.06,0.279,0.09,0.42C19.25,44.364,18.708,44.61,17.824,45.009z"/>
		<path d="M23.438-4.127c-1.153,1.816-2.897,1.458-4.44,1.689C20.333-3.251,21.661-4.079,23.438-4.127z"/>
		<path d="M11.902-9.631c0.539,0.105,1.078,0.213,1.617,0.32c0.01,0.105,0.019,0.211,0.027,0.318
			c-0.281,0.09-0.654,0.334-0.822,0.232c-0.328-0.196-0.541-0.584-0.801-0.893L11.902-9.631z"/>
		<path d="M16.004-7.092c0.473-0.15,0.944-0.303,1.504-0.482c-0.195,1.069-0.771,1-1.402,0.805
			C16.072-6.877,16.038-6.985,16.004-7.092z"/>
		<path d="M10.262,4.255C9.865,4.065,9.468,3.876,9.07,3.688c0.049-0.113,0.098-0.227,0.146-0.338
			c0.399,0.158,0.801,0.316,1.2,0.475C10.365,3.97,10.313,4.112,10.262,4.255z"/>
		<path d="M13.509,4.655c-0.506,0.025-1.012,0.051-1.519,0.078c-0.004-0.102-0.006-0.205-0.01-0.307c0.51,0,1.021,0,1.531,0
			C13.512,4.501,13.512,4.577,13.509,4.655z"/>
		<path fill="#052B00" d="M49.555,25.224c0.289-0.367,0.605-0.717,0.857-1.105c0.221-0.334,0.375-0.713,0.666-1.279
			c-0.088,0.846-0.148,1.412-0.205,1.979C50.803,25.517,50.459,25.624,49.555,25.224z"/>
		<path d="M61.426,27.499c0.467-1.045,0.453-1.84-0.621-2.346c0.793-0.254,0.99-0.141,1.266,0.574
			C62.396,26.573,62.248,27.124,61.426,27.499z"/>
		<path d="M62.078,23.497c0.271,0.295,0.553,0.584,0.803,0.9c0.014,0.016-0.223,0.23-0.342,0.354
			c-0.291-0.287-0.58-0.574-0.873-0.861C61.803,23.759,61.939,23.626,62.078,23.497z"/>
		<path d="M63.98,28.472c-0.645-0.133-1.174-0.242-1.729-0.357C62.895,27.509,63.355,27.591,63.98,28.472z"/>
		<path fill="#052B00" d="M48.289,25.815c0.49,0.182,0.984,0.363,1.582,0.582c-1.139,0.467-1.344,0.369-1.559-0.604L48.289,25.815z"
			/>
		<path d="M44.837,53.212c0-0.314,0-0.631,0-0.947c0.081-0.045,0.161-0.094,0.242-0.139c0.2,0.248,0.401,0.496,0.604,0.744
			c-0.291,0.105-0.58,0.217-0.873,0.318C44.807,53.192,44.837,53.212,44.837,53.212z"/>
		<path d="M42.206,8.36c0.28,0.426,0.864,0.924,0.782,1.262c-0.178,0.738-0.938,0.906-1.873,0.873
			c0.451-0.273,0.769-0.465,1.146-0.695c-0.279-0.479-0.902-0.975-0.041-1.438C42.225,8.36,42.206,8.36,42.206,8.36z"/>
		<path d="M43.366,12.089c0.434,0.309,0.866,0.619,1.3,0.93c-0.09,0.123-0.18,0.246-0.27,0.369
			c-0.429-0.322-0.855-0.646-1.285-0.969C43.195,12.31,43.281,12.198,43.366,12.089z"/>
		<path d="M40.51,11.478c0.295,0.213,0.59,0.424,1.051,0.754c-0.338,0.098-0.666,0.283-0.761,0.201
			c-0.233-0.207-0.36-0.535-0.532-0.814C40.35,11.573,40.43,11.526,40.51,11.478z"/>
	</g>
</g>
<linearGradient id="shape1_7_" gradientUnits="userSpaceOnUse" x1="0.603" y1="17.0933" x2="91.4375" y2="17.0933" gradientTransform="matrix(1 0 0 -1 -0.02 35.0947)">
	<stop  offset="0" style="stop-color:#B1DB7F;stop-opacity:0"/>
	<stop  offset="0.1061" style="stop-color:#B1DB7F;stop-opacity:0.1061"/>
	<stop  offset="1" style="stop-color:#B1DB7F"/>
</linearGradient>
<path id="shape1_2_" fill="url(#shape1_7_)" d="M38.52,8.738l-0.134,0.665c-0.135,0.466-0.328,0.913-0.576,1.329
	c-0.294,0.456-0.644,0.875-1.042,1.244c-0.256,0.243-0.475,0.444-0.657,0.612c-0.019-0.095-0.08-0.176-0.165-0.222
	c-0.211-0.119-0.466-0.13-0.685-0.029c-0.358,0.15-0.725,0.278-1.097,0.387c-0.528,0.157-1.071,0.25-1.619,0.279
	c-0.383,0.015-2.192-0.099-5.427-0.363c-3.525-0.258-6.192-0.396-8.003-0.414c-2.027-0.036-5.161,0.064-9.4,0.303
	c-2.102,0.111-4.013,0.223-5.732,0.335c-0.02-0.104-0.066-0.198-0.135-0.276C3.674,12.4,3.41,12.323,3.162,12.392
	c-0.314,0.041-0.621,0.134-0.905,0.277c-0.287,0.183-0.518,0.443-0.664,0.75c-0.21,0.52-0.329,1.072-0.353,1.633
	c-0.037,0.388-0.053,0.737-0.053,1.053L0.583,16.41v1.27l0.793,0.524L1.24,19.479c-0.083,0.681-0.016,1.369,0.193,2.021
	c0.178,0.445,0.46,0.845,0.822,1.162c0.165,0.16,0.35,0.301,0.549,0.417l0.711,0.057c0.421-0.241,0.749-0.442,0.985-0.61
	c0.278-0.327,0.451-0.732,0.493-1.161l0.223-0.997l1.018-0.831c0.334-0.065,0.672-0.111,1.012-0.14
	c0.728-0.09,1.461-0.127,2.194-0.112c0.886,0.069,1.765,0.21,2.628,0.415c0.66,0.13,1.8,0.398,3.427,0.804
	c1.511,0.325,3.038,0.565,4.576,0.72c1.377,0.18,2.772,0.152,4.14-0.082c0.902-0.199,1.777-0.508,2.605-0.916
	c1.334-0.646,2.073-0.996,2.219-1.051c0.778-0.279,1.628-0.29,2.413-0.027c0.398,0.131,0.783,0.297,1.147,0.502l0.36,0.528
	c0.27,0.367,0.592,0.694,0.956,0.972c0.403,0.365,0.753,0.783,1.042,1.244c0.181,0.258,0.346,0.526,0.496,0.803l-0.304,0.498
	c-0.218,0.406-0.418,0.822-0.604,1.244c-0.253,0.75-0.392,1.535-0.41,2.328h1.535c0.075-0.279,0.172-0.603,0.3-0.971
	c0.157-0.596,0.378-1.171,0.661-1.718c0.291-0.499,0.65-0.955,1.067-1.354l0.661-0.638l0.163-2.381l0.492,0.076
	c0.388,0.087,0.765,0.218,1.124,0.387c0.318,0.163,0.607,0.379,0.851,0.638c0.088,0.101,0.161,0.213,0.216,0.334l2.853,0.057
	l0.3-0.666l4.744-0.137c3.545-0.093,6.258-0.084,8.139,0.025c1.615,0.063,3.22,0.268,4.799,0.609
	c0.236,0.039,0.941,0.203,2.109,0.498c1.022,0.257,2.002,0.49,2.934,0.691c2.404,0.503,4.863,0.709,7.318,0.61
	c2.444-0.075,4.873-0.429,7.238-1.052c2.381-0.698,4.631-1.783,6.66-3.211c0.085-0.053,0.168-0.106,0.247-0.166
	c0.677-0.479,1.345-0.978,2.002-1.492l0.873-0.691c-0.858-0.021-1.819-0.066-2.877-0.14l-0.63-0.056
	c-2.074-0.12-4.137-0.397-6.168-0.829c-1.633-0.423-3.192-1.085-4.631-1.966c-0.514-0.297-0.998-0.602-1.454-0.914l-0.55-0.416
	c-1.588,0.202-3.278,0.387-5.069,0.554c-1.097,0.091-2.101,0.139-3.017,0.139L66.01,13.06l-1.892-0.831l0.467,0.719l-1.427,0.111
	l-1.727-0.888l0.656,0.888l-1.369-0.054l-1.893-0.916l0.549,0.915l-1.313-0.056l-1.894-0.913l0.519,0.917l-1.234-0.083l-1.973-0.831
	l0.604,0.774h-1.181l-2.027-0.94l0.604,0.882h-1.26l-2.029-0.882l0.604,0.882l-1.287-0.056L45.7,11.922l0.492,0.775l-7.729-0.105
	c0.154-0.164,0.293-0.341,0.413-0.53c0.275-0.375,0.496-0.785,0.656-1.22c0.159-0.457,0.26-0.93,0.303-1.411V8.738H38.52z"/>
<linearGradient id="shape1_8_" gradientUnits="userSpaceOnUse" x1="0.603" y1="17.0933" x2="91.4375" y2="17.0933" gradientTransform="matrix(1 0 0 -1 -0.02 35.0947)">
	<stop  offset="0" style="stop-color:#B1DB7F;stop-opacity:0"/>
	<stop  offset="0.1061" style="stop-color:#B1DB7F;stop-opacity:0.1061"/>
	<stop  offset="1" style="stop-color:#B1DB7F"/>
</linearGradient>
<path id="shape1_3_" fill="url(#shape1_8_)" d="M38.52,8.738l-0.134,0.665c-0.135,0.466-0.328,0.913-0.576,1.329
	c-0.294,0.456-0.644,0.875-1.042,1.244c-0.256,0.243-0.475,0.444-0.657,0.612c-0.019-0.095-0.08-0.176-0.165-0.222
	c-0.211-0.119-0.466-0.13-0.685-0.029c-0.358,0.15-0.725,0.278-1.097,0.387c-0.528,0.157-1.071,0.25-1.619,0.279
	c-0.383,0.015-2.192-0.099-5.427-0.363c-3.525-0.258-6.192-0.396-8.003-0.414c-2.027-0.036-5.161,0.064-9.4,0.303
	c-2.102,0.111-4.013,0.223-5.732,0.335c-0.02-0.104-0.066-0.198-0.135-0.276C3.674,12.4,3.41,12.323,3.162,12.392
	c-0.314,0.041-0.621,0.134-0.905,0.277c-0.287,0.183-0.518,0.443-0.664,0.75c-0.21,0.52-0.329,1.072-0.353,1.633
	c-0.037,0.388-0.053,0.737-0.053,1.053L0.583,16.41v1.27l0.793,0.524L1.24,19.479c-0.083,0.681-0.016,1.369,0.193,2.021
	c0.178,0.445,0.46,0.845,0.822,1.162c0.165,0.16,0.35,0.301,0.549,0.417l0.711,0.057c0.421-0.241,0.749-0.442,0.985-0.61
	c0.278-0.327,0.451-0.732,0.493-1.161l0.223-0.997l1.018-0.831c0.334-0.065,0.672-0.111,1.012-0.14
	c0.728-0.09,1.461-0.127,2.194-0.112c0.886,0.069,1.765,0.21,2.628,0.415c0.66,0.13,1.8,0.398,3.427,0.804
	c1.511,0.325,3.038,0.565,4.576,0.72c1.377,0.18,2.772,0.152,4.14-0.082c0.902-0.199,1.777-0.508,2.605-0.916
	c1.334-0.646,2.073-0.996,2.219-1.051c0.778-0.279,1.628-0.29,2.413-0.027c0.398,0.131,0.783,0.297,1.147,0.502l0.36,0.528
	c0.27,0.367,0.592,0.694,0.956,0.972c0.403,0.365,0.753,0.783,1.042,1.244c0.181,0.258,0.346,0.526,0.496,0.803l-0.304,0.498
	c-0.218,0.406-0.418,0.822-0.604,1.244c-0.253,0.75-0.392,1.535-0.41,2.328h1.535c0.075-0.279,0.172-0.603,0.3-0.971
	c0.157-0.596,0.378-1.171,0.661-1.718c0.291-0.499,0.65-0.955,1.067-1.354l0.661-0.638l0.163-2.381l0.492,0.076
	c0.388,0.087,0.765,0.218,1.124,0.387c0.318,0.163,0.607,0.379,0.851,0.638c0.088,0.101,0.161,0.213,0.216,0.334l2.853,0.057
	l0.3-0.666l4.744-0.137c3.545-0.093,6.258-0.084,8.139,0.025c1.615,0.063,3.22,0.268,4.799,0.609
	c0.236,0.039,0.941,0.203,2.109,0.498c1.022,0.257,2.002,0.49,2.934,0.691c2.404,0.503,4.863,0.709,7.318,0.61
	c2.444-0.075,4.873-0.429,7.238-1.052c2.381-0.698,4.631-1.783,6.66-3.211c0.085-0.053,0.168-0.106,0.247-0.166
	c0.677-0.479,1.345-0.978,2.002-1.492l0.873-0.691c-0.858-0.021-1.819-0.066-2.877-0.14l-0.63-0.056
	c-2.074-0.12-4.137-0.397-6.168-0.829c-1.633-0.423-3.192-1.085-4.631-1.966c-0.514-0.297-0.998-0.602-1.454-0.914l-0.55-0.416
	c-1.588,0.202-3.278,0.387-5.069,0.554c-1.097,0.091-2.101,0.139-3.017,0.139L66.01,13.06l-1.892-0.831l0.467,0.719l-1.427,0.111
	l-1.727-0.888l0.656,0.888l-1.369-0.054l-1.893-0.916l0.549,0.915l-1.313-0.056l-1.894-0.913l0.519,0.917l-1.234-0.083l-1.973-0.831
	l0.604,0.774h-1.181l-2.027-0.94l0.604,0.882h-1.26l-2.029-0.882l0.604,0.882l-1.287-0.056L45.7,11.922l0.492,0.775l-7.729-0.105
	c0.154-0.164,0.293-0.341,0.413-0.53c0.275-0.375,0.496-0.785,0.656-1.22c0.159-0.457,0.26-0.93,0.303-1.411V8.738H38.52z"/>
<linearGradient id="shape1_9_" gradientUnits="userSpaceOnUse" x1="0.603" y1="17.0933" x2="91.4375" y2="17.0933" gradientTransform="matrix(1 0 0 -1 -0.02 35.0947)">
	<stop  offset="0" style="stop-color:#B1DB7F;stop-opacity:0"/>
	<stop  offset="0.1061" style="stop-color:#B1DB7F;stop-opacity:0.1061"/>
	<stop  offset="1" style="stop-color:#B1DB7F"/>
</linearGradient>
<path id="shape1_4_" fill="url(#shape1_9_)" d="M38.52,8.738l-0.134,0.665c-0.135,0.466-0.328,0.913-0.576,1.329
	c-0.294,0.456-0.644,0.875-1.042,1.244c-0.256,0.243-0.475,0.444-0.657,0.612c-0.019-0.095-0.08-0.176-0.165-0.222
	c-0.211-0.119-0.466-0.13-0.685-0.029c-0.358,0.15-0.725,0.278-1.097,0.387c-0.528,0.157-1.071,0.25-1.619,0.279
	c-0.383,0.015-2.192-0.099-5.427-0.363c-3.525-0.258-6.192-0.396-8.003-0.414c-2.027-0.036-5.161,0.064-9.4,0.303
	c-2.102,0.111-4.013,0.223-5.732,0.335c-0.02-0.104-0.066-0.198-0.135-0.276C3.674,12.4,3.41,12.323,3.162,12.392
	c-0.314,0.041-0.621,0.134-0.905,0.277c-0.287,0.183-0.518,0.443-0.664,0.75c-0.21,0.52-0.329,1.072-0.353,1.633
	c-0.037,0.388-0.053,0.737-0.053,1.053L0.583,16.41v1.27l0.793,0.524L1.24,19.479c-0.083,0.681-0.016,1.369,0.193,2.021
	c0.178,0.445,0.46,0.845,0.822,1.162c0.165,0.16,0.35,0.301,0.549,0.417l0.711,0.057c0.421-0.241,0.749-0.442,0.985-0.61
	c0.278-0.327,0.451-0.732,0.493-1.161l0.223-0.997l1.018-0.831c0.334-0.065,0.672-0.111,1.012-0.14
	c0.728-0.09,1.461-0.127,2.194-0.112c0.886,0.069,1.765,0.21,2.628,0.415c0.66,0.13,1.8,0.398,3.427,0.804
	c1.511,0.325,3.038,0.565,4.576,0.72c1.377,0.18,2.772,0.152,4.14-0.082c0.902-0.199,1.777-0.508,2.605-0.916
	c1.334-0.646,2.073-0.996,2.219-1.051c0.778-0.279,1.628-0.29,2.413-0.027c0.398,0.131,0.783,0.297,1.147,0.502l0.36,0.528
	c0.27,0.367,0.592,0.694,0.956,0.972c0.403,0.365,0.753,0.783,1.042,1.244c0.181,0.258,0.346,0.526,0.496,0.803l-0.304,0.498
	c-0.218,0.406-0.418,0.822-0.604,1.244c-0.253,0.75-0.392,1.535-0.41,2.328h1.535c0.075-0.279,0.172-0.603,0.3-0.971
	c0.157-0.596,0.378-1.171,0.661-1.718c0.291-0.499,0.65-0.955,1.067-1.354l0.661-0.638l0.163-2.381l0.492,0.076
	c0.388,0.087,0.765,0.218,1.124,0.387c0.318,0.163,0.607,0.379,0.851,0.638c0.088,0.101,0.161,0.213,0.216,0.334l2.853,0.057
	l0.3-0.666l4.744-0.137c3.545-0.093,6.258-0.084,8.139,0.025c1.615,0.063,3.22,0.268,4.799,0.609
	c0.236,0.039,0.941,0.203,2.109,0.498c1.022,0.257,2.002,0.49,2.934,0.691c2.404,0.503,4.863,0.709,7.318,0.61
	c2.444-0.075,4.873-0.429,7.238-1.052c2.381-0.698,4.631-1.783,6.66-3.211c0.085-0.053,0.168-0.106,0.247-0.166
	c0.677-0.479,1.345-0.978,2.002-1.492l0.873-0.691c-0.858-0.021-1.819-0.066-2.877-0.14l-0.63-0.056
	c-2.074-0.12-4.137-0.397-6.168-0.829c-1.633-0.423-3.192-1.085-4.631-1.966c-0.514-0.297-0.998-0.602-1.454-0.914l-0.55-0.416
	c-1.588,0.202-3.278,0.387-5.069,0.554c-1.097,0.091-2.101,0.139-3.017,0.139L66.01,13.06l-1.892-0.831l0.467,0.719l-1.427,0.111
	l-1.727-0.888l0.656,0.888l-1.369-0.054l-1.893-0.916l0.549,0.915l-1.313-0.056l-1.894-0.913l0.519,0.917l-1.234-0.083l-1.973-0.831
	l0.604,0.774h-1.181l-2.027-0.94l0.604,0.882h-1.26l-2.029-0.882l0.604,0.882l-1.287-0.056L45.7,11.922l0.492,0.775l-7.729-0.105
	c0.154-0.164,0.293-0.341,0.413-0.53c0.275-0.375,0.496-0.785,0.656-1.22c0.159-0.457,0.26-0.93,0.303-1.411V8.738H38.52z"/>
</svg>
