<?xml version="1.0" encoding="utf-8"?>
<!-- Generator: Adobe Illustrator 16.0.0, SVG Export Plug-In . SVG Version: 6.00 Build 0)  -->
<!DOCTYPE svg PUBLIC "-//W3C//DTD SVG 1.1//EN" "http://www.w3.org/Graphics/SVG/1.1/DTD/svg11.dtd">
<svg version="1.1" id="case1" xmlns="http://www.w3.org/2000/svg" xmlns:xlink="http://www.w3.org/1999/xlink" x="0px" y="0px"
	 width="92px" height="36px" viewBox="0 0 92 36" enable-background="new 0 0 92 36" xml:space="preserve">
<path id="mp5sd" fill="#B1DB7F" d="M80.998,8.995c-0.01,0.506-0.078,1.009-0.201,1.5c-0.043,0.25-0.107,0.494-0.197,0.731H59.145
	v0.615l-0.238,0.308H39.388V11.3h-0.79c-0.149,0.173-0.166,0.424-0.04,0.615l0.554,1.654h0.276l0.08,0.271l-0.475,0.192l0.119,0.423
	c0.133,0.333,0.278,0.718,0.435,1.154c0.602,1.487,1.289,2.939,2.059,4.345c1.03,1.905,2.18,3.741,3.444,5.5
	c0.713,1.026,1.359,1.911,1.94,2.653l-2.93,2.19c-0.554-0.69-1.201-1.551-1.94-2.575c-1.29-1.839-2.466-3.752-3.524-5.729
	c-0.897-1.743-1.676-3.371-2.336-4.884l-0.752-1.769l-0.277,0.077h-1.068l-0.317,1.615h-0.238l0.238-1.538h-1.148l-0.277,0.269
	l-1.386,2.691c-0.085,0.211-0.289,0.349-0.515,0.347h-4.355c-0.333-0.015-0.659-0.107-0.95-0.271l-0.158,0.115
	c-0.21,0.25-0.335,0.561-0.356,0.885c-0.013,0.188-0.067,0.371-0.158,0.537c-0.065,0.149-0.145,0.291-0.238,0.426
	c-0.153,0.17-0.273,0.363-0.356,0.576c-0.075,0.211-0.128,0.433-0.158,0.654c0.013,0.182-0.015,0.365-0.079,0.537
	c-0.069,0.211-0.177,0.406-0.317,0.577c-0.139,0.22-0.258,0.45-0.356,0.69c-0.066,0.226-0.106,0.457-0.119,0.69
	c-0.016,0.187-0.056,0.364-0.119,0.538c-0.098,0.203-0.234,0.387-0.4,0.538c-0.132,0.103-0.238,0.179-0.317,0.229l-4.711-2.5
	C17.42,22.71,17.5,22.398,17.61,22.1c0.275-0.797,0.593-1.58,0.95-2.346c0.366-0.701,0.79-1.37,1.267-2l0.475-0.615l0.277-0.538
	c0.141-0.385,0.233-0.785,0.277-1.192c0.064-0.372-0.006-0.754-0.2-1.077c-0.165-0.262-0.397-0.475-0.673-0.615
	c-0.125-0.036-0.244-0.088-0.356-0.154c-0.08-0.008-0.152-0.05-0.2-0.115c-0.07-0.063-0.125-0.143-0.158-0.231h-3.002
	c-0.313-0.038-0.567-0.27-0.634-0.577l-0.475-2.231l-0.2-0.038l-0.079,0.269l0.518,1.66l-0.238,0.423h-1.228l-0.277-0.5l0.792-1.538
	l-0.04-0.346l-0.317,0.154c-0.227,0.193-0.416,0.428-0.554,0.692c-0.152,0.267-0.271,0.551-0.356,0.846
	c-0.045,0.097-0.072,0.201-0.079,0.308l-0.435,2.615c-0.1,0.929-0.299,1.844-0.594,2.73c-0.112,0.083-0.218,0.172-0.317,0.269
	c-0.066,0.056-0.151,0.084-0.238,0.078c-0.21,0.025-0.423,0.025-0.633,0c-0.235-0.014-0.459-0.11-0.633-0.27
	c-0.109-0.092-0.191-0.211-0.238-0.346c-0.022-0.13-0.008-0.263,0.04-0.385c0-0.025,0.092-0.602,0.277-1.73
	c0.185-1.051,0.303-1.846,0.356-2.384c0.026-0.333,0.04-1.346,0.04-3.038V7.8c-0.04-0.272-0.013-0.55,0.079-0.808
	c0.126-0.125,0.297-0.195,0.474-0.192c0.531,0.001,1.062,0.052,1.584,0.154c0.422,0.102,0.831,0.192,1.227,0.269h1.069l0.04-0.615
	c0.079-0.256,0.158-0.526,0.238-0.808c0.124-0.342,0.269-0.676,0.435-1c0.086-0.091,0.196-0.158,0.317-0.192h3.009l0.277,0.115
	h1.386l0.037-1.077c0.052-0.216,0.178-0.406,0.356-0.538c0.138-0.098,0.308-0.139,0.475-0.115h0.4l0.158,0.577l0.311-0.77
	l1.663,0.692l-0.356,0.615l0.356,0.577h14.969l0.317,0.038h18.014V4.339h-0.238V2.493L57.48,2.3h0.674l0.553,1.5v0.923h0.357
	l0.275,0.385v1.307h-0.236v0.423h21.578L80.84,7.53C80.939,8.012,80.992,8.502,80.998,8.995z M31.47,15.763l-0.272-0.269h-3.212
	L27.828,15.8c-0.102,0.196-0.182,0.402-0.238,0.615c-0.021,0.233,0.006,0.469,0.079,0.692c0.036,0.196,0.089,0.39,0.158,0.577
	l0.039,0.385l-0.317-0.154c-0.221-0.3-0.383-0.639-0.475-1c-0.052-0.308-0.093-0.641-0.119-1v-0.421h-0.79L25.809,16.3
	c-0.211,0.539-0.33,0.846-0.356,0.923c-0.026,0.23-0.026,0.462,0,0.692c0.232,0.215,0.52,0.362,0.831,0.423h4
	c0.165-0.031,0.301-0.148,0.356-0.307L31.47,15.763z"/>
<g>
	<g>
		<defs>
			<path id="SVGID_1_" d="M80.998,8.995c-0.01,0.506-0.078,1.009-0.201,1.5c-0.043,0.25-0.107,0.494-0.197,0.731H59.145v0.615
				l-0.238,0.308H39.388V11.3h-0.79c-0.149,0.173-0.166,0.424-0.04,0.615l0.554,1.654h0.276l0.08,0.271l-0.475,0.192l0.119,0.423
				c0.133,0.333,0.278,0.718,0.435,1.154c0.602,1.487,1.289,2.939,2.059,4.345c1.03,1.905,2.18,3.741,3.444,5.5
				c0.713,1.026,1.359,1.911,1.94,2.653l-2.93,2.19c-0.554-0.69-1.201-1.551-1.94-2.575c-1.29-1.839-2.466-3.752-3.524-5.729
				c-0.897-1.743-1.676-3.371-2.336-4.884l-0.752-1.769l-0.277,0.077h-1.068l-0.317,1.615h-0.238l0.238-1.538h-1.148l-0.277,0.269
				l-1.386,2.691c-0.085,0.211-0.289,0.349-0.515,0.347h-4.355c-0.333-0.015-0.659-0.107-0.95-0.271l-0.158,0.115
				c-0.21,0.25-0.335,0.561-0.356,0.885c-0.013,0.188-0.067,0.371-0.158,0.537c-0.065,0.149-0.145,0.291-0.238,0.426
				c-0.153,0.17-0.273,0.363-0.356,0.576c-0.075,0.211-0.128,0.433-0.158,0.654c0.013,0.182-0.015,0.365-0.079,0.537
				c-0.069,0.211-0.177,0.406-0.317,0.577c-0.139,0.22-0.258,0.45-0.356,0.69c-0.066,0.226-0.106,0.457-0.119,0.69
				c-0.016,0.187-0.056,0.364-0.119,0.538c-0.098,0.203-0.234,0.387-0.4,0.538c-0.132,0.103-0.238,0.179-0.317,0.229l-4.711-2.5
				C17.42,22.71,17.5,22.398,17.61,22.1c0.275-0.797,0.593-1.58,0.95-2.346c0.366-0.701,0.79-1.37,1.267-2l0.475-0.615l0.277-0.538
				c0.141-0.385,0.233-0.785,0.277-1.192c0.064-0.372-0.006-0.754-0.2-1.077c-0.165-0.262-0.397-0.475-0.673-0.615
				c-0.125-0.036-0.244-0.088-0.356-0.154c-0.08-0.008-0.152-0.05-0.2-0.115c-0.07-0.063-0.125-0.143-0.158-0.231h-3.002
				c-0.313-0.038-0.567-0.27-0.634-0.577l-0.475-2.231l-0.2-0.038l-0.079,0.269l0.518,1.66l-0.238,0.423h-1.228l-0.277-0.5
				l0.792-1.538l-0.04-0.346l-0.317,0.154c-0.227,0.193-0.416,0.428-0.554,0.692c-0.152,0.267-0.271,0.551-0.356,0.846
				c-0.045,0.097-0.072,0.201-0.079,0.308l-0.435,2.615c-0.1,0.929-0.299,1.844-0.594,2.73c-0.112,0.083-0.218,0.172-0.317,0.269
				c-0.066,0.056-0.151,0.084-0.238,0.078c-0.21,0.025-0.423,0.025-0.633,0c-0.235-0.014-0.459-0.11-0.633-0.27
				c-0.109-0.092-0.191-0.211-0.238-0.346c-0.022-0.13-0.008-0.263,0.04-0.385c0-0.025,0.092-0.602,0.277-1.73
				c0.185-1.051,0.303-1.846,0.356-2.384c0.026-0.333,0.04-1.346,0.04-3.038V7.8c-0.04-0.272-0.013-0.55,0.079-0.808
				c0.126-0.125,0.297-0.195,0.474-0.192c0.531,0.001,1.062,0.052,1.584,0.154c0.422,0.102,0.831,0.192,1.227,0.269h1.069
				l0.04-0.615c0.079-0.256,0.158-0.526,0.238-0.808c0.124-0.342,0.269-0.676,0.435-1c0.086-0.091,0.196-0.158,0.317-0.192h3.009
				l0.277,0.115h1.386l0.037-1.077c0.052-0.216,0.178-0.406,0.356-0.538c0.138-0.098,0.308-0.139,0.475-0.115h0.4l0.158,0.577
				l0.311-0.77l1.663,0.692l-0.356,0.615l0.356,0.577h14.969l0.317,0.038h18.014V4.339h-0.238V2.493L57.48,2.3h0.674l0.553,1.5
				v0.923h0.357l0.275,0.385v1.307h-0.236v0.423h21.578L80.84,7.53C80.939,8.012,80.992,8.502,80.998,8.995z M31.47,15.763
				l-0.272-0.269h-3.212L27.828,15.8c-0.102,0.196-0.182,0.402-0.238,0.615c-0.021,0.233,0.006,0.469,0.079,0.692
				c0.036,0.196,0.089,0.39,0.158,0.577l0.039,0.385l-0.317-0.154c-0.221-0.3-0.383-0.639-0.475-1c-0.052-0.308-0.093-0.641-0.119-1
				v-0.421h-0.79L25.809,16.3c-0.211,0.539-0.33,0.846-0.356,0.923c-0.026,0.23-0.026,0.462,0,0.692
				c0.232,0.215,0.52,0.362,0.831,0.423h4c0.165-0.031,0.301-0.148,0.356-0.307L31.47,15.763z"/>
		</defs>
		<clipPath id="SVGID_2_">
			<use xlink:href="#SVGID_1_"  overflow="visible"/>
		</clipPath>
		<g clip-path="url(#SVGID_2_)">
			<g>
				<g>
					<g>
						<g>
							<g>
								<g>
									<path fill="#033500" d="M33.741,49.363c-0.508,0-1.016,0-1.523,0c-0.962-0.195-1.925-0.396-3.081-0.629
										c-0.092,0.104-0.316,0.365-0.541,0.629c-4.574,0-9.147,0-13.721,0c-0.277-0.461-0.643-0.896-0.798-1.396
										c-0.098-0.313,0.119-0.727,0.195-1.094c0.338,0.08,0.689,0.127,1.01,0.254c0.158,0.063,0.259,0.271,0.386,0.412
										c0.571,0.633,0.943,0.422,1.261-0.295c-0.311-0.224-0.584-0.416-1.002-0.718c1.415-0.545,1.932-1.512,1.884-2.938
										c-0.012-0.35,0.739-0.859,1.234-1.053c0.57-0.223,1.256-0.123,1.872-0.258c0.819-0.178,1.796-0.027,2.474-1.102
										c-0.479-0.16-0.853-0.353-1.246-0.406c-0.562-0.086-1.154,0-1.7-0.131c-0.363-0.088-0.958-0.449-0.942-0.646
										c0.04-0.476,0.255-1.146,0.616-1.345c1.44-0.78,3.218-0.51,4.385,0.095c1.223,0.633,2.229,0.672,3.375,0.469
										c2.883-0.508,5.544-0.301,7.77,1.896c0.438,0.437,1.043,0.729,1.619,0.979c1.744,0.752,3.928,0.147,5.049-1.34
										c0.693-0.918,0.391-1.806-0.635-2.196c-0.687-0.267-1.623-0.591-1.864-1.146c-0.403-0.925-0.923-1.156-1.8-1.142
										c-1.238,0.021-2.081-0.733-2.223-1.992c-0.083-0.731-0.17-1.485-0.078-2.207c0.042-0.338,0.459-0.688,0.788-0.912
										c0.769-0.524,1.607-0.946,2.382-1.463c1.347-0.899,2.66-1.784,4.336-0.682c0.249,0.164,0.691,0.152,1.007,0.07
										c1.209-0.307,2.403-0.676,3.702-1.051c-0.229-0.479-0.494-1.025-0.773-1.609c-0.295,0-0.58,0-0.863,0
										c0.244-0.264,0.521-0.395,0.781-0.373c0.984,0.094,1.963,0.271,2.947,0.35c0.855,0.068,1.393-0.418,1.557-1.229
										s-0.139-1.512-0.947-1.754c-1.313-0.391-2.096-1.635-3.6-1.877c-0.947-0.152-1.613-0.438-2.252,0.479
										c-0.468-0.502-0.553-0.957,0-1.309c0.239-0.152,0.608-0.131,0.918-0.133c1.082-0.008,2.205,0.279,2.975-0.92
										c0.189-0.293,0.861-0.289,1.318-0.389c0.365-0.082,0.775-0.043,1.103-0.195c0.313-0.146,0.538-0.471,0.805-0.718
										c-0.342-0.145-0.688-0.404-1.028-0.4c-0.563,0.004-1.117,0.207-1.685,0.277c-0.744,0.094-1.334-0.273-1.388-0.974
										c-0.028-0.41,0.347-0.984,0.709-1.25c0.367-0.27,0.941-0.283,1.433-0.35c0.688-0.092,1.388-0.084,2.065-0.197
										c0.636-0.109,0.566-0.539,0.224-0.895c-0.205-0.211-0.545-0.428-0.813-0.416c-1.453,0.066-2.912,0.131-4.347,0.352
										c-0.502,0.078-1.09,0.494-1.371,0.928c-0.66,1.014-1.58,1.43-2.675,1.785c-0.573,0.186-1.188,0.779-1.427,1.343
										c-0.369,0.869-0.901,1.258-1.777,1.273c-0.857,0.018-1.717-0.041-2.569,0.021c-0.284,0.021-0.548,0.313-0.821,0.479
										c0.208,0.188,0.444,0.35,0.62,0.563c0.298,0.359,0.559,0.75,0.835,1.129c-0.34,0.232-0.654,0.553-1.031,0.668
										c-0.299,0.09-0.678-0.051-1.014-0.121c-0.779-0.168-1.541-0.655-2.35-0.037c-0.107,0.084-0.397-0.079-0.605-0.116
										c-0.259-0.045-0.521-0.08-0.782-0.113c-0.611-0.075-1.22-0.187-1.833-0.215c-0.739-0.037-1.92-0.287-2.14,0.056
										c-0.631,0.979-2.167,1.172-2.196,2.641c-0.009,0.504-0.302,1.002-0.514,1.654c-0.221-0.293-0.39-0.517-0.566-0.748
										c-1.682,0.283-3.585-0.338-4.983,1.143c0.414,1.389,1.444,1.379,2.535,1.297c3.097-0.23,6.195-0.389,9.275,0.199
										c0.295,0.057,0.812,0.131,0.828,0.25c0.042,0.32-0.129,0.666-0.223,1.033c-1.355-0.4-2.422-0.15-3.43,0.637
										c-0.36,0.283-0.922,0.395-1.402,0.426c-1.284,0.092-1.357,0.152-1.014,1.52c0.912,0.119,1.868,0.207,2.803,0.398
										c0.162,0.033,0.386,0.551,0.321,0.766c-0.388,1.299-1.201,2.201-2.594,2.478c-0.769,0.151-1.635,0.149-2.28,0.524
										c-1.235,0.713-2.398,0.935-3.748,0.4c-0.56-0.225-1.377-0.475-1.802-0.232c-1.397,0.797-2.364,0.275-3.409-0.623
										c-0.759-0.653-1.69-0.963-2.782-0.573c0.142,0.297,0.245,0.56,0.386,0.797c0.936,1.58,1.397,3.31,1.64,5.11
										c0.197,1.466-0.619,2.271-2.069,1.982c-0.492-0.096-0.987-0.223-1.452-0.41c-0.53-0.213-0.993-0.352-1.438,0.168
										c-0.445,0.521-0.271,0.982,0.04,1.467c0.418,0.66,0.351,1.142-0.516,1.289c0-5.397,0-10.795,0-16.194
										c0.274,0.041,0.631-0.015,0.804,0.142c0.492,0.438,0.927,0.944,1.35,1.454c0.609,0.732,1.355,0.859,2.105,0.363
										c1.206-0.795,2.343-0.603,3.601-0.117c1.011,0.392,2.11,0.611,3.19,0.736c0.821,0.096,1.543-0.601,1.405-1.195
										c-0.212-0.901-0.962-0.588-1.483-0.476c-0.783,0.173-1.433-0.014-1.876-0.592c-0.827-1.076-1.821-1.19-3.026-0.819
										c-0.822,0.256-1.12-0.062-0.977-0.914c0.034-0.199,0.095-0.396,0.194-0.793c-1.685,0.5-2.708-0.39-3.247-1.606
										c-0.453-1.019-1.022-1.394-2.039-1.322c0-1.332,0-2.666,0-4c0.447-0.478,1.054-0.875,0.783-1.734
										c-0.252-0.057-0.518-0.115-0.783-0.171c0-0.763,0-1.527,0-2.289c1.08,0.322,2.161,0.643,3.242,0.965
										c1.556-1.303,2.943-0.736,4.289,0.379c0.088,0.07,0.243,0.059,0.362,0.102c0.737,0.263,0.597,0.875,0.396,1.343
										c-0.194,0.444-0.606,0.575-1.09,0.185c-0.63-0.511-1.324-0.515-2.021-0.064c-1.29,0.834-2.59,1.654-3.941,2.517
										c0.567,0.942,1.036,1.728,1.57,2.617c1.476-1.459,3.063-2.496,5.147-1.099c-0.184-0.313-0.368-0.621-0.626-1.059
										c1.23-0.406,2.372-0.881,3.56-1.148c1.167-0.268,2.378-0.35,3.575-0.461c0.332-0.03,0.68,0.123,1.023,0.187
										c0.229,0.043,0.46,0.074,0.749,0.119c0.007-0.94-0.662-1.144-1.203-1.502c-0.589-0.396-1.149-0.853-1.643-1.359
										c-0.857-0.878-1.644-1.83-2.488-2.722c-0.158-0.168-0.468-0.318-0.678-0.285c-1.035,0.16-1.788-0.199-2.25-1.209
										c-0.527,1.107-0.753,1.168-1.786,0.584c-1.329-0.752-1.544-0.721-2.601,0.393c-0.196,0.207-0.453,0.373-0.593,0.611
										c-0.429,0.732-0.872,0.98-1.644,0.367c-0.343-0.271-0.893-0.283-1.349-0.412c0-3.621,0-7.242,0-10.863
										c0.145,0,0.29,0,0.436,0c1.026-0.648,2.055-1.034,3.216-0.26c0.188,0.127,0.555-0.043,0.834-0.021
										c0.894,0.076,1.832,0.037,2.663,0.313c0.685,0.227,1.166,0.254,1.689-0.229c0.679-0.625,1.227-0.443,1.883,0.166
										c0.768,0.711,1.694,1.248,2.552,1.861c0.084-0.043,0.167-0.084,0.251-0.127c-0.42-1.682,1.833-2.363,1.419-4.178
										c-0.26,0.286-0.438,0.482-0.775,0.855c0.225-0.536,0.354-0.846,0.5-1.19c-0.231-0.163-0.429-0.313-0.637-0.448
										c-1.327-0.854-2.519-1.785-2.664-3.558c-0.019-0.231-0.547-0.481-0.883-0.612c-0.634-0.246-1.341-0.332-1.934-0.645
										c-0.275-0.145-0.51-0.679-0.475-1.006c0.029-0.26,0.483-0.651,0.771-0.671c0.743-0.051,1.497,0.063,2.246,0.125
										c0.716,0.063,1.44,0.253,2.142,0.185c0.696-0.067,1.084-0.688,0.822-1.323c-0.128-0.311-0.77-0.555-1.188-0.568
										c-0.68-0.021-1.366,0.229-2.052,0.252c-0.754,0.026-1.068-0.483-0.832-1.195c0.364-1.102,1.398-1.656,2.675-1.394
										c0.854,0.175,1.696,0.407,2.474,0.597c-0.117,0.303-0.231,0.599-0.344,0.894c0.314,0.102,0.624,0.267,0.945,0.29
										c0.503,0.038,1.039,0.077,1.516-0.054c2.401-0.655,4.633-0.165,6.833,0.832c1.837,0.832,3.785,1.38,5.803,1.265
										c0.995-0.057,1.989-0.526,2.929-0.934c0.265-0.115,0.479-0.688,0.446-1.025c-0.022-0.247-0.484-0.455-0.752-0.678
										c-0.707-0.594-1.51-1.106-2.088-1.805c-0.471-0.568-0.79-0.759-1.327-0.268c0.12,0.234,0.26,0.443,0.318,0.674
										c0.012,0.048-0.27,0.193-0.43,0.259c-0.337,0.139-0.737,0.185-1.016,0.395c-0.644,0.482-1.296,0.47-1.954,0.139
										c-0.848-0.425-1.673-0.894-2.494-1.367c-0.987-0.571-1.044-1.006-0.299-1.836c0.16-0.178,0.263-0.408,0.404-0.631
										c0.622,0.923,1.497,0.918,2.058,0.009c0.358-0.582,0.679-0.997,1.508-0.667c0.335,0.134,1.087-0.065,1.254-0.348
										c0.604-1.024,1.446-1.246,2.544-1.254c1.125-0.007,2.093,0.705,2.382,1.789c0.125,0.479,0.524,1.011,0.951,1.26
										c1.154,0.67,1.188,0.616,0.553,1.909c0.43,0.062,0.83,0.107,1.227,0.177c0.992,0.175,2.051,0.197,2.955,0.584
										c1.07,0.458,1.973,0.448,2.98-0.063c1.096-0.555,2.248-0.997,3.356-1.524c0.711-0.336,1.446-0.663,2.067-1.133
										c0.828-0.628,1.013-1.613,0.58-2.267c0.385-0.178,0.771-0.358,1.156-0.539c-0.391-0.766-0.84-0.685-1.25-0.254
										c-0.166-0.263-0.273-0.624-0.428-0.644c-0.879-0.114-0.75-0.679-0.641-1.26c6.396,0,12.795,0,19.244,0
										c0,4.192,0,8.384,0,12.577c-0.148,0.025-0.33,0.007-0.447,0.083c-0.336,0.216-0.646,0.472-0.969,0.711
										c0.268,0.177,0.522,0.374,0.803,0.524c0.188,0.102,0.41,0.141,0.613,0.207c0,1.715,0,3.43,0,5.146
										c-0.563,0.024-1.138,0.003-1.693,0.086c-0.926,0.14-1.854,0.302-2.754,0.552c-0.248,0.068-0.574,0.492-0.557,0.73
										c0.02,0.246,0.375,0.533,0.646,0.68c0.264,0.139,0.608,0.176,0.916,0.156c1.147-0.078,2.297-0.195,3.438-0.301
										c0,4.701,0,9.402,0,14.105c-0.588-0.174-1.188-0.313-1.768-0.523c-0.529-0.193-1.006-0.56-1.545-0.679
										c-1.086-0.24-2.205-0.344-3.301-0.553c-0.269-0.051-0.502-0.289-0.75-0.441c0.156-0.246,0.25-0.602,0.471-0.717
										c1.045-0.559,2.109-0.477,3.197,0.09c0.356-0.66,0.707-1.311,1.16-2.146c-0.968-0.076-1.744-0.121-2.519-0.203
										c-0.446-0.047-0.926-0.08-1.334-0.254c-1.074-0.463-1.17-0.449-1.67,0.861c-0.781-0.414-1.558-0.783-2.287-1.223
										c-0.724-0.436-1.399-0.941-1.983-1.338c-0.063,0.479,0,1.012-0.229,1.336c-0.146,0.209-0.728,0.148-1.106,0.146
										c-0.17-0.002-0.334-0.176-0.513-0.24c-0.926-0.336-1.854-0.662-2.782-0.99c-0.066,0.133-0.134,0.266-0.195,0.398
										c0.41,0.303,0.813,0.617,1.233,0.91c0.726,0.504,1.582,0.887,2.152,1.525c0.594,0.662,0.905,1.582,2.088,1.477
										c-0.472,0.135-0.916,0.182-1.246,0.012c-1.147-0.596-2.244-1.291-3.394-1.889c-0.297-0.152-0.721-0.16-1.059-0.092
										c-0.58,0.117-0.67-0.094-0.6-0.602c0.105-0.756-0.297-0.756-0.896-0.527c0.479,0.705,0.246,1.053-0.5,1.191
										c-0.496,0.094-1.037,0.164-1.453,0.414c-0.352,0.211-0.834,0.746-0.766,1.004c0.201,0.742,0.496,1.588,1.039,2.076
										c0.73,0.656,0.645,1.123,0.133,1.748l0.023-0.021c-0.545,0.68-1.246,0.885-2.105,0.82
										c-0.303-0.023-0.627,0.281-0.943,0.434c0.271,0.27,0.494,0.654,0.818,0.777c0.395,0.148,0.875,0.109,1.314,0.094
										c1.383-0.047,2.475,0.615,3.65,1.379c-0.906,0.771-1.729,1.469-2.545,2.166c0.059,0.08,0.11,0.16,0.168,0.24
										c1.334-0.107,2.327,0.605,3.231,1.402c1.387,1.215,2.924,1.787,4.78,1.676c0.642-0.037,1.336,0.246,1.945,0.522
										c0.859,0.392,2.674,0.027,3.326-0.643c0.342-0.351,0.879-0.568,1.369-0.707c0.512-0.142,1.078-0.063,1.604-0.164
										c1.334-0.25,1.693-0.824,1.599-2.192c-0.022-0.355,0.188-1,0.399-1.052c1.187-0.282,1.396-1.147,1.525-2.14
										c0.049-0.364,0.168-0.721,0.25-1.079c0,1.268,0,2.54,0,3.812c-0.936,0.188-1.506,0.752-1.703,1.688
										c-0.111,0.524-0.238,1.047-0.326,1.575c-0.188,1.142-0.477,2.22-1.449,2.982c-0.19,0.15-0.444,0.418-0.422,0.604
										c0.054,0.453,0.197,0.914,0.418,1.314c0.084,0.154,0.617,0.273,0.687,0.191c0.267-0.314,0.479-0.701,0.603-1.096
										c0.063-0.205-0.14-0.479-0.162-0.726c-0.111-1.065,0.229-1.422,1.309-1.491c0.357-0.023,0.701-0.185,1.053-0.281
										c0,5.465,0,10.928,0,16.389c-1,0.254-1.266-0.564-1.713-1.154c-0.252-0.332-0.637-0.9-0.867-0.855
										c-0.967,0.175-1.9,0.527-2.828,0.861c-0.123,0.045-0.146,0.357-0.213,0.539c0.441,0.09,0.814,0.139,1.168,0.254
										c0.73,0.236,1.385,0.809,1.057,1.516c-0.399,0.855-0.139,1.646-0.219,2.464c-5.147,0-10.291,0-15.438,0
										c0.651-0.343,1.274-0.888,1.963-0.986c1.431-0.207,2.896-0.198,4.342-0.237c1.324-0.035,2.349-0.668,3.57-1.609
										c-1.308,0.117-2.146-0.041-2.205-1.344c-0.01-0.199-0.42-0.451-0.688-0.551c-0.47-0.17-0.976-0.326-1.468-0.338
										c-0.627-0.019-0.659-0.353-0.604-0.812c0.084-0.695,0.606-0.882,1.165-0.854c0.974,0.053,1.957,0.127,2.908,0.313
										c2.082,0.411,3.197-0.162,3.566-2.074c-0.563-0.138-1.137-0.267-1.705-0.407c-0.426-0.105-0.906-0.138-1.252-0.367
										c-0.684-0.453-1.289-1.021-1.795-1.438c0.123-0.479,0.537-1.154,0.352-1.539c-0.336-0.699-1.063-0.394-1.678-0.125
										c0.178,0.392,0.336,0.737,0.607,1.345c-0.627-0.101-1.053-0.07-1.379-0.234c-1.105-0.562-1.094-0.584-1.563,0.631
										c-0.709,1.826-1.469,2.346-3.344,2.314c-0.824-0.011-1.649-0.033-2.478,0.01c-0.563,0.026-1.135,0.104-1.67,0.262
										c-0.918,0.279-1.104,0.932-0.561,1.729c0.178,0.254,0.352,0.512,0.617,0.896c-0.855,0.197-1.584,0.416-2.328,0.527
										c-0.791,0.117-1.314,0.36-1.225,1.313c0.071,0.748-0.41,0.963-1.086,0.969c-0.767,0.014-0.941-0.428-0.83-1.041
										c0.092-0.514,0.297-1.006,0.436-1.508c0.135-0.496,0.248-0.996,0.434-1.734c-0.565,0.224-0.807,0.291-1.02,0.41
										c-1.273,0.709-2.57,1.127-4.083,0.828c-1.021-0.199-1.38,0.33-1.106,1.359c0.058,0.217,0.113,0.434,0.205,0.635
										c0.375,0.826,0.037,1.283-0.775,1.438c-0.395,0.076-0.809,0.037-1.215,0.06c-0.868,0.041-1.735,0.104-2.604,0.125
										c-0.347,0.006-0.695-0.09-1.042-0.14c-0.506,0.07-1.451,0.322-1.476,0.646C35.499,49.113,34.5,49.043,33.741,49.363z
										 M49.182,1.809c-0.506-0.013-1.012-0.015-1.518-0.039c-1.125-0.052-2.172,0.039-2.436,1.039
										c-0.735,0.209-1.301,0.231-1.688,0.507c-0.969,0.688-1.978,0.949-3.135,0.705c-0.494-0.104-0.998-0.163-1.499-0.225
										c-2.19-0.269-4.439-0.16-6.527-1.094c-0.346-0.154-0.873-0.158-1.218-0.009c-1.118,0.485-2.135,0.151-3.194-0.166
										c-0.506-0.151-0.937-0.043-1.19,0.595c-0.238,0.6-0.706,1.104-1.054,1.664c-0.351,0.563-0.678,1.141-0.965,1.625
										c1.021,0.123,1.914,0.184,2.786,0.352c0.915,0.176,1.805,0.469,2.711,0.689c0.487,0.119,1.021,0.119,1.464,0.32
										c0.286,0.131,0.643,0.561,0.61,0.809c-0.033,0.26-0.462,0.584-0.775,0.668c-0.445,0.121-0.942,0.053-1.417,0.061
										c-1.293,0.018-1.536,0.359-0.964,1.611c-1.077,0.229-2.122,0.451-3.167,0.672c0.012,0.146,0.023,0.293,0.035,0.439
										c0.689,0.102,1.377,0.203,2.148,0.316c0,0.447,0,0.898,0,1.457c1.685-0.359,2.899,0.451,4.072,1.357
										c1.288,0.992,2.804,1.207,4.359,1.439c2.12,0.313,3.654-1.24,5.563-1.572c0.501-0.086,0.439-0.631,0.047-0.861
										c-0.29-0.17-0.738-0.236-1.063-0.152c-0.887,0.23-1.73,0.631-2.621,0.83c-0.349,0.078-0.818-0.139-1.154-0.35
										c-0.167-0.105-0.301-0.623-0.204-0.73c0.246-0.27,0.627-0.42,0.963-0.602c0.074-0.041,0.2,0.02,0.28-0.016
										c0.242-0.105,0.632-0.201,0.67-0.367c0.045-0.203-0.144-0.572-0.34-0.695c-0.529-0.332-1.103-0.604-1.684-0.834
										c-0.556-0.223-1.21-0.262-1.695-0.572c-0.384-0.248-0.892-0.92-0.786-1.172c0.167-0.404,0.825-0.898,1.224-0.855
										c0.917,0.094,1.833,0.414,2.692,0.781c0.869,0.371,1.632,0.992,2.504,1.35c2.479,1.021,4.796,0.662,6.135-1.666
										c0.425-0.736,0.879-0.9,1.582-0.779c0.361,0.063,0.707,0.219,1.068,0.287c0.45,0.086,1.034,0.332,1.35,0.146
										c1.017-0.594,2.104-0.301,3.14-0.48c0.754-0.129,1.463-0.514,2.19-0.785c-0.037-0.125-0.073-0.25-0.11-0.375
										c-0.668-0.248-1.242,1.307-1.853,0.395c0.899-0.656,1.776-1.289,2.644-1.934c0.416-0.309,0.725-0.447,1.037,0.176
										c0.147,0.293,0.557,0.553,0.895,0.643c1.551,0.408,3.082,0.701,4.182,2.137c0.686,0.893,1.877,1.139,3.025,0.977
										c1-0.141,1.979-0.436,2.979-0.572c0.796-0.107,0.556-0.744,0.654-1.172c0.021-0.092-0.479-0.426-0.754-0.447
										c-0.789-0.064-1.588,0.004-2.384-0.033c-1.991-0.094-2.771-1.459-1.84-3.191c0.123-0.23,0.23-0.471,0.379-0.766
										c-1.795-0.19-3.836,0.604-4.649-1.705c-0.336,0-0.615,0-0.912,0c-0.229,0.805-0.461,1.609-0.688,2.416
										c-0.367,1.293-1.566,0.43-2.271,0.865c-0.145,0.09-0.383,0.086-0.561,0.041c-0.357-0.092-0.826-0.137-1.027-0.381
										c-0.76-0.929-1.617-1.064-2.703-0.662c-0.543,0.199-1.42-0.597-1.135-0.887c0.955-0.97,0.83-1.952,0.338-3.031
										c-0.037-0.082,0.025-0.207,0.055-0.39c-0.402,0.033-0.844-0.063-0.996,0.104c-0.592,0.653-1.092,1.392-1.625,2.098
										L49.182,1.809z M55.102-6.67c-0.682,0.318-1.137,0.673-1.625,0.724c-0.732,0.075-1.266,0.238-1.24,1.075
										c0.027,0.798,0.287,1.363,1.26,1.466c0.431,0.046,1.137,0.504,1.158,0.816c0.057,0.758,0.395,1.201,0.908,1.67
										c0.801,0.733,0.748,1.092-0.121,1.713c0.863,0.486,1.799,0.605,2.797,0.184c1.779-0.754,3.553-1.047,5.434-0.354
										c0.349,0.127,1.086,0.026,1.203-0.199c0.754-1.441,1.929-1.86,3.47-1.901c1.077-0.028,2.139-0.46,3.223-0.592
										c0.899-0.109,1.117-0.349,1.013-1.276c-0.035-0.313,0.188-0.687,0.379-0.982c0.133-0.21,0.396-0.336,0.924-0.75
										c-2.229-0.091-3.219-1.008-2.73-3.094c-0.506-0.036-0.91-0.009-1.281-0.109C69.48-8.386,68.91-8.531,68.799-8.81
										c-0.276-0.722-0.797-0.668-1.375-0.731c-0.741-0.081-1.477-0.269-2.301-0.428c-0.606,0.425-1.408,0.982-2.205,1.546
										c-0.592,0.42-1.194,0.829-1.756,1.29c-0.164,0.136-0.33,0.506-0.26,0.643c0.107,0.203,0.424,0.403,0.656,0.414
										c0.596,0.026,1.225,0.037,1.795-0.109c1.627-0.415,3.135-0.101,4.564,0.666c0.285,0.152,0.631,0.584,0.596,0.835
										c-0.043,0.281-0.451,0.594-0.768,0.723c-0.363,0.151-0.808,0.16-1.213,0.153c-1.283-0.019-2.259,0.415-2.884,1.619
										c-0.192,0.376-0.644,0.747-1.047,0.868c-1.472,0.438-2.983,0.576-4.479,0.105c-0.271-0.086-0.606-0.527-0.604-0.802
										c0.012-1.422,0.049-1.438-1.34-1.812c-0.767-0.205-1.109-0.668-1.078-1.449C55.117-5.739,55.102-6.197,55.102-6.67z
										 M56.096,33.883c-1.094,0.328-2.223,0.656-3.348,1.006c-0.392,0.125-0.777,0.277-1.138,0.473
										c-1.19,0.664-1.396,0.673-2.2-0.409c-0.521-0.693-1.146-0.955-1.972-0.859c-0.405,0.046-0.819,0.062-1.229,0.104
										c-0.749,0.08-1.336-0.143-1.57-0.904c-0.247-0.801,0.074-1.393,0.848-1.656c0.715-0.242,1.451-0.443,2.195-0.561
										c1.594-0.244,3.205-0.387,4.795-0.65c0.471-0.078,1.055-0.338,0.844-1.023c-0.211-0.692-0.771-0.457-1.273-0.387
										c-1.051,0.148-2.104,0.254-3.157,0.392c-0.14,0.021-0.267,0.125-0.402,0.18c-0.446,0.188-0.885,0.483-1.348,0.533
										c-0.874,0.088-1.764,0.014-2.646,0.041c-1.916,0.053-2.422,0.582-2.722,1.832c0.204,0.082,0.422,0.139,0.61,0.245
										c0.3,0.168,0.851,0.439,0.822,0.539c-0.104,0.388-0.354,0.763-0.631,1.07c-0.201,0.228-0.559,0.307-0.789,0.514
										c-0.275,0.252-0.49,0.568-0.855,1.009c0.537,0.096,0.808,0.176,1.08,0.187c1.588,0.057,2.793,0.77,3.838,1.963
										c1.09,1.244,2.293,1.459,3.631,0.483c1.539-1.114,3.188-1.373,5.004-1.438c1.103-0.041,2.188-0.455,3.281-0.699
										c-0.019-0.115-0.031-0.227-0.048-0.344c-0.469-0.121-1.09-0.107-1.364-0.408C56.076,34.809,56.146,34.193,56.096,33.883z
										 M46.514-2.26c-0.094-0.026-0.293-0.112-0.499-0.134c-1.976-0.204-3.955-0.385-5.931-0.598
										c-0.874-0.094-1.737-0.291-2.612-0.362c-1.115-0.091-2.167,0.135-2.887,1.085c-0.594,0.786-0.159,1.756,0.794,1.799
										c0.215,0.01,0.487-0.346,0.652-0.292c0.764,0.249,1.595,0.457,2.225,0.92c0.993,0.729,1.928,0.661,2.925,0.183
										C42.96-0.512,44.729-1.388,46.514-2.26z M71.469,42.572c1.109-1.779,1.115-2.172-0.072-3.449
										c-0.236-0.26-0.793-0.549-0.984-0.439c-0.313,0.176-0.59,0.66-0.621,1.033C69.68,40.992,70.42,41.838,71.469,42.572z
										 M25.717,32.473c-0.916,0-1.785-0.02-2.649,0.019c-0.16,0.008-0.423,0.239-0.432,0.383c-0.01,0.146,0.21,0.412,0.371,0.444
										c0.841,0.189,1.696,0.324,2.607,0.486C25.654,33.279,25.683,32.918,25.717,32.473z M63.855-13.653
										c0.305,0.132,0.637,0.373,0.99,0.41c0.533,0.055,1.104,0.043,1.611-0.099c0.176-0.05,0.221-0.571,0.326-0.877
										c-0.314-0.049-0.658-0.198-0.943-0.126C65.18-14.177,64.545-13.901,63.855-13.653z M56.709,32.98
										c0.184,0.608,0.274,1.18,0.535,1.658c0.139,0.26,0.655,0.563,0.844,0.483c0.453-0.197,0.387-1.646-0.025-2.175
										C57.586,32.344,57.143,32.646,56.709,32.98z M16.896,26.527c-0.72-0.16-1.221-0.269-1.855-0.41
										C15.566,27.381,15.771,27.434,16.896,26.527z"/>
									<path fill="#EADA7F" d="M9.54,45.74c0.866-0.15,0.934-0.629,0.516-1.289c-0.311-0.484-0.485-0.949-0.04-1.467
										c0.445-0.521,0.908-0.381,1.438-0.168c0.464,0.188,0.959,0.313,1.452,0.408c1.45,0.287,2.266-0.519,2.069-1.98
										c-0.242-1.805-0.704-3.531-1.64-5.111c-0.142-0.24-0.244-0.502-0.386-0.799c1.091-0.389,2.022-0.08,2.782,0.576
										c1.045,0.896,2.012,1.42,3.409,0.623c0.425-0.242,1.243,0.008,1.802,0.23c1.35,0.532,2.513,0.313,3.748-0.4
										c0.645-0.375,1.511-0.373,2.28-0.523c1.393-0.275,2.206-1.178,2.594-2.479c0.064-0.215-0.159-0.732-0.321-0.766
										c-0.935-0.191-1.892-0.279-2.803-0.398c-0.343-1.367-0.27-1.426,1.014-1.52c0.48-0.031,1.042-0.142,1.402-0.425
										c1.008-0.789,2.075-1.037,3.43-0.64c0.094-0.364,0.265-0.713,0.223-1.032c-0.016-0.119-0.533-0.188-0.828-0.248
										c-3.08-0.588-6.178-0.433-9.275-0.199c-1.091,0.082-2.122,0.093-2.535-1.297c1.398-1.481,3.302-0.858,4.983-1.144
										c0.176,0.232,0.345,0.453,0.566,0.746c0.212-0.651,0.505-1.147,0.514-1.651c0.029-1.47,1.564-1.662,2.196-2.642
										c0.22-0.342,1.401-0.092,2.14-0.057c0.613,0.029,1.223,0.141,1.833,0.217c0.261,0.031,0.523,0.066,0.782,0.113
										c0.208,0.035,0.498,0.199,0.605,0.115c0.81-0.619,1.571-0.129,2.35,0.037c0.336,0.07,0.715,0.213,1.014,0.121
										c0.377-0.115,0.691-0.437,1.031-0.668c-0.276-0.377-0.537-0.769-0.835-1.129c-0.176-0.211-0.412-0.375-0.62-0.562
										c0.273-0.168,0.537-0.459,0.821-0.479c0.853-0.063,1.712-0.006,2.569-0.021c0.876-0.017,1.408-0.403,1.777-1.274
										c0.237-0.563,0.854-1.158,1.427-1.344c1.094-0.354,2.016-0.771,2.674-1.785c0.282-0.434,0.87-0.85,1.371-0.928
										c1.436-0.219,2.895-0.285,4.348-0.35c0.269-0.012,0.609,0.203,0.814,0.416c0.344,0.354,0.412,0.785-0.223,0.893
										c-0.682,0.115-1.379,0.105-2.066,0.199c-0.49,0.064-1.064,0.08-1.434,0.35c-0.363,0.266-0.738,0.84-0.707,1.25
										c0.051,0.701,0.641,1.068,1.385,0.974c0.566-0.072,1.123-0.273,1.686-0.277c0.342-0.004,0.687,0.256,1.027,0.4
										c-0.264,0.247-0.492,0.573-0.805,0.716c-0.324,0.153-0.736,0.112-1.1,0.194c-0.457,0.103-1.13,0.099-1.318,0.39
										c-0.771,1.198-1.896,0.913-2.975,0.92c-0.312,0.002-0.681-0.019-0.918,0.133c-0.554,0.353-0.469,0.808,0,1.31
										c0.639-0.914,1.303-0.629,2.252-0.478c1.504,0.24,2.286,1.485,3.6,1.877c0.809,0.242,1.109,0.942,0.947,1.752
										c-0.166,0.812-0.701,1.3-1.558,1.229c-0.983-0.077-1.963-0.256-2.946-0.35c-0.265-0.023-0.539,0.107-0.783,0.373
										c0.285,0,0.569,0,0.863,0c0.28,0.582,0.545,1.133,0.772,1.607c-1.3,0.375-2.492,0.746-3.701,1.053
										c-0.316,0.082-0.759,0.094-1.007-0.07c-1.677-1.104-2.989-0.219-4.336,0.682c-0.774,0.515-1.613,0.939-2.382,1.462
										c-0.329,0.223-0.746,0.575-0.788,0.913c-0.093,0.72-0.005,1.476,0.078,2.207c0.142,1.259,0.984,2.015,2.223,1.992
										c0.877-0.018,1.397,0.217,1.8,1.142c0.241,0.556,1.177,0.879,1.864,1.144c1.024,0.396,1.327,1.28,0.635,2.198
										c-1.121,1.488-3.305,2.093-5.049,1.341c-0.576-0.25-1.181-0.548-1.619-0.98c-2.226-2.197-4.887-2.402-7.77-1.895
										c-1.146,0.202-2.152,0.163-3.375-0.47c-1.167-0.604-2.945-0.877-4.385-0.094c-0.361,0.196-0.576,0.868-0.616,1.342
										c-0.016,0.194,0.579,0.56,0.942,0.646c0.546,0.131,1.139,0.045,1.7,0.131c0.394,0.059,0.768,0.246,1.246,0.408
										c-0.678,1.071-1.654,0.922-2.474,1.1c-0.616,0.137-1.302,0.035-1.872,0.258c-0.495,0.191-1.246,0.705-1.234,1.055
										c0.047,1.426-0.469,2.393-1.884,2.938c0.418,0.299,0.691,0.491,1.002,0.715c-0.317,0.717-0.689,0.929-1.261,0.295
										c-0.127-0.144-0.228-0.351-0.386-0.412c-0.32-0.127-0.672-0.174-1.01-0.254c-0.076,0.367-0.292,0.776-0.195,1.095
										c0.155,0.5,0.521,0.934,0.798,1.395c-1.779,0-3.558,0-5.336,0C9.54,48.156,9.54,46.949,9.54,45.74z M40.478,22.014
										c-0.969,0.389-1.766,0.707-2.677,1.074C39.066,23.734,40.044,23.383,40.478,22.014z M33.364,36.021
										c-0.262-0.234-0.507-0.642-0.769-0.652c-0.402-0.016-0.843,0.195-1.202,0.412c-0.077,0.047,0.081,0.779,0.208,0.805
										C32.225,36.707,32.922,36.852,33.364,36.021z M24.781,38.455c0.884-0.398,1.426-0.645,1.968-0.891
										c-0.03-0.14-0.061-0.275-0.09-0.418c-0.597,0.051-1.203,0.063-1.78,0.192C24.786,37.363,24.819,37.939,24.781,38.455z"/>
									<path fill="#FFFFFF" d="M56.418-16.765c-0.109,0.581-0.238,1.146,0.641,1.26c0.152,0.021,0.26,0.381,0.426,0.644
										c0.412-0.431,0.861-0.512,1.25,0.254c-0.389,0.181-0.77,0.361-1.154,0.539c0.431,0.653,0.248,1.638-0.58,2.267
										c-0.621,0.47-1.356,0.797-2.067,1.133c-1.111,0.528-2.263,0.97-3.356,1.524c-1.009,0.511-1.91,0.521-2.98,0.063
										c-0.904-0.387-1.963-0.409-2.955-0.584c-0.396-0.07-0.795-0.116-1.227-0.177c0.633-1.293,0.602-1.239-0.553-1.909
										c-0.426-0.249-0.826-0.781-0.951-1.26c-0.289-1.083-1.257-1.796-2.382-1.789c-1.098,0.008-1.939,0.229-2.544,1.254
										c-0.167,0.282-0.919,0.482-1.254,0.348c-0.829-0.33-1.15,0.085-1.508,0.667c-0.561,0.91-1.436,0.914-2.058-0.009
										c-0.141,0.224-0.244,0.453-0.404,0.631c-0.745,0.831-0.688,1.266,0.299,1.836c0.821,0.473,1.646,0.942,2.494,1.367
										c0.658,0.331,1.31,0.343,1.954-0.139c0.279-0.209,0.679-0.255,1.016-0.394c0.16-0.066,0.442-0.211,0.43-0.259
										c-0.058-0.23-0.198-0.44-0.318-0.674c0.537-0.491,0.856-0.3,1.327,0.268c0.578,0.699,1.381,1.211,2.088,1.805
										c0.268,0.224,0.729,0.431,0.752,0.678c0.033,0.338-0.184,0.911-0.446,1.025c-0.94,0.408-1.934,0.877-2.929,0.934
										c-2.018,0.115-3.965-0.434-5.803-1.265c-2.2-0.997-4.432-1.487-6.833-0.832c-0.477,0.131-1.013,0.092-1.516,0.054
										c-0.321-0.023-0.63-0.188-0.945-0.29c0.113-0.295,0.228-0.591,0.344-0.894c-0.778-0.189-1.62-0.421-2.474-0.597
										c-1.277-0.263-2.312,0.292-2.675,1.394c-0.236,0.711,0.078,1.222,0.832,1.195c0.687-0.024,1.372-0.275,2.052-0.252
										c0.418,0.014,1.061,0.258,1.188,0.568c0.262,0.635-0.126,1.255-0.822,1.323c-0.701,0.068-1.426-0.123-2.142-0.185
										c-0.749-0.063-1.503-0.176-2.246-0.125c-0.287,0.021-0.742,0.411-0.771,0.671c-0.035,0.327,0.2,0.862,0.475,1.006
										c0.593,0.313,1.3,0.398,1.934,0.646c0.336,0.129,0.865,0.381,0.883,0.611c0.145,1.771,1.337,2.704,2.664,3.559
										c0.208,0.135,0.406,0.284,0.637,0.447c-0.146,0.346-0.275,0.655-0.5,1.189c0.338-0.372,0.516-0.568,0.775-0.855
										c0.414,1.814-1.839,2.498-1.419,4.18c-0.084,0.041-0.167,0.084-0.251,0.125c-0.858-0.613-1.784-1.15-2.552-1.861
										c-0.656-0.608-1.204-0.79-1.883-0.166c-0.523,0.482-1.004,0.457-1.689,0.23C15.858,4.137,14.92,4.178,14.026,4.1
										c-0.279-0.021-0.646,0.148-0.834,0.021c-1.161-0.775-2.19-0.389-3.216,0.26c0.245-0.459,0.489-0.918,0.794-1.488
										C10.459,2.788,10,2.631,9.541,2.478c0-0.636,0-1.271,0-1.906c1.02-0.017,2.089,0.06,2.375-1.339
										c0.372,0.166,0.684,0.413,1.002,0.42c0.399,0.01,0.803-0.175,1.205-0.275C14-1.019,13.995-1.626,13.734-1.768
										c-0.484-0.262-1.112-0.281-1.685-0.346c-0.365-0.043-0.739,0.015-1.109,0.02C9.904-2.079,10.002-3.107,9.542-3.62
										c0-0.19,0-0.382,0-0.572c1.019,0.421,2.038,0.84,3.063,1.264c0.009-0.051-0.007-0.199,0.06-0.275
										c0.928-1.054,0.887-1.004-0.264-1.917c-0.54-0.428-0.88-1.108-1.397-1.79c1.067-0.228,1.83-0.389,2.59-0.551
										c-0.022-0.111-0.046-0.222-0.069-0.334c-0.823,0.058-1.646,0.116-2.468,0.174c-0.35-1.056-0.699-2.112-1.07-3.228
										c0.903,0,1.909,0.61,2.593-0.463c-0.321-0.402-0.785-0.74-0.902-1.173c-0.392-1.452-0.721-1.789-2.136-1.808
										c0-0.825,0-1.652,0-2.478c1.27,0,2.541,0,3.811,0c0.508,0.521,1.016,1.042,1.523,1.563
										c0.078-0.066,0.155-0.133,0.234-0.199c0.03-0.261,0.062-0.522,0.094-0.804c1.272,0.56,2.481,0.924,3.68,0
										c0.26,0.309,0.473,0.697,0.8,0.893c0.168,0.101,0.541-0.144,0.823-0.231c-0.009-0.106-0.018-0.213-0.027-0.319
										c-0.539-0.107-1.079-0.214-1.618-0.32c0.499-0.024,1.149-0.259,1.469-0.031c0.839,0.6,1.602,0.935,2.66,0.283
										c-0.154,0.474-0.349,0.911-0.646,0.997c-0.595,0.172-1.245,0.138-1.87,0.215c-0.49,0.06-0.976,0.16-1.463,0.242
										c0.021,0.094,0.044,0.188,0.066,0.281c1.757,0.277,3.468,0.332,4.779-1.254c0.746,1.263,1.767,1.687,3.032,1.647
										c-0.011,0.78,0.471,0.586,0.934,0.511c0.744-0.121,1.638-0.663,2.072,0.639c0.03-0.389-0.009-0.778-0.212-0.908
										c-0.977-0.621-0.618-1.967-1.479-2.642c-0.049-0.038,0.129-0.367,0.202-0.56c1.334,0,2.668,0,4.002,0
										c0.258,0.668,0.447,1.379,0.81,1.987c0.152,0.256,0.672,0.293,1.024,0.429c0.006-0.373,0.083-0.76,0.003-1.113
										c-0.102-0.449-0.329-0.87-0.503-1.303c1.081,0,2.161,0,3.24,0c0.632,0.967,1.083,0.967,1.715,0c3.621,0,7.242,0,10.862,0
										c0.084,0.833-0.525,0.895-1.098,0.954c-0.879,0.09-1.769,0.117-2.646,0.218c-0.798,0.093-1.449,0.863-1.316,1.585
										c0.137,0.748,0.485,1.23,1.419,1.069c0.98-0.171,1.843,0.215,2.627,0.838c1.162,0.923,1.922,0.934,3.047-0.03
										c0.871-0.746,1.773-1.007,2.89-0.718c0.951,0.245,1.763,0.009,2.187-0.92c-1.49-1.444-3.293-1.737-5.269-1.445
										c-0.233,0.035-0.506-0.161-0.76-0.25c0.567-0.296,1.104-0.333,1.612-0.479c0.83-0.237,1.638-0.545,2.455-0.824
										C55.273-16.765,55.846-16.765,56.418-16.765z M30.395-10.68c-1.775,0.048-3.104,0.877-4.44,1.688
										C27.497-9.221,29.241-8.865,30.395-10.68z M22.961-13.645c0.033,0.108,0.067,0.215,0.101,0.323
										c0.631,0.195,1.208,0.264,1.403-0.805C23.905-13.947,23.434-13.797,22.961-13.645z M17.22-2.298
										c0.051-0.144,0.103-0.287,0.154-0.43c-0.4-0.159-0.8-0.316-1.2-0.475c-0.048,0.111-0.097,0.225-0.146,0.338
										C16.425-2.676,16.821-2.487,17.22-2.298z M20.466-1.897c0.001-0.077,0.002-0.153,0.003-0.229c-0.511,0-1.022,0-1.532,0
										c0.003,0.104,0.007,0.204,0.01,0.307C19.455-1.847,19.96-1.872,20.466-1.897z"/>
									<path fill="#EADA7F" d="M75.662,20.779c-0.082,0.357-0.201,0.715-0.25,1.08c-0.129,0.99-0.34,1.854-1.524,2.139
										c-0.211,0.051-0.427,0.695-0.4,1.051c0.099,1.369-0.264,1.943-1.598,2.193c-0.522,0.1-1.095,0.021-1.604,0.164
										c-0.49,0.137-1.027,0.355-1.369,0.707c-0.651,0.67-2.467,1.031-3.326,0.643c-0.608-0.279-1.307-0.561-1.944-0.523
										c-1.856,0.111-3.396-0.461-4.778-1.678c-0.906-0.795-1.9-1.51-3.234-1.4c-0.055-0.079-0.109-0.159-0.168-0.239
										c0.818-0.697,1.639-1.396,2.545-2.166c-1.176-0.765-2.268-1.429-3.65-1.379c-0.439,0.017-0.92,0.055-1.314-0.095
										c-0.323-0.123-0.549-0.508-0.817-0.776c0.315-0.153,0.644-0.457,0.942-0.435c0.863,0.064,1.562-0.141,2.105-0.819
										c0.215,0.973,0.418,1.069,1.559,0.604c-0.6-0.221-1.09-0.402-1.582-0.582c0.515-0.625,0.599-1.093-0.131-1.747
										c-0.543-0.488-0.84-1.334-1.039-2.076c-0.069-0.26,0.412-0.793,0.765-1.004c0.416-0.252,0.957-0.322,1.452-0.414
										c0.746-0.141,0.979-0.486,0.5-1.191c0.603-0.23,1.005-0.23,0.896,0.525c-0.07,0.508,0.02,0.719,0.6,0.602
										c0.338-0.066,0.765-0.061,1.06,0.094c1.146,0.596,2.242,1.293,3.394,1.887c0.332,0.172,0.774,0.125,1.248-0.01
										c-1.185,0.105-1.496-0.814-2.091-1.477c-0.569-0.641-1.43-1.021-2.151-1.527c-0.42-0.291-0.824-0.605-1.234-0.91
										c0.064-0.133,0.129-0.266,0.195-0.398c0.93,0.33,1.856,0.654,2.783,0.99c0.178,0.064,0.342,0.24,0.512,0.24
										c0.383,0.002,0.961,0.064,1.107-0.145c0.229-0.326,0.163-0.857,0.229-1.338c0.584,0.396,1.264,0.904,1.984,1.34
										c0.729,0.438,1.506,0.807,2.287,1.221c0.5-1.311,0.596-1.322,1.672-0.861c0.405,0.176,0.885,0.209,1.334,0.256
										c0.771,0.082,1.549,0.127,2.516,0.201c-0.453,0.836-0.803,1.486-1.16,2.146c-1.088-0.564-2.15-0.646-3.197-0.09
										c-0.221,0.117-0.313,0.473-0.471,0.719c0.248,0.15,0.482,0.389,0.75,0.439c1.096,0.209,2.215,0.313,3.301,0.555
										c0.539,0.119,1.016,0.486,1.545,0.679c0.576,0.211,1.18,0.35,1.768,0.521C75.662,19.254,75.662,20.016,75.662,20.779z
										 M56.512,18.67c0.904,0.402,1.248,0.295,1.318-0.402c0.057-0.568,0.116-1.136,0.205-1.982
										c-0.291,0.566-0.445,0.945-0.666,1.281C57.113,17.954,56.801,18.303,56.512,18.67z M68.383,20.947
										c0.822-0.375,0.971-0.926,0.645-1.771c-0.273-0.714-0.473-0.828-1.266-0.574C68.836,19.107,68.85,19.902,68.383,20.947z
										 M69.035,16.944c-0.139,0.129-0.274,0.262-0.412,0.393c0.293,0.287,0.582,0.574,0.873,0.861
										c0.119-0.123,0.354-0.338,0.342-0.354C69.588,17.53,69.309,17.239,69.035,16.944z M70.938,21.92
										c-0.625-0.883-1.086-0.963-1.729-0.357C69.764,21.676,70.295,21.785,70.938,21.92z"/>
									<path fill="#FFFFFF" d="M33.741,49.363c0.759-0.32,1.758-0.25,1.855-1.533c0.024-0.322,0.97-0.574,1.476-0.646
										c0.347,0.049,0.696,0.146,1.042,0.137c0.868-0.02,1.735-0.082,2.604-0.123c0.406-0.02,0.822,0.021,1.215-0.059
										c0.813-0.154,1.151-0.611,0.776-1.438c-0.092-0.201-0.147-0.418-0.205-0.635c-0.274-1.027,0.084-1.562,1.105-1.359
										c1.512,0.301,2.812-0.117,4.084-0.826c0.213-0.119,0.453-0.189,1.019-0.41c-0.185,0.738-0.297,1.236-0.435,1.732
										c-0.139,0.504-0.342,0.994-0.435,1.51c-0.112,0.611,0.064,1.053,0.83,1.041c0.675-0.008,1.158-0.223,1.084-0.973
										c-0.09-0.945,0.435-1.189,1.228-1.311c0.742-0.111,1.472-0.33,2.328-0.527c-0.267-0.385-0.44-0.644-0.617-0.896
										c-0.545-0.795-0.356-1.447,0.56-1.729c0.537-0.158,1.108-0.23,1.672-0.262c0.822-0.043,1.65-0.021,2.475-0.009
										c1.877,0.027,2.637-0.489,3.344-2.315c0.473-1.215,0.459-1.188,1.564-0.631c0.326,0.164,0.75,0.137,1.377,0.233
										c-0.271-0.604-0.43-0.953-0.607-1.344c0.619-0.267,1.342-0.574,1.678,0.125c0.188,0.387-0.225,1.059-0.35,1.538
										c0.506,0.416,1.111,0.982,1.795,1.438c0.346,0.229,0.824,0.265,1.252,0.369c0.566,0.144,1.142,0.271,1.705,0.406
										c-0.369,1.911-1.484,2.487-3.565,2.075c-0.953-0.188-1.939-0.264-2.908-0.313c-0.562-0.029-1.082,0.156-1.166,0.852
										c-0.058,0.459-0.022,0.793,0.604,0.812c0.494,0.015,0.998,0.168,1.467,0.338c0.271,0.103,0.682,0.354,0.688,0.554
										c0.06,1.303,0.898,1.461,2.207,1.344c-1.228,0.938-2.246,1.574-3.571,1.607c-1.447,0.038-2.912,0.032-4.34,0.239
										c-0.688,0.101-1.313,0.646-1.964,0.983c-0.569,0-1.144,0-1.715,0c0.399-1.004,0.283-1.291-0.715-1.713
										c-0.804-0.342-1.609-0.676-2.412-1.012c0.293-0.105,0.582-0.213,0.873-0.32c-0.201-0.248-0.404-0.498-0.604-0.746
										c-0.082,0.045-0.162,0.097-0.242,0.142c0,0.315,0,0.636,0,0.946c-0.186-0.01-0.393-0.079-0.547-0.02
										c-0.485,0.195-1.086,0.332-1.381,0.701c-0.225,0.287-0.088,0.889-0.043,1.344c0.023,0.234,0.197,0.453,0.307,0.68
										C44.667,49.363,39.204,49.363,33.741,49.363z"/>
									<path fill="#EADA7F" d="M9.54,15.251c0.456,0.129,1.006,0.141,1.349,0.412c0.772,0.613,1.215,0.365,1.644-0.367
										c0.14-0.238,0.397-0.404,0.593-0.611c1.057-1.113,1.272-1.145,2.601-0.393c1.033,0.584,1.259,0.523,1.786-0.584
										c0.462,1.008,1.215,1.367,2.25,1.209c0.21-0.033,0.52,0.117,0.678,0.283c0.844,0.895,1.63,1.844,2.488,2.722
										c0.494,0.508,1.054,0.967,1.643,1.359c0.541,0.361,1.209,0.563,1.203,1.502c-0.288-0.045-0.519-0.076-0.749-0.117
										c-0.343-0.063-0.691-0.217-1.023-0.186c-1.196,0.11-2.408,0.192-3.575,0.461c-1.188,0.27-2.33,0.742-3.56,1.147
										c0.258,0.438,0.442,0.746,0.626,1.06c-2.084-1.398-3.671-0.361-5.146,1.098c-0.535-0.891-1.003-1.674-1.571-2.617
										c1.351-0.861,2.65-1.682,3.941-2.516c0.697-0.451,1.391-0.447,2.021,0.063c0.484,0.393,0.896,0.262,1.089-0.184
										c0.202-0.467,0.342-1.08-0.395-1.343c-0.118-0.043-0.274-0.031-0.362-0.102c-1.346-1.117-2.734-1.682-4.29-0.379
										c-1.08-0.322-2.161-0.645-3.241-0.965C9.54,15.886,9.54,15.569,9.54,15.251z"/>
									<path fill="#EADA7F" d="M9.54,24.398c1.017-0.07,1.586,0.307,2.04,1.328c0.539,1.219,1.563,2.106,3.247,1.606
										c-0.099,0.397-0.16,0.592-0.194,0.793c-0.144,0.854,0.154,1.17,0.977,0.914c1.205-0.373,2.199-0.258,3.026,0.817
										c0.444,0.58,1.094,0.765,1.876,0.595c0.521-0.113,1.271-0.429,1.483,0.476c0.138,0.594-0.584,1.288-1.405,1.192
										c-1.08-0.125-2.179-0.347-3.19-0.736c-1.257-0.481-2.395-0.676-3.601,0.119c-0.75,0.494-1.496,0.369-2.105-0.362
										c-0.423-0.513-0.858-1.019-1.35-1.455c-0.173-0.154-0.53-0.103-0.804-0.142C9.54,27.828,9.54,26.113,9.54,24.398z"/>
									<path d="M54.705-16.765c-0.817,0.278-1.625,0.586-2.455,0.824c-0.506,0.146-1.045,0.182-1.612,0.479
										c0.254,0.088,0.524,0.284,0.76,0.25c1.976-0.292,3.776,0.001,5.269,1.445c-0.424,0.93-1.234,1.166-2.187,0.92
										c-1.115-0.29-2.019-0.028-2.89,0.718c-1.125,0.964-1.885,0.953-3.047,0.03c-0.785-0.623-1.646-1.009-2.627-0.838
										c-0.935,0.161-1.283-0.321-1.419-1.069c-0.133-0.723,0.519-1.493,1.316-1.585c0.879-0.102,1.768-0.128,2.646-0.218
										c0.571-0.06,1.182-0.121,1.098-0.954C51.273-16.765,52.986-16.765,54.705-16.765z"/>
									<path d="M18.881-16.205c-1.198,0.924-2.407,0.561-3.68,0c-0.033,0.281-0.064,0.542-0.094,0.804
										c-0.079,0.066-0.156,0.133-0.234,0.199c-0.508-0.52-1.016-1.042-1.523-1.563c5.019,0,10.037,0,15.055,0
										c-0.072,0.193-0.251,0.522-0.202,0.56c0.861,0.674,0.502,2.021,1.479,2.642c0.203,0.129,0.242,0.519,0.212,0.908
										c-0.434-1.301-1.328-0.759-2.072-0.639c-0.463,0.075-0.944,0.27-0.934-0.511c-1.266,0.04-2.287-0.384-3.032-1.647
										c-1.312,1.586-3.022,1.531-4.779,1.254c-0.022-0.094-0.045-0.188-0.066-0.281c0.488-0.082,0.973-0.182,1.463-0.242
										c0.625-0.077,1.275-0.043,1.87-0.215c0.296-0.086,0.491-0.523,0.645-0.997c-1.059,0.652-1.821,0.317-2.66-0.283
										c-0.319-0.229-0.97,0.007-1.469,0.031L18.881-16.205z"/>
									<path fill="#FFFFFF" d="M72.047,49.363c0.08-0.814-0.185-1.607,0.219-2.465c0.328-0.705-0.324-1.275-1.057-1.515
										c-0.354-0.116-0.728-0.163-1.168-0.254c0.063-0.187,0.09-0.496,0.213-0.541c0.928-0.334,1.863-0.688,2.828-0.86
										c0.229-0.045,0.614,0.522,0.869,0.854c0.444,0.59,0.711,1.408,1.711,1.153c0,1.078,0.014,2.16-0.017,3.238
										c-0.004,0.133-0.235,0.256-0.365,0.383c0.105-0.932-0.592-1.039-1.204-1.043c-0.72-0.006-1.593-0.071-1.648,1.043
										C72.301,49.363,72.172,49.363,72.047,49.363z"/>
									<path fill="#FFFFFF" d="M75.662,29.354c-0.352,0.101-0.692,0.258-1.053,0.281c-1.078,0.07-1.42,0.426-1.309,1.492
										c0.025,0.246,0.227,0.52,0.162,0.725c-0.123,0.396-0.336,0.781-0.603,1.096c-0.065,0.082-0.603-0.036-0.687-0.19
										c-0.221-0.399-0.364-0.86-0.418-1.313c-0.021-0.188,0.229-0.453,0.423-0.604c0.975-0.764,1.264-1.842,1.448-2.981
										c0.088-0.529,0.215-1.051,0.326-1.576c0.197-0.938,0.771-1.5,1.703-1.689C75.662,26.176,75.662,27.764,75.662,29.354z"/>
									<path d="M51.764,46.639c0.805,0.336,1.613,0.67,2.416,1.012c1,0.422,1.117,0.709,0.715,1.713c-1.588,0-3.178,0-4.766,0
										c-0.107-0.227-0.281-0.442-0.306-0.678c-0.047-0.457-0.184-1.059,0.041-1.344c0.296-0.371,0.896-0.506,1.382-0.703
										c0.153-0.061,0.362,0.012,0.547,0.021L51.764,46.639z"/>
									<path d="M9.54-14.287c1.415,0.019,1.744,0.356,2.136,1.808c0.117,0.433,0.581,0.771,0.902,1.173
										c-0.685,1.073-1.69,0.463-2.593,0.463c0.371,1.116,0.72,2.171,1.07,3.228l0.027-0.019c-0.514,0.07-1.027,0.139-1.541,0.208
										C9.54-9.714,9.54-12,9.54-14.287z"/>
									<path d="M11.054-7.616c0.822-0.058,1.645-0.116,2.468-0.175c0.023,0.112,0.047,0.223,0.069,0.334
										c-0.76,0.162-1.522,0.323-2.59,0.551c0.517,0.682,0.857,1.363,1.397,1.79c1.151,0.912,1.191,0.863,0.264,1.916
										c-0.067,0.076-0.051,0.226-0.06,0.276c-1.025-0.423-2.044-0.843-3.063-1.264c0-0.699,0-1.397,0-2.095
										c0.725-0.211,1.388-0.491,1.541-1.352L11.054-7.616z"/>
									<path fill="#FFFFFF" d="M75.662,4.388c-1.145,0.104-2.291,0.223-3.438,0.301c-0.308,0.02-0.654-0.02-0.916-0.158
										c-0.271-0.145-0.629-0.432-0.646-0.678c-0.021-0.238,0.309-0.662,0.557-0.73c0.9-0.25,1.828-0.414,2.756-0.552
										c0.557-0.083,1.131-0.062,1.691-0.086C75.662,3.118,75.662,3.753,75.662,4.388z"/>
									<path d="M9.54-3.614c0.462,0.513,0.363,1.541,1.399,1.527c0.37-0.006,0.745-0.064,1.109-0.021
										c0.573,0.066,1.201,0.084,1.684,0.346c0.26,0.143,0.267,0.749,0.388,1.146c-0.401,0.101-0.806,0.285-1.205,0.275
										c-0.318-0.008-0.63-0.254-1.002-0.42c-0.285,1.399-1.355,1.324-2.375,1.339C9.54-0.819,9.54-2.218,9.54-3.614z"/>
									<path d="M33.741-16.765c0.174,0.433,0.402,0.854,0.503,1.303c0.08,0.353,0.003,0.74-0.003,1.113
										c-0.352-0.136-0.872-0.173-1.024-0.429c-0.363-0.607-0.552-1.318-0.81-1.987C32.853-16.765,33.296-16.765,33.741-16.765z"
										/>
									<path d="M72.428,49.363c0.057-1.117,0.93-1.049,1.648-1.043c0.612,0.002,1.311,0.109,1.204,1.043
										C74.334,49.363,73.379,49.363,72.428,49.363z"/>
									<path fill="#FFFFFF" d="M75.662-2.661c-0.203-0.066-0.428-0.104-0.613-0.207c-0.278-0.15-0.534-0.348-0.803-0.524
										c0.322-0.239,0.633-0.495,0.969-0.711c0.117-0.077,0.3-0.059,0.447-0.083C75.662-3.679,75.662-3.171,75.662-2.661z"/>
									<path d="M9.54,2.484c0.459,0.153,0.919,0.31,1.23,0.415c-0.305,0.572-0.55,1.029-0.794,1.488c-0.146,0-0.291,0-0.436,0
										C9.54,3.753,9.54,3.118,9.54,2.484z"/>
									<path fill="#FFFFFF" d="M11.081-7.635c-0.153,0.862-0.816,1.141-1.541,1.352c0-0.382,0-0.763,0-1.145
										C10.053-7.496,10.566-7.564,11.081-7.635z"/>
									<path fill="#FFFFFF" d="M9.54,18.493c0.266,0.056,0.531,0.114,0.783,0.169c0.271,0.861-0.335,1.26-0.783,1.734
										C9.54,19.76,9.54,19.127,9.54,18.493z"/>
									<path fill="#FFFFFF" d="M28.596,49.363c0.225-0.264,0.449-0.521,0.541-0.629c1.156,0.233,2.118,0.434,3.081,0.629
										C31.009,49.363,29.804,49.363,28.596,49.363z"/>
									<path d="M38.695-16.765c-0.632,0.967-1.083,0.967-1.715,0C37.553-16.765,38.125-16.765,38.695-16.765z"/>
									<path fill="#EADA7F" d="M49.164,1.809c0.535-0.707,1.033-1.444,1.625-2.099c0.15-0.166,0.594-0.07,0.996-0.104
										c-0.029,0.184-0.092,0.309-0.055,0.389c0.49,1.08,0.615,2.063-0.34,3.032c-0.285,0.29,0.594,1.085,1.137,0.886
										c1.084-0.402,1.941-0.266,2.701,0.662c0.201,0.246,0.67,0.289,1.029,0.383c0.176,0.043,0.414,0.047,0.559-0.041
										c0.705-0.438,1.904,0.426,2.271-0.865c0.229-0.808,0.461-1.612,0.688-2.416c0.297,0,0.576,0,0.912,0
										c0.813,2.307,2.856,1.513,4.649,1.705c-0.146,0.295-0.254,0.533-0.379,0.764c-0.93,1.734-0.151,3.098,1.842,3.191
										c0.794,0.039,1.593-0.029,2.382,0.033c0.274,0.021,0.774,0.355,0.754,0.449c-0.101,0.428,0.142,1.063-0.653,1.17
										c-1,0.139-1.979,0.434-2.979,0.574c-1.148,0.16-2.343-0.084-3.025-0.979c-1.103-1.436-2.631-1.727-4.182-2.137
										c-0.341-0.088-0.744-0.348-0.896-0.641c-0.313-0.625-0.621-0.484-1.037-0.176c-0.867,0.645-1.744,1.277-2.645,1.934
										c0.609,0.91,1.186-0.643,1.852-0.395c0.039,0.125,0.076,0.25,0.111,0.375c-0.729,0.271-1.438,0.656-2.189,0.785
										c-1.037,0.18-2.123-0.111-3.139,0.48c-0.314,0.186-0.898-0.061-1.352-0.146c-0.361-0.068-0.707-0.227-1.068-0.287
										c-0.703-0.121-1.156,0.043-1.58,0.779c-1.34,2.328-3.658,2.688-6.136,1.666c-0.873-0.357-1.636-0.979-2.504-1.35
										c-0.859-0.365-1.775-0.686-2.692-0.781c-0.399-0.041-1.057,0.451-1.224,0.855c-0.105,0.254,0.402,0.924,0.786,1.172
										c0.485,0.313,1.139,0.352,1.695,0.572c0.581,0.23,1.155,0.504,1.684,0.834c0.196,0.123,0.385,0.494,0.34,0.697
										c-0.038,0.164-0.428,0.26-0.67,0.365c-0.08,0.037-0.206-0.023-0.28,0.016c-0.336,0.182-0.717,0.332-0.963,0.604
										c-0.097,0.107,0.036,0.623,0.204,0.729c0.336,0.211,0.805,0.428,1.154,0.35c0.89-0.197,1.733-0.598,2.62-0.828
										c0.326-0.086,0.773-0.02,1.063,0.15c0.394,0.232,0.454,0.775-0.047,0.863c-1.909,0.33-3.443,1.885-5.563,1.57
										c-1.555-0.23-3.071-0.447-4.359-1.439c-1.173-0.904-2.387-1.717-4.072-1.355c0-0.559,0-1.01,0-1.457
										c-0.771-0.115-1.459-0.215-2.148-0.318c-0.012-0.145-0.023-0.293-0.035-0.438c1.044-0.223,2.089-0.443,3.167-0.672
										c-0.572-1.252-0.33-1.596,0.964-1.613C30.613,9.3,31.11,9.37,31.556,9.245c0.313-0.084,0.742-0.406,0.775-0.666
										c0.032-0.25-0.324-0.68-0.61-0.809c-0.442-0.203-0.977-0.203-1.464-0.32c-0.906-0.223-1.796-0.516-2.711-0.691
										c-0.872-0.168-1.764-0.229-2.786-0.352c0.287-0.482,0.614-1.063,0.965-1.625c0.348-0.559,0.815-1.064,1.054-1.664
										c0.253-0.637,0.684-0.744,1.19-0.594c1.059,0.318,2.077,0.652,3.194,0.166c0.345-0.15,0.873-0.145,1.218,0.009
										c2.088,0.933,4.337,0.825,6.527,1.093c0.501,0.063,1.005,0.123,1.499,0.227c1.158,0.242,2.167-0.018,3.134-0.706
										c0.389-0.274,0.953-0.298,1.689-0.507c0.262-1,1.31-1.092,2.435-1.039c0.506,0.023,1.012,0.025,1.514,0.04
										c-0.861,0.463-0.238,0.958,0.043,1.438c-0.379,0.229-0.697,0.422-1.146,0.694c0.934,0.032,1.693-0.134,1.873-0.873
										C50.027,2.733,49.443,2.234,49.164,1.809z M50.324,5.534c-0.086,0.111-0.172,0.223-0.256,0.332
										c0.43,0.322,0.857,0.646,1.285,0.969c0.09-0.123,0.18-0.246,0.27-0.369C51.189,6.155,50.758,5.845,50.324,5.534z
										 M47.467,4.925c-0.08,0.047-0.16,0.096-0.242,0.143c0.172,0.279,0.299,0.605,0.533,0.813
										c0.094,0.082,0.422-0.104,0.76-0.199C48.057,5.349,47.762,5.138,47.467,4.925z"/>
									<path fill="#FFFFFF" d="M55.102-6.67c0,0.474,0.018,0.932-0.004,1.389c-0.031,0.781,0.314,1.244,1.078,1.449
										c1.389,0.375,1.352,0.388,1.34,1.812c-0.002,0.273,0.338,0.716,0.607,0.802c1.491,0.472,3.006,0.333,4.477-0.106
										c0.406-0.121,0.855-0.491,1.047-0.867c0.625-1.204,1.602-1.638,2.885-1.619c0.404,0.006,0.848-0.002,1.213-0.153
										c0.314-0.129,0.726-0.442,0.767-0.723c0.036-0.251-0.312-0.683-0.597-0.835c-1.43-0.767-2.938-1.081-4.563-0.666
										c-0.572,0.146-1.199,0.136-1.795,0.109c-0.232-0.01-0.551-0.21-0.656-0.414C60.83-6.631,60.994-7,61.158-7.137
										c0.562-0.461,1.166-0.869,1.758-1.29c0.795-0.564,1.597-1.121,2.205-1.546c0.824,0.159,1.558,0.347,2.301,0.428
										c0.576,0.063,1.097,0.009,1.375,0.731c0.109,0.279,0.683,0.424,1.07,0.531c0.371,0.101,0.777,0.073,1.283,0.109
										c-0.488,2.086,0.502,3.003,2.729,3.094c-0.522,0.414-0.791,0.541-0.922,0.75c-0.188,0.295-0.416,0.67-0.381,0.982
										c0.107,0.927-0.109,1.167-1.01,1.276c-1.084,0.132-2.145,0.563-3.223,0.592c-1.541,0.041-2.717,0.46-3.469,1.9
										c-0.119,0.227-0.855,0.326-1.203,0.199c-1.881-0.693-3.652-0.4-5.437,0.354c-0.998,0.423-1.934,0.304-2.797-0.185
										c0.869-0.621,0.922-0.979,0.121-1.712c-0.513-0.469-0.851-0.913-0.908-1.67c-0.021-0.313-0.728-0.771-1.155-0.817
										c-0.976-0.103-1.234-0.667-1.261-1.465c-0.026-0.837,0.509-1,1.24-1.075C53.963-5.997,54.418-6.353,55.102-6.67z"/>
									<path fill="#EADA7F" d="M56.096,33.883c0.053,0.309-0.02,0.926,0.254,1.225c0.277,0.302,0.896,0.287,1.365,0.408
										c0.016,0.117,0.031,0.229,0.047,0.344c-1.094,0.244-2.18,0.658-3.281,0.699c-1.813,0.066-3.463,0.324-5.004,1.439
										c-1.338,0.975-2.541,0.76-3.63-0.484c-1.046-1.193-2.25-1.906-3.839-1.963c-0.271-0.01-0.541-0.09-1.079-0.186
										c0.366-0.439,0.579-0.756,0.854-1.008c0.231-0.207,0.588-0.287,0.791-0.515c0.274-0.312,0.524-0.684,0.629-1.069
										c0.028-0.103-0.521-0.371-0.82-0.539c-0.189-0.107-0.407-0.164-0.612-0.246c0.302-1.25,0.808-1.781,2.724-1.832
										c0.883-0.025,1.771,0.047,2.646-0.041c0.461-0.049,0.9-0.346,1.346-0.533c0.137-0.055,0.266-0.16,0.404-0.18
										c1.051-0.137,2.105-0.242,3.156-0.391c0.502-0.07,1.063-0.308,1.274,0.387c0.209,0.686-0.375,0.944-0.844,1.022
										c-1.59,0.265-3.203,0.406-4.795,0.649c-0.744,0.117-1.481,0.316-2.196,0.562c-0.774,0.265-1.095,0.854-0.848,1.656
										c0.235,0.762,0.823,0.983,1.57,0.903c0.408-0.043,0.822-0.059,1.23-0.104c0.826-0.096,1.451,0.166,1.971,0.859
										c0.807,1.082,1.008,1.074,2.201,0.41c0.357-0.195,0.746-0.349,1.137-0.474C53.873,34.539,55.002,34.211,56.096,33.883z"/>
									<path fill="#FFFFFF" d="M46.514-2.26c-1.783,0.872-3.553,1.748-5.333,2.601c-0.998,0.479-1.932,0.547-2.925-0.183
										c-0.63-0.463-1.461-0.671-2.225-0.92c-0.166-0.054-0.438,0.302-0.652,0.292c-0.953-0.043-1.388-1.013-0.794-1.799
										c0.721-0.95,1.772-1.176,2.887-1.085c0.875,0.071,1.738,0.269,2.612,0.362c1.976,0.213,3.956,0.394,5.931,0.598
										C46.221-2.372,46.42-2.286,46.514-2.26z"/>
									<path fill="#FFFFFF" d="M71.469,42.572c-1.049-0.734-1.789-1.58-1.68-2.855c0.03-0.373,0.309-0.857,0.621-1.033
										c0.19-0.106,0.748,0.183,0.985,0.439C72.584,40.4,72.578,40.793,71.469,42.572z"/>
									<path fill="#EADA7F" d="M25.717,32.473c-0.035,0.445-0.063,0.809-0.104,1.332c-0.911-0.162-1.766-0.297-2.607-0.486
										c-0.16-0.032-0.38-0.301-0.371-0.444c0.009-0.144,0.272-0.375,0.432-0.383C23.933,32.453,24.802,32.473,25.717,32.473z"/>
									<path fill="#FFFFFF" d="M63.855-13.653c0.688-0.249,1.324-0.523,1.984-0.692c0.285-0.072,0.629,0.077,0.943,0.126
										c-0.105,0.306-0.15,0.827-0.326,0.877c-0.511,0.142-1.078,0.154-1.611,0.099C64.492-13.281,64.16-13.521,63.855-13.653z"/>
									<path fill="#909B4E" d="M56.709,32.98c0.434-0.334,0.877-0.635,1.354-0.031c0.412,0.527,0.479,1.977,0.025,2.174
										c-0.189,0.082-0.707-0.225-0.844-0.484C56.984,34.16,56.893,33.59,56.709,32.98z"/>
									<path fill="#EADA7F" d="M16.896,26.527c-1.125,0.906-1.33,0.854-1.855-0.408C15.675,26.26,16.177,26.367,16.896,26.527z"/>
									<path fill="#052B00" d="M40.478,22.014c-0.433,1.369-1.411,1.723-2.677,1.074C38.711,22.721,39.508,22.402,40.478,22.014z"
										/>
									<path fill="#052B00" d="M33.364,36.021c-0.442,0.83-1.141,0.688-1.763,0.563c-0.126-0.022-0.284-0.756-0.208-0.806
										c0.359-0.217,0.8-0.428,1.202-0.411C32.857,35.381,33.103,35.785,33.364,36.021z"/>
									<path fill="#052B00" d="M24.781,38.455c0.039-0.516,0.004-1.092,0.098-1.113c0.578-0.133,1.184-0.145,1.78-0.195
										c0.03,0.146,0.06,0.281,0.09,0.42C26.208,37.811,25.666,38.057,24.781,38.455z"/>
									<path d="M30.395-10.68c-1.153,1.815-2.897,1.459-4.44,1.688C27.291-9.803,28.619-10.632,30.395-10.68z"/>
									<path d="M18.859-16.184c0.539,0.106,1.079,0.213,1.618,0.32c0.009,0.106,0.018,0.212,0.027,0.319
										c-0.282,0.089-0.655,0.333-0.823,0.232c-0.327-0.196-0.54-0.584-0.8-0.893L18.859-16.184z"/>
									<path d="M22.961-13.645c0.472-0.151,0.944-0.302,1.504-0.482c-0.195,1.069-0.772,1-1.403,0.805
										C23.029-13.43,22.996-13.537,22.961-13.645z"/>
									<path d="M17.22-2.298c-0.397-0.189-0.794-0.378-1.191-0.566c0.048-0.113,0.097-0.227,0.146-0.338
										c0.399,0.158,0.8,0.316,1.2,0.476C17.322-2.583,17.271-2.44,17.22-2.298z"/>
									<path d="M20.466-1.897c-0.506,0.025-1.012,0.051-1.519,0.078c-0.003-0.103-0.006-0.204-0.01-0.307c0.51,0,1.021,0,1.532,0
										C20.47-2.051,20.469-1.975,20.466-1.897z"/>
									<path fill="#052B00" d="M56.512,18.67c0.289-0.367,0.604-0.716,0.857-1.104c0.221-0.334,0.375-0.713,0.666-1.281
										c-0.089,0.848-0.148,1.414-0.205,1.982C57.76,18.965,57.416,19.072,56.512,18.67z"/>
									<path d="M68.383,20.947c0.467-1.045,0.453-1.84-0.621-2.346c0.793-0.253,0.99-0.143,1.266,0.573
										C69.354,20.021,69.205,20.572,68.383,20.947z"/>
									<path d="M69.035,16.944c0.271,0.295,0.553,0.584,0.803,0.9c0.015,0.016-0.223,0.23-0.342,0.354
										c-0.291-0.287-0.58-0.574-0.873-0.861C68.76,17.206,68.896,17.073,69.035,16.944z"/>
									<path d="M70.938,21.92c-0.645-0.135-1.174-0.244-1.729-0.357C69.852,20.955,70.313,21.037,70.938,21.92z"/>
									<path fill="#052B00" d="M55.246,19.264c0.49,0.182,0.984,0.361,1.582,0.582c-1.139,0.467-1.344,0.369-1.559-0.604
										L55.246,19.264z"/>
									<path d="M51.795,46.658c0-0.313,0-0.631,0-0.947c0.08-0.045,0.16-0.094,0.242-0.139c0.198,0.248,0.399,0.496,0.604,0.744
										c-0.291,0.106-0.58,0.217-0.873,0.32C51.764,46.639,51.795,46.658,51.795,46.658z"/>
									<path d="M49.164,1.809c0.279,0.426,0.863,0.924,0.783,1.261c-0.18,0.739-0.939,0.906-1.875,0.873
										c0.451-0.273,0.77-0.465,1.146-0.695c-0.279-0.479-0.902-0.975-0.041-1.438C49.182,1.809,49.164,1.809,49.164,1.809z"/>
									<path d="M50.324,5.534c0.434,0.311,0.865,0.621,1.299,0.932c-0.09,0.123-0.18,0.246-0.27,0.369
										c-0.428-0.322-0.855-0.646-1.285-0.969C50.152,5.757,50.238,5.646,50.324,5.534z"/>
									<path d="M47.467,4.925c0.295,0.213,0.59,0.424,1.051,0.754c-0.338,0.098-0.666,0.283-0.76,0.201
										c-0.234-0.207-0.361-0.535-0.533-0.814C47.307,5.021,47.387,4.974,47.467,4.925z"/>
								</g>
							</g>
						</g>
					</g>
				</g>
			</g>
		</g>
	</g>
</g>
<linearGradient id="mp5sd_1_" gradientUnits="userSpaceOnUse" x1="384.9629" y1="-258.8984" x2="455.958" y2="-258.8984" gradientTransform="matrix(1 0 0 -1 -374.96 -242.5996)">
	<stop  offset="0" style="stop-color:#B1DB7F;stop-opacity:0"/>
	<stop  offset="0.1061" style="stop-color:#B1DB7F;stop-opacity:0.1061"/>
	<stop  offset="1" style="stop-color:#B1DB7F"/>
</linearGradient>
<path id="mp5sd_2_" fill="url(#mp5sd_1_)" d="M80.998,8.995c-0.01,0.506-0.078,1.009-0.201,1.5c-0.043,0.25-0.107,0.494-0.197,0.731
	H59.145v0.615l-0.238,0.308H39.388V11.3h-0.79c-0.149,0.173-0.166,0.424-0.04,0.615l0.554,1.654h0.276l0.08,0.271l-0.475,0.192
	l0.119,0.423c0.133,0.333,0.278,0.718,0.435,1.154c0.602,1.487,1.289,2.939,2.059,4.345c1.03,1.905,2.18,3.741,3.444,5.5
	c0.713,1.026,1.359,1.911,1.94,2.653l-2.93,2.19c-0.554-0.69-1.201-1.551-1.94-2.575c-1.29-1.839-2.466-3.752-3.524-5.729
	c-0.897-1.743-1.676-3.371-2.336-4.884l-0.752-1.769l-0.277,0.077h-1.068l-0.317,1.615h-0.238l0.238-1.538h-1.148l-0.277,0.269
	l-1.386,2.691c-0.085,0.211-0.289,0.349-0.515,0.347h-4.355c-0.333-0.015-0.659-0.107-0.95-0.271l-0.158,0.115
	c-0.21,0.25-0.335,0.561-0.356,0.885c-0.013,0.188-0.067,0.371-0.158,0.537c-0.065,0.149-0.145,0.291-0.238,0.426
	c-0.153,0.17-0.273,0.363-0.356,0.576c-0.075,0.211-0.128,0.433-0.158,0.654c0.013,0.182-0.015,0.365-0.079,0.537
	c-0.069,0.211-0.177,0.406-0.317,0.577c-0.139,0.22-0.258,0.45-0.356,0.69c-0.066,0.226-0.106,0.457-0.119,0.69
	c-0.016,0.187-0.056,0.364-0.119,0.538c-0.098,0.203-0.234,0.387-0.4,0.538c-0.132,0.103-0.238,0.179-0.317,0.229l-4.711-2.5
	C17.42,22.71,17.5,22.398,17.61,22.1c0.275-0.797,0.593-1.58,0.95-2.346c0.366-0.701,0.79-1.37,1.267-2l0.475-0.615l0.277-0.538
	c0.141-0.385,0.233-0.785,0.277-1.192c0.064-0.372-0.006-0.754-0.2-1.077c-0.165-0.262-0.397-0.475-0.673-0.615
	c-0.125-0.036-0.244-0.088-0.356-0.154c-0.08-0.008-0.152-0.05-0.2-0.115c-0.07-0.063-0.125-0.143-0.158-0.231h-3.002
	c-0.313-0.038-0.567-0.27-0.634-0.577l-0.475-2.231l-0.2-0.038l-0.079,0.269l0.518,1.66l-0.238,0.423h-1.228l-0.277-0.5l0.792-1.538
	l-0.04-0.346l-0.317,0.154c-0.227,0.193-0.416,0.428-0.554,0.692c-0.152,0.267-0.271,0.551-0.356,0.846
	c-0.045,0.097-0.072,0.201-0.079,0.308l-0.435,2.615c-0.1,0.929-0.299,1.844-0.594,2.73c-0.112,0.083-0.218,0.172-0.317,0.269
	c-0.066,0.056-0.151,0.084-0.238,0.078c-0.21,0.025-0.423,0.025-0.633,0c-0.235-0.014-0.459-0.11-0.633-0.27
	c-0.109-0.092-0.191-0.211-0.238-0.346c-0.022-0.13-0.008-0.263,0.04-0.385c0-0.025,0.092-0.602,0.277-1.73
	c0.185-1.051,0.303-1.846,0.356-2.384c0.026-0.333,0.04-1.346,0.04-3.038V7.8c-0.04-0.272-0.013-0.55,0.079-0.808
	c0.126-0.125,0.297-0.195,0.474-0.192c0.531,0.001,1.062,0.052,1.584,0.154c0.422,0.102,0.831,0.192,1.227,0.269h1.069l0.04-0.615
	c0.079-0.256,0.158-0.526,0.238-0.808c0.124-0.342,0.269-0.676,0.435-1c0.086-0.091,0.196-0.158,0.317-0.192h3.009l0.277,0.115
	h1.386l0.037-1.077c0.052-0.216,0.178-0.406,0.356-0.538c0.138-0.098,0.308-0.139,0.475-0.115h0.4l0.158,0.577l0.311-0.77
	l1.663,0.692l-0.356,0.615l0.356,0.577h14.969l0.317,0.038h18.014V4.339h-0.238V2.493L57.48,2.3h0.674l0.553,1.5v0.923h0.357
	l0.275,0.385v1.307h-0.236v0.423h21.578L80.84,7.53C80.939,8.012,80.992,8.502,80.998,8.995z M31.47,15.763l-0.272-0.269h-3.212
	L27.828,15.8c-0.102,0.196-0.182,0.402-0.238,0.615c-0.021,0.233,0.006,0.469,0.079,0.692c0.036,0.196,0.089,0.39,0.158,0.577
	l0.039,0.385l-0.317-0.154c-0.221-0.3-0.383-0.639-0.475-1c-0.052-0.308-0.093-0.641-0.119-1v-0.421h-0.79L25.809,16.3
	c-0.211,0.539-0.33,0.846-0.356,0.923c-0.026,0.23-0.026,0.462,0,0.692c0.232,0.215,0.52,0.362,0.831,0.423h4
	c0.165-0.031,0.301-0.148,0.356-0.307L31.47,15.763z"/>
<linearGradient id="mp5sd_5_" gradientUnits="userSpaceOnUse" x1="384.9629" y1="-258.8984" x2="455.958" y2="-258.8984" gradientTransform="matrix(1 0 0 -1 -374.96 -242.5996)">
	<stop  offset="0" style="stop-color:#B1DB7F;stop-opacity:0"/>
	<stop  offset="0.1061" style="stop-color:#B1DB7F;stop-opacity:0.1061"/>
	<stop  offset="1" style="stop-color:#B1DB7F"/>
</linearGradient>
<path id="mp5sd_3_" fill="url(#mp5sd_5_)" d="M80.998,8.995c-0.01,0.506-0.078,1.009-0.201,1.5c-0.043,0.25-0.107,0.494-0.197,0.731
	H59.145v0.615l-0.238,0.308H39.388V11.3h-0.79c-0.149,0.173-0.166,0.424-0.04,0.615l0.554,1.654h0.276l0.08,0.271l-0.475,0.192
	l0.119,0.423c0.133,0.333,0.278,0.718,0.435,1.154c0.602,1.487,1.289,2.939,2.059,4.345c1.03,1.905,2.18,3.741,3.444,5.5
	c0.713,1.026,1.359,1.911,1.94,2.653l-2.93,2.19c-0.554-0.69-1.201-1.551-1.94-2.575c-1.29-1.839-2.466-3.752-3.524-5.729
	c-0.897-1.743-1.676-3.371-2.336-4.884l-0.752-1.769l-0.277,0.077h-1.068l-0.317,1.615h-0.238l0.238-1.538h-1.148l-0.277,0.269
	l-1.386,2.691c-0.085,0.211-0.289,0.349-0.515,0.347h-4.355c-0.333-0.015-0.659-0.107-0.95-0.271l-0.158,0.115
	c-0.21,0.25-0.335,0.561-0.356,0.885c-0.013,0.188-0.067,0.371-0.158,0.537c-0.065,0.149-0.145,0.291-0.238,0.426
	c-0.153,0.17-0.273,0.363-0.356,0.576c-0.075,0.211-0.128,0.433-0.158,0.654c0.013,0.182-0.015,0.365-0.079,0.537
	c-0.069,0.211-0.177,0.406-0.317,0.577c-0.139,0.22-0.258,0.45-0.356,0.69c-0.066,0.226-0.106,0.457-0.119,0.69
	c-0.016,0.187-0.056,0.364-0.119,0.538c-0.098,0.203-0.234,0.387-0.4,0.538c-0.132,0.103-0.238,0.179-0.317,0.229l-4.711-2.5
	C17.42,22.71,17.5,22.398,17.61,22.1c0.275-0.797,0.593-1.58,0.95-2.346c0.366-0.701,0.79-1.37,1.267-2l0.475-0.615l0.277-0.538
	c0.141-0.385,0.233-0.785,0.277-1.192c0.064-0.372-0.006-0.754-0.2-1.077c-0.165-0.262-0.397-0.475-0.673-0.615
	c-0.125-0.036-0.244-0.088-0.356-0.154c-0.08-0.008-0.152-0.05-0.2-0.115c-0.07-0.063-0.125-0.143-0.158-0.231h-3.002
	c-0.313-0.038-0.567-0.27-0.634-0.577l-0.475-2.231l-0.2-0.038l-0.079,0.269l0.518,1.66l-0.238,0.423h-1.228l-0.277-0.5l0.792-1.538
	l-0.04-0.346l-0.317,0.154c-0.227,0.193-0.416,0.428-0.554,0.692c-0.152,0.267-0.271,0.551-0.356,0.846
	c-0.045,0.097-0.072,0.201-0.079,0.308l-0.435,2.615c-0.1,0.929-0.299,1.844-0.594,2.73c-0.112,0.083-0.218,0.172-0.317,0.269
	c-0.066,0.056-0.151,0.084-0.238,0.078c-0.21,0.025-0.423,0.025-0.633,0c-0.235-0.014-0.459-0.11-0.633-0.27
	c-0.109-0.092-0.191-0.211-0.238-0.346c-0.022-0.13-0.008-0.263,0.04-0.385c0-0.025,0.092-0.602,0.277-1.73
	c0.185-1.051,0.303-1.846,0.356-2.384c0.026-0.333,0.04-1.346,0.04-3.038V7.8c-0.04-0.272-0.013-0.55,0.079-0.808
	c0.126-0.125,0.297-0.195,0.474-0.192c0.531,0.001,1.062,0.052,1.584,0.154c0.422,0.102,0.831,0.192,1.227,0.269h1.069l0.04-0.615
	c0.079-0.256,0.158-0.526,0.238-0.808c0.124-0.342,0.269-0.676,0.435-1c0.086-0.091,0.196-0.158,0.317-0.192h3.009l0.277,0.115
	h1.386l0.037-1.077c0.052-0.216,0.178-0.406,0.356-0.538c0.138-0.098,0.308-0.139,0.475-0.115h0.4l0.158,0.577l0.311-0.77
	l1.663,0.692l-0.356,0.615l0.356,0.577h14.969l0.317,0.038h18.014V4.339h-0.238V2.493L57.48,2.3h0.674l0.553,1.5v0.923h0.357
	l0.275,0.385v1.307h-0.236v0.423h21.578L80.84,7.53C80.939,8.012,80.992,8.502,80.998,8.995z M31.47,15.763l-0.272-0.269h-3.212
	L27.828,15.8c-0.102,0.196-0.182,0.402-0.238,0.615c-0.021,0.233,0.006,0.469,0.079,0.692c0.036,0.196,0.089,0.39,0.158,0.577
	l0.039,0.385l-0.317-0.154c-0.221-0.3-0.383-0.639-0.475-1c-0.052-0.308-0.093-0.641-0.119-1v-0.421h-0.79L25.809,16.3
	c-0.211,0.539-0.33,0.846-0.356,0.923c-0.026,0.23-0.026,0.462,0,0.692c0.232,0.215,0.52,0.362,0.831,0.423h4
	c0.165-0.031,0.301-0.148,0.356-0.307L31.47,15.763z"/>
<linearGradient id="mp5sd_6_" gradientUnits="userSpaceOnUse" x1="384.9629" y1="-258.8984" x2="455.958" y2="-258.8984" gradientTransform="matrix(1 0 0 -1 -374.96 -242.5996)">
	<stop  offset="0" style="stop-color:#B1DB7F;stop-opacity:0"/>
	<stop  offset="0.1061" style="stop-color:#B1DB7F;stop-opacity:0.1061"/>
	<stop  offset="1" style="stop-color:#B1DB7F"/>
</linearGradient>
<path id="mp5sd_4_" fill="url(#mp5sd_6_)" d="M80.998,8.995c-0.01,0.506-0.078,1.009-0.201,1.5c-0.043,0.25-0.107,0.494-0.197,0.731
	H59.145v0.615l-0.238,0.308H39.388V11.3h-0.79c-0.149,0.173-0.166,0.424-0.04,0.615l0.554,1.654h0.276l0.08,0.271l-0.475,0.192
	l0.119,0.423c0.133,0.333,0.278,0.718,0.435,1.154c0.602,1.487,1.289,2.939,2.059,4.345c1.03,1.905,2.18,3.741,3.444,5.5
	c0.713,1.026,1.359,1.911,1.94,2.653l-2.93,2.19c-0.554-0.69-1.201-1.551-1.94-2.575c-1.29-1.839-2.466-3.752-3.524-5.729
	c-0.897-1.743-1.676-3.371-2.336-4.884l-0.752-1.769l-0.277,0.077h-1.068l-0.317,1.615h-0.238l0.238-1.538h-1.148l-0.277,0.269
	l-1.386,2.691c-0.085,0.211-0.289,0.349-0.515,0.347h-4.355c-0.333-0.015-0.659-0.107-0.95-0.271l-0.158,0.115
	c-0.21,0.25-0.335,0.561-0.356,0.885c-0.013,0.188-0.067,0.371-0.158,0.537c-0.065,0.149-0.145,0.291-0.238,0.426
	c-0.153,0.17-0.273,0.363-0.356,0.576c-0.075,0.211-0.128,0.433-0.158,0.654c0.013,0.182-0.015,0.365-0.079,0.537
	c-0.069,0.211-0.177,0.406-0.317,0.577c-0.139,0.22-0.258,0.45-0.356,0.69c-0.066,0.226-0.106,0.457-0.119,0.69
	c-0.016,0.187-0.056,0.364-0.119,0.538c-0.098,0.203-0.234,0.387-0.4,0.538c-0.132,0.103-0.238,0.179-0.317,0.229l-4.711-2.5
	C17.42,22.71,17.5,22.398,17.61,22.1c0.275-0.797,0.593-1.58,0.95-2.346c0.366-0.701,0.79-1.37,1.267-2l0.475-0.615l0.277-0.538
	c0.141-0.385,0.233-0.785,0.277-1.192c0.064-0.372-0.006-0.754-0.2-1.077c-0.165-0.262-0.397-0.475-0.673-0.615
	c-0.125-0.036-0.244-0.088-0.356-0.154c-0.08-0.008-0.152-0.05-0.2-0.115c-0.07-0.063-0.125-0.143-0.158-0.231h-3.002
	c-0.313-0.038-0.567-0.27-0.634-0.577l-0.475-2.231l-0.2-0.038l-0.079,0.269l0.518,1.66l-0.238,0.423h-1.228l-0.277-0.5l0.792-1.538
	l-0.04-0.346l-0.317,0.154c-0.227,0.193-0.416,0.428-0.554,0.692c-0.152,0.267-0.271,0.551-0.356,0.846
	c-0.045,0.097-0.072,0.201-0.079,0.308l-0.435,2.615c-0.1,0.929-0.299,1.844-0.594,2.73c-0.112,0.083-0.218,0.172-0.317,0.269
	c-0.066,0.056-0.151,0.084-0.238,0.078c-0.21,0.025-0.423,0.025-0.633,0c-0.235-0.014-0.459-0.11-0.633-0.27
	c-0.109-0.092-0.191-0.211-0.238-0.346c-0.022-0.13-0.008-0.263,0.04-0.385c0-0.025,0.092-0.602,0.277-1.73
	c0.185-1.051,0.303-1.846,0.356-2.384c0.026-0.333,0.04-1.346,0.04-3.038V7.8c-0.04-0.272-0.013-0.55,0.079-0.808
	c0.126-0.125,0.297-0.195,0.474-0.192c0.531,0.001,1.062,0.052,1.584,0.154c0.422,0.102,0.831,0.192,1.227,0.269h1.069l0.04-0.615
	c0.079-0.256,0.158-0.526,0.238-0.808c0.124-0.342,0.269-0.676,0.435-1c0.086-0.091,0.196-0.158,0.317-0.192h3.009l0.277,0.115
	h1.386l0.037-1.077c0.052-0.216,0.178-0.406,0.356-0.538c0.138-0.098,0.308-0.139,0.475-0.115h0.4l0.158,0.577l0.311-0.77
	l1.663,0.692l-0.356,0.615l0.356,0.577h14.969l0.317,0.038h18.014V4.339h-0.238V2.493L57.48,2.3h0.674l0.553,1.5v0.923h0.357
	l0.275,0.385v1.307h-0.236v0.423h21.578L80.84,7.53C80.939,8.012,80.992,8.502,80.998,8.995z M31.47,15.763l-0.272-0.269h-3.212
	L27.828,15.8c-0.102,0.196-0.182,0.402-0.238,0.615c-0.021,0.233,0.006,0.469,0.079,0.692c0.036,0.196,0.089,0.39,0.158,0.577
	l0.039,0.385l-0.317-0.154c-0.221-0.3-0.383-0.639-0.475-1c-0.052-0.308-0.093-0.641-0.119-1v-0.421h-0.79L25.809,16.3
	c-0.211,0.539-0.33,0.846-0.356,0.923c-0.026,0.23-0.026,0.462,0,0.692c0.232,0.215,0.52,0.362,0.831,0.423h4
	c0.165-0.031,0.301-0.148,0.356-0.307L31.47,15.763z"/>
</svg>
