<?xml version="1.0" encoding="utf-8"?>
<!-- Generator: Adobe Illustrator 16.0.0, SVG Export Plug-In . SVG Version: 6.00 Build 0)  -->
<!DOCTYPE svg PUBLIC "-//W3C//DTD SVG 1.1//EN" "http://www.w3.org/Graphics/SVG/1.1/DTD/svg11.dtd">
<svg version="1.1" id="case1" xmlns="http://www.w3.org/2000/svg" xmlns:xlink="http://www.w3.org/1999/xlink" x="0px" y="0px"
	 width="92px" height="36px" viewBox="0 0 92 36" enable-background="new 0 0 92 36" xml:space="preserve">
<path id="p90" fill="#B1DB7F" d="M57.428,16.296c-0.354,0.112-0.679,0.307-0.943,0.567c-0.183,0.318-0.268,0.684-0.242,1.051
	c0,0.648,0.012,1.213,0.039,1.701h1.638v0.809l0.287,0.072c0.14,0.033,0.268,0.102,0.369,0.201c0.188,0.229,0.446,0.385,0.736,0.441
	c0.624,0.146,1.28-0.021,1.762-0.441c0.656-0.406,0.918-1.232,0.613-1.941c-0.216-0.67-0.708-1.217-1.354-1.501
	c-0.241-0.164-0.438-0.387-0.571-0.648l-0.288-0.483c-0.216-0.029-0.436-0.043-0.652-0.042
	C58.347,16.048,57.87,16.122,57.428,16.296z M46.288,19.447c0.399-0.33,0.639-0.816,0.654-1.334
	c-0.009-0.494-0.135-0.979-0.367-1.415l-0.332-0.564h-5.61c-0.711,0.673-1.258,1.185-1.64,1.535
	c-0.194,0.172-0.286,0.432-0.244,0.687c0.01,0.285,0.038,0.568,0.081,0.85c-0.07,0.746,0.218,1.481,0.778,1.979
	c0.473,0.455,1.106,0.703,1.761,0.688c0.598-0.185,1.186-0.399,1.761-0.647c0.818-0.377,1.46-0.688,1.925-0.931
	C45.498,20.066,45.913,19.781,46.288,19.447z M66.521,8.044c-0.011-0.209-0.137-0.396-0.327-0.486H60.05
	c-0.629-0.025-1.708-0.08-3.236-0.162l-2.172-0.12v1.22h11.716c0.026-0.05,0.04-0.106,0.041-0.163
	C66.454,8.196,66.493,8.096,66.521,8.044z M67.954,7.396c-0.135-0.028-0.273-0.028-0.41,0h-0.242v0.769l0.326,0.044
	c0.199,0.055,0.334,0.238,0.328,0.443c-0.002,0.194-0.073,0.382-0.205,0.526l-0.205,0.2l0.166,1.981h0.49V7.924
	c0.01-0.111-0.004-0.223-0.041-0.328C68.138,7.495,68.057,7.417,67.954,7.396z M78.891,14.396c-0.106,0.216-0.333,0.344-0.573,0.323
	h-5.652l-0.197-0.241c-0.071,0.036-0.141,0.076-0.205,0.121c-0.082,0.033-0.154,0.089-0.205,0.162
	c0.16,0.216,0.338,0.419,0.529,0.607c0.268,0.272,0.428,0.63,0.453,1.01c-0.055,0.324-0.164,1.187-0.328,2.589
	c-0.135,1.4-0.198,2.209-0.198,2.424c0.017,0.131-0.049,0.26-0.163,0.324c-0.125,0.07-0.271,0.1-0.411,0.082h-2.383
	c-0.146-0.029-0.257-0.141-0.289-0.283c-0.118-0.268-0.175-0.557-0.163-0.848c0-0.459-0.014-0.9-0.041-1.336
	c-0.002-0.295-0.07-0.584-0.205-0.848c-0.389-0.161-0.807-0.244-1.229-0.243c-0.422-0.089-0.861-0.061-1.271,0.083l-0.408,0.401
	c-0.16,0.129-0.266,0.317-0.287,0.522c-0.026,0.106-0.101,0.838-0.205,2.185c-0.217,1.293-0.815,2.489-1.719,3.438
	c-1.146,1.021-2.574,1.666-4.097,1.858c-1.144,0.254-2.317,0.321-3.482,0.198c-0.346-0.014-0.684-0.11-0.982-0.282
	c-0.064-0.113-0.064-0.252,0-0.363c0.422-1.192,0.724-2.426,0.898-3.68c-0.033-0.142-0.09-0.274-0.164-0.399
	c-0.109-0.136-0.276-0.209-0.449-0.199c-0.45-0.039-0.902-0.054-1.354-0.041c-0.38-0.026-0.778-0.041-1.188-0.041
	c-0.109,0.021-0.202,0.097-0.244,0.201c-0.063,0.131-0.146,0.254-0.246,0.36c-0.305,0.299-0.632,0.567-0.98,0.812
	c-0.701,0.56-1.439,1.069-2.207,1.533c-1.74,1.229-3.777,1.967-5.899,2.143c-1.554,0-3.221-0.055-5-0.163l-2.172-0.199l-0.039-1.334
	c-1.851-0.819-3.752-1.521-5.692-2.101c-0.299-0.028-0.6-0.043-0.9-0.043l-0.411-0.041l-0.327,0.565
	c-0.137,0.275-0.397,0.472-0.7,0.525H12.167c-0.3-0.037-0.553-0.24-0.654-0.525c-0.139-0.305-0.208-0.635-0.205-0.971v-6.75
	c0-1.4-0.028-2.951-0.083-4.652c-0.054-1.35-0.083-2.049-0.083-2.104c0.082-0.512,0.205-0.767,0.37-0.767h20.684
	c0.387-0.041,0.77-0.107,1.148-0.2c0.418-0.087,0.843-0.143,1.27-0.164h14.746l0.042-1.738c0.171-0.531,0.39-1.046,0.652-1.537
	c0.291-0.536,0.512-1.107,0.655-1.7C50.81,2.83,51,2.64,51.24,2.545c0.16-0.078,0.324-0.145,0.493-0.2
	c0-0.245,0.027-0.489,0.081-0.727c0.028-0.291,0.096-0.576,0.2-0.848c0.175-0.374,0.503-0.655,0.899-0.77
	c0.281-0.002,0.533,0.175,0.627,0.44c0.068,0.226,0.123,0.456,0.164,0.689c0.059,0.402,0.059,0.811,0,1.212
	c-0.045,0.005-0.086,0.02-0.123,0.042c-0.064,0.079-0.096,0.181-0.084,0.283v0.887h11.628l1.476-0.848
	c0.272,0,0.411-0.092,0.411-0.282V1.777h-0.247V0.768l0.205-0.2l0.45-0.282l0.943-0.09c0.086,0.033,0.146,0.109,0.161,0.2
	c0.029,0.12,0.046,0.242,0.043,0.365v1.785l0.163,0.6c0.055,0.22,0.151,0.427,0.286,0.608c0.369,0.031,0.739,0.031,1.106,0
	c1.64,1.753,2.498,2.67,2.58,2.751c0.183,0.215,0.283,0.486,0.287,0.767v4.368h5.611l0.245,0.242
	c0.219,0.337,0.319,0.736,0.289,1.136C79.182,13.492,79.095,13.967,78.891,14.396z"/>
<g>
	<g>
		<defs>
			<path id="SVGID_1_" d="M57.428,16.296c-0.354,0.112-0.679,0.307-0.943,0.567c-0.183,0.318-0.268,0.684-0.242,1.051
				c0,0.648,0.012,1.213,0.039,1.701h1.638v0.809l0.287,0.072c0.14,0.033,0.268,0.102,0.369,0.201
				c0.188,0.229,0.446,0.385,0.736,0.441c0.624,0.146,1.28-0.021,1.762-0.441c0.656-0.406,0.918-1.232,0.613-1.941
				c-0.216-0.67-0.708-1.217-1.354-1.501c-0.241-0.164-0.438-0.387-0.571-0.648l-0.288-0.483c-0.216-0.029-0.436-0.043-0.652-0.042
				C58.347,16.048,57.87,16.122,57.428,16.296z M46.288,19.447c0.399-0.33,0.639-0.816,0.654-1.334
				c-0.009-0.494-0.135-0.979-0.367-1.415l-0.332-0.564h-5.61c-0.711,0.673-1.258,1.185-1.64,1.535
				c-0.194,0.172-0.286,0.432-0.244,0.687c0.01,0.285,0.038,0.568,0.081,0.85c-0.07,0.746,0.218,1.481,0.778,1.979
				c0.473,0.455,1.106,0.703,1.761,0.688c0.598-0.185,1.186-0.399,1.761-0.647c0.818-0.377,1.46-0.688,1.925-0.931
				C45.498,20.066,45.913,19.781,46.288,19.447z M66.521,8.044c-0.011-0.209-0.137-0.396-0.327-0.486H60.05
				c-0.629-0.025-1.708-0.08-3.236-0.162l-2.172-0.12v1.22h11.716c0.026-0.05,0.04-0.106,0.041-0.163
				C66.454,8.196,66.493,8.096,66.521,8.044z M67.954,7.396c-0.135-0.028-0.273-0.028-0.41,0h-0.242v0.769l0.326,0.044
				c0.199,0.055,0.334,0.238,0.328,0.443c-0.002,0.194-0.073,0.382-0.205,0.526l-0.205,0.2l0.166,1.981h0.49V7.924
				c0.01-0.111-0.004-0.223-0.041-0.328C68.138,7.495,68.057,7.417,67.954,7.396z M78.891,14.396
				c-0.106,0.216-0.333,0.344-0.573,0.323h-5.652l-0.197-0.241c-0.071,0.036-0.141,0.076-0.205,0.121
				c-0.082,0.033-0.154,0.089-0.205,0.162c0.16,0.216,0.338,0.419,0.529,0.607c0.268,0.272,0.428,0.63,0.453,1.01
				c-0.055,0.324-0.164,1.187-0.328,2.589c-0.135,1.4-0.198,2.209-0.198,2.424c0.017,0.131-0.049,0.26-0.163,0.324
				c-0.125,0.07-0.271,0.1-0.411,0.082h-2.383c-0.146-0.029-0.257-0.141-0.289-0.283c-0.118-0.268-0.175-0.557-0.163-0.848
				c0-0.459-0.014-0.9-0.041-1.336c-0.002-0.295-0.07-0.584-0.205-0.848c-0.389-0.161-0.807-0.244-1.229-0.243
				c-0.422-0.089-0.861-0.061-1.271,0.083l-0.408,0.401c-0.16,0.129-0.266,0.317-0.287,0.522c-0.026,0.106-0.101,0.838-0.205,2.185
				c-0.217,1.293-0.815,2.489-1.719,3.438c-1.146,1.021-2.574,1.666-4.097,1.858c-1.144,0.254-2.317,0.321-3.482,0.198
				c-0.346-0.014-0.684-0.11-0.982-0.282c-0.064-0.113-0.064-0.252,0-0.363c0.422-1.192,0.724-2.426,0.898-3.68
				c-0.033-0.142-0.09-0.274-0.164-0.399c-0.109-0.136-0.276-0.209-0.449-0.199c-0.45-0.039-0.902-0.054-1.354-0.041
				c-0.38-0.026-0.778-0.041-1.188-0.041c-0.109,0.021-0.202,0.097-0.244,0.201c-0.063,0.131-0.146,0.254-0.246,0.36
				c-0.305,0.299-0.632,0.567-0.98,0.812c-0.701,0.56-1.439,1.069-2.207,1.533c-1.74,1.229-3.777,1.967-5.899,2.143
				c-1.554,0-3.221-0.055-5-0.163l-2.172-0.199l-0.039-1.334c-1.851-0.819-3.752-1.521-5.692-2.101
				c-0.299-0.028-0.6-0.043-0.9-0.043l-0.411-0.041l-0.327,0.565c-0.137,0.275-0.397,0.472-0.7,0.525H12.167
				c-0.3-0.037-0.553-0.24-0.654-0.525c-0.139-0.305-0.208-0.635-0.205-0.971v-6.75c0-1.4-0.028-2.951-0.083-4.652
				c-0.054-1.35-0.083-2.049-0.083-2.104c0.082-0.512,0.205-0.767,0.37-0.767h20.684c0.387-0.041,0.77-0.107,1.148-0.2
				c0.418-0.087,0.843-0.143,1.27-0.164h14.746l0.042-1.738c0.171-0.531,0.39-1.046,0.652-1.537c0.291-0.536,0.512-1.107,0.655-1.7
				C50.81,2.83,51,2.64,51.24,2.545c0.16-0.078,0.324-0.145,0.493-0.2c0-0.245,0.027-0.489,0.081-0.727
				c0.028-0.291,0.096-0.576,0.2-0.848c0.175-0.374,0.503-0.655,0.899-0.77c0.281-0.002,0.533,0.175,0.627,0.44
				c0.068,0.226,0.123,0.456,0.164,0.689c0.059,0.402,0.059,0.811,0,1.212c-0.045,0.005-0.086,0.02-0.123,0.042
				c-0.064,0.079-0.096,0.181-0.084,0.283v0.887h11.628l1.476-0.848c0.272,0,0.411-0.092,0.411-0.282V1.777h-0.247V0.768l0.205-0.2
				l0.45-0.282l0.943-0.09c0.086,0.033,0.146,0.109,0.161,0.2c0.029,0.12,0.046,0.242,0.043,0.365v1.785l0.163,0.6
				c0.055,0.22,0.151,0.427,0.286,0.608c0.369,0.031,0.739,0.031,1.106,0c1.64,1.753,2.498,2.67,2.58,2.751
				c0.183,0.215,0.283,0.486,0.287,0.767v4.368h5.611l0.245,0.242c0.219,0.337,0.319,0.736,0.289,1.136
				C79.182,13.492,79.095,13.967,78.891,14.396z"/>
		</defs>
		<clipPath id="SVGID_2_">
			<use xlink:href="#SVGID_1_"  overflow="visible"/>
		</clipPath>
		<g clip-path="url(#SVGID_2_)">
			<g>
				<g>
					<g>
						<g>
							<g>
								<g>
									<path fill="#033500" d="M36.279,50.07c-0.508,0-1.016,0-1.523,0c-0.962-0.195-1.925-0.396-3.081-0.629
										c-0.092,0.104-0.316,0.365-0.541,0.629c-4.574,0-9.147,0-13.721,0c-0.277-0.461-0.643-0.896-0.798-1.396
										c-0.098-0.313,0.119-0.728,0.195-1.094c0.338,0.08,0.689,0.127,1.01,0.254c0.158,0.063,0.259,0.271,0.386,0.412
										c0.571,0.633,0.943,0.422,1.261-0.295c-0.311-0.224-0.584-0.416-1.002-0.718c1.415-0.545,1.932-1.512,1.884-2.938
										c-0.012-0.35,0.739-0.859,1.234-1.053c0.57-0.223,1.256-0.123,1.872-0.258c0.819-0.178,1.796-0.027,2.474-1.103
										c-0.479-0.159-0.853-0.353-1.246-0.405c-0.562-0.086-1.154,0-1.7-0.131c-0.363-0.089-0.958-0.449-0.942-0.646
										c0.04-0.476,0.255-1.146,0.616-1.345c1.44-0.78,3.218-0.51,4.385,0.095c1.223,0.633,2.229,0.672,3.375,0.469
										c2.883-0.508,5.544-0.301,7.77,1.896c0.438,0.437,1.043,0.729,1.619,0.979c1.744,0.752,3.928,0.147,5.049-1.34
										c0.693-0.918,0.391-1.806-0.635-2.197c-0.687-0.266-1.623-0.59-1.864-1.146c-0.403-0.924-0.923-1.155-1.8-1.141
										c-1.238,0.021-2.081-0.734-2.223-1.992c-0.083-0.731-0.17-1.485-0.078-2.207c0.042-0.338,0.459-0.688,0.788-0.912
										c0.769-0.524,1.607-0.946,2.382-1.463c1.347-0.899,2.66-1.785,4.336-0.682c0.249,0.164,0.691,0.152,1.007,0.07
										c1.209-0.307,2.402-0.676,3.702-1.051c-0.229-0.479-0.494-1.025-0.772-1.609c-0.296,0-0.58,0-0.863,0
										c0.244-0.264,0.52-0.395,0.781-0.373c0.983,0.094,1.963,0.271,2.947,0.35c0.855,0.068,1.393-0.418,1.557-1.229
										s-0.139-1.512-0.946-1.754c-1.313-0.391-2.097-1.635-3.601-1.877c-0.947-0.152-1.613-0.438-2.252,0.479
										c-0.468-0.502-0.553-0.957,0-1.309c0.239-0.152,0.608-0.131,0.918-0.133c1.082-0.008,2.205,0.279,2.976-0.92
										c0.188-0.293,0.862-0.289,1.319-0.389c0.364-0.082,0.774-0.043,1.102-0.195c0.313-0.146,0.539-0.471,0.805-0.719
										c-0.342-0.146-0.688-0.404-1.029-0.4c-0.563,0.004-1.117,0.207-1.684,0.277c-0.745,0.094-1.334-0.273-1.387-0.973
										c-0.029-0.41,0.346-0.985,0.709-1.251c0.367-0.27,0.941-0.283,1.432-0.35c0.688-0.092,1.387-0.084,2.066-0.197
										c0.635-0.109,0.566-0.539,0.223-0.895c-0.205-0.211-0.545-0.428-0.814-0.416c-1.453,0.066-2.912,0.131-4.346,0.352
										c-0.502,0.078-1.09,0.494-1.371,0.928c-0.66,1.014-1.579,1.431-2.675,1.786c-0.573,0.186-1.188,0.777-1.427,1.342
										c-0.369,0.868-0.901,1.258-1.777,1.272c-0.857,0.019-1.717-0.041-2.569,0.021c-0.284,0.021-0.548,0.313-0.821,0.479
										c0.208,0.188,0.444,0.35,0.62,0.563c0.298,0.358,0.559,0.75,0.835,1.129c-0.34,0.231-0.654,0.553-1.031,0.668
										c-0.299,0.09-0.678-0.051-1.014-0.121c-0.779-0.168-1.541-0.656-2.35-0.037c-0.107,0.084-0.397-0.08-0.605-0.117
										c-0.259-0.045-0.521-0.08-0.782-0.113c-0.611-0.076-1.22-0.186-1.833-0.215c-0.739-0.037-1.92-0.287-2.14,0.055
										c-0.631,0.979-2.167,1.172-2.196,2.641c-0.009,0.505-0.302,1.002-0.514,1.654c-0.221-0.293-0.39-0.516-0.566-0.748
										c-1.682,0.283-3.585-0.338-4.983,1.144c0.414,1.389,1.444,1.379,2.535,1.297c3.097-0.229,6.195-0.39,9.275,0.199
										c0.295,0.057,0.812,0.131,0.828,0.25c0.042,0.319-0.129,0.665-0.223,1.032c-1.355-0.399-2.422-0.149-3.43,0.638
										c-0.36,0.282-0.922,0.396-1.402,0.426c-1.284,0.093-1.357,0.151-1.014,1.521c0.912,0.119,1.868,0.207,2.803,0.397
										c0.162,0.033,0.386,0.552,0.321,0.767c-0.388,1.299-1.201,2.201-2.594,2.477c-0.769,0.152-1.635,0.15-2.28,0.525
										c-1.235,0.713-2.398,0.934-3.748,0.399c-0.56-0.226-1.377-0.476-1.802-0.231c-1.397,0.797-2.364,0.274-3.409-0.623
										c-0.759-0.654-1.69-0.963-2.782-0.574c0.142,0.297,0.245,0.559,0.386,0.797c0.936,1.58,1.397,3.309,1.64,5.111
										c0.197,1.465-0.619,2.27-2.069,1.981c-0.492-0.096-0.987-0.223-1.452-0.409c-0.53-0.213-0.993-0.353-1.438,0.168
										c-0.445,0.52-0.271,0.981,0.04,1.467c0.418,0.66,0.351,1.141-0.516,1.289c0-5.398,0-10.795,0-16.195
										c0.274,0.041,0.631-0.014,0.804,0.141c0.492,0.439,0.927,0.945,1.35,1.455c0.609,0.732,1.355,0.859,2.105,0.363
										c1.206-0.795,2.343-0.602,3.601-0.117c1.011,0.391,2.11,0.611,3.19,0.736c0.821,0.096,1.543-0.6,1.405-1.195
										c-0.212-0.902-0.962-0.588-1.483-0.475c-0.783,0.172-1.433-0.014-1.876-0.592c-0.827-1.076-1.821-1.191-3.026-0.82
										c-0.822,0.256-1.12-0.061-0.977-0.914c0.034-0.199,0.095-0.395,0.194-0.793c-1.685,0.5-2.708-0.389-3.247-1.607
										c-0.453-1.018-1.022-1.393-2.039-1.322c0-1.332,0-2.666,0-4c0.447-0.477,1.054-0.875,0.783-1.733
										c-0.252-0.058-0.518-0.115-0.783-0.173c0-0.76,0-1.524,0-2.286c1.08,0.322,2.161,0.643,3.242,0.965
										c1.556-1.304,2.943-0.737,4.289,0.379c0.088,0.07,0.243,0.059,0.362,0.102c0.737,0.261,0.597,0.875,0.396,1.34
										c-0.194,0.445-0.606,0.576-1.09,0.185c-0.63-0.51-1.324-0.514-2.021-0.063c-1.29,0.834-2.59,1.654-3.941,2.517
										c0.567,0.942,1.036,1.728,1.57,2.617c1.476-1.459,3.063-2.496,5.147-1.099c-0.184-0.313-0.368-0.621-0.626-1.059
										c1.23-0.406,2.372-0.881,3.56-1.148c1.167-0.268,2.378-0.35,3.575-0.461c0.332-0.031,0.68,0.123,1.023,0.187
										c0.229,0.043,0.46,0.073,0.749,0.119c0.007-0.941-0.662-1.144-1.203-1.503c-0.589-0.395-1.149-0.854-1.643-1.358
										c-0.857-0.876-1.644-1.828-2.488-2.721c-0.158-0.168-0.468-0.318-0.678-0.285c-1.035,0.16-1.788-0.199-2.25-1.209
										c-0.531,1.108-0.757,1.168-1.789,0.585c-1.329-0.752-1.544-0.721-2.601,0.393c-0.196,0.207-0.453,0.373-0.593,0.611
										c-0.429,0.732-0.872,0.981-1.644,0.367c-0.343-0.271-0.893-0.283-1.349-0.412c0-3.621,0-7.242,0-10.863
										c0.145,0,0.29,0,0.436,0c1.026-0.648,2.055-1.034,3.216-0.26c0.188,0.127,0.555-0.043,0.834-0.021
										c0.893,0.075,1.831,0.036,2.662,0.311c0.686,0.227,1.166,0.254,1.689-0.228c0.68-0.625,1.227-0.443,1.884,0.166
										c0.768,0.711,1.694,1.248,2.552,1.861c0.084-0.043,0.167-0.084,0.251-0.127c-0.42-1.682,1.833-2.363,1.419-4.178
										c-0.26,0.286-0.438,0.482-0.775,0.855c0.225-0.536,0.354-0.846,0.5-1.19c-0.231-0.163-0.429-0.313-0.637-0.448
										c-1.327-0.854-2.519-1.785-2.664-3.558c-0.019-0.231-0.547-0.481-0.883-0.612c-0.634-0.246-1.341-0.332-1.934-0.645
										c-0.275-0.145-0.51-0.679-0.475-1.006c0.029-0.26,0.483-0.651,0.771-0.671c0.743-0.051,1.497,0.063,2.246,0.125
										c0.716,0.063,1.44,0.253,2.142,0.185c0.696-0.067,1.084-0.688,0.822-1.323c-0.128-0.311-0.77-0.555-1.188-0.568
										c-0.68-0.021-1.366,0.229-2.052,0.252c-0.754,0.026-1.068-0.483-0.832-1.195c0.364-1.102,1.398-1.656,2.675-1.394
										c0.854,0.175,1.696,0.407,2.474,0.597c-0.117,0.303-0.231,0.599-0.344,0.894c0.314,0.102,0.624,0.267,0.945,0.29
										c0.503,0.038,1.039,0.077,1.516-0.054c2.401-0.655,4.633-0.165,6.833,0.832c1.837,0.832,3.785,1.38,5.803,1.265
										c0.995-0.057,1.989-0.526,2.929-0.934c0.265-0.115,0.479-0.688,0.446-1.025c-0.022-0.247-0.484-0.455-0.752-0.678
										c-0.707-0.594-1.51-1.106-2.088-1.805c-0.471-0.568-0.79-0.759-1.327-0.268c0.12,0.234,0.26,0.443,0.318,0.674
										c0.012,0.048-0.27,0.193-0.43,0.259c-0.337,0.139-0.737,0.185-1.016,0.395c-0.644,0.482-1.296,0.47-1.954,0.139
										c-0.848-0.425-1.673-0.894-2.494-1.367c-0.987-0.571-1.044-1.006-0.299-1.836c0.16-0.178,0.263-0.408,0.404-0.631
										c0.622,0.923,1.497,0.918,2.058,0.009c0.358-0.582,0.679-0.997,1.508-0.667c0.335,0.134,1.087-0.065,1.254-0.348
										c0.604-1.024,1.446-1.246,2.544-1.254c1.125-0.007,2.093,0.705,2.382,1.789c0.125,0.479,0.524,1.011,0.951,1.26
										c1.154,0.67,1.188,0.616,0.553,1.909c0.431,0.062,0.831,0.107,1.228,0.177c0.992,0.175,2.051,0.197,2.955,0.584
										c1.07,0.458,1.973,0.448,2.98-0.063c1.096-0.555,2.248-0.997,3.357-1.524c0.711-0.336,1.446-0.663,2.067-1.133
										c0.828-0.628,1.013-1.613,0.58-2.267c0.385-0.178,0.771-0.358,1.156-0.539c-0.391-0.766-0.84-0.685-1.25-0.254
										c-0.166-0.263-0.273-0.624-0.428-0.644c-0.879-0.114-0.75-0.679-0.641-1.26c6.396,0,12.795,0,19.244,0
										c0,4.192,0,8.384,0,12.577c-0.148,0.025-0.33,0.007-0.447,0.083c-0.336,0.216-0.646,0.472-0.969,0.711
										c0.268,0.177,0.522,0.374,0.803,0.524c0.188,0.102,0.41,0.141,0.613,0.207c0,1.715,0,3.43,0,5.146
										c-0.563,0.024-1.138,0.003-1.693,0.086c-0.926,0.14-1.854,0.302-2.754,0.552c-0.248,0.068-0.574,0.492-0.557,0.73
										c0.02,0.246,0.375,0.533,0.646,0.68c0.264,0.139,0.608,0.176,0.916,0.156c1.147-0.078,2.297-0.195,3.438-0.301
										c0,4.701,0,9.402,0,14.104c-0.588-0.175-1.188-0.313-1.768-0.522c-0.529-0.194-1.006-0.559-1.545-0.678
										c-1.086-0.24-2.205-0.344-3.301-0.553c-0.269-0.051-0.502-0.289-0.75-0.441c0.156-0.247,0.25-0.602,0.471-0.717
										c1.045-0.559,2.109-0.477,3.197,0.09c0.356-0.66,0.707-1.311,1.16-2.146c-0.968-0.076-1.744-0.121-2.519-0.203
										c-0.446-0.047-0.926-0.08-1.334-0.254c-1.071-0.464-1.167-0.45-1.667,0.86c-0.781-0.414-1.557-0.783-2.287-1.223
										c-0.723-0.436-1.4-0.941-1.984-1.338c-0.063,0.479,0,1.012-0.229,1.336c-0.146,0.209-0.727,0.148-1.107,0.146
										c-0.17-0.002-0.334-0.176-0.512-0.24c-0.926-0.336-1.854-0.662-2.783-0.99c-0.065,0.133-0.133,0.266-0.195,0.398
										c0.41,0.303,0.814,0.617,1.234,0.91c0.725,0.504,1.582,0.887,2.152,1.525c0.594,0.662,0.906,1.582,2.088,1.477
										c-0.471,0.135-0.916,0.182-1.246,0.012c-1.148-0.596-2.244-1.291-3.393-1.889c-0.297-0.152-0.721-0.16-1.059-0.092
										c-0.58,0.117-0.671-0.094-0.601-0.602c0.104-0.756-0.297-0.756-0.896-0.527c0.479,0.705,0.246,1.053-0.5,1.191
										c-0.496,0.094-1.037,0.164-1.453,0.414c-0.353,0.211-0.835,0.746-0.767,1.004c0.201,0.743,0.496,1.589,1.039,2.077
										c0.729,0.654,0.646,1.121,0.134,1.746l0.022-0.021c-0.545,0.68-1.246,0.885-2.105,0.819
										c-0.303-0.022-0.627,0.281-0.943,0.435c0.271,0.271,0.494,0.653,0.818,0.776c0.396,0.148,0.875,0.109,1.314,0.095
										c1.383-0.048,2.475,0.614,3.649,1.379c-0.906,0.771-1.729,1.47-2.545,2.166c0.06,0.08,0.111,0.16,0.168,0.239
										c1.334-0.106,2.328,0.605,3.232,1.402c1.387,1.215,2.924,1.787,4.781,1.676c0.641-0.037,1.336,0.246,1.945,0.523
										c0.858,0.391,2.674,0.027,3.325-0.643c0.343-0.35,0.88-0.568,1.369-0.707c0.513-0.141,1.078-0.063,1.604-0.164
										c1.334-0.25,1.692-0.824,1.598-2.193c-0.023-0.354,0.189-1,0.4-1.051c1.186-0.283,1.396-1.148,1.524-2.139
										c0.05-0.365,0.168-0.721,0.25-1.08c0,1.268,0,2.541,0,3.811c-0.937,0.189-1.506,0.752-1.703,1.689
										c-0.11,0.525-0.237,1.047-0.325,1.576c-0.188,1.141-0.478,2.219-1.449,2.981c-0.191,0.149-0.445,0.418-0.422,0.604
										c0.053,0.453,0.196,0.914,0.418,1.313c0.084,0.154,0.617,0.272,0.686,0.19c0.266-0.313,0.479-0.7,0.602-1.096
										c0.063-0.205-0.139-0.479-0.162-0.725c-0.109-1.063,0.23-1.418,1.311-1.488c0.357-0.023,0.701-0.184,1.053-0.281
										c0,5.465,0,10.929,0,16.39c-1,0.254-1.266-0.563-1.713-1.154c-0.252-0.331-0.637-0.899-0.867-0.854
										c-0.967,0.174-1.899,0.527-2.828,0.861c-0.123,0.045-0.146,0.356-0.213,0.539c0.441,0.09,0.814,0.139,1.168,0.254
										c0.73,0.235,1.385,0.809,1.058,1.516c-0.4,0.855-0.14,1.646-0.22,2.463c-5.147,0-10.291,0-15.438,0
										c0.651-0.342,1.274-0.887,1.963-0.986c1.431-0.207,2.896-0.199,4.343-0.238c1.323-0.035,2.348-0.668,3.569-1.608
										c-1.308,0.116-2.146-0.041-2.205-1.345c-0.01-0.198-0.42-0.45-0.688-0.551c-0.469-0.17-0.976-0.326-1.467-0.338
										c-0.627-0.018-0.66-0.352-0.604-0.811c0.084-0.695,0.606-0.881,1.166-0.854c0.973,0.053,1.957,0.127,2.907,0.313
										c2.082,0.412,3.197-0.162,3.566-2.074c-0.563-0.137-1.137-0.266-1.705-0.408c-0.426-0.104-0.906-0.137-1.252-0.367
										c-0.684-0.453-1.289-1.021-1.795-1.438c0.123-0.48,0.537-1.154,0.352-1.539c-0.336-0.699-1.063-0.393-1.678-0.125
										c0.178,0.391,0.336,0.738,0.607,1.344c-0.627-0.1-1.053-0.07-1.379-0.234c-1.105-0.561-1.094-0.584-1.563,0.632
										c-0.71,1.825-1.47,2.346-3.345,2.313c-0.824-0.01-1.649-0.033-2.478,0.01c-0.563,0.027-1.134,0.104-1.669,0.263
										c-0.918,0.278-1.104,0.932-0.562,1.729c0.179,0.254,0.353,0.512,0.617,0.896c-0.854,0.196-1.584,0.416-2.328,0.526
										c-0.791,0.117-1.313,0.361-1.226,1.313c0.072,0.748-0.41,0.963-1.086,0.97c-0.766,0.014-0.94-0.429-0.83-1.041
										c0.093-0.515,0.297-1.007,0.437-1.509c0.136-0.496,0.248-0.996,0.435-1.733c-0.566,0.223-0.808,0.291-1.021,0.41
										c-1.272,0.709-2.569,1.127-4.083,0.827c-1.021-0.198-1.38,0.33-1.106,1.359c0.058,0.217,0.113,0.434,0.205,0.635
										c0.375,0.826,0.037,1.283-0.775,1.438c-0.395,0.076-0.809,0.037-1.215,0.059c-0.868,0.041-1.735,0.104-2.604,0.125
										c-0.347,0.006-0.695-0.09-1.042-0.139c-0.506,0.07-1.451,0.322-1.476,0.646C38.037,49.82,37.038,49.75,36.279,50.07z
										 M51.72,2.516c-0.507-0.013-1.013-0.015-1.519-0.039c-1.125-0.052-2.172,0.039-2.435,1.039
										c-0.734,0.209-1.301,0.231-1.688,0.507c-0.97,0.688-1.979,0.949-3.136,0.705c-0.494-0.104-0.998-0.163-1.499-0.225
										c-2.19-0.269-4.439-0.16-6.527-1.094C34.572,3.255,34.044,3.251,33.7,3.4c-1.118,0.485-2.135,0.151-3.194-0.166
										C30,3.083,29.568,3.191,29.315,3.829c-0.238,0.6-0.706,1.104-1.054,1.664c-0.351,0.563-0.678,1.141-0.965,1.625
										c1.021,0.123,1.914,0.184,2.786,0.352c0.915,0.176,1.805,0.469,2.711,0.689c0.487,0.119,1.021,0.119,1.464,0.32
										c0.286,0.131,0.643,0.561,0.61,0.809c-0.033,0.26-0.462,0.584-0.775,0.668c-0.445,0.121-0.942,0.053-1.417,0.061
										c-1.293,0.018-1.536,0.359-0.964,1.611c-1.077,0.229-2.122,0.451-3.167,0.672c0.012,0.146,0.023,0.293,0.035,0.439
										c0.689,0.102,1.377,0.203,2.148,0.316c0,0.447,0,0.898,0,1.457c1.685-0.359,2.899,0.451,4.072,1.357
										c1.288,0.993,2.804,1.208,4.359,1.44c2.12,0.313,3.654-1.241,5.563-1.573c0.501-0.086,0.439-0.631,0.047-0.861
										c-0.29-0.17-0.738-0.236-1.063-0.152c-0.887,0.23-1.73,0.631-2.621,0.83c-0.349,0.078-0.818-0.139-1.154-0.35
										c-0.167-0.105-0.301-0.623-0.204-0.73c0.246-0.27,0.627-0.42,0.963-0.602c0.074-0.041,0.2,0.02,0.28-0.016
										c0.242-0.105,0.632-0.201,0.67-0.367c0.045-0.203-0.144-0.572-0.34-0.695c-0.529-0.332-1.103-0.604-1.684-0.834
										c-0.556-0.223-1.21-0.262-1.695-0.572c-0.384-0.248-0.892-0.92-0.786-1.172c0.167-0.404,0.825-0.898,1.224-0.855
										c0.917,0.094,1.833,0.414,2.692,0.781c0.869,0.371,1.632,0.992,2.504,1.35c2.479,1.021,4.796,0.662,6.135-1.666
										c0.424-0.736,0.879-0.9,1.582-0.779c0.362,0.063,0.708,0.219,1.069,0.287c0.45,0.086,1.034,0.332,1.35,0.146
										c1.017-0.594,2.104-0.301,3.139-0.48c0.754-0.129,1.463-0.514,2.191-0.785c-0.037-0.125-0.074-0.25-0.111-0.375
										c-0.668-0.248-1.242,1.307-1.852,0.395c0.9-0.656,1.777-1.289,2.643-1.934c0.416-0.309,0.726-0.447,1.037,0.176
										c0.148,0.293,0.557,0.553,0.896,0.643c1.551,0.408,3.082,0.701,4.182,2.137c0.687,0.893,1.877,1.139,3.025,0.977
										c1-0.141,1.979-0.436,2.979-0.572c0.795-0.107,0.555-0.744,0.654-1.172c0.021-0.092-0.479-0.426-0.754-0.447
										c-0.789-0.064-1.588,0.004-2.383-0.033c-1.992-0.094-2.771-1.459-1.84-3.191c0.123-0.23,0.229-0.471,0.379-0.766
										c-1.795-0.19-3.836,0.604-4.65-1.705c-0.336,0-0.615,0-0.912,0c-0.229,0.805-0.461,1.609-0.689,2.416
										c-0.366,1.293-1.565,0.43-2.271,0.865c-0.146,0.09-0.383,0.086-0.562,0.041c-0.356-0.092-0.825-0.137-1.026-0.381
										c-0.76-0.929-1.617-1.064-2.703-0.662c-0.543,0.199-1.42-0.597-1.135-0.887c0.955-0.97,0.83-1.952,0.338-3.031
										c-0.037-0.082,0.025-0.207,0.055-0.39c-0.402,0.033-0.844-0.063-0.996,0.104c-0.592,0.653-1.092,1.392-1.625,2.098
										L51.72,2.516z M57.64-5.963c-0.682,0.318-1.138,0.673-1.625,0.724c-0.731,0.075-1.267,0.238-1.24,1.075
										c0.027,0.798,0.287,1.363,1.261,1.466c0.43,0.046,1.136,0.504,1.157,0.816c0.057,0.758,0.395,1.201,0.908,1.67
										c0.801,0.733,0.748,1.092-0.121,1.713c0.863,0.486,1.799,0.605,2.797,0.184c1.779-0.754,3.553-1.047,5.434-0.354
										c0.349,0.127,1.086,0.026,1.203-0.199c0.754-1.441,1.929-1.86,3.47-1.901c1.077-0.028,2.139-0.46,3.223-0.592
										c0.9-0.109,1.117-0.349,1.013-1.276c-0.035-0.313,0.188-0.687,0.379-0.982c0.133-0.21,0.396-0.336,0.924-0.75
										c-2.229-0.091-3.219-1.008-2.73-3.094c-0.506-0.036-0.91-0.009-1.281-0.109c-0.391-0.107-0.961-0.252-1.072-0.531
										c-0.276-0.722-0.797-0.668-1.375-0.731c-0.741-0.081-1.477-0.269-2.301-0.428c-0.606,0.425-1.408,0.982-2.205,1.546
										c-0.592,0.42-1.194,0.829-1.756,1.29c-0.164,0.136-0.33,0.506-0.26,0.643c0.107,0.203,0.424,0.403,0.656,0.414
										c0.596,0.026,1.225,0.037,1.795-0.109c1.627-0.415,3.135-0.101,4.564,0.666c0.285,0.152,0.631,0.584,0.596,0.835
										c-0.043,0.281-0.451,0.594-0.768,0.723c-0.363,0.151-0.808,0.16-1.213,0.153c-1.283-0.019-2.259,0.415-2.884,1.619
										c-0.192,0.376-0.644,0.747-1.047,0.868c-1.472,0.438-2.983,0.576-4.479,0.105c-0.271-0.086-0.606-0.527-0.604-0.802
										c0.012-1.422,0.049-1.438-1.34-1.812c-0.767-0.205-1.109-0.668-1.078-1.449C57.655-5.031,57.64-5.489,57.64-5.963z
										 M58.634,34.59c-1.094,0.328-2.224,0.656-3.349,1.006c-0.391,0.125-0.776,0.277-1.137,0.473
										c-1.191,0.664-1.395,0.673-2.201-0.409c-0.52-0.693-1.145-0.955-1.971-0.859c-0.406,0.046-0.82,0.062-1.23,0.104
										c-0.748,0.08-1.336-0.143-1.569-0.904c-0.247-0.801,0.074-1.393,0.848-1.656c0.716-0.242,1.451-0.443,2.195-0.561
										c1.594-0.244,3.206-0.387,4.795-0.65c0.471-0.078,1.056-0.338,0.844-1.023c-0.211-0.692-0.771-0.457-1.272-0.387
										c-1.051,0.148-2.105,0.254-3.159,0.391c-0.14,0.021-0.267,0.125-0.402,0.181c-0.446,0.188-0.885,0.483-1.348,0.533
										c-0.874,0.088-1.765,0.014-2.646,0.041c-1.916,0.053-2.422,0.582-2.722,1.832c0.204,0.082,0.422,0.139,0.61,0.245
										c0.3,0.168,0.851,0.438,0.823,0.539c-0.104,0.388-0.354,0.763-0.632,1.07c-0.201,0.228-0.559,0.307-0.789,0.514
										c-0.275,0.252-0.49,0.568-0.855,1.009c0.537,0.096,0.808,0.176,1.08,0.187c1.588,0.057,2.792,0.77,3.838,1.963
										c1.09,1.244,2.293,1.459,3.631,0.483c1.539-1.114,3.188-1.373,5.004-1.438c1.102-0.041,2.188-0.455,3.281-0.699
										c-0.018-0.115-0.031-0.227-0.047-0.344c-0.469-0.121-1.09-0.107-1.365-0.408C58.614,35.516,58.685,34.9,58.634,34.59z
										 M49.052-1.552c-0.095-0.026-0.293-0.112-0.499-0.134c-1.976-0.204-3.955-0.385-5.931-0.598
										c-0.874-0.094-1.737-0.291-2.612-0.362c-1.115-0.091-2.167,0.135-2.887,1.085c-0.594,0.786-0.159,1.756,0.794,1.799
										c0.215,0.01,0.487-0.346,0.652-0.292c0.764,0.249,1.595,0.457,2.225,0.92c0.993,0.729,1.928,0.661,2.925,0.183
										C45.499,0.196,47.267-0.68,49.052-1.552z M74.007,43.279c1.109-1.779,1.115-2.172-0.072-3.449
										c-0.236-0.26-0.793-0.549-0.984-0.439c-0.313,0.176-0.59,0.66-0.621,1.033C72.218,41.699,72.958,42.545,74.007,43.279z
										 M28.254,33.18c-0.916,0-1.785-0.02-2.649,0.018c-0.16,0.009-0.423,0.24-0.432,0.384c-0.01,0.146,0.21,0.412,0.371,0.444
										c0.841,0.189,1.696,0.324,2.607,0.486C28.191,33.986,28.221,33.625,28.254,33.18z M66.394-12.945
										c0.305,0.132,0.637,0.373,0.99,0.41c0.533,0.055,1.104,0.043,1.611-0.099c0.176-0.05,0.221-0.571,0.326-0.877
										c-0.314-0.049-0.658-0.198-0.943-0.126C67.718-13.469,67.083-13.194,66.394-12.945z M59.247,33.688
										c0.184,0.609,0.274,1.181,0.535,1.658c0.139,0.26,0.655,0.564,0.844,0.484c0.453-0.197,0.387-1.646-0.025-2.174
										C60.124,33.051,59.681,33.354,59.247,33.688z M19.434,27.234c-0.72-0.16-1.221-0.269-1.855-0.41
										C18.104,28.088,18.309,28.141,19.434,27.234z"/>
									<path fill="#EADA7F" d="M12.078,46.447c0.866-0.15,0.934-0.629,0.516-1.289c-0.311-0.484-0.485-0.949-0.04-1.467
										c0.445-0.521,0.908-0.381,1.438-0.168c0.464,0.188,0.959,0.313,1.452,0.408c1.45,0.286,2.266-0.519,2.069-1.98
										c-0.242-1.805-0.704-3.531-1.64-5.111c-0.142-0.24-0.244-0.502-0.386-0.799c1.091-0.389,2.022-0.08,2.782,0.576
										c1.045,0.896,2.012,1.42,3.409,0.623c0.425-0.242,1.243,0.008,1.802,0.23c1.35,0.532,2.513,0.313,3.748-0.4
										c0.645-0.375,1.511-0.373,2.28-0.523c1.393-0.275,2.206-1.178,2.594-2.479c0.064-0.215-0.159-0.732-0.321-0.766
										c-0.935-0.191-1.892-0.279-2.803-0.398c-0.343-1.367-0.27-1.426,1.014-1.521c0.48-0.03,1.042-0.141,1.402-0.424
										c1.008-0.789,2.075-1.037,3.43-0.64c0.094-0.364,0.265-0.713,0.223-1.032c-0.016-0.119-0.533-0.188-0.828-0.248
										c-3.08-0.588-6.178-0.433-9.275-0.199c-1.091,0.082-2.122,0.093-2.535-1.297c1.398-1.481,3.302-0.858,4.983-1.144
										c0.176,0.232,0.345,0.453,0.566,0.746c0.212-0.651,0.505-1.147,0.514-1.651c0.029-1.47,1.564-1.662,2.196-2.642
										c0.22-0.342,1.401-0.092,2.14-0.057c0.613,0.029,1.223,0.141,1.833,0.217c0.261,0.031,0.523,0.066,0.782,0.113
										c0.208,0.035,0.498,0.199,0.605,0.115c0.81-0.619,1.571-0.129,2.35,0.037c0.336,0.07,0.715,0.213,1.014,0.121
										c0.377-0.115,0.691-0.437,1.031-0.668c-0.276-0.377-0.537-0.769-0.835-1.129c-0.176-0.211-0.412-0.375-0.62-0.562
										c0.273-0.168,0.537-0.459,0.821-0.479c0.853-0.063,1.712-0.006,2.569-0.021c0.876-0.017,1.408-0.403,1.777-1.274
										c0.237-0.563,0.854-1.157,1.427-1.342c1.094-0.354,2.017-0.772,2.674-1.786c0.282-0.434,0.87-0.85,1.371-0.928
										c1.437-0.219,2.896-0.285,4.349-0.35c0.268-0.012,0.608,0.203,0.813,0.416c0.345,0.354,0.412,0.785-0.224,0.893
										c-0.682,0.115-1.379,0.105-2.065,0.199c-0.489,0.064-1.065,0.08-1.435,0.35c-0.362,0.266-0.737,0.841-0.706,1.251
										c0.051,0.699,0.641,1.066,1.385,0.972c0.565-0.072,1.123-0.273,1.687-0.277c0.342-0.004,0.686,0.256,1.026,0.4
										c-0.264,0.246-0.491,0.572-0.805,0.717c-0.324,0.154-0.736,0.113-1.101,0.195c-0.457,0.102-1.129,0.098-1.318,0.389
										c-0.771,1.199-1.896,0.914-2.975,0.92c-0.312,0.002-0.681-0.018-0.918,0.133c-0.555,0.352-0.47,0.807,0,1.309
										c0.639-0.914,1.303-0.629,2.252-0.477c1.504,0.24,2.287,1.486,3.6,1.877c0.809,0.242,1.109,0.943,0.947,1.752
										c-0.166,0.811-0.701,1.299-1.558,1.23c-0.983-0.078-1.963-0.256-2.948-0.35c-0.264-0.023-0.539,0.106-0.783,0.372
										c0.285,0,0.57,0,0.863,0c0.281,0.582,0.545,1.134,0.773,1.607c-1.299,0.375-2.492,0.745-3.701,1.053
										c-0.315,0.082-0.759,0.095-1.007-0.069c-1.677-1.104-2.989-0.22-4.336,0.682c-0.774,0.514-1.613,0.938-2.382,1.461
										c-0.329,0.223-0.746,0.576-0.788,0.914c-0.093,0.719-0.005,1.475,0.078,2.207c0.142,1.258,0.984,2.014,2.223,1.992
										c0.877-0.019,1.397,0.217,1.8,1.141c0.241,0.555,1.177,0.879,1.864,1.143c1.024,0.396,1.327,1.281,0.635,2.199
										c-1.121,1.488-3.305,2.092-5.049,1.34c-0.576-0.25-1.181-0.547-1.619-0.98c-2.226-2.196-4.887-2.401-7.77-1.895
										c-1.146,0.203-2.152,0.164-3.375-0.469c-1.167-0.604-2.945-0.877-4.385-0.094c-0.361,0.197-0.576,0.869-0.616,1.342
										c-0.016,0.195,0.579,0.559,0.942,0.645c0.546,0.131,1.139,0.045,1.7,0.131c0.394,0.06,0.768,0.246,1.246,0.408
										c-0.678,1.072-1.654,0.922-2.474,1.101c-0.616,0.137-1.302,0.034-1.872,0.258c-0.495,0.19-1.246,0.705-1.234,1.056
										c0.047,1.426-0.469,2.393-1.884,2.938c0.418,0.299,0.691,0.492,1.002,0.715c-0.317,0.717-0.689,0.928-1.261,0.295
										c-0.127-0.143-0.228-0.35-0.386-0.412c-0.32-0.127-0.672-0.174-1.01-0.254c-0.076,0.367-0.292,0.777-0.195,1.094
										c0.155,0.5,0.521,0.934,0.798,1.396c-1.779,0-3.558,0-5.336,0C12.078,48.863,12.078,47.656,12.078,46.447z M43.016,22.721
										c-0.969,0.389-1.766,0.707-2.677,1.074C41.604,24.441,42.582,24.09,43.016,22.721z M35.902,36.729
										c-0.262-0.233-0.507-0.641-0.769-0.651c-0.402-0.017-0.843,0.194-1.202,0.411c-0.077,0.048,0.081,0.779,0.208,0.806
										C34.763,37.414,35.459,37.559,35.902,36.729z M27.32,39.162c0.884-0.398,1.426-0.645,1.968-0.891
										c-0.03-0.14-0.061-0.275-0.09-0.418c-0.597,0.051-1.203,0.063-1.78,0.192C27.324,38.07,27.356,38.646,27.32,39.162z"/>
									<path fill="#FFFFFF" d="M58.956-16.057c-0.109,0.581-0.238,1.146,0.641,1.26c0.152,0.021,0.26,0.381,0.426,0.644
										c0.412-0.431,0.861-0.512,1.25,0.254c-0.389,0.181-0.77,0.361-1.154,0.539c0.431,0.653,0.248,1.638-0.58,2.267
										c-0.621,0.47-1.356,0.797-2.067,1.133c-1.111,0.528-2.262,0.97-3.357,1.524c-1.008,0.511-1.91,0.521-2.98,0.063
										c-0.904-0.387-1.963-0.409-2.955-0.584c-0.396-0.07-0.795-0.116-1.228-0.177c0.634-1.293,0.603-1.239-0.553-1.909
										c-0.426-0.249-0.826-0.781-0.951-1.26c-0.289-1.083-1.257-1.796-2.382-1.789c-1.098,0.008-1.939,0.229-2.544,1.254
										c-0.167,0.282-0.919,0.482-1.254,0.348c-0.829-0.33-1.15,0.085-1.508,0.667c-0.561,0.91-1.436,0.914-2.058-0.009
										c-0.141,0.224-0.244,0.453-0.404,0.631c-0.745,0.831-0.688,1.266,0.299,1.836c0.821,0.473,1.646,0.942,2.494,1.367
										c0.658,0.331,1.31,0.343,1.954-0.139c0.279-0.209,0.679-0.255,1.016-0.394c0.16-0.066,0.442-0.211,0.43-0.259
										c-0.058-0.23-0.198-0.44-0.318-0.674c0.537-0.491,0.856-0.3,1.327,0.268c0.578,0.699,1.381,1.211,2.088,1.805
										c0.268,0.224,0.729,0.431,0.752,0.678c0.033,0.338-0.184,0.911-0.446,1.025c-0.94,0.408-1.934,0.877-2.929,0.934
										c-2.018,0.115-3.965-0.434-5.803-1.265c-2.2-0.997-4.432-1.487-6.833-0.832c-0.477,0.131-1.013,0.092-1.516,0.054
										c-0.321-0.023-0.63-0.188-0.945-0.29c0.113-0.295,0.228-0.591,0.344-0.894c-0.778-0.189-1.62-0.421-2.474-0.597
										c-1.277-0.263-2.312,0.292-2.675,1.394c-0.236,0.711,0.078,1.222,0.832,1.195c0.687-0.024,1.372-0.275,2.052-0.252
										c0.418,0.014,1.061,0.258,1.188,0.568c0.262,0.635-0.126,1.255-0.822,1.323c-0.701,0.068-1.426-0.123-2.142-0.185
										c-0.749-0.063-1.503-0.176-2.246-0.125c-0.287,0.021-0.742,0.411-0.771,0.671c-0.035,0.327,0.2,0.862,0.475,1.006
										c0.593,0.313,1.3,0.398,1.934,0.646c0.336,0.129,0.865,0.381,0.883,0.611c0.145,1.771,1.337,2.704,2.664,3.559
										c0.208,0.135,0.406,0.284,0.637,0.447c-0.146,0.346-0.275,0.655-0.5,1.189c0.338-0.372,0.516-0.568,0.775-0.855
										c0.414,1.814-1.839,2.498-1.419,4.18c-0.084,0.041-0.167,0.084-0.251,0.125c-0.858-0.613-1.784-1.15-2.552-1.861
										c-0.657-0.608-1.204-0.79-1.884-0.166c-0.523,0.483-1.003,0.457-1.689,0.231c-0.831-0.278-1.769-0.237-2.663-0.315
										c-0.278-0.021-0.646,0.149-0.834,0.022c-1.161-0.775-2.19-0.389-3.216,0.26c0.246-0.46,0.489-0.919,0.795-1.489
										c-0.311-0.105-0.771-0.262-1.23-0.415c0-0.636,0-1.271,0-1.906c1.02-0.017,2.089,0.06,2.375-1.339
										c0.372,0.166,0.684,0.413,1.002,0.42c0.399,0.01,0.803-0.175,1.205-0.275c-0.122-0.398-0.128-1.004-0.389-1.147
										c-0.483-0.262-1.111-0.28-1.684-0.346c-0.364-0.043-0.738,0.016-1.109,0.021C12.441-1.372,12.54-2.4,12.08-2.913
										c0-0.19,0-0.382,0-0.572c1.019,0.421,2.038,0.84,3.062,1.264c0.01-0.051-0.006-0.199,0.061-0.276
										c0.927-1.053,0.886-1.004-0.265-1.916c-0.54-0.428-0.88-1.108-1.397-1.79c1.067-0.228,1.83-0.389,2.59-0.551
										c-0.022-0.111-0.046-0.222-0.069-0.334c-0.822,0.059-1.646,0.117-2.467,0.175c-0.35-1.056-0.699-2.112-1.07-3.228
										c0.903,0,1.909,0.61,2.593-0.463c-0.321-0.402-0.785-0.74-0.902-1.173c-0.392-1.452-0.721-1.789-2.136-1.808
										c0-0.825,0-1.652,0-2.478c1.27,0,2.541,0,3.811,0c0.508,0.521,1.016,1.042,1.523,1.563
										c0.078-0.066,0.155-0.133,0.234-0.199c0.03-0.261,0.062-0.522,0.094-0.804c1.272,0.56,2.481,0.924,3.68,0
										c0.26,0.309,0.473,0.697,0.8,0.893c0.168,0.101,0.541-0.144,0.823-0.231c-0.009-0.106-0.018-0.213-0.027-0.319
										c-0.539-0.107-1.079-0.214-1.618-0.32c0.499-0.024,1.149-0.259,1.469-0.031c0.839,0.6,1.602,0.935,2.66,0.283
										c-0.154,0.474-0.349,0.911-0.646,0.997c-0.595,0.172-1.245,0.138-1.87,0.215c-0.49,0.06-0.976,0.16-1.463,0.242
										c0.021,0.094,0.044,0.188,0.066,0.281c1.757,0.277,3.468,0.332,4.779-1.254c0.746,1.263,1.767,1.687,3.032,1.647
										c-0.011,0.78,0.471,0.586,0.934,0.511c0.744-0.121,1.638-0.663,2.072,0.639c0.03-0.389-0.009-0.778-0.212-0.908
										c-0.977-0.621-0.618-1.967-1.479-2.642c-0.049-0.038,0.129-0.367,0.202-0.56c1.334,0,2.668,0,4.002,0
										c0.258,0.668,0.447,1.379,0.81,1.987c0.152,0.256,0.672,0.293,1.024,0.429c0.006-0.373,0.083-0.76,0.003-1.113
										c-0.102-0.449-0.329-0.87-0.503-1.303c1.081,0,2.161,0,3.24,0c0.632,0.967,1.083,0.967,1.715,0c3.621,0,7.242,0,10.863,0
										c0.084,0.833-0.525,0.895-1.098,0.954c-0.879,0.09-1.769,0.117-2.646,0.218c-0.798,0.093-1.448,0.863-1.315,1.585
										c0.137,0.748,0.484,1.23,1.419,1.069c0.98-0.171,1.843,0.215,2.627,0.838c1.164,0.923,1.923,0.934,3.048-0.03
										c0.87-0.746,1.772-1.007,2.889-0.718c0.951,0.245,1.762,0.009,2.186-0.92c-1.489-1.444-3.292-1.737-5.268-1.445
										c-0.233,0.035-0.506-0.161-0.76-0.25c0.567-0.296,1.104-0.333,1.612-0.479c0.83-0.237,1.638-0.545,2.456-0.824
										C57.812-16.057,58.384-16.057,58.956-16.057z M32.933-9.972c-1.775,0.048-3.104,0.877-4.44,1.688
										C30.035-8.513,31.779-8.157,32.933-9.972z M25.499-12.937c0.033,0.108,0.067,0.215,0.101,0.323
										c0.631,0.195,1.208,0.264,1.403-0.805C26.443-13.239,25.972-13.089,25.499-12.937z M19.758-1.59
										c0.051-0.144,0.103-0.287,0.154-0.43c-0.4-0.159-0.8-0.316-1.2-0.475c-0.049,0.112-0.097,0.225-0.147,0.338
										C18.962-1.968,19.359-1.78,19.758-1.59z M23.003-1.19c0.001-0.077,0.002-0.153,0.003-0.229c-0.511,0-1.022,0-1.532,0
										c0.003,0.104,0.007,0.204,0.01,0.307C21.993-1.139,22.498-1.165,23.003-1.19z"/>
									<path fill="#EADA7F" d="M78.2,21.486c-0.082,0.356-0.201,0.715-0.25,1.08c-0.129,0.99-0.34,1.854-1.524,2.139
										c-0.211,0.051-0.427,0.695-0.4,1.051c0.099,1.369-0.264,1.943-1.598,2.193c-0.522,0.1-1.095,0.021-1.604,0.164
										c-0.49,0.137-1.027,0.354-1.369,0.707c-0.651,0.67-2.467,1.031-3.326,0.643c-0.608-0.279-1.307-0.561-1.944-0.523
										c-1.856,0.111-3.396-0.461-4.778-1.678c-0.906-0.795-1.9-1.51-3.234-1.4c-0.055-0.079-0.109-0.159-0.168-0.239
										c0.818-0.697,1.639-1.396,2.545-2.166c-1.176-0.765-2.268-1.429-3.65-1.379c-0.438,0.017-0.92,0.055-1.313-0.095
										c-0.324-0.123-0.549-0.508-0.818-0.776c0.316-0.153,0.643-0.457,0.943-0.435c0.863,0.064,1.561-0.141,2.104-0.819
										c0.215,0.973,0.418,1.069,1.559,0.604c-0.6-0.221-1.09-0.402-1.582-0.582c0.515-0.625,0.599-1.094-0.131-1.746
										c-0.543-0.488-0.84-1.334-1.038-2.077c-0.07-0.26,0.411-0.793,0.764-1.004c0.416-0.252,0.957-0.322,1.452-0.414
										c0.746-0.141,0.979-0.486,0.5-1.191c0.603-0.23,1.005-0.23,0.896,0.525c-0.07,0.508,0.02,0.719,0.6,0.602
										c0.338-0.066,0.765-0.061,1.06,0.094c1.146,0.596,2.242,1.293,3.394,1.887c0.332,0.172,0.774,0.125,1.248-0.01
										c-1.185,0.105-1.496-0.814-2.091-1.477c-0.569-0.641-1.43-1.021-2.151-1.527c-0.42-0.291-0.824-0.605-1.234-0.91
										c0.064-0.133,0.129-0.266,0.195-0.398c0.93,0.33,1.856,0.654,2.783,0.99c0.178,0.064,0.342,0.24,0.512,0.24
										c0.383,0.002,0.961,0.064,1.107-0.145c0.229-0.326,0.163-0.857,0.229-1.338c0.584,0.396,1.264,0.904,1.984,1.34
										c0.729,0.438,1.506,0.807,2.287,1.221c0.5-1.311,0.596-1.322,1.672-0.861c0.405,0.176,0.885,0.209,1.334,0.256
										c0.771,0.082,1.549,0.127,2.516,0.201c-0.453,0.836-0.803,1.486-1.16,2.146c-1.088-0.564-2.15-0.646-3.197-0.09
										c-0.221,0.117-0.313,0.473-0.471,0.719c0.248,0.15,0.482,0.389,0.75,0.439c1.096,0.209,2.215,0.313,3.301,0.555
										c0.539,0.119,1.016,0.484,1.545,0.678c0.576,0.211,1.18,0.35,1.768,0.521C78.2,19.961,78.2,20.723,78.2,21.486z
										 M59.05,19.377c0.904,0.402,1.248,0.295,1.318-0.402c0.057-0.565,0.116-1.134,0.205-1.979
										c-0.291,0.567-0.445,0.946-0.666,1.282C59.651,18.66,59.339,19.01,59.05,19.377z M70.921,21.654
										c0.822-0.375,0.971-0.926,0.645-1.771c-0.273-0.715-0.473-0.828-1.266-0.574C71.374,19.814,71.388,20.609,70.921,21.654z
										 M71.573,17.653c-0.139,0.129-0.274,0.262-0.412,0.393c0.293,0.287,0.582,0.572,0.873,0.858
										c0.119-0.122,0.354-0.338,0.342-0.354C72.126,18.239,71.847,17.948,71.573,17.653z M73.476,22.627
										c-0.625-0.883-1.086-0.963-1.729-0.357C72.302,22.383,72.833,22.492,73.476,22.627z"/>
									<path fill="#FFFFFF" d="M36.279,50.07c0.759-0.32,1.758-0.25,1.855-1.533c0.024-0.322,0.97-0.574,1.476-0.646
										c0.347,0.049,0.696,0.146,1.042,0.137c0.868-0.02,1.735-0.082,2.604-0.123c0.406-0.02,0.822,0.021,1.215-0.059
										c0.813-0.154,1.151-0.611,0.776-1.438c-0.092-0.201-0.147-0.418-0.205-0.635c-0.274-1.027,0.084-1.562,1.105-1.359
										c1.512,0.301,2.811-0.117,4.084-0.826c0.213-0.119,0.453-0.189,1.018-0.41c-0.184,0.738-0.297,1.236-0.434,1.732
										c-0.139,0.504-0.342,0.994-0.434,1.51c-0.113,0.611,0.064,1.053,0.83,1.041c0.674-0.008,1.158-0.223,1.084-0.973
										c-0.09-0.945,0.434-1.189,1.227-1.311c0.742-0.111,1.471-0.33,2.328-0.527c-0.266-0.385-0.441-0.644-0.617-0.896
										c-0.545-0.795-0.357-1.447,0.559-1.729c0.537-0.158,1.109-0.23,1.673-0.262c0.822-0.043,1.65-0.021,2.475-0.009
										c1.877,0.026,2.637-0.489,3.344-2.315c0.474-1.215,0.459-1.188,1.564-0.631c0.326,0.164,0.75,0.137,1.377,0.233
										c-0.271-0.604-0.43-0.953-0.607-1.345c0.619-0.266,1.342-0.573,1.678,0.125c0.188,0.388-0.225,1.06-0.35,1.539
										c0.506,0.416,1.111,0.982,1.795,1.438c0.346,0.229,0.824,0.265,1.252,0.369c0.566,0.144,1.142,0.271,1.705,0.406
										c-0.369,1.911-1.484,2.487-3.565,2.075c-0.953-0.188-1.939-0.264-2.908-0.313c-0.562-0.029-1.082,0.156-1.166,0.852
										c-0.058,0.459-0.022,0.793,0.604,0.812c0.494,0.015,0.998,0.168,1.467,0.338c0.271,0.103,0.682,0.354,0.688,0.554
										c0.06,1.303,0.898,1.461,2.207,1.344c-1.228,0.938-2.245,1.574-3.571,1.606c-1.447,0.039-2.912,0.033-4.34,0.24
										c-0.688,0.101-1.313,0.646-1.964,0.983c-0.569,0-1.143,0-1.715,0c0.399-1.004,0.283-1.291-0.715-1.713
										c-0.803-0.342-1.609-0.676-2.412-1.012c0.293-0.105,0.582-0.213,0.873-0.32c-0.201-0.248-0.404-0.498-0.604-0.746
										c-0.082,0.045-0.162,0.097-0.242,0.142c0,0.315,0,0.636,0,0.946c-0.187-0.01-0.394-0.079-0.547-0.02
										c-0.486,0.195-1.086,0.332-1.381,0.701c-0.226,0.287-0.089,0.889-0.043,1.344c0.022,0.234,0.196,0.453,0.307,0.68
										C47.206,50.07,41.742,50.07,36.279,50.07z"/>
									<path fill="#EADA7F" d="M12.078,15.958c0.456,0.129,1.006,0.141,1.349,0.412c0.772,0.614,1.215,0.365,1.644-0.367
										c0.14-0.238,0.397-0.404,0.593-0.611c1.057-1.113,1.271-1.144,2.601-0.392c1.033,0.584,1.259,0.523,1.786-0.584
										c0.462,1.008,1.215,1.367,2.25,1.209c0.21-0.033,0.52,0.117,0.678,0.283c0.844,0.895,1.63,1.845,2.488,2.721
										c0.494,0.508,1.054,0.967,1.643,1.359c0.541,0.361,1.209,0.563,1.203,1.502c-0.288-0.045-0.519-0.076-0.749-0.117
										c-0.343-0.063-0.691-0.217-1.023-0.186c-1.196,0.11-2.408,0.192-3.575,0.461c-1.188,0.27-2.33,0.742-3.56,1.147
										c0.258,0.438,0.442,0.746,0.626,1.06c-2.084-1.398-3.671-0.361-5.146,1.098c-0.535-0.891-1.003-1.674-1.571-2.617
										c1.351-0.861,2.65-1.682,3.941-2.516c0.697-0.451,1.391-0.447,2.021,0.063c0.484,0.393,0.896,0.262,1.089-0.184
										c0.202-0.467,0.342-1.08-0.395-1.341c-0.118-0.043-0.274-0.031-0.362-0.102c-1.346-1.118-2.734-1.683-4.29-0.379
										c-1.08-0.322-2.161-0.645-3.241-0.965C12.078,16.593,12.078,16.277,12.078,15.958z"/>
									<path fill="#EADA7F" d="M12.078,25.105c1.017-0.07,1.586,0.307,2.04,1.328c0.539,1.219,1.563,2.106,3.247,1.606
										c-0.099,0.397-0.16,0.592-0.194,0.793c-0.144,0.854,0.154,1.17,0.977,0.914c1.205-0.373,2.199-0.259,3.026,0.817
										c0.444,0.58,1.094,0.765,1.876,0.595c0.521-0.113,1.271-0.429,1.483,0.475c0.138,0.595-0.584,1.289-1.405,1.193
										c-1.08-0.125-2.179-0.347-3.19-0.736c-1.257-0.481-2.395-0.676-3.601,0.119c-0.75,0.494-1.496,0.369-2.105-0.362
										c-0.423-0.513-0.858-1.019-1.35-1.455c-0.173-0.154-0.53-0.103-0.804-0.142C12.078,28.535,12.078,26.82,12.078,25.105z"/>
									<path d="M57.243-16.057c-0.817,0.278-1.624,0.586-2.454,0.824c-0.506,0.146-1.045,0.182-1.613,0.479
										c0.254,0.088,0.525,0.284,0.76,0.25c1.975-0.292,3.776,0.001,5.269,1.445c-0.424,0.93-1.234,1.166-2.187,0.92
										c-1.115-0.29-2.018-0.028-2.889,0.718c-1.125,0.964-1.885,0.953-3.047,0.03c-0.785-0.623-1.646-1.009-2.627-0.838
										c-0.936,0.161-1.284-0.321-1.421-1.069c-0.133-0.723,0.52-1.493,1.316-1.585c0.879-0.102,1.769-0.128,2.646-0.218
										c0.574-0.06,1.183-0.121,1.099-0.954C53.812-16.057,55.524-16.057,57.243-16.057z"/>
									<path d="M21.418-15.497c-1.198,0.924-2.407,0.561-3.68,0c-0.033,0.281-0.064,0.542-0.094,0.804
										c-0.079,0.066-0.156,0.133-0.234,0.199c-0.508-0.52-1.016-1.042-1.523-1.563c5.019,0,10.037,0,15.055,0
										c-0.072,0.193-0.251,0.522-0.202,0.56c0.861,0.674,0.502,2.021,1.479,2.642c0.203,0.129,0.242,0.519,0.212,0.908
										c-0.434-1.301-1.328-0.759-2.072-0.639c-0.463,0.075-0.944,0.27-0.934-0.511c-1.266,0.04-2.287-0.384-3.032-1.647
										c-1.312,1.586-3.022,1.531-4.779,1.254c-0.022-0.094-0.045-0.188-0.066-0.281c0.488-0.082,0.973-0.182,1.463-0.242
										c0.625-0.077,1.275-0.043,1.87-0.215c0.296-0.086,0.491-0.523,0.645-0.997c-1.059,0.652-1.821,0.317-2.66-0.283
										c-0.319-0.229-0.97,0.007-1.469,0.031L21.418-15.497z"/>
									<path fill="#FFFFFF" d="M74.585,50.07c0.08-0.814-0.185-1.607,0.219-2.465c0.328-0.705-0.324-1.275-1.057-1.515
										c-0.354-0.116-0.728-0.163-1.168-0.254c0.063-0.187,0.09-0.496,0.213-0.541c0.928-0.334,1.863-0.688,2.828-0.86
										c0.229-0.045,0.614,0.522,0.869,0.854c0.444,0.59,0.711,1.407,1.711,1.153c0,1.078,0.014,2.16-0.017,3.238
										c-0.004,0.133-0.235,0.256-0.365,0.383c0.105-0.932-0.592-1.039-1.204-1.043c-0.72-0.006-1.593-0.071-1.648,1.043
										C74.839,50.07,74.71,50.07,74.585,50.07z"/>
									<path fill="#FFFFFF" d="M78.2,30.061c-0.352,0.101-0.692,0.258-1.053,0.281c-1.078,0.07-1.42,0.426-1.309,1.492
										c0.025,0.246,0.227,0.52,0.162,0.725c-0.123,0.396-0.336,0.781-0.603,1.096c-0.065,0.082-0.603-0.036-0.687-0.19
										c-0.221-0.399-0.364-0.86-0.418-1.313c-0.021-0.188,0.229-0.453,0.423-0.604c0.975-0.764,1.264-1.842,1.448-2.981
										c0.088-0.529,0.216-1.051,0.326-1.576c0.197-0.938,0.771-1.5,1.703-1.689C78.2,26.883,78.2,28.471,78.2,30.061z"/>
									<path d="M54.302,47.346c0.805,0.336,1.612,0.67,2.416,1.012c1,0.422,1.117,0.709,0.715,1.713c-1.588,0-3.179,0-4.767,0
										c-0.106-0.227-0.28-0.442-0.305-0.678c-0.047-0.457-0.184-1.059,0.041-1.344c0.295-0.371,0.896-0.506,1.381-0.703
										c0.154-0.061,0.363,0.012,0.547,0.021L54.302,47.346z"/>
									<path d="M12.078-13.579c1.415,0.019,1.744,0.356,2.136,1.808c0.116,0.433,0.58,0.771,0.902,1.173
										c-0.685,1.073-1.69,0.463-2.593,0.463c0.371,1.116,0.72,2.171,1.07,3.228l0.027-0.019
										c-0.515,0.069-1.027,0.139-1.541,0.208C12.078-9.006,12.078-11.293,12.078-13.579z"/>
									<path d="M13.592-6.908c0.822-0.058,1.645-0.116,2.468-0.175c0.022,0.112,0.046,0.223,0.068,0.334
										c-0.76,0.162-1.522,0.323-2.59,0.551c0.517,0.682,0.857,1.362,1.397,1.79c1.151,0.912,1.191,0.863,0.264,1.916
										c-0.067,0.076-0.051,0.226-0.06,0.276c-1.024-0.423-2.043-0.843-3.062-1.264c0-0.699,0-1.397,0-2.095
										c0.725-0.211,1.387-0.491,1.541-1.352L13.592-6.908z"/>
									<path fill="#FFFFFF" d="M78.2,5.095c-1.145,0.104-2.291,0.223-3.438,0.301c-0.308,0.02-0.654-0.02-0.916-0.158
										C73.575,5.093,73.217,4.806,73.2,4.56c-0.021-0.238,0.309-0.662,0.557-0.73c0.9-0.25,1.828-0.414,2.756-0.552
										c0.557-0.083,1.131-0.062,1.691-0.086C78.2,3.826,78.2,4.46,78.2,5.095z"/>
									<path d="M12.078-2.907c0.462,0.513,0.363,1.541,1.399,1.527c0.37-0.006,0.745-0.064,1.109-0.021
										c0.573,0.066,1.201,0.084,1.684,0.346c0.26,0.143,0.267,0.749,0.388,1.146c-0.402,0.101-0.807,0.285-1.205,0.276
										c-0.318-0.008-0.63-0.254-1.002-0.42c-0.286,1.398-1.355,1.323-2.375,1.339C12.078-0.112,12.078-1.51,12.078-2.907z"/>
									<path d="M36.279-16.057c0.174,0.433,0.402,0.854,0.503,1.303c0.08,0.353,0.003,0.74-0.003,1.113
										c-0.352-0.136-0.872-0.173-1.024-0.429c-0.363-0.607-0.552-1.318-0.81-1.987C35.391-16.057,35.833-16.057,36.279-16.057z"
										/>
									<path d="M74.966,50.07c0.057-1.117,0.93-1.049,1.648-1.043c0.612,0.002,1.311,0.109,1.204,1.043
										C76.872,50.07,75.917,50.07,74.966,50.07z"/>
									<path fill="#FFFFFF" d="M78.2-1.954c-0.203-0.066-0.428-0.104-0.613-0.207c-0.278-0.15-0.534-0.348-0.803-0.524
										c0.322-0.239,0.633-0.495,0.969-0.711c0.117-0.077,0.3-0.059,0.447-0.083C78.2-2.971,78.2-2.463,78.2-1.954z"/>
									<path d="M12.078,3.192c0.459,0.153,0.919,0.31,1.23,0.415c-0.306,0.572-0.55,1.029-0.794,1.488c-0.146,0-0.291,0-0.436,0
										C12.078,4.46,12.078,3.826,12.078,3.192z"/>
									<path fill="#FFFFFF" d="M13.619-6.927c-0.153,0.861-0.816,1.141-1.541,1.352c0-0.382,0-0.763,0-1.145
										C12.591-6.788,13.104-6.857,13.619-6.927z"/>
									<path fill="#FFFFFF" d="M12.078,19.199c0.266,0.057,0.531,0.115,0.783,0.17c0.271,0.861-0.335,1.26-0.783,1.734
										C12.078,20.467,12.078,19.834,12.078,19.199z"/>
									<path fill="#FFFFFF" d="M31.134,50.07c0.225-0.264,0.449-0.521,0.541-0.629c1.156,0.233,2.118,0.434,3.081,0.629
										C33.546,50.07,32.342,50.07,31.134,50.07z"/>
									<path d="M41.232-16.057c-0.632,0.967-1.083,0.967-1.715,0C40.091-16.057,40.663-16.057,41.232-16.057z"/>
									<path fill="#EADA7F" d="M51.703,2.516c0.535-0.707,1.032-1.444,1.625-2.099c0.149-0.166,0.594-0.07,0.996-0.104
										c-0.029,0.184-0.093,0.309-0.056,0.389c0.49,1.08,0.615,2.063-0.34,3.032c-0.285,0.29,0.594,1.085,1.137,0.886
										c1.084-0.402,1.941-0.266,2.701,0.662c0.201,0.246,0.67,0.289,1.029,0.383c0.176,0.043,0.414,0.047,0.559-0.041
										c0.705-0.438,1.904,0.426,2.271-0.865c0.229-0.808,0.461-1.612,0.688-2.416c0.298,0,0.576,0,0.912,0
										c0.813,2.307,2.856,1.513,4.649,1.705c-0.146,0.295-0.254,0.533-0.379,0.764c-0.93,1.734-0.151,3.098,1.843,3.191
										c0.793,0.039,1.592-0.029,2.381,0.033c0.274,0.021,0.774,0.355,0.754,0.449c-0.101,0.428,0.142,1.063-0.653,1.17
										c-1,0.139-1.979,0.434-2.979,0.574c-1.148,0.16-2.343-0.084-3.025-0.979c-1.102-1.436-2.631-1.727-4.182-2.137
										c-0.341-0.088-0.744-0.348-0.896-0.641c-0.313-0.625-0.621-0.484-1.037-0.176c-0.867,0.645-1.744,1.277-2.645,1.934
										c0.609,0.91,1.186-0.643,1.852-0.395c0.039,0.125,0.076,0.25,0.111,0.375c-0.729,0.271-1.438,0.656-2.189,0.785
										c-1.036,0.18-2.122-0.111-3.139,0.48c-0.313,0.186-0.897-0.061-1.352-0.146c-0.361-0.068-0.707-0.227-1.069-0.287
										c-0.703-0.121-1.156,0.043-1.58,0.779c-1.34,2.328-3.657,2.688-6.136,1.666c-0.873-0.357-1.636-0.979-2.504-1.35
										c-0.859-0.365-1.775-0.686-2.692-0.781c-0.399-0.041-1.057,0.451-1.224,0.855c-0.105,0.254,0.402,0.924,0.786,1.172
										c0.485,0.313,1.139,0.352,1.695,0.572c0.581,0.23,1.155,0.504,1.684,0.834c0.196,0.123,0.385,0.494,0.34,0.697
										c-0.038,0.164-0.428,0.26-0.67,0.365c-0.08,0.037-0.206-0.023-0.28,0.016c-0.336,0.182-0.717,0.332-0.963,0.604
										c-0.097,0.107,0.036,0.623,0.204,0.729c0.336,0.211,0.805,0.428,1.154,0.35c0.89-0.197,1.733-0.598,2.62-0.828
										c0.326-0.086,0.773-0.02,1.063,0.15c0.394,0.232,0.454,0.775-0.047,0.863c-1.909,0.33-3.443,1.886-5.563,1.571
										c-1.555-0.23-3.071-0.447-4.359-1.44c-1.173-0.904-2.387-1.717-4.072-1.355c0-0.559,0-1.01,0-1.457
										c-0.771-0.115-1.459-0.215-2.148-0.318c-0.012-0.145-0.023-0.293-0.035-0.438c1.044-0.223,2.089-0.443,3.167-0.672
										c-0.572-1.252-0.33-1.596,0.964-1.613c0.475-0.006,0.972,0.064,1.417-0.061c0.313-0.084,0.742-0.406,0.775-0.666
										c0.032-0.25-0.324-0.68-0.61-0.809c-0.442-0.203-0.977-0.203-1.464-0.32c-0.906-0.223-1.796-0.516-2.711-0.691
										C29.212,7.3,28.322,7.24,27.3,7.117c0.287-0.482,0.614-1.063,0.965-1.625c0.348-0.559,0.815-1.064,1.054-1.664
										c0.253-0.637,0.684-0.744,1.19-0.594c1.059,0.318,2.077,0.652,3.194,0.166c0.345-0.15,0.873-0.145,1.218,0.009
										c2.088,0.933,4.337,0.825,6.527,1.093c0.501,0.063,1.005,0.123,1.499,0.227c1.158,0.242,2.167-0.018,3.134-0.706
										c0.389-0.274,0.953-0.298,1.688-0.507c0.262-1,1.309-1.092,2.434-1.039c0.506,0.023,1.013,0.025,1.515,0.04
										c-0.862,0.463-0.239,0.958,0.043,1.438c-0.379,0.229-0.698,0.422-1.147,0.694c0.935,0.032,1.694-0.134,1.875-0.873
										C52.565,3.441,51.981,2.942,51.703,2.516z M52.863,6.242c-0.087,0.111-0.173,0.223-0.257,0.332
										c0.431,0.322,0.856,0.646,1.285,0.969c0.09-0.123,0.181-0.246,0.271-0.369C53.728,6.863,53.295,6.552,52.863,6.242z
										 M50.004,5.632c-0.079,0.047-0.159,0.096-0.241,0.143c0.172,0.279,0.299,0.605,0.532,0.813
										c0.095,0.082,0.423-0.104,0.761-0.199C50.595,6.056,50.3,5.845,50.004,5.632z"/>
									<path fill="#FFFFFF" d="M57.64-5.963c0,0.474,0.018,0.932-0.004,1.389c-0.031,0.781,0.314,1.244,1.078,1.449
										c1.389,0.375,1.352,0.388,1.34,1.812c-0.002,0.273,0.338,0.716,0.607,0.802c1.492,0.472,3.006,0.333,4.478-0.106
										c0.405-0.121,0.854-0.491,1.047-0.867c0.625-1.204,1.603-1.638,2.886-1.619c0.403,0.006,0.848-0.002,1.213-0.153
										c0.313-0.129,0.725-0.442,0.766-0.723c0.037-0.251-0.311-0.683-0.596-0.835c-1.431-0.767-2.938-1.081-4.563-0.666
										c-0.572,0.146-1.199,0.136-1.795,0.109c-0.231-0.01-0.552-0.21-0.656-0.414c-0.069-0.137,0.095-0.506,0.259-0.643
										c0.561-0.461,1.166-0.869,1.758-1.29c0.795-0.564,1.596-1.121,2.205-1.546c0.823,0.159,1.557,0.347,2.301,0.428
										c0.576,0.063,1.096,0.009,1.375,0.731c0.109,0.279,0.682,0.424,1.07,0.531c0.37,0.101,0.776,0.073,1.282,0.109
										c-0.487,2.086,0.502,3.003,2.729,3.094c-0.523,0.414-0.791,0.541-0.922,0.75c-0.189,0.295-0.416,0.67-0.381,0.982
										c0.106,0.927-0.109,1.167-1.011,1.276C73.021-1.231,71.96-0.8,70.883-0.771c-1.541,0.041-2.718,0.46-3.47,1.9
										c-0.119,0.227-0.854,0.326-1.203,0.199c-1.881-0.693-3.651-0.4-5.436,0.354c-0.998,0.423-1.934,0.304-2.797-0.185
										c0.869-0.621,0.922-0.979,0.121-1.712c-0.512-0.469-0.85-0.913-0.908-1.67c-0.021-0.313-0.727-0.771-1.155-0.817
										c-0.976-0.103-1.234-0.667-1.261-1.465c-0.026-0.837,0.509-1,1.24-1.075C56.5-5.289,56.956-5.645,57.64-5.963z"/>
									<path fill="#EADA7F" d="M58.634,34.59c0.053,0.309-0.02,0.926,0.254,1.225c0.277,0.302,0.896,0.287,1.365,0.408
										c0.016,0.117,0.031,0.229,0.047,0.344c-1.094,0.244-2.18,0.658-3.281,0.699c-1.813,0.066-3.463,0.324-5.004,1.439
										c-1.338,0.975-2.542,0.76-3.63-0.484c-1.047-1.193-2.25-1.906-3.839-1.963c-0.271-0.01-0.541-0.09-1.079-0.186
										c0.366-0.439,0.579-0.756,0.854-1.008c0.231-0.207,0.588-0.287,0.791-0.515c0.274-0.312,0.524-0.684,0.629-1.069
										c0.027-0.103-0.521-0.371-0.821-0.539c-0.189-0.107-0.407-0.164-0.612-0.246c0.302-1.25,0.808-1.781,2.724-1.832
										c0.884-0.025,1.771,0.047,2.646-0.041c0.461-0.049,0.899-0.346,1.346-0.533c0.138-0.055,0.267-0.16,0.404-0.18
										c1.051-0.137,2.106-0.242,3.157-0.392c0.502-0.069,1.063-0.307,1.274,0.388c0.21,0.686-0.375,0.944-0.844,1.022
										c-1.59,0.265-3.203,0.406-4.795,0.649c-0.744,0.117-1.481,0.316-2.196,0.562c-0.774,0.265-1.095,0.854-0.848,1.656
										c0.234,0.762,0.822,0.983,1.57,0.903c0.408-0.043,0.822-0.059,1.23-0.104c0.826-0.096,1.451,0.166,1.971,0.859
										c0.808,1.082,1.008,1.074,2.201,0.41c0.357-0.195,0.746-0.349,1.137-0.474C56.412,35.246,57.54,34.918,58.634,34.59z"/>
									<path fill="#FFFFFF" d="M49.052-1.552c-1.783,0.872-3.553,1.748-5.333,2.601c-0.998,0.479-1.932,0.547-2.925-0.183
										c-0.63-0.463-1.461-0.671-2.225-0.92c-0.166-0.054-0.438,0.302-0.652,0.292c-0.953-0.043-1.388-1.013-0.794-1.799
										c0.721-0.95,1.772-1.176,2.887-1.085c0.875,0.071,1.738,0.269,2.612,0.362c1.976,0.213,3.956,0.394,5.931,0.598
										C48.759-1.665,48.957-1.579,49.052-1.552z"/>
									<path fill="#FFFFFF" d="M74.007,43.279c-1.049-0.734-1.789-1.58-1.68-2.855c0.03-0.373,0.309-0.857,0.621-1.033
										c0.19-0.106,0.748,0.182,0.985,0.439C75.122,41.107,75.116,41.5,74.007,43.279z"/>
									<path fill="#EADA7F" d="M28.254,33.18c-0.035,0.445-0.063,0.809-0.104,1.332c-0.911-0.162-1.766-0.297-2.607-0.486
										c-0.16-0.032-0.38-0.301-0.371-0.444c0.009-0.144,0.272-0.375,0.432-0.384C26.471,33.16,27.338,33.18,28.254,33.18z"/>
									<path fill="#FFFFFF" d="M66.394-12.945c0.688-0.249,1.324-0.523,1.984-0.692c0.285-0.072,0.629,0.077,0.943,0.126
										c-0.105,0.306-0.15,0.827-0.326,0.877c-0.511,0.142-1.078,0.154-1.611,0.099C67.03-12.573,66.698-12.813,66.394-12.945z"/>
									<path fill="#909B4E" d="M59.247,33.688c0.434-0.334,0.877-0.635,1.354-0.03c0.412,0.526,0.479,1.977,0.025,2.174
										c-0.189,0.082-0.707-0.226-0.844-0.483C59.522,34.867,59.431,34.297,59.247,33.688z"/>
									<path fill="#EADA7F" d="M19.434,27.234c-1.125,0.906-1.33,0.854-1.855-0.408C18.212,26.967,18.713,27.074,19.434,27.234z"
										/>
									<path fill="#052B00" d="M43.016,22.721c-0.433,1.369-1.411,1.723-2.677,1.074C41.249,23.428,42.045,23.109,43.016,22.721z"
										/>
									<path fill="#052B00" d="M35.902,36.729c-0.442,0.83-1.141,0.688-1.763,0.564c-0.126-0.023-0.284-0.756-0.208-0.805
										c0.359-0.217,0.8-0.428,1.202-0.412C35.395,36.088,35.641,36.492,35.902,36.729z"/>
									<path fill="#052B00" d="M27.32,39.162c0.039-0.516,0.004-1.092,0.098-1.113c0.578-0.133,1.184-0.145,1.78-0.195
										c0.03,0.146,0.06,0.281,0.09,0.42C28.746,38.518,28.204,38.764,27.32,39.162z"/>
									<path d="M32.933-9.972c-1.153,1.815-2.897,1.459-4.44,1.688C29.829-9.095,31.157-9.924,32.933-9.972z"/>
									<path d="M21.396-15.476c0.539,0.106,1.079,0.213,1.618,0.32c0.009,0.106,0.018,0.212,0.027,0.319
										c-0.282,0.089-0.655,0.333-0.823,0.232c-0.327-0.196-0.54-0.584-0.8-0.893L21.396-15.476z"/>
									<path d="M25.499-12.937c0.472-0.151,0.944-0.302,1.504-0.482c-0.195,1.069-0.772,1-1.403,0.805
										C25.566-12.722,25.534-12.829,25.499-12.937z"/>
									<path d="M19.758-1.59c-0.397-0.19-0.795-0.378-1.192-0.567c0.049-0.113,0.097-0.226,0.146-0.338
										c0.399,0.158,0.8,0.316,1.2,0.476C19.86-1.875,19.809-1.733,19.758-1.59z"/>
									<path d="M23.003-1.19c-0.506,0.025-1.012,0.051-1.519,0.078c-0.003-0.103-0.006-0.204-0.01-0.307c0.51,0,1.021,0,1.532,0
										C23.008-1.343,23.006-1.267,23.003-1.19z"/>
									<path fill="#052B00" d="M59.05,19.377c0.289-0.367,0.604-0.717,0.857-1.103c0.221-0.334,0.375-0.713,0.666-1.282
										c-0.089,0.848-0.148,1.415-0.205,1.98C60.298,19.672,59.954,19.779,59.05,19.377z"/>
									<path d="M70.921,21.654c0.467-1.045,0.453-1.84-0.621-2.346c0.793-0.254,0.99-0.144,1.266,0.573
										C71.892,20.729,71.743,21.279,70.921,21.654z"/>
									<path d="M71.573,17.653c0.271,0.295,0.553,0.584,0.803,0.898c0.015,0.016-0.223,0.23-0.342,0.354
										c-0.291-0.286-0.58-0.571-0.873-0.858C71.298,17.915,71.435,17.782,71.573,17.653z"/>
									<path d="M73.476,22.627c-0.645-0.135-1.174-0.244-1.729-0.357C72.39,21.662,72.851,21.744,73.476,22.627z"/>
									<path fill="#052B00" d="M57.784,19.971c0.49,0.182,0.984,0.361,1.582,0.582c-1.139,0.467-1.344,0.369-1.559-0.604
										L57.784,19.971z"/>
									<path d="M54.332,47.365c0-0.313,0-0.631,0-0.947c0.08-0.045,0.16-0.094,0.242-0.139c0.199,0.248,0.4,0.496,0.604,0.744
										c-0.291,0.106-0.58,0.217-0.873,0.32C54.302,47.346,54.332,47.365,54.332,47.365z"/>
									<path d="M51.703,2.516c0.278,0.426,0.862,0.924,0.782,1.261c-0.18,0.739-0.94,0.906-1.875,0.873
										c0.451-0.273,0.771-0.465,1.147-0.695c-0.28-0.479-0.903-0.975-0.041-1.438C51.72,2.516,51.703,2.516,51.703,2.516z"/>
									<path d="M52.863,6.242c0.434,0.311,0.864,0.621,1.299,0.932c-0.09,0.123-0.181,0.246-0.271,0.369
										c-0.429-0.322-0.854-0.646-1.285-0.969C52.69,6.464,52.776,6.353,52.863,6.242z"/>
									<path d="M50.004,5.632c0.296,0.213,0.591,0.424,1.052,0.754c-0.338,0.098-0.666,0.283-0.761,0.201
										c-0.233-0.207-0.36-0.535-0.532-0.814C49.845,5.728,49.925,5.681,50.004,5.632z"/>
								</g>
							</g>
						</g>
					</g>
				</g>
			</g>
		</g>
	</g>
</g>
<linearGradient id="p90_1_" gradientUnits="userSpaceOnUse" x1="386.1016" y1="-256.0918" x2="454.1084" y2="-256.0918" gradientTransform="matrix(1 0 0 -1 -374.96 -242.5996)">
	<stop  offset="0" style="stop-color:#B1DB7F;stop-opacity:0"/>
	<stop  offset="0.1061" style="stop-color:#B1DB7F;stop-opacity:0.1061"/>
	<stop  offset="1" style="stop-color:#B1DB7F"/>
</linearGradient>
<path id="p90_2_" fill="url(#p90_1_)" d="M57.428,16.296c-0.354,0.112-0.679,0.307-0.943,0.567
	c-0.183,0.318-0.268,0.684-0.242,1.051c0,0.648,0.012,1.213,0.039,1.701h1.638v0.809l0.287,0.072
	c0.14,0.033,0.268,0.102,0.369,0.201c0.188,0.229,0.446,0.385,0.736,0.441c0.624,0.146,1.28-0.021,1.762-0.441
	c0.656-0.406,0.918-1.232,0.613-1.941c-0.216-0.67-0.708-1.217-1.354-1.501c-0.241-0.164-0.438-0.387-0.571-0.648l-0.288-0.483
	c-0.216-0.029-0.436-0.043-0.652-0.042C58.347,16.048,57.87,16.122,57.428,16.296z M46.288,19.447
	c0.399-0.33,0.639-0.816,0.654-1.334c-0.009-0.494-0.135-0.979-0.367-1.415l-0.332-0.564h-5.61c-0.711,0.673-1.258,1.185-1.64,1.535
	c-0.194,0.172-0.286,0.432-0.244,0.687c0.01,0.285,0.038,0.568,0.081,0.85c-0.07,0.746,0.218,1.481,0.778,1.979
	c0.473,0.455,1.106,0.703,1.761,0.688c0.598-0.185,1.186-0.399,1.761-0.647c0.818-0.377,1.46-0.688,1.925-0.931
	C45.498,20.066,45.913,19.781,46.288,19.447z M66.521,8.044c-0.011-0.209-0.137-0.396-0.327-0.486H60.05
	c-0.629-0.025-1.708-0.08-3.236-0.162l-2.172-0.12v1.22h11.716c0.026-0.05,0.04-0.106,0.041-0.163
	C66.454,8.196,66.493,8.096,66.521,8.044z M67.954,7.396c-0.135-0.028-0.273-0.028-0.41,0h-0.242v0.769l0.326,0.044
	c0.199,0.055,0.334,0.238,0.328,0.443c-0.002,0.194-0.073,0.382-0.205,0.526l-0.205,0.2l0.166,1.981h0.49V7.924
	c0.01-0.111-0.004-0.223-0.041-0.328C68.138,7.495,68.057,7.417,67.954,7.396z M78.891,14.396c-0.106,0.216-0.333,0.344-0.573,0.323
	h-5.652l-0.197-0.241c-0.071,0.036-0.141,0.076-0.205,0.121c-0.082,0.033-0.154,0.089-0.205,0.162
	c0.16,0.216,0.338,0.419,0.529,0.607c0.268,0.272,0.428,0.63,0.453,1.01c-0.055,0.324-0.164,1.187-0.328,2.589
	c-0.135,1.4-0.198,2.209-0.198,2.424c0.017,0.131-0.049,0.26-0.163,0.324c-0.125,0.07-0.271,0.1-0.411,0.082h-2.383
	c-0.146-0.029-0.257-0.141-0.289-0.283c-0.118-0.268-0.175-0.557-0.163-0.848c0-0.459-0.014-0.9-0.041-1.336
	c-0.002-0.295-0.07-0.584-0.205-0.848c-0.389-0.161-0.807-0.244-1.229-0.243c-0.422-0.089-0.861-0.061-1.271,0.083l-0.408,0.401
	c-0.16,0.129-0.266,0.317-0.287,0.522c-0.026,0.106-0.101,0.838-0.205,2.185c-0.217,1.293-0.815,2.489-1.719,3.438
	c-1.146,1.021-2.574,1.666-4.097,1.858c-1.144,0.254-2.317,0.321-3.482,0.198c-0.346-0.014-0.684-0.11-0.982-0.282
	c-0.064-0.113-0.064-0.252,0-0.363c0.422-1.192,0.724-2.426,0.898-3.68c-0.033-0.142-0.09-0.274-0.164-0.399
	c-0.109-0.136-0.276-0.209-0.449-0.199c-0.45-0.039-0.902-0.054-1.354-0.041c-0.38-0.026-0.778-0.041-1.188-0.041
	c-0.109,0.021-0.202,0.097-0.244,0.201c-0.063,0.131-0.146,0.254-0.246,0.36c-0.305,0.299-0.632,0.567-0.98,0.812
	c-0.701,0.56-1.439,1.069-2.207,1.533c-1.74,1.229-3.777,1.967-5.899,2.143c-1.554,0-3.221-0.055-5-0.163l-2.172-0.199l-0.039-1.334
	c-1.851-0.819-3.752-1.521-5.692-2.101c-0.299-0.028-0.6-0.043-0.9-0.043l-0.411-0.041l-0.327,0.565
	c-0.137,0.275-0.397,0.472-0.7,0.525H12.167c-0.3-0.037-0.553-0.24-0.654-0.525c-0.139-0.305-0.208-0.635-0.205-0.971v-6.75
	c0-1.4-0.028-2.951-0.083-4.652c-0.054-1.35-0.083-2.049-0.083-2.104c0.082-0.512,0.205-0.767,0.37-0.767h20.684
	c0.387-0.041,0.77-0.107,1.148-0.2c0.418-0.087,0.843-0.143,1.27-0.164h14.746l0.042-1.738c0.171-0.531,0.39-1.046,0.652-1.537
	c0.291-0.536,0.512-1.107,0.655-1.7C50.81,2.83,51,2.64,51.24,2.545c0.16-0.078,0.324-0.145,0.493-0.2
	c0-0.245,0.027-0.489,0.081-0.727c0.028-0.291,0.096-0.576,0.2-0.848c0.175-0.374,0.503-0.655,0.899-0.77
	c0.281-0.002,0.533,0.175,0.627,0.44c0.068,0.226,0.123,0.456,0.164,0.689c0.059,0.402,0.059,0.811,0,1.212
	c-0.045,0.005-0.086,0.02-0.123,0.042c-0.064,0.079-0.096,0.181-0.084,0.283v0.887h11.628l1.476-0.848
	c0.272,0,0.411-0.092,0.411-0.282V1.777h-0.247V0.768l0.205-0.2l0.45-0.282l0.943-0.09c0.086,0.033,0.146,0.109,0.161,0.2
	c0.029,0.12,0.046,0.242,0.043,0.365v1.785l0.163,0.6c0.055,0.22,0.151,0.427,0.286,0.608c0.369,0.031,0.739,0.031,1.106,0
	c1.64,1.753,2.498,2.67,2.58,2.751c0.183,0.215,0.283,0.486,0.287,0.767v4.368h5.611l0.245,0.242
	c0.219,0.337,0.319,0.736,0.289,1.136C79.182,13.492,79.095,13.967,78.891,14.396z"/>
<linearGradient id="p90_5_" gradientUnits="userSpaceOnUse" x1="386.1016" y1="-256.0918" x2="454.1084" y2="-256.0918" gradientTransform="matrix(1 0 0 -1 -374.96 -242.5996)">
	<stop  offset="0" style="stop-color:#B1DB7F;stop-opacity:0"/>
	<stop  offset="0.1061" style="stop-color:#B1DB7F;stop-opacity:0.1061"/>
	<stop  offset="1" style="stop-color:#B1DB7F"/>
</linearGradient>
<path id="p90_3_" fill="url(#p90_5_)" d="M57.428,16.296c-0.354,0.112-0.679,0.307-0.943,0.567
	c-0.183,0.318-0.268,0.684-0.242,1.051c0,0.648,0.012,1.213,0.039,1.701h1.638v0.809l0.287,0.072
	c0.14,0.033,0.268,0.102,0.369,0.201c0.188,0.229,0.446,0.385,0.736,0.441c0.624,0.146,1.28-0.021,1.762-0.441
	c0.656-0.406,0.918-1.232,0.613-1.941c-0.216-0.67-0.708-1.217-1.354-1.501c-0.241-0.164-0.438-0.387-0.571-0.648l-0.288-0.483
	c-0.216-0.029-0.436-0.043-0.652-0.042C58.347,16.048,57.87,16.122,57.428,16.296z M46.288,19.447
	c0.399-0.33,0.639-0.816,0.654-1.334c-0.009-0.494-0.135-0.979-0.367-1.415l-0.332-0.564h-5.61c-0.711,0.673-1.258,1.185-1.64,1.535
	c-0.194,0.172-0.286,0.432-0.244,0.687c0.01,0.285,0.038,0.568,0.081,0.85c-0.07,0.746,0.218,1.481,0.778,1.979
	c0.473,0.455,1.106,0.703,1.761,0.688c0.598-0.185,1.186-0.399,1.761-0.647c0.818-0.377,1.46-0.688,1.925-0.931
	C45.498,20.066,45.913,19.781,46.288,19.447z M66.521,8.044c-0.011-0.209-0.137-0.396-0.327-0.486H60.05
	c-0.629-0.025-1.708-0.08-3.236-0.162l-2.172-0.12v1.22h11.716c0.026-0.05,0.04-0.106,0.041-0.163
	C66.454,8.196,66.493,8.096,66.521,8.044z M67.954,7.396c-0.135-0.028-0.273-0.028-0.41,0h-0.242v0.769l0.326,0.044
	c0.199,0.055,0.334,0.238,0.328,0.443c-0.002,0.194-0.073,0.382-0.205,0.526l-0.205,0.2l0.166,1.981h0.49V7.924
	c0.01-0.111-0.004-0.223-0.041-0.328C68.138,7.495,68.057,7.417,67.954,7.396z M78.891,14.396c-0.106,0.216-0.333,0.344-0.573,0.323
	h-5.652l-0.197-0.241c-0.071,0.036-0.141,0.076-0.205,0.121c-0.082,0.033-0.154,0.089-0.205,0.162
	c0.16,0.216,0.338,0.419,0.529,0.607c0.268,0.272,0.428,0.63,0.453,1.01c-0.055,0.324-0.164,1.187-0.328,2.589
	c-0.135,1.4-0.198,2.209-0.198,2.424c0.017,0.131-0.049,0.26-0.163,0.324c-0.125,0.07-0.271,0.1-0.411,0.082h-2.383
	c-0.146-0.029-0.257-0.141-0.289-0.283c-0.118-0.268-0.175-0.557-0.163-0.848c0-0.459-0.014-0.9-0.041-1.336
	c-0.002-0.295-0.07-0.584-0.205-0.848c-0.389-0.161-0.807-0.244-1.229-0.243c-0.422-0.089-0.861-0.061-1.271,0.083l-0.408,0.401
	c-0.16,0.129-0.266,0.317-0.287,0.522c-0.026,0.106-0.101,0.838-0.205,2.185c-0.217,1.293-0.815,2.489-1.719,3.438
	c-1.146,1.021-2.574,1.666-4.097,1.858c-1.144,0.254-2.317,0.321-3.482,0.198c-0.346-0.014-0.684-0.11-0.982-0.282
	c-0.064-0.113-0.064-0.252,0-0.363c0.422-1.192,0.724-2.426,0.898-3.68c-0.033-0.142-0.09-0.274-0.164-0.399
	c-0.109-0.136-0.276-0.209-0.449-0.199c-0.45-0.039-0.902-0.054-1.354-0.041c-0.38-0.026-0.778-0.041-1.188-0.041
	c-0.109,0.021-0.202,0.097-0.244,0.201c-0.063,0.131-0.146,0.254-0.246,0.36c-0.305,0.299-0.632,0.567-0.98,0.812
	c-0.701,0.56-1.439,1.069-2.207,1.533c-1.74,1.229-3.777,1.967-5.899,2.143c-1.554,0-3.221-0.055-5-0.163l-2.172-0.199l-0.039-1.334
	c-1.851-0.819-3.752-1.521-5.692-2.101c-0.299-0.028-0.6-0.043-0.9-0.043l-0.411-0.041l-0.327,0.565
	c-0.137,0.275-0.397,0.472-0.7,0.525H12.167c-0.3-0.037-0.553-0.24-0.654-0.525c-0.139-0.305-0.208-0.635-0.205-0.971v-6.75
	c0-1.4-0.028-2.951-0.083-4.652c-0.054-1.35-0.083-2.049-0.083-2.104c0.082-0.512,0.205-0.767,0.37-0.767h20.684
	c0.387-0.041,0.77-0.107,1.148-0.2c0.418-0.087,0.843-0.143,1.27-0.164h14.746l0.042-1.738c0.171-0.531,0.39-1.046,0.652-1.537
	c0.291-0.536,0.512-1.107,0.655-1.7C50.81,2.83,51,2.64,51.24,2.545c0.16-0.078,0.324-0.145,0.493-0.2
	c0-0.245,0.027-0.489,0.081-0.727c0.028-0.291,0.096-0.576,0.2-0.848c0.175-0.374,0.503-0.655,0.899-0.77
	c0.281-0.002,0.533,0.175,0.627,0.44c0.068,0.226,0.123,0.456,0.164,0.689c0.059,0.402,0.059,0.811,0,1.212
	c-0.045,0.005-0.086,0.02-0.123,0.042c-0.064,0.079-0.096,0.181-0.084,0.283v0.887h11.628l1.476-0.848
	c0.272,0,0.411-0.092,0.411-0.282V1.777h-0.247V0.768l0.205-0.2l0.45-0.282l0.943-0.09c0.086,0.033,0.146,0.109,0.161,0.2
	c0.029,0.12,0.046,0.242,0.043,0.365v1.785l0.163,0.6c0.055,0.22,0.151,0.427,0.286,0.608c0.369,0.031,0.739,0.031,1.106,0
	c1.64,1.753,2.498,2.67,2.58,2.751c0.183,0.215,0.283,0.486,0.287,0.767v4.368h5.611l0.245,0.242
	c0.219,0.337,0.319,0.736,0.289,1.136C79.182,13.492,79.095,13.967,78.891,14.396z"/>
<linearGradient id="p90_6_" gradientUnits="userSpaceOnUse" x1="386.1016" y1="-256.0918" x2="454.1084" y2="-256.0918" gradientTransform="matrix(1 0 0 -1 -374.96 -242.5996)">
	<stop  offset="0" style="stop-color:#B1DB7F;stop-opacity:0"/>
	<stop  offset="0.1061" style="stop-color:#B1DB7F;stop-opacity:0.1061"/>
	<stop  offset="1" style="stop-color:#B1DB7F"/>
</linearGradient>
<path id="p90_4_" fill="url(#p90_6_)" d="M57.428,16.296c-0.354,0.112-0.679,0.307-0.943,0.567
	c-0.183,0.318-0.268,0.684-0.242,1.051c0,0.648,0.012,1.213,0.039,1.701h1.638v0.809l0.287,0.072
	c0.14,0.033,0.268,0.102,0.369,0.201c0.188,0.229,0.446,0.385,0.736,0.441c0.624,0.146,1.28-0.021,1.762-0.441
	c0.656-0.406,0.918-1.232,0.613-1.941c-0.216-0.67-0.708-1.217-1.354-1.501c-0.241-0.164-0.438-0.387-0.571-0.648l-0.288-0.483
	c-0.216-0.029-0.436-0.043-0.652-0.042C58.347,16.048,57.87,16.122,57.428,16.296z M46.288,19.447
	c0.399-0.33,0.639-0.816,0.654-1.334c-0.009-0.494-0.135-0.979-0.367-1.415l-0.332-0.564h-5.61c-0.711,0.673-1.258,1.185-1.64,1.535
	c-0.194,0.172-0.286,0.432-0.244,0.687c0.01,0.285,0.038,0.568,0.081,0.85c-0.07,0.746,0.218,1.481,0.778,1.979
	c0.473,0.455,1.106,0.703,1.761,0.688c0.598-0.185,1.186-0.399,1.761-0.647c0.818-0.377,1.46-0.688,1.925-0.931
	C45.498,20.066,45.913,19.781,46.288,19.447z M66.521,8.044c-0.011-0.209-0.137-0.396-0.327-0.486H60.05
	c-0.629-0.025-1.708-0.08-3.236-0.162l-2.172-0.12v1.22h11.716c0.026-0.05,0.04-0.106,0.041-0.163
	C66.454,8.196,66.493,8.096,66.521,8.044z M67.954,7.396c-0.135-0.028-0.273-0.028-0.41,0h-0.242v0.769l0.326,0.044
	c0.199,0.055,0.334,0.238,0.328,0.443c-0.002,0.194-0.073,0.382-0.205,0.526l-0.205,0.2l0.166,1.981h0.49V7.924
	c0.01-0.111-0.004-0.223-0.041-0.328C68.138,7.495,68.057,7.417,67.954,7.396z M78.891,14.396c-0.106,0.216-0.333,0.344-0.573,0.323
	h-5.652l-0.197-0.241c-0.071,0.036-0.141,0.076-0.205,0.121c-0.082,0.033-0.154,0.089-0.205,0.162
	c0.16,0.216,0.338,0.419,0.529,0.607c0.268,0.272,0.428,0.63,0.453,1.01c-0.055,0.324-0.164,1.187-0.328,2.589
	c-0.135,1.4-0.198,2.209-0.198,2.424c0.017,0.131-0.049,0.26-0.163,0.324c-0.125,0.07-0.271,0.1-0.411,0.082h-2.383
	c-0.146-0.029-0.257-0.141-0.289-0.283c-0.118-0.268-0.175-0.557-0.163-0.848c0-0.459-0.014-0.9-0.041-1.336
	c-0.002-0.295-0.07-0.584-0.205-0.848c-0.389-0.161-0.807-0.244-1.229-0.243c-0.422-0.089-0.861-0.061-1.271,0.083l-0.408,0.401
	c-0.16,0.129-0.266,0.317-0.287,0.522c-0.026,0.106-0.101,0.838-0.205,2.185c-0.217,1.293-0.815,2.489-1.719,3.438
	c-1.146,1.021-2.574,1.666-4.097,1.858c-1.144,0.254-2.317,0.321-3.482,0.198c-0.346-0.014-0.684-0.11-0.982-0.282
	c-0.064-0.113-0.064-0.252,0-0.363c0.422-1.192,0.724-2.426,0.898-3.68c-0.033-0.142-0.09-0.274-0.164-0.399
	c-0.109-0.136-0.276-0.209-0.449-0.199c-0.45-0.039-0.902-0.054-1.354-0.041c-0.38-0.026-0.778-0.041-1.188-0.041
	c-0.109,0.021-0.202,0.097-0.244,0.201c-0.063,0.131-0.146,0.254-0.246,0.36c-0.305,0.299-0.632,0.567-0.98,0.812
	c-0.701,0.56-1.439,1.069-2.207,1.533c-1.74,1.229-3.777,1.967-5.899,2.143c-1.554,0-3.221-0.055-5-0.163l-2.172-0.199l-0.039-1.334
	c-1.851-0.819-3.752-1.521-5.692-2.101c-0.299-0.028-0.6-0.043-0.9-0.043l-0.411-0.041l-0.327,0.565
	c-0.137,0.275-0.397,0.472-0.7,0.525H12.167c-0.3-0.037-0.553-0.24-0.654-0.525c-0.139-0.305-0.208-0.635-0.205-0.971v-6.75
	c0-1.4-0.028-2.951-0.083-4.652c-0.054-1.35-0.083-2.049-0.083-2.104c0.082-0.512,0.205-0.767,0.37-0.767h20.684
	c0.387-0.041,0.77-0.107,1.148-0.2c0.418-0.087,0.843-0.143,1.27-0.164h14.746l0.042-1.738c0.171-0.531,0.39-1.046,0.652-1.537
	c0.291-0.536,0.512-1.107,0.655-1.7C50.81,2.83,51,2.64,51.24,2.545c0.16-0.078,0.324-0.145,0.493-0.2
	c0-0.245,0.027-0.489,0.081-0.727c0.028-0.291,0.096-0.576,0.2-0.848c0.175-0.374,0.503-0.655,0.899-0.77
	c0.281-0.002,0.533,0.175,0.627,0.44c0.068,0.226,0.123,0.456,0.164,0.689c0.059,0.402,0.059,0.811,0,1.212
	c-0.045,0.005-0.086,0.02-0.123,0.042c-0.064,0.079-0.096,0.181-0.084,0.283v0.887h11.628l1.476-0.848
	c0.272,0,0.411-0.092,0.411-0.282V1.777h-0.247V0.768l0.205-0.2l0.45-0.282l0.943-0.09c0.086,0.033,0.146,0.109,0.161,0.2
	c0.029,0.12,0.046,0.242,0.043,0.365v1.785l0.163,0.6c0.055,0.22,0.151,0.427,0.286,0.608c0.369,0.031,0.739,0.031,1.106,0
	c1.64,1.753,2.498,2.67,2.58,2.751c0.183,0.215,0.283,0.486,0.287,0.767v4.368h5.611l0.245,0.242
	c0.219,0.337,0.319,0.736,0.289,1.136C79.182,13.492,79.095,13.967,78.891,14.396z"/>
</svg>
