<?xml version="1.0" encoding="utf-8"?>
<!-- Generator: Adobe Illustrator 16.0.0, SVG Export Plug-In . SVG Version: 6.00 Build 0)  -->
<!DOCTYPE svg PUBLIC "-//W3C//DTD SVG 1.1//EN" "http://www.w3.org/Graphics/SVG/1.1/DTD/svg11.dtd">
<svg version="1.1" id="case1" xmlns="http://www.w3.org/2000/svg" xmlns:xlink="http://www.w3.org/1999/xlink" x="0px" y="0px"
	 width="92px" height="36px" viewBox="0 0 92 36" enable-background="new 0 0 92 36" xml:space="preserve">
<path id="shape1" fill="#B1DB7F" d="M2.655,12.191c-0.169-0.152-0.267-0.367-0.269-0.594c-0.003-0.237,0.095-0.464,0.269-0.627
	c0.345-0.308,0.869-0.308,1.214,0c0.174,0.163,0.272,0.39,0.27,0.627c-0.003,0.227-0.1,0.442-0.27,0.594
	c-0.173,0.154-0.39,0.232-0.607,0.232S2.828,12.344,2.655,12.191 M43.235,4.447c-0.166,0.002-0.331,0.043-0.482,0.118
	c-0.416,0.231-0.756,0.576-0.981,0.994c0.037,0.016,0.072,0.038,0.104,0.063c0.086,0.102,0.134,0.229,0.135,0.362
	c0.003,0.125-0.046,0.245-0.135,0.332c-0.09,0.087-0.211,0.136-0.338,0.132c-0.095,0.003-0.187-0.02-0.269-0.067
	c-0.212,0.228-0.453,0.428-0.716,0.596c0.046,0.068,0.071,0.147,0.069,0.229c0,0.131-0.064,0.255-0.171,0.331
	c-0.022,0.031-0.049,0.057-0.079,0.079c-0.187,0.144-0.453,0.107-0.595-0.079c-0.056-0.032-0.101-0.076-0.134-0.131
	c-0.202,0.044-0.44,0.098-0.71,0.166v0.064C38.93,7.775,38.869,7.907,38.765,8c-0.089,0.089-0.212,0.138-0.339,0.136
	c-0.126,0.002-0.248-0.045-0.337-0.132c-0.085-0.075-0.133-0.183-0.133-0.295c-0.271,0.037-0.551,0.071-0.842,0.093v0.033
	c0,0.134-0.048,0.262-0.135,0.363c-0.09,0.087-0.21,0.135-0.336,0.132c-0.135,0-0.266-0.046-0.372-0.132
	c-0.083-0.09-0.129-0.206-0.135-0.328c-0.224,0-0.481-0.011-0.774-0.033c0.003,0.124-0.045,0.244-0.135,0.329
	c-0.105,0.085-0.236,0.13-0.371,0.13c-0.125,0.005-0.248-0.042-0.336-0.13c-0.087-0.102-0.136-0.23-0.135-0.364V7.771
	c-1.281-0.089-2.36-0.156-3.237-0.199c-3.909-0.243-7.495-0.34-10.755-0.296c-2.092,0.042-4.171,0.12-6.239,0.231V7.54
	c0.003,0.125-0.047,0.244-0.136,0.332C13.928,7.958,13.807,8.005,13.682,8c-0.136,0.007-0.27-0.039-0.371-0.129
	c-0.084-0.076-0.133-0.185-0.135-0.298c-0.213,0-0.425,0.01-0.638,0.033v0.036c0.004,0.124-0.045,0.244-0.135,0.33
	c-0.089,0.09-0.212,0.139-0.34,0.132c-0.135,0-0.267-0.046-0.37-0.132c-0.085-0.076-0.134-0.185-0.136-0.299
	c-0.203,0-0.405,0.009-0.606,0.034v0.032c0.001,0.13-0.063,0.252-0.17,0.329c-0.021,0.028-0.047,0.054-0.075,0.075
	c-0.187,0.145-0.455,0.111-0.598-0.075c-0.091-0.07-0.141-0.182-0.135-0.296L9.231,7.839v0.066c0.003,0.124-0.046,0.244-0.135,0.329
	C8.99,8.32,8.86,8.366,8.724,8.366C8.599,8.369,8.477,8.323,8.387,8.234C8.303,8.159,8.254,8.051,8.252,7.938
	C8.028,7.96,7.826,7.98,7.647,8.003v0.034C7.65,8.16,7.601,8.28,7.512,8.365C7.415,8.469,7.282,8.529,7.14,8.532
	C7.008,8.533,6.883,8.471,6.804,8.365C6.712,8.294,6.661,8.184,6.669,8.068C6.444,8.09,6.23,8.112,6.028,8.135v0.063
	C6.03,8.322,5.981,8.442,5.892,8.529C5.813,8.634,5.688,8.698,5.556,8.697C5.415,8.695,5.282,8.634,5.185,8.531
	C5.116,8.459,5.068,8.365,5.052,8.267c-0.595,0.051-1.184,0.161-1.755,0.33C3.068,8.734,2.891,8.943,2.792,9.192
	C2.749,9.31,2.726,9.433,2.724,9.557L2.32,9.589l-1.753,2.24l1.753,1.98l0.64-0.033l-0.101,0.199C2.839,14.187,2.9,14.4,3.027,14.57
	c0.225,0.353,0.765,1.045,1.618,2.08c0.877,1.057,1.473,1.75,1.787,2.077c0.322,0.336,0.698,0.615,1.112,0.826
	c0.418,0.176,0.882,0.199,1.315,0.068c0.382-0.107,0.702-0.371,0.878-0.727c0-0.004,0-0.008,0-0.01
	c0.002-0.018,0.018-0.025,0.033-0.023c-0.037-0.021-0.071-0.041-0.101-0.066c-0.065-0.061-0.102-0.145-0.101-0.232
	c-0.004-0.098,0.032-0.193,0.101-0.266c0.131-0.119,0.328-0.131,0.474-0.029c0.068-0.07,0.147-0.125,0.235-0.166
	c0.118-0.066,0.21-0.123,0.303-0.166c-0.021-0.041-0.032-0.084-0.034-0.131c0-0.088,0.038-0.174,0.101-0.23
	c0.061-0.066,0.147-0.1,0.235-0.098c0.101-0.006,0.197,0.03,0.271,0.098c0.027,0.029,0.049,0.061,0.067,0.1
	c0.187-0.068,0.379-0.125,0.574-0.168c-0.021-0.016-0.033-0.039-0.034-0.065c-0.005-0.099,0.032-0.195,0.101-0.265
	c0.077-0.063,0.171-0.096,0.27-0.098c0.087,0,0.173,0.032,0.236,0.098c0.053,0.041,0.087,0.101,0.1,0.166l0.642-0.067
	c-0.02-0.019-0.032-0.041-0.034-0.066c0-0.088,0.037-0.17,0.101-0.232c0.077-0.057,0.171-0.094,0.27-0.098
	c0.089,0,0.174,0.035,0.236,0.098c0.067,0.045,0.105,0.119,0.101,0.199c0.224-0.021,0.45-0.033,0.674-0.033v-0.031
	c0.003-0.094,0.054-0.182,0.134-0.229c0.001-0.002,0.003-0.002,0.004-0.004c0.13-0.129,0.34-0.127,0.468,0.004
	c0.065,0.06,0.101,0.144,0.101,0.229c0.136,0,0.271-0.012,0.405-0.03h0.405c0-0.091,0.036-0.175,0.1-0.231
	c0.063-0.064,0.148-0.097,0.236-0.095c0.098-0.006,0.197,0.026,0.27,0.095c0.064,0.059,0.1,0.143,0.1,0.231
	c1.282-0.002,3.732,0.03,7.352,0.098c3.371,0,6.001-0.065,7.89-0.198c1.837-0.185,3.686-0.229,5.529-0.131
	c1.069,0.063,2.097,0.43,2.966,1.055c0.32,0.248,0.603,0.535,0.844,0.857c0.2,0.236,0.381,0.49,0.538,0.76
	c0.14,0.197,0.31,0.377,0.505,0.521c0.189,0.113,0.405,0.174,0.624,0.176h0.017c0.046,0,0.09-0.002,0.135-0.008
	c0.669-0.143,1.188-0.674,1.315-1.348c0.088-0.289,0.167-0.598,0.235-0.928l0.068-0.395h3.878c0.293-0.663,0.666-0.86,1.113-0.594
	c0.01-0.06,0.047-0.109,0.102-0.133c0.086-0.072,0.193-0.105,0.303-0.101c0.1-0.004,0.197,0.03,0.271,0.101
	c0.055,0.03,0.102,0.078,0.135,0.133c0.07-0.062,0.148-0.105,0.236-0.133c0.24-0.068,0.49-0.101,0.74-0.101
	c0.252-0.006,0.5,0.026,0.742,0.101c0.098,0.022,0.191,0.069,0.271,0.133c0.018-0.039,0.043-0.074,0.07-0.105
	c0.168-0.182,0.453-0.195,0.637-0.027c0.039,0.037,0.072,0.082,0.102,0.133c0.018-0.039,0.043-0.073,0.068-0.104
	c0.168-0.184,0.455-0.197,0.639-0.029c0.039,0.037,0.074,0.082,0.102,0.133c0.08-0.063,0.172-0.108,0.271-0.133
	c0.24-0.072,0.488-0.104,0.74-0.1c0.238-0.004,0.479,0.029,0.709,0.1c0.098,0.023,0.188,0.07,0.271,0.133
	c0.025-0.051,0.059-0.096,0.1-0.133c0.182-0.131,0.426-0.131,0.605,0c0.039,0.037,0.074,0.082,0.104,0.133
	c0.031-0.055,0.08-0.102,0.135-0.133c0.086-0.072,0.193-0.104,0.303-0.1c0.102-0.004,0.195,0.031,0.27,0.1
	c0.057,0.031,0.104,0.078,0.135,0.133c0.07-0.061,0.148-0.104,0.238-0.133c0.484-0.131,0.996-0.131,1.48,0
	c0.096,0.033,0.186,0.078,0.271,0.133c0.01-0.059,0.049-0.108,0.102-0.133c0.012-0.01,0.025-0.018,0.035-0.024
	c0.229-0.144,0.531-0.072,0.672,0.157c0.025-0.051,0.063-0.096,0.102-0.133c0.182-0.131,0.426-0.131,0.607,0
	c0.041,0.037,0.074,0.082,0.1,0.133c0.08-0.063,0.174-0.108,0.271-0.133c0.229-0.07,0.469-0.104,0.707-0.1
	c0.252-0.004,0.502,0.027,0.742,0.1c0.1,0.023,0.189,0.07,0.27,0.133c0.025-0.051,0.061-0.096,0.102-0.133
	c0.182-0.131,0.426-0.131,0.605,0c0.084,0.072,0.174,0.14,0.271,0.197c0.063-0.041,0.129-0.07,0.197-0.09
	c0.369-0.1,0.746,0.119,0.848,0.486l16.047,0.137l9.914-7.428c-1.281-0.288-2.943-0.598-4.99-0.927
	c-3.871-0.637-7.771-1.076-11.691-1.32c-3.707-0.198-9.799-0.354-18.271-0.465L44.844,7.307c-0.046-0.449-0.136-0.891-0.269-1.321
	c-0.271-0.924-0.641-1.431-1.113-1.519c-0.06-0.011-0.121-0.018-0.181-0.018L43.235,4.447L43.235,4.447z"/>
<g>
	<defs>
		<path id="shape1_1_" d="M2.655,12.191c-0.169-0.152-0.267-0.367-0.269-0.594c-0.003-0.237,0.095-0.464,0.269-0.627
			c0.345-0.308,0.869-0.308,1.214,0c0.174,0.163,0.272,0.39,0.27,0.627c-0.003,0.227-0.1,0.442-0.27,0.594
			c-0.173,0.154-0.39,0.232-0.607,0.232S2.828,12.344,2.655,12.191 M43.235,4.447c-0.166,0.002-0.331,0.043-0.482,0.118
			c-0.416,0.231-0.756,0.576-0.981,0.994c0.037,0.016,0.072,0.038,0.104,0.063c0.086,0.102,0.134,0.229,0.135,0.362
			c0.003,0.125-0.046,0.245-0.135,0.332c-0.09,0.087-0.211,0.136-0.338,0.132c-0.095,0.003-0.187-0.02-0.269-0.067
			c-0.212,0.228-0.453,0.428-0.716,0.596c0.046,0.068,0.071,0.147,0.069,0.229c0,0.131-0.064,0.255-0.171,0.331
			c-0.022,0.031-0.049,0.057-0.079,0.079c-0.187,0.144-0.453,0.107-0.595-0.079c-0.056-0.032-0.101-0.076-0.134-0.131
			c-0.202,0.044-0.44,0.098-0.71,0.166v0.064C38.93,7.775,38.869,7.907,38.765,8c-0.089,0.089-0.212,0.138-0.339,0.136
			c-0.126,0.002-0.248-0.045-0.337-0.132c-0.085-0.075-0.133-0.183-0.133-0.295c-0.271,0.037-0.551,0.071-0.842,0.093v0.033
			c0,0.134-0.048,0.262-0.135,0.363c-0.09,0.087-0.21,0.135-0.336,0.132c-0.135,0-0.266-0.046-0.372-0.132
			c-0.083-0.09-0.129-0.206-0.135-0.328c-0.224,0-0.481-0.011-0.774-0.033c0.003,0.124-0.045,0.244-0.135,0.329
			c-0.105,0.085-0.236,0.13-0.371,0.13c-0.125,0.005-0.248-0.042-0.336-0.13c-0.087-0.102-0.136-0.23-0.135-0.364V7.771
			c-1.281-0.089-2.36-0.156-3.237-0.199c-3.909-0.243-7.495-0.34-10.755-0.296c-2.092,0.042-4.171,0.12-6.239,0.231V7.54
			c0.003,0.125-0.047,0.244-0.136,0.332C13.928,7.958,13.807,8.005,13.682,8c-0.136,0.007-0.27-0.039-0.371-0.129
			c-0.084-0.076-0.133-0.185-0.135-0.298c-0.213,0-0.425,0.01-0.638,0.033v0.036c0.004,0.124-0.045,0.244-0.135,0.33
			c-0.089,0.09-0.212,0.139-0.34,0.132c-0.135,0-0.267-0.046-0.37-0.132c-0.085-0.076-0.134-0.185-0.136-0.299
			c-0.203,0-0.405,0.009-0.606,0.034v0.032c0.001,0.13-0.063,0.252-0.17,0.329c-0.021,0.028-0.047,0.054-0.075,0.075
			c-0.187,0.145-0.455,0.111-0.598-0.075c-0.091-0.07-0.141-0.182-0.135-0.296L9.231,7.839v0.066
			c0.003,0.124-0.046,0.244-0.135,0.329C8.99,8.32,8.86,8.366,8.724,8.366C8.599,8.369,8.477,8.323,8.387,8.234
			C8.303,8.159,8.254,8.051,8.252,7.938C8.028,7.96,7.826,7.98,7.647,8.003v0.034C7.65,8.16,7.601,8.28,7.512,8.365
			C7.415,8.469,7.282,8.529,7.14,8.532C7.008,8.533,6.883,8.471,6.804,8.365C6.712,8.294,6.661,8.184,6.669,8.068
			C6.444,8.09,6.23,8.112,6.028,8.135v0.063C6.03,8.322,5.981,8.442,5.892,8.529C5.813,8.634,5.688,8.698,5.556,8.697
			C5.415,8.695,5.282,8.634,5.185,8.531C5.116,8.459,5.068,8.365,5.052,8.267c-0.595,0.051-1.184,0.161-1.755,0.33
			C3.068,8.734,2.891,8.943,2.792,9.192C2.749,9.31,2.726,9.433,2.724,9.557L2.32,9.589l-1.753,2.24l1.753,1.98l0.64-0.033
			l-0.101,0.199C2.839,14.187,2.9,14.4,3.027,14.57c0.225,0.353,0.765,1.045,1.618,2.08c0.877,1.057,1.473,1.75,1.787,2.077
			c0.322,0.336,0.698,0.615,1.112,0.826c0.418,0.176,0.882,0.199,1.315,0.068c0.382-0.107,0.702-0.371,0.878-0.727
			c0-0.004,0-0.008,0-0.01c0.002-0.018,0.018-0.025,0.033-0.023c-0.037-0.021-0.071-0.041-0.101-0.066
			c-0.065-0.061-0.102-0.145-0.101-0.232c-0.004-0.098,0.032-0.193,0.101-0.266c0.131-0.119,0.328-0.131,0.474-0.029
			c0.068-0.07,0.147-0.125,0.235-0.166c0.118-0.066,0.21-0.123,0.303-0.166c-0.021-0.041-0.032-0.084-0.034-0.131
			c0-0.088,0.038-0.174,0.101-0.23c0.061-0.066,0.147-0.1,0.235-0.098c0.101-0.006,0.197,0.03,0.271,0.098
			c0.027,0.029,0.049,0.061,0.067,0.1c0.187-0.068,0.379-0.125,0.574-0.168c-0.021-0.016-0.033-0.039-0.034-0.065
			c-0.005-0.099,0.032-0.195,0.101-0.265c0.077-0.063,0.171-0.096,0.27-0.098c0.087,0,0.173,0.032,0.236,0.098
			c0.053,0.041,0.087,0.101,0.1,0.166l0.642-0.067c-0.02-0.019-0.032-0.041-0.034-0.066c0-0.088,0.037-0.17,0.101-0.232
			c0.077-0.057,0.171-0.094,0.27-0.098c0.089,0,0.174,0.035,0.236,0.098c0.067,0.045,0.105,0.119,0.101,0.199
			c0.224-0.021,0.45-0.033,0.674-0.033v-0.031c0.003-0.094,0.054-0.182,0.134-0.229c0.001-0.002,0.003-0.002,0.004-0.004
			c0.13-0.129,0.34-0.127,0.468,0.004c0.065,0.06,0.101,0.144,0.101,0.229c0.136,0,0.271-0.012,0.405-0.03h0.405
			c0-0.091,0.036-0.175,0.1-0.231c0.063-0.064,0.148-0.097,0.236-0.095c0.098-0.006,0.197,0.026,0.27,0.095
			c0.064,0.059,0.1,0.143,0.1,0.231c1.282-0.002,3.732,0.03,7.352,0.098c3.371,0,6.001-0.065,7.89-0.198
			c1.837-0.185,3.686-0.229,5.529-0.131c1.069,0.063,2.097,0.43,2.966,1.055c0.32,0.248,0.603,0.535,0.844,0.857
			c0.2,0.236,0.381,0.49,0.538,0.76c0.14,0.197,0.31,0.377,0.505,0.521c0.189,0.113,0.405,0.174,0.624,0.176h0.017
			c0.046,0,0.09-0.002,0.135-0.008c0.669-0.143,1.188-0.674,1.315-1.348c0.088-0.289,0.167-0.598,0.235-0.928l0.068-0.395h3.878
			c0.293-0.663,0.666-0.86,1.113-0.594c0.01-0.06,0.047-0.109,0.102-0.133c0.086-0.072,0.193-0.105,0.303-0.101
			c0.1-0.004,0.197,0.03,0.271,0.101c0.055,0.03,0.102,0.078,0.135,0.133c0.07-0.062,0.148-0.105,0.236-0.133
			c0.24-0.068,0.49-0.101,0.74-0.101c0.252-0.006,0.5,0.026,0.742,0.101c0.098,0.022,0.191,0.069,0.271,0.133
			c0.018-0.039,0.043-0.074,0.07-0.105c0.168-0.182,0.453-0.195,0.637-0.027c0.039,0.037,0.072,0.082,0.102,0.133
			c0.018-0.039,0.043-0.073,0.068-0.104c0.168-0.184,0.455-0.197,0.639-0.029c0.039,0.037,0.074,0.082,0.102,0.133
			c0.08-0.063,0.172-0.108,0.271-0.133c0.24-0.072,0.488-0.104,0.74-0.1c0.238-0.004,0.479,0.029,0.709,0.1
			c0.098,0.023,0.188,0.07,0.271,0.133c0.025-0.051,0.059-0.096,0.1-0.133c0.182-0.131,0.426-0.131,0.605,0
			c0.039,0.037,0.074,0.082,0.104,0.133c0.031-0.055,0.08-0.102,0.135-0.133c0.086-0.072,0.193-0.104,0.303-0.1
			c0.102-0.004,0.195,0.031,0.27,0.1c0.057,0.031,0.104,0.078,0.135,0.133c0.07-0.061,0.148-0.104,0.238-0.133
			c0.484-0.131,0.996-0.131,1.48,0c0.096,0.033,0.186,0.078,0.271,0.133c0.01-0.059,0.049-0.108,0.102-0.133
			c0.012-0.01,0.025-0.018,0.035-0.024c0.229-0.144,0.531-0.072,0.672,0.157c0.025-0.051,0.063-0.096,0.102-0.133
			c0.182-0.131,0.426-0.131,0.607,0c0.041,0.037,0.074,0.082,0.1,0.133c0.08-0.063,0.174-0.108,0.271-0.133
			c0.229-0.07,0.469-0.104,0.707-0.1c0.252-0.004,0.502,0.027,0.742,0.1c0.1,0.023,0.189,0.07,0.27,0.133
			c0.025-0.051,0.061-0.096,0.102-0.133c0.182-0.131,0.426-0.131,0.605,0c0.084,0.072,0.174,0.14,0.271,0.197
			c0.063-0.041,0.129-0.07,0.197-0.09c0.369-0.1,0.746,0.119,0.848,0.486l16.047,0.137l9.914-7.428
			c-1.281-0.288-2.943-0.598-4.99-0.927c-3.871-0.637-7.771-1.076-11.691-1.32c-3.707-0.198-9.799-0.354-18.271-0.465L44.844,7.307
			c-0.046-0.449-0.136-0.891-0.269-1.321c-0.271-0.924-0.641-1.431-1.113-1.519c-0.06-0.011-0.121-0.018-0.181-0.018L43.235,4.447
			L43.235,4.447z"/>
	</defs>
	<clipPath id="shape1_5_">
		<use xlink:href="#shape1_1_"  overflow="visible"/>
	</clipPath>
	<g clip-path="url(#shape1_5_)">
		<g>
			<g>
				<path fill="#033500" d="M25.412,32.425c-0.508,0-1.016,0-1.523,0c-0.962-0.194-1.925-0.396-3.081-0.629
					c-0.092,0.104-0.316,0.365-0.541,0.629c-4.574,0-9.147,0-13.721,0c-0.277-0.461-0.643-0.896-0.798-1.396
					c-0.098-0.313,0.119-0.727,0.195-1.094c0.338,0.08,0.689,0.127,1.01,0.254c0.158,0.063,0.259,0.271,0.386,0.412
					c0.571,0.633,0.943,0.422,1.261-0.295c-0.311-0.223-0.584-0.416-1.002-0.717c1.415-0.545,1.932-1.512,1.884-2.938
					c-0.012-0.35,0.739-0.859,1.234-1.055c0.57-0.222,1.256-0.121,1.872-0.257c0.819-0.178,1.796-0.026,2.474-1.103
					c-0.479-0.159-0.853-0.352-1.246-0.405c-0.562-0.086-1.154,0-1.7-0.131c-0.363-0.089-0.958-0.449-0.942-0.646
					c0.04-0.475,0.255-1.146,0.616-1.344c1.44-0.781,3.218-0.51,4.385,0.094c1.223,0.633,2.229,0.672,3.375,0.469
					c2.883-0.508,5.544-0.301,7.77,1.896c0.438,0.436,1.043,0.729,1.619,0.979c1.744,0.752,3.928,0.148,5.049-1.34
					c0.693-0.918,0.39-1.805-0.635-2.197c-0.687-0.266-1.623-0.59-1.864-1.145c-0.403-0.924-0.923-1.156-1.8-1.141
					c-1.238,0.021-2.081-0.734-2.223-1.992c-0.083-0.732-0.17-1.487-0.078-2.207c0.042-0.338,0.459-0.69,0.788-0.914
					c0.769-0.523,1.607-0.946,2.382-1.461c1.347-0.9,2.661-1.787,4.336-0.682c0.249,0.163,0.691,0.152,1.007,0.07
					c1.209-0.307,2.403-0.678,3.702-1.053c-0.229-0.477-0.493-1.024-0.774-1.607c-0.294,0-0.579,0-0.863,0
					c0.244-0.266,0.52-0.396,0.782-0.373c0.985,0.094,1.963,0.271,2.948,0.35c0.855,0.067,1.392-0.42,1.556-1.229
					c0.163-0.81-0.138-1.511-0.947-1.753c-1.313-0.391-2.096-1.637-3.6-1.877c-0.948-0.153-1.613-0.438-2.252,0.477
					c-0.468-0.502-0.553-0.957,0-1.308c0.239-0.151,0.608-0.131,0.918-0.134c1.081-0.008,2.205,0.279,2.975-0.92
					c0.189-0.291,0.861-0.287,1.318-0.389c0.365-0.082,0.776-0.041,1.101-0.195c0.313-0.146,0.54-0.471,0.805-0.717
					c-0.342-0.144-0.687-0.404-1.029-0.399c-0.562,0.004-1.118,0.206-1.684,0.278C40.112,1.39,39.522,1.021,39.47,0.32
					c-0.03-0.41,0.345-0.984,0.708-1.25c0.368-0.269,0.942-0.284,1.433-0.35c0.687-0.091,1.385-0.083,2.066-0.198
					c0.635-0.108,0.566-0.539,0.223-0.893c-0.205-0.212-0.546-0.428-0.815-0.416c-1.453,0.065-2.912,0.131-4.346,0.35
					c-0.502,0.078-1.09,0.494-1.372,0.928c-0.659,1.014-1.58,1.431-2.674,1.785c-0.574,0.186-1.189,0.779-1.427,1.342
					c-0.369,0.87-0.901,1.26-1.777,1.275c-0.857,0.016-1.717-0.041-2.569,0.021c-0.284,0.021-0.548,0.312-0.821,0.479
					c0.208,0.186,0.444,0.349,0.62,0.561c0.298,0.361,0.559,0.75,0.835,1.129c-0.34,0.233-0.654,0.553-1.031,0.668
					c-0.299,0.092-0.678-0.049-1.014-0.121c-0.779-0.166-1.541-0.655-2.35-0.037c-0.107,0.084-0.397-0.08-0.605-0.115
					c-0.259-0.047-0.521-0.081-0.782-0.114c-0.611-0.075-1.22-0.187-1.833-0.215c-0.739-0.037-1.92-0.286-2.14,0.056
					c-0.631,0.979-2.167,1.172-2.196,2.641c-0.009,0.504-0.302,1-0.514,1.652c-0.221-0.291-0.39-0.514-0.566-0.746
					c-1.682,0.282-3.585-0.34-4.983,1.143c0.414,1.389,1.444,1.379,2.535,1.297c3.097-0.232,6.195-0.391,9.275,0.199
					c0.295,0.057,0.812,0.13,0.828,0.248c0.042,0.32-0.129,0.668-0.223,1.033c-1.355-0.398-2.422-0.149-3.43,0.639
					c-0.36,0.283-0.922,0.393-1.402,0.425c-1.284,0.093-1.357,0.151-1.014,1.519c0.912,0.119,1.868,0.209,2.803,0.399
					c0.162,0.033,0.386,0.55,0.321,0.765c-0.388,1.301-1.201,2.203-2.594,2.479c-0.769,0.151-1.635,0.149-2.28,0.522
					c-1.235,0.716-2.398,0.935-3.748,0.401c-0.56-0.225-1.377-0.477-1.802-0.231c-1.397,0.798-2.364,0.274-3.409-0.623
					c-0.759-0.654-1.69-0.965-2.782-0.575c0.142,0.296,0.245,0.559,0.386,0.798c0.936,1.58,1.397,3.309,1.64,5.111
					c0.197,1.465-0.619,2.27-2.069,1.98c-0.492-0.096-0.987-0.223-1.452-0.409c-0.53-0.214-0.993-0.353-1.438,0.168
					c-0.445,0.519-0.271,0.981,0.04,1.467c0.418,0.66,0.351,1.14-0.516,1.289c0-5.397,0-10.795,0-16.195
					c0.274,0.041,0.631-0.014,0.804,0.141c0.492,0.438,0.927,0.944,1.35,1.455c0.609,0.732,1.355,0.857,2.105,0.363
					c1.206-0.795,2.343-0.602,3.601-0.118c1.011,0.39,2.11,0.61,3.19,0.735c0.821,0.097,1.543-0.6,1.405-1.193
					c-0.212-0.902-0.962-0.588-1.483-0.475c-0.783,0.17-1.433-0.014-1.876-0.594c-0.827-1.076-1.821-1.189-3.026-0.818
					c-0.822,0.256-1.12-0.061-0.977-0.914c0.034-0.2,0.095-0.395,0.194-0.793C4.812,10.888,3.789,9.999,3.25,8.781
					C2.796,7.765,2.228,7.39,1.21,7.46c0-1.334,0-2.668,0-4.002c0.447-0.475,1.054-0.873,0.783-1.733
					C1.741,1.669,1.476,1.61,1.21,1.552c0-0.762,0-1.524,0-2.286C2.29-0.412,3.371-0.091,4.452,0.23
					c1.556-1.301,2.943-0.736,4.289,0.379C8.83,0.681,8.984,0.669,9.104,0.71C9.84,0.975,9.7,1.585,9.5,2.054
					C9.305,2.497,8.894,2.628,8.41,2.236C7.78,1.727,7.086,1.723,6.389,2.173c-1.29,0.836-2.59,1.654-3.941,2.517
					c0.567,0.944,1.036,1.726,1.57,2.617C5.494,5.849,7.081,4.811,9.165,6.21C8.98,5.897,8.796,5.587,8.539,5.151
					c1.23-0.408,2.372-0.881,3.56-1.15c1.167-0.267,2.378-0.349,3.575-0.461c0.332-0.031,0.68,0.125,1.023,0.188
					c0.229,0.042,0.46,0.072,0.749,0.117c0.007-0.94-0.662-1.143-1.203-1.502c-0.59-0.393-1.15-0.852-1.643-1.358
					c-0.857-0.879-1.644-1.829-2.488-2.722c-0.158-0.167-0.468-0.318-0.678-0.285c-1.035,0.16-1.788-0.2-2.25-1.209
					C8.656-2.124,8.43-2.063,7.397-2.646c-1.329-0.753-1.544-0.72-2.601,0.392C4.601-2.047,4.343-1.88,4.204-1.643
					C3.774-0.911,3.332-0.662,2.56-1.275C2.216-1.547,1.667-1.559,1.21-1.688c0-3.621,0-7.242,0-10.863
					c0.145,0,0.29-0.001,0.436-0.001c1.026-0.648,2.055-1.034,3.216-0.259c0.188,0.126,0.555-0.044,0.834-0.021
					c0.894,0.076,1.832,0.036,2.663,0.312c0.685,0.227,1.166,0.253,1.689-0.229c0.679-0.625,1.227-0.443,1.883,0.166
					c0.768,0.711,1.694,1.249,2.552,1.861c0.084-0.042,0.167-0.084,0.251-0.126c-0.42-1.681,1.833-2.364,1.419-4.179
					c-0.26,0.287-0.438,0.483-0.775,0.856c0.225-0.536,0.354-0.845,0.5-1.19c-0.231-0.163-0.429-0.313-0.637-0.448
					c-1.327-0.854-2.519-1.785-2.664-3.558c-0.019-0.231-0.547-0.482-0.883-0.612c-0.634-0.247-1.341-0.332-1.934-0.645
					c-0.275-0.144-0.51-0.679-0.475-1.006c0.029-0.26,0.483-0.651,0.771-0.671c0.743-0.051,1.497,0.063,2.246,0.125
					c0.716,0.063,1.44,0.253,2.142,0.185c0.696-0.067,1.084-0.688,0.822-1.323c-0.128-0.311-0.77-0.555-1.188-0.568
					c-0.68-0.021-1.366,0.229-2.052,0.252c-0.754,0.026-1.068-0.483-0.832-1.195c0.364-1.102,1.398-1.656,2.675-1.394
					c0.854,0.175,1.696,0.407,2.474,0.597c-0.117,0.303-0.231,0.599-0.344,0.894c0.314,0.102,0.624,0.267,0.945,0.29
					c0.503,0.038,1.039,0.077,1.516-0.054c2.401-0.655,4.633-0.165,6.833,0.832c1.837,0.832,3.785,1.38,5.803,1.265
					c0.995-0.057,1.989-0.526,2.929-0.934c0.264-0.115,0.479-0.688,0.447-1.025c-0.023-0.247-0.485-0.455-0.753-0.678
					c-0.706-0.594-1.51-1.106-2.088-1.805c-0.471-0.568-0.79-0.759-1.327-0.268c0.12,0.234,0.26,0.443,0.318,0.674
					c0.012,0.048-0.27,0.193-0.43,0.259c-0.337,0.139-0.737,0.185-1.016,0.395c-0.644,0.482-1.296,0.47-1.954,0.139
					c-0.848-0.425-1.673-0.894-2.494-1.367c-0.987-0.571-1.044-1.006-0.299-1.836c0.16-0.178,0.263-0.408,0.404-0.631
					c0.622,0.923,1.497,0.918,2.058,0.009c0.358-0.582,0.679-0.997,1.508-0.667c0.335,0.134,1.087-0.065,1.254-0.348
					c0.604-1.024,1.446-1.246,2.544-1.254c1.125-0.007,2.092,0.705,2.381,1.789c0.126,0.479,0.525,1.011,0.952,1.26
					c1.154,0.67,1.187,0.616,0.552,1.909c0.431,0.062,0.831,0.107,1.227,0.177c0.992,0.175,2.052,0.197,2.956,0.584
					c1.07,0.458,1.973,0.448,2.98-0.063c1.096-0.555,2.248-0.997,3.358-1.524c0.711-0.336,1.444-0.663,2.065-1.133
					c0.828-0.628,1.015-1.613,0.58-2.267c0.385-0.178,0.771-0.358,1.158-0.539c-0.392-0.766-0.841-0.685-1.25-0.254
					c-0.166-0.263-0.273-0.624-0.429-0.644c-0.879-0.114-0.75-0.679-0.641-1.26c6.396,0,12.795,0,19.246,0c0,4.192,0,8.384,0,12.577
					c-0.148,0.025-0.33,0.007-0.449,0.083c-0.338,0.216-0.645,0.472-0.969,0.711c0.268,0.177,0.523,0.374,0.803,0.525
					c0.188,0.101,0.41,0.14,0.615,0.206c0,1.715,0,3.43,0,5.146c-0.564,0.024-1.139,0.003-1.695,0.086
					c-0.926,0.139-1.854,0.301-2.756,0.551c-0.248,0.069-0.572,0.493-0.557,0.731c0.021,0.247,0.375,0.534,0.648,0.679
					c0.264,0.139,0.606,0.177,0.916,0.157c1.147-0.078,2.297-0.196,3.44-0.3c0,4.701,0,9.401,0,14.103
					c-0.59-0.171-1.19-0.31-1.771-0.521c-0.528-0.193-1.006-0.562-1.545-0.681c-1.086-0.241-2.205-0.344-3.303-0.553
					c-0.266-0.051-0.502-0.289-0.748-0.441c0.154-0.246,0.25-0.601,0.471-0.718c1.045-0.557,2.109-0.475,3.197,0.09
					c0.355-0.66,0.707-1.31,1.16-2.146c-0.967-0.075-1.744-0.12-2.518-0.202c-0.449-0.047-0.926-0.081-1.334-0.255
					c-1.074-0.462-1.17-0.45-1.67,0.861c-0.783-0.414-1.56-0.783-2.287-1.222c-0.723-0.435-1.4-0.941-1.984-1.339
					c-0.063,0.48,0,1.012-0.229,1.337c-0.146,0.209-0.728,0.148-1.109,0.146c-0.17-0.001-0.332-0.175-0.51-0.24
					c-0.926-0.336-1.855-0.662-2.785-0.991c-0.064,0.133-0.131,0.266-0.195,0.399c0.412,0.304,0.816,0.618,1.236,0.91
					c0.723,0.505,1.58,0.887,2.152,1.526c0.594,0.662,0.903,1.582,2.088,1.477c-0.474,0.135-0.916,0.182-1.246,0.011
					c-1.15-0.595-2.246-1.291-3.396-1.888c-0.295-0.152-0.721-0.16-1.057-0.093c-0.582,0.117-0.67-0.093-0.601-0.601
					c0.105-0.755-0.297-0.756-0.896-0.527c0.479,0.705,0.246,1.053-0.502,1.192c-0.496,0.093-1.037,0.163-1.453,0.414
					c-0.35,0.211-0.833,0.745-0.764,1.004c0.201,0.742,0.496,1.587,1.041,2.076c0.729,0.655,0.645,1.122,0.133,1.747l0.023-0.021
					c-0.545,0.679-1.248,0.885-2.107,0.82c-0.302-0.023-0.627,0.279-0.943,0.434c0.27,0.27,0.494,0.654,0.819,0.777
					c0.395,0.147,0.875,0.108,1.314,0.093c1.382-0.048,2.475,0.616,3.651,1.379c-0.908,0.772-1.729,1.469-2.547,2.166
					c0.062,0.08,0.112,0.161,0.17,0.239c1.334-0.106,2.326,0.606,3.231,1.402c1.386,1.215,2.924,1.788,4.781,1.676
					c0.641-0.035,1.336,0.246,1.945,0.524c0.859,0.39,2.672,0.026,3.324-0.642c0.342-0.35,0.881-0.569,1.371-0.707
					c0.51-0.141,1.078-0.063,1.604-0.164c1.332-0.25,1.691-0.825,1.598-2.193c-0.024-0.355,0.188-1.001,0.4-1.052
					c1.186-0.282,1.398-1.147,1.527-2.14c0.047-0.363,0.166-0.721,0.25-1.08c0,1.27,0,2.541,0,3.813
					c-0.939,0.188-1.508,0.751-1.705,1.688c-0.113,0.527-0.24,1.049-0.326,1.578c-0.188,1.141-0.477,2.219-1.449,2.982
					c-0.191,0.15-0.445,0.417-0.422,0.604c0.053,0.451,0.197,0.914,0.416,1.313c0.084,0.155,0.617,0.274,0.688,0.19
					c0.267-0.313,0.479-0.7,0.603-1.094c0.063-0.207-0.14-0.479-0.162-0.725c-0.11-1.068,0.229-1.423,1.31-1.493
					c0.354-0.022,0.703-0.183,1.055-0.28c0,5.463,0,10.929,0,16.39c-1.002,0.252-1.268-0.565-1.715-1.156
					c-0.252-0.332-0.637-0.898-0.867-0.854c-0.967,0.174-1.9,0.525-2.828,0.86c-0.123,0.046-0.146,0.356-0.215,0.54
					c0.443,0.09,0.816,0.139,1.17,0.254c0.73,0.236,1.385,0.809,1.057,1.516c-0.4,0.854-0.141,1.646-0.221,2.463
					c-5.146,0-10.291,0-15.438,0c0.651-0.342,1.274-0.887,1.963-0.986c1.43-0.207,2.893-0.198,4.342-0.237
					c1.324-0.035,2.346-0.668,3.57-1.608c-1.308,0.116-2.148-0.041-2.205-1.345c-0.01-0.198-0.42-0.45-0.691-0.551
					c-0.469-0.171-0.973-0.326-1.465-0.339c-0.629-0.018-0.66-0.352-0.604-0.811c0.084-0.695,0.604-0.881,1.166-0.854
					c0.973,0.053,1.954,0.127,2.907,0.313c2.082,0.412,3.197-0.162,3.565-2.074c-0.563-0.137-1.137-0.266-1.704-0.408
					c-0.427-0.104-0.906-0.137-1.253-0.366c-0.684-0.453-1.288-1.021-1.795-1.438c0.123-0.479,0.537-1.154,0.351-1.539
					c-0.336-0.699-1.062-0.393-1.678-0.125c0.18,0.392,0.336,0.738,0.608,1.344c-0.627-0.1-1.053-0.069-1.379-0.233
					c-1.104-0.562-1.094-0.584-1.563,0.632c-0.707,1.825-1.468,2.344-3.343,2.313c-0.823-0.011-1.651-0.033-2.477,0.01
					c-0.563,0.026-1.135,0.104-1.671,0.263c-0.917,0.278-1.103,0.932-0.559,1.728c0.176,0.255,0.351,0.513,0.617,0.897
					c-0.856,0.196-1.584,0.416-2.328,0.526c-0.792,0.117-1.316,0.36-1.226,1.312c0.073,0.75-0.41,0.963-1.085,0.971
					c-0.765,0.014-0.941-0.428-0.83-1.041c0.092-0.514,0.296-1.006,0.435-1.51c0.135-0.496,0.249-0.994,0.433-1.732
					c-0.565,0.223-0.806,0.291-1.018,0.41c-1.274,0.709-2.572,1.127-4.084,0.826c-1.021-0.197-1.38,0.332-1.106,1.361
					c0.057,0.217,0.113,0.432,0.205,0.633c0.375,0.828,0.037,1.285-0.776,1.438c-0.394,0.075-0.809,0.037-1.215,0.06
					c-0.868,0.041-1.735,0.104-2.604,0.123c-0.347,0.006-0.695-0.088-1.042-0.138c-0.506,0.069-1.451,0.322-1.476,0.646
					C27.169,32.175,26.17,32.104,25.412,32.425z M40.854-15.13c-0.506-0.012-1.013-0.015-1.519-0.039
					c-1.125-0.052-2.171,0.039-2.434,1.039c-0.736,0.209-1.301,0.232-1.689,0.507c-0.968,0.688-1.977,0.949-3.135,0.706
					c-0.494-0.104-0.998-0.164-1.499-0.226c-2.19-0.268-4.439-0.16-6.527-1.093c-0.346-0.154-0.873-0.159-1.218-0.009
					c-1.118,0.486-2.135,0.152-3.194-0.166c-0.506-0.151-0.937-0.043-1.19,0.594c-0.238,0.6-0.706,1.104-1.054,1.665
					c-0.351,0.563-0.678,1.14-0.965,1.625c1.021,0.124,1.914,0.183,2.786,0.351c0.914,0.176,1.805,0.468,2.71,0.69
					c0.487,0.119,1.021,0.118,1.464,0.32c0.286,0.13,0.643,0.559,0.61,0.808c-0.033,0.26-0.462,0.583-0.775,0.667
					c-0.445,0.122-0.942,0.054-1.417,0.061c-1.293,0.019-1.536,0.359-0.964,1.612c-1.077,0.229-2.122,0.45-3.167,0.672
					C17.689-5.2,17.7-5.053,17.712-4.907c0.689,0.102,1.377,0.203,2.148,0.317c0,0.447,0,0.898,0,1.457
					c1.685-0.36,2.899,0.451,4.072,1.356c1.288,0.993,2.804,1.208,4.359,1.44c2.12,0.313,3.654-1.24,5.563-1.571
					c0.501-0.086,0.44-0.631,0.047-0.863c-0.29-0.17-0.738-0.236-1.063-0.151c-0.887,0.23-1.73,0.631-2.62,0.829
					c-0.349,0.078-0.818-0.139-1.154-0.35c-0.167-0.105-0.301-0.622-0.204-0.729c0.246-0.271,0.627-0.421,0.963-0.603
					c0.074-0.04,0.2,0.021,0.28-0.015c0.242-0.106,0.632-0.201,0.67-0.366c0.045-0.204-0.144-0.574-0.34-0.697
					c-0.529-0.331-1.103-0.603-1.684-0.834c-0.556-0.221-1.21-0.26-1.695-0.572c-0.384-0.248-0.892-0.919-0.786-1.172
					c0.167-0.404,0.825-0.897,1.224-0.855c0.917,0.094,1.833,0.415,2.692,0.781c0.869,0.371,1.632,0.992,2.504,1.351
					c2.478,1.02,4.796,0.662,6.135-1.666c0.424-0.737,0.878-0.901,1.582-0.78c0.361,0.062,0.707,0.218,1.068,0.286
					c0.452,0.087,1.036,0.333,1.351,0.148c1.015-0.594,2.102-0.302,3.138-0.481c0.752-0.129,1.461-0.514,2.192-0.785
					c-0.037-0.125-0.074-0.25-0.113-0.376c-0.666-0.248-1.242,1.307-1.85,0.396c0.899-0.657,1.776-1.289,2.643-1.934
					c0.416-0.309,0.725-0.448,1.037,0.175c0.148,0.294,0.555,0.553,0.893,0.643c1.553,0.409,3.082,0.701,4.185,2.136
					c0.686,0.894,1.877,1.139,3.024,0.978c1-0.141,1.979-0.436,2.979-0.573c0.795-0.108,0.557-0.744,0.655-1.171
					c0.021-0.092-0.479-0.426-0.754-0.449c-0.789-0.063-1.59,0.004-2.383-0.033c-1.992-0.094-2.771-1.458-1.842-3.191
					c0.125-0.231,0.232-0.47,0.379-0.765c-1.793-0.191-3.836,0.603-4.648-1.705c-0.336,0-0.616,0-0.911,0
					c-0.23,0.804-0.462,1.608-0.691,2.416c-0.364,1.292-1.563,0.43-2.271,0.865c-0.146,0.089-0.383,0.085-0.561,0.041
					c-0.357-0.092-0.826-0.136-1.027-0.381c-0.76-0.929-1.617-1.065-2.703-0.663c-0.543,0.201-1.421-0.596-1.136-0.886
					c0.956-0.97,0.831-1.952,0.339-3.032c-0.037-0.081,0.025-0.206,0.054-0.389c-0.402,0.033-0.844-0.064-0.996,0.104
					c-0.592,0.654-1.091,1.392-1.625,2.098L40.854-15.13z M46.773-23.609c-0.684,0.318-1.139,0.673-1.625,0.724
					c-0.732,0.075-1.267,0.238-1.24,1.075c0.026,0.798,0.286,1.363,1.259,1.466c0.43,0.046,1.136,0.504,1.158,0.817
					c0.057,0.757,0.396,1.201,0.909,1.67c0.801,0.733,0.748,1.091-0.121,1.712c0.863,0.487,1.797,0.606,2.797,0.184
					c1.779-0.754,3.553-1.047,5.434-0.354c0.348,0.127,1.084,0.027,1.203-0.199c0.752-1.441,1.928-1.86,3.469-1.901
					c1.078-0.028,2.139-0.46,3.224-0.592c0.897-0.109,1.116-0.349,1.01-1.276c-0.035-0.313,0.19-0.687,0.381-0.982
					c0.131-0.21,0.396-0.336,0.922-0.75c-2.227-0.091-3.217-1.008-2.729-3.094c-0.507-0.036-0.91-0.009-1.283-0.109
					c-0.39-0.107-0.961-0.252-1.069-0.531c-0.277-0.722-0.8-0.668-1.375-0.731c-0.742-0.081-1.478-0.269-2.302-0.428
					c-0.606,0.425-1.41,0.982-2.205,1.546c-0.592,0.42-1.194,0.829-1.758,1.29c-0.164,0.136-0.328,0.506-0.258,0.643
					c0.104,0.203,0.424,0.403,0.655,0.414c0.597,0.026,1.224,0.037,1.795-0.109c1.627-0.415,3.136-0.101,4.563,0.666
					c0.285,0.152,0.634,0.584,0.599,0.835c-0.043,0.281-0.451,0.594-0.769,0.723c-0.365,0.151-0.808,0.16-1.213,0.153
					c-1.283-0.019-2.259,0.415-2.884,1.619c-0.192,0.376-0.643,0.747-1.047,0.868c-1.473,0.439-2.983,0.577-4.479,0.106
					c-0.271-0.086-0.607-0.528-0.605-0.802c0.013-1.422,0.049-1.438-1.34-1.812c-0.768-0.205-1.108-0.668-1.078-1.449
					C46.787-22.678,46.773-23.136,46.773-23.609z M47.768,16.944c-1.094,0.328-2.224,0.655-3.348,1.006
					c-0.39,0.124-0.778,0.276-1.136,0.471c-1.193,0.666-1.395,0.673-2.202-0.408c-0.519-0.693-1.144-0.956-1.97-0.86
					c-0.408,0.045-0.822,0.06-1.231,0.104c-0.748,0.078-1.336-0.143-1.571-0.905c-0.247-0.802,0.074-1.392,0.848-1.656
					c0.714-0.243,1.452-0.442,2.196-0.56c1.594-0.244,3.205-0.389,4.795-0.65c0.47-0.079,1.053-0.339,0.843-1.025
					c-0.211-0.692-0.772-0.455-1.274-0.385c-1.05,0.148-2.105,0.254-3.157,0.391c-0.139,0.019-0.267,0.123-0.403,0.18
					c-0.447,0.188-0.885,0.482-1.347,0.531c-0.875,0.089-1.764,0.016-2.647,0.041c-1.917,0.054-2.422,0.584-2.722,1.834
					c0.204,0.082,0.422,0.139,0.611,0.246c0.299,0.166,0.85,0.437,0.821,0.537c-0.104,0.389-0.354,0.762-0.63,1.072
					c-0.202,0.227-0.559,0.307-0.79,0.514c-0.275,0.25-0.489,0.567-0.855,1.008c0.538,0.095,0.808,0.175,1.08,0.185
					c1.588,0.058,2.793,0.769,3.838,1.964c1.09,1.243,2.293,1.459,3.631,0.483c1.54-1.115,3.19-1.373,5.004-1.438
					c1.1-0.043,2.188-0.455,3.282-0.699c-0.018-0.114-0.031-0.228-0.049-0.344c-0.469-0.123-1.088-0.107-1.363-0.41
					C47.746,17.87,47.818,17.253,47.768,16.944z M38.185-19.199c-0.093-0.026-0.293-0.112-0.499-0.134
					c-1.976-0.204-3.955-0.385-5.931-0.598c-0.874-0.094-1.737-0.291-2.612-0.362c-1.115-0.091-2.167,0.135-2.887,1.085
					c-0.594,0.786-0.159,1.756,0.794,1.799c0.215,0.01,0.487-0.346,0.652-0.292c0.764,0.249,1.595,0.457,2.225,0.92
					c0.993,0.729,1.928,0.661,2.925,0.183C34.631-17.451,36.4-18.327,38.185-19.199z M63.141,25.634
					c1.107-1.78,1.115-2.172-0.072-3.448c-0.235-0.261-0.793-0.549-0.985-0.439c-0.313,0.176-0.588,0.658-0.619,1.031
					C61.352,24.055,62.09,24.898,63.141,25.634z M17.388,15.533c-0.916,0-1.785-0.021-2.649,0.019
					c-0.16,0.007-0.423,0.24-0.432,0.382c-0.01,0.146,0.21,0.411,0.371,0.446c0.841,0.188,1.696,0.324,2.607,0.485
					C17.325,16.341,17.354,15.979,17.388,15.533z M55.527-30.592c0.303,0.132,0.635,0.373,0.99,0.41
					c0.532,0.055,1.104,0.043,1.608-0.099c0.179-0.05,0.224-0.571,0.328-0.877c-0.315-0.049-0.658-0.198-0.943-0.126
					C56.852-31.116,56.215-30.84,55.527-30.592z M48.379,16.04c0.186,0.611,0.277,1.182,0.537,1.66
					c0.137,0.258,0.656,0.564,0.844,0.483c0.453-0.196,0.387-1.646-0.025-2.173C49.256,15.405,48.814,15.706,48.379,16.04z
					 M8.567,9.587c-0.72-0.16-1.221-0.267-1.855-0.408C7.237,10.441,7.442,10.495,8.567,9.587z"/>
				<path fill="#EADA7F" d="M1.21,28.803c0.866-0.15,0.934-0.63,0.516-1.289c-0.311-0.484-0.485-0.949-0.04-1.468
					c0.445-0.521,0.908-0.381,1.438-0.168c0.464,0.188,0.959,0.313,1.452,0.408c1.45,0.286,2.266-0.519,2.069-1.979
					c-0.242-1.806-0.704-3.533-1.64-5.113c-0.142-0.238-0.244-0.5-0.386-0.797c1.091-0.391,2.022-0.08,2.782,0.575
					c1.045,0.897,2.012,1.422,3.409,0.623c0.425-0.242,1.243,0.008,1.802,0.231c1.35,0.532,2.513,0.313,3.748-0.4
					c0.645-0.375,1.511-0.372,2.28-0.524c1.393-0.275,2.206-1.176,2.594-2.478c0.064-0.215-0.159-0.732-0.321-0.766
					c-0.935-0.191-1.892-0.281-2.803-0.398c-0.343-1.367-0.27-1.428,1.014-1.52c0.48-0.031,1.042-0.143,1.402-0.425
					c1.008-0.788,2.075-1.037,3.43-0.638c0.094-0.366,0.265-0.713,0.223-1.033c-0.016-0.119-0.533-0.191-0.828-0.249
					c-3.08-0.588-6.178-0.431-9.275-0.199c-1.091,0.082-2.122,0.093-2.535-1.297c1.398-1.481,3.302-0.86,4.983-1.144
					C16.7,8.988,16.87,9.21,17.09,9.503c0.212-0.652,0.505-1.149,0.514-1.653c0.029-1.47,1.564-1.662,2.196-2.642
					c0.22-0.34,1.401-0.09,2.14-0.055c0.613,0.029,1.223,0.139,1.833,0.215c0.261,0.033,0.523,0.068,0.782,0.114
					c0.208,0.036,0.498,0.2,0.605,0.116c0.81-0.619,1.571-0.131,2.35,0.037c0.336,0.07,0.715,0.211,1.014,0.121
					c0.377-0.115,0.691-0.437,1.031-0.668C29.279,4.71,29.019,4.32,28.72,3.96c-0.176-0.213-0.412-0.375-0.62-0.562
					c0.273-0.167,0.537-0.458,0.821-0.479c0.853-0.062,1.712-0.004,2.569-0.021c0.876-0.017,1.408-0.405,1.777-1.274
					c0.238-0.563,0.854-1.157,1.427-1.343c1.094-0.354,2.015-0.771,2.674-1.785c0.282-0.434,0.87-0.85,1.372-0.928
					c1.434-0.219,2.893-0.285,4.346-0.35c0.269-0.012,0.61,0.204,0.815,0.416c0.343,0.354,0.413,0.785-0.223,0.893
					c-0.681,0.114-1.379,0.106-2.066,0.198c-0.491,0.065-1.065,0.081-1.433,0.35c-0.363,0.266-0.738,0.84-0.708,1.25
					c0.052,0.701,0.642,1.069,1.386,0.975c0.565-0.071,1.122-0.273,1.684-0.277c0.342-0.003,0.687,0.257,1.029,0.398
					c-0.265,0.248-0.494,0.572-0.805,0.719c-0.325,0.152-0.736,0.113-1.101,0.195c-0.457,0.102-1.129,0.097-1.318,0.389
					c-0.77,1.199-1.894,0.912-2.975,0.92c-0.31,0.002-0.679-0.02-0.918,0.133c-0.553,0.352-0.468,0.807,0,1.309
					c0.639-0.914,1.304-0.631,2.252-0.478c1.504,0.241,2.287,1.487,3.6,1.877c0.809,0.242,1.11,0.942,0.947,1.753
					c-0.165,0.809-0.701,1.297-1.556,1.229c-0.985-0.078-1.963-0.256-2.948-0.348c-0.262-0.023-0.538,0.106-0.782,0.372
					c0.284,0,0.569,0,0.863,0c0.281,0.583,0.545,1.132,0.774,1.608c-1.299,0.375-2.493,0.744-3.702,1.052
					c-0.316,0.083-0.759,0.093-1.007-0.069c-1.676-1.104-2.989-0.22-4.336,0.68c-0.774,0.516-1.613,0.938-2.382,1.463
					c-0.329,0.223-0.746,0.574-0.788,0.912c-0.093,0.721-0.005,1.476,0.078,2.207c0.142,1.259,0.984,2.015,2.223,1.992
					c0.877-0.016,1.397,0.217,1.8,1.143c0.241,0.555,1.177,0.879,1.864,1.144c1.024,0.396,1.328,1.28,0.635,2.198
					c-1.121,1.488-3.305,2.093-5.049,1.34c-0.576-0.25-1.181-0.547-1.619-0.979c-2.226-2.197-4.887-2.404-7.77-1.896
					c-1.146,0.203-2.152,0.164-3.375-0.469c-1.167-0.604-2.945-0.877-4.385-0.094c-0.361,0.197-0.576,0.869-0.616,1.342
					c-0.016,0.195,0.579,0.56,0.942,0.646c0.546,0.131,1.139,0.045,1.7,0.131c0.394,0.058,0.768,0.246,1.246,0.408
					c-0.678,1.071-1.654,0.922-2.474,1.101c-0.616,0.135-1.302,0.034-1.872,0.258c-0.495,0.19-1.246,0.705-1.234,1.054
					c0.047,1.427-0.469,2.394-1.884,2.938c0.418,0.297,0.691,0.491,1.002,0.715c-0.317,0.715-0.689,0.927-1.261,0.293
					c-0.127-0.142-0.228-0.349-0.386-0.41c-0.32-0.127-0.672-0.174-1.01-0.256c-0.076,0.369-0.292,0.779-0.195,1.095
					c0.155,0.501,0.521,0.935,0.798,1.396c-1.779,0-3.558,0-5.336,0C1.21,31.218,1.21,30.012,1.21,28.803z M32.148,5.074
					c-0.969,0.388-1.766,0.707-2.677,1.074C30.737,6.796,31.715,6.444,32.148,5.074z M25.036,19.083
					c-0.262-0.235-0.507-0.642-0.769-0.652c-0.402-0.016-0.843,0.193-1.202,0.41c-0.077,0.05,0.081,0.781,0.208,0.808
					C23.896,19.77,24.593,19.913,25.036,19.083z M16.453,21.518c0.884-0.398,1.426-0.646,1.968-0.892
					c-0.03-0.14-0.061-0.276-0.09-0.418c-0.597,0.051-1.203,0.063-1.78,0.192C16.457,20.425,16.49,21.001,16.453,21.518z"/>
				<path fill="#FFFFFF" d="M48.09-33.704c-0.109,0.581-0.238,1.146,0.641,1.26c0.152,0.021,0.261,0.381,0.427,0.644
					c0.411-0.431,0.86-0.512,1.25,0.254c-0.39,0.181-0.771,0.361-1.156,0.539c0.433,0.653,0.248,1.638-0.58,2.267
					c-0.621,0.47-1.354,0.797-2.065,1.133c-1.112,0.528-2.264,0.97-3.358,1.524c-1.008,0.511-1.911,0.521-2.98,0.063
					c-0.904-0.387-1.963-0.409-2.956-0.584c-0.396-0.07-0.795-0.116-1.227-0.177c0.634-1.293,0.602-1.239-0.552-1.909
					c-0.426-0.249-0.826-0.781-0.952-1.26c-0.289-1.083-1.256-1.796-2.381-1.789c-1.098,0.008-1.939,0.229-2.544,1.254
					c-0.167,0.282-0.919,0.482-1.254,0.348c-0.829-0.33-1.15,0.085-1.508,0.667c-0.561,0.91-1.436,0.914-2.058-0.009
					c-0.141,0.224-0.244,0.453-0.404,0.631c-0.745,0.831-0.688,1.266,0.299,1.836c0.821,0.473,1.646,0.942,2.494,1.367
					c0.658,0.331,1.31,0.343,1.954-0.139c0.279-0.209,0.679-0.255,1.016-0.394c0.16-0.066,0.442-0.211,0.43-0.259
					c-0.058-0.23-0.198-0.44-0.318-0.674c0.537-0.491,0.856-0.3,1.327,0.268c0.578,0.699,1.382,1.211,2.088,1.805
					c0.268,0.224,0.73,0.431,0.753,0.678c0.032,0.338-0.184,0.911-0.447,1.025c-0.94,0.408-1.934,0.877-2.929,0.934
					c-2.018,0.115-3.965-0.434-5.803-1.265c-2.2-0.997-4.432-1.487-6.833-0.832c-0.477,0.131-1.013,0.092-1.516,0.054
					c-0.321-0.023-0.63-0.188-0.945-0.29c0.113-0.295,0.228-0.591,0.344-0.894c-0.778-0.189-1.62-0.421-2.474-0.597
					c-1.277-0.263-2.312,0.292-2.675,1.394c-0.236,0.711,0.078,1.222,0.832,1.195c0.687-0.024,1.372-0.275,2.052-0.252
					c0.418,0.014,1.061,0.258,1.188,0.568c0.262,0.635-0.126,1.255-0.822,1.323c-0.701,0.068-1.426-0.123-2.142-0.185
					c-0.749-0.063-1.503-0.176-2.246-0.125c-0.287,0.021-0.742,0.411-0.771,0.671c-0.035,0.327,0.2,0.862,0.475,1.006
					c0.593,0.313,1.3,0.398,1.934,0.646c0.336,0.13,0.865,0.381,0.883,0.612c0.145,1.772,1.337,2.704,2.664,3.558
					c0.208,0.135,0.406,0.285,0.637,0.448c-0.146,0.345-0.275,0.655-0.5,1.19c0.338-0.373,0.516-0.569,0.775-0.856
					c0.414,1.815-1.839,2.498-1.419,4.179c-0.084,0.042-0.167,0.084-0.251,0.126c-0.858-0.613-1.784-1.15-2.552-1.861
					c-0.656-0.609-1.204-0.791-1.883-0.166c-0.523,0.482-1.004,0.456-1.689,0.229c-0.831-0.276-1.769-0.236-2.663-0.313
					c-0.279-0.022-0.646,0.148-0.834,0.021c-1.161-0.775-2.19-0.389-3.216,0.259c0.245-0.458,0.489-0.917,0.794-1.488
					c-0.311-0.105-0.771-0.261-1.23-0.415c0-0.636,0-1.271,0-1.906c1.02-0.017,2.089,0.059,2.375-1.339
					c0.372,0.166,0.684,0.413,1.002,0.42c0.399,0.01,0.803-0.175,1.205-0.276c-0.122-0.397-0.128-1.004-0.388-1.146
					c-0.483-0.262-1.111-0.28-1.684-0.346c-0.365-0.042-0.739,0.016-1.109,0.021c-1.036,0.014-0.938-1.014-1.399-1.527
					c0-0.19,0-0.382,0-0.572c1.019,0.421,2.038,0.84,3.063,1.264c0.009-0.051-0.007-0.2,0.06-0.276
					c0.928-1.053,0.887-1.004-0.264-1.916c-0.54-0.428-0.88-1.108-1.397-1.79c1.067-0.228,1.83-0.389,2.59-0.551
					c-0.022-0.111-0.046-0.222-0.069-0.334c-0.823,0.059-1.646,0.117-2.468,0.175c-0.35-1.056-0.699-2.112-1.07-3.228
					c0.903,0,1.909,0.61,2.593-0.463c-0.321-0.402-0.785-0.74-0.902-1.173c-0.392-1.452-0.721-1.789-2.136-1.808
					c0-0.825,0-1.652,0-2.478c1.27,0,2.541,0,3.811,0c0.508,0.521,1.016,1.042,1.523,1.563c0.078-0.066,0.155-0.133,0.234-0.199
					c0.03-0.261,0.062-0.522,0.094-0.804c1.272,0.56,2.481,0.924,3.68,0c0.26,0.309,0.473,0.697,0.8,0.893
					c0.168,0.101,0.541-0.144,0.823-0.231c-0.009-0.106-0.018-0.213-0.027-0.319c-0.539-0.107-1.079-0.214-1.618-0.32
					c0.499-0.024,1.149-0.259,1.469-0.031c0.839,0.6,1.602,0.935,2.66,0.283c-0.154,0.474-0.349,0.911-0.646,0.997
					c-0.595,0.172-1.245,0.138-1.87,0.215c-0.49,0.06-0.976,0.16-1.463,0.242c0.021,0.094,0.044,0.188,0.066,0.281
					c1.757,0.277,3.468,0.332,4.779-1.254c0.746,1.263,1.767,1.687,3.032,1.647c-0.011,0.78,0.471,0.586,0.934,0.511
					c0.744-0.121,1.638-0.663,2.072,0.639c0.03-0.389-0.009-0.778-0.212-0.908c-0.977-0.621-0.618-1.967-1.479-2.642
					c-0.049-0.038,0.129-0.367,0.202-0.56c1.334,0,2.668,0,4.002,0c0.258,0.668,0.447,1.379,0.81,1.987
					c0.152,0.256,0.672,0.293,1.024,0.429c0.006-0.373,0.083-0.76,0.003-1.113c-0.102-0.449-0.329-0.87-0.503-1.303
					c1.081,0,2.161,0,3.24,0c0.632,0.967,1.083,0.967,1.715,0c3.621,0,7.242,0,10.863,0c0.083,0.833-0.526,0.895-1.098,0.954
					c-0.88,0.09-1.768,0.117-2.647,0.218c-0.798,0.093-1.449,0.863-1.316,1.585c0.136,0.748,0.485,1.23,1.419,1.069
					c0.982-0.171,1.843,0.215,2.628,0.838c1.161,0.923,1.921,0.934,3.046-0.03c0.871-0.746,1.773-1.007,2.89-0.718
					c0.952,0.245,1.762,0.009,2.186-0.92c-1.492-1.444-3.294-1.737-5.269-1.445c-0.234,0.035-0.505-0.161-0.76-0.25
					c0.568-0.296,1.106-0.333,1.614-0.479c0.829-0.237,1.637-0.545,2.454-0.824C46.945-33.704,47.518-33.704,48.09-33.704z
					 M22.065-27.619c-1.775,0.048-3.104,0.877-4.44,1.688C19.167-26.16,20.912-25.804,22.065-27.619z M14.632-30.583
					c0.033,0.108,0.067,0.215,0.101,0.323c0.631,0.195,1.208,0.264,1.403-0.805C15.577-30.886,15.104-30.736,14.632-30.583z
					 M8.891-19.237c0.051-0.144,0.103-0.287,0.154-0.43c-0.4-0.159-0.8-0.316-1.2-0.475c-0.048,0.112-0.097,0.225-0.146,0.338
					C8.096-19.615,8.493-19.426,8.891-19.237z M12.137-18.836c0.001-0.077,0.002-0.153,0.003-0.228c-0.511,0-1.022,0-1.532,0
					c0.003,0.103,0.007,0.204,0.01,0.306C11.125-18.786,11.631-18.811,12.137-18.836z"/>
				<path fill="#EADA7F" d="M67.336,3.839c-0.084,0.358-0.203,0.715-0.25,1.08c-0.129,0.99-0.344,1.856-1.527,2.14
					c-0.213,0.051-0.428,0.696-0.399,1.052c0.096,1.368-0.265,1.943-1.599,2.193c-0.524,0.1-1.094,0.021-1.604,0.164
					c-0.49,0.137-1.029,0.355-1.371,0.707c-0.65,0.668-2.465,1.031-3.324,0.642c-0.609-0.278-1.307-0.562-1.945-0.524
					c-1.856,0.112-3.396-0.461-4.78-1.676c-0.906-0.796-1.897-1.51-3.231-1.402c-0.058-0.078-0.109-0.16-0.171-0.239
					c0.82-0.697,1.642-1.394,2.548-2.166c-1.179-0.765-2.269-1.427-3.652-1.38c-0.439,0.017-0.92,0.056-1.314-0.092
					c-0.325-0.123-0.549-0.508-0.819-0.777c0.316-0.154,0.642-0.457,0.943-0.434c0.863,0.064,1.562-0.142,2.107-0.82
					c0.215,0.972,0.418,1.068,1.559,0.604c-0.6-0.22-1.092-0.4-1.582-0.582c0.514-0.625,0.598-1.091-0.133-1.746
					c-0.542-0.488-0.838-1.333-1.039-2.076c-0.07-0.259,0.413-0.792,0.764-1.004c0.416-0.251,0.957-0.321,1.452-0.414
					c0.748-0.14,0.98-0.487,0.503-1.192c0.602-0.229,1.004-0.229,0.896,0.527c-0.07,0.508,0.018,0.718,0.6,0.601
					c0.336-0.067,0.765-0.06,1.06,0.093c1.145,0.597,2.24,1.293,3.393,1.888c0.33,0.171,0.775,0.124,1.246-0.011
					C54.482-0.9,54.17-1.818,53.576-2.482c-0.572-0.64-1.43-1.021-2.152-1.526c-0.42-0.292-0.824-0.606-1.234-0.91
					c0.063-0.133,0.129-0.266,0.193-0.399c0.932,0.33,1.859,0.655,2.785,0.991c0.178,0.064,0.34,0.239,0.51,0.24
					c0.385,0.002,0.963,0.064,1.109-0.146c0.229-0.325,0.164-0.856,0.229-1.337C55.6-5.173,56.279-4.665,57-4.23
					c0.73,0.439,1.504,0.808,2.287,1.222c0.5-1.311,0.596-1.323,1.67-0.861c0.408,0.175,0.885,0.208,1.334,0.255
					c0.773,0.083,1.551,0.127,2.518,0.202c-0.453,0.835-0.805,1.486-1.16,2.146c-1.088-0.565-2.149-0.647-3.196-0.09
					c-0.222,0.117-0.313,0.473-0.472,0.718c0.248,0.152,0.482,0.39,0.75,0.441c1.097,0.208,2.215,0.312,3.302,0.553
					c0.538,0.119,1.016,0.486,1.545,0.68c0.575,0.211,1.18,0.352,1.771,0.521C67.336,2.314,67.336,3.077,67.336,3.839z
					 M48.184,1.731c0.902,0.402,1.248,0.294,1.316-0.402c0.059-0.568,0.119-1.137,0.207-1.982c-0.291,0.567-0.447,0.945-0.668,1.281
					C48.785,1.016,48.473,1.364,48.184,1.731z M60.053,4.007c0.824-0.373,0.973-0.926,0.646-1.771
					c-0.275-0.715-0.473-0.828-1.266-0.575C60.508,2.169,60.521,2.964,60.053,4.007z M60.705,0.005
					c-0.137,0.13-0.273,0.261-0.41,0.392c0.293,0.287,0.582,0.574,0.871,0.861c0.121-0.123,0.355-0.338,0.342-0.354
					C61.26,0.591,60.98,0.301,60.705,0.005z M62.609,4.98c-0.625-0.882-1.086-0.963-1.73-0.358
					C61.436,4.737,61.967,4.847,62.609,4.98z"/>
				<path fill="#FFFFFF" d="M25.412,32.425c0.759-0.321,1.758-0.25,1.855-1.532c0.024-0.322,0.97-0.576,1.476-0.646
					c0.347,0.049,0.696,0.145,1.042,0.137c0.868-0.02,1.735-0.082,2.604-0.123c0.406-0.021,0.821,0.02,1.215-0.059
					c0.813-0.154,1.151-0.611,0.776-1.438c-0.091-0.201-0.147-0.418-0.205-0.636c-0.274-1.028,0.085-1.562,1.106-1.358
					c1.512,0.299,2.81-0.119,4.084-0.828c0.212-0.119,0.453-0.188,1.018-0.409c-0.184,0.737-0.298,1.237-0.433,1.733
					c-0.139,0.502-0.343,0.993-0.435,1.508c-0.112,0.613,0.065,1.055,0.83,1.041c0.675-0.006,1.158-0.222,1.085-0.972
					c-0.09-0.946,0.434-1.19,1.226-1.311c0.743-0.111,1.471-0.33,2.329-0.527c-0.267-0.385-0.441-0.644-0.618-0.896
					c-0.544-0.797-0.358-1.447,0.559-1.729c0.536-0.157,1.109-0.231,1.67-0.262c0.824-0.043,1.65-0.021,2.478-0.009
					c1.877,0.027,2.635-0.489,3.344-2.315c0.472-1.215,0.457-1.188,1.563-0.631c0.324,0.164,0.75,0.137,1.377,0.233
					c-0.271-0.604-0.432-0.953-0.606-1.344c0.617-0.266,1.342-0.574,1.679,0.125c0.188,0.387-0.228,1.059-0.351,1.539
					c0.504,0.416,1.11,0.98,1.793,1.438c0.346,0.23,0.826,0.265,1.252,0.369c0.567,0.144,1.144,0.271,1.705,0.406
					c-0.369,1.912-1.483,2.488-3.565,2.076c-0.951-0.188-1.938-0.264-2.906-0.313c-0.562-0.028-1.082,0.156-1.166,0.853
					c-0.06,0.459-0.023,0.793,0.604,0.812c0.492,0.014,0.996,0.168,1.465,0.338c0.273,0.102,0.684,0.354,0.691,0.553
					c0.057,1.303,0.898,1.461,2.207,1.344c-1.229,0.939-2.246,1.574-3.572,1.607c-1.449,0.039-2.912,0.031-4.34,0.238
					c-0.689,0.102-1.313,0.646-1.963,0.985c-0.572,0-1.145,0-1.715,0c0.399-1.004,0.283-1.291-0.715-1.713
					c-0.804-0.342-1.61-0.676-2.413-1.013c0.293-0.104,0.583-0.213,0.873-0.319c-0.201-0.248-0.403-0.498-0.604-0.746
					c-0.082,0.046-0.162,0.097-0.242,0.142c0,0.315,0,0.634,0,0.947c-0.184-0.011-0.392-0.08-0.547-0.021
					c-0.486,0.195-1.086,0.332-1.381,0.701c-0.224,0.287-0.087,0.89-0.042,1.345c0.024,0.233,0.198,0.452,0.306,0.68
					C36.338,32.425,30.875,32.425,25.412,32.425z"/>
				<path fill="#EADA7F" d="M1.21-1.688c0.456,0.129,1.006,0.14,1.349,0.412c0.772,0.614,1.215,0.365,1.644-0.367
					C4.343-1.881,4.6-2.048,4.796-2.255C5.853-3.367,6.068-3.4,7.397-2.647C8.43-2.063,8.656-2.124,9.184-3.231
					c0.462,1.009,1.215,1.369,2.25,1.209c0.21-0.033,0.52,0.119,0.678,0.285c0.844,0.893,1.63,1.843,2.488,2.722
					c0.494,0.507,1.054,0.966,1.643,1.358c0.541,0.359,1.209,0.562,1.203,1.502c-0.288-0.045-0.519-0.077-0.749-0.118
					c-0.343-0.062-0.691-0.218-1.023-0.187c-1.196,0.112-2.408,0.194-3.575,0.461c-1.188,0.271-2.33,0.742-3.56,1.15
					C8.796,5.587,8.98,5.897,9.165,6.21C7.081,4.811,5.494,5.849,4.019,7.307C3.483,6.415,3.016,5.634,2.447,4.689
					c1.351-0.86,2.65-1.681,3.941-2.517C7.085,1.724,7.779,1.728,8.41,2.236c0.484,0.392,0.896,0.261,1.089-0.183
					C9.7,1.585,9.84,0.974,9.104,0.71C8.985,0.669,8.83,0.681,8.741,0.608c-1.346-1.116-2.734-1.681-4.29-0.379
					C3.372-0.093,2.291-0.414,1.21-0.734C1.21-1.053,1.21-1.37,1.21-1.688z"/>
				<path fill="#EADA7F" d="M1.21,7.46c1.017-0.07,1.586,0.306,2.04,1.328c0.539,1.217,1.563,2.106,3.247,1.607
					c-0.099,0.396-0.16,0.592-0.194,0.792c-0.144,0.853,0.154,1.17,0.977,0.914c1.205-0.372,2.199-0.257,3.026,0.819
					c0.444,0.578,1.094,0.764,1.876,0.592c0.521-0.112,1.271-0.428,1.483,0.476c0.138,0.595-0.584,1.29-1.405,1.194
					c-1.08-0.125-2.179-0.346-3.19-0.736c-1.257-0.482-2.395-0.677-3.601,0.118c-0.75,0.495-1.496,0.369-2.104-0.362
					c-0.423-0.512-0.858-1.018-1.35-1.455c-0.173-0.156-0.53-0.102-0.804-0.142C1.21,10.89,1.21,9.173,1.21,7.46z"/>
				<path d="M46.375-33.704c-0.817,0.278-1.625,0.586-2.454,0.824c-0.507,0.146-1.045,0.182-1.614,0.479
					c0.255,0.088,0.525,0.284,0.76,0.25c1.974-0.292,3.776,0.001,5.269,1.445c-0.424,0.93-1.234,1.166-2.186,0.92
					c-1.115-0.29-2.019-0.028-2.89,0.718c-1.125,0.964-1.885,0.953-3.046,0.03c-0.785-0.623-1.646-1.009-2.628-0.838
					c-0.934,0.161-1.283-0.321-1.419-1.069c-0.133-0.723,0.518-1.493,1.316-1.585c0.879-0.102,1.767-0.128,2.647-0.218
					c0.572-0.06,1.182-0.121,1.098-0.954C42.944-33.704,44.658-33.704,46.375-33.704z"/>
				<path d="M10.552-33.144c-1.198,0.924-2.407,0.561-3.68,0c-0.033,0.281-0.064,0.542-0.094,0.804
					c-0.079,0.066-0.156,0.133-0.234,0.199c-0.508-0.52-1.016-1.042-1.523-1.563c5.019,0,10.037,0,15.055,0
					c-0.072,0.193-0.251,0.522-0.202,0.56c0.861,0.674,0.502,2.021,1.479,2.642c0.203,0.129,0.242,0.519,0.212,0.908
					c-0.434-1.301-1.328-0.759-2.072-0.639c-0.463,0.075-0.944,0.27-0.934-0.511c-1.266,0.04-2.287-0.384-3.032-1.647
					c-1.312,1.586-3.022,1.531-4.779,1.254c-0.022-0.094-0.045-0.188-0.066-0.281c0.488-0.082,0.973-0.182,1.463-0.242
					c0.625-0.077,1.275-0.043,1.87-0.215c0.296-0.086,0.491-0.523,0.645-0.997c-1.059,0.652-1.821,0.317-2.66-0.283
					c-0.319-0.229-0.97,0.007-1.469,0.031L10.552-33.144z"/>
				<path fill="#FFFFFF" d="M63.717,32.425c0.08-0.815-0.182-1.606,0.221-2.465c0.328-0.705-0.323-1.276-1.057-1.515
					c-0.354-0.116-0.727-0.164-1.17-0.254c0.066-0.186,0.092-0.496,0.215-0.541c0.928-0.334,1.861-0.688,2.828-0.86
					c0.23-0.045,0.615,0.522,0.867,0.854c0.447,0.59,0.713,1.408,1.715,1.154c0,1.078,0.014,2.16-0.016,3.238
					c-0.004,0.133-0.236,0.256-0.365,0.383c0.105-0.932-0.594-1.039-1.207-1.043c-0.719-0.006-1.592-0.072-1.648,1.043
					C63.971,32.425,63.844,32.425,63.717,32.425z"/>
				<path fill="#FFFFFF" d="M67.336,12.415c-0.352,0.098-0.697,0.258-1.055,0.28c-1.078,0.07-1.42,0.425-1.309,1.493
					c0.022,0.246,0.227,0.518,0.161,0.725c-0.123,0.395-0.336,0.78-0.602,1.094c-0.068,0.084-0.603-0.035-0.687-0.19
					c-0.221-0.399-0.365-0.862-0.418-1.313c-0.021-0.188,0.229-0.453,0.422-0.604c0.976-0.764,1.265-1.843,1.449-2.982
					c0.086-0.529,0.215-1.052,0.326-1.578c0.197-0.936,0.77-1.498,1.705-1.688C67.336,9.237,67.336,10.825,67.336,12.415z"/>
				<path d="M43.436,29.7c0.805,0.336,1.612,0.67,2.416,1.012c1,0.422,1.116,0.709,0.714,1.713c-1.587,0-3.177,0-4.766,0
					c-0.107-0.228-0.281-0.442-0.306-0.678c-0.045-0.457-0.182-1.06,0.042-1.345c0.295-0.37,0.896-0.506,1.381-0.702
					c0.155-0.062,0.363,0.012,0.547,0.021L43.436,29.7z"/>
				<path d="M1.21-31.226c1.415,0.019,1.744,0.356,2.136,1.808c0.117,0.433,0.581,0.771,0.902,1.173
					c-0.685,1.073-1.69,0.463-2.593,0.463c0.371,1.116,0.72,2.171,1.07,3.228l0.027-0.019c-0.514,0.069-1.027,0.139-1.541,0.208
					C1.21-26.653,1.21-28.939,1.21-31.226z"/>
				<path d="M2.725-24.555c0.822-0.058,1.645-0.116,2.468-0.175c0.023,0.112,0.047,0.223,0.069,0.334
					c-0.76,0.162-1.522,0.323-2.59,0.551c0.517,0.682,0.857,1.362,1.397,1.79c1.151,0.912,1.191,0.863,0.264,1.916
					c-0.067,0.076-0.051,0.225-0.06,0.276c-1.025-0.423-2.044-0.843-3.063-1.264c0-0.699,0-1.397,0-2.095
					c0.725-0.211,1.388-0.491,1.541-1.352L2.725-24.555z"/>
				<path fill="#FFFFFF" d="M67.336-12.551c-1.146,0.104-2.293,0.223-3.441,0.3c-0.309,0.02-0.653-0.019-0.916-0.157
					c-0.272-0.146-0.629-0.432-0.647-0.679c-0.019-0.238,0.31-0.662,0.558-0.731c0.901-0.25,1.829-0.413,2.758-0.551
					c0.557-0.083,1.131-0.062,1.692-0.086C67.336-13.821,67.336-13.186,67.336-12.551z"/>
				<path d="M1.21-20.554c0.462,0.513,0.363,1.541,1.399,1.527c0.37-0.005,0.745-0.064,1.109-0.021
					c0.573,0.066,1.201,0.084,1.684,0.346c0.26,0.142,0.267,0.749,0.388,1.146c-0.401,0.101-0.806,0.286-1.205,0.276
					c-0.318-0.008-0.63-0.254-1.002-0.42c-0.285,1.398-1.355,1.323-2.375,1.339C1.21-17.759,1.21-19.157,1.21-20.554z"/>
				<path d="M25.412-33.704c0.174,0.433,0.402,0.854,0.503,1.303c0.08,0.353,0.003,0.74-0.003,1.113
					c-0.352-0.136-0.872-0.173-1.024-0.429c-0.363-0.607-0.552-1.318-0.81-1.987C24.523-33.704,24.967-33.704,25.412-33.704z"/>
				<path d="M64.1,32.425c0.058-1.116,0.93-1.049,1.648-1.043c0.613,0.002,1.313,0.109,1.207,1.043
					C66.004,32.425,65.051,32.425,64.1,32.425z"/>
				<path fill="#FFFFFF" d="M67.336-19.601c-0.205-0.066-0.428-0.104-0.615-0.206c-0.279-0.151-0.535-0.348-0.803-0.525
					c0.322-0.239,0.631-0.495,0.969-0.711c0.119-0.077,0.301-0.059,0.449-0.083C67.336-20.618,67.336-20.109,67.336-19.601z"/>
				<path d="M1.21-14.455c0.459,0.154,0.919,0.31,1.23,0.415c-0.305,0.572-0.55,1.03-0.794,1.488c-0.146,0-0.291,0.001-0.436,0.001
					C1.21-13.186,1.21-13.821,1.21-14.455z"/>
				<path fill="#FFFFFF" d="M2.751-24.574c-0.153,0.861-0.816,1.141-1.541,1.352c0-0.382,0-0.763,0-1.145
					C1.724-24.435,2.237-24.503,2.751-24.574z"/>
				<path fill="#FFFFFF" d="M1.21,1.552C1.477,1.61,1.741,1.669,1.994,1.724c0.271,0.859-0.335,1.26-0.783,1.734
					C1.21,2.821,1.21,2.188,1.21,1.552z"/>
				<path fill="#FFFFFF" d="M20.267,32.425c0.225-0.264,0.449-0.522,0.541-0.629c1.156,0.233,2.118,0.435,3.081,0.629
					C22.68,32.425,21.475,32.425,20.267,32.425z"/>
				<path d="M30.366-33.704c-0.632,0.967-1.083,0.967-1.715,0C29.224-33.704,29.795-33.704,30.366-33.704z"/>
				<path fill="#EADA7F" d="M40.834-15.13c0.535-0.707,1.034-1.444,1.625-2.098c0.152-0.167,0.594-0.071,0.996-0.104
					c-0.029,0.183-0.091,0.309-0.054,0.389c0.491,1.08,0.616,2.062-0.339,3.032c-0.286,0.29,0.593,1.086,1.136,0.886
					c1.084-0.402,1.942-0.266,2.702,0.663c0.201,0.245,0.67,0.289,1.026,0.381c0.179,0.044,0.416,0.048,0.562-0.041
					c0.705-0.436,1.904,0.427,2.271-0.865c0.229-0.807,0.462-1.612,0.689-2.416c0.297,0,0.575,0,0.911,0
					c0.814,2.307,2.855,1.513,4.65,1.705c-0.146,0.295-0.256,0.534-0.379,0.765c-0.93,1.733-0.152,3.097,1.842,3.191
					c0.793,0.038,1.592-0.03,2.381,0.033c0.273,0.021,0.773,0.356,0.754,0.449c-0.102,0.427,0.142,1.063-0.653,1.171
					c-1,0.137-1.979,0.432-2.979,0.573C56.827-7.255,55.631-7.5,54.95-8.394c-1.103-1.435-2.632-1.727-4.183-2.136
					c-0.34-0.089-0.744-0.348-0.896-0.642c-0.313-0.624-0.621-0.484-1.037-0.175c-0.864,0.645-1.742,1.277-2.643,1.934
					c0.61,0.91,1.184-0.644,1.852-0.396c0.037,0.125,0.074,0.251,0.11,0.376c-0.729,0.271-1.438,0.656-2.19,0.785
					c-1.036,0.179-2.123-0.112-3.138,0.481c-0.315,0.184-0.899-0.062-1.351-0.148c-0.361-0.068-0.707-0.225-1.068-0.286
					c-0.704-0.121-1.158,0.043-1.582,0.78c-1.339,2.328-3.657,2.686-6.135,1.666c-0.873-0.358-1.636-0.979-2.504-1.35
					c-0.859-0.366-1.775-0.687-2.692-0.781c-0.399-0.042-1.057,0.451-1.224,0.855c-0.105,0.253,0.402,0.924,0.786,1.172
					c0.485,0.313,1.139,0.351,1.695,0.572c0.581,0.231,1.155,0.503,1.684,0.834c0.196,0.123,0.385,0.494,0.34,0.697
					c-0.038,0.165-0.428,0.26-0.67,0.366c-0.08,0.036-0.206-0.025-0.28,0.015c-0.336,0.181-0.717,0.332-0.963,0.603
					c-0.097,0.107,0.036,0.624,0.204,0.729c0.336,0.211,0.805,0.428,1.154,0.35c0.89-0.198,1.733-0.599,2.62-0.829
					c0.325-0.085,0.773-0.019,1.063,0.151c0.393,0.232,0.454,0.776-0.047,0.863c-1.909,0.331-3.443,1.885-5.563,1.571
					c-1.555-0.231-3.071-0.447-4.359-1.44c-1.173-0.905-2.387-1.716-4.072-1.356c0-0.559,0-1.01,0-1.457
					c-0.771-0.114-1.459-0.215-2.148-0.317c-0.012-0.146-0.023-0.293-0.035-0.439c1.044-0.222,2.089-0.443,3.167-0.672
					c-0.572-1.252-0.33-1.594,0.964-1.612c0.475-0.006,0.972,0.063,1.417-0.061c0.313-0.084,0.742-0.407,0.775-0.667
					c0.032-0.25-0.324-0.678-0.61-0.808c-0.442-0.203-0.977-0.202-1.464-0.32c-0.906-0.222-1.796-0.515-2.711-0.691
					c-0.872-0.168-1.764-0.228-2.786-0.351c0.287-0.484,0.614-1.063,0.965-1.625c0.348-0.559,0.815-1.065,1.054-1.665
					c0.253-0.637,0.684-0.745,1.19-0.594c1.059,0.318,2.077,0.652,3.194,0.166c0.345-0.15,0.873-0.145,1.218,0.009
					c2.088,0.933,4.337,0.825,6.527,1.093c0.501,0.062,1.005,0.122,1.499,0.226c1.158,0.243,2.167-0.018,3.135-0.706
					c0.388-0.275,0.953-0.298,1.689-0.507c0.262-1,1.308-1.091,2.434-1.039c0.506,0.024,1.012,0.026,1.514,0.04
					c-0.861,0.463-0.238,0.958,0.042,1.438c-0.378,0.23-0.696,0.422-1.147,0.695c0.935,0.033,1.694-0.134,1.874-0.873
					C41.698-14.206,41.115-14.705,40.834-15.13z M41.995-11.404c-0.085,0.11-0.17,0.221-0.254,0.332
					c0.428,0.322,0.856,0.645,1.285,0.967c0.089-0.122,0.179-0.245,0.269-0.368C42.86-10.783,42.428-11.094,41.995-11.404z
					 M39.138-12.014c-0.081,0.047-0.161,0.095-0.242,0.142c0.171,0.279,0.298,0.606,0.532,0.813c0.094,0.082,0.422-0.104,0.761-0.2
					C39.728-11.59,39.434-11.802,39.138-12.014z"/>
				<path fill="#FFFFFF" d="M46.773-23.609c0,0.474,0.016,0.932-0.004,1.389c-0.031,0.781,0.313,1.244,1.078,1.449
					c1.389,0.374,1.352,0.389,1.34,1.812c-0.002,0.274,0.338,0.716,0.604,0.802c1.492,0.471,3.008,0.333,4.479-0.106
					c0.403-0.122,0.854-0.492,1.047-0.868c0.625-1.204,1.6-1.638,2.883-1.619c0.406,0.006,0.85-0.002,1.213-0.153
					c0.316-0.129,0.725-0.442,0.768-0.723c0.035-0.251-0.311-0.683-0.596-0.835c-1.43-0.767-2.938-1.081-4.563-0.666
					c-0.572,0.146-1.199,0.136-1.795,0.109c-0.234-0.01-0.552-0.21-0.656-0.414c-0.072-0.137,0.094-0.506,0.258-0.643
					c0.561-0.461,1.164-0.869,1.756-1.29c0.797-0.564,1.598-1.121,2.205-1.546c0.826,0.159,1.559,0.347,2.301,0.428
					c0.578,0.063,1.098,0.009,1.375,0.731c0.111,0.279,0.684,0.424,1.072,0.531c0.371,0.101,0.777,0.073,1.283,0.109
					c-0.49,2.086,0.502,3.003,2.729,3.094c-0.523,0.414-0.791,0.541-0.924,0.75c-0.188,0.295-0.414,0.67-0.379,0.982
					c0.107,0.927-0.109,1.167-1.01,1.276c-1.084,0.132-2.146,0.563-3.223,0.592c-1.541,0.041-2.718,0.46-3.472,1.901
					c-0.117,0.226-0.854,0.326-1.203,0.199c-1.881-0.693-3.649-0.4-5.434,0.354c-0.998,0.423-1.935,0.304-2.798-0.184
					c0.869-0.621,0.923-0.979,0.121-1.712c-0.514-0.469-0.851-0.913-0.909-1.67c-0.021-0.313-0.728-0.771-1.157-0.817
					c-0.974-0.103-1.233-0.668-1.259-1.466c-0.027-0.837,0.507-1,1.241-1.075C45.634-22.936,46.089-23.292,46.773-23.609z"/>
				<path fill="#EADA7F" d="M47.768,16.944c0.053,0.309-0.021,0.924,0.254,1.223c0.275,0.301,0.896,0.287,1.365,0.41
					c0.016,0.116,0.029,0.229,0.047,0.344c-1.094,0.244-2.182,0.656-3.282,0.699c-1.813,0.065-3.463,0.323-5.003,1.438
					c-1.338,0.975-2.541,0.76-3.631-0.484c-1.045-1.194-2.25-1.905-3.838-1.963c-0.272-0.01-0.542-0.09-1.08-0.186
					c0.367-0.44,0.58-0.758,0.855-1.008c0.231-0.207,0.588-0.287,0.79-0.514c0.275-0.311,0.525-0.684,0.63-1.072
					c0.028-0.101-0.522-0.371-0.821-0.537c-0.189-0.107-0.407-0.166-0.612-0.246c0.301-1.25,0.807-1.781,2.723-1.834
					c0.883-0.024,1.772,0.047,2.647-0.041c0.462-0.047,0.9-0.344,1.347-0.531c0.136-0.057,0.264-0.161,0.403-0.18
					c1.051-0.137,2.106-0.242,3.157-0.391c0.502-0.07,1.064-0.308,1.274,0.385c0.21,0.687-0.374,0.946-0.843,1.025
					c-1.59,0.262-3.202,0.406-4.795,0.65c-0.744,0.117-1.482,0.316-2.196,0.56c-0.774,0.265-1.095,0.854-0.848,1.656
					c0.235,0.763,0.823,0.983,1.571,0.905c0.409-0.043,0.823-0.06,1.231-0.104c0.827-0.095,1.451,0.167,1.97,0.86
					c0.808,1.08,1.009,1.074,2.202,0.408c0.357-0.194,0.746-0.347,1.136-0.471C45.543,17.6,46.674,17.272,47.768,16.944z"/>
				<path fill="#FFFFFF" d="M38.185-19.199c-1.783,0.872-3.552,1.748-5.333,2.601c-0.998,0.479-1.932,0.546-2.925-0.183
					c-0.63-0.463-1.461-0.671-2.225-0.92c-0.166-0.054-0.438,0.302-0.652,0.292c-0.953-0.043-1.388-1.013-0.794-1.799
					c0.721-0.95,1.772-1.176,2.887-1.085c0.875,0.071,1.738,0.268,2.612,0.362c1.976,0.213,3.955,0.394,5.931,0.598
					C37.892-19.311,38.091-19.225,38.185-19.199z"/>
				<path fill="#FFFFFF" d="M63.141,25.634c-1.051-0.735-1.789-1.579-1.68-2.856c0.031-0.373,0.309-0.855,0.619-1.031
					c0.193-0.107,0.75,0.182,0.988,0.439C64.256,23.462,64.248,23.854,63.141,25.634z"/>
				<path fill="#EADA7F" d="M17.388,15.533c-0.035,0.445-0.063,0.808-0.104,1.332c-0.911-0.161-1.766-0.296-2.607-0.485
					c-0.16-0.035-0.38-0.301-0.371-0.446c0.009-0.142,0.272-0.375,0.432-0.382C15.604,15.513,16.472,15.533,17.388,15.533z"/>
				<path fill="#FFFFFF" d="M55.527-30.592c0.688-0.249,1.324-0.523,1.983-0.692c0.285-0.072,0.628,0.077,0.943,0.126
					c-0.104,0.306-0.149,0.827-0.328,0.877c-0.508,0.142-1.076,0.154-1.608,0.099C56.162-30.22,55.83-30.459,55.527-30.592z"/>
				<path fill="#909B4E" d="M48.379,16.04c0.436-0.332,0.877-0.634,1.355-0.029c0.412,0.527,0.479,1.977,0.022,2.173
					c-0.188,0.082-0.705-0.226-0.844-0.483C48.656,17.22,48.564,16.651,48.379,16.04z"/>
				<path fill="#EADA7F" d="M8.567,9.587c-1.125,0.908-1.33,0.854-1.855-0.408C7.346,9.32,7.847,9.427,8.567,9.587z"/>
				<path fill="#052B00" d="M32.148,5.074c-0.433,1.37-1.411,1.722-2.677,1.074C30.382,5.781,31.179,5.462,32.148,5.074z"/>
				<path fill="#052B00" d="M25.036,19.083c-0.442,0.83-1.141,0.687-1.763,0.563c-0.126-0.024-0.284-0.756-0.208-0.807
					c0.359-0.217,0.8-0.426,1.202-0.41C24.528,18.441,24.773,18.848,25.036,19.083z"/>
				<path fill="#052B00" d="M16.453,21.518c0.039-0.517,0.004-1.093,0.098-1.115c0.578-0.131,1.184-0.144,1.78-0.193
					c0.03,0.145,0.06,0.279,0.09,0.42C17.878,20.872,17.336,21.118,16.453,21.518z"/>
				<path d="M22.065-27.619c-1.153,1.815-2.897,1.459-4.44,1.688C18.961-26.742,20.29-27.571,22.065-27.619z"/>
				<path d="M10.53-33.123c0.539,0.106,1.079,0.213,1.618,0.32c0.009,0.106,0.018,0.212,0.027,0.319
					c-0.282,0.089-0.655,0.333-0.823,0.232c-0.327-0.196-0.54-0.584-0.8-0.893L10.53-33.123z"/>
				<path d="M14.632-30.583c0.472-0.151,0.944-0.302,1.504-0.482c-0.195,1.069-0.771,1-1.403,0.805
					C14.7-30.369,14.667-30.476,14.632-30.583z"/>
				<path d="M8.891-19.237c-0.397-0.189-0.794-0.378-1.191-0.566c0.048-0.114,0.097-0.227,0.146-0.338
					c0.399,0.158,0.8,0.316,1.2,0.475C8.994-19.522,8.941-19.379,8.891-19.237z"/>
				<path d="M12.137-18.836c-0.506,0.025-1.012,0.051-1.519,0.078c-0.003-0.102-0.006-0.204-0.01-0.306c0.51,0,1.021,0,1.532,0
					C12.141-18.99,12.139-18.914,12.137-18.836z"/>
				<path fill="#052B00" d="M48.184,1.731c0.289-0.367,0.604-0.716,0.855-1.104c0.221-0.335,0.377-0.714,0.668-1.281
					c-0.088,0.846-0.148,1.415-0.207,1.981C49.432,2.025,49.086,2.134,48.184,1.731z"/>
				<path d="M60.053,4.007c0.469-1.043,0.455-1.838-0.619-2.346c0.793-0.253,0.988-0.141,1.267,0.575
					C61.025,3.081,60.877,3.634,60.053,4.007z"/>
				<path d="M60.705,0.005c0.273,0.296,0.555,0.585,0.803,0.9c0.016,0.016-0.221,0.23-0.342,0.354
					c-0.289-0.287-0.578-0.574-0.871-0.861C60.432,0.267,60.568,0.135,60.705,0.005z"/>
				<path d="M62.609,4.98c-0.646-0.134-1.174-0.243-1.73-0.358C61.523,4.017,61.984,4.099,62.609,4.98z"/>
				<path fill="#052B00" d="M46.918,2.324c0.49,0.181,0.984,0.362,1.582,0.582c-1.139,0.466-1.344,0.369-1.559-0.604L46.918,2.324z"
					/>
				<path d="M43.465,29.721c0-0.313,0-0.632,0-0.947c0.081-0.045,0.161-0.094,0.242-0.14c0.2,0.248,0.402,0.496,0.604,0.744
					c-0.29,0.106-0.58,0.218-0.873,0.319C43.436,29.7,43.465,29.721,43.465,29.721z"/>
				<path d="M40.834-15.13c0.281,0.426,0.864,0.924,0.783,1.261c-0.179,0.739-0.939,0.906-1.874,0.873
					c0.451-0.273,0.769-0.465,1.147-0.695c-0.28-0.479-0.903-0.975-0.042-1.438C40.854-15.13,40.834-15.13,40.834-15.13z"/>
				<path d="M41.995-11.404c0.434,0.31,0.866,0.621,1.3,0.931c-0.09,0.123-0.18,0.246-0.269,0.368
					c-0.429-0.322-0.856-0.645-1.285-0.967C41.824-11.183,41.91-11.293,41.995-11.404z"/>
				<path d="M39.138-12.014c0.295,0.212,0.589,0.423,1.051,0.754c-0.338,0.097-0.667,0.282-0.761,0.2
					c-0.234-0.206-0.361-0.534-0.532-0.813C38.979-11.918,39.058-11.965,39.138-12.014z"/>
			</g>
		</g>
	</g>
</g>
<linearGradient id="shape1_6_" gradientUnits="userSpaceOnUse" x1="0.5674" y1="12.333" x2="91.4326" y2="12.333">
	<stop  offset="0" style="stop-color:#B1DB7F;stop-opacity:0"/>
	<stop  offset="0.1061" style="stop-color:#B1DB7F;stop-opacity:0.1061"/>
	<stop  offset="1" style="stop-color:#B1DB7F"/>
</linearGradient>
<path id="shape1_2_" fill="url(#shape1_6_)" d="M2.655,12.191c-0.169-0.152-0.267-0.367-0.269-0.594
	c-0.003-0.237,0.095-0.464,0.269-0.627c0.345-0.308,0.869-0.308,1.214,0c0.174,0.163,0.272,0.39,0.27,0.627
	c-0.003,0.227-0.1,0.442-0.27,0.594c-0.173,0.154-0.39,0.232-0.607,0.232S2.828,12.344,2.655,12.191 M43.235,4.447
	c-0.166,0.002-0.331,0.043-0.482,0.118c-0.416,0.231-0.756,0.576-0.981,0.994c0.037,0.016,0.072,0.038,0.104,0.063
	c0.086,0.102,0.134,0.229,0.135,0.362c0.003,0.125-0.046,0.245-0.135,0.332c-0.09,0.087-0.211,0.136-0.338,0.132
	c-0.095,0.003-0.187-0.02-0.269-0.067c-0.212,0.228-0.453,0.428-0.716,0.596c0.046,0.068,0.071,0.147,0.069,0.229
	c0,0.131-0.064,0.255-0.171,0.331c-0.022,0.031-0.049,0.057-0.079,0.079c-0.187,0.144-0.453,0.107-0.595-0.079
	c-0.056-0.032-0.101-0.076-0.134-0.131c-0.202,0.044-0.44,0.098-0.71,0.166v0.064C38.93,7.775,38.869,7.907,38.765,8
	c-0.089,0.089-0.212,0.138-0.339,0.136c-0.126,0.002-0.248-0.045-0.337-0.132c-0.085-0.075-0.133-0.183-0.133-0.295
	c-0.271,0.037-0.551,0.071-0.842,0.093v0.033c0,0.134-0.048,0.262-0.135,0.363c-0.09,0.087-0.21,0.135-0.336,0.132
	c-0.135,0-0.266-0.046-0.372-0.132c-0.083-0.09-0.129-0.206-0.135-0.328c-0.224,0-0.481-0.011-0.774-0.033
	c0.003,0.124-0.045,0.244-0.135,0.329c-0.105,0.085-0.236,0.13-0.371,0.13c-0.125,0.005-0.248-0.042-0.336-0.13
	c-0.087-0.102-0.136-0.23-0.135-0.364V7.771c-1.281-0.089-2.36-0.156-3.237-0.199c-3.909-0.243-7.495-0.34-10.755-0.296
	c-2.092,0.042-4.171,0.12-6.239,0.231V7.54c0.003,0.125-0.047,0.244-0.136,0.332C13.928,7.958,13.807,8.005,13.682,8
	c-0.136,0.007-0.27-0.039-0.371-0.129c-0.084-0.076-0.133-0.185-0.135-0.298c-0.213,0-0.425,0.01-0.638,0.033v0.036
	c0.004,0.124-0.045,0.244-0.135,0.33c-0.089,0.09-0.212,0.139-0.34,0.132c-0.135,0-0.267-0.046-0.37-0.132
	c-0.085-0.076-0.134-0.185-0.136-0.299c-0.203,0-0.405,0.009-0.606,0.034v0.032c0.001,0.13-0.063,0.252-0.17,0.329
	c-0.021,0.028-0.047,0.054-0.075,0.075c-0.187,0.145-0.455,0.111-0.598-0.075c-0.091-0.07-0.141-0.182-0.135-0.296L9.231,7.839
	v0.066c0.003,0.124-0.046,0.244-0.135,0.329C8.99,8.32,8.86,8.366,8.724,8.366C8.599,8.369,8.477,8.323,8.387,8.234
	C8.303,8.159,8.254,8.051,8.252,7.938C8.028,7.96,7.826,7.98,7.647,8.003v0.034C7.65,8.16,7.601,8.28,7.512,8.365
	C7.415,8.469,7.282,8.529,7.14,8.532C7.008,8.533,6.883,8.471,6.804,8.365C6.712,8.294,6.661,8.184,6.669,8.068
	C6.444,8.09,6.23,8.112,6.028,8.135v0.063C6.03,8.322,5.981,8.442,5.892,8.529C5.813,8.634,5.688,8.698,5.556,8.697
	C5.415,8.695,5.282,8.634,5.185,8.531C5.116,8.459,5.068,8.365,5.052,8.267c-0.595,0.051-1.184,0.161-1.755,0.33
	C3.068,8.734,2.891,8.943,2.792,9.192C2.749,9.31,2.726,9.433,2.724,9.557L2.32,9.589l-1.753,2.24l1.753,1.98l0.64-0.033
	l-0.101,0.199C2.839,14.187,2.9,14.4,3.027,14.57c0.225,0.353,0.765,1.045,1.618,2.08c0.877,1.057,1.473,1.75,1.787,2.077
	c0.322,0.336,0.698,0.615,1.112,0.826c0.418,0.176,0.882,0.199,1.315,0.068c0.382-0.107,0.702-0.371,0.878-0.727
	c0-0.004,0-0.008,0-0.01c0.002-0.018,0.018-0.025,0.033-0.023c-0.037-0.021-0.071-0.041-0.101-0.066
	c-0.065-0.061-0.102-0.145-0.101-0.232c-0.004-0.098,0.032-0.193,0.101-0.266c0.131-0.119,0.328-0.131,0.474-0.029
	c0.068-0.07,0.147-0.125,0.235-0.166c0.118-0.066,0.21-0.123,0.303-0.166c-0.021-0.041-0.032-0.084-0.034-0.131
	c0-0.088,0.038-0.174,0.101-0.23c0.061-0.066,0.147-0.1,0.235-0.098c0.101-0.006,0.197,0.03,0.271,0.098
	c0.027,0.029,0.049,0.061,0.067,0.1c0.187-0.068,0.379-0.125,0.574-0.168c-0.021-0.016-0.033-0.039-0.034-0.065
	c-0.005-0.099,0.032-0.195,0.101-0.265c0.077-0.063,0.171-0.096,0.27-0.098c0.087,0,0.173,0.032,0.236,0.098
	c0.053,0.041,0.087,0.101,0.1,0.166l0.642-0.067c-0.02-0.019-0.032-0.041-0.034-0.066c0-0.088,0.037-0.17,0.101-0.232
	c0.077-0.057,0.171-0.094,0.27-0.098c0.089,0,0.174,0.035,0.236,0.098c0.067,0.045,0.105,0.119,0.101,0.199
	c0.224-0.021,0.45-0.033,0.674-0.033v-0.031c0.003-0.094,0.054-0.182,0.134-0.229c0.001-0.002,0.003-0.002,0.004-0.004
	c0.13-0.129,0.34-0.127,0.468,0.004c0.065,0.06,0.101,0.144,0.101,0.229c0.136,0,0.271-0.012,0.405-0.03h0.405
	c0-0.091,0.036-0.175,0.1-0.231c0.063-0.064,0.148-0.097,0.236-0.095c0.098-0.006,0.197,0.026,0.27,0.095
	c0.064,0.059,0.1,0.143,0.1,0.231c1.282-0.002,3.732,0.03,7.352,0.098c3.371,0,6.001-0.065,7.89-0.198
	c1.837-0.185,3.686-0.229,5.529-0.131c1.069,0.063,2.097,0.43,2.966,1.055c0.32,0.248,0.603,0.535,0.844,0.857
	c0.2,0.236,0.381,0.49,0.538,0.76c0.14,0.197,0.31,0.377,0.505,0.521c0.189,0.113,0.405,0.174,0.624,0.176h0.017
	c0.046,0,0.09-0.002,0.135-0.008c0.669-0.143,1.188-0.674,1.315-1.348c0.088-0.289,0.167-0.598,0.235-0.928l0.068-0.395h3.878
	c0.293-0.663,0.666-0.86,1.113-0.594c0.01-0.06,0.047-0.109,0.102-0.133c0.086-0.072,0.193-0.105,0.303-0.101
	c0.1-0.004,0.197,0.03,0.271,0.101c0.055,0.03,0.102,0.078,0.135,0.133c0.07-0.062,0.148-0.105,0.236-0.133
	c0.24-0.068,0.49-0.101,0.74-0.101c0.252-0.006,0.5,0.026,0.742,0.101c0.098,0.022,0.191,0.069,0.271,0.133
	c0.018-0.039,0.043-0.074,0.07-0.105c0.168-0.182,0.453-0.195,0.637-0.027c0.039,0.037,0.072,0.082,0.102,0.133
	c0.018-0.039,0.043-0.073,0.068-0.104c0.168-0.184,0.455-0.197,0.639-0.029c0.039,0.037,0.074,0.082,0.102,0.133
	c0.08-0.063,0.172-0.108,0.271-0.133c0.24-0.072,0.488-0.104,0.74-0.1c0.238-0.004,0.479,0.029,0.709,0.1
	c0.098,0.023,0.188,0.07,0.271,0.133c0.025-0.051,0.059-0.096,0.1-0.133c0.182-0.131,0.426-0.131,0.605,0
	c0.039,0.037,0.074,0.082,0.104,0.133c0.031-0.055,0.08-0.102,0.135-0.133c0.086-0.072,0.193-0.104,0.303-0.1
	c0.102-0.004,0.195,0.031,0.27,0.1c0.057,0.031,0.104,0.078,0.135,0.133c0.07-0.061,0.148-0.104,0.238-0.133
	c0.484-0.131,0.996-0.131,1.48,0c0.096,0.033,0.186,0.078,0.271,0.133c0.01-0.059,0.049-0.108,0.102-0.133
	c0.012-0.01,0.025-0.018,0.035-0.024c0.229-0.144,0.531-0.072,0.672,0.157c0.025-0.051,0.063-0.096,0.102-0.133
	c0.182-0.131,0.426-0.131,0.607,0c0.041,0.037,0.074,0.082,0.1,0.133c0.08-0.063,0.174-0.108,0.271-0.133
	c0.229-0.07,0.469-0.104,0.707-0.1c0.252-0.004,0.502,0.027,0.742,0.1c0.1,0.023,0.189,0.07,0.27,0.133
	c0.025-0.051,0.061-0.096,0.102-0.133c0.182-0.131,0.426-0.131,0.605,0c0.084,0.072,0.174,0.14,0.271,0.197
	c0.063-0.041,0.129-0.07,0.197-0.09c0.369-0.1,0.746,0.119,0.848,0.486l16.047,0.137l9.914-7.428
	c-1.281-0.288-2.943-0.598-4.99-0.927c-3.871-0.637-7.771-1.076-11.691-1.32c-3.707-0.198-9.799-0.354-18.271-0.465L44.844,7.307
	c-0.046-0.449-0.136-0.891-0.269-1.321c-0.271-0.924-0.641-1.431-1.113-1.519c-0.06-0.011-0.121-0.018-0.181-0.018L43.235,4.447
	L43.235,4.447z"/>
<linearGradient id="shape1_7_" gradientUnits="userSpaceOnUse" x1="0.5674" y1="12.333" x2="91.4326" y2="12.333">
	<stop  offset="0" style="stop-color:#B1DB7F;stop-opacity:0"/>
	<stop  offset="0.1061" style="stop-color:#B1DB7F;stop-opacity:0.1061"/>
	<stop  offset="1" style="stop-color:#B1DB7F"/>
</linearGradient>
<path id="shape1_3_" fill="url(#shape1_7_)" d="M2.655,12.191c-0.169-0.152-0.267-0.367-0.269-0.594
	c-0.003-0.237,0.095-0.464,0.269-0.627c0.345-0.308,0.869-0.308,1.214,0c0.174,0.163,0.272,0.39,0.27,0.627
	c-0.003,0.227-0.1,0.442-0.27,0.594c-0.173,0.154-0.39,0.232-0.607,0.232S2.828,12.344,2.655,12.191 M43.235,4.447
	c-0.166,0.002-0.331,0.043-0.482,0.118c-0.416,0.231-0.756,0.576-0.981,0.994c0.037,0.016,0.072,0.038,0.104,0.063
	c0.086,0.102,0.134,0.229,0.135,0.362c0.003,0.125-0.046,0.245-0.135,0.332c-0.09,0.087-0.211,0.136-0.338,0.132
	c-0.095,0.003-0.187-0.02-0.269-0.067c-0.212,0.228-0.453,0.428-0.716,0.596c0.046,0.068,0.071,0.147,0.069,0.229
	c0,0.131-0.064,0.255-0.171,0.331c-0.022,0.031-0.049,0.057-0.079,0.079c-0.187,0.144-0.453,0.107-0.595-0.079
	c-0.056-0.032-0.101-0.076-0.134-0.131c-0.202,0.044-0.44,0.098-0.71,0.166v0.064C38.93,7.775,38.869,7.907,38.765,8
	c-0.089,0.089-0.212,0.138-0.339,0.136c-0.126,0.002-0.248-0.045-0.337-0.132c-0.085-0.075-0.133-0.183-0.133-0.295
	c-0.271,0.037-0.551,0.071-0.842,0.093v0.033c0,0.134-0.048,0.262-0.135,0.363c-0.09,0.087-0.21,0.135-0.336,0.132
	c-0.135,0-0.266-0.046-0.372-0.132c-0.083-0.09-0.129-0.206-0.135-0.328c-0.224,0-0.481-0.011-0.774-0.033
	c0.003,0.124-0.045,0.244-0.135,0.329c-0.105,0.085-0.236,0.13-0.371,0.13c-0.125,0.005-0.248-0.042-0.336-0.13
	c-0.087-0.102-0.136-0.23-0.135-0.364V7.771c-1.281-0.089-2.36-0.156-3.237-0.199c-3.909-0.243-7.495-0.34-10.755-0.296
	c-2.092,0.042-4.171,0.12-6.239,0.231V7.54c0.003,0.125-0.047,0.244-0.136,0.332C13.928,7.958,13.807,8.005,13.682,8
	c-0.136,0.007-0.27-0.039-0.371-0.129c-0.084-0.076-0.133-0.185-0.135-0.298c-0.213,0-0.425,0.01-0.638,0.033v0.036
	c0.004,0.124-0.045,0.244-0.135,0.33c-0.089,0.09-0.212,0.139-0.34,0.132c-0.135,0-0.267-0.046-0.37-0.132
	c-0.085-0.076-0.134-0.185-0.136-0.299c-0.203,0-0.405,0.009-0.606,0.034v0.032c0.001,0.13-0.063,0.252-0.17,0.329
	c-0.021,0.028-0.047,0.054-0.075,0.075c-0.187,0.145-0.455,0.111-0.598-0.075c-0.091-0.07-0.141-0.182-0.135-0.296L9.231,7.839
	v0.066c0.003,0.124-0.046,0.244-0.135,0.329C8.99,8.32,8.86,8.366,8.724,8.366C8.599,8.369,8.477,8.323,8.387,8.234
	C8.303,8.159,8.254,8.051,8.252,7.938C8.028,7.96,7.826,7.98,7.647,8.003v0.034C7.65,8.16,7.601,8.28,7.512,8.365
	C7.415,8.469,7.282,8.529,7.14,8.532C7.008,8.533,6.883,8.471,6.804,8.365C6.712,8.294,6.661,8.184,6.669,8.068
	C6.444,8.09,6.23,8.112,6.028,8.135v0.063C6.03,8.322,5.981,8.442,5.892,8.529C5.813,8.634,5.688,8.698,5.556,8.697
	C5.415,8.695,5.282,8.634,5.185,8.531C5.116,8.459,5.068,8.365,5.052,8.267c-0.595,0.051-1.184,0.161-1.755,0.33
	C3.068,8.734,2.891,8.943,2.792,9.192C2.749,9.31,2.726,9.433,2.724,9.557L2.32,9.589l-1.753,2.24l1.753,1.98l0.64-0.033
	l-0.101,0.199C2.839,14.187,2.9,14.4,3.027,14.57c0.225,0.353,0.765,1.045,1.618,2.08c0.877,1.057,1.473,1.75,1.787,2.077
	c0.322,0.336,0.698,0.615,1.112,0.826c0.418,0.176,0.882,0.199,1.315,0.068c0.382-0.107,0.702-0.371,0.878-0.727
	c0-0.004,0-0.008,0-0.01c0.002-0.018,0.018-0.025,0.033-0.023c-0.037-0.021-0.071-0.041-0.101-0.066
	c-0.065-0.061-0.102-0.145-0.101-0.232c-0.004-0.098,0.032-0.193,0.101-0.266c0.131-0.119,0.328-0.131,0.474-0.029
	c0.068-0.07,0.147-0.125,0.235-0.166c0.118-0.066,0.21-0.123,0.303-0.166c-0.021-0.041-0.032-0.084-0.034-0.131
	c0-0.088,0.038-0.174,0.101-0.23c0.061-0.066,0.147-0.1,0.235-0.098c0.101-0.006,0.197,0.03,0.271,0.098
	c0.027,0.029,0.049,0.061,0.067,0.1c0.187-0.068,0.379-0.125,0.574-0.168c-0.021-0.016-0.033-0.039-0.034-0.065
	c-0.005-0.099,0.032-0.195,0.101-0.265c0.077-0.063,0.171-0.096,0.27-0.098c0.087,0,0.173,0.032,0.236,0.098
	c0.053,0.041,0.087,0.101,0.1,0.166l0.642-0.067c-0.02-0.019-0.032-0.041-0.034-0.066c0-0.088,0.037-0.17,0.101-0.232
	c0.077-0.057,0.171-0.094,0.27-0.098c0.089,0,0.174,0.035,0.236,0.098c0.067,0.045,0.105,0.119,0.101,0.199
	c0.224-0.021,0.45-0.033,0.674-0.033v-0.031c0.003-0.094,0.054-0.182,0.134-0.229c0.001-0.002,0.003-0.002,0.004-0.004
	c0.13-0.129,0.34-0.127,0.468,0.004c0.065,0.06,0.101,0.144,0.101,0.229c0.136,0,0.271-0.012,0.405-0.03h0.405
	c0-0.091,0.036-0.175,0.1-0.231c0.063-0.064,0.148-0.097,0.236-0.095c0.098-0.006,0.197,0.026,0.27,0.095
	c0.064,0.059,0.1,0.143,0.1,0.231c1.282-0.002,3.732,0.03,7.352,0.098c3.371,0,6.001-0.065,7.89-0.198
	c1.837-0.185,3.686-0.229,5.529-0.131c1.069,0.063,2.097,0.43,2.966,1.055c0.32,0.248,0.603,0.535,0.844,0.857
	c0.2,0.236,0.381,0.49,0.538,0.76c0.14,0.197,0.31,0.377,0.505,0.521c0.189,0.113,0.405,0.174,0.624,0.176h0.017
	c0.046,0,0.09-0.002,0.135-0.008c0.669-0.143,1.188-0.674,1.315-1.348c0.088-0.289,0.167-0.598,0.235-0.928l0.068-0.395h3.878
	c0.293-0.663,0.666-0.86,1.113-0.594c0.01-0.06,0.047-0.109,0.102-0.133c0.086-0.072,0.193-0.105,0.303-0.101
	c0.1-0.004,0.197,0.03,0.271,0.101c0.055,0.03,0.102,0.078,0.135,0.133c0.07-0.062,0.148-0.105,0.236-0.133
	c0.24-0.068,0.49-0.101,0.74-0.101c0.252-0.006,0.5,0.026,0.742,0.101c0.098,0.022,0.191,0.069,0.271,0.133
	c0.018-0.039,0.043-0.074,0.07-0.105c0.168-0.182,0.453-0.195,0.637-0.027c0.039,0.037,0.072,0.082,0.102,0.133
	c0.018-0.039,0.043-0.073,0.068-0.104c0.168-0.184,0.455-0.197,0.639-0.029c0.039,0.037,0.074,0.082,0.102,0.133
	c0.08-0.063,0.172-0.108,0.271-0.133c0.24-0.072,0.488-0.104,0.74-0.1c0.238-0.004,0.479,0.029,0.709,0.1
	c0.098,0.023,0.188,0.07,0.271,0.133c0.025-0.051,0.059-0.096,0.1-0.133c0.182-0.131,0.426-0.131,0.605,0
	c0.039,0.037,0.074,0.082,0.104,0.133c0.031-0.055,0.08-0.102,0.135-0.133c0.086-0.072,0.193-0.104,0.303-0.1
	c0.102-0.004,0.195,0.031,0.27,0.1c0.057,0.031,0.104,0.078,0.135,0.133c0.07-0.061,0.148-0.104,0.238-0.133
	c0.484-0.131,0.996-0.131,1.48,0c0.096,0.033,0.186,0.078,0.271,0.133c0.01-0.059,0.049-0.108,0.102-0.133
	c0.012-0.01,0.025-0.018,0.035-0.024c0.229-0.144,0.531-0.072,0.672,0.157c0.025-0.051,0.063-0.096,0.102-0.133
	c0.182-0.131,0.426-0.131,0.607,0c0.041,0.037,0.074,0.082,0.1,0.133c0.08-0.063,0.174-0.108,0.271-0.133
	c0.229-0.07,0.469-0.104,0.707-0.1c0.252-0.004,0.502,0.027,0.742,0.1c0.1,0.023,0.189,0.07,0.27,0.133
	c0.025-0.051,0.061-0.096,0.102-0.133c0.182-0.131,0.426-0.131,0.605,0c0.084,0.072,0.174,0.14,0.271,0.197
	c0.063-0.041,0.129-0.07,0.197-0.09c0.369-0.1,0.746,0.119,0.848,0.486l16.047,0.137l9.914-7.428
	c-1.281-0.288-2.943-0.598-4.99-0.927c-3.871-0.637-7.771-1.076-11.691-1.32c-3.707-0.198-9.799-0.354-18.271-0.465L44.844,7.307
	c-0.046-0.449-0.136-0.891-0.269-1.321c-0.271-0.924-0.641-1.431-1.113-1.519c-0.06-0.011-0.121-0.018-0.181-0.018L43.235,4.447
	L43.235,4.447z"/>
<linearGradient id="shape1_8_" gradientUnits="userSpaceOnUse" x1="0.5674" y1="12.333" x2="91.4326" y2="12.333">
	<stop  offset="0" style="stop-color:#B1DB7F;stop-opacity:0"/>
	<stop  offset="0.1061" style="stop-color:#B1DB7F;stop-opacity:0.1061"/>
	<stop  offset="1" style="stop-color:#B1DB7F"/>
</linearGradient>
<path id="shape1_4_" fill="url(#shape1_8_)" d="M2.655,12.191c-0.169-0.152-0.267-0.367-0.269-0.594
	c-0.003-0.237,0.095-0.464,0.269-0.627c0.345-0.308,0.869-0.308,1.214,0c0.174,0.163,0.272,0.39,0.27,0.627
	c-0.003,0.227-0.1,0.442-0.27,0.594c-0.173,0.154-0.39,0.232-0.607,0.232S2.828,12.344,2.655,12.191 M43.235,4.447
	c-0.166,0.002-0.331,0.043-0.482,0.118c-0.416,0.231-0.756,0.576-0.981,0.994c0.037,0.016,0.072,0.038,0.104,0.063
	c0.086,0.102,0.134,0.229,0.135,0.362c0.003,0.125-0.046,0.245-0.135,0.332c-0.09,0.087-0.211,0.136-0.338,0.132
	c-0.095,0.003-0.187-0.02-0.269-0.067c-0.212,0.228-0.453,0.428-0.716,0.596c0.046,0.068,0.071,0.147,0.069,0.229
	c0,0.131-0.064,0.255-0.171,0.331c-0.022,0.031-0.049,0.057-0.079,0.079c-0.187,0.144-0.453,0.107-0.595-0.079
	c-0.056-0.032-0.101-0.076-0.134-0.131c-0.202,0.044-0.44,0.098-0.71,0.166v0.064C38.93,7.775,38.869,7.907,38.765,8
	c-0.089,0.089-0.212,0.138-0.339,0.136c-0.126,0.002-0.248-0.045-0.337-0.132c-0.085-0.075-0.133-0.183-0.133-0.295
	c-0.271,0.037-0.551,0.071-0.842,0.093v0.033c0,0.134-0.048,0.262-0.135,0.363c-0.09,0.087-0.21,0.135-0.336,0.132
	c-0.135,0-0.266-0.046-0.372-0.132c-0.083-0.09-0.129-0.206-0.135-0.328c-0.224,0-0.481-0.011-0.774-0.033
	c0.003,0.124-0.045,0.244-0.135,0.329c-0.105,0.085-0.236,0.13-0.371,0.13c-0.125,0.005-0.248-0.042-0.336-0.13
	c-0.087-0.102-0.136-0.23-0.135-0.364V7.771c-1.281-0.089-2.36-0.156-3.237-0.199c-3.909-0.243-7.495-0.34-10.755-0.296
	c-2.092,0.042-4.171,0.12-6.239,0.231V7.54c0.003,0.125-0.047,0.244-0.136,0.332C13.928,7.958,13.807,8.005,13.682,8
	c-0.136,0.007-0.27-0.039-0.371-0.129c-0.084-0.076-0.133-0.185-0.135-0.298c-0.213,0-0.425,0.01-0.638,0.033v0.036
	c0.004,0.124-0.045,0.244-0.135,0.33c-0.089,0.09-0.212,0.139-0.34,0.132c-0.135,0-0.267-0.046-0.37-0.132
	c-0.085-0.076-0.134-0.185-0.136-0.299c-0.203,0-0.405,0.009-0.606,0.034v0.032c0.001,0.13-0.063,0.252-0.17,0.329
	c-0.021,0.028-0.047,0.054-0.075,0.075c-0.187,0.145-0.455,0.111-0.598-0.075c-0.091-0.07-0.141-0.182-0.135-0.296L9.231,7.839
	v0.066c0.003,0.124-0.046,0.244-0.135,0.329C8.99,8.32,8.86,8.366,8.724,8.366C8.599,8.369,8.477,8.323,8.387,8.234
	C8.303,8.159,8.254,8.051,8.252,7.938C8.028,7.96,7.826,7.98,7.647,8.003v0.034C7.65,8.16,7.601,8.28,7.512,8.365
	C7.415,8.469,7.282,8.529,7.14,8.532C7.008,8.533,6.883,8.471,6.804,8.365C6.712,8.294,6.661,8.184,6.669,8.068
	C6.444,8.09,6.23,8.112,6.028,8.135v0.063C6.03,8.322,5.981,8.442,5.892,8.529C5.813,8.634,5.688,8.698,5.556,8.697
	C5.415,8.695,5.282,8.634,5.185,8.531C5.116,8.459,5.068,8.365,5.052,8.267c-0.595,0.051-1.184,0.161-1.755,0.33
	C3.068,8.734,2.891,8.943,2.792,9.192C2.749,9.31,2.726,9.433,2.724,9.557L2.32,9.589l-1.753,2.24l1.753,1.98l0.64-0.033
	l-0.101,0.199C2.839,14.187,2.9,14.4,3.027,14.57c0.225,0.353,0.765,1.045,1.618,2.08c0.877,1.057,1.473,1.75,1.787,2.077
	c0.322,0.336,0.698,0.615,1.112,0.826c0.418,0.176,0.882,0.199,1.315,0.068c0.382-0.107,0.702-0.371,0.878-0.727
	c0-0.004,0-0.008,0-0.01c0.002-0.018,0.018-0.025,0.033-0.023c-0.037-0.021-0.071-0.041-0.101-0.066
	c-0.065-0.061-0.102-0.145-0.101-0.232c-0.004-0.098,0.032-0.193,0.101-0.266c0.131-0.119,0.328-0.131,0.474-0.029
	c0.068-0.07,0.147-0.125,0.235-0.166c0.118-0.066,0.21-0.123,0.303-0.166c-0.021-0.041-0.032-0.084-0.034-0.131
	c0-0.088,0.038-0.174,0.101-0.23c0.061-0.066,0.147-0.1,0.235-0.098c0.101-0.006,0.197,0.03,0.271,0.098
	c0.027,0.029,0.049,0.061,0.067,0.1c0.187-0.068,0.379-0.125,0.574-0.168c-0.021-0.016-0.033-0.039-0.034-0.065
	c-0.005-0.099,0.032-0.195,0.101-0.265c0.077-0.063,0.171-0.096,0.27-0.098c0.087,0,0.173,0.032,0.236,0.098
	c0.053,0.041,0.087,0.101,0.1,0.166l0.642-0.067c-0.02-0.019-0.032-0.041-0.034-0.066c0-0.088,0.037-0.17,0.101-0.232
	c0.077-0.057,0.171-0.094,0.27-0.098c0.089,0,0.174,0.035,0.236,0.098c0.067,0.045,0.105,0.119,0.101,0.199
	c0.224-0.021,0.45-0.033,0.674-0.033v-0.031c0.003-0.094,0.054-0.182,0.134-0.229c0.001-0.002,0.003-0.002,0.004-0.004
	c0.13-0.129,0.34-0.127,0.468,0.004c0.065,0.06,0.101,0.144,0.101,0.229c0.136,0,0.271-0.012,0.405-0.03h0.405
	c0-0.091,0.036-0.175,0.1-0.231c0.063-0.064,0.148-0.097,0.236-0.095c0.098-0.006,0.197,0.026,0.27,0.095
	c0.064,0.059,0.1,0.143,0.1,0.231c1.282-0.002,3.732,0.03,7.352,0.098c3.371,0,6.001-0.065,7.89-0.198
	c1.837-0.185,3.686-0.229,5.529-0.131c1.069,0.063,2.097,0.43,2.966,1.055c0.32,0.248,0.603,0.535,0.844,0.857
	c0.2,0.236,0.381,0.49,0.538,0.76c0.14,0.197,0.31,0.377,0.505,0.521c0.189,0.113,0.405,0.174,0.624,0.176h0.017
	c0.046,0,0.09-0.002,0.135-0.008c0.669-0.143,1.188-0.674,1.315-1.348c0.088-0.289,0.167-0.598,0.235-0.928l0.068-0.395h3.878
	c0.293-0.663,0.666-0.86,1.113-0.594c0.01-0.06,0.047-0.109,0.102-0.133c0.086-0.072,0.193-0.105,0.303-0.101
	c0.1-0.004,0.197,0.03,0.271,0.101c0.055,0.03,0.102,0.078,0.135,0.133c0.07-0.062,0.148-0.105,0.236-0.133
	c0.24-0.068,0.49-0.101,0.74-0.101c0.252-0.006,0.5,0.026,0.742,0.101c0.098,0.022,0.191,0.069,0.271,0.133
	c0.018-0.039,0.043-0.074,0.07-0.105c0.168-0.182,0.453-0.195,0.637-0.027c0.039,0.037,0.072,0.082,0.102,0.133
	c0.018-0.039,0.043-0.073,0.068-0.104c0.168-0.184,0.455-0.197,0.639-0.029c0.039,0.037,0.074,0.082,0.102,0.133
	c0.08-0.063,0.172-0.108,0.271-0.133c0.24-0.072,0.488-0.104,0.74-0.1c0.238-0.004,0.479,0.029,0.709,0.1
	c0.098,0.023,0.188,0.07,0.271,0.133c0.025-0.051,0.059-0.096,0.1-0.133c0.182-0.131,0.426-0.131,0.605,0
	c0.039,0.037,0.074,0.082,0.104,0.133c0.031-0.055,0.08-0.102,0.135-0.133c0.086-0.072,0.193-0.104,0.303-0.1
	c0.102-0.004,0.195,0.031,0.27,0.1c0.057,0.031,0.104,0.078,0.135,0.133c0.07-0.061,0.148-0.104,0.238-0.133
	c0.484-0.131,0.996-0.131,1.48,0c0.096,0.033,0.186,0.078,0.271,0.133c0.01-0.059,0.049-0.108,0.102-0.133
	c0.012-0.01,0.025-0.018,0.035-0.024c0.229-0.144,0.531-0.072,0.672,0.157c0.025-0.051,0.063-0.096,0.102-0.133
	c0.182-0.131,0.426-0.131,0.607,0c0.041,0.037,0.074,0.082,0.1,0.133c0.08-0.063,0.174-0.108,0.271-0.133
	c0.229-0.07,0.469-0.104,0.707-0.1c0.252-0.004,0.502,0.027,0.742,0.1c0.1,0.023,0.189,0.07,0.27,0.133
	c0.025-0.051,0.061-0.096,0.102-0.133c0.182-0.131,0.426-0.131,0.605,0c0.084,0.072,0.174,0.14,0.271,0.197
	c0.063-0.041,0.129-0.07,0.197-0.09c0.369-0.1,0.746,0.119,0.848,0.486l16.047,0.137l9.914-7.428
	c-1.281-0.288-2.943-0.598-4.99-0.927c-3.871-0.637-7.771-1.076-11.691-1.32c-3.707-0.198-9.799-0.354-18.271-0.465L44.844,7.307
	c-0.046-0.449-0.136-0.891-0.269-1.321c-0.271-0.924-0.641-1.431-1.113-1.519c-0.06-0.011-0.121-0.018-0.181-0.018L43.235,4.447
	L43.235,4.447z"/>
</svg>
