<?xml version="1.0" encoding="utf-8"?>
<!-- Generator: Adobe Illustrator 16.0.0, SVG Export Plug-In . SVG Version: 6.00 Build 0)  -->
<!DOCTYPE svg PUBLIC "-//W3C//DTD SVG 1.1//EN" "http://www.w3.org/Graphics/SVG/1.1/DTD/svg11.dtd">
<svg version="1.1" id="tc" xmlns="http://www.w3.org/2000/svg" xmlns:xlink="http://www.w3.org/1999/xlink" x="0px" y="0px"
	 width="92px" height="36px" viewBox="0 0 92 36" enable-background="new 0 0 92 36" xml:space="preserve">
<linearGradient id="shape1_1_" gradientUnits="userSpaceOnUse" x1="0.4395" y1="18.625" x2="91.5615" y2="18.625">
	<stop  offset="2.300000e-007" style="stop-color:#ECD6B9"/>
	<stop  offset="1" style="stop-color:#B5691F"/>
</linearGradient>
<path id="shape1" fill="url(#shape1_1_)" d="M31.511,16.924c-0.355-0.513-0.355-1.19,0-1.702c0.163-0.164,0.38-0.26,0.611-0.271
	h2.784c0.253,0.009,0.496,0.106,0.688,0.271c0.355,0.512,0.355,1.189,0,1.702c-0.181,0.186-0.427,0.297-0.688,0.309h-2.784
	C31.885,17.218,31.664,17.106,31.511,16.924 M2.978,18.24c-0.024-0.567-0.075-1.162-0.153-1.779
	c-0.077-0.542-0.151-1.07-0.229-1.587c-0.093-0.485-0.158-0.976-0.194-1.469h8.622c-0.763,0.566-1.627,1.198-2.594,1.895
	c-0.941,0.749-1.92,1.497-2.938,2.245c-0.458,0.413-0.915,0.799-1.373,1.16c-0.407,0.336-0.725,0.619-0.953,0.851
	C3.118,19.168,3.055,18.73,2.978,18.24 M72.144,5.473L70.54,5.627l-0.533,1.008c-0.009,0.212,0.03,0.423,0.114,0.618v0.503
	c0.021,0.089,0.034,0.18,0.039,0.272H46.619c-0.05,0-0.075-0.015-0.075-0.039c-0.064-0.06-0.093-0.148-0.077-0.233v-0.31H44.75
	l0.115,0.305c0.082,0.209,0.12,0.432,0.115,0.658h-9.729c-0.145,0.006-0.288-0.02-0.421-0.078c-0.089-0.003-0.18-0.016-0.267-0.04
	c-0.496-0.148-1.015-0.198-1.53-0.15c-0.826-0.004-1.653,0.046-2.474,0.15c-0.076-0.358-0.152-0.705-0.229-1.041
	c-0.043-0.248-0.18-0.468-0.381-0.618h-0.496c-0.635,0.257-0.952,0.296-0.952,0.115L27.66,5.935l-0.115-0.154h-0.304
	c-0.288-0.015-0.574,0.04-0.838,0.154c-0.258,0.254-0.385,0.61-0.344,0.97v0.347c-0.048,0.518-0.101,0.902-0.152,1.162
	c-0.006,0.25-0.135,0.481-0.344,0.619c-0.148,0.249-0.376,0.439-0.647,0.542c-0.306,0.148-0.624,0.265-0.953,0.348
	c-0.13,0.104-0.292,0.159-0.457,0.155c-0.158,0-0.313,0.026-0.462,0.078c-0.248,0.124-0.525,0.176-0.801,0.153
	c-0.281-0.019-0.56,0.048-0.8,0.192c-0.061,0.098-0.112,0.202-0.151,0.31c-0.039,0.095-0.103,0.176-0.188,0.233v0.151
	c-0.081,0.106-0.212,0.164-0.346,0.154H1.76c-0.378-0.012-0.741,0.144-0.992,0.426c-0.216,0.282-0.327,0.621-0.329,0.963v0.013
	c0.001,0.249,0.059,0.497,0.177,0.727c0.1,0.57,0.203,1.29,0.304,2.167c0.078,0.902,0.154,1.778,0.229,2.63
	c0.1,0.873,0.165,1.639,0.188,2.282c0.025,0.673,0.037,1.071,0.037,1.199c0.025,0.331,0.104,0.658,0.236,0.963
	c0.093,0.249,0.31,0.428,0.571,0.471c0.116-0.02,0.223-0.075,0.306-0.156c0.101-0.104,0.331-0.374,0.686-0.813
	c0.303-0.154,0.564-0.381,0.763-0.657l0.306-0.309c4.095-3.688,7.146-5.532,9.155-5.532l3.205-0.116
	c0.814-0.025,1.69-0.075,2.63-0.154c0.992-0.026,1.895-0.065,2.709-0.116c0.789-0.026,1.501-0.04,2.137-0.04
	c0.36-0.026,0.723,0.014,1.068,0.117c0.058,0.137,0.15,0.256,0.268,0.348c0.102,0.101,0.204,0.206,0.307,0.31
	c0.069,0.119,0.159,0.223,0.266,0.309c0.006,0.106,0.034,0.212,0.086,0.305c0.071,0.089,0.11,0.198,0.115,0.31
	c-0.028,0.099-0.115,0.388-0.268,0.851c-0.152,0.541-0.355,1.146-0.609,1.817c-0.28,0.671-0.56,1.406-0.84,2.207
	c-0.332,0.772-0.65,1.507-0.954,2.204v0.118l0.229,0.116c2.443,1.315,3.879,1.973,4.311,1.973c0-0.077,0.026-0.116,0.077-0.116
	c0.061-0.045,0.09-0.119,0.076-0.193v-0.619c0-0.542,0.063-1.394,0.188-2.553c0.267-1.539,0.741-3.036,1.409-4.45l0.686-0.349
	c0.079-0.028,0.145-0.082,0.188-0.153c0.44,0.289,0.913,0.523,1.408,0.697c0.975,0.284,2.013,0.272,2.978-0.038
	c0.267,0.019,0.52-0.117,0.648-0.35c0.074,0,0.114-0.012,0.114-0.04c0.028-0.077,0.106-0.125,0.188-0.115
	c0.339-0.136,0.67-0.29,0.992-0.462c0.275,0.878,0.504,1.769,0.686,2.67c0.28,1.342,0.636,2.761,1.07,4.255
	c0.431,1.521,0.888,2.979,1.372,4.371c0.314,1.041,0.777,2.033,1.374,2.94h0.267c0.903-0.512,1.834-0.976,2.786-1.391
	c0.663-0.31,1.182-0.567,1.564-0.773c0.287-0.114,0.567-0.243,0.84-0.389l0.305-0.115l-0.152-0.272
	c0.001-0.023-0.203-0.488-0.609-1.393c-0.383-0.928-0.829-2.077-1.338-3.442c-0.482-1.419-0.926-2.914-1.333-4.486
	c-0.382-1.454-0.587-2.948-0.613-4.45c0.015-0.123,0.054-0.242,0.115-0.349c0.026-0.153,0.038-0.308,0.04-0.463
	c0.1,0,0.368-0.026,0.801-0.076c0.434-0.106,0.876-0.194,1.335-0.274c0.483-0.103,0.94-0.182,1.374-0.231
	c0.288-0.022,0.569-0.087,0.838-0.193v0.534c0.003,0.234,0.029,0.468,0.076,0.697c-0.001,0.298,0.024,0.595,0.076,0.89l0.188,0.47
	h0.114c0.245-0.04,0.485-0.091,0.726-0.154c0.335-0.028,0.665-0.079,0.992-0.155c0.305-0.027,0.571-0.051,0.801-0.077
	c0.181-0.015,0.358-0.041,0.535-0.077c0.152,0,0.611-0.012,1.372-0.039c0.763,0.001,1.694-0.026,2.786-0.077
	c1.12-0.027,2.289-0.039,3.511-0.039c1.243-0.026,2.388-0.039,3.432-0.039h0.31c-0.005-0.26,0.021-0.519,0.075-0.773
	c-0.005-0.156,0.008-0.31,0.037-0.463c0.021-0.128,0.034-0.258,0.04-0.387c0.127,0.002,0.257-0.011,0.381-0.04l0.269-0.116
	c0.01-0.148,0.049-0.293,0.113-0.426c0.045-0.123,0.068-0.255,0.074-0.386c0.688-0.05,1.365-0.077,2.022-0.077
	c0.737-0.052,1.372-0.077,1.907-0.077c0.471-0.005,0.94,0.021,1.41,0.077c0.23-0.017,0.464,0.01,0.686,0.077l0.726,0.232
	c0.156,0.085,0.323,0.151,0.496,0.192c0.136,0.045,0.276,0.071,0.418,0.079c0.271,0.213,0.526,0.446,0.764,0.696
	c0.214,0.225,0.495,0.375,0.801,0.423c0.584-0.063,1.119-0.354,1.488-0.811c0.21-0.217,0.32-0.511,0.307-0.812
	c0.457,0.001,1.346-0.012,2.67-0.039c1.424-0.026,2.848-0.04,4.272-0.04c1.447-0.053,2.758-0.091,3.93-0.115h6.026v-2.553
	c0.002-0.028,0.001-0.058-0.004-0.084c-0.03-0.176-0.196-0.294-0.372-0.263c-0.198-0.204-0.492-0.277-0.762-0.19
	C90.065,9.563,89.67,9.59,89.24,9.617c-0.383,0.072-0.711,0.138-0.994,0.188c-0.237,0.056-0.48,0.094-0.727,0.116h-0.962
	c-0.556,0.027-1.244,0.039-2.059,0.039c-0.763,0.001-1.639,0.014-2.631,0.039c-0.916,0.053-1.819,0.078-2.709,0.078
	c-0.888,0-1.7-0.025-2.439-0.077c-0.736-0.025-1.242-0.051-1.523-0.078c-0.706,0.009-1.404-0.166-2.023-0.502
	c-0.432-0.243-0.829-0.542-1.183-0.89c0.019-0.042,0.045-0.081,0.076-0.115c0.051,0,0.095-0.03,0.113-0.078l0.116-0.04V5.473H72.144
	z"/>
</svg>
