<?xml version="1.0" encoding="utf-8"?>
<!-- Generator: Adobe Illustrator 16.0.0, SVG Export Plug-In . SVG Version: 6.00 Build 0)  -->
<!DOCTYPE svg PUBLIC "-//W3C//DTD SVG 1.1//EN" "http://www.w3.org/Graphics/SVG/1.1/DTD/svg11.dtd">
<svg version="1.1" id="tc" xmlns="http://www.w3.org/2000/svg" xmlns:xlink="http://www.w3.org/1999/xlink" x="0px" y="0px"
	 width="92px" height="36px" viewBox="0 0 92 36" enable-background="new 0 0 92 36" xml:space="preserve">
<g id="shape1">
	<defs>
		<path id="SVGID_1_" d="M43.286,16.55v-0.211c-0.213-0.06-0.418-0.146-0.61-0.257c-0.312-0.145-0.583-0.365-0.788-0.641
			c-0.155-0.244-0.286-0.503-0.391-0.772c-0.095-0.334-0.14-0.679-0.134-1.026c0.011-0.418,0.116-0.828,0.307-1.2
			c0.058-0.113,0.129-0.243,0.217-0.386c0.022-0.047,0.052-0.09,0.089-0.126l0.043-0.428l-0.22-0.043l0.133-0.215
			c0.102-0.16,0.255-0.281,0.434-0.343c0.211-0.075,0.433-0.117,0.657-0.126c0.259-0.023,0.52,0.037,0.743,0.171
			c0.304,0.21,0.569,0.47,0.785,0.769c0.231,0.263,0.409,0.569,0.523,0.9c0.073,0.437,0.102,0.881,0.088,1.325
			c0.015,0.372,0.001,0.744-0.043,1.114c-0.05,0.18-0.122,0.353-0.218,0.513c-0.142,0.226-0.318,0.429-0.522,0.6
			c-0.938,0.638-1.991,1.088-3.1,1.325c-0.634,0.117-1.284,0.131-1.922,0.041c-0.544-0.024-1.078-0.154-1.572-0.384
			c-0.54-0.25-0.996-0.65-1.312-1.155c-0.083-0.137-0.156-0.281-0.216-0.43l-0.045-0.169c0.011-0.261,0.055-0.52,0.133-0.769
			c0.116-0.602,0.387-1.163,0.787-1.627c0.411-0.488,0.933-0.871,1.523-1.115c0.252-0.103,0.516-0.174,0.786-0.212l0.223,0.167
			c0.176,0.144,0.292,0.244,0.349,0.3c0.078,0.149,0.136,0.309,0.175,0.473c0.031,0.172,0.06,0.313,0.088,0.428v0.258
			c0.031,0.228,0.059,0.44,0.089,0.64c0.044,0.497,0.193,0.979,0.436,1.415c0.389,0.52,0.94,0.896,1.567,1.069
			c0.242,0.088,0.497,0.133,0.754,0.133C43.177,16.556,43.232,16.554,43.286,16.55 M27.482,2v0.729h-1.4v0.3
			c-0.167,0.035-0.329,0.093-0.481,0.171c-0.29,0.122-0.546,0.312-0.746,0.554c-0.189,0.222-0.323,0.485-0.392,0.768
			c-0.029,0.143-0.059,0.286-0.088,0.428L24.33,5.465l-0.221-0.256v-0.47c-0.121-0.151-0.251-0.295-0.389-0.43
			c-0.132-0.189-0.314-0.337-0.527-0.428c-0.214-0.057-0.44-0.057-0.654,0c-0.317,0.082-0.567,0.326-0.656,0.642
			c-0.115,0.275-0.115,0.584,0,0.858c0.062,0.203,0.204,0.373,0.394,0.469c0.193,0.131,0.421,0.206,0.655,0.214
			c0.117-0.001,0.234-0.015,0.349-0.042l0.22,0.085c0.16,0.021,0.312,0.08,0.444,0.172c0.115,0.085,0.216,0.186,0.301,0.3
			c0.023,0.047,0.052,0.09,0.089,0.127v0.173c-0.03,0.143-0.059,0.284-0.089,0.429c-0.155,0.5-0.407,0.966-0.743,1.367
			c-0.323,0.381-0.725,0.688-1.177,0.9c-0.157,0.1-0.337,0.158-0.523,0.171v0.728l0.61,0.47c0.35,0.248,0.685,0.518,1,0.81
			c0.253,0.273,0.472,0.576,0.655,0.9c0.188,0.308,0.336,0.638,0.438,0.984c0.087,0.247,0.101,0.514,0.043,0.77
			c-0.044,0.233-0.101,0.463-0.173,0.688c-0.211,0.422-0.459,0.824-0.744,1.2c-0.205,0.313-0.412,0.601-0.612,0.856l-3.89,10.231
			c-0.085,0.379-0.128,0.768-0.128,1.156c-0.007,0.3,0.007,0.602,0.044,0.9c0.032,0.131,0.076,0.26,0.128,0.384
			c0.026,0.171,0.04,0.343,0.043,0.516l0.041,0.089c0.022,0.053,0.073,0.086,0.13,0.085c0.102,0.07,0.228,0.101,0.351,0.086
			l0.611,0.128l0.088,0.858l0.263,0.3l7.6-0.086l0.873-0.128c0.548-0.087,1.088-0.217,1.616-0.388
			c0.424-0.17,0.821-0.401,1.179-0.686l0.48-0.428l0.044-0.085c-0.037-0.037-0.067-0.08-0.088-0.127
			c-0.075-0.076-0.165-0.135-0.264-0.174c-0.096-0.04-0.197-0.069-0.3-0.085l-0.831-0.035c-0.099-0.481-0.172-0.968-0.216-1.457
			c-0.03-0.199-0.03-0.401,0-0.6c0.003-0.134,0.033-0.265,0.088-0.387c0.377-0.942,1.119-2.756,2.227-5.438l1.573-3.682l0.174-0.3
			l0.744-0.215l0.482-0.387l0.219,0.125c0.229,0.085,0.462,0.156,0.7,0.213c0.751,0.252,1.527,0.427,2.314,0.52
			c1.091,0.058,2.185-0.073,3.233-0.387c0.671-0.171,1.248-0.342,1.748-0.514l1.659-0.557v-0.172l0.173-0.043v-2.739L45.955,13.6
			l-0.044-0.174h-0.13l0.043-0.984l0.611-1.113l0.393,0.259l6.641,22.986V35h3.277v-0.473h1.484l0.09-0.255h0.606l0.22-0.045
			c0.213-0.061,0.418-0.146,0.611-0.255c0.196-0.069,0.387-0.155,0.569-0.257l0.129-0.13v-0.511
			c-0.103-0.104-0.22-0.192-0.351-0.257c-0.088-0.029-0.172-0.059-0.26-0.085l-0.088-0.045l0.348-0.172L53.906,11.5h3.715
			l0.171-0.217c-0.097-0.091-0.196-0.175-0.3-0.255c-0.318-0.215-0.655-0.402-1.008-0.556c-0.416-0.183-0.857-0.299-1.31-0.344
			h-0.612l0.217-0.471h6.557l0.087-0.043c0.071-0.042,0.132-0.1,0.175-0.172c0.082-0.1,0.141-0.217,0.174-0.342V7.435h0.873
			l0.174-0.386l9.876-0.042c0.077-0.134,0.136-0.278,0.174-0.428c0.09-0.379,0.135-0.767,0.133-1.156
			c0.01-0.355-0.065-0.708-0.218-1.029c-0.021-0.088-0.049-0.173-0.086-0.255l-0.088-0.088h-9.7v-0.08
			c0.002-0.072-0.013-0.145-0.043-0.211c-0.043-0.072-0.104-0.131-0.177-0.172L62.6,3.5h-0.613l-0.395-0.3V2.726h-0.217v-0.17
			l-0.523-0.3l-0.918-0.043l-0.261,0.169v0.259L28.741,2.727v-0.47l-0.44-0.043V2H27.482z"/>
	</defs>
	<clipPath id="SVGID_2_">
		<use xlink:href="#SVGID_1_"  overflow="visible"/>
	</clipPath>
	
		<linearGradient id="SVGID_3_" gradientUnits="userSpaceOnUse" x1="1.3325" y1="36.9629" x2="2.333" y2="36.9629" gradientTransform="matrix(54.0017 0 0 54.0017 -52.9866 -1977.5637)">
		<stop  offset="2.300000e-007" style="stop-color:#ECD6B9"/>
		<stop  offset="1" style="stop-color:#B5691F"/>
	</linearGradient>
	<rect x="18.995" y="2" clip-path="url(#SVGID_2_)" fill="url(#SVGID_3_)" width="54.016" height="33"/>
</g>
</svg>
