<?xml version="1.0" encoding="utf-8"?>
<!-- Generator: Adobe Illustrator 16.0.0, SVG Export Plug-In . SVG Version: 6.00 Build 0)  -->
<!DOCTYPE svg PUBLIC "-//W3C//DTD SVG 1.1//EN" "http://www.w3.org/Graphics/SVG/1.1/DTD/svg11.dtd">
<svg version="1.1" id="case1" xmlns="http://www.w3.org/2000/svg" xmlns:xlink="http://www.w3.org/1999/xlink" x="0px" y="0px"
	 width="92px" height="36px" viewBox="0 0 92 36" enable-background="new 0 0 92 36" xml:space="preserve">

<linearGradient id="glock_1_" gradientUnits="userSpaceOnUse" x1="13.998" y1="18.3799" x2="61" y2="18.3799">
	<stop  offset="2.300000e-007" style="stop-color:#F0D9BA"/>
	<stop  offset="1" style="stop-color:#BB6B17"/>
</linearGradient>
<path id="glock" fill="url(#glock_1_)" d="M60,12.862c-0.135,0.068-0.286,0.099-0.438,0.087c-0.646,0.109-1.301,0.167-1.957,0.173
	c-0.93,0.026-1.932,0.054-3.006,0.083c-1.076,0.089-2.135,0.132-3.183,0.132c-1.042,0.026-1.899,0.04-2.571,0.041
	c-0.613-0.012-1.225,0.032-1.828,0.131c-0.467,0.084-0.83,0.156-1.088,0.215c-0.185,0.097-0.336,0.247-0.437,0.43
	c-0.063,0.18-0.093,0.37-0.086,0.56v0.346c0,0.258,0.015,0.571,0.046,0.944c0.026,0.332,0.07,0.661,0.131,0.988
	c0.083,0.4,0.172,0.789,0.259,1.163v0.129l-0.61,0.688v0.129c-0.507,0.157-1.04,0.215-1.569,0.172
	c-1.683,0.086-3.101,0.11-4.267,0.086c-1.104,0-2.047-0.027-2.832-0.086c-0.7-0.086-1.249-0.172-1.654-0.258
	c-0.255-0.077-0.503-0.178-0.74-0.3c-0.239,0.001-0.477,0.046-0.7,0.132c-0.309,0.252-0.586,0.541-0.827,0.859
	c-0.5,0.613-0.938,1.276-1.306,1.979c-0.467,0.946-1.003,2.207-1.611,3.783c-0.639,1.547-1.351,3.495-2.134,5.848l-0.088,0.088
	c0.087,0.504-0.135,1.012-0.566,1.289c-0.2,0.201-0.365,0.242-0.48,0.13H16.7c0-0.13,0.015-0.261,0.045-0.388
	c0.098-0.217,0.157-0.45,0.176-0.688h-0.7c-0.117,0.001-0.234-0.014-0.347-0.043c-0.635-0.038-1.215-0.371-1.568-0.899
	c-0.217-0.365-0.324-0.786-0.306-1.211c-0.014-0.527,0.075-1.053,0.26-1.548c0.09-0.268,0.163-0.54,0.218-0.817v0.086
	c0.03-0.028,0.218-0.272,0.567-0.731c0.292-0.46,0.669-1.033,1.133-1.722c0.495-0.713,1-1.477,1.526-2.276
	c0.609-0.804,1.176-1.593,1.7-2.367c0.513-0.943,0.963-1.92,1.346-2.923c0.269-0.731,0.416-1.502,0.436-2.281
	c-0.001-0.438-0.074-0.874-0.215-1.288c-0.242-0.52-0.618-0.965-1.09-1.29c-0.436-0.26-0.889-0.5-1.352-0.734
	c-0.349-0.043-0.656-0.251-0.827-0.559c-0.121-0.331-0.18-0.68-0.175-1.032c0.001-0.144,0.016-0.288,0.043-0.43V9.375l-0.042-0.08
	V6.067c0.023-0.182-0.022-0.366-0.128-0.516h-0.047c-0.029,0-0.042-0.043-0.042-0.126c0.004-0.046,0.019-0.09,0.042-0.13L17.4,5.206
	c0.111-0.112,0.246-0.199,0.393-0.255c0.614-0.141,1.242-0.214,1.872-0.217c0.054-0.075,0.084-0.166,0.085-0.259
	c0.013-0.076,0.063-0.14,0.133-0.171c0.05-0.104,0.108-0.205,0.173-0.3l0.129-0.129l1.261,0.044l0.134,0.3
	c0.061,0.071,0.091,0.164,0.085,0.257c0.029,0.083,0.044,0.171,0.045,0.259h35.979l0.086-0.172c0.033-0.043,0.08-0.074,0.132-0.088
	l0.827-0.257c0.043,0.071,0.104,0.13,0.175,0.172l0.217,0.212h1.567L61,9.295C61,11.269,60.666,12.461,60,12.862z M42.793,13.724
	H36.6c-0.126,0.025-0.235,0.103-0.3,0.214c-0.153,0.161-0.232,0.378-0.219,0.6v2.063c-0.03,0.237,0.05,0.474,0.219,0.643
	c0.065,0.111,0.174,0.19,0.3,0.218h6.187c0.148-0.001,0.282-0.085,0.348-0.218c0.168-0.169,0.25-0.406,0.221-0.643v-2.058
	c0.012-0.222-0.068-0.438-0.221-0.6c-0.063-0.133-0.197-0.218-0.344-0.219H42.793z"/>
<linearGradient id="shape2_2_" gradientUnits="userSpaceOnUse" x1="451.8936" y1="-264.9512" x2="411.1117" y2="-264.9512" gradientTransform="matrix(1 0 0 -1 -374.96 -242.6602)">
	<stop  offset="2.300000e-007" style="stop-color:#5D3F1C"/>
	<stop  offset="1" style="stop-color:#865524"/>
</linearGradient>
<path id="shape2_1_" fill="url(#shape2_2_)" d="M66.38,31.251c-0.313,0-0.625-0.05-0.923-0.147
	c-0.297,0.099-0.608,0.147-0.921,0.147h-8.193c-0.185,0-0.447-0.009-0.77-0.075c-0.217,0.051-0.439,0.075-0.664,0.075h-2.664
	c-0.816,0-1.605-0.342-2.166-0.937c-0.078-0.086-0.15-0.174-0.219-0.267l-0.91,0.65c-0.503,0.36-1.1,0.552-1.725,0.552h-3.584
	c-0.717,0-1.402-0.264-1.935-0.719c-0.616,0.424-1.35,0.654-2.114,0.654c-0.75,0-1.478-0.222-2.104-0.642
	c-0.164-0.11-0.315-0.233-0.452-0.37c-1.021-1.021-1.363-2.423-0.92-3.753l0.044-0.128l0.08-0.203
	c-1.801-0.254-3.145-1.765-3.145-3.646V22.24c0-0.741,0.274-1.45,0.773-1.996l4.748-5.232c0.646-1.069,1.762-1.679,3.079-1.679h0.41
	c2.065,0,3.684,1.618,3.684,3.684c0,0-0.001,0.289-0.003,0.331c0.555-0.653,1.372-1.044,2.26-1.044h8.398
	c0.261,0,0.518,0.034,0.768,0.101c0.25-0.067,0.508-0.101,0.771-0.101H67.2c0.243,0,0.482,0.029,0.717,0.087
	c0.233-0.058,0.475-0.087,0.719-0.087h8.396c0.917,0,1.797,0.433,2.354,1.159c0.56,0.726,0.752,1.689,0.515,2.573l-0.407,1.532
	c-0.146,0.541-0.433,1.02-0.829,1.395c-0.014,0.188-0.045,0.372-0.094,0.555l-0.41,1.537c-0.075,0.282-0.192,0.551-0.346,0.799
	c0.168,0.532,0.185,1.109,0.04,1.656l-0.413,1.539c-0.347,1.297-1.524,2.202-2.866,2.202H66.38z M63.341,23.782l0.013-0.009H62.56
	l-0.002,0.009H63.341z"/>
<path id="ACE" fill="#FFFFFF" d="M40.569,23.163h-3.79c-0.409,0-0.717-0.308-0.717-0.718c0-0.104,0-0.104,0-0.204l5.018-5.531
	c0.103-0.307,0.31-0.41,0.615-0.41h0.41c0.409,0,0.717,0.308,0.717,0.717c0,0.102,0,0.205,0,0.205l-2.458,3.584h4.402
	c0.615,0,0.31,1.127-0.103,1.639l-4.507,5.531c-0.309,0.308-0.717,0.308-1.023,0.104c-0.205-0.206-0.309-0.41-0.205-0.719
	L40.569,23.163L40.569,23.163L40.569,23.163z M48.046,19.271l0.409,0.41l-4.813,8.603h3.584l2.15-1.536h2.971l-0.103,1.536h2.663
	l1.536-9.013H48.046L48.046,19.271z M52.552,20.809l-0.104,3.482h-2.97l2.048-3.482H52.552L52.552,20.809z M56.343,28.284h8.191
	l0.613-2.15l-0.819,0.614h-5.733l1.74-5.941h6.452l0.409-1.535h-9.218l-2.355,7.988c-0.102,0.104-0.102,0.309-0.102,0.409
	c0,0.103,0,0.205,0.103,0.31c0.102,0.103,0.205,0.203,0.307,0.203C56.136,28.284,56.24,28.284,56.343,28.284L56.343,28.284
	L56.343,28.284z M68.632,19.271l0.311,0.612l-2.563,8.398h8.193l0.41-1.536h-5.122l0.717-2.458h4.711l0.41-1.537h-4.506l0.612-1.944
	h4.815l0.409-1.535H68.632L68.632,19.271z"/>
</svg>
