<?xml version="1.0" encoding="utf-8"?>
<!-- Generator: Adobe Illustrator 16.0.0, SVG Export Plug-In . SVG Version: 6.00 Build 0)  -->
<!DOCTYPE svg PUBLIC "-//W3C//DTD SVG 1.1//EN" "http://www.w3.org/Graphics/SVG/1.1/DTD/svg11.dtd">
<svg version="1.1" id="case1" xmlns="http://www.w3.org/2000/svg" xmlns:xlink="http://www.w3.org/1999/xlink" x="0px" y="0px"
	 width="92px" height="36px" viewBox="0 0 92 36" enable-background="new 0 0 92 36" xml:space="preserve">

<linearGradient id="p250_1_" gradientUnits="userSpaceOnUse" x1="20.8721" y1="18" x2="60.8721" y2="18">
	<stop  offset="2.300000e-007" style="stop-color:#F0D9BA"/>
	<stop  offset="1" style="stop-color:#BB6B17"/>
</linearGradient>
<path id="p250" fill="url(#p250_1_)" d="M60.425,3.092V3.5h0.447v9.132H49.997l-0.044,0.048v0.134
	c-0.022,0.027-0.056,0.044-0.09,0.046c-0.05,0.023-0.095,0.053-0.134,0.09l-0.045,0.045v0.045c-0.048,0.006-0.094,0.022-0.133,0.048
	c-0.004,0.034-0.02,0.066-0.046,0.089h-0.044c-0.029,0.032-0.061,0.061-0.089,0.09c-0.022-0.002-0.044,0.014-0.046,0.037
	c0,0.003,0,0.007,0,0.011v0.045c-0.035,0.003-0.066,0.02-0.089,0.046h-0.089v4.408h0.223v0.775h-0.045v0.543H36.038V19.4
	c-0.03,0.025-0.046,0.061-0.046,0.1c-0.022,0.051-0.053,0.098-0.089,0.139v0.721c-0.026,0.025-0.042,0.057-0.043,0.092
	c-0.059,0.029-0.106,0.076-0.136,0.137v0.59c-0.023,0.043-0.039,0.088-0.045,0.137c-0.043,0.012-0.077,0.047-0.088,0.09v0.727
	c-0.066,0.035-0.127,0.082-0.179,0.137v0.545c-0.054,0.014-0.101,0.045-0.134,0.09v0.455c-0.025,0.023-0.041,0.055-0.044,0.088
	c-0.029,0.061-0.077,0.109-0.135,0.141v0.27c-0.028,0-0.044,0.031-0.044,0.094c-0.037,0.039-0.067,0.086-0.09,0.135v0.227
	c-0.026,0.023-0.042,0.057-0.045,0.092c-0.028,0.061-0.075,0.107-0.134,0.137v0.271c-0.029,0-0.043,0.033-0.043,0.094
	c-0.038,0.039-0.068,0.086-0.09,0.135v0.318c-0.07,0.004-0.134,0.035-0.178,0.09c-0.031,0-0.045,0.029-0.045,0.092
	c-0.036,0.041-0.067,0.086-0.091,0.135v0.457l-0.178,0.09v0.363c-0.028,0.031-0.075,0.076-0.135,0.135v0.318
	c-0.05,0.055-0.11,0.102-0.177,0.135v0.365c-0.033,0.037-0.049,0.086-0.045,0.135c-0.044-0.006-0.084,0.025-0.089,0.068
	c-0.001,0.008-0.001,0.016,0,0.021v0.41c-0.066,0.037-0.126,0.082-0.179,0.137v0.5c-0.04,0.037-0.086,0.068-0.136,0.09v0.729
	l-0.179,0.09v1.637h0.051c0.021-0.002,0.041,0.012,0.044,0.033c0,0.004,0,0.008,0,0.012v0.229l0.044,0.047v0.137
	c0.021-0.004,0.041,0.012,0.043,0.031c0,0.004,0,0.01,0,0.014V31.9c-0.003,0.021,0.013,0.043,0.036,0.045c0.004,0,0.008,0,0.012,0
	v0.049c-0.004,0.02,0.011,0.041,0.032,0.045c0.004,0,0.009,0,0.013,0v0.045l0.043,0.047v0.182c0.034,0.002,0.066,0.018,0.089,0.043
	V32.4l0.044,0.049v0.043h0.045v0.047c-0.004,0.02,0.009,0.039,0.029,0.045c0.005,0,0.01,0,0.016,0h0.044v0.051
	c0.021-0.004,0.042,0.012,0.045,0.033c0,0.004,0,0.008,0,0.012v0.047h0.089v0.043c0.022,0.027,0.054,0.045,0.088,0.047h0.092v0.045
	c-0.004,0.023,0.01,0.043,0.032,0.047c0.003,0.002,0.007,0.002,0.011,0.002h0.223v0.045h0.046V33h0.134v0.045h0.089
	c-0.003,0.023,0.013,0.045,0.036,0.047c0.003,0,0.006,0,0.01,0v0.363h-0.853V33.41h-0.089l-0.045,0.045h-0.495
	c-0.105-0.002-0.21,0.014-0.311,0.045H31.79c-0.072-0.025-0.147-0.041-0.223-0.045v-0.141h-0.359
	c-0.056-0.027-0.117-0.043-0.179-0.045v-0.18h-0.4c-0.146-0.031-0.296-0.047-0.446-0.047v-0.092
	c-0.134-0.031-0.271-0.045-0.409-0.045c-0.15,0-0.3-0.016-0.447-0.047v-0.045h-0.271c-0.357-0.029-0.729-0.047-1.118-0.047v-0.09
	c-0.36-0.031-0.687-0.061-0.986-0.09c-0.042-0.012-0.075-0.045-0.087-0.088c-0.18,0-0.359-0.014-0.536-0.043
	c-0.031-0.033-0.061-0.063-0.09-0.096c-0.179-0.027-0.359-0.061-0.538-0.088c-0.042-0.016-0.075-0.049-0.087-0.094
	c-0.18,0-0.358-0.016-0.535-0.045c-0.031-0.029-0.063-0.061-0.091-0.09c-0.179-0.033-0.343-0.063-0.493-0.094v-0.09
	c-0.12,0-0.24-0.016-0.356-0.045c-0.03-0.033-0.06-0.061-0.091-0.094c-0.072-0.035-0.146-0.064-0.223-0.088h-0.272v-0.684h-2.5
	v-0.227h-0.181v-3c0.057-0.023,0.118-0.039,0.179-0.047v-0.861c0.01-0.045,0.043-0.078,0.087-0.09
	c0.024-0.043,0.04-0.088,0.045-0.137v-0.453c0.057-0.023,0.118-0.039,0.179-0.045v-0.865c0.033-0.043,0.081-0.074,0.135-0.088
	v-0.592c0.056-0.023,0.115-0.039,0.175-0.047v-0.586c0.04-0.025,0.084-0.043,0.131-0.049v-0.41c0.065-0.016,0.127-0.045,0.18-0.088
	V23c0.049-0.023,0.095-0.053,0.134-0.09v-0.271c0.062-0.027,0.111-0.076,0.139-0.139c0.003-0.035,0.019-0.068,0.045-0.092v-0.09
	c0.049,0.004,0.097-0.012,0.134-0.045V22c0.059-0.029,0.105-0.078,0.133-0.139c0.002-0.033,0.019-0.066,0.046-0.088v-0.223
	c0.048-0.023,0.093-0.055,0.133-0.092V21.1l0.179-0.09V20.73c0.04-0.037,0.085-0.066,0.134-0.09V20.5
	c0.026-0.023,0.042-0.055,0.045-0.09c0.022-0.049,0.052-0.096,0.089-0.137c-0.004-0.049,0.012-0.098,0.045-0.135
	c0.029-0.033,0.059-0.061,0.089-0.094c0.034-0.037,0.052-0.086,0.047-0.135v-0.225c0.043-0.053,0.107-0.088,0.176-0.092V19.32
	c0.031-0.027,0.075-0.074,0.135-0.135v-0.363c0.049-0.023,0.094-0.053,0.134-0.09c0-0.063,0.015-0.092,0.045-0.092v-0.09
	c0.049-0.023,0.095-0.054,0.135-0.092V18.23c0.057-0.027,0.119-0.058,0.178-0.088V18c0.049-0.023,0.095-0.053,0.136-0.089v-0.133
	c0.011-0.043,0.045-0.078,0.089-0.088c0.021-0.05,0.05-0.097,0.088-0.137v-0.274c0.011-0.044,0.045-0.079,0.089-0.092
	c0.033-0.037,0.05-0.085,0.047-0.134v-0.094c0.057-0.061,0.1-0.1,0.133-0.136c0-0.063,0.016-0.09,0.045-0.09v-0.133
	c0.058-0.03,0.105-0.078,0.134-0.136v-0.322c0.055-0.029,0.117-0.044,0.179-0.044v-0.41c0.049-0.023,0.094-0.054,0.133-0.091v-0.724
	c0.063-0.001,0.125-0.018,0.18-0.047v-0.41c-0.063,0-0.125-0.016-0.18-0.046v-0.27c-0.062-0.001-0.122-0.018-0.176-0.047
	c-0.031-0.032-0.077-0.074-0.135-0.135v-0.136c-0.002-0.037-0.019-0.071-0.046-0.095l-0.266-0.09V13.5
	c-0.061-0.027-0.12-0.058-0.18-0.088c-0.03-0.029-0.076-0.077-0.134-0.138v-0.09c-0.062-0.032-0.119-0.061-0.179-0.089
	c-0.03-0.033-0.06-0.064-0.091-0.093c-0.053-0.028-0.112-0.042-0.172-0.042v-0.09l-0.179-0.091V12.69
	c-0.1-0.035-0.205-0.051-0.311-0.048v-0.09l-0.18-0.09c-0.03-0.029-0.059-0.06-0.089-0.09c-0.056-0.029-0.117-0.044-0.179-0.045
	v-0.09c-0.179-0.032-0.344-0.062-0.491-0.091l-0.091-0.091c-0.07-0.033-0.147-0.048-0.224-0.045v-0.09
	c-0.206-0.032-0.416-0.061-0.624-0.093v-0.32h-0.452V9.819c0.045-0.025,0.088-0.055,0.127-0.09V8.683
	c0.163-0.028,0.328-0.043,0.493-0.045V7.273c0.049-0.022,0.094-0.054,0.131-0.093V6.955c0.063-0.061,0.107-0.1,0.137-0.135
	c0.002-0.035,0.018-0.068,0.043-0.093V6.456c0.049,0.003,0.098-0.013,0.134-0.046V6c0.066-0.018,0.128-0.049,0.181-0.093V5.682
	c0.049-0.024,0.095-0.056,0.134-0.093V5.363l0.179-0.09V5.182c0.048,0.003,0.097-0.013,0.133-0.046v-0.27
	c0.063,0,0.125-0.017,0.179-0.048V4.729c0.049-0.024,0.094-0.054,0.134-0.09V4.41c0.06-0.03,0.12-0.061,0.18-0.089V4.229
	c0.049,0.003,0.098-0.014,0.135-0.048V4.092C23.43,4.061,23.491,4.032,23.548,4V3.91c0.05,0.004,0.099-0.013,0.135-0.046V3.774
	c0.055-0.029,0.117-0.045,0.179-0.046V3.274c0.417,0,0.836,0.015,1.253,0.047V2.5c5.101,0.027,10.201,0.042,15.3,0.045V3h0.625
	v0.092c0.049,0.023,0.095,0.054,0.136,0.09v0.773h5.637V2.5c3.818,0.027,7.621,0.042,11.408,0.045V2.5
	c0.359,0.027,0.7,0.045,1.031,0.045h0.984v0.09c0.063,0,0.125,0.017,0.179,0.048v0.27C60.425,2.987,60.425,3.033,60.425,3.092z
	 M39.483,13.139c-0.077,0.023-0.151,0.053-0.223,0.089c-0.04,0.038-0.086,0.069-0.135,0.093c-0.031,0.028-0.074,0.073-0.134,0.134
	v0.137c-0.039,0.037-0.084,0.068-0.133,0.09v0.23c-0.06,0.029-0.119,0.061-0.179,0.088v0.228c-0.04,0.038-0.086,0.068-0.136,0.09
	v0.365c-0.037,0.04-0.067,0.085-0.089,0.136c-0.029,0.03-0.06,0.06-0.089,0.09v0.272c-0.002,0.035-0.019,0.066-0.045,0.089
	c-0.028,0.032-0.061,0.063-0.089,0.091v0.274c-0.033,0.038-0.049,0.087-0.045,0.137l0.045,0.093v0.226
	c0.022,0.05,0.052,0.095,0.089,0.135c0.026,0.023,0.042,0.055,0.045,0.09v0.137l0.134,0.136c0.005,0.048,0.02,0.094,0.044,0.136
	c0.03,0,0.044,0.028,0.044,0.09c0.039,0.04,0.07,0.085,0.092,0.136v1.409h8.9v-0.59c0.238,0,0.477,0.016,0.713,0.046v-0.179
	c0.036-0.001,0.069-0.019,0.091-0.048V13.5h-0.399v-0.136c-0.034-0.004-0.065-0.02-0.088-0.045v-0.047h-0.09
	c-0.002-0.035-0.019-0.067-0.045-0.09v-0.045c0.004-0.021-0.01-0.042-0.03-0.046c-0.005-0.001-0.01-0.001-0.015,0v-0.048h-0.134
	v-0.09h-0.09c-0.003-0.035-0.019-0.068-0.045-0.091l-0.089-0.046c-0.023-0.025-0.056-0.041-0.09-0.045
	c-0.041-0.025-0.086-0.04-0.133-0.044v-0.092h-4.833v0.455c-0.06,0.028-0.12,0.058-0.179,0.089v2
	c0.026,0.022,0.043,0.054,0.046,0.089c0.022-0.001,0.042,0.016,0.044,0.038c0,0.003,0,0.007-0.001,0.011
	c-0.003,0.021,0.012,0.041,0.033,0.044c0.004,0,0.009,0,0.013,0c-0.004,0.021,0.01,0.042,0.031,0.046
	c0.004,0.001,0.009,0.001,0.013,0c-0.004,0.021,0.009,0.042,0.03,0.046c0.005,0.001,0.01,0.001,0.016,0v0.091
	c0.021,0.027,0.053,0.043,0.086,0.045c0.03,0.03,0.063,0.061,0.09,0.09v0.046c-0.003,0.022,0.013,0.043,0.035,0.047
	c0.004,0,0.007,0,0.011,0c0.026,0.024,0.042,0.057,0.045,0.093l0.045,0.044h0.09V16c0.034,0.003,0.065,0.019,0.089,0.044
	l0.045,0.048c0.035,0.002,0.066,0.017,0.09,0.043v0.09h0.086c0.033,0.03,0.061,0.061,0.092,0.09v0.046
	c0.035,0.003,0.066,0.02,0.088,0.047c0.063,0,0.124,0.016,0.179,0.046v0.09h0.181c0.049,0.023,0.094,0.053,0.133,0.089v0.048
	c0.078-0.004,0.154,0.011,0.224,0.044c0.077,0.004,0.151,0.02,0.224,0.046v0.093h0.625v0.77h-1.432v-0.048
	c-0.056-0.027-0.117-0.042-0.18-0.044c-0.071-0.035-0.146-0.065-0.223-0.09V17.4c-0.037-0.031-0.086-0.046-0.135-0.044
	c-0.063-0.001-0.123-0.017-0.179-0.046V17.27c-0.036-0.035-0.085-0.052-0.134-0.048c-0.062-0.028-0.121-0.061-0.177-0.089v-0.045
	l-0.046-0.044c-0.022-0.028-0.054-0.045-0.09-0.048v-0.045c-0.049-0.022-0.094-0.052-0.134-0.088
	c-0.036-0.003-0.069-0.02-0.092-0.047v-0.09c-0.021-0.027-0.053-0.043-0.087-0.044c-0.022-0.028-0.055-0.046-0.09-0.048
	c-0.026-0.022-0.042-0.054-0.043-0.089L41.718,16.5c-0.001-0.035-0.018-0.067-0.044-0.09c-0.022-0.027-0.055-0.044-0.09-0.047
	v-0.048c-0.029-0.03-0.056-0.061-0.089-0.09v-0.047c-0.029-0.028-0.059-0.06-0.088-0.089l-0.046-0.048V16
	c-0.034-0.004-0.065-0.021-0.088-0.046v-0.047l-0.089-0.091v-0.044c0-0.031-0.032-0.047-0.091-0.047v-0.136h-0.221V15.5
	c0.003-0.022-0.012-0.043-0.034-0.047c-0.004,0-0.008,0-0.012,0c-0.003-0.034-0.019-0.066-0.043-0.09v-0.818
	c0.057,0,0.089-0.014,0.089-0.045v-1.863h-0.763v0.182c-0.151,0.032-0.313,0.062-0.493,0.091v0.046
	c-0.04,0.037-0.084,0.067-0.133,0.091V13.139z M28.339,32.639c0.078-0.004,0.156,0.012,0.227,0.045v-0.049
	c-0.102-0.033-0.208-0.051-0.315-0.049L28.339,32.639z"/>
<linearGradient id="shape2_2_" gradientUnits="userSpaceOnUse" x1="457.7275" y1="-264.9512" x2="416.9457" y2="-264.9512" gradientTransform="matrix(1 0 0 -1 -374.96 -242.6602)">
	<stop  offset="2.300000e-007" style="stop-color:#5D3F1C"/>
	<stop  offset="1" style="stop-color:#865524"/>
</linearGradient>
<path id="shape2_1_" fill="url(#shape2_2_)" d="M72.214,31.251c-0.313,0-0.625-0.05-0.923-0.147
	c-0.297,0.099-0.608,0.147-0.921,0.147h-8.193c-0.185,0-0.447-0.009-0.77-0.075c-0.217,0.051-0.439,0.075-0.664,0.075h-2.664
	c-0.816,0-1.605-0.342-2.166-0.937c-0.078-0.086-0.15-0.174-0.219-0.267l-0.91,0.65c-0.503,0.36-1.1,0.552-1.725,0.552h-3.584
	c-0.717,0-1.402-0.264-1.935-0.719c-0.616,0.424-1.35,0.654-2.114,0.654c-0.75,0-1.478-0.222-2.104-0.642
	c-0.164-0.11-0.315-0.233-0.452-0.37c-1.021-1.021-1.363-2.423-0.92-3.753l0.044-0.128l0.08-0.203
	c-1.801-0.254-3.145-1.765-3.145-3.646V22.24c0-0.741,0.274-1.45,0.773-1.996l4.748-5.232c0.646-1.069,1.762-1.679,3.079-1.679h0.41
	c2.065,0,3.684,1.618,3.684,3.684c0,0-0.001,0.289-0.003,0.331c0.555-0.653,1.372-1.044,2.26-1.044h8.398
	c0.261,0,0.518,0.034,0.768,0.101c0.25-0.067,0.508-0.101,0.771-0.101h9.218c0.243,0,0.482,0.029,0.717,0.087
	c0.233-0.058,0.475-0.087,0.719-0.087h8.396c0.917,0,1.797,0.433,2.354,1.159c0.56,0.726,0.752,1.689,0.515,2.573l-0.407,1.532
	c-0.146,0.541-0.433,1.02-0.829,1.395c-0.014,0.188-0.045,0.372-0.094,0.555l-0.41,1.537c-0.075,0.282-0.192,0.551-0.346,0.799
	c0.168,0.532,0.185,1.109,0.04,1.656l-0.413,1.539c-0.347,1.297-1.524,2.202-2.866,2.202H72.214z M69.175,23.782l0.013-0.009h-0.794
	l-0.002,0.009H69.175z"/>
<path id="ACE" fill="#FFFFFF" d="M46.403,23.163h-3.79c-0.409,0-0.717-0.308-0.717-0.718c0-0.104,0-0.104,0-0.204l5.018-5.531
	c0.103-0.307,0.31-0.41,0.615-0.41h0.41c0.409,0,0.717,0.308,0.717,0.717c0,0.102,0,0.205,0,0.205l-2.458,3.584h4.402
	c0.615,0,0.31,1.127-0.103,1.639l-4.507,5.531c-0.309,0.308-0.717,0.308-1.023,0.104c-0.205-0.206-0.309-0.41-0.205-0.719
	L46.403,23.163L46.403,23.163L46.403,23.163z M53.88,19.271l0.409,0.41l-4.813,8.603h3.584l2.15-1.536h2.971l-0.103,1.536h2.663
	l1.536-9.013H53.88L53.88,19.271z M58.386,20.809l-0.104,3.482h-2.97l2.048-3.482H58.386L58.386,20.809z M62.177,28.284h8.191
	l0.613-2.15l-0.819,0.614h-5.733l1.74-5.941h6.452l0.409-1.535h-9.218l-2.355,7.988c-0.102,0.104-0.102,0.309-0.102,0.409
	c0,0.103,0,0.205,0.103,0.31c0.102,0.103,0.205,0.203,0.307,0.203C61.97,28.284,62.074,28.284,62.177,28.284L62.177,28.284
	L62.177,28.284z M74.466,19.271l0.311,0.612l-2.563,8.398h8.193l0.41-1.536h-5.122l0.717-2.458h4.711l0.41-1.537h-4.506l0.612-1.944
	h4.815l0.409-1.535H74.466L74.466,19.271z"/>
</svg>
