<?xml version="1.0" encoding="utf-8"?>
<!-- Generator: Adobe Illustrator 16.0.0, SVG Export Plug-In . SVG Version: 6.00 Build 0)  -->
<!DOCTYPE svg PUBLIC "-//W3C//DTD SVG 1.1//EN" "http://www.w3.org/Graphics/SVG/1.1/DTD/svg11.dtd">
<svg version="1.1" id="tc" xmlns="http://www.w3.org/2000/svg" xmlns:xlink="http://www.w3.org/1999/xlink" x="0px" y="0px"
	 width="92px" height="36px" viewBox="0 0 92 36" enable-background="new 0 0 92 36" xml:space="preserve">
<linearGradient id="shape1_1_" gradientUnits="userSpaceOnUse" x1="0.8867" y1="18" x2="91.1133" y2="18">
	<stop  offset="2.300000e-007" style="stop-color:#ECD6B9"/>
	<stop  offset="1" style="stop-color:#B5691F"/>
</linearGradient>
<path id="shape1" fill="url(#shape1_1_)" d="M38.252,25.967c-0.152-0.145-0.236-0.344-0.233-0.553c0-0.219,0.083-0.428,0.233-0.586
	c0.16-0.156,0.377-0.238,0.601-0.229c0.222-0.002,0.436,0.08,0.6,0.229c0.15,0.158,0.235,0.367,0.235,0.586
	c0.004,0.209-0.081,0.41-0.235,0.553c-0.165,0.146-0.379,0.227-0.6,0.227c-0.012,0-0.023,0-0.034,0
	C38.608,26.193,38.406,26.111,38.252,25.967 M39.123,8.839c-0.171,0.036-0.333,0.112-0.469,0.222
	c-0.222,0.131-0.375,0.22-0.468,0.263c-0.021,0-0.1-0.009-0.235-0.03c-0.113-0.005-0.227,0.017-0.33,0.063
	c-0.094,0.043-0.173,0.111-0.231,0.196c-0.095,0.075-0.195,0.142-0.304,0.195c-0.156,0.099-0.324,0.176-0.501,0.228l-0.334,0.101
	l-0.067-0.164l-0.235,0.034v0.228l-0.202,0.061l-0.036-0.261l-0.266,0.034l-0.032,0.293h-0.205l-0.063-0.226h-0.235v0.323
	l-0.268,0.067l-0.064-0.264l-0.236,0.034v0.325l-0.268,0.036l-0.033-0.232l-0.268,0.033v0.264l-0.3,0.032l-0.031-0.164h-0.234v0.261
	l-0.334,0.032l-0.036-0.226l-0.264,0.029v0.232l-0.332,0.036l-0.067-0.23l-0.268,0.061v0.194l-0.341,0.036l-0.1-0.199l-0.201,0.034
	l-0.033,0.195c-0.198,0.023-0.465,0.044-0.802,0.069c-0.67,0.061-1.347,0.092-2.039,0.092c-0.957,0-1.701-0.008-2.237-0.031
	c-0.645-0.042-1.301-0.109-1.971-0.194c-0.822-0.131-1.489-0.218-2.002-0.262c-0.801-0.044-1.605-0.033-2.405,0.033
	c-0.716,0.046-1.43,0.134-2.136,0.261c-0.355,0.084-1.026,0.28-2,0.587c-0.76,0.24-1.575,0.519-2.442,0.851
	c-0.646,0.257-1.512,0.625-2.606,1.105c-0.93,0.392-1.573,0.654-1.934,0.783c-0.356,0.108-0.865,0.24-1.535,0.391
	C6.62,14.8,6.107,14.888,5.589,14.936c-0.246,0.006-0.491,0.028-0.735,0.063c-0.134,0.013-0.267,0.034-0.398,0.065
	c-0.197,0.092-0.378,0.214-0.539,0.359c-0.212,0.236-0.389,0.501-0.526,0.786c-0.29,0.454-0.49,0.764-0.601,0.915
	c-0.255,0.324-0.531,0.63-0.829,0.915c-0.335,0.369-0.543,0.606-0.635,0.715c-0.13,0.208-0.244,0.428-0.337,0.654
	c-0.065,0.172-0.1,0.355-0.102,0.539v0.033c0,0.027,0.002,0.055,0.003,0.084c0.158,0.346,0.373,0.664,0.633,0.941
	c0.552,0.678,0.851,1.047,0.897,1.113c0.27,0.369,1.328,2.021,3.173,4.961l0.601,0.129l1.031-0.393
	c0.427-0.563,0.813-1.064,1.171-1.498c0.28-0.387,0.581-0.76,0.901-1.113c0.35-0.375,0.756-0.693,1.204-0.943
	c0.392-0.188,0.807-0.318,1.235-0.393c0.25-0.07,0.507-0.115,0.767-0.133c0.342-0.063,0.678-0.162,1-0.293
	c0.204-0.08,0.395-0.188,0.567-0.324c0.293-0.24,0.549-0.461,0.77-0.656c0.325-0.264,0.685-0.482,1.069-0.65
	c0.439-0.168,0.9-0.279,1.367-0.328c0.561-0.041,1.125,0.002,1.672,0.129c0.362,0.086,0.72,0.193,1.068,0.326
	c0.18,0.098,0.37,0.174,0.567,0.23c0.167,0.021,0.337,0.01,0.501-0.033c0.261-0.139,0.506-0.301,0.736-0.486
	c0.532-0.398,0.978-0.703,1.336-0.922c0.507-0.348,1.125-0.496,1.735-0.422c0.584,0.088,1.148,0.275,1.668,0.553
	c0.507,0.262,0.952,0.629,1.303,1.078c0.113,0.174,0.234,0.383,0.37,0.621c0.066,0.129,0.177,0.328,0.335,0.59
	c0.173,0.33,0.385,0.637,0.632,0.914c0.113,0.133,0.267,0.227,0.439,0.262c0.109,0.014,0.218-0.023,0.296-0.102
	c0.057-0.012,0.105-0.047,0.132-0.098c0.023-0.041,0.082-0.143,0.167-0.291c0.133-0.307,0.323-0.775,0.568-1.406
	c0.269-0.688,0.736-1.275,1.343-1.695c0.542-0.406,1.191-0.645,1.866-0.682c0.675-0.031,1.348,0.09,1.968,0.357
	c0.371,0.176,0.72,0.396,1.04,0.656c0.31,0.262,0.589,0.555,0.835,0.877c0.171,0.197,0.325,0.383,0.46,0.559
	c0.066,0.02,0.135,0.02,0.201,0l0.032,0.576c0.023,0.295,0.023,0.59,0,0.885c-0.121,0.418-0.326,0.805-0.601,1.143
	c-0.198,0.262-0.406,0.535-0.632,0.818c-0.311,0.348-0.479,0.531-0.5,0.553c-0.192,0.209-0.321,0.469-0.369,0.748
	c0.025,0.096,0.084,0.178,0.166,0.23c0.066,0.064,0.146,0.109,0.234,0.131c0.443,0.061,0.888,0.094,1.335,0.1
	c0.336,0,0.646,0.01,0.936,0.031l0.467-0.068c0.225-0.01,0.443-0.076,0.636-0.193c0.064-0.068,0.121-0.145,0.167-0.229
	c0.044-0.105,0.077-0.193,0.1-0.258c0.158-0.523,0.388-1.504,0.702-2.938l0.435-2.025l0.035-0.098
	c0.029-0.066,0.075-0.123,0.134-0.16c0.094-0.057,0.195-0.102,0.3-0.135l18.764,0.104c0.17-0.002,0.339,0.018,0.503,0.063
	c0.522,0.104,1.014,0.326,1.436,0.65c0.383,0.266,0.701,0.611,0.936,1.014c0.071,0.146,0.127,0.303,0.166,0.461h1.005
	c0.842-0.021,1.702-0.057,2.569-0.102c2.714-0.127,4.94-0.322,6.677-0.586c2.241-0.391,4.462-0.902,6.649-1.533
	c1.334-0.369,2.492-0.717,3.475-1.043l6.841-6.984l-9.75-1.207l0.132,0.102c0.065,0.08,0.119,0.167,0.164,0.261
	c0.038,0.127,0.062,0.257,0.068,0.39c-0.004,0.135-0.063,0.263-0.163,0.353c-0.121,0.125-0.295,0.187-0.468,0.165
	c-0.143-0.047-0.279-0.113-0.404-0.196c-0.14-0.075-0.255-0.189-0.331-0.329c-0.098-0.1-0.166-0.223-0.199-0.358
	c-0.049-0.129-0.118-0.25-0.204-0.358l-0.165-0.197l-0.402-0.092l0.135,0.163c0.073,0.104,0.14,0.213,0.201,0.326
	c0.041,0.115,0.054,0.238,0.034,0.359c-0.019,0.135-0.077,0.261-0.169,0.361c-0.106,0.106-0.25,0.163-0.4,0.16
	c-0.17,0.003-0.335-0.052-0.467-0.16c-0.164-0.12-0.31-0.264-0.433-0.425c-0.075-0.095-0.143-0.191-0.202-0.295
	c-0.08-0.18-0.169-0.355-0.269-0.525l-0.1-0.128l-0.468-0.095l0.1,0.161c0.059,0.099,0.093,0.211,0.103,0.327
	c0.098,0.295,0.006,0.619-0.233,0.818c-0.165,0.09-0.357,0.114-0.536,0.064c-0.178-0.021-0.348-0.076-0.504-0.164
	c-0.112-0.095-0.212-0.206-0.296-0.326c-0.08-0.113-0.148-0.235-0.202-0.363c-0.063-0.136-0.141-0.267-0.231-0.386l-0.17-0.265
	l-0.363-0.034l0.132,0.229c0.069,0.125,0.125,0.258,0.167,0.396c0.037,0.224-0.053,0.45-0.236,0.586
	c-0.102,0.083-0.237,0.118-0.366,0.092c-0.145-0.004-0.284-0.047-0.403-0.127c-0.118-0.051-0.231-0.119-0.332-0.2
	c-0.115-0.11-0.206-0.242-0.266-0.388c-0.064-0.155-0.155-0.34-0.266-0.557l-0.169-0.294l-0.467-0.031l0.136,0.133
	c0.079,0.107,0.136,0.228,0.167,0.358c0.021,0.13,0.031,0.261,0.031,0.392c-0.007,0.127-0.067,0.245-0.166,0.326
	c-0.302,0.222-0.707,0.245-1.032,0.06c-0.163-0.068-0.303-0.181-0.402-0.327c-0.044-0.084-0.108-0.225-0.2-0.423
	c-0.064-0.138-0.143-0.268-0.235-0.388l-0.165-0.232l-0.333-0.031l0.17,0.329c0.082,0.184,0.104,0.389,0.064,0.587
	c-0.03,0.156-0.146,0.283-0.299,0.328c-0.158,0.066-0.336,0.075-0.5,0.03c-0.177-0.041-0.333-0.145-0.437-0.293
	c-0.114-0.149-0.204-0.316-0.266-0.491c-0.089-0.13-0.201-0.294-0.335-0.489l-0.167-0.259l-0.403-0.066l0.103,0.228
	c0.043,0.227,0.065,0.455,0.066,0.687c0.013,0.225-0.146,0.424-0.369,0.46c-0.197,0.046-0.4,0.057-0.601,0.029
	c-0.168-0.04-0.32-0.131-0.434-0.262c-0.118-0.163-0.22-0.336-0.301-0.521c-0.064-0.13-0.169-0.303-0.302-0.521l-0.132-0.259H66.04
	l0.066,0.197c0.02,0.172,0.02,0.346,0,0.52c-0.034,0.179-0.144,0.333-0.301,0.423c-0.177,0.087-0.384,0.1-0.571,0.034
	c-0.265-0.167-0.465-0.422-0.563-0.719c-0.111-0.216-0.188-0.373-0.235-0.456c-0.043-0.094-0.099-0.182-0.167-0.259
	c-0.154-0.082-0.329-0.116-0.502-0.099c-0.202-0.006-0.405,0.027-0.594,0.099c-0.11,0.042-0.511,0.236-1.204,0.585
	c-0.712,0.368-1.204,0.61-1.473,0.72c-1.288,0.499-2.657,0.752-4.036,0.75c-0.78,0.021-1.784,0.01-3.006-0.035
	c-1.404-0.085-2.582-0.197-3.543-0.326c-0.758-0.132-2.103-0.382-4.036-0.75l-2.642-0.488c-0.171-0.142-0.35-0.271-0.536-0.391
	c-0.215-0.174-0.467-0.296-0.737-0.357c-0.101,0.011-0.202,0.033-0.299,0.063c-0.164,0.045-0.337,0.045-0.5,0
	c-0.237-0.033-0.463-0.11-0.67-0.228c-0.284-0.135-0.443-0.209-0.468-0.228l-0.4-0.099c-0.056-0.008-0.111-0.012-0.167-0.012
	C39.344,8.792,39.232,8.807,39.123,8.839"/>
</svg>
