<?xml version="1.0" encoding="utf-8"?>
<!-- Generator: Adobe Illustrator 16.0.0, SVG Export Plug-In . SVG Version: 6.00 Build 0)  -->
<!DOCTYPE svg PUBLIC "-//W3C//DTD SVG 1.1//EN" "http://www.w3.org/Graphics/SVG/1.1/DTD/svg11.dtd">
<svg version="1.1" id="tc" xmlns="http://www.w3.org/2000/svg" xmlns:xlink="http://www.w3.org/1999/xlink" x="0px" y="0px"
	 width="92px" height="36px" viewBox="0 0 92 36" enable-background="new 0 0 92 36" xml:space="preserve">
<g id="shape">
	<defs>
		<path id="SVGID_1_" d="M37.339,14.499v0.004c0.344-0.016,0.677,0.121,0.91,0.375c0.231,0.291,0.35,0.655,0.339,1.026
			c0.002,0.322-0.119,0.635-0.339,0.872c-0.232,0.256-0.565,0.396-0.91,0.382h-2.046c-0.388,0.005-0.764-0.13-1.06-0.382
			c-0.242-0.227-0.379-0.541-0.38-0.872c-0.009-0.378,0.127-0.746,0.38-1.026c0.294-0.251,0.676-0.373,1.06-0.341L37.339,14.499z
			 M87.558,5.997v0.261c0,0.027-0.036,0.216-0.112,0.57c-0.159,0.217-0.274,0.462-0.34,0.723c-0.151,0.378-0.316,0.745-0.493,1.1
			c-0.159,0.504-0.375,0.988-0.645,1.442l-0.454,0.152h-5.946c-0.281-0.072-0.533-0.23-0.72-0.454
			c-0.326-0.33-0.632-0.65-0.908-0.95c-0.322-0.381-0.67-0.798-1.022-1.254h-6.779C69.9,7.55,69.669,7.473,69.456,7.359
			c-0.277-0.076-0.529-0.152-0.757-0.228c-0.295-0.122-0.6-0.222-0.91-0.3L51.577,6.676c-0.305-0.008-0.609,0.017-0.908,0.077
			c-0.153,0.026-0.297,0.092-0.416,0.191c-0.099,0.027-0.183,0.095-0.228,0.188H28.967l-0.3-0.3L25.22,9.795
			c-0.695,0.25-1.403,0.465-2.12,0.644c-0.535,0.172-1.08,0.312-1.632,0.42c-0.306,0.113-0.624,0.19-0.948,0.228
			c-0.545-0.024-1.083-0.139-1.59-0.341c-0.353-0.127-0.707-0.242-1.06-0.342l-5.492,0.342c-1.364,0.072-2.601,0.172-3.713,0.3
			c-0.551,0.08-1.11,0.093-1.665,0.038c-0.634-0.15-1.294-0.163-1.933-0.036C4.499,11.133,3.94,11.272,3.4,11.465
			c-0.505,0.14-0.98,0.371-1.4,0.684L2.763,22.89l8.985-2.965c2.5-0.937,4.76-1.771,6.779-2.506l2.577-0.912
			c0.833-0.304,1.589-0.582,2.272-0.835c0.679-0.254,1.246-0.443,1.7-0.571c0.429-0.151,0.682-0.239,0.756-0.265
			c0.366-0.073,0.744,0.057,0.987,0.341c0.182,0.193,0.401,0.349,0.643,0.455c-0.284,0.256-0.516,0.567-0.681,0.912
			c-0.358,0.632-0.736,1.328-1.136,2.087c-0.43,0.734-0.798,1.43-1.1,2.089c-0.212,0.396-0.401,0.8-0.57,1.214
			c0.02,0.711,0.354,1.378,0.911,1.821c0.482,0.276,1.034,0.408,1.589,0.381c0.52-0.035,1.031-0.149,1.516-0.341
			c0.248-0.045,0.481-0.148,0.681-0.3c0.193-0.799,0.527-1.559,0.985-2.24c0.431-0.75,0.925-1.461,1.477-2.127
			c0.43-0.527,0.898-1.021,1.4-1.479c0.215-0.22,0.458-0.411,0.72-0.57c0.578,0.497,1.29,0.813,2.046,0.912
			c0.597,0.084,1.203,0.046,1.785-0.112c0.639-0.129,1.252-0.36,1.818-0.683l1.135,0.188c0.082-0.106,0.184-0.197,0.3-0.266
			c0.105-0.124,0.29-0.142,0.417-0.039c0.73,2.315,1.788,4.515,3.143,6.531c1.091,1.655,2.321,3.218,3.672,4.669
			c1.304,1.391,2.752,2.638,4.319,3.721c0.679-1.038,1.245-1.962,1.7-2.771c0.456-0.632,0.874-1.292,1.25-1.974
			c0.187-0.32,0.416-0.614,0.68-0.873c-1.803-1.217-3.412-2.701-4.771-4.399c-0.95-1.217-1.751-2.541-2.386-3.946
			c-0.558-1.257-0.854-2.613-0.871-3.987h5.19l0.531,0.34c0.062,0.11,0.174,0.184,0.3,0.19c0.232,0.078,0.476,0.117,0.72,0.115
			c0.244-0.023,0.485-0.075,0.72-0.152c0.339-0.158,0.667-0.335,0.984-0.531L57.3,13.29h11.438l0.113-0.646h7.272L76.73,13.1
			l0.528-0.646h10.186l1.212,0.494L89.3,11.81h0.459c0.128,0.069,0.271,0.107,0.416,0.113c0.236,0.015,0.47-0.067,0.646-0.227
			c0.11-0.097,0.178-0.234,0.188-0.381c-0.03-0.163-0.094-0.319-0.188-0.456c-0.077-0.202-0.165-0.408-0.266-0.608l-1.438-0.152
			v-4.1l-0.001-0.002H87.558z"/>
	</defs>
	<clipPath id="SVGID_2_">
		<use xlink:href="#SVGID_1_"  overflow="visible"/>
	</clipPath>
	
		<linearGradient id="SVGID_3_" gradientUnits="userSpaceOnUse" x1="0.5166" y1="36.4492" x2="1.5166" y2="36.4492" gradientTransform="matrix(89.009 0 0 89.009 -43.9811 -3225.354)">
		<stop  offset="2.300000e-007" style="stop-color:#F0D9BA"/>
		<stop  offset="1" style="stop-color:#BB6B17"/>
	</linearGradient>
	<rect x="2" y="5.997" clip-path="url(#SVGID_2_)" fill="url(#SVGID_3_)" width="89.009" height="26.003"/>
</g>
</svg>
