<?xml version="1.0" encoding="utf-8"?>
<!-- Generator: Adobe Illustrator 16.0.0, SVG Export Plug-In . SVG Version: 6.00 Build 0)  -->
<!DOCTYPE svg PUBLIC "-//W3C//DTD SVG 1.1//EN" "http://www.w3.org/Graphics/SVG/1.1/DTD/svg11.dtd">
<svg version="1.1" id="case1" xmlns="http://www.w3.org/2000/svg" xmlns:xlink="http://www.w3.org/1999/xlink" x="0px" y="0px"
	 width="92px" height="36px" viewBox="0 0 92 36" enable-background="new 0 0 92 36" xml:space="preserve">

<linearGradient id="sg556_1_" gradientUnits="userSpaceOnUse" x1="0.8262" y1="16.8149" x2="91.0762" y2="16.8149">
	<stop  offset="2.300000e-007" style="stop-color:#F0D9BA"/>
	<stop  offset="1" style="stop-color:#BB6B17"/>
</linearGradient>
<path id="sg556" fill="url(#sg556_1_)" d="M27.569,2.462h0.044c-0.003-0.022,0.013-0.042,0.035-0.045c0.004,0,0.007,0,0.011,0V2.373
	h0.093V2.279h0.046l0.045-0.045V2.048l0.046-0.045V1.138h0.456V1h0.634v1.876h1.094v-0.32h0.636v0.187l0.046,0.042v0.137
	c0.104-0.031,0.216-0.031,0.32,0V2.236h0.093V2.188h0.866V2.143h0.638v0.777h4.693V2.462h3.095V1.823H41.1v0.503
	c-0.002,0.023,0.014,0.043,0.037,0.045c0.003,0,0.006,0,0.009,0v0.186h0.455v0.821c-0.036,0.002-0.069,0.018-0.093,0.045v0.089
	h-0.043v0.186c-0.022-0.003-0.042,0.012-0.046,0.034c0,0.003,0,0.007,0,0.011v0.048c-0.022-0.003-0.042,0.013-0.045,0.036
	c0,0.003,0,0.006,0,0.01V3.93h-0.044v0.042l-0.047,0.046V4.11l-0.044,0.046V4.2l-0.047,0.047v0.093h-0.046v0.046L41.099,4.43
	l-0.046,0.093c0.004,0.021-0.01,0.042-0.032,0.046c-0.004,0-0.008,0-0.012,0c0.003,0.022-0.013,0.042-0.036,0.045
	c-0.003,0-0.006,0-0.01,0v0.136l-0.046,0.045v0.046h-0.045v0.135h-0.046v0.093h-0.045v0.093c-0.022-0.003-0.042,0.012-0.045,0.033
	c0,0.004,0,0.007,0,0.011v0.043H40.69v0.047l-0.042,0.045v0.138h-0.049v0.047c0.003,0.021-0.011,0.041-0.033,0.044
	c-0.004,0-0.008,0-0.012,0V5.71c-0.023-0.003-0.043,0.013-0.046,0.036c0,0.003,0,0.007,0,0.011v0.046h-0.046v0.093h-0.043v0.093
	h-0.05V6.03c-0.022-0.003-0.042,0.012-0.045,0.035c0,0.003,0,0.007,0,0.011V6.21h-0.049v0.048h-0.042v0.093l-0.045,0.044h-0.046
	v0.137h-0.045v0.093h-0.046v0.186h-0.046c0.003,0.022-0.012,0.042-0.034,0.045c-0.003,0-0.007,0-0.011,0v0.041l-0.047,0.046
	l-0.044,0.093c-0.022-0.003-0.043,0.013-0.045,0.035c0,0.003,0,0.007,0,0.01v0.043c-0.022-0.003-0.042,0.012-0.045,0.034
	c-0.001,0.004-0.001,0.008,0,0.012v0.047h-0.045v0.138h1.547v0.412h6.197V8.18h26.697v0.229h0.364V8.135h0.32V3.283h0.958v0.043
	h0.137l0.045,0.045v0.327h0.319c0.023,0.027,0.057,0.043,0.093,0.045v1.008h0.318v0.364h0.093v2.654h0.363
	c0.105,0.028,0.213,0.043,0.32,0.046h0.136v1.007h0.223v0.086h1.869v0.187h0.094v0.64h-0.914v0.274l-0.093,0.045v0.047h0.911v0.639
	h-2.096v0.138h8.794v-0.32h4.56v2.148h0.087v0.64H85.61v0.045h-0.639c0.004-0.022-0.013-0.042-0.034-0.045c-0.004,0-0.007,0-0.011,0
	H84.88v-0.411h-7.835v0.457h-0.138v0.275h-0.365v0.046c-0.036,0.001-0.07,0.018-0.093,0.045v2.194h-0.632v-0.044h-0.093
	c-0.196-0.032-0.394-0.047-0.592-0.046h-0.187l-0.093-0.045v-0.732c0.036-0.001,0.069-0.018,0.093-0.046v-1.326h-0.271
	c-0.038-0.033-0.087-0.05-0.137-0.046v-0.275h-0.408c0.002,0.023-0.015,0.043-0.036,0.045c-0.004,0-0.008,0-0.012,0v1.418h-0.045
	v0.138h-0.592v0.044h-0.048v0.093h-0.043v0.093l-0.094,0.093v0.046c-0.021-0.003-0.041,0.013-0.044,0.034
	c-0.001,0.004,0,0.007,0.001,0.011v0.822h-0.5l-0.048,0.049h-0.046v0.093h-0.044V16.6h-0.775l-0.046-0.047
	c-6.257-0.029-12.528-0.044-18.814-0.044v0.186h-0.73v-0.093H52.17v-0.093c-0.022,0.003-0.043-0.013-0.046-0.035
	c0-0.003,0-0.007,0-0.011l-0.045-0.046v-0.051h-0.045v-0.093c0.003-0.023-0.014-0.042-0.035-0.045c-0.004,0-0.008,0-0.01,0
	c-2.248-0.03-4.496-0.046-6.743-0.046h-0.045l-0.045,0.046c-0.022-0.003-0.042,0.011-0.045,0.033c0,0.004,0,0.008,0,0.012h-0.089
	l-0.045,0.044c-0.036,0.002-0.07,0.019-0.093,0.047H44.79c0.002,0.022-0.013,0.042-0.035,0.044c-0.003,0-0.007,0-0.01,0
	l-0.046,0.045h-0.044c-0.022,0.027-0.056,0.044-0.092,0.046c0.002,0.022-0.013,0.042-0.035,0.044c-0.004,0-0.007,0-0.01,0
	l-0.045,0.046h-0.093v0.045c-0.036,0.001-0.069,0.018-0.093,0.045c-0.036,0.002-0.069,0.019-0.093,0.045l-0.045,0.045
	c-0.036,0.001-0.071,0.019-0.094,0.046l-0.046,0.044h-0.035c-0.024,0.027-0.057,0.044-0.093,0.046
	c0.003,0.021-0.013,0.042-0.035,0.045c-0.003,0-0.007,0-0.011,0l-0.046,0.044h-0.043c0.002,0.022-0.012,0.043-0.035,0.047
	c-0.003,0-0.007,0-0.011,0l-0.045,0.044h-0.044c-0.023-0.003-0.044,0.012-0.047,0.035c0,0.003,0,0.007,0,0.011l-0.044,0.046h-0.046
	c-0.022-0.003-0.042,0.012-0.045,0.034c0,0.003,0,0.007,0,0.011l-0.045,0.046v1.373h0.364v0.639
	c-0.228,0.002-0.457,0.018-0.683,0.047h-0.045v1.279h0.049v0.413h0.045v0.42l0.046,0.045v0.318
	c-0.003,0.022,0.012,0.043,0.034,0.046c0.003,0.001,0.007,0.001,0.011,0v0.32h0.046v0.507l0.045,0.046
	c-0.003,0.021,0.011,0.041,0.033,0.044c0.003,0.001,0.007,0.001,0.011,0v0.458c-0.002,0.021,0.012,0.043,0.035,0.045
	c0.003,0.002,0.008,0.002,0.013,0v0.046l0.044,0.046v0.229l0.045,0.046v0.136l0.046,0.046v0.046l0.043,0.045v0.228l0.047,0.046
	c-0.003,0.021,0.011,0.042,0.033,0.045c0.004,0.001,0.008,0.001,0.012,0v0.229h0.045v0.045c-0.002,0.022,0.013,0.043,0.035,0.045
	c0.004,0.001,0.007,0.001,0.011,0v0.138l0.044,0.046v0.045l0.047,0.046v0.045h0.044v0.324l0.093,0.044v0.187
	c-0.002,0.021,0.013,0.042,0.036,0.044c0.003,0.001,0.005,0.001,0.009,0V25.6h0.047v0.094l0.044,0.094v0.045h0.043v0.186h0.045
	v0.094l0.093,0.093v0.187c-0.004,0.021,0.011,0.041,0.032,0.045c0.004,0.001,0.008,0.001,0.014,0
	c-0.004,0.022,0.011,0.042,0.033,0.046c0.003,0.001,0.008,0.001,0.013,0v0.137l0.045,0.046v0.094h0.044v0.227h0.045v0.093
	l0.044,0.094v0.094l0.045,0.043v0.094c-0.002,0.022,0.012,0.043,0.035,0.046c0.004,0.001,0.007,0.001,0.011,0v0.046h0.046v0.116
	c0.021-0.002,0.042,0.014,0.045,0.036c0,0.004,0,0.007,0,0.01l0.044,0.048v0.138c-0.003,0.021,0.014,0.041,0.035,0.045
	c0.004,0,0.007,0,0.01,0v0.093c-0.003,0.021,0.012,0.042,0.034,0.046c0.003,0,0.008,0,0.013,0l0.045,0.092v0.094
	c0.021-0.003,0.042,0.012,0.045,0.034c0,0.003,0,0.007,0,0.012v0.045l0.047,0.041v0.093c-0.003,0.023,0.013,0.044,0.036,0.047
	c0.003,0,0.005,0,0.009,0v0.045h0.047v0.187l0.045,0.045v0.093c-0.002,0.022,0.013,0.043,0.035,0.046
	c0.004,0.001,0.007,0.001,0.012,0v0.046c-0.002,0.022,0.014,0.043,0.036,0.046c0.003,0,0.005,0,0.009,0v0.045h0.045v0.187
	l0.093,0.045v0.045l0.045,0.047v0.137c0.022-0.003,0.042,0.012,0.045,0.033c0,0.003,0,0.008,0,0.012v0.045
	c0.022-0.004,0.042,0.012,0.045,0.034c0,0.004,0,0.008,0,0.012v0.038h0.045c-0.003,0.021,0.012,0.042,0.034,0.045
	c0.005,0,0.008,0,0.012,0v0.045c0.037,0.002,0.07,0.018,0.093,0.045l0.046,0.046v0.641H45.7v0.093h-0.227v0.093
	c-0.093,0-0.185,0.016-0.274,0.045h-0.045c-0.023,0.027-0.056,0.044-0.093,0.047c-0.048,0.005-0.094,0.021-0.136,0.044h-0.043
	c-0.036,0.002-0.07,0.019-0.094,0.046L44.743,30.9h-0.134c-0.049,0.006-0.096,0.022-0.137,0.046
	c-0.037,0.002-0.07,0.018-0.094,0.045h-0.043l-0.093,0.094h-0.134c-0.047,0.006-0.095,0.021-0.136,0.046v0.046
	c-0.035,0.002-0.07,0.019-0.093,0.046h-0.093l-0.044,0.043h-0.043c-0.036,0.002-0.07,0.019-0.093,0.047H43.56
	c-0.035,0.002-0.069,0.018-0.093,0.045c-0.036,0.002-0.07,0.019-0.092,0.046h-0.132c-0.036,0.002-0.069,0.018-0.093,0.046
	l-0.047,0.044H43.01c-0.042,0.025-0.089,0.04-0.137,0.046c-0.047,0.007-0.094,0.021-0.136,0.046
	c-0.047,0.005-0.094,0.021-0.136,0.045H42.56c-0.036,0.002-0.069,0.019-0.093,0.047H42.42c-0.024,0.025-0.057,0.042-0.093,0.043
	h-0.041c-0.062,0-0.093,0.016-0.093,0.046c-0.036,0.002-0.07,0.019-0.093,0.046h-0.093c-0.024,0.026-0.058,0.043-0.093,0.046
	c-0.048,0.006-0.094,0.021-0.136,0.045h-0.093c-0.021-0.002-0.042,0.013-0.045,0.034c0,0.004,0,0.007,0,0.011
	c-0.036,0.002-0.07,0.019-0.093,0.046h-0.039l-0.045,0.045h-0.135c-0.094,0.001-0.186,0.017-0.275,0.047v0.045H40.96v0.048
	c-0.057,0.03-0.121,0.046-0.186,0.046h-0.131v0.045c-0.036,0.002-0.07,0.019-0.093,0.047l-0.092,0.045h-0.132
	c-0.036,0.001-0.07,0.018-0.093,0.045v0.043h-0.093c-0.023,0.028-0.057,0.044-0.093,0.046c-0.05-0.004-0.099,0.013-0.137,0.046
	h-0.266v0.045c-0.05-0.004-0.099,0.012-0.137,0.045h-0.911v-0.305H38.55c0.003-0.021-0.012-0.042-0.034-0.045
	c-0.004,0-0.007,0-0.011,0v-0.187c-0.023,0.003-0.043-0.014-0.045-0.035c0-0.004,0-0.008,0-0.011l-0.045-0.042v-0.187
	c-0.021,0.003-0.042-0.013-0.044-0.034c0-0.004,0-0.008,0-0.012v-0.186h-0.048v-0.187h-0.044v-0.31h-0.093v-0.279h-0.044v-0.132
	h-0.045v-0.094l-0.045-0.044v-0.049c-0.022,0.003-0.042-0.012-0.045-0.033c0-0.004,0-0.008,0-0.013v-0.093h-0.046V30.17
	l-0.093-0.094v-0.219h-0.042v-0.094c0.003-0.021-0.013-0.042-0.035-0.044c-0.003-0.001-0.007-0.001-0.011,0v-0.093
	c-0.022,0.003-0.043-0.013-0.046-0.035c0-0.003,0-0.008,0-0.012v-0.093c-0.022,0.003-0.042-0.013-0.045-0.034
	c0-0.004,0-0.008,0-0.012v-0.093l-0.046-0.045v-0.269h-0.093v-0.319l-0.046-0.046v-0.094l-0.044-0.045v-0.177
	c0.003-0.021-0.012-0.043-0.034-0.045c-0.004-0.001-0.008-0.001-0.012,0v-0.094h-0.042v-0.279l-0.045-0.047v-0.094h-0.047
	c0.003-0.021-0.012-0.042-0.034-0.046c-0.003,0-0.007,0-0.011,0v-0.186h-0.045v-0.13l-0.045-0.047v-0.186l-0.046-0.045v-0.044
	c-0.021,0.004-0.042-0.011-0.045-0.032c0-0.004,0-0.009,0-0.013v-0.186c0.003-0.022-0.013-0.044-0.036-0.046
	c-0.003-0.001-0.006-0.001-0.01,0v-0.093l-0.045-0.046v-0.094c-0.021,0.004-0.041-0.011-0.044-0.032
	c-0.001-0.004-0.001-0.008,0-0.011v-0.094l-0.046-0.046V26.29l-0.045-0.045v-0.093l-0.051-0.047v-0.093h-0.046v-0.186l-0.044-0.047
	v-0.131l-0.046-0.046v-0.093h-0.046v-0.093l-0.045-0.041v-0.14l-0.046-0.046v-0.093c0.003-0.022-0.012-0.043-0.034-0.046
	c-0.003-0.001-0.007-0.001-0.011,0v-0.188h-0.045v-0.314c0.002-0.021-0.013-0.041-0.035-0.045c-0.004,0-0.008,0-0.011,0v-0.138
	l-0.045-0.044V24.23c-0.022,0.004-0.042-0.012-0.045-0.033c-0.001-0.004-0.001-0.008,0-0.012V24.05h-0.046v-0.366
	c-0.023,0.001-0.042-0.017-0.043-0.039c0-0.002,0-0.004,0-0.006h-0.048V23.36c-0.022,0.003-0.042-0.013-0.045-0.036
	c0-0.003,0-0.007,0-0.011v-0.361l-0.046-0.046v-0.228l-0.047-0.047v-0.227h-0.044V22.22l-0.048-0.045v-0.411
	c0.003-0.021-0.013-0.042-0.035-0.046c-0.003,0-0.006,0-0.01,0v-0.047h-0.042v-0.412h-0.045v-0.32h-0.046v-0.136
	c0.004-0.021-0.012-0.042-0.033-0.046c-0.004-0.001-0.007-0.001-0.011,0v-0.229c-0.021,0.004-0.042-0.012-0.044-0.033
	c0-0.004,0-0.008,0-0.012v-0.137c-0.022,0.002-0.042-0.012-0.045-0.034c-0.001-0.003-0.001-0.008,0-0.012h-7.107v0.228l-0.046,0.046
	v0.044h-0.093v0.094l-0.047,0.046v0.093l-0.044,0.046c-0.031,0.03-0.063,0.062-0.093,0.092v0.229
	c-0.022-0.004-0.042,0.013-0.045,0.035c0,0.003,0,0.007,0,0.01h-0.093v0.137l-0.045,0.045v0.044l-0.093,0.094v0.094
	c-0.022-0.004-0.043,0.012-0.046,0.034c-0.001,0.004-0.001,0.008,0,0.011v0.137h-0.04V21.9l-0.045,0.047v0.044l-0.044,0.045v0.046
	c-0.023-0.003-0.043,0.013-0.045,0.035c0,0.003,0,0.006,0,0.009v0.047h-0.046v0.045c0.003,0.022-0.012,0.042-0.034,0.046
	c-0.003,0-0.007,0-0.011,0l-0.046,0.045v0.137l-0.093,0.093v0.048h-0.045v0.093c-0.022-0.002-0.043,0.015-0.044,0.037
	c0,0.003,0,0.006,0,0.009v0.044l-0.136,0.094v0.094l-0.093,0.043v0.139h-0.047v0.045h-0.042v0.046
	c0.003,0.021-0.012,0.042-0.034,0.045c-0.004,0-0.007,0-0.011,0c0.003,0.022-0.013,0.043-0.035,0.046c-0.004,0-0.007,0-0.011,0
	v0.093l-0.045,0.045v0.046l-0.045,0.045c-0.021-0.003-0.042,0.013-0.044,0.035c-0.001,0.003,0,0.007,0,0.011v0.045h-0.044
	l-0.047,0.045v0.094c0.003,0.021-0.013,0.042-0.036,0.045c-0.003,0-0.006,0-0.01,0c0.003,0.022-0.013,0.043-0.036,0.046
	c-0.003,0-0.006,0-0.01,0l-0.044,0.093v0.04c-0.022-0.004-0.042,0.012-0.044,0.034c-0.001,0.004,0,0.007,0,0.011v0.046l-0.046,0.044
	h-0.046v0.046l-0.045,0.045v0.138h-0.093v0.094c-0.022-0.003-0.042,0.012-0.045,0.033c-0.001,0.004-0.001,0.008,0,0.012v0.045
	l-0.046,0.045v0.094H26.16v0.046l-0.045,0.044h-0.046v0.187c-0.022-0.003-0.043,0.012-0.046,0.035c0,0.003,0,0.006,0,0.01
	c-0.023-0.003-0.043,0.014-0.046,0.036c0,0.003,0,0.006,0,0.009v0.094l-0.045,0.045v0.044c0.004,0.021-0.01,0.042-0.032,0.046
	c-0.004,0.001-0.009,0.001-0.013,0.001v0.092l-0.046,0.046v0.093c-0.021-0.004-0.042,0.012-0.045,0.033c0,0.005,0,0.009,0,0.012
	v0.138c0.003,0.021-0.012,0.043-0.034,0.045c-0.003,0.001-0.007,0.001-0.011,0v0.187c-0.036,0.002-0.069,0.019-0.093,0.046v0.319
	l-0.044,0.046v0.094h-0.045v0.595c0.003,0.021-0.013,0.042-0.035,0.044c-0.003,0.001-0.007,0.001-0.01,0v0.045h-0.683V27.06
	c0.002-0.022-0.014-0.042-0.037-0.044c-0.002,0-0.006,0-0.009,0L24.75,26.97h-0.093c-0.023-0.027-0.057-0.043-0.093-0.045v-0.048
	h-0.049v-0.045h-0.136c-0.023-0.026-0.057-0.043-0.093-0.045c-0.023-0.027-0.057-0.043-0.092-0.045h-0.093v-0.047
	c-0.023-0.027-0.057-0.043-0.093-0.045h-0.093c-0.023-0.027-0.057-0.044-0.093-0.046V26.56h-0.124v-0.047h-0.093
	c0.003-0.022-0.013-0.042-0.036-0.045c-0.003-0.001-0.007-0.001-0.01,0c-0.023-0.027-0.057-0.045-0.093-0.046h-0.093
	c-0.023-0.028-0.057-0.044-0.093-0.046V26.33h-0.13c-0.038-0.032-0.086-0.049-0.136-0.045l-0.093-0.093h-0.137l-0.046-0.046h-0.047
	c-0.021,0.004-0.042-0.011-0.044-0.032c-0.001-0.004-0.001-0.009,0-0.013l-0.093-0.046l-0.045-0.045h-0.042
	c-0.023-0.027-0.057-0.044-0.093-0.046c-0.038-0.032-0.087-0.049-0.137-0.045c-0.024-0.027-0.058-0.044-0.093-0.046l-0.046-0.045
	h-0.093c-0.022,0.003-0.042-0.013-0.045-0.035c0-0.003,0-0.007,0-0.011l-0.045-0.045h-0.039v-0.049H21.74
	c-0.036-0.002-0.069-0.018-0.093-0.044L21.554,25.6c-0.022,0.002-0.042-0.013-0.044-0.034c0-0.004,0-0.008,0-0.011h-0.134
	l-0.045-0.047h-0.093v-0.046h-0.135v-0.045h-0.044c-0.042-0.024-0.088-0.04-0.136-0.046c-0.024-0.026-0.057-0.043-0.093-0.046V25.28
	h-0.134c0.002-0.024-0.015-0.044-0.038-0.047c-0.002-0.001-0.006-0.001-0.008,0c-0.024-0.026-0.057-0.042-0.093-0.044h-0.134v-0.047
	c-0.036-0.002-0.07-0.018-0.093-0.046h-0.043c-0.058-0.029-0.121-0.046-0.186-0.046c0.003-0.021-0.012-0.043-0.035-0.045
	c-0.001,0-0.003-0.001-0.006-0.001c-0.035-0.002-0.069-0.019-0.093-0.045v-0.048h-0.092c-0.023-0.028-0.058-0.045-0.093-0.047
	h-0.093v-0.047h-0.038l-0.044-0.045v-0.042h-0.138v-0.139h-0.046v-0.729h0.046v-0.138c-0.003-0.022,0.011-0.043,0.033-0.046
	c0.004-0.001,0.008-0.001,0.012,0v-0.137h0.045v-0.186c0.022,0.003,0.042-0.013,0.045-0.034c0-0.004,0-0.008,0-0.012h0.044
	c0.022,0.003,0.042-0.013,0.045-0.034c0.001-0.004,0.001-0.007,0-0.011v-0.094l0.046-0.045v-0.041l0.045-0.046
	c-0.003-0.021,0.012-0.043,0.034-0.045c0.004-0.001,0.007-0.001,0.011,0v-0.047l0.045-0.045v-0.094h0.046v-0.044h0.044v-0.045
	l0.047-0.047v-0.089h0.045v-0.048l0.044-0.046v-0.045l0.137-0.137v-0.045h0.045v-0.094l0.093-0.094h0.045
	c-0.003-0.021,0.013-0.042,0.035-0.046c0.004,0,0.007,0,0.011,0v-0.041l0.093-0.094c0.021,0.003,0.042-0.012,0.045-0.034
	c0-0.003,0-0.007,0-0.011v-0.044c-0.003-0.023,0.012-0.043,0.033-0.047c0.004,0,0.008,0,0.012,0c0.032-0.029,0.063-0.06,0.092-0.093
	l0.093-0.045v-0.045l0.045-0.046c-0.003-0.022,0.012-0.042,0.034-0.045c0.004-0.001,0.008,0,0.012,0.001v-0.047
	c-0.003-0.022,0.012-0.042,0.034-0.046c0.004,0,0.007,0,0.011,0v-0.045h0.045v-0.047c0.036-0.001,0.069-0.018,0.092-0.044v-0.048
	c0.023,0.004,0.043-0.012,0.046-0.034c0.001-0.004,0.001-0.008,0-0.011h0.044l0.045-0.093c-0.003-0.022,0.013-0.042,0.035-0.046
	c0.004,0,0.007,0,0.011,0l0.045-0.045c-0.003-0.022,0.012-0.042,0.034-0.046c0.004,0,0.008,0,0.012,0v-0.045
	c0.022,0.003,0.043-0.013,0.046-0.035c0-0.003,0-0.007,0-0.011l0.044-0.045c0.031-0.03,0.062-0.061,0.093-0.094v-0.045
	c0.024-0.027,0.058-0.043,0.093-0.045v-0.045c-0.002-0.022,0.013-0.043,0.036-0.045c0.003-0.002,0.007-0.002,0.01,0l0.045-0.047
	v-0.045h0.031v-0.094c0.021,0.002,0.042-0.012,0.045-0.033c0-0.004,0-0.009,0-0.013h0.046v-0.044l0.045-0.046h0.045
	c-0.003-0.021,0.012-0.042,0.033-0.046c0.004,0,0.008,0,0.012,0v-0.045l0.137-0.139v-0.045c0.021,0.004,0.042-0.011,0.045-0.033
	c0-0.003,0-0.007,0-0.012l0.044-0.045c0.023,0.003,0.043-0.014,0.046-0.035c0-0.004,0-0.008,0-0.01h0.045l0.093-0.094
	c0.021,0.004,0.041-0.012,0.044-0.033c0.001-0.004,0.001-0.008,0-0.011v-0.046l0.046-0.046c0.022,0.003,0.042-0.012,0.045-0.034
	c0-0.003,0-0.008,0-0.012v-0.046h0.044v-0.046h0.046v-0.046l0.044-0.044c-0.003-0.022,0.012-0.044,0.035-0.047
	c0.003-0.001,0.007-0.001,0.011,0l0.046-0.045v-0.047c0.022,0.004,0.042-0.013,0.044-0.035c0-0.003,0-0.006,0-0.01
	c0.022,0.004,0.042-0.012,0.046-0.033c0-0.004,0-0.008,0-0.012v-0.093l0.046-0.046h0.045v-0.094h0.045v-0.092l0.045-0.045
	c0.022,0.001,0.042-0.014,0.045-0.037c0-0.002,0-0.006,0-0.009v-0.094l0.044-0.044c0.022,0.003,0.042-0.012,0.046-0.034
	c0-0.005,0-0.009,0-0.012v-0.187c0.023-0.026,0.057-0.043,0.093-0.045v-0.222c0.022,0.003,0.043-0.014,0.046-0.035
	c0-0.004,0-0.007,0-0.01v-0.412h-0.049v-0.229c-0.023-0.027-0.057-0.043-0.093-0.045v-0.14h-0.042v-0.043l-0.037-0.05v-0.044h-0.045
	l-0.187-0.187c0.003-0.021-0.013-0.042-0.035-0.044c-0.003,0-0.007,0-0.011,0l-0.044-0.046v-0.042H22.74
	c-0.024-0.027-0.057-0.044-0.093-0.046h-0.044c-0.023-0.028-0.057-0.044-0.093-0.045c0.003-0.021-0.012-0.042-0.033-0.045
	c-0.004,0-0.009,0-0.013,0h-0.043c-0.037-0.034-0.087-0.051-0.137-0.047c-0.024-0.026-0.057-0.043-0.093-0.044
	c-0.088-0.03-0.181-0.046-0.274-0.046h-0.042v-0.047h-0.093c-0.042-0.024-0.087-0.04-0.136-0.044h-0.093
	c-0.023-0.028-0.057-0.045-0.093-0.047v-0.045h-0.186c-0.058-0.03-0.121-0.045-0.187-0.045c-0.041-0.025-0.087-0.04-0.136-0.046
	H20.6v-0.186h-0.228v-1.87h-0.501v0.093h-0.318v1.553l0.044,0.045v0.64H19.37v0.138h-3.006v0.914h-0.093v0.274h-0.636v-0.043h-0.093
	v0.044c-0.078,0.004-0.155,0.019-0.228,0.045h-0.955v0.045l-0.045,0.045v0.413h-0.089v0.273l-0.045,0.047v0.137
	c-0.138,0.002-0.275,0.018-0.41,0.045H12.63v-0.501h-0.046c-0.022-0.002-0.042,0.013-0.045,0.035c0,0.003,0,0.007,0,0.011
	c-0.03,0.031-0.062,0.061-0.093,0.093l-0.045,0.045c-0.022-0.003-0.043,0.014-0.046,0.035c0,0.004,0,0.008,0,0.011h-0.178
	c-0.028,0.022-0.045,0.057-0.047,0.093c-0.061,0-0.093,0.015-0.093,0.045c-0.042,0.025-0.088,0.041-0.137,0.046
	c-0.026,0.023-0.043,0.058-0.045,0.093c-0.022-0.003-0.042,0.013-0.045,0.036c0,0.004,0,0.007,0,0.011h-0.186
	c-0.03,0.029-0.062,0.061-0.093,0.093c-0.021-0.003-0.042,0.013-0.044,0.034c0,0.004,0,0.008,0,0.012
	c-0.024,0.025-0.057,0.041-0.093,0.045v0.093c-0.061,0-0.093,0.015-0.093,0.046c-0.05-0.005-0.099,0.012-0.137,0.045
	c-0.023,0.026-0.057,0.043-0.093,0.045v0.094c-0.05-0.005-0.099,0.012-0.136,0.045l-0.045,0.045
	c-0.045,0.012-0.081,0.047-0.093,0.092c-0.022-0.002-0.043,0.012-0.046,0.035c0,0.004,0,0.008,0,0.012
	c-0.045,0.011-0.081,0.047-0.093,0.093h-0.12c-0.026,0.023-0.043,0.058-0.045,0.093l-0.045,0.045
	c-0.042,0.025-0.088,0.041-0.137,0.046c-0.027,0.023-0.042,0.058-0.044,0.094l-0.093,0.046c-0.027,0.023-0.043,0.057-0.045,0.093
	c-0.021-0.005-0.042,0.009-0.045,0.03c-0.001,0.006-0.001,0.01,0,0.014c-0.05-0.004-0.099,0.014-0.136,0.046v0.046
	c-0.023,0.025-0.057,0.043-0.093,0.045c-0.03,0.031-0.06,0.061-0.093,0.094v0.045l-0.093,0.094v0.045L9.53,20.725v0.094H8.263
	v-1.709H8.176l-0.045,0.045c-0.058,0.031-0.121,0.045-0.186,0.045v0.139c-0.058,0.029-0.122,0.045-0.186,0.045
	c-0.036,0.002-0.069,0.02-0.093,0.046c0.003,0.021-0.011,0.042-0.033,0.046c-0.004,0-0.008,0-0.012,0
	c-0.038,0.032-0.087,0.049-0.137,0.045c-0.023,0.027-0.057,0.043-0.093,0.045v0.094c-0.042,0.023-0.088,0.039-0.137,0.045
	c-0.062,0-0.093,0.014-0.093,0.045c-0.032,0.031-0.063,0.063-0.093,0.093v0.046H6.975v0.094c0.003,0.022-0.012,0.043-0.034,0.046
	c-0.003,0-0.007,0-0.011,0c-0.05-0.003-0.099,0.013-0.137,0.046l-0.045,0.045L6.655,20.21L6.61,20.256v0.046H6.518
	c-0.027,0.022-0.043,0.058-0.045,0.094v0.046H6.429c-0.023,0.026-0.057,0.043-0.093,0.045c0.003,0.021-0.011,0.041-0.034,0.045
	c-0.003,0-0.008,0-0.012,0c-0.002,0.035-0.018,0.069-0.044,0.094l-0.093,0.092c-0.027,0.025-0.043,0.059-0.046,0.094
	c-0.061,0-0.093,0.014-0.093,0.045L5.968,20.9c-0.071,0.011-0.126,0.067-0.137,0.139l-0.044,0.044l-0.093,0.094v0.045l-0.093,0.093
	c0.003,0.022-0.012,0.042-0.034,0.046c-0.004,0-0.007,0-0.011,0c-0.027,0.023-0.043,0.058-0.045,0.093
	c-0.022-0.002-0.043,0.014-0.046,0.036c0,0.004,0,0.007,0,0.01c-0.027,0.023-0.044,0.058-0.045,0.093
	c-0.036,0.001-0.07,0.018-0.093,0.047v0.045c-0.028,0.022-0.045,0.057-0.045,0.093H5.199v0.093
	c-0.036,0.002-0.069,0.019-0.093,0.045c-0.002,0.036-0.019,0.069-0.046,0.093c-0.022-0.002-0.042,0.013-0.045,0.036
	c0,0.003,0,0.006,0,0.01c0.003,0.021-0.012,0.042-0.033,0.045c-0.004,0.001-0.008,0.001-0.012,0v0.093H4.926
	c-0.038,0.033-0.087,0.05-0.136,0.046v0.045c-0.001,0.037-0.018,0.069-0.045,0.093c0.003,0.022-0.012,0.044-0.035,0.048
	c-0.003,0-0.007,0-0.01,0v0.137c-0.05-0.005-0.098,0.012-0.135,0.047v0.045l-0.093,0.093v0.045c0.004,0.021-0.01,0.041-0.032,0.045
	c-0.004,0.001-0.009,0.001-0.013,0c-0.001,0.035-0.019,0.07-0.046,0.094v0.093c-0.059,0-0.092,0.015-0.092,0.045v0.093
	c-0.022-0.002-0.042,0.013-0.045,0.035c0,0.003,0,0.007,0,0.012l-0.045,0.044c-0.027,0.023-0.043,0.058-0.045,0.093l-0.045,0.046
	v0.045c-0.027,0.023-0.043,0.059-0.046,0.094v0.094c0,0.029-0.03,0.045-0.093,0.045v0.137c-0.002,0.036-0.019,0.069-0.045,0.093
	v0.107c-0.036,0.001-0.07,0.018-0.093,0.045v0.274H3.519c-0.334-0.03-0.652-0.045-0.957-0.045H2.198
	c-0.063,0-0.093-0.017-0.093-0.047v-0.093c-0.027-0.024-0.042-0.057-0.044-0.094c-0.023,0.004-0.043-0.012-0.046-0.034
	c-0.001-0.004-0.001-0.007,0-0.011v-0.409c-0.023-0.027-0.057-0.043-0.093-0.045v-0.322l-0.045-0.044v-0.32l-0.093-0.046v-0.364
	c0.004-0.021-0.01-0.041-0.031-0.046c-0.002-0.001-0.005-0.001-0.008-0.001c-0.002-0.036-0.018-0.068-0.045-0.093v-0.226H1.605
	v-0.55c-0.001-0.036-0.018-0.069-0.046-0.093v-0.317c-0.002-0.035-0.018-0.069-0.044-0.094c-0.022,0.004-0.042-0.013-0.045-0.034
	c0-0.004,0-0.007,0-0.011v-0.365l-0.053-0.044v-0.047L1.371,20.48v-0.914c0-0.029-0.032-0.045-0.093-0.045v-0.549
	c-0.022,0.004-0.042-0.014-0.044-0.035c0-0.004,0-0.007,0-0.011v-0.593c-0.002-0.035-0.019-0.069-0.045-0.093v-0.044l-0.046-0.045
	v-0.501c0.002-0.022-0.013-0.043-0.036-0.046c-0.003-0.001-0.007-0.001-0.011,0.001v-0.042l-0.045-0.045v-0.831H0.958v-0.731
	c-0.027-0.024-0.044-0.058-0.046-0.093V14.31c-0.026-0.024-0.043-0.058-0.045-0.093l-0.041-0.044v-2.879
	c0.021,0.003,0.042-0.011,0.044-0.033c0.001-0.004,0.001-0.008,0-0.012l0.049-0.047v-0.964c0.002-0.036,0.019-0.069,0.045-0.093
	v-0.73c0.036-0.001,0.07-0.018,0.093-0.046V9.323c0.456,0,0.911,0.015,1.366,0.046v0.092h0.093v0.044l0.039,0.045v0.687h18.815
	c0.022,0.003,0.043-0.012,0.046-0.035c0-0.004,0-0.007,0-0.011l0.045-0.046h0.046c0.022,0.003,0.042-0.013,0.044-0.035
	c0-0.003,0-0.006,0-0.01v-0.047h0.093v-0.045l0.045-0.093h0.046l0.044-0.093h0.046l0.045-0.045l0.093-0.046V9.688
	c0.035-0.001,0.069-0.018,0.093-0.045l0.046-0.045h0.045V9.552c-0.003-0.022,0.012-0.042,0.033-0.045c0.004,0,0.008,0,0.012,0h0.045
	V9.46l0.093-0.093c0.031-0.031,0.062-0.063,0.093-0.093c0.022,0.003,0.042-0.013,0.045-0.035c0-0.003,0-0.008,0-0.011l0.093-0.093
	c0.019-0.003,0.033-0.021,0.032-0.041h0.046c-0.003-0.022,0.011-0.043,0.033-0.046c0.005-0.001,0.01-0.001,0.015,0V9.002
	l0.093-0.045c-0.005-0.021,0.008-0.043,0.03-0.047c0.004-0.001,0.009-0.001,0.013-0.001h0.049l0.231-0.23V8.637h0.044l0.045-0.045
	h0.042c-0.003-0.022,0.013-0.043,0.035-0.046c0.003,0,0.006,0,0.01,0V8.5c0.023-0.027,0.057-0.044,0.093-0.046
	c0.023-0.027,0.057-0.044,0.093-0.045c0.036-0.002,0.07-0.018,0.093-0.044l0.093-0.093h0.136V7.858
	c0.036-0.002,0.069-0.018,0.093-0.044V7.678h0.629v0.093h6.65V7.357c0.003-0.022-0.012-0.042-0.034-0.045c-0.003,0-0.007,0-0.011,0
	V7.265L31.077,7.22V6.535h-0.319v0.458c-0.021-0.003-0.042,0.012-0.045,0.033c0,0.004,0,0.007,0,0.011h-0.637V6.851l-0.045-0.045
	V6.535h-1.822v0.411h-0.045v0.093h-0.633V6.717h-0.093V2.738h0.093V2.552l0.045-0.045V2.462l0,0H27.569z M43.378,16.228l0.044-0.046
	h-0.044V16.228z M34.353,17.051h-2.868v0.045l-0.045,0.093h-0.045v0.137c-0.022-0.003-0.042,0.013-0.045,0.034
	c0,0.004,0,0.007,0,0.011v0.186l-0.045,0.046v0.137h-0.046v0.187c0.004,0.021-0.011,0.042-0.033,0.045
	c-0.003,0.001-0.007,0.001-0.012,0v0.687h0.044v0.094l0.046,0.045v0.094h0.045v0.186h0.045v0.596h2.597v-0.279h0.05v-0.057
	c0.022,0.002,0.042-0.015,0.044-0.037c0-0.003,0-0.007,0-0.01h0.045l0.093-0.094h0.045v-0.044l0.093-0.044
	c-0.003-0.023,0.014-0.045,0.037-0.047c0.003-0.001,0.006-0.001,0.01,0l0.093-0.094h0.125l0.045-0.045
	c-0.003-0.022,0.013-0.043,0.034-0.045c0.004-0.001,0.007-0.001,0.011,0l0.093-0.093c0.023,0.003,0.043-0.012,0.046-0.036
	c0.001-0.003,0.001-0.006,0-0.01c0.036-0.002,0.07-0.019,0.093-0.046v-0.042h0.093v-0.047c0.021,0.004,0.042-0.012,0.045-0.033
	c0.001-0.004,0.001-0.008,0-0.012h0.093v-0.823l-0.046-0.046c0.003-0.022-0.013-0.042-0.034-0.045c-0.004,0-0.007,0-0.01,0
	c0.003-0.022-0.012-0.042-0.034-0.045c-0.004,0-0.008,0-0.012,0l-0.092-0.045c-0.036-0.002-0.07-0.019-0.093-0.045v-0.046
	c-0.022,0.002-0.043-0.013-0.046-0.035c0-0.004,0-0.007,0-0.011h-0.049c-0.023-0.027-0.057-0.044-0.093-0.046v-0.091
	c-0.036-0.002-0.07-0.019-0.093-0.046c-0.021,0.003-0.042-0.011-0.044-0.032c0-0.004,0-0.008,0-0.013l-0.044-0.045h-0.042
	l-0.044-0.049c0.002-0.022-0.014-0.042-0.037-0.045c-0.003,0-0.007,0-0.011,0L34.353,17.051z M29.569,17.738
	c-0.021,0.002-0.042-0.013-0.045-0.035c0-0.004,0-0.008,0-0.012c-0.021,0.002-0.042-0.012-0.045-0.033c0-0.004,0-0.008,0-0.013V17.6
	h-0.315v1.371l0.044,0.047c0.022-0.006,0.043,0.01,0.046,0.031c0.001,0.004,0.001,0.009,0,0.013h0.041v0.093h0.045v0.045
	l0.048,0.046v0.046h0.093v0.046l0.093,0.044h0.046v0.046c0.023,0.027,0.057,0.044,0.093,0.046h0.045v0.043h0.04l0.093,0.045v0.094
	h0.638v-0.094h-0.093v-0.092c-0.021,0.002-0.041-0.012-0.045-0.033c0-0.004,0-0.009,0-0.013v-0.04h-0.046v-0.045
	c-0.022,0.002-0.042-0.015-0.045-0.037c0-0.003,0-0.007,0-0.01h-0.047v-0.094l-0.044-0.045V19.06
	c-0.036-0.002-0.069-0.019-0.093-0.046v-0.133h-0.043v-0.137l-0.046-0.046v-0.094l-0.093-0.094v-0.042h-0.047v-0.045
	c-0.029-0.032-0.061-0.063-0.092-0.093v-0.093l-0.045-0.045v-0.045h-0.04v-0.094l-0.046-0.046v-0.092H29.62v-0.04
	c-0.022,0.003-0.042-0.011-0.045-0.033c0-0.005,0-0.009,0-0.013v-0.093l0,0L29.569,17.738z"/>
<linearGradient id="shape2_2_" gradientUnits="userSpaceOnUse" x1="462.7275" y1="-264.9512" x2="421.9457" y2="-264.9512" gradientTransform="matrix(1 0 0 -1 -374.96 -242.6602)">
	<stop  offset="2.300000e-007" style="stop-color:#5D3F1C"/>
	<stop  offset="1" style="stop-color:#865524"/>
</linearGradient>
<path id="shape2_1_" fill="url(#shape2_2_)" d="M77.214,31.251c-0.313,0-0.625-0.05-0.923-0.147
	c-0.297,0.099-0.608,0.147-0.921,0.147h-8.193c-0.185,0-0.447-0.009-0.77-0.075c-0.217,0.051-0.439,0.075-0.664,0.075h-2.664
	c-0.816,0-1.605-0.342-2.166-0.937c-0.078-0.086-0.15-0.174-0.219-0.267l-0.91,0.65c-0.503,0.36-1.1,0.552-1.725,0.552h-3.584
	c-0.717,0-1.402-0.264-1.935-0.719c-0.616,0.424-1.35,0.654-2.114,0.654c-0.75,0-1.478-0.222-2.104-0.642
	c-0.164-0.11-0.315-0.233-0.452-0.37c-1.021-1.021-1.363-2.423-0.92-3.753l0.044-0.128l0.08-0.203
	c-1.801-0.254-3.145-1.765-3.145-3.646V22.24c0-0.741,0.274-1.45,0.773-1.996l4.748-5.232c0.646-1.069,1.762-1.679,3.079-1.679h0.41
	c2.065,0,3.684,1.618,3.684,3.684c0,0-0.001,0.289-0.003,0.331c0.555-0.653,1.372-1.044,2.26-1.044h8.398
	c0.261,0,0.518,0.034,0.768,0.101c0.25-0.067,0.508-0.101,0.771-0.101h9.218c0.243,0,0.482,0.029,0.717,0.087
	c0.233-0.058,0.475-0.087,0.719-0.087h8.396c0.917,0,1.797,0.433,2.354,1.159c0.56,0.726,0.752,1.689,0.515,2.573l-0.407,1.532
	c-0.146,0.541-0.433,1.02-0.829,1.395c-0.014,0.188-0.045,0.372-0.094,0.555l-0.41,1.537c-0.075,0.282-0.192,0.551-0.346,0.799
	c0.168,0.532,0.185,1.109,0.04,1.656l-0.413,1.539c-0.347,1.297-1.524,2.202-2.866,2.202H77.214z M74.175,23.782l0.013-0.009h-0.794
	l-0.002,0.009H74.175z"/>
<path id="ACE" fill="#FFFFFF" d="M51.403,23.163h-3.79c-0.409,0-0.717-0.308-0.717-0.718c0-0.104,0-0.104,0-0.204l5.018-5.531
	c0.103-0.307,0.31-0.41,0.615-0.41h0.41c0.409,0,0.717,0.308,0.717,0.717c0,0.102,0,0.205,0,0.205l-2.458,3.584h4.402
	c0.615,0,0.31,1.127-0.103,1.639l-4.507,5.531c-0.309,0.308-0.717,0.308-1.023,0.104c-0.205-0.206-0.309-0.41-0.205-0.719
	L51.403,23.163L51.403,23.163L51.403,23.163z M58.88,19.271l0.409,0.41l-4.813,8.603h3.584l2.15-1.536h2.971l-0.103,1.536h2.663
	l1.536-9.013H58.88L58.88,19.271z M63.386,20.809l-0.104,3.482h-2.97l2.048-3.482H63.386L63.386,20.809z M67.177,28.284h8.191
	l0.613-2.15l-0.819,0.614h-5.733l1.74-5.941h6.452l0.409-1.535h-9.218l-2.355,7.988c-0.102,0.104-0.102,0.309-0.102,0.409
	c0,0.103,0,0.205,0.103,0.31c0.102,0.103,0.205,0.203,0.307,0.203C66.97,28.284,67.074,28.284,67.177,28.284L67.177,28.284
	L67.177,28.284z M79.466,19.271l0.311,0.612l-2.563,8.398h8.193l0.41-1.536h-5.122l0.717-2.458h4.711l0.41-1.537h-4.506l0.612-1.944
	h4.815l0.409-1.535H79.466L79.466,19.271z"/>
</svg>
