<?xml version="1.0" encoding="utf-8"?>
<!-- Generator: Adobe Illustrator 16.0.0, SVG Export Plug-In . SVG Version: 6.00 Build 0)  -->
<!DOCTYPE svg PUBLIC "-//W3C//DTD SVG 1.1//EN" "http://www.w3.org/Graphics/SVG/1.1/DTD/svg11.dtd">
<svg version="1.1" id="case1" xmlns="http://www.w3.org/2000/svg" xmlns:xlink="http://www.w3.org/1999/xlink" x="0px" y="0px"
	 width="92px" height="36px" viewBox="0 0 92 36" enable-background="new 0 0 92 36" xml:space="preserve">

<linearGradient id="shape1_1_" gradientUnits="userSpaceOnUse" x1="0.833" y1="18" x2="91.334" y2="18">
	<stop  offset="2.300000e-007" style="stop-color:#F0D9BA"/>
	<stop  offset="1" style="stop-color:#BB6B17"/>
</linearGradient>
<path id="shape1" fill="url(#shape1_1_)" d="M5.787,26.072L5.787,26.072L5.787,26.072c-0.026,0.002-0.051,0.015-0.067,0.034
	l-0.035-0.034H5.787 M21.625,25.105l0.035,0.034h-0.035V25.105z M9.121,20.501c0.016-0.002,0.027-0.018,0.025-0.033
	c0.001,0,0.003,0,0.004,0c0.017-0.002,0.029-0.017,0.028-0.034V20.4h2.443v0.297c-0.028,0.028-0.05,0.062-0.067,0.099
	c-0.028,0.03-0.052,0.064-0.07,0.102v0.068h-0.099c0,0.002,0,0.006,0,0.009c-0.004,0.017-0.019,0.026-0.036,0.025
	c-0.026,0.001-0.051,0.014-0.068,0.033h-0.034c-0.042,0.023-0.087,0.033-0.135,0.033c-0.017,0.021-0.042,0.032-0.067,0.034
	c-0.037-0.002-0.074,0.009-0.102,0.033h-0.103c-0.003,0-0.005,0-0.009,0c-0.017,0.004-0.027,0.018-0.025,0.034h-0.034v0.031
	c0,0.002,0,0.006,0,0.009c-0.001,0.016-0.017,0.028-0.034,0.025c0.001,0.003,0.001,0.007,0,0.01
	c-0.003,0.017-0.019,0.027-0.034,0.023h-0.033l-0.036,0.035h-0.102c-0.004,0-0.006,0-0.01,0c-0.015,0.002-0.026,0.016-0.023,0.032
	h-0.036c-0.042,0.022-0.088,0.033-0.135,0.035c0.001,0.002,0.001,0.005,0,0.007c-0.002,0.016-0.017,0.028-0.034,0.026v0.035
	c-0.002,0-0.004,0-0.007,0c-0.017,0.002-0.03,0.02-0.027,0.036c-0.026,0.001-0.05,0.012-0.067,0.031c-0.002,0-0.007,0-0.009,0
	c-0.016,0.004-0.027,0.018-0.024,0.035h-0.031c-0.018,0.02-0.042,0.032-0.068,0.034h-0.037l-0.033,0.067
	c-0.05-0.015-0.095-0.036-0.135-0.067c-0.181-0.023-0.351-0.044-0.509-0.067l-0.137-0.067H9.079v-0.904
	c0.001,0.001,0.005,0.001,0.007,0c0.016-0.002,0.028-0.017,0.026-0.034c0.001,0,0.003,0,0.004,0
	C9.117,20.501,9.118,20.501,9.121,20.501 M65.928,19.233c0.021,0.015,0.032,0.041,0.034,0.065v0.069L65.928,19.4V19.233z
	 M23.458,18.666h0.103V18.7h-0.002h-0.101V18.666z M27.532,18.799l0.034-0.033c0.021-0.017,0.033-0.041,0.033-0.067
	c0.02-0.016,0.033-0.041,0.035-0.065c0.031-0.02,0.065-0.03,0.101-0.033v0.938l0.068,0.066c0.045,0.043,0.079,0.076,0.101,0.1
	c0.03,0.051,0.08,0.087,0.137,0.101l0.002-0.004v0.034h-0.509v-0.034c-0.024-0.026-0.037-0.063-0.034-0.101
	c-0.028-0.028-0.05-0.062-0.068-0.099c-0.037-0.018-0.071-0.041-0.103-0.067c-0.028-0.024-0.064-0.037-0.101-0.033v-0.434
	c0.022-0.044,0.057-0.079,0.101-0.101c0.011-0.041,0.035-0.076,0.068-0.101l0.034-0.033c0.003,0,0.007,0,0.01,0
	C27.475,18.833,27.507,18.82,27.532,18.799 M29.059,18.805v-0.272l0.034-0.034c0.655,0,1.322-0.011,2.001-0.034
	c-0.024,0.028-0.037,0.065-0.034,0.101v0.069c-0.019,0.028-0.03,0.062-0.036,0.096c0.003,0.037-0.009,0.074-0.033,0.103
	c-0.018,0.029-0.031,0.063-0.034,0.099c-0.025,0.026-0.038,0.063-0.035,0.101c-0.043,0.021-0.078,0.057-0.1,0.099
	c-0.045,0.023-0.081,0.059-0.104,0.103c-0.033,0.008-0.058,0.034-0.067,0.065c-0.045,0.023-0.09,0.045-0.136,0.069L30.482,19.4
	l-0.069,0.066c-0.008,0.034-0.033,0.059-0.067,0.067c-0.064,0.041-0.132,0.074-0.205,0.099L29.938,19.7h-0.169v0.034
	c-0.054,0.022-0.112,0.035-0.17,0.033c-0.103,0.002-0.205,0.013-0.304,0.033V19.7c-0.025-0.028-0.036-0.063-0.034-0.101
	l-0.069-0.065c-0.045-0.022-0.091-0.046-0.136-0.067v-0.567h-0.001C29.056,18.877,29.056,18.845,29.059,18.805 M22.578,18.264h0.406
	v0.036h-0.406V18.264z M35.195,6.688v0.033h-0.169c-0.003,0.026-0.015,0.049-0.034,0.066c-0.002,0.026-0.015,0.05-0.035,0.067
	c0,0.025-0.014,0.05-0.033,0.066c-0.019,0.015-0.032,0.038-0.035,0.063c-0.023,0.022-0.046,0.043-0.067,0.066
	c-0.02,0.018-0.033,0.043-0.034,0.071v2.273h-5.768V7.855c-0.02-0.017-0.033-0.041-0.034-0.066
	c-0.026-0.002-0.049-0.014-0.067-0.034l-0.067-0.067c-0.031-0.026-0.065-0.049-0.102-0.066v0.032h-0.035
	c-0.026-0.002-0.05-0.012-0.068-0.032h-1.933v0.031h-0.069c-0.023,0.002-0.046,0.014-0.059,0.035l-0.035,0.034l-0.067,0.066v0.033
	c-0.001,0.025-0.015,0.05-0.034,0.067c-0.021,0.016-0.033,0.041-0.035,0.066v0.401c0,0.002,0,0.004,0,0.008
	c0.002,0.017,0.018,0.028,0.035,0.026c0.001,0.025,0.015,0.051,0.034,0.066v0.933h-2.512v0.035h-0.1c-0.003,0-0.005,0-0.009,0
	c-0.017,0.002-0.027,0.017-0.026,0.033l-0.066,0.067c-0.02,0.016-0.034,0.041-0.036,0.067h-0.033v0.032H23.64v0.032h-0.138
	c-0.029,0.028-0.064,0.05-0.101,0.067c-0.017,0.031-0.029,0.066-0.033,0.102v0.303c0,0.001,0,0.003-0.001,0.004
	c-0.001,0.016-0.016,0.028-0.033,0.026v0.368c0.019,0.017,0.032,0.041,0.034,0.066v1.728l0.065,0.071
	c0.053,0.017,0.107,0.027,0.164,0.029v0.034c0.017,0.02,0.042,0.031,0.068,0.033v0.032h1.729c0.017,0.02,0.042,0.034,0.068,0.035
	v0.033h4.308v0.132c-0.02,0.015-0.034,0.041-0.035,0.065c-0.07,0-0.137,0.012-0.204,0.035c-0.497,0.021-1.017,0.043-1.561,0.067
	h-0.135L27.7,12.95c-0.068,0.022-0.158,0.056-0.271,0.102c-0.017,0.019-0.042,0.032-0.068,0.033h-0.169
	c-0.017,0.02-0.042,0.032-0.069,0.034c-0.025,0.003-0.05,0.014-0.067,0.033h-0.034v0.034h-0.033v0.034h-0.102v0.033h-0.069
	c-0.016,0.021-0.04,0.033-0.065,0.034c-0.021,0.017-0.033,0.041-0.036,0.067c-0.017,0.037-0.039,0.071-0.065,0.101
	c-0.03,0.02-0.065,0.03-0.1,0.035h-0.067c-0.033,0.024-0.057,0.059-0.067,0.1l-0.034,0.035h-0.067l-0.035,0.034
	c-0.019,0.019-0.046,0.03-0.073,0.029c-0.018,0.02-0.042,0.031-0.068,0.033c-0.001,0-0.003,0-0.005,0
	c-0.017,0.002-0.03,0.017-0.029,0.035c-0.003-0.001-0.005,0-0.008,0c-0.016,0.002-0.028,0.019-0.025,0.035c-0.003,0-0.008,0-0.01,0
	c-0.016,0.003-0.026,0.019-0.023,0.034H25.97l-0.035,0.034h-0.033v0.03l-0.034,0.035c0,0.002,0,0.005,0,0.009
	c-0.001,0.018-0.018,0.028-0.034,0.026c-0.003,0-0.005,0-0.007,0c-0.017,0.002-0.028,0.017-0.026,0.034h-0.035
	c-0.017,0.02-0.04,0.031-0.066,0.035c0,0.002,0,0.004,0,0.006c-0.003,0.017-0.019,0.028-0.036,0.026c0,0.004,0.001,0.008,0,0.012
	c-0.002,0.016-0.017,0.026-0.033,0.023H25.6c-0.018,0.019-0.042,0.033-0.068,0.034c0.001,0.003,0.001,0.005,0,0.008
	c-0.003,0.017-0.018,0.028-0.035,0.025v0.031c-0.002,0-0.005,0-0.007,0c-0.017,0.004-0.028,0.018-0.026,0.035H25.43
	c0,0.002,0,0.005,0,0.008c-0.002,0.016-0.018,0.027-0.034,0.026c-0.017,0.02-0.042,0.033-0.067,0.034
	c-0.028,0.025-0.067,0.039-0.106,0.035l-0.033,0.035v0.031h-0.068c-0.042,0.022-0.089,0.034-0.136,0.034
	c-0.017,0.02-0.042,0.033-0.068,0.034c-0.002,0-0.004,0-0.008,0c-0.016,0.002-0.027,0.018-0.024,0.033c-0.004,0-0.006,0-0.009,0
	c-0.017,0.003-0.028,0.018-0.025,0.036h-0.034c0,0.001,0,0.003,0,0.006c0,0.018-0.016,0.03-0.032,0.029
	c-0.019,0.019-0.043,0.029-0.07,0.03c-0.042,0.021-0.088,0.032-0.136,0.033l-0.068,0.066c0.001,0.003,0.001,0.006,0,0.011
	c-0.002,0.016-0.018,0.026-0.034,0.024h-0.102c0.001,0.002,0.001,0.005,0,0.009c-0.003,0.017-0.018,0.027-0.034,0.025
	c-0.026,0.001-0.051,0.014-0.068,0.034v0.029h-0.067c0.001,0.002,0.001,0.006,0,0.01c-0.003,0.016-0.017,0.026-0.034,0.024
	c-0.017,0.019-0.041,0.031-0.067,0.034c-0.029,0.024-0.066,0.035-0.103,0.032c-0.001,0-0.003,0-0.004,0.001
	c-0.018,0-0.029,0.017-0.028,0.033l-0.033,0.035c0.001,0.002,0.001,0.004,0,0.006c-0.002,0.018-0.017,0.029-0.034,0.028h-0.108
	c-0.028,0.024-0.066,0.037-0.103,0.034c-0.026,0.001-0.051,0.012-0.067,0.034l-0.035,0.034h-0.035l-0.03,0.033
	c-0.036-0.002-0.072,0.01-0.101,0.033h-0.068l-0.033,0.033c-0.047,0.001-0.094,0.014-0.137,0.034c-0.003-0.001-0.007-0.001-0.008,0
	c-0.017,0.003-0.028,0.019-0.025,0.035h-0.034c-0.018,0.02-0.042,0.032-0.068,0.034h-0.033c0,0.002,0,0.004,0,0.006
	c-0.002,0.018-0.017,0.03-0.034,0.027c-0.026,0.002-0.05,0.014-0.067,0.034v0.034h-0.067c0,0.002,0,0.006,0,0.009
	c-0.003,0.016-0.018,0.026-0.034,0.024H22.78l-0.034,0.035h-0.034c-0.017,0.019-0.041,0.031-0.067,0.032
	c-0.036,0.005-0.07,0.016-0.101,0.034h-0.033c0,0.002,0,0.003,0,0.005c-0.002,0.018-0.017,0.03-0.035,0.028l-0.035,0.034h-0.034
	c-0.028,0.024-0.065,0.037-0.102,0.034c-0.037-0.003-0.073,0.01-0.103,0.033c-0.002,0-0.004,0-0.006,0
	c-0.018,0.002-0.029,0.017-0.028,0.034h-0.069v0.032h-0.034c0,0.003,0,0.005,0,0.009c-0.004,0.016-0.018,0.028-0.035,0.025h-0.067
	c0,0.003,0,0.006,0,0.009c-0.002,0.017-0.018,0.027-0.035,0.025h-0.1c-0.018,0.02-0.042,0.031-0.066,0.033c-0.002,0-0.005,0-0.008,0
	c-0.017,0.001-0.028,0.018-0.026,0.034h-0.103c0,0.002,0,0.006,0,0.008c-0.002,0.017-0.018,0.028-0.034,0.025h-0.101
	c0.001,0.003,0.001,0.005,0,0.009c-0.001,0.017-0.017,0.028-0.034,0.025c-0.037-0.002-0.073,0.01-0.103,0.034
	c-0.002-0.001-0.006-0.001-0.009,0c-0.017,0.002-0.027,0.018-0.024,0.034H21.15c0.001,0.002,0.001,0.005,0,0.009
	c-0.002,0.016-0.017,0.026-0.033,0.024c-0.029,0.023-0.065,0.036-0.103,0.034h-0.067c-0.1,0.023-0.204,0.034-0.306,0.033
	c-0.16,0-0.318,0.012-0.476,0.034h-0.303l-0.205-0.065c-0.066,0.023-0.146,0.044-0.237,0.065v0.034h-0.068v0.035
	c-0.545-0.021-1.097-0.035-1.663-0.035v-0.034l-0.034-0.034v-0.132l0.068-0.068c0.044,0.001,0.084-0.025,0.101-0.066v-0.101
	c0.021-0.043,0.058-0.079,0.102-0.1v-0.033h0.033v-1.436c0.028-0.029,0.051-0.063,0.067-0.101l0.036-0.065v-0.1
	c-0.017-0.037-0.041-0.07-0.069-0.101c-0.02-0.017-0.031-0.042-0.034-0.067l-0.034-0.034c-0.018-0.036-0.041-0.07-0.068-0.099
	c-0.021-0.041-0.032-0.086-0.034-0.132c-0.041-0.012-0.077-0.035-0.101-0.068l-0.204-0.066H7.177v0.033H7.042
	c-0.016,0.021-0.041,0.033-0.066,0.035l-0.068,0.068c-0.034,0.008-0.059,0.033-0.066,0.065H6.806
	c-0.029,0.029-0.052,0.064-0.07,0.101c-0.027,0.03-0.051,0.063-0.067,0.1v0.534c-0.017,0.037-0.041,0.071-0.068,0.1
	c-0.028,0.03-0.05,0.063-0.067,0.1v0.467l0.03,0.066l0.101,0.1c0.045,0.045,0.08,0.079,0.103,0.101c0.017,0.036,0.04,0.07,0.067,0.1
	c0.038,0.018,0.071,0.039,0.103,0.066v0.101l-1.595-0.067c-0.067-0.024-0.125-0.045-0.17-0.067v0.034
	c-0.081-0.002-0.16,0.01-0.237,0.035c-0.028,0.03-0.051,0.063-0.068,0.101c-0.031-0.019-0.065-0.029-0.102-0.034H1.612v0.032H1.477
	c-0.026,0.003-0.05,0.015-0.067,0.034c-0.07-0.015-0.139-0.037-0.205-0.065v0.031c-0.081,0.003-0.16,0.014-0.237,0.034
	c-0.008,0.034-0.035,0.06-0.067,0.067c-0.028,0.03-0.05,0.063-0.067,0.101v10.079c0.009,0.033,0.035,0.059,0.068,0.067
	c0.033,0.024,0.058,0.06,0.068,0.099v0.07c0.018,0.037,0.041,0.071,0.068,0.102c0.043,0.021,0.078,0.055,0.101,0.097
	c0.091,0.02,0.17,0.044,0.238,0.065h0.237c0.068-0.021,0.136-0.046,0.205-0.065c1.039-0.046,2.067-0.067,3.086-0.067v0.264
	c0.02,0.018,0.032,0.042,0.035,0.067c0.05,0.024,0.096,0.06,0.135,0.101c0.068,0.023,0.138,0.044,0.205,0.065h0.136
	c0.043-0.016,0.089-0.028,0.135-0.033c0.027-0.002,0.052-0.013,0.068-0.034c0.045,0.044,0.106,0.067,0.17,0.065H7.38
	c0.089,0.002,0.174-0.035,0.236-0.101l0.035-0.033c0.072-0.002,0.143-0.023,0.203-0.065c0.065-0.063,0.102-0.146,0.103-0.235v-0.332
	c-0.007-0.078-0.042-0.148-0.103-0.2c-0.043-0.053-0.104-0.088-0.171-0.101V24.11h0.543c0.03,0.026,0.064,0.05,0.1,0.065
	c0.073,0.046,0.167,0.046,0.239,0l8.48-3.501c0.084-0.019,0.151-0.084,0.168-0.17v-0.1h0.072c0.03-0.026,0.063-0.049,0.101-0.066
	c0.098-0.046,0.2-0.08,0.306-0.1c0.06,0.043,0.13,0.065,0.204,0.065l1.119-0.065c0.005,0.076,0.043,0.15,0.102,0.2
	c0.078,0.022,0.16,0.022,0.238,0c0.079-0.006,0.152-0.041,0.204-0.101l0.407-0.534c0.022-0.087,0.022-0.179,0-0.265v-0.039h0.067
	V19.2h0.069v-0.033l0.034-0.034L20.202,19v-0.033c0.003,0,0.005,0,0.007,0c0.017-0.002,0.03-0.018,0.027-0.033h0.036v-0.065
	c0.002,0,0.005,0,0.008,0c0.016-0.002,0.027-0.017,0.025-0.034l0.035-0.033v-0.033c0.026-0.002,0.049-0.015,0.067-0.034h0.034
	c0-0.002,0-0.003,0-0.005c0.002-0.018,0.018-0.028,0.035-0.026l0.034-0.034h0.033v-0.033h0.034V18.6h0.543v-0.467h0.033v0.299h0.033
	V18.6c0.058,0.003,0.116,0.014,0.171,0.035h0.237v0.031c0.003-0.001,0.005-0.001,0.009,0c0.016,0.002,0.028,0.017,0.025,0.034h1.425
	l0.034,0.031V19.1l0.07,0.065v0.103l0.03,0.031v0.034l0.038,0.035v0.099c0,0.002,0,0.006,0,0.008
	c0.002,0.018,0.017,0.028,0.033,0.026v0.129l0.064,0.07v0.231l-0.035,0.036c0,0.001,0,0.005,0,0.007
	c-0.002,0.018-0.018,0.028-0.035,0.026v0.065l-0.033,0.035v0.03l-0.034,0.033v0.03l-0.034,0.033
	c-0.026,0.002-0.051,0.015-0.068,0.034V20.3l-0.035,0.033v0.063c0,0.002,0,0.006,0,0.009c-0.001,0.017-0.017,0.027-0.033,0.025
	v0.101l-0.034,0.033v0.034c-0.022,0.021-0.045,0.044-0.067,0.067v0.064h-0.034v0.034l-0.035,0.033v0.032l-0.034,0.033
	c0,0.002,0,0.006,0,0.007c-0.001,0.017-0.017,0.028-0.033,0.027v0.035l-0.034,0.033c0.001,0.004,0.001,0.007,0,0.009
	c-0.003,0.017-0.018,0.028-0.035,0.025v0.103l-0.066,0.065c-0.003,0-0.007,0-0.009,0c-0.018,0.001-0.029,0.016-0.028,0.033v0.065
	l-0.034,0.035c0.001,0.002,0.001,0.006,0,0.009c-0.003,0.016-0.018,0.026-0.035,0.023v0.029l-0.032,0.034
	c-0.018,0.021-0.043,0.031-0.07,0.033v0.065l-0.034,0.034v0.035l-0.068,0.065c-0.017,0.021-0.042,0.031-0.068,0.033
	c0,0.004,0,0.006,0,0.009c-0.001,0.018-0.017,0.028-0.033,0.026v0.034L22.2,21.767c0.001,0.004,0.001,0.007,0,0.011
	c-0.002,0.016-0.018,0.026-0.035,0.024v0.032l-0.033,0.033v0.032l-0.035,0.035v0.133c-0.002,0-0.005,0-0.008,0
	c-0.016,0.003-0.026,0.018-0.024,0.035H22.03l-0.034,0.033v0.034l-0.033,0.03c0.001,0.003,0.001,0.007,0,0.009
	c-0.002,0.018-0.018,0.029-0.036,0.026v0.033l-0.033,0.034c-0.018,0.019-0.042,0.031-0.067,0.033v0.065l-0.034,0.033v0.069
	l-0.034,0.033v0.034h-0.068c0,0.002,0,0.005,0,0.007c-0.002,0.018-0.017,0.028-0.033,0.026c0,0.002,0,0.007,0,0.009
	c-0.003,0.018-0.018,0.028-0.034,0.024v0.065l-0.103,0.102v0.068h-0.033v0.032c-0.026,0-0.051,0.012-0.067,0.033v0.098l-0.035,0.031
	v0.037c0.001,0.006,0.001,0.008,0,0.011c-0.002,0.016-0.017,0.026-0.034,0.025v0.465c0.001,0.003,0.001,0.007,0,0.009
	c-0.002,0.018-0.018,0.028-0.033,0.024v0.702l-0.137,0.066c-0.066,0.045-0.104,0.12-0.1,0.2l-0.102,0.601
	c0.008,0.087,0.043,0.17,0.102,0.233l0.066,0.067c0.025,0.07,0.073,0.131,0.137,0.168l2.306,0.897c0.054,0.023,0.116,0.023,0.17,0
	l1.562-0.233c0.077-0.01,0.141-0.062,0.169-0.132c0.023-0.023,0.046-0.045,0.068-0.065c0.065,0.021,0.135,0.033,0.203,0.033
	c0.079-0.003,0.152-0.04,0.205-0.101c0.061-0.061,0.085-0.148,0.068-0.233l-0.237-2.135l0.441-0.934
	c0.021-0.041,0.033-0.089,0.033-0.133h0.036l0.033-0.035v-0.065l0.034-0.032c0.004,0,0.005,0,0.009,0
	c0.017-0.003,0.027-0.02,0.025-0.035v-0.067c0.002,0.002,0.004,0.002,0.006,0c0.017-0.001,0.029-0.016,0.028-0.033V22.34
	l0.034-0.034v-0.033h0.034v-0.034c-0.001-0.001-0.001-0.005,0-0.007c0.002-0.018,0.017-0.028,0.035-0.026c0-0.004,0-0.005,0-0.007
	c0.002-0.018,0.018-0.028,0.034-0.025v-0.028c0-0.003-0.001-0.005,0-0.009c0.003-0.018,0.018-0.028,0.033-0.026v-0.134h0.032v-0.032
	c0.003,0,0.004,0,0.006,0c0.017-0.002,0.03-0.018,0.028-0.033c0.002,0,0.006,0,0.01,0c0.016-0.004,0.026-0.02,0.024-0.034v-0.103
	c0-0.001,0-0.005,0.001-0.007c0.001-0.018,0.017-0.028,0.034-0.026v-0.032c-0.001-0.003-0.001-0.007-0.001-0.01
	c0.003-0.017,0.018-0.028,0.035-0.025v-0.101c0.003,0,0.007,0,0.01,0c0.015-0.002,0.026-0.018,0.023-0.033v-0.034
	c0.037,0.002,0.074-0.009,0.104-0.033v-0.034l0.032-0.033v-0.068h0.034v-0.103c-0.001-0.002-0.001-0.004,0-0.008
	c0.003-0.016,0.017-0.028,0.034-0.026v-0.067l0.271,0.067h11.567v-0.033h1.458c0.001-0.026,0.014-0.05,0.034-0.067
	c0.01-0.032,0.035-0.057,0.067-0.067c0.017-0.037,0.04-0.07,0.068-0.101c0.018-0.035,0.04-0.069,0.068-0.099
	c0.018-0.032,0.029-0.065,0.032-0.102c0.029-0.027,0.052-0.063,0.068-0.101c0.029-0.029,0.052-0.062,0.069-0.099
	c0.043-0.021,0.079-0.059,0.101-0.103v-0.065c0.022-0.044,0.058-0.079,0.102-0.101c0.002-0.035,0.017-0.069,0.044-0.094l0.066-0.067
	c-0.002-0.037,0.01-0.072,0.035-0.101c0.018-0.035,0.041-0.069,0.068-0.101c0.022-0.043,0.059-0.078,0.103-0.1
	c0.021-0.021,0.056-0.055,0.1-0.101c0.005-0.035,0.017-0.068,0.034-0.099c0.024-0.023,0.046-0.044,0.068-0.067
	c0.004-0.035,0.015-0.07,0.034-0.101c0.043-0.044,0.079-0.078,0.101-0.101c0.018-0.03,0.031-0.063,0.034-0.1
	c0.023-0.022,0.046-0.044,0.068-0.066c0.017-0.037,0.04-0.071,0.067-0.102c0.026-0.049,0.061-0.093,0.101-0.134l0.033-0.065
	c0.028-0.03,0.051-0.063,0.068-0.101c0.028-0.028,0.05-0.063,0.067-0.101l0.067-0.067l0.103-0.099
	c0.021-0.044,0.057-0.079,0.101-0.101c0.009-0.033,0.035-0.057,0.067-0.066c-0.002-0.037,0.01-0.074,0.034-0.102
	c0.019-0.03,0.031-0.065,0.035-0.1l0.101-0.1c0.044-0.02,0.081-0.056,0.102-0.1c0.027-0.03,0.051-0.063,0.067-0.1
	c0.028-0.03,0.05-0.063,0.068-0.101c0.034-0.008,0.059-0.035,0.069-0.067c0.044-0.067,0.089-0.131,0.134-0.198
	c0.032-0.027,0.066-0.05,0.104-0.068c0.022-0.043,0.058-0.079,0.101-0.1c0.017-0.036,0.04-0.069,0.066-0.1
	c0.02-0.031,0.031-0.065,0.036-0.101l0.033-0.033c0.048,0.001,0.094,0.012,0.136,0.033c7.078,0.023,14.155,0.035,21.233,0.035v0.1
	c0.028,0.029,0.051,0.064,0.068,0.1v0.702h0.035v0.199c0.045,0.022,0.081,0.058,0.102,0.102c0.039,0.011,0.075,0.034,0.102,0.066
	h0.033v0.032c0.027,0.031,0.049,0.064,0.067,0.102c0.067,0.022,0.147,0.044,0.237,0.067c0.026-0.002,0.051-0.015,0.068-0.034v2.105
	l0.033,0.033h-0.475v0.034h-0.169c-0.023,0-0.035,0.021-0.035,0.065c-0.028,0.029-0.051,0.063-0.067,0.101v0.264
	c0.041,0.018,0.067,0.058,0.066,0.103v0.035l-0.067,0.067v0.664c0.041,0.018,0.068,0.059,0.067,0.103c0.003,0,0.005,0,0.008,0
	c0.017,0.002,0.028,0.018,0.028,0.033c0.038,0.041,0.084,0.074,0.134,0.1c0.047,0,0.095,0.012,0.136,0.033h0.543
	c0.003,0.037-0.009,0.072-0.032,0.101v0.501c-0.169,0.024-0.34,0.035-0.51,0.035l-0.136,0.065c-0.039,0.04-0.085,0.074-0.135,0.101
	c-0.021,0.016-0.033,0.041-0.035,0.065l-0.067,0.067v0.099c0.018,0.03,0.029,0.063,0.034,0.099
	c-0.004,0.037-0.016,0.071-0.034,0.103v1.132c0.006,0,0.011,0,0.017,0c0.033,0.005,0.057,0.035,0.052,0.068l0.204,0.067
	c0.032-0.02,0.066-0.03,0.102-0.033h0.031c0.035,0.003,0.07,0.014,0.101,0.033h0.238c0.058-0.02,0.115-0.04,0.169-0.067
	c0.566-0.022,1.121-0.033,1.664-0.033l-0.035,0.033c-0.002,0.025-0.013,0.05-0.032,0.067v0.168c0.025,0.002,0.049,0.013,0.067,0.032
	c0.019,0.016,0.031,0.04,0.033,0.067c0.021,0.016,0.032,0.04,0.034,0.064v0.069c0.001,0.024,0.014,0.052,0.034,0.067l0.034,0.031
	c0.004,0.036,0.016,0.071,0.034,0.103c0.02,0.017,0.032,0.039,0.034,0.064c0.019,0.018,0.031,0.04,0.033,0.066v0.032
	c0.021,0.016,0.034,0.041,0.035,0.067c0.001,0.024,0.014,0.049,0.033,0.065c0.002,0.024,0.015,0.051,0.034,0.065
	c0.004,0.035,0.015,0.07,0.032,0.103l0.039,0.035v0.133c0.024,0.022,0.046,0.044,0.068,0.066c0.002,0.027,0.014,0.052,0.035,0.067
	l0.033,0.034v0.232c0.017,0.021,0.04,0.034,0.066,0.036c0.021,0.016,0.032,0.04,0.035,0.066c0.021,0.017,0.031,0.041,0.033,0.065
	l0.068,0.065c0.002,0.027,0.015,0.05,0.034,0.067v0.067c0.002,0.026,0.016,0.05,0.034,0.067c0.001,0.024,0.014,0.049,0.033,0.065
	v0.166l0.033,0.033h-0.033c-0.028,0.025-0.065,0.035-0.103,0.034c-0.032,0.018-0.065,0.028-0.101,0.033
	c-0.018,0.021-0.043,0.032-0.068,0.033l-0.033,0.034c-0.002,0.026-0.015,0.049-0.033,0.067v0.131
	c-0.017,0.037-0.04,0.07-0.068,0.101c-0.02,0.016-0.033,0.04-0.035,0.066v1.503c0.003,0.024,0.016,0.048,0.035,0.065
	c0.023,0.022,0.045,0.046,0.068,0.067c0.047,0,0.093,0.012,0.136,0.033h1.83c0.047,0,0.095-0.013,0.136-0.033
	c0.026-0.002,0.051-0.013,0.067-0.034c0.021-0.016,0.033-0.04,0.033-0.066v-0.034c0.001-0.026,0.015-0.051,0.035-0.067v-0.166
	c0.019-0.02,0.042-0.031,0.068-0.033c0.021-0.018,0.032-0.043,0.034-0.067c0.022-0.021,0.044-0.044,0.067-0.067v-0.066l0.066-0.065
	c0.021-0.017,0.033-0.041,0.035-0.065c0.001-0.027,0.014-0.052,0.033-0.067v-0.067l0.067-0.067v-0.067l-0.034-0.031
	c-0.02-0.018-0.032-0.041-0.034-0.067c-0.023-0.026-0.037-0.063-0.033-0.101h-0.068c0.002-0.024,0.014-0.048,0.033-0.065
	c0-0.004,0-0.007,0-0.009c0.003-0.016,0.019-0.028,0.035-0.024v-0.403l-0.068-0.067c-0.021-0.016-0.032-0.041-0.033-0.065
	l-0.067-0.067c-0.026-0.001-0.051-0.014-0.069-0.033c-0.037-0.018-0.07-0.039-0.101-0.067v-0.067l-0.067-0.066v-0.064
	c-0.026-0.001-0.051-0.014-0.067-0.033c-0.029-0.028-0.064-0.051-0.102-0.067c-0.004-0.035-0.016-0.07-0.034-0.101v-0.101
	c-0.021-0.044-0.044-0.089-0.067-0.133c-0.02-0.018-0.03-0.04-0.033-0.067c-0.021-0.018-0.033-0.04-0.034-0.066l-0.036-0.028
	c-0.019-0.03-0.03-0.065-0.034-0.102c-0.001-0.026-0.015-0.051-0.034-0.066c-0.002-0.025-0.014-0.05-0.033-0.065v-0.065
	c-0.003,0-0.005,0-0.008,0c-0.018-0.002-0.029-0.018-0.027-0.035v-0.071c-0.02-0.016-0.032-0.04-0.034-0.065
	c0.003-0.037-0.009-0.074-0.033-0.101l-0.034-0.033c-0.021-0.018-0.031-0.041-0.033-0.067s-0.015-0.05-0.034-0.069v-0.063
	c-0.02-0.018-0.032-0.042-0.033-0.068c0-0.002,0-0.004,0-0.006c-0.003-0.018-0.019-0.028-0.034-0.026
	c0.002-0.037-0.01-0.072-0.036-0.101v-0.065c-0.019-0.018-0.03-0.043-0.033-0.067v-0.067c-0.003,0.002-0.006,0.002-0.009,0
	c-0.017-0.002-0.028-0.018-0.025-0.033l-0.07-0.067c-0.002-0.026-0.014-0.05-0.034-0.065c0.003-0.037-0.009-0.074-0.033-0.101
	c0.001-0.004,0.001-0.007,0-0.009c-0.003-0.016-0.018-0.026-0.033-0.024c-0.002-0.025-0.014-0.05-0.033-0.067
	c-0.021-0.017-0.033-0.041-0.035-0.067v-0.065c-0.021-0.016-0.033-0.041-0.034-0.067v-0.033c-0.019-0.03-0.03-0.063-0.033-0.1
	v-0.066c-0.002-0.026-0.015-0.05-0.035-0.067c-0.02-0.016-0.031-0.041-0.033-0.065c-0.025-0.002-0.051-0.015-0.069-0.033
	c-0.048-0.015-0.094-0.037-0.134-0.067h-0.033c-0.003,0-0.005,0-0.009,0c-0.017-0.002-0.027-0.018-0.025-0.034h-0.034v-0.033h0.034
	v-0.567c0.017-0.037,0.04-0.07,0.067-0.099v-0.204c-0.028-0.029-0.052-0.065-0.067-0.103h-0.034v-0.065l-0.035-0.066
	c-0.027-0.028-0.05-0.063-0.067-0.1c-0.028-0.024-0.063-0.037-0.101-0.033V20.23c0.021-0.044,0.045-0.088,0.068-0.133
	c0.004-0.037-0.011-0.074-0.035-0.101c-0.021-0.016-0.032-0.04-0.033-0.066c0-0.004,0-0.006,0-0.008
	c0.001-0.016,0.017-0.029,0.033-0.026c0.01-0.031,0.035-0.057,0.067-0.065c0.024-0.028,0.036-0.063,0.033-0.101
	c0.027-0.03,0.053-0.065,0.069-0.101v-1.197h0.034c0.017-0.02,0.041-0.031,0.067-0.033v-3.138l-0.033-0.032v-0.367l21.776,0.066
	c0.091,0.022,0.171,0.045,0.238,0.067h0.407l0.203-0.067c0.046-0.044,0.079-0.077,0.103-0.099c-0.004-0.037,0.009-0.074,0.033-0.101
	c0.02-0.017,0.032-0.042,0.034-0.067v-0.868c0.017-0.037,0.039-0.071,0.067-0.101c0.02-0.031,0.03-0.064,0.035-0.101
	c0.018-0.031,0.027-0.065,0.032-0.1v-0.3l-0.031-0.066c-0.017-0.037-0.039-0.071-0.068-0.101c-0.021-0.044-0.057-0.08-0.101-0.1
	v-0.034c-0.03-0.029-0.065-0.052-0.103-0.067l-0.204-0.066H52.295V8.825c0.023-0.027,0.036-0.064,0.033-0.1
	c0.017-0.02,0.042-0.032,0.067-0.035V8.657c0.021-0.017,0.032-0.041,0.033-0.066c0.021-0.017,0.033-0.04,0.035-0.066V8.457
	c-0.002-0.025-0.014-0.05-0.035-0.066l-0.033-0.034L52.328,8.29l-0.137-0.063l-0.035-0.07c-0.042-0.021-0.088-0.034-0.136-0.035
	h-1.765l-0.033-0.033h-0.476c0.001,0.001,0.001,0.005,0,0.008c-0.002,0.016-0.017,0.027-0.034,0.025h-0.305V8.089h-0.51v0.032
	h-1.492v0.032h-0.103l-0.066,0.067c-0.024,0.023-0.046,0.045-0.067,0.066v0.064h-0.035c-0.018,0.02-0.042,0.032-0.067,0.035
	c-0.026,0.001-0.051,0.015-0.068,0.033c-0.039,0.04-0.085,0.075-0.134,0.101c-0.06-0.002-0.118,0.01-0.172,0.035
	c-0.04,0.027-0.087,0.039-0.134,0.033c-0.019,0.037-0.041,0.069-0.069,0.1c-0.035,0.004-0.07,0.016-0.101,0.035
	c-0.023,0.022-0.047,0.044-0.07,0.068c-0.02,0.016-0.033,0.04-0.034,0.065c-0.068,0.001-0.138,0.012-0.203,0.035
	c-0.04,0.031-0.085,0.054-0.134,0.066c-0.069,0.016-0.137,0.038-0.203,0.067c-0.058,0.018-0.115,0.04-0.17,0.066
	c-0.09,0.023-0.169,0.044-0.238,0.067c-0.054,0.026-0.111,0.049-0.169,0.066c-0.065,0.029-0.135,0.052-0.205,0.067
	c-0.059-0.002-0.117,0.009-0.169,0.034c-0.089,0.028-0.179,0.049-0.271,0.066c-0.003,0-0.006,0-0.01,0
	c-0.016,0.002-0.026,0.018-0.023,0.035c-0.019-0.02-0.042-0.032-0.069-0.035h-6.988V9.358c0.001-0.027,0.014-0.051,0.034-0.067
	V8.391L37.5,8.357c0.02-0.017,0.031-0.041,0.035-0.067c0.021-0.016,0.032-0.04,0.033-0.066c-0.003-0.036-0.015-0.07-0.033-0.101
	c0-0.002,0-0.006,0-0.009c-0.003-0.016-0.019-0.027-0.035-0.025h-0.034V7.218c-0.001-0.004-0.001-0.007,0-0.01
	c0.003-0.016,0.018-0.027,0.034-0.024c0.001-0.026,0.013-0.051,0.035-0.068c0.002-0.026,0.013-0.05,0.033-0.067V6.922
	c-0.001-0.025-0.013-0.049-0.033-0.066L37.5,6.822c-0.017-0.037-0.039-0.071-0.067-0.101c-0.035-0.004-0.069-0.016-0.101-0.033
	H35.195z"/>
<linearGradient id="shape2_2_" gradientUnits="userSpaceOnUse" x1="463.2275" y1="-264.9512" x2="422.4457" y2="-264.9512" gradientTransform="matrix(1 0 0 -1 -374.96 -242.6602)">
	<stop  offset="2.300000e-007" style="stop-color:#5D3F1C"/>
	<stop  offset="1" style="stop-color:#865524"/>
</linearGradient>
<path id="shape2_1_" fill="url(#shape2_2_)" d="M77.714,31.251c-0.313,0-0.625-0.05-0.923-0.147
	c-0.297,0.099-0.608,0.147-0.921,0.147h-8.193c-0.185,0-0.447-0.009-0.77-0.075c-0.217,0.051-0.439,0.075-0.664,0.075h-2.664
	c-0.816,0-1.605-0.342-2.166-0.937c-0.078-0.086-0.15-0.174-0.219-0.267l-0.91,0.65c-0.503,0.36-1.1,0.552-1.725,0.552h-3.584
	c-0.717,0-1.402-0.264-1.935-0.719c-0.616,0.424-1.35,0.654-2.114,0.654c-0.75,0-1.478-0.222-2.104-0.642
	c-0.164-0.11-0.315-0.233-0.452-0.37c-1.021-1.021-1.363-2.423-0.92-3.753l0.044-0.128l0.08-0.203
	c-1.801-0.254-3.145-1.765-3.145-3.646V22.24c0-0.741,0.274-1.45,0.773-1.996l4.748-5.232c0.646-1.069,1.762-1.679,3.079-1.679h0.41
	c2.065,0,3.684,1.618,3.684,3.684c0,0-0.001,0.289-0.003,0.331c0.555-0.653,1.372-1.044,2.26-1.044h8.398
	c0.261,0,0.518,0.034,0.768,0.101c0.25-0.067,0.508-0.101,0.771-0.101h9.218c0.243,0,0.482,0.029,0.717,0.087
	c0.233-0.058,0.475-0.087,0.719-0.087h8.396c0.917,0,1.797,0.433,2.354,1.159c0.56,0.726,0.752,1.689,0.515,2.573l-0.407,1.532
	c-0.146,0.541-0.433,1.02-0.829,1.395c-0.014,0.188-0.045,0.372-0.094,0.555l-0.41,1.537c-0.075,0.282-0.192,0.551-0.346,0.799
	c0.168,0.532,0.185,1.109,0.04,1.656l-0.413,1.539c-0.347,1.297-1.524,2.202-2.866,2.202H77.714z M74.675,23.782l0.013-0.009h-0.794
	l-0.002,0.009H74.675z"/>
<path id="ACE" fill="#FFFFFF" d="M51.903,23.163h-3.79c-0.409,0-0.717-0.308-0.717-0.718c0-0.104,0-0.104,0-0.204l5.018-5.531
	c0.103-0.307,0.31-0.41,0.615-0.41h0.41c0.409,0,0.717,0.308,0.717,0.717c0,0.102,0,0.205,0,0.205l-2.458,3.584h4.402
	c0.615,0,0.31,1.127-0.103,1.639l-4.507,5.531c-0.309,0.308-0.717,0.308-1.023,0.104c-0.205-0.206-0.309-0.41-0.205-0.719
	L51.903,23.163L51.903,23.163L51.903,23.163z M59.38,19.271l0.409,0.41l-4.813,8.603h3.584l2.15-1.536h2.971l-0.103,1.536h2.663
	l1.536-9.013H59.38L59.38,19.271z M63.886,20.809l-0.104,3.482h-2.97l2.048-3.482H63.886L63.886,20.809z M67.677,28.284h8.191
	l0.613-2.15l-0.819,0.614h-5.733l1.74-5.941h6.452l0.409-1.535h-9.218l-2.355,7.988c-0.102,0.104-0.102,0.309-0.102,0.409
	c0,0.103,0,0.205,0.103,0.31c0.102,0.103,0.205,0.203,0.307,0.203C67.47,28.284,67.574,28.284,67.677,28.284L67.677,28.284
	L67.677,28.284z M79.966,19.271l0.311,0.612l-2.563,8.398h8.193l0.41-1.536h-5.122l0.717-2.458h4.711l0.41-1.537h-4.506l0.612-1.944
	h4.815l0.409-1.535H79.966L79.966,19.271z"/>
</svg>
