<?xml version="1.0" encoding="utf-8"?>
<!-- Generator: Adobe Illustrator 16.0.0, SVG Export Plug-In . SVG Version: 6.00 Build 0)  -->
<!DOCTYPE svg PUBLIC "-//W3C//DTD SVG 1.1//EN" "http://www.w3.org/Graphics/SVG/1.1/DTD/svg11.dtd">
<svg version="1.1" id="tc" xmlns="http://www.w3.org/2000/svg" xmlns:xlink="http://www.w3.org/1999/xlink" x="0px" y="0px"
	 width="92px" height="36px" viewBox="0 0 92 36" enable-background="new 0 0 92 36" xml:space="preserve">
<g id="shape1">
	<defs>
		<path id="SVGID_1_" d="M27.036,20.114c0.058-0.011,0.116-0.014,0.175-0.008c0.343,0.034,0.595,0.34,0.56,0.685
			c0.012,0.063,0.015,0.127,0.01,0.19c-0.036,0.375-0.369,0.652-0.745,0.615h-1.789c-0.064,0.007-0.129,0.004-0.192-0.009
			c-0.371-0.069-0.613-0.428-0.543-0.797c-0.005-0.058-0.004-0.116,0.007-0.175c0.062-0.34,0.388-0.564,0.728-0.502H27.036z
			 M17.993,24.275c-0.626-0.054-1.169-0.452-1.408-1.033V23.24c-0.26-0.584-0.212-1.26,0.127-1.803
			c0.108-0.249,0.272-0.47,0.479-0.646c0.239-0.187,0.496-0.35,0.768-0.484c0.677-0.246,1.415-0.28,2.112-0.097
			c0.519,0.01,0.984,0.327,1.182,0.807c0.16,0.308,0.206,0.662,0.128,0.999c-0.056,0.338-0.163,0.665-0.32,0.968
			c-0.331,0.411-0.73,0.761-1.183,1.031c-0.403,0.213-0.849,0.321-1.298,0.321C18.384,24.337,18.187,24.316,17.993,24.275
			 M35.633,9.379l-2.655,0.161v0.515c-0.011,0.062,0.013,0.125,0.063,0.162v0.547c-0.3,0.004-0.599,0.027-0.896,0.063
			c-0.425,0.021-0.884,0.032-1.374,0.032h-2.781c-0.421-0.074-0.85-0.106-1.277-0.095c-0.598-0.001-1.195,0.031-1.79,0.095
			c-0.554,0.043-1.066,0.076-1.535,0.097l-0.672,0.064h-0.156l-0.063,0.065c-0.075,0.102-0.109,0.229-0.096,0.354v0.87
			c0.001,0.322,0.033,0.786,0.096,1.387v0.097l0.063,0.161c0.519,0.069,1.041,0.103,1.564,0.099
			c0.638-0.042,1.237-0.099,1.791-0.162c0.596-0.064,1.108-0.128,1.535-0.193c0.262-0.061,0.529-0.104,0.798-0.13h0.991v0.808
			h-2.686c-0.084,0.022-0.154,0.081-0.191,0.161c-0.102,0.042-0.21,0.063-0.32,0.064c-0.316,0.157-0.67,0.224-1.023,0.193
			c-0.421,0.031-0.839,0.106-1.246,0.225h-0.065v0.195c-0.01,0.274-0.063,0.545-0.156,0.804c-0.106,0.364-0.191,0.634-0.256,0.805
			H14.66c-0.219-0.351-0.513-0.648-0.86-0.87c-0.134-0.15-0.313-0.253-0.511-0.291H5.681c-0.107,0.086-0.193,0.151-0.255,0.193
			c-0.039,0.05-0.095,0.085-0.156,0.098l-0.097,0.064l-0.062,0.063H4.276c-0.952-0.095-1.915-0.029-2.845,0.196
			c-0.292,0.062-0.533,0.267-0.639,0.547v2.128c0,0.958-0.053,1.916-0.157,2.868v3.708c-0.003,0.039-0.004,0.079-0.004,0.119v0.003
			c0.001,0.144,0.022,0.287,0.066,0.424c-0.001,0.008-0.001,0.017,0,0.024c0.006,0.046,0.049,0.079,0.095,0.073h0.229
			c0.249-0.08,0.506-0.134,0.766-0.161c0.349-0.035,0.693-0.111,1.024-0.225c0.335-0.014,0.669-0.068,0.991-0.161
			c0.207-0.062,0.423-0.095,0.639-0.098c0.277-0.025,0.555-0.025,0.831,0h1.277c0.354,0.111,0.718,0.188,1.087,0.226
			c0.164,0.017,0.319-0.074,0.383-0.226c0.106,0,0.17-0.087,0.192-0.259c0.042-0.216,0.148-0.903,0.319-2.063h4.194
			c0.224,0.119,0.428,0.271,0.606,0.452c0.304,0.308,0.624,0.598,0.96,0.87c0.268,0.351,0.566,0.674,0.894,0.968
			c0.393,0.173,0.799,0.313,1.214,0.42c0.661,0.128,1.385,0.247,2.174,0.354c0.738,0.143,1.485,0.239,2.236,0.289
			c0.506,0.091,1.028,0.036,1.503-0.161c0.223-0.154,0.381-0.383,0.448-0.644c0.192-0.387,0.32-0.8,0.383-1.226
			c0.106-0.424,0.181-0.854,0.224-1.289c0.021-0.388,0.031-0.721,0.031-0.999h0.255c0.031-0.039,0.078-0.063,0.127-0.064
			c0.564,0.38,1.211,0.622,1.886,0.709c0.494,0.067,0.995,0.022,1.467-0.135c0.363-0.075,0.696-0.254,0.959-0.516
			c0.196-0.104,0.37-0.247,0.512-0.419c0.205-0.141,0.457-0.196,0.703-0.157v2.323l7.317-0.773v-2.256
			c0.224-0.139,0.475-0.227,0.736-0.26c0.489-0.128,1.001-0.269,1.535-0.419c0.554-0.17,1.043-0.312,1.469-0.419
			c0.491-0.147,0.757-0.226,0.8-0.226l6.2,0.065c-0.331,0.154-0.689,0.243-1.055,0.258c-0.29-0.196-0.644-0.276-0.991-0.225h-0.096
			c-0.03-0.005-0.06-0.005-0.089,0c-0.186,0.024-0.316,0.195-0.292,0.382c-0.168,0.396-0.144,0.849,0.065,1.225
			c0.122,0.329,0.26,0.652,0.415,0.969l0.157,0.16h1.281l0.157-0.482l-0.225-0.227c-0.038-0.05-0.094-0.084-0.157-0.097
			c-0.011-0.128,0.05-0.252,0.157-0.323h13.106c0.103,0,0.157-0.128,0.157-0.385v-0.097c0-0.065,0.021-0.098,0.063-0.098
			c0.053-0.076,0.076-0.168,0.064-0.259c0.03-0.287-0.075-0.574-0.287-0.772l-0.352-0.355V17.18h-2.492v-0.581h33.944l0.095-0.161
			c0.207-0.261,0.339-0.572,0.384-0.902c-0.003-0.145-0.036-0.287-0.097-0.418c-0.042-0.109-0.084-0.215-0.128-0.322
			c-0.064-0.128-0.116-0.248-0.163-0.356v-0.131H38.253v-0.738c0.51-0.064,1.024-0.074,1.534-0.032
			c0.307-0.008,0.611,0.047,0.896,0.161v-0.126c0.277,0.257,2.354,0.386,6.232,0.386h0.191l-0.064-3.676l-0.128-0.096
			c-0.333-0.137-0.697-0.183-1.054-0.13c-0.598,0.043-1.247,0.098-1.949,0.162c-0.682,0.085-1.375,0.161-2.077,0.224
			c-0.516,0.043-1.027,0.119-1.535,0.226h-4.635v-0.162c0.094,0.008,0.184-0.043,0.225-0.128c0.05-0.007,0.089-0.047,0.095-0.098
			l-0.319-0.901H35.633z"/>
	</defs>
	<clipPath id="SVGID_2_">
		<use xlink:href="#SVGID_1_"  overflow="visible"/>
	</clipPath>
	
		<linearGradient id="SVGID_3_" gradientUnits="userSpaceOnUse" x1="0.9971" y1="36.9316" x2="1.7793" y2="36.9316" gradientTransform="matrix(116.0061 0 0 116.0061 -114.9758 -4266.2417)">
		<stop  offset="2.300000e-007" style="stop-color:#ECD6B9"/>
		<stop  offset="1" style="stop-color:#B5691F"/>
	</linearGradient>
	<rect x="0.631" y="9.379" clip-path="url(#SVGID_2_)" fill="url(#SVGID_3_)" width="90.744" height="17.271"/>
</g>
</svg>
