<?xml version="1.0" encoding="utf-8"?>
<!-- Generator: Adobe Illustrator 16.0.0, SVG Export Plug-In . SVG Version: 6.00 Build 0)  -->
<!DOCTYPE svg PUBLIC "-//W3C//DTD SVG 1.1//EN" "http://www.w3.org/Graphics/SVG/1.1/DTD/svg11.dtd">
<svg version="1.1" id="case1" xmlns="http://www.w3.org/2000/svg" xmlns:xlink="http://www.w3.org/1999/xlink" x="0px" y="0px"
	 width="92px" height="36px" viewBox="0 0 92 36" enable-background="new 0 0 92 36" xml:space="preserve">

<linearGradient id="m4a1_silencer_1_" gradientUnits="userSpaceOnUse" x1="0.625" y1="17.625" x2="91.875" y2="17.625">
	<stop  offset="2.300000e-007" style="stop-color:#F0D9BA"/>
	<stop  offset="1" style="stop-color:#BB6B17"/>
</linearGradient>
<path id="m4a1_silencer" fill="url(#m4a1_silencer_1_)" d="M91.875,11.07v3.401l-0.11,0.179L75.05,14.615l-0.039-0.645l0.329-0.036
	l0.038-0.251l-5.366-0.071V13.47l-2.226,0.036l-0.438,0.142l-3.868-0.036l0.767,0.143V14.4l-0.187,0.215l-0.838-0.037v0.287h-0.62
	v-1.075h0.147v-0.144l-2.374-0.071l-0.073,0.215l-0.073,0.537c-0.019,0.04-0.042,0.076-0.072,0.108
	c-0.05,0.048-0.117,0.075-0.186,0.071c-0.064-0.032-0.128-0.067-0.187-0.107l-0.146-0.072l0.036-0.502l-0.072-0.214h-0.467
	L59.099,14.4c-0.022,0.068-0.076,0.122-0.144,0.142l-0.147,0.108h-0.256l-0.219,0.465l-13.469,0.107l-0.254-0.142l-0.33-0.073
	l-0.694,0.25l-0.071-0.892l-0.659,0.037l0.037,0.572l-0.037,0.073c-0.022,0.067-0.06,0.128-0.11,0.178
	c-0.071,0.031-0.145,0.055-0.221,0.071l-0.11,0.036c-0.03-0.026-0.07-0.04-0.109-0.036c-0.096-0.001-0.183,0.056-0.22,0.144
	l-0.145,0.214l-0.073,0.143v3.044l0.218,0.072l0.037,0.251l-0.475,0.179v1.11c0.042,0.808,0.151,1.61,0.329,2.399
	c0.171,0.74,0.439,1.671,0.803,2.793c0.171,0.573,0.33,1.063,0.475,1.468l0.144,0.18l-5.508,1.505h-0.145v-0.144
	c-0.17-0.572-0.365-1.205-0.585-1.897c-0.414-1.433-0.693-2.495-0.838-3.188c-0.148-0.709-0.246-1.427-0.292-2.149l-0.073-0.931
	l-0.402,0.072l-0.511-0.072h-3.432l-1.131,0.106h-0.186c-0.142-0.008-0.284,0.03-0.402,0.109l-0.22,0.214l-0.801,1.504l0.4,0.466
	l-0.109,0.071c-0.176,0.061-0.347,0.133-0.513,0.215c-0.1,0.051-0.188,0.124-0.254,0.214l-0.074,0.109l-1.565,3.009
	c-0.047,0.088-0.06,0.189-0.036,0.286c0.046,0.105,0.108,0.201,0.187,0.286c0.042,0.044,0.091,0.08,0.145,0.109l-0.145,0.32
	l-5.146-1.181l4.635-7.88c0.051-0.103,0.088-0.211,0.11-0.323c0.096-0.201,0.122-0.428,0.073-0.645
	c-0.057-0.224-0.143-0.44-0.255-0.644c-0.115-0.16-0.25-0.304-0.401-0.43c-0.136-0.091-0.283-0.163-0.438-0.216l-1.167-0.036v0.145
	l-0.329,0.036l-0.04-1.971l-0.913-0.036l-0.037-0.323h-3.686l-0.876,0.645l-3.469,0.072v0.323l-3.03,0.037l0.038,1.861H9.859v0.753
	H8.834v-0.716l-3.431,2.113v-1.721l-4.34,1.935l-0.037,0.715l-0.037,0.107c-0.028,0.082-0.102,0.139-0.187,0.144
	c-0.078-0.004-0.141-0.065-0.146-0.144l-0.032-0.109l0.074-9.526h3.869c0.069,0.02,0.124,0.074,0.146,0.143
	c0.063,0.16,0.101,0.329,0.11,0.501l9.963,0.109c0.04,0.018,0.076,0.042,0.109,0.071c0.047,0.047,0.074,0.111,0.072,0.178
	l8.067,0.037l-0.037-0.323h0.949v-0.252l0.329-0.035l0.037,0.25l0.948-0.036v-0.429h0.95l0.074,0.072l2.445-3.833l0.109-0.142
	c0.072-0.101,0.175-0.177,0.293-0.214c0.108-0.076,0.233-0.125,0.364-0.143h0.22L41.874,7.74l0.36,0.071
	c0.235,0.062,0.449,0.186,0.62,0.358c0.137,0.193,0.259,0.397,0.364,0.609c0.052,0.119,0.099,0.227,0.146,0.323l-0.072,2.328
	l0.257-0.037l0.034-1.04l0.768,0.145v-0.251l0.255-0.037v-0.071c0.018-0.04,0.043-0.076,0.073-0.109
	c0.06-0.028,0.122-0.052,0.186-0.072l13.503,0.218l0.146,0.285v0.357l0.365,0.038l0.073,0.035c0.059,0.026,0.099,0.08,0.108,0.143
	c0.042,0.285,0.066,0.572,0.073,0.86h0.475l0.036-1.396l2.227-3.081l0.219-0.178c0.117-0.111,0.278-0.163,0.438-0.143
	c0.31,0.019,0.599,0.161,0.803,0.394c0.07,0.065,0.11,0.155,0.109,0.25c0.003,0.04-0.01,0.078-0.036,0.108l0.036,4.044h3.871
	l0.51,0.179l2.19-0.034v-0.146h5.365v-0.966h16.352L91.875,11.07z M62.638,9.78c-0.072-0.047-0.134-0.108-0.183-0.179
	c-0.023-0.071-0.072-0.227-0.146-0.466l-0.036-0.355l-0.838-0.072l-1.312,2.003l0.186,0.144h2.482l0.186-0.215V9.78H62.638z
	 M60.339,11.893h2.337l0.109-0.357H60.34L60.339,11.893L60.339,11.893z M41.943,8.314H31.468c-0.144,0.035-0.279,0.096-0.402,0.179
	c-0.121,0.095-0.23,0.203-0.328,0.322l-0.146,0.179l-0.583,1.396l0.218,0.214l11.646-0.073l0.145-0.036
	c0.106-0.028,0.205-0.076,0.292-0.143c0.301-0.21,0.468-0.565,0.438-0.931c0.01-0.335-0.142-0.655-0.409-0.859
	c-0.091-0.069-0.188-0.128-0.291-0.179L41.943,8.314z M4.13,15.046l-0.146-0.037h-2.7l-0.146,0.037
	c-0.064,0.053-0.104,0.13-0.109,0.214c0.009,0.083,0.065,0.153,0.145,0.179c0.033,0.03,0.07,0.054,0.11,0.072h2.739
	c0.047-0.023,0.086-0.061,0.11-0.108c0.057-0.044,0.096-0.107,0.109-0.179C4.237,15.149,4.195,15.082,4.13,15.046z M1.027,10.818
	v0.394h3.468c-0.002-0.085-0.015-0.169-0.038-0.251c0.002-0.067-0.042-0.126-0.108-0.143l-0.146-0.035L1.027,10.818z M34.571,17.659
	c-0.093-0.046-0.191-0.081-0.292-0.106h-1.387c-0.382,0.277-0.622,0.709-0.659,1.18c-0.016,0.285,0.076,0.567,0.257,0.788
	c0.091,0.116,0.202,0.212,0.329,0.287l-0.146,0.107c-0.175-0.094-0.335-0.215-0.475-0.357c-0.287-0.231-0.47-0.566-0.512-0.932
	c-0.016-0.259,0.035-0.519,0.146-0.752l0.145-0.321c-0.22,0.023-0.432,0.096-0.621,0.212c-0.427,0.266-0.656,0.76-0.582,1.257
	c0.04,0.339,0.209,0.647,0.475,0.86c0.127,0.13,0.275,0.239,0.437,0.324h3.286v-0.434c0.134-0.113,0.235-0.263,0.292-0.429
	c0.12-0.366,0.093-0.764-0.073-1.111C35.053,17.978,34.835,17.776,34.571,17.659z"/>
<linearGradient id="shape2_2_" gradientUnits="userSpaceOnUse" x1="462.7275" y1="-264.9512" x2="421.9457" y2="-264.9512" gradientTransform="matrix(1 0 0 -1 -374.96 -242.6602)">
	<stop  offset="2.300000e-007" style="stop-color:#5D3F1C"/>
	<stop  offset="1" style="stop-color:#865524"/>
</linearGradient>
<path id="shape2_1_" fill="url(#shape2_2_)" d="M77.214,31.251c-0.313,0-0.625-0.05-0.923-0.147
	c-0.297,0.099-0.608,0.147-0.921,0.147h-8.193c-0.185,0-0.447-0.009-0.77-0.075c-0.217,0.051-0.439,0.075-0.664,0.075h-2.664
	c-0.816,0-1.605-0.342-2.166-0.937c-0.078-0.086-0.15-0.174-0.219-0.267l-0.91,0.65c-0.503,0.36-1.1,0.552-1.725,0.552h-3.584
	c-0.717,0-1.402-0.264-1.935-0.719c-0.616,0.424-1.35,0.654-2.114,0.654c-0.75,0-1.478-0.222-2.104-0.642
	c-0.164-0.11-0.315-0.233-0.452-0.37c-1.021-1.021-1.363-2.423-0.92-3.753l0.044-0.128l0.08-0.203
	c-1.801-0.254-3.145-1.765-3.145-3.646V22.24c0-0.741,0.274-1.45,0.773-1.996l4.748-5.232c0.646-1.069,1.762-1.679,3.079-1.679h0.41
	c2.065,0,3.684,1.618,3.684,3.684c0,0-0.001,0.289-0.003,0.331c0.555-0.653,1.372-1.044,2.26-1.044h8.398
	c0.261,0,0.518,0.034,0.768,0.101c0.25-0.067,0.508-0.101,0.771-0.101h9.218c0.243,0,0.482,0.029,0.717,0.087
	c0.233-0.058,0.475-0.087,0.719-0.087h8.396c0.917,0,1.797,0.433,2.354,1.159c0.56,0.726,0.752,1.689,0.515,2.573l-0.407,1.532
	c-0.146,0.541-0.433,1.02-0.829,1.395c-0.014,0.188-0.045,0.372-0.094,0.555l-0.41,1.537c-0.075,0.282-0.192,0.551-0.346,0.799
	c0.168,0.532,0.185,1.109,0.04,1.656l-0.413,1.539c-0.347,1.297-1.524,2.202-2.866,2.202H77.214z M74.175,23.782l0.013-0.009h-0.794
	l-0.002,0.009H74.175z"/>
<path id="ACE" fill="#FFFFFF" d="M51.403,23.163h-3.79c-0.409,0-0.717-0.308-0.717-0.718c0-0.104,0-0.104,0-0.204l5.018-5.531
	c0.103-0.307,0.31-0.41,0.615-0.41h0.41c0.409,0,0.717,0.308,0.717,0.717c0,0.102,0,0.205,0,0.205l-2.458,3.584h4.402
	c0.615,0,0.31,1.127-0.103,1.639l-4.507,5.531c-0.309,0.308-0.717,0.308-1.023,0.104c-0.205-0.206-0.309-0.41-0.205-0.719
	L51.403,23.163L51.403,23.163L51.403,23.163z M58.88,19.271l0.409,0.41l-4.813,8.603h3.584l2.15-1.536h2.971l-0.103,1.536h2.663
	l1.536-9.013H58.88L58.88,19.271z M63.386,20.809l-0.104,3.482h-2.97l2.048-3.482H63.386L63.386,20.809z M67.177,28.284h8.191
	l0.613-2.15l-0.819,0.614h-5.733l1.74-5.941h6.452l0.409-1.535h-9.218l-2.355,7.988c-0.102,0.104-0.102,0.309-0.102,0.409
	c0,0.103,0,0.205,0.103,0.31c0.102,0.103,0.205,0.203,0.307,0.203C66.97,28.284,67.074,28.284,67.177,28.284L67.177,28.284
	L67.177,28.284z M79.466,19.271l0.311,0.612l-2.563,8.398h8.193l0.41-1.536h-5.122l0.717-2.458h4.711l0.41-1.537h-4.506l0.612-1.944
	h4.815l0.409-1.535H79.466L79.466,19.271z"/>
</svg>
