<?xml version="1.0" encoding="utf-8"?>
<!-- Generator: Adobe Illustrator 16.0.0, SVG Export Plug-In . SVG Version: 6.00 Build 0)  -->
<!DOCTYPE svg PUBLIC "-//W3C//DTD SVG 1.1//EN" "http://www.w3.org/Graphics/SVG/1.1/DTD/svg11.dtd">
<svg version="1.1" id="tc" xmlns="http://www.w3.org/2000/svg" xmlns:xlink="http://www.w3.org/1999/xlink" x="0px" y="0px"
	 width="92px" height="36px" viewBox="0 0 92 36" enable-background="new 0 0 92 36" xml:space="preserve">
<linearGradient id="shape1_1_" gradientUnits="userSpaceOnUse" x1="0.5415" y1="19.5127" x2="91.459" y2="19.5127">
	<stop  offset="2.300000e-007" style="stop-color:#ECD6B9"/>
	<stop  offset="1" style="stop-color:#B5691F"/>
</linearGradient>
<path id="shape1" fill="url(#shape1_1_)" d="M2.631,18.01l-0.455,2.312C1.161,19.405,1.313,18.635,2.631,18.01 M49.637,9.965
	l-0.651,0.173c0.018,0.05,0.024,0.103,0.021,0.154c0.004,0.128-0.048,0.25-0.14,0.339c-0.094,0.094-0.222,0.146-0.354,0.146
	c-0.13-0.002-0.259-0.053-0.352-0.146c-0.061-0.06-0.105-0.133-0.128-0.213l-0.574,0.118c0.012,0.039,0.018,0.079,0.018,0.12
	c0.003,0.13-0.051,0.254-0.145,0.341c-0.092,0.096-0.218,0.148-0.351,0.147c-0.133,0.003-0.26-0.049-0.351-0.147
	c-0.073-0.064-0.124-0.15-0.141-0.245l-0.52,0.083c0.011,0.037,0.016,0.075,0.015,0.114c0,0.13-0.052,0.253-0.145,0.343
	c-0.093,0.094-0.222,0.147-0.355,0.146c-0.132,0-0.259-0.052-0.353-0.146c-0.076-0.073-0.126-0.168-0.142-0.271l-0.577,0.084
	c0.007,0.031,0.01,0.062,0.01,0.092c-0.007,0.146-0.092,0.275-0.221,0.341c-0.158,0.103-0.346,0.155-0.535,0.147
	c-0.029,0-0.06-0.001-0.09-0.007l-0.474-0.94c-1.115,0.201-2.25,0.251-3.378,0.153c-5.255,1.154-10.654,1.511-16.015,1.058
	c-7.215-0.717-14.47,0.86-20.734,4.51c-2.932,1.328-3.217,3.189-0.853,5.581c0.384,2.545,0.959,3.873,1.728,3.987
	c3.042-3.132,7.697-4.072,11.717-2.363c0.464,0.304,1.081,0.222,1.449-0.193c0.681-0.636,1.486-1.128,2.365-1.442
	c0.912-0.335,1.875-0.511,2.847-0.52c1.013-0.008,2.021,0.155,2.978,0.48c1.005,0.34,1.94,0.856,2.763,1.527
	c0.167,0.143,0.376,0.229,0.597,0.243c0.174-0.001,0.335-0.094,0.422-0.243c0.731-1.074,1.794-1.88,3.026-2.291
	c1.226-0.413,2.537-0.514,3.811-0.293c1.308,0.196,2.558,0.672,3.663,1.396c1.093,0.688,1.983,1.656,2.575,2.804
	c0.099,0.228,0.268,0.418,0.483,0.546c0.181,0.098,0.395,0.117,0.59,0.051c0.277,1.643,0.704,2.69,1.284,3.144
	c0.199,0.189,0.491,0.241,0.743,0.13c0.295-0.175,0.517-0.452,0.624-0.777c0.255-0.606,0.564-1.42,0.929-2.439
	c0.193-0.587,0.417-1.164,0.669-1.728c0.137-0.358,0.398-0.655,0.735-0.839c0.382-0.09,0.784,0,1.092,0.244l1.637-0.164
	c1.762-0.101,3.527-0.105,5.29-0.019c0.429,0.017,1.846,0.092,4.262,0.228c2.03,0.112,3.751,0.188,5.161,0.231
	c3.678,0.157,7.365,0.019,11.022-0.41c3.551-0.623,6.961-1.881,10.065-3.712c1.664-0.897,3.271-1.896,4.808-2.995
	c-2.041-0.592-4.527-1.208-7.456-1.85c-5.083-1.168-10.251-1.939-15.456-2.305c-0.4-0.021-2.553-0.102-6.454-0.246
	c-2.449-0.089-4.298-0.215-5.546-0.38c-1.575-0.231-3.125-0.595-4.638-1.091L49.637,9.965z"/>
</svg>
