<?xml version="1.0" encoding="utf-8"?>
<!-- Generator: Adobe Illustrator 16.0.0, SVG Export Plug-In . SVG Version: 6.00 Build 0)  -->
<!DOCTYPE svg PUBLIC "-//W3C//DTD SVG 1.1//EN" "http://www.w3.org/Graphics/SVG/1.1/DTD/svg11.dtd">
<svg version="1.1" id="tc" xmlns="http://www.w3.org/2000/svg" xmlns:xlink="http://www.w3.org/1999/xlink" x="0px" y="0px"
	 width="92px" height="36px" viewBox="0 0 92 36" enable-background="new 0 0 92 36" xml:space="preserve">
<linearGradient id="shape1_1_" gradientUnits="userSpaceOnUse" x1="0.667" y1="18" x2="91.5" y2="18">
	<stop  offset="2.300000e-007" style="stop-color:#ECD6B9"/>
	<stop  offset="1" style="stop-color:#B5691F"/>
</linearGradient>
<path id="shape1" fill="url(#shape1_1_)" d="M65.557,15.254c0.156-0.007,0.307,0.054,0.415,0.167c0.255,0.261,0.255,0.677,0,0.938
	c-0.109,0.114-0.257,0.185-0.415,0.201h-0.064H42.746c-0.146-0.021-0.283-0.092-0.382-0.201c-0.255-0.26-0.255-0.679,0-0.938
	c0.096-0.108,0.237-0.17,0.382-0.167H65.557z M47.818,14.215c-0.17-0.001-0.334-0.074-0.447-0.201
	c-0.127-0.108-0.197-0.269-0.191-0.434c-0.001-0.176,0.068-0.345,0.191-0.469c0.112-0.128,0.276-0.201,0.447-0.201
	c0.163-0.003,0.316,0.07,0.414,0.201c0.125,0.125,0.195,0.292,0.193,0.469c0.005,0.166-0.066,0.326-0.193,0.434
	c-0.095,0.125-0.244,0.201-0.401,0.201C47.826,14.215,47.822,14.215,47.818,14.215 M36.805,14.212
	c-0.342-0.009-0.609-0.294-0.6-0.634c-0.002-0.17,0.054-0.335,0.161-0.469c0.114-0.128,0.275-0.201,0.446-0.201h0.033
	c0.16,0.005,0.311,0.078,0.414,0.201c0.124,0.125,0.193,0.293,0.192,0.469c0.005,0.166-0.065,0.326-0.192,0.434
	c-0.104,0.123-0.255,0.196-0.416,0.201h-0.031C36.808,14.213,36.807,14.213,36.805,14.212 M39.044,14.012
	c-0.125-0.108-0.196-0.269-0.19-0.434c-0.001-0.175,0.067-0.344,0.19-0.469c0.101-0.109,0.236-0.18,0.383-0.201h6.541
	c0.163-0.005,0.317,0.071,0.415,0.201c0.125,0.125,0.194,0.293,0.191,0.469l0,0c0.006,0.167-0.063,0.326-0.191,0.434
	c-0.099,0.129-0.252,0.204-0.415,0.201h-6.541C39.275,14.211,39.133,14.136,39.044,14.012 M35.959,12.268l-2.938,1.541l-0.255-0.264
	c0.005-0.167-0.064-0.327-0.191-0.436c-0.098-0.129-0.251-0.205-0.415-0.201c-0.171,0.001-0.334,0.074-0.448,0.201
	c-0.118,0.102-0.187,0.25-0.19,0.404c-0.005-0.154-0.074-0.301-0.191-0.404c-0.098-0.129-0.253-0.205-0.416-0.201
	c-0.169,0.003-0.329,0.076-0.441,0.202c-0.111,0.119-0.18,0.273-0.195,0.436c0.006-0.161-0.051-0.317-0.16-0.436
	c-0.017-0.018-0.034-0.035-0.052-0.052c-0.246-0.217-0.624-0.195-0.841,0.052c-0.111,0.119-0.179,0.273-0.193,0.436
	c0.007-0.161-0.051-0.317-0.158-0.436c-0.016-0.018-0.033-0.035-0.051-0.052c-0.247-0.217-0.625-0.195-0.842,0.052
	c-0.108,0.119-0.166,0.275-0.159,0.436c-0.014-0.163-0.081-0.316-0.191-0.436c-0.016-0.018-0.034-0.035-0.052-0.052
	c-0.247-0.217-0.623-0.195-0.841,0.052c-0.108,0.119-0.166,0.275-0.159,0.436c-0.014-0.163-0.082-0.317-0.193-0.436
	c-0.016-0.018-0.034-0.036-0.052-0.052c-0.247-0.217-0.623-0.195-0.841,0.052c-0.1,0.112-0.157,0.255-0.16,0.404
	c-0.005-0.155-0.073-0.301-0.19-0.404c-0.017-0.018-0.035-0.036-0.052-0.052c-0.247-0.217-0.624-0.195-0.84,0.052
	c-0.101,0.11-0.158,0.252-0.16,0.4c-0.006-0.153-0.075-0.297-0.192-0.4c-0.107-0.135-0.274-0.209-0.447-0.201
	c-0.163-0.005-0.317,0.071-0.415,0.201c-0.119,0.103-0.188,0.249-0.192,0.404c-0.004-0.155-0.074-0.301-0.191-0.404
	c-0.099-0.13-0.252-0.204-0.416-0.201c-0.172-0.008-0.339,0.065-0.446,0.201c-0.119,0.103-0.188,0.25-0.192,0.407
	c-0.003-0.157-0.072-0.305-0.191-0.407c-0.098-0.13-0.251-0.204-0.414-0.201c-0.171,0-0.333,0.072-0.447,0.201
	c-0.12,0.104-0.189,0.254-0.192,0.411c-0.004-0.157-0.072-0.306-0.191-0.411c-0.098-0.13-0.253-0.204-0.416-0.201
	c-0.171,0-0.333,0.072-0.446,0.201c-0.11,0.12-0.177,0.273-0.191,0.436c0.007-0.178-0.064-0.352-0.196-0.472
	c-0.247-0.227-0.63-0.211-0.857,0.036c-0.109,0.12-0.176,0.273-0.19,0.436c0.006-0.161-0.052-0.317-0.161-0.436
	c-0.017-0.018-0.033-0.035-0.051-0.052c-0.248-0.217-0.625-0.195-0.842,0.052c-0.109,0.119-0.167,0.275-0.161,0.436
	c-0.014-0.163-0.081-0.316-0.19-0.436c-0.123-0.138-0.302-0.212-0.486-0.201c-0.333,0.018-0.586,0.303-0.567,0.637
	c-0.014-0.163-0.081-0.316-0.191-0.436c-0.016-0.018-0.034-0.035-0.052-0.052c-0.247-0.217-0.623-0.195-0.842,0.052
	c-0.099,0.11-0.155,0.252-0.158,0.4c-0.006-0.153-0.074-0.299-0.192-0.4c-0.017-0.018-0.033-0.035-0.052-0.052
	c-0.246-0.217-0.623-0.195-0.841,0.052c-0.102,0.11-0.159,0.253-0.161,0.402c-0.006-0.155-0.075-0.3-0.191-0.402
	c-0.114-0.128-0.276-0.201-0.447-0.201c-0.164-0.005-0.317,0.071-0.415,0.201c-0.115,0.103-0.183,0.247-0.188,0.399
	c-0.005-0.153-0.074-0.298-0.19-0.4c-0.099-0.129-0.254-0.205-0.417-0.201c-0.174-0.01-0.343,0.065-0.453,0.202
	c-0.119,0.104-0.187,0.25-0.191,0.407c-0.004-0.157-0.073-0.303-0.191-0.407c-0.098-0.13-0.252-0.206-0.416-0.201
	c-0.17,0-0.332,0.072-0.445,0.201c-0.118,0.103-0.187,0.249-0.191,0.404c-0.005-0.155-0.074-0.301-0.192-0.404
	c-0.098-0.13-0.252-0.206-0.415-0.201c-0.171,0-0.334,0.072-0.447,0.201c-0.11,0.12-0.177,0.273-0.191,0.436
	c0.007-0.161-0.051-0.317-0.159-0.436c-0.016-0.018-0.034-0.035-0.052-0.052c-0.247-0.217-0.622-0.195-0.841,0.052
	c-0.109,0.12-0.177,0.273-0.19,0.436c0.006-0.161-0.051-0.317-0.16-0.436c-0.017-0.018-0.034-0.035-0.052-0.052
	c-0.247-0.217-0.624-0.195-0.842,0.052c-0.109,0.119-0.167,0.275-0.161,0.436c-0.014-0.163-0.082-0.316-0.191-0.436
	c-0.123-0.137-0.301-0.211-0.484-0.201c-0.333,0.018-0.588,0.303-0.57,0.637l-0.254,0.467l-3.318,2.18v2.58l2.869,2.246l0.353,0.939
	c0.004,0.162,0.072,0.32,0.191,0.434c0.099,0.131,0.252,0.205,0.415,0.201c0.171,0,0.334-0.074,0.448-0.201
	c0.118-0.113,0.186-0.271,0.19-0.434c0.001,0.158,0.057,0.311,0.159,0.434c0.016,0.018,0.034,0.035,0.052,0.053
	c0.247,0.217,0.623,0.193,0.841-0.053c0.119-0.113,0.186-0.271,0.192-0.434c0.001,0.158,0.056,0.311,0.158,0.434
	c0.017,0.018,0.034,0.035,0.052,0.053c0.247,0.217,0.624,0.193,0.841-0.053c0.103-0.125,0.168-0.275,0.191-0.434
	c0,0.158,0.058,0.311,0.159,0.434c0.017,0.018,0.035,0.035,0.052,0.053c0.246,0.217,0.623,0.193,0.84-0.053
	c0.103-0.125,0.169-0.273,0.192-0.434c0,0.158,0.057,0.311,0.159,0.434c0.016,0.018,0.034,0.035,0.053,0.053
	c0.246,0.217,0.622,0.193,0.839-0.053c0.102-0.123,0.158-0.275,0.159-0.434c0.022,0.158,0.089,0.309,0.191,0.434
	c0.017,0.018,0.034,0.035,0.052,0.053c0.246,0.217,0.624,0.193,0.841-0.053c0.102-0.123,0.158-0.275,0.159-0.434
	c0.022,0.158,0.088,0.309,0.191,0.434c0.114,0.127,0.277,0.201,0.448,0.201c0.163,0.004,0.317-0.072,0.414-0.201
	c0.119-0.113,0.188-0.27,0.192-0.434c0.005,0.162,0.073,0.32,0.191,0.434c0.114,0.127,0.276,0.201,0.447,0.201
	c0.162,0.004,0.317-0.07,0.416-0.201c0.119-0.113,0.187-0.271,0.191-0.434c0.005,0.162,0.073,0.32,0.192,0.434
	c0.108,0.135,0.274,0.209,0.447,0.201c0.163,0.004,0.317-0.07,0.416-0.201c0.119-0.113,0.188-0.271,0.191-0.434
	c0.004,0.162,0.072,0.32,0.191,0.434c0.098,0.131,0.251,0.205,0.414,0.201c0.171,0,0.333-0.074,0.447-0.201
	c0.119-0.113,0.187-0.271,0.192-0.434c0,0.158,0.056,0.313,0.158,0.434c0.017,0.018,0.034,0.035,0.051,0.053
	c0.247,0.217,0.625,0.193,0.842-0.053c0.118-0.113,0.187-0.271,0.191-0.434c0.001,0.158,0.059,0.311,0.161,0.434
	c0.016,0.018,0.033,0.035,0.051,0.053c0.247,0.217,0.625,0.193,0.842-0.053c0.102-0.125,0.167-0.275,0.19-0.434
	c0.001,0.158,0.057,0.311,0.159,0.434c0.016,0.018,0.033,0.035,0.052,0.053c0.247,0.217,0.623,0.193,0.841-0.053
	c0.102-0.125,0.168-0.275,0.19-0.434c0.002,0.158,0.058,0.311,0.16,0.434c0.017,0.018,0.034,0.035,0.052,0.053
	c0.246,0.217,0.624,0.193,0.841-0.053c0.103-0.123,0.159-0.275,0.161-0.434c0.022,0.158,0.088,0.309,0.19,0.434
	c0.017,0.018,0.034,0.035,0.051,0.053c0.247,0.217,0.625,0.193,0.842-0.053c0.102-0.123,0.157-0.275,0.158-0.434
	c0.023,0.158,0.089,0.309,0.192,0.434c0.114,0.127,0.276,0.201,0.446,0.201c0.164,0.004,0.317-0.07,0.416-0.201
	c0.119-0.113,0.188-0.27,0.191-0.434c0.004,0.164,0.073,0.32,0.192,0.434c0.114,0.127,0.276,0.201,0.447,0.201
	c0.163,0.004,0.317-0.07,0.416-0.201c0.118-0.113,0.186-0.271,0.191-0.434c0.003,0.162,0.072,0.32,0.19,0.434
	c0.108,0.135,0.274,0.209,0.447,0.201c0.163,0.004,0.317-0.07,0.415-0.201c0.12-0.113,0.187-0.271,0.191-0.434
	c0.005,0.162,0.075,0.32,0.193,0.434c0.098,0.131,0.253,0.205,0.416,0.201c0.171,0,0.333-0.074,0.447-0.201
	c0.12-0.113,0.187-0.271,0.192-0.434c0.002,0.158,0.058,0.311,0.16,0.434c0.017,0.018,0.034,0.035,0.052,0.053
	c0.247,0.217,0.623,0.193,0.841-0.053c0.119-0.113,0.188-0.27,0.192-0.434c0.002,0.158,0.059,0.311,0.159,0.434
	c0.017,0.018,0.033,0.035,0.052,0.053c0.246,0.217,0.624,0.193,0.841-0.053c0.102-0.125,0.168-0.275,0.19-0.434
	c0.001,0.158,0.058,0.311,0.159,0.434c0.015,0.018,0.033,0.035,0.051,0.053c0.248,0.217,0.624,0.193,0.842-0.053
	c0.103-0.125,0.168-0.275,0.192-0.434c0.001,0.158,0.057,0.313,0.16,0.434c0.016,0.018,0.034,0.035,0.052,0.053
	c0.248,0.217,0.623,0.193,0.842-0.053c0.102-0.123,0.157-0.275,0.158-0.434l0.192,0.334v0.906l0.319,0.535h0.86l0.128-0.168v-2.18
	h2.137l0.574,1.709h40.417L91.5,15.789l-21.98-2.08H51.749l-2.902-1.442H35.959z"/>
</svg>
