<?xml version="1.0" encoding="utf-8"?>
<!-- Generator: Adobe Illustrator 16.0.0, SVG Export Plug-In . SVG Version: 6.00 Build 0)  -->
<!DOCTYPE svg PUBLIC "-//W3C//DTD SVG 1.1//EN" "http://www.w3.org/Graphics/SVG/1.1/DTD/svg11.dtd">
<svg version="1.1" id="tc" xmlns="http://www.w3.org/2000/svg" xmlns:xlink="http://www.w3.org/1999/xlink" x="0px" y="0px"
	 width="92px" height="36px" viewBox="0 0 92 36" enable-background="new 0 0 92 36" xml:space="preserve">
<linearGradient id="shape1_1_" gradientUnits="userSpaceOnUse" x1="1.791" y1="18.3945" x2="90.208" y2="18.3945">
	<stop  offset="2.300000e-007" style="stop-color:#ECD6B9"/>
	<stop  offset="1" style="stop-color:#B5691F"/>
</linearGradient>
<path id="shape1" fill="url(#shape1_1_)" d="M47.028,21.384c-0.256-0.14-0.427-0.397-0.455-0.687
	c-0.023-0.402,0.146-0.79,0.455-1.047c0.251-0.184,0.554-0.279,0.863-0.273h4.227c0.32,0.015,0.633,0.108,0.908,0.273
	c0.23,0.298,0.345,0.67,0.32,1.047c-0.01,0.264-0.125,0.51-0.32,0.687c-0.268,0.189-0.582,0.302-0.908,0.32h-4.227
	c-0.006,0-0.015,0-0.021,0C47.559,21.704,47.262,21.59,47.028,21.384 M22.165,13.633c0.092-0.01,0.186-0.009,0.279,0.007
	c0.539,0.087,0.903,0.596,0.813,1.133c0.006,0.23-0.095,0.451-0.274,0.594c-0.216,0.214-0.513,0.329-0.817,0.319h-1.999
	c-0.264,0.003-0.515-0.115-0.684-0.319c-0.201-0.13-0.322-0.354-0.318-0.594c-0.018-0.32,0.098-0.634,0.318-0.866
	c0.181-0.182,0.429-0.282,0.684-0.274H22.165z M6.798,20.154c-0.347-0.108-0.669-0.278-0.953-0.503c0-0.182-0.017-0.593-0.048-1.231
	c-0.061-0.668-0.091-1.367-0.091-2.098c-0.03-0.728-0.091-1.443-0.182-2.143c-0.029-0.666-0.045-1.213-0.045-1.639
	c0.36,0.071,0.727,0.103,1.092,0.091c0.487,0.034,0.973,0.094,1.453,0.18l0.004-0.001c0.541,0.026,1.076,0.133,1.585,0.32
	c0.459,0.098,0.915,0.22,1.362,0.364c0.818,0.212,1.5,0.394,2.045,0.549c0.42,0.096,0.848,0.156,1.278,0.18
	c0.151,0.424,0.317,0.912,0.499,1.459c0.155,0.457,0.247,0.932,0.271,1.414c-0.001,0.304-0.114,0.596-0.319,0.82
	c-0.303,0.185-0.726,0.413-1.271,0.687l-1.818,0.819c-0.635,0.245-1.241,0.457-1.817,0.64c-0.485,0.178-0.988,0.298-1.501,0.365
	C7.817,20.418,7.295,20.326,6.798,20.154 M43.348,6.384h18.313V6.89H43.348V6.384z M83.298,2.417
	c-0.282,0.035-0.557,0.114-0.814,0.234h-0.365c-0.268,0.054-0.499,0.219-0.64,0.454c-0.076,0.263-0.168,0.522-0.271,0.775
	c0,0.123-0.015,0.245-0.045,0.364c-0.034,0.212-0.049,0.425-0.045,0.639c-0.272,0.376-0.595,0.714-0.958,1.003
	c-0.455,0.426-0.834,0.761-1.136,1.004H62.35V5.746h-1.271V5.153h-1.228v0.593h-0.732V5.153h-1.363v0.593h-0.771V5.153h-1.228v0.593
	h-1.001V5.153h-1.228v0.593h-0.999V5.153h-1.182v0.593h-1.001V5.153h-1.228v0.593h-0.818V5.153H47.12v0.593h-0.864V5.153h-1.272
	v0.592H42.62v1.146h-0.181V4.973l-0.271-0.545h-1.093c-0.159-0.062-0.311-0.139-0.456-0.229c-0.055-0.037-0.119-0.053-0.184-0.045
	C40.4,4.188,40.351,4.204,40.3,4.199c-0.087,0.03-0.179,0.046-0.273,0.046c-0.297-0.06-0.757-0.12-1.362-0.182
	c-0.462-0.114-0.949-0.049-1.364,0.182c-0.515,0.518-1.045,1.081-1.591,1.687c-0.347,0.395-0.726,0.76-1.134,1.093
	c-0.091,0.069-0.205,0.101-0.32,0.089c-0.168,0.083-0.358,0.114-0.546,0.09C33.096,7.245,32.494,7.4,31.936,7.66
	c-0.124,0.073-0.263,0.12-0.406,0.136c-0.167,0.13-0.351,0.238-0.546,0.32l-0.959,0.685c-0.187,0.107-0.381,0.197-0.583,0.271
	c-0.394,0.092-0.82,0.212-1.271,0.364c-0.419,0.067-0.83,0.174-1.229,0.32c-0.327,0.062-0.647,0.153-0.958,0.272H7.481
	c-0.816,0.03-1.59,0.045-2.317,0.045c-0.694,0.03-1.316,0.046-1.864,0.046c-0.306,0.015-0.61,0.061-0.908,0.136
	c-0.35,0.095-0.592,0.412-0.59,0.775c-0.028,0.382,0.003,0.767,0.091,1.14c0.001,0.291,0.032,0.582,0.09,0.867
	c0.031,0.303,0.046,0.607,0.046,0.912v2.186c0.176,0.575,0.252,1.177,0.227,1.779v5.562c0.017,0.225,0.114,0.435,0.272,0.595
	c0.282,0.152,0.591,0.245,0.909,0.272c0.424,0.031,0.802,0.046,1.136,0.046c0.367-0.027,0.731-0.073,1.093-0.138
	c0.271-0.026,0.437-0.045,0.499-0.045h0.092l23.501-8.349c0.307-0.11,0.634-0.156,0.958-0.135c0.455-0.032,0.909-0.032,1.363,0
	c0.473-0.001,0.945,0.046,1.41,0.135c0.337,0.022,0.671,0.067,1,0.137c0.292-0.002,0.582,0.029,0.864,0.09
	c0.337,0.042,0.671,0.102,1,0.182l1.91,0.73c0.751,0.149,1.353,0.716,1.544,1.458c0.166,0.472,0.274,0.96,0.32,1.458
	c-1.028,1.823-1.862,3.267-2.501,4.332c-0.605,1.095-1.044,1.931-1.319,2.509c-0.332,0.576-0.528,0.942-0.589,1.093
	c-0.077,0.158-0.125,0.326-0.137,0.501c0.213,0.344,0.511,0.624,0.863,0.822c0.485,0.304,1.031,0.624,1.635,0.959
	c0.639,0.364,1.215,0.696,1.729,1.003c0.545,0.243,0.909,0.411,1.092,0.499c0.358,0.081,0.732,0.017,1.042-0.181
	c0.154-0.215,0.183-0.364,0.094-0.456V29.99c0.038-0.272,0.131-0.537,0.271-0.773c0.169-0.469,0.367-0.926,0.592-1.369
	c0.303-0.452,0.559-0.863,0.772-1.229c0.081-0.256,0.221-0.489,0.409-0.683c0.084-0.042,0.178-0.059,0.271-0.046
	c0.05-0.004,0.099,0.013,0.138,0.046l0.501-0.502h-0.138c-0.005-0.112-0.037-0.222-0.091-0.32c-0.059-0.122-0.151-0.32-0.271-0.591
	c0.16-0.641,0.472-1.235,0.909-1.732c0.334,0.221,0.681,0.418,1.043,0.589c0.395,0.193,0.806,0.345,1.229,0.459
	c0.411,0.191,0.864,0.271,1.317,0.228h2.219c0.67,0,1.339-0.046,2.001-0.138c0.375-0.015,0.743-0.092,1.092-0.229
	c0.13-0.098,0.251-0.202,0.362-0.32c0.119-0.114,0.212-0.254,0.273-0.408c0.092-0.151,0.212-0.333,0.364-0.545
	c0.149-0.206,0.354-0.362,0.591-0.456c0.166-0.137,0.378-0.201,0.591-0.183c0.229-0.002,0.458-0.017,0.685-0.046
	c0.277,0,0.595-0.015,0.958-0.046h1.228c0,0.035,0.082,0.387,0.266,1.053c0.183,0.664,0.378,1.563,0.592,2.688
	c0.304,1.123,0.605,2.384,0.908,3.784c0.333,1.323,0.652,2.706,0.958,4.148c-0.004,0.015-0.004,0.031,0,0.043l0.227,0.96h0.77
	c0.078-0.025,0.155-0.053,0.229-0.09c0.106-0.002,0.215-0.017,0.319-0.046c0.103-0.031,0.212-0.046,0.319-0.044
	c0.484-0.031,0.954-0.045,1.409-0.045c0.078-0.025,0.153-0.055,0.226-0.092c0.109-0.002,0.216-0.019,0.319-0.046
	c0.104-0.033,0.211-0.048,0.319-0.046c0.241-0.031,0.485-0.046,0.729-0.046c0.077-0.024,0.151-0.054,0.227-0.089
	c0.107-0.003,0.215-0.02,0.319-0.046c0.104-0.031,0.211-0.046,0.319-0.044c0.073-0.027,0.149-0.042,0.227-0.046
	c-0.021-0.108-0.045-0.214-0.066-0.32c-0.145-0.668-0.289-1.321-0.432-1.962c-0.333-1.244-0.622-2.505-0.863-3.782
	c-0.272-1.217-0.5-2.326-0.685-3.329c-0.211-1.002-0.409-1.822-0.591-2.461c-0.097-0.345-0.173-0.694-0.228-1.049l0.5-0.274
	c0.086-0.035,0.179-0.05,0.271-0.043c-0.121-0.669-0.21-1.277-0.271-1.826c-0.092-0.487-0.182-0.945-0.273-1.368
	c-0.092-0.423-0.167-0.759-0.228-1.002h1.866c0.403-0.082,0.788-0.236,1.137-0.456c0.388-0.273,0.8-0.519,1.227-0.729v0.324
	c-0.026,0.15-0.042,0.303-0.045,0.455c-0.025,0.136-0.041,0.272-0.045,0.411h2.771c0.154-0.001,0.31-0.032,0.453-0.092
	c0.093-0.004,0.185-0.019,0.272-0.045h0.451c0.054,0.037,0.118,0.054,0.183,0.045c0.053,0.044,0.116,0.075,0.182,0.092l0.684-0.137
	h0.088c0,0.031,0.044,0.045,0.136,0.045c0.091,0.071,0.205,0.104,0.319,0.092c0.151,0.044,0.291,0.123,0.409,0.226
	c0.145,0.047,0.252,0.169,0.272,0.32c0.075-0.01,0.146,0.026,0.183,0.092c0.062,0.028,0.121,0.06,0.183,0.09l0.229,0.269
	c0.101,0.097,0.192,0.204,0.271,0.319c0.09,0.079,0.201,0.126,0.319,0.136c-0.03,0.124-0.076,0.35-0.136,0.685
	c-0.116,0.525-0.191,1.06-0.229,1.597c-0.031,0.696-0.09,1.641-0.183,2.826c-0.061,1.246-0.167,2.813-0.319,4.695l0.182,0.138v0.181
	c0.016,0.274,0.047,0.55,0.092,0.822c-0.03,0.249,0.053,0.501,0.228,0.685c0.131,0.127,0.252,0.264,0.363,0.409v0.092
	c0.347,0.276,0.787,0.408,1.229,0.364c0.412-0.013,0.822-0.059,1.227-0.138h0.179l0.14-0.229c0.007-0.175,0.053-0.346,0.136-0.501
	c0.059-0.215,0.151-0.489,0.271-0.822c0.063-0.364,0.139-0.849,0.229-1.456c0.03-0.427,0.06-0.959,0.091-1.598v-6.109
	c-0.055-0.408-0.086-0.817-0.091-1.23V17.46c0.095-0.224,0.251-0.413,0.454-0.546c0.244-0.17,0.524-0.281,0.817-0.32h0.089
	l0.14-0.136c0.069-0.109,0.188-0.178,0.319-0.182c0.393,0.286,0.885,0.4,1.363,0.319h1.498l0.229-0.73V15.09l0.089-0.045
	c0.045-0.013,0.08-0.047,0.094-0.092c0.085-0.035,0.179-0.05,0.271-0.044c0.287-0.05,0.518-0.264,0.592-0.547
	c0.094-0.232,0.139-0.481,0.134-0.73c0.172,0.081,0.358,0.126,0.548,0.136h0.271c0.145-0.068,0.296-0.113,0.454-0.136
	c0.147-0.055,0.3-0.1,0.455-0.137c0.26-0.007,0.518-0.038,0.771-0.091c0.345-0.018,0.684-0.095,1.001-0.227
	c0.229-0.076,0.401-0.266,0.454-0.501c0.031-0.119,0.046-0.242,0.046-0.365c0-0.123-0.015-0.245-0.046-0.365
	c-0.059-0.233-0.135-0.463-0.228-0.686c-0.085-0.136-0.133-0.292-0.137-0.455l-0.09-0.181l-2.5-0.045h-0.274
	c-0.149,0.032-0.301,0.048-0.454,0.045h-0.271c-0.086-0.174-0.146-0.358-0.182-0.549C86,9.931,85.92,9.799,85.801,9.712V8.252
	c-0.153-0.555-0.273-1.118-0.363-1.687c-0.15-0.546-0.288-0.989-0.409-1.323c-0.116-0.09-0.198-0.219-0.229-0.364
	c-0.013-0.218-0.059-0.432-0.134-0.636c-0.144-0.466-0.375-0.9-0.684-1.278C83.867,2.673,83.607,2.463,83.298,2.417z"/>
</svg>
