<?xml version="1.0" encoding="utf-8"?>
<!-- Generator: Adobe Illustrator 16.0.0, SVG Export Plug-In . SVG Version: 6.00 Build 0)  -->
<!DOCTYPE svg PUBLIC "-//W3C//DTD SVG 1.1//EN" "http://www.w3.org/Graphics/SVG/1.1/DTD/svg11.dtd">
<svg version="1.1" id="case1" xmlns="http://www.w3.org/2000/svg" xmlns:xlink="http://www.w3.org/1999/xlink" x="0px" y="0px"
	 width="92px" height="36px" viewBox="0 0 92 36" enable-background="new 0 0 92 36" xml:space="preserve">

<linearGradient id="knifegg_1_" gradientUnits="userSpaceOnUse" x1="0.9961" y1="14.875" x2="90.002" y2="14.875">
	<stop  offset="2.300000e-007" style="stop-color:#F0D9BA"/>
	<stop  offset="1" style="stop-color:#BB6B17"/>
</linearGradient>
<path id="knifegg" fill="url(#knifegg_1_)" d="M59.805,10.906h12.777l7.162,0.662c5.111,0.743,8.53,1.834,10.258,3.273
	c-1.943,1.649-5.194,2.787-9.755,3.416c-2.448,0.293-4.911,0.455-7.378,0.488H59.805c-0.072-0.488-0.204-0.731-0.396-0.731
	s-0.324,0.243-0.396,0.731H58.94c-0.071-0.488-0.203-0.731-0.396-0.731c-0.191,0-0.324,0.245-0.396,0.731h-0.359
	c-0.059-0.457-0.477-0.779-0.934-0.722c-0.377,0.048-0.674,0.345-0.722,0.722h-0.359c-0.071-0.488-0.203-0.731-0.396-0.731
	s-0.324,0.245-0.396,0.731H54.91c-0.071-0.488-0.203-0.731-0.396-0.731c-0.192,0-0.323,0.245-0.396,0.731h-0.359
	c-0.059-0.414-0.409-0.725-0.827-0.731c-0.407,0.036-0.742,0.333-0.828,0.731h-0.325c0.009-0.306-0.158-0.59-0.431-0.731
	c-0.192,0-0.324,0.243-0.396,0.731h-0.035c-0.072-0.488-0.204-0.731-0.396-0.731c-0.273,0.141-0.441,0.425-0.432,0.731h-0.364
	c-0.05-0.404-0.386-0.714-0.793-0.731c-0.418,0.007-0.769,0.317-0.827,0.731h-0.358c-0.071-0.488-0.203-0.731-0.395-0.731
	c-0.193,0-0.324,0.245-0.396,0.731h-0.07c-0.072-0.488-0.204-0.731-0.396-0.731c-0.192,0-0.324,0.243-0.396,0.731h-3.057
	c-0.25-0.181-0.556-0.267-0.864-0.243c-0.455,0.186-0.779,0.313-0.972,0.384l-0.646,0.064v0.487l-1.911,5.327l-2.158-0.591
	c0.369-0.512,0.593-1.112,0.647-1.741c0.144-1.301-0.491-2.334-1.906-3.101c-2.053-0.344-4.151-0.309-6.191,0.104
	c-0.6,0.185-3.851,0.243-9.754,0.173c-6.166-0.069-9.514-0.313-10.042-0.729c-0.306-0.098-0.637-0.086-0.935,0.035l-0.289,0.208
	c-1.514,1.304-2.438,1.956-2.773,1.956c-1.344,0.12-2.6-0.682-3.057-1.951c-0.394-1.048-0.612-2.153-0.647-3.272H1.464
	c-0.312-0.003-0.468-0.272-0.468-0.806c0-0.534,0.156-0.801,0.468-0.801h0.071c-0.057-1.045,0.249-2.078,0.864-2.925
	c0.414-0.482,0.914-0.884,1.474-1.185C4.334,9.979,4.825,9.92,5.312,9.964c0.483,0.019,0.958,0.125,1.403,0.314
	c0.047,0.022,0.443,0.255,1.187,0.696c0.144,0.023,1.919-0.139,5.327-0.487c2.795-0.323,5.609-0.439,8.421-0.348
	c7.201,0.325,11.378,0.466,12.529,0.421c1.376-0.17,2.669-0.753,3.708-1.672c0.87-1.138,1.428-2.482,1.619-3.902l1.978,0.418
	l0.107,1.15l-0.899,2.542l-0.106,1.742l0.647,0.278c0.288,0.121,0.59,0.203,0.899,0.244c0.392-0.058,0.763-0.212,1.079-0.449h2.877
	c-0.027,0.301,0.129,0.589,0.396,0.732c0.193,0,0.323-0.245,0.396-0.732h0.071c-0.026,0.301,0.13,0.589,0.396,0.732
	c0.252-0.158,0.403-0.438,0.396-0.735h0.36c0.099,0.391,0.428,0.681,0.827,0.731c0.388-0.062,0.699-0.351,0.791-0.731h0.396
	c-0.026,0.301,0.129,0.589,0.396,0.731c0.25-0.157,0.401-0.436,0.396-0.731h0.035c-0.005,0.296,0.146,0.574,0.397,0.731
	c0.191,0,0.323-0.244,0.395-0.731h0.396c0.052,0.447,0.455,0.767,0.903,0.715c0.376-0.043,0.672-0.34,0.715-0.715h0.359
	c-0.004,0.296,0.146,0.573,0.396,0.731c0.194,0,0.326-0.244,0.396-0.731h0.072c-0.026,0.301,0.13,0.589,0.396,0.731
	c0.193,0,0.324-0.244,0.396-0.731h0.396c0.033,0.438,0.415,0.766,0.853,0.732c0.392-0.029,0.703-0.341,0.732-0.732h0.397
	c0.096,0.487,0.228,0.731,0.396,0.731c0.191,0,0.323-0.244,0.396-0.731h0.071c-0.026,0.301,0.128,0.589,0.396,0.731
	C59.657,11.48,59.809,11.203,59.805,10.906z"/>
<linearGradient id="shape2_2_" gradientUnits="userSpaceOnUse" x1="462.7275" y1="-264.9512" x2="421.9457" y2="-264.9512" gradientTransform="matrix(1 0 0 -1 -374.96 -242.6602)">
	<stop  offset="2.300000e-007" style="stop-color:#5D3F1C"/>
	<stop  offset="1" style="stop-color:#865524"/>
</linearGradient>
<path id="shape2_1_" fill="url(#shape2_2_)" d="M77.214,31.251c-0.313,0-0.625-0.05-0.923-0.147
	c-0.297,0.099-0.608,0.147-0.921,0.147h-8.193c-0.185,0-0.447-0.009-0.77-0.075c-0.217,0.051-0.439,0.075-0.664,0.075h-2.664
	c-0.816,0-1.605-0.342-2.166-0.937c-0.078-0.086-0.15-0.174-0.219-0.267l-0.91,0.65c-0.503,0.36-1.1,0.552-1.725,0.552h-3.584
	c-0.717,0-1.402-0.264-1.935-0.719c-0.616,0.424-1.35,0.654-2.114,0.654c-0.75,0-1.478-0.222-2.104-0.642
	c-0.164-0.11-0.315-0.233-0.452-0.37c-1.021-1.021-1.363-2.423-0.92-3.753l0.044-0.128l0.08-0.203
	c-1.801-0.254-3.145-1.765-3.145-3.646V22.24c0-0.741,0.274-1.45,0.773-1.996l4.748-5.232c0.646-1.069,1.762-1.679,3.079-1.679h0.41
	c2.065,0,3.684,1.618,3.684,3.684c0,0-0.001,0.289-0.003,0.331c0.555-0.653,1.372-1.044,2.26-1.044h8.398
	c0.261,0,0.518,0.034,0.768,0.101c0.25-0.067,0.508-0.101,0.771-0.101h9.218c0.243,0,0.482,0.029,0.717,0.087
	c0.233-0.058,0.475-0.087,0.719-0.087h8.396c0.917,0,1.797,0.433,2.354,1.159c0.56,0.726,0.752,1.689,0.515,2.573l-0.407,1.532
	c-0.146,0.541-0.433,1.02-0.829,1.395c-0.014,0.188-0.045,0.372-0.094,0.555l-0.41,1.537c-0.075,0.282-0.192,0.551-0.346,0.799
	c0.168,0.532,0.185,1.109,0.04,1.656l-0.413,1.539c-0.347,1.297-1.524,2.202-2.866,2.202H77.214z M74.175,23.782l0.013-0.009h-0.794
	l-0.002,0.009H74.175z"/>
<path id="ACE" fill="#FFFFFF" d="M51.403,23.163h-3.79c-0.409,0-0.717-0.308-0.717-0.718c0-0.104,0-0.104,0-0.204l5.018-5.531
	c0.103-0.307,0.31-0.41,0.615-0.41h0.41c0.409,0,0.717,0.308,0.717,0.717c0,0.102,0,0.205,0,0.205l-2.458,3.584h4.402
	c0.615,0,0.31,1.127-0.103,1.639l-4.507,5.531c-0.309,0.308-0.717,0.308-1.023,0.104c-0.205-0.206-0.309-0.41-0.205-0.719
	L51.403,23.163L51.403,23.163L51.403,23.163z M58.88,19.271l0.409,0.41l-4.813,8.603h3.584l2.15-1.536h2.971l-0.103,1.536h2.663
	l1.536-9.013H58.88L58.88,19.271z M63.386,20.809l-0.104,3.482h-2.97l2.048-3.482H63.386L63.386,20.809z M67.177,28.284h8.191
	l0.613-2.15l-0.819,0.614h-5.733l1.74-5.941h6.452l0.409-1.535h-9.218l-2.355,7.988c-0.102,0.104-0.102,0.309-0.102,0.409
	c0,0.103,0,0.205,0.103,0.31c0.102,0.103,0.205,0.203,0.307,0.203C66.97,28.284,67.074,28.284,67.177,28.284L67.177,28.284
	L67.177,28.284z M79.466,19.271l0.311,0.612l-2.563,8.398h8.193l0.41-1.536h-5.122l0.717-2.458h4.711l0.41-1.537h-4.506l0.612-1.944
	h4.815l0.409-1.535H79.466L79.466,19.271z"/>
</svg>
