<?xml version="1.0" encoding="utf-8"?>
<!-- Generator: Adobe Illustrator 16.0.0, SVG Export Plug-In . SVG Version: 6.00 Build 0)  -->
<!DOCTYPE svg PUBLIC "-//W3C//DTD SVG 1.1//EN" "http://www.w3.org/Graphics/SVG/1.1/DTD/svg11.dtd">
<svg version="1.1" id="tc" xmlns="http://www.w3.org/2000/svg" xmlns:xlink="http://www.w3.org/1999/xlink" x="0px" y="0px"
	 width="92px" height="36px" viewBox="0 0 92 36" enable-background="new 0 0 92 36" xml:space="preserve">
<linearGradient id="shape1_1_" gradientUnits="userSpaceOnUse" x1="0.8335" y1="19.0225" x2="91.167" y2="19.0225">
	<stop  offset="2.300000e-007" style="stop-color:#ECD6B9"/>
	<stop  offset="1" style="stop-color:#B5691F"/>
</linearGradient>
<path id="shape1" fill="url(#shape1_1_)" d="M32.704,21.184c-0.125-0.074-0.235-0.172-0.325-0.285
	c-0.18-0.219-0.27-0.498-0.254-0.779c0.036-0.467,0.274-0.893,0.652-1.168h1.373c0.1,0.023,0.196,0.061,0.29,0.105
	c0.262,0.115,0.478,0.314,0.613,0.568c0.165,0.342,0.191,0.736,0.073,1.098c-0.056,0.166-0.157,0.313-0.289,0.426v0.428h-3.252
	c-0.16-0.084-0.307-0.189-0.433-0.32c-0.263-0.211-0.431-0.516-0.469-0.852c-0.074-0.492,0.153-0.98,0.576-1.242
	c0.186-0.117,0.396-0.188,0.615-0.211l-0.144,0.316c-0.111,0.232-0.161,0.49-0.145,0.746c0.042,0.361,0.223,0.693,0.506,0.922
	c0.138,0.141,0.297,0.26,0.47,0.354L32.704,21.184z M1.375,16.858c-0.079-0.026-0.136-0.095-0.144-0.177
	c0.005-0.083,0.045-0.16,0.108-0.212l0.145-0.036h2.673l0.145,0.036c0.064,0.035,0.106,0.102,0.109,0.176
	c-0.013,0.07-0.051,0.134-0.108,0.177c-0.023,0.047-0.062,0.084-0.109,0.106H1.484C1.444,16.912,1.408,16.887,1.375,16.858
	 M59.947,12.994h2.422l-0.11,0.354h-2.312V12.994z M1.232,12.284l3.145-0.034l0.144,0.034c0.064,0.017,0.109,0.076,0.107,0.142
	c0.022,0.081,0.035,0.164,0.037,0.249H1.232V12.284z M59.735,12.177l1.298-1.983l0.83,0.071l0.036,0.352
	c0.071,0.236,0.12,0.39,0.144,0.461c0.047,0.07,0.11,0.13,0.181,0.177h0.336v0.851l-0.186,0.213h-2.455L59.735,12.177z
	 M29.922,11.861l0.578-1.383l0.145-0.177c0.096-0.118,0.205-0.225,0.325-0.32c0.122-0.081,0.256-0.141,0.398-0.176h10.37
	l0.103,0.069c0.102,0.049,0.199,0.109,0.289,0.177c0.264,0.202,0.414,0.518,0.405,0.85c0.03,0.363-0.135,0.714-0.433,0.922
	c-0.087,0.067-0.185,0.115-0.29,0.142L41.667,12l-11.529,0.072L29.922,11.861z M29.414,7.961c-0.129,0.018-0.253,0.067-0.36,0.143
	c-0.118,0.036-0.22,0.111-0.291,0.211l-0.107,0.14l-2.42,3.794l-0.073-0.071h-0.94v0.425l-0.938,0.035l-0.037-0.247l-0.325,0.034
	v0.249h-0.939l0.037,0.32l-7.986-0.037c0.001-0.066-0.025-0.13-0.072-0.176c-0.032-0.029-0.069-0.053-0.108-0.07L4.99,12.604
	c-0.01-0.171-0.046-0.337-0.109-0.496c-0.021-0.069-0.076-0.122-0.144-0.142h-3.83l-0.073,9.43l0.032,0.109
	c0.005,0.078,0.067,0.137,0.144,0.141c0.085-0.006,0.157-0.061,0.185-0.141l0.037-0.107l0.036-0.709l4.297-1.912v1.701l3.396-2.092
	v0.709h1.014v-0.744h2.094l-0.037-1.844l3-0.036v-0.32l3.434-0.072l0.867-0.638h3.648l0.037,0.32l0.903,0.035l0.04,1.951
	l0.325-0.035v-0.143l1.156,0.036c0.153,0.051,0.299,0.123,0.433,0.213c0.15,0.124,0.284,0.268,0.397,0.426
	c0.112,0.201,0.196,0.415,0.252,0.637c0.048,0.215,0.023,0.439-0.072,0.637c-0.022,0.111-0.059,0.219-0.109,0.32l-4.588,7.801
	l5.095,1.17l0.144-0.318c-0.053-0.029-0.102-0.064-0.144-0.107c-0.078-0.084-0.139-0.18-0.185-0.283
	c-0.023-0.096-0.011-0.197,0.036-0.283l1.55-2.98l0.073-0.105c0.065-0.09,0.152-0.164,0.252-0.213
	c0.164-0.082,0.334-0.154,0.507-0.213l0.108-0.07l-0.396-0.461l0.793-1.488l0.218-0.215c0.117-0.078,0.258-0.115,0.398-0.105h0.185
	l1.12-0.105h3.397l0.506,0.07l0.398-0.07l0.072,0.922c0.046,0.715,0.143,1.426,0.289,2.127c0.143,0.686,0.42,1.736,0.83,3.154
	c0.218,0.686,0.412,1.313,0.579,1.879v0.143h0.144l5.453-1.49l-0.143-0.178c-0.145-0.4-0.301-0.885-0.471-1.453
	c-0.36-1.109-0.625-2.031-0.794-2.766c-0.175-0.781-0.284-1.576-0.325-2.375v-1.1l0.47-0.176l-0.037-0.248l-0.216-0.072v-3.012
	l0.072-0.142l0.144-0.212c0.037-0.088,0.123-0.144,0.218-0.143c0.04-0.002,0.079,0.01,0.108,0.036l0.109-0.036
	c0.075-0.015,0.148-0.04,0.218-0.07c0.05-0.049,0.087-0.109,0.109-0.175l0.036-0.072l-0.036-0.567l0.651-0.037l0.072,0.883
	l0.686-0.248l0.328,0.071l0.252,0.141l13.333-0.106l0.216-0.461h0.254l0.145-0.106c0.068-0.021,0.122-0.074,0.144-0.141l0.038-0.78
	h0.461l0.071,0.211l-0.035,0.497l0.144,0.072c0.06,0.039,0.121,0.075,0.186,0.106c0.066,0.003,0.135-0.023,0.184-0.071
	c0.028-0.031,0.054-0.067,0.072-0.107l0.071-0.531l0.072-0.212l2.35,0.069v0.143h-0.145v1.064h0.612v-0.284l0.83,0.036l0.186-0.212
	v-0.639l-0.76-0.142l3.829,0.035l0.435-0.14l2.203-0.036v0.141l5.311,0.069l-0.035,0.25l-0.326,0.035l0.036,0.638l16.549,0.035
	l0.109-0.177v-3.367l-0.147-0.142H74.833v0.956h-5.312v0.144l-2.169,0.033l-0.504-0.177h-3.833l-0.036-4.004
	c0.026-0.03,0.039-0.068,0.036-0.107c0-0.094-0.038-0.185-0.108-0.248c-0.201-0.23-0.488-0.372-0.794-0.391
	c-0.158-0.02-0.316,0.032-0.434,0.142l-0.216,0.176l-2.204,3.05l-0.038,1.383h-0.468c-0.007-0.286-0.032-0.569-0.074-0.852
	c-0.009-0.063-0.048-0.116-0.107-0.142L58.5,12.321l-0.36-0.038v-0.353l-0.146-0.283l-13.366-0.216
	c-0.063,0.02-0.124,0.043-0.185,0.071c-0.027,0.032-0.052,0.068-0.07,0.108v0.07l-0.254,0.036v0.25l-0.76-0.144l-0.032,1.03
	l-0.256,0.036l0.071-2.305c-0.046-0.095-0.093-0.202-0.144-0.319c-0.104-0.21-0.226-0.412-0.361-0.602
	c-0.169-0.172-0.38-0.295-0.614-0.356l-0.357-0.07L29.631,7.961H29.414z"/>
</svg>
