<?xml version="1.0" encoding="utf-8"?>
<!-- Generator: Adobe Illustrator 16.0.0, SVG Export Plug-In . SVG Version: 6.00 Build 0)  -->
<!DOCTYPE svg PUBLIC "-//W3C//DTD SVG 1.1//EN" "http://www.w3.org/Graphics/SVG/1.1/DTD/svg11.dtd">
<svg version="1.1" id="tc" xmlns="http://www.w3.org/2000/svg" xmlns:xlink="http://www.w3.org/1999/xlink" x="0px" y="0px"
	 width="92px" height="36px" viewBox="0 0 92 36" enable-background="new 0 0 92 36" xml:space="preserve">
<linearGradient id="shape1_1_" gradientUnits="userSpaceOnUse" x1="0.6196" y1="16.5" x2="91.3809" y2="16.5">
	<stop  offset="2.300000e-007" style="stop-color:#ECD6B9"/>
	<stop  offset="1" style="stop-color:#B5691F"/>
</linearGradient>
<path id="shape1" fill="url(#shape1_1_)" d="M39.89,6.063c-0.192,1.492-0.761,2.91-1.653,4.122c-1.049,0.96-2.369,1.575-3.779,1.758
	c-1.176,0.051-5.433-0.095-12.771-0.438c-2.867-0.095-5.738,0.028-8.587,0.368c-3.475,0.368-5.287,0.539-5.435,0.51
	c-0.757-0.46-1.161-0.709-1.211-0.733c-0.452-0.198-0.937-0.309-1.43-0.331c-0.496-0.047-0.998,0.014-1.468,0.182
	c-0.575,0.32-1.085,0.745-1.504,1.252c-0.632,0.901-0.943,1.986-0.883,3.086H1.096c-0.317,0-0.477,0.278-0.477,0.845
	s0.159,0.847,0.477,0.847h0.073c0.036,1.179,0.259,2.345,0.66,3.456c0.442,1.323,1.732,2.172,3.122,2.056
	c0.345,0,1.284-0.685,2.827-2.056l0.291-0.221c0.303-0.126,0.642-0.139,0.954-0.035c0.54,0.437,3.953,0.694,10.242,0.768
	c6.019,0.075,9.335,0.015,9.947-0.182c2.078-0.437,4.219-0.476,6.312-0.112c1.294,0.548,2.083,1.873,1.947,3.272
	c-0.055,0.66-0.284,1.293-0.662,1.835l2.203,0.626l1.943-5.619v-0.516l0.66-0.073c0.196-0.08,0.529-0.211,0.991-0.405
	c0.315-0.026,0.629,0.065,0.883,0.255h3.115c0.075-0.513,0.21-0.768,0.404-0.768s0.329,0.254,0.402,0.768h0.076
	c0.073-0.513,0.207-0.768,0.404-0.768s0.332,0.254,0.407,0.768h0.362c0.054-0.429,0.412-0.755,0.846-0.768
	c0.42,0.022,0.761,0.349,0.807,0.768h0.368c-0.014-0.319,0.159-0.618,0.44-0.768c0.195,0,0.327,0.254,0.403,0.768h0.036
	c0.074-0.513,0.208-0.768,0.404-0.768c0.279,0.153,0.448,0.448,0.438,0.768h0.33c0.081-0.415,0.425-0.727,0.845-0.768
	c0.433,0.012,0.79,0.339,0.842,0.768h0.368c0.073-0.513,0.206-0.768,0.403-0.768c0.196,0,0.332,0.254,0.406,0.768h0.073
	c0.073-0.513,0.211-0.768,0.405-0.768s0.329,0.254,0.404,0.768h0.363c0.041-0.4,0.356-0.717,0.757-0.758
	c0.466-0.048,0.885,0.291,0.933,0.758h0.366c0.074-0.513,0.21-0.768,0.403-0.768s0.327,0.254,0.401,0.768h0.076
	c0.075-0.513,0.212-0.768,0.405-0.768c0.194,0,0.33,0.254,0.403,0.768h13.322c2.515-0.034,5.025-0.206,7.521-0.514
	c4.65-0.66,7.966-1.861,9.948-3.601c-1.762-1.519-5.248-2.671-10.461-3.454l-7.303-0.699H60.589c0.007,0.306-0.139,0.597-0.39,0.773
	c-0.275-0.154-0.436-0.457-0.405-0.773h-0.073c-0.074,0.514-0.209,0.773-0.402,0.773c-0.171,0-0.313-0.257-0.402-0.773H58.51
	c-0.015,0.426-0.356,0.769-0.782,0.783c-0.447,0.014-0.822-0.335-0.836-0.783h-0.406c-0.074,0.514-0.209,0.773-0.403,0.773
	c-0.175,0-0.306-0.257-0.406-0.773h-0.073c-0.073,0.514-0.209,0.773-0.406,0.773c-0.259-0.171-0.41-0.462-0.402-0.773h-0.368
	c-0.028,0.414-0.357,0.744-0.771,0.771c-0.455,0.03-0.849-0.315-0.879-0.771h-0.406c-0.073,0.514-0.207,0.773-0.399,0.773
	c-0.261-0.169-0.414-0.462-0.404-0.773h-0.037c0.006,0.31-0.146,0.6-0.402,0.773c-0.175,0-0.315-0.257-0.406-0.773h-0.405
	c-0.024,0.419-0.358,0.755-0.778,0.779c-0.457,0.026-0.848-0.323-0.874-0.779h-0.363c0.007,0.311-0.146,0.603-0.406,0.773
	c-0.171,0-0.304-0.257-0.404-0.773h-0.074c-0.074,0.514-0.209,0.773-0.402,0.773c-0.173,0-0.307-0.257-0.405-0.773h-2.939
	c-0.319,0.251-0.697,0.415-1.097,0.478c-0.315-0.043-0.624-0.13-0.917-0.255l-0.662-0.3l0.107-1.836l0.92-2.678l-0.108-1.214
	L39.89,6.063z"/>
</svg>
