<?xml version="1.0" encoding="utf-8"?>
<!-- Generator: Adobe Illustrator 16.0.0, SVG Export Plug-In . SVG Version: 6.00 Build 0)  -->
<!DOCTYPE svg PUBLIC "-//W3C//DTD SVG 1.1//EN" "http://www.w3.org/Graphics/SVG/1.1/DTD/svg11.dtd">
<svg version="1.1" id="tc" xmlns="http://www.w3.org/2000/svg" xmlns:xlink="http://www.w3.org/1999/xlink" x="0px" y="0px"
	 width="92px" height="36px" viewBox="0 0 92 36" enable-background="new 0 0 92 36" xml:space="preserve">
<linearGradient id="shape1_1_" gradientUnits="userSpaceOnUse" x1="1.833" y1="17.668" x2="91.167" y2="17.668">
	<stop  offset="2.300000e-007" style="stop-color:#ECD6B9"/>
	<stop  offset="1" style="stop-color:#B5691F"/>
</linearGradient>
<path id="shape1" fill="url(#shape1_1_)" d="M8.451,27.404c-0.199,0.28-0.453,0.518-0.748,0.697
	c-0.264,0.307-0.637,0.496-1.04,0.532c-0.441-0.364-0.808-0.809-1.083-1.313c0.275,0.504,0.642,0.948,1.083,1.313
	c0.403-0.036,0.775-0.226,1.04-0.532C7.998,27.923,8.252,27.685,8.451,27.404c0.012-0.031,0.016-0.062,0.016-0.093
	C8.467,27.343,8.463,27.373,8.451,27.404 M5.582,27.321c-0.215-0.407-0.456-0.814-0.708-1.226
	C5.125,26.507,5.361,26.914,5.582,27.321 M4.79,25.852l0.084,0.244L4.79,25.852z M4.791,25.835v0.005V25.835 M4.79,25.833
	c0.001,0.001,0.001,0.001,0.001,0.002C4.791,25.834,4.791,25.833,4.79,25.833C4.791,25.833,4.791,25.833,4.79,25.833 M4.79,25.836
	c0-0.001,0-0.002,0-0.003c-0.003-0.025-0.005-0.053-0.005-0.082C4.785,25.781,4.786,25.81,4.79,25.836 M4.785,25.751
	c0-0.049,0.007-0.098,0.02-0.146C4.792,25.653,4.785,25.702,4.785,25.751 M53.434,24.599c-0.03,0.021-0.058,0.042-0.086,0.063
	l0.001-0.001c0.034-0.027,0.067-0.053,0.104-0.077C53.447,24.588,53.439,24.594,53.434,24.599 M8.244,26.056
	c0.114,0.406,0.189,0.822,0.223,1.244c-0.034-0.422-0.108-0.839-0.223-1.246c-0.08-0.514-0.204-1.02-0.373-1.514
	C8.04,25.034,8.164,25.54,8.244,26.056 M55.085,24.412c-0.021-0.052-0.046-0.105-0.071-0.155
	C55.039,24.307,55.063,24.36,55.085,24.412 M7.413,24.129L7.413,24.129 M54.68,24.129c-0.44,0.042-0.866,0.2-1.227,0.455
	c0.361-0.254,0.786-0.409,1.227-0.45c0.126-0.029,0.26,0.019,0.337,0.123c-0.062-0.088-0.16-0.138-0.261-0.138
	C54.73,24.119,54.706,24.122,54.68,24.129 M51.64,22.578c0.214,0.045,0.436,0.047,0.651,0.004c-0.215,0.042-0.437,0.041-0.649-0.004
	H51.64L51.64,22.578z M52.291,22.582c0.061-0.013,0.122-0.027,0.183-0.046C52.413,22.555,52.352,22.569,52.291,22.582
	 M51.641,22.578L51.641,22.578c-0.091-0.022-0.178-0.054-0.261-0.094C51.463,22.524,51.55,22.556,51.641,22.578 M51.38,22.484
	c-0.066-0.031-0.127-0.068-0.186-0.11C51.253,22.416,51.313,22.453,51.38,22.484 M51.188,22.373
	c-0.093-0.069-0.177-0.148-0.25-0.238C51.012,22.225,51.096,22.304,51.188,22.373 M56.746,18.61
	c0.003-0.002,0.004-0.003,0.005-0.004c0.179-0.235,0.349-0.479,0.506-0.729c0-0.001,0-0.001,0-0.001
	C57.099,18.129,56.928,18.374,56.746,18.61 M54.883,15.464c0.033,0.03,0.065,0.059,0.099,0.088
	C54.948,15.523,54.917,15.494,54.883,15.464c-0.557-0.552-1.144-1.072-1.758-1.557C53.738,14.392,54.323,14.912,54.883,15.464
	 M52.183,10.592l-0.002-0.001L52.183,10.592z M4.915,10.592c-0.136-0.043-0.253-0.131-0.334-0.248
	C4.662,10.46,4.779,10.548,4.915,10.592 M7.693,11.231c0.011-0.051,0.023-0.108,0.037-0.172c0.043-0.198,0.102-0.465,0.173-0.802
	C7.808,10.7,7.736,11.026,7.693,11.231 M8.075,7.727C7.914,7.537,7.728,7.37,7.521,7.231C7.728,7.371,7.913,7.537,8.075,7.727
	 M5.208,8.299c-0.288,0.507-0.54,1.033-0.754,1.575c0.217-0.542,0.471-1.068,0.76-1.575c0.211-0.616,0.6-1.157,1.117-1.555
	C5.812,7.142,5.423,7.683,5.208,8.299 M7.657,24.177c-0.072-0.043-0.158-0.062-0.245-0.048c0.125-0.019,0.25,0.027,0.333,0.121
	c0.025,0.104,0.068,0.201,0.125,0.287c0.169,0.492,0.293,1,0.373,1.514c0.114,0.408,0.189,0.824,0.223,1.246
	c0.001,0.004,0.001,0.01,0.001,0.015c0-0.002,0-0.002,0-0.002s0,0,0,0.002c0.001,0.032-0.004,0.063-0.016,0.094
	c-0.199,0.28-0.453,0.518-0.748,0.698c-0.264,0.305-0.637,0.495-1.04,0.531c-0.441-0.364-0.808-0.81-1.083-1.312
	c-0.221-0.407-0.456-0.814-0.708-1.227L4.79,25.852h0.001V25.84C4.79,25.839,4.79,25.837,4.79,25.836c0,0.001,0,0.002,0,0.003
	v-0.004c-0.012-0.078-0.007-0.157,0.014-0.234c0.019-0.063,0.056-0.12,0.108-0.16c0.001-0.002,0.001-0.002,0.002-0.003
	c-0.051,0.041-0.087,0.098-0.105,0.16c0.018-0.063,0.056-0.119,0.107-0.16c0.362-0.243,0.751-0.5,1.167-0.771
	c0.377-0.312,0.842-0.499,1.33-0.538c-0.487,0.037-0.952,0.224-1.33,0.532c-0.017,0.012-0.035,0.023-0.052,0.034
	c0.015-0.01,0.032-0.021,0.048-0.031c0.38-0.311,0.846-0.498,1.334-0.535C7.499,24.115,7.585,24.133,7.657,24.177 M4.341,22.578
	c-0.315-0.085-0.586-0.291-0.753-0.571c-0.335-0.747-0.518-1.552-0.538-2.369c-0.082-0.57-0.124-1.146-0.125-1.723l0.04-2.004
	c-0.068-0.903,0.151-1.805,0.623-2.579c0.184-0.171,0.414-0.284,0.663-0.322c0.22-0.002,0.435,0.053,0.625,0.164
	c0.954,0.697,1.859,1.46,2.705,2.288c0.902,0.683,1.7,1.496,2.368,2.413c-0.58,0.919-1.31,1.734-2.16,2.412
	C7.01,21.14,6.13,21.896,5.17,22.538c-0.159,0.051-0.325,0.075-0.49,0.075C4.567,22.613,4.453,22.601,4.341,22.578 M7.659,11.422
	C7.659,11.423,7.659,11.423,7.659,11.422C7.659,11.423,7.659,11.423,7.659,11.422 M7.66,11.403c0,0.001,0,0.002,0,0.003
	C7.66,11.405,7.66,11.404,7.66,11.403 M7.661,11.385c0,0.001,0,0.002,0,0.003C7.661,11.387,7.661,11.386,7.661,11.385 M8.183,8.321
	L8.183,8.321 M8.182,8.298c0,0.007,0,0.015,0,0.022C8.182,8.313,8.182,8.306,8.182,8.298 M4.416,10.061
	c-0.002-0.064,0.01-0.128,0.035-0.187c0.215-0.542,0.467-1.068,0.753-1.575c0.215-0.617,0.607-1.158,1.127-1.555
	c0.25,0.018,0.492,0.081,0.719,0.185c0.067,0.032,0.133,0.065,0.196,0.104C7.35,7.096,7.43,7.162,7.521,7.231
	c-0.083-0.063-0.155-0.124-0.245-0.18c0.092,0.057,0.163,0.117,0.244,0.175c0.208,0.142,0.394,0.309,0.556,0.5
	c0.04,0.072,0.066,0.149,0.08,0.23c0.018,0.119,0.027,0.242,0.025,0.364C8.173,8.697,8.136,9.074,8.073,9.446
	c-0.064,0.303-0.12,0.574-0.17,0.81c0.048-0.227,0.103-0.484,0.164-0.772c-0.15,0.72-0.264,1.244-0.337,1.575
	c-0.025,0.119-0.046,0.212-0.063,0.281c0.008-0.032,0.016-0.068,0.025-0.109c-0.012,0.053-0.023,0.1-0.032,0.136
	c0.004,0.193-0.147,0.352-0.341,0.358c-0.054,0.001-0.108-0.012-0.158-0.035c-0.109,0.002-0.215-0.041-0.292-0.119l-1.955-0.98
	c-0.136-0.043-0.253-0.131-0.334-0.248C4.493,10.274,4.434,10.173,4.416,10.061L4.416,10.061 M6.16,4.863
	C5.356,5.848,4.685,6.932,4.162,8.092c-0.827,1.413-1.47,2.926-1.913,4.502c-0.253,1.157-0.392,2.337-0.417,3.52v1.879
	c0.026,0.817,0.069,1.676,0.124,2.576C2,21.812,2.239,23.042,2.666,24.212c0.582,1.146,1.124,2.193,1.624,3.151
	c0.971,1.853,1.691,2.903,2.162,3.146c0.096,0.044,0.201,0.067,0.313,0.07h0.047c0.426-0.01,0.957-0.306,1.594-0.889
	c0.469-0.443,0.889-0.937,1.251-1.469c0.334-0.445,0.47-1.009,0.374-1.556c-0.56-0.931-0.94-1.957-1.125-3.027
	c-0.046-0.66,0.01-1.322,0.167-1.966c0.145-0.669,0.611-1.221,1.248-1.473c0.726-0.383,1.555-0.525,2.367-0.407
	c0.905,0.202,1.714,0.707,2.29,1.434c0.541,0.485,0.966,1.086,1.246,1.758c0.03,0.214,0.082,0.708,0.167,1.473
	c0.061,0.399,0.145,0.794,0.251,1.185c0.044,0.123,0.133,0.224,0.249,0.286l0.333-0.206c0.188-0.199,0.33-0.436,0.418-0.696
	c0.135-0.225,0.219-0.475,0.252-0.735c0.259-0.181,0.56-0.292,0.875-0.322l0.33-0.041c0.277-0.026,0.57-0.066,0.871-0.122
	c0.225-0.055,1.434-0.163,3.624-0.324c2.637-0.214,5.175-0.528,7.614-0.939c3.05-0.534,6.015-1.469,8.821-2.779
	c1.274-0.579,2.553-1.219,3.828-1.929c-0.255-0.274-0.547-0.511-0.869-0.701c-0.36-0.19-0.846-0.478-1.457-0.861
	c-0.469-0.296-0.969-0.586-1.496-0.861c-1.418-0.774-2.928-1.364-4.494-1.757c-0.72-0.167-1.606-0.355-2.663-0.574
	c-1.166-0.216-1.9-0.369-2.204-0.451c-2.169-0.402-4.369-0.62-6.575-0.654l-4.701-0.29c0-0.109-0.108-0.162-0.33-0.162h-0.38
	c-0.195-0.02-0.38-0.09-0.539-0.205c-0.056-0.106-0.235-0.421-0.539-0.94c-0.306-0.462-0.475-0.709-0.501-0.736
	c-0.071,0-0.142,0.016-0.207,0.046c-0.091,0.104-0.148,0.234-0.164,0.371L16.4,11.691c-0.069,0.619-0.224,1.226-0.458,1.803
	c-0.435,0.895-1.13,1.64-1.996,2.133c-0.516,0.333-1.099,0.556-1.708,0.651c-0.437,0.047-0.878-0.009-1.292-0.163
	c-0.641-0.22-1.222-0.583-1.703-1.062c-0.246-0.327-0.417-0.704-0.499-1.105c-0.026-0.302-0.057-0.816-0.086-1.556
	c0.039-0.641,0.209-1.267,0.501-1.838c0.169-0.418,0.419-0.946,0.748-1.602c0.143-0.262,0.203-0.563,0.167-0.86
	C10,7.869,9.887,7.661,9.739,7.48C9.238,6.66,8.574,5.95,7.789,5.396c-0.572-0.427-1.01-0.639-1.316-0.639
	C6.346,4.757,6.243,4.793,6.16,4.863 M54.969,28.104C54.969,28.104,54.969,28.104,54.969,28.104c-0.029,0.035-0.06,0.068-0.09,0.101
	C54.909,28.173,54.939,28.14,54.969,28.104 M55.169,27.95c-0.056,0.043-0.108,0.085-0.171,0.131
	C55.061,28.033,55.112,27.99,55.169,27.95 M52.89,27.324c-0.248-0.407-0.498-0.815-0.753-1.227l-0.029-0.177l0.032,0.177
	c0.251,0.411,0.501,0.819,0.754,1.227c0.253,0.513,0.62,0.964,1.076,1.312c0,0-0.001,0-0.003,0
	C53.511,28.288,53.143,27.837,52.89,27.324 M54.68,24.129c0.126-0.033,0.26,0.017,0.336,0.123c0.047,0.093,0.089,0.188,0.123,0.285
	c0.206,0.483,0.346,0.992,0.416,1.514c0.052,0.196,0.095,0.397,0.128,0.598c-0.034-0.199-0.077-0.398-0.13-0.593
	c-0.07-0.521-0.21-1.03-0.416-1.513v-0.002c-0.016-0.043-0.032-0.085-0.052-0.129c0.02,0.044,0.035,0.087,0.051,0.131
	c0.206,0.482,0.347,0.992,0.416,1.514c0.067,0.251,0.12,0.506,0.155,0.764c0.025,0.193,0.042,0.389,0.049,0.585
	c-0.167,0.21-0.368,0.393-0.591,0.545c-0.063,0.05-0.126,0.098-0.199,0.154c-0.154,0.189-0.351,0.334-0.573,0.426
	c-0.133,0.056-0.275,0.089-0.421,0.104c-0.456-0.349-0.824-0.798-1.077-1.313c-0.248-0.407-0.499-0.814-0.754-1.226l-0.044-0.244
	c-0.066-0.141-0.033-0.306,0.081-0.41c0.391-0.246,0.779-0.506,1.167-0.777c0.001-0.001,0.002-0.001,0.003-0.002
	c-0.141,0.1-0.283,0.196-0.425,0.292c0.142-0.096,0.284-0.193,0.425-0.293c0.028-0.021,0.056-0.043,0.086-0.063
	C53.799,24.335,54.229,24.172,54.68,24.129 M55.44,15.965c0.703,0.535,1.317,1.178,1.816,1.909c0,0,0,0,0,0.001
	C56.758,17.144,56.145,16.5,55.44,15.965 M50.851,13.333c0.203-0.167,0.446-0.279,0.706-0.321c0.205,0.002,0.406,0.059,0.582,0.162
	c0.336,0.235,0.665,0.48,0.986,0.733c0.614,0.485,1.201,1.005,1.759,1.558c0.036,0.031,0.07,0.063,0.104,0.094
	c-0.002-0.002-0.004-0.004-0.007-0.007c0.162,0.146,0.314,0.283,0.458,0.416c0.704,0.535,1.318,1.179,1.817,1.909h0.001
	c0.011,0.096-0.158,0.339-0.507,0.729c-0.48,0.625-1.037,1.189-1.657,1.681c0.619-0.488,1.174-1.053,1.652-1.677
	c-0.36,0.403-0.912,0.96-1.653,1.676c-0.001,0-0.001,0-0.001,0.001h-0.001c-0.77,0.797-1.601,1.529-2.489,2.188
	c-0.042,0.027-0.086,0.047-0.132,0.063c-0.27,0.085-0.556,0.098-0.832,0.041c-0.161-0.037-0.313-0.109-0.447-0.204
	c-0.137-0.1-0.253-0.225-0.342-0.367c0,0,0-0.001-0.001-0.001c0.027,0.043,0.058,0.087,0.091,0.128
	c-0.033-0.041-0.062-0.085-0.09-0.128c-0.336-0.748-0.518-1.554-0.537-2.371v-0.002c-0.056-0.601-0.083-1.175-0.082-1.723l0.037-2
	c0-0.001,0-0.001,0-0.001c-0.015-0.14-0.021-0.281-0.019-0.421c-0.002,0.141,0.004,0.28,0.019,0.421
	c-0.072-0.781,0.07-1.563,0.412-2.263C50.731,13.541,50.788,13.437,50.851,13.333 M54.136,11.572l0.005,0.002
	c0.029,0.023,0.06,0.042,0.091,0.058C54.199,11.615,54.167,11.597,54.136,11.572 M51.859,10.358
	c0.028,0.034,0.058,0.064,0.087,0.093C51.916,10.423,51.887,10.392,51.859,10.358 M51.683,10.058c0.168-0.625,0.435-1.22,0.79-1.76
	c-0.355,0.541-0.621,1.137-0.788,1.762c0.031,0.089,0.078,0.174,0.136,0.249C51.762,10.234,51.715,10.148,51.683,10.058
	 M55.117,7.47c0.068,0.067,0.132,0.139,0.192,0.215C55.249,7.609,55.186,7.537,55.117,7.47 M54.95,7.32
	c0.005,0.003,0.011,0.006,0.016,0.01C54.961,7.326,54.955,7.323,54.95,7.32 M51.686,10.061c0.167-0.625,0.434-1.221,0.788-1.762
	c0.21-0.631,0.619-1.175,1.166-1.555c0.31,0.027,0.61,0.126,0.876,0.289c0.171,0.087,0.331,0.195,0.477,0.32
	c0.003,0.003,0.007,0.005,0.012,0.009c0.004,0.004,0.01,0.007,0.014,0.011c0.118,0.106,0.226,0.222,0.321,0.35
	c0.05,0.075,0.085,0.16,0.097,0.249c0.049,0.492,0.019,0.99-0.097,1.471c-0.223,1.038-0.347,1.678-0.372,1.923
	c0.004,0.193-0.152,0.351-0.344,0.355c-0.001,0-0.003,0-0.005,0c-0.052,0-0.102-0.011-0.148-0.033
	c-0.121-0.002-0.238-0.043-0.333-0.12l-1.954-0.978l0.025,0.012l-0.027-0.013l-0.001-0.001l-0.002-0.001
	c-0.04-0.01-0.078-0.026-0.114-0.048c-0.017-0.009-0.032-0.019-0.047-0.03c0.008,0.006,0.017,0.012,0.025,0.018
	c-0.01-0.007-0.02-0.013-0.028-0.021c-0.01-0.007-0.021-0.015-0.03-0.022c-0.047-0.04-0.091-0.085-0.132-0.134
	c-0.002-0.003-0.004-0.007-0.006-0.01c-0.004-0.005-0.009-0.01-0.013-0.015C51.771,10.245,51.719,10.156,51.686,10.061 M52.47,8.296
	c0.211-0.629,0.62-1.175,1.166-1.554c0.31,0.027,0.609,0.126,0.875,0.289c0.152,0.077,0.296,0.17,0.43,0.279
	c-0.133-0.108-0.275-0.201-0.427-0.277c-0.265-0.163-0.565-0.262-0.875-0.289c-0.547,0.379-0.955,0.924-1.166,1.555L52.47,8.296z
	 M53.762,4.756c-0.119,0.003-0.216,0.039-0.292,0.107c-0.805,0.984-1.479,2.069-1.998,3.229c-0.824,1.42-1.481,2.932-1.957,4.503
	c-0.224,1.161-0.349,2.337-0.374,3.519v1.879c0,0.817,0.04,1.676,0.122,2.576c0.016,1.246,0.255,2.48,0.708,3.643
	c0.556,1.146,1.096,2.193,1.624,3.151c0.973,1.853,1.693,2.903,2.162,3.146c0.097,0.044,0.201,0.067,0.313,0.07h0.048
	c0.422-0.01,0.941-0.306,1.558-0.889c0.472-0.453,0.904-0.944,1.291-1.469c0.342-0.44,0.465-1.015,0.331-1.556
	c-0.537-0.938-0.903-1.961-1.082-3.027c-0.048-0.659-0.005-1.318,0.124-1.966c0.152-0.679,0.64-1.231,1.291-1.473
	c0.713-0.381,1.528-0.523,2.327-0.407c0.921,0.191,1.745,0.697,2.33,1.434c0.525,0.491,0.937,1.091,1.208,1.758
	c0.096,0.485,0.166,0.978,0.208,1.473c0.031,0.403,0.116,0.802,0.251,1.185c0.044,0.123,0.133,0.226,0.248,0.286l0.291-0.206
	c0.197-0.199,0.354-0.436,0.458-0.696c0.109-0.235,0.193-0.482,0.251-0.735c0.254-0.193,0.559-0.304,0.876-0.322l0.334-0.04
	c0.252-0.027,0.538-0.066,0.872-0.123c0.223-0.054,1.43-0.162,3.621-0.322c2.635-0.215,5.159-0.53,7.573-0.944
	c4.469-0.828,8.761-2.421,12.688-4.708c-0.271-0.276-0.581-0.511-0.918-0.698c-0.333-0.19-0.803-0.478-1.412-0.861
	c-1.863-1.18-3.9-2.063-6.036-2.615c-0.692-0.167-1.581-0.354-2.659-0.574c-1.139-0.216-1.873-0.369-2.207-0.451
	c-2.155-0.401-4.34-0.619-6.533-0.655l-4.701-0.29c-0.059-0.125-0.197-0.192-0.332-0.16h-0.417
	c-0.181-0.023-0.353-0.095-0.498-0.204c-0.057-0.108-0.238-0.423-0.538-0.94c-0.306-0.463-0.473-0.71-0.501-0.736
	c-0.069-0.003-0.143,0.011-0.207,0.04c-0.092,0.103-0.15,0.233-0.164,0.371l-0.338,1.634c-0.097,0.614-0.25,1.217-0.46,1.803
	c-0.436,0.896-1.133,1.641-1.999,2.133c-0.53,0.34-1.127,0.563-1.75,0.651c-0.423,0.048-0.852-0.008-1.247-0.163
	c-0.642-0.22-1.226-0.583-1.706-1.062c-0.269-0.314-0.441-0.698-0.5-1.105c-0.067-0.515-0.095-1.036-0.082-1.556
	c0.036-0.641,0.207-1.267,0.498-1.838c0.167-0.41,0.416-0.945,0.753-1.597c0.146-0.263,0.202-0.564,0.168-0.861
	c-0.072-0.224-0.185-0.432-0.333-0.614C56.545,6.66,55.88,5.95,55.092,5.395c-0.561-0.418-0.993-0.63-1.296-0.639H53.762z"/>
</svg>
