<?xml version="1.0" encoding="utf-8"?>
<!-- Generator: Adobe Illustrator 16.0.0, SVG Export Plug-In . SVG Version: 6.00 Build 0)  -->
<!DOCTYPE svg PUBLIC "-//W3C//DTD SVG 1.1//EN" "http://www.w3.org/Graphics/SVG/1.1/DTD/svg11.dtd">
<svg version="1.1" id="tc" xmlns="http://www.w3.org/2000/svg" xmlns:xlink="http://www.w3.org/1999/xlink" x="0px" y="0px"
	 width="92px" height="36px" viewBox="0 0 92 36" enable-background="new 0 0 92 36" xml:space="preserve">
<linearGradient id="shape1_1_" gradientUnits="userSpaceOnUse" x1="20.9551" y1="18.0005" x2="71.0459" y2="18.0005">
	<stop  offset="2.300000e-007" style="stop-color:#ECD6B9"/>
	<stop  offset="1" style="stop-color:#B5691F"/>
</linearGradient>
<path id="shape1" fill="url(#shape1_1_)" d="M42.916,18.73c-0.096-0.194-0.176-0.399-0.241-0.605
	c-0.112-0.395-0.152-0.804-0.12-1.211c0.028-0.538,0.195-1.059,0.484-1.512c0.042-0.079,0.289-0.405,0.735-0.969
	c0.282-0.324,0.773-0.831,1.465-1.514l6.97-0.061l0.427,0.057c0.248,0.065,0.479,0.189,0.667,0.364
	c0.09,0.189,0.131,0.396,0.124,0.604v0.37l-0.917,2.544c-0.26,0.967-0.672,1.887-1.225,2.721c-0.89,0.143-1.79,0.203-2.691,0.184
	c-1.001,0.039-2.002-0.002-2.996-0.123c-0.433-0.148-0.894-0.189-1.344-0.121c-0.813,0-1.407-0.023-1.773-0.061
	c-0.571-0.105-1.115-0.334-1.59-0.666c-0.44-0.314-0.795-0.731-1.038-1.213c-0.247-0.531-0.291-1.134-0.123-1.695
	c0.137-0.592,0.431-1.134,0.855-1.571c0.459-0.398,1.003-0.687,1.589-0.848c0.319-0.111,0.647-0.191,0.981-0.241
	c-0.264,0.224-0.49,0.489-0.668,0.787c-0.513,0.644-0.833,1.419-0.917,2.239c-0.006,0.629,0.139,1.253,0.429,1.813
	c0.104,0.368,0.269,0.718,0.49,1.03L42.916,18.73z M65.541,0.751v1.635H52.696v0.183h-7.457V2.326H31.914l-0.369-0.301l-3.914-0.062
	l-0.978-0.544v1.029l-1.286,2.421l-0.794,3.933l-1.835-1.151l-0.31,1.584c-0.213-0.084-0.444-0.105-0.668-0.062
	c-0.387-0.05-0.74,0.22-0.798,0.604c-0.003,0.03-0.005,0.061-0.006,0.089v0.035c0.005,0.265,0.145,0.515,0.375,0.657
	c0.127,0.084,0.276,0.127,0.429,0.124l2.263,0.242L23.9,11.831c-0.076,0.46-0.097,0.927-0.065,1.391
	c0.043,0.249,0.241,0.444,0.491,0.484c0.245,0.082,0.773,0.26,1.592,0.543c0.576,0.156,1.116,0.422,1.589,0.787
	c0.328,0.285,0.45,0.74,0.305,1.151c-0.105,0.376-0.249,0.74-0.426,1.088c-0.531,1.046-0.818,1.637-0.858,1.754
	c-0.921,2.006-1.657,4.096-2.198,6.238c-0.545,2.27-0.934,4.574-1.161,6.898c-0.083,1.211-0.125,2.199-0.125,2.963L36.19,35.25
	l-0.676-0.973l0.124-1.445l3.116-13.072l0.429,0.117c0.372,0.041,0.748,0.002,1.104-0.117c0.445-0.086,0.75-0.143,0.915-0.184
	c0.309,0.016,0.613,0.059,0.915,0.123c0.552,0.078,1.088,0.242,1.589,0.48c0.314,0.1,0.622,0.221,0.919,0.363l6.358-0.242
	c0.334,0.002,0.666-0.059,0.976-0.18c0.273-0.15,0.489-0.385,0.616-0.668c1.466-3.513,2.279-5.49,2.439-5.93
	c0.108-0.26,0.276-0.489,0.491-0.667c0.063-0.072,0.152-0.115,0.248-0.122h13.88l0.121-2.059l0.308-0.242V9.406l-0.308-0.241V7.05
	h1.29V3.72H69.82V2.754l-0.426-0.547l-0.431,0.061V1.178l-0.367-0.427H65.541z"/>
</svg>
