<?xml version="1.0" encoding="utf-8"?>
<!-- Generator: Adobe Illustrator 16.0.0, SVG Export Plug-In . SVG Version: 6.00 Build 0)  -->
<!DOCTYPE svg PUBLIC "-//W3C//DTD SVG 1.1//EN" "http://www.w3.org/Graphics/SVG/1.1/DTD/svg11.dtd">
<svg version="1.1" id="case1" xmlns="http://www.w3.org/2000/svg" xmlns:xlink="http://www.w3.org/1999/xlink" x="0px" y="0px"
	 width="92px" height="36px" viewBox="0 0 92 36" enable-background="new 0 0 92 36" xml:space="preserve">

<linearGradient id="knife_tactical_1_" gradientUnits="userSpaceOnUse" x1="1.6343" y1="15.333" x2="91.625" y2="15.333">
	<stop  offset="2.300000e-007" style="stop-color:#F0D9BA"/>
	<stop  offset="1" style="stop-color:#BB6B17"/>
</linearGradient>
<path id="knife_tactical" fill="url(#knife_tactical_1_)" d="M84.802,16.967c-0.979,0.325-2.135,0.672-3.465,1.041
	c-2.182,0.628-4.396,1.138-6.633,1.529c-1.731,0.262-3.951,0.457-6.659,0.585c-0.865,0.044-1.723,0.08-2.563,0.101h-1.001
	c-0.039-0.158-0.095-0.313-0.167-0.459c-0.232-0.402-0.551-0.748-0.933-1.011c-0.422-0.324-0.911-0.546-1.432-0.65
	c-0.164-0.043-0.332-0.065-0.502-0.063l-18.715-0.102c-0.105,0.031-0.206,0.076-0.299,0.132c-0.06,0.039-0.106,0.095-0.134,0.16
	l-0.035,0.098l-0.433,2.021c-0.314,1.429-0.544,2.407-0.701,2.929c-0.023,0.066-0.056,0.152-0.1,0.258
	c-0.046,0.083-0.102,0.16-0.167,0.229c-0.192,0.115-0.41,0.182-0.633,0.192l-0.465,0.068c-0.29-0.021-0.599-0.032-0.934-0.032
	c-0.445-0.006-0.89-0.04-1.331-0.099c-0.088-0.021-0.169-0.067-0.234-0.131c-0.082-0.055-0.141-0.135-0.166-0.23
	c0.048-0.278,0.176-0.538,0.367-0.746c0.021-0.021,0.188-0.205,0.499-0.551c0.225-0.283,0.432-0.556,0.629-0.817
	c0.275-0.336,0.479-0.723,0.6-1.139c0.024-0.293,0.024-0.588,0-0.882l-0.032-0.575c-0.065,0.02-0.135,0.02-0.2,0
	c-0.135-0.176-0.288-0.36-0.459-0.557c-0.245-0.322-0.524-0.615-0.833-0.875c-0.318-0.259-0.666-0.479-1.037-0.654
	c-0.618-0.266-1.289-0.388-1.961-0.357c-0.675,0.038-1.323,0.275-1.862,0.681c-0.605,0.417-1.072,1.005-1.34,1.69
	c-0.245,0.629-0.434,1.096-0.567,1.402c-0.085,0.148-0.144,0.248-0.167,0.289c-0.027,0.051-0.075,0.088-0.131,0.1
	c-0.078,0.077-0.187,0.113-0.296,0.101c-0.171-0.036-0.326-0.128-0.438-0.261c-0.246-0.277-0.458-0.584-0.63-0.912
	c-0.158-0.262-0.268-0.459-0.334-0.588c-0.135-0.238-0.255-0.447-0.367-0.62c-0.351-0.448-0.794-0.814-1.3-1.075
	c-0.52-0.277-1.082-0.463-1.664-0.551c-0.609-0.076-1.225,0.074-1.731,0.42c-0.357,0.217-0.803,0.521-1.332,0.918
	c-0.229,0.185-0.475,0.348-0.735,0.486c-0.163,0.043-0.333,0.054-0.5,0.032c-0.196-0.055-0.386-0.132-0.565-0.229
	c-0.347-0.132-0.703-0.241-1.065-0.326c-0.546-0.126-1.108-0.169-1.667-0.129c-0.467,0.049-0.926,0.159-1.364,0.327
	c-0.383,0.168-0.742,0.386-1.066,0.649c-0.221,0.195-0.476,0.414-0.768,0.654c-0.171,0.135-0.362,0.244-0.566,0.322
	c-0.322,0.132-0.656,0.23-0.998,0.295c-0.259,0.016-0.516,0.061-0.765,0.132c-0.426,0.072-0.841,0.204-1.231,0.39
	c-0.446,0.25-0.852,0.567-1.2,0.942c-0.319,0.353-0.619,0.724-0.898,1.11c-0.357,0.432-0.743,0.933-1.168,1.494l-1.029,0.391
	l-0.599-0.129c-1.841-2.932-2.896-4.58-3.166-4.947c-0.045-0.066-0.344-0.434-0.895-1.11c-0.26-0.277-0.473-0.594-0.631-0.939
	c-0.015-0.223,0.019-0.446,0.098-0.654c0.094-0.227,0.207-0.445,0.336-0.654c0.092-0.108,0.3-0.345,0.634-0.712
	c0.296-0.285,0.572-0.59,0.827-0.913c0.11-0.15,0.311-0.459,0.599-0.912c0.137-0.285,0.314-0.549,0.525-0.784
	c0.161-0.146,0.342-0.267,0.537-0.358c0.131-0.031,0.263-0.052,0.397-0.065c0.243-0.035,0.489-0.056,0.735-0.063
	c0.516-0.047,1.028-0.136,1.531-0.264c0.669-0.149,1.175-0.281,1.531-0.389c0.358-0.128,1-0.39,1.928-0.781
	c1.092-0.479,1.956-0.846,2.599-1.102c0.866-0.331,1.677-0.609,2.436-0.849c0.971-0.306,1.641-0.501,1.996-0.585
	c0.705-0.127,1.416-0.214,2.13-0.261c0.798-0.066,1.599-0.077,2.399-0.032c0.512,0.043,1.177,0.13,1.996,0.261
	c0.669,0.086,1.323,0.152,1.966,0.194c0.535,0.023,1.276,0.031,2.23,0.031c0.69,0,1.365-0.031,2.034-0.092
	c0.335-0.025,0.602-0.046,0.8-0.069l0.032-0.194l0.201-0.034l0.099,0.199l0.341-0.036V8.079l0.267-0.062l0.067,0.229l0.331-0.036
	V7.98l0.264-0.03l0.036,0.225l0.333-0.032v-0.26h0.233l0.03,0.164l0.299-0.033V7.751l0.268-0.033l0.032,0.231l0.267-0.036V7.589
	l0.236-0.034l0.065,0.263l0.267-0.067V7.429h0.234l0.063,0.225h0.205l0.032-0.292l0.265-0.034l0.036,0.261l0.201-0.061V7.3
	l0.235-0.033l0.066,0.163l0.333-0.1c0.176-0.051,0.345-0.128,0.5-0.228c0.107-0.054,0.209-0.12,0.302-0.195
	c0.058-0.085,0.138-0.152,0.23-0.195c0.104-0.046,0.217-0.067,0.33-0.063c0.135,0.021,0.214,0.031,0.234,0.031
	c0.092-0.043,0.245-0.132,0.466-0.262c0.137-0.109,0.296-0.185,0.468-0.221c0.162-0.047,0.332-0.06,0.5-0.036l0.398,0.1
	c0.025,0.019,0.184,0.091,0.466,0.227c0.207,0.117,0.433,0.194,0.669,0.228c0.163,0.044,0.335,0.044,0.499,0
	C42.4,6.684,42.5,6.663,42.601,6.651c0.269,0.061,0.521,0.183,0.735,0.356c0.186,0.119,0.364,0.249,0.534,0.39l2.635,0.487
	c1.929,0.367,3.271,0.617,4.025,0.749c0.959,0.129,2.134,0.24,3.533,0.326c1.219,0.044,2.221,0.055,2.998,0.035
	c1.377,0.002,2.742-0.252,4.026-0.75c0.268-0.109,0.759-0.351,1.469-0.717c0.692-0.349,1.091-0.542,1.2-0.584
	c0.19-0.071,0.391-0.105,0.593-0.099c0.173-0.017,0.347,0.017,0.501,0.099c0.068,0.077,0.125,0.164,0.167,0.258
	c0.047,0.083,0.123,0.239,0.234,0.455c0.1,0.296,0.299,0.55,0.563,0.717c0.187,0.066,0.393,0.054,0.57-0.034
	c0.155-0.089,0.266-0.244,0.299-0.422c0.021-0.171,0.021-0.346,0-0.518l-0.066-0.197h0.332l0.133,0.259
	c0.131,0.218,0.236,0.391,0.3,0.521c0.082,0.183,0.183,0.357,0.301,0.52c0.113,0.13,0.264,0.221,0.433,0.261
	c0.199,0.027,0.402,0.017,0.599-0.029c0.222-0.037,0.381-0.234,0.367-0.459c-0.001-0.23-0.022-0.459-0.065-0.685L68.913,7.36
	l0.402,0.066l0.167,0.259c0.133,0.195,0.245,0.358,0.333,0.488c0.063,0.176,0.152,0.341,0.266,0.489
	c0.104,0.148,0.26,0.252,0.436,0.293c0.165,0.045,0.341,0.035,0.499-0.03c0.152-0.044,0.269-0.17,0.298-0.327
	c0.039-0.197,0.017-0.402-0.064-0.586l-0.17-0.327l0.332,0.031l0.165,0.231c0.093,0.12,0.171,0.249,0.235,0.386
	c0.092,0.198,0.155,0.338,0.199,0.422c0.099,0.146,0.239,0.258,0.401,0.325c0.324,0.186,0.728,0.163,1.029-0.059
	c0.098-0.081,0.159-0.198,0.165-0.325c0-0.13-0.01-0.261-0.031-0.39c-0.03-0.129-0.086-0.251-0.166-0.357l-0.135-0.132L73.74,7.85
	l0.168,0.292c0.11,0.217,0.2,0.4,0.265,0.556c0.061,0.146,0.15,0.278,0.266,0.387c0.1,0.081,0.212,0.148,0.331,0.199
	c0.119,0.08,0.259,0.124,0.401,0.126c0.13,0.025,0.265-0.008,0.366-0.091c0.182-0.136,0.273-0.362,0.235-0.585
	c-0.041-0.137-0.097-0.27-0.167-0.395l-0.132-0.229l0.363,0.034l0.169,0.264c0.091,0.12,0.168,0.249,0.231,0.385
	c0.054,0.127,0.121,0.249,0.2,0.361c0.085,0.121,0.185,0.23,0.297,0.326c0.154,0.087,0.325,0.143,0.502,0.164
	c0.18,0.048,0.371,0.025,0.534-0.065c0.238-0.198,0.331-0.522,0.233-0.815c-0.01-0.115-0.045-0.227-0.103-0.326l-0.099-0.161
	l0.466,0.095l0.1,0.129c0.1,0.169,0.188,0.344,0.269,0.523c0.06,0.103,0.126,0.201,0.2,0.294c0.123,0.162,0.269,0.305,0.433,0.424
	c0.132,0.106,0.297,0.163,0.465,0.16c0.15,0.003,0.295-0.055,0.4-0.16c0.092-0.1,0.149-0.226,0.168-0.36
	c0.019-0.12,0.007-0.243-0.034-0.358c-0.062-0.112-0.129-0.22-0.201-0.325l-0.134-0.162l0.401,0.092l0.164,0.197
	c0.086,0.107,0.156,0.228,0.204,0.357c0.032,0.134,0.102,0.258,0.198,0.357c0.076,0.139,0.191,0.253,0.331,0.328
	c0.126,0.083,0.26,0.149,0.402,0.196c0.174,0.022,0.346-0.039,0.467-0.165c0.101-0.09,0.158-0.217,0.162-0.352
	c-0.007-0.132-0.029-0.263-0.068-0.39c-0.044-0.092-0.099-0.18-0.163-0.26L81.9,8.798l9.725,1.203L84.802,16.967z M39.501,21.915
	c-0.223-0.01-0.439,0.072-0.599,0.228c-0.149,0.158-0.232,0.368-0.232,0.585c-0.003,0.208,0.081,0.408,0.232,0.551
	c0.161,0.153,0.377,0.234,0.599,0.226c0.221,0.002,0.434-0.079,0.599-0.226c0.153-0.142,0.238-0.342,0.234-0.551
	c0-0.217-0.083-0.427-0.234-0.585C39.936,21.995,39.722,21.913,39.501,21.915z"/>
<linearGradient id="shape2_2_" gradientUnits="userSpaceOnUse" x1="462.7275" y1="-264.9512" x2="421.9457" y2="-264.9512" gradientTransform="matrix(1 0 0 -1 -374.96 -242.6602)">
	<stop  offset="2.300000e-007" style="stop-color:#5D3F1C"/>
	<stop  offset="1" style="stop-color:#865524"/>
</linearGradient>
<path id="shape2_1_" fill="url(#shape2_2_)" d="M77.214,31.251c-0.313,0-0.625-0.05-0.923-0.147
	c-0.297,0.099-0.608,0.147-0.921,0.147h-8.193c-0.185,0-0.447-0.009-0.77-0.075c-0.217,0.051-0.439,0.075-0.664,0.075h-2.664
	c-0.816,0-1.605-0.342-2.166-0.937c-0.078-0.086-0.15-0.174-0.219-0.267l-0.91,0.65c-0.503,0.36-1.1,0.552-1.725,0.552h-3.584
	c-0.717,0-1.402-0.264-1.935-0.719c-0.616,0.424-1.35,0.654-2.114,0.654c-0.75,0-1.478-0.222-2.104-0.642
	c-0.164-0.11-0.315-0.233-0.452-0.37c-1.021-1.021-1.363-2.423-0.92-3.753l0.044-0.128l0.08-0.203
	c-1.801-0.254-3.145-1.765-3.145-3.646V22.24c0-0.741,0.274-1.45,0.773-1.996l4.748-5.232c0.646-1.069,1.762-1.679,3.079-1.679h0.41
	c2.065,0,3.684,1.618,3.684,3.684c0,0-0.001,0.289-0.003,0.331c0.555-0.653,1.372-1.044,2.26-1.044h8.398
	c0.261,0,0.518,0.034,0.768,0.101c0.25-0.067,0.508-0.101,0.771-0.101h9.218c0.243,0,0.482,0.029,0.717,0.087
	c0.233-0.058,0.475-0.087,0.719-0.087h8.396c0.917,0,1.797,0.433,2.354,1.159c0.56,0.726,0.752,1.689,0.515,2.573l-0.407,1.532
	c-0.146,0.541-0.433,1.02-0.829,1.395c-0.014,0.188-0.045,0.372-0.094,0.555l-0.41,1.537c-0.075,0.282-0.192,0.551-0.346,0.799
	c0.168,0.532,0.185,1.109,0.04,1.656l-0.413,1.539c-0.347,1.297-1.524,2.202-2.866,2.202H77.214z M74.175,23.782l0.013-0.009h-0.794
	l-0.002,0.009H74.175z"/>
<path id="ACE" fill="#FFFFFF" d="M51.403,23.163h-3.79c-0.409,0-0.717-0.308-0.717-0.718c0-0.104,0-0.104,0-0.204l5.018-5.531
	c0.103-0.307,0.31-0.41,0.615-0.41h0.41c0.409,0,0.717,0.308,0.717,0.717c0,0.102,0,0.205,0,0.205l-2.458,3.584h4.402
	c0.615,0,0.31,1.127-0.103,1.639l-4.507,5.531c-0.309,0.308-0.717,0.308-1.023,0.104c-0.205-0.206-0.309-0.41-0.205-0.719
	L51.403,23.163L51.403,23.163L51.403,23.163z M58.88,19.271l0.409,0.41l-4.813,8.603h3.584l2.15-1.536h2.971l-0.103,1.536h2.663
	l1.536-9.013H58.88L58.88,19.271z M63.386,20.809l-0.104,3.482h-2.97l2.048-3.482H63.386L63.386,20.809z M67.177,28.284h8.191
	l0.613-2.15l-0.819,0.614h-5.733l1.74-5.941h6.452l0.409-1.535h-9.218l-2.355,7.988c-0.102,0.104-0.102,0.309-0.102,0.409
	c0,0.103,0,0.205,0.103,0.31c0.102,0.103,0.205,0.203,0.307,0.203C66.97,28.284,67.074,28.284,67.177,28.284L67.177,28.284
	L67.177,28.284z M79.466,19.271l0.311,0.612l-2.563,8.398h8.193l0.41-1.536h-5.122l0.717-2.458h4.711l0.41-1.537h-4.506l0.612-1.944
	h4.815l0.409-1.535H79.466L79.466,19.271z"/>
</svg>
