<?xml version="1.0" encoding="utf-8"?>
<!-- Generator: Adobe Illustrator 16.0.0, SVG Export Plug-In . SVG Version: 6.00 Build 0)  -->
<!DOCTYPE svg PUBLIC "-//W3C//DTD SVG 1.1//EN" "http://www.w3.org/Graphics/SVG/1.1/DTD/svg11.dtd">
<svg version="1.1" id="case1" xmlns="http://www.w3.org/2000/svg" xmlns:xlink="http://www.w3.org/1999/xlink" x="0px" y="0px"
	 width="92px" height="36px" viewBox="0 0 92 36" enable-background="new 0 0 92 36" xml:space="preserve">

<linearGradient id="shape_1_" gradientUnits="userSpaceOnUse" x1="3.3853" y1="-7.7109" x2="53.3887" y2="-7.7109" gradientTransform="matrix(1 0 0 -1 8.3398 12.04)">
	<stop  offset="2.300000e-007" style="stop-color:#F0D9BA"/>
	<stop  offset="1" style="stop-color:#BB6B17"/>
</linearGradient>
<path id="shape" fill="url(#shape_1_)" d="M30.68,20.205c-0.158-0.203-0.245-0.452-0.248-0.71v-3.052
	c-0.007-0.063-0.007-0.127,0-0.19c0.052-0.478,0.483-0.824,0.962-0.772v0.005h3.264c0.26-0.008,0.514,0.083,0.711,0.252
	c0.213,0.174,0.336,0.435,0.336,0.71v3.048c-0.013,0.271-0.133,0.527-0.336,0.71c-0.199,0.169-0.451,0.258-0.711,0.25h-3.265
	c-0.01,0-0.021,0-0.028,0C31.114,20.455,30.87,20.366,30.68,20.205 M19.552,5.747c-0.023,0.179-0.036,0.361-0.039,0.542v0.628
	c-0.096,0.062-0.194,0.118-0.295,0.167c-0.086,0.018-0.169,0.046-0.248,0.082l-1.26,1.131c-0.082,0.08-0.139,0.182-0.166,0.293
	c-0.078,0.098-0.135,0.211-0.168,0.334H15.96c-0.1-0.027-0.188-0.087-0.25-0.168c-0.072-0.038-0.142-0.081-0.209-0.127L14.7,8.84
	v0.792c0.278,0.586,0.487,0.991,0.627,1.214c0.078,0.126,0.176,0.239,0.291,0.332c0.092,0.172,0.162,0.355,0.209,0.544
	c0.032,0.139,0.047,0.279,0.043,0.42c0.01,0.378-0.078,0.752-0.252,1.087c-0.086,0.174-0.185,0.342-0.293,0.5
	c-0.904,0.177-1.777,0.486-2.593,0.918c-0.396,0.189-0.709,0.517-0.88,0.922c-0.089,0.067-0.137,0.178-0.125,0.288v0.128
	l0.125,0.125h0.716c0.476,0.027,0.962,0.044,1.466,0.044c0.486,0.052,0.975,0.078,1.463,0.082c0.418,0.027,0.655,0.041,0.711,0.041
	c0.724,0.032,1.375,0.444,1.715,1.084c0.242,0.54,0.369,1.124,0.378,1.715c0.001,0.182-0.013,0.363-0.044,0.543
	c-0.025,0.096-0.038,0.193-0.04,0.294v0.165c-0.728,1.588-1.328,2.995-1.8,4.221c-0.418,1.053-0.781,2.127-1.09,3.219
	c-0.273,0.764-0.484,1.547-0.629,2.346c-0.074,0.568-0.117,1.143-0.125,1.717c-0.041,0.513,0.045,1.025,0.252,1.5
	c0.108,0.193,0.287,0.343,0.5,0.415c0.096,0.028,0.194,0.043,0.293,0.045c1.08,0.138,2.168,0.21,3.256,0.215h0.242
	c0.159-0.001,0.318-0.003,0.478-0.006c1.368-0.062,2.638-0.132,3.807-0.216c1.366-0.143,2.704-0.294,4.017-0.46h0.129l-0.668-1.88
	c0.029-0.111,0.123-0.529,0.293-1.256c0.109-0.752,0.25-1.574,0.418-2.465c0.193-0.893,0.359-1.742,0.498-2.551
	c0.143-0.779,0.224-1.295,0.255-1.547c0.036-0.441,0.229-0.855,0.542-1.167c0.207-0.237,0.465-0.424,0.754-0.547
	c0.699,0.241,1.434,0.37,2.175,0.379c0.769,0.004,1.537-0.037,2.3-0.123c0.619-0.042,1.233-0.126,1.842-0.253
	c0.283-0.046,0.563-0.115,0.834-0.207h0.08v-0.46c-0.055-1.121,0.16-2.239,0.629-3.259c0.279-0.678,0.677-1.301,1.172-1.841
	c0.379-0.376,0.818-0.686,1.302-0.918c0.362-0.082,0.557-0.123,0.586-0.123h19.293c0.053,0,0.104-0.034,0.125-0.086
	c0.088-0.064,0.16-0.149,0.209-0.25c0.057-0.167,0.151-0.431,0.293-0.794c0.215-0.513,0.383-1.045,0.5-1.588
	c0.082-0.251,0.166-0.557,0.248-0.92c0.114-0.255,0.198-0.521,0.254-0.794c0.104-0.287,0.186-0.579,0.248-0.877l-0.168-1.381
	l0.039-1c-0.084,0.006-0.17-0.009-0.25-0.041V7.12h-0.173c-0.057,0-0.083-0.016-0.083-0.041c-0.113-0.021-0.226-0.05-0.334-0.087
	c-0.164-0.016-0.322-0.072-0.459-0.164c-0.021-0.172-0.063-0.34-0.127-0.501c-0.011-0.181-0.152-0.325-0.333-0.334
	c-0.159,0.012-0.317,0.055-0.461,0.126c-0.228,0.056-0.438,0.156-0.625,0.294c-0.203,0.114-0.399,0.24-0.588,0.376
	c-0.196,0.106-0.319,0.182-0.379,0.207h-2.174c-0.07,0.042-0.128,0.1-0.169,0.168c-0.034,0.096-0.063,0.194-0.081,0.294h-0.587
	V7.334c-0.028-0.065-0.043-0.137-0.041-0.209c-0.028-0.067-0.043-0.138-0.041-0.211L43.646,6.833
	c-0.054,0.057-0.11,0.111-0.164,0.166c-0.03,0.035-0.045,0.08-0.043,0.126c-0.004,0.044-0.02,0.086-0.043,0.123h-0.543
	c-0.065,0.009-0.133-0.023-0.166-0.082l-0.125-0.082l-9.834-0.167c-0.116-0.04-0.217-0.113-0.291-0.211
	c-0.058-0.083-0.126-0.177-0.21-0.29l-7.574,0.04l-0.627,0.336l-1.839,0.041L21.1,5.747H19.552z"/>
<linearGradient id="shape2_2_" gradientUnits="userSpaceOnUse" x1="64.4326" y1="827.2119" x2="23.6512" y2="827.2119" gradientTransform="matrix(1 0 0 1 16.6797 -804.9199)">
	<stop  offset="2.300000e-007" style="stop-color:#5D3F1C"/>
	<stop  offset="1" style="stop-color:#865524"/>
</linearGradient>
<path id="shape2_1_" fill="url(#shape2_2_)" d="M70.559,31.251c-0.313,0-0.625-0.05-0.922-0.147c-0.298,0.1-0.609,0.147-0.922,0.147
	h-8.193c-0.185,0-0.446-0.009-0.77-0.075c-0.217,0.051-0.439,0.075-0.664,0.075h-2.664c-0.816,0-1.605-0.342-2.166-0.937
	c-0.078-0.086-0.15-0.174-0.219-0.268l-0.91,0.65c-0.503,0.359-1.1,0.552-1.725,0.552H47.82c-0.717,0-1.402-0.265-1.934-0.719
	c-0.617,0.424-1.352,0.653-2.115,0.653c-0.75,0-1.479-0.222-2.104-0.642c-0.164-0.11-0.315-0.233-0.452-0.37
	c-1.021-1.021-1.363-2.423-0.92-3.753l0.044-0.128l0.08-0.203c-1.801-0.254-3.145-1.765-3.145-3.646V22.24
	c0-0.741,0.274-1.45,0.773-1.996l4.748-5.232c0.646-1.069,1.762-1.679,3.079-1.679h0.41c2.065,0,3.684,1.618,3.684,3.684
	c0,0-0.001,0.289-0.003,0.331c0.555-0.653,1.372-1.044,2.26-1.044h8.398c0.261,0,0.518,0.034,0.768,0.101
	c0.25-0.067,0.508-0.101,0.771-0.101h9.218c0.243,0,0.481,0.029,0.718,0.087c0.232-0.058,0.475-0.087,0.719-0.087h8.396
	c0.917,0,1.797,0.433,2.354,1.159c0.56,0.726,0.752,1.689,0.515,2.573l-0.407,1.532c-0.146,0.541-0.434,1.02-0.828,1.395
	c-0.015,0.188-0.046,0.372-0.095,0.555l-0.41,1.537c-0.075,0.282-0.192,0.551-0.346,0.799c0.168,0.532,0.185,1.109,0.04,1.656
	l-0.413,1.539c-0.347,1.296-1.524,2.202-2.866,2.202H70.559z M67.52,23.782l0.014-0.009h-0.795l-0.002,0.009H67.52z"/>
<path id="ACE" fill="#FFFFFF" d="M44.748,23.163h-3.79c-0.409,0-0.717-0.308-0.717-0.718c0-0.104,0-0.104,0-0.204l5.018-5.531
	c0.103-0.307,0.31-0.41,0.615-0.41h0.41c0.409,0,0.717,0.308,0.717,0.717c0,0.102,0,0.205,0,0.205l-2.458,3.584h4.402
	c0.615,0,0.31,1.127-0.104,1.639l-4.507,5.531c-0.31,0.308-0.717,0.308-1.022,0.104c-0.205-0.206-0.31-0.41-0.205-0.719
	L44.748,23.163L44.748,23.163L44.748,23.163z M52.225,19.271l0.409,0.41l-4.813,8.603h3.584l2.15-1.536h2.971l-0.103,1.536h2.663
	l1.536-9.013H52.225L52.225,19.271z M56.73,20.809l-0.104,3.482h-2.97l2.048-3.482H56.73L56.73,20.809z M60.521,28.284h8.19
	l0.613-2.15l-0.819,0.614h-5.732l1.74-5.941h6.451l0.409-1.535h-9.218l-2.355,7.988C59.7,27.363,59.7,27.568,59.7,27.669
	c0,0.103,0,0.205,0.103,0.31c0.102,0.104,0.205,0.203,0.307,0.203C60.314,28.284,60.419,28.284,60.521,28.284L60.521,28.284
	L60.521,28.284z M72.811,19.271l0.312,0.611l-2.563,8.398h8.193l0.41-1.536H74.04l0.717-2.458h4.711l0.41-1.537h-4.506l0.612-1.943
	H80.8l0.409-1.535H72.811L72.811,19.271z"/>
</svg>
