<?xml version="1.0" encoding="utf-8"?>
<!-- Generator: Adobe Illustrator 16.0.0, SVG Export Plug-In . SVG Version: 6.00 Build 0)  -->
<!DOCTYPE svg PUBLIC "-//W3C//DTD SVG 1.1//EN" "http://www.w3.org/Graphics/SVG/1.1/DTD/svg11.dtd">
<svg version="1.1" id="case1" xmlns="http://www.w3.org/2000/svg" xmlns:xlink="http://www.w3.org/1999/xlink" x="0px" y="0px"
	 width="92px" height="36px" viewBox="0 0 92 36" enable-background="new 0 0 92 36" xml:space="preserve">

<linearGradient id="xm1014_1_" gradientUnits="userSpaceOnUse" x1="0.625" y1="18" x2="91.625" y2="18">
	<stop  offset="2.300000e-007" style="stop-color:#F0D9BA"/>
	<stop  offset="1" style="stop-color:#BB6B17"/>
</linearGradient>
<path id="xm1014" fill="url(#xm1014_1_)" d="M91.625,11.202c0,0.255-0.011,0.51-0.033,0.767c-0.021,0.263-0.085,0.521-0.189,0.765
	c-0.303,0.198-0.66,0.297-1.023,0.285c-0.556,0.021-1.099,0.032-1.631,0.031v0.323h0.095c0.071-0.001,0.131,0.056,0.133,0.127
	c0,0.011-0.002,0.022-0.004,0.033c0.267-0.007,0.533-0.028,0.798-0.065c0.347-0.062,0.704,0.019,0.991,0.224
	c0.253,0.148,0.42,0.41,0.447,0.702c0.126,0.348,0.159,0.721,0.096,1.084c-0.164,0.504-0.574,0.89-1.088,1.021H67.453
	c-0.385,0.076-0.761,0.194-1.12,0.353c-0.927,0.245-1.885,0.353-2.844,0.319h-6.878c-1.364,0.042-2.771,0.063-4.221,0.063h-6.97
	c-0.46,0.025-0.921,0.004-1.376-0.063c-0.236-0.101-0.482-0.176-0.735-0.223h-1.918c-0.248-0.077-0.507-0.109-0.767-0.095
	c-0.379-0.021-0.778-0.043-1.183-0.063h-1.056c-0.203-0.006-0.405,0.004-0.607,0.03c-0.214,0.035-0.408,0.149-0.543,0.319
	c-0.332,0.275-0.729,0.461-1.151,0.542c-0.162-0.029-0.314-0.094-0.447-0.19c-0.214-0.063-0.501-0.137-0.864-0.223
	c-0.358-0.094-0.721-0.168-1.088-0.223c-0.404-0.063-0.649-0.095-0.735-0.095h-1.183c-0.398-0.015-0.79,0.097-1.119,0.32
	c-0.239,0.101-0.425,0.297-0.512,0.541c-0.234,0.235-0.512,0.522-0.83,0.864c-0.254,0.291-0.587,0.501-0.959,0.604h-0.544
	c-0.113,0.084-0.245,0.14-0.384,0.16c-0.073,0.021-0.148,0.031-0.224,0.029c-0.189,0-0.51,0.013-0.959,0.032
	c-0.426,0-0.874,0.021-1.341,0.064c-0.45,0.015-0.898,0.058-1.342,0.128c-0.266,0.007-0.522,0.097-0.735,0.256
	c-0.146,0.19-0.254,0.407-0.319,0.637c-0.172,0.383-0.374,0.854-0.609,1.405c-0.276,0.553-0.563,1.149-0.862,1.786
	c-0.3,0.595-0.588,1.147-0.864,1.659c-0.019,0.3,0.013,0.602,0.095,0.892c0.033,0.142,0.076,0.28,0.128,0.415l0.16,0.161
	c0.061,0.124,0.16,0.224,0.284,0.283c0.125,0.085,0.198,0.228,0.19,0.38l-0.13,0.188c-0.127,0.101-0.288,0.145-0.447,0.128
	c-0.221,0.043-0.445,0.066-0.67,0.068c-0.289-0.002-0.578-0.024-0.864-0.064c-0.359-0.084-0.794-0.189-1.305-0.315
	c-0.533-0.085-1.044-0.179-1.536-0.284c-0.447-0.148-0.841-0.284-1.183-0.415c-0.244,0.004-0.478-0.101-0.64-0.283l-0.095-0.128
	V26.42h-0.033c-0.136-0.105-0.208-0.273-0.189-0.446v-0.222c0.157-0.333,0.339-0.653,0.544-0.957
	c0.316-0.554,0.657-1.182,1.023-1.881c0.363-0.683,0.714-1.32,1.054-1.917c0.188-0.341,0.359-0.692,0.512-1.051
	c0-0.172-0.011-0.396-0.032-0.673c-0.017-0.224-0.107-0.437-0.256-0.605c-0.32-0.116-0.653-0.19-0.992-0.223
	c-0.294-0.066-0.6-0.066-0.895,0c-0.217,0.05-0.446,0.016-0.64-0.096h-0.129c0.002-0.095,0.013-0.19,0.032-0.284
	c-0.002-0.075,0.01-0.15,0.033-0.223c0.037-0.032,0.06-0.078,0.063-0.126c-0.084,0-0.479,0.074-1.183,0.221
	c-0.703,0.129-1.449,0.298-2.238,0.513c-0.788,0.17-1.502,0.351-2.142,0.542c-0.664,0.148-1.011,0.223-1.055,0.223
	c-0.123,0.075-0.231,0.172-0.32,0.285c-0.148,0.229-0.319,0.443-0.511,0.639c-0.161,0.209-0.301,0.433-0.417,0.67
	c-0.128,0.275-0.245,0.563-0.351,0.861c-0.128,0.277-0.235,0.513-0.319,0.703c-0.051,0.143-0.115,0.281-0.19,0.415
	c-0.173,0.098-0.334,0.215-0.479,0.35c-0.363,0.202-0.736,0.383-1.119,0.544c-0.554,0.276-1.312,0.595-2.275,0.956H1.489
	l-0.673-0.223L0.625,12.383l4.989-0.737c0.145-0.012,0.286-0.055,0.414-0.127c0.084-0.063,0.16-0.138,0.224-0.223
	c0.08-0.08,0.154-0.165,0.224-0.254l16.339-1.5v0.189c0.076,0.16,0.172,0.31,0.284,0.447c0.049,0.101,0.144,0.172,0.254,0.19
	c0.025,0.051,0.073,0.086,0.129,0.095c0.074-0.005,0.142-0.04,0.19-0.095l0.189-0.19V9.735h0.129
	c0.467-0.708,0.808-1.197,1.023-1.468V8.203h0.049c0.028-0.036,0.055-0.069,0.081-0.095c0.008-0.012,0.019-0.022,0.031-0.03h0.975
	c0.044,0.035,0.082,0.078,0.112,0.125h0.19v0.27c0.144,0.147,0.338,0.233,0.543,0.241l0.319,0.159h1.024
	c0.268-0.006,0.536,0.015,0.8,0.063c0.155-0.02,0.298,0.09,0.318,0.246c0,0.004,0,0.007,0.001,0.01c0.126,0,0.189,0.178,0.189,0.542
	v0.32c0.044,0.005,0.087,0.015,0.129,0.03c0.023,0.032,0.057,0.055,0.095,0.065l0.095,0.031V9.193h11.429v-0.64h0.672v0.64h1.662
	v0.223c0,0.216,0.032,0.431,0.094,0.638c0.022,0.135,0.104,0.252,0.223,0.319h41.919c0.158-0.129,0.306-0.268,0.446-0.414
	c0.126-0.155,0.205-0.343,0.225-0.541l0.128-0.38c0.013-0.217,0.056-0.433,0.128-0.639c0.047-0.181,0.195-0.319,0.38-0.351
	c0.246,0.047,0.484,0.133,0.702,0.255c0.299,0.171,0.629,0.363,0.993,0.574c0.33,0.207,0.649,0.431,0.958,0.67
	c0.191,0.196,0.361,0.41,0.511,0.64c0.075,0.05,0.139,0.115,0.189,0.189c0.06-0.003,0.113,0.037,0.128,0.095
	c0.052,0.019,0.105,0.029,0.16,0.031h0.16l0.552,0.218V11.202L91.625,11.202z M86.444,13.053h-0.991l-0.16-0.224h-17.84
	c-0.185,0.128-0.311,0.323-0.353,0.543v0.16c0.776,0.061,1.556,0.082,2.334,0.063h4.83c1.918-0.043,3.941-0.086,6.073-0.128
	c2.195-0.042,4.188-0.074,5.979-0.095h0.447C86.722,13.216,86.6,13.095,86.444,13.053L86.444,13.053z M26.908,8.613
	c0.025,0.002,0.047,0.014,0.063,0.032h0.063c0,0.017,0.012,0.03,0.028,0.03c0.001,0,0.003,0,0.004,0h-0.16V8.613z M28.123,17.483
	c0.016-0.303-0.062-0.604-0.224-0.861c-0.175-0.202-0.437-0.308-0.703-0.284h-2.334c-0.273-0.003-0.536,0.099-0.736,0.284
	c-0.182,0.249-0.272,0.553-0.256,0.861c0.001,0.237,0.093,0.466,0.256,0.639c0.191,0.203,0.457,0.318,0.736,0.318h2.334
	c0.273,0.022,0.54-0.098,0.703-0.318c0.145-0.181,0.223-0.404,0.224-0.635V17.483z M24.478,8.682
	c0.024-0.001,0.048-0.012,0.064-0.03h0.033v0.03H24.48H24.478z"/>
<linearGradient id="shape2_2_" gradientUnits="userSpaceOnUse" x1="454.7275" y1="-264.9512" x2="413.9457" y2="-264.9512" gradientTransform="matrix(1 0 0 -1 -374.96 -242.6602)">
	<stop  offset="2.300000e-007" style="stop-color:#5D3F1C"/>
	<stop  offset="1" style="stop-color:#865524"/>
</linearGradient>
<path id="shape2_1_" fill="url(#shape2_2_)" d="M69.214,31.251c-0.313,0-0.625-0.05-0.923-0.147
	c-0.297,0.099-0.608,0.147-0.921,0.147h-8.193c-0.185,0-0.447-0.009-0.77-0.075c-0.217,0.051-0.439,0.075-0.664,0.075h-2.664
	c-0.816,0-1.605-0.342-2.166-0.937c-0.078-0.086-0.15-0.174-0.219-0.267l-0.91,0.65c-0.503,0.36-1.1,0.552-1.725,0.552h-3.584
	c-0.717,0-1.402-0.264-1.935-0.719c-0.616,0.424-1.35,0.654-2.114,0.654c-0.75,0-1.478-0.222-2.104-0.642
	c-0.164-0.11-0.315-0.233-0.452-0.37c-1.021-1.021-1.363-2.423-0.92-3.753l0.044-0.128l0.08-0.203
	c-1.801-0.254-3.145-1.765-3.145-3.646V22.24c0-0.741,0.274-1.45,0.773-1.996l4.748-5.232c0.646-1.069,1.762-1.679,3.079-1.679h0.41
	c2.065,0,3.684,1.618,3.684,3.684c0,0-0.001,0.289-0.003,0.331c0.555-0.653,1.372-1.044,2.26-1.044h8.398
	c0.261,0,0.518,0.034,0.768,0.101c0.25-0.067,0.508-0.101,0.771-0.101h9.218c0.243,0,0.482,0.029,0.717,0.087
	c0.233-0.058,0.475-0.087,0.719-0.087h8.396c0.917,0,1.797,0.433,2.354,1.159c0.56,0.726,0.752,1.689,0.515,2.573l-0.407,1.532
	c-0.146,0.541-0.433,1.02-0.829,1.395c-0.014,0.188-0.045,0.372-0.094,0.555l-0.41,1.537c-0.075,0.282-0.192,0.551-0.346,0.799
	c0.168,0.532,0.185,1.109,0.04,1.656l-0.413,1.539c-0.347,1.297-1.524,2.202-2.866,2.202H69.214z M66.175,23.782l0.013-0.009h-0.794
	l-0.002,0.009H66.175z"/>
<path id="ACE" fill="#FFFFFF" d="M43.403,23.163h-3.79c-0.409,0-0.717-0.308-0.717-0.718c0-0.104,0-0.104,0-0.204l5.018-5.531
	c0.103-0.307,0.31-0.41,0.615-0.41h0.41c0.409,0,0.717,0.308,0.717,0.717c0,0.102,0,0.205,0,0.205l-2.458,3.584h4.402
	c0.615,0,0.31,1.127-0.103,1.639l-4.507,5.531c-0.309,0.308-0.717,0.308-1.023,0.104c-0.205-0.206-0.309-0.41-0.205-0.719
	L43.403,23.163L43.403,23.163L43.403,23.163z M50.88,19.271l0.409,0.41l-4.813,8.603h3.584l2.15-1.536h2.971l-0.103,1.536h2.663
	l1.536-9.013H50.88L50.88,19.271z M55.386,20.809l-0.104,3.482h-2.97l2.048-3.482H55.386L55.386,20.809z M59.177,28.284h8.191
	l0.613-2.15l-0.819,0.614h-5.733l1.74-5.941h6.452l0.409-1.535h-9.218l-2.355,7.988c-0.102,0.104-0.102,0.309-0.102,0.409
	c0,0.103,0,0.205,0.103,0.31c0.102,0.103,0.205,0.203,0.307,0.203C58.97,28.284,59.074,28.284,59.177,28.284L59.177,28.284
	L59.177,28.284z M71.466,19.271l0.311,0.612l-2.563,8.398h8.193l0.41-1.536h-5.122l0.717-2.458h4.711l0.41-1.537h-4.506l0.612-1.944
	h4.815l0.409-1.535H71.466L71.466,19.271z"/>
</svg>
