<?xml version="1.0" encoding="utf-8"?>
<!-- Generator: Adobe Illustrator 16.0.0, SVG Export Plug-In . SVG Version: 6.00 Build 0)  -->
<!DOCTYPE svg PUBLIC "-//W3C//DTD SVG 1.1//EN" "http://www.w3.org/Graphics/SVG/1.1/DTD/svg11.dtd">
<svg version="1.1" id="case1" xmlns="http://www.w3.org/2000/svg" xmlns:xlink="http://www.w3.org/1999/xlink" x="0px" y="0px"
	 width="92px" height="36px" viewBox="0 0 92 36" enable-background="new 0 0 92 36" xml:space="preserve">

<linearGradient id="molotov_1_" gradientUnits="userSpaceOnUse" x1="15.7803" y1="18" x2="39.7539" y2="18">
	<stop  offset="2.300000e-007" style="stop-color:#F0D9BA"/>
	<stop  offset="1" style="stop-color:#BB6B17"/>
</linearGradient>
<path id="molotov" fill="url(#molotov_1_)" d="M33.189,10.362L33.189,10.362 M32.225,0.49c-0.381,0.613-0.551,1.333-0.482,2.052
	c-0.088,0.677-0.005,1.364,0.242,2c0.129,0.189,0.482,0.635,1.059,1.335c0.354,0.418,0.571,0.934,0.625,1.479
	C33.557,7.931,33.311,8.47,32.95,8.93c-0.001,0.027-0.009,0.053-0.023,0.075c-0.031-0.199-0.04-0.4-0.024-0.6
	c0.035-0.435-0.017-0.873-0.152-1.287c-0.167-0.447-0.49-0.82-0.91-1.048l-0.529-0.191c0.229,0.582,0.229,1.229,0,1.812
	c-0.129,0.223-0.321,0.573-0.578,1.051c-0.152,0.7-0.103,1.428,0.145,2.1c0.176,0.508,0.418,0.99,0.723,1.432l0.121,0.116
	c0.426-0.508,0.915-1.088,1.469-1.742c-0.033-0.092-0.033-0.193,0-0.285h-0.049l1.445-1.957c0.037-0.063,0.109-0.096,0.182-0.086
	c0.171,0.014,0.338,0.059,0.493,0.132c0.41,0.158,0.798,0.366,1.157,0.619c0.363,0.271,0.702,0.575,1.012,0.908
	c0.181,0.151,0.271,0.385,0.241,0.619l-1.446,1.957c-0.072,0.042-0.158,0.059-0.242,0.049c-0.241,0.4-0.475,0.781-0.699,1.144
	c0.77-0.004,1.506-0.313,2.049-0.859c0.8-0.89,1.313-1.494,1.541-1.812c0.331-0.345,0.408-0.861,0.191-1.287
	c-0.229-0.202-0.321-0.517-0.24-0.811c0.136-0.296,0.314-0.57,0.529-0.813c0.214-0.348,0.345-0.739,0.385-1.145
	c0.031-0.318,0.016-0.64-0.049-0.953c-0.24-0.762-0.69-1.44-1.299-1.957c-0.506-0.368-0.904-0.861-1.158-1.432
	c-0.531,0.576-0.61,1.437-0.192,2.1c0.303,0.28,0.446,0.692,0.384,1.1c-0.033,0.037-0.082,0.058-0.132,0.059
	c-0.17-0.039-0.315-0.148-0.399-0.3c-0.289-0.38-0.466-0.619-0.531-0.715c-0.185-0.309-0.314-0.647-0.383-1
	c-0.09-0.408-0.41-0.725-0.818-0.811c-0.74-0.148-1.443-0.44-2.071-0.859C32.598,1.789,32.291,1.163,32.225,0.49 M35.257,8.453
	c0.409,0.159,0.798,0.367,1.157,0.619c0.364,0.271,0.703,0.575,1.011,0.908c0.182,0.151,0.272,0.385,0.242,0.619l-1.446,1.954
	c-0.074,0.042-0.158,0.059-0.242,0.049c-1.768,2.927-2.811,4.612-3.133,5.056c-0.263,0.851-0.408,1.732-0.435,2.623
	c-0.075,1.191-0.421,2.35-1.011,3.387l-8.382,11.643c-0.549,0.248-1.173,0.266-1.735,0.049c-1.004-0.273-1.951-0.727-2.793-1.337
	c-0.854-0.589-1.591-1.333-2.17-2.193c-0.395-0.444-0.586-1.032-0.53-1.624l8.385-11.688c0.775-0.918,1.77-1.624,2.892-2.052
	c0.354-0.159,0.835-0.381,1.445-0.668c0.322-0.135,0.617-0.329,0.869-0.571c0.193-0.289,1.461-1.816,3.807-4.582
	c-0.033-0.092-0.033-0.192,0-0.285h-0.051l1.446-1.957c0.067-0.127,0.288-0.112,0.673,0.049L35.257,8.453z"/>
<linearGradient id="shape2_2_" gradientUnits="userSpaceOnUse" x1="449.8936" y1="-264.9512" x2="409.1117" y2="-264.9512" gradientTransform="matrix(1 0 0 -1 -374.96 -242.6602)">
	<stop  offset="2.300000e-007" style="stop-color:#5D3F1C"/>
	<stop  offset="1" style="stop-color:#865524"/>
</linearGradient>
<path id="shape2_1_" fill="url(#shape2_2_)" d="M64.38,31.251c-0.313,0-0.625-0.05-0.923-0.147
	c-0.297,0.099-0.608,0.147-0.921,0.147h-8.193c-0.185,0-0.447-0.009-0.77-0.075c-0.217,0.051-0.439,0.075-0.664,0.075h-2.664
	c-0.816,0-1.605-0.342-2.166-0.937c-0.078-0.086-0.15-0.174-0.219-0.267l-0.91,0.65c-0.503,0.36-1.1,0.552-1.725,0.552h-3.584
	c-0.717,0-1.402-0.264-1.935-0.719c-0.616,0.424-1.35,0.654-2.114,0.654c-0.75,0-1.478-0.222-2.104-0.642
	c-0.164-0.11-0.315-0.233-0.452-0.37c-1.021-1.021-1.363-2.423-0.92-3.753l0.044-0.128l0.08-0.203
	c-1.801-0.254-3.145-1.765-3.145-3.646V22.24c0-0.741,0.274-1.45,0.773-1.996l4.748-5.232c0.646-1.069,1.762-1.679,3.079-1.679h0.41
	c2.065,0,3.684,1.618,3.684,3.684c0,0-0.001,0.289-0.003,0.331c0.555-0.653,1.372-1.044,2.26-1.044h8.398
	c0.261,0,0.518,0.034,0.768,0.101c0.25-0.067,0.508-0.101,0.771-0.101H65.2c0.243,0,0.482,0.029,0.717,0.087
	c0.233-0.058,0.475-0.087,0.719-0.087h8.396c0.917,0,1.797,0.433,2.354,1.159c0.56,0.726,0.752,1.689,0.515,2.573l-0.407,1.532
	c-0.146,0.541-0.433,1.02-0.829,1.395c-0.014,0.188-0.045,0.372-0.094,0.555l-0.41,1.537c-0.075,0.282-0.192,0.551-0.346,0.799
	c0.168,0.532,0.185,1.109,0.04,1.656l-0.413,1.539c-0.347,1.297-1.524,2.202-2.866,2.202H64.38z M61.341,23.782l0.013-0.009H60.56
	l-0.002,0.009H61.341z"/>
<path id="ACE" fill="#FFFFFF" d="M38.569,23.163h-3.79c-0.409,0-0.717-0.308-0.717-0.718c0-0.104,0-0.104,0-0.204l5.018-5.531
	c0.103-0.307,0.31-0.41,0.615-0.41h0.41c0.409,0,0.717,0.308,0.717,0.717c0,0.102,0,0.205,0,0.205l-2.458,3.584h4.402
	c0.615,0,0.31,1.127-0.103,1.639l-4.507,5.531c-0.309,0.308-0.717,0.308-1.023,0.104c-0.205-0.206-0.309-0.41-0.205-0.719
	L38.569,23.163L38.569,23.163L38.569,23.163z M46.046,19.271l0.409,0.41l-4.813,8.603h3.584l2.15-1.536h2.971l-0.103,1.536h2.663
	l1.536-9.013H46.046L46.046,19.271z M50.552,20.809l-0.104,3.482h-2.97l2.048-3.482H50.552L50.552,20.809z M54.343,28.284h8.191
	l0.613-2.15l-0.819,0.614h-5.733l1.74-5.941h6.452l0.409-1.535h-9.218l-2.355,7.988c-0.102,0.104-0.102,0.309-0.102,0.409
	c0,0.103,0,0.205,0.103,0.31c0.102,0.103,0.205,0.203,0.307,0.203C54.136,28.284,54.24,28.284,54.343,28.284L54.343,28.284
	L54.343,28.284z M66.632,19.271l0.311,0.612l-2.563,8.398h8.193l0.41-1.536h-5.122l0.717-2.458h4.711l0.41-1.537h-4.506l0.612-1.944
	h4.815l0.409-1.535H66.632L66.632,19.271z"/>
</svg>
