<?xml version="1.0" encoding="utf-8"?>
<!-- Generator: Adobe Illustrator 16.0.0, SVG Export Plug-In . SVG Version: 6.00 Build 0)  -->
<!DOCTYPE svg PUBLIC "-//W3C//DTD SVG 1.1//EN" "http://www.w3.org/Graphics/SVG/1.1/DTD/svg11.dtd">
<svg version="1.1" id="case1" xmlns="http://www.w3.org/2000/svg" xmlns:xlink="http://www.w3.org/1999/xlink" x="0px" y="0px"
	 width="92px" height="36px" viewBox="0 0 92 36" enable-background="new 0 0 92 36" xml:space="preserve">

<linearGradient id="knife_stiletto_1_" gradientUnits="userSpaceOnUse" x1="0.875" y1="14.7534" x2="91.5" y2="14.7534">
	<stop  offset="2.300000e-007" style="stop-color:#F0D9BA"/>
	<stop  offset="1" style="stop-color:#BB6B17"/>
</linearGradient>
<path id="knife_stiletto" fill="url(#knife_stiletto_1_)" d="M53.714,16.11c0.003-0.212-0.083-0.417-0.238-0.563
	c-0.149-0.15-0.354-0.233-0.568-0.229c-0.214-0.004-0.42,0.078-0.573,0.229c-0.151,0.148-0.236,0.352-0.232,0.563
	c-0.004,0.21,0.08,0.413,0.232,0.559c0.151,0.152,0.358,0.236,0.573,0.232c0.214,0.004,0.419-0.08,0.568-0.232
	C53.631,16.525,53.718,16.321,53.714,16.11z M2.264,10.986c2.437,0.728,4.983,1.023,7.522,0.875
	c11.383-0.455,22.55-0.513,33.5-0.175c0.609-0.631,0.582-1.386-0.084-2.266c1.56-0.412,2.604,0.38,3.132,2.377h2.341l0.436,0.535
	c18.569-0.042,32.7,0.956,42.39,2.994c-5.399,1.248-17.769,1.872-37.108,1.872l-0.272,0.276h-4.988l-0.453,0.208h-2.502
	c-0.528,0.484-0.372,1.198,0.47,2.146c-1.571,0.861-2.726,0.199-3.463-1.99c-10.788,0.397-21.979,0.397-33.572,0
	c-2.516-0.101-5.027,0.283-7.399,1.128C0.41,16.604,0.432,13.324,2.264,10.986z"/>
<linearGradient id="shape2_2_" gradientUnits="userSpaceOnUse" x1="462.7275" y1="-264.9512" x2="421.9457" y2="-264.9512" gradientTransform="matrix(1 0 0 -1 -374.96 -242.6602)">
	<stop  offset="2.300000e-007" style="stop-color:#5D3F1C"/>
	<stop  offset="1" style="stop-color:#865524"/>
</linearGradient>
<path id="shape2_1_" fill="url(#shape2_2_)" d="M77.214,31.251c-0.313,0-0.625-0.05-0.923-0.147
	c-0.297,0.099-0.608,0.147-0.921,0.147h-8.193c-0.185,0-0.447-0.009-0.77-0.075c-0.217,0.051-0.439,0.075-0.664,0.075h-2.664
	c-0.816,0-1.605-0.342-2.166-0.937c-0.078-0.086-0.15-0.174-0.219-0.267l-0.91,0.65c-0.503,0.36-1.1,0.552-1.725,0.552h-3.584
	c-0.717,0-1.402-0.264-1.935-0.719c-0.616,0.424-1.35,0.654-2.114,0.654c-0.75,0-1.478-0.222-2.104-0.642
	c-0.164-0.11-0.315-0.233-0.452-0.37c-1.021-1.021-1.363-2.423-0.92-3.753l0.044-0.128l0.08-0.203
	c-1.801-0.254-3.145-1.765-3.145-3.646V22.24c0-0.741,0.274-1.45,0.773-1.996l4.748-5.232c0.646-1.069,1.762-1.679,3.079-1.679h0.41
	c2.065,0,3.684,1.618,3.684,3.684c0,0-0.001,0.289-0.003,0.331c0.555-0.653,1.372-1.044,2.26-1.044h8.398
	c0.261,0,0.518,0.034,0.768,0.101c0.25-0.067,0.508-0.101,0.771-0.101h9.218c0.243,0,0.482,0.029,0.717,0.087
	c0.233-0.058,0.475-0.087,0.719-0.087h8.396c0.917,0,1.797,0.433,2.354,1.159c0.56,0.726,0.752,1.689,0.515,2.573l-0.407,1.532
	c-0.146,0.541-0.433,1.02-0.829,1.395c-0.014,0.188-0.045,0.372-0.094,0.555l-0.41,1.537c-0.075,0.282-0.192,0.551-0.346,0.799
	c0.168,0.532,0.185,1.109,0.04,1.656l-0.413,1.539c-0.347,1.297-1.524,2.202-2.866,2.202H77.214z M74.175,23.782l0.013-0.009h-0.794
	l-0.002,0.009H74.175z"/>
<path id="ACE" fill="#FFFFFF" d="M51.403,23.163h-3.79c-0.409,0-0.717-0.308-0.717-0.718c0-0.104,0-0.104,0-0.204l5.018-5.531
	c0.103-0.307,0.31-0.41,0.615-0.41h0.41c0.409,0,0.717,0.308,0.717,0.717c0,0.102,0,0.205,0,0.205l-2.458,3.584h4.402
	c0.615,0,0.31,1.127-0.103,1.639l-4.507,5.531c-0.309,0.308-0.717,0.308-1.023,0.104c-0.205-0.206-0.309-0.41-0.205-0.719
	L51.403,23.163L51.403,23.163L51.403,23.163z M58.88,19.271l0.409,0.41l-4.813,8.603h3.584l2.15-1.536h2.971l-0.103,1.536h2.663
	l1.536-9.013H58.88L58.88,19.271z M63.386,20.809l-0.104,3.482h-2.97l2.048-3.482H63.386L63.386,20.809z M67.177,28.284h8.191
	l0.613-2.15l-0.819,0.614h-5.733l1.74-5.941h6.452l0.409-1.535h-9.218l-2.355,7.988c-0.102,0.104-0.102,0.309-0.102,0.409
	c0,0.103,0,0.205,0.103,0.31c0.102,0.103,0.205,0.203,0.307,0.203C66.97,28.284,67.074,28.284,67.177,28.284L67.177,28.284
	L67.177,28.284z M79.466,19.271l0.311,0.612l-2.563,8.398h8.193l0.41-1.536h-5.122l0.717-2.458h4.711l0.41-1.537h-4.506l0.612-1.944
	h4.815l0.409-1.535H79.466L79.466,19.271z"/>
</svg>
