<?xml version="1.0" encoding="utf-8"?>
<!-- Generator: Adobe Illustrator 16.0.0, SVG Export Plug-In . SVG Version: 6.00 Build 0)  -->
<!DOCTYPE svg PUBLIC "-//W3C//DTD SVG 1.1//EN" "http://www.w3.org/Graphics/SVG/1.1/DTD/svg11.dtd">
<svg version="1.1" id="case1" xmlns="http://www.w3.org/2000/svg" xmlns:xlink="http://www.w3.org/1999/xlink" x="0px" y="0px"
	 width="92px" height="36px" viewBox="0 0 92 36" enable-background="new 0 0 92 36" xml:space="preserve">

<linearGradient id="usp_silencer_off_1_" gradientUnits="userSpaceOnUse" x1="13.9912" y1="18.625" x2="59" y2="18.625">
	<stop  offset="2.300000e-007" style="stop-color:#F0D9BA"/>
	<stop  offset="1" style="stop-color:#BB6B17"/>
</linearGradient>
<path id="usp_silencer_off" fill="url(#usp_silencer_off_1_)" d="M59,8.785h-1.16v1.9l0.277,0.218v0.922l-0.277,0.218l-0.107,1.85
	H45.26c-0.086,0.004-0.165,0.044-0.221,0.109c-0.194,0.161-0.346,0.367-0.441,0.6c-0.145,0.396-0.877,2.171-2.193,5.328
	c-0.113,0.255-0.308,0.466-0.553,0.6c-0.279,0.11-0.577,0.165-0.877,0.162l-5.714,0.219c-0.267-0.129-0.542-0.238-0.825-0.326
	c-0.452-0.217-0.934-0.362-1.429-0.434c-0.271-0.057-0.546-0.094-0.823-0.11c-0.148,0.037-0.42,0.089-0.822,0.165
	c-0.319,0.107-0.657,0.145-0.992,0.107l-0.386-0.107l-2.8,11.746l-0.11,1.3l0.606,0.874l-11.81-0.107
	c0-0.688,0.037-1.576,0.111-2.664c0.205-2.088,0.553-4.159,1.043-6.199c0.486-1.925,1.148-3.801,1.976-5.605
	c0.036-0.105,0.293-0.636,0.77-1.576c0.16-0.313,0.288-0.64,0.383-0.978c0.129-0.369,0.021-0.779-0.275-1.034
	c-0.425-0.327-0.91-0.567-1.428-0.707c-0.735-0.255-1.21-0.415-1.429-0.488c-0.225-0.036-0.402-0.21-0.441-0.435
	c-0.03-0.417-0.011-0.837,0.057-1.25l0.11-0.815l-2.034-0.217c-0.136,0.003-0.271-0.036-0.384-0.112
	c-0.24-0.147-0.37-0.421-0.331-0.7c0.051-0.346,0.369-0.588,0.716-0.544c0.201-0.038,0.409-0.019,0.6,0.056l0.279-1.424l1.649,1.035
	l0.715-3.535l1.154-2.175V3.725l0.88,0.489l3.516,0.055l0.331,0.271h11.975v0.219h6.701V4.594h11.539V3.125H56.8l0.33,0.384v0.979
	l0.386-0.055L57.9,4.925v0.868H59 M42.074,14.004l-6.261,0.055c-0.623,0.614-1.064,1.069-1.318,1.36
	c-0.4,0.507-0.623,0.8-0.66,0.871c-0.26,0.408-0.41,0.875-0.436,1.358c-0.029,0.366,0.007,0.734,0.107,1.088
	c0.059,0.187,0.132,0.368,0.219,0.543l-0.384,0.272c-0.198-0.282-0.347-0.595-0.441-0.927c-0.26-0.503-0.392-1.063-0.386-1.629
	c0.078-0.736,0.364-1.434,0.825-2.012c0.161-0.266,0.363-0.505,0.6-0.707c-0.3,0.045-0.595,0.118-0.881,0.217
	c-0.527,0.145-1.015,0.405-1.428,0.762c-0.38,0.392-0.646,0.88-0.769,1.412c-0.15,0.504-0.111,1.045,0.111,1.522
	c0.217,0.433,0.537,0.808,0.932,1.089c0.428,0.301,0.915,0.506,1.429,0.601c0.33,0.033,0.862,0.056,1.593,0.056
	c0.405-0.063,0.819-0.027,1.207,0.106c0.894,0.108,1.794,0.146,2.694,0.11c0.809,0.02,1.618-0.036,2.417-0.164
	c0.496-0.75,0.868-1.576,1.1-2.445l0.825-2.286v-0.332c0.006-0.187-0.032-0.373-0.11-0.543c-0.171-0.156-0.377-0.269-0.601-0.327
	L42.074,14.004z"/>
<linearGradient id="shape2_2_" gradientUnits="userSpaceOnUse" x1="454.7275" y1="-264.9512" x2="413.9457" y2="-264.9512" gradientTransform="matrix(1 0 0 -1 -374.96 -242.6602)">
	<stop  offset="2.300000e-007" style="stop-color:#5D3F1C"/>
	<stop  offset="1" style="stop-color:#865524"/>
</linearGradient>
<path id="shape2_1_" fill="url(#shape2_2_)" d="M69.214,31.251c-0.313,0-0.625-0.05-0.923-0.147
	c-0.297,0.099-0.608,0.147-0.921,0.147h-8.193c-0.185,0-0.447-0.009-0.77-0.075c-0.217,0.051-0.439,0.075-0.664,0.075h-2.664
	c-0.816,0-1.605-0.342-2.166-0.937c-0.078-0.086-0.15-0.174-0.219-0.267l-0.91,0.65c-0.503,0.36-1.1,0.552-1.725,0.552h-3.584
	c-0.717,0-1.402-0.264-1.935-0.719c-0.616,0.424-1.35,0.654-2.114,0.654c-0.75,0-1.478-0.222-2.104-0.642
	c-0.164-0.11-0.315-0.233-0.452-0.37c-1.021-1.021-1.363-2.423-0.92-3.753l0.044-0.128l0.08-0.203
	c-1.801-0.254-3.145-1.765-3.145-3.646V22.24c0-0.741,0.274-1.45,0.773-1.996l4.748-5.232c0.646-1.069,1.762-1.679,3.079-1.679h0.41
	c2.065,0,3.684,1.618,3.684,3.684c0,0-0.001,0.289-0.003,0.331c0.555-0.653,1.372-1.044,2.26-1.044h8.398
	c0.261,0,0.518,0.034,0.768,0.101c0.25-0.067,0.508-0.101,0.771-0.101h9.218c0.243,0,0.482,0.029,0.717,0.087
	c0.233-0.058,0.475-0.087,0.719-0.087h8.396c0.917,0,1.797,0.433,2.354,1.159c0.56,0.726,0.752,1.689,0.515,2.573l-0.407,1.532
	c-0.146,0.541-0.433,1.02-0.829,1.395c-0.014,0.188-0.045,0.372-0.094,0.555l-0.41,1.537c-0.075,0.282-0.192,0.551-0.346,0.799
	c0.168,0.532,0.185,1.109,0.04,1.656l-0.413,1.539c-0.347,1.297-1.524,2.202-2.866,2.202H69.214z M66.175,23.782l0.013-0.009h-0.794
	l-0.002,0.009H66.175z"/>
<path id="ACE" fill="#FFFFFF" d="M43.403,23.163h-3.79c-0.409,0-0.717-0.308-0.717-0.718c0-0.104,0-0.104,0-0.204l5.018-5.531
	c0.103-0.307,0.31-0.41,0.615-0.41h0.41c0.409,0,0.717,0.308,0.717,0.717c0,0.102,0,0.205,0,0.205l-2.458,3.584h4.402
	c0.615,0,0.31,1.127-0.103,1.639l-4.507,5.531c-0.309,0.308-0.717,0.308-1.023,0.104c-0.205-0.206-0.309-0.41-0.205-0.719
	L43.403,23.163L43.403,23.163L43.403,23.163z M50.88,19.271l0.409,0.41l-4.813,8.603h3.584l2.15-1.536h2.971l-0.103,1.536h2.663
	l1.536-9.013H50.88L50.88,19.271z M55.386,20.809l-0.104,3.482h-2.97l2.048-3.482H55.386L55.386,20.809z M59.177,28.284h8.191
	l0.613-2.15l-0.819,0.614h-5.733l1.74-5.941h6.452l0.409-1.535h-9.218l-2.355,7.988c-0.102,0.104-0.102,0.309-0.102,0.409
	c0,0.103,0,0.205,0.103,0.31c0.102,0.103,0.205,0.203,0.307,0.203C58.97,28.284,59.074,28.284,59.177,28.284L59.177,28.284
	L59.177,28.284z M71.466,19.271l0.311,0.612l-2.563,8.398h8.193l0.41-1.536h-5.122l0.717-2.458h4.711l0.41-1.537h-4.506l0.612-1.944
	h4.815l0.409-1.535H71.466L71.466,19.271z"/>
</svg>
