<?xml version="1.0" encoding="utf-8"?>
<!-- Generator: Adobe Illustrator 16.0.0, SVG Export Plug-In . SVG Version: 6.00 Build 0)  -->
<!DOCTYPE svg PUBLIC "-//W3C//DTD SVG 1.1//EN" "http://www.w3.org/Graphics/SVG/1.1/DTD/svg11.dtd">
<svg version="1.1" id="case1" xmlns="http://www.w3.org/2000/svg" xmlns:xlink="http://www.w3.org/1999/xlink" x="0px" y="0px"
	 width="92px" height="36px" viewBox="0 0 92 36" enable-background="new 0 0 92 36" xml:space="preserve">

<linearGradient id="tec9_1_" gradientUnits="userSpaceOnUse" x1="10.8335" y1="17.4941" x2="63.834" y2="17.4941">
	<stop  offset="2.300000e-007" style="stop-color:#F0D9BA"/>
	<stop  offset="1" style="stop-color:#BB6B17"/>
</linearGradient>
<path id="tec9" fill="url(#tec9_1_)" d="M35.654,3.288c-0.003-0.022,0.013-0.042,0.035-0.045c0.003,0,0.007,0,0.011,0
	c0.056-0.027,0.117-0.042,0.18-0.042l0.043-0.043c0.022-0.026,0.053-0.043,0.087-0.047l0.047-0.042
	c0.022-0.026,0.054-0.042,0.089-0.044c-0.002-0.021,0.013-0.041,0.034-0.043c0.003,0,0.007,0,0.01,0h0.044V2.935
	c0.035,0,0.068-0.015,0.092-0.04l0.088-0.088c0.021,0.003,0.041-0.012,0.044-0.033c0-0.003,0-0.007,0-0.01
	c0.021,0.004,0.042-0.01,0.045-0.031c0.001-0.004,0.001-0.008,0-0.012c0.048,0.002,0.095-0.016,0.13-0.049
	c0.023-0.026,0.056-0.042,0.09-0.044h0.31V2.54h0.046V2.495c0.179,0,0.357,0.015,0.534,0.044v0.042
	c0.023,0.026,0.055,0.042,0.09,0.045V2.67c0.035,0.003,0.067,0.019,0.09,0.044l0.043,0.043c0.035,0.001,0.067,0.017,0.09,0.043
	v0.047c0.021-0.004,0.04,0.009,0.044,0.029c0,0.004,0.001,0.008,0,0.012c0.059,0,0.088,0.017,0.088,0.044
	c0.023,0.026,0.056,0.042,0.091,0.044c0.021-0.003,0.041,0.01,0.044,0.031c0,0.004,0,0.008,0,0.012
	c0.035,0.002,0.067,0.018,0.09,0.044c-0.002,0.021,0.014,0.041,0.035,0.042c0.003,0,0.006,0,0.01,0h0.095l0.044,0.049
	c0.024,0.024,0.055,0.04,0.089,0.043l0.047,0.088l0.086,0.042c0.049-0.004,0.098,0.013,0.135,0.045
	c0.032,0.028,0.06,0.058,0.089,0.088v1.189h19.235V4.167h0.133c0.002-0.034,0.018-0.065,0.043-0.088
	c0.021,0.003,0.041-0.01,0.045-0.031c0-0.004,0-0.008,0-0.012h0.043c0.004-0.034,0.02-0.065,0.045-0.087h0.047V3.861
	c0.033-0.002,0.066-0.018,0.088-0.044h0.041c0.004-0.034,0.02-0.065,0.047-0.087c0.021,0.003,0.041-0.012,0.043-0.034
	c0.002-0.003,0.002-0.006,0.002-0.01c0.02,0.004,0.039-0.01,0.043-0.031c0-0.004,0-0.009,0-0.013V3.595
	c-0.002-0.021,0.012-0.04,0.033-0.042c0.004,0,0.008,0,0.012,0l0.045-0.044V3.461h1.299v0.045l0.09,0.088
	c-0.002,0.021,0.012,0.041,0.033,0.043c0.004,0,0.008,0,0.01,0c-0.002,0.021,0.012,0.041,0.033,0.044c0.004,0,0.008,0,0.012,0v0.043
	c0.027,0.022,0.043,0.053,0.045,0.087h0.045l0.045,0.044l0.09,0.089v0.086h0.088c-0.002,0.021,0.012,0.04,0.033,0.043
	c0.004,0,0.008,0,0.012,0c0.002,0.035,0.018,0.067,0.045,0.088h0.088v0.439c0.023,0.026,0.057,0.042,0.09,0.044v0.133h0.27v0.217
	c0.035,0.029,0.068,0.06,0.1,0.093c0.039,0.03,0.086,0.045,0.135,0.042c0.002,0.035,0.018,0.067,0.045,0.089h0.045
	c0.053,0.035,0.115,0.051,0.178,0.043v0.752c0,0.028,0.029,0.045,0.09,0.045V6.28c0.037,0.03,0.086,0.045,0.135,0.043v0.484h0.223
	v0.22h1.434v0.131h0.268v2.237h-0.135c-0.537-0.03-1.088-0.043-1.654-0.043v0.043h-0.137v0.359h-0.135v0.353
	c-0.021,0.048-0.053,0.092-0.088,0.13c-0.002,0.034-0.018,0.066-0.043,0.089c-0.033,0.029-0.063,0.058-0.092,0.089v0.132
	c-0.055,0.027-0.117,0.042-0.18,0.043v0.175c-0.027,0.031-0.059,0.061-0.088,0.09v0.087l-0.043,0.043
	c0.002,0.022-0.014,0.042-0.037,0.045c-0.004,0-0.006,0-0.01,0v0.044l-0.043,0.044v0.089c-0.021-0.003-0.041,0.012-0.045,0.033
	c0,0.004,0,0.007,0,0.011h-0.18v0.264l-0.045,0.042v0.044h-0.672v-0.043l-12.875-0.087v0.044h-0.768v2.725H46.39v0.087l-0.984,0.088
	v0.044c-0.269,0-0.538-0.014-0.806-0.044h-0.313v0.088H44.2c-0.023,0.026-0.056,0.042-0.09,0.045v0.087h-0.087v0.13h-0.046
	c-0.027,0.022-0.043,0.054-0.046,0.088h-0.044v0.089l-0.045,0.045h-0.043c-0.026,0.021-0.042,0.052-0.045,0.086v0.045h-0.046
	c-0.025,0.023-0.041,0.055-0.043,0.089L43.53,15.34v0.087c-0.022-0.003-0.043,0.012-0.046,0.034c0,0.003,0,0.006,0,0.009h-0.044
	c-0.025,0.023-0.042,0.055-0.045,0.089v0.086c-0.034,0.002-0.066,0.018-0.088,0.044h-0.05v0.09c-0.02-0.003-0.039,0.011-0.042,0.031
	c0,0.003,0,0.006,0,0.01c-0.022-0.003-0.042,0.012-0.045,0.034c0,0.003,0,0.006,0,0.01v0.043c-0.022,0.026-0.055,0.042-0.089,0.044
	l-0.047,0.044v0.046h-0.043v0.089c-0.034,0.002-0.066,0.017-0.089,0.042v0.043c-0.021-0.004-0.041,0.011-0.045,0.032
	c0,0.004,0,0.008,0,0.012c-0.062,0-0.123,0.015-0.178,0.042l-0.045,0.094v0.042l-0.09,0.088v2.944h0.359
	c0.04,0.037,0.085,0.066,0.134,0.088c0,0.059,0.016,0.09,0.045,0.09c0.002,0.033,0.018,0.064,0.044,0.086v0.742l0.045,0.043v0.355
	c0.002,0.021-0.014,0.039-0.035,0.041c-0.003,0-0.006,0-0.01,0v0.045L43.082,21v0.309l-0.048,0.045v0.059
	c-0.021-0.004-0.042,0.012-0.045,0.033c0,0.002,0,0.006,0,0.01c0.003,0.021-0.012,0.041-0.033,0.045c-0.004,0-0.008,0-0.012,0v0.045
	c-0.021-0.004-0.041,0.012-0.044,0.033c0,0.004,0,0.006,0,0.01v0.176h-0.131c-0.035,0.002-0.067,0.018-0.09,0.043
	c0.003,0.021-0.012,0.041-0.033,0.045c-0.004,0-0.008,0-0.012,0c-0.023,0.025-0.055,0.041-0.09,0.043v0.043h-0.045
	c-0.034,0.004-0.066,0.018-0.089,0.043c-0.035,0.002-0.067,0.018-0.089,0.043h-0.087c0.003,0.021-0.012,0.043-0.033,0.045
	c-0.004,0-0.008,0-0.012,0v0.176c-0.034,0.002-0.066,0.018-0.088,0.043v0.219c-0.003,0.033-0.019,0.066-0.044,0.09l-0.048,0.041
	v9.857h-7.2V22.252h-0.047c-0.021-0.004-0.041,0.01-0.043,0.031c0,0.004,0,0.008,0,0.012v0.09c-0.031,0.027-0.061,0.055-0.093,0.086
	c-0.025,0.023-0.041,0.057-0.043,0.09v0.045c-0.041,0.035-0.086,0.064-0.135,0.088c-0.027,0.021-0.044,0.053-0.045,0.088
	c-0.025,0.021-0.041,0.055-0.043,0.088h-1.12v-0.09c-0.117-0.029-0.237-0.045-0.357-0.045c-0.027-0.021-0.045-0.053-0.049-0.088
	c-0.103-0.025-0.208-0.039-0.314-0.041v-0.133h-0.086v-2.461h-5.277v0.961c-1.014-0.029-2.027-0.045-3.041-0.045v0.045l-0.043,0.088
	c-0.025,0.041-0.041,0.086-0.045,0.135c-0.042,0.01-0.076,0.043-0.088,0.086l-0.045,0.043c0,0.057-0.014,0.088-0.045,0.088
	c-0.023,0.049-0.053,0.092-0.088,0.133v0.088c-0.027,0.021-0.043,0.053-0.045,0.086l-0.045,0.045v0.309
	c-0.042,0.021-0.087,0.037-0.134,0.043v0.088c-0.002,0.033-0.018,0.066-0.044,0.09c-0.03,0.027-0.061,0.057-0.091,0.088
	c-0.002,0.035-0.019,0.066-0.045,0.088c-0.002,0.035-0.018,0.066-0.044,0.09v0.307c-0.035,0.002-0.067,0.018-0.09,0.045
	c-0.026,0.021-0.042,0.055-0.043,0.088c-0.003,0.035-0.02,0.066-0.046,0.088c-0.036,0.039-0.066,0.084-0.09,0.131L23,23.26v0.178
	c-0.031,0.037-0.046,0.084-0.043,0.131v0.043l-0.044,0.09l-0.09,0.086v0.135c-0.034,0.002-0.065,0.018-0.088,0.043
	c0.006,0.043-0.024,0.082-0.067,0.088c-0.007,0.002-0.014,0.002-0.021,0v0.221l-0.047,0.043v0.348
	c-0.042,0.023-0.087,0.039-0.134,0.045v0.086l-0.043,0.088c-0.049,0.021-0.094,0.051-0.134,0.086v0.178l-0.044,0.088v0.221
	c-0.049-0.006-0.098,0.01-0.135,0.043v0.088c-0.032,0.037-0.048,0.084-0.045,0.133c-0.043,0.01-0.077,0.043-0.088,0.086L21.93,25.85
	v0.227c-0.035,0.002-0.067,0.02-0.09,0.045v0.088c-0.026,0.021-0.042,0.053-0.043,0.088c-0.026,0.021-0.042,0.053-0.045,0.086v0.178
	c-0.048-0.004-0.096,0.012-0.134,0.043v0.309c-0.049-0.006-0.097,0.012-0.133,0.043v0.088c-0.012,0.043-0.047,0.076-0.091,0.088
	v0.264l-0.044,0.09c-0.055,0.02-0.09,0.072-0.09,0.131v0.133c0,0.059-0.013,0.086-0.044,0.086c-0.055,0.021-0.091,0.074-0.091,0.133
	v0.127c0.022,0.055,0.076,0.092,0.135,0.09v0.086c0.037,0.033,0.085,0.051,0.134,0.047v0.129l0.04,0.049
	c0.001,0.035,0.018,0.066,0.045,0.088v0.09c0.036,0.039,0.066,0.084,0.089,0.131c0.021-0.002,0.041,0.012,0.043,0.033
	c0,0.004,0,0.008,0,0.01v1.008c-0.048-0.004-0.097,0.012-0.133,0.045v0.264c-0.062,0.029-0.121,0.057-0.18,0.088
	c-0.025,0.023-0.041,0.055-0.044,0.09c-0.329-0.027-0.64-0.045-0.941-0.045H20.27v-0.088c-0.388,0-0.791-0.014-1.209-0.045v-0.039
	c-0.567-0.027-1.146-0.061-1.743-0.088c0.001-0.021-0.014-0.039-0.035-0.041c-0.003,0-0.006,0-0.009,0
	c-0.628-0.029-1.254-0.043-1.88-0.043v-0.092c-0.179,0.002-0.358-0.014-0.534-0.045l-0.045-0.043h-1.522
	c-0.048,0.004-0.097-0.012-0.134-0.043c-0.086-0.027-0.176-0.043-0.267-0.043c0-0.031-0.032-0.043-0.09-0.043
	c-0.359-0.029-0.731-0.059-1.118-0.09c-0.024-0.023-0.056-0.039-0.09-0.043v-0.264c-0.165,0-0.33-0.014-0.492-0.043
	c-0.022-0.025-0.054-0.043-0.088-0.045v-0.133c-0.062-0.057-0.122-0.115-0.18-0.176v-1.582c0.029-0.027,0.059-0.059,0.089-0.088
	c0.03-0.027,0.06-0.059,0.09-0.09v-0.174c0.03-0.029,0.059-0.059,0.088-0.088c0.003-0.035,0.02-0.066,0.046-0.088v-0.354
	c0.002-0.033,0.019-0.064,0.045-0.086c0.025-0.023,0.041-0.055,0.043-0.088v-0.4h0.09V25.51c0.022-0.027,0.055-0.041,0.09-0.043
	c0.022-0.041,0.037-0.086,0.043-0.131c0.001-0.035,0.018-0.068,0.045-0.09V25.16c0.022-0.027,0.054-0.043,0.088-0.045v-0.354
	c0.023-0.025,0.056-0.041,0.09-0.041v-0.178l0.176-0.086v-0.262c0.044-0.014,0.079-0.047,0.092-0.09v-0.178
	c0.029-0.027,0.059-0.059,0.089-0.088c0.03-0.027,0.06-0.059,0.09-0.088l0.088-0.088v-0.09h0.134v-0.221
	c0.029-0.027,0.06-0.057,0.089-0.088c-0.001-0.023,0.016-0.043,0.039-0.043c0.003,0,0.006,0,0.008,0
	c0.023-0.039,0.04-0.084,0.048-0.129c0.002-0.035,0.02-0.066,0.048-0.088c0.048-0.023,0.092-0.053,0.133-0.088V22.74
	c0.025-0.023,0.041-0.055,0.043-0.088c0.026-0.021,0.042-0.053,0.046-0.088V22.52c0.041-0.021,0.085-0.037,0.132-0.043
	c0-0.059,0.017-0.086,0.046-0.086c0.023-0.041,0.038-0.086,0.043-0.133l0.046-0.088c-0.003-0.021,0.012-0.041,0.033-0.045
	c0.004,0,0.009,0,0.013,0c0-0.057,0.015-0.088,0.043-0.088V21.82c0.049-0.023,0.094-0.055,0.134-0.092v-0.184
	c0.043-0.012,0.078-0.045,0.089-0.09c0.003-0.033,0.019-0.064,0.045-0.088l0.088-0.088v-0.084c0.039-0.039,0.085-0.07,0.136-0.092
	v-0.088c0.026-0.021,0.042-0.053,0.043-0.088c0.027-0.02,0.043-0.053,0.045-0.086c0.002-0.035,0.019-0.066,0.046-0.088
	c0.03-0.031,0.058-0.059,0.089-0.09v-0.086l0.085-0.084c0.026-0.021,0.042-0.053,0.045-0.086c0.038-0.039,0.082-0.07,0.129-0.094
	v-0.088h0.09v-0.133c0.026-0.021,0.042-0.053,0.043-0.086c0.043-0.012,0.077-0.047,0.089-0.09c0.042-0.023,0.087-0.037,0.134-0.043
	v-0.219c0.048,0.002,0.096-0.014,0.134-0.043v-0.09l0.091-0.088V19.35c0.049-0.023,0.095-0.053,0.135-0.088v-0.178
	c0.048,0.004,0.095-0.012,0.132-0.041v-0.088c0.032-0.031,0.06-0.063,0.09-0.09v-0.088c0.049-0.021,0.094-0.051,0.133-0.088v-0.086
	c0.041-0.035,0.086-0.064,0.135-0.088v-0.09c0.031-0.03,0.06-0.057,0.089-0.089v-0.172c0.049-0.022,0.094-0.052,0.135-0.088v-0.176
	c0.041-0.024,0.086-0.04,0.133-0.044c0.005-0.046,0.021-0.091,0.044-0.132l0.045-0.089v-0.041c0-0.057,0.014-0.088,0.045-0.088
	c0.043-0.032,0.075-0.078,0.089-0.13v-0.136c0.034-0.043,0.081-0.074,0.134-0.087v-0.133l0.044-0.087l0.045-0.045v-0.22
	c0.043-0.011,0.078-0.045,0.089-0.089c0.028-0.02,0.045-0.051,0.049-0.085v-0.133c0.038-0.032,0.087-0.047,0.136-0.044v-0.351
	c-0.059-0.028-0.107-0.075-0.136-0.133v-0.131c-0.048-0.022-0.093-0.052-0.132-0.089v-0.175c-0.032-0.029-0.062-0.059-0.089-0.087
	c-0.047-0.006-0.093-0.022-0.134-0.047V15.13L15.792,15v-0.134c-0.03-0.028-0.059-0.058-0.089-0.088
	c-0.03-0.03-0.076-0.073-0.133-0.132c-0.047-0.005-0.093-0.02-0.135-0.043v-0.177c-0.036-0.039-0.066-0.083-0.089-0.13v-0.583
	h-2.192v-0.087c-0.072-0.025-0.148-0.04-0.225-0.043V13.54c-0.036-0.032-0.084-0.049-0.132-0.045
	c-0.031-0.029-0.06-0.06-0.089-0.089c-0.011-0.043-0.044-0.078-0.087-0.089c-0.049-0.021-0.094-0.052-0.132-0.09
	c-0.033-0.035-0.05-0.082-0.047-0.13c-0.034-0.003-0.066-0.019-0.089-0.044v-0.087c-0.04-0.036-0.085-0.065-0.134-0.088v-0.043
	c-0.039-0.036-0.084-0.065-0.133-0.087c-0.047-0.005-0.092-0.02-0.134-0.042v-0.223l-0.093-0.088
	c-0.061-0.001-0.121-0.016-0.176-0.043v-0.087c-0.031-0.031-0.061-0.059-0.09-0.089v-0.174h-0.089V7.377h0.088V6.763h0.09V6.674
	l0.268-0.089c0.025-0.022,0.04-0.053,0.043-0.086c0.027-0.022,0.044-0.055,0.046-0.09h0.045c0.076-0.003,0.15-0.018,0.222-0.043
	c0.003-0.034,0.019-0.066,0.045-0.088V6.195c0.037-0.04,0.067-0.084,0.09-0.133c0.077-0.003,0.152-0.018,0.224-0.044
	c0.03-0.028,0.059-0.06,0.089-0.088c0.026-0.022,0.043-0.055,0.046-0.089c0.071-0.035,0.146-0.063,0.221-0.086
	c0.012-0.044,0.047-0.079,0.092-0.09V5.619l0.043-0.044c0.049,0.004,0.097-0.011,0.134-0.042V5.486
	c0.06-0.028,0.12-0.058,0.18-0.088l0.044-0.043c0.049-0.022,0.095-0.052,0.136-0.088c0.055-0.029,0.116-0.044,0.178-0.044
	c0.001-0.035,0.018-0.067,0.045-0.089l0.179-0.089c0.04-0.036,0.085-0.065,0.134-0.087c0.027-0.021,0.044-0.053,0.048-0.087H14.5
	V4.783c0.048-0.022,0.093-0.052,0.133-0.088V4.649c0.073-0.035,0.148-0.064,0.226-0.087c0.041-0.024,0.085-0.039,0.132-0.044V4.387
	c0.048,0.003,0.096-0.012,0.134-0.042h0.044V4.3h0.044V4.034c0.121-0.004,0.242,0.011,0.359,0.043V3.683h0.044
	c0.023-0.025,0.055-0.041,0.089-0.044V3.552h0.044c0.027-0.022,0.043-0.055,0.045-0.089c-0.003-0.021,0.012-0.041,0.033-0.044
	c0.004,0,0.008,0,0.012,0V3.33c0.3,0,0.611,0.017,0.938,0.045v0.044c0.117,0.03,0.237,0.045,0.358,0.044v0.308
	c-0.002,0.021,0.013,0.041,0.035,0.043c0.003,0,0.007,0,0.011,0c-0.004,0.049,0.012,0.097,0.044,0.134l0.048,0.087v0.352
	c6.08,0,12.163,0.015,18.248,0.044v-1.1h0.043C35.598,3.329,35.631,3.313,35.654,3.288z M32.969,16.178
	c-0.03-0.029-0.058-0.059-0.088-0.087v-0.178c-0.029-0.029-0.061-0.059-0.089-0.089v-0.261c-0.041-0.036-0.086-0.066-0.135-0.089
	v-0.13c-0.048-0.007-0.093-0.023-0.134-0.049V15.21c-0.03-0.029-0.059-0.059-0.09-0.089c-0.031-0.03-0.059-0.059-0.088-0.09
	c-0.21,0-0.42-0.014-0.628-0.041h-2.416l0.047,0.041v0.223h0.045v0.04l0.04,0.049c-0.002,0.021,0.013,0.039,0.034,0.041
	c0.003,0,0.006,0,0.01,0v0.089l0.044,0.044c0.027,0.021,0.043,0.054,0.045,0.088h0.047c0.002,0.035,0.019,0.067,0.046,0.089h0.044
	c-0.003,0.021,0.012,0.041,0.033,0.044c0.003,0,0.007,0,0.011,0c0.028,0.027,0.058,0.057,0.089,0.086v0.044
	c0.026,0.022,0.043,0.054,0.045,0.088h0.09v0.088h0.087l0.048,0.05c0.026,0.021,0.042,0.053,0.045,0.087h0.042v0.083
	c0.023,0.025,0.056,0.041,0.09,0.042c0.021-0.003,0.042,0.013,0.045,0.035c0,0.003,0,0.006,0,0.009l0.044,0.044v0.042h0.045
	l0.045,0.044c0.023,0.026,0.055,0.042,0.089,0.043v0.044c-0.003,0.021,0.012,0.041,0.034,0.044c0.003,0,0.007,0,0.011,0h0.045
	c0.022,0.026,0.055,0.041,0.089,0.043c0.034,0.003,0.066,0.019,0.09,0.044c0.035,0.002,0.067,0.018,0.09,0.043v0.087l0.043,0.045
	h0.09c0.031,0.03,0.059,0.06,0.089,0.089l0.045,0.043v0.089l-0.045,0.044c-0.026,0.021-0.042,0.053-0.045,0.087l-0.044,0.043v0.089
	h-0.045v0.088c-0.021-0.003-0.042,0.011-0.045,0.032c0,0.003,0,0.006,0,0.01c-0.022-0.002-0.042,0.015-0.043,0.037
	c0,0.002,0,0.005,0,0.007h-0.047l-0.043,0.043h-0.4c-0.049,0.004-0.098-0.011-0.135-0.043H30.15
	c-0.026-0.023-0.059-0.036-0.093-0.037h-0.087c-0.023-0.025-0.056-0.04-0.09-0.042l-0.047-0.05V17.36H29.61
	c-0.037-0.031-0.084-0.046-0.133-0.043c0.003-0.021-0.011-0.041-0.032-0.044c-0.004-0.001-0.008-0.001-0.012,0l-0.043-0.043
	c-0.021,0.004-0.042-0.011-0.045-0.032c-0.001-0.004-0.001-0.009,0-0.013c-0.022,0.004-0.042-0.011-0.046-0.032
	c-0.001-0.003-0.001-0.006-0.001-0.009h-0.134l-0.044-0.048v-0.043c0.003-0.021-0.011-0.04-0.032-0.043c-0.004,0-0.008,0-0.012,0
	l-0.043-0.044c-0.023-0.025-0.055-0.041-0.089-0.043c0.002-0.022-0.014-0.042-0.037-0.045c-0.002,0-0.005,0-0.008,0
	c-0.022,0.004-0.042-0.011-0.046-0.033c0-0.004,0-0.008,0-0.012c0.001-0.021-0.015-0.04-0.037-0.042c-0.003,0-0.005,0-0.008,0
	l-0.045-0.046v-0.043c0.002-0.022-0.014-0.042-0.036-0.044c-0.003,0-0.006,0-0.009,0l-0.044-0.043
	c-0.023-0.026-0.055-0.042-0.09-0.044c0.002-0.022-0.014-0.042-0.036-0.044c-0.002,0-0.005,0-0.007,0
	c-0.02,0.003-0.04-0.01-0.043-0.03c-0.001-0.004-0.001-0.009,0-0.013c0.002-0.022-0.014-0.042-0.036-0.044c-0.003,0-0.006,0-0.009,0
	l-0.045-0.045v-0.044c0.002-0.022-0.015-0.042-0.038-0.044c-0.003,0-0.006,0-0.01,0c-0.021,0.003-0.04-0.011-0.043-0.031
	c0-0.003-0.001-0.007,0-0.011l-0.043-0.044c-0.023-0.025-0.055-0.041-0.089-0.043c0.001-0.022-0.015-0.041-0.037-0.042
	c-0.003,0-0.007,0-0.01,0c-0.002-0.035-0.018-0.067-0.044-0.089H28.05v-0.089l-0.045-0.044V15.87
	c-0.022-0.027-0.055-0.042-0.09-0.044v-0.042c-0.002-0.035-0.017-0.067-0.043-0.09c0.002-0.022-0.014-0.042-0.036-0.044
	c-0.003,0-0.006,0-0.009,0c0.002-0.022-0.015-0.042-0.038-0.044c-0.003,0-0.006,0-0.01,0v-0.131l-0.047-0.043v-0.175l-0.045-0.044
	c-0.002-0.034-0.018-0.066-0.044-0.089v-0.129h-0.087l-0.043,0.041c-0.049,0.022-0.095,0.053-0.134,0.09v0.043
	c-0.029,0.03-0.06,0.059-0.09,0.09L27.245,15.3c-0.025,0.022-0.041,0.054-0.044,0.088c-0.027,0.059-0.075,0.106-0.133,0.133v0.132
	c-0.006,0.047-0.021,0.093-0.045,0.134c-0.043,0.011-0.077,0.043-0.089,0.086v0.262c-0.037,0.038-0.068,0.083-0.09,0.131
	c-0.029,0.029-0.058,0.059-0.088,0.088c-0.024,0.041-0.04,0.085-0.045,0.132c-0.015,0.053-0.046,0.099-0.09,0.133
	c-0.005,0.046-0.02,0.091-0.043,0.131v0.22c-0.03,0.029-0.077,0.073-0.133,0.133v0.131c-0.028,0.021-0.045,0.054-0.048,0.089
	c-0.028,0.028-0.073,0.074-0.133,0.132v0.264c-0.03,0-0.045,0.029-0.045,0.087c-0.03,0.029-0.075,0.075-0.134,0.132v0.134
	c2.207,0.028,4.398,0.057,6.576,0.088v-0.355c0.049-0.022,0.095-0.051,0.135-0.087c0.028-0.03,0.06-0.058,0.089-0.089v-0.088
	c0.022-0.025,0.054-0.042,0.087-0.046v-0.216c0.062,0,0.124-0.015,0.179-0.043v-0.265c0.03-0.028,0.061-0.058,0.09-0.089
	c-0.002-0.034-0.019-0.065-0.045-0.087c-0.025-0.022-0.041-0.055-0.044-0.089V16.53c-0.026-0.022-0.042-0.054-0.045-0.088
	c-0.04-0.035-0.085-0.064-0.134-0.087v-0.086C32.969,16.234,32.969,16.206,32.969,16.178z M17.004,17.322v-0.045h-0.045v0.045
	H17.004z"/>
<linearGradient id="shape2_2_" gradientUnits="userSpaceOnUse" x1="457.2275" y1="-264.9512" x2="416.4457" y2="-264.9512" gradientTransform="matrix(1 0 0 -1 -374.96 -242.6602)">
	<stop  offset="2.300000e-007" style="stop-color:#5D3F1C"/>
	<stop  offset="1" style="stop-color:#865524"/>
</linearGradient>
<path id="shape2_1_" fill="url(#shape2_2_)" d="M71.714,31.251c-0.313,0-0.625-0.05-0.923-0.147
	c-0.297,0.099-0.608,0.147-0.921,0.147h-8.193c-0.185,0-0.447-0.009-0.77-0.075c-0.217,0.051-0.439,0.075-0.664,0.075h-2.664
	c-0.816,0-1.605-0.342-2.166-0.937c-0.078-0.086-0.15-0.174-0.219-0.267l-0.91,0.65c-0.503,0.36-1.1,0.552-1.725,0.552h-3.584
	c-0.717,0-1.402-0.264-1.935-0.719c-0.616,0.424-1.35,0.654-2.114,0.654c-0.75,0-1.478-0.222-2.104-0.642
	c-0.164-0.11-0.315-0.233-0.452-0.37c-1.021-1.021-1.363-2.423-0.92-3.753l0.044-0.128l0.08-0.203
	c-1.801-0.254-3.145-1.765-3.145-3.646V22.24c0-0.741,0.274-1.45,0.773-1.996l4.748-5.232c0.646-1.069,1.762-1.679,3.079-1.679h0.41
	c2.065,0,3.684,1.618,3.684,3.684c0,0-0.001,0.289-0.003,0.331c0.555-0.653,1.372-1.044,2.26-1.044h8.398
	c0.261,0,0.518,0.034,0.768,0.101c0.25-0.067,0.508-0.101,0.771-0.101h9.218c0.243,0,0.482,0.029,0.717,0.087
	c0.233-0.058,0.475-0.087,0.719-0.087h8.396c0.917,0,1.797,0.433,2.354,1.159c0.56,0.726,0.752,1.689,0.515,2.573l-0.407,1.532
	c-0.146,0.541-0.433,1.02-0.829,1.395c-0.014,0.188-0.045,0.372-0.094,0.555l-0.41,1.537c-0.075,0.282-0.192,0.551-0.346,0.799
	c0.168,0.532,0.185,1.109,0.04,1.656l-0.413,1.539c-0.347,1.297-1.524,2.202-2.866,2.202H71.714z M68.675,23.782l0.013-0.009h-0.794
	l-0.002,0.009H68.675z"/>
<path id="ACE" fill="#FFFFFF" d="M45.903,23.163h-3.79c-0.409,0-0.717-0.308-0.717-0.718c0-0.104,0-0.104,0-0.204l5.018-5.531
	c0.103-0.307,0.31-0.41,0.615-0.41h0.41c0.409,0,0.717,0.308,0.717,0.717c0,0.102,0,0.205,0,0.205l-2.458,3.584h4.402
	c0.615,0,0.31,1.127-0.103,1.639l-4.507,5.531c-0.309,0.308-0.717,0.308-1.023,0.104c-0.205-0.206-0.309-0.41-0.205-0.719
	L45.903,23.163L45.903,23.163L45.903,23.163z M53.38,19.271l0.409,0.41l-4.813,8.603h3.584l2.15-1.536h2.971l-0.103,1.536h2.663
	l1.536-9.013H53.38L53.38,19.271z M57.886,20.809l-0.104,3.482h-2.97l2.048-3.482H57.886L57.886,20.809z M61.677,28.284h8.191
	l0.613-2.15l-0.819,0.614h-5.733l1.74-5.941h6.452l0.409-1.535h-9.218l-2.355,7.988c-0.102,0.104-0.102,0.309-0.102,0.409
	c0,0.103,0,0.205,0.103,0.31c0.102,0.103,0.205,0.203,0.307,0.203C61.47,28.284,61.574,28.284,61.677,28.284L61.677,28.284
	L61.677,28.284z M73.966,19.271l0.311,0.612l-2.563,8.398h8.193l0.41-1.536h-5.122l0.717-2.458h4.711l0.41-1.537h-4.506l0.612-1.944
	h4.815l0.409-1.535H73.966L73.966,19.271z"/>
</svg>
