<?xml version="1.0" encoding="utf-8"?>
<!-- Generator: Adobe Illustrator 16.0.0, SVG Export Plug-In . SVG Version: 6.00 Build 0)  -->
<!DOCTYPE svg PUBLIC "-//W3C//DTD SVG 1.1//EN" "http://www.w3.org/Graphics/SVG/1.1/DTD/svg11.dtd">
<svg version="1.1" id="case1" xmlns="http://www.w3.org/2000/svg" xmlns:xlink="http://www.w3.org/1999/xlink" x="0px" y="0px"
	 width="92px" height="36px" viewBox="0 0 92 36" enable-background="new 0 0 92 36" xml:space="preserve">

<linearGradient id="shape_1_" gradientUnits="userSpaceOnUse" x1="1.334" y1="12.9277" x2="91.0791" y2="12.9277">
	<stop  offset="2.300000e-007" style="stop-color:#F0D9BA"/>
	<stop  offset="1" style="stop-color:#BB6B17"/>
</linearGradient>
<path id="shape" fill="url(#shape_1_)" d="M2.76,16.295c-0.056-0.652,0.381-1.23,0.975-1.292c0.596-0.059,1.123,0.419,1.178,1.07
	c0.003,0.038,0.005,0.075,0.005,0.112c0.026,0.622-0.412,1.149-0.98,1.18c-0.034,0.003-0.069,0.005-0.102,0.005
	C3.284,17.369,2.813,16.909,2.76,16.295 M35.232,4.333l-0.275,0.157l-0.871,2.514l-0.862,0.849l-0.987,0.458l-1.85,0.112
	l-0.235,0.423l-0.401,0.268V8.848l-0.196-0.323L6.301,9.16L5.645,9.897v0.637H5.277l-0.436,0.492v0.524H4.405l-0.458,0.492v0.559
	H3.506l-0.411,0.436v0.548L2.746,13.54l-0.47,0.458v0.515H1.84l-0.506,0.707l1.22,3.528l5.584-0.961l17.99-2.291
	c0,0,2.003-0.062,2.13-0.104c0.116-0.186,0.258-0.352,0.42-0.49c0.157,0.067,0.283,0.2,0.349,0.368
	c1.046,0.237,1.87,1.119,2.111,2.259c0.141,1.11,0.042,2.239-0.288,3.3l1.006,0.694c0,0,0.393-0.778,0.785-1.675
	c0.234-0.532,0.403-1.098,0.499-1.675c1.094-1.294,2.776-1.759,4.298-1.187c2.823,1.118,2.795,4.537,2.795,4.537
	s4.477-2.535,12.424-2.82c4.293-0.154,7.291,0.168,10.727,0.49c2.925,0.276,6.165,0.55,10.792,0.532
	c6.077-0.058,11.986-2.194,16.901-6.112c0,0-2.307-1.89-11.731-3.882C66.445,7.007,48.119,8.068,48.119,8.068
	c-0.041,0.228-0.196,0.411-0.4,0.477c-0.206-0.065-0.364-0.249-0.412-0.477l-0.494,0.021c-0.047,0.236-0.208,0.425-0.421,0.492
	c-0.196-0.042-0.351-0.212-0.388-0.428L45.48,8.164c-0.057,0.226-0.216,0.403-0.421,0.47c-0.196-0.05-0.344-0.229-0.371-0.447
	l-0.528,0.01c-0.012,0.237-0.177,0.429-0.391,0.458c-0.213-0.014-0.381-0.201-0.392-0.435l-0.557,0.011
	c-0.03,0.224-0.188,0.399-0.392,0.436c-0.203-0.032-0.357-0.221-0.362-0.447l-0.534,0.028c-0.054,0.244-0.228,0.434-0.45,0.493
	c-0.215-0.063-0.375-0.261-0.401-0.504L35.526,8.36l0.745-2.828V5.205L35.232,4.333z"/>
<linearGradient id="shape2_2_" gradientUnits="userSpaceOnUse" x1="79.7725" y1="-10.2515" x2="38.9911" y2="-10.2515" gradientTransform="matrix(1 0 0 -1 8.3398 12.04)">
	<stop  offset="2.300000e-007" style="stop-color:#5D3F1C"/>
	<stop  offset="1" style="stop-color:#865524"/>
</linearGradient>
<path id="shape2_1_" fill="url(#shape2_2_)" d="M77.559,31.251c-0.313,0-0.625-0.05-0.922-0.147
	c-0.298,0.099-0.609,0.147-0.922,0.147h-8.193c-0.185,0-0.447-0.009-0.77-0.075c-0.217,0.051-0.439,0.075-0.664,0.075h-2.664
	c-0.816,0-1.605-0.342-2.166-0.937c-0.078-0.086-0.15-0.174-0.219-0.267l-0.91,0.65c-0.503,0.36-1.1,0.552-1.725,0.552H54.82
	c-0.717,0-1.402-0.264-1.934-0.719c-0.617,0.424-1.351,0.654-2.115,0.654c-0.75,0-1.478-0.222-2.104-0.642
	c-0.164-0.11-0.315-0.233-0.452-0.37c-1.021-1.021-1.363-2.423-0.92-3.753l0.044-0.128l0.08-0.203
	c-1.801-0.254-3.145-1.765-3.145-3.646V22.24c0-0.741,0.274-1.45,0.773-1.996l4.748-5.232c0.646-1.069,1.762-1.679,3.079-1.679h0.41
	c2.065,0,3.684,1.618,3.684,3.684c0,0-0.001,0.289-0.003,0.331c0.555-0.653,1.372-1.044,2.26-1.044h8.398
	c0.261,0,0.518,0.034,0.768,0.101c0.25-0.067,0.508-0.101,0.771-0.101h9.218c0.243,0,0.482,0.029,0.717,0.087
	c0.233-0.058,0.475-0.087,0.719-0.087h8.396c0.917,0,1.797,0.433,2.354,1.159c0.56,0.726,0.752,1.689,0.515,2.573l-0.407,1.532
	c-0.146,0.541-0.434,1.02-0.829,1.395c-0.014,0.188-0.045,0.372-0.094,0.555l-0.41,1.537c-0.075,0.282-0.192,0.551-0.346,0.799
	c0.168,0.532,0.185,1.109,0.04,1.656l-0.413,1.539c-0.347,1.296-1.524,2.202-2.866,2.202H77.559z M74.52,23.782l0.013-0.009h-0.794
	l-0.002,0.009H74.52z"/>
<path id="ACE" fill="#FFFFFF" d="M51.748,23.163h-3.79c-0.409,0-0.717-0.308-0.717-0.718c0-0.104,0-0.104,0-0.204l5.018-5.531
	c0.103-0.307,0.31-0.41,0.615-0.41h0.41c0.409,0,0.717,0.308,0.717,0.717c0,0.102,0,0.205,0,0.205l-2.458,3.584h4.402
	c0.615,0,0.31,1.127-0.103,1.639l-4.507,5.531c-0.309,0.308-0.717,0.308-1.023,0.104c-0.205-0.206-0.309-0.41-0.205-0.719
	L51.748,23.163L51.748,23.163L51.748,23.163z M59.225,19.271l0.409,0.41l-4.813,8.603h3.584l2.15-1.536h2.971l-0.103,1.536h2.663
	l1.536-9.013H59.225L59.225,19.271z M63.73,20.809l-0.104,3.482h-2.97l2.048-3.482H63.73L63.73,20.809z M67.521,28.284h8.191
	l0.613-2.15l-0.819,0.614h-5.733l1.74-5.941h6.452l0.409-1.535h-9.218l-2.355,7.988C66.7,27.363,66.7,27.568,66.7,27.669
	c0,0.103,0,0.205,0.103,0.31c0.102,0.103,0.205,0.203,0.307,0.203C67.314,28.284,67.419,28.284,67.521,28.284L67.521,28.284
	L67.521,28.284z M79.811,19.271l0.311,0.612l-2.563,8.398h8.193l0.41-1.536H81.04l0.717-2.458h4.711l0.41-1.537h-4.506l0.612-1.944
	H87.8l0.409-1.535H79.811L79.811,19.271z"/>
</svg>
