<?xml version="1.0" encoding="utf-8"?>
<!-- Generator: Adobe Illustrator 16.0.0, SVG Export Plug-In . SVG Version: 6.00 Build 0)  -->
<!DOCTYPE svg PUBLIC "-//W3C//DTD SVG 1.1//EN" "http://www.w3.org/Graphics/SVG/1.1/DTD/svg11.dtd">
<svg version="1.1" id="case1" xmlns="http://www.w3.org/2000/svg" xmlns:xlink="http://www.w3.org/1999/xlink" x="0px" y="0px"
	 width="92px" height="36px" viewBox="0 0 92 36" enable-background="new 0 0 92 36" xml:space="preserve">

<linearGradient id="shape_1_" gradientUnits="userSpaceOnUse" x1="3" y1="16.0518" x2="88.0332" y2="16.0518">
	<stop  offset="2.300000e-007" style="stop-color:#F0D9BA"/>
	<stop  offset="1" style="stop-color:#BB6B17"/>
</linearGradient>
<path id="shape" fill="url(#shape_1_)" d="M34.493,20.443c-0.095-0.005-0.188-0.028-0.276-0.066c-0.128-0.1-0.269-0.18-0.417-0.24
	l-0.451-0.442c0.042-0.067,0.099-0.146,0.17-0.239c0.088-0.038,0.184-0.061,0.279-0.066c0.317-0.096,0.643-0.164,0.972-0.202
	c0.461-0.047,0.773-0.068,0.936-0.068h0.903c0.161-0.069,0.334-0.138,0.52-0.206c0.124-0.034,0.252-0.058,0.382-0.067
	c0.093,0,0.139,0.023,0.139,0.067v0.102c-0.067,0.292-0.162,0.576-0.278,0.851c-0.106,0.1-0.179,0.23-0.208,0.375
	c0,0.002,0,0.003,0,0.003c-0.021,0.133-0.146,0.223-0.277,0.201c-0.179,0.055-0.367,0.076-0.555,0.068h-1.109
	C34.978,20.512,34.734,20.486,34.493,20.443 M39.958,5.001c-0.231,0-0.463,0.051-0.677,0.154c-0.226,0.006-0.424,0.157-0.487,0.374
	l-0.138,0.169c-0.09,0.027-0.184,0.038-0.277,0.037c-0.143,0.052-0.295,0.076-0.448,0.066h-0.797c-0.533,0-1.099,0.012-1.7,0.034
	c-0.625,0.022-1.227,0.045-1.805,0.07c-0.36-0.016-0.72,0.006-1.076,0.068c-0.174-0.003-0.347-0.014-0.52-0.033
	c-0.257-0.032-0.514-0.078-0.766-0.138l-0.867-0.102c-0.232,0-0.589-0.01-1.076-0.033c-0.486-0.022-1.039-0.033-1.665-0.033
	c-0.647-0.045-1.317-0.067-2.011-0.067c-0.718-0.023-1.389-0.035-2.013-0.035c-0.483-0.061-0.969-0.095-1.458-0.103h-2.498
	L19.474,5.53c0,0.07-0.013,0.14-0.035,0.206c-0.042,0.081-0.088,0.16-0.14,0.237c-0.05,0.13-0.084,0.268-0.104,0.408
	c-0.077,0.254-0.099,0.521-0.069,0.784c0.046,0.292,0.069,0.588,0.069,0.884c0.024,0.319,0.059,0.613,0.104,0.886
	c0.047,0.228,0.069,0.352,0.069,0.375v0.274l2.013,0.135c0.115-0.002,0.23-0.013,0.345-0.033c0.082,0.001,0.165-0.009,0.242-0.033
	c0.062-0.042,0.135-0.066,0.209-0.067c0.091,0,0.416,0.022,0.971,0.067c0.533,0.022,1.146,0.033,1.838,0.033h1.941
	c0.624,0.022,1.029,0.033,1.213,0.033c0.433-0.104,0.875-0.172,1.318-0.203c0.455-0.043,0.907-0.112,1.354-0.207v0.137l0.17,0.647
	l0.28,0.543c0.023,0.091,0.071,0.174,0.139,0.239l0.276,0.204v0.545h-0.311l0.208-0.137v-0.137l-0.485-0.58l-0.556-0.136
	c-0.164-0.011-0.325-0.035-0.486-0.069c-0.109-0.056-0.214-0.125-0.312-0.203l-0.554,0.135l-0.74,0.41
	c-0.046,0.109-0.102,0.211-0.171,0.306c-0.077,0.05-0.136,0.123-0.171,0.207c-0.042,0.039-0.076,0.084-0.104,0.136
	c-0.506,0.053-1.015,0.075-1.524,0.068H24.98c-0.303-0.017-0.604,0.054-0.867,0.204c-0.271,0.102-0.528,0.239-0.765,0.409
	c-0.208,0.137-0.601,0.376-1.18,0.716c-0.578,0.295-0.994,0.5-1.248,0.613c-0.111,0.104-0.264,0.154-0.416,0.135
	c-0.231,0.021-0.416,0.033-0.555,0.033c-0.125-0.05-0.225-0.148-0.277-0.271c-0.099-0.149-0.181-0.31-0.242-0.476
	c-0.145-0.123-0.263-0.274-0.347-0.444h-0.17c-0.279,0-0.96,0.012-2.045,0.033c-1.111,0-2.267,0.023-3.469,0.069
	c-1.223,0.023-2.345,0.045-3.365,0.068c-0.625-0.031-1.252,0.004-1.87,0.102c-0.266,0.044-0.491,0.225-0.589,0.477
	c-0.116,0.273-0.219,0.521-0.312,0.748c-0.232,0-0.533,0.012-0.903,0.035H5.112c-0.395,0.046-0.75,0.078-1.075,0.102
	c-0.191,0.008-0.381,0.055-0.554,0.136c-0.109-0.033-0.227-0.007-0.313,0.069C3.123,14.458,3.065,14.526,3,14.587v0.887
	c0.032,0.188,0.088,0.371,0.17,0.544h0.104c0.024,0.365,0.07,0.729,0.138,1.09c0.047,0.568,0.07,1.146,0.07,1.737
	c0.001,0.183-0.011,0.363-0.035,0.543c-0.032,0.167-0.09,0.327-0.169,0.477v0.783c-0.003,0.221-0.04,0.442-0.106,0.652
	c-0.099,0.155-0.156,0.329-0.171,0.512v0.508c-0.003,0.284,0.009,0.568,0.035,0.851c0.069,0.273,0.261,0.5,0.519,0.612
	c0.22,0.095,0.461,0.12,0.695,0.07c0.348-0.002,0.695-0.025,1.04-0.07c0.345-0.045,0.718-0.09,1.11-0.136
	c0.348-0.045,0.637-0.09,0.868-0.137c0.38-0.107,0.75-0.244,1.11-0.406c0.694-0.251,1.538-0.547,2.532-0.885
	c1.063-0.387,2.185-0.784,3.365-1.19c1.249-0.455,2.393-0.887,3.432-1.297c1.111-0.384,2.07-0.725,2.881-1.02
	c0.809-0.274,1.282-0.432,1.419-0.477c0.209-0.068,0.405-0.126,0.589-0.171c0.131,0.007,0.263-0.017,0.383-0.066
	c0.069-0.017,0.138-0.028,0.208-0.035h5.382c0.248,0.098,0.464,0.262,0.624,0.475c0.192,0.344,0.243,0.747,0.14,1.124
	c-0.09,0.337-0.269,0.643-0.521,0.887c-0.23,0.249-0.45,0.477-0.658,0.681l-0.139,0.17c-0.229,0.159-0.418,0.368-0.555,0.61
	c-0.162,0.272-0.324,0.557-0.485,0.851c-0.158,0.264-0.297,0.536-0.417,0.818l-0.243,0.475l-0.102,0.139l0.277,0.169
	c0.671,0.546,1.378,1.046,2.116,1.499c0.432,0.306,0.913,0.535,1.422,0.68c0.101-0.012,0.195-0.047,0.278-0.104
	c0.163-0.126,0.292-0.29,0.38-0.477c0.14-0.25,0.336-0.603,0.59-1.056c0.254-0.479,0.542-1.114,0.867-1.908
	c0.163-0.271,0.3-0.556,0.415-0.85c0.064-0.194,0.157-0.379,0.279-0.545l0.169-0.169c0.093,0.046,0.221,0.114,0.382,0.206
	c0.166,0.093,0.34,0.172,0.52,0.235l0.487,0.308c0.533,0.188,1.103,0.261,1.665,0.205c0.603-0.018,1.2-0.133,1.768-0.34
	c0.321-0.234,0.574-0.553,0.729-0.918c0.226-0.507,0.411-1.031,0.554-1.566v-0.171h0.729l-0.278,0.58h0.278l0.345-0.58h0.594
	c0.161,1.795,0.277,3.213,0.347,4.256c0.113,0.953,0.197,1.69,0.242,2.212c0.07,0.522,0.105,0.816,0.105,0.885
	c0.015,0.067,0.026,0.138,0.033,0.206l0.139,0.134c0.063,0.012,0.126,0.019,0.191,0.019h0.035c0.064,0,0.128-0.007,0.191-0.019
	c0.206-0.045,0.518-0.1,0.935-0.169c0.418-0.045,0.996-0.125,1.733-0.237c0.671-0.161,1.354-0.296,2.048-0.41
	c0.383-0.017,0.762-0.109,1.108-0.271c0.087-0.16,0.148-0.263,0.172-0.308c0-0.159-0.035-0.51-0.106-1.054
	c-0.047-0.615-0.114-1.329-0.209-2.146c-0.068-0.841-0.149-1.726-0.241-2.657c-0.092-0.953-0.16-1.814-0.209-2.586h4.587v0.271
	l0.17,0.135c0.052,0.051,0.108,0.098,0.169,0.136c0.182,0.114,0.409,0.114,0.59,0c0.151-0.01,0.302-0.033,0.451-0.068
	c0.344-0.051,0.692-0.084,1.041-0.101c0.369-0.045,0.774-0.078,1.213-0.102c0.438-0.045,0.821-0.093,1.145-0.136h11.548v0.138
	h-0.068c0,0.066,0.024,0.1,0.07,0.1v0.171c0.069,0.021,0.16,0.056,0.276,0.103c0.366,0.068,0.738,0.091,1.11,0.068h0.278v-0.443
	h2.668l0.906,0.133c0.179,0.055,0.367,0.077,0.553,0.068c0.12,0.003,0.239-0.02,0.348-0.068l0.313-0.136v-1.157h0.623l0.277-0.51
	v-0.136c0.004-0.097,0.056-0.187,0.138-0.238l0.139-0.17h0.693l0.347,0.17l0.658-0.17c0.038-0.02,0.064-0.058,0.068-0.101
	c0.083-0.04,0.154-0.099,0.209-0.17h4.857l0.312,0.136c0.277,0.022,0.66,0.056,1.146,0.102c0.46,0.022,0.922,0.033,1.385,0.033
	c0.486,0.001,0.913-0.009,1.284-0.033c0.37-0.045,0.638-0.079,0.798-0.102c0.261-0.085,0.433-0.324,0.44-0.586v-0.044
	c-0.002-0.051-0.008-0.103-0.024-0.154c-0.045-0.43-0.092-0.805-0.138-1.124l-0.146-0.145h-9.85
	c-0.059-0.002-0.114-0.014-0.17-0.033l-0.102-0.098h-0.729l-0.069,0.102c-0.091,0.03-0.185,0.042-0.279,0.035h-0.101l0.105-0.137
	v-0.275c-0.063-0.095-0.165-0.158-0.278-0.17V11.62l-0.277-1.53l-0.279-0.784l-0.691-0.17c-0.151,0.014-0.296,0.075-0.416,0.17
	c-0.21,0.114-0.389,0.277-0.52,0.477l-0.109,0.1c-0.031,0.1-0.044,0.204-0.033,0.308c0.003,0.205,0.026,0.41,0.069,0.611
	c0.042,0.256,0.111,0.507,0.208,0.75h-7.04c-0.064-0.084-0.183-0.247-0.348-0.476c-0.043-0.109-0.114-0.204-0.207-0.273h-1.318
	c-0.063,0.054-0.133,0.1-0.208,0.136l-0.279,0.272c-0.188,0.012-0.374,0.047-0.554,0.108c-0.254,0.021-0.52,0.033-0.797,0.033
	c-0.198,0.01-0.396,0.032-0.591,0.07c-0.278,0-0.557,0.022-0.831,0.067c-0.278,0.046-0.544,0.08-0.799,0.102
	c-0.14-0.009-0.28,0.001-0.417,0.035H41.5c0.086-0.12,0.134-0.262,0.139-0.411c0.025-0.075,0.091-0.127,0.169-0.136
	c0.057-0.173,0.203-0.303,0.382-0.339c0.256-0.159,0.767-0.431,1.531-0.818h0.173c0.252-0.191,0.425-0.471,0.484-0.783h1.25
	c0.178-0.067,0.365-0.102,0.555-0.103c0.258,0.007,0.515,0.041,0.766,0.103c0.453,0.115,0.92,0.171,1.387,0.17
	c0.645,0.068,1.293,0.102,1.94,0.101h1.84c0.327,0.032,0.657-0.002,0.972-0.101c0.284-0.253,0.489-0.585,0.589-0.954
	c0.188-0.486,0.236-1.017,0.14-1.53c0.017-0.35-0.081-0.697-0.279-0.988c-0.152-0.17-0.363-0.277-0.59-0.305h-0.139
	c-0.41-0.087-0.828-0.123-1.249-0.103c-0.601,0-1.26,0.01-1.978,0.032c-0.671,0.046-1.318,0.104-1.942,0.17
	c-0.511,0.028-1.021,0.084-1.525,0.17c-0.684,0.146-1.388,0.18-2.084,0.104c-0.787-0.07-1.399-0.104-1.838-0.104L41.916,5.7
	c-0.157,0.012-0.311-0.051-0.415-0.17c-0.062-0.127-0.158-0.233-0.278-0.306c-0.144-0.055-0.298-0.078-0.451-0.068h-0.138
	C40.42,5.053,40.189,5.001,39.958,5.001z"/>
<linearGradient id="shape2_2_" gradientUnits="userSpaceOnUse" x1="79.7725" y1="-10.2515" x2="38.9911" y2="-10.2515" gradientTransform="matrix(1 0 0 -1 8.3398 12.04)">
	<stop  offset="2.300000e-007" style="stop-color:#5D3F1C"/>
	<stop  offset="1" style="stop-color:#865524"/>
</linearGradient>
<path id="shape2_1_" fill="url(#shape2_2_)" d="M77.559,31.251c-0.313,0-0.625-0.05-0.922-0.147
	c-0.298,0.099-0.609,0.147-0.922,0.147h-8.193c-0.185,0-0.447-0.009-0.77-0.075c-0.217,0.051-0.439,0.075-0.664,0.075h-2.664
	c-0.816,0-1.605-0.342-2.166-0.937c-0.078-0.086-0.15-0.174-0.219-0.267l-0.91,0.65c-0.503,0.36-1.1,0.552-1.725,0.552H54.82
	c-0.717,0-1.402-0.264-1.934-0.719c-0.617,0.424-1.351,0.654-2.115,0.654c-0.75,0-1.478-0.222-2.104-0.642
	c-0.164-0.11-0.315-0.233-0.452-0.37c-1.021-1.021-1.363-2.423-0.92-3.753l0.044-0.128l0.08-0.203
	c-1.801-0.254-3.145-1.765-3.145-3.646V22.24c0-0.741,0.274-1.45,0.773-1.996l4.748-5.232c0.646-1.069,1.762-1.679,3.079-1.679h0.41
	c2.065,0,3.684,1.618,3.684,3.684c0,0-0.001,0.289-0.003,0.331c0.555-0.653,1.372-1.044,2.26-1.044h8.398
	c0.261,0,0.518,0.034,0.768,0.101c0.25-0.067,0.508-0.101,0.771-0.101h9.218c0.243,0,0.482,0.029,0.717,0.087
	c0.233-0.058,0.475-0.087,0.719-0.087h8.396c0.917,0,1.797,0.433,2.354,1.159c0.56,0.726,0.752,1.689,0.515,2.573l-0.407,1.532
	c-0.146,0.541-0.434,1.02-0.829,1.395c-0.014,0.188-0.045,0.372-0.094,0.555l-0.41,1.537c-0.075,0.282-0.192,0.551-0.346,0.799
	c0.168,0.532,0.185,1.109,0.04,1.656l-0.413,1.539c-0.347,1.296-1.524,2.202-2.866,2.202H77.559z M74.52,23.782l0.013-0.009h-0.794
	l-0.002,0.009H74.52z"/>
<path id="ACE" fill="#FFFFFF" d="M51.748,23.163h-3.79c-0.409,0-0.717-0.308-0.717-0.718c0-0.104,0-0.104,0-0.204l5.018-5.531
	c0.103-0.307,0.31-0.41,0.615-0.41h0.41c0.409,0,0.717,0.308,0.717,0.717c0,0.102,0,0.205,0,0.205l-2.458,3.584h4.402
	c0.615,0,0.31,1.127-0.103,1.639l-4.507,5.531c-0.309,0.308-0.717,0.308-1.023,0.104c-0.205-0.206-0.309-0.41-0.205-0.719
	L51.748,23.163L51.748,23.163L51.748,23.163z M59.225,19.271l0.409,0.41l-4.813,8.603h3.584l2.15-1.536h2.971l-0.103,1.536h2.663
	l1.536-9.013H59.225L59.225,19.271z M63.73,20.809l-0.104,3.482h-2.97l2.048-3.482H63.73L63.73,20.809z M67.521,28.284h8.191
	l0.613-2.15l-0.819,0.614h-5.733l1.74-5.941h6.452l0.409-1.535h-9.218l-2.355,7.988C66.7,27.363,66.7,27.568,66.7,27.669
	c0,0.103,0,0.205,0.103,0.31c0.102,0.103,0.205,0.203,0.307,0.203C67.314,28.284,67.419,28.284,67.521,28.284L67.521,28.284
	L67.521,28.284z M79.811,19.271l0.311,0.612l-2.563,8.398h8.193l0.41-1.536H81.04l0.717-2.458h4.711l0.41-1.537h-4.506l0.612-1.944
	H87.8l0.409-1.535H79.811L79.811,19.271z"/>
</svg>
