<?xml version="1.0" encoding="utf-8"?>
<!-- Generator: Adobe Illustrator 16.0.0, SVG Export Plug-In . SVG Version: 6.00 Build 0)  -->
<!DOCTYPE svg PUBLIC "-//W3C//DTD SVG 1.1//EN" "http://www.w3.org/Graphics/SVG/1.1/DTD/svg11.dtd">
<svg version="1.1" id="case1" xmlns="http://www.w3.org/2000/svg" xmlns:xlink="http://www.w3.org/1999/xlink" x="0px" y="0px"
	 width="92px" height="36px" viewBox="0 0 92 36" enable-background="new 0 0 92 36" xml:space="preserve">

<linearGradient id="knife_bowie_1_" gradientUnits="userSpaceOnUse" x1="0.4883" y1="11.2998" x2="90.6133" y2="11.2998">
	<stop  offset="2.300000e-007" style="stop-color:#F0D9BA"/>
	<stop  offset="1" style="stop-color:#BB6B17"/>
</linearGradient>
<path id="knife_bowie" fill="url(#knife_bowie_1_)" d="M89.747,10.709c-0.653,0.511-1.314,1.005-1.986,1.481
	c-0.078,0.059-0.16,0.114-0.245,0.165c-2.014,1.417-4.246,2.494-6.608,3.186c-2.347,0.619-4.755,0.969-7.182,1.044
	c-2.436,0.098-4.875-0.106-7.262-0.605c-0.923-0.201-1.896-0.432-2.911-0.687c-1.158-0.294-1.859-0.456-2.093-0.495
	c-1.565-0.341-3.159-0.542-4.761-0.604c-1.867-0.109-4.559-0.118-8.076-0.027l-4.706,0.137l-0.297,0.661l-2.83-0.058
	c-0.054-0.12-0.127-0.231-0.215-0.33c-0.243-0.259-0.529-0.472-0.844-0.633c-0.356-0.169-0.73-0.298-1.116-0.385l-0.487-0.075
	l-0.162,2.363l-0.655,0.631c-0.414,0.397-0.77,0.85-1.059,1.346c-0.28,0.542-0.5,1.114-0.656,1.703
	c-0.126,0.366-0.224,0.688-0.298,0.963h-1.523c0.018-0.786,0.155-1.564,0.407-2.31c0.184-0.418,0.382-0.832,0.599-1.234l0.302-0.495
	c-0.149-0.273-0.313-0.54-0.492-0.794c-0.287-0.458-0.634-0.874-1.034-1.237c-0.361-0.273-0.68-0.598-0.949-0.962l-0.357-0.525
	c-0.363-0.202-0.744-0.369-1.138-0.498c-0.778-0.26-1.622-0.25-2.394,0.028c-0.144,0.055-0.878,0.402-2.202,1.042
	c-0.822,0.405-1.689,0.71-2.584,0.908c-1.357,0.233-2.743,0.261-4.108,0.082c-1.526-0.152-3.042-0.391-4.541-0.714
	c-1.615-0.401-2.746-0.668-3.4-0.797c-0.857-0.204-1.729-0.342-2.608-0.412c-0.727-0.014-1.455,0.024-2.177,0.112
	c-0.337,0.027-0.673,0.073-1.004,0.138l-1.01,0.826l-0.221,0.989c-0.042,0.425-0.213,0.827-0.489,1.152
	c-0.233,0.165-0.559,0.367-0.977,0.605l-0.706-0.057c-0.197-0.115-0.38-0.255-0.544-0.414c-0.359-0.314-0.639-0.71-0.816-1.152
	c-0.207-0.646-0.272-1.33-0.191-2.004l0.136-1.265l-0.788-0.521v-1.26L1.089,9.42c0-0.313,0.016-0.66,0.053-1.044
	c0.023-0.557,0.142-1.104,0.35-1.621C1.637,6.45,1.865,6.191,2.151,6.011c0.281-0.142,0.585-0.235,0.897-0.275
	c0.245-0.068,0.507,0.006,0.68,0.193c0.068,0.078,0.114,0.173,0.134,0.275C5.568,6.093,7.464,5.982,9.55,5.871
	c4.206-0.236,7.315-0.337,9.327-0.301c1.796,0.018,4.443,0.155,7.94,0.41c3.209,0.263,5.004,0.375,5.384,0.361
	c0.544-0.029,1.083-0.122,1.606-0.276c0.37-0.107,0.733-0.236,1.088-0.384c0.218-0.099,0.471-0.088,0.68,0.029
	c0.085,0.044,0.145,0.125,0.164,0.219c0.182-0.167,0.398-0.367,0.652-0.607c0.395-0.366,0.742-0.781,1.033-1.234
	c0.247-0.413,0.438-0.856,0.571-1.318l0.133-0.66h1.306v0.688c-0.043,0.477-0.144,0.947-0.301,1.399
	c-0.16,0.433-0.379,0.84-0.651,1.211c-0.12,0.188-0.257,0.363-0.409,0.525l7.668,0.105l-0.488-0.77l1.797,0.77l1.276,0.056
	L47.727,5.22l2.013,0.875h1.251l-0.6-0.875l2.013,0.933h1.17l-0.599-0.768l1.957,0.825l1.225,0.082l-0.514-0.91l1.878,0.907
	l1.303,0.055l-0.545-0.907l1.878,0.909l1.359,0.053l-0.652-0.881l1.713,0.881l1.415-0.11l-0.463-0.714l1.876,0.824l1.005,0.027
	c0.908,0,1.903-0.047,2.992-0.137c1.777-0.167,3.454-0.35,5.03-0.55l0.545,0.413c0.452,0.31,0.933,0.612,1.441,0.906
	c1.428,0.874,2.976,1.532,4.596,1.951c2.017,0.428,4.063,0.703,6.12,0.823l0.624,0.055c1.051,0.073,2.002,0.12,2.855,0.139
	L89.747,10.709z"/>
<linearGradient id="shape2_2_" gradientUnits="userSpaceOnUse" x1="463.8936" y1="-264.9512" x2="423.1117" y2="-264.9512" gradientTransform="matrix(1 0 0 -1 -374.96 -242.6602)">
	<stop  offset="2.300000e-007" style="stop-color:#5D3F1C"/>
	<stop  offset="1" style="stop-color:#865524"/>
</linearGradient>
<path id="shape2_1_" fill="url(#shape2_2_)" d="M78.38,31.251c-0.313,0-0.625-0.05-0.923-0.147
	c-0.297,0.099-0.608,0.147-0.921,0.147h-8.193c-0.185,0-0.447-0.009-0.77-0.075c-0.217,0.051-0.439,0.075-0.664,0.075h-2.664
	c-0.816,0-1.605-0.342-2.166-0.937c-0.078-0.086-0.15-0.174-0.219-0.267l-0.91,0.65c-0.503,0.36-1.1,0.552-1.725,0.552h-3.584
	c-0.717,0-1.402-0.264-1.935-0.719c-0.616,0.424-1.35,0.654-2.114,0.654c-0.75,0-1.478-0.222-2.104-0.642
	c-0.164-0.11-0.315-0.233-0.452-0.37c-1.021-1.021-1.363-2.423-0.92-3.753l0.044-0.128l0.08-0.203
	c-1.801-0.254-3.145-1.765-3.145-3.646V22.24c0-0.741,0.274-1.45,0.773-1.996l4.748-5.232c0.646-1.069,1.762-1.679,3.079-1.679h0.41
	c2.065,0,3.684,1.618,3.684,3.684c0,0-0.001,0.289-0.003,0.331c0.555-0.653,1.372-1.044,2.26-1.044h8.398
	c0.261,0,0.518,0.034,0.768,0.101c0.25-0.067,0.508-0.101,0.771-0.101H79.2c0.243,0,0.482,0.029,0.717,0.087
	c0.233-0.058,0.475-0.087,0.719-0.087h8.396c0.917,0,1.797,0.433,2.354,1.159c0.56,0.726,0.752,1.689,0.515,2.573l-0.407,1.532
	c-0.146,0.541-0.433,1.02-0.829,1.395c-0.014,0.188-0.045,0.372-0.094,0.555l-0.41,1.537c-0.075,0.282-0.192,0.551-0.346,0.799
	c0.168,0.532,0.185,1.109,0.04,1.656l-0.413,1.539c-0.347,1.297-1.524,2.202-2.866,2.202H78.38z M75.341,23.782l0.013-0.009H74.56
	l-0.002,0.009H75.341z"/>
<path id="ACE" fill="#FFFFFF" d="M52.569,23.163h-3.79c-0.409,0-0.717-0.308-0.717-0.718c0-0.104,0-0.104,0-0.204l5.018-5.531
	c0.103-0.307,0.31-0.41,0.615-0.41h0.41c0.409,0,0.717,0.308,0.717,0.717c0,0.102,0,0.205,0,0.205l-2.458,3.584h4.402
	c0.615,0,0.31,1.127-0.103,1.639l-4.507,5.531c-0.309,0.308-0.717,0.308-1.023,0.104c-0.205-0.206-0.309-0.41-0.205-0.719
	L52.569,23.163L52.569,23.163L52.569,23.163z M60.046,19.271l0.409,0.41l-4.813,8.603h3.584l2.15-1.536h2.971l-0.103,1.536h2.663
	l1.536-9.013H60.046L60.046,19.271z M64.552,20.809l-0.104,3.482h-2.97l2.048-3.482H64.552L64.552,20.809z M68.343,28.284h8.191
	l0.613-2.15l-0.819,0.614h-5.733l1.74-5.941h6.452l0.409-1.535h-9.218l-2.355,7.988c-0.102,0.104-0.102,0.309-0.102,0.409
	c0,0.103,0,0.205,0.103,0.31c0.102,0.103,0.205,0.203,0.307,0.203C68.136,28.284,68.24,28.284,68.343,28.284L68.343,28.284
	L68.343,28.284z M80.632,19.271l0.311,0.612l-2.563,8.398h8.193l0.41-1.536h-5.122l0.717-2.458h4.711l0.41-1.537h-4.506l0.612-1.944
	h4.815l0.409-1.535H80.632L80.632,19.271z"/>
</svg>
