<?xml version="1.0" encoding="utf-8"?>
<!-- Generator: Adobe Illustrator 16.0.0, SVG Export Plug-In . SVG Version: 6.00 Build 0)  -->
<!DOCTYPE svg PUBLIC "-//W3C//DTD SVG 1.1//EN" "http://www.w3.org/Graphics/SVG/1.1/DTD/svg11.dtd">
<svg version="1.1" id="case1" xmlns="http://www.w3.org/2000/svg" xmlns:xlink="http://www.w3.org/1999/xlink" x="0px" y="0px"
	 width="92px" height="36px" viewBox="0 0 92 36" enable-background="new 0 0 92 36" xml:space="preserve">

<linearGradient id="knife_survival_bowie_1_" gradientUnits="userSpaceOnUse" x1="0.875" y1="14.501" x2="91" y2="14.501">
	<stop  offset="2.300000e-007" style="stop-color:#F0D9BA"/>
	<stop  offset="1" style="stop-color:#BB6B17"/>
</linearGradient>
<path id="knife_survival_bowie" fill="url(#knife_survival_bowie_1_)" d="M90.132,13.919c-0.652,0.508-1.314,0.997-1.985,1.469
	c-0.079,0.059-0.161,0.113-0.245,0.164c-2.017,1.406-4.248,2.473-6.608,3.159c-2.347,0.613-4.756,0.96-7.18,1.033
	c-2.437,0.097-4.875-0.104-7.261-0.599c-0.926-0.2-1.897-0.427-2.914-0.681c-1.157-0.29-1.858-0.455-2.093-0.489
	c-1.566-0.339-3.16-0.54-4.761-0.599c-1.868-0.107-4.56-0.117-8.076-0.028l-4.705,0.136l-0.294,0.659l-2.83-0.056
	c-0.054-0.12-0.126-0.23-0.214-0.328c-0.244-0.255-0.529-0.467-0.844-0.626c-0.356-0.167-0.731-0.295-1.115-0.382l-0.49-0.081
	l-0.161,2.338L37.7,19.633c-0.412,0.394-0.769,0.841-1.059,1.33c-0.278,0.539-0.498,1.104-0.654,1.69
	c-0.126,0.363-0.224,0.681-0.297,0.952h-1.523c0.017-0.779,0.153-1.552,0.407-2.288c0.182-0.416,0.381-0.826,0.598-1.226
	l0.297-0.487c-0.148-0.271-0.312-0.535-0.491-0.787c-0.286-0.453-0.633-0.863-1.03-1.222c-0.361-0.27-0.681-0.59-0.95-0.952
	l-0.357-0.519c-0.364-0.198-0.746-0.362-1.14-0.491c-0.779-0.257-1.621-0.247-2.394,0.029c-0.146,0.053-0.879,0.397-2.203,1.033
	c-0.822,0.401-1.69,0.704-2.584,0.899c-1.358,0.23-2.742,0.257-4.107,0.081c-1.525-0.152-3.042-0.387-4.541-0.707
	c-1.614-0.399-2.746-0.664-3.401-0.79c-0.858-0.202-1.729-0.339-2.608-0.409c-0.728-0.013-1.455,0.024-2.176,0.11
	c-0.338,0.027-0.673,0.072-1.006,0.135l-1.011,0.819l-0.214,0.979c-0.042,0.422-0.212,0.821-0.489,1.142
	C4.53,19.12,4.204,19.32,3.787,19.557l-0.706-0.055c-0.197-0.116-0.38-0.253-0.546-0.41c-0.359-0.311-0.641-0.701-0.819-1.142
	c-0.208-0.64-0.272-1.319-0.191-1.987l0.137-1.254l-0.786-0.518v-1.254l0.599-0.299c0-0.31,0.016-0.653,0.053-1.035
	c0.023-0.552,0.141-1.096,0.35-1.607C2.021,9.694,2.248,9.44,2.53,9.262c0.282-0.141,0.584-0.233,0.896-0.273
	C3.67,8.92,3.933,8.995,4.105,9.181C4.173,9.259,4.22,9.353,4.242,9.454c1.704-0.109,3.599-0.219,5.685-0.329
	c4.206-0.234,7.315-0.334,9.327-0.299c1.795,0.019,4.442,0.155,7.941,0.406C30.405,9.49,32.2,9.608,32.58,9.59
	c0.544-0.028,1.083-0.12,1.605-0.273c0.371-0.106,0.736-0.234,1.093-0.382c0.218-0.099,0.47-0.088,0.679,0.029
	c0.085,0.043,0.145,0.123,0.164,0.217c0.182-0.165,0.398-0.365,0.651-0.6c0.395-0.363,0.743-0.774,1.034-1.224
	c0.246-0.409,0.438-0.849,0.572-1.308l0.133-0.653h1.306v0.679c-0.042,0.473-0.144,0.938-0.3,1.386
	c-0.16,0.428-0.379,0.832-0.651,1.199c-0.12,0.186-0.256,0.359-0.408,0.519l7.669,0.108l-0.489-0.764l1.797,0.764l1.274,0.055
	L48.11,8.47l2.015,0.872h1.252l-0.6-0.872l2.013,0.926h1.172L53.36,8.632l1.96,0.819l1.224,0.081l-0.517-0.897l1.876,0.897
	l1.307,0.052l-0.547-0.9l1.878,0.9L61.9,9.637l-0.65-0.872l1.711,0.875l1.416-0.109l-0.463-0.707l1.877,0.819l1.001,0.028
	c0.91,0,1.902-0.045,2.992-0.137c1.776-0.164,3.453-0.346,5.03-0.546l0.546,0.409c0.452,0.307,0.933,0.606,1.442,0.897
	c1.43,0.866,2.979,1.516,4.6,1.93c2.017,0.425,4.062,0.699,6.12,0.819l0.624,0.053c1.053,0.075,2.004,0.122,2.854,0.14
	L90.132,13.919z"/>
<linearGradient id="shape2_2_" gradientUnits="userSpaceOnUse" x1="462.7275" y1="-264.9512" x2="421.9457" y2="-264.9512" gradientTransform="matrix(1 0 0 -1 -374.96 -242.6602)">
	<stop  offset="2.300000e-007" style="stop-color:#5D3F1C"/>
	<stop  offset="1" style="stop-color:#865524"/>
</linearGradient>
<path id="shape2_1_" fill="url(#shape2_2_)" d="M77.214,31.251c-0.313,0-0.625-0.05-0.923-0.147
	c-0.297,0.099-0.608,0.147-0.921,0.147h-8.193c-0.185,0-0.447-0.009-0.77-0.075c-0.217,0.051-0.439,0.075-0.664,0.075h-2.664
	c-0.816,0-1.605-0.342-2.166-0.937c-0.078-0.086-0.15-0.174-0.219-0.267l-0.91,0.65c-0.503,0.36-1.1,0.552-1.725,0.552h-3.584
	c-0.717,0-1.402-0.264-1.935-0.719c-0.616,0.424-1.35,0.654-2.114,0.654c-0.75,0-1.478-0.222-2.104-0.642
	c-0.164-0.11-0.315-0.233-0.452-0.37c-1.021-1.021-1.363-2.423-0.92-3.753l0.044-0.128l0.08-0.203
	c-1.801-0.254-3.145-1.765-3.145-3.646V22.24c0-0.741,0.274-1.45,0.773-1.996l4.748-5.232c0.646-1.069,1.762-1.679,3.079-1.679h0.41
	c2.065,0,3.684,1.618,3.684,3.684c0,0-0.001,0.289-0.003,0.331c0.555-0.653,1.372-1.044,2.26-1.044h8.398
	c0.261,0,0.518,0.034,0.768,0.101c0.25-0.067,0.508-0.101,0.771-0.101h9.218c0.243,0,0.482,0.029,0.717,0.087
	c0.233-0.058,0.475-0.087,0.719-0.087h8.396c0.917,0,1.797,0.433,2.354,1.159c0.56,0.726,0.752,1.689,0.515,2.573l-0.407,1.532
	c-0.146,0.541-0.433,1.02-0.829,1.395c-0.014,0.188-0.045,0.372-0.094,0.555l-0.41,1.537c-0.075,0.282-0.192,0.551-0.346,0.799
	c0.168,0.532,0.185,1.109,0.04,1.656l-0.413,1.539c-0.347,1.297-1.524,2.202-2.866,2.202H77.214z M74.175,23.782l0.013-0.009h-0.794
	l-0.002,0.009H74.175z"/>
<path id="ACE" fill="#FFFFFF" d="M51.403,23.163h-3.79c-0.409,0-0.717-0.308-0.717-0.718c0-0.104,0-0.104,0-0.204l5.018-5.531
	c0.103-0.307,0.31-0.41,0.615-0.41h0.41c0.409,0,0.717,0.308,0.717,0.717c0,0.102,0,0.205,0,0.205l-2.458,3.584h4.402
	c0.615,0,0.31,1.127-0.103,1.639l-4.507,5.531c-0.309,0.308-0.717,0.308-1.023,0.104c-0.205-0.206-0.309-0.41-0.205-0.719
	L51.403,23.163L51.403,23.163L51.403,23.163z M58.88,19.271l0.409,0.41l-4.813,8.603h3.584l2.15-1.536h2.971l-0.103,1.536h2.663
	l1.536-9.013H58.88L58.88,19.271z M63.386,20.809l-0.104,3.482h-2.97l2.048-3.482H63.386L63.386,20.809z M67.177,28.284h8.191
	l0.613-2.15l-0.819,0.614h-5.733l1.74-5.941h6.452l0.409-1.535h-9.218l-2.355,7.988c-0.102,0.104-0.102,0.309-0.102,0.409
	c0,0.103,0,0.205,0.103,0.31c0.102,0.103,0.205,0.203,0.307,0.203C66.97,28.284,67.074,28.284,67.177,28.284L67.177,28.284
	L67.177,28.284z M79.466,19.271l0.311,0.612l-2.563,8.398h8.193l0.41-1.536h-5.122l0.717-2.458h4.711l0.41-1.537h-4.506l0.612-1.944
	h4.815l0.409-1.535H79.466L79.466,19.271z"/>
</svg>
