<?xml version="1.0" encoding="utf-8"?>
<!-- Generator: Adobe Illustrator 16.0.0, SVG Export Plug-In . SVG Version: 6.00 Build 0)  -->
<!DOCTYPE svg PUBLIC "-//W3C//DTD SVG 1.1//EN" "http://www.w3.org/Graphics/SVG/1.1/DTD/svg11.dtd">
<svg version="1.1" id="case1" xmlns="http://www.w3.org/2000/svg" xmlns:xlink="http://www.w3.org/1999/xlink" x="0px" y="0px"
	 width="92px" height="36px" viewBox="0 0 92 36" enable-background="new 0 0 92 36" xml:space="preserve">

<linearGradient id="shape_1_" gradientUnits="userSpaceOnUse" x1="3" y1="15.7744" x2="87.25" y2="15.7744">
	<stop  offset="2.300000e-007" style="stop-color:#F0D9BA"/>
	<stop  offset="1" style="stop-color:#BB6B17"/>
</linearGradient>
<path id="shape" fill="url(#shape_1_)" d="M44.873,18.069l0.019-0.021l0.019,0.022v0.039L44.873,18.069z M42.396,19.113
	c-0.001-0.032-0.017-0.063-0.039-0.084v-0.08c-0.044-0.02-0.083-0.046-0.118-0.079c-0.024-0.019-0.039-0.048-0.04-0.079
	c-0.025-0.021-0.04-0.052-0.04-0.085v-0.157c-0.022-0.021-0.038-0.048-0.039-0.078v-0.989c0.023-0.02,0.038-0.048,0.039-0.081
	l0.04-0.04c0.001-0.031,0.016-0.058,0.04-0.079c0.001-0.031,0.014-0.062,0.038-0.084c0.002-0.03,0.016-0.059,0.039-0.079v-0.758
	c-0.002-0.03-0.015-0.06-0.039-0.081c0.026-0.026,0.052-0.053,0.079-0.08c0.001-0.03,0.016-0.059,0.039-0.079
	c0.027-0.027,0.051-0.053,0.077-0.08c0.026-0.028,0.052-0.052,0.078-0.08c0.055,0,0.109-0.015,0.157-0.04l0.155-0.079
	c0.031-0.001,0.059-0.016,0.08-0.039h0.157v0.353c0.023,0.019,0.038,0.048,0.04,0.078c0.001,0.032,0.016,0.061,0.039,0.081v0.278
	c0.002,0.03,0.016,0.059,0.04,0.08c0.023,0.021,0.038,0.052,0.04,0.084c0.023,0.021,0.038,0.048,0.04,0.079v0.118
	c0,0.03,0.013,0.062,0.035,0.084v0.071c0.002,0.03,0.016,0.059,0.039,0.079v0.161l0.08,0.079c0.003,0.03,0.017,0.059,0.039,0.079
	c0,0.003,0,0.007,0,0.01c0.002,0.018,0.02,0.033,0.04,0.03c0.001,0.03,0.016,0.06,0.039,0.079c0.026,0.026,0.051,0.054,0.079,0.08
	c0.027,0.026,0.053,0.052,0.079,0.08l0.078,0.08c0.026,0.026,0.051,0.053,0.079,0.078c0.028,0.027,0.053,0.053,0.08,0.082
	l0.077,0.078c0.042,0.004,0.083,0.019,0.12,0.041c0.026,0.027,0.054,0.053,0.079,0.079c0.036,0.034,0.075,0.06,0.118,0.081
	c0.043,0.003,0.083,0.017,0.119,0.039h0.042c0.003,0.031,0.016,0.059,0.04,0.079l0.157,0.08c0.054,0.001,0.108,0.015,0.157,0.04
	h0.036c0.003,0.03,0.018,0.059,0.041,0.078c0.041,0.005,0.08,0.02,0.117,0.04h0.273c0.031-0.002,0.06-0.015,0.079-0.04h0.04
	c0.001-0.031,0.016-0.059,0.039-0.078l0.04-0.04v-0.08h0.04c0.002-0.03,0.016-0.059,0.039-0.079l0.04-0.039v-0.153
	c-0.002-0.03-0.017-0.059-0.04-0.08c-0.001-0.03-0.015-0.059-0.039-0.079c-0.037-0.021-0.076-0.036-0.119-0.041
	c-0.03-0.001-0.059-0.017-0.078-0.041c-0.031-0.001-0.059-0.016-0.079-0.038c-0.002-0.03-0.016-0.059-0.039-0.08
	c-0.026-0.026-0.051-0.052-0.079-0.079l-0.081-0.077c-0.023-0.022-0.036-0.049-0.039-0.08l-0.04-0.039v-0.08
	c-0.042-0.02-0.083-0.047-0.118-0.079c-0.001-0.03-0.015-0.059-0.04-0.079c0-0.032-0.015-0.063-0.04-0.084
	c-0.001-0.03-0.016-0.059-0.039-0.079l-0.074-0.083c-0.023-0.02-0.038-0.049-0.041-0.078l-0.039-0.032v-0.08l-0.078-0.08v-0.239
	c-0.024-0.02-0.039-0.049-0.041-0.08c-0.022-0.02-0.036-0.048-0.04-0.079v-0.439c0.003-0.031,0.017-0.058,0.04-0.079l0.019-0.039
	h4.261v2.941h-0.077l-0.157,0.079l-0.077,0.079c-0.046,0.021-0.086,0.048-0.121,0.079c-0.049,0.025-0.103,0.04-0.156,0.04
	c-0.035,0.02-0.076,0.034-0.115,0.039c-0.02,0.023-0.049,0.038-0.08,0.04c-0.037,0.021-0.076,0.035-0.117,0.041
	c-0.037,0.02-0.076,0.033-0.117,0.038c-0.031,0-0.059,0.017-0.078,0.039h-1.218c0.001-0.004,0.001-0.007,0-0.008
	c-0.001-0.021-0.02-0.034-0.04-0.031c-0.042,0.002-0.085-0.011-0.118-0.038h-3.927V19.113z M32.142,15.208
	c0.073-0.026,0.14-0.066,0.196-0.121c0.121-0.02,0.233-0.04,0.337-0.059c0.015,0.013,0.026,0.026,0.037,0.039
	c0.023,0.031,0.041,0.065,0.059,0.1c0.053,0.05,0.104,0.105,0.156,0.159H32.81l-0.04-0.04h-0.864L32.142,15.208z M26.957,14.167
	l-0.157,0.08c-0.045,0.048-0.099,0.09-0.157,0.122c-0.015,0.03-0.034,0.056-0.058,0.079c-0.018,0.016-0.038,0.028-0.059,0.04
	c-0.08,0.026-0.17,0.052-0.275,0.08c-0.048,0.025-0.102,0.039-0.157,0.041l-0.157,0.078c-0.084,0.056-0.178,0.097-0.275,0.12
	c-0.101,0.03-0.223,0.057-0.354,0.084c-0.048,0.025-0.102,0.039-0.156,0.04c-0.02,0.024-0.049,0.038-0.079,0.039
	c-0.047,0.024-0.101,0.038-0.154,0.041c-0.071,0.023-0.145,0.036-0.219,0.039h-0.019l-0.247,0.08l-0.804,0.277h-0.059l-0.02,0.021
	l-0.06,0.021c-0.05,0.026-0.104,0.052-0.158,0.079c-0.098,0.051-0.204,0.091-0.312,0.119c-0.101,0.051-0.206,0.09-0.314,0.12
	c-0.078,0.025-0.157,0.051-0.237,0.079c-0.048,0.026-0.101,0.039-0.156,0.04c-0.021,0.023-0.047,0.037-0.078,0.039
	c-0.103,0.026-0.209,0.04-0.315,0.04c-0.057,0.02-0.116,0.032-0.176,0.039h-0.058c-0.05,0.025-0.104,0.04-0.158,0.041
	c-0.021,0.022-0.049,0.037-0.079,0.039c-0.024,0.013-0.055,0.027-0.079,0.04c-0.025,0.012-0.051,0.024-0.079,0.039
	c-0.045,0.047-0.098,0.088-0.157,0.119c-0.044,0.047-0.098,0.088-0.157,0.119l-0.235,0.078c-0.08,0.031-0.157,0.059-0.234,0.084
	c-0.078,0.025-0.161,0.05-0.237,0.078c-0.077,0.029-0.155,0.057-0.234,0.085l-0.235,0.079c-0.079,0.026-0.159,0.053-0.235,0.08
	c-0.084,0.055-0.177,0.097-0.276,0.119c-0.105,0.03-0.223,0.057-0.353,0.084c-0.076,0.024-0.155,0.038-0.235,0.038
	c-0.08,0.026-0.157,0.053-0.235,0.08c-0.072,0.05-0.151,0.09-0.236,0.118c-0.079,0.028-0.156,0.053-0.236,0.08
	c-0.077,0.024-0.159,0.033-0.239,0.029l-0.235,0.079c-0.079,0.026-0.157,0.052-0.235,0.08l-0.235,0.079
	c-0.077,0.028-0.156,0.052-0.236,0.079c-0.048,0.026-0.102,0.039-0.156,0.04c-0.02,0.024-0.048,0.037-0.079,0.039
	c-0.05,0.026-0.104,0.039-0.159,0.04c-0.076,0.025-0.155,0.039-0.234,0.038c-0.079,0.028-0.16,0.057-0.237,0.085
	c-0.077,0.026-0.158,0.053-0.236,0.078c-0.078,0.027-0.156,0.051-0.234,0.08c-0.072,0.051-0.152,0.091-0.236,0.122
	c-0.182,0.024-0.365,0.05-0.55,0.078c-0.076,0.026-0.154,0.039-0.234,0.039c-0.049,0.025-0.102,0.039-0.157,0.04
	c-0.019,0.024-0.048,0.039-0.079,0.042c-0.05,0.024-0.104,0.052-0.156,0.078c-0.055,0.056-0.123,0.097-0.196,0.121
	c-0.065,0.03-0.131,0.058-0.199,0.08c-0.051,0.025-0.103,0.054-0.157,0.078c-0.072,0.052-0.151,0.091-0.234,0.12l-0.235,0.078
	c-0.079,0.025-0.152,0.051-0.236,0.08c-0.072,0.051-0.152,0.09-0.235,0.118c-0.079,0.026-0.158,0.055-0.234,0.081
	c-0.075,0.025-0.156,0.037-0.237,0.037c-0.048,0.026-0.102,0.04-0.157,0.041c-0.021,0.022-0.049,0.037-0.08,0.039
	c-0.102,0.025-0.207,0.039-0.313,0.039c-0.076,0.027-0.157,0.04-0.236,0.04l-0.235,0.079c-0.079,0.027-0.156,0.054-0.235,0.08
	c-0.079,0.025-0.156,0.054-0.235,0.08s-0.156,0.051-0.235,0.078c-0.079,0.026-0.155,0.055-0.236,0.08
	c-0.079,0.026-0.155,0.05-0.234,0.079c-0.08,0.029-0.156,0.06-0.236,0.085c-0.08,0.023-0.155,0.053-0.235,0.079
	c-0.08,0.026-0.157,0.05-0.237,0.08l-0.234,0.076c-0.048,0.026-0.101,0.041-0.156,0.042c-0.077,0.026-0.158,0.052-0.235,0.079
	c-0.101,0.052-0.207,0.09-0.315,0.119l-0.235,0.079c-0.049,0.027-0.103,0.039-0.159,0.039c-0.019,0.025-0.048,0.039-0.078,0.04
	c-0.048,0.025-0.102,0.038-0.156,0.04c-0.076,0.026-0.156,0.039-0.235,0.04c-0.049,0.025-0.104,0.039-0.157,0.04l-0.158,0.08
	c-0.072,0.05-0.152,0.09-0.235,0.118c-0.078,0.031-0.157,0.056-0.236,0.085c-0.047,0.023-0.102,0.037-0.156,0.039
	c-0.02,0.022-0.049,0.037-0.08,0.039c-0.047,0.024-0.102,0.038-0.156,0.038c-0.076,0.026-0.155,0.039-0.236,0.04
	c-0.047,0.027-0.102,0.042-0.158,0.043c-0.019,0.024-0.049,0.038-0.079,0.04c-0.039,0.012-0.077,0.019-0.116,0.021v-0.061
	l0.039-0.039H5.79c0.036-0.02,0.076-0.035,0.117-0.037c0.026-0.056,0.052-0.107,0.079-0.16v-0.04l-0.039-0.038
	c-0.002-0.033-0.016-0.063-0.04-0.085h-0.06c0.015-0.024,0.021-0.051,0.02-0.079c0.028-0.033,0.043-0.077,0.04-0.121v-0.038H5.75
	c0-0.003,0-0.007,0-0.009c-0.001-0.02-0.019-0.032-0.039-0.031c-0.03,0-0.058-0.016-0.078-0.038h-0.04v-0.039l-0.041-0.039v-0.041
	H5.514v-0.079H5.505c-0.02-0.003-0.033-0.02-0.03-0.039v-0.117h-0.04v-0.08H5.426c-0.019-0.002-0.034-0.021-0.03-0.04V18.79
	c-0.001-0.004-0.001-0.008,0-0.01c0.003-0.021,0.02-0.033,0.039-0.03v-0.56c0-0.002,0-0.006,0-0.009
	c0.003-0.02,0.02-0.032,0.04-0.03v-2.904c-0.005,0.001-0.009,0.001-0.013,0c-0.017-0.003-0.031-0.02-0.027-0.038v-0.644
	c0-0.002,0-0.007,0-0.01c0.003-0.019,0.02-0.032,0.04-0.03v-0.04c0-0.003,0-0.006,0-0.009c0.001-0.018,0.02-0.033,0.039-0.03v-0.04
	l0.079-0.079c0.019-0.024,0.048-0.039,0.078-0.041h0.039c0.009-0.012,0.023-0.02,0.039-0.02v-0.021
	c0.024-0.02,0.038-0.048,0.042-0.08H26.957z M78.494,11.309l0.018-0.019l0.021,0.019c0.021,0.011,0.039,0.025,0.058,0.039
	l-0.02,0.039h-0.235C78.389,11.36,78.439,11.333,78.494,11.309 M55.299,3.77l0.02-0.021l0.08,0.04v0.018
	C55.369,3.795,55.334,3.783,55.299,3.77 M80.99,3.233c-0.021,0.011-0.04,0.022-0.06,0.039l-0.022,0.019l-0.021-0.019
	c-0.013-0.011-0.025-0.026-0.039-0.039H80.99 M80.853,2.715c-0.004,0.032-0.018,0.061-0.042,0.08c-0.313,0-0.613,0.012-0.903,0.039
	c-0.049,0.027-0.104,0.042-0.161,0.043c-0.077,0.025-0.157,0.039-0.236,0.04c-0.043-0.002-0.085,0.012-0.117,0.039
	c-0.025,0.027-0.055,0.052-0.078,0.08v1.433c-0.002,0.003-0.002,0.006,0,0.01c0.002,0.019,0.021,0.032,0.039,0.029
	c0.002,0.031,0.016,0.059,0.039,0.079v0.317c-0.025,0.021-0.037,0.049-0.039,0.08c-0.003,0.03-0.018,0.059-0.039,0.08
	c0,0.003,0,0.007,0,0.01c-0.005,0.019-0.022,0.031-0.04,0.029c-0.025,0.028-0.052,0.054-0.078,0.08v0.075
	c-0.024,0.021-0.039,0.05-0.039,0.082c-0.001,0.03-0.017,0.057-0.039,0.078c-0.002,0.03-0.017,0.059-0.041,0.079
	c0.001,0.031-0.01,0.061-0.032,0.083l-0.077,0.079c-0.02,0.025-0.05,0.039-0.08,0.042l-0.081,0.079H64.079v0.037h-0.118
	c-0.023-0.02-0.037-0.049-0.039-0.079c-0.023-0.02-0.038-0.049-0.04-0.079c-0.024-0.026-0.051-0.053-0.077-0.08
	c-0.027-0.027-0.053-0.053-0.079-0.079c-0.009-0.011-0.024-0.023-0.039-0.04v-0.08c-0.024-0.021-0.038-0.049-0.038-0.079
	c-0.03-0.001-0.06-0.017-0.08-0.039c-0.021-0.023-0.049-0.038-0.08-0.04V5.104c-0.003,0-0.006,0-0.008,0
	c-0.02-0.002-0.032-0.021-0.03-0.039c-0.025-0.026-0.052-0.053-0.077-0.079c-0.054-0.026-0.104-0.052-0.157-0.081h-0.197v0.034
	h-0.119c-0.001-0.001-0.006-0.001-0.009,0c-0.019,0.002-0.032,0.02-0.03,0.039h-1.728l-0.039-0.039
	c-0.003-0.032-0.016-0.06-0.038-0.08c-0.024-0.02-0.038-0.049-0.042-0.079c-0.024-0.026-0.051-0.054-0.078-0.08l-0.04-0.04V4.583
	c-0.022-0.02-0.037-0.049-0.038-0.08c-0.002-0.03-0.018-0.06-0.041-0.079c-0.001-0.031-0.017-0.059-0.039-0.08
	c-0.022-0.021-0.037-0.049-0.04-0.079V3.912c-0.023-0.02-0.038-0.048-0.038-0.078c-0.002-0.033-0.016-0.063-0.04-0.084
	c-0.037-0.021-0.076-0.035-0.117-0.04h-0.118V3.75c-0.021,0.023-0.049,0.038-0.08,0.039c-0.001,0.03-0.014,0.06-0.038,0.08
	c-0.048,0.025-0.102,0.039-0.155,0.039v0.041l-0.041,0.04l-0.157,0.079h-0.04c-0.02,0.023-0.046,0.039-0.076,0.042
	c-0.024,0.024-0.053,0.05-0.08,0.078c-0.052,0.026-0.104,0.052-0.155,0.079c-0.049,0.026-0.102,0.039-0.158,0.04v0.04
	c-0.02,0.023-0.048,0.039-0.079,0.04c-0.023,0.02-0.04,0.049-0.042,0.08c-0.048,0.025-0.103,0.039-0.156,0.039
	c-0.003,0.031-0.016,0.059-0.039,0.079c-0.057,0.001-0.109,0.015-0.159,0.04c-0.048,0.026-0.104,0.04-0.155,0.04
	c-0.051,0.025-0.104,0.039-0.16,0.039v0.04c-0.019,0.024-0.048,0.039-0.077,0.04v0.194h-1.375L57.16,4.939
	c-0.001-0.032-0.017-0.06-0.039-0.08c-0.024-0.02-0.038-0.049-0.04-0.079l-0.079-0.08c-0.041-0.005-0.081-0.019-0.117-0.04v-0.08
	c-0.043-0.018-0.083-0.045-0.116-0.078l-0.041-0.04c-0.013-0.013-0.026-0.026-0.039-0.039c-0.002-0.031-0.017-0.06-0.038-0.08
	c-0.044-0.02-0.083-0.046-0.118-0.079c-0.044,0.003-0.086-0.011-0.117-0.039L56.381,4.19c-0.025-0.027-0.052-0.054-0.08-0.078
	c-0.024-0.031-0.052-0.058-0.078-0.085c-0.028-0.025-0.05-0.052-0.078-0.079c-0.028-0.027-0.055-0.052-0.079-0.079l-0.078-0.08
	c-0.024-0.027-0.053-0.052-0.08-0.08c-0.03-0.001-0.058-0.015-0.077-0.038c-0.024-0.02-0.038-0.049-0.039-0.08
	c-0.026-0.027-0.055-0.053-0.079-0.08c-0.025-0.027-0.053-0.052-0.078-0.08L55.555,3.35c-0.035-0.021-0.076-0.034-0.117-0.04h-0.394
	c-0.001,0.031-0.015,0.06-0.039,0.08h-0.275c-0.025-0.025-0.051-0.05-0.076-0.078c-0.02,0.024-0.05,0.039-0.081,0.039h-0.077v0.08
	L54.457,3.39v0.043c-0.043,0.006-0.082,0.019-0.12,0.041v0.194c-0.021,0.021-0.037,0.05-0.039,0.079
	c-0.024,0.03-0.051,0.056-0.077,0.085L54.142,3.91c-0.027,0.026-0.056,0.053-0.078,0.079v0.08l-0.039,0.042
	c-0.026,0.025-0.056,0.052-0.081,0.078l-0.078,0.08c-0.003-0.001-0.005-0.001-0.01,0c-0.019,0.001-0.032,0.02-0.03,0.039h-0.079
	c-0.022,0.025-0.049,0.052-0.078,0.08c-0.02,0.023-0.048,0.038-0.078,0.039c-0.025,0.019-0.038,0.047-0.04,0.079h-0.073v0.041
	l-0.039,0.04l-0.078,0.08c-0.021,0.021-0.049,0.037-0.08,0.039c-0.042,0.02-0.082,0.047-0.117,0.08
	c-0.027,0.026-0.054,0.051-0.077,0.079v0.12h-0.396c-0.035,0.021-0.075,0.036-0.117,0.04c-0.031,0.003-0.058,0.017-0.077,0.04
	l-0.04,0.039v0.043H52.37c-0.027,0.002-0.057,0.017-0.076,0.039l-0.038,0.04c-0.025,0.027-0.051,0.053-0.078,0.08
	c-0.002,0.03-0.017,0.058-0.037,0.079c-0.025,0.019-0.04,0.047-0.042,0.079L52.061,5.5c-0.025,0.027-0.053,0.053-0.08,0.08
	c-0.002,0.03-0.016,0.059-0.039,0.078c-0.001,0.031-0.015,0.06-0.039,0.08v0.04H36.586v0.039h-0.12
	c-0.031,0.001-0.059,0.017-0.078,0.042l-0.039,0.04h-0.041v0.04c-0.055,0-0.107,0.013-0.155,0.039C36.1,6,36.048,6.028,35.995,6.056
	c0,0.003,0,0.006,0,0.01c-0.003,0.019-0.02,0.031-0.039,0.029c-0.027,0.028-0.052,0.053-0.079,0.08
	c-0.026,0.025-0.053,0.051-0.079,0.08c-0.024,0.029-0.05,0.057-0.078,0.083c-0.027,0.026-0.054,0.052-0.078,0.08l-0.081,0.08
	c-0.024,0.025-0.051,0.051-0.077,0.08L35.399,6.66c0,0.002,0,0.006,0,0.008c-0.002,0.02-0.02,0.034-0.04,0.031L35.28,6.78
	c-0.024,0.026-0.05,0.053-0.077,0.079c-0.028,0.026-0.054,0.052-0.08,0.079l-0.079,0.08C35.02,7.045,34.99,7.07,34.965,7.097
	c0,0.032-0.012,0.062-0.035,0.084c-0.044-0.004-0.088,0.009-0.121,0.037c-0.003,0-0.007,0-0.01,0
	c-0.018,0.002-0.032,0.021-0.029,0.039c-0.03,0.001-0.058,0.016-0.078,0.039c-0.002,0.031-0.017,0.06-0.041,0.08
	c-0.023,0.02-0.038,0.049-0.04,0.08l-0.04,0.039c-0.026,0.027-0.054,0.053-0.079,0.079c-0.025,0.027-0.053,0.053-0.079,0.08
	c-0.043,0.02-0.083,0.046-0.116,0.08c-0.044,0.019-0.084,0.046-0.119,0.079c-0.002,0.029-0.016,0.057-0.038,0.077
	c-0.002,0.031-0.016,0.059-0.04,0.08c-0.03,0.002-0.058,0.017-0.078,0.04c-0.021,0.022-0.048,0.036-0.079,0.039l-0.077,0.08
	c-0.025,0.027-0.054,0.054-0.08,0.079l-0.079,0.081c-0.025,0.027-0.05,0.052-0.079,0.079c-0.003,0.03-0.017,0.059-0.039,0.079
	c-0.019,0.025-0.05,0.04-0.081,0.042c-0.023,0.025-0.051,0.054-0.076,0.08c-0.026,0.025-0.05,0.051-0.08,0.079
	c-0.043,0.019-0.083,0.045-0.117,0.079c-0.222,0.026-0.443,0.039-0.667,0.039c-0.034,0.022-0.072,0.035-0.112,0.043
	c-0.003-0.001-0.008-0.001-0.011,0c-0.018,0.004-0.031,0.02-0.028,0.039c-0.03,0.002-0.059,0.015-0.079,0.038
	c-0.044,0.02-0.084,0.047-0.119,0.08c-0.051,0.024-0.104,0.051-0.156,0.079c0,0.004,0,0.008-0.001,0.012
	c-0.005,0.019-0.024,0.03-0.042,0.025l-0.079,0.079v0.084l-0.079,0.077C31.822,9.34,31.782,9.367,31.748,9.4
	c-0.043,0.021-0.083,0.048-0.119,0.08c-0.001,0.03-0.017,0.059-0.039,0.079c-0.052,0.026-0.104,0.053-0.157,0.079
	c-0.02,0.024-0.048,0.038-0.079,0.04l-0.079,0.08c-0.026,0.026-0.053,0.052-0.079,0.08c-0.043,0.02-0.083,0.047-0.118,0.08
	c-0.08,0.052-0.157,0.104-0.236,0.158c-0.003,0.031-0.017,0.058-0.04,0.079h-0.59v0.039h-0.114
	c-0.019,0.024-0.048,0.039-0.078,0.041c-0.367,0.026-0.734,0.038-1.101,0.038c-0.036,0.023-0.076,0.037-0.118,0.044
	c-0.03,0.002-0.058,0.016-0.078,0.038h-1.848c-0.037,0.021-0.077,0.034-0.117,0.04h-0.987c-0.025-0.015-0.053-0.028-0.078-0.04
	H22.83c-0.035,0.02-0.074,0.034-0.115,0.04h-0.28c-0.025-0.015-0.053-0.028-0.079-0.04h-2.67c-0.035,0.02-0.076,0.034-0.116,0.04
	h-0.394c-0.026-0.015-0.051-0.028-0.079-0.04h-0.39c-0.038,0.02-0.079,0.034-0.12,0.04h-0.428v0.039h-0.236
	c-0.042,0.024-0.089,0.037-0.137,0.041h-0.059c-0.037,0.021-0.078,0.035-0.12,0.04c-0.031,0.002-0.057,0.017-0.077,0.038l-0.04,0.04
	v0.045l-0.013,0.017c-0.017-0.013-0.038-0.02-0.058-0.022c-0.037-0.021-0.077-0.035-0.118-0.04v-0.04
	c0.067-0.02,0.132-0.047,0.196-0.079c0.023-0.02,0.037-0.047,0.04-0.079c0.023-0.021,0.037-0.049,0.039-0.08
	c-0.001-0.03-0.015-0.059-0.039-0.08c-0.002-0.032-0.017-0.061-0.04-0.08c-0.042-0.005-0.081-0.019-0.118-0.039h-0.117v0.039h-0.157
	c-0.049,0.025-0.104,0.039-0.16,0.039v0.033c-0.02,0.023-0.047,0.036-0.078,0.038c-0.001,0.033-0.016,0.063-0.039,0.084l-0.158,0.08
	c-0.028,0.026-0.053,0.053-0.077,0.08c-0.024,0.027-0.053,0.052-0.079,0.079c-0.035,0.033-0.075,0.062-0.117,0.084
	c-0.043-0.002-0.085,0.012-0.119,0.039c-0.048,0.026-0.102,0.04-0.156,0.042c-0.049,0.024-0.103,0.038-0.158,0.039v0.039
	c-0.019,0.024-0.048,0.039-0.079,0.042v0.04c-1.022,0-2.055,0.013-3.104,0.04c0-0.002,0-0.006,0-0.01
	c-0.003-0.019-0.021-0.033-0.039-0.03c-0.043,0.004-0.087-0.01-0.119-0.039H6.146l-0.04,0.039l-0.039-0.037H4.574
	c0-0.004,0-0.008,0-0.012c-0.003-0.019-0.021-0.032-0.041-0.03c-0.053-0.025-0.103-0.053-0.157-0.078H4.259
	C4.26,10.75,4.26,10.746,4.26,10.742c-0.003-0.02-0.021-0.033-0.039-0.031c-0.041-0.003-0.082-0.018-0.118-0.038v0.026h-0.12
	c-0.003,0-0.007,0-0.01,0c-0.02,0.004-0.032,0.022-0.029,0.042c-0.031,0.001-0.06,0.015-0.079,0.039
	c-0.044,0.02-0.083,0.049-0.117,0.083c-0.028,0.027-0.053,0.052-0.079,0.079c-0.03,0.001-0.059,0.016-0.079,0.039
	c-0.02,0.023-0.048,0.038-0.079,0.041c-0.042,0.019-0.083,0.046-0.117,0.08c-0.035,0.033-0.075,0.062-0.118,0.083
	c-0.002,0.03-0.017,0.06-0.041,0.08c-0.001,0.032-0.015,0.063-0.039,0.084v0.077c0,0.002,0,0.005,0,0.009
	c-0.003,0.019-0.021,0.033-0.04,0.031c-0.024,0.026-0.052,0.055-0.079,0.078c-0.001,0.032-0.015,0.063-0.04,0.084
	C3.038,11.658,3.023,11.687,3,11.706v2.826c0.026,0.028,0.054,0.055,0.081,0.083l0.077,0.078c0.049,0.026,0.104,0.04,0.158,0.041
	h0.077v0.674c0.021,0.038,0.033,0.077,0.039,0.119c0.021,0.037,0.034,0.077,0.04,0.119v4.064H3.314
	c-0.037,0.02-0.076,0.035-0.117,0.039c-0.003-0.001-0.007-0.001-0.01,0c-0.019,0.003-0.033,0.02-0.03,0.038l-0.039,0.021v3.921
	c0.014,0.012,0.027,0.024,0.039,0.038c0.022,0.021,0.037,0.05,0.04,0.081c0.063,0.022,0.128,0.035,0.196,0.038v0.116l0.079,0.078
	c0.024,0.03,0.051,0.059,0.077,0.085c0.025,0.012,0.05,0.025,0.079,0.04c0.02-0.024,0.047-0.04,0.079-0.04h0.04
	c0.019-0.025,0.048-0.038,0.078-0.041h0.039c0.019-0.024,0.049-0.038,0.079-0.041h0.078c0.021-0.022,0.048-0.036,0.079-0.038
	c0.003,0,0.004,0,0.008,0c0.019-0.001,0.035-0.019,0.031-0.038h0.079c0.02-0.025,0.047-0.04,0.079-0.042h0.009
	c0.019-0.002,0.032-0.02,0.03-0.039h0.078c0-0.003,0-0.008,0-0.011c0.003-0.019,0.022-0.031,0.04-0.028h0.039
	c0.021-0.023,0.049-0.037,0.079-0.038h0.009c0.019-0.003,0.033-0.022,0.031-0.041h0.077c0.052-0.026,0.104-0.053,0.158-0.078h0.038
	c0.021-0.025,0.049-0.038,0.08-0.041h0.12c0.019-0.022,0.046-0.038,0.077-0.04h0.034c0.021-0.021,0.05-0.036,0.08-0.039l0.043-0.051
	h0.037c0-0.002,0-0.006,0-0.009c0.001-0.021,0.021-0.033,0.04-0.031h0.04c0.02-0.024,0.049-0.037,0.079-0.04h0.157
	c0.02-0.021,0.047-0.036,0.077-0.038h0.158c0.019-0.023,0.048-0.038,0.079-0.04h0.079c0.019-0.023,0.048-0.038,0.079-0.038h0.078
	c0.021-0.025,0.047-0.039,0.078-0.04H6.46c0.019-0.024,0.047-0.039,0.078-0.041h0.153c0.021-0.023,0.049-0.036,0.079-0.04h0.118
	c0.02-0.021,0.049-0.035,0.079-0.038h0.039c0.019-0.023,0.049-0.038,0.078-0.039c0.005,0.001,0.008,0.001,0.013,0
	c0.018-0.005,0.03-0.022,0.026-0.042h0.079c0.021-0.021,0.049-0.037,0.08-0.038H7.32c0.019-0.023,0.048-0.039,0.078-0.041h0.042
	c0.02-0.023,0.047-0.036,0.076-0.038h0.078c0.019-0.024,0.049-0.038,0.079-0.041c0.003,0.001,0.005,0.001,0.009,0
	c0.019-0.003,0.033-0.02,0.03-0.039h0.079c0.019-0.024,0.048-0.037,0.077-0.04h0.119v-0.01c0.002-0.02,0.021-0.033,0.04-0.031h0.04
	c0.019-0.021,0.046-0.037,0.078-0.039h0.04c0.019-0.022,0.047-0.037,0.078-0.038c0.03-0.003,0.058-0.019,0.078-0.041h0.041
	c0-0.003,0-0.008,0-0.011c0.003-0.02,0.021-0.03,0.04-0.029h0.039c0.019-0.024,0.048-0.037,0.079-0.039
	c0.03-0.001,0.058-0.018,0.077-0.042h0.078c0.022-0.021,0.05-0.035,0.079-0.039H8.82c0.02-0.021,0.047-0.035,0.077-0.037h0.151
	c0.019-0.022,0.047-0.038,0.079-0.039c0.003,0,0.008,0,0.012,0c0.018-0.005,0.03-0.021,0.026-0.04h0.079c0-0.004,0-0.005,0-0.01
	c0.002-0.021,0.019-0.033,0.039-0.031h0.04c0.019-0.023,0.049-0.038,0.079-0.04H9.52c0.02-0.021,0.048-0.037,0.078-0.039h0.121
	c0.019-0.022,0.048-0.037,0.077-0.038h0.078c0.021-0.024,0.048-0.037,0.078-0.039h0.079c0.019-0.024,0.048-0.04,0.078-0.042h0.08
	c0.02-0.023,0.048-0.037,0.078-0.038h0.01c0.019-0.002,0.032-0.02,0.03-0.038h0.078c0.019-0.025,0.049-0.039,0.079-0.04h0.119
	c0.018-0.028,0.046-0.045,0.078-0.05h0.078c0.03-0.002,0.059-0.017,0.078-0.042h0.04l0.039-0.037c0.02-0.023,0.048-0.038,0.078-0.04
	h0.007c0.02-0.002,0.035-0.019,0.033-0.039h0.077c0-0.003,0-0.005,0-0.009c0.003-0.021,0.021-0.034,0.041-0.032h0.039
	c0.02-0.022,0.048-0.037,0.078-0.04h0.156l0.039-0.038c0.02-0.023,0.049-0.038,0.079-0.039c0.03-0.004,0.058-0.018,0.079-0.04
	l0.039-0.039c0.02-0.023,0.047-0.039,0.079-0.041h0.04c0.02-0.023,0.049-0.038,0.079-0.04h0.039c0.032-0.028,0.076-0.042,0.119-0.04
	c0.031-0.001,0.059-0.016,0.079-0.039h0.038c-0.001-0.001-0.001-0.006,0-0.008c0.002-0.021,0.02-0.033,0.04-0.03h0.036
	c0.02-0.024,0.049-0.039,0.079-0.04h0.041c0.02-0.025,0.048-0.041,0.079-0.042h0.01c0.019-0.003,0.031-0.02,0.03-0.038h0.079
	c-0.001-0.005-0.001-0.008,0-0.011c0.003-0.021,0.021-0.034,0.04-0.03c0.031-0.003,0.059-0.016,0.078-0.039h0.04l0.038-0.04
	c0.021-0.023,0.049-0.038,0.079-0.04h0.037c0.021-0.023,0.051-0.038,0.083-0.039h0.117c0.019-0.023,0.048-0.039,0.079-0.04h0.115
	c0.02-0.022,0.048-0.039,0.078-0.039h0.118c0.021-0.022,0.049-0.038,0.079-0.04h0.157c0.021-0.023,0.049-0.037,0.08-0.038h0.118
	c0.019-0.024,0.048-0.038,0.078-0.042h0.079c0.019-0.023,0.048-0.037,0.079-0.039h0.191c0.02-0.023,0.049-0.036,0.081-0.038
	c0.003,0.001,0.005,0.001,0.008,0c0.019-0.002,0.033-0.021,0.03-0.04h0.083c0.02-0.022,0.049-0.039,0.079-0.04h0.038
	c0.02-0.022,0.048-0.039,0.079-0.04h0.037c0.02-0.024,0.051-0.04,0.083-0.041h0.156c0.02-0.022,0.048-0.037,0.078-0.038h0.038
	c0.02-0.024,0.048-0.037,0.078-0.04h0.119c0.021-0.024,0.049-0.037,0.08-0.038h0.117l0.041-0.063
	c0.018-0.024,0.047-0.039,0.078-0.039h0.039c0.021-0.024,0.05-0.037,0.081-0.039h0.036c0.033-0.029,0.078-0.043,0.12-0.039h0.038
	c0.02-0.022,0.047-0.039,0.079-0.042h0.117c0.021-0.021,0.049-0.036,0.08-0.038h0.118l0.04-0.04c0.02-0.022,0.048-0.037,0.079-0.038
	h0.036c0.021-0.023,0.051-0.038,0.082-0.039h0.117c0.019-0.025,0.048-0.039,0.079-0.041h0.04c0.019-0.024,0.048-0.038,0.078-0.039
	h0.077c0.021-0.024,0.048-0.038,0.08-0.041h0.039c0.02-0.023,0.048-0.038,0.079-0.04h0.078c0.019-0.022,0.049-0.038,0.078-0.039
	h0.012c0.019-0.005,0.031-0.021,0.028-0.041h0.077c0.021-0.023,0.049-0.038,0.079-0.039h0.041l0.06-0.019l0.056-0.06
	c0.02-0.025,0.049-0.039,0.081-0.043h0.04c0.021-0.021,0.049-0.035,0.08-0.038c0.002,0,0.006,0,0.009,0
	c0.018-0.003,0.032-0.02,0.03-0.038h0.077c0.02-0.024,0.048-0.038,0.079-0.04h0.119c0.02-0.023,0.048-0.038,0.078-0.04h0.038
	c0.019-0.022,0.049-0.039,0.078-0.04h0.041c0.02-0.024,0.049-0.037,0.079-0.038h0.078c0.02-0.023,0.048-0.039,0.077-0.042h0.119
	c0.02-0.023,0.048-0.038,0.079-0.039h0.039c0.021-0.025,0.048-0.038,0.079-0.039c0.004,0,0.005,0,0.009,0
	c0.019-0.004,0.033-0.021,0.031-0.041h0.079c0.019-0.022,0.046-0.037,0.076-0.039h0.077c0.02-0.021,0.049-0.036,0.08-0.039h0.04
	c0.019-0.023,0.048-0.038,0.077-0.039l0.041-0.041h0.039l0.039-0.038c0.02-0.023,0.049-0.038,0.079-0.04h0.04
	c0.019-0.022,0.047-0.037,0.077-0.039h0.119c0-0.003,0-0.006,0-0.01c0.003-0.019,0.019-0.032,0.039-0.029h0.039
	c0.019-0.024,0.049-0.039,0.08-0.04l0.038-0.04h0.04c0-0.003,0-0.007,0-0.009c0.003-0.021,0.021-0.033,0.04-0.029h0.04
	c0.021-0.025,0.048-0.038,0.078-0.041h0.117c0.02-0.023,0.048-0.036,0.08-0.039h0.122c0.02-0.022,0.046-0.035,0.078-0.039h0.117
	c0.031-0.001,0.059-0.016,0.079-0.039h0.04c-0.001-0.004-0.001-0.007,0-0.011c0.003-0.019,0.021-0.032,0.04-0.028h0.041
	c0.02-0.023,0.048-0.038,0.079-0.039h0.116c0.021-0.023,0.047-0.039,0.078-0.041h0.119c0.019-0.023,0.048-0.038,0.078-0.039H21.5
	c0.02-0.022,0.048-0.038,0.078-0.039h0.119c0.019-0.023,0.048-0.038,0.079-0.039h0.038c0.02-0.022,0.048-0.037,0.078-0.04h0.081
	c0.019-0.024,0.048-0.037,0.078-0.04h0.08c0.021-0.023,0.048-0.036,0.079-0.038h0.116c-0.001-0.003-0.001-0.008,0-0.01
	c0.002-0.02,0.02-0.034,0.04-0.031h0.041c0.019-0.022,0.048-0.037,0.077-0.041h0.078c0.02-0.023,0.048-0.038,0.08-0.038h0.041
	c0.031-0.029,0.076-0.043,0.119-0.041h0.035c0.021-0.022,0.049-0.036,0.08-0.038h0.074c0.02-0.024,0.05-0.039,0.083-0.04h0.077
	c0.03-0.001,0.058-0.017,0.078-0.04h0.04c-0.002-0.004-0.002-0.006,0-0.009c0.001-0.019,0.02-0.032,0.038-0.03h0.041
	c0.02-0.024,0.049-0.039,0.081-0.04h0.077c0.02-0.022,0.048-0.038,0.079-0.039h0.077c0.021-0.022,0.049-0.037,0.079-0.038h0.041
	c0.019-0.025,0.048-0.038,0.079-0.04H23.9c0.019-0.026,0.047-0.041,0.079-0.042h0.036c0.02-0.023,0.048-0.037,0.079-0.039h0.078
	c0.019-0.023,0.048-0.037,0.078-0.038h0.038c0.021-0.023,0.049-0.039,0.079-0.04h0.038c0.02-0.022,0.048-0.038,0.079-0.039h0.042
	c0.021-0.023,0.048-0.038,0.078-0.04h0.039c0-0.004,0-0.007,0-0.011c0.003-0.02,0.02-0.032,0.04-0.03l0.04-0.04h0.039
	c0-0.002,0-0.006,0-0.008c0.001-0.021,0.018-0.033,0.038-0.031h0.041c0.021-0.023,0.049-0.036,0.079-0.039h0.038
	c0.02-0.024,0.049-0.038,0.079-0.039h0.042c0.021-0.024,0.049-0.039,0.079-0.041h0.035c0.02-0.023,0.048-0.038,0.079-0.038h0.038
	c0.02-0.023,0.047-0.038,0.079-0.041c0.03-0.001,0.059-0.016,0.078-0.039h0.079v-0.009c0.003-0.02,0.02-0.033,0.039-0.03
	c0.03-0.001,0.059-0.016,0.079-0.041h0.038c0-0.001,0-0.004,0-0.008c0.004-0.02,0.021-0.031,0.041-0.03h0.041
	c0.02-0.022,0.049-0.037,0.079-0.039c0.03-0.002,0.059-0.018,0.079-0.042h0.077c0.022-0.021,0.049-0.037,0.079-0.038h0.04
	c0.02-0.022,0.048-0.038,0.079-0.04h0.077l0.04-0.038c0.019-0.024,0.049-0.039,0.08-0.042c0.001,0.001,0.005,0.001,0.008,0
	c0.019-0.003,0.033-0.02,0.031-0.04h0.078c0.02-0.022,0.048-0.036,0.078-0.039h0.04c0.019-0.023,0.047-0.036,0.079-0.038h0.038
	c0.019-0.024,0.049-0.039,0.079-0.041h0.042c0.019-0.022,0.048-0.037,0.078-0.04h0.119c-0.001-0.003-0.001-0.006,0-0.009
	c0.002-0.018,0.019-0.033,0.038-0.03h0.039c0.02-0.023,0.049-0.037,0.079-0.039h0.039c0.021-0.024,0.05-0.039,0.08-0.04
	c0.003,0,0.006,0,0.01,0c0.019-0.003,0.032-0.022,0.029-0.041h0.078c0.02-0.024,0.048-0.039,0.079-0.042
	c0.004,0.001,0.008,0.001,0.011,0c0.018-0.002,0.031-0.02,0.028-0.039h0.079c0.02-0.023,0.048-0.038,0.078-0.039h0.039
	c0.02-0.023,0.048-0.038,0.081-0.04h0.038c0.019-0.023,0.046-0.039,0.076-0.042h0.04c0.021-0.022,0.049-0.036,0.079-0.038
	c0.002,0,0.005,0,0.009,0c0.019-0.002,0.031-0.02,0.03-0.039h0.079c0.02-0.023,0.048-0.037,0.079-0.039
	c0.003,0.001,0.007,0.001,0.011,0c0.019-0.003,0.031-0.021,0.027-0.041h0.078c0.021-0.024,0.049-0.039,0.079-0.04h0.042
	c0.02-0.023,0.048-0.038,0.079-0.04h0.072l0.041-0.04c0.019-0.022,0.048-0.037,0.078-0.039c0.03-0.002,0.058-0.016,0.077-0.04h0.084
	c0.02-0.024,0.049-0.038,0.079-0.04h0.04c0.02-0.024,0.047-0.038,0.078-0.039H29.2c0.019-0.024,0.047-0.038,0.079-0.04h0.078
	c0.019-0.023,0.048-0.038,0.078-0.04h0.078c0.02-0.023,0.048-0.038,0.079-0.04c0.029-0.002,0.058-0.016,0.079-0.039h0.039
	c0-0.002,0-0.006,0-0.01c0.001-0.02,0.021-0.033,0.04-0.029h0.041c0.019-0.024,0.049-0.038,0.078-0.039h0.119
	c0.02-0.024,0.048-0.038,0.078-0.04h0.118c0.02-0.023,0.048-0.038,0.079-0.039h0.155c0.021-0.023,0.049-0.038,0.08-0.04h0.077
	c0.003,0,0.006,0,0.008,0c0.021-0.002,0.035-0.02,0.031-0.04h0.079c0-0.003,0-0.006,0-0.01c0.002-0.019,0.021-0.032,0.04-0.03h0.041
	c0.021-0.023,0.049-0.038,0.078-0.04h0.354c0.019-0.023,0.048-0.038,0.079-0.04h1.095l0.039,0.04h0.08l0.04,0.04h0.04
	c0.03,0.002,0.058,0.017,0.078,0.04h0.157l0.039,0.04h0.157l0.039,0.043h0.198l0.038,0.041h0.118l0.038,0.039h0.157l0.04,0.039
	h0.037c0.03,0.002,0.058,0.018,0.078,0.04l0.042,0.039h0.042l0.036,0.044c0.03,0.002,0.058,0.016,0.078,0.04h0.04
	c0.031,0,0.059,0.015,0.078,0.039c0.003,0,0.007,0,0.011,0c0.018,0.003,0.03,0.021,0.029,0.039h0.08c0,0.003,0,0.006,0,0.01
	c0.003,0.019,0.021,0.033,0.04,0.03l0.04,0.039h0.04c0.029,0.002,0.059,0.017,0.078,0.039c0.003,0,0.006,0,0.01,0
	c0.019,0.003,0.032,0.02,0.029,0.039h0.039l0.041,0.041h0.007c0.02,0.001,0.034,0.02,0.033,0.04l0.038,0.04h0.039v0.039l0.041,0.04
	v0.039h0.041v0.042c0.004,0,0.007,0,0.011,0.001c0.019,0.003,0.03,0.021,0.026,0.039l0.041,0.039c-0.001,0.004-0.001,0.008,0,0.011
	c0.004,0.018,0.021,0.031,0.039,0.028v0.039l0.041,0.041c0,0.003,0,0.007,0,0.01c0.001,0.02,0.02,0.033,0.04,0.031v0.08h0.04v0.119
	h0.04v0.04l0.04,0.039v0.04c0,0.002,0,0.003,0.001,0.006c0.001,0.019,0.019,0.033,0.038,0.031v0.281l0.041,0.04v0.313
	c-0.022,0.019-0.038,0.049-0.041,0.079c0,0.031-0.015,0.06-0.039,0.081v0.083l-0.031,0.042l-0.079,0.079v0.318
	c-0.023,0.021-0.038,0.048-0.039,0.081c-0.001,0.031-0.016,0.06-0.04,0.079v0.277c-0.003,0.03-0.017,0.059-0.04,0.079
	c-0.001,0.03-0.017,0.06-0.039,0.08c-0.003,0.03-0.017,0.058-0.038,0.079v0.199c-0.003,0.031-0.019,0.058-0.041,0.079
	c-0.003,0.029-0.017,0.06-0.04,0.079v0.074c-0.001,0.031-0.017,0.061-0.041,0.08c-0.002,0.031-0.016,0.062-0.039,0.085
	c-0.003,0.029-0.018,0.059-0.041,0.077v0.037c-0.024,0.027-0.052,0.052-0.077,0.08v0.241c-0.004,0.03-0.017,0.06-0.04,0.08
	c-0.002,0.03-0.018,0.059-0.041,0.078c-0.002,0.031-0.016,0.06-0.039,0.079v0.121c-0.003,0.03-0.018,0.059-0.04,0.08
	c-0.002,0.03-0.016,0.059-0.041,0.078v0.078c-0.001,0.031-0.015,0.061-0.038,0.08c-0.003,0.031-0.016,0.059-0.04,0.079
	c-0.003,0.03-0.017,0.06-0.04,0.08v0.119c-0.028,0.052-0.053,0.105-0.08,0.158v0.239c-0.022,0.021-0.037,0.049-0.039,0.079
	c-0.02,0.023-0.048,0.038-0.079,0.039v0.075c-0.003,0.03-0.018,0.06-0.04,0.079c-0.001,0.031-0.017,0.06-0.039,0.08
	c-0.002,0.03-0.016,0.061-0.038,0.084c-0.003,0.03-0.018,0.059-0.04,0.078c-0.002,0.033-0.017,0.063-0.042,0.085v0.109
	c-0.024,0.027-0.051,0.053-0.078,0.079v0.085l-0.08,0.078c-0.001,0.03-0.016,0.061-0.04,0.081v0.065
	c-0.022,0.022-0.036,0.052-0.038,0.085c-0.022,0.02-0.038,0.048-0.039,0.078l-0.04,0.04l-0.079,0.079
	c-0.002,0.03-0.016,0.058-0.038,0.078c-0.029,0.054-0.054,0.106-0.08,0.16c-0.002,0.031-0.016,0.062-0.04,0.083
	s-0.038,0.05-0.039,0.08c-0.026,0.02-0.04,0.051-0.04,0.085c0,0.002,0,0.006,0,0.01c-0.003,0.018-0.021,0.03-0.04,0.029v0.076
	c-0.023,0.027-0.052,0.053-0.078,0.08c-0.001,0.03-0.016,0.059-0.04,0.079v0.078c-0.023,0.021-0.038,0.049-0.039,0.078
	c-0.022,0.021-0.037,0.05-0.04,0.08c-0.022,0.021-0.036,0.05-0.039,0.079c-0.02,0.024-0.049,0.04-0.079,0.042v0.158
	c-0.026,0.054-0.053,0.105-0.078,0.159c-0.004,0.03-0.021,0.06-0.045,0.078c0,0.031-0.015,0.061-0.038,0.081
	c-0.003,0.031-0.018,0.058-0.04,0.078v0.119c-0.002,0.03-0.017,0.06-0.042,0.08c-0.024,0.052-0.051,0.105-0.077,0.158
	c-0.001,0.03-0.016,0.058-0.04,0.078c-0.001,0.031-0.017,0.06-0.04,0.08v0.516c-0.023,0.021-0.038,0.05-0.039,0.081
	c-0.002,0.029-0.018,0.058-0.04,0.077v0.713c0.026,0.028,0.055,0.058,0.079,0.083v0.317c0.023,0.022,0.036,0.05,0.04,0.081
	c0.02,0.022,0.048,0.038,0.078,0.038c0.014,0.014,0.027,0.025,0.039,0.04l0.042,0.04v0.074c0.023,0.022,0.038,0.053,0.04,0.084
	c0.023,0.021,0.038,0.049,0.038,0.081c0.026,0.024,0.053,0.051,0.079,0.078c0.022,0.021,0.038,0.05,0.039,0.079
	c0.023,0.021,0.037,0.05,0.04,0.08c0.02,0.023,0.048,0.037,0.078,0.038l0.08,0.082c0.028,0.024,0.052,0.053,0.077,0.077
	c0.025,0.021,0.039,0.05,0.041,0.08c0.053,0.026,0.105,0.052,0.158,0.078c0.037,0.032,0.074,0.06,0.115,0.08
	c0.003,0.03,0.018,0.059,0.041,0.079c0.028,0.026,0.053,0.054,0.079,0.08c0.02,0.022,0.048,0.038,0.078,0.039l0.159,0.079
	c0.036,0.032,0.075,0.06,0.118,0.079c0.064,0.031,0.129,0.057,0.197,0.08c0.049,0.025,0.103,0.038,0.156,0.039l0.079,0.081
	c0.063,0.022,0.128,0.034,0.195,0.038c0.048,0.025,0.102,0.039,0.157,0.04l0.04,0.038h0.118c0.076,0.027,0.155,0.04,0.234,0.042
	l0.041,0.039c0.062,0.022,0.129,0.037,0.197,0.039c0.181,0.027,0.365,0.039,0.548,0.038l0.041,0.041h1.295l0.039-0.032
	c0.21,0,0.419-0.012,0.628-0.04h0.12c0.019-0.023,0.046-0.037,0.077-0.038c0.027-0.026,0.053-0.053,0.078-0.081h0.147
	c0.029-0.025,0.053-0.053,0.081-0.079h0.008c0.019-0.002,0.033-0.02,0.031-0.04c0.023-0.019,0.038-0.048,0.04-0.079
	c0.002-0.031,0.016-0.063,0.04-0.083c0.036-0.032,0.075-0.06,0.118-0.081v-0.083c0.024-0.02,0.038-0.05,0.04-0.079
	c0.026-0.025,0.053-0.053,0.078-0.079v-0.674c-0.03-0.003-0.058-0.016-0.078-0.039v-0.076c-0.002-0.031-0.016-0.059-0.04-0.079
	v-0.08c-0.043-0.02-0.082-0.046-0.118-0.078c-0.003-0.031-0.017-0.06-0.04-0.08v-0.079c-0.023-0.02-0.038-0.048-0.04-0.08
	c-0.03-0.001-0.059-0.016-0.079-0.039c-0.03-0.004-0.058-0.017-0.078-0.04l0.038-0.04c0.002-0.032,0.017-0.063,0.041-0.083
	c0.024-0.025,0.052-0.055,0.079-0.08v-0.065c0.022-0.019,0.038-0.047,0.038-0.078v-0.159c0.004,0.001,0.007,0.001,0.009,0
	c0.021-0.002,0.034-0.02,0.031-0.039c0.001-0.033,0.016-0.063,0.039-0.084c0.026-0.028,0.052-0.053,0.079-0.08v-0.078
	c0.023-0.02,0.038-0.051,0.039-0.08v-0.079c0.027-0.026,0.053-0.055,0.079-0.08v-0.198c0.024-0.027,0.053-0.054,0.079-0.079v-0.083
	c0.021-0.02,0.036-0.049,0.039-0.078v-0.161c0.027-0.025,0.054-0.052,0.078-0.079v-0.2l0.079-0.077v-0.083
	c0.023-0.021,0.036-0.051,0.04-0.081v-0.078c0.025-0.029,0.052-0.057,0.077-0.085v-0.198c0.028-0.027,0.053-0.051,0.08-0.08v-0.079
	c0.024-0.02,0.037-0.05,0.038-0.081v-0.154c0.002,0,0.006,0,0.009,0c0.02-0.001,0.033-0.02,0.031-0.038
	c0.002-0.031,0.017-0.06,0.04-0.08v-0.079c0.028-0.025,0.054-0.053,0.079-0.08v-0.076c0.023-0.021,0.038-0.051,0.042-0.081v-0.14
	c0.003,0,0.005,0,0.008,0c0.02-0.004,0.033-0.022,0.03-0.04c0.001-0.031,0.015-0.06,0.039-0.08l0.08-0.08v-0.079
	c0.023-0.021,0.038-0.048,0.04-0.079v-0.239h0.012c0.018-0.003,0.029-0.021,0.028-0.039c0.001-0.029,0.016-0.06,0.039-0.078
	c0.025-0.031,0.052-0.057,0.079-0.085v-0.078c0.023-0.021,0.038-0.049,0.039-0.079v-0.239c0.003,0,0.008,0,0.011,0
	c0.019-0.001,0.031-0.021,0.028-0.039c0.002-0.029,0.018-0.059,0.041-0.078v-0.086c0.026-0.025,0.053-0.051,0.079-0.077v-0.079
	c0.024-0.021,0.039-0.053,0.039-0.084v-0.158c0.003,0,0.008,0,0.011,0c0.02-0.004,0.033-0.021,0.03-0.043
	c0.002-0.03,0.016-0.059,0.038-0.078c0.026-0.026,0.053-0.054,0.079-0.079V21.14c0.023-0.021,0.038-0.05,0.039-0.079v-0.238
	c0.004,0.001,0.008,0.001,0.011,0c0.019-0.003,0.033-0.021,0.029-0.04c0-0.032,0.015-0.063,0.04-0.085
	c0.025-0.024,0.053-0.051,0.077-0.078v-0.08c0.023-0.02,0.038-0.05,0.042-0.08V20.38c0.026-0.026,0.052-0.052,0.077-0.081v-0.076
	c0.004,0,0.006,0,0.011,0c0.019-0.004,0.032-0.022,0.028-0.042c0.023-0.02,0.038-0.048,0.039-0.078
	c0.025-0.021,0.04-0.05,0.042-0.081v-0.238l0.077-0.08V19.62c0.004,0.001,0.007,0.001,0.01,0c0.018-0.003,0.033-0.019,0.03-0.039
	c0.023-0.02,0.037-0.049,0.039-0.079c0.023-0.021,0.038-0.049,0.04-0.081v-0.159c0.027-0.025,0.052-0.053,0.078-0.078
	c0.027-0.027,0.054-0.053,0.079-0.081c0.002-0.03,0.017-0.059,0.04-0.078v-0.04l0.316-0.078h0.118l0.04-0.04h0.078v0.04l0.04,0.038
	l0.079,0.08c0.002,0.03,0.016,0.059,0.04,0.078c0.002,0.032,0.016,0.062,0.04,0.081c0.024,0.02,0.038,0.048,0.04,0.078
	c0.025,0.028,0.051,0.053,0.076,0.081c0.023,0.02,0.038,0.048,0.04,0.078v0.121c0.026,0.023,0.051,0.057,0.077,0.088
	c0.028,0.031,0.054,0.056,0.08,0.085c0.049,0.023,0.103,0.037,0.158,0.038c1.389,0.026,2.775,0.039,4.162,0.039l0.04,0.039h0.117
	c0.184,0.026,0.367,0.042,0.55,0.042c0.021,0.022,0.05,0.037,0.08,0.038c0.05,0.025,0.103,0.039,0.156,0.039h0.195
	c0.019-0.022,0.048-0.038,0.077-0.039l0.317-0.08h0.116l0.04-0.039c0.079,0,0.157-0.013,0.234-0.039h0.117h0.011
	c0.019-0.003,0.033-0.02,0.027-0.038c0.031-0.003,0.061-0.018,0.079-0.041c0.064-0.032,0.129-0.059,0.197-0.079
	c0.035-0.031,0.075-0.06,0.119-0.08c0.024-0.026,0.053-0.052,0.079-0.08l0.155-0.078c0.03-0.003,0.06-0.017,0.078-0.04
	c0.027-0.025,0.054-0.053,0.08-0.079l0.156-0.08h0.157c0.054,0.001,0.106,0.015,0.156,0.039h0.153
	c0.028,0.008,0.058,0.015,0.083,0.02v0.22c-0.023,0.021-0.038,0.049-0.039,0.08c-0.021,0.024-0.049,0.039-0.081,0.04v0.674
	c0.028,0.026,0.054,0.053,0.081,0.078c0.001,0.03,0.016,0.06,0.039,0.079c0.032,0.002,0.06,0.019,0.077,0.041l0.08,0.079
	c0.003,0.031,0.018,0.06,0.039,0.08c0.063,0.023,0.129,0.036,0.196,0.038h0.077c0.043,0.005,0.081,0.021,0.116,0.04h0.394
	c0.033-0.028,0.076-0.044,0.117-0.04c0.022-0.02,0.038-0.048,0.04-0.079c0.034-0.034,0.073-0.063,0.116-0.083l0.078-0.082v-0.078
	c0.004-0.03,0.018-0.06,0.042-0.079v-0.078l0.039-0.042c0.023-0.02,0.037-0.048,0.038-0.078c0.025-0.022,0.039-0.052,0.04-0.085
	v-0.277c0.026-0.028,0.052-0.055,0.078-0.079l0.039-0.041c0.004-0.03,0.018-0.059,0.038-0.079c0.002-0.032,0.019-0.061,0.042-0.08
	v-0.516c0.014-0.012,0.028-0.025,0.04-0.039c0.002-0.031,0.018-0.06,0.039-0.079l0.039-0.039c0.003-0.031,0.017-0.06,0.041-0.08
	v-1.588c0.022-0.02,0.036-0.049,0.04-0.079h0.042c0-0.003,0-0.007,0-0.011c0.003-0.019,0.021-0.031,0.04-0.028
	c0.001-0.031,0.017-0.061,0.041-0.08c0.041-0.002,0.08,0.013,0.11,0.04c0.035,0.033,0.075,0.058,0.118,0.079
	c0.036,0.033,0.076,0.06,0.121,0.079v0.116l0.037,0.039c0.002,0.032,0.016,0.063,0.039,0.084c0.028,0.052,0.055,0.105,0.079,0.158
	c0.024,0.021,0.04,0.049,0.041,0.08c0.023,0.02,0.036,0.049,0.038,0.08c0.001,0.029,0.018,0.058,0.04,0.078v0.084
	c0.021,0.022,0.048,0.037,0.078,0.039c0.022,0.02,0.037,0.049,0.04,0.079c0.025,0.052,0.052,0.104,0.077,0.155v1.389
	c0.024,0.019,0.039,0.048,0.041,0.079c0.019,0.023,0.048,0.038,0.079,0.04c0.024,0.022,0.05,0.048,0.076,0.079
	c0.025,0.031,0.052,0.056,0.077,0.085c0.05,0.023,0.104,0.039,0.159,0.039h0.118h0.009c0.017-0.002,0.029-0.016,0.03-0.031v-0.008
	c0,0.003,0,0.005,0,0.008v0.108c0.028,0.027,0.054,0.052,0.078,0.081c0.003,0.03,0.017,0.059,0.04,0.078
	c0.064,0.024,0.129,0.038,0.197,0.043h1.02l0.04-0.043c0.021-0.021,0.048-0.036,0.079-0.039v-0.039
	c0.003-0.032,0.017-0.065,0.038-0.092c0.025-0.026,0.051-0.052,0.076-0.078v-0.125c-0.002-0.03-0.016-0.058-0.039-0.077
	c-0.001-0.031-0.015-0.061-0.037-0.081v-0.236c0.025-0.028,0.051-0.055,0.076-0.081h25.454v0.398
	c0.026,0.025,0.051,0.053,0.078,0.077v0.14c0.027,0.027,0.055,0.055,0.079,0.078c0.003,0.03,0.017,0.06,0.038,0.08
	c0.064,0.023,0.131,0.036,0.198,0.039h2.2c0.003,0.001,0.006,0.001,0.009,0.001c0.02-0.004,0.032-0.021,0.03-0.04
	c0.029-0.002,0.057-0.016,0.077-0.038v-0.042h0.159l0.078-0.078c0.021-0.021,0.038-0.049,0.041-0.079
	c0.021-0.022,0.034-0.049,0.036-0.08v-4.409c0.004,0.001,0.008,0.001,0.011,0c0.019-0.001,0.031-0.02,0.029-0.039
	c0.022-0.02,0.038-0.048,0.04-0.079c0-0.033,0.016-0.063,0.037-0.085v-0.396c-0.002,0-0.004,0-0.008,0
	c-0.02-0.002-0.032-0.021-0.029-0.04c-0.025-0.026-0.053-0.053-0.079-0.079c-0.02-0.024-0.048-0.038-0.077-0.039v-0.239
	c-0.003,0-0.007,0-0.011,0c-0.019-0.003-0.031-0.021-0.029-0.04c-0.025-0.027-0.053-0.053-0.077-0.08
	c-0.038-0.021-0.077-0.035-0.119-0.039l0.04-0.08c-0.024-0.022-0.039-0.051-0.04-0.084v-0.04l0.038-0.044
	c0.025-0.02,0.04-0.05,0.04-0.083c0.022-0.021,0.036-0.049,0.041-0.079v-0.517c-0.025-0.021-0.039-0.053-0.041-0.085
	c-0.002-0.03-0.016-0.059-0.04-0.08v-0.078c-0.024-0.021-0.04-0.052-0.04-0.084c-0.03-0.001-0.058-0.016-0.077-0.039
	c-0.054-0.025-0.104-0.052-0.155-0.079v0.045c-0.036-0.018-0.063-0.032-0.08-0.04c0.022-0.011,0.049-0.023,0.08-0.04h0.155
	c0.032-0.028,0.075-0.041,0.116-0.039h3.969c0.004,0,0.005,0,0.011,0c0.018-0.003,0.03-0.02,0.027-0.04
	c0.03-0.002,0.06-0.017,0.079-0.039V12.42c0.022-0.02,0.038-0.048,0.039-0.079v-0.158l0.038-0.039
	c0.002-0.032,0.019-0.063,0.041-0.085v-2.78l-0.077-0.078c-0.003,0.001-0.008,0.001-0.012,0c-0.019-0.003-0.031-0.022-0.028-0.041
	c-0.054-0.026-0.105-0.052-0.158-0.08v0.038h-0.077l-0.038-0.04c-0.054-0.026-0.104-0.053-0.161-0.079h-4.436V6.573
	c0.022-0.021,0.037-0.05,0.039-0.079c0.002-0.032,0.017-0.061,0.04-0.081V6.094c-0.025-0.024-0.051-0.052-0.078-0.08
	c-0.003,0-0.006,0-0.008,0c-0.02-0.001-0.034-0.02-0.032-0.038l-0.039-0.04V4.978l0.039-0.039V4.86
	c0.029-0.002,0.057-0.015,0.078-0.038V4.741c0.002-0.031,0.017-0.06,0.04-0.081v-0.08c-0.023-0.019-0.038-0.048-0.04-0.078
	c-0.003,0-0.007,0-0.011,0c-0.02-0.003-0.031-0.021-0.028-0.04V3.632c-0.001-0.032-0.016-0.063-0.04-0.083
	c-0.001-0.031-0.016-0.061-0.039-0.08c-0.023-0.02-0.036-0.049-0.037-0.079V3.111c-0.024-0.02-0.039-0.048-0.042-0.079
	c0-0.03-0.015-0.06-0.038-0.08c-0.026-0.025-0.052-0.054-0.079-0.08c-0.042,0.004-0.085-0.011-0.116-0.04h-0.118
	c-0.004,0.001-0.006,0.001-0.01,0c-0.019-0.002-0.034-0.019-0.031-0.039l-0.037-0.04c-0.034-0.02-0.073-0.033-0.113-0.04H80.853z"/>
<linearGradient id="shape2_2_" gradientUnits="userSpaceOnUse" x1="79.7725" y1="-10.2515" x2="38.9911" y2="-10.2515" gradientTransform="matrix(1 0 0 -1 8.3398 12.04)">
	<stop  offset="2.300000e-007" style="stop-color:#5D3F1C"/>
	<stop  offset="1" style="stop-color:#865524"/>
</linearGradient>
<path id="shape2_1_" fill="url(#shape2_2_)" d="M77.559,31.251c-0.313,0-0.625-0.05-0.922-0.147
	c-0.298,0.099-0.609,0.147-0.922,0.147h-8.193c-0.185,0-0.447-0.009-0.77-0.075c-0.217,0.051-0.439,0.075-0.664,0.075h-2.664
	c-0.816,0-1.605-0.342-2.166-0.937c-0.078-0.086-0.15-0.174-0.219-0.267l-0.91,0.65c-0.503,0.36-1.1,0.552-1.725,0.552H54.82
	c-0.717,0-1.402-0.264-1.934-0.719c-0.617,0.424-1.351,0.654-2.115,0.654c-0.75,0-1.478-0.222-2.104-0.642
	c-0.164-0.11-0.315-0.233-0.452-0.37c-1.021-1.021-1.363-2.423-0.92-3.753l0.044-0.128l0.08-0.203
	c-1.801-0.254-3.145-1.765-3.145-3.646V22.24c0-0.741,0.274-1.45,0.773-1.996l4.748-5.232c0.646-1.069,1.762-1.679,3.079-1.679h0.41
	c2.065,0,3.684,1.618,3.684,3.684c0,0-0.001,0.289-0.003,0.331c0.555-0.653,1.372-1.044,2.26-1.044h8.398
	c0.261,0,0.518,0.034,0.768,0.101c0.25-0.067,0.508-0.101,0.771-0.101h9.218c0.243,0,0.482,0.029,0.717,0.087
	c0.233-0.058,0.475-0.087,0.719-0.087h8.396c0.917,0,1.797,0.433,2.354,1.159c0.56,0.726,0.752,1.689,0.515,2.573l-0.407,1.532
	c-0.146,0.541-0.434,1.02-0.829,1.395c-0.014,0.188-0.045,0.372-0.094,0.555l-0.41,1.537c-0.075,0.282-0.192,0.551-0.346,0.799
	c0.168,0.532,0.185,1.109,0.04,1.656l-0.413,1.539c-0.347,1.296-1.524,2.202-2.866,2.202H77.559z M74.52,23.782l0.013-0.009h-0.794
	l-0.002,0.009H74.52z"/>
<path id="ACE" fill="#FFFFFF" d="M51.748,23.163h-3.79c-0.409,0-0.717-0.308-0.717-0.718c0-0.104,0-0.104,0-0.204l5.018-5.531
	c0.103-0.307,0.31-0.41,0.615-0.41h0.41c0.409,0,0.717,0.308,0.717,0.717c0,0.102,0,0.205,0,0.205l-2.458,3.584h4.402
	c0.615,0,0.31,1.127-0.103,1.639l-4.507,5.531c-0.309,0.308-0.717,0.308-1.023,0.104c-0.205-0.206-0.309-0.41-0.205-0.719
	L51.748,23.163L51.748,23.163L51.748,23.163z M59.225,19.271l0.409,0.41l-4.813,8.603h3.584l2.15-1.536h2.971l-0.103,1.536h2.663
	l1.536-9.013H59.225L59.225,19.271z M63.73,20.809l-0.104,3.482h-2.97l2.048-3.482H63.73L63.73,20.809z M67.521,28.284h8.191
	l0.613-2.15l-0.819,0.614h-5.733l1.74-5.941h6.452l0.409-1.535h-9.218l-2.355,7.988C66.7,27.363,66.7,27.568,66.7,27.669
	c0,0.103,0,0.205,0.103,0.31c0.102,0.103,0.205,0.203,0.307,0.203C67.314,28.284,67.419,28.284,67.521,28.284L67.521,28.284
	L67.521,28.284z M79.811,19.271l0.311,0.612l-2.563,8.398h8.193l0.41-1.536H81.04l0.717-2.458h4.711l0.41-1.537h-4.506l0.612-1.944
	H87.8l0.409-1.535H79.811L79.811,19.271z"/>
</svg>
