<?xml version="1.0" encoding="utf-8"?>
<!-- Generator: Adobe Illustrator 16.0.0, SVG Export Plug-In . SVG Version: 6.00 Build 0)  -->
<!DOCTYPE svg PUBLIC "-//W3C//DTD SVG 1.1//EN" "http://www.w3.org/Graphics/SVG/1.1/DTD/svg11.dtd">
<svg version="1.1" id="tc" xmlns="http://www.w3.org/2000/svg" xmlns:xlink="http://www.w3.org/1999/xlink" x="0px" y="0px"
	 width="92px" height="36px" viewBox="0 0 92 36" enable-background="new 0 0 92 36" xml:space="preserve">
<linearGradient id="shape1_1_" gradientUnits="userSpaceOnUse" x1="0.6665" y1="17.4771" x2="91.5391" y2="17.4771">
	<stop  offset="2.300000e-007" style="stop-color:#ECD6B9"/>
	<stop  offset="1" style="stop-color:#B5691F"/>
</linearGradient>
<path id="shape1" fill="url(#shape1_1_)" d="M27.067,8.166c0.002,0,0.004,0,0.004,0H27.067z M24.549,8.142
	c-0.016,0.018-0.039,0.028-0.063,0.029h0.002h0.095V8.142H24.549z M26.912,8.166h0.155c-0.016-0.001-0.029-0.015-0.027-0.03h-0.064
	c-0.016-0.02-0.039-0.031-0.064-0.033V8.166z M27.201,15.817c0.266-0.024,0.528,0.082,0.703,0.284
	c0.161,0.257,0.238,0.557,0.223,0.86v0.003c0,0.23-0.08,0.455-0.223,0.634c-0.165,0.221-0.429,0.341-0.703,0.319h-2.332
	c-0.277,0-0.543-0.116-0.734-0.319c-0.163-0.173-0.253-0.4-0.255-0.638c-0.018-0.308,0.074-0.611,0.255-0.86
	c0.2-0.185,0.463-0.286,0.734-0.284H27.201z M67.05,13.016v-0.16c0.04-0.22,0.166-0.415,0.352-0.542h17.816l0.159,0.224h0.989
	c0.155,0.042,0.277,0.164,0.319,0.319H86.24c-1.789,0.021-3.78,0.053-5.972,0.094c-2.13,0.042-4.15,0.085-6.065,0.128h-4.822
	c-0.19,0.005-0.379,0.007-0.569,0.007C68.224,13.085,67.636,13.062,67.05,13.016 M87.192,7.54c-0.185,0.032-0.333,0.169-0.379,0.351
	c-0.072,0.205-0.114,0.419-0.128,0.638l-0.127,0.379c-0.022,0.198-0.099,0.387-0.226,0.54c-0.141,0.147-0.289,0.285-0.444,0.414
	H44.027c-0.12-0.066-0.202-0.185-0.224-0.319c-0.062-0.206-0.093-0.421-0.094-0.637V8.683h-1.66V8.044h-0.671v0.639H29.966v0.986
	l-0.095-0.031c-0.037-0.01-0.072-0.033-0.094-0.065c-0.042-0.015-0.085-0.026-0.129-0.03v-0.32c0-0.363-0.063-0.541-0.189-0.541
	c-0.001-0.003-0.001-0.006-0.001-0.01c-0.019-0.155-0.162-0.266-0.318-0.245c-0.263-0.05-0.531-0.07-0.8-0.064h-1.022l-0.318-0.159
	C26.794,8.197,26.6,8.11,26.457,7.963V7.695h-0.189c-0.03-0.048-0.068-0.09-0.112-0.126h-0.974c-0.013,0.008-0.023,0.019-0.031,0.03
	c-0.026,0.026-0.054,0.059-0.082,0.095h-0.048v0.063c-0.215,0.27-0.557,0.759-1.022,1.466h-0.127v0.444l-0.19,0.19
	c-0.048,0.055-0.117,0.088-0.188,0.094c-0.056-0.008-0.104-0.043-0.129-0.094c-0.111-0.019-0.206-0.089-0.253-0.19
	c-0.112-0.138-0.207-0.286-0.284-0.446V9.032L6.509,10.53c-0.069,0.089-0.144,0.173-0.223,0.253
	c-0.063,0.084-0.138,0.159-0.223,0.223c-0.127,0.072-0.269,0.116-0.414,0.126l-4.982,0.736l0.19,12.013l0.672,0.225h0.158
	c0.962-0.361,1.719-0.68,2.272-0.955c0.382-0.16,0.754-0.342,1.117-0.543c0.145-0.135,0.306-0.252,0.479-0.35
	c0.075-0.133,0.138-0.271,0.189-0.414c0.085-0.189,0.191-0.426,0.319-0.703c0.106-0.297,0.223-0.584,0.351-0.859
	c0.116-0.236,0.254-0.461,0.416-0.668c0.191-0.197,0.361-0.41,0.51-0.638c0.088-0.113,0.197-0.209,0.319-0.285
	c0.044,0,0.391-0.074,1.054-0.222c0.64-0.192,1.354-0.371,2.139-0.542c0.788-0.214,1.533-0.382,2.235-0.512
	c0.703-0.147,1.096-0.221,1.181-0.221c-0.002,0.048-0.026,0.094-0.063,0.125c-0.022,0.072-0.035,0.148-0.034,0.224
	c-0.019,0.093-0.029,0.188-0.031,0.284h0.128c0.194,0.111,0.422,0.144,0.639,0.094c0.294-0.066,0.599-0.066,0.893,0
	c0.34,0.031,0.672,0.107,0.991,0.224c0.148,0.167,0.238,0.381,0.255,0.604c0.022,0.276,0.033,0.499,0.033,0.67
	c-0.154,0.359-0.324,0.709-0.511,1.051c-0.34,0.596-0.69,1.23-1.052,1.912c-0.366,0.699-0.706,1.326-1.022,1.879
	c-0.203,0.305-0.386,0.623-0.542,0.955v0.223c-0.018,0.172,0.053,0.34,0.189,0.445h0.033v0.041l0.094,0.127
	c0.162,0.182,0.395,0.285,0.639,0.283c0.341,0.133,0.735,0.268,1.181,0.414c0.491,0.105,1.001,0.201,1.534,0.285
	c0.51,0.127,0.945,0.232,1.303,0.314c0.286,0.041,0.573,0.063,0.863,0.064c0.225-0.002,0.448-0.025,0.669-0.068
	c0.16,0.018,0.32-0.027,0.447-0.127l0.129-0.189c0.007-0.15-0.064-0.293-0.188-0.379c-0.124-0.059-0.224-0.16-0.285-0.283
	l-0.159-0.16c-0.053-0.135-0.095-0.273-0.128-0.414c-0.083-0.291-0.114-0.592-0.095-0.893c0.275-0.51,0.563-1.061,0.863-1.654
	c0.297-0.639,0.584-1.232,0.86-1.785c0.234-0.551,0.436-1.02,0.608-1.402c0.065-0.23,0.174-0.445,0.319-0.637
	c0.214-0.156,0.47-0.248,0.735-0.256c0.444-0.068,0.892-0.111,1.341-0.127c0.466-0.042,0.913-0.064,1.338-0.064
	c0.448-0.019,0.769-0.032,0.958-0.032c0.076,0.002,0.152-0.009,0.224-0.029c0.14-0.021,0.272-0.074,0.384-0.161h0.543
	c0.371-0.102,0.704-0.313,0.958-0.603c0.318-0.341,0.596-0.628,0.829-0.863c0.087-0.244,0.272-0.44,0.511-0.54
	c0.328-0.224,0.72-0.336,1.118-0.321h1.181c0.085,0,0.331,0.032,0.734,0.095c0.366,0.054,0.729,0.129,1.087,0.223
	c0.361,0.086,0.649,0.161,0.861,0.223c0.133,0.096,0.285,0.16,0.447,0.189c0.422-0.081,0.818-0.267,1.15-0.541
	c0.136-0.17,0.328-0.284,0.542-0.319c0.201-0.027,0.404-0.037,0.605-0.031h1.055c0.404,0.021,0.802,0.042,1.182,0.064
	c0.259-0.014,0.519,0.018,0.765,0.094h1.916c0.252,0.048,0.499,0.122,0.734,0.224c0.456,0.066,0.917,0.087,1.375,0.063h6.959
	c1.447,0,2.853-0.021,4.215-0.063h6.87c0.956,0.033,1.914-0.075,2.84-0.319c0.358-0.158,0.732-0.276,1.117-0.353h22.73
	c0.515-0.13,0.925-0.516,1.088-1.02c0.063-0.362,0.029-0.735-0.097-1.083c-0.027-0.292-0.192-0.553-0.447-0.702
	c-0.287-0.204-0.642-0.285-0.989-0.224c-0.265,0.037-0.528,0.06-0.797,0.066c0.004-0.011,0.004-0.022,0.004-0.033
	c-0.002-0.072-0.062-0.129-0.132-0.127h-0.096v-0.322c0.532,0.001,1.074-0.01,1.629-0.031c0.362,0.012,0.719-0.086,1.022-0.284
	c0.104-0.243,0.168-0.501,0.188-0.765c0.022-0.256,0.033-0.511,0.033-0.765V10.21l-0.551-0.217h-0.159
	c-0.056-0.003-0.109-0.014-0.161-0.031c-0.013-0.059-0.068-0.099-0.127-0.095c-0.052-0.075-0.115-0.14-0.188-0.19
	c-0.15-0.229-0.32-0.443-0.511-0.639c-0.307-0.239-0.627-0.463-0.958-0.669c-0.362-0.212-0.693-0.402-0.988-0.574
	C87.675,7.672,87.438,7.587,87.192,7.54z"/>
</svg>
