<?xml version="1.0" encoding="utf-8"?>
<!-- Generator: Adobe Illustrator 16.0.0, SVG Export Plug-In . SVG Version: 6.00 Build 0)  -->
<!DOCTYPE svg PUBLIC "-//W3C//DTD SVG 1.1//EN" "http://www.w3.org/Graphics/SVG/1.1/DTD/svg11.dtd">
<svg version="1.1" id="tc" xmlns="http://www.w3.org/2000/svg" xmlns:xlink="http://www.w3.org/1999/xlink" x="0px" y="0px"
	 width="92px" height="36px" viewBox="0 0 92 36" enable-background="new 0 0 92 36" xml:space="preserve">
<linearGradient id="shape1_1_" gradientUnits="userSpaceOnUse" x1="0.583" y1="18" x2="91.417" y2="18">
	<stop  offset="2.300000e-007" style="stop-color:#ECD6B9"/>
	<stop  offset="1" style="stop-color:#B5691F"/>
</linearGradient>
<path id="shape1" fill="url(#shape1_1_)" d="M38.52,8.738l-0.134,0.665c-0.135,0.466-0.328,0.913-0.576,1.329
	c-0.294,0.456-0.644,0.875-1.042,1.244c-0.256,0.243-0.475,0.444-0.657,0.612c-0.019-0.095-0.08-0.176-0.165-0.222
	c-0.211-0.119-0.466-0.13-0.685-0.029c-0.358,0.15-0.725,0.278-1.097,0.387c-0.528,0.157-1.071,0.25-1.619,0.279
	c-0.383,0.015-2.192-0.099-5.427-0.363c-3.525-0.258-6.192-0.396-8.003-0.414c-2.027-0.036-5.161,0.064-9.4,0.303
	c-2.102,0.111-4.013,0.223-5.732,0.335c-0.02-0.103-0.066-0.198-0.135-0.276c-0.174-0.188-0.438-0.265-0.686-0.196
	c-0.314,0.041-0.621,0.134-0.905,0.277c-0.287,0.183-0.518,0.443-0.664,0.75c-0.21,0.52-0.329,1.072-0.353,1.633
	c-0.037,0.388-0.053,0.737-0.053,1.053L0.583,16.41v1.27l0.793,0.524L1.24,19.479c-0.083,0.68-0.016,1.369,0.193,2.021
	c0.178,0.446,0.46,0.845,0.822,1.162c0.165,0.16,0.35,0.301,0.549,0.417l0.711,0.057c0.421-0.241,0.749-0.443,0.985-0.61
	c0.278-0.328,0.451-0.733,0.493-1.162l0.223-0.997l1.018-0.831c0.334-0.065,0.672-0.111,1.012-0.139
	c0.728-0.09,1.461-0.128,2.194-0.113c0.886,0.07,1.765,0.21,2.628,0.415c0.66,0.13,1.8,0.399,3.427,0.804
	c1.511,0.325,3.038,0.565,4.576,0.719c1.377,0.181,2.772,0.153,4.14-0.082c0.902-0.199,1.777-0.507,2.605-0.916
	c1.334-0.645,2.073-0.995,2.219-1.05c0.778-0.279,1.628-0.29,2.413-0.028c0.398,0.131,0.783,0.298,1.147,0.502l0.36,0.529
	c0.27,0.367,0.592,0.694,0.956,0.971c0.403,0.365,0.753,0.784,1.042,1.245c0.181,0.258,0.346,0.526,0.496,0.802l-0.304,0.498
	c-0.218,0.406-0.418,0.822-0.604,1.245c-0.253,0.75-0.392,1.534-0.41,2.327h1.535c0.075-0.278,0.172-0.602,0.3-0.97
	c0.157-0.596,0.378-1.171,0.661-1.718c0.291-0.499,0.65-0.955,1.067-1.355l0.661-0.637l0.163-2.381l0.492,0.076
	c0.388,0.087,0.765,0.218,1.124,0.387c0.318,0.163,0.607,0.379,0.851,0.638c0.088,0.1,0.161,0.212,0.216,0.333l2.853,0.058
	l0.3-0.667l4.743-0.136c3.545-0.093,6.259-0.084,8.14,0.025c1.614,0.063,3.219,0.267,4.798,0.609
	c0.236,0.039,0.942,0.203,2.109,0.498c1.023,0.257,2.003,0.49,2.934,0.692c2.405,0.503,4.863,0.709,7.319,0.61
	c2.444-0.075,4.872-0.428,7.238-1.052c2.381-0.698,4.631-1.783,6.66-3.211c0.085-0.052,0.168-0.106,0.247-0.166
	c0.677-0.479,1.344-0.977,2.002-1.492l0.873-0.691c-0.859-0.021-1.819-0.066-2.877-0.14l-0.63-0.056
	c-2.074-0.12-4.137-0.397-6.168-0.829c-1.633-0.423-3.192-1.085-4.631-1.966c-0.514-0.297-0.997-0.602-1.454-0.914l-0.549-0.416
	c-1.589,0.202-3.279,0.387-5.07,0.554c-1.097,0.091-2.101,0.139-3.016,0.139l-1.012-0.027l-1.892-0.831l0.467,0.719l-1.427,0.111
	l-1.727-0.888l0.657,0.888l-1.369-0.054l-1.893-0.916l0.549,0.915l-1.313-0.056l-1.893-0.913l0.519,0.917l-1.235-0.083l-1.972-0.831
	l0.604,0.774h-1.18l-2.028-0.94l0.604,0.882h-1.261l-2.028-0.882l0.604,0.882l-1.287-0.056L45.7,11.922l0.492,0.775l-7.729-0.105
	c0.154-0.164,0.293-0.341,0.413-0.53c0.275-0.375,0.496-0.785,0.656-1.22c0.159-0.457,0.26-0.93,0.303-1.411V8.738H38.52z"/>
</svg>
