<?xml version="1.0" encoding="utf-8"?>
<!-- Generator: Adobe Illustrator 16.0.0, SVG Export Plug-In . SVG Version: 6.00 Build 0)  -->
<!DOCTYPE svg PUBLIC "-//W3C//DTD SVG 1.1//EN" "http://www.w3.org/Graphics/SVG/1.1/DTD/svg11.dtd">
<svg version="1.1" id="case1" xmlns="http://www.w3.org/2000/svg" xmlns:xlink="http://www.w3.org/1999/xlink" x="0px" y="0px"
	 width="92px" height="36px" viewBox="0 0 92 36" enable-background="new 0 0 92 36" xml:space="preserve">
<path fill="none" d="M2.655,12.191c-0.169-0.152-0.267-0.367-0.269-0.594c-0.003-0.237,0.095-0.464,0.269-0.627
	c0.345-0.308,0.869-0.308,1.214,0c0.174,0.163,0.272,0.39,0.27,0.627c-0.003,0.227-0.1,0.442-0.27,0.594
	c-0.173,0.154-0.39,0.232-0.607,0.232C3.045,12.423,2.828,12.344,2.655,12.191 M43.235,4.447c-0.166,0.002-0.331,0.043-0.482,0.118
	c-0.416,0.231-0.756,0.576-0.981,0.994c0.037,0.016,0.072,0.038,0.104,0.063c0.086,0.102,0.134,0.229,0.135,0.362
	c0.003,0.125-0.046,0.245-0.135,0.332c-0.09,0.087-0.211,0.136-0.338,0.132c-0.095,0.003-0.187-0.021-0.269-0.067
	c-0.212,0.228-0.453,0.428-0.716,0.596c0.046,0.068,0.071,0.147,0.069,0.229c0,0.131-0.064,0.255-0.171,0.331
	c-0.022,0.031-0.049,0.057-0.079,0.079c-0.187,0.144-0.453,0.107-0.595-0.079c-0.056-0.032-0.101-0.076-0.134-0.131
	c-0.202,0.044-0.44,0.098-0.71,0.166v0.063C38.93,7.775,38.869,7.907,38.765,8c-0.089,0.089-0.212,0.138-0.339,0.136
	c-0.126,0.002-0.248-0.045-0.337-0.132c-0.085-0.075-0.133-0.183-0.133-0.295c-0.271,0.037-0.551,0.071-0.842,0.093v0.033
	c0,0.134-0.048,0.262-0.135,0.363c-0.09,0.087-0.21,0.135-0.336,0.132c-0.135,0-0.266-0.046-0.372-0.132
	c-0.083-0.09-0.129-0.206-0.135-0.328c-0.224,0-0.481-0.011-0.774-0.033c0.003,0.124-0.045,0.244-0.135,0.329
	c-0.105,0.085-0.236,0.13-0.371,0.13c-0.125,0.005-0.248-0.042-0.336-0.13c-0.087-0.102-0.136-0.23-0.135-0.364V7.771
	c-1.281-0.089-2.36-0.156-3.237-0.199c-3.909-0.243-7.495-0.34-10.755-0.296c-2.092,0.042-4.171,0.12-6.239,0.231V7.54
	c0.003,0.125-0.047,0.244-0.136,0.332C13.928,7.958,13.807,8.005,13.682,8c-0.136,0.007-0.27-0.039-0.371-0.129
	c-0.084-0.076-0.133-0.185-0.135-0.298c-0.213,0-0.425,0.01-0.638,0.033v0.036c0.004,0.124-0.045,0.244-0.135,0.33
	c-0.089,0.09-0.212,0.139-0.34,0.132c-0.135,0-0.267-0.046-0.37-0.132c-0.085-0.076-0.134-0.185-0.136-0.299
	c-0.203,0-0.405,0.009-0.606,0.034v0.032c0.001,0.13-0.063,0.252-0.17,0.329c-0.021,0.028-0.047,0.054-0.075,0.075
	c-0.187,0.145-0.455,0.111-0.598-0.075c-0.091-0.07-0.141-0.182-0.135-0.296L9.231,7.839v0.066c0.003,0.124-0.046,0.244-0.135,0.329
	C8.99,8.32,8.86,8.366,8.724,8.366C8.599,8.369,8.477,8.323,8.387,8.234C8.303,8.159,8.254,8.051,8.252,7.938
	C8.028,7.96,7.826,7.98,7.647,8.003v0.034C7.65,8.16,7.601,8.28,7.512,8.365C7.415,8.469,7.282,8.529,7.14,8.532
	C7.008,8.533,6.883,8.471,6.804,8.365C6.712,8.294,6.661,8.184,6.669,8.068C6.444,8.09,6.23,8.112,6.028,8.135v0.063
	C6.03,8.322,5.981,8.442,5.892,8.529C5.813,8.634,5.688,8.698,5.556,8.697C5.415,8.695,5.282,8.634,5.185,8.531
	C5.116,8.459,5.068,8.365,5.052,8.267c-0.595,0.051-1.184,0.161-1.755,0.33C3.068,8.734,2.891,8.943,2.792,9.192
	C2.749,9.31,2.726,9.433,2.724,9.557L2.32,9.589l-1.753,2.24l1.753,1.979l0.64-0.033l-0.101,0.199
	C2.839,14.188,2.9,14.4,3.027,14.57c0.225,0.353,0.765,1.045,1.618,2.08c0.877,1.057,1.473,1.75,1.787,2.077
	c0.322,0.336,0.698,0.614,1.112,0.826c0.418,0.176,0.882,0.198,1.315,0.067c0.382-0.106,0.702-0.371,0.878-0.728
	c0-0.004,0-0.009,0-0.012c0.002-0.02,0.018-0.023,0.033-0.021c-0.037-0.021-0.071-0.041-0.101-0.065
	c-0.065-0.062-0.102-0.146-0.101-0.231C9.564,18.465,9.6,18.37,9.669,18.297c0.131-0.119,0.328-0.131,0.474-0.029
	c0.068-0.07,0.147-0.125,0.235-0.166c0.118-0.065,0.21-0.123,0.303-0.166c-0.021-0.041-0.032-0.084-0.034-0.131
	c0-0.088,0.038-0.174,0.101-0.229c0.061-0.066,0.147-0.101,0.235-0.099c0.101-0.006,0.197,0.03,0.271,0.099
	c0.027,0.028,0.049,0.062,0.067,0.1c0.187-0.067,0.379-0.125,0.574-0.168c-0.021-0.016-0.033-0.039-0.034-0.065
	c-0.005-0.099,0.032-0.194,0.101-0.264c0.077-0.064,0.171-0.097,0.27-0.099c0.087,0,0.173,0.032,0.236,0.099
	c0.053,0.04,0.087,0.1,0.1,0.165l0.642-0.067c-0.02-0.019-0.032-0.041-0.034-0.065c0-0.088,0.037-0.17,0.101-0.231
	c0.077-0.058,0.171-0.095,0.27-0.099c0.089,0,0.174,0.035,0.236,0.099c0.067,0.045,0.105,0.119,0.101,0.199
	c0.224-0.021,0.45-0.033,0.674-0.033v-0.031c0.003-0.094,0.054-0.182,0.134-0.229c0.001-0.002,0.003-0.002,0.004-0.004
	c0.13-0.129,0.34-0.127,0.468,0.004c0.065,0.06,0.101,0.144,0.101,0.229c0.136,0,0.271-0.012,0.405-0.03h0.405
	c0-0.091,0.036-0.175,0.1-0.231c0.063-0.063,0.148-0.097,0.236-0.095c0.098-0.006,0.197,0.026,0.27,0.095
	c0.064,0.06,0.1,0.144,0.1,0.231c1.282-0.002,3.732,0.03,7.352,0.099c3.371,0,6.001-0.065,7.89-0.199
	c1.837-0.185,3.686-0.229,5.529-0.131c1.069,0.063,2.097,0.43,2.966,1.055c0.32,0.248,0.603,0.535,0.844,0.857
	c0.2,0.234,0.381,0.488,0.538,0.76c0.14,0.197,0.31,0.377,0.505,0.521c0.189,0.113,0.405,0.175,0.624,0.177h0.017
	c0.046,0,0.09-0.002,0.135-0.009c0.669-0.144,1.188-0.674,1.315-1.348c0.088-0.289,0.167-0.598,0.235-0.928l0.068-0.396h3.878
	c0.294-0.663,0.666-0.86,1.113-0.595c0.01-0.059,0.047-0.108,0.103-0.133c0.086-0.071,0.192-0.104,0.303-0.101
	c0.102-0.004,0.197,0.03,0.271,0.101c0.057,0.031,0.104,0.078,0.137,0.133c0.068-0.061,0.146-0.104,0.234-0.133
	c0.24-0.067,0.49-0.101,0.74-0.101c0.252-0.006,0.5,0.026,0.74,0.101c0.1,0.022,0.19,0.069,0.271,0.133
	c0.019-0.038,0.043-0.073,0.07-0.104c0.168-0.182,0.452-0.194,0.637-0.026c0.039,0.037,0.072,0.082,0.103,0.133
	c0.02-0.039,0.043-0.073,0.067-0.104c0.168-0.185,0.455-0.197,0.64-0.029c0.039,0.037,0.074,0.082,0.104,0.133
	c0.08-0.063,0.172-0.108,0.271-0.133c0.24-0.072,0.486-0.104,0.74-0.101c0.236-0.004,0.479,0.029,0.709,0.101
	c0.098,0.022,0.188,0.07,0.271,0.133c0.024-0.051,0.059-0.096,0.1-0.133c0.183-0.131,0.427-0.131,0.604,0
	c0.039,0.037,0.074,0.082,0.104,0.133c0.031-0.055,0.08-0.102,0.137-0.133c0.086-0.072,0.191-0.104,0.303-0.101
	c0.103-0.004,0.195,0.031,0.271,0.101c0.058,0.031,0.104,0.078,0.136,0.133c0.069-0.061,0.147-0.104,0.237-0.133
	c0.484-0.131,0.996-0.131,1.479,0c0.097,0.033,0.187,0.078,0.271,0.133c0.011-0.059,0.05-0.108,0.103-0.133
	c0.014-0.01,0.024-0.019,0.035-0.024c0.229-0.144,0.53-0.071,0.672,0.157c0.024-0.051,0.063-0.096,0.104-0.133
	c0.184-0.131,0.428-0.131,0.605,0c0.041,0.037,0.074,0.082,0.102,0.133c0.08-0.063,0.174-0.108,0.271-0.133
	c0.229-0.07,0.471-0.104,0.707-0.101c0.252-0.004,0.502,0.027,0.742,0.101c0.1,0.022,0.188,0.07,0.271,0.133
	c0.022-0.051,0.062-0.096,0.103-0.133c0.184-0.131,0.428-0.131,0.604,0c0.085,0.072,0.175,0.14,0.271,0.197
	c0.063-0.041,0.129-0.07,0.196-0.091c0.369-0.101,0.746,0.119,0.849,0.486l16.047,0.137l9.914-7.428
	c-1.281-0.288-2.941-0.598-4.99-0.927c-3.87-0.637-7.771-1.076-11.689-1.32c-3.707-0.198-9.799-0.354-18.271-0.465l-11.64-0.101
	c-0.046-0.449-0.136-0.891-0.269-1.321c-0.271-0.924-0.641-1.431-1.113-1.519c-0.06-0.011-0.121-0.018-0.181-0.018L43.235,4.447
	L43.235,4.447z"/>
<linearGradient id="shape1_1_" gradientUnits="userSpaceOnUse" x1="316.4863" y1="832.5938" x2="407.3555" y2="832.5938" gradientTransform="matrix(1 0 0 1 -315.9199 -820.2598)">
	<stop  offset="0" style="stop-color:#CA4EE5"/>
	<stop  offset="0.3011" style="stop-color:#570090"/>
	<stop  offset="0.7419" style="stop-color:#893BDC"/>
	<stop  offset="1" style="stop-color:#CA4EE5"/>
</linearGradient>
<path id="shape1" fill="url(#shape1_1_)" d="M2.655,12.191c-0.169-0.152-0.267-0.367-0.269-0.594
	c-0.003-0.237,0.095-0.464,0.269-0.627c0.345-0.308,0.869-0.308,1.214,0c0.174,0.163,0.272,0.39,0.27,0.627
	c-0.003,0.227-0.1,0.442-0.27,0.594c-0.173,0.154-0.39,0.232-0.607,0.232C3.045,12.423,2.828,12.344,2.655,12.191 M43.235,4.447
	c-0.166,0.002-0.331,0.043-0.482,0.118c-0.416,0.231-0.756,0.576-0.981,0.994c0.037,0.016,0.072,0.038,0.104,0.063
	c0.086,0.102,0.134,0.229,0.135,0.362c0.003,0.125-0.046,0.245-0.135,0.332c-0.09,0.087-0.211,0.136-0.338,0.132
	c-0.095,0.003-0.187-0.021-0.269-0.067c-0.212,0.228-0.453,0.428-0.716,0.596c0.046,0.068,0.071,0.147,0.069,0.229
	c0,0.131-0.064,0.255-0.171,0.331c-0.022,0.031-0.049,0.057-0.079,0.079c-0.187,0.144-0.453,0.107-0.595-0.079
	c-0.056-0.032-0.101-0.076-0.134-0.131c-0.202,0.044-0.44,0.098-0.71,0.166v0.063C38.93,7.775,38.869,7.907,38.765,8
	c-0.089,0.089-0.212,0.138-0.339,0.136c-0.126,0.002-0.248-0.045-0.337-0.132c-0.085-0.075-0.133-0.183-0.133-0.295
	c-0.271,0.037-0.551,0.071-0.842,0.093v0.033c0,0.134-0.048,0.262-0.135,0.363c-0.09,0.087-0.21,0.135-0.336,0.132
	c-0.135,0-0.266-0.046-0.372-0.132c-0.083-0.09-0.129-0.206-0.135-0.328c-0.224,0-0.481-0.011-0.774-0.033
	c0.003,0.124-0.045,0.244-0.135,0.329c-0.105,0.085-0.236,0.13-0.371,0.13c-0.125,0.005-0.248-0.042-0.336-0.13
	c-0.087-0.102-0.136-0.23-0.135-0.364V7.771c-1.281-0.089-2.36-0.156-3.237-0.199c-3.909-0.243-7.495-0.34-10.755-0.296
	c-2.092,0.042-4.171,0.12-6.239,0.231V7.54c0.003,0.125-0.047,0.244-0.136,0.332C13.928,7.958,13.807,8.005,13.682,8
	c-0.136,0.007-0.27-0.039-0.371-0.129c-0.084-0.076-0.133-0.185-0.135-0.298c-0.213,0-0.425,0.01-0.638,0.033v0.036
	c0.004,0.124-0.045,0.244-0.135,0.33c-0.089,0.09-0.212,0.139-0.34,0.132c-0.135,0-0.267-0.046-0.37-0.132
	c-0.085-0.076-0.134-0.185-0.136-0.299c-0.203,0-0.405,0.009-0.606,0.034v0.032c0.001,0.13-0.063,0.252-0.17,0.329
	c-0.021,0.028-0.047,0.054-0.075,0.075c-0.187,0.145-0.455,0.111-0.598-0.075c-0.091-0.07-0.141-0.182-0.135-0.296L9.231,7.839
	v0.066c0.003,0.124-0.046,0.244-0.135,0.329C8.99,8.32,8.86,8.366,8.724,8.366C8.599,8.369,8.477,8.323,8.387,8.234
	C8.303,8.159,8.254,8.051,8.252,7.938C8.028,7.96,7.826,7.98,7.647,8.003v0.034C7.65,8.16,7.601,8.28,7.512,8.365
	C7.415,8.469,7.282,8.529,7.14,8.532C7.008,8.533,6.883,8.471,6.804,8.365C6.712,8.294,6.661,8.184,6.669,8.068
	C6.444,8.09,6.23,8.112,6.028,8.135v0.063C6.03,8.322,5.981,8.442,5.892,8.529C5.813,8.634,5.688,8.698,5.556,8.697
	C5.415,8.695,5.282,8.634,5.185,8.531C5.116,8.459,5.068,8.365,5.052,8.267c-0.595,0.051-1.184,0.161-1.755,0.33
	C3.068,8.734,2.891,8.943,2.792,9.192C2.749,9.31,2.726,9.433,2.724,9.557L2.32,9.589l-1.753,2.24l1.753,1.98l0.64-0.033
	l-0.101,0.199C2.839,14.187,2.9,14.4,3.027,14.57c0.225,0.353,0.765,1.045,1.618,2.08c0.877,1.057,1.473,1.75,1.787,2.077
	c0.322,0.336,0.698,0.615,1.112,0.826c0.418,0.176,0.882,0.199,1.315,0.068c0.382-0.107,0.702-0.371,0.878-0.727
	c0-0.004,0-0.009,0-0.013c0.002-0.018,0.018-0.022,0.033-0.021c-0.037-0.021-0.071-0.041-0.101-0.066
	c-0.065-0.061-0.102-0.145-0.101-0.232C9.564,18.465,9.6,18.37,9.669,18.297c0.131-0.119,0.328-0.131,0.474-0.029
	c0.068-0.07,0.147-0.125,0.235-0.166c0.118-0.066,0.21-0.123,0.303-0.166c-0.021-0.041-0.032-0.084-0.034-0.131
	c0-0.088,0.038-0.174,0.101-0.23c0.061-0.066,0.147-0.1,0.235-0.098c0.101-0.006,0.197,0.03,0.271,0.098
	c0.027,0.029,0.049,0.061,0.067,0.1c0.187-0.068,0.379-0.125,0.574-0.168c-0.021-0.016-0.033-0.039-0.034-0.065
	c-0.005-0.099,0.032-0.195,0.101-0.265c0.077-0.063,0.171-0.096,0.27-0.098c0.087,0,0.173,0.032,0.236,0.098
	c0.053,0.041,0.087,0.101,0.1,0.166l0.642-0.067c-0.02-0.019-0.032-0.041-0.034-0.066c0-0.088,0.037-0.17,0.101-0.232
	c0.077-0.057,0.171-0.094,0.27-0.098c0.089,0,0.174,0.035,0.236,0.098c0.067,0.045,0.105,0.119,0.101,0.199
	c0.224-0.021,0.45-0.033,0.674-0.033v-0.031c0.003-0.094,0.054-0.182,0.134-0.229c0.001-0.002,0.003-0.002,0.004-0.004
	c0.13-0.129,0.34-0.127,0.468,0.004c0.065,0.06,0.101,0.144,0.101,0.229c0.136,0,0.271-0.012,0.405-0.03h0.405
	c0-0.091,0.036-0.175,0.1-0.231c0.063-0.064,0.148-0.097,0.236-0.095c0.098-0.006,0.197,0.026,0.27,0.095
	c0.064,0.059,0.1,0.143,0.1,0.231c1.282-0.002,3.732,0.03,7.352,0.098c3.371,0,6.001-0.065,7.89-0.198
	c1.837-0.185,3.686-0.229,5.529-0.131c1.069,0.063,2.097,0.43,2.966,1.055c0.32,0.248,0.603,0.535,0.844,0.856
	c0.2,0.235,0.381,0.489,0.538,0.76c0.14,0.196,0.31,0.377,0.505,0.521c0.189,0.113,0.405,0.174,0.624,0.176h0.017
	c0.046,0,0.09-0.002,0.135-0.008c0.669-0.144,1.188-0.674,1.315-1.348c0.088-0.289,0.167-0.598,0.235-0.928l0.068-0.395h3.878
	c0.294-0.663,0.666-0.86,1.113-0.594c0.01-0.06,0.047-0.109,0.103-0.133c0.086-0.072,0.192-0.105,0.303-0.101
	c0.102-0.004,0.197,0.03,0.271,0.101c0.057,0.03,0.104,0.078,0.137,0.133c0.068-0.063,0.146-0.104,0.234-0.133
	c0.24-0.068,0.49-0.101,0.74-0.101c0.252-0.006,0.5,0.026,0.74,0.101c0.1,0.022,0.19,0.069,0.271,0.133
	c0.019-0.039,0.043-0.074,0.07-0.104c0.168-0.182,0.452-0.195,0.637-0.027c0.039,0.037,0.072,0.082,0.103,0.133
	c0.02-0.039,0.043-0.073,0.067-0.104c0.168-0.184,0.455-0.197,0.64-0.029c0.039,0.037,0.074,0.082,0.104,0.133
	c0.08-0.063,0.172-0.108,0.271-0.133c0.24-0.072,0.486-0.104,0.74-0.1c0.236-0.004,0.479,0.029,0.709,0.1
	c0.098,0.023,0.188,0.07,0.271,0.133c0.024-0.051,0.059-0.096,0.1-0.133c0.183-0.131,0.427-0.131,0.604,0
	c0.039,0.037,0.074,0.082,0.104,0.133c0.031-0.055,0.08-0.102,0.137-0.133c0.086-0.072,0.191-0.104,0.303-0.1
	c0.103-0.004,0.195,0.031,0.271,0.1c0.058,0.031,0.104,0.078,0.136,0.133c0.069-0.061,0.147-0.104,0.237-0.133
	c0.484-0.131,0.996-0.131,1.479,0c0.097,0.033,0.187,0.078,0.271,0.133c0.011-0.059,0.05-0.108,0.103-0.133
	c0.014-0.01,0.024-0.018,0.035-0.024c0.229-0.144,0.53-0.072,0.672,0.157c0.024-0.051,0.063-0.096,0.104-0.133
	c0.184-0.131,0.428-0.131,0.605,0c0.041,0.037,0.074,0.082,0.102,0.133c0.08-0.063,0.174-0.108,0.271-0.133
	c0.229-0.07,0.471-0.104,0.707-0.1c0.252-0.004,0.502,0.027,0.742,0.1c0.1,0.023,0.188,0.07,0.271,0.133
	c0.022-0.051,0.062-0.096,0.103-0.133c0.184-0.131,0.428-0.131,0.604,0c0.085,0.072,0.175,0.14,0.271,0.197
	c0.063-0.041,0.129-0.07,0.196-0.09c0.369-0.1,0.746,0.119,0.849,0.486l16.047,0.137l9.914-7.428
	c-1.281-0.288-2.941-0.598-4.99-0.927c-3.87-0.637-7.771-1.076-11.689-1.32c-3.707-0.198-9.799-0.354-18.271-0.465l-11.64-0.099
	c-0.046-0.449-0.136-0.891-0.269-1.321c-0.271-0.924-0.641-1.431-1.113-1.519c-0.06-0.011-0.121-0.018-0.181-0.018L43.235,4.447
	L43.235,4.447z"/>
<g>
	<defs>
		<path id="SVGID_1_" d="M2.655,12.191c-0.169-0.152-0.267-0.367-0.269-0.594c-0.003-0.237,0.095-0.464,0.269-0.627
			c0.345-0.308,0.869-0.308,1.214,0c0.174,0.163,0.272,0.39,0.27,0.627c-0.003,0.227-0.1,0.442-0.27,0.594
			c-0.173,0.154-0.39,0.232-0.607,0.232C3.045,12.423,2.828,12.344,2.655,12.191 M43.235,4.447
			c-0.166,0.002-0.331,0.043-0.482,0.118c-0.416,0.231-0.756,0.576-0.981,0.994c0.037,0.016,0.072,0.038,0.104,0.063
			c0.086,0.102,0.134,0.229,0.135,0.362c0.003,0.125-0.046,0.245-0.135,0.332c-0.09,0.087-0.211,0.136-0.338,0.132
			c-0.095,0.003-0.187-0.021-0.269-0.067c-0.212,0.228-0.453,0.428-0.716,0.596c0.046,0.068,0.071,0.147,0.069,0.229
			c0,0.131-0.064,0.255-0.171,0.331c-0.022,0.031-0.049,0.057-0.079,0.079c-0.187,0.144-0.453,0.107-0.595-0.079
			c-0.056-0.032-0.101-0.076-0.134-0.131c-0.202,0.044-0.44,0.098-0.71,0.166v0.063C38.93,7.775,38.869,7.907,38.765,8
			c-0.089,0.089-0.212,0.138-0.339,0.136c-0.126,0.002-0.248-0.045-0.337-0.132c-0.085-0.075-0.133-0.183-0.133-0.295
			c-0.271,0.037-0.551,0.071-0.842,0.093v0.033c0,0.134-0.048,0.262-0.135,0.363c-0.09,0.087-0.21,0.135-0.336,0.132
			c-0.135,0-0.266-0.046-0.372-0.132c-0.083-0.09-0.129-0.206-0.135-0.328c-0.224,0-0.481-0.011-0.774-0.033
			c0.003,0.124-0.045,0.244-0.135,0.329c-0.105,0.085-0.236,0.13-0.371,0.13c-0.125,0.005-0.248-0.042-0.336-0.13
			c-0.087-0.102-0.136-0.23-0.135-0.364V7.771c-1.281-0.089-2.36-0.156-3.237-0.199c-3.909-0.243-7.495-0.34-10.755-0.296
			c-2.092,0.042-4.171,0.12-6.239,0.231V7.54c0.003,0.125-0.047,0.244-0.136,0.332C13.928,7.958,13.807,8.005,13.682,8
			c-0.136,0.007-0.27-0.039-0.371-0.129c-0.084-0.076-0.133-0.185-0.135-0.298c-0.213,0-0.425,0.01-0.638,0.033v0.036
			c0.004,0.124-0.045,0.244-0.135,0.33c-0.089,0.09-0.212,0.139-0.34,0.132c-0.135,0-0.267-0.046-0.37-0.132
			c-0.085-0.076-0.134-0.185-0.136-0.299c-0.203,0-0.405,0.009-0.606,0.034v0.032c0.001,0.13-0.063,0.252-0.17,0.329
			c-0.021,0.028-0.047,0.054-0.075,0.075c-0.187,0.145-0.455,0.111-0.598-0.075c-0.091-0.07-0.141-0.182-0.135-0.296L9.231,7.839
			v0.066c0.003,0.124-0.046,0.244-0.135,0.329C8.99,8.32,8.86,8.366,8.724,8.366C8.599,8.369,8.477,8.323,8.387,8.234
			C8.303,8.159,8.254,8.051,8.252,7.938C8.028,7.96,7.826,7.98,7.647,8.003v0.034C7.65,8.16,7.601,8.28,7.512,8.365
			C7.415,8.469,7.282,8.529,7.14,8.532C7.008,8.533,6.883,8.471,6.804,8.365C6.712,8.294,6.661,8.184,6.669,8.068
			C6.444,8.09,6.23,8.112,6.028,8.135v0.063C6.03,8.322,5.981,8.442,5.892,8.529C5.813,8.634,5.688,8.698,5.556,8.697
			C5.415,8.695,5.282,8.634,5.185,8.531C5.116,8.459,5.068,8.365,5.052,8.267c-0.595,0.051-1.184,0.161-1.755,0.33
			C3.068,8.734,2.891,8.943,2.792,9.192C2.749,9.31,2.726,9.433,2.724,9.557L2.32,9.589l-1.753,2.24l1.753,1.979l0.64-0.033
			l-0.101,0.199C2.839,14.188,2.9,14.4,3.027,14.57c0.225,0.353,0.765,1.045,1.618,2.08c0.877,1.057,1.473,1.75,1.787,2.077
			c0.322,0.336,0.698,0.614,1.112,0.826c0.418,0.176,0.882,0.198,1.315,0.067c0.382-0.106,0.702-0.371,0.878-0.728
			c0-0.004,0-0.009,0-0.012c0.002-0.02,0.018-0.023,0.033-0.021c-0.037-0.021-0.071-0.041-0.101-0.065
			c-0.065-0.062-0.102-0.146-0.101-0.231C9.564,18.465,9.6,18.37,9.669,18.297c0.131-0.119,0.328-0.131,0.474-0.029
			c0.068-0.07,0.147-0.125,0.235-0.166c0.118-0.065,0.21-0.123,0.303-0.166c-0.021-0.041-0.032-0.084-0.034-0.131
			c0-0.088,0.038-0.174,0.101-0.229c0.061-0.066,0.147-0.101,0.235-0.099c0.101-0.006,0.197,0.03,0.271,0.099
			c0.027,0.028,0.049,0.062,0.067,0.1c0.187-0.067,0.379-0.125,0.574-0.168c-0.021-0.016-0.033-0.039-0.034-0.065
			c-0.005-0.099,0.032-0.194,0.101-0.264c0.077-0.064,0.171-0.097,0.27-0.099c0.087,0,0.173,0.032,0.236,0.099
			c0.053,0.04,0.087,0.1,0.1,0.165l0.642-0.067c-0.02-0.019-0.032-0.041-0.034-0.065c0-0.088,0.037-0.17,0.101-0.231
			c0.077-0.058,0.171-0.095,0.27-0.099c0.089,0,0.174,0.035,0.236,0.099c0.067,0.045,0.105,0.119,0.101,0.199
			c0.224-0.021,0.45-0.033,0.674-0.033v-0.031c0.003-0.094,0.054-0.182,0.134-0.229c0.001-0.002,0.003-0.002,0.004-0.004
			c0.13-0.129,0.34-0.127,0.468,0.004c0.065,0.06,0.101,0.144,0.101,0.229c0.136,0,0.271-0.012,0.405-0.03h0.405
			c0-0.091,0.036-0.175,0.1-0.231c0.063-0.063,0.148-0.097,0.236-0.095c0.098-0.006,0.197,0.026,0.27,0.095
			c0.064,0.06,0.1,0.144,0.1,0.231c1.282-0.002,3.732,0.03,7.352,0.099c3.371,0,6.001-0.065,7.89-0.199
			c1.837-0.185,3.686-0.229,5.529-0.131c1.069,0.063,2.097,0.43,2.966,1.055c0.32,0.248,0.603,0.535,0.844,0.857
			c0.2,0.234,0.381,0.488,0.538,0.76c0.14,0.197,0.31,0.377,0.505,0.521c0.189,0.113,0.405,0.175,0.624,0.177h0.017
			c0.046,0,0.09-0.002,0.135-0.009c0.669-0.144,1.188-0.674,1.315-1.348c0.088-0.289,0.167-0.598,0.235-0.928l0.068-0.396h3.878
			c0.294-0.663,0.666-0.86,1.113-0.595c0.01-0.059,0.047-0.108,0.103-0.133c0.086-0.071,0.192-0.104,0.303-0.101
			c0.102-0.004,0.197,0.03,0.271,0.101c0.057,0.031,0.104,0.078,0.137,0.133c0.068-0.061,0.146-0.104,0.234-0.133
			c0.24-0.067,0.49-0.101,0.74-0.101c0.252-0.006,0.5,0.026,0.74,0.101c0.1,0.022,0.19,0.069,0.271,0.133
			c0.019-0.038,0.043-0.073,0.07-0.104c0.168-0.182,0.452-0.194,0.637-0.026c0.039,0.037,0.072,0.082,0.103,0.133
			c0.02-0.039,0.043-0.073,0.067-0.104c0.168-0.185,0.455-0.197,0.64-0.029c0.039,0.037,0.074,0.082,0.104,0.133
			c0.08-0.063,0.172-0.108,0.271-0.133c0.24-0.072,0.486-0.104,0.74-0.101c0.236-0.004,0.479,0.029,0.709,0.101
			c0.098,0.022,0.188,0.07,0.271,0.133c0.024-0.051,0.059-0.096,0.1-0.133c0.183-0.131,0.427-0.131,0.604,0
			c0.039,0.037,0.074,0.082,0.104,0.133c0.031-0.055,0.08-0.102,0.137-0.133c0.086-0.072,0.191-0.104,0.303-0.101
			c0.103-0.004,0.195,0.031,0.271,0.101c0.058,0.031,0.104,0.078,0.136,0.133c0.069-0.061,0.147-0.104,0.237-0.133
			c0.484-0.131,0.996-0.131,1.479,0c0.097,0.033,0.187,0.078,0.271,0.133c0.011-0.059,0.05-0.108,0.103-0.133
			c0.014-0.01,0.024-0.019,0.035-0.024c0.229-0.144,0.53-0.071,0.672,0.157c0.024-0.051,0.063-0.096,0.104-0.133
			c0.184-0.131,0.428-0.131,0.605,0c0.041,0.037,0.074,0.082,0.102,0.133c0.08-0.063,0.174-0.108,0.271-0.133
			c0.229-0.07,0.471-0.104,0.707-0.101c0.252-0.004,0.502,0.027,0.742,0.101c0.1,0.022,0.188,0.07,0.271,0.133
			c0.022-0.051,0.062-0.096,0.103-0.133c0.184-0.131,0.428-0.131,0.604,0c0.085,0.072,0.175,0.14,0.271,0.197
			c0.063-0.041,0.129-0.07,0.196-0.091c0.369-0.101,0.746,0.119,0.849,0.486l16.047,0.137l9.914-7.428
			c-1.281-0.288-2.941-0.598-4.99-0.927c-3.87-0.637-7.771-1.076-11.689-1.32c-3.707-0.198-9.799-0.354-18.271-0.465l-11.64-0.101
			c-0.046-0.449-0.136-0.891-0.269-1.321c-0.271-0.924-0.641-1.431-1.113-1.519c-0.06-0.011-0.121-0.018-0.181-0.018L43.235,4.447
			L43.235,4.447z"/>
	</defs>
	<clipPath id="SVGID_2_">
		<use xlink:href="#SVGID_1_"  overflow="visible"/>
	</clipPath>
	<g clip-path="url(#SVGID_2_)">
		<g opacity="0.7">
			
				<linearGradient id="SVGID_3_" gradientUnits="userSpaceOnUse" x1="-537.7549" y1="171.6104" x2="-518.1523" y2="171.6104" gradientTransform="matrix(1 0 0 1 561.3799 -165.6211)">
				<stop  offset="0" style="stop-color:#CA4EE5;stop-opacity:0"/>
				<stop  offset="0.4624" style="stop-color:#F6EBE6"/>
			</linearGradient>
			<polygon fill="url(#SVGID_3_)" points="23.891,15.625 23.625,15.358 28.231,10.75 28.231,9.332 30.237,7.323 31.994,7.323 
				42.962,-3.646 43.228,-3.379 32.149,7.701 30.395,7.701 28.608,9.485 28.608,10.908 			"/>
		</g>
		<g opacity="0.7">
			
				<linearGradient id="SVGID_4_" gradientUnits="userSpaceOnUse" x1="-500.6396" y1="171.7344" x2="-490.4482" y2="171.7344" gradientTransform="matrix(1 0 0 1 561.3799 -165.6211)">
				<stop  offset="0" style="stop-color:#CA4EE5;stop-opacity:0"/>
				<stop  offset="0.5753" style="stop-color:#F6EBE6"/>
			</linearGradient>
			<polygon fill="url(#SVGID_4_)" points="60.877,11.123 60.74,10.982 63.135,8.587 63.135,7.85 64.178,6.805 65.09,6.805 
				70.793,1.103 70.932,1.241 65.172,7.001 64.258,7.001 63.33,7.929 63.33,8.667 			"/>
		</g>
		<g>
			
				<linearGradient id="SVGID_5_" gradientUnits="userSpaceOnUse" x1="-525.3638" y1="174.1035" x2="-502.7568" y2="174.1035" gradientTransform="matrix(1 0 0 1 561.3799 -165.6211)">
				<stop  offset="0" style="stop-color:#CA4EE5;stop-opacity:0"/>
				<stop  offset="1" style="stop-color:#F6EBE6"/>
			</linearGradient>
			<polygon fill="url(#SVGID_5_)" points="36.321,19.595 36.016,19.288 41.329,13.974 41.329,12.337 43.643,10.024 45.667,10.024 
				58.314,-2.629 58.623,-2.32 45.848,10.457 43.825,10.457 41.763,12.517 41.763,14.156 			"/>
		</g>
		<g opacity="0.7">
			
				<linearGradient id="SVGID_6_" gradientUnits="userSpaceOnUse" x1="-538.1567" y1="172.9971" x2="-526.8921" y2="172.9971" gradientTransform="matrix(1 0 0 1 561.3799 -165.6211)">
				<stop  offset="0" style="stop-color:#CA4EE5;stop-opacity:0"/>
				<stop  offset="0.5591" style="stop-color:#F6EBE6"/>
			</linearGradient>
			<polygon fill="url(#SVGID_6_)" points="23.349,12.929 23.223,12.802 27.373,8.653 27.373,7.979 28.325,7.027 29.157,7.027 
				34.362,1.822 34.488,1.948 29.231,7.205 28.398,7.205 27.551,8.053 27.551,8.727 			"/>
		</g>
		<g>
			
				<linearGradient id="SVGID_7_" gradientUnits="userSpaceOnUse" x1="-559.8218" y1="176.5986" x2="-548.5566" y2="176.5986" gradientTransform="matrix(1 0 0 1 561.3799 -165.6211)">
				<stop  offset="0" style="stop-color:#CA4EE5;stop-opacity:0"/>
				<stop  offset="1" style="stop-color:#F6EBE6"/>
			</linearGradient>
			<polygon fill="url(#SVGID_7_)" points="1.684,16.531 1.558,16.404 5.707,12.253 5.707,11.582 6.66,10.628 7.492,10.628 
				12.697,5.423 12.823,5.548 7.566,10.807 6.733,10.807 5.886,11.655 5.886,12.33 			"/>
		</g>
		
			<linearGradient id="SVGID_8_" gradientUnits="userSpaceOnUse" x1="-546.7461" y1="172.8936" x2="-560.145" y2="186.2924" gradientTransform="matrix(1 0 0 1 561.3799 -165.6211)">
			<stop  offset="0" style="stop-color:#CA4EE5;stop-opacity:0"/>
			<stop  offset="1" style="stop-color:#F6EBE6"/>
		</linearGradient>
		<polygon fill="url(#SVGID_8_)" points="13.698,6.166 0,19.864 4.08,19.864 17.764,6.181 		"/>
		
			<linearGradient id="SVGID_9_" gradientUnits="userSpaceOnUse" x1="-542.5522" y1="172.8926" x2="-557.2213" y2="187.5617" gradientTransform="matrix(1 0 0 1 561.3799 -165.6211)">
			<stop  offset="0" style="stop-color:#CA4EE5;stop-opacity:0"/>
			<stop  offset="1" style="stop-color:#F6EBE6"/>
		</linearGradient>
		<polygon fill="url(#SVGID_9_)" points="15.855,6.712 2.157,20.409 9.219,20.409 22.903,6.727 		"/>
		
			<linearGradient id="SVGID_10_" gradientUnits="userSpaceOnUse" x1="-519.1152" y1="171.2754" x2="-540.4562" y2="192.6165" gradientTransform="matrix(1 0 0 1 561.3799 -165.6211)">
			<stop  offset="0" style="stop-color:#CA4EE5;stop-opacity:0"/>
			<stop  offset="0.7742" style="stop-color:#F6EBE6"/>
		</linearGradient>
		<polygon opacity="0.7" fill="url(#SVGID_10_)" enable-background="new    " points="37.941,4.839 18.013,24.767 28.288,24.767 
			48.195,4.861 		"/>
		
			<linearGradient id="SVGID_11_" gradientUnits="userSpaceOnUse" x1="-514.9238" y1="174.9932" x2="-523.0941" y2="183.1635" gradientTransform="matrix(1 0 0 1 561.3799 -165.6211)">
			<stop  offset="0" style="stop-color:#CA4EE5;stop-opacity:0"/>
			<stop  offset="0.672" style="stop-color:#F6EBE6"/>
		</linearGradient>
		<polygon opacity="0.7" fill="url(#SVGID_11_)" enable-background="new    " points="44.801,9.059 37.171,16.689 41.104,16.689 
			48.727,9.067 		"/>
		
			<linearGradient id="SVGID_12_" gradientUnits="userSpaceOnUse" x1="-504.5684" y1="170.3037" x2="-512.7403" y2="178.4757" gradientTransform="matrix(1 0 0 1 561.3799 -165.6211)">
			<stop  offset="0" style="stop-color:#CA4EE5;stop-opacity:0"/>
			<stop  offset="0.7688" style="stop-color:#F6B8FF"/>
		</linearGradient>
		<polygon fill="url(#SVGID_12_)" points="55.154,4.371 47.523,12.001 51.459,12.001 59.08,4.378 		"/>
		
			<linearGradient id="SVGID_13_" gradientUnits="userSpaceOnUse" x1="-519.8813" y1="173.9268" x2="-528.0522" y2="182.0978" gradientTransform="matrix(1 0 0 1 561.3799 -165.6211)">
			<stop  offset="0" style="stop-color:#CA4EE5;stop-opacity:0"/>
			<stop  offset="1" style="stop-color:#F6B8FF"/>
		</linearGradient>
		<polygon fill="url(#SVGID_13_)" points="39.843,7.994 32.213,15.625 36.146,15.625 43.768,8.001 		"/>
		<g>
			
				<linearGradient id="SVGID_14_" gradientUnits="userSpaceOnUse" x1="-538.4141" y1="181.998" x2="-528.6587" y2="181.998" gradientTransform="matrix(1 0 0 1 561.3799 -165.6211)">
				<stop  offset="0" style="stop-color:#CA4EE5;stop-opacity:0"/>
				<stop  offset="1" style="stop-color:#F6EBE6"/>
			</linearGradient>
			<polygon fill="url(#SVGID_14_)" points="23.181,21.255 22.966,21.042 32.506,11.5 32.721,11.714 			"/>
		</g>
	</g>
</g>
<linearGradient id="shape5_1_" gradientUnits="userSpaceOnUse" x1="67.165" y1="15.7563" x2="67.832" y2="31.4233">
	<stop  offset="0" style="stop-color:#4F3468"/>
	<stop  offset="0.4892" style="stop-color:#893BDC"/>
	<stop  offset="1" style="stop-color:#CA4EE5"/>
</linearGradient>
<path id="shape5" fill="url(#shape5_1_)" d="M77.212,31.251c-0.313,0-0.625-0.05-0.922-0.147c-0.298,0.104-0.608,0.147-0.922,0.147
	h-8.193c-0.185,0-0.442-0.009-0.771-0.075c-0.217,0.051-0.438,0.075-0.663,0.075h-2.664c-0.815,0-1.604-0.342-2.166-0.937
	c-0.078-0.086-0.149-0.174-0.22-0.271l-0.909,0.648c-0.503,0.354-1.101,0.554-1.726,0.554h-3.584c-0.72,0-1.402-0.269-1.938-0.722
	c-0.614,0.427-1.354,0.649-2.112,0.649c-0.75,0-1.479-0.222-2.104-0.642c-0.164-0.11-0.314-0.233-0.451-0.37
	c-1.021-1.021-1.363-2.425-0.92-3.753l0.044-0.128l0.079-0.203c-1.8-0.254-3.146-1.769-3.146-3.646V22.24
	c0-0.741,0.274-1.45,0.773-1.996l4.747-5.232c0.646-1.069,1.765-1.679,3.08-1.679h0.41c2.063,0,3.686,1.618,3.686,3.684
	c0,0-0.001,0.289-0.003,0.331c0.555-0.653,1.37-1.044,2.26-1.044h8.396c0.264,0,0.521,0.034,0.771,0.103
	c0.25-0.067,0.508-0.103,0.771-0.103h9.221c0.24,0,0.479,0.029,0.718,0.087c0.229-0.058,0.479-0.087,0.722-0.087h8.396
	c0.917,0,1.797,0.433,2.354,1.159c0.563,0.726,0.752,1.689,0.519,2.573l-0.407,1.532c-0.146,0.541-0.436,1.02-0.825,1.395
	c-0.018,0.188-0.049,0.372-0.098,0.555l-0.41,1.537c-0.071,0.282-0.188,0.551-0.347,0.799c0.168,0.533,0.188,1.109,0.039,1.656
	l-0.412,1.539c-0.35,1.297-1.521,2.202-2.865,2.202H77.212z M74.173,23.782l0.017-0.009h-0.795l-0.004,0.009H74.173z"/>
<path id="ACE" fill="#FFFFFF" d="M51.402,23.163h-3.789c-0.409,0-0.717-0.308-0.717-0.718c0-0.104,0-0.104,0-0.204l5.018-5.531
	c0.104-0.307,0.311-0.41,0.615-0.41h0.41c0.408,0,0.717,0.308,0.717,0.717c0,0.102,0,0.205,0,0.205l-2.458,3.584H55.6
	c0.615,0,0.313,1.127-0.103,1.639l-4.507,5.531c-0.309,0.308-0.717,0.308-1.023,0.104c-0.205-0.206-0.309-0.41-0.205-0.719
	L51.402,23.163L51.402,23.163L51.402,23.163z M58.88,19.271l0.409,0.41l-4.813,8.603h3.584l2.146-1.536h2.976l-0.104,1.536h2.663
	l1.535-9.013H58.88L58.88,19.271z M63.387,20.809l-0.104,3.482h-2.97l2.047-3.482H63.387L63.387,20.809z M67.177,28.284h8.191
	l0.612-2.15l-0.818,0.614H69.43l1.739-5.941h6.452l0.408-1.535h-9.217l-2.355,7.988c-0.102,0.104-0.102,0.309-0.102,0.409
	c0,0.103,0,0.205,0.103,0.31c0.103,0.105,0.205,0.203,0.308,0.203C66.971,28.284,67.074,28.284,67.177,28.284L67.177,28.284
	L67.177,28.284z M79.466,19.271l0.312,0.607l-2.563,8.396h8.193l0.408-1.533h-5.121l0.718-2.458h4.711l0.41-1.537h-4.507l0.611-1.94
	h4.813l0.406-1.535H79.466L79.466,19.271z"/>
</svg>
