<?xml version="1.0" encoding="utf-8"?>
<!-- Generator: Adobe Illustrator 16.0.0, SVG Export Plug-In . SVG Version: 6.00 Build 0)  -->
<!DOCTYPE svg PUBLIC "-//W3C//DTD SVG 1.1//EN" "http://www.w3.org/Graphics/SVG/1.1/DTD/svg11.dtd">
<svg version="1.1" id="tc" xmlns="http://www.w3.org/2000/svg" xmlns:xlink="http://www.w3.org/1999/xlink" x="0px" y="0px"
	 width="53.047px" height="36px" viewBox="0 0 53.047 36" enable-background="new 0 0 53.047 36" xml:space="preserve">
<linearGradient id="shape1_1_" gradientUnits="userSpaceOnUse" x1="-56.7881" y1="-1612.2822" x2="-7.0117" y2="-1612.2822" gradientTransform="matrix(1 0 0 -1 58.96 -1594.2813)">
	<stop  offset="0" style="stop-color:#CA4EE5"/>
	<stop  offset="0.3011" style="stop-color:#570090"/>
	<stop  offset="0.7419" style="stop-color:#893BDC"/>
	<stop  offset="1" style="stop-color:#CA4EE5"/>
</linearGradient>
<path id="shape1" fill="url(#shape1_1_)" d="M20.939,18.001c-0.343-0.044-0.585-0.357-0.542-0.7v-3.156
	c-0.009-0.06-0.011-0.121-0.004-0.182c0.042-0.356,0.365-0.61,0.721-0.568h9.068c0.055-0.003,0.111-0.001,0.166,0.01
	c0.344,0.067,0.564,0.396,0.5,0.74v3.153c0.008,0.057,0.01,0.114,0.002,0.17c-0.039,0.333-0.342,0.57-0.672,0.53h-9.064
	c-0.031,0.005-0.063,0.007-0.095,0.007C20.993,18.005,20.967,18.003,20.939,18.001 M5.835,0.839L5.627,0.94v0.797
	C5.249,1.982,4.888,2.25,4.544,2.541C4.008,3.029,3.646,3.679,3.513,4.392C3.239,5.46,2.983,6.545,2.742,7.645
	C2.6,8.237,2.429,8.82,2.228,9.395c-0.035,0.209-0.055,0.419-0.056,0.631v0.043c0,0.059,0.002,0.117,0.005,0.176
	c0.013,0.456,0.136,0.9,0.358,1.299c0.25,0.478,0.647,0.865,1.133,1.099c0.659,0.449,1.366,0.819,2.111,1.101
	c0.215,0.094,0.438,0.163,0.669,0.203c0.092,0.007,0.182,0.041,0.256,0.098c0.21,0.064,0.368,0.238,0.414,0.452v0.1h0.104
	c-0.005,0.055,0.014,0.11,0.052,0.15c0,0.065,0.02,0.102,0.053,0.102v0.248C7.316,15.334,7.281,15.57,7.219,15.8v0.249
	c-0.342,0.9-0.753,2.049-1.232,3.449c-0.45,1.368-0.915,2.836-1.392,4.404c-0.44,1.517-0.8,3.053-1.082,4.604
	c-0.279,1.316-0.434,2.657-0.46,4.004v0.803h0.06c0.713,1.33,1.408,2.002,2.056,2.002c0.372,0,2.21-0.086,5.505-0.256
	c1.061-0.103,2.091-0.147,3.09-0.147c0.956-0.034,1.473-0.052,1.543-0.052h0.146c0.242-0.135,0.504-0.271,0.776-0.396
	c0.28-0.129,0.474-0.396,0.515-0.697l0.107-0.152c0.001-0.162-0.055-0.32-0.156-0.447c-0.074-0.141-0.18-0.262-0.31-0.352
	l-0.204-0.199c0.063-0.164,0.171-0.479,0.306-0.948c0.07-0.362,0.224-1.019,0.464-1.948c0.203-0.768,0.394-1.482,0.566-2.15
	c0.074-0.498,0.214-0.982,0.413-1.446l0.049-0.306c0.213-0.381,0.386-0.778,0.513-1.196c0.115-0.44,0.168-0.896,0.157-1.353v-0.4
	c-0.087-0.661,0.058-1.337,0.413-1.902l0.205-0.098c0.156-0.241,0.393-0.422,0.671-0.5c0.713-0.147,1.45-0.147,2.165,0h0.107
	c0.42-0.104,0.858-0.12,1.287-0.053c0.479,0.031,1.031,0.064,1.647,0.101l2.42,0.104c0.771,0.033,1.545,0.002,2.313-0.104
	c0.668-0.099,1.305-0.354,1.854-0.747c0.578-0.411,0.949-1.051,1.027-1.751c0.1-0.512,0.152-1.032,0.156-1.553v-1.152
	c0.016-0.472-0.037-0.945-0.156-1.401c0.219-0.094,0.426-0.211,0.617-0.349c0.352-0.204,0.711-0.386,1.082-0.551
	c0.375-0.167,0.688-0.316,0.928-0.447l0.564-0.205h11.578l0.053-0.198c0.137-0.172,0.256-0.357,0.354-0.551
	c0.209-0.369,0.334-0.778,0.36-1.2c0.651-0.037,1.31-0.037,1.957,0h0.5l0.414,0.15l0.149-0.401v-0.26
	c-0.01-0.201,0.013-0.403,0.056-0.599l0.313-0.253l0.105-0.199c0-0.267,0.035-0.784,0.104-1.551
	c0.035-0.799,0.056-1.582,0.056-2.353c0-0.466-0.021-0.884-0.054-1.251c0.017-0.361-0.059-0.719-0.205-1.049
	C51.354,1.476,50.98,0.9,50.566,0.84c-0.188-0.03-0.377-0.046-0.563-0.049c-0.088,0.024-0.176,0.039-0.269,0.049h-0.153v0.2
	c-0.164,0.41-0.408,0.784-0.724,1.099L48.71,2.291H35.689l-0.205-0.2c-0.053-0.06-0.127-0.097-0.207-0.1H10.518
	C9.991,1.624,9.42,1.321,8.821,1.088c-0.58-0.265-1.209-0.4-1.84-0.4C6.597,0.688,6.212,0.738,5.835,0.839"/>
<g>
	<defs>
		<path id="SVGID_1_" d="M20.939,18.001c-0.343-0.044-0.585-0.357-0.542-0.7v-3.156c-0.009-0.06-0.011-0.121-0.004-0.182
			c0.042-0.356,0.365-0.61,0.721-0.568h9.068c0.055-0.003,0.111-0.001,0.166,0.01c0.344,0.067,0.564,0.396,0.5,0.74v3.153
			c0.008,0.057,0.01,0.114,0.002,0.17c-0.039,0.333-0.342,0.57-0.672,0.53h-9.064c-0.031,0.005-0.063,0.007-0.095,0.007
			C20.993,18.005,20.967,18.003,20.939,18.001 M5.835,0.839L5.627,0.94v0.797C5.249,1.982,4.888,2.25,4.544,2.541
			C4.008,3.029,3.646,3.679,3.513,4.392C3.239,5.46,2.983,6.545,2.742,7.645C2.6,8.237,2.429,8.82,2.228,9.395
			c-0.035,0.209-0.055,0.419-0.056,0.631v0.043c0,0.059,0.002,0.117,0.005,0.176c0.013,0.456,0.136,0.9,0.358,1.299
			c0.25,0.478,0.647,0.865,1.133,1.099c0.659,0.449,1.366,0.819,2.111,1.101c0.215,0.094,0.438,0.163,0.669,0.203
			c0.092,0.007,0.182,0.041,0.256,0.098c0.21,0.064,0.368,0.238,0.414,0.452v0.1h0.104c-0.005,0.055,0.014,0.11,0.052,0.15
			c0,0.065,0.02,0.102,0.053,0.102v0.248C7.316,15.334,7.281,15.57,7.219,15.8v0.249c-0.342,0.9-0.753,2.049-1.232,3.449
			c-0.45,1.368-0.915,2.836-1.392,4.404c-0.44,1.517-0.8,3.053-1.082,4.604c-0.279,1.316-0.434,2.657-0.46,4.004v0.803h0.06
			c0.713,1.33,1.408,2.002,2.056,2.002c0.372,0,2.21-0.086,5.505-0.256c1.061-0.103,2.091-0.147,3.09-0.147
			c0.956-0.034,1.473-0.052,1.543-0.052h0.146c0.242-0.135,0.504-0.271,0.776-0.396c0.28-0.129,0.474-0.396,0.515-0.697l0.107-0.152
			c0.001-0.162-0.055-0.32-0.156-0.447c-0.074-0.141-0.18-0.262-0.31-0.352l-0.204-0.199c0.063-0.164,0.171-0.479,0.306-0.948
			c0.07-0.362,0.224-1.019,0.464-1.948c0.203-0.768,0.394-1.482,0.566-2.15c0.074-0.498,0.214-0.982,0.413-1.446l0.049-0.306
			c0.213-0.381,0.386-0.778,0.513-1.196c0.115-0.44,0.168-0.896,0.157-1.353v-0.4c-0.087-0.661,0.058-1.337,0.413-1.902l0.205-0.098
			c0.156-0.241,0.393-0.422,0.671-0.5c0.713-0.147,1.45-0.147,2.165,0h0.107c0.42-0.104,0.858-0.12,1.287-0.053
			c0.479,0.031,1.031,0.064,1.647,0.101l2.42,0.104c0.771,0.033,1.545,0.002,2.313-0.104c0.668-0.099,1.305-0.354,1.854-0.747
			c0.578-0.411,0.949-1.051,1.027-1.751c0.1-0.512,0.152-1.032,0.156-1.553v-1.152c0.016-0.472-0.037-0.945-0.156-1.401
			c0.219-0.094,0.426-0.211,0.617-0.349c0.352-0.204,0.711-0.386,1.082-0.551c0.375-0.167,0.688-0.316,0.928-0.447l0.564-0.205
			h11.578l0.053-0.198c0.137-0.172,0.256-0.357,0.354-0.551c0.209-0.369,0.334-0.778,0.36-1.2c0.651-0.037,1.31-0.037,1.957,0h0.5
			l0.414,0.15l0.149-0.401v-0.26c-0.01-0.201,0.013-0.403,0.056-0.599l0.313-0.253l0.105-0.199c0-0.267,0.035-0.784,0.104-1.551
			c0.035-0.799,0.056-1.582,0.056-2.353c0-0.466-0.021-0.884-0.054-1.251c0.017-0.361-0.059-0.719-0.205-1.049
			C51.354,1.476,50.98,0.9,50.566,0.84c-0.188-0.03-0.377-0.046-0.563-0.049c-0.088,0.024-0.176,0.039-0.269,0.049h-0.153v0.2
			c-0.164,0.41-0.408,0.784-0.724,1.099L48.71,2.291H35.689l-0.205-0.2c-0.053-0.06-0.127-0.097-0.207-0.1H10.518
			C9.991,1.624,9.42,1.321,8.821,1.088c-0.58-0.265-1.209-0.4-1.84-0.4C6.597,0.688,6.212,0.738,5.835,0.839"/>
	</defs>
	<clipPath id="SVGID_2_">
		<use xlink:href="#SVGID_1_"  overflow="visible"/>
	</clipPath>
	<g clip-path="url(#SVGID_2_)">
		<g opacity="0.7">
			
				<linearGradient id="SVGID_3_" gradientUnits="userSpaceOnUse" x1="-556.7397" y1="182.1582" x2="-537.1377" y2="182.1582" gradientTransform="matrix(1 0 0 1 561.3799 -165.6211)">
				<stop  offset="0" style="stop-color:#CA4EE5;stop-opacity:0"/>
				<stop  offset="0.4624" style="stop-color:#F6EBE6"/>
			</linearGradient>
			<polygon fill="url(#SVGID_3_)" points="4.906,26.172 4.64,25.906 9.246,21.298 9.246,19.879 11.252,17.871 13.009,17.871 
				23.977,6.902 24.242,7.168 13.164,18.249 11.41,18.249 9.623,20.033 9.623,21.456 			"/>
		</g>
		<g opacity="0.7">
			
				<linearGradient id="SVGID_4_" gradientUnits="userSpaceOnUse" x1="-519.624" y1="182.2813" x2="-509.4326" y2="182.2813" gradientTransform="matrix(1 0 0 1 561.3799 -165.6211)">
				<stop  offset="0" style="stop-color:#CA4EE5;stop-opacity:0"/>
				<stop  offset="0.5753" style="stop-color:#F6EBE6"/>
			</linearGradient>
			<polygon fill="url(#SVGID_4_)" points="41.893,21.67 41.756,21.529 44.15,19.135 44.15,18.398 45.193,17.354 46.105,17.354 
				51.809,11.65 51.947,11.789 46.188,17.549 45.273,17.549 44.346,18.477 44.346,19.216 			"/>
		</g>
		<g>
			
				<linearGradient id="SVGID_5_" gradientUnits="userSpaceOnUse" x1="-544.3486" y1="184.6523" x2="-521.7412" y2="184.6523" gradientTransform="matrix(1 0 0 1 561.3799 -165.6211)">
				<stop  offset="0" style="stop-color:#CA4EE5;stop-opacity:0"/>
				<stop  offset="1" style="stop-color:#F6EBE6"/>
			</linearGradient>
			<polygon fill="url(#SVGID_5_)" points="17.336,30.143 17.031,29.836 22.344,24.521 22.344,22.885 24.658,20.572 26.681,20.572 
				39.33,7.919 39.639,8.229 26.863,21.004 24.839,21.004 22.778,23.064 22.778,24.703 			"/>
		</g>
		<g opacity="0.7">
			
				<linearGradient id="SVGID_6_" gradientUnits="userSpaceOnUse" x1="-557.1416" y1="183.5439" x2="-545.877" y2="183.5439" gradientTransform="matrix(1 0 0 1 561.3799 -165.6211)">
				<stop  offset="0" style="stop-color:#CA4EE5;stop-opacity:0"/>
				<stop  offset="0.5591" style="stop-color:#F6EBE6"/>
			</linearGradient>
			<polygon fill="url(#SVGID_6_)" points="4.364,23.477 4.238,23.35 8.388,19.201 8.388,18.527 9.34,17.574 10.172,17.574 
				15.377,12.369 15.503,12.496 10.246,17.753 9.413,17.753 8.566,18.602 8.566,19.275 			"/>
		</g>
		<g>
			
				<linearGradient id="SVGID_7_" gradientUnits="userSpaceOnUse" x1="-578.8066" y1="187.1455" x2="-567.5415" y2="187.1455" gradientTransform="matrix(1 0 0 1 561.3799 -165.6211)">
				<stop  offset="0" style="stop-color:#CA4EE5;stop-opacity:0"/>
				<stop  offset="1" style="stop-color:#F6EBE6"/>
			</linearGradient>
			<polygon fill="url(#SVGID_7_)" points="-17.301,27.078 -17.427,26.951 -13.278,22.802 -13.278,22.129 -12.325,21.176 
				-11.493,21.176 -6.288,15.971 -6.162,16.097 -11.419,21.355 -12.252,21.355 -13.099,22.203 -13.099,22.877 			"/>
		</g>
		
			<linearGradient id="SVGID_8_" gradientUnits="userSpaceOnUse" x1="-565.731" y1="183.4404" x2="-579.13" y2="196.8395" gradientTransform="matrix(1 0 0 1 561.3799 -165.6211)">
			<stop  offset="0" style="stop-color:#CA4EE5;stop-opacity:0"/>
			<stop  offset="1" style="stop-color:#F6EBE6"/>
		</linearGradient>
		<polygon fill="url(#SVGID_8_)" points="-5.287,16.714 -18.985,30.412 -14.905,30.412 -1.221,16.729 		"/>
		
			<linearGradient id="SVGID_9_" gradientUnits="userSpaceOnUse" x1="-561.5371" y1="183.4414" x2="-576.206" y2="198.1104" gradientTransform="matrix(1 0 0 1 561.3799 -165.6211)">
			<stop  offset="0" style="stop-color:#CA4EE5;stop-opacity:0"/>
			<stop  offset="1" style="stop-color:#F6EBE6"/>
		</linearGradient>
		<polygon fill="url(#SVGID_9_)" points="-3.13,17.26 -16.828,30.957 -9.766,30.957 3.918,17.275 		"/>
		
			<linearGradient id="SVGID_10_" gradientUnits="userSpaceOnUse" x1="-538.0991" y1="181.8232" x2="-559.4406" y2="203.1648" gradientTransform="matrix(1 0 0 1 561.3799 -165.6211)">
			<stop  offset="0" style="stop-color:#CA4EE5;stop-opacity:0"/>
			<stop  offset="0.7742" style="stop-color:#F6EBE6"/>
		</linearGradient>
		<polygon opacity="0.7" fill="url(#SVGID_10_)" enable-background="new    " points="18.956,15.388 -0.972,35.314 9.303,35.314 
			29.211,15.408 		"/>
		
			<linearGradient id="SVGID_11_" gradientUnits="userSpaceOnUse" x1="-533.9082" y1="185.541" x2="-542.0783" y2="193.7111" gradientTransform="matrix(1 0 0 1 561.3799 -165.6211)">
			<stop  offset="0" style="stop-color:#CA4EE5;stop-opacity:0"/>
			<stop  offset="0.672" style="stop-color:#F6EBE6"/>
		</linearGradient>
		<polygon opacity="0.7" fill="url(#SVGID_11_)" enable-background="new    " points="25.816,19.607 18.186,27.236 22.119,27.236 
			29.742,19.615 		"/>
		
			<linearGradient id="SVGID_12_" gradientUnits="userSpaceOnUse" x1="-523.5532" y1="180.8506" x2="-531.7247" y2="189.0222" gradientTransform="matrix(1 0 0 1 561.3799 -165.6211)">
			<stop  offset="0" style="stop-color:#CA4EE5;stop-opacity:0"/>
			<stop  offset="0.7688" style="stop-color:#F6B8FF"/>
		</linearGradient>
		<polygon fill="url(#SVGID_12_)" points="36.17,14.919 28.539,22.549 32.475,22.549 40.096,14.927 		"/>
		
			<linearGradient id="SVGID_13_" gradientUnits="userSpaceOnUse" x1="-538.8652" y1="184.4746" x2="-547.0361" y2="192.6456" gradientTransform="matrix(1 0 0 1 561.3799 -165.6211)">
			<stop  offset="0" style="stop-color:#CA4EE5;stop-opacity:0"/>
			<stop  offset="1" style="stop-color:#F6B8FF"/>
		</linearGradient>
		<polygon fill="url(#SVGID_13_)" points="20.858,18.542 13.228,26.172 17.161,26.172 24.784,18.55 		"/>
		<g>
			
				<linearGradient id="SVGID_14_" gradientUnits="userSpaceOnUse" x1="-557.3989" y1="192.5469" x2="-547.6436" y2="192.5469" gradientTransform="matrix(1 0 0 1 561.3799 -165.6211)">
				<stop  offset="0" style="stop-color:#CA4EE5;stop-opacity:0"/>
				<stop  offset="1" style="stop-color:#F6EBE6"/>
			</linearGradient>
			<polygon fill="url(#SVGID_14_)" points="4.196,31.803 3.981,31.59 13.521,22.048 13.736,22.263 			"/>
		</g>
	</g>
</g>
</svg>
