<?xml version="1.0" encoding="utf-8"?>
<!-- Generator: Adobe Illustrator 16.0.0, SVG Export Plug-In . SVG Version: 6.00 Build 0)  -->
<!DOCTYPE svg PUBLIC "-//W3C//DTD SVG 1.1//EN" "http://www.w3.org/Graphics/SVG/1.1/DTD/svg11.dtd">
<svg version="1.1" id="case1" xmlns="http://www.w3.org/2000/svg" xmlns:xlink="http://www.w3.org/1999/xlink" x="0px" y="0px"
	 width="88.5px" height="36px" viewBox="0 0 88.5 36" enable-background="new 0 0 88.5 36" xml:space="preserve">
<linearGradient id="shape_1_" gradientUnits="userSpaceOnUse" x1="-74.3037" y1="2979.1064" x2="3.7007" y2="2979.1064" gradientTransform="matrix(1 0 0 1 75.6196 -2961.1064)">
	<stop  offset="0" style="stop-color:#CA4EE5"/>
	<stop  offset="0.3011" style="stop-color:#570090"/>
	<stop  offset="0.7419" style="stop-color:#893BDC"/>
	<stop  offset="1" style="stop-color:#CA4EE5"/>
</linearGradient>
<path id="shape" fill="url(#shape_1_)" d="M55.171,16.66c-0.147-0.245-0.218-0.535-0.177-0.821c0.013-0.249,0.058-0.495,0.131-0.731
	c0.096-0.297,0.298-0.544,0.568-0.693c0.32-0.174,0.589-0.299,0.789-0.389h0.131c0-0.027,0.029-0.042,0.087-0.042
	c0.026,0,0.204-0.016,0.526-0.044h0.002h4.471c0.472,0.188,0.871,0.521,1.142,0.95c0.192,0.312,0.306,0.669,0.313,1.035
	c0.005,0.209-0.041,0.417-0.131,0.605c-0.119,0.748-1.188,1.251-3.2,1.511c-0.759,0.119-1.53,0.092-2.274-0.086
	c-0.521-0.104-1.027-0.293-1.49-0.562l-0.141-0.043c-0.268-0.164-0.49-0.387-0.658-0.649h-0.086V16.66H55.171z M48.988,5.128h-0.266
	v0.828H48.59c-0.121,0-0.24,0.029-0.354,0.085c-0.105,0.057-0.229,0.1-0.354,0.129c-0.151,0.061-0.313,0.104-0.479,0.13
	C47.3,6.379,47.175,6.438,47.05,6.472c-0.104,0.006-0.207,0.035-0.299,0.087c-0.164-0.014-0.328-0.043-0.483-0.087
	C46.074,6.426,45.887,6.37,45.699,6.3c-0.201-0.097-0.438-0.064-0.608,0.08c-0.216,0.07-0.371,0.255-0.396,0.478v0.131
	c0.021,0.292,0.063,0.581,0.132,0.864c0.09,0.431,0.138,0.664,0.138,0.691c-0.027,0.326-0.104,0.646-0.225,0.95
	c-0.124,0.364-0.313,0.702-0.563,0.993l-0.181,0.172c-0.207,0.27-0.461,0.503-0.74,0.69c-0.069,0.026-0.146,0.04-0.225,0.041
	c-0.105,0.016-0.207,0.079-0.263,0.176c-0.226-0.003-0.44,0.072-0.614,0.215c-0.15,0.163-0.23,0.382-0.22,0.604v0.091
	c-0.019,0.256,0.1,0.5,0.309,0.648c0.241,0.071,0.492,0.1,0.743,0.086c0.354,0.088,0.729,0.174,1.146,0.258
	c0.401,0.048,0.769,0.291,0.964,0.651c0.229,0.345,0.37,0.747,0.396,1.164c-0.005,0.203-0.035,0.404-0.091,0.6
	c-0.088,0.145-0.305,0.62-0.655,1.427c-0.384,0.806-0.772,1.683-1.187,2.631c-0.438,0.949-0.816,1.813-1.136,2.593
	c-0.32,0.807-0.512,1.252-0.57,1.34v0.043h-0.055c0,0.026-0.088,0.351-0.26,0.949c-0.146,0.579-0.22,1.174-0.222,1.77v0.435
	c-0.007,0.19,0.022,0.39,0.089,0.563c-0.001,0.076,0.016,0.148,0.049,0.216v0.17c-0.012,0.069,0.023,0.146,0.086,0.176v0.183
	c0.154,0.147,0.354,0.258,0.568,0.302c0.57,0.153,1.162,0.229,1.754,0.221c0,0.088-0.018,0.176-0.047,0.262
	c-0.061,0.089-0.09,0.188-0.086,0.3c-0.075,0.495,0.125,0.991,0.525,1.295c0.096,0.052,0.198,0.082,0.307,0.086
	c0.055,0.028,0.113,0.043,0.176,0.043c0.071,0.026,0.145,0.044,0.219,0.046L44.998,31h6.141c0.094-0.008,0.182-0.023,0.268-0.041
	c0.16-0.037,0.313-0.113,0.438-0.219c0.316-0.502,0.479-1.09,0.438-1.686v-0.688c-0.087-0.634-0.159-1.125-0.22-1.47
	c-0.027-0.315-0.049-0.563-0.049-0.735v-0.17c0.023-0.021,0.041-0.054,0.049-0.086l1.756-5.976c0.078-0.195,0.216-0.361,0.395-0.477
	c0.256-0.164,0.537-0.281,0.834-0.348c0.447-0.086,0.908-0.086,1.355,0c0.922,0.199,1.856,0.313,2.8,0.348
	c0.528,0.039,1.06,0.01,1.579-0.086c0.613-0.145,1.139-0.287,1.578-0.432c0.373-0.125,0.754-0.229,1.141-0.301
	c0.234-0.037,0.461-0.133,0.657-0.266V18.25c0.106-0.109,0.211-0.223,0.308-0.346c0.146-0.113,0.117-0.33-0.09-0.647V16.74
	c0.002-0.306,0.031-0.61,0.09-0.909c0.092-0.322,0.256-0.617,0.482-0.863c0.359-0.381,0.756-0.729,1.182-1.037
	c0.361-0.267,0.781-0.443,1.229-0.517c0.215-0.06,0.438-0.09,0.656-0.088h1.141c0.412,0,0.834,0.016,1.271,0.045
	c0.469,0.027,0.965,0.043,1.49,0.043h2.322c0.557,0,0.964-0.016,1.229-0.043c0.293-0.029,0.469-0.045,0.525-0.045
	c0.04-0.023,0.084-0.037,0.131-0.041c0.057-0.094,0.102-0.195,0.131-0.3h2.717v-0.301c0-0.088,0.021-0.314,0.045-0.688
	c0-0.348,0.021-0.724,0.045-1.124c0.027-0.38,0.047-0.735,0.047-1.08c0.027-0.373,0.047-0.578,0.047-0.605c0-0.009,0-0.018,0-0.025
	c0.009-0.041,0.048-0.068,0.089-0.061c0.021-0.021,0.041-0.053,0.043-0.086c-0.013-0.158,0.003-0.317,0.034-0.473V7.98
	c0-0.344-0.074-0.683-0.221-0.994c-0.065-0.183-0.108-0.37-0.131-0.563c-0.021-0.212-0.152-0.395-0.354-0.472L78.48,5.822
	l-0.172-0.088c-0.22-0.047-0.438-0.076-0.658-0.087c-0.338-0.073-0.688,0.006-0.965,0.215c-0.052,0.093-0.104,0.18-0.179,0.26
	c-0.021,0.05-0.069,0.083-0.129,0.086c-0.063,0.035-0.125,0.079-0.183,0.131c-0.063,0.034-0.096,0.103-0.084,0.172v0.043H59.15
	c-0.032-0.162-0.149-0.294-0.307-0.348h-0.086c-0.091,0-0.271-0.015-0.527-0.043H54.46c-0.674,0.031-1.252,0.043-1.752,0.043h-2.103
	c-0.024-0.142-0.041-0.286-0.045-0.431c0-0.094-0.031-0.185-0.084-0.261c-0.029-0.115-0.109-0.21-0.222-0.257
	c-0.396-0.087-0.803-0.131-1.211-0.131C49.029,5.127,49.012,5.127,48.988,5.128 M17.53,17.783c-0.504-0.1-0.991-0.273-1.444-0.518
	L15.91,17.22c-0.131-0.157-0.277-0.303-0.439-0.431c-0.084-0.057-0.158-0.13-0.217-0.214l-0.088-0.087
	c-0.149-0.246-0.211-0.535-0.175-0.821c-0.012-0.251,0.033-0.502,0.13-0.733c0.111-0.285,0.312-0.528,0.569-0.692l0.789-0.346
	l0.219-0.087h0.526c0.35-0.029,0.762-0.042,1.229-0.042h1.531c0.586,0,1.157,0,1.711,0.002c0.471,0.211,0.866,0.557,1.139,0.993
	c0.19,0.297,0.297,0.641,0.307,0.992c0.011,0.22-0.018,0.439-0.086,0.648c-0.176,0.668-1.271,1.148-3.288,1.468
	c-0.298,0.047-0.597,0.07-0.896,0.07C18.42,17.941,17.968,17.887,17.53,17.783 M8.722,5v0.86H8.679
	c-0.131-0.003-0.26,0.012-0.387,0.046c-0.14,0.023-0.274,0.067-0.4,0.13c-0.135,0.083-0.283,0.14-0.438,0.171L6.839,6.469
	C6.664,6.454,6.488,6.425,6.316,6.38C6.113,6.313,5.907,6.254,5.698,6.208c-0.2-0.086-0.429-0.07-0.614,0.044
	C4.912,6.35,4.796,6.528,4.778,6.726v0.175C4.791,7.19,4.817,7.476,4.86,7.761c0.067,0.226,0.112,0.456,0.136,0.692
	C4.934,8.761,4.843,9.065,4.729,9.359C4.621,9.73,4.425,10.07,4.16,10.352l-0.131,0.214c-0.206,0.272-0.458,0.506-0.744,0.69
	c-0.069,0.032-0.144,0.046-0.219,0.044c-0.079,0.013-0.152,0.046-0.213,0.098c-0.225-0.004-0.443,0.072-0.617,0.215
	c-0.027,0.028-0.059,0.058-0.086,0.088c-0.133,0.17-0.195,0.385-0.175,0.601v0.04c0.011,0.228,0.103,0.442,0.262,0.605l0.044,0.043
	c0.221,0.095,0.46,0.139,0.7,0.129c0.378,0.058,0.789,0.129,1.226,0.214c0.395,0.056,0.736,0.298,0.92,0.65
	c0.219,0.35,0.34,0.752,0.353,1.163c-0.017,0.204-0.046,0.406-0.088,0.607c-0.265,0.424-0.484,0.873-0.659,1.34
	c-0.378,0.833-0.773,1.726-1.182,2.679c-0.438,0.951-0.832,1.83-1.184,2.642c-0.051,0.091-0.096,0.188-0.133,0.294
	c-0.115,0.338-0.277,0.654-0.48,0.949v0.08c-0.053,0.34-0.127,0.674-0.221,1c-0.143,0.564-0.216,1.145-0.217,1.727
	c0.001,0.09,0.016,0.18,0.045,0.264c0.032,0.066,0.048,0.146,0.045,0.217c-0.001,0.201,0.014,0.402,0.044,0.604v0.352
	c-0.009,0.068,0.025,0.145,0.087,0.172c-0.008,0.063,0.008,0.121,0.045,0.178c0.17,0.133,0.363,0.229,0.57,0.301
	c0.033,0.002,0.064,0.021,0.086,0.043c0.518,0.106,1.047,0.17,1.578,0.172v0.563c0.001,0.263,0.031,0.521,0.09,0.771
	c0.043,0.217,0.191,0.396,0.393,0.479C4.545,30.637,4.78,30.744,5,30.876h6.174c0.074-0.005,0.148-0.021,0.22-0.046
	c0.172-0.028,0.327-0.12,0.438-0.26c0.365-0.447,0.539-1.022,0.481-1.604c0.013-0.254-0.032-0.506-0.132-0.731
	c-0.076-0.483-0.119-0.979-0.131-1.469V25.77l1.801-5.959c0.089-0.179,0.208-0.338,0.348-0.478c0.227-0.17,0.479-0.306,0.746-0.392
	c0.449-0.09,0.911-0.09,1.359,0c1.257,0.199,2.221,0.328,2.893,0.392c0.527,0.039,1.057,0.008,1.576-0.086l0.482-0.131
	c0.351-0.08,0.73-0.189,1.141-0.304c0.41-0.106,0.789-0.229,1.141-0.347c0.235-0.037,0.459-0.127,0.656-0.26v-0.084
	c0.115-0.086,0.219-0.188,0.309-0.301c0.086-0.228,0.068-0.479-0.047-0.69c-0.074-0.162-0.103-0.341-0.087-0.519
	c0.001-0.305,0.031-0.607,0.087-0.906c0.092-0.321,0.258-0.618,0.483-0.864c0.339-0.388,0.72-0.735,1.138-1.037
	c0.402-0.255,0.85-0.43,1.317-0.517c0.185-0.055,0.375-0.085,0.567-0.088h1.271c0.377,0,0.799,0.016,1.27,0.044
	c0.471,0.029,0.951,0.044,1.451,0.044h2.323c0.409,0.006,0.817-0.009,1.226-0.044c0.263-0.028,0.438-0.044,0.527-0.044l0.086-0.043
	c0.061-0.044,0.105-0.103,0.133-0.171c0.002-0.067,0.034-0.129,0.086-0.172h2.631v-0.301c0-0.088,0.016-0.305,0.045-0.65
	c0.062-0.371,0.091-0.746,0.084-1.122c0.033-0.374,0.063-0.748,0.091-1.122c0.028-0.347,0.045-0.534,0.045-0.563V8.885
	c0.028-0.174,0.058-0.329,0.087-0.473c0.061-0.166,0.09-0.341,0.084-0.519c-0.006-0.366-0.111-0.725-0.307-1.036
	c-0.008-0.203-0.036-0.406-0.086-0.605c-0.041-0.215-0.221-0.376-0.438-0.391l-0.09-0.17l-0.086-0.045
	c-0.237-0.095-0.488-0.152-0.743-0.172c-0.332-0.078-0.682,0.02-0.923,0.261c-0.04,0.1-0.119,0.179-0.22,0.218
	c-0.069,0.007-0.123,0.06-0.131,0.129c-0.094,0.074-0.154,0.182-0.172,0.299V6.47h-17.05c-0.067-0.143-0.157-0.271-0.264-0.389
	c-0.062,0-0.121-0.015-0.175-0.044h-0.483c-0.263,0-0.685-0.019-1.271-0.045c-0.586-0.027-1.401-0.041-2.455-0.041
	c-0.672,0.057-1.252,0.085-1.752,0.085C12.287,6.066,11.85,6.08,11.44,6.08h-0.832c0-0.265-0.045-0.529-0.132-0.78
	c-0.02-0.104-0.113-0.179-0.219-0.172C9.884,5.046,9.504,5.003,9.121,5H8.722z"/>
<g>
	<defs>
		<path id="SVGID_1_" d="M55.171,16.66c-0.147-0.245-0.218-0.535-0.177-0.821c0.013-0.249,0.058-0.495,0.131-0.731
			c0.096-0.297,0.298-0.544,0.568-0.693c0.32-0.174,0.589-0.299,0.789-0.389h0.131c0-0.027,0.029-0.042,0.087-0.042
			c0.026,0,0.204-0.016,0.526-0.044h0.002h4.471c0.472,0.188,0.871,0.521,1.142,0.95c0.192,0.312,0.306,0.669,0.313,1.035
			c0.005,0.209-0.041,0.417-0.131,0.605c-0.119,0.748-1.188,1.251-3.2,1.511c-0.759,0.119-1.53,0.092-2.274-0.086
			c-0.521-0.104-1.027-0.293-1.49-0.562l-0.141-0.043c-0.268-0.164-0.49-0.387-0.658-0.649h-0.086V16.66H55.171z M48.988,5.128
			h-0.266v0.828H48.59c-0.121,0-0.24,0.029-0.354,0.085c-0.105,0.057-0.229,0.1-0.354,0.129c-0.151,0.061-0.313,0.104-0.479,0.13
			C47.3,6.379,47.175,6.438,47.05,6.472c-0.104,0.006-0.207,0.035-0.299,0.087c-0.164-0.014-0.328-0.043-0.483-0.087
			C46.074,6.426,45.887,6.37,45.699,6.3c-0.201-0.097-0.438-0.064-0.608,0.08c-0.216,0.07-0.371,0.255-0.396,0.478v0.131
			c0.021,0.292,0.063,0.581,0.132,0.864c0.09,0.431,0.138,0.664,0.138,0.691c-0.027,0.326-0.104,0.646-0.225,0.95
			c-0.124,0.364-0.313,0.702-0.563,0.993l-0.181,0.172c-0.207,0.27-0.461,0.503-0.74,0.69c-0.069,0.026-0.146,0.04-0.225,0.041
			c-0.105,0.016-0.207,0.079-0.263,0.176c-0.226-0.003-0.44,0.072-0.614,0.215c-0.15,0.163-0.23,0.382-0.22,0.604v0.091
			c-0.019,0.256,0.1,0.5,0.309,0.648c0.241,0.071,0.492,0.1,0.743,0.086c0.354,0.088,0.729,0.174,1.146,0.258
			c0.401,0.048,0.769,0.291,0.964,0.651c0.229,0.345,0.37,0.747,0.396,1.164c-0.005,0.203-0.035,0.404-0.091,0.6
			c-0.088,0.145-0.305,0.62-0.655,1.427c-0.384,0.806-0.772,1.683-1.187,2.631c-0.438,0.949-0.816,1.813-1.136,2.593
			c-0.32,0.807-0.512,1.252-0.57,1.34v0.043h-0.055c0,0.026-0.088,0.351-0.26,0.949c-0.146,0.579-0.22,1.174-0.222,1.77v0.435
			c-0.007,0.19,0.022,0.39,0.089,0.563c-0.001,0.076,0.016,0.148,0.049,0.216v0.17c-0.012,0.069,0.023,0.146,0.086,0.176v0.183
			c0.154,0.147,0.354,0.258,0.568,0.302c0.57,0.153,1.162,0.229,1.754,0.221c0,0.088-0.018,0.176-0.047,0.262
			c-0.061,0.089-0.09,0.188-0.086,0.3c-0.075,0.495,0.125,0.991,0.525,1.295c0.096,0.052,0.198,0.082,0.307,0.086
			c0.055,0.028,0.113,0.043,0.176,0.043c0.071,0.026,0.145,0.044,0.219,0.046L44.998,31h6.141c0.094-0.008,0.182-0.023,0.268-0.041
			c0.16-0.037,0.313-0.113,0.438-0.219c0.316-0.502,0.479-1.09,0.438-1.686v-0.688c-0.087-0.634-0.159-1.125-0.22-1.47
			c-0.027-0.315-0.049-0.563-0.049-0.735v-0.17c0.023-0.021,0.041-0.054,0.049-0.086l1.756-5.976
			c0.078-0.195,0.216-0.361,0.395-0.477c0.256-0.164,0.537-0.281,0.834-0.348c0.447-0.086,0.908-0.086,1.355,0
			c0.922,0.199,1.856,0.313,2.8,0.348c0.528,0.039,1.06,0.01,1.579-0.086c0.613-0.145,1.139-0.287,1.578-0.432
			c0.373-0.125,0.754-0.229,1.141-0.301c0.234-0.037,0.461-0.133,0.657-0.266V18.25c0.106-0.109,0.211-0.223,0.308-0.346
			c0.146-0.113,0.117-0.33-0.09-0.647V16.74c0.002-0.306,0.031-0.61,0.09-0.909c0.092-0.322,0.256-0.617,0.482-0.863
			c0.359-0.381,0.756-0.729,1.182-1.037c0.361-0.267,0.781-0.443,1.229-0.517c0.215-0.06,0.438-0.09,0.656-0.088h1.141
			c0.412,0,0.834,0.016,1.271,0.045c0.469,0.027,0.965,0.043,1.49,0.043h2.322c0.557,0,0.964-0.016,1.229-0.043
			c0.293-0.029,0.469-0.045,0.525-0.045c0.04-0.023,0.084-0.037,0.131-0.041c0.057-0.094,0.102-0.195,0.131-0.3h2.717v-0.301
			c0-0.088,0.021-0.314,0.045-0.688c0-0.348,0.021-0.724,0.045-1.124c0.027-0.38,0.047-0.735,0.047-1.08
			c0.027-0.373,0.047-0.578,0.047-0.605c0-0.009,0-0.018,0-0.025c0.009-0.041,0.048-0.068,0.089-0.061
			c0.021-0.021,0.041-0.053,0.043-0.086c-0.013-0.158,0.003-0.317,0.034-0.473V7.98c0-0.344-0.074-0.683-0.221-0.994
			c-0.065-0.183-0.108-0.37-0.131-0.563c-0.021-0.212-0.152-0.395-0.354-0.472L78.48,5.822l-0.172-0.088
			c-0.22-0.047-0.438-0.076-0.658-0.087c-0.338-0.073-0.688,0.006-0.965,0.215c-0.052,0.093-0.104,0.18-0.179,0.26
			c-0.021,0.05-0.069,0.083-0.129,0.086c-0.063,0.035-0.125,0.079-0.183,0.131c-0.063,0.034-0.096,0.103-0.084,0.172v0.043H59.15
			c-0.032-0.162-0.149-0.294-0.307-0.348h-0.086c-0.091,0-0.271-0.015-0.527-0.043H54.46c-0.674,0.031-1.252,0.043-1.752,0.043
			h-2.103c-0.024-0.142-0.041-0.286-0.045-0.431c0-0.094-0.031-0.185-0.084-0.261c-0.029-0.115-0.109-0.21-0.222-0.257
			c-0.396-0.087-0.803-0.131-1.211-0.131C49.029,5.127,49.012,5.127,48.988,5.128 M17.53,17.783c-0.504-0.1-0.991-0.273-1.444-0.518
			L15.91,17.22c-0.131-0.157-0.277-0.303-0.439-0.431c-0.084-0.057-0.158-0.13-0.217-0.214l-0.088-0.087
			c-0.149-0.246-0.211-0.535-0.175-0.821c-0.012-0.251,0.033-0.502,0.13-0.733c0.111-0.285,0.312-0.528,0.569-0.692l0.789-0.346
			l0.219-0.087h0.526c0.35-0.029,0.762-0.042,1.229-0.042h1.531c0.586,0,1.157,0,1.711,0.002c0.471,0.211,0.866,0.557,1.139,0.993
			c0.19,0.297,0.297,0.641,0.307,0.992c0.011,0.22-0.018,0.439-0.086,0.648c-0.176,0.668-1.271,1.148-3.288,1.468
			c-0.298,0.047-0.597,0.07-0.896,0.07C18.42,17.941,17.968,17.887,17.53,17.783 M8.722,5v0.86H8.679
			c-0.131-0.003-0.26,0.012-0.387,0.046c-0.14,0.023-0.274,0.067-0.4,0.13c-0.135,0.083-0.283,0.14-0.438,0.171L6.839,6.469
			C6.664,6.454,6.488,6.425,6.316,6.38C6.113,6.313,5.907,6.254,5.698,6.208c-0.2-0.086-0.429-0.07-0.614,0.044
			C4.912,6.35,4.796,6.528,4.778,6.726v0.175C4.791,7.19,4.817,7.476,4.86,7.761c0.067,0.226,0.112,0.456,0.136,0.692
			C4.934,8.761,4.843,9.065,4.729,9.359C4.621,9.73,4.425,10.07,4.16,10.352l-0.131,0.214c-0.206,0.272-0.458,0.506-0.744,0.69
			c-0.069,0.032-0.144,0.046-0.219,0.044c-0.079,0.013-0.152,0.046-0.213,0.098c-0.225-0.004-0.443,0.072-0.617,0.215
			c-0.027,0.028-0.059,0.058-0.086,0.088c-0.133,0.17-0.195,0.385-0.175,0.601v0.04c0.011,0.228,0.103,0.442,0.262,0.605
			l0.044,0.043c0.221,0.095,0.46,0.139,0.7,0.129c0.378,0.058,0.789,0.129,1.226,0.214c0.395,0.056,0.736,0.298,0.92,0.65
			c0.219,0.35,0.34,0.752,0.353,1.163c-0.017,0.204-0.046,0.406-0.088,0.607c-0.265,0.424-0.484,0.873-0.659,1.34
			c-0.378,0.833-0.773,1.726-1.182,2.679c-0.438,0.951-0.832,1.83-1.184,2.642c-0.051,0.091-0.096,0.188-0.133,0.294
			c-0.115,0.338-0.277,0.654-0.48,0.949v0.08c-0.053,0.34-0.127,0.674-0.221,1c-0.143,0.564-0.216,1.145-0.217,1.727
			c0.001,0.09,0.016,0.18,0.045,0.264c0.032,0.066,0.048,0.146,0.045,0.217c-0.001,0.201,0.014,0.402,0.044,0.604v0.352
			c-0.009,0.068,0.025,0.145,0.087,0.172c-0.008,0.063,0.008,0.121,0.045,0.178c0.17,0.133,0.363,0.229,0.57,0.301
			c0.033,0.002,0.064,0.021,0.086,0.043c0.518,0.106,1.047,0.17,1.578,0.172v0.563c0.001,0.263,0.031,0.521,0.09,0.771
			c0.043,0.217,0.191,0.396,0.393,0.479C4.545,30.637,4.78,30.744,5,30.876h6.174c0.074-0.005,0.148-0.021,0.22-0.046
			c0.172-0.028,0.327-0.12,0.438-0.26c0.365-0.447,0.539-1.022,0.481-1.604c0.013-0.254-0.032-0.506-0.132-0.731
			c-0.076-0.483-0.119-0.979-0.131-1.469V25.77l1.801-5.959c0.089-0.179,0.208-0.338,0.348-0.478
			c0.227-0.17,0.479-0.306,0.746-0.392c0.449-0.09,0.911-0.09,1.359,0c1.257,0.199,2.221,0.328,2.893,0.392
			c0.527,0.039,1.057,0.008,1.576-0.086l0.482-0.131c0.351-0.08,0.73-0.189,1.141-0.304c0.41-0.106,0.789-0.229,1.141-0.347
			c0.235-0.037,0.459-0.127,0.656-0.26v-0.084c0.115-0.086,0.219-0.188,0.309-0.301c0.086-0.228,0.068-0.479-0.047-0.69
			c-0.074-0.162-0.103-0.341-0.087-0.519c0.001-0.305,0.031-0.607,0.087-0.906c0.092-0.321,0.258-0.618,0.483-0.864
			c0.339-0.388,0.72-0.735,1.138-1.037c0.402-0.255,0.85-0.43,1.317-0.517c0.185-0.055,0.375-0.085,0.567-0.088h1.271
			c0.377,0,0.799,0.016,1.27,0.044c0.471,0.029,0.951,0.044,1.451,0.044h2.323c0.409,0.006,0.817-0.009,1.226-0.044
			c0.263-0.028,0.438-0.044,0.527-0.044l0.086-0.043c0.061-0.044,0.105-0.103,0.133-0.171c0.002-0.067,0.034-0.129,0.086-0.172
			h2.631v-0.301c0-0.088,0.016-0.305,0.045-0.65c0.062-0.371,0.091-0.746,0.084-1.122c0.033-0.374,0.063-0.748,0.091-1.122
			c0.028-0.347,0.045-0.534,0.045-0.563V8.885c0.028-0.174,0.058-0.329,0.087-0.473c0.061-0.166,0.09-0.341,0.084-0.519
			c-0.006-0.366-0.111-0.725-0.307-1.036c-0.008-0.203-0.036-0.406-0.086-0.605c-0.041-0.215-0.221-0.376-0.438-0.391l-0.09-0.17
			l-0.086-0.045c-0.237-0.095-0.488-0.152-0.743-0.172c-0.332-0.078-0.682,0.02-0.923,0.261c-0.04,0.1-0.119,0.179-0.22,0.218
			c-0.069,0.007-0.123,0.06-0.131,0.129c-0.094,0.074-0.154,0.182-0.172,0.299V6.47h-17.05c-0.067-0.143-0.157-0.271-0.264-0.389
			c-0.062,0-0.121-0.015-0.175-0.044h-0.483c-0.263,0-0.685-0.019-1.271-0.045c-0.586-0.027-1.401-0.041-2.455-0.041
			c-0.672,0.057-1.252,0.085-1.752,0.085C12.287,6.066,11.85,6.08,11.44,6.08h-0.832c0-0.265-0.045-0.529-0.132-0.78
			c-0.02-0.104-0.113-0.179-0.219-0.172C9.884,5.046,9.504,5.003,9.121,5H8.722z"/>
	</defs>
	<clipPath id="SVGID_2_">
		<use xlink:href="#SVGID_1_"  overflow="visible"/>
	</clipPath>
	<g clip-path="url(#SVGID_2_)">
		<g opacity="0.7">
			
				<linearGradient id="SVGID_3_" gradientUnits="userSpaceOnUse" x1="-558.5352" y1="178.0938" x2="-538.9331" y2="178.0938" gradientTransform="matrix(1 0 0 1 561.3799 -165.6211)">
				<stop  offset="0" style="stop-color:#CA4EE5;stop-opacity:0"/>
				<stop  offset="0.4624" style="stop-color:#F6EBE6"/>
			</linearGradient>
			<polygon fill="url(#SVGID_3_)" points="3.111,22.108 2.845,21.842 7.451,17.233 7.451,15.815 9.457,13.807 11.214,13.807 
				22.182,2.838 22.447,3.104 11.369,14.185 9.615,14.185 7.828,15.969 7.828,17.392 			"/>
		</g>
		<g opacity="0.7">
			
				<linearGradient id="SVGID_4_" gradientUnits="userSpaceOnUse" x1="-521.4199" y1="178.2178" x2="-511.2275" y2="178.2178" gradientTransform="matrix(1 0 0 1 561.3799 -165.6211)">
				<stop  offset="0" style="stop-color:#CA4EE5;stop-opacity:0"/>
				<stop  offset="0.5753" style="stop-color:#F6EBE6"/>
			</linearGradient>
			<polygon fill="url(#SVGID_4_)" points="40.098,17.606 39.96,17.466 42.355,15.071 42.355,14.334 43.398,13.289 44.311,13.289 
				50.014,7.587 50.152,7.725 44.393,13.485 43.479,13.485 42.551,14.413 42.551,15.151 			"/>
		</g>
		<g>
			
				<linearGradient id="SVGID_5_" gradientUnits="userSpaceOnUse" x1="-546.144" y1="180.5879" x2="-523.5361" y2="180.5879" gradientTransform="matrix(1 0 0 1 561.3799 -165.6211)">
				<stop  offset="0" style="stop-color:#CA4EE5;stop-opacity:0"/>
				<stop  offset="1" style="stop-color:#F6EBE6"/>
			</linearGradient>
			<polygon fill="url(#SVGID_5_)" points="15.541,26.079 15.236,25.772 20.549,20.458 20.549,18.821 22.863,16.508 24.886,16.508 
				37.535,3.854 37.844,4.164 25.068,16.94 23.044,16.94 20.983,19.001 20.983,20.64 			"/>
		</g>
		<g opacity="0.7">
			
				<linearGradient id="SVGID_6_" gradientUnits="userSpaceOnUse" x1="-558.937" y1="179.4805" x2="-547.6724" y2="179.4805" gradientTransform="matrix(1 0 0 1 561.3799 -165.6211)">
				<stop  offset="0" style="stop-color:#CA4EE5;stop-opacity:0"/>
				<stop  offset="0.5591" style="stop-color:#F6EBE6"/>
			</linearGradient>
			<polygon fill="url(#SVGID_6_)" points="2.569,19.413 2.443,19.286 6.593,15.137 6.593,14.463 7.545,13.511 8.377,13.511 
				13.582,8.306 13.708,8.432 8.451,13.688 7.618,13.688 6.771,14.537 6.771,15.211 			"/>
		</g>
		<g>
			
				<linearGradient id="SVGID_7_" gradientUnits="userSpaceOnUse" x1="-580.6021" y1="183.082" x2="-569.3369" y2="183.082" gradientTransform="matrix(1 0 0 1 561.3799 -165.6211)">
				<stop  offset="0" style="stop-color:#CA4EE5;stop-opacity:0"/>
				<stop  offset="1" style="stop-color:#F6EBE6"/>
			</linearGradient>
			<polygon fill="url(#SVGID_7_)" points="-19.096,23.015 -19.222,22.888 -15.073,18.737 -15.073,18.065 -14.12,17.112 
				-13.288,17.112 -8.083,11.907 -7.957,12.032 -13.214,17.291 -14.047,17.291 -14.894,18.139 -14.894,18.813 			"/>
		</g>
		
			<linearGradient id="SVGID_8_" gradientUnits="userSpaceOnUse" x1="-567.5264" y1="179.377" x2="-580.9254" y2="192.776" gradientTransform="matrix(1 0 0 1 561.3799 -165.6211)">
			<stop  offset="0" style="stop-color:#CA4EE5;stop-opacity:0"/>
			<stop  offset="1" style="stop-color:#F6EBE6"/>
		</linearGradient>
		<polygon fill="url(#SVGID_8_)" points="-7.082,12.649 -20.78,26.349 -16.7,26.349 -3.016,12.665 		"/>
		
			<linearGradient id="SVGID_9_" gradientUnits="userSpaceOnUse" x1="-563.3325" y1="179.377" x2="-578.0018" y2="194.0463" gradientTransform="matrix(1 0 0 1 561.3799 -165.6211)">
			<stop  offset="0" style="stop-color:#CA4EE5;stop-opacity:0"/>
			<stop  offset="1" style="stop-color:#F6EBE6"/>
		</linearGradient>
		<polygon fill="url(#SVGID_9_)" points="-4.925,13.196 -18.623,26.894 -11.561,26.894 2.123,13.211 		"/>
		
			<linearGradient id="SVGID_10_" gradientUnits="userSpaceOnUse" x1="-539.8945" y1="177.7598" x2="-561.2361" y2="199.1015" gradientTransform="matrix(1 0 0 1 561.3799 -165.6211)">
			<stop  offset="0" style="stop-color:#CA4EE5;stop-opacity:0"/>
			<stop  offset="0.7742" style="stop-color:#F6EBE6"/>
		</linearGradient>
		<polygon opacity="0.7" fill="url(#SVGID_10_)" enable-background="new    " points="17.161,11.323 -2.767,31.251 7.508,31.251 
			27.416,11.345 		"/>
		
			<linearGradient id="SVGID_11_" gradientUnits="userSpaceOnUse" x1="-535.7031" y1="181.4766" x2="-543.8738" y2="189.6473" gradientTransform="matrix(1 0 0 1 561.3799 -165.6211)">
			<stop  offset="0" style="stop-color:#CA4EE5;stop-opacity:0"/>
			<stop  offset="0.672" style="stop-color:#F6EBE6"/>
		</linearGradient>
		<polygon opacity="0.7" fill="url(#SVGID_11_)" enable-background="new    " points="24.021,15.543 16.391,23.173 20.324,23.173 
			27.947,15.551 		"/>
		
			<linearGradient id="SVGID_12_" gradientUnits="userSpaceOnUse" x1="-525.3477" y1="176.7871" x2="-533.5196" y2="184.9591" gradientTransform="matrix(1 0 0 1 561.3799 -165.6211)">
			<stop  offset="0" style="stop-color:#CA4EE5;stop-opacity:0"/>
			<stop  offset="0.7688" style="stop-color:#F6B8FF"/>
		</linearGradient>
		<polygon fill="url(#SVGID_12_)" points="34.375,10.854 26.744,18.485 30.679,18.485 38.301,10.862 		"/>
		
			<linearGradient id="SVGID_13_" gradientUnits="userSpaceOnUse" x1="-540.6606" y1="180.4102" x2="-548.832" y2="188.5816" gradientTransform="matrix(1 0 0 1 561.3799 -165.6211)">
			<stop  offset="0" style="stop-color:#CA4EE5;stop-opacity:0"/>
			<stop  offset="1" style="stop-color:#F6B8FF"/>
		</linearGradient>
		<polygon fill="url(#SVGID_13_)" points="19.063,14.478 11.433,22.108 15.366,22.108 22.989,14.485 		"/>
		<g>
			
				<linearGradient id="SVGID_14_" gradientUnits="userSpaceOnUse" x1="-559.1943" y1="188.4824" x2="-549.439" y2="188.4824" gradientTransform="matrix(1 0 0 1 561.3799 -165.6211)">
				<stop  offset="0" style="stop-color:#CA4EE5;stop-opacity:0"/>
				<stop  offset="1" style="stop-color:#F6EBE6"/>
			</linearGradient>
			<polygon fill="url(#SVGID_14_)" points="2.401,27.739 2.186,27.526 11.726,17.983 11.941,18.198 			"/>
		</g>
	</g>
</g>
<linearGradient id="shape2_2_" gradientUnits="userSpaceOnUse" x1="64.4727" y1="16.0508" x2="63.1396" y2="30.7178">
	<stop  offset="0" style="stop-color:#4F3468"/>
	<stop  offset="0.4892" style="stop-color:#893BDC"/>
	<stop  offset="1" style="stop-color:#CA4EE5"/>
</linearGradient>
<path id="shape2_1_" fill="url(#shape2_2_)" d="M73.875,31.251c-0.313,0-0.625-0.05-0.922-0.147
	c-0.299,0.104-0.607,0.147-0.922,0.147h-8.192c-0.187,0-0.44-0.009-0.771-0.075c-0.219,0.051-0.438,0.075-0.664,0.075H59.74
	c-0.815,0-1.604-0.342-2.166-0.937c-0.078-0.086-0.149-0.174-0.221-0.271l-0.908,0.646c-0.504,0.356-1.102,0.556-1.727,0.556h-3.584
	c-0.717,0-1.4-0.269-1.934-0.722c-0.617,0.427-1.354,0.649-2.115,0.649c-0.75,0-1.479-0.222-2.104-0.642
	c-0.164-0.11-0.315-0.233-0.453-0.37c-1.021-1.021-1.363-2.423-0.92-3.753l0.044-0.129l0.08-0.202
	c-1.801-0.254-3.145-1.769-3.145-3.646V22.24c0-0.741,0.274-1.45,0.773-1.996l4.748-5.232c0.646-1.069,1.763-1.679,3.08-1.679h0.41
	c2.063,0,3.684,1.618,3.684,3.684c0,0-0.001,0.289-0.004,0.331c0.557-0.653,1.373-1.044,2.261-1.044h8.397
	c0.262,0,0.519,0.034,0.769,0.101c0.25-0.067,0.509-0.101,0.771-0.101h9.219c0.242,0,0.48,0.029,0.719,0.087
	c0.23-0.058,0.479-0.087,0.72-0.087h8.396c0.918,0,1.798,0.433,2.354,1.159c0.563,0.726,0.753,1.689,0.521,2.573L87,21.568
	c-0.146,0.541-0.438,1.02-0.826,1.395c-0.02,0.188-0.047,0.372-0.1,0.555l-0.408,1.537c-0.072,0.282-0.189,0.551-0.348,0.799
	c0.168,0.532,0.188,1.109,0.039,1.656l-0.412,1.539c-0.353,1.296-1.521,2.202-2.865,2.202H73.875z M70.837,23.782l0.019-0.009
	h-0.799l-0.002,0.009H70.837z"/>
<path id="ACE" fill="#FFFFFF" d="M48.063,23.163h-3.789c-0.409,0-0.717-0.308-0.717-0.718c0-0.104,0-0.104,0-0.204l5.018-5.531
	c0.104-0.307,0.312-0.41,0.614-0.41h0.41c0.408,0,0.717,0.308,0.717,0.717c0,0.102,0,0.205,0,0.205l-2.457,3.584h4.4
	c0.615,0,0.311,1.127-0.104,1.639l-4.508,5.531c-0.312,0.308-0.717,0.308-1.021,0.104c-0.205-0.206-0.312-0.41-0.205-0.719
	L48.063,23.163L48.063,23.163L48.063,23.163z M55.541,19.271l0.409,0.41l-4.813,8.603h3.584l2.149-1.536h2.972l-0.104,1.536H62.4
	l1.537-9.013H55.541L55.541,19.271z M60.048,20.809l-0.104,3.482h-2.969l2.047-3.482H60.048L60.048,20.809z M63.839,28.284h8.188
	l0.613-2.15l-0.82,0.614h-5.729l1.74-5.941h6.447l0.41-1.535h-9.222l-2.352,7.988c-0.101,0.104-0.101,0.309-0.101,0.409
	c0,0.103,0,0.205,0.104,0.31c0.104,0.105,0.205,0.203,0.308,0.203C63.632,28.284,63.734,28.284,63.839,28.284L63.839,28.284
	L63.839,28.284z M76.128,19.271l0.313,0.604l-2.563,8.396h8.19l0.41-1.532h-5.123l0.718-2.458h4.711l0.409-1.537h-4.506l0.611-1.938
	h4.815l0.409-1.535H76.128L76.128,19.271z"/>
</svg>
