<?xml version="1.0" encoding="utf-8"?>
<!-- Generator: Adobe Illustrator 16.0.0, SVG Export Plug-In . SVG Version: 6.00 Build 0)  -->
<!DOCTYPE svg PUBLIC "-//W3C//DTD SVG 1.1//EN" "http://www.w3.org/Graphics/SVG/1.1/DTD/svg11.dtd">
<svg version="1.1" id="case1" xmlns="http://www.w3.org/2000/svg" xmlns:xlink="http://www.w3.org/1999/xlink" x="0px" y="0px"
	 width="71.167px" height="36px" viewBox="0 0 71.167 36" enable-background="new 0 0 71.167 36" xml:space="preserve">
<linearGradient id="usp_silencer_off_1_" gradientUnits="userSpaceOnUse" x1="-58.0288" y1="561.1924" x2="-13.0205" y2="561.1924" gradientTransform="matrix(1 0 0 1 59.02 -542.5654)">
	<stop  offset="0" style="stop-color:#CA4EE5"/>
	<stop  offset="0.3011" style="stop-color:#570090"/>
	<stop  offset="0.7419" style="stop-color:#893BDC"/>
	<stop  offset="1" style="stop-color:#CA4EE5"/>
</linearGradient>
<path id="usp_silencer_off" fill="url(#usp_silencer_off_1_)" d="M46,8.785h-1.16v1.9l0.277,0.218v0.922l-0.277,0.218l-0.106,1.85
	H32.26c-0.086,0.004-0.165,0.044-0.221,0.109c-0.194,0.161-0.346,0.367-0.441,0.6c-0.145,0.396-0.877,2.171-2.193,5.328
	c-0.113,0.256-0.308,0.467-0.553,0.602c-0.279,0.109-0.577,0.164-0.877,0.16l-5.714,0.223c-0.267-0.129-0.542-0.238-0.825-0.326
	c-0.452-0.217-0.934-0.359-1.429-0.438c-0.271-0.057-0.546-0.094-0.823-0.106c-0.148,0.037-0.42,0.089-0.822,0.165
	c-0.319,0.104-0.657,0.146-0.992,0.104l-0.386-0.104l-2.8,11.746l-0.11,1.3l0.606,0.874L2.87,34.02c0-0.688,0.037-1.576,0.111-2.664
	c0.205-2.088,0.553-4.16,1.043-6.196C4.51,23.23,5.172,21.355,6,19.555c0.036-0.104,0.293-0.638,0.77-1.578
	c0.16-0.313,0.288-0.64,0.383-0.978c0.129-0.369,0.021-0.779-0.275-1.034c-0.425-0.327-0.91-0.567-1.428-0.707
	c-0.735-0.255-1.21-0.415-1.429-0.488c-0.225-0.036-0.402-0.21-0.441-0.435c-0.03-0.417-0.011-0.837,0.057-1.25l0.11-0.815
	l-2.034-0.217c-0.136,0.003-0.271-0.036-0.384-0.112c-0.24-0.147-0.37-0.421-0.331-0.7c0.051-0.346,0.369-0.588,0.716-0.544
	c0.201-0.038,0.409-0.021,0.6,0.056l0.279-1.424l1.649,1.035l0.715-3.535l1.154-2.175V3.725l0.88,0.489l3.516,0.055l0.331,0.271
	h11.975v0.219h6.701V4.594h11.539V3.125H43.8l0.33,0.384v0.979l0.386-0.055L44.9,4.925v0.868H46 M29.074,14.004l-6.261,0.055
	c-0.623,0.614-1.064,1.069-1.318,1.36c-0.4,0.507-0.623,0.8-0.66,0.871c-0.26,0.408-0.41,0.875-0.436,1.358
	c-0.029,0.366,0.007,0.734,0.107,1.088c0.059,0.187,0.132,0.367,0.219,0.543l-0.384,0.271c-0.198-0.28-0.347-0.595-0.441-0.927
	c-0.26-0.503-0.392-1.063-0.386-1.629c0.078-0.736,0.364-1.434,0.825-2.012c0.161-0.266,0.363-0.505,0.6-0.707
	c-0.3,0.045-0.595,0.118-0.881,0.217c-0.527,0.145-1.015,0.405-1.428,0.762c-0.38,0.392-0.646,0.88-0.769,1.412
	c-0.15,0.504-0.111,1.045,0.111,1.522c0.217,0.433,0.537,0.808,0.932,1.087c0.428,0.303,0.915,0.508,1.429,0.603
	c0.33,0.033,0.862,0.058,1.593,0.058c0.405-0.063,0.819-0.025,1.207,0.104c0.894,0.106,1.794,0.146,2.694,0.108
	c0.809,0.021,1.618-0.035,2.417-0.164c0.496-0.75,0.868-1.574,1.1-2.443l0.825-2.286v-0.332c0.006-0.187-0.032-0.373-0.11-0.543
	c-0.171-0.156-0.377-0.269-0.601-0.327L29.074,14.004z"/>
<g>
	<defs>
		<path id="SVGID_1_" d="M46,8.785h-1.16v1.9l0.277,0.218v0.922l-0.277,0.218l-0.106,1.85H32.26
			c-0.086,0.004-0.164,0.044-0.221,0.109c-0.193,0.161-0.346,0.367-0.441,0.6c-0.145,0.396-0.877,2.171-2.193,5.328
			c-0.112,0.256-0.307,0.467-0.553,0.602c-0.278,0.109-0.576,0.164-0.877,0.16l-5.714,0.223c-0.267-0.129-0.542-0.238-0.825-0.326
			c-0.452-0.217-0.934-0.359-1.429-0.438c-0.271-0.057-0.546-0.094-0.823-0.106c-0.148,0.037-0.42,0.089-0.822,0.165
			c-0.319,0.104-0.657,0.146-0.992,0.104l-0.386-0.104l-2.8,11.746l-0.11,1.3l0.606,0.874L2.87,34.02
			c0-0.688,0.037-1.576,0.111-2.664c0.205-2.088,0.553-4.16,1.043-6.196C4.51,23.23,5.172,21.355,6,19.555
			c0.036-0.104,0.293-0.638,0.77-1.578c0.16-0.313,0.288-0.64,0.383-0.978c0.129-0.369,0.021-0.779-0.275-1.034
			c-0.425-0.327-0.91-0.567-1.428-0.707c-0.735-0.255-1.21-0.415-1.429-0.488c-0.225-0.036-0.402-0.21-0.441-0.435
			c-0.03-0.417-0.011-0.837,0.057-1.25l0.11-0.815l-2.034-0.217c-0.136,0.003-0.271-0.036-0.384-0.112
			c-0.24-0.147-0.37-0.421-0.331-0.7c0.051-0.346,0.369-0.588,0.716-0.544c0.201-0.038,0.409-0.021,0.6,0.056l0.279-1.424
			l1.649,1.035l0.715-3.535l1.154-2.175V3.725l0.88,0.489l3.516,0.055l0.331,0.271h11.975v0.219h6.701V4.594h11.539V3.125H43.8
			l0.33,0.384v0.979l0.386-0.055L44.9,4.925v0.868H46 M29.074,14.004l-6.262,0.055c-0.623,0.614-1.063,1.069-1.317,1.36
			c-0.4,0.507-0.623,0.8-0.66,0.871c-0.26,0.408-0.41,0.875-0.436,1.358c-0.029,0.366,0.007,0.734,0.107,1.088
			c0.059,0.187,0.132,0.367,0.219,0.543l-0.384,0.271c-0.198-0.28-0.347-0.595-0.441-0.927c-0.26-0.503-0.392-1.063-0.386-1.629
			c0.078-0.736,0.364-1.434,0.825-2.012c0.161-0.266,0.363-0.505,0.6-0.707c-0.3,0.045-0.595,0.118-0.881,0.217
			c-0.527,0.145-1.015,0.405-1.428,0.762c-0.38,0.392-0.646,0.88-0.769,1.412c-0.15,0.504-0.111,1.045,0.111,1.522
			c0.217,0.433,0.537,0.808,0.932,1.087c0.428,0.303,0.915,0.508,1.429,0.603c0.33,0.033,0.862,0.058,1.593,0.058
			c0.405-0.063,0.819-0.025,1.207,0.104c0.895,0.106,1.794,0.146,2.694,0.108c0.809,0.021,1.618-0.035,2.417-0.164
			c0.496-0.75,0.867-1.574,1.1-2.443l0.825-2.286v-0.332c0.006-0.187-0.032-0.373-0.11-0.543c-0.17-0.156-0.377-0.269-0.601-0.327
			L29.074,14.004z"/>
	</defs>
	<clipPath id="SVGID_2_">
		<use xlink:href="#SVGID_1_"  overflow="visible"/>
	</clipPath>
	<g clip-path="url(#SVGID_2_)">
		<g opacity="0.7">
			
				<linearGradient id="SVGID_3_" gradientUnits="userSpaceOnUse" x1="-555.3042" y1="180.9727" x2="-535.7021" y2="180.9727" gradientTransform="matrix(1 0 0 1 561.3799 -165.6211)">
				<stop  offset="0" style="stop-color:#CA4EE5;stop-opacity:0"/>
				<stop  offset="0.4624" style="stop-color:#F6EBE6"/>
			</linearGradient>
			<polygon fill="url(#SVGID_3_)" points="6.342,24.986 6.076,24.72 10.682,20.111 10.682,18.693 12.688,16.685 14.445,16.685 
				25.412,5.716 25.678,5.982 14.6,17.063 12.846,17.063 11.059,18.847 11.059,20.27 			"/>
		</g>
		<g opacity="0.7">
			
				<linearGradient id="SVGID_4_" gradientUnits="userSpaceOnUse" x1="-518.189" y1="181.0957" x2="-507.9976" y2="181.0957" gradientTransform="matrix(1 0 0 1 561.3799 -165.6211)">
				<stop  offset="0" style="stop-color:#CA4EE5;stop-opacity:0"/>
				<stop  offset="0.5753" style="stop-color:#F6EBE6"/>
			</linearGradient>
			<polygon fill="url(#SVGID_4_)" points="43.328,20.484 43.191,20.344 45.585,17.949 45.585,17.212 46.628,16.167 47.541,16.167 
				53.244,10.465 53.382,10.603 47.623,16.363 46.708,16.363 45.781,17.291 45.781,18.029 			"/>
		</g>
		<g>
			
				<linearGradient id="SVGID_5_" gradientUnits="userSpaceOnUse" x1="-542.9131" y1="183.4658" x2="-520.3062" y2="183.4658" gradientTransform="matrix(1 0 0 1 561.3799 -165.6211)">
				<stop  offset="0" style="stop-color:#CA4EE5;stop-opacity:0"/>
				<stop  offset="1" style="stop-color:#F6EBE6"/>
			</linearGradient>
			<polygon fill="url(#SVGID_5_)" points="18.771,28.957 18.467,28.65 23.78,23.336 23.78,21.699 26.094,19.386 28.117,19.386 
				40.765,6.732 41.074,7.042 28.299,19.818 26.275,19.818 24.214,21.879 24.214,23.518 			"/>
		</g>
		<g opacity="0.7">
			
				<linearGradient id="SVGID_6_" gradientUnits="userSpaceOnUse" x1="-555.7061" y1="182.3584" x2="-544.4414" y2="182.3584" gradientTransform="matrix(1 0 0 1 561.3799 -165.6211)">
				<stop  offset="0" style="stop-color:#CA4EE5;stop-opacity:0"/>
				<stop  offset="0.5591" style="stop-color:#F6EBE6"/>
			</linearGradient>
			<polygon fill="url(#SVGID_6_)" points="5.8,22.291 5.674,22.164 9.824,18.015 9.824,17.341 10.776,16.389 11.608,16.389 
				16.813,11.184 16.938,11.31 11.682,16.566 10.849,16.566 10.001,17.415 10.001,18.089 			"/>
		</g>
		<g>
			
				<linearGradient id="SVGID_7_" gradientUnits="userSpaceOnUse" x1="-577.3711" y1="185.96" x2="-566.106" y2="185.96" gradientTransform="matrix(1 0 0 1 561.3799 -165.6211)">
				<stop  offset="0" style="stop-color:#CA4EE5;stop-opacity:0"/>
				<stop  offset="1" style="stop-color:#F6EBE6"/>
			</linearGradient>
			<polygon fill="url(#SVGID_7_)" points="-15.865,25.893 -15.991,25.766 -11.842,21.615 -11.842,20.943 -10.889,19.99 
				-10.057,19.99 -4.853,14.785 -4.726,14.91 -9.983,20.169 -10.816,20.169 -11.663,21.017 -11.663,21.691 			"/>
		</g>
		
			<linearGradient id="SVGID_8_" gradientUnits="userSpaceOnUse" x1="-564.2954" y1="182.2549" x2="-577.6945" y2="195.654" gradientTransform="matrix(1 0 0 1 561.3799 -165.6211)">
			<stop  offset="0" style="stop-color:#CA4EE5;stop-opacity:0"/>
			<stop  offset="1" style="stop-color:#F6EBE6"/>
		</linearGradient>
		<polygon fill="url(#SVGID_8_)" points="-3.851,15.527 -17.549,29.227 -13.469,29.227 0.215,15.543 		"/>
		
			<linearGradient id="SVGID_9_" gradientUnits="userSpaceOnUse" x1="-560.1016" y1="182.2549" x2="-574.7708" y2="196.9242" gradientTransform="matrix(1 0 0 1 561.3799 -165.6211)">
			<stop  offset="0" style="stop-color:#CA4EE5;stop-opacity:0"/>
			<stop  offset="1" style="stop-color:#F6EBE6"/>
		</linearGradient>
		<polygon fill="url(#SVGID_9_)" points="-1.694,16.074 -15.392,29.771 -8.33,29.771 5.354,16.089 		"/>
		
			<linearGradient id="SVGID_10_" gradientUnits="userSpaceOnUse" x1="-536.6641" y1="180.6367" x2="-558.0055" y2="201.9782" gradientTransform="matrix(1 0 0 1 561.3799 -165.6211)">
			<stop  offset="0" style="stop-color:#CA4EE5;stop-opacity:0"/>
			<stop  offset="0.7742" style="stop-color:#F6EBE6"/>
		</linearGradient>
		<polygon opacity="0.7" fill="url(#SVGID_10_)" enable-background="new    " points="20.392,14.201 0.464,34.129 10.739,34.129 
			30.646,14.223 		"/>
		
			<linearGradient id="SVGID_11_" gradientUnits="userSpaceOnUse" x1="-532.4727" y1="184.3545" x2="-540.6431" y2="192.525" gradientTransform="matrix(1 0 0 1 561.3799 -165.6211)">
			<stop  offset="0" style="stop-color:#CA4EE5;stop-opacity:0"/>
			<stop  offset="0.672" style="stop-color:#F6EBE6"/>
		</linearGradient>
		<polygon opacity="0.7" fill="url(#SVGID_11_)" enable-background="new    " points="27.252,18.421 19.622,26.051 23.555,26.051 
			31.178,18.429 		"/>
		
			<linearGradient id="SVGID_12_" gradientUnits="userSpaceOnUse" x1="-522.1177" y1="179.665" x2="-530.2894" y2="187.8369" gradientTransform="matrix(1 0 0 1 561.3799 -165.6211)">
			<stop  offset="0" style="stop-color:#CA4EE5;stop-opacity:0"/>
			<stop  offset="0.7688" style="stop-color:#F6B8FF"/>
		</linearGradient>
		<polygon fill="url(#SVGID_12_)" points="37.605,13.732 29.975,21.363 33.91,21.363 41.531,13.74 		"/>
		
			<linearGradient id="SVGID_13_" gradientUnits="userSpaceOnUse" x1="-537.4302" y1="183.2881" x2="-545.6015" y2="191.4595" gradientTransform="matrix(1 0 0 1 561.3799 -165.6211)">
			<stop  offset="0" style="stop-color:#CA4EE5;stop-opacity:0"/>
			<stop  offset="1" style="stop-color:#F6B8FF"/>
		</linearGradient>
		<polygon fill="url(#SVGID_13_)" points="22.293,17.355 14.664,24.986 18.597,24.986 26.22,17.363 		"/>
		<g>
			
				<linearGradient id="SVGID_14_" gradientUnits="userSpaceOnUse" x1="-555.9634" y1="191.3604" x2="-546.208" y2="191.3604" gradientTransform="matrix(1 0 0 1 561.3799 -165.6211)">
				<stop  offset="0" style="stop-color:#CA4EE5;stop-opacity:0"/>
				<stop  offset="1" style="stop-color:#F6EBE6"/>
			</linearGradient>
			<polygon fill="url(#SVGID_14_)" points="5.632,30.617 5.417,30.404 14.957,20.861 15.172,21.076 			"/>
		</g>
	</g>
</g>
<linearGradient id="shape5_1_" gradientUnits="userSpaceOnUse" x1="234.9429" y1="-981.3936" x2="234.9429" y2="-995.1436" gradientTransform="matrix(1 0 0 -1 -188.5601 -964.7256)">
	<stop  offset="0" style="stop-color:#4F3468"/>
	<stop  offset="0.4892" style="stop-color:#893BDC"/>
	<stop  offset="1" style="stop-color:#CA4EE5"/>
</linearGradient>
<path id="shape5" fill="url(#shape5_1_)" d="M56.212,31.251c-0.313,0-0.625-0.05-0.922-0.147c-0.299,0.104-0.608,0.147-0.922,0.147
	h-8.193c-0.186,0-0.442-0.009-0.771-0.075c-0.217,0.051-0.438,0.075-0.662,0.075h-2.664c-0.815,0-1.604-0.342-2.166-0.937
	c-0.078-0.086-0.149-0.174-0.221-0.271l-0.908,0.648c-0.504,0.355-1.102,0.554-1.727,0.554h-3.583c-0.717,0-1.402-0.269-1.937-0.722
	c-0.614,0.427-1.352,0.65-2.112,0.65c-0.75,0-1.479-0.222-2.104-0.642c-0.164-0.11-0.315-0.233-0.452-0.37
	c-1.021-1.021-1.363-2.423-0.92-3.753l0.044-0.128l0.08-0.203c-1.801-0.254-3.145-1.768-3.145-3.646V22.24
	c0-0.741,0.274-1.45,0.773-1.996l4.748-5.232c0.646-1.069,1.762-1.679,3.079-1.679h0.41c2.065,0,3.684,1.618,3.684,3.684
	c0,0-0.001,0.289-0.003,0.331c0.555-0.653,1.372-1.044,2.26-1.044h8.396c0.262,0,0.52,0.034,0.77,0.103
	c0.25-0.067,0.509-0.103,0.771-0.103h9.22c0.241,0,0.479,0.029,0.719,0.087c0.229-0.058,0.479-0.087,0.721-0.087h8.396
	c0.916,0,1.797,0.433,2.354,1.159c0.563,0.726,0.752,1.689,0.518,2.573l-0.406,1.532c-0.146,0.541-0.436,1.02-0.826,1.395
	c-0.018,0.188-0.049,0.372-0.098,0.555L68,25.055c-0.071,0.282-0.188,0.551-0.346,0.799c0.168,0.533,0.188,1.109,0.039,1.656
	l-0.412,1.539c-0.35,1.297-1.521,2.202-2.865,2.202H56.212z M53.173,23.782l0.017-0.009h-0.795l-0.004,0.009H53.173z"/>
<path id="ACE" fill="#FFFFFF" d="M30.403,23.163h-3.79c-0.409,0-0.717-0.308-0.717-0.718c0-0.104,0-0.104,0-0.204l5.018-5.531
	c0.103-0.307,0.31-0.41,0.615-0.41h0.41c0.409,0,0.717,0.308,0.717,0.717c0,0.102,0,0.205,0,0.205l-2.458,3.584H34.6
	c0.615,0,0.313,1.127-0.103,1.639l-4.507,5.531c-0.309,0.308-0.717,0.308-1.023,0.104c-0.205-0.206-0.309-0.41-0.205-0.719
	L30.403,23.163L30.403,23.163L30.403,23.163z M37.88,19.271l0.408,0.41l-4.813,8.603h3.584l2.146-1.536h2.975l-0.104,1.536h2.662
	l1.535-9.013H37.88L37.88,19.271z M42.387,20.809l-0.104,3.482h-2.97l2.047-3.482H42.387L42.387,20.809z M46.177,28.284h8.191
	l0.611-2.15l-0.818,0.614H48.43l1.739-5.941h6.451l0.408-1.535h-9.217l-2.355,7.988c-0.102,0.104-0.102,0.309-0.102,0.409
	c0,0.103,0,0.205,0.104,0.31c0.103,0.105,0.205,0.203,0.308,0.203C45.971,28.284,46.074,28.284,46.177,28.284L46.177,28.284
	L46.177,28.284z M58.466,19.271l0.312,0.608l-2.563,8.396h8.193l0.408-1.533h-5.121l0.719-2.458h4.711l0.41-1.537h-4.508l0.611-1.94
	h4.814l0.407-1.535H58.466L58.466,19.271z"/>
</svg>
