<?xml version="1.0" encoding="utf-8"?>
<!-- Generator: Adobe Illustrator 16.0.0, SVG Export Plug-In . SVG Version: 6.00 Build 0)  -->
<!DOCTYPE svg PUBLIC "-//W3C//DTD SVG 1.1//EN" "http://www.w3.org/Graphics/SVG/1.1/DTD/svg11.dtd">
<svg version="1.1" id="case1" xmlns="http://www.w3.org/2000/svg" xmlns:xlink="http://www.w3.org/1999/xlink" x="0px" y="0px"
	 width="92px" height="36px" viewBox="0 0 92 36" enable-background="new 0 0 92 36" xml:space="preserve">
<linearGradient id="sg556_1_" gradientUnits="userSpaceOnUse" x1="316.7461" y1="837.082" x2="406.9932" y2="837.082" gradientTransform="matrix(1 0 0 1 -315.9199 -820.2598)">
	<stop  offset="0" style="stop-color:#CA4EE5"/>
	<stop  offset="0.3011" style="stop-color:#570090"/>
	<stop  offset="0.7419" style="stop-color:#893BDC"/>
	<stop  offset="1" style="stop-color:#CA4EE5"/>
</linearGradient>
<path id="sg556" fill="url(#sg556_1_)" d="M27.569,2.462h0.044C27.61,2.44,27.626,2.42,27.648,2.417c0.004,0,0.007,0,0.011,0V2.373
	h0.093V2.279h0.046l0.045-0.045V2.048l0.046-0.045V1.138h0.456V1h0.634v1.876h1.094v-0.32h0.636v0.187l0.046,0.042v0.137
	c0.104-0.031,0.216-0.031,0.32,0V2.236h0.093V2.188h0.866V2.143h0.638V2.92h4.693V2.462h3.095V1.823h0.64v0.503
	c-0.002,0.023,0.014,0.043,0.037,0.045c0.003,0,0.006,0,0.009,0v0.186h0.455v0.821c-0.036,0.002-0.069,0.018-0.093,0.045v0.089
	h-0.043v0.186c-0.022-0.003-0.042,0.012-0.046,0.034c0,0.003,0,0.007,0,0.011v0.048c-0.022-0.003-0.042,0.013-0.045,0.036
	c0,0.003,0,0.006,0,0.01V3.93H41.33v0.042l-0.047,0.046V4.11l-0.044,0.046V4.2l-0.047,0.047V4.34h-0.046v0.046L41.099,4.43
	l-0.046,0.093c0.004,0.021-0.01,0.042-0.032,0.046c-0.004,0-0.008,0-0.012,0c0.003,0.022-0.013,0.042-0.036,0.045
	c-0.003,0-0.006,0-0.01,0V4.75l-0.046,0.045v0.046h-0.045v0.135h-0.046v0.093h-0.045v0.093c-0.022-0.003-0.042,0.012-0.045,0.033
	c0,0.004,0,0.007,0,0.011v0.043H40.69v0.047l-0.042,0.045v0.138h-0.049v0.047c0.003,0.021-0.011,0.041-0.033,0.044
	c-0.004,0-0.008,0-0.012,0v0.14c-0.023-0.003-0.043,0.013-0.046,0.036c0,0.003,0,0.007,0,0.011v0.046h-0.046v0.093h-0.043v0.093
	h-0.05V6.03c-0.022-0.003-0.042,0.012-0.045,0.035c0,0.003,0,0.007,0,0.011V6.21h-0.049v0.048h-0.042v0.093l-0.045,0.044h-0.046
	v0.137h-0.045v0.093h-0.046v0.186h-0.046c0.003,0.022-0.012,0.042-0.034,0.045c-0.003,0-0.007,0-0.011,0v0.041l-0.047,0.046
	l-0.044,0.093c-0.022-0.003-0.043,0.013-0.045,0.035c0,0.003,0,0.007,0,0.01v0.043c-0.022-0.003-0.042,0.012-0.045,0.034
	c-0.001,0.004-0.001,0.008,0,0.012v0.047h-0.045v0.138h1.547v0.412h6.197V8.18h26.693v0.229h0.364V8.135h0.317V3.283h0.957v0.043
	h0.141l0.045,0.045v0.327h0.316c0.022,0.027,0.06,0.043,0.096,0.045v1.008h0.314v0.364h0.094v2.654h0.363
	c0.104,0.028,0.213,0.043,0.319,0.046h0.136v1.007h0.225v0.086h1.867v0.187h0.098v0.64H78.91v0.274l-0.096,0.045v0.047h0.91v0.639
	h-2.096v0.138h8.795v-0.32h4.561v2.148h0.089v0.64h-5.47v0.045h-0.639c0.004-0.022-0.013-0.042-0.033-0.045
	c-0.004,0-0.008,0-0.012,0h-0.04v-0.411h-7.835v0.457h-0.138v0.275h-0.365v0.046c-0.036,0.001-0.069,0.018-0.093,0.045v2.194h-0.633
	v-0.044h-0.092c-0.197-0.032-0.396-0.047-0.596-0.046h-0.188l-0.094-0.045v-0.732c0.036-0.001,0.068-0.018,0.094-0.046v-1.326H74.67
	c-0.038-0.033-0.087-0.05-0.137-0.046v-0.275h-0.408c0.002,0.023-0.018,0.043-0.036,0.045c-0.004,0-0.008,0-0.012,0v1.418h-0.045
	v0.138h-0.595v0.044h-0.047v0.093H73.35v0.093l-0.096,0.093v0.046c-0.021-0.003-0.041,0.013-0.044,0.034
	c-0.001,0.004,0,0.007,0.001,0.011v0.822h-0.5l-0.048,0.049H72.62v0.093h-0.044V16.6h-0.775l-0.046-0.047
	c-6.257-0.029-12.528-0.044-18.813-0.044v0.186h-0.729v-0.093H52.17v-0.093c-0.021,0.003-0.043-0.013-0.046-0.035
	c0-0.003,0-0.007,0-0.011l-0.045-0.046v-0.051h-0.045v-0.093c0.003-0.023-0.015-0.042-0.035-0.045c-0.004,0-0.008,0-0.011,0
	c-2.247-0.03-4.495-0.046-6.742-0.046h-0.045l-0.045,0.046c-0.022-0.003-0.042,0.011-0.045,0.033c0,0.004,0,0.008,0,0.012h-0.089
	l-0.045,0.044c-0.036,0.002-0.07,0.019-0.093,0.047H44.79c0.002,0.021-0.013,0.042-0.035,0.044c-0.003,0-0.007,0-0.01,0
	l-0.046,0.045h-0.044c-0.022,0.027-0.056,0.044-0.092,0.046c0.002,0.022-0.013,0.042-0.035,0.044c-0.004,0-0.007,0-0.01,0
	l-0.045,0.046H44.38v0.045c-0.036,0.001-0.069,0.018-0.093,0.045c-0.036,0.002-0.069,0.019-0.093,0.045l-0.045,0.045
	c-0.036,0.001-0.071,0.019-0.094,0.046l-0.046,0.044h-0.035c-0.024,0.027-0.057,0.044-0.093,0.046
	c0.003,0.021-0.013,0.042-0.035,0.045c-0.003,0-0.007,0-0.011,0l-0.046,0.044h-0.043c0.002,0.022-0.012,0.043-0.035,0.047
	c-0.003,0-0.007,0-0.011,0l-0.045,0.044h-0.044c-0.023-0.003-0.044,0.012-0.047,0.035c0,0.003,0,0.007,0,0.011l-0.044,0.046h-0.046
	c-0.022-0.003-0.042,0.012-0.045,0.034c0,0.003,0,0.007,0,0.011l-0.045,0.046v1.373h0.364v0.64c-0.228,0.005-0.457,0.021-0.683,0.05
	H43.02v1.275h0.049v0.414h0.045v0.42l0.046,0.045v0.318c-0.003,0.021,0.012,0.043,0.034,0.045c0.003,0.002,0.007,0.002,0.011,0v0.32
	h0.046v0.507l0.045,0.046c-0.003,0.021,0.011,0.041,0.033,0.045c0.003,0,0.007,0,0.011,0v0.457
	c-0.002,0.021,0.012,0.043,0.035,0.045c0.003,0.002,0.008,0.002,0.013,0v0.047l0.044,0.045v0.229l0.045,0.046v0.137l0.046,0.045
	v0.048l0.043,0.047v0.229l0.047,0.045c-0.003,0.021,0.011,0.043,0.033,0.045c0.004,0.002,0.008,0.002,0.012,0v0.229h0.045v0.045
	c-0.002,0.021,0.013,0.043,0.035,0.045c0.004,0.001,0.007,0.001,0.011,0v0.141l0.044,0.047v0.045l0.047,0.045v0.046h0.044v0.323
	l0.093,0.045v0.187c-0.002,0.021,0.013,0.042,0.036,0.044c0.003,0.002,0.005,0.002,0.009,0V25.6h0.047v0.094l0.044,0.098v0.045
	h0.043v0.188h0.045v0.095l0.093,0.093v0.188c-0.004,0.021,0.011,0.041,0.032,0.045c0.004,0.002,0.008,0.002,0.014,0
	c-0.004,0.021,0.011,0.043,0.033,0.047c0.003,0,0.008,0,0.013,0v0.139l0.045,0.046v0.097h0.044v0.228h0.045v0.093l0.044,0.096v0.094
	l0.045,0.043v0.096c-0.002,0.021,0.012,0.043,0.035,0.046c0.004,0.001,0.007,0.001,0.011,0v0.046h0.046v0.115
	c0.021-0.002,0.042,0.016,0.045,0.036c0,0.005,0,0.007,0,0.011l0.044,0.049v0.139c-0.003,0.021,0.014,0.041,0.035,0.046
	c0.004,0,0.007,0,0.01,0v0.094c-0.003,0.021,0.012,0.041,0.034,0.045c0.003,0,0.008,0,0.013,0l0.045,0.093v0.096
	c0.021-0.004,0.042,0.013,0.045,0.033c0,0.004,0,0.008,0,0.012v0.045l0.047,0.041v0.095c-0.003,0.022,0.013,0.044,0.036,0.048
	c0.003,0,0.005,0,0.009,0v0.045h0.047v0.188l0.045,0.045v0.093c-0.002,0.021,0.013,0.043,0.035,0.047c0.004,0,0.007,0,0.012,0v0.047
	c-0.002,0.021,0.014,0.043,0.036,0.047c0.003,0,0.005,0,0.009,0v0.045h0.045v0.188l0.093,0.045v0.046l0.045,0.048v0.137
	c0.022-0.004,0.042,0.013,0.045,0.033c0,0.002,0,0.008,0,0.013v0.045c0.022-0.004,0.042,0.013,0.045,0.032c0,0.005,0,0.009,0,0.016
	v0.036h0.045c-0.003,0.021,0.012,0.041,0.034,0.045c0.005,0,0.008,0,0.012,0v0.046c0.037,0.002,0.07,0.02,0.093,0.045l0.046,0.047
	v0.643H45.7v0.094h-0.227v0.092c-0.093,0-0.185,0.018-0.274,0.045h-0.045c-0.023,0.027-0.056,0.047-0.093,0.049
	c-0.048,0.006-0.094,0.021-0.136,0.045h-0.043c-0.036,0.002-0.07,0.019-0.094,0.045L44.743,30.9h-0.134
	c-0.049,0.006-0.096,0.021-0.137,0.045c-0.037,0.002-0.07,0.019-0.094,0.046h-0.043l-0.093,0.094h-0.134
	c-0.047,0.006-0.095,0.021-0.136,0.046v0.047c-0.035,0.002-0.07,0.018-0.093,0.045h-0.093l-0.044,0.043h-0.043
	c-0.036,0.002-0.07,0.021-0.093,0.047H43.56c-0.035,0.002-0.069,0.021-0.093,0.045c-0.036,0.002-0.07,0.021-0.092,0.048h-0.132
	c-0.036,0.004-0.069,0.02-0.093,0.048l-0.047,0.044H43.01c-0.042,0.022-0.089,0.04-0.137,0.046
	c-0.047,0.007-0.094,0.021-0.136,0.046c-0.047,0.005-0.094,0.021-0.136,0.045H42.56c-0.036,0.002-0.069,0.021-0.093,0.05H42.42
	c-0.024,0.022-0.057,0.043-0.093,0.043h-0.041c-0.062,0-0.093,0.016-0.093,0.047c-0.036,0.002-0.07,0.019-0.093,0.045h-0.093
	c-0.024,0.023-0.058,0.043-0.093,0.047c-0.048,0.006-0.094,0.021-0.136,0.045h-0.093c-0.021-0.002-0.042,0.013-0.045,0.033
	c0,0.004,0,0.008,0,0.012c-0.036,0.002-0.07,0.02-0.093,0.046h-0.039l-0.045,0.045h-0.135c-0.094,0.001-0.186,0.017-0.275,0.047
	v0.046H40.96v0.047c-0.057,0.03-0.121,0.047-0.186,0.047h-0.131v0.045c-0.036,0.003-0.07,0.021-0.093,0.048l-0.092,0.047h-0.132
	c-0.036,0-0.07,0.019-0.093,0.045v0.043H40.14c-0.023,0.024-0.057,0.044-0.093,0.046c-0.05-0.004-0.099,0.016-0.137,0.046h-0.266
	v0.046c-0.05-0.005-0.099,0.014-0.137,0.047h-0.911v-0.308H38.55c0.003-0.021-0.012-0.042-0.034-0.045c-0.004,0-0.007,0-0.011,0
	v-0.188c-0.023,0.004-0.043-0.015-0.045-0.035c0-0.004,0-0.008,0-0.01l-0.045-0.043V31.82c-0.021,0.004-0.042-0.012-0.044-0.033
	c0-0.004,0-0.008,0-0.012v-0.188h-0.048V31.4h-0.044V31.09h-0.093v-0.279h-0.044V30.68h-0.045v-0.095l-0.045-0.044v-0.049
	c-0.022,0.003-0.042-0.012-0.045-0.033c0-0.004,0-0.008,0-0.014v-0.092h-0.046V30.17l-0.093-0.094v-0.219h-0.042v-0.094
	c0.003-0.021-0.013-0.044-0.035-0.048c-0.003-0.001-0.007-0.001-0.011,0v-0.093c-0.022,0.003-0.043-0.016-0.046-0.035
	c0-0.003,0-0.008,0-0.012V29.48c-0.022,0.002-0.042-0.014-0.045-0.031c0-0.008,0-0.012,0-0.016v-0.092l-0.046-0.045v-0.27H37.55
	V28.71l-0.046-0.046V28.57l-0.044-0.045V28.35c0.003-0.021-0.012-0.043-0.034-0.045c-0.004,0-0.008,0-0.012,0V28.21h-0.042v-0.278
	l-0.045-0.048V27.79H37.28c0.003-0.021-0.012-0.042-0.034-0.046c-0.003,0-0.007,0-0.011,0v-0.188H37.19v-0.13l-0.045-0.049v-0.188
	l-0.046-0.045v-0.043c-0.021,0.004-0.042-0.012-0.045-0.033c0-0.004,0-0.008,0-0.012v-0.188c0.003-0.021-0.013-0.044-0.036-0.046
	c-0.003-0.001-0.006-0.001-0.01,0V26.73l-0.045-0.045V26.6c-0.021,0.004-0.041-0.012-0.044-0.033c-0.001-0.004-0.001-0.008,0-0.01
	v-0.095l-0.046-0.046V26.29l-0.045-0.045v-0.093l-0.051-0.047v-0.095h-0.046v-0.188l-0.044-0.05v-0.131L36.641,25.6v-0.093h-0.046
	v-0.093l-0.045-0.041v-0.141l-0.046-0.045v-0.097c0.003-0.021-0.012-0.043-0.034-0.046c-0.003-0.001-0.007-0.001-0.011,0v-0.188
	h-0.045v-0.313c0.002-0.021-0.013-0.041-0.035-0.045c-0.004,0-0.008,0-0.011,0v-0.14l-0.045-0.045v-0.09
	c-0.022,0.004-0.042-0.014-0.045-0.033c-0.001-0.004-0.001-0.008,0-0.012v-0.13h-0.046v-0.366c-0.023,0.002-0.042-0.017-0.043-0.039
	c0-0.002,0-0.004,0-0.006h-0.048v-0.279c-0.022,0.005-0.042-0.012-0.045-0.032c0-0.007,0-0.011,0-0.015v-0.357l-0.046-0.046V22.68
	l-0.047-0.048v-0.228h-0.044V22.22l-0.048-0.047v-0.409c0.003-0.021-0.013-0.041-0.035-0.048c-0.003,0-0.006,0-0.01,0V21.67h-0.042
	v-0.412h-0.045v-0.318h-0.046v-0.137c0.004-0.021-0.012-0.041-0.033-0.047c-0.004-0.001-0.007-0.001-0.011,0v-0.229
	c-0.021,0.004-0.042-0.012-0.044-0.032c0-0.004,0-0.009,0-0.013v-0.138c-0.022,0.003-0.042-0.014-0.045-0.032
	c-0.001-0.004-0.001-0.008,0-0.016h-7.107v0.229l-0.046,0.048v0.044h-0.093v0.094l-0.047,0.046v0.095l-0.044,0.045
	c-0.031,0.03-0.063,0.063-0.093,0.092v0.229c-0.022-0.005-0.042,0.013-0.045,0.034c0,0.003,0,0.007,0,0.012h-0.093V21.4
	l-0.045,0.045v0.043l-0.093,0.095v0.095c-0.022-0.005-0.043,0.012-0.046,0.033c-0.001,0.004-0.001,0.008,0,0.012v0.137h-0.04V21.9
	l-0.045,0.047v0.044l-0.044,0.045v0.046c-0.023-0.003-0.043,0.014-0.045,0.035c0,0.003,0,0.006,0,0.009v0.047h-0.046v0.046
	c0.003,0.021-0.012,0.041-0.034,0.045c-0.003,0-0.007,0-0.011,0l-0.046,0.045v0.137l-0.093,0.097v0.048h-0.045v0.096
	c-0.022-0.002-0.043,0.016-0.044,0.037c0,0.004,0,0.006,0,0.01v0.043l-0.136,0.094v0.095l-0.093,0.043v0.14h-0.047v0.045h-0.042
	v0.045c0.003,0.021-0.012,0.044-0.034,0.046c-0.004,0-0.007,0-0.011,0c0.003,0.022-0.013,0.043-0.035,0.049
	c-0.004,0-0.007,0-0.011,0v0.093l-0.045,0.045v0.047l-0.045,0.047c-0.021-0.004-0.042,0.014-0.044,0.032
	c-0.001,0.005,0,0.011,0,0.015v0.045h-0.044l-0.047,0.045v0.094c0.003,0.021-0.013,0.041-0.036,0.045c-0.003,0-0.006,0-0.01,0
	c0.003,0.021-0.013,0.043-0.036,0.046c-0.003,0-0.006,0-0.01,0l-0.044,0.093v0.041c-0.022-0.004-0.042,0.013-0.044,0.033
	c-0.001,0.004,0,0.008,0,0.012V24.1l-0.046,0.045h-0.046v0.045l-0.045,0.045v0.142h-0.093v0.094
	c-0.022-0.003-0.042,0.015-0.045,0.033c-0.001,0.004-0.001,0.008,0,0.015v0.045l-0.046,0.045v0.094h-0.06v0.047l-0.045,0.044h-0.046
	v0.187c-0.022-0.002-0.043,0.013-0.046,0.035c0,0.004,0,0.006,0,0.01c-0.023-0.008-0.043,0.009-0.046,0.031c0,0.002,0,0.006,0,0.008
	v0.095L25.932,25.2v0.046c0.004,0.021-0.01,0.042-0.032,0.046c-0.004,0.001-0.009,0.001-0.013,0.001v0.092l-0.046,0.049v0.092
	c-0.021-0.004-0.042,0.014-0.045,0.033c0,0.006,0,0.01,0,0.012v0.14c0.003,0.021-0.012,0.043-0.034,0.045
	c-0.003,0.001-0.007,0.001-0.011,0v0.188c-0.036,0.002-0.069,0.021-0.093,0.045V26.3l-0.044,0.046v0.094h-0.045v0.599
	c0.003,0.021-0.013,0.042-0.035,0.044c-0.003,0.001-0.007,0.001-0.01,0v0.045h-0.683v-0.063c0.002-0.021-0.014-0.043-0.037-0.045
	c-0.002,0-0.006,0-0.009,0l-0.045-0.045h-0.093c-0.023-0.027-0.057-0.043-0.093-0.048v-0.048h-0.049v-0.045h-0.136
	c-0.023-0.023-0.057-0.043-0.093-0.045c-0.023-0.025-0.057-0.043-0.092-0.045h-0.093v-0.049c-0.023-0.025-0.057-0.043-0.093-0.045
	h-0.093c-0.023-0.025-0.057-0.045-0.093-0.047v-0.043h-0.124v-0.047h-0.093c0.003-0.021-0.013-0.043-0.036-0.047
	c-0.003-0.001-0.007-0.001-0.01,0c-0.023-0.025-0.057-0.045-0.093-0.046h-0.093c-0.023-0.026-0.057-0.044-0.093-0.046V26.33h-0.13
	c-0.038-0.032-0.086-0.049-0.136-0.045l-0.093-0.094h-0.137l-0.046-0.045h-0.047c-0.021,0.004-0.042-0.015-0.044-0.033
	c-0.001-0.004-0.001-0.008,0-0.012l-0.093-0.047l-0.045-0.048h-0.042c-0.023-0.024-0.057-0.044-0.093-0.046
	c-0.038-0.029-0.087-0.049-0.137-0.045c-0.024-0.023-0.058-0.044-0.093-0.046l-0.046-0.045h-0.093
	c-0.022,0.003-0.042-0.017-0.045-0.035c0-0.003,0-0.007,0-0.013l-0.045-0.047h-0.039v-0.049H21.74
	c-0.036-0.002-0.069-0.018-0.093-0.043L21.554,25.6c-0.022,0.002-0.042-0.013-0.044-0.033c0-0.004,0-0.008,0-0.012h-0.134
	l-0.045-0.047h-0.093v-0.046h-0.135v-0.045h-0.044c-0.042-0.024-0.088-0.04-0.136-0.046c-0.024-0.025-0.057-0.043-0.093-0.046
	v-0.046h-0.134c0.002-0.023-0.015-0.043-0.038-0.047c-0.002,0-0.006,0-0.008,0c-0.024-0.025-0.057-0.041-0.093-0.043h-0.134v-0.047
	c-0.036-0.002-0.07-0.021-0.093-0.048h-0.043c-0.058-0.028-0.121-0.048-0.186-0.048c0.003-0.021-0.012-0.043-0.035-0.045
	c-0.001,0-0.003-0.001-0.006-0.001c-0.035-0.002-0.069-0.021-0.093-0.045V24.91h-0.092c-0.023-0.028-0.058-0.045-0.093-0.049h-0.093
	v-0.047h-0.038l-0.044-0.045V24.73h-0.138V24.59h-0.046v-0.729h0.046v-0.137c-0.003-0.022,0.011-0.043,0.033-0.048
	c0.004,0,0.008,0,0.012,0V23.54h0.045v-0.187c0.022,0.002,0.042-0.016,0.045-0.035c0-0.004,0-0.008,0-0.012h0.044
	c0.022,0.004,0.042-0.015,0.045-0.033c0.001-0.004,0.001-0.008,0-0.013V23.17l0.046-0.045v-0.041l0.045-0.046
	c-0.003-0.021,0.012-0.043,0.034-0.045c0.004-0.001,0.007-0.001,0.011,0v-0.048l0.045-0.045v-0.094h0.046v-0.043h0.044v-0.049
	l0.047-0.047V22.58h0.045v-0.049l0.044-0.047v-0.045l0.137-0.138V22.26h0.045v-0.095l0.093-0.095h0.045
	c-0.003-0.021,0.013-0.041,0.035-0.045c0.004,0,0.007,0,0.011,0v-0.041l0.093-0.094c0.021,0.002,0.042-0.016,0.045-0.035
	c0-0.002,0-0.006,0-0.011V21.8c-0.003-0.022,0.012-0.043,0.033-0.047c0.004,0,0.008,0,0.012,0c0.032-0.028,0.063-0.062,0.092-0.093
	l0.093-0.045v-0.047l0.045-0.045c-0.003-0.021,0.012-0.043,0.034-0.045c0.004-0.002,0.008,0,0.012,0v-0.047
	c-0.003-0.021,0.012-0.041,0.034-0.046c0.004,0,0.007,0,0.011,0V21.34h0.045v-0.048c0.036-0.001,0.069-0.021,0.092-0.044V21.2
	c0.023,0.004,0.043-0.015,0.046-0.034c0.001-0.004,0.001-0.008,0-0.014h0.044l0.045-0.092c-0.003-0.021,0.013-0.043,0.035-0.047
	c0.004,0,0.007,0,0.011,0l0.045-0.045c-0.003-0.021,0.012-0.041,0.034-0.045c0.004,0,0.008,0,0.012,0V20.88
	c0.022,0.002,0.043-0.014,0.046-0.034c0-0.005,0-0.009,0-0.013l0.044-0.045c0.031-0.028,0.063-0.062,0.093-0.095V20.65
	c0.024-0.026,0.058-0.043,0.093-0.045v-0.045c-0.002-0.021,0.013-0.043,0.036-0.045c0.003-0.002,0.007-0.002,0.01,0l0.045-0.049
	V20.43h0.031v-0.095c0.021,0.002,0.042-0.013,0.045-0.032c0-0.005,0-0.01,0-0.014h0.046v-0.044l0.045-0.046h0.045
	c-0.003-0.021,0.012-0.043,0.033-0.047c0.004,0,0.008,0,0.012,0v-0.045l0.137-0.142v-0.045c0.021,0.006,0.042-0.011,0.045-0.03
	c0-0.002,0-0.01,0-0.015l0.044-0.045c0.023,0.003,0.043-0.017,0.046-0.035c0-0.004,0-0.008,0-0.01h0.045l0.093-0.097
	c0.021,0.004,0.041-0.012,0.044-0.03c0.001-0.004,0.001-0.011,0-0.015V19.6l0.046-0.047c0.022,0.004,0.042-0.012,0.045-0.033
	c0-0.004,0-0.008,0-0.012v-0.047h0.044v-0.046h0.046v-0.046l0.044-0.044c-0.003-0.022,0.012-0.044,0.035-0.048
	c0.003,0,0.007,0,0.011,0l0.046-0.045v-0.047c0.022,0.004,0.042-0.014,0.044-0.035c0-0.002,0-0.006,0-0.01
	c0.022,0.004,0.042-0.015,0.046-0.033c0-0.004,0-0.008,0-0.013V19l0.046-0.046h0.045v-0.095H23v-0.09l0.045-0.045
	c0.022,0,0.042-0.015,0.045-0.037c0-0.002,0-0.006,0-0.01v-0.094l0.044-0.044c0.022,0.003,0.042-0.013,0.046-0.034
	c0-0.005,0-0.009,0-0.012v-0.187c0.023-0.026,0.057-0.043,0.093-0.045V18.04c0.022,0.003,0.043-0.014,0.046-0.035
	c0-0.004,0-0.007,0-0.01v-0.412H23.27v-0.229c-0.023-0.027-0.057-0.043-0.093-0.045v-0.14h-0.042V17.13l-0.037-0.05v-0.04h-0.045
	l-0.187-0.187c0.003-0.021-0.013-0.042-0.035-0.044c-0.003,0-0.007,0-0.011,0l-0.044-0.046v-0.042H22.74
	c-0.024-0.027-0.057-0.044-0.093-0.046h-0.044c-0.023-0.028-0.057-0.044-0.093-0.045c0.003-0.021-0.012-0.042-0.033-0.045
	c-0.004,0-0.009,0-0.013,0h-0.043c-0.037-0.034-0.087-0.051-0.137-0.047c-0.024-0.026-0.057-0.043-0.093-0.044
	c-0.088-0.03-0.181-0.046-0.274-0.046h-0.042v-0.047h-0.093c-0.042-0.024-0.087-0.04-0.136-0.044h-0.093
	c-0.023-0.028-0.057-0.045-0.093-0.047v-0.045h-0.186c-0.058-0.03-0.121-0.045-0.187-0.045c-0.041-0.025-0.087-0.04-0.136-0.046
	H20.6v-0.186h-0.228v-1.87h-0.501v0.093h-0.318v1.553l0.044,0.045v0.64H19.37v0.138h-3.006v0.914h-0.093v0.274h-0.636v-0.043h-0.093
	v0.044c-0.078,0.004-0.155,0.019-0.228,0.045h-0.955v0.045l-0.045,0.045v0.413h-0.089v0.273l-0.045,0.047v0.138
	c-0.138,0.002-0.275,0.018-0.41,0.045h-1.14v-0.501h-0.046c-0.022-0.002-0.042,0.013-0.045,0.035c0,0.003,0,0.007,0,0.011
	c-0.03,0.031-0.062,0.061-0.093,0.093l-0.045,0.045c-0.022-0.003-0.043,0.016-0.046,0.035c0,0.004,0,0.01,0,0.012h-0.178
	c-0.028,0.021-0.045,0.058-0.047,0.094c-0.061,0-0.093,0.017-0.093,0.045c-0.042,0.023-0.088,0.041-0.137,0.047
	c-0.026,0.021-0.043,0.059-0.045,0.094c-0.022-0.003-0.042,0.016-0.045,0.036c0,0.004,0,0.007,0,0.011h-0.186
	c-0.03,0.029-0.062,0.063-0.093,0.096c-0.021-0.004-0.042,0.012-0.044,0.031c0,0.006,0,0.01,0,0.014
	c-0.024,0.023-0.057,0.041-0.093,0.045v0.095c-0.061,0-0.093,0.015-0.093,0.046c-0.05-0.005-0.099,0.012-0.137,0.045
	c-0.023,0.025-0.057,0.043-0.093,0.045v0.096c-0.05-0.006-0.099,0.013-0.136,0.045L10.89,19.48
	c-0.045,0.012-0.081,0.047-0.093,0.092c-0.022-0.002-0.043,0.012-0.046,0.035c0,0.004,0,0.008,0,0.012
	c-0.045,0.011-0.081,0.047-0.093,0.093h-0.12c-0.026,0.022-0.043,0.058-0.045,0.093l-0.045,0.045
	c-0.042,0.025-0.088,0.041-0.137,0.047c-0.027,0.022-0.042,0.061-0.044,0.097l-0.093,0.045c-0.027,0.021-0.043,0.06-0.045,0.094
	c-0.021-0.005-0.042,0.011-0.045,0.029c-0.001,0.007-0.001,0.011,0,0.015c-0.05-0.004-0.099,0.018-0.136,0.049v0.047
	c-0.023,0.021-0.057,0.043-0.093,0.045c-0.03,0.027-0.06,0.061-0.093,0.094v0.045l-0.093,0.094v0.045L9.53,20.725v0.094H8.263
	v-1.709H8.176l-0.045,0.046C8.073,19.186,8.01,19.2,7.945,19.2v0.139c-0.058,0.029-0.122,0.045-0.186,0.045
	c-0.036,0.003-0.069,0.021-0.093,0.046c0.003,0.021-0.011,0.043-0.033,0.047c-0.004,0-0.008,0-0.012,0
	c-0.038,0.031-0.087,0.049-0.137,0.045c-0.023,0.026-0.057,0.043-0.093,0.045v0.097c-0.042,0.021-0.088,0.039-0.137,0.045
	c-0.062,0-0.093,0.017-0.093,0.045c-0.032,0.031-0.063,0.063-0.093,0.095v0.047H6.975v0.094c0.003,0.021-0.012,0.043-0.034,0.047
	c-0.003,0-0.007,0-0.011,0c-0.05-0.004-0.099,0.013-0.137,0.046L6.748,20.12l-0.093,0.09L6.61,20.256v0.047H6.518
	c-0.027,0.021-0.043,0.057-0.045,0.094v0.045H6.429c-0.023,0.026-0.057,0.043-0.093,0.045c0.003,0.021-0.011,0.041-0.034,0.049
	c-0.003,0-0.008,0-0.012,0c-0.002,0.031-0.018,0.066-0.044,0.094l-0.093,0.094c-0.027,0.023-0.043,0.061-0.046,0.096
	c-0.061,0-0.093,0.014-0.093,0.045L5.968,20.9c-0.071,0.011-0.126,0.063-0.137,0.139l-0.044,0.044l-0.093,0.095v0.045l-0.093,0.092
	c0.003,0.022-0.012,0.043-0.034,0.047c-0.004,0-0.007,0-0.011,0c-0.027,0.022-0.043,0.061-0.045,0.096
	c-0.021-0.002-0.043,0.016-0.046,0.036c0,0.004,0,0.007,0,0.01c-0.027,0.021-0.044,0.062-0.045,0.095
	c-0.036,0.002-0.07,0.02-0.093,0.049v0.045c-0.028,0.021-0.045,0.057-0.045,0.092H5.199v0.094c-0.036,0.002-0.069,0.02-0.093,0.045
	c-0.002,0.036-0.019,0.068-0.046,0.094c-0.022-0.002-0.042,0.012-0.045,0.035c0,0.004,0,0.006,0,0.01
	c0.003,0.021-0.012,0.043-0.033,0.045c-0.004,0.002-0.008,0.002-0.012,0V22.2H4.926c-0.038,0.032-0.087,0.052-0.136,0.047v0.046
	c-0.001,0.035-0.018,0.066-0.045,0.093c0.003,0.021-0.012,0.046-0.035,0.05c-0.003,0-0.007,0-0.01,0v0.139
	c-0.05-0.006-0.098,0.012-0.135,0.047v0.045l-0.093,0.093V22.8c0.004,0.021-0.01,0.041-0.032,0.046c-0.004,0-0.009,0-0.013,0
	c-0.001,0.034-0.019,0.069-0.046,0.094v0.093c-0.059,0-0.092,0.018-0.092,0.046v0.095c-0.022-0.002-0.042,0.015-0.045,0.035
	c0,0.003,0,0.007,0,0.012l-0.045,0.046c-0.027,0.021-0.043,0.059-0.045,0.094l-0.045,0.047v0.045
	c-0.027,0.021-0.043,0.059-0.046,0.094v0.094c0,0.029-0.03,0.045-0.093,0.045v0.137c-0.002,0.037-0.019,0.07-0.045,0.097v0.104
	c-0.036,0-0.07,0.021-0.093,0.045v0.273H3.519c-0.334-0.029-0.652-0.045-0.957-0.045H2.198c-0.063,0-0.093-0.018-0.093-0.047v-0.094
	c-0.027-0.023-0.042-0.06-0.044-0.094c-0.023,0.004-0.043-0.015-0.046-0.033c-0.001-0.006-0.001-0.008,0-0.014V23.6
	c-0.023-0.026-0.057-0.045-0.093-0.047v-0.32l-0.045-0.045v-0.318l-0.093-0.046V22.46c0.004-0.021-0.01-0.041-0.031-0.046
	C1.751,22.41,1.748,22.41,1.745,22.41c-0.002-0.035-0.018-0.067-0.045-0.092V22.09H1.605v-0.55
	c-0.001-0.036-0.018-0.067-0.046-0.095V21.13c-0.002-0.034-0.018-0.067-0.044-0.094c-0.022,0.004-0.042-0.015-0.045-0.034
	c0-0.004,0-0.007,0-0.012v-0.364l-0.053-0.044v-0.047L1.371,20.48v-0.914c0-0.029-0.032-0.045-0.093-0.045v-0.549
	c-0.022,0.004-0.042-0.018-0.044-0.035c0-0.004,0-0.008,0-0.015V18.33c-0.002-0.035-0.019-0.069-0.045-0.093v-0.044L1.143,18.15
	v-0.5c0.002-0.022-0.013-0.043-0.036-0.046c-0.003-0.001-0.007-0.001-0.011,0.001v-0.042l-0.045-0.045v-0.831H0.958v-0.731
	c-0.027-0.024-0.044-0.058-0.046-0.093V14.31c-0.026-0.024-0.043-0.058-0.045-0.093l-0.041-0.044v-2.879
	c0.021,0.003,0.042-0.011,0.044-0.033c0.001-0.004,0.001-0.008,0-0.012l0.049-0.047v-0.964c0.002-0.036,0.019-0.069,0.045-0.093
	v-0.73C1,9.414,1.034,9.397,1.057,9.369V9.323c0.456,0,0.911,0.015,1.366,0.046v0.092h0.093v0.044L2.555,9.55v0.687H21.37
	c0.022,0.003,0.043-0.012,0.046-0.035c0-0.004,0-0.007,0-0.011l0.045-0.046h0.046c0.022,0.003,0.042-0.013,0.044-0.035
	c0-0.003,0-0.006,0-0.01v-0.047h0.093v-0.045l0.045-0.093h0.046l0.044-0.093h0.046l0.045-0.045l0.093-0.046V9.688
	c0.035-0.001,0.069-0.018,0.093-0.045l0.046-0.045h0.045V9.552C22.144,9.53,22.159,9.51,22.18,9.507c0.004,0,0.008,0,0.012,0h0.045
	V9.46l0.093-0.093c0.031-0.031,0.062-0.063,0.093-0.093c0.022,0.003,0.042-0.013,0.045-0.035c0-0.003,0-0.008,0-0.011l0.093-0.093
	c0.019-0.003,0.033-0.021,0.032-0.041h0.046c-0.003-0.021,0.011-0.043,0.033-0.046c0.005-0.001,0.01-0.001,0.015,0V9.002
	l0.093-0.045c-0.005-0.021,0.008-0.043,0.03-0.047c0.004-0.001,0.009-0.001,0.013-0.001h0.049l0.231-0.23V8.637h0.044l0.045-0.045
	h0.042c-0.003-0.022,0.013-0.043,0.035-0.046c0.003,0,0.006,0,0.01,0V8.5c0.023-0.027,0.057-0.044,0.093-0.046
	c0.023-0.027,0.057-0.044,0.093-0.045c0.036-0.002,0.07-0.018,0.093-0.044l0.093-0.093h0.136V7.858
	c0.036-0.002,0.069-0.018,0.093-0.044V7.678h0.629v0.093h6.65V7.357c0.003-0.022-0.012-0.042-0.034-0.045c-0.003,0-0.007,0-0.011,0
	V7.265L31.077,7.22V6.535h-0.319v0.458c-0.021-0.003-0.042,0.012-0.045,0.033c0,0.004,0,0.007,0,0.011h-0.637V6.851l-0.045-0.045
	V6.535h-1.822v0.411h-0.045v0.093h-0.633V6.717h-0.093V2.738h0.093V2.552l0.045-0.045V2.462l0,0H27.569z M43.378,16.228l0.044-0.046
	h-0.044V16.228z M34.353,17.051h-2.868v0.045l-0.045,0.093h-0.045v0.137c-0.022-0.003-0.042,0.013-0.045,0.034
	c0,0.004,0,0.007,0,0.011v0.186l-0.045,0.046v0.137h-0.046v0.188c0.004,0.021-0.011,0.042-0.033,0.045
	c-0.003,0.001-0.007,0.001-0.012,0v0.687h0.044v0.094l0.046,0.045v0.096h0.045v0.188h0.045v0.598h2.597V19.4h0.05V19.34
	c0.022,0.002,0.042-0.016,0.044-0.037c0-0.003,0-0.007,0-0.01h0.045l0.093-0.094h0.045v-0.045l0.093-0.043
	c-0.003-0.023,0.014-0.045,0.037-0.047c0.003-0.002,0.006-0.002,0.01,0l0.093-0.098h0.125l0.045-0.045
	c-0.003-0.021,0.013-0.043,0.034-0.045c0.004-0.001,0.007-0.001,0.011,0l0.093-0.093c0.023,0.003,0.043-0.015,0.046-0.036
	c0.001-0.003,0.001-0.006,0-0.014c0.036-0.002,0.07-0.018,0.093-0.045V18.65h0.093v-0.047c0.021,0.004,0.042-0.015,0.045-0.033
	c0.001-0.004,0.001-0.008,0-0.012h0.093v-0.826l-0.046-0.046c0.003-0.022-0.013-0.042-0.034-0.045c-0.004,0-0.007,0-0.01,0
	c0.003-0.022-0.012-0.042-0.034-0.045c-0.004,0-0.008,0-0.012,0l-0.092-0.045c-0.036-0.002-0.07-0.019-0.093-0.045v-0.046
	c-0.022,0.002-0.043-0.013-0.046-0.035c0-0.004,0-0.007,0-0.011h-0.049c-0.023-0.027-0.057-0.044-0.093-0.046v-0.09
	c-0.036-0.002-0.07-0.019-0.093-0.046c-0.021,0.003-0.042-0.011-0.044-0.032c0-0.004,0-0.008,0-0.013l-0.044-0.045h-0.042
	l-0.044-0.049c0.002-0.021-0.014-0.042-0.037-0.045c-0.003,0-0.007,0-0.011,0L34.353,17.051L34.353,17.051z M29.569,17.738
	c-0.021,0.002-0.042-0.013-0.045-0.035c0-0.004,0-0.008,0-0.012c-0.021,0.002-0.042-0.012-0.045-0.033c0-0.004,0-0.008,0-0.013V17.6
	h-0.315v1.371l0.044,0.047c0.022-0.006,0.043,0.01,0.046,0.031c0.001,0.004,0.001,0.01,0,0.014h0.041v0.093h0.045V19.2l0.048,0.046
	v0.046h0.093v0.046l0.093,0.044h0.046v0.046c0.023,0.027,0.057,0.045,0.093,0.047h0.045v0.043h0.04l0.093,0.045v0.097h0.638v-0.097
	h-0.093v-0.092c-0.021,0.002-0.041-0.013-0.045-0.033c0-0.004,0-0.01,0-0.014v-0.04h-0.046v-0.045
	c-0.022,0.002-0.042-0.015-0.045-0.036c0-0.004,0-0.008,0-0.011h-0.047v-0.095l-0.044-0.045v-0.092
	c-0.036-0.002-0.069-0.021-0.093-0.047V18.88h-0.043v-0.137l-0.046-0.048v-0.094l-0.093-0.096v-0.042h-0.047V18.42
	c-0.029-0.032-0.061-0.063-0.092-0.093v-0.093L29.75,18.19v-0.045h-0.04v-0.094l-0.046-0.046v-0.092H29.62v-0.04
	c-0.022,0.003-0.042-0.011-0.045-0.033c0-0.005,0-0.009,0-0.013v-0.093l0,0L29.569,17.738z"/>
<g>
	<defs>
		<path id="SVGID_1_" d="M27.569,2.462h0.044C27.61,2.44,27.626,2.42,27.648,2.417c0.004,0,0.007,0,0.011,0V2.373h0.093V2.279h0.046
			l0.045-0.045V2.048l0.046-0.045V1.138h0.456V1h0.634v1.876h1.094v-0.32h0.636v0.187l0.046,0.042v0.137
			c0.104-0.031,0.216-0.031,0.32,0V2.236h0.093V2.188h0.866V2.143h0.638V2.92h4.693V2.462h3.095V1.823h0.64v0.503
			c-0.002,0.023,0.014,0.043,0.037,0.045c0.003,0,0.006,0,0.009,0v0.186h0.455v0.821c-0.036,0.002-0.069,0.018-0.093,0.045v0.089
			h-0.043v0.186c-0.022-0.003-0.042,0.012-0.046,0.034c0,0.003,0,0.007,0,0.011v0.048c-0.022-0.003-0.042,0.013-0.045,0.036
			c0,0.003,0,0.006,0,0.01V3.93H41.33v0.042l-0.047,0.046V4.11l-0.044,0.046V4.2l-0.047,0.047V4.34h-0.046v0.046L41.099,4.43
			l-0.046,0.093c0.004,0.021-0.01,0.042-0.032,0.046c-0.004,0-0.008,0-0.012,0c0.003,0.022-0.013,0.042-0.036,0.045
			c-0.003,0-0.006,0-0.01,0V4.75l-0.046,0.045v0.046h-0.045v0.135h-0.046v0.093h-0.045v0.093c-0.022-0.003-0.042,0.012-0.045,0.033
			c0,0.004,0,0.007,0,0.011v0.043H40.69v0.047l-0.042,0.045v0.138h-0.049v0.047c0.003,0.021-0.011,0.041-0.033,0.044
			c-0.004,0-0.008,0-0.012,0v0.14c-0.023-0.003-0.043,0.013-0.046,0.036c0,0.003,0,0.007,0,0.011v0.046h-0.046v0.093h-0.043v0.093
			h-0.05V6.03c-0.022-0.003-0.042,0.012-0.045,0.035c0,0.003,0,0.007,0,0.011V6.21h-0.049v0.048h-0.042v0.093l-0.045,0.044h-0.046
			v0.137h-0.045v0.093h-0.046v0.186h-0.046c0.003,0.022-0.012,0.042-0.034,0.045c-0.003,0-0.007,0-0.011,0v0.041l-0.047,0.046
			l-0.044,0.093c-0.022-0.003-0.043,0.013-0.045,0.035c0,0.003,0,0.007,0,0.01v0.043c-0.022-0.003-0.042,0.012-0.045,0.034
			c-0.001,0.004-0.001,0.008,0,0.012v0.047h-0.045v0.138h1.547v0.412h6.197V8.18h26.693v0.229h0.364V8.135h0.317V3.283h0.957v0.043
			h0.141l0.045,0.045v0.327h0.316c0.022,0.027,0.06,0.043,0.096,0.045v1.008h0.314v0.364h0.094v2.654h0.363
			c0.104,0.028,0.213,0.043,0.319,0.046h0.136v1.007h0.225v0.086h1.867v0.187h0.098v0.64H78.91v0.274l-0.096,0.045v0.047h0.91v0.639
			h-2.096v0.138h8.795v-0.32h4.561v2.148h0.089v0.64h-5.47v0.045h-0.639c0.004-0.022-0.013-0.042-0.033-0.045
			c-0.004,0-0.008,0-0.012,0h-0.04v-0.411h-7.835v0.457h-0.138v0.275h-0.365v0.046c-0.036,0.001-0.069,0.018-0.093,0.045v2.194
			h-0.633v-0.044h-0.092c-0.197-0.032-0.396-0.047-0.596-0.046h-0.188l-0.094-0.045v-0.732c0.036-0.001,0.068-0.018,0.094-0.046
			v-1.326H74.67c-0.038-0.033-0.087-0.05-0.137-0.046v-0.275h-0.408c0.002,0.023-0.018,0.043-0.036,0.045c-0.004,0-0.008,0-0.012,0
			v1.418h-0.045v0.138h-0.595v0.044h-0.047v0.093H73.35v0.093l-0.096,0.093v0.046c-0.021-0.003-0.041,0.013-0.044,0.034
			c-0.001,0.004,0,0.007,0.001,0.011v0.822h-0.5l-0.048,0.049H72.62v0.093h-0.044V16.6h-0.775l-0.046-0.047
			c-6.257-0.029-12.528-0.044-18.813-0.044v0.186h-0.729v-0.093H52.17v-0.093c-0.021,0.003-0.043-0.013-0.046-0.035
			c0-0.003,0-0.007,0-0.011l-0.045-0.046v-0.051h-0.045v-0.093c0.003-0.023-0.015-0.042-0.035-0.045c-0.004,0-0.008,0-0.011,0
			c-2.247-0.03-4.495-0.046-6.742-0.046h-0.045l-0.045,0.046c-0.022-0.003-0.042,0.011-0.045,0.033c0,0.004,0,0.008,0,0.012h-0.089
			l-0.045,0.044c-0.036,0.002-0.07,0.019-0.093,0.047H44.79c0.002,0.021-0.013,0.042-0.035,0.044c-0.003,0-0.007,0-0.01,0
			l-0.046,0.045h-0.044c-0.022,0.027-0.056,0.044-0.092,0.046c0.002,0.022-0.013,0.042-0.035,0.044c-0.004,0-0.007,0-0.01,0
			l-0.045,0.046H44.38v0.045c-0.036,0.001-0.069,0.018-0.093,0.045c-0.036,0.002-0.069,0.019-0.093,0.045l-0.045,0.045
			c-0.036,0.001-0.071,0.019-0.094,0.046l-0.046,0.044h-0.035c-0.024,0.027-0.057,0.044-0.093,0.046
			c0.003,0.021-0.013,0.042-0.035,0.045c-0.003,0-0.007,0-0.011,0l-0.046,0.044h-0.043c0.002,0.022-0.012,0.043-0.035,0.047
			c-0.003,0-0.007,0-0.011,0l-0.045,0.044h-0.044c-0.023-0.003-0.044,0.012-0.047,0.035c0,0.003,0,0.007,0,0.011l-0.044,0.046
			h-0.046c-0.022-0.003-0.042,0.012-0.045,0.034c0,0.003,0,0.007,0,0.011l-0.045,0.046v1.373h0.364v0.64
			c-0.228,0.005-0.457,0.021-0.683,0.05H43.02v1.275h0.049v0.414h0.045v0.42l0.046,0.045v0.318
			c-0.003,0.021,0.012,0.043,0.034,0.045c0.003,0.002,0.007,0.002,0.011,0v0.32h0.046v0.507l0.045,0.046
			c-0.003,0.021,0.011,0.041,0.033,0.045c0.003,0,0.007,0,0.011,0v0.457c-0.002,0.021,0.012,0.043,0.035,0.045
			c0.003,0.002,0.008,0.002,0.013,0v0.047l0.044,0.045v0.229l0.045,0.046v0.137l0.046,0.045v0.048l0.043,0.047v0.229l0.047,0.045
			c-0.003,0.021,0.011,0.043,0.033,0.045c0.004,0.002,0.008,0.002,0.012,0v0.229h0.045v0.045c-0.002,0.021,0.013,0.043,0.035,0.045
			c0.004,0.001,0.007,0.001,0.011,0v0.141l0.044,0.047v0.045l0.047,0.045v0.046h0.044v0.323l0.093,0.045v0.187
			c-0.002,0.021,0.013,0.042,0.036,0.044c0.003,0.002,0.005,0.002,0.009,0V25.6h0.047v0.094l0.044,0.098v0.045h0.043v0.188h0.045
			v0.095l0.093,0.093v0.188c-0.004,0.021,0.011,0.041,0.032,0.045c0.004,0.002,0.008,0.002,0.014,0
			c-0.004,0.021,0.011,0.043,0.033,0.047c0.003,0,0.008,0,0.013,0v0.139l0.045,0.046v0.097h0.044v0.228h0.045v0.093l0.044,0.096
			v0.094l0.045,0.043v0.096c-0.002,0.021,0.012,0.043,0.035,0.046c0.004,0.001,0.007,0.001,0.011,0v0.046h0.046v0.115
			c0.021-0.002,0.042,0.016,0.045,0.036c0,0.005,0,0.007,0,0.011l0.044,0.049v0.139c-0.003,0.021,0.014,0.041,0.035,0.046
			c0.004,0,0.007,0,0.01,0v0.094c-0.003,0.021,0.012,0.041,0.034,0.045c0.003,0,0.008,0,0.013,0l0.045,0.093v0.096
			c0.021-0.004,0.042,0.013,0.045,0.033c0,0.004,0,0.008,0,0.012v0.045l0.047,0.041v0.095c-0.003,0.022,0.013,0.044,0.036,0.048
			c0.003,0,0.005,0,0.009,0v0.045h0.047v0.188l0.045,0.045v0.093c-0.002,0.021,0.013,0.043,0.035,0.047c0.004,0,0.007,0,0.012,0
			v0.047c-0.002,0.021,0.014,0.043,0.036,0.047c0.003,0,0.005,0,0.009,0v0.045h0.045v0.188l0.093,0.045v0.046l0.045,0.048v0.137
			c0.022-0.004,0.042,0.013,0.045,0.033c0,0.002,0,0.008,0,0.013v0.045c0.022-0.004,0.042,0.013,0.045,0.032
			c0,0.005,0,0.009,0,0.016v0.036h0.045c-0.004,0.021,0.012,0.041,0.033,0.045c0.006,0,0.008,0,0.012,0v0.046
			c0.037,0.002,0.07,0.02,0.094,0.045l0.046,0.047v0.643H45.7v0.094h-0.227v0.092c-0.093,0-0.185,0.018-0.274,0.045h-0.045
			c-0.023,0.027-0.056,0.047-0.093,0.049c-0.048,0.006-0.094,0.021-0.136,0.045h-0.043c-0.036,0.002-0.07,0.019-0.094,0.045
			L44.743,30.9h-0.134c-0.049,0.006-0.096,0.021-0.137,0.045c-0.037,0.002-0.07,0.019-0.094,0.046h-0.043l-0.093,0.094h-0.134
			c-0.047,0.006-0.095,0.021-0.136,0.046v0.047c-0.035,0.002-0.07,0.018-0.093,0.045h-0.093l-0.044,0.043h-0.043
			c-0.036,0.002-0.07,0.021-0.093,0.047H43.56c-0.035,0.002-0.069,0.021-0.093,0.045c-0.036,0.002-0.07,0.021-0.092,0.048h-0.132
			c-0.036,0.004-0.069,0.02-0.093,0.048l-0.047,0.044H43.01c-0.042,0.022-0.089,0.04-0.137,0.046
			c-0.047,0.007-0.094,0.021-0.136,0.046c-0.047,0.005-0.094,0.021-0.136,0.045H42.56c-0.036,0.002-0.069,0.021-0.093,0.05H42.42
			c-0.024,0.022-0.057,0.043-0.093,0.043h-0.041c-0.062,0-0.093,0.016-0.093,0.047c-0.036,0.002-0.07,0.019-0.093,0.045h-0.093
			c-0.024,0.023-0.058,0.043-0.093,0.047c-0.048,0.006-0.094,0.021-0.136,0.045h-0.093c-0.021-0.002-0.042,0.013-0.045,0.033
			c0,0.004,0,0.008,0,0.012c-0.036,0.002-0.07,0.02-0.093,0.046h-0.039l-0.045,0.045h-0.135c-0.094,0.001-0.186,0.017-0.275,0.047
			v0.046H40.96v0.047c-0.057,0.03-0.121,0.047-0.186,0.047h-0.131v0.045c-0.036,0.003-0.07,0.021-0.093,0.048l-0.092,0.047h-0.132
			c-0.036,0-0.07,0.019-0.093,0.045v0.043H40.14c-0.023,0.024-0.057,0.044-0.093,0.046c-0.05-0.004-0.099,0.016-0.137,0.046h-0.266
			v0.046c-0.05-0.005-0.099,0.014-0.137,0.047h-0.911v-0.308H38.55c0.003-0.021-0.012-0.042-0.034-0.045c-0.004,0-0.007,0-0.011,0
			v-0.188c-0.023,0.004-0.043-0.015-0.045-0.035c0-0.004,0-0.008,0-0.01l-0.045-0.043V31.82c-0.021,0.004-0.042-0.012-0.044-0.033
			c0-0.004,0-0.008,0-0.012v-0.188h-0.048V31.4h-0.044V31.09h-0.093v-0.279h-0.044V30.68h-0.045v-0.095l-0.045-0.044v-0.049
			c-0.022,0.003-0.042-0.012-0.045-0.033c0-0.004,0-0.008,0-0.014v-0.092h-0.046V30.17l-0.093-0.094v-0.219h-0.042v-0.094
			c0.003-0.021-0.013-0.044-0.035-0.048c-0.003-0.001-0.007-0.001-0.011,0v-0.093c-0.022,0.003-0.043-0.016-0.046-0.035
			c0-0.003,0-0.008,0-0.012V29.48c-0.022,0.002-0.042-0.014-0.045-0.031c0-0.008,0-0.012,0-0.016v-0.092l-0.046-0.045v-0.27H37.55
			V28.71l-0.046-0.046V28.57l-0.044-0.045V28.35c0.003-0.021-0.012-0.043-0.034-0.045c-0.004,0-0.008,0-0.012,0V28.21h-0.042v-0.278
			l-0.045-0.048V27.79H37.28c0.003-0.021-0.012-0.042-0.034-0.046c-0.003,0-0.007,0-0.011,0v-0.188H37.19v-0.13l-0.045-0.049v-0.188
			l-0.046-0.045v-0.043c-0.021,0.004-0.042-0.012-0.045-0.033c0-0.004,0-0.008,0-0.012v-0.188c0.003-0.021-0.013-0.044-0.036-0.046
			c-0.003-0.001-0.006-0.001-0.01,0V26.73l-0.045-0.045V26.6c-0.021,0.004-0.041-0.012-0.044-0.033c-0.001-0.004-0.001-0.008,0-0.01
			v-0.095l-0.046-0.046V26.29l-0.045-0.045v-0.093l-0.051-0.047v-0.095h-0.046v-0.188l-0.044-0.05v-0.131L36.641,25.6v-0.093h-0.046
			v-0.093l-0.045-0.041v-0.141l-0.046-0.045v-0.097c0.003-0.021-0.012-0.043-0.034-0.046c-0.003-0.001-0.007-0.001-0.011,0v-0.188
			h-0.045v-0.313c0.002-0.021-0.013-0.041-0.035-0.045c-0.004,0-0.008,0-0.011,0v-0.14l-0.045-0.045v-0.09
			c-0.022,0.004-0.042-0.014-0.045-0.033c-0.001-0.004-0.001-0.008,0-0.012v-0.13h-0.046v-0.366
			c-0.023,0.002-0.042-0.017-0.043-0.039c0-0.002,0-0.004,0-0.006h-0.048v-0.279c-0.022,0.005-0.042-0.012-0.045-0.032
			c0-0.007,0-0.011,0-0.015v-0.357l-0.046-0.046V22.68l-0.047-0.048v-0.228h-0.044V22.22l-0.048-0.047v-0.409
			c0.003-0.021-0.013-0.041-0.035-0.048c-0.003,0-0.006,0-0.01,0V21.67h-0.042v-0.412h-0.045v-0.318h-0.046v-0.137
			c0.004-0.021-0.012-0.041-0.033-0.047c-0.004-0.001-0.007-0.001-0.011,0v-0.229c-0.021,0.004-0.042-0.012-0.044-0.032
			c0-0.004,0-0.009,0-0.013v-0.138c-0.022,0.003-0.042-0.014-0.045-0.032c-0.001-0.004-0.001-0.008,0-0.016h-7.107v0.229
			l-0.046,0.048v0.044h-0.093v0.094l-0.047,0.046v0.095l-0.044,0.045c-0.031,0.03-0.063,0.063-0.093,0.092v0.229
			c-0.022-0.005-0.042,0.013-0.045,0.034c0,0.003,0,0.007,0,0.012h-0.093V21.4l-0.045,0.045v0.043l-0.093,0.095v0.095
			c-0.022-0.005-0.043,0.012-0.046,0.033c-0.001,0.004-0.001,0.008,0,0.012v0.137h-0.04V21.9l-0.045,0.047v0.044l-0.044,0.045v0.046
			c-0.023-0.003-0.043,0.014-0.045,0.035c0,0.003,0,0.006,0,0.009v0.047h-0.046v0.046c0.003,0.021-0.012,0.041-0.034,0.045
			c-0.003,0-0.007,0-0.011,0l-0.046,0.045v0.137l-0.093,0.097v0.048h-0.045v0.096c-0.022-0.002-0.043,0.016-0.044,0.037
			c0,0.004,0,0.006,0,0.01v0.043l-0.136,0.094v0.095l-0.093,0.043v0.14h-0.047v0.045h-0.042v0.045
			c0.003,0.021-0.012,0.044-0.034,0.046c-0.004,0-0.007,0-0.011,0c0.003,0.022-0.013,0.043-0.035,0.049c-0.004,0-0.007,0-0.011,0
			v0.093l-0.045,0.045v0.047l-0.045,0.047c-0.021-0.004-0.042,0.014-0.044,0.032c-0.001,0.005,0,0.011,0,0.015v0.045h-0.044
			l-0.047,0.045v0.094c0.003,0.021-0.013,0.041-0.036,0.045c-0.003,0-0.006,0-0.01,0c0.003,0.021-0.013,0.043-0.036,0.046
			c-0.003,0-0.006,0-0.01,0l-0.044,0.093v0.041c-0.022-0.004-0.042,0.013-0.044,0.033c-0.001,0.004,0,0.008,0,0.012V24.1
			l-0.046,0.045h-0.046v0.045l-0.045,0.045v0.142h-0.093v0.094c-0.022-0.003-0.042,0.015-0.045,0.033
			c-0.001,0.004-0.001,0.008,0,0.015v0.045l-0.046,0.045v0.094h-0.06v0.047l-0.045,0.044h-0.046v0.187
			c-0.022-0.002-0.043,0.013-0.046,0.035c0,0.004,0,0.006,0,0.01c-0.023-0.008-0.043,0.009-0.046,0.031c0,0.002,0,0.006,0,0.008
			v0.095L25.932,25.2v0.046c0.004,0.021-0.01,0.042-0.032,0.046c-0.004,0.001-0.009,0.001-0.013,0.001v0.092l-0.046,0.049v0.092
			c-0.021-0.004-0.042,0.014-0.045,0.033c0,0.006,0,0.01,0,0.012v0.14c0.003,0.021-0.012,0.043-0.034,0.045
			c-0.003,0.001-0.007,0.001-0.011,0v0.188c-0.036,0.002-0.069,0.021-0.093,0.045V26.3l-0.044,0.046v0.094h-0.045v0.599
			c0.003,0.021-0.013,0.042-0.035,0.044c-0.003,0.001-0.007,0.001-0.01,0v0.045h-0.683v-0.063c0.002-0.021-0.014-0.043-0.037-0.045
			c-0.002,0-0.006,0-0.009,0l-0.045-0.045h-0.093c-0.023-0.027-0.057-0.043-0.093-0.048v-0.048h-0.049v-0.045h-0.136
			c-0.023-0.023-0.057-0.043-0.093-0.045c-0.023-0.025-0.057-0.043-0.092-0.045h-0.093v-0.049c-0.023-0.025-0.057-0.043-0.093-0.045
			h-0.093c-0.023-0.025-0.057-0.045-0.093-0.047v-0.043h-0.124v-0.047h-0.093c0.003-0.021-0.013-0.043-0.036-0.047
			c-0.003-0.001-0.007-0.001-0.01,0c-0.023-0.025-0.057-0.045-0.093-0.046h-0.093c-0.023-0.026-0.057-0.044-0.093-0.046V26.33h-0.13
			c-0.038-0.032-0.086-0.049-0.136-0.045l-0.093-0.094h-0.137l-0.046-0.045h-0.047c-0.021,0.004-0.042-0.015-0.044-0.033
			c-0.001-0.004-0.001-0.008,0-0.012l-0.093-0.047l-0.045-0.048h-0.042c-0.023-0.024-0.057-0.044-0.093-0.046
			c-0.038-0.029-0.087-0.049-0.137-0.045c-0.024-0.023-0.058-0.044-0.093-0.046l-0.046-0.045h-0.093
			c-0.022,0.003-0.042-0.017-0.045-0.035c0-0.003,0-0.007,0-0.013l-0.045-0.047h-0.039v-0.049H21.74
			c-0.036-0.002-0.069-0.018-0.093-0.043L21.554,25.6c-0.022,0.002-0.042-0.013-0.044-0.033c0-0.004,0-0.008,0-0.012h-0.134
			l-0.045-0.047h-0.093v-0.046h-0.135v-0.045h-0.044c-0.042-0.024-0.088-0.04-0.136-0.046c-0.024-0.025-0.057-0.043-0.093-0.046
			v-0.046h-0.134c0.002-0.023-0.015-0.043-0.038-0.047c-0.002,0-0.006,0-0.008,0c-0.024-0.025-0.057-0.041-0.093-0.043h-0.134
			v-0.047c-0.036-0.002-0.07-0.021-0.093-0.048h-0.043c-0.058-0.028-0.121-0.048-0.186-0.048c0.003-0.021-0.012-0.043-0.035-0.045
			c-0.001,0-0.003-0.001-0.006-0.001c-0.035-0.002-0.069-0.021-0.093-0.045V24.91h-0.092c-0.023-0.028-0.058-0.045-0.093-0.049
			h-0.093v-0.047h-0.038l-0.044-0.045V24.73h-0.138V24.59h-0.046v-0.729h0.046v-0.137c-0.003-0.022,0.011-0.043,0.033-0.048
			c0.004,0,0.008,0,0.012,0V23.54h0.045v-0.187c0.022,0.002,0.042-0.016,0.045-0.035c0-0.004,0-0.008,0-0.012h0.044
			c0.022,0.004,0.042-0.015,0.045-0.033c0.001-0.004,0.001-0.008,0-0.013V23.17l0.046-0.045v-0.041l0.045-0.046
			c-0.003-0.021,0.012-0.043,0.034-0.045c0.004-0.001,0.007-0.001,0.011,0v-0.048l0.045-0.045v-0.094h0.046v-0.043h0.044v-0.049
			l0.047-0.047V22.58h0.045v-0.049l0.044-0.047v-0.045l0.137-0.138V22.26h0.045v-0.095l0.093-0.095h0.045
			c-0.003-0.021,0.013-0.041,0.035-0.045c0.004,0,0.007,0,0.011,0v-0.041l0.093-0.094c0.021,0.002,0.042-0.016,0.045-0.035
			c0-0.002,0-0.006,0-0.011V21.8c-0.003-0.022,0.012-0.043,0.033-0.047c0.004,0,0.008,0,0.012,0
			c0.032-0.028,0.063-0.062,0.092-0.093l0.093-0.045v-0.047l0.045-0.045c-0.003-0.021,0.012-0.043,0.034-0.045
			c0.004-0.002,0.008,0,0.012,0v-0.047c-0.003-0.021,0.012-0.041,0.034-0.046c0.004,0,0.007,0,0.011,0V21.34h0.045v-0.048
			c0.036-0.001,0.069-0.021,0.092-0.044V21.2c0.023,0.004,0.043-0.015,0.046-0.034c0.001-0.004,0.001-0.008,0-0.014h0.044
			l0.045-0.092c-0.003-0.021,0.013-0.043,0.035-0.047c0.004,0,0.007,0,0.011,0l0.045-0.045c-0.003-0.021,0.012-0.041,0.034-0.045
			c0.004,0,0.008,0,0.012,0V20.88c0.022,0.002,0.043-0.014,0.046-0.034c0-0.005,0-0.009,0-0.013l0.044-0.045
			c0.031-0.028,0.063-0.062,0.093-0.095V20.65c0.024-0.026,0.058-0.043,0.093-0.045v-0.045c-0.002-0.021,0.013-0.043,0.036-0.045
			c0.003-0.002,0.007-0.002,0.01,0l0.045-0.049V20.43h0.031v-0.095c0.021,0.002,0.042-0.013,0.045-0.032c0-0.005,0-0.01,0-0.014
			h0.046v-0.044l0.045-0.046h0.045c-0.003-0.021,0.012-0.043,0.033-0.047c0.004,0,0.008,0,0.012,0v-0.045l0.137-0.142v-0.045
			c0.021,0.006,0.042-0.011,0.045-0.03c0-0.002,0-0.01,0-0.015l0.044-0.045c0.023,0.003,0.043-0.017,0.046-0.035
			c0-0.004,0-0.008,0-0.01h0.045l0.093-0.097c0.021,0.004,0.041-0.012,0.044-0.03c0.001-0.004,0.001-0.011,0-0.015V19.6l0.046-0.047
			c0.022,0.004,0.042-0.012,0.045-0.033c0-0.004,0-0.008,0-0.012v-0.047h0.044v-0.046h0.046v-0.046l0.044-0.044
			c-0.003-0.022,0.012-0.044,0.035-0.048c0.003,0,0.007,0,0.011,0l0.046-0.045v-0.047c0.022,0.004,0.042-0.014,0.044-0.035
			c0-0.002,0-0.006,0-0.01c0.022,0.004,0.042-0.015,0.046-0.033c0-0.004,0-0.008,0-0.013V19l0.046-0.046h0.045v-0.095H23v-0.09
			l0.045-0.045c0.022,0,0.042-0.015,0.045-0.037c0-0.002,0-0.006,0-0.01v-0.094l0.044-0.044c0.022,0.003,0.042-0.013,0.046-0.034
			c0-0.005,0-0.009,0-0.012v-0.188c0.023-0.025,0.057-0.043,0.093-0.045v-0.222c0.022,0.003,0.043-0.015,0.046-0.035
			c0-0.004,0-0.007,0-0.01v-0.412H23.27v-0.229c-0.023-0.027-0.057-0.043-0.093-0.045v-0.14h-0.042V17.13l-0.037-0.05v-0.04h-0.045
			l-0.187-0.187c0.003-0.021-0.013-0.042-0.035-0.044c-0.003,0-0.007,0-0.011,0l-0.044-0.046v-0.042H22.74
			c-0.024-0.027-0.057-0.044-0.093-0.046h-0.044c-0.023-0.028-0.057-0.044-0.093-0.045c0.003-0.021-0.012-0.042-0.033-0.045
			c-0.004,0-0.009,0-0.013,0h-0.043c-0.037-0.034-0.087-0.051-0.137-0.047c-0.024-0.026-0.057-0.043-0.093-0.044
			c-0.088-0.03-0.181-0.046-0.274-0.046h-0.042v-0.047h-0.093c-0.042-0.024-0.087-0.04-0.136-0.044h-0.093
			c-0.023-0.028-0.057-0.045-0.093-0.047v-0.045h-0.186c-0.058-0.03-0.121-0.045-0.187-0.045c-0.041-0.025-0.087-0.04-0.136-0.046
			H20.6v-0.186h-0.228v-1.87h-0.501v0.093h-0.318v1.553l0.044,0.045v0.64H19.37v0.138h-3.006v0.914h-0.093v0.274h-0.636v-0.043
			h-0.093v0.043c-0.078,0.004-0.155,0.02-0.228,0.045h-0.955v0.046l-0.045,0.045v0.413h-0.089v0.273l-0.045,0.047v0.137
			c-0.138,0.003-0.275,0.019-0.41,0.046h-1.14v-0.501h-0.046c-0.022-0.002-0.042,0.013-0.045,0.035c0,0.002,0,0.007,0,0.011
			c-0.03,0.03-0.062,0.062-0.093,0.093l-0.045,0.045c-0.022-0.003-0.043,0.016-0.046,0.035c0,0.004,0,0.01,0,0.012h-0.178
			c-0.028,0.021-0.045,0.058-0.047,0.094c-0.061,0-0.093,0.017-0.093,0.045c-0.042,0.023-0.088,0.041-0.137,0.047
			c-0.026,0.021-0.043,0.059-0.045,0.094c-0.022-0.003-0.042,0.016-0.045,0.036c0,0.004,0,0.007,0,0.011h-0.186
			c-0.03,0.029-0.062,0.063-0.093,0.096c-0.021-0.004-0.042,0.012-0.044,0.031c0,0.006,0,0.01,0,0.014
			c-0.024,0.023-0.057,0.041-0.093,0.045v0.095c-0.061,0-0.093,0.015-0.093,0.046c-0.05-0.005-0.099,0.012-0.137,0.045
			c-0.023,0.025-0.057,0.043-0.093,0.045v0.096c-0.05-0.006-0.099,0.013-0.136,0.045L10.89,19.48
			c-0.045,0.012-0.081,0.047-0.093,0.092c-0.022-0.002-0.043,0.012-0.046,0.035c0,0.004,0,0.008,0,0.012
			c-0.045,0.011-0.081,0.047-0.093,0.093h-0.12c-0.026,0.022-0.043,0.058-0.045,0.093l-0.045,0.045
			c-0.042,0.025-0.088,0.041-0.137,0.047c-0.027,0.022-0.042,0.061-0.044,0.097l-0.093,0.045c-0.027,0.021-0.043,0.06-0.045,0.094
			c-0.021-0.005-0.042,0.011-0.045,0.029c-0.001,0.007-0.001,0.011,0,0.015c-0.05-0.004-0.099,0.018-0.136,0.049v0.047
			c-0.023,0.021-0.057,0.043-0.093,0.045c-0.03,0.027-0.06,0.061-0.093,0.094v0.045l-0.093,0.094v0.045L9.53,20.725v0.094H8.263
			v-1.709H8.176l-0.045,0.046C8.073,19.186,8.01,19.2,7.945,19.2v0.139c-0.058,0.029-0.122,0.045-0.186,0.045
			c-0.036,0.003-0.069,0.021-0.093,0.046c0.003,0.021-0.011,0.043-0.033,0.047c-0.004,0-0.008,0-0.012,0
			c-0.038,0.031-0.087,0.049-0.137,0.045c-0.023,0.026-0.057,0.043-0.093,0.045v0.097c-0.042,0.021-0.088,0.039-0.137,0.045
			c-0.062,0-0.093,0.017-0.093,0.045c-0.032,0.031-0.063,0.063-0.093,0.095v0.047H6.975v0.094c0.003,0.021-0.012,0.043-0.034,0.047
			c-0.003,0-0.007,0-0.011,0c-0.05-0.004-0.099,0.013-0.137,0.046L6.748,20.12l-0.093,0.09L6.61,20.256v0.047H6.518
			c-0.027,0.021-0.043,0.057-0.045,0.094v0.045H6.429c-0.023,0.026-0.057,0.043-0.093,0.045c0.003,0.021-0.011,0.041-0.034,0.049
			c-0.003,0-0.008,0-0.012,0c-0.002,0.031-0.018,0.066-0.044,0.094l-0.093,0.094c-0.027,0.023-0.043,0.061-0.046,0.096
			c-0.061,0-0.093,0.014-0.093,0.045L5.968,20.9c-0.071,0.011-0.126,0.063-0.137,0.139l-0.044,0.044l-0.093,0.095v0.045
			l-0.093,0.092c0.003,0.022-0.012,0.043-0.034,0.047c-0.004,0-0.007,0-0.011,0c-0.027,0.022-0.043,0.061-0.045,0.096
			c-0.021-0.002-0.043,0.016-0.046,0.036c0,0.004,0,0.007,0,0.01c-0.027,0.021-0.044,0.062-0.045,0.095
			c-0.036,0.002-0.07,0.02-0.093,0.049v0.045c-0.028,0.021-0.045,0.057-0.045,0.092H5.199v0.094
			c-0.036,0.002-0.069,0.02-0.093,0.045c-0.002,0.036-0.019,0.068-0.046,0.094c-0.022-0.002-0.042,0.012-0.045,0.035
			c0,0.004,0,0.006,0,0.01c0.003,0.021-0.012,0.043-0.033,0.045c-0.004,0.002-0.008,0.002-0.012,0V22.2H4.926
			c-0.038,0.032-0.087,0.052-0.136,0.047v0.046c-0.001,0.035-0.018,0.066-0.045,0.093c0.003,0.021-0.012,0.046-0.035,0.05
			c-0.003,0-0.007,0-0.01,0v0.139c-0.05-0.006-0.098,0.012-0.135,0.047v0.045l-0.093,0.093V22.8c0.004,0.021-0.01,0.041-0.032,0.046
			c-0.004,0-0.009,0-0.013,0c-0.001,0.034-0.019,0.069-0.046,0.094v0.093c-0.059,0-0.092,0.018-0.092,0.046v0.095
			c-0.022-0.002-0.042,0.015-0.045,0.035c0,0.003,0,0.007,0,0.012l-0.045,0.046c-0.027,0.021-0.043,0.059-0.045,0.094l-0.045,0.047
			v0.045c-0.027,0.021-0.043,0.059-0.046,0.094v0.094c0,0.029-0.03,0.045-0.093,0.045v0.137c-0.002,0.037-0.019,0.07-0.045,0.097
			v0.104c-0.036,0-0.07,0.021-0.093,0.045v0.273H3.519c-0.334-0.029-0.652-0.045-0.957-0.045H2.198
			c-0.063,0-0.093-0.018-0.093-0.047v-0.094c-0.027-0.023-0.042-0.06-0.044-0.094c-0.023,0.004-0.043-0.015-0.046-0.033
			c-0.001-0.006-0.001-0.008,0-0.014V23.6c-0.023-0.026-0.057-0.045-0.093-0.047v-0.32l-0.045-0.045v-0.318l-0.093-0.046V22.46
			c0.004-0.021-0.01-0.041-0.031-0.046C1.751,22.41,1.748,22.41,1.745,22.41c-0.002-0.035-0.018-0.067-0.045-0.092V22.09H1.605
			v-0.55c-0.001-0.036-0.018-0.067-0.046-0.095V21.13c-0.002-0.034-0.018-0.067-0.044-0.094c-0.022,0.004-0.042-0.015-0.045-0.034
			c0-0.004,0-0.007,0-0.012v-0.364l-0.053-0.044v-0.047L1.371,20.48v-0.914c0-0.029-0.032-0.045-0.093-0.045v-0.549
			c-0.022,0.004-0.042-0.018-0.044-0.035c0-0.004,0-0.008,0-0.015V18.33c-0.002-0.035-0.019-0.068-0.045-0.094v-0.043L1.143,18.15
			v-0.5c0.002-0.022-0.013-0.043-0.036-0.047c-0.003,0-0.007,0-0.011,0.002v-0.043l-0.045-0.045v-0.831H0.958v-0.731
			c-0.027-0.024-0.044-0.058-0.046-0.093V14.31c-0.026-0.024-0.043-0.058-0.045-0.093l-0.041-0.044v-2.879
			c0.021,0.003,0.042-0.011,0.044-0.033c0.001-0.004,0.001-0.008,0-0.012l0.049-0.047v-0.964c0.002-0.036,0.019-0.069,0.045-0.093
			v-0.73C1,9.414,1.034,9.397,1.057,9.369V9.323c0.456,0,0.911,0.015,1.366,0.046v0.092h0.093v0.044L2.555,9.55v0.687H21.37
			c0.022,0.003,0.043-0.012,0.046-0.035c0-0.004,0-0.007,0-0.011l0.045-0.046h0.046c0.022,0.003,0.042-0.013,0.044-0.035
			c0-0.003,0-0.006,0-0.01v-0.047h0.093v-0.045l0.045-0.093h0.046l0.044-0.093h0.046l0.045-0.045l0.093-0.046V9.688
			c0.035-0.001,0.069-0.018,0.093-0.045l0.046-0.045h0.045V9.552C22.144,9.53,22.159,9.51,22.18,9.507c0.004,0,0.008,0,0.012,0
			h0.045V9.46l0.093-0.093c0.031-0.031,0.062-0.063,0.093-0.093c0.022,0.003,0.042-0.013,0.045-0.035c0-0.003,0-0.008,0-0.011
			l0.093-0.093c0.019-0.003,0.033-0.021,0.032-0.041h0.046c-0.003-0.021,0.011-0.043,0.033-0.046c0.005-0.001,0.01-0.001,0.015,0
			V9.002l0.093-0.045c-0.005-0.021,0.008-0.043,0.03-0.047c0.004-0.001,0.009-0.001,0.013-0.001h0.049l0.231-0.23V8.637h0.044
			l0.045-0.045h0.042c-0.003-0.022,0.013-0.043,0.035-0.046c0.003,0,0.006,0,0.01,0V8.5c0.023-0.027,0.057-0.044,0.093-0.046
			c0.023-0.027,0.057-0.044,0.093-0.045c0.036-0.002,0.07-0.018,0.093-0.044l0.093-0.093h0.136V7.858
			c0.036-0.002,0.069-0.018,0.093-0.044V7.678h0.629v0.093h6.65V7.357c0.003-0.022-0.012-0.042-0.034-0.045
			c-0.003,0-0.007,0-0.011,0V7.265L31.077,7.22V6.535h-0.319v0.458c-0.021-0.003-0.042,0.012-0.045,0.033c0,0.004,0,0.007,0,0.011
			h-0.637V6.851l-0.045-0.045V6.535h-1.822v0.411h-0.045v0.093h-0.633V6.717h-0.093V2.738h0.093V2.552l0.045-0.045V2.462l0,0H27.569
			z M43.378,16.228l0.044-0.046h-0.044V16.228z M34.353,17.051h-2.868v0.045l-0.045,0.093h-0.045v0.137
			c-0.022-0.003-0.042,0.013-0.045,0.034c0,0.004,0,0.007,0,0.011v0.186l-0.045,0.047v0.137h-0.046v0.188
			c0.004,0.021-0.011,0.043-0.033,0.045c-0.003,0.002-0.007,0.002-0.012,0v0.688h0.044v0.094l0.046,0.045v0.096h0.045v0.188h0.045
			v0.598h2.597V19.4h0.05V19.34c0.022,0.002,0.042-0.016,0.044-0.037c0-0.003,0-0.007,0-0.01h0.045l0.093-0.094h0.045v-0.045
			l0.093-0.043c-0.003-0.023,0.014-0.045,0.037-0.047c0.003-0.002,0.006-0.002,0.01,0l0.093-0.098h0.125l0.045-0.045
			c-0.003-0.021,0.013-0.043,0.034-0.045c0.004-0.001,0.007-0.001,0.011,0l0.093-0.093c0.023,0.003,0.043-0.015,0.046-0.036
			c0.001-0.003,0.001-0.006,0-0.014c0.036-0.002,0.07-0.018,0.093-0.045V18.65h0.093v-0.047c0.021,0.004,0.042-0.015,0.045-0.033
			c0.001-0.004,0.001-0.008,0-0.012h0.093v-0.826l-0.046-0.045c0.003-0.022-0.013-0.043-0.034-0.045c-0.004,0-0.007,0-0.01,0
			c0.003-0.022-0.012-0.043-0.034-0.045c-0.004,0-0.008,0-0.012,0l-0.092-0.045c-0.036-0.002-0.07-0.02-0.093-0.046v-0.046
			c-0.022,0.002-0.043-0.013-0.046-0.035c0-0.004,0-0.007,0-0.011h-0.049c-0.023-0.027-0.057-0.044-0.093-0.046v-0.09
			c-0.036-0.002-0.07-0.019-0.093-0.046c-0.021,0.003-0.042-0.011-0.044-0.032c0-0.004,0-0.008,0-0.013l-0.044-0.045h-0.042
			l-0.044-0.049c0.002-0.021-0.014-0.042-0.037-0.045c-0.003,0-0.007,0-0.011,0L34.353,17.051L34.353,17.051z M29.569,17.738
			c-0.021,0.002-0.042-0.014-0.045-0.035c0-0.004,0-0.008,0-0.012c-0.021,0.002-0.042-0.012-0.045-0.033c0-0.004,0-0.008,0-0.014
			V17.6h-0.315v1.371l0.044,0.047c0.022-0.006,0.043,0.01,0.046,0.031c0.001,0.004,0.001,0.01,0,0.014h0.041v0.093h0.045V19.2
			l0.048,0.046v0.046h0.093v0.046l0.093,0.044h0.046v0.046c0.023,0.027,0.057,0.045,0.093,0.047h0.045v0.043h0.04l0.093,0.045v0.097
			h0.638v-0.097h-0.093v-0.092c-0.021,0.002-0.041-0.013-0.045-0.033c0-0.004,0-0.01,0-0.014v-0.04h-0.046v-0.045
			c-0.022,0.002-0.042-0.015-0.045-0.036c0-0.004,0-0.008,0-0.011h-0.047v-0.095l-0.044-0.045v-0.092
			c-0.036-0.002-0.069-0.021-0.093-0.047V18.88h-0.043v-0.137l-0.046-0.048v-0.094l-0.093-0.096v-0.042h-0.047V18.42
			c-0.029-0.032-0.061-0.063-0.092-0.093v-0.094l-0.045-0.045v-0.045h-0.04v-0.094l-0.046-0.046v-0.092H29.62v-0.04
			c-0.022,0.003-0.042-0.012-0.045-0.033c0-0.005,0-0.009,0-0.013v-0.093l0,0L29.569,17.738z"/>
	</defs>
	<clipPath id="SVGID_2_">
		<use xlink:href="#SVGID_1_"  overflow="visible"/>
	</clipPath>
	<g clip-path="url(#SVGID_2_)">
		<g opacity="0.7">
			
				<linearGradient id="SVGID_3_" gradientUnits="userSpaceOnUse" x1="-538.5737" y1="175.0684" x2="-518.9717" y2="175.0684" gradientTransform="matrix(1 0 0 1 561.3799 -165.6211)">
				<stop  offset="0" style="stop-color:#CA4EE5;stop-opacity:0"/>
				<stop  offset="0.4624" style="stop-color:#F6EBE6"/>
			</linearGradient>
			<polygon fill="url(#SVGID_3_)" points="23.072,19.082 22.806,18.816 27.412,14.208 27.412,12.789 29.418,10.781 31.175,10.781 
				42.143,-0.188 42.408,0.078 31.33,11.159 29.576,11.159 27.789,12.943 27.789,14.366 			"/>
		</g>
		<g opacity="0.7">
			
				<linearGradient id="SVGID_4_" gradientUnits="userSpaceOnUse" x1="-501.458" y1="175.1914" x2="-491.2666" y2="175.1914" gradientTransform="matrix(1 0 0 1 561.3799 -165.6211)">
				<stop  offset="0" style="stop-color:#CA4EE5;stop-opacity:0"/>
				<stop  offset="0.5753" style="stop-color:#F6EBE6"/>
			</linearGradient>
			<polygon fill="url(#SVGID_4_)" points="60.059,14.58 59.922,14.44 62.316,12.045 62.316,11.308 63.359,10.263 64.271,10.263 
				69.975,4.561 70.113,4.699 64.354,10.459 63.439,10.459 62.512,11.387 62.512,12.126 			"/>
		</g>
		<g>
			
				<linearGradient id="SVGID_5_" gradientUnits="userSpaceOnUse" x1="-526.1826" y1="177.5625" x2="-503.5752" y2="177.5625" gradientTransform="matrix(1 0 0 1 561.3799 -165.6211)">
				<stop  offset="0" style="stop-color:#CA4EE5;stop-opacity:0"/>
				<stop  offset="1" style="stop-color:#F6EBE6"/>
			</linearGradient>
			<polygon fill="url(#SVGID_5_)" points="35.502,23.053 35.197,22.746 40.51,17.432 40.51,15.795 42.824,13.482 44.847,13.482 
				57.496,0.829 57.805,1.138 45.029,13.914 43.005,13.914 40.944,15.975 40.944,17.614 			"/>
		</g>
		<g opacity="0.7">
			
				<linearGradient id="SVGID_6_" gradientUnits="userSpaceOnUse" x1="-538.9756" y1="176.4541" x2="-527.7109" y2="176.4541" gradientTransform="matrix(1 0 0 1 561.3799 -165.6211)">
				<stop  offset="0" style="stop-color:#CA4EE5;stop-opacity:0"/>
				<stop  offset="0.5591" style="stop-color:#F6EBE6"/>
			</linearGradient>
			<polygon fill="url(#SVGID_6_)" points="22.53,16.387 22.404,16.26 26.554,12.111 26.554,11.437 27.506,10.485 28.338,10.485 
				33.543,5.28 33.669,5.406 28.412,10.663 27.579,10.663 26.732,11.511 26.732,12.185 			"/>
		</g>
		<g>
			
				<linearGradient id="SVGID_7_" gradientUnits="userSpaceOnUse" x1="-560.6406" y1="180.0557" x2="-549.3755" y2="180.0557" gradientTransform="matrix(1 0 0 1 561.3799 -165.6211)">
				<stop  offset="0" style="stop-color:#CA4EE5;stop-opacity:0"/>
				<stop  offset="1" style="stop-color:#F6EBE6"/>
			</linearGradient>
			<polygon fill="url(#SVGID_7_)" points="0.865,19.988 0.739,19.861 4.888,15.712 4.888,15.039 5.841,14.086 6.673,14.086 
				11.878,8.881 12.004,9.007 6.747,14.265 5.914,14.265 5.067,15.113 5.067,15.787 			"/>
		</g>
		
			<linearGradient id="SVGID_8_" gradientUnits="userSpaceOnUse" x1="-547.5654" y1="176.3506" x2="-560.9643" y2="189.7494" gradientTransform="matrix(1 0 0 1 561.3799 -165.6211)">
			<stop  offset="0" style="stop-color:#CA4EE5;stop-opacity:0"/>
			<stop  offset="1" style="stop-color:#F6EBE6"/>
		</linearGradient>
		<polygon fill="url(#SVGID_8_)" points="12.879,9.624 -0.819,23.322 3.261,23.322 16.945,9.639 		"/>
		
			<linearGradient id="SVGID_9_" gradientUnits="userSpaceOnUse" x1="-543.3711" y1="176.3506" x2="-558.0402" y2="191.0197" gradientTransform="matrix(1 0 0 1 561.3799 -165.6211)">
			<stop  offset="0" style="stop-color:#CA4EE5;stop-opacity:0"/>
			<stop  offset="1" style="stop-color:#F6EBE6"/>
		</linearGradient>
		<polygon fill="url(#SVGID_9_)" points="15.036,10.17 1.338,23.867 8.4,23.867 22.084,10.185 		"/>
		
			<linearGradient id="SVGID_10_" gradientUnits="userSpaceOnUse" x1="-519.9336" y1="174.7334" x2="-541.2748" y2="196.0747" gradientTransform="matrix(1 0 0 1 561.3799 -165.6211)">
			<stop  offset="0" style="stop-color:#CA4EE5;stop-opacity:0"/>
			<stop  offset="0.7742" style="stop-color:#F6EBE6"/>
		</linearGradient>
		<polygon opacity="0.7" fill="url(#SVGID_10_)" enable-background="new    " points="37.122,8.298 17.194,28.225 27.469,28.225 
			47.377,8.319 		"/>
		
			<linearGradient id="SVGID_11_" gradientUnits="userSpaceOnUse" x1="-515.7432" y1="178.4502" x2="-523.9135" y2="186.6205" gradientTransform="matrix(1 0 0 1 561.3799 -165.6211)">
			<stop  offset="0" style="stop-color:#CA4EE5;stop-opacity:0"/>
			<stop  offset="0.672" style="stop-color:#F6EBE6"/>
		</linearGradient>
		<polygon opacity="0.7" fill="url(#SVGID_11_)" enable-background="new    " points="43.982,12.517 36.352,20.146 40.285,20.146 
			47.908,12.525 		"/>
		
			<linearGradient id="SVGID_12_" gradientUnits="userSpaceOnUse" x1="-505.3877" y1="173.7607" x2="-513.5592" y2="181.9324" gradientTransform="matrix(1 0 0 1 561.3799 -165.6211)">
			<stop  offset="0" style="stop-color:#CA4EE5;stop-opacity:0"/>
			<stop  offset="0.7688" style="stop-color:#F6B8FF"/>
		</linearGradient>
		<polygon fill="url(#SVGID_12_)" points="54.336,7.829 46.705,15.459 50.641,15.459 58.262,7.837 		"/>
		
			<linearGradient id="SVGID_13_" gradientUnits="userSpaceOnUse" x1="-520.6992" y1="177.3848" x2="-528.8701" y2="185.5558" gradientTransform="matrix(1 0 0 1 561.3799 -165.6211)">
			<stop  offset="0" style="stop-color:#CA4EE5;stop-opacity:0"/>
			<stop  offset="1" style="stop-color:#F6B8FF"/>
		</linearGradient>
		<polygon fill="url(#SVGID_13_)" points="39.024,11.452 31.394,19.082 35.327,19.082 42.95,11.46 		"/>
		<g>
			
				<linearGradient id="SVGID_14_" gradientUnits="userSpaceOnUse" x1="-539.2329" y1="185.457" x2="-529.4775" y2="185.457" gradientTransform="matrix(1 0 0 1 561.3799 -165.6211)">
				<stop  offset="0" style="stop-color:#CA4EE5;stop-opacity:0"/>
				<stop  offset="1" style="stop-color:#F6EBE6"/>
			</linearGradient>
			<polygon fill="url(#SVGID_14_)" points="22.362,24.713 22.147,24.5 31.687,14.958 31.902,15.173 			"/>
		</g>
	</g>
</g>
</svg>
