<?xml version="1.0" encoding="utf-8"?>
<!-- Generator: Adobe Illustrator 16.0.0, SVG Export Plug-In . SVG Version: 6.00 Build 0)  -->
<!DOCTYPE svg PUBLIC "-//W3C//DTD SVG 1.1//EN" "http://www.w3.org/Graphics/SVG/1.1/DTD/svg11.dtd">
<svg version="1.1" id="case1" xmlns="http://www.w3.org/2000/svg" xmlns:xlink="http://www.w3.org/1999/xlink" x="0px" y="0px"
	 width="18.25px" height="36px" viewBox="0 0 18.25 36" enable-background="new 0 0 18.25 36" xml:space="preserve">
<linearGradient id="shape1_1_" gradientUnits="userSpaceOnUse" x1="317.9404" y1="-1082.4883" x2="332.9395" y2="-1082.4883" gradientTransform="matrix(1 0 0 -1 -315.9404 -1065.165)">
	<stop  offset="0" style="stop-color:#CA4EE5"/>
	<stop  offset="0.3011" style="stop-color:#570090"/>
	<stop  offset="0.7419" style="stop-color:#893BDC"/>
	<stop  offset="1" style="stop-color:#CA4EE5"/>
</linearGradient>
<path id="shape1" fill="url(#shape1_1_)" d="M13.798,25.43v0.289h-0.004v1.547c-1.771,0.375-3.571,0.604-5.38,0.678
	c-1.954-0.101-3.897-0.342-5.816-0.725V25.43c1.895,0.307,3.806,0.5,5.724,0.58C10.158,25.932,11.986,25.736,13.798,25.43
	 M12.327,0.819c-0.022,0.005-0.037,0.025-0.034,0.048h-0.145v0.149c-0.297,0.296-0.543,0.64-0.729,1.016v-0.2l-0.24-0.094H5.46
	C5.24,1.767,5.053,1.915,4.975,2.124C4.876,2.269,4.81,2.434,4.782,2.608c-0.067,0.137-0.067,0.297,0,0.434H4.681v0.049H4.633v0.682
	h0.678c0.177,0.03,0.355,0.045,0.534,0.046h0.054v2.127l-0.15,0.193C5.704,6.223,5.653,6.304,5.598,6.382
	c-0.032,0.224-0.032,0.453,0,0.677C5.439,7.064,5.279,7.079,5.12,7.103c-0.278,0.03-0.553,0.078-0.824,0.145
	C3.81,7.282,3.437,7.315,3.18,7.348c-0.215,0.02-0.427,0.069-0.629,0.145v0.043C2.452,7.537,2.354,7.553,2.259,7.584
	C2.231,7.61,2.213,7.646,2.212,7.683C2.075,7.823,2.002,8.007,2,8.195v0.013c0.001,0.102,0.023,0.204,0.067,0.3V32.16l0.145,0.048
	c0.094,0.093,0.211,0.16,0.339,0.194c0.219,0.125,0.445,0.236,0.678,0.336c0.78,0.391,1.612,0.666,2.471,0.82
	c0.483,0.098,1.035,0.178,1.648,0.238c0.663,0.063,1.332,0.029,1.985-0.1c0.792-0.074,1.573-0.236,2.328-0.48
	c0.761-0.191,1.495-0.484,2.18-0.867h0.05c0.055-0.063,0.119-0.106,0.192-0.146l0.194-0.049V8.555h0.049
	c-0.001,0.005-0.001,0.009,0,0.013c0.002,0.023,0.023,0.039,0.046,0.036v0.047l0.147,0.194h0.049v0.048l0.047,0.045
	c0,0.003,0,0.006,0,0.009c0.003,0.024,0.025,0.042,0.049,0.04v0.1c-0.001,0.003-0.001,0.006,0,0.009
	c0.002,0.024,0.023,0.042,0.048,0.04v0.048h0.046v0.049c0.039,0.001,0.076,0.018,0.1,0.048v0.047h0.05v0.045l0.049,0.048
	c0,0.003,0,0.007,0,0.009c0.002,0.025,0.024,0.043,0.047,0.04v0.1h0.052v0.047l0.145,0.101v0.044c0.001,0,0.002,0,0.004,0
	c0.023,0.001,0.041,0.022,0.04,0.046l0.048,0.1v0.049h0.048v0.047c0.003-0.001,0.009-0.001,0.013,0
	c0.024,0.002,0.041,0.025,0.037,0.049c0,0.004,0,0.007,0.002,0.011c0.002,0.022,0.024,0.039,0.047,0.035v0.1h0.049v0.044
	c0.006-0.001,0.009-0.001,0.013,0c0.024,0.003,0.041,0.024,0.038,0.048v0.1c0.003,0,0.008,0,0.012,0
	c0.024,0.003,0.04,0.026,0.036,0.049h0.048l0.051,0.048v0.046h0.047v0.1h0.049v0.044l0.05,0.049v0.1l0.047,0.049v0.046l0.05,0.049
	v0.047h0.047v0.027l0.047,0.048v0.048l0.049,0.049h0.101v17.916h-0.051v0.051h-0.044v0.043h-0.047c0,0.004,0,0.007,0,0.009
	c-0.004,0.022-0.025,0.044-0.049,0.041l-0.101,0.103v0.771h0.677V30.02h0.047v-0.043l0.057-0.041v-0.047h0.1l0.049-0.102
	c0-0.003,0-0.008,0-0.012c0.004-0.023,0.025-0.039,0.049-0.035v-0.047h0.144V10.957c-0.039,0-0.076-0.018-0.101-0.048v-0.338
	l-0.137-0.19v-0.048h-0.051v-0.049c-0.003,0.001-0.008,0.001-0.011,0.001c-0.024-0.003-0.041-0.025-0.037-0.048l-0.101-0.1v-0.049
	h-0.049v-0.047l-0.047-0.048c0-0.004,0-0.008,0-0.012c-0.005-0.023-0.025-0.039-0.05-0.034v-0.1h-0.049V9.798l-0.036-0.047V9.704
	l-0.053-0.049c0-0.004,0-0.008,0-0.012c-0.004-0.023-0.024-0.038-0.047-0.034v-0.1l-0.047-0.046V8.835l-0.201-0.194V8.596
	c-0.004,0-0.008,0-0.01,0c-0.024-0.003-0.041-0.024-0.039-0.049h-0.047V8.448h-0.05v-0.04l-0.048-0.05V8.259l-0.1-0.1v-0.14
	l-0.051-0.054V7.918c-0.004,0-0.01,0-0.013,0c-0.024-0.004-0.039-0.025-0.035-0.048V7.819l-0.045-0.046v-0.14h-0.05v-0.1
	l-0.051-0.048V7.437l-0.049-0.049V7.34h-0.056V7.302l-0.047-0.048v-0.1c-0.004,0-0.008,0-0.011,0
	c-0.023-0.003-0.042-0.025-0.039-0.049v-0.1c0.001-0.005,0.001-0.009,0-0.014c-0.003-0.021-0.025-0.036-0.047-0.032v-0.1
	L15.152,6.81V6.768l-0.047-0.049v-0.1h-0.051V6.477h-0.048v-0.1l-0.049-0.049V6.134l-0.049-0.048V6.037l-0.05-0.048V5.942
	l-0.049-0.05v-0.04h-0.047v-0.1c0-0.004,0-0.007,0-0.011c-0.005-0.024-0.025-0.041-0.051-0.038v-0.1
	c0.001-0.004,0.001-0.008,0-0.011c-0.002-0.023-0.023-0.042-0.048-0.038V5.417c-0.004,0-0.007,0-0.011,0
	c-0.023-0.003-0.041-0.025-0.038-0.048v-0.1h-0.048v-0.1L14.52,5.118v-0.05l-0.049-0.049V4.98l-0.049-0.048v-0.1l-0.051-0.049V4.542
	l-0.046-0.049c0-0.003,0-0.005,0-0.008c-0.003-0.025-0.025-0.043-0.05-0.041V4.395l-0.094-0.1v-0.05l-0.048-0.046V4.15l-0.05-0.05
	V3.96l-0.048-0.048v-0.1l-0.05-0.046V3.719l-0.047-0.05v-0.05h-0.045V3.476h-0.047V3.427c-0.005,0-0.009,0-0.012,0
	c-0.023-0.003-0.041-0.025-0.038-0.048V3.235l-0.051-0.049V3.138c0-0.004,0-0.009,0-0.013c-0.004-0.023-0.024-0.039-0.049-0.035
	V3.041l-0.05-0.045v-0.1h-0.051V2.849l-0.046-0.047v-0.1l-0.047-0.048V2.513c0-0.004,0-0.006-0.001-0.01
	c-0.003-0.023-0.023-0.04-0.049-0.036v-0.1h-0.047v-0.1h-0.049V2.121c0-0.002,0-0.006,0-0.009c-0.004-0.025-0.026-0.042-0.051-0.038
	V2.033H13.26v-0.1c-0.005,0-0.009,0-0.014,0c-0.021-0.004-0.038-0.025-0.035-0.048v-0.1l-0.047-0.048h-0.001V1.59l-0.05-0.047V1.495
	h-0.242V1.448L12.822,1.4V0.867h-0.484V0.819c-0.001,0-0.004,0-0.006,0S12.328,0.819,12.327,0.819"/>
<g>
	<defs>
		<path id="SVGID_1_" d="M13.798,25.43v0.289h-0.004v1.547c-1.771,0.375-3.571,0.604-5.38,0.678
			c-1.954-0.101-3.897-0.342-5.816-0.725V25.43c1.895,0.307,3.806,0.5,5.724,0.58C10.158,25.932,11.986,25.736,13.798,25.43
			 M12.327,0.819c-0.022,0.005-0.037,0.025-0.034,0.048h-0.145v0.149c-0.297,0.296-0.543,0.64-0.729,1.016v-0.2L11.18,1.738H5.459
			c-0.22,0.029-0.407,0.177-0.485,0.386c-0.099,0.145-0.165,0.31-0.193,0.484c-0.067,0.137-0.067,0.297,0,0.434H4.68v0.049H4.632
			v0.682H5.31c0.177,0.03,0.355,0.045,0.534,0.046h0.054v2.127l-0.15,0.193C5.703,6.223,5.652,6.304,5.597,6.382
			c-0.032,0.224-0.032,0.453,0,0.677c-0.159,0.005-0.319,0.02-0.478,0.044c-0.278,0.03-0.553,0.078-0.824,0.145
			c-0.486,0.034-0.859,0.067-1.116,0.1C2.964,7.368,2.752,7.417,2.55,7.493v0.043C2.451,7.537,2.353,7.553,2.258,7.584
			C2.23,7.61,2.212,7.646,2.211,7.683c-0.137,0.14-0.21,0.324-0.212,0.512v0.013C2,8.31,2.022,8.412,2.066,8.508V32.16l0.145,0.048
			c0.094,0.093,0.211,0.16,0.339,0.194c0.219,0.125,0.445,0.236,0.678,0.336c0.78,0.391,1.612,0.666,2.471,0.82
			c0.483,0.098,1.035,0.178,1.648,0.238c0.663,0.063,1.332,0.029,1.985-0.1c0.792-0.074,1.572-0.236,2.328-0.48
			c0.761-0.191,1.494-0.484,2.18-0.867h0.051c0.055-0.063,0.118-0.106,0.191-0.146l0.193-0.049V8.555h0.05
			c-0.001,0.005-0.001,0.009,0,0.013c0.002,0.023,0.022,0.039,0.046,0.036v0.047l0.146,0.194h0.049v0.048l0.047,0.045
			c0,0.003,0,0.006,0,0.009c0.004,0.024,0.025,0.042,0.05,0.04v0.1c-0.001,0.003-0.001,0.006,0,0.009
			c0.002,0.024,0.022,0.042,0.048,0.04v0.048h0.046v0.049c0.039,0.001,0.076,0.018,0.101,0.048v0.047h0.05v0.045l0.049,0.048
			c0,0.003,0,0.007,0,0.009c0.002,0.025,0.024,0.043,0.047,0.04v0.1h0.052v0.047L15.2,9.718v0.044c0.001,0,0.002,0,0.004,0
			c0.022,0.001,0.041,0.022,0.04,0.046l0.048,0.1v0.049h0.048v0.047c0.003-0.001,0.01-0.001,0.014,0
			c0.023,0.002,0.041,0.025,0.037,0.049c0,0.004,0,0.007,0.002,0.011c0.002,0.022,0.023,0.039,0.047,0.035v0.1h0.049v0.044
			c0.006-0.001,0.009-0.001,0.013,0c0.024,0.003,0.041,0.024,0.038,0.048v0.1c0.003,0,0.008,0,0.012,0
			c0.024,0.003,0.04,0.026,0.036,0.049h0.048l0.051,0.048v0.046h0.047v0.1h0.05v0.044l0.05,0.049v0.1l0.047,0.049v0.046l0.051,0.049
			v0.047h0.047v0.027l0.047,0.048v0.048l0.049,0.049h0.101v17.916h-0.051v0.051h-0.044v0.043h-0.047c0,0.004,0,0.007,0,0.009
			c-0.004,0.022-0.025,0.044-0.049,0.041l-0.102,0.103v0.771h0.678V30.02h0.047v-0.043l0.057-0.041v-0.047h0.1l0.049-0.102
			c0-0.003,0-0.008,0-0.012c0.004-0.023,0.025-0.039,0.049-0.035v-0.047h0.145V10.957c-0.039,0-0.076-0.018-0.102-0.048v-0.338
			l-0.137-0.19v-0.048h-0.051v-0.049c-0.003,0.001-0.008,0.001-0.011,0.001c-0.024-0.003-0.041-0.025-0.037-0.048l-0.101-0.1v-0.049
			h-0.049v-0.047l-0.047-0.048c0-0.004,0-0.008,0-0.012c-0.006-0.023-0.025-0.039-0.051-0.034v-0.1h-0.049V9.798l-0.036-0.047V9.704
			l-0.053-0.049c0-0.004,0-0.008,0-0.012c-0.005-0.023-0.024-0.038-0.048-0.034v-0.1l-0.047-0.046V8.835l-0.201-0.194V8.596
			c-0.004,0-0.008,0-0.01,0c-0.023-0.003-0.041-0.024-0.039-0.049h-0.047V8.448h-0.05v-0.04l-0.048-0.05V8.259l-0.1-0.1v-0.14
			l-0.051-0.054V7.918c-0.006,0-0.011,0-0.014,0c-0.023-0.004-0.039-0.025-0.035-0.048V7.819l-0.045-0.046v-0.14h-0.05v-0.1
			l-0.051-0.048V7.437l-0.05-0.049V7.34h-0.056V7.302l-0.047-0.048v-0.1c-0.004,0-0.008,0-0.011,0
			c-0.023-0.003-0.042-0.025-0.039-0.049v-0.1c0.001-0.005,0.001-0.009,0-0.014c-0.003-0.021-0.025-0.036-0.047-0.032v-0.1
			L15.152,6.81V6.768l-0.047-0.049v-0.1h-0.051V6.477h-0.049v-0.1l-0.049-0.049V6.134l-0.049-0.048V6.037l-0.051-0.048V5.942
			l-0.049-0.05v-0.04h-0.047v-0.1c0-0.004,0-0.007,0-0.011c-0.005-0.024-0.025-0.041-0.051-0.038v-0.1
			c0.001-0.004,0.001-0.008,0-0.011c-0.002-0.023-0.023-0.042-0.048-0.038V5.417c-0.004,0-0.007,0-0.011,0
			c-0.023-0.003-0.041-0.025-0.039-0.048v-0.1h-0.047v-0.1L14.52,5.118v-0.05l-0.049-0.049V4.98l-0.049-0.048v-0.1l-0.051-0.049
			V4.542l-0.046-0.049c0-0.003,0-0.005,0-0.008c-0.003-0.025-0.025-0.043-0.05-0.041V4.395l-0.094-0.1v-0.05l-0.049-0.046V4.15
			l-0.05-0.05V3.96l-0.048-0.048v-0.1l-0.051-0.046V3.719l-0.047-0.05v-0.05h-0.045V3.476h-0.047V3.427c-0.005,0-0.009,0-0.012,0
			c-0.023-0.003-0.041-0.025-0.038-0.048V3.235l-0.051-0.049V3.138c0-0.004,0-0.009,0-0.013c-0.004-0.023-0.024-0.039-0.05-0.035
			V3.041l-0.049-0.045v-0.1h-0.051V2.849l-0.047-0.047v-0.1l-0.047-0.048V2.513c0-0.004,0-0.006-0.001-0.01
			c-0.003-0.023-0.022-0.04-0.049-0.036v-0.1h-0.048v-0.1h-0.049V2.121c0-0.002,0-0.006,0-0.009
			c-0.004-0.025-0.025-0.042-0.051-0.038V2.033H13.26v-0.1c-0.005,0-0.009,0-0.014,0c-0.021-0.004-0.038-0.025-0.035-0.048v-0.1
			l-0.047-0.048h-0.001V1.59l-0.05-0.047V1.495h-0.242V1.448L12.822,1.4V0.867h-0.484V0.819c-0.001,0-0.004,0-0.006,0
			S12.328,0.819,12.327,0.819"/>
	</defs>
	<clipPath id="SVGID_2_">
		<use xlink:href="#SVGID_1_"  overflow="visible"/>
	</clipPath>
	<g clip-path="url(#SVGID_2_)">
		<g opacity="0.7">
			
				<linearGradient id="SVGID_3_" gradientUnits="userSpaceOnUse" x1="-559.876" y1="180.6699" x2="-540.2744" y2="180.6699" gradientTransform="matrix(1 0 0 1 561.3799 -165.6211)">
				<stop  offset="0" style="stop-color:#CA4EE5;stop-opacity:0"/>
				<stop  offset="0.4624" style="stop-color:#F6EBE6"/>
			</linearGradient>
			<polygon fill="url(#SVGID_3_)" points="1.77,24.684 1.504,24.418 6.11,19.811 6.11,18.391 8.116,16.383 9.873,16.383 
				20.841,5.414 21.105,5.68 10.027,16.761 8.274,16.761 6.487,18.545 6.487,19.969 			"/>
		</g>
		<g opacity="0.7">
			
				<linearGradient id="SVGID_4_" gradientUnits="userSpaceOnUse" x1="-522.7607" y1="180.793" x2="-512.5684" y2="180.793" gradientTransform="matrix(1 0 0 1 561.3799 -165.6211)">
				<stop  offset="0" style="stop-color:#CA4EE5;stop-opacity:0"/>
				<stop  offset="0.5753" style="stop-color:#F6EBE6"/>
			</linearGradient>
			<polygon fill="url(#SVGID_4_)" points="38.757,20.182 38.619,20.042 41.015,17.647 41.015,16.91 42.058,15.865 42.97,15.865 
				48.673,10.163 48.812,10.301 43.052,16.061 42.138,16.061 41.21,16.989 41.21,17.728 			"/>
		</g>
		<g>
			
				<linearGradient id="SVGID_5_" gradientUnits="userSpaceOnUse" x1="-547.4854" y1="183.1641" x2="-524.877" y2="183.1641" gradientTransform="matrix(1 0 0 1 561.3799 -165.6211)">
				<stop  offset="0" style="stop-color:#CA4EE5;stop-opacity:0"/>
				<stop  offset="1" style="stop-color:#F6EBE6"/>
			</linearGradient>
			<polygon fill="url(#SVGID_5_)" points="14.199,28.655 13.895,28.349 19.208,23.034 19.208,21.396 21.521,19.084 23.545,19.084 
				36.194,6.431 36.503,6.74 23.727,19.516 21.703,19.516 19.643,21.577 19.643,23.216 			"/>
		</g>
		<g opacity="0.7">
			
				<linearGradient id="SVGID_6_" gradientUnits="userSpaceOnUse" x1="-560.2778" y1="182.0566" x2="-549.0127" y2="182.0566" gradientTransform="matrix(1 0 0 1 561.3799 -165.6211)">
				<stop  offset="0" style="stop-color:#CA4EE5;stop-opacity:0"/>
				<stop  offset="0.5591" style="stop-color:#F6EBE6"/>
			</linearGradient>
			<polygon fill="url(#SVGID_6_)" points="1.228,21.989 1.102,21.862 5.252,17.713 5.252,17.039 6.204,16.087 7.036,16.087 
				12.24,10.882 12.367,11.008 7.11,16.265 6.277,16.265 5.43,17.113 5.43,17.787 			"/>
		</g>
		<g>
			
				<linearGradient id="SVGID_7_" gradientUnits="userSpaceOnUse" x1="-581.9429" y1="185.6582" x2="-570.6777" y2="185.6582" gradientTransform="matrix(1 0 0 1 561.3799 -165.6211)">
				<stop  offset="0" style="stop-color:#CA4EE5;stop-opacity:0"/>
				<stop  offset="1" style="stop-color:#F6EBE6"/>
			</linearGradient>
			<polygon fill="url(#SVGID_7_)" points="-20.437,25.591 -20.563,25.464 -16.414,21.314 -16.414,20.641 -15.461,19.688 
				-14.629,19.688 -9.424,14.483 -9.298,14.609 -14.555,19.867 -15.388,19.867 -16.235,20.715 -16.235,21.389 			"/>
		</g>
		
			<linearGradient id="SVGID_8_" gradientUnits="userSpaceOnUse" x1="-568.8677" y1="181.9521" x2="-582.2667" y2="195.3512" gradientTransform="matrix(1 0 0 1 561.3799 -165.6211)">
			<stop  offset="0" style="stop-color:#CA4EE5;stop-opacity:0"/>
			<stop  offset="1" style="stop-color:#F6EBE6"/>
		</linearGradient>
		<polygon fill="url(#SVGID_8_)" points="-8.423,15.226 -22.121,28.925 -18.041,28.925 -4.357,15.241 		"/>
		
			<linearGradient id="SVGID_9_" gradientUnits="userSpaceOnUse" x1="-564.6738" y1="181.9531" x2="-579.3431" y2="196.6225" gradientTransform="matrix(1 0 0 1 561.3799 -165.6211)">
			<stop  offset="0" style="stop-color:#CA4EE5;stop-opacity:0"/>
			<stop  offset="1" style="stop-color:#F6EBE6"/>
		</linearGradient>
		<polygon fill="url(#SVGID_9_)" points="-6.266,15.772 -19.964,29.47 -12.902,29.47 0.782,15.787 		"/>
		
			<linearGradient id="SVGID_10_" gradientUnits="userSpaceOnUse" x1="-541.2354" y1="180.3359" x2="-562.577" y2="201.6777" gradientTransform="matrix(1 0 0 1 561.3799 -165.6211)">
			<stop  offset="0" style="stop-color:#CA4EE5;stop-opacity:0"/>
			<stop  offset="0.7742" style="stop-color:#F6EBE6"/>
		</linearGradient>
		<polygon opacity="0.7" fill="url(#SVGID_10_)" enable-background="new    " points="15.82,13.9 -4.108,33.827 6.167,33.827 
			26.075,13.921 		"/>
		
			<linearGradient id="SVGID_11_" gradientUnits="userSpaceOnUse" x1="-537.0439" y1="184.0527" x2="-545.2147" y2="192.2234" gradientTransform="matrix(1 0 0 1 561.3799 -165.6211)">
			<stop  offset="0" style="stop-color:#CA4EE5;stop-opacity:0"/>
			<stop  offset="0.672" style="stop-color:#F6EBE6"/>
		</linearGradient>
		<polygon opacity="0.7" fill="url(#SVGID_11_)" enable-background="new    " points="22.68,18.119 15.05,25.749 18.982,25.749 
			26.606,18.127 		"/>
		
			<linearGradient id="SVGID_12_" gradientUnits="userSpaceOnUse" x1="-526.6899" y1="179.3623" x2="-534.8613" y2="187.5337" gradientTransform="matrix(1 0 0 1 561.3799 -165.6211)">
			<stop  offset="0" style="stop-color:#CA4EE5;stop-opacity:0"/>
			<stop  offset="0.7688" style="stop-color:#F6B8FF"/>
		</linearGradient>
		<polygon fill="url(#SVGID_12_)" points="33.034,13.431 25.403,21.061 29.338,21.061 36.96,13.439 		"/>
		
			<linearGradient id="SVGID_13_" gradientUnits="userSpaceOnUse" x1="-542.0015" y1="182.9863" x2="-550.1724" y2="191.1573" gradientTransform="matrix(1 0 0 1 561.3799 -165.6211)">
			<stop  offset="0" style="stop-color:#CA4EE5;stop-opacity:0"/>
			<stop  offset="1" style="stop-color:#F6B8FF"/>
		</linearGradient>
		<polygon fill="url(#SVGID_13_)" points="17.722,17.054 10.092,24.684 14.025,24.684 21.648,17.062 		"/>
		<g>
			
				<linearGradient id="SVGID_14_" gradientUnits="userSpaceOnUse" x1="-560.5352" y1="191.0586" x2="-550.7803" y2="191.0586" gradientTransform="matrix(1 0 0 1 561.3799 -165.6211)">
				<stop  offset="0" style="stop-color:#CA4EE5;stop-opacity:0"/>
				<stop  offset="1" style="stop-color:#F6EBE6"/>
			</linearGradient>
			<polygon fill="url(#SVGID_14_)" points="1.06,30.315 0.845,30.103 10.385,20.561 10.6,20.775 			"/>
		</g>
	</g>
</g>
</svg>
