<?xml version="1.0" encoding="utf-8"?>
<!-- Generator: Adobe Illustrator 16.0.0, SVG Export Plug-In . SVG Version: 6.00 Build 0)  -->
<!DOCTYPE svg PUBLIC "-//W3C//DTD SVG 1.1//EN" "http://www.w3.org/Graphics/SVG/1.1/DTD/svg11.dtd">
<svg version="1.1" id="tc" xmlns="http://www.w3.org/2000/svg" xmlns:xlink="http://www.w3.org/1999/xlink" x="0px" y="0px"
	 width="92px" height="36px" viewBox="0 0 92 36" enable-background="new 0 0 92 36" xml:space="preserve">
<linearGradient id="shape1_1_" gradientUnits="userSpaceOnUse" x1="-58.4951" y1="-804.4722" x2="32.4961" y2="-804.4722" gradientTransform="matrix(1 0 0 -1 59 -787.4707)">
	<stop  offset="0" style="stop-color:#CA4EE5"/>
	<stop  offset="0.3011" style="stop-color:#570090"/>
	<stop  offset="0.7419" style="stop-color:#893BDC"/>
	<stop  offset="1" style="stop-color:#CA4EE5"/>
</linearGradient>
<path id="shape1" fill="url(#shape1_1_)" d="M1.95,20.115c-0.057-0.604,0.387-1.137,0.989-1.194
	c0.603-0.056,1.138,0.388,1.194,0.988c0.003,0.036,0.004,0.069,0.004,0.104c0.026,0.572-0.418,1.063-0.994,1.092
	c-0.034,0.002-0.068,0.004-0.103,0.004C2.481,21.107,2.003,20.684,1.95,20.115 M34.874,9.05l-0.279,0.146l-0.883,2.326l-0.874,0.785
	l-1.001,0.423l-1.875,0.104l-0.237,0.392l-0.406,0.249v-0.248l-0.199-0.298L5.54,13.515l-0.664,0.682v0.589H4.502L4.06,15.241v0.485
	H3.62l-0.465,0.455v0.517H2.707L2.29,17.101v0.507l-0.353-0.042L1.46,17.989v0.477H1.018L0.505,19.12l1.237,3.263l5.662-0.889
	l18.24-2.119c0,0,2.032-0.057,2.16-0.096c0.118-0.174,0.262-0.326,0.427-0.454c0.159,0.062,0.286,0.185,0.353,0.341
	c1.061,0.219,1.896,1.035,2.141,2.09c0.142,1.027,0.042,2.071-0.291,3.053l1.019,0.645c0,0,0.398-0.721,0.795-1.553
	c0.238-0.487,0.408-1.014,0.508-1.549c1.106-1.194,2.814-1.627,4.355-1.098c2.863,1.034,2.836,4.196,2.836,4.196
	s4.538-2.345,12.594-2.608c4.354-0.143,7.395,0.155,10.877,0.456c2.965,0.254,6.251,0.507,10.941,0.49
	c6.162-0.054,12.152-2.03,17.137-5.654c0,0-2.339-1.749-11.895-3.591c-13.08-2.52-31.662-1.539-31.662-1.539
	c-0.043,0.211-0.199,0.381-0.405,0.442c-0.209-0.061-0.369-0.229-0.419-0.442l-0.5,0.02c-0.049,0.218-0.211,0.393-0.427,0.456
	c-0.199-0.039-0.355-0.197-0.393-0.396l-0.531,0.01c-0.057,0.208-0.219,0.372-0.426,0.434c-0.199-0.045-0.35-0.211-0.377-0.413
	l-0.535,0.01c-0.013,0.218-0.179,0.396-0.397,0.424c-0.215-0.014-0.386-0.187-0.396-0.403l-0.565,0.01
	c-0.03,0.207-0.191,0.37-0.397,0.403c-0.207-0.029-0.362-0.205-0.368-0.413l-0.542,0.026c-0.054,0.226-0.23,0.4-0.456,0.456
	c-0.218-0.058-0.38-0.242-0.406-0.466l-5.229,0.114l0.756-2.616V9.856L34.874,9.05z"/>
<g>
	<defs>
		<path id="SVGID_1_" d="M1.95,20.115c-0.057-0.604,0.387-1.137,0.989-1.194c0.603-0.056,1.138,0.388,1.194,0.988
			c0.003,0.036,0.004,0.069,0.004,0.104c0.026,0.572-0.418,1.063-0.994,1.092c-0.034,0.002-0.068,0.004-0.103,0.004
			C2.481,21.107,2.003,20.684,1.95,20.115 M34.874,9.05l-0.279,0.146l-0.883,2.326l-0.874,0.785l-1.001,0.423l-1.875,0.104
			l-0.237,0.392l-0.406,0.249v-0.248l-0.199-0.298L5.54,13.515l-0.664,0.682v0.589H4.502L4.06,15.241v0.485H3.62l-0.465,0.455v0.517
			H2.707L2.29,17.101v0.507l-0.353-0.042L1.46,17.989v0.477H1.018L0.505,19.12l1.237,3.263l5.662-0.889l18.24-2.119
			c0,0,2.032-0.057,2.16-0.096c0.118-0.174,0.262-0.326,0.427-0.454c0.159,0.062,0.286,0.185,0.353,0.341
			c1.061,0.219,1.896,1.035,2.141,2.09c0.142,1.027,0.042,2.071-0.291,3.053l1.019,0.645c0,0,0.398-0.721,0.795-1.553
			c0.238-0.487,0.408-1.014,0.508-1.549c1.106-1.194,2.814-1.627,4.355-1.098c2.863,1.034,2.836,4.196,2.836,4.196
			s4.538-2.345,12.594-2.608c4.354-0.143,7.395,0.155,10.877,0.456c2.965,0.254,6.251,0.507,10.941,0.49
			c6.162-0.054,12.152-2.03,17.137-5.654c0,0-2.339-1.749-11.895-3.591c-13.08-2.52-31.662-1.539-31.662-1.539
			c-0.043,0.211-0.199,0.381-0.405,0.442c-0.209-0.061-0.369-0.229-0.419-0.442l-0.5,0.02c-0.049,0.218-0.211,0.393-0.427,0.456
			c-0.199-0.039-0.355-0.197-0.393-0.396l-0.531,0.01c-0.057,0.208-0.219,0.372-0.426,0.434c-0.199-0.045-0.35-0.211-0.377-0.413
			l-0.535,0.01c-0.013,0.218-0.179,0.396-0.397,0.424c-0.215-0.014-0.386-0.187-0.396-0.403l-0.565,0.01
			c-0.03,0.207-0.191,0.37-0.397,0.403c-0.207-0.029-0.362-0.205-0.368-0.413l-0.542,0.026c-0.054,0.226-0.23,0.4-0.456,0.456
			c-0.218-0.058-0.38-0.242-0.406-0.466l-5.229,0.114l0.756-2.616V9.856L34.874,9.05z"/>
	</defs>
	<clipPath id="SVGID_2_">
		<use xlink:href="#SVGID_1_"  overflow="visible"/>
	</clipPath>
	<g clip-path="url(#SVGID_2_)">
		<g opacity="0.7">
			
				<linearGradient id="SVGID_3_" gradientUnits="userSpaceOnUse" x1="-537.7549" y1="176.1934" x2="-518.1528" y2="176.1934" gradientTransform="matrix(1 0 0 1 561.3799 -165.6211)">
				<stop  offset="0" style="stop-color:#CA4EE5;stop-opacity:0"/>
				<stop  offset="0.4624" style="stop-color:#F6EBE6"/>
			</linearGradient>
			<polygon fill="url(#SVGID_3_)" points="23.891,20.207 23.625,19.94 28.231,15.333 28.231,13.914 30.237,11.905 31.994,11.905 
				42.962,0.937 43.227,1.203 32.149,12.284 30.395,12.284 28.608,14.067 28.608,15.491 			"/>
		</g>
		<g opacity="0.7">
			
				<linearGradient id="SVGID_4_" gradientUnits="userSpaceOnUse" x1="-500.6396" y1="176.3164" x2="-490.4473" y2="176.3164" gradientTransform="matrix(1 0 0 1 561.3799 -165.6211)">
				<stop  offset="0" style="stop-color:#CA4EE5;stop-opacity:0"/>
				<stop  offset="0.5753" style="stop-color:#F6EBE6"/>
			</linearGradient>
			<polygon fill="url(#SVGID_4_)" points="60.878,15.705 60.74,15.564 63.136,13.169 63.136,12.433 64.179,11.388 65.091,11.388 
				70.794,5.686 70.933,5.823 65.173,11.583 64.259,11.583 63.331,12.512 63.331,13.25 			"/>
		</g>
		<g>
			
				<linearGradient id="SVGID_5_" gradientUnits="userSpaceOnUse" x1="-525.3638" y1="178.6865" x2="-502.7559" y2="178.6865" gradientTransform="matrix(1 0 0 1 561.3799 -165.6211)">
				<stop  offset="0" style="stop-color:#CA4EE5;stop-opacity:0"/>
				<stop  offset="1" style="stop-color:#F6EBE6"/>
			</linearGradient>
			<polygon fill="url(#SVGID_5_)" points="36.321,24.178 36.016,23.871 41.329,18.557 41.329,16.919 43.643,14.606 45.666,14.606 
				58.315,1.954 58.624,2.263 45.848,15.039 43.824,15.039 41.763,17.1 41.763,18.738 			"/>
		</g>
		<g opacity="0.7">
			
				<linearGradient id="SVGID_6_" gradientUnits="userSpaceOnUse" x1="-538.1567" y1="177.5791" x2="-526.8921" y2="177.5791" gradientTransform="matrix(1 0 0 1 561.3799 -165.6211)">
				<stop  offset="0" style="stop-color:#CA4EE5;stop-opacity:0"/>
				<stop  offset="0.5591" style="stop-color:#F6EBE6"/>
			</linearGradient>
			<polygon fill="url(#SVGID_6_)" points="23.349,17.512 23.223,17.385 27.373,13.235 27.373,12.562 28.325,11.609 29.157,11.609 
				34.362,6.404 34.488,6.53 29.231,11.788 28.398,11.788 27.551,12.636 27.551,13.31 			"/>
		</g>
		<g>
			
				<linearGradient id="SVGID_7_" gradientUnits="userSpaceOnUse" x1="-559.8218" y1="181.1807" x2="-548.5566" y2="181.1807" gradientTransform="matrix(1 0 0 1 561.3799 -165.6211)">
				<stop  offset="0" style="stop-color:#CA4EE5;stop-opacity:0"/>
				<stop  offset="1" style="stop-color:#F6EBE6"/>
			</linearGradient>
			<polygon fill="url(#SVGID_7_)" points="1.684,21.113 1.558,20.986 5.707,16.836 5.707,16.164 6.66,15.21 7.492,15.21 
				12.697,10.005 12.823,10.131 7.566,15.39 6.733,15.39 5.886,16.237 5.886,16.912 			"/>
		</g>
		
			<linearGradient id="SVGID_8_" gradientUnits="userSpaceOnUse" x1="-546.7461" y1="177.4756" x2="-560.1451" y2="190.8747" gradientTransform="matrix(1 0 0 1 561.3799 -165.6211)">
			<stop  offset="0" style="stop-color:#CA4EE5;stop-opacity:0"/>
			<stop  offset="1" style="stop-color:#F6EBE6"/>
		</linearGradient>
		<polygon fill="url(#SVGID_8_)" points="13.698,10.749 0,24.447 4.08,24.447 17.764,10.764 		"/>
		
			<linearGradient id="SVGID_9_" gradientUnits="userSpaceOnUse" x1="-542.5527" y1="177.4756" x2="-557.222" y2="192.1449" gradientTransform="matrix(1 0 0 1 561.3799 -165.6211)">
			<stop  offset="0" style="stop-color:#CA4EE5;stop-opacity:0"/>
			<stop  offset="1" style="stop-color:#F6EBE6"/>
		</linearGradient>
		<polygon fill="url(#SVGID_9_)" points="15.855,11.294 2.157,24.992 9.219,24.992 22.903,11.31 		"/>
		
			<linearGradient id="SVGID_10_" gradientUnits="userSpaceOnUse" x1="-519.1147" y1="175.8574" x2="-540.4564" y2="197.1991" gradientTransform="matrix(1 0 0 1 561.3799 -165.6211)">
			<stop  offset="0" style="stop-color:#CA4EE5;stop-opacity:0"/>
			<stop  offset="0.7742" style="stop-color:#F6EBE6"/>
		</linearGradient>
		<polygon opacity="0.7" fill="url(#SVGID_10_)" enable-background="new    " points="37.941,9.422 18.013,29.35 28.288,29.35 
			48.196,9.443 		"/>
		
			<linearGradient id="SVGID_11_" gradientUnits="userSpaceOnUse" x1="-514.9233" y1="179.5752" x2="-523.0941" y2="187.7459" gradientTransform="matrix(1 0 0 1 561.3799 -165.6211)">
			<stop  offset="0" style="stop-color:#CA4EE5;stop-opacity:0"/>
			<stop  offset="0.672" style="stop-color:#F6EBE6"/>
		</linearGradient>
		<polygon opacity="0.7" fill="url(#SVGID_11_)" enable-background="new    " points="44.801,13.642 37.171,21.271 41.104,21.271 
			48.728,13.649 		"/>
		
			<linearGradient id="SVGID_12_" gradientUnits="userSpaceOnUse" x1="-504.5679" y1="174.8857" x2="-512.7394" y2="183.0574" gradientTransform="matrix(1 0 0 1 561.3799 -165.6211)">
			<stop  offset="0" style="stop-color:#CA4EE5;stop-opacity:0"/>
			<stop  offset="0.7688" style="stop-color:#F6B8FF"/>
		</linearGradient>
		<polygon fill="url(#SVGID_12_)" points="55.155,8.954 47.524,16.583 51.459,16.583 59.081,8.961 		"/>
		
			<linearGradient id="SVGID_13_" gradientUnits="userSpaceOnUse" x1="-519.8809" y1="178.5088" x2="-528.0519" y2="186.68" gradientTransform="matrix(1 0 0 1 561.3799 -165.6211)">
			<stop  offset="0" style="stop-color:#CA4EE5;stop-opacity:0"/>
			<stop  offset="1" style="stop-color:#F6B8FF"/>
		</linearGradient>
		<polygon fill="url(#SVGID_13_)" points="39.843,12.577 32.213,20.207 36.146,20.207 43.769,12.584 		"/>
		<g>
			
				<linearGradient id="SVGID_14_" gradientUnits="userSpaceOnUse" x1="-538.4141" y1="186.5811" x2="-528.6587" y2="186.5811" gradientTransform="matrix(1 0 0 1 561.3799 -165.6211)">
				<stop  offset="0" style="stop-color:#CA4EE5;stop-opacity:0"/>
				<stop  offset="1" style="stop-color:#F6EBE6"/>
			</linearGradient>
			<polygon fill="url(#SVGID_14_)" points="23.181,25.838 22.966,25.625 32.506,16.083 32.721,16.297 			"/>
		</g>
	</g>
</g>
</svg>
