<?xml version="1.0" encoding="utf-8"?>
<!-- Generator: Adobe Illustrator 16.0.0, SVG Export Plug-In . SVG Version: 6.00 Build 0)  -->
<!DOCTYPE svg PUBLIC "-//W3C//DTD SVG 1.1//EN" "http://www.w3.org/Graphics/SVG/1.1/DTD/svg11.dtd">
<svg version="1.1" id="case1" xmlns="http://www.w3.org/2000/svg" xmlns:xlink="http://www.w3.org/1999/xlink" x="0px" y="0px"
	 width="92px" height="36px" viewBox="0 0 92 36" enable-background="new 0 0 92 36" xml:space="preserve">
<linearGradient id="shape_1_" gradientUnits="userSpaceOnUse" x1="-66.0059" y1="1385.3594" x2="23.7373" y2="1385.3594" gradientTransform="matrix(1 0 0 1 67.3398 -1372.4307)">
	<stop  offset="0" style="stop-color:#CA4EE5"/>
	<stop  offset="0.3011" style="stop-color:#570090"/>
	<stop  offset="0.7419" style="stop-color:#893BDC"/>
	<stop  offset="1" style="stop-color:#CA4EE5"/>
</linearGradient>
<path id="shape" fill="url(#shape_1_)" d="M2.76,16.295c-0.056-0.652,0.381-1.23,0.975-1.292c0.596-0.059,1.123,0.419,1.178,1.07
	c0.003,0.038,0.005,0.075,0.005,0.112c0.026,0.622-0.412,1.149-0.98,1.18c-0.034,0.003-0.069,0.005-0.102,0.005
	C3.284,17.369,2.813,16.909,2.76,16.295 M35.232,4.333L34.957,4.49l-0.871,2.514l-0.862,0.849l-0.987,0.458l-1.85,0.112
	l-0.235,0.423l-0.401,0.268V8.848l-0.196-0.323L6.301,9.16L5.645,9.897v0.637H5.277l-0.436,0.492v0.524H4.405l-0.458,0.492v0.559
	H3.506l-0.411,0.436v0.548L2.746,13.54l-0.47,0.458v0.515H1.84L1.334,15.22l1.22,3.528l5.584-0.961l17.99-2.291
	c0,0,2.003-0.062,2.13-0.104c0.116-0.186,0.258-0.352,0.42-0.49c0.157,0.067,0.283,0.2,0.349,0.368
	c1.046,0.237,1.87,1.119,2.111,2.259c0.141,1.11,0.042,2.239-0.288,3.3l1.006,0.694c0,0,0.393-0.778,0.785-1.676
	c0.234-0.531,0.403-1.101,0.499-1.678c1.094-1.294,2.776-1.759,4.298-1.187c2.823,1.118,2.795,4.541,2.795,4.541
	s4.477-2.535,12.424-2.82c4.293-0.154,7.291,0.168,10.727,0.49c2.925,0.272,6.165,0.55,10.792,0.531
	c6.077-0.061,11.986-2.193,16.901-6.115c0,0-2.308-1.89-11.731-3.882c-12.9-2.724-31.227-1.663-31.227-1.663
	c-0.041,0.228-0.196,0.411-0.4,0.477c-0.205-0.065-0.363-0.249-0.412-0.477l-0.494,0.021c-0.047,0.236-0.207,0.425-0.417,0.492
	c-0.196-0.042-0.351-0.212-0.388-0.428L45.48,8.164c-0.057,0.226-0.216,0.403-0.421,0.47c-0.196-0.05-0.344-0.229-0.371-0.447
	l-0.528,0.01c-0.012,0.237-0.177,0.429-0.391,0.458c-0.213-0.014-0.381-0.201-0.392-0.438L42.82,8.231
	c-0.03,0.224-0.188,0.399-0.392,0.436c-0.203-0.032-0.357-0.221-0.362-0.447l-0.534,0.028c-0.054,0.244-0.228,0.434-0.45,0.493
	c-0.215-0.063-0.375-0.261-0.401-0.504L35.526,8.36l0.745-2.828V5.205L35.232,4.333z"/>
<linearGradient id="shape2_2_" gradientUnits="userSpaceOnUse" x1="67.9199" y1="16.2485" x2="67.2529" y2="31.9155">
	<stop  offset="0" style="stop-color:#4F3468"/>
	<stop  offset="0.4892" style="stop-color:#893BDC"/>
	<stop  offset="1" style="stop-color:#CA4EE5"/>
</linearGradient>
<path id="shape2_1_" fill="url(#shape2_2_)" d="M77.559,31.251c-0.313,0-0.625-0.05-0.922-0.147
	c-0.298,0.103-0.609,0.147-0.922,0.147h-8.193c-0.185,0-0.443-0.009-0.77-0.075c-0.217,0.051-0.439,0.075-0.664,0.075h-2.664
	c-0.816,0-1.605-0.342-2.166-0.937c-0.078-0.086-0.15-0.174-0.219-0.271l-0.91,0.647c-0.503,0.359-1.1,0.555-1.725,0.555H54.82
	c-0.717,0-1.402-0.268-1.934-0.721c-0.617,0.426-1.354,0.652-2.115,0.652c-0.75,0-1.479-0.222-2.104-0.642
	c-0.164-0.11-0.315-0.233-0.452-0.37c-1.021-1.021-1.363-2.423-0.92-3.753l0.044-0.128l0.08-0.203
	c-1.801-0.254-3.145-1.766-3.145-3.646V22.24c0-0.741,0.274-1.45,0.773-1.996l4.748-5.232c0.646-1.069,1.762-1.679,3.079-1.679h0.41
	c2.065,0,3.684,1.618,3.684,3.684c0,0-0.001,0.289-0.003,0.331c0.555-0.653,1.372-1.044,2.26-1.044h8.398
	c0.261,0,0.518,0.034,0.768,0.101c0.25-0.067,0.508-0.101,0.771-0.101h9.218c0.243,0,0.481,0.029,0.718,0.087
	c0.232-0.058,0.478-0.087,0.719-0.087h8.396c0.917,0,1.797,0.433,2.354,1.159c0.563,0.726,0.752,1.689,0.518,2.573l-0.406,1.532
	c-0.146,0.541-0.435,1.02-0.826,1.395c-0.018,0.188-0.047,0.372-0.098,0.555l-0.41,1.537c-0.072,0.282-0.189,0.551-0.346,0.799
	c0.168,0.532,0.188,1.109,0.04,1.656l-0.413,1.539c-0.35,1.296-1.521,2.202-2.866,2.202H77.559z M74.52,23.782l0.017-0.009h-0.798
	l-0.002,0.009H74.52z"/>
<path id="ACE" fill="#FFFFFF" d="M51.748,23.163h-3.79c-0.409,0-0.717-0.308-0.717-0.718c0-0.104,0-0.104,0-0.204l5.018-5.531
	c0.103-0.307,0.31-0.41,0.615-0.41h0.41c0.409,0,0.717,0.308,0.717,0.717c0,0.102,0,0.205,0,0.205l-2.458,3.584h4.402
	c0.615,0,0.31,1.127-0.104,1.639l-4.507,5.531c-0.311,0.308-0.717,0.308-1.021,0.104c-0.205-0.206-0.311-0.41-0.205-0.719
	L51.748,23.163L51.748,23.163L51.748,23.163z M59.225,19.271l0.409,0.41l-4.813,8.603h3.584l2.15-1.536h2.971l-0.103,1.536h2.663
	l1.536-9.013H59.225L59.225,19.271z M63.73,20.809l-0.104,3.482h-2.97l2.048-3.482H63.73L63.73,20.809z M67.521,28.284h8.188
	l0.613-2.15l-0.819,0.614h-5.729l1.74-5.941h6.448l0.409-1.535H69.15L66.8,27.26c-0.1,0.104-0.1,0.309-0.1,0.409
	c0,0.103,0,0.205,0.103,0.31c0.102,0.104,0.205,0.203,0.307,0.203C67.314,28.284,67.419,28.284,67.521,28.284L67.521,28.284
	L67.521,28.284z M79.811,19.271l0.313,0.608l-2.563,8.397h8.192l0.41-1.535H81.04l0.717-2.458h4.711l0.41-1.537h-4.506l0.612-1.94
	H87.8l0.409-1.535H79.811L79.811,19.271z"/>
<g>
	<defs>
		<path id="SVGID_1_" d="M2.76,16.295c-0.056-0.652,0.381-1.23,0.975-1.292c0.596-0.059,1.123,0.419,1.178,1.07
			c0.003,0.038,0.005,0.075,0.005,0.112c0.026,0.622-0.412,1.149-0.98,1.18c-0.034,0.003-0.069,0.005-0.102,0.005
			C3.284,17.369,2.813,16.909,2.76,16.295 M35.232,4.333L34.957,4.49l-0.871,2.514l-0.862,0.849l-0.987,0.458l-1.85,0.112
			l-0.235,0.423l-0.401,0.268V8.848l-0.196-0.323L6.301,9.16L5.645,9.897v0.637H5.277l-0.436,0.492v0.524H4.405l-0.458,0.492v0.559
			H3.506l-0.411,0.436v0.548L2.746,13.54l-0.47,0.458v0.515H1.84L1.334,15.22l1.22,3.528l5.584-0.961l17.99-2.291
			c0,0,2.003-0.062,2.13-0.104c0.116-0.186,0.258-0.352,0.42-0.49c0.157,0.067,0.283,0.2,0.349,0.368
			c1.046,0.237,1.87,1.119,2.111,2.259c0.141,1.11,0.042,2.239-0.288,3.3l1.006,0.694c0,0,0.393-0.778,0.785-1.676
			c0.234-0.531,0.403-1.101,0.499-1.678c1.094-1.294,2.776-1.759,4.298-1.187c2.823,1.118,2.795,4.541,2.795,4.541
			s4.477-2.535,12.424-2.82c4.293-0.154,7.291,0.168,10.727,0.49c2.925,0.272,6.165,0.55,10.792,0.531
			c6.077-0.061,11.986-2.193,16.901-6.115c0,0-2.308-1.89-11.731-3.882c-12.9-2.724-31.227-1.663-31.227-1.663
			c-0.041,0.228-0.196,0.411-0.4,0.477c-0.205-0.065-0.363-0.249-0.412-0.477l-0.494,0.021c-0.047,0.236-0.207,0.425-0.417,0.492
			c-0.196-0.042-0.351-0.212-0.388-0.428L45.48,8.164c-0.057,0.226-0.216,0.403-0.421,0.47c-0.196-0.05-0.344-0.229-0.371-0.447
			l-0.528,0.01c-0.012,0.237-0.177,0.429-0.391,0.458c-0.213-0.014-0.381-0.201-0.392-0.438L42.82,8.231
			c-0.03,0.224-0.188,0.399-0.392,0.436c-0.203-0.032-0.357-0.221-0.362-0.447l-0.534,0.028c-0.054,0.244-0.228,0.434-0.45,0.493
			c-0.215-0.063-0.375-0.261-0.401-0.504L35.526,8.36l0.745-2.828V5.205L35.232,4.333z"/>
	</defs>
	<clipPath id="SVGID_2_">
		<use xlink:href="#SVGID_1_"  overflow="visible"/>
	</clipPath>
	<g clip-path="url(#SVGID_2_)">
		<g opacity="0.7">
			
				<linearGradient id="SVGID_3_" gradientUnits="userSpaceOnUse" x1="-539.2954" y1="171.6445" x2="-519.6934" y2="171.6445" gradientTransform="matrix(1 0 0 1 561.3799 -165.6211)">
				<stop  offset="0" style="stop-color:#CA4EE5;stop-opacity:0"/>
				<stop  offset="0.4624" style="stop-color:#F6EBE6"/>
			</linearGradient>
			<polygon fill="url(#SVGID_3_)" points="22.351,15.659 22.084,15.393 26.69,10.784 26.69,9.366 28.696,7.357 30.454,7.357 
				41.421,-3.611 41.687,-3.345 30.608,7.735 28.854,7.735 27.067,9.52 27.067,10.942 			"/>
		</g>
		<g opacity="0.7">
			
				<linearGradient id="SVGID_4_" gradientUnits="userSpaceOnUse" x1="-502.1797" y1="171.7686" x2="-491.9883" y2="171.7686" gradientTransform="matrix(1 0 0 1 561.3799 -165.6211)">
				<stop  offset="0" style="stop-color:#CA4EE5;stop-opacity:0"/>
				<stop  offset="0.5753" style="stop-color:#F6EBE6"/>
			</linearGradient>
			<polygon fill="url(#SVGID_4_)" points="59.337,11.157 59.2,11.017 61.595,8.622 61.595,7.885 62.638,6.84 63.55,6.84 
				69.253,1.138 69.392,1.275 63.632,7.036 62.718,7.036 61.79,7.964 61.79,8.702 			"/>
		</g>
		<g>
			
				<linearGradient id="SVGID_5_" gradientUnits="userSpaceOnUse" x1="-526.9043" y1="174.1387" x2="-504.2969" y2="174.1387" gradientTransform="matrix(1 0 0 1 561.3799 -165.6211)">
				<stop  offset="0" style="stop-color:#CA4EE5;stop-opacity:0"/>
				<stop  offset="1" style="stop-color:#F6EBE6"/>
			</linearGradient>
			<polygon fill="url(#SVGID_5_)" points="34.78,19.63 34.476,19.323 39.789,14.009 39.789,12.372 42.103,10.059 44.125,10.059 
				56.774,-2.595 57.083,-2.285 44.308,10.491 42.284,10.491 40.223,12.552 40.223,14.19 			"/>
		</g>
		<g opacity="0.7">
			
				<linearGradient id="SVGID_6_" gradientUnits="userSpaceOnUse" x1="-539.6973" y1="173.0313" x2="-528.4326" y2="173.0313" gradientTransform="matrix(1 0 0 1 561.3799 -165.6211)">
				<stop  offset="0" style="stop-color:#CA4EE5;stop-opacity:0"/>
				<stop  offset="0.5591" style="stop-color:#F6EBE6"/>
			</linearGradient>
			<polygon fill="url(#SVGID_6_)" points="21.809,12.964 21.683,12.837 25.833,8.688 25.833,8.014 26.785,7.062 27.617,7.062 
				32.821,1.856 32.947,1.982 27.69,7.239 26.857,7.239 26.01,8.088 26.01,8.762 			"/>
		</g>
		<g>
			
				<linearGradient id="SVGID_7_" gradientUnits="userSpaceOnUse" x1="-561.3623" y1="176.6328" x2="-550.0972" y2="176.6328" gradientTransform="matrix(1 0 0 1 561.3799 -165.6211)">
				<stop  offset="0" style="stop-color:#CA4EE5;stop-opacity:0"/>
				<stop  offset="1" style="stop-color:#F6EBE6"/>
			</linearGradient>
			<polygon fill="url(#SVGID_7_)" points="0.144,16.565 0.018,16.438 4.167,12.288 4.167,11.616 5.12,10.663 5.952,10.663 
				11.156,5.458 11.283,5.583 6.025,10.842 5.192,10.842 4.346,11.689 4.346,12.364 			"/>
		</g>
		
			<linearGradient id="SVGID_8_" gradientUnits="userSpaceOnUse" x1="-548.2861" y1="172.9277" x2="-561.6852" y2="186.3268" gradientTransform="matrix(1 0 0 1 561.3799 -165.6211)">
			<stop  offset="0" style="stop-color:#CA4EE5;stop-opacity:0"/>
			<stop  offset="1" style="stop-color:#F6EBE6"/>
		</linearGradient>
		<polygon fill="url(#SVGID_8_)" points="12.158,6.2 -1.541,19.899 2.54,19.899 16.224,6.216 		"/>
		
			<linearGradient id="SVGID_9_" gradientUnits="userSpaceOnUse" x1="-544.0928" y1="172.9277" x2="-558.762" y2="187.5971" gradientTransform="matrix(1 0 0 1 561.3799 -165.6211)">
			<stop  offset="0" style="stop-color:#CA4EE5;stop-opacity:0"/>
			<stop  offset="1" style="stop-color:#F6EBE6"/>
		</linearGradient>
		<polygon fill="url(#SVGID_9_)" points="14.314,6.747 0.617,20.444 7.679,20.444 21.362,6.762 		"/>
		
			<linearGradient id="SVGID_10_" gradientUnits="userSpaceOnUse" x1="-520.6548" y1="171.3096" x2="-541.9966" y2="192.6515" gradientTransform="matrix(1 0 0 1 561.3799 -165.6211)">
			<stop  offset="0" style="stop-color:#CA4EE5;stop-opacity:0"/>
			<stop  offset="0.7742" style="stop-color:#F6EBE6"/>
		</linearGradient>
		<polygon opacity="0.7" fill="url(#SVGID_10_)" enable-background="new    " points="36.4,4.874 16.473,24.802 26.748,24.802 
			46.656,4.896 		"/>
		
			<linearGradient id="SVGID_11_" gradientUnits="userSpaceOnUse" x1="-516.4634" y1="175.0273" x2="-524.6343" y2="183.1983" gradientTransform="matrix(1 0 0 1 561.3799 -165.6211)">
			<stop  offset="0" style="stop-color:#CA4EE5;stop-opacity:0"/>
			<stop  offset="0.672" style="stop-color:#F6EBE6"/>
		</linearGradient>
		<polygon opacity="0.7" fill="url(#SVGID_11_)" enable-background="new    " points="43.26,9.094 35.63,16.724 39.563,16.724 
			47.188,9.102 		"/>
		
			<linearGradient id="SVGID_12_" gradientUnits="userSpaceOnUse" x1="-506.1084" y1="170.3379" x2="-514.2802" y2="178.5097" gradientTransform="matrix(1 0 0 1 561.3799 -165.6211)">
			<stop  offset="0" style="stop-color:#CA4EE5;stop-opacity:0"/>
			<stop  offset="0.7688" style="stop-color:#F6B8FF"/>
		</linearGradient>
		<polygon fill="url(#SVGID_12_)" points="53.614,4.405 45.984,12.036 49.919,12.036 57.54,4.413 		"/>
		
			<linearGradient id="SVGID_13_" gradientUnits="userSpaceOnUse" x1="-521.4209" y1="173.9609" x2="-529.5922" y2="182.1324" gradientTransform="matrix(1 0 0 1 561.3799 -165.6211)">
			<stop  offset="0" style="stop-color:#CA4EE5;stop-opacity:0"/>
			<stop  offset="1" style="stop-color:#F6B8FF"/>
		</linearGradient>
		<polygon fill="url(#SVGID_13_)" points="38.302,8.028 30.672,15.659 34.605,15.659 42.229,8.036 		"/>
		<g>
			
				<linearGradient id="SVGID_14_" gradientUnits="userSpaceOnUse" x1="-539.9546" y1="182.0332" x2="-530.1992" y2="182.0332" gradientTransform="matrix(1 0 0 1 561.3799 -165.6211)">
				<stop  offset="0" style="stop-color:#CA4EE5;stop-opacity:0"/>
				<stop  offset="1" style="stop-color:#F6EBE6"/>
			</linearGradient>
			<polygon fill="url(#SVGID_14_)" points="21.641,21.29 21.425,21.077 30.965,11.534 31.181,11.749 			"/>
		</g>
	</g>
</g>
</svg>
