<?xml version="1.0" encoding="utf-8"?>
<!-- Generator: Adobe Illustrator 16.0.0, SVG Export Plug-In . SVG Version: 6.00 Build 0)  -->
<!DOCTYPE svg PUBLIC "-//W3C//DTD SVG 1.1//EN" "http://www.w3.org/Graphics/SVG/1.1/DTD/svg11.dtd">
<svg version="1.1" id="case1" xmlns="http://www.w3.org/2000/svg" xmlns:xlink="http://www.w3.org/1999/xlink" x="0px" y="0px"
	 width="92px" height="36px" viewBox="0 0 92 36" enable-background="new 0 0 92 36" xml:space="preserve">
<linearGradient id="nova_1_" gradientUnits="userSpaceOnUse" x1="-58.29" y1="3.04" x2="32.082" y2="3.04" gradientTransform="matrix(1 0 0 -1 59.04 19.3398)">
	<stop  offset="0" style="stop-color:#CA4EE5"/>
	<stop  offset="0.3011" style="stop-color:#570090"/>
	<stop  offset="0.7419" style="stop-color:#893BDC"/>
	<stop  offset="1" style="stop-color:#CA4EE5"/>
</linearGradient>
<path id="nova" fill="url(#nova_1_)" d="M88.889,7.592c0,0.044,0.01,0.087,0.031,0.125v0.632h1.49
	c0.056-0.002,0.111,0.008,0.162,0.031c0.025,0.001,0.049,0.013,0.066,0.031h0.029V8.38h0.063c0.054,0.025,0.105,0.045,0.162,0.061
	c0.025,0.029,0.047,0.061,0.063,0.096c0.021,0,0.034,0.02,0.034,0.062c0.02,0.017,0.029,0.04,0.031,0.064v0.063
	C91.01,8.754,91,8.786,90.996,8.819c-0.018,0.018-0.028,0.04-0.034,0.064h0.065v0.553c0.014,0.014,0.021,0.03,0.031,0.047
	c0.022,0.026,0.037,0.06,0.032,0.094l0.031,0.033v0.251c-0.002,0.024-0.015,0.048-0.031,0.063l-0.063,0.062v0.759h-0.473
	l0.018,0.028c0.002,0.024,0.014,0.048,0.033,0.063c0.02,0.021,0.041,0.042,0.063,0.063v0.097l-0.019,0.016
	c-2.818-0.01-5.635-0.015-8.444-0.016c-0.035,0.017-0.067,0.038-0.099,0.064l-0.389,0.015v0.079h-0.031v-0.079
	c-0.356,0.02-0.717,0.041-1.069,0.063v0.016h-0.13v0.064L80.02,11.2c-0.017,0.018-0.029,0.033-0.047,0.048
	c-0.021,0.039-0.033,0.082-0.033,0.125c-0.029,0.007-0.063,0.014-0.098,0.018v0.474c0.057,0,0.109,0.008,0.161,0.016v1.865
	c-0.106,0-0.215,0-0.323,0v0.157h-0.878v0.094c-0.002,0.024-0.014,0.047-0.032,0.062c-0.021,0.026-0.035,0.061-0.033,0.095
	c-0.016,0.019-0.036,0.03-0.063,0.03c-0.023,0.002-0.05,0.014-0.064,0.033c-0.02,0.018-0.041,0.029-0.063,0.031l-0.031,0.031
	c-0.041,0.02-0.086,0.031-0.132,0.031h-0.321v0.032c-0.215,0.042-0.433,0.088-0.646,0.127v0.063
	c-0.188,0.021-0.37,0.052-0.551,0.095c-0.035,0.016-0.068,0.037-0.1,0.062c-0.563,0.021-1.125,0.054-1.687,0.095
	c-0.036,0.016-0.067,0.037-0.099,0.063c-0.444-0.011-0.889-0.023-1.33-0.031l-0.064,0.063H73.55
	c-0.051,0.023-0.106,0.034-0.161,0.031h-9.125c-0.1,0.01-0.203,0.02-0.308,0.032V15c-0.476,0.021-0.963,0.053-1.46,0.095v0.064
	c-0.52,0.021-1.027,0.052-1.523,0.094c-0.035,0.016-0.068,0.038-0.098,0.063c-0.409,0.021-0.809,0.052-1.199,0.093
	c-0.035,0.016-0.068,0.037-0.098,0.063c-0.367,0.02-0.745,0.052-1.135,0.094v0.063c-0.436,0.02-0.865,0.053-1.299,0.094v0.063
	c-0.41,0.021-0.812,0.052-1.199,0.094c-0.036,0.016-0.069,0.037-0.098,0.063c-0.521,0.021-1.027,0.054-1.524,0.093
	c-0.034,0.017-0.067,0.038-0.099,0.063c-0.668-0.021-1.328-0.031-1.979-0.031c-0.021-0.021-0.056-0.053-0.099-0.094l-1.035-0.061
	l-0.098-0.095c-0.106-0.02-0.226-0.041-0.355-0.063V15.66c-0.108-0.018-0.219-0.04-0.323-0.06v-0.09
	c-0.054-0.023-0.104-0.044-0.161-0.063v-0.098c-0.107-0.02-0.217-0.042-0.322-0.063v-0.095c-0.055-0.024-0.106-0.046-0.162-0.063
	c-0.021-0.039-0.032-0.082-0.035-0.126c-0.023-0.046-0.057-0.088-0.094-0.125l-0.1-0.095l-0.266-0.126
	c-0.021-0.039-0.029-0.083-0.031-0.126c-0.023-0.047-0.061-0.09-0.1-0.127c-2.274,0.019-4.56,0.041-6.841,0.064v0.061
	c-0.715-0.021-1.428-0.031-2.141-0.032c-0.021-0.02-0.055-0.052-0.098-0.095c-0.108-0.019-0.226-0.041-0.357-0.062V14.26
	c-0.02,0.01-0.042,0.015-0.065,0.015c0.002,0.015-0.008,0.029-0.022,0.031c-0.003,0-0.006,0-0.009,0L39.438,14.4
	c-0.016,0.02-0.04,0.032-0.066,0.032c0.002,0.016-0.008,0.03-0.024,0.032c-0.003,0-0.005,0-0.008,0
	c0.001,0.016-0.01,0.029-0.025,0.031c-0.002,0-0.005,0-0.008,0l-0.031,0.031c-0.025,0.002-0.049,0.013-0.066,0.032h-0.028
	c-0.03,0.017-0.063,0.028-0.097,0.032l-0.032,0.031h-0.036v0.031l-0.064,0.031l-0.033,0.031h-0.018
	c-0.018,0.007-0.034,0.018-0.046,0.032H38.82c-0.03,0.017-0.063,0.027-0.097,0.031c0.002,0.016-0.009,0.03-0.025,0.032
	c-0.002,0-0.005,0-0.007,0c-0.033,0.031-0.065,0.063-0.098,0.094c-0.016-0.002-0.031,0.01-0.033,0.026c0,0.002,0,0.004,0,0.006
	c-0.024,0.001-0.047,0.013-0.063,0.031c-0.015-0.003-0.029,0.007-0.032,0.021c0,0.003-0.001,0.006,0,0.009
	c-0.025,0.001-0.048,0.012-0.064,0.031h-0.035c0.002,0.016-0.009,0.029-0.024,0.032c-0.002,0-0.005,0-0.008,0
	c-0.016,0.019-0.039,0.03-0.064,0.032c0.002,0.015-0.009,0.029-0.024,0.031c-0.003,0-0.006,0-0.009,0v0.037
	c-0.107,0.021-0.216,0.031-0.325,0.031l-0.033,0.031c-0.017,0.018-0.041,0.03-0.065,0.032l-0.064,0.063v0.031l-0.033,0.031v0.031
	c-0.03,0.017-0.063,0.028-0.096,0.032l-0.033,0.032v0.028h-0.031c-0.017,0.019-0.041,0.03-0.065,0.032l-0.097,0.094v0.058
	c-0.03,0.018-0.063,0.029-0.098,0.033l-0.064,0.063v0.063c-0.031,0.016-0.063,0.026-0.098,0.031c-0.017,0.019-0.04,0.03-0.065,0.031
	v0.063h-0.1V16c-0.016,0.018-0.04,0.029-0.064,0.029c0.002,0.016-0.008,0.03-0.023,0.033c-0.002,0-0.005,0-0.008,0
	c-0.015-0.002-0.029,0.007-0.031,0.022c0,0.002,0,0.005,0,0.008l-0.03,0.048v0.062h-0.196c0.001,0.016-0.01,0.031-0.027,0.032
	c-0.002,0-0.004,0-0.006,0v0.064h-0.096c-0.017,0.02-0.04,0.031-0.065,0.034c-0.073,0.021-0.149,0.031-0.226,0.031
	c-0.074,0.021-0.151,0.032-0.228,0.03v0.063h-0.194c-0.041,0.02-0.084,0.031-0.129,0.031c-0.264,0.021-0.519,0.031-0.778,0.031
	H34.12c-0.045,0-0.09-0.011-0.131-0.031c-0.035,0.002-0.069-0.009-0.096-0.031c-0.025-0.002-0.049-0.013-0.065-0.032V16.39
	c-0.041-0.02-0.084-0.031-0.129-0.031c0.015-0.002,0.03,0.008,0.032,0.023c0,0.002,0,0.005,0,0.008v0.252
	c0.011,0.012,0.022,0.021,0.034,0.032l0.032,0.031v0.126c-0.011,0.01-0.021,0.021-0.032,0.031l-0.034-0.031h-0.553
	c-0.034-0.004-0.067-0.015-0.097-0.032l-0.063-0.063v-0.063c-0.03-0.017-0.063-0.027-0.097-0.032V16.61l-0.032-0.031V16.55
	c-0.016,0.003-0.03-0.008-0.033-0.024c0-0.002,0-0.005,0-0.008l-0.032-0.031c-0.025-0.001-0.048-0.013-0.065-0.031
	c0.002-0.015-0.009-0.029-0.024-0.032c-0.003,0-0.006,0-0.009,0v-0.063l-0.037-0.03v-0.032l-0.195-0.188v-0.033
	c-0.015,0.002-0.029-0.009-0.032-0.024c0-0.003,0-0.005,0-0.008l-0.066-0.062v-0.035c0.002-0.016-0.01-0.03-0.025-0.032
	c-0.002,0-0.005,0-0.007,0v-0.056c-0.016-0.019-0.038-0.03-0.063-0.033l-0.032-0.03c0.001-0.017-0.01-0.031-0.026-0.032
	c-0.002,0-0.005,0-0.008,0v-0.034c-0.016,0.002-0.03-0.01-0.032-0.026c0-0.002,0-0.004,0-0.006v-0.034l-0.032-0.029v-0.032
	c-0.016,0.002-0.03-0.009-0.032-0.024c0-0.003,0-0.005,0-0.008l-0.034-0.033v-0.03h-0.031v-0.031
	c0.002-0.016-0.008-0.03-0.024-0.032c-0.003,0-0.006,0-0.008,0c0.001-0.016-0.011-0.03-0.026-0.032c-0.002,0-0.004,0-0.006,0
	l-0.065-0.063v-0.031c0.002-0.016-0.009-0.03-0.024-0.032c-0.003,0-0.005,0-0.007,0v-0.032l-0.033-0.032v-0.189h-0.033
	c0.002-0.015-0.008-0.029-0.024-0.032c-0.002,0-0.005,0-0.008,0v-0.029l-0.032-0.032v-0.034h-0.031
	c-0.055-0.004-0.109-0.015-0.162-0.032h-1.136c-0.211,0.016-0.416,0.025-0.614,0.032v0.031h-0.134l-0.194,0.062
	c-0.238,0.021-0.487,0.042-0.747,0.063c-0.034,0.004-0.068,0.015-0.098,0.031c-0.035-0.002-0.069,0.008-0.096,0.031
	c-0.046-0.005-0.092,0.006-0.13,0.032c-0.025,0.001-0.048,0.012-0.064,0.031c-0.045-0.005-0.091,0.006-0.13,0.031
	c-0.03,0.017-0.063,0.028-0.097,0.032c-0.04,0.02-0.084,0.031-0.129,0.032c-0.047,0.012-0.091,0.033-0.129,0.063
	c-0.066,0.02-0.13,0.042-0.195,0.062c-0.008,0.031-0.033,0.056-0.064,0.063c-0.035-0.002-0.07,0.009-0.098,0.031
	c-0.035,0.016-0.068,0.038-0.097,0.064c-0.04,0.02-0.084,0.03-0.129,0.032v0.032c-0.016,0.007-0.032,0.013-0.049,0.016
	c-0.002,0.017-0.007,0.032-0.016,0.046l-0.065,0.063l-0.032,0.032h-0.034v0.031c-0.041,0.041-0.086,0.085-0.128,0.128l-0.13,0.126
	c-0.064,0.042-0.129,0.087-0.195,0.125v0.221c-0.042,0.021-0.096,0.053-0.162,0.094v0.063c-0.056,0.029-0.11,0.06-0.162,0.094v0.22
	c-0.042,0.021-0.096,0.054-0.162,0.095v0.219c-0.041,0.021-0.096,0.053-0.162,0.095v1.421c-0.023,0.026-0.035,0.062-0.032,0.096
	c-0.021,0.041-0.055,0.074-0.097,0.097l-0.032,0.028c-0.055,0-0.108,0-0.163,0c-0.019,0.018-0.031,0.039-0.033,0.063
	c-0.016,0.034-0.038,0.065-0.065,0.095l-0.064,0.03c-0.055,0.003-0.109,0.015-0.161,0.032h-0.07
	c-0.063-0.021-0.128-0.032-0.194-0.032c-0.015-0.034-0.037-0.065-0.064-0.093c-0.023-0.025-0.035-0.061-0.032-0.096v-0.01
	c-0.151-0.01-0.302-0.015-0.454-0.021v0.028c-0.056,0.029-0.11,0.063-0.163,0.099v0.063c-0.055,0.012-0.109,0.023-0.162,0.047v0.271
	c-0.056,0.028-0.109,0.06-0.162,0.093v0.062c-0.252-0.007-0.509-0.013-0.761-0.017c-0.351-0.01-0.703-0.015-1.053-0.017v0.063
	l0.064,0.063l0.097,0.094c0.019,0.018,0.03,0.039,0.032,0.063v0.032l0.033,0.031v0.1c-0.019,0.018-0.031,0.037-0.033,0.063
	c-0.023,0.025-0.034,0.06-0.032,0.095c-0.017,0.02-0.04,0.028-0.065,0.028h-0.066c-0.027,0.022-0.062,0.034-0.098,0.032h-0.129
	c-0.063-0.021-0.128-0.03-0.194-0.032c-0.03-0.024-0.062-0.046-0.098-0.063c-0.016-0.031-0.038-0.064-0.065-0.094
	c-0.032-0.009-0.056-0.035-0.063-0.064v-0.315c-0.031-0.009-0.056-0.03-0.064-0.063c-0.002-0.024-0.014-0.048-0.033-0.063v-0.06
	c-0.044-0.043-0.079-0.077-0.1-0.097c-0.032-0.008-0.056-0.03-0.064-0.063c-0.001-0.021-0.013-0.046-0.033-0.063
	c-0.017-0.033-0.039-0.064-0.064-0.096L21.21,19.07c-0.023-0.026-0.035-0.063-0.032-0.096c-0.02-0.018-0.031-0.037-0.033-0.063
	V18.88l-0.194-0.063c-0.009-0.028-0.034-0.055-0.065-0.063c-0.026-0.027-0.047-0.059-0.064-0.093
	c-0.055-0.017-0.109-0.039-0.161-0.063h-0.196c-0.056,0.002-0.11,0.012-0.162,0.031c-0.051-0.021-0.106-0.033-0.162-0.031
	c-0.022-0.021-0.042-0.041-0.065-0.062c-0.016-0.036-0.037-0.068-0.065-0.095v-0.347c-0.081,0.018-0.158,0.05-0.228,0.094
	l-0.263,0.127v0.126c-0.078,0.038-0.154,0.081-0.227,0.127c-0.087,0.02-0.175,0.039-0.263,0.062
	c-0.11,0.021-0.218,0.054-0.323,0.095c-0.053,0.024-0.106,0.045-0.162,0.063c-0.081,0.021-0.157,0.051-0.227,0.095
	c-0.035,0.016-0.067,0.037-0.096,0.063c-0.111,0.021-0.219,0.055-0.325,0.096v0.066c-0.11,0.021-0.219,0.055-0.325,0.096v0.063
	c-0.11,0.021-0.219,0.055-0.324,0.096v0.063c-0.132,0.021-0.263,0.054-0.391,0.095c-0.035,0.018-0.067,0.037-0.096,0.063
	c-0.056,0.025-0.11,0.063-0.163,0.098v0.063c-0.131,0.021-0.261,0.053-0.389,0.093c-0.035,0.019-0.068,0.038-0.098,0.063
	c-0.11,0.021-0.218,0.053-0.322,0.094v0.063c-0.111,0.021-0.22,0.053-0.325,0.094v0.063c-0.132,0.021-0.262,0.054-0.388,0.095
	c-0.036,0.018-0.069,0.036-0.099,0.063c-0.11,0.021-0.218,0.055-0.323,0.096v0.063c-0.056,0.029-0.111,0.062-0.163,0.098v0.063
	c-0.081,0.021-0.157,0.049-0.228,0.095c-0.035,0.017-0.068,0.036-0.097,0.063c-0.111,0.021-0.219,0.056-0.324,0.095v0.063
	c-0.11,0.021-0.219,0.055-0.324,0.096v0.062c-0.081,0.021-0.157,0.054-0.228,0.097c-0.035,0.016-0.067,0.037-0.095,0.063
	c-0.081,0.021-0.159,0.05-0.229,0.095c-0.035,0.017-0.067,0.039-0.096,0.063c-0.08,0.02-0.157,0.051-0.227,0.094
	c-0.036,0.018-0.069,0.037-0.098,0.063c-0.056,0.027-0.11,0.061-0.161,0.094v0.063c-0.111,0.021-0.219,0.058-0.324,0.099v0.063
	c-0.111,0.021-0.22,0.054-0.325,0.095v0.065c-0.111,0.021-0.219,0.053-0.323,0.094v0.063c-0.164,0.023-0.326,0.059-0.487,0.098
	v0.063c-0.081,0.021-0.157,0.053-0.228,0.094c-0.035,0.017-0.067,0.039-0.095,0.063c-0.111,0.021-0.22,0.056-0.325,0.097v0.063
	c-0.111,0.021-0.22,0.055-0.325,0.094V22.9c-0.111,0.022-0.219,0.056-0.324,0.095v0.063c-0.152,0.021-0.314,0.055-0.486,0.096v0.063
	c-0.11,0.021-0.219,0.053-0.325,0.094v0.063c-0.111,0.021-0.22,0.053-0.325,0.094v0.064c-0.111,0.021-0.219,0.055-0.324,0.096v0.063
	c-0.107,0.021-0.212,0.056-0.313,0.099v0.063c-0.081,0.021-0.158,0.051-0.228,0.096c-0.035,0.016-0.068,0.037-0.097,0.063
	c-0.111,0.021-0.22,0.055-0.326,0.096v0.063c-0.11,0.021-0.218,0.055-0.323,0.096v0.063c-0.151,0.021-0.313,0.054-0.487,0.094v0.063
	c-0.132,0.021-0.262,0.052-0.388,0.093c-0.036,0.017-0.069,0.039-0.098,0.063c-0.131,0.021-0.261,0.053-0.388,0.094
	c-0.036,0.017-0.068,0.037-0.098,0.063c-0.11,0.021-0.219,0.054-0.324,0.095v0.063c-0.088,0-0.176,0-0.263,0v0.221
	c-0.016,0.035-0.039,0.066-0.065,0.094l-0.03,0.025c-0.016-0.004-0.03,0.01-0.033,0.023c0,0.002,0,0.004,0,0.006
	c-0.034,0.004-0.066,0.016-0.096,0.031H4.515l-0.13-0.063H4.254L4.125,25.34H3.997c-0.052-0.025-0.106-0.046-0.162-0.063
	C3.804,25.255,3.78,25.23,3.771,25.2v-0.031l-0.065-0.063V25.2c-0.022,0.021-0.042,0.043-0.065,0.063l-0.033,0.062
	c-0.003,0.034-0.015,0.065-0.032,0.094c-0.041,0.021-0.084,0.031-0.129,0.033c-0.053,0.022-0.107,0.044-0.162,0.062H2.989
	c-0.055-0.018-0.109-0.037-0.162-0.062H2.762c-0.042-0.022-0.087-0.043-0.129-0.065c-0.022-0.019-0.043-0.041-0.063-0.062
	c-0.053-0.024-0.107-0.046-0.163-0.062c-0.043,0-0.065-0.016-0.065-0.033c-0.066-0.018-0.131-0.035-0.194-0.063
	c-0.045-0.002-0.09-0.015-0.13-0.037l-0.064-0.063c-0.043-0.045-0.076-0.071-0.098-0.094c-0.019-0.017-0.03-0.039-0.031-0.063
	c-0.004-0.034-0.016-0.064-0.034-0.096c-0.002-0.024-0.013-0.049-0.032-0.063c-0.001-0.024-0.014-0.049-0.033-0.063
	c-0.004-0.032-0.015-0.064-0.031-0.094V23.93c-0.001-0.024-0.013-0.05-0.032-0.063c-0.02-0.018-0.032-0.036-0.035-0.061
	C1.611,23.777,1.6,23.744,1.595,23.71v-0.5c-0.019-0.017-0.031-0.039-0.032-0.063c-0.026-0.027-0.048-0.061-0.065-0.094
	c-0.002-0.027-0.014-0.05-0.033-0.063V22.18c-0.002-0.024-0.014-0.049-0.033-0.063v-0.063c0.003-0.035-0.009-0.07-0.032-0.098
	v-1.104c-0.002-0.021-0.015-0.047-0.035-0.062c0-0.043-0.01-0.063-0.032-0.063c-0.017-0.033-0.039-0.063-0.066-0.094v-1.498
	c-0.021-0.021-0.042-0.041-0.063-0.062C1.2,19.043,1.189,19.012,1.172,18.98v-1.165c-0.026-0.028-0.048-0.06-0.065-0.094
	c-0.014,0.002-0.028-0.007-0.031-0.022c0-0.003,0-0.006,0-0.009V16.78L1.013,16.72l-0.035-0.063v-0.894
	c-0.017-0.035-0.038-0.066-0.064-0.094C0.913,15.645,0.9,15.622,0.88,15.608v-0.6c-0.004-0.032-0.015-0.064-0.032-0.093
	c-0.025-0.001-0.048-0.012-0.065-0.031c0.003-0.035-0.009-0.07-0.033-0.095v-0.595c0.019-0.015,0.031-0.038,0.033-0.062
	c0.026-0.028,0.048-0.061,0.064-0.095c0.025-0.002,0.048-0.013,0.066-0.031l0.033-0.03h0.032v-0.232
	c0.004-0.034,0.017-0.066,0.035-0.095c0.025-0.001,0.048-0.013,0.065-0.031c0.021-0.042,0.055-0.074,0.097-0.094
	c0.021-0.021,0.042-0.041,0.065-0.062c0.026-0.028,0.048-0.06,0.064-0.094l0.06-0.064c0.042,0,0.065-0.01,0.065-0.031
	c0.056-0.018,0.109-0.039,0.162-0.064c0.022-0.021,0.043-0.042,0.066-0.062h0.128c0.064-0.021,0.13-0.042,0.193-0.062
	c0.072-0.014,0.139-0.046,0.194-0.095c0.034-0.004,0.067-0.015,0.097-0.032h0.325c0.045,0,0.089,0.011,0.13,0.032
	c0.035-0.002,0.069,0.009,0.096,0.032h0.066c0.053,0.024,0.106,0.046,0.162,0.063c0.009,0.031,0.034,0.054,0.065,0.062
	c0.026,0.028,0.048,0.06,0.063,0.096h0.098c0.129-0.022,0.263-0.044,0.388-0.064c0.02-0.015,0.031-0.038,0.033-0.062h1.069
	l0.021,0.016c0.439,0.01,0.882,0.016,1.316,0.016c0.03,0.03,0.053,0.052,0.063,0.062l0.015,0.02
	c0.129,0.006,0.252,0.011,0.373,0.018c0.162,0.019,0.324,0.029,0.487,0.031c0.022,0.02,0.042,0.042,0.064,0.062h0.648
	c0.021-0.02,0.042-0.042,0.065-0.062H7.85c0.563,0,1.125-0.012,1.688-0.031h0.096c0.03-0.018,0.063-0.029,0.097-0.034l0.162-0.016
	v-0.37h0.421c0.063-0.02,0.129-0.031,0.196-0.031c-0.002-0.016,0.009-0.029,0.025-0.031c0.002,0,0.005,0,0.007,0v-0.032h0.257
	c0.015,0.003,0.03-0.007,0.033-0.022c0-0.003,0-0.006,0-0.009h0.422c0.016,0.002,0.03-0.009,0.032-0.025c0-0.002,0-0.005,0-0.007
	h0.324c0.118-0.021,0.237-0.032,0.357-0.031c0.017-0.019,0.04-0.029,0.064-0.032c0.025-0.002,0.048-0.014,0.065-0.032h0.258
	c0.025,0,0.048-0.012,0.063-0.031h0.098c0.024-0.002,0.048-0.013,0.064-0.032h0.358c0.128-0.021,0.258-0.031,0.389-0.032
	c0.017-0.018,0.04-0.028,0.065-0.03c0.015,0.002,0.029-0.009,0.031-0.024c0-0.002,0-0.004,0-0.006h0.455v-0.033
	c0.246,0.018,0.483,0.027,0.714,0.032h0.129c0.012-0.004,0.023-0.009,0.033-0.017c0.165,0,0.327-0.006,0.487-0.016h0.097
	l0.034-0.036h0.13c0.118-0.02,0.238-0.03,0.358-0.031h0.259c0.028-0.022,0.063-0.033,0.098-0.031h0.263
	c0.034-0.004,0.067-0.015,0.097-0.032h0.227c0.185,0,0.369-0.01,0.553-0.031h0.125c0.016,0.002,0.03-0.009,0.033-0.025
	c0-0.002,0-0.005,0-0.008h0.194c-0.002-0.015,0.009-0.029,0.024-0.031c0.002,0,0.006,0,0.009,0h0.294
	c0.04-0.02,0.084-0.03,0.129-0.031h0.325c0.045,0,0.089-0.012,0.129-0.032h0.263c0.045,0,0.089-0.011,0.129-0.031h0.129
	c0.025-0.001,0.048-0.012,0.066-0.03h0.193c0.017-0.02,0.04-0.031,0.065-0.033h0.263c0.04-0.02,0.084-0.03,0.129-0.03h0.284
	c0.044-0.001,0.089-0.012,0.129-0.032h0.263c0.174,0,0.347-0.011,0.52-0.032h0.097c0.025-0.001,0.048-0.013,0.065-0.032h0.129
	l0.032-0.031h0.227c0.03-0.017,0.063-0.028,0.097-0.032h0.197c0.098,0,0.196-0.01,0.292-0.032v0.038h0.129v0.159l0.033,0.031v0.03
	l0.034,0.03v0.032c0.035-0.002,0.069,0.009,0.096,0.031c0.055-0.001,0.11,0.009,0.162,0.031c0.016,0.019,0.04,0.03,0.064,0.032
	v0.033c0.066,0,0.132,0.011,0.195,0.03c0.077-0.001,0.153,0.009,0.227,0.032h0.357c0.052-0.019,0.106-0.029,0.162-0.032
	c0.017-0.018,0.04-0.029,0.065-0.03l0.032-0.033c0.045,0,0.09-0.012,0.131-0.032c0.024-0.002,0.047-0.013,0.065-0.031h0.129
	c0.027-0.023,0.062-0.035,0.098-0.031c0.04-0.021,0.084-0.031,0.129-0.032v-0.03c0.035,0.001,0.07-0.01,0.097-0.033
	c0.015,0.002,0.029-0.009,0.032-0.024c0-0.002,0-0.004,0-0.006h0.13c0.027-0.023,0.062-0.035,0.098-0.032h0.097
	c-0.002-0.016,0.008-0.03,0.024-0.032c0.002,0,0.005,0,0.008,0v-0.033c0.035,0.003,0.07-0.008,0.096-0.031
	c0.016,0.002,0.03-0.008,0.033-0.024c0-0.002,0-0.005,0-0.008h0.129c0.027-0.022,0.061-0.034,0.096-0.032
	c0.041-0.02,0.084-0.03,0.129-0.031v-0.031c0.045-0.001,0.09-0.012,0.131-0.031v-0.033h0.064c0.052-0.018,0.106-0.028,0.162-0.03
	c0.027-0.023,0.063-0.034,0.097-0.032v-0.03c0.025-0.001,0.048-0.012,0.065-0.03v-0.033h0.162c0.031-0.018,0.064-0.029,0.1-0.033
	c0.03-0.017,0.063-0.027,0.097-0.03l0.032-0.032c0.034-0.002,0.068-0.011,0.098-0.026v-0.035h0.162
	c0.03-0.017,0.063-0.028,0.097-0.031c0.017-0.019,0.041-0.03,0.065-0.031v-0.032c0.035,0.003,0.07-0.009,0.096-0.032
	c0.016,0.001,0.029-0.01,0.03-0.026c0-0.002,0-0.004,0-0.005h0.097c0.017-0.019,0.041-0.03,0.066-0.032
	c0.016-0.019,0.04-0.029,0.064-0.031l0.036-0.032c0.045-0.001,0.088-0.012,0.128-0.031c0.026-0.002,0.05-0.014,0.067-0.034h0.032
	c0.027-0.023,0.062-0.035,0.097-0.032c0.017-0.018,0.04-0.029,0.064-0.031l0.033-0.032c0.034-0.004,0.067-0.014,0.098-0.031V10.88
	h0.13c0.017-0.019,0.04-0.03,0.064-0.032c0.041-0.02,0.084-0.031,0.129-0.031l0.035-0.033c0.025-0.002,0.048-0.013,0.065-0.03
	c0.024-0.002,0.048-0.014,0.064-0.032h0.033c0.04-0.021,0.084-0.031,0.129-0.032c0.015-0.017,0.037-0.029,0.06-0.033v-0.031
	c0.035-0.003,0.069-0.014,0.1-0.031v-0.032h0.13l0.033-0.03h0.032c0.04-0.021,0.084-0.032,0.13-0.032V10.47
	c0.024-0.001,0.048-0.013,0.064-0.031v-0.032h0.097c0.018-0.018,0.041-0.028,0.065-0.03c0.04-0.021,0.084-0.032,0.129-0.032v-0.042
	c0.043-0.02,0.086-0.04,0.129-0.059h0.066c0.03-0.017,0.063-0.027,0.096-0.032c0.017-0.021,0.042-0.033,0.068-0.035v-0.033
	c0.045,0,0.089-0.01,0.129-0.03v-0.032h0.129c0.017-0.019,0.04-0.03,0.064-0.032c0.041-0.02,0.085-0.03,0.13-0.031V9.988
	c0.045,0,0.089-0.011,0.13-0.032v-0.03h0.064c0.04-0.021,0.083-0.032,0.127-0.032c0.017-0.019,0.04-0.029,0.065-0.031l0.032-0.032
	c0.025,0,0.048-0.011,0.064-0.03V9.769h0.097c0.016-0.019,0.04-0.031,0.064-0.032c0.041-0.02,0.085-0.031,0.131-0.031V9.672
	c0.025,0,0.049-0.011,0.066-0.03V9.611h0.097c0.04-0.021,0.084-0.032,0.129-0.033c0.016-0.021,0.039-0.033,0.065-0.035V9.516
	c0.025-0.002,0.048-0.013,0.064-0.032c0.024-0.001,0.048-0.012,0.065-0.029h0.065c0.04-0.021,0.084-0.033,0.129-0.033
	c0.017-0.018,0.04-0.029,0.065-0.032l0.032-0.031c0.035-0.004,0.069-0.016,0.099-0.034V9.294h0.096
	c0.017-0.018,0.04-0.029,0.064-0.031c0.04-0.02,0.084-0.031,0.13-0.032V9.199c0.016,0.002,0.03-0.009,0.032-0.025
	c0-0.002,0-0.004,0-0.006V9.137h0.096c0.017-0.019,0.04-0.031,0.066-0.032c0.03-0.017,0.063-0.027,0.097-0.031V9.042
	c0.024-0.001,0.048-0.012,0.064-0.031V8.979h0.13l0.033-0.032c0.04-0.021,0.084-0.03,0.128-0.031V8.885
	c0.043-0.021,0.087-0.042,0.13-0.063V8.79h0.064c0.04-0.02,0.085-0.031,0.13-0.031V8.727c0.043-0.021,0.087-0.042,0.13-0.061h0.034
	c0.026-0.023,0.061-0.035,0.095-0.032c0.027-0.019,0.051-0.03,0.076-0.032V8.57c0.045,0,0.088-0.011,0.128-0.031V8.506h0.065
	c0.03-0.017,0.063-0.028,0.097-0.033l0.034-0.032v-0.03c0.024-0.002,0.047-0.013,0.063-0.031c0.024-0.002,0.048-0.013,0.064-0.031
	h0.032l0.033-0.034c0.03-0.018,0.063-0.028,0.097-0.033V8.254c0.025-0.002,0.048-0.014,0.064-0.033v-0.03h0.102l0.033-0.03
	c0.016-0.021,0.04-0.032,0.065-0.034l0.032-0.031c0.024-0.001,0.047-0.013,0.064-0.03V8.032h0.098
	c-0.002-0.015,0.009-0.029,0.025-0.031c0.002,0,0.005,0,0.007,0c-0.002-0.016,0.009-0.03,0.025-0.032c0.001,0,0.001,0,0.002,0V7.938
	c0.015,0.002,0.029-0.008,0.032-0.023c0-0.002,0-0.005,0-0.007V7.876h0.097V7.843h0.064V7.405c0.11,0,0.216,0.009,0.325,0.016V7.086
	c0.357,0.016,0.713,0.025,1.07,0.032V7.086c0.17,0.019,0.333,0.029,0.487,0.032h0.065v0.319h0.263v0.026h0.358v0.032
	c0.015-0.002,0.029,0.008,0.031,0.023c0,0.002,0,0.005,0,0.008v0.316l5.9,0.016v0.047h0.194c-0.017-0.018-0.039-0.028-0.063-0.03
	V7.859h0.389v0.017L43.36,7.908h1.978V7.876c0.141,0,0.283,0,0.422,0v0.031h0.097V7.876h0.389v0.031h0.226V7.876h0.391v0.031h1.134
	V7.876h0.39v0.031h0.291V7.876c0.271,0,0.543,0,0.813,0v0.031h0.356c0.021,0.026,0.032,0.06,0.029,0.094
	c0.025,0.028,0.048,0.06,0.063,0.094h1.137c0.017,0.029,0.027,0.062,0.031,0.094v0.064h0.063c0.022,0.02,0.058,0.052,0.099,0.094
	v0.031l0.031-0.031h33.92c-0.021-0.02-0.044-0.043-0.063-0.064V8.161c0.269,0.013,0.536,0.022,0.811,0.03l0.068,0.063
	c0.147,0,0.302,0.008,0.452,0.015V7.622c0.053-0.036,0.104-0.068,0.16-0.097V7.438c0.715,0.019,1.43,0.029,2.142,0.031
	C88.828,7.504,88.861,7.546,88.889,7.592z M32.271,13.743c-0.035,0.005-0.067,0.01-0.096,0.017h0.081L32.271,13.743z M33.696,14.752
	c-0.016,0.018-0.04,0.029-0.064,0.031c-0.002,0.016,0.009,0.03,0.025,0.033c0.003,0,0.005,0,0.008,0v0.598h0.064v0.126
	c0.016,0.02,0.04,0.031,0.065,0.033c-0.002,0.016,0.009,0.03,0.024,0.032c0.002,0,0.004,0,0.006,0v0.031
	c0,0.016,0.012,0.029,0.028,0.03c0.001,0,0.003,0,0.005,0v0.032c0.016-0.002,0.03,0.009,0.033,0.024c0,0.003,0,0.005,0,0.008
	c0.034,0.003,0.066,0.014,0.095,0.031v0.063h0.033c0.018,0,0.035,0.006,0.049,0.018c0.024,0.006,0.054,0.012,0.082,0.021v0.016
	c0.012,0.002,0.023,0.007,0.032,0.016c0.045,0,0.089,0.011,0.129,0.031v0.025c0.017,0.018,0.04,0.029,0.065,0.031
	c0.034,0.003,0.067,0.014,0.097,0.031h0.161c0.218-0.021,0.433-0.031,0.65-0.031c0.062-0.021,0.127-0.031,0.193-0.031v-0.06h0.13
	c0.108-0.021,0.218-0.03,0.328-0.028c0.017-0.019,0.041-0.03,0.065-0.033c0.03-0.016,0.063-0.026,0.097-0.03v-0.035
	c0.016,0.002,0.029-0.009,0.031-0.024c0-0.002,0-0.004,0-0.006V15.7h0.13v-1.199c-0.854-0.016-1.708-0.026-2.562-0.031
	L33.696,14.752L33.696,14.752L33.696,14.752z M36.809,14.01c-0.256,0-0.518,0.009-0.777,0.016c0.263,0,0.519,0,0.777,0V14.01
	L36.809,14.01z M1.433,14.248c0.001,0.016-0.01,0.029-0.025,0.031c-0.002,0-0.005,0-0.007,0L1.364,14.31v0.094
	c0.021-0.041,0.055-0.073,0.097-0.094c0.022-0.041,0.043-0.088,0.065-0.125v-0.031c-0.002,0.024-0.014,0.047-0.033,0.063
	C1.478,14.234,1.456,14.245,1.433,14.248z M1.627,14.027l0.065-0.031V13.93l-0.065,0.066V14.027z M1.952,13.807
	c0-0.017,0.006-0.034,0.017-0.047l-0.017,0.016c-0.056,0.017-0.11,0.038-0.162,0.063c-0.016,0.017-0.036,0.036-0.065,0.063h0.13
	v-0.063C1.881,13.815,1.916,13.804,1.952,13.807L1.952,13.807z M1.661,16.614c0.007,0.009,0.019,0.019,0.032,0.032v-0.033
	L1.661,16.614L1.661,16.614z M3.605,24.977c0.027,0.026,0.048,0.062,0.064,0.094c0.019,0.018,0.03,0.037,0.032,0.063v-0.125
	c0.019-0.016,0.031-0.04,0.032-0.063c0.011-0.014,0.022-0.021,0.034-0.029c-0.068,0-0.133,0-0.196,0
	C3.591,24.93,3.603,24.952,3.605,24.977L3.605,24.977L3.605,24.977z"/>
<linearGradient id="shape5_1_" gradientUnits="userSpaceOnUse" x1="256.0859" y1="736.4883" x2="256.0859" y2="750.2383" gradientTransform="matrix(1 0 0 1 -188.54 -719.8203)">
	<stop  offset="0" style="stop-color:#4F3468"/>
	<stop  offset="0.4892" style="stop-color:#893BDC"/>
	<stop  offset="1" style="stop-color:#CA4EE5"/>
</linearGradient>
<path id="shape5" fill="url(#shape5_1_)" d="M77.377,31.251c-0.313,0-0.625-0.05-0.922-0.147c-0.298,0.104-0.609,0.147-0.922,0.147
	H67.34c-0.186,0-0.443-0.009-0.77-0.075c-0.217,0.051-0.439,0.075-0.664,0.075h-2.664c-0.816,0-1.605-0.342-2.166-0.937
	c-0.078-0.086-0.15-0.174-0.219-0.271l-0.91,0.648c-0.504,0.356-1.1,0.554-1.725,0.554h-3.584c-0.719,0-1.402-0.269-1.938-0.722
	c-0.614,0.427-1.353,0.651-2.112,0.651c-0.75,0-1.479-0.222-2.104-0.642c-0.164-0.11-0.314-0.233-0.451-0.37
	c-1.021-1.021-1.363-2.423-0.92-3.753l0.044-0.128l0.079-0.203c-1.8-0.254-3.146-1.767-3.146-3.646V22.24
	c0-0.741,0.274-1.45,0.773-1.996l4.748-5.232c0.646-1.069,1.763-1.679,3.078-1.679h0.41c2.065,0,3.686,1.618,3.686,3.684
	c0,0-0.001,0.289-0.003,0.331c0.555-0.653,1.37-1.044,2.26-1.044h8.397c0.262,0,0.519,0.034,0.769,0.103
	c0.25-0.067,0.508-0.103,0.771-0.103h9.219c0.242,0,0.48,0.029,0.718,0.087c0.231-0.058,0.479-0.087,0.719-0.087h8.396
	c0.918,0,1.798,0.433,2.354,1.159c0.563,0.726,0.753,1.689,0.519,2.573l-0.406,1.532c-0.146,0.541-0.434,1.02-0.825,1.395
	c-0.019,0.188-0.049,0.372-0.098,0.555l-0.41,1.537c-0.072,0.282-0.188,0.551-0.347,0.799c0.168,0.533,0.188,1.109,0.041,1.656
	l-0.414,1.539c-0.351,1.297-1.521,2.202-2.865,2.202H77.377z M74.338,23.782l0.018-0.009h-0.797l-0.004,0.009H74.338z"/>
<path id="ACE" fill="#FFFFFF" d="M51.568,23.163h-3.789c-0.409,0-0.717-0.308-0.717-0.718c0-0.104,0-0.104,0-0.204l5.018-5.531
	c0.104-0.307,0.311-0.41,0.615-0.41h0.41c0.408,0,0.717,0.308,0.717,0.717c0,0.102,0,0.205,0,0.205l-2.459,3.584h4.402
	c0.613,0,0.311,1.127-0.104,1.639l-4.509,5.531c-0.309,0.308-0.717,0.308-1.021,0.104c-0.205-0.206-0.309-0.41-0.205-0.719
	L51.568,23.163L51.568,23.163L51.568,23.163z M59.046,19.271l0.409,0.41l-4.813,8.603h3.584l2.147-1.536h2.974l-0.104,1.536h2.663
	l1.535-9.013H59.046L59.046,19.271z M63.552,20.809l-0.104,3.482h-2.97l2.047-3.482H63.552L63.552,20.809z M67.343,28.284h8.191
	l0.612-2.15l-0.818,0.614h-5.732l1.739-5.941h6.452l0.408-1.535h-9.217l-2.355,7.988c-0.102,0.104-0.102,0.309-0.102,0.409
	c0,0.103,0,0.205,0.103,0.31c0.103,0.105,0.205,0.203,0.308,0.203C67.137,28.284,67.24,28.284,67.343,28.284L67.343,28.284
	L67.343,28.284z M79.632,19.271l0.312,0.609l-2.563,8.396h8.193l0.408-1.534h-5.121l0.718-2.458h4.711l0.41-1.537h-4.507
	l0.611-1.941h4.814l0.408-1.535H79.632L79.632,19.271z"/>
<g>
	<defs>
		<path id="SVGID_1_" d="M88.889,7.592c0,0.044,0.01,0.087,0.031,0.125v0.632h1.49c0.056-0.002,0.111,0.008,0.162,0.031
			c0.025,0.001,0.049,0.013,0.066,0.031h0.029V8.38h0.063c0.054,0.025,0.105,0.045,0.162,0.061c0.025,0.029,0.047,0.061,0.063,0.096
			c0.021,0,0.034,0.02,0.034,0.062c0.02,0.017,0.029,0.04,0.031,0.064v0.063C91.01,8.754,91,8.786,90.996,8.819
			c-0.018,0.018-0.028,0.04-0.034,0.064h0.065v0.553c0.014,0.014,0.021,0.03,0.031,0.047c0.022,0.026,0.037,0.06,0.032,0.094
			l0.031,0.033v0.251c-0.002,0.024-0.015,0.048-0.031,0.063l-0.063,0.062v0.759h-0.473l0.018,0.028
			c0.002,0.024,0.014,0.048,0.033,0.063c0.02,0.021,0.041,0.042,0.063,0.063v0.097l-0.019,0.016
			c-2.818-0.01-5.635-0.015-8.444-0.016c-0.035,0.017-0.067,0.038-0.099,0.064l-0.389,0.015v0.079h-0.031v-0.079
			c-0.356,0.02-0.717,0.041-1.069,0.063v0.016h-0.13v0.064L80.02,11.2c-0.017,0.018-0.029,0.033-0.047,0.048
			c-0.021,0.039-0.033,0.082-0.033,0.125c-0.029,0.007-0.063,0.014-0.098,0.018v0.474c0.057,0,0.109,0.008,0.161,0.016v1.865
			c-0.106,0-0.215,0-0.323,0v0.157h-0.878v0.094c-0.002,0.024-0.014,0.047-0.032,0.062c-0.021,0.026-0.035,0.061-0.033,0.095
			c-0.016,0.019-0.036,0.03-0.063,0.03c-0.023,0.002-0.05,0.014-0.064,0.033c-0.02,0.018-0.041,0.029-0.063,0.031l-0.031,0.031
			c-0.041,0.02-0.086,0.031-0.132,0.031h-0.321v0.032c-0.215,0.042-0.433,0.088-0.646,0.127v0.063
			c-0.188,0.021-0.37,0.052-0.551,0.095c-0.035,0.016-0.068,0.037-0.1,0.062c-0.563,0.021-1.125,0.054-1.687,0.095
			c-0.036,0.016-0.067,0.037-0.099,0.063c-0.444-0.011-0.889-0.023-1.33-0.031l-0.064,0.063H73.55
			c-0.051,0.023-0.106,0.034-0.161,0.031h-9.125c-0.1,0.01-0.203,0.02-0.308,0.032V15c-0.476,0.021-0.963,0.053-1.46,0.095v0.064
			c-0.52,0.021-1.027,0.052-1.523,0.094c-0.035,0.016-0.068,0.038-0.098,0.063c-0.409,0.021-0.809,0.052-1.199,0.093
			c-0.035,0.016-0.068,0.037-0.098,0.063c-0.367,0.02-0.745,0.052-1.135,0.094v0.063c-0.436,0.02-0.865,0.053-1.299,0.094v0.063
			c-0.41,0.021-0.812,0.052-1.199,0.094c-0.036,0.016-0.069,0.037-0.098,0.063c-0.521,0.021-1.027,0.054-1.524,0.093
			c-0.034,0.017-0.067,0.038-0.099,0.063c-0.668-0.021-1.328-0.031-1.979-0.031c-0.021-0.021-0.056-0.053-0.099-0.094l-1.035-0.061
			l-0.098-0.095c-0.106-0.02-0.226-0.041-0.355-0.063V15.66c-0.108-0.018-0.219-0.04-0.323-0.06v-0.09
			c-0.054-0.023-0.104-0.044-0.161-0.063v-0.098c-0.107-0.02-0.217-0.042-0.322-0.063v-0.095c-0.055-0.024-0.106-0.046-0.162-0.063
			c-0.021-0.039-0.032-0.082-0.035-0.126c-0.023-0.046-0.057-0.088-0.094-0.125l-0.1-0.095l-0.266-0.126
			c-0.021-0.039-0.029-0.083-0.031-0.126c-0.023-0.047-0.061-0.09-0.1-0.127c-2.274,0.019-4.56,0.041-6.841,0.064v0.061
			c-0.716-0.021-1.429-0.031-2.142-0.032c-0.021-0.02-0.056-0.052-0.099-0.095c-0.107-0.019-0.226-0.041-0.356-0.062V14.26
			c-0.021,0.01-0.042,0.015-0.065,0.015c0.002,0.015-0.008,0.029-0.021,0.031c-0.003,0-0.006,0-0.009,0L39.438,14.4
			c-0.016,0.02-0.039,0.032-0.065,0.032c0.002,0.016-0.008,0.03-0.024,0.032c-0.002,0-0.005,0-0.008,0
			c0.001,0.016-0.01,0.029-0.025,0.031c-0.002,0-0.004,0-0.008,0l-0.031,0.031c-0.024,0.002-0.049,0.013-0.065,0.032h-0.028
			c-0.029,0.017-0.063,0.028-0.097,0.032l-0.032,0.031H39.02v0.031l-0.064,0.031l-0.033,0.031h-0.018
			c-0.019,0.007-0.034,0.018-0.047,0.032H38.82c-0.03,0.017-0.063,0.027-0.098,0.031c0.002,0.016-0.009,0.03-0.024,0.032
			c-0.003,0-0.005,0-0.007,0c-0.033,0.031-0.065,0.063-0.099,0.094c-0.016-0.002-0.03,0.01-0.032,0.026c0,0.002,0,0.004,0,0.006
			c-0.024,0.001-0.047,0.013-0.063,0.031c-0.015-0.003-0.029,0.007-0.032,0.021c0,0.003-0.001,0.006,0,0.009
			c-0.025,0.001-0.048,0.012-0.064,0.031h-0.034c0.002,0.016-0.009,0.029-0.024,0.032c-0.002,0-0.005,0-0.008,0
			c-0.016,0.019-0.039,0.03-0.064,0.032c0.002,0.015-0.009,0.029-0.023,0.031c-0.003,0-0.006,0-0.01,0v0.037
			c-0.106,0.021-0.215,0.031-0.324,0.031l-0.033,0.031c-0.018,0.018-0.041,0.03-0.064,0.032l-0.064,0.063v0.031l-0.033,0.031v0.031
			c-0.029,0.017-0.063,0.028-0.096,0.032l-0.033,0.032v0.028H37.56c-0.017,0.019-0.041,0.03-0.064,0.032l-0.098,0.094v0.058
			c-0.029,0.018-0.063,0.029-0.098,0.033l-0.064,0.063v0.063c-0.03,0.016-0.063,0.026-0.098,0.031
			c-0.017,0.019-0.039,0.03-0.064,0.031v0.063h-0.1V16c-0.017,0.018-0.041,0.029-0.064,0.029c0.002,0.016-0.008,0.03-0.023,0.033
			c-0.002,0-0.005,0-0.008,0c-0.016-0.002-0.029,0.007-0.031,0.022c0,0.002,0,0.005,0,0.008l-0.029,0.048v0.062h-0.196
			c0.001,0.016-0.011,0.031-0.027,0.032c-0.002,0-0.004,0-0.006,0v0.064h-0.096c-0.017,0.02-0.04,0.031-0.065,0.034
			c-0.072,0.021-0.148,0.031-0.226,0.031c-0.074,0.021-0.151,0.032-0.228,0.03v0.063H35.78c-0.041,0.02-0.084,0.031-0.129,0.031
			c-0.264,0.021-0.519,0.031-0.777,0.031H34.12c-0.045,0-0.091-0.011-0.131-0.031c-0.035,0.002-0.069-0.009-0.097-0.031
			c-0.024-0.002-0.049-0.013-0.064-0.032V16.39c-0.041-0.02-0.084-0.031-0.129-0.031c0.015-0.002,0.029,0.008,0.031,0.023
			c0,0.002,0,0.005,0,0.008v0.252c0.012,0.012,0.022,0.021,0.035,0.032l0.031,0.031v0.126c-0.011,0.01-0.021,0.021-0.031,0.031
			l-0.035-0.031h-0.553c-0.033-0.004-0.066-0.015-0.097-0.032l-0.063-0.063v-0.063c-0.029-0.017-0.063-0.027-0.097-0.032V16.61
			l-0.032-0.031V16.55c-0.016,0.003-0.029-0.008-0.033-0.024c0-0.002,0-0.005,0-0.008l-0.031-0.031
			c-0.025-0.001-0.049-0.013-0.065-0.031c0.002-0.015-0.009-0.029-0.024-0.032c-0.002,0-0.006,0-0.008,0v-0.063l-0.037-0.03v-0.032
			l-0.195-0.188v-0.033c-0.016,0.002-0.029-0.009-0.032-0.024c0-0.003,0-0.005,0-0.008l-0.065-0.062v-0.035
			c0.002-0.016-0.011-0.03-0.025-0.032c-0.002,0-0.005,0-0.008,0v-0.056c-0.016-0.019-0.037-0.03-0.063-0.033l-0.031-0.03
			c0-0.017-0.011-0.031-0.026-0.032c-0.002,0-0.005,0-0.009,0v-0.034c-0.016,0.002-0.029-0.01-0.031-0.026c0-0.002,0-0.004,0-0.006
			v-0.034l-0.032-0.029v-0.032c-0.017,0.002-0.03-0.009-0.032-0.024c0-0.003,0-0.005,0-0.008l-0.033-0.033v-0.03h-0.031v-0.031
			c0.002-0.016-0.008-0.03-0.024-0.032c-0.003,0-0.006,0-0.008,0c0.001-0.016-0.011-0.03-0.026-0.032c-0.002,0-0.004,0-0.006,0
			l-0.064-0.063v-0.031c0.002-0.016-0.01-0.03-0.024-0.032c-0.003,0-0.005,0-0.007,0v-0.032l-0.033-0.032v-0.189h-0.033
			c0.002-0.015-0.008-0.029-0.023-0.032c-0.002,0-0.006,0-0.008,0v-0.029l-0.032-0.032v-0.034h-0.031
			c-0.055-0.004-0.108-0.015-0.162-0.032H30.46c-0.211,0.016-0.416,0.025-0.614,0.032v0.031h-0.134l-0.193,0.062
			c-0.238,0.021-0.488,0.042-0.748,0.063c-0.033,0.004-0.067,0.015-0.098,0.031c-0.035-0.002-0.068,0.008-0.096,0.031
			c-0.047-0.005-0.092,0.006-0.131,0.032c-0.024,0.001-0.047,0.012-0.063,0.031c-0.045-0.005-0.091,0.006-0.13,0.031
			c-0.03,0.017-0.063,0.028-0.098,0.032c-0.039,0.02-0.084,0.031-0.129,0.032c-0.047,0.012-0.09,0.033-0.129,0.063
			c-0.065,0.02-0.129,0.042-0.194,0.062c-0.009,0.031-0.033,0.056-0.064,0.063c-0.034-0.002-0.069,0.009-0.098,0.031
			c-0.035,0.016-0.068,0.038-0.097,0.064c-0.041,0.02-0.084,0.03-0.129,0.032v0.032c-0.017,0.007-0.033,0.013-0.05,0.016
			c-0.002,0.017-0.007,0.032-0.016,0.046l-0.065,0.063l-0.031,0.032h-0.035v0.031c-0.04,0.041-0.086,0.085-0.127,0.128l-0.131,0.126
			c-0.063,0.042-0.129,0.087-0.194,0.125v0.221c-0.042,0.021-0.097,0.053-0.162,0.094v0.063c-0.056,0.029-0.11,0.06-0.162,0.094
			v0.22c-0.042,0.021-0.096,0.054-0.162,0.095v0.219c-0.041,0.021-0.096,0.053-0.161,0.095v1.421
			c-0.023,0.026-0.035,0.062-0.033,0.096c-0.021,0.041-0.055,0.074-0.097,0.097l-0.032,0.028c-0.055,0-0.107,0-0.162,0
			c-0.02,0.018-0.031,0.039-0.033,0.063c-0.016,0.034-0.038,0.065-0.065,0.095l-0.063,0.03c-0.055,0.003-0.109,0.015-0.161,0.032
			h-0.07c-0.063-0.021-0.128-0.032-0.194-0.032c-0.015-0.034-0.037-0.065-0.063-0.093c-0.022-0.025-0.035-0.061-0.032-0.096v-0.01
			c-0.15-0.01-0.302-0.015-0.454-0.021v0.028c-0.056,0.029-0.11,0.063-0.163,0.099v0.063c-0.055,0.012-0.109,0.023-0.162,0.047
			v0.271c-0.056,0.028-0.108,0.06-0.162,0.093v0.062c-0.252-0.007-0.508-0.013-0.76-0.017c-0.352-0.01-0.703-0.015-1.054-0.017
			v0.063l0.063,0.063l0.098,0.094c0.02,0.018,0.029,0.039,0.031,0.063v0.032l0.033,0.031v0.1c-0.019,0.018-0.031,0.037-0.033,0.063
			c-0.022,0.025-0.033,0.06-0.031,0.095c-0.018,0.02-0.04,0.028-0.064,0.028H22.29c-0.027,0.022-0.063,0.034-0.098,0.032h-0.129
			c-0.063-0.021-0.129-0.03-0.195-0.032c-0.029-0.024-0.062-0.046-0.098-0.063c-0.016-0.031-0.037-0.064-0.064-0.094
			c-0.032-0.009-0.057-0.035-0.063-0.064v-0.315c-0.03-0.009-0.056-0.03-0.063-0.063c-0.002-0.024-0.014-0.048-0.033-0.063v-0.06
			c-0.044-0.043-0.079-0.077-0.1-0.097c-0.033-0.008-0.057-0.03-0.064-0.063c-0.001-0.021-0.014-0.046-0.033-0.063
			c-0.017-0.033-0.039-0.064-0.064-0.096L21.21,19.07c-0.022-0.026-0.035-0.063-0.032-0.096c-0.02-0.018-0.031-0.037-0.033-0.063
			V18.88l-0.193-0.063c-0.01-0.028-0.034-0.055-0.065-0.063c-0.026-0.027-0.047-0.059-0.063-0.093
			c-0.055-0.017-0.109-0.039-0.161-0.063h-0.196c-0.056,0.002-0.11,0.012-0.162,0.031c-0.051-0.021-0.106-0.033-0.162-0.031
			c-0.022-0.021-0.042-0.041-0.065-0.062c-0.016-0.036-0.037-0.068-0.065-0.095v-0.347c-0.081,0.018-0.158,0.05-0.228,0.094
			l-0.263,0.127v0.126c-0.078,0.038-0.154,0.081-0.227,0.127c-0.087,0.02-0.175,0.039-0.263,0.062
			c-0.11,0.021-0.218,0.054-0.323,0.095c-0.053,0.024-0.106,0.045-0.162,0.063c-0.081,0.021-0.157,0.051-0.227,0.095
			c-0.035,0.016-0.067,0.037-0.096,0.063c-0.111,0.021-0.219,0.055-0.325,0.096v0.066c-0.11,0.021-0.219,0.055-0.325,0.096v0.063
			c-0.11,0.021-0.219,0.055-0.324,0.096v0.063c-0.132,0.021-0.263,0.054-0.391,0.095c-0.035,0.018-0.067,0.037-0.096,0.063
			c-0.056,0.025-0.11,0.063-0.163,0.098v0.063c-0.131,0.021-0.261,0.053-0.389,0.093c-0.035,0.019-0.068,0.038-0.098,0.063
			c-0.11,0.021-0.218,0.053-0.322,0.094v0.063c-0.111,0.021-0.22,0.053-0.325,0.094v0.063c-0.132,0.021-0.262,0.054-0.388,0.095
			c-0.036,0.018-0.069,0.036-0.099,0.063c-0.11,0.021-0.218,0.055-0.323,0.096v0.063c-0.056,0.029-0.111,0.062-0.163,0.098v0.063
			c-0.081,0.021-0.157,0.049-0.228,0.095c-0.035,0.017-0.068,0.036-0.097,0.063c-0.111,0.021-0.219,0.056-0.324,0.095v0.063
			c-0.11,0.021-0.219,0.055-0.324,0.096v0.062c-0.081,0.021-0.157,0.054-0.228,0.097c-0.035,0.016-0.067,0.037-0.095,0.063
			c-0.081,0.021-0.159,0.05-0.229,0.095c-0.035,0.017-0.067,0.039-0.096,0.063c-0.08,0.02-0.157,0.051-0.227,0.094
			c-0.036,0.018-0.069,0.037-0.098,0.063c-0.056,0.027-0.11,0.061-0.161,0.094v0.063c-0.111,0.021-0.219,0.058-0.324,0.099v0.063
			c-0.111,0.021-0.22,0.054-0.325,0.095v0.065c-0.111,0.021-0.219,0.053-0.323,0.094v0.063c-0.164,0.023-0.326,0.059-0.487,0.098
			v0.063c-0.081,0.021-0.157,0.053-0.228,0.094c-0.035,0.017-0.067,0.039-0.095,0.063c-0.111,0.021-0.22,0.056-0.325,0.097v0.063
			c-0.111,0.021-0.22,0.055-0.325,0.094V22.9c-0.111,0.022-0.219,0.056-0.324,0.095v0.063c-0.152,0.021-0.314,0.055-0.486,0.096
			v0.063c-0.11,0.021-0.219,0.053-0.325,0.094v0.063c-0.111,0.021-0.22,0.053-0.325,0.094v0.064
			c-0.111,0.021-0.219,0.055-0.324,0.096v0.063c-0.107,0.021-0.212,0.056-0.313,0.099v0.063c-0.081,0.021-0.158,0.051-0.228,0.096
			c-0.035,0.016-0.068,0.037-0.097,0.063c-0.111,0.021-0.22,0.055-0.326,0.096v0.063c-0.11,0.021-0.218,0.055-0.323,0.096v0.063
			c-0.151,0.021-0.313,0.054-0.487,0.094v0.063c-0.132,0.021-0.262,0.052-0.388,0.093c-0.036,0.017-0.069,0.039-0.098,0.063
			c-0.131,0.021-0.261,0.053-0.388,0.094c-0.036,0.017-0.068,0.037-0.098,0.063c-0.11,0.021-0.219,0.054-0.324,0.095v0.063
			c-0.088,0-0.176,0-0.263,0v0.221c-0.016,0.035-0.039,0.066-0.065,0.094l-0.03,0.025c-0.016-0.004-0.03,0.01-0.033,0.023
			c0,0.002,0,0.004,0,0.006c-0.034,0.004-0.066,0.016-0.096,0.031H4.515l-0.13-0.063H4.254L4.125,25.34H3.997
			c-0.052-0.025-0.106-0.046-0.162-0.063C3.804,25.255,3.78,25.23,3.771,25.2v-0.031l-0.065-0.063V25.2
			c-0.022,0.021-0.042,0.043-0.065,0.063l-0.033,0.062c-0.003,0.034-0.015,0.065-0.032,0.094c-0.041,0.021-0.084,0.031-0.129,0.033
			c-0.053,0.022-0.107,0.044-0.162,0.062H2.989c-0.055-0.018-0.109-0.037-0.162-0.062H2.762c-0.042-0.022-0.087-0.043-0.129-0.065
			c-0.022-0.019-0.043-0.041-0.063-0.062c-0.053-0.024-0.107-0.046-0.163-0.062c-0.043,0-0.065-0.016-0.065-0.033
			c-0.066-0.018-0.131-0.035-0.194-0.063c-0.045-0.002-0.09-0.015-0.13-0.037l-0.064-0.063c-0.043-0.045-0.076-0.071-0.098-0.094
			c-0.019-0.017-0.03-0.039-0.031-0.063c-0.004-0.034-0.016-0.064-0.034-0.096c-0.002-0.024-0.013-0.049-0.032-0.063
			c-0.001-0.024-0.014-0.049-0.033-0.063c-0.004-0.032-0.015-0.064-0.031-0.094V23.93c-0.001-0.024-0.013-0.05-0.032-0.063
			c-0.02-0.018-0.032-0.036-0.035-0.061C1.611,23.777,1.6,23.744,1.595,23.71v-0.5c-0.019-0.017-0.031-0.039-0.032-0.063
			c-0.026-0.027-0.048-0.061-0.065-0.094c-0.002-0.027-0.014-0.05-0.033-0.063V22.18c-0.002-0.024-0.014-0.049-0.033-0.063v-0.063
			c0.003-0.035-0.009-0.07-0.032-0.098v-1.104c-0.002-0.021-0.015-0.047-0.035-0.062c0-0.043-0.01-0.063-0.032-0.063
			c-0.017-0.033-0.039-0.063-0.066-0.094v-1.498c-0.021-0.021-0.042-0.041-0.063-0.062C1.2,19.043,1.189,19.012,1.172,18.98v-1.165
			c-0.026-0.028-0.048-0.06-0.065-0.094c-0.014,0.002-0.028-0.007-0.031-0.022c0-0.003,0-0.006,0-0.009V16.78L1.013,16.72
			l-0.035-0.063v-0.894c-0.017-0.035-0.038-0.066-0.064-0.094C0.913,15.645,0.9,15.622,0.88,15.608v-0.6
			c-0.004-0.032-0.015-0.064-0.032-0.093c-0.025-0.001-0.048-0.012-0.065-0.031c0.003-0.035-0.009-0.07-0.033-0.095v-0.595
			c0.019-0.015,0.031-0.038,0.033-0.062c0.026-0.028,0.048-0.061,0.064-0.095c0.025-0.002,0.048-0.013,0.066-0.031l0.033-0.03h0.032
			v-0.232c0.004-0.034,0.017-0.066,0.035-0.095c0.025-0.001,0.048-0.013,0.065-0.031c0.021-0.042,0.055-0.074,0.097-0.094
			c0.021-0.021,0.042-0.041,0.065-0.062c0.026-0.028,0.048-0.06,0.064-0.094l0.06-0.064c0.042,0,0.065-0.01,0.065-0.031
			c0.056-0.018,0.109-0.039,0.162-0.064c0.022-0.021,0.043-0.042,0.066-0.062h0.128c0.064-0.021,0.13-0.042,0.193-0.062
			c0.072-0.014,0.139-0.046,0.194-0.095c0.034-0.004,0.067-0.015,0.097-0.032h0.325c0.045,0,0.089,0.011,0.13,0.032
			c0.035-0.002,0.069,0.009,0.096,0.032h0.066c0.053,0.024,0.106,0.046,0.162,0.063c0.009,0.031,0.034,0.054,0.065,0.062
			c0.026,0.028,0.048,0.06,0.063,0.096h0.098c0.129-0.022,0.263-0.044,0.388-0.064c0.02-0.015,0.031-0.038,0.033-0.062h1.069
			l0.021,0.016c0.439,0.01,0.882,0.016,1.316,0.016c0.03,0.03,0.053,0.052,0.063,0.062l0.015,0.02
			c0.129,0.006,0.252,0.011,0.373,0.018c0.162,0.019,0.324,0.029,0.487,0.031c0.022,0.02,0.042,0.042,0.064,0.062h0.648
			c0.021-0.02,0.042-0.042,0.065-0.062H7.85c0.563,0,1.125-0.012,1.688-0.031h0.096c0.03-0.018,0.063-0.029,0.097-0.034l0.162-0.016
			v-0.37h0.421c0.063-0.02,0.129-0.031,0.196-0.031c-0.002-0.016,0.009-0.029,0.025-0.031c0.002,0,0.005,0,0.007,0v-0.032h0.257
			c0.015,0.003,0.03-0.007,0.033-0.022c0-0.003,0-0.006,0-0.009h0.422c0.016,0.002,0.03-0.009,0.032-0.025c0-0.002,0-0.005,0-0.007
			h0.324c0.118-0.021,0.237-0.032,0.357-0.031c0.017-0.019,0.04-0.029,0.064-0.032c0.025-0.002,0.048-0.014,0.065-0.032h0.258
			c0.025,0,0.048-0.012,0.063-0.031h0.098c0.024-0.002,0.048-0.013,0.064-0.032h0.358c0.128-0.021,0.258-0.031,0.389-0.032
			c0.017-0.018,0.04-0.028,0.065-0.03c0.015,0.002,0.029-0.009,0.031-0.024c0-0.002,0-0.004,0-0.006h0.455v-0.033
			c0.246,0.018,0.483,0.027,0.714,0.032h0.129c0.012-0.004,0.023-0.009,0.033-0.017c0.165,0,0.327-0.006,0.487-0.016h0.097
			l0.034-0.036h0.13c0.118-0.02,0.238-0.03,0.358-0.031h0.259c0.028-0.022,0.063-0.033,0.098-0.031h0.263
			c0.034-0.004,0.067-0.015,0.097-0.032h0.227c0.185,0,0.369-0.01,0.553-0.031h0.125c0.016,0.002,0.03-0.009,0.033-0.025
			c0-0.002,0-0.005,0-0.008h0.194c-0.002-0.015,0.009-0.029,0.024-0.031c0.002,0,0.006,0,0.009,0h0.294
			c0.04-0.02,0.084-0.03,0.129-0.031h0.325c0.045,0,0.089-0.012,0.129-0.032h0.263c0.045,0,0.089-0.011,0.129-0.031h0.129
			c0.025-0.001,0.048-0.012,0.066-0.03h0.193c0.017-0.02,0.04-0.031,0.065-0.033h0.263c0.04-0.02,0.084-0.03,0.129-0.03h0.284
			c0.044-0.001,0.089-0.012,0.129-0.032h0.263c0.174,0,0.347-0.011,0.52-0.032h0.098c0.024-0.001,0.047-0.013,0.064-0.032h0.129
			l0.032-0.031h0.228c0.029-0.017,0.063-0.028,0.097-0.032h0.196c0.099,0,0.196-0.01,0.293-0.032v0.038h0.129v0.159l0.033,0.031
			v0.03l0.033,0.03v0.032c0.035-0.002,0.069,0.009,0.096,0.031c0.056-0.001,0.11,0.009,0.162,0.031
			c0.017,0.019,0.041,0.03,0.064,0.032v0.033c0.066,0,0.132,0.011,0.195,0.03c0.076-0.001,0.152,0.009,0.227,0.032h0.357
			c0.052-0.019,0.105-0.029,0.162-0.032c0.017-0.018,0.039-0.029,0.064-0.03l0.032-0.033c0.045,0,0.09-0.012,0.131-0.032
			c0.024-0.002,0.047-0.013,0.065-0.031h0.129c0.027-0.023,0.062-0.035,0.098-0.031c0.04-0.021,0.084-0.031,0.129-0.032v-0.03
			c0.035,0.001,0.07-0.01,0.098-0.033c0.015,0.002,0.028-0.009,0.031-0.024c0-0.002,0-0.004,0-0.006h0.131
			c0.026-0.023,0.062-0.035,0.098-0.032h0.097c-0.002-0.016,0.008-0.03,0.024-0.032c0.002,0,0.004,0,0.008,0v-0.033
			c0.035,0.003,0.07-0.008,0.096-0.031c0.016,0.002,0.03-0.008,0.033-0.024c0-0.002,0-0.005,0-0.008h0.129
			c0.027-0.022,0.061-0.034,0.096-0.032c0.041-0.02,0.084-0.03,0.129-0.031v-0.031c0.045-0.001,0.09-0.012,0.131-0.031v-0.033h0.064
			c0.053-0.018,0.105-0.028,0.162-0.03c0.027-0.023,0.063-0.034,0.097-0.032v-0.03c0.025-0.001,0.048-0.012,0.065-0.03v-0.033h0.162
			c0.031-0.018,0.063-0.029,0.1-0.033c0.03-0.017,0.063-0.027,0.098-0.03l0.031-0.032c0.034-0.002,0.068-0.011,0.098-0.026v-0.035
			h0.162c0.03-0.017,0.063-0.028,0.098-0.031c0.017-0.019,0.041-0.03,0.064-0.031v-0.032c0.035,0.003,0.07-0.009,0.096-0.032
			c0.017,0.001,0.029-0.01,0.031-0.026c0-0.002,0-0.004,0-0.005h0.096c0.018-0.019,0.041-0.03,0.066-0.032
			c0.016-0.019,0.04-0.029,0.064-0.031l0.035-0.032c0.045-0.001,0.089-0.012,0.129-0.031c0.025-0.002,0.05-0.014,0.066-0.034h0.032
			c0.027-0.023,0.062-0.035,0.097-0.032c0.018-0.018,0.041-0.029,0.064-0.031l0.033-0.032c0.033-0.004,0.066-0.014,0.098-0.031
			V10.88h0.13c0.017-0.019,0.04-0.03,0.064-0.032c0.041-0.02,0.084-0.031,0.129-0.031l0.034-0.033
			c0.025-0.002,0.049-0.013,0.065-0.03c0.024-0.002,0.048-0.014,0.064-0.032h0.032c0.041-0.021,0.084-0.031,0.129-0.032
			c0.016-0.017,0.037-0.029,0.061-0.033v-0.031c0.035-0.003,0.069-0.014,0.1-0.031v-0.032h0.131l0.033-0.03h0.031
			c0.04-0.021,0.084-0.032,0.131-0.032V10.47c0.023-0.001,0.047-0.013,0.063-0.031v-0.032h0.097c0.018-0.018,0.041-0.028,0.065-0.03
			c0.04-0.021,0.084-0.032,0.129-0.032v-0.042c0.043-0.02,0.086-0.04,0.129-0.059h0.065c0.03-0.017,0.063-0.027,0.097-0.032
			c0.017-0.021,0.042-0.033,0.067-0.035v-0.033c0.045,0,0.09-0.01,0.129-0.03v-0.032h0.129c0.018-0.019,0.041-0.03,0.064-0.032
			c0.041-0.02,0.085-0.03,0.131-0.031V9.988c0.045,0,0.088-0.011,0.129-0.032v-0.03h0.064c0.04-0.021,0.083-0.032,0.127-0.032
			c0.018-0.019,0.04-0.029,0.064-0.031l0.033-0.032c0.024,0,0.047-0.011,0.063-0.03V9.769h0.097c0.016-0.019,0.04-0.031,0.064-0.032
			c0.041-0.02,0.085-0.031,0.131-0.031V9.672c0.025,0,0.049-0.011,0.066-0.03V9.611h0.097c0.04-0.021,0.084-0.032,0.129-0.033
			c0.016-0.021,0.039-0.033,0.065-0.035V9.516c0.024-0.002,0.047-0.013,0.063-0.032c0.024-0.001,0.048-0.012,0.065-0.029h0.064
			c0.04-0.021,0.084-0.033,0.129-0.033c0.018-0.018,0.04-0.029,0.065-0.032l0.032-0.031c0.035-0.004,0.068-0.016,0.099-0.034V9.294
			h0.096c0.017-0.018,0.04-0.029,0.064-0.031c0.04-0.02,0.084-0.031,0.13-0.032V9.199c0.016,0.002,0.029-0.009,0.031-0.025
			c0-0.002,0-0.004,0-0.006V9.137h0.097c0.017-0.019,0.04-0.031,0.065-0.032c0.03-0.017,0.063-0.027,0.098-0.031V9.042
			c0.023-0.001,0.048-0.012,0.064-0.031V8.979h0.129l0.033-0.032c0.04-0.021,0.084-0.03,0.129-0.031V8.885
			c0.043-0.021,0.086-0.042,0.129-0.063V8.79h0.064c0.04-0.02,0.085-0.031,0.13-0.031V8.727c0.043-0.021,0.087-0.042,0.13-0.061
			h0.034c0.026-0.023,0.062-0.035,0.095-0.032c0.027-0.019,0.051-0.03,0.076-0.032V8.57c0.045,0,0.088-0.011,0.128-0.031V8.506
			h0.065c0.029-0.017,0.063-0.028,0.097-0.033l0.034-0.032v-0.03c0.023-0.002,0.047-0.013,0.063-0.031
			c0.024-0.002,0.049-0.013,0.064-0.031h0.032l0.032-0.034c0.031-0.018,0.063-0.028,0.098-0.033V8.254
			c0.025-0.002,0.048-0.014,0.064-0.033v-0.03h0.102l0.033-0.03c0.016-0.021,0.039-0.032,0.064-0.034l0.032-0.031
			c0.024-0.001,0.047-0.013,0.063-0.03V8.032h0.099c-0.002-0.015,0.009-0.029,0.024-0.031c0.002,0,0.006,0,0.008,0
			c-0.002-0.016,0.009-0.03,0.024-0.032c0.001,0,0.001,0,0.003,0V7.938c0.014,0.002,0.028-0.008,0.031-0.023
			c0-0.002,0-0.005,0-0.007V7.876H34.3V7.843h0.063V7.405c0.11,0,0.216,0.009,0.325,0.016V7.086c0.357,0.016,0.713,0.025,1.07,0.032
			V7.086c0.17,0.019,0.332,0.029,0.486,0.032h0.064v0.319h0.264v0.026h0.357v0.032c0.016-0.002,0.029,0.008,0.031,0.023
			c0,0.002,0,0.005,0,0.008v0.316l5.9,0.016v0.047h0.193c-0.017-0.018-0.039-0.028-0.063-0.03V7.859h0.389v0.017l-0.031,0.032h1.979
			V7.876c0.141,0,0.283,0,0.422,0v0.031h0.098V7.876h0.389v0.031h0.227V7.876h0.391v0.031h1.135V7.876h0.389v0.031h0.292V7.876
			c0.271,0,0.543,0,0.813,0v0.031h0.355c0.021,0.026,0.033,0.06,0.03,0.094c0.026,0.028,0.048,0.06,0.063,0.094h1.135
			c0.018,0.029,0.029,0.062,0.033,0.094v0.064h0.063c0.023,0.02,0.057,0.052,0.098,0.094v0.031l0.032-0.031h33.919
			c-0.021-0.02-0.043-0.043-0.063-0.064V8.161c0.269,0.013,0.537,0.022,0.811,0.03l0.068,0.063c0.147,0,0.302,0.008,0.451,0.015
			V7.622c0.054-0.036,0.104-0.068,0.162-0.097V7.438c0.713,0.019,1.428,0.029,2.141,0.031C88.828,7.504,88.861,7.546,88.889,7.592z
			 M32.271,13.743c-0.035,0.005-0.067,0.01-0.097,0.017h0.081L32.271,13.743z M33.695,14.752c-0.016,0.018-0.039,0.029-0.063,0.031
			c-0.002,0.016,0.009,0.03,0.025,0.033c0.003,0,0.005,0,0.008,0v0.598h0.063v0.126c0.017,0.02,0.041,0.031,0.065,0.033
			c-0.002,0.016,0.009,0.03,0.024,0.032c0.002,0,0.004,0,0.006,0v0.031c0,0.016,0.012,0.029,0.027,0.03c0.002,0,0.004,0,0.006,0
			v0.032c0.016-0.002,0.029,0.009,0.033,0.024c0,0.003,0,0.005,0,0.008c0.033,0.003,0.065,0.014,0.094,0.031v0.063h0.033
			c0.019,0,0.035,0.006,0.049,0.018c0.024,0.006,0.055,0.012,0.082,0.021v0.016c0.013,0.002,0.023,0.007,0.033,0.016
			c0.045,0,0.088,0.011,0.129,0.031v0.025c0.017,0.018,0.039,0.029,0.064,0.031c0.034,0.003,0.066,0.014,0.098,0.031h0.16
			c0.219-0.021,0.434-0.031,0.65-0.031c0.063-0.021,0.127-0.031,0.193-0.031v-0.06h0.129c0.108-0.021,0.219-0.03,0.328-0.028
			c0.018-0.019,0.041-0.03,0.065-0.033c0.03-0.016,0.063-0.026,0.097-0.03v-0.035c0.016,0.002,0.029-0.009,0.031-0.024
			c0-0.002,0-0.004,0-0.006V15.7h0.13v-1.199c-0.854-0.016-1.708-0.026-2.562-0.031v0.282H33.695L33.695,14.752z M36.809,14.01
			c-0.256,0-0.518,0.009-0.776,0.016c0.263,0,0.519,0,0.776,0V14.01L36.809,14.01z M1.433,14.248
			c0.001,0.016-0.01,0.029-0.025,0.031c-0.002,0-0.005,0-0.007,0L1.364,14.31v0.094c0.021-0.041,0.055-0.073,0.097-0.094
			c0.022-0.041,0.043-0.088,0.065-0.125v-0.031c-0.002,0.024-0.014,0.047-0.033,0.063C1.478,14.234,1.456,14.245,1.433,14.248z
			 M1.627,14.027l0.065-0.031V13.93l-0.065,0.066V14.027z M1.952,13.807c0-0.017,0.006-0.034,0.017-0.047l-0.017,0.016
			c-0.056,0.017-0.11,0.038-0.162,0.063c-0.016,0.017-0.036,0.036-0.065,0.063h0.13v-0.063C1.881,13.815,1.916,13.804,1.952,13.807
			L1.952,13.807z M1.661,16.614c0.007,0.009,0.019,0.019,0.032,0.032v-0.033L1.661,16.614L1.661,16.614z M3.605,24.977
			c0.027,0.026,0.048,0.062,0.064,0.094c0.019,0.018,0.03,0.037,0.032,0.063v-0.125c0.019-0.016,0.031-0.04,0.032-0.063
			c0.011-0.014,0.022-0.021,0.034-0.029c-0.068,0-0.133,0-0.196,0C3.591,24.93,3.603,24.952,3.605,24.977L3.605,24.977L3.605,24.977
			z"/>
	</defs>
	<clipPath id="SVGID_2_">
		<use xlink:href="#SVGID_1_"  overflow="visible"/>
	</clipPath>
	<g clip-path="url(#SVGID_2_)">
		<g opacity="0.7">
			
				<linearGradient id="SVGID_3_" gradientUnits="userSpaceOnUse" x1="-543.5713" y1="177.3496" x2="-523.9688" y2="177.3496" gradientTransform="matrix(1 0 0 1 561.3799 -165.6211)">
				<stop  offset="0" style="stop-color:#CA4EE5;stop-opacity:0"/>
				<stop  offset="0.4624" style="stop-color:#F6EBE6"/>
			</linearGradient>
			<polygon fill="url(#SVGID_3_)" points="18.075,21.363 17.809,21.098 22.415,16.489 22.415,15.071 24.421,13.062 26.178,13.062 
				37.146,2.093 37.411,2.36 26.333,13.44 24.579,13.44 22.792,15.224 22.792,16.647 			"/>
		</g>
		<g opacity="0.7">
			
				<linearGradient id="SVGID_4_" gradientUnits="userSpaceOnUse" x1="-506.4561" y1="177.4727" x2="-496.2637" y2="177.4727" gradientTransform="matrix(1 0 0 1 561.3799 -165.6211)">
				<stop  offset="0" style="stop-color:#CA4EE5;stop-opacity:0"/>
				<stop  offset="0.5753" style="stop-color:#F6EBE6"/>
			</linearGradient>
			<polygon fill="url(#SVGID_4_)" points="55.062,16.862 54.924,16.721 57.319,14.327 57.319,13.589 58.362,12.544 59.274,12.544 
				64.978,6.842 65.116,6.98 59.356,12.741 58.442,12.741 57.515,13.668 57.515,14.407 			"/>
		</g>
		<g>
			
				<linearGradient id="SVGID_5_" gradientUnits="userSpaceOnUse" x1="-531.1797" y1="179.8428" x2="-508.5723" y2="179.8428" gradientTransform="matrix(1 0 0 1 561.3799 -165.6211)">
				<stop  offset="0" style="stop-color:#CA4EE5;stop-opacity:0"/>
				<stop  offset="1" style="stop-color:#F6EBE6"/>
			</linearGradient>
			<polygon fill="url(#SVGID_5_)" points="30.505,25.334 30.2,25.027 35.513,19.713 35.513,18.077 37.827,15.763 39.85,15.763 
				52.499,3.11 52.808,3.419 40.032,16.196 38.008,16.196 35.946,18.256 35.946,19.895 			"/>
		</g>
		<g opacity="0.7">
			
				<linearGradient id="SVGID_6_" gradientUnits="userSpaceOnUse" x1="-543.9727" y1="178.7354" x2="-532.709" y2="178.7354" gradientTransform="matrix(1 0 0 1 561.3799 -165.6211)">
				<stop  offset="0" style="stop-color:#CA4EE5;stop-opacity:0"/>
				<stop  offset="0.5591" style="stop-color:#F6EBE6"/>
			</linearGradient>
			<polygon fill="url(#SVGID_6_)" points="17.532,18.668 17.407,18.541 21.557,14.392 21.557,13.718 22.509,12.766 23.341,12.766 
				28.546,7.561 28.671,7.687 23.415,12.944 22.581,12.944 21.734,13.792 21.734,14.466 			"/>
		</g>
		<g>
			
				<linearGradient id="SVGID_7_" gradientUnits="userSpaceOnUse" x1="-565.6387" y1="182.3369" x2="-554.373" y2="182.3369" gradientTransform="matrix(1 0 0 1 561.3799 -165.6211)">
				<stop  offset="0" style="stop-color:#CA4EE5;stop-opacity:0"/>
				<stop  offset="1" style="stop-color:#F6EBE6"/>
			</linearGradient>
			<polygon fill="url(#SVGID_7_)" points="-4.132,22.27 -4.259,22.143 -0.109,17.993 -0.109,17.321 0.844,16.368 1.676,16.368 
				6.88,11.163 7.007,11.288 1.749,16.546 0.917,16.546 0.069,17.394 0.069,18.069 			"/>
		</g>
		
			<linearGradient id="SVGID_8_" gradientUnits="userSpaceOnUse" x1="-552.5625" y1="178.6318" x2="-565.9615" y2="192.0309" gradientTransform="matrix(1 0 0 1 561.3799 -165.6211)">
			<stop  offset="0" style="stop-color:#CA4EE5;stop-opacity:0"/>
			<stop  offset="1" style="stop-color:#F6EBE6"/>
		</linearGradient>
		<polygon fill="url(#SVGID_8_)" points="7.882,11.905 -5.816,25.604 -1.736,25.604 11.948,11.92 		"/>
		
			<linearGradient id="SVGID_9_" gradientUnits="userSpaceOnUse" x1="-548.3687" y1="178.6318" x2="-563.0379" y2="193.3012" gradientTransform="matrix(1 0 0 1 561.3799 -165.6211)">
			<stop  offset="0" style="stop-color:#CA4EE5;stop-opacity:0"/>
			<stop  offset="1" style="stop-color:#F6EBE6"/>
		</linearGradient>
		<polygon fill="url(#SVGID_9_)" points="10.038,12.452 -3.659,26.148 3.403,26.148 17.087,12.466 		"/>
		
			<linearGradient id="SVGID_10_" gradientUnits="userSpaceOnUse" x1="-524.9312" y1="177.0146" x2="-546.2728" y2="198.3564" gradientTransform="matrix(1 0 0 1 561.3799 -165.6211)">
			<stop  offset="0" style="stop-color:#CA4EE5;stop-opacity:0"/>
			<stop  offset="0.7742" style="stop-color:#F6EBE6"/>
		</linearGradient>
		<polygon opacity="0.7" fill="url(#SVGID_10_)" enable-background="new    " points="32.124,10.579 12.196,30.506 22.472,30.506 
			42.38,10.6 		"/>
		
			<linearGradient id="SVGID_11_" gradientUnits="userSpaceOnUse" x1="-520.7397" y1="180.7314" x2="-528.9102" y2="188.9019" gradientTransform="matrix(1 0 0 1 561.3799 -165.6211)">
			<stop  offset="0" style="stop-color:#CA4EE5;stop-opacity:0"/>
			<stop  offset="0.672" style="stop-color:#F6EBE6"/>
		</linearGradient>
		<polygon opacity="0.7" fill="url(#SVGID_11_)" enable-background="new    " points="38.984,14.798 31.354,22.428 35.288,22.428 
			42.911,14.806 		"/>
		
			<linearGradient id="SVGID_12_" gradientUnits="userSpaceOnUse" x1="-510.3843" y1="176.042" x2="-518.5562" y2="184.2141" gradientTransform="matrix(1 0 0 1 561.3799 -165.6211)">
			<stop  offset="0" style="stop-color:#CA4EE5;stop-opacity:0"/>
			<stop  offset="0.7688" style="stop-color:#F6B8FF"/>
		</linearGradient>
		<polygon fill="url(#SVGID_12_)" points="49.339,10.11 41.708,17.741 45.643,17.741 53.265,10.118 		"/>
		
			<linearGradient id="SVGID_13_" gradientUnits="userSpaceOnUse" x1="-525.6973" y1="179.665" x2="-533.8682" y2="187.8361" gradientTransform="matrix(1 0 0 1 561.3799 -165.6211)">
			<stop  offset="0" style="stop-color:#CA4EE5;stop-opacity:0"/>
			<stop  offset="1" style="stop-color:#F6B8FF"/>
		</linearGradient>
		<polygon fill="url(#SVGID_13_)" points="34.026,13.733 26.396,21.363 30.329,21.363 37.952,13.741 		"/>
		<g>
			
				<linearGradient id="SVGID_14_" gradientUnits="userSpaceOnUse" x1="-544.2305" y1="187.7373" x2="-534.4746" y2="187.7373" gradientTransform="matrix(1 0 0 1 561.3799 -165.6211)">
				<stop  offset="0" style="stop-color:#CA4EE5;stop-opacity:0"/>
				<stop  offset="1" style="stop-color:#F6EBE6"/>
			</linearGradient>
			<polygon fill="url(#SVGID_14_)" points="17.364,26.994 17.149,26.781 26.689,17.239 26.905,17.454 			"/>
		</g>
	</g>
</g>
</svg>
