<?xml version="1.0" encoding="utf-8"?>
<!-- Generator: Adobe Illustrator 16.0.0, SVG Export Plug-In . SVG Version: 6.00 Build 0)  -->
<!DOCTYPE svg PUBLIC "-//W3C//DTD SVG 1.1//EN" "http://www.w3.org/Graphics/SVG/1.1/DTD/svg11.dtd">
<svg version="1.1" id="case1" xmlns="http://www.w3.org/2000/svg" xmlns:xlink="http://www.w3.org/1999/xlink" x="0px" y="0px"
	 width="92px" height="36px" viewBox="0 0 92 36" enable-background="new 0 0 92 36" xml:space="preserve">
<linearGradient id="galilar_1_" gradientUnits="userSpaceOnUse" x1="-66.7158" y1="1388.6846" x2="24.4165" y2="1388.6846" gradientTransform="matrix(1 0 0 1 67.3398 -1372.4307)">
	<stop  offset="0" style="stop-color:#CA4EE5"/>
	<stop  offset="0.3011" style="stop-color:#570090"/>
	<stop  offset="0.7419" style="stop-color:#893BDC"/>
	<stop  offset="1" style="stop-color:#CA4EE5"/>
</linearGradient>
<path id="galilar" fill="url(#galilar_1_)" d="M91.379,7.354c0.176-0.03,0.344,0.087,0.372,0.263
	c0.006,0.028,0.007,0.057,0.004,0.085v2.553h-6.026c-1.172,0.024-2.479,0.063-3.931,0.116c-1.425,0-2.849,0.013-4.272,0.04
	c-1.32,0.026-2.213,0.039-2.67,0.039c0.016,0.301-0.099,0.594-0.308,0.812c-0.368,0.458-0.903,0.75-1.487,0.812
	c-0.307-0.049-0.588-0.198-0.801-0.423c-0.236-0.25-0.494-0.483-0.766-0.696c-0.141-0.007-0.282-0.034-0.417-0.078
	c-0.175-0.043-0.341-0.107-0.496-0.193l-0.726-0.232c-0.226-0.068-0.455-0.094-0.688-0.077c-0.468-0.056-0.938-0.082-1.409-0.077
	c-0.533,0-1.171,0.026-1.906,0.077c-0.656,0-1.334,0.026-2.021,0.077c-0.005,0.132-0.03,0.262-0.075,0.387
	c-0.063,0.133-0.104,0.277-0.111,0.425l-0.27,0.117c-0.125,0.028-0.254,0.042-0.381,0.039c-0.008,0.13-0.021,0.259-0.04,0.387
	c-0.029,0.153-0.042,0.309-0.036,0.464c-0.061,0.254-0.082,0.514-0.075,0.773h-0.313c-1.043,0-2.188,0.013-3.432,0.039
	c-1.223,0-2.394,0.013-3.512,0.039c-1.094,0.052-2.021,0.078-2.787,0.077c-0.761,0.026-1.222,0.039-1.373,0.039
	c-0.177,0.037-0.354,0.063-0.533,0.077c-0.229,0.026-0.496,0.05-0.802,0.077c-0.325,0.076-0.657,0.127-0.991,0.155
	c-0.238,0.063-0.479,0.115-0.727,0.154H48.26l-0.188-0.47c-0.053-0.294-0.076-0.591-0.076-0.89
	c-0.047-0.229-0.072-0.463-0.076-0.697v-0.535c-0.268,0.106-0.552,0.171-0.839,0.193c-0.433,0.051-0.891,0.13-1.373,0.232
	c-0.458,0.079-0.903,0.168-1.336,0.273c-0.433,0.05-0.701,0.076-0.801,0.076c0,0.155-0.013,0.31-0.04,0.463
	c-0.062,0.107-0.101,0.226-0.114,0.349c0.024,1.502,0.23,2.997,0.612,4.45c0.407,1.572,0.853,3.068,1.334,4.488
	c0.509,1.366,0.955,2.514,1.337,3.442c0.407,0.903,0.608,1.368,0.608,1.394l0.149,0.271l-0.308,0.115
	c-0.271,0.146-0.553,0.271-0.837,0.389c-0.381,0.206-0.902,0.462-1.563,0.773c-0.953,0.414-1.883,0.879-2.787,1.392H41.7
	c-0.597-0.909-1.059-1.899-1.374-2.94c-0.483-1.394-0.94-2.851-1.372-4.371c-0.433-1.496-0.79-2.916-1.07-4.256
	c-0.182-0.902-0.411-1.794-0.686-2.671c-0.322,0.172-0.653,0.327-0.992,0.462c-0.082-0.01-0.16,0.038-0.188,0.116
	c0,0.027-0.04,0.04-0.113,0.04c-0.129,0.233-0.383,0.37-0.648,0.349c-0.966,0.311-2.003,0.324-2.978,0.04
	c-0.497-0.174-0.97-0.409-1.41-0.698c-0.042,0.072-0.109,0.126-0.188,0.153l-0.687,0.35c-0.667,1.414-1.142,2.91-1.41,4.449
	c-0.125,1.16-0.188,2.012-0.188,2.555v0.619c0.014,0.072-0.016,0.147-0.076,0.191c-0.051,0-0.077,0.039-0.077,0.117
	c-0.431,0-1.868-0.657-4.311-1.975l-0.229-0.114V21.7c0.305-0.696,0.623-1.433,0.954-2.204c0.281-0.801,0.561-1.537,0.84-2.207
	c0.254-0.67,0.458-1.276,0.61-1.817c0.152-0.463,0.24-0.751,0.268-0.85c-0.005-0.113-0.044-0.222-0.115-0.31
	c-0.052-0.094-0.081-0.199-0.085-0.307c-0.108-0.085-0.198-0.19-0.267-0.309c-0.102-0.104-0.205-0.209-0.306-0.31
	c-0.118-0.091-0.21-0.211-0.268-0.348c-0.346-0.103-0.708-0.143-1.068-0.116c-0.636,0-1.349,0.013-2.138,0.04
	c-0.814,0.052-1.717,0.09-2.709,0.115c-0.94,0.078-1.816,0.129-2.631,0.154l-3.205,0.116c-2.009,0-5.062,1.844-9.157,5.533
	l-0.305,0.31c-0.198,0.276-0.459,0.502-0.763,0.658c-0.356,0.438-0.584,0.709-0.686,0.813c-0.083,0.082-0.19,0.137-0.307,0.153
	c-0.261-0.041-0.479-0.224-0.571-0.472c-0.132-0.305-0.211-0.631-0.236-0.962c0-0.13-0.013-0.525-0.038-1.199
	c-0.023-0.646-0.088-1.409-0.188-2.283c-0.075-0.851-0.151-1.728-0.229-2.63c-0.101-0.877-0.205-1.598-0.304-2.167
	C0.519,10.553,0.578,9.89,0.953,9.4c0.25-0.283,0.614-0.439,0.992-0.427h18.999c0.134,0.01,0.264-0.047,0.346-0.154V8.668
	c0.084-0.057,0.15-0.138,0.188-0.233c0.04-0.108,0.09-0.212,0.151-0.31C21.87,7.98,22.15,7.913,22.43,7.932
	c0.276,0.023,0.553-0.03,0.801-0.153c0.148-0.052,0.304-0.079,0.461-0.078c0.166,0.003,0.328-0.051,0.458-0.155
	c0.329-0.083,0.648-0.199,0.953-0.347c0.271-0.101,0.5-0.292,0.648-0.541c0.209-0.138,0.337-0.37,0.343-0.62
	c0.051-0.26,0.104-0.645,0.152-1.162V4.529C26.205,4.17,26.332,3.813,26.59,3.56c0.265-0.115,0.551-0.168,0.839-0.154h0.304
	l0.115,0.154l0.841,0.813c0,0.18,0.317,0.141,0.953-0.116h0.496c0.201,0.15,0.337,0.371,0.38,0.617
	c0.077,0.336,0.153,0.683,0.229,1.041c0.82-0.104,1.647-0.154,2.475-0.149c0.515-0.049,1.034,0.002,1.53,0.149
	c0.087,0.024,0.177,0.037,0.267,0.04c0.132,0.058,0.276,0.085,0.42,0.078h9.73c0.006-0.225-0.033-0.448-0.114-0.658L44.94,5.071
	h1.717v0.31c-0.019,0.085,0.012,0.174,0.075,0.233c0,0.024,0.023,0.038,0.076,0.038h23.543c-0.006-0.091-0.021-0.182-0.037-0.271
	V4.877c-0.086-0.194-0.125-0.405-0.115-0.617l0.533-1.008l1.604-0.154h0.152v2.824l-0.116,0.04
	c-0.017,0.047-0.062,0.079-0.112,0.078c-0.031,0.034-0.059,0.073-0.076,0.116c0.354,0.348,0.75,0.646,1.186,0.889
	c0.617,0.337,1.313,0.511,2.021,0.502c0.28,0.028,0.786,0.053,1.523,0.078c0.736,0.051,1.551,0.077,2.438,0.077
	c0.892,0,1.793-0.026,2.711-0.078c0.992-0.025,1.867-0.038,2.629-0.04c0.813,0,1.504-0.011,2.062-0.039h0.963
	c0.245-0.021,0.487-0.059,0.729-0.115c0.281-0.05,0.607-0.116,0.99-0.188c0.435-0.026,0.828-0.053,1.187-0.079
	C90.887,7.076,91.184,7.15,91.379,7.354z M32.311,12.576c-0.23,0.011-0.449,0.108-0.611,0.272c-0.355,0.511-0.355,1.19,0,1.701
	c0.153,0.183,0.374,0.294,0.611,0.31h2.784c0.26-0.013,0.506-0.124,0.688-0.31c0.355-0.511,0.355-1.19,0-1.701
	c-0.191-0.167-0.434-0.262-0.688-0.272H32.311z M2.781,12.5c0.077,0.517,0.152,1.045,0.229,1.586
	c0.078,0.619,0.129,1.212,0.153,1.78c0.077,0.49,0.14,0.928,0.188,1.315c0.229-0.232,0.547-0.516,0.953-0.851
	c0.458-0.361,0.916-0.748,1.373-1.16c1.019-0.748,1.999-1.496,2.939-2.246c0.966-0.697,1.831-1.328,2.594-1.895H2.586
	C2.623,11.523,2.688,12.014,2.781,12.5z"/>
<linearGradient id="shape2_2_" gradientUnits="userSpaceOnUse" x1="68.5469" y1="16.75" x2="68.5469" y2="31.75">
	<stop  offset="0" style="stop-color:#4F3468"/>
	<stop  offset="0.4892" style="stop-color:#893BDC"/>
	<stop  offset="1" style="stop-color:#CA4EE5"/>
</linearGradient>
<path id="shape2_1_" fill="url(#shape2_2_)" d="M78.38,31.251c-0.313,0-0.625-0.05-0.923-0.147
	c-0.297,0.103-0.607,0.147-0.921,0.147h-8.193c-0.185,0-0.446-0.009-0.77-0.075c-0.218,0.051-0.439,0.075-0.664,0.075h-2.664
	c-0.815,0-1.604-0.342-2.166-0.937c-0.078-0.086-0.149-0.174-0.22-0.271l-0.909,0.647c-0.503,0.359-1.101,0.555-1.726,0.555h-3.584
	c-0.72,0-1.402-0.268-1.938-0.721c-0.616,0.426-1.354,0.652-2.114,0.652c-0.75,0-1.479-0.222-2.104-0.642
	c-0.164-0.11-0.313-0.233-0.45-0.37c-1.021-1.021-1.363-2.423-0.921-3.753l0.045-0.128l0.078-0.203
	c-1.799-0.254-3.144-1.766-3.144-3.646V22.24c0-0.741,0.274-1.45,0.773-1.996l4.747-5.232c0.646-1.069,1.763-1.679,3.078-1.679h0.41
	c2.063,0,3.686,1.618,3.686,3.684c0,0-0.001,0.289-0.003,0.331c0.555-0.653,1.372-1.044,2.26-1.044h8.396
	c0.264,0,0.521,0.034,0.771,0.101c0.25-0.067,0.511-0.101,0.771-0.101h9.22c0.243,0,0.481,0.029,0.717,0.087
	c0.233-0.058,0.476-0.087,0.72-0.087h8.396c0.917,0,1.797,0.433,2.354,1.159c0.559,0.726,0.752,1.689,0.514,2.573l-0.403,1.532
	c-0.146,0.541-0.437,1.02-0.829,1.395c-0.018,0.188-0.045,0.372-0.098,0.555l-0.406,1.537c-0.075,0.282-0.189,0.551-0.35,0.799
	c0.168,0.532,0.188,1.109,0.041,1.656l-0.414,1.539c-0.346,1.297-1.521,2.202-2.862,2.202H78.38z M75.341,23.782l0.013-0.009h-0.793
	l-0.002,0.009H75.341z"/>
<path id="ACE" fill="#FFFFFF" d="M52.568,23.163h-3.789c-0.409,0-0.717-0.308-0.717-0.718c0-0.104,0-0.104,0-0.204l5.018-5.531
	c0.104-0.307,0.311-0.41,0.615-0.41h0.41c0.408,0,0.717,0.308,0.717,0.717c0,0.102,0,0.205,0,0.205l-2.459,3.584h4.402
	c0.612,0,0.311,1.127-0.104,1.639l-4.509,5.531c-0.31,0.308-0.717,0.308-1.021,0.104c-0.203-0.206-0.309-0.41-0.203-0.719
	L52.568,23.163L52.568,23.163L52.568,23.163z M60.046,19.271l0.409,0.41l-4.813,8.603h3.584l2.146-1.536h2.975l-0.104,1.536h2.663
	l1.535-9.013H60.046L60.046,19.271z M64.553,20.809l-0.104,3.482h-2.971l2.047-3.482H64.553L64.553,20.809z M68.343,28.284h8.191
	l0.612-2.15l-0.818,0.614h-5.732l1.739-5.941h6.452l0.408-1.535h-9.217l-2.355,7.988c-0.102,0.104-0.102,0.309-0.102,0.409
	c0,0.103,0,0.205,0.103,0.31c0.103,0.105,0.205,0.203,0.308,0.203C68.137,28.284,68.24,28.284,68.343,28.284L68.343,28.284
	L68.343,28.284z M80.632,19.271l0.312,0.608l-2.563,8.397h8.193l0.408-1.535h-5.121l0.718-2.458h4.711l0.41-1.537h-4.507l0.611-1.94
	h4.813l0.407-1.535H80.632L80.632,19.271z"/>
<g>
	<defs>
		<path id="SVGID_1_" d="M91.379,7.354c0.176-0.03,0.344,0.087,0.372,0.263c0.006,0.028,0.007,0.057,0.004,0.085v2.553h-6.026
			c-1.172,0.024-2.479,0.063-3.931,0.116c-1.425,0-2.849,0.013-4.272,0.04c-1.32,0.026-2.213,0.039-2.67,0.039
			c0.016,0.301-0.099,0.594-0.308,0.812c-0.368,0.458-0.903,0.75-1.487,0.812c-0.307-0.049-0.588-0.198-0.801-0.423
			c-0.236-0.25-0.494-0.483-0.766-0.696c-0.141-0.007-0.282-0.034-0.417-0.078c-0.175-0.043-0.341-0.107-0.496-0.193l-0.726-0.232
			c-0.226-0.068-0.455-0.094-0.688-0.077c-0.468-0.056-0.938-0.082-1.409-0.077c-0.533,0-1.171,0.026-1.906,0.077
			c-0.656,0-1.334,0.026-2.021,0.077c-0.005,0.132-0.03,0.262-0.075,0.387c-0.063,0.133-0.104,0.277-0.111,0.425l-0.27,0.117
			c-0.125,0.028-0.254,0.042-0.381,0.039c-0.008,0.13-0.021,0.259-0.04,0.387c-0.029,0.153-0.042,0.309-0.036,0.464
			c-0.061,0.254-0.082,0.514-0.075,0.773h-0.313c-1.043,0-2.188,0.013-3.432,0.039c-1.223,0-2.394,0.013-3.512,0.039
			c-1.094,0.052-2.021,0.078-2.787,0.077c-0.761,0.026-1.222,0.039-1.373,0.039c-0.177,0.037-0.354,0.063-0.533,0.077
			c-0.229,0.026-0.496,0.05-0.802,0.077c-0.325,0.076-0.657,0.127-0.991,0.155c-0.238,0.063-0.479,0.115-0.727,0.154H48.26
			l-0.188-0.47c-0.053-0.294-0.076-0.591-0.076-0.89c-0.047-0.229-0.072-0.463-0.076-0.697v-0.535
			c-0.268,0.106-0.552,0.171-0.839,0.193c-0.433,0.051-0.891,0.13-1.373,0.232c-0.458,0.079-0.903,0.168-1.336,0.273
			c-0.433,0.05-0.701,0.076-0.801,0.076c0,0.155-0.013,0.31-0.04,0.463c-0.062,0.107-0.101,0.226-0.114,0.349
			c0.024,1.502,0.23,2.997,0.612,4.45c0.407,1.572,0.853,3.068,1.334,4.488c0.509,1.366,0.955,2.514,1.337,3.442
			c0.407,0.903,0.608,1.368,0.608,1.394l0.149,0.271l-0.308,0.115c-0.271,0.146-0.553,0.271-0.837,0.389
			c-0.381,0.206-0.902,0.462-1.563,0.773c-0.953,0.414-1.883,0.879-2.787,1.392H41.7c-0.597-0.909-1.059-1.899-1.374-2.94
			c-0.483-1.394-0.94-2.851-1.372-4.371c-0.433-1.496-0.79-2.916-1.07-4.256c-0.182-0.902-0.411-1.794-0.686-2.671
			c-0.322,0.172-0.653,0.327-0.992,0.462c-0.082-0.01-0.16,0.038-0.188,0.116c0,0.027-0.04,0.04-0.113,0.04
			c-0.129,0.233-0.383,0.37-0.648,0.349c-0.966,0.311-2.003,0.324-2.978,0.04c-0.497-0.174-0.97-0.409-1.41-0.698
			c-0.042,0.072-0.109,0.126-0.188,0.153l-0.687,0.35c-0.667,1.414-1.142,2.91-1.41,4.449c-0.125,1.16-0.188,2.012-0.188,2.555
			v0.619c0.014,0.072-0.016,0.147-0.076,0.191c-0.051,0-0.077,0.039-0.077,0.117c-0.431,0-1.868-0.657-4.311-1.975l-0.229-0.114
			V21.7c0.305-0.696,0.623-1.433,0.954-2.204c0.281-0.801,0.561-1.537,0.84-2.207c0.254-0.67,0.458-1.276,0.61-1.817
			c0.152-0.463,0.24-0.751,0.268-0.85c-0.005-0.113-0.044-0.222-0.115-0.31c-0.052-0.094-0.081-0.199-0.085-0.307
			c-0.108-0.085-0.198-0.19-0.267-0.309c-0.102-0.104-0.205-0.209-0.306-0.31c-0.118-0.091-0.21-0.211-0.268-0.348
			c-0.346-0.103-0.708-0.143-1.068-0.116c-0.636,0-1.349,0.013-2.138,0.04c-0.814,0.052-1.717,0.09-2.709,0.115
			c-0.94,0.078-1.816,0.129-2.631,0.154l-3.205,0.116c-2.009,0-5.062,1.844-9.157,5.533l-0.305,0.31
			c-0.198,0.276-0.459,0.502-0.763,0.658c-0.356,0.438-0.584,0.709-0.686,0.813c-0.083,0.082-0.19,0.137-0.307,0.153
			c-0.261-0.041-0.479-0.224-0.571-0.472c-0.132-0.305-0.211-0.631-0.236-0.962c0-0.13-0.013-0.525-0.038-1.199
			c-0.023-0.646-0.088-1.409-0.188-2.283c-0.075-0.851-0.151-1.728-0.229-2.63c-0.101-0.877-0.205-1.598-0.304-2.167
			C0.519,10.553,0.578,9.89,0.953,9.4c0.25-0.283,0.614-0.439,0.992-0.427h18.999c0.134,0.01,0.264-0.047,0.346-0.154V8.668
			c0.084-0.057,0.15-0.138,0.188-0.233c0.04-0.108,0.09-0.212,0.151-0.31C21.87,7.98,22.15,7.913,22.43,7.932
			c0.276,0.023,0.553-0.03,0.801-0.153c0.148-0.052,0.304-0.079,0.461-0.078c0.166,0.003,0.328-0.051,0.458-0.155
			c0.329-0.083,0.648-0.199,0.953-0.347c0.271-0.101,0.5-0.292,0.648-0.541c0.209-0.138,0.337-0.37,0.343-0.62
			c0.051-0.26,0.104-0.645,0.152-1.162V4.529C26.205,4.17,26.332,3.813,26.59,3.56c0.265-0.115,0.551-0.168,0.839-0.154h0.304
			l0.115,0.154l0.841,0.813c0,0.18,0.317,0.141,0.953-0.116h0.496c0.201,0.15,0.337,0.371,0.38,0.617
			c0.077,0.336,0.153,0.683,0.229,1.041c0.82-0.104,1.647-0.154,2.475-0.149c0.515-0.049,1.034,0.002,1.53,0.149
			c0.087,0.024,0.177,0.037,0.267,0.04c0.132,0.058,0.276,0.085,0.42,0.078h9.73c0.006-0.225-0.033-0.448-0.114-0.658L44.94,5.071
			h1.717v0.31c-0.019,0.085,0.012,0.174,0.075,0.233c0,0.024,0.023,0.038,0.076,0.038h23.543c-0.006-0.091-0.021-0.182-0.037-0.271
			V4.877c-0.086-0.194-0.125-0.405-0.115-0.617l0.533-1.008l1.604-0.154h0.152v2.824l-0.116,0.04
			c-0.017,0.047-0.062,0.079-0.112,0.078c-0.031,0.034-0.059,0.073-0.076,0.116c0.354,0.348,0.75,0.646,1.186,0.889
			c0.617,0.337,1.313,0.511,2.021,0.502c0.28,0.028,0.786,0.053,1.523,0.078c0.736,0.051,1.551,0.077,2.438,0.077
			c0.892,0,1.793-0.026,2.711-0.078c0.992-0.025,1.867-0.038,2.629-0.04c0.813,0,1.504-0.011,2.062-0.039h0.963
			c0.245-0.021,0.487-0.059,0.729-0.115c0.281-0.05,0.607-0.116,0.99-0.188c0.435-0.026,0.828-0.053,1.187-0.079
			C90.887,7.076,91.184,7.15,91.379,7.354z M32.311,12.576c-0.23,0.011-0.449,0.108-0.611,0.272c-0.355,0.511-0.355,1.19,0,1.701
			c0.153,0.183,0.374,0.294,0.611,0.31h2.784c0.26-0.013,0.506-0.124,0.688-0.31c0.355-0.511,0.355-1.19,0-1.701
			c-0.191-0.167-0.434-0.262-0.688-0.272H32.311z M2.781,12.5c0.077,0.517,0.152,1.045,0.229,1.586
			c0.078,0.619,0.129,1.212,0.153,1.78c0.077,0.49,0.14,0.928,0.188,1.315c0.229-0.232,0.547-0.516,0.953-0.851
			c0.458-0.361,0.916-0.748,1.373-1.16c1.019-0.748,1.999-1.496,2.939-2.246c0.966-0.697,1.831-1.328,2.594-1.895H2.586
			C2.623,11.523,2.688,12.014,2.781,12.5z"/>
	</defs>
	<clipPath id="SVGID_2_">
		<use xlink:href="#SVGID_1_"  overflow="visible"/>
	</clipPath>
	<g clip-path="url(#SVGID_2_)">
		<g opacity="0.7">
			
				<linearGradient id="SVGID_3_" gradientUnits="userSpaceOnUse" x1="-538.79" y1="173.375" x2="-519.188" y2="173.375" gradientTransform="matrix(1 0 0 1 561.3799 -165.6211)">
				<stop  offset="0" style="stop-color:#CA4EE5;stop-opacity:0"/>
				<stop  offset="0.4624" style="stop-color:#F6EBE6"/>
			</linearGradient>
			<polygon fill="url(#SVGID_3_)" points="22.856,17.389 22.59,17.123 27.196,12.515 27.196,11.096 29.202,9.087 30.959,9.087 
				41.927,-1.881 42.192,-1.615 31.114,9.466 29.36,9.466 27.573,11.25 27.573,12.673 			"/>
		</g>
		<g opacity="0.7">
			
				<linearGradient id="SVGID_4_" gradientUnits="userSpaceOnUse" x1="-501.6748" y1="173.498" x2="-491.4824" y2="173.498" gradientTransform="matrix(1 0 0 1 561.3799 -165.6211)">
				<stop  offset="0" style="stop-color:#CA4EE5;stop-opacity:0"/>
				<stop  offset="0.5753" style="stop-color:#F6EBE6"/>
			</linearGradient>
			<polygon fill="url(#SVGID_4_)" points="59.843,12.887 59.705,12.747 62.101,10.352 62.101,9.615 63.144,8.57 64.056,8.57 
				69.759,2.868 69.897,3.005 64.138,8.766 63.224,8.766 62.296,9.694 62.296,10.433 			"/>
		</g>
		<g>
			
				<linearGradient id="SVGID_5_" gradientUnits="userSpaceOnUse" x1="-526.3989" y1="175.8691" x2="-503.791" y2="175.8691" gradientTransform="matrix(1 0 0 1 561.3799 -165.6211)">
				<stop  offset="0" style="stop-color:#CA4EE5;stop-opacity:0"/>
				<stop  offset="1" style="stop-color:#F6EBE6"/>
			</linearGradient>
			<polygon fill="url(#SVGID_5_)" points="35.286,21.359 34.981,21.053 40.294,15.739 40.294,14.102 42.608,11.789 44.631,11.789 
				57.28,-0.864 57.589,-0.555 44.813,12.221 42.789,12.221 40.728,14.282 40.728,15.92 			"/>
		</g>
		<g opacity="0.7">
			
				<linearGradient id="SVGID_6_" gradientUnits="userSpaceOnUse" x1="-539.1919" y1="174.7607" x2="-527.9272" y2="174.7607" gradientTransform="matrix(1 0 0 1 561.3799 -165.6211)">
				<stop  offset="0" style="stop-color:#CA4EE5;stop-opacity:0"/>
				<stop  offset="0.5591" style="stop-color:#F6EBE6"/>
			</linearGradient>
			<polygon fill="url(#SVGID_6_)" points="22.314,14.694 22.188,14.567 26.338,10.417 26.338,9.744 27.29,8.792 28.122,8.792 
				33.327,3.586 33.453,3.712 28.196,8.97 27.363,8.97 26.516,9.818 26.516,10.492 			"/>
		</g>
		<g>
			
				<linearGradient id="SVGID_7_" gradientUnits="userSpaceOnUse" x1="-560.8569" y1="178.3623" x2="-549.5918" y2="178.3623" gradientTransform="matrix(1 0 0 1 561.3799 -165.6211)">
				<stop  offset="0" style="stop-color:#CA4EE5;stop-opacity:0"/>
				<stop  offset="1" style="stop-color:#F6EBE6"/>
			</linearGradient>
			<polygon fill="url(#SVGID_7_)" points="0.649,18.295 0.523,18.168 4.672,14.019 4.672,13.346 5.625,12.393 6.457,12.393 
				11.662,7.188 11.788,7.313 6.531,12.572 5.698,12.572 4.851,13.419 4.851,14.094 			"/>
		</g>
		
			<linearGradient id="SVGID_8_" gradientUnits="userSpaceOnUse" x1="-547.7813" y1="174.6572" x2="-561.1801" y2="188.0561" gradientTransform="matrix(1 0 0 1 561.3799 -165.6211)">
			<stop  offset="0" style="stop-color:#CA4EE5;stop-opacity:0"/>
			<stop  offset="1" style="stop-color:#F6EBE6"/>
		</linearGradient>
		<polygon fill="url(#SVGID_8_)" points="12.663,7.931 -1.035,21.629 3.045,21.629 16.729,7.946 		"/>
		
			<linearGradient id="SVGID_9_" gradientUnits="userSpaceOnUse" x1="-543.5879" y1="174.6572" x2="-558.257" y2="189.3264" gradientTransform="matrix(1 0 0 1 561.3799 -165.6211)">
			<stop  offset="0" style="stop-color:#CA4EE5;stop-opacity:0"/>
			<stop  offset="1" style="stop-color:#F6EBE6"/>
		</linearGradient>
		<polygon fill="url(#SVGID_9_)" points="14.82,8.477 1.122,22.174 8.184,22.174 21.868,8.492 		"/>
		
			<linearGradient id="SVGID_10_" gradientUnits="userSpaceOnUse" x1="-520.1499" y1="173.0391" x2="-541.4913" y2="194.3806" gradientTransform="matrix(1 0 0 1 561.3799 -165.6211)">
			<stop  offset="0" style="stop-color:#CA4EE5;stop-opacity:0"/>
			<stop  offset="0.7742" style="stop-color:#F6EBE6"/>
		</linearGradient>
		<polygon opacity="0.7" fill="url(#SVGID_10_)" enable-background="new    " points="36.906,6.604 16.978,26.531 27.253,26.531 
			47.161,6.625 		"/>
		
			<linearGradient id="SVGID_11_" gradientUnits="userSpaceOnUse" x1="-515.9585" y1="176.7568" x2="-524.1292" y2="184.9276" gradientTransform="matrix(1 0 0 1 561.3799 -165.6211)">
			<stop  offset="0" style="stop-color:#CA4EE5;stop-opacity:0"/>
			<stop  offset="0.672" style="stop-color:#F6EBE6"/>
		</linearGradient>
		<polygon opacity="0.7" fill="url(#SVGID_11_)" enable-background="new    " points="43.766,10.824 36.136,18.454 40.069,18.454 
			47.692,10.832 		"/>
		
			<linearGradient id="SVGID_12_" gradientUnits="userSpaceOnUse" x1="-505.603" y1="172.0674" x2="-513.7745" y2="180.239" gradientTransform="matrix(1 0 0 1 561.3799 -165.6211)">
			<stop  offset="0" style="stop-color:#CA4EE5;stop-opacity:0"/>
			<stop  offset="0.7688" style="stop-color:#F6B8FF"/>
		</linearGradient>
		<polygon fill="url(#SVGID_12_)" points="54.12,6.136 46.489,13.766 50.424,13.766 58.046,6.144 		"/>
		
			<linearGradient id="SVGID_13_" gradientUnits="userSpaceOnUse" x1="-520.9165" y1="175.6904" x2="-529.0874" y2="183.8615" gradientTransform="matrix(1 0 0 1 561.3799 -165.6211)">
			<stop  offset="0" style="stop-color:#CA4EE5;stop-opacity:0"/>
			<stop  offset="1" style="stop-color:#F6B8FF"/>
		</linearGradient>
		<polygon fill="url(#SVGID_13_)" points="38.808,9.759 31.178,17.389 35.111,17.389 42.734,9.767 		"/>
		<g>
			
				<linearGradient id="SVGID_14_" gradientUnits="userSpaceOnUse" x1="-539.4492" y1="183.7637" x2="-529.6938" y2="183.7637" gradientTransform="matrix(1 0 0 1 561.3799 -165.6211)">
				<stop  offset="0" style="stop-color:#CA4EE5;stop-opacity:0"/>
				<stop  offset="1" style="stop-color:#F6EBE6"/>
			</linearGradient>
			<polygon fill="url(#SVGID_14_)" points="22.146,23.02 21.931,22.807 31.471,13.265 31.686,13.479 			"/>
		</g>
	</g>
</g>
</svg>
