<?xml version="1.0" encoding="utf-8"?>
<!-- Generator: Adobe Illustrator 16.0.0, SVG Export Plug-In . SVG Version: 6.00 Build 0)  -->
<!DOCTYPE svg PUBLIC "-//W3C//DTD SVG 1.1//EN" "http://www.w3.org/Graphics/SVG/1.1/DTD/svg11.dtd">
<svg version="1.1" id="case1" xmlns="http://www.w3.org/2000/svg" xmlns:xlink="http://www.w3.org/1999/xlink" x="0px" y="0px"
	 width="90.167px" height="36px" viewBox="0 0 90.167 36" enable-background="new 0 0 90.167 36" xml:space="preserve">
<linearGradient id="shape_1_" gradientUnits="userSpaceOnUse" x1="-66.3994" y1="2193.5742" x2="21.7632" y2="2193.5742" gradientTransform="matrix(1 0 0 1 67.2998 -2179.2412)">
	<stop  offset="0" style="stop-color:#CA4EE5"/>
	<stop  offset="0.3011" style="stop-color:#570090"/>
	<stop  offset="0.7419" style="stop-color:#893BDC"/>
	<stop  offset="1" style="stop-color:#CA4EE5"/>
</linearGradient>
<path id="shape" fill="url(#shape_1_)" d="M52.638,5.169c-0.613,0.008-1.396,0.4-2.352,1.178l-0.384-0.226l-1.188,0.682L48.33,6.559
	l-1.197,0.76L46.83,7.037L45.728,7.71L35.094,8.015V8.26H34.8V8.01C22.689,8.654,14.618,9.909,10.592,11.78
	c-4.031,1.869-6.943,4.091-8.74,6.667C0.401,22.01,0.61,23.689,2.476,23.48c3.463-2.604,7.317-4.644,11.424-6.023
	c3.264-1.144,10.279-1.663,21.047-1.557v-0.237l0.308,0.009v0.21c5.285,0.081,10.549,0.692,15.713,1.824
	c0.611-0.949,0.98-2.037,1.07-3.164h0.153c0.226,0.014,0.438,0.079,0.634,0.19c0.198,0.118,0.355,0.292,0.457,0.503
	c0.047,0.09,0.079,0.189,0.102,0.292c2.957,0.1,5.893,0.552,8.736,1.35c3.319,0.865,5.934,1.568,7.832,2.112
	c2.237,0.577,4.561,0.782,6.86,0.61c2.586-0.115,5.11-0.813,7.396-2.027c1.697-0.86,3.32-1.862,4.854-2.994l-15.76-6.586
	c-5.31,1.016-10.738,1.229-16.106,0.631V9.37h-0.244V8.739l-3.314-0.418v0.633H53.41V8.071c-0.507,0.059-0.98-0.236-1.158-0.713
	c-0.086-0.238-0.072-0.502,0.037-0.73c0.155-0.308,0.402-0.56,0.709-0.723c0.178-0.064,0.289-0.236,0.278-0.423
	c-0.044-0.177-0.207-0.301-0.39-0.294C52.82,5.176,52.75,5.17,52.684,5.169H52.638z"/>
<linearGradient id="shape2_2_" gradientUnits="userSpaceOnUse" x1="65.4702" y1="16" x2="65.4702" y2="31.25">
	<stop  offset="0" style="stop-color:#4F3468"/>
	<stop  offset="0.4892" style="stop-color:#893BDC"/>
	<stop  offset="1" style="stop-color:#CA4EE5"/>
</linearGradient>
<path id="shape2_1_" fill="url(#shape2_2_)" d="M75.3,31.251c-0.313,0-0.625-0.05-0.922-0.147c-0.297,0.104-0.608,0.147-0.922,0.147
	h-8.192c-0.185,0-0.442-0.009-0.771-0.075c-0.218,0.051-0.438,0.075-0.664,0.075h-2.664c-0.815,0-1.604-0.342-2.166-0.937
	c-0.078-0.086-0.149-0.174-0.22-0.271l-0.909,0.646c-0.502,0.358-1.101,0.556-1.726,0.556h-3.584c-0.717,0-1.401-0.269-1.935-0.722
	c-0.617,0.427-1.354,0.651-2.114,0.651c-0.75,0-1.479-0.222-2.104-0.642c-0.164-0.11-0.314-0.233-0.453-0.37
	c-1.021-1.021-1.362-2.423-0.919-3.753l0.045-0.128l0.08-0.203c-1.801-0.254-3.146-1.767-3.146-3.646V22.24
	c0-0.741,0.274-1.45,0.773-1.996l4.748-5.232c0.646-1.069,1.764-1.679,3.08-1.679h0.41c2.064,0,3.684,1.618,3.684,3.684
	c0,0-0.002,0.289-0.004,0.331c0.557-0.653,1.373-1.044,2.262-1.044h8.396c0.262,0,0.52,0.034,0.77,0.101
	c0.25-0.067,0.508-0.101,0.771-0.101h9.22c0.241,0,0.479,0.029,0.717,0.087c0.231-0.058,0.479-0.087,0.72-0.087h8.396
	c0.918,0,1.799,0.433,2.354,1.159c0.563,0.726,0.752,1.689,0.519,2.573l-0.406,1.532c-0.146,0.541-0.436,1.02-0.825,1.395
	c-0.019,0.188-0.048,0.372-0.099,0.555l-0.41,1.537c-0.071,0.282-0.188,0.551-0.346,0.799c0.168,0.532,0.188,1.109,0.039,1.656
	l-0.412,1.539c-0.351,1.296-1.521,2.202-2.865,2.202H75.3z M72.262,23.782l0.017-0.009h-0.798l-0.002,0.009H72.262z"/>
<path id="ACE" fill="#FFFFFF" d="M49.49,23.163h-3.789c-0.41,0-0.717-0.308-0.717-0.718c0-0.104,0-0.104,0-0.204l5.018-5.531
	c0.104-0.307,0.311-0.41,0.615-0.41h0.41c0.408,0,0.717,0.308,0.717,0.717c0,0.102,0,0.205,0,0.205l-2.459,3.584h4.402
	c0.615,0,0.311,1.127-0.104,1.639l-4.508,5.531c-0.312,0.308-0.718,0.308-1.021,0.104c-0.205-0.206-0.313-0.41-0.205-0.719
	L49.49,23.163L49.49,23.163L49.49,23.163z M56.966,19.271l0.41,0.41l-4.813,8.603h3.584l2.149-1.536h2.972l-0.103,1.536h2.662
	l1.536-9.013H56.966L56.966,19.271z M61.472,20.809l-0.104,3.482h-2.972l2.049-3.482H61.472L61.472,20.809z M65.263,28.284h8.188
	l0.613-2.15l-0.818,0.614h-5.729l1.74-5.941h6.447l0.408-1.535h-9.221l-2.35,7.988c-0.101,0.104-0.101,0.309-0.101,0.409
	c0,0.103,0,0.205,0.103,0.31s0.205,0.203,0.308,0.203C65.056,28.284,65.162,28.284,65.263,28.284L65.263,28.284L65.263,28.284z
	 M77.553,19.271l0.313,0.606l-2.563,8.396h8.192l0.409-1.533h-5.122l0.717-2.458h4.711l0.41-1.537h-4.506l0.61-1.938h4.815
	l0.408-1.535H77.553L77.553,19.271z"/>
<g>
	<defs>
		<path id="SVGID_1_" d="M52.638,5.169c-0.613,0.008-1.396,0.4-2.352,1.178l-0.384-0.226l-1.188,0.682L48.33,6.559l-1.197,0.76
			L46.83,7.037L45.728,7.71L35.094,8.015V8.26H34.8V8.01C22.689,8.654,14.618,9.909,10.592,11.78
			c-4.031,1.869-6.943,4.091-8.74,6.667C0.401,22.01,0.61,23.689,2.476,23.48c3.463-2.604,7.317-4.644,11.424-6.023
			c3.264-1.144,10.279-1.663,21.047-1.557v-0.237l0.308,0.009v0.21c5.285,0.081,10.549,0.692,15.713,1.824
			c0.611-0.949,0.98-2.037,1.07-3.164h0.153c0.226,0.014,0.438,0.079,0.634,0.19c0.198,0.118,0.355,0.292,0.457,0.503
			c0.047,0.09,0.079,0.189,0.102,0.292c2.957,0.1,5.893,0.552,8.736,1.35c3.319,0.865,5.934,1.568,7.832,2.112
			c2.237,0.577,4.561,0.782,6.86,0.61c2.586-0.115,5.11-0.813,7.396-2.027c1.697-0.86,3.32-1.862,4.854-2.994l-15.76-6.586
			c-5.31,1.016-10.738,1.229-16.106,0.631V9.37h-0.244V8.739l-3.314-0.418v0.633H53.41V8.071c-0.507,0.059-0.98-0.236-1.158-0.713
			c-0.086-0.238-0.072-0.502,0.037-0.73c0.155-0.308,0.402-0.56,0.709-0.723c0.178-0.064,0.289-0.236,0.278-0.423
			c-0.044-0.177-0.207-0.301-0.39-0.294C52.82,5.176,52.75,5.17,52.684,5.169H52.638z"/>
	</defs>
	<clipPath id="SVGID_2_">
		<use xlink:href="#SVGID_1_"  overflow="visible"/>
	</clipPath>
	<g clip-path="url(#SVGID_2_)">
		<g opacity="0.7">
			
				<linearGradient id="SVGID_3_" gradientUnits="userSpaceOnUse" x1="-542.1602" y1="174.3828" x2="-522.5581" y2="174.3828" gradientTransform="matrix(1 0 0 1 561.3799 -165.6211)">
				<stop  offset="0" style="stop-color:#CA4EE5;stop-opacity:0"/>
				<stop  offset="0.4624" style="stop-color:#F6EBE6"/>
			</linearGradient>
			<polygon fill="url(#SVGID_3_)" points="19.486,18.396 19.22,18.13 23.826,13.521 23.826,12.104 25.832,10.095 27.589,10.095 
				38.557,-0.874 38.822,-0.607 27.744,10.473 25.99,10.473 24.203,12.257 24.203,13.68 			"/>
		</g>
		<g opacity="0.7">
			
				<linearGradient id="SVGID_4_" gradientUnits="userSpaceOnUse" x1="-505.0444" y1="174.5059" x2="-494.853" y2="174.5059" gradientTransform="matrix(1 0 0 1 561.3799 -165.6211)">
				<stop  offset="0" style="stop-color:#CA4EE5;stop-opacity:0"/>
				<stop  offset="0.5753" style="stop-color:#F6EBE6"/>
			</linearGradient>
			<polygon fill="url(#SVGID_4_)" points="56.472,13.895 56.335,13.754 58.73,11.359 58.73,10.622 59.773,9.577 60.685,9.577 
				66.388,3.875 66.527,4.013 60.767,9.773 59.853,9.773 58.925,10.701 58.925,11.439 			"/>
		</g>
		<g>
			
				<linearGradient id="SVGID_5_" gradientUnits="userSpaceOnUse" x1="-529.769" y1="176.876" x2="-507.1616" y2="176.876" gradientTransform="matrix(1 0 0 1 561.3799 -165.6211)">
				<stop  offset="0" style="stop-color:#CA4EE5;stop-opacity:0"/>
				<stop  offset="1" style="stop-color:#F6EBE6"/>
			</linearGradient>
			<polygon fill="url(#SVGID_5_)" points="31.916,22.367 31.611,22.061 36.924,16.746 36.924,15.109 39.238,12.796 41.261,12.796 
				53.91,0.143 54.218,0.452 41.443,13.229 39.419,13.229 37.358,15.289 37.358,16.928 			"/>
		</g>
		<g opacity="0.7">
			
				<linearGradient id="SVGID_6_" gradientUnits="userSpaceOnUse" x1="-542.562" y1="175.7686" x2="-531.2974" y2="175.7686" gradientTransform="matrix(1 0 0 1 561.3799 -165.6211)">
				<stop  offset="0" style="stop-color:#CA4EE5;stop-opacity:0"/>
				<stop  offset="0.5591" style="stop-color:#F6EBE6"/>
			</linearGradient>
			<polygon fill="url(#SVGID_6_)" points="18.944,15.701 18.818,15.574 22.968,11.425 22.968,10.751 23.92,9.799 24.752,9.799 
				29.957,4.594 30.083,4.72 24.826,9.977 23.993,9.977 23.146,10.825 23.146,11.499 			"/>
		</g>
		<g>
			
				<linearGradient id="SVGID_7_" gradientUnits="userSpaceOnUse" x1="-564.2271" y1="179.3701" x2="-552.9619" y2="179.3701" gradientTransform="matrix(1 0 0 1 561.3799 -165.6211)">
				<stop  offset="0" style="stop-color:#CA4EE5;stop-opacity:0"/>
				<stop  offset="1" style="stop-color:#F6EBE6"/>
			</linearGradient>
			<polygon fill="url(#SVGID_7_)" points="-2.721,19.303 -2.847,19.176 1.302,15.025 1.302,14.354 2.255,13.4 3.087,13.4 
				8.292,8.195 8.418,8.32 3.161,13.579 2.328,13.579 1.481,14.427 1.481,15.102 			"/>
		</g>
		
			<linearGradient id="SVGID_8_" gradientUnits="userSpaceOnUse" x1="-551.1519" y1="175.6641" x2="-564.5509" y2="189.0631" gradientTransform="matrix(1 0 0 1 561.3799 -165.6211)">
			<stop  offset="0" style="stop-color:#CA4EE5;stop-opacity:0"/>
			<stop  offset="1" style="stop-color:#F6EBE6"/>
		</linearGradient>
		<polygon fill="url(#SVGID_8_)" points="9.293,8.938 -4.405,22.637 -0.325,22.637 13.359,8.953 		"/>
		
			<linearGradient id="SVGID_9_" gradientUnits="userSpaceOnUse" x1="-546.9575" y1="175.665" x2="-561.6268" y2="190.3344" gradientTransform="matrix(1 0 0 1 561.3799 -165.6211)">
			<stop  offset="0" style="stop-color:#CA4EE5;stop-opacity:0"/>
			<stop  offset="1" style="stop-color:#F6EBE6"/>
		</linearGradient>
		<polygon fill="url(#SVGID_9_)" points="11.45,9.484 -2.248,23.182 4.814,23.182 18.498,9.499 		"/>
		
			<linearGradient id="SVGID_10_" gradientUnits="userSpaceOnUse" x1="-523.5195" y1="174.0479" x2="-544.8611" y2="195.3896" gradientTransform="matrix(1 0 0 1 561.3799 -165.6211)">
			<stop  offset="0" style="stop-color:#CA4EE5;stop-opacity:0"/>
			<stop  offset="0.7742" style="stop-color:#F6EBE6"/>
		</linearGradient>
		<polygon opacity="0.7" fill="url(#SVGID_10_)" enable-background="new    " points="33.536,7.611 13.608,27.539 23.883,27.539 
			43.791,7.633 		"/>
		
			<linearGradient id="SVGID_11_" gradientUnits="userSpaceOnUse" x1="-519.3281" y1="177.7646" x2="-527.4988" y2="185.9354" gradientTransform="matrix(1 0 0 1 561.3799 -165.6211)">
			<stop  offset="0" style="stop-color:#CA4EE5;stop-opacity:0"/>
			<stop  offset="0.672" style="stop-color:#F6EBE6"/>
		</linearGradient>
		<polygon opacity="0.7" fill="url(#SVGID_11_)" enable-background="new    " points="40.396,11.831 32.766,19.461 36.699,19.461 
			44.322,11.839 		"/>
		
			<linearGradient id="SVGID_12_" gradientUnits="userSpaceOnUse" x1="-508.9731" y1="173.0752" x2="-517.1449" y2="181.247" gradientTransform="matrix(1 0 0 1 561.3799 -165.6211)">
			<stop  offset="0" style="stop-color:#CA4EE5;stop-opacity:0"/>
			<stop  offset="0.7688" style="stop-color:#F6B8FF"/>
		</linearGradient>
		<polygon fill="url(#SVGID_12_)" points="50.75,7.143 43.119,14.773 47.054,14.773 54.675,7.15 		"/>
		
			<linearGradient id="SVGID_13_" gradientUnits="userSpaceOnUse" x1="-524.2861" y1="176.6982" x2="-532.4575" y2="184.8697" gradientTransform="matrix(1 0 0 1 561.3799 -165.6211)">
			<stop  offset="0" style="stop-color:#CA4EE5;stop-opacity:0"/>
			<stop  offset="1" style="stop-color:#F6B8FF"/>
		</linearGradient>
		<polygon fill="url(#SVGID_13_)" points="35.438,10.766 27.808,18.396 31.741,18.396 39.364,10.773 		"/>
		<g>
			
				<linearGradient id="SVGID_14_" gradientUnits="userSpaceOnUse" x1="-542.8193" y1="184.7705" x2="-533.064" y2="184.7705" gradientTransform="matrix(1 0 0 1 561.3799 -165.6211)">
				<stop  offset="0" style="stop-color:#CA4EE5;stop-opacity:0"/>
				<stop  offset="1" style="stop-color:#F6EBE6"/>
			</linearGradient>
			<polygon fill="url(#SVGID_14_)" points="18.776,24.027 18.561,23.814 28.101,14.271 28.316,14.486 			"/>
		</g>
	</g>
</g>
</svg>
