<?xml version="1.0" encoding="utf-8"?>
<!-- Generator: Adobe Illustrator 16.0.0, SVG Export Plug-In . SVG Version: 6.00 Build 0)  -->
<!DOCTYPE svg PUBLIC "-//W3C//DTD SVG 1.1//EN" "http://www.w3.org/Graphics/SVG/1.1/DTD/svg11.dtd">
<svg version="1.1" id="case1" xmlns="http://www.w3.org/2000/svg" xmlns:xlink="http://www.w3.org/1999/xlink" x="0px" y="0px"
	 width="92px" height="36px" viewBox="0 0 92 36" enable-background="new 0 0 92 36" xml:space="preserve">
<linearGradient id="knife_survival_bowie_1_" gradientUnits="userSpaceOnUse" x1="691.7559" y1="-553.3604" x2="781.8799" y2="-553.3604" gradientTransform="matrix(1 0 0 -1 -690.8799 -538.8594)">
	<stop  offset="0" style="stop-color:#CA4EE5"/>
	<stop  offset="0.3011" style="stop-color:#570090"/>
	<stop  offset="0.7419" style="stop-color:#893BDC"/>
	<stop  offset="1" style="stop-color:#CA4EE5"/>
</linearGradient>
<path id="knife_survival_bowie_5_" fill="url(#knife_survival_bowie_1_)" d="M90.132,13.919c-0.651,0.508-1.313,0.997-1.985,1.469
	c-0.078,0.059-0.16,0.113-0.244,0.164c-2.018,1.406-4.248,2.473-6.605,3.159c-2.347,0.613-4.756,0.96-7.18,1.033
	c-2.438,0.097-4.875-0.104-7.264-0.6c-0.927-0.199-1.896-0.43-2.914-0.684c-1.154-0.29-1.855-0.455-2.094-0.489
	c-1.566-0.339-3.16-0.54-4.761-0.599c-1.868-0.107-4.56-0.117-8.076-0.028l-4.705,0.136L44.01,18.14l-2.83-0.056
	c-0.054-0.12-0.126-0.23-0.214-0.328c-0.244-0.255-0.529-0.467-0.844-0.626c-0.356-0.167-0.731-0.295-1.115-0.382l-0.49-0.081
	l-0.161,2.338L37.7,19.633c-0.412,0.395-0.769,0.842-1.059,1.33c-0.278,0.539-0.498,1.104-0.654,1.689
	c-0.126,0.363-0.224,0.682-0.297,0.953h-1.523c0.017-0.779,0.153-1.554,0.407-2.289c0.182-0.416,0.381-0.825,0.598-1.229
	l0.297-0.484c-0.148-0.271-0.312-0.535-0.491-0.787c-0.286-0.456-0.633-0.862-1.03-1.222c-0.361-0.27-0.681-0.59-0.95-0.952
	l-0.357-0.519c-0.364-0.198-0.746-0.362-1.14-0.491c-0.779-0.257-1.621-0.247-2.394,0.029c-0.146,0.053-0.879,0.397-2.203,1.033
	c-0.822,0.401-1.69,0.704-2.584,0.899c-1.358,0.23-2.742,0.257-4.107,0.081c-1.525-0.152-3.042-0.387-4.541-0.707
	c-1.614-0.399-2.746-0.664-3.401-0.79c-0.858-0.202-1.729-0.339-2.608-0.409c-0.728-0.013-1.455,0.024-2.176,0.11
	c-0.338,0.027-0.673,0.072-1.006,0.135L5.47,16.833l-0.214,0.979c-0.042,0.422-0.212,0.821-0.489,1.142
	c-0.237,0.166-0.563,0.366-0.98,0.603l-0.706-0.055c-0.197-0.115-0.38-0.253-0.546-0.41c-0.359-0.311-0.641-0.701-0.819-1.142
	c-0.208-0.64-0.272-1.319-0.191-1.987l0.137-1.254l-0.786-0.518v-1.254l0.599-0.299c0-0.31,0.016-0.653,0.053-1.035
	c0.023-0.552,0.141-1.096,0.35-1.607C2.021,9.694,2.248,9.44,2.53,9.262c0.282-0.141,0.584-0.233,0.896-0.273
	C3.67,8.92,3.933,8.995,4.105,9.181C4.173,9.259,4.22,9.353,4.242,9.454c1.704-0.109,3.599-0.219,5.685-0.329
	c4.206-0.234,7.315-0.334,9.327-0.299c1.795,0.019,4.442,0.155,7.941,0.406C30.405,9.49,32.2,9.608,32.58,9.59
	c0.544-0.028,1.083-0.12,1.605-0.273c0.371-0.106,0.736-0.234,1.093-0.382c0.218-0.099,0.47-0.088,0.679,0.029
	c0.085,0.043,0.145,0.123,0.164,0.217c0.182-0.165,0.398-0.365,0.651-0.6c0.395-0.363,0.743-0.774,1.034-1.224
	c0.246-0.409,0.438-0.849,0.572-1.308l0.133-0.653h1.306v0.679c-0.042,0.473-0.144,0.938-0.3,1.386
	c-0.16,0.428-0.379,0.832-0.651,1.199c-0.12,0.186-0.256,0.359-0.408,0.519l7.669,0.108l-0.489-0.764l1.797,0.764l1.271,0.055
	L48.105,8.47l2.018,0.872h1.252l-0.6-0.872l2.014,0.926h1.172l-0.604-0.764l1.961,0.819l1.225,0.081l-0.518-0.897L57.9,9.532
	l1.309,0.052l-0.547-0.9l1.878,0.9l1.36,0.053l-0.65-0.872l1.711,0.875l1.416-0.109l-0.463-0.707l1.877,0.819l1.001,0.028
	c0.91,0,1.901-0.045,2.992-0.137c1.776-0.164,3.452-0.346,5.03-0.546l0.545,0.409c0.453,0.307,0.934,0.606,1.439,0.897
	c1.434,0.866,2.979,1.516,4.604,1.93c2.017,0.425,4.062,0.699,6.119,0.819l0.625,0.053c1.053,0.075,2.004,0.122,2.854,0.14
	L90.132,13.919z"/>
<g>
	<defs>
		<path id="SVGID_1_" d="M90.132,13.919c-0.651,0.508-1.313,0.997-1.985,1.47c-0.078,0.059-0.16,0.112-0.244,0.164
			c-2.018,1.405-4.248,2.473-6.605,3.158c-2.347,0.613-4.756,0.96-7.18,1.033c-2.438,0.097-4.875-0.104-7.264-0.6
			c-0.927-0.199-1.896-0.43-2.914-0.684c-1.154-0.29-1.855-0.455-2.094-0.488c-1.566-0.34-3.16-0.541-4.761-0.6
			c-1.868-0.107-4.56-0.117-8.076-0.027l-4.705,0.135l-0.294,0.66l-2.83-0.057c-0.054-0.12-0.126-0.23-0.214-0.328
			c-0.244-0.255-0.529-0.467-0.844-0.626c-0.356-0.167-0.731-0.295-1.115-0.382l-0.49-0.081l-0.161,2.338L37.7,19.633
			c-0.412,0.395-0.769,0.842-1.059,1.33c-0.278,0.539-0.498,1.104-0.654,1.689c-0.126,0.363-0.224,0.682-0.297,0.953h-1.523
			c0.017-0.779,0.153-1.554,0.407-2.289c0.182-0.416,0.381-0.825,0.598-1.229l0.297-0.484c-0.148-0.271-0.312-0.535-0.491-0.787
			c-0.286-0.455-0.633-0.862-1.03-1.222c-0.361-0.271-0.681-0.591-0.95-0.953l-0.357-0.519c-0.364-0.198-0.746-0.362-1.14-0.491
			c-0.779-0.257-1.621-0.246-2.394,0.029c-0.146,0.053-0.879,0.396-2.203,1.033c-0.822,0.4-1.69,0.703-2.584,0.898
			c-1.358,0.23-2.742,0.258-4.107,0.081c-1.525-0.151-3.042-0.387-4.541-0.707c-1.614-0.399-2.746-0.663-3.401-0.79
			c-0.858-0.201-1.729-0.339-2.608-0.408c-0.728-0.014-1.455,0.023-2.176,0.109c-0.338,0.027-0.673,0.072-1.006,0.135L5.47,16.833
			l-0.214,0.979c-0.042,0.422-0.212,0.82-0.489,1.142c-0.237,0.166-0.563,0.366-0.98,0.603l-0.706-0.055
			c-0.197-0.115-0.38-0.253-0.546-0.41c-0.359-0.311-0.641-0.701-0.819-1.142c-0.208-0.64-0.272-1.319-0.191-1.987l0.137-1.254
			l-0.786-0.518v-1.254l0.599-0.299c0-0.31,0.016-0.653,0.053-1.035c0.023-0.552,0.141-1.096,0.35-1.607
			C2.021,9.694,2.248,9.44,2.53,9.262c0.282-0.141,0.584-0.233,0.896-0.273C3.67,8.92,3.933,8.995,4.105,9.181
			C4.173,9.259,4.22,9.353,4.242,9.454c1.704-0.109,3.599-0.219,5.685-0.329c4.206-0.234,7.315-0.334,9.327-0.299
			c1.795,0.019,4.442,0.155,7.941,0.406C30.405,9.49,32.2,9.608,32.58,9.59c0.544-0.028,1.083-0.12,1.605-0.273
			c0.371-0.106,0.736-0.234,1.093-0.382c0.218-0.099,0.47-0.088,0.679,0.029c0.085,0.043,0.145,0.123,0.164,0.217
			c0.182-0.165,0.398-0.365,0.651-0.6c0.395-0.363,0.743-0.774,1.034-1.224c0.246-0.409,0.438-0.849,0.572-1.308l0.133-0.653h1.306
			v0.679c-0.042,0.473-0.144,0.938-0.3,1.386c-0.16,0.428-0.379,0.832-0.651,1.199c-0.12,0.186-0.256,0.359-0.408,0.519l7.669,0.108
			l-0.489-0.764l1.797,0.764l1.271,0.055L48.105,8.47l2.018,0.872h1.252l-0.6-0.872l2.014,0.926h1.172l-0.604-0.764l1.961,0.819
			l1.225,0.081l-0.518-0.897L57.9,9.532l1.309,0.052l-0.547-0.9l1.878,0.9l1.36,0.053l-0.65-0.872l1.711,0.875l1.416-0.109
			l-0.463-0.707l1.877,0.819l1.001,0.028c0.91,0,1.901-0.045,2.992-0.137c1.776-0.164,3.452-0.346,5.03-0.546l0.545,0.409
			c0.453,0.307,0.934,0.606,1.439,0.897c1.434,0.866,2.979,1.516,4.604,1.93c2.017,0.425,4.062,0.699,6.119,0.819l0.625,0.053
			c1.053,0.075,2.004,0.122,2.854,0.14L90.132,13.919z"/>
	</defs>
	<clipPath id="SVGID_2_">
		<use xlink:href="#SVGID_1_"  overflow="visible"/>
	</clipPath>
	<g clip-path="url(#SVGID_2_)">
		<g opacity="0.7">
			
				<linearGradient id="SVGID_3_" gradientUnits="userSpaceOnUse" x1="-536.8789" y1="171.4492" x2="-517.2769" y2="171.4492" gradientTransform="matrix(1 0 0 1 561.3799 -165.6211)">
				<stop  offset="0" style="stop-color:#CA4EE5;stop-opacity:0"/>
				<stop  offset="0.4624" style="stop-color:#F6EBE6"/>
			</linearGradient>
			<polygon fill="url(#SVGID_3_)" points="24.767,15.463 24.501,15.197 29.107,10.589 29.107,9.17 31.113,7.162 32.87,7.162 
				43.838,-3.807 44.103,-3.541 33.025,7.54 31.271,7.54 29.484,9.324 29.484,10.747 			"/>
		</g>
		<g opacity="0.7">
			
				<linearGradient id="SVGID_4_" gradientUnits="userSpaceOnUse" x1="-499.7637" y1="171.5723" x2="-489.5713" y2="171.5723" gradientTransform="matrix(1 0 0 1 561.3799 -165.6211)">
				<stop  offset="0" style="stop-color:#CA4EE5;stop-opacity:0"/>
				<stop  offset="0.5753" style="stop-color:#F6EBE6"/>
			</linearGradient>
			<polygon fill="url(#SVGID_4_)" points="61.754,10.961 61.616,10.821 64.012,8.426 64.012,7.689 65.055,6.644 65.967,6.644 
				71.67,0.942 71.809,1.08 66.049,6.84 65.135,6.84 64.207,7.768 64.207,8.507 			"/>
		</g>
		<g>
			
				<linearGradient id="SVGID_5_" gradientUnits="userSpaceOnUse" x1="-524.4878" y1="173.9434" x2="-501.8799" y2="173.9434" gradientTransform="matrix(1 0 0 1 561.3799 -165.6211)">
				<stop  offset="0" style="stop-color:#CA4EE5;stop-opacity:0"/>
				<stop  offset="1" style="stop-color:#F6EBE6"/>
			</linearGradient>
			<polygon fill="url(#SVGID_5_)" points="37.197,19.434 36.892,19.127 42.205,13.813 42.205,12.176 44.519,9.863 46.542,9.863 
				59.191,-2.79 59.5,-2.481 46.724,10.295 44.7,10.295 42.639,12.356 42.639,13.995 			"/>
		</g>
		<g opacity="0.7">
			
				<linearGradient id="SVGID_6_" gradientUnits="userSpaceOnUse" x1="-537.2808" y1="172.835" x2="-526.0161" y2="172.835" gradientTransform="matrix(1 0 0 1 561.3799 -165.6211)">
				<stop  offset="0" style="stop-color:#CA4EE5;stop-opacity:0"/>
				<stop  offset="0.5591" style="stop-color:#F6EBE6"/>
			</linearGradient>
			<polygon fill="url(#SVGID_6_)" points="24.225,12.768 24.099,12.641 28.249,8.492 28.249,7.818 29.201,6.866 30.033,6.866 
				35.238,1.661 35.364,1.787 30.107,7.044 29.274,7.044 28.427,7.892 28.427,8.566 			"/>
		</g>
		<g>
			
				<linearGradient id="SVGID_7_" gradientUnits="userSpaceOnUse" x1="-558.9458" y1="176.4365" x2="-547.6807" y2="176.4365" gradientTransform="matrix(1 0 0 1 561.3799 -165.6211)">
				<stop  offset="0" style="stop-color:#CA4EE5;stop-opacity:0"/>
				<stop  offset="1" style="stop-color:#F6EBE6"/>
			</linearGradient>
			<polygon fill="url(#SVGID_7_)" points="2.56,16.37 2.434,16.243 6.583,12.093 6.583,11.42 7.536,10.467 8.368,10.467 
				13.573,5.262 13.699,5.388 8.442,10.646 7.609,10.646 6.762,11.494 6.762,12.168 			"/>
		</g>
		
			<linearGradient id="SVGID_8_" gradientUnits="userSpaceOnUse" x1="-545.8696" y1="172.7324" x2="-559.2685" y2="186.1313" gradientTransform="matrix(1 0 0 1 561.3799 -165.6211)">
			<stop  offset="0" style="stop-color:#CA4EE5;stop-opacity:0"/>
			<stop  offset="1" style="stop-color:#F6EBE6"/>
		</linearGradient>
		<polygon fill="url(#SVGID_8_)" points="14.574,6.005 0.876,19.703 4.956,19.703 18.64,6.02 		"/>
		
			<linearGradient id="SVGID_9_" gradientUnits="userSpaceOnUse" x1="-541.6763" y1="172.7314" x2="-556.3453" y2="187.4006" gradientTransform="matrix(1 0 0 1 561.3799 -165.6211)">
			<stop  offset="0" style="stop-color:#CA4EE5;stop-opacity:0"/>
			<stop  offset="1" style="stop-color:#F6EBE6"/>
		</linearGradient>
		<polygon fill="url(#SVGID_9_)" points="16.731,6.551 3.033,20.248 10.095,20.248 23.779,6.566 		"/>
		
			<linearGradient id="SVGID_10_" gradientUnits="userSpaceOnUse" x1="-518.2383" y1="171.1143" x2="-539.5797" y2="192.4558" gradientTransform="matrix(1 0 0 1 561.3799 -165.6211)">
			<stop  offset="0" style="stop-color:#CA4EE5;stop-opacity:0"/>
			<stop  offset="0.7742" style="stop-color:#F6EBE6"/>
		</linearGradient>
		<polygon opacity="0.7" fill="url(#SVGID_10_)" enable-background="new    " points="38.817,4.679 18.889,24.605 29.164,24.605 
			49.072,4.7 		"/>
		
			<linearGradient id="SVGID_11_" gradientUnits="userSpaceOnUse" x1="-514.0469" y1="174.8311" x2="-522.2176" y2="183.0018" gradientTransform="matrix(1 0 0 1 561.3799 -165.6211)">
			<stop  offset="0" style="stop-color:#CA4EE5;stop-opacity:0"/>
			<stop  offset="0.672" style="stop-color:#F6EBE6"/>
		</linearGradient>
		<polygon opacity="0.7" fill="url(#SVGID_11_)" enable-background="new    " points="45.677,8.898 38.047,16.528 41.98,16.528 
			49.604,8.906 		"/>
		
			<linearGradient id="SVGID_12_" gradientUnits="userSpaceOnUse" x1="-503.6919" y1="170.1426" x2="-511.8634" y2="178.3142" gradientTransform="matrix(1 0 0 1 561.3799 -165.6211)">
			<stop  offset="0" style="stop-color:#CA4EE5;stop-opacity:0"/>
			<stop  offset="0.7688" style="stop-color:#F6B8FF"/>
		</linearGradient>
		<polygon fill="url(#SVGID_12_)" points="56.031,4.21 48.4,11.84 52.335,11.84 59.957,4.218 		"/>
		
			<linearGradient id="SVGID_13_" gradientUnits="userSpaceOnUse" x1="-519.0049" y1="173.7656" x2="-527.1758" y2="181.9366" gradientTransform="matrix(1 0 0 1 561.3799 -165.6211)">
			<stop  offset="0" style="stop-color:#CA4EE5;stop-opacity:0"/>
			<stop  offset="1" style="stop-color:#F6B8FF"/>
		</linearGradient>
		<polygon fill="url(#SVGID_13_)" points="40.719,7.833 33.089,15.463 37.022,15.463 44.645,7.841 		"/>
		<g>
			
				<linearGradient id="SVGID_14_" gradientUnits="userSpaceOnUse" x1="-537.5381" y1="181.8379" x2="-527.7827" y2="181.8379" gradientTransform="matrix(1 0 0 1 561.3799 -165.6211)">
				<stop  offset="0" style="stop-color:#CA4EE5;stop-opacity:0"/>
				<stop  offset="1" style="stop-color:#F6EBE6"/>
			</linearGradient>
			<polygon fill="url(#SVGID_14_)" points="24.057,21.094 23.842,20.881 33.382,11.339 33.597,11.554 			"/>
		</g>
	</g>
</g>
</svg>
