<?xml version="1.0" encoding="utf-8"?>
<!-- Generator: Adobe Illustrator 16.0.0, SVG Export Plug-In . SVG Version: 6.00 Build 0)  -->
<!DOCTYPE svg PUBLIC "-//W3C//DTD SVG 1.1//EN" "http://www.w3.org/Graphics/SVG/1.1/DTD/svg11.dtd">
<svg version="1.1" id="case1" xmlns="http://www.w3.org/2000/svg" xmlns:xlink="http://www.w3.org/1999/xlink" x="0px" y="0px"
	 width="51.5px" height="36px" viewBox="0 0 51.5 36" enable-background="new 0 0 51.5 36" xml:space="preserve">
<linearGradient id="mac10_1_" gradientUnits="userSpaceOnUse" x1="318.5703" y1="-1082.165" x2="364.5654" y2="-1082.165" gradientTransform="matrix(1 0 0 -1 -315.9404 -1065.165)">
	<stop  offset="0" style="stop-color:#CA4EE5"/>
	<stop  offset="0.3011" style="stop-color:#570090"/>
	<stop  offset="0.7419" style="stop-color:#893BDC"/>
	<stop  offset="1" style="stop-color:#CA4EE5"/>
</linearGradient>
<path id="mac10" fill="url(#mac10_1_)" d="M48.625,6.7v1.484l-0.587,0.624h-2.399c-0.049,0.058-0.119,0.094-0.195,0.1
	c-0.06,0.03-0.125,0.047-0.188,0.048v2.491H38.9v0.383c0.002,0.133,0.037,0.265,0.103,0.382c0.001,0.146,0.021,0.29,0.05,0.432
	c-0.064,0.054-0.13,0.102-0.197,0.145c-0.119,0.05-0.224,0.134-0.293,0.241c0.067,0.218,0.117,0.441,0.146,0.668
	c0.063,0.169,0.096,0.348,0.102,0.528h-1.272c-0.49,0.012-0.979-0.003-1.47-0.047c-0.151,0.227-0.282,0.468-0.392,0.72
	c-0.155,0.396-0.37,0.767-0.634,1.1c-0.266,0.388-0.576,0.742-0.928,1.054c-0.352,0.284-0.774,0.466-1.223,0.527
	c-0.828,0.098-1.664,0.114-2.494,0.048c-0.816,0.018-1.621-0.216-2.301-0.671c-0.193,0-0.289-0.062-0.291-0.191v8.623
	c-0.119,0.021-0.233,0.051-0.345,0.096c-0.137,0.066-0.287,0.104-0.438,0.104V33H21.31v-7.234l-0.1-0.095
	c-0.052-0.006-0.102-0.022-0.147-0.048c-0.025-0.029-0.061-0.047-0.1-0.048h-3.27l-0.685-0.909c0.391-1.789,0.766-3.418,1.126-4.887
	c0.292-1.244,0.552-2.378,0.781-3.399l0.39-1.58c-0.358-0.64-0.667-1.199-0.925-1.677c-0.175-0.355-0.447-0.653-0.784-0.86
	c-0.443-0.13-0.906-0.179-1.367-0.145c-0.655-0.003-1.309,0.045-1.956,0.145c-0.032,0.029-0.08,0.079-0.146,0.142
	c-0.087,0.056-0.169,0.12-0.245,0.191l-0.293,0.287l-0.733-0.095c-0.005-0.075-0.042-0.145-0.1-0.192
	c-0.002-0.038-0.019-0.074-0.046-0.1c-0.027-0.052-0.061-0.101-0.1-0.144H7.96V15.9H7.717c-0.212,0.129-0.443,0.226-0.685,0.286
	c-0.372,0.064-0.751,0.064-1.123,0C5.71,16.134,5.513,16.072,5.322,16c-0.108-0.051-0.223-0.085-0.342-0.1h-0.2
	c-0.164,0-0.327-0.016-0.488-0.047c-0.197-0.003-0.393-0.02-0.587-0.049c-0.128-0.033-0.247-0.098-0.342-0.189
	c-0.233-0.207-0.431-0.449-0.588-0.718c-0.099-0.104-0.151-0.244-0.145-0.387v-0.336c0.007-0.544,0.124-1.082,0.343-1.581
	c0-0.064,0.032-0.417,0.1-1.053V9.816l0.392-7.184l1.173-1.487V1L7.13,1.145C7.688,1.21,8.322,1.274,9.037,1.337
	c0.653,0.064,1.288,0.094,1.907,0.094c0.588,0.064,1.09,0.113,1.515,0.145c0.259,0.049,0.52,0.08,0.783,0.095
	c0.064,0,0.357,0.018,0.878,0.049c0.52,0.1,1.092,0.174,1.71,0.239c0.587,0.067,1.141,0.146,1.662,0.239
	c0.52,0.065,0.832,0.1,0.928,0.1h0.146v0.14c0.105,0.004,0.19,0.086,0.2,0.191c0.098,0.145,0.098,0.335,0,0.48
	c-0.177,0.211-0.417,0.362-0.684,0.429C17.757,3.612,17.43,3.66,17.1,3.682h-2.396c-0.328-0.031-0.505-0.048-0.539-0.048L9.568,3.3
	h-0.1c-0.03,0-0.046-0.031-0.049-0.094v0.43c0.2,0,0.488,0.018,0.88,0.048c0.426,0.001,0.851,0.035,1.271,0.1
	c0.41,0.025,0.817,0.073,1.221,0.142c0.262-0.009,0.524,0.007,0.783,0.048h18.236V3.588c0-0.195,0.032-0.39,0.1-0.574
	c0.031-0.255,0.064-0.51,0.1-0.769h0.1c0.164-0.03,0.439-0.062,0.832-0.093h1.856c0.19-0.002,0.376,0.047,0.54,0.143
	c0.148,0.162,0.279,0.339,0.393,0.527c0.127,0.288,0.244,0.527,0.34,0.717h4.938V3.3c0.004-0.134,0.037-0.265,0.102-0.383
	c0-0.129,0.021-0.258,0.054-0.383h0.101c0.161-0.065,0.405-0.158,0.731-0.29c0.299-0.141,0.604-0.252,0.93-0.331
	c0.267-0.129,0.542-0.211,0.831-0.243c0.206-0.065,0.434-0.065,0.639,0c0.258,0.068,0.471,0.244,0.588,0.482
	C45.047,2.27,45.1,2.4,45.124,2.535v3.21l0.487,0.43H48.3L48.625,6.7z M29.365,16.09h3.714c0.29,0.014,0.571-0.09,0.784-0.289
	c0.227-0.188,0.353-0.472,0.34-0.767v-0.575c0.012-0.294-0.114-0.578-0.34-0.767c-0.213-0.197-0.495-0.3-0.784-0.286h-3.714
	c-0.303-0.008-0.598,0.093-0.832,0.286c-0.252,0.173-0.399,0.462-0.393,0.767v0.575c-0.009,0.306,0.139,0.594,0.393,0.767
	C28.766,15.995,29.063,16.098,29.365,16.09z M5.903,3.78H5.316c-0.074,0.13-0.109,0.279-0.1,0.429v0.67
	c0,0.384,0.014,0.816,0.046,1.294c0.032,0.478,0.082,1.038,0.147,1.676c0.125-0.814,0.322-1.616,0.588-2.395
	c0.228-0.733,0.39-1.246,0.487-1.533C6.303,3.831,6.105,3.783,5.903,3.78z"/>
<g>
	<defs>
		<path id="SVGID_1_" d="M48.625,6.7v1.484l-0.587,0.624h-2.399c-0.049,0.058-0.119,0.094-0.195,0.1
			c-0.06,0.03-0.125,0.047-0.188,0.048v2.491H38.9v0.383c0.002,0.133,0.037,0.265,0.103,0.382c0.001,0.146,0.021,0.29,0.05,0.432
			c-0.064,0.054-0.13,0.102-0.197,0.145c-0.119,0.05-0.224,0.134-0.293,0.241c0.067,0.218,0.117,0.441,0.146,0.668
			c0.063,0.169,0.096,0.348,0.102,0.528h-1.272c-0.49,0.012-0.979-0.003-1.47-0.047c-0.151,0.227-0.283,0.468-0.393,0.72
			c-0.154,0.396-0.369,0.767-0.634,1.1c-0.267,0.388-0.576,0.742-0.929,1.054c-0.352,0.284-0.773,0.466-1.223,0.527
			c-0.828,0.098-1.664,0.114-2.494,0.048c-0.815,0.018-1.621-0.216-2.301-0.671c-0.193,0-0.289-0.062-0.291-0.191v8.623
			c-0.119,0.021-0.234,0.051-0.345,0.096c-0.138,0.066-0.287,0.104-0.438,0.104V33h-5.712v-7.234l-0.1-0.095
			c-0.052-0.006-0.102-0.022-0.147-0.048c-0.025-0.029-0.061-0.047-0.1-0.048h-3.27l-0.685-0.909
			c0.391-1.789,0.766-3.418,1.126-4.887c0.292-1.244,0.552-2.378,0.781-3.399l0.39-1.58c-0.358-0.64-0.667-1.199-0.925-1.677
			c-0.175-0.355-0.447-0.653-0.784-0.86c-0.443-0.13-0.906-0.179-1.367-0.145c-0.655-0.003-1.309,0.045-1.956,0.145
			c-0.032,0.029-0.08,0.079-0.146,0.142c-0.087,0.056-0.169,0.12-0.245,0.191l-0.293,0.287l-0.733-0.095
			c-0.005-0.075-0.042-0.145-0.1-0.192c-0.002-0.038-0.019-0.074-0.046-0.1c-0.027-0.052-0.061-0.101-0.1-0.144H7.96V15.9H7.717
			c-0.212,0.129-0.443,0.226-0.685,0.286c-0.372,0.064-0.751,0.064-1.123,0C5.71,16.134,5.513,16.072,5.322,16
			c-0.108-0.051-0.223-0.085-0.342-0.1h-0.2c-0.164,0-0.327-0.016-0.488-0.047c-0.197-0.003-0.393-0.02-0.587-0.049
			c-0.128-0.033-0.247-0.098-0.342-0.189c-0.233-0.207-0.431-0.449-0.588-0.718c-0.099-0.104-0.151-0.244-0.145-0.387v-0.336
			c0.007-0.544,0.124-1.082,0.343-1.581c0-0.064,0.032-0.417,0.1-1.053V9.816l0.392-7.184l1.173-1.487V1L7.13,1.145
			C7.688,1.21,8.322,1.274,9.037,1.337c0.653,0.064,1.288,0.094,1.907,0.094c0.588,0.064,1.09,0.113,1.515,0.145
			c0.259,0.049,0.52,0.08,0.783,0.095c0.064,0,0.357,0.018,0.878,0.049c0.52,0.1,1.092,0.174,1.71,0.239
			c0.587,0.067,1.141,0.146,1.662,0.239c0.52,0.065,0.832,0.1,0.928,0.1h0.146v0.14c0.105,0.004,0.19,0.086,0.2,0.191
			c0.098,0.145,0.098,0.335,0,0.48c-0.177,0.211-0.417,0.362-0.684,0.429C17.757,3.612,17.43,3.66,17.1,3.682h-2.396
			c-0.328-0.031-0.505-0.048-0.539-0.048L9.568,3.3h-0.1c-0.03,0-0.046-0.031-0.049-0.094v0.43c0.2,0,0.488,0.018,0.88,0.048
			c0.426,0.001,0.851,0.035,1.271,0.1c0.41,0.025,0.817,0.073,1.221,0.142c0.262-0.009,0.524,0.007,0.783,0.048h18.236V3.588
			c0-0.195,0.031-0.39,0.1-0.574c0.031-0.255,0.064-0.51,0.1-0.769h0.1c0.164-0.03,0.439-0.062,0.832-0.093h1.856
			c0.19-0.002,0.376,0.047,0.54,0.143c0.148,0.162,0.279,0.339,0.393,0.527c0.127,0.288,0.244,0.527,0.34,0.717h4.938V3.3
			c0.003-0.134,0.037-0.265,0.103-0.383c0-0.129,0.02-0.258,0.053-0.383h0.102c0.16-0.065,0.404-0.158,0.73-0.29
			c0.299-0.141,0.605-0.252,0.93-0.331c0.266-0.129,0.542-0.211,0.831-0.243c0.206-0.065,0.433-0.065,0.638,0
			c0.258,0.068,0.471,0.244,0.588,0.482C45.048,2.27,45.1,2.4,45.125,2.535v3.21l0.486,0.43H48.3L48.625,6.7z M29.365,16.09h3.714
			c0.29,0.014,0.571-0.09,0.784-0.289c0.227-0.188,0.353-0.472,0.34-0.767v-0.575c0.012-0.294-0.114-0.578-0.34-0.767
			c-0.213-0.197-0.495-0.3-0.784-0.286h-3.714c-0.303-0.008-0.598,0.093-0.832,0.286c-0.252,0.173-0.399,0.462-0.393,0.767v0.575
			c-0.01,0.306,0.139,0.594,0.393,0.767C28.766,15.995,29.063,16.098,29.365,16.09z M5.903,3.78H5.316
			c-0.074,0.13-0.109,0.279-0.1,0.429v0.67c0,0.384,0.014,0.816,0.046,1.294c0.032,0.478,0.082,1.038,0.147,1.676
			c0.125-0.814,0.322-1.616,0.588-2.395c0.228-0.733,0.39-1.246,0.487-1.533C6.303,3.831,6.105,3.783,5.903,3.78z"/>
	</defs>
	<clipPath id="SVGID_2_">
		<use xlink:href="#SVGID_1_"  overflow="visible"/>
	</clipPath>
	<g clip-path="url(#SVGID_2_)">
		<g opacity="0.7">
			
				<linearGradient id="SVGID_3_" gradientUnits="userSpaceOnUse" x1="-541.6631" y1="173.4434" x2="-522.0615" y2="173.4434" gradientTransform="matrix(1 0 0 1 561.3799 -165.6211)">
				<stop  offset="0" style="stop-color:#CA4EE5;stop-opacity:0"/>
				<stop  offset="0.4624" style="stop-color:#F6EBE6"/>
			</linearGradient>
			<polygon fill="url(#SVGID_3_)" points="19.983,17.457 19.717,17.191 24.323,12.583 24.323,11.164 26.328,9.156 28.086,9.156 
				39.054,-1.813 39.318,-1.547 28.24,9.534 26.486,9.534 24.7,11.318 24.7,12.741 			"/>
		</g>
		<g opacity="0.7">
			
				<linearGradient id="SVGID_4_" gradientUnits="userSpaceOnUse" x1="-504.5479" y1="173.5664" x2="-494.3555" y2="173.5664" gradientTransform="matrix(1 0 0 1 561.3799 -165.6211)">
				<stop  offset="0" style="stop-color:#CA4EE5;stop-opacity:0"/>
				<stop  offset="0.5753" style="stop-color:#F6EBE6"/>
			</linearGradient>
			<polygon fill="url(#SVGID_4_)" points="56.97,12.955 56.832,12.815 59.228,10.42 59.228,9.683 60.271,8.638 61.183,8.638 
				66.886,2.936 67.024,3.074 61.265,8.834 60.351,8.834 59.423,9.762 59.423,10.501 			"/>
		</g>
		<g>
			
				<linearGradient id="SVGID_5_" gradientUnits="userSpaceOnUse" x1="-529.2725" y1="175.9375" x2="-506.6641" y2="175.9375" gradientTransform="matrix(1 0 0 1 561.3799 -165.6211)">
				<stop  offset="0" style="stop-color:#CA4EE5;stop-opacity:0"/>
				<stop  offset="1" style="stop-color:#F6EBE6"/>
			</linearGradient>
			<polygon fill="url(#SVGID_5_)" points="32.412,21.428 32.107,21.121 37.421,15.807 37.421,14.17 39.734,11.857 41.758,11.857 
				54.407,-0.796 54.716,-0.487 41.939,12.289 39.916,12.289 37.855,14.35 37.855,15.989 			"/>
		</g>
		<g opacity="0.7">
			
				<linearGradient id="SVGID_6_" gradientUnits="userSpaceOnUse" x1="-542.0649" y1="174.8291" x2="-530.7998" y2="174.8291" gradientTransform="matrix(1 0 0 1 561.3799 -165.6211)">
				<stop  offset="0" style="stop-color:#CA4EE5;stop-opacity:0"/>
				<stop  offset="0.5591" style="stop-color:#F6EBE6"/>
			</linearGradient>
			<polygon fill="url(#SVGID_6_)" points="19.441,14.762 19.315,14.635 23.465,10.486 23.465,9.812 24.417,8.86 25.249,8.86 
				30.453,3.655 30.58,3.781 25.323,9.038 24.49,9.038 23.643,9.886 23.643,10.56 			"/>
		</g>
		<g>
			
				<linearGradient id="SVGID_7_" gradientUnits="userSpaceOnUse" x1="-563.73" y1="178.4307" x2="-552.4648" y2="178.4307" gradientTransform="matrix(1 0 0 1 561.3799 -165.6211)">
				<stop  offset="0" style="stop-color:#CA4EE5;stop-opacity:0"/>
				<stop  offset="1" style="stop-color:#F6EBE6"/>
			</linearGradient>
			<polygon fill="url(#SVGID_7_)" points="-2.224,18.364 -2.35,18.237 1.799,14.087 1.799,13.414 2.752,12.461 3.584,12.461 
				8.789,7.256 8.915,7.382 3.658,12.64 2.825,12.64 1.978,13.488 1.978,14.162 			"/>
		</g>
		
			<linearGradient id="SVGID_8_" gradientUnits="userSpaceOnUse" x1="-550.6543" y1="174.7266" x2="-564.0532" y2="188.1254" gradientTransform="matrix(1 0 0 1 561.3799 -165.6211)">
			<stop  offset="0" style="stop-color:#CA4EE5;stop-opacity:0"/>
			<stop  offset="1" style="stop-color:#F6EBE6"/>
		</linearGradient>
		<polygon fill="url(#SVGID_8_)" points="9.79,7.999 -3.908,21.697 0.172,21.697 13.856,8.014 		"/>
		
			<linearGradient id="SVGID_9_" gradientUnits="userSpaceOnUse" x1="-546.4604" y1="174.7256" x2="-561.1295" y2="189.3947" gradientTransform="matrix(1 0 0 1 561.3799 -165.6211)">
			<stop  offset="0" style="stop-color:#CA4EE5;stop-opacity:0"/>
			<stop  offset="1" style="stop-color:#F6EBE6"/>
		</linearGradient>
		<polygon fill="url(#SVGID_9_)" points="11.947,8.545 -1.751,22.242 5.311,22.242 18.995,8.56 		"/>
		
			<linearGradient id="SVGID_10_" gradientUnits="userSpaceOnUse" x1="-523.0229" y1="173.1084" x2="-544.3644" y2="194.4499" gradientTransform="matrix(1 0 0 1 561.3799 -165.6211)">
			<stop  offset="0" style="stop-color:#CA4EE5;stop-opacity:0"/>
			<stop  offset="0.7742" style="stop-color:#F6EBE6"/>
		</linearGradient>
		<polygon opacity="0.7" fill="url(#SVGID_10_)" enable-background="new    " points="34.033,6.673 14.105,26.6 24.38,26.6 
			44.288,6.694 		"/>
		
			<linearGradient id="SVGID_11_" gradientUnits="userSpaceOnUse" x1="-518.8315" y1="176.8252" x2="-527.002" y2="184.9957" gradientTransform="matrix(1 0 0 1 561.3799 -165.6211)">
			<stop  offset="0" style="stop-color:#CA4EE5;stop-opacity:0"/>
			<stop  offset="0.672" style="stop-color:#F6EBE6"/>
		</linearGradient>
		<polygon opacity="0.7" fill="url(#SVGID_11_)" enable-background="new    " points="40.893,10.892 33.263,18.521 37.195,18.521 
			44.819,10.9 		"/>
		
			<linearGradient id="SVGID_12_" gradientUnits="userSpaceOnUse" x1="-508.4761" y1="172.1357" x2="-516.6476" y2="180.3074" gradientTransform="matrix(1 0 0 1 561.3799 -165.6211)">
			<stop  offset="0" style="stop-color:#CA4EE5;stop-opacity:0"/>
			<stop  offset="0.7688" style="stop-color:#F6B8FF"/>
		</linearGradient>
		<polygon fill="url(#SVGID_12_)" points="51.247,6.204 43.616,13.834 47.551,13.834 55.173,6.212 		"/>
		
			<linearGradient id="SVGID_13_" gradientUnits="userSpaceOnUse" x1="-523.7891" y1="175.7588" x2="-531.9601" y2="183.93" gradientTransform="matrix(1 0 0 1 561.3799 -165.6211)">
			<stop  offset="0" style="stop-color:#CA4EE5;stop-opacity:0"/>
			<stop  offset="1" style="stop-color:#F6B8FF"/>
		</linearGradient>
		<polygon fill="url(#SVGID_13_)" points="35.935,9.827 28.305,17.457 32.238,17.457 39.861,9.835 		"/>
		<g>
			
				<linearGradient id="SVGID_14_" gradientUnits="userSpaceOnUse" x1="-542.3223" y1="183.832" x2="-532.5674" y2="183.832" gradientTransform="matrix(1 0 0 1 561.3799 -165.6211)">
				<stop  offset="0" style="stop-color:#CA4EE5;stop-opacity:0"/>
				<stop  offset="1" style="stop-color:#F6EBE6"/>
			</linearGradient>
			<polygon fill="url(#SVGID_14_)" points="19.273,23.088 19.058,22.875 28.598,13.333 28.813,13.548 			"/>
		</g>
	</g>
</g>
</svg>
