<?xml version="1.0" encoding="utf-8"?>
<!-- Generator: Adobe Illustrator 16.0.0, SVG Export Plug-In . SVG Version: 6.00 Build 0)  -->
<!DOCTYPE svg PUBLIC "-//W3C//DTD SVG 1.1//EN" "http://www.w3.org/Graphics/SVG/1.1/DTD/svg11.dtd">
<svg version="1.1" id="case1" xmlns="http://www.w3.org/2000/svg" xmlns:xlink="http://www.w3.org/1999/xlink" x="0px" y="0px"
	 width="46.25px" height="36px" viewBox="0 0 46.25 36" enable-background="new 0 0 46.25 36" xml:space="preserve">
<path fill="none" d="M44.471,11.958c-0.125,0.262-0.382,0.437-0.671,0.457c-0.516,0.033-4.028,0.083-10.547,0.153
	c-0.229,0.005-0.459,0.056-0.672,0.15c-0.371,0.099-0.677,0.362-0.828,0.715c-0.116,0.535-0.135,1.088-0.053,1.63
	c0.034,0.4,0.104,1.017,0.209,1.832c0.039,0.43,0.104,0.856,0.207,1.277c0,0.235-0.191,0.372-0.57,0.398
	c-0.717,0.158-1.44,0.277-2.17,0.359c-1.25,0.172-2.51,0.271-3.772,0.299c-2.104,0.03-4.448-0.033-7.033-0.199
	c-2.238,5.875-3.357,8.998-3.359,9.369c0,0.408,0.089,1.717,0.259,3.926c0.388,0.294,0.804,0.549,1.241,0.762
	c0.193,0.036,0.327,0.214,0.31,0.409c0.01,0.08-0.029,0.159-0.1,0.198l-0.36,0.201c-0.407,0.103-0.83,0.121-1.243,0.051
	c-0.655-0.104-5.049-0.969-13.181-2.6c-0.412-0.068-0.412-1.188,0-3.363c0.299-1.349,0.696-2.668,1.186-3.957
	c0.508-1.433,1.112-2.825,1.81-4.174c0.594-1.08,1.061-2.229,1.39-3.417c0.342-0.824,0.518-1.708,0.518-2.6
	c-0.301-0.606-0.817-1.079-1.447-1.325c-0.629-0.315-1.286-0.571-1.963-0.764c-0.341-0.03-0.647-0.218-0.829-0.508
	c-0.169-0.175-0.325-0.363-0.466-0.562c-0.14-0.338-0.193-0.706-0.155-1.069V8.34C2.13,7.788,2.201,7.232,2.39,6.71
	c0.656-1.119,1.152-1.953,1.5-2.494c0.252-0.374,0.548-0.717,0.882-1.02c0.199-0.255,0.503-0.405,0.827-0.408
	c0.275,0.034,0.553,0.034,0.828,0l0.516-0.05c0.125-0.241,0.281-0.463,0.466-0.662c0.52-0.122,1.065-0.068,1.551,0.152l0.207,0.56
	h14.211v0.459h6.154V2.789l14.163-0.05l0.466,0.254c0.237,0.113,0.396,0.347,0.411,0.611c0.066,1.327,0.138,2.566,0.207,3.72
	c0.104,1.255,0.087,2.517-0.057,3.769C44.555,11.634,44.471,11.924,44.471,11.958z M29.632,13.231
	c-0.129-0.058-0.269-0.092-0.409-0.1v0.1l-4.601-0.05c-0.188,0.545-0.115,1.146,0.2,1.63c0.299,0.492,0.646,0.953,1.039,1.375
	c0.279,0.238,0.617,0.396,0.979,0.455c0.344,0.034,0.5,0.121,0.467,0.256c-0.05,0.182-0.229,0.294-0.414,0.257h-0.668
	c-0.473-0.119-0.901-0.366-1.242-0.713c-0.556-0.421-1.028-0.938-1.4-1.527c-0.152-0.564-0.221-1.147-0.206-1.731l-0.93-0.053
	c-0.556,0.001-1.083,0.244-1.447,0.664c-0.34,0.396-0.524,0.903-0.517,1.425v1.372c0.145,0.486,0.541,0.856,1.035,0.969
	c0.82,0.328,1.703,0.467,2.583,0.409c0.967-0.139,1.725-0.223,2.276-0.257c0.501-0.028,1.003-0.011,1.5,0.051
	c0.726,0.066,1.224,0.1,1.5,0.1c0.297,0.022,0.597-0.012,0.879-0.1l0.418-0.406c0.168-0.527,0.203-1.088,0.101-1.632
	c0.015-0.652-0.129-1.297-0.412-1.884C30.225,13.538,29.954,13.313,29.632,13.231z"/>
<linearGradient id="p2000_1_" gradientUnits="userSpaceOnUse" x1="317.7891" y1="1645.0703" x2="360.8057" y2="1645.0703" gradientTransform="matrix(1 0 0 1 -315.96 -1627.0703)">
	<stop  offset="0" style="stop-color:#CA4EE5"/>
	<stop  offset="0.3011" style="stop-color:#570090"/>
	<stop  offset="0.7419" style="stop-color:#893BDC"/>
	<stop  offset="1" style="stop-color:#CA4EE5"/>
</linearGradient>
<path id="p2000" fill="url(#p2000_1_)" d="M44.471,11.958c-0.125,0.262-0.382,0.437-0.671,0.457
	c-0.516,0.033-4.028,0.083-10.547,0.153c-0.229,0.005-0.459,0.056-0.672,0.15c-0.371,0.099-0.677,0.362-0.828,0.715
	c-0.116,0.535-0.135,1.088-0.053,1.63c0.034,0.4,0.104,1.017,0.209,1.832c0.039,0.43,0.104,0.856,0.207,1.277
	c0,0.235-0.191,0.372-0.57,0.398c-0.717,0.158-1.44,0.277-2.17,0.359c-1.25,0.172-2.51,0.271-3.772,0.299
	c-2.104,0.03-4.448-0.033-7.033-0.199c-2.238,5.875-3.357,8.998-3.359,9.369c0,0.408,0.089,1.717,0.259,3.926
	c0.388,0.294,0.804,0.549,1.241,0.762c0.193,0.036,0.327,0.214,0.31,0.409c0.01,0.08-0.029,0.159-0.1,0.198l-0.36,0.201
	c-0.407,0.103-0.83,0.121-1.243,0.051c-0.655-0.104-5.049-0.969-13.181-2.6c-0.412-0.068-0.412-1.188,0-3.363
	c0.299-1.349,0.696-2.668,1.186-3.957c0.508-1.433,1.112-2.825,1.81-4.174c0.594-1.08,1.061-2.229,1.39-3.417
	c0.342-0.824,0.518-1.708,0.518-2.6c-0.301-0.606-0.817-1.079-1.447-1.325c-0.629-0.315-1.286-0.571-1.963-0.764
	c-0.341-0.03-0.647-0.218-0.829-0.508c-0.169-0.175-0.325-0.363-0.466-0.562c-0.14-0.338-0.193-0.706-0.155-1.069V8.34
	C2.13,7.788,2.201,7.232,2.39,6.71c0.656-1.119,1.152-1.953,1.5-2.494c0.252-0.374,0.548-0.717,0.882-1.02
	c0.199-0.255,0.503-0.405,0.827-0.408c0.275,0.034,0.553,0.034,0.828,0l0.516-0.05c0.125-0.241,0.281-0.463,0.466-0.662
	c0.52-0.122,1.065-0.068,1.551,0.152l0.207,0.56h14.211v0.459h6.154V2.789l14.163-0.05l0.466,0.254
	c0.237,0.113,0.396,0.347,0.411,0.611c0.066,1.327,0.138,2.566,0.207,3.72c0.104,1.255,0.087,2.517-0.057,3.769
	C44.555,11.634,44.471,11.924,44.471,11.958z M29.632,13.231c-0.129-0.058-0.269-0.092-0.409-0.1v0.1l-4.601-0.05
	c-0.188,0.545-0.115,1.146,0.2,1.63c0.299,0.492,0.646,0.953,1.039,1.375c0.279,0.238,0.617,0.396,0.979,0.455
	c0.344,0.034,0.5,0.121,0.467,0.256c-0.05,0.182-0.229,0.294-0.414,0.257h-0.668c-0.473-0.119-0.901-0.366-1.242-0.713
	c-0.556-0.421-1.028-0.938-1.4-1.527c-0.152-0.564-0.221-1.147-0.206-1.731l-0.93-0.053c-0.556,0.001-1.083,0.244-1.447,0.664
	c-0.34,0.396-0.524,0.903-0.517,1.425v1.372c0.145,0.486,0.541,0.856,1.035,0.969c0.82,0.328,1.703,0.467,2.583,0.409
	c0.967-0.139,1.725-0.223,2.276-0.257c0.501-0.028,1.003-0.011,1.5,0.051c0.726,0.066,1.224,0.1,1.5,0.1
	c0.297,0.022,0.597-0.012,0.879-0.1l0.418-0.406c0.168-0.527,0.203-1.088,0.101-1.632c0.015-0.652-0.129-1.297-0.412-1.884
	C30.225,13.538,29.954,13.313,29.632,13.231z"/>
<g>
	<defs>
		<path id="SVGID_1_" d="M44.471,11.958c-0.125,0.262-0.382,0.437-0.671,0.457c-0.516,0.033-4.028,0.083-10.547,0.153
			c-0.229,0.005-0.459,0.056-0.672,0.15c-0.371,0.099-0.677,0.362-0.828,0.715c-0.116,0.535-0.135,1.088-0.053,1.63
			c0.034,0.4,0.104,1.017,0.209,1.832c0.039,0.43,0.104,0.856,0.207,1.277c0,0.235-0.191,0.372-0.57,0.398
			c-0.717,0.158-1.44,0.277-2.17,0.359c-1.25,0.172-2.51,0.271-3.772,0.299c-2.104,0.03-4.448-0.033-7.033-0.199
			c-2.238,5.875-3.357,8.998-3.359,9.369c0,0.408,0.089,1.717,0.259,3.926c0.388,0.294,0.804,0.549,1.241,0.762
			c0.193,0.036,0.327,0.214,0.31,0.409c0.01,0.08-0.029,0.159-0.1,0.198l-0.36,0.201c-0.407,0.103-0.83,0.121-1.243,0.051
			c-0.655-0.104-5.049-0.969-13.181-2.6c-0.412-0.068-0.412-1.188,0-3.363c0.299-1.349,0.696-2.668,1.186-3.957
			c0.508-1.433,1.112-2.825,1.81-4.174c0.594-1.08,1.061-2.229,1.39-3.417c0.342-0.824,0.518-1.708,0.518-2.6
			c-0.301-0.606-0.817-1.079-1.447-1.325c-0.629-0.315-1.286-0.571-1.963-0.764c-0.341-0.03-0.647-0.218-0.829-0.508
			c-0.169-0.175-0.325-0.363-0.466-0.562c-0.14-0.338-0.193-0.706-0.155-1.069V8.34C2.13,7.788,2.201,7.232,2.39,6.71
			c0.656-1.119,1.152-1.953,1.5-2.494c0.252-0.374,0.548-0.717,0.882-1.02c0.199-0.255,0.503-0.405,0.827-0.408
			c0.275,0.034,0.553,0.034,0.828,0l0.516-0.05c0.125-0.241,0.281-0.463,0.466-0.662c0.52-0.122,1.065-0.068,1.551,0.152l0.207,0.56
			h14.211v0.459h6.154V2.789l14.163-0.05l0.466,0.254c0.237,0.113,0.396,0.347,0.411,0.611c0.066,1.327,0.138,2.566,0.207,3.72
			c0.104,1.255,0.087,2.517-0.057,3.769C44.555,11.634,44.471,11.924,44.471,11.958z M29.632,13.231
			c-0.129-0.058-0.269-0.092-0.409-0.1v0.1l-4.601-0.05c-0.188,0.545-0.115,1.146,0.2,1.63c0.299,0.492,0.646,0.953,1.039,1.375
			c0.279,0.238,0.617,0.396,0.979,0.455c0.344,0.034,0.5,0.121,0.467,0.256c-0.05,0.182-0.229,0.294-0.414,0.257h-0.668
			c-0.473-0.119-0.901-0.366-1.242-0.713c-0.556-0.421-1.028-0.938-1.4-1.527c-0.152-0.564-0.221-1.147-0.206-1.731l-0.93-0.053
			c-0.556,0.001-1.083,0.244-1.447,0.664c-0.34,0.396-0.524,0.903-0.517,1.425v1.372c0.145,0.486,0.541,0.856,1.035,0.969
			c0.82,0.328,1.703,0.467,2.583,0.409c0.967-0.139,1.725-0.223,2.276-0.257c0.501-0.028,1.003-0.011,1.5,0.051
			c0.726,0.066,1.224,0.1,1.5,0.1c0.297,0.022,0.597-0.012,0.879-0.1l0.418-0.406c0.168-0.527,0.203-1.088,0.101-1.632
			c0.015-0.652-0.129-1.297-0.412-1.884C30.225,13.538,29.954,13.313,29.632,13.231z"/>
	</defs>
	<clipPath id="SVGID_2_">
		<use xlink:href="#SVGID_1_"  overflow="visible"/>
	</clipPath>
	<g clip-path="url(#SVGID_2_)">
		<g opacity="0.7">
			
				<linearGradient id="SVGID_3_" gradientUnits="userSpaceOnUse" x1="-556.6563" y1="179.0488" x2="-537.0537" y2="179.0488" gradientTransform="matrix(1 0 0 1 561.3799 -165.6211)">
				<stop  offset="0" style="stop-color:#CA4EE5;stop-opacity:0"/>
				<stop  offset="0.4624" style="stop-color:#F6EBE6"/>
			</linearGradient>
			<polygon fill="url(#SVGID_3_)" points="4.99,23.063 4.724,22.797 9.33,18.189 9.33,16.771 11.335,14.762 13.093,14.762 
				24.061,3.793 24.326,4.06 13.248,15.141 11.494,15.141 9.707,16.924 9.707,18.348 			"/>
		</g>
		<g opacity="0.7">
			
				<linearGradient id="SVGID_4_" gradientUnits="userSpaceOnUse" x1="-519.541" y1="179.1738" x2="-509.3486" y2="179.1738" gradientTransform="matrix(1 0 0 1 561.3799 -165.6211)">
				<stop  offset="0" style="stop-color:#CA4EE5;stop-opacity:0"/>
				<stop  offset="0.5753" style="stop-color:#F6EBE6"/>
			</linearGradient>
			<polygon fill="url(#SVGID_4_)" points="41.977,18.562 41.839,18.421 44.234,16.026 44.234,15.29 45.277,14.245 46.189,14.245 
				51.893,8.542 52.031,8.68 46.271,14.44 45.357,14.44 44.43,15.369 44.43,16.107 			"/>
		</g>
		<g>
			
				<linearGradient id="SVGID_5_" gradientUnits="userSpaceOnUse" x1="-544.2651" y1="181.5439" x2="-521.6572" y2="181.5439" gradientTransform="matrix(1 0 0 1 561.3799 -165.6211)">
				<stop  offset="0" style="stop-color:#CA4EE5;stop-opacity:0"/>
				<stop  offset="1" style="stop-color:#F6EBE6"/>
			</linearGradient>
			<polygon fill="url(#SVGID_5_)" points="17.419,27.035 17.115,26.729 22.428,21.414 22.428,19.776 24.742,17.463 26.765,17.463 
				39.414,4.811 39.723,5.12 26.947,17.896 24.923,17.896 22.862,19.957 22.862,21.596 			"/>
		</g>
		<g opacity="0.7">
			
				<linearGradient id="SVGID_6_" gradientUnits="userSpaceOnUse" x1="-557.0581" y1="180.4365" x2="-545.7935" y2="180.4365" gradientTransform="matrix(1 0 0 1 561.3799 -165.6211)">
				<stop  offset="0" style="stop-color:#CA4EE5;stop-opacity:0"/>
				<stop  offset="0.5591" style="stop-color:#F6EBE6"/>
			</linearGradient>
			<polygon fill="url(#SVGID_6_)" points="4.448,20.369 4.322,20.242 8.472,16.092 8.472,15.418 9.424,14.466 10.256,14.466 
				15.46,9.261 15.586,9.387 10.33,14.645 9.497,14.645 8.649,15.493 8.649,16.167 			"/>
		</g>
		<g>
			
				<linearGradient id="SVGID_7_" gradientUnits="userSpaceOnUse" x1="-578.7231" y1="184.0371" x2="-567.458" y2="184.0371" gradientTransform="matrix(1 0 0 1 561.3799 -165.6211)">
				<stop  offset="0" style="stop-color:#CA4EE5;stop-opacity:0"/>
				<stop  offset="1" style="stop-color:#F6EBE6"/>
			</linearGradient>
			<polygon fill="url(#SVGID_7_)" points="-17.217,23.971 -17.343,23.844 -13.194,19.693 -13.194,19.021 -12.241,18.067 
				-11.409,18.067 -6.205,12.862 -6.078,12.988 -11.335,18.247 -12.168,18.247 -13.015,19.094 -13.015,19.769 			"/>
		</g>
		
			<linearGradient id="SVGID_8_" gradientUnits="userSpaceOnUse" x1="-565.6475" y1="180.333" x2="-579.0467" y2="193.7323" gradientTransform="matrix(1 0 0 1 561.3799 -165.6211)">
			<stop  offset="0" style="stop-color:#CA4EE5;stop-opacity:0"/>
			<stop  offset="1" style="stop-color:#F6EBE6"/>
		</linearGradient>
		<polygon fill="url(#SVGID_8_)" points="-5.203,13.605 -18.901,27.305 -14.821,27.305 -1.137,13.621 		"/>
		
			<linearGradient id="SVGID_9_" gradientUnits="userSpaceOnUse" x1="-561.4541" y1="180.332" x2="-576.1235" y2="195.0016" gradientTransform="matrix(1 0 0 1 561.3799 -165.6211)">
			<stop  offset="0" style="stop-color:#CA4EE5;stop-opacity:0"/>
			<stop  offset="1" style="stop-color:#F6EBE6"/>
		</linearGradient>
		<polygon fill="url(#SVGID_9_)" points="-3.046,14.151 -16.744,27.85 -9.682,27.85 4.001,14.167 		"/>
		
			<linearGradient id="SVGID_10_" gradientUnits="userSpaceOnUse" x1="-538.0161" y1="178.7148" x2="-559.3579" y2="200.0568" gradientTransform="matrix(1 0 0 1 561.3799 -165.6211)">
			<stop  offset="0" style="stop-color:#CA4EE5;stop-opacity:0"/>
			<stop  offset="0.7742" style="stop-color:#F6EBE6"/>
		</linearGradient>
		<polygon opacity="0.7" fill="url(#SVGID_10_)" enable-background="new    " points="19.04,12.279 -0.888,32.207 9.387,32.207 
			29.295,12.3 		"/>
		
			<linearGradient id="SVGID_11_" gradientUnits="userSpaceOnUse" x1="-533.8247" y1="182.4316" x2="-541.9957" y2="190.6026" gradientTransform="matrix(1 0 0 1 561.3799 -165.6211)">
			<stop  offset="0" style="stop-color:#CA4EE5;stop-opacity:0"/>
			<stop  offset="0.672" style="stop-color:#F6EBE6"/>
		</linearGradient>
		<polygon opacity="0.7" fill="url(#SVGID_11_)" enable-background="new    " points="25.899,16.499 18.27,24.129 22.203,24.129 
			29.826,16.506 		"/>
		
			<linearGradient id="SVGID_12_" gradientUnits="userSpaceOnUse" x1="-523.4692" y1="177.7422" x2="-531.6407" y2="185.9138" gradientTransform="matrix(1 0 0 1 561.3799 -165.6211)">
			<stop  offset="0" style="stop-color:#CA4EE5;stop-opacity:0"/>
			<stop  offset="0.7688" style="stop-color:#F6B8FF"/>
		</linearGradient>
		<polygon fill="url(#SVGID_12_)" points="36.254,11.811 28.623,19.44 32.558,19.44 40.18,11.818 		"/>
		
			<linearGradient id="SVGID_13_" gradientUnits="userSpaceOnUse" x1="-538.7827" y1="181.3662" x2="-546.9534" y2="189.537" gradientTransform="matrix(1 0 0 1 561.3799 -165.6211)">
			<stop  offset="0" style="stop-color:#CA4EE5;stop-opacity:0"/>
			<stop  offset="1" style="stop-color:#F6B8FF"/>
		</linearGradient>
		<polygon fill="url(#SVGID_13_)" points="20.941,15.434 13.312,23.063 17.245,23.063 24.867,15.441 		"/>
		<g>
			
				<linearGradient id="SVGID_14_" gradientUnits="userSpaceOnUse" x1="-557.3154" y1="189.4385" x2="-547.5601" y2="189.4385" gradientTransform="matrix(1 0 0 1 561.3799 -165.6211)">
				<stop  offset="0" style="stop-color:#CA4EE5;stop-opacity:0"/>
				<stop  offset="1" style="stop-color:#F6EBE6"/>
			</linearGradient>
			<polygon fill="url(#SVGID_14_)" points="4.28,28.695 4.064,28.482 13.604,18.939 13.82,19.154 			"/>
		</g>
	</g>
</g>
</svg>
