<?xml version="1.0" encoding="utf-8"?>
<!-- Generator: Adobe Illustrator 16.0.0, SVG Export Plug-In . SVG Version: 6.00 Build 0)  -->
<!DOCTYPE svg PUBLIC "-//W3C//DTD SVG 1.1//EN" "http://www.w3.org/Graphics/SVG/1.1/DTD/svg11.dtd">
<svg version="1.1" id="case1" xmlns="http://www.w3.org/2000/svg" xmlns:xlink="http://www.w3.org/1999/xlink" x="0px" y="0px"
	 width="79.667px" height="36px" viewBox="0 0 79.667 36" enable-background="new 0 0 79.667 36" xml:space="preserve">
<linearGradient id="shape_1_" gradientUnits="userSpaceOnUse" x1="-65.311" y1="2197.2412" x2="-22.3062" y2="2197.2412" gradientTransform="matrix(1 0 0 1 67.2998 -2179.2412)">
	<stop  offset="0" style="stop-color:#CA4EE5"/>
	<stop  offset="0.3011" style="stop-color:#570090"/>
	<stop  offset="0.7419" style="stop-color:#893BDC"/>
	<stop  offset="1" style="stop-color:#CA4EE5"/>
</linearGradient>
<path id="shape" fill="url(#shape_1_)" d="M35.491,17.919v5.899h-5.698v3.767h5.698v5.91h3.789v-5.91h5.714v-3.767h-5.708v-5.899
	H35.491z M27.342,2.867c-0.025,0.024-0.051,0.051-0.074,0.077c-0.455,0.52-0.404,1.311,0.115,1.767l-1.578,1.568l-2.211-0.158
	l-0.553-0.549c-0.039-0.05-0.082-0.095-0.133-0.134c-0.307-0.231-0.74-0.172-0.973,0.134l-2.528,2.513l0.041,1.767l-1.854,1.844
	l0.435,0.435l-1.899,1.885l-0.436-0.432l-1.969,1.964l0.436,0.434l-1.9,1.886l-0.435-0.433L9.85,19.398l0.443,0.43l-1.9,1.883
	l-0.438-0.427l-1.817,1.805l-2.527,0.708l-1.346,1.33c-0.053,0.04-0.1,0.087-0.141,0.143c-0.088,0.116-0.132,0.254-0.135,0.396
	v0.027c0.005,0.203,0.1,0.402,0.275,0.535l7.029,6.985c0.041,0.054,0.086,0.099,0.137,0.136c0.305,0.231,0.74,0.172,0.971-0.136
	l1.343-1.332l0.669-2.551l1.817-1.806l-0.396-0.396l1.9-1.885l0.395,0.395l1.975-1.966l-0.398-0.394l1.9-1.887l0.389,0.393
	l1.975-1.962l-0.393-0.396l1.9-1.884l0.393,0.392l1.855-1.845l1.815,0.08l1.853-1.845l0.676,2.474L18.97,27.836l-0.83-0.275
	c-0.516-0.15-1.045-0.262-1.58-0.313c-0.367-0.075-0.73,0.148-0.827,0.51c-0.007,0.025-0.011,0.049-0.015,0.073
	c-0.041,0.31,0.178,0.594,0.486,0.635l2.766,0.941l12.439-12.369l2.211-9.5l-4.342-4.319C29.031,2.928,28.72,2.7,28.37,2.551
	c-0.096-0.03-0.194-0.046-0.291-0.046C27.797,2.505,27.522,2.634,27.342,2.867"/>
<g>
	<defs>
		<path id="SVGID_1_" d="M35.491,17.919v5.899h-5.698v3.767h5.698v5.91h3.789v-5.91h5.714v-3.767h-5.708v-5.899H35.491z
			 M27.342,2.867c-0.025,0.024-0.051,0.051-0.074,0.077c-0.455,0.52-0.404,1.311,0.115,1.767l-1.578,1.568l-2.211-0.158
			l-0.553-0.549c-0.039-0.05-0.082-0.095-0.133-0.134c-0.307-0.231-0.74-0.172-0.973,0.134l-2.528,2.513l0.041,1.767l-1.854,1.844
			l0.435,0.435l-1.899,1.885l-0.436-0.432l-1.969,1.964l0.436,0.434l-1.9,1.886l-0.435-0.433L9.85,19.398l0.443,0.43l-1.9,1.883
			l-0.438-0.427l-1.817,1.805l-2.527,0.708l-1.346,1.33c-0.053,0.04-0.1,0.087-0.141,0.143c-0.088,0.116-0.132,0.254-0.135,0.396
			v0.027c0.005,0.203,0.1,0.402,0.275,0.535l7.029,6.985c0.041,0.054,0.086,0.099,0.137,0.136c0.305,0.231,0.74,0.172,0.971-0.136
			l1.343-1.332l0.669-2.551l1.817-1.806l-0.396-0.396l1.9-1.885l0.395,0.395l1.975-1.966l-0.398-0.394l1.9-1.887l0.389,0.393
			l1.975-1.962l-0.393-0.396l1.9-1.884l0.393,0.392l1.855-1.845l1.815,0.08l1.853-1.845l0.676,2.474L18.97,27.836l-0.83-0.275
			c-0.516-0.15-1.045-0.262-1.58-0.313c-0.367-0.075-0.73,0.148-0.827,0.51c-0.007,0.025-0.011,0.049-0.015,0.073
			c-0.041,0.31,0.178,0.594,0.486,0.635l2.766,0.941l12.439-12.369l2.211-9.5l-4.342-4.319C29.031,2.928,28.72,2.7,28.37,2.551
			c-0.096-0.03-0.194-0.046-0.291-0.046C27.797,2.505,27.522,2.634,27.342,2.867"/>
	</defs>
	<clipPath id="SVGID_2_">
		<use xlink:href="#SVGID_1_"  overflow="visible"/>
	</clipPath>
	<g clip-path="url(#SVGID_2_)">
		<g opacity="0.7">
			
				<linearGradient id="SVGID_3_" gradientUnits="userSpaceOnUse" x1="-553.2744" y1="180.3379" x2="-533.6724" y2="180.3379" gradientTransform="matrix(1 0 0 1 561.3799 -165.6211)">
				<stop  offset="0" style="stop-color:#CA4EE5;stop-opacity:0"/>
				<stop  offset="0.4624" style="stop-color:#F6EBE6"/>
			</linearGradient>
			<polygon fill="url(#SVGID_3_)" points="8.372,24.353 8.105,24.086 12.711,19.478 12.711,18.059 14.717,16.051 16.475,16.051 
				27.442,5.082 27.708,5.348 16.629,16.429 14.875,16.429 13.088,18.213 13.088,19.636 			"/>
		</g>
		<g opacity="0.7">
			
				<linearGradient id="SVGID_4_" gradientUnits="userSpaceOnUse" x1="-516.1587" y1="180.4619" x2="-505.9673" y2="180.4619" gradientTransform="matrix(1 0 0 1 561.3799 -165.6211)">
				<stop  offset="0" style="stop-color:#CA4EE5;stop-opacity:0"/>
				<stop  offset="0.5753" style="stop-color:#F6EBE6"/>
			</linearGradient>
			<polygon fill="url(#SVGID_4_)" points="45.358,19.851 45.221,19.71 47.616,17.315 47.616,16.578 48.659,15.533 49.571,15.533 
				55.274,9.831 55.413,9.969 49.653,15.729 48.739,15.729 47.811,16.657 47.811,17.396 			"/>
		</g>
		<g>
			
				<linearGradient id="SVGID_5_" gradientUnits="userSpaceOnUse" x1="-540.8833" y1="182.832" x2="-518.2759" y2="182.832" gradientTransform="matrix(1 0 0 1 561.3799 -165.6211)">
				<stop  offset="0" style="stop-color:#CA4EE5;stop-opacity:0"/>
				<stop  offset="1" style="stop-color:#F6EBE6"/>
			</linearGradient>
			<polygon fill="url(#SVGID_5_)" points="20.801,28.323 20.497,28.017 25.81,22.702 25.81,21.065 28.124,18.752 30.146,18.752 
				42.795,6.099 43.104,6.408 30.329,19.185 28.305,19.185 26.244,21.245 26.244,22.884 			"/>
		</g>
		<g opacity="0.7">
			
				<linearGradient id="SVGID_6_" gradientUnits="userSpaceOnUse" x1="-553.6763" y1="181.7246" x2="-542.4116" y2="181.7246" gradientTransform="matrix(1 0 0 1 561.3799 -165.6211)">
				<stop  offset="0" style="stop-color:#CA4EE5;stop-opacity:0"/>
				<stop  offset="0.5591" style="stop-color:#F6EBE6"/>
			</linearGradient>
			<polygon fill="url(#SVGID_6_)" points="7.83,21.657 7.704,21.53 11.854,17.381 11.854,16.707 12.806,15.755 13.638,15.755 
				18.842,10.55 18.968,10.676 13.711,15.933 12.878,15.933 12.031,16.781 12.031,17.455 			"/>
		</g>
		<g>
			
				<linearGradient id="SVGID_7_" gradientUnits="userSpaceOnUse" x1="-575.3413" y1="185.3262" x2="-564.0762" y2="185.3262" gradientTransform="matrix(1 0 0 1 561.3799 -165.6211)">
				<stop  offset="0" style="stop-color:#CA4EE5;stop-opacity:0"/>
				<stop  offset="1" style="stop-color:#F6EBE6"/>
			</linearGradient>
			<polygon fill="url(#SVGID_7_)" points="-13.835,25.259 -13.961,25.132 -9.813,20.981 -9.813,20.31 -8.859,19.356 -8.027,19.356 
				-2.823,14.151 -2.696,14.277 -7.954,19.535 -8.787,19.535 -9.633,20.383 -9.633,21.058 			"/>
		</g>
		
			<linearGradient id="SVGID_8_" gradientUnits="userSpaceOnUse" x1="-562.2651" y1="181.6211" x2="-575.6642" y2="195.0202" gradientTransform="matrix(1 0 0 1 561.3799 -165.6211)">
			<stop  offset="0" style="stop-color:#CA4EE5;stop-opacity:0"/>
			<stop  offset="1" style="stop-color:#F6EBE6"/>
		</linearGradient>
		<polygon fill="url(#SVGID_8_)" points="-1.821,14.894 -15.52,28.593 -11.439,28.593 2.245,14.909 		"/>
		
			<linearGradient id="SVGID_9_" gradientUnits="userSpaceOnUse" x1="-558.0718" y1="181.6211" x2="-572.741" y2="196.2905" gradientTransform="matrix(1 0 0 1 561.3799 -165.6211)">
			<stop  offset="0" style="stop-color:#CA4EE5;stop-opacity:0"/>
			<stop  offset="1" style="stop-color:#F6EBE6"/>
		</linearGradient>
		<polygon fill="url(#SVGID_9_)" points="0.335,15.44 -13.362,29.138 -6.3,29.138 7.383,15.455 		"/>
		
			<linearGradient id="SVGID_10_" gradientUnits="userSpaceOnUse" x1="-534.6343" y1="180.0039" x2="-555.9757" y2="201.3454" gradientTransform="matrix(1 0 0 1 561.3799 -165.6211)">
			<stop  offset="0" style="stop-color:#CA4EE5;stop-opacity:0"/>
			<stop  offset="0.7742" style="stop-color:#F6EBE6"/>
		</linearGradient>
		<polygon opacity="0.7" fill="url(#SVGID_10_)" enable-background="new    " points="22.421,13.568 2.494,33.495 12.769,33.495 
			32.676,13.589 		"/>
		
			<linearGradient id="SVGID_11_" gradientUnits="userSpaceOnUse" x1="-530.4429" y1="183.7207" x2="-538.6133" y2="191.8912" gradientTransform="matrix(1 0 0 1 561.3799 -165.6211)">
			<stop  offset="0" style="stop-color:#CA4EE5;stop-opacity:0"/>
			<stop  offset="0.672" style="stop-color:#F6EBE6"/>
		</linearGradient>
		<polygon opacity="0.7" fill="url(#SVGID_11_)" enable-background="new    " points="29.281,17.787 21.651,25.417 25.584,25.417 
			33.208,17.795 		"/>
		
			<linearGradient id="SVGID_12_" gradientUnits="userSpaceOnUse" x1="-520.0879" y1="179.0313" x2="-528.2596" y2="187.2031" gradientTransform="matrix(1 0 0 1 561.3799 -165.6211)">
			<stop  offset="0" style="stop-color:#CA4EE5;stop-opacity:0"/>
			<stop  offset="0.7688" style="stop-color:#F6B8FF"/>
		</linearGradient>
		<polygon fill="url(#SVGID_12_)" points="39.635,13.099 32.004,20.729 35.94,20.729 43.561,13.107 		"/>
		
			<linearGradient id="SVGID_13_" gradientUnits="userSpaceOnUse" x1="-535.3999" y1="182.6543" x2="-543.571" y2="190.8255" gradientTransform="matrix(1 0 0 1 561.3799 -165.6211)">
			<stop  offset="0" style="stop-color:#CA4EE5;stop-opacity:0"/>
			<stop  offset="1" style="stop-color:#F6B8FF"/>
		</linearGradient>
		<polygon fill="url(#SVGID_13_)" points="24.323,16.722 16.693,24.353 20.626,24.353 28.25,16.73 		"/>
		<g>
			
				<linearGradient id="SVGID_14_" gradientUnits="userSpaceOnUse" x1="-553.9336" y1="190.7266" x2="-544.1782" y2="190.7266" gradientTransform="matrix(1 0 0 1 561.3799 -165.6211)">
				<stop  offset="0" style="stop-color:#CA4EE5;stop-opacity:0"/>
				<stop  offset="1" style="stop-color:#F6EBE6"/>
			</linearGradient>
			<polygon fill="url(#SVGID_14_)" points="7.662,29.983 7.446,29.771 16.986,20.228 17.202,20.442 			"/>
		</g>
	</g>
</g>
<linearGradient id="shape2_2_" gradientUnits="userSpaceOnUse" x1="53.3198" y1="15.8994" x2="52.9868" y2="31.3994">
	<stop  offset="0" style="stop-color:#4F3468"/>
	<stop  offset="0.4892" style="stop-color:#893BDC"/>
	<stop  offset="1" style="stop-color:#CA4EE5"/>
</linearGradient>
<path id="shape2_1_" fill="url(#shape2_2_)" d="M63.046,31.251c-0.313,0-0.625-0.05-0.922-0.147
	c-0.297,0.104-0.609,0.147-0.922,0.147h-8.193c-0.184,0-0.441-0.009-0.771-0.075c-0.217,0.051-0.438,0.075-0.663,0.075h-2.664
	c-0.816,0-1.605-0.342-2.166-0.937c-0.078-0.086-0.15-0.174-0.22-0.271l-0.909,0.646c-0.503,0.358-1.101,0.556-1.726,0.556h-3.584
	c-0.717,0-1.402-0.269-1.934-0.722c-0.617,0.427-1.352,0.651-2.115,0.651c-0.75,0-1.479-0.222-2.104-0.642
	c-0.164-0.11-0.315-0.233-0.453-0.37c-1.021-1.021-1.362-2.423-0.919-3.753l0.044-0.128l0.08-0.203
	c-1.801-0.254-3.146-1.767-3.146-3.646V22.24c0-0.741,0.274-1.45,0.773-1.996l4.748-5.232c0.646-1.069,1.763-1.679,3.08-1.679h0.41
	c2.064,0,3.684,1.618,3.684,3.684c0,0-0.002,0.289-0.004,0.331c0.555-0.653,1.373-1.044,2.26-1.044h8.398
	c0.262,0,0.518,0.034,0.768,0.101c0.25-0.067,0.508-0.101,0.771-0.101h9.219c0.242,0,0.48,0.029,0.717,0.087
	c0.232-0.058,0.479-0.087,0.72-0.087h8.396c0.918,0,1.797,0.433,2.354,1.159c0.563,0.726,0.752,1.689,0.521,2.573l-0.406,1.532
	c-0.146,0.541-0.437,1.02-0.826,1.395c-0.018,0.188-0.047,0.372-0.098,0.555l-0.41,1.537c-0.072,0.282-0.189,0.551-0.347,0.799
	c0.168,0.532,0.188,1.109,0.039,1.656l-0.412,1.539c-0.352,1.296-1.521,2.202-2.866,2.202H63.046z M60.007,23.782l0.018-0.009
	h-0.799l-0.002,0.009H60.007z"/>
<path id="ACE" fill="#FFFFFF" d="M37.235,23.163h-3.789c-0.41,0-0.717-0.308-0.717-0.718c0-0.104,0-0.104,0-0.204l5.018-5.531
	c0.103-0.307,0.31-0.41,0.615-0.41h0.41c0.408,0,0.717,0.308,0.717,0.717c0,0.102,0,0.205,0,0.205l-2.459,3.584h4.403
	c0.615,0,0.311,1.127-0.104,1.639l-4.509,5.531c-0.309,0.308-0.717,0.308-1.022,0.104c-0.205-0.206-0.31-0.41-0.205-0.719
	L37.235,23.163L37.235,23.163L37.235,23.163z M44.712,19.271l0.41,0.41l-4.814,8.603h3.583l2.149-1.536h2.972l-0.103,1.536h2.662
	l1.537-9.013H44.712L44.712,19.271z M49.218,20.809l-0.104,3.482h-2.971l2.049-3.482H49.218L49.218,20.809z M53.009,28.284h8.188
	l0.611-2.15l-0.816,0.614h-5.729l1.739-5.941h6.449l0.408-1.535h-9.221l-2.35,7.988c-0.101,0.104-0.101,0.309-0.101,0.409
	c0,0.103,0,0.205,0.103,0.31c0.102,0.105,0.205,0.203,0.307,0.203C52.802,28.284,52.908,28.284,53.009,28.284L53.009,28.284
	L53.009,28.284z M65.298,19.271l0.313,0.606l-2.563,8.396h8.193l0.409-1.533h-5.123l0.718-2.458h4.711l0.41-1.537H67.86l0.611-1.938
	h4.815l0.408-1.535H65.298L65.298,19.271z"/>
</svg>
