<?xml version="1.0" encoding="utf-8"?>
<!-- Generator: Adobe Illustrator 16.0.0, SVG Export Plug-In . SVG Version: 6.00 Build 0)  -->
<!DOCTYPE svg PUBLIC "-//W3C//DTD SVG 1.1//EN" "http://www.w3.org/Graphics/SVG/1.1/DTD/svg11.dtd">
<svg version="1.1" id="tc" xmlns="http://www.w3.org/2000/svg" xmlns:xlink="http://www.w3.org/1999/xlink" x="0px" y="0px"
	 width="92px" height="36px" viewBox="0 0 92 36" enable-background="new 0 0 92 36" xml:space="preserve">
<linearGradient id="SVGID_1_" gradientUnits="userSpaceOnUse" x1="-11.8613" y1="560.6406" x2="32.5405" y2="560.6406" gradientTransform="matrix(1 0 0 1 59.02 -542.5654)">
	<stop  offset="0" style="stop-color:#CA4EE5"/>
	<stop  offset="0.3011" style="stop-color:#570090"/>
	<stop  offset="0.7419" style="stop-color:#893BDC"/>
	<stop  offset="1" style="stop-color:#CA4EE5"/>
</linearGradient>
<path fill="url(#SVGID_1_)" d="M91.307,5.132c-0.078-0.213-0.129-0.432-0.148-0.657c-0.021-0.248-0.184-0.461-0.41-0.551
	l-0.157-0.15L90.387,3.67c-0.253-0.055-0.512-0.088-0.771-0.102c-0.396-0.084-0.808,0.006-1.128,0.251
	c-0.055,0.109-0.125,0.21-0.203,0.304c-0.028,0.058-0.088,0.097-0.151,0.1c-0.075,0.041-0.146,0.092-0.207,0.153
	c-0.071,0.039-0.112,0.119-0.102,0.201v0.05H68.003c-0.039-0.189-0.176-0.343-0.356-0.407h-0.101c-0.104,0-0.31-0.016-0.618-0.05
	h-4.402c-0.787,0.036-1.465,0.05-2.049,0.05h-2.451c-0.03-0.165-0.049-0.334-0.053-0.503c-0.002-0.109-0.037-0.215-0.103-0.304
	c-0.032-0.134-0.127-0.245-0.253-0.3c-0.471-0.102-0.949-0.153-1.43-0.153c-0.019,0.002-0.037,0.002-0.058,0.003h-0.31v0.968h-0.15
	c-0.143,0-0.283,0.034-0.411,0.099c-0.129,0.067-0.268,0.117-0.409,0.15c-0.185,0.07-0.371,0.122-0.563,0.152
	c-0.124,0.092-0.266,0.162-0.416,0.201c-0.123,0.007-0.242,0.042-0.35,0.102c-0.192-0.016-0.385-0.051-0.567-0.102
	c-0.228-0.054-0.447-0.12-0.664-0.201c-0.233-0.113-0.517-0.076-0.712,0.095c-0.251,0.081-0.436,0.297-0.471,0.557v0.152
	c0.021,0.341,0.069,0.679,0.154,1.011c0.104,0.502,0.153,0.775,0.153,0.807c-0.031,0.381-0.117,0.754-0.256,1.11
	c-0.146,0.425-0.371,0.82-0.663,1.16L50.29,9.426c-0.241,0.315-0.536,0.589-0.868,0.807c-0.082,0.031-0.169,0.047-0.257,0.048
	c-0.129,0.018-0.242,0.093-0.308,0.204c-0.26-0.003-0.519,0.086-0.719,0.252c-0.179,0.19-0.271,0.446-0.258,0.707v0.106
	c-0.021,0.298,0.116,0.584,0.36,0.757c0.278,0.083,0.573,0.117,0.866,0.101c0.41,0.103,0.854,0.203,1.334,0.301
	c0.478,0.056,0.896,0.34,1.125,0.761c0.272,0.403,0.435,0.873,0.461,1.36c-0.006,0.237-0.043,0.472-0.104,0.701
	c-0.104,0.168-0.354,0.726-0.768,1.667c-0.449,0.942-0.903,1.967-1.387,3.075c-0.511,1.107-0.955,2.117-1.326,3.026
	c-0.375,0.941-0.598,1.464-0.668,1.563v0.052h-0.053c0,0.032-0.104,0.408-0.305,1.106c-0.168,0.681-0.255,1.371-0.258,2.066v0.506
	c-0.01,0.229,0.025,0.448,0.104,0.659c-0.002,0.088,0.018,0.175,0.055,0.251v0.199c-0.012,0.081,0.027,0.163,0.102,0.204v0.206
	c0.186,0.18,0.415,0.302,0.666,0.35c0.667,0.182,1.357,0.266,2.051,0.251c-0.003,0.104-0.021,0.206-0.057,0.306
	c-0.068,0.104-0.104,0.229-0.104,0.354c-0.086,0.58,0.147,1.159,0.617,1.512c0.108,0.063,0.23,0.098,0.355,0.104
	c0.063,0.035,0.133,0.052,0.203,0.053c0.084,0.029,0.17,0.046,0.256,0.05l0.05,0.101h7.172c0.104-0.008,0.205-0.025,0.308-0.049
	c0.188-0.041,0.363-0.131,0.515-0.254c0.372-0.586,0.552-1.271,0.512-1.969v-0.804c-0.103-0.738-0.188-1.314-0.256-1.718
	c-0.031-0.368-0.052-0.656-0.052-0.858v-0.197c0.027-0.026,0.049-0.063,0.052-0.101l2.056-6.981
	c0.092-0.227,0.252-0.421,0.459-0.554c0.299-0.191,0.627-0.328,0.976-0.402c0.522-0.104,1.063-0.104,1.587,0
	c1.074,0.229,2.172,0.365,3.271,0.402c0.616,0.046,1.236,0.012,1.846-0.102c0.718-0.166,1.328-0.336,1.844-0.502
	c0.436-0.146,0.88-0.267,1.331-0.354c0.274-0.042,0.538-0.146,0.771-0.302v-0.151c0.127-0.129,0.246-0.263,0.356-0.405
	c0.169-0.134,0.137-0.386-0.104-0.756V16.53c0.002-0.358,0.037-0.714,0.104-1.063c0.106-0.376,0.3-0.721,0.563-1.009
	c0.422-0.445,0.883-0.851,1.381-1.211c0.422-0.312,0.912-0.518,1.432-0.603c0.25-0.07,0.51-0.106,0.771-0.104h1.328
	c0.479,0,0.973,0.019,1.481,0.053c0.547,0.032,1.128,0.051,1.743,0.051h2.714c0.646,0,1.126-0.019,1.435-0.051
	c0.344-0.034,0.545-0.053,0.614-0.053c0.047-0.027,0.101-0.043,0.149-0.048c0.066-0.109,0.117-0.228,0.152-0.351h3.174V11.79
	c0-0.103,0.02-0.368,0.055-0.804c0-0.406,0.018-0.846,0.051-1.313c0.034-0.444,0.055-0.858,0.055-1.262
	c0.034-0.436,0.053-0.675,0.053-0.708c0-0.01,0-0.021,0.002-0.029c0.009-0.048,0.054-0.079,0.102-0.071
	c0.029-0.025,0.047-0.062,0.051-0.1c-0.004-0.187,0.016-0.372,0.051-0.555V6.293C91.564,5.893,91.477,5.496,91.307,5.132z
	 M72.52,16.282c-0.14,0.874-1.387,1.463-3.736,1.765c-0.889,0.141-1.791,0.107-2.664-0.099c-0.612-0.122-1.199-0.343-1.741-0.658
	l-0.149-0.049c-0.313-0.192-0.574-0.452-0.771-0.759h-0.104v-0.047c-0.179-0.287-0.252-0.625-0.205-0.96
	c0.017-0.291,0.066-0.578,0.152-0.854c0.11-0.347,0.35-0.638,0.666-0.81c0.374-0.203,0.688-0.349,0.922-0.454h0.151
	c0-0.033,0.032-0.049,0.103-0.049c0.031,0,0.24-0.019,0.615-0.052h0.002h5.223c0.552,0.219,1.02,0.608,1.334,1.11
	c0.227,0.364,0.353,0.781,0.356,1.209C72.678,15.819,72.625,16.062,72.52,16.282z"/>
<linearGradient id="SVGID_2_" gradientUnits="userSpaceOnUse" x1="-58.584" y1="560.4844" x2="-14.0894" y2="560.4844" gradientTransform="matrix(1 0 0 1 59.02 -542.5654)">
	<stop  offset="0" style="stop-color:#CA4EE5"/>
	<stop  offset="0.3011" style="stop-color:#570090"/>
	<stop  offset="0.7419" style="stop-color:#893BDC"/>
	<stop  offset="1" style="stop-color:#CA4EE5"/>
</linearGradient>
<path fill="url(#SVGID_2_)" d="M44.471,4.276c-0.047-0.25-0.257-0.439-0.512-0.457L43.854,3.62l-0.101-0.052
	c-0.277-0.11-0.571-0.178-0.869-0.2c-0.388-0.094-0.795,0.022-1.078,0.303C41.76,3.788,41.668,3.88,41.55,3.926
	c-0.081,0.008-0.143,0.071-0.153,0.15c-0.109,0.088-0.18,0.213-0.202,0.351v0.102H21.278c-0.079-0.166-0.183-0.319-0.308-0.454
	c-0.071,0-0.141-0.017-0.205-0.051h-0.564c-0.307,0-0.799-0.021-1.484-0.052c-0.685-0.032-1.638-0.048-2.868-0.048
	c-0.785,0.066-1.464,0.099-2.048,0.099c-0.545,0.035-1.056,0.051-1.535,0.051h-0.972c-0.001-0.311-0.054-0.617-0.155-0.91
	c-0.022-0.123-0.132-0.209-0.256-0.201c-0.436-0.096-0.881-0.146-1.327-0.149H9.089v1.004H9.04C8.887,3.814,8.736,3.833,8.587,3.872
	C8.425,3.9,8.268,3.952,8.121,4.024c-0.158,0.097-0.332,0.163-0.512,0.2L6.89,4.529c-0.206-0.018-0.411-0.05-0.611-0.102
	C6.042,4.346,5.801,4.279,5.557,4.224c-0.233-0.1-0.5-0.082-0.717,0.052C4.637,4.391,4.501,4.598,4.482,4.83v0.203
	C4.495,5.37,4.528,5.706,4.578,6.039C4.656,6.302,4.71,6.573,4.736,6.847C4.664,7.208,4.559,7.561,4.425,7.905
	C4.298,8.338,4.07,8.736,3.76,9.066l-0.154,0.25c-0.24,0.316-0.535,0.589-0.868,0.806c-0.081,0.037-0.168,0.054-0.256,0.051
	c-0.092,0.013-0.177,0.054-0.249,0.113c-0.263-0.003-0.517,0.085-0.721,0.251c-0.031,0.034-0.067,0.068-0.101,0.104
	c-0.155,0.198-0.228,0.449-0.204,0.7v0.048c0.013,0.265,0.122,0.517,0.306,0.707l0.051,0.051c0.259,0.111,0.537,0.163,0.818,0.151
	c0.442,0.067,0.922,0.15,1.432,0.25c0.459,0.065,0.859,0.348,1.075,0.76c0.255,0.408,0.397,0.877,0.41,1.36
	c-0.019,0.237-0.052,0.475-0.102,0.708c-0.309,0.495-0.565,1.02-0.77,1.565c-0.441,0.973-0.903,2.017-1.38,3.127
	c-0.512,1.115-0.973,2.141-1.383,3.078c-0.06,0.111-0.112,0.229-0.155,0.352c-0.134,0.393-0.324,0.766-0.563,1.107v0.097
	c-0.061,0.394-0.147,0.784-0.257,1.169c-0.167,0.658-0.252,1.335-0.253,2.015c0.001,0.104,0.019,0.206,0.052,0.306
	c0.038,0.078,0.056,0.166,0.052,0.252c-0.001,0.236,0.017,0.476,0.052,0.707v0.408c-0.011,0.082,0.029,0.161,0.102,0.2
	c-0.01,0.07,0.009,0.142,0.05,0.2c0.2,0.156,0.426,0.273,0.667,0.352c0.039,0.002,0.075,0.021,0.1,0.051
	c0.606,0.134,1.224,0.199,1.844,0.201v0.656c0.001,0.305,0.037,0.604,0.105,0.901c0.05,0.249,0.223,0.457,0.459,0.554
	c0.287,0.082,0.562,0.2,0.818,0.352h7.214c0.087-0.004,0.173-0.021,0.257-0.051c0.2-0.035,0.382-0.143,0.511-0.304
	c0.427-0.522,0.631-1.196,0.563-1.869c0.015-0.294-0.038-0.589-0.154-0.86c-0.088-0.563-0.139-1.141-0.152-1.713v-1.16l2.104-6.961
	c0.104-0.207,0.242-0.394,0.407-0.556c0.263-0.198,0.558-0.352,0.871-0.452c0.525-0.104,1.064-0.104,1.588,0
	c1.468,0.232,2.594,0.383,3.379,0.452c0.616,0.046,1.235,0.011,1.841-0.102l0.564-0.15c0.409-0.095,0.853-0.222,1.332-0.352
	s0.922-0.269,1.333-0.399c0.274-0.044,0.536-0.15,0.767-0.305v-0.098c0.135-0.101,0.257-0.218,0.36-0.351
	c0.1-0.265,0.08-0.559-0.054-0.806c-0.086-0.189-0.12-0.398-0.102-0.606c0.001-0.356,0.036-0.709,0.102-1.059
	c0.107-0.375,0.3-0.722,0.564-1.01c0.395-0.453,0.841-0.859,1.33-1.211c0.47-0.298,0.991-0.501,1.538-0.604
	c0.216-0.063,0.439-0.099,0.665-0.103h1.484c0.44,0,0.935,0.017,1.484,0.051c0.549,0.034,1.11,0.051,1.694,0.051h2.715
	c0.478,0.007,0.956-0.01,1.433-0.051c0.306-0.034,0.51-0.051,0.615-0.051l0.101-0.05c0.069-0.051,0.122-0.122,0.154-0.2
	c0.003-0.079,0.04-0.151,0.102-0.201h3.073v-0.351c0-0.103,0.019-0.354,0.052-0.76c0.072-0.434,0.106-0.872,0.101-1.311
	c0.038-0.437,0.071-0.874,0.104-1.311c0.034-0.405,0.052-0.624,0.052-0.657V7.353c0.033-0.204,0.067-0.385,0.102-0.554
	c0.071-0.194,0.105-0.398,0.099-0.604c-0.007-0.429-0.131-0.847-0.359-1.211C44.562,4.744,44.53,4.509,44.471,4.276z M25.834,16.135
	c-0.207,0.781-1.485,1.342-3.842,1.715c-0.348,0.055-0.699,0.082-1.048,0.082c-0.526,0-1.052-0.063-1.564-0.185
	c-0.589-0.116-1.158-0.319-1.687-0.604l-0.206-0.052c-0.153-0.185-0.326-0.354-0.513-0.504c-0.099-0.066-0.186-0.151-0.253-0.249
	l-0.104-0.102c-0.174-0.288-0.247-0.625-0.204-0.959c-0.014-0.293,0.038-0.587,0.152-0.857c0.129-0.333,0.363-0.617,0.665-0.809
	l0.922-0.404l0.255-0.101h0.615c0.41-0.035,0.89-0.049,1.436-0.049h1.788c0.685,0,1.352,0,1.999,0.002
	c0.55,0.247,1.013,0.65,1.332,1.16c0.222,0.347,0.346,0.749,0.357,1.159C25.947,15.635,25.913,15.891,25.834,16.135z"/>
<g>
	<defs>
		<path id="SVGID_3_" d="M44.471,4.276c-0.047-0.25-0.257-0.439-0.512-0.457L43.854,3.62l-0.101-0.052
			c-0.277-0.11-0.571-0.178-0.869-0.2c-0.388-0.094-0.795,0.022-1.078,0.303C41.76,3.788,41.668,3.88,41.55,3.926
			c-0.081,0.008-0.143,0.071-0.153,0.15c-0.109,0.088-0.18,0.213-0.202,0.351v0.102H21.278c-0.079-0.166-0.183-0.319-0.308-0.454
			c-0.071,0-0.141-0.017-0.205-0.051h-0.564c-0.307,0-0.799-0.021-1.484-0.052c-0.685-0.032-1.638-0.048-2.868-0.048
			c-0.785,0.066-1.464,0.099-2.048,0.099c-0.545,0.035-1.056,0.051-1.535,0.051h-0.972c-0.001-0.311-0.054-0.617-0.155-0.91
			c-0.022-0.123-0.132-0.209-0.256-0.201c-0.436-0.096-0.881-0.146-1.327-0.149H9.089v1.004H9.04
			C8.887,3.814,8.736,3.833,8.587,3.872C8.425,3.9,8.268,3.952,8.121,4.024c-0.158,0.097-0.332,0.163-0.512,0.2L6.89,4.529
			c-0.206-0.018-0.411-0.05-0.611-0.102C6.042,4.346,5.801,4.279,5.557,4.224c-0.233-0.1-0.5-0.082-0.717,0.052
			C4.637,4.391,4.501,4.598,4.482,4.83v0.203C4.495,5.37,4.528,5.706,4.578,6.039C4.656,6.302,4.71,6.573,4.736,6.847
			C4.664,7.208,4.559,7.561,4.425,7.905C4.298,8.338,4.07,8.736,3.76,9.066l-0.154,0.25c-0.24,0.316-0.535,0.589-0.868,0.806
			c-0.081,0.037-0.168,0.054-0.256,0.051c-0.092,0.013-0.177,0.054-0.249,0.113c-0.263-0.003-0.517,0.085-0.721,0.251
			c-0.031,0.034-0.067,0.068-0.101,0.104c-0.155,0.198-0.228,0.449-0.204,0.7v0.048c0.013,0.265,0.122,0.517,0.306,0.707
			l0.051,0.051c0.259,0.111,0.537,0.163,0.818,0.151c0.442,0.067,0.922,0.15,1.432,0.25c0.459,0.065,0.859,0.348,1.075,0.76
			c0.255,0.408,0.397,0.877,0.41,1.36c-0.019,0.237-0.052,0.475-0.102,0.708c-0.309,0.495-0.565,1.02-0.77,1.565
			c-0.441,0.973-0.903,2.017-1.38,3.127c-0.512,1.115-0.973,2.141-1.383,3.078c-0.06,0.111-0.112,0.229-0.155,0.352
			c-0.134,0.393-0.324,0.766-0.563,1.107v0.097c-0.061,0.394-0.147,0.784-0.257,1.169c-0.167,0.658-0.252,1.335-0.253,2.015
			c0.001,0.104,0.019,0.206,0.052,0.306c0.038,0.078,0.056,0.166,0.052,0.252c-0.001,0.236,0.017,0.476,0.052,0.707v0.408
			c-0.011,0.082,0.029,0.161,0.102,0.2c-0.01,0.07,0.009,0.142,0.05,0.2c0.2,0.156,0.426,0.273,0.667,0.352
			c0.039,0.002,0.075,0.021,0.1,0.051c0.606,0.134,1.224,0.199,1.844,0.201v0.656c0.001,0.305,0.037,0.604,0.105,0.901
			c0.05,0.249,0.223,0.457,0.459,0.554c0.287,0.082,0.562,0.2,0.818,0.352h7.214c0.087-0.004,0.173-0.021,0.257-0.051
			c0.2-0.035,0.382-0.143,0.511-0.304c0.427-0.522,0.631-1.196,0.563-1.869c0.015-0.294-0.038-0.589-0.154-0.86
			c-0.088-0.563-0.139-1.141-0.152-1.713v-1.16l2.104-6.961c0.104-0.207,0.242-0.394,0.407-0.556
			c0.263-0.198,0.558-0.352,0.871-0.452c0.525-0.104,1.064-0.104,1.588,0c1.468,0.232,2.594,0.383,3.379,0.452
			c0.616,0.046,1.235,0.011,1.841-0.102l0.564-0.15c0.409-0.095,0.853-0.222,1.332-0.352s0.922-0.269,1.333-0.399
			c0.274-0.044,0.536-0.15,0.767-0.305v-0.098c0.135-0.101,0.257-0.218,0.36-0.351c0.1-0.265,0.08-0.559-0.054-0.806
			c-0.086-0.189-0.12-0.398-0.102-0.606c0.001-0.356,0.036-0.709,0.102-1.059c0.107-0.375,0.3-0.722,0.564-1.01
			c0.395-0.453,0.841-0.859,1.33-1.211c0.47-0.298,0.991-0.501,1.538-0.604c0.216-0.063,0.439-0.099,0.665-0.103h1.484
			c0.44,0,0.935,0.017,1.484,0.051c0.549,0.034,1.11,0.051,1.694,0.051h2.715c0.478,0.007,0.956-0.01,1.433-0.051
			c0.306-0.034,0.51-0.051,0.615-0.051l0.101-0.05c0.069-0.051,0.122-0.122,0.154-0.2c0.003-0.079,0.04-0.151,0.102-0.201h3.073
			v-0.351c0-0.103,0.019-0.354,0.052-0.76c0.072-0.434,0.106-0.872,0.101-1.311c0.038-0.437,0.071-0.874,0.104-1.311
			c0.034-0.405,0.052-0.624,0.052-0.657V7.353c0.033-0.204,0.067-0.385,0.102-0.554c0.071-0.194,0.105-0.398,0.099-0.604
			c-0.007-0.429-0.131-0.847-0.359-1.211C44.562,4.744,44.53,4.509,44.471,4.276z M25.834,16.135
			c-0.207,0.781-1.485,1.342-3.842,1.715c-0.348,0.055-0.699,0.082-1.048,0.082c-0.526,0-1.052-0.063-1.564-0.185
			c-0.589-0.116-1.158-0.319-1.687-0.604l-0.206-0.052c-0.153-0.185-0.326-0.354-0.513-0.504c-0.099-0.066-0.186-0.151-0.253-0.249
			l-0.104-0.102c-0.174-0.288-0.247-0.625-0.204-0.959c-0.014-0.293,0.038-0.587,0.152-0.857c0.129-0.333,0.363-0.617,0.665-0.809
			l0.922-0.404l0.255-0.101h0.615c0.41-0.035,0.89-0.049,1.436-0.049h1.788c0.685,0,1.352,0,1.999,0.002
			c0.55,0.247,1.013,0.65,1.332,1.16c0.222,0.347,0.346,0.749,0.357,1.159C25.947,15.635,25.913,15.891,25.834,16.135z"/>
	</defs>
	<clipPath id="SVGID_4_">
		<use xlink:href="#SVGID_3_"  overflow="visible"/>
	</clipPath>
	<g clip-path="url(#SVGID_4_)">
		<g opacity="0.7">
			
				<linearGradient id="SVGID_5_" gradientUnits="userSpaceOnUse" x1="-557.2256" y1="180.0957" x2="-537.6235" y2="180.0957" gradientTransform="matrix(1 0 0 1 561.3799 -165.6211)">
				<stop  offset="0" style="stop-color:#CA4EE5;stop-opacity:0"/>
				<stop  offset="0.4624" style="stop-color:#F6EBE6"/>
			</linearGradient>
			<polygon fill="url(#SVGID_5_)" points="4.42,24.109 4.154,23.844 8.76,19.235 8.76,17.816 10.766,15.809 12.523,15.809 
				23.491,4.84 23.756,5.105 12.678,16.187 10.924,16.187 9.137,17.971 9.137,19.394 			"/>
		</g>
		<g opacity="0.7">
			
				<linearGradient id="SVGID_6_" gradientUnits="userSpaceOnUse" x1="-520.1104" y1="180.2188" x2="-509.917" y2="180.2188" gradientTransform="matrix(1 0 0 1 561.3799 -165.6211)">
				<stop  offset="0" style="stop-color:#CA4EE5;stop-opacity:0"/>
				<stop  offset="0.5753" style="stop-color:#F6EBE6"/>
			</linearGradient>
			<polygon fill="url(#SVGID_6_)" points="41.408,19.607 41.27,19.467 43.666,17.072 43.666,16.336 44.709,15.291 45.621,15.291 
				51.324,9.588 51.463,9.727 45.703,15.486 44.789,15.486 43.861,16.414 43.861,17.153 			"/>
		</g>
		<g>
			
				<linearGradient id="SVGID_7_" gradientUnits="userSpaceOnUse" x1="-544.8345" y1="182.5898" x2="-522.2261" y2="182.5898" gradientTransform="matrix(1 0 0 1 561.3799 -165.6211)">
				<stop  offset="0" style="stop-color:#CA4EE5;stop-opacity:0"/>
				<stop  offset="1" style="stop-color:#F6EBE6"/>
			</linearGradient>
			<polygon fill="url(#SVGID_7_)" points="16.85,28.08 16.545,27.773 21.858,22.459 21.858,20.822 24.172,18.51 26.195,18.51 
				38.845,5.856 39.154,6.166 26.377,18.941 24.354,18.941 22.292,21.002 22.292,22.641 			"/>
		</g>
		<g opacity="0.7">
			
				<linearGradient id="SVGID_8_" gradientUnits="userSpaceOnUse" x1="-557.6274" y1="181.4814" x2="-546.3628" y2="181.4814" gradientTransform="matrix(1 0 0 1 561.3799 -165.6211)">
				<stop  offset="0" style="stop-color:#CA4EE5;stop-opacity:0"/>
				<stop  offset="0.5591" style="stop-color:#F6EBE6"/>
			</linearGradient>
			<polygon fill="url(#SVGID_8_)" points="3.878,21.414 3.752,21.287 7.902,17.139 7.902,16.465 8.854,15.512 9.687,15.512 
				14.891,10.307 15.017,10.434 9.76,15.69 8.927,15.69 8.08,16.539 8.08,17.213 			"/>
		</g>
		<g>
			
				<linearGradient id="SVGID_9_" gradientUnits="userSpaceOnUse" x1="-579.2925" y1="185.083" x2="-568.0273" y2="185.083" gradientTransform="matrix(1 0 0 1 561.3799 -165.6211)">
				<stop  offset="0" style="stop-color:#CA4EE5;stop-opacity:0"/>
				<stop  offset="1" style="stop-color:#F6EBE6"/>
			</linearGradient>
			<polygon fill="url(#SVGID_9_)" points="-17.787,25.016 -17.913,24.889 -13.764,20.739 -13.764,20.066 -12.811,19.113 
				-11.979,19.113 -6.774,13.908 -6.647,14.034 -11.905,19.293 -12.738,19.293 -13.584,20.141 -13.584,20.814 			"/>
		</g>
		
			<linearGradient id="SVGID_10_" gradientUnits="userSpaceOnUse" x1="-566.2163" y1="181.3789" x2="-579.6154" y2="194.7779" gradientTransform="matrix(1 0 0 1 561.3799 -165.6211)">
			<stop  offset="0" style="stop-color:#CA4EE5;stop-opacity:0"/>
			<stop  offset="1" style="stop-color:#F6EBE6"/>
		</linearGradient>
		<polygon fill="url(#SVGID_10_)" points="-5.772,14.651 -19.471,28.35 -15.391,28.35 -1.707,14.666 		"/>
		
			<linearGradient id="SVGID_11_" gradientUnits="userSpaceOnUse" x1="-562.0229" y1="181.3789" x2="-576.6918" y2="196.0479" gradientTransform="matrix(1 0 0 1 561.3799 -165.6211)">
			<stop  offset="0" style="stop-color:#CA4EE5;stop-opacity:0"/>
			<stop  offset="1" style="stop-color:#F6EBE6"/>
		</linearGradient>
		<polygon fill="url(#SVGID_11_)" points="-3.616,15.197 -17.313,28.895 -10.251,28.895 3.432,15.213 		"/>
		
			<linearGradient id="SVGID_12_" gradientUnits="userSpaceOnUse" x1="-538.585" y1="179.7607" x2="-559.9266" y2="201.1025" gradientTransform="matrix(1 0 0 1 561.3799 -165.6211)">
			<stop  offset="0" style="stop-color:#CA4EE5;stop-opacity:0"/>
			<stop  offset="0.7742" style="stop-color:#F6EBE6"/>
		</linearGradient>
		<polygon opacity="0.7" fill="url(#SVGID_12_)" enable-background="new    " points="18.47,13.325 -1.458,33.252 8.817,33.252 
			28.726,13.346 		"/>
		
			<linearGradient id="SVGID_13_" gradientUnits="userSpaceOnUse" x1="-534.394" y1="183.4775" x2="-542.5643" y2="191.6478" gradientTransform="matrix(1 0 0 1 561.3799 -165.6211)">
			<stop  offset="0" style="stop-color:#CA4EE5;stop-opacity:0"/>
			<stop  offset="0.672" style="stop-color:#F6EBE6"/>
		</linearGradient>
		<polygon opacity="0.7" fill="url(#SVGID_13_)" enable-background="new    " points="25.33,17.545 17.7,25.174 21.633,25.174 
			29.257,17.553 		"/>
		
			<linearGradient id="SVGID_14_" gradientUnits="userSpaceOnUse" x1="-524.0381" y1="178.7881" x2="-532.2098" y2="186.9599" gradientTransform="matrix(1 0 0 1 561.3799 -165.6211)">
			<stop  offset="0" style="stop-color:#CA4EE5;stop-opacity:0"/>
			<stop  offset="0.7688" style="stop-color:#F6B8FF"/>
		</linearGradient>
		<polygon fill="url(#SVGID_14_)" points="35.685,12.856 28.054,20.486 31.988,20.486 39.611,12.864 		"/>
		
			<linearGradient id="SVGID_15_" gradientUnits="userSpaceOnUse" x1="-539.3516" y1="182.4121" x2="-547.5225" y2="190.5831" gradientTransform="matrix(1 0 0 1 561.3799 -165.6211)">
			<stop  offset="0" style="stop-color:#CA4EE5;stop-opacity:0"/>
			<stop  offset="1" style="stop-color:#F6B8FF"/>
		</linearGradient>
		<polygon fill="url(#SVGID_15_)" points="20.372,16.479 12.742,24.109 16.675,24.109 24.298,16.487 		"/>
		<g>
			
				<linearGradient id="SVGID_16_" gradientUnits="userSpaceOnUse" x1="-557.8848" y1="190.4844" x2="-548.1294" y2="190.4844" gradientTransform="matrix(1 0 0 1 561.3799 -165.6211)">
				<stop  offset="0" style="stop-color:#CA4EE5;stop-opacity:0"/>
				<stop  offset="1" style="stop-color:#F6EBE6"/>
			</linearGradient>
			<polygon fill="url(#SVGID_16_)" points="3.71,29.74 3.495,29.527 13.035,19.985 13.25,20.2 			"/>
		</g>
	</g>
</g>
<g>
	<defs>
		<path id="SVGID_17_" d="M91.307,5.132c-0.078-0.213-0.129-0.432-0.148-0.657c-0.021-0.248-0.184-0.461-0.41-0.551l-0.157-0.15
			L90.387,3.67c-0.253-0.055-0.512-0.088-0.771-0.102c-0.396-0.084-0.808,0.006-1.128,0.251c-0.055,0.109-0.125,0.21-0.203,0.304
			c-0.028,0.058-0.088,0.097-0.151,0.1c-0.075,0.041-0.146,0.092-0.207,0.153c-0.071,0.039-0.112,0.119-0.102,0.201v0.05H68.003
			c-0.039-0.189-0.176-0.343-0.356-0.407h-0.101c-0.104,0-0.31-0.016-0.618-0.05h-4.402c-0.787,0.036-1.465,0.05-2.049,0.05h-2.451
			c-0.03-0.165-0.049-0.334-0.053-0.503c-0.002-0.109-0.037-0.215-0.103-0.304c-0.032-0.134-0.127-0.245-0.253-0.3
			c-0.471-0.102-0.949-0.153-1.43-0.153c-0.019,0.002-0.037,0.002-0.058,0.003h-0.31v0.968h-0.15c-0.143,0-0.283,0.034-0.411,0.099
			c-0.129,0.067-0.268,0.117-0.409,0.15c-0.185,0.07-0.371,0.122-0.563,0.152c-0.124,0.092-0.266,0.162-0.416,0.201
			c-0.123,0.007-0.242,0.042-0.35,0.102c-0.192-0.016-0.385-0.051-0.567-0.102c-0.228-0.054-0.447-0.12-0.664-0.201
			c-0.233-0.113-0.517-0.076-0.712,0.095c-0.251,0.081-0.436,0.297-0.471,0.557v0.152c0.021,0.341,0.069,0.679,0.154,1.011
			c0.104,0.502,0.153,0.775,0.153,0.807c-0.031,0.381-0.117,0.754-0.256,1.11c-0.146,0.425-0.371,0.82-0.663,1.16L50.29,9.426
			c-0.241,0.315-0.536,0.589-0.868,0.807c-0.082,0.031-0.169,0.047-0.257,0.048c-0.129,0.018-0.242,0.093-0.308,0.204
			c-0.26-0.003-0.519,0.086-0.719,0.252c-0.179,0.19-0.271,0.446-0.258,0.707v0.106c-0.021,0.298,0.116,0.584,0.36,0.757
			c0.278,0.083,0.573,0.117,0.866,0.101c0.41,0.103,0.854,0.203,1.334,0.301c0.478,0.056,0.896,0.34,1.125,0.761
			c0.272,0.403,0.435,0.873,0.461,1.36c-0.006,0.237-0.043,0.472-0.104,0.701c-0.104,0.168-0.354,0.726-0.768,1.667
			c-0.449,0.942-0.903,1.967-1.387,3.075c-0.511,1.107-0.955,2.117-1.326,3.026c-0.375,0.941-0.598,1.464-0.668,1.563v0.052h-0.053
			c0,0.032-0.104,0.408-0.305,1.106c-0.168,0.681-0.255,1.371-0.258,2.066v0.506c-0.01,0.229,0.025,0.448,0.104,0.659
			c-0.002,0.088,0.018,0.175,0.055,0.251v0.199c-0.012,0.081,0.027,0.163,0.102,0.204v0.206c0.186,0.18,0.415,0.302,0.666,0.35
			c0.667,0.182,1.357,0.266,2.051,0.251c-0.003,0.104-0.021,0.206-0.057,0.306c-0.068,0.104-0.104,0.229-0.104,0.354
			c-0.086,0.58,0.147,1.159,0.617,1.512c0.108,0.063,0.23,0.098,0.355,0.104c0.063,0.035,0.133,0.052,0.203,0.053
			c0.084,0.029,0.17,0.046,0.256,0.05l0.05,0.101h7.172c0.104-0.008,0.205-0.025,0.308-0.049c0.188-0.041,0.363-0.131,0.515-0.254
			c0.372-0.586,0.552-1.271,0.512-1.969v-0.804c-0.103-0.738-0.188-1.314-0.256-1.718c-0.031-0.368-0.052-0.656-0.052-0.858v-0.197
			c0.027-0.026,0.049-0.063,0.052-0.101l2.056-6.981c0.092-0.227,0.252-0.421,0.459-0.554c0.299-0.191,0.627-0.328,0.976-0.402
			c0.522-0.104,1.063-0.104,1.587,0c1.074,0.229,2.172,0.365,3.271,0.402c0.616,0.046,1.236,0.012,1.846-0.102
			c0.718-0.166,1.328-0.336,1.844-0.502c0.436-0.146,0.88-0.267,1.331-0.354c0.274-0.042,0.538-0.146,0.771-0.302v-0.151
			c0.127-0.129,0.246-0.263,0.356-0.405c0.169-0.134,0.137-0.386-0.104-0.756V16.53c0.002-0.358,0.037-0.714,0.104-1.063
			c0.106-0.376,0.3-0.721,0.563-1.009c0.422-0.445,0.883-0.851,1.381-1.211c0.422-0.312,0.912-0.518,1.432-0.603
			c0.25-0.07,0.51-0.106,0.771-0.104h1.328c0.479,0,0.973,0.019,1.481,0.053c0.547,0.032,1.128,0.051,1.743,0.051h2.714
			c0.646,0,1.126-0.019,1.435-0.051c0.344-0.034,0.545-0.053,0.614-0.053c0.047-0.027,0.101-0.043,0.149-0.048
			c0.066-0.109,0.117-0.228,0.152-0.351h3.174V11.79c0-0.103,0.02-0.368,0.055-0.804c0-0.406,0.018-0.846,0.051-1.313
			c0.034-0.444,0.055-0.858,0.055-1.262c0.034-0.436,0.053-0.675,0.053-0.708c0-0.01,0-0.021,0.002-0.029
			c0.009-0.048,0.054-0.079,0.102-0.071c0.029-0.025,0.047-0.062,0.051-0.1c-0.004-0.187,0.016-0.372,0.051-0.555V6.293
			C91.564,5.893,91.477,5.496,91.307,5.132z M72.52,16.282c-0.14,0.874-1.387,1.463-3.736,1.765
			c-0.889,0.141-1.791,0.107-2.664-0.099c-0.612-0.122-1.199-0.343-1.741-0.658l-0.149-0.049c-0.313-0.192-0.574-0.452-0.771-0.759
			h-0.104v-0.047c-0.179-0.287-0.252-0.625-0.205-0.96c0.017-0.291,0.066-0.578,0.152-0.854c0.11-0.347,0.35-0.638,0.666-0.81
			c0.374-0.203,0.688-0.349,0.922-0.454h0.151c0-0.033,0.032-0.049,0.103-0.049c0.031,0,0.24-0.019,0.615-0.052h0.002h5.223
			c0.552,0.219,1.02,0.608,1.334,1.11c0.227,0.364,0.353,0.781,0.356,1.209C72.678,15.819,72.625,16.062,72.52,16.282z"/>
	</defs>
	<clipPath id="SVGID_18_">
		<use xlink:href="#SVGID_17_"  overflow="visible"/>
	</clipPath>
	<g clip-path="url(#SVGID_18_)">
		<g opacity="0.7">
			
				<linearGradient id="SVGID_19_" gradientUnits="userSpaceOnUse" x1="-544.6372" y1="180.4512" x2="-525.0352" y2="180.4512" gradientTransform="matrix(1 0 0 1 561.3799 -165.6211)">
				<stop  offset="0" style="stop-color:#CA4EE5;stop-opacity:0"/>
				<stop  offset="0.4624" style="stop-color:#F6EBE6"/>
			</linearGradient>
			<polygon fill="url(#SVGID_19_)" points="17.009,24.465 16.743,24.199 21.349,19.591 21.349,18.172 23.354,16.164 25.112,16.164 
				36.08,5.195 36.345,5.461 25.267,16.542 23.513,16.542 21.726,18.326 21.726,19.749 			"/>
		</g>
		<g opacity="0.7">
			
				<linearGradient id="SVGID_20_" gradientUnits="userSpaceOnUse" x1="-507.5225" y1="180.5742" x2="-497.3291" y2="180.5742" gradientTransform="matrix(1 0 0 1 561.3799 -165.6211)">
				<stop  offset="0" style="stop-color:#CA4EE5;stop-opacity:0"/>
				<stop  offset="0.5753" style="stop-color:#F6EBE6"/>
			</linearGradient>
			<polygon fill="url(#SVGID_20_)" points="53.996,19.963 53.857,19.822 56.254,17.428 56.254,16.691 57.297,15.646 58.209,15.646 
				63.912,9.943 64.051,10.082 58.291,15.842 57.377,15.842 56.449,16.77 56.449,17.509 			"/>
		</g>
		<g>
			
				<linearGradient id="SVGID_21_" gradientUnits="userSpaceOnUse" x1="-532.2461" y1="182.9453" x2="-509.6377" y2="182.9453" gradientTransform="matrix(1 0 0 1 561.3799 -165.6211)">
				<stop  offset="0" style="stop-color:#CA4EE5;stop-opacity:0"/>
				<stop  offset="1" style="stop-color:#F6EBE6"/>
			</linearGradient>
			<polygon fill="url(#SVGID_21_)" points="29.438,28.436 29.134,28.129 34.447,22.814 34.447,21.178 36.761,18.865 38.784,18.865 
				51.434,6.212 51.742,6.521 38.966,19.297 36.942,19.297 34.881,21.357 34.881,22.996 			"/>
		</g>
		<g opacity="0.7">
			
				<linearGradient id="SVGID_22_" gradientUnits="userSpaceOnUse" x1="-545.0391" y1="181.8369" x2="-533.7744" y2="181.8369" gradientTransform="matrix(1 0 0 1 561.3799 -165.6211)">
				<stop  offset="0" style="stop-color:#CA4EE5;stop-opacity:0"/>
				<stop  offset="0.5591" style="stop-color:#F6EBE6"/>
			</linearGradient>
			<polygon fill="url(#SVGID_22_)" points="16.467,21.77 16.341,21.643 20.491,17.494 20.491,16.82 21.443,15.867 22.275,15.867 
				27.479,10.662 27.605,10.789 22.349,16.046 21.516,16.046 20.668,16.895 20.668,17.568 			"/>
		</g>
		<g>
			
				<linearGradient id="SVGID_23_" gradientUnits="userSpaceOnUse" x1="-566.7041" y1="185.4385" x2="-555.439" y2="185.4385" gradientTransform="matrix(1 0 0 1 561.3799 -165.6211)">
				<stop  offset="0" style="stop-color:#CA4EE5;stop-opacity:0"/>
				<stop  offset="1" style="stop-color:#F6EBE6"/>
			</linearGradient>
			<polygon fill="url(#SVGID_23_)" points="-5.198,25.371 -5.324,25.244 -1.175,21.095 -1.175,20.422 -0.222,19.469 0.61,19.469 
				5.814,14.264 5.941,14.39 0.684,19.648 -0.149,19.648 -0.996,20.496 -0.996,21.17 			"/>
		</g>
		
			<linearGradient id="SVGID_24_" gradientUnits="userSpaceOnUse" x1="-553.6279" y1="181.7334" x2="-567.027" y2="195.1325" gradientTransform="matrix(1 0 0 1 561.3799 -165.6211)">
			<stop  offset="0" style="stop-color:#CA4EE5;stop-opacity:0"/>
			<stop  offset="1" style="stop-color:#F6EBE6"/>
		</linearGradient>
		<polygon fill="url(#SVGID_24_)" points="6.816,15.007 -6.882,28.705 -2.802,28.705 10.882,15.021 		"/>
		
			<linearGradient id="SVGID_25_" gradientUnits="userSpaceOnUse" x1="-549.4351" y1="181.7334" x2="-564.1039" y2="196.4024" gradientTransform="matrix(1 0 0 1 561.3799 -165.6211)">
			<stop  offset="0" style="stop-color:#CA4EE5;stop-opacity:0"/>
			<stop  offset="1" style="stop-color:#F6EBE6"/>
		</linearGradient>
		<polygon fill="url(#SVGID_25_)" points="8.973,15.553 -4.725,29.25 2.337,29.25 16.021,15.568 		"/>
		
			<linearGradient id="SVGID_26_" gradientUnits="userSpaceOnUse" x1="-525.9971" y1="180.1152" x2="-547.3387" y2="201.4569" gradientTransform="matrix(1 0 0 1 561.3799 -165.6211)">
			<stop  offset="0" style="stop-color:#CA4EE5;stop-opacity:0"/>
			<stop  offset="0.7742" style="stop-color:#F6EBE6"/>
		</linearGradient>
		<polygon opacity="0.7" fill="url(#SVGID_26_)" enable-background="new    " points="31.059,13.681 11.131,33.607 21.406,33.607 
			41.314,13.701 		"/>
		
			<linearGradient id="SVGID_27_" gradientUnits="userSpaceOnUse" x1="-521.8062" y1="183.833" x2="-529.9764" y2="192.0033" gradientTransform="matrix(1 0 0 1 561.3799 -165.6211)">
			<stop  offset="0" style="stop-color:#CA4EE5;stop-opacity:0"/>
			<stop  offset="0.672" style="stop-color:#F6EBE6"/>
		</linearGradient>
		<polygon opacity="0.7" fill="url(#SVGID_27_)" enable-background="new    " points="37.918,17.9 30.289,25.529 34.222,25.529 
			41.845,17.908 		"/>
		
			<linearGradient id="SVGID_28_" gradientUnits="userSpaceOnUse" x1="-511.4502" y1="179.1436" x2="-519.6219" y2="187.3154" gradientTransform="matrix(1 0 0 1 561.3799 -165.6211)">
			<stop  offset="0" style="stop-color:#CA4EE5;stop-opacity:0"/>
			<stop  offset="0.7688" style="stop-color:#F6B8FF"/>
		</linearGradient>
		<polygon fill="url(#SVGID_28_)" points="48.273,13.212 40.642,20.842 44.577,20.842 52.199,13.22 		"/>
		
			<linearGradient id="SVGID_29_" gradientUnits="userSpaceOnUse" x1="-526.7632" y1="182.7666" x2="-534.9341" y2="190.9376" gradientTransform="matrix(1 0 0 1 561.3799 -165.6211)">
			<stop  offset="0" style="stop-color:#CA4EE5;stop-opacity:0"/>
			<stop  offset="1" style="stop-color:#F6B8FF"/>
		</linearGradient>
		<polygon fill="url(#SVGID_29_)" points="32.96,16.835 25.331,24.465 29.264,24.465 36.887,16.843 		"/>
		<g>
			
				<linearGradient id="SVGID_30_" gradientUnits="userSpaceOnUse" x1="-545.2964" y1="190.8398" x2="-535.541" y2="190.8398" gradientTransform="matrix(1 0 0 1 561.3799 -165.6211)">
				<stop  offset="0" style="stop-color:#CA4EE5;stop-opacity:0"/>
				<stop  offset="1" style="stop-color:#F6EBE6"/>
			</linearGradient>
			<polygon fill="url(#SVGID_30_)" points="16.299,30.096 16.083,29.883 25.624,20.341 25.839,20.556 			"/>
		</g>
	</g>
</g>
</svg>
