<?xml version="1.0" encoding="utf-8"?>
<!-- Generator: Adobe Illustrator 16.0.0, SVG Export Plug-In . SVG Version: 6.00 Build 0)  -->
<!DOCTYPE svg PUBLIC "-//W3C//DTD SVG 1.1//EN" "http://www.w3.org/Graphics/SVG/1.1/DTD/svg11.dtd">
<svg version="1.1" id="case1" xmlns="http://www.w3.org/2000/svg" xmlns:xlink="http://www.w3.org/1999/xlink" x="0px" y="0px"
	 width="85.75px" height="36px" viewBox="0 0 85.75 36" enable-background="new 0 0 85.75 36" xml:space="preserve">
<linearGradient id="usp_silencer_1_" gradientUnits="userSpaceOnUse" x1="-57.7764" y1="562.0654" x2="14.2324" y2="562.0654" gradientTransform="matrix(1 0 0 1 59.02 -542.5654)">
	<stop  offset="0" style="stop-color:#CA4EE5"/>
	<stop  offset="0.3011" style="stop-color:#570090"/>
	<stop  offset="0.7419" style="stop-color:#893BDC"/>
	<stop  offset="1" style="stop-color:#CA4EE5"/>
</linearGradient>
<path id="usp_silencer" fill="url(#usp_silencer_1_)" d="M73.25,9.223c0.014,0.619-0.034,1.237-0.139,1.847
	c-0.041,0.347-0.135,0.684-0.282,1c-0.054,0.145-0.116,0.287-0.185,0.425H58.123l-0.188-0.141l-0.281,0.095h-11.16l-0.28,0.191
	l-0.42-0.144H41.08v-0.858h-1.587V10.93h-0.981v1.657l0.236,0.19v0.8l-0.236,0.19l-0.093,1.61H27.82
	c-0.073,0.004-0.141,0.039-0.187,0.095c-0.166,0.14-0.294,0.32-0.375,0.522c-0.123,0.345-0.745,1.892-1.864,4.641
	c-0.096,0.221-0.26,0.402-0.469,0.521c-0.237,0.097-0.49,0.145-0.746,0.144l-4.855,0.188c-0.226-0.108-0.46-0.204-0.7-0.279
	c-0.383-0.188-0.792-0.314-1.214-0.378c-0.23-0.052-0.465-0.085-0.7-0.103c-0.126,0.031-0.357,0.078-0.7,0.146
	c-0.271,0.093-0.559,0.125-0.843,0.093l-0.328-0.093L12.457,31.1l-0.093,1.135L12.877,33L2.84,32.904c0-0.6,0.031-1.372,0.094-2.318
	c0.174-1.818,0.47-3.622,0.887-5.4c0.413-1.672,0.976-3.306,1.68-4.879c0.03-0.092,0.249-0.554,0.654-1.373
	c0.136-0.271,0.246-0.558,0.326-0.852c0.11-0.319,0.019-0.674-0.233-0.9c-0.36-0.283-0.772-0.492-1.213-0.615
	c-0.625-0.222-1.028-0.362-1.214-0.426c-0.193-0.033-0.344-0.186-0.375-0.379c-0.026-0.364-0.01-0.73,0.048-1.09l0.093-0.709
	l-1.728-0.189c-0.117,0.001-0.231-0.034-0.327-0.1c-0.206-0.131-0.316-0.37-0.282-0.612c0.039-0.298,0.31-0.509,0.608-0.475
	c0.172-0.034,0.351-0.017,0.513,0.049L2.605,11.4l1.4,0.9l0.607-3.079l0.981-1.895V6.523l0.75,0.427L9.33,7l0.282,0.235H19.79v0.188
	h5.7V7.28h9.807V6h2.334l0.28,0.335v0.852l0.327-0.047l0.323,0.424v0.76h0.938V7.661h1.396V6.285h4.855L46.078,6.1l0.42,0.188h11.16
	l0.326,0.049l0.328-0.14H72.65l0.229,0.279c0.135,0.318,0.229,0.652,0.281,0.994C73.188,7.944,73.221,8.528,73.25,9.223z
	 M25.111,15.475l-5.321,0.048c-0.53,0.535-0.9,0.931-1.12,1.184c-0.342,0.442-0.53,0.693-0.561,0.758
	c-0.221,0.357-0.349,0.764-0.371,1.184c-0.024,0.318,0.006,0.643,0.091,0.947c0.05,0.162,0.112,0.32,0.186,0.473l-0.327,0.238
	c-0.168-0.246-0.294-0.52-0.373-0.807c-0.221-0.439-0.333-0.928-0.328-1.419c0.065-0.638,0.308-1.245,0.7-1.752
	c0.137-0.232,0.311-0.44,0.514-0.617c-0.255,0.041-0.505,0.104-0.748,0.189c-0.449,0.127-0.864,0.354-1.213,0.664
	c-0.324,0.344-0.55,0.77-0.653,1.231c-0.127,0.439-0.094,0.909,0.094,1.325c0.183,0.375,0.455,0.701,0.792,0.947
	c0.361,0.262,0.776,0.438,1.214,0.521c0.281,0.03,0.733,0.05,1.354,0.05c0.344-0.057,0.697-0.021,1.026,0.092
	c0.759,0.1,1.525,0.129,2.29,0.104c0.688,0.02,1.375-0.032,2.054-0.146c0.423-0.651,0.739-1.373,0.934-2.129l0.7-1.992v-0.289
	c0.005-0.163-0.027-0.325-0.094-0.474c-0.145-0.137-0.322-0.234-0.514-0.284L25.111,15.475z"/>
<linearGradient id="shape5_1_" gradientUnits="userSpaceOnUse" x1="247.9414" y1="-981.3936" x2="247.9414" y2="-995.1436" gradientTransform="matrix(1 0 0 -1 -188.5601 -964.7256)">
	<stop  offset="0" style="stop-color:#4F3468"/>
	<stop  offset="0.4892" style="stop-color:#893BDC"/>
	<stop  offset="1" style="stop-color:#CA4EE5"/>
</linearGradient>
<path id="shape5" fill="url(#shape5_1_)" d="M69.212,31.251c-0.313,0-0.625-0.05-0.922-0.147c-0.298,0.104-0.608,0.147-0.922,0.147
	h-8.193c-0.185,0-0.442-0.009-0.771-0.075c-0.217,0.051-0.438,0.075-0.663,0.075h-2.664c-0.815,0-1.604-0.342-2.166-0.937
	c-0.078-0.086-0.149-0.174-0.22-0.271l-0.909,0.648c-0.503,0.355-1.101,0.554-1.726,0.554h-3.584c-0.719,0-1.402-0.269-1.938-0.722
	c-0.614,0.427-1.354,0.65-2.112,0.65c-0.75,0-1.479-0.222-2.104-0.642c-0.164-0.11-0.314-0.233-0.451-0.37
	c-1.021-1.021-1.363-2.423-0.92-3.753l0.044-0.128l0.079-0.203c-1.8-0.254-3.146-1.768-3.146-3.646V22.24
	c0-0.741,0.274-1.45,0.773-1.996l4.748-5.232c0.646-1.069,1.763-1.679,3.081-1.679h0.41c2.063,0,3.684,1.618,3.684,3.684
	c0,0-0.001,0.289-0.003,0.331c0.555-0.653,1.372-1.044,2.26-1.044h8.397c0.262,0,0.519,0.034,0.769,0.103
	c0.25-0.067,0.508-0.103,0.771-0.103h9.221c0.24,0,0.479,0.029,0.718,0.087c0.229-0.058,0.479-0.087,0.722-0.087h8.396
	c0.917,0,1.797,0.433,2.354,1.159c0.563,0.726,0.752,1.689,0.518,2.573l-0.407,1.532c-0.146,0.541-0.435,1.02-0.825,1.395
	c-0.018,0.188-0.049,0.372-0.098,0.555L81,25.055c-0.072,0.282-0.189,0.551-0.346,0.799c0.168,0.533,0.188,1.109,0.039,1.656
	l-0.412,1.539c-0.35,1.297-1.521,2.202-2.866,2.202H69.212z M66.173,23.782l0.017-0.009h-0.795l-0.004,0.009H66.173z"/>
<path id="ACE" fill="#FFFFFF" d="M43.402,23.163h-3.79c-0.409,0-0.717-0.308-0.717-0.718c0-0.104,0-0.104,0-0.204l5.018-5.531
	c0.104-0.307,0.311-0.41,0.615-0.41h0.41c0.408,0,0.717,0.308,0.717,0.717c0,0.102,0,0.205,0,0.205l-2.458,3.584H47.6
	c0.615,0,0.313,1.127-0.103,1.639l-4.507,5.531c-0.309,0.308-0.717,0.308-1.023,0.104c-0.205-0.206-0.309-0.41-0.205-0.719
	L43.402,23.163L43.402,23.163L43.402,23.163z M50.88,19.271l0.409,0.41l-4.813,8.603h3.584l2.146-1.536h2.975l-0.104,1.536h2.663
	l1.535-9.013H50.88L50.88,19.271z M55.387,20.809l-0.104,3.482h-2.971l2.047-3.482H55.387L55.387,20.809z M59.178,28.284h8.19
	l0.612-2.15l-0.818,0.614H61.43l1.739-5.941h6.452l0.408-1.535h-9.217l-2.355,7.988c-0.102,0.104-0.102,0.309-0.102,0.409
	c0,0.103,0,0.205,0.103,0.31c0.103,0.105,0.205,0.203,0.308,0.203C58.971,28.284,59.074,28.284,59.178,28.284L59.178,28.284
	L59.178,28.284z M71.466,19.271l0.312,0.608l-2.563,8.396h8.193l0.408-1.533h-5.121l0.718-2.458h4.711l0.41-1.537h-4.507l0.611-1.94
	h4.813l0.407-1.535H71.466L71.466,19.271z"/>
<g>
	<defs>
		<path id="SVGID_1_" d="M73.25,9.223c0.014,0.619-0.034,1.237-0.139,1.847c-0.041,0.347-0.135,0.684-0.282,1
			c-0.054,0.145-0.116,0.287-0.185,0.425H58.123l-0.188-0.141l-0.281,0.095h-11.16l-0.28,0.191l-0.42-0.144H41.08v-0.858h-1.587
			V10.93h-0.981v1.657l0.236,0.19v0.8l-0.236,0.19l-0.093,1.61H27.82c-0.073,0.004-0.141,0.039-0.187,0.095
			c-0.166,0.14-0.294,0.32-0.375,0.522c-0.123,0.345-0.745,1.892-1.864,4.641c-0.096,0.221-0.26,0.402-0.469,0.521
			c-0.237,0.097-0.49,0.145-0.746,0.144l-4.855,0.188c-0.226-0.108-0.46-0.204-0.7-0.279c-0.383-0.188-0.792-0.314-1.214-0.378
			c-0.23-0.052-0.465-0.085-0.7-0.103c-0.126,0.031-0.357,0.078-0.7,0.146c-0.271,0.093-0.559,0.125-0.843,0.093l-0.328-0.093
			L12.457,31.1l-0.093,1.135L12.877,33L2.84,32.904c0-0.6,0.031-1.372,0.094-2.318c0.174-1.818,0.47-3.622,0.887-5.4
			c0.413-1.672,0.976-3.306,1.68-4.879c0.03-0.092,0.249-0.554,0.654-1.373c0.136-0.271,0.246-0.558,0.326-0.852
			c0.11-0.319,0.019-0.674-0.233-0.9c-0.36-0.283-0.772-0.492-1.213-0.615c-0.625-0.222-1.028-0.362-1.214-0.426
			c-0.193-0.033-0.344-0.186-0.375-0.379c-0.026-0.364-0.01-0.73,0.048-1.09l0.093-0.709l-1.728-0.189
			c-0.117,0.001-0.231-0.034-0.327-0.1c-0.206-0.131-0.316-0.37-0.282-0.612c0.039-0.298,0.31-0.509,0.608-0.475
			c0.172-0.034,0.351-0.017,0.513,0.049L2.605,11.4l1.4,0.9l0.607-3.079l0.981-1.895V6.523l0.75,0.427L9.33,7l0.282,0.235H19.79
			v0.188h5.7V7.28h9.807V6h2.334l0.28,0.335v0.852l0.327-0.047l0.323,0.424v0.76h0.937V7.661h1.397V6.285h4.854L46.078,6.1
			l0.42,0.188h11.16l0.326,0.049l0.328-0.14H72.65l0.229,0.279c0.135,0.318,0.229,0.652,0.281,0.994
			C73.188,7.944,73.221,8.528,73.25,9.223z M25.111,15.475l-5.321,0.048c-0.53,0.535-0.9,0.931-1.12,1.184
			c-0.342,0.442-0.53,0.693-0.561,0.758c-0.221,0.357-0.349,0.764-0.371,1.184c-0.024,0.318,0.006,0.643,0.091,0.947
			c0.05,0.162,0.112,0.32,0.186,0.473l-0.327,0.238c-0.168-0.246-0.294-0.52-0.373-0.807c-0.221-0.439-0.333-0.928-0.328-1.419
			c0.065-0.638,0.308-1.245,0.7-1.752c0.137-0.232,0.311-0.44,0.514-0.617c-0.255,0.041-0.505,0.104-0.748,0.189
			c-0.449,0.127-0.864,0.354-1.213,0.664c-0.324,0.344-0.55,0.77-0.653,1.231c-0.127,0.439-0.094,0.909,0.094,1.325
			c0.183,0.375,0.455,0.701,0.792,0.947c0.361,0.262,0.776,0.438,1.214,0.521c0.281,0.03,0.733,0.05,1.354,0.05
			c0.344-0.057,0.697-0.021,1.026,0.092c0.759,0.1,1.525,0.129,2.29,0.104c0.688,0.02,1.375-0.032,2.054-0.146
			c0.423-0.651,0.739-1.373,0.934-2.129l0.7-1.992v-0.289c0.005-0.163-0.027-0.325-0.094-0.474
			c-0.145-0.137-0.322-0.234-0.514-0.284L25.111,15.475z"/>
	</defs>
	<clipPath id="SVGID_2_">
		<use xlink:href="#SVGID_1_"  overflow="visible"/>
	</clipPath>
	<g clip-path="url(#SVGID_2_)">
		<g opacity="0.7">
			
				<linearGradient id="SVGID_3_" gradientUnits="userSpaceOnUse" x1="-555.0635" y1="180.5488" x2="-535.4609" y2="180.5488" gradientTransform="matrix(1 0 0 1 561.3799 -165.6211)">
				<stop  offset="0" style="stop-color:#CA4EE5;stop-opacity:0"/>
				<stop  offset="0.4624" style="stop-color:#F6EBE6"/>
			</linearGradient>
			<polygon fill="url(#SVGID_3_)" points="6.583,24.563 6.316,24.297 10.923,19.688 10.923,18.271 12.929,16.262 14.686,16.262 
				25.653,5.293 25.919,5.56 14.841,16.64 13.087,16.64 11.3,18.424 11.3,19.847 			"/>
		</g>
		<g opacity="0.7">
			
				<linearGradient id="SVGID_4_" gradientUnits="userSpaceOnUse" x1="-517.9482" y1="180.6729" x2="-507.7559" y2="180.6729" gradientTransform="matrix(1 0 0 1 561.3799 -165.6211)">
				<stop  offset="0" style="stop-color:#CA4EE5;stop-opacity:0"/>
				<stop  offset="0.5753" style="stop-color:#F6EBE6"/>
			</linearGradient>
			<polygon fill="url(#SVGID_4_)" points="43.569,20.062 43.432,19.921 45.827,17.526 45.827,16.789 46.87,15.744 47.782,15.744 
				53.485,10.042 53.624,10.18 47.864,15.94 46.95,15.94 46.022,16.868 46.022,17.606 			"/>
		</g>
		<g>
			
				<linearGradient id="SVGID_5_" gradientUnits="userSpaceOnUse" x1="-542.6719" y1="183.043" x2="-520.0645" y2="183.043" gradientTransform="matrix(1 0 0 1 561.3799 -165.6211)">
				<stop  offset="0" style="stop-color:#CA4EE5;stop-opacity:0"/>
				<stop  offset="1" style="stop-color:#F6EBE6"/>
			</linearGradient>
			<polygon fill="url(#SVGID_5_)" points="19.013,28.534 18.708,28.228 24.021,22.913 24.021,21.276 26.335,18.963 28.357,18.963 
				41.007,6.31 41.315,6.619 28.54,19.396 26.516,19.396 24.454,21.456 24.454,23.095 			"/>
		</g>
		<g opacity="0.7">
			
				<linearGradient id="SVGID_6_" gradientUnits="userSpaceOnUse" x1="-555.4648" y1="181.9355" x2="-544.2012" y2="181.9355" gradientTransform="matrix(1 0 0 1 561.3799 -165.6211)">
				<stop  offset="0" style="stop-color:#CA4EE5;stop-opacity:0"/>
				<stop  offset="0.5591" style="stop-color:#F6EBE6"/>
			</linearGradient>
			<polygon fill="url(#SVGID_6_)" points="6.04,21.868 5.915,21.741 10.064,17.592 10.064,16.918 11.017,15.966 11.849,15.966 
				17.054,10.761 17.179,10.887 11.923,16.144 11.089,16.144 10.242,16.992 10.242,17.666 			"/>
		</g>
		<g>
			
				<linearGradient id="SVGID_7_" gradientUnits="userSpaceOnUse" x1="-577.1309" y1="185.5371" x2="-565.8652" y2="185.5371" gradientTransform="matrix(1 0 0 1 561.3799 -165.6211)">
				<stop  offset="0" style="stop-color:#CA4EE5;stop-opacity:0"/>
				<stop  offset="1" style="stop-color:#F6EBE6"/>
			</linearGradient>
			<polygon fill="url(#SVGID_7_)" points="-15.624,25.47 -15.751,25.343 -11.602,21.192 -11.602,20.521 -10.648,19.567 
				-9.816,19.567 -4.612,14.362 -4.485,14.487 -9.743,19.746 -10.575,19.746 -11.423,20.594 -11.423,21.269 			"/>
		</g>
		
			<linearGradient id="SVGID_8_" gradientUnits="userSpaceOnUse" x1="-564.0547" y1="181.832" x2="-577.454" y2="195.2313" gradientTransform="matrix(1 0 0 1 561.3799 -165.6211)">
			<stop  offset="0" style="stop-color:#CA4EE5;stop-opacity:0"/>
			<stop  offset="1" style="stop-color:#F6EBE6"/>
		</linearGradient>
		<polygon fill="url(#SVGID_8_)" points="-3.61,15.104 -17.309,28.804 -13.229,28.804 0.456,15.12 		"/>
		
			<linearGradient id="SVGID_9_" gradientUnits="userSpaceOnUse" x1="-559.8613" y1="181.8311" x2="-574.5308" y2="196.5006" gradientTransform="matrix(1 0 0 1 561.3799 -165.6211)">
			<stop  offset="0" style="stop-color:#CA4EE5;stop-opacity:0"/>
			<stop  offset="1" style="stop-color:#F6EBE6"/>
		</linearGradient>
		<polygon fill="url(#SVGID_9_)" points="-1.454,15.651 -15.151,29.349 -8.089,29.349 5.595,15.666 		"/>
		
			<linearGradient id="SVGID_10_" gradientUnits="userSpaceOnUse" x1="-536.4238" y1="180.2139" x2="-557.7656" y2="201.5558" gradientTransform="matrix(1 0 0 1 561.3799 -165.6211)">
			<stop  offset="0" style="stop-color:#CA4EE5;stop-opacity:0"/>
			<stop  offset="0.7742" style="stop-color:#F6EBE6"/>
		</linearGradient>
		<polygon opacity="0.7" fill="url(#SVGID_10_)" enable-background="new    " points="20.632,13.778 0.704,33.706 10.979,33.706 
			30.888,13.8 		"/>
		
			<linearGradient id="SVGID_11_" gradientUnits="userSpaceOnUse" x1="-532.2324" y1="183.9307" x2="-540.4031" y2="192.1014" gradientTransform="matrix(1 0 0 1 561.3799 -165.6211)">
			<stop  offset="0" style="stop-color:#CA4EE5;stop-opacity:0"/>
			<stop  offset="0.672" style="stop-color:#F6EBE6"/>
		</linearGradient>
		<polygon opacity="0.7" fill="url(#SVGID_11_)" enable-background="new    " points="27.492,17.998 19.862,25.628 23.796,25.628 
			31.419,18.006 		"/>
		
			<linearGradient id="SVGID_12_" gradientUnits="userSpaceOnUse" x1="-521.8765" y1="179.2412" x2="-530.0484" y2="187.4133" gradientTransform="matrix(1 0 0 1 561.3799 -165.6211)">
			<stop  offset="0" style="stop-color:#CA4EE5;stop-opacity:0"/>
			<stop  offset="0.7688" style="stop-color:#F6B8FF"/>
		</linearGradient>
		<polygon fill="url(#SVGID_12_)" points="37.847,13.31 30.216,20.94 34.15,20.94 41.772,13.317 		"/>
		
			<linearGradient id="SVGID_13_" gradientUnits="userSpaceOnUse" x1="-537.1899" y1="182.8652" x2="-545.3611" y2="191.0365" gradientTransform="matrix(1 0 0 1 561.3799 -165.6211)">
			<stop  offset="0" style="stop-color:#CA4EE5;stop-opacity:0"/>
			<stop  offset="1" style="stop-color:#F6B8FF"/>
		</linearGradient>
		<polygon fill="url(#SVGID_13_)" points="22.534,16.933 14.904,24.563 18.837,24.563 26.46,16.94 		"/>
		<g>
			
				<linearGradient id="SVGID_14_" gradientUnits="userSpaceOnUse" x1="-555.7227" y1="190.9375" x2="-545.9668" y2="190.9375" gradientTransform="matrix(1 0 0 1 561.3799 -165.6211)">
				<stop  offset="0" style="stop-color:#CA4EE5;stop-opacity:0"/>
				<stop  offset="1" style="stop-color:#F6EBE6"/>
			</linearGradient>
			<polygon fill="url(#SVGID_14_)" points="5.872,30.194 5.657,29.981 15.197,20.438 15.413,20.653 			"/>
		</g>
	</g>
</g>
</svg>
