<?xml version="1.0" encoding="utf-8"?>
<!-- Generator: Adobe Illustrator 16.0.0, SVG Export Plug-In . SVG Version: 6.00 Build 0)  -->
<!DOCTYPE svg PUBLIC "-//W3C//DTD SVG 1.1//EN" "http://www.w3.org/Graphics/SVG/1.1/DTD/svg11.dtd">
<svg version="1.1" id="tc" xmlns="http://www.w3.org/2000/svg" xmlns:xlink="http://www.w3.org/1999/xlink" x="0px" y="0px"
	 width="92px" height="36px" viewBox="0 0 92 36" enable-background="new 0 0 92 36" xml:space="preserve">
<linearGradient id="shape1_1_" gradientUnits="userSpaceOnUse" x1="-58.4624" y1="-806.9839" x2="32.457" y2="-806.9839" gradientTransform="matrix(1 0 0 -1 59 -787.4707)">
	<stop  offset="0" style="stop-color:#CA4EE5"/>
	<stop  offset="0.3011" style="stop-color:#570090"/>
	<stop  offset="0.7419" style="stop-color:#893BDC"/>
	<stop  offset="1" style="stop-color:#CA4EE5"/>
</linearGradient>
<path id="shape1" fill="url(#shape1_1_)" d="M2.631,18.01l-0.455,2.313C1.161,19.405,1.313,18.635,2.631,18.01 M49.637,9.965
	l-0.65,0.173c0.02,0.05,0.023,0.103,0.021,0.154c0.006,0.128-0.048,0.25-0.14,0.339c-0.095,0.094-0.224,0.146-0.354,0.146
	c-0.131-0.002-0.26-0.053-0.353-0.146c-0.062-0.06-0.104-0.133-0.128-0.213l-0.574,0.118c0.012,0.039,0.018,0.079,0.018,0.12
	c0.004,0.13-0.051,0.254-0.145,0.341c-0.092,0.096-0.219,0.148-0.352,0.147c-0.133,0.003-0.26-0.049-0.353-0.147
	c-0.071-0.064-0.124-0.15-0.141-0.245l-0.52,0.083c0.011,0.037,0.016,0.075,0.015,0.114c0,0.13-0.052,0.253-0.145,0.343
	c-0.093,0.094-0.222,0.147-0.355,0.146c-0.132,0-0.259-0.052-0.353-0.146c-0.076-0.073-0.126-0.168-0.142-0.271l-0.577,0.084
	c0.007,0.031,0.01,0.062,0.01,0.092c-0.007,0.146-0.092,0.275-0.221,0.341c-0.158,0.103-0.346,0.155-0.535,0.147
	c-0.029,0-0.06-0.001-0.09-0.007l-0.474-0.94c-1.115,0.201-2.25,0.251-3.378,0.153c-5.255,1.154-10.654,1.511-16.015,1.058
	c-7.215-0.717-14.47,0.86-20.734,4.51c-2.932,1.328-3.217,3.189-0.853,5.581c0.384,2.545,0.959,3.873,1.728,3.987
	c3.042-3.133,7.697-4.072,11.717-2.363c0.464,0.304,1.081,0.222,1.449-0.193c0.681-0.636,1.486-1.128,2.365-1.441
	c0.912-0.336,1.875-0.512,2.847-0.521c1.013-0.008,2.021,0.155,2.978,0.48c1.005,0.34,1.94,0.854,2.763,1.526
	c0.167,0.144,0.376,0.229,0.597,0.241c0.174-0.001,0.335-0.094,0.422-0.241c0.731-1.074,1.794-1.882,3.026-2.291
	c1.226-0.412,2.537-0.516,3.811-0.293c1.308,0.194,2.558,0.672,3.663,1.396c1.093,0.688,1.983,1.655,2.575,2.804
	c0.099,0.229,0.268,0.418,0.483,0.546c0.181,0.099,0.395,0.117,0.59,0.052c0.277,1.645,0.704,2.689,1.284,3.146
	c0.199,0.188,0.491,0.241,0.743,0.13c0.295-0.175,0.517-0.452,0.624-0.775c0.255-0.605,0.564-1.42,0.929-2.438
	c0.193-0.587,0.417-1.164,0.669-1.729c0.139-0.355,0.398-0.652,0.735-0.838c0.382-0.091,0.782,0,1.092,0.243l1.64-0.166
	c1.762-0.101,3.526-0.104,5.289-0.019c0.43,0.017,1.846,0.092,4.262,0.228c2.031,0.112,3.752,0.188,5.162,0.231
	c3.68,0.156,7.365,0.019,11.021-0.41c3.551-0.623,6.961-1.881,10.064-3.712c1.664-0.897,3.271-1.896,4.809-2.995
	c-2.041-0.592-4.527-1.208-7.456-1.85c-5.083-1.168-10.251-1.939-15.456-2.305c-0.4-0.021-2.553-0.102-6.454-0.246
	c-2.448-0.089-4.298-0.215-5.546-0.38c-1.574-0.231-3.125-0.595-4.638-1.091L49.637,9.965z"/>
<g>
	<defs>
		<path id="SVGID_1_" d="M2.631,18.01l-0.455,2.313C1.161,19.405,1.313,18.635,2.631,18.01 M49.637,9.965l-0.65,0.173
			c0.02,0.05,0.023,0.103,0.021,0.154c0.006,0.128-0.048,0.25-0.14,0.339c-0.095,0.094-0.224,0.146-0.354,0.146
			c-0.131-0.002-0.26-0.053-0.353-0.146c-0.062-0.06-0.104-0.133-0.128-0.213l-0.574,0.118c0.012,0.039,0.018,0.079,0.018,0.12
			c0.004,0.13-0.051,0.254-0.145,0.341c-0.092,0.096-0.219,0.148-0.352,0.147c-0.133,0.003-0.26-0.049-0.353-0.147
			c-0.071-0.064-0.124-0.15-0.141-0.245l-0.52,0.083c0.011,0.037,0.016,0.075,0.015,0.114c0,0.13-0.052,0.253-0.145,0.343
			c-0.093,0.094-0.222,0.147-0.355,0.146c-0.132,0-0.259-0.052-0.353-0.146c-0.076-0.073-0.126-0.168-0.142-0.271l-0.577,0.084
			c0.007,0.031,0.01,0.062,0.01,0.092c-0.007,0.146-0.092,0.275-0.221,0.341c-0.158,0.103-0.346,0.155-0.535,0.147
			c-0.029,0-0.06-0.001-0.09-0.007l-0.474-0.94c-1.115,0.201-2.25,0.251-3.378,0.153c-5.255,1.154-10.654,1.511-16.015,1.058
			c-7.215-0.717-14.47,0.86-20.734,4.51c-2.932,1.328-3.217,3.189-0.853,5.581c0.384,2.545,0.959,3.873,1.728,3.987
			c3.042-3.133,7.697-4.072,11.717-2.363c0.464,0.304,1.081,0.222,1.449-0.193c0.681-0.636,1.486-1.128,2.365-1.441
			c0.912-0.336,1.875-0.512,2.847-0.521c1.013-0.008,2.021,0.155,2.978,0.48c1.005,0.34,1.94,0.854,2.763,1.526
			c0.167,0.144,0.376,0.229,0.597,0.241c0.174-0.001,0.335-0.094,0.422-0.241c0.731-1.074,1.794-1.882,3.026-2.291
			c1.226-0.412,2.537-0.516,3.811-0.293c1.308,0.194,2.558,0.672,3.663,1.396c1.093,0.688,1.983,1.655,2.575,2.804
			c0.099,0.229,0.268,0.418,0.483,0.546c0.181,0.099,0.395,0.117,0.59,0.052c0.277,1.645,0.704,2.689,1.284,3.146
			c0.199,0.188,0.491,0.241,0.743,0.13c0.295-0.175,0.517-0.452,0.624-0.775c0.255-0.605,0.564-1.42,0.929-2.438
			c0.193-0.587,0.417-1.164,0.669-1.729c0.139-0.355,0.398-0.652,0.735-0.838c0.382-0.091,0.782,0,1.092,0.243l1.64-0.166
			c1.762-0.101,3.526-0.104,5.289-0.019c0.43,0.017,1.846,0.092,4.262,0.228c2.031,0.112,3.752,0.188,5.162,0.231
			c3.68,0.156,7.365,0.019,11.021-0.41c3.551-0.623,6.961-1.881,10.064-3.712c1.664-0.897,3.271-1.896,4.809-2.995
			c-2.041-0.592-4.527-1.208-7.456-1.85c-5.083-1.168-10.251-1.939-15.456-2.305c-0.4-0.021-2.553-0.102-6.454-0.246
			c-2.448-0.089-4.298-0.215-5.546-0.38c-1.574-0.231-3.125-0.595-4.638-1.091L49.637,9.965z"/>
	</defs>
	<clipPath id="SVGID_2_">
		<use xlink:href="#SVGID_1_"  overflow="visible"/>
	</clipPath>
	<g clip-path="url(#SVGID_2_)">
		<g opacity="0.7">
			
				<linearGradient id="SVGID_3_" gradientUnits="userSpaceOnUse" x1="-539.6978" y1="177.1934" x2="-520.0962" y2="177.1934" gradientTransform="matrix(1 0 0 1 561.3799 -165.6211)">
				<stop  offset="0" style="stop-color:#CA4EE5;stop-opacity:0"/>
				<stop  offset="0.4624" style="stop-color:#F6EBE6"/>
			</linearGradient>
			<polygon fill="url(#SVGID_3_)" points="21.948,21.207 21.682,20.941 26.288,16.333 26.288,14.914 28.293,12.906 30.051,12.906 
				41.019,1.937 41.284,2.203 30.206,13.284 28.452,13.284 26.665,15.068 26.665,16.491 			"/>
		</g>
		<g opacity="0.7">
			
				<linearGradient id="SVGID_4_" gradientUnits="userSpaceOnUse" x1="-502.583" y1="177.3164" x2="-492.3896" y2="177.3164" gradientTransform="matrix(1 0 0 1 561.3799 -165.6211)">
				<stop  offset="0" style="stop-color:#CA4EE5;stop-opacity:0"/>
				<stop  offset="0.5753" style="stop-color:#F6EBE6"/>
			</linearGradient>
			<polygon fill="url(#SVGID_4_)" points="58.936,16.705 58.797,16.565 61.193,14.17 61.193,13.433 62.236,12.388 63.148,12.388 
				68.852,6.686 68.99,6.824 63.23,12.584 62.316,12.584 61.389,13.512 61.389,14.251 			"/>
		</g>
		<g>
			
				<linearGradient id="SVGID_5_" gradientUnits="userSpaceOnUse" x1="-527.3071" y1="179.6875" x2="-504.6982" y2="179.6875" gradientTransform="matrix(1 0 0 1 561.3799 -165.6211)">
				<stop  offset="0" style="stop-color:#CA4EE5;stop-opacity:0"/>
				<stop  offset="1" style="stop-color:#F6EBE6"/>
			</linearGradient>
			<polygon fill="url(#SVGID_5_)" points="34.377,25.178 34.073,24.871 39.386,19.557 39.386,17.92 41.7,15.607 43.723,15.607 
				56.373,2.954 56.682,3.263 43.905,16.039 41.881,16.039 39.821,18.1 39.821,19.738 			"/>
		</g>
		<g opacity="0.7">
			
				<linearGradient id="SVGID_6_" gradientUnits="userSpaceOnUse" x1="-540.1001" y1="178.5791" x2="-528.8345" y2="178.5791" gradientTransform="matrix(1 0 0 1 561.3799 -165.6211)">
				<stop  offset="0" style="stop-color:#CA4EE5;stop-opacity:0"/>
				<stop  offset="0.5591" style="stop-color:#F6EBE6"/>
			</linearGradient>
			<polygon fill="url(#SVGID_6_)" points="21.407,18.512 21.28,18.385 25.43,14.236 25.43,13.562 26.382,12.61 27.214,12.61 
				32.418,7.405 32.545,7.531 27.288,12.788 26.456,12.788 25.608,13.636 25.608,14.31 			"/>
		</g>
		<g>
			
				<linearGradient id="SVGID_7_" gradientUnits="userSpaceOnUse" x1="-561.7642" y1="182.1807" x2="-550.4995" y2="182.1807" gradientTransform="matrix(1 0 0 1 561.3799 -165.6211)">
				<stop  offset="0" style="stop-color:#CA4EE5;stop-opacity:0"/>
				<stop  offset="1" style="stop-color:#F6EBE6"/>
			</linearGradient>
			<polygon fill="url(#SVGID_7_)" points="-0.259,22.113 -0.384,21.986 3.764,17.837 3.764,17.164 4.717,16.211 5.549,16.211 
				10.754,11.006 10.88,11.132 5.624,16.39 4.79,16.39 3.944,17.238 3.944,17.912 			"/>
		</g>
		
			<linearGradient id="SVGID_8_" gradientUnits="userSpaceOnUse" x1="-548.689" y1="178.4766" x2="-562.0876" y2="191.8752" gradientTransform="matrix(1 0 0 1 561.3799 -165.6211)">
			<stop  offset="0" style="stop-color:#CA4EE5;stop-opacity:0"/>
			<stop  offset="1" style="stop-color:#F6EBE6"/>
		</linearGradient>
		<polygon fill="url(#SVGID_8_)" points="11.755,11.749 -1.943,25.447 2.137,25.447 15.821,11.764 		"/>
		
			<linearGradient id="SVGID_9_" gradientUnits="userSpaceOnUse" x1="-544.4956" y1="178.4766" x2="-559.1645" y2="193.1455" gradientTransform="matrix(1 0 0 1 561.3799 -165.6211)">
			<stop  offset="0" style="stop-color:#CA4EE5;stop-opacity:0"/>
			<stop  offset="1" style="stop-color:#F6EBE6"/>
		</linearGradient>
		<polygon fill="url(#SVGID_9_)" points="13.913,12.295 0.214,25.992 7.276,25.992 20.959,12.31 		"/>
		
			<linearGradient id="SVGID_10_" gradientUnits="userSpaceOnUse" x1="-521.0571" y1="176.8584" x2="-542.3983" y2="198.1997" gradientTransform="matrix(1 0 0 1 561.3799 -165.6211)">
			<stop  offset="0" style="stop-color:#CA4EE5;stop-opacity:0"/>
			<stop  offset="0.7742" style="stop-color:#F6EBE6"/>
		</linearGradient>
		<polygon opacity="0.7" fill="url(#SVGID_10_)" enable-background="new    " points="35.999,10.423 16.071,30.35 26.345,30.35 
			46.253,10.444 		"/>
		
			<linearGradient id="SVGID_11_" gradientUnits="userSpaceOnUse" x1="-516.8657" y1="180.5752" x2="-525.0364" y2="188.7459" gradientTransform="matrix(1 0 0 1 561.3799 -165.6211)">
			<stop  offset="0" style="stop-color:#CA4EE5;stop-opacity:0"/>
			<stop  offset="0.672" style="stop-color:#F6EBE6"/>
		</linearGradient>
		<polygon opacity="0.7" fill="url(#SVGID_11_)" enable-background="new    " points="42.858,14.642 35.228,22.271 39.161,22.271 
			46.785,14.65 		"/>
		
			<linearGradient id="SVGID_12_" gradientUnits="userSpaceOnUse" x1="-506.5103" y1="175.8857" x2="-514.682" y2="184.0576" gradientTransform="matrix(1 0 0 1 561.3799 -165.6211)">
			<stop  offset="0" style="stop-color:#CA4EE5;stop-opacity:0"/>
			<stop  offset="0.7688" style="stop-color:#F6B8FF"/>
		</linearGradient>
		<polygon fill="url(#SVGID_12_)" points="53.213,9.954 45.582,17.584 49.516,17.584 57.139,9.962 		"/>
		
			<linearGradient id="SVGID_13_" gradientUnits="userSpaceOnUse" x1="-521.8232" y1="179.5088" x2="-529.9944" y2="187.68" gradientTransform="matrix(1 0 0 1 561.3799 -165.6211)">
			<stop  offset="0" style="stop-color:#CA4EE5;stop-opacity:0"/>
			<stop  offset="1" style="stop-color:#F6B8FF"/>
		</linearGradient>
		<polygon fill="url(#SVGID_13_)" points="37.9,13.577 30.27,21.207 34.204,21.207 41.827,13.585 		"/>
		<g>
			
				<linearGradient id="SVGID_14_" gradientUnits="userSpaceOnUse" x1="-540.3569" y1="187.582" x2="-530.6021" y2="187.582" gradientTransform="matrix(1 0 0 1 561.3799 -165.6211)">
				<stop  offset="0" style="stop-color:#CA4EE5;stop-opacity:0"/>
				<stop  offset="1" style="stop-color:#F6EBE6"/>
			</linearGradient>
			<polygon fill="url(#SVGID_14_)" points="21.239,26.838 21.023,26.625 30.563,17.083 30.778,17.298 			"/>
		</g>
	</g>
</g>
</svg>
