<?xml version="1.0" encoding="utf-8"?>
<!-- Generator: Adobe Illustrator 16.0.0, SVG Export Plug-In . SVG Version: 6.00 Build 0)  -->
<!DOCTYPE svg PUBLIC "-//W3C//DTD SVG 1.1//EN" "http://www.w3.org/Graphics/SVG/1.1/DTD/svg11.dtd">
<svg version="1.1" id="case1" xmlns="http://www.w3.org/2000/svg" xmlns:xlink="http://www.w3.org/1999/xlink" x="0px" y="0px"
	 width="92px" height="36px" viewBox="0 0 92 36" enable-background="new 0 0 92 36" xml:space="preserve">
<linearGradient id="xm1014_1_" gradientUnits="userSpaceOnUse" x1="-58.415" y1="1.3423" x2="32.585" y2="1.3423" gradientTransform="matrix(1 0 0 -1 59.04 19.3398)">
	<stop  offset="0" style="stop-color:#CA4EE5"/>
	<stop  offset="0.3011" style="stop-color:#570090"/>
	<stop  offset="0.7419" style="stop-color:#893BDC"/>
	<stop  offset="1" style="stop-color:#CA4EE5"/>
</linearGradient>
<path id="xm1014" fill="url(#xm1014_1_)" d="M91.625,11.202c0,0.255-0.012,0.51-0.033,0.767c-0.021,0.263-0.085,0.521-0.189,0.765
	c-0.303,0.198-0.657,0.297-1.021,0.285c-0.556,0.021-1.099,0.032-1.631,0.031v0.323h0.097c0.069-0.001,0.131,0.056,0.133,0.127
	c0,0.011-0.002,0.022-0.004,0.033c0.268-0.007,0.531-0.028,0.799-0.065c0.347-0.062,0.703,0.019,0.99,0.224
	c0.254,0.148,0.42,0.41,0.445,0.702c0.126,0.348,0.159,0.721,0.098,1.084c-0.164,0.504-0.574,0.89-1.09,1.021H67.453
	c-0.385,0.076-0.762,0.194-1.12,0.353c-0.927,0.245-1.885,0.353-2.845,0.319h-6.877c-1.364,0.042-2.771,0.063-4.221,0.063H45.42
	c-0.46,0.025-0.921,0.004-1.376-0.063c-0.236-0.101-0.482-0.176-0.735-0.223h-1.918c-0.248-0.077-0.507-0.109-0.767-0.095
	c-0.379-0.021-0.778-0.043-1.183-0.063h-1.056c-0.203-0.006-0.405,0.004-0.607,0.03c-0.214,0.035-0.408,0.149-0.543,0.319
	c-0.332,0.275-0.729,0.461-1.151,0.542c-0.162-0.029-0.314-0.094-0.447-0.19c-0.214-0.063-0.501-0.137-0.864-0.223
	c-0.358-0.094-0.721-0.168-1.088-0.223c-0.404-0.063-0.649-0.095-0.735-0.095h-1.183c-0.398-0.015-0.79,0.097-1.119,0.32
	c-0.239,0.101-0.425,0.297-0.512,0.541c-0.234,0.235-0.512,0.522-0.83,0.864c-0.254,0.291-0.587,0.501-0.959,0.604h-0.544
	c-0.113,0.084-0.245,0.14-0.384,0.16c-0.073,0.021-0.148,0.031-0.224,0.028c-0.189,0-0.51,0.013-0.959,0.03
	c-0.426,0-0.874,0.021-1.341,0.063c-0.45,0.017-0.898,0.06-1.342,0.127c-0.266,0.008-0.522,0.1-0.735,0.256
	c-0.146,0.191-0.254,0.408-0.319,0.64c-0.172,0.385-0.374,0.854-0.609,1.403c-0.276,0.555-0.563,1.148-0.862,1.785
	c-0.3,0.598-0.588,1.147-0.864,1.66c-0.019,0.299,0.013,0.604,0.095,0.894c0.033,0.143,0.076,0.278,0.128,0.415l0.16,0.158
	c0.061,0.125,0.16,0.227,0.284,0.283c0.125,0.086,0.198,0.229,0.19,0.381l-0.13,0.188c-0.127,0.103-0.288,0.146-0.447,0.128
	c-0.221,0.043-0.445,0.064-0.67,0.068c-0.289-0.004-0.578-0.024-0.864-0.063c-0.359-0.084-0.794-0.188-1.305-0.315
	c-0.533-0.084-1.044-0.178-1.536-0.283c-0.447-0.148-0.841-0.284-1.183-0.415c-0.244,0.004-0.478-0.101-0.64-0.283l-0.095-0.128
	V26.42h-0.033c-0.136-0.105-0.208-0.273-0.189-0.445v-0.223c0.157-0.333,0.339-0.652,0.544-0.957
	c0.316-0.554,0.657-1.182,1.023-1.881c0.363-0.684,0.714-1.32,1.054-1.917c0.188-0.341,0.359-0.692,0.512-1.052
	c0-0.172-0.011-0.396-0.032-0.672c-0.017-0.227-0.107-0.438-0.256-0.605c-0.32-0.115-0.653-0.19-0.992-0.223
	c-0.294-0.066-0.6-0.066-0.895,0c-0.217,0.05-0.446,0.016-0.64-0.096h-0.129c0.002-0.095,0.013-0.19,0.032-0.284
	c-0.002-0.075,0.01-0.15,0.033-0.223c0.037-0.032,0.06-0.078,0.063-0.126c-0.084,0-0.479,0.074-1.183,0.221
	c-0.703,0.129-1.449,0.298-2.238,0.513c-0.788,0.17-1.502,0.351-2.142,0.542c-0.664,0.148-1.011,0.223-1.055,0.223
	c-0.123,0.075-0.231,0.172-0.32,0.285c-0.148,0.229-0.319,0.443-0.511,0.639c-0.161,0.209-0.301,0.435-0.417,0.67
	c-0.128,0.275-0.245,0.563-0.351,0.861c-0.128,0.277-0.235,0.514-0.319,0.703c-0.051,0.143-0.115,0.281-0.19,0.415
	c-0.173,0.099-0.334,0.215-0.479,0.351c-0.363,0.201-0.736,0.383-1.119,0.543c-0.554,0.276-1.312,0.596-2.275,0.957H1.489
	l-0.673-0.224L0.625,12.383l4.989-0.737c0.145-0.012,0.286-0.055,0.414-0.127c0.084-0.063,0.16-0.138,0.224-0.223
	c0.08-0.08,0.154-0.165,0.224-0.254l16.339-1.5v0.189c0.076,0.16,0.172,0.31,0.284,0.447c0.049,0.101,0.144,0.172,0.254,0.19
	c0.025,0.051,0.073,0.086,0.129,0.095c0.074-0.005,0.142-0.04,0.19-0.095l0.189-0.19V9.735h0.129
	c0.467-0.708,0.808-1.197,1.023-1.468V8.203h0.049c0.028-0.036,0.055-0.069,0.081-0.095c0.008-0.012,0.019-0.022,0.031-0.03h0.975
	c0.044,0.035,0.082,0.078,0.112,0.125h0.19v0.27c0.144,0.147,0.338,0.233,0.543,0.241l0.319,0.159h1.024
	c0.268-0.006,0.536,0.015,0.8,0.063c0.155-0.02,0.298,0.09,0.318,0.246c0,0.004,0,0.007,0.001,0.01c0.126,0,0.189,0.178,0.189,0.542
	v0.32c0.044,0.005,0.087,0.015,0.129,0.03c0.023,0.032,0.057,0.055,0.095,0.065l0.095,0.031V9.193h11.429v-0.64h0.672v0.64h1.662
	v0.223c0,0.216,0.032,0.431,0.094,0.638c0.022,0.135,0.104,0.252,0.223,0.319h41.919c0.158-0.129,0.307-0.268,0.446-0.414
	c0.126-0.155,0.204-0.343,0.225-0.541l0.128-0.38c0.014-0.217,0.057-0.433,0.129-0.639c0.047-0.181,0.194-0.319,0.379-0.351
	c0.246,0.047,0.484,0.133,0.703,0.255c0.299,0.171,0.629,0.363,0.992,0.574c0.33,0.207,0.648,0.431,0.958,0.67
	c0.19,0.196,0.361,0.41,0.511,0.64c0.075,0.05,0.142,0.115,0.189,0.189c0.061-0.003,0.113,0.037,0.128,0.095
	c0.052,0.019,0.104,0.029,0.16,0.031h0.159l0.553,0.218v0.482H91.625z M86.443,13.053h-0.99l-0.16-0.224h-17.84
	c-0.186,0.128-0.311,0.323-0.354,0.543v0.16c0.774,0.061,1.557,0.082,2.334,0.063h4.83c1.918-0.043,3.939-0.086,6.071-0.128
	c2.194-0.042,4.188-0.074,5.979-0.095h0.447C86.723,13.216,86.6,13.095,86.443,13.053L86.443,13.053z M26.908,8.613
	c0.025,0.002,0.047,0.014,0.063,0.032h0.063c0,0.017,0.012,0.03,0.028,0.03c0.001,0,0.003,0,0.004,0h-0.16V8.613H26.908z
	 M28.123,17.483c0.016-0.303-0.062-0.604-0.224-0.861c-0.175-0.202-0.437-0.308-0.703-0.284h-2.334
	c-0.273-0.003-0.536,0.099-0.736,0.284c-0.182,0.249-0.272,0.553-0.256,0.861c0.001,0.237,0.093,0.466,0.256,0.639
	c0.191,0.203,0.457,0.318,0.736,0.318h2.334c0.273,0.022,0.54-0.098,0.703-0.318c0.145-0.181,0.223-0.404,0.224-0.635V17.483z
	 M24.478,8.682c0.024-0.001,0.048-0.012,0.064-0.03h0.033v0.03H24.48H24.478z"/>
<g>
	<defs>
		<path id="SVGID_1_" d="M91.625,11.202c0,0.255-0.012,0.51-0.033,0.767c-0.021,0.263-0.085,0.521-0.189,0.765
			c-0.303,0.198-0.657,0.297-1.021,0.285c-0.556,0.021-1.099,0.032-1.631,0.031v0.323h0.097c0.069-0.001,0.131,0.056,0.133,0.127
			c0,0.011-0.002,0.022-0.004,0.033c0.268-0.007,0.531-0.028,0.799-0.065c0.347-0.062,0.703,0.019,0.99,0.224
			c0.254,0.148,0.42,0.41,0.445,0.702c0.126,0.348,0.159,0.721,0.098,1.084c-0.164,0.504-0.574,0.89-1.09,1.021H67.453
			c-0.385,0.076-0.762,0.194-1.12,0.353c-0.927,0.245-1.885,0.353-2.845,0.319h-6.877c-1.364,0.042-2.771,0.063-4.221,0.063H45.42
			c-0.46,0.025-0.921,0.004-1.376-0.063c-0.236-0.101-0.482-0.176-0.735-0.223h-1.918c-0.248-0.077-0.507-0.109-0.767-0.095
			c-0.379-0.021-0.778-0.043-1.183-0.063h-1.056c-0.203-0.006-0.405,0.004-0.607,0.03c-0.214,0.035-0.408,0.149-0.543,0.319
			c-0.332,0.275-0.729,0.461-1.151,0.542c-0.162-0.029-0.314-0.094-0.447-0.19c-0.214-0.063-0.501-0.137-0.864-0.223
			c-0.358-0.094-0.721-0.168-1.088-0.223c-0.404-0.063-0.649-0.095-0.735-0.095h-1.183c-0.398-0.015-0.79,0.097-1.119,0.32
			c-0.239,0.101-0.425,0.297-0.512,0.541c-0.234,0.235-0.512,0.522-0.83,0.864c-0.254,0.291-0.587,0.501-0.959,0.604h-0.544
			c-0.113,0.084-0.245,0.14-0.384,0.16c-0.073,0.021-0.148,0.031-0.224,0.028c-0.189,0-0.51,0.013-0.959,0.03
			c-0.426,0-0.874,0.021-1.341,0.063c-0.45,0.017-0.898,0.06-1.342,0.127c-0.266,0.008-0.522,0.1-0.735,0.256
			c-0.146,0.191-0.254,0.408-0.319,0.64c-0.172,0.385-0.374,0.854-0.609,1.403c-0.276,0.555-0.563,1.148-0.862,1.785
			c-0.3,0.598-0.588,1.147-0.864,1.66c-0.019,0.299,0.013,0.604,0.095,0.894c0.033,0.143,0.076,0.278,0.128,0.415l0.16,0.158
			c0.061,0.125,0.16,0.227,0.284,0.283c0.125,0.086,0.198,0.229,0.19,0.381l-0.13,0.188c-0.127,0.103-0.288,0.146-0.447,0.128
			c-0.221,0.043-0.445,0.064-0.67,0.068c-0.289-0.004-0.578-0.024-0.864-0.063c-0.359-0.084-0.794-0.188-1.305-0.315
			c-0.533-0.084-1.044-0.178-1.536-0.283c-0.447-0.148-0.841-0.284-1.183-0.415c-0.244,0.004-0.478-0.101-0.64-0.283l-0.095-0.128
			V26.42h-0.033c-0.136-0.105-0.208-0.273-0.189-0.445v-0.223c0.157-0.333,0.339-0.652,0.544-0.957
			c0.316-0.554,0.657-1.182,1.023-1.881c0.363-0.684,0.714-1.32,1.054-1.917c0.188-0.341,0.359-0.692,0.512-1.052
			c0-0.172-0.011-0.396-0.032-0.672c-0.017-0.227-0.107-0.438-0.256-0.605c-0.32-0.115-0.653-0.19-0.992-0.223
			c-0.294-0.066-0.6-0.066-0.895,0c-0.217,0.05-0.446,0.016-0.64-0.096h-0.129c0.002-0.095,0.013-0.19,0.032-0.284
			c-0.002-0.075,0.01-0.15,0.033-0.223c0.037-0.032,0.06-0.078,0.063-0.126c-0.084,0-0.479,0.074-1.183,0.221
			c-0.703,0.129-1.449,0.298-2.238,0.513c-0.788,0.17-1.502,0.351-2.142,0.542c-0.664,0.148-1.011,0.223-1.055,0.223
			c-0.123,0.075-0.231,0.172-0.32,0.285c-0.148,0.229-0.319,0.443-0.511,0.639c-0.161,0.209-0.301,0.435-0.417,0.67
			c-0.128,0.275-0.245,0.563-0.351,0.861c-0.128,0.277-0.235,0.514-0.319,0.703c-0.051,0.143-0.115,0.281-0.19,0.415
			c-0.173,0.099-0.334,0.215-0.479,0.351c-0.363,0.201-0.736,0.383-1.119,0.543c-0.554,0.276-1.312,0.596-2.275,0.957H1.489
			l-0.673-0.224L0.625,12.383l4.989-0.737c0.145-0.012,0.286-0.055,0.414-0.127c0.084-0.063,0.16-0.138,0.224-0.223
			c0.08-0.08,0.154-0.165,0.224-0.254l16.339-1.5v0.189c0.076,0.16,0.172,0.31,0.284,0.447c0.049,0.101,0.144,0.172,0.254,0.19
			c0.025,0.051,0.073,0.086,0.129,0.095c0.074-0.005,0.142-0.04,0.19-0.095l0.189-0.19V9.735h0.129
			c0.467-0.708,0.808-1.197,1.023-1.468V8.203h0.049c0.028-0.036,0.055-0.069,0.081-0.095c0.008-0.012,0.019-0.022,0.031-0.03h0.975
			c0.044,0.035,0.082,0.078,0.112,0.125h0.19v0.27c0.144,0.147,0.338,0.233,0.543,0.241l0.319,0.159h1.024
			c0.268-0.006,0.536,0.015,0.8,0.063c0.155-0.02,0.298,0.09,0.318,0.246c0,0.004,0,0.007,0.001,0.01
			c0.126,0,0.189,0.178,0.189,0.542v0.32c0.044,0.005,0.087,0.015,0.129,0.03c0.023,0.032,0.057,0.055,0.095,0.065l0.095,0.031
			V9.193h11.429v-0.64h0.672v0.64h1.662v0.223c0,0.216,0.032,0.431,0.094,0.638c0.022,0.135,0.104,0.252,0.223,0.319h41.919
			c0.158-0.129,0.307-0.268,0.446-0.414c0.126-0.155,0.204-0.343,0.225-0.541l0.128-0.38c0.014-0.217,0.057-0.433,0.129-0.639
			c0.047-0.181,0.194-0.319,0.379-0.351c0.246,0.047,0.484,0.133,0.703,0.255c0.299,0.171,0.629,0.363,0.992,0.574
			c0.33,0.207,0.648,0.431,0.958,0.67c0.19,0.196,0.361,0.41,0.511,0.64c0.075,0.05,0.142,0.115,0.189,0.189
			c0.061-0.003,0.113,0.037,0.128,0.095c0.052,0.019,0.104,0.029,0.16,0.031h0.159l0.553,0.218v0.482H91.625z M86.443,13.053h-0.99
			l-0.16-0.224h-17.84c-0.186,0.128-0.311,0.323-0.354,0.543v0.16c0.774,0.061,1.557,0.082,2.334,0.063h4.83
			c1.918-0.043,3.939-0.086,6.071-0.128c2.194-0.042,4.188-0.074,5.979-0.095h0.447C86.723,13.216,86.6,13.095,86.443,13.053
			L86.443,13.053z M26.908,8.613c0.025,0.002,0.047,0.014,0.063,0.032h0.063c0,0.017,0.012,0.03,0.028,0.03c0.001,0,0.003,0,0.004,0
			h-0.16V8.613H26.908z M28.123,17.483c0.016-0.303-0.062-0.604-0.224-0.861c-0.175-0.202-0.437-0.308-0.703-0.284h-2.334
			c-0.273-0.003-0.536,0.099-0.736,0.284c-0.182,0.249-0.272,0.553-0.256,0.861c0.001,0.237,0.093,0.466,0.256,0.639
			c0.191,0.203,0.457,0.318,0.736,0.318h2.334c0.273,0.022,0.54-0.098,0.703-0.318c0.145-0.181,0.223-0.404,0.224-0.635V17.483z
			 M24.478,8.682c0.024-0.001,0.048-0.012,0.064-0.03h0.033v0.03H24.48H24.478z"/>
	</defs>
	<clipPath id="SVGID_2_">
		<use xlink:href="#SVGID_1_"  overflow="visible"/>
	</clipPath>
	<g clip-path="url(#SVGID_2_)">
		<g opacity="0.7">
			
				<linearGradient id="SVGID_3_" gradientUnits="userSpaceOnUse" x1="-539.7964" y1="175.2559" x2="-520.1943" y2="175.2559" gradientTransform="matrix(1 0 0 1 561.3799 -165.6211)">
				<stop  offset="0" style="stop-color:#CA4EE5;stop-opacity:0"/>
				<stop  offset="0.4624" style="stop-color:#F6EBE6"/>
			</linearGradient>
			<polygon fill="url(#SVGID_3_)" points="21.85,19.271 21.583,19.004 26.189,14.396 26.189,12.978 28.195,10.969 29.953,10.969 
				40.92,0 41.186,0.267 30.107,11.347 28.354,11.347 26.566,13.131 26.566,14.554 			"/>
		</g>
		<g opacity="0.7">
			
				<linearGradient id="SVGID_4_" gradientUnits="userSpaceOnUse" x1="-502.6807" y1="175.3799" x2="-492.4893" y2="175.3799" gradientTransform="matrix(1 0 0 1 561.3799 -165.6211)">
				<stop  offset="0" style="stop-color:#CA4EE5;stop-opacity:0"/>
				<stop  offset="0.5753" style="stop-color:#F6EBE6"/>
			</linearGradient>
			<polygon fill="url(#SVGID_4_)" points="58.836,14.769 58.699,14.628 61.094,12.233 61.094,11.496 62.137,10.451 63.049,10.451 
				68.752,4.749 68.891,4.887 63.131,10.647 62.217,10.647 61.289,11.575 61.289,12.313 			"/>
		</g>
		<g>
			
				<linearGradient id="SVGID_5_" gradientUnits="userSpaceOnUse" x1="-527.4053" y1="177.75" x2="-504.7979" y2="177.75" gradientTransform="matrix(1 0 0 1 561.3799 -165.6211)">
				<stop  offset="0" style="stop-color:#CA4EE5;stop-opacity:0"/>
				<stop  offset="1" style="stop-color:#F6EBE6"/>
			</linearGradient>
			<polygon fill="url(#SVGID_5_)" points="34.279,23.241 33.975,22.935 39.288,17.62 39.288,15.983 41.602,13.67 43.625,13.67 
				56.273,1.017 56.582,1.326 43.807,14.103 41.783,14.103 39.722,16.163 39.722,17.802 			"/>
		</g>
		<g opacity="0.7">
			
				<linearGradient id="SVGID_6_" gradientUnits="userSpaceOnUse" x1="-540.1982" y1="176.6426" x2="-528.9336" y2="176.6426" gradientTransform="matrix(1 0 0 1 561.3799 -165.6211)">
				<stop  offset="0" style="stop-color:#CA4EE5;stop-opacity:0"/>
				<stop  offset="0.5591" style="stop-color:#F6EBE6"/>
			</linearGradient>
			<polygon fill="url(#SVGID_6_)" points="21.308,16.575 21.182,16.448 25.332,12.299 25.332,11.625 26.284,10.673 27.116,10.673 
				32.32,5.468 32.446,5.594 27.189,10.851 26.356,10.851 25.509,11.699 25.509,12.373 			"/>
		</g>
		<g>
			
				<linearGradient id="SVGID_7_" gradientUnits="userSpaceOnUse" x1="-561.8633" y1="180.2441" x2="-550.5981" y2="180.2441" gradientTransform="matrix(1 0 0 1 561.3799 -165.6211)">
				<stop  offset="0" style="stop-color:#CA4EE5;stop-opacity:0"/>
				<stop  offset="1" style="stop-color:#F6EBE6"/>
			</linearGradient>
			<polygon fill="url(#SVGID_7_)" points="-0.357,20.177 -0.483,20.05 3.666,15.899 3.666,15.228 4.619,14.274 5.451,14.274 
				10.655,9.069 10.782,9.194 5.524,14.453 4.691,14.453 3.845,15.301 3.845,15.976 			"/>
		</g>
		
			<linearGradient id="SVGID_8_" gradientUnits="userSpaceOnUse" x1="-548.7876" y1="176.5391" x2="-562.1866" y2="189.9381" gradientTransform="matrix(1 0 0 1 561.3799 -165.6211)">
			<stop  offset="0" style="stop-color:#CA4EE5;stop-opacity:0"/>
			<stop  offset="1" style="stop-color:#F6EBE6"/>
		</linearGradient>
		<polygon fill="url(#SVGID_8_)" points="11.657,9.812 -2.042,23.511 2.039,23.511 15.723,9.827 		"/>
		
			<linearGradient id="SVGID_9_" gradientUnits="userSpaceOnUse" x1="-544.5938" y1="176.5391" x2="-559.263" y2="191.2084" gradientTransform="matrix(1 0 0 1 561.3799 -165.6211)">
			<stop  offset="0" style="stop-color:#CA4EE5;stop-opacity:0"/>
			<stop  offset="1" style="stop-color:#F6EBE6"/>
		</linearGradient>
		<polygon fill="url(#SVGID_9_)" points="13.813,10.358 0.116,24.056 7.178,24.056 20.861,10.373 		"/>
		
			<linearGradient id="SVGID_10_" gradientUnits="userSpaceOnUse" x1="-521.1563" y1="174.9209" x2="-542.4979" y2="196.2626" gradientTransform="matrix(1 0 0 1 561.3799 -165.6211)">
			<stop  offset="0" style="stop-color:#CA4EE5;stop-opacity:0"/>
			<stop  offset="0.7742" style="stop-color:#F6EBE6"/>
		</linearGradient>
		<polygon opacity="0.7" fill="url(#SVGID_10_)" enable-background="new    " points="35.899,8.485 15.972,28.413 26.247,28.413 
			46.155,8.507 		"/>
		
			<linearGradient id="SVGID_11_" gradientUnits="userSpaceOnUse" x1="-516.9648" y1="178.6387" x2="-525.1354" y2="186.8092" gradientTransform="matrix(1 0 0 1 561.3799 -165.6211)">
			<stop  offset="0" style="stop-color:#CA4EE5;stop-opacity:0"/>
			<stop  offset="0.672" style="stop-color:#F6EBE6"/>
		</linearGradient>
		<polygon opacity="0.7" fill="url(#SVGID_11_)" enable-background="new    " points="42.759,12.705 35.129,20.335 39.063,20.335 
			46.686,12.713 		"/>
		
			<linearGradient id="SVGID_12_" gradientUnits="userSpaceOnUse" x1="-506.6094" y1="173.9492" x2="-514.7811" y2="182.121" gradientTransform="matrix(1 0 0 1 561.3799 -165.6211)">
			<stop  offset="0" style="stop-color:#CA4EE5;stop-opacity:0"/>
			<stop  offset="0.7688" style="stop-color:#F6B8FF"/>
		</linearGradient>
		<polygon fill="url(#SVGID_12_)" points="53.113,8.017 45.483,15.647 49.418,15.647 57.039,8.024 		"/>
		
			<linearGradient id="SVGID_13_" gradientUnits="userSpaceOnUse" x1="-521.9224" y1="177.5723" x2="-530.0937" y2="185.7437" gradientTransform="matrix(1 0 0 1 561.3799 -165.6211)">
			<stop  offset="0" style="stop-color:#CA4EE5;stop-opacity:0"/>
			<stop  offset="1" style="stop-color:#F6B8FF"/>
		</linearGradient>
		<polygon fill="url(#SVGID_13_)" points="37.801,11.64 30.171,19.271 34.104,19.271 41.728,11.647 		"/>
		<g>
			
				<linearGradient id="SVGID_14_" gradientUnits="userSpaceOnUse" x1="-540.4556" y1="185.6445" x2="-530.7002" y2="185.6445" gradientTransform="matrix(1 0 0 1 561.3799 -165.6211)">
				<stop  offset="0" style="stop-color:#CA4EE5;stop-opacity:0"/>
				<stop  offset="1" style="stop-color:#F6EBE6"/>
			</linearGradient>
			<polygon fill="url(#SVGID_14_)" points="21.14,24.901 20.924,24.688 30.464,15.146 30.68,15.36 			"/>
		</g>
	</g>
</g>
<linearGradient id="shape5_1_" gradientUnits="userSpaceOnUse" x1="247.9229" y1="736.4883" x2="247.9229" y2="750.2383" gradientTransform="matrix(1 0 0 1 -188.54 -719.8203)">
	<stop  offset="0" style="stop-color:#4F3468"/>
	<stop  offset="0.4892" style="stop-color:#893BDC"/>
	<stop  offset="1" style="stop-color:#CA4EE5"/>
</linearGradient>
<path id="shape5" fill="url(#shape5_1_)" d="M69.212,31.251c-0.313,0-0.625-0.05-0.922-0.147c-0.298,0.104-0.608,0.147-0.922,0.147
	h-8.193c-0.185,0-0.442-0.009-0.771-0.075c-0.217,0.051-0.438,0.075-0.663,0.075h-2.664c-0.815,0-1.604-0.342-2.166-0.937
	c-0.078-0.086-0.149-0.174-0.22-0.271l-0.909,0.648c-0.503,0.356-1.101,0.554-1.726,0.554h-3.583c-0.717,0-1.402-0.269-1.937-0.722
	c-0.614,0.427-1.352,0.651-2.112,0.651c-0.75,0-1.479-0.222-2.104-0.642c-0.164-0.11-0.315-0.233-0.452-0.37
	c-1.021-1.021-1.363-2.423-0.92-3.753l0.044-0.128l0.08-0.203c-1.801-0.254-3.145-1.767-3.145-3.646V22.24
	c0-0.741,0.274-1.45,0.773-1.996l4.748-5.232c0.646-1.069,1.762-1.679,3.079-1.679h0.41c2.065,0,3.684,1.618,3.684,3.684
	c0,0-0.001,0.289-0.003,0.331c0.555-0.653,1.372-1.044,2.26-1.044h8.397c0.262,0,0.519,0.034,0.769,0.103
	c0.25-0.067,0.508-0.103,0.771-0.103h9.22c0.241,0,0.479,0.029,0.718,0.087c0.23-0.058,0.479-0.087,0.721-0.087h8.396
	c0.917,0,1.797,0.433,2.354,1.159c0.563,0.726,0.752,1.689,0.518,2.573l-0.407,1.532c-0.146,0.541-0.435,1.02-0.825,1.395
	c-0.018,0.188-0.049,0.372-0.098,0.555L81,25.055c-0.072,0.282-0.189,0.551-0.346,0.799c0.168,0.533,0.188,1.109,0.039,1.656
	l-0.412,1.539c-0.35,1.297-1.521,2.202-2.866,2.202H69.212z M66.173,23.782l0.017-0.009h-0.795l-0.004,0.009H66.173z"/>
<path id="ACE" fill="#FFFFFF" d="M43.403,23.163h-3.79c-0.409,0-0.717-0.308-0.717-0.718c0-0.104,0-0.104,0-0.204l5.018-5.531
	c0.103-0.307,0.31-0.41,0.615-0.41h0.41c0.409,0,0.717,0.308,0.717,0.717c0,0.102,0,0.205,0,0.205l-2.458,3.584H47.6
	c0.615,0,0.313,1.127-0.103,1.639l-4.507,5.531c-0.309,0.308-0.717,0.308-1.023,0.104c-0.205-0.206-0.309-0.41-0.205-0.719
	L43.403,23.163L43.403,23.163L43.403,23.163z M50.88,19.271l0.409,0.41l-4.813,8.603h3.584l2.147-1.536h2.974l-0.104,1.536h2.663
	l1.535-9.013H50.88L50.88,19.271z M55.387,20.809l-0.104,3.482h-2.97l2.047-3.482H55.387L55.387,20.809z M59.177,28.284h8.191
	l0.612-2.15l-0.818,0.614H61.43l1.739-5.941h6.452l0.408-1.535h-9.217l-2.355,7.988c-0.102,0.104-0.102,0.309-0.102,0.409
	c0,0.103,0,0.205,0.103,0.31c0.103,0.105,0.205,0.203,0.308,0.203C58.971,28.284,59.074,28.284,59.177,28.284L59.177,28.284
	L59.177,28.284z M71.466,19.271l0.312,0.609l-2.563,8.396h8.193l0.408-1.534h-5.121l0.718-2.458h4.711l0.41-1.537h-4.507
	l0.611-1.941h4.814l0.408-1.535H71.466L71.466,19.271z"/>
</svg>
