<?xml version="1.0" encoding="utf-8"?>
<!-- Generator: Adobe Illustrator 16.0.0, SVG Export Plug-In . SVG Version: 6.00 Build 0)  -->
<!DOCTYPE svg PUBLIC "-//W3C//DTD SVG 1.1//EN" "http://www.w3.org/Graphics/SVG/1.1/DTD/svg11.dtd">
<svg version="1.1" id="case1" xmlns="http://www.w3.org/2000/svg" xmlns:xlink="http://www.w3.org/1999/xlink" x="0px" y="0px"
	 width="78px" height="36px" viewBox="0 0 78 36" enable-background="new 0 0 78 36" xml:space="preserve">
<linearGradient id="revolver_1_" gradientUnits="userSpaceOnUse" x1="-56.9233" y1="561.4521" x2="-0.9106" y2="561.4521" gradientTransform="matrix(1 0 0 1 59.02 -542.5654)">
	<stop  offset="0" style="stop-color:#CA4EE5"/>
	<stop  offset="0.3011" style="stop-color:#570090"/>
	<stop  offset="0.7419" style="stop-color:#893BDC"/>
	<stop  offset="1" style="stop-color:#CA4EE5"/>
</linearGradient>
<path id="revolver" fill="url(#revolver_1_)" d="M58.109,8.757l-0.586,1.445v2.691h-2.74v-0.35h-0.635v0.4h-4.16v-0.448l-4.207-0.05
	l-0.736,0.3h-6.311c-0.232,0.005-0.463,0.039-0.688,0.1c-0.401,0.063-0.788,0.216-1.125,0.447l-0.05,0.052
	c-0.391,0.332-0.618,0.531-0.686,0.6c-0.223,0.289-0.358,0.636-0.391,1c-0.031,0.365-0.046,0.931-0.046,1.694v1.037
	c-0.459-0.033-0.931-0.052-1.419-0.052h-1.273c-0.281-0.01-0.562,0.023-0.833,0.1c-0.336,0.06-0.654,0.197-0.929,0.4
	c-0.169,0.153-0.303,0.34-0.393,0.549c-0.058,0.059-0.108,0.127-0.147,0.2c-0.153,0.351-0.251,0.721-0.291,1.101
	c-0.015,0.346-0.098,0.688-0.246,1c-0.183,0.396-0.413,0.762-0.685,1.102c-0.555,0.553-1.224,0.978-1.959,1.242
	c-0.063,0.033-0.132,0.064-0.2,0.104c-0.773,0.225-1.557,0.4-2.348,0.547c-0.65,0.064-1.304,0.082-1.957,0.055
	c-0.152-0.01-0.301-0.039-0.441-0.104c-0.34-0.128-0.654-0.313-0.93-0.549l-0.39-0.4l-0.2-0.196l-0.293,0.301
	c-0.164-0.032-0.326-0.066-0.491-0.104c-0.23-0.03-0.44-0.063-0.635-0.1c-0.181,0.002-0.361-0.019-0.538-0.054
	c-0.394-0.063-0.733-0.109-1.029-0.146c-0.439-0.076-0.889-0.062-1.321,0.049c-0.382,0.173-0.729,0.407-1.027,0.7
	c-0.277,0.268-0.451,0.618-0.489,1c-0.038,0.479,0.102,0.96,0.392,1.348c0.081,0.157,0.179,0.31,0.293,0.444
	c0.061,0.104,0.078,0.229,0.048,0.353c-0.031,0.119-0.102,0.227-0.2,0.302c-0.121,0.11-0.253,0.211-0.393,0.3
	c-0.33,0.275-0.541,0.671-0.587,1.102c-0.103,0.502,0.003,1.022,0.293,1.445l0.245,0.446c0.064,0.123,0.081,0.266,0.047,0.399
	c-0.042,0.112-0.11,0.217-0.2,0.301c-0.155,0.097-0.318,0.18-0.487,0.248c-0.361,0.154-0.68,0.396-0.931,0.699
	c-0.181,0.273-0.313,0.578-0.389,0.898c-0.043,0.283-0.182,0.549-0.394,0.742c-0.717,0.375-1.497,0.611-2.3,0.701
	c-1.084,0.187-2.182,0.271-3.281,0.248c-1.085-0.039-2.166-0.175-3.229-0.396c-1.271-0.333-1.971-0.803-2.1-1.396
	c-0.047-0.33,0.023-0.666,0.2-0.946c0.075-0.076,0.129-0.171,0.157-0.273c0.165-0.332,0.3-0.6,0.394-0.8
	c0.163-0.333,0.309-0.648,0.439-0.949c0.188-0.456,0.352-0.922,0.491-1.396c0.293-0.799,0.52-1.426,0.685-1.895
	c0.427-1.273,0.933-2.521,1.515-3.732c0.457-0.832,1.208-2.063,2.251-3.688c1.11-1.693,1.81-2.79,2.1-3.29
	c0.245-0.325,0.412-0.701,0.49-1.1c0.033-0.333,0.033-0.667,0-1v-0.834c0-0.294,0.068-0.585,0.2-0.848
	c0.406-0.442,0.968-0.71,1.567-0.747c0.307-0.068,0.617-0.118,0.93-0.148h0.342c0.139-0.143,0.287-0.276,0.443-0.4
	c0.295-0.233,0.625-0.419,0.978-0.55c0.26-0.1,0.571-0.215,0.929-0.348l0.49-0.1l-0.296-0.745c-0.196-0.393-0.48-0.735-0.831-1
	c-0.382-0.192-0.798-0.31-1.224-0.348c-0.077-0.035-0.161-0.052-0.245-0.048c-0.292-0.033-0.586-0.05-0.88-0.052l-0.046-0.25
	c0.308-0.033,0.618-0.049,0.928-0.049c0.504-0.07,1.015-0.07,1.519,0c0.358,0.12,0.689,0.306,0.978,0.549
	c0.025,0.03,0.061,0.048,0.1,0.051c0.177,0.171,0.396,0.292,0.636,0.347c0.34-0.15,0.617-0.415,0.783-0.748
	c0.164-0.2,0.326-0.414,0.49-0.647l1.122,0.05l0.441-1.046l-0.1-0.051c-0.064-0.032-0.116-0.084-0.146-0.149
	c-0.164-0.195-0.203-0.467-0.1-0.7c0.052-0.147,0.156-0.271,0.293-0.35c0.025-0.029,0.062-0.045,0.1-0.047
	c0.062-0.037,0.139-0.037,0.2,0l0.1-0.5l0.588,0.1L21.07,4.375h1.712l0.539,0.35h2.641v-0.7l0.685-0.65l0.978,0.052v0.5h0.884v-0.5
	h1.029v0.5h0.88V3.375h1.028v0.55h0.93v-0.55h0.881v0.55h1.027v-0.5h0.881v0.5h0.978v-0.55h0.925v0.55h0.979v-0.55h0.979v0.55h0.933
	v-0.55h0.878v0.55h0.979v-0.5h0.881v0.45h0.979V3.427h0.688l0.49,0.148c0.357,0.133,0.67,0.248,0.933,0.348
	c0.604,0.259,1.194,0.56,1.761,0.9h5.725V3.925h2.791l0.199,0.048c0.155,0.031,0.295,0.121,0.389,0.25
	c0.07,0.142,0.121,0.292,0.147,0.448L56.744,4.92l1.365,1.148V8.757L58.109,8.757L58.109,8.757z M25.964,17.175l0.292,0.252
	c-0.104,0.279-0.235,0.547-0.393,0.8c-0.099,0.191-0.213,0.375-0.341,0.546c-0.039,0.004-0.075,0.021-0.1,0.051
	c-0.191,0.213-0.355,0.447-0.49,0.699c-0.067,0.33-0.067,0.67,0,1c0.1,0.354,0.305,0.668,0.588,0.896
	c0.311,0.309,0.655,0.574,1.028,0.805c0.169,0.114,0.35,0.219,0.539,0.299l-0.149,0.301c-0.283-0.086-0.56-0.186-0.832-0.301
	c-0.557-0.248-1.069-0.586-1.515-1c-0.295-0.367-0.512-0.791-0.636-1.246l-0.2-0.799l0.246-0.201l0.048-0.602
	c-0.147-0.005-0.293-0.021-0.438-0.05c-0.298-0.021-0.594-0.065-0.882-0.151c-0.213-0.081-0.399-0.219-0.538-0.4l-0.2-0.249
	l-0.2,0.152c-0.141,0.146-0.256,0.315-0.342,0.5c-0.328,0.417-0.517,0.917-0.538,1.444v0.2c0.028,0.438,0.11,0.878,0.244,1.3
	c0.085,0.396,0.252,0.771,0.491,1.1c0.243,0.242,0.523,0.441,0.831,0.6c0.486,0.186,1,0.287,1.519,0.3
	c0.672,0.026,1.346-0.024,2.007-0.151c0.423-0.101,0.783-0.184,1.076-0.248c0.161-0.065,0.292-0.111,0.392-0.148
	c0.169-0.066,0.333-0.152,0.49-0.247c0.241-0.131,0.47-0.28,0.686-0.45c0.408-0.238,0.744-0.586,0.975-1
	c0.164-0.292,0.266-0.611,0.3-0.943c0.065-0.414,0.065-0.834,0-1.246v-0.062c-0.05-0.426-0.283-0.809-0.639-1.048
	c-0.333-0.283-0.693-0.533-1.075-0.746c-0.465-0.193-0.967-0.278-1.469-0.25h-0.83L25.964,17.175z"/>
<g>
	<defs>
		<path id="SVGID_1_" d="M58.109,8.757l-0.586,1.445v2.691h-2.74v-0.35h-0.635v0.4h-4.16v-0.448l-4.207-0.05l-0.736,0.3h-6.311
			c-0.232,0.005-0.463,0.039-0.688,0.1c-0.401,0.063-0.788,0.216-1.125,0.447l-0.05,0.052c-0.391,0.332-0.618,0.531-0.686,0.6
			c-0.224,0.289-0.358,0.636-0.392,1c-0.03,0.365-0.046,0.931-0.046,1.694v1.037c-0.459-0.033-0.932-0.052-1.419-0.052h-1.272
			c-0.281-0.01-0.563,0.023-0.834,0.1c-0.336,0.06-0.654,0.197-0.929,0.4c-0.169,0.153-0.303,0.34-0.394,0.549
			c-0.058,0.059-0.107,0.127-0.146,0.2c-0.152,0.351-0.251,0.721-0.291,1.101c-0.015,0.346-0.098,0.688-0.246,1
			c-0.183,0.396-0.412,0.762-0.685,1.102c-0.556,0.553-1.224,0.978-1.959,1.242c-0.063,0.033-0.132,0.064-0.2,0.104
			c-0.773,0.225-1.557,0.4-2.348,0.547c-0.65,0.064-1.305,0.082-1.957,0.055c-0.152-0.01-0.301-0.039-0.441-0.104
			c-0.34-0.128-0.654-0.313-0.93-0.549l-0.391-0.4l-0.199-0.196l-0.293,0.301c-0.164-0.032-0.326-0.066-0.491-0.104
			c-0.23-0.03-0.44-0.063-0.636-0.1c-0.181,0.002-0.36-0.019-0.537-0.054c-0.395-0.063-0.733-0.109-1.029-0.146
			c-0.439-0.076-0.889-0.062-1.321,0.049c-0.382,0.173-0.729,0.407-1.026,0.7c-0.277,0.268-0.451,0.618-0.489,1
			c-0.038,0.479,0.102,0.96,0.392,1.348c0.081,0.157,0.18,0.31,0.293,0.444c0.061,0.104,0.078,0.229,0.049,0.353
			c-0.031,0.119-0.103,0.227-0.201,0.302c-0.121,0.11-0.252,0.211-0.393,0.3c-0.33,0.275-0.541,0.671-0.587,1.102
			c-0.103,0.502,0.003,1.022,0.293,1.445l0.245,0.446c0.064,0.123,0.081,0.266,0.047,0.399c-0.042,0.112-0.109,0.217-0.199,0.301
			c-0.156,0.097-0.318,0.18-0.488,0.248c-0.36,0.154-0.68,0.396-0.93,0.699c-0.182,0.273-0.313,0.578-0.39,0.898
			c-0.043,0.283-0.183,0.549-0.394,0.742c-0.717,0.375-1.498,0.611-2.301,0.701c-1.084,0.187-2.182,0.271-3.281,0.248
			c-1.084-0.039-2.166-0.175-3.229-0.396c-1.271-0.333-1.971-0.803-2.1-1.396c-0.047-0.33,0.022-0.666,0.199-0.946
			c0.075-0.076,0.129-0.171,0.157-0.273c0.165-0.332,0.3-0.6,0.394-0.8c0.164-0.333,0.31-0.648,0.439-0.949
			c0.188-0.456,0.352-0.922,0.491-1.396c0.293-0.799,0.521-1.426,0.685-1.895c0.428-1.273,0.934-2.521,1.516-3.732
			c0.457-0.832,1.208-2.063,2.251-3.688c1.11-1.693,1.81-2.79,2.1-3.29c0.245-0.325,0.412-0.701,0.49-1.1
			c0.033-0.333,0.033-0.667,0-1v-0.834c0-0.294,0.067-0.585,0.2-0.848c0.406-0.442,0.968-0.71,1.566-0.747
			c0.308-0.068,0.617-0.118,0.93-0.148h0.343c0.139-0.143,0.287-0.276,0.442-0.4c0.295-0.233,0.625-0.419,0.979-0.55
			c0.26-0.1,0.571-0.215,0.93-0.348l0.489-0.1l-0.296-0.745c-0.195-0.393-0.48-0.735-0.831-1c-0.382-0.192-0.798-0.31-1.224-0.348
			c-0.077-0.035-0.161-0.052-0.245-0.048c-0.292-0.033-0.587-0.05-0.88-0.052l-0.047-0.25c0.309-0.033,0.619-0.049,0.929-0.049
			c0.504-0.07,1.015-0.07,1.519,0c0.358,0.12,0.689,0.306,0.979,0.549c0.025,0.03,0.061,0.048,0.1,0.051
			c0.178,0.171,0.396,0.292,0.637,0.347c0.34-0.15,0.616-0.415,0.782-0.748c0.164-0.2,0.326-0.414,0.49-0.647l1.122,0.05
			l0.441-1.046L20.086,5.57c-0.063-0.033-0.116-0.085-0.146-0.15c-0.164-0.195-0.203-0.467-0.101-0.7
			c0.052-0.146,0.156-0.271,0.293-0.35c0.025-0.029,0.062-0.045,0.101-0.047c0.062-0.037,0.139-0.037,0.199,0l0.101-0.5l0.588,0.1
			L21.07,4.375h1.712l0.538,0.35h2.642v-0.7l0.685-0.65l0.979,0.052v0.5h0.884v-0.5h1.029v0.5h0.88V3.375h1.027v0.55h0.931v-0.55
			h0.881v0.55h1.027v-0.5h0.881v0.5h0.978v-0.55h0.926v0.55h0.979v-0.55h0.979v0.55h0.933v-0.55h0.878v0.55h0.979v-0.5h0.881v0.45
			h0.979V3.427h0.688l0.489,0.148c0.357,0.133,0.67,0.248,0.933,0.348c0.604,0.259,1.194,0.56,1.761,0.9h5.725V3.925h2.791
			l0.199,0.048c0.155,0.031,0.295,0.121,0.389,0.25c0.07,0.142,0.121,0.292,0.147,0.448L56.744,4.92l1.365,1.148V8.757L58.109,8.757
			L58.109,8.757z M25.964,17.175l0.292,0.252c-0.104,0.279-0.234,0.547-0.393,0.8c-0.1,0.191-0.213,0.375-0.342,0.546
			c-0.039,0.004-0.074,0.021-0.1,0.051c-0.191,0.213-0.355,0.447-0.49,0.699c-0.066,0.33-0.066,0.67,0,1
			c0.101,0.354,0.305,0.668,0.588,0.896c0.312,0.309,0.655,0.574,1.028,0.805c0.169,0.114,0.351,0.219,0.539,0.299l-0.149,0.301
			c-0.283-0.086-0.56-0.186-0.832-0.301c-0.557-0.248-1.068-0.586-1.515-1c-0.295-0.367-0.512-0.791-0.636-1.246l-0.2-0.799
			L24,19.277l0.048-0.602c-0.146-0.005-0.293-0.021-0.438-0.05c-0.299-0.021-0.594-0.065-0.883-0.151
			c-0.213-0.081-0.398-0.219-0.537-0.4l-0.2-0.249l-0.2,0.152c-0.141,0.146-0.256,0.315-0.342,0.5
			c-0.328,0.417-0.518,0.917-0.538,1.444v0.2c0.028,0.438,0.11,0.878,0.243,1.3c0.086,0.396,0.253,0.771,0.492,1.1
			c0.242,0.242,0.522,0.441,0.83,0.6c0.486,0.186,1,0.287,1.52,0.3c0.672,0.026,1.346-0.024,2.007-0.151
			c0.423-0.101,0.783-0.184,1.076-0.248c0.161-0.065,0.292-0.111,0.392-0.148c0.17-0.066,0.334-0.152,0.49-0.247
			c0.241-0.131,0.471-0.28,0.686-0.45c0.408-0.238,0.744-0.586,0.976-1c0.164-0.292,0.267-0.611,0.3-0.943
			c0.064-0.414,0.064-0.834,0-1.246v-0.062c-0.05-0.426-0.283-0.809-0.639-1.048c-0.333-0.283-0.693-0.533-1.075-0.746
			c-0.465-0.193-0.967-0.278-1.469-0.25h-0.83L25.964,17.175z"/>
	</defs>
	<clipPath id="SVGID_2_">
		<use xlink:href="#SVGID_1_"  overflow="visible"/>
	</clipPath>
	<g clip-path="url(#SVGID_2_)">
		<g opacity="0.7">
			
				<linearGradient id="SVGID_3_" gradientUnits="userSpaceOnUse" x1="-554.333" y1="181.2422" x2="-534.7305" y2="181.2422" gradientTransform="matrix(1 0 0 1 561.3799 -165.6211)">
				<stop  offset="0" style="stop-color:#CA4EE5;stop-opacity:0"/>
				<stop  offset="0.4624" style="stop-color:#F6EBE6"/>
			</linearGradient>
			<polygon fill="url(#SVGID_3_)" points="7.313,25.256 7.047,24.989 11.653,20.381 11.653,18.963 13.659,16.954 15.416,16.954 
				26.384,5.985 26.649,6.251 15.571,17.333 13.817,17.333 12.03,19.116 12.03,20.539 			"/>
		</g>
		<g opacity="0.7">
			
				<linearGradient id="SVGID_4_" gradientUnits="userSpaceOnUse" x1="-517.2178" y1="181.3652" x2="-507.0254" y2="181.3652" gradientTransform="matrix(1 0 0 1 561.3799 -165.6211)">
				<stop  offset="0" style="stop-color:#CA4EE5;stop-opacity:0"/>
				<stop  offset="0.5753" style="stop-color:#F6EBE6"/>
			</linearGradient>
			<polygon fill="url(#SVGID_4_)" points="44.3,20.754 44.162,20.613 46.558,18.218 46.558,17.481 47.601,16.437 48.513,16.437 
				54.216,10.734 54.354,10.872 48.595,16.632 47.681,16.632 46.753,17.561 46.753,18.299 			"/>
		</g>
		<g>
			
				<linearGradient id="SVGID_5_" gradientUnits="userSpaceOnUse" x1="-541.9414" y1="183.7354" x2="-519.334" y2="183.7354" gradientTransform="matrix(1 0 0 1 561.3799 -165.6211)">
				<stop  offset="0" style="stop-color:#CA4EE5;stop-opacity:0"/>
				<stop  offset="1" style="stop-color:#F6EBE6"/>
			</linearGradient>
			<polygon fill="url(#SVGID_5_)" points="19.743,29.227 19.438,28.92 24.751,23.605 24.751,21.969 27.065,19.655 29.088,19.655 
				41.737,7.002 42.046,7.312 29.271,20.088 27.246,20.088 25.185,22.148 25.185,23.787 			"/>
		</g>
		<g opacity="0.7">
			
				<linearGradient id="SVGID_6_" gradientUnits="userSpaceOnUse" x1="-554.7344" y1="182.6279" x2="-543.4707" y2="182.6279" gradientTransform="matrix(1 0 0 1 561.3799 -165.6211)">
				<stop  offset="0" style="stop-color:#CA4EE5;stop-opacity:0"/>
				<stop  offset="0.5591" style="stop-color:#F6EBE6"/>
			</linearGradient>
			<polygon fill="url(#SVGID_6_)" points="6.771,22.561 6.646,22.434 10.795,18.284 10.795,17.61 11.747,16.658 12.579,16.658 
				17.784,11.453 17.909,11.579 12.653,16.836 11.819,16.836 10.973,17.685 10.973,18.358 			"/>
		</g>
		<g>
			
				<linearGradient id="SVGID_7_" gradientUnits="userSpaceOnUse" x1="-576.4004" y1="186.2295" x2="-565.1348" y2="186.2295" gradientTransform="matrix(1 0 0 1 561.3799 -165.6211)">
				<stop  offset="0" style="stop-color:#CA4EE5;stop-opacity:0"/>
				<stop  offset="1" style="stop-color:#F6EBE6"/>
			</linearGradient>
			<polygon fill="url(#SVGID_7_)" points="-14.894,26.162 -15.021,26.035 -10.871,21.885 -10.871,21.213 -9.918,20.26 -9.086,20.26 
				-3.882,15.054 -3.755,15.18 -9.013,20.438 -9.845,20.438 -10.692,21.286 -10.692,21.961 			"/>
		</g>
		
			<linearGradient id="SVGID_8_" gradientUnits="userSpaceOnUse" x1="-563.3242" y1="182.5244" x2="-576.7235" y2="195.9237" gradientTransform="matrix(1 0 0 1 561.3799 -165.6211)">
			<stop  offset="0" style="stop-color:#CA4EE5;stop-opacity:0"/>
			<stop  offset="1" style="stop-color:#F6EBE6"/>
		</linearGradient>
		<polygon fill="url(#SVGID_8_)" points="-2.88,15.797 -16.578,29.496 -12.498,29.496 1.187,15.813 		"/>
		
			<linearGradient id="SVGID_9_" gradientUnits="userSpaceOnUse" x1="-559.1309" y1="182.5234" x2="-573.8003" y2="197.193" gradientTransform="matrix(1 0 0 1 561.3799 -165.6211)">
			<stop  offset="0" style="stop-color:#CA4EE5;stop-opacity:0"/>
			<stop  offset="1" style="stop-color:#F6EBE6"/>
		</linearGradient>
		<polygon fill="url(#SVGID_9_)" points="-0.724,16.343 -14.421,30.041 -7.358,30.041 6.325,16.358 		"/>
		
			<linearGradient id="SVGID_10_" gradientUnits="userSpaceOnUse" x1="-535.6934" y1="180.9063" x2="-557.0352" y2="202.2482" gradientTransform="matrix(1 0 0 1 561.3799 -165.6211)">
			<stop  offset="0" style="stop-color:#CA4EE5;stop-opacity:0"/>
			<stop  offset="0.7742" style="stop-color:#F6EBE6"/>
		</linearGradient>
		<polygon opacity="0.7" fill="url(#SVGID_10_)" enable-background="new    " points="21.362,14.471 1.435,34.398 11.71,34.398 
			31.618,14.492 		"/>
		
			<linearGradient id="SVGID_11_" gradientUnits="userSpaceOnUse" x1="-531.502" y1="184.623" x2="-539.6727" y2="192.7938" gradientTransform="matrix(1 0 0 1 561.3799 -165.6211)">
			<stop  offset="0" style="stop-color:#CA4EE5;stop-opacity:0"/>
			<stop  offset="0.672" style="stop-color:#F6EBE6"/>
		</linearGradient>
		<polygon opacity="0.7" fill="url(#SVGID_11_)" enable-background="new    " points="28.223,18.69 20.593,26.32 24.526,26.32 
			32.149,18.698 		"/>
		
			<linearGradient id="SVGID_12_" gradientUnits="userSpaceOnUse" x1="-521.1465" y1="179.9346" x2="-529.3182" y2="188.1064" gradientTransform="matrix(1 0 0 1 561.3799 -165.6211)">
			<stop  offset="0" style="stop-color:#CA4EE5;stop-opacity:0"/>
			<stop  offset="0.7688" style="stop-color:#F6B8FF"/>
		</linearGradient>
		<polygon fill="url(#SVGID_12_)" points="38.577,14.002 30.946,21.633 34.881,21.633 42.503,14.01 		"/>
		
			<linearGradient id="SVGID_13_" gradientUnits="userSpaceOnUse" x1="-536.459" y1="183.5586" x2="-544.6299" y2="191.7296" gradientTransform="matrix(1 0 0 1 561.3799 -165.6211)">
			<stop  offset="0" style="stop-color:#CA4EE5;stop-opacity:0"/>
			<stop  offset="1" style="stop-color:#F6B8FF"/>
		</linearGradient>
		<polygon fill="url(#SVGID_13_)" points="23.265,17.625 15.635,25.256 19.567,25.256 27.19,17.633 		"/>
		<g>
			
				<linearGradient id="SVGID_14_" gradientUnits="userSpaceOnUse" x1="-554.9922" y1="191.6299" x2="-545.2363" y2="191.6299" gradientTransform="matrix(1 0 0 1 561.3799 -165.6211)">
				<stop  offset="0" style="stop-color:#CA4EE5;stop-opacity:0"/>
				<stop  offset="1" style="stop-color:#F6EBE6"/>
			</linearGradient>
			<polygon fill="url(#SVGID_14_)" points="6.603,30.887 6.388,30.674 15.928,21.131 16.144,21.346 			"/>
		</g>
	</g>
</g>
<linearGradient id="shape5_1_" gradientUnits="userSpaceOnUse" x1="240.9404" y1="-981.3936" x2="240.9404" y2="-995.1436" gradientTransform="matrix(1 0 0 -1 -188.5601 -964.7256)">
	<stop  offset="0" style="stop-color:#4F3468"/>
	<stop  offset="0.4892" style="stop-color:#893BDC"/>
	<stop  offset="1" style="stop-color:#CA4EE5"/>
</linearGradient>
<path id="shape5" fill="url(#shape5_1_)" d="M62.212,31.251c-0.313,0-0.625-0.05-0.922-0.147c-0.298,0.104-0.608,0.147-0.922,0.147
	h-8.193c-0.185,0-0.442-0.009-0.771-0.075c-0.217,0.051-0.438,0.075-0.663,0.075h-2.664c-0.815,0-1.604-0.342-2.166-0.937
	c-0.078-0.086-0.149-0.174-0.22-0.271l-0.909,0.648c-0.503,0.355-1.101,0.554-1.726,0.554h-3.584c-0.718,0-1.402-0.269-1.938-0.722
	c-0.614,0.427-1.352,0.65-2.112,0.65c-0.75,0-1.479-0.222-2.104-0.642c-0.164-0.11-0.315-0.233-0.452-0.37
	c-1.021-1.021-1.363-2.423-0.92-3.753l0.044-0.128l0.08-0.203c-1.801-0.254-3.145-1.768-3.145-3.646V22.24
	c0-0.741,0.274-1.45,0.773-1.996l4.748-5.232c0.646-1.069,1.762-1.679,3.079-1.679h0.41c2.064,0,3.685,1.618,3.685,3.684
	c0,0-0.001,0.289-0.003,0.331c0.555-0.653,1.371-1.044,2.26-1.044h8.396c0.263,0,0.52,0.034,0.77,0.103
	c0.25-0.067,0.508-0.103,0.771-0.103h9.219c0.242,0,0.48,0.029,0.718,0.087c0.231-0.058,0.478-0.087,0.72-0.087h8.396
	c0.917,0,1.797,0.433,2.354,1.159c0.563,0.726,0.752,1.689,0.518,2.573l-0.405,1.532c-0.146,0.541-0.437,1.02-0.825,1.395
	c-0.02,0.188-0.049,0.372-0.098,0.555L74,25.055c-0.07,0.282-0.188,0.551-0.348,0.799c0.168,0.533,0.188,1.109,0.039,1.656
	l-0.412,1.539c-0.35,1.297-1.521,2.202-2.864,2.202H62.212z M59.173,23.782l0.017-0.009h-0.795l-0.004,0.009H59.173z"/>
<path id="ACE" fill="#FFFFFF" d="M36.403,23.163h-3.79c-0.409,0-0.717-0.308-0.717-0.718c0-0.104,0-0.104,0-0.204l5.018-5.531
	c0.104-0.307,0.311-0.41,0.615-0.41h0.41c0.408,0,0.717,0.308,0.717,0.717c0,0.102,0,0.205,0,0.205l-2.458,3.584H40.6
	c0.615,0,0.313,1.127-0.103,1.639l-4.507,5.531c-0.309,0.308-0.717,0.308-1.023,0.104c-0.205-0.206-0.309-0.41-0.205-0.719
	L36.403,23.163L36.403,23.163L36.403,23.163z M43.88,19.271l0.409,0.41l-4.813,8.603h3.584l2.146-1.536h2.975l-0.104,1.536h2.663
	l1.535-9.013H43.88L43.88,19.271z M48.387,20.809l-0.104,3.482h-2.971l2.047-3.482H48.387L48.387,20.809z M52.177,28.284h8.191
	l0.612-2.15l-0.818,0.614H54.43l1.739-5.941h6.452l0.408-1.535h-9.217l-2.355,7.988c-0.102,0.104-0.102,0.309-0.102,0.409
	c0,0.103,0,0.205,0.103,0.31c0.103,0.105,0.205,0.203,0.308,0.203C51.971,28.284,52.074,28.284,52.177,28.284L52.177,28.284
	L52.177,28.284z M64.466,19.271l0.312,0.608l-2.563,8.396h8.193l0.408-1.533h-5.121l0.718-2.458h4.711l0.41-1.537h-4.507l0.611-1.94
	h4.813l0.407-1.535H64.466L64.466,19.271z"/>
</svg>
