<?xml version="1.0" encoding="utf-8"?>
<!-- Generator: Adobe Illustrator 16.0.0, SVG Export Plug-In . SVG Version: 6.00 Build 0)  -->
<!DOCTYPE svg PUBLIC "-//W3C//DTD SVG 1.0//EN" "http://www.w3.org/TR/2001/REC-SVG-20010904/DTD/svg10.dtd">
<svg version="1.0" id="图层_1" xmlns="http://www.w3.org/2000/svg" xmlns:xlink="http://www.w3.org/1999/xlink" x="0px" y="0px"
	 width="92px" height="36px" viewBox="0 0 92 36" enable-background="new 0 0 92 36" xml:space="preserve">
<linearGradient id="SVGID_1_" gradientUnits="userSpaceOnUse" x1="1126.0801" y1="-818.0488" x2="1215.3042" y2="-818.0488" gradientTransform="matrix(1 0 0 -1 -1124.8799 -800.7988)">
	<stop  offset="0" style="stop-color:#FF2F7D"/>
	<stop  offset="1" style="stop-color:#FF8053"/>
</linearGradient>
<path fill="url(#SVGID_1_)" d="M51.1,30.4c-1.5-1-2.9-2.2-4.4-3.7c-1.3-1.3-2.5-2.8-3.6-4.7c-1.3-2-2.4-4.2-3.1-6.4c0,0,0,0-0.1,0
	l-0.1,0.2L39.5,16l-1.3-0.2c-0.6,0.3-1.2,0.5-1.8,0.7c-0.3,0.1-0.7,0.2-1.1,0.2c-0.3,0-0.6,0-0.9-0.1c-0.7-0.1-1.4-0.4-2-0.8
	c-0.1,0.1-0.3,0.2-0.5,0.5c-0.4,0.4-0.9,0.9-1.4,1.5c-0.5,0.6-1,1.3-1.5,2.1c-0.4,0.6-0.7,1.3-1,2.1v0.1h-0.1c0,0-0.2,0.1-0.7,0.3
	c-0.4,0.2-1,0.3-1.6,0.3c-0.4,0-1.1-0.1-1.7-0.4c-0.6-0.3-0.9-1-1-2c0-0.1,0-0.2,0.6-1.4c0.1-0.3,0.3-0.6,0.5-0.9
	c0.2-0.4,0.4-0.8,0.6-1.2c0.4-0.7,0.8-1.4,1.1-2.1c0.2-0.3,0.4-0.6,0.5-0.7c-0.1-0.1-0.2-0.2-0.3-0.3c-0.2-0.2-0.3-0.3-0.5-0.3
	c-0.1,0-0.1,0-0.2,0c-0.1,0-0.4,0.1-0.6,0.3c-0.5,0.1-1.1,0.4-1.7,0.6c-0.5,0.2-1,0.3-1.6,0.6l-0.6,0.2c-0.4,0.2-0.8,0.3-1.3,0.5
	c-0.4,0.1-0.8,0.3-1.2,0.4c-1.5,0.5-3.9,1.4-6.8,2.5l-9.2,2.9l-1-11l0.1-0.1C1.6,10.1,2,9.9,2.6,9.7c0.5-0.2,1-0.3,1.7-0.4
	c0.3-0.1,0.6-0.1,1-0.1c0.3,0,0.7,0,1,0.1h0.2l0,0c0.1,0,0.2,0,0.2,0c0.3,0,0.6,0,1.1,0C9,9.2,10.3,9.1,11.7,9l5.5-0.3
	c0.2,0.1,0.4,0.1,0.6,0.2C18,9,18.2,9,18.3,9.1c0.6,0.2,1.1,0.3,1.5,0.3c0.1,0,0.5-0.1,0.8-0.2l0.3-0.1c0.4-0.1,0.9-0.2,1.3-0.3
	c0.4-0.1,0.8-0.2,1.2-0.3C23.7,8.1,24,8,24.3,8l3.5-3l0.4,0.4h21l0.1-0.2c0.1-0.1,0.2-0.1,0.3-0.2c0,0,0.1,0,0.2-0.1H50h0.1
	c0.1,0,0.2,0,0.3,0c0.2,0,0.4-0.1,0.6-0.1l16.2,0.1l0.6,0.2l0.4,0.1c0.1,0,0.2,0.1,0.3,0.1s0.3,0.1,0.4,0.1c0.3,0.2,0.5,0.3,0.6,0.3
	h6.9l0.1,0.1c0.4,0.5,0.7,0.9,1,1.2l0.9,0.9c0.3,0.3,0.4,0.3,0.5,0.3h5.9L85,8.1c0.2-0.4,0.4-0.9,0.5-1.2c0.1-0.2,0.2-0.4,0.3-0.6
	C85.9,6.1,85.9,6,86,5.8c0.1-0.3,0.2-0.6,0.3-0.7c0.1-0.2,0.1-0.4,0.1-0.5V4.1h2.1v4.1l1.3,0.1l0.1,0.4C90,8.9,90,9,90,9.2l0.1,0.1
	c0.1,0.1,0.1,0.2,0.1,0.3s-0.1,0.2-0.1,0.3c0,0-0.1,0.1-0.1,0.2c-0.2,0.2-0.6,0.3-0.8,0.3c-0.1,0-0.3,0-0.5-0.1h-0.2l-0.7,1.3
	l-1.3-0.5h-9.9L76,11.8l-0.7-0.5h-7l-0.1,0.6H56.6l-1.2,0.7c-0.3,0.2-0.6,0.4-1.1,0.5c-0.3,0.1-0.7,0.1-0.8,0.1
	c-0.2,0-0.5,0-0.8-0.1c-0.2,0-0.4-0.1-0.5-0.3l-0.4-0.2h-4.9c0,1.2,0.3,2.4,0.9,3.5c0.5,1.1,1.2,2.4,2.3,3.9
	c1.1,1.4,2.7,2.9,4.7,4.3l0.2,0.2l-0.2,0.2c0,0-0.3,0.3-0.7,0.9c-0.3,0.6-0.8,1.3-1.2,1.9c-0.4,0.8-1.1,1.8-1.7,2.7L51.1,30.4
	L51.1,30.4z M34.7,13.1c-0.3,0-0.6,0.1-0.9,0.3c-0.1,0.2-0.3,0.5-0.3,0.8c0,0.3,0.1,0.5,0.3,0.7c0.2,0.2,0.5,0.3,0.8,0.3h2
	c0.4,0,0.6-0.1,0.7-0.3c0.2-0.2,0.3-0.4,0.3-0.8c0-0.3-0.1-0.6-0.3-0.9c-0.1,0-0.4-0.1-0.6-0.1H34.7z"/>
<g>
	<defs>
		<path id="SVGID_2_" d="M51.1,30.4c-1.5-1-2.9-2.2-4.4-3.7c-1.3-1.3-2.5-2.8-3.6-4.7c-1.3-2-2.4-4.2-3.1-6.4c0,0,0,0-0.1,0
			l-0.1,0.2L39.5,16l-1.3-0.2c-0.6,0.3-1.2,0.5-1.8,0.7c-0.3,0.1-0.7,0.2-1.1,0.2c-0.3,0-0.6,0-0.9-0.1c-0.7-0.1-1.4-0.4-2-0.8
			c-0.1,0.1-0.3,0.2-0.5,0.5c-0.4,0.4-0.9,0.9-1.4,1.5c-0.5,0.6-1,1.3-1.5,2.1c-0.4,0.6-0.7,1.3-1,2.1v0.1h-0.1c0,0-0.2,0.1-0.7,0.3
			c-0.4,0.2-1,0.3-1.6,0.3c-0.4,0-1.1-0.1-1.7-0.4c-0.6-0.3-0.9-1-1-2c0-0.1,0-0.2,0.6-1.4c0.1-0.3,0.3-0.6,0.5-0.9
			c0.2-0.4,0.4-0.8,0.6-1.2c0.4-0.7,0.8-1.4,1.1-2.1c0.2-0.3,0.4-0.6,0.5-0.7c-0.1-0.1-0.2-0.2-0.3-0.3c-0.2-0.2-0.3-0.3-0.5-0.3
			c-0.1,0-0.1,0-0.2,0c-0.1,0-0.4,0.1-0.6,0.3c-0.5,0.1-1.1,0.4-1.7,0.6c-0.5,0.2-1,0.3-1.6,0.6l-0.6,0.2c-0.4,0.2-0.8,0.3-1.3,0.5
			c-0.4,0.1-0.8,0.3-1.2,0.4c-1.5,0.5-3.9,1.4-6.8,2.5l-9.2,2.9l-1-11l0.1-0.1C1.6,10.1,2,9.9,2.6,9.7c0.5-0.2,1-0.3,1.7-0.4
			c0.3-0.1,0.6-0.1,1-0.1c0.3,0,0.7,0,1,0.1h0.2l0,0c0.1,0,0.2,0,0.2,0c0.3,0,0.6,0,1.1,0C9,9.2,10.3,9.1,11.7,9l5.5-0.3
			c0.2,0.1,0.4,0.1,0.6,0.2C18,9,18.2,9,18.3,9.1c0.6,0.2,1.1,0.3,1.5,0.3c0.1,0,0.5-0.1,0.8-0.2l0.3-0.1c0.4-0.1,0.9-0.2,1.3-0.3
			c0.4-0.1,0.8-0.2,1.2-0.3C23.7,8.1,24,8,24.3,8l3.5-3l0.4,0.4h21l0.1-0.2c0.1-0.1,0.2-0.1,0.3-0.2c0,0,0.1,0,0.2-0.1H50h0.1
			c0.1,0,0.2,0,0.3,0c0.2,0,0.4-0.1,0.6-0.1l16.2,0.1l0.6,0.2l0.4,0.1c0.1,0,0.2,0.1,0.3,0.1s0.3,0.1,0.4,0.1
			c0.3,0.2,0.5,0.3,0.6,0.3h6.9l0.1,0.1c0.4,0.5,0.7,0.9,1,1.2l0.9,0.9c0.3,0.3,0.4,0.3,0.5,0.3h5.9L85,8.1c0.2-0.4,0.4-0.9,0.5-1.2
			c0.1-0.2,0.2-0.4,0.3-0.6C85.9,6.1,85.9,6,86,5.8c0.1-0.3,0.2-0.6,0.3-0.7c0.1-0.2,0.1-0.4,0.1-0.5V4.1h2.1v4.1l1.3,0.1l0.1,0.4
			C90,8.9,90,9,90,9.2l0.1,0.1c0.1,0.1,0.1,0.2,0.1,0.3s-0.1,0.2-0.1,0.3c0,0-0.1,0.1-0.1,0.2c-0.2,0.2-0.6,0.3-0.8,0.3
			c-0.1,0-0.3,0-0.5-0.1h-0.2l-0.7,1.3l-1.3-0.5h-9.9L76,11.8l-0.7-0.5h-7l-0.1,0.6H56.6l-1.2,0.7c-0.3,0.2-0.6,0.4-1.1,0.5
			c-0.3,0.1-0.7,0.1-0.8,0.1c-0.2,0-0.5,0-0.8-0.1c-0.2,0-0.4-0.1-0.5-0.3l-0.4-0.2h-4.9c0,1.2,0.3,2.4,0.9,3.5
			c0.5,1.1,1.2,2.4,2.3,3.9c1.1,1.4,2.7,2.9,4.7,4.3l0.2,0.2l-0.2,0.2c0,0-0.3,0.3-0.7,0.9c-0.3,0.6-0.8,1.3-1.2,1.9
			c-0.4,0.8-1.1,1.8-1.7,2.7L51.1,30.4L51.1,30.4z M34.7,13.1c-0.3,0-0.6,0.1-0.9,0.3c-0.1,0.2-0.3,0.5-0.3,0.8
			c0,0.3,0.1,0.5,0.3,0.7c0.2,0.2,0.5,0.3,0.8,0.3h2c0.4,0,0.6-0.1,0.7-0.3c0.2-0.2,0.3-0.4,0.3-0.8c0-0.3-0.1-0.6-0.3-0.9
			c-0.1,0-0.4-0.1-0.6-0.1H34.7z"/>
	</defs>
	<clipPath id="SVGID_3_">
		<use xlink:href="#SVGID_2_"  overflow="visible"/>
	</clipPath>
	<g clip-path="url(#SVGID_3_)">
		<linearGradient id="SVGID_4_" gradientUnits="userSpaceOnUse" x1="6.9272" y1="20.2939" x2="55.3022" y2="7.5439">
			<stop  offset="2.054068e-007" style="stop-color:#FE6198"/>
			<stop  offset="1" style="stop-color:#FFC9D4"/>
		</linearGradient>
		<polygon fill="url(#SVGID_4_)" points="-8.1,26 -1.7,26 3.1,19.6 -3.3,19.6 		"/>
		<linearGradient id="SVGID_5_" gradientUnits="userSpaceOnUse" x1="6.0786" y1="17.0752" x2="54.4536" y2="4.3252">
			<stop  offset="2.054068e-007" style="stop-color:#FE6198"/>
			<stop  offset="1" style="stop-color:#FFC9D4"/>
		</linearGradient>
		<polygon fill="url(#SVGID_5_)" points="8,13.2 3.1,19.6 9.5,19.6 14.4,13.2 		"/>
		<linearGradient id="SVGID_6_" gradientUnits="userSpaceOnUse" x1="7.7583" y1="23.4473" x2="56.1333" y2="10.6973">
			<stop  offset="2.054068e-007" style="stop-color:#FE6198"/>
			<stop  offset="1" style="stop-color:#FFC9D4"/>
		</linearGradient>
		<polygon fill="url(#SVGID_6_)" points="4.7,26 11.1,26 15.9,19.6 9.5,19.6 		"/>
		<linearGradient id="SVGID_7_" gradientUnits="userSpaceOnUse" x1="6.9102" y1="20.2295" x2="55.2852" y2="7.4795">
			<stop  offset="2.054068e-007" style="stop-color:#FE6198"/>
			<stop  offset="1" style="stop-color:#FFC9D4"/>
		</linearGradient>
		<polygon fill="url(#SVGID_7_)" points="15.9,19.6 22.3,19.6 27.2,13.2 20.8,13.2 		"/>
		<linearGradient id="SVGID_8_" gradientUnits="userSpaceOnUse" x1="4.3989" y1="10.7012" x2="52.7739" y2="-2.0488">
			<stop  offset="2.054068e-007" style="stop-color:#FE6198"/>
			<stop  offset="1" style="stop-color:#FFC9D4"/>
		</linearGradient>
		<polygon fill="url(#SVGID_8_)" points="6.4,6.8 1.6,13.2 8,13.2 12.8,6.8 		"/>
		<linearGradient id="SVGID_9_" gradientUnits="userSpaceOnUse" x1="3.5503" y1="7.4819" x2="51.9253" y2="-5.2681">
			<stop  offset="2.054068e-007" style="stop-color:#FE6198"/>
			<stop  offset="1" style="stop-color:#FFC9D4"/>
		</linearGradient>
		<polygon fill="url(#SVGID_9_)" points="24,0.4 17.6,0.4 12.8,6.8 19.2,6.8 		"/>
		<linearGradient id="SVGID_10_" gradientUnits="userSpaceOnUse" x1="5.2305" y1="13.856" x2="53.6055" y2="1.106">
			<stop  offset="2.054068e-007" style="stop-color:#FE6198"/>
			<stop  offset="1" style="stop-color:#FFC9D4"/>
		</linearGradient>
		<polygon fill="url(#SVGID_10_)" points="20.8,13.2 25.6,6.8 19.2,6.8 14.4,13.2 		"/>
		<linearGradient id="SVGID_11_" gradientUnits="userSpaceOnUse" x1="4.3818" y1="10.6372" x2="52.7568" y2="-2.1128">
			<stop  offset="2.054068e-007" style="stop-color:#FE6198"/>
			<stop  offset="1" style="stop-color:#FFC9D4"/>
		</linearGradient>
		<polygon fill="url(#SVGID_11_)" points="36.8,0.4 30.4,0.4 25.6,6.8 32,6.8 		"/>
		<linearGradient id="SVGID_12_" gradientUnits="userSpaceOnUse" x1="7.7412" y1="23.3838" x2="56.1162" y2="10.6338">
			<stop  offset="2.054068e-007" style="stop-color:#FE6198"/>
			<stop  offset="1" style="stop-color:#FFC9D4"/>
		</linearGradient>
		<polygon fill="url(#SVGID_12_)" points="28.7,19.6 35.1,19.6 40,13.2 33.6,13.2 		"/>
		<linearGradient id="SVGID_13_" gradientUnits="userSpaceOnUse" x1="6.8931" y1="20.165" x2="55.2681" y2="7.415">
			<stop  offset="2.054068e-007" style="stop-color:#FE6198"/>
			<stop  offset="1" style="stop-color:#FFC9D4"/>
		</linearGradient>
		<polygon fill="url(#SVGID_13_)" points="40,13.2 46.4,13.2 51.2,6.8 44.8,6.8 		"/>
		<linearGradient id="SVGID_14_" gradientUnits="userSpaceOnUse" x1="6.062" y1="17.0112" x2="54.437" y2="4.2612">
			<stop  offset="2.054068e-007" style="stop-color:#FE6198"/>
			<stop  offset="1" style="stop-color:#FFC9D4"/>
		</linearGradient>
		<polygon fill="url(#SVGID_14_)" points="32,6.8 27.2,13.2 33.6,13.2 38.4,6.8 		"/>
		<linearGradient id="SVGID_15_" gradientUnits="userSpaceOnUse" x1="5.2134" y1="13.792" x2="53.5884" y2="1.042">
			<stop  offset="2.054068e-007" style="stop-color:#FE6198"/>
			<stop  offset="1" style="stop-color:#FFC9D4"/>
		</linearGradient>
		<polygon fill="url(#SVGID_15_)" points="49.6,0.4 43.2,0.4 38.4,6.8 44.8,6.8 		"/>
		<linearGradient id="SVGID_16_" gradientUnits="userSpaceOnUse" x1="6.0449" y1="16.9468" x2="54.4199" y2="4.1968">
			<stop  offset="2.054068e-007" style="stop-color:#FE6198"/>
			<stop  offset="1" style="stop-color:#FFC9D4"/>
		</linearGradient>
		<polygon fill="url(#SVGID_16_)" points="56,0.4 51.2,6.8 57.6,6.8 62.4,0.4 		"/>
	</g>
</g>
</svg>
