<?xml version="1.0" encoding="utf-8"?>
<!-- Generator: Adobe Illustrator 16.0.0, SVG Export Plug-In . SVG Version: 6.00 Build 0)  -->
<!DOCTYPE svg PUBLIC "-//W3C//DTD SVG 1.0//EN" "http://www.w3.org/TR/2001/REC-SVG-20010904/DTD/svg10.dtd">
<svg version="1.0" id="图层_1" xmlns="http://www.w3.org/2000/svg" xmlns:xlink="http://www.w3.org/1999/xlink" x="0px" y="0px"
	 width="75.8px" height="32px" viewBox="0 0 75.8 32" enable-background="new 0 0 75.8 32" xml:space="preserve">
<g id="Selected_Items">
	<g>
		<g id="Selected_Items_1_">
			
				<linearGradient id="SVGID_1_" gradientUnits="userSpaceOnUse" x1="84.9829" y1="-950.4658" x2="85.4829" y2="-950.4658" gradientTransform="matrix(1 0 0 -1 -1031.5195 -934.1592)">
				<stop  offset="0" style="stop-color:#003CBF"/>
				<stop  offset="1" style="stop-color:#0001BF"/>
			</linearGradient>
			<path fill="url(#SVGID_1_)" d="M37.1,14.3c-0.1,0.1-0.1,0.1-0.2,0.2c-0.2,0.2-0.3,0.5-0.3,0.8c0,0.1,0,0.4,0.1,0.8
				c0,0.1,0,0.2-0.1,0.2c-0.1,0.1-0.4,0.1-0.8,0h-0.5c0,0.3-0.1,0.4-0.2,0.4h-0.9c-0.1,0-0.2,0-0.3,0.1C33.8,16.9,33.8,17,33.7,17
				c-0.2,0.2-0.8,1.3-1.8,3.4c-0.3,0.5-0.3,0.899-0.1,1.199c0.1,0.301,0.3,0.4,0.6,0.5c0.5,0.101,1.3,0.101,2.5,0
				c0.9-0.1,1.6-0.3,2.1-0.699c0.3-0.301,1.6-2.2,3.701-5.601c0.1-0.2,0-0.7-0.5-1.5H37.1L37.1,14.3z M72.3,8.3c0.1,0,0.199,0,0.5,0
				c0.1,0,0.3-0.1,0.5-0.2h1.8l0.2,0.3C75.4,8.7,75.5,9,75.5,9.3c0,0.3,0,0.6-0.199,0.9c-0.1,0.2-0.2,0.3-0.301,0.3H73.3
				c0,0-0.2-0.1-0.301-0.1c-0.1,0-0.199,0-0.299,0c-0.201,0-0.301,0-0.5,0.1H72h-1L70.8,10.4h-1.6L69,10.2h-0.799
				c0,0.2-0.201,0.3-0.301,0.3h-1.5c-0.1,0-0.199,0-0.3-0.1L66,10.3l-10.799,0.3L54.6,11.2h-0.3L54.1,11h-0.3l-0.1,0.2H51.5
				l-0.299,2.3c0,0.3-0.201,0.4-0.5,0.5L51,14.3l0.601,0.1c0.399,0.1,0.601,0.2,0.601,0.5C52,15.7,52,16.3,52.1,16.7
				c0.101,0.3,0.101,0.8,0,1.7c0,1,0,1.699,0,1.899c0,0.8,0.3,1.601,0.899,2.5c0.101,0.2-0.1,0.3-0.5,0.5
				C52,23.5,51.6,23.6,51.1,23.6c-0.399,0-1-0.1-1.7-0.3L48.3,23c0-1.1,0-2.1,0.199-3c0.101-0.3,0.201-1,0.5-1.8
				c0.201-0.601,0.301-1,0.201-1.3c0-0.301-0.101-0.601-0.301-0.9c-0.199-0.3-0.3-0.6-0.3-0.7c-0.101-0.2,0.101-0.4,0.601-0.7
				c0.199-0.1,0.399-0.2,0.699-0.3c-0.9,0-1.8-0.1-2.8-0.1c-1.899-0.1-3,0-3.3,0.1c-0.7,0.5-1.7,1.5-2.801,3.2
				c-0.299,0.3-1.1,1.5-2.399,3.6C38.1,21.9,37.5,22.4,37,22.7c-0.4,0.2-1.1,0.3-2.1,0.399c-0.8,0-2.1,0.101-3.7,0.2
				c-1.4,0-2.3,0-2.6,0c-0.2,0-0.4-0.1-0.5-0.2C28,22.9,28,22.7,28,22.3c0.1-1.1,0.2-1.8,0.4-2.3c0.1-0.2,0.3-0.7,0.7-1.3
				c0.4-0.7,0.6-1.101,0.8-1.2c0.1-0.1,0.3-0.3,0.8-0.7c0.4-0.5,0.6-1,0.6-1.6c0-0.7-0.3-1.1-0.9-1.3c-0.3,0-1,0-2.1,0.1
				c-1.1,0-1.8,0.1-2.3,0.1c-0.8,0.1-1.2,0.2-1.3,0.4c-0.2,0.3-0.6,0.5-1.1,0.7L23.5,16.6c0.1,1.4,0.5,3.2,1.2,5.4
				c1,3.5,1.9,5.9,2.7,6.9c0.3,0.5,0.3,0.8-0.1,1c-0.3,0.1-1.2,0.399-2.7,1c-1.6,0.6-2.5,0.899-2.8,1c-0.3,0.1-0.4-0.4-0.4-1.4
				c-0.2-0.4-0.5-1-0.9-1.8c-0.6-1.7-1.2-3.4-1.7-5.4c-0.4-1.899-0.8-3.8-1-5.5l-0.1-2.1c-0.5-0.2-0.9-0.2-1.1,0L14.9,17.1
				c-0.1,0.101-0.2,0-0.4-0.199c-0.2-0.2-0.3-0.301-0.3-0.301c-0.6,0.2-1.5,0.7-2.7,1.5c-1.4,1-2.1,1.7-2.3,2.301L8.9,21.3l0.4,0.5
				c0.3,0.3,0.4,0.5,0.4,0.601c0,0.3-0.1,0.6-0.3,0.8c-0.2,0.2-0.4,0.3-0.7,0.3H4.3c-0.3,0-0.6-0.1-0.8-0.3
				c-0.3-0.3-0.6-0.7-0.8-1.2c-0.2-0.7-0.6-2.3-1.2-4.8c-0.6-2.7-0.9-4.3-0.9-4.9c0-0.6,0-1.1,0.1-1.3c0.1-0.2,0.2-0.4,0.5-0.7
				c0.3-0.3,0.6-0.6,1.2-1C3,8.9,3.5,8.7,3.8,8.7l23.6-0.5V7.5L28,7c0.4-0.3,0.7-0.5,0.9-0.6c0.3-0.1,0.6-0.2,1.1-0.2h1.4V4.4h-0.6
				c0,0.3-0.2,0.4-0.6,0.4c-0.2,0-0.4-0.1-0.5-0.2l-0.1-0.2h-1.3l-0.2,0.2h-0.4c-0.2-0.3-0.3-0.9-0.3-1.6c0-0.8,0.1-1.2,0.3-1.2H28
				l0.2,0.1h1.3l0.1-0.3c0.1-0.1,0.3-0.2,0.5-0.2c0.3,0,0.5,0.1,0.5,0.5H31V1.1L31.7,1c0.2,0,0.5,0,0.8,0.1v0.4l3-0.4
				c2-0.3,3.201-0.4,3.6-0.4h1.2l0.5,0.4h0.5V0.8h0.4V1H42.5v3.7h-0.799v0.2h-0.4V4.6h-1.9L39.701,5h0.5c0.399,0.1,0.5,0.1,0.6,0.3
				L41,6h1.201V5.9h0.6V6H44V5.9H44.6V6h1.3V5.9h0.5V6h1.301V5.9h0.5V6H49.5V5.9H50V6h1l2.701,1.3v0.9L54.4,8.6H66l0.201-0.1
				C66.3,8.4,66.4,8.3,66.5,8.3h1.4l0.301,0.3H68.9l0.301-0.2c0.299,0,0.799,0,1.5,0.1V8.4C70.8,8.3,70.9,8.2,71,8.2h1
				C72.1,8.2,72.201,8.2,72.3,8.3z"/>
		</g>
	</g>
</g>
<g>
	<defs>
		<path id="SVGID_2_" d="M37.1,14.3c-0.1,0.1-0.1,0.1-0.2,0.2c-0.2,0.2-0.3,0.5-0.3,0.8c0,0.1,0,0.4,0.1,0.8c0,0.1,0,0.2-0.1,0.2
			c-0.1,0.1-0.4,0.1-0.8,0h-0.5c0,0.3-0.1,0.4-0.2,0.4h-0.9c-0.1,0-0.2,0-0.3,0.1C33.8,16.9,33.8,17,33.7,17
			c-0.2,0.2-0.8,1.3-1.8,3.4c-0.3,0.5-0.3,0.899-0.1,1.199c0.1,0.301,0.3,0.4,0.6,0.5c0.5,0.101,1.3,0.101,2.5,0
			c0.9-0.1,1.6-0.3,2.1-0.699c0.3-0.301,1.6-2.2,3.701-5.601c0.1-0.2,0-0.7-0.5-1.5H37.1L37.1,14.3z M72.3,8.3c0.1,0,0.199,0,0.5,0
			c0.1,0,0.3-0.1,0.5-0.2h1.8l0.2,0.3C75.4,8.7,75.5,9,75.5,9.3c0,0.3,0,0.6-0.199,0.9c-0.1,0.2-0.2,0.3-0.301,0.3H73.3
			c0,0-0.2-0.1-0.301-0.1c-0.1,0-0.199,0-0.299,0c-0.201,0-0.301,0-0.5,0.1H72h-1L70.8,10.4h-1.6L69,10.2h-0.799
			c0,0.2-0.201,0.3-0.301,0.3h-1.5c-0.1,0-0.199,0-0.3-0.1L66,10.3l-10.799,0.3L54.6,11.2h-0.3L54.1,11h-0.3l-0.1,0.2H51.5
			l-0.299,2.3c0,0.3-0.201,0.4-0.5,0.5L51,14.3l0.601,0.1c0.399,0.1,0.601,0.2,0.601,0.5C52,15.7,52,16.3,52.1,16.7
			c0.101,0.3,0.101,0.8,0,1.7c0,1,0,1.699,0,1.899c0,0.8,0.3,1.601,0.899,2.5c0.101,0.2-0.1,0.3-0.5,0.5
			C52,23.5,51.6,23.6,51.1,23.6c-0.399,0-1-0.1-1.7-0.3L48.3,23c0-1.1,0-2.1,0.199-3c0.101-0.3,0.201-1,0.5-1.8
			c0.201-0.601,0.301-1,0.201-1.3c0-0.301-0.101-0.601-0.301-0.9c-0.199-0.3-0.3-0.6-0.3-0.7c-0.101-0.2,0.101-0.4,0.601-0.7
			c0.199-0.1,0.399-0.2,0.699-0.3c-0.9,0-1.8-0.1-2.8-0.1c-1.899-0.1-3,0-3.3,0.1c-0.7,0.5-1.7,1.5-2.801,3.2
			c-0.299,0.3-1.1,1.5-2.399,3.6C38.1,21.9,37.5,22.4,37,22.7c-0.4,0.2-1.1,0.3-2.1,0.399c-0.8,0-2.1,0.101-3.7,0.2
			c-1.4,0-2.3,0-2.6,0c-0.2,0-0.4-0.1-0.5-0.2C28,22.9,28,22.7,28,22.3c0.1-1.1,0.2-1.8,0.4-2.3c0.1-0.2,0.3-0.7,0.7-1.3
			c0.4-0.7,0.6-1.101,0.8-1.2c0.1-0.1,0.3-0.3,0.8-0.7c0.4-0.5,0.6-1,0.6-1.6c0-0.7-0.3-1.1-0.9-1.3c-0.3,0-1,0-2.1,0.1
			c-1.1,0-1.8,0.1-2.3,0.1c-0.8,0.1-1.2,0.2-1.3,0.4c-0.2,0.3-0.6,0.5-1.1,0.7L23.5,16.6c0.1,1.4,0.5,3.2,1.2,5.4
			c1,3.5,1.9,5.9,2.7,6.9c0.3,0.5,0.3,0.8-0.1,1c-0.3,0.1-1.2,0.399-2.7,1c-1.6,0.6-2.5,0.899-2.8,1c-0.3,0.1-0.4-0.4-0.4-1.4
			c-0.2-0.4-0.5-1-0.9-1.8c-0.6-1.7-1.2-3.4-1.7-5.4c-0.4-1.899-0.8-3.8-1-5.5l-0.1-2.1c-0.5-0.2-0.9-0.2-1.1,0L14.9,17.1
			c-0.1,0.101-0.2,0-0.4-0.199c-0.2-0.2-0.3-0.301-0.3-0.301c-0.6,0.2-1.5,0.7-2.7,1.5c-1.4,1-2.1,1.7-2.3,2.301L8.9,21.3l0.4,0.5
			c0.3,0.3,0.4,0.5,0.4,0.601c0,0.3-0.1,0.6-0.3,0.8c-0.2,0.2-0.4,0.3-0.7,0.3H4.3c-0.3,0-0.6-0.1-0.8-0.3c-0.3-0.3-0.6-0.7-0.8-1.2
			c-0.2-0.7-0.6-2.3-1.2-4.8c-0.6-2.7-0.9-4.3-0.9-4.9c0-0.6,0-1.1,0.1-1.3c0.1-0.2,0.2-0.4,0.5-0.7c0.3-0.3,0.6-0.6,1.2-1
			C3,8.9,3.5,8.7,3.8,8.7l23.6-0.5V7.5L28,7c0.4-0.3,0.7-0.5,0.9-0.6c0.3-0.1,0.6-0.2,1.1-0.2h1.4V4.4h-0.6c0,0.3-0.2,0.4-0.6,0.4
			c-0.2,0-0.4-0.1-0.5-0.2l-0.1-0.2h-1.3l-0.2,0.2h-0.4c-0.2-0.3-0.3-0.9-0.3-1.6c0-0.8,0.1-1.2,0.3-1.2H28l0.2,0.1h1.3l0.1-0.3
			c0.1-0.1,0.3-0.2,0.5-0.2c0.3,0,0.5,0.1,0.5,0.5H31V1.1L31.7,1c0.2,0,0.5,0,0.8,0.1v0.4l3-0.4c2-0.3,3.201-0.4,3.6-0.4h1.2
			l0.5,0.4h0.5V0.8h0.4V1H42.5v3.7h-0.799v0.2h-0.4V4.6h-1.9L39.701,5h0.5c0.399,0.1,0.5,0.1,0.6,0.3L41,6h1.201V5.9h0.6V6H44V5.9
			H44.6V6h1.3V5.9h0.5V6h1.301V5.9h0.5V6H49.5V5.9H50V6h1l2.701,1.3v0.9L54.4,8.6H66l0.201-0.1C66.3,8.4,66.4,8.3,66.5,8.3h1.4
			l0.301,0.3H68.9l0.301-0.2c0.299,0,0.799,0,1.5,0.1V8.4C70.8,8.3,70.9,8.2,71,8.2h1C72.1,8.2,72.201,8.2,72.3,8.3z"/>
	</defs>
	<clipPath id="SVGID_3_">
		<use xlink:href="#SVGID_2_"  overflow="visible"/>
	</clipPath>
	<path clip-path="url(#SVGID_3_)" fill="#1A5AC1" d="M-9.345,9.712L6.106,6.197l7.757,0.741l11.038-5.234l8.64,0.378l2.963,2.901
		l3.596,6.249l1.322,2.518c0,0,1.515-4.604,3.535-3.974c2.017,0.631,0.381,3.685,0.381,3.685l5.887,8.876l3.043,0.356
		c0,0-0.861,2.094-2.248,3.228c-1.388,1.137-2.662,1.83-3.099,1.896c-0.433,0.062-3.335-0.442-3.523-0.508
		c-0.188-0.063-3.533-3.531-3.533-3.531l-5.233-2.144l-2.46,0.347l-17.595-4.888c0,0-6.753,9.239-7.384,7.283
		c-0.07-0.217-5.671,0.978-6.049,1.229c-0.378,0.254-6.18,1.261-6.18,1.261l-4.667-2.079L-9.345,9.712z"/>
	
		<path clip-path="url(#SVGID_3_)" fill="none" stroke="#FFFFFF" stroke-width="0.75" stroke-linecap="round" stroke-linejoin="round" stroke-miterlimit="10" d="
		M56.306,11.138c0,0,1.366-4.981,4.037-4.918c2.035,0.048,3.364,1.682,3.682,3.587c0,0,0.671-2.283,2.381-1.889
		c0.886,0.204,2.2,2.761,2.2,2.761s3.11-2.951,4.015-0.523c0,0-0.285-2-4-3.095c-1.636-0.482-0.891-1.912-1.785-2.048
		c-1.077-0.163-0.746,0.344-2.969,3.81"/>
	<linearGradient id="SVGID_4_" gradientUnits="userSpaceOnUse" x1="3.4111" y1="14.6509" x2="44.8062" y2="14.6509">
		<stop  offset="0" style="stop-color:#A9D0FF"/>
		<stop  offset="0.1986" style="stop-color:#A7CBFF"/>
		<stop  offset="0.4411" style="stop-color:#A1BCFF"/>
		<stop  offset="0.7063" style="stop-color:#97A3FF"/>
		<stop  offset="0.9861" style="stop-color:#8981FF"/>
		<stop  offset="1" style="stop-color:#887FFF"/>
	</linearGradient>
	<path clip-path="url(#SVGID_3_)" fill="url(#SVGID_4_)" d="M4.779,16.501c0,0-0.056,2.226,1.173,3.645
		c1.23,1.419,2.554-0.757,2.554-0.757l4.228-0.556c0,0,2.458-0.708,2.962-2.376c0.155-0.512,6.622-1.798,6.622-1.798
		s-1.23,1.893-0.473,3.594c0.757,1.706,3.973,1.61,5.297,0.948c1.324-0.663,1.892-2.46,4.541-1.042
		c2.649,1.419,5.866,3.312,5.866,3.312s2.068,0.08,2.256-0.771c0.19-0.85,1.276,0.925,2.506,0.07
		c1.229-0.849,1.929-2.658,2.403-3.415c0.473-0.756-1.039-6.146-1.039-6.146s1.54,3.569,0.541,1.641
		c-1.288-2.49-4.472-5.359-7.305,0.095c-1.897,3.653-3.226,0.711-3.226,0.711s-4.276,1.752-6.546,0.522
		c-2.27-1.229-4.253-2.922-6.24-3.018c-1.987-0.095-4.824-0.568-5.582,0.095c-0.757,0.661-1.273-2.878-2.125-3.363
		c-0.852-0.485-9.464,1.937-9.748,3.451C3.161,12.857,4.779,16.501,4.779,16.501z"/>
	
		<path clip-path="url(#SVGID_3_)" fill="none" stroke="#FFFFFF" stroke-linecap="round" stroke-linejoin="round" stroke-miterlimit="10" d="
		M32.962,17.625c0,0,1.032-2.227,1.862-5.954c0.42-1.889,1.917-5.896,5.194-5.834c3.224,0.062,4.946,3.569,5.195,6.063
		c0,0,1.517-2.949,5.501-2.632c1.437,0.114,4.134,1.881,6.026,3.618c0,0-0.996-2.957-2.563-4.964
		c-0.58-0.743-1.469-2.751-4.838-2.766c-2.037-0.009-3.968,3.268-5.143,6.806"/>
	<path clip-path="url(#SVGID_3_)" fill="#A2CAFF" d="M47.288,13.027c1.41,0.993,0.496,6.445,0.496,6.445s1.515,3.145-1.249,4.667
		c-5.549,3.061-9.43-5.401-9.43-5.401s4.056,2.923,6.086,0.705C45.156,17.299,45.313,11.636,47.288,13.027z"/>
	<path clip-path="url(#SVGID_3_)" fill="#AFCDFF" d="M7.95,2.524c0,0-3.964,2.536-6.062,1.36C-0.208,2.71-4.848,1.12-4.848,1.12
		s-4.757,6.972-4.87,7.213C-9.832,8.58-5.72,16.179-5.72,16.179l8.255-1.669L7.95,2.524z"/>
	<path clip-path="url(#SVGID_3_)" fill="#E9EDFF" d="M4.014,12.446c0,0-3.176-1.362-5.573-1.542
		c-2.396-0.179-6.793-1.589-6.793-1.589s-1.366,8.329-1.366,8.595c0,0.271,6.938,5.422,6.938,5.422l6.776-4.999L4.014,12.446z"/>
	<linearGradient id="SVGID_5_" gradientUnits="userSpaceOnUse" x1="48.2417" y1="12.3047" x2="48.2417" y2="6.7842">
		<stop  offset="0" style="stop-color:#158CFF"/>
		<stop  offset="0.6989" style="stop-color:#FFFFFF"/>
	</linearGradient>
	<path clip-path="url(#SVGID_3_)" fill="url(#SVGID_5_)" d="M43.397,11.49c0,0,1.918-5.056,5.722-4.687
		c2.819,0.274,3.969,5.501,3.969,5.501L43.397,11.49z"/>
	<path clip-path="url(#SVGID_3_)" fill="#FFFFFF" d="M21.189,21.55c0,0-2.474-4.864-3.571-2.729
		c-0.745,1.447,1.296,4.872,1.296,4.872s2.182,10.52,2.34,10.625c0.157,0.104,7.007-3.655,7.007-3.655l-2.511-9.139L21.189,21.55z"
		/>
	<path clip-path="url(#SVGID_3_)" fill="#A4BAFF" d="M3.148,10.628C3.527,11.006,9.35,8.675,9.35,8.675s-0.81,2.047-0.052,3.75
		c0.756,1.703,3.973,1.607,5.297,0.946c1.325-0.663,1.893-2.459,4.542-1.041c1.011,0.542,1.785-4.321,3.071,1.701
		c0.71,3.323,2.794,1.61,2.794,1.61s3.349-0.779,3.537-1.63c0.19-0.852-0.774-1.178,0.456-2.029c1.23-0.851,0.219-2.251-0.076-3.094
		C27.288,4.222,26.5,2.235,26.5,2.235s5.471,0.695,2.917-1.008s-3.472-5.016-6.5-0.854S18.392,4.79,18.392,4.79
		s-1.463,1.945-4.346,1.275C11.532,5.48,10.337,5.424,8.352,5.33C6.365,5.235,3.527,4.762,2.77,5.424
		C2.013,6.087-0.542,7.151-1.393,6.666c-0.852-0.484,2.488,0.827,2.204,2.34C0.527,10.52,2.77,10.249,3.148,10.628z"/>
	<path clip-path="url(#SVGID_3_)" fill="#E9EDFF" d="M27.723,8.568c0,0-6.689-3.215,0.094-2.859
		c2.399,0.126-16.792-2.88-16.792-2.88S9.387,8.202,9.387,8.469c0,0.135,4.792-0.776,7.069,0.455c2.277,1.23,2.04,4.602,2.04,4.602
		L23.335,6.6l2.597-0.747L27.723,8.568z"/>
	<path clip-path="url(#SVGID_3_)" fill="#FFFFFF" d="M0.035,11.515c0,0-2.561,1.452-2.118,3.069c0.443,1.617,1.834,4.298,2.28,3.26
		s1.056-4.165,1.505-5.196c0.41-0.937,1.355-3.75,4.381-2.509c0.971,0.398,2.871,1.719,2.871,1.719s1.34-5.768,7.062-6.468
		c0,0-5.143,3.458-5.745,6.785c-0.977,5.406,5.665,6.82,5.665,6.82l1.223-1.117l-0.781,2.033l-8.967,3.462
		c0,0,2.514-3.08,1.98-5.881c-0.43-2.257-1.312-3.789-1.312-3.789s-2.623-3.789-4.625-0.791c-1.473,2.207-1.871,6.236-1.871,6.236
		l1.929,1.732l4.007,2.87l0.963,1.833c0,0-2.041-0.148-4.442-1.722c-2.4-1.576-2.818-2.312-2.818-2.312s-1.563,1.273-0.215,4.256
		c1.346,2.981-1.213,3.784-1.31,3.501c-0.097-0.284-2.388-5.31-0.913-7.458c1.476-2.146-0.701-1.879-2.524-6.079
		c-1.823-4.2-1.581-7.572,0.624-6.269C-0.911,10.803,0.035,11.515,0.035,11.515z"/>
	<linearGradient id="SVGID_6_" gradientUnits="userSpaceOnUse" x1="22.9722" y1="32.5215" x2="22.9722" y2="25.5088">
		<stop  offset="0" style="stop-color:#158CFF"/>
		<stop  offset="0.6989" style="stop-color:#FFFFFF"/>
	</linearGradient>
	<path clip-path="url(#SVGID_3_)" fill="url(#SVGID_6_)" d="M16.256,31.34c0,0,2.443-6.149,6.283-5.818c3.838,0.331,7.149,7,7.149,7
		L16.256,31.34z"/>
	<path clip-path="url(#SVGID_3_)" fill="#B3B3FF" d="M19.768,12.46c0,0,6.685-1.401,8.813-0.809s0.835-1.838,0.23-3.226
		c-1.194-2.738-0.804-4.646-3.478-4.218C23.653,4.477,20.567,9.3,19.768,12.46z"/>
	<path clip-path="url(#SVGID_3_)" fill="#FFFFFF" d="M16.427,7.591c-2.378,0.886-1.802,4.892-1.024,6.058
		c2.361,3.541,4.991,2.273,5.372,1.651c0.935-1.528,0.102-0.34,1.778-3.549c1.064-2.04,2.234-6.541,5.035-6.361
		c1.854,0.118,3.122,3.108,4.442,6.434c0.517,1.301,0.225,3.01,1.225,4.885C33.82,17.77,32.671,18,32.671,18
		s-0.246,0.908-1.543-5.29c-0.707-3.377-2.293-6.096-4.003-5.978c-2.698,0.188-4.906,8.13-4.906,8.13s-0.339,2.141-3.275,1.897
		c-6.183-0.514-5.114-7.765-5.114-7.765l2.728-1.843L16.427,7.591z"/>
	<path clip-path="url(#SVGID_3_)" fill="#FFFFFF" d="M35.678,15.411c0.267-1.875,1.316-5.153,4.149-5.738
		c2.217-0.458,3.726,2.085,3.726,2.085s-0.037-0.834,0.26-1.708c0.343-1.01,1.03-2.023,1.019-1.042
		c-0.021,2.346,1.512,9.338-0.58,11.193c-3.961,3.518-8.265-3.13-8.265-3.13s3.855,1.867,5.788,0.664
		c1.824-1.137,2.016-4.46,2.016-4.46s-2.584-4.585-5.455-1.85c-1.845,1.755-2.562,5.646-2.562,5.646L35.678,15.411z"/>
	<path clip-path="url(#SVGID_3_)" fill="#FFFFFF" d="M48.764,18.064c0.221,2.56-0.295,5.041-1.348,6.051
		c-0.394,0.38-1.257,1.149-2.978,1.132c-1.632-0.016-3.418-1.222-3.418-1.222s-0.009-0.115-1.705-1.111
		c-1.206-0.71,0.343-0.612,0.343-0.612s4.502,3.926,7.309,0.703c1.805-2.065,0.592-6.479,0.592-6.479L48.764,18.064z"/>
	<path clip-path="url(#SVGID_3_)" fill="#A089F4" d="M23.937,5.188"/>
	
		<linearGradient id="SVGID_7_" gradientUnits="userSpaceOnUse" x1="77.3315" y1="11.2012" x2="77.3315" y2="7.3594" gradientTransform="matrix(0.997 -0.0776 0.0776 0.997 -0.4377 5.3319)">
		<stop  offset="0" style="stop-color:#158CFF"/>
		<stop  offset="0.6989" style="stop-color:#FFFFFF"/>
	</linearGradient>
	<path clip-path="url(#SVGID_3_)" fill="url(#SVGID_7_)" d="M73.812,10.14c0,0,1.074-3.462,3.185-3.445
		c2.112,0.018,4.202,3.52,4.202,3.52L73.812,10.14z"/>
	<path clip-path="url(#SVGID_3_)" fill="#FFFFFF" d="M31.294,5.336c1.271-2.296,3.718-4.552,4.911-4.611
		c0.563-0.026,3.047-0.187,4.19,0.813c1.27,1.111,1.444,2.807,1.444,2.807s-0.056,0.103,0.825,1.926
		c0.632,1.298-1.49-0.571-1.49-0.571s-0.513-4.462-4.758-3.353c-2.725,0.71-5.314,4.981-5.314,4.981L31.294,5.336z"/>
</g>
</svg>
