<?xml version="1.0" encoding="utf-8"?>
<!-- Generator: Adobe Illustrator 16.0.0, SVG Export Plug-In . SVG Version: 6.00 Build 0)  -->
<!DOCTYPE svg PUBLIC "-//W3C//DTD SVG 1.0//EN" "http://www.w3.org/TR/2001/REC-SVG-20010904/DTD/svg10.dtd">
<svg version="1.0" id="图层_1" xmlns="http://www.w3.org/2000/svg" xmlns:xlink="http://www.w3.org/1999/xlink" x="0px" y="0px"
	 width="75.8px" height="32px" viewBox="0 0 75.8 32" enable-background="new 0 0 75.8 32" xml:space="preserve">
<g id="Selected_Items">
	<g>
		<g id="Selected_Items_2_">
			
				<linearGradient id="SVGID_1_" gradientUnits="userSpaceOnUse" x1="375.5601" y1="-262.9063" x2="450.3125" y2="-262.9063" gradientTransform="matrix(1 0 0 -1 -374.96 -246.5996)">
				<stop  offset="0" style="stop-color:#8F00DB"/>
				<stop  offset="0.6452" style="stop-color:#77B9FF"/>
				<stop  offset="1" style="stop-color:#B6CAFF"/>
			</linearGradient>
			<path fill="url(#SVGID_1_)" d="M37.1,14.3c-0.1,0.1-0.1,0.1-0.2,0.2c-0.2,0.2-0.3,0.5-0.3,0.8c0,0.1,0,0.4,0.1,0.8
				c0,0.1,0,0.2-0.1,0.2c-0.1,0.1-0.4,0.1-0.8,0h-0.5c0,0.3-0.1,0.4-0.2,0.4h-0.9c-0.1,0-0.2,0-0.3,0.1C33.8,16.9,33.8,17,33.7,17
				c-0.2,0.2-0.8,1.3-1.8,3.4c-0.3,0.5-0.3,0.899-0.1,1.199c0.1,0.301,0.3,0.4,0.6,0.5c0.5,0.101,1.3,0.101,2.5,0
				c0.9-0.1,1.6-0.3,2.1-0.699c0.3-0.301,1.6-2.2,3.701-5.601c0.1-0.2,0-0.7-0.5-1.5H37.1L37.1,14.3z M72.3,8.3c0.1,0,0.199,0,0.5,0
				c0.1,0,0.3-0.1,0.5-0.2h1.8l0.2,0.3C75.4,8.7,75.5,9,75.5,9.3c0,0.3,0,0.6-0.199,0.9c-0.1,0.2-0.2,0.3-0.301,0.3H73.3
				c0,0-0.2-0.1-0.301-0.1c-0.1,0-0.199,0-0.299,0c-0.201,0-0.301,0-0.5,0.1H72h-1L70.8,10.4h-1.6L69,10.2h-0.799
				c0,0.2-0.201,0.3-0.301,0.3h-1.5c-0.1,0-0.199,0-0.3-0.1L66,10.3l-10.799,0.3L54.6,11.2h-0.3L54.1,11h-0.3l-0.1,0.2H51.5
				l-0.299,2.3c0,0.3-0.201,0.4-0.5,0.5L51,14.3l0.601,0.1c0.399,0.1,0.601,0.2,0.601,0.5C52,15.7,52,16.3,52.1,16.7
				c0.101,0.3,0.101,0.8,0,1.7c0,1,0,1.699,0,1.899c0,0.8,0.3,1.601,0.899,2.5c0.101,0.2-0.1,0.3-0.5,0.5
				C52,23.5,51.6,23.6,51.1,23.6c-0.399,0-1-0.1-1.7-0.3L48.3,23c0-1.1,0-2.1,0.199-3c0.101-0.3,0.201-1,0.5-1.8
				c0.201-0.601,0.301-1,0.201-1.3c0-0.301-0.101-0.601-0.301-0.9c-0.199-0.3-0.3-0.6-0.3-0.7c-0.101-0.2,0.101-0.4,0.601-0.7
				c0.199-0.1,0.399-0.2,0.699-0.3c-0.9,0-1.8-0.1-2.8-0.1c-1.899-0.1-3,0-3.3,0.1c-0.7,0.5-1.7,1.5-2.801,3.2
				c-0.299,0.3-1.1,1.5-2.399,3.6C38.1,21.9,37.5,22.4,37,22.7c-0.4,0.2-1.1,0.3-2.1,0.399c-0.8,0-2.1,0.101-3.7,0.2
				c-1.4,0-2.3,0-2.6,0c-0.2,0-0.4-0.1-0.5-0.2C28,22.9,28,22.7,28,22.3c0.1-1.1,0.2-1.8,0.4-2.3c0.1-0.2,0.3-0.7,0.7-1.3
				c0.4-0.7,0.6-1.101,0.8-1.2c0.1-0.1,0.3-0.3,0.8-0.7c0.4-0.5,0.6-1,0.6-1.6c0-0.7-0.3-1.1-0.9-1.3c-0.3,0-1,0-2.1,0.1
				c-1.1,0-1.8,0.1-2.3,0.1c-0.8,0.1-1.2,0.2-1.3,0.4c-0.2,0.3-0.6,0.5-1.1,0.7L23.5,16.6c0.1,1.4,0.5,3.2,1.2,5.4
				c1,3.5,1.9,5.9,2.7,6.9c0.3,0.5,0.3,0.8-0.1,1c-0.3,0.1-1.2,0.399-2.7,1c-1.6,0.6-2.5,0.899-2.8,1c-0.3,0.1-0.4-0.4-0.4-1.4
				c-0.2-0.4-0.5-1-0.9-1.8c-0.6-1.7-1.2-3.4-1.7-5.4c-0.4-1.899-0.8-3.8-1-5.5l-0.1-2.1c-0.5-0.2-0.9-0.2-1.1,0L14.9,17.1
				c-0.1,0.101-0.2,0-0.4-0.199c-0.2-0.2-0.3-0.301-0.3-0.301c-0.6,0.2-1.5,0.7-2.7,1.5c-1.4,1-2.1,1.7-2.3,2.301L8.9,21.3l0.4,0.5
				c0.3,0.3,0.4,0.5,0.4,0.601c0,0.3-0.1,0.6-0.3,0.8c-0.2,0.2-0.4,0.3-0.7,0.3H4.3c-0.3,0-0.6-0.1-0.8-0.3
				c-0.3-0.3-0.6-0.7-0.8-1.2c-0.2-0.7-0.6-2.3-1.2-4.8c-0.6-2.7-0.9-4.3-0.9-4.9c0-0.6,0-1.1,0.1-1.3c0.1-0.2,0.2-0.4,0.5-0.7
				c0.3-0.3,0.6-0.6,1.2-1C3,8.9,3.5,8.7,3.8,8.7l23.6-0.5V7.5L28,7c0.4-0.3,0.7-0.5,0.9-0.6c0.3-0.1,0.6-0.2,1.1-0.2h1.4V4.4h-0.6
				c0,0.3-0.2,0.4-0.6,0.4c-0.2,0-0.4-0.1-0.5-0.2l-0.1-0.2h-1.3l-0.2,0.2h-0.4c-0.2-0.3-0.3-0.9-0.3-1.6c0-0.8,0.1-1.2,0.3-1.2H28
				l0.2,0.1h1.3l0.1-0.3c0.1-0.1,0.3-0.2,0.5-0.2c0.3,0,0.5,0.1,0.5,0.5H31V1.1L31.7,1c0.2,0,0.5,0,0.8,0.1v0.4l3-0.4
				c2-0.3,3.201-0.4,3.6-0.4h1.2l0.5,0.4h0.5V0.8h0.4V1H42.5v3.7h-0.799v0.2h-0.4V4.6h-1.9L39.701,5h0.5c0.399,0.1,0.5,0.1,0.6,0.3
				L41,6h1.201V5.9h0.6V6H44V5.9H44.6V6h1.3V5.9h0.5V6h1.301V5.9h0.5V6H49.5V5.9H50V6h1l2.701,1.3v0.9L54.4,8.6H66l0.201-0.1
				C66.3,8.4,66.4,8.3,66.5,8.3h1.4l0.301,0.3H68.9l0.301-0.2c0.299,0,0.799,0,1.5,0.1V8.4C70.8,8.3,70.9,8.2,71,8.2h1
				C72.1,8.2,72.201,8.2,72.3,8.3z"/>
		</g>
	</g>
</g>
<linearGradient id="SVGID_2_" gradientUnits="userSpaceOnUse" x1="-178.6074" y1="-314.4766" x2="-172.2398" y2="-314.4766" gradientTransform="matrix(6.6522 0 0 6.6522 1189.0342 2105.012)">
	<stop  offset="0" style="stop-color:#C216FF"/>
	<stop  offset="0.6452" style="stop-color:#77B9FF"/>
	<stop  offset="1" style="stop-color:#B6CAFF"/>
</linearGradient>
<path fill="url(#SVGID_2_)" fill-opacity="0.5" d="M2.4,20.3c0,0,7.8-3.1,9.6-5.2c0,0-4.8,1.2-8.1-0.7c0,0,5.1,1.4,9.1-1.5
	c0,0-5.6,1.5-8.2-1.2c0,0,1.8,1.2,5.8,0.6c2.6-0.4,6.4-0.9,9.7-1.8c5.4-0.9,15.2-1.9,21.401,3.3c0,0-1.601-4.2-10.901-5.7
	c0,0,7.901-0.9,12.401,2c0,0-3.801-4.1-10.601-4.3h-1.2l-0.1,0.4l-3.8,1.6L22.1,8h-3.9h-1.1h-1.3L4.5,8.2L1.7,9.4l-0.8,4.1L2.4,20.3
	z"/>
</svg>
