<?xml version="1.0" encoding="utf-8"?>
<!-- Generator: Adobe Illustrator 16.0.0, SVG Export Plug-In . SVG Version: 6.00 Build 0)  -->
<!DOCTYPE svg PUBLIC "-//W3C//DTD SVG 1.0//EN" "http://www.w3.org/TR/2001/REC-SVG-20010904/DTD/svg10.dtd">
<svg version="1.0" id="图层_1" xmlns="http://www.w3.org/2000/svg" xmlns:xlink="http://www.w3.org/1999/xlink" x="0px" y="0px"
	 width="75.8px" height="32px" viewBox="0 0 75.8 32" enable-background="new 0 0 75.8 32" xml:space="preserve">
<path opacity="0.7" fill="#CE0B4C" enable-background="new    " d="M47.599,10.997c0,0-4.299,0.8-7.699,5.6c0,0,2.9,1.3,1.9,2.101
	s-5.4-0.399-13,7.199c0,0,3.1-1.398,7.299-1.699c4.201-0.301-1.1,2.5-2.299,3.199c0,0,7.799-3.898,10-3.6
	c2.199,0.299-7.801,6-12.1,8c0,0,13.1-4.3,14.6-4.1c1.5,0.199-0.801,2.6-4.4,4.1c0,0,7.5,0,12.5-2.3s6-2.601,6-1.3
	c0,0,4.398-2.801,3.1-3.801s3.301-2.301,6.4-4.601s4.398-3.8,4.398-3.8s-7.498,3.301-9.799,3.4c-2.299,0.101,1.5-3.1,5.6-4.899
	c4.102-1.8,5.4-5.1,5.4-5.1s-5.6,0.2-12.799,3.8c-7.201,3.6-8,4.8-7.4,2.6s7.199-5.3,7.199-5.3s-9.199,0.2-13.4,3.5
	c-4.199,3.3-3-0.8-2.1-1.6C47.9,11.597,47.599,10.997,47.599,10.997z"/>
<g id="Selected_Items">
	<g>
		<g id="Selected_Items_1_">
			
				<linearGradient id="SVGID_1_" gradientUnits="userSpaceOnUse" x1="1125.48" y1="-825.1055" x2="1200.2314" y2="-825.1055" gradientTransform="matrix(1 0 0 -1 -1124.8799 -808.7988)">
				<stop  offset="0" style="stop-color:#FF2F7D"/>
				<stop  offset="1" style="stop-color:#FF8053"/>
			</linearGradient>
			<path fill="url(#SVGID_1_)" d="M37.1,14.3c-0.1,0.1-0.1,0.1-0.2,0.2c-0.2,0.2-0.3,0.5-0.3,0.8c0,0.1,0,0.4,0.1,0.8
				c0,0.1,0,0.2-0.1,0.2c-0.1,0.1-0.4,0.1-0.8,0h-0.5c0,0.3-0.1,0.4-0.2,0.4h-0.9c-0.1,0-0.2,0-0.3,0.1C33.8,16.9,33.8,17,33.7,17
				c-0.2,0.2-0.8,1.3-1.8,3.4c-0.3,0.5-0.3,0.899-0.1,1.199c0.1,0.301,0.3,0.4,0.6,0.5c0.5,0.101,1.3,0.101,2.5,0
				c0.9-0.1,1.6-0.3,2.1-0.699c0.3-0.301,1.6-2.2,3.701-5.601c0.1-0.2,0-0.7-0.5-1.5H37.1L37.1,14.3z M72.3,8.3c0.1,0,0.199,0,0.5,0
				c0.1,0,0.3-0.1,0.5-0.2h1.8l0.2,0.3C75.4,8.7,75.5,9,75.5,9.3c0,0.3,0,0.6-0.199,0.9c-0.1,0.2-0.2,0.3-0.301,0.3H73.3
				c0,0-0.2-0.1-0.301-0.1c-0.1,0-0.199,0-0.299,0c-0.201,0-0.301,0-0.5,0.1H72h-1L70.8,10.4h-1.6L69,10.2h-0.799
				c0,0.2-0.201,0.3-0.301,0.3h-1.5c-0.1,0-0.199,0-0.3-0.1L66,10.3l-10.799,0.3L54.6,11.2h-0.3L54.1,11h-0.3l-0.1,0.2H51.5
				l-0.299,2.3c0,0.3-0.201,0.4-0.5,0.5L51,14.3l0.601,0.1c0.399,0.1,0.601,0.2,0.601,0.5C52,15.7,52,16.3,52.1,16.7
				c0.101,0.3,0.101,0.8,0,1.7c0,1,0,1.699,0,1.899c0,0.8,0.3,1.601,0.899,2.5c0.101,0.2-0.1,0.3-0.5,0.5
				C52,23.5,51.6,23.6,51.1,23.6c-0.399,0-1-0.1-1.7-0.3L48.3,23c0-1.1,0-2.1,0.199-3c0.101-0.3,0.201-1,0.5-1.8
				c0.201-0.601,0.301-1,0.201-1.3c0-0.301-0.101-0.601-0.301-0.9c-0.199-0.3-0.3-0.6-0.3-0.7c-0.101-0.2,0.101-0.4,0.601-0.7
				c0.199-0.1,0.399-0.2,0.699-0.3c-0.9,0-1.8-0.1-2.8-0.1c-1.899-0.1-3,0-3.3,0.1c-0.7,0.5-1.7,1.5-2.801,3.2
				c-0.299,0.3-1.1,1.5-2.399,3.6C38.1,21.9,37.5,22.4,37,22.7c-0.4,0.2-1.1,0.3-2.1,0.399c-0.8,0-2.1,0.101-3.7,0.2
				c-1.4,0-2.3,0-2.6,0c-0.2,0-0.4-0.1-0.5-0.2C28,22.9,28,22.7,28,22.3c0.1-1.1,0.2-1.8,0.4-2.3c0.1-0.2,0.3-0.7,0.7-1.3
				c0.4-0.7,0.6-1.101,0.8-1.2c0.1-0.1,0.3-0.3,0.8-0.7c0.4-0.5,0.6-1,0.6-1.6c0-0.7-0.3-1.1-0.9-1.3c-0.3,0-1,0-2.1,0.1
				c-1.1,0-1.8,0.1-2.3,0.1c-0.8,0.1-1.2,0.2-1.3,0.4c-0.2,0.3-0.6,0.5-1.1,0.7L23.5,16.6c0.1,1.4,0.5,3.2,1.2,5.4
				c1,3.5,1.9,5.9,2.7,6.9c0.3,0.5,0.3,0.8-0.1,1c-0.3,0.1-1.2,0.399-2.7,1c-1.6,0.6-2.5,0.899-2.8,1c-0.3,0.1-0.4-0.4-0.4-1.4
				c-0.2-0.4-0.5-1-0.9-1.8c-0.6-1.7-1.2-3.4-1.7-5.4c-0.4-1.899-0.8-3.8-1-5.5l-0.1-2.1c-0.5-0.2-0.9-0.2-1.1,0L14.9,17.1
				c-0.1,0.101-0.2,0-0.4-0.199c-0.2-0.2-0.3-0.301-0.3-0.301c-0.6,0.2-1.5,0.7-2.7,1.5c-1.4,1-2.1,1.7-2.3,2.301L8.9,21.3l0.4,0.5
				c0.3,0.3,0.4,0.5,0.4,0.601c0,0.3-0.1,0.6-0.3,0.8c-0.2,0.2-0.4,0.3-0.7,0.3H4.3c-0.3,0-0.6-0.1-0.8-0.3
				c-0.3-0.3-0.6-0.7-0.8-1.2c-0.2-0.7-0.6-2.3-1.2-4.8c-0.6-2.7-0.9-4.3-0.9-4.9c0-0.6,0-1.1,0.1-1.3c0.1-0.2,0.2-0.4,0.5-0.7
				c0.3-0.3,0.6-0.6,1.2-1C3,8.9,3.5,8.7,3.8,8.7l23.6-0.5V7.5L28,7c0.4-0.3,0.7-0.5,0.9-0.6c0.3-0.1,0.6-0.2,1.1-0.2h1.4V4.4h-0.6
				c0,0.3-0.2,0.4-0.6,0.4c-0.2,0-0.4-0.1-0.5-0.2l-0.1-0.2h-1.3l-0.2,0.2h-0.4c-0.2-0.3-0.3-0.9-0.3-1.6c0-0.8,0.1-1.2,0.3-1.2H28
				l0.2,0.1h1.3l0.1-0.3c0.1-0.1,0.3-0.2,0.5-0.2c0.3,0,0.5,0.1,0.5,0.5H31V1.1L31.7,1c0.2,0,0.5,0,0.8,0.1v0.4l3-0.4
				c2-0.3,3.201-0.4,3.6-0.4h1.2l0.5,0.4h0.5V0.8h0.4V1H42.5v3.7h-0.799v0.2h-0.4V4.6h-1.9L39.701,5h0.5c0.399,0.1,0.5,0.1,0.6,0.3
				L41,6h1.201V5.9h0.6V6H44V5.9H44.6V6h1.3V5.9h0.5V6h1.301V5.9h0.5V6H49.5V5.9H50V6h1l2.701,1.3v0.9L54.4,8.6H66l0.201-0.1
				C66.3,8.4,66.4,8.3,66.5,8.3h1.4l0.301,0.3H68.9l0.301-0.2c0.299,0,0.799,0,1.5,0.1V8.4C70.8,8.3,70.9,8.2,71,8.2h1
				C72.1,8.2,72.201,8.2,72.3,8.3z"/>
		</g>
	</g>
</g>
<g>
	<g>
		<defs>
			<path id="SVGID_2_" d="M37.1,14.3c-0.1,0.1-0.1,0.1-0.2,0.2c-0.2,0.2-0.3,0.5-0.3,0.8c0,0.1,0,0.4,0.1,0.8c0,0.1,0,0.2-0.1,0.2
				c-0.1,0.1-0.4,0.1-0.8,0h-0.5c0,0.3-0.1,0.4-0.2,0.4h-0.9c-0.1,0-0.2,0-0.3,0.1C33.8,16.9,33.8,17,33.7,17
				c-0.2,0.2-0.8,1.3-1.8,3.4c-0.3,0.5-0.3,0.899-0.1,1.199c0.1,0.301,0.3,0.4,0.6,0.5c0.5,0.101,1.3,0.101,2.5,0
				c0.9-0.1,1.6-0.3,2.1-0.699c0.3-0.301,1.6-2.2,3.701-5.601c0.1-0.2,0-0.7-0.5-1.5H37.1L37.1,14.3z M72.3,8.3c0.1,0,0.199,0,0.5,0
				c0.1,0,0.3-0.1,0.5-0.2h1.8l0.2,0.3C75.4,8.7,75.5,9,75.5,9.3c0,0.3,0,0.6-0.199,0.9c-0.1,0.2-0.2,0.3-0.301,0.3H73.3
				c0,0-0.2-0.1-0.301-0.1c-0.1,0-0.199,0-0.299,0c-0.201,0-0.301,0-0.5,0.1H72h-1L70.8,10.4h-1.6L69,10.2h-0.799
				c0,0.2-0.201,0.3-0.301,0.3h-1.5c-0.1,0-0.199,0-0.3-0.1L66,10.3l-10.799,0.3L54.6,11.2h-0.3L54.1,11h-0.3l-0.1,0.2H51.5
				l-0.299,2.3c0,0.3-0.201,0.4-0.5,0.5L51,14.3l0.601,0.1c0.399,0.1,0.601,0.2,0.601,0.5C52,15.7,52,16.3,52.1,16.7
				c0.101,0.3,0.101,0.8,0,1.7c0,1,0,1.699,0,1.899c0,0.8,0.3,1.601,0.899,2.5c0.101,0.2-0.1,0.3-0.5,0.5
				C52,23.5,51.6,23.6,51.1,23.6c-0.399,0-1-0.1-1.7-0.3L48.3,23c0-1.1,0-2.1,0.199-3c0.101-0.3,0.201-1,0.5-1.8
				c0.201-0.601,0.301-1,0.201-1.3c0-0.301-0.101-0.601-0.301-0.9c-0.199-0.3-0.3-0.6-0.3-0.7c-0.101-0.2,0.101-0.4,0.601-0.7
				c0.199-0.1,0.399-0.2,0.699-0.3c-0.9,0-1.8-0.1-2.8-0.1c-1.899-0.1-3,0-3.3,0.1c-0.7,0.5-1.7,1.5-2.801,3.2
				c-0.299,0.3-1.1,1.5-2.399,3.6C38.1,21.9,37.5,22.4,37,22.7c-0.4,0.2-1.1,0.3-2.1,0.399c-0.8,0-2.1,0.101-3.7,0.2
				c-1.4,0-2.3,0-2.6,0c-0.2,0-0.4-0.1-0.5-0.2C28,22.9,28,22.7,28,22.3c0.1-1.1,0.2-1.8,0.4-2.3c0.1-0.2,0.3-0.7,0.7-1.3
				c0.4-0.7,0.6-1.101,0.8-1.2c0.1-0.1,0.3-0.3,0.8-0.7c0.4-0.5,0.6-1,0.6-1.6c0-0.7-0.3-1.1-0.9-1.3c-0.3,0-1,0-2.1,0.1
				c-1.1,0-1.8,0.1-2.3,0.1c-0.8,0.1-1.2,0.2-1.3,0.4c-0.2,0.3-0.6,0.5-1.1,0.7L23.5,16.6c0.1,1.4,0.5,3.2,1.2,5.4
				c1,3.5,1.9,5.9,2.7,6.9c0.3,0.5,0.3,0.8-0.1,1c-0.3,0.1-1.2,0.399-2.7,1c-1.6,0.6-2.5,0.899-2.8,1c-0.3,0.1-0.4-0.4-0.4-1.4
				c-0.2-0.4-0.5-1-0.9-1.8c-0.6-1.7-1.2-3.4-1.7-5.4c-0.4-1.899-0.8-3.8-1-5.5l-0.1-2.1c-0.5-0.2-0.9-0.2-1.1,0L14.9,17.1
				c-0.1,0.101-0.2,0-0.4-0.199c-0.2-0.2-0.3-0.301-0.3-0.301c-0.6,0.2-1.5,0.7-2.7,1.5c-1.4,1-2.1,1.7-2.3,2.301L8.9,21.3l0.4,0.5
				c0.3,0.3,0.4,0.5,0.4,0.601c0,0.3-0.1,0.6-0.3,0.8c-0.2,0.2-0.4,0.3-0.7,0.3H4.3c-0.3,0-0.6-0.1-0.8-0.3
				c-0.3-0.3-0.6-0.7-0.8-1.2c-0.2-0.7-0.6-2.3-1.2-4.8c-0.6-2.7-0.9-4.3-0.9-4.9c0-0.6,0-1.1,0.1-1.3c0.1-0.2,0.2-0.4,0.5-0.7
				c0.3-0.3,0.6-0.6,1.2-1C3,8.9,3.5,8.7,3.8,8.7l23.6-0.5V7.5L28,7c0.4-0.3,0.7-0.5,0.9-0.6c0.3-0.1,0.6-0.2,1.1-0.2h1.4V4.4h-0.6
				c0,0.3-0.2,0.4-0.6,0.4c-0.2,0-0.4-0.1-0.5-0.2l-0.1-0.2h-1.3l-0.2,0.2h-0.4c-0.2-0.3-0.3-0.9-0.3-1.6c0-0.8,0.1-1.2,0.3-1.2H28
				l0.2,0.1h1.3l0.1-0.3c0.1-0.1,0.3-0.2,0.5-0.2c0.3,0,0.5,0.1,0.5,0.5H31V1.1L31.7,1c0.2,0,0.5,0,0.8,0.1v0.4l3-0.4
				c2-0.3,3.201-0.4,3.6-0.4h1.2l0.5,0.4h0.5V0.8h0.4V1H42.5v3.7h-0.799v0.2h-0.4V4.6h-1.9L39.701,5h0.5c0.399,0.1,0.5,0.1,0.6,0.3
				L41,6h1.201V5.9h0.6V6H44V5.9H44.6V6h1.3V5.9h0.5V6h1.301V5.9h0.5V6H49.5V5.9H50V6h1l2.701,1.3v0.9L54.4,8.6H66l0.201-0.1
				C66.3,8.4,66.4,8.3,66.5,8.3h1.4l0.301,0.3H68.9l0.301-0.2c0.299,0,0.799,0,1.5,0.1V8.4C70.8,8.3,70.9,8.2,71,8.2h1
				C72.1,8.2,72.201,8.2,72.3,8.3z"/>
		</defs>
		<clipPath id="SVGID_3_">
			<use xlink:href="#SVGID_2_"  overflow="visible"/>
		</clipPath>
		<g clip-path="url(#SVGID_3_)">
			
				<linearGradient id="SVGID_4_" gradientUnits="userSpaceOnUse" x1="380.9331" y1="-266.0645" x2="414.984" y2="-257.0037" gradientTransform="matrix(1 0 0 -1 -374.96 -246.5996)">
				<stop  offset="2.054068e-007" style="stop-color:#FE6198"/>
				<stop  offset="1" style="stop-color:#FFC9D4"/>
			</linearGradient>
			<polygon fill="url(#SVGID_4_)" points="-7.7,24.6 -2.1,24.6 2.1,19 -3.5,19 			"/>
			
				<linearGradient id="SVGID_5_" gradientUnits="userSpaceOnUse" x1="380.1899" y1="-263.2705" x2="414.2437" y2="-254.209" gradientTransform="matrix(1 0 0 -1 -374.96 -246.5996)">
				<stop  offset="2.054068e-007" style="stop-color:#FE6198"/>
				<stop  offset="1" style="stop-color:#FFC9D4"/>
			</linearGradient>
			<polygon fill="url(#SVGID_5_)" points="6.3,13.4 2.1,19 7.7,19 11.9,13.4 			"/>
			
				<linearGradient id="SVGID_6_" gradientUnits="userSpaceOnUse" x1="381.6753" y1="-268.8481" x2="415.7291" y2="-259.7867" gradientTransform="matrix(1 0 0 -1 -374.96 -246.5996)">
				<stop  offset="2.054068e-007" style="stop-color:#FE6198"/>
				<stop  offset="1" style="stop-color:#FFC9D4"/>
			</linearGradient>
			<polygon fill="url(#SVGID_6_)" points="3.5,24.6 9.1,24.6 13.3,19 7.7,19 			"/>
			
				<linearGradient id="SVGID_7_" gradientUnits="userSpaceOnUse" x1="380.9351" y1="-266.0654" x2="414.9875" y2="-257.0043" gradientTransform="matrix(1 0 0 -1 -374.96 -246.5996)">
				<stop  offset="2.054068e-007" style="stop-color:#FE6198"/>
				<stop  offset="1" style="stop-color:#FFC9D4"/>
			</linearGradient>
			<polygon fill="url(#SVGID_7_)" points="13.3,19 18.9,19 23.2,13.4 17.6,13.4 			"/>
			
				<linearGradient id="SVGID_8_" gradientUnits="userSpaceOnUse" x1="378.7095" y1="-257.7051" x2="412.7623" y2="-248.6438" gradientTransform="matrix(1 0 0 -1 -374.96 -246.5996)">
				<stop  offset="2.054068e-007" style="stop-color:#FE6198"/>
				<stop  offset="1" style="stop-color:#FFC9D4"/>
			</linearGradient>
			<polygon fill="url(#SVGID_8_)" points="5,7.8 0.7,13.4 6.3,13.4 10.6,7.8 			"/>
			
				<linearGradient id="SVGID_9_" gradientUnits="userSpaceOnUse" x1="377.9575" y1="-254.876" x2="412.0099" y2="-245.8149" gradientTransform="matrix(1 0 0 -1 -374.96 -246.5996)">
				<stop  offset="2.054068e-007" style="stop-color:#FE6198"/>
				<stop  offset="1" style="stop-color:#FFC9D4"/>
			</linearGradient>
			<polygon fill="url(#SVGID_9_)" points="20.4,2.1 14.8,2.1 10.6,7.8 16.2,7.8 			"/>
			
				<linearGradient id="SVGID_10_" gradientUnits="userSpaceOnUse" x1="379.4517" y1="-260.5015" x2="413.5088" y2="-251.439" gradientTransform="matrix(1 0 0 -1 -374.96 -246.5996)">
				<stop  offset="2.054068e-007" style="stop-color:#FE6198"/>
				<stop  offset="1" style="stop-color:#FFC9D4"/>
			</linearGradient>
			<polygon fill="url(#SVGID_10_)" points="17.6,13.4 21.8,7.8 16.2,7.8 11.9,13.4 			"/>
			
				<linearGradient id="SVGID_11_" gradientUnits="userSpaceOnUse" x1="378.6978" y1="-257.6597" x2="412.7502" y2="-248.5985" gradientTransform="matrix(1 0 0 -1 -374.96 -246.5996)">
				<stop  offset="2.054068e-007" style="stop-color:#FE6198"/>
				<stop  offset="1" style="stop-color:#FFC9D4"/>
			</linearGradient>
			<polygon fill="url(#SVGID_11_)" points="31.6,2.1 26,2.1 21.8,7.8 27.4,7.8 			"/>
			
				<linearGradient id="SVGID_12_" gradientUnits="userSpaceOnUse" x1="381.6812" y1="-268.8613" x2="415.7318" y2="-259.8006" gradientTransform="matrix(1 0 0 -1 -374.96 -246.5996)">
				<stop  offset="2.054068e-007" style="stop-color:#FE6198"/>
				<stop  offset="1" style="stop-color:#FFC9D4"/>
			</linearGradient>
			<polygon fill="url(#SVGID_12_)" points="24.6,19 30.2,19 34.4,13.4 28.8,13.4 			"/>
			
				<linearGradient id="SVGID_13_" gradientUnits="userSpaceOnUse" x1="380.9351" y1="-266.0669" x2="414.9886" y2="-257.0055" gradientTransform="matrix(1 0 0 -1 -374.96 -246.5996)">
				<stop  offset="2.054068e-007" style="stop-color:#FE6198"/>
				<stop  offset="1" style="stop-color:#FFC9D4"/>
			</linearGradient>
			<polygon fill="url(#SVGID_13_)" points="34.4,13.4 40,13.4 44.201,7.8 38.6,7.8 			"/>
			
				<linearGradient id="SVGID_14_" gradientUnits="userSpaceOnUse" x1="380.1938" y1="-263.2837" x2="414.2473" y2="-254.2222" gradientTransform="matrix(1 0 0 -1 -374.96 -246.5996)">
				<stop  offset="2.054068e-007" style="stop-color:#FE6198"/>
				<stop  offset="1" style="stop-color:#FFC9D4"/>
			</linearGradient>
			<polygon fill="url(#SVGID_14_)" points="27.4,7.8 23.2,13.4 28.8,13.4 33,7.8 			"/>
			
				<linearGradient id="SVGID_15_" gradientUnits="userSpaceOnUse" x1="379.438" y1="-260.4429" x2="413.4923" y2="-251.3812" gradientTransform="matrix(1 0 0 -1 -374.96 -246.5996)">
				<stop  offset="2.054068e-007" style="stop-color:#FE6198"/>
				<stop  offset="1" style="stop-color:#FFC9D4"/>
			</linearGradient>
			<polygon fill="url(#SVGID_15_)" points="42.9,2.1 37.2,2.1 33,7.8 38.6,7.8 			"/>
			
				<linearGradient id="SVGID_16_" gradientUnits="userSpaceOnUse" x1="380.1841" y1="-263.2383" x2="414.237" y2="-254.177" gradientTransform="matrix(1 0 0 -1 -374.96 -246.5996)">
				<stop  offset="2.054068e-007" style="stop-color:#FE6198"/>
				<stop  offset="1" style="stop-color:#FFC9D4"/>
			</linearGradient>
			<polygon fill="url(#SVGID_16_)" points="48.5,2.1 44.201,7.8 49.8,7.8 54.1,2.1 			"/>
		</g>
	</g>
</g>
<g>
	<path fill="#FFF0F4" d="M41.654,22.459l-1.301,2.8h-2.699l6.199-12.3h3l1.801,12.3h-2.6l-0.301-2.8H41.654z M44.953,15.559
		l-2.1,4.5h2.6L44.953,15.559z"/>
	<path fill="#FFF0F4" d="M52.453,25.259c-0.699,0-1.299-0.2-1.699-0.7c-0.398-0.5-0.5-1.1-0.398-1.8l1.398-7.6
		c0.102-0.7,0.4-1.3,1-1.7c0.5-0.4,1.102-0.6,1.9-0.6h4c0.699,0,1.299,0.2,1.699,0.7s0.5,1.1,0.4,1.8l-0.301,1.9h-2.6l0.299-1.6
		c0-0.2,0-0.3,0-0.4c-0.1-0.1-0.199-0.1-0.398-0.1h-2.699c-0.4,0-0.701,0.2-0.801,0.7l-1.199,6.6c0,0.2,0,0.3,0,0.4
		c0.1,0.1,0.199,0.1,0.398,0.1h2.701c0.4,0,0.699-0.2,0.799-0.7l0.201-1.399h2.6l-0.5,2.1c-0.1,0.7-0.398,1.3-1,1.7
		c-0.5,0.399-1.1,0.6-1.9,0.6H52.453z"/>
	<path fill="#FFF0F4" d="M71.353,12.959l-0.4,2.3h-5.699l-0.5,2.5h4.6l-0.4,2.3h-4.6l-0.5,2.801h5.701l-0.4,2.3h-8.201l2.201-12.2
		H71.353z"/>
</g>
</svg>
