<?xml version="1.0" encoding="utf-8"?>
<!-- Generator: Adobe Illustrator 16.0.0, SVG Export Plug-In . SVG Version: 6.00 Build 0)  -->
<!DOCTYPE svg PUBLIC "-//W3C//DTD SVG 1.0//EN" "http://www.w3.org/TR/2001/REC-SVG-20010904/DTD/svg10.dtd">
<svg version="1.0" id="图层_1" xmlns="http://www.w3.org/2000/svg" xmlns:xlink="http://www.w3.org/1999/xlink" x="0px" y="0px"
	 width="109.5px" height="32px" viewBox="0 0 109.5 32" enable-background="new 0 0 109.5 32" xml:space="preserve">
<linearGradient id="SVGID_1_" gradientUnits="userSpaceOnUse" x1="749.9199" y1="577.3203" x2="859.5195" y2="577.3203" gradientTransform="matrix(1 0 0 1 -749.9199 -562.1992)">
	<stop  offset="0" style="stop-color:#FF2F7D"/>
	<stop  offset="1" style="stop-color:#FF8053"/>
</linearGradient>
<path fill="url(#SVGID_1_)" d="M109.3,11.3c0.1,0.1,0.1,0.3,0.2,0.4c0.1,0.2,0.1,0.3,0.1,0.5c0,0.3-0.2,0.6-0.5,1.1l-0.1,0.2H68v0.7
	h3v2.6l0.4,0.4c0.2,0.2,0.3,0.5,0.3,0.9c0,0.2,0,0.3-0.1,0.3s-0.1,0-0.1,0.1v0.1c0,0.3-0.1,0.5-0.2,0.5s-0.2,0-0.3,0
	c-0.2,0-0.8,0-1.8,0s-2.5,0-4.6,0c-2.1,0-5.1,0-9,0c-0.1,0.1-0.2,0.2-0.2,0.4c0.1,0,0.1,0,0.2,0.1l0.3,0.3l-0.2,0.6h-1.5L54,20.3
	c-0.1-0.1-0.2-0.5-0.5-1.2c-0.3-0.6-0.3-1.1-0.1-1.5c0-0.3,0.2-0.5,0.5-0.5H54c0.6,0,1,0.1,1.2,0.3c0.4,0,0.8-0.1,1.3-0.3L49,17
	c-0.1,0-0.4,0.1-1,0.3c-0.5,0.1-1.1,0.3-1.8,0.5c-0.6,0.2-1.3,0.3-1.9,0.5c-0.5,0.1-0.8,0.2-0.9,0.3v2.7l-8.8,0.9v-2.8
	c-0.5,0-0.7,0.1-0.8,0.2c-0.1,0.1-0.3,0.3-0.6,0.5c-0.3,0.3-0.7,0.5-1.2,0.6c-0.5,0.2-1.1,0.2-1.8,0.2c-0.7-0.1-1.4-0.3-2.3-0.8
	c-0.1,0-0.1,0-0.2,0.1c-0.1,0-0.2,0-0.3,0c0,0.3,0,0.7,0,1.2c-0.1,0.5-0.1,1-0.3,1.5c-0.1,0.5-0.2,1-0.5,1.5
	c-0.2,0.4-0.3,0.7-0.5,0.8c-0.4,0.2-1,0.3-1.8,0.2c-0.8-0.1-1.7-0.2-2.7-0.3c-1-0.1-1.8-0.3-2.6-0.4c-0.8-0.2-1.3-0.4-1.5-0.5
	c-0.1-0.2-0.5-0.6-1-1.2c-0.4-0.3-0.8-0.7-1.2-1c-0.4-0.3-0.6-0.5-0.7-0.5H9.5c-0.2,1.4-0.3,2.2-0.4,2.5c0,0.2-0.1,0.3-0.2,0.3
	c-0.1,0.2-0.2,0.3-0.5,0.3c-0.2,0-0.6-0.1-1.3-0.3c-0.5,0-1,0-1.5,0s-0.9,0-1,0c-0.2,0-0.5,0-0.8,0.1c-0.3,0.1-0.7,0.2-1.2,0.2
	c-0.4,0.1-0.8,0.2-1.2,0.3C0.9,25,0.6,25,0.5,25.1H0.2c-0.1,0-0.1,0-0.1-0.1C0,24.7,0,24.5,0,24.2s0-0.8,0-1.5s0-1.7,0-3
	c0.1-1.2,0.2-2.3,0.2-3.4c0-1.2,0-2,0-2.5c0-0.2,0.3-0.4,0.8-0.7c0.5-0.2,1.6-0.3,3.4-0.2h1l0.1-0.1l0.1-0.1c0.1,0,0.1,0,0.2-0.1
	c0.1-0.1,0.2-0.1,0.3-0.2h9.2c0.2,0,0.4,0.1,0.6,0.3c0.5,0.3,0.8,0.7,1,1h10.4c0.1-0.2,0.2-0.5,0.3-1c0.1-0.4,0.2-0.7,0.2-1v-0.2
	h0.1c0.3-0.1,0.8-0.2,1.5-0.3c0.7,0,1.1-0.1,1.2-0.2c0.1,0,0.3,0,0.4-0.1c0-0.1,0.1-0.1,0.2-0.2h3.2v-1h-1.2c-0.1,0-0.5,0.1-1,0.2
	s-1.1,0.2-1.9,0.2c-0.7,0.1-1.4,0.1-2.2,0.2c-0.7,0-1.4,0-1.9-0.1L26.1,10l0,0C26,9.3,26,8.7,26,8.3c0-0.4,0-0.8,0-1
	c0-0.2,0-0.3,0.1-0.4l0.1-0.1h0.2l0.8-0.1c0.6,0,1.2-0.1,1.9-0.1c0.7-0.1,1.4-0.1,2.2-0.1c0.7,0,1.2,0,1.5,0.1c0.5,0,1,0,1.5,0
	c0.6,0,1.2,0,1.9,0c0.6,0,1.1,0,1.7,0c0.5-0.1,0.8-0.1,1.1-0.1V5.8c-0.1,0-0.1-0.1-0.1-0.2V5l3.2-0.2l0,0l0.4,1.1
	c0,0.1,0,0.1-0.1,0.1c-0.1,0.1-0.1,0.2-0.3,0.2v0.2h5.6c0.4-0.1,1.1-0.2,1.9-0.3c0.8-0.1,1.7-0.2,2.5-0.3c0.8-0.1,1.6-0.1,2.4-0.2
	c0.7,0,1.1,0,1.3,0.2L56,5.9l0.1,4.4h-0.2c-4.7,0-7.2-0.2-7.5-0.5V10c-0.2-0.1-0.5-0.2-1.1-0.2c-0.5-0.1-1.2,0-1.9,0v0.9h63.7v0.2
	C109.1,11,109.2,11.2,109.3,11.3z M31.9,17.7h-2.2c-0.6,0-0.9,0.3-0.9,0.8c0,0.6,0.3,1,0.9,1h2.2c0.6,0,0.9-0.3,0.9-1
	C32.8,18,32.5,17.7,31.9,17.7z M19.3,21.4c0.4,0.7,0.9,1.2,1.7,1.2c0.6,0.2,1.4,0.1,2.3-0.3c0.4-0.2,0.9-0.6,1.4-1.2
	c0.2-0.3,0.3-0.7,0.4-1.2s0-0.9-0.2-1.2c-0.1-0.5-0.6-0.8-1.4-1c-1.1-0.2-1.9-0.2-2.5,0.1c-0.4,0.2-0.7,0.4-0.9,0.6
	c-0.2,0.2-0.4,0.4-0.6,0.8C19,19.9,18.9,20.7,19.3,21.4z"/>
<g>
	<defs>
		<path id="SVGID_2_" d="M109.3,11.3c0.1,0.1,0.1,0.3,0.2,0.4c0.1,0.2,0.1,0.3,0.1,0.5c0,0.3-0.2,0.6-0.5,1.1l-0.1,0.2H68v0.7h3v2.6
			l0.4,0.4c0.2,0.2,0.3,0.5,0.3,0.9c0,0.2,0,0.3-0.1,0.3s-0.1,0-0.1,0.1v0.1c0,0.3-0.1,0.5-0.2,0.5s-0.2,0-0.3,0c-0.2,0-0.8,0-1.8,0
			s-2.5,0-4.6,0c-2.1,0-5.1,0-9,0c-0.1,0.1-0.2,0.2-0.2,0.4c0.1,0,0.1,0,0.2,0.1l0.3,0.3l-0.2,0.6h-1.5L54,20.3
			c-0.1-0.1-0.2-0.5-0.5-1.2c-0.3-0.6-0.3-1.1-0.1-1.5c0-0.3,0.2-0.5,0.5-0.5H54c0.6,0,1,0.1,1.2,0.3c0.4,0,0.8-0.1,1.3-0.3L49,17
			c-0.1,0-0.4,0.1-1,0.3c-0.5,0.1-1.1,0.3-1.8,0.5c-0.6,0.2-1.3,0.3-1.9,0.5c-0.5,0.1-0.8,0.2-0.9,0.3v2.7l-8.8,0.9v-2.8
			c-0.5,0-0.7,0.1-0.8,0.2c-0.1,0.1-0.3,0.3-0.6,0.5c-0.3,0.3-0.7,0.5-1.2,0.6c-0.5,0.2-1.1,0.2-1.8,0.2c-0.7-0.1-1.4-0.3-2.3-0.8
			c-0.1,0-0.1,0-0.2,0.1c-0.1,0-0.2,0-0.3,0c0,0.3,0,0.7,0,1.2c-0.1,0.5-0.1,1-0.3,1.5c-0.1,0.5-0.2,1-0.5,1.5
			c-0.2,0.4-0.3,0.7-0.5,0.8c-0.4,0.2-1,0.3-1.8,0.2c-0.8-0.1-1.7-0.2-2.7-0.3c-1-0.1-1.8-0.3-2.6-0.4c-0.8-0.2-1.3-0.4-1.5-0.5
			c-0.1-0.2-0.5-0.6-1-1.2c-0.4-0.3-0.8-0.7-1.2-1c-0.4-0.3-0.6-0.5-0.7-0.5H9.5c-0.2,1.4-0.3,2.2-0.4,2.5c0,0.2-0.1,0.3-0.2,0.3
			c-0.1,0.2-0.2,0.3-0.5,0.3c-0.2,0-0.6-0.1-1.3-0.3c-0.5,0-1,0-1.5,0s-0.9,0-1,0c-0.2,0-0.5,0-0.8,0.1c-0.3,0.1-0.7,0.2-1.2,0.2
			c-0.4,0.1-0.8,0.2-1.2,0.3C0.9,25,0.6,25,0.5,25.1H0.2c-0.1,0-0.1,0-0.1-0.1C0,24.7,0,24.5,0,24.2s0-0.8,0-1.5s0-1.7,0-3
			c0.1-1.2,0.2-2.3,0.2-3.4c0-1.2,0-2,0-2.5c0-0.2,0.3-0.4,0.8-0.7c0.5-0.2,1.6-0.3,3.4-0.2h1l0.1-0.1l0.1-0.1c0.1,0,0.1,0,0.2-0.1
			c0.1-0.1,0.2-0.1,0.3-0.2h9.2c0.2,0,0.4,0.1,0.6,0.3c0.5,0.3,0.8,0.7,1,1h10.4c0.1-0.2,0.2-0.5,0.3-1c0.1-0.4,0.2-0.7,0.2-1v-0.2
			h0.1c0.3-0.1,0.8-0.2,1.5-0.3c0.7,0,1.1-0.1,1.2-0.2c0.1,0,0.3,0,0.4-0.1c0-0.1,0.1-0.1,0.2-0.2h3.2v-1h-1.2c-0.1,0-0.5,0.1-1,0.2
			s-1.1,0.2-1.9,0.2c-0.7,0.1-1.4,0.1-2.2,0.2c-0.7,0-1.4,0-1.9-0.1L26.1,10l0,0C26,9.3,26,8.7,26,8.3c0-0.4,0-0.8,0-1
			c0-0.2,0-0.3,0.1-0.4l0.1-0.1h0.2l0.8-0.1c0.6,0,1.2-0.1,1.9-0.1c0.7-0.1,1.4-0.1,2.2-0.1c0.7,0,1.2,0,1.5,0.1c0.5,0,1,0,1.5,0
			c0.6,0,1.2,0,1.9,0c0.6,0,1.1,0,1.7,0c0.5-0.1,0.8-0.1,1.1-0.1V5.8c-0.1,0-0.1-0.1-0.1-0.2V5l3.2-0.2l0,0l0.4,1.1
			c0,0.1,0,0.1-0.1,0.1c-0.1,0.1-0.1,0.2-0.3,0.2v0.2h5.6c0.4-0.1,1.1-0.2,1.9-0.3c0.8-0.1,1.7-0.2,2.5-0.3c0.8-0.1,1.6-0.1,2.4-0.2
			c0.7,0,1.1,0,1.3,0.2L56,5.9l0.1,4.4h-0.2c-4.7,0-7.2-0.2-7.5-0.5V10c-0.2-0.1-0.5-0.2-1.1-0.2c-0.5-0.1-1.2,0-1.9,0v0.9h63.7v0.2
			C109.1,11,109.2,11.2,109.3,11.3z M31.9,17.7h-2.2c-0.6,0-0.9,0.3-0.9,0.8c0,0.6,0.3,1,0.9,1h2.2c0.6,0,0.9-0.3,0.9-1
			C32.8,18,32.5,17.7,31.9,17.7z M19.3,21.4c0.4,0.7,0.9,1.2,1.7,1.2c0.6,0.2,1.4,0.1,2.3-0.3c0.4-0.2,0.9-0.6,1.4-1.2
			c0.2-0.3,0.3-0.7,0.4-1.2s0-0.9-0.2-1.2c-0.1-0.5-0.6-0.8-1.4-1c-1.1-0.2-1.9-0.2-2.5,0.1c-0.4,0.2-0.7,0.4-0.9,0.6
			c-0.2,0.2-0.4,0.4-0.6,0.8C19,19.9,18.9,20.7,19.3,21.4z"/>
	</defs>
	<clipPath id="SVGID_3_">
		<use xlink:href="#SVGID_2_"  overflow="visible"/>
	</clipPath>
	<g clip-path="url(#SVGID_3_)">
		<g>
			<linearGradient id="SVGID_4_" gradientUnits="userSpaceOnUse" x1="7.0942" y1="24.127" x2="55.4692" y2="11.377">
				<stop  offset="2.054068e-007" style="stop-color:#FE6198"/>
				<stop  offset="1" style="stop-color:#FFC9D4"/>
			</linearGradient>
			<polygon fill="url(#SVGID_4_)" points="-7.9,29.8 -1.5,29.8 3.3,23.4 -3.1,23.4 			"/>
			<linearGradient id="SVGID_5_" gradientUnits="userSpaceOnUse" x1="6.2461" y1="20.9082" x2="54.6192" y2="8.1587">
				<stop  offset="2.054068e-007" style="stop-color:#FE6198"/>
				<stop  offset="1" style="stop-color:#FFC9D4"/>
			</linearGradient>
			<polygon fill="url(#SVGID_5_)" points="8.1,17 3.3,23.4 9.7,23.4 14.5,17 			"/>
			<linearGradient id="SVGID_6_" gradientUnits="userSpaceOnUse" x1="7.9253" y1="27.2813" x2="56.3003" y2="14.5313">
				<stop  offset="2.054068e-007" style="stop-color:#FE6198"/>
				<stop  offset="1" style="stop-color:#FFC9D4"/>
			</linearGradient>
			<polygon fill="url(#SVGID_6_)" points="4.9,29.8 11.3,29.8 16.1,23.4 9.7,23.4 			"/>
			<linearGradient id="SVGID_7_" gradientUnits="userSpaceOnUse" x1="7.0776" y1="24.0625" x2="55.4507" y2="11.313">
				<stop  offset="2.054068e-007" style="stop-color:#FE6198"/>
				<stop  offset="1" style="stop-color:#FFC9D4"/>
			</linearGradient>
			<polygon fill="url(#SVGID_7_)" points="16.1,23.4 22.5,23.4 27.3,17 20.9,17 			"/>
			<linearGradient id="SVGID_8_" gradientUnits="userSpaceOnUse" x1="4.5659" y1="14.5356" x2="52.9409" y2="1.7856">
				<stop  offset="2.054068e-007" style="stop-color:#FE6198"/>
				<stop  offset="1" style="stop-color:#FFC9D4"/>
			</linearGradient>
			<polygon fill="url(#SVGID_8_)" points="6.5,10.6 1.7,17 8.1,17 12.9,10.6 			"/>
			<linearGradient id="SVGID_9_" gradientUnits="userSpaceOnUse" x1="3.7173" y1="11.3164" x2="52.0923" y2="-1.4336">
				<stop  offset="2.054068e-007" style="stop-color:#FE6198"/>
				<stop  offset="1" style="stop-color:#FFC9D4"/>
			</linearGradient>
			<polygon fill="url(#SVGID_9_)" points="24.2,4.2 17.8,4.2 12.9,10.6 19.3,10.6 			"/>
			<linearGradient id="SVGID_10_" gradientUnits="userSpaceOnUse" x1="5.397" y1="17.6904" x2="53.7739" y2="4.9399">
				<stop  offset="2.054068e-007" style="stop-color:#FE6198"/>
				<stop  offset="1" style="stop-color:#FFC9D4"/>
			</linearGradient>
			<polygon fill="url(#SVGID_10_)" points="20.9,17 25.7,10.6 19.3,10.6 14.5,17 			"/>
			<linearGradient id="SVGID_11_" gradientUnits="userSpaceOnUse" x1="4.5479" y1="14.4707" x2="52.9247" y2="1.7202">
				<stop  offset="2.054068e-007" style="stop-color:#FE6198"/>
				<stop  offset="1" style="stop-color:#FFC9D4"/>
			</linearGradient>
			<polygon fill="url(#SVGID_11_)" points="37,4.2 30.6,4.2 25.7,10.6 32.1,10.6 			"/>
			<linearGradient id="SVGID_12_" gradientUnits="userSpaceOnUse" x1="7.9082" y1="27.2178" x2="56.2832" y2="14.4678">
				<stop  offset="2.054068e-007" style="stop-color:#FE6198"/>
				<stop  offset="1" style="stop-color:#FFC9D4"/>
			</linearGradient>
			<polygon fill="url(#SVGID_12_)" points="28.9,23.4 35.3,23.4 40.1,17 33.7,17 			"/>
			<linearGradient id="SVGID_13_" gradientUnits="userSpaceOnUse" x1="7.0601" y1="23.999" x2="55.4351" y2="11.249">
				<stop  offset="2.054068e-007" style="stop-color:#FE6198"/>
				<stop  offset="1" style="stop-color:#FFC9D4"/>
			</linearGradient>
			<polygon fill="url(#SVGID_13_)" points="40.1,17 46.5,17 51.3,10.6 44.9,10.6 			"/>
			<linearGradient id="SVGID_14_" gradientUnits="userSpaceOnUse" x1="6.2285" y1="20.8447" x2="54.6035" y2="8.0947">
				<stop  offset="2.054068e-007" style="stop-color:#FE6198"/>
				<stop  offset="1" style="stop-color:#FFC9D4"/>
			</linearGradient>
			<polygon fill="url(#SVGID_14_)" points="32.1,10.6 27.3,17 33.7,17 38.5,10.6 			"/>
			<linearGradient id="SVGID_15_" gradientUnits="userSpaceOnUse" x1="5.3784" y1="17.626" x2="53.7553" y2="4.8755">
				<stop  offset="2.054068e-007" style="stop-color:#FE6198"/>
				<stop  offset="1" style="stop-color:#FFC9D4"/>
			</linearGradient>
			<polygon fill="url(#SVGID_15_)" points="49.8,4.2 43.4,4.2 38.5,10.6 44.9,10.6 			"/>
			<linearGradient id="SVGID_16_" gradientUnits="userSpaceOnUse" x1="6.2114" y1="20.7803" x2="54.5864" y2="8.0303">
				<stop  offset="2.054068e-007" style="stop-color:#FE6198"/>
				<stop  offset="1" style="stop-color:#FFC9D4"/>
			</linearGradient>
			<polygon fill="url(#SVGID_16_)" points="56.2,4.2 51.3,10.6 57.7,10.6 62.6,4.2 			"/>
		</g>
	</g>
</g>
</svg>
