<?xml version="1.0" encoding="utf-8"?>
<!-- Generator: Adobe Illustrator 16.0.0, SVG Export Plug-In . SVG Version: 6.00 Build 0)  -->
<!DOCTYPE svg PUBLIC "-//W3C//DTD SVG 1.0//EN" "http://www.w3.org/TR/2001/REC-SVG-20010904/DTD/svg10.dtd">
<svg version="1.0" id="图层_1" xmlns="http://www.w3.org/2000/svg" xmlns:xlink="http://www.w3.org/1999/xlink" x="0px" y="0px"
	 width="109.5px" height="32px" viewBox="0 0 109.5 32" enable-background="new 0 0 109.5 32" xml:space="preserve">
<path opacity="0.7" fill="#2D52EA" enable-background="new    " d="M77.076,13.121c0,0-3.901,0.726-6.987,5.083
	c0,0,2.633,1.18,1.725,1.907s-4.901-0.362-11.8,6.534c0,0,2.814-1.268,6.625-1.542c3.813-0.272-0.999,2.269-2.087,2.903
	c0,0,7.079-3.537,9.076-3.268c1.997,0.271-7.08,5.446-10.982,7.261c0,0,11.891-3.902,13.252-3.721
	c1.361,0.18-0.727,2.359-3.993,3.721c0,0,6.808,0,11.346-2.088c4.538-2.087,5.445-2.36,5.445-1.18c0,0,3.992-2.542,2.815-3.45
	c-1.18-0.908,2.996-2.088,5.808-4.177c2.814-2.087,3.991-3.448,3.991-3.448s-6.806,2.996-8.893,3.085
	c-2.088,0.092,1.361-2.814,5.081-4.447c3.725-1.633,4.902-4.628,4.902-4.628s-5.084,0.182-11.618,3.449
	c-6.535,3.268-7.261,4.356-6.716,2.359c0.545-1.997,6.534-4.811,6.534-4.811s-8.35,0.182-12.163,3.177
	c-3.81,2.995-2.723-0.726-1.905-1.453C77.351,13.666,77.076,13.121,77.076,13.121z"/>
<g>
	<path fill="#F3FFFE" d="M71.607,24.922l-1.098,2.364h-2.28L73.465,16.9h2.533l1.52,10.386h-2.195l-0.254-2.364H71.607z
		 M74.394,19.097l-1.773,3.799h2.195L74.394,19.097z"/>
	<path fill="#F3FFFE" d="M80.727,27.286c-0.591,0-1.098-0.169-1.435-0.591c-0.336-0.422-0.423-0.929-0.336-1.52l1.18-6.418
		c0.087-0.591,0.338-1.098,0.845-1.436c0.422-0.338,0.931-0.507,1.604-0.507h3.377c0.592,0,1.098,0.169,1.436,0.592
		c0.337,0.422,0.423,0.929,0.337,1.52l-0.255,1.604h-2.196l0.254-1.351c0-0.169,0-0.254,0-0.339
		c-0.085-0.084-0.169-0.084-0.336-0.084h-2.279c-0.337,0-0.591,0.169-0.677,0.592l-1.012,5.572c0,0.169,0,0.254,0,0.339
		c0.085,0.084,0.168,0.084,0.337,0.084h2.279c0.337,0,0.591-0.169,0.676-0.592l0.169-1.182h2.195l-0.422,1.774
		c-0.085,0.592-0.336,1.099-0.845,1.437c-0.422,0.335-0.929,0.507-1.603,0.507L80.727,27.286L80.727,27.286z"/>
	<path fill="#F3FFFE" d="M96.687,16.9l-0.338,1.941h-4.813l-0.423,2.111h3.886l-0.336,1.942h-3.886l-0.423,2.365h4.813l-0.337,1.943
		h-6.923l1.856-10.302L96.687,16.9L96.687,16.9z"/>
</g>
<path fill="#0001BF" d="M109.3,11.3c0.101,0.1,0.101,0.3,0.2,0.4c0.1,0.2,0.1,0.3,0.1,0.5c0,0.3-0.199,0.6-0.5,1.1l-0.1,0.2H68v0.7
	h3v2.6l0.4,0.4c0.199,0.2,0.3,0.5,0.3,0.899c0,0.199,0,0.301-0.101,0.301s-0.101,0-0.101,0.1v0.1c0,0.301-0.101,0.5-0.2,0.5
	s-0.199,0-0.3,0c-0.2,0-0.8,0-1.8,0s-2.5,0-4.602,0c-2.1,0-5.1,0-9,0C55.5,19.2,55.4,19.3,55.4,19.5c0.1,0,0.1,0,0.199,0.1
	L55.9,19.9l-0.2,0.6h-1.5L54,20.3c-0.1-0.1-0.2-0.5-0.5-1.2c-0.3-0.6-0.3-1.1-0.1-1.5c0-0.3,0.2-0.5,0.5-0.5H54
	c0.6,0,1,0.102,1.2,0.301c0.399,0,0.8-0.101,1.3-0.301L49,17c-0.1,0-0.4,0.1-1,0.3c-0.5,0.101-1.1,0.3-1.8,0.5
	c-0.6,0.2-1.3,0.3-1.9,0.5c-0.5,0.101-0.8,0.2-0.9,0.3v2.7l-8.8,0.9v-2.8c-0.5,0-0.7,0.1-0.8,0.199c-0.1,0.101-0.3,0.301-0.6,0.5
	C32.9,20.4,32.5,20.6,32,20.7c-0.5,0.2-1.1,0.2-1.8,0.2C29.5,20.8,28.8,20.6,27.9,20.1c-0.1,0-0.1,0-0.2,0.102c-0.1,0-0.2,0-0.3,0
	c0,0.3,0,0.699,0,1.199c-0.1,0.5-0.1,1-0.3,1.5c-0.1,0.5-0.2,1-0.5,1.5c-0.2,0.399-0.3,0.699-0.5,0.801c-0.4,0.199-1,0.3-1.8,0.199
	c-0.8-0.101-1.7-0.199-2.7-0.301c-1-0.1-1.8-0.3-2.6-0.398c-0.8-0.2-1.3-0.4-1.5-0.5C17.4,24,17,23.6,16.5,23
	c-0.4-0.3-0.8-0.7-1.2-1c-0.4-0.3-0.6-0.5-0.7-0.5H9.5c-0.2,1.4-0.3,2.2-0.4,2.5c0,0.2-0.1,0.3-0.2,0.3c-0.1,0.2-0.2,0.3-0.5,0.3
	c-0.2,0-0.6-0.1-1.3-0.3c-0.5,0-1,0-1.5,0s-0.9,0-1,0c-0.2,0-0.5,0-0.8,0.101C3.5,24.5,3.1,24.6,2.6,24.6
	C2.2,24.7,1.8,24.8,1.4,24.9C0.9,25,0.6,25,0.5,25.1H0.2c-0.1,0-0.1,0-0.1-0.1C0,24.7,0,24.5,0,24.2s0-0.8,0-1.5s0-1.7,0-3
	c0.1-1.2,0.2-2.3,0.2-3.4c0-1.2,0-2,0-2.5c0-0.2,0.3-0.4,0.8-0.7c0.5-0.2,1.6-0.3,3.4-0.2h1l0.1-0.1l0.1-0.1c0.1,0,0.1,0,0.2-0.1
	c0.1-0.1,0.2-0.1,0.3-0.2h9.2c0.2,0,0.4,0.1,0.6,0.3c0.5,0.3,0.8,0.7,1,1h10.4c0.1-0.2,0.2-0.5,0.3-1c0.1-0.4,0.2-0.7,0.2-1v-0.2
	h0.1c0.3-0.1,0.8-0.2,1.5-0.3c0.7,0,1.1-0.1,1.2-0.2c0.1,0,0.3,0,0.4-0.1c0-0.1,0.1-0.1,0.2-0.2h3.2v-1h-1.2c-0.1,0-0.5,0.1-1,0.2
	s-1.1,0.2-1.9,0.2c-0.7,0.1-1.4,0.1-2.2,0.2c-0.7,0-1.4,0-1.9-0.1L26.1,10l0,0C26,9.3,26,8.7,26,8.3c0-0.4,0-0.8,0-1
	c0-0.2,0-0.3,0.1-0.4l0.1-0.1h0.2l0.8-0.1c0.6,0,1.2-0.1,1.9-0.1c0.7-0.1,1.4-0.1,2.2-0.1c0.7,0,1.2,0,1.5,0.1c0.5,0,1,0,1.5,0
	c0.6,0,1.2,0,1.9,0c0.6,0,1.1,0,1.7,0c0.5-0.1,0.8-0.1,1.1-0.1V5.8c-0.1,0-0.1-0.1-0.1-0.2V5l3.2-0.2l0,0l0.4,1.1
	c0,0.1,0,0.1-0.1,0.1c-0.1,0.1-0.1,0.2-0.3,0.2v0.2h5.6c0.4-0.1,1.1-0.2,1.9-0.3c0.8-0.1,1.7-0.2,2.5-0.3c0.8-0.1,1.6-0.1,2.4-0.2
	c0.7,0,1.1,0,1.3,0.2L56,5.9l0.1,4.4H55.9c-4.7,0-7.2-0.2-7.5-0.5V10c-0.2-0.1-0.5-0.2-1.1-0.2c-0.5-0.1-1.2,0-1.9,0v0.9h63.7v0.2
	C109.1,11,109.2,11.2,109.3,11.3z M31.9,17.7h-2.2c-0.6,0-0.9,0.3-0.9,0.8c0,0.6,0.3,1,0.9,1h2.2c0.6,0,0.9-0.3,0.9-1
	C32.8,18,32.5,17.7,31.9,17.7z M19.3,21.4C19.7,22.1,20.2,22.6,21,22.6c0.6,0.2,1.4,0.102,2.3-0.3c0.4-0.2,0.9-0.6,1.4-1.2
	c0.2-0.3,0.3-0.699,0.4-1.199s0-0.899-0.2-1.199c-0.1-0.5-0.6-0.801-1.4-1c-1.1-0.2-1.9-0.2-2.5,0.1c-0.4,0.2-0.7,0.4-0.9,0.602
	c-0.2,0.199-0.4,0.398-0.6,0.8C19,19.9,18.9,20.7,19.3,21.4z"/>
<g>
	<g>
		<defs>
			<path id="SVGID_1_" d="M109.3,11.3c0.101,0.1,0.101,0.3,0.2,0.4c0.1,0.2,0.1,0.3,0.1,0.5c0,0.3-0.199,0.6-0.5,1.1l-0.1,0.2H68
				v0.7h3v2.6l0.4,0.4c0.199,0.2,0.3,0.5,0.3,0.899c0,0.199,0,0.301-0.101,0.301s-0.101,0-0.101,0.1v0.1c0,0.301-0.101,0.5-0.2,0.5
				s-0.199,0-0.3,0c-0.2,0-0.8,0-1.8,0s-2.5,0-4.602,0c-2.1,0-5.1,0-9,0C55.5,19.2,55.4,19.3,55.4,19.5c0.1,0,0.1,0,0.199,0.1
				L55.9,19.9l-0.2,0.6h-1.5L54,20.3c-0.1-0.1-0.2-0.5-0.5-1.2c-0.3-0.6-0.3-1.1-0.1-1.5c0-0.3,0.2-0.5,0.5-0.5H54
				c0.6,0,1,0.102,1.2,0.301c0.399,0,0.8-0.101,1.3-0.301L49,17c-0.1,0-0.4,0.1-1,0.3c-0.5,0.101-1.1,0.3-1.8,0.5
				c-0.6,0.2-1.3,0.3-1.9,0.5c-0.5,0.101-0.8,0.2-0.9,0.3v2.7l-8.8,0.9v-2.8c-0.5,0-0.7,0.1-0.8,0.199c-0.1,0.101-0.3,0.301-0.6,0.5
				C32.9,20.4,32.5,20.6,32,20.7c-0.5,0.2-1.1,0.2-1.8,0.2C29.5,20.8,28.8,20.6,27.9,20.1c-0.1,0-0.1,0-0.2,0.102
				c-0.1,0-0.2,0-0.3,0c0,0.3,0,0.699,0,1.199c-0.1,0.5-0.1,1-0.3,1.5c-0.1,0.5-0.2,1-0.5,1.5c-0.2,0.399-0.3,0.699-0.5,0.801
				c-0.4,0.199-1,0.3-1.8,0.199c-0.8-0.101-1.7-0.199-2.7-0.301c-1-0.1-1.8-0.3-2.6-0.398c-0.8-0.2-1.3-0.4-1.5-0.5
				C17.4,24,17,23.6,16.5,23c-0.4-0.3-0.8-0.7-1.2-1c-0.4-0.3-0.6-0.5-0.7-0.5H9.5c-0.2,1.4-0.3,2.2-0.4,2.5c0,0.2-0.1,0.3-0.2,0.3
				c-0.1,0.2-0.2,0.3-0.5,0.3c-0.2,0-0.6-0.1-1.3-0.3c-0.5,0-1,0-1.5,0s-0.9,0-1,0c-0.2,0-0.5,0-0.8,0.101
				C3.5,24.5,3.1,24.6,2.6,24.6C2.2,24.7,1.8,24.8,1.4,24.9C0.9,25,0.6,25,0.5,25.1H0.2c-0.1,0-0.1,0-0.1-0.1C0,24.7,0,24.5,0,24.2
				s0-0.8,0-1.5s0-1.7,0-3c0.1-1.2,0.2-2.3,0.2-3.4c0-1.2,0-2,0-2.5c0-0.2,0.3-0.4,0.8-0.7c0.5-0.2,1.6-0.3,3.4-0.2h1l0.1-0.1
				l0.1-0.1c0.1,0,0.1,0,0.2-0.1c0.1-0.1,0.2-0.1,0.3-0.2h9.2c0.2,0,0.4,0.1,0.6,0.3c0.5,0.3,0.8,0.7,1,1h10.4
				c0.1-0.2,0.2-0.5,0.3-1c0.1-0.4,0.2-0.7,0.2-1v-0.2h0.1c0.3-0.1,0.8-0.2,1.5-0.3c0.7,0,1.1-0.1,1.2-0.2c0.1,0,0.3,0,0.4-0.1
				c0-0.1,0.1-0.1,0.2-0.2h3.2v-1h-1.2c-0.1,0-0.5,0.1-1,0.2s-1.1,0.2-1.9,0.2c-0.7,0.1-1.4,0.1-2.2,0.2c-0.7,0-1.4,0-1.9-0.1
				L26.1,10l0,0C26,9.3,26,8.7,26,8.3c0-0.4,0-0.8,0-1c0-0.2,0-0.3,0.1-0.4l0.1-0.1h0.2l0.8-0.1c0.6,0,1.2-0.1,1.9-0.1
				c0.7-0.1,1.4-0.1,2.2-0.1c0.7,0,1.2,0,1.5,0.1c0.5,0,1,0,1.5,0c0.6,0,1.2,0,1.9,0c0.6,0,1.1,0,1.7,0c0.5-0.1,0.8-0.1,1.1-0.1V5.8
				c-0.1,0-0.1-0.1-0.1-0.2V5l3.2-0.2l0,0l0.4,1.1c0,0.1,0,0.1-0.1,0.1c-0.1,0.1-0.1,0.2-0.3,0.2v0.2h5.6c0.4-0.1,1.1-0.2,1.9-0.3
				c0.8-0.1,1.7-0.2,2.5-0.3c0.8-0.1,1.6-0.1,2.4-0.2c0.7,0,1.1,0,1.3,0.2L56,5.9l0.1,4.4H55.9c-4.7,0-7.2-0.2-7.5-0.5V10
				c-0.2-0.1-0.5-0.2-1.1-0.2c-0.5-0.1-1.2,0-1.9,0v0.9h63.7v0.2C109.1,11,109.2,11.2,109.3,11.3z M31.9,17.7h-2.2
				c-0.6,0-0.9,0.3-0.9,0.8c0,0.6,0.3,1,0.9,1h2.2c0.6,0,0.9-0.3,0.9-1C32.8,18,32.5,17.7,31.9,17.7z M19.3,21.4
				C19.7,22.1,20.2,22.6,21,22.6c0.6,0.2,1.4,0.102,2.3-0.3c0.4-0.2,0.9-0.6,1.4-1.2c0.2-0.3,0.3-0.699,0.4-1.199s0-0.899-0.2-1.199
				c-0.1-0.5-0.6-0.801-1.4-1c-1.1-0.2-1.9-0.2-2.5,0.1c-0.4,0.2-0.7,0.4-0.9,0.602c-0.2,0.199-0.4,0.398-0.6,0.8
				C19,19.9,18.9,20.7,19.3,21.4z"/>
		</defs>
		<clipPath id="SVGID_2_">
			<use xlink:href="#SVGID_1_"  overflow="visible"/>
		</clipPath>
		<path clip-path="url(#SVGID_2_)" fill="#1A5AC1" d="M3.854,15.336l13.571-3.088l6.813,0.651l9.695-4.598l7.589,0.333l2.603,2.548
			l3.159,5.49l1.162,2.211c0,0,1.33-4.044,3.104-3.491c1.772,0.554,0.334,3.236,0.334,3.236l5.173,7.797l2.672,0.313
			c0,0-0.756,1.839-1.976,2.835c-1.219,0.999-2.338,1.606-2.721,1.663c-0.381,0.056-2.93-0.389-3.096-0.444
			c-0.166-0.054-3.102-3.101-3.102-3.101l-4.598-1.885l-2.161,0.305L26.62,21.818c0,0-6.149,4.043-6.703,2.326
			c-0.062-0.189-4.764,4.932-5.096,5.151c-0.333,0.222-5.429,1.106-5.429,1.106l-4.1-1.826L3.854,15.336z"/>
	</g>
	<g>
		<defs>
			<path id="SVGID_3_" d="M109.3,11.3c0.101,0.1,0.101,0.3,0.2,0.4c0.1,0.2,0.1,0.3,0.1,0.5c0,0.3-0.199,0.6-0.5,1.1l-0.1,0.2H68
				v0.7h3v2.6l0.4,0.4c0.199,0.2,0.3,0.5,0.3,0.899c0,0.199,0,0.301-0.101,0.301s-0.101,0-0.101,0.1v0.1c0,0.301-0.101,0.5-0.2,0.5
				s-0.199,0-0.3,0c-0.2,0-0.8,0-1.8,0s-2.5,0-4.602,0c-2.1,0-5.1,0-9,0C55.5,19.2,55.4,19.3,55.4,19.5c0.1,0,0.1,0,0.199,0.1
				L55.9,19.9l-0.2,0.6h-1.5L54,20.3c-0.1-0.1-0.2-0.5-0.5-1.2c-0.3-0.6-0.3-1.1-0.1-1.5c0-0.3,0.2-0.5,0.5-0.5H54
				c0.6,0,1,0.102,1.2,0.301c0.399,0,0.8-0.101,1.3-0.301L49,17c-0.1,0-0.4,0.1-1,0.3c-0.5,0.101-1.1,0.3-1.8,0.5
				c-0.6,0.2-1.3,0.3-1.9,0.5c-0.5,0.101-0.8,0.2-0.9,0.3v2.7l-8.8,0.9v-2.8c-0.5,0-0.7,0.1-0.8,0.199c-0.1,0.101-0.3,0.301-0.6,0.5
				C32.9,20.4,32.5,20.6,32,20.7c-0.5,0.2-1.1,0.2-1.8,0.2C29.5,20.8,28.8,20.6,27.9,20.1c-0.1,0-0.1,0-0.2,0.102
				c-0.1,0-0.2,0-0.3,0c0,0.3,0,0.699,0,1.199c-0.1,0.5-0.1,1-0.3,1.5c-0.1,0.5-0.2,1-0.5,1.5c-0.2,0.399-0.3,0.699-0.5,0.801
				c-0.4,0.199-1,0.3-1.8,0.199c-0.8-0.101-1.7-0.199-2.7-0.301c-1-0.1-1.8-0.3-2.6-0.398c-0.8-0.2-1.3-0.4-1.5-0.5
				C17.4,24,17,23.6,16.5,23c-0.4-0.3-0.8-0.7-1.2-1c-0.4-0.3-0.6-0.5-0.7-0.5H9.5c-0.2,1.4-0.3,2.2-0.4,2.5c0,0.2-0.1,0.3-0.2,0.3
				c-0.1,0.2-0.2,0.3-0.5,0.3c-0.2,0-0.6-0.1-1.3-0.3c-0.5,0-1,0-1.5,0s-0.9,0-1,0c-0.2,0-0.5,0-0.8,0.101
				C3.5,24.5,3.1,24.6,2.6,24.6C2.2,24.7,1.8,24.8,1.4,24.9C0.9,25,0.6,25,0.5,25.1H0.2c-0.1,0-0.1,0-0.1-0.1C0,24.7,0,24.5,0,24.2
				s0-0.8,0-1.5s0-1.7,0-3c0.1-1.2,0.2-2.3,0.2-3.4c0-1.2,0-2,0-2.5c0-0.2,0.3-0.4,0.8-0.7c0.5-0.2,1.6-0.3,3.4-0.2h1l0.1-0.1
				l0.1-0.1c0.1,0,0.1,0,0.2-0.1c0.1-0.1,0.2-0.1,0.3-0.2h9.2c0.2,0,0.4,0.1,0.6,0.3c0.5,0.3,0.8,0.7,1,1h10.4
				c0.1-0.2,0.2-0.5,0.3-1c0.1-0.4,0.2-0.7,0.2-1v-0.2h0.1c0.3-0.1,0.8-0.2,1.5-0.3c0.7,0,1.1-0.1,1.2-0.2c0.1,0,0.3,0,0.4-0.1
				c0-0.1,0.1-0.1,0.2-0.2h3.2v-1h-1.2c-0.1,0-0.5,0.1-1,0.2s-1.1,0.2-1.9,0.2c-0.7,0.1-1.4,0.1-2.2,0.2c-0.7,0-1.4,0-1.9-0.1
				L26.1,10l0,0C26,9.3,26,8.7,26,8.3c0-0.4,0-0.8,0-1c0-0.2,0-0.3,0.1-0.4l0.1-0.1h0.2l0.8-0.1c0.6,0,1.2-0.1,1.9-0.1
				c0.7-0.1,1.4-0.1,2.2-0.1c0.7,0,1.2,0,1.5,0.1c0.5,0,1,0,1.5,0c0.6,0,1.2,0,1.9,0c0.6,0,1.1,0,1.7,0c0.5-0.1,0.8-0.1,1.1-0.1V5.8
				c-0.1,0-0.1-0.1-0.1-0.2V5l3.2-0.2l0,0l0.4,1.1c0,0.1,0,0.1-0.1,0.1c-0.1,0.1-0.1,0.2-0.3,0.2v0.2h5.6c0.4-0.1,1.1-0.2,1.9-0.3
				c0.8-0.1,1.7-0.2,2.5-0.3c0.8-0.1,1.6-0.1,2.4-0.2c0.7,0,1.1,0,1.3,0.2L56,5.9l0.1,4.4H55.9c-4.7,0-7.2-0.2-7.5-0.5V10
				c-0.2-0.1-0.5-0.2-1.1-0.2c-0.5-0.1-1.2,0-1.9,0v0.9h63.7v0.2C109.1,11,109.2,11.2,109.3,11.3z M31.9,17.7h-2.2
				c-0.6,0-0.9,0.3-0.9,0.8c0,0.6,0.3,1,0.9,1h2.2c0.6,0,0.9-0.3,0.9-1C32.8,18,32.5,17.7,31.9,17.7z M19.3,21.4
				C19.7,22.1,20.2,22.6,21,22.6c0.6,0.2,1.4,0.102,2.3-0.3c0.4-0.2,0.9-0.6,1.4-1.2c0.2-0.3,0.3-0.699,0.4-1.199s0-0.899-0.2-1.199
				c-0.1-0.5-0.6-0.801-1.4-1c-1.1-0.2-1.9-0.2-2.5,0.1c-0.4,0.2-0.7,0.4-0.9,0.602c-0.2,0.199-0.4,0.398-0.6,0.8
				C19,19.9,18.9,20.7,19.3,21.4z"/>
		</defs>
		<clipPath id="SVGID_4_">
			<use xlink:href="#SVGID_3_"  overflow="visible"/>
		</clipPath>
		
			<path clip-path="url(#SVGID_4_)" fill="none" stroke="#FFFFFF" stroke-width="0.75" stroke-linecap="round" stroke-linejoin="round" stroke-miterlimit="10" d="
			M61.727,16c0,0,3.205-6.537,9.479-6.455c4.784,0.063,7.905,2.208,8.649,4.708c0,0,1.572-2.996,5.592-2.479
			c2.078,0.268,5.16,3.624,5.16,3.624s7.309-3.874,9.434-0.687c0,0-0.672-2.625-9.395-4.063c-3.84-0.633-2.09-2.509-4.193-2.688
			c-2.527-0.214-1.755,0.451-6.973,5"/>
	</g>
	<g>
		<defs>
			<path id="SVGID_5_" d="M109.3,11.3c0.101,0.1,0.101,0.3,0.2,0.4c0.1,0.2,0.1,0.3,0.1,0.5c0,0.3-0.199,0.6-0.5,1.1l-0.1,0.2H68
				v0.7h3v2.6l0.4,0.4c0.199,0.2,0.3,0.5,0.3,0.899c0,0.199,0,0.301-0.101,0.301s-0.101,0-0.101,0.1v0.1c0,0.301-0.101,0.5-0.2,0.5
				s-0.199,0-0.3,0c-0.2,0-0.8,0-1.8,0s-2.5,0-4.602,0c-2.1,0-5.1,0-9,0C55.5,19.2,55.4,19.3,55.4,19.5c0.1,0,0.1,0,0.199,0.1
				L55.9,19.9l-0.2,0.6h-1.5L54,20.3c-0.1-0.1-0.2-0.5-0.5-1.2c-0.3-0.6-0.3-1.1-0.1-1.5c0-0.3,0.2-0.5,0.5-0.5H54
				c0.6,0,1,0.102,1.2,0.301c0.399,0,0.8-0.101,1.3-0.301L49,17c-0.1,0-0.4,0.1-1,0.3c-0.5,0.101-1.1,0.3-1.8,0.5
				c-0.6,0.2-1.3,0.3-1.9,0.5c-0.5,0.101-0.8,0.2-0.9,0.3v2.7l-8.8,0.9v-2.8c-0.5,0-0.7,0.1-0.8,0.199c-0.1,0.101-0.3,0.301-0.6,0.5
				C32.9,20.4,32.5,20.6,32,20.7c-0.5,0.2-1.1,0.2-1.8,0.2C29.5,20.8,28.8,20.6,27.9,20.1c-0.1,0-0.1,0-0.2,0.102
				c-0.1,0-0.2,0-0.3,0c0,0.3,0,0.699,0,1.199c-0.1,0.5-0.1,1-0.3,1.5c-0.1,0.5-0.2,1-0.5,1.5c-0.2,0.399-0.3,0.699-0.5,0.801
				c-0.4,0.199-1,0.3-1.8,0.199c-0.8-0.101-1.7-0.199-2.7-0.301c-1-0.1-1.8-0.3-2.6-0.398c-0.8-0.2-1.3-0.4-1.5-0.5
				C17.4,24,17,23.6,16.5,23c-0.4-0.3-0.8-0.7-1.2-1c-0.4-0.3-0.6-0.5-0.7-0.5H9.5c-0.2,1.4-0.3,2.2-0.4,2.5c0,0.2-0.1,0.3-0.2,0.3
				c-0.1,0.2-0.2,0.3-0.5,0.3c-0.2,0-0.6-0.1-1.3-0.3c-0.5,0-1,0-1.5,0s-0.9,0-1,0c-0.2,0-0.5,0-0.8,0.101
				C3.5,24.5,3.1,24.6,2.6,24.6C2.2,24.7,1.8,24.8,1.4,24.9C0.9,25,0.6,25,0.5,25.1H0.2c-0.1,0-0.1,0-0.1-0.1C0,24.7,0,24.5,0,24.2
				s0-0.8,0-1.5s0-1.7,0-3c0.1-1.2,0.2-2.3,0.2-3.4c0-1.2,0-2,0-2.5c0-0.2,0.3-0.4,0.8-0.7c0.5-0.2,1.6-0.3,3.4-0.2h1l0.1-0.1
				l0.1-0.1c0.1,0,0.1,0,0.2-0.1c0.1-0.1,0.2-0.1,0.3-0.2h9.2c0.2,0,0.4,0.1,0.6,0.3c0.5,0.3,0.8,0.7,1,1h10.4
				c0.1-0.2,0.2-0.5,0.3-1c0.1-0.4,0.2-0.7,0.2-1v-0.2h0.1c0.3-0.1,0.8-0.2,1.5-0.3c0.7,0,1.1-0.1,1.2-0.2c0.1,0,0.3,0,0.4-0.1
				c0-0.1,0.1-0.1,0.2-0.2h3.2v-1h-1.2c-0.1,0-0.5,0.1-1,0.2s-1.1,0.2-1.9,0.2c-0.7,0.1-1.4,0.1-2.2,0.2c-0.7,0-1.4,0-1.9-0.1
				L26.1,10l0,0C26,9.3,26,8.7,26,8.3c0-0.4,0-0.8,0-1c0-0.2,0-0.3,0.1-0.4l0.1-0.1h0.2l0.8-0.1c0.6,0,1.2-0.1,1.9-0.1
				c0.7-0.1,1.4-0.1,2.2-0.1c0.7,0,1.2,0,1.5,0.1c0.5,0,1,0,1.5,0c0.6,0,1.2,0,1.9,0c0.6,0,1.1,0,1.7,0c0.5-0.1,0.8-0.1,1.1-0.1V5.8
				c-0.1,0-0.1-0.1-0.1-0.2V5l3.2-0.2l0,0l0.4,1.1c0,0.1,0,0.1-0.1,0.1c-0.1,0.1-0.1,0.2-0.3,0.2v0.2h5.6c0.4-0.1,1.1-0.2,1.9-0.3
				c0.8-0.1,1.7-0.2,2.5-0.3c0.8-0.1,1.6-0.1,2.4-0.2c0.7,0,1.1,0,1.3,0.2L56,5.9l0.1,4.4H55.9c-4.7,0-7.2-0.2-7.5-0.5V10
				c-0.2-0.1-0.5-0.2-1.1-0.2c-0.5-0.1-1.2,0-1.9,0v0.9h63.7v0.2C109.1,11,109.2,11.2,109.3,11.3z M31.9,17.7h-2.2
				c-0.6,0-0.9,0.3-0.9,0.8c0,0.6,0.3,1,0.9,1h2.2c0.6,0,0.9-0.3,0.9-1C32.8,18,32.5,17.7,31.9,17.7z M19.3,21.4
				C19.7,22.1,20.2,22.6,21,22.6c0.6,0.2,1.4,0.102,2.3-0.3c0.4-0.2,0.9-0.6,1.4-1.2c0.2-0.3,0.3-0.699,0.4-1.199s0-0.899-0.2-1.199
				c-0.1-0.5-0.6-0.801-1.4-1c-1.1-0.2-1.9-0.2-2.5,0.1c-0.4,0.2-0.7,0.4-0.9,0.602c-0.2,0.199-0.4,0.398-0.6,0.8
				C19,19.9,18.9,20.7,19.3,21.4z"/>
		</defs>
		<clipPath id="SVGID_6_">
			<use xlink:href="#SVGID_5_"  overflow="visible"/>
		</clipPath>
		
			<linearGradient id="SVGID_7_" gradientUnits="userSpaceOnUse" x1="291.4082" y1="-391.6343" x2="333.0176" y2="-391.6343" gradientTransform="matrix(1 0 0 -1 -281.5996 -371.96)">
			<stop  offset="0" style="stop-color:#A9D0FF"/>
			<stop  offset="0.1986" style="stop-color:#A7CBFF"/>
			<stop  offset="0.4411" style="stop-color:#A1BCFF"/>
			<stop  offset="0.7063" style="stop-color:#97A3FF"/>
			<stop  offset="0.9861" style="stop-color:#8981FF"/>
			<stop  offset="1" style="stop-color:#887FFF"/>
		</linearGradient>
		<path clip-path="url(#SVGID_6_)" fill="url(#SVGID_7_)" d="M11.183,21.3c0,0-0.056,1.955,1.179,3.201
			c1.236,1.246,2.567-0.665,2.567-0.665l4.089-3.322c0,0,2.758,0.414,3.138,0.747c0.38,0.331,6.656-1.579,6.656-1.579
			s-1.236,1.662-0.475,3.156c0.761,1.498,3.994,1.414,5.325,0.833c1.331-0.583,1.901-2.161,4.564-0.915
			c2.664,1.246,5.896,2.908,5.896,2.908s2.079,0.07,2.268-0.678c0.192-0.746,1.283,0.813,2.518,0.063
			c1.237-0.747,1.941-2.337,2.417-3c0.475-0.665-1.043-5.399-1.043-5.399s1.547,3.136,0.543,1.441
			c-1.295-2.187-4.495-4.708-7.343,0.083C41.575,21.383,40.24,18.8,40.24,18.8s-4.298,1.538-6.581,0.458
			c-2.281-1.08-4.276-2.566-6.273-2.65c-1.997-0.082-4.849-0.499-5.61,0.084c-0.761,0.58-1.28-2.527-2.136-2.954
			c-0.855-0.426-9.514,1.702-9.799,3.032C9.556,18.098,11.183,21.3,11.183,21.3z"/>
	</g>
	<g>
		<defs>
			<path id="SVGID_8_" d="M109.3,11.3c0.101,0.1,0.101,0.3,0.2,0.4c0.1,0.2,0.1,0.3,0.1,0.5c0,0.3-0.199,0.6-0.5,1.1l-0.1,0.2H68
				v0.7h3v2.6l0.4,0.4c0.199,0.2,0.3,0.5,0.3,0.899c0,0.199,0,0.301-0.101,0.301s-0.101,0-0.101,0.1v0.1c0,0.301-0.101,0.5-0.2,0.5
				s-0.199,0-0.3,0c-0.2,0-0.8,0-1.8,0s-2.5,0-4.602,0c-2.1,0-5.1,0-9,0C55.5,19.2,55.4,19.3,55.4,19.5c0.1,0,0.1,0,0.199,0.1
				L55.9,19.9l-0.2,0.6h-1.5L54,20.3c-0.1-0.1-0.2-0.5-0.5-1.2c-0.3-0.6-0.3-1.1-0.1-1.5c0-0.3,0.2-0.5,0.5-0.5H54
				c0.6,0,1,0.102,1.2,0.301c0.399,0,0.8-0.101,1.3-0.301L49,17c-0.1,0-0.4,0.1-1,0.3c-0.5,0.101-1.1,0.3-1.8,0.5
				c-0.6,0.2-1.3,0.3-1.9,0.5c-0.5,0.101-0.8,0.2-0.9,0.3v2.7l-8.8,0.9v-2.8c-0.5,0-0.7,0.1-0.8,0.199c-0.1,0.101-0.3,0.301-0.6,0.5
				C32.9,20.4,32.5,20.6,32,20.7c-0.5,0.2-1.1,0.2-1.8,0.2C29.5,20.8,28.8,20.6,27.9,20.1c-0.1,0-0.1,0-0.2,0.102
				c-0.1,0-0.2,0-0.3,0c0,0.3,0,0.699,0,1.199c-0.1,0.5-0.1,1-0.3,1.5c-0.1,0.5-0.2,1-0.5,1.5c-0.2,0.399-0.3,0.699-0.5,0.801
				c-0.4,0.199-1,0.3-1.8,0.199c-0.8-0.101-1.7-0.199-2.7-0.301c-1-0.1-1.8-0.3-2.6-0.398c-0.8-0.2-1.3-0.4-1.5-0.5
				C17.4,24,17,23.6,16.5,23c-0.4-0.3-0.8-0.7-1.2-1c-0.4-0.3-0.6-0.5-0.7-0.5H9.5c-0.2,1.4-0.3,2.2-0.4,2.5c0,0.2-0.1,0.3-0.2,0.3
				c-0.1,0.2-0.2,0.3-0.5,0.3c-0.2,0-0.6-0.1-1.3-0.3c-0.5,0-1,0-1.5,0s-0.9,0-1,0c-0.2,0-0.5,0-0.8,0.101
				C3.5,24.5,3.1,24.6,2.6,24.6C2.2,24.7,1.8,24.8,1.4,24.9C0.9,25,0.6,25,0.5,25.1H0.2c-0.1,0-0.1,0-0.1-0.1C0,24.7,0,24.5,0,24.2
				s0-0.8,0-1.5s0-1.7,0-3c0.1-1.2,0.2-2.3,0.2-3.4c0-1.2,0-2,0-2.5c0-0.2,0.3-0.4,0.8-0.7c0.5-0.2,1.6-0.3,3.4-0.2h1l0.1-0.1
				l0.1-0.1c0.1,0,0.1,0,0.2-0.1c0.1-0.1,0.2-0.1,0.3-0.2h9.2c0.2,0,0.4,0.1,0.6,0.3c0.5,0.3,0.8,0.7,1,1h10.4
				c0.1-0.2,0.2-0.5,0.3-1c0.1-0.4,0.2-0.7,0.2-1v-0.2h0.1c0.3-0.1,0.8-0.2,1.5-0.3c0.7,0,1.1-0.1,1.2-0.2c0.1,0,0.3,0,0.4-0.1
				c0-0.1,0.1-0.1,0.2-0.2h3.2v-1h-1.2c-0.1,0-0.5,0.1-1,0.2s-1.1,0.2-1.9,0.2c-0.7,0.1-1.4,0.1-2.2,0.2c-0.7,0-1.4,0-1.9-0.1
				L26.1,10l0,0C26,9.3,26,8.7,26,8.3c0-0.4,0-0.8,0-1c0-0.2,0-0.3,0.1-0.4l0.1-0.1h0.2l0.8-0.1c0.6,0,1.2-0.1,1.9-0.1
				c0.7-0.1,1.4-0.1,2.2-0.1c0.7,0,1.2,0,1.5,0.1c0.5,0,1,0,1.5,0c0.6,0,1.2,0,1.9,0c0.6,0,1.1,0,1.7,0c0.5-0.1,0.8-0.1,1.1-0.1V5.8
				c-0.1,0-0.1-0.1-0.1-0.2V5l3.2-0.2l0,0l0.4,1.1c0,0.1,0,0.1-0.1,0.1c-0.1,0.1-0.1,0.2-0.3,0.2v0.2h5.6c0.4-0.1,1.1-0.2,1.9-0.3
				c0.8-0.1,1.7-0.2,2.5-0.3c0.8-0.1,1.6-0.1,2.4-0.2c0.7,0,1.1,0,1.3,0.2L56,5.9l0.1,4.4H55.9c-4.7,0-7.2-0.2-7.5-0.5V10
				c-0.2-0.1-0.5-0.2-1.1-0.2c-0.5-0.1-1.2,0-1.9,0v0.9h63.7v0.2C109.1,11,109.2,11.2,109.3,11.3z M31.9,17.7h-2.2
				c-0.6,0-0.9,0.3-0.9,0.8c0,0.6,0.3,1,0.9,1h2.2c0.6,0,0.9-0.3,0.9-1C32.8,18,32.5,17.7,31.9,17.7z M19.3,21.4
				C19.7,22.1,20.2,22.6,21,22.6c0.6,0.2,1.4,0.102,2.3-0.3c0.4-0.2,0.9-0.6,1.4-1.2c0.2-0.3,0.3-0.699,0.4-1.199s0-0.899-0.2-1.199
				c-0.1-0.5-0.6-0.801-1.4-1c-1.1-0.2-1.9-0.2-2.5,0.1c-0.4,0.2-0.7,0.4-0.9,0.602c-0.2,0.199-0.4,0.398-0.6,0.8
				C19,19.9,18.9,20.7,19.3,21.4z"/>
		</defs>
		<clipPath id="SVGID_9_">
			<use xlink:href="#SVGID_8_"  overflow="visible"/>
		</clipPath>
		
			<path clip-path="url(#SVGID_9_)" fill="none" stroke="#FFFFFF" stroke-linecap="round" stroke-linejoin="round" stroke-miterlimit="10" d="
			M40.4,20.895c0,0,1.734-0.733,2.564-5.95c0.42-2.644,1.919-8.253,5.199-8.166c3.226,0.086,4.95,4.995,5.2,8.487
			c0,0,1.518-4.128,5.506-3.685c1.438,0.16,4.138,2.633,6.031,5.063c0,0-0.998-4.139-2.563-6.946
			c-0.581-1.04-1.472-3.851-4.844-3.873c-2.038-0.013-3.97,4.574-5.146,9.526"/>
	</g>
	<g>
		<defs>
			<path id="SVGID_10_" d="M109.3,11.3c0.101,0.1,0.101,0.3,0.2,0.4c0.1,0.2,0.1,0.3,0.1,0.5c0,0.3-0.199,0.6-0.5,1.1l-0.1,0.2H68
				v0.7h3v2.6l0.4,0.4c0.199,0.2,0.3,0.5,0.3,0.899c0,0.199,0,0.301-0.101,0.301s-0.101,0-0.101,0.1v0.1c0,0.301-0.101,0.5-0.2,0.5
				s-0.199,0-0.3,0c-0.2,0-0.8,0-1.8,0s-2.5,0-4.602,0c-2.1,0-5.1,0-9,0C55.5,19.2,55.4,19.3,55.4,19.5c0.1,0,0.1,0,0.199,0.1
				L55.9,19.9l-0.2,0.6h-1.5L54,20.3c-0.1-0.1-0.2-0.5-0.5-1.2c-0.3-0.6-0.3-1.1-0.1-1.5c0-0.3,0.2-0.5,0.5-0.5H54
				c0.6,0,1,0.102,1.2,0.301c0.399,0,0.8-0.101,1.3-0.301L49,17c-0.1,0-0.4,0.1-1,0.3c-0.5,0.101-1.1,0.3-1.8,0.5
				c-0.6,0.2-1.3,0.3-1.9,0.5c-0.5,0.101-0.8,0.2-0.9,0.3v2.7l-8.8,0.9v-2.8c-0.5,0-0.7,0.1-0.8,0.199c-0.1,0.101-0.3,0.301-0.6,0.5
				C32.9,20.4,32.5,20.6,32,20.7c-0.5,0.2-1.1,0.2-1.8,0.2C29.5,20.8,28.8,20.6,27.9,20.1c-0.1,0-0.1,0-0.2,0.102
				c-0.1,0-0.2,0-0.3,0c0,0.3,0,0.699,0,1.199c-0.1,0.5-0.1,1-0.3,1.5c-0.1,0.5-0.2,1-0.5,1.5c-0.2,0.399-0.3,0.699-0.5,0.801
				c-0.4,0.199-1,0.3-1.8,0.199c-0.8-0.101-1.7-0.199-2.7-0.301c-1-0.1-1.8-0.3-2.6-0.398c-0.8-0.2-1.3-0.4-1.5-0.5
				C17.4,24,17,23.6,16.5,23c-0.4-0.3-0.8-0.7-1.2-1c-0.4-0.3-0.6-0.5-0.7-0.5H9.5c-0.2,1.4-0.3,2.2-0.4,2.5c0,0.2-0.1,0.3-0.2,0.3
				c-0.1,0.2-0.2,0.3-0.5,0.3c-0.2,0-0.6-0.1-1.3-0.3c-0.5,0-1,0-1.5,0s-0.9,0-1,0c-0.2,0-0.5,0-0.8,0.101
				C3.5,24.5,3.1,24.6,2.6,24.6C2.2,24.7,1.8,24.8,1.4,24.9C0.9,25,0.6,25,0.5,25.1H0.2c-0.1,0-0.1,0-0.1-0.1C0,24.7,0,24.5,0,24.2
				s0-0.8,0-1.5s0-1.7,0-3c0.1-1.2,0.2-2.3,0.2-3.4c0-1.2,0-2,0-2.5c0-0.2,0.3-0.4,0.8-0.7c0.5-0.2,1.6-0.3,3.4-0.2h1l0.1-0.1
				l0.1-0.1c0.1,0,0.1,0,0.2-0.1c0.1-0.1,0.2-0.1,0.3-0.2h9.2c0.2,0,0.4,0.1,0.6,0.3c0.5,0.3,0.8,0.7,1,1h10.4
				c0.1-0.2,0.2-0.5,0.3-1c0.1-0.4,0.2-0.7,0.2-1v-0.2h0.1c0.3-0.1,0.8-0.2,1.5-0.3c0.7,0,1.1-0.1,1.2-0.2c0.1,0,0.3,0,0.4-0.1
				c0-0.1,0.1-0.1,0.2-0.2h3.2v-1h-1.2c-0.1,0-0.5,0.1-1,0.2s-1.1,0.2-1.9,0.2c-0.7,0.1-1.4,0.1-2.2,0.2c-0.7,0-1.4,0-1.9-0.1
				L26.1,10l0,0C26,9.3,26,8.7,26,8.3c0-0.4,0-0.8,0-1c0-0.2,0-0.3,0.1-0.4l0.1-0.1h0.2l0.8-0.1c0.6,0,1.2-0.1,1.9-0.1
				c0.7-0.1,1.4-0.1,2.2-0.1c0.7,0,1.2,0,1.5,0.1c0.5,0,1,0,1.5,0c0.6,0,1.2,0,1.9,0c0.6,0,1.1,0,1.7,0c0.5-0.1,0.8-0.1,1.1-0.1V5.8
				c-0.1,0-0.1-0.1-0.1-0.2V5l3.2-0.2l0,0l0.4,1.1c0,0.1,0,0.1-0.1,0.1c-0.1,0.1-0.1,0.2-0.3,0.2v0.2h5.6c0.4-0.1,1.1-0.2,1.9-0.3
				c0.8-0.1,1.7-0.2,2.5-0.3c0.8-0.1,1.6-0.1,2.4-0.2c0.7,0,1.1,0,1.3,0.2L56,5.9l0.1,4.4H55.9c-4.7,0-7.2-0.2-7.5-0.5V10
				c-0.2-0.1-0.5-0.2-1.1-0.2c-0.5-0.1-1.2,0-1.9,0v0.9h63.7v0.2C109.1,11,109.2,11.2,109.3,11.3z M31.9,17.7h-2.2
				c-0.6,0-0.9,0.3-0.9,0.8c0,0.6,0.3,1,0.9,1h2.2c0.6,0,0.9-0.3,0.9-1C32.8,18,32.5,17.7,31.9,17.7z M19.3,21.4
				C19.7,22.1,20.2,22.6,21,22.6c0.6,0.2,1.4,0.102,2.3-0.3c0.4-0.2,0.9-0.6,1.4-1.2c0.2-0.3,0.3-0.699,0.4-1.199s0-0.899-0.2-1.199
				c-0.1-0.5-0.6-0.801-1.4-1c-1.1-0.2-1.9-0.2-2.5,0.1c-0.4,0.2-0.7,0.4-0.9,0.602c-0.2,0.199-0.4,0.398-0.6,0.8
				C19,19.9,18.9,20.7,19.3,21.4z"/>
		</defs>
		<clipPath id="SVGID_11_">
			<use xlink:href="#SVGID_10_"  overflow="visible"/>
		</clipPath>
		<path clip-path="url(#SVGID_11_)" fill="#A2CAFF" d="M53.598,18.248c1.238,0.872,0.436,5.66,0.436,5.66s1.329,2.762-1.098,4.1
			c-4.875,2.688-8.282-4.742-8.282-4.742s3.562,2.564,5.345,0.617C51.725,22,51.863,17.025,53.598,18.248z"/>
	</g>
	<g>
		<defs>
			<path id="SVGID_12_" d="M109.3,11.3c0.101,0.1,0.101,0.3,0.2,0.4c0.1,0.2,0.1,0.3,0.1,0.5c0,0.3-0.199,0.6-0.5,1.1l-0.1,0.2H68
				v0.7h3v2.6l0.4,0.4c0.199,0.2,0.3,0.5,0.3,0.899c0,0.199,0,0.301-0.101,0.301s-0.101,0-0.101,0.1v0.1c0,0.301-0.101,0.5-0.2,0.5
				s-0.199,0-0.3,0c-0.2,0-0.8,0-1.8,0s-2.5,0-4.602,0c-2.1,0-5.1,0-9,0C55.5,19.2,55.4,19.3,55.4,19.5c0.1,0,0.1,0,0.199,0.1
				L55.9,19.9l-0.2,0.6h-1.5L54,20.3c-0.1-0.1-0.2-0.5-0.5-1.2c-0.3-0.6-0.3-1.1-0.1-1.5c0-0.3,0.2-0.5,0.5-0.5H54
				c0.6,0,1,0.102,1.2,0.301c0.399,0,0.8-0.101,1.3-0.301L49,17c-0.1,0-0.4,0.1-1,0.3c-0.5,0.101-1.1,0.3-1.8,0.5
				c-0.6,0.2-1.3,0.3-1.9,0.5c-0.5,0.101-0.8,0.2-0.9,0.3v2.7l-8.8,0.9v-2.8c-0.5,0-0.7,0.1-0.8,0.199c-0.1,0.101-0.3,0.301-0.6,0.5
				C32.9,20.4,32.5,20.6,32,20.7c-0.5,0.2-1.1,0.2-1.8,0.2C29.5,20.8,28.8,20.6,27.9,20.1c-0.1,0-0.1,0-0.2,0.102
				c-0.1,0-0.2,0-0.3,0c0,0.3,0,0.699,0,1.199c-0.1,0.5-0.1,1-0.3,1.5c-0.1,0.5-0.2,1-0.5,1.5c-0.2,0.399-0.3,0.699-0.5,0.801
				c-0.4,0.199-1,0.3-1.8,0.199c-0.8-0.101-1.7-0.199-2.7-0.301c-1-0.1-1.8-0.3-2.6-0.398c-0.8-0.2-1.3-0.4-1.5-0.5
				C17.4,24,17,23.6,16.5,23c-0.4-0.3-0.8-0.7-1.2-1c-0.4-0.3-0.6-0.5-0.7-0.5H9.5c-0.2,1.4-0.3,2.2-0.4,2.5c0,0.2-0.1,0.3-0.2,0.3
				c-0.1,0.2-0.2,0.3-0.5,0.3c-0.2,0-0.6-0.1-1.3-0.3c-0.5,0-1,0-1.5,0s-0.9,0-1,0c-0.2,0-0.5,0-0.8,0.101
				C3.5,24.5,3.1,24.6,2.6,24.6C2.2,24.7,1.8,24.8,1.4,24.9C0.9,25,0.6,25,0.5,25.1H0.2c-0.1,0-0.1,0-0.1-0.1C0,24.7,0,24.5,0,24.2
				s0-0.8,0-1.5s0-1.7,0-3c0.1-1.2,0.2-2.3,0.2-3.4c0-1.2,0-2,0-2.5c0-0.2,0.3-0.4,0.8-0.7c0.5-0.2,1.6-0.3,3.4-0.2h1l0.1-0.1
				l0.1-0.1c0.1,0,0.1,0,0.2-0.1c0.1-0.1,0.2-0.1,0.3-0.2h9.2c0.2,0,0.4,0.1,0.6,0.3c0.5,0.3,0.8,0.7,1,1h10.4
				c0.1-0.2,0.2-0.5,0.3-1c0.1-0.4,0.2-0.7,0.2-1v-0.2h0.1c0.3-0.1,0.8-0.2,1.5-0.3c0.7,0,1.1-0.1,1.2-0.2c0.1,0,0.3,0,0.4-0.1
				c0-0.1,0.1-0.1,0.2-0.2h3.2v-1h-1.2c-0.1,0-0.5,0.1-1,0.2s-1.1,0.2-1.9,0.2c-0.7,0.1-1.4,0.1-2.2,0.2c-0.7,0-1.4,0-1.9-0.1
				L26.1,10l0,0C26,9.3,26,8.7,26,8.3c0-0.4,0-0.8,0-1c0-0.2,0-0.3,0.1-0.4l0.1-0.1h0.2l0.8-0.1c0.6,0,1.2-0.1,1.9-0.1
				c0.7-0.1,1.4-0.1,2.2-0.1c0.7,0,1.2,0,1.5,0.1c0.5,0,1,0,1.5,0c0.6,0,1.2,0,1.9,0c0.6,0,1.1,0,1.7,0c0.5-0.1,0.8-0.1,1.1-0.1V5.8
				c-0.1,0-0.1-0.1-0.1-0.2V5l3.2-0.2l0,0l0.4,1.1c0,0.1,0,0.1-0.1,0.1c-0.1,0.1-0.1,0.2-0.3,0.2v0.2h5.6c0.4-0.1,1.1-0.2,1.9-0.3
				c0.8-0.1,1.7-0.2,2.5-0.3c0.8-0.1,1.6-0.1,2.4-0.2c0.7,0,1.1,0,1.3,0.2L56,5.9l0.1,4.4H55.9c-4.7,0-7.2-0.2-7.5-0.5V10
				c-0.2-0.1-0.5-0.2-1.1-0.2c-0.5-0.1-1.2,0-1.9,0v0.9h63.7v0.2C109.1,11,109.2,11.2,109.3,11.3z M31.9,17.7h-2.2
				c-0.6,0-0.9,0.3-0.9,0.8c0,0.6,0.3,1,0.9,1h2.2c0.6,0,0.9-0.3,0.9-1C32.8,18,32.5,17.7,31.9,17.7z M19.3,21.4
				C19.7,22.1,20.2,22.6,21,22.6c0.6,0.2,1.4,0.102,2.3-0.3c0.4-0.2,0.9-0.6,1.4-1.2c0.2-0.3,0.3-0.699,0.4-1.199s0-0.899-0.2-1.199
				c-0.1-0.5-0.6-0.801-1.4-1c-1.1-0.2-1.9-0.2-2.5,0.1c-0.4,0.2-0.7,0.4-0.9,0.602c-0.2,0.199-0.4,0.398-0.6,0.8
				C19,19.9,18.9,20.7,19.3,21.4z"/>
		</defs>
		<clipPath id="SVGID_13_">
			<use xlink:href="#SVGID_12_"  overflow="visible"/>
		</clipPath>
		<path clip-path="url(#SVGID_13_)" fill="#AFCDFF" d="M16.589,10.088c0,0-4.108,1.936-6.546,0.625
			C7.605,9.404,2.318,7.442,2.318,7.442S-2.2,13.408-2.298,13.62c-0.101,0.216,5.235,7.694,5.235,7.694l8.935-0.683L16.589,10.088z"
			/>
	</g>
	<g>
		<defs>
			<path id="SVGID_14_" d="M109.3,11.3c0.101,0.1,0.101,0.3,0.2,0.4c0.1,0.2,0.1,0.3,0.1,0.5c0,0.3-0.199,0.6-0.5,1.1l-0.1,0.2H68
				v0.7h3v2.6l0.4,0.4c0.199,0.2,0.3,0.5,0.3,0.899c0,0.199,0,0.301-0.101,0.301s-0.101,0-0.101,0.1v0.1c0,0.301-0.101,0.5-0.2,0.5
				s-0.199,0-0.3,0c-0.2,0-0.8,0-1.8,0s-2.5,0-4.602,0c-2.1,0-5.1,0-9,0C55.5,19.2,55.4,19.3,55.4,19.5c0.1,0,0.1,0,0.199,0.1
				L55.9,19.9l-0.2,0.6h-1.5L54,20.3c-0.1-0.1-0.2-0.5-0.5-1.2c-0.3-0.6-0.3-1.1-0.1-1.5c0-0.3,0.2-0.5,0.5-0.5H54
				c0.6,0,1,0.102,1.2,0.301c0.399,0,0.8-0.101,1.3-0.301L49,17c-0.1,0-0.4,0.1-1,0.3c-0.5,0.101-1.1,0.3-1.8,0.5
				c-0.6,0.2-1.3,0.3-1.9,0.5c-0.5,0.101-0.8,0.2-0.9,0.3v2.7l-8.8,0.9v-2.8c-0.5,0-0.7,0.1-0.8,0.199c-0.1,0.101-0.3,0.301-0.6,0.5
				C32.9,20.4,32.5,20.6,32,20.7c-0.5,0.2-1.1,0.2-1.8,0.2C29.5,20.8,28.8,20.6,27.9,20.1c-0.1,0-0.1,0-0.2,0.102
				c-0.1,0-0.2,0-0.3,0c0,0.3,0,0.699,0,1.199c-0.1,0.5-0.1,1-0.3,1.5c-0.1,0.5-0.2,1-0.5,1.5c-0.2,0.399-0.3,0.699-0.5,0.801
				c-0.4,0.199-1,0.3-1.8,0.199c-0.8-0.101-1.7-0.199-2.7-0.301c-1-0.1-1.8-0.3-2.6-0.398c-0.8-0.2-1.3-0.4-1.5-0.5
				C17.4,24,17,23.6,16.5,23c-0.4-0.3-0.8-0.7-1.2-1c-0.4-0.3-0.6-0.5-0.7-0.5H9.5c-0.2,1.4-0.3,2.2-0.4,2.5c0,0.2-0.1,0.3-0.2,0.3
				c-0.1,0.2-0.2,0.3-0.5,0.3c-0.2,0-0.6-0.1-1.3-0.3c-0.5,0-1,0-1.5,0s-0.9,0-1,0c-0.2,0-0.5,0-0.8,0.101
				C3.5,24.5,3.1,24.6,2.6,24.6C2.2,24.7,1.8,24.8,1.4,24.9C0.9,25,0.6,25,0.5,25.1H0.2c-0.1,0-0.1,0-0.1-0.1C0,24.7,0,24.5,0,24.2
				s0-0.8,0-1.5s0-1.7,0-3c0.1-1.2,0.2-2.3,0.2-3.4c0-1.2,0-2,0-2.5c0-0.2,0.3-0.4,0.8-0.7c0.5-0.2,1.6-0.3,3.4-0.2h1l0.1-0.1
				l0.1-0.1c0.1,0,0.1,0,0.2-0.1c0.1-0.1,0.2-0.1,0.3-0.2h9.2c0.2,0,0.4,0.1,0.6,0.3c0.5,0.3,0.8,0.7,1,1h10.4
				c0.1-0.2,0.2-0.5,0.3-1c0.1-0.4,0.2-0.7,0.2-1v-0.2h0.1c0.3-0.1,0.8-0.2,1.5-0.3c0.7,0,1.1-0.1,1.2-0.2c0.1,0,0.3,0,0.4-0.1
				c0-0.1,0.1-0.1,0.2-0.2h3.2v-1h-1.2c-0.1,0-0.5,0.1-1,0.2s-1.1,0.2-1.9,0.2c-0.7,0.1-1.4,0.1-2.2,0.2c-0.7,0-1.4,0-1.9-0.1
				L26.1,10l0,0C26,9.3,26,8.7,26,8.3c0-0.4,0-0.8,0-1c0-0.2,0-0.3,0.1-0.4l0.1-0.1h0.2l0.8-0.1c0.6,0,1.2-0.1,1.9-0.1
				c0.7-0.1,1.4-0.1,2.2-0.1c0.7,0,1.2,0,1.5,0.1c0.5,0,1,0,1.5,0c0.6,0,1.2,0,1.9,0c0.6,0,1.1,0,1.7,0c0.5-0.1,0.8-0.1,1.1-0.1V5.8
				c-0.1,0-0.1-0.1-0.1-0.2V5l3.2-0.2l0,0l0.4,1.1c0,0.1,0,0.1-0.1,0.1c-0.1,0.1-0.1,0.2-0.3,0.2v0.2h5.6c0.4-0.1,1.1-0.2,1.9-0.3
				c0.8-0.1,1.7-0.2,2.5-0.3c0.8-0.1,1.6-0.1,2.4-0.2c0.7,0,1.1,0,1.3,0.2L56,5.9l0.1,4.4H55.9c-4.7,0-7.2-0.2-7.5-0.5V10
				c-0.2-0.1-0.5-0.2-1.1-0.2c-0.5-0.1-1.2,0-1.9,0v0.9h63.7v0.2C109.1,11,109.2,11.2,109.3,11.3z M31.9,17.7h-2.2
				c-0.6,0-0.9,0.3-0.9,0.8c0,0.6,0.3,1,0.9,1h2.2c0.6,0,0.9-0.3,0.9-1C32.8,18,32.5,17.7,31.9,17.7z M19.3,21.4
				C19.7,22.1,20.2,22.6,21,22.6c0.6,0.2,1.4,0.102,2.3-0.3c0.4-0.2,0.9-0.6,1.4-1.2c0.2-0.3,0.3-0.699,0.4-1.199s0-0.899-0.2-1.199
				c-0.1-0.5-0.6-0.801-1.4-1c-1.1-0.2-1.9-0.2-2.5,0.1c-0.4,0.2-0.7,0.4-0.9,0.602c-0.2,0.199-0.4,0.398-0.6,0.8
				C19,19.9,18.9,20.7,19.3,21.4z"/>
		</defs>
		<clipPath id="SVGID_15_">
			<use xlink:href="#SVGID_14_"  overflow="visible"/>
		</clipPath>
		<path clip-path="url(#SVGID_15_)" fill="#E9EDFF" d="M11.004,18.75c0,0-2.79-1.195-4.896-1.354C4.003,17.238,0.142,16,0.142,16
			s-1.2,7.314-1.2,7.55c0,0.238,6.094,4.763,6.094,4.763l5.952-4.392L11.004,18.75z"/>
	</g>
	<g>
		<defs>
			<path id="SVGID_16_" d="M109.3,11.3c0.101,0.1,0.101,0.3,0.2,0.4c0.1,0.2,0.1,0.3,0.1,0.5c0,0.3-0.199,0.6-0.5,1.1l-0.1,0.2H68
				v0.7h3v2.6l0.4,0.4c0.199,0.2,0.3,0.5,0.3,0.899c0,0.199,0,0.301-0.101,0.301s-0.101,0-0.101,0.1v0.1c0,0.301-0.101,0.5-0.2,0.5
				s-0.199,0-0.3,0c-0.2,0-0.8,0-1.8,0s-2.5,0-4.602,0c-2.1,0-5.1,0-9,0C55.5,19.2,55.4,19.3,55.4,19.5c0.1,0,0.1,0,0.199,0.1
				L55.9,19.9l-0.2,0.6h-1.5L54,20.3c-0.1-0.1-0.2-0.5-0.5-1.2c-0.3-0.6-0.3-1.1-0.1-1.5c0-0.3,0.2-0.5,0.5-0.5H54
				c0.6,0,1,0.102,1.2,0.301c0.399,0,0.8-0.101,1.3-0.301L49,17c-0.1,0-0.4,0.1-1,0.3c-0.5,0.101-1.1,0.3-1.8,0.5
				c-0.6,0.2-1.3,0.3-1.9,0.5c-0.5,0.101-0.8,0.2-0.9,0.3v2.7l-8.8,0.9v-2.8c-0.5,0-0.7,0.1-0.8,0.199c-0.1,0.101-0.3,0.301-0.6,0.5
				C32.9,20.4,32.5,20.6,32,20.7c-0.5,0.2-1.1,0.2-1.8,0.2C29.5,20.8,28.8,20.6,27.9,20.1c-0.1,0-0.1,0-0.2,0.102
				c-0.1,0-0.2,0-0.3,0c0,0.3,0,0.699,0,1.199c-0.1,0.5-0.1,1-0.3,1.5c-0.1,0.5-0.2,1-0.5,1.5c-0.2,0.399-0.3,0.699-0.5,0.801
				c-0.4,0.199-1,0.3-1.8,0.199c-0.8-0.101-1.7-0.199-2.7-0.301c-1-0.1-1.8-0.3-2.6-0.398c-0.8-0.2-1.3-0.4-1.5-0.5
				C17.4,24,17,23.6,16.5,23c-0.4-0.3-0.8-0.7-1.2-1c-0.4-0.3-0.6-0.5-0.7-0.5H9.5c-0.2,1.4-0.3,2.2-0.4,2.5c0,0.2-0.1,0.3-0.2,0.3
				c-0.1,0.2-0.2,0.3-0.5,0.3c-0.2,0-0.6-0.1-1.3-0.3c-0.5,0-1,0-1.5,0s-0.9,0-1,0c-0.2,0-0.5,0-0.8,0.101
				C3.5,24.5,3.1,24.6,2.6,24.6C2.2,24.7,1.8,24.8,1.4,24.9C0.9,25,0.6,25,0.5,25.1H0.2c-0.1,0-0.1,0-0.1-0.1C0,24.7,0,24.5,0,24.2
				s0-0.8,0-1.5s0-1.7,0-3c0.1-1.2,0.2-2.3,0.2-3.4c0-1.2,0-2,0-2.5c0-0.2,0.3-0.4,0.8-0.7c0.5-0.2,1.6-0.3,3.4-0.2h1l0.1-0.1
				l0.1-0.1c0.1,0,0.1,0,0.2-0.1c0.1-0.1,0.2-0.1,0.3-0.2h9.2c0.2,0,0.4,0.1,0.6,0.3c0.5,0.3,0.8,0.7,1,1h10.4
				c0.1-0.2,0.2-0.5,0.3-1c0.1-0.4,0.2-0.7,0.2-1v-0.2h0.1c0.3-0.1,0.8-0.2,1.5-0.3c0.7,0,1.1-0.1,1.2-0.2c0.1,0,0.3,0,0.4-0.1
				c0-0.1,0.1-0.1,0.2-0.2h3.2v-1h-1.2c-0.1,0-0.5,0.1-1,0.2s-1.1,0.2-1.9,0.2c-0.7,0.1-1.4,0.1-2.2,0.2c-0.7,0-1.4,0-1.9-0.1
				L26.1,10l0,0C26,9.3,26,8.7,26,8.3c0-0.4,0-0.8,0-1c0-0.2,0-0.3,0.1-0.4l0.1-0.1h0.2l0.8-0.1c0.6,0,1.2-0.1,1.9-0.1
				c0.7-0.1,1.4-0.1,2.2-0.1c0.7,0,1.2,0,1.5,0.1c0.5,0,1,0,1.5,0c0.6,0,1.2,0,1.9,0c0.6,0,1.1,0,1.7,0c0.5-0.1,0.8-0.1,1.1-0.1V5.8
				c-0.1,0-0.1-0.1-0.1-0.2V5l3.2-0.2l0,0l0.4,1.1c0,0.1,0,0.1-0.1,0.1c-0.1,0.1-0.1,0.2-0.3,0.2v0.2h5.6c0.4-0.1,1.1-0.2,1.9-0.3
				c0.8-0.1,1.7-0.2,2.5-0.3c0.8-0.1,1.6-0.1,2.4-0.2c0.7,0,1.1,0,1.3,0.2L56,5.9l0.1,4.4H55.9c-4.7,0-7.2-0.2-7.5-0.5V10
				c-0.2-0.1-0.5-0.2-1.1-0.2c-0.5-0.1-1.2,0-1.9,0v0.9h63.7v0.2C109.1,11,109.2,11.2,109.3,11.3z M31.9,17.7h-2.2
				c-0.6,0-0.9,0.3-0.9,0.8c0,0.6,0.3,1,0.9,1h2.2c0.6,0,0.9-0.3,0.9-1C32.8,18,32.5,17.7,31.9,17.7z M19.3,21.4
				C19.7,22.1,20.2,22.6,21,22.6c0.6,0.2,1.4,0.102,2.3-0.3c0.4-0.2,0.9-0.6,1.4-1.2c0.2-0.3,0.3-0.699,0.4-1.199s0-0.899-0.2-1.199
				c-0.1-0.5-0.6-0.801-1.4-1c-1.1-0.2-1.9-0.2-2.5,0.1c-0.4,0.2-0.7,0.4-0.9,0.602c-0.2,0.199-0.4,0.398-0.6,0.8
				C19,19.9,18.9,20.7,19.3,21.4z"/>
		</defs>
		<clipPath id="SVGID_17_">
			<use xlink:href="#SVGID_16_"  overflow="visible"/>
		</clipPath>
		
			<linearGradient id="SVGID_18_" gradientUnits="userSpaceOnUse" x1="314.5918" y1="-406.9199" x2="314.5918" y2="-397.4214" gradientTransform="matrix(0.9982 -0.0606 -0.0606 -0.9982 -280.4731 -366.0899)">
			<stop  offset="0" style="stop-color:#158CFF"/>
			<stop  offset="0.6989" style="stop-color:#FFFFFF"/>
		</linearGradient>
		<path clip-path="url(#SVGID_17_)" fill="url(#SVGID_18_)" d="M49.567,20.154c0,0,2.861-8.89,9.619-8.663
			c5.012,0.169,7.586,9.022,7.586,9.022L49.567,20.154z"/>
	</g>
	<g>
		<defs>
			<path id="SVGID_19_" d="M109.3,11.3c0.101,0.1,0.101,0.3,0.2,0.4c0.1,0.2,0.1,0.3,0.1,0.5c0,0.3-0.199,0.6-0.5,1.1l-0.1,0.2H68
				v0.7h3v2.6l0.4,0.4c0.199,0.2,0.3,0.5,0.3,0.899c0,0.199,0,0.301-0.101,0.301s-0.101,0-0.101,0.1v0.1c0,0.301-0.101,0.5-0.2,0.5
				s-0.199,0-0.3,0c-0.2,0-0.8,0-1.8,0s-2.5,0-4.602,0c-2.1,0-5.1,0-9,0C55.5,19.2,55.4,19.3,55.4,19.5c0.1,0,0.1,0,0.199,0.1
				L55.9,19.9l-0.2,0.6h-1.5L54,20.3c-0.1-0.1-0.2-0.5-0.5-1.2c-0.3-0.6-0.3-1.1-0.1-1.5c0-0.3,0.2-0.5,0.5-0.5H54
				c0.6,0,1,0.102,1.2,0.301c0.399,0,0.8-0.101,1.3-0.301L49,17c-0.1,0-0.4,0.1-1,0.3c-0.5,0.101-1.1,0.3-1.8,0.5
				c-0.6,0.2-1.3,0.3-1.9,0.5c-0.5,0.101-0.8,0.2-0.9,0.3v2.7l-8.8,0.9v-2.8c-0.5,0-0.7,0.1-0.8,0.199c-0.1,0.101-0.3,0.301-0.6,0.5
				C32.9,20.4,32.5,20.6,32,20.7c-0.5,0.2-1.1,0.2-1.8,0.2C29.5,20.8,28.8,20.6,27.9,20.1c-0.1,0-0.1,0-0.2,0.102
				c-0.1,0-0.2,0-0.3,0c0,0.3,0,0.699,0,1.199c-0.1,0.5-0.1,1-0.3,1.5c-0.1,0.5-0.2,1-0.5,1.5c-0.2,0.399-0.3,0.699-0.5,0.801
				c-0.4,0.199-1,0.3-1.8,0.199c-0.8-0.101-1.7-0.199-2.7-0.301c-1-0.1-1.8-0.3-2.6-0.398c-0.8-0.2-1.3-0.4-1.5-0.5
				C17.4,24,17,23.6,16.5,23c-0.4-0.3-0.8-0.7-1.2-1c-0.4-0.3-0.6-0.5-0.7-0.5H9.5c-0.2,1.4-0.3,2.2-0.4,2.5c0,0.2-0.1,0.3-0.2,0.3
				c-0.1,0.2-0.2,0.3-0.5,0.3c-0.2,0-0.6-0.1-1.3-0.3c-0.5,0-1,0-1.5,0s-0.9,0-1,0c-0.2,0-0.5,0-0.8,0.101
				C3.5,24.5,3.1,24.6,2.6,24.6C2.2,24.7,1.8,24.8,1.4,24.9C0.9,25,0.6,25,0.5,25.1H0.2c-0.1,0-0.1,0-0.1-0.1C0,24.7,0,24.5,0,24.2
				s0-0.8,0-1.5s0-1.7,0-3c0.1-1.2,0.2-2.3,0.2-3.4c0-1.2,0-2,0-2.5c0-0.2,0.3-0.4,0.8-0.7c0.5-0.2,1.6-0.3,3.4-0.2h1l0.1-0.1
				l0.1-0.1c0.1,0,0.1,0,0.2-0.1c0.1-0.1,0.2-0.1,0.3-0.2h9.2c0.2,0,0.4,0.1,0.6,0.3c0.5,0.3,0.8,0.7,1,1h10.4
				c0.1-0.2,0.2-0.5,0.3-1c0.1-0.4,0.2-0.7,0.2-1v-0.2h0.1c0.3-0.1,0.8-0.2,1.5-0.3c0.7,0,1.1-0.1,1.2-0.2c0.1,0,0.3,0,0.4-0.1
				c0-0.1,0.1-0.1,0.2-0.2h3.2v-1h-1.2c-0.1,0-0.5,0.1-1,0.2s-1.1,0.2-1.9,0.2c-0.7,0.1-1.4,0.1-2.2,0.2c-0.7,0-1.4,0-1.9-0.1
				L26.1,10l0,0C26,9.3,26,8.7,26,8.3c0-0.4,0-0.8,0-1c0-0.2,0-0.3,0.1-0.4l0.1-0.1h0.2l0.8-0.1c0.6,0,1.2-0.1,1.9-0.1
				c0.7-0.1,1.4-0.1,2.2-0.1c0.7,0,1.2,0,1.5,0.1c0.5,0,1,0,1.5,0c0.6,0,1.2,0,1.9,0c0.6,0,1.1,0,1.7,0c0.5-0.1,0.8-0.1,1.1-0.1V5.8
				c-0.1,0-0.1-0.1-0.1-0.2V5l3.2-0.2l0,0l0.4,1.1c0,0.1,0,0.1-0.1,0.1c-0.1,0.1-0.1,0.2-0.3,0.2v0.2h5.6c0.4-0.1,1.1-0.2,1.9-0.3
				c0.8-0.1,1.7-0.2,2.5-0.3c0.8-0.1,1.6-0.1,2.4-0.2c0.7,0,1.1,0,1.3,0.2L56,5.9l0.1,4.4H55.9c-4.7,0-7.2-0.2-7.5-0.5V10
				c-0.2-0.1-0.5-0.2-1.1-0.2c-0.5-0.1-1.2,0-1.9,0v0.9h63.7v0.2C109.1,11,109.2,11.2,109.3,11.3z M31.9,17.7h-2.2
				c-0.6,0-0.9,0.3-0.9,0.8c0,0.6,0.3,1,0.9,1h2.2c0.6,0,0.9-0.3,0.9-1C32.8,18,32.5,17.7,31.9,17.7z M19.3,21.4
				C19.7,22.1,20.2,22.6,21,22.6c0.6,0.2,1.4,0.102,2.3-0.3c0.4-0.2,0.9-0.6,1.4-1.2c0.2-0.3,0.3-0.699,0.4-1.199s0-0.899-0.2-1.199
				c-0.1-0.5-0.6-0.801-1.4-1c-1.1-0.2-1.9-0.2-2.5,0.1c-0.4,0.2-0.7,0.4-0.9,0.602c-0.2,0.199-0.4,0.398-0.6,0.8
				C19,19.9,18.9,20.7,19.3,21.4z"/>
		</defs>
		<clipPath id="SVGID_20_">
			<use xlink:href="#SVGID_19_"  overflow="visible"/>
		</clipPath>
		<path clip-path="url(#SVGID_20_)" fill="#FFFFFF" d="M25.162,17.396c0,0,2.491-4.736-0.397-3.937
			c-1.959,0.542-3.466,4.051-3.466,4.051s-7.992,8.39-7.961,8.554c0.031,0.162,12.579,1.631,12.579,1.631l3.022-7.646L25.162,17.396
			z"/>
	</g>
	<g>
		<defs>
			<path id="SVGID_21_" d="M109.3,11.3c0.101,0.1,0.101,0.3,0.2,0.4c0.1,0.2,0.1,0.3,0.1,0.5c0,0.3-0.199,0.6-0.5,1.1l-0.1,0.2H68
				v0.7h3v2.6l0.4,0.4c0.199,0.2,0.3,0.5,0.3,0.899c0,0.199,0,0.301-0.101,0.301s-0.101,0-0.101,0.1v0.1c0,0.301-0.101,0.5-0.2,0.5
				s-0.199,0-0.3,0c-0.2,0-0.8,0-1.8,0s-2.5,0-4.602,0c-2.1,0-5.1,0-9,0C55.5,19.2,55.4,19.3,55.4,19.5c0.1,0,0.1,0,0.199,0.1
				L55.9,19.9l-0.2,0.6h-1.5L54,20.3c-0.1-0.1-0.2-0.5-0.5-1.2c-0.3-0.6-0.3-1.1-0.1-1.5c0-0.3,0.2-0.5,0.5-0.5H54
				c0.6,0,1,0.102,1.2,0.301c0.399,0,0.8-0.101,1.3-0.301L49,17c-0.1,0-0.4,0.1-1,0.3c-0.5,0.101-1.1,0.3-1.8,0.5
				c-0.6,0.2-1.3,0.3-1.9,0.5c-0.5,0.101-0.8,0.2-0.9,0.3v2.7l-8.8,0.9v-2.8c-0.5,0-0.7,0.1-0.8,0.199c-0.1,0.101-0.3,0.301-0.6,0.5
				C32.9,20.4,32.5,20.6,32,20.7c-0.5,0.2-1.1,0.2-1.8,0.2C29.5,20.8,28.8,20.6,27.9,20.1c-0.1,0-0.1,0-0.2,0.102
				c-0.1,0-0.2,0-0.3,0c0,0.3,0,0.699,0,1.199c-0.1,0.5-0.1,1-0.3,1.5c-0.1,0.5-0.2,1-0.5,1.5c-0.2,0.399-0.3,0.699-0.5,0.801
				c-0.4,0.199-1,0.3-1.8,0.199c-0.8-0.101-1.7-0.199-2.7-0.301c-1-0.1-1.8-0.3-2.6-0.398c-0.8-0.2-1.3-0.4-1.5-0.5
				C17.4,24,17,23.6,16.5,23c-0.4-0.3-0.8-0.7-1.2-1c-0.4-0.3-0.6-0.5-0.7-0.5H9.5c-0.2,1.4-0.3,2.2-0.4,2.5c0,0.2-0.1,0.3-0.2,0.3
				c-0.1,0.2-0.2,0.3-0.5,0.3c-0.2,0-0.6-0.1-1.3-0.3c-0.5,0-1,0-1.5,0s-0.9,0-1,0c-0.2,0-0.5,0-0.8,0.101
				C3.5,24.5,3.1,24.6,2.6,24.6C2.2,24.7,1.8,24.8,1.4,24.9C0.9,25,0.6,25,0.5,25.1H0.2c-0.1,0-0.1,0-0.1-0.1C0,24.7,0,24.5,0,24.2
				s0-0.8,0-1.5s0-1.7,0-3c0.1-1.2,0.2-2.3,0.2-3.4c0-1.2,0-2,0-2.5c0-0.2,0.3-0.4,0.8-0.7c0.5-0.2,1.6-0.3,3.4-0.2h1l0.1-0.1
				l0.1-0.1c0.1,0,0.1,0,0.2-0.1c0.1-0.1,0.2-0.1,0.3-0.2h9.2c0.2,0,0.4,0.1,0.6,0.3c0.5,0.3,0.8,0.7,1,1h10.4
				c0.1-0.2,0.2-0.5,0.3-1c0.1-0.4,0.2-0.7,0.2-1v-0.2h0.1c0.3-0.1,0.8-0.2,1.5-0.3c0.7,0,1.1-0.1,1.2-0.2c0.1,0,0.3,0,0.4-0.1
				c0-0.1,0.1-0.1,0.2-0.2h3.2v-1h-1.2c-0.1,0-0.5,0.1-1,0.2s-1.1,0.2-1.9,0.2c-0.7,0.1-1.4,0.1-2.2,0.2c-0.7,0-1.4,0-1.9-0.1
				L26.1,10l0,0C26,9.3,26,8.7,26,8.3c0-0.4,0-0.8,0-1c0-0.2,0-0.3,0.1-0.4l0.1-0.1h0.2l0.8-0.1c0.6,0,1.2-0.1,1.9-0.1
				c0.7-0.1,1.4-0.1,2.2-0.1c0.7,0,1.2,0,1.5,0.1c0.5,0,1,0,1.5,0c0.6,0,1.2,0,1.9,0c0.6,0,1.1,0,1.7,0c0.5-0.1,0.8-0.1,1.1-0.1V5.8
				c-0.1,0-0.1-0.1-0.1-0.2V5l3.2-0.2l0,0l0.4,1.1c0,0.1,0,0.1-0.1,0.1c-0.1,0.1-0.1,0.2-0.3,0.2v0.2h5.6c0.4-0.1,1.1-0.2,1.9-0.3
				c0.8-0.1,1.7-0.2,2.5-0.3c0.8-0.1,1.6-0.1,2.4-0.2c0.7,0,1.1,0,1.3,0.2L56,5.9l0.1,4.4H55.9c-4.7,0-7.2-0.2-7.5-0.5V10
				c-0.2-0.1-0.5-0.2-1.1-0.2c-0.5-0.1-1.2,0-1.9,0v0.9h63.7v0.2C109.1,11,109.2,11.2,109.3,11.3z M31.9,17.7h-2.2
				c-0.6,0-0.9,0.3-0.9,0.8c0,0.6,0.3,1,0.9,1h2.2c0.6,0,0.9-0.3,0.9-1C32.8,18,32.5,17.7,31.9,17.7z M19.3,21.4
				C19.7,22.1,20.2,22.6,21,22.6c0.6,0.2,1.4,0.102,2.3-0.3c0.4-0.2,0.9-0.6,1.4-1.2c0.2-0.3,0.3-0.699,0.4-1.199s0-0.899-0.2-1.199
				c-0.1-0.5-0.6-0.801-1.4-1c-1.1-0.2-1.9-0.2-2.5,0.1c-0.4,0.2-0.7,0.4-0.9,0.602c-0.2,0.199-0.4,0.398-0.6,0.8
				C19,19.9,18.9,20.7,19.3,21.4z"/>
		</defs>
		<clipPath id="SVGID_22_">
			<use xlink:href="#SVGID_21_"  overflow="visible"/>
		</clipPath>
		<path clip-path="url(#SVGID_22_)" fill="#A4BAFF" d="M14.827,16.141c0.333,0.332,5.448-1.716,5.448-1.716
			s-0.711,1.798-0.046,3.294c0.664,1.496,3.49,1.412,4.653,0.832c1.164-0.582,1.662-2.161,3.989-0.915
			c0.888,0.476,1.568-3.795,2.698,1.494c0.624,2.92,2.454,1.414,2.454,1.414s2.941-0.685,3.107-1.433
			c0.167-0.747-0.68-1.033,0.4-1.781c1.081-0.748,0.192-1.978-0.066-2.718c-1.432-4.099-2.125-5.844-2.125-5.844
			s4.806,0.61,2.562-0.885c-2.243-1.496-3.05-4.406-5.708-0.75c-2.659,3.656-3.975,3.88-3.975,3.88s-1.286,1.708-3.817,1.12
			c-2.209-0.514-3.258-0.563-5.002-0.646s-4.238-0.499-4.903,0.083s-2.908,1.517-3.656,1.091c-0.748-0.426,2.185,0.726,1.936,2.056
			C12.525,16.046,14.495,15.808,14.827,16.141z"/>
	</g>
	<g>
		<defs>
			<path id="SVGID_23_" d="M109.3,11.3c0.101,0.1,0.101,0.3,0.2,0.4c0.1,0.2,0.1,0.3,0.1,0.5c0,0.3-0.199,0.6-0.5,1.1l-0.1,0.2H68
				v0.7h3v2.6l0.4,0.4c0.199,0.2,0.3,0.5,0.3,0.899c0,0.199,0,0.301-0.101,0.301s-0.101,0-0.101,0.1v0.1c0,0.301-0.101,0.5-0.2,0.5
				s-0.199,0-0.3,0c-0.2,0-0.8,0-1.8,0s-2.5,0-4.602,0c-2.1,0-5.1,0-9,0C55.5,19.2,55.4,19.3,55.4,19.5c0.1,0,0.1,0,0.199,0.1
				L55.9,19.9l-0.2,0.6h-1.5L54,20.3c-0.1-0.1-0.2-0.5-0.5-1.2c-0.3-0.6-0.3-1.1-0.1-1.5c0-0.3,0.2-0.5,0.5-0.5H54
				c0.6,0,1,0.102,1.2,0.301c0.399,0,0.8-0.101,1.3-0.301L49,17c-0.1,0-0.4,0.1-1,0.3c-0.5,0.101-1.1,0.3-1.8,0.5
				c-0.6,0.2-1.3,0.3-1.9,0.5c-0.5,0.101-0.8,0.2-0.9,0.3v2.7l-8.8,0.9v-2.8c-0.5,0-0.7,0.1-0.8,0.199c-0.1,0.101-0.3,0.301-0.6,0.5
				C32.9,20.4,32.5,20.6,32,20.7c-0.5,0.2-1.1,0.2-1.8,0.2C29.5,20.8,28.8,20.6,27.9,20.1c-0.1,0-0.1,0-0.2,0.102
				c-0.1,0-0.2,0-0.3,0c0,0.3,0,0.699,0,1.199c-0.1,0.5-0.1,1-0.3,1.5c-0.1,0.5-0.2,1-0.5,1.5c-0.2,0.399-0.3,0.699-0.5,0.801
				c-0.4,0.199-1,0.3-1.8,0.199c-0.8-0.101-1.7-0.199-2.7-0.301c-1-0.1-1.8-0.3-2.6-0.398c-0.8-0.2-1.3-0.4-1.5-0.5
				C17.4,24,17,23.6,16.5,23c-0.4-0.3-0.8-0.7-1.2-1c-0.4-0.3-0.6-0.5-0.7-0.5H9.5c-0.2,1.4-0.3,2.2-0.4,2.5c0,0.2-0.1,0.3-0.2,0.3
				c-0.1,0.2-0.2,0.3-0.5,0.3c-0.2,0-0.6-0.1-1.3-0.3c-0.5,0-1,0-1.5,0s-0.9,0-1,0c-0.2,0-0.5,0-0.8,0.101
				C3.5,24.5,3.1,24.6,2.6,24.6C2.2,24.7,1.8,24.8,1.4,24.9C0.9,25,0.6,25,0.5,25.1H0.2c-0.1,0-0.1,0-0.1-0.1C0,24.7,0,24.5,0,24.2
				s0-0.8,0-1.5s0-1.7,0-3c0.1-1.2,0.2-2.3,0.2-3.4c0-1.2,0-2,0-2.5c0-0.2,0.3-0.4,0.8-0.7c0.5-0.2,1.6-0.3,3.4-0.2h1l0.1-0.1
				l0.1-0.1c0.1,0,0.1,0,0.2-0.1c0.1-0.1,0.2-0.1,0.3-0.2h9.2c0.2,0,0.4,0.1,0.6,0.3c0.5,0.3,0.8,0.7,1,1h10.4
				c0.1-0.2,0.2-0.5,0.3-1c0.1-0.4,0.2-0.7,0.2-1v-0.2h0.1c0.3-0.1,0.8-0.2,1.5-0.3c0.7,0,1.1-0.1,1.2-0.2c0.1,0,0.3,0,0.4-0.1
				c0-0.1,0.1-0.1,0.2-0.2h3.2v-1h-1.2c-0.1,0-0.5,0.1-1,0.2s-1.1,0.2-1.9,0.2c-0.7,0.1-1.4,0.1-2.2,0.2c-0.7,0-1.4,0-1.9-0.1
				L26.1,10l0,0C26,9.3,26,8.7,26,8.3c0-0.4,0-0.8,0-1c0-0.2,0-0.3,0.1-0.4l0.1-0.1h0.2l0.8-0.1c0.6,0,1.2-0.1,1.9-0.1
				c0.7-0.1,1.4-0.1,2.2-0.1c0.7,0,1.2,0,1.5,0.1c0.5,0,1,0,1.5,0c0.6,0,1.2,0,1.9,0c0.6,0,1.1,0,1.7,0c0.5-0.1,0.8-0.1,1.1-0.1V5.8
				c-0.1,0-0.1-0.1-0.1-0.2V5l3.2-0.2l0,0l0.4,1.1c0,0.1,0,0.1-0.1,0.1c-0.1,0.1-0.1,0.2-0.3,0.2v0.2h5.6c0.4-0.1,1.1-0.2,1.9-0.3
				c0.8-0.1,1.7-0.2,2.5-0.3c0.8-0.1,1.6-0.1,2.4-0.2c0.7,0,1.1,0,1.3,0.2L56,5.9l0.1,4.4H55.9c-4.7,0-7.2-0.2-7.5-0.5V10
				c-0.2-0.1-0.5-0.2-1.1-0.2c-0.5-0.1-1.2,0-1.9,0v0.9h63.7v0.2C109.1,11,109.2,11.2,109.3,11.3z M31.9,17.7h-2.2
				c-0.6,0-0.9,0.3-0.9,0.8c0,0.6,0.3,1,0.9,1h2.2c0.6,0,0.9-0.3,0.9-1C32.8,18,32.5,17.7,31.9,17.7z M19.3,21.4
				C19.7,22.1,20.2,22.6,21,22.6c0.6,0.2,1.4,0.102,2.3-0.3c0.4-0.2,0.9-0.6,1.4-1.2c0.2-0.3,0.3-0.699,0.4-1.199s0-0.899-0.2-1.199
				c-0.1-0.5-0.6-0.801-1.4-1c-1.1-0.2-1.9-0.2-2.5,0.1c-0.4,0.2-0.7,0.4-0.9,0.602c-0.2,0.199-0.4,0.398-0.6,0.8
				C19,19.9,18.9,20.7,19.3,21.4z"/>
		</defs>
		<clipPath id="SVGID_24_">
			<use xlink:href="#SVGID_23_"  overflow="visible"/>
		</clipPath>
		<path clip-path="url(#SVGID_24_)" fill="#E9EDFF" d="M37.254,12.904c0,0,4.246-3.321,10.371-5.216
			c4.869-1.506,10.518,3.637,11,1.438C60.625,0,23.75,4.8,23.75,4.8s-2.601,7.783-2.601,8.017c0,0.119,4.209-0.681,6.209,0.399
			s1.792,4.042,1.792,4.042l4.25-6.083l2.281-0.656L37.254,12.904z"/>
	</g>
	<g>
		<defs>
			<path id="SVGID_25_" d="M109.3,11.3c0.101,0.1,0.101,0.3,0.2,0.4c0.1,0.2,0.1,0.3,0.1,0.5c0,0.3-0.199,0.6-0.5,1.1l-0.1,0.2H68
				v0.7h3v2.6l0.4,0.4c0.199,0.2,0.3,0.5,0.3,0.899c0,0.199,0,0.301-0.101,0.301s-0.101,0-0.101,0.1v0.1c0,0.301-0.101,0.5-0.2,0.5
				s-0.199,0-0.3,0c-0.2,0-0.8,0-1.8,0s-2.5,0-4.602,0c-2.1,0-5.1,0-9,0C55.5,19.2,55.4,19.3,55.4,19.5c0.1,0,0.1,0,0.199,0.1
				L55.9,19.9l-0.2,0.6h-1.5L54,20.3c-0.1-0.1-0.2-0.5-0.5-1.2c-0.3-0.6-0.3-1.1-0.1-1.5c0-0.3,0.2-0.5,0.5-0.5H54
				c0.6,0,1,0.102,1.2,0.301c0.399,0,0.8-0.101,1.3-0.301L49,17c-0.1,0-0.4,0.1-1,0.3c-0.5,0.101-1.1,0.3-1.8,0.5
				c-0.6,0.2-1.3,0.3-1.9,0.5c-0.5,0.101-0.8,0.2-0.9,0.3v2.7l-8.8,0.9v-2.8c-0.5,0-0.7,0.1-0.8,0.199c-0.1,0.101-0.3,0.301-0.6,0.5
				C32.9,20.4,32.5,20.6,32,20.7c-0.5,0.2-1.1,0.2-1.8,0.2C29.5,20.8,28.8,20.6,27.9,20.1c-0.1,0-0.1,0-0.2,0.102
				c-0.1,0-0.2,0-0.3,0c0,0.3,0,0.699,0,1.199c-0.1,0.5-0.1,1-0.3,1.5c-0.1,0.5-0.2,1-0.5,1.5c-0.2,0.399-0.3,0.699-0.5,0.801
				c-0.4,0.199-1,0.3-1.8,0.199c-0.8-0.101-1.7-0.199-2.7-0.301c-1-0.1-1.8-0.3-2.6-0.398c-0.8-0.2-1.3-0.4-1.5-0.5
				C17.4,24,17,23.6,16.5,23c-0.4-0.3-0.8-0.7-1.2-1c-0.4-0.3-0.6-0.5-0.7-0.5H9.5c-0.2,1.4-0.3,2.2-0.4,2.5c0,0.2-0.1,0.3-0.2,0.3
				c-0.1,0.2-0.2,0.3-0.5,0.3c-0.2,0-0.6-0.1-1.3-0.3c-0.5,0-1,0-1.5,0s-0.9,0-1,0c-0.2,0-0.5,0-0.8,0.101
				C3.5,24.5,3.1,24.6,2.6,24.6C2.2,24.7,1.8,24.8,1.4,24.9C0.9,25,0.6,25,0.5,25.1H0.2c-0.1,0-0.1,0-0.1-0.1C0,24.7,0,24.5,0,24.2
				s0-0.8,0-1.5s0-1.7,0-3c0.1-1.2,0.2-2.3,0.2-3.4c0-1.2,0-2,0-2.5c0-0.2,0.3-0.4,0.8-0.7c0.5-0.2,1.6-0.3,3.4-0.2h1l0.1-0.1
				l0.1-0.1c0.1,0,0.1,0,0.2-0.1c0.1-0.1,0.2-0.1,0.3-0.2h9.2c0.2,0,0.4,0.1,0.6,0.3c0.5,0.3,0.8,0.7,1,1h10.4
				c0.1-0.2,0.2-0.5,0.3-1c0.1-0.4,0.2-0.7,0.2-1v-0.2h0.1c0.3-0.1,0.8-0.2,1.5-0.3c0.7,0,1.1-0.1,1.2-0.2c0.1,0,0.3,0,0.4-0.1
				c0-0.1,0.1-0.1,0.2-0.2h3.2v-1h-1.2c-0.1,0-0.5,0.1-1,0.2s-1.1,0.2-1.9,0.2c-0.7,0.1-1.4,0.1-2.2,0.2c-0.7,0-1.4,0-1.9-0.1
				L26.1,10l0,0C26,9.3,26,8.7,26,8.3c0-0.4,0-0.8,0-1c0-0.2,0-0.3,0.1-0.4l0.1-0.1h0.2l0.8-0.1c0.6,0,1.2-0.1,1.9-0.1
				c0.7-0.1,1.4-0.1,2.2-0.1c0.7,0,1.2,0,1.5,0.1c0.5,0,1,0,1.5,0c0.6,0,1.2,0,1.9,0c0.6,0,1.1,0,1.7,0c0.5-0.1,0.8-0.1,1.1-0.1V5.8
				c-0.1,0-0.1-0.1-0.1-0.2V5l3.2-0.2l0,0l0.4,1.1c0,0.1,0,0.1-0.1,0.1c-0.1,0.1-0.1,0.2-0.3,0.2v0.2h5.6c0.4-0.1,1.1-0.2,1.9-0.3
				c0.8-0.1,1.7-0.2,2.5-0.3c0.8-0.1,1.6-0.1,2.4-0.2c0.7,0,1.1,0,1.3,0.2L56,5.9l0.1,4.4H55.9c-4.7,0-7.2-0.2-7.5-0.5V10
				c-0.2-0.1-0.5-0.2-1.1-0.2c-0.5-0.1-1.2,0-1.9,0v0.9h63.7v0.2C109.1,11,109.2,11.2,109.3,11.3z M31.9,17.7h-2.2
				c-0.6,0-0.9,0.3-0.9,0.8c0,0.6,0.3,1,0.9,1h2.2c0.6,0,0.9-0.3,0.9-1C32.8,18,32.5,17.7,31.9,17.7z M19.3,21.4
				C19.7,22.1,20.2,22.6,21,22.6c0.6,0.2,1.4,0.102,2.3-0.3c0.4-0.2,0.9-0.6,1.4-1.2c0.2-0.3,0.3-0.699,0.4-1.199s0-0.899-0.2-1.199
				c-0.1-0.5-0.6-0.801-1.4-1c-1.1-0.2-1.9-0.2-2.5,0.1c-0.4,0.2-0.7,0.4-0.9,0.602c-0.2,0.199-0.4,0.398-0.6,0.8
				C19,19.9,18.9,20.7,19.3,21.4z"/>
		</defs>
		<clipPath id="SVGID_26_">
			<use xlink:href="#SVGID_25_"  overflow="visible"/>
		</clipPath>
		<path clip-path="url(#SVGID_26_)" fill="#FFFFFF" d="M3.625,11.625c0,0-3.3,3.414-3.054,4.871c0.246,1.457,1.308,3.943,1.88,3.086
			c0.573-0.857,1.565-3.519,2.141-4.37c0.524-0.773,1.813-3.125,4.687-1.721c0.92,0.45,2.658,1.805,2.658,1.805
			s2.044-4.885,7.85-4.885c0,0-5.563,2.466-6.571,5.302c-1.638,4.607,4.829,6.551,4.829,6.551l4.51-2.801l-4.18,3.646l-9.386,2.063
			c0,0,2.89-2.418,2.699-4.918c-0.154-2.012-0.848-3.441-0.848-3.441s-2.158-3.583-4.526-1.184
			c-1.742,1.768-2.633,5.238-2.633,5.238l1.717,1.715l2.125,0.17l0.818,2.914c0,0-0.572,1.199-2.78-0.428
			c-2.207-1.631-2.535-2.316-2.535-2.316s-1.717,0.943-0.735,3.688c0.98,2.742-1.676,3.17-1.737,2.912
			c-0.062-0.258-1.737-4.883,0-6.6c1.737-1.713-0.471-1.713-1.779-5.568c-1.308-3.856-0.654-6.771,1.39-5.399
			C2.206,13.325,3.625,11.625,3.625,11.625z"/>
	</g>
	<g>
		<defs>
			<path id="SVGID_27_" d="M109.3,11.3c0.101,0.1,0.101,0.3,0.2,0.4c0.1,0.2,0.1,0.3,0.1,0.5c0,0.3-0.199,0.6-0.5,1.1l-0.1,0.2H68
				v0.7h3v2.6l0.4,0.4c0.199,0.2,0.3,0.5,0.3,0.899c0,0.199,0,0.301-0.101,0.301s-0.101,0-0.101,0.1v0.1c0,0.301-0.101,0.5-0.2,0.5
				s-0.199,0-0.3,0c-0.2,0-0.8,0-1.8,0s-2.5,0-4.602,0c-2.1,0-5.1,0-9,0C55.5,19.2,55.4,19.3,55.4,19.5c0.1,0,0.1,0,0.199,0.1
				L55.9,19.9l-0.2,0.6h-1.5L54,20.3c-0.1-0.1-0.2-0.5-0.5-1.2c-0.3-0.6-0.3-1.1-0.1-1.5c0-0.3,0.2-0.5,0.5-0.5H54
				c0.6,0,1,0.102,1.2,0.301c0.399,0,0.8-0.101,1.3-0.301L49,17c-0.1,0-0.4,0.1-1,0.3c-0.5,0.101-1.1,0.3-1.8,0.5
				c-0.6,0.2-1.3,0.3-1.9,0.5c-0.5,0.101-0.8,0.2-0.9,0.3v2.7l-8.8,0.9v-2.8c-0.5,0-0.7,0.1-0.8,0.199c-0.1,0.101-0.3,0.301-0.6,0.5
				C32.9,20.4,32.5,20.6,32,20.7c-0.5,0.2-1.1,0.2-1.8,0.2C29.5,20.8,28.8,20.6,27.9,20.1c-0.1,0-0.1,0-0.2,0.102
				c-0.1,0-0.2,0-0.3,0c0,0.3,0,0.699,0,1.199c-0.1,0.5-0.1,1-0.3,1.5c-0.1,0.5-0.2,1-0.5,1.5c-0.2,0.399-0.3,0.699-0.5,0.801
				c-0.4,0.199-1,0.3-1.8,0.199c-0.8-0.101-1.7-0.199-2.7-0.301c-1-0.1-1.8-0.3-2.6-0.398c-0.8-0.2-1.3-0.4-1.5-0.5
				C17.4,24,17,23.6,16.5,23c-0.4-0.3-0.8-0.7-1.2-1c-0.4-0.3-0.6-0.5-0.7-0.5H9.5c-0.2,1.4-0.3,2.2-0.4,2.5c0,0.2-0.1,0.3-0.2,0.3
				c-0.1,0.2-0.2,0.3-0.5,0.3c-0.2,0-0.6-0.1-1.3-0.3c-0.5,0-1,0-1.5,0s-0.9,0-1,0c-0.2,0-0.5,0-0.8,0.101
				C3.5,24.5,3.1,24.6,2.6,24.6C2.2,24.7,1.8,24.8,1.4,24.9C0.9,25,0.6,25,0.5,25.1H0.2c-0.1,0-0.1,0-0.1-0.1C0,24.7,0,24.5,0,24.2
				s0-0.8,0-1.5s0-1.7,0-3c0.1-1.2,0.2-2.3,0.2-3.4c0-1.2,0-2,0-2.5c0-0.2,0.3-0.4,0.8-0.7c0.5-0.2,1.6-0.3,3.4-0.2h1l0.1-0.1
				l0.1-0.1c0.1,0,0.1,0,0.2-0.1c0.1-0.1,0.2-0.1,0.3-0.2h9.2c0.2,0,0.4,0.1,0.6,0.3c0.5,0.3,0.8,0.7,1,1h10.4
				c0.1-0.2,0.2-0.5,0.3-1c0.1-0.4,0.2-0.7,0.2-1v-0.2h0.1c0.3-0.1,0.8-0.2,1.5-0.3c0.7,0,1.1-0.1,1.2-0.2c0.1,0,0.3,0,0.4-0.1
				c0-0.1,0.1-0.1,0.2-0.2h3.2v-1h-1.2c-0.1,0-0.5,0.1-1,0.2s-1.1,0.2-1.9,0.2c-0.7,0.1-1.4,0.1-2.2,0.2c-0.7,0-1.4,0-1.9-0.1
				L26.1,10l0,0C26,9.3,26,8.7,26,8.3c0-0.4,0-0.8,0-1c0-0.2,0-0.3,0.1-0.4l0.1-0.1h0.2l0.8-0.1c0.6,0,1.2-0.1,1.9-0.1
				c0.7-0.1,1.4-0.1,2.2-0.1c0.7,0,1.2,0,1.5,0.1c0.5,0,1,0,1.5,0c0.6,0,1.2,0,1.9,0c0.6,0,1.1,0,1.7,0c0.5-0.1,0.8-0.1,1.1-0.1V5.8
				c-0.1,0-0.1-0.1-0.1-0.2V5l3.2-0.2l0,0l0.4,1.1c0,0.1,0,0.1-0.1,0.1c-0.1,0.1-0.1,0.2-0.3,0.2v0.2h5.6c0.4-0.1,1.1-0.2,1.9-0.3
				c0.8-0.1,1.7-0.2,2.5-0.3c0.8-0.1,1.6-0.1,2.4-0.2c0.7,0,1.1,0,1.3,0.2L56,5.9l0.1,4.4H55.9c-4.7,0-7.2-0.2-7.5-0.5V10
				c-0.2-0.1-0.5-0.2-1.1-0.2c-0.5-0.1-1.2,0-1.9,0v0.9h63.7v0.2C109.1,11,109.2,11.2,109.3,11.3z M31.9,17.7h-2.2
				c-0.6,0-0.9,0.3-0.9,0.8c0,0.6,0.3,1,0.9,1h2.2c0.6,0,0.9-0.3,0.9-1C32.8,18,32.5,17.7,31.9,17.7z M19.3,21.4
				C19.7,22.1,20.2,22.6,21,22.6c0.6,0.2,1.4,0.102,2.3-0.3c0.4-0.2,0.9-0.6,1.4-1.2c0.2-0.3,0.3-0.699,0.4-1.199s0-0.899-0.2-1.199
				c-0.1-0.5-0.6-0.801-1.4-1c-1.1-0.2-1.9-0.2-2.5,0.1c-0.4,0.2-0.7,0.4-0.9,0.602c-0.2,0.199-0.4,0.398-0.6,0.8
				C19,19.9,18.9,20.7,19.3,21.4z"/>
		</defs>
		<clipPath id="SVGID_28_">
			<use xlink:href="#SVGID_27_"  overflow="visible"/>
		</clipPath>
		
			<linearGradient id="SVGID_29_" gradientUnits="userSpaceOnUse" x1="378.9561" y1="-386.3921" x2="378.9561" y2="-382.3286" gradientTransform="matrix(1 0 0 -1 -281.5996 -371.96)">
			<stop  offset="0" style="stop-color:#158CFF"/>
			<stop  offset="0.6989" style="stop-color:#FFFFFF"/>
		</linearGradient>
		<path clip-path="url(#SVGID_28_)" fill="url(#SVGID_29_)" d="M90.787,13.747c0,0,2.389-3.562,6.145-3.371
			c3.758,0.192,6.992,4.056,6.992,4.056L90.787,13.747z"/>
	</g>
	<g>
		<defs>
			<path id="SVGID_30_" d="M109.3,11.3c0.101,0.1,0.101,0.3,0.2,0.4c0.1,0.2,0.1,0.3,0.1,0.5c0,0.3-0.199,0.6-0.5,1.1l-0.1,0.2H68
				v0.7h3v2.6l0.4,0.4c0.199,0.2,0.3,0.5,0.3,0.899c0,0.199,0,0.301-0.101,0.301s-0.101,0-0.101,0.1v0.1c0,0.301-0.101,0.5-0.2,0.5
				s-0.199,0-0.3,0c-0.2,0-0.8,0-1.8,0s-2.5,0-4.602,0c-2.1,0-5.1,0-9,0C55.5,19.2,55.4,19.3,55.4,19.5c0.1,0,0.1,0,0.199,0.1
				L55.9,19.9l-0.2,0.6h-1.5L54,20.3c-0.1-0.1-0.2-0.5-0.5-1.2c-0.3-0.6-0.3-1.1-0.1-1.5c0-0.3,0.2-0.5,0.5-0.5H54
				c0.6,0,1,0.102,1.2,0.301c0.399,0,0.8-0.101,1.3-0.301L49,17c-0.1,0-0.4,0.1-1,0.3c-0.5,0.101-1.1,0.3-1.8,0.5
				c-0.6,0.2-1.3,0.3-1.9,0.5c-0.5,0.101-0.8,0.2-0.9,0.3v2.7l-8.8,0.9v-2.8c-0.5,0-0.7,0.1-0.8,0.199c-0.1,0.101-0.3,0.301-0.6,0.5
				C32.9,20.4,32.5,20.6,32,20.7c-0.5,0.2-1.1,0.2-1.8,0.2C29.5,20.8,28.8,20.6,27.9,20.1c-0.1,0-0.1,0-0.2,0.102
				c-0.1,0-0.2,0-0.3,0c0,0.3,0,0.699,0,1.199c-0.1,0.5-0.1,1-0.3,1.5c-0.1,0.5-0.2,1-0.5,1.5c-0.2,0.399-0.3,0.699-0.5,0.801
				c-0.4,0.199-1,0.3-1.8,0.199c-0.8-0.101-1.7-0.199-2.7-0.301c-1-0.1-1.8-0.3-2.6-0.398c-0.8-0.2-1.3-0.4-1.5-0.5
				C17.4,24,17,23.6,16.5,23c-0.4-0.3-0.8-0.7-1.2-1c-0.4-0.3-0.6-0.5-0.7-0.5H9.5c-0.2,1.4-0.3,2.2-0.4,2.5c0,0.2-0.1,0.3-0.2,0.3
				c-0.1,0.2-0.2,0.3-0.5,0.3c-0.2,0-0.6-0.1-1.3-0.3c-0.5,0-1,0-1.5,0s-0.9,0-1,0c-0.2,0-0.5,0-0.8,0.101
				C3.5,24.5,3.1,24.6,2.6,24.6C2.2,24.7,1.8,24.8,1.4,24.9C0.9,25,0.6,25,0.5,25.1H0.2c-0.1,0-0.1,0-0.1-0.1C0,24.7,0,24.5,0,24.2
				s0-0.8,0-1.5s0-1.7,0-3c0.1-1.2,0.2-2.3,0.2-3.4c0-1.2,0-2,0-2.5c0-0.2,0.3-0.4,0.8-0.7c0.5-0.2,1.6-0.3,3.4-0.2h1l0.1-0.1
				l0.1-0.1c0.1,0,0.1,0,0.2-0.1c0.1-0.1,0.2-0.1,0.3-0.2h9.2c0.2,0,0.4,0.1,0.6,0.3c0.5,0.3,0.8,0.7,1,1h10.4
				c0.1-0.2,0.2-0.5,0.3-1c0.1-0.4,0.2-0.7,0.2-1v-0.2h0.1c0.3-0.1,0.8-0.2,1.5-0.3c0.7,0,1.1-0.1,1.2-0.2c0.1,0,0.3,0,0.4-0.1
				c0-0.1,0.1-0.1,0.2-0.2h3.2v-1h-1.2c-0.1,0-0.5,0.1-1,0.2s-1.1,0.2-1.9,0.2c-0.7,0.1-1.4,0.1-2.2,0.2c-0.7,0-1.4,0-1.9-0.1
				L26.1,10l0,0C26,9.3,26,8.7,26,8.3c0-0.4,0-0.8,0-1c0-0.2,0-0.3,0.1-0.4l0.1-0.1h0.2l0.8-0.1c0.6,0,1.2-0.1,1.9-0.1
				c0.7-0.1,1.4-0.1,2.2-0.1c0.7,0,1.2,0,1.5,0.1c0.5,0,1,0,1.5,0c0.6,0,1.2,0,1.9,0c0.6,0,1.1,0,1.7,0c0.5-0.1,0.8-0.1,1.1-0.1V5.8
				c-0.1,0-0.1-0.1-0.1-0.2V5l3.2-0.2l0,0l0.4,1.1c0,0.1,0,0.1-0.1,0.1c-0.1,0.1-0.1,0.2-0.3,0.2v0.2h5.6c0.4-0.1,1.1-0.2,1.9-0.3
				c0.8-0.1,1.7-0.2,2.5-0.3c0.8-0.1,1.6-0.1,2.4-0.2c0.7,0,1.1,0,1.3,0.2L56,5.9l0.1,4.4H55.9c-4.7,0-7.2-0.2-7.5-0.5V10
				c-0.2-0.1-0.5-0.2-1.1-0.2c-0.5-0.1-1.2,0-1.9,0v0.9h63.7v0.2C109.1,11,109.2,11.2,109.3,11.3z M31.9,17.7h-2.2
				c-0.6,0-0.9,0.3-0.9,0.8c0,0.6,0.3,1,0.9,1h2.2c0.6,0,0.9-0.3,0.9-1C32.8,18,32.5,17.7,31.9,17.7z M19.3,21.4
				C19.7,22.1,20.2,22.6,21,22.6c0.6,0.2,1.4,0.102,2.3-0.3c0.4-0.2,0.9-0.6,1.4-1.2c0.2-0.3,0.3-0.699,0.4-1.199s0-0.899-0.2-1.199
				c-0.1-0.5-0.6-0.801-1.4-1c-1.1-0.2-1.9-0.2-2.5,0.1c-0.4,0.2-0.7,0.4-0.9,0.602c-0.2,0.199-0.4,0.398-0.6,0.8
				C19,19.9,18.9,20.7,19.3,21.4z"/>
		</defs>
		<clipPath id="SVGID_31_">
			<use xlink:href="#SVGID_30_"  overflow="visible"/>
		</clipPath>
		<path clip-path="url(#SVGID_31_)" fill="#B3B3FF" d="M29.425,17.75c0,0,5.872-1.23,7.741-0.711
			c1.87,0.521,0.734-1.614,0.203-2.833c-1.048-2.405-0.706-4.081-3.055-3.705C32.837,10.737,30.127,14.974,29.425,17.75z"/>
	</g>
	<g>
		<defs>
			<path id="SVGID_32_" d="M109.3,11.3c0.101,0.1,0.101,0.3,0.2,0.4c0.1,0.2,0.1,0.3,0.1,0.5c0,0.3-0.199,0.6-0.5,1.1l-0.1,0.2H68
				v0.7h3v2.6l0.4,0.4c0.199,0.2,0.3,0.5,0.3,0.899c0,0.199,0,0.301-0.101,0.301s-0.101,0-0.101,0.1v0.1c0,0.301-0.101,0.5-0.2,0.5
				s-0.199,0-0.3,0c-0.2,0-0.8,0-1.8,0s-2.5,0-4.602,0c-2.1,0-5.1,0-9,0C55.5,19.2,55.4,19.3,55.4,19.5c0.1,0,0.1,0,0.199,0.1
				L55.9,19.9l-0.2,0.6h-1.5L54,20.3c-0.1-0.1-0.2-0.5-0.5-1.2c-0.3-0.6-0.3-1.1-0.1-1.5c0-0.3,0.2-0.5,0.5-0.5H54
				c0.6,0,1,0.102,1.2,0.301c0.399,0,0.8-0.101,1.3-0.301L49,17c-0.1,0-0.4,0.1-1,0.3c-0.5,0.101-1.1,0.3-1.8,0.5
				c-0.6,0.2-1.3,0.3-1.9,0.5c-0.5,0.101-0.8,0.2-0.9,0.3v2.7l-8.8,0.9v-2.8c-0.5,0-0.7,0.1-0.8,0.199c-0.1,0.101-0.3,0.301-0.6,0.5
				C32.9,20.4,32.5,20.6,32,20.7c-0.5,0.2-1.1,0.2-1.8,0.2C29.5,20.8,28.8,20.6,27.9,20.1c-0.1,0-0.1,0-0.2,0.102
				c-0.1,0-0.2,0-0.3,0c0,0.3,0,0.699,0,1.199c-0.1,0.5-0.1,1-0.3,1.5c-0.1,0.5-0.2,1-0.5,1.5c-0.2,0.399-0.3,0.699-0.5,0.801
				c-0.4,0.199-1,0.3-1.8,0.199c-0.8-0.101-1.7-0.199-2.7-0.301c-1-0.1-1.8-0.3-2.6-0.398c-0.8-0.2-1.3-0.4-1.5-0.5
				C17.4,24,17,23.6,16.5,23c-0.4-0.3-0.8-0.7-1.2-1c-0.4-0.3-0.6-0.5-0.7-0.5H9.5c-0.2,1.4-0.3,2.2-0.4,2.5c0,0.2-0.1,0.3-0.2,0.3
				c-0.1,0.2-0.2,0.3-0.5,0.3c-0.2,0-0.6-0.1-1.3-0.3c-0.5,0-1,0-1.5,0s-0.9,0-1,0c-0.2,0-0.5,0-0.8,0.101
				C3.5,24.5,3.1,24.6,2.6,24.6C2.2,24.7,1.8,24.8,1.4,24.9C0.9,25,0.6,25,0.5,25.1H0.2c-0.1,0-0.1,0-0.1-0.1C0,24.7,0,24.5,0,24.2
				s0-0.8,0-1.5s0-1.7,0-3c0.1-1.2,0.2-2.3,0.2-3.4c0-1.2,0-2,0-2.5c0-0.2,0.3-0.4,0.8-0.7c0.5-0.2,1.6-0.3,3.4-0.2h1l0.1-0.1
				l0.1-0.1c0.1,0,0.1,0,0.2-0.1c0.1-0.1,0.2-0.1,0.3-0.2h9.2c0.2,0,0.4,0.1,0.6,0.3c0.5,0.3,0.8,0.7,1,1h10.4
				c0.1-0.2,0.2-0.5,0.3-1c0.1-0.4,0.2-0.7,0.2-1v-0.2h0.1c0.3-0.1,0.8-0.2,1.5-0.3c0.7,0,1.1-0.1,1.2-0.2c0.1,0,0.3,0,0.4-0.1
				c0-0.1,0.1-0.1,0.2-0.2h3.2v-1h-1.2c-0.1,0-0.5,0.1-1,0.2s-1.1,0.2-1.9,0.2c-0.7,0.1-1.4,0.1-2.2,0.2c-0.7,0-1.4,0-1.9-0.1
				L26.1,10l0,0C26,9.3,26,8.7,26,8.3c0-0.4,0-0.8,0-1c0-0.2,0-0.3,0.1-0.4l0.1-0.1h0.2l0.8-0.1c0.6,0,1.2-0.1,1.9-0.1
				c0.7-0.1,1.4-0.1,2.2-0.1c0.7,0,1.2,0,1.5,0.1c0.5,0,1,0,1.5,0c0.6,0,1.2,0,1.9,0c0.6,0,1.1,0,1.7,0c0.5-0.1,0.8-0.1,1.1-0.1V5.8
				c-0.1,0-0.1-0.1-0.1-0.2V5l3.2-0.2l0,0l0.4,1.1c0,0.1,0,0.1-0.1,0.1c-0.1,0.1-0.1,0.2-0.3,0.2v0.2h5.6c0.4-0.1,1.1-0.2,1.9-0.3
				c0.8-0.1,1.7-0.2,2.5-0.3c0.8-0.1,1.6-0.1,2.4-0.2c0.7,0,1.1,0,1.3,0.2L56,5.9l0.1,4.4H55.9c-4.7,0-7.2-0.2-7.5-0.5V10
				c-0.2-0.1-0.5-0.2-1.1-0.2c-0.5-0.1-1.2,0-1.9,0v0.9h63.7v0.2C109.1,11,109.2,11.2,109.3,11.3z M31.9,17.7h-2.2
				c-0.6,0-0.9,0.3-0.9,0.8c0,0.6,0.3,1,0.9,1h2.2c0.6,0,0.9-0.3,0.9-1C32.8,18,32.5,17.7,31.9,17.7z M19.3,21.4
				C19.7,22.1,20.2,22.6,21,22.6c0.6,0.2,1.4,0.102,2.3-0.3c0.4-0.2,0.9-0.6,1.4-1.2c0.2-0.3,0.3-0.699,0.4-1.199s0-0.899-0.2-1.199
				c-0.1-0.5-0.6-0.801-1.4-1c-1.1-0.2-1.9-0.2-2.5,0.1c-0.4,0.2-0.7,0.4-0.9,0.602c-0.2,0.199-0.4,0.398-0.6,0.8
				C19,19.9,18.9,20.7,19.3,21.4z"/>
		</defs>
		<clipPath id="SVGID_33_">
			<use xlink:href="#SVGID_32_"  overflow="visible"/>
		</clipPath>
		<path clip-path="url(#SVGID_33_)" fill="#FFFFFF" d="M24.879,10.966c-2.146,0.604-1.93,4.153-1.333,5.229
			c1.813,3.271,4.206,2.351,4.583,1.834c0.928-1.271,0.114-0.291,1.812-2.979c1.079-1.708,2.428-5.564,4.866-5.206
			c1.615,0.237,2.912,2.852,3.425,5.953c0.87,5.255,3.105,5.752,5.011,6.502c0.983,0.387-1.375,0.906-1.375,0.906
			s-3.801-1.18-4.49-6.698c-0.375-3.007-1.567-5.501-3.073-5.521c-2.375-0.031-4.881,6.763-4.881,6.763s-0.451,1.851-3.004,1.425
			c-5.375-0.896-3.917-7.167-3.917-7.167l2.521-1.417L24.879,10.966z"/>
	</g>
	<g>
		<defs>
			<path id="SVGID_34_" d="M109.3,11.3c0.101,0.1,0.101,0.3,0.2,0.4c0.1,0.2,0.1,0.3,0.1,0.5c0,0.3-0.199,0.6-0.5,1.1l-0.1,0.2H68
				v0.7h3v2.6l0.4,0.4c0.199,0.2,0.3,0.5,0.3,0.899c0,0.199,0,0.301-0.101,0.301s-0.101,0-0.101,0.1v0.1c0,0.301-0.101,0.5-0.2,0.5
				s-0.199,0-0.3,0c-0.2,0-0.8,0-1.8,0s-2.5,0-4.602,0c-2.1,0-5.1,0-9,0C55.5,19.2,55.4,19.3,55.4,19.5c0.1,0,0.1,0,0.199,0.1
				L55.9,19.9l-0.2,0.6h-1.5L54,20.3c-0.1-0.1-0.2-0.5-0.5-1.2c-0.3-0.6-0.3-1.1-0.1-1.5c0-0.3,0.2-0.5,0.5-0.5H54
				c0.6,0,1,0.102,1.2,0.301c0.399,0,0.8-0.101,1.3-0.301L49,17c-0.1,0-0.4,0.1-1,0.3c-0.5,0.101-1.1,0.3-1.8,0.5
				c-0.6,0.2-1.3,0.3-1.9,0.5c-0.5,0.101-0.8,0.2-0.9,0.3v2.7l-8.8,0.9v-2.8c-0.5,0-0.7,0.1-0.8,0.199c-0.1,0.101-0.3,0.301-0.6,0.5
				C32.9,20.4,32.5,20.6,32,20.7c-0.5,0.2-1.1,0.2-1.8,0.2C29.5,20.8,28.8,20.6,27.9,20.1c-0.1,0-0.1,0-0.2,0.102
				c-0.1,0-0.2,0-0.3,0c0,0.3,0,0.699,0,1.199c-0.1,0.5-0.1,1-0.3,1.5c-0.1,0.5-0.2,1-0.5,1.5c-0.2,0.399-0.3,0.699-0.5,0.801
				c-0.4,0.199-1,0.3-1.8,0.199c-0.8-0.101-1.7-0.199-2.7-0.301c-1-0.1-1.8-0.3-2.6-0.398c-0.8-0.2-1.3-0.4-1.5-0.5
				C17.4,24,17,23.6,16.5,23c-0.4-0.3-0.8-0.7-1.2-1c-0.4-0.3-0.6-0.5-0.7-0.5H9.5c-0.2,1.4-0.3,2.2-0.4,2.5c0,0.2-0.1,0.3-0.2,0.3
				c-0.1,0.2-0.2,0.3-0.5,0.3c-0.2,0-0.6-0.1-1.3-0.3c-0.5,0-1,0-1.5,0s-0.9,0-1,0c-0.2,0-0.5,0-0.8,0.101
				C3.5,24.5,3.1,24.6,2.6,24.6C2.2,24.7,1.8,24.8,1.4,24.9C0.9,25,0.6,25,0.5,25.1H0.2c-0.1,0-0.1,0-0.1-0.1C0,24.7,0,24.5,0,24.2
				s0-0.8,0-1.5s0-1.7,0-3c0.1-1.2,0.2-2.3,0.2-3.4c0-1.2,0-2,0-2.5c0-0.2,0.3-0.4,0.8-0.7c0.5-0.2,1.6-0.3,3.4-0.2h1l0.1-0.1
				l0.1-0.1c0.1,0,0.1,0,0.2-0.1c0.1-0.1,0.2-0.1,0.3-0.2h9.2c0.2,0,0.4,0.1,0.6,0.3c0.5,0.3,0.8,0.7,1,1h10.4
				c0.1-0.2,0.2-0.5,0.3-1c0.1-0.4,0.2-0.7,0.2-1v-0.2h0.1c0.3-0.1,0.8-0.2,1.5-0.3c0.7,0,1.1-0.1,1.2-0.2c0.1,0,0.3,0,0.4-0.1
				c0-0.1,0.1-0.1,0.2-0.2h3.2v-1h-1.2c-0.1,0-0.5,0.1-1,0.2s-1.1,0.2-1.9,0.2c-0.7,0.1-1.4,0.1-2.2,0.2c-0.7,0-1.4,0-1.9-0.1
				L26.1,10l0,0C26,9.3,26,8.7,26,8.3c0-0.4,0-0.8,0-1c0-0.2,0-0.3,0.1-0.4l0.1-0.1h0.2l0.8-0.1c0.6,0,1.2-0.1,1.9-0.1
				c0.7-0.1,1.4-0.1,2.2-0.1c0.7,0,1.2,0,1.5,0.1c0.5,0,1,0,1.5,0c0.6,0,1.2,0,1.9,0c0.6,0,1.1,0,1.7,0c0.5-0.1,0.8-0.1,1.1-0.1V5.8
				c-0.1,0-0.1-0.1-0.1-0.2V5l3.2-0.2l0,0l0.4,1.1c0,0.1,0,0.1-0.1,0.1c-0.1,0.1-0.1,0.2-0.3,0.2v0.2h5.6c0.4-0.1,1.1-0.2,1.9-0.3
				c0.8-0.1,1.7-0.2,2.5-0.3c0.8-0.1,1.6-0.1,2.4-0.2c0.7,0,1.1,0,1.3,0.2L56,5.9l0.1,4.4H55.9c-4.7,0-7.2-0.2-7.5-0.5V10
				c-0.2-0.1-0.5-0.2-1.1-0.2c-0.5-0.1-1.2,0-1.9,0v0.9h63.7v0.2C109.1,11,109.2,11.2,109.3,11.3z M31.9,17.7h-2.2
				c-0.6,0-0.9,0.3-0.9,0.8c0,0.6,0.3,1,0.9,1h2.2c0.6,0,0.9-0.3,0.9-1C32.8,18,32.5,17.7,31.9,17.7z M19.3,21.4
				C19.7,22.1,20.2,22.6,21,22.6c0.6,0.2,1.4,0.102,2.3-0.3c0.4-0.2,0.9-0.6,1.4-1.2c0.2-0.3,0.3-0.699,0.4-1.199s0-0.899-0.2-1.199
				c-0.1-0.5-0.6-0.801-1.4-1c-1.1-0.2-1.9-0.2-2.5,0.1c-0.4,0.2-0.7,0.4-0.9,0.602c-0.2,0.199-0.4,0.398-0.6,0.8
				C19,19.9,18.9,20.7,19.3,21.4z"/>
		</defs>
		<clipPath id="SVGID_35_">
			<use xlink:href="#SVGID_34_"  overflow="visible"/>
		</clipPath>
		<path clip-path="url(#SVGID_35_)" fill="#FFFFFF" d="M43.662,17.914c0.235-1.646,1.156-4.526,3.646-5.04
			c1.946-0.402,3.271,1.832,3.271,1.832s-0.033-0.732,0.229-1.5c0.302-0.888,0.904-1.777,0.896-0.915
			c-0.021,2.061,1.327,8.201-0.51,9.832c-3.479,3.088-7.26-2.75-7.26-2.75s3.385,1.641,5.083,0.582
			c1.604-0.996,1.771-3.916,1.771-3.916s-2.27-4.028-4.792-1.625c-1.62,1.541-2.25,4.958-2.25,4.958L43.662,17.914z"/>
	</g>
	<g>
		<defs>
			<path id="SVGID_36_" d="M109.3,11.3c0.101,0.1,0.101,0.3,0.2,0.4c0.1,0.2,0.1,0.3,0.1,0.5c0,0.3-0.199,0.6-0.5,1.1l-0.1,0.2H68
				v0.7h3v2.6l0.4,0.4c0.199,0.2,0.3,0.5,0.3,0.899c0,0.199,0,0.301-0.101,0.301s-0.101,0-0.101,0.1v0.1c0,0.301-0.101,0.5-0.2,0.5
				s-0.199,0-0.3,0c-0.2,0-0.8,0-1.8,0s-2.5,0-4.602,0c-2.1,0-5.1,0-9,0C55.5,19.2,55.4,19.3,55.4,19.5c0.1,0,0.1,0,0.199,0.1
				L55.9,19.9l-0.2,0.6h-1.5L54,20.3c-0.1-0.1-0.2-0.5-0.5-1.2c-0.3-0.6-0.3-1.1-0.1-1.5c0-0.3,0.2-0.5,0.5-0.5H54
				c0.6,0,1,0.102,1.2,0.301c0.399,0,0.8-0.101,1.3-0.301L49,17c-0.1,0-0.4,0.1-1,0.3c-0.5,0.101-1.1,0.3-1.8,0.5
				c-0.6,0.2-1.3,0.3-1.9,0.5c-0.5,0.101-0.8,0.2-0.9,0.3v2.7l-8.8,0.9v-2.8c-0.5,0-0.7,0.1-0.8,0.199c-0.1,0.101-0.3,0.301-0.6,0.5
				C32.9,20.4,32.5,20.6,32,20.7c-0.5,0.2-1.1,0.2-1.8,0.2C29.5,20.8,28.8,20.6,27.9,20.1c-0.1,0-0.1,0-0.2,0.102
				c-0.1,0-0.2,0-0.3,0c0,0.3,0,0.699,0,1.199c-0.1,0.5-0.1,1-0.3,1.5c-0.1,0.5-0.2,1-0.5,1.5c-0.2,0.399-0.3,0.699-0.5,0.801
				c-0.4,0.199-1,0.3-1.8,0.199c-0.8-0.101-1.7-0.199-2.7-0.301c-1-0.1-1.8-0.3-2.6-0.398c-0.8-0.2-1.3-0.4-1.5-0.5
				C17.4,24,17,23.6,16.5,23c-0.4-0.3-0.8-0.7-1.2-1c-0.4-0.3-0.6-0.5-0.7-0.5H9.5c-0.2,1.4-0.3,2.2-0.4,2.5c0,0.2-0.1,0.3-0.2,0.3
				c-0.1,0.2-0.2,0.3-0.5,0.3c-0.2,0-0.6-0.1-1.3-0.3c-0.5,0-1,0-1.5,0s-0.9,0-1,0c-0.2,0-0.5,0-0.8,0.101
				C3.5,24.5,3.1,24.6,2.6,24.6C2.2,24.7,1.8,24.8,1.4,24.9C0.9,25,0.6,25,0.5,25.1H0.2c-0.1,0-0.1,0-0.1-0.1C0,24.7,0,24.5,0,24.2
				s0-0.8,0-1.5s0-1.7,0-3c0.1-1.2,0.2-2.3,0.2-3.4c0-1.2,0-2,0-2.5c0-0.2,0.3-0.4,0.8-0.7c0.5-0.2,1.6-0.3,3.4-0.2h1l0.1-0.1
				l0.1-0.1c0.1,0,0.1,0,0.2-0.1c0.1-0.1,0.2-0.1,0.3-0.2h9.2c0.2,0,0.4,0.1,0.6,0.3c0.5,0.3,0.8,0.7,1,1h10.4
				c0.1-0.2,0.2-0.5,0.3-1c0.1-0.4,0.2-0.7,0.2-1v-0.2h0.1c0.3-0.1,0.8-0.2,1.5-0.3c0.7,0,1.1-0.1,1.2-0.2c0.1,0,0.3,0,0.4-0.1
				c0-0.1,0.1-0.1,0.2-0.2h3.2v-1h-1.2c-0.1,0-0.5,0.1-1,0.2s-1.1,0.2-1.9,0.2c-0.7,0.1-1.4,0.1-2.2,0.2c-0.7,0-1.4,0-1.9-0.1
				L26.1,10l0,0C26,9.3,26,8.7,26,8.3c0-0.4,0-0.8,0-1c0-0.2,0-0.3,0.1-0.4l0.1-0.1h0.2l0.8-0.1c0.6,0,1.2-0.1,1.9-0.1
				c0.7-0.1,1.4-0.1,2.2-0.1c0.7,0,1.2,0,1.5,0.1c0.5,0,1,0,1.5,0c0.6,0,1.2,0,1.9,0c0.6,0,1.1,0,1.7,0c0.5-0.1,0.8-0.1,1.1-0.1V5.8
				c-0.1,0-0.1-0.1-0.1-0.2V5l3.2-0.2l0,0l0.4,1.1c0,0.1,0,0.1-0.1,0.1c-0.1,0.1-0.1,0.2-0.3,0.2v0.2h5.6c0.4-0.1,1.1-0.2,1.9-0.3
				c0.8-0.1,1.7-0.2,2.5-0.3c0.8-0.1,1.6-0.1,2.4-0.2c0.7,0,1.1,0,1.3,0.2L56,5.9l0.1,4.4H55.9c-4.7,0-7.2-0.2-7.5-0.5V10
				c-0.2-0.1-0.5-0.2-1.1-0.2c-0.5-0.1-1.2,0-1.9,0v0.9h63.7v0.2C109.1,11,109.2,11.2,109.3,11.3z M31.9,17.7h-2.2
				c-0.6,0-0.9,0.3-0.9,0.8c0,0.6,0.3,1,0.9,1h2.2c0.6,0,0.9-0.3,0.9-1C32.8,18,32.5,17.7,31.9,17.7z M19.3,21.4
				C19.7,22.1,20.2,22.6,21,22.6c0.6,0.2,1.4,0.102,2.3-0.3c0.4-0.2,0.9-0.6,1.4-1.2c0.2-0.3,0.3-0.699,0.4-1.199s0-0.899-0.2-1.199
				c-0.1-0.5-0.6-0.801-1.4-1c-1.1-0.2-1.9-0.2-2.5,0.1c-0.4,0.2-0.7,0.4-0.9,0.602c-0.2,0.199-0.4,0.398-0.6,0.8
				C19,19.9,18.9,20.7,19.3,21.4z"/>
		</defs>
		<clipPath id="SVGID_37_">
			<use xlink:href="#SVGID_36_"  overflow="visible"/>
		</clipPath>
		<path clip-path="url(#SVGID_37_)" fill="#FFFFFF" d="M54.895,22.672c0.193,2.248-0.26,4.428-1.184,5.314
			c-0.346,0.334-1.104,1.01-2.616,0.994c-1.434-0.015-3.002-1.072-3.002-1.072s-0.009-0.102-1.497-0.977
			c-1.06-0.623,0.301-0.537,0.301-0.537s3.954,3.447,6.419,0.617c1.584-1.813,0.52-5.691,0.52-5.691L54.895,22.672z"/>
	</g>
	<g>
		<defs>
			<path id="SVGID_38_" d="M109.3,11.3c0.101,0.1,0.101,0.3,0.2,0.4c0.1,0.2,0.1,0.3,0.1,0.5c0,0.3-0.199,0.6-0.5,1.1l-0.1,0.2H68
				v0.7h3v2.6l0.4,0.4c0.199,0.2,0.3,0.5,0.3,0.899c0,0.199,0,0.301-0.101,0.301s-0.101,0-0.101,0.1v0.1c0,0.301-0.101,0.5-0.2,0.5
				s-0.199,0-0.3,0c-0.2,0-0.8,0-1.8,0s-2.5,0-4.602,0c-2.1,0-5.1,0-9,0C55.5,19.2,55.4,19.3,55.4,19.5c0.1,0,0.1,0,0.199,0.1
				L55.9,19.9l-0.2,0.6h-1.5L54,20.3c-0.1-0.1-0.2-0.5-0.5-1.2c-0.3-0.6-0.3-1.1-0.1-1.5c0-0.3,0.2-0.5,0.5-0.5H54
				c0.6,0,1,0.102,1.2,0.301c0.399,0,0.8-0.101,1.3-0.301L49,17c-0.1,0-0.4,0.1-1,0.3c-0.5,0.101-1.1,0.3-1.8,0.5
				c-0.6,0.2-1.3,0.3-1.9,0.5c-0.5,0.101-0.8,0.2-0.9,0.3v2.7l-8.8,0.9v-2.8c-0.5,0-0.7,0.1-0.8,0.199c-0.1,0.101-0.3,0.301-0.6,0.5
				C32.9,20.4,32.5,20.6,32,20.7c-0.5,0.2-1.1,0.2-1.8,0.2C29.5,20.8,28.8,20.6,27.9,20.1c-0.1,0-0.1,0-0.2,0.102
				c-0.1,0-0.2,0-0.3,0c0,0.3,0,0.699,0,1.199c-0.1,0.5-0.1,1-0.3,1.5c-0.1,0.5-0.2,1-0.5,1.5c-0.2,0.399-0.3,0.699-0.5,0.801
				c-0.4,0.199-1,0.3-1.8,0.199c-0.8-0.101-1.7-0.199-2.7-0.301c-1-0.1-1.8-0.3-2.6-0.398c-0.8-0.2-1.3-0.4-1.5-0.5
				C17.4,24,17,23.6,16.5,23c-0.4-0.3-0.8-0.7-1.2-1c-0.4-0.3-0.6-0.5-0.7-0.5H9.5c-0.2,1.4-0.3,2.2-0.4,2.5c0,0.2-0.1,0.3-0.2,0.3
				c-0.1,0.2-0.2,0.3-0.5,0.3c-0.2,0-0.6-0.1-1.3-0.3c-0.5,0-1,0-1.5,0s-0.9,0-1,0c-0.2,0-0.5,0-0.8,0.101
				C3.5,24.5,3.1,24.6,2.6,24.6C2.2,24.7,1.8,24.8,1.4,24.9C0.9,25,0.6,25,0.5,25.1H0.2c-0.1,0-0.1,0-0.1-0.1C0,24.7,0,24.5,0,24.2
				s0-0.8,0-1.5s0-1.7,0-3c0.1-1.2,0.2-2.3,0.2-3.4c0-1.2,0-2,0-2.5c0-0.2,0.3-0.4,0.8-0.7c0.5-0.2,1.6-0.3,3.4-0.2h1l0.1-0.1
				l0.1-0.1c0.1,0,0.1,0,0.2-0.1c0.1-0.1,0.2-0.1,0.3-0.2h9.2c0.2,0,0.4,0.1,0.6,0.3c0.5,0.3,0.8,0.7,1,1h10.4
				c0.1-0.2,0.2-0.5,0.3-1c0.1-0.4,0.2-0.7,0.2-1v-0.2h0.1c0.3-0.1,0.8-0.2,1.5-0.3c0.7,0,1.1-0.1,1.2-0.2c0.1,0,0.3,0,0.4-0.1
				c0-0.1,0.1-0.1,0.2-0.2h3.2v-1h-1.2c-0.1,0-0.5,0.1-1,0.2s-1.1,0.2-1.9,0.2c-0.7,0.1-1.4,0.1-2.2,0.2c-0.7,0-1.4,0-1.9-0.1
				L26.1,10l0,0C26,9.3,26,8.7,26,8.3c0-0.4,0-0.8,0-1c0-0.2,0-0.3,0.1-0.4l0.1-0.1h0.2l0.8-0.1c0.6,0,1.2-0.1,1.9-0.1
				c0.7-0.1,1.4-0.1,2.2-0.1c0.7,0,1.2,0,1.5,0.1c0.5,0,1,0,1.5,0c0.6,0,1.2,0,1.9,0c0.6,0,1.1,0,1.7,0c0.5-0.1,0.8-0.1,1.1-0.1V5.8
				c-0.1,0-0.1-0.1-0.1-0.2V5l3.2-0.2l0,0l0.4,1.1c0,0.1,0,0.1-0.1,0.1c-0.1,0.1-0.1,0.2-0.3,0.2v0.2h5.6c0.4-0.1,1.1-0.2,1.9-0.3
				c0.8-0.1,1.7-0.2,2.5-0.3c0.8-0.1,1.6-0.1,2.4-0.2c0.7,0,1.1,0,1.3,0.2L56,5.9l0.1,4.4H55.9c-4.7,0-7.2-0.2-7.5-0.5V10
				c-0.2-0.1-0.5-0.2-1.1-0.2c-0.5-0.1-1.2,0-1.9,0v0.9h63.7v0.2C109.1,11,109.2,11.2,109.3,11.3z M31.9,17.7h-2.2
				c-0.6,0-0.9,0.3-0.9,0.8c0,0.6,0.3,1,0.9,1h2.2c0.6,0,0.9-0.3,0.9-1C32.8,18,32.5,17.7,31.9,17.7z M19.3,21.4
				C19.7,22.1,20.2,22.6,21,22.6c0.6,0.2,1.4,0.102,2.3-0.3c0.4-0.2,0.9-0.6,1.4-1.2c0.2-0.3,0.3-0.699,0.4-1.199s0-0.899-0.2-1.199
				c-0.1-0.5-0.6-0.801-1.4-1c-1.1-0.2-1.9-0.2-2.5,0.1c-0.4,0.2-0.7,0.4-0.9,0.602c-0.2,0.199-0.4,0.398-0.6,0.8
				C19,19.9,18.9,20.7,19.3,21.4z"/>
		</defs>
		<clipPath id="SVGID_39_">
			<use xlink:href="#SVGID_38_"  overflow="visible"/>
		</clipPath>
		<path clip-path="url(#SVGID_39_)" fill="#A089F4" d="M33.087,11.362"/>
	</g>
	<g>
		<defs>
			<path id="SVGID_40_" d="M109.3,11.3c0.101,0.1,0.101,0.3,0.2,0.4c0.1,0.2,0.1,0.3,0.1,0.5c0,0.3-0.199,0.6-0.5,1.1l-0.1,0.2H68
				v0.7h3v2.6l0.4,0.4c0.199,0.2,0.3,0.5,0.3,0.899c0,0.199,0,0.301-0.101,0.301s-0.101,0-0.101,0.1v0.1c0,0.301-0.101,0.5-0.2,0.5
				s-0.199,0-0.3,0c-0.2,0-0.8,0-1.8,0s-2.5,0-4.602,0c-2.1,0-5.1,0-9,0C55.5,19.2,55.4,19.3,55.4,19.5c0.1,0,0.1,0,0.199,0.1
				L55.9,19.9l-0.2,0.6h-1.5L54,20.3c-0.1-0.1-0.2-0.5-0.5-1.2c-0.3-0.6-0.3-1.1-0.1-1.5c0-0.3,0.2-0.5,0.5-0.5H54
				c0.6,0,1,0.102,1.2,0.301c0.399,0,0.8-0.101,1.3-0.301L49,17c-0.1,0-0.4,0.1-1,0.3c-0.5,0.101-1.1,0.3-1.8,0.5
				c-0.6,0.2-1.3,0.3-1.9,0.5c-0.5,0.101-0.8,0.2-0.9,0.3v2.7l-8.8,0.9v-2.8c-0.5,0-0.7,0.1-0.8,0.199c-0.1,0.101-0.3,0.301-0.6,0.5
				C32.9,20.4,32.5,20.6,32,20.7c-0.5,0.2-1.1,0.2-1.8,0.2C29.5,20.8,28.8,20.6,27.9,20.1c-0.1,0-0.1,0-0.2,0.102
				c-0.1,0-0.2,0-0.3,0c0,0.3,0,0.699,0,1.199c-0.1,0.5-0.1,1-0.3,1.5c-0.1,0.5-0.2,1-0.5,1.5c-0.2,0.399-0.3,0.699-0.5,0.801
				c-0.4,0.199-1,0.3-1.8,0.199c-0.8-0.101-1.7-0.199-2.7-0.301c-1-0.1-1.8-0.3-2.6-0.398c-0.8-0.2-1.3-0.4-1.5-0.5
				C17.4,24,17,23.6,16.5,23c-0.4-0.3-0.8-0.7-1.2-1c-0.4-0.3-0.6-0.5-0.7-0.5H9.5c-0.2,1.4-0.3,2.2-0.4,2.5c0,0.2-0.1,0.3-0.2,0.3
				c-0.1,0.2-0.2,0.3-0.5,0.3c-0.2,0-0.6-0.1-1.3-0.3c-0.5,0-1,0-1.5,0s-0.9,0-1,0c-0.2,0-0.5,0-0.8,0.101
				C3.5,24.5,3.1,24.6,2.6,24.6C2.2,24.7,1.8,24.8,1.4,24.9C0.9,25,0.6,25,0.5,25.1H0.2c-0.1,0-0.1,0-0.1-0.1C0,24.7,0,24.5,0,24.2
				s0-0.8,0-1.5s0-1.7,0-3c0.1-1.2,0.2-2.3,0.2-3.4c0-1.2,0-2,0-2.5c0-0.2,0.3-0.4,0.8-0.7c0.5-0.2,1.6-0.3,3.4-0.2h1l0.1-0.1
				l0.1-0.1c0.1,0,0.1,0,0.2-0.1c0.1-0.1,0.2-0.1,0.3-0.2h9.2c0.2,0,0.4,0.1,0.6,0.3c0.5,0.3,0.8,0.7,1,1h10.4
				c0.1-0.2,0.2-0.5,0.3-1c0.1-0.4,0.2-0.7,0.2-1v-0.2h0.1c0.3-0.1,0.8-0.2,1.5-0.3c0.7,0,1.1-0.1,1.2-0.2c0.1,0,0.3,0,0.4-0.1
				c0-0.1,0.1-0.1,0.2-0.2h3.2v-1h-1.2c-0.1,0-0.5,0.1-1,0.2s-1.1,0.2-1.9,0.2c-0.7,0.1-1.4,0.1-2.2,0.2c-0.7,0-1.4,0-1.9-0.1
				L26.1,10l0,0C26,9.3,26,8.7,26,8.3c0-0.4,0-0.8,0-1c0-0.2,0-0.3,0.1-0.4l0.1-0.1h0.2l0.8-0.1c0.6,0,1.2-0.1,1.9-0.1
				c0.7-0.1,1.4-0.1,2.2-0.1c0.7,0,1.2,0,1.5,0.1c0.5,0,1,0,1.5,0c0.6,0,1.2,0,1.9,0c0.6,0,1.1,0,1.7,0c0.5-0.1,0.8-0.1,1.1-0.1V5.8
				c-0.1,0-0.1-0.1-0.1-0.2V5l3.2-0.2l0,0l0.4,1.1c0,0.1,0,0.1-0.1,0.1c-0.1,0.1-0.1,0.2-0.3,0.2v0.2h5.6c0.4-0.1,1.1-0.2,1.9-0.3
				c0.8-0.1,1.7-0.2,2.5-0.3c0.8-0.1,1.6-0.1,2.4-0.2c0.7,0,1.1,0,1.3,0.2L56,5.9l0.1,4.4H55.9c-4.7,0-7.2-0.2-7.5-0.5V10
				c-0.2-0.1-0.5-0.2-1.1-0.2c-0.5-0.1-1.2,0-1.9,0v0.9h63.7v0.2C109.1,11,109.2,11.2,109.3,11.3z M31.9,17.7h-2.2
				c-0.6,0-0.9,0.3-0.9,0.8c0,0.6,0.3,1,0.9,1h2.2c0.6,0,0.9-0.3,0.9-1C32.8,18,32.5,17.7,31.9,17.7z M19.3,21.4
				C19.7,22.1,20.2,22.6,21,22.6c0.6,0.2,1.4,0.102,2.3-0.3c0.4-0.2,0.9-0.6,1.4-1.2c0.2-0.3,0.3-0.699,0.4-1.199s0-0.899-0.2-1.199
				c-0.1-0.5-0.6-0.801-1.4-1c-1.1-0.2-1.9-0.2-2.5,0.1c-0.4,0.2-0.7,0.4-0.9,0.602c-0.2,0.199-0.4,0.398-0.6,0.8
				C19,19.9,18.9,20.7,19.3,21.4z"/>
		</defs>
		<clipPath id="SVGID_41_">
			<use xlink:href="#SVGID_40_"  overflow="visible"/>
		</clipPath>
		
			<linearGradient id="SVGID_42_" gradientUnits="userSpaceOnUse" x1="235.126" y1="-404.7261" x2="235.126" y2="-401.3521" gradientTransform="matrix(1.8524 -0.1441 -0.0776 -0.997 -381.7532 -354.4067)">
			<stop  offset="0" style="stop-color:#158CFF"/>
			<stop  offset="0.6989" style="stop-color:#FFFFFF"/>
		</linearGradient>
		<path clip-path="url(#SVGID_41_)" fill="url(#SVGID_42_)" d="M79.169,15.12c0,0,1.946-3.12,5.384-3.227
			c3.434-0.108,6.635,2.862,6.635,2.862L79.169,15.12z"/>
	</g>
	<g>
		<defs>
			<path id="SVGID_43_" d="M109.3,11.3c0.101,0.1,0.101,0.3,0.2,0.4c0.1,0.2,0.1,0.3,0.1,0.5c0,0.3-0.199,0.6-0.5,1.1l-0.1,0.2H68
				v0.7h3v2.6l0.4,0.4c0.199,0.2,0.3,0.5,0.3,0.899c0,0.199,0,0.301-0.101,0.301s-0.101,0-0.101,0.1v0.1c0,0.301-0.101,0.5-0.2,0.5
				s-0.199,0-0.3,0c-0.2,0-0.8,0-1.8,0s-2.5,0-4.602,0c-2.1,0-5.1,0-9,0C55.5,19.2,55.4,19.3,55.4,19.5c0.1,0,0.1,0,0.199,0.1
				L55.9,19.9l-0.2,0.6h-1.5L54,20.3c-0.1-0.1-0.2-0.5-0.5-1.2c-0.3-0.6-0.3-1.1-0.1-1.5c0-0.3,0.2-0.5,0.5-0.5H54
				c0.6,0,1,0.102,1.2,0.301c0.399,0,0.8-0.101,1.3-0.301L49,17c-0.1,0-0.4,0.1-1,0.3c-0.5,0.101-1.1,0.3-1.8,0.5
				c-0.6,0.2-1.3,0.3-1.9,0.5c-0.5,0.101-0.8,0.2-0.9,0.3v2.7l-8.8,0.9v-2.8c-0.5,0-0.7,0.1-0.8,0.199c-0.1,0.101-0.3,0.301-0.6,0.5
				C32.9,20.4,32.5,20.6,32,20.7c-0.5,0.2-1.1,0.2-1.8,0.2C29.5,20.8,28.8,20.6,27.9,20.1c-0.1,0-0.1,0-0.2,0.102
				c-0.1,0-0.2,0-0.3,0c0,0.3,0,0.699,0,1.199c-0.1,0.5-0.1,1-0.3,1.5c-0.1,0.5-0.2,1-0.5,1.5c-0.2,0.399-0.3,0.699-0.5,0.801
				c-0.4,0.199-1,0.3-1.8,0.199c-0.8-0.101-1.7-0.199-2.7-0.301c-1-0.1-1.8-0.3-2.6-0.398c-0.8-0.2-1.3-0.4-1.5-0.5
				C17.4,24,17,23.6,16.5,23c-0.4-0.3-0.8-0.7-1.2-1c-0.4-0.3-0.6-0.5-0.7-0.5H9.5c-0.2,1.4-0.3,2.2-0.4,2.5c0,0.2-0.1,0.3-0.2,0.3
				c-0.1,0.2-0.2,0.3-0.5,0.3c-0.2,0-0.6-0.1-1.3-0.3c-0.5,0-1,0-1.5,0s-0.9,0-1,0c-0.2,0-0.5,0-0.8,0.101
				C3.5,24.5,3.1,24.6,2.6,24.6C2.2,24.7,1.8,24.8,1.4,24.9C0.9,25,0.6,25,0.5,25.1H0.2c-0.1,0-0.1,0-0.1-0.1C0,24.7,0,24.5,0,24.2
				s0-0.8,0-1.5s0-1.7,0-3c0.1-1.2,0.2-2.3,0.2-3.4c0-1.2,0-2,0-2.5c0-0.2,0.3-0.4,0.8-0.7c0.5-0.2,1.6-0.3,3.4-0.2h1l0.1-0.1
				l0.1-0.1c0.1,0,0.1,0,0.2-0.1c0.1-0.1,0.2-0.1,0.3-0.2h9.2c0.2,0,0.4,0.1,0.6,0.3c0.5,0.3,0.8,0.7,1,1h10.4
				c0.1-0.2,0.2-0.5,0.3-1c0.1-0.4,0.2-0.7,0.2-1v-0.2h0.1c0.3-0.1,0.8-0.2,1.5-0.3c0.7,0,1.1-0.1,1.2-0.2c0.1,0,0.3,0,0.4-0.1
				c0-0.1,0.1-0.1,0.2-0.2h3.2v-1h-1.2c-0.1,0-0.5,0.1-1,0.2s-1.1,0.2-1.9,0.2c-0.7,0.1-1.4,0.1-2.2,0.2c-0.7,0-1.4,0-1.9-0.1
				L26.1,10l0,0C26,9.3,26,8.7,26,8.3c0-0.4,0-0.8,0-1c0-0.2,0-0.3,0.1-0.4l0.1-0.1h0.2l0.8-0.1c0.6,0,1.2-0.1,1.9-0.1
				c0.7-0.1,1.4-0.1,2.2-0.1c0.7,0,1.2,0,1.5,0.1c0.5,0,1,0,1.5,0c0.6,0,1.2,0,1.9,0c0.6,0,1.1,0,1.7,0c0.5-0.1,0.8-0.1,1.1-0.1V5.8
				c-0.1,0-0.1-0.1-0.1-0.2V5l3.2-0.2l0,0l0.4,1.1c0,0.1,0,0.1-0.1,0.1c-0.1,0.1-0.1,0.2-0.3,0.2v0.2h5.6c0.4-0.1,1.1-0.2,1.9-0.3
				c0.8-0.1,1.7-0.2,2.5-0.3c0.8-0.1,1.6-0.1,2.4-0.2c0.7,0,1.1,0,1.3,0.2L56,5.9l0.1,4.4H55.9c-4.7,0-7.2-0.2-7.5-0.5V10
				c-0.2-0.1-0.5-0.2-1.1-0.2c-0.5-0.1-1.2,0-1.9,0v0.9h63.7v0.2C109.1,11,109.2,11.2,109.3,11.3z M31.9,17.7h-2.2
				c-0.6,0-0.9,0.3-0.9,0.8c0,0.6,0.3,1,0.9,1h2.2c0.6,0,0.9-0.3,0.9-1C32.8,18,32.5,17.7,31.9,17.7z M19.3,21.4
				C19.7,22.1,20.2,22.6,21,22.6c0.6,0.2,1.4,0.102,2.3-0.3c0.4-0.2,0.9-0.6,1.4-1.2c0.2-0.3,0.3-0.699,0.4-1.199s0-0.899-0.2-1.199
				c-0.1-0.5-0.6-0.801-1.4-1c-1.1-0.2-1.9-0.2-2.5,0.1c-0.4,0.2-0.7,0.4-0.9,0.602c-0.2,0.199-0.4,0.398-0.6,0.8
				C19,19.9,18.9,20.7,19.3,21.4z"/>
		</defs>
		<clipPath id="SVGID_44_">
			<use xlink:href="#SVGID_43_"  overflow="visible"/>
		</clipPath>
		<path clip-path="url(#SVGID_44_)" fill="#FFFFFF" d="M64.313,15.831c0.685,2.202,2.387,4.578,3.402,4.841
			c0.479,0.122,2.588,0.703,3.748,0.047c1.29-0.729,1.745-2.156,1.745-2.156s-0.03-0.101,1.054-1.512
			c0.771-1.003-1.386,0.227-1.386,0.227s-1.235,3.748-4.69,2.037c-2.215-1.096-3.682-5.23-3.682-5.23L64.313,15.831z"/>
	</g>
</g>
</svg>
