<?xml version="1.0" encoding="utf-8"?>
<!-- Generator: Adobe Illustrator 16.0.0, SVG Export Plug-In . SVG Version: 6.00 Build 0)  -->
<!DOCTYPE svg PUBLIC "-//W3C//DTD SVG 1.0//EN" "http://www.w3.org/TR/2001/REC-SVG-20010904/DTD/svg10.dtd">
<svg version="1.0" id="图层_1" xmlns="http://www.w3.org/2000/svg" xmlns:xlink="http://www.w3.org/1999/xlink" x="0px" y="0px"
	 width="90px" height="32px" viewBox="0 0 90 32" enable-background="new 0 0 90 32" xml:space="preserve">
<path fill="#0001BF" d="M20.8,15.9l-1.014,0.15L3.2,19.208C3.187,20.229,3.183,23,3.183,23l0,0h-0.1l0,0h-0.1l0,0h-0.1l0,0l0,0l0,0
	l0,0h-0.1l0,0H2.5H2.1H2l0,0H1.9H1.8H1.7l0,0H1.6l0,0l0,0H1.5l0,0H1.4H1.2l0,0H1.1H1H0.9l0,0H0.8l0,0H0.7H0.6l-0.1-0.1L0.4,22.8l0,0
	v-0.1c-0.1,0-0.1,0-0.2,0V22.6l0,0v-4.1l0,0l0,0h0.1c0.1,0,0.1,0,0.2,0l0,0v-0.1V18.3v-0.1l0,0V18.1V18v-0.1V17.8v-0.1V17.6v-0.1
	v-0.1V17.3v-0.1V17.1V17v-0.1V16.8v-0.1l0,0V16.6v-0.1v-0.1V16.3v-0.1V16.1V16l0,0v-0.1V15.8v-0.1V15.6v-0.1v-0.1v-0.1l0,0v-0.1
	v-0.1V15v-0.1v-0.1v-0.1v-0.1l0,0v-0.1v-0.1v-0.1v-0.1v-0.1V14v-0.1l0,0v-0.1v-0.1v-0.1v-0.1v-0.1v-0.1v-0.1v-0.1V13c0,0,0,0,0-0.1
	H0.4c-0.1,0-0.1,0-0.2,0l-0.1-0.1L0,12.7v-0.1l0,0v-0.1v-0.1v-0.1v-0.1v-0.1C0,13,0,13,0,13v-0.1l0,0v-0.1v-0.1v-0.1v-0.1v-0.1v-0.1
	v-0.1l0,0v-0.1V12l0,0v-0.1v-0.1v-0.1v-0.1l0,0v-0.1v-0.1v-0.1v-0.1v-0.1V11v-0.1l0,0v-0.1v-0.1v-0.1v-0.1v-0.1v-0.1l0.1-0.1l0,0
	v-0.1V10V9.9c0.1,0,0.1-0.1,0.1-0.1l0.1-0.1h0.1h0.1l0.1-0.1l0.1-0.1h0.1l0,0h0.1l0,0c0.1,0,0.1,0,0.1,0l0,0c0.1,0,0.1,0,0.1,0
	c0.1,0,0.1,0.1,0.2,0.1l0,0c0.5,0,1.1,0,1.6,0l0,0l0,0c2,0,4,0,6.1,0c0.1,0,0.1,0,0.2,0c0.2,0,0.4,0,0.6,0h0.1l0,0
	c1.1,0,2.2,0,3.3,0l0,0h0.1l0,0c0.1,0,0.1,0,0.2,0s0.1,0,0.2,0h0.1c0.1,0,0.1-0.1,0.1-0.1L14,9.4l0.1-0.1c0.1,0,0.1-0.1,0.2-0.1V9.1
	h0.1l0,0c0.1,0,0.1,0,0.2,0s0.1,0,0.2,0l0,0h0.1c0.1,0,0.1,0,0.1,0v0.1v0.1v0.1v0.1c-0.1,0-0.1,0.1-0.2,0.1l0,0h0.1c0,0,0,0,0.1,0
	l0,0l0,0l0,0h0.1h0.1h0.1h0.1c0.1,0,0.2,0,0.3,0l0,0c0.2,0,0.3,0,0.5,0h0.1c0.1,0,0.3,0,0.4,0h0.1c0.1,0,0.3,0,0.4,0h0.1
	c0.9,0,1.9,0,2.8,0h0.1c0.1,0,0.2,0,0.3,0h0.1c1,0,2,0,3,0h0.1c0.4,0,0.7,0,1,0h0.1c0.7,0,1.3,0,2,0h0.1H27c0.4,0,0.8,0,1.2,0h0.1
	h0.1l0,0c0.2,0,0.4,0,0.6,0V9.5l0.1-0.1l0.1-0.1l0.1-0.1l0.1-0.1L29.5,9h0.1c0.1,0,0.1-0.1,0.2-0.1V8.8l0.1-0.1L30,8.6l0.1-0.1V8.4
	l0.1-0.1l0,0c0.1,0,0.1-0.1,0.2-0.1l0.1-0.1h0.1l0,0h0.1c0.2,0,0.5,0,0.7,0L31.5,8l0.1-0.1l0.1-0.1h0.1V7.7l0.1-0.1L32,7.5l0.1-0.1
	l0.1-0.1h0.1h0.1V7.2V7.1L32.5,7l0.1-0.1l0.1-0.1l0.1-0.1l0,0V6.6V6.5h0.1l0,0H33V6.4l0.1-0.1l0.1-0.1l0.1-0.1L33.4,6l0.1-0.1l0,0
	l0.1-0.1l0.1-0.1l0.1-0.1l0.1-0.1L34,5.4l0.1-0.1l0.1-0.1l0,0c0.1,0,0.1-0.1,0.2-0.1s0.1,0,0.2,0l0,0l0,0l0,0h0.1h0.1l0,0
	c5.4,0,10.9,0,16.3,0l0,0V5V4.9L51.2,4.8l0,0V4.7V4.6l0.1-0.1l0,0H51.4h0.1l0,0l0,0h0.1H51.7c0.1,0,0.3,0,0.399,0l0,0V4.4L52.2,4.3
	l0.1-0.1H52.4l0.1-0.1l0,0l0,0h0.1V4H52.7l0.1-0.1H52.9l0,0L53,3.8l0.1-0.1l0,0V3.6l0.1-0.1L53.3,3.4L53.4,3.3V3.2V3.1V3l0,0
	c0.1,0,0.1,0,0.1,0l0,0l0,0V1.9h0.1h0.1L53.8,2C53.9,2,53.9,2,54,2h0.1V1.9c0.1,0,0.1,0,0.1,0c0.101,0,0.201,0,0.301,0h0.1l0.1,0.1
	C56,2,56,2,56,2l0.1,0.1v0.1H56.2l0.1,0.1L56.4,2.4l0.1,0.1l0.1,0.1L56.7,2.7l0.1,0.1l0,0H56.9L57,2.9V3l0,0l0,0l0.1,0.1v0.1
	c0.101,0,0.101,0,0.101,0l0.1,0.1v0.1v0.1l0,0c0.5,0,1,0,1.5,0l0,0V3.4V3.3H58.9l0,0c0.1,0,0.1,0,0.199,0c0.101,0,0.101,0,0.2,0
	c0.101,0,0.101,0,0.2,0V3.2c0.1,0,0.1,0,0.2,0V3.1h0.1l0,0c0.101,0,0.101,0,0.2,0S60.1,3,60.2,3l0.1-0.1H60.4l0,0
	c0.1,0,0.1-0.1,0.199-0.1l0,0l0,0c0.101,0,0.101,0,0.2,0V2.7H60.9l0,0c0.1,0,0.1,0,0.1,0h0.1v0.1v0.1V3v0.1l0,0v0.1v0.1v0.1v0.1v0.1
	v0.1v0.1l0,0L61.2,3.9V4v0.1l0,0c0.6,0,1.2,0,1.8,0l0,0h0.1l0,0c0.101,0,0.101,0,0.2,0c0.101,0,0.101,0.1,0.2,0.1l0.1,0.1l0,0v0.1
	l0,0H63.7h0.1v0.1v0.1l0,0L63.9,4.7L64,4.8v0.1V5h0.1l0,0c5.2,0,10.5,0,15.7,0L79.9,4.9H80l0.1-0.1V4.7V4.6V4.5V4.4V4.3l0.1-0.1l0,0
	V4.1V4V3.9V3.8V3.7V3.6V3.5l0,0V3.4V3.3V3.2V3.1V3V2.9V2.8l0,0V2.7V2.6V2.5V2.4V2.3V2.2V2.1l0,0V2V1.9V1.8L80.3,1.7H80.4
	c0.1,0,0.199,0,0.299,0C81.7,1.4,81.7,1.3,81.8,1.3c0.3,0,0.601,0,1,0V1.2c0.101,0,0.101,0,0.101,0c0.199,0,0.399,0,0.6,0h0.1l0,0
	l0,0H83.7h0.1L83.9,1.3v0.1v0.1v0.1v0.1l0,0v0.1v0.1V2v0.1v0.1v0.1v0.1l0,0v0.1v0.1v0.1v0.1v0.1V3l0,0l0,0v0.1v0.1v0.1v0.1H83.8v0.1
	l0,0l0,0v0.1v0.1v0.1v0.1V4l0,0v0.1v0.1v0.1v0.1v0.1v0.1l0,0l0,0L83.9,4.7v0.1v0.1V5v0.1v0.1v0.1l0,0v0.1v0.1v0.1v0.1v0.1v0.1V6l0,0
	v0.1v0.1v0.1v0.1v0.1v0.1v0.1l0,0v0.1v0.1V7v0.1v0.1v0.1v0.1l0,0v0.1v0.1v0.1v0.1v0.1V8v0.1l0,0c1.6,0,3.1,0,4.699,0
	c0.101,0,0.101,0.1,0.2,0.1l0,0H88.9l0,0C89,8.2,89,8.3,89.1,8.3l0,0L89.2,8.4v0.1v0.1v0.1v0.1v0.1V9l0,0v0.1v0.1v0.1v0.1v0.1v0.1
	v0.1l0,0v0.1v0.1V10v0.1v0.1v0.1v0.1l0,0v0.1v0.1v0.1v0.1v0.1V11v0.1l0,0v0.1v0.1v0.1v0.1v0.1v0.1v0.1l0,0v0.1V12v0.1v0.1H89.1l0,0
	c-0.1,0-0.1,0-0.1,0c-1.4,0-2.7,0-4.1,0c-0.101,0-0.101,0-0.101,0c-0.1,0-0.1,0-0.2,0h-0.1c0,0,0,0,0.1,0l0,0
	c0.101,0,0.101,0.1,0.2,0.1H84.9v0.1v0.1v0.1v0.1v0.1v0.1V13l0,0v0.1v0.1v0.1v0.1v0.1l0,0l0,0v0.1v0.1H85l0.1,0.1l0,0v0.1V14v0.1
	H85.2l0.1,0.1l0,0v0.1v0.1v0.1v0.1v0.1v0.1v0.1l0,0V15v0.1v0.1v0.1v0.1v0.1v0.1l0,0V15.7v0.1V15.9V16v0.1V16.2v0.1l0,0V16.4v0.1v0.1
	V16.7v0.1V16.9V17l0,0v0.1V17.2v0.1V17.4v0.1v0.1V17.7l0,0v0.1V17.9V18v0.1V18.2v0.1V18.4l0,0v0.1v0.1V18.7v0.1V18.9V19v0.1l0,0
	V19.2v0.1V19.4v0.1v0.1V19.7v0.1l0,0V19.9V20v0.1V20.2v0.1L85.2,20.4c-0.101,0-0.101,0-0.101,0l0,0l0,0H85l0,0c-0.1,0-0.1,0-0.1,0
	c-0.601,0-1.301,0-1.9,0c-0.1,0-0.1,0-0.1,0c-0.101,0-0.2,0-0.2,0c-0.101,0-0.101,0-0.2,0V20.3l-0.1-0.1l0,0V20.1L82.3,20l0,0v-0.1
	V19.8v-0.1V19.6l0,0c-9,0-18,0-27.1,0L55.1,19.7v0.1V19.9V20v0.1V20.2v0.1l0,0L55,20.4v0.1l0,0h-0.1l0,0c-0.101,0-0.101,0-0.101,0
	c-0.3,0-0.7,0-1,0c-0.1,0-0.1,0-0.2,0v-0.1L53.5,20.3v-0.1l0,0l0,0c-0.1,0-0.1,0-0.1,0c-0.101,0-0.101,0-0.2,0L53.1,20.1L53,20h-0.1
	v-0.1V19.8v-0.1V19.6v-0.1v-0.1V19.3l0,0v-0.1V19.1V19v-0.1V18.8v-0.1V18.6l0,0v-0.1v-0.1V18.3l0,0v-0.1V18.1V18H52.8v-0.1V17.8
	v-0.1V17.6v-0.1v-0.1V17.3l0,0v-0.1l0,0c-0.1,0-0.1-0.101-0.1-0.101C52.6,17.1,52.6,17,52.6,17h-0.1v0.1l0,0l0,0V17.2v0.1V17.4v0.1
	v0.1V17.7v0.1l0,0V17.9V18v0.1V18.2v0.1V18.4v0.1l0,0v0.1V18.7v0.1V18.9V19v0.1V19.2l0,0v0.1l0,0V19.4l0,0v0.1v0.1V19.7v0.1V19.9V20
	v0.1l0,0L52.4,20.2l0,0v0.1V20.4v0.1v0.1V20.7l0,0v0.1V20.9V21L52.3,21.1c-0.1,0-0.1,0.101-0.1,0.101v0.1c-0.101,0-0.101,0-0.101,0
	c-0.1,0-0.3,0-0.399,0c-0.101,0-0.101,0-0.101,0h-0.1c-0.1,0-0.1,0-0.2,0v-0.1L51.2,21.1H51.1V21L51,20.9V20.8l0,0v-0.1V20.6v-0.1
	v-0.1V20.3v-0.1V20.1h0.1V20v-0.1V19.8c0,0,0,0,0-0.1H51c-0.1,0-0.1,0-0.2,0c-0.1,0-0.1,0-0.2,0h-0.1h-0.1
	c-0.101,0-0.101,0.1-0.2,0.1L50.1,19.9H50c-0.1,0-0.1,0.1-0.2,0.1l-0.1,0.1C49.6,20.1,49.6,20.2,49.6,20.2
	c-0.1,0-0.199,0.1-0.199,0.1H49.3l0,0c-0.1,0-0.1,0-0.1,0c-0.101,0-0.2,0-0.3,0l0,0c-0.101,0-0.101,0-0.101,0
	c-0.1,0-0.2,0.101-0.3,0.101h-0.1c-0.1,0-0.1,0-0.1,0H48.2c-0.101,0-0.101,0-0.2,0h-0.1c-0.2,0-0.4,0-0.6,0
	c-0.101,0-0.101,0-0.101,0l0,0c-1.5,0-3,0-4.4,0c-0.1,0-0.1,0-0.2,0L42.5,20.3l-0.1-0.1l0,0V20.1V20l-0.1-0.1V19.8v-0.1V19.6
	l-0.1-0.1l0,0l0,0h-0.1l0,0c-0.1,0-0.1,0-0.1,0c-0.1,0-0.2,0.1-0.3,0.1l0,0V19.7l-0.1,0.1L41.5,19.9V20v0.1V20.2v0.1l0,0V20.4
	l-0.1,0.1v0.1V20.7v0.1V20.9V21l0,0v0.1L41.3,21.2v0.1V21.4v0.1l-0.1,0.1V21.7l0,0v0.1V21.9V22v0.1V22.2l-0.1,0.1V22.4l0,0v0.1v0.1
	V22.7v0.1L41,22.9V23v0.1l0,0V23.2v0.1V23.4v0.1v0.1L40.9,23.7v0.1l0,0V23.9V24v0.1V24.2v0.1L40.8,24.4v0.1l0,0v0.1V24.7v0.1V24.9
	L40.7,25v0.1V25.2l0,0v0.101v0.1v0.1v0.1L40.6,25.7v0.101v0.1l0,0L40.5,26v0.1V26.2v0.101l-0.1,0.1v0.1v0.1l0,0L40.3,26.7v0.101v0.1
	V27v0.1L40.2,27.2v0.101l0,0v0.1l-0.1,0.1v0.1V27.7v0.101L40,27.9V28l0,0v0.1V28.2v0.101v0.1l-0.1,0.1v0.1l0,0H40h0.1V28.7v0.101
	v0.1l0.1,0.1v0.1V29.2v0.101h0.1v0.1v0.1v0.1V29.7v0.101v0.1V30l0,0v0.1L40.2,30.2v0.101v0.1c-0.1,0-0.1,0.1-0.1,0.1v0.1V30.7l0,0
	L40,30.801h-0.1l0,0l-0.1,0.1h-0.1c-0.1,0-0.1,0-0.1,0c-0.2,0-0.4,0-0.7,0l0,0c-0.1,0-0.1,0-0.1,0c-0.4,0-0.8,0-1.1,0
	c-0.1,0-0.1,0-0.1,0l0,0c-0.2,0-0.4,0-0.6,0c-0.1,0-0.1,0-0.2,0l0,0c-0.1,0-0.2,0-0.3,0s-0.1,0-0.1,0l0,0c-0.1,0-0.1,0-0.2,0
	s-0.1,0-0.2,0l-0.1-0.1c-0.1,0-0.1,0-0.2,0S35.5,30.7,35.5,30.7c-0.1,0-0.1-0.101-0.1-0.101c-0.1,0-0.1-0.1-0.2-0.1h-0.1L35,30.4
	v-0.1c-0.1,0-0.1-0.101-0.1-0.101c-0.1,0-0.1-0.101-0.2-0.101V30l-0.1-0.1l-0.1-0.1h-0.1V29.7V29.6l-0.1-0.1v-0.1v-0.1V29.2l0,0l0,0
	h-0.1V29.1V29v-0.1v-0.1V28.7L34.1,28.6v-0.1l0,0v-0.1v-0.1V28.2V28.1V28v-0.1v-0.1l0,0V27.7V27.6v-0.1v-0.1v-0.1V27.2V27.1l0,0V27
	v-0.1v-0.1V26.7V26.6v-0.1v-0.1l0,0v-0.1V26.2V26.1V26v-0.1v-0.1V25.7h0.1V25.6v-0.1v-0.1v-0.1V25.2l0.1-0.101V25l0,0v-0.1V24.8
	v-0.1V24.6v-0.1v-0.1l0.1-0.101l0,0v-0.1V24.1V24v-0.1l0.1-0.101v-0.1l0.1-0.101l0,0v-0.1v-0.1V23.3v-0.1V23.1V23v-0.1h0.1V22.8
	v-0.1V22.6v-0.1v-0.1V22.3v-0.1l0,0V22.1V22v-0.1V21.8v-0.1V21.6v-0.1l0,0v-0.1V21.3v-0.1V21.1V21v-0.1l0.1-0.101l0,0v-0.1V20.6
	v-0.1v-0.1V20.3v-0.1V20.1l0,0V20v-0.1V19.8v-0.1V19.6v-0.1v-0.1l0,0V19.3v-0.1V19.1V19v-0.1V18.8l0.1-0.1l0,0V18.6v-0.1v-0.1V18.3
	v-0.1V18.1V18l0,0v-0.3l0,0l0,0l0,0l0,0l0,0V16l0,0v-0.1l0,0l0,0l0,0l0,0l0,0l0,0l0,0l0,0l0,0l0,0l0,0l0,0l0,0l0,0l0,0l0,0l0,0h-0.1
	l0,0l0,0l0,0h-0.1l0,0h-0.1l0,0h-0.1l0,0l0,0l0,0h-0.1l0,0l0,0h-0.1h-0.1l0,0h-0.1l0,0l0,0H34h-0.1l0,0l0,0h-0.1h-0.1l0,0h-0.1h-0.1
	h-0.1l0,0l0,0h-0.1l0,0h-0.1c-0.1,0-0.3,0-0.5,0h-0.1h-0.4h-0.1l0,0H32l0,0c-0.1,0-0.2,0-0.3,0l0,0h-0.1l0,0l0,0h-0.1l0,0h-0.1h-0.1
	l0,0h-0.1l0,0h-0.1H31h-0.1h-0.1h-0.1l0,0l0,0l0,0h-0.1h-0.1h-0.1h-0.1h-0.1h-0.1l0,0H30l0,0h-0.1h-0.1h-0.1h-0.1l0,0h-0.1h-0.1l0,0
	h-0.1h-0.1l0,0h-0.1H29l0,0h-0.1l0,0h-0.1l0,0h-0.1l0,0h-0.1h-0.1l0,0h-0.1h-0.1l0,0h-0.1l0,0h-0.1l0,0l0,0H28l0,0h-0.1l0,0h-0.1
	l0,0h-0.1l0,0h-0.1h-0.1l0,0h-0.1l0,0h-0.1h-0.1l0,0h-0.1H27h-0.1h-0.1l0,0l0,0l0,0h-0.1l0,0h-0.1h-0.1h-0.1l0,0h-0.1l0,0h-0.1l0,0
	h-0.1l0,0H26l0,0l0,0l0,0l0,0l0,0l0,0h-0.1l0,0h-0.1l0,0h-0.1l0,0h-0.1h-0.1h-0.1l0,0h-0.1l0,0h-0.1l0,0h-0.1H25h-0.1h-0.1h-0.1l0,0
	l0,0l0,0h-0.1h-0.1h-0.1h-0.1h-0.1l0,0c-0.1,0-0.1,0-0.1,0l0,0H24h-0.1h-0.1l0,0l0,0h-0.1l0,0h-0.1h-0.1h-0.1h-0.1h-0.1l0,0h-0.1H23
	h-0.1h-0.1h-0.1h-0.1h-0.1h-0.1h-0.1l0,0l0,0l0,0h-0.1h-0.1l0,0H22h-0.1h-0.1h-0.1h-0.1l0,0l0,0l0,0l0,0h-0.1l0,0l0,0h-0.1l0,0h-0.1
	l0,0h-0.1l0,0l0,0l0,0h-0.1l0,0H21h-0.1H20.8 M82.8,1.8L82.8,1.8C82.9,1.8,82.9,1.7,82.8,1.8L82.8,1.8C82.9,1.7,82.8,1.7,82.8,1.8
	C82.8,1.7,82.8,1.8,82.8,1.8L82.8,1.8z M80.3,10.2c-0.1,0-0.1,0.1-0.2,0.1C80.2,10.3,80.3,10.3,80.3,10.2H80.4H80.3L80.3,10.2
	L80.3,10.2z M55.6,2.3H55.7l0,0H55.6L55.6,2.3z M41.9,15.3C41.9,15.3,41.8,15.3,41.9,15.3c-0.1,0.1-0.1,0.1-0.1,0.2v0.1V15.7v0.1
	V15.9V16v0.1l0,0V16.2v0.1V16.4v0.1v0.1V16.7v0.1l0,0V16.9V17v0.1V17.2l0,0v0.1V17.4v0.1v0.1V17.7v0.1l0,0V17.9V18v0.1V18.2v0.1
	l0.1,0.101v0.1v0.1l0,0c1.4,0,2.8,0,4.2,0H46.2l0,0c0.3,0,0.5,0,0.8,0c0.1,0,0.1,0,0.2,0c0.1,0,0.2,0,0.3,0h0.1H47.7h0.1H47.9H48
	c0.1,0,0.1,0,0.2,0l0.1-0.1l0.101-0.1c0.1,0,0.1-0.101,0.199-0.101H48.7v-0.1V18.1V18v-0.1V17.8l0,0v-0.1V17.6v-0.1v-0.1V17.3v-0.1
	V17.1l0,0V17v-0.1V16.8v-0.1V16.6v-0.1v-0.1l0,0V16.3v-0.1V16.1V16v-0.1V15.8v-0.1l0,0V15.6v-0.1v-0.1v-0.1V15v-0.1l0,0
	c-1.5,0-3,0-4.5,0l0,0V15v0.1v0.1v0.1v0.1v0.1l0,0v0.1V15.7v0.1V15.9V16l0.1,0.1V16.2l0,0v0.1l0.1,0.101v0.1v0.1V16.7l0.1,0.1V16.9
	l0,0V17l0.1,0.1l0.1,0.101v0.1h0.1h0.1H45V17.4v0.1v0.1V17.7l0,0v0.1l0,0V17.9l0,0V18l0,0h-0.1c-0.1,0-0.2,0-0.3,0s-0.1,0-0.1,0
	v-0.1l0,0c-0.1,0-0.1,0-0.2,0c-0.1,0-0.1-0.101-0.2-0.101v-0.1l0,0c-0.1,0-0.1,0-0.1,0c-0.1,0-0.1-0.101-0.1-0.101l-0.1-0.1
	c-0.1,0-0.1,0-0.1,0l-0.1-0.1L43.5,17.3l-0.1-0.1L43.3,17.1L43.2,17l-0.1-0.1V16.8l0,0v-0.1L43,16.6v-0.1v-0.1V16.3v-0.1V16.1l0,0
	V16v-0.1V15.8v-0.1V15.6v-0.1v-0.1l0,0v-0.1v-0.1v-0.1V15v-0.1v-0.1l0,0c-0.1,0-0.1,0-0.2,0h-0.1c-0.1,0-0.1,0.1-0.2,0.1
	s-0.1,0-0.2,0C42,15.1,42,15.2,41.9,15.3C41.9,15.2,41.9,15.2,41.9,15.3z M44.5,17.3L44.5,17.3L44.5,17.3L44.5,17.3L44.5,17.3z
	 M3.5,20.6l23.531-4.443c0.1,0-0.031-0.256,0.069-0.256s-6.399,0-6.3,0c0.1,0,0.1-0.2,0.2-0.2h0.1h0.1h0.1c0.1,0,0.1,0,0.2,0
	c0,0,0,0,0.1,0s0.1,0,0.2,0c0.1,0,0.2,0,0.3,0h0.1c0.1,0,0.1,0,0.2,0s0.2-0.101,0.3-0.101c0.1,0,0.2-0.1,0.3-0.1s0.2-0.1,0.3-0.1
	c0.1,0,0.1-0.1,0.2-0.1h0.1l0,0c0,0,0,0,0.1,0l0.9-0.3c-1.7-0.8-1.6-0.8-1.5-0.9l0,0c0.1,0,0.2,0,0.3,0s0.1,0,0.2,0h0.1
	c0.1,0,0.1,0,0.2,0s0.3-0.1,0.4-0.1c0.1,0,0.2-0.1,0.3-0.1s0.1-0.1,0.2-0.1c0.1,0,0.1,0,0.2,0s0.2-0.1,0.3-0.1c0,0,0,0,0.1,0
	c0,0,0-0.1,0.1-0.1s0.1-0.1,0.2-0.1c0.1,0,0.1-0.1,0.2-0.1c-7.5,0-15,0-22.5,0v0.1l0,0l0,0l0,0H3.3l-0.1,0.1l0,0l0,0l0,0l0,0v0.7
	l0.003,0.042v3L3.2,17.3V18l0,0v1.4l0,0v0.1l0,0v0.1l0,0V19.7l0,0l0,0l0,0l0,0l0,0h0.1l0,0C3,20,3,20,3,20h0.1l0,0
	c0,0.1,0,0.1,0,0.1V20.2c0,0,0,0,0.1,0v0.1l0,0l0,0V20.4v0.1H3.1H3l0,0c0,0,0,0,0,0.1h0.1h0.1c0.1,0,0.1,0,0.2,0 M31.6,14.1
	c-0.1,0-0.2,0-0.4,0.1c-0.1,0.1-0.1,0.1-0.2,0.1s-0.2,0.1-0.3,0.1h0.1c0.2,0,0.4,0,0.6,0h0.1h0.1l0,0h0.1c-0.1-0.1-0.1-0.1-0.2-0.2
	C31.6,14.2,31.6,14.2,31.6,14.1L31.6,14.1z"/>
<g>
	<defs>
		<path id="SVGID_1_" d="M20.8,15.836l-1.014,0.15L3.2,19.143c-0.014,1.021-0.018,3.793-0.018,3.793l0,0h-0.1l0,0h-0.1l0,0h-0.1l0,0
			l0,0l0,0l0,0h-0.1l0,0H2.5H2.1H2l0,0H1.9H1.8H1.7l0,0H1.6l0,0l0,0H1.5l0,0H1.4H1.2l0,0H1.1H1H0.9l0,0H0.8l0,0H0.7H0.6l-0.1-0.1
			l-0.1-0.102l0,0v-0.1c-0.1,0-0.1,0-0.2,0v-0.1l0,0v-4.1l0,0l0,0h0.1c0.1,0,0.1,0,0.2,0l0,0v-0.1v-0.102v-0.1l0,0v-0.1v-0.1v-0.1
			v-0.102v-0.1v-0.1v-0.1v-0.1v-0.102v-0.1v-0.1v-0.1v-0.1v-0.102v-0.1l0,0v-0.1v-0.1v-0.1v-0.102v-0.1v-0.1v-0.1l0,0v-0.1v-0.102
			v-0.1v-0.1v-0.1v-0.1v-0.102l0,0v-0.1v-0.1v-0.1v-0.1v-0.101v-0.1v-0.101l0,0v-0.1v-0.1v-0.101v-0.1v-0.101v-0.1v-0.1l0,0v-0.101
			v-0.1v-0.101v-0.1v-0.1v-0.101v-0.1v-0.101v-0.1c0,0,0,0,0-0.1H0.4c-0.1,0-0.1,0-0.2,0l-0.1-0.101l-0.1-0.1v-0.101l0,0v-0.1v-0.1
			v-0.101v-0.1v-0.101c0,0.9,0,0.9,0,0.9v-0.1l0,0v-0.101v-0.1v-0.101v-0.1v-0.1v-0.101v-0.1l0,0v-0.101v-0.1l0,0v-0.1v-0.101v-0.1
			v-0.101l0,0v-0.1v-0.1v-0.101v-0.1v-0.101v-0.1v-0.1l0,0v-0.101v-0.1v-0.101v-0.1v-0.1v-0.101l0.1-0.1l0,0v-0.101v-0.1v-0.1
			c0.1,0,0.1-0.101,0.1-0.101l0.1-0.1h0.1h0.1l0.1-0.101l0.1-0.1h0.1l0,0h0.1l0,0c0.1,0,0.1,0,0.1,0l0,0c0.1,0,0.1,0,0.1,0
			c0.1,0,0.1,0.1,0.2,0.1l0,0c0.5,0,1.1,0,1.6,0l0,0l0,0c2,0,4,0,6.1,0c0.1,0,0.1,0,0.2,0c0.2,0,0.4,0,0.6,0h0.1l0,0
			c1.1,0,2.2,0,3.3,0l0,0h0.1l0,0c0.1,0,0.1,0,0.2,0s0.1,0,0.2,0h0.1c0.1,0,0.1-0.1,0.1-0.1l0.1-0.1l0.1-0.101
			c0.1,0,0.1-0.1,0.2-0.1V9.035h0.1l0,0c0.1,0,0.1,0,0.2,0s0.1,0,0.2,0l0,0h0.1c0.1,0,0.1,0,0.1,0v0.101v0.1v0.101v0.1
			c-0.1,0-0.1,0.1-0.2,0.1l0,0h0.1c0,0,0,0,0.1,0l0,0l0,0l0,0h0.1h0.1h0.1h0.1c0.1,0,0.2,0,0.3,0l0,0c0.2,0,0.3,0,0.5,0h0.1
			c0.1,0,0.3,0,0.4,0h0.1c0.1,0,0.3,0,0.4,0h0.1c0.9,0,1.9,0,2.8,0h0.1c0.1,0,0.2,0,0.3,0h0.1c1,0,2,0,3,0h0.1c0.4,0,0.7,0,1,0h0.1
			c0.7,0,1.3,0,2,0h0.1H27c0.4,0,0.8,0,1.2,0h0.1h0.1l0,0c0.2,0,0.4,0,0.6,0v-0.1l0.1-0.1l0.1-0.101l0.1-0.1l0.1-0.101l0.1-0.1h0.1
			c0.1,0,0.1-0.1,0.2-0.1V8.735l0.1-0.1L30,8.535l0.1-0.1v-0.1l0.1-0.101l0,0c0.1,0,0.1-0.1,0.2-0.1l0.1-0.101h0.1l0,0h0.1
			c0.2,0,0.5,0,0.7,0l0.1-0.1l0.1-0.1l0.1-0.101h0.1v-0.1l0.1-0.101l0.1-0.1l0.1-0.1l0.1-0.101h0.1h0.1v-0.1V7.035l0.1-0.1l0.1-0.1
			l0.1-0.101l0.1-0.1l0,0V6.535v-0.1h0.1l0,0H33v-0.1l0.1-0.101l0.1-0.1l0.1-0.101l0.1-0.1l0.1-0.1l0,0l0.1-0.101l0.1-0.1l0.1-0.101
			l0.1-0.1l0.1-0.1l0.1-0.101l0.1-0.1l0,0c0.1,0,0.1-0.101,0.2-0.101s0.1,0,0.2,0l0,0l0,0l0,0h0.1h0.1l0,0c5.4,0,10.9,0,16.3,0l0,0
			v-0.1v-0.1L51.2,4.735l0,0v-0.1V4.535l0.1-0.1l0,0H51.4h0.1l0,0l0,0h0.1H51.7c0.1,0,0.3,0,0.399,0l0,0v-0.1L52.2,4.235l0.1-0.1
			H52.4l0.1-0.101l0,0l0,0h0.1v-0.1H52.7l0.1-0.1H52.9l0,0L53,3.735l0.1-0.1l0,0V3.535l0.1-0.1l0.101-0.1L53.4,3.235v-0.1V3.035
			v-0.1l0,0c0.1,0,0.1,0,0.1,0l0,0l0,0v-1.1h0.1h0.1l0.101,0.1c0.101,0,0.101,0,0.2,0h0.1v-0.1c0.1,0,0.1,0,0.1,0
			c0.101,0,0.201,0,0.301,0h0.1l0.1,0.1c1.301,0,1.301,0,1.301,0l0.1,0.1v0.101H56.2l0.1,0.1L56.4,2.335l0.1,0.1l0.1,0.1L56.7,2.635
			l0.1,0.1l0,0H56.9L57,2.835v0.1l0,0l0,0l0.1,0.1v0.101c0.101,0,0.101,0,0.101,0l0.1,0.1v0.101v0.1l0,0c0.5,0,1,0,1.5,0l0,0v-0.1
			V3.235H58.9l0,0c0.1,0,0.1,0,0.199,0c0.101,0,0.101,0,0.2,0c0.101,0,0.101,0,0.2,0v-0.1c0.1,0,0.1,0,0.2,0V3.035h0.1l0,0
			c0.101,0,0.101,0,0.2,0s0.1-0.1,0.2-0.1l0.1-0.1H60.4l0,0c0.1,0,0.1-0.101,0.199-0.101l0,0l0,0c0.101,0,0.101,0,0.2,0v-0.1H60.9
			l0,0c0.1,0,0.1,0,0.1,0h0.1v0.1v0.101v0.1v0.1l0,0v0.101v0.1v0.101v0.1v0.1v0.101v0.1l0,0L61.2,3.835v0.1v0.1l0,0
			c0.6,0,1.2,0,1.8,0l0,0h0.1l0,0c0.101,0,0.101,0,0.2,0c0.101,0,0.101,0.101,0.2,0.101l0.1,0.1l0,0v0.101l0,0H63.7h0.1v0.1v0.1l0,0
			L63.9,4.635l0.1,0.1v0.101v0.1h0.1l0,0c5.2,0,10.5,0,15.7,0l0.101-0.1H80l0.1-0.101v-0.1V4.535v-0.1v-0.1V4.235l0.1-0.1l0,0V4.035
			v-0.1v-0.1V3.735v-0.1V3.535v-0.1l0,0v-0.1V3.235v-0.1V3.035v-0.1v-0.1V2.735l0,0v-0.1V2.535v-0.1v-0.1V2.235v-0.1V2.035l0,0v-0.1
			v-0.1V1.735l0.101-0.1H80.4c0.1,0,0.199,0,0.299,0c1.001-0.3,1.001-0.4,1.101-0.4c0.3,0,0.601,0,1,0v-0.1c0.101,0,0.101,0,0.101,0
			c0.199,0,0.399,0,0.6,0h0.1l0,0l0,0H83.7h0.1l0.101,0.1v0.101v0.1v0.1v0.101l0,0v0.1v0.101v0.1v0.1v0.101v0.1v0.101l0,0v0.1v0.1
			v0.101v0.1v0.101v0.1l0,0l0,0v0.1v0.101v0.1v0.101H83.8v0.1l0,0l0,0v0.1v0.101v0.1v0.101v0.1l0,0v0.1v0.101v0.1v0.101v0.1v0.1l0,0
			l0,0L83.9,4.635v0.1v0.101v0.1v0.1v0.101v0.1l0,0v0.101v0.1v0.1v0.101v0.1v0.101v0.1l0,0v0.1v0.101v0.1v0.101v0.1v0.1v0.101l0,0
			v0.1v0.101v0.1v0.1v0.101v0.1v0.101l0,0v0.1v0.1v0.101v0.1v0.101v0.1v0.1l0,0c1.6,0,3.1,0,4.699,0c0.101,0,0.101,0.101,0.2,0.101
			l0,0H88.9l0,0c0.1,0,0.1,0.1,0.199,0.1l0,0L89.2,8.335v0.1v0.1v0.101v0.1v0.101v0.1l0,0v0.1v0.101v0.1v0.101v0.1v0.1v0.101l0,0
			v0.1v0.101v0.1v0.1v0.101v0.1v0.101l0,0v0.1v0.1v0.101v0.1v0.101v0.1v0.1l0,0v0.101v0.1v0.101v0.1v0.1v0.101v0.1l0,0v0.101v0.1
			v0.1v0.101H89.1l0,0c-0.1,0-0.1,0-0.1,0c-1.4,0-2.7,0-4.1,0c-0.101,0-0.101,0-0.101,0c-0.1,0-0.1,0-0.2,0h-0.1c0,0,0,0,0.1,0l0,0
			c0.101,0,0.101,0.1,0.2,0.1H84.9v0.101v0.1v0.1v0.101v0.1v0.101v0.1l0,0v0.1v0.101v0.1v0.101v0.1l0,0l0,0v0.1v0.101H85l0.1,0.1
			l0,0v0.101v0.1v0.1H85.2l0.1,0.101l0,0v0.1v0.101v0.1v0.1v0.101v0.1v0.101l0,0v0.1v0.1v0.1v0.1v0.102v0.1v0.1l0,0v0.1v0.1v0.102
			v0.1v0.1v0.1v0.1l0,0v0.102v0.1v0.1v0.1v0.1v0.102v0.1l0,0v0.1v0.1v0.1v0.102v0.1v0.1v0.1l0,0v0.1v0.102v0.1v0.1v0.1v0.1v0.102
			l0,0v0.1v0.1v0.1v0.1v0.102v0.1v0.1l0,0v0.1v0.1v0.102v0.1v0.1v0.1v0.1l0,0v0.102v0.1v0.1v0.1v0.1l-0.1,0.102
			c-0.101,0-0.101,0-0.101,0l0,0l0,0H85l0,0c-0.1,0-0.1,0-0.1,0c-0.601,0-1.301,0-1.9,0c-0.1,0-0.1,0-0.1,0c-0.101,0-0.2,0-0.2,0
			c-0.101,0-0.101,0-0.2,0v-0.102l-0.1-0.1l0,0v-0.1l-0.101-0.1l0,0v-0.1v-0.102v-0.1v-0.1l0,0c-9,0-18,0-27.1,0l-0.101,0.1v0.1
			v0.102v0.1v0.1v0.1v0.1l0,0L55,20.336v0.1l0,0h-0.1l0,0c-0.101,0-0.101,0-0.101,0c-0.3,0-0.7,0-1,0c-0.1,0-0.1,0-0.2,0v-0.1
			l-0.1-0.102v-0.1l0,0l0,0c-0.1,0-0.1,0-0.1,0c-0.101,0-0.101,0-0.2,0l-0.101-0.1l-0.1-0.1h-0.1v-0.1v-0.102v-0.1v-0.1v-0.1v-0.1
			v-0.102l0,0v-0.1v-0.1v-0.1v-0.1v-0.102v-0.1v-0.1l0,0v-0.1v-0.1v-0.102l0,0v-0.1v-0.1v-0.1H52.8v-0.1v-0.102v-0.1v-0.1v-0.1v-0.1
			v-0.102l0,0v-0.1l0,0c-0.1,0-0.1-0.1-0.1-0.1c-0.101,0-0.101-0.1-0.101-0.1h-0.1v0.1l0,0l0,0v0.1v0.1v0.102v0.1v0.1v0.1v0.1l0,0
			v0.102v0.1v0.1v0.1v0.1v0.102v0.1l0,0v0.1v0.1v0.1v0.102v0.1v0.1v0.1l0,0v0.1l0,0v0.102l0,0v0.1v0.1v0.1v0.1v0.102v0.1v0.1l0,0
			l-0.1,0.1l0,0v0.1v0.102v0.1v0.1v0.1l0,0v0.1v0.102v0.1l-0.101,0.1c-0.1,0-0.1,0.1-0.1,0.1v0.1c-0.101,0-0.101,0-0.101,0
			c-0.1,0-0.3,0-0.399,0c-0.101,0-0.101,0-0.101,0h-0.1c-0.1,0-0.1,0-0.2,0v-0.1l-0.1-0.1H51.1v-0.1l-0.1-0.1v-0.102l0,0v-0.1v-0.1
			v-0.1v-0.1v-0.102v-0.1v-0.1h0.1v-0.1v-0.1v-0.102c0,0,0,0,0-0.1H51c-0.1,0-0.1,0-0.2,0c-0.1,0-0.1,0-0.2,0h-0.1h-0.1
			c-0.101,0-0.101,0.1-0.2,0.1L50.1,19.836H50c-0.1,0-0.1,0.1-0.2,0.1l-0.1,0.1c-0.101,0-0.101,0.1-0.101,0.1
			c-0.1,0-0.199,0.1-0.199,0.1H49.3l0,0c-0.1,0-0.1,0-0.1,0c-0.101,0-0.2,0-0.3,0l0,0c-0.101,0-0.101,0-0.101,0
			c-0.1,0-0.2,0.102-0.3,0.102h-0.1c-0.1,0-0.1,0-0.1,0H48.2c-0.101,0-0.101,0-0.2,0h-0.1c-0.2,0-0.4,0-0.6,0
			c-0.101,0-0.101,0-0.101,0l0,0c-1.5,0-3,0-4.4,0c-0.1,0-0.1,0-0.2,0l-0.1-0.102l-0.1-0.1l0,0v-0.1v-0.1l-0.1-0.1v-0.102v-0.1v-0.1
			l-0.1-0.1l0,0l0,0h-0.1l0,0c-0.1,0-0.1,0-0.1,0c-0.1,0-0.2,0.1-0.3,0.1l0,0v0.1l-0.1,0.1l-0.1,0.102v0.1v0.1v0.1v0.1l0,0v0.102
			l-0.1,0.1v0.1v0.1v0.1v0.102v0.1l0,0v0.1l-0.1,0.1v0.1v0.102v0.1l-0.1,0.1v0.1l0,0v0.1v0.102v0.1v0.1v0.1l-0.1,0.1v0.102l0,0v0.1
			v0.1v0.1v0.1L41,22.836v0.1v0.1l0,0v0.1v0.1v0.102v0.1v0.1l-0.1,0.1v0.1l0,0v0.102v0.1v0.1v0.1v0.1l-0.1,0.102v0.1l0,0v0.1v0.1
			v0.1v0.102l-0.1,0.1v0.1v0.1l0,0v0.102v0.1v0.1v0.1l-0.1,0.1v0.102v0.1l0,0l-0.1,0.1v0.1v0.1v0.102l-0.1,0.1v0.1v0.1l0,0l-0.1,0.1
			v0.102v0.1v0.1v0.1l-0.1,0.1v0.102l0,0v0.1l-0.1,0.1v0.1v0.1v0.102l-0.1,0.1v0.1l0,0v0.1v0.1v0.102v0.1l-0.1,0.1v0.1l0,0H40h0.1
			v0.1v0.102v0.1l0.1,0.1v0.1v0.1v0.102h0.1v0.1v0.1v0.1v0.1v0.102v0.1v0.1l0,0v0.1l-0.1,0.1v0.102v0.1c-0.1,0-0.1,0.1-0.1,0.1v0.1
			v0.1l0,0L40,30.736h-0.1l0,0l-0.1,0.1h-0.1c-0.1,0-0.1,0-0.1,0c-0.2,0-0.4,0-0.7,0l0,0c-0.1,0-0.1,0-0.1,0c-0.4,0-0.8,0-1.1,0
			c-0.1,0-0.1,0-0.1,0l0,0c-0.2,0-0.4,0-0.6,0c-0.1,0-0.1,0-0.2,0l0,0c-0.1,0-0.2,0-0.3,0s-0.1,0-0.1,0l0,0c-0.1,0-0.1,0-0.2,0
			s-0.1,0-0.2,0l-0.1-0.1c-0.1,0-0.1,0-0.2,0s-0.2-0.102-0.2-0.102c-0.1,0-0.1-0.1-0.1-0.1c-0.1,0-0.1-0.1-0.2-0.1h-0.1l-0.1-0.1
			v-0.1c-0.1,0-0.1-0.102-0.1-0.102c-0.1,0-0.1-0.1-0.2-0.1v-0.1l-0.1-0.1l-0.1-0.1h-0.1v-0.102v-0.1l-0.1-0.1v-0.1v-0.1v-0.102l0,0
			l0,0h-0.1v-0.1v-0.1v-0.1v-0.1v-0.102l-0.1-0.1v-0.1l0,0v-0.1v-0.1v-0.102v-0.1v-0.1v-0.1v-0.1l0,0v-0.102v-0.1v-0.1v-0.1v-0.1
			v-0.102v-0.1l0,0v-0.1v-0.1v-0.1v-0.102v-0.1v-0.1v-0.1l0,0v-0.1v-0.102v-0.1v-0.1v-0.1v-0.1v-0.102h0.1v-0.1v-0.1v-0.1v-0.1
			v-0.102l0.1-0.1v-0.1l0,0v-0.1v-0.102v-0.1v-0.1v-0.1v-0.1l0.1-0.102l0,0v-0.1v-0.1v-0.1v-0.1l0.1-0.102v-0.1l0.1-0.1l0,0v-0.1
			v-0.1v-0.102v-0.1v-0.1v-0.1v-0.1h0.1v-0.102v-0.1v-0.1v-0.1v-0.1v-0.102v-0.1l0,0v-0.1v-0.1v-0.1v-0.102v-0.1v-0.1v-0.1l0,0v-0.1
			v-0.102v-0.1v-0.1v-0.1v-0.1l0.1-0.102l0,0v-0.1v-0.1v-0.1v-0.1v-0.102v-0.1v-0.1l0,0v-0.1v-0.1v-0.102v-0.1v-0.1v-0.1v-0.1l0,0
			v-0.102v-0.1v-0.1v-0.1v-0.1v-0.102l0.1-0.1l0,0v-0.1v-0.1v-0.1v-0.102v-0.1v-0.1v-0.1l0,0v-0.301l0,0l0,0l0,0l0,0l0,0v-1.699l0,0
			v-0.1l0,0l0,0l0,0l0,0l0,0l0,0l0,0l0,0l0,0l0,0l0,0l0,0l0,0l0,0l0,0l0,0l0,0h-0.1l0,0l0,0l0,0h-0.1l0,0h-0.1l0,0h-0.1l0,0l0,0l0,0
			h-0.1l0,0l0,0h-0.1h-0.1l0,0h-0.1l0,0l0,0H34h-0.1l0,0l0,0h-0.1h-0.1l0,0h-0.1h-0.1h-0.1l0,0l0,0h-0.1l0,0h-0.1
			c-0.1,0-0.3,0-0.5,0h-0.1h-0.4h-0.1l0,0H32l0,0c-0.1,0-0.2,0-0.3,0l0,0h-0.1l0,0l0,0h-0.1l0,0h-0.1h-0.1l0,0h-0.1l0,0h-0.1H31
			h-0.1h-0.1h-0.1l0,0l0,0l0,0h-0.1h-0.1h-0.1h-0.1h-0.1h-0.1l0,0H30l0,0h-0.1h-0.1h-0.1h-0.1l0,0h-0.1h-0.1l0,0h-0.1h-0.1l0,0h-0.1
			H29l0,0h-0.1l0,0h-0.1l0,0h-0.1l0,0h-0.1h-0.1l0,0h-0.1h-0.1l0,0h-0.1l0,0h-0.1l0,0l0,0H28l0,0h-0.1l0,0h-0.1l0,0h-0.1l0,0h-0.1
			h-0.1l0,0h-0.1l0,0h-0.1h-0.1l0,0h-0.1H27h-0.1h-0.1l0,0l0,0l0,0h-0.1l0,0h-0.1h-0.1h-0.1l0,0h-0.1l0,0h-0.1l0,0h-0.1l0,0H26l0,0
			l0,0l0,0l0,0l0,0l0,0h-0.1l0,0h-0.1l0,0h-0.1l0,0h-0.1h-0.1h-0.1l0,0h-0.1l0,0h-0.1l0,0h-0.1H25h-0.1h-0.1h-0.1l0,0l0,0l0,0h-0.1
			h-0.1h-0.1h-0.1h-0.1l0,0c-0.1,0-0.1,0-0.1,0l0,0H24h-0.1h-0.1l0,0l0,0h-0.1l0,0h-0.1h-0.1h-0.1h-0.1h-0.1l0,0h-0.1H23h-0.1h-0.1
			h-0.1h-0.1h-0.1h-0.1h-0.1l0,0l0,0l0,0h-0.1h-0.1l0,0H22h-0.1h-0.1h-0.1h-0.1l0,0l0,0l0,0l0,0h-0.1l0,0l0,0h-0.1l0,0h-0.1l0,0
			h-0.1l0,0l0,0l0,0h-0.1l0,0H21h-0.1H20.8 M82.8,1.735L82.8,1.735C82.9,1.735,82.9,1.635,82.8,1.735L82.8,1.735
			C82.9,1.635,82.8,1.635,82.8,1.735C82.8,1.635,82.8,1.735,82.8,1.735L82.8,1.735z M80.3,10.135c-0.1,0-0.1,0.1-0.2,0.1
			C80.2,10.235,80.3,10.235,80.3,10.135H80.4H80.3L80.3,10.135L80.3,10.135z M55.6,2.235H55.7l0,0H55.6L55.6,2.235z M41.9,15.234
			C41.9,15.234,41.8,15.234,41.9,15.234c-0.1,0.102-0.1,0.102-0.1,0.201v0.1v0.1v0.1v0.102v0.1v0.1l0,0v0.1v0.1v0.102v0.1v0.1v0.1
			v0.1l0,0v0.102v0.1v0.1v0.1l0,0v0.1v0.102v0.1v0.1v0.1v0.1l0,0v0.102v0.1v0.1v0.1v0.1l0.1,0.102v0.1v0.1l0,0c1.4,0,2.8,0,4.2,0
			H46.2l0,0c0.3,0,0.5,0,0.8,0c0.1,0,0.1,0,0.2,0c0.1,0,0.2,0,0.3,0h0.1H47.7h0.1H47.9H48c0.1,0,0.1,0,0.2,0l0.1-0.1l0.101-0.1
			c0.1,0,0.1-0.102,0.199-0.102H48.7v-0.1v-0.1v-0.1v-0.1v-0.102l0,0v-0.1v-0.1v-0.1v-0.1v-0.102v-0.1v-0.1l0,0v-0.1v-0.1v-0.102
			v-0.1v-0.1v-0.1v-0.1l0,0v-0.102v-0.1v-0.1v-0.1v-0.1v-0.102v-0.1l0,0v-0.1v-0.1v-0.1v-0.102v-0.299v-0.1l0,0c-1.5,0-3,0-4.5,0
			l0,0v0.1v0.1v0.1v0.1v0.102v0.1l0,0v0.1v0.1v0.1v0.102v0.1l0.1,0.1v0.1l0,0v0.1l0.1,0.102v0.1v0.1v0.1l0.1,0.1v0.102l0,0v0.1
			l0.1,0.1l0.1,0.1v0.1h0.1h0.1H45v0.102v0.1v0.1v0.1l0,0v0.1l0,0v0.102l0,0v0.1l0,0h-0.1c-0.1,0-0.2,0-0.3,0s-0.1,0-0.1,0v-0.1l0,0
			c-0.1,0-0.1,0-0.2,0c-0.1,0-0.1-0.102-0.2-0.102v-0.1l0,0c-0.1,0-0.1,0-0.1,0c-0.1,0-0.1-0.1-0.1-0.1l-0.1-0.1c-0.1,0-0.1,0-0.1,0
			l-0.1-0.1l-0.1-0.102l-0.1-0.1l-0.1-0.1l-0.1-0.1l-0.1-0.1v-0.102l0,0v-0.1l-0.1-0.1v-0.1v-0.1v-0.102v-0.1v-0.1l0,0v-0.1v-0.1
			v-0.102v-0.1v-0.1v-0.1v-0.1l0,0v-0.102v-0.1v-0.1v-0.1v-0.1v-0.101l0,0c-0.1,0-0.1,0-0.2,0h-0.1c-0.1,0-0.1,0.101-0.2,0.101
			s-0.1,0-0.2,0C42,15.035,42,15.135,41.9,15.234C41.9,15.135,41.9,15.135,41.9,15.234z M44.5,17.234L44.5,17.234L44.5,17.234
			L44.5,17.234L44.5,17.234z M3.5,20.535l23.531-4.443c0.1,0-0.031-0.256,0.069-0.256s-6.399,0-6.3,0c0.1,0,0.1-0.201,0.2-0.201h0.1
			h0.1h0.1c0.1,0,0.1,0,0.2,0c0,0,0,0,0.1,0s0.1,0,0.2,0c0.1,0,0.2,0,0.3,0h0.1c0.1,0,0.1,0,0.2,0s0.2-0.1,0.3-0.1
			c0.1,0,0.2-0.1,0.3-0.1s0.2-0.1,0.3-0.1c0.1,0,0.1-0.102,0.2-0.102h0.1l0,0c0,0,0,0,0.1,0l0.9-0.299c-1.7-0.8-1.6-0.8-1.5-0.9l0,0
			c0.1,0,0.2,0,0.3,0s0.1,0,0.2,0h0.1c0.1,0,0.1,0,0.2,0s0.3-0.1,0.4-0.1c0.1,0,0.2-0.1,0.3-0.1s0.1-0.101,0.2-0.101
			c0.1,0,0.1,0,0.2,0s0.2-0.1,0.3-0.1c0,0,0,0,0.1,0c0,0,0-0.101,0.1-0.101s0.1-0.1,0.2-0.1c0.1,0,0.1-0.1,0.2-0.1
			c-7.5,0-15,0-22.5,0v0.1l0,0l0,0l0,0H3.3l-0.1,0.1l0,0l0,0l0,0l0,0v0.7l0.003,0.042v3L3.2,17.234v0.701l0,0v1.4l0,0v0.1l0,0v0.1
			l0,0v0.1l0,0l0,0l0,0l0,0l0,0h0.1l0,0C3,19.936,3,19.936,3,19.936h0.1l0,0c0,0.1,0,0.1,0,0.1v0.1c0,0,0,0,0.1,0v0.1l0,0l0,0v0.102
			v0.1H3.1H3l0,0c0,0,0,0,0,0.1h0.1h0.1c0.1,0,0.1,0,0.2,0 M31.6,14.035c-0.1,0-0.2,0-0.4,0.101c-0.1,0.1-0.1,0.1-0.2,0.1
			s-0.2,0.101-0.3,0.101h0.1c0.2,0,0.4,0,0.6,0h0.1h0.1l0,0h0.1c-0.1-0.101-0.1-0.101-0.2-0.2C31.6,14.135,31.6,14.135,31.6,14.035
			L31.6,14.035z"/>
	</defs>
	<clipPath id="SVGID_2_">
		<use xlink:href="#SVGID_1_"  overflow="visible"/>
	</clipPath>
	<path clip-path="url(#SVGID_2_)" fill="#1A5AC1" d="M-0.771,11.787L12.8,8.699l6.813,0.651l9.695-4.598l7.589,0.333L39.5,7.633
		l3.159,5.489l1.162,2.211c0,0,1.33-4.044,3.104-3.49c1.771,0.554,0.334,3.236,0.334,3.236l5.172,7.796l2.672,0.313
		c0,0-0.756,1.84-1.975,2.836c-1.219,0.998-2.338,1.607-2.721,1.664c-0.381,0.055-2.93-0.389-3.096-0.445
		c-0.166-0.055-3.102-3.102-3.102-3.102l-4.598-1.883l-2.161,0.305l-15.455-4.294c0,0-6.149,4.044-6.703,2.325
		c-0.062-0.189-4.764,4.932-5.096,5.152c-0.333,0.223-5.429,1.107-5.429,1.107l-4.1-1.826L-0.771,11.787z"/>
	<path clip-path="url(#SVGID_2_)" fill="#A2CAFF" d="M76.07,13.186c0,0-1.133-6.686-4.071-7.064
		c-3.537-0.456-4.105,7.421-4.105,7.421s1.871-3.545,4.371-3.17C74.791,10.751,76.07,13.186,76.07,13.186z"/>
	<path clip-path="url(#SVGID_2_)" fill="#6060B2" d="M63.813,5.438c0,0,9.56-0.649,15.688,1.688
		c4.884,1.862,6.426,6.601,7.653,7.959c2.769,3.063,2.505-1.896,2.553-4.589c0.093-5.316,1.98-7.773-2.3-9.865
		C84.715-0.686,67.168,1.527,63.813,5.438z"/>
	
		<path clip-path="url(#SVGID_2_)" fill="none" stroke="#FFFFFF" stroke-width="0.25" stroke-linecap="round" stroke-linejoin="round" stroke-miterlimit="10" d="
		M55.674,15.742c0,0,2.243-8.085,6.634-7.983c3.349,0.078,5.533,2.731,6.054,5.823c0,0,1.863,6.704,4.733,7
		c2.505,0.259,2.794-5.583,2.794-5.583c0.338-2.713,3.165-12.775,7.486-1.321c0,0-1.67,5.359-4.384,6.03
		c-2.719,0.671-3.444-14.069-7.035-13.801c-1.783,0.134-2.879,1.793-3.856,6.079"/>
	<linearGradient id="SVGID_3_" gradientUnits="userSpaceOnUse" x1="6.9956" y1="16.125" x2="46.793" y2="16.125">
		<stop  offset="0" style="stop-color:#A9D0FF"/>
		<stop  offset="0.1986" style="stop-color:#A7CBFF"/>
		<stop  offset="0.4411" style="stop-color:#A1BCFF"/>
		<stop  offset="0.7063" style="stop-color:#97A3FF"/>
		<stop  offset="0.9861" style="stop-color:#8981FF"/>
		<stop  offset="1" style="stop-color:#887FFF"/>
	</linearGradient>
	<path clip-path="url(#SVGID_2_)" fill="url(#SVGID_3_)" d="M8.311,17.75c0,0-0.054,1.955,1.127,3.201
		c1.183,1.246,2.456-0.664,2.456-0.664l3.911-3.322c0,0,2.638,0.414,3.001,0.746c0.364,0.332,6.366-1.579,6.366-1.579
		s-1.182,1.663-0.454,3.157c0.728,1.498,3.82,1.414,5.093,0.832c1.272-0.582,1.819-2.16,4.365-0.914
		c2.547,1.246,5.639,2.908,5.639,2.908s1.989,0.07,2.169-0.678c0.184-0.746,1.227,0.813,2.408,0.063
		c1.184-0.746,1.857-2.336,2.313-3c0.453-0.664-0.998-5.399-0.998-5.399s1.479,3.135,0.52,1.441c-1.239-2.187-4.3-4.707-7.023,0.083
		c-1.824,3.208-3.102,0.625-3.102,0.625s-4.111,1.539-6.294,0.458c-2.182-1.08-4.089-2.567-6-2.651
		c-1.91-0.083-4.638-0.499-5.366,0.083c-0.728,0.581-1.224-2.528-2.042-2.954s-9.099,1.702-9.372,3.031
		C6.754,14.549,8.311,17.75,8.311,17.75z"/>
	<path clip-path="url(#SVGID_2_)" fill="#E9EDFF" d="M59.188,8.063c0,0-1.243-4.502,6.188-4.166C66.5,3.948,61.365,1.409,54.938,1.2
		c-8.606-0.28-19.406,1.737-19.406,1.737s3.063,6.466,3.063,6.719c0,0.128,2.83-3.851,6.268-2.226
		c2.488,1.176,3.39,6.294,3.39,6.294s2.642-8.412,7.666-8.415C56.823,5.31,59.188,8.063,59.188,8.063z"/>
	
		<path clip-path="url(#SVGID_2_)" fill="none" stroke="#FFFFFF" stroke-width="0.5" stroke-linecap="round" stroke-linejoin="round" stroke-miterlimit="10" d="
		M35.125,20.042c0,0,0.252-1.559,2.542-7.75c0.812-2.196,2.038-5.243,6.167-5.125c2.917,0.083,4.567,5.455,4.88,9.817
		c0,0,1.91-5.158,6.93-4.604c1.81,0.2,5.207,3.29,7.591,6.327c0,0-1.255-5.17-3.227-8.679c-0.731-1.299-2.105-5.065-5.15-4.792
		c-2.557,0.229-5.941,5.668-7.421,11.855"/>
	<path clip-path="url(#SVGID_2_)" fill="#AFCDFF" d="M14.42,5.473c0,0-3.482,2.228-5.324,1.195C7.254,5.637,3.179,4.24,3.179,4.24
		S-1,10.363-1.098,10.576c-0.101,0.216,3.511,6.891,3.511,6.891L9.664,16L14.42,5.473z"/>
	<path clip-path="url(#SVGID_2_)" fill="#E9EDFF" d="M10.962,14.188c0,0-2.79-1.197-4.896-1.354C3.962,12.677,0.1,11.438,0.1,11.438
		s-1.2,7.316-1.2,7.55c0,0.238,6.094,4.762,6.094,4.762l5.952-4.391L10.962,14.188z"/>
	<linearGradient id="SVGID_4_" gradientUnits="userSpaceOnUse" x1="55.2646" y1="20.042" x2="55.2646" y2="12.3535">
		<stop  offset="0" style="stop-color:#158CFF"/>
		<stop  offset="0.6989" style="stop-color:#FFFFFF"/>
	</linearGradient>
	<path clip-path="url(#SVGID_2_)" fill="url(#SVGID_4_)" d="M46.779,19.756c0,0,2.302-7.923,8.864-7.375
		c4.867,0.406,8.106,7.662,8.106,7.662L46.779,19.756z"/>
	<path clip-path="url(#SVGID_2_)" fill="#FFFFFF" d="M37.369,19.833c0,0-1.012-3.688-2.52-2.215c-1.021,1-0.272,4.42-0.272,4.42
		L33.604,31h7.563l-0.291-8.871L37.369,19.833z"/>
	<path clip-path="url(#SVGID_2_)" fill="#A4BAFF" d="M10.202,12.591c0.333,0.332,5.448-1.716,5.448-1.716s-0.711,1.798-0.046,3.294
		c0.664,1.496,3.49,1.412,4.653,0.831c1.164-0.582,1.662-2.161,3.989-0.915c0.888,0.476,1.568-3.795,2.698,1.494
		c0.624,2.92,2.454,1.414,2.454,1.414s2.941-0.684,3.107-1.432c0.167-0.748-0.68-1.034,0.4-1.782
		c1.081-0.748,0.192-1.978-0.066-2.718c-1.432-4.099-2.125-5.844-2.125-5.844s4.806,0.61,2.562-0.885
		c-2.243-1.496-3.05-4.406-5.708-0.75c-2.659,3.656-3.975,3.88-3.975,3.88s-1.286,1.708-3.817,1.12
		c-2.209-0.514-3.258-0.563-5.002-0.646S10.535,7.439,9.87,8.021C9.205,8.603,6.961,9.537,6.214,9.111
		C5.466,8.686,8.399,9.837,8.15,11.167C7.9,12.497,9.87,12.258,10.202,12.591z"/>
	<path clip-path="url(#SVGID_2_)" fill="#FFFFFF" d="M3.92,9.704c0,0-3.073,0.952-2.797,2.349c0.275,1.396,1.468,3.781,2.11,2.958
		c0.643-0.822,1.757-3.373,2.403-4.188c0.588-0.742,2.035-2.997,5.261-1.649c1.033,0.432,2.984,1.73,2.984,1.73
		s2.295-4.684,8.813-4.684c0,0-6.246,2.364-7.377,5.083c-1.839,4.417,5.421,6.281,5.421,6.281l5.063-2.686l-4.693,3.496
		l-10.538,1.978c0,0,3.244-2.318,3.03-4.716c-0.173-1.929-0.952-3.3-0.952-3.3s-2.423-3.436-5.082-1.134
		c-1.956,1.694-2.957,5.022-2.957,5.022l1.928,1.644l2.387,0.163l0.918,2.794c0,0-0.642,1.149-3.121-0.41
		c-2.478-1.563-2.846-2.221-2.846-2.221s-1.928,0.904-0.826,3.535c1.101,2.629-1.881,3.039-1.95,2.792
		c-0.07-0.247-1.95-4.682,0-6.327c1.95-1.643-0.529-1.643-1.998-5.339c-1.468-3.697-0.734-6.491,1.562-5.176
		C2.958,9.013,3.92,9.704,3.92,9.704z"/>
	<linearGradient id="SVGID_5_" gradientUnits="userSpaceOnUse" x1="66.207" y1="20.0566" x2="66.207" y2="13.8975">
		<stop  offset="0" style="stop-color:#158CFF"/>
		<stop  offset="0.6989" style="stop-color:#FFFFFF"/>
	</linearGradient>
	<path clip-path="url(#SVGID_2_)" fill="url(#SVGID_5_)" d="M60.309,19.019c0,0,2.146-5.401,5.518-5.11
		c3.373,0.291,6.279,6.148,6.279,6.148L60.309,19.019z"/>
	<path clip-path="url(#SVGID_2_)" fill="#FFFFFF" d="M24.484,6.206c-2.403,0.787-2.418,4.499-1.838,5.587
		c1.762,3.306,4.46,2.17,4.912,1.6c1.111-1.4,0.146-0.313,2.205-3.258c1.308-1.871,3.309-5.568,5.966-5.365
		c1.76,0.134,2.757,2.341,3.102,5.562c0.583,5.459,3.007,5.82,5.051,6.474c1.053,0.337-1.577,1.05-1.577,1.05
		s-4.098-0.967-4.463-6.716c-0.199-3.132-0.513-5.659-2.168-5.573c-2.61,0.136-6.67,7.442-6.67,7.442s-0.627,1.976-3.405,1.71
		c-5.85-0.559-3.8-7.25-3.8-7.25l2.873-1.667L24.484,6.206z"/>
	<path clip-path="url(#SVGID_2_)" fill="#FFFFFF" d="M38.775,16.792c0.234-1.646,1.156-4.526,3.646-5.04
		c1.946-0.402,3.271,1.832,3.271,1.832s-0.033-0.733,0.229-1.5c0.303-0.888,0.904-1.777,0.896-0.915
		c-0.021,2.061,1.326,8.202-0.51,9.831c-3.479,3.09-7.26-2.75-7.26-2.75s3.385,1.641,5.082,0.584
		c1.604-0.998,1.772-3.917,1.772-3.917s-2.27-4.027-4.792-1.625c-1.621,1.541-2.25,4.958-2.25,4.958L38.775,16.792z"/>
	<path clip-path="url(#SVGID_2_)" fill="#FFFFFF" d="M50.27,19.123c0.193,2.248-0.26,4.428-1.184,5.314
		c-0.346,0.334-1.104,1.01-2.615,0.994c-1.434-0.014-3.002-1.072-3.002-1.072s-0.009-0.102-1.497-0.977
		c-1.06-0.623,0.301-0.537,0.301-0.537s3.955,3.447,6.419,0.617c1.584-1.814,0.52-5.691,0.52-5.691L50.27,19.123z"/>
	<path clip-path="url(#SVGID_2_)" fill="#A089F4" d="M28.462,7.813"/>
	
		<linearGradient id="SVGID_6_" gradientUnits="userSpaceOnUse" x1="82.0176" y1="21.9766" x2="82.0176" y2="18.6016" gradientTransform="matrix(1.6251 -0.1265 0.1323 1.6997 -51.4457 -5.6587)">
		<stop  offset="0" style="stop-color:#158CFF"/>
		<stop  offset="0.6989" style="stop-color:#FFFFFF"/>
	</linearGradient>
	<path clip-path="url(#SVGID_2_)" fill="url(#SVGID_6_)" d="M79.421,20.762c0,0,1.518-5.177,4.543-5.14
		C86.985,15.659,90,20.913,90,20.913L79.421,20.762z"/>
</g>
</svg>
