<?xml version="1.0" encoding="utf-8"?>
<!-- Generator: Adobe Illustrator 16.0.0, SVG Export Plug-In . SVG Version: 6.00 Build 0)  -->
<!DOCTYPE svg PUBLIC "-//W3C//DTD SVG 1.0//EN" "http://www.w3.org/TR/2001/REC-SVG-20010904/DTD/svg10.dtd">
<svg version="1.0" id="图层_1" xmlns="http://www.w3.org/2000/svg" xmlns:xlink="http://www.w3.org/1999/xlink" x="0px" y="0px"
	 width="90px" height="32px" viewBox="0 0 90 32" enable-background="new 0 0 90 32" xml:space="preserve">
<path opacity="0.7" fill="#CE0B4C" enable-background="new    " d="M61.783,11.923c0,0-4.299,0.8-7.699,5.6c0,0,2.9,1.3,1.9,2.101
	s-5.4-0.399-13,7.199c0,0,3.1-1.398,7.299-1.699c4.201-0.301-1.1,2.5-2.299,3.199c0,0,7.799-3.898,10-3.6
	c2.199,0.299-7.801,6-12.1,8c0,0,13.1-4.3,14.6-4.1c1.5,0.199-0.801,2.6-4.4,4.1c0,0,7.5,0,12.5-2.3s6-2.601,6-1.3
	c0,0,4.398-2.801,3.1-3.801s3.301-2.301,6.4-4.601s4.398-3.8,4.398-3.8s-7.498,3.301-9.799,3.4c-2.299,0.101,1.5-3.1,5.6-4.899
	c4.102-1.8,5.4-5.1,5.4-5.1s-5.6,0.2-12.799,3.8c-7.201,3.6-8,4.8-7.4,2.6s7.199-5.3,7.199-5.3s-9.199,0.2-13.4,3.5
	c-4.199,3.3-3-0.8-2.1-1.601C62.084,12.522,61.783,11.923,61.783,11.923z"/>
<linearGradient id="SVGID_1_" gradientUnits="userSpaceOnUse" x1="374.96" y1="-263.6499" x2="464.5381" y2="-263.6499" gradientTransform="matrix(1 0 0 -1 -374.96 -246.5996)">
	<stop  offset="0" style="stop-color:#FF2F7D"/>
	<stop  offset="1" style="stop-color:#FF8053"/>
</linearGradient>
<path fill="url(#SVGID_1_)" d="M81.8,2.3c0.3,0,0.601,0,1,0V2.2c0.101,0,0.101,0,0.101,0c0.199,0,0.399,0,0.6,0h0.1l0,0l0,0H83.7
	h0.1L83.9,2.3v0.1v0.1v0.1v0.1l0,0v0.1v0.1V3v0.1v0.1v0.1v0.1l0,0v0.1v0.1v0.1v0.1v0.1V4l0,0l0,0v0.1v0.1v0.1v0.1H83.8v0.1l0,0l0,0
	v0.1v0.1v0.1v0.1V5l0,0v0.1v0.1v0.1v0.1v0.1v0.1l0,0l0,0L83.9,5.7v0.1v0.1V6v0.1v0.1v0.1l0,0v0.1v0.1v0.1v0.1v0.1v0.1V7l0,0v0.1v0.1
	v0.1v0.1v0.1v0.1v0.1l0,0v0.1v0.1V8v0.1v0.1v0.1v0.1l0,0v0.1v0.1v0.1v0.1v0.1V9v0.1l0,0c1.6,0,3.1,0,4.699,0
	c0.101,0,0.101,0.1,0.2,0.1l0,0H88.9l0,0C89,9.2,89,9.3,89.1,9.3l0,0L89.2,9.4v0.1v0.1v0.1v0.1v0.1V10l0,0v0.1v0.1v0.1v0.1v0.1v0.1
	v0.1l0,0v0.1v0.1V11v0.1v0.1v0.1v0.1l0,0v0.1v0.1v0.1v0.1v0.1V12v0.1l0,0v0.1v0.1v0.1v0.1v0.1v0.1v0.1l0,0v0.1V13v0.1v0.1H89.1l0,0
	c-0.1,0-0.1,0-0.1,0c-1.4,0-2.7,0-4.1,0c-0.101,0-0.101,0-0.101,0c-0.1,0-0.1,0-0.2,0h-0.1c0,0,0,0,0.1,0l0,0
	c0.101,0,0.101,0.1,0.2,0.1H84.9v0.1v0.1v0.1v0.1v0.1v0.1V14l0,0v0.1v0.1v0.1v0.1v0.1l0,0l0,0v0.1v0.1H85l0.1,0.1l0,0v0.1V15v0.1
	H85.2l0.1,0.1l0,0v0.1v0.1v0.1v0.1v0.1v0.1v0.1l0,0V16v0.1v0.1v0.1v0.1v0.1v0.1l0,0V16.7v0.1V16.9V17v0.1V17.2v0.1l0,0V17.4v0.1v0.1
	V17.7v0.101v0.1V18l0,0v0.1V18.2v0.101v0.1v0.1v0.1V18.7l0,0v0.101v0.1V19v0.1V19.2v0.101v0.1l0,0v0.1v0.1V19.7v0.101v0.1V20v0.1
	l0,0V20.2v0.101v0.1v0.1v0.1V20.7v0.101l0,0v0.1V21v0.1V21.2v0.101l-0.1,0.1c-0.101,0-0.101,0-0.101,0l0,0l0,0H85l0,0
	c-0.1,0-0.1,0-0.1,0c-0.601,0-1.301,0-1.9,0c-0.1,0-0.1,0-0.1,0c-0.101,0-0.2,0-0.2,0c-0.101,0-0.101,0-0.2,0v-0.1L82.4,21.2l0,0
	V21.1L82.3,21l0,0v-0.1v-0.1V20.7V20.6l0,0c-9,0-18,0-27.1,0L55.1,20.7v0.101v0.1V21v0.1V21.2v0.101l0,0L55,21.4v0.1l0,0h-0.1l0,0
	c-0.101,0-0.101,0-0.101,0c-0.3,0-0.7,0-1,0c-0.1,0-0.1,0-0.2,0v-0.1l-0.1-0.1V21.2l0,0l0,0c-0.1,0-0.1,0-0.1,0
	c-0.101,0-0.101,0-0.2,0L53.1,21.1L53,21h-0.1v-0.1v-0.1V20.7V20.6v-0.1v-0.1v-0.1l0,0V20.2V20.1V20v-0.1v-0.1V19.7V19.6l0,0v-0.1
	v-0.1v-0.1l0,0V19.2V19.1V19H52.8v-0.1v-0.1V18.7V18.6v-0.1v-0.1v-0.1l0,0V18.2l0,0c-0.1,0-0.1-0.101-0.1-0.101
	C52.6,18.1,52.6,18,52.6,18h-0.1v0.1l0,0l0,0V18.2v0.101v0.1v0.1v0.1V18.7v0.101l0,0v0.1V19v0.1V19.2v0.101v0.1v0.1l0,0v0.1V19.7
	v0.101v0.1V20v0.1V20.2l0,0v0.101l0,0v0.1l0,0v0.1v0.1V20.7v0.101v0.1V21v0.1l0,0L52.4,21.2l0,0v0.101v0.1v0.1v0.1V21.7l0,0v0.101
	v0.1V22L52.3,22.1c-0.1,0-0.1,0.101-0.1,0.101v0.101c-0.101,0-0.101,0-0.101,0c-0.1,0-0.3,0-0.399,0c-0.101,0-0.101,0-0.101,0h-0.1
	c-0.1,0-0.1,0-0.2,0V22.2L51.2,22.1H51.1V22L51,21.9v-0.1l0,0V21.7V21.6v-0.1v-0.1v-0.1V21.2V21.1h0.1V21v-0.1v-0.1c0,0,0,0,0-0.101
	H51c-0.1,0-0.1,0-0.2,0c-0.1,0-0.1,0-0.2,0h-0.1h-0.1c-0.101,0-0.101,0.101-0.2,0.101L50.1,20.9H50c-0.1,0-0.1,0.1-0.2,0.1l-0.1,0.1
	C49.6,21.1,49.6,21.2,49.6,21.2c-0.1,0-0.199,0.101-0.199,0.101H49.3l0,0c-0.1,0-0.1,0-0.1,0c-0.101,0-0.2,0-0.3,0l0,0
	c-0.101,0-0.101,0-0.101,0c-0.1,0-0.2,0.1-0.3,0.1h-0.1c-0.101,0-0.101,0-0.101,0h-0.1c-0.101,0-0.101,0-0.2,0h-0.1
	c-0.2,0-0.4,0-0.601,0c-0.1,0-0.1,0-0.1,0l0,0c-1.5,0-3,0-4.4,0c-0.1,0-0.1,0-0.2,0l-0.1-0.1L42.4,21.2l0,0V21.1V21l-0.1-0.1v-0.1
	V20.7V20.6l-0.1-0.1l0,0l0,0h-0.1l0,0c-0.1,0-0.1,0-0.1,0c-0.1,0-0.2,0.1-0.3,0.1l0,0V20.7l-0.1,0.101l-0.1,0.1V21v0.1V21.2v0.101
	l0,0v0.1l-0.1,0.1v0.1V21.7v0.101v0.1V22l0,0v0.1L41.3,22.2v0.101v0.1v0.1l-0.1,0.1V22.7l0,0v0.101v0.1V23v0.1V23.2l-0.1,0.101v0.1
	l0,0v0.1v0.1V23.7v0.101L41,23.9V24v0.1l0,0V24.2v0.101v0.1v0.1v0.1L40.9,24.7v0.101l0,0v0.1V25v0.1V25.2v0.101l-0.1,0.1v0.1l0,0
	v0.1V25.7v0.101v0.1L40.7,26v0.1V26.2l0,0v0.101v0.1v0.1v0.1L40.6,26.7v0.101v0.1l0,0L40.5,27v0.1V27.2v0.101l-0.1,0.1v0.1v0.1l0,0
	L40.3,27.7v0.101v0.1V28v0.1L40.2,28.2v0.101l0,0v0.1l-0.1,0.1v0.1V28.7v0.101L40,28.9V29l0,0v0.1V29.2v0.101v0.1l-0.1,0.1v0.1l0,0
	H40h0.1V29.7v0.101v0.1l0.1,0.1v0.1V30.2v0.101h0.1v0.1v0.1v0.1V30.7v0.101v0.1V31l0,0v0.1L40.2,31.2v0.101v0.1
	c-0.1,0-0.1,0.1-0.1,0.1v0.1V31.7l0,0L40,31.801h-0.1l0,0l-0.1,0.1h-0.1c-0.1,0-0.1,0-0.1,0c-0.2,0-0.4,0-0.7,0l0,0
	c-0.1,0-0.1,0-0.1,0c-0.4,0-0.8,0-1.1,0c-0.1,0-0.1,0-0.1,0l0,0c-0.2,0-0.4,0-0.6,0c-0.1,0-0.1,0-0.2,0l0,0c-0.1,0-0.2,0-0.3,0
	s-0.1,0-0.1,0l0,0c-0.1,0-0.1,0-0.2,0s-0.1,0-0.2,0l-0.1-0.1c-0.1,0-0.1,0-0.2,0S35.5,31.7,35.5,31.7c-0.1,0-0.1-0.101-0.1-0.101
	c-0.1,0-0.1-0.1-0.2-0.1h-0.1L35,31.4v-0.1c-0.1,0-0.1-0.101-0.1-0.101c-0.1,0-0.1-0.101-0.2-0.101V31l-0.1-0.1l-0.1-0.1h-0.1V30.7
	V30.6l-0.1-0.1v-0.1v-0.1V30.2l0,0l0,0h-0.1V30.1V30v-0.1v-0.1V29.7L34.1,29.6v-0.1l0,0v-0.1v-0.1V29.2V29.1V29v-0.1v-0.1l0,0V28.7
	V28.6v-0.1v-0.1v-0.1V28.2V28.1l0,0V28v-0.1v-0.1V27.7V27.6v-0.1v-0.1l0,0v-0.1V27.2V27.1V27v-0.1v-0.1V26.7h0.1V26.6v-0.1v-0.1
	v-0.1V26.2l0.1-0.101V26l0,0v-0.1v-0.1V25.7V25.6v-0.1v-0.1l0.1-0.1l0,0V25.2V25.1V25v-0.1l0.1-0.1V24.7l0.1-0.101l0,0v-0.1v-0.1
	v-0.1V24.2V24.1V24v-0.1h0.1v-0.1V23.7V23.6v-0.1v-0.1v-0.1V23.2l0,0V23.1V23v-0.1v-0.1V22.7V22.6v-0.1l0,0v-0.1v-0.1V22.2V22.1V22
	v-0.1l0.1-0.1l0,0V21.7V21.6v-0.1v-0.1v-0.1V21.2V21.1l0,0V21v-0.1v-0.1V20.7V20.6v-0.1v-0.1l0,0v-0.1V20.2V20.1V20v-0.1v-0.1
	l0.1-0.101l0,0V19.6v-0.1v-0.1v-0.1V19.2V19.1V19l0,0v-0.3l0,0l0,0l0,0l0,0l0,0V17l0,0v-0.1l0,0l0,0l0,0l0,0l0,0l0,0l0,0l0,0l0,0
	l0,0l0,0l0,0l0,0l0,0l0,0l0,0l0,0h-0.1l0,0l0,0l0,0h-0.1l0,0h-0.1l0,0h-0.1l0,0l0,0l0,0h-0.1l0,0l0,0h-0.1h-0.1l0,0h-0.1l0,0l0,0H34
	h-0.1l0,0l0,0h-0.1h-0.1l0,0h-0.1h-0.1h-0.1l0,0l0,0h-0.1l0,0h-0.1c-0.1,0-0.3,0-0.5,0h-0.1h-0.4h-0.1l0,0H32l0,0
	c-0.1,0-0.2,0-0.3,0l0,0h-0.1l0,0l0,0h-0.1l0,0h-0.1h-0.1l0,0h-0.1l0,0h-0.1H31h-0.1h-0.1h-0.1l0,0l0,0l0,0h-0.1h-0.1h-0.1h-0.1
	h-0.1h-0.1l0,0H30l0,0h-0.1h-0.1h-0.1h-0.1l0,0h-0.1h-0.1l0,0h-0.1h-0.1l0,0h-0.1H29l0,0h-0.1l0,0h-0.1l0,0h-0.1l0,0h-0.1h-0.1l0,0
	h-0.1h-0.1l0,0h-0.1l0,0h-0.1l0,0l0,0H28l0,0h-0.1l0,0h-0.1l0,0h-0.1l0,0h-0.1h-0.1l0,0h-0.1l0,0h-0.1h-0.1l0,0h-0.1H27h-0.1h-0.1
	l0,0l0,0l0,0h-0.1l0,0h-0.1h-0.1h-0.1l0,0h-0.1l0,0h-0.1l0,0h-0.1l0,0H26l0,0l0,0l0,0l0,0l0,0l0,0h-0.1l0,0h-0.1l0,0h-0.1l0,0h-0.1
	h-0.1h-0.1l0,0h-0.1l0,0h-0.1l0,0h-0.1H25h-0.1h-0.1h-0.1l0,0l0,0l0,0h-0.1h-0.1h-0.1h-0.1h-0.1l0,0c-0.1,0-0.1,0-0.1,0l0,0H24h-0.1
	h-0.1l0,0l0,0h-0.1l0,0h-0.1h-0.1h-0.1h-0.1h-0.1l0,0h-0.1H23h-0.1h-0.1h-0.1h-0.1h-0.1h-0.1h-0.1l0,0l0,0l0,0h-0.1h-0.1l0,0H22
	h-0.1h-0.1h-0.1h-0.1l0,0l0,0l0,0l0,0h-0.1l0,0l0,0h-0.1l0,0h-0.1l0,0h-0.1l0,0l0,0l0,0h-0.1l0,0H21h-0.1h-0.1H17l0,0h-0.1l0,0h-0.1
	h-0.1h-0.1h-0.1h-0.1l0,0h-0.1l0,0h-0.1H16h-0.1h-0.1l0,0h-0.1l0,0h-0.1L15.5,17c0,0,0,0-0.1,0l0,0h-0.1h-0.1l0,0h-0.1H15h-0.1l0,0
	h-0.1h-0.1h-0.1l0,0h-0.1h-0.1h-0.1l0,0h-0.1l0,0h-0.1l0,0H14h-0.1h-0.1l0,0c-0.1,0-0.1,0-0.1,0l0,0h-0.1l0,0h-0.1l0,0h-0.1l0,0
	h-0.1h-0.1h-0.1l0,0H13l0,0h-0.1l0,0h-0.1l0,0h-0.1l0,0h-0.1h-0.1l0,0h-0.1l0,0h-0.1l0,0h-0.1h-0.1H12h-0.1h-0.1l0,0h-0.1l0,0h-0.1
	h-0.1h-0.1h-0.1h-0.1h-0.1H11l0,0h-0.1l0,0l0,0h-0.1l0,0h-0.1l0,0h-0.1l0,0h-0.1l0,0l0,0l0,0h-0.1c-0.1,0-0.1,0-0.1,0l0,0h-0.1l0,0
	h-0.1l0,0H10H9.9l0,0c-0.1,0-0.1,0-0.1,0l0,0H9.7l0,0l0,0H9.6l0,0H9.5l0,0l0,0H9.4H8.1H8H7.9H7.8l0,0l0,0H7.7H7.6H7.5H7.4H7.3H7.2
	H7.1H7H6.9H6.8H6.7l0,0l0,0H6.6l0,0H6.5l0,0H6.4l0,0H6.3l0,0H6.2H6H5.9H5.8l0,0l0,0l0,0H5.7H5.6l0,0H5.5l0,0l0,0H5.4l0,0H5.3H5l0,0
	H4.9H4.8H4.7l0,0H4.6l0,0H4.5H4.4l0,0H4.3l0,0H4.2H4H3.9l0,0H3.8l0,0H3.7l0,0H3.6l0,0H3.5H3.3H3.2l0,0H3.1l0,0C3,24,3,24,3,24l0,0
	H2.9l0,0H2.8l0,0H2.7l0,0l0,0l0,0l0,0H2.6l0,0H2.5H2.1H2l0,0H1.9H1.8H1.7l0,0H1.6l0,0l0,0H1.5l0,0H1.4H1.2l0,0H1.1H1H0.9l0,0H0.8
	l0,0H0.7H0.6l-0.1-0.1L0.4,23.8l0,0v-0.1c-0.1,0-0.1,0-0.2,0V23.6l0,0v-4.1l0,0l0,0h0.1c0.1,0,0.1,0,0.2,0l0,0v-0.1V19.3v-0.1l0,0
	V19.1V19v-0.1V18.8v-0.1V18.6v-0.1v-0.1V18.3v-0.1V18.1V18v-0.1V17.8v-0.1l0,0V17.6v-0.1v-0.1V17.3v-0.1V17.1V17l0,0v-0.1V16.8v-0.1
	V16.6v-0.1v-0.1v-0.1l0,0v-0.1v-0.1V16v-0.1v-0.1v-0.1v-0.1l0,0v-0.1v-0.1v-0.1v-0.1v-0.1V15v-0.1l0,0v-0.1v-0.1v-0.1v-0.1v-0.1
	v-0.1v-0.1v-0.1V14c0,0,0,0,0-0.1H0.4c-0.1,0-0.1,0-0.2,0l-0.1-0.1L0,13.7v-0.1l0,0v-0.1v-0.1v-0.1v-0.1v-0.1C0,14,0,14,0,14v-0.1
	l0,0v-0.1v-0.1v-0.1v-0.1v-0.1v-0.1v-0.1l0,0v-0.1V13l0,0v-0.1v-0.1v-0.1v-0.1l0,0v-0.1v-0.1v-0.1v-0.1v-0.1V12v-0.1l0,0v-0.1v-0.1
	v-0.1v-0.1v-0.1v-0.1l0.1-0.1l0,0v-0.1V11v-0.1c0.1,0,0.1-0.1,0.1-0.1l0.1-0.1h0.1h0.1l0.1-0.1l0.1-0.1h0.1l0,0h0.1l0,0
	c0.1,0,0.1,0,0.1,0l0,0c0.1,0,0.1,0,0.1,0c0.1,0,0.1,0.1,0.2,0.1l0,0c0.5,0,1.1,0,1.6,0l0,0l0,0c2,0,4,0,6.1,0c0.1,0,0.1,0,0.2,0
	c0.2,0,0.4,0,0.6,0h0.1l0,0c1.1,0,2.2,0,3.3,0l0,0h0.1l0,0c0.1,0,0.1,0,0.2,0s0.1,0,0.2,0h0.1c0.1,0,0.1-0.1,0.1-0.1l0.1-0.1
	l0.1-0.1c0.1,0,0.1-0.1,0.2-0.1v-0.1h0.1l0,0c0.1,0,0.1,0,0.2,0s0.1,0,0.2,0l0,0h0.1c0.1,0,0.1,0,0.1,0v0.1v0.1v0.1v0.1
	c-0.1,0-0.1,0.1-0.2,0.1l0,0h0.1c0,0,0,0,0.1,0l0,0l0,0l0,0h0.1h0.1h0.1h0.1c0.1,0,0.2,0,0.3,0l0,0c0.2,0,0.3,0,0.5,0h0.1
	c0.1,0,0.3,0,0.4,0h0.1c0.1,0,0.3,0,0.4,0h0.1c0.9,0,1.9,0,2.8,0h0.1c0.1,0,0.2,0,0.3,0h0.1c1,0,2,0,3,0h0.1c0.4,0,0.7,0,1,0h0.1
	c0.7,0,1.3,0,2,0h0.1H27c0.4,0,0.8,0,1.2,0h0.1h0.1l0,0c0.2,0,0.4,0,0.6,0v-0.1l0.1-0.1l0.1-0.1l0.1-0.1l0.1-0.1l0.1-0.1h0.1
	c0.1,0,0.1-0.1,0.2-0.1V9.8l0.1-0.1L30,9.6l0.1-0.1V9.4l0.1-0.1l0,0c0.1,0,0.1-0.1,0.2-0.1l0.1-0.1h0.1l0,0h0.1c0.2,0,0.5,0,0.7,0
	L31.5,9l0.1-0.1l0.1-0.1h0.1V8.7l0.1-0.1L32,8.5l0.1-0.1l0.1-0.1h0.1h0.1V8.2V8.1L32.5,8l0.1-0.1l0.1-0.1l0.1-0.1l0,0V7.6V7.5h0.1
	l0,0H33V7.4l0.1-0.1l0.1-0.1l0.1-0.1L33.4,7l0.1-0.1l0,0l0.1-0.1l0.1-0.1l0.1-0.1l0.1-0.1L34,6.4l0.1-0.1l0.1-0.1l0,0
	c0.1,0,0.1-0.1,0.2-0.1s0.1,0,0.2,0l0,0l0,0l0,0h0.1h0.1l0,0c5.4,0,10.9,0,16.3,0l0,0V6V5.9L51.2,5.8l0,0V5.7V5.6l0.1-0.1l0,0H51.4
	h0.1l0,0l0,0h0.1H51.7c0.1,0,0.3,0,0.399,0l0,0V5.4L52.2,5.3l0.1-0.1H52.4l0.1-0.1l0,0l0,0h0.1V5H52.7l0.1-0.1H52.9l0,0L53,4.8
	l0.1-0.1l0,0V4.6L53.2,4.5l0.1-0.1L53.4,4.3V4.2V4.1V4l0,0c0.1,0,0.1,0,0.1,0l0,0l0,0V2.9h0.1H53.7L53.8,3C53.9,3,53.9,3,54,3h0.1
	V2.9c0.101,0,0.101,0,0.101,0c0.1,0,0.2,0,0.3,0h0.1L54.7,3C56,3,56,3,56,3l0.1,0.1v0.1H56.2l0.1,0.1L56.4,3.4l0.1,0.1l0.1,0.1
	L56.7,3.7l0.1,0.1l0,0H56.9L57,3.9V4l0,0l0,0l0.1,0.1v0.1c0.101,0,0.101,0,0.101,0l0.1,0.1v0.1v0.1l0,0c0.5,0,1,0,1.5,0l0,0V4.4V4.3
	H58.9l0,0c0.1,0,0.1,0,0.199,0c0.101,0,0.101,0,0.2,0c0.101,0,0.101,0,0.2,0V4.2c0.1,0,0.1,0,0.2,0V4.1h0.1l0,0
	c0.101,0,0.101,0,0.2,0S60.1,4,60.2,4l0.1-0.1H60.4l0,0c0.1,0,0.1-0.1,0.199-0.1l0,0l0,0c0.101,0,0.101,0,0.2,0V3.7H60.9l0,0
	c0.1,0,0.1,0,0.1,0h0.1v0.1v0.1V4v0.1l0,0v0.1v0.1v0.1v0.1v0.1v0.1v0.1l0,0L61.2,4.9V5v0.1l0,0c0.6,0,1.2,0,1.8,0l0,0h0.1l0,0
	c0.101,0,0.101,0,0.2,0c0.101,0,0.101,0.1,0.2,0.1l0.1,0.1l0,0v0.1l0,0H63.7h0.1v0.1v0.1l0,0L63.9,5.7L64,5.8v0.1V6h0.1l0,0
	c5.2,0,10.5,0,15.7,0L79.9,5.9H80l0.1-0.1V5.7V5.6V5.5V5.4V5.3L80.2,5.2l0,0V5.1V5V4.9V4.8V4.7V4.6V4.5l0,0V4.4V4.3V4.2V4.1V4V3.9
	V3.8l0,0V3.7V3.6V3.5V3.4V3.3V3.2V3.1l0,0V3V2.9V2.8l0.1-0.1H80.4c0.1,0,0.199,0,0.3,0C81.7,2.4,81.7,2.3,81.8,2.3z M82.8,2.8
	L82.8,2.8C82.9,2.8,82.9,2.7,82.8,2.8L82.8,2.8C82.9,2.7,82.8,2.7,82.8,2.8C82.8,2.7,82.8,2.8,82.8,2.8L82.8,2.8z M80.3,11.2
	c-0.1,0-0.1,0.1-0.2,0.1C80.2,11.3,80.3,11.3,80.3,11.2H80.4H80.3L80.3,11.2L80.3,11.2z M55.6,3.3H55.7l0,0H55.6L55.6,3.3z
	 M41.9,16.3C41.9,16.3,41.8,16.3,41.9,16.3c-0.1,0.1-0.1,0.1-0.1,0.2v0.1V16.7v0.1V16.9V17v0.1l0,0V17.2v0.1V17.4v0.1v0.1V17.7v0.1
	l0,0V17.9V18v0.1V18.2l0,0v0.1V18.4v0.1v0.1V18.7v0.1l0,0V18.9V19v0.1V19.2v0.1l0.1,0.101v0.1v0.1l0,0c1.4,0,2.8,0,4.2,0H46.2l0,0
	c0.3,0,0.5,0,0.8,0c0.1,0,0.1,0,0.2,0c0.1,0,0.2,0,0.3,0h0.1H47.7h0.1H47.9H48c0.1,0,0.1,0,0.2,0l0.1-0.1l0.101-0.1
	c0.1,0,0.1-0.101,0.199-0.101H48.7v-0.1V19.1V19v-0.1V18.8l0,0v-0.1V18.6v-0.1v-0.1V18.3v-0.1V18.1l0,0V18v-0.1V17.8v-0.1V17.6v-0.1
	v-0.1l0,0V17.3v-0.1V17.1V17v-0.1V16.8v-0.1l0,0V16.6v-0.1v-0.1v-0.1V16v-0.1l0,0c-1.5,0-3,0-4.5,0l0,0V16v0.1v0.1v0.1v0.1v0.1l0,0
	v0.1V16.7v0.1V16.9V17l0.1,0.1V17.2l0,0v0.1l0.1,0.101v0.1v0.1V17.7l0.1,0.1V17.9l0,0V18l0.1,0.1l0.1,0.101v0.1h0.1h0.1H45V18.4v0.1
	v0.1V18.7l0,0v0.1l0,0V18.9l0,0V19l0,0h-0.1c-0.1,0-0.2,0-0.3,0s-0.1,0-0.1,0v-0.1l0,0c-0.1,0-0.1,0-0.2,0
	c-0.1,0-0.1-0.101-0.2-0.101v-0.1l0,0c-0.1,0-0.1,0-0.1,0c-0.1,0-0.1-0.101-0.1-0.101l-0.1-0.1c-0.1,0-0.1,0-0.1,0l-0.1-0.1
	L43.5,18.3l-0.1-0.1L43.3,18.1L43.2,18l-0.1-0.1V17.8l0,0v-0.1L43,17.6v-0.1v-0.1V17.3v-0.1V17.1l0,0V17v-0.1V16.8v-0.1V16.6v-0.1
	v-0.1l0,0v-0.1v-0.1v-0.1V16v-0.1v-0.1l0,0c-0.1,0-0.1,0-0.2,0h-0.1c-0.1,0-0.1,0.1-0.2,0.1s-0.1,0-0.2,0C42,16.1,42,16.2,41.9,16.3
	C41.9,16.2,41.9,16.2,41.9,16.3z M44.5,18.3L44.5,18.3L44.5,18.3L44.5,18.3L44.5,18.3z M23.1,15.1L23.1,15.1c0.1,0,0.2,0,0.3,0
	s0.1,0,0.2,0h0.1c0.1,0,0.1,0,0.2,0s0.3-0.1,0.4-0.1c0.1,0,0.2-0.1,0.3-0.1s0.1-0.1,0.2-0.1c0.1,0,0.1,0,0.2,0s0.2-0.1,0.3-0.1
	c0,0,0,0,0.1,0c0,0,0-0.1,0.1-0.1s0.1-0.1,0.2-0.1c0.1,0,0.1-0.1,0.2-0.1c-7.5,0-15,0-22.5,0v0.1l0,0l0,0l0,0H3.3l-0.1,0.1l0,0l0,0
	l0,0l0,0v0.7l0,0v3l0,0V19l0,0v1.4l0,0v0.1l0,0v0.1l0,0V20.7l0,0l0,0l0,0l0,0l0,0h0.1l0,0C3,21,3,21,3,21h0.1l0,0c0,0.1,0,0.1,0,0.1
	V21.2c0,0,0,0,0.1,0v0.1l0,0l0,0V21.4v0.1H3.1H3l0,0c0,0,0,0,0,0.1h0.1h0.1c0.1,0,0.1,0,0.2,0s0.2,0,0.3,0c0.1,0,0.1,0,0.2,0H4
	c0.1,0,0.1,0,0.2,0c0.1,0,0.2-0.1,0.3-0.1s0.2-0.1,0.3-0.1C4.9,21.4,4.9,21.3,5,21.3s0.1,0,0.2,0c0.1,0,0.2,0,0.3,0s0.1,0,0.2,0h0.1
	c0.1,0,0.1,0,0.2,0s0.2-0.1,0.3-0.1c0.1,0,0.2-0.101,0.3-0.101S6.8,21,6.9,21s0.1,0,0.2,0s0.2-0.1,0.3-0.1S7.6,20.8,7.7,20.8
	c0.1,0,0.2-0.1,0.3-0.1S8.2,20.6,8.3,20.6c0.1,0,0.2-0.1,0.3-0.1s0.2-0.1,0.3-0.1S9.1,20.3,9.2,20.3C8.2,20,8.3,20,8.4,20
	s0.2-0.1,0.3-0.1C8.8,19.9,8.9,19.8,9,19.8s0.2,0,0.3,0c0.1,0,0.2,0,0.3,0h0.1c0.1,0,0.1,0,0.2,0s0.2,0,0.3,0c0.1,0,0.2-0.1,0.2-0.1
	c0.1,0,0.2-0.101,0.3-0.101c0.1,0,0.2-0.1,0.3-0.1s0.2-0.1,0.3-0.1c0.1,0,0.2-0.101,0.3-0.101s0.1-0.1,0.2-0.1
	c0.1,0,0.2-0.101,0.2-0.101c0.1,0,0.2-0.1,0.2-0.1c0.1,0,0.1-0.1,0.2-0.1h0.1c0.1,0,0.1,0,0.2,0c0.1,0,0.2,0,0.3,0
	c0.2,0,0.4-0.101,0.6-0.101c0.1,0,0.2-0.1,0.3-0.1s0.2-0.101,0.2-0.101c0.1,0,0.2-0.1,0.3-0.1s0.2-0.1,0.3-0.1c0.1,0,0.2,0,0.2,0
	c0.1,0,0.1,0,0.2,0h0.1c0.1,0,0.1,0,0.2,0s0.2-0.101,0.3-0.101c0.1,0,0.2-0.1,0.3-0.1s0.2-0.101,0.3-0.101c0.1,0,0.2-0.1,0.3-0.1
	s0.2,0,0.3,0s0.2-0.1,0.3-0.1c0.1,0,0.2-0.101,0.3-0.101s0.2-0.1,0.3-0.1c0.1,0,0.2,0,0.3,0s0.3-0.101,0.4-0.101s0.2-0.1,0.3-0.1
	c0.1,0,0.2-0.1,0.3-0.1s0.2-0.101,0.3-0.101s0.2-0.1,0.3-0.1c0.1,0,0.2-0.101,0.3-0.101s0.2-0.1,0.3-0.1c0.1,0,0.2-0.1,0.3-0.1
	s0.1-0.101,0.2-0.101c0.1,0,0.1-0.1,0.2-0.1h0.1h0.1h0.1c0.1,0,0.1,0,0.2,0c0,0,0,0,0.1,0s0.1,0,0.2,0c0.1,0,0.2,0,0.3,0h0.1
	c0.1,0,0.1,0,0.2,0s0.2-0.101,0.3-0.101c0.1,0,0.2-0.1,0.3-0.1s0.2-0.1,0.3-0.1c0.1,0,0.1-0.1,0.2-0.1h0.1l0,0c0,0,0,0,0.1,0
	l0.9-0.3C22.9,15.2,23,15.2,23.1,15.1z M31.6,15.1c-0.1,0-0.2,0-0.4,0.1c-0.1,0.1-0.1,0.1-0.2,0.1s-0.2,0.1-0.3,0.1h0.1
	c0.2,0,0.4,0,0.6,0h0.1h0.1l0,0h0.1c-0.1-0.1-0.1-0.1-0.2-0.2C31.6,15.2,31.6,15.2,31.6,15.1L31.6,15.1z"/>
<g>
	<g>
		<defs>
			<path id="SVGID_2_" d="M81.8,2.3c0.3,0,0.601,0,1,0V2.2c0.101,0,0.101,0,0.101,0c0.199,0,0.399,0,0.6,0h0.1l0,0l0,0H83.7h0.1
				L83.9,2.3v0.1v0.1v0.1v0.1l0,0v0.1v0.1V3v0.1v0.1v0.1v0.1l0,0v0.1v0.1v0.1v0.1v0.1V4l0,0l0,0v0.1v0.1v0.1v0.1H83.8v0.1l0,0l0,0
				v0.1v0.1v0.1v0.1V5l0,0v0.1v0.1v0.1v0.1v0.1v0.1l0,0l0,0L83.9,5.7v0.1v0.1V6v0.1v0.1v0.1l0,0v0.1v0.1v0.1v0.1v0.1v0.1V7l0,0v0.1
				v0.1v0.1v0.1v0.1v0.1v0.1l0,0v0.1v0.1V8v0.1v0.1v0.1v0.1l0,0v0.1v0.1v0.1v0.1v0.1V9v0.1l0,0c1.6,0,3.1,0,4.699,0
				c0.101,0,0.101,0.1,0.2,0.1l0,0H88.9l0,0C89,9.2,89,9.3,89.1,9.3l0,0L89.2,9.4v0.1v0.1v0.1v0.1v0.1V10l0,0v0.1v0.1v0.1v0.1v0.1
				v0.1v0.1l0,0v0.1v0.1V11v0.1v0.1v0.1v0.1l0,0v0.1v0.1v0.1v0.1v0.1V12v0.1l0,0v0.1v0.1v0.1v0.1v0.1v0.1v0.1l0,0v0.1V13v0.1v0.1
				H89.1l0,0c-0.1,0-0.1,0-0.1,0c-1.4,0-2.7,0-4.1,0c-0.101,0-0.101,0-0.101,0c-0.1,0-0.1,0-0.2,0h-0.1c0,0,0,0,0.1,0l0,0
				c0.101,0,0.101,0.1,0.2,0.1H84.9v0.1v0.1v0.1v0.1v0.1v0.1V14l0,0v0.1v0.1v0.1v0.1v0.1l0,0l0,0v0.1v0.1H85l0.1,0.1l0,0v0.1V15v0.1
				H85.2l0.1,0.1l0,0v0.1v0.1v0.1v0.1v0.1v0.1v0.1l0,0V16v0.1v0.1v0.1v0.1v0.1v0.1l0,0V16.7v0.1V16.9V17v0.1V17.2v0.1l0,0V17.4v0.1
				v0.1V17.7v0.101v0.1V18l0,0v0.1V18.2v0.101v0.1v0.1v0.1V18.7l0,0v0.101v0.1V19v0.1V19.2v0.101v0.1l0,0v0.1v0.1V19.7v0.101v0.1V20
				v0.1l0,0V20.2v0.101v0.1v0.1v0.1V20.7v0.101l0,0v0.1V21v0.1V21.2v0.101l-0.1,0.1c-0.101,0-0.101,0-0.101,0l0,0l0,0H85l0,0
				c-0.1,0-0.1,0-0.1,0c-0.601,0-1.301,0-1.9,0c-0.1,0-0.1,0-0.1,0c-0.101,0-0.2,0-0.2,0c-0.101,0-0.101,0-0.2,0v-0.1L82.4,21.2l0,0
				V21.1L82.3,21l0,0v-0.1v-0.1V20.7V20.6l0,0c-9,0-18,0-27.1,0L55.1,20.7v0.101v0.1V21v0.1V21.2v0.101l0,0L55,21.4v0.1l0,0h-0.1
				l0,0c-0.101,0-0.101,0-0.101,0c-0.3,0-0.7,0-1,0c-0.1,0-0.1,0-0.2,0v-0.1l-0.1-0.1V21.2l0,0l0,0c-0.1,0-0.1,0-0.1,0
				c-0.101,0-0.101,0-0.2,0L53.1,21.1L53,21h-0.1v-0.1v-0.1V20.7V20.6v-0.1v-0.1v-0.1l0,0V20.2V20.1V20v-0.1v-0.1V19.7V19.6l0,0
				v-0.1v-0.1v-0.1l0,0V19.2V19.1V19H52.8v-0.1v-0.1V18.7V18.6v-0.1v-0.1v-0.1l0,0V18.2l0,0c-0.1,0-0.1-0.101-0.1-0.101
				C52.6,18.1,52.6,18,52.6,18h-0.1v0.1l0,0l0,0V18.2v0.101v0.1v0.1v0.1V18.7v0.101l0,0v0.1V19v0.1V19.2v0.101v0.1v0.1l0,0v0.1V19.7
				v0.101v0.1V20v0.1V20.2l0,0v0.101l0,0v0.1l0,0v0.1v0.1V20.7v0.101v0.1V21v0.1l0,0L52.4,21.2l0,0v0.101v0.1v0.1v0.1V21.7l0,0
				v0.101v0.1V22L52.3,22.1c-0.1,0-0.1,0.101-0.1,0.101v0.101c-0.101,0-0.101,0-0.101,0c-0.1,0-0.3,0-0.399,0
				c-0.101,0-0.101,0-0.101,0h-0.1c-0.1,0-0.1,0-0.2,0V22.2L51.2,22.1H51.1V22L51,21.9v-0.1l0,0V21.7V21.6v-0.1v-0.1v-0.1V21.2V21.1
				h0.1V21v-0.1v-0.1c0,0,0,0,0-0.101H51c-0.1,0-0.1,0-0.2,0c-0.1,0-0.1,0-0.2,0h-0.1h-0.1c-0.101,0-0.101,0.101-0.2,0.101
				L50.1,20.9H50c-0.1,0-0.1,0.1-0.2,0.1l-0.1,0.1C49.6,21.1,49.6,21.2,49.6,21.2c-0.1,0-0.199,0.101-0.199,0.101H49.3l0,0
				c-0.1,0-0.1,0-0.1,0c-0.101,0-0.2,0-0.3,0l0,0c-0.101,0-0.101,0-0.101,0c-0.1,0-0.2,0.1-0.3,0.1h-0.1c-0.101,0-0.101,0-0.101,0
				h-0.1c-0.101,0-0.101,0-0.2,0h-0.1c-0.2,0-0.4,0-0.601,0c-0.1,0-0.1,0-0.1,0l0,0c-1.5,0-3,0-4.4,0c-0.1,0-0.1,0-0.2,0l-0.1-0.1
				L42.4,21.2l0,0V21.1V21l-0.1-0.1v-0.1V20.7V20.6l-0.1-0.1l0,0l0,0h-0.1l0,0c-0.1,0-0.1,0-0.1,0c-0.1,0-0.2,0.1-0.3,0.1l0,0V20.7
				l-0.1,0.101l-0.1,0.1V21v0.1V21.2v0.101l0,0v0.1l-0.1,0.1v0.1V21.7v0.101v0.1V22l0,0v0.1L41.3,22.2v0.101v0.1v0.1l-0.1,0.1V22.7
				l0,0v0.101v0.1V23v0.1V23.2l-0.1,0.101v0.1l0,0v0.1v0.1V23.7v0.101L41,23.9V24v0.1l0,0V24.2v0.101v0.1v0.1v0.1L40.9,24.7v0.101
				l0,0v0.1V25v0.1V25.2v0.101l-0.1,0.1v0.1l0,0v0.1V25.7v0.101v0.1L40.7,26v0.1V26.2l0,0v0.101v0.1v0.1v0.1L40.6,26.7v0.101v0.1
				l0,0L40.5,27v0.1V27.2v0.101l-0.1,0.1v0.1v0.1l0,0L40.3,27.7v0.101v0.1V28v0.1L40.2,28.2v0.101l0,0v0.1l-0.1,0.1v0.1V28.7v0.101
				L40,28.9V29l0,0v0.1V29.2v0.101v0.1l-0.1,0.1v0.1l0,0H40h0.1V29.7v0.101v0.1l0.1,0.1v0.1V30.2v0.101h0.1v0.1v0.1v0.1V30.7v0.101
				v0.1V31l0,0v0.1L40.2,31.2v0.101v0.1c-0.1,0-0.1,0.1-0.1,0.1v0.1V31.7l0,0L40,31.801h-0.1l0,0l-0.1,0.1h-0.1c-0.1,0-0.1,0-0.1,0
				c-0.2,0-0.4,0-0.7,0l0,0c-0.1,0-0.1,0-0.1,0c-0.4,0-0.8,0-1.1,0c-0.1,0-0.1,0-0.1,0l0,0c-0.2,0-0.4,0-0.6,0c-0.1,0-0.1,0-0.2,0
				l0,0c-0.1,0-0.2,0-0.3,0s-0.1,0-0.1,0l0,0c-0.1,0-0.1,0-0.2,0s-0.1,0-0.2,0l-0.1-0.1c-0.1,0-0.1,0-0.2,0S35.5,31.7,35.5,31.7
				c-0.1,0-0.1-0.101-0.1-0.101c-0.1,0-0.1-0.1-0.2-0.1h-0.1L35,31.4v-0.1c-0.1,0-0.1-0.101-0.1-0.101c-0.1,0-0.1-0.101-0.2-0.101
				V31l-0.1-0.1l-0.1-0.1h-0.1V30.7V30.6l-0.1-0.1v-0.1v-0.1V30.2l0,0l0,0h-0.1V30.1V30v-0.1v-0.1V29.7L34.1,29.6v-0.1l0,0v-0.1
				v-0.1V29.2V29.1V29v-0.1v-0.1l0,0V28.7V28.6v-0.1v-0.1v-0.1V28.2V28.1l0,0V28v-0.1v-0.1V27.7V27.6v-0.1v-0.1l0,0v-0.1V27.2V27.1
				V27v-0.1v-0.1V26.7h0.1V26.6v-0.1v-0.1v-0.1V26.2l0.1-0.101V26l0,0v-0.1v-0.1V25.7V25.6v-0.1v-0.1l0.1-0.1l0,0V25.2V25.1V25v-0.1
				l0.1-0.1V24.7l0.1-0.101l0,0v-0.1v-0.1v-0.1V24.2V24.1V24v-0.1h0.1v-0.1V23.7V23.6v-0.1v-0.1v-0.1V23.2l0,0V23.1V23v-0.1v-0.1
				V22.7V22.6v-0.1l0,0v-0.1v-0.1V22.2V22.1V22v-0.1l0.1-0.1l0,0V21.7V21.6v-0.1v-0.1v-0.1V21.2V21.1l0,0V21v-0.1v-0.1V20.7V20.6
				v-0.1v-0.1l0,0v-0.1V20.2V20.1V20v-0.1v-0.1l0.1-0.101l0,0V19.6v-0.1v-0.1v-0.1V19.2V19.1V19l0,0v-0.3l0,0l0,0l0,0l0,0l0,0V17
				l0,0v-0.1l0,0l0,0l0,0l0,0l0,0l0,0l0,0l0,0l0,0l0,0l0,0l0,0l0,0l0,0l0,0l0,0l0,0h-0.1l0,0l0,0l0,0h-0.1l0,0h-0.1l0,0h-0.1l0,0
				l0,0l0,0h-0.1l0,0l0,0h-0.1h-0.1l0,0h-0.1l0,0l0,0H34h-0.1l0,0l0,0h-0.1h-0.1l0,0h-0.1h-0.1h-0.1l0,0l0,0h-0.1l0,0h-0.1
				c-0.1,0-0.3,0-0.5,0h-0.1h-0.4h-0.1l0,0H32l0,0c-0.1,0-0.2,0-0.3,0l0,0h-0.1l0,0l0,0h-0.1l0,0h-0.1h-0.1l0,0h-0.1l0,0h-0.1H31
				h-0.1h-0.1h-0.1l0,0l0,0l0,0h-0.1h-0.1h-0.1h-0.1h-0.1h-0.1l0,0H30l0,0h-0.1h-0.1h-0.1h-0.1l0,0h-0.1h-0.1l0,0h-0.1h-0.1l0,0
				h-0.1H29l0,0h-0.1l0,0h-0.1l0,0h-0.1l0,0h-0.1h-0.1l0,0h-0.1h-0.1l0,0h-0.1l0,0h-0.1l0,0l0,0H28l0,0h-0.1l0,0h-0.1l0,0h-0.1l0,0
				h-0.1h-0.1l0,0h-0.1l0,0h-0.1h-0.1l0,0h-0.1H27h-0.1h-0.1l0,0l0,0l0,0h-0.1l0,0h-0.1h-0.1h-0.1l0,0h-0.1l0,0h-0.1l0,0h-0.1l0,0
				H26l0,0l0,0l0,0l0,0l0,0l0,0h-0.1l0,0h-0.1l0,0h-0.1l0,0h-0.1h-0.1h-0.1l0,0h-0.1l0,0h-0.1l0,0h-0.1H25h-0.1h-0.1h-0.1l0,0l0,0
				l0,0h-0.1h-0.1h-0.1h-0.1h-0.1l0,0c-0.1,0-0.1,0-0.1,0l0,0H24h-0.1h-0.1l0,0l0,0h-0.1l0,0h-0.1h-0.1h-0.1h-0.1h-0.1l0,0h-0.1H23
				h-0.1h-0.1h-0.1h-0.1h-0.1h-0.1h-0.1l0,0l0,0l0,0h-0.1h-0.1l0,0H22h-0.1h-0.1h-0.1h-0.1l0,0l0,0l0,0l0,0h-0.1l0,0l0,0h-0.1l0,0
				h-0.1l0,0h-0.1l0,0l0,0l0,0h-0.1l0,0H21h-0.1h-0.1H17l0,0h-0.1l0,0h-0.1h-0.1h-0.1h-0.1h-0.1l0,0h-0.1l0,0h-0.1H16h-0.1h-0.1l0,0
				h-0.1l0,0h-0.1L15.5,17c0,0,0,0-0.1,0l0,0h-0.1h-0.1l0,0h-0.1H15h-0.1l0,0h-0.1h-0.1h-0.1l0,0h-0.1h-0.1h-0.1l0,0h-0.1l0,0h-0.1
				l0,0H14h-0.1h-0.1l0,0c-0.1,0-0.1,0-0.1,0l0,0h-0.1l0,0h-0.1l0,0h-0.1l0,0h-0.1h-0.1h-0.1l0,0H13l0,0h-0.1l0,0h-0.1l0,0h-0.1l0,0
				h-0.1h-0.1l0,0h-0.1l0,0h-0.1l0,0h-0.1h-0.1H12h-0.1h-0.1l0,0h-0.1l0,0h-0.1h-0.1h-0.1h-0.1h-0.1h-0.1H11l0,0h-0.1l0,0l0,0h-0.1
				l0,0h-0.1l0,0h-0.1l0,0h-0.1l0,0l0,0l0,0h-0.1c-0.1,0-0.1,0-0.1,0l0,0h-0.1l0,0h-0.1l0,0H10H9.9l0,0c-0.1,0-0.1,0-0.1,0l0,0H9.7
				l0,0l0,0H9.6l0,0H9.5l0,0l0,0H9.4H8.1H8H7.9H7.8l0,0l0,0H7.7H7.6H7.5H7.4H7.3H7.2H7.1H7H6.9H6.8H6.7l0,0l0,0H6.6l0,0H6.5l0,0H6.4
				l0,0H6.3l0,0H6.2H6H5.9H5.8l0,0l0,0l0,0H5.7H5.6l0,0H5.5l0,0l0,0H5.4l0,0H5.3H5l0,0H4.9H4.8H4.7l0,0H4.6l0,0H4.5H4.4l0,0H4.3l0,0
				H4.2H4H3.9l0,0H3.8l0,0H3.7l0,0H3.6l0,0H3.5H3.3H3.2l0,0H3.1l0,0C3,24,3,24,3,24l0,0H2.9l0,0H2.8l0,0H2.7l0,0l0,0l0,0l0,0H2.6
				l0,0H2.5H2.1H2l0,0H1.9H1.8H1.7l0,0H1.6l0,0l0,0H1.5l0,0H1.4H1.2l0,0H1.1H1H0.9l0,0H0.8l0,0H0.7H0.6l-0.1-0.1L0.4,23.8l0,0v-0.1
				c-0.1,0-0.1,0-0.2,0V23.6l0,0v-4.1l0,0l0,0h0.1c0.1,0,0.1,0,0.2,0l0,0v-0.1V19.3v-0.1l0,0V19.1V19v-0.1V18.8v-0.1V18.6v-0.1v-0.1
				V18.3v-0.1V18.1V18v-0.1V17.8v-0.1l0,0V17.6v-0.1v-0.1V17.3v-0.1V17.1V17l0,0v-0.1V16.8v-0.1V16.6v-0.1v-0.1v-0.1l0,0v-0.1v-0.1
				V16v-0.1v-0.1v-0.1v-0.1l0,0v-0.1v-0.1v-0.1v-0.1v-0.1V15v-0.1l0,0v-0.1v-0.1v-0.1v-0.1v-0.1v-0.1v-0.1v-0.1V14c0,0,0,0,0-0.1
				H0.4c-0.1,0-0.1,0-0.2,0l-0.1-0.1L0,13.7v-0.1l0,0v-0.1v-0.1v-0.1v-0.1v-0.1C0,14,0,14,0,14v-0.1l0,0v-0.1v-0.1v-0.1v-0.1v-0.1
				v-0.1v-0.1l0,0v-0.1V13l0,0v-0.1v-0.1v-0.1v-0.1l0,0v-0.1v-0.1v-0.1v-0.1v-0.1V12v-0.1l0,0v-0.1v-0.1v-0.1v-0.1v-0.1v-0.1
				l0.1-0.1l0,0v-0.1V11v-0.1c0.1,0,0.1-0.1,0.1-0.1l0.1-0.1h0.1h0.1l0.1-0.1l0.1-0.1h0.1l0,0h0.1l0,0c0.1,0,0.1,0,0.1,0l0,0
				c0.1,0,0.1,0,0.1,0c0.1,0,0.1,0.1,0.2,0.1l0,0c0.5,0,1.1,0,1.6,0l0,0l0,0c2,0,4,0,6.1,0c0.1,0,0.1,0,0.2,0c0.2,0,0.4,0,0.6,0h0.1
				l0,0c1.1,0,2.2,0,3.3,0l0,0h0.1l0,0c0.1,0,0.1,0,0.2,0s0.1,0,0.2,0h0.1c0.1,0,0.1-0.1,0.1-0.1l0.1-0.1l0.1-0.1
				c0.1,0,0.1-0.1,0.2-0.1v-0.1h0.1l0,0c0.1,0,0.1,0,0.2,0s0.1,0,0.2,0l0,0h0.1c0.1,0,0.1,0,0.1,0v0.1v0.1v0.1v0.1
				c-0.1,0-0.1,0.1-0.2,0.1l0,0h0.1c0,0,0,0,0.1,0l0,0l0,0l0,0h0.1h0.1h0.1h0.1c0.1,0,0.2,0,0.3,0l0,0c0.2,0,0.3,0,0.5,0h0.1
				c0.1,0,0.3,0,0.4,0h0.1c0.1,0,0.3,0,0.4,0h0.1c0.9,0,1.9,0,2.8,0h0.1c0.1,0,0.2,0,0.3,0h0.1c1,0,2,0,3,0h0.1c0.4,0,0.7,0,1,0h0.1
				c0.7,0,1.3,0,2,0h0.1H27c0.4,0,0.8,0,1.2,0h0.1h0.1l0,0c0.2,0,0.4,0,0.6,0v-0.1l0.1-0.1l0.1-0.1l0.1-0.1l0.1-0.1l0.1-0.1h0.1
				c0.1,0,0.1-0.1,0.2-0.1V9.8l0.1-0.1L30,9.6l0.1-0.1V9.4l0.1-0.1l0,0c0.1,0,0.1-0.1,0.2-0.1l0.1-0.1h0.1l0,0h0.1
				c0.2,0,0.5,0,0.7,0L31.5,9l0.1-0.1l0.1-0.1h0.1V8.7l0.1-0.1L32,8.5l0.1-0.1l0.1-0.1h0.1h0.1V8.2V8.1L32.5,8l0.1-0.1l0.1-0.1
				l0.1-0.1l0,0V7.6V7.5h0.1l0,0H33V7.4l0.1-0.1l0.1-0.1l0.1-0.1L33.4,7l0.1-0.1l0,0l0.1-0.1l0.1-0.1l0.1-0.1l0.1-0.1L34,6.4
				l0.1-0.1l0.1-0.1l0,0c0.1,0,0.1-0.1,0.2-0.1s0.1,0,0.2,0l0,0l0,0l0,0h0.1h0.1l0,0c5.4,0,10.9,0,16.3,0l0,0V6V5.9L51.2,5.8l0,0
				V5.7V5.6l0.1-0.1l0,0H51.4h0.1l0,0l0,0h0.1H51.7c0.1,0,0.3,0,0.399,0l0,0V5.4L52.2,5.3l0.1-0.1H52.4l0.1-0.1l0,0l0,0h0.1V5H52.7
				l0.1-0.1H52.9l0,0L53,4.8l0.1-0.1l0,0V4.6L53.2,4.5l0.1-0.1L53.4,4.3V4.2V4.1V4l0,0c0.1,0,0.1,0,0.1,0l0,0l0,0V2.9h0.1H53.7
				L53.8,3C53.9,3,53.9,3,54,3h0.1V2.9c0.101,0,0.101,0,0.101,0c0.1,0,0.2,0,0.3,0h0.1L54.7,3C56,3,56,3,56,3l0.1,0.1v0.1H56.2
				l0.1,0.1L56.4,3.4l0.1,0.1l0.1,0.1L56.7,3.7l0.1,0.1l0,0H56.9L57,3.9V4l0,0l0,0l0.1,0.1v0.1c0.101,0,0.101,0,0.101,0l0.1,0.1v0.1
				v0.1l0,0c0.5,0,1,0,1.5,0l0,0V4.4V4.3H58.9l0,0c0.1,0,0.1,0,0.199,0c0.101,0,0.101,0,0.2,0c0.101,0,0.101,0,0.2,0V4.2
				c0.1,0,0.1,0,0.2,0V4.1h0.1l0,0c0.101,0,0.101,0,0.2,0S60.1,4,60.2,4l0.1-0.1H60.4l0,0c0.1,0,0.1-0.1,0.199-0.1l0,0l0,0
				c0.101,0,0.101,0,0.2,0V3.7H60.9l0,0c0.1,0,0.1,0,0.1,0h0.1v0.1v0.1V4v0.1l0,0v0.1v0.1v0.1v0.1v0.1v0.1v0.1l0,0L61.2,4.9V5v0.1
				l0,0c0.6,0,1.2,0,1.8,0l0,0h0.1l0,0c0.101,0,0.101,0,0.2,0c0.101,0,0.101,0.1,0.2,0.1l0.1,0.1l0,0v0.1l0,0H63.7h0.1v0.1v0.1l0,0
				L63.9,5.7L64,5.8v0.1V6h0.1l0,0c5.2,0,10.5,0,15.7,0L79.9,5.9H80l0.1-0.1V5.7V5.6V5.5V5.4V5.3L80.2,5.2l0,0V5.1V5V4.9V4.8V4.7
				V4.6V4.5l0,0V4.4V4.3V4.2V4.1V4V3.9V3.8l0,0V3.7V3.6V3.5V3.4V3.3V3.2V3.1l0,0V3V2.9V2.8l0.1-0.1H80.4c0.1,0,0.199,0,0.3,0
				C81.7,2.4,81.7,2.3,81.8,2.3z M82.8,2.8L82.8,2.8C82.9,2.8,82.9,2.7,82.8,2.8L82.8,2.8C82.9,2.7,82.8,2.7,82.8,2.8
				C82.8,2.7,82.8,2.8,82.8,2.8L82.8,2.8z M80.3,11.2c-0.1,0-0.1,0.1-0.2,0.1C80.2,11.3,80.3,11.3,80.3,11.2H80.4H80.3L80.3,11.2
				L80.3,11.2z M55.6,3.3H55.7l0,0H55.6L55.6,3.3z M41.9,16.3C41.9,16.3,41.8,16.3,41.9,16.3c-0.1,0.1-0.1,0.1-0.1,0.2v0.1V16.7v0.1
				V16.9V17v0.1l0,0V17.2v0.1V17.4v0.1v0.1V17.7v0.1l0,0V17.9V18v0.1V18.2l0,0v0.1V18.4v0.1v0.1V18.7v0.1l0,0V18.9V19v0.1V19.2v0.1
				l0.1,0.101v0.1v0.1l0,0c1.4,0,2.8,0,4.2,0H46.2l0,0c0.3,0,0.5,0,0.8,0c0.1,0,0.1,0,0.2,0c0.1,0,0.2,0,0.3,0h0.1H47.7h0.1H47.9H48
				c0.1,0,0.1,0,0.2,0l0.1-0.1l0.101-0.1c0.1,0,0.1-0.101,0.199-0.101H48.7v-0.1V19.1V19v-0.1V18.8l0,0v-0.1V18.6v-0.1v-0.1V18.3
				v-0.1V18.1l0,0V18v-0.1V17.8v-0.1V17.6v-0.1v-0.1l0,0V17.3v-0.1V17.1V17v-0.1V16.8v-0.1l0,0V16.6v-0.1v-0.1v-0.1V16v-0.1l0,0
				c-1.5,0-3,0-4.5,0l0,0V16v0.1v0.1v0.1v0.1v0.1l0,0v0.1V16.7v0.1V16.9V17l0.1,0.1V17.2l0,0v0.1l0.1,0.101v0.1v0.1V17.7l0.1,0.1
				V17.9l0,0V18l0.1,0.1l0.1,0.101v0.1h0.1h0.1H45V18.4v0.1v0.1V18.7l0,0v0.1l0,0V18.9l0,0V19l0,0h-0.1c-0.1,0-0.2,0-0.3,0
				s-0.1,0-0.1,0v-0.1l0,0c-0.1,0-0.1,0-0.2,0c-0.1,0-0.1-0.101-0.2-0.101v-0.1l0,0c-0.1,0-0.1,0-0.1,0c-0.1,0-0.1-0.101-0.1-0.101
				l-0.1-0.1c-0.1,0-0.1,0-0.1,0l-0.1-0.1L43.5,18.3l-0.1-0.1L43.3,18.1L43.2,18l-0.1-0.1V17.8l0,0v-0.1L43,17.6v-0.1v-0.1V17.3
				v-0.1V17.1l0,0V17v-0.1V16.8v-0.1V16.6v-0.1v-0.1l0,0v-0.1v-0.1v-0.1V16v-0.1v-0.1l0,0c-0.1,0-0.1,0-0.2,0h-0.1
				c-0.1,0-0.1,0.1-0.2,0.1s-0.1,0-0.2,0C42,16.1,42,16.2,41.9,16.3C41.9,16.2,41.9,16.2,41.9,16.3z M44.5,18.3L44.5,18.3L44.5,18.3
				L44.5,18.3L44.5,18.3z M23.1,15.1L23.1,15.1c0.1,0,0.2,0,0.3,0s0.1,0,0.2,0h0.1c0.1,0,0.1,0,0.2,0s0.3-0.1,0.4-0.1
				c0.1,0,0.2-0.1,0.3-0.1s0.1-0.1,0.2-0.1c0.1,0,0.1,0,0.2,0s0.2-0.1,0.3-0.1c0,0,0,0,0.1,0c0,0,0-0.1,0.1-0.1s0.1-0.1,0.2-0.1
				c0.1,0,0.1-0.1,0.2-0.1c-7.5,0-15,0-22.5,0v0.1l0,0l0,0l0,0H3.3l-0.1,0.1l0,0l0,0l0,0l0,0v0.7l0,0v3l0,0V19l0,0v1.4l0,0v0.1l0,0
				v0.1l0,0V20.7l0,0l0,0l0,0l0,0l0,0h0.1l0,0C3,21,3,21,3,21h0.1l0,0c0,0.1,0,0.1,0,0.1V21.2c0,0,0,0,0.1,0v0.1l0,0l0,0V21.4v0.1
				H3.1H3l0,0c0,0,0,0,0,0.1h0.1h0.1c0.1,0,0.1,0,0.2,0s0.2,0,0.3,0c0.1,0,0.1,0,0.2,0H4c0.1,0,0.1,0,0.2,0c0.1,0,0.2-0.1,0.3-0.1
				s0.2-0.1,0.3-0.1C4.9,21.4,4.9,21.3,5,21.3s0.1,0,0.2,0c0.1,0,0.2,0,0.3,0s0.1,0,0.2,0h0.1c0.1,0,0.1,0,0.2,0s0.2-0.1,0.3-0.1
				c0.1,0,0.2-0.101,0.3-0.101S6.8,21,6.9,21s0.1,0,0.2,0s0.2-0.1,0.3-0.1S7.6,20.8,7.7,20.8c0.1,0,0.2-0.1,0.3-0.1
				S8.2,20.6,8.3,20.6c0.1,0,0.2-0.1,0.3-0.1s0.2-0.1,0.3-0.1S9.1,20.3,9.2,20.3C8.2,20,8.3,20,8.4,20s0.2-0.1,0.3-0.1
				C8.8,19.9,8.9,19.8,9,19.8s0.2,0,0.3,0c0.1,0,0.2,0,0.3,0h0.1c0.1,0,0.1,0,0.2,0s0.2,0,0.3,0c0.1,0,0.2-0.1,0.2-0.1
				c0.1,0,0.2-0.101,0.3-0.101c0.1,0,0.2-0.1,0.3-0.1s0.2-0.1,0.3-0.1c0.1,0,0.2-0.101,0.3-0.101s0.1-0.1,0.2-0.1
				c0.1,0,0.2-0.101,0.2-0.101c0.1,0,0.2-0.1,0.2-0.1c0.1,0,0.1-0.1,0.2-0.1h0.1c0.1,0,0.1,0,0.2,0c0.1,0,0.2,0,0.3,0
				c0.2,0,0.4-0.101,0.6-0.101c0.1,0,0.2-0.1,0.3-0.1s0.2-0.101,0.2-0.101c0.1,0,0.2-0.1,0.3-0.1s0.2-0.1,0.3-0.1c0.1,0,0.2,0,0.2,0
				c0.1,0,0.1,0,0.2,0h0.1c0.1,0,0.1,0,0.2,0s0.2-0.101,0.3-0.101c0.1,0,0.2-0.1,0.3-0.1s0.2-0.101,0.3-0.101c0.1,0,0.2-0.1,0.3-0.1
				s0.2,0,0.3,0s0.2-0.1,0.3-0.1c0.1,0,0.2-0.101,0.3-0.101s0.2-0.1,0.3-0.1c0.1,0,0.2,0,0.3,0s0.3-0.101,0.4-0.101s0.2-0.1,0.3-0.1
				c0.1,0,0.2-0.1,0.3-0.1s0.2-0.101,0.3-0.101s0.2-0.1,0.3-0.1c0.1,0,0.2-0.101,0.3-0.101s0.2-0.1,0.3-0.1c0.1,0,0.2-0.1,0.3-0.1
				s0.1-0.101,0.2-0.101c0.1,0,0.1-0.1,0.2-0.1h0.1h0.1h0.1c0.1,0,0.1,0,0.2,0c0,0,0,0,0.1,0s0.1,0,0.2,0c0.1,0,0.2,0,0.3,0h0.1
				c0.1,0,0.1,0,0.2,0s0.2-0.101,0.3-0.101c0.1,0,0.2-0.1,0.3-0.1s0.2-0.1,0.3-0.1c0.1,0,0.1-0.1,0.2-0.1h0.1l0,0c0,0,0,0,0.1,0
				l0.9-0.3C22.9,15.2,23,15.2,23.1,15.1z M31.6,15.1c-0.1,0-0.2,0-0.4,0.1c-0.1,0.1-0.1,0.1-0.2,0.1s-0.2,0.1-0.3,0.1h0.1
				c0.2,0,0.4,0,0.6,0h0.1h0.1l0,0h0.1c-0.1-0.1-0.1-0.1-0.2-0.2C31.6,15.2,31.6,15.2,31.6,15.1L31.6,15.1z"/>
		</defs>
		<clipPath id="SVGID_3_">
			<use xlink:href="#SVGID_2_"  overflow="visible"/>
		</clipPath>
		<g clip-path="url(#SVGID_3_)">
			
				<linearGradient id="SVGID_4_" gradientUnits="userSpaceOnUse" x1="384.5537" y1="-269.624" x2="432.9287" y2="-256.874" gradientTransform="matrix(1 0 0 -1 -374.96 -246.5996)">
				<stop  offset="2.054068e-007" style="stop-color:#FE6198"/>
				<stop  offset="1" style="stop-color:#FFC9D4"/>
			</linearGradient>
			<polygon fill="url(#SVGID_4_)" points="-5.4,28.7 1,28.7 5.8,22.3 -0.6,22.3 			"/>
			
				<linearGradient id="SVGID_5_" gradientUnits="userSpaceOnUse" x1="383.7051" y1="-266.3994" x2="432.0744" y2="-253.6509" gradientTransform="matrix(1 0 0 -1 -374.96 -246.5996)">
				<stop  offset="2.054068e-007" style="stop-color:#FE6198"/>
				<stop  offset="1" style="stop-color:#FFC9D4"/>
			</linearGradient>
			<polygon fill="url(#SVGID_5_)" points="10.6,15.9 5.8,22.3 12.2,22.3 17,15.9 			"/>
			
				<linearGradient id="SVGID_6_" gradientUnits="userSpaceOnUse" x1="385.3848" y1="-272.7788" x2="433.7654" y2="-260.0273" gradientTransform="matrix(1 0 0 -1 -374.96 -246.5996)">
				<stop  offset="2.054068e-007" style="stop-color:#FE6198"/>
				<stop  offset="1" style="stop-color:#FFC9D4"/>
			</linearGradient>
			<polygon fill="url(#SVGID_6_)" points="7.4,28.7 13.8,28.7 18.6,22.3 12.2,22.3 			"/>
			
				<linearGradient id="SVGID_7_" gradientUnits="userSpaceOnUse" x1="384.5371" y1="-269.5542" x2="432.9103" y2="-256.8047" gradientTransform="matrix(1 0 0 -1 -374.96 -246.5996)">
				<stop  offset="2.054068e-007" style="stop-color:#FE6198"/>
				<stop  offset="1" style="stop-color:#FFC9D4"/>
			</linearGradient>
			<polygon fill="url(#SVGID_7_)" points="18.6,22.3 25,22.3 29.8,15.9 23.4,15.9 			"/>
			
				<linearGradient id="SVGID_8_" gradientUnits="userSpaceOnUse" x1="382.0234" y1="-260.021" x2="430.3984" y2="-247.271" gradientTransform="matrix(1 0 0 -1 -374.96 -246.5996)">
				<stop  offset="2.054068e-007" style="stop-color:#FE6198"/>
				<stop  offset="1" style="stop-color:#FFC9D4"/>
			</linearGradient>
			<polygon fill="url(#SVGID_8_)" points="9,9.5 4.2,15.9 10.6,15.9 15.4,9.5 			"/>
			
				<linearGradient id="SVGID_9_" gradientUnits="userSpaceOnUse" x1="381.1777" y1="-256.8096" x2="429.549" y2="-244.0606" gradientTransform="matrix(1 0 0 -1 -374.96 -246.5996)">
				<stop  offset="2.054068e-007" style="stop-color:#FE6198"/>
				<stop  offset="1" style="stop-color:#FFC9D4"/>
			</linearGradient>
			<polygon fill="url(#SVGID_9_)" points="26.7,3.1 20.3,3.1 15.4,9.5 21.8,9.5 			"/>
			
				<linearGradient id="SVGID_10_" gradientUnits="userSpaceOnUse" x1="382.8545" y1="-263.1753" x2="431.2276" y2="-250.4258" gradientTransform="matrix(1 0 0 -1 -374.96 -246.5996)">
				<stop  offset="2.054068e-007" style="stop-color:#FE6198"/>
				<stop  offset="1" style="stop-color:#FFC9D4"/>
			</linearGradient>
			<polygon fill="url(#SVGID_10_)" points="23.4,15.9 28.2,9.5 21.8,9.5 17,15.9 			"/>
			
				<linearGradient id="SVGID_11_" gradientUnits="userSpaceOnUse" x1="382.0078" y1="-259.9639" x2="430.3828" y2="-247.2139" gradientTransform="matrix(1 0 0 -1 -374.96 -246.5996)">
				<stop  offset="2.054068e-007" style="stop-color:#FE6198"/>
				<stop  offset="1" style="stop-color:#FFC9D4"/>
			</linearGradient>
			<polygon fill="url(#SVGID_11_)" points="39.5,3.1 33.1,3.1 28.2,9.5 34.6,9.5 			"/>
			
				<linearGradient id="SVGID_12_" gradientUnits="userSpaceOnUse" x1="385.3652" y1="-272.709" x2="433.7421" y2="-259.9585" gradientTransform="matrix(1 0 0 -1 -374.96 -246.5996)">
				<stop  offset="2.054068e-007" style="stop-color:#FE6198"/>
				<stop  offset="1" style="stop-color:#FFC9D4"/>
			</linearGradient>
			<polygon fill="url(#SVGID_12_)" points="31.4,22.3 37.8,22.3 42.6,15.9 36.2,15.9 			"/>
			
				<linearGradient id="SVGID_13_" gradientUnits="userSpaceOnUse" x1="384.5166" y1="-269.4844" x2="432.8916" y2="-256.7344" gradientTransform="matrix(1 0 0 -1 -374.96 -246.5996)">
				<stop  offset="2.054068e-007" style="stop-color:#FE6198"/>
				<stop  offset="1" style="stop-color:#FFC9D4"/>
			</linearGradient>
			<polygon fill="url(#SVGID_13_)" points="42.6,15.9 49,15.9 53.8,9.5 47.4,9.5 			"/>
			
				<linearGradient id="SVGID_14_" gradientUnits="userSpaceOnUse" x1="383.6846" y1="-266.3306" x2="432.0615" y2="-253.5801" gradientTransform="matrix(1 0 0 -1 -374.96 -246.5996)">
				<stop  offset="2.054068e-007" style="stop-color:#FE6198"/>
				<stop  offset="1" style="stop-color:#FFC9D4"/>
			</linearGradient>
			<polygon fill="url(#SVGID_14_)" points="34.6,9.5 29.8,15.9 36.2,15.9 41,9.5 			"/>
			
				<linearGradient id="SVGID_15_" gradientUnits="userSpaceOnUse" x1="382.835" y1="-263.1196" x2="431.2157" y2="-250.3681" gradientTransform="matrix(1 0 0 -1 -374.96 -246.5996)">
				<stop  offset="2.054068e-007" style="stop-color:#FE6198"/>
				<stop  offset="1" style="stop-color:#FFC9D4"/>
			</linearGradient>
			<polygon fill="url(#SVGID_15_)" points="52.3,3.1 45.9,3.1 41,9.5 47.4,9.5 			"/>
			
				<linearGradient id="SVGID_16_" gradientUnits="userSpaceOnUse" x1="383.6709" y1="-266.2725" x2="432.0459" y2="-253.5224" gradientTransform="matrix(1 0 0 -1 -374.96 -246.5996)">
				<stop  offset="2.054068e-007" style="stop-color:#FE6198"/>
				<stop  offset="1" style="stop-color:#FFC9D4"/>
			</linearGradient>
			<polygon fill="url(#SVGID_16_)" points="58.7,3.1 53.8,9.5 60.2,9.5 65.1,3.1 			"/>
		</g>
	</g>
</g>
<g>
	<path fill="#FFF0F4" d="M55.837,23.385l-1.3,2.8h-2.7l6.2-12.3h3l1.8,12.3h-2.6l-0.301-2.8H55.837z M59.137,16.484l-2.1,4.5h2.6
		L59.137,16.484z"/>
	<path fill="#FFF0F4" d="M66.637,26.185c-0.7,0-1.3-0.2-1.7-0.7c-0.398-0.5-0.5-1.1-0.398-1.8l1.398-7.6c0.102-0.7,0.4-1.3,1-1.7
		c0.5-0.4,1.102-0.6,1.9-0.6h4c0.7,0,1.3,0.199,1.7,0.699c0.399,0.5,0.5,1.101,0.399,1.801l-0.301,1.899h-2.6l0.3-1.6
		c0-0.2,0-0.3,0-0.4c-0.101-0.1-0.2-0.1-0.399-0.1h-2.699c-0.4,0-0.7,0.2-0.801,0.7l-1.199,6.6c0,0.2,0,0.3,0,0.4
		c0.1,0.1,0.199,0.1,0.399,0.1h2.7c0.4,0,0.7-0.2,0.8-0.7l0.2-1.399h2.6l-0.5,2.1c-0.1,0.7-0.398,1.3-1,1.7
		c-0.5,0.399-1.1,0.6-1.899,0.6H66.637z"/>
	<path fill="#FFF0F4" d="M85.537,13.885l-0.4,2.3h-5.7l-0.5,2.5h4.601l-0.4,2.3h-4.6l-0.5,2.801h5.7l-0.4,2.3h-8.2l2.2-12.2H85.537z
		"/>
</g>
</svg>
