<?xml version="1.0" encoding="utf-8"?>
<!-- Generator: Adobe Illustrator 16.0.0, SVG Export Plug-In . SVG Version: 6.00 Build 0)  -->
<!DOCTYPE svg PUBLIC "-//W3C//DTD SVG 1.0//EN" "http://www.w3.org/TR/2001/REC-SVG-20010904/DTD/svg10.dtd">
<svg version="1.0" id="图层_1" xmlns="http://www.w3.org/2000/svg" xmlns:xlink="http://www.w3.org/1999/xlink" x="0px" y="0px"
	 width="47.9px" height="32px" viewBox="0 0 47.9 32" enable-background="new 0 0 47.9 32" xml:space="preserve">
<g id="guides">
</g>
<linearGradient id="SVGID_1_" gradientUnits="userSpaceOnUse" x1="0.207" y1="16.0884" x2="47.6855" y2="16.0884">
	<stop  offset="2.300000e-007" style="stop-color:#F7D27D"/>
	<stop  offset="1" style="stop-color:#B1741F"/>
</linearGradient>
<path fill="url(#SVGID_1_)" d="M8.4,1.3v0.2l0.4,0v0.4L36,1.9V1.6l0.2-0.2l0.8,0l0.5,0.3v0.2h0.2v0.4L38,2.6h0.5l0.1,0.1
	c0.1,0.1,0.1,0.1,0.2,0.2c0,0.1,0,0.1,0,0.2c0,0,0,0.1,0,0.1h8.5l0.1,0.1c0,0,0.1,0.1,0.1,0.2c0.1,0.3,0.2,0.6,0.2,0.9
	c0,0.4,0,0.7-0.1,1c-0.1,0.2-0.1,0.3-0.2,0.4l-8.7,0l-0.2,0.3h-0.8v1.5c-0.1,0.2-0.1,0.3-0.2,0.3c-0.1,0.1-0.1,0.1-0.2,0.2l-0.1,0
	h-5.8l-0.2,0.4H32c0.4,0.1,0.8,0.2,1.2,0.3C33.5,9,33.8,9.2,34,9.4c0.1,0.1,0.2,0.2,0.3,0.2l-0.2,0.2h-3.3l5.5,18.9L36,28.8l0.1,0
	c0.1,0,0.2,0.1,0.2,0.1c0.1,0.1,0.2,0.1,0.3,0.2v0.5c0,0-0.1,0.1-0.1,0.1c-0.1,0.1-0.3,0.2-0.5,0.2c-0.2,0.1-0.4,0.2-0.5,0.2l-0.2,0
	h-0.5l-0.1,0.2h-1.3v0.4h-2.9v-0.4L24.7,9.9l-0.3-0.2l-0.5,1l0,0.9h0.1l0,0.2l0.2,0v2.5l-0.2,0v0.2l-1.5,0.5
	c-0.4,0.2-0.9,0.3-1.5,0.5c-1.2,0.3-2.1,0.4-2.8,0.3c-0.7-0.1-1.3-0.2-2-0.5c-0.2-0.1-0.4-0.1-0.6-0.2l-0.2-0.1l-0.4,0.3l-0.7,0.2
	L14,15.7L12.6,19c-1,2.4-1.6,4-2,4.9c-0.1,0.1-0.1,0.2-0.1,0.3c0,0.2,0,0.3,0,0.5c0,0.3,0.1,0.8,0.2,1.3l0.7,0c0.1,0,0.2,0,0.3,0.1
	c0.1,0,0.2,0.1,0.2,0.2c0,0.1,0,0.1,0.1,0.1l0,0.1l-0.4,0.4c-0.4,0.3-0.7,0.5-1,0.6c-0.4,0.1-0.8,0.2-1.4,0.3L8.4,28l-6.7,0.1
	l-0.2-0.3l-0.1-0.8l-0.5-0.1c-0.2,0-0.3,0-0.3-0.1c0,0-0.1,0-0.1-0.1l0-0.1c0-0.1,0-0.3,0-0.5c-0.1-0.1-0.1-0.2-0.1-0.3
	c0-0.2,0-0.4,0-0.8c0-0.4,0-0.7,0.1-1l3.4-9.2c0.2-0.2,0.4-0.5,0.5-0.8c0.4-0.6,0.6-0.9,0.7-1.1c0.1-0.3,0.1-0.5,0.2-0.6
	c0.1-0.2,0-0.5,0-0.7c-0.1-0.3-0.2-0.6-0.4-0.9c-0.2-0.3-0.3-0.6-0.6-0.8C3.9,9.9,3.6,9.6,3.2,9.3L2.7,8.9V8.2c0.1,0,0.3,0,0.5-0.2
	c0.4-0.2,0.7-0.4,1-0.8C4.5,6.9,4.7,6.5,4.8,6c0-0.1,0.1-0.3,0.1-0.4V5.5c0,0-0.1-0.1-0.1-0.1C4.7,5.3,4.6,5.2,4.5,5.1
	C4.4,5,4.3,5,4.2,5L4,4.9c-0.1,0-0.2,0-0.3,0c-0.3,0-0.4-0.1-0.6-0.2C2.9,4.6,2.8,4.5,2.7,4.3c-0.1-0.2-0.1-0.5,0-0.8
	C2.8,3.2,3,3,3.3,3c0.2-0.1,0.4-0.1,0.6,0C4,3,4.1,3.1,4.4,3.4c0.1,0.1,0.2,0.3,0.3,0.4v0.4l0.2,0.2l0-0.5C5,3.8,5,3.7,5,3.5
	C5.1,3.3,5.2,3,5.4,2.9C5.5,2.7,5.7,2.5,6,2.4c0.2-0.1,0.3-0.1,0.4-0.2V1.9h1.2V1.3H8.4z M18.2,10c-0.2,0-0.4,0.1-0.7,0.2
	c-0.5,0.2-1,0.6-1.3,1c-0.4,0.4-0.6,0.9-0.7,1.5c-0.1,0.3-0.1,0.5-0.1,0.7l0,0.2c0.1,0.1,0.1,0.3,0.2,0.4c0.2,0.4,0.6,0.8,1.2,1
	c0.3,0.2,0.8,0.3,1.4,0.3c0.6,0.1,1.2,0.1,1.7,0c1.1-0.3,2-0.7,2.7-1.2c0.2-0.2,0.3-0.3,0.5-0.5c0.1-0.1,0.1-0.3,0.2-0.5
	c0-0.1,0-0.4,0-1c0-0.6,0-1-0.1-1.2c0-0.2-0.2-0.4-0.5-0.8c-0.3-0.4-0.5-0.6-0.7-0.7c-0.2-0.1-0.4-0.2-0.7-0.2c-0.2,0-0.3,0-0.6,0.1
	c-0.2,0.1-0.3,0.2-0.4,0.3l-0.1,0.2l0.2,0l0,0.4c0,0-0.1,0.1-0.1,0.1c-0.1,0.1-0.1,0.2-0.2,0.3c-0.2,0.4-0.3,0.7-0.3,1.1
	c0,0.4,0,0.7,0.1,0.9c0,0.2,0.2,0.4,0.3,0.7c0.1,0.2,0.3,0.4,0.7,0.6c0.2,0.1,0.4,0.2,0.5,0.2v0.2c-0.2,0-0.5,0-0.8-0.1
	c-0.6-0.2-1-0.5-1.4-1C19.2,13,19.1,12.6,19,12c0-0.2-0.1-0.4-0.1-0.6v-0.2c0-0.1-0.1-0.2-0.1-0.4c-0.1-0.3-0.1-0.4-0.2-0.4
	c-0.1,0-0.2-0.1-0.3-0.3L18.2,10z"/>
<linearGradient id="SVGID_2_" gradientUnits="userSpaceOnUse" x1="-183.2822" y1="-317.2559" x2="-178.2207" y2="-317.2559" gradientTransform="matrix(6.6522 0 0 6.6522 1219.4369 2124.1409)">
	<stop  offset="2.300000e-007" style="stop-color:#EDF3CB"/>
	<stop  offset="1" style="stop-color:#F8D27E"/>
</linearGradient>
<path opacity="0.5" fill="url(#SVGID_2_)" enable-background="new    " d="M0.2,25.1c0,0,8.4-0.6,10.5-6c0,0-3.7,3.1-7.3,1.9
	c0,0,5.5-0.9,7.5-4.5c0,0-2.5,2-6.8,1.4c0,0,4-5.5,7.1-6.2c2.1-0.4,0.9-0.7,3.4-1.7c4.2-1,8.4-1.2,12.6,3.1c0,0-2.3-6.1-9.2-7.3
	c0,0,12.6-0.8,15.8,1.5c0,0-0.9-3.3-12.2-5l-2.1,0.3l-1.6-0.3H14l-0.4,1.3l-1.8-1.3H6.7L4.8,7.1L3.2,8.7l1.3,1.2L5.4,13l-1.6,1.9
	L0.2,25.1z"/>
<path opacity="0.7" fill="#7A4621" d="M25.7,12.7c0,0-3.4,0.7-6.1,5.1c0,0,2.3,1.2,1.5,2c-0.8,0.8-4.2-0.3-10.2,6.6
	c0,0,2.5-1.3,5.8-1.6c3.3-0.3-0.9,2.3-1.8,2.9c0,0,6.2-3.6,7.9-3.3c1.7,0.3-6.2,5.5-9.6,7.4c0,0,10.3-4,11.5-3.7
	c1.2,0.2-0.6,2.4-3.5,3.7c0,0,5.9,0,9.9-2.1c3.9-2.1,4.7-2.4,4.7-1.2c0,0,3.4-2.5,2.5-3.5c-1-0.9,2.6-2.1,5.1-4.2
	c2.5-2.1,3.4-3.5,3.4-3.5s-5.9,3-7.7,3.2c-1.8,0.2,1.2-2.9,4.4-4.5c3.2-1.6,4.2-4.7,4.2-4.7s-4.4,0.2-10,3.5
	c-5.7,3.3-6.3,4.4-5.9,2.4c0.4-2,5.7-4.9,5.7-4.9s-7.2,0.2-10.6,3.2c-3.3,3-2.4-0.7-1.6-1.4C25.9,13.5,25.7,12.7,25.7,12.7z"/>
<g>
	<path fill="#FBF1C8" d="M16.9,25.8l-1.3,2.8h-2.7l6.2-12.3h3l1.8,12.3h-2.6l-0.3-2.8H16.9z M20.1,19L18,23.5h2.6L20.1,19z"/>
	<path fill="#FBF1C8" d="M27.7,28.6c-0.7,0-1.3-0.2-1.7-0.7c-0.4-0.5-0.5-1.1-0.4-1.8l1.4-7.6c0.1-0.7,0.4-1.3,1-1.7
		c0.5-0.4,1.1-0.6,1.9-0.6h4c0.7,0,1.3,0.2,1.7,0.7c0.4,0.5,0.5,1.1,0.4,1.8l-0.3,1.9H33l0.3-1.6c0-0.2,0-0.3,0-0.4
		c-0.1-0.1-0.2-0.1-0.4-0.1h-2.7c-0.4,0-0.7,0.2-0.8,0.7l-1.2,6.6c0,0.2,0,0.3,0,0.4c0.1,0.1,0.2,0.1,0.4,0.1h2.7
		c0.4,0,0.7-0.2,0.8-0.7l0.2-1.4h2.6l-0.4,2.1c-0.1,0.7-0.4,1.3-1,1.7c-0.5,0.4-1.1,0.6-1.9,0.6H27.7z"/>
	<path fill="#FBF1C8" d="M46.5,16.3l-0.4,2.3h-5.7L40,21.2h4.6l-0.4,2.3h-4.6l-0.5,2.8h5.7l-0.4,2.3h-8.2l2.2-12.3H46.5z"/>
</g>
</svg>
