<?xml version="1.0" encoding="utf-8"?>
<!-- Generator: Adobe Illustrator 16.0.0, SVG Export Plug-In . SVG Version: 6.00 Build 0)  -->
<!DOCTYPE svg PUBLIC "-//W3C//DTD SVG 1.0//EN" "http://www.w3.org/TR/2001/REC-SVG-20010904/DTD/svg10.dtd">
<svg version="1.0" id="图层_1" xmlns="http://www.w3.org/2000/svg" xmlns:xlink="http://www.w3.org/1999/xlink" x="0px" y="0px"
	 width="50.8px" height="32px" viewBox="0 0 50.8 32" enable-background="new 0 0 50.8 32" xml:space="preserve">
<path opacity="0.7" fill="#2D52EA" enable-background="new    " d="M27.037,13.113c0,0-3.666,0.736-6.563,5.157
	c0,0,2.472,1.195,1.62,1.932c-0.853,0.738-4.604-0.365-11.085,6.627c0,0,2.644-1.285,6.224-1.563
	c3.583-0.277-0.938,2.301-1.96,2.943c0,0,6.65-3.588,8.527-3.314c1.875,0.277-6.652,5.523-10.318,7.365
	c0,0,11.171-3.959,12.45-3.773c1.279,0.182-0.683,2.393-3.751,3.773c0,0,6.395,0,10.658-2.117s5.116-2.395,5.116-1.197
	c0,0,3.751-2.578,2.645-3.5c-1.107-0.92,2.815-2.117,5.456-4.234c2.645-2.117,3.75-3.498,3.75-3.498s-6.393,3.039-8.354,3.129
	c-1.962,0.094,1.279-2.854,4.774-4.509c3.497-1.657,4.605-4.695,4.605-4.695s-4.776,0.185-10.915,3.498
	c-6.139,3.313-6.822,4.418-6.31,2.393c0.512-2.025,6.14-4.878,6.14-4.878s-7.845,0.184-11.428,3.222
	c-3.58,3.038-2.558-0.736-1.79-1.473C27.294,13.666,27.037,13.113,27.037,13.113z"/>
<path fill="#0001BF" d="M50.3,3.3c0.1,0,0.1,0,0.3,0v1l0.2,1.4c-0.1,0.3-0.1,0.6-0.301,0.9c-0.101,0.3-0.101,0.5-0.299,0.8
	C50.1,7.8,50,8.1,49.9,8.3c-0.199,0.7-0.3,1.2-0.5,1.6c-0.1,0.4-0.199,0.6-0.3,0.8C49,10.9,49,11,48.9,11c0,0.1-0.1,0.1-0.1,0.1
	H29.3c0,0-0.2,0-0.6,0.1c-0.4,0.2-0.802,0.5-1.302,0.9c-0.399,0.4-0.8,1-1.198,1.9C25.8,14.8,25.6,15.9,25.6,17.3v0.5h-0.1
	c0,0-0.3,0.101-0.8,0.2s-1.1,0.2-1.9,0.3C22.1,18.4,21.3,18.4,20.5,18.4s-1.6-0.2-2.2-0.4c-0.2,0.1-0.5,0.2-0.8,0.6
	C17.2,19,17,19.4,17,19.8c0,0.3-0.1,0.8-0.3,1.601c-0.1,0.801-0.3,1.699-0.5,2.601c-0.2,0.899-0.3,1.7-0.4,2.5
	c-0.2,0.7-0.3,1.2-0.3,1.3l0.7,1.9H16c-1.3,0.199-2.7,0.3-4.1,0.5c-1.2,0.1-2.5,0.199-3.8,0.199c-1.4,0-2.7,0-4-0.199
	c-0.1,0-0.2,0-0.3,0C3.6,30.1,3.4,30,3.3,29.8C3.1,29.2,3,28.7,3,28c0-0.5,0-1,0.1-1.7s0.3-1.5,0.6-2.399C4,23,4.3,21.9,4.8,20.6
	C5.4,19.4,6,18,6.7,16.4v-0.2c0-0.1,0-0.2,0-0.3c0-0.2,0-0.4,0-0.6c0-0.6-0.1-1.1-0.4-1.7c-0.2-0.6-0.8-0.9-1.7-1.1
	c-0.1,0-0.3,0-0.7,0c-0.5,0-0.9,0-1.5-0.1c-0.5,0-1,0-1.5,0c-0.4,0-0.7,0-0.7,0l-0.1-0.1v-0.1c0-0.1,0-0.2,0.1-0.3
	c0.1-0.3,0.4-0.6,0.9-0.9s1.4-0.6,2.6-0.9c0,0,0.1-0.2,0.3-0.5c0.2-0.3,0.3-0.7,0.3-1.1c0-0.2,0-0.3,0-0.4S4.2,7.8,4.1,7.6
	C4,7.3,3.9,7.2,3.8,7C3.7,6.8,3.4,6.4,3.2,5.8V5L4,4.8c0.1,0.1,0.2,0.1,0.2,0.1C4.3,5,4.4,5.1,4.4,5.1h1.4C5.9,5,5.9,4.9,6,4.7
	c0-0.1,0.1-0.2,0.2-0.3l1.3-1.1c0.1,0,0.1-0.1,0.3-0.1c0,0,0.1-0.1,0.2-0.2V2.4c0-0.1,0-0.3,0-0.5h1.6L10.7,3h1.9l0.6-0.3h7.7
	c0.1,0,0.1,0,0.2,0.1C21.2,3,21.3,3,21.4,3l9.9,0.2l0.1,0.1c0,0.1,0.1,0.1,0.2,0.1h0.5c0-0.1,0-0.1,0-0.1c0-0.1,0-0.1,0-0.1
	C32.3,3.1,32.4,3,32.4,3h11.2c0,0.1,0,0.2,0,0.2c0,0.1,0,0.2,0,0.2c0,0.1,0,0.1,0,0.1h0.601c0,0,0-0.1,0.1-0.3
	c0-0.1,0.101-0.1,0.199-0.2h2.201C46.8,3,46.9,2.9,47.1,2.8c0.2-0.1,0.399-0.3,0.601-0.4C47.9,2.3,48.1,2.2,48.3,2.1
	C48.5,2,48.701,2,48.8,2C49,2,49.1,2.1,49.1,2.3c0.101,0.3,0.101,0.4,0.101,0.5c0.1,0.1,0.299,0.1,0.5,0.2C49.8,3,49.9,3.1,50,3.1
	c0,0,0,0,0.102,0H50.3V3.3L50.3,3.3z M20,11.7c-0.3,0-0.5,0.1-0.7,0.3c-0.2,0.2-0.3,0.4-0.3,0.7v3.1c0,0.3,0.1,0.5,0.3,0.7
	c0.2,0.2,0.4,0.3,0.7,0.3h3.3c0.3,0,0.5-0.1,0.7-0.3s0.3-0.5,0.3-0.7v-3.1c0-0.3-0.1-0.5-0.3-0.7s-0.4-0.3-0.7-0.3H20z"/>
<g>
	<g>
		<defs>
			<path id="SVGID_1_" d="M50.3,3.3c0.1,0,0.1,0,0.3,0v1l0.2,1.4c-0.1,0.3-0.1,0.6-0.301,0.9c-0.101,0.3-0.101,0.5-0.299,0.8
				C50.1,7.8,50,8.1,49.9,8.3c-0.199,0.7-0.3,1.2-0.5,1.6c-0.1,0.4-0.199,0.6-0.3,0.8C49,10.9,49,11,48.9,11c0,0.1-0.1,0.1-0.1,0.1
				H29.3c0,0-0.2,0-0.6,0.1c-0.4,0.2-0.802,0.5-1.302,0.9c-0.399,0.4-0.8,1-1.198,1.9C25.8,14.8,25.6,15.9,25.6,17.3v0.5h-0.1
				c0,0-0.3,0.101-0.8,0.2s-1.1,0.2-1.9,0.3C22.1,18.4,21.3,18.4,20.5,18.4s-1.6-0.2-2.2-0.4c-0.2,0.1-0.5,0.2-0.8,0.6
				C17.2,19,17,19.4,17,19.8c0,0.3-0.1,0.8-0.3,1.601c-0.1,0.801-0.3,1.699-0.5,2.601c-0.2,0.899-0.3,1.7-0.4,2.5
				c-0.2,0.7-0.3,1.2-0.3,1.3l0.7,1.9H16c-1.3,0.199-2.7,0.3-4.1,0.5c-1.2,0.1-2.5,0.199-3.8,0.199c-1.4,0-2.7,0-4-0.199
				c-0.1,0-0.2,0-0.3,0C3.6,30.1,3.4,30,3.3,29.8C3.1,29.2,3,28.7,3,28c0-0.5,0-1,0.1-1.7s0.3-1.5,0.6-2.399C4,23,4.3,21.9,4.8,20.6
				C5.4,19.4,6,18,6.7,16.4v-0.2c0-0.1,0-0.2,0-0.3c0-0.2,0-0.4,0-0.6c0-0.6-0.1-1.1-0.4-1.7c-0.2-0.6-0.8-0.9-1.7-1.1
				c-0.1,0-0.3,0-0.7,0c-0.5,0-0.9,0-1.5-0.1c-0.5,0-1,0-1.5,0c-0.4,0-0.7,0-0.7,0l-0.1-0.1v-0.1c0-0.1,0-0.2,0.1-0.3
				c0.1-0.3,0.4-0.6,0.9-0.9s1.4-0.6,2.6-0.9c0,0,0.1-0.2,0.3-0.5c0.2-0.3,0.3-0.7,0.3-1.1c0-0.2,0-0.3,0-0.4S4.2,7.8,4.1,7.6
				C4,7.3,3.9,7.2,3.8,7C3.7,6.8,3.4,6.4,3.2,5.8V5L4,4.8c0.1,0.1,0.2,0.1,0.2,0.1C4.3,5,4.4,5.1,4.4,5.1h1.4C5.9,5,5.9,4.9,6,4.7
				c0-0.1,0.1-0.2,0.2-0.3l1.3-1.1c0.1,0,0.1-0.1,0.3-0.1c0,0,0.1-0.1,0.2-0.2V2.4c0-0.1,0-0.3,0-0.5h1.6L10.7,3h1.9l0.6-0.3h7.7
				c0.1,0,0.1,0,0.2,0.1C21.2,3,21.3,3,21.4,3l9.9,0.2l0.1,0.1c0,0.1,0.1,0.1,0.2,0.1h0.5c0-0.1,0-0.1,0-0.1c0-0.1,0-0.1,0-0.1
				C32.3,3.1,32.4,3,32.4,3h11.2c0,0.1,0,0.2,0,0.2c0,0.1,0,0.2,0,0.2c0,0.1,0,0.1,0,0.1h0.601c0,0,0-0.1,0.1-0.3
				c0-0.1,0.101-0.1,0.199-0.2h2.201C46.8,3,46.9,2.9,47.1,2.8c0.2-0.1,0.399-0.3,0.601-0.4C47.9,2.3,48.1,2.2,48.3,2.1
				C48.5,2,48.701,2,48.8,2C49,2,49.1,2.1,49.1,2.3c0.101,0.3,0.101,0.4,0.101,0.5c0.1,0.1,0.299,0.1,0.5,0.2
				C49.8,3,49.9,3.1,50,3.1c0,0,0,0,0.102,0H50.3V3.3L50.3,3.3z M20,11.7c-0.3,0-0.5,0.1-0.7,0.3c-0.2,0.2-0.3,0.4-0.3,0.7v3.1
				c0,0.3,0.1,0.5,0.3,0.7c0.2,0.2,0.4,0.3,0.7,0.3h3.3c0.3,0,0.5-0.1,0.7-0.3s0.3-0.5,0.3-0.7v-3.1c0-0.3-0.1-0.5-0.3-0.7
				s-0.4-0.3-0.7-0.3H20z"/>
		</defs>
		<clipPath id="SVGID_2_">
			<use xlink:href="#SVGID_1_"  overflow="visible"/>
		</clipPath>
		
			<linearGradient id="SVGID_3_" gradientUnits="userSpaceOnUse" x1="554.6421" y1="821.5293" x2="595.7183" y2="821.5293" gradientTransform="matrix(1 0 0 1 -563.1992 -808.9199)">
			<stop  offset="0" style="stop-color:#A9D0FF"/>
			<stop  offset="0.1986" style="stop-color:#A7CBFF"/>
			<stop  offset="0.4411" style="stop-color:#A1BCFF"/>
			<stop  offset="0.7063" style="stop-color:#97A3FF"/>
			<stop  offset="0.9861" style="stop-color:#8981FF"/>
			<stop  offset="1" style="stop-color:#887FFF"/>
		</linearGradient>
		<path clip-path="url(#SVGID_2_)" fill="url(#SVGID_3_)" d="M-7.356,14.234c0,0-0.049,1.955,1.03,3.204
			c1.081,1.246,2.243-0.666,2.243-0.666l3.573-3.322c0,0,2.41,0.414,2.742,0.747c0.333,0.332,3.31-2.107,3.31-2.107
			s0.851-0.545,1.516,0.947c0.665,1.5,4.064,4.153,5.228,3.571c1.163-0.584,1.662-2.162,3.988-0.917
			c2.327,1.25,5.152,2.912,5.152,2.912s1.815,0.069,1.98-0.677c0.167-0.748,1.122,0.812,2.2,0.063c1.082-0.748,4.584-1.538,5-2.202
			c0.414-0.664,2.812-1.734,1.549-5.003C31.271,8.484,21.51,3.994,19.021,8.785c-1.666,3.208-0.987,2.949-0.987,2.949
			s-3.756,1.539-5.75,0.458c-1.994-1.08-3.735-2.567-5.48-2.651C5.059,9.459,2.565,9.043,1.9,9.625
			c-0.665,0.581-1.118-2.527-1.866-2.953c-0.748-0.426-8.313,1.702-8.563,3.031S-7.356,14.234-7.356,14.234z"/>
	</g>
	<g>
		<defs>
			<path id="SVGID_4_" d="M50.3,3.3c0.1,0,0.1,0,0.3,0v1l0.2,1.4c-0.1,0.3-0.1,0.6-0.301,0.9c-0.101,0.3-0.101,0.5-0.299,0.8
				C50.1,7.8,50,8.1,49.9,8.3c-0.199,0.7-0.3,1.2-0.5,1.6c-0.1,0.4-0.199,0.6-0.3,0.8C49,10.9,49,11,48.9,11c0,0.1-0.1,0.1-0.1,0.1
				H29.3c0,0-0.2,0-0.6,0.1c-0.4,0.2-0.802,0.5-1.302,0.9c-0.399,0.4-0.8,1-1.198,1.9C25.8,14.8,25.6,15.9,25.6,17.3v0.5h-0.1
				c0,0-0.3,0.101-0.8,0.2s-1.1,0.2-1.9,0.3C22.1,18.4,21.3,18.4,20.5,18.4s-1.6-0.2-2.2-0.4c-0.2,0.1-0.5,0.2-0.8,0.6
				C17.2,19,17,19.4,17,19.8c0,0.3-0.1,0.8-0.3,1.601c-0.1,0.801-0.3,1.699-0.5,2.601c-0.2,0.899-0.3,1.7-0.4,2.5
				c-0.2,0.7-0.3,1.2-0.3,1.3l0.7,1.9H16c-1.3,0.199-2.7,0.3-4.1,0.5c-1.2,0.1-2.5,0.199-3.8,0.199c-1.4,0-2.7,0-4-0.199
				c-0.1,0-0.2,0-0.3,0C3.6,30.1,3.4,30,3.3,29.8C3.1,29.2,3,28.7,3,28c0-0.5,0-1,0.1-1.7s0.3-1.5,0.6-2.399C4,23,4.3,21.9,4.8,20.6
				C5.4,19.4,6,18,6.7,16.4v-0.2c0-0.1,0-0.2,0-0.3c0-0.2,0-0.4,0-0.6c0-0.6-0.1-1.1-0.4-1.7c-0.2-0.6-0.8-0.9-1.7-1.1
				c-0.1,0-0.3,0-0.7,0c-0.5,0-0.9,0-1.5-0.1c-0.5,0-1,0-1.5,0c-0.4,0-0.7,0-0.7,0l-0.1-0.1v-0.1c0-0.1,0-0.2,0.1-0.3
				c0.1-0.3,0.4-0.6,0.9-0.9s1.4-0.6,2.6-0.9c0,0,0.1-0.2,0.3-0.5c0.2-0.3,0.3-0.7,0.3-1.1c0-0.2,0-0.3,0-0.4S4.2,7.8,4.1,7.6
				C4,7.3,3.9,7.2,3.8,7C3.7,6.8,3.4,6.4,3.2,5.8V5L4,4.8c0.1,0.1,0.2,0.1,0.2,0.1C4.3,5,4.4,5.1,4.4,5.1h1.4C5.9,5,5.9,4.9,6,4.7
				c0-0.1,0.1-0.2,0.2-0.3l1.3-1.1c0.1,0,0.1-0.1,0.3-0.1c0,0,0.1-0.1,0.2-0.2V2.4c0-0.1,0-0.3,0-0.5h1.6L10.7,3h1.9l0.6-0.3h7.7
				c0.1,0,0.1,0,0.2,0.1C21.2,3,21.3,3,21.4,3l9.9,0.2l0.1,0.1c0,0.1,0.1,0.1,0.2,0.1h0.5c0-0.1,0-0.1,0-0.1c0-0.1,0-0.1,0-0.1
				C32.3,3.1,32.4,3,32.4,3h11.2c0,0.1,0,0.2,0,0.2c0,0.1,0,0.2,0,0.2c0,0.1,0,0.1,0,0.1h0.601c0,0,0-0.1,0.1-0.3
				c0-0.1,0.101-0.1,0.199-0.2h2.201C46.8,3,46.9,2.9,47.1,2.8c0.2-0.1,0.399-0.3,0.601-0.4C47.9,2.3,48.1,2.2,48.3,2.1
				C48.5,2,48.701,2,48.8,2C49,2,49.1,2.1,49.1,2.3c0.101,0.3,0.101,0.4,0.101,0.5c0.1,0.1,0.299,0.1,0.5,0.2
				C49.8,3,49.9,3.1,50,3.1c0,0,0,0,0.102,0H50.3V3.3L50.3,3.3z M20,11.7c-0.3,0-0.5,0.1-0.7,0.3c-0.2,0.2-0.3,0.4-0.3,0.7v3.1
				c0,0.3,0.1,0.5,0.3,0.7c0.2,0.2,0.4,0.3,0.7,0.3h3.3c0.3,0,0.5-0.1,0.7-0.3s0.3-0.5,0.3-0.7v-3.1c0-0.3-0.1-0.5-0.3-0.7
				s-0.4-0.3-0.7-0.3H20z"/>
		</defs>
		<clipPath id="SVGID_5_">
			<use xlink:href="#SVGID_4_"  overflow="visible"/>
		</clipPath>
		<path clip-path="url(#SVGID_5_)" fill="#2970D6" d="M35.841,9.056c0,0-0.579-3.015-0.922-3.514
			c-0.646-0.945-1.174-2.457-3.051-2.386c-0.664,0.025-3.558-1.126-0.72-1.229c3.077-0.112,12.728-1.39,17.042-1.011
			c4.314,0.38,2.607,2.521,2.607,2.521s1.207,2.031,0.787,3.125c-0.447,1.169-2.162,2.8-2.181,2.729
			c-0.25-1.021-3.079,1.49-3.079,1.49S44.47,7.498,43.85,7.309c-0.478-0.145-1.909,2.139-1.909,2.139s-1.457-4.4-2.789-4.301
			C36.205,5.367,35.841,9.056,35.841,9.056z"/>
	</g>
	<g>
		<defs>
			<path id="SVGID_6_" d="M50.3,3.3c0.1,0,0.1,0,0.3,0v1l0.2,1.4c-0.1,0.3-0.1,0.6-0.301,0.9c-0.101,0.3-0.101,0.5-0.299,0.8
				C50.1,7.8,50,8.1,49.9,8.3c-0.199,0.7-0.3,1.2-0.5,1.6c-0.1,0.4-0.199,0.6-0.3,0.8C49,10.9,49,11,48.9,11c0,0.1-0.1,0.1-0.1,0.1
				H29.3c0,0-0.2,0-0.6,0.1c-0.4,0.2-0.802,0.5-1.302,0.9c-0.399,0.4-0.8,1-1.198,1.9C25.8,14.8,25.6,15.9,25.6,17.3v0.5h-0.1
				c0,0-0.3,0.101-0.8,0.2s-1.1,0.2-1.9,0.3C22.1,18.4,21.3,18.4,20.5,18.4s-1.6-0.2-2.2-0.4c-0.2,0.1-0.5,0.2-0.8,0.6
				C17.2,19,17,19.4,17,19.8c0,0.3-0.1,0.8-0.3,1.601c-0.1,0.801-0.3,1.699-0.5,2.601c-0.2,0.899-0.3,1.7-0.4,2.5
				c-0.2,0.7-0.3,1.2-0.3,1.3l0.7,1.9H16c-1.3,0.199-2.7,0.3-4.1,0.5c-1.2,0.1-2.5,0.199-3.8,0.199c-1.4,0-2.7,0-4-0.199
				c-0.1,0-0.2,0-0.3,0C3.6,30.1,3.4,30,3.3,29.8C3.1,29.2,3,28.7,3,28c0-0.5,0-1,0.1-1.7s0.3-1.5,0.6-2.399C4,23,4.3,21.9,4.8,20.6
				C5.4,19.4,6,18,6.7,16.4v-0.2c0-0.1,0-0.2,0-0.3c0-0.2,0-0.4,0-0.6c0-0.6-0.1-1.1-0.4-1.7c-0.2-0.6-0.8-0.9-1.7-1.1
				c-0.1,0-0.3,0-0.7,0c-0.5,0-0.9,0-1.5-0.1c-0.5,0-1,0-1.5,0c-0.4,0-0.7,0-0.7,0l-0.1-0.1v-0.1c0-0.1,0-0.2,0.1-0.3
				c0.1-0.3,0.4-0.6,0.9-0.9s1.4-0.6,2.6-0.9c0,0,0.1-0.2,0.3-0.5c0.2-0.3,0.3-0.7,0.3-1.1c0-0.2,0-0.3,0-0.4S4.2,7.8,4.1,7.6
				C4,7.3,3.9,7.2,3.8,7C3.7,6.8,3.4,6.4,3.2,5.8V5L4,4.8c0.1,0.1,0.2,0.1,0.2,0.1C4.3,5,4.4,5.1,4.4,5.1h1.4C5.9,5,5.9,4.9,6,4.7
				c0-0.1,0.1-0.2,0.2-0.3l1.3-1.1c0.1,0,0.1-0.1,0.3-0.1c0,0,0.1-0.1,0.2-0.2V2.4c0-0.1,0-0.3,0-0.5h1.6L10.7,3h1.9l0.6-0.3h7.7
				c0.1,0,0.1,0,0.2,0.1C21.2,3,21.3,3,21.4,3l9.9,0.2l0.1,0.1c0,0.1,0.1,0.1,0.2,0.1h0.5c0-0.1,0-0.1,0-0.1c0-0.1,0-0.1,0-0.1
				C32.3,3.1,32.4,3,32.4,3h11.2c0,0.1,0,0.2,0,0.2c0,0.1,0,0.2,0,0.2c0,0.1,0,0.1,0,0.1h0.601c0,0,0-0.1,0.1-0.3
				c0-0.1,0.101-0.1,0.199-0.2h2.201C46.8,3,46.9,2.9,47.1,2.8c0.2-0.1,0.399-0.3,0.601-0.4C47.9,2.3,48.1,2.2,48.3,2.1
				C48.5,2,48.701,2,48.8,2C49,2,49.1,2.1,49.1,2.3c0.101,0.3,0.101,0.4,0.101,0.5c0.1,0.1,0.299,0.1,0.5,0.2
				C49.8,3,49.9,3.1,50,3.1c0,0,0,0,0.102,0H50.3V3.3L50.3,3.3z M20,11.7c-0.3,0-0.5,0.1-0.7,0.3c-0.2,0.2-0.3,0.4-0.3,0.7v3.1
				c0,0.3,0.1,0.5,0.3,0.7c0.2,0.2,0.4,0.3,0.7,0.3h3.3c0.3,0,0.5-0.1,0.7-0.3s0.3-0.5,0.3-0.7v-3.1c0-0.3-0.1-0.5-0.3-0.7
				s-0.4-0.3-0.7-0.3H20z"/>
		</defs>
		<clipPath id="SVGID_7_">
			<use xlink:href="#SVGID_6_"  overflow="visible"/>
		</clipPath>
		
			<path clip-path="url(#SVGID_7_)" fill="none" stroke="#FFFFFF" stroke-width="0.5" stroke-linecap="round" stroke-linejoin="round" stroke-miterlimit="10" d="
			M18.612,16.877c0,0,0.756-0.621,1.373-5.031c0.313-2.236,1.428-6.98,3.866-6.907c2.4,0.073,3.684,4.224,3.869,7.177
			c0,0,3.229-6.25,7.805-1.017c0,0,0.583-8.1-4.514-7.634c-1.516-0.011-2.418,4.464-3.291,8.65"/>
	</g>
	<g>
		<defs>
			<path id="SVGID_8_" d="M50.3,3.3c0.1,0,0.1,0,0.3,0v1l0.2,1.4c-0.1,0.3-0.1,0.6-0.301,0.9c-0.101,0.3-0.101,0.5-0.299,0.8
				C50.1,7.8,50,8.1,49.9,8.3c-0.199,0.7-0.3,1.2-0.5,1.6c-0.1,0.4-0.199,0.6-0.3,0.8C49,10.9,49,11,48.9,11c0,0.1-0.1,0.1-0.1,0.1
				H29.3c0,0-0.2,0-0.6,0.1c-0.4,0.2-0.802,0.5-1.302,0.9c-0.399,0.4-0.8,1-1.198,1.9C25.8,14.8,25.6,15.9,25.6,17.3v0.5h-0.1
				c0,0-0.3,0.101-0.8,0.2s-1.1,0.2-1.9,0.3C22.1,18.4,21.3,18.4,20.5,18.4s-1.6-0.2-2.2-0.4c-0.2,0.1-0.5,0.2-0.8,0.6
				C17.2,19,17,19.4,17,19.8c0,0.3-0.1,0.8-0.3,1.601c-0.1,0.801-0.3,1.699-0.5,2.601c-0.2,0.899-0.3,1.7-0.4,2.5
				c-0.2,0.7-0.3,1.2-0.3,1.3l0.7,1.9H16c-1.3,0.199-2.7,0.3-4.1,0.5c-1.2,0.1-2.5,0.199-3.8,0.199c-1.4,0-2.7,0-4-0.199
				c-0.1,0-0.2,0-0.3,0C3.6,30.1,3.4,30,3.3,29.8C3.1,29.2,3,28.7,3,28c0-0.5,0-1,0.1-1.7s0.3-1.5,0.6-2.399C4,23,4.3,21.9,4.8,20.6
				C5.4,19.4,6,18,6.7,16.4v-0.2c0-0.1,0-0.2,0-0.3c0-0.2,0-0.4,0-0.6c0-0.6-0.1-1.1-0.4-1.7c-0.2-0.6-0.8-0.9-1.7-1.1
				c-0.1,0-0.3,0-0.7,0c-0.5,0-0.9,0-1.5-0.1c-0.5,0-1,0-1.5,0c-0.4,0-0.7,0-0.7,0l-0.1-0.1v-0.1c0-0.1,0-0.2,0.1-0.3
				c0.1-0.3,0.4-0.6,0.9-0.9s1.4-0.6,2.6-0.9c0,0,0.1-0.2,0.3-0.5c0.2-0.3,0.3-0.7,0.3-1.1c0-0.2,0-0.3,0-0.4S4.2,7.8,4.1,7.6
				C4,7.3,3.9,7.2,3.8,7C3.7,6.8,3.4,6.4,3.2,5.8V5L4,4.8c0.1,0.1,0.2,0.1,0.2,0.1C4.3,5,4.4,5.1,4.4,5.1h1.4C5.9,5,5.9,4.9,6,4.7
				c0-0.1,0.1-0.2,0.2-0.3l1.3-1.1c0.1,0,0.1-0.1,0.3-0.1c0,0,0.1-0.1,0.2-0.2V2.4c0-0.1,0-0.3,0-0.5h1.6L10.7,3h1.9l0.6-0.3h7.7
				c0.1,0,0.1,0,0.2,0.1C21.2,3,21.3,3,21.4,3l9.9,0.2l0.1,0.1c0,0.1,0.1,0.1,0.2,0.1h0.5c0-0.1,0-0.1,0-0.1c0-0.1,0-0.1,0-0.1
				C32.3,3.1,32.4,3,32.4,3h11.2c0,0.1,0,0.2,0,0.2c0,0.1,0,0.2,0,0.2c0,0.1,0,0.1,0,0.1h0.601c0,0,0-0.1,0.1-0.3
				c0-0.1,0.101-0.1,0.199-0.2h2.201C46.8,3,46.9,2.9,47.1,2.8c0.2-0.1,0.399-0.3,0.601-0.4C47.9,2.3,48.1,2.2,48.3,2.1
				C48.5,2,48.701,2,48.8,2C49,2,49.1,2.1,49.1,2.3c0.101,0.3,0.101,0.4,0.101,0.5c0.1,0.1,0.299,0.1,0.5,0.2
				C49.8,3,49.9,3.1,50,3.1c0,0,0,0,0.102,0H50.3V3.3L50.3,3.3z M20,11.7c-0.3,0-0.5,0.1-0.7,0.3c-0.2,0.2-0.3,0.4-0.3,0.7v3.1
				c0,0.3,0.1,0.5,0.3,0.7c0.2,0.2,0.4,0.3,0.7,0.3h3.3c0.3,0,0.5-0.1,0.7-0.3s0.3-0.5,0.3-0.7v-3.1c0-0.3-0.1-0.5-0.3-0.7
				s-0.4-0.3-0.7-0.3H20z"/>
		</defs>
		<clipPath id="SVGID_9_">
			<use xlink:href="#SVGID_8_"  overflow="visible"/>
		</clipPath>
		<path clip-path="url(#SVGID_9_)" fill="#A2CAFF" d="M18.785,18.254c0.563,1.451-3.551,5.163-3.551,5.163s-3.309,2.722-6.583,1.75
			c-6.576-1.951-1.987-10.44-1.987-10.44s0.727-1.336,1.508-0.268c0.781,1.068,2.974,0.414,4.521,0.475
			c2.122,0.082,2.896,3.776,4.369,0.902C17.348,15.275,18.557,17.664,18.785,18.254z"/>
	</g>
	<g>
		<defs>
			<path id="SVGID_10_" d="M50.3,3.3c0.1,0,0.1,0,0.3,0v1l0.2,1.4c-0.1,0.3-0.1,0.6-0.301,0.9c-0.101,0.3-0.101,0.5-0.299,0.8
				C50.1,7.8,50,8.1,49.9,8.3c-0.199,0.7-0.3,1.2-0.5,1.6c-0.1,0.4-0.199,0.6-0.3,0.8C49,10.9,49,11,48.9,11c0,0.1-0.1,0.1-0.1,0.1
				H29.3c0,0-0.2,0-0.6,0.1c-0.4,0.2-0.802,0.5-1.302,0.9c-0.399,0.4-0.8,1-1.198,1.9C25.8,14.8,25.6,15.9,25.6,17.3v0.5h-0.1
				c0,0-0.3,0.101-0.8,0.2s-1.1,0.2-1.9,0.3C22.1,18.4,21.3,18.4,20.5,18.4s-1.6-0.2-2.2-0.4c-0.2,0.1-0.5,0.2-0.8,0.6
				C17.2,19,17,19.4,17,19.8c0,0.3-0.1,0.8-0.3,1.601c-0.1,0.801-0.3,1.699-0.5,2.601c-0.2,0.899-0.3,1.7-0.4,2.5
				c-0.2,0.7-0.3,1.2-0.3,1.3l0.7,1.9H16c-1.3,0.199-2.7,0.3-4.1,0.5c-1.2,0.1-2.5,0.199-3.8,0.199c-1.4,0-2.7,0-4-0.199
				c-0.1,0-0.2,0-0.3,0C3.6,30.1,3.4,30,3.3,29.8C3.1,29.2,3,28.7,3,28c0-0.5,0-1,0.1-1.7s0.3-1.5,0.6-2.399C4,23,4.3,21.9,4.8,20.6
				C5.4,19.4,6,18,6.7,16.4v-0.2c0-0.1,0-0.2,0-0.3c0-0.2,0-0.4,0-0.6c0-0.6-0.1-1.1-0.4-1.7c-0.2-0.6-0.8-0.9-1.7-1.1
				c-0.1,0-0.3,0-0.7,0c-0.5,0-0.9,0-1.5-0.1c-0.5,0-1,0-1.5,0c-0.4,0-0.7,0-0.7,0l-0.1-0.1v-0.1c0-0.1,0-0.2,0.1-0.3
				c0.1-0.3,0.4-0.6,0.9-0.9s1.4-0.6,2.6-0.9c0,0,0.1-0.2,0.3-0.5c0.2-0.3,0.3-0.7,0.3-1.1c0-0.2,0-0.3,0-0.4S4.2,7.8,4.1,7.6
				C4,7.3,3.9,7.2,3.8,7C3.7,6.8,3.4,6.4,3.2,5.8V5L4,4.8c0.1,0.1,0.2,0.1,0.2,0.1C4.3,5,4.4,5.1,4.4,5.1h1.4C5.9,5,5.9,4.9,6,4.7
				c0-0.1,0.1-0.2,0.2-0.3l1.3-1.1c0.1,0,0.1-0.1,0.3-0.1c0,0,0.1-0.1,0.2-0.2V2.4c0-0.1,0-0.3,0-0.5h1.6L10.7,3h1.9l0.6-0.3h7.7
				c0.1,0,0.1,0,0.2,0.1C21.2,3,21.3,3,21.4,3l9.9,0.2l0.1,0.1c0,0.1,0.1,0.1,0.2,0.1h0.5c0-0.1,0-0.1,0-0.1c0-0.1,0-0.1,0-0.1
				C32.3,3.1,32.4,3,32.4,3h11.2c0,0.1,0,0.2,0,0.2c0,0.1,0,0.2,0,0.2c0,0.1,0,0.1,0,0.1h0.601c0,0,0-0.1,0.1-0.3
				c0-0.1,0.101-0.1,0.199-0.2h2.201C46.8,3,46.9,2.9,47.1,2.8c0.2-0.1,0.399-0.3,0.601-0.4C47.9,2.3,48.1,2.2,48.3,2.1
				C48.5,2,48.701,2,48.8,2C49,2,49.1,2.1,49.1,2.3c0.101,0.3,0.101,0.4,0.101,0.5c0.1,0.1,0.299,0.1,0.5,0.2
				C49.8,3,49.9,3.1,50,3.1c0,0,0,0,0.102,0H50.3V3.3L50.3,3.3z M20,11.7c-0.3,0-0.5,0.1-0.7,0.3c-0.2,0.2-0.3,0.4-0.3,0.7v3.1
				c0,0.3,0.1,0.5,0.3,0.7c0.2,0.2,0.4,0.3,0.7,0.3h3.3c0.3,0,0.5-0.1,0.7-0.3s0.3-0.5,0.3-0.7v-3.1c0-0.3-0.1-0.5-0.3-0.7
				s-0.4-0.3-0.7-0.3H20z"/>
		</defs>
		<clipPath id="SVGID_11_">
			<use xlink:href="#SVGID_10_"  overflow="visible"/>
		</clipPath>
		<path clip-path="url(#SVGID_11_)" fill="#FFFFFF" d="M18.3,18c0,0-0.945-0.301-1.098,1.072c-0.266,2.391-4.59,5.734-5.719,5.678
			c-1.927-0.1-6.599-1.456-6-4.667c0.145-0.776,0.596-4.403,0.39-5.49c-0.345-1.817-1.874,5.087-1.874,5.087
			S-0.619,30.352-0.54,30.527c0.08,0.178,10.298,0.322,10.298,0.322L17.317,30L18.3,18z"/>
	</g>
	<g>
		<defs>
			<path id="SVGID_12_" d="M50.3,3.3c0.1,0,0.1,0,0.3,0v1l0.2,1.4c-0.1,0.3-0.1,0.6-0.301,0.9c-0.101,0.3-0.101,0.5-0.299,0.8
				C50.1,7.8,50,8.1,49.9,8.3c-0.199,0.7-0.3,1.2-0.5,1.6c-0.1,0.4-0.199,0.6-0.3,0.8C49,10.9,49,11,48.9,11c0,0.1-0.1,0.1-0.1,0.1
				H29.3c0,0-0.2,0-0.6,0.1c-0.4,0.2-0.802,0.5-1.302,0.9c-0.399,0.4-0.8,1-1.198,1.9C25.8,14.8,25.6,15.9,25.6,17.3v0.5h-0.1
				c0,0-0.3,0.101-0.8,0.2s-1.1,0.2-1.9,0.3C22.1,18.4,21.3,18.4,20.5,18.4s-1.6-0.2-2.2-0.4c-0.2,0.1-0.5,0.2-0.8,0.6
				C17.2,19,17,19.4,17,19.8c0,0.3-0.1,0.8-0.3,1.601c-0.1,0.801-0.3,1.699-0.5,2.601c-0.2,0.899-0.3,1.7-0.4,2.5
				c-0.2,0.7-0.3,1.2-0.3,1.3l0.7,1.9H16c-1.3,0.199-2.7,0.3-4.1,0.5c-1.2,0.1-2.5,0.199-3.8,0.199c-1.4,0-2.7,0-4-0.199
				c-0.1,0-0.2,0-0.3,0C3.6,30.1,3.4,30,3.3,29.8C3.1,29.2,3,28.7,3,28c0-0.5,0-1,0.1-1.7s0.3-1.5,0.6-2.399C4,23,4.3,21.9,4.8,20.6
				C5.4,19.4,6,18,6.7,16.4v-0.2c0-0.1,0-0.2,0-0.3c0-0.2,0-0.4,0-0.6c0-0.6-0.1-1.1-0.4-1.7c-0.2-0.6-0.8-0.9-1.7-1.1
				c-0.1,0-0.3,0-0.7,0c-0.5,0-0.9,0-1.5-0.1c-0.5,0-1,0-1.5,0c-0.4,0-0.7,0-0.7,0l-0.1-0.1v-0.1c0-0.1,0-0.2,0.1-0.3
				c0.1-0.3,0.4-0.6,0.9-0.9s1.4-0.6,2.6-0.9c0,0,0.1-0.2,0.3-0.5c0.2-0.3,0.3-0.7,0.3-1.1c0-0.2,0-0.3,0-0.4S4.2,7.8,4.1,7.6
				C4,7.3,3.9,7.2,3.8,7C3.7,6.8,3.4,6.4,3.2,5.8V5L4,4.8c0.1,0.1,0.2,0.1,0.2,0.1C4.3,5,4.4,5.1,4.4,5.1h1.4C5.9,5,5.9,4.9,6,4.7
				c0-0.1,0.1-0.2,0.2-0.3l1.3-1.1c0.1,0,0.1-0.1,0.3-0.1c0,0,0.1-0.1,0.2-0.2V2.4c0-0.1,0-0.3,0-0.5h1.6L10.7,3h1.9l0.6-0.3h7.7
				c0.1,0,0.1,0,0.2,0.1C21.2,3,21.3,3,21.4,3l9.9,0.2l0.1,0.1c0,0.1,0.1,0.1,0.2,0.1h0.5c0-0.1,0-0.1,0-0.1c0-0.1,0-0.1,0-0.1
				C32.3,3.1,32.4,3,32.4,3h11.2c0,0.1,0,0.2,0,0.2c0,0.1,0,0.2,0,0.2c0,0.1,0,0.1,0,0.1h0.601c0,0,0-0.1,0.1-0.3
				c0-0.1,0.101-0.1,0.199-0.2h2.201C46.8,3,46.9,2.9,47.1,2.8c0.2-0.1,0.399-0.3,0.601-0.4C47.9,2.3,48.1,2.2,48.3,2.1
				C48.5,2,48.701,2,48.8,2C49,2,49.1,2.1,49.1,2.3c0.101,0.3,0.101,0.4,0.101,0.5c0.1,0.1,0.299,0.1,0.5,0.2
				C49.8,3,49.9,3.1,50,3.1c0,0,0,0,0.102,0H50.3V3.3L50.3,3.3z M20,11.7c-0.3,0-0.5,0.1-0.7,0.3c-0.2,0.2-0.3,0.4-0.3,0.7v3.1
				c0,0.3,0.1,0.5,0.3,0.7c0.2,0.2,0.4,0.3,0.7,0.3h3.3c0.3,0,0.5-0.1,0.7-0.3s0.3-0.5,0.3-0.7v-3.1c0-0.3-0.1-0.5-0.3-0.7
				s-0.4-0.3-0.7-0.3H20z"/>
		</defs>
		<clipPath id="SVGID_13_">
			<use xlink:href="#SVGID_12_"  overflow="visible"/>
		</clipPath>
		<path clip-path="url(#SVGID_13_)" fill="#A4BAFF" d="M-3.007,10.284c0.248,0.483,5.763-1.167,5.763-1.167
			s-1.128,2.148-0.832,4.168c0.295,2.021,3.093,2.435,4.375,1.915c1.283-0.522,2.149-2.433,4.139-0.422
			c0.757,0.768,2.445-4.521,2.292,2.394c-0.084,3.818,2.074,2.247,2.074,2.247s3.201,1.042,3.542,0.127
			c0.343-0.918-0.188,0.978,1.052,0.229c1.241-0.75,0.281-6.253,0.204-7.24c0.005-0.532,0.404-2.931,0.404-2.931
			s1.893-6.271,4.843-4.37c-1.847-2.313-9.207-7.817-12.692-3.672C11.317,4,11.317,0.5,11.317,0.5S4.331,3.464,1.983,2.25
			C-0.064,1.189,4.29,5.658,2.595,5.229C0.901,4.802-1.45,3.813-2.242,4.428c-0.792,0.614-3.22,1.384-3.854,0.706
			C-6.729,4.455-4.123,6.459-4.685,8.1C-5.248,9.738-3.255,9.8-3.007,10.284z"/>
	</g>
	<g>
		<defs>
			<path id="SVGID_14_" d="M50.3,3.3c0.1,0,0.1,0,0.3,0v1l0.2,1.4c-0.1,0.3-0.1,0.6-0.301,0.9c-0.101,0.3-0.101,0.5-0.299,0.8
				C50.1,7.8,50,8.1,49.9,8.3c-0.199,0.7-0.3,1.2-0.5,1.6c-0.1,0.4-0.199,0.6-0.3,0.8C49,10.9,49,11,48.9,11c0,0.1-0.1,0.1-0.1,0.1
				H29.3c0,0-0.2,0-0.6,0.1c-0.4,0.2-0.802,0.5-1.302,0.9c-0.399,0.4-0.8,1-1.198,1.9C25.8,14.8,25.6,15.9,25.6,17.3v0.5h-0.1
				c0,0-0.3,0.101-0.8,0.2s-1.1,0.2-1.9,0.3C22.1,18.4,21.3,18.4,20.5,18.4s-1.6-0.2-2.2-0.4c-0.2,0.1-0.5,0.2-0.8,0.6
				C17.2,19,17,19.4,17,19.8c0,0.3-0.1,0.8-0.3,1.601c-0.1,0.801-0.3,1.699-0.5,2.601c-0.2,0.899-0.3,1.7-0.4,2.5
				c-0.2,0.7-0.3,1.2-0.3,1.3l0.7,1.9H16c-1.3,0.199-2.7,0.3-4.1,0.5c-1.2,0.1-2.5,0.199-3.8,0.199c-1.4,0-2.7,0-4-0.199
				c-0.1,0-0.2,0-0.3,0C3.6,30.1,3.4,30,3.3,29.8C3.1,29.2,3,28.7,3,28c0-0.5,0-1,0.1-1.7s0.3-1.5,0.6-2.399C4,23,4.3,21.9,4.8,20.6
				C5.4,19.4,6,18,6.7,16.4v-0.2c0-0.1,0-0.2,0-0.3c0-0.2,0-0.4,0-0.6c0-0.6-0.1-1.1-0.4-1.7c-0.2-0.6-0.8-0.9-1.7-1.1
				c-0.1,0-0.3,0-0.7,0c-0.5,0-0.9,0-1.5-0.1c-0.5,0-1,0-1.5,0c-0.4,0-0.7,0-0.7,0l-0.1-0.1v-0.1c0-0.1,0-0.2,0.1-0.3
				c0.1-0.3,0.4-0.6,0.9-0.9s1.4-0.6,2.6-0.9c0,0,0.1-0.2,0.3-0.5c0.2-0.3,0.3-0.7,0.3-1.1c0-0.2,0-0.3,0-0.4S4.2,7.8,4.1,7.6
				C4,7.3,3.9,7.2,3.8,7C3.7,6.8,3.4,6.4,3.2,5.8V5L4,4.8c0.1,0.1,0.2,0.1,0.2,0.1C4.3,5,4.4,5.1,4.4,5.1h1.4C5.9,5,5.9,4.9,6,4.7
				c0-0.1,0.1-0.2,0.2-0.3l1.3-1.1c0.1,0,0.1-0.1,0.3-0.1c0,0,0.1-0.1,0.2-0.2V2.4c0-0.1,0-0.3,0-0.5h1.6L10.7,3h1.9l0.6-0.3h7.7
				c0.1,0,0.1,0,0.2,0.1C21.2,3,21.3,3,21.4,3l9.9,0.2l0.1,0.1c0,0.1,0.1,0.1,0.2,0.1h0.5c0-0.1,0-0.1,0-0.1c0-0.1,0-0.1,0-0.1
				C32.3,3.1,32.4,3,32.4,3h11.2c0,0.1,0,0.2,0,0.2c0,0.1,0,0.2,0,0.2c0,0.1,0,0.1,0,0.1h0.601c0,0,0-0.1,0.1-0.3
				c0-0.1,0.101-0.1,0.199-0.2h2.201C46.8,3,46.9,2.9,47.1,2.8c0.2-0.1,0.399-0.3,0.601-0.4C47.9,2.3,48.1,2.2,48.3,2.1
				C48.5,2,48.701,2,48.8,2C49,2,49.1,2.1,49.1,2.3c0.101,0.3,0.101,0.4,0.101,0.5c0.1,0.1,0.299,0.1,0.5,0.2
				C49.8,3,49.9,3.1,50,3.1c0,0,0,0,0.102,0H50.3V3.3L50.3,3.3z M20,11.7c-0.3,0-0.5,0.1-0.7,0.3c-0.2,0.2-0.3,0.4-0.3,0.7v3.1
				c0,0.3,0.1,0.5,0.3,0.7c0.2,0.2,0.4,0.3,0.7,0.3h3.3c0.3,0,0.5-0.1,0.7-0.3s0.3-0.5,0.3-0.7v-3.1c0-0.3-0.1-0.5-0.3-0.7
				s-0.4-0.3-0.7-0.3H20z"/>
		</defs>
		<clipPath id="SVGID_15_">
			<use xlink:href="#SVGID_14_"  overflow="visible"/>
		</clipPath>
		<path clip-path="url(#SVGID_15_)" fill="#B3B3FF" d="M7.417,13.065c0,0,5.872-1.23,7.741-0.709
			c1.87,0.521,0.733-1.615,0.203-2.834c-1.049-2.404-0.706-4.081-3.056-3.705C10.829,6.054,8.119,10.291,7.417,13.065z"/>
	</g>
	<g>
		<defs>
			<path id="SVGID_16_" d="M50.3,3.3c0.1,0,0.1,0,0.3,0v1l0.2,1.4c-0.1,0.3-0.1,0.6-0.301,0.9c-0.101,0.3-0.101,0.5-0.299,0.8
				C50.1,7.8,50,8.1,49.9,8.3c-0.199,0.7-0.3,1.2-0.5,1.6c-0.1,0.4-0.199,0.6-0.3,0.8C49,10.9,49,11,48.9,11c0,0.1-0.1,0.1-0.1,0.1
				H29.3c0,0-0.2,0-0.6,0.1c-0.4,0.2-0.802,0.5-1.302,0.9c-0.399,0.4-0.8,1-1.198,1.9C25.8,14.8,25.6,15.9,25.6,17.3v0.5h-0.1
				c0,0-0.3,0.101-0.8,0.2s-1.1,0.2-1.9,0.3C22.1,18.4,21.3,18.4,20.5,18.4s-1.6-0.2-2.2-0.4c-0.2,0.1-0.5,0.2-0.8,0.6
				C17.2,19,17,19.4,17,19.8c0,0.3-0.1,0.8-0.3,1.601c-0.1,0.801-0.3,1.699-0.5,2.601c-0.2,0.899-0.3,1.7-0.4,2.5
				c-0.2,0.7-0.3,1.2-0.3,1.3l0.7,1.9H16c-1.3,0.199-2.7,0.3-4.1,0.5c-1.2,0.1-2.5,0.199-3.8,0.199c-1.4,0-2.7,0-4-0.199
				c-0.1,0-0.2,0-0.3,0C3.6,30.1,3.4,30,3.3,29.8C3.1,29.2,3,28.7,3,28c0-0.5,0-1,0.1-1.7s0.3-1.5,0.6-2.399C4,23,4.3,21.9,4.8,20.6
				C5.4,19.4,6,18,6.7,16.4v-0.2c0-0.1,0-0.2,0-0.3c0-0.2,0-0.4,0-0.6c0-0.6-0.1-1.1-0.4-1.7c-0.2-0.6-0.8-0.9-1.7-1.1
				c-0.1,0-0.3,0-0.7,0c-0.5,0-0.9,0-1.5-0.1c-0.5,0-1,0-1.5,0c-0.4,0-0.7,0-0.7,0l-0.1-0.1v-0.1c0-0.1,0-0.2,0.1-0.3
				c0.1-0.3,0.4-0.6,0.9-0.9s1.4-0.6,2.6-0.9c0,0,0.1-0.2,0.3-0.5c0.2-0.3,0.3-0.7,0.3-1.1c0-0.2,0-0.3,0-0.4S4.2,7.8,4.1,7.6
				C4,7.3,3.9,7.2,3.8,7C3.7,6.8,3.4,6.4,3.2,5.8V5L4,4.8c0.1,0.1,0.2,0.1,0.2,0.1C4.3,5,4.4,5.1,4.4,5.1h1.4C5.9,5,5.9,4.9,6,4.7
				c0-0.1,0.1-0.2,0.2-0.3l1.3-1.1c0.1,0,0.1-0.1,0.3-0.1c0,0,0.1-0.1,0.2-0.2V2.4c0-0.1,0-0.3,0-0.5h1.6L10.7,3h1.9l0.6-0.3h7.7
				c0.1,0,0.1,0,0.2,0.1C21.2,3,21.3,3,21.4,3l9.9,0.2l0.1,0.1c0,0.1,0.1,0.1,0.2,0.1h0.5c0-0.1,0-0.1,0-0.1c0-0.1,0-0.1,0-0.1
				C32.3,3.1,32.4,3,32.4,3h11.2c0,0.1,0,0.2,0,0.2c0,0.1,0,0.2,0,0.2c0,0.1,0,0.1,0,0.1h0.601c0,0,0-0.1,0.1-0.3
				c0-0.1,0.101-0.1,0.199-0.2h2.201C46.8,3,46.9,2.9,47.1,2.8c0.2-0.1,0.399-0.3,0.601-0.4C47.9,2.3,48.1,2.2,48.3,2.1
				C48.5,2,48.701,2,48.8,2C49,2,49.1,2.1,49.1,2.3c0.101,0.3,0.101,0.4,0.101,0.5c0.1,0.1,0.299,0.1,0.5,0.2
				C49.8,3,49.9,3.1,50,3.1c0,0,0,0,0.102,0H50.3V3.3L50.3,3.3z M20,11.7c-0.3,0-0.5,0.1-0.7,0.3c-0.2,0.2-0.3,0.4-0.3,0.7v3.1
				c0,0.3,0.1,0.5,0.3,0.7c0.2,0.2,0.4,0.3,0.7,0.3h3.3c0.3,0,0.5-0.1,0.7-0.3s0.3-0.5,0.3-0.7v-3.1c0-0.3-0.1-0.5-0.3-0.7
				s-0.4-0.3-0.7-0.3H20z"/>
		</defs>
		<clipPath id="SVGID_17_">
			<use xlink:href="#SVGID_16_"  overflow="visible"/>
		</clipPath>
		
			<path clip-path="url(#SVGID_17_)" fill="none" stroke="#92A8DD" stroke-width="0.5" stroke-linecap="round" stroke-linejoin="round" stroke-miterlimit="10" d="
			M35.412,11.582c0,0,1.194-6.537,3.533-6.455C41.382,5.26,41.722,7.454,42,9.954c0,0,0.758-3.115,2.256-2.599
			c0.775,0.268,1.926,3.624,1.926,3.624s2.727-3.874,3.518-0.687c0,0,0.119-6.751-3.611-2.735c0.48-2.057-1.151-3.628-1.937-3.807
			c-0.942-0.214-2.692,3.774-2.399,4.419"/>
	</g>
	<g>
		<defs>
			<path id="SVGID_18_" d="M50.3,3.3c0.1,0,0.1,0,0.3,0v1l0.2,1.4c-0.1,0.3-0.1,0.6-0.301,0.9c-0.101,0.3-0.101,0.5-0.299,0.8
				C50.1,7.8,50,8.1,49.9,8.3c-0.199,0.7-0.3,1.2-0.5,1.6c-0.1,0.4-0.199,0.6-0.3,0.8C49,10.9,49,11,48.9,11c0,0.1-0.1,0.1-0.1,0.1
				H29.3c0,0-0.2,0-0.6,0.1c-0.4,0.2-0.802,0.5-1.302,0.9c-0.399,0.4-0.8,1-1.198,1.9C25.8,14.8,25.6,15.9,25.6,17.3v0.5h-0.1
				c0,0-0.3,0.101-0.8,0.2s-1.1,0.2-1.9,0.3C22.1,18.4,21.3,18.4,20.5,18.4s-1.6-0.2-2.2-0.4c-0.2,0.1-0.5,0.2-0.8,0.6
				C17.2,19,17,19.4,17,19.8c0,0.3-0.1,0.8-0.3,1.601c-0.1,0.801-0.3,1.699-0.5,2.601c-0.2,0.899-0.3,1.7-0.4,2.5
				c-0.2,0.7-0.3,1.2-0.3,1.3l0.7,1.9H16c-1.3,0.199-2.7,0.3-4.1,0.5c-1.2,0.1-2.5,0.199-3.8,0.199c-1.4,0-2.7,0-4-0.199
				c-0.1,0-0.2,0-0.3,0C3.6,30.1,3.4,30,3.3,29.8C3.1,29.2,3,28.7,3,28c0-0.5,0-1,0.1-1.7s0.3-1.5,0.6-2.399C4,23,4.3,21.9,4.8,20.6
				C5.4,19.4,6,18,6.7,16.4v-0.2c0-0.1,0-0.2,0-0.3c0-0.2,0-0.4,0-0.6c0-0.6-0.1-1.1-0.4-1.7c-0.2-0.6-0.8-0.9-1.7-1.1
				c-0.1,0-0.3,0-0.7,0c-0.5,0-0.9,0-1.5-0.1c-0.5,0-1,0-1.5,0c-0.4,0-0.7,0-0.7,0l-0.1-0.1v-0.1c0-0.1,0-0.2,0.1-0.3
				c0.1-0.3,0.4-0.6,0.9-0.9s1.4-0.6,2.6-0.9c0,0,0.1-0.2,0.3-0.5c0.2-0.3,0.3-0.7,0.3-1.1c0-0.2,0-0.3,0-0.4S4.2,7.8,4.1,7.6
				C4,7.3,3.9,7.2,3.8,7C3.7,6.8,3.4,6.4,3.2,5.8V5L4,4.8c0.1,0.1,0.2,0.1,0.2,0.1C4.3,5,4.4,5.1,4.4,5.1h1.4C5.9,5,5.9,4.9,6,4.7
				c0-0.1,0.1-0.2,0.2-0.3l1.3-1.1c0.1,0,0.1-0.1,0.3-0.1c0,0,0.1-0.1,0.2-0.2V2.4c0-0.1,0-0.3,0-0.5h1.6L10.7,3h1.9l0.6-0.3h7.7
				c0.1,0,0.1,0,0.2,0.1C21.2,3,21.3,3,21.4,3l9.9,0.2l0.1,0.1c0,0.1,0.1,0.1,0.2,0.1h0.5c0-0.1,0-0.1,0-0.1c0-0.1,0-0.1,0-0.1
				C32.3,3.1,32.4,3,32.4,3h11.2c0,0.1,0,0.2,0,0.2c0,0.1,0,0.2,0,0.2c0,0.1,0,0.1,0,0.1h0.601c0,0,0-0.1,0.1-0.3
				c0-0.1,0.101-0.1,0.199-0.2h2.201C46.8,3,46.9,2.9,47.1,2.8c0.2-0.1,0.399-0.3,0.601-0.4C47.9,2.3,48.1,2.2,48.3,2.1
				C48.5,2,48.701,2,48.8,2C49,2,49.1,2.1,49.1,2.3c0.101,0.3,0.101,0.4,0.101,0.5c0.1,0.1,0.299,0.1,0.5,0.2
				C49.8,3,49.9,3.1,50,3.1c0,0,0,0,0.102,0H50.3V3.3L50.3,3.3z M20,11.7c-0.3,0-0.5,0.1-0.7,0.3c-0.2,0.2-0.3,0.4-0.3,0.7v3.1
				c0,0.3,0.1,0.5,0.3,0.7c0.2,0.2,0.4,0.3,0.7,0.3h3.3c0.3,0,0.5-0.1,0.7-0.3s0.3-0.5,0.3-0.7v-3.1c0-0.3-0.1-0.5-0.3-0.7
				s-0.4-0.3-0.7-0.3H20z"/>
		</defs>
		<clipPath id="SVGID_19_">
			<use xlink:href="#SVGID_18_"  overflow="visible"/>
		</clipPath>
		<path clip-path="url(#SVGID_19_)" fill="#FFFFFF" d="M7.119,5.063C4.973,5.667,1.504,10.956,2.1,12.032
			c1.813,3.271,5.196-0.198,5.884-1.157c1.438-2.063,1.438-3.354,1.833-3.667c0.375-0.417,1.106-1.887,3.545-1.529
			c1.614,0.237,2.911,2.852,3.425,5.953c0.87,5.255,3.104,5.751,5.011,6.501c0.983,0.387-1.375,0.906-1.375,0.906
			s-3.801-1.18-4.49-6.698c-0.375-3.007-1.566-5.718-3.073-5.738c-2.375-0.031-3.333,3.521-3.333,3.521s-2.229,3.75-5.125,4.208
			c-1.958,0.25-3.69-1.146-3.333-2.813c0.582-2.725,5.552-7.74,5.552-7.74L8,3L7.119,5.063z"/>
	</g>
	<g>
		<defs>
			<path id="SVGID_20_" d="M50.3,3.3c0.1,0,0.1,0,0.3,0v1l0.2,1.4c-0.1,0.3-0.1,0.6-0.301,0.9c-0.101,0.3-0.101,0.5-0.299,0.8
				C50.1,7.8,50,8.1,49.9,8.3c-0.199,0.7-0.3,1.2-0.5,1.6c-0.1,0.4-0.199,0.6-0.3,0.8C49,10.9,49,11,48.9,11c0,0.1-0.1,0.1-0.1,0.1
				H29.3c0,0-0.2,0-0.6,0.1c-0.4,0.2-0.802,0.5-1.302,0.9c-0.399,0.4-0.8,1-1.198,1.9C25.8,14.8,25.6,15.9,25.6,17.3v0.5h-0.1
				c0,0-0.3,0.101-0.8,0.2s-1.1,0.2-1.9,0.3C22.1,18.4,21.3,18.4,20.5,18.4s-1.6-0.2-2.2-0.4c-0.2,0.1-0.5,0.2-0.8,0.6
				C17.2,19,17,19.4,17,19.8c0,0.3-0.1,0.8-0.3,1.601c-0.1,0.801-0.3,1.699-0.5,2.601c-0.2,0.899-0.3,1.7-0.4,2.5
				c-0.2,0.7-0.3,1.2-0.3,1.3l0.7,1.9H16c-1.3,0.199-2.7,0.3-4.1,0.5c-1.2,0.1-2.5,0.199-3.8,0.199c-1.4,0-2.7,0-4-0.199
				c-0.1,0-0.2,0-0.3,0C3.6,30.1,3.4,30,3.3,29.8C3.1,29.2,3,28.7,3,28c0-0.5,0-1,0.1-1.7s0.3-1.5,0.6-2.399C4,23,4.3,21.9,4.8,20.6
				C5.4,19.4,6,18,6.7,16.4v-0.2c0-0.1,0-0.2,0-0.3c0-0.2,0-0.4,0-0.6c0-0.6-0.1-1.1-0.4-1.7c-0.2-0.6-0.8-0.9-1.7-1.1
				c-0.1,0-0.3,0-0.7,0c-0.5,0-0.9,0-1.5-0.1c-0.5,0-1,0-1.5,0c-0.4,0-0.7,0-0.7,0l-0.1-0.1v-0.1c0-0.1,0-0.2,0.1-0.3
				c0.1-0.3,0.4-0.6,0.9-0.9s1.4-0.6,2.6-0.9c0,0,0.1-0.2,0.3-0.5c0.2-0.3,0.3-0.7,0.3-1.1c0-0.2,0-0.3,0-0.4S4.2,7.8,4.1,7.6
				C4,7.3,3.9,7.2,3.8,7C3.7,6.8,3.4,6.4,3.2,5.8V5L4,4.8c0.1,0.1,0.2,0.1,0.2,0.1C4.3,5,4.4,5.1,4.4,5.1h1.4C5.9,5,5.9,4.9,6,4.7
				c0-0.1,0.1-0.2,0.2-0.3l1.3-1.1c0.1,0,0.1-0.1,0.3-0.1c0,0,0.1-0.1,0.2-0.2V2.4c0-0.1,0-0.3,0-0.5h1.6L10.7,3h1.9l0.6-0.3h7.7
				c0.1,0,0.1,0,0.2,0.1C21.2,3,21.3,3,21.4,3l9.9,0.2l0.1,0.1c0,0.1,0.1,0.1,0.2,0.1h0.5c0-0.1,0-0.1,0-0.1c0-0.1,0-0.1,0-0.1
				C32.3,3.1,32.4,3,32.4,3h11.2c0,0.1,0,0.2,0,0.2c0,0.1,0,0.2,0,0.2c0,0.1,0,0.1,0,0.1h0.601c0,0,0-0.1,0.1-0.3
				c0-0.1,0.101-0.1,0.199-0.2h2.201C46.8,3,46.9,2.9,47.1,2.8c0.2-0.1,0.399-0.3,0.601-0.4C47.9,2.3,48.1,2.2,48.3,2.1
				C48.5,2,48.701,2,48.8,2C49,2,49.1,2.1,49.1,2.3c0.101,0.3,0.101,0.4,0.101,0.5c0.1,0.1,0.299,0.1,0.5,0.2
				C49.8,3,49.9,3.1,50,3.1c0,0,0,0,0.102,0H50.3V3.3L50.3,3.3z M20,11.7c-0.3,0-0.5,0.1-0.7,0.3c-0.2,0.2-0.3,0.4-0.3,0.7v3.1
				c0,0.3,0.1,0.5,0.3,0.7c0.2,0.2,0.4,0.3,0.7,0.3h3.3c0.3,0,0.5-0.1,0.7-0.3s0.3-0.5,0.3-0.7v-3.1c0-0.3-0.1-0.5-0.3-0.7
				s-0.4-0.3-0.7-0.3H20z"/>
		</defs>
		<clipPath id="SVGID_21_">
			<use xlink:href="#SVGID_20_"  overflow="visible"/>
		</clipPath>
		<path clip-path="url(#SVGID_21_)" fill="#FFFFFF" d="M9.082,13.992c0.954-1.364,3.076-3.517,5.528-2.853
			c1.92,0.52,2.092,3.112,2.092,3.112s1.853,3.619-2.8,6.897c-4.499,1.187-5.235-5.732-5.235-5.732s2.279,2.992,4.272,2.816
			c1.881-0.168,3.347-2.696,3.347-2.696s-0.206-4.62-3.541-3.614c-2.139,0.645-4.246,3.408-4.246,3.408L9.082,13.992z"/>
	</g>
	<g>
		<defs>
			<path id="SVGID_22_" d="M50.3,3.3c0.1,0,0.1,0,0.3,0v1l0.2,1.4c-0.1,0.3-0.1,0.6-0.301,0.9c-0.101,0.3-0.101,0.5-0.299,0.8
				C50.1,7.8,50,8.1,49.9,8.3c-0.199,0.7-0.3,1.2-0.5,1.6c-0.1,0.4-0.199,0.6-0.3,0.8C49,10.9,49,11,48.9,11c0,0.1-0.1,0.1-0.1,0.1
				H29.3c0,0-0.2,0-0.6,0.1c-0.4,0.2-0.802,0.5-1.302,0.9c-0.399,0.4-0.8,1-1.198,1.9C25.8,14.8,25.6,15.9,25.6,17.3v0.5h-0.1
				c0,0-0.3,0.101-0.8,0.2s-1.1,0.2-1.9,0.3C22.1,18.4,21.3,18.4,20.5,18.4s-1.6-0.2-2.2-0.4c-0.2,0.1-0.5,0.2-0.8,0.6
				C17.2,19,17,19.4,17,19.8c0,0.3-0.1,0.8-0.3,1.601c-0.1,0.801-0.3,1.699-0.5,2.601c-0.2,0.899-0.3,1.7-0.4,2.5
				c-0.2,0.7-0.3,1.2-0.3,1.3l0.7,1.9H16c-1.3,0.199-2.7,0.3-4.1,0.5c-1.2,0.1-2.5,0.199-3.8,0.199c-1.4,0-2.7,0-4-0.199
				c-0.1,0-0.2,0-0.3,0C3.6,30.1,3.4,30,3.3,29.8C3.1,29.2,3,28.7,3,28c0-0.5,0-1,0.1-1.7s0.3-1.5,0.6-2.399C4,23,4.3,21.9,4.8,20.6
				C5.4,19.4,6,18,6.7,16.4v-0.2c0-0.1,0-0.2,0-0.3c0-0.2,0-0.4,0-0.6c0-0.6-0.1-1.1-0.4-1.7c-0.2-0.6-0.8-0.9-1.7-1.1
				c-0.1,0-0.3,0-0.7,0c-0.5,0-0.9,0-1.5-0.1c-0.5,0-1,0-1.5,0c-0.4,0-0.7,0-0.7,0l-0.1-0.1v-0.1c0-0.1,0-0.2,0.1-0.3
				c0.1-0.3,0.4-0.6,0.9-0.9s1.4-0.6,2.6-0.9c0,0,0.1-0.2,0.3-0.5c0.2-0.3,0.3-0.7,0.3-1.1c0-0.2,0-0.3,0-0.4S4.2,7.8,4.1,7.6
				C4,7.3,3.9,7.2,3.8,7C3.7,6.8,3.4,6.4,3.2,5.8V5L4,4.8c0.1,0.1,0.2,0.1,0.2,0.1C4.3,5,4.4,5.1,4.4,5.1h1.4C5.9,5,5.9,4.9,6,4.7
				c0-0.1,0.1-0.2,0.2-0.3l1.3-1.1c0.1,0,0.1-0.1,0.3-0.1c0,0,0.1-0.1,0.2-0.2V2.4c0-0.1,0-0.3,0-0.5h1.6L10.7,3h1.9l0.6-0.3h7.7
				c0.1,0,0.1,0,0.2,0.1C21.2,3,21.3,3,21.4,3l9.9,0.2l0.1,0.1c0,0.1,0.1,0.1,0.2,0.1h0.5c0-0.1,0-0.1,0-0.1c0-0.1,0-0.1,0-0.1
				C32.3,3.1,32.4,3,32.4,3h11.2c0,0.1,0,0.2,0,0.2c0,0.1,0,0.2,0,0.2c0,0.1,0,0.1,0,0.1h0.601c0,0,0-0.1,0.1-0.3
				c0-0.1,0.101-0.1,0.199-0.2h2.201C46.8,3,46.9,2.9,47.1,2.8c0.2-0.1,0.399-0.3,0.601-0.4C47.9,2.3,48.1,2.2,48.3,2.1
				C48.5,2,48.701,2,48.8,2C49,2,49.1,2.1,49.1,2.3c0.101,0.3,0.101,0.4,0.101,0.5c0.1,0.1,0.299,0.1,0.5,0.2
				C49.8,3,49.9,3.1,50,3.1c0,0,0,0,0.102,0H50.3V3.3L50.3,3.3z M20,11.7c-0.3,0-0.5,0.1-0.7,0.3c-0.2,0.2-0.3,0.4-0.3,0.7v3.1
				c0,0.3,0.1,0.5,0.3,0.7c0.2,0.2,0.4,0.3,0.7,0.3h3.3c0.3,0,0.5-0.1,0.7-0.3s0.3-0.5,0.3-0.7v-3.1c0-0.3-0.1-0.5-0.3-0.7
				s-0.4-0.3-0.7-0.3H20z"/>
		</defs>
		<clipPath id="SVGID_23_">
			<use xlink:href="#SVGID_22_"  overflow="visible"/>
		</clipPath>
		<path clip-path="url(#SVGID_23_)" fill="#A089F4" d="M14.267,6.678"/>
	</g>
</g>
<g>
	<path fill="#F3FFFE" d="M23.612,24.543l-1.197,2.578H19.93l5.708-11.322h2.761l1.656,11.322h-2.393l-0.277-2.578H23.612z
		 M26.65,18.191l-1.934,4.143h2.393L26.65,18.191z"/>
	<path fill="#F3FFFE" d="M33.553,27.121c-0.644,0-1.197-0.184-1.563-0.645c-0.367-0.461-0.461-1.012-0.367-1.656l1.287-6.996
		c0.094-0.645,0.367-1.197,0.921-1.565c0.46-0.368,1.014-0.552,1.747-0.552h3.683c0.646,0,1.197,0.184,1.565,0.645
		c0.367,0.46,0.46,1.012,0.367,1.656l-0.279,1.75h-2.393l0.276-1.473c0-0.186,0-0.277,0-0.369c-0.093-0.092-0.185-0.092-0.366-0.092
		h-2.484c-0.369,0-0.644,0.184-0.737,0.645l-1.104,6.074c0,0.186,0,0.277,0,0.369c0.092,0.092,0.184,0.092,0.367,0.092h2.484
		c0.369,0,0.646-0.184,0.737-0.645l0.184-1.287h2.395l-0.46,1.934c-0.094,0.645-0.367,1.197-0.921,1.564
		c-0.46,0.367-1.014,0.553-1.747,0.553L33.553,27.121L33.553,27.121z"/>
	<path fill="#F3FFFE" d="M50.952,15.799l-0.369,2.117h-5.246l-0.46,2.301h4.235l-0.366,2.117h-4.236l-0.46,2.578h5.246l-0.368,2.119
		h-7.546l2.022-11.23L50.952,15.799L50.952,15.799z"/>
</g>
</svg>
