<?xml version="1.0" encoding="utf-8"?>
<!-- Generator: Adobe Illustrator 16.0.0, SVG Export Plug-In . SVG Version: 6.00 Build 0)  -->
<!DOCTYPE svg PUBLIC "-//W3C//DTD SVG 1.0//EN" "http://www.w3.org/TR/2001/REC-SVG-20010904/DTD/svg10.dtd">
<svg version="1.0" id="图层_1" xmlns="http://www.w3.org/2000/svg" xmlns:xlink="http://www.w3.org/1999/xlink" x="0px" y="0px"
	 width="68.3px" height="32px" viewBox="0 0 68.3 32" enable-background="new 0 0 68.3 32" xml:space="preserve">
<g id="Selected_Items">
	<g>
		<g id="Selected_Items_7_">
			
				<linearGradient id="SVGID_1_" gradientUnits="userSpaceOnUse" x1="375.2593" y1="-262.8496" x2="443.0649" y2="-262.8496" gradientTransform="matrix(1 0 0 -1 -374.96 -246.5996)">
				<stop  offset="0" style="stop-color:#8F00DB"/>
				<stop  offset="0.6452" style="stop-color:#77B9FF"/>
				<stop  offset="1" style="stop-color:#B6CAFF"/>
			</linearGradient>
			<path fill="url(#SVGID_1_)" d="M67.9,6.4C68,6.7,68,7,68,7.3c0,0.2,0,0.4,0,0.5c0,0.1,0,0.3,0,0.4c0,0,0,0,0,0.1
				c-0.1,0-0.1,0-0.1,0.1c0,0,0,0.2,0,0.5c0,0.3,0,0.6,0,1s0,0.7,0,1c0,0.3,0,0.5,0,0.6v0.3h-2.4c0,0,0,0.1-0.1,0.3h-0.1
				c-0.1,0-0.2,0-0.5,0c-0.2,0-0.6,0-1.1,0s-1.201,0-2,0c-0.5,0-0.9,0-1.301,0s-0.699,0-1.1,0h-1c-0.2,0-0.4,0-0.6,0.1
				c-0.4,0-0.701,0.2-1.101,0.5c-0.399,0.3-0.7,0.6-1,0.9c-0.3,0.3-0.399,0.6-0.399,0.8C55.1,14.7,55.1,14.9,55.1,15.2
				c0,0.2,0,0.4,0,0.5c0.2,0.3,0.2,0.5,0.101,0.6C55.1,16.4,55,16.5,54.9,16.6V16.7c-0.1,0.1-0.3,0.2-0.6,0.2
				c-0.301,0.1-0.6,0.1-1,0.3c-0.4,0.1-0.801,0.3-1.4,0.399C51.6,17.7,51.1,17.7,50.5,17.7c-0.6,0-1.399-0.101-2.399-0.3
				c-0.5-0.101-0.899-0.101-1.2,0c-0.3,0.1-0.5,0.199-0.699,0.3C46,17.8,45.9,18,45.9,18.1L44.4,23.4c0,0,0,0,0,0.1v0.2
				c0,0.2,0,0.399,0,0.6c0.1,0.3,0.1,0.7,0.2,1.3V26.2c0,0.6-0.101,1.1-0.399,1.5c-0.101,0.1-0.301,0.2-0.4,0.2s-0.2,0-0.2,0h-5.3
				V27.8c0,0-0.1,0-0.2,0s-0.101,0-0.2,0s-0.199,0-0.3-0.1c-0.3-0.2-0.5-0.601-0.5-1.101c0-0.1,0-0.199,0.101-0.3c0-0.1,0-0.2,0-0.2
				c-0.801,0-1.301-0.1-1.5-0.199c-0.301-0.101-0.4-0.2-0.5-0.301V25.4C35.1,25.4,35.1,25.3,35.1,25.2c0-0.101,0-0.101,0-0.2
				s0-0.1,0-0.2C35,24.5,35,24.3,35,24.1V23.7c0-0.5,0.101-1,0.201-1.601c0.1-0.5,0.199-0.8,0.199-0.8l0,0l0,0
				c0.1-0.1,0.2-0.5,0.5-1.2c0.301-0.699,0.6-1.399,1-2.3c0.4-0.8,0.7-1.6,1-2.3c0.301-0.7,0.5-1.1,0.6-1.3
				C38.6,14,38.6,13.8,38.6,13.7c0-0.3-0.101-0.6-0.3-1c-0.2-0.3-0.4-0.5-0.801-0.6C37.1,12,36.8,12,36.5,11.9
				c-0.299,0-0.5,0-0.6-0.1c-0.199-0.1-0.3-0.3-0.3-0.6v-0.1c0-0.2,0.101-0.4,0.2-0.5c0.199-0.1,0.3-0.2,0.5-0.2
				c0.1-0.1,0.199-0.2,0.199-0.2c0.101,0,0.101,0,0.201,0c0.199-0.1,0.399-0.3,0.6-0.6L37.5,9.4C37.701,9.3,37.9,9,38,8.6
				c0.101-0.4,0.201-0.7,0.201-0.8c0,0,0-0.2-0.101-0.6C38,6.8,38,6.6,38,6.4V6.3C38,6,38.1,5.9,38.3,5.9c0.1-0.1,0.3-0.2,0.5-0.1
				c0.1,0,0.3,0.1,0.5,0.2c0.199,0,0.4,0,0.4,0C39.8,6,39.9,5.9,40,5.9c0.101,0,0.201-0.1,0.301-0.2c0.199,0,0.3-0.1,0.4-0.1
				C40.8,5.6,40.9,5.5,41,5.5C41.1,5.4,41.201,5.4,41.3,5.4h0.1V4.8h0.2c0.601,0,1,0.1,1.101,0.1C42.9,4.9,43,5,43,5.1
				C43.1,5.2,43.1,5.3,43.1,5.3c0,0.1,0,0.2,0,0.4h1.8c0.4,0,0.9,0,1.5,0c0.9,0,1.6,0,2.1,0s0.9,0,1.101,0s0.399,0,0.5,0h0.101
				C50.4,5.8,50.5,5.9,50.5,6h14.701l0,0c0-0.1,0-0.1,0.1-0.2c0.1-0.1,0.1-0.1,0.199-0.1c0.101,0,0.101,0,0.101-0.1
				c0,0,0.101-0.1,0.2-0.2C66,5.2,66.3,5.2,66.6,5.2s0.5,0.1,0.601,0.1L67.4,5.4l0.1,0.1C67.701,5.6,67.8,5.7,67.8,5.9
				C67.8,6.1,67.8,6.3,67.9,6.4z M48.8,12.5c-0.301,0-0.4,0-0.5,0h-0.1H48.1c-0.2,0.1-0.399,0.2-0.7,0.3c-0.3,0.2-0.4,0.4-0.5,0.6
				c-0.1,0.3-0.1,0.5-0.1,0.6c0,0.4,0,0.6,0.199,0.7l0,0H47.1c0,0.1,0.2,0.3,0.601,0.6h0.1c0.3,0.2,0.699,0.3,1.3,0.5
				c0.601,0.2,1.2,0.2,2,0.1c1.8-0.2,2.7-0.7,2.8-1.3c0.1-0.2,0.1-0.3,0.1-0.5c0-0.3-0.1-0.6-0.299-0.9c-0.201-0.3-0.5-0.6-1-0.8
				c-0.5,0-1,0-1.5,0s-0.9,0-1.301,0C49.5,12.5,49.201,12.5,48.8,12.5z M32.6,5.4c0.2,0,0.3,0.1,0.4,0.3c0.1,0.2,0.1,0.4,0.1,0.5
				c0.2,0.3,0.3,0.6,0.3,0.9c0,0.2,0,0.3-0.1,0.5c0,0.1-0.1,0.3-0.1,0.4v0.2c0,0,0,0.2,0,0.5c0,0.3-0.1,0.7-0.1,1c0,0.4,0,0.7-0.1,1
				c0,0.3,0,0.5,0,0.6v0.3h-2.3c-0.1,0-0.1,0.1-0.1,0.2c0,0,0,0.1-0.1,0.2h-0.1c-0.1,0-0.2,0-0.5,0c-0.2,0-0.6,0-1.1,0s-1.1,0-2,0
				c-0.4,0-0.9,0-1.3,0s-0.8,0-1.1,0h-1.1c-0.2,0-0.3,0-0.5,0.1c-0.4,0.1-0.8,0.2-1.1,0.5c-0.4,0.3-0.7,0.6-1,0.9
				c-0.3,0.3-0.4,0.6-0.4,0.8c0,0.3-0.1,0.5-0.1,0.8c0,0.2,0,0.4,0.1,0.5c0.1,0.3,0.1,0.5,0,0.6c-0.1,0.1-0.2,0.2-0.3,0.3v0.1
				c-0.1,0.101-0.3,0.2-0.6,0.2c-0.3,0.101-0.6,0.2-1,0.3c-0.4,0.101-0.7,0.2-1,0.301L17,17.5c-0.3,0.1-0.8,0.1-1.4,0.1
				c-0.6-0.1-1.4-0.199-2.5-0.3c-0.5-0.1-0.9-0.1-1.2,0c-0.3,0.101-0.5,0.2-0.6,0.3C11.2,17.7,11.1,17.9,11,18l-1.4,5v0.2
				c0,0.2,0,0.399,0,0.6c0,0.3,0,0.7,0.1,1.3c0.1,0.2,0.1,0.4,0.1,0.601c0,0.7-0.1,1.1-0.4,1.399c-0.2,0.2-0.3,0.2-0.4,0.2
				s-0.1,0-0.2,0H3.4c0,0-0.2-0.1-0.6-0.3c-0.2-0.1-0.3-0.2-0.3-0.4C2.4,26.4,2.4,26.1,2.4,25.9v-0.5c-0.7,0-1.1-0.101-1.4-0.2H0.9
				C0.6,25.1,0.5,25,0.4,24.9c0,0,0-0.101,0-0.2c-0.1,0-0.1-0.101-0.1-0.2v-0.3c0-0.2,0-0.3,0-0.5c0-0.101,0-0.101,0-0.2
				s0-0.2,0-0.2c0-0.5,0.1-1,0.2-1.5S0.7,21,0.7,20.9V20.8c0.1,0,0.2-0.3,0.4-0.8c0-0.1,0.1-0.2,0.1-0.3c0.3-0.7,0.6-1.5,1-2.3
				C2.6,16.6,2.9,15.8,3.2,15c0.3-0.7,0.5-1.1,0.6-1.2c0-0.3,0.1-0.5,0.1-0.5c0-0.3-0.1-0.7-0.3-1c-0.2-0.3-0.4-0.5-0.8-0.6
				c-0.4-0.1-0.7-0.1-1.1-0.2c-0.3,0-0.5,0-0.6-0.1l0,0c-0.2-0.2-0.2-0.4-0.2-0.5l0,0c0-0.3,0.1-0.4,0.2-0.5l0.1-0.1
				c0.2-0.1,0.3-0.2,0.5-0.2c0.1,0,0.1-0.1,0.2-0.1s0.1,0,0.2,0c0.2-0.1,0.4-0.3,0.6-0.6l0.1-0.2C3,9,3.2,8.7,3.3,8.3
				c0.1-0.4,0.2-0.6,0.2-0.8c0-0.1,0-0.3-0.1-0.6c0-0.4-0.1-0.6-0.1-0.8v0.1C3.4,6,3.4,5.8,3.6,5.8c0.2-0.1,0.4-0.1,0.5,0
				c0.1,0,0.3,0.1,0.5,0.2C4.8,5.9,5,5.9,5,5.9l0.5-0.2c0.1,0,0.3-0.1,0.4-0.2s0.2-0.1,0.3-0.1c0.1,0,0.2,0,0.3,0l0,0V4.6h0.3
				c0.6,0,0.9,0.1,1.1,0.1c0.1,0,0.2,0.1,0.2,0.2c0.1,0.2,0.1,0.5,0.1,0.7c0.1,0,0.3,0,0.7,0s0.7,0,1.1,0s0.9,0,1.5-0.1
				c0.9,0,1.6,0,2.1,0s0.9,0,1.1,0c0.2,0,0.4,0,0.4,0c0.1,0,0.1,0,0.2,0c0.1,0.1,0.1,0.2,0.2,0.3h14.8v0.1c0-0.1,0.1-0.2,0.2-0.3
				c0-0.1,0.1-0.1,0.1-0.1c0.1,0,0.1-0.1,0.2-0.2C31,5.1,31.2,5,31.6,5.1c0.4,0,0.6,0.1,0.6,0.2h0.1L32.6,5.4z M16.5,12.4
				c-0.5,0-0.9,0-1.3,0c-0.4,0-0.8,0-1.1,0c-0.3,0-0.4,0-0.5,0l-0.2,0.1c-0.2,0.1-0.4,0.2-0.7,0.3c-0.3,0.2-0.4,0.4-0.5,0.6
				c-0.1,0.2-0.1,0.4-0.1,0.6c0,0.4,0.1,0.6,0.2,0.7l0.1,0.1c0.1,0.1,0.1,0.1,0.2,0.2s0.2,0.2,0.4,0.4h0.2c0.2,0.2,0.6,0.3,1.3,0.5
				c0.6,0.2,1.3,0.2,1.9,0.1c1.8-0.3,2.7-0.7,2.9-1.3c0.1-0.1,0.1-0.3,0.1-0.6c0-0.3-0.1-0.6-0.3-0.9c-0.2-0.3-0.5-0.6-1-0.9
				C17.5,12.4,17,12.4,16.5,12.4z"/>
		</g>
	</g>
</g>
<g id="guides">
</g>
<linearGradient id="SVGID_2_" gradientUnits="userSpaceOnUse" x1="-122.6133" y1="309.1377" x2="-117.7037" y2="309.1377" gradientTransform="matrix(6.6522 0 0 -6.6522 851.0502 2072.5425)">
	<stop  offset="0" style="stop-color:#C216FF"/>
	<stop  offset="0.6452" style="stop-color:#77B9FF"/>
	<stop  offset="1" style="stop-color:#B6CAFF"/>
</linearGradient>
<path fill="url(#SVGID_2_)" fill-opacity="0.5" d="M37.3,26.7c0,0,2.6-5.9,8.4-8.3c0,0-3.9,0.5-6.4,2.699c0,0,3.4-4.6,8.8-5.5
	c0,0-2.5-1.3-7.899,1.9c0,0,2-3.8,7.1-5c3.3-2.3,9-2.7,15.8-0.7c0,0-3.101-2.8-9-3.1L59.5,8L67.8,9.1L68,7.4
	c0,0-5.299-1.3-9.199-1.7l-2.1,0.3l-1.5-0.1h-4L52,7.8l-3.6-2.3L43,5.6l-4.6,1.1L38,9.2l-1.5,1.7l2.301,1.8l-0.1,1.5L35.4,21.4
	l0.1,3.699l1.9,0.301L37.3,26.7z"/>
<linearGradient id="SVGID_3_" gradientUnits="userSpaceOnUse" x1="-127.7993" y1="309.1377" x2="-122.8901" y2="309.1377" gradientTransform="matrix(6.6522 0 0 -6.6522 851.0502 2072.5425)">
	<stop  offset="0" style="stop-color:#C216FF"/>
	<stop  offset="0.6452" style="stop-color:#77B9FF"/>
	<stop  offset="1" style="stop-color:#B6CAFF"/>
</linearGradient>
<path fill="url(#SVGID_3_)" fill-opacity="0.5" d="M2.8,26.7c0,0,2.6-5.9,8.4-8.3c0,0-3.9,0.5-6.4,2.699c0,0,3.4-4.6,8.8-5.5
	c0,0-2.5-1.3-7.9,1.9c0,0,2-3.8,7.1-5c3.3-2.3,9-2.7,15.8-0.7c0,0-3.1-2.8-9-3.1L25,8.2l8.3,1.1l0.2-1.7c0,0-5.3-1.3-9.2-1.7
	l-2.1,0.3l-1.5-0.1h-4L17.5,8L14,5.5L8.6,5.6L4,6.7L3.5,9.2L2,10.9l2.3,1.8l-0.1,1.5l-3.3,7.2L1,25.1L2.9,25.4L2.8,26.7z"/>
<path opacity="0.7" fill="#AC00CF" enable-background="new    " d="M46.3,12.8c0,0-3.4,0.7-6.1,5.101c0,0,2.299,1.199,1.5,2
	C40.9,20.7,37.5,19.6,31.5,26.5c0,0,2.5-1.3,5.8-1.6c3.3-0.301-0.9,2.3-1.801,2.899c0,0,6.201-3.6,7.9-3.3
	c1.7,0.3-6.199,5.5-9.6,7.4c0,0,10.3-4,11.5-3.7c1.199,0.2-0.6,2.399-3.5,3.7c0,0,5.9,0,9.9-2.101C55.6,27.7,56.4,27.4,56.4,28.6
	c0,0,3.4-2.5,2.5-3.5C57.9,24.2,61.5,23,64,20.9c2.5-2.101,3.4-3.5,3.4-3.5s-5.9,3-7.699,3.199C57.9,20.8,60.9,17.7,64.1,16.1
	s4.2-4.7,4.2-4.7s-4.4,0.2-10,3.5c-5.7,3.3-6.301,4.4-5.9,2.4s5.7-4.9,5.7-4.9s-7.2,0.2-10.601,3.2c-3.299,3-2.399-0.7-1.6-1.4
	C46.5,13.6,46.3,12.8,46.3,12.8z"/>
<g>
	<path fill="#F5EDFF" d="M37.5,25.9l-1.299,2.8H33.5l6.201-12.3h3L44.5,28.7h-2.6l-0.3-2.8H37.5z M40.8,19.1l-2.1,4.5h2.6L40.8,19.1
		z"/>
	<path fill="#F5EDFF" d="M48.3,28.8c-0.7,0-1.301-0.2-1.7-0.7s-0.5-1.1-0.399-1.8l1.399-7.6c0.101-0.7,0.399-1.3,1-1.7
		c0.5-0.4,1.101-0.6,1.899-0.6h4c0.701,0,1.301,0.2,1.701,0.7c0.399,0.5,0.5,1.101,0.399,1.801L56.3,20.8h-2.6L54,19.2
		c0-0.2,0-0.3,0-0.4c-0.1-0.1-0.199-0.1-0.399-0.1h-2.7c-0.4,0-0.699,0.2-0.8,0.7L48.8,26c0,0.2,0,0.3,0,0.4
		c0.1,0.1,0.199,0.1,0.4,0.1H51.9c0.4,0,0.7-0.2,0.801-0.7L52.9,24.4h2.6L55.1,26.5c-0.101,0.7-0.399,1.3-1,1.7
		C53.6,28.6,53,28.8,52.201,28.8H48.3z"/>
	<path fill="#F5EDFF" d="M67.201,16.4l-0.4,2.3h-5.7l-0.5,2.5h4.601l-0.4,2.3h-4.6l-0.5,2.8H65.4L65,28.6H56.8L59,16.4H67.201z"/>
</g>
</svg>
