<?xml version="1.0" encoding="utf-8"?>
<!-- Generator: Adobe Illustrator 16.0.0, SVG Export Plug-In . SVG Version: 6.00 Build 0)  -->
<!DOCTYPE svg PUBLIC "-//W3C//DTD SVG 1.0//EN" "http://www.w3.org/TR/2001/REC-SVG-20010904/DTD/svg10.dtd">
<svg version="1.0" id="图层_1" xmlns="http://www.w3.org/2000/svg" xmlns:xlink="http://www.w3.org/1999/xlink" x="0px" y="0px"
	 width="39px" height="32px" viewBox="0 0 39 32" enable-background="new 0 0 39 32" xml:space="preserve">
<g id="Selected_Items">
	<g>
		<g id="Selected_Items_9_">
			
				<linearGradient id="SVGID_1_" gradientUnits="userSpaceOnUse" x1="374.96" y1="-262.5977" x2="413.5596" y2="-262.5977" gradientTransform="matrix(1 0 0 -1 -374.96 -246.5996)">
				<stop  offset="0" style="stop-color:#8F00DB"/>
				<stop  offset="0.6452" style="stop-color:#77B9FF"/>
				<stop  offset="1" style="stop-color:#B6CAFF"/>
			</linearGradient>
			<path fill="url(#SVGID_1_)" d="M38.4,3.6C38.5,3.8,38.6,4.1,38.6,4.4c0,0.3,0,0.6,0,1c0,0.6,0,1.2,0,1.9c-0.1,0.6-0.1,1-0.1,1.2
				l-0.1,0.2l-0.2,0.2c0,0.1,0,0.2,0,0.5v0.2L38,9.9l-0.3-0.1c-0.101,0-0.2,0-0.4,0s-0.7,0-1.5,0c0,0.3-0.1,0.7-0.3,1
				c-0.1,0.2-0.2,0.4-0.3,0.4v0.2h-9l-0.4,0.2c-0.2,0.1-0.399,0.2-0.7,0.4c-0.3,0.1-0.6,0.3-0.8,0.4c-0.2,0.2-0.399,0.3-0.5,0.3
				C23.9,13,23.9,13.3,23.9,13.8c0,0.2,0,0.5,0,0.9c0,0.4,0,0.8-0.101,1.2C23.7,16.5,23.4,17,23,17.3s-0.9,0.5-1.4,0.601
				C21.1,18,20.5,18,19.8,18c-0.7,0-1.3-0.1-1.9-0.1c-0.5,0-0.9-0.101-1.3-0.101c-0.4-0.1-0.7,0-1,0h-0.1c-0.9-0.1-1.4-0.1-1.7,0
				c-0.3,0.101-0.4,0.2-0.5,0.4l-0.2,0.1c-0.2,0.2-0.3,0.7-0.3,1.5v0.3c0,0.4,0,0.801-0.1,1.101c-0.1,0.3-0.2,0.7-0.4,1v0.2
				C12.2,22.6,12.1,23,12,23.6c-0.1,0.5-0.3,1.101-0.4,1.7c-0.2,0.7-0.3,1.3-0.4,1.601C11.1,27.3,11,27.5,11,27.7l0.2,0.2
				c0.1,0.1,0.2,0.199,0.2,0.3c0.1,0.1,0.1,0.2,0.1,0.399L11.4,28.7c0,0.2-0.2,0.399-0.4,0.6c-0.2,0.101-0.4,0.2-0.6,0.3h-0.1
				c-0.1,0-0.5,0-1.2,0c-0.8,0-1.6,0-2.4,0.101c-2.6,0.1-4,0.2-4.3,0.2c-0.5,0-1-0.5-1.6-1.601l0,0v-0.6c0-0.9,0.1-1.9,0.4-3.2
				C1.4,23.3,1.7,22,2,20.8c0.4-1.3,0.7-2.399,1.1-3.5c0.4-1.1,0.7-2,1-2.8v-0.2C4,13.9,4,13.7,4,13.6s0-0.2,0-0.2s0,0,0-0.1v-0.1
				H3.8v-0.1c0-0.2-0.1-0.3-0.3-0.4c-0.1-0.1-0.1-0.1-0.2-0.1c-0.2,0-0.3-0.1-0.5-0.2c-0.4-0.1-0.9-0.4-1.6-0.9
				c-0.5-0.3-0.7-0.6-0.9-0.9C0.1,10.4,0,10,0,9.7C0,9.4,0,9.1,0,9c0.1-0.1,0.2-0.6,0.4-1.4C0.6,6.8,0.8,5.9,1,5
				c0.2-0.7,0.5-1.2,0.8-1.5C2.1,3.2,2.4,3,2.6,2.9V2.3l0.2-0.1C3.6,2,4.4,2.1,5.2,2.4C5.9,2.8,6.3,3,6.5,3.1h19.2
				c0.1,0,0.1,0,0.2,0.1L26,3.4h10.1L36.2,3.3c0.2-0.1,0.3-0.4,0.6-0.9V2.2H36.9c0,0,0.1,0,0.199,0c0.101,0,0.301,0,0.4,0
				C37.9,2.3,38.2,2.7,38.4,3.6z M21.7,12.2h-7c-0.4,0-0.6,0.2-0.6,0.6v2.5c0,0.4,0.2,0.6,0.6,0.6h7c0.3,0,0.5-0.2,0.5-0.6v-2.5
				C22.3,12.4,22.1,12.2,21.7,12.2z"/>
		</g>
	</g>
</g>
<g id="guides">
</g>
<linearGradient id="SVGID_2_" gradientUnits="userSpaceOnUse" x1="-152.8003" y1="309.5742" x2="-147.9419" y2="309.5742" gradientTransform="matrix(6.6522 0 0 -6.6522 1016.5145 2072.5425)">
	<stop  offset="0" style="stop-color:#C216FF"/>
	<stop  offset="0.6452" style="stop-color:#77B9FF"/>
	<stop  offset="1" style="stop-color:#B6CAFF"/>
</linearGradient>
<path fill="url(#SVGID_2_)" fill-opacity="0.5" d="M1.5,24.2c0,0,6.2-0.9,11.1-7.101c0,0-2.4,2.301-7.1,2.301c0,0,9.3-5.4,10.4-9.5
	c0,0-7,5.2-9,2.1c0,0,4,1.1,6.8-1.6c3.9-1,5.4-3.6,11.3-0.1c0,0-2-4.3-9.1-4.8c0,0,13.7-1.3,16.6,3.2c0,0-2.8-5.3-13-5.3h-5.1
	l-0.7,0.1l-2-0.2H9.4H6.5L2.8,2.2L2.6,3.4L1.2,4.7l-1.1,5.5L4.5,13L1.5,24.2z"/>
<path opacity="0.7" fill="#AC00CF" enable-background="new    " d="M21,15.9c0,0-2.8,0.6-5,4.2c0,0,1.9,1,1.2,1.601
	c-0.6,0.7-3.5-0.3-8.5,5.5c0,0,2-1,4.8-1.3c2.7-0.2-0.7,1.899-1.5,2.399c0,0,5.1-3,6.5-2.7c1.4,0.301-5.1,4.601-7.9,6.101
	c0,0,8.5-3.3,9.5-3.101c1,0.2-0.5,2-2.899,3.101c0,0,4.899,0,8.1-1.7c3.3-1.7,3.9-2,3.9-1c0,0,2.8-2.1,2-2.9
	c-0.8-0.8,2.1-1.699,4.2-3.5c2.1-1.8,2.8-2.899,2.8-2.899s-4.9,2.5-6.3,2.6c-1.5,0.101,1-2.399,3.6-3.7C38.1,17.3,39,14.7,39,14.7
	s-3.6,0.1-8.3,2.899c-4.7,2.7-5.2,3.601-4.8,2c0.399-1.6,4.699-4,4.699-4s-6,0.2-8.699,2.6c-2.8,2.5-2-0.601-1.301-1.2
	C21.2,16.6,21,15.9,21,15.9z"/>
<g>
	<path fill="#F5EDFF" d="M13.8,26.7L12.7,29h-2.3l5.1-10.1H18L19.5,29h-2.2L17,26.7H13.8z M16.4,21.1l-1.8,3.7h2.2L16.4,21.1z"/>
	<path fill="#F5EDFF" d="M22.7,29.1c-0.601,0-1.101-0.199-1.4-0.6S20.9,27.6,21,27l1.1-6.2c0.101-0.6,0.4-1.1,0.801-1.399
		c0.399-0.4,0.899-0.5,1.5-0.5h3.3c0.6,0,1.1,0.199,1.399,0.6c0.301,0.4,0.4,0.9,0.301,1.5L29.1,22.6H27l0.2-1.3c0-0.2,0-0.3,0-0.3
		c0-0.1-0.101-0.1-0.3-0.1h-2.2c-0.4,0-0.601,0.199-0.7,0.5l-1,5.5c0,0.199,0,0.3,0,0.3s0.1,0.1,0.3,0.1h2.2c0.4,0,0.6-0.2,0.6-0.5
		l0.2-1.2H28.4L28.1,27.3C28,27.9,27.7,28.4,27.3,28.7C26.9,29.1,26.4,29.2,25.8,29.2h-3.1V29.1z"/>
	<path fill="#F5EDFF" d="M38.2,18.9L37.8,20.8h-4.7L32.7,22.9h3.8L36.1,24.8h-3.8L31.9,27.1H36.6L36.4,29H29.6L31.4,18.9H38.2z"/>
</g>
</svg>
