<?xml version="1.0" encoding="utf-8"?>
<!-- Generator: Adobe Illustrator 16.0.0, SVG Export Plug-In . SVG Version: 6.00 Build 0)  -->
<!DOCTYPE svg PUBLIC "-//W3C//DTD SVG 1.0//EN" "http://www.w3.org/TR/2001/REC-SVG-20010904/DTD/svg10.dtd">
<svg version="1.0" id="图层_1" xmlns="http://www.w3.org/2000/svg" xmlns:xlink="http://www.w3.org/1999/xlink" x="0px" y="0px"
	 width="39px" height="32px" viewBox="0 0 39 32" enable-background="new 0 0 39 32" xml:space="preserve">
<path opacity="0.7" fill="#077272" enable-background="new    " d="M17.161,13.345c0,0-3.429,0.698-6.141,4.886
	c0,0,2.313,1.133,1.515,1.831c-0.797,0.699-4.307-0.349-10.37,6.278c0,0,2.473-1.219,5.822-1.481c3.352-0.263-0.877,2.18-1.833,2.79
	c0,0,6.221-3.399,7.977-3.141c1.754,0.262-6.223,5.233-9.653,6.978c0,0,10.45-3.751,11.647-3.575
	c1.197,0.173-0.639,2.267-3.509,3.575c0,0,5.983,0,9.972-2.006c3.988-2.007,3.601-0.796,3.601,0.339c0,0,5.25-0.943,6.563-2.765
	c2.688-1.304,0.841-1.734,3.313-3.741c2.473-2.006,2.396-5.609,2.396-5.609s-5.981,2.878-7.816,2.965
	c-1.835,0.089,1.196-2.704,4.467-4.272c3.272-1.569,4.308-4.448,4.308-4.448s-4.468,0.175-10.211,3.314
	c-5.743,3.139-6.381,4.186-5.902,2.267c0.479-1.919,5.743-4.622,5.743-4.622s-7.339,0.174-10.689,3.052
	c-3.349,2.878-2.394-0.697-1.675-1.395C17.401,13.869,17.161,13.345,17.161,13.345z"/>
<linearGradient id="SVGID_1_" gradientUnits="userSpaceOnUse" x1="742.6699" y1="578.3916" x2="780.2695" y2="578.3916" gradientTransform="matrix(1 0 0 1 -741.9199 -562.1992)">
	<stop  offset="0" style="stop-color:#5782CE"/>
	<stop  offset="0.9898" style="stop-color:#5CAEFF"/>
</linearGradient>
<linearGradient id="SVGID_2_" gradientUnits="userSpaceOnUse" x1="371.335" y1="-262.7915" x2="409.6846" y2="-262.7915" gradientTransform="matrix(1 0 0 -1 -370.96 -246.5996)">
	<stop  offset="0" style="stop-color:#86D4F7"/>
	<stop  offset="1" style="stop-color:#DEF6FF"/>
</linearGradient>
<path fill="url(#SVGID_1_)" stroke="url(#SVGID_2_)" stroke-width="0.75" stroke-miterlimit="10" d="M38.154,4.115
	c0.099,0.195,0.195,0.487,0.195,0.779s0,0.584,0,0.974c0,0.584,0,1.169,0,1.851c-0.098,0.584-0.098,0.974-0.098,1.169l-0.098,0.195
	L37.96,9.277c0,0.098,0,0.195,0,0.487v0.195l-0.194,0.292l-0.293-0.098c-0.098,0-0.195,0-0.391,0c-0.193,0-0.682,0-1.461,0
	c0,0.293-0.098,0.682-0.292,0.974c-0.097,0.195-0.194,0.39-0.292,0.39v0.195H26.27l-0.39,0.195c-0.194,0.098-0.39,0.194-0.683,0.39
	c-0.293,0.097-0.584,0.292-0.779,0.39c-0.193,0.195-0.389,0.292-0.486,0.292c0.098,0.292,0.098,0.584,0.098,1.071
	c0,0.195,0,0.487,0,0.877c0,0.39,0,0.779-0.098,1.169c-0.098,0.583-0.39,1.072-0.779,1.363c-0.391,0.293-0.877,0.488-1.363,0.586
	c-0.487,0.098-1.071,0.098-1.753,0.098c-0.682,0-1.267-0.098-1.851-0.098c-0.487,0-0.876-0.098-1.266-0.098
	c-0.39-0.098-0.682,0-0.974,0h-0.097c-0.877-0.098-1.364-0.098-1.656,0s-0.39,0.195-0.487,0.389l-0.194,0.098
	c-0.195,0.195-0.292,0.683-0.292,1.461v0.293c0,0.39,0,0.779-0.097,1.072c-0.098,0.291-0.195,0.682-0.39,0.973v0.195
	c-0.097,0.195-0.194,0.584-0.292,1.168c-0.097,0.488-0.292,1.072-0.389,1.656c-0.195,0.682-0.293,1.268-0.39,1.561
	c-0.098,0.39-0.195,0.584-0.195,0.777l0.195,0.195c0.097,0.098,0.194,0.195,0.194,0.293c0.098,0.096,0.098,0.195,0.098,0.389
	l-0.098,0.098c0,0.195-0.194,0.39-0.39,0.584c-0.195,0.099-0.389,0.195-0.584,0.293h-0.097c-0.097,0-0.487,0-1.169,0
	c-0.779,0-1.559,0-2.337,0.099c-2.533,0.099-3.896,0.194-4.189,0.194c-0.487,0-0.974-0.487-1.559-1.561l0,0V27.59
	c0-0.877,0.097-1.85,0.39-3.117c0.195-1.168,0.487-2.434,0.779-3.604c0.39-1.266,0.682-2.338,1.072-3.41
	c0.389-1.071,0.681-1.947,0.974-2.727v-0.195c-0.097-0.39-0.097-0.584-0.097-0.682s0-0.195,0-0.195s0,0,0-0.097v-0.097H4.451v-0.098
	c0-0.195-0.097-0.292-0.292-0.389c-0.097-0.098-0.097-0.098-0.195-0.098c-0.194,0-0.292-0.098-0.487-0.195
	c-0.389-0.098-0.876-0.39-1.558-0.877c-0.487-0.292-0.682-0.584-0.877-0.876c-0.194-0.195-0.292-0.584-0.292-0.876s0-0.584,0-0.682
	c0.098-0.098,0.195-0.584,0.39-1.364c0.195-0.78,0.39-1.656,0.584-2.533c0.195-0.682,0.487-1.168,0.779-1.46s0.585-0.488,0.78-0.585
	V2.848l0.194-0.097c0.78-0.195,1.559-0.098,2.338,0.194c0.682,0.39,1.071,0.584,1.266,0.682h18.703c0.098,0,0.098,0,0.194,0.098
	l0.098,0.194h9.838l0.1-0.098c0.193-0.097,0.291-0.389,0.584-0.876V2.751h0.098c0,0,0.097,0,0.193,0c0.098,0,0.293,0,0.391,0
	C37.669,2.848,37.961,3.238,38.154,4.115z M21.889,12.492H15.07c-0.39,0-0.584,0.195-0.584,0.584v2.436
	c0,0.39,0.194,0.584,0.584,0.584h6.819c0.291,0,0.486-0.195,0.486-0.584v-2.436C22.473,12.687,22.277,12.492,21.889,12.492z"/>
<g>
	<g>
		<defs>
			<path id="SVGID_3_" d="M38.322,4.198c0.098,0.195,0.193,0.487,0.193,0.779s0,0.584,0,0.974c0,0.584,0,1.169,0,1.851
				C38.42,8.387,38.42,8.776,38.42,8.971l-0.098,0.195L38.128,9.36c0,0.098,0,0.195,0,0.487v0.195l-0.194,0.292l-0.293-0.098
				c-0.098,0-0.195,0-0.391,0c-0.193,0-0.682,0-1.461,0c0,0.293-0.098,0.682-0.292,0.974c-0.097,0.195-0.194,0.39-0.292,0.39v0.195
				h-8.768l-0.39,0.195c-0.194,0.098-0.39,0.194-0.683,0.39c-0.292,0.097-0.584,0.292-0.779,0.39
				c-0.193,0.195-0.389,0.292-0.486,0.292c0.099,0.292,0.099,0.584,0.099,1.071c0,0.195,0,0.487,0,0.877c0,0.39,0,0.779-0.099,1.169
				c-0.098,0.584-0.39,1.072-0.779,1.363c-0.391,0.293-0.877,0.487-1.363,0.586s-1.07,0.099-1.753,0.099
				c-0.682,0-1.267-0.099-1.851-0.099c-0.487,0-0.876-0.099-1.266-0.099c-0.39-0.098-0.682,0-0.974,0h-0.097
				c-0.877-0.098-1.364-0.098-1.656,0c-0.292,0.099-0.39,0.195-0.487,0.39l-0.194,0.099c-0.195,0.194-0.292,0.682-0.292,1.461v0.293
				c0,0.389,0,0.778-0.097,1.072c-0.098,0.29-0.195,0.682-0.39,0.973v0.195c-0.097,0.194-0.194,0.584-0.292,1.168
				c-0.097,0.487-0.292,1.071-0.389,1.655c-0.195,0.683-0.293,1.269-0.39,1.562c-0.098,0.389-0.195,0.584-0.195,0.776l0.195,0.195
				c0.097,0.098,0.194,0.194,0.194,0.293c0.098,0.096,0.098,0.194,0.098,0.389l-0.098,0.099c0,0.194-0.194,0.389-0.39,0.584
				c-0.195,0.098-0.389,0.195-0.584,0.293H10.95c-0.097,0-0.487,0-1.169,0c-0.779,0-1.559,0-2.337,0.098
				c-2.533,0.098-3.896,0.195-4.189,0.195c-0.487,0-0.974-0.488-1.559-1.562l0,0v-0.584c0-0.877,0.097-1.851,0.39-3.116
				c0.195-1.168,0.487-2.435,0.779-3.604c0.39-1.267,0.682-2.339,1.072-3.41c0.389-1.071,0.681-1.948,0.974-2.727V14.62
				c-0.097-0.39-0.097-0.584-0.097-0.682s0-0.195,0-0.195s0,0,0-0.097V13.55H4.618v-0.098c0-0.195-0.097-0.292-0.292-0.389
				c-0.097-0.098-0.097-0.098-0.195-0.098c-0.194,0-0.292-0.098-0.487-0.195c-0.389-0.098-0.876-0.39-1.558-0.877
				c-0.487-0.292-0.682-0.584-0.877-0.876c-0.194-0.195-0.292-0.584-0.292-0.876s0-0.584,0-0.682
				c0.098-0.098,0.195-0.584,0.39-1.364c0.195-0.78,0.39-1.656,0.584-2.533C2.086,4.88,2.378,4.393,2.67,4.101
				s0.585-0.487,0.78-0.584V2.932l0.194-0.097c0.78-0.195,1.559-0.098,2.338,0.194c0.682,0.39,1.071,0.584,1.266,0.682h18.703
				c0.098,0,0.098,0,0.195,0.098l0.097,0.194h9.838l0.099-0.098c0.194-0.097,0.293-0.389,0.584-0.876V2.835h0.098
				c0,0,0.098,0,0.195,0c0.096,0,0.293,0,0.389,0C37.836,2.932,38.128,3.322,38.322,4.198z M22.055,12.576h-6.818
				c-0.39,0-0.584,0.195-0.584,0.584v2.436c0,0.39,0.194,0.584,0.584,0.584h6.818c0.293,0,0.487-0.195,0.487-0.584V13.16
				C22.639,12.771,22.443,12.576,22.055,12.576z"/>
		</defs>
		<clipPath id="SVGID_4_">
			<use xlink:href="#SVGID_3_"  overflow="visible"/>
		</clipPath>
		<g clip-path="url(#SVGID_4_)">
			<polygon fill="#148193" points="12.364,29.591 -0.491,31.621 5.042,7.623 11.881,14.226 15.52,14.224 			"/>
			<polygon fill="#E08300" stroke="#DDBE26" stroke-miterlimit="10" points="1.872,18.132 15.194,19.025 14.673,25.034 
				1.351,24.141 			"/>
			
				<linearGradient id="SVGID_5_" gradientUnits="userSpaceOnUse" x1="720.7344" y1="575.7363" x2="768.1152" y2="575.7363" gradientTransform="matrix(1 0 0 1 -741.9199 -562.1992)">
				<stop  offset="5.581969e-004" style="stop-color:#FF9500"/>
				<stop  offset="1" style="stop-color:#EFB941"/>
			</linearGradient>
			<path fill="url(#SVGID_5_)" d="M-21.027,8.415h15.643L0.147,7.99l0.419-4.097l9.192-1.855l5.11,0.387
				c0,0,9.915,2.059,11.327,4.372c0,0-2.34,1.42-3.185,3.58c-0.844,2.158-2.047,3.681-3.977,4.117
				c-1.932,0.435-3.525-1.855-5.209-0.798c-1.685,1.057-4.302,3.275-5.489,4.187c-1.188,0.914-4.205,2.885-5.221,4.447
				c-1.015,1.568-2.36,3.219-3.619,2.553c-1.259-0.666-2.932-1.813-2.932-1.813l-5.778,0.16l-5.579,0.117l-5.477,0.94l-0.915-1.39
				L-21.027,8.415z"/>
			<path fill="#300093" d="M-15.441,12.536c0,0-4.898,0.056-5.394,4.483c-0.641,5.705,5.107,3.631,5.107,3.631
				S-17.831,16.855-15.441,12.536z"/>
			<path fill="#5D29FF" d="M-15.112,20.25l3.745-1.195c0,0-1.275-2.991,1.682-4.926c2.432-1.593,5.216,0.433,5.216,0.433
				l2.021-2.723c0,0-6.836-4.218-11.514,0.203C-17.281,15.178-15.112,20.25-15.112,20.25z"/>
			<path fill="#4383FF" d="M0.928,9.651c0,0-2.422,1.236-3.376,1.236c-0.954,0,0.992,0.773,0.992,0.773l-2.169,2.908l0.819,1.936
				l5.24,0.189l0.21-7.758L0.928,9.651z"/>
			<path fill="#8600EE" d="M10.268,8.434c0,0-2.174-1.373-4.749,0.116c-2.575,1.488-2.875,7.231,1.606,7.757
				c3.846,0.453,4.605-4.563,2.413-5.258c-2.194-0.694-2.317,1.685-2.069,1.937H6.877c0,0-0.889-2.899,2.131-2.87
				c3.004,0.028,2.293,4.068,2.293,4.068s1.439-2.531,3.256-2.387c2.053,0.165,1.683,1.185,3.003,1.464
				c1.374,0.29,3.362,0.246,3.989-2.841c0.342-1.67,2.447-2.797,2.447-2.797s-2.66-0.971-4.19,1.347
				c-1.398,2.118-2.414,0.761-3.232-0.188c-1.202-1.391-2.588-1.826-4.762-1.406C11.105,7.512,10.268,8.434,10.268,8.434z"/>
			<ellipse fill="#00A625" cx="-7.382" cy="17.766" rx="3.591" ry="3.637"/>
			<path fill="#A20063" d="M14.734,4.817c0,0,1.339-0.558,4.101,0.152c2.761,0.711,3.989,1.695,3.989,1.695s-2.588-0.086-3.217,1.16
				c-0.631,1.246-1.23,1.304-1.832,1.016c-0.601-0.291-1.301-1.769-3.232-2.045c-1.742-0.248,0.1-1.493,0.1-1.493L14.734,4.817z"/>
			<path fill="#F58800" d="M1.757,5.505C1.8,5.52,3.387,9.26,3.387,9.26L6.82,7.304L6.091,4.145L1.757,5.505z"/>
			<polygon fill="#5CFF16" points="6.477,4.145 7.364,7.221 9.881,7.623 10.067,3.71 			"/>
			<path fill="#646BFF" d="M14.329,3.897c0,0-1.13,2.363-1.144,2.804c0,0-2.104-0.161-2.774,0.66l0.086-3.826L14.329,3.897z"/>
		</g>
	</g>
</g>
<g>
	<path fill="#F3FFFE" d="M12.97,24.898l-1.037,2.234H9.779l4.946-9.813h2.393l1.436,9.813H16.48l-0.24-2.234H12.97z M15.603,19.394
		l-1.675,3.59h2.074L15.603,19.394z"/>
	<path fill="#F3FFFE" d="M21.585,27.133c-0.558,0-1.036-0.161-1.354-0.56c-0.317-0.399-0.399-0.877-0.317-1.436l1.114-6.063
		c0.082-0.559,0.319-1.037,0.798-1.356c0.399-0.319,0.88-0.479,1.516-0.479h3.19c0.559,0,1.037,0.159,1.356,0.559
		c0.317,0.398,0.398,0.878,0.317,1.436l-0.24,1.517h-2.074l0.239-1.277c0-0.159,0-0.239,0-0.318c-0.081-0.08-0.159-0.08-0.317-0.08
		h-2.153c-0.318,0-0.558,0.159-0.639,0.559l-0.957,5.265c0,0.159,0,0.239,0,0.319c0.08,0.079,0.159,0.079,0.318,0.079h2.153
		c0.319,0,0.559-0.159,0.639-0.558l0.159-1.117h2.074l-0.398,1.677c-0.08,0.559-0.317,1.037-0.798,1.356
		c-0.398,0.316-0.878,0.479-1.515,0.479L21.585,27.133L21.585,27.133z"/>
	<path fill="#F3FFFE" d="M36.662,17.32l-0.319,1.835h-4.546l-0.399,1.994h3.671l-0.317,1.834H31.08l-0.399,2.234h4.547l-0.318,1.836
		h-6.54l1.754-9.731L36.662,17.32L36.662,17.32z"/>
</g>
</svg>
