<?xml version="1.0" encoding="utf-8"?>
<!-- Generator: Adobe Illustrator 16.0.0, SVG Export Plug-In . SVG Version: 6.00 Build 0)  -->
<!DOCTYPE svg PUBLIC "-//W3C//DTD SVG 1.0//EN" "http://www.w3.org/TR/2001/REC-SVG-20010904/DTD/svg10.dtd">
<svg version="1.0" id="图层_1" xmlns="http://www.w3.org/2000/svg" xmlns:xlink="http://www.w3.org/1999/xlink" x="0px" y="0px"
	 width="93.3px" height="32px" viewBox="0 0 93.3 32" enable-background="new 0 0 93.3 32" xml:space="preserve">
<path fill="#0001BF" d="M92.701,12.9c0,0.4,0.1,0.8,0.199,1.2c0,0.5-0.1,0.8-0.5,0.9c-0.199,0-0.5,0.1-0.9,0.1
	c-0.399,0-0.899,0-1.399,0s-1,0-1.5,0S87.701,15,87.4,15l-0.3-0.1h-5.3c0,0-0.1,0.1-0.2,0.2c0,0.1-0.101,0.1-0.101,0.1L80.8,15.4
	l-0.4-0.2h-0.8l-0.2,0.2c-0.1,0.1-0.1,0.2-0.1,0.3v0.2L79,16.5H78.3v1.3L78,17.9C77.9,17.9,77.8,18,77.6,18c-0.3,0-0.5,0-0.601-0.1
	L76,17.8H73.1V18h-0.3c-0.7,0-1.1,0-1.2-0.1c-0.101,0-0.2-0.101-0.3-0.101c0-0.1,0-0.2,0-0.2s-0.1,0-0.1-0.1h0.1v-0.2H58.9
	c-0.4,0-0.8,0.101-1.199,0.2c-0.5,0-0.9,0.1-1.301,0.1c-0.5,0-0.8,0.101-1.1,0.101c-0.301,0.1-0.4,0.1-0.5,0.1
	c-0.2,0.101-0.4,0.101-0.6,0C54.1,17.8,54.1,17.7,54,17.7L53.8,17.6v-0.3h-5c0.1,0.9,0.1,1.8,0.199,2.9c0.101,1,0.201,2,0.301,2.899
	c0.1,0.9,0.199,1.7,0.199,2.4c0.101,0.6,0.101,1,0.101,1.2c0,0-0.101,0.2-0.2,0.3s-0.5,0.2-1.199,0.3C47.4,27.4,46.7,27.6,46,27.8
	c-0.8,0.101-1.4,0.2-1.9,0.3c-0.5,0.101-0.8,0.101-1,0.2c-0.2,0-0.4,0-0.5,0s-0.1-0.1-0.2-0.1c0,0,0-0.101,0-0.2s0-0.4-0.1-1
	c0-0.6-0.1-1.4-0.3-2.4C41.9,23.4,41.8,21.9,41.6,19.9H41l-0.4,0.6h-0.3l0.3-0.6h-0.8V20.1c-0.2,0.7-0.4,1.2-0.6,1.7
	c-0.2,0.5-0.5,0.8-0.8,1c-0.5,0.2-1.1,0.3-1.9,0.4c-0.9,0-1.5,0-1.8-0.2l-0.5-0.3c-0.2-0.101-0.4-0.2-0.6-0.3
	c-0.2-0.101-0.3-0.2-0.4-0.2L33,22.4c-0.1,0.1-0.2,0.3-0.3,0.6c-0.1,0.3-0.3,0.6-0.5,0.9c-0.4,0.899-0.7,1.6-0.9,2.1
	c-0.3,0.5-0.5,0.9-0.6,1.2c-0.2,0.3-0.3,0.5-0.4,0.5c-0.1,0.1-0.2,0.1-0.3,0.1c-0.2,0-0.7-0.3-1.5-0.8s-1.6-1.1-2.3-1.7l-0.3-0.2
	L26,24.9c0,0,0.1-0.2,0.3-0.5c0.1-0.301,0.3-0.601,0.5-0.9c0.2-0.3,0.4-0.6,0.5-0.9c0.2-0.3,0.4-0.5,0.6-0.699l0.1-0.2
	c0.2-0.2,0.5-0.5,0.7-0.8c0.3-0.301,0.5-0.601,0.6-1c0.1-0.5,0-0.9-0.1-1.2c-0.2-0.3-0.5-0.5-0.7-0.5h-5.8c0,0-0.1,0-0.2,0
	s-0.2,0.1-0.4,0.1c-0.2,0-0.4,0.101-0.6,0.2c-0.1,0.1-0.7,0.2-1.5,0.5c-0.9,0.3-1.9,0.7-3.1,1.1c-1.1,0.5-2.4,0.9-3.7,1.4
	c-1.3,0.5-2.5,0.9-3.6,1.3c-1.1,0.4-2,0.7-2.7,1c-0.7,0.3-1.1,0.5-1.2,0.5C5.4,24.4,5.1,24.4,4.8,24.5c-0.4,0-0.8,0.1-1.2,0.1
	C3.2,24.7,2.8,24.7,2.5,24.7c-0.3,0.1-0.6,0-0.8-0.101C1.4,24.5,1.2,24.2,1.1,23.9c0-0.301,0-0.601,0-0.9c0-0.2,0-0.4,0-0.6
	c0-0.2,0.1-0.4,0.2-0.601C1,21.5,1.1,21.2,1.1,21s0-0.5,0-0.9C1.2,19.9,1.3,19.7,1.3,19.6c0-0.199,0-0.399,0-0.6
	c0-0.7,0-1.3-0.1-1.9c-0.1-0.6-0.2-1-0.2-1.2H0.9c-0.1-0.2-0.2-0.4-0.2-0.6c0-0.2,0-0.4,0-0.5v-0.5c0.1-0.1,0.2-0.2,0.2-0.2
	C0.9,14,1.1,14,1.3,14c0.1,0,0.3-0.1,0.6-0.1c0.4,0,0.7-0.1,1.2-0.1s0.9,0,1.4,0c0.4,0,0.7,0,1,0c0.1-0.3,0.2-0.5,0.3-0.8
	c0.1-0.3,0.3-0.4,0.6-0.5c0.2-0.1,0.9-0.1,2-0.1s2.3,0,3.6-0.1c1.3-0.1,2.6-0.1,3.8-0.1c-0.2,0,0.5,0,2.2,0h0.2
	c0.1,0.2,0.2,0.4,0.4,0.5c0.1,0.2,0.2,0.4,0.3,0.5c0.1,0.2,0.2,0.3,0.3,0.3c0.2,0,0.4,0,0.6,0c0.2,0,0.4-0.1,0.5-0.2
	c0.3-0.1,0.7-0.4,1.4-0.7c0.6-0.4,1.1-0.6,1.3-0.8c0.3-0.2,0.6-0.4,0.8-0.5c0.2-0.2,0.5-0.2,0.9-0.2c0.4,0,0.9,0,1.6,0
	c0.7,0,1.3,0,1.7-0.1c0-0.1,0.1-0.1,0.1-0.1c0-0.1,0.1-0.2,0.2-0.2c0.1-0.1,0.1-0.2,0.2-0.3l0.8-0.5l0.6-0.1C30,9.9,30.1,10,30.2,10
	c0.3,0.1,0.5,0.1,0.5,0.1l0.6,0.1l0.5,0.6V11l-0.2,0.2h0.3v-0.6l-0.3-0.2c-0.1-0.1-0.1-0.2-0.1-0.3l-0.3-0.6L31,8.8V8.5
	c-0.5,0.1-0.9,0.2-1.5,0.2s-1.1,0.1-1.4,0.2c-0.2,0-0.6,0-1.3,0c-0.7,0-1.4,0-2.1,0c-0.8,0-1.4,0-2,0c-0.6,0-1-0.1-1.1-0.1
	s-0.1,0-0.2,0.1c-0.1,0-0.2,0-0.3,0c-0.2,0-0.3,0-0.4,0l-2.2-0.1V8.5c0,0,0-0.2-0.1-0.4c0-0.3-0.1-0.6-0.1-1c0-0.3,0-0.7-0.1-1
	c0-0.4,0-0.7,0.1-0.9c0-0.2,0.1-0.3,0.1-0.5c0-0.1,0.1-0.2,0.1-0.3s0-0.2,0-0.2l0.2-0.1h1.8c0.1,0,0.4,0,0.9,0c0.4,0,0.9,0,1.6,0.1
	c0.7,0,1.4,0,2.2,0c0.8,0,1.5,0,2.2,0.1c0.7,0,1.3,0,1.8,0s0.9,0,1.2,0l0.9,0.1c0.3,0.1,0.6,0.1,0.8,0.2c0.2,0,0.4,0,0.6,0
	c0.2,0,0.6-0.1,1.2-0.1s1.3-0.1,2-0.1c0.7,0,1.3,0,1.8,0s0.8,0,0.9,0c0.2,0,0.4,0,0.5-0.1c0.1,0,0.2,0,0.3,0l0.1-0.2
	c0-0.2,0.2-0.3,0.5-0.4c0.5-0.2,1-0.2,1.5,0h0.1c0.2,0,0.4,0,0.5,0.1c0.1,0.1,0.2,0.2,0.3,0.3s0.3,0.2,0.5,0.2l0.3,0.1
	c0.5,0,1.1,0,2,0.1c0.9,0.1,1.7,0,2.299-0.1c0.4-0.1,0.9-0.1,1.701-0.2C49.9,4.1,50.6,4.1,51.3,4c0.8,0,1.5,0,2.1,0
	c0.7,0,1.1,0,1.4,0.1H55C55.3,4.2,55.5,4.3,55.6,4.4s0.3,0.5,0.3,1.1c0.1,0.6,0,1.2-0.199,1.7C55.5,8,55.3,8.3,55,8.5
	c-0.1,0.1-0.5,0.1-1.1,0.1s-1.3,0-2,0c-0.699,0-1.4,0-2.1-0.1c-0.7,0-1.2-0.1-1.5-0.2C48,8.2,47.701,8.2,47.5,8.2
	c-0.199,0-0.399,0-0.6,0.1h-1.4c0,0.2-0.2,0.5-0.5,0.9h-0.2c-0.8,0.4-1.4,0.7-1.7,0.9c-0.3,0.1-0.4,0.3-0.4,0.4
	c-0.1,0-0.1,0.1-0.2,0.2c0,0.2-0.1,0.3-0.2,0.5h20.901c0,0,0.199,0,0.5,0c0.299,0,0.6-0.1,0.899-0.1S65.201,11,65.5,11
	c0.301-0.1,0.5-0.1,0.601-0.1c0.3,0,0.601,0,0.899,0c0.301-0.1,0.5-0.1,0.601-0.1l0.3-0.3c0.1,0,0.2-0.1,0.2-0.1H69.5
	c0.101,0.1,0.201,0.2,0.201,0.3C69.9,11,70,11.1,70.1,11.2h7.601C77.6,10.9,77.5,10.7,77.5,10.4c-0.1-0.3-0.1-0.5-0.1-0.7
	c0-0.2,0-0.3,0-0.3L77.8,9c0.199-0.3,0.4-0.4,0.6-0.5c0.2-0.1,0.301-0.2,0.5-0.2l0.801,0.2L80,9.4l0.301,1.7v1
	c0.1,0,0.199,0.1,0.3,0.2c0,0.1,0,0.2,0,0.3L80.5,12.8H80.6c0.2,0,0.3,0,0.3,0l0.1-0.1H81.8l0.1,0.1c0.1,0,0.1,0,0.2,0h10.7
	L92.701,12.9z M33.8,19.7c-0.1,0.1-0.1,0.2-0.2,0.3l0.5,0.5c0.2,0.1,0.3,0.2,0.5,0.3c0.1,0,0.2,0.101,0.3,0.101
	c0.3,0,0.5,0.1,0.8,0.1c0.2,0,0.4,0,0.5,0c0.1,0,0.4,0,0.7,0c0.3,0,0.5,0,0.6-0.1c0.2,0,0.3-0.101,0.3-0.2c0-0.101,0.1-0.2,0.2-0.4
	c0.2-0.6,0.3-0.899,0.3-0.899V19.3c0,0-0.1-0.1-0.2-0.1s-0.2,0-0.4,0.1c-0.2,0.101-0.4,0.2-0.6,0.2h-1c-0.2,0-0.5,0-1,0.1
	C34.6,19.7,34.2,19.7,34,19.8C34.1,19.6,34,19.6,33.8,19.7z"/>
<g>
	<defs>
		<path id="SVGID_1_" d="M92.701,12.9c0,0.4,0.1,0.8,0.199,1.2c0,0.5-0.1,0.8-0.5,0.9c-0.199,0-0.5,0.1-0.9,0.1
			c-0.399,0-0.899,0-1.399,0s-1,0-1.5,0S87.701,15,87.4,15l-0.3-0.1h-5.3c0,0-0.1,0.1-0.2,0.2c0,0.1-0.101,0.1-0.101,0.1L80.8,15.4
			l-0.4-0.2h-0.8l-0.2,0.2c-0.1,0.1-0.1,0.2-0.1,0.3v0.2L79,16.5H78.3v1.3L78,17.9C77.9,17.9,77.8,18,77.6,18
			c-0.3,0-0.5,0-0.601-0.1L76,17.8H73.1V18h-0.3c-0.7,0-1.1,0-1.2-0.1c-0.101,0-0.2-0.101-0.3-0.101c0-0.1,0-0.2,0-0.2
			s-0.1,0-0.1-0.1h0.1v-0.2H58.9c-0.4,0-0.8,0.101-1.199,0.2c-0.5,0-0.9,0.1-1.301,0.1c-0.5,0-0.8,0.101-1.1,0.101
			c-0.301,0.1-0.4,0.1-0.5,0.1c-0.2,0.101-0.4,0.101-0.6,0C54.1,17.8,54.1,17.7,54,17.7L53.8,17.6v-0.3h-5
			c0.1,0.9,0.1,1.8,0.199,2.9c0.101,1,0.201,2,0.301,2.899c0.1,0.9,0.199,1.7,0.199,2.4c0.101,0.6,0.101,1,0.101,1.2
			c0,0-0.101,0.2-0.2,0.3s-0.5,0.2-1.199,0.3C47.4,27.4,46.7,27.6,46,27.8c-0.8,0.101-1.4,0.2-1.9,0.3c-0.5,0.101-0.8,0.101-1,0.2
			c-0.2,0-0.4,0-0.5,0s-0.1-0.1-0.2-0.1c0,0,0-0.101,0-0.2s0-0.4-0.1-1c0-0.6-0.1-1.4-0.3-2.4C41.9,23.4,41.8,21.9,41.6,19.9H41
			l-0.4,0.6h-0.3l0.3-0.6h-0.8V20.1c-0.2,0.7-0.4,1.2-0.6,1.7c-0.2,0.5-0.5,0.8-0.8,1c-0.5,0.2-1.1,0.3-1.9,0.4
			c-0.9,0-1.5,0-1.8-0.2l-0.5-0.3c-0.2-0.101-0.4-0.2-0.6-0.3c-0.2-0.101-0.3-0.2-0.4-0.2L33,22.4c-0.1,0.1-0.2,0.3-0.3,0.6
			c-0.1,0.3-0.3,0.6-0.5,0.9c-0.4,0.899-0.7,1.6-0.9,2.1c-0.3,0.5-0.5,0.9-0.6,1.2c-0.2,0.3-0.3,0.5-0.4,0.5
			c-0.1,0.1-0.2,0.1-0.3,0.1c-0.2,0-0.7-0.3-1.5-0.8s-1.6-1.1-2.3-1.7l-0.3-0.2L26,24.9c0,0,0.1-0.2,0.3-0.5
			c0.1-0.301,0.3-0.601,0.5-0.9c0.2-0.3,0.4-0.6,0.5-0.9c0.2-0.3,0.4-0.5,0.6-0.699l0.1-0.2c0.2-0.2,0.5-0.5,0.7-0.8
			c0.3-0.301,0.5-0.601,0.6-1c0.1-0.5,0-0.9-0.1-1.2c-0.2-0.3-0.5-0.5-0.7-0.5h-5.8c0,0-0.1,0-0.2,0s-0.2,0.1-0.4,0.1
			c-0.2,0-0.4,0.101-0.6,0.2c-0.1,0.1-0.7,0.2-1.5,0.5c-0.9,0.3-1.9,0.7-3.1,1.1c-1.1,0.5-2.4,0.9-3.7,1.4c-1.3,0.5-2.5,0.9-3.6,1.3
			c-1.1,0.4-2,0.7-2.7,1c-0.7,0.3-1.1,0.5-1.2,0.5C5.4,24.4,5.1,24.4,4.8,24.5c-0.4,0-0.8,0.1-1.2,0.1C3.2,24.7,2.8,24.7,2.5,24.7
			c-0.3,0.1-0.6,0-0.8-0.101C1.4,24.5,1.2,24.2,1.1,23.9c0-0.301,0-0.601,0-0.9c0-0.2,0-0.4,0-0.6c0-0.2,0.1-0.4,0.2-0.601
			C1,21.5,1.1,21.2,1.1,21s0-0.5,0-0.9C1.2,19.9,1.3,19.7,1.3,19.6c0-0.199,0-0.399,0-0.6c0-0.7,0-1.3-0.1-1.9
			c-0.1-0.6-0.2-1-0.2-1.2H0.9c-0.1-0.2-0.2-0.4-0.2-0.6c0-0.2,0-0.4,0-0.5v-0.5c0.1-0.1,0.2-0.2,0.2-0.2C0.9,14,1.1,14,1.3,14
			c0.1,0,0.3-0.1,0.6-0.1c0.4,0,0.7-0.1,1.2-0.1s0.9,0,1.4,0c0.4,0,0.7,0,1,0c0.1-0.3,0.2-0.5,0.3-0.8c0.1-0.3,0.3-0.4,0.6-0.5
			c0.2-0.1,0.9-0.1,2-0.1s2.3,0,3.6-0.1c1.3-0.1,2.6-0.1,3.8-0.1c-0.2,0,0.5,0,2.2,0h0.2c0.1,0.2,0.2,0.4,0.4,0.5
			c0.1,0.2,0.2,0.4,0.3,0.5c0.1,0.2,0.2,0.3,0.3,0.3c0.2,0,0.4,0,0.6,0c0.2,0,0.4-0.1,0.5-0.2c0.3-0.1,0.7-0.4,1.4-0.7
			c0.6-0.4,1.1-0.6,1.3-0.8c0.3-0.2,0.6-0.4,0.8-0.5c0.2-0.2,0.5-0.2,0.9-0.2c0.4,0,0.9,0,1.6,0c0.7,0,1.3,0,1.7-0.1
			c0-0.1,0.1-0.1,0.1-0.1c0-0.1,0.1-0.2,0.2-0.2c0.1-0.1,0.1-0.2,0.2-0.3l0.8-0.5l0.6-0.1C30,9.9,30.1,10,30.2,10
			c0.3,0.1,0.5,0.1,0.5,0.1l0.6,0.1l0.5,0.6V11l-0.2,0.2h0.3v-0.6l-0.3-0.2c-0.1-0.1-0.1-0.2-0.1-0.3l-0.3-0.6L31,8.8V8.5
			c-0.5,0.1-0.9,0.2-1.5,0.2s-1.1,0.1-1.4,0.2c-0.2,0-0.6,0-1.3,0c-0.7,0-1.4,0-2.1,0c-0.8,0-1.4,0-2,0c-0.6,0-1-0.1-1.1-0.1
			s-0.1,0-0.2,0.1c-0.1,0-0.2,0-0.3,0c-0.2,0-0.3,0-0.4,0l-2.2-0.1V8.5c0,0,0-0.2-0.1-0.4c0-0.3-0.1-0.6-0.1-1c0-0.3,0-0.7-0.1-1
			c0-0.4,0-0.7,0.1-0.9c0-0.2,0.1-0.3,0.1-0.5c0-0.1,0.1-0.2,0.1-0.3s0-0.2,0-0.2l0.2-0.1h1.8c0.1,0,0.4,0,0.9,0
			c0.4,0,0.9,0,1.6,0.1c0.7,0,1.4,0,2.2,0c0.8,0,1.5,0,2.2,0.1c0.7,0,1.3,0,1.8,0s0.9,0,1.2,0l0.9,0.1c0.3,0.1,0.6,0.1,0.8,0.2
			c0.2,0,0.4,0,0.6,0c0.2,0,0.6-0.1,1.2-0.1s1.3-0.1,2-0.1c0.7,0,1.3,0,1.8,0s0.8,0,0.9,0c0.2,0,0.4,0,0.5-0.1c0.1,0,0.2,0,0.3,0
			l0.1-0.2c0-0.2,0.2-0.3,0.5-0.4c0.5-0.2,1-0.2,1.5,0h0.1c0.2,0,0.4,0,0.5,0.1c0.1,0.1,0.2,0.2,0.3,0.3s0.3,0.2,0.5,0.2l0.3,0.1
			c0.5,0,1.1,0,2,0.1c0.9,0.1,1.7,0,2.299-0.1c0.4-0.1,0.9-0.1,1.701-0.2C49.9,4.1,50.6,4.1,51.3,4c0.8,0,1.5,0,2.1,0
			c0.7,0,1.1,0,1.4,0.1H55C55.3,4.2,55.5,4.3,55.6,4.4s0.3,0.5,0.3,1.1c0.1,0.6,0,1.2-0.199,1.7C55.5,8,55.3,8.3,55,8.5
			c-0.1,0.1-0.5,0.1-1.1,0.1s-1.3,0-2,0c-0.699,0-1.4,0-2.1-0.1c-0.7,0-1.2-0.1-1.5-0.2C48,8.2,47.701,8.2,47.5,8.2
			c-0.199,0-0.399,0-0.6,0.1h-1.4c0,0.2-0.2,0.5-0.5,0.9h-0.2c-0.8,0.4-1.4,0.7-1.7,0.9c-0.3,0.1-0.4,0.3-0.4,0.4
			c-0.1,0-0.1,0.1-0.2,0.2c0,0.2-0.1,0.3-0.2,0.5h20.901c0,0,0.199,0,0.5,0c0.299,0,0.6-0.1,0.899-0.1S65.201,11,65.5,11
			c0.301-0.1,0.5-0.1,0.601-0.1c0.3,0,0.601,0,0.899,0c0.301-0.1,0.5-0.1,0.601-0.1l0.3-0.3c0.1,0,0.2-0.1,0.2-0.1H69.5
			c0.101,0.1,0.201,0.2,0.201,0.3C69.9,11,70,11.1,70.1,11.2h7.601C77.6,10.9,77.5,10.7,77.5,10.4c-0.1-0.3-0.1-0.5-0.1-0.7
			c0-0.2,0-0.3,0-0.3L77.8,9c0.199-0.3,0.4-0.4,0.6-0.5c0.2-0.1,0.301-0.2,0.5-0.2l0.801,0.2L80,9.4l0.301,1.7v1
			c0.1,0,0.199,0.1,0.3,0.2c0,0.1,0,0.2,0,0.3L80.5,12.8H80.6c0.2,0,0.3,0,0.3,0l0.1-0.1H81.8l0.1,0.1c0.1,0,0.1,0,0.2,0h10.7
			L92.701,12.9z M33.8,19.7c-0.1,0.1-0.1,0.2-0.2,0.3l0.5,0.5c0.2,0.1,0.3,0.2,0.5,0.3c0.1,0,0.2,0.101,0.3,0.101
			c0.3,0,0.5,0.1,0.8,0.1c0.2,0,0.4,0,0.5,0c0.1,0,0.4,0,0.7,0c0.3,0,0.5,0,0.6-0.1c0.2,0,0.3-0.101,0.3-0.2
			c0-0.101,0.1-0.2,0.2-0.4c0.2-0.6,0.3-0.899,0.3-0.899V19.3c0,0-0.1-0.1-0.2-0.1s-0.2,0-0.4,0.1c-0.2,0.101-0.4,0.2-0.6,0.2h-1
			c-0.2,0-0.5,0-1,0.1C34.6,19.7,34.2,19.7,34,19.8C34.1,19.6,34,19.6,33.8,19.7z"/>
	</defs>
	<clipPath id="SVGID_2_">
		<use xlink:href="#SVGID_1_"  overflow="visible"/>
	</clipPath>
	<path clip-path="url(#SVGID_2_)" fill="#1A5AC1" d="M2.892,12.607l13.571-3.088l6.813,0.651l9.695-4.598l7.589,0.333l2.603,2.548
		l3.159,5.489l1.162,2.211c0,0,1.33-4.044,3.104-3.49c1.773,0.554,0.334,3.236,0.334,3.236l5.172,7.796l2.672,0.313
		c0,0-0.756,1.838-1.975,2.834c-1.217,1-2.336,1.607-2.719,1.664c-0.383,0.055-2.93-0.389-3.098-0.445
		c-0.166-0.053-3.102-3.1-3.102-3.1l-4.598-1.885l-2.161,0.305l-15.455-4.293c0,0-6.149,4.043-6.703,2.326
		c-0.062-0.189-4.764,4.932-5.096,5.152c-0.333,0.221-5.429,1.107-5.429,1.107l-4.1-1.828L2.892,12.607z"/>
	
		<path clip-path="url(#SVGID_2_)" fill="none" stroke="#FFFFFF" stroke-width="0.75" stroke-linecap="round" stroke-linejoin="round" stroke-miterlimit="10" d="
		M67.637,17.815c0,0,2.005-4.971,5.511-4.889c2.672,0.063,4.416,2.208,4.832,4.708c0,0,0.676-4.214,2.92-3.697
		c1.162,0.268,1.905,2.866,1.905,2.866s0.751-3.554,4.438-1.054c0,0-2.938-3.875-5.576-4.407c-1.4-0.282-4.049,1.125-3.895,5"/>
	<linearGradient id="SVGID_3_" gradientUnits="userSpaceOnUse" x1="10.9082" y1="17.8818" x2="50.1724" y2="17.8818">
		<stop  offset="0" style="stop-color:#A9D0FF"/>
		<stop  offset="0.1986" style="stop-color:#A7CBFF"/>
		<stop  offset="0.4411" style="stop-color:#A1BCFF"/>
		<stop  offset="0.7063" style="stop-color:#97A3FF"/>
		<stop  offset="0.9861" style="stop-color:#8981FF"/>
		<stop  offset="1" style="stop-color:#887FFF"/>
	</linearGradient>
	<path clip-path="url(#SVGID_2_)" fill="url(#SVGID_3_)" d="M12.207,19.508c0,0-0.053,1.955,1.113,3.201
		c1.168,1.246,2.425-0.666,2.425-0.666l3.803-2.52c0,0,2.663-0.389,3.022-0.055c0.359,0.33,5.863-0.749,5.863-0.749
		s-0.744,0.831-0.025,2.325c0.718,1.498,3.772,1.414,5.029,0.834c1.256-0.584,1.796-2.162,4.311-0.916
		c2.515,1.246,5.568,2.908,5.568,2.908s1.964,0.07,2.142-0.676c0.181-0.748,1.211,0.811,2.379,0.063
		c1.167-0.748,1.832-2.338,2.281-3c0.448-0.666-2.006-4.978-2.006-4.978s1.461,3.134,0.513,1.441
		c-1.222-2.186-4.656-5.586-7.345-0.796c-1.801,3.209-4.599-2.206-4.599-2.206s-1.845,4.08-4,3c-2.154-1.081-3.286-1.82-5.171-1.903
		c-1.886-0.083-4.58-0.499-5.299,0.083c-0.719,0.581-1.208-2.528-2.017-2.954s-8.985,1.702-9.254,3.031S12.207,19.508,12.207,19.508
		z"/>
	
		<path clip-path="url(#SVGID_2_)" fill="none" stroke="#FFFFFF" stroke-linecap="round" stroke-linejoin="round" stroke-miterlimit="10" d="
		M39.401,20.45c0,0,1.521-0.619,2.25-5.031c0.369-2.236,1.684-6.98,4.563-6.906c2.832,0.073,3.717,4.909,3.936,7.862
		c0,0,1.969-3.875,5.469-3.5c1.264,0.135,3.622,1.925,5.282,3.981c0,0-0.875-3.5-2.25-5.875c-0.508-0.879-0.75-2.005-3.709-2.023
		c-1.787-0.011-4.025,2.617-5.057,6.804"/>
	<path clip-path="url(#SVGID_2_)" fill="#A2CAFF" d="M50.759,16.269c1.238,0.872,0.438,5.659,0.438,5.659s1.33,2.762-1.098,4.1
		c-4.875,2.688-8.283-4.742-8.283-4.742s3.563,2.564,5.346,0.617C48.888,20.02,49.027,15.047,50.759,16.269z"/>
	<path clip-path="url(#SVGID_2_)" fill="#AFCDFF" d="M18.083,6.293c0,0-3.482,2.228-5.324,1.195C10.917,6.457,6.841,5.06,6.841,5.06
		s-4.178,6.124-4.277,6.336c-0.101,0.216,3.511,6.892,3.511,6.892l7.25-1.467L18.083,6.293z"/>
	<path clip-path="url(#SVGID_2_)" fill="#E9EDFF" d="M14.749,15.831c0,0-3.729-1.508-6.544-1.707
		c-2.813-0.198-7.976-1.759-7.976-1.759s-1.604,9.219-1.604,9.514c0,0.301,8.146,6.004,8.146,6.004l7.956-5.536L14.749,15.831z"/>
	<linearGradient id="SVGID_4_" gradientUnits="userSpaceOnUse" x1="55.8403" y1="18" x2="55.8403" y2="13.1606">
		<stop  offset="0" style="stop-color:#158CFF"/>
		<stop  offset="0.6989" style="stop-color:#FFFFFF"/>
	</linearGradient>
	<path clip-path="url(#SVGID_2_)" fill="url(#SVGID_4_)" d="M50.281,17.293c0,0,1.686-4.44,5.023-4.116
		C57.781,13.418,61.4,18,61.4,18L50.281,17.293z"/>
	<path clip-path="url(#SVGID_2_)" fill="#FFFFFF" d="M31.708,19.174c0,0,1.511-4.548-0.5-3.916
		c-1.364,0.429-2.243,3.818-2.243,3.818s-5.224,7.859-5.193,8.023c0.031,0.162,6.61,2.119,6.61,2.119l4.159-7.211L31.708,19.174z"/>
	<path clip-path="url(#SVGID_2_)" fill="#A4BAFF" d="M13.865,13.411c0.333,0.332,5.448-1.716,5.448-1.716s-0.711,1.798-0.046,3.294
		c0.664,1.495,3.49,1.412,4.653,0.831c1.164-0.582,0.626-0.635,2.953,0.611c0.888,0.477,1.907-2.206,3.734-0.031
		c1.92,2.287,2.454,1.414,2.454,1.414s2.941-0.684,3.107-1.431c0.167-0.749-0.68-1.035,0.4-1.783
		c1.081-0.748,0.192-1.978-0.066-2.718c-1.432-4.099-2.125-5.844-2.125-5.844s4.806,0.61,2.562-0.885
		c-2.243-1.496-3.05-4.406-5.708-0.75c-2.659,3.656-3.975,3.88-3.975,3.88s-1.286,1.708-3.817,1.12
		C21.229,8.89,20.18,8.84,18.435,8.757s-4.238-0.499-4.903,0.083c-0.665,0.582-2.908,1.517-3.656,1.091
		c-0.748-0.426,2.185,0.726,1.936,2.056C11.563,13.316,13.532,13.078,13.865,13.411z"/>
	<path clip-path="url(#SVGID_2_)" fill="#E9EDFF" d="M36.42,9.966c0,0-0.354-7.055,6.354-6.588
		c2.373,0.165-25.531-1.003-25.531-1.003s1.068,6.647,1.068,6.998c0,0.178,4.738-1.017,6.99,0.596
		C27.553,11.581,27.318,16,27.318,16s2.58-6.447,4.5-8.148c0.514-0.456,1.914-0.768,2.579-0.436
		C34.975,7.704,36.42,9.966,36.42,9.966z"/>
	<path clip-path="url(#SVGID_2_)" fill="#FFFFFF" d="M3.104,13.549c0,0-2.388,0.993-2.173,2.45c0.214,1.457,1.141,3.942,1.64,3.084
		c0.5-0.856,1.365-3.518,1.867-4.368c0.457-0.773,1.582-3.125,4.087-1.721c0.803,0.45,2.319,1.805,2.319,1.805
		s1.783-4.885,6.847-4.885c0,0-4.853,2.466-5.732,5.302c-1.429,4.608,4.212,6.549,4.212,6.549l3.934-2.799l-3.646,3.645
		l-8.187,2.063c0,0,2.521-2.416,2.354-4.916c-0.134-2.014-0.74-3.443-0.74-3.443s-1.882-3.583-3.948-1.183
		c-1.52,1.766-2.297,5.237-2.297,5.237l1.498,1.715l1.854,0.17l0.713,2.914c0,0-0.499,1.201-2.425-0.428
		c-1.925-1.629-2.211-2.314-2.211-2.314s-1.498,0.941-0.642,3.686c0.855,2.742-1.461,3.17-1.515,2.912
		c-0.054-0.256-1.515-4.883,0-6.598c1.515-1.713-0.411-1.713-1.552-5.569c-1.141-3.856-0.57-6.771,1.213-5.399
		C2.357,12.829,3.104,13.549,3.104,13.549z"/>
	<path clip-path="url(#SVGID_2_)" fill="#84B5FF" d="M67.283,18.422c0,0,3.075-5.736,6.448-5.445
		c3.371,0.291,5.351,6.483,5.351,6.483L67.283,18.422z"/>
	<path clip-path="url(#SVGID_2_)" fill="#B3B3FF" d="M28.462,15.021c0,0,5.872-1.231,7.741-0.71c1.87,0.521,0.734-1.615,0.203-2.833
		c-1.048-2.405-0.706-4.081-3.055-3.705C31.875,8.008,29.165,12.245,28.462,15.021z"/>
	<path clip-path="url(#SVGID_2_)" fill="#FFFFFF" d="M23.917,8.237c-2.146,0.604-1.93,4.153-1.333,5.229
		c1.813,3.271,4.206,2.351,4.583,1.833c0.928-1.27,0.114-0.29,1.812-2.979c1.079-1.708,2.428-5.564,4.866-5.206
		c1.615,0.237,2.912,2.852,3.425,5.953c0.87,5.254,3.105,5.752,5.011,6.502c0.983,0.387-1.375,0.906-1.375,0.906
		s-3.801-1.18-4.49-6.698c-0.375-3.007-1.567-5.501-3.073-5.521c-2.375-0.031-4.881,6.763-4.881,6.763s-0.451,1.851-3.004,1.425
		c-5.375-0.896-3.917-7.167-3.917-7.167l2.521-1.417L23.917,8.237z"/>
	<path clip-path="url(#SVGID_2_)" fill="#FFFFFF" d="M40.563,18.361c0.235-1.646,1.156-4.525,3.646-5.04
		c1.947-0.402,3.272,1.832,3.272,1.832s-0.033-0.733,0.229-1.5c0.301-0.888,0.904-1.777,0.895-0.915
		c-0.02,2.061,1.326,8.201-0.51,9.832c-3.479,3.088-7.26-2.75-7.26-2.75s3.385,1.641,5.083,0.584
		c1.603-0.998,1.771-3.917,1.771-3.917s-2.27-4.027-4.791-1.625c-1.62,1.541-2.25,4.958-2.25,4.958L40.563,18.361z"/>
	<path clip-path="url(#SVGID_2_)" fill="#FFFFFF" d="M50.926,22.572c-0.649,2.161-1.874,4.021-3.058,4.505
		c-0.446,0.182-1.4,0.53-2.799-0.041c-1.328-0.541-2.394-2.104-2.394-2.104s0.029-0.098-1.032-1.459
		c-0.756-0.971,0.478-0.389,0.478-0.389s2.404,4.664,5.74,2.942c2.14-1.104,2.581-5.1,2.581-5.1L50.926,22.572z"/>
	<path clip-path="url(#SVGID_2_)" fill="#A089F4" d="M32.125,8.633"/>
	
		<linearGradient id="SVGID_5_" gradientUnits="userSpaceOnUse" x1="90.2808" y1="16.3413" x2="90.2808" y2="12.9663" gradientTransform="matrix(0.997 -0.0776 0.0776 0.997 -0.4113 6.0107)">
		<stop  offset="0" style="stop-color:#158CFF"/>
		<stop  offset="0.6989" style="stop-color:#FFFFFF"/>
	</linearGradient>
	<path clip-path="url(#SVGID_2_)" fill="url(#SVGID_5_)" d="M87.6,14.982c0,0,0.943-3.042,2.797-3.026
		c1.855,0.015,3.691,3.091,3.691,3.091L87.6,14.982z"/>
	<path clip-path="url(#SVGID_2_)" fill="#FFFFFF" d="M62.355,9.154c1.117-2.017,3.266-3.999,4.314-4.05
		c0.494-0.022,2.676-0.164,3.68,0.714c1.115,0.976,1.27,2.466,1.27,2.466s-0.049,0.091,0.725,1.692
		c0.555,1.14-1.309-0.502-1.309-0.502s-0.451-3.919-4.18-2.945c-2.393,0.624-4.668,4.375-4.668,4.375L62.355,9.154z"/>
</g>
</svg>
