<?xml version="1.0" encoding="utf-8"?>
<!-- Generator: Adobe Illustrator 16.0.0, SVG Export Plug-In . SVG Version: 6.00 Build 0)  -->
<!DOCTYPE svg PUBLIC "-//W3C//DTD SVG 1.0//EN" "http://www.w3.org/TR/2001/REC-SVG-20010904/DTD/svg10.dtd">
<svg version="1.0" id="图层_1" xmlns="http://www.w3.org/2000/svg" xmlns:xlink="http://www.w3.org/1999/xlink" x="0px" y="0px"
	 width="93.3px" height="32px" viewBox="0 0 93.3 32" enable-background="new 0 0 93.3 32" xml:space="preserve">
<g id="Selected_Items">
	<g>
		<g id="Selected_Items_10_">
			
				<linearGradient id="SVGID_1_" gradientUnits="userSpaceOnUse" x1="375.6597" y1="-262.5244" x2="467.8599" y2="-262.5244" gradientTransform="matrix(1 0 0 -1 -374.96 -246.5996)">
				<stop  offset="0" style="stop-color:#8F00DB"/>
				<stop  offset="0.6452" style="stop-color:#77B9FF"/>
				<stop  offset="1" style="stop-color:#B6CAFF"/>
			</linearGradient>
			<path fill="url(#SVGID_1_)" d="M92.701,12.9c0,0.4,0.1,0.8,0.199,1.2c0,0.5-0.1,0.8-0.5,0.9c-0.199,0-0.5,0.1-0.9,0.1
				c-0.399,0-0.899,0-1.399,0s-1,0-1.5,0S87.701,15,87.4,15l-0.3-0.1h-5.3c0,0-0.1,0.1-0.2,0.2c0,0.1-0.101,0.1-0.101,0.1L80.8,15.4
				l-0.4-0.2h-0.8l-0.2,0.2c-0.1,0.1-0.1,0.2-0.1,0.3v0.2L79,16.5H78.3v1.3L78,17.9C77.9,17.9,77.8,18,77.6,18
				c-0.3,0-0.5,0-0.601-0.1L76,17.8H73.1V18h-0.3c-0.7,0-1.1,0-1.2-0.1c-0.101,0-0.2-0.101-0.3-0.101c0-0.1,0-0.2,0-0.2
				s-0.1,0-0.1-0.1h0.1v-0.2H58.9c-0.4,0-0.8,0.101-1.199,0.2c-0.5,0-0.9,0.1-1.301,0.1c-0.5,0-0.8,0.101-1.1,0.101
				c-0.301,0.1-0.4,0.1-0.5,0.1c-0.2,0.101-0.4,0.101-0.6,0C54.1,17.8,54.1,17.7,54,17.7L53.8,17.6v-0.3h-5
				c0.1,0.9,0.1,1.8,0.199,2.9c0.101,1,0.201,2,0.301,2.899c0.1,0.9,0.199,1.7,0.199,2.4c0.101,0.6,0.101,1,0.101,1.2
				c0,0-0.101,0.2-0.2,0.3s-0.5,0.2-1.199,0.3C47.4,27.4,46.7,27.6,46,27.8c-0.8,0.101-1.4,0.2-1.9,0.3c-0.5,0.101-0.8,0.101-1,0.2
				c-0.2,0-0.4,0-0.5,0s-0.1-0.1-0.2-0.1c0,0,0-0.101,0-0.2s0-0.4-0.1-1c0-0.6-0.1-1.4-0.3-2.4C41.9,23.4,41.8,21.9,41.6,19.9H41
				l-0.4,0.6h-0.3l0.3-0.6h-0.8V20.1c-0.2,0.7-0.4,1.2-0.6,1.7c-0.2,0.5-0.5,0.8-0.8,1c-0.5,0.2-1.1,0.3-1.9,0.4
				c-0.9,0-1.5,0-1.8-0.2l-0.5-0.3c-0.2-0.101-0.4-0.2-0.6-0.3c-0.2-0.101-0.3-0.2-0.4-0.2L33,22.4c-0.1,0.1-0.2,0.3-0.3,0.6
				c-0.1,0.3-0.3,0.6-0.5,0.9c-0.4,0.899-0.7,1.6-0.9,2.1c-0.3,0.5-0.5,0.9-0.6,1.2c-0.2,0.3-0.3,0.5-0.4,0.5
				c-0.1,0.1-0.2,0.1-0.3,0.1c-0.2,0-0.7-0.3-1.5-0.8s-1.6-1.1-2.3-1.7l-0.3-0.2L26,24.9c0,0,0.1-0.2,0.3-0.5
				c0.1-0.301,0.3-0.601,0.5-0.9c0.2-0.3,0.4-0.6,0.5-0.9c0.2-0.3,0.4-0.5,0.6-0.699l0.1-0.2c0.2-0.2,0.5-0.5,0.7-0.8
				c0.3-0.301,0.5-0.601,0.6-1c0.1-0.5,0-0.9-0.1-1.2c-0.2-0.3-0.5-0.5-0.7-0.5h-5.8c0,0-0.1,0-0.2,0s-0.2,0.1-0.4,0.1
				c-0.2,0-0.4,0.101-0.6,0.2c-0.1,0.1-0.7,0.2-1.5,0.5c-0.9,0.3-1.9,0.7-3.1,1.1c-1.1,0.5-2.4,0.9-3.7,1.4
				c-1.3,0.5-2.5,0.9-3.6,1.3c-1.1,0.4-2,0.7-2.7,1c-0.7,0.3-1.1,0.5-1.2,0.5C5.4,24.4,5.1,24.4,4.8,24.5c-0.4,0-0.8,0.1-1.2,0.1
				C3.2,24.7,2.8,24.7,2.5,24.7c-0.3,0.1-0.6,0-0.8-0.101C1.4,24.5,1.2,24.2,1.1,23.9c0-0.301,0-0.601,0-0.9c0-0.2,0-0.4,0-0.6
				c0-0.2,0.1-0.4,0.2-0.601C1,21.5,1.1,21.2,1.1,21s0-0.5,0-0.9C1.2,19.9,1.3,19.7,1.3,19.6c0-0.199,0-0.399,0-0.6
				c0-0.7,0-1.3-0.1-1.9c-0.1-0.6-0.2-1-0.2-1.2H0.9c-0.1-0.2-0.2-0.4-0.2-0.6c0-0.2,0-0.4,0-0.5v-0.5c0.1-0.1,0.2-0.2,0.2-0.2
				C0.9,14,1.1,14,1.3,14c0.1,0,0.3-0.1,0.6-0.1c0.4,0,0.7-0.1,1.2-0.1s0.9,0,1.4,0c0.4,0,0.7,0,1,0c0.1-0.3,0.2-0.5,0.3-0.8
				c0.1-0.3,0.3-0.4,0.6-0.5c0.2-0.1,0.9-0.1,2-0.1s2.3,0,3.6-0.1c1.3-0.1,2.6-0.1,3.8-0.1c-0.2,0,0.5,0,2.2,0h0.2
				c0.1,0.2,0.2,0.4,0.4,0.5c0.1,0.2,0.2,0.4,0.3,0.5c0.1,0.2,0.2,0.3,0.3,0.3c0.2,0,0.4,0,0.6,0c0.2,0,0.4-0.1,0.5-0.2
				c0.3-0.1,0.7-0.4,1.4-0.7c0.6-0.4,1.1-0.6,1.3-0.8c0.3-0.2,0.6-0.4,0.8-0.5c0.2-0.2,0.5-0.2,0.9-0.2c0.4,0,0.9,0,1.6,0
				c0.7,0,1.3,0,1.7-0.1c0-0.1,0.1-0.1,0.1-0.1c0-0.1,0.1-0.2,0.2-0.2c0.1-0.1,0.1-0.2,0.2-0.3l0.8-0.5l0.6-0.1
				C30,9.9,30.1,10,30.2,10c0.3,0.1,0.5,0.1,0.5,0.1l0.6,0.1l0.5,0.6V11l-0.2,0.2h0.3v-0.6l-0.3-0.2c-0.1-0.1-0.1-0.2-0.1-0.3
				l-0.3-0.6L31,8.8V8.5c-0.5,0.1-0.9,0.2-1.5,0.2s-1.1,0.1-1.4,0.2c-0.2,0-0.6,0-1.3,0c-0.7,0-1.4,0-2.1,0c-0.8,0-1.4,0-2,0
				c-0.6,0-1-0.1-1.1-0.1s-0.1,0-0.2,0.1c-0.1,0-0.2,0-0.3,0c-0.2,0-0.3,0-0.4,0l-2.2-0.1V8.5c0,0,0-0.2-0.1-0.4
				c0-0.3-0.1-0.6-0.1-1c0-0.3,0-0.7-0.1-1c0-0.4,0-0.7,0.1-0.9c0-0.2,0.1-0.3,0.1-0.5c0-0.1,0.1-0.2,0.1-0.3s0-0.2,0-0.2l0.2-0.1
				h1.8c0.1,0,0.4,0,0.9,0c0.4,0,0.9,0,1.6,0.1c0.7,0,1.4,0,2.2,0c0.8,0,1.5,0,2.2,0.1c0.7,0,1.3,0,1.8,0s0.9,0,1.2,0l0.9,0.1
				c0.3,0.1,0.6,0.1,0.8,0.2c0.2,0,0.4,0,0.6,0c0.2,0,0.6-0.1,1.2-0.1s1.3-0.1,2-0.1c0.7,0,1.3,0,1.8,0s0.8,0,0.9,0
				c0.2,0,0.4,0,0.5-0.1c0.1,0,0.2,0,0.3,0l0.1-0.2c0-0.2,0.2-0.3,0.5-0.4c0.5-0.2,1-0.2,1.5,0h0.1c0.2,0,0.4,0,0.5,0.1
				c0.1,0.1,0.2,0.2,0.3,0.3s0.3,0.2,0.5,0.2l0.3,0.1c0.5,0,1.1,0,2,0.1c0.9,0.1,1.7,0,2.299-0.1c0.4-0.1,0.9-0.1,1.701-0.2
				C49.9,4.1,50.6,4.1,51.3,4c0.8,0,1.5,0,2.1,0c0.7,0,1.1,0,1.4,0.1H55C55.3,4.2,55.5,4.3,55.6,4.4s0.3,0.5,0.3,1.1
				c0.1,0.6,0,1.2-0.199,1.7C55.5,8,55.3,8.3,55,8.5c-0.1,0.1-0.5,0.1-1.1,0.1s-1.3,0-2,0c-0.699,0-1.4,0-2.1-0.1
				c-0.7,0-1.2-0.1-1.5-0.2C48,8.2,47.701,8.2,47.5,8.2c-0.199,0-0.399,0-0.6,0.1h-1.4c0,0.2-0.2,0.5-0.5,0.9h-0.2
				c-0.8,0.4-1.4,0.7-1.7,0.9c-0.3,0.1-0.4,0.3-0.4,0.4c-0.1,0-0.1,0.1-0.2,0.2c0,0.2-0.1,0.3-0.2,0.5h20.901c0,0,0.199,0,0.5,0
				c0.299,0,0.6-0.1,0.899-0.1S65.201,11,65.5,11c0.301-0.1,0.5-0.1,0.601-0.1c0.3,0,0.601,0,0.899,0c0.301-0.1,0.5-0.1,0.601-0.1
				l0.3-0.3c0.1,0,0.2-0.1,0.2-0.1H69.5c0.101,0.1,0.201,0.2,0.201,0.3C69.9,11,70,11.1,70.1,11.2h7.601
				C77.6,10.9,77.5,10.7,77.5,10.4c-0.1-0.3-0.1-0.5-0.1-0.7c0-0.2,0-0.3,0-0.3L77.8,9c0.199-0.3,0.4-0.4,0.6-0.5
				c0.2-0.1,0.301-0.2,0.5-0.2l0.801,0.2L80,9.4l0.301,1.7v1c0.1,0,0.199,0.1,0.3,0.2c0,0.1,0,0.2,0,0.3L80.5,12.8H80.6
				c0.2,0,0.3,0,0.3,0l0.1-0.1H81.8l0.1,0.1c0.1,0,0.1,0,0.2,0h10.7L92.701,12.9z M33.8,19.7c-0.1,0.1-0.1,0.2-0.2,0.3l0.5,0.5
				c0.2,0.1,0.3,0.2,0.5,0.3c0.1,0,0.2,0.101,0.3,0.101c0.3,0,0.5,0.1,0.8,0.1c0.2,0,0.4,0,0.5,0c0.1,0,0.4,0,0.7,0
				c0.3,0,0.5,0,0.6-0.1c0.2,0,0.3-0.101,0.3-0.2c0-0.101,0.1-0.2,0.2-0.4c0.2-0.6,0.3-0.899,0.3-0.899V19.3c0,0-0.1-0.1-0.2-0.1
				s-0.2,0-0.4,0.1c-0.2,0.101-0.4,0.2-0.6,0.2h-1c-0.2,0-0.5,0-1,0.1C34.6,19.7,34.2,19.7,34,19.8C34.1,19.6,34,19.6,33.8,19.7z"/>
		</g>
	</g>
</g>
<linearGradient id="SVGID_2_" gradientUnits="userSpaceOnUse" x1="-106.4976" y1="309.4688" x2="-98.4932" y2="309.4688" gradientTransform="matrix(6.6522 0 0 -6.6522 709.7415 2072.5425)">
	<stop  offset="0" style="stop-color:#C216FF"/>
	<stop  offset="0.6452" style="stop-color:#77B9FF"/>
	<stop  offset="1" style="stop-color:#B6CAFF"/>
</linearGradient>
<path fill="url(#SVGID_2_)" fill-opacity="0.5" d="M1.3,23.2c0,0,8.8-1.101,11-3.5c0,0-5.5,1.399-9.1-0.8c0,0,5.7,1.5,10.3-1.7
	c0,0-6.3,1.7-9.3-1.4c0,0,2,1.4,6.5,0.7c3-0.4,7.2-1,10.9-2c6.1-1,19.3,0.4,26.3,6.3c0,0-3.083-5.716-12.583-8.05
	c0,0,15.5,0.667,19.083,3.175c0,0-5.25-5.091-18.9-6.725l-6.1-3.45l-11-1.15l0.2,4L31,8.3l1.1,2.9l-2.9-1.1L27.9,11l-3.7,0.4
	l-5.6,2.4l-0.8-1.7L6.4,12.4l-0.6,1.7l-4.3,0.6L1.3,23.2z"/>
</svg>
