<?xml version="1.0" encoding="utf-8"?>
<!-- Generator: Adobe Illustrator 16.0.0, SVG Export Plug-In . SVG Version: 6.00 Build 0)  -->
<!DOCTYPE svg PUBLIC "-//W3C//DTD SVG 1.0//EN" "http://www.w3.org/TR/2001/REC-SVG-20010904/DTD/svg10.dtd">
<svg version="1.0" id="图层_1" xmlns="http://www.w3.org/2000/svg" xmlns:xlink="http://www.w3.org/1999/xlink" x="0px" y="0px"
	 width="90.3px" height="32px" viewBox="0 0 90.3 32" enable-background="new 0 0 90.3 32" xml:space="preserve">
<linearGradient id="SVGID_1_" gradientUnits="userSpaceOnUse" x1="371.5854" y1="-263" x2="460.1606" y2="-263" gradientTransform="matrix(1 0 0 -1 -370.96 -246.5996)">
	<stop  offset="0" style="stop-color:#5782CE"/>
	<stop  offset="0.9898" style="stop-color:#5CAEFF"/>
</linearGradient>
<linearGradient id="SVGID_2_" gradientUnits="userSpaceOnUse" x1="0.2505" y1="16.4004" x2="89.5757" y2="16.4004">
	<stop  offset="0" style="stop-color:#86D4F7"/>
	<stop  offset="1" style="stop-color:#DEF6FF"/>
</linearGradient>
<path fill="url(#SVGID_1_)" stroke="url(#SVGID_2_)" stroke-width="0.75" stroke-miterlimit="10" d="M88.8,8
	c0.199,0,0.4,0.1,0.4,0.3v2.4h-3.9c-0.1,0-0.801,0-1.9,0s-2.4,0.1-3.8,0.1s-2.8,0-4.2,0c-1.3,0-2.199,0-2.6,0
	c0,0.3-0.1,0.6-0.301,0.8c-0.5,0.5-1,0.8-1.399,0.8c-0.2,0-0.5-0.1-0.8-0.4c-0.301-0.3-0.6-0.5-0.7-0.7c-0.101,0-0.2,0-0.399-0.1
	c-0.101,0-0.301-0.1-0.5-0.2H67.9c-0.1,0-0.3-0.1-0.699-0.1c-0.4,0-0.801-0.1-1.4-0.1c-0.5,0-1.1,0-1.9,0.1c-0.6,0-1.3,0-2,0.1
	c0,0.1,0,0.2-0.1,0.4c-0.1,0.2-0.1,0.3-0.1,0.4L61.4,11.9c-0.1,0-0.199,0-0.4,0c0,0.1,0,0.2,0,0.4c0,0.1,0,0.2,0,0.4
	c-0.1,0.2-0.1,0.4-0.1,0.7h-0.3c-1,0-2.101,0-3.3,0c-1.2,0-2.301,0-3.4,0c-1.1,0.1-2,0.1-2.699,0.1c-0.701,0-1.201,0-1.301,0
	s-0.3,0-0.5,0.1c-0.199,0-0.5,0-0.8,0.1c-0.3,0.1-0.601,0.1-1,0.1c-0.3,0.1-0.5,0.1-0.7,0.1h-0.1l-0.2-0.4
	c0-0.3-0.101-0.6-0.101-0.9c0-0.2-0.1-0.5-0.1-0.7c0-0.2,0-0.4,0-0.5c-0.1,0.1-0.4,0.1-0.8,0.2c-0.4,0-0.9,0.1-1.3,0.2
	c-0.4,0.1-0.9,0.2-1.3,0.3c-0.4,0-0.7,0.1-0.8,0.1c0,0.1,0,0.3,0,0.4c-0.1,0.1-0.1,0.3-0.1,0.3c0,1.3,0.2,2.7,0.6,4.3
	c0.4,1.5,0.8,2.899,1.3,4.3c0.5,1.3,0.9,2.4,1.3,3.3c0.401,0.9,0.6,1.3,0.6,1.3L46,26.4l-0.299,0.1C45.6,26.6,45.3,26.7,44.9,26.9
	C44.5,27.1,44,27.3,43.4,27.6c-0.7,0.301-1.6,0.7-2.7,1.301h-0.3c-0.4-0.5-0.9-1.5-1.3-2.801c-0.5-1.3-0.9-2.699-1.3-4.199
	c-0.4-1.4-0.8-2.801-1-4.101c-0.3-1.3-0.5-2.2-0.7-2.6c-0.2,0.1-0.5,0.3-1,0.4c-0.1,0-0.2,0-0.2,0.1c0,0,0,0-0.1,0
	c-0.1,0.2-0.3,0.3-0.6,0.3c-1.2,0.3-2.2,0.3-2.9,0c-0.7-0.3-1.1-0.5-1.4-0.7c-0.1,0.1-0.1,0.1-0.2,0.1L29,15.7
	c-0.8,1.7-1.2,3.2-1.4,4.3c-0.1,1.1-0.2,1.9-0.2,2.4V23c0,0.1,0,0.2-0.1,0.2c0,0-0.1,0-0.1,0.1c-0.4,0-1.8-0.6-4.2-1.899L22.8,21.3
	v-0.1c0.3-0.7,0.6-1.4,0.9-2.101c0.3-0.8,0.5-1.5,0.8-2.1c0.2-0.6,0.4-1.2,0.6-1.7c0.1-0.4,0.2-0.7,0.3-0.8c0-0.1,0-0.2-0.1-0.3
	c0-0.1-0.1-0.2-0.1-0.3c-0.1,0-0.2-0.1-0.3-0.3c-0.1-0.1-0.2-0.2-0.3-0.3c-0.1-0.1-0.2-0.2-0.3-0.3c-0.1-0.1-0.5-0.1-1-0.1
	c-0.6,0-1.3,0-2.1,0c-0.8,0-1.7,0.1-2.6,0.1c-0.9,0.1-1.8,0.1-2.6,0.1l-3.1,0.1c-2,0-4.9,1.8-8.9,5.3v0.9C3.8,19.6,3.6,19.9,3.3,20
	c-0.3,0.4-0.6,0.7-0.7,0.8C2.5,20.9,2.4,20.9,2.3,20.9c-0.2,0-0.4-0.101-0.6-0.4c-0.1-0.4-0.2-0.7-0.2-0.9c0-0.1,0-0.5,0-1.1
	s-0.1-1.3-0.2-2.2c-0.1-0.8-0.1-1.7-0.2-2.5C1,13,0.9,12.3,0.8,11.7C0.5,11.1,0.6,10.5,1,10c0.2-0.3,0.6-0.4,1-0.4s0.7,0,0.8,0H20
	c0.1,0,0.3,0,0.4,0s0.3,0,0.3-0.1V9.3c0.1-0.1,0.2-0.1,0.2-0.2S21,8.9,21,8.8c0.2-0.1,0.4-0.2,0.8-0.2c0.4,0,0.6-0.1,0.8-0.1
	c0.1-0.1,0.3-0.1,0.4-0.1c0.2,0,0.3,0,0.4-0.1c0.4-0.1,0.7-0.2,0.9-0.3c0.3-0.1,0.5-0.3,0.6-0.5c0.2-0.1,0.3-0.3,0.3-0.6
	c0-0.2,0.1-0.6,0.1-1.1V5.3c0-0.4,0.1-0.8,0.3-0.9c0.2-0.1,0.5-0.1,0.8-0.1H27l0.1,0.1l0.8,0.8c0,0.2,0.3,0.1,0.9-0.1h0.5
	c0.1,0.1,0.3,0.3,0.4,0.6c0.1,0.3,0.1,0.7,0.2,1c0.7-0.1,1.5-0.1,2.4-0.1c0.8,0,1.3,0,1.5,0.1c0.1,0,0.2,0,0.3,0s0.2,0.1,0.4,0.1H44
	c0-0.2,0-0.5-0.1-0.6l-0.1-0.3h1.7v0.3c0,0.1,0,0.2,0.1,0.2c0,0,0,0,0.101,0H68.6c0,0,0-0.1,0-0.3c0-0.1,0-0.3,0-0.5
	C68.5,5.5,68.5,5.3,68.5,5L69,4L70.6,3.9h0.101v2.7H70.6L70.5,6.7c0,0,0,0.1-0.1,0.1C70.6,7,71,7.3,71.5,7.7
	c0.601,0.3,1.201,0.5,2,0.5c0.301,0,0.801,0,1.5,0.1c0.701,0,1.5,0.1,2.4,0.1s1.7,0,2.6-0.1c1,0,1.801,0,2.601,0s1.5,0,2,0
	s0.8,0,0.899,0c0.101,0,0.301,0,0.701-0.1c0.299,0,0.6-0.1,1-0.2C87.6,8,88,7.9,88.3,7.9C88.5,7.8,88.701,7.8,88.8,8z M31.4,13
	c-0.2,0-0.4,0.1-0.6,0.3c-0.2,0.2-0.3,0.5-0.3,0.8c0,0.3,0.1,0.6,0.3,0.8c0.2,0.2,0.4,0.3,0.6,0.3h2.7c0.2,0,0.4-0.1,0.7-0.3
	c0.2-0.2,0.3-0.5,0.3-0.8c0-0.3-0.1-0.6-0.3-0.8c-0.2-0.2-0.4-0.3-0.7-0.3H31.4z M2.7,13c0.1,0.5,0.1,1,0.2,1.5
	C3,15.1,3,15.7,3,16.2c0.1,0.5,0.1,0.899,0.2,1.3c0.2-0.2,0.5-0.5,0.9-0.8C4.5,16.4,5,16,5.4,15.6c1-0.7,1.9-1.4,2.9-2.2
	c0.9-0.7,1.8-1.3,2.5-1.8H2.5C2.6,11.9,2.6,12.4,2.7,13z"/>
<g>
	<defs>
		<path id="SVGID_3_" d="M88.8,8c0.199,0,0.4,0.1,0.4,0.3v2.4h-3.9c-0.1,0-0.801,0-1.9,0s-2.4,0.1-3.8,0.1s-2.8,0-4.2,0
			c-1.3,0-2.199,0-2.6,0c0,0.3-0.1,0.6-0.301,0.8c-0.5,0.5-1,0.8-1.399,0.8c-0.2,0-0.5-0.1-0.8-0.4c-0.301-0.3-0.6-0.5-0.7-0.7
			c-0.101,0-0.2,0-0.399-0.1c-0.101,0-0.301-0.1-0.5-0.2H67.9c-0.1,0-0.3-0.1-0.699-0.1c-0.4,0-0.801-0.1-1.4-0.1
			c-0.5,0-1.1,0-1.9,0.1c-0.6,0-1.3,0-2,0.1c0,0.1,0,0.2-0.1,0.4c-0.1,0.2-0.1,0.3-0.1,0.4L61.4,11.9c-0.1,0-0.199,0-0.4,0
			c0,0.1,0,0.2,0,0.4c0,0.1,0,0.2,0,0.4c-0.1,0.2-0.1,0.4-0.1,0.7h-0.3c-1,0-2.101,0-3.3,0c-1.2,0-2.301,0-3.4,0
			c-1.1,0.1-2,0.1-2.699,0.1c-0.701,0-1.201,0-1.301,0s-0.3,0-0.5,0.1c-0.199,0-0.5,0-0.8,0.1c-0.3,0.1-0.601,0.1-1,0.1
			c-0.3,0.1-0.5,0.1-0.7,0.1h-0.1l-0.2-0.4c0-0.3-0.101-0.6-0.101-0.9c0-0.2-0.1-0.5-0.1-0.7c0-0.2,0-0.4,0-0.5
			c-0.1,0.1-0.4,0.1-0.8,0.2c-0.4,0-0.9,0.1-1.3,0.2c-0.4,0.1-0.9,0.2-1.3,0.3c-0.4,0-0.7,0.1-0.8,0.1c0,0.1,0,0.3,0,0.4
			c-0.1,0.1-0.1,0.3-0.1,0.3c0,1.3,0.2,2.7,0.6,4.3c0.4,1.5,0.8,2.899,1.3,4.3c0.5,1.3,0.9,2.4,1.3,3.3c0.401,0.9,0.6,1.3,0.6,1.3
			L46,26.4l-0.299,0.1C45.6,26.6,45.3,26.7,44.9,26.9C44.5,27.1,44,27.3,43.4,27.6c-0.7,0.301-1.6,0.7-2.7,1.301h-0.3
			c-0.4-0.5-0.9-1.5-1.3-2.801c-0.5-1.3-0.9-2.699-1.3-4.199c-0.4-1.4-0.8-2.801-1-4.101c-0.3-1.3-0.5-2.2-0.7-2.6
			c-0.2,0.1-0.5,0.3-1,0.4c-0.1,0-0.2,0-0.2,0.1c0,0,0,0-0.1,0c-0.1,0.2-0.3,0.3-0.6,0.3c-1.2,0.3-2.2,0.3-2.9,0
			c-0.7-0.3-1.1-0.5-1.4-0.7c-0.1,0.1-0.1,0.1-0.2,0.1L29,15.7c-0.8,1.7-1.2,3.2-1.4,4.3c-0.1,1.1-0.2,1.9-0.2,2.4V23
			c0,0.1,0,0.2-0.1,0.2c0,0-0.1,0-0.1,0.1c-0.4,0-1.8-0.6-4.2-1.899L22.8,21.3v-0.1c0.3-0.7,0.6-1.4,0.9-2.101
			c0.3-0.8,0.5-1.5,0.8-2.1c0.2-0.6,0.4-1.2,0.6-1.7c0.1-0.4,0.2-0.7,0.3-0.8c0-0.1,0-0.2-0.1-0.3c0-0.1-0.1-0.2-0.1-0.3
			c-0.1,0-0.2-0.1-0.3-0.3c-0.1-0.1-0.2-0.2-0.3-0.3c-0.1-0.1-0.2-0.2-0.3-0.3c-0.1-0.1-0.5-0.1-1-0.1c-0.6,0-1.3,0-2.1,0
			c-0.8,0-1.7,0.1-2.6,0.1c-0.9,0.1-1.8,0.1-2.6,0.1l-3.1,0.1c-2,0-4.9,1.8-8.9,5.3v0.9C3.8,19.6,3.6,19.9,3.3,20
			c-0.3,0.4-0.6,0.7-0.7,0.8C2.5,20.9,2.4,20.9,2.3,20.9c-0.2,0-0.4-0.101-0.6-0.4c-0.1-0.4-0.2-0.7-0.2-0.9c0-0.1,0-0.5,0-1.1
			s-0.1-1.3-0.2-2.2c-0.1-0.8-0.1-1.7-0.2-2.5C1,13,0.9,12.3,0.8,11.7C0.5,11.1,0.6,10.5,1,10c0.2-0.3,0.6-0.4,1-0.4s0.7,0,0.8,0H20
			c0.1,0,0.3,0,0.4,0s0.3,0,0.3-0.1V9.3c0.1-0.1,0.2-0.1,0.2-0.2S21,8.9,21,8.8c0.2-0.1,0.4-0.2,0.8-0.2c0.4,0,0.6-0.1,0.8-0.1
			c0.1-0.1,0.3-0.1,0.4-0.1c0.2,0,0.3,0,0.4-0.1c0.4-0.1,0.7-0.2,0.9-0.3c0.3-0.1,0.5-0.3,0.6-0.5c0.2-0.1,0.3-0.3,0.3-0.6
			c0-0.2,0.1-0.6,0.1-1.1V5.3c0-0.4,0.1-0.8,0.3-0.9c0.2-0.1,0.5-0.1,0.8-0.1H27l0.1,0.1l0.8,0.8c0,0.2,0.3,0.1,0.9-0.1h0.5
			c0.1,0.1,0.3,0.3,0.4,0.6c0.1,0.3,0.1,0.7,0.2,1c0.7-0.1,1.5-0.1,2.4-0.1c0.8,0,1.3,0,1.5,0.1c0.1,0,0.2,0,0.3,0s0.2,0.1,0.4,0.1
			H44c0-0.2,0-0.5-0.1-0.6l-0.1-0.3h1.7v0.3c0,0.1,0,0.2,0.1,0.2c0,0,0,0,0.101,0H68.6c0,0,0-0.1,0-0.3c0-0.1,0-0.3,0-0.5
			C68.5,5.5,68.5,5.3,68.5,5L69,4L70.6,3.9h0.101v2.7H70.6L70.5,6.7c0,0,0,0.1-0.1,0.1C70.6,7,71,7.3,71.5,7.7
			c0.601,0.3,1.201,0.5,2,0.5c0.301,0,0.801,0,1.5,0.1c0.701,0,1.5,0.1,2.4,0.1s1.7,0,2.6-0.1c1,0,1.801,0,2.601,0s1.5,0,2,0
			s0.8,0,0.899,0c0.101,0,0.301,0,0.701-0.1c0.299,0,0.6-0.1,1-0.2C87.6,8,88,7.9,88.3,7.9C88.5,7.8,88.701,7.8,88.8,8z M31.4,13
			c-0.2,0-0.4,0.1-0.6,0.3c-0.2,0.2-0.3,0.5-0.3,0.8c0,0.3,0.1,0.6,0.3,0.8c0.2,0.2,0.4,0.3,0.6,0.3h2.7c0.2,0,0.4-0.1,0.7-0.3
			c0.2-0.2,0.3-0.5,0.3-0.8c0-0.3-0.1-0.6-0.3-0.8c-0.2-0.2-0.4-0.3-0.7-0.3H31.4z M2.7,13c0.1,0.5,0.1,1,0.2,1.5
			C3,15.1,3,15.7,3,16.2c0.1,0.5,0.1,0.899,0.2,1.3c0.2-0.2,0.5-0.5,0.9-0.8C4.5,16.4,5,16,5.4,15.6c1-0.7,1.9-1.4,2.9-2.2
			c0.9-0.7,1.8-1.3,2.5-1.8H2.5C2.6,11.9,2.6,12.4,2.7,13z"/>
	</defs>
	<clipPath id="SVGID_4_">
		<use xlink:href="#SVGID_3_"  overflow="visible"/>
	</clipPath>
	<g clip-path="url(#SVGID_4_)">
		<polygon fill="#148193" points="48.27,27.098 40.476,31.223 33.868,9.895 40.846,13.417 43.832,12.704 		"/>
		<polygon fill="#E08300" stroke="#DDBE26" stroke-miterlimit="10" points="35.219,19.309 47.154,16.147 48.745,20.964 
			36.81,24.124 		"/>
		
			<linearGradient id="SVGID_5_" gradientUnits="userSpaceOnUse" x1="371.5034" y1="-260.4443" x2="424.2583" y2="-260.4443" gradientTransform="matrix(1 0 0 -1 -370.96 -246.5996)">
			<stop  offset="5.581969e-004" style="stop-color:#FF9500"/>
			<stop  offset="1" style="stop-color:#EFB941"/>
		</linearGradient>
		<path fill="url(#SVGID_5_)" d="M0.718,8.723h17.418l6.158-0.425l0.467-4.097l10.235-1.855l5.689,0.387
			c0,0,11.041,2.059,12.613,4.372c0,0-2.605,1.42-3.547,3.58c-0.938,2.158-2.277,3.681-4.427,4.117
			c-2.15,0.435-3.925-1.855-5.8-0.798c-1.875,1.057-4.79,3.275-6.112,4.187c-1.322,0.914-4.682,2.885-5.813,4.447
			c-1.13,1.568-2.628,3.219-4.029,2.553c-1.402-0.666-3.264-1.813-3.264-1.813l-6.434,0.16l-6.211,0.117l-6.098,0.941l-1.019-1.389
			L0.718,8.723z"/>
		<path fill="#300093" d="M6.938,12.845c0,0-5.454,0.056-6.006,4.483c-0.713,5.705,5.687,3.631,5.687,3.631
			S4.277,17.164,6.938,12.845z"/>
		<path fill="#5D29FF" d="M7.304,20.559l4.17-1.195c0,0-1.419-2.991,1.873-4.926c2.707-1.593,5.807,0.433,5.807,0.433l2.251-2.723
			c0,0-7.612-4.218-12.82,0.203C4.889,15.487,7.304,20.559,7.304,20.559z"/>
		<path fill="#4383FF" d="M25.164,9.959c0,0-2.697,1.236-3.759,1.236c-1.063,0,1.105,0.773,1.105,0.773l-2.416,2.908l0.912,1.936
			l5.834,0.189l0.234-7.758L25.164,9.959z"/>
		<path fill="#8600EE" d="M35.563,8.743c0,0-2.42-1.373-5.288,0.116c-2.867,1.488-3.201,7.231,1.789,7.757
			c4.283,0.453,5.128-4.562,2.687-5.258c-2.443-0.694-2.58,1.685-2.304,1.937h-0.659c0,0-0.99-2.899,2.373-2.87
			c3.345,0.028,2.553,4.068,2.553,4.068s1.603-2.531,3.626-2.387c2.286,0.165,1.874,1.185,3.344,1.464
			c1.529,0.29,3.742,0.246,4.441-2.841c0.38-1.67,2.726-2.797,2.726-2.797s-2.964-0.971-4.666,1.347
			c-1.557,2.118-2.688,0.761-3.6-0.188c-1.338-1.391-2.882-1.826-5.302-1.406C36.496,7.821,35.563,8.743,35.563,8.743z"/>
		<ellipse fill="#00A625" cx="15.911" cy="18.074" rx="3.998" ry="3.637"/>
		<path fill="#A20063" d="M40.537,5.126c0,0,1.491-0.558,4.566,0.152c3.073,0.711,4.441,1.695,4.441,1.695s-2.882-0.086-3.581,1.16
			c-0.704,1.246-1.371,1.304-2.04,1.016c-0.669-0.291-1.449-1.769-3.599-2.045c-1.94-0.248,0.111-1.493,0.111-1.493L40.537,5.126z"
			/>
		<path fill="#F58800" d="M26.087,5.814c0.048,0.015,1.815,3.755,1.815,3.755l3.822-1.957l-0.812-3.159L26.087,5.814z"/>
		<polygon fill="#5CFF16" points="31.343,4.453 32.33,7.53 35.132,7.931 35.34,4.019 		"/>
		<path fill="#646BFF" d="M40.085,4.206c0,0-1.258,2.363-1.274,2.804c0,0-2.343-0.161-3.089,0.66l0.095-3.826L40.085,4.206z"/>
	</g>
</g>
</svg>
