<?xml version="1.0" encoding="utf-8"?>
<!-- Generator: Adobe Illustrator 16.0.0, SVG Export Plug-In . SVG Version: 6.00 Build 0)  -->
<!DOCTYPE svg PUBLIC "-//W3C//DTD SVG 1.0//EN" "http://www.w3.org/TR/2001/REC-SVG-20010904/DTD/svg10.dtd">
<svg version="1.0" id="图层_1" xmlns="http://www.w3.org/2000/svg" xmlns:xlink="http://www.w3.org/1999/xlink" x="0px" y="0px"
	 width="90.3px" height="32px" viewBox="0 0 90.3 32" enable-background="new 0 0 90.3 32" xml:space="preserve">
<linearGradient id="SVGID_1_" gradientUnits="userSpaceOnUse" x1="0.6255" y1="16.4004" x2="89.2007" y2="16.4004">
	<stop  offset="0" style="stop-color:#FF2F7D"/>
	<stop  offset="1" style="stop-color:#FF8053"/>
</linearGradient>
<path fill="url(#SVGID_1_)" d="M88.8,8c0.2,0,0.4,0.1,0.4,0.3v2.4h-3.9c-0.1,0-0.8,0-1.9,0s-2.4,0.1-3.8,0.1s-2.8,0-4.2,0
	c-1.3,0-2.2,0-2.6,0c0,0.3-0.1,0.6-0.3,0.8c-0.5,0.5-1,0.8-1.4,0.8c-0.2,0-0.5-0.1-0.8-0.4c-0.3-0.3-0.6-0.5-0.7-0.7
	c-0.1,0-0.2,0-0.4-0.1c-0.1,0-0.3-0.1-0.5-0.2h-0.8c-0.1,0-0.3-0.1-0.7-0.1c-0.4,0-0.8-0.1-1.4-0.1c-0.5,0-1.1,0-1.9,0.1
	c-0.6,0-1.3,0-2,0.1c0,0.1,0,0.2-0.1,0.4c-0.1,0.2-0.1,0.3-0.1,0.4l-0.3,0.1c-0.1,0-0.2,0-0.4,0c0,0.1,0,0.2,0,0.4
	c0,0.1,0,0.2,0,0.4c-0.1,0.2-0.1,0.4-0.1,0.7h-0.3c-1,0-2.1,0-3.3,0c-1.2,0-2.3,0-3.4,0c-1.1,0.1-2,0.1-2.7,0.1c-0.7,0-1.2,0-1.3,0
	s-0.3,0-0.5,0.1c-0.2,0-0.5,0-0.8,0.1c-0.3,0.1-0.6,0.1-1,0.1c-0.3,0.1-0.5,0.1-0.7,0.1h-0.1l-0.2-0.4c0-0.3-0.1-0.6-0.1-0.9
	c0-0.2-0.1-0.5-0.1-0.7c0-0.2,0-0.4,0-0.5c-0.1,0.1-0.4,0.1-0.8,0.2c-0.4,0-0.9,0.1-1.3,0.2c-0.4,0.1-0.9,0.2-1.3,0.3
	c-0.4,0-0.7,0.1-0.8,0.1c0,0.1,0,0.3,0,0.4c-0.1,0.1-0.1,0.3-0.1,0.3c0,1.3,0.2,2.7,0.6,4.3c0.4,1.5,0.8,2.9,1.3,4.3
	c0.5,1.3,0.9,2.4,1.3,3.3c0.4,0.9,0.6,1.3,0.6,1.3l0.1,0.3l-0.3,0.1c-0.1,0.1-0.4,0.2-0.8,0.4c-0.4,0.2-0.9,0.4-1.5,0.7
	c-0.7,0.3-1.6,0.7-2.7,1.3h-0.3c-0.4-0.5-0.9-1.5-1.3-2.8c-0.5-1.3-0.9-2.7-1.3-4.2c-0.4-1.4-0.8-2.8-1-4.1
	c-0.3-1.3-0.5-2.2-0.7-2.6c-0.2,0.1-0.5,0.3-1,0.4c-0.1,0-0.2,0-0.2,0.1c0,0,0,0-0.1,0c-0.1,0.2-0.3,0.3-0.6,0.3
	c-1.2,0.3-2.2,0.3-2.9,0c-0.7-0.3-1.1-0.5-1.4-0.7c-0.1,0.1-0.1,0.1-0.2,0.1L29,15.7c-0.8,1.7-1.2,3.2-1.4,4.3
	c-0.1,1.1-0.2,1.9-0.2,2.4V23c0,0.1,0,0.2-0.1,0.2c0,0-0.1,0-0.1,0.1c-0.4,0-1.8-0.6-4.2-1.9l-0.2-0.1v-0.1c0.3-0.7,0.6-1.4,0.9-2.1
	c0.3-0.8,0.5-1.5,0.8-2.1c0.2-0.6,0.4-1.2,0.6-1.7c0.1-0.4,0.2-0.7,0.3-0.8c0-0.1,0-0.2-0.1-0.3c0-0.1-0.1-0.2-0.1-0.3
	c-0.1,0-0.2-0.1-0.3-0.3c-0.1-0.1-0.2-0.2-0.3-0.3c-0.1-0.1-0.2-0.2-0.3-0.3c-0.1-0.1-0.5-0.1-1-0.1c-0.6,0-1.3,0-2.1,0
	c-0.8,0-1.7,0.1-2.6,0.1c-0.9,0.1-1.8,0.1-2.6,0.1l-3.1,0.1c-2,0-4.9,1.8-8.9,5.3v0.9c-0.2,0.2-0.4,0.5-0.7,0.6
	c-0.3,0.4-0.6,0.7-0.7,0.8c-0.1,0.1-0.2,0.1-0.3,0.1c-0.2,0-0.4-0.1-0.6-0.4c-0.1-0.4-0.2-0.7-0.2-0.9c0-0.1,0-0.5,0-1.1
	s-0.1-1.3-0.2-2.2c-0.1-0.8-0.1-1.7-0.2-2.5C1,13,0.9,12.3,0.8,11.7C0.5,11.1,0.6,10.5,1,10c0.2-0.3,0.6-0.4,1-0.4s0.7,0,0.8,0H20
	c0.1,0,0.3,0,0.4,0s0.3,0,0.3-0.1V9.3c0.1-0.1,0.2-0.1,0.2-0.2S21,8.9,21,8.8c0.2-0.1,0.4-0.2,0.8-0.2c0.4,0,0.6-0.1,0.8-0.1
	c0.1-0.1,0.3-0.1,0.4-0.1c0.2,0,0.3,0,0.4-0.1c0.4-0.1,0.7-0.2,0.9-0.3c0.3-0.1,0.5-0.3,0.6-0.5c0.2-0.1,0.3-0.3,0.3-0.6
	c0-0.2,0.1-0.6,0.1-1.1V5.3c0-0.4,0.1-0.8,0.3-0.9c0.2-0.1,0.5-0.1,0.8-0.1H27l0.1,0.1l0.8,0.8c0,0.2,0.3,0.1,0.9-0.1h0.5
	c0.1,0.1,0.3,0.3,0.4,0.6c0.1,0.3,0.1,0.7,0.2,1c0.7-0.1,1.5-0.1,2.4-0.1c0.8,0,1.3,0,1.5,0.1c0.1,0,0.2,0,0.3,0s0.2,0.1,0.4,0.1H44
	c0-0.2,0-0.5-0.1-0.6l-0.1-0.3h1.7v0.3c0,0.1,0,0.2,0.1,0.2c0,0,0,0,0.1,0h22.9c0,0,0-0.1,0-0.3c0-0.1,0-0.3,0-0.5
	c-0.1-0.1-0.1-0.3-0.1-0.6L69,4l1.6-0.1h0.1v2.7h-0.1l-0.1,0.1c0,0,0,0.1-0.1,0.1C70.6,7,71,7.3,71.5,7.7c0.6,0.3,1.2,0.5,2,0.5
	c0.3,0,0.8,0,1.5,0.1c0.7,0,1.5,0.1,2.4,0.1s1.7,0,2.6-0.1c1,0,1.8,0,2.6,0c0.8,0,1.5,0,2,0s0.8,0,0.9,0c0.1,0,0.3,0,0.7-0.1
	c0.3,0,0.6-0.1,1-0.2c0.4,0,0.8-0.1,1.1-0.1C88.5,7.8,88.7,7.8,88.8,8z M31.4,13c-0.2,0-0.4,0.1-0.6,0.3c-0.2,0.2-0.3,0.5-0.3,0.8
	c0,0.3,0.1,0.6,0.3,0.8c0.2,0.2,0.4,0.3,0.6,0.3h2.7c0.2,0,0.4-0.1,0.7-0.3c0.2-0.2,0.3-0.5,0.3-0.8c0-0.3-0.1-0.6-0.3-0.8
	c-0.2-0.2-0.4-0.3-0.7-0.3H31.4z M2.7,13c0.1,0.5,0.1,1,0.2,1.5C3,15.1,3,15.7,3,16.2c0.1,0.5,0.1,0.9,0.2,1.3
	c0.2-0.2,0.5-0.5,0.9-0.8C4.5,16.4,5,16,5.4,15.6c1-0.7,1.9-1.4,2.9-2.2c0.9-0.7,1.8-1.3,2.5-1.8H2.5C2.6,11.9,2.6,12.4,2.7,13z"/>
<g>
	<defs>
		<path id="SVGID_2_" d="M88.8,8c0.2,0,0.4,0.1,0.4,0.3v2.4h-3.9c-0.1,0-0.8,0-1.9,0s-2.4,0.1-3.8,0.1s-2.8,0-4.2,0
			c-1.3,0-2.2,0-2.6,0c0,0.3-0.1,0.6-0.3,0.8c-0.5,0.5-1,0.8-1.4,0.8c-0.2,0-0.5-0.1-0.8-0.4c-0.3-0.3-0.6-0.5-0.7-0.7
			c-0.1,0-0.2,0-0.4-0.1c-0.1,0-0.3-0.1-0.5-0.2h-0.8c-0.1,0-0.3-0.1-0.7-0.1c-0.4,0-0.8-0.1-1.4-0.1c-0.5,0-1.1,0-1.9,0.1
			c-0.6,0-1.3,0-2,0.1c0,0.1,0,0.2-0.1,0.4c-0.1,0.2-0.1,0.3-0.1,0.4l-0.3,0.1c-0.1,0-0.2,0-0.4,0c0,0.1,0,0.2,0,0.4
			c0,0.1,0,0.2,0,0.4c-0.1,0.2-0.1,0.4-0.1,0.7h-0.3c-1,0-2.1,0-3.3,0c-1.2,0-2.3,0-3.4,0c-1.1,0.1-2,0.1-2.7,0.1
			c-0.7,0-1.2,0-1.3,0s-0.3,0-0.5,0.1c-0.2,0-0.5,0-0.8,0.1c-0.3,0.1-0.6,0.1-1,0.1c-0.3,0.1-0.5,0.1-0.7,0.1h-0.1l-0.2-0.4
			c0-0.3-0.1-0.6-0.1-0.9c0-0.2-0.1-0.5-0.1-0.7c0-0.2,0-0.4,0-0.5c-0.1,0.1-0.4,0.1-0.8,0.2c-0.4,0-0.9,0.1-1.3,0.2
			c-0.4,0.1-0.9,0.2-1.3,0.3c-0.4,0-0.7,0.1-0.8,0.1c0,0.1,0,0.3,0,0.4c-0.1,0.1-0.1,0.3-0.1,0.3c0,1.3,0.2,2.7,0.6,4.3
			c0.4,1.5,0.8,2.9,1.3,4.3c0.5,1.3,0.9,2.4,1.3,3.3c0.4,0.9,0.6,1.3,0.6,1.3l0.1,0.3l-0.3,0.1c-0.1,0.1-0.4,0.2-0.8,0.4
			c-0.4,0.2-0.9,0.4-1.5,0.7c-0.7,0.3-1.6,0.7-2.7,1.3h-0.3c-0.4-0.5-0.9-1.5-1.3-2.8c-0.5-1.3-0.9-2.7-1.3-4.2
			c-0.4-1.4-0.8-2.8-1-4.1c-0.3-1.3-0.5-2.2-0.7-2.6c-0.2,0.1-0.5,0.3-1,0.4c-0.1,0-0.2,0-0.2,0.1c0,0,0,0-0.1,0
			c-0.1,0.2-0.3,0.3-0.6,0.3c-1.2,0.3-2.2,0.3-2.9,0c-0.7-0.3-1.1-0.5-1.4-0.7c-0.1,0.1-0.1,0.1-0.2,0.1L29,15.7
			c-0.8,1.7-1.2,3.2-1.4,4.3c-0.1,1.1-0.2,1.9-0.2,2.4V23c0,0.1,0,0.2-0.1,0.2c0,0-0.1,0-0.1,0.1c-0.4,0-1.8-0.6-4.2-1.9l-0.2-0.1
			v-0.1c0.3-0.7,0.6-1.4,0.9-2.1c0.3-0.8,0.5-1.5,0.8-2.1c0.2-0.6,0.4-1.2,0.6-1.7c0.1-0.4,0.2-0.7,0.3-0.8c0-0.1,0-0.2-0.1-0.3
			c0-0.1-0.1-0.2-0.1-0.3c-0.1,0-0.2-0.1-0.3-0.3c-0.1-0.1-0.2-0.2-0.3-0.3c-0.1-0.1-0.2-0.2-0.3-0.3c-0.1-0.1-0.5-0.1-1-0.1
			c-0.6,0-1.3,0-2.1,0c-0.8,0-1.7,0.1-2.6,0.1c-0.9,0.1-1.8,0.1-2.6,0.1l-3.1,0.1c-2,0-4.9,1.8-8.9,5.3v0.9
			c-0.2,0.2-0.4,0.5-0.7,0.6c-0.3,0.4-0.6,0.7-0.7,0.8c-0.1,0.1-0.2,0.1-0.3,0.1c-0.2,0-0.4-0.1-0.6-0.4c-0.1-0.4-0.2-0.7-0.2-0.9
			c0-0.1,0-0.5,0-1.1s-0.1-1.3-0.2-2.2c-0.1-0.8-0.1-1.7-0.2-2.5C1,13,0.9,12.3,0.8,11.7C0.5,11.1,0.6,10.5,1,10
			c0.2-0.3,0.6-0.4,1-0.4s0.7,0,0.8,0H20c0.1,0,0.3,0,0.4,0s0.3,0,0.3-0.1V9.3c0.1-0.1,0.2-0.1,0.2-0.2S21,8.9,21,8.8
			c0.2-0.1,0.4-0.2,0.8-0.2c0.4,0,0.6-0.1,0.8-0.1c0.1-0.1,0.3-0.1,0.4-0.1c0.2,0,0.3,0,0.4-0.1c0.4-0.1,0.7-0.2,0.9-0.3
			c0.3-0.1,0.5-0.3,0.6-0.5c0.2-0.1,0.3-0.3,0.3-0.6c0-0.2,0.1-0.6,0.1-1.1V5.3c0-0.4,0.1-0.8,0.3-0.9c0.2-0.1,0.5-0.1,0.8-0.1H27
			l0.1,0.1l0.8,0.8c0,0.2,0.3,0.1,0.9-0.1h0.5c0.1,0.1,0.3,0.3,0.4,0.6c0.1,0.3,0.1,0.7,0.2,1c0.7-0.1,1.5-0.1,2.4-0.1
			c0.8,0,1.3,0,1.5,0.1c0.1,0,0.2,0,0.3,0s0.2,0.1,0.4,0.1H44c0-0.2,0-0.5-0.1-0.6l-0.1-0.3h1.7v0.3c0,0.1,0,0.2,0.1,0.2
			c0,0,0,0,0.1,0h22.9c0,0,0-0.1,0-0.3c0-0.1,0-0.3,0-0.5c-0.1-0.1-0.1-0.3-0.1-0.6L69,4l1.6-0.1h0.1v2.7h-0.1l-0.1,0.1
			c0,0,0,0.1-0.1,0.1C70.6,7,71,7.3,71.5,7.7c0.6,0.3,1.2,0.5,2,0.5c0.3,0,0.8,0,1.5,0.1c0.7,0,1.5,0.1,2.4,0.1s1.7,0,2.6-0.1
			c1,0,1.8,0,2.6,0c0.8,0,1.5,0,2,0s0.8,0,0.9,0c0.1,0,0.3,0,0.7-0.1c0.3,0,0.6-0.1,1-0.2c0.4,0,0.8-0.1,1.1-0.1
			C88.5,7.8,88.7,7.8,88.8,8z M31.4,13c-0.2,0-0.4,0.1-0.6,0.3c-0.2,0.2-0.3,0.5-0.3,0.8c0,0.3,0.1,0.6,0.3,0.8
			c0.2,0.2,0.4,0.3,0.6,0.3h2.7c0.2,0,0.4-0.1,0.7-0.3c0.2-0.2,0.3-0.5,0.3-0.8c0-0.3-0.1-0.6-0.3-0.8c-0.2-0.2-0.4-0.3-0.7-0.3
			H31.4z M2.7,13c0.1,0.5,0.1,1,0.2,1.5C3,15.1,3,15.7,3,16.2c0.1,0.5,0.1,0.9,0.2,1.3c0.2-0.2,0.5-0.5,0.9-0.8
			C4.5,16.4,5,16,5.4,15.6c1-0.7,1.9-1.4,2.9-2.2c0.9-0.7,1.8-1.3,2.5-1.8H2.5C2.6,11.9,2.6,12.4,2.7,13z"/>
	</defs>
	<clipPath id="SVGID_3_">
		<use xlink:href="#SVGID_2_"  overflow="visible"/>
	</clipPath>
	<g clip-path="url(#SVGID_3_)">
		<linearGradient id="SVGID_4_" gradientUnits="userSpaceOnUse" x1="5.2661" y1="19.334" x2="46.8712" y2="8.3683">
			<stop  offset="2.054068e-007" style="stop-color:#FE6198"/>
			<stop  offset="1" style="stop-color:#FFC9D4"/>
		</linearGradient>
		<polygon fill="url(#SVGID_4_)" points="-7.7,24 -2.1,24 2.1,19 -3.5,19 		"/>
		<linearGradient id="SVGID_5_" gradientUnits="userSpaceOnUse" x1="4.6646" y1="17.0518" x2="46.2678" y2="6.0866">
			<stop  offset="2.054068e-007" style="stop-color:#FE6198"/>
			<stop  offset="1" style="stop-color:#FFC9D4"/>
		</linearGradient>
		<polygon fill="url(#SVGID_5_)" points="6.3,13.9 2.1,19 7.6,19 11.8,13.9 		"/>
		<linearGradient id="SVGID_6_" gradientUnits="userSpaceOnUse" x1="6.1265" y1="22.0479" x2="47.7294" y2="11.0827">
			<stop  offset="2.054068e-007" style="stop-color:#FE6198"/>
			<stop  offset="1" style="stop-color:#FFC9D4"/>
		</linearGradient>
		<polygon fill="url(#SVGID_6_)" points="3.4,24 9,24 13.2,19 7.6,19 		"/>
		<linearGradient id="SVGID_7_" gradientUnits="userSpaceOnUse" x1="5.5249" y1="19.7646" x2="47.1281" y2="8.7995">
			<stop  offset="2.054068e-007" style="stop-color:#FE6198"/>
			<stop  offset="1" style="stop-color:#FFC9D4"/>
		</linearGradient>
		<polygon fill="url(#SVGID_7_)" points="13.2,19 18.8,19 23,13.9 17.4,13.9 		"/>
		<linearGradient id="SVGID_8_" gradientUnits="userSpaceOnUse" x1="3.2017" y1="12.0557" x2="44.8035" y2="1.0908">
			<stop  offset="2.054068e-007" style="stop-color:#FE6198"/>
			<stop  offset="1" style="stop-color:#FFC9D4"/>
		</linearGradient>
		<polygon fill="url(#SVGID_8_)" points="4.9,8.9 0.7,13.9 6.3,13.9 10.5,8.9 		"/>
		<linearGradient id="SVGID_9_" gradientUnits="userSpaceOnUse" x1="2.5996" y1="9.7725" x2="44.2028" y2="-1.1927">
			<stop  offset="2.054068e-007" style="stop-color:#FE6198"/>
			<stop  offset="1" style="stop-color:#FFC9D4"/>
		</linearGradient>
		<polygon fill="url(#SVGID_9_)" points="20.2,3.9 14.7,3.9 10.5,8.9 16,8.9 		"/>
		<linearGradient id="SVGID_10_" gradientUnits="userSpaceOnUse" x1="4.0625" y1="14.7686" x2="45.6676" y2="3.8029">
			<stop  offset="2.054068e-007" style="stop-color:#FE6198"/>
			<stop  offset="1" style="stop-color:#FFC9D4"/>
		</linearGradient>
		<polygon fill="url(#SVGID_10_)" points="17.4,13.9 21.6,8.9 16,8.9 11.8,13.9 		"/>
		<linearGradient id="SVGID_11_" gradientUnits="userSpaceOnUse" x1="3.4614" y1="12.4854" x2="45.0646" y2="1.5202">
			<stop  offset="2.054068e-007" style="stop-color:#FE6198"/>
			<stop  offset="1" style="stop-color:#FFC9D4"/>
		</linearGradient>
		<polygon fill="url(#SVGID_11_)" points="31.4,3.9 25.8,3.9 21.6,8.9 27.2,8.9 		"/>
		<linearGradient id="SVGID_12_" gradientUnits="userSpaceOnUse" x1="6.3867" y1="22.4775" x2="47.9897" y2="11.5124">
			<stop  offset="2.054068e-007" style="stop-color:#FE6198"/>
			<stop  offset="1" style="stop-color:#FFC9D4"/>
		</linearGradient>
		<polygon fill="url(#SVGID_12_)" points="24.4,19 30,19 34.2,13.9 28.6,13.9 		"/>
		<linearGradient id="SVGID_13_" gradientUnits="userSpaceOnUse" x1="5.7822" y1="20.1953" x2="47.389" y2="9.2292">
			<stop  offset="2.054068e-007" style="stop-color:#FE6198"/>
			<stop  offset="1" style="stop-color:#FFC9D4"/>
		</linearGradient>
		<polygon fill="url(#SVGID_13_)" points="34.2,13.9 39.7,13.9 43.9,8.9 38.4,8.9 		"/>
		<linearGradient id="SVGID_14_" gradientUnits="userSpaceOnUse" x1="4.9233" y1="17.4814" x2="46.5263" y2="6.5163">
			<stop  offset="2.054068e-007" style="stop-color:#FE6198"/>
			<stop  offset="1" style="stop-color:#FFC9D4"/>
		</linearGradient>
		<polygon fill="url(#SVGID_14_)" points="27.2,8.9 23,13.9 28.6,13.9 32.8,8.9 		"/>
		<linearGradient id="SVGID_15_" gradientUnits="userSpaceOnUse" x1="4.3164" y1="15.2007" x2="45.9272" y2="4.2335">
			<stop  offset="2.054068e-007" style="stop-color:#FE6198"/>
			<stop  offset="1" style="stop-color:#FFC9D4"/>
		</linearGradient>
		<polygon fill="url(#SVGID_15_)" points="42.6,3.9 37,3.9 32.8,8.9 38.4,8.9 		"/>
		<linearGradient id="SVGID_16_" gradientUnits="userSpaceOnUse" x1="5.1816" y1="17.9111" x2="46.787" y2="6.9454">
			<stop  offset="2.054068e-007" style="stop-color:#FE6198"/>
			<stop  offset="1" style="stop-color:#FFC9D4"/>
		</linearGradient>
		<polygon fill="url(#SVGID_16_)" points="48.1,3.9 43.9,8.9 49.5,8.9 53.7,3.9 		"/>
	</g>
</g>
</svg>
