<?xml version="1.0" encoding="utf-8"?>
<!-- Generator: Adobe Illustrator 16.0.0, SVG Export Plug-In . SVG Version: 6.00 Build 0)  -->
<!DOCTYPE svg PUBLIC "-//W3C//DTD SVG 1.0//EN" "http://www.w3.org/TR/2001/REC-SVG-20010904/DTD/svg10.dtd">
<svg version="1.0" id="图层_1" xmlns="http://www.w3.org/2000/svg" xmlns:xlink="http://www.w3.org/1999/xlink" x="0px" y="0px"
	 width="44.9px" height="32px" viewBox="0 0 44.9 32" enable-background="new 0 0 44.9 32" xml:space="preserve">
<path opacity="0.7" fill="#2D52EA" enable-background="new    " d="M20.095,13.57c0,0-3.809,0.708-6.821,4.963
	c0,0,2.569,1.151,1.683,1.86c-0.886,0.711-4.784-0.353-11.519,6.379c0,0,2.747-1.238,6.467-1.505
	c3.722-0.267-0.975,2.215-2.037,2.834c0,0,6.91-3.453,8.861-3.19C18.677,25.177,9.817,30.228,6.007,32c0,0,11.608-3.81,12.937-3.633
	c1.329,0.176-0.709,2.304-3.898,3.633c0,0,6.646,0,11.076-2.038c4.43-2.037,5.316-2.305,5.316-1.151c0,0,3.896-2.482,2.747-3.368
	c-1.15-0.887,2.925-2.039,5.67-4.077c2.747-2.038,3.896-3.367,3.896-3.367s-6.644,2.925-8.682,3.012
	c-2.038,0.09,1.328-2.747,4.961-4.34c3.635-1.595,4.785-4.519,4.785-4.519s-4.963,0.177-11.341,3.368
	c-6.38,3.188-7.089,4.252-6.557,2.303s6.379-4.696,6.379-4.696s-8.151,0.177-11.874,3.101c-3.72,2.924-2.658-0.708-1.86-1.417
	C20.363,14.102,20.095,13.57,20.095,13.57z"/>
<path fill="#0001BF" d="M43.6,10.8c-0.104,0.1-0.2,0.1-0.4,0.1c-0.4,0.1-1,0.1-1.8,0.2c-0.9,0-1.8,0.1-2.8,0.1c-1,0.1-2,0.1-3,0.1
	s-1.804,0-2.4,0c-0.7,0-1.3,0-1.7,0.1c-0.396,0.1-0.8,0.1-1,0.2S30.1,11.9,30.1,12C30,12.1,30,12.3,30,12.5v0.3c0,0.2,0,0.5,0,0.9
	c0,0.3,0.104,0.6,0.104,0.9c0.1,0.4,0.196,0.8,0.196,1.1v0.1l-0.6,0.7v0.1c-0.2,0.104-0.7,0.2-1.5,0.2c-1.6,0.101-2.9,0.101-4,0.101
	c-1,0-1.9,0-2.7-0.101c-0.7-0.1-1.2-0.2-1.6-0.2c-0.3-0.1-0.604-0.2-0.7-0.3c-0.2,0-0.4,0-0.7,0.1c-0.2,0.2-0.5,0.4-0.8,0.8
	c-0.4,0.399-0.8,1-1.2,1.899C16.1,20,15.6,21.2,15,22.7c-0.6,1.5-1.3,3.3-2,5.6v0.2c0,0.7-0.2,1.1-0.5,1.2c-0.2,0.2-0.3,0.2-0.5,0.1
	H2.8c0-0.1,0-0.3,0-0.399C2.9,29.2,3,28.9,3,28.8H2.3c-0.1,0-0.196,0-0.3,0c-0.6-0.1-1.1-0.3-1.5-0.899C0.3,27.6,0.2,27.2,0.2,26.8
	c0-0.6,0.1-1.1,0.2-1.5c0.1-0.5,0.2-0.7,0.2-0.8v0.1c0,0,0.196-0.3,0.5-0.699c0.3-0.397,0.6-1,1.1-1.601c0.5-0.7,0.9-1.399,1.4-2.2
	c0.6-0.8,1.1-1.5,1.6-2.3c0.5-1,1-2,1.3-2.8C6.9,14.2,7,13.5,7,12.8c0-0.4-0.1-0.8-0.2-1.2c-0.196-0.5-0.6-0.9-1-1.2
	C5.4,10.1,5,9.9,4.5,9.7C4.1,9.6,3.9,9.4,3.7,9.1c-0.1-0.3-0.2-0.6-0.2-1c0-0.1,0-0.3,0-0.4c0-0.1,0-0.2,0-0.3V7.3V5.2
	c0-0.4,0-0.7,0-0.9c0-0.2,0-0.4-0.1-0.5l0,0c0,0,0,0,0-0.1V3.6V3.5c0-0.1,0.2-0.1,0.396-0.2C4,3.1,4.6,3.1,5.6,3
	c0.1-0.1,0.1-0.2,0.1-0.2c0-0.1,0-0.1,0.1-0.2C5.8,2.5,5.9,2.4,6,2.3L6.1,2.2H7.3L7.4,2.5c0.1,0.1,0.1,0.1,0.1,0.2
	c0,0.1,0,0.2,0,0.2h33.9l0.1-0.2C41.6,2.6,41.6,2.6,41.6,2.6l0.8-0.2c0,0.1,0.1,0.1,0.2,0.2L42.8,2.8h1.5L44.6,7.3
	C44.5,9.3,44.2,10.4,43.6,10.8z M27.4,11.6h-5.8c-0.104,0-0.2,0.1-0.304,0.2c-0.1,0.1-0.196,0.3-0.196,0.6v2
	c0,0.3,0.1,0.5,0.196,0.6c0.104,0.1,0.2,0.2,0.304,0.2h5.8c0.1,0,0.2-0.1,0.3-0.2s0.2-0.3,0.2-0.6v-2c0-0.2-0.104-0.4-0.2-0.6
	C27.6,11.7,27.5,11.6,27.4,11.6z"/>
<g>
	<g>
		<defs>
			<path id="SVGID_1_" d="M43.6,10.8c-0.104,0.1-0.2,0.1-0.4,0.1c-0.4,0.1-1,0.1-1.8,0.2c-0.9,0-1.8,0.1-2.8,0.1c-1,0.1-2,0.1-3,0.1
				s-1.804,0-2.4,0c-0.7,0-1.3,0-1.7,0.1c-0.396,0.1-0.8,0.1-1,0.2S30.1,11.9,30.1,12C30,12.1,30,12.3,30,12.5v0.3
				c0,0.2,0,0.5,0,0.9c0,0.3,0.104,0.6,0.104,0.9c0.1,0.4,0.196,0.8,0.196,1.1v0.1l-0.6,0.7v0.1c-0.2,0.104-0.7,0.2-1.5,0.2
				c-1.6,0.101-2.9,0.101-4,0.101c-1,0-1.9,0-2.7-0.101c-0.7-0.1-1.2-0.2-1.6-0.2c-0.3-0.1-0.604-0.2-0.7-0.3c-0.2,0-0.4,0-0.7,0.1
				c-0.2,0.2-0.5,0.4-0.8,0.8c-0.4,0.399-0.8,1-1.2,1.899C16.1,20,15.6,21.2,15,22.7c-0.6,1.5-1.3,3.3-2,5.6v0.2
				c0,0.7-0.2,1.1-0.5,1.2c-0.2,0.2-0.3,0.2-0.5,0.1H2.8c0-0.1,0-0.3,0-0.399C2.9,29.2,3,28.9,3,28.8H2.3c-0.1,0-0.196,0-0.3,0
				c-0.6-0.1-1.1-0.3-1.5-0.899C0.3,27.6,0.2,27.2,0.2,26.8c0-0.6,0.1-1.1,0.2-1.5c0.1-0.5,0.2-0.7,0.2-0.8v0.1
				c0,0,0.196-0.3,0.5-0.699c0.3-0.397,0.6-1,1.1-1.601c0.5-0.7,0.9-1.399,1.4-2.2c0.6-0.8,1.1-1.5,1.6-2.3c0.5-1,1-2,1.3-2.8
				C6.9,14.2,7,13.5,7,12.8c0-0.4-0.1-0.8-0.2-1.2c-0.196-0.5-0.6-0.9-1-1.2C5.4,10.1,5,9.9,4.5,9.7C4.1,9.6,3.9,9.4,3.7,9.1
				c-0.1-0.3-0.2-0.6-0.2-1c0-0.1,0-0.3,0-0.4c0-0.1,0-0.2,0-0.3V7.3V5.2c0-0.4,0-0.7,0-0.9c0-0.2,0-0.4-0.1-0.5l0,0c0,0,0,0,0-0.1
				V3.6V3.5c0-0.1,0.2-0.1,0.396-0.2C4,3.1,4.6,3.1,5.6,3c0.1-0.1,0.1-0.2,0.1-0.2c0-0.1,0-0.1,0.1-0.2C5.8,2.5,5.9,2.4,6,2.3
				L6.1,2.2H7.3L7.4,2.5c0.1,0.1,0.1,0.1,0.1,0.2c0,0.1,0,0.2,0,0.2h33.9l0.1-0.2C41.6,2.6,41.6,2.6,41.6,2.6l0.8-0.2
				c0,0.1,0.1,0.1,0.2,0.2L42.8,2.8h1.5L44.6,7.3C44.5,9.3,44.2,10.4,43.6,10.8z M27.4,11.6h-5.8c-0.104,0-0.2,0.1-0.304,0.2
				c-0.1,0.1-0.196,0.3-0.196,0.6v2c0,0.3,0.1,0.5,0.196,0.6c0.104,0.1,0.2,0.2,0.304,0.2h5.8c0.1,0,0.2-0.1,0.3-0.2
				s0.2-0.3,0.2-0.6v-2c0-0.2-0.104-0.4-0.2-0.6C27.6,11.7,27.5,11.6,27.4,11.6z"/>
		</defs>
		<clipPath id="SVGID_2_">
			<use xlink:href="#SVGID_1_"  overflow="visible"/>
		</clipPath>
		
			<linearGradient id="SVGID_3_" gradientUnits="userSpaceOnUse" x1="837.5554" y1="-1193.7559" x2="875.3904" y2="-1193.7559" gradientTransform="matrix(1 0 0 -1 -844.7988 -1180.8799)">
			<stop  offset="0" style="stop-color:#A9D0FF"/>
			<stop  offset="0.1986" style="stop-color:#A7CBFF"/>
			<stop  offset="0.4411" style="stop-color:#A1BCFF"/>
			<stop  offset="0.7063" style="stop-color:#97A3FF"/>
			<stop  offset="0.9861" style="stop-color:#8981FF"/>
			<stop  offset="1" style="stop-color:#887FFF"/>
		</linearGradient>
		<path clip-path="url(#SVGID_2_)" fill="url(#SVGID_3_)" d="M-6.136,14.372c0,0-0.045,1.801,0.948,2.951
			c0.996,1.146,2.065-0.613,2.065-0.613l3.291-3.061c0,0,2.221,0.381,2.526,0.688c0.307,0.306,3.049-1.94,3.049-1.94
			s0.784-0.502,1.396,0.873c0.611,1.382,3.742,3.826,4.814,3.289c1.072-0.538,1.531-1.991,3.673-0.845
			c2.145,1.152,4.746,2.683,4.746,2.683s1.672,0.063,1.824-0.623c0.154-0.688,1.033,0.746,2.027,0.06
			c0.996-0.688,4.223-1.417,4.604-2.03c0.381-0.611,2.588-1.597,1.426-4.608c-0.813-2.118-9.805-6.254-12.098-1.84
			c-1.535,2.955-0.909,2.716-0.909,2.716s-3.46,1.418-5.296,0.422c-1.837-0.995-3.44-2.364-5.048-2.441
			C5.3,9.973,3.003,9.589,2.39,10.125c-0.613,0.535-1.03-2.328-1.72-2.72c-0.688-0.392-7.656,1.568-7.888,2.792
			C-7.447,11.422-6.136,14.372-6.136,14.372z"/>
	</g>
	<g>
		<defs>
			<path id="SVGID_4_" d="M43.6,10.8c-0.104,0.1-0.2,0.1-0.4,0.1c-0.4,0.1-1,0.1-1.8,0.2c-0.9,0-1.8,0.1-2.8,0.1c-1,0.1-2,0.1-3,0.1
				s-1.804,0-2.4,0c-0.7,0-1.3,0-1.7,0.1c-0.396,0.1-0.8,0.1-1,0.2S30.1,11.9,30.1,12C30,12.1,30,12.3,30,12.5v0.3
				c0,0.2,0,0.5,0,0.9c0,0.3,0.104,0.6,0.104,0.9c0.1,0.4,0.196,0.8,0.196,1.1v0.1l-0.6,0.7v0.1c-0.2,0.104-0.7,0.2-1.5,0.2
				c-1.6,0.101-2.9,0.101-4,0.101c-1,0-1.9,0-2.7-0.101c-0.7-0.1-1.2-0.2-1.6-0.2c-0.3-0.1-0.604-0.2-0.7-0.3c-0.2,0-0.4,0-0.7,0.1
				c-0.2,0.2-0.5,0.4-0.8,0.8c-0.4,0.399-0.8,1-1.2,1.899C16.1,20,15.6,21.2,15,22.7c-0.6,1.5-1.3,3.3-2,5.6v0.2
				c0,0.7-0.2,1.1-0.5,1.2c-0.2,0.2-0.3,0.2-0.5,0.1H2.8c0-0.1,0-0.3,0-0.399C2.9,29.2,3,28.9,3,28.8H2.3c-0.1,0-0.196,0-0.3,0
				c-0.6-0.1-1.1-0.3-1.5-0.899C0.3,27.6,0.2,27.2,0.2,26.8c0-0.6,0.1-1.1,0.2-1.5c0.1-0.5,0.2-0.7,0.2-0.8v0.1
				c0,0,0.196-0.3,0.5-0.699c0.3-0.397,0.6-1,1.1-1.601c0.5-0.7,0.9-1.399,1.4-2.2c0.6-0.8,1.1-1.5,1.6-2.3c0.5-1,1-2,1.3-2.8
				C6.9,14.2,7,13.5,7,12.8c0-0.4-0.1-0.8-0.2-1.2c-0.196-0.5-0.6-0.9-1-1.2C5.4,10.1,5,9.9,4.5,9.7C4.1,9.6,3.9,9.4,3.7,9.1
				c-0.1-0.3-0.2-0.6-0.2-1c0-0.1,0-0.3,0-0.4c0-0.1,0-0.2,0-0.3V7.3V5.2c0-0.4,0-0.7,0-0.9c0-0.2,0-0.4-0.1-0.5l0,0c0,0,0,0,0-0.1
				V3.6V3.5c0-0.1,0.2-0.1,0.396-0.2C4,3.1,4.6,3.1,5.6,3c0.1-0.1,0.1-0.2,0.1-0.2c0-0.1,0-0.1,0.1-0.2C5.8,2.5,5.9,2.4,6,2.3
				L6.1,2.2H7.3L7.4,2.5c0.1,0.1,0.1,0.1,0.1,0.2c0,0.1,0,0.2,0,0.2h33.9l0.1-0.2C41.6,2.6,41.6,2.6,41.6,2.6l0.8-0.2
				c0,0.1,0.1,0.1,0.2,0.2L42.8,2.8h1.5L44.6,7.3C44.5,9.3,44.2,10.4,43.6,10.8z M27.4,11.6h-5.8c-0.104,0-0.2,0.1-0.304,0.2
				c-0.1,0.1-0.196,0.3-0.196,0.6v2c0,0.3,0.1,0.5,0.196,0.6c0.104,0.1,0.2,0.2,0.304,0.2h5.8c0.1,0,0.2-0.1,0.3-0.2
				s0.2-0.3,0.2-0.6v-2c0-0.2-0.104-0.4-0.2-0.6C27.6,11.7,27.5,11.6,27.4,11.6z"/>
		</defs>
		<clipPath id="SVGID_5_">
			<use xlink:href="#SVGID_4_"  overflow="visible"/>
		</clipPath>
		<path clip-path="url(#SVGID_5_)" fill="#2970D6" d="M33.591,9.703c0,0-0.469-2.879-0.784-3.339
			c-0.595-0.87-1.152-2.099-3.185-2.13C29.01,4.257,25.587,2.486,28.2,2.391c2.834-0.103,12.855-0.636,16.83-0.287
			c3.975,0.35,2.402,2.322,2.402,2.322s1.11,1.871,0.725,2.879c-0.412,1.077-1.992,2.579-2.008,2.514
			c-0.23-0.94-2.838,1.373-2.838,1.373s-1.215-3.336-2.279-3.198c-1.123,0.029-1.705,2.437-1.705,2.437s0.333-4.147-2.751-4.616
			C34.263,6.109,33.591,9.703,33.591,9.703z"/>
	</g>
	<g>
		<defs>
			<path id="SVGID_6_" d="M43.6,10.8c-0.104,0.1-0.2,0.1-0.4,0.1c-0.4,0.1-1,0.1-1.8,0.2c-0.9,0-1.8,0.1-2.8,0.1c-1,0.1-2,0.1-3,0.1
				s-1.804,0-2.4,0c-0.7,0-1.3,0-1.7,0.1c-0.396,0.1-0.8,0.1-1,0.2S30.1,11.9,30.1,12C30,12.1,30,12.3,30,12.5v0.3
				c0,0.2,0,0.5,0,0.9c0,0.3,0.104,0.6,0.104,0.9c0.1,0.4,0.196,0.8,0.196,1.1v0.1l-0.6,0.7v0.1c-0.2,0.104-0.7,0.2-1.5,0.2
				c-1.6,0.101-2.9,0.101-4,0.101c-1,0-1.9,0-2.7-0.101c-0.7-0.1-1.2-0.2-1.6-0.2c-0.3-0.1-0.604-0.2-0.7-0.3c-0.2,0-0.4,0-0.7,0.1
				c-0.2,0.2-0.5,0.4-0.8,0.8c-0.4,0.399-0.8,1-1.2,1.899C16.1,20,15.6,21.2,15,22.7c-0.6,1.5-1.3,3.3-2,5.6v0.2
				c0,0.7-0.2,1.1-0.5,1.2c-0.2,0.2-0.3,0.2-0.5,0.1H2.8c0-0.1,0-0.3,0-0.399C2.9,29.2,3,28.9,3,28.8H2.3c-0.1,0-0.196,0-0.3,0
				c-0.6-0.1-1.1-0.3-1.5-0.899C0.3,27.6,0.2,27.2,0.2,26.8c0-0.6,0.1-1.1,0.2-1.5c0.1-0.5,0.2-0.7,0.2-0.8v0.1
				c0,0,0.196-0.3,0.5-0.699c0.3-0.397,0.6-1,1.1-1.601c0.5-0.7,0.9-1.399,1.4-2.2c0.6-0.8,1.1-1.5,1.6-2.3c0.5-1,1-2,1.3-2.8
				C6.9,14.2,7,13.5,7,12.8c0-0.4-0.1-0.8-0.2-1.2c-0.196-0.5-0.6-0.9-1-1.2C5.4,10.1,5,9.9,4.5,9.7C4.1,9.6,3.9,9.4,3.7,9.1
				c-0.1-0.3-0.2-0.6-0.2-1c0-0.1,0-0.3,0-0.4c0-0.1,0-0.2,0-0.3V7.3V5.2c0-0.4,0-0.7,0-0.9c0-0.2,0-0.4-0.1-0.5l0,0c0,0,0,0,0-0.1
				V3.6V3.5c0-0.1,0.2-0.1,0.396-0.2C4,3.1,4.6,3.1,5.6,3c0.1-0.1,0.1-0.2,0.1-0.2c0-0.1,0-0.1,0.1-0.2C5.8,2.5,5.9,2.4,6,2.3
				L6.1,2.2H7.3L7.4,2.5c0.1,0.1,0.1,0.1,0.1,0.2c0,0.1,0,0.2,0,0.2h33.9l0.1-0.2C41.6,2.6,41.6,2.6,41.6,2.6l0.8-0.2
				c0,0.1,0.1,0.1,0.2,0.2L42.8,2.8h1.5L44.6,7.3C44.5,9.3,44.2,10.4,43.6,10.8z M27.4,11.6h-5.8c-0.104,0-0.2,0.1-0.304,0.2
				c-0.1,0.1-0.196,0.3-0.196,0.6v2c0,0.3,0.1,0.5,0.196,0.6c0.104,0.1,0.2,0.2,0.304,0.2h5.8c0.1,0,0.2-0.1,0.3-0.2
				s0.2-0.3,0.2-0.6v-2c0-0.2-0.104-0.4-0.2-0.6C27.6,11.7,27.5,11.6,27.4,11.6z"/>
		</defs>
		<clipPath id="SVGID_7_">
			<use xlink:href="#SVGID_6_"  overflow="visible"/>
		</clipPath>
		
			<path clip-path="url(#SVGID_7_)" fill="none" stroke="#FFFFFF" stroke-width="0.5" stroke-linecap="round" stroke-linejoin="round" stroke-miterlimit="10" d="
			M17.784,16.805c0,0,0.697-0.571,1.265-4.633c0.288-2.06,1.315-6.429,3.563-6.362c2.211,0.067,3.393,3.891,3.563,6.611
			c0,0,2.976-5.757,7.189-0.937c0,0,0.539-7.461-4.156-7.032c-1.396-0.01-2.229,4.112-3.033,7.968"/>
	</g>
	<g>
		<defs>
			<path id="SVGID_8_" d="M43.6,10.8c-0.104,0.1-0.2,0.1-0.4,0.1c-0.4,0.1-1,0.1-1.8,0.2c-0.9,0-1.8,0.1-2.8,0.1c-1,0.1-2,0.1-3,0.1
				s-1.804,0-2.4,0c-0.7,0-1.3,0-1.7,0.1c-0.396,0.1-0.8,0.1-1,0.2S30.1,11.9,30.1,12C30,12.1,30,12.3,30,12.5v0.3
				c0,0.2,0,0.5,0,0.9c0,0.3,0.104,0.6,0.104,0.9c0.1,0.4,0.196,0.8,0.196,1.1v0.1l-0.6,0.7v0.1c-0.2,0.104-0.7,0.2-1.5,0.2
				c-1.6,0.101-2.9,0.101-4,0.101c-1,0-1.9,0-2.7-0.101c-0.7-0.1-1.2-0.2-1.6-0.2c-0.3-0.1-0.604-0.2-0.7-0.3c-0.2,0-0.4,0-0.7,0.1
				c-0.2,0.2-0.5,0.4-0.8,0.8c-0.4,0.399-0.8,1-1.2,1.899C16.1,20,15.6,21.2,15,22.7c-0.6,1.5-1.3,3.3-2,5.6v0.2
				c0,0.7-0.2,1.1-0.5,1.2c-0.2,0.2-0.3,0.2-0.5,0.1H2.8c0-0.1,0-0.3,0-0.399C2.9,29.2,3,28.9,3,28.8H2.3c-0.1,0-0.196,0-0.3,0
				c-0.6-0.1-1.1-0.3-1.5-0.899C0.3,27.6,0.2,27.2,0.2,26.8c0-0.6,0.1-1.1,0.2-1.5c0.1-0.5,0.2-0.7,0.2-0.8v0.1
				c0,0,0.196-0.3,0.5-0.699c0.3-0.397,0.6-1,1.1-1.601c0.5-0.7,0.9-1.399,1.4-2.2c0.6-0.8,1.1-1.5,1.6-2.3c0.5-1,1-2,1.3-2.8
				C6.9,14.2,7,13.5,7,12.8c0-0.4-0.1-0.8-0.2-1.2c-0.196-0.5-0.6-0.9-1-1.2C5.4,10.1,5,9.9,4.5,9.7C4.1,9.6,3.9,9.4,3.7,9.1
				c-0.1-0.3-0.2-0.6-0.2-1c0-0.1,0-0.3,0-0.4c0-0.1,0-0.2,0-0.3V7.3V5.2c0-0.4,0-0.7,0-0.9c0-0.2,0-0.4-0.1-0.5l0,0c0,0,0,0,0-0.1
				V3.6V3.5c0-0.1,0.2-0.1,0.396-0.2C4,3.1,4.6,3.1,5.6,3c0.1-0.1,0.1-0.2,0.1-0.2c0-0.1,0-0.1,0.1-0.2C5.8,2.5,5.9,2.4,6,2.3
				L6.1,2.2H7.3L7.4,2.5c0.1,0.1,0.1,0.1,0.1,0.2c0,0.1,0,0.2,0,0.2h33.9l0.1-0.2C41.6,2.6,41.6,2.6,41.6,2.6l0.8-0.2
				c0,0.1,0.1,0.1,0.2,0.2L42.8,2.8h1.5L44.6,7.3C44.5,9.3,44.2,10.4,43.6,10.8z M27.4,11.6h-5.8c-0.104,0-0.2,0.1-0.304,0.2
				c-0.1,0.1-0.196,0.3-0.196,0.6v2c0,0.3,0.1,0.5,0.196,0.6c0.104,0.1,0.2,0.2,0.304,0.2h5.8c0.1,0,0.2-0.1,0.3-0.2
				s0.2-0.3,0.2-0.6v-2c0-0.2-0.104-0.4-0.2-0.6C27.6,11.7,27.5,11.6,27.4,11.6z"/>
		</defs>
		<clipPath id="SVGID_9_">
			<use xlink:href="#SVGID_8_"  overflow="visible"/>
		</clipPath>
		<path clip-path="url(#SVGID_9_)" fill="#A2CAFF" d="M17.944,18.074c0.519,1.336-3.271,4.756-3.271,4.756s-3.048,2.506-6.063,1.611
			c-6.057-1.797-1.831-9.617-1.831-9.617s0.67-1.23,1.389-0.247c0.721,0.984,2.74,0.381,4.165,0.438
			c1.955,0.075,2.667,3.479,4.024,0.831C16.62,15.33,17.734,17.531,17.944,18.074z"/>
	</g>
	<g>
		<defs>
			<path id="SVGID_10_" d="M43.6,10.8c-0.104,0.1-0.2,0.1-0.4,0.1c-0.4,0.1-1,0.1-1.8,0.2c-0.9,0-1.8,0.1-2.8,0.1
				c-1,0.1-2,0.1-3,0.1s-1.804,0-2.4,0c-0.7,0-1.3,0-1.7,0.1c-0.396,0.1-0.8,0.1-1,0.2S30.1,11.9,30.1,12C30,12.1,30,12.3,30,12.5
				v0.3c0,0.2,0,0.5,0,0.9c0,0.3,0.104,0.6,0.104,0.9c0.1,0.4,0.196,0.8,0.196,1.1v0.1l-0.6,0.7v0.1c-0.2,0.104-0.7,0.2-1.5,0.2
				c-1.6,0.101-2.9,0.101-4,0.101c-1,0-1.9,0-2.7-0.101c-0.7-0.1-1.2-0.2-1.6-0.2c-0.3-0.1-0.604-0.2-0.7-0.3c-0.2,0-0.4,0-0.7,0.1
				c-0.2,0.2-0.5,0.4-0.8,0.8c-0.4,0.399-0.8,1-1.2,1.899C16.1,20,15.6,21.2,15,22.7c-0.6,1.5-1.3,3.3-2,5.6v0.2
				c0,0.7-0.2,1.1-0.5,1.2c-0.2,0.2-0.3,0.2-0.5,0.1H2.8c0-0.1,0-0.3,0-0.399C2.9,29.2,3,28.9,3,28.8H2.3c-0.1,0-0.196,0-0.3,0
				c-0.6-0.1-1.1-0.3-1.5-0.899C0.3,27.6,0.2,27.2,0.2,26.8c0-0.6,0.1-1.1,0.2-1.5c0.1-0.5,0.2-0.7,0.2-0.8v0.1
				c0,0,0.196-0.3,0.5-0.699c0.3-0.397,0.6-1,1.1-1.601c0.5-0.7,0.9-1.399,1.4-2.2c0.6-0.8,1.1-1.5,1.6-2.3c0.5-1,1-2,1.3-2.8
				C6.9,14.2,7,13.5,7,12.8c0-0.4-0.1-0.8-0.2-1.2c-0.196-0.5-0.6-0.9-1-1.2C5.4,10.1,5,9.9,4.5,9.7C4.1,9.6,3.9,9.4,3.7,9.1
				c-0.1-0.3-0.2-0.6-0.2-1c0-0.1,0-0.3,0-0.4c0-0.1,0-0.2,0-0.3V7.3V5.2c0-0.4,0-0.7,0-0.9c0-0.2,0-0.4-0.1-0.5l0,0c0,0,0,0,0-0.1
				V3.6V3.5c0-0.1,0.2-0.1,0.396-0.2C4,3.1,4.6,3.1,5.6,3c0.1-0.1,0.1-0.2,0.1-0.2c0-0.1,0-0.1,0.1-0.2C5.8,2.5,5.9,2.4,6,2.3
				L6.1,2.2H7.3L7.4,2.5c0.1,0.1,0.1,0.1,0.1,0.2c0,0.1,0,0.2,0,0.2h33.9l0.1-0.2C41.6,2.6,41.6,2.6,41.6,2.6l0.8-0.2
				c0,0.1,0.1,0.1,0.2,0.2L42.8,2.8h1.5L44.6,7.3C44.5,9.3,44.2,10.4,43.6,10.8z M27.4,11.6h-5.8c-0.104,0-0.2,0.1-0.304,0.2
				c-0.1,0.1-0.196,0.3-0.196,0.6v2c0,0.3,0.1,0.5,0.196,0.6c0.104,0.1,0.2,0.2,0.304,0.2h5.8c0.1,0,0.2-0.1,0.3-0.2
				s0.2-0.3,0.2-0.6v-2c0-0.2-0.104-0.4-0.2-0.6C27.6,11.7,27.5,11.6,27.4,11.6z"/>
		</defs>
		<clipPath id="SVGID_11_">
			<use xlink:href="#SVGID_10_"  overflow="visible"/>
		</clipPath>
		<path clip-path="url(#SVGID_11_)" fill="#FFFFFF" d="M17.496,17.84c0,0-0.87-0.277-1.011,0.988
			c-0.245,2.201-4.229,5.281-5.269,5.23c-1.774-0.093-6.078-1.343-5.526-4.302c0.134-0.715,1.277-3.932,1.088-4.933
			C6.46,13.151,0.2,23.917,0.2,23.917s-0.182,6.202-0.109,6.364c0.074,0.164,9.234-0.156,9.234-0.156l4.563,0.781L17.496,17.84z"/>
	</g>
	<g>
		<defs>
			<path id="SVGID_12_" d="M43.6,10.8c-0.104,0.1-0.2,0.1-0.4,0.1c-0.4,0.1-1,0.1-1.8,0.2c-0.9,0-1.8,0.1-2.8,0.1
				c-1,0.1-2,0.1-3,0.1s-1.804,0-2.4,0c-0.7,0-1.3,0-1.7,0.1c-0.396,0.1-0.8,0.1-1,0.2S30.1,11.9,30.1,12C30,12.1,30,12.3,30,12.5
				v0.3c0,0.2,0,0.5,0,0.9c0,0.3,0.104,0.6,0.104,0.9c0.1,0.4,0.196,0.8,0.196,1.1v0.1l-0.6,0.7v0.1c-0.2,0.104-0.7,0.2-1.5,0.2
				c-1.6,0.101-2.9,0.101-4,0.101c-1,0-1.9,0-2.7-0.101c-0.7-0.1-1.2-0.2-1.6-0.2c-0.3-0.1-0.604-0.2-0.7-0.3c-0.2,0-0.4,0-0.7,0.1
				c-0.2,0.2-0.5,0.4-0.8,0.8c-0.4,0.399-0.8,1-1.2,1.899C16.1,20,15.6,21.2,15,22.7c-0.6,1.5-1.3,3.3-2,5.6v0.2
				c0,0.7-0.2,1.1-0.5,1.2c-0.2,0.2-0.3,0.2-0.5,0.1H2.8c0-0.1,0-0.3,0-0.399C2.9,29.2,3,28.9,3,28.8H2.3c-0.1,0-0.196,0-0.3,0
				c-0.6-0.1-1.1-0.3-1.5-0.899C0.3,27.6,0.2,27.2,0.2,26.8c0-0.6,0.1-1.1,0.2-1.5c0.1-0.5,0.2-0.7,0.2-0.8v0.1
				c0,0,0.196-0.3,0.5-0.699c0.3-0.397,0.6-1,1.1-1.601c0.5-0.7,0.9-1.399,1.4-2.2c0.6-0.8,1.1-1.5,1.6-2.3c0.5-1,1-2,1.3-2.8
				C6.9,14.2,7,13.5,7,12.8c0-0.4-0.1-0.8-0.2-1.2c-0.196-0.5-0.6-0.9-1-1.2C5.4,10.1,5,9.9,4.5,9.7C4.1,9.6,3.9,9.4,3.7,9.1
				c-0.1-0.3-0.2-0.6-0.2-1c0-0.1,0-0.3,0-0.4c0-0.1,0-0.2,0-0.3V7.3V5.2c0-0.4,0-0.7,0-0.9c0-0.2,0-0.4-0.1-0.5l0,0c0,0,0,0,0-0.1
				V3.6V3.5c0-0.1,0.2-0.1,0.396-0.2C4,3.1,4.6,3.1,5.6,3c0.1-0.1,0.1-0.2,0.1-0.2c0-0.1,0-0.1,0.1-0.2C5.8,2.5,5.9,2.4,6,2.3
				L6.1,2.2H7.3L7.4,2.5c0.1,0.1,0.1,0.1,0.1,0.2c0,0.1,0,0.2,0,0.2h33.9l0.1-0.2C41.6,2.6,41.6,2.6,41.6,2.6l0.8-0.2
				c0,0.1,0.1,0.1,0.2,0.2L42.8,2.8h1.5L44.6,7.3C44.5,9.3,44.2,10.4,43.6,10.8z M27.4,11.6h-5.8c-0.104,0-0.2,0.1-0.304,0.2
				c-0.1,0.1-0.196,0.3-0.196,0.6v2c0,0.3,0.1,0.5,0.196,0.6c0.104,0.1,0.2,0.2,0.304,0.2h5.8c0.1,0,0.2-0.1,0.3-0.2
				s0.2-0.3,0.2-0.6v-2c0-0.2-0.104-0.4-0.2-0.6C27.6,11.7,27.5,11.6,27.4,11.6z"/>
		</defs>
		<clipPath id="SVGID_13_">
			<use xlink:href="#SVGID_12_"  overflow="visible"/>
		</clipPath>
		<path clip-path="url(#SVGID_13_)" fill="#A4BAFF" d="M-2.13,10.733c0.229,0.445,5.31-1.075,5.31-1.075s-1.039,1.979-0.768,3.839
			c0.272,1.862,2.85,2.244,4.03,1.764c1.182-0.481,1.979-2.242,3.813-0.39c0.697,0.708,2.252-4.164,2.111,2.207
			c-0.078,3.516,1.911,2.068,1.911,2.068s2.948,0.961,3.263,0.117c0.315-0.847-0.173,0.899,0.969,0.211
			c1.144-0.689,0.26-5.761,0.188-6.668c0.004-0.49,0.526-2.785,0.526-2.785s1.666-5.896,4.542-4.083
			C22.063,3.808,16.16,1.667,12.077,1.5c-0.773,2.246-1.011,0.22-1.011,0.22s-5.825-2.47-8.6,1.612
			c-1.886-0.978,2.125,3.14,0.564,2.744C1.469,5.683-0.696,4.772-1.426,5.338c-0.729,0.565-2.966,1.275-3.55,0.65
			c-0.583-0.625,1.817,1.221,1.3,2.732C-4.195,10.229-2.359,10.287-2.13,10.733z"/>
	</g>
	<g>
		<defs>
			<path id="SVGID_14_" d="M43.6,10.8c-0.104,0.1-0.2,0.1-0.4,0.1c-0.4,0.1-1,0.1-1.8,0.2c-0.9,0-1.8,0.1-2.8,0.1
				c-1,0.1-2,0.1-3,0.1s-1.804,0-2.4,0c-0.7,0-1.3,0-1.7,0.1c-0.396,0.1-0.8,0.1-1,0.2S30.1,11.9,30.1,12C30,12.1,30,12.3,30,12.5
				v0.3c0,0.2,0,0.5,0,0.9c0,0.3,0.104,0.6,0.104,0.9c0.1,0.4,0.196,0.8,0.196,1.1v0.1l-0.6,0.7v0.1c-0.2,0.104-0.7,0.2-1.5,0.2
				c-1.6,0.101-2.9,0.101-4,0.101c-1,0-1.9,0-2.7-0.101c-0.7-0.1-1.2-0.2-1.6-0.2c-0.3-0.1-0.604-0.2-0.7-0.3c-0.2,0-0.4,0-0.7,0.1
				c-0.2,0.2-0.5,0.4-0.8,0.8c-0.4,0.399-0.8,1-1.2,1.899C16.1,20,15.6,21.2,15,22.7c-0.6,1.5-1.3,3.3-2,5.6v0.2
				c0,0.7-0.2,1.1-0.5,1.2c-0.2,0.2-0.3,0.2-0.5,0.1H2.8c0-0.1,0-0.3,0-0.399C2.9,29.2,3,28.9,3,28.8H2.3c-0.1,0-0.196,0-0.3,0
				c-0.6-0.1-1.1-0.3-1.5-0.899C0.3,27.6,0.2,27.2,0.2,26.8c0-0.6,0.1-1.1,0.2-1.5c0.1-0.5,0.2-0.7,0.2-0.8v0.1
				c0,0,0.196-0.3,0.5-0.699c0.3-0.397,0.6-1,1.1-1.601c0.5-0.7,0.9-1.399,1.4-2.2c0.6-0.8,1.1-1.5,1.6-2.3c0.5-1,1-2,1.3-2.8
				C6.9,14.2,7,13.5,7,12.8c0-0.4-0.1-0.8-0.2-1.2c-0.196-0.5-0.6-0.9-1-1.2C5.4,10.1,5,9.9,4.5,9.7C4.1,9.6,3.9,9.4,3.7,9.1
				c-0.1-0.3-0.2-0.6-0.2-1c0-0.1,0-0.3,0-0.4c0-0.1,0-0.2,0-0.3V7.3V5.2c0-0.4,0-0.7,0-0.9c0-0.2,0-0.4-0.1-0.5l0,0c0,0,0,0,0-0.1
				V3.6V3.5c0-0.1,0.2-0.1,0.396-0.2C4,3.1,4.6,3.1,5.6,3c0.1-0.1,0.1-0.2,0.1-0.2c0-0.1,0-0.1,0.1-0.2C5.8,2.5,5.9,2.4,6,2.3
				L6.1,2.2H7.3L7.4,2.5c0.1,0.1,0.1,0.1,0.1,0.2c0,0.1,0,0.2,0,0.2h33.9l0.1-0.2C41.6,2.6,41.6,2.6,41.6,2.6l0.8-0.2
				c0,0.1,0.1,0.1,0.2,0.2L42.8,2.8h1.5L44.6,7.3C44.5,9.3,44.2,10.4,43.6,10.8z M27.4,11.6h-5.8c-0.104,0-0.2,0.1-0.304,0.2
				c-0.1,0.1-0.196,0.3-0.196,0.6v2c0,0.3,0.1,0.5,0.196,0.6c0.104,0.1,0.2,0.2,0.304,0.2h5.8c0.1,0,0.2-0.1,0.3-0.2
				s0.2-0.3,0.2-0.6v-2c0-0.2-0.104-0.4-0.2-0.6C27.6,11.7,27.5,11.6,27.4,11.6z"/>
		</defs>
		<clipPath id="SVGID_15_">
			<use xlink:href="#SVGID_14_"  overflow="visible"/>
		</clipPath>
		<path clip-path="url(#SVGID_15_)" fill="#B3B3FF" d="M7.472,13.294c0,0,5.408-1.133,7.131-0.653
			c1.722,0.48,0.675-1.487,0.187-2.61c-0.966-2.214-0.649-3.759-2.814-3.413C10.615,6.836,8.118,10.739,7.472,13.294z"/>
	</g>
	<g>
		<defs>
			<path id="SVGID_16_" d="M43.6,10.8c-0.104,0.1-0.2,0.1-0.4,0.1c-0.4,0.1-1,0.1-1.8,0.2c-0.9,0-1.8,0.1-2.8,0.1
				c-1,0.1-2,0.1-3,0.1s-1.804,0-2.4,0c-0.7,0-1.3,0-1.7,0.1c-0.396,0.1-0.8,0.1-1,0.2S30.1,11.9,30.1,12C30,12.1,30,12.3,30,12.5
				v0.3c0,0.2,0,0.5,0,0.9c0,0.3,0.104,0.6,0.104,0.9c0.1,0.4,0.196,0.8,0.196,1.1v0.1l-0.6,0.7v0.1c-0.2,0.104-0.7,0.2-1.5,0.2
				c-1.6,0.101-2.9,0.101-4,0.101c-1,0-1.9,0-2.7-0.101c-0.7-0.1-1.2-0.2-1.6-0.2c-0.3-0.1-0.604-0.2-0.7-0.3c-0.2,0-0.4,0-0.7,0.1
				c-0.2,0.2-0.5,0.4-0.8,0.8c-0.4,0.399-0.8,1-1.2,1.899C16.1,20,15.6,21.2,15,22.7c-0.6,1.5-1.3,3.3-2,5.6v0.2
				c0,0.7-0.2,1.1-0.5,1.2c-0.2,0.2-0.3,0.2-0.5,0.1H2.8c0-0.1,0-0.3,0-0.399C2.9,29.2,3,28.9,3,28.8H2.3c-0.1,0-0.196,0-0.3,0
				c-0.6-0.1-1.1-0.3-1.5-0.899C0.3,27.6,0.2,27.2,0.2,26.8c0-0.6,0.1-1.1,0.2-1.5c0.1-0.5,0.2-0.7,0.2-0.8v0.1
				c0,0,0.196-0.3,0.5-0.699c0.3-0.397,0.6-1,1.1-1.601c0.5-0.7,0.9-1.399,1.4-2.2c0.6-0.8,1.1-1.5,1.6-2.3c0.5-1,1-2,1.3-2.8
				C6.9,14.2,7,13.5,7,12.8c0-0.4-0.1-0.8-0.2-1.2c-0.196-0.5-0.6-0.9-1-1.2C5.4,10.1,5,9.9,4.5,9.7C4.1,9.6,3.9,9.4,3.7,9.1
				c-0.1-0.3-0.2-0.6-0.2-1c0-0.1,0-0.3,0-0.4c0-0.1,0-0.2,0-0.3V7.3V5.2c0-0.4,0-0.7,0-0.9c0-0.2,0-0.4-0.1-0.5l0,0c0,0,0,0,0-0.1
				V3.6V3.5c0-0.1,0.2-0.1,0.396-0.2C4,3.1,4.6,3.1,5.6,3c0.1-0.1,0.1-0.2,0.1-0.2c0-0.1,0-0.1,0.1-0.2C5.8,2.5,5.9,2.4,6,2.3
				L6.1,2.2H7.3L7.4,2.5c0.1,0.1,0.1,0.1,0.1,0.2c0,0.1,0,0.2,0,0.2h33.9l0.1-0.2C41.6,2.6,41.6,2.6,41.6,2.6l0.8-0.2
				c0,0.1,0.1,0.1,0.2,0.2L42.8,2.8h1.5L44.6,7.3C44.5,9.3,44.2,10.4,43.6,10.8z M27.4,11.6h-5.8c-0.104,0-0.2,0.1-0.304,0.2
				c-0.1,0.1-0.196,0.3-0.196,0.6v2c0,0.3,0.1,0.5,0.196,0.6c0.104,0.1,0.2,0.2,0.304,0.2h5.8c0.1,0,0.2-0.1,0.3-0.2
				s0.2-0.3,0.2-0.6v-2c0-0.2-0.104-0.4-0.2-0.6C27.6,11.7,27.5,11.6,27.4,11.6z"/>
		</defs>
		<clipPath id="SVGID_17_">
			<use xlink:href="#SVGID_16_"  overflow="visible"/>
		</clipPath>
		
			<path clip-path="url(#SVGID_17_)" fill="none" stroke="#92A8DD" stroke-width="0.5" stroke-linecap="round" stroke-linejoin="round" stroke-miterlimit="10" d="
			M33.259,11.928c0,0,1.103-6.021,3.255-5.946c2.245,0.123,2.559,2.144,2.813,4.447c0,0,0.697-2.87,2.078-2.394
			c0.713,0.247,1.773,3.338,1.773,3.338s2.512-3.568,3.239-0.633c0,0,0.109-6.218-3.326-2.519c0.441-1.895-1.061-3.342-1.782-3.507
			c-0.869-0.197-2.48,3.476-2.211,4.07"/>
	</g>
	<g>
		<defs>
			<path id="SVGID_18_" d="M43.6,10.8c-0.104,0.1-0.2,0.1-0.4,0.1c-0.4,0.1-1,0.1-1.8,0.2c-0.9,0-1.8,0.1-2.8,0.1
				c-1,0.1-2,0.1-3,0.1s-1.804,0-2.4,0c-0.7,0-1.3,0-1.7,0.1c-0.396,0.1-0.8,0.1-1,0.2S30.1,11.9,30.1,12C30,12.1,30,12.3,30,12.5
				v0.3c0,0.2,0,0.5,0,0.9c0,0.3,0.104,0.6,0.104,0.9c0.1,0.4,0.196,0.8,0.196,1.1v0.1l-0.6,0.7v0.1c-0.2,0.104-0.7,0.2-1.5,0.2
				c-1.6,0.101-2.9,0.101-4,0.101c-1,0-1.9,0-2.7-0.101c-0.7-0.1-1.2-0.2-1.6-0.2c-0.3-0.1-0.604-0.2-0.7-0.3c-0.2,0-0.4,0-0.7,0.1
				c-0.2,0.2-0.5,0.4-0.8,0.8c-0.4,0.399-0.8,1-1.2,1.899C16.1,20,15.6,21.2,15,22.7c-0.6,1.5-1.3,3.3-2,5.6v0.2
				c0,0.7-0.2,1.1-0.5,1.2c-0.2,0.2-0.3,0.2-0.5,0.1H2.8c0-0.1,0-0.3,0-0.399C2.9,29.2,3,28.9,3,28.8H2.3c-0.1,0-0.196,0-0.3,0
				c-0.6-0.1-1.1-0.3-1.5-0.899C0.3,27.6,0.2,27.2,0.2,26.8c0-0.6,0.1-1.1,0.2-1.5c0.1-0.5,0.2-0.7,0.2-0.8v0.1
				c0,0,0.196-0.3,0.5-0.699c0.3-0.397,0.6-1,1.1-1.601c0.5-0.7,0.9-1.399,1.4-2.2c0.6-0.8,1.1-1.5,1.6-2.3c0.5-1,1-2,1.3-2.8
				C6.9,14.2,7,13.5,7,12.8c0-0.4-0.1-0.8-0.2-1.2c-0.196-0.5-0.6-0.9-1-1.2C5.4,10.1,5,9.9,4.5,9.7C4.1,9.6,3.9,9.4,3.7,9.1
				c-0.1-0.3-0.2-0.6-0.2-1c0-0.1,0-0.3,0-0.4c0-0.1,0-0.2,0-0.3V7.3V5.2c0-0.4,0-0.7,0-0.9c0-0.2,0-0.4-0.1-0.5l0,0c0,0,0,0,0-0.1
				V3.6V3.5c0-0.1,0.2-0.1,0.396-0.2C4,3.1,4.6,3.1,5.6,3c0.1-0.1,0.1-0.2,0.1-0.2c0-0.1,0-0.1,0.1-0.2C5.8,2.5,5.9,2.4,6,2.3
				L6.1,2.2H7.3L7.4,2.5c0.1,0.1,0.1,0.1,0.1,0.2c0,0.1,0,0.2,0,0.2h33.9l0.1-0.2C41.6,2.6,41.6,2.6,41.6,2.6l0.8-0.2
				c0,0.1,0.1,0.1,0.2,0.2L42.8,2.8h1.5L44.6,7.3C44.5,9.3,44.2,10.4,43.6,10.8z M27.4,11.6h-5.8c-0.104,0-0.2,0.1-0.304,0.2
				c-0.1,0.1-0.196,0.3-0.196,0.6v2c0,0.3,0.1,0.5,0.196,0.6c0.104,0.1,0.2,0.2,0.304,0.2h5.8c0.1,0,0.2-0.1,0.3-0.2
				s0.2-0.3,0.2-0.6v-2c0-0.2-0.104-0.4-0.2-0.6C27.6,11.7,27.5,11.6,27.4,11.6z"/>
		</defs>
		<clipPath id="SVGID_19_">
			<use xlink:href="#SVGID_18_"  overflow="visible"/>
		</clipPath>
		<path clip-path="url(#SVGID_19_)" fill="#FFFFFF" d="M7.198,5.923c-1.977,0.556-5.172,5.428-4.623,6.419
			c1.67,3.013,4.786-0.183,5.419-1.066c1.325-1.9,1.325-3.089,1.688-3.378c0.346-0.384,1.019-1.738,3.266-1.408
			c1.487,0.218,2.682,2.627,3.155,5.483c0.802,4.839,2.858,5.296,4.616,5.989c0.904,0.354-1.268,0.834-1.268,0.834
			s-3.501-1.086-4.136-6.17c-0.345-2.77-1.442-5.267-2.831-5.285c-2.188-0.029-3.07,3.243-3.07,3.243s-2.053,3.455-4.721,3.876
			c-1.804,0.23-3.399-1.056-3.07-2.591C2.16,9.36,6.739,4.74,6.739,4.74L8.01,4.023L7.198,5.923z"/>
	</g>
	<g>
		<defs>
			<path id="SVGID_20_" d="M43.6,10.8c-0.104,0.1-0.2,0.1-0.4,0.1c-0.4,0.1-1,0.1-1.8,0.2c-0.9,0-1.8,0.1-2.8,0.1
				c-1,0.1-2,0.1-3,0.1s-1.804,0-2.4,0c-0.7,0-1.3,0-1.7,0.1c-0.396,0.1-0.8,0.1-1,0.2S30.1,11.9,30.1,12C30,12.1,30,12.3,30,12.5
				v0.3c0,0.2,0,0.5,0,0.9c0,0.3,0.104,0.6,0.104,0.9c0.1,0.4,0.196,0.8,0.196,1.1v0.1l-0.6,0.7v0.1c-0.2,0.104-0.7,0.2-1.5,0.2
				c-1.6,0.101-2.9,0.101-4,0.101c-1,0-1.9,0-2.7-0.101c-0.7-0.1-1.2-0.2-1.6-0.2c-0.3-0.1-0.604-0.2-0.7-0.3c-0.2,0-0.4,0-0.7,0.1
				c-0.2,0.2-0.5,0.4-0.8,0.8c-0.4,0.399-0.8,1-1.2,1.899C16.1,20,15.6,21.2,15,22.7c-0.6,1.5-1.3,3.3-2,5.6v0.2
				c0,0.7-0.2,1.1-0.5,1.2c-0.2,0.2-0.3,0.2-0.5,0.1H2.8c0-0.1,0-0.3,0-0.399C2.9,29.2,3,28.9,3,28.8H2.3c-0.1,0-0.196,0-0.3,0
				c-0.6-0.1-1.1-0.3-1.5-0.899C0.3,27.6,0.2,27.2,0.2,26.8c0-0.6,0.1-1.1,0.2-1.5c0.1-0.5,0.2-0.7,0.2-0.8v0.1
				c0,0,0.196-0.3,0.5-0.699c0.3-0.397,0.6-1,1.1-1.601c0.5-0.7,0.9-1.399,1.4-2.2c0.6-0.8,1.1-1.5,1.6-2.3c0.5-1,1-2,1.3-2.8
				C6.9,14.2,7,13.5,7,12.8c0-0.4-0.1-0.8-0.2-1.2c-0.196-0.5-0.6-0.9-1-1.2C5.4,10.1,5,9.9,4.5,9.7C4.1,9.6,3.9,9.4,3.7,9.1
				c-0.1-0.3-0.2-0.6-0.2-1c0-0.1,0-0.3,0-0.4c0-0.1,0-0.2,0-0.3V7.3V5.2c0-0.4,0-0.7,0-0.9c0-0.2,0-0.4-0.1-0.5l0,0c0,0,0,0,0-0.1
				V3.6V3.5c0-0.1,0.2-0.1,0.396-0.2C4,3.1,4.6,3.1,5.6,3c0.1-0.1,0.1-0.2,0.1-0.2c0-0.1,0-0.1,0.1-0.2C5.8,2.5,5.9,2.4,6,2.3
				L6.1,2.2H7.3L7.4,2.5c0.1,0.1,0.1,0.1,0.1,0.2c0,0.1,0,0.2,0,0.2h33.9l0.1-0.2C41.6,2.6,41.6,2.6,41.6,2.6l0.8-0.2
				c0,0.1,0.1,0.1,0.2,0.2L42.8,2.8h1.5L44.6,7.3C44.5,9.3,44.2,10.4,43.6,10.8z M27.4,11.6h-5.8c-0.104,0-0.2,0.1-0.304,0.2
				c-0.1,0.1-0.196,0.3-0.196,0.6v2c0,0.3,0.1,0.5,0.196,0.6c0.104,0.1,0.2,0.2,0.304,0.2h5.8c0.1,0,0.2-0.1,0.3-0.2
				s0.2-0.3,0.2-0.6v-2c0-0.2-0.104-0.4-0.2-0.6C27.6,11.7,27.5,11.6,27.4,11.6z"/>
		</defs>
		<clipPath id="SVGID_21_">
			<use xlink:href="#SVGID_20_"  overflow="visible"/>
		</clipPath>
		<path clip-path="url(#SVGID_21_)" fill="#FFFFFF" d="M9.006,14.148c0.88-1.257,2.833-3.24,5.093-2.628
			c1.769,0.479,1.927,2.867,1.927,2.867s1.707,3.333-2.58,6.354c-4.145,1.094-4.822-5.281-4.822-5.281s2.1,2.757,3.936,2.595
			c1.731-0.156,3.083-2.484,3.083-2.484s-0.189-4.256-3.263-3.33c-1.97,0.594-3.911,3.14-3.911,3.14L9.006,14.148z"/>
	</g>
	<g>
		<defs>
			<path id="SVGID_22_" d="M43.6,10.8c-0.104,0.1-0.2,0.1-0.4,0.1c-0.4,0.1-1,0.1-1.8,0.2c-0.9,0-1.8,0.1-2.8,0.1
				c-1,0.1-2,0.1-3,0.1s-1.804,0-2.4,0c-0.7,0-1.3,0-1.7,0.1c-0.396,0.1-0.8,0.1-1,0.2S30.1,11.9,30.1,12C30,12.1,30,12.3,30,12.5
				v0.3c0,0.2,0,0.5,0,0.9c0,0.3,0.104,0.6,0.104,0.9c0.1,0.4,0.196,0.8,0.196,1.1v0.1l-0.6,0.7v0.1c-0.2,0.104-0.7,0.2-1.5,0.2
				c-1.6,0.101-2.9,0.101-4,0.101c-1,0-1.9,0-2.7-0.101c-0.7-0.1-1.2-0.2-1.6-0.2c-0.3-0.1-0.604-0.2-0.7-0.3c-0.2,0-0.4,0-0.7,0.1
				c-0.2,0.2-0.5,0.4-0.8,0.8c-0.4,0.399-0.8,1-1.2,1.899C16.1,20,15.6,21.2,15,22.7c-0.6,1.5-1.3,3.3-2,5.6v0.2
				c0,0.7-0.2,1.1-0.5,1.2c-0.2,0.2-0.3,0.2-0.5,0.1H2.8c0-0.1,0-0.3,0-0.399C2.9,29.2,3,28.9,3,28.8H2.3c-0.1,0-0.196,0-0.3,0
				c-0.6-0.1-1.1-0.3-1.5-0.899C0.3,27.6,0.2,27.2,0.2,26.8c0-0.6,0.1-1.1,0.2-1.5c0.1-0.5,0.2-0.7,0.2-0.8v0.1
				c0,0,0.196-0.3,0.5-0.699c0.3-0.397,0.6-1,1.1-1.601c0.5-0.7,0.9-1.399,1.4-2.2c0.6-0.8,1.1-1.5,1.6-2.3c0.5-1,1-2,1.3-2.8
				C6.9,14.2,7,13.5,7,12.8c0-0.4-0.1-0.8-0.2-1.2c-0.196-0.5-0.6-0.9-1-1.2C5.4,10.1,5,9.9,4.5,9.7C4.1,9.6,3.9,9.4,3.7,9.1
				c-0.1-0.3-0.2-0.6-0.2-1c0-0.1,0-0.3,0-0.4c0-0.1,0-0.2,0-0.3V7.3V5.2c0-0.4,0-0.7,0-0.9c0-0.2,0-0.4-0.1-0.5l0,0c0,0,0,0,0-0.1
				V3.6V3.5c0-0.1,0.2-0.1,0.396-0.2C4,3.1,4.6,3.1,5.6,3c0.1-0.1,0.1-0.2,0.1-0.2c0-0.1,0-0.1,0.1-0.2C5.8,2.5,5.9,2.4,6,2.3
				L6.1,2.2H7.3L7.4,2.5c0.1,0.1,0.1,0.1,0.1,0.2c0,0.1,0,0.2,0,0.2h33.9l0.1-0.2C41.6,2.6,41.6,2.6,41.6,2.6l0.8-0.2
				c0,0.1,0.1,0.1,0.2,0.2L42.8,2.8h1.5L44.6,7.3C44.5,9.3,44.2,10.4,43.6,10.8z M27.4,11.6h-5.8c-0.104,0-0.2,0.1-0.304,0.2
				c-0.1,0.1-0.196,0.3-0.196,0.6v2c0,0.3,0.1,0.5,0.196,0.6c0.104,0.1,0.2,0.2,0.304,0.2h5.8c0.1,0,0.2-0.1,0.3-0.2
				s0.2-0.3,0.2-0.6v-2c0-0.2-0.104-0.4-0.2-0.6C27.6,11.7,27.5,11.6,27.4,11.6z"/>
		</defs>
		<clipPath id="SVGID_23_">
			<use xlink:href="#SVGID_22_"  overflow="visible"/>
		</clipPath>
		<path clip-path="url(#SVGID_23_)" fill="#A089F4" d="M13.781,7.411"/>
	</g>
</g>
<g>
	<path fill="#F3FFFE" d="M15.603,25.66l-1.152,2.48h-2.393l5.494-10.897h2.658l1.595,10.897h-2.304l-0.266-2.48H15.603z
		 M18.527,19.546l-1.86,3.987h2.303L18.527,19.546z"/>
	<path fill="#F3FFFE" d="M25.173,28.141c-0.62,0-1.151-0.177-1.506-0.62c-0.353-0.443-0.443-0.975-0.353-1.595l1.238-6.733
		c0.091-0.621,0.354-1.152,0.887-1.507c0.442-0.354,0.977-0.531,1.683-0.531h3.544c0.621,0,1.152,0.177,1.507,0.62
		c0.354,0.443,0.443,0.975,0.354,1.595l-0.268,1.684h-2.305l0.267-1.418c0-0.177,0-0.266,0-0.354
		c-0.09-0.088-0.178-0.088-0.353-0.088h-2.392c-0.354,0-0.62,0.177-0.71,0.62l-1.063,5.848c0,0.178,0,0.266,0,0.354
		c0.089,0.089,0.177,0.089,0.354,0.089h2.392c0.354,0,0.621-0.178,0.71-0.621l0.177-1.239h2.304l-0.442,1.861
		c-0.09,0.621-0.353,1.153-0.887,1.507c-0.442,0.353-0.975,0.532-1.682,0.532L25.173,28.141L25.173,28.141z"/>
	<path fill="#F3FFFE" d="M41.919,17.243l-0.354,2.037h-5.05l-0.442,2.215h4.077l-0.354,2.038h-4.077l-0.443,2.481h5.05l-0.354,2.04
		h-7.264l1.947-10.811L41.919,17.243L41.919,17.243z"/>
</g>
</svg>
