<?xml version="1.0" encoding="utf-8"?>
<!-- Generator: Adobe Illustrator 16.0.0, SVG Export Plug-In . SVG Version: 6.00 Build 0)  -->
<!DOCTYPE svg PUBLIC "-//W3C//DTD SVG 1.0//EN" "http://www.w3.org/TR/2001/REC-SVG-20010904/DTD/svg10.dtd">
<svg version="1.0" id="图层_1" xmlns="http://www.w3.org/2000/svg" xmlns:xlink="http://www.w3.org/1999/xlink" x="0px" y="0px"
	 width="44.9px" height="32px" viewBox="0 0 44.9 32" enable-background="new 0 0 44.9 32" xml:space="preserve">
<linearGradient id="SVGID_1_" gradientUnits="userSpaceOnUse" x1="742.9968" y1="578.7324" x2="785.1274" y2="578.7324" gradientTransform="matrix(1 0 0 1 -741.9199 -562.1992)">
	<stop  offset="0" style="stop-color:#5782CE"/>
	<stop  offset="0.9898" style="stop-color:#5CAEFF"/>
</linearGradient>
<linearGradient id="SVGID_2_" gradientUnits="userSpaceOnUse" x1="371.6169" y1="-263.1333" x2="414.6287" y2="-263.1333" gradientTransform="matrix(1 0 0 -1 -370.96 -246.5996)">
	<stop  offset="0" style="stop-color:#86D4F7"/>
	<stop  offset="1" style="stop-color:#DEF6FF"/>
</linearGradient>
<path fill="url(#SVGID_1_)" stroke="url(#SVGID_2_)" stroke-width="0.75" stroke-miterlimit="10" d="M42.343,11.552
	c-0.098,0.096-0.189,0.096-0.382,0.096c-0.381,0.095-0.951,0.095-1.713,0.19c-0.855,0-1.713,0.095-2.665,0.095
	c-0.951,0.095-1.902,0.095-2.854,0.095c-0.951,0-1.716,0-2.284,0c-0.667,0-1.237,0-1.618,0.095c-0.379,0.095-0.762,0.095-0.952,0.19
	c-0.189,0.096-0.38,0.286-0.38,0.381c-0.096,0.095-0.096,0.285-0.096,0.476v0.285c0,0.19,0,0.476,0,0.857
	c0,0.286,0.098,0.571,0.098,0.856c0.095,0.381,0.188,0.761,0.188,1.047v0.095l-0.571,0.667v0.096
	c-0.19,0.098-0.666,0.191-1.427,0.191c-1.523,0.096-2.762,0.096-3.809,0.096c-0.952,0-1.809,0-2.569-0.096
	c-0.667-0.097-1.143-0.191-1.522-0.191c-0.285-0.096-0.574-0.189-0.667-0.285c-0.189,0-0.381,0-0.667,0.096
	c-0.189,0.189-0.476,0.381-0.761,0.762c-0.381,0.379-0.761,0.951-1.143,1.808c-0.38,0.856-0.855,2-1.428,3.428
	c-0.571,1.429-1.237,3.142-1.904,5.33v0.188c0,0.668-0.189,1.047-0.476,1.144c-0.19,0.19-0.285,0.19-0.476,0.097H3.507
	c0-0.097,0-0.285,0-0.382c0.097-0.188,0.191-0.476,0.191-0.569H3.031c-0.095,0-0.188,0-0.286,0c-0.57-0.097-1.046-0.287-1.428-0.857
	c-0.19-0.285-0.285-0.666-0.285-1.047c0-0.57,0.095-1.047,0.19-1.428c0.095-0.478,0.189-0.666,0.189-0.763v0.097
	c0,0,0.188-0.285,0.477-0.666c0.285-0.379,0.57-0.951,1.047-1.523c0.476-0.666,0.856-1.332,1.333-2.094
	c0.57-0.762,1.047-1.428,1.522-2.189c0.477-0.951,0.952-1.904,1.237-2.665c0.381-0.761,0.476-1.428,0.476-2.094
	c0-0.38-0.095-0.761-0.189-1.142c-0.188-0.476-0.571-0.856-0.952-1.142c-0.38-0.286-0.761-0.476-1.237-0.666
	c-0.38-0.095-0.57-0.286-0.761-0.571c-0.095-0.289-0.19-0.574-0.19-0.955c0-0.095,0-0.286,0-0.381c0-0.095,0-0.19,0-0.286V8.221
	V6.222c0-0.381,0-0.667,0-0.857c0-0.19,0-0.381-0.095-0.476l0,0c0,0,0,0,0-0.095V4.699V4.604c0-0.095,0.19-0.095,0.378-0.191
	c0.192-0.19,0.765-0.19,1.716-0.285c0.096-0.095,0.096-0.19,0.096-0.19c0-0.095,0-0.095,0.095-0.19c0-0.096,0.096-0.191,0.191-0.286
	L6.65,3.367h1.14l0.096,0.285c0.096,0.096,0.096,0.096,0.096,0.191c0,0.095,0,0.19,0,0.19h32.267l0.095-0.19
	c0.097-0.095,0.097-0.095,0.097-0.095L41.2,3.557c0,0.095,0.095,0.095,0.19,0.191l0.188,0.19h1.428l0.286,4.283
	C43.198,10.124,42.913,11.171,42.343,11.552z M26.923,12.313h-5.521c-0.098,0-0.19,0.096-0.288,0.19
	c-0.095,0.095-0.188,0.286-0.188,0.571v1.903c0,0.286,0.096,0.476,0.188,0.571c0.098,0.095,0.19,0.19,0.288,0.19h5.521
	c0.096,0,0.19-0.095,0.285-0.19c0.096-0.095,0.19-0.285,0.19-0.571v-1.903c0-0.19-0.099-0.381-0.19-0.571
	C27.113,12.409,27.017,12.313,26.923,12.313z"/>
<g>
	<g>
		<defs>
			<path id="SVGID_3_" d="M42.296,11.599c-0.098,0.096-0.189,0.096-0.382,0.096c-0.381,0.095-0.951,0.095-1.713,0.19
				c-0.855,0-1.713,0.095-2.665,0.095c-0.951,0.095-1.902,0.095-2.854,0.095c-0.951,0-1.716,0-2.284,0c-0.667,0-1.237,0-1.618,0.095
				c-0.379,0.095-0.762,0.095-0.952,0.19c-0.189,0.096-0.38,0.286-0.38,0.381c-0.096,0.095-0.096,0.285-0.096,0.476v0.285
				c0,0.19,0,0.476,0,0.857c0,0.286,0.098,0.571,0.098,0.856c0.095,0.381,0.188,0.761,0.188,1.047v0.095l-0.571,0.667v0.096
				c-0.19,0.098-0.666,0.191-1.427,0.191c-1.523,0.096-2.762,0.096-3.809,0.096c-0.952,0-1.809,0-2.569-0.096
				c-0.667-0.097-1.143-0.191-1.522-0.191c-0.285-0.096-0.574-0.189-0.667-0.285c-0.189,0-0.381,0-0.667,0.096
				c-0.189,0.189-0.476,0.381-0.761,0.762c-0.381,0.379-0.761,0.951-1.143,1.808c-0.38,0.856-0.855,2-1.428,3.428
				c-0.571,1.429-1.237,3.142-1.904,5.33v0.188c0,0.668-0.189,1.047-0.476,1.144c-0.19,0.19-0.285,0.19-0.476,0.097H3.46
				c0-0.097,0-0.285,0-0.382c0.097-0.188,0.191-0.476,0.191-0.569H2.984c-0.095,0-0.188,0-0.286,0
				c-0.57-0.097-1.046-0.287-1.428-0.857c-0.19-0.285-0.285-0.666-0.285-1.047c0-0.57,0.095-1.047,0.19-1.428
				c0.095-0.478,0.189-0.666,0.189-0.763v0.097c0,0,0.188-0.285,0.477-0.666c0.285-0.379,0.57-0.951,1.047-1.523
				c0.476-0.666,0.856-1.332,1.333-2.094c0.57-0.762,1.047-1.428,1.522-2.189c0.477-0.951,0.952-1.904,1.237-2.665
				c0.381-0.761,0.476-1.428,0.476-2.094c0-0.38-0.095-0.761-0.189-1.142c-0.188-0.476-0.571-0.856-0.952-1.142
				c-0.38-0.286-0.761-0.476-1.237-0.666c-0.38-0.095-0.57-0.286-0.761-0.571c-0.095-0.289-0.19-0.574-0.19-0.955
				c0-0.095,0-0.286,0-0.381c0-0.095,0-0.19,0-0.286V8.268V6.269c0-0.381,0-0.667,0-0.857c0-0.19,0-0.381-0.095-0.476l0,0
				c0,0,0,0,0-0.095V4.746V4.651c0-0.095,0.19-0.095,0.378-0.191c0.192-0.19,0.765-0.19,1.716-0.285
				c0.096-0.095,0.096-0.19,0.096-0.19c0-0.095,0-0.095,0.095-0.19c0-0.096,0.096-0.191,0.191-0.286l0.096-0.095h1.14l0.096,0.285
				C7.934,3.795,7.934,3.795,7.934,3.89c0,0.095,0,0.19,0,0.19h32.267l0.095-0.19c0.097-0.095,0.097-0.095,0.097-0.095l0.761-0.191
				c0,0.095,0.095,0.095,0.19,0.191l0.188,0.19h1.428l0.286,4.283C43.151,10.171,42.866,11.218,42.296,11.599z M26.876,12.36h-5.521
				c-0.098,0-0.19,0.096-0.288,0.19c-0.095,0.095-0.188,0.286-0.188,0.571v1.903c0,0.286,0.096,0.476,0.188,0.571
				c0.098,0.095,0.19,0.19,0.288,0.19h5.521c0.096,0,0.19-0.095,0.285-0.19c0.096-0.095,0.19-0.285,0.19-0.571v-1.903
				c0-0.19-0.099-0.381-0.19-0.571C27.066,12.456,26.97,12.36,26.876,12.36z"/>
		</defs>
		<clipPath id="SVGID_4_">
			<use xlink:href="#SVGID_3_"  overflow="visible"/>
		</clipPath>
		<g clip-path="url(#SVGID_4_)">
			<polygon fill="#296A75" points="12.458,29.886 -1.393,30.622 10.695,9.535 17.45,13.081 20.15,13.002 			"/>
			
				<linearGradient id="SVGID_5_" gradientUnits="userSpaceOnUse" x1="720.7332" y1="578.8398" x2="769.9011" y2="578.8398" gradientTransform="matrix(1 0 0 1 -741.9199 -562.1992)">
				<stop  offset="5.581969e-004" style="stop-color:#FF9500"/>
				<stop  offset="1" style="stop-color:#EFB941"/>
			</linearGradient>
			<path fill="url(#SVGID_5_)" d="M-21.021,9.021h16.527l5.843-0.419l0.444-4.035l9.711-1.827l5.155,1.298
				c0,0,9.495,0.743,11.323,4.368c0,0-1.985,0.073-2.876,2.2c-0.893,2.125-2.194,3.62-4.233,4.05
				c-2.042,0.428-3.726-1.948-5.505-0.906c-0.878,0.514-1.677,1.013-2.162,1.688c-0.498,0.692-0.111,2.287-0.782,2.895
				c-2.354,2.247-7.348,0.376-8.473-1.395c-1.072,1.544-2.625,4.646-1,5.188c0.905,0.781,3.645,2.081,6.104,2.104
				c4.501,0.042,8.089-3.72,7.73-2.166c-0.347,1.498-3.354,8.479-3.354,8.479l-19.417-0.354l-8.446-6.458l-5.786,0.928l-0.967-1.368
				L-21.021,9.021z"/>
			<path fill="#E264CA" d="M4.091,22.934c0,0-3.297,6.098,4.336,5.795c4.386-0.239,4.778-5.4,4.778-5.4
				C8.795,25.572,4.091,22.934,4.091,22.934z"/>
			<path fill="#3D9AB7" d="M16.887,17.016c0,0,0.234-1.969-1.422-1.969c-2.328,0-2,2.219-2,2.219s0.594,2.266-3.719,2.813
				c-2.96,0.548-6.75-3.254-6.75-3.254l-1.538,2.288c0,0,4.82,5.565,10.991,3.263C16.405,21.223,16.887,17.016,16.887,17.016z"/>
			<path fill="#4383FF" d="M2.175,10.239c0,0-2.559,1.217-3.567,1.217s1.048,0.761,1.048,0.761l-2.292,2.865l0.866,1.908
				l5.536,0.186l0.222-7.641L2.175,10.239z"/>
			<path fill="#8600EE" d="M12.041,9.041c0,0-2.138-1.619-5.018,0.114c-2.719,1.466-3.037,7.122,1.698,7.642
				c4.063,0.445,4.865-4.494,2.549-5.18c-2.318-0.684-2.207,1.667-1.945,1.915c0,0,0.141,0.297-0.469,0.328
				c-0.282,0.015-0.398-0.335-0.398-0.335s-0.938-2.856,2.252-2.827c3.552,0.053,2.422,4.007,2.422,4.007s1.514-2.23,3.432-2.088
				c2.168,0.163,1.787,0.905,3.181,1.18c1.452,0.286,2.923,0.204,4.214-2.799c0.959-2.138,2.959-3.013,2.959-3.013
				s-2.906-0.938-4.8,1.584c-1.075,1.354-2.55,0.75-3.416-0.185c-1.27-1.371-2.734-1.798-5.03-1.385
				C12.926,8.133,12.041,9.041,12.041,9.041z"/>
			<ellipse fill="#00A625" cx="-6.605" cy="18.232" rx="3.793" ry="3.582"/>
			<path fill="#A20063" d="M16.387,4.333c0,0,1.864,0.327,4.781,1.026c3.294,0.388,4.828,1.922,4.828,1.922
				s-2.453-0.391-4.087,1.158c-0.667,1.227-1.3,1.284-1.936,1.001c-0.635-0.287-1.376-1.742-3.416-2.015
				c-1.841-0.244-0.15-2.113-0.15-2.113L16.387,4.333z"/>
			<path fill="#F58800" d="M1.935,4.038c0.046,0.015,2.838,5.816,2.838,5.816L8.4,7.928L6.512,2.697L1.935,4.038z"/>
			<polygon fill="#FFE66C" points="7.482,1.866 8.973,7.846 11.633,8.241 11.275,1.438 			"/>
			<path fill="#646BFF" d="M16.596,2.25c0,0-1.458,4.65-1.472,5.083c0,0-2.224-0.159-2.932,0.649l0.175-6.128L16.596,2.25z"/>
		</g>
	</g>
</g>
</svg>
