<?xml version="1.0" encoding="utf-8"?>
<!-- Generator: Adobe Illustrator 16.0.0, SVG Export Plug-In . SVG Version: 6.00 Build 0)  -->
<!DOCTYPE svg PUBLIC "-//W3C//DTD SVG 1.0//EN" "http://www.w3.org/TR/2001/REC-SVG-20010904/DTD/svg10.dtd">
<svg version="1.0" id="图层_1" xmlns="http://www.w3.org/2000/svg" xmlns:xlink="http://www.w3.org/1999/xlink" x="0px" y="0px"
	 width="44.9px" height="32px" viewBox="0 0 44.9 32" enable-background="new 0 0 44.9 32" xml:space="preserve">
<path opacity="0.7" fill="#CE0B4C" enable-background="new    " d="M19.654,8.302c0,0-3.938,0.732-7.052,5.129
	c0,0,2.657,1.19,1.741,1.924s-4.946-0.366-11.908,6.594c0,0,2.839-1.281,6.686-1.557c3.848-0.275-1.007,2.29-2.106,2.931
	c0,0,7.144-3.571,9.16-3.297c2.015,0.273-7.145,5.495-11.083,7.327c0,0,11.999-3.938,13.373-3.755
	c1.374,0.183-0.733,2.381-4.031,3.755c0,0,6.87,0,11.45-2.106s5.496-2.382,5.496-1.19c0,0,4.028-2.565,2.839-3.481
	s3.023-2.107,5.862-4.214s4.028-3.48,4.028-3.48s-6.867,3.023-8.975,3.115c-2.105,0.092,1.374-2.839,5.129-4.488
	c3.757-1.649,4.946-4.671,4.946-4.671s-5.129,0.183-11.723,3.48c-6.597,3.297-7.328,4.397-6.779,2.381
	c0.55-2.015,6.595-4.854,6.595-4.854s-8.427,0.183-12.274,3.206c-3.846,3.022-2.748-0.733-1.923-1.465
	C19.93,8.851,19.654,8.302,19.654,8.302z"/>
<g id="Selected_Items_1_">
	<g>
		<g id="Selected_Items_2_">
			
				<linearGradient id="SVGID_1_" gradientUnits="userSpaceOnUse" x1="375.2068" y1="-262.6328" x2="419.4705" y2="-262.6328" gradientTransform="matrix(1 0 0 -1 -374.96 -246.5996)">
				<stop  offset="0" style="stop-color:#FF2F7D"/>
				<stop  offset="1" style="stop-color:#FF8053"/>
			</linearGradient>
			<path fill="url(#SVGID_1_)" d="M43.6,10.8c-0.103,0.1-0.2,0.1-0.4,0.1c-0.4,0.1-1,0.1-1.8,0.2c-0.9,0-1.8,0.1-2.8,0.1
				c-1,0.1-2,0.1-3,0.1s-1.803,0-2.4,0c-0.7,0-1.3,0-1.7,0.1c-0.397,0.1-0.8,0.1-1,0.2S30.1,11.9,30.1,12C30,12.1,30,12.3,30,12.5
				v0.3c0,0.2,0,0.5,0,0.9c0,0.3,0.103,0.6,0.103,0.9c0.1,0.4,0.197,0.8,0.197,1.1v0.1l-0.6,0.7v0.1c-0.2,0.103-0.7,0.2-1.5,0.2
				c-1.6,0.101-2.9,0.101-4,0.101c-1,0-1.9,0-2.7-0.101c-0.7-0.1-1.2-0.2-1.6-0.2c-0.3-0.1-0.603-0.2-0.7-0.3c-0.2,0-0.4,0-0.7,0.1
				c-0.2,0.2-0.5,0.4-0.8,0.8c-0.4,0.399-0.8,1-1.2,1.899C16.1,20,15.6,21.2,15,22.7c-0.6,1.5-1.3,3.3-2,5.6v0.2
				c0,0.7-0.2,1.1-0.5,1.2c-0.2,0.2-0.3,0.2-0.5,0.1H2.8c0-0.1,0-0.3,0-0.399C2.9,29.2,3,28.9,3,28.8H2.3c-0.1,0-0.197,0-0.3,0
				c-0.6-0.1-1.1-0.3-1.5-0.899C0.3,27.6,0.2,27.2,0.2,26.8c0-0.6,0.1-1.1,0.2-1.5c0.1-0.5,0.2-0.7,0.2-0.8v0.1
				c0,0,0.197-0.3,0.5-0.699c0.3-0.398,0.6-1,1.1-1.601c0.5-0.7,0.9-1.399,1.4-2.2c0.6-0.8,1.1-1.5,1.6-2.3c0.5-1,1-2,1.3-2.8
				C6.9,14.2,7,13.5,7,12.8c0-0.4-0.1-0.8-0.2-1.2c-0.197-0.5-0.6-0.9-1-1.2C5.4,10.1,5,9.9,4.5,9.7C4.1,9.6,3.9,9.4,3.7,9.1
				c-0.1-0.3-0.2-0.6-0.2-1c0-0.1,0-0.3,0-0.4c0-0.1,0-0.2,0-0.3V7.3V5.2c0-0.4,0-0.7,0-0.9c0-0.2,0-0.4-0.1-0.5l0,0c0,0,0,0,0-0.1
				V3.6V3.5c0-0.1,0.2-0.1,0.397-0.2C4,3.1,4.6,3.1,5.6,3c0.1-0.1,0.1-0.2,0.1-0.2c0-0.1,0-0.1,0.1-0.2C5.8,2.5,5.9,2.4,6,2.3
				L6.1,2.2H7.3L7.4,2.5c0.1,0.1,0.1,0.1,0.1,0.2c0,0.1,0,0.2,0,0.2h33.9l0.1-0.2C41.6,2.6,41.6,2.6,41.6,2.6l0.8-0.2
				c0,0.1,0.1,0.1,0.2,0.2L42.8,2.8h1.5L44.6,7.3C44.5,9.3,44.2,10.4,43.6,10.8z M27.4,11.6h-5.8c-0.103,0-0.2,0.1-0.303,0.2
				c-0.1,0.1-0.197,0.3-0.197,0.6v2c0,0.3,0.1,0.5,0.197,0.6c0.103,0.1,0.2,0.2,0.303,0.2h5.8c0.1,0,0.2-0.1,0.3-0.2
				s0.2-0.3,0.2-0.6v-2c0-0.2-0.103-0.4-0.2-0.6C27.6,11.7,27.5,11.6,27.4,11.6z"/>
		</g>
	</g>
</g>
<g>
	<g>
		<defs>
			<path id="SVGID_2_" d="M43.6,10.8c-0.103,0.1-0.2,0.1-0.4,0.1c-0.4,0.1-1,0.1-1.8,0.2c-0.9,0-1.8,0.1-2.8,0.1c-1,0.1-2,0.1-3,0.1
				s-1.803,0-2.4,0c-0.7,0-1.3,0-1.7,0.1c-0.397,0.1-0.8,0.1-1,0.2S30.1,11.9,30.1,12C30,12.1,30,12.3,30,12.5v0.3
				c0,0.2,0,0.5,0,0.9c0,0.3,0.103,0.6,0.103,0.9c0.1,0.4,0.197,0.8,0.197,1.1v0.1l-0.6,0.7v0.1c-0.2,0.103-0.7,0.2-1.5,0.2
				c-1.6,0.101-2.9,0.101-4,0.101c-1,0-1.9,0-2.7-0.101c-0.7-0.1-1.2-0.2-1.6-0.2c-0.3-0.1-0.603-0.2-0.7-0.3c-0.2,0-0.4,0-0.7,0.1
				c-0.2,0.2-0.5,0.4-0.8,0.8c-0.4,0.399-0.8,1-1.2,1.899C16.1,20,15.6,21.2,15,22.7c-0.6,1.5-1.3,3.3-2,5.6v0.2
				c0,0.7-0.2,1.1-0.5,1.2c-0.2,0.2-0.3,0.2-0.5,0.1H2.8c0-0.1,0-0.3,0-0.399C2.9,29.2,3,28.9,3,28.8H2.3c-0.1,0-0.197,0-0.3,0
				c-0.6-0.1-1.1-0.3-1.5-0.899C0.3,27.6,0.2,27.2,0.2,26.8c0-0.6,0.1-1.1,0.2-1.5c0.1-0.5,0.2-0.7,0.2-0.8v0.1
				c0,0,0.197-0.3,0.5-0.699c0.3-0.398,0.6-1,1.1-1.601c0.5-0.7,0.9-1.399,1.4-2.2c0.6-0.8,1.1-1.5,1.6-2.3c0.5-1,1-2,1.3-2.8
				C6.9,14.2,7,13.5,7,12.8c0-0.4-0.1-0.8-0.2-1.2c-0.197-0.5-0.6-0.9-1-1.2C5.4,10.1,5,9.9,4.5,9.7C4.1,9.6,3.9,9.4,3.7,9.1
				c-0.1-0.3-0.2-0.6-0.2-1c0-0.1,0-0.3,0-0.4c0-0.1,0-0.2,0-0.3V7.3V5.2c0-0.4,0-0.7,0-0.9c0-0.2,0-0.4-0.1-0.5l0,0c0,0,0,0,0-0.1
				V3.6V3.5c0-0.1,0.2-0.1,0.397-0.2C4,3.1,4.6,3.1,5.6,3c0.1-0.1,0.1-0.2,0.1-0.2c0-0.1,0-0.1,0.1-0.2C5.8,2.5,5.9,2.4,6,2.3
				L6.1,2.2H7.3L7.4,2.5c0.1,0.1,0.1,0.1,0.1,0.2c0,0.1,0,0.2,0,0.2h33.9l0.1-0.2C41.6,2.6,41.6,2.6,41.6,2.6l0.8-0.2
				c0,0.1,0.1,0.1,0.2,0.2L42.8,2.8h1.5L44.6,7.3C44.5,9.3,44.2,10.4,43.6,10.8z M27.4,11.6h-5.8c-0.103,0-0.2,0.1-0.303,0.2
				c-0.1,0.1-0.197,0.3-0.197,0.6v2c0,0.3,0.1,0.5,0.197,0.6c0.103,0.1,0.2,0.2,0.303,0.2h5.8c0.1,0,0.2-0.1,0.3-0.2
				s0.2-0.3,0.2-0.6v-2c0-0.2-0.103-0.4-0.2-0.6C27.6,11.7,27.5,11.6,27.4,11.6z"/>
		</defs>
		<clipPath id="SVGID_3_">
			<use xlink:href="#SVGID_2_"  overflow="visible"/>
		</clipPath>
		<g clip-path="url(#SVGID_3_)">
			<g>
				<g>
					
						<linearGradient id="SVGID_4_" gradientUnits="userSpaceOnUse" x1="754.8396" y1="576.4414" x2="787.006" y2="567.9634" gradientTransform="matrix(1 0 0 1 -749.9199 -562.1992)">
						<stop  offset="2.054068e-007" style="stop-color:#FE6198"/>
						<stop  offset="1" style="stop-color:#FFC9D4"/>
					</linearGradient>
					<polygon fill="url(#SVGID_4_)" points="-5.099,18.021 -0.842,18.021 2.42,13.763 -1.839,13.763 					"/>
					
						<linearGradient id="SVGID_5_" gradientUnits="userSpaceOnUse" x1="754.2761" y1="574.3018" x2="786.442" y2="565.824" gradientTransform="matrix(1 0 0 1 -749.9199 -562.1992)">
						<stop  offset="2.054068e-007" style="stop-color:#FE6198"/>
						<stop  offset="1" style="stop-color:#FFC9D4"/>
					</linearGradient>
					<polygon fill="url(#SVGID_5_)" points="5.591,9.505 2.42,13.763 6.677,13.763 9.848,9.505 					"/>
					
						<linearGradient id="SVGID_6_" gradientUnits="userSpaceOnUse" x1="755.3943" y1="578.541" x2="787.5641" y2="570.0622" gradientTransform="matrix(1 0 0 1 -749.9199 -562.1992)">
						<stop  offset="2.054068e-007" style="stop-color:#FE6198"/>
						<stop  offset="1" style="stop-color:#FFC9D4"/>
					</linearGradient>
					<polygon fill="url(#SVGID_6_)" points="3.416,18.021 7.674,18.021 10.935,13.763 6.677,13.763 					"/>
					
						<linearGradient id="SVGID_7_" gradientUnits="userSpaceOnUse" x1="754.8289" y1="576.4014" x2="786.9965" y2="567.923" gradientTransform="matrix(1 0 0 1 -749.9199 -562.1992)">
						<stop  offset="2.054068e-007" style="stop-color:#FE6198"/>
						<stop  offset="1" style="stop-color:#FFC9D4"/>
					</linearGradient>
					<polygon fill="url(#SVGID_7_)" points="10.935,13.763 15.193,13.763 18.364,9.505 14.106,9.505 					"/>
					
						<linearGradient id="SVGID_8_" gradientUnits="userSpaceOnUse" x1="753.1589" y1="570.0635" x2="785.3265" y2="561.5851" gradientTransform="matrix(1 0 0 1 -749.9199 -562.1992)">
						<stop  offset="2.054068e-007" style="stop-color:#FE6198"/>
						<stop  offset="1" style="stop-color:#FFC9D4"/>
					</linearGradient>
					<polygon fill="url(#SVGID_8_)" points="4.594,5.248 1.333,9.505 5.591,9.505 8.852,5.248 					"/>
					
						<linearGradient id="SVGID_9_" gradientUnits="userSpaceOnUse" x1="752.5925" y1="567.9268" x2="784.767" y2="559.4467" gradientTransform="matrix(1 0 0 1 -749.9199 -562.1992)">
						<stop  offset="2.054068e-007" style="stop-color:#FE6198"/>
						<stop  offset="1" style="stop-color:#FFC9D4"/>
					</linearGradient>
					<polygon fill="url(#SVGID_9_)" points="16.28,0.99 12.022,0.99 8.852,5.248 13.11,5.248 					"/>
					
						<linearGradient id="SVGID_10_" gradientUnits="userSpaceOnUse" x1="753.7136" y1="572.1631" x2="785.8784" y2="563.6856" gradientTransform="matrix(1 0 0 1 -749.9199 -562.1992)">
						<stop  offset="2.054068e-007" style="stop-color:#FE6198"/>
						<stop  offset="1" style="stop-color:#FFC9D4"/>
					</linearGradient>
					<polygon fill="url(#SVGID_10_)" points="14.106,9.505 17.367,5.248 13.11,5.248 9.848,9.505 					"/>
					
						<linearGradient id="SVGID_11_" gradientUnits="userSpaceOnUse" x1="753.1462" y1="570.0244" x2="785.3157" y2="561.5456" gradientTransform="matrix(1 0 0 1 -749.9199 -562.1992)">
						<stop  offset="2.054068e-007" style="stop-color:#FE6198"/>
						<stop  offset="1" style="stop-color:#FFC9D4"/>
					</linearGradient>
					<polygon fill="url(#SVGID_11_)" points="24.797,0.99 20.537,0.99 17.367,5.248 21.625,5.248 					"/>
					
						<linearGradient id="SVGID_12_" gradientUnits="userSpaceOnUse" x1="755.3845" y1="578.499" x2="787.5494" y2="570.0214" gradientTransform="matrix(1 0 0 1 -749.9199 -562.1992)">
						<stop  offset="2.054068e-007" style="stop-color:#FE6198"/>
						<stop  offset="1" style="stop-color:#FFC9D4"/>
					</linearGradient>
					<polygon fill="url(#SVGID_12_)" points="19.451,13.763 23.709,13.763 26.879,9.505 22.622,9.505 					"/>
					
						<linearGradient id="SVGID_13_" gradientUnits="userSpaceOnUse" x1="754.8123" y1="576.3496" x2="786.983" y2="567.8705" gradientTransform="matrix(1 0 0 1 -749.9199 -562.1992)">
						<stop  offset="2.054068e-007" style="stop-color:#FE6198"/>
						<stop  offset="1" style="stop-color:#FFC9D4"/>
					</linearGradient>
					<polygon fill="url(#SVGID_13_)" points="26.879,9.505 31.137,9.505 34.308,5.248 30.05,5.248 					"/>
					
						<linearGradient id="SVGID_14_" gradientUnits="userSpaceOnUse" x1="754.2644" y1="574.2627" x2="786.4349" y2="565.7838" gradientTransform="matrix(1 0 0 1 -749.9199 -562.1992)">
						<stop  offset="2.054068e-007" style="stop-color:#FE6198"/>
						<stop  offset="1" style="stop-color:#FFC9D4"/>
					</linearGradient>
					<polygon fill="url(#SVGID_14_)" points="21.625,5.248 18.364,9.505 22.622,9.505 25.793,5.248 					"/>
					
						<linearGradient id="SVGID_15_" gradientUnits="userSpaceOnUse" x1="753.698" y1="572.1113" x2="785.8683" y2="563.6323" gradientTransform="matrix(1 0 0 1 -749.9199 -562.1992)">
						<stop  offset="2.054068e-007" style="stop-color:#FE6198"/>
						<stop  offset="1" style="stop-color:#FFC9D4"/>
					</linearGradient>
					<polygon fill="url(#SVGID_15_)" points="33.312,0.99 29.053,0.99 25.793,5.248 30.05,5.248 					"/>
					
						<linearGradient id="SVGID_16_" gradientUnits="userSpaceOnUse" x1="754.2517" y1="574.21" x2="786.4203" y2="565.7313" gradientTransform="matrix(1 0 0 1 -749.9199 -562.1992)">
						<stop  offset="2.054068e-007" style="stop-color:#FE6198"/>
						<stop  offset="1" style="stop-color:#FFC9D4"/>
					</linearGradient>
					<polygon fill="url(#SVGID_16_)" points="37.57,0.99 34.308,5.248 38.566,5.248 41.827,0.99 					"/>
				</g>
			</g>
		</g>
	</g>
</g>
<g>
	<path fill="#FFF0F4" d="M14.208,18.801l-1.191,2.564h-2.473l5.679-11.266h2.748l1.648,11.266h-2.381l-0.275-2.564H14.208z
		 M17.23,12.48l-1.923,4.122h2.381L17.23,12.48z"/>
	<path fill="#FFF0F4" d="M24.099,21.365c-0.641,0-1.19-0.184-1.557-0.642c-0.365-0.458-0.458-1.007-0.365-1.648l1.281-6.961
		c0.093-0.641,0.366-1.191,0.916-1.557c0.458-0.366,1.009-0.55,1.74-0.55h3.664c0.642,0,1.19,0.184,1.558,0.642
		c0.365,0.458,0.458,1.007,0.365,1.648l-0.275,1.74h-2.381l0.274-1.465c0-0.183,0-0.275,0-0.367
		c-0.092-0.091-0.184-0.091-0.366-0.091h-2.472c-0.367,0-0.642,0.183-0.733,0.642l-1.099,6.045c0,0.184,0,0.274,0,0.366
		c0.091,0.092,0.183,0.092,0.365,0.092h2.474c0.367,0,0.642-0.184,0.732-0.642l0.184-1.281h2.381l-0.458,1.923
		c-0.091,0.642-0.364,1.19-0.916,1.558c-0.458,0.365-1.007,0.549-1.739,0.549H24.099z"/>
	<path fill="#FFF0F4" d="M41.412,10.099l-0.367,2.106h-5.221l-0.458,2.29h4.214l-0.367,2.106H35l-0.458,2.565h5.222l-0.367,2.107
		h-7.511l2.016-11.175H41.412z"/>
</g>
</svg>
