<?xml version="1.0" encoding="utf-8"?>
<!-- Generator: Adobe Illustrator 16.0.0, SVG Export Plug-In . SVG Version: 6.00 Build 0)  -->
<!DOCTYPE svg PUBLIC "-//W3C//DTD SVG 1.0//EN" "http://www.w3.org/TR/2001/REC-SVG-20010904/DTD/svg10.dtd">
<svg version="1.0" id="Selected_Items" xmlns="http://www.w3.org/2000/svg" xmlns:xlink="http://www.w3.org/1999/xlink" x="0px"
	 y="0px" width="32.2px" height="32px" viewBox="0 0 32.2 32" enable-background="new 0 0 32.2 32" xml:space="preserve">
<linearGradient id="SVGID_1_" gradientUnits="userSpaceOnUse" x1="-9.765625e-004" y1="16.1904" x2="32.1001" y2="16.1904">
	<stop  offset="2.300000e-007" style="stop-color:#F8D27E"/>
	<stop  offset="1" style="stop-color:#B3751F"/>
</linearGradient>
<path fill="url(#SVGID_1_)" d="M31.8,11.6c-0.1,0.2-0.3,0.3-0.5,0.3c-0.4,0-3,0.1-7.9,0.1c-0.2,0-0.3,0-0.5,0.1
	c-0.3,0.1-0.5,0.3-0.6,0.5c-0.1,0.2-0.1,0.6,0,1.2c0,0.3,0.1,0.8,0.2,1.4c0,0.3,0.1,0.6,0.2,1c0,0.2-0.1,0.3-0.4,0.3
	c-0.6,0.1-1.1,0.2-1.6,0.3c-0.9,0.1-1.8,0.2-2.8,0.2c-1.6,0-3.3,0-5.2-0.2c-1.7,4.5-2.5,6.8-2.5,7.1c0,0.3,0.1,1.3,0.2,3
	c0.4,0.3,0.7,0.5,0.9,0.6c0.2,0.1,0.3,0.2,0.2,0.3c0,0.1,0,0.1-0.1,0.2L11,28.2c-0.3,0.1-0.6,0.1-0.9,0c-0.5-0.1-3.8-0.7-9.8-2
	c-0.3-0.1-0.3-0.9,0-2.5c0.1-0.7,0.4-1.7,0.9-3c0.5-1.3,0.9-2.4,1.4-3.2c0.4-0.8,0.8-1.7,1-2.6c0.3-0.9,0.4-1.6,0.4-2
	c-0.1-0.3-0.4-0.6-1.1-1c-0.5-0.3-1-0.5-1.5-0.6c-0.3,0-0.5-0.2-0.6-0.4c-0.1-0.1-0.2-0.2-0.3-0.4c-0.1-0.1-0.1-0.4-0.1-0.8
	c0-0.2,0-0.5,0-1c0-0.7,0-1.1,0.2-1.2c0.5-0.8,0.9-1.5,1.1-1.9C1.8,5.4,2,5.2,2.2,5c0.2-0.2,0.4-0.3,0.6-0.3c0.2,0,0.4,0,0.6,0
	l0.4,0c0.1-0.2,0.2-0.4,0.3-0.5C4.3,4,4.7,4.1,5.3,4.2l0.2,0.4h10.6V5h4.6V4.7l10.6,0l0.3,0.2c0.2,0.1,0.3,0.3,0.3,0.5
	c0.1,1,0.1,1.9,0.2,2.8c0.1,1.7,0,2.7,0,2.9C31.9,11.4,31.8,11.6,31.8,11.6z M20.8,12.6c-0.1-0.1-0.2-0.1-0.3-0.1v0.1l-3.4,0
	c-0.1,0.5-0.1,0.9,0.2,1.2c0.3,0.5,0.6,0.8,0.8,1c0.2,0.2,0.5,0.3,0.7,0.3c0.3,0,0.4,0.1,0.3,0.2c0,0.1-0.1,0.2-0.3,0.2
	c-0.1,0-0.3,0-0.5,0c-0.3-0.1-0.6-0.2-0.9-0.5c-0.5-0.5-0.9-0.9-1-1.2c-0.1-0.3-0.2-0.8-0.2-1.3l-0.7,0c-0.4,0-0.8,0.2-1.1,0.5
	c-0.3,0.3-0.4,0.7-0.4,1.1c0,0.3,0,0.6,0,1c0.1,0.3,0.3,0.6,0.8,0.7c0.7,0.3,1.3,0.4,1.9,0.3c0.7-0.1,1.3-0.2,1.7-0.2
	c0.2,0,0.6,0,1.1,0c0.5,0.1,0.9,0.1,1.1,0.1c0.3,0,0.6,0,0.7-0.1c0.1-0.1,0.2-0.2,0.3-0.3c0.1-0.2,0.1-0.6,0.1-1.2
	c0-0.6-0.1-1.1-0.3-1.4C21.2,12.8,21,12.7,20.8,12.6z"/>
<linearGradient id="SVGID_2_" gradientUnits="userSpaceOnUse" x1="-189.9863" y1="-317.0371" x2="-185.8481" y2="-317.0371" gradientTransform="matrix(6.6522 0 0 6.6522 1263.8292 2124.1409)">
	<stop  offset="2.300000e-007" style="stop-color:#EDF3CB"/>
	<stop  offset="1" style="stop-color:#F8D27E"/>
</linearGradient>
<path opacity="0.5" fill="url(#SVGID_2_)" enable-background="new    " d="M0,25.6c0,0,6.6-1.8,10.7-7.1c0,0-2.9,1.9-6.8,2
	c0,0,9-4.9,9.9-8.4c0,0-6.1,2.6-7.8-0.1c0,0,3.3,0.9,5.7-1.4c3.3-0.8,3.8-2.2,8.5,0.1c0,0-0.8-3-6.8-3.4c0,0,10.5-0.6,14.1,1.9
	c0,0-3.7-4.2-12.3-4.2l-3-0.3l-0.6,0.1L10,4.7H8.1H5.7l-1.5,0L2.4,4.9L1.2,6l-0.8,4.7l4,2L0,25.6z"/>
</svg>
