<?xml version="1.0" encoding="utf-8"?>
<!-- Generator: Adobe Illustrator 16.0.0, SVG Export Plug-In . SVG Version: 6.00 Build 0)  -->
<!DOCTYPE svg PUBLIC "-//W3C//DTD SVG 1.0//EN" "http://www.w3.org/TR/2001/REC-SVG-20010904/DTD/svg10.dtd">
<svg version="1.0" id="Selected_Items" xmlns="http://www.w3.org/2000/svg" xmlns:xlink="http://www.w3.org/1999/xlink" x="0px"
	 y="0px" width="32.2px" height="32px" viewBox="0 0 32.2 32" enable-background="new 0 0 32.2 32" xml:space="preserve">
<path opacity="0.7" fill="#2D52EA" enable-background="new    " d="M13.972,15.688c0,0-2.8,0.626-5.014,4.379
	c0,0,1.889,1.016,1.237,1.642c-0.651,0.628-3.517-0.312-8.467,5.629c0,0,2.02-1.092,4.754-1.328
	c2.737-0.235-0.716,1.954-1.498,2.502c0,0,5.08-3.049,6.514-2.815c1.432,0.234-5.081,4.691-7.881,6.255c0,0,8.533-3.362,9.509-3.206
	c0.977,0.156-0.521,2.033-2.865,3.206c0,0,4.884,0,8.141-1.798c3.258-1.799,3.908-2.035,3.908-1.017c0,0,2.864-2.19,2.019-2.973
	c-0.845-0.782,2.151-1.799,4.17-3.598c2.019-1.798,2.863-2.972,2.863-2.972s-4.884,2.581-6.382,2.658
	c-1.498,0.079,0.977-2.424,3.646-3.83c2.674-1.407,3.518-3.987,3.518-3.987s-3.646,0.157-8.337,2.972
	c-4.689,2.813-5.21,3.753-4.819,2.032c0.392-1.721,4.689-4.144,4.689-4.144s-5.992,0.157-8.729,2.736
	c-2.734,2.579-1.954-0.625-1.368-1.251C14.168,16.157,13.972,15.688,13.972,15.688z"/>
<path fill="#0001BF" d="M31.799,11.6c-0.1,0.2-0.299,0.3-0.5,0.3c-0.399,0-3,0.1-7.899,0.1c-0.2,0-0.3,0-0.5,0.1
	c-0.3,0.1-0.5,0.3-0.601,0.5c-0.1,0.2-0.1,0.6,0,1.2c0,0.3,0.101,0.8,0.201,1.4c0,0.3,0.1,0.6,0.199,1c0,0.2-0.103,0.3-0.4,0.3
	c-0.6,0.1-1.1,0.2-1.6,0.3c-0.9,0.101-1.803,0.2-2.803,0.2c-1.6,0-3.3,0-5.2-0.2c-1.7,4.5-2.5,6.8-2.5,7.101
	c0,0.303,0.1,1.303,0.2,3c0.4,0.303,0.7,0.5,0.9,0.603c0.2,0.103,0.3,0.2,0.2,0.3c0,0.104,0,0.104-0.1,0.2L11,28.2
	c-0.3,0.1-0.6,0.1-0.9,0c-0.5-0.101-3.8-0.7-9.8-2C0,26.1,0,25.3,0.3,23.7c0.1-0.7,0.4-1.7,0.9-3s0.9-2.4,1.4-3.2
	c0.4-0.8,0.8-1.7,1-2.6C3.9,14,4,13.3,4,12.9c-0.1-0.3-0.4-0.6-1.1-1c-0.5-0.3-1-0.5-1.5-0.6c-0.3,0-0.5-0.2-0.6-0.4
	c-0.1-0.1-0.2-0.2-0.3-0.4c-0.1-0.1-0.1-0.4-0.1-0.8c0-0.2,0-0.5,0-1c0-0.7,0-1.1,0.2-1.2C1.1,6.7,1.5,6,1.7,5.6
	C1.8,5.4,2,5.2,2.2,5c0.2-0.2,0.4-0.3,0.6-0.3c0.2,0,0.4,0,0.6,0h0.4C3.9,4.5,4,4.3,4.1,4.2c0.2-0.2,0.6-0.1,1.2,0l0.2,0.4h10.6V5
	h4.6V4.7h10.6L31.6,4.9c0.199,0.1,0.3,0.3,0.3,0.5C32,6.4,32,7.3,32.1,8.2c0.1,1.7,0,2.7,0,2.9C31.9,11.4,31.799,11.6,31.799,11.6z
	 M20.799,12.6c-0.1-0.1-0.199-0.1-0.299-0.1v0.1h-3.4c-0.1,0.5-0.1,0.9,0.199,1.2c0.301,0.5,0.601,0.8,0.801,1
	c0.199,0.2,0.5,0.3,0.699,0.3c0.301,0,0.4,0.1,0.301,0.2c0,0.1-0.1,0.2-0.301,0.2c-0.1,0-0.299,0-0.5,0C18,15.4,17.7,15.3,17.4,15
	c-0.5-0.5-0.9-0.9-1-1.2c-0.1-0.3-0.2-0.8-0.2-1.3h-0.7c-0.4,0-0.8,0.2-1.1,0.5c-0.3,0.3-0.4,0.7-0.4,1.1c0,0.3,0,0.6,0,1
	c0.1,0.3,0.3,0.6,0.8,0.7c0.7,0.3,1.3,0.4,1.9,0.3c0.7-0.1,1.301-0.2,1.7-0.2c0.2,0,0.601,0,1.101,0C20,16,20.4,16,20.6,16
	c0.3,0,0.6,0,0.699-0.1c0.101-0.1,0.201-0.2,0.301-0.3c0.1-0.2,0.1-0.6,0.1-1.2s-0.1-1.1-0.3-1.4C21.2,12.8,21,12.7,20.799,12.6z"/>
<g>
	<g>
		<defs>
			<path id="SVGID_1_" d="M31.799,11.6c-0.1,0.2-0.299,0.3-0.5,0.3c-0.399,0-3,0.1-7.899,0.1c-0.2,0-0.3,0-0.5,0.1
				c-0.3,0.1-0.5,0.3-0.601,0.5c-0.1,0.2-0.1,0.6,0,1.2c0,0.3,0.101,0.8,0.201,1.4c0,0.3,0.1,0.6,0.199,1c0,0.2-0.103,0.3-0.4,0.3
				c-0.6,0.1-1.1,0.2-1.6,0.3c-0.9,0.101-1.803,0.2-2.803,0.2c-1.6,0-3.3,0-5.2-0.2c-1.7,4.5-2.5,6.8-2.5,7.101
				c0,0.303,0.1,1.303,0.2,3c0.4,0.303,0.7,0.5,0.9,0.603c0.2,0.103,0.3,0.2,0.2,0.3c0,0.104,0,0.104-0.1,0.2L11,28.2
				c-0.3,0.1-0.6,0.1-0.9,0c-0.5-0.101-3.8-0.7-9.8-2C0,26.1,0,25.3,0.3,23.7c0.1-0.7,0.4-1.7,0.9-3s0.9-2.4,1.4-3.2
				c0.4-0.8,0.8-1.7,1-2.6C3.9,14,4,13.3,4,12.9c-0.1-0.3-0.4-0.6-1.1-1c-0.5-0.3-1-0.5-1.5-0.6c-0.3,0-0.5-0.2-0.6-0.4
				c-0.1-0.1-0.2-0.2-0.3-0.4c-0.1-0.1-0.1-0.4-0.1-0.8c0-0.2,0-0.5,0-1c0-0.7,0-1.1,0.2-1.2C1.1,6.7,1.5,6,1.7,5.6
				C1.8,5.4,2,5.2,2.2,5c0.2-0.2,0.4-0.3,0.6-0.3c0.2,0,0.4,0,0.6,0h0.4C3.9,4.5,4,4.3,4.1,4.2c0.2-0.2,0.6-0.1,1.2,0l0.2,0.4h10.6
				V5h4.6V4.7h10.6L31.6,4.9c0.199,0.1,0.3,0.3,0.3,0.5C32,6.4,32,7.3,32.1,8.2c0.1,1.7,0,2.7,0,2.9
				C31.9,11.4,31.799,11.6,31.799,11.6z M20.799,12.6c-0.1-0.1-0.199-0.1-0.299-0.1v0.1h-3.4c-0.1,0.5-0.1,0.9,0.199,1.2
				c0.301,0.5,0.601,0.8,0.801,1c0.199,0.2,0.5,0.3,0.699,0.3c0.301,0,0.4,0.1,0.301,0.2c0,0.1-0.1,0.2-0.301,0.2
				c-0.1,0-0.299,0-0.5,0C18,15.4,17.7,15.3,17.4,15c-0.5-0.5-0.9-0.9-1-1.2c-0.1-0.3-0.2-0.8-0.2-1.3h-0.7c-0.4,0-0.8,0.2-1.1,0.5
				c-0.3,0.3-0.4,0.7-0.4,1.1c0,0.3,0,0.6,0,1c0.1,0.3,0.3,0.6,0.8,0.7c0.7,0.3,1.3,0.4,1.9,0.3c0.7-0.1,1.301-0.2,1.7-0.2
				c0.2,0,0.601,0,1.101,0C20,16,20.4,16,20.6,16c0.3,0,0.6,0,0.699-0.1c0.101-0.1,0.201-0.2,0.301-0.3c0.1-0.2,0.1-0.6,0.1-1.2
				s-0.1-1.1-0.3-1.4C21.2,12.8,21,12.7,20.799,12.6z"/>
		</defs>
		<clipPath id="SVGID_2_">
			<use xlink:href="#SVGID_1_"  overflow="visible"/>
		</clipPath>
		
			<linearGradient id="SVGID_3_" gradientUnits="userSpaceOnUse" x1="836.4214" y1="-1193.5684" x2="867.6772" y2="-1193.5684" gradientTransform="matrix(1 0 0 -1 -844.7988 -1180.8799)">
			<stop  offset="0" style="stop-color:#A9D0FF"/>
			<stop  offset="0.1986" style="stop-color:#A7CBFF"/>
			<stop  offset="0.4411" style="stop-color:#A1BCFF"/>
			<stop  offset="0.7063" style="stop-color:#97A3FF"/>
			<stop  offset="0.9861" style="stop-color:#8981FF"/>
			<stop  offset="1" style="stop-color:#887FFF"/>
		</linearGradient>
		<path clip-path="url(#SVGID_2_)" fill="url(#SVGID_3_)" d="M-7.465,13.922c0,0-0.037,1.488,0.784,2.439
			c0.823,0.948,1.707-0.507,1.707-0.507l2.719-2.528c0,0,1.834,0.314,2.086,0.568C0.085,14.146,2.35,12.29,2.35,12.29
			s0.647-0.414,1.154,0.722c0.506,1.141,3.092,3.161,3.978,2.718c0.886-0.444,1.265-1.646,3.035-0.699
			c1.771,0.952,3.92,2.217,3.92,2.217s1.382,0.053,1.507-0.514c0.127-0.571,0.854,0.615,1.676,0.049
			c0.821-0.571,3.487-1.173,3.805-1.678c0.313-0.505,2.138-1.32,1.178-3.807c-0.673-1.75-8.1-5.167-9.994-1.521
			c-1.268,2.441-0.751,2.244-0.751,2.244s-2.858,1.172-4.375,0.349c-1.518-0.822-2.843-1.954-4.17-2.017S0.086,9.974-0.42,10.416
			s-0.851-1.923-1.42-2.247c-0.569-0.324-6.326,1.295-6.516,2.307C-8.547,11.485-7.465,13.922-7.465,13.922z"/>
	</g>
	<g>
		<defs>
			<path id="SVGID_4_" d="M31.799,11.6c-0.1,0.2-0.299,0.3-0.5,0.3c-0.399,0-3,0.1-7.899,0.1c-0.2,0-0.3,0-0.5,0.1
				c-0.3,0.1-0.5,0.3-0.601,0.5c-0.1,0.2-0.1,0.6,0,1.2c0,0.3,0.101,0.8,0.201,1.4c0,0.3,0.1,0.6,0.199,1c0,0.2-0.103,0.3-0.4,0.3
				c-0.6,0.1-1.1,0.2-1.6,0.3c-0.9,0.101-1.803,0.2-2.803,0.2c-1.6,0-3.3,0-5.2-0.2c-1.7,4.5-2.5,6.8-2.5,7.101
				c0,0.303,0.1,1.303,0.2,3c0.4,0.303,0.7,0.5,0.9,0.603c0.2,0.103,0.3,0.2,0.2,0.3c0,0.104,0,0.104-0.1,0.2L11,28.2
				c-0.3,0.1-0.6,0.1-0.9,0c-0.5-0.101-3.8-0.7-9.8-2C0,26.1,0,25.3,0.3,23.7c0.1-0.7,0.4-1.7,0.9-3s0.9-2.4,1.4-3.2
				c0.4-0.8,0.8-1.7,1-2.6C3.9,14,4,13.3,4,12.9c-0.1-0.3-0.4-0.6-1.1-1c-0.5-0.3-1-0.5-1.5-0.6c-0.3,0-0.5-0.2-0.6-0.4
				c-0.1-0.1-0.2-0.2-0.3-0.4c-0.1-0.1-0.1-0.4-0.1-0.8c0-0.2,0-0.5,0-1c0-0.7,0-1.1,0.2-1.2C1.1,6.7,1.5,6,1.7,5.6
				C1.8,5.4,2,5.2,2.2,5c0.2-0.2,0.4-0.3,0.6-0.3c0.2,0,0.4,0,0.6,0h0.4C3.9,4.5,4,4.3,4.1,4.2c0.2-0.2,0.6-0.1,1.2,0l0.2,0.4h10.6
				V5h4.6V4.7h10.6L31.6,4.9c0.199,0.1,0.3,0.3,0.3,0.5C32,6.4,32,7.3,32.1,8.2c0.1,1.7,0,2.7,0,2.9
				C31.9,11.4,31.799,11.6,31.799,11.6z M20.799,12.6c-0.1-0.1-0.199-0.1-0.299-0.1v0.1h-3.4c-0.1,0.5-0.1,0.9,0.199,1.2
				c0.301,0.5,0.601,0.8,0.801,1c0.199,0.2,0.5,0.3,0.699,0.3c0.301,0,0.4,0.1,0.301,0.2c0,0.1-0.1,0.2-0.301,0.2
				c-0.1,0-0.299,0-0.5,0C18,15.4,17.7,15.3,17.4,15c-0.5-0.5-0.9-0.9-1-1.2c-0.1-0.3-0.2-0.8-0.2-1.3h-0.7c-0.4,0-0.8,0.2-1.1,0.5
				c-0.3,0.3-0.4,0.7-0.4,1.1c0,0.3,0,0.6,0,1c0.1,0.3,0.3,0.6,0.8,0.7c0.7,0.3,1.3,0.4,1.9,0.3c0.7-0.1,1.301-0.2,1.7-0.2
				c0.2,0,0.601,0,1.101,0C20,16,20.4,16,20.6,16c0.3,0,0.6,0,0.699-0.1c0.101-0.1,0.201-0.2,0.301-0.3c0.1-0.2,0.1-0.6,0.1-1.2
				s-0.1-1.1-0.3-1.4C21.2,12.8,21,12.7,20.799,12.6z"/>
		</defs>
		<clipPath id="SVGID_5_">
			<use xlink:href="#SVGID_4_"  overflow="visible"/>
		</clipPath>
		<path clip-path="url(#SVGID_5_)" fill="#2970D6" d="M25.35,9.594c0,0-0.598-1.906-0.824-2.286
			c-0.426-0.719-0.824-1.734-2.279-1.76c-0.438,0.019-2.89-1.444-1.018-1.523c2.027-0.085,9.205-0.526,12.051-0.237
			S35,5.706,35,5.706s0.797,1.545,0.519,2.378c-0.294,0.89-1.427,2.13-1.438,2.077c-0.164-0.778-2.031,1.133-2.031,1.133
			s-0.87-2.756-1.633-2.642c-0.804,0.024-1.221,2.013-1.221,2.013s0.67-2.791-1.971-3.041C25.57,7.871,25.35,9.594,25.35,9.594z"/>
	</g>
	<g>
		<defs>
			<path id="SVGID_6_" d="M31.799,11.6c-0.1,0.2-0.299,0.3-0.5,0.3c-0.399,0-3,0.1-7.899,0.1c-0.2,0-0.3,0-0.5,0.1
				c-0.3,0.1-0.5,0.3-0.601,0.5c-0.1,0.2-0.1,0.6,0,1.2c0,0.3,0.101,0.8,0.201,1.4c0,0.3,0.1,0.6,0.199,1c0,0.2-0.103,0.3-0.4,0.3
				c-0.6,0.1-1.1,0.2-1.6,0.3c-0.9,0.101-1.803,0.2-2.803,0.2c-1.6,0-3.3,0-5.2-0.2c-1.7,4.5-2.5,6.8-2.5,7.101
				c0,0.303,0.1,1.303,0.2,3c0.4,0.303,0.7,0.5,0.9,0.603c0.2,0.103,0.3,0.2,0.2,0.3c0,0.104,0,0.104-0.1,0.2L11,28.2
				c-0.3,0.1-0.6,0.1-0.9,0c-0.5-0.101-3.8-0.7-9.8-2C0,26.1,0,25.3,0.3,23.7c0.1-0.7,0.4-1.7,0.9-3s0.9-2.4,1.4-3.2
				c0.4-0.8,0.8-1.7,1-2.6C3.9,14,4,13.3,4,12.9c-0.1-0.3-0.4-0.6-1.1-1c-0.5-0.3-1-0.5-1.5-0.6c-0.3,0-0.5-0.2-0.6-0.4
				c-0.1-0.1-0.2-0.2-0.3-0.4c-0.1-0.1-0.1-0.4-0.1-0.8c0-0.2,0-0.5,0-1c0-0.7,0-1.1,0.2-1.2C1.1,6.7,1.5,6,1.7,5.6
				C1.8,5.4,2,5.2,2.2,5c0.2-0.2,0.4-0.3,0.6-0.3c0.2,0,0.4,0,0.6,0h0.4C3.9,4.5,4,4.3,4.1,4.2c0.2-0.2,0.6-0.1,1.2,0l0.2,0.4h10.6
				V5h4.6V4.7h10.6L31.6,4.9c0.199,0.1,0.3,0.3,0.3,0.5C32,6.4,32,7.3,32.1,8.2c0.1,1.7,0,2.7,0,2.9
				C31.9,11.4,31.799,11.6,31.799,11.6z M20.799,12.6c-0.1-0.1-0.199-0.1-0.299-0.1v0.1h-3.4c-0.1,0.5-0.1,0.9,0.199,1.2
				c0.301,0.5,0.601,0.8,0.801,1c0.199,0.2,0.5,0.3,0.699,0.3c0.301,0,0.4,0.1,0.301,0.2c0,0.1-0.1,0.2-0.301,0.2
				c-0.1,0-0.299,0-0.5,0C18,15.4,17.7,15.3,17.4,15c-0.5-0.5-0.9-0.9-1-1.2c-0.1-0.3-0.2-0.8-0.2-1.3h-0.7c-0.4,0-0.8,0.2-1.1,0.5
				c-0.3,0.3-0.4,0.7-0.4,1.1c0,0.3,0,0.6,0,1c0.1,0.3,0.3,0.6,0.8,0.7c0.7,0.3,1.3,0.4,1.9,0.3c0.7-0.1,1.301-0.2,1.7-0.2
				c0.2,0,0.601,0,1.101,0C20,16,20.4,16,20.6,16c0.3,0,0.6,0,0.699-0.1c0.101-0.1,0.201-0.2,0.301-0.3c0.1-0.2,0.1-0.6,0.1-1.2
				s-0.1-1.1-0.3-1.4C21.2,12.8,21,12.7,20.799,12.6z"/>
		</defs>
		<clipPath id="SVGID_7_">
			<use xlink:href="#SVGID_6_"  overflow="visible"/>
		</clipPath>
		
			<path clip-path="url(#SVGID_7_)" fill="none" stroke="#FFFFFF" stroke-width="0.5" stroke-linecap="round" stroke-linejoin="round" stroke-miterlimit="10" d="
			M12.296,15.933c0,0,0.576-0.471,1.045-3.827c0.238-1.702,1.086-5.312,2.942-5.256c1.826,0.056,2.803,3.214,2.943,5.461
			c0,0,2.457-4.756,5.938-0.774c0,0,0.445-6.164-3.434-5.809c-1.154-0.008-1.842,3.397-2.506,6.583"/>
	</g>
	<g>
		<defs>
			<path id="SVGID_8_" d="M31.799,11.6c-0.1,0.2-0.299,0.3-0.5,0.3c-0.399,0-3,0.1-7.899,0.1c-0.2,0-0.3,0-0.5,0.1
				c-0.3,0.1-0.5,0.3-0.601,0.5c-0.1,0.2-0.1,0.6,0,1.2c0,0.3,0.101,0.8,0.201,1.4c0,0.3,0.1,0.6,0.199,1c0,0.2-0.103,0.3-0.4,0.3
				c-0.6,0.1-1.1,0.2-1.6,0.3c-0.9,0.101-1.803,0.2-2.803,0.2c-1.6,0-3.3,0-5.2-0.2c-1.7,4.5-2.5,6.8-2.5,7.101
				c0,0.303,0.1,1.303,0.2,3c0.4,0.303,0.7,0.5,0.9,0.603c0.2,0.103,0.3,0.2,0.2,0.3c0,0.104,0,0.104-0.1,0.2L11,28.2
				c-0.3,0.1-0.6,0.1-0.9,0c-0.5-0.101-3.8-0.7-9.8-2C0,26.1,0,25.3,0.3,23.7c0.1-0.7,0.4-1.7,0.9-3s0.9-2.4,1.4-3.2
				c0.4-0.8,0.8-1.7,1-2.6C3.9,14,4,13.3,4,12.9c-0.1-0.3-0.4-0.6-1.1-1c-0.5-0.3-1-0.5-1.5-0.6c-0.3,0-0.5-0.2-0.6-0.4
				c-0.1-0.1-0.2-0.2-0.3-0.4c-0.1-0.1-0.1-0.4-0.1-0.8c0-0.2,0-0.5,0-1c0-0.7,0-1.1,0.2-1.2C1.1,6.7,1.5,6,1.7,5.6
				C1.8,5.4,2,5.2,2.2,5c0.2-0.2,0.4-0.3,0.6-0.3c0.2,0,0.4,0,0.6,0h0.4C3.9,4.5,4,4.3,4.1,4.2c0.2-0.2,0.6-0.1,1.2,0l0.2,0.4h10.6
				V5h4.6V4.7h10.6L31.6,4.9c0.199,0.1,0.3,0.3,0.3,0.5C32,6.4,32,7.3,32.1,8.2c0.1,1.7,0,2.7,0,2.9
				C31.9,11.4,31.799,11.6,31.799,11.6z M20.799,12.6c-0.1-0.1-0.199-0.1-0.299-0.1v0.1h-3.4c-0.1,0.5-0.1,0.9,0.199,1.2
				c0.301,0.5,0.601,0.8,0.801,1c0.199,0.2,0.5,0.3,0.699,0.3c0.301,0,0.4,0.1,0.301,0.2c0,0.1-0.1,0.2-0.301,0.2
				c-0.1,0-0.299,0-0.5,0C18,15.4,17.7,15.3,17.4,15c-0.5-0.5-0.9-0.9-1-1.2c-0.1-0.3-0.2-0.8-0.2-1.3h-0.7c-0.4,0-0.8,0.2-1.1,0.5
				c-0.3,0.3-0.4,0.7-0.4,1.1c0,0.3,0,0.6,0,1c0.1,0.3,0.3,0.6,0.8,0.7c0.7,0.3,1.3,0.4,1.9,0.3c0.7-0.1,1.301-0.2,1.7-0.2
				c0.2,0,0.601,0,1.101,0C20,16,20.4,16,20.6,16c0.3,0,0.6,0,0.699-0.1c0.101-0.1,0.201-0.2,0.301-0.3c0.1-0.2,0.1-0.6,0.1-1.2
				s-0.1-1.1-0.3-1.4C21.2,12.8,21,12.7,20.799,12.6z"/>
		</defs>
		<clipPath id="SVGID_9_">
			<use xlink:href="#SVGID_8_"  overflow="visible"/>
		</clipPath>
		<path clip-path="url(#SVGID_9_)" fill="#A2CAFF" d="M12.428,16.982c0.428,1.104-2.703,3.93-2.703,3.93s-2.518,2.068-5.009,1.33
			c-5.004-1.484-1.512-7.945-1.512-7.945s0.553-1.016,1.147-0.204c0.595,0.814,2.263,0.315,3.44,0.362
			c1.615,0.062,2.204,2.875,3.325,0.686C11.334,14.715,12.254,16.533,12.428,16.982z"/>
	</g>
	<g>
		<defs>
			<path id="SVGID_10_" d="M31.799,11.6c-0.1,0.2-0.299,0.3-0.5,0.3c-0.399,0-3,0.1-7.899,0.1c-0.2,0-0.3,0-0.5,0.1
				c-0.3,0.1-0.5,0.3-0.601,0.5c-0.1,0.2-0.1,0.6,0,1.2c0,0.3,0.101,0.8,0.201,1.4c0,0.3,0.1,0.6,0.199,1c0,0.2-0.103,0.3-0.4,0.3
				c-0.6,0.1-1.1,0.2-1.6,0.3c-0.9,0.101-1.803,0.2-2.803,0.2c-1.6,0-3.3,0-5.2-0.2c-1.7,4.5-2.5,6.8-2.5,7.101
				c0,0.303,0.1,1.303,0.2,3c0.4,0.303,0.7,0.5,0.9,0.603c0.2,0.103,0.3,0.2,0.2,0.3c0,0.104,0,0.104-0.1,0.2L11,28.2
				c-0.3,0.1-0.6,0.1-0.9,0c-0.5-0.101-3.8-0.7-9.8-2C0,26.1,0,25.3,0.3,23.7c0.1-0.7,0.4-1.7,0.9-3s0.9-2.4,1.4-3.2
				c0.4-0.8,0.8-1.7,1-2.6C3.9,14,4,13.3,4,12.9c-0.1-0.3-0.4-0.6-1.1-1c-0.5-0.3-1-0.5-1.5-0.6c-0.3,0-0.5-0.2-0.6-0.4
				c-0.1-0.1-0.2-0.2-0.3-0.4c-0.1-0.1-0.1-0.4-0.1-0.8c0-0.2,0-0.5,0-1c0-0.7,0-1.1,0.2-1.2C1.1,6.7,1.5,6,1.7,5.6
				C1.8,5.4,2,5.2,2.2,5c0.2-0.2,0.4-0.3,0.6-0.3c0.2,0,0.4,0,0.6,0h0.4C3.9,4.5,4,4.3,4.1,4.2c0.2-0.2,0.6-0.1,1.2,0l0.2,0.4h10.6
				V5h4.6V4.7h10.6L31.6,4.9c0.199,0.1,0.3,0.3,0.3,0.5C32,6.4,32,7.3,32.1,8.2c0.1,1.7,0,2.7,0,2.9
				C31.9,11.4,31.799,11.6,31.799,11.6z M20.799,12.6c-0.1-0.1-0.199-0.1-0.299-0.1v0.1h-3.4c-0.1,0.5-0.1,0.9,0.199,1.2
				c0.301,0.5,0.601,0.8,0.801,1c0.199,0.2,0.5,0.3,0.699,0.3c0.301,0,0.4,0.1,0.301,0.2c0,0.1-0.1,0.2-0.301,0.2
				c-0.1,0-0.299,0-0.5,0C18,15.4,17.7,15.3,17.4,15c-0.5-0.5-0.9-0.9-1-1.2c-0.1-0.3-0.2-0.8-0.2-1.3h-0.7c-0.4,0-0.8,0.2-1.1,0.5
				c-0.3,0.3-0.4,0.7-0.4,1.1c0,0.3,0,0.6,0,1c0.1,0.3,0.3,0.6,0.8,0.7c0.7,0.3,1.3,0.4,1.9,0.3c0.7-0.1,1.301-0.2,1.7-0.2
				c0.2,0,0.601,0,1.101,0C20,16,20.4,16,20.6,16c0.3,0,0.6,0,0.699-0.1c0.101-0.1,0.201-0.2,0.301-0.3c0.1-0.2,0.1-0.6,0.1-1.2
				s-0.1-1.1-0.3-1.4C21.2,12.8,21,12.7,20.799,12.6z"/>
		</defs>
		<clipPath id="SVGID_11_">
			<use xlink:href="#SVGID_10_"  overflow="visible"/>
		</clipPath>
		<path clip-path="url(#SVGID_11_)" fill="#FFFFFF" d="M12.434,16.98c0,0-0.719-0.229-0.835,0.815
			c-0.203,1.818-3.493,4.363-4.352,4.32C5.78,22.041,2.224,21.01,2.68,18.564c0.11-0.59,1.056-3.249,0.899-4.077
			C3.316,13.105-1.855,22-1.855,22s-0.15,5.125-0.09,5.258c0.061,0.137,7.608,0.68,7.608,0.68l6.125,1.188L12.434,16.98z"/>
	</g>
	<g>
		<defs>
			<path id="SVGID_12_" d="M31.799,11.6c-0.1,0.2-0.299,0.3-0.5,0.3c-0.399,0-3,0.1-7.899,0.1c-0.2,0-0.3,0-0.5,0.1
				c-0.3,0.1-0.5,0.3-0.601,0.5c-0.1,0.2-0.1,0.6,0,1.2c0,0.3,0.101,0.8,0.201,1.4c0,0.3,0.1,0.6,0.199,1c0,0.2-0.103,0.3-0.4,0.3
				c-0.6,0.1-1.1,0.2-1.6,0.3c-0.9,0.101-1.803,0.2-2.803,0.2c-1.6,0-3.3,0-5.2-0.2c-1.7,4.5-2.5,6.8-2.5,7.101
				c0,0.303,0.1,1.303,0.2,3c0.4,0.303,0.7,0.5,0.9,0.603c0.2,0.103,0.3,0.2,0.2,0.3c0,0.104,0,0.104-0.1,0.2L11,28.2
				c-0.3,0.1-0.6,0.1-0.9,0c-0.5-0.101-3.8-0.7-9.8-2C0,26.1,0,25.3,0.3,23.7c0.1-0.7,0.4-1.7,0.9-3s0.9-2.4,1.4-3.2
				c0.4-0.8,0.8-1.7,1-2.6C3.9,14,4,13.3,4,12.9c-0.1-0.3-0.4-0.6-1.1-1c-0.5-0.3-1-0.5-1.5-0.6c-0.3,0-0.5-0.2-0.6-0.4
				c-0.1-0.1-0.2-0.2-0.3-0.4c-0.1-0.1-0.1-0.4-0.1-0.8c0-0.2,0-0.5,0-1c0-0.7,0-1.1,0.2-1.2C1.1,6.7,1.5,6,1.7,5.6
				C1.8,5.4,2,5.2,2.2,5c0.2-0.2,0.4-0.3,0.6-0.3c0.2,0,0.4,0,0.6,0h0.4C3.9,4.5,4,4.3,4.1,4.2c0.2-0.2,0.6-0.1,1.2,0l0.2,0.4h10.6
				V5h4.6V4.7h10.6L31.6,4.9c0.199,0.1,0.3,0.3,0.3,0.5C32,6.4,32,7.3,32.1,8.2c0.1,1.7,0,2.7,0,2.9
				C31.9,11.4,31.799,11.6,31.799,11.6z M20.799,12.6c-0.1-0.1-0.199-0.1-0.299-0.1v0.1h-3.4c-0.1,0.5-0.1,0.9,0.199,1.2
				c0.301,0.5,0.601,0.8,0.801,1c0.199,0.2,0.5,0.3,0.699,0.3c0.301,0,0.4,0.1,0.301,0.2c0,0.1-0.1,0.2-0.301,0.2
				c-0.1,0-0.299,0-0.5,0C18,15.4,17.7,15.3,17.4,15c-0.5-0.5-0.9-0.9-1-1.2c-0.1-0.3-0.2-0.8-0.2-1.3h-0.7c-0.4,0-0.8,0.2-1.1,0.5
				c-0.3,0.3-0.4,0.7-0.4,1.1c0,0.3,0,0.6,0,1c0.1,0.3,0.3,0.6,0.8,0.7c0.7,0.3,1.3,0.4,1.9,0.3c0.7-0.1,1.301-0.2,1.7-0.2
				c0.2,0,0.601,0,1.101,0C20,16,20.4,16,20.6,16c0.3,0,0.6,0,0.699-0.1c0.101-0.1,0.201-0.2,0.301-0.3c0.1-0.2,0.1-0.6,0.1-1.2
				s-0.1-1.1-0.3-1.4C21.2,12.8,21,12.7,20.799,12.6z"/>
		</defs>
		<clipPath id="SVGID_13_">
			<use xlink:href="#SVGID_12_"  overflow="visible"/>
		</clipPath>
		<path clip-path="url(#SVGID_13_)" fill="#A4BAFF" d="M-4.155,10.916c0.188,0.368,4.385-0.887,4.385-0.887
			s-0.858,1.634-0.633,3.171c0.225,1.539,2.354,1.854,3.329,1.458c0.977-0.398,1.635-1.853,3.15-0.322
			c0.576,0.585,1.86-3.441,1.744,1.824c-0.064,2.904,1.578,1.708,1.578,1.708s2.436,0.795,2.696,0.098
			c0.26-0.698-0.144,0.744,0.8,0.175c0.944-0.568,0.213-4.76,0.155-5.51c0.003-0.405,0.434-2.301,0.434-2.301
			s1.376-4.872,3.753-3.374c-1.408-1.76-6.284-3.528-9.657-3.666C6.94,5.144,6.745,3.471,6.745,3.471S1.935,1.43-0.358,4.803
			C-1.916,3.995,1.397,7.397,0.108,7.07c-1.29-0.325-3.079-1.077-3.681-0.609c-0.603,0.467-2.45,1.053-2.933,0.537
			C-6.987,6.48-5.004,8.005-5.433,9.254C-5.861,10.5-4.344,10.548-4.155,10.916z"/>
	</g>
	<g>
		<defs>
			<path id="SVGID_14_" d="M31.799,11.6c-0.1,0.2-0.299,0.3-0.5,0.3c-0.399,0-3,0.1-7.899,0.1c-0.2,0-0.3,0-0.5,0.1
				c-0.3,0.1-0.5,0.3-0.601,0.5c-0.1,0.2-0.1,0.6,0,1.2c0,0.3,0.101,0.8,0.201,1.4c0,0.3,0.1,0.6,0.199,1c0,0.2-0.103,0.3-0.4,0.3
				c-0.6,0.1-1.1,0.2-1.6,0.3c-0.9,0.101-1.803,0.2-2.803,0.2c-1.6,0-3.3,0-5.2-0.2c-1.7,4.5-2.5,6.8-2.5,7.101
				c0,0.303,0.1,1.303,0.2,3c0.4,0.303,0.7,0.5,0.9,0.603c0.2,0.103,0.3,0.2,0.2,0.3c0,0.104,0,0.104-0.1,0.2L11,28.2
				c-0.3,0.1-0.6,0.1-0.9,0c-0.5-0.101-3.8-0.7-9.8-2C0,26.1,0,25.3,0.3,23.7c0.1-0.7,0.4-1.7,0.9-3s0.9-2.4,1.4-3.2
				c0.4-0.8,0.8-1.7,1-2.6C3.9,14,4,13.3,4,12.9c-0.1-0.3-0.4-0.6-1.1-1c-0.5-0.3-1-0.5-1.5-0.6c-0.3,0-0.5-0.2-0.6-0.4
				c-0.1-0.1-0.2-0.2-0.3-0.4c-0.1-0.1-0.1-0.4-0.1-0.8c0-0.2,0-0.5,0-1c0-0.7,0-1.1,0.2-1.2C1.1,6.7,1.5,6,1.7,5.6
				C1.8,5.4,2,5.2,2.2,5c0.2-0.2,0.4-0.3,0.6-0.3c0.2,0,0.4,0,0.6,0h0.4C3.9,4.5,4,4.3,4.1,4.2c0.2-0.2,0.6-0.1,1.2,0l0.2,0.4h10.6
				V5h4.6V4.7h10.6L31.6,4.9c0.199,0.1,0.3,0.3,0.3,0.5C32,6.4,32,7.3,32.1,8.2c0.1,1.7,0,2.7,0,2.9
				C31.9,11.4,31.799,11.6,31.799,11.6z M20.799,12.6c-0.1-0.1-0.199-0.1-0.299-0.1v0.1h-3.4c-0.1,0.5-0.1,0.9,0.199,1.2
				c0.301,0.5,0.601,0.8,0.801,1c0.199,0.2,0.5,0.3,0.699,0.3c0.301,0,0.4,0.1,0.301,0.2c0,0.1-0.1,0.2-0.301,0.2
				c-0.1,0-0.299,0-0.5,0C18,15.4,17.7,15.3,17.4,15c-0.5-0.5-0.9-0.9-1-1.2c-0.1-0.3-0.2-0.8-0.2-1.3h-0.7c-0.4,0-0.8,0.2-1.1,0.5
				c-0.3,0.3-0.4,0.7-0.4,1.1c0,0.3,0,0.6,0,1c0.1,0.3,0.3,0.6,0.8,0.7c0.7,0.3,1.3,0.4,1.9,0.3c0.7-0.1,1.301-0.2,1.7-0.2
				c0.2,0,0.601,0,1.101,0C20,16,20.4,16,20.6,16c0.3,0,0.6,0,0.699-0.1c0.101-0.1,0.201-0.2,0.301-0.3c0.1-0.2,0.1-0.6,0.1-1.2
				s-0.1-1.1-0.3-1.4C21.2,12.8,21,12.7,20.799,12.6z"/>
		</defs>
		<clipPath id="SVGID_15_">
			<use xlink:href="#SVGID_14_"  overflow="visible"/>
		</clipPath>
		<path clip-path="url(#SVGID_15_)" fill="#B3B3FF" d="M3.777,13.032c0,0,4.468-0.936,5.891-0.54
			c1.423,0.397,0.558-1.228,0.154-2.155c-0.798-1.83-0.538-3.106-2.326-2.82C6.374,7.698,4.311,10.921,3.777,13.032z"/>
	</g>
	<g>
		<defs>
			<path id="SVGID_16_" d="M31.799,11.6c-0.1,0.2-0.299,0.3-0.5,0.3c-0.399,0-3,0.1-7.899,0.1c-0.2,0-0.3,0-0.5,0.1
				c-0.3,0.1-0.5,0.3-0.601,0.5c-0.1,0.2-0.1,0.6,0,1.2c0,0.3,0.101,0.8,0.201,1.4c0,0.3,0.1,0.6,0.199,1c0,0.2-0.103,0.3-0.4,0.3
				c-0.6,0.1-1.1,0.2-1.6,0.3c-0.9,0.101-1.803,0.2-2.803,0.2c-1.6,0-3.3,0-5.2-0.2c-1.7,4.5-2.5,6.8-2.5,7.101
				c0,0.303,0.1,1.303,0.2,3c0.4,0.303,0.7,0.5,0.9,0.603c0.2,0.103,0.3,0.2,0.2,0.3c0,0.104,0,0.104-0.1,0.2L11,28.2
				c-0.3,0.1-0.6,0.1-0.9,0c-0.5-0.101-3.8-0.7-9.8-2C0,26.1,0,25.3,0.3,23.7c0.1-0.7,0.4-1.7,0.9-3s0.9-2.4,1.4-3.2
				c0.4-0.8,0.8-1.7,1-2.6C3.9,14,4,13.3,4,12.9c-0.1-0.3-0.4-0.6-1.1-1c-0.5-0.3-1-0.5-1.5-0.6c-0.3,0-0.5-0.2-0.6-0.4
				c-0.1-0.1-0.2-0.2-0.3-0.4c-0.1-0.1-0.1-0.4-0.1-0.8c0-0.2,0-0.5,0-1c0-0.7,0-1.1,0.2-1.2C1.1,6.7,1.5,6,1.7,5.6
				C1.8,5.4,2,5.2,2.2,5c0.2-0.2,0.4-0.3,0.6-0.3c0.2,0,0.4,0,0.6,0h0.4C3.9,4.5,4,4.3,4.1,4.2c0.2-0.2,0.6-0.1,1.2,0l0.2,0.4h10.6
				V5h4.6V4.7h10.6L31.6,4.9c0.199,0.1,0.3,0.3,0.3,0.5C32,6.4,32,7.3,32.1,8.2c0.1,1.7,0,2.7,0,2.9
				C31.9,11.4,31.799,11.6,31.799,11.6z M20.799,12.6c-0.1-0.1-0.199-0.1-0.299-0.1v0.1h-3.4c-0.1,0.5-0.1,0.9,0.199,1.2
				c0.301,0.5,0.601,0.8,0.801,1c0.199,0.2,0.5,0.3,0.699,0.3c0.301,0,0.4,0.1,0.301,0.2c0,0.1-0.1,0.2-0.301,0.2
				c-0.1,0-0.299,0-0.5,0C18,15.4,17.7,15.3,17.4,15c-0.5-0.5-0.9-0.9-1-1.2c-0.1-0.3-0.2-0.8-0.2-1.3h-0.7c-0.4,0-0.8,0.2-1.1,0.5
				c-0.3,0.3-0.4,0.7-0.4,1.1c0,0.3,0,0.6,0,1c0.1,0.3,0.3,0.6,0.8,0.7c0.7,0.3,1.3,0.4,1.9,0.3c0.7-0.1,1.301-0.2,1.7-0.2
				c0.2,0,0.601,0,1.101,0C20,16,20.4,16,20.6,16c0.3,0,0.6,0,0.699-0.1c0.101-0.1,0.201-0.2,0.301-0.3c0.1-0.2,0.1-0.6,0.1-1.2
				s-0.1-1.1-0.3-1.4C21.2,12.8,21,12.7,20.799,12.6z"/>
		</defs>
		<clipPath id="SVGID_17_">
			<use xlink:href="#SVGID_16_"  overflow="visible"/>
		</clipPath>
		
			<path clip-path="url(#SVGID_17_)" fill="none" stroke="#92A8DD" stroke-width="0.5" stroke-linecap="round" stroke-linejoin="round" stroke-miterlimit="10" d="
			M25.167,11.536c0,0,0.36-3.801,1.902-3.739c1.607,0.101,1.943,0.966,2.127,2.869c0,0,0.499-2.371,1.488-1.978
			c0.511,0.203,1.27,2.757,1.27,2.757s1.799-2.948,2.32-0.522c0,0,0.578-5.062-1.882-2.006c0.308-1.826-1.183-2.245-1.714-2.136
			c-1,0.063-1.84,2.034-1.646,2.525"/>
	</g>
	<g>
		<defs>
			<path id="SVGID_18_" d="M31.799,11.6c-0.1,0.2-0.299,0.3-0.5,0.3c-0.399,0-3,0.1-7.899,0.1c-0.2,0-0.3,0-0.5,0.1
				c-0.3,0.1-0.5,0.3-0.601,0.5c-0.1,0.2-0.1,0.6,0,1.2c0,0.3,0.101,0.8,0.201,1.4c0,0.3,0.1,0.6,0.199,1c0,0.2-0.103,0.3-0.4,0.3
				c-0.6,0.1-1.1,0.2-1.6,0.3c-0.9,0.101-1.803,0.2-2.803,0.2c-1.6,0-3.3,0-5.2-0.2c-1.7,4.5-2.5,6.8-2.5,7.101
				c0,0.303,0.1,1.303,0.2,3c0.4,0.303,0.7,0.5,0.9,0.603c0.2,0.103,0.3,0.2,0.2,0.3c0,0.104,0,0.104-0.1,0.2L11,28.2
				c-0.3,0.1-0.6,0.1-0.9,0c-0.5-0.101-3.8-0.7-9.8-2C0,26.1,0,25.3,0.3,23.7c0.1-0.7,0.4-1.7,0.9-3s0.9-2.4,1.4-3.2
				c0.4-0.8,0.8-1.7,1-2.6C3.9,14,4,13.3,4,12.9c-0.1-0.3-0.4-0.6-1.1-1c-0.5-0.3-1-0.5-1.5-0.6c-0.3,0-0.5-0.2-0.6-0.4
				c-0.1-0.1-0.2-0.2-0.3-0.4c-0.1-0.1-0.1-0.4-0.1-0.8c0-0.2,0-0.5,0-1c0-0.7,0-1.1,0.2-1.2C1.1,6.7,1.5,6,1.7,5.6
				C1.8,5.4,2,5.2,2.2,5c0.2-0.2,0.4-0.3,0.6-0.3c0.2,0,0.4,0,0.6,0h0.4C3.9,4.5,4,4.3,4.1,4.2c0.2-0.2,0.6-0.1,1.2,0l0.2,0.4h10.6
				V5h4.6V4.7h10.6L31.6,4.9c0.199,0.1,0.3,0.3,0.3,0.5C32,6.4,32,7.3,32.1,8.2c0.1,1.7,0,2.7,0,2.9
				C31.9,11.4,31.799,11.6,31.799,11.6z M20.799,12.6c-0.1-0.1-0.199-0.1-0.299-0.1v0.1h-3.4c-0.1,0.5-0.1,0.9,0.199,1.2
				c0.301,0.5,0.601,0.8,0.801,1c0.199,0.2,0.5,0.3,0.699,0.3c0.301,0,0.4,0.1,0.301,0.2c0,0.1-0.1,0.2-0.301,0.2
				c-0.1,0-0.299,0-0.5,0C18,15.4,17.7,15.3,17.4,15c-0.5-0.5-0.9-0.9-1-1.2c-0.1-0.3-0.2-0.8-0.2-1.3h-0.7c-0.4,0-0.8,0.2-1.1,0.5
				c-0.3,0.3-0.4,0.7-0.4,1.1c0,0.3,0,0.6,0,1c0.1,0.3,0.3,0.6,0.8,0.7c0.7,0.3,1.3,0.4,1.9,0.3c0.7-0.1,1.301-0.2,1.7-0.2
				c0.2,0,0.601,0,1.101,0C20,16,20.4,16,20.6,16c0.3,0,0.6,0,0.699-0.1c0.101-0.1,0.201-0.2,0.301-0.3c0.1-0.2,0.1-0.6,0.1-1.2
				s-0.1-1.1-0.3-1.4C21.2,12.8,21,12.7,20.799,12.6z"/>
		</defs>
		<clipPath id="SVGID_19_">
			<use xlink:href="#SVGID_18_"  overflow="visible"/>
		</clipPath>
		<path clip-path="url(#SVGID_19_)" fill="#FFFFFF" d="M3.55,6.943c-1.633,0.459-4.273,4.484-3.819,5.303
			c1.38,2.489,3.954-0.15,4.478-0.88c1.094-1.57,1.094-2.552,1.395-2.791C5.89,8.259,6.446,7.139,8.302,7.412
			c1.229,0.18,2.216,2.17,2.606,4.53c0.663,3.999,2.362,4.375,3.813,4.949c0.747,0.293-1.047,0.688-1.047,0.688
			s-2.892-0.897-3.417-5.099c-0.285-2.287-1.191-4.35-2.338-4.365c-1.808-0.024-2.537,2.679-2.537,2.679s-1.696,2.853-3.9,3.202
			c-1.49,0.191-2.808-0.871-2.536-2.14c0.443-2.075,4.225-5.891,4.225-5.891L4.22,5.373L3.55,6.943z"/>
	</g>
	<g>
		<defs>
			<path id="SVGID_20_" d="M31.799,11.6c-0.1,0.2-0.299,0.3-0.5,0.3c-0.399,0-3,0.1-7.899,0.1c-0.2,0-0.3,0-0.5,0.1
				c-0.3,0.1-0.5,0.3-0.601,0.5c-0.1,0.2-0.1,0.6,0,1.2c0,0.3,0.101,0.8,0.201,1.4c0,0.3,0.1,0.6,0.199,1c0,0.2-0.103,0.3-0.4,0.3
				c-0.6,0.1-1.1,0.2-1.6,0.3c-0.9,0.101-1.803,0.2-2.803,0.2c-1.6,0-3.3,0-5.2-0.2c-1.7,4.5-2.5,6.8-2.5,7.101
				c0,0.303,0.1,1.303,0.2,3c0.4,0.303,0.7,0.5,0.9,0.603c0.2,0.103,0.3,0.2,0.2,0.3c0,0.104,0,0.104-0.1,0.2L11,28.2
				c-0.3,0.1-0.6,0.1-0.9,0c-0.5-0.101-3.8-0.7-9.8-2C0,26.1,0,25.3,0.3,23.7c0.1-0.7,0.4-1.7,0.9-3s0.9-2.4,1.4-3.2
				c0.4-0.8,0.8-1.7,1-2.6C3.9,14,4,13.3,4,12.9c-0.1-0.3-0.4-0.6-1.1-1c-0.5-0.3-1-0.5-1.5-0.6c-0.3,0-0.5-0.2-0.6-0.4
				c-0.1-0.1-0.2-0.2-0.3-0.4c-0.1-0.1-0.1-0.4-0.1-0.8c0-0.2,0-0.5,0-1c0-0.7,0-1.1,0.2-1.2C1.1,6.7,1.5,6,1.7,5.6
				C1.8,5.4,2,5.2,2.2,5c0.2-0.2,0.4-0.3,0.6-0.3c0.2,0,0.4,0,0.6,0h0.4C3.9,4.5,4,4.3,4.1,4.2c0.2-0.2,0.6-0.1,1.2,0l0.2,0.4h10.6
				V5h4.6V4.7h10.6L31.6,4.9c0.199,0.1,0.3,0.3,0.3,0.5C32,6.4,32,7.3,32.1,8.2c0.1,1.7,0,2.7,0,2.9
				C31.9,11.4,31.799,11.6,31.799,11.6z M20.799,12.6c-0.1-0.1-0.199-0.1-0.299-0.1v0.1h-3.4c-0.1,0.5-0.1,0.9,0.199,1.2
				c0.301,0.5,0.601,0.8,0.801,1c0.199,0.2,0.5,0.3,0.699,0.3c0.301,0,0.4,0.1,0.301,0.2c0,0.1-0.1,0.2-0.301,0.2
				c-0.1,0-0.299,0-0.5,0C18,15.4,17.7,15.3,17.4,15c-0.5-0.5-0.9-0.9-1-1.2c-0.1-0.3-0.2-0.8-0.2-1.3h-0.7c-0.4,0-0.8,0.2-1.1,0.5
				c-0.3,0.3-0.4,0.7-0.4,1.1c0,0.3,0,0.6,0,1c0.1,0.3,0.3,0.6,0.8,0.7c0.7,0.3,1.3,0.4,1.9,0.3c0.7-0.1,1.301-0.2,1.7-0.2
				c0.2,0,0.601,0,1.101,0C20,16,20.4,16,20.6,16c0.3,0,0.6,0,0.699-0.1c0.101-0.1,0.201-0.2,0.301-0.3c0.1-0.2,0.1-0.6,0.1-1.2
				s-0.1-1.1-0.3-1.4C21.2,12.8,21,12.7,20.799,12.6z"/>
		</defs>
		<clipPath id="SVGID_21_">
			<use xlink:href="#SVGID_20_"  overflow="visible"/>
		</clipPath>
		<path clip-path="url(#SVGID_21_)" fill="#FFFFFF" d="M5.044,13.738C5.77,12.7,7.385,11.062,9.25,11.566
			c1.461,0.396,1.592,2.369,1.592,2.369s1.41,2.754-2.131,5.25c-3.423,0.901-3.983-4.365-3.983-4.365s1.734,2.279,3.251,2.146
			c1.431-0.129,2.547-2.054,2.547-2.054s-0.156-3.516-2.694-2.75c-1.628,0.491-3.231,2.594-3.231,2.594L5.044,13.738z"/>
	</g>
	<g>
		<defs>
			<path id="SVGID_22_" d="M31.799,11.6c-0.1,0.2-0.299,0.3-0.5,0.3c-0.399,0-3,0.1-7.899,0.1c-0.2,0-0.3,0-0.5,0.1
				c-0.3,0.1-0.5,0.3-0.601,0.5c-0.1,0.2-0.1,0.6,0,1.2c0,0.3,0.101,0.8,0.201,1.4c0,0.3,0.1,0.6,0.199,1c0,0.2-0.103,0.3-0.4,0.3
				c-0.6,0.1-1.1,0.2-1.6,0.3c-0.9,0.101-1.803,0.2-2.803,0.2c-1.6,0-3.3,0-5.2-0.2c-1.7,4.5-2.5,6.8-2.5,7.101
				c0,0.303,0.1,1.303,0.2,3c0.4,0.303,0.7,0.5,0.9,0.603c0.2,0.103,0.3,0.2,0.2,0.3c0,0.104,0,0.104-0.1,0.2L11,28.2
				c-0.3,0.1-0.6,0.1-0.9,0c-0.5-0.101-3.8-0.7-9.8-2C0,26.1,0,25.3,0.3,23.7c0.1-0.7,0.4-1.7,0.9-3s0.9-2.4,1.4-3.2
				c0.4-0.8,0.8-1.7,1-2.6C3.9,14,4,13.3,4,12.9c-0.1-0.3-0.4-0.6-1.1-1c-0.5-0.3-1-0.5-1.5-0.6c-0.3,0-0.5-0.2-0.6-0.4
				c-0.1-0.1-0.2-0.2-0.3-0.4c-0.1-0.1-0.1-0.4-0.1-0.8c0-0.2,0-0.5,0-1c0-0.7,0-1.1,0.2-1.2C1.1,6.7,1.5,6,1.7,5.6
				C1.8,5.4,2,5.2,2.2,5c0.2-0.2,0.4-0.3,0.6-0.3c0.2,0,0.4,0,0.6,0h0.4C3.9,4.5,4,4.3,4.1,4.2c0.2-0.2,0.6-0.1,1.2,0l0.2,0.4h10.6
				V5h4.6V4.7h10.6L31.6,4.9c0.199,0.1,0.3,0.3,0.3,0.5C32,6.4,32,7.3,32.1,8.2c0.1,1.7,0,2.7,0,2.9
				C31.9,11.4,31.799,11.6,31.799,11.6z M20.799,12.6c-0.1-0.1-0.199-0.1-0.299-0.1v0.1h-3.4c-0.1,0.5-0.1,0.9,0.199,1.2
				c0.301,0.5,0.601,0.8,0.801,1c0.199,0.2,0.5,0.3,0.699,0.3c0.301,0,0.4,0.1,0.301,0.2c0,0.1-0.1,0.2-0.301,0.2
				c-0.1,0-0.299,0-0.5,0C18,15.4,17.7,15.3,17.4,15c-0.5-0.5-0.9-0.9-1-1.2c-0.1-0.3-0.2-0.8-0.2-1.3h-0.7c-0.4,0-0.8,0.2-1.1,0.5
				c-0.3,0.3-0.4,0.7-0.4,1.1c0,0.3,0,0.6,0,1c0.1,0.3,0.3,0.6,0.8,0.7c0.7,0.3,1.3,0.4,1.9,0.3c0.7-0.1,1.301-0.2,1.7-0.2
				c0.2,0,0.601,0,1.101,0C20,16,20.4,16,20.6,16c0.3,0,0.6,0,0.699-0.1c0.101-0.1,0.201-0.2,0.301-0.3c0.1-0.2,0.1-0.6,0.1-1.2
				s-0.1-1.1-0.3-1.4C21.2,12.8,21,12.7,20.799,12.6z"/>
		</defs>
		<clipPath id="SVGID_23_">
			<use xlink:href="#SVGID_22_"  overflow="visible"/>
		</clipPath>
		<path clip-path="url(#SVGID_23_)" fill="#A089F4" d="M8.99,8.172"/>
	</g>
</g>
<g>
	<path fill="#F3FFFE" d="M11.545,25.22l-0.894,1.926H8.793l4.265-8.461h2.063l1.239,8.461h-1.79l-0.207-1.926H11.545z
		 M13.815,20.473l-1.444,3.096h1.788L13.815,20.473z"/>
	<path fill="#F3FFFE" d="M18.974,27.146c-0.481,0-0.894-0.138-1.169-0.481c-0.272-0.345-0.344-0.757-0.272-1.238l0.96-5.229
		c0.072-0.481,0.276-0.894,0.688-1.169c0.344-0.275,0.759-0.413,1.308-0.413h2.751c0.481,0,0.894,0.138,1.169,0.481
		c0.274,0.344,0.345,0.757,0.274,1.239l-0.207,1.307h-1.789l0.206-1.101c0-0.138,0-0.206,0-0.275
		c-0.069-0.069-0.137-0.069-0.273-0.069h-1.857c-0.273,0-0.48,0.139-0.551,0.482l-0.824,4.54c0,0.138,0,0.206,0,0.275
		c0.069,0.068,0.137,0.068,0.275,0.068h1.856c0.274,0,0.481-0.138,0.551-0.481l0.137-0.963h1.789l-0.345,1.445
		c-0.068,0.481-0.272,0.896-0.688,1.17c-0.344,0.273-0.757,0.413-1.306,0.413L18.974,27.146L18.974,27.146z"/>
	<path fill="#F3FFFE" d="M31.976,18.685l-0.275,1.582H27.78l-0.344,1.72h3.166l-0.274,1.582h-3.166l-0.344,1.927h3.921l-0.274,1.583
		h-5.64l1.513-8.393L31.976,18.685L31.976,18.685z"/>
</g>
</svg>
