<?xml version="1.0" encoding="utf-8"?>
<!-- Generator: Adobe Illustrator 16.0.0, SVG Export Plug-In . SVG Version: 6.00 Build 0)  -->
<!DOCTYPE svg PUBLIC "-//W3C//DTD SVG 1.0//EN" "http://www.w3.org/TR/2001/REC-SVG-20010904/DTD/svg10.dtd">
<svg version="1.0" id="图层_1" xmlns="http://www.w3.org/2000/svg" xmlns:xlink="http://www.w3.org/1999/xlink" x="0px" y="0px"
	 width="96.6px" height="32px" viewBox="0 0 96.6 32" enable-background="new 0 0 96.6 32" xml:space="preserve">
<path opacity="0.7" fill="#CE0B4C" enable-background="new    " d="M68.787,10.997c0,0-4.299,0.8-7.699,5.6c0,0,2.9,1.3,1.9,2.101
	s-5.4-0.399-13.001,7.199c0,0,3.101-1.398,7.3-1.699c4.201-0.301-1.1,2.5-2.299,3.199c0,0,7.799-3.898,10-3.6
	c2.199,0.299-7.801,6-12.101,8c0,0,13.101-4.3,14.601-4.1c1.5,0.199-0.801,2.6-4.4,4.1c0,0,7.5,0,12.5-2.3s6-2.601,6-1.3
	c0,0,4.398-2.801,3.1-3.801s3.301-2.301,6.4-4.601s4.398-3.8,4.398-3.8s-7.498,3.301-9.799,3.4c-2.299,0.101,1.5-3.1,5.6-4.899
	c4.102-1.8,5.4-5.1,5.4-5.1s-5.6,0.2-12.799,3.8c-7.201,3.6-8,4.8-7.4,2.6s7.199-5.3,7.199-5.3s-9.199,0.2-13.4,3.5
	c-4.199,3.3-3-0.8-2.1-1.6C69.088,11.597,68.787,10.997,68.787,10.997z"/>
<g id="Selected_Items">
	<g>
		<g id="Selected_Items_32_">
			
				<linearGradient id="SVGID_1_" gradientUnits="userSpaceOnUse" x1="374.9602" y1="-263.248" x2="471.5881" y2="-263.248" gradientTransform="matrix(1 0 0 -1 -374.96 -246.5996)">
				<stop  offset="0" style="stop-color:#FF2F7D"/>
				<stop  offset="1" style="stop-color:#FF8053"/>
			</linearGradient>
			<path fill="url(#SVGID_1_)" d="M55,3.7H55.9l0.4,0.1c0.1,0.1,0.2,0.2,0.3,0.3c0.103,0,0.2,0,0.3,0L57,4.2c0.1,0,0.2,0,0.3,0
				s0.2,0,0.3,0c0.103,0,0.2,0,0.4,0s0.3,0.1,0.5,0.2S58.9,4.6,59,4.7c0.1,0.1,0.2,0.1,0.3,0.1s0.1,0,0.2,0c0.1,0.1,0.2,0.1,0.3,0.1
				h0.3c0,0,0.103,0,0.3,0C60.5,4.9,60.7,5,60.8,5.1c0.2,0,0.3,0.1,0.4,0.1L61.4,5.3H61.5c0.1,0.2,0.1,0.4,0.2,0.5
				C61.8,6,61.8,6.2,61.9,6.4C61.9,6.6,62,6.8,62,7s0,0.3,0,0.5S62,7.8,61.9,8C61.7,8.6,61.5,9,61.3,9.2C61,9.7,60.9,9.9,60.9,10
				c-0.1,0-0.1,0.1-0.1,0.1c-0.1,0-0.1,0-0.2,0h9.7c0,0.1,0.1,0.2,0.1,0.3c0.103,0.2,0.103,0.3,0.2,0.3c0.5,0.1,1,0.2,1.5,0.3
				s1.103,0.3,1.603,0.4s1,0.2,1.3,0.3c0.397,0.1,0.7,0.1,0.8,0.1c0.2,0,0.4-0.2,0.4-0.6c0-0.1,0.1-0.3,0.1-0.5L77,9.2
				c0,0,0-0.1,0-0.3c0-0.2,0-0.4,0-0.6c0-0.3,0.1-0.5,0.1-0.8h1.2v4v0.3v0.1c0,0.1,0.1,0.1,0.3,0.1c0.103,0.1,0.5,0.1,1.3,0.1
				c0.803,0,1.803,0,3,0c1.2,0,2.5,0,3.803,0c1.3,0,2.6,0,3.8,0c0.397,0,0.8,0,1.2,0c0.3,0,0.6,0,0.897,0s0.5,0,0.7,0
				c0.3,0,0.5,0,0.8,0s0.603,0,0.8-0.1c0.5,0,0.9,0,1.103,0s0.3,0,0.3,0.1c0.2,0.9,0.4,1.5,0.3,1.7c0,0.2-0.2,0.3-0.3,0.3
				c-0.1-0.1-0.4-0.1-1-0.1s-1.2,0-1.8-0.1c-0.603,0-1.103,0-1.7-0.1c-0.6,0-0.9,0-0.9-0.1H78.8c0,0.1-0.1,0.1-0.4,0.1v0.5H80
				l0.6,0.6v1.7h-0.8c-0.1,0-0.2-0.1-0.3-0.1c-0.103,0-0.103-0.1-0.103-0.1c-0.1,0-0.1,0-0.1,0c-0.1,0-0.2,0-0.3,0
				c-0.103,0-0.2,0-0.4,0S78.2,16.5,78,16.5L72.4,16.7c-0.8,0.1-1.5,0.1-2.1,0.2c-0.7,0-1,0-1,0C69.2,17.1,69,17.3,68.8,17.6
				c-0.2,0.301-0.5,0.5-1,0.5c-0.4,0-0.8-0.3-1.3-0.897c-0.2,0-0.3,0-0.4-0.103C65.8,17,65.7,17,65.6,17
				c0.103,0.4,0.103,0.7,0.103,0.9c0,0.199,0,0.397,0,0.699c0,0.301,0,0.601,0,0.801c0,0.1-0.103,0.3-0.2,0.397
				c-0.2,0-0.4,0-0.603,0c-0.197,0-0.397-0.101-0.6-0.198c-0.1,0-0.5,0-1.3,0s-1.7,0-2.8,0c-1.103,0-2.2,0-3.5,0c-0.9,0-1.7,0-2.4,0
				c0,0.101,0.1,0.301,0.1,0.398c0.303,1.102,0.4,2,0.4,2.699v6.801c0,0.602-0.1,0.898-0.2,0.898c-0.2,0-0.3-0.101-0.5-0.101H46.2
				c-0.4,0-0.603,0-0.7-0.101C45.4,30.1,45.3,29.9,45.3,29.6L45.2,17.9c0-0.103,0.1-0.2,0.1-0.301c0-0.199-0.2-0.302-0.5-0.302h-0.1
				c-0.103,0-0.2,0.103-0.303,0.302c-0.1,0-0.1,0.101-0.1,0.301c0,0.199,0,0.3,0,0.5c0,0.1,0,0.199,0.1,0.3c0,0.1-0.1,0.2-0.1,0.3
				c-0.1,0.1-0.2,0.1-0.3,0.1c0.1,0.2,0.1,0.301,0.1,0.5c0,0.103,0,0.301,0,0.5c0,0.4,0,0.7-0.1,1.103c-0.103,0.3-0.4,0.5-0.8,0.601
				C42.9,22,42.5,22.1,42,22.1c-0.4,0-0.8,0-1.2,0S40,22,39.8,22s-0.4-0.1-0.4-0.2c-0.1,0-0.197,0-0.3-0.1
				c-0.2,0-0.3-0.101-0.397-0.2c0,0.1-0.103,0.4-0.303,0.9C38.2,22.9,38,23.4,37.7,24c-0.2,0.6-0.4,1.1-0.603,1.6
				s-0.3,0.7-0.3,0.801c0,0.102,0.1,0.199,0.2,0.399c0,0.2,0,0.3,0,0.4c0,0.1-0.103,0.2-0.2,0.3c0,0.2-0.2,0.4-0.4,0.6
				c-0.3,0.2-0.8,0.2-1.5,0C34.5,28,34.1,27.9,33.7,27.7c-0.4-0.2-0.803-0.3-1.2-0.5c-0.4-0.101-0.8-0.3-1.3-0.5H30.9L31,26.5
				c0.3-0.5,0.6-1.1,1-1.7c0.397-0.7,0.8-1.3,1.1-1.899c0.4-0.601,0.7-1.101,0.9-1.5c0.2-0.398,0.397-0.698,0.397-0.698
				c0.103-0.2,0.103-0.399,0-0.7c-0.1-0.3-0.3-0.602-0.5-0.699L33.4,19c-0.1-0.1-0.3-0.1-0.397-0.2l-7.2-0.5H20
				c-1.3,0-2.7,0.101-4,0.4c-1.603,0.3-2.4,0.6-2.5,1.1C13.4,20,13.4,20.3,13.4,20.8c0.103,0.5,0.303,1,0.5,1.4
				C14.2,22.6,14.3,22.8,14.2,23c0,0.1-0.103,0.1-0.303,0.1L1.2,23.5C0.9,23.5,0.6,23.3,0.4,23C0.1,22.7,0,22.3,0,21.8V11.2
				c0.1-0.2,0.3-0.3,0.6-0.4c0.603-0.2,1.2-0.2,1.9,0.1c0.5,0.2,2.897,0.5,7.1,1c0.4,0,0.9,0.4,1.4,1s1.1,0.9,1.6,1
				c0.5,0,1.2,0,2.2-0.1c0.8-0.1,1.6-0.2,2.3-0.3c1.603-0.3,2.9-0.7,4.103-1.1c0.697-0.3,1.697-0.7,2.897-1.3
				c1.603-0.7,3.3-1,5.103-1.1c0.197,0,0.3,0,0.5-0.1c0.697-0.1,1.397-0.2,2-0.3C32.4,9.5,32.9,9.5,33.2,9.5V9.4
				c0.1-0.3,0.3-0.7,0.397-1c0.103-0.3,0.2-0.5,0.3-0.7c0.2-0.2,0.4-0.3,0.7-0.4c0.2-0.1,0.603-0.1,1-0.1c0.4,0.1,0.8,0.2,1.2,0.3
				s0.8,0.2,1.1,0.3L39,8.2c0.1,0,0.1,0.1,0.2,0.3c0.1,0,0.1,0.1,0.197,0.3c0,0.1,0.103,0.3,0.103,0.5v0.5H45.4V9.2H48.5v0.5
				c0.2,0,0.5,0,0.897,0c0.4,0,0.803,0,1.2,0c0.4,0,0.8,0,1.103,0c0.3,0,0.5,0.1,0.5,0.1c0.1,0,0.397,0,0.897-0.1
				c0.5,0,1.2-0.1,1.9-0.1c0.8,0,1.5-0.1,2.3-0.2c0.8,0,1.6-0.1,2.3-0.3c0.103,0,0.2-0.1,0.3-0.3C60,8.7,60.1,8.6,60.3,8.4
				c0.1-0.2,0.2-0.5,0.3-0.8c-0.3-0.2-0.5-0.4-0.7-0.4C59.8,7.2,59.7,7.1,59.5,7c-0.2,0-0.4-0.1-0.4-0.2c-0.2-0.1-0.5-0.2-0.8-0.3
				s-0.6-0.1-0.9-0.2h-0.1c-0.2-0.1-0.5-0.2-0.9-0.2L55.7,6c-0.2,0-0.4,0-0.5-0.1c-0.103,0-0.2-0.2-0.4-0.4l0,0H54
				c-0.3,0-0.5,0-0.603,0c-0.1,0-0.197,0-0.397,0c-0.2-0.3-0.4-0.6-0.4-0.9C52.5,4.3,52.7,3.8,53.2,3V2.9h0.1c0.6,0.2,1,0.3,1.2,0.4
				C54.8,3.5,54.9,3.6,55,3.7z M43.1,19.1c-0.397,0.103-1.3,0.103-2.5,0c-0.1,0.2-0.2,0.4-0.2,0.603c0,0.3,0.103,0.601,0.303,0.8
				c0.197,0.2,0.5,0.301,0.8,0.301H42.4c0.2,0,0.4-0.101,0.603-0.301c0.202-0.199,0.3-0.398,0.3-0.8C43.3,19.5,43.2,19.3,43.1,19.1z
				"/>
		</g>
	</g>
</g>
<g id="guides">
</g>
<g>
	<g>
		<defs>
			<path id="SVGID_2_" d="M55,3.7H55.9l0.4,0.1c0.1,0.1,0.2,0.2,0.3,0.3c0.103,0,0.2,0,0.3,0L57,4.2c0.1,0,0.2,0,0.3,0s0.2,0,0.3,0
				c0.103,0,0.2,0,0.4,0s0.3,0.1,0.5,0.2S58.9,4.6,59,4.7c0.1,0.1,0.2,0.1,0.3,0.1s0.1,0,0.2,0c0.1,0.1,0.2,0.1,0.3,0.1h0.3
				c0,0,0.103,0,0.3,0C60.5,4.9,60.7,5,60.8,5.1c0.2,0,0.3,0.1,0.4,0.1L61.4,5.3H61.5c0.1,0.2,0.1,0.4,0.2,0.5
				C61.8,6,61.8,6.2,61.9,6.4C61.9,6.6,62,6.8,62,7s0,0.3,0,0.5S62,7.8,61.9,8C61.7,8.6,61.5,9,61.3,9.2C61,9.7,60.9,9.9,60.9,10
				c-0.1,0-0.1,0.1-0.1,0.1c-0.1,0-0.1,0-0.2,0h9.7c0,0.1,0.1,0.2,0.1,0.3c0.103,0.2,0.103,0.3,0.2,0.3c0.5,0.1,1,0.2,1.5,0.3
				s1.103,0.3,1.603,0.4s1,0.2,1.3,0.3c0.397,0.1,0.7,0.1,0.8,0.1c0.2,0,0.4-0.2,0.4-0.6c0-0.1,0.1-0.3,0.1-0.5L77,9.2
				c0,0,0-0.1,0-0.3c0-0.2,0-0.4,0-0.6c0-0.3,0.1-0.5,0.1-0.8h1.2v4v0.3v0.1c0,0.1,0.1,0.1,0.3,0.1c0.103,0.1,0.5,0.1,1.3,0.1
				c0.803,0,1.803,0,3,0c1.2,0,2.5,0,3.803,0c1.3,0,2.6,0,3.8,0c0.397,0,0.8,0,1.2,0c0.3,0,0.6,0,0.897,0s0.5,0,0.7,0
				c0.3,0,0.5,0,0.8,0s0.603,0,0.8-0.1c0.5,0,0.9,0,1.103,0s0.3,0,0.3,0.1c0.2,0.9,0.4,1.5,0.3,1.7c0,0.2-0.2,0.3-0.3,0.3
				c-0.1-0.1-0.4-0.1-1-0.1s-1.2,0-1.8-0.1c-0.603,0-1.103,0-1.7-0.1c-0.6,0-0.9,0-0.9-0.1H78.8c0,0.1-0.1,0.1-0.4,0.1v0.5H80
				l0.6,0.6v1.7h-0.8c-0.1,0-0.2-0.1-0.3-0.1c-0.103,0-0.103-0.1-0.103-0.1c-0.1,0-0.1,0-0.1,0c-0.1,0-0.2,0-0.3,0
				c-0.103,0-0.2,0-0.4,0S78.2,16.5,78,16.5L72.4,16.7c-0.8,0.1-1.5,0.1-2.1,0.2c-0.7,0-1,0-1,0C69.2,17.1,69,17.3,68.8,17.6
				c-0.2,0.301-0.5,0.5-1,0.5c-0.4,0-0.8-0.3-1.3-0.897c-0.2,0-0.3,0-0.4-0.103C65.8,17,65.7,17,65.6,17
				c0.103,0.4,0.103,0.7,0.103,0.9c0,0.199,0,0.397,0,0.699c0,0.301,0,0.601,0,0.801c0,0.1-0.103,0.3-0.2,0.397
				c-0.2,0-0.4,0-0.603,0c-0.197,0-0.397-0.101-0.6-0.198c-0.1,0-0.5,0-1.3,0s-1.7,0-2.8,0c-1.103,0-2.2,0-3.5,0c-0.9,0-1.7,0-2.4,0
				c0,0.101,0.1,0.301,0.1,0.398c0.303,1.102,0.4,2,0.4,2.699v6.801c0,0.602-0.1,0.898-0.2,0.898c-0.2,0-0.3-0.101-0.5-0.101H46.2
				c-0.4,0-0.603,0-0.7-0.101C45.4,30.1,45.3,29.9,45.3,29.6L45.2,17.9c0-0.103,0.1-0.2,0.1-0.301c0-0.199-0.2-0.302-0.5-0.302h-0.1
				c-0.103,0-0.2,0.103-0.303,0.302c-0.1,0-0.1,0.101-0.1,0.301c0,0.199,0,0.3,0,0.5c0,0.1,0,0.199,0.1,0.3c0,0.1-0.1,0.2-0.1,0.3
				c-0.1,0.1-0.2,0.1-0.3,0.1c0.1,0.2,0.1,0.301,0.1,0.5c0,0.103,0,0.301,0,0.5c0,0.4,0,0.7-0.1,1.103c-0.103,0.3-0.4,0.5-0.8,0.601
				C42.9,22,42.5,22.1,42,22.1c-0.4,0-0.8,0-1.2,0S40,22,39.8,22s-0.4-0.1-0.4-0.2c-0.1,0-0.197,0-0.3-0.1
				c-0.2,0-0.3-0.101-0.397-0.2c0,0.1-0.103,0.4-0.303,0.9C38.2,22.9,38,23.4,37.7,24c-0.2,0.6-0.4,1.1-0.603,1.6
				s-0.3,0.7-0.3,0.801c0,0.102,0.1,0.199,0.2,0.399c0,0.2,0,0.3,0,0.4c0,0.1-0.103,0.2-0.2,0.3c0,0.2-0.2,0.4-0.4,0.6
				c-0.3,0.2-0.8,0.2-1.5,0C34.5,28,34.1,27.9,33.7,27.7c-0.4-0.2-0.803-0.3-1.2-0.5c-0.4-0.101-0.8-0.3-1.3-0.5H30.9L31,26.5
				c0.3-0.5,0.6-1.1,1-1.7c0.397-0.7,0.8-1.3,1.1-1.899c0.4-0.601,0.7-1.101,0.9-1.5c0.2-0.398,0.397-0.698,0.397-0.698
				c0.103-0.2,0.103-0.399,0-0.7c-0.1-0.3-0.3-0.602-0.5-0.699L33.4,19c-0.1-0.1-0.3-0.1-0.397-0.2l-7.2-0.5H20
				c-1.3,0-2.7,0.101-4,0.4c-1.603,0.3-2.4,0.6-2.5,1.1C13.4,20,13.4,20.3,13.4,20.8c0.103,0.5,0.303,1,0.5,1.4
				C14.2,22.6,14.3,22.8,14.2,23c0,0.1-0.103,0.1-0.303,0.1L1.2,23.5C0.9,23.5,0.6,23.3,0.4,23C0.1,22.7,0,22.3,0,21.8V11.2
				c0.1-0.2,0.3-0.3,0.6-0.4c0.603-0.2,1.2-0.2,1.9,0.1c0.5,0.2,2.897,0.5,7.1,1c0.4,0,0.9,0.4,1.4,1s1.1,0.9,1.6,1
				c0.5,0,1.2,0,2.2-0.1c0.8-0.1,1.6-0.2,2.3-0.3c1.603-0.3,2.9-0.7,4.103-1.1c0.697-0.3,1.697-0.7,2.897-1.3
				c1.603-0.7,3.3-1,5.103-1.1c0.197,0,0.3,0,0.5-0.1c0.697-0.1,1.397-0.2,2-0.3C32.4,9.5,32.9,9.5,33.2,9.5V9.4
				c0.1-0.3,0.3-0.7,0.397-1c0.103-0.3,0.2-0.5,0.3-0.7c0.2-0.2,0.4-0.3,0.7-0.4c0.2-0.1,0.603-0.1,1-0.1c0.4,0.1,0.8,0.2,1.2,0.3
				s0.8,0.2,1.1,0.3L39,8.2c0.1,0,0.1,0.1,0.2,0.3c0.1,0,0.1,0.1,0.197,0.3c0,0.1,0.103,0.3,0.103,0.5v0.5H45.4V9.2H48.5v0.5
				c0.2,0,0.5,0,0.897,0c0.4,0,0.803,0,1.2,0c0.4,0,0.8,0,1.103,0c0.3,0,0.5,0.1,0.5,0.1c0.1,0,0.397,0,0.897-0.1
				c0.5,0,1.2-0.1,1.9-0.1c0.8,0,1.5-0.1,2.3-0.2c0.8,0,1.6-0.1,2.3-0.3c0.103,0,0.2-0.1,0.3-0.3C60,8.7,60.1,8.6,60.3,8.4
				c0.1-0.2,0.2-0.5,0.3-0.8c-0.3-0.2-0.5-0.4-0.7-0.4C59.8,7.2,59.7,7.1,59.5,7c-0.2,0-0.4-0.1-0.4-0.2c-0.2-0.1-0.5-0.2-0.8-0.3
				s-0.6-0.1-0.9-0.2h-0.1c-0.2-0.1-0.5-0.2-0.9-0.2L55.7,6c-0.2,0-0.4,0-0.5-0.1c-0.103,0-0.2-0.2-0.4-0.4l0,0H54
				c-0.3,0-0.5,0-0.603,0c-0.1,0-0.197,0-0.397,0c-0.2-0.3-0.4-0.6-0.4-0.9C52.5,4.3,52.7,3.8,53.2,3V2.9h0.1c0.6,0.2,1,0.3,1.2,0.4
				C54.8,3.5,54.9,3.6,55,3.7z M43.1,19.1c-0.397,0.103-1.3,0.103-2.5,0c-0.1,0.2-0.2,0.4-0.2,0.603c0,0.3,0.103,0.601,0.303,0.8
				c0.197,0.2,0.5,0.301,0.8,0.301H42.4c0.2,0,0.4-0.101,0.603-0.301c0.202-0.199,0.3-0.398,0.3-0.8C43.3,19.5,43.2,19.3,43.1,19.1z
				"/>
		</defs>
		<clipPath id="SVGID_3_">
			<use xlink:href="#SVGID_2_"  overflow="visible"/>
		</clipPath>
		<g clip-path="url(#SVGID_3_)">
			<g>
				<g>
					
						<linearGradient id="SVGID_4_" gradientUnits="userSpaceOnUse" x1="755.4788" y1="587.2266" x2="804.3929" y2="574.3346" gradientTransform="matrix(1 0 0 1 -749.9199 -562.1992)">
						<stop  offset="2.054068e-007" style="stop-color:#FE6198"/>
						<stop  offset="1" style="stop-color:#FFC9D4"/>
					</linearGradient>
					<polygon fill="url(#SVGID_4_)" points="-9.675,30.773 -3.201,30.773 1.758,24.299 -4.716,24.299 					"/>
					
						<linearGradient id="SVGID_5_" gradientUnits="userSpaceOnUse" x1="754.6223" y1="583.9756" x2="803.5273" y2="571.0859" gradientTransform="matrix(1 0 0 1 -749.9199 -562.1992)">
						<stop  offset="2.054068e-007" style="stop-color:#FE6198"/>
						<stop  offset="1" style="stop-color:#FFC9D4"/>
					</linearGradient>
					<polygon fill="url(#SVGID_5_)" points="6.579,17.825 1.758,24.299 8.232,24.299 13.053,17.825 					"/>
					
						<linearGradient id="SVGID_6_" gradientUnits="userSpaceOnUse" x1="756.3196" y1="590.418" x2="805.235" y2="577.5255" gradientTransform="matrix(1 0 0 1 -749.9199 -562.1992)">
						<stop  offset="2.054068e-007" style="stop-color:#FE6198"/>
						<stop  offset="1" style="stop-color:#FFC9D4"/>
					</linearGradient>
					<polygon fill="url(#SVGID_6_)" points="3.273,30.773 9.747,30.773 14.705,24.299 8.232,24.299 					"/>
					
						<linearGradient id="SVGID_7_" gradientUnits="userSpaceOnUse" x1="755.4641" y1="587.166" x2="804.3718" y2="574.2755" gradientTransform="matrix(1 0 0 1 -749.9199 -562.1992)">
						<stop  offset="2.054068e-007" style="stop-color:#FE6198"/>
						<stop  offset="1" style="stop-color:#FFC9D4"/>
					</linearGradient>
					<polygon fill="url(#SVGID_7_)" points="14.705,24.299 21.18,24.299 26.001,17.825 19.527,17.825 					"/>
					
						<linearGradient id="SVGID_8_" gradientUnits="userSpaceOnUse" x1="752.9231" y1="577.5313" x2="801.8391" y2="564.6387" gradientTransform="matrix(1 0 0 1 -749.9199 -562.1992)">
						<stop  offset="2.054068e-007" style="stop-color:#FE6198"/>
						<stop  offset="1" style="stop-color:#FFC9D4"/>
					</linearGradient>
					<polygon fill="url(#SVGID_8_)" points="5.064,11.352 0.105,17.825 6.579,17.825 11.538,11.352 					"/>
					
						<linearGradient id="SVGID_9_" gradientUnits="userSpaceOnUse" x1="752.0627" y1="574.2793" x2="800.9808" y2="561.3862" gradientTransform="matrix(1 0 0 1 -749.9199 -562.1992)">
						<stop  offset="2.054068e-007" style="stop-color:#FE6198"/>
						<stop  offset="1" style="stop-color:#FFC9D4"/>
					</linearGradient>
					<polygon fill="url(#SVGID_9_)" points="22.833,4.877 16.359,4.877 11.538,11.352 18.011,11.352 					"/>
					
						<linearGradient id="SVGID_10_" gradientUnits="userSpaceOnUse" x1="753.7668" y1="580.7207" x2="802.6728" y2="567.8308" gradientTransform="matrix(1 0 0 1 -749.9199 -562.1992)">
						<stop  offset="2.054068e-007" style="stop-color:#FE6198"/>
						<stop  offset="1" style="stop-color:#FFC9D4"/>
					</linearGradient>
					<polygon fill="url(#SVGID_10_)" points="19.527,17.825 24.485,11.352 18.011,11.352 13.053,17.825 					"/>
					
						<linearGradient id="SVGID_11_" gradientUnits="userSpaceOnUse" x1="752.9036" y1="577.4697" x2="801.8188" y2="564.5773" gradientTransform="matrix(1 0 0 1 -749.9199 -562.1992)">
						<stop  offset="2.054068e-007" style="stop-color:#FE6198"/>
						<stop  offset="1" style="stop-color:#FFC9D4"/>
					</linearGradient>
					<polygon fill="url(#SVGID_11_)" points="35.781,4.877 29.306,4.877 24.485,11.352 30.96,11.352 					"/>
					
						<linearGradient id="SVGID_12_" gradientUnits="userSpaceOnUse" x1="756.304" y1="590.3564" x2="805.2142" y2="577.4652" gradientTransform="matrix(1 0 0 1 -749.9199 -562.1992)">
						<stop  offset="2.054068e-007" style="stop-color:#FE6198"/>
						<stop  offset="1" style="stop-color:#FFC9D4"/>
					</linearGradient>
					<polygon fill="url(#SVGID_12_)" points="27.654,24.299 34.128,24.299 38.948,17.825 32.474,17.825 					"/>
					
						<linearGradient id="SVGID_13_" gradientUnits="userSpaceOnUse" x1="755.4417" y1="587.0869" x2="804.3513" y2="574.196" gradientTransform="matrix(1 0 0 1 -749.9199 -562.1992)">
						<stop  offset="2.054068e-007" style="stop-color:#FE6198"/>
						<stop  offset="1" style="stop-color:#FFC9D4"/>
					</linearGradient>
					<polygon fill="url(#SVGID_13_)" points="38.948,17.825 45.423,17.825 50.243,11.352 43.769,11.352 					"/>
					
						<linearGradient id="SVGID_14_" gradientUnits="userSpaceOnUse" x1="754.6038" y1="583.9141" x2="803.5187" y2="571.0219" gradientTransform="matrix(1 0 0 1 -749.9199 -562.1992)">
						<stop  offset="2.054068e-007" style="stop-color:#FE6198"/>
						<stop  offset="1" style="stop-color:#FFC9D4"/>
					</linearGradient>
					<polygon fill="url(#SVGID_14_)" points="30.96,11.352 26.001,17.825 32.474,17.825 37.296,11.352 					"/>
					
						<linearGradient id="SVGID_15_" gradientUnits="userSpaceOnUse" x1="753.7405" y1="580.6426" x2="802.6558" y2="567.7502" gradientTransform="matrix(1 0 0 1 -749.9199 -562.1992)">
						<stop  offset="2.054068e-007" style="stop-color:#FE6198"/>
						<stop  offset="1" style="stop-color:#FFC9D4"/>
					</linearGradient>
					<polygon fill="url(#SVGID_15_)" points="48.73,4.877 42.254,4.877 37.296,11.352 43.769,11.352 					"/>
					
						<linearGradient id="SVGID_16_" gradientUnits="userSpaceOnUse" x1="754.5793" y1="583.835" x2="803.493" y2="570.9429" gradientTransform="matrix(1 0 0 1 -749.9199 -562.1992)">
						<stop  offset="2.054068e-007" style="stop-color:#FE6198"/>
						<stop  offset="1" style="stop-color:#FFC9D4"/>
					</linearGradient>
					<polygon fill="url(#SVGID_16_)" points="55.201,4.877 50.243,11.352 56.717,11.352 61.675,4.877 					"/>
				</g>
			</g>
		</g>
	</g>
</g>
<g>
	<path fill="#FFF0F4" d="M62.841,22.459l-1.3,2.8h-2.7l6.2-12.3h3l1.8,12.3h-2.6l-0.301-2.8H62.841z M66.141,15.559l-2.1,4.5h2.6
		L66.141,15.559z"/>
	<path fill="#FFF0F4" d="M73.641,25.259c-0.7,0-1.3-0.2-1.7-0.7c-0.398-0.5-0.5-1.1-0.398-1.8l1.398-7.6c0.102-0.7,0.4-1.3,1-1.7
		c0.5-0.4,1.102-0.6,1.9-0.6h4c0.7,0,1.3,0.2,1.7,0.7c0.399,0.5,0.5,1.1,0.399,1.8l-0.301,1.9h-2.6l0.3-1.6c0-0.2,0-0.3,0-0.4
		c-0.101-0.1-0.2-0.1-0.399-0.1h-2.699c-0.4,0-0.7,0.2-0.801,0.7l-1.199,6.6c0,0.2,0,0.3,0,0.4c0.1,0.1,0.199,0.1,0.399,0.1h2.7
		c0.4,0,0.7-0.2,0.8-0.7l0.2-1.399h2.6l-0.5,2.1c-0.1,0.7-0.398,1.3-1,1.7c-0.5,0.399-1.1,0.6-1.899,0.6H73.641z"/>
	<path fill="#FFF0F4" d="M92.541,12.959l-0.4,2.3h-5.7l-0.5,2.5h4.601l-0.4,2.3h-4.6l-0.5,2.801h5.7l-0.4,2.3h-8.2l2.2-12.2H92.541z
		"/>
</g>
</svg>
