<?xml version="1.0" encoding="utf-8"?>
<!-- Generator: Adobe Illustrator 16.0.0, SVG Export Plug-In . SVG Version: 6.00 Build 0)  -->
<!DOCTYPE svg PUBLIC "-//W3C//DTD SVG 1.0//EN" "http://www.w3.org/TR/2001/REC-SVG-20010904/DTD/svg10.dtd">
<svg version="1.0" id="图层_1" xmlns="http://www.w3.org/2000/svg" xmlns:xlink="http://www.w3.org/1999/xlink" x="0px" y="0px"
	 width="96.5px" height="32px" viewBox="0 0 96.5 32" enable-background="new 0 0 96.5 32" xml:space="preserve">
<linearGradient id="SVGID_1_" gradientUnits="userSpaceOnUse" x1="743.2568" y1="578.4336" x2="837.751" y2="578.4336" gradientTransform="matrix(1 0 0 1 -741.9199 -562.1992)">
	<stop  offset="0" style="stop-color:#5782CE"/>
	<stop  offset="0.9898" style="stop-color:#5CAEFF"/>
</linearGradient>
<linearGradient id="SVGID_2_" gradientUnits="userSpaceOnUse" x1="371.9219" y1="-262.833" x2="467.166" y2="-262.833" gradientTransform="matrix(1 0 0 -1 -370.96 -246.5996)">
	<stop  offset="0" style="stop-color:#86D4F7"/>
	<stop  offset="1" style="stop-color:#DEF6FF"/>
</linearGradient>
<path fill="url(#SVGID_1_)" stroke="url(#SVGID_2_)" stroke-width="0.75" stroke-miterlimit="10" d="M95.831,9.33v3.623
	l-0.097,0.196H78.4v-0.686h0.295V12.17l-5.581-0.098v-0.196h-2.351l-0.49,0.196h-4.016l0.784,0.196v0.685l-0.196,0.196h-0.882v0.293
	h-0.687V12.17h0.197v-0.196l-2.447-0.098l0.097,0.294l-0.097,0.587c0,0.098-0.1,0.098-0.1,0.098c-0.1,0.097-0.1,0.097-0.195,0.097
	c-0.1,0-0.1-0.097-0.195-0.097l-0.195-0.098v-0.49l-0.099-0.196h-0.489v0.784c0,0.097-0.098,0.097-0.195,0.195v0.098h-0.295
	l-0.195,0.49l-13.904,0.098l-0.293-0.196l-0.293-0.098l-0.686,0.294l-0.098-0.979h-0.685v0.588v0.097
	c0,0.098-0.098,0.098-0.098,0.196c-0.098,0-0.098,0.098-0.196,0.098h-0.098h-0.098c-0.098,0-0.196,0.099-0.196,0.196
	c-0.099,0.098-0.099,0.196-0.196,0.196l-0.098,0.196v3.23l0.195,0.098v0.295l-0.489,0.098v1.176
	c0.098,0.881,0.196,1.762,0.294,2.545c0.195,0.783,0.49,1.764,0.783,2.938c0.196,0.589,0.293,1.078,0.49,1.567l0.196,0.194
	l-5.68,1.567h-0.195v-0.196c-0.196-0.587-0.392-1.272-0.588-1.958c-0.392-1.469-0.686-2.645-0.881-3.33
	c-0.196-0.686-0.294-1.469-0.294-2.252l-0.098-0.979l-0.392,0.099l-0.49-0.099h-3.525l-1.174,0.099c-0.099,0-0.099,0-0.196,0
	c-0.196,0-0.293,0-0.392,0.099c-0.099,0.098-0.196,0.195-0.196,0.195l-0.783,1.566l0.392,0.488l-0.099,0.1
	c-0.195,0.098-0.293,0.098-0.489,0.195c-0.098,0.101-0.196,0.101-0.294,0.195l-0.098,0.098l-1.665,3.133
	c-0.098,0.102-0.098,0.197,0,0.296c0,0.1,0.098,0.194,0.196,0.295c0.098,0.099,0.098,0.099,0.196,0.099l-0.196,0.295l-5.288-1.273
	l4.798-8.322c0.098-0.1,0.098-0.195,0.098-0.295c0.098-0.195,0.098-0.49,0.098-0.685c-0.098-0.294-0.196-0.49-0.293-0.686
	c-0.098-0.196-0.294-0.294-0.392-0.49c-0.195-0.098-0.293-0.196-0.49-0.196h-1.175v0.196H25.72v-2.056h-0.98v-0.294h-3.819
	l-1.175,0.781h-3.525v0.293h-3.133v1.958h-2.155v0.784H9.856v-0.784l-3.525,2.251v-1.859l-4.505,2.252v0.783v0.1
	c-0.196,0.098-0.196,0.098-0.293,0.098c-0.097,0-0.098,0-0.196-0.098v-0.1L1.436,8.742H5.45c0.098,0,0.098,0.098,0.196,0.196
	s0.098,0.293,0.098,0.49l10.282,0.097c0.098,0,0.098,0.099,0.098,0.099c0.098,0.098,0.098,0.098,0.098,0.196h8.324V9.525h0.979
	V9.232h0.293v0.293h0.979V8.938h0.979l0.098,0.098l2.546-4.015l0.098-0.196c0.098-0.098,0.196-0.196,0.294-0.196
	c0.098-0.098,0.195-0.098,0.392-0.195c0.098,0,0.196,0,0.196,0l12.632,1.371l0.392,0.098c0.293,0.098,0.489,0.196,0.686,0.392
	c0.096,0.195,0.292,0.391,0.39,0.685c0.099,0.098,0.099,0.196,0.196,0.294l-0.097,2.448h0.293V8.645l0.783,0.196V8.449h0.294V8.351
	c0-0.098,0.098-0.098,0.098-0.098c0.098,0,0.098-0.098,0.196-0.098L61.07,8.351l0.195,0.294v0.392h0.393h0.098
	c0,0.196,0.098,0.196,0.098,0.294s0.099,0.392,0.099,0.881h0.489v-1.47l2.351-3.231l0.194-0.196c0.197-0.098,0.295-0.196,0.49-0.196
	c0.394,0.098,0.687,0.196,0.783,0.392c0.1,0.098,0.1,0.195,0.1,0.293c0,0.098,0,0.098,0,0.098v4.309h4.014l0.49,0.196h2.253v-0.196
	h5.581V9.232h16.938L95.831,9.33z M65.573,7.959c-0.099-0.098-0.099-0.098-0.194-0.196c0-0.099-0.1-0.196-0.195-0.49V6.882
	l-0.882-0.098l-1.37,2.154l0.193,0.196h2.546l0.197-0.196V7.959H65.573z M63.125,10.211h2.448l0.098-0.392h-2.546V10.211z
	 M44.129,6.393H33.553c-0.098,0-0.196,0-0.293,0c-0.196,0.098-0.294,0.098-0.392,0.196c-0.098,0.098-0.196,0.196-0.294,0.293
	l-0.195,0.196l-0.587,1.469l0.195,0.196l12.044-0.098h0.196c0.098,0,0.196-0.098,0.294-0.195c0.293-0.196,0.49-0.49,0.49-0.979
	c0-0.392-0.098-0.686-0.392-0.881c-0.098-0.098-0.196-0.098-0.294-0.196L44.129,6.393L44.129,6.393z M4.96,13.541H4.764H2.023H1.827
	c-0.098,0.098-0.098,0.196-0.098,0.196s0.098,0.099,0.196,0.196l0.099,0.098h2.839c0.098,0,0.098-0.098,0.098-0.098
	c0.098-0.097,0.098-0.097,0.098-0.196C5.058,13.639,5.058,13.541,4.96,13.541z M1.729,9.036v0.392h3.624c0-0.098,0-0.196,0-0.294
	c0-0.098,0-0.098-0.098-0.196H5.058L1.729,9.036z M36.491,16.283c-0.099-0.098-0.196-0.098-0.294-0.098h-1.469
	c-0.098,0.098-0.196,0.196-0.294,0.293c-0.195,0.293-0.293,0.586-0.293,0.881c0,0.293,0.098,0.588,0.293,0.783
	c0.098,0.101,0.196,0.194,0.294,0.295l-0.196,0.1c-0.195-0.1-0.293-0.196-0.49-0.391c-0.293-0.295-0.489-0.59-0.489-0.979
	c0-0.194,0-0.489,0.196-0.784l0.196-0.294c-0.196,0-0.49,0.098-0.685,0.196c-0.49,0.292-0.686,0.781-0.588,1.367
	c0,0.295,0.196,0.592,0.49,0.884c0.196,0.194,0.293,0.293,0.49,0.293h3.427v-0.49c0.099-0.097,0.196-0.293,0.294-0.487
	c0.098-0.393,0.098-0.785-0.098-1.177C36.98,16.674,36.785,16.478,36.491,16.283z"/>
<g>
	<defs>
		<path id="SVGID_3_" d="M95.831,9.33v3.623l-0.097,0.196H78.4v-0.686h0.295V12.17l-5.581-0.098v-0.196h-2.351l-0.49,0.196h-4.016
			l0.784,0.196v0.685l-0.196,0.196h-0.882v0.293h-0.687V12.17h0.197v-0.196l-2.447-0.098l0.097,0.294l-0.097,0.587
			c0,0.098-0.1,0.098-0.1,0.098c-0.1,0.097-0.1,0.097-0.195,0.097c-0.1,0-0.1-0.097-0.195-0.097l-0.195-0.098v-0.49l-0.099-0.196
			h-0.489v0.784c0,0.097-0.098,0.097-0.195,0.195v0.098h-0.295l-0.195,0.49l-13.904,0.098l-0.293-0.196l-0.293-0.098l-0.686,0.294
			l-0.098-0.979h-0.685v0.588v0.097c0,0.098-0.098,0.098-0.098,0.196c-0.098,0-0.098,0.098-0.196,0.098h-0.098h-0.098
			c-0.098,0-0.196,0.099-0.196,0.196c-0.099,0.098-0.099,0.196-0.196,0.196l-0.098,0.196v3.23l0.195,0.098v0.295l-0.489,0.098v1.176
			c0.098,0.881,0.196,1.762,0.294,2.545c0.195,0.783,0.49,1.764,0.783,2.938c0.196,0.589,0.293,1.078,0.49,1.567l0.196,0.194
			l-5.68,1.567h-0.195v-0.196c-0.196-0.587-0.392-1.272-0.588-1.958c-0.392-1.469-0.686-2.645-0.881-3.33
			c-0.196-0.686-0.294-1.469-0.294-2.252l-0.098-0.979l-0.392,0.099l-0.49-0.099h-3.525l-1.174,0.099c-0.099,0-0.099,0-0.196,0
			c-0.196,0-0.293,0-0.392,0.099c-0.099,0.098-0.196,0.195-0.196,0.195l-0.783,1.566l0.392,0.488l-0.099,0.1
			c-0.195,0.098-0.293,0.098-0.489,0.195c-0.098,0.101-0.196,0.101-0.294,0.195l-0.098,0.098l-1.665,3.133
			c-0.098,0.102-0.098,0.197,0,0.296c0,0.1,0.098,0.194,0.196,0.295c0.098,0.099,0.098,0.099,0.196,0.099l-0.196,0.295l-5.288-1.273
			l4.798-8.322c0.098-0.1,0.098-0.195,0.098-0.295c0.098-0.195,0.098-0.49,0.098-0.685c-0.098-0.294-0.196-0.49-0.293-0.686
			c-0.098-0.196-0.294-0.294-0.392-0.49c-0.195-0.098-0.293-0.196-0.49-0.196h-1.175v0.196H25.72v-2.056h-0.98v-0.294h-3.819
			l-1.175,0.781h-3.525v0.293h-3.133v1.958h-2.155v0.784H9.856v-0.784l-3.525,2.251v-1.859l-4.505,2.252v0.783v0.1
			c-0.196,0.098-0.196,0.098-0.293,0.098c-0.097,0-0.098,0-0.196-0.098v-0.1L1.436,8.742H5.45c0.098,0,0.098,0.098,0.196,0.196
			s0.098,0.293,0.098,0.49l10.282,0.097c0.098,0,0.098,0.099,0.098,0.099c0.098,0.098,0.098,0.098,0.098,0.196h8.324V9.525h0.979
			V9.232h0.293v0.293h0.979V8.938h0.979l0.098,0.098l2.546-4.015l0.098-0.196c0.098-0.098,0.196-0.196,0.294-0.196
			c0.098-0.098,0.195-0.098,0.392-0.195c0.098,0,0.196,0,0.196,0l12.632,1.371l0.392,0.098c0.293,0.098,0.489,0.196,0.686,0.392
			c0.096,0.195,0.292,0.391,0.39,0.685c0.099,0.098,0.099,0.196,0.196,0.294l-0.097,2.448h0.293V8.645l0.783,0.196V8.449h0.294
			V8.351c0-0.098,0.098-0.098,0.098-0.098c0.098,0,0.098-0.098,0.196-0.098L61.07,8.351l0.195,0.294v0.392h0.393h0.098
			c0,0.196,0.098,0.196,0.098,0.294s0.099,0.392,0.099,0.881h0.489v-1.47l2.351-3.231l0.194-0.196
			c0.197-0.098,0.295-0.196,0.49-0.196c0.394,0.098,0.687,0.196,0.783,0.392c0.1,0.098,0.1,0.195,0.1,0.293c0,0.098,0,0.098,0,0.098
			v4.309h4.014l0.49,0.196h2.253v-0.196h5.581V9.232h16.938L95.831,9.33z M65.573,7.959c-0.099-0.098-0.099-0.098-0.194-0.196
			c0-0.099-0.1-0.196-0.195-0.49V6.882l-0.882-0.098l-1.37,2.154l0.193,0.196h2.546l0.197-0.196V7.959H65.573z M63.125,10.211h2.448
			l0.098-0.392h-2.546V10.211z M44.129,6.393H33.553c-0.098,0-0.196,0-0.293,0c-0.196,0.098-0.294,0.098-0.392,0.196
			c-0.098,0.098-0.196,0.196-0.294,0.293l-0.195,0.196l-0.587,1.469l0.195,0.196l12.044-0.098h0.196
			c0.098,0,0.196-0.098,0.294-0.195c0.293-0.196,0.49-0.49,0.49-0.979c0-0.392-0.098-0.686-0.392-0.881
			c-0.098-0.098-0.196-0.098-0.294-0.196L44.129,6.393L44.129,6.393z M4.96,13.541H4.764H2.023H1.827
			c-0.098,0.098-0.098,0.196-0.098,0.196s0.098,0.099,0.196,0.196l0.099,0.098h2.839c0.098,0,0.098-0.098,0.098-0.098
			c0.098-0.097,0.098-0.097,0.098-0.196C5.058,13.639,5.058,13.541,4.96,13.541z M1.729,9.036v0.392h3.624c0-0.098,0-0.196,0-0.294
			c0-0.098,0-0.098-0.098-0.196H5.058L1.729,9.036z M36.491,16.283c-0.099-0.098-0.196-0.098-0.294-0.098h-1.469
			c-0.098,0.098-0.196,0.196-0.294,0.293c-0.195,0.293-0.293,0.586-0.293,0.881c0,0.293,0.098,0.588,0.293,0.783
			c0.098,0.101,0.196,0.194,0.294,0.295l-0.196,0.1c-0.195-0.1-0.293-0.196-0.49-0.391c-0.293-0.295-0.489-0.59-0.489-0.979
			c0-0.194,0-0.489,0.196-0.784l0.196-0.294c-0.196,0-0.49,0.098-0.685,0.196c-0.49,0.292-0.686,0.781-0.588,1.367
			c0,0.295,0.196,0.592,0.49,0.884c0.196,0.194,0.293,0.293,0.49,0.293h3.427v-0.49c0.099-0.097,0.196-0.293,0.294-0.487
			c0.098-0.393,0.098-0.785-0.098-1.177C36.98,16.674,36.785,16.478,36.491,16.283z"/>
	</defs>
	<clipPath id="SVGID_4_">
		<use xlink:href="#SVGID_3_"  overflow="visible"/>
	</clipPath>
	<g clip-path="url(#SVGID_4_)">
		<polygon fill="#489FC1" points="46.505,26.375 39.208,29.042 37.641,18.338 43.909,16.208 44.022,17.602 		"/>
		<polygon fill="#4CC3F2" points="40.723,26.909 39.216,18.705 40.53,18.221 41.954,26.637 		"/>
		<polygon fill="#4CC3F2" points="42.798,26.256 41.149,17.993 42.459,17.373 44.029,25.983 		"/>
		
			<linearGradient id="SVGID_5_" gradientUnits="userSpaceOnUse" x1="743.9355" y1="576.2305" x2="789.1699" y2="576.2305" gradientTransform="matrix(1 0 0 1 -741.9199 -562.1992)">
			<stop  offset="5.581969e-004" style="stop-color:#FF9500"/>
			<stop  offset="1" style="stop-color:#EFB941"/>
		</linearGradient>
		<path fill="url(#SVGID_5_)" d="M2.162,9.634h14.732l5.208-0.369l0.396-3.551l8.656-1.609l4.812,0.336
			c0,0,9.292,2.424,11.282,4.159c0,0-3.256,0.586-4.052,2.459c-0.795,1.871-1.185,3.056-3,3.434
			c-3.31,0.276-3.616-1.764-5.556-0.748c-1.586,0.917-1.933,2.274-3.631,3.078c-1.119,0.792-4.339-0.198-5.295,1.157
			c-0.956,1.36-3.038,6.512-4.223,5.935s-2.761-1.573-2.761-1.573l-5.441,0.141l-5.254,0.1l-5.158,0.815l-0.862-1.202L2.162,9.634z"
			/>
		<path fill="#AD6B2A" d="M7.423,13.303c0,0-4.613,0.05-5.08,3.886c-0.604,4.948,4.81,3.152,4.81,3.152S5.173,17.049,7.423,13.303z"
			/>
		<path fill="#5D29FF" d="M7.732,19.991l3.527-1.037c0,0-1.201-2.593,1.584-4.269c2.29-1.383,4.911,0.375,4.911,0.375l1.904-2.361
			c0,0-6.438-3.659-10.842,0.175C5.689,15.595,7.732,19.991,7.732,19.991z"/>
		<path fill="#4383FF" d="M22.232,10.209c0,0-2.915-0.474-4.235-0.355c-1.116,0.1-2.813,0.363-2.573,0.696
			c0.178,0.247,1.738,0.401,2.942,0.825c1.292,0.454,2.227,1.167,2.227,1.167l-2.043,2.522l0.772,1.679l4.934,0.164l0.198-6.727
			L22.232,10.209z"/>
		<path fill="#8600EE" d="M31.634,9.746c0,0-2.046-1.189-4.472,0.1c-2.425,1.29-2.708,6.271,1.513,6.725
			c3.621,0.396,4.337-3.955,2.271-4.558c-2.065-0.602-2.181,1.461-1.948,1.681h-0.558c0,0-0.836-2.515,2.008-2.489
			c2.83,0.024,2.16,3.527,2.16,3.527s1.356-2.195,3.067-2.069c1.933,0.142,1.585,1.028,2.829,1.27
			c1.292,0.25,3.164,0.213,3.756-2.464c0.32-1.448,2.305-2.426,2.305-2.426s-2.505-0.843-3.946,1.167
			c-1.318,1.836-2.273,0.66-3.045-0.162c-1.134-1.207-2.438-1.584-4.485-1.22C32.423,8.948,31.634,9.746,31.634,9.746z"/>
		<ellipse fill="#40C696" cx="15.012" cy="17.838" rx="3.381" ry="3.153"/>
		<path fill="#A20063" d="M35.84,6.609c0,0,1.262-0.483,3.863,0.132c2.599,0.617,3.755,1.47,3.755,1.47s-2.438-0.075-3.029,1.005
			c-0.594,1.08-1.158,1.13-1.725,0.881c-0.565-0.252-1.224-1.534-3.043-1.772c-1.641-0.215,0.093-1.295,0.093-1.295L35.84,6.609z"/>
		<path fill="#F58800" d="M23.619,7.208c0.04,0.013,1.536,3.256,1.536,3.256l3.232-1.697L27.7,6.026L23.619,7.208z"/>
		<polygon fill="#CE9CE5" points="28.063,5.3 28.901,8.61 31.27,9.043 31.446,4.833 		"/>
		<path fill="#646BFF" d="M35.459,5.035c0,0-1.064,2.542-1.078,3.016c0,0-1.982-0.173-2.614,0.71l0.082-4.116L35.459,5.035z"/>
		<path fill="#FCC74F" d="M1.38,15.02c0,0,2.445-2.522,6.51-2.522c0,0,1.208-1.464,2.857-1.862c2.369-0.572,4.008-0.54,4.008-0.54
			l2.062-2.239L0.982,8.084L1.38,15.02z"/>
	</g>
</g>
</svg>
