<?xml version="1.0" encoding="utf-8"?>
<!-- Generator: Adobe Illustrator 16.0.0, SVG Export Plug-In . SVG Version: 6.00 Build 0)  -->
<!DOCTYPE svg PUBLIC "-//W3C//DTD SVG 1.0//EN" "http://www.w3.org/TR/2001/REC-SVG-20010904/DTD/svg10.dtd">
<svg version="1.0" id="Layer_1" xmlns="http://www.w3.org/2000/svg" xmlns:xlink="http://www.w3.org/1999/xlink" x="0px" y="0px"
	 width="79.8px" height="32px" viewBox="0 0 79.8 32" enable-background="new 0 0 79.8 32" xml:space="preserve">
<path opacity="0.7" fill="#2D52EA" enable-background="new    " d="M54.936,13.47c0,0-3.831,0.713-6.862,4.992
	c0,0,2.585,1.158,1.694,1.871c-0.892,0.715-4.813-0.354-11.586,6.416c0,0,2.763-1.245,6.504-1.514
	c3.745-0.269-0.979,2.228-2.048,2.851c0,0,6.95-3.474,8.912-3.209c1.96,0.268-6.952,5.348-10.784,7.13
	c0,0,11.675-3.832,13.012-3.653c1.337,0.177-0.713,2.316-3.921,3.653c0,0,6.684,0,11.14-2.05s5.347-2.318,5.347-1.158
	c0,0,3.92-2.497,2.765-3.388c-1.158-0.892,2.941-2.051,5.702-4.102c2.764-2.049,3.92-3.386,3.92-3.386s-6.683,2.941-8.732,3.029
	c-2.051,0.091,1.336-2.764,4.99-4.365c3.655-1.604,4.813-4.545,4.813-4.545s-4.992,0.178-11.408,3.387s-7.129,4.278-6.593,2.317
	c0.534-1.961,6.415-4.723,6.415-4.723s-8.198,0.178-11.942,3.119c-3.742,2.941-2.673-0.713-1.871-1.426
	C55.204,14.005,54.936,13.47,54.936,13.47z"/>
<g>
	<g>
		<defs>
			<path id="SVGID_1_" d="M78.1,12.7h-3.5v-0.2h-2.399l-0.5,0.2H67.6l0.8,0.2v0.7l-0.199,0.2h-0.9V14h-0.697v-1.2H66.8v-0.2
				l-2.5-0.1l-0.1,0.2L64.1,13.3c0,0.1-0.101,0.1-0.101,0.1c-0.103,0.1-0.103,0.1-0.199,0.1c-0.1,0-0.1-0.1-0.2-0.1l-0.2-0.1v-0.5
				l-0.1-0.2h-0.5v0.8c0,0.1-0.1,0.1-0.2,0.2l-0.2,0.1h-0.3l-0.2,0.5L48,14.4l-0.299-0.2L47.4,14.1l-0.699,0.3l-0.101-1h-0.7V14v0.1
				c0,0.1-0.1,0.1-0.1,0.2c-0.1,0-0.1,0.1-0.2,0.1H45.5h-0.1c-0.1,0-0.199,0.1-0.199,0.2C45.1,14.7,45.1,14.8,45,14.8L44.8,15v3.3
				L45,18.4v0.3l-0.5,0.2V20.1C44.6,21,44.701,21.9,44.8,22.7c0.199,0.8,0.5,1.8,0.8,3c0.2,0.6,0.3,1.1,0.5,1.6l0.2,0.2L40.6,29
				h-0.2v-0.2c-0.2-0.6-0.4-1.3-0.6-2c-0.4-1.5-0.7-2.7-0.9-3.399c-0.2-0.697-0.3-1.5-0.3-2.301l-0.1-1L38.1,20.2L37.6,20.1H34
				L32.8,20.2c-0.1,0-0.1,0-0.2,0c-0.2,0-0.3,0-0.4,0.1C32.1,20.4,32,20.5,32,20.5l-0.8,1.6l0.4,0.5L31.5,22.7
				c-0.2,0.1-0.3,0.1-0.5,0.2C30.9,23,30.8,23,30.7,23.1L30.6,23.2l-1.7,3.2c-0.1,0.1-0.1,0.199,0,0.3c0,0.1,0.1,0.2,0.2,0.3
				s0.1,0.1,0.2,0.1L29,27.7l-5.4-1.3l4.9-8.5c0.1-0.104,0.1-0.2,0.1-0.301c0.1-0.199,0.1-0.5,0.1-0.699c-0.1-0.301-0.2-0.5-0.3-0.7
				c-0.1-0.2-0.3-0.3-0.4-0.5c-0.2-0.1-0.3-0.2-0.5-0.2h-1.2v0.2H26v-2.1h-1v-0.3h-4L20.1,14l-3.7,0.1v0.3h-3.2v2H11v0.8H9.9v-0.8
				l-3.6,2.3v-1.9L1.7,18.9v0.8v0.1C1.6,19.9,1.6,20,1.5,20s-0.1-0.1-0.2-0.2v-0.1V9.3h4.1c0.1,0,0.1,0.1,0.2,0.2
				c0,0.1,0,0.3,0.1,0.5l10.5,0.1c0.1,0,0.1,0.1,0.1,0.1c0.1,0.1,0.1,0.1,0.1,0.2h8.5v-0.3h1V9.8h0.3v0.3h1V9.6h1l0.1,0.1l2.6-4.1
				L31,5.4c0.1-0.1,0.2-0.2,0.3-0.2C31.5,5,31.6,5,31.7,5c0.1,0,0.2,0,0.2,0l12.9,1.4l0.4,0.1c0.299,0.1,0.5,0.2,0.696,0.4
				C46,7,46.1,7.2,46.3,7.5c0.1,0.1,0.1,0.2,0.199,0.3l-0.103,2.5h0.304V9.2L47.5,9.4V9.1H47.8V9c0-0.1,0.1-0.1,0.1-0.1
				c0.1,0,0.1-0.1,0.2-0.1L62.3,9L62.5,9.3v0.4h0.4H63c0,0.1,0,0.2,0,0.2c0,0.1,0.104,0.4,0.104,0.9h0.5V9.3L66,6l0.201-0.2
				c0.199-0.1,0.299-0.2,0.5-0.2C67.1,5.7,67.4,5.8,67.6,6c0.101,0.1,0.101,0.2,0.101,0.3c0,0.1,0,0.1,0,0.1v4.4h4.1l0.5,0.2h2.303
				v-0.2h3.5 M66.8,8.6c-0.1-0.1-0.1-0.1-0.2-0.2c0-0.1-0.101-0.2-0.2-0.5V7.5l-0.9-0.1L64.1,9.6l0.2,0.2h2.6l0.2-0.2v-1H66.8z
				 M64.4,10.8h2.5l0.1-0.4h-2.6V10.8z M44.9,7H34.1c-0.1,0-0.2,0-0.3,0c-0.2,0.1-0.3,0.1-0.4,0.2c-0.1,0.1-0.2,0.2-0.3,0.3
				l-0.2,0.2l-0.6,1.5l0.2,0.2l12.3-0.1H45c0.104,0,0.201-0.1,0.301-0.2c0.303-0.2,0.5-0.5,0.5-1c0-0.4-0.1-0.7-0.397-0.9
				c-0.196,0-0.3-0.1-0.397-0.2H44.9z M4.9,14.2H4.7H1.9H1.7c-0.1,0.1-0.1,0.2-0.1,0.2s0.1,0.1,0.2,0.2l0.1,0.1h2.9
				c0.1,0,0.1-0.1,0.1-0.1C5,14.5,5,14.5,5,14.4S5,14.3,4.9,14.2z M1.7,9.7v0.4h3.7c0-0.1,0-0.2,0-0.3c0-0.1,0-0.1-0.1-0.2H5
				L1.7,9.7z M37.1,17c-0.1,0-0.2,0-0.3-0.1h-1.5C35.2,17,35.1,17.1,35,17.2c-0.2,0.3-0.3,0.6-0.3,0.899
				c0,0.301,0.1,0.601,0.3,0.801c0.1,0.1,0.2,0.199,0.3,0.3l-0.2,0.1c-0.2-0.1-0.3-0.2-0.5-0.399c-0.3-0.301-0.5-0.601-0.5-1
				c0-0.197,0-0.5,0.2-0.801l0.2-0.3c-0.2,0-0.5,0.101-0.7,0.2c-0.5,0.3-0.7,0.8-0.6,1.4c0,0.3,0.2,0.6,0.5,0.896
				c0.2,0.2,0.3,0.303,0.5,0.4h3.5v-0.5c0.1-0.104,0.2-0.303,0.3-0.5c0.1-0.4,0.1-0.803-0.1-1.2C37.6,17.4,37.4,17.2,37.1,17z"/>
		</defs>
		<clipPath id="SVGID_2_">
			<use xlink:href="#SVGID_1_"  overflow="visible"/>
		</clipPath>
		<path clip-path="url(#SVGID_2_)" fill="#0001BF" d="M78.1,12.7h-3.5v-0.2h-2.399l-0.5,0.2H67.6l0.8,0.2v0.7l-0.199,0.2h-0.9V14
			h-0.697v-1.2H66.8v-0.2l-2.5-0.1l-0.1,0.2L64.1,13.3c0,0.1-0.101,0.1-0.101,0.1c-0.103,0.1-0.103,0.1-0.199,0.1
			c-0.1,0-0.1-0.1-0.2-0.1l-0.2-0.1v-0.5l-0.1-0.2h-0.5v0.8c0,0.1-0.1,0.1-0.2,0.2l-0.2,0.1h-0.3l-0.2,0.5L48,14.4l-0.299-0.2
			L47.4,14.1l-0.699,0.3l-0.101-1h-0.7V14v0.1c0,0.1-0.1,0.1-0.1,0.2c-0.1,0-0.1,0.1-0.2,0.1H45.5h-0.1c-0.1,0-0.199,0.1-0.199,0.2
			C45.1,14.7,45.1,14.8,45,14.8L44.8,15v3.3L45,18.4v0.3l-0.5,0.2V20.1C44.6,21,44.701,21.9,44.8,22.7c0.199,0.8,0.5,1.8,0.8,3
			c0.2,0.6,0.3,1.1,0.5,1.6l0.2,0.2L40.6,29h-0.2v-0.2c-0.2-0.6-0.4-1.3-0.6-2c-0.4-1.5-0.7-2.7-0.9-3.399
			c-0.2-0.697-0.3-1.5-0.3-2.301l-0.1-1L38.1,20.2L37.6,20.1H34L32.8,20.2c-0.1,0-0.1,0-0.2,0c-0.2,0-0.3,0-0.4,0.1
			C32.1,20.4,32,20.5,32,20.5l-0.8,1.6l0.4,0.5L31.5,22.7c-0.2,0.1-0.3,0.1-0.5,0.2C30.9,23,30.8,23,30.7,23.1L30.6,23.2l-1.7,3.2
			c-0.1,0.1-0.1,0.199,0,0.3c0,0.1,0.1,0.2,0.2,0.3s0.1,0.1,0.2,0.1L29,27.7l-5.4-1.3l4.9-8.5c0.1-0.104,0.1-0.2,0.1-0.301
			c0.1-0.199,0.1-0.5,0.1-0.699c-0.1-0.301-0.2-0.5-0.3-0.7c-0.1-0.2-0.3-0.3-0.4-0.5c-0.2-0.1-0.3-0.2-0.5-0.2h-1.2v0.2H26v-2.1h-1
			v-0.3h-4L20.1,14l-3.7,0.1v0.3h-3.2v2H11v0.8H9.9v-0.8l-3.6,2.3v-1.9L1.7,18.9v0.8v0.1C1.6,19.9,1.6,20,1.5,20s-0.1-0.1-0.2-0.2
			v-0.1V9.3h4.1c0.1,0,0.1,0.1,0.2,0.2c0,0.1,0,0.3,0.1,0.5l10.5,0.1c0.1,0,0.1,0.1,0.1,0.1c0.1,0.1,0.1,0.1,0.1,0.2h8.5v-0.3h1V9.8
			h0.3v0.3h1V9.6h1l0.1,0.1l2.6-4.1L31,5.4c0.1-0.1,0.2-0.2,0.3-0.2C31.5,5,31.6,5,31.7,5c0.1,0,0.2,0,0.2,0l12.9,1.4l0.4,0.1
			c0.299,0.1,0.5,0.2,0.696,0.4C46,7,46.1,7.2,46.3,7.5c0.1,0.1,0.1,0.2,0.199,0.3l-0.103,2.5h0.304V9.2L47.5,9.4V9.1H47.8V9
			c0-0.1,0.1-0.1,0.1-0.1c0.1,0,0.1-0.1,0.2-0.1L62.3,9L62.5,9.3v0.4h0.4H63c0,0.1,0,0.2,0,0.2c0,0.1,0.104,0.4,0.104,0.9h0.5V9.3
			L66,6l0.201-0.2c0.199-0.1,0.299-0.2,0.5-0.2C67.1,5.7,67.4,5.8,67.6,6c0.101,0.1,0.101,0.2,0.101,0.3c0,0.1,0,0.1,0,0.1v4.4h4.1
			l0.5,0.2h2.303v-0.2h3.5 M66.8,8.6c-0.1-0.1-0.1-0.1-0.2-0.2c0-0.1-0.101-0.2-0.2-0.5V7.5l-0.9-0.1L64.1,9.6l0.2,0.2h2.6l0.2-0.2
			v-1H66.8z M64.4,10.8h2.5l0.1-0.4h-2.6V10.8z M44.9,7H34.1c-0.1,0-0.2,0-0.3,0c-0.2,0.1-0.3,0.1-0.4,0.2c-0.1,0.1-0.2,0.2-0.3,0.3
			l-0.2,0.2l-0.6,1.5l0.2,0.2l12.3-0.1H45c0.104,0,0.201-0.1,0.301-0.2c0.303-0.2,0.5-0.5,0.5-1c0-0.4-0.1-0.7-0.397-0.9
			c-0.196,0-0.3-0.1-0.397-0.2H44.9z M4.9,14.2H4.7H1.9H1.7c-0.1,0.1-0.1,0.2-0.1,0.2s0.1,0.1,0.2,0.2l0.1,0.1h2.9
			c0.1,0,0.1-0.1,0.1-0.1C5,14.5,5,14.5,5,14.4S5,14.3,4.9,14.2z M1.7,9.7v0.4h3.7c0-0.1,0-0.2,0-0.3c0-0.1,0-0.1-0.1-0.2H5L1.7,9.7
			z M37.1,17c-0.1,0-0.2,0-0.3-0.1h-1.5C35.2,17,35.1,17.1,35,17.2c-0.2,0.3-0.3,0.6-0.3,0.899c0,0.301,0.1,0.601,0.3,0.801
			c0.1,0.1,0.2,0.199,0.3,0.3l-0.2,0.1c-0.2-0.1-0.3-0.2-0.5-0.399c-0.3-0.301-0.5-0.601-0.5-1c0-0.197,0-0.5,0.2-0.801l0.2-0.3
			c-0.2,0-0.5,0.101-0.7,0.2c-0.5,0.3-0.7,0.8-0.6,1.4c0,0.3,0.2,0.6,0.5,0.896c0.2,0.2,0.3,0.303,0.5,0.4h3.5v-0.5
			c0.1-0.104,0.2-0.303,0.3-0.5c0.1-0.4,0.1-0.803-0.1-1.2C37.6,17.4,37.4,17.2,37.1,17z"/>
	</g>
	<g>
		<defs>
			<path id="SVGID_3_" d="M78.1,12.7h-3.5v-0.2h-2.399l-0.5,0.2H67.6l0.8,0.2v0.7l-0.199,0.2h-0.9V14h-0.697v-1.2H66.8v-0.2
				l-2.5-0.1l-0.1,0.2L64.1,13.3c0,0.1-0.101,0.1-0.101,0.1c-0.103,0.1-0.103,0.1-0.199,0.1c-0.1,0-0.1-0.1-0.2-0.1l-0.2-0.1v-0.5
				l-0.1-0.2h-0.5v0.8c0,0.1-0.1,0.1-0.2,0.2l-0.2,0.1h-0.3l-0.2,0.5L48,14.4l-0.299-0.2L47.4,14.1l-0.699,0.3l-0.101-1h-0.7V14v0.1
				c0,0.1-0.1,0.1-0.1,0.2c-0.1,0-0.1,0.1-0.2,0.1H45.5h-0.1c-0.1,0-0.199,0.1-0.199,0.2C45.1,14.7,45.1,14.8,45,14.8L44.8,15v3.3
				L45,18.4v0.3l-0.5,0.2V20.1C44.6,21,44.701,21.9,44.8,22.7c0.199,0.8,0.5,1.8,0.8,3c0.2,0.6,0.3,1.1,0.5,1.6l0.2,0.2L40.6,29
				h-0.2v-0.2c-0.2-0.6-0.4-1.3-0.6-2c-0.4-1.5-0.7-2.7-0.9-3.399c-0.2-0.697-0.3-1.5-0.3-2.301l-0.1-1L38.1,20.2L37.6,20.1H34
				L32.8,20.2c-0.1,0-0.1,0-0.2,0c-0.2,0-0.3,0-0.4,0.1C32.1,20.4,32,20.5,32,20.5l-0.8,1.6l0.4,0.5L31.5,22.7
				c-0.2,0.1-0.3,0.1-0.5,0.2C30.9,23,30.8,23,30.7,23.1L30.6,23.2l-1.7,3.2c-0.1,0.1-0.1,0.199,0,0.3c0,0.1,0.1,0.2,0.2,0.3
				s0.1,0.1,0.2,0.1L29,27.7l-5.4-1.3l4.9-8.5c0.1-0.104,0.1-0.2,0.1-0.301c0.1-0.199,0.1-0.5,0.1-0.699c-0.1-0.301-0.2-0.5-0.3-0.7
				c-0.1-0.2-0.3-0.3-0.4-0.5c-0.2-0.1-0.3-0.2-0.5-0.2h-1.2v0.2H26v-2.1h-1v-0.3h-4L20.1,14l-3.7,0.1v0.3h-3.2v2H11v0.8H9.9v-0.8
				l-3.6,2.3v-1.9L1.7,18.9v0.8v0.1C1.6,19.9,1.6,20,1.5,20s-0.1-0.1-0.2-0.2v-0.1V9.3h4.1c0.1,0,0.1,0.1,0.2,0.2
				c0,0.1,0,0.3,0.1,0.5l10.5,0.1c0.1,0,0.1,0.1,0.1,0.1c0.1,0.1,0.1,0.1,0.1,0.2h8.5v-0.3h1V9.8h0.3v0.3h1V9.6h1l0.1,0.1l2.6-4.1
				L31,5.4c0.1-0.1,0.2-0.2,0.3-0.2C31.5,5,31.6,5,31.7,5c0.1,0,0.2,0,0.2,0l12.9,1.4l0.4,0.1c0.299,0.1,0.5,0.2,0.696,0.4
				C46,7,46.1,7.2,46.3,7.5c0.1,0.1,0.1,0.2,0.199,0.3l-0.103,2.5h0.304V9.2L47.5,9.4V9.1H47.8V9c0-0.1,0.1-0.1,0.1-0.1
				c0.1,0,0.1-0.1,0.2-0.1L62.3,9L62.5,9.3v0.4h0.4H63c0,0.1,0,0.2,0,0.2c0,0.1,0.104,0.4,0.104,0.9h0.5V9.3L66,6l0.201-0.2
				c0.199-0.1,0.299-0.2,0.5-0.2C67.1,5.7,67.4,5.8,67.6,6c0.101,0.1,0.101,0.2,0.101,0.3c0,0.1,0,0.1,0,0.1v4.4h4.1l0.5,0.2h2.303
				v-0.2h3.5 M66.8,8.6c-0.1-0.1-0.1-0.1-0.2-0.2c0-0.1-0.101-0.2-0.2-0.5V7.5l-0.9-0.1L64.1,9.6l0.2,0.2h2.6l0.2-0.2v-1H66.8z
				 M64.4,10.8h2.5l0.1-0.4h-2.6V10.8z M44.9,7H34.1c-0.1,0-0.2,0-0.3,0c-0.2,0.1-0.3,0.1-0.4,0.2c-0.1,0.1-0.2,0.2-0.3,0.3
				l-0.2,0.2l-0.6,1.5l0.2,0.2l12.3-0.1H45c0.104,0,0.201-0.1,0.301-0.2c0.303-0.2,0.5-0.5,0.5-1c0-0.4-0.1-0.7-0.397-0.9
				c-0.196,0-0.3-0.1-0.397-0.2H44.9z M4.9,14.2H4.7H1.9H1.7c-0.1,0.1-0.1,0.2-0.1,0.2s0.1,0.1,0.2,0.2l0.1,0.1h2.9
				c0.1,0,0.1-0.1,0.1-0.1C5,14.5,5,14.5,5,14.4S5,14.3,4.9,14.2z M1.7,9.7v0.4h3.7c0-0.1,0-0.2,0-0.3c0-0.1,0-0.1-0.1-0.2H5
				L1.7,9.7z M37.1,17c-0.1,0-0.2,0-0.3-0.1h-1.5C35.2,17,35.1,17.1,35,17.2c-0.2,0.3-0.3,0.6-0.3,0.899
				c0,0.301,0.1,0.601,0.3,0.801c0.1,0.1,0.2,0.199,0.3,0.3l-0.2,0.1c-0.2-0.1-0.3-0.2-0.5-0.399c-0.3-0.301-0.5-0.601-0.5-1
				c0-0.197,0-0.5,0.2-0.801l0.2-0.3c-0.2,0-0.5,0.101-0.7,0.2c-0.5,0.3-0.7,0.8-0.6,1.4c0,0.3,0.2,0.6,0.5,0.896
				c0.2,0.2,0.3,0.303,0.5,0.4h3.5v-0.5c0.1-0.104,0.2-0.303,0.3-0.5c0.1-0.4,0.1-0.803-0.1-1.2C37.6,17.4,37.4,17.2,37.1,17z"/>
		</defs>
		<clipPath id="SVGID_4_">
			<use xlink:href="#SVGID_3_"  overflow="visible"/>
		</clipPath>
		<path clip-path="url(#SVGID_4_)" fill="#1A5AC1" d="M-0.333,12.72l13.571-3.088l6.813,0.651l9.695-4.598l7.589,0.333l2.603,2.548
			l3.159,5.489l1.162,2.211c0,0,1.33-4.044,3.104-3.49c1.771,0.554,0.334,3.236,0.334,3.236l-2.014,10.205l2.672,0.313
			c0,0-0.756,1.839-1.975,2.835c-1.219,1-2.338,1.606-2.721,1.663c-0.383,0.056-2.931-0.389-3.098-0.444
			c-0.166-0.054-3.102-3.101-3.102-3.101l0.125-2.889l0.302-1.1l-15.455-4.293c0,0-6.149,4.043-6.703,2.326
			c-0.062-0.188-4.764,4.932-5.096,5.152C10.3,26.9,5.204,27.786,5.204,27.786l-4.1-1.828L-0.333,12.72z"/>
	</g>
	<g>
		<defs>
			<path id="SVGID_5_" d="M78.1,12.7h-3.5v-0.2h-2.399l-0.5,0.2H67.6l0.8,0.2v0.7l-0.199,0.2h-0.9V14h-0.697v-1.2H66.8v-0.2
				l-2.5-0.1l-0.1,0.2L64.1,13.3c0,0.1-0.101,0.1-0.101,0.1c-0.103,0.1-0.103,0.1-0.199,0.1c-0.1,0-0.1-0.1-0.2-0.1l-0.2-0.1v-0.5
				l-0.1-0.2h-0.5v0.8c0,0.1-0.1,0.1-0.2,0.2l-0.2,0.1h-0.3l-0.2,0.5L48,14.4l-0.299-0.2L47.4,14.1l-0.699,0.3l-0.101-1h-0.7V14v0.1
				c0,0.1-0.1,0.1-0.1,0.2c-0.1,0-0.1,0.1-0.2,0.1H45.5h-0.1c-0.1,0-0.199,0.1-0.199,0.2C45.1,14.7,45.1,14.8,45,14.8L44.8,15v3.3
				L45,18.4v0.3l-0.5,0.2V20.1C44.6,21,44.701,21.9,44.8,22.7c0.199,0.8,0.5,1.8,0.8,3c0.2,0.6,0.3,1.1,0.5,1.6l0.2,0.2L40.6,29
				h-0.2v-0.2c-0.2-0.6-0.4-1.3-0.6-2c-0.4-1.5-0.7-2.7-0.9-3.399c-0.2-0.697-0.3-1.5-0.3-2.301l-0.1-1L38.1,20.2L37.6,20.1H34
				L32.8,20.2c-0.1,0-0.1,0-0.2,0c-0.2,0-0.3,0-0.4,0.1C32.1,20.4,32,20.5,32,20.5l-0.8,1.6l0.4,0.5L31.5,22.7
				c-0.2,0.1-0.3,0.1-0.5,0.2C30.9,23,30.8,23,30.7,23.1L30.6,23.2l-1.7,3.2c-0.1,0.1-0.1,0.199,0,0.3c0,0.1,0.1,0.2,0.2,0.3
				s0.1,0.1,0.2,0.1L29,27.7l-5.4-1.3l4.9-8.5c0.1-0.104,0.1-0.2,0.1-0.301c0.1-0.199,0.1-0.5,0.1-0.699c-0.1-0.301-0.2-0.5-0.3-0.7
				c-0.1-0.2-0.3-0.3-0.4-0.5c-0.2-0.1-0.3-0.2-0.5-0.2h-1.2v0.2H26v-2.1h-1v-0.3h-4L20.1,14l-3.7,0.1v0.3h-3.2v2H11v0.8H9.9v-0.8
				l-3.6,2.3v-1.9L1.7,18.9v0.8v0.1C1.6,19.9,1.6,20,1.5,20s-0.1-0.1-0.2-0.2v-0.1V9.3h4.1c0.1,0,0.1,0.1,0.2,0.2
				c0,0.1,0,0.3,0.1,0.5l10.5,0.1c0.1,0,0.1,0.1,0.1,0.1c0.1,0.1,0.1,0.1,0.1,0.2h8.5v-0.3h1V9.8h0.3v0.3h1V9.6h1l0.1,0.1l2.6-4.1
				L31,5.4c0.1-0.1,0.2-0.2,0.3-0.2C31.5,5,31.6,5,31.7,5c0.1,0,0.2,0,0.2,0l12.9,1.4l0.4,0.1c0.299,0.1,0.5,0.2,0.696,0.4
				C46,7,46.1,7.2,46.3,7.5c0.1,0.1,0.1,0.2,0.199,0.3l-0.103,2.5h0.304V9.2L47.5,9.4V9.1H47.8V9c0-0.1,0.1-0.1,0.1-0.1
				c0.1,0,0.1-0.1,0.2-0.1L62.3,9L62.5,9.3v0.4h0.4H63c0,0.1,0,0.2,0,0.2c0,0.1,0.104,0.4,0.104,0.9h0.5V9.3L66,6l0.201-0.2
				c0.199-0.1,0.299-0.2,0.5-0.2C67.1,5.7,67.4,5.8,67.6,6c0.101,0.1,0.101,0.2,0.101,0.3c0,0.1,0,0.1,0,0.1v4.4h4.1l0.5,0.2h2.303
				v-0.2h3.5 M66.8,8.6c-0.1-0.1-0.1-0.1-0.2-0.2c0-0.1-0.101-0.2-0.2-0.5V7.5l-0.9-0.1L64.1,9.6l0.2,0.2h2.6l0.2-0.2v-1H66.8z
				 M64.4,10.8h2.5l0.1-0.4h-2.6V10.8z M44.9,7H34.1c-0.1,0-0.2,0-0.3,0c-0.2,0.1-0.3,0.1-0.4,0.2c-0.1,0.1-0.2,0.2-0.3,0.3
				l-0.2,0.2l-0.6,1.5l0.2,0.2l12.3-0.1H45c0.104,0,0.201-0.1,0.301-0.2c0.303-0.2,0.5-0.5,0.5-1c0-0.4-0.1-0.7-0.397-0.9
				c-0.196,0-0.3-0.1-0.397-0.2H44.9z M4.9,14.2H4.7H1.9H1.7c-0.1,0.1-0.1,0.2-0.1,0.2s0.1,0.1,0.2,0.2l0.1,0.1h2.9
				c0.1,0,0.1-0.1,0.1-0.1C5,14.5,5,14.5,5,14.4S5,14.3,4.9,14.2z M1.7,9.7v0.4h3.7c0-0.1,0-0.2,0-0.3c0-0.1,0-0.1-0.1-0.2H5
				L1.7,9.7z M37.1,17c-0.1,0-0.2,0-0.3-0.1h-1.5C35.2,17,35.1,17.1,35,17.2c-0.2,0.3-0.3,0.6-0.3,0.899
				c0,0.301,0.1,0.601,0.3,0.801c0.1,0.1,0.2,0.199,0.3,0.3l-0.2,0.1c-0.2-0.1-0.3-0.2-0.5-0.399c-0.3-0.301-0.5-0.601-0.5-1
				c0-0.197,0-0.5,0.2-0.801l0.2-0.3c-0.2,0-0.5,0.101-0.7,0.2c-0.5,0.3-0.7,0.8-0.6,1.4c0,0.3,0.2,0.6,0.5,0.896
				c0.2,0.2,0.3,0.303,0.5,0.4h3.5v-0.5c0.1-0.104,0.2-0.303,0.3-0.5c0.1-0.4,0.1-0.803-0.1-1.2C37.6,17.4,37.4,17.2,37.1,17z"/>
		</defs>
		<clipPath id="SVGID_6_">
			<use xlink:href="#SVGID_5_"  overflow="visible"/>
		</clipPath>
		
			<path clip-path="url(#SVGID_6_)" fill="none" stroke="#FFFFFF" stroke-width="0.5" stroke-linecap="round" stroke-linejoin="round" stroke-miterlimit="10" d="
			M55.5,14.479c0,0,1.392-5.074,4.111-5.011c2.075,0.049,3.43,1.714,3.751,3.655c0,0,0.685-2.326,2.427-1.924
			c0.901,0.208,2.241,2.813,2.241,2.813s3.168-3.007,4.091-0.533c0,0-0.291-2.038-4.074-3.154c-1.666-0.491-0.906-1.948-1.82-2.087
			c-1.096-0.166-0.76,0.351-3.023,3.881"/>
	</g>
	<g>
		<defs>
			<path id="SVGID_7_" d="M78.1,12.7h-3.5v-0.2h-2.399l-0.5,0.2H67.6l0.8,0.2v0.7l-0.199,0.2h-0.9V14h-0.697v-1.2H66.8v-0.2
				l-2.5-0.1l-0.1,0.2L64.1,13.3c0,0.1-0.101,0.1-0.101,0.1c-0.103,0.1-0.103,0.1-0.199,0.1c-0.1,0-0.1-0.1-0.2-0.1l-0.2-0.1v-0.5
				l-0.1-0.2h-0.5v0.8c0,0.1-0.1,0.1-0.2,0.2l-0.2,0.1h-0.3l-0.2,0.5L48,14.4l-0.299-0.2L47.4,14.1l-0.699,0.3l-0.101-1h-0.7V14v0.1
				c0,0.1-0.1,0.1-0.1,0.2c-0.1,0-0.1,0.1-0.2,0.1H45.5h-0.1c-0.1,0-0.199,0.1-0.199,0.2C45.1,14.7,45.1,14.8,45,14.8L44.8,15v3.3
				L45,18.4v0.3l-0.5,0.2V20.1C44.6,21,44.701,21.9,44.8,22.7c0.199,0.8,0.5,1.8,0.8,3c0.2,0.6,0.3,1.1,0.5,1.6l0.2,0.2L40.6,29
				h-0.2v-0.2c-0.2-0.6-0.4-1.3-0.6-2c-0.4-1.5-0.7-2.7-0.9-3.399c-0.2-0.697-0.3-1.5-0.3-2.301l-0.1-1L38.1,20.2L37.6,20.1H34
				L32.8,20.2c-0.1,0-0.1,0-0.2,0c-0.2,0-0.3,0-0.4,0.1C32.1,20.4,32,20.5,32,20.5l-0.8,1.6l0.4,0.5L31.5,22.7
				c-0.2,0.1-0.3,0.1-0.5,0.2C30.9,23,30.8,23,30.7,23.1L30.6,23.2l-1.7,3.2c-0.1,0.1-0.1,0.199,0,0.3c0,0.1,0.1,0.2,0.2,0.3
				s0.1,0.1,0.2,0.1L29,27.7l-5.4-1.3l4.9-8.5c0.1-0.104,0.1-0.2,0.1-0.301c0.1-0.199,0.1-0.5,0.1-0.699c-0.1-0.301-0.2-0.5-0.3-0.7
				c-0.1-0.2-0.3-0.3-0.4-0.5c-0.2-0.1-0.3-0.2-0.5-0.2h-1.2v0.2H26v-2.1h-1v-0.3h-4L20.1,14l-3.7,0.1v0.3h-3.2v2H11v0.8H9.9v-0.8
				l-3.6,2.3v-1.9L1.7,18.9v0.8v0.1C1.6,19.9,1.6,20,1.5,20s-0.1-0.1-0.2-0.2v-0.1V9.3h4.1c0.1,0,0.1,0.1,0.2,0.2
				c0,0.1,0,0.3,0.1,0.5l10.5,0.1c0.1,0,0.1,0.1,0.1,0.1c0.1,0.1,0.1,0.1,0.1,0.2h8.5v-0.3h1V9.8h0.3v0.3h1V9.6h1l0.1,0.1l2.6-4.1
				L31,5.4c0.1-0.1,0.2-0.2,0.3-0.2C31.5,5,31.6,5,31.7,5c0.1,0,0.2,0,0.2,0l12.9,1.4l0.4,0.1c0.299,0.1,0.5,0.2,0.696,0.4
				C46,7,46.1,7.2,46.3,7.5c0.1,0.1,0.1,0.2,0.199,0.3l-0.103,2.5h0.304V9.2L47.5,9.4V9.1H47.8V9c0-0.1,0.1-0.1,0.1-0.1
				c0.1,0,0.1-0.1,0.2-0.1L62.3,9L62.5,9.3v0.4h0.4H63c0,0.1,0,0.2,0,0.2c0,0.1,0.104,0.4,0.104,0.9h0.5V9.3L66,6l0.201-0.2
				c0.199-0.1,0.299-0.2,0.5-0.2C67.1,5.7,67.4,5.8,67.6,6c0.101,0.1,0.101,0.2,0.101,0.3c0,0.1,0,0.1,0,0.1v4.4h4.1l0.5,0.2h2.303
				v-0.2h3.5 M66.8,8.6c-0.1-0.1-0.1-0.1-0.2-0.2c0-0.1-0.101-0.2-0.2-0.5V7.5l-0.9-0.1L64.1,9.6l0.2,0.2h2.6l0.2-0.2v-1H66.8z
				 M64.4,10.8h2.5l0.1-0.4h-2.6V10.8z M44.9,7H34.1c-0.1,0-0.2,0-0.3,0c-0.2,0.1-0.3,0.1-0.4,0.2c-0.1,0.1-0.2,0.2-0.3,0.3
				l-0.2,0.2l-0.6,1.5l0.2,0.2l12.3-0.1H45c0.104,0,0.201-0.1,0.301-0.2c0.303-0.2,0.5-0.5,0.5-1c0-0.4-0.1-0.7-0.397-0.9
				c-0.196,0-0.3-0.1-0.397-0.2H44.9z M4.9,14.2H4.7H1.9H1.7c-0.1,0.1-0.1,0.2-0.1,0.2s0.1,0.1,0.2,0.2l0.1,0.1h2.9
				c0.1,0,0.1-0.1,0.1-0.1C5,14.5,5,14.5,5,14.4S5,14.3,4.9,14.2z M1.7,9.7v0.4h3.7c0-0.1,0-0.2,0-0.3c0-0.1,0-0.1-0.1-0.2H5
				L1.7,9.7z M37.1,17c-0.1,0-0.2,0-0.3-0.1h-1.5C35.2,17,35.1,17.1,35,17.2c-0.2,0.3-0.3,0.6-0.3,0.899
				c0,0.301,0.1,0.601,0.3,0.801c0.1,0.1,0.2,0.199,0.3,0.3l-0.2,0.1c-0.2-0.1-0.3-0.2-0.5-0.399c-0.3-0.301-0.5-0.601-0.5-1
				c0-0.197,0-0.5,0.2-0.801l0.2-0.3c-0.2,0-0.5,0.101-0.7,0.2c-0.5,0.3-0.7,0.8-0.6,1.4c0,0.3,0.2,0.6,0.5,0.896
				c0.2,0.2,0.3,0.303,0.5,0.4h3.5v-0.5c0.1-0.104,0.2-0.303,0.3-0.5c0.1-0.4,0.1-0.803-0.1-1.2C37.6,17.4,37.4,17.2,37.1,17z"/>
		</defs>
		<clipPath id="SVGID_8_">
			<use xlink:href="#SVGID_7_"  overflow="visible"/>
		</clipPath>
		
			<linearGradient id="SVGID_9_" gradientUnits="userSpaceOnUse" x1="574.4038" y1="824.4766" x2="610.7612" y2="824.4766" gradientTransform="matrix(1 0 0 1 -563.1992 -808.9199)">
			<stop  offset="0" style="stop-color:#A9D0FF"/>
			<stop  offset="0.1986" style="stop-color:#A7CBFF"/>
			<stop  offset="0.4411" style="stop-color:#A1BCFF"/>
			<stop  offset="0.7063" style="stop-color:#97A3FF"/>
			<stop  offset="0.9861" style="stop-color:#8981FF"/>
			<stop  offset="1" style="stop-color:#887FFF"/>
		</linearGradient>
		<path clip-path="url(#SVGID_8_)" fill="url(#SVGID_9_)" d="M12.405,17.184c0,0-0.049,1.955,1.03,3.201
			c1.081,1.246,2.244-0.666,2.244-0.666l3.573-3.322c0,0,2.41,0.414,2.742,0.748c0.333,0.33,5.816-1.58,5.816-1.58
			s-1.08,1.662-0.415,3.156c0.665,1.498,3.49,1.414,4.653,0.834c1.163-0.584,1.662-2.162,3.988-0.916
			c2.327,1.246,5.152,2.908,5.152,2.908s1.817,0.07,1.981-0.676c0.168-0.748,1.121,0.811,2.201,0.063
			c1.082-0.748,1.695-2.338,2.111-3c0.414-0.666-0.912-5.398-0.912-5.398s1.354,3.134,0.477,1.441
			c-1.133-2.187-3.93-4.707-6.418,0.083c-1.667,3.208-2.833,0.625-2.833,0.625s-3.756,1.539-5.75,0.458
			c-1.994-1.08-3.736-2.567-5.481-2.651c-1.745-0.083-4.237-0.499-4.902,0.083c-0.665,0.581-1.118-2.528-1.866-2.954
			c-0.748-0.426-8.313,1.702-8.563,3.031C10.984,13.979,12.405,17.184,12.405,17.184z"/>
	</g>
	<g>
		<defs>
			<path id="SVGID_10_" d="M78.1,12.7h-3.5v-0.2h-2.399l-0.5,0.2H67.6l0.8,0.2v0.7l-0.199,0.2h-0.9V14h-0.697v-1.2H66.8v-0.2
				l-2.5-0.1l-0.1,0.2L64.1,13.3c0,0.1-0.101,0.1-0.101,0.1c-0.103,0.1-0.103,0.1-0.199,0.1c-0.1,0-0.1-0.1-0.2-0.1l-0.2-0.1v-0.5
				l-0.1-0.2h-0.5v0.8c0,0.1-0.1,0.1-0.2,0.2l-0.2,0.1h-0.3l-0.2,0.5L48,14.4l-0.299-0.2L47.4,14.1l-0.699,0.3l-0.101-1h-0.7V14v0.1
				c0,0.1-0.1,0.1-0.1,0.2c-0.1,0-0.1,0.1-0.2,0.1H45.5h-0.1c-0.1,0-0.199,0.1-0.199,0.2C45.1,14.7,45.1,14.8,45,14.8L44.8,15v3.3
				L45,18.4v0.3l-0.5,0.2V20.1C44.6,21,44.701,21.9,44.8,22.7c0.199,0.8,0.5,1.8,0.8,3c0.2,0.6,0.3,1.1,0.5,1.6l0.2,0.2L40.6,29
				h-0.2v-0.2c-0.2-0.6-0.4-1.3-0.6-2c-0.4-1.5-0.7-2.7-0.9-3.399c-0.2-0.697-0.3-1.5-0.3-2.301l-0.1-1L38.1,20.2L37.6,20.1H34
				L32.8,20.2c-0.1,0-0.1,0-0.2,0c-0.2,0-0.3,0-0.4,0.1C32.1,20.4,32,20.5,32,20.5l-0.8,1.6l0.4,0.5L31.5,22.7
				c-0.2,0.1-0.3,0.1-0.5,0.2C30.9,23,30.8,23,30.7,23.1L30.6,23.2l-1.7,3.2c-0.1,0.1-0.1,0.199,0,0.3c0,0.1,0.1,0.2,0.2,0.3
				s0.1,0.1,0.2,0.1L29,27.7l-5.4-1.3l4.9-8.5c0.1-0.104,0.1-0.2,0.1-0.301c0.1-0.199,0.1-0.5,0.1-0.699c-0.1-0.301-0.2-0.5-0.3-0.7
				c-0.1-0.2-0.3-0.3-0.4-0.5c-0.2-0.1-0.3-0.2-0.5-0.2h-1.2v0.2H26v-2.1h-1v-0.3h-4L20.1,14l-3.7,0.1v0.3h-3.2v2H11v0.8H9.9v-0.8
				l-3.6,2.3v-1.9L1.7,18.9v0.8v0.1C1.6,19.9,1.6,20,1.5,20s-0.1-0.1-0.2-0.2v-0.1V9.3h4.1c0.1,0,0.1,0.1,0.2,0.2
				c0,0.1,0,0.3,0.1,0.5l10.5,0.1c0.1,0,0.1,0.1,0.1,0.1c0.1,0.1,0.1,0.1,0.1,0.2h8.5v-0.3h1V9.8h0.3v0.3h1V9.6h1l0.1,0.1l2.6-4.1
				L31,5.4c0.1-0.1,0.2-0.2,0.3-0.2C31.5,5,31.6,5,31.7,5c0.1,0,0.2,0,0.2,0l12.9,1.4l0.4,0.1c0.299,0.1,0.5,0.2,0.696,0.4
				C46,7,46.1,7.2,46.3,7.5c0.1,0.1,0.1,0.2,0.199,0.3l-0.103,2.5h0.304V9.2L47.5,9.4V9.1H47.8V9c0-0.1,0.1-0.1,0.1-0.1
				c0.1,0,0.1-0.1,0.2-0.1L62.3,9L62.5,9.3v0.4h0.4H63c0,0.1,0,0.2,0,0.2c0,0.1,0.104,0.4,0.104,0.9h0.5V9.3L66,6l0.201-0.2
				c0.199-0.1,0.299-0.2,0.5-0.2C67.1,5.7,67.4,5.8,67.6,6c0.101,0.1,0.101,0.2,0.101,0.3c0,0.1,0,0.1,0,0.1v4.4h4.1l0.5,0.2h2.303
				v-0.2h3.5 M66.8,8.6c-0.1-0.1-0.1-0.1-0.2-0.2c0-0.1-0.101-0.2-0.2-0.5V7.5l-0.9-0.1L64.1,9.6l0.2,0.2h2.6l0.2-0.2v-1H66.8z
				 M64.4,10.8h2.5l0.1-0.4h-2.6V10.8z M44.9,7H34.1c-0.1,0-0.2,0-0.3,0c-0.2,0.1-0.3,0.1-0.4,0.2c-0.1,0.1-0.2,0.2-0.3,0.3
				l-0.2,0.2l-0.6,1.5l0.2,0.2l12.3-0.1H45c0.104,0,0.201-0.1,0.301-0.2c0.303-0.2,0.5-0.5,0.5-1c0-0.4-0.1-0.7-0.397-0.9
				c-0.196,0-0.3-0.1-0.397-0.2H44.9z M4.9,14.2H4.7H1.9H1.7c-0.1,0.1-0.1,0.2-0.1,0.2s0.1,0.1,0.2,0.2l0.1,0.1h2.9
				c0.1,0,0.1-0.1,0.1-0.1C5,14.5,5,14.5,5,14.4S5,14.3,4.9,14.2z M1.7,9.7v0.4h3.7c0-0.1,0-0.2,0-0.3c0-0.1,0-0.1-0.1-0.2H5
				L1.7,9.7z M37.1,17c-0.1,0-0.2,0-0.3-0.1h-1.5C35.2,17,35.1,17.1,35,17.2c-0.2,0.3-0.3,0.6-0.3,0.899
				c0,0.301,0.1,0.601,0.3,0.801c0.1,0.1,0.2,0.199,0.3,0.3l-0.2,0.1c-0.2-0.1-0.3-0.2-0.5-0.399c-0.3-0.301-0.5-0.601-0.5-1
				c0-0.197,0-0.5,0.2-0.801l0.2-0.3c-0.2,0-0.5,0.101-0.7,0.2c-0.5,0.3-0.7,0.8-0.6,1.4c0,0.3,0.2,0.6,0.5,0.896
				c0.2,0.2,0.3,0.303,0.5,0.4h3.5v-0.5c0.1-0.104,0.2-0.303,0.3-0.5c0.1-0.4,0.1-0.803-0.1-1.2C37.6,17.4,37.4,17.2,37.1,17z"/>
		</defs>
		<clipPath id="SVGID_11_">
			<use xlink:href="#SVGID_10_"  overflow="visible"/>
		</clipPath>
		
			<path clip-path="url(#SVGID_11_)" fill="none" stroke="#FFFFFF" stroke-width="0.75" stroke-linecap="round" stroke-linejoin="round" stroke-miterlimit="10" d="
			M36.212,18.277c0,0,1.304-0.477,1.93-3.863c0.316-1.717,1.444-5.36,3.912-5.303c2.429,0.056,3.726,3.243,3.912,5.511
			c0,0,1.144-2.681,4.145-2.393c1.084,0.104,3.116,1.71,4.54,3.288c0,0-0.751-2.688-1.93-4.511
			c-0.437-0.675-1.107-2.501-3.646-2.515c-1.533-0.009-2.988,2.971-3.873,6.186"/>
	</g>
	<g>
		<defs>
			<path id="SVGID_12_" d="M78.1,12.7h-3.5v-0.2h-2.399l-0.5,0.2H67.6l0.8,0.2v0.7l-0.199,0.2h-0.9V14h-0.697v-1.2H66.8v-0.2
				l-2.5-0.1l-0.1,0.2L64.1,13.3c0,0.1-0.101,0.1-0.101,0.1c-0.103,0.1-0.103,0.1-0.199,0.1c-0.1,0-0.1-0.1-0.2-0.1l-0.2-0.1v-0.5
				l-0.1-0.2h-0.5v0.8c0,0.1-0.1,0.1-0.2,0.2l-0.2,0.1h-0.3l-0.2,0.5L48,14.4l-0.299-0.2L47.4,14.1l-0.699,0.3l-0.101-1h-0.7V14v0.1
				c0,0.1-0.1,0.1-0.1,0.2c-0.1,0-0.1,0.1-0.2,0.1H45.5h-0.1c-0.1,0-0.199,0.1-0.199,0.2C45.1,14.7,45.1,14.8,45,14.8L44.8,15v3.3
				L45,18.4v0.3l-0.5,0.2V20.1C44.6,21,44.701,21.9,44.8,22.7c0.199,0.8,0.5,1.8,0.8,3c0.2,0.6,0.3,1.1,0.5,1.6l0.2,0.2L40.6,29
				h-0.2v-0.2c-0.2-0.6-0.4-1.3-0.6-2c-0.4-1.5-0.7-2.7-0.9-3.399c-0.2-0.697-0.3-1.5-0.3-2.301l-0.1-1L38.1,20.2L37.6,20.1H34
				L32.8,20.2c-0.1,0-0.1,0-0.2,0c-0.2,0-0.3,0-0.4,0.1C32.1,20.4,32,20.5,32,20.5l-0.8,1.6l0.4,0.5L31.5,22.7
				c-0.2,0.1-0.3,0.1-0.5,0.2C30.9,23,30.8,23,30.7,23.1L30.6,23.2l-1.7,3.2c-0.1,0.1-0.1,0.199,0,0.3c0,0.1,0.1,0.2,0.2,0.3
				s0.1,0.1,0.2,0.1L29,27.7l-5.4-1.3l4.9-8.5c0.1-0.104,0.1-0.2,0.1-0.301c0.1-0.199,0.1-0.5,0.1-0.699c-0.1-0.301-0.2-0.5-0.3-0.7
				c-0.1-0.2-0.3-0.3-0.4-0.5c-0.2-0.1-0.3-0.2-0.5-0.2h-1.2v0.2H26v-2.1h-1v-0.3h-4L20.1,14l-3.7,0.1v0.3h-3.2v2H11v0.8H9.9v-0.8
				l-3.6,2.3v-1.9L1.7,18.9v0.8v0.1C1.6,19.9,1.6,20,1.5,20s-0.1-0.1-0.2-0.2v-0.1V9.3h4.1c0.1,0,0.1,0.1,0.2,0.2
				c0,0.1,0,0.3,0.1,0.5l10.5,0.1c0.1,0,0.1,0.1,0.1,0.1c0.1,0.1,0.1,0.1,0.1,0.2h8.5v-0.3h1V9.8h0.3v0.3h1V9.6h1l0.1,0.1l2.6-4.1
				L31,5.4c0.1-0.1,0.2-0.2,0.3-0.2C31.5,5,31.6,5,31.7,5c0.1,0,0.2,0,0.2,0l12.9,1.4l0.4,0.1c0.299,0.1,0.5,0.2,0.696,0.4
				C46,7,46.1,7.2,46.3,7.5c0.1,0.1,0.1,0.2,0.199,0.3l-0.103,2.5h0.304V9.2L47.5,9.4V9.1H47.8V9c0-0.1,0.1-0.1,0.1-0.1
				c0.1,0,0.1-0.1,0.2-0.1L62.3,9L62.5,9.3v0.4h0.4H63c0,0.1,0,0.2,0,0.2c0,0.1,0.104,0.4,0.104,0.9h0.5V9.3L66,6l0.201-0.2
				c0.199-0.1,0.299-0.2,0.5-0.2C67.1,5.7,67.4,5.8,67.6,6c0.101,0.1,0.101,0.2,0.101,0.3c0,0.1,0,0.1,0,0.1v4.4h4.1l0.5,0.2h2.303
				v-0.2h3.5 M66.8,8.6c-0.1-0.1-0.1-0.1-0.2-0.2c0-0.1-0.101-0.2-0.2-0.5V7.5l-0.9-0.1L64.1,9.6l0.2,0.2h2.6l0.2-0.2v-1H66.8z
				 M64.4,10.8h2.5l0.1-0.4h-2.6V10.8z M44.9,7H34.1c-0.1,0-0.2,0-0.3,0c-0.2,0.1-0.3,0.1-0.4,0.2c-0.1,0.1-0.2,0.2-0.3,0.3
				l-0.2,0.2l-0.6,1.5l0.2,0.2l12.3-0.1H45c0.104,0,0.201-0.1,0.301-0.2c0.303-0.2,0.5-0.5,0.5-1c0-0.4-0.1-0.7-0.397-0.9
				c-0.196,0-0.3-0.1-0.397-0.2H44.9z M4.9,14.2H4.7H1.9H1.7c-0.1,0.1-0.1,0.2-0.1,0.2s0.1,0.1,0.2,0.2l0.1,0.1h2.9
				c0.1,0,0.1-0.1,0.1-0.1C5,14.5,5,14.5,5,14.4S5,14.3,4.9,14.2z M1.7,9.7v0.4h3.7c0-0.1,0-0.2,0-0.3c0-0.1,0-0.1-0.1-0.2H5
				L1.7,9.7z M37.1,17c-0.1,0-0.2,0-0.3-0.1h-1.5C35.2,17,35.1,17.1,35,17.2c-0.2,0.3-0.3,0.6-0.3,0.899
				c0,0.301,0.1,0.601,0.3,0.801c0.1,0.1,0.2,0.199,0.3,0.3l-0.2,0.1c-0.2-0.1-0.3-0.2-0.5-0.399c-0.3-0.301-0.5-0.601-0.5-1
				c0-0.197,0-0.5,0.2-0.801l0.2-0.3c-0.2,0-0.5,0.101-0.7,0.2c-0.5,0.3-0.7,0.8-0.6,1.4c0,0.3,0.2,0.6,0.5,0.896
				c0.2,0.2,0.3,0.303,0.5,0.4h3.5v-0.5c0.1-0.104,0.2-0.303,0.3-0.5c0.1-0.4,0.1-0.803-0.1-1.2C37.6,17.4,37.4,17.2,37.1,17z"/>
		</defs>
		<clipPath id="SVGID_13_">
			<use xlink:href="#SVGID_12_"  overflow="visible"/>
		</clipPath>
		<path clip-path="url(#SVGID_13_)" fill="#A2CAFF" d="M46.953,17.986c0.737,1.177-1.636,4.938-1.636,4.938s0.146,2.808-2.381,3.079
			c-5.074,0.542-5.322-6.945-5.322-6.945s2.103,3.432,4.302,2.416C44.041,20.494,45.919,16.34,46.953,17.986z"/>
	</g>
	<g>
		<defs>
			<path id="SVGID_14_" d="M78.1,12.7h-3.5v-0.2h-2.399l-0.5,0.2H67.6l0.8,0.2v0.7l-0.199,0.2h-0.9V14h-0.697v-1.2H66.8v-0.2
				l-2.5-0.1l-0.1,0.2L64.1,13.3c0,0.1-0.101,0.1-0.101,0.1c-0.103,0.1-0.103,0.1-0.199,0.1c-0.1,0-0.1-0.1-0.2-0.1l-0.2-0.1v-0.5
				l-0.1-0.2h-0.5v0.8c0,0.1-0.1,0.1-0.2,0.2l-0.2,0.1h-0.3l-0.2,0.5L48,14.4l-0.299-0.2L47.4,14.1l-0.699,0.3l-0.101-1h-0.7V14v0.1
				c0,0.1-0.1,0.1-0.1,0.2c-0.1,0-0.1,0.1-0.2,0.1H45.5h-0.1c-0.1,0-0.199,0.1-0.199,0.2C45.1,14.7,45.1,14.8,45,14.8L44.8,15v3.3
				L45,18.4v0.3l-0.5,0.2V20.1C44.6,21,44.701,21.9,44.8,22.7c0.199,0.8,0.5,1.8,0.8,3c0.2,0.6,0.3,1.1,0.5,1.6l0.2,0.2L40.6,29
				h-0.2v-0.2c-0.2-0.6-0.4-1.3-0.6-2c-0.4-1.5-0.7-2.7-0.9-3.399c-0.2-0.697-0.3-1.5-0.3-2.301l-0.1-1L38.1,20.2L37.6,20.1H34
				L32.8,20.2c-0.1,0-0.1,0-0.2,0c-0.2,0-0.3,0-0.4,0.1C32.1,20.4,32,20.5,32,20.5l-0.8,1.6l0.4,0.5L31.5,22.7
				c-0.2,0.1-0.3,0.1-0.5,0.2C30.9,23,30.8,23,30.7,23.1L30.6,23.2l-1.7,3.2c-0.1,0.1-0.1,0.199,0,0.3c0,0.1,0.1,0.2,0.2,0.3
				s0.1,0.1,0.2,0.1L29,27.7l-5.4-1.3l4.9-8.5c0.1-0.104,0.1-0.2,0.1-0.301c0.1-0.199,0.1-0.5,0.1-0.699c-0.1-0.301-0.2-0.5-0.3-0.7
				c-0.1-0.2-0.3-0.3-0.4-0.5c-0.2-0.1-0.3-0.2-0.5-0.2h-1.2v0.2H26v-2.1h-1v-0.3h-4L20.1,14l-3.7,0.1v0.3h-3.2v2H11v0.8H9.9v-0.8
				l-3.6,2.3v-1.9L1.7,18.9v0.8v0.1C1.6,19.9,1.6,20,1.5,20s-0.1-0.1-0.2-0.2v-0.1V9.3h4.1c0.1,0,0.1,0.1,0.2,0.2
				c0,0.1,0,0.3,0.1,0.5l10.5,0.1c0.1,0,0.1,0.1,0.1,0.1c0.1,0.1,0.1,0.1,0.1,0.2h8.5v-0.3h1V9.8h0.3v0.3h1V9.6h1l0.1,0.1l2.6-4.1
				L31,5.4c0.1-0.1,0.2-0.2,0.3-0.2C31.5,5,31.6,5,31.7,5c0.1,0,0.2,0,0.2,0l12.9,1.4l0.4,0.1c0.299,0.1,0.5,0.2,0.696,0.4
				C46,7,46.1,7.2,46.3,7.5c0.1,0.1,0.1,0.2,0.199,0.3l-0.103,2.5h0.304V9.2L47.5,9.4V9.1H47.8V9c0-0.1,0.1-0.1,0.1-0.1
				c0.1,0,0.1-0.1,0.2-0.1L62.3,9L62.5,9.3v0.4h0.4H63c0,0.1,0,0.2,0,0.2c0,0.1,0.104,0.4,0.104,0.9h0.5V9.3L66,6l0.201-0.2
				c0.199-0.1,0.299-0.2,0.5-0.2C67.1,5.7,67.4,5.8,67.6,6c0.101,0.1,0.101,0.2,0.101,0.3c0,0.1,0,0.1,0,0.1v4.4h4.1l0.5,0.2h2.303
				v-0.2h3.5 M66.8,8.6c-0.1-0.1-0.1-0.1-0.2-0.2c0-0.1-0.101-0.2-0.2-0.5V7.5l-0.9-0.1L64.1,9.6l0.2,0.2h2.6l0.2-0.2v-1H66.8z
				 M64.4,10.8h2.5l0.1-0.4h-2.6V10.8z M44.9,7H34.1c-0.1,0-0.2,0-0.3,0c-0.2,0.1-0.3,0.1-0.4,0.2c-0.1,0.1-0.2,0.2-0.3,0.3
				l-0.2,0.2l-0.6,1.5l0.2,0.2l12.3-0.1H45c0.104,0,0.201-0.1,0.301-0.2c0.303-0.2,0.5-0.5,0.5-1c0-0.4-0.1-0.7-0.397-0.9
				c-0.196,0-0.3-0.1-0.397-0.2H44.9z M4.9,14.2H4.7H1.9H1.7c-0.1,0.1-0.1,0.2-0.1,0.2s0.1,0.1,0.2,0.2l0.1,0.1h2.9
				c0.1,0,0.1-0.1,0.1-0.1C5,14.5,5,14.5,5,14.4S5,14.3,4.9,14.2z M1.7,9.7v0.4h3.7c0-0.1,0-0.2,0-0.3c0-0.1,0-0.1-0.1-0.2H5
				L1.7,9.7z M37.1,17c-0.1,0-0.2,0-0.3-0.1h-1.5C35.2,17,35.1,17.1,35,17.2c-0.2,0.3-0.3,0.6-0.3,0.899
				c0,0.301,0.1,0.601,0.3,0.801c0.1,0.1,0.2,0.199,0.3,0.3l-0.2,0.1c-0.2-0.1-0.3-0.2-0.5-0.399c-0.3-0.301-0.5-0.601-0.5-1
				c0-0.197,0-0.5,0.2-0.801l0.2-0.3c-0.2,0-0.5,0.101-0.7,0.2c-0.5,0.3-0.7,0.8-0.6,1.4c0,0.3,0.2,0.6,0.5,0.896
				c0.2,0.2,0.3,0.303,0.5,0.4h3.5v-0.5c0.1-0.104,0.2-0.303,0.3-0.5c0.1-0.4,0.1-0.803-0.1-1.2C37.6,17.4,37.4,17.2,37.1,17z"/>
		</defs>
		<clipPath id="SVGID_15_">
			<use xlink:href="#SVGID_14_"  overflow="visible"/>
		</clipPath>
		<path clip-path="url(#SVGID_15_)" fill="#AFCDFF" d="M14.857,6.406c0,0-3.482,2.228-5.324,1.195
			C7.691,6.57,3.616,5.173,3.616,5.173s-4.178,6.124-4.277,6.336C-0.762,11.725,2.85,18.4,2.85,18.4l7.25-1.467L14.857,6.406z"/>
	</g>
	<g>
		<defs>
			<path id="SVGID_16_" d="M78.1,12.7h-3.5v-0.2h-2.399l-0.5,0.2H67.6l0.8,0.2v0.7l-0.199,0.2h-0.9V14h-0.697v-1.2H66.8v-0.2
				l-2.5-0.1l-0.1,0.2L64.1,13.3c0,0.1-0.101,0.1-0.101,0.1c-0.103,0.1-0.103,0.1-0.199,0.1c-0.1,0-0.1-0.1-0.2-0.1l-0.2-0.1v-0.5
				l-0.1-0.2h-0.5v0.8c0,0.1-0.1,0.1-0.2,0.2l-0.2,0.1h-0.3l-0.2,0.5L48,14.4l-0.299-0.2L47.4,14.1l-0.699,0.3l-0.101-1h-0.7V14v0.1
				c0,0.1-0.1,0.1-0.1,0.2c-0.1,0-0.1,0.1-0.2,0.1H45.5h-0.1c-0.1,0-0.199,0.1-0.199,0.2C45.1,14.7,45.1,14.8,45,14.8L44.8,15v3.3
				L45,18.4v0.3l-0.5,0.2V20.1C44.6,21,44.701,21.9,44.8,22.7c0.199,0.8,0.5,1.8,0.8,3c0.2,0.6,0.3,1.1,0.5,1.6l0.2,0.2L40.6,29
				h-0.2v-0.2c-0.2-0.6-0.4-1.3-0.6-2c-0.4-1.5-0.7-2.7-0.9-3.399c-0.2-0.697-0.3-1.5-0.3-2.301l-0.1-1L38.1,20.2L37.6,20.1H34
				L32.8,20.2c-0.1,0-0.1,0-0.2,0c-0.2,0-0.3,0-0.4,0.1C32.1,20.4,32,20.5,32,20.5l-0.8,1.6l0.4,0.5L31.5,22.7
				c-0.2,0.1-0.3,0.1-0.5,0.2C30.9,23,30.8,23,30.7,23.1L30.6,23.2l-1.7,3.2c-0.1,0.1-0.1,0.199,0,0.3c0,0.1,0.1,0.2,0.2,0.3
				s0.1,0.1,0.2,0.1L29,27.7l-5.4-1.3l4.9-8.5c0.1-0.104,0.1-0.2,0.1-0.301c0.1-0.199,0.1-0.5,0.1-0.699c-0.1-0.301-0.2-0.5-0.3-0.7
				c-0.1-0.2-0.3-0.3-0.4-0.5c-0.2-0.1-0.3-0.2-0.5-0.2h-1.2v0.2H26v-2.1h-1v-0.3h-4L20.1,14l-3.7,0.1v0.3h-3.2v2H11v0.8H9.9v-0.8
				l-3.6,2.3v-1.9L1.7,18.9v0.8v0.1C1.6,19.9,1.6,20,1.5,20s-0.1-0.1-0.2-0.2v-0.1V9.3h4.1c0.1,0,0.1,0.1,0.2,0.2
				c0,0.1,0,0.3,0.1,0.5l10.5,0.1c0.1,0,0.1,0.1,0.1,0.1c0.1,0.1,0.1,0.1,0.1,0.2h8.5v-0.3h1V9.8h0.3v0.3h1V9.6h1l0.1,0.1l2.6-4.1
				L31,5.4c0.1-0.1,0.2-0.2,0.3-0.2C31.5,5,31.6,5,31.7,5c0.1,0,0.2,0,0.2,0l12.9,1.4l0.4,0.1c0.299,0.1,0.5,0.2,0.696,0.4
				C46,7,46.1,7.2,46.3,7.5c0.1,0.1,0.1,0.2,0.199,0.3l-0.103,2.5h0.304V9.2L47.5,9.4V9.1H47.8V9c0-0.1,0.1-0.1,0.1-0.1
				c0.1,0,0.1-0.1,0.2-0.1L62.3,9L62.5,9.3v0.4h0.4H63c0,0.1,0,0.2,0,0.2c0,0.1,0.104,0.4,0.104,0.9h0.5V9.3L66,6l0.201-0.2
				c0.199-0.1,0.299-0.2,0.5-0.2C67.1,5.7,67.4,5.8,67.6,6c0.101,0.1,0.101,0.2,0.101,0.3c0,0.1,0,0.1,0,0.1v4.4h4.1l0.5,0.2h2.303
				v-0.2h3.5 M66.8,8.6c-0.1-0.1-0.1-0.1-0.2-0.2c0-0.1-0.101-0.2-0.2-0.5V7.5l-0.9-0.1L64.1,9.6l0.2,0.2h2.6l0.2-0.2v-1H66.8z
				 M64.4,10.8h2.5l0.1-0.4h-2.6V10.8z M44.9,7H34.1c-0.1,0-0.2,0-0.3,0c-0.2,0.1-0.3,0.1-0.4,0.2c-0.1,0.1-0.2,0.2-0.3,0.3
				l-0.2,0.2l-0.6,1.5l0.2,0.2l12.3-0.1H45c0.104,0,0.201-0.1,0.301-0.2c0.303-0.2,0.5-0.5,0.5-1c0-0.4-0.1-0.7-0.397-0.9
				c-0.196,0-0.3-0.1-0.397-0.2H44.9z M4.9,14.2H4.7H1.9H1.7c-0.1,0.1-0.1,0.2-0.1,0.2s0.1,0.1,0.2,0.2l0.1,0.1h2.9
				c0.1,0,0.1-0.1,0.1-0.1C5,14.5,5,14.5,5,14.4S5,14.3,4.9,14.2z M1.7,9.7v0.4h3.7c0-0.1,0-0.2,0-0.3c0-0.1,0-0.1-0.1-0.2H5
				L1.7,9.7z M37.1,17c-0.1,0-0.2,0-0.3-0.1h-1.5C35.2,17,35.1,17.1,35,17.2c-0.2,0.3-0.3,0.6-0.3,0.899
				c0,0.301,0.1,0.601,0.3,0.801c0.1,0.1,0.2,0.199,0.3,0.3l-0.2,0.1c-0.2-0.1-0.3-0.2-0.5-0.399c-0.3-0.301-0.5-0.601-0.5-1
				c0-0.197,0-0.5,0.2-0.801l0.2-0.3c-0.2,0-0.5,0.101-0.7,0.2c-0.5,0.3-0.7,0.8-0.6,1.4c0,0.3,0.2,0.6,0.5,0.896
				c0.2,0.2,0.3,0.303,0.5,0.4h3.5v-0.5c0.1-0.104,0.2-0.303,0.3-0.5c0.1-0.4,0.1-0.803-0.1-1.2C37.6,17.4,37.4,17.2,37.1,17z"/>
		</defs>
		<clipPath id="SVGID_17_">
			<use xlink:href="#SVGID_16_"  overflow="visible"/>
		</clipPath>
		<path clip-path="url(#SVGID_17_)" fill="#E9EDFF" d="M11.4,15.121c0,0-2.79-1.197-4.896-1.354
			c-2.105-0.157-5.967-1.396-5.967-1.396s-1.2,7.314-1.2,7.549c0,0.238,6.094,4.764,6.094,4.764l5.952-4.393L11.4,15.121z"/>
	</g>
	<g>
		<defs>
			<path id="SVGID_18_" d="M78.1,12.7h-3.5v-0.2h-2.399l-0.5,0.2H67.6l0.8,0.2v0.7l-0.199,0.2h-0.9V14h-0.697v-1.2H66.8v-0.2
				l-2.5-0.1l-0.1,0.2L64.1,13.3c0,0.1-0.101,0.1-0.101,0.1c-0.103,0.1-0.103,0.1-0.199,0.1c-0.1,0-0.1-0.1-0.2-0.1l-0.2-0.1v-0.5
				l-0.1-0.2h-0.5v0.8c0,0.1-0.1,0.1-0.2,0.2l-0.2,0.1h-0.3l-0.2,0.5L48,14.4l-0.299-0.2L47.4,14.1l-0.699,0.3l-0.101-1h-0.7V14v0.1
				c0,0.1-0.1,0.1-0.1,0.2c-0.1,0-0.1,0.1-0.2,0.1H45.5h-0.1c-0.1,0-0.199,0.1-0.199,0.2C45.1,14.7,45.1,14.8,45,14.8L44.8,15v3.3
				L45,18.4v0.3l-0.5,0.2V20.1C44.6,21,44.701,21.9,44.8,22.7c0.199,0.8,0.5,1.8,0.8,3c0.2,0.6,0.3,1.1,0.5,1.6l0.2,0.2L40.6,29
				h-0.2v-0.2c-0.2-0.6-0.4-1.3-0.6-2c-0.4-1.5-0.7-2.7-0.9-3.399c-0.2-0.697-0.3-1.5-0.3-2.301l-0.1-1L38.1,20.2L37.6,20.1H34
				L32.8,20.2c-0.1,0-0.1,0-0.2,0c-0.2,0-0.3,0-0.4,0.1C32.1,20.4,32,20.5,32,20.5l-0.8,1.6l0.4,0.5L31.5,22.7
				c-0.2,0.1-0.3,0.1-0.5,0.2C30.9,23,30.8,23,30.7,23.1L30.6,23.2l-1.7,3.2c-0.1,0.1-0.1,0.199,0,0.3c0,0.1,0.1,0.2,0.2,0.3
				s0.1,0.1,0.2,0.1L29,27.7l-5.4-1.3l4.9-8.5c0.1-0.104,0.1-0.2,0.1-0.301c0.1-0.199,0.1-0.5,0.1-0.699c-0.1-0.301-0.2-0.5-0.3-0.7
				c-0.1-0.2-0.3-0.3-0.4-0.5c-0.2-0.1-0.3-0.2-0.5-0.2h-1.2v0.2H26v-2.1h-1v-0.3h-4L20.1,14l-3.7,0.1v0.3h-3.2v2H11v0.8H9.9v-0.8
				l-3.6,2.3v-1.9L1.7,18.9v0.8v0.1C1.6,19.9,1.6,20,1.5,20s-0.1-0.1-0.2-0.2v-0.1V9.3h4.1c0.1,0,0.1,0.1,0.2,0.2
				c0,0.1,0,0.3,0.1,0.5l10.5,0.1c0.1,0,0.1,0.1,0.1,0.1c0.1,0.1,0.1,0.1,0.1,0.2h8.5v-0.3h1V9.8h0.3v0.3h1V9.6h1l0.1,0.1l2.6-4.1
				L31,5.4c0.1-0.1,0.2-0.2,0.3-0.2C31.5,5,31.6,5,31.7,5c0.1,0,0.2,0,0.2,0l12.9,1.4l0.4,0.1c0.299,0.1,0.5,0.2,0.696,0.4
				C46,7,46.1,7.2,46.3,7.5c0.1,0.1,0.1,0.2,0.199,0.3l-0.103,2.5h0.304V9.2L47.5,9.4V9.1H47.8V9c0-0.1,0.1-0.1,0.1-0.1
				c0.1,0,0.1-0.1,0.2-0.1L62.3,9L62.5,9.3v0.4h0.4H63c0,0.1,0,0.2,0,0.2c0,0.1,0.104,0.4,0.104,0.9h0.5V9.3L66,6l0.201-0.2
				c0.199-0.1,0.299-0.2,0.5-0.2C67.1,5.7,67.4,5.8,67.6,6c0.101,0.1,0.101,0.2,0.101,0.3c0,0.1,0,0.1,0,0.1v4.4h4.1l0.5,0.2h2.303
				v-0.2h3.5 M66.8,8.6c-0.1-0.1-0.1-0.1-0.2-0.2c0-0.1-0.101-0.2-0.2-0.5V7.5l-0.9-0.1L64.1,9.6l0.2,0.2h2.6l0.2-0.2v-1H66.8z
				 M64.4,10.8h2.5l0.1-0.4h-2.6V10.8z M44.9,7H34.1c-0.1,0-0.2,0-0.3,0c-0.2,0.1-0.3,0.1-0.4,0.2c-0.1,0.1-0.2,0.2-0.3,0.3
				l-0.2,0.2l-0.6,1.5l0.2,0.2l12.3-0.1H45c0.104,0,0.201-0.1,0.301-0.2c0.303-0.2,0.5-0.5,0.5-1c0-0.4-0.1-0.7-0.397-0.9
				c-0.196,0-0.3-0.1-0.397-0.2H44.9z M4.9,14.2H4.7H1.9H1.7c-0.1,0.1-0.1,0.2-0.1,0.2s0.1,0.1,0.2,0.2l0.1,0.1h2.9
				c0.1,0,0.1-0.1,0.1-0.1C5,14.5,5,14.5,5,14.4S5,14.3,4.9,14.2z M1.7,9.7v0.4h3.7c0-0.1,0-0.2,0-0.3c0-0.1,0-0.1-0.1-0.2H5
				L1.7,9.7z M37.1,17c-0.1,0-0.2,0-0.3-0.1h-1.5C35.2,17,35.1,17.1,35,17.2c-0.2,0.3-0.3,0.6-0.3,0.899
				c0,0.301,0.1,0.601,0.3,0.801c0.1,0.1,0.2,0.199,0.3,0.3l-0.2,0.1c-0.2-0.1-0.3-0.2-0.5-0.399c-0.3-0.301-0.5-0.601-0.5-1
				c0-0.197,0-0.5,0.2-0.801l0.2-0.3c-0.2,0-0.5,0.101-0.7,0.2c-0.5,0.3-0.7,0.8-0.6,1.4c0,0.3,0.2,0.6,0.5,0.896
				c0.2,0.2,0.3,0.303,0.5,0.4h3.5v-0.5c0.1-0.104,0.2-0.303,0.3-0.5c0.1-0.4,0.1-0.803-0.1-1.2C37.6,17.4,37.4,17.2,37.1,17z"/>
		</defs>
		<clipPath id="SVGID_19_">
			<use xlink:href="#SVGID_18_"  overflow="visible"/>
		</clipPath>
		
			<linearGradient id="SVGID_20_" gradientUnits="userSpaceOnUse" x1="516.4976" y1="879.0439" x2="516.4976" y2="874.1953" gradientTransform="matrix(0.9934 -0.1144 0.1144 0.9934 -563.9191 -797.2828)">
			<stop  offset="0" style="stop-color:#158CFF"/>
			<stop  offset="0.6989" style="stop-color:#FFFFFF"/>
		</linearGradient>
		<path clip-path="url(#SVGID_19_)" fill="url(#SVGID_20_)" d="M44.296,16.777c0,0,1.611-4.656,5.851-4.817
			c3.146-0.12,4.938,4.295,4.938,4.295L44.296,16.777z"/>
	</g>
	<g>
		<defs>
			<path id="SVGID_21_" d="M78.1,12.7h-3.5v-0.2h-2.399l-0.5,0.2H67.6l0.8,0.2v0.7l-0.199,0.2h-0.9V14h-0.697v-1.2H66.8v-0.2
				l-2.5-0.1l-0.1,0.2L64.1,13.3c0,0.1-0.101,0.1-0.101,0.1c-0.103,0.1-0.103,0.1-0.199,0.1c-0.1,0-0.1-0.1-0.2-0.1l-0.2-0.1v-0.5
				l-0.1-0.2h-0.5v0.8c0,0.1-0.1,0.1-0.2,0.2l-0.2,0.1h-0.3l-0.2,0.5L48,14.4l-0.299-0.2L47.4,14.1l-0.699,0.3l-0.101-1h-0.7V14v0.1
				c0,0.1-0.1,0.1-0.1,0.2c-0.1,0-0.1,0.1-0.2,0.1H45.5h-0.1c-0.1,0-0.199,0.1-0.199,0.2C45.1,14.7,45.1,14.8,45,14.8L44.8,15v3.3
				L45,18.4v0.3l-0.5,0.2V20.1C44.6,21,44.701,21.9,44.8,22.7c0.199,0.8,0.5,1.8,0.8,3c0.2,0.6,0.3,1.1,0.5,1.6l0.2,0.2L40.6,29
				h-0.2v-0.2c-0.2-0.6-0.4-1.3-0.6-2c-0.4-1.5-0.7-2.7-0.9-3.399c-0.2-0.697-0.3-1.5-0.3-2.301l-0.1-1L38.1,20.2L37.6,20.1H34
				L32.8,20.2c-0.1,0-0.1,0-0.2,0c-0.2,0-0.3,0-0.4,0.1C32.1,20.4,32,20.5,32,20.5l-0.8,1.6l0.4,0.5L31.5,22.7
				c-0.2,0.1-0.3,0.1-0.5,0.2C30.9,23,30.8,23,30.7,23.1L30.6,23.2l-1.7,3.2c-0.1,0.1-0.1,0.199,0,0.3c0,0.1,0.1,0.2,0.2,0.3
				s0.1,0.1,0.2,0.1L29,27.7l-5.4-1.3l4.9-8.5c0.1-0.104,0.1-0.2,0.1-0.301c0.1-0.199,0.1-0.5,0.1-0.699c-0.1-0.301-0.2-0.5-0.3-0.7
				c-0.1-0.2-0.3-0.3-0.4-0.5c-0.2-0.1-0.3-0.2-0.5-0.2h-1.2v0.2H26v-2.1h-1v-0.3h-4L20.1,14l-3.7,0.1v0.3h-3.2v2H11v0.8H9.9v-0.8
				l-3.6,2.3v-1.9L1.7,18.9v0.8v0.1C1.6,19.9,1.6,20,1.5,20s-0.1-0.1-0.2-0.2v-0.1V9.3h4.1c0.1,0,0.1,0.1,0.2,0.2
				c0,0.1,0,0.3,0.1,0.5l10.5,0.1c0.1,0,0.1,0.1,0.1,0.1c0.1,0.1,0.1,0.1,0.1,0.2h8.5v-0.3h1V9.8h0.3v0.3h1V9.6h1l0.1,0.1l2.6-4.1
				L31,5.4c0.1-0.1,0.2-0.2,0.3-0.2C31.5,5,31.6,5,31.7,5c0.1,0,0.2,0,0.2,0l12.9,1.4l0.4,0.1c0.299,0.1,0.5,0.2,0.696,0.4
				C46,7,46.1,7.2,46.3,7.5c0.1,0.1,0.1,0.2,0.199,0.3l-0.103,2.5h0.304V9.2L47.5,9.4V9.1H47.8V9c0-0.1,0.1-0.1,0.1-0.1
				c0.1,0,0.1-0.1,0.2-0.1L62.3,9L62.5,9.3v0.4h0.4H63c0,0.1,0,0.2,0,0.2c0,0.1,0.104,0.4,0.104,0.9h0.5V9.3L66,6l0.201-0.2
				c0.199-0.1,0.299-0.2,0.5-0.2C67.1,5.7,67.4,5.8,67.6,6c0.101,0.1,0.101,0.2,0.101,0.3c0,0.1,0,0.1,0,0.1v4.4h4.1l0.5,0.2h2.303
				v-0.2h3.5 M66.8,8.6c-0.1-0.1-0.1-0.1-0.2-0.2c0-0.1-0.101-0.2-0.2-0.5V7.5l-0.9-0.1L64.1,9.6l0.2,0.2h2.6l0.2-0.2v-1H66.8z
				 M64.4,10.8h2.5l0.1-0.4h-2.6V10.8z M44.9,7H34.1c-0.1,0-0.2,0-0.3,0c-0.2,0.1-0.3,0.1-0.4,0.2c-0.1,0.1-0.2,0.2-0.3,0.3
				l-0.2,0.2l-0.6,1.5l0.2,0.2l12.3-0.1H45c0.104,0,0.201-0.1,0.301-0.2c0.303-0.2,0.5-0.5,0.5-1c0-0.4-0.1-0.7-0.397-0.9
				c-0.196,0-0.3-0.1-0.397-0.2H44.9z M4.9,14.2H4.7H1.9H1.7c-0.1,0.1-0.1,0.2-0.1,0.2s0.1,0.1,0.2,0.2l0.1,0.1h2.9
				c0.1,0,0.1-0.1,0.1-0.1C5,14.5,5,14.5,5,14.4S5,14.3,4.9,14.2z M1.7,9.7v0.4h3.7c0-0.1,0-0.2,0-0.3c0-0.1,0-0.1-0.1-0.2H5
				L1.7,9.7z M37.1,17c-0.1,0-0.2,0-0.3-0.1h-1.5C35.2,17,35.1,17.1,35,17.2c-0.2,0.3-0.3,0.6-0.3,0.899
				c0,0.301,0.1,0.601,0.3,0.801c0.1,0.1,0.2,0.199,0.3,0.3l-0.2,0.1c-0.2-0.1-0.3-0.2-0.5-0.399c-0.3-0.301-0.5-0.601-0.5-1
				c0-0.197,0-0.5,0.2-0.801l0.2-0.3c-0.2,0-0.5,0.101-0.7,0.2c-0.5,0.3-0.7,0.8-0.6,1.4c0,0.3,0.2,0.6,0.5,0.896
				c0.2,0.2,0.3,0.303,0.5,0.4h3.5v-0.5c0.1-0.104,0.2-0.303,0.3-0.5c0.1-0.4,0.1-0.803-0.1-1.2C37.6,17.4,37.4,17.2,37.1,17z"/>
		</defs>
		<clipPath id="SVGID_22_">
			<use xlink:href="#SVGID_21_"  overflow="visible"/>
		</clipPath>
		<path clip-path="url(#SVGID_22_)" fill="#FFFFFF" d="M29.833,18.652c0,0,1.358-4.596-0.63-3.897
			c-1.349,0.474-2.114,3.89-2.114,3.89s-4.959,8.032-4.92,8.194c0.037,0.16,6.677,1.896,6.677,1.896l3.915-7.344L29.833,18.652z"/>
	</g>
	<g>
		<defs>
			<path id="SVGID_23_" d="M78.1,12.7h-3.5v-0.2h-2.399l-0.5,0.2H67.6l0.8,0.2v0.7l-0.199,0.2h-0.9V14h-0.697v-1.2H66.8v-0.2
				l-2.5-0.1l-0.1,0.2L64.1,13.3c0,0.1-0.101,0.1-0.101,0.1c-0.103,0.1-0.103,0.1-0.199,0.1c-0.1,0-0.1-0.1-0.2-0.1l-0.2-0.1v-0.5
				l-0.1-0.2h-0.5v0.8c0,0.1-0.1,0.1-0.2,0.2l-0.2,0.1h-0.3l-0.2,0.5L48,14.4l-0.299-0.2L47.4,14.1l-0.699,0.3l-0.101-1h-0.7V14v0.1
				c0,0.1-0.1,0.1-0.1,0.2c-0.1,0-0.1,0.1-0.2,0.1H45.5h-0.1c-0.1,0-0.199,0.1-0.199,0.2C45.1,14.7,45.1,14.8,45,14.8L44.8,15v3.3
				L45,18.4v0.3l-0.5,0.2V20.1C44.6,21,44.701,21.9,44.8,22.7c0.199,0.8,0.5,1.8,0.8,3c0.2,0.6,0.3,1.1,0.5,1.6l0.2,0.2L40.6,29
				h-0.2v-0.2c-0.2-0.6-0.4-1.3-0.6-2c-0.4-1.5-0.7-2.7-0.9-3.399c-0.2-0.697-0.3-1.5-0.3-2.301l-0.1-1L38.1,20.2L37.6,20.1H34
				L32.8,20.2c-0.1,0-0.1,0-0.2,0c-0.2,0-0.3,0-0.4,0.1C32.1,20.4,32,20.5,32,20.5l-0.8,1.6l0.4,0.5L31.5,22.7
				c-0.2,0.1-0.3,0.1-0.5,0.2C30.9,23,30.8,23,30.7,23.1L30.6,23.2l-1.7,3.2c-0.1,0.1-0.1,0.199,0,0.3c0,0.1,0.1,0.2,0.2,0.3
				s0.1,0.1,0.2,0.1L29,27.7l-5.4-1.3l4.9-8.5c0.1-0.104,0.1-0.2,0.1-0.301c0.1-0.199,0.1-0.5,0.1-0.699c-0.1-0.301-0.2-0.5-0.3-0.7
				c-0.1-0.2-0.3-0.3-0.4-0.5c-0.2-0.1-0.3-0.2-0.5-0.2h-1.2v0.2H26v-2.1h-1v-0.3h-4L20.1,14l-3.7,0.1v0.3h-3.2v2H11v0.8H9.9v-0.8
				l-3.6,2.3v-1.9L1.7,18.9v0.8v0.1C1.6,19.9,1.6,20,1.5,20s-0.1-0.1-0.2-0.2v-0.1V9.3h4.1c0.1,0,0.1,0.1,0.2,0.2
				c0,0.1,0,0.3,0.1,0.5l10.5,0.1c0.1,0,0.1,0.1,0.1,0.1c0.1,0.1,0.1,0.1,0.1,0.2h8.5v-0.3h1V9.8h0.3v0.3h1V9.6h1l0.1,0.1l2.6-4.1
				L31,5.4c0.1-0.1,0.2-0.2,0.3-0.2C31.5,5,31.6,5,31.7,5c0.1,0,0.2,0,0.2,0l12.9,1.4l0.4,0.1c0.299,0.1,0.5,0.2,0.696,0.4
				C46,7,46.1,7.2,46.3,7.5c0.1,0.1,0.1,0.2,0.199,0.3l-0.103,2.5h0.304V9.2L47.5,9.4V9.1H47.8V9c0-0.1,0.1-0.1,0.1-0.1
				c0.1,0,0.1-0.1,0.2-0.1L62.3,9L62.5,9.3v0.4h0.4H63c0,0.1,0,0.2,0,0.2c0,0.1,0.104,0.4,0.104,0.9h0.5V9.3L66,6l0.201-0.2
				c0.199-0.1,0.299-0.2,0.5-0.2C67.1,5.7,67.4,5.8,67.6,6c0.101,0.1,0.101,0.2,0.101,0.3c0,0.1,0,0.1,0,0.1v4.4h4.1l0.5,0.2h2.303
				v-0.2h3.5 M66.8,8.6c-0.1-0.1-0.1-0.1-0.2-0.2c0-0.1-0.101-0.2-0.2-0.5V7.5l-0.9-0.1L64.1,9.6l0.2,0.2h2.6l0.2-0.2v-1H66.8z
				 M64.4,10.8h2.5l0.1-0.4h-2.6V10.8z M44.9,7H34.1c-0.1,0-0.2,0-0.3,0c-0.2,0.1-0.3,0.1-0.4,0.2c-0.1,0.1-0.2,0.2-0.3,0.3
				l-0.2,0.2l-0.6,1.5l0.2,0.2l12.3-0.1H45c0.104,0,0.201-0.1,0.301-0.2c0.303-0.2,0.5-0.5,0.5-1c0-0.4-0.1-0.7-0.397-0.9
				c-0.196,0-0.3-0.1-0.397-0.2H44.9z M4.9,14.2H4.7H1.9H1.7c-0.1,0.1-0.1,0.2-0.1,0.2s0.1,0.1,0.2,0.2l0.1,0.1h2.9
				c0.1,0,0.1-0.1,0.1-0.1C5,14.5,5,14.5,5,14.4S5,14.3,4.9,14.2z M1.7,9.7v0.4h3.7c0-0.1,0-0.2,0-0.3c0-0.1,0-0.1-0.1-0.2H5
				L1.7,9.7z M37.1,17c-0.1,0-0.2,0-0.3-0.1h-1.5C35.2,17,35.1,17.1,35,17.2c-0.2,0.3-0.3,0.6-0.3,0.899
				c0,0.301,0.1,0.601,0.3,0.801c0.1,0.1,0.2,0.199,0.3,0.3l-0.2,0.1c-0.2-0.1-0.3-0.2-0.5-0.399c-0.3-0.301-0.5-0.601-0.5-1
				c0-0.197,0-0.5,0.2-0.801l0.2-0.3c-0.2,0-0.5,0.101-0.7,0.2c-0.5,0.3-0.7,0.8-0.6,1.4c0,0.3,0.2,0.6,0.5,0.896
				c0.2,0.2,0.3,0.303,0.5,0.4h3.5v-0.5c0.1-0.104,0.2-0.303,0.3-0.5c0.1-0.4,0.1-0.803-0.1-1.2C37.6,17.4,37.4,17.2,37.1,17z"/>
		</defs>
		<clipPath id="SVGID_24_">
			<use xlink:href="#SVGID_23_"  overflow="visible"/>
		</clipPath>
		<path clip-path="url(#SVGID_24_)" fill="#A4BAFF" d="M10.64,13.524c0.333,0.332,5.448-1.716,5.448-1.716s-0.711,1.798-0.046,3.294
			c0.664,1.496,3.49,1.412,4.653,0.831c1.164-0.582,1.662-2.161,3.989-0.915c0.888,0.476,1.568-3.795,2.698,1.494
			c0.624,2.92,2.454,1.416,2.454,1.416s2.941-0.686,3.107-1.433c0.167-0.748-0.68-1.034,0.4-1.782
			c1.081-0.748,0.192-1.978-0.066-2.718c-1.432-4.099-2.125-5.844-2.125-5.844s4.806,0.61,2.562-0.885
			c-2.243-1.496-3.05-4.406-5.708-0.75c-2.659,3.656-3.975,3.88-3.975,3.88s-1.286,1.708-3.817,1.12
			c-2.209-0.514-3.258-0.563-5.002-0.646s-4.238-0.499-4.903,0.083c-0.666,0.583-2.91,1.517-3.658,1.091
			C5.903,9.619,8.836,10.77,8.587,12.1S10.307,13.191,10.64,13.524z"/>
	</g>
	<g>
		<defs>
			<path id="SVGID_25_" d="M78.1,12.7h-3.5v-0.2h-2.399l-0.5,0.2H67.6l0.8,0.2v0.7l-0.199,0.2h-0.9V14h-0.697v-1.2H66.8v-0.2
				l-2.5-0.1l-0.1,0.2L64.1,13.3c0,0.1-0.101,0.1-0.101,0.1c-0.103,0.1-0.103,0.1-0.199,0.1c-0.1,0-0.1-0.1-0.2-0.1l-0.2-0.1v-0.5
				l-0.1-0.2h-0.5v0.8c0,0.1-0.1,0.1-0.2,0.2l-0.2,0.1h-0.3l-0.2,0.5L48,14.4l-0.299-0.2L47.4,14.1l-0.699,0.3l-0.101-1h-0.7V14v0.1
				c0,0.1-0.1,0.1-0.1,0.2c-0.1,0-0.1,0.1-0.2,0.1H45.5h-0.1c-0.1,0-0.199,0.1-0.199,0.2C45.1,14.7,45.1,14.8,45,14.8L44.8,15v3.3
				L45,18.4v0.3l-0.5,0.2V20.1C44.6,21,44.701,21.9,44.8,22.7c0.199,0.8,0.5,1.8,0.8,3c0.2,0.6,0.3,1.1,0.5,1.6l0.2,0.2L40.6,29
				h-0.2v-0.2c-0.2-0.6-0.4-1.3-0.6-2c-0.4-1.5-0.7-2.7-0.9-3.399c-0.2-0.697-0.3-1.5-0.3-2.301l-0.1-1L38.1,20.2L37.6,20.1H34
				L32.8,20.2c-0.1,0-0.1,0-0.2,0c-0.2,0-0.3,0-0.4,0.1C32.1,20.4,32,20.5,32,20.5l-0.8,1.6l0.4,0.5L31.5,22.7
				c-0.2,0.1-0.3,0.1-0.5,0.2C30.9,23,30.8,23,30.7,23.1L30.6,23.2l-1.7,3.2c-0.1,0.1-0.1,0.199,0,0.3c0,0.1,0.1,0.2,0.2,0.3
				s0.1,0.1,0.2,0.1L29,27.7l-5.4-1.3l4.9-8.5c0.1-0.104,0.1-0.2,0.1-0.301c0.1-0.199,0.1-0.5,0.1-0.699c-0.1-0.301-0.2-0.5-0.3-0.7
				c-0.1-0.2-0.3-0.3-0.4-0.5c-0.2-0.1-0.3-0.2-0.5-0.2h-1.2v0.2H26v-2.1h-1v-0.3h-4L20.1,14l-3.7,0.1v0.3h-3.2v2H11v0.8H9.9v-0.8
				l-3.6,2.3v-1.9L1.7,18.9v0.8v0.1C1.6,19.9,1.6,20,1.5,20s-0.1-0.1-0.2-0.2v-0.1V9.3h4.1c0.1,0,0.1,0.1,0.2,0.2
				c0,0.1,0,0.3,0.1,0.5l10.5,0.1c0.1,0,0.1,0.1,0.1,0.1c0.1,0.1,0.1,0.1,0.1,0.2h8.5v-0.3h1V9.8h0.3v0.3h1V9.6h1l0.1,0.1l2.6-4.1
				L31,5.4c0.1-0.1,0.2-0.2,0.3-0.2C31.5,5,31.6,5,31.7,5c0.1,0,0.2,0,0.2,0l12.9,1.4l0.4,0.1c0.299,0.1,0.5,0.2,0.696,0.4
				C46,7,46.1,7.2,46.3,7.5c0.1,0.1,0.1,0.2,0.199,0.3l-0.103,2.5h0.304V9.2L47.5,9.4V9.1H47.8V9c0-0.1,0.1-0.1,0.1-0.1
				c0.1,0,0.1-0.1,0.2-0.1L62.3,9L62.5,9.3v0.4h0.4H63c0,0.1,0,0.2,0,0.2c0,0.1,0.104,0.4,0.104,0.9h0.5V9.3L66,6l0.201-0.2
				c0.199-0.1,0.299-0.2,0.5-0.2C67.1,5.7,67.4,5.8,67.6,6c0.101,0.1,0.101,0.2,0.101,0.3c0,0.1,0,0.1,0,0.1v4.4h4.1l0.5,0.2h2.303
				v-0.2h3.5 M66.8,8.6c-0.1-0.1-0.1-0.1-0.2-0.2c0-0.1-0.101-0.2-0.2-0.5V7.5l-0.9-0.1L64.1,9.6l0.2,0.2h2.6l0.2-0.2v-1H66.8z
				 M64.4,10.8h2.5l0.1-0.4h-2.6V10.8z M44.9,7H34.1c-0.1,0-0.2,0-0.3,0c-0.2,0.1-0.3,0.1-0.4,0.2c-0.1,0.1-0.2,0.2-0.3,0.3
				l-0.2,0.2l-0.6,1.5l0.2,0.2l12.3-0.1H45c0.104,0,0.201-0.1,0.301-0.2c0.303-0.2,0.5-0.5,0.5-1c0-0.4-0.1-0.7-0.397-0.9
				c-0.196,0-0.3-0.1-0.397-0.2H44.9z M4.9,14.2H4.7H1.9H1.7c-0.1,0.1-0.1,0.2-0.1,0.2s0.1,0.1,0.2,0.2l0.1,0.1h2.9
				c0.1,0,0.1-0.1,0.1-0.1C5,14.5,5,14.5,5,14.4S5,14.3,4.9,14.2z M1.7,9.7v0.4h3.7c0-0.1,0-0.2,0-0.3c0-0.1,0-0.1-0.1-0.2H5
				L1.7,9.7z M37.1,17c-0.1,0-0.2,0-0.3-0.1h-1.5C35.2,17,35.1,17.1,35,17.2c-0.2,0.3-0.3,0.6-0.3,0.899
				c0,0.301,0.1,0.601,0.3,0.801c0.1,0.1,0.2,0.199,0.3,0.3l-0.2,0.1c-0.2-0.1-0.3-0.2-0.5-0.399c-0.3-0.301-0.5-0.601-0.5-1
				c0-0.197,0-0.5,0.2-0.801l0.2-0.3c-0.2,0-0.5,0.101-0.7,0.2c-0.5,0.3-0.7,0.8-0.6,1.4c0,0.3,0.2,0.6,0.5,0.896
				c0.2,0.2,0.3,0.303,0.5,0.4h3.5v-0.5c0.1-0.104,0.2-0.303,0.3-0.5c0.1-0.4,0.1-0.803-0.1-1.2C37.6,17.4,37.4,17.2,37.1,17z"/>
		</defs>
		<clipPath id="SVGID_26_">
			<use xlink:href="#SVGID_25_"  overflow="visible"/>
		</clipPath>
		<path clip-path="url(#SVGID_26_)" fill="#E9EDFF" d="M33.067,10.288c0,0,0.875-6,6.833-5.688
			c2.107,0.11-19.938-1.851-19.938-1.851s-3,7.217-3,7.452c0,0.119,4.209-0.681,6.209,0.399s1.792,4.042,1.792,4.042l4.25-6.083
			l2.281-0.656L33.067,10.288z"/>
	</g>
	<g>
		<defs>
			<path id="SVGID_27_" d="M78.1,12.7h-3.5v-0.2h-2.399l-0.5,0.2H67.6l0.8,0.2v0.7l-0.199,0.2h-0.9V14h-0.697v-1.2H66.8v-0.2
				l-2.5-0.1l-0.1,0.2L64.1,13.3c0,0.1-0.101,0.1-0.101,0.1c-0.103,0.1-0.103,0.1-0.199,0.1c-0.1,0-0.1-0.1-0.2-0.1l-0.2-0.1v-0.5
				l-0.1-0.2h-0.5v0.8c0,0.1-0.1,0.1-0.2,0.2l-0.2,0.1h-0.3l-0.2,0.5L48,14.4l-0.299-0.2L47.4,14.1l-0.699,0.3l-0.101-1h-0.7V14v0.1
				c0,0.1-0.1,0.1-0.1,0.2c-0.1,0-0.1,0.1-0.2,0.1H45.5h-0.1c-0.1,0-0.199,0.1-0.199,0.2C45.1,14.7,45.1,14.8,45,14.8L44.8,15v3.3
				L45,18.4v0.3l-0.5,0.2V20.1C44.6,21,44.701,21.9,44.8,22.7c0.199,0.8,0.5,1.8,0.8,3c0.2,0.6,0.3,1.1,0.5,1.6l0.2,0.2L40.6,29
				h-0.2v-0.2c-0.2-0.6-0.4-1.3-0.6-2c-0.4-1.5-0.7-2.7-0.9-3.399c-0.2-0.697-0.3-1.5-0.3-2.301l-0.1-1L38.1,20.2L37.6,20.1H34
				L32.8,20.2c-0.1,0-0.1,0-0.2,0c-0.2,0-0.3,0-0.4,0.1C32.1,20.4,32,20.5,32,20.5l-0.8,1.6l0.4,0.5L31.5,22.7
				c-0.2,0.1-0.3,0.1-0.5,0.2C30.9,23,30.8,23,30.7,23.1L30.6,23.2l-1.7,3.2c-0.1,0.1-0.1,0.199,0,0.3c0,0.1,0.1,0.2,0.2,0.3
				s0.1,0.1,0.2,0.1L29,27.7l-5.4-1.3l4.9-8.5c0.1-0.104,0.1-0.2,0.1-0.301c0.1-0.199,0.1-0.5,0.1-0.699c-0.1-0.301-0.2-0.5-0.3-0.7
				c-0.1-0.2-0.3-0.3-0.4-0.5c-0.2-0.1-0.3-0.2-0.5-0.2h-1.2v0.2H26v-2.1h-1v-0.3h-4L20.1,14l-3.7,0.1v0.3h-3.2v2H11v0.8H9.9v-0.8
				l-3.6,2.3v-1.9L1.7,18.9v0.8v0.1C1.6,19.9,1.6,20,1.5,20s-0.1-0.1-0.2-0.2v-0.1V9.3h4.1c0.1,0,0.1,0.1,0.2,0.2
				c0,0.1,0,0.3,0.1,0.5l10.5,0.1c0.1,0,0.1,0.1,0.1,0.1c0.1,0.1,0.1,0.1,0.1,0.2h8.5v-0.3h1V9.8h0.3v0.3h1V9.6h1l0.1,0.1l2.6-4.1
				L31,5.4c0.1-0.1,0.2-0.2,0.3-0.2C31.5,5,31.6,5,31.7,5c0.1,0,0.2,0,0.2,0l12.9,1.4l0.4,0.1c0.299,0.1,0.5,0.2,0.696,0.4
				C46,7,46.1,7.2,46.3,7.5c0.1,0.1,0.1,0.2,0.199,0.3l-0.103,2.5h0.304V9.2L47.5,9.4V9.1H47.8V9c0-0.1,0.1-0.1,0.1-0.1
				c0.1,0,0.1-0.1,0.2-0.1L62.3,9L62.5,9.3v0.4h0.4H63c0,0.1,0,0.2,0,0.2c0,0.1,0.104,0.4,0.104,0.9h0.5V9.3L66,6l0.201-0.2
				c0.199-0.1,0.299-0.2,0.5-0.2C67.1,5.7,67.4,5.8,67.6,6c0.101,0.1,0.101,0.2,0.101,0.3c0,0.1,0,0.1,0,0.1v4.4h4.1l0.5,0.2h2.303
				v-0.2h3.5 M66.8,8.6c-0.1-0.1-0.1-0.1-0.2-0.2c0-0.1-0.101-0.2-0.2-0.5V7.5l-0.9-0.1L64.1,9.6l0.2,0.2h2.6l0.2-0.2v-1H66.8z
				 M64.4,10.8h2.5l0.1-0.4h-2.6V10.8z M44.9,7H34.1c-0.1,0-0.2,0-0.3,0c-0.2,0.1-0.3,0.1-0.4,0.2c-0.1,0.1-0.2,0.2-0.3,0.3
				l-0.2,0.2l-0.6,1.5l0.2,0.2l12.3-0.1H45c0.104,0,0.201-0.1,0.301-0.2c0.303-0.2,0.5-0.5,0.5-1c0-0.4-0.1-0.7-0.397-0.9
				c-0.196,0-0.3-0.1-0.397-0.2H44.9z M4.9,14.2H4.7H1.9H1.7c-0.1,0.1-0.1,0.2-0.1,0.2s0.1,0.1,0.2,0.2l0.1,0.1h2.9
				c0.1,0,0.1-0.1,0.1-0.1C5,14.5,5,14.5,5,14.4S5,14.3,4.9,14.2z M1.7,9.7v0.4h3.7c0-0.1,0-0.2,0-0.3c0-0.1,0-0.1-0.1-0.2H5
				L1.7,9.7z M37.1,17c-0.1,0-0.2,0-0.3-0.1h-1.5C35.2,17,35.1,17.1,35,17.2c-0.2,0.3-0.3,0.6-0.3,0.899
				c0,0.301,0.1,0.601,0.3,0.801c0.1,0.1,0.2,0.199,0.3,0.3l-0.2,0.1c-0.2-0.1-0.3-0.2-0.5-0.399c-0.3-0.301-0.5-0.601-0.5-1
				c0-0.197,0-0.5,0.2-0.801l0.2-0.3c-0.2,0-0.5,0.101-0.7,0.2c-0.5,0.3-0.7,0.8-0.6,1.4c0,0.3,0.2,0.6,0.5,0.896
				c0.2,0.2,0.3,0.303,0.5,0.4h3.5v-0.5c0.1-0.104,0.2-0.303,0.3-0.5c0.1-0.4,0.1-0.803-0.1-1.2C37.6,17.4,37.4,17.2,37.1,17z"/>
		</defs>
		<clipPath id="SVGID_28_">
			<use xlink:href="#SVGID_27_"  overflow="visible"/>
		</clipPath>
		<path clip-path="url(#SVGID_28_)" fill="#FFFFFF" d="M3.567,11.038c0,0-2.388,0.993-2.173,2.45
			c0.214,1.457,1.141,3.944,1.64,3.084c0.5-0.856,1.365-3.517,1.867-4.368c0.457-0.773,1.582-3.125,4.087-1.721
			c0.803,0.45,2.319,1.805,2.319,1.805s1.783-4.885,6.847-4.885c0,0-4.853,2.466-5.732,5.302c-1.429,4.607,4.212,6.549,4.212,6.549
			l3.934-2.798L16.921,20.1l-8.187,2.063c0,0,2.521-2.416,2.354-4.916c-0.134-2.013-0.74-3.443-0.74-3.443S8.466,10.22,6.4,12.621
			c-1.52,1.767-2.297,5.236-2.297,5.236l1.498,1.715l1.854,0.17l0.713,2.914c0,0-0.499,1.201-2.425-0.428
			c-1.925-1.629-2.211-2.314-2.211-2.314S2.035,20.855,2.891,23.6c0.855,2.742-1.461,3.17-1.515,2.912
			c-0.054-0.256-1.515-4.883,0-6.598c1.515-1.713-0.411-1.713-1.552-5.57c-1.141-3.856-0.57-6.771,1.213-5.399
			C2.819,10.317,3.567,11.038,3.567,11.038z"/>
	</g>
	<g>
		<defs>
			<path id="SVGID_29_" d="M78.1,12.7h-3.5v-0.2h-2.399l-0.5,0.2H67.6l0.8,0.2v0.7l-0.199,0.2h-0.9V14h-0.697v-1.2H66.8v-0.2
				l-2.5-0.1l-0.1,0.2L64.1,13.3c0,0.1-0.101,0.1-0.101,0.1c-0.103,0.1-0.103,0.1-0.199,0.1c-0.1,0-0.1-0.1-0.2-0.1l-0.2-0.1v-0.5
				l-0.1-0.2h-0.5v0.8c0,0.1-0.1,0.1-0.2,0.2l-0.2,0.1h-0.3l-0.2,0.5L48,14.4l-0.299-0.2L47.4,14.1l-0.699,0.3l-0.101-1h-0.7V14v0.1
				c0,0.1-0.1,0.1-0.1,0.2c-0.1,0-0.1,0.1-0.2,0.1H45.5h-0.1c-0.1,0-0.199,0.1-0.199,0.2C45.1,14.7,45.1,14.8,45,14.8L44.8,15v3.3
				L45,18.4v0.3l-0.5,0.2V20.1C44.6,21,44.701,21.9,44.8,22.7c0.199,0.8,0.5,1.8,0.8,3c0.2,0.6,0.3,1.1,0.5,1.6l0.2,0.2L40.6,29
				h-0.2v-0.2c-0.2-0.6-0.4-1.3-0.6-2c-0.4-1.5-0.7-2.7-0.9-3.399c-0.2-0.697-0.3-1.5-0.3-2.301l-0.1-1L38.1,20.2L37.6,20.1H34
				L32.8,20.2c-0.1,0-0.1,0-0.2,0c-0.2,0-0.3,0-0.4,0.1C32.1,20.4,32,20.5,32,20.5l-0.8,1.6l0.4,0.5L31.5,22.7
				c-0.2,0.1-0.3,0.1-0.5,0.2C30.9,23,30.8,23,30.7,23.1L30.6,23.2l-1.7,3.2c-0.1,0.1-0.1,0.199,0,0.3c0,0.1,0.1,0.2,0.2,0.3
				s0.1,0.1,0.2,0.1L29,27.7l-5.4-1.3l4.9-8.5c0.1-0.104,0.1-0.2,0.1-0.301c0.1-0.199,0.1-0.5,0.1-0.699c-0.1-0.301-0.2-0.5-0.3-0.7
				c-0.1-0.2-0.3-0.3-0.4-0.5c-0.2-0.1-0.3-0.2-0.5-0.2h-1.2v0.2H26v-2.1h-1v-0.3h-4L20.1,14l-3.7,0.1v0.3h-3.2v2H11v0.8H9.9v-0.8
				l-3.6,2.3v-1.9L1.7,18.9v0.8v0.1C1.6,19.9,1.6,20,1.5,20s-0.1-0.1-0.2-0.2v-0.1V9.3h4.1c0.1,0,0.1,0.1,0.2,0.2
				c0,0.1,0,0.3,0.1,0.5l10.5,0.1c0.1,0,0.1,0.1,0.1,0.1c0.1,0.1,0.1,0.1,0.1,0.2h8.5v-0.3h1V9.8h0.3v0.3h1V9.6h1l0.1,0.1l2.6-4.1
				L31,5.4c0.1-0.1,0.2-0.2,0.3-0.2C31.5,5,31.6,5,31.7,5c0.1,0,0.2,0,0.2,0l12.9,1.4l0.4,0.1c0.299,0.1,0.5,0.2,0.696,0.4
				C46,7,46.1,7.2,46.3,7.5c0.1,0.1,0.1,0.2,0.199,0.3l-0.103,2.5h0.304V9.2L47.5,9.4V9.1H47.8V9c0-0.1,0.1-0.1,0.1-0.1
				c0.1,0,0.1-0.1,0.2-0.1L62.3,9L62.5,9.3v0.4h0.4H63c0,0.1,0,0.2,0,0.2c0,0.1,0.104,0.4,0.104,0.9h0.5V9.3L66,6l0.201-0.2
				c0.199-0.1,0.299-0.2,0.5-0.2C67.1,5.7,67.4,5.8,67.6,6c0.101,0.1,0.101,0.2,0.101,0.3c0,0.1,0,0.1,0,0.1v4.4h4.1l0.5,0.2h2.303
				v-0.2h3.5 M66.8,8.6c-0.1-0.1-0.1-0.1-0.2-0.2c0-0.1-0.101-0.2-0.2-0.5V7.5l-0.9-0.1L64.1,9.6l0.2,0.2h2.6l0.2-0.2v-1H66.8z
				 M64.4,10.8h2.5l0.1-0.4h-2.6V10.8z M44.9,7H34.1c-0.1,0-0.2,0-0.3,0c-0.2,0.1-0.3,0.1-0.4,0.2c-0.1,0.1-0.2,0.2-0.3,0.3
				l-0.2,0.2l-0.6,1.5l0.2,0.2l12.3-0.1H45c0.104,0,0.201-0.1,0.301-0.2c0.303-0.2,0.5-0.5,0.5-1c0-0.4-0.1-0.7-0.397-0.9
				c-0.196,0-0.3-0.1-0.397-0.2H44.9z M4.9,14.2H4.7H1.9H1.7c-0.1,0.1-0.1,0.2-0.1,0.2s0.1,0.1,0.2,0.2l0.1,0.1h2.9
				c0.1,0,0.1-0.1,0.1-0.1C5,14.5,5,14.5,5,14.4S5,14.3,4.9,14.2z M1.7,9.7v0.4h3.7c0-0.1,0-0.2,0-0.3c0-0.1,0-0.1-0.1-0.2H5
				L1.7,9.7z M37.1,17c-0.1,0-0.2,0-0.3-0.1h-1.5C35.2,17,35.1,17.1,35,17.2c-0.2,0.3-0.3,0.6-0.3,0.899
				c0,0.301,0.1,0.601,0.3,0.801c0.1,0.1,0.2,0.199,0.3,0.3l-0.2,0.1c-0.2-0.1-0.3-0.2-0.5-0.399c-0.3-0.301-0.5-0.601-0.5-1
				c0-0.197,0-0.5,0.2-0.801l0.2-0.3c-0.2,0-0.5,0.101-0.7,0.2c-0.5,0.3-0.7,0.8-0.6,1.4c0,0.3,0.2,0.6,0.5,0.896
				c0.2,0.2,0.3,0.303,0.5,0.4h3.5v-0.5c0.1-0.104,0.2-0.303,0.3-0.5c0.1-0.4,0.1-0.803-0.1-1.2C37.6,17.4,37.4,17.2,37.1,17z"/>
		</defs>
		<clipPath id="SVGID_30_">
			<use xlink:href="#SVGID_29_"  overflow="visible"/>
		</clipPath>
		<path clip-path="url(#SVGID_30_)" fill="#B3B3FF" d="M25.237,15.134c0,0,5.872-1.231,7.741-0.71
			c1.87,0.521,0.734-1.615,0.203-2.833c-1.048-2.405-0.706-4.081-3.055-3.705C28.65,8.121,25.939,12.358,25.237,15.134z"/>
	</g>
	<g>
		<defs>
			<path id="SVGID_31_" d="M78.1,12.7h-3.5v-0.2h-2.399l-0.5,0.2H67.6l0.8,0.2v0.7l-0.199,0.2h-0.9V14h-0.697v-1.2H66.8v-0.2
				l-2.5-0.1l-0.1,0.2L64.1,13.3c0,0.1-0.101,0.1-0.101,0.1c-0.103,0.1-0.103,0.1-0.199,0.1c-0.1,0-0.1-0.1-0.2-0.1l-0.2-0.1v-0.5
				l-0.1-0.2h-0.5v0.8c0,0.1-0.1,0.1-0.2,0.2l-0.2,0.1h-0.3l-0.2,0.5L48,14.4l-0.299-0.2L47.4,14.1l-0.699,0.3l-0.101-1h-0.7V14v0.1
				c0,0.1-0.1,0.1-0.1,0.2c-0.1,0-0.1,0.1-0.2,0.1H45.5h-0.1c-0.1,0-0.199,0.1-0.199,0.2C45.1,14.7,45.1,14.8,45,14.8L44.8,15v3.3
				L45,18.4v0.3l-0.5,0.2V20.1C44.6,21,44.701,21.9,44.8,22.7c0.199,0.8,0.5,1.8,0.8,3c0.2,0.6,0.3,1.1,0.5,1.6l0.2,0.2L40.6,29
				h-0.2v-0.2c-0.2-0.6-0.4-1.3-0.6-2c-0.4-1.5-0.7-2.7-0.9-3.399c-0.2-0.697-0.3-1.5-0.3-2.301l-0.1-1L38.1,20.2L37.6,20.1H34
				L32.8,20.2c-0.1,0-0.1,0-0.2,0c-0.2,0-0.3,0-0.4,0.1C32.1,20.4,32,20.5,32,20.5l-0.8,1.6l0.4,0.5L31.5,22.7
				c-0.2,0.1-0.3,0.1-0.5,0.2C30.9,23,30.8,23,30.7,23.1L30.6,23.2l-1.7,3.2c-0.1,0.1-0.1,0.199,0,0.3c0,0.1,0.1,0.2,0.2,0.3
				s0.1,0.1,0.2,0.1L29,27.7l-5.4-1.3l4.9-8.5c0.1-0.104,0.1-0.2,0.1-0.301c0.1-0.199,0.1-0.5,0.1-0.699c-0.1-0.301-0.2-0.5-0.3-0.7
				c-0.1-0.2-0.3-0.3-0.4-0.5c-0.2-0.1-0.3-0.2-0.5-0.2h-1.2v0.2H26v-2.1h-1v-0.3h-4L20.1,14l-3.7,0.1v0.3h-3.2v2H11v0.8H9.9v-0.8
				l-3.6,2.3v-1.9L1.7,18.9v0.8v0.1C1.6,19.9,1.6,20,1.5,20s-0.1-0.1-0.2-0.2v-0.1V9.3h4.1c0.1,0,0.1,0.1,0.2,0.2
				c0,0.1,0,0.3,0.1,0.5l10.5,0.1c0.1,0,0.1,0.1,0.1,0.1c0.1,0.1,0.1,0.1,0.1,0.2h8.5v-0.3h1V9.8h0.3v0.3h1V9.6h1l0.1,0.1l2.6-4.1
				L31,5.4c0.1-0.1,0.2-0.2,0.3-0.2C31.5,5,31.6,5,31.7,5c0.1,0,0.2,0,0.2,0l12.9,1.4l0.4,0.1c0.299,0.1,0.5,0.2,0.696,0.4
				C46,7,46.1,7.2,46.3,7.5c0.1,0.1,0.1,0.2,0.199,0.3l-0.103,2.5h0.304V9.2L47.5,9.4V9.1H47.8V9c0-0.1,0.1-0.1,0.1-0.1
				c0.1,0,0.1-0.1,0.2-0.1L62.3,9L62.5,9.3v0.4h0.4H63c0,0.1,0,0.2,0,0.2c0,0.1,0.104,0.4,0.104,0.9h0.5V9.3L66,6l0.201-0.2
				c0.199-0.1,0.299-0.2,0.5-0.2C67.1,5.7,67.4,5.8,67.6,6c0.101,0.1,0.101,0.2,0.101,0.3c0,0.1,0,0.1,0,0.1v4.4h4.1l0.5,0.2h2.303
				v-0.2h3.5 M66.8,8.6c-0.1-0.1-0.1-0.1-0.2-0.2c0-0.1-0.101-0.2-0.2-0.5V7.5l-0.9-0.1L64.1,9.6l0.2,0.2h2.6l0.2-0.2v-1H66.8z
				 M64.4,10.8h2.5l0.1-0.4h-2.6V10.8z M44.9,7H34.1c-0.1,0-0.2,0-0.3,0c-0.2,0.1-0.3,0.1-0.4,0.2c-0.1,0.1-0.2,0.2-0.3,0.3
				l-0.2,0.2l-0.6,1.5l0.2,0.2l12.3-0.1H45c0.104,0,0.201-0.1,0.301-0.2c0.303-0.2,0.5-0.5,0.5-1c0-0.4-0.1-0.7-0.397-0.9
				c-0.196,0-0.3-0.1-0.397-0.2H44.9z M4.9,14.2H4.7H1.9H1.7c-0.1,0.1-0.1,0.2-0.1,0.2s0.1,0.1,0.2,0.2l0.1,0.1h2.9
				c0.1,0,0.1-0.1,0.1-0.1C5,14.5,5,14.5,5,14.4S5,14.3,4.9,14.2z M1.7,9.7v0.4h3.7c0-0.1,0-0.2,0-0.3c0-0.1,0-0.1-0.1-0.2H5
				L1.7,9.7z M37.1,17c-0.1,0-0.2,0-0.3-0.1h-1.5C35.2,17,35.1,17.1,35,17.2c-0.2,0.3-0.3,0.6-0.3,0.899
				c0,0.301,0.1,0.601,0.3,0.801c0.1,0.1,0.2,0.199,0.3,0.3l-0.2,0.1c-0.2-0.1-0.3-0.2-0.5-0.399c-0.3-0.301-0.5-0.601-0.5-1
				c0-0.197,0-0.5,0.2-0.801l0.2-0.3c-0.2,0-0.5,0.101-0.7,0.2c-0.5,0.3-0.7,0.8-0.6,1.4c0,0.3,0.2,0.6,0.5,0.896
				c0.2,0.2,0.3,0.303,0.5,0.4h3.5v-0.5c0.1-0.104,0.2-0.303,0.3-0.5c0.1-0.4,0.1-0.803-0.1-1.2C37.6,17.4,37.4,17.2,37.1,17z"/>
		</defs>
		<clipPath id="SVGID_32_">
			<use xlink:href="#SVGID_31_"  overflow="visible"/>
		</clipPath>
		<path clip-path="url(#SVGID_32_)" fill="#FFFFFF" d="M20.692,8.35c-2.146,0.604-1.93,4.153-1.333,5.229
			c1.813,3.271,4.206,2.351,4.583,1.833c0.928-1.27,0.114-0.29,1.812-2.979c1.079-1.708,2.428-5.564,4.866-5.206
			c1.615,0.237,2.912,2.852,3.425,5.953c0.87,5.255,3.105,5.753,5.011,6.503c0.982,0.387-1.375,0.905-1.375,0.905
			s-3.801-1.182-4.49-6.699c-0.375-3.007-1.567-5.501-3.073-5.521c-2.375-0.031-4.881,6.763-4.881,6.763s-0.451,1.851-3.004,1.425
			c-5.375-0.896-3.917-7.167-3.917-7.167l2.521-1.417L20.692,8.35z"/>
	</g>
	<g>
		<defs>
			<path id="SVGID_33_" d="M78.1,12.7h-3.5v-0.2h-2.399l-0.5,0.2H67.6l0.8,0.2v0.7l-0.199,0.2h-0.9V14h-0.697v-1.2H66.8v-0.2
				l-2.5-0.1l-0.1,0.2L64.1,13.3c0,0.1-0.101,0.1-0.101,0.1c-0.103,0.1-0.103,0.1-0.199,0.1c-0.1,0-0.1-0.1-0.2-0.1l-0.2-0.1v-0.5
				l-0.1-0.2h-0.5v0.8c0,0.1-0.1,0.1-0.2,0.2l-0.2,0.1h-0.3l-0.2,0.5L48,14.4l-0.299-0.2L47.4,14.1l-0.699,0.3l-0.101-1h-0.7V14v0.1
				c0,0.1-0.1,0.1-0.1,0.2c-0.1,0-0.1,0.1-0.2,0.1H45.5h-0.1c-0.1,0-0.199,0.1-0.199,0.2C45.1,14.7,45.1,14.8,45,14.8L44.8,15v3.3
				L45,18.4v0.3l-0.5,0.2V20.1C44.6,21,44.701,21.9,44.8,22.7c0.199,0.8,0.5,1.8,0.8,3c0.2,0.6,0.3,1.1,0.5,1.6l0.2,0.2L40.6,29
				h-0.2v-0.2c-0.2-0.6-0.4-1.3-0.6-2c-0.4-1.5-0.7-2.7-0.9-3.399c-0.2-0.697-0.3-1.5-0.3-2.301l-0.1-1L38.1,20.2L37.6,20.1H34
				L32.8,20.2c-0.1,0-0.1,0-0.2,0c-0.2,0-0.3,0-0.4,0.1C32.1,20.4,32,20.5,32,20.5l-0.8,1.6l0.4,0.5L31.5,22.7
				c-0.2,0.1-0.3,0.1-0.5,0.2C30.9,23,30.8,23,30.7,23.1L30.6,23.2l-1.7,3.2c-0.1,0.1-0.1,0.199,0,0.3c0,0.1,0.1,0.2,0.2,0.3
				s0.1,0.1,0.2,0.1L29,27.7l-5.4-1.3l4.9-8.5c0.1-0.104,0.1-0.2,0.1-0.301c0.1-0.199,0.1-0.5,0.1-0.699c-0.1-0.301-0.2-0.5-0.3-0.7
				c-0.1-0.2-0.3-0.3-0.4-0.5c-0.2-0.1-0.3-0.2-0.5-0.2h-1.2v0.2H26v-2.1h-1v-0.3h-4L20.1,14l-3.7,0.1v0.3h-3.2v2H11v0.8H9.9v-0.8
				l-3.6,2.3v-1.9L1.7,18.9v0.8v0.1C1.6,19.9,1.6,20,1.5,20s-0.1-0.1-0.2-0.2v-0.1V9.3h4.1c0.1,0,0.1,0.1,0.2,0.2
				c0,0.1,0,0.3,0.1,0.5l10.5,0.1c0.1,0,0.1,0.1,0.1,0.1c0.1,0.1,0.1,0.1,0.1,0.2h8.5v-0.3h1V9.8h0.3v0.3h1V9.6h1l0.1,0.1l2.6-4.1
				L31,5.4c0.1-0.1,0.2-0.2,0.3-0.2C31.5,5,31.6,5,31.7,5c0.1,0,0.2,0,0.2,0l12.9,1.4l0.4,0.1c0.299,0.1,0.5,0.2,0.696,0.4
				C46,7,46.1,7.2,46.3,7.5c0.1,0.1,0.1,0.2,0.199,0.3l-0.103,2.5h0.304V9.2L47.5,9.4V9.1H47.8V9c0-0.1,0.1-0.1,0.1-0.1
				c0.1,0,0.1-0.1,0.2-0.1L62.3,9L62.5,9.3v0.4h0.4H63c0,0.1,0,0.2,0,0.2c0,0.1,0.104,0.4,0.104,0.9h0.5V9.3L66,6l0.201-0.2
				c0.199-0.1,0.299-0.2,0.5-0.2C67.1,5.7,67.4,5.8,67.6,6c0.101,0.1,0.101,0.2,0.101,0.3c0,0.1,0,0.1,0,0.1v4.4h4.1l0.5,0.2h2.303
				v-0.2h3.5 M66.8,8.6c-0.1-0.1-0.1-0.1-0.2-0.2c0-0.1-0.101-0.2-0.2-0.5V7.5l-0.9-0.1L64.1,9.6l0.2,0.2h2.6l0.2-0.2v-1H66.8z
				 M64.4,10.8h2.5l0.1-0.4h-2.6V10.8z M44.9,7H34.1c-0.1,0-0.2,0-0.3,0c-0.2,0.1-0.3,0.1-0.4,0.2c-0.1,0.1-0.2,0.2-0.3,0.3
				l-0.2,0.2l-0.6,1.5l0.2,0.2l12.3-0.1H45c0.104,0,0.201-0.1,0.301-0.2c0.303-0.2,0.5-0.5,0.5-1c0-0.4-0.1-0.7-0.397-0.9
				c-0.196,0-0.3-0.1-0.397-0.2H44.9z M4.9,14.2H4.7H1.9H1.7c-0.1,0.1-0.1,0.2-0.1,0.2s0.1,0.1,0.2,0.2l0.1,0.1h2.9
				c0.1,0,0.1-0.1,0.1-0.1C5,14.5,5,14.5,5,14.4S5,14.3,4.9,14.2z M1.7,9.7v0.4h3.7c0-0.1,0-0.2,0-0.3c0-0.1,0-0.1-0.1-0.2H5
				L1.7,9.7z M37.1,17c-0.1,0-0.2,0-0.3-0.1h-1.5C35.2,17,35.1,17.1,35,17.2c-0.2,0.3-0.3,0.6-0.3,0.899
				c0,0.301,0.1,0.601,0.3,0.801c0.1,0.1,0.2,0.199,0.3,0.3l-0.2,0.1c-0.2-0.1-0.3-0.2-0.5-0.399c-0.3-0.301-0.5-0.601-0.5-1
				c0-0.197,0-0.5,0.2-0.801l0.2-0.3c-0.2,0-0.5,0.101-0.7,0.2c-0.5,0.3-0.7,0.8-0.6,1.4c0,0.3,0.2,0.6,0.5,0.896
				c0.2,0.2,0.3,0.303,0.5,0.4h3.5v-0.5c0.1-0.104,0.2-0.303,0.3-0.5c0.1-0.4,0.1-0.803-0.1-1.2C37.6,17.4,37.4,17.2,37.1,17z"/>
		</defs>
		<clipPath id="SVGID_34_">
			<use xlink:href="#SVGID_33_"  overflow="visible"/>
		</clipPath>
		<path clip-path="url(#SVGID_34_)" fill="#FFFFFF" d="M37.59,16.144c0.782-1.31,2.582-3.418,4.869-2.97
			c1.789,0.35,2.117,2.708,2.117,2.708s0.23-0.631,0.725-1.188c0.568-0.643,1.395-1.182,1.08-0.457
			c-0.745,1.735-1.784,7.404-3.914,8.131c-4.036,1.378-5.166-4.896-5.166-4.896s2.281,2.584,4.091,2.295
			c1.709-0.275,2.885-2.686,2.885-2.686s-0.49-4.21-3.475-3.071c-1.916,0.729-3.659,3.394-3.659,3.394L37.59,16.144z"/>
	</g>
	<g>
		<defs>
			<path id="SVGID_35_" d="M78.1,12.7h-3.5v-0.2h-2.399l-0.5,0.2H67.6l0.8,0.2v0.7l-0.199,0.2h-0.9V14h-0.697v-1.2H66.8v-0.2
				l-2.5-0.1l-0.1,0.2L64.1,13.3c0,0.1-0.101,0.1-0.101,0.1c-0.103,0.1-0.103,0.1-0.199,0.1c-0.1,0-0.1-0.1-0.2-0.1l-0.2-0.1v-0.5
				l-0.1-0.2h-0.5v0.8c0,0.1-0.1,0.1-0.2,0.2l-0.2,0.1h-0.3l-0.2,0.5L48,14.4l-0.299-0.2L47.4,14.1l-0.699,0.3l-0.101-1h-0.7V14v0.1
				c0,0.1-0.1,0.1-0.1,0.2c-0.1,0-0.1,0.1-0.2,0.1H45.5h-0.1c-0.1,0-0.199,0.1-0.199,0.2C45.1,14.7,45.1,14.8,45,14.8L44.8,15v3.3
				L45,18.4v0.3l-0.5,0.2V20.1C44.6,21,44.701,21.9,44.8,22.7c0.199,0.8,0.5,1.8,0.8,3c0.2,0.6,0.3,1.1,0.5,1.6l0.2,0.2L40.6,29
				h-0.2v-0.2c-0.2-0.6-0.4-1.3-0.6-2c-0.4-1.5-0.7-2.7-0.9-3.399c-0.2-0.697-0.3-1.5-0.3-2.301l-0.1-1L38.1,20.2L37.6,20.1H34
				L32.8,20.2c-0.1,0-0.1,0-0.2,0c-0.2,0-0.3,0-0.4,0.1C32.1,20.4,32,20.5,32,20.5l-0.8,1.6l0.4,0.5L31.5,22.7
				c-0.2,0.1-0.3,0.1-0.5,0.2C30.9,23,30.8,23,30.7,23.1L30.6,23.2l-1.7,3.2c-0.1,0.1-0.1,0.199,0,0.3c0,0.1,0.1,0.2,0.2,0.3
				s0.1,0.1,0.2,0.1L29,27.7l-5.4-1.3l4.9-8.5c0.1-0.104,0.1-0.2,0.1-0.301c0.1-0.199,0.1-0.5,0.1-0.699c-0.1-0.301-0.2-0.5-0.3-0.7
				c-0.1-0.2-0.3-0.3-0.4-0.5c-0.2-0.1-0.3-0.2-0.5-0.2h-1.2v0.2H26v-2.1h-1v-0.3h-4L20.1,14l-3.7,0.1v0.3h-3.2v2H11v0.8H9.9v-0.8
				l-3.6,2.3v-1.9L1.7,18.9v0.8v0.1C1.6,19.9,1.6,20,1.5,20s-0.1-0.1-0.2-0.2v-0.1V9.3h4.1c0.1,0,0.1,0.1,0.2,0.2
				c0,0.1,0,0.3,0.1,0.5l10.5,0.1c0.1,0,0.1,0.1,0.1,0.1c0.1,0.1,0.1,0.1,0.1,0.2h8.5v-0.3h1V9.8h0.3v0.3h1V9.6h1l0.1,0.1l2.6-4.1
				L31,5.4c0.1-0.1,0.2-0.2,0.3-0.2C31.5,5,31.6,5,31.7,5c0.1,0,0.2,0,0.2,0l12.9,1.4l0.4,0.1c0.299,0.1,0.5,0.2,0.696,0.4
				C46,7,46.1,7.2,46.3,7.5c0.1,0.1,0.1,0.2,0.199,0.3l-0.103,2.5h0.304V9.2L47.5,9.4V9.1H47.8V9c0-0.1,0.1-0.1,0.1-0.1
				c0.1,0,0.1-0.1,0.2-0.1L62.3,9L62.5,9.3v0.4h0.4H63c0,0.1,0,0.2,0,0.2c0,0.1,0.104,0.4,0.104,0.9h0.5V9.3L66,6l0.201-0.2
				c0.199-0.1,0.299-0.2,0.5-0.2C67.1,5.7,67.4,5.8,67.6,6c0.101,0.1,0.101,0.2,0.101,0.3c0,0.1,0,0.1,0,0.1v4.4h4.1l0.5,0.2h2.303
				v-0.2h3.5 M66.8,8.6c-0.1-0.1-0.1-0.1-0.2-0.2c0-0.1-0.101-0.2-0.2-0.5V7.5l-0.9-0.1L64.1,9.6l0.2,0.2h2.6l0.2-0.2v-1H66.8z
				 M64.4,10.8h2.5l0.1-0.4h-2.6V10.8z M44.9,7H34.1c-0.1,0-0.2,0-0.3,0c-0.2,0.1-0.3,0.1-0.4,0.2c-0.1,0.1-0.2,0.2-0.3,0.3
				l-0.2,0.2l-0.6,1.5l0.2,0.2l12.3-0.1H45c0.104,0,0.201-0.1,0.301-0.2c0.303-0.2,0.5-0.5,0.5-1c0-0.4-0.1-0.7-0.397-0.9
				c-0.196,0-0.3-0.1-0.397-0.2H44.9z M4.9,14.2H4.7H1.9H1.7c-0.1,0.1-0.1,0.2-0.1,0.2s0.1,0.1,0.2,0.2l0.1,0.1h2.9
				c0.1,0,0.1-0.1,0.1-0.1C5,14.5,5,14.5,5,14.4S5,14.3,4.9,14.2z M1.7,9.7v0.4h3.7c0-0.1,0-0.2,0-0.3c0-0.1,0-0.1-0.1-0.2H5
				L1.7,9.7z M37.1,17c-0.1,0-0.2,0-0.3-0.1h-1.5C35.2,17,35.1,17.1,35,17.2c-0.2,0.3-0.3,0.6-0.3,0.899
				c0,0.301,0.1,0.601,0.3,0.801c0.1,0.1,0.2,0.199,0.3,0.3l-0.2,0.1c-0.2-0.1-0.3-0.2-0.5-0.399c-0.3-0.301-0.5-0.601-0.5-1
				c0-0.197,0-0.5,0.2-0.801l0.2-0.3c-0.2,0-0.5,0.101-0.7,0.2c-0.5,0.3-0.7,0.8-0.6,1.4c0,0.3,0.2,0.6,0.5,0.896
				c0.2,0.2,0.3,0.303,0.5,0.4h3.5v-0.5c0.1-0.104,0.2-0.303,0.3-0.5c0.1-0.4,0.1-0.803-0.1-1.2C37.6,17.4,37.4,17.2,37.1,17z"/>
		</defs>
		<clipPath id="SVGID_36_">
			<use xlink:href="#SVGID_35_"  overflow="visible"/>
		</clipPath>
		<path clip-path="url(#SVGID_36_)" fill="#FFFFFF" d="M46.483,22.186c-0.633,1.969-1.789,3.65-2.884,4.073
			c-0.411,0.159-1.292,0.464-2.564-0.085c-1.207-0.521-2.158-1.972-2.158-1.972s0.028-0.091-0.92-1.356
			c-0.675-0.902,0.445-0.348,0.445-0.348s2.12,4.316,5.208,2.799c1.979-0.973,2.456-4.627,2.456-4.627L46.483,22.186z"/>
	</g>
	<g>
		<defs>
			<path id="SVGID_37_" d="M78.1,12.7h-3.5v-0.2h-2.399l-0.5,0.2H67.6l0.8,0.2v0.7l-0.199,0.2h-0.9V14h-0.697v-1.2H66.8v-0.2
				l-2.5-0.1l-0.1,0.2L64.1,13.3c0,0.1-0.101,0.1-0.101,0.1c-0.103,0.1-0.103,0.1-0.199,0.1c-0.1,0-0.1-0.1-0.2-0.1l-0.2-0.1v-0.5
				l-0.1-0.2h-0.5v0.8c0,0.1-0.1,0.1-0.2,0.2l-0.2,0.1h-0.3l-0.2,0.5L48,14.4l-0.299-0.2L47.4,14.1l-0.699,0.3l-0.101-1h-0.7V14v0.1
				c0,0.1-0.1,0.1-0.1,0.2c-0.1,0-0.1,0.1-0.2,0.1H45.5h-0.1c-0.1,0-0.199,0.1-0.199,0.2C45.1,14.7,45.1,14.8,45,14.8L44.8,15v3.3
				L45,18.4v0.3l-0.5,0.2V20.1C44.6,21,44.701,21.9,44.8,22.7c0.199,0.8,0.5,1.8,0.8,3c0.2,0.6,0.3,1.1,0.5,1.6l0.2,0.2L40.6,29
				h-0.2v-0.2c-0.2-0.6-0.4-1.3-0.6-2c-0.4-1.5-0.7-2.7-0.9-3.399c-0.2-0.697-0.3-1.5-0.3-2.301l-0.1-1L38.1,20.2L37.6,20.1H34
				L32.8,20.2c-0.1,0-0.1,0-0.2,0c-0.2,0-0.3,0-0.4,0.1C32.1,20.4,32,20.5,32,20.5l-0.8,1.6l0.4,0.5L31.5,22.7
				c-0.2,0.1-0.3,0.1-0.5,0.2C30.9,23,30.8,23,30.7,23.1L30.6,23.2l-1.7,3.2c-0.1,0.1-0.1,0.199,0,0.3c0,0.1,0.1,0.2,0.2,0.3
				s0.1,0.1,0.2,0.1L29,27.7l-5.4-1.3l4.9-8.5c0.1-0.104,0.1-0.2,0.1-0.301c0.1-0.199,0.1-0.5,0.1-0.699c-0.1-0.301-0.2-0.5-0.3-0.7
				c-0.1-0.2-0.3-0.3-0.4-0.5c-0.2-0.1-0.3-0.2-0.5-0.2h-1.2v0.2H26v-2.1h-1v-0.3h-4L20.1,14l-3.7,0.1v0.3h-3.2v2H11v0.8H9.9v-0.8
				l-3.6,2.3v-1.9L1.7,18.9v0.8v0.1C1.6,19.9,1.6,20,1.5,20s-0.1-0.1-0.2-0.2v-0.1V9.3h4.1c0.1,0,0.1,0.1,0.2,0.2
				c0,0.1,0,0.3,0.1,0.5l10.5,0.1c0.1,0,0.1,0.1,0.1,0.1c0.1,0.1,0.1,0.1,0.1,0.2h8.5v-0.3h1V9.8h0.3v0.3h1V9.6h1l0.1,0.1l2.6-4.1
				L31,5.4c0.1-0.1,0.2-0.2,0.3-0.2C31.5,5,31.6,5,31.7,5c0.1,0,0.2,0,0.2,0l12.9,1.4l0.4,0.1c0.299,0.1,0.5,0.2,0.696,0.4
				C46,7,46.1,7.2,46.3,7.5c0.1,0.1,0.1,0.2,0.199,0.3l-0.103,2.5h0.304V9.2L47.5,9.4V9.1H47.8V9c0-0.1,0.1-0.1,0.1-0.1
				c0.1,0,0.1-0.1,0.2-0.1L62.3,9L62.5,9.3v0.4h0.4H63c0,0.1,0,0.2,0,0.2c0,0.1,0.104,0.4,0.104,0.9h0.5V9.3L66,6l0.201-0.2
				c0.199-0.1,0.299-0.2,0.5-0.2C67.1,5.7,67.4,5.8,67.6,6c0.101,0.1,0.101,0.2,0.101,0.3c0,0.1,0,0.1,0,0.1v4.4h4.1l0.5,0.2h2.303
				v-0.2h3.5 M66.8,8.6c-0.1-0.1-0.1-0.1-0.2-0.2c0-0.1-0.101-0.2-0.2-0.5V7.5l-0.9-0.1L64.1,9.6l0.2,0.2h2.6l0.2-0.2v-1H66.8z
				 M64.4,10.8h2.5l0.1-0.4h-2.6V10.8z M44.9,7H34.1c-0.1,0-0.2,0-0.3,0c-0.2,0.1-0.3,0.1-0.4,0.2c-0.1,0.1-0.2,0.2-0.3,0.3
				l-0.2,0.2l-0.6,1.5l0.2,0.2l12.3-0.1H45c0.104,0,0.201-0.1,0.301-0.2c0.303-0.2,0.5-0.5,0.5-1c0-0.4-0.1-0.7-0.397-0.9
				c-0.196,0-0.3-0.1-0.397-0.2H44.9z M4.9,14.2H4.7H1.9H1.7c-0.1,0.1-0.1,0.2-0.1,0.2s0.1,0.1,0.2,0.2l0.1,0.1h2.9
				c0.1,0,0.1-0.1,0.1-0.1C5,14.5,5,14.5,5,14.4S5,14.3,4.9,14.2z M1.7,9.7v0.4h3.7c0-0.1,0-0.2,0-0.3c0-0.1,0-0.1-0.1-0.2H5
				L1.7,9.7z M37.1,17c-0.1,0-0.2,0-0.3-0.1h-1.5C35.2,17,35.1,17.1,35,17.2c-0.2,0.3-0.3,0.6-0.3,0.899
				c0,0.301,0.1,0.601,0.3,0.801c0.1,0.1,0.2,0.199,0.3,0.3l-0.2,0.1c-0.2-0.1-0.3-0.2-0.5-0.399c-0.3-0.301-0.5-0.601-0.5-1
				c0-0.197,0-0.5,0.2-0.801l0.2-0.3c-0.2,0-0.5,0.101-0.7,0.2c-0.5,0.3-0.7,0.8-0.6,1.4c0,0.3,0.2,0.6,0.5,0.896
				c0.2,0.2,0.3,0.303,0.5,0.4h3.5v-0.5c0.1-0.104,0.2-0.303,0.3-0.5c0.1-0.4,0.1-0.803-0.1-1.2C37.6,17.4,37.4,17.2,37.1,17z"/>
		</defs>
		<clipPath id="SVGID_38_">
			<use xlink:href="#SVGID_37_"  overflow="visible"/>
		</clipPath>
		<path clip-path="url(#SVGID_38_)" fill="#A089F4" d="M28.9,8.746"/>
	</g>
	<g>
		<defs>
			<path id="SVGID_39_" d="M78.1,12.7h-3.5v-0.2h-2.399l-0.5,0.2H67.6l0.8,0.2v0.7l-0.199,0.2h-0.9V14h-0.697v-1.2H66.8v-0.2
				l-2.5-0.1l-0.1,0.2L64.1,13.3c0,0.1-0.101,0.1-0.101,0.1c-0.103,0.1-0.103,0.1-0.199,0.1c-0.1,0-0.1-0.1-0.2-0.1l-0.2-0.1v-0.5
				l-0.1-0.2h-0.5v0.8c0,0.1-0.1,0.1-0.2,0.2l-0.2,0.1h-0.3l-0.2,0.5L48,14.4l-0.299-0.2L47.4,14.1l-0.699,0.3l-0.101-1h-0.7V14v0.1
				c0,0.1-0.1,0.1-0.1,0.2c-0.1,0-0.1,0.1-0.2,0.1H45.5h-0.1c-0.1,0-0.199,0.1-0.199,0.2C45.1,14.7,45.1,14.8,45,14.8L44.8,15v3.3
				L45,18.4v0.3l-0.5,0.2V20.1C44.6,21,44.701,21.9,44.8,22.7c0.199,0.8,0.5,1.8,0.8,3c0.2,0.6,0.3,1.1,0.5,1.6l0.2,0.2L40.6,29
				h-0.2v-0.2c-0.2-0.6-0.4-1.3-0.6-2c-0.4-1.5-0.7-2.7-0.9-3.399c-0.2-0.697-0.3-1.5-0.3-2.301l-0.1-1L38.1,20.2L37.6,20.1H34
				L32.8,20.2c-0.1,0-0.1,0-0.2,0c-0.2,0-0.3,0-0.4,0.1C32.1,20.4,32,20.5,32,20.5l-0.8,1.6l0.4,0.5L31.5,22.7
				c-0.2,0.1-0.3,0.1-0.5,0.2C30.9,23,30.8,23,30.7,23.1L30.6,23.2l-1.7,3.2c-0.1,0.1-0.1,0.199,0,0.3c0,0.1,0.1,0.2,0.2,0.3
				s0.1,0.1,0.2,0.1L29,27.7l-5.4-1.3l4.9-8.5c0.1-0.104,0.1-0.2,0.1-0.301c0.1-0.199,0.1-0.5,0.1-0.699c-0.1-0.301-0.2-0.5-0.3-0.7
				c-0.1-0.2-0.3-0.3-0.4-0.5c-0.2-0.1-0.3-0.2-0.5-0.2h-1.2v0.2H26v-2.1h-1v-0.3h-4L20.1,14l-3.7,0.1v0.3h-3.2v2H11v0.8H9.9v-0.8
				l-3.6,2.3v-1.9L1.7,18.9v0.8v0.1C1.6,19.9,1.6,20,1.5,20s-0.1-0.1-0.2-0.2v-0.1V9.3h4.1c0.1,0,0.1,0.1,0.2,0.2
				c0,0.1,0,0.3,0.1,0.5l10.5,0.1c0.1,0,0.1,0.1,0.1,0.1c0.1,0.1,0.1,0.1,0.1,0.2h8.5v-0.3h1V9.8h0.3v0.3h1V9.6h1l0.1,0.1l2.6-4.1
				L31,5.4c0.1-0.1,0.2-0.2,0.3-0.2C31.5,5,31.6,5,31.7,5c0.1,0,0.2,0,0.2,0l12.9,1.4l0.4,0.1c0.299,0.1,0.5,0.2,0.696,0.4
				C46,7,46.1,7.2,46.3,7.5c0.1,0.1,0.1,0.2,0.199,0.3l-0.103,2.5h0.304V9.2L47.5,9.4V9.1H47.8V9c0-0.1,0.1-0.1,0.1-0.1
				c0.1,0,0.1-0.1,0.2-0.1L62.3,9L62.5,9.3v0.4h0.4H63c0,0.1,0,0.2,0,0.2c0,0.1,0.104,0.4,0.104,0.9h0.5V9.3L66,6l0.201-0.2
				c0.199-0.1,0.299-0.2,0.5-0.2C67.1,5.7,67.4,5.8,67.6,6c0.101,0.1,0.101,0.2,0.101,0.3c0,0.1,0,0.1,0,0.1v4.4h4.1l0.5,0.2h2.303
				v-0.2h3.5 M66.8,8.6c-0.1-0.1-0.1-0.1-0.2-0.2c0-0.1-0.101-0.2-0.2-0.5V7.5l-0.9-0.1L64.1,9.6l0.2,0.2h2.6l0.2-0.2v-1H66.8z
				 M64.4,10.8h2.5l0.1-0.4h-2.6V10.8z M44.9,7H34.1c-0.1,0-0.2,0-0.3,0c-0.2,0.1-0.3,0.1-0.4,0.2c-0.1,0.1-0.2,0.2-0.3,0.3
				l-0.2,0.2l-0.6,1.5l0.2,0.2l12.3-0.1H45c0.104,0,0.201-0.1,0.301-0.2c0.303-0.2,0.5-0.5,0.5-1c0-0.4-0.1-0.7-0.397-0.9
				c-0.196,0-0.3-0.1-0.397-0.2H44.9z M4.9,14.2H4.7H1.9H1.7c-0.1,0.1-0.1,0.2-0.1,0.2s0.1,0.1,0.2,0.2l0.1,0.1h2.9
				c0.1,0,0.1-0.1,0.1-0.1C5,14.5,5,14.5,5,14.4S5,14.3,4.9,14.2z M1.7,9.7v0.4h3.7c0-0.1,0-0.2,0-0.3c0-0.1,0-0.1-0.1-0.2H5
				L1.7,9.7z M37.1,17c-0.1,0-0.2,0-0.3-0.1h-1.5C35.2,17,35.1,17.1,35,17.2c-0.2,0.3-0.3,0.6-0.3,0.899
				c0,0.301,0.1,0.601,0.3,0.801c0.1,0.1,0.2,0.199,0.3,0.3l-0.2,0.1c-0.2-0.1-0.3-0.2-0.5-0.399c-0.3-0.301-0.5-0.601-0.5-1
				c0-0.197,0-0.5,0.2-0.801l0.2-0.3c-0.2,0-0.5,0.101-0.7,0.2c-0.5,0.3-0.7,0.8-0.6,1.4c0,0.3,0.2,0.6,0.5,0.896
				c0.2,0.2,0.3,0.303,0.5,0.4h3.5v-0.5c0.1-0.104,0.2-0.303,0.3-0.5c0.1-0.4,0.1-0.803-0.1-1.2C37.6,17.4,37.4,17.2,37.1,17z"/>
		</defs>
		<clipPath id="SVGID_40_">
			<use xlink:href="#SVGID_39_"  overflow="visible"/>
		</clipPath>
		
			<linearGradient id="SVGID_41_" gradientUnits="userSpaceOnUse" x1="564.1772" y1="861.5869" x2="564.1772" y2="856.7998" gradientTransform="matrix(0.997 -0.0776 0.0776 0.997 -563.4697 -799.2393)">
			<stop  offset="0" style="stop-color:#158CFF"/>
			<stop  offset="0.6989" style="stop-color:#FFFFFF"/>
		</linearGradient>
		<path clip-path="url(#SVGID_40_)" fill="url(#SVGID_41_)" d="M62.5,14.258c0,0,0.942-3.042,2.797-3.026
			c1.854,0.015,3.69,3.091,3.69,3.091L65.649,16L62.5,14.258z"/>
	</g>
</g>
<g>
	<path fill="#F3FFFE" d="M50.417,24.537l-1.158,2.495h-2.407l5.526-10.961h2.674l1.604,10.961h-2.317l-0.268-2.495H50.417z
		 M53.359,18.388l-1.871,4.01h2.316L53.359,18.388z"/>
	<path fill="#F3FFFE" d="M60.042,27.032c-0.623,0-1.159-0.179-1.515-0.624c-0.354-0.445-0.445-0.98-0.354-1.604l1.246-6.772
		c0.091-0.624,0.355-1.158,0.892-1.515c0.445-0.357,0.981-0.535,1.691-0.535h3.564c0.625,0,1.159,0.178,1.517,0.624
		c0.354,0.445,0.445,0.98,0.354,1.604l-0.27,1.692h-2.316l0.268-1.425c0-0.179,0-0.268,0-0.357c-0.09-0.089-0.179-0.089-0.354-0.089
		h-2.406c-0.356,0-0.623,0.179-0.713,0.624l-1.069,5.882c0,0.179,0,0.267,0,0.356c0.089,0.089,0.178,0.089,0.355,0.089h2.405
		c0.357,0,0.625-0.179,0.714-0.624l0.178-1.247h2.318l-0.445,1.873c-0.091,0.624-0.355,1.159-0.892,1.516
		c-0.445,0.354-0.981,0.535-1.691,0.535L60.042,27.032L60.042,27.032z"/>
	<path fill="#F3FFFE" d="M76.886,16.071L76.53,18.12h-5.079l-0.445,2.229h4.101l-0.355,2.049H70.65l-0.445,2.496h5.079l-0.357,2.052
		h-7.305l1.958-10.873L76.886,16.071L76.886,16.071z"/>
</g>
</svg>
