<?xml version="1.0" encoding="utf-8"?>
<!-- Generator: Adobe Illustrator 16.0.0, SVG Export Plug-In . SVG Version: 6.00 Build 0)  -->
<!DOCTYPE svg PUBLIC "-//W3C//DTD SVG 1.0//EN" "http://www.w3.org/TR/2001/REC-SVG-20010904/DTD/svg10.dtd">
<svg version="1.0" id="Layer_1" xmlns="http://www.w3.org/2000/svg" xmlns:xlink="http://www.w3.org/1999/xlink" x="0px" y="0px"
	 width="79.8px" height="32px" viewBox="0 0 79.8 32" enable-background="new 0 0 79.8 32" xml:space="preserve">
<linearGradient id="SVGID_1_" gradientUnits="userSpaceOnUse" x1="743.2202" y1="579.1992" x2="820.0229" y2="579.1992" gradientTransform="matrix(1 0 0 1 -741.9199 -562.1992)">
	<stop  offset="0" style="stop-color:#5782CE"/>
	<stop  offset="0.9898" style="stop-color:#5CAEFF"/>
</linearGradient>
<linearGradient id="SVGID_2_" gradientUnits="userSpaceOnUse" x1="371.8843" y1="-263.5996" x2="449.063" y2="-263.5996" gradientTransform="matrix(1 0 0 -1 -370.96 -246.5996)">
	<stop  offset="0" style="stop-color:#86D4F7"/>
	<stop  offset="1" style="stop-color:#DEF6FF"/>
</linearGradient>
<path fill="url(#SVGID_1_)" stroke="url(#SVGID_2_)" stroke-width="0.75" stroke-miterlimit="10" d="M78.1,12.7h-3.5v-0.2h-2.399
	l-0.5,0.2H67.6l0.8,0.2v0.7l-0.199,0.2h-0.9V14h-0.697v-1.2H66.8v-0.2l-2.5-0.1l-0.1,0.2L64.1,13.3c0,0.1-0.101,0.1-0.101,0.1
	c-0.103,0.1-0.103,0.1-0.199,0.1c-0.1,0-0.1-0.1-0.2-0.1l-0.2-0.1v-0.5l-0.1-0.2h-0.5v0.8c0,0.1-0.1,0.1-0.2,0.2l-0.2,0.1h-0.3
	l-0.2,0.5L48,14.4l-0.299-0.2L47.4,14.1l-0.699,0.3l-0.101-1h-0.7V14v0.1c0,0.1-0.1,0.1-0.1,0.2c-0.1,0-0.1,0.1-0.2,0.1H45.5h-0.1
	c-0.1,0-0.199,0.1-0.199,0.2C45.1,14.7,45.1,14.8,45,14.8L44.8,15v3.3L45,18.4v0.3l-0.5,0.2V20.1C44.6,21,44.701,21.9,44.8,22.7
	c0.199,0.8,0.5,1.8,0.8,3c0.2,0.6,0.3,1.1,0.5,1.6l0.2,0.2L40.6,29h-0.2v-0.2c-0.2-0.6-0.4-1.3-0.6-2c-0.4-1.5-0.7-2.7-0.9-3.399
	c-0.2-0.697-0.3-1.5-0.3-2.301l-0.1-1L38.1,20.2L37.6,20.1H34L32.8,20.2c-0.1,0-0.1,0-0.2,0c-0.2,0-0.3,0-0.4,0.1
	C32.1,20.4,32,20.5,32,20.5l-0.8,1.6l0.4,0.5L31.5,22.7c-0.2,0.1-0.3,0.1-0.5,0.2C30.9,23,30.8,23,30.7,23.1L30.6,23.2l-1.7,3.2
	c-0.1,0.1-0.1,0.199,0,0.3c0,0.1,0.1,0.2,0.2,0.3s0.1,0.1,0.2,0.1L29,27.7l-5.4-1.3l4.9-8.5c0.1-0.104,0.1-0.2,0.1-0.301
	c0.1-0.199,0.1-0.5,0.1-0.699c-0.1-0.301-0.2-0.5-0.3-0.7c-0.1-0.2-0.3-0.3-0.4-0.5c-0.2-0.1-0.3-0.2-0.5-0.2h-1.2v0.2H26v-2.1h-1
	v-0.3h-4L20.1,14l-3.7,0.1v0.3h-3.2v2H11v0.8H9.9v-0.8l-3.6,2.3v-1.9L1.7,18.9v0.8v0.1C1.6,19.9,1.6,20,1.5,20s-0.1-0.1-0.2-0.2
	v-0.1V9.3h4.1c0.1,0,0.1,0.1,0.2,0.2c0,0.1,0,0.3,0.1,0.5l10.5,0.1c0.1,0,0.1,0.1,0.1,0.1c0.1,0.1,0.1,0.1,0.1,0.2h8.5v-0.3h1V9.8
	h0.3v0.3h1V9.6h1l0.1,0.1l2.6-4.1L31,5.4c0.1-0.1,0.2-0.2,0.3-0.2C31.5,5,31.6,5,31.7,5c0.1,0,0.2,0,0.2,0l12.9,1.4l0.4,0.1
	c0.299,0.1,0.5,0.2,0.696,0.4C46,7,46.1,7.2,46.3,7.5c0.1,0.1,0.1,0.2,0.199,0.3l-0.103,2.5h0.304V9.2L47.5,9.4V9.1H47.8V9
	c0-0.1,0.1-0.1,0.1-0.1c0.1,0,0.1-0.1,0.2-0.1L62.3,9L62.5,9.3v0.4h0.4H63c0,0.1,0,0.2,0,0.2c0,0.1,0.104,0.4,0.104,0.9h0.5V9.3
	L66,6l0.201-0.2c0.199-0.1,0.299-0.2,0.5-0.2C67.1,5.7,67.4,5.8,67.6,6c0.101,0.1,0.101,0.2,0.101,0.3c0,0.1,0,0.1,0,0.1v4.4h4.1
	l0.5,0.2h2.303v-0.2h3.5 M66.8,8.6c-0.1-0.1-0.1-0.1-0.2-0.2c0-0.1-0.101-0.2-0.2-0.5V7.5l-0.9-0.1L64.1,9.6l0.2,0.2h2.6l0.2-0.2v-1
	H66.8z M64.4,10.8h2.5l0.1-0.4h-2.6V10.8z M44.9,7H34.1c-0.1,0-0.2,0-0.3,0c-0.2,0.1-0.3,0.1-0.4,0.2c-0.1,0.1-0.2,0.2-0.3,0.3
	l-0.2,0.2l-0.6,1.5l0.2,0.2l12.3-0.1H45c0.104,0,0.201-0.1,0.301-0.2c0.303-0.2,0.5-0.5,0.5-1c0-0.4-0.1-0.7-0.397-0.9
	c-0.196,0-0.3-0.1-0.397-0.2H44.9z M4.9,14.2H4.7H1.9H1.7c-0.1,0.1-0.1,0.2-0.1,0.2s0.1,0.1,0.2,0.2l0.1,0.1h2.9
	c0.1,0,0.1-0.1,0.1-0.1C5,14.5,5,14.5,5,14.4S5,14.3,4.9,14.2z M1.7,9.7v0.4h3.7c0-0.1,0-0.2,0-0.3c0-0.1,0-0.1-0.1-0.2H5L1.7,9.7z
	 M37.1,17c-0.1,0-0.2,0-0.3-0.1h-1.5C35.2,17,35.1,17.1,35,17.2c-0.2,0.3-0.3,0.6-0.3,0.899c0,0.301,0.1,0.601,0.3,0.801
	c0.1,0.1,0.2,0.199,0.3,0.3l-0.2,0.1c-0.2-0.1-0.3-0.2-0.5-0.399c-0.3-0.301-0.5-0.601-0.5-1c0-0.197,0-0.5,0.2-0.801l0.2-0.3
	c-0.2,0-0.5,0.101-0.7,0.2c-0.5,0.3-0.7,0.8-0.6,1.4c0,0.3,0.2,0.6,0.5,0.896c0.2,0.2,0.3,0.303,0.5,0.398h3.5v-0.5
	c0.1-0.102,0.2-0.301,0.3-0.5c0.1-0.398,0.1-0.801-0.1-1.198C37.6,17.4,37.4,17.2,37.1,17z"/>
<g>
	<defs>
		<path id="SVGID_3_" d="M78.1,12.7h-3.5v-0.2h-2.399l-0.5,0.2H67.6l0.8,0.2v0.7l-0.199,0.2h-0.9V14h-0.697v-1.2H66.8v-0.2l-2.5-0.1
			l-0.1,0.2L64.1,13.3c0,0.1-0.101,0.1-0.101,0.1c-0.103,0.1-0.103,0.1-0.199,0.1c-0.1,0-0.1-0.1-0.2-0.1l-0.2-0.1v-0.5l-0.1-0.2
			h-0.5v0.8c0,0.1-0.1,0.1-0.2,0.2l-0.2,0.1h-0.3l-0.2,0.5L48,14.4l-0.299-0.2L47.4,14.1l-0.699,0.3l-0.101-1h-0.7V14v0.1
			c0,0.1-0.1,0.1-0.1,0.2c-0.1,0-0.1,0.1-0.2,0.1H45.5h-0.1c-0.1,0-0.199,0.1-0.199,0.2C45.1,14.7,45.1,14.8,45,14.8L44.8,15v3.3
			L45,18.4v0.3l-0.5,0.2V20.1C44.6,21,44.701,21.9,44.8,22.7c0.199,0.8,0.5,1.8,0.8,3c0.2,0.6,0.3,1.1,0.5,1.6l0.2,0.2L40.6,29h-0.2
			v-0.2c-0.2-0.6-0.4-1.3-0.6-2c-0.4-1.5-0.7-2.7-0.9-3.399c-0.2-0.697-0.3-1.5-0.3-2.301l-0.1-1L38.1,20.2L37.6,20.1H34L32.8,20.2
			c-0.1,0-0.1,0-0.2,0c-0.2,0-0.3,0-0.4,0.1C32.1,20.4,32,20.5,32,20.5l-0.8,1.6l0.4,0.5L31.5,22.7c-0.2,0.1-0.3,0.1-0.5,0.2
			C30.9,23,30.8,23,30.7,23.1L30.6,23.2l-1.7,3.2c-0.1,0.1-0.1,0.199,0,0.3c0,0.1,0.1,0.2,0.2,0.3s0.1,0.1,0.2,0.1L29,27.7l-5.4-1.3
			l4.9-8.5c0.1-0.104,0.1-0.2,0.1-0.301c0.1-0.199,0.1-0.5,0.1-0.699c-0.1-0.301-0.2-0.5-0.3-0.7c-0.1-0.2-0.3-0.3-0.4-0.5
			c-0.2-0.1-0.3-0.2-0.5-0.2h-1.2v0.2H26v-2.1h-1v-0.3h-4L20.1,14l-3.7,0.1v0.3h-3.2v2H11v0.8H9.9v-0.8l-3.6,2.3v-1.9L1.7,18.9v0.8
			v0.1C1.6,19.9,1.6,20,1.5,20s-0.1-0.1-0.2-0.2v-0.1V9.3h4.1c0.1,0,0.1,0.1,0.2,0.2c0,0.1,0,0.3,0.1,0.5l10.5,0.1
			c0.1,0,0.1,0.1,0.1,0.1c0.1,0.1,0.1,0.1,0.1,0.2h8.5v-0.3h1V9.8h0.3v0.3h1V9.6h1l0.1,0.1l2.6-4.1L31,5.4c0.1-0.1,0.2-0.2,0.3-0.2
			C31.5,5,31.6,5,31.7,5c0.1,0,0.2,0,0.2,0l12.9,1.4l0.4,0.1c0.299,0.1,0.5,0.2,0.696,0.4C46,7,46.1,7.2,46.3,7.5
			c0.1,0.1,0.1,0.2,0.199,0.3l-0.103,2.5h0.304V9.2L47.5,9.4V9.1H47.8V9c0-0.1,0.1-0.1,0.1-0.1c0.1,0,0.1-0.1,0.2-0.1L62.3,9
			L62.5,9.3v0.4h0.4H63c0,0.1,0,0.2,0,0.2c0,0.1,0.104,0.4,0.104,0.9h0.5V9.3L66,6l0.201-0.2c0.199-0.1,0.299-0.2,0.5-0.2
			C67.1,5.7,67.4,5.8,67.6,6c0.101,0.1,0.101,0.2,0.101,0.3c0,0.1,0,0.1,0,0.1v4.4h4.1l0.5,0.2h2.303v-0.2h3.5 M66.8,8.6
			c-0.1-0.1-0.1-0.1-0.2-0.2c0-0.1-0.101-0.2-0.2-0.5V7.5l-0.9-0.1L64.1,9.6l0.2,0.2h2.6l0.2-0.2v-1H66.8z M64.4,10.8h2.5l0.1-0.4
			h-2.6V10.8z M44.9,7H34.1c-0.1,0-0.2,0-0.3,0c-0.2,0.1-0.3,0.1-0.4,0.2c-0.1,0.1-0.2,0.2-0.3,0.3l-0.2,0.2l-0.6,1.5l0.2,0.2
			l12.3-0.1H45c0.104,0,0.201-0.1,0.301-0.2c0.303-0.2,0.5-0.5,0.5-1c0-0.4-0.1-0.7-0.397-0.9c-0.196,0-0.3-0.1-0.397-0.2H44.9z
			 M4.9,14.2H4.7H1.9H1.7c-0.1,0.1-0.1,0.2-0.1,0.2s0.1,0.1,0.2,0.2l0.1,0.1h2.9c0.1,0,0.1-0.1,0.1-0.1C5,14.5,5,14.5,5,14.4
			S5,14.3,4.9,14.2z M1.7,9.7v0.4h3.7c0-0.1,0-0.2,0-0.3c0-0.1,0-0.1-0.1-0.2H5L1.7,9.7z M37.1,17c-0.1,0-0.2,0-0.3-0.1h-1.5
			C35.2,17,35.1,17.1,35,17.2c-0.2,0.3-0.3,0.6-0.3,0.899c0,0.301,0.1,0.601,0.3,0.801c0.1,0.1,0.2,0.199,0.3,0.3l-0.2,0.1
			c-0.2-0.1-0.3-0.2-0.5-0.399c-0.3-0.301-0.5-0.601-0.5-1c0-0.197,0-0.5,0.2-0.801l0.2-0.3c-0.2,0-0.5,0.101-0.7,0.2
			c-0.5,0.3-0.7,0.8-0.6,1.4c0,0.3,0.2,0.6,0.5,0.896c0.2,0.2,0.3,0.303,0.5,0.398h3.5v-0.5c0.1-0.102,0.2-0.301,0.3-0.5
			c0.1-0.398,0.1-0.801-0.1-1.198C37.6,17.4,37.4,17.2,37.1,17z"/>
	</defs>
	<clipPath id="SVGID_4_">
		<use xlink:href="#SVGID_3_"  overflow="visible"/>
	</clipPath>
	<g clip-path="url(#SVGID_4_)">
		<polygon fill="#489FC1" points="47.008,27.122 39.473,29.876 37.855,18.822 44.328,16.623 44.446,18.062 		"/>
		<polygon fill="#4CC3F2" points="41.039,27.675 39.482,19.202 40.837,18.701 42.307,27.394 		"/>
		<polygon fill="#4CC3F2" points="43.181,26.999 41.477,18.467 42.831,17.827 44.452,26.718 		"/>
		
			<linearGradient id="SVGID_5_" gradientUnits="userSpaceOnUse" x1="742.9868" y1="575.5762" x2="789.6968" y2="575.5762" gradientTransform="matrix(1 0 0 1 -741.9199 -562.1992)">
			<stop  offset="5.581969e-004" style="stop-color:#FF9500"/>
			<stop  offset="1" style="stop-color:#EFB941"/>
		</linearGradient>
		<path fill="url(#SVGID_5_)" d="M1.218,8.834h15.213l5.378-0.38l0.409-3.667l8.939-1.662l4.97,0.347c0,0,9.595,2.504,11.649,4.294
			c0,0-3.363,0.605-4.183,2.539c-0.821,1.932-1.224,3.155-3.099,3.545c-3.419,0.286-3.735-1.82-5.738-0.771
			c-1.638,0.947-1.996,2.348-3.75,3.179c-1.156,0.818-4.481-0.204-5.468,1.195c-0.987,1.404-3.137,6.724-4.361,6.128
			c-1.224-0.596-2.851-1.624-2.851-1.624l-5.62,0.145l-5.425,0.104l-5.327,0.842l-0.89-1.242L1.218,8.834z"/>
		<path fill="#AD6B2A" d="M6.651,12.624c0,0-4.764,0.052-5.245,4.013c-0.624,5.109,4.966,3.254,4.966,3.254
			S4.327,16.491,6.651,12.624z"/>
		<path fill="#5D29FF" d="M6.97,19.53l3.642-1.071c0,0-1.24-2.677,1.636-4.409c2.365-1.428,5.071,0.387,5.071,0.387l1.966-2.438
			c0,0-6.648-3.778-11.196,0.182C4.86,14.99,6.97,19.53,6.97,19.53z"/>
		<path fill="#4383FF" d="M21.944,9.429c0,0-3.011-0.49-4.374-0.367c-1.152,0.104-2.905,0.375-2.657,0.719
			c0.184,0.255,1.795,0.415,3.038,0.852c1.334,0.468,2.3,1.206,2.3,1.206l-2.11,2.604l0.797,1.733l5.096,0.169l0.204-6.946
			L21.944,9.429z"/>
		<path fill="#8600EE" d="M31.652,8.951c0,0-2.113-1.229-4.618,0.103c-2.504,1.332-2.796,6.475,1.563,6.944
			c3.739,0.409,4.479-4.084,2.345-4.707c-2.133-0.622-2.252,1.509-2.011,1.735h-0.577c0,0-0.863-2.596,2.073-2.57
			c2.922,0.025,2.23,3.642,2.23,3.642s1.4-2.266,3.167-2.136c1.997,0.147,1.637,1.062,2.921,1.312
			c1.336,0.259,3.268,0.22,3.879-2.544c0.332-1.496,2.38-2.505,2.38-2.505s-2.585-0.87-4.073,1.206
			c-1.361,1.896-2.349,0.682-3.145-0.167c-1.171-1.246-2.519-1.636-4.632-1.259C32.467,8.126,31.652,8.951,31.652,8.951z"/>
		<ellipse fill="#40C696" cx="14.487" cy="17.306" rx="3.492" ry="3.256"/>
		<path fill="#A20063" d="M35.996,5.711c0,0,1.303-0.499,3.989,0.137c2.683,0.637,3.877,1.518,3.877,1.518s-2.517-0.077-3.128,1.038
			c-0.613,1.116-1.195,1.167-1.782,0.91c-0.583-0.26-1.262-1.584-3.142-1.831c-1.694-0.222,0.097-1.337,0.097-1.337L35.996,5.711z"
			/>
		<path fill="#F58800" d="M23.375,6.329c0.041,0.013,1.586,3.362,1.586,3.362l3.337-1.752l-0.709-2.83L23.375,6.329z"/>
		<polygon fill="#CE9CE5" points="27.965,4.36 28.829,7.778 31.276,8.225 31.458,3.877 		"/>
		<path fill="#646BFF" d="M35.603,4.086c0,0-1.099,2.625-1.113,3.114c0,0-2.047-0.179-2.699,0.733l0.084-4.25L35.603,4.086z"/>
		<path fill="#FCC74F" d="M0.411,14.397c0,0,2.524-2.605,6.722-2.605c0,0,1.248-1.512,2.951-1.923
			c2.446-0.591,4.139-0.558,4.139-0.558l2.128-2.313L0,7.234L0.411,14.397z"/>
	</g>
</g>
</svg>
