<?xml version="1.0" encoding="utf-8"?>
<!-- Generator: Adobe Illustrator 16.0.0, SVG Export Plug-In . SVG Version: 6.00 Build 0)  -->
<!DOCTYPE svg PUBLIC "-//W3C//DTD SVG 1.0//EN" "http://www.w3.org/TR/2001/REC-SVG-20010904/DTD/svg10.dtd">
<svg version="1.0" id="图层_1" xmlns="http://www.w3.org/2000/svg" xmlns:xlink="http://www.w3.org/1999/xlink" x="0px" y="0px"
	 width="78.6px" height="32px" viewBox="0 0 78.6 32" enable-background="new 0 0 78.6 32" xml:space="preserve">
<g id="Selected_Items">
	<g>
		<g id="Selected_Items_30_">
			<linearGradient id="SVGID_1_" gradientUnits="userSpaceOnUse" x1="2.441406e-004" y1="15.8911" x2="78.6028" y2="15.8911">
				<stop  offset="2.300000e-007" style="stop-color:#F8D27E"/>
				<stop  offset="1" style="stop-color:#B3751F"/>
			</linearGradient>
			<path fill="url(#SVGID_1_)" d="M39.1,16.9c0-0.3-0.1-0.6-0.3-0.8c-0.2-0.2-0.4-0.3-0.7-0.3h-1.9c0,0,0,0,0,0
				c-0.1,0.1-0.1,0.2-0.2,0.5c0,0.2,0.1,0.5,0.2,0.9c0.1,0.3,0.2,0.5,0.1,0.5c-0.2,0.1-0.5-0.1-0.9-0.7c-0.1-0.2-0.2-0.4-0.3-0.7
				l0-0.5c-0.2,0.1-0.3,0.2-0.5,0.3c-0.3,0.3-0.4,0.5-0.4,0.8c0,0.4,0.1,0.7,0.3,1c0.2,0.3,0.5,0.5,0.9,0.5h2.4c0.5,0,0.8-0.2,1-0.5
				C39,17.6,39.1,17.3,39.1,16.9z M68.9,6.5c-0.1,0.3-0.2,0.4-0.2,0.5c0,0.1,0,0.2,0,0.5L69,8h1.8l0.1-2.3h-1.5L68.9,6.5z M73,11
				c-0.1,0-0.1,0-0.2-0.1l-0.1-0.1h-1.2c-0.2,0.4-0.3,0.7-0.5,0.7h-0.6c-0.1,0-0.2-0.1-0.2-0.2l-0.1-0.2h-2.4v0.6
				c0,0.2-0.1,0.3-0.3,0.5c-0.2,0.2-0.4,0.3-0.7,0.3H47.9c-0.1,0-0.3-0.1-0.4-0.3l-0.2-0.4L47,12.5h-0.3v4.5l0.3,0.4
				c0,0.1-0.1,0.2-0.3,0.3c-0.1,0.1-0.2,0.3-0.1,0.8c0.1,0.9,0.1,1.4,0.1,1.6c0,0.5,0,1,0.1,1.4c0.1,0.3,0.2,0.8,0.3,1.3
				c0.2,0.7,0.5,1.9,1.1,3.6l0.2,0.1c0.1,0.1,0,0.2-0.1,0.3c-3.9,1.2-5.9,1.9-6.2,1.9c-0.2,0-0.3-0.1-0.3-0.2
				c-0.1-0.1-0.1-0.2,0-0.4c0-0.1-0.1-0.5-0.4-1.4c-0.4-1.2-0.6-2.3-0.8-3.4c-0.2-1.2-0.3-2.2-0.4-3.2l0-1.1l-0.5-0.2v-0.4
				c-0.2,0.3-0.4,0.5-0.5,0.5h-4.4c-0.2,0.3-0.3,0.4-0.4,0.4c-0.1,0-0.2-0.1-0.3-0.2L33.9,19c-0.1-0.1-0.2-0.1-0.3-0.1
				c-0.2,0-0.4,0.1-0.5,0.3c-0.1,0.2-0.2,0.4-0.4,0.5c-0.2,0.2-0.3,0.3-0.3,0.4c-0.1,0.1,0,0.3,0.1,0.5c0.2,0.2,0.2,0.4,0.2,0.5
				c0,0.1-0.2,0.1-0.5,0.3c-0.3,0.1-0.5,0.3-0.6,0.5c0,0.1-0.3,0.6-0.8,1.5c-0.4,0.8-0.7,1.3-0.7,1.4c0,0.1,0.1,0.2,0.3,0.5
				c0.2,0.2,0.2,0.4,0,0.6c-0.3,0.4-1.4,0.4-3.5,0.1c-0.8-0.1-1.4-0.3-1.8-0.5c-0.5-0.3-0.6-0.5-0.5-0.9c0.2-0.4,1.9-3.3,4.9-8.5
				c0.2-0.3,0.2-0.7,0-1.2c-0.2-0.5-0.4-0.8-0.7-0.9c-0.2,0-0.5,0-0.7,0c-0.2,0-0.3,0-0.4,0c-0.3-0.1-0.4-0.3-0.4-0.6
				c0-0.3,0-0.6,0-0.9c0-0.5,0-0.9,0-1.1h-0.2l-0.5-0.2v-0.2h-6l-0.1,0.4c-0.1,0.3-0.4,0.6-0.7,0.9c-0.4,0.3-0.7,0.5-0.9,0.8
				l-0.3,0.3L18,14.8h-0.9l-0.6,1.1h-2.3v-0.6h-1.4c-2,1.5-3.1,2.4-3.3,2.5C9.3,17.9,9.1,18,9,18c-0.1,0-0.2-0.1-0.3-0.2l0-0.4
				l-6.2,4l-0.1,0.5c-0.1,0.3-0.3,0.5-0.4,0.5c-0.2,0.1-0.4,0-0.7,0C1,22.3,0.7,22.2,0.6,22c-0.3-0.2-0.4-0.3-0.4-0.4
				C0.1,21.6,0,21.4,0,21.1V9.2c0-0.3,0.1-0.6,0.4-0.8C0.6,8.1,1,7.9,1.4,7.9h19.4c0.1,0,0.2,0.1,0.2,0.3c0,0.1,0.1,0.2,0.1,0.3h5.6
				V8.3l0.5-0.2h1V7.3l0.2-0.2C28.6,7,29,6.9,29.5,6.9h2.3l0.8-1.2l-0.1-0.4c-0.2-0.1-0.3-0.1-0.5-0.2c-0.3-0.2-0.5-0.5-0.5-0.9
				c0-0.3,0.1-0.5,0.3-0.7c0.2-0.2,0.5-0.4,0.8-0.4c0.3,0,0.6,0.1,0.9,0.4c0.2,0.2,0.3,0.5,0.3,0.7v2.3h0.5V5.9h1.4v0.8h11
				c0.2,0,0.3,0.1,0.4,0.2c0.1,0.1,0.2,0.2,0.2,0.4c0,0.1,0.2,0.1,0.5-0.2h1.2c0-0.1,0-0.1,0-0.2c0.1-0.1,0.2-0.2,0.3-0.2h17.4
				c0.2,0,0.3,0.1,0.4,0.2c0.1,0.1,0.1,0.1,0.2,0.2L68.2,6c0.6-0.8,0.9-1.3,1.1-1.4l0.2-0.2c0.2-0.1,0.6-0.2,1-0.2h1v5h1.2L72.8,9
				c0.1-0.1,0.2-0.2,0.3-0.2h4.7c0.2,0,0.4,0.1,0.5,0.2c0.2,0.2,0.3,0.4,0.3,0.8v0.4c0,0.3-0.1,0.5-0.3,0.6C78.2,11,78,11,77.8,11
				L73,11L73,11z"/>
		</g>
	</g>
</g>
<g id="guides">
</g>
<linearGradient id="SVGID_2_" gradientUnits="userSpaceOnUse" x1="-170.2581" y1="-317.2896" x2="-162.0955" y2="-317.2896" gradientTransform="matrix(6.6522 0 0 6.6522 1132.5936 2124.1409)">
	<stop  offset="2.300000e-007" style="stop-color:#EDF3CB"/>
	<stop  offset="1" style="stop-color:#F8D27E"/>
</linearGradient>
<path opacity="0.5" fill="url(#SVGID_2_)" enable-background="new    " d="M0,20.2c0,0,8.1-1.9,10.3-4.3c0,0-6.1,0.8-7.7-2
	c0,0,6.1,2.1,10.8-1.1c0,0-7.8,1.7-10.1-2.3c0,0,6.1,2.3,10.6,1.6c3-0.4,2.5-1,6.2-2c6.1-1,14.9,1.1,23.7,5.5c0,0-5.9-6.2-11.3-6.1
	c0,0,16.8-0.9,21.9,2.5c0,0-5.3-5.2-13-5.3h-5.5l-4,0.2l-4.7,1.7l-5-0.1h-1l-0.3-0.6L0.9,8L0,9.2V20.2z"/>
<path opacity="0.7" fill="#7A4621" d="M55.1,11.5c0,0-3.6,0.8-6.5,5.5c0,0,2.4,1.2,1.6,2.1c-0.8,0.9-4.5-0.4-10.9,7.1
	c0,0,2.6-1.4,6.1-1.7c3.5-0.3-0.9,2.5-1.9,3.1c0,0,6.6-3.9,8.4-3.5S45.3,30,41.7,32c0,0,11-4.2,12.3-4c1.3,0.2-0.7,2.6-3.7,4
	c0,0,6.3,0,10.5-2.2s5-2.5,5-1.3c0,0,3.7-2.7,2.6-3.7c-1.1-1,2.7-2.2,5.4-4.5c2.7-2.3,3.7-3.7,3.7-3.7s-6.3,3.2-8.2,3.4
	c-1.9,0.2,1.3-3.1,4.7-4.8c3.4-1.7,4.5-5,4.5-5s-4.7,0.2-10.7,3.7c-6,3.5-6.7,4.7-6.3,2.6c0.5-2.1,6-5.2,6-5.2s-7.7,0.2-11.3,3.4
	c-3.6,3.2-2.5-0.7-1.7-1.5C55.4,12.4,55.1,11.5,55.1,11.5z"/>
<g>
	<path fill="#FBF1C8" d="M45.8,25l-1.4,2.9h-2.9l6.6-13.1h3.2l1.9,13.1h-2.8L50.1,25H45.8z M49.2,17.7L47,22.5h2.8L49.2,17.7z"/>
	<path fill="#FBF1C8" d="M57.3,28c-0.8,0-1.4-0.2-1.8-0.7c-0.4-0.5-0.5-1.1-0.4-1.9l1.5-8.1c0.1-0.8,0.5-1.4,1-1.8
		c0.5-0.5,1.2-0.7,2-0.7h4.3c0.8,0,1.4,0.3,1.8,0.8c0.4,0.5,0.6,1.1,0.4,1.9l-0.4,2H63l0.3-1.7c0-0.2,0-0.3,0-0.4
		c-0.1-0.1-0.2-0.1-0.4-0.1H60c-0.5,0-0.8,0.2-0.9,0.7L57.9,25c0,0.2,0,0.3,0,0.4c0.1,0.1,0.2,0.1,0.4,0.1h2.9
		c0.5,0,0.8-0.2,0.8-0.7l0.3-1.5H65l-0.4,2.2c-0.1,0.8-0.5,1.4-1,1.8c-0.5,0.5-1.2,0.7-2,0.7H57.3z"/>
	<path fill="#FBF1C8" d="M77.4,14.8l-0.5,2.5h-6L70.4,20h4.9l-0.5,2.5H70l-0.5,3h6L75,27.9h-8.8l2.4-13.1H77.4z"/>
</g>
</svg>
