<?xml version="1.0" encoding="utf-8"?>
<!-- Generator: Adobe Illustrator 16.0.0, SVG Export Plug-In . SVG Version: 6.00 Build 0)  -->
<!DOCTYPE svg PUBLIC "-//W3C//DTD SVG 1.0//EN" "http://www.w3.org/TR/2001/REC-SVG-20010904/DTD/svg10.dtd">
<svg version="1.0" id="图层_1" xmlns="http://www.w3.org/2000/svg" xmlns:xlink="http://www.w3.org/1999/xlink" x="0px" y="0px"
	 width="96.5px" height="32px" viewBox="0 0 96.5 32" enable-background="new 0 0 96.5 32" xml:space="preserve">
<path opacity="0.7" fill="#2D52EA" enable-background="new    " d="M60.321,11.2c0,0-4.299,0.8-7.698,5.601
	c0,0,2.899,1.3,1.899,2.101c-1,0.802-5.399-0.398-13,7.199c0,0,3.101-1.397,7.299-1.699c4.201-0.301-1.1,2.5-2.299,3.199
	c0,0,7.799-3.897,10-3.601c2.199,0.3-7.801,6-12.101,8c0,0,13.101-4.3,14.601-4.1c1.5,0.198-0.801,2.6-4.399,4.1c0,0,7.5,0,12.5-2.3
	s6-2.602,6-1.3c0,0,4.397-2.802,3.101-3.802c-1.299-1,3.301-2.301,6.399-4.602c3.101-2.3,4.397-3.8,4.397-3.8
	s-7.498,3.301-9.799,3.399c-2.3,0.102,1.5-3.101,5.6-4.898c4.103-1.8,5.4-5.1,5.4-5.1s-5.601,0.2-12.8,3.8c-7.2,3.6-8,4.8-7.399,2.6
	c0.601-2.2,7.199-5.3,7.199-5.3s-9.199,0.2-13.4,3.5c-4.198,3.3-3-0.8-2.1-1.6C60.623,11.8,60.321,11.2,60.321,11.2z"/>
<path fill="#0001BF" d="M96.5,9.1v3.7L96.4,13H78.7v-0.7H79V12l-5.7-0.1v-0.2H70.9l-0.5,0.2H66.3l0.8,0.2v0.7L66.9,13H66v0.3h-0.7
	V12h0.2v-0.2L63,11.7l0.1,0.3L63,12.6c0,0.1-0.1,0.1-0.1,0.1c-0.104,0.1-0.104,0.1-0.2,0.1c-0.101,0-0.101-0.1-0.2-0.1l-0.2-0.1
	v-0.5l-0.1-0.2h-0.5v0.8c0,0.1-0.101,0.1-0.2,0.2V13h-0.3L61,13.5l-14.2,0.1l-0.3-0.2l-0.3-0.1l-0.7,0.3l-0.1-1h-0.7v0.6v0.1
	c0,0.1-0.1,0.1-0.1,0.2c-0.1,0-0.1,0.1-0.2,0.1h-0.1h-0.1c-0.1,0-0.2,0.1-0.2,0.2c-0.1,0.1-0.1,0.2-0.2,0.2l-0.1,0.2v3.3l0.2,0.1
	V17.9L43.4,18v1.2c0.1,0.899,0.2,1.8,0.3,2.6c0.2,0.8,0.5,1.8,0.8,3C44.7,25.4,44.8,25.9,45,26.4l0.2,0.199L39.4,28.2h-0.2V28
	c-0.2-0.6-0.4-1.3-0.6-2c-0.4-1.5-0.7-2.7-0.9-3.4c-0.2-0.699-0.3-1.5-0.3-2.3l-0.1-1L36.9,19.4L36.4,19.3h-3.6L31.6,19.4
	c-0.1,0-0.1,0-0.2,0c-0.2,0-0.3,0-0.4,0.1s-0.2,0.2-0.2,0.2L30,21.3l0.4,0.5L30.3,21.9C30.1,22,30,22,29.8,22.1
	c-0.1,0.104-0.2,0.104-0.3,0.2L29.4,22.4L27.7,25.6c-0.1,0.104-0.1,0.2,0,0.301c0,0.103,0.1,0.199,0.2,0.303
	c0.1,0.1,0.1,0.1,0.2,0.1l-0.2,0.303l-5.4-1.303l4.9-8.5c0.1-0.1,0.1-0.197,0.1-0.3c0.1-0.2,0.1-0.5,0.1-0.7
	c-0.1-0.3-0.2-0.5-0.3-0.7c-0.1-0.2-0.3-0.3-0.4-0.5c-0.2-0.1-0.3-0.2-0.5-0.2h-1.2v0.2h-0.3v-2.1h-1v-0.3H20L18.8,13h-3.6v0.3H12v2
	H9.8v0.8H8.7v-0.8l-3.6,2.3V15.7L0.5,18v0.8V18.9C0.3,19,0.3,19,0.2,19c-0.1,0-0.1,0-0.2-0.1V18.8L0.1,8.5h4.1
	c0.1,0,0.1,0.1,0.2,0.2C4.5,8.8,4.5,9,4.5,9.2L15,9.3c0.1,0,0.1,0.1,0.1,0.1c0.1,0.1,0.1,0.1,0.1,0.2h8.5V9.3h1V9H25v0.3h1V8.7h1
	l0.1,0.1l2.6-4.1l0.1-0.2c0.1-0.1,0.2-0.2,0.3-0.2c0.1-0.1,0.2-0.1,0.4-0.2c0.1,0,0.2,0,0.2,0l12.9,1.4L44,5.6
	c0.3,0.1,0.5,0.2,0.7,0.4c0.1,0.2,0.3,0.4,0.4,0.7c0.1,0.1,0.1,0.2,0.2,0.3l-0.1,2.5h0.3V8.4l0.8,0.2V8.2h0.3V8.1
	C46.6,8,46.7,8,46.7,8c0.1,0,0.1-0.1,0.2-0.1L61,8.1l0.2,0.3v0.4H61.6H61.7c0,0.2,0.1,0.2,0.1,0.3S61.9,9.5,61.9,10h0.5V8.5
	L64.8,5.2L65,5c0.2-0.1,0.3-0.2,0.5-0.2c0.4,0.1,0.7,0.2,0.8,0.4C66.4,5.3,66.4,5.4,66.4,5.5s0,0.1,0,0.1V10h4.1l0.5,0.2h2.3V10H79
	V9h17.3L96.5,9.1z M65.6,7.7c-0.1-0.1-0.1-0.1-0.199-0.2c0-0.1-0.101-0.2-0.197-0.5V6.6l-0.898-0.1l-1.4,2.2L63.1,8.9H65.7l0.2-0.2
	v-1H65.6z M63.1,10h2.5L65.7,9.6H63.1V10z M43.7,6.1H32.9c-0.1,0-0.2,0-0.3,0c-0.2,0.1-0.3,0.1-0.4,0.2c-0.1,0.1-0.2,0.2-0.3,0.3
	l-0.2,0.2l-0.6,1.5l0.2,0.2l12.3-0.1h0.2c0.1,0,0.2-0.1,0.3-0.2c0.3-0.2,0.5-0.5,0.5-1c0-0.4-0.1-0.7-0.4-0.9
	c-0.1-0.1-0.2-0.1-0.3-0.2H43.7z M3.7,13.4H3.5H0.7H0.5c-0.1,0.1-0.1,0.2-0.1,0.2s0.1,0.1,0.2,0.2l0.1,0.1h2.9
	c0.1,0,0.1-0.1,0.1-0.1c0.1-0.1,0.1-0.1,0.1-0.2S3.8,13.4,3.7,13.4z M0.4,8.8v0.4h3.7c0-0.1,0-0.2,0-0.3s0-0.1-0.1-0.2H3.8L0.4,8.8z
	 M35.9,16.2c-0.1-0.1-0.2-0.1-0.3-0.1h-1.5c-0.1,0.1-0.2,0.2-0.3,0.3c-0.2,0.3-0.3,0.6-0.3,0.9s0.1,0.601,0.3,0.8
	c0.1,0.104,0.2,0.2,0.3,0.301l-0.2,0.103c-0.2-0.103-0.3-0.2-0.5-0.397c-0.3-0.303-0.5-0.603-0.5-1c0-0.199,0-0.5,0.2-0.802l0.2-0.3
	c-0.2,0-0.5,0.1-0.7,0.2C32.1,16.5,31.9,17,32,17.6c0,0.301,0.2,0.604,0.5,0.9c0.2,0.2,0.3,0.3,0.5,0.3h3.5v-0.5
	c0.1-0.1,0.2-0.3,0.3-0.5c0.1-0.399,0.1-0.8-0.1-1.2C36.4,16.6,36.2,16.4,35.9,16.2z"/>
<g>
	<g>
		<defs>
			<path id="SVGID_1_" d="M96.5,9.1v3.7L96.4,13H78.7v-0.7H79V12l-5.7-0.1v-0.2H70.9l-0.5,0.2H66.3l0.8,0.2v0.7L66.9,13H66v0.3h-0.7
				V12h0.2v-0.2L63,11.7l0.1,0.3L63,12.6c0,0.1-0.1,0.1-0.1,0.1c-0.104,0.1-0.104,0.1-0.2,0.1c-0.101,0-0.101-0.1-0.2-0.1l-0.2-0.1
				v-0.5l-0.1-0.2h-0.5v0.8c0,0.1-0.101,0.1-0.2,0.2V13h-0.3L61,13.5l-14.2,0.1l-0.3-0.2l-0.3-0.1l-0.7,0.3l-0.1-1h-0.7v0.6v0.1
				c0,0.1-0.1,0.1-0.1,0.2c-0.1,0-0.1,0.1-0.2,0.1h-0.1h-0.1c-0.1,0-0.2,0.1-0.2,0.2c-0.1,0.1-0.1,0.2-0.2,0.2l-0.1,0.2v3.3l0.2,0.1
				V17.9L43.4,18v1.2c0.1,0.899,0.2,1.8,0.3,2.6c0.2,0.8,0.5,1.8,0.8,3C44.7,25.4,44.8,25.9,45,26.4l0.2,0.199L39.4,28.2h-0.2V28
				c-0.2-0.6-0.4-1.3-0.6-2c-0.4-1.5-0.7-2.7-0.9-3.4c-0.2-0.699-0.3-1.5-0.3-2.3l-0.1-1L36.9,19.4L36.4,19.3h-3.6L31.6,19.4
				c-0.1,0-0.1,0-0.2,0c-0.2,0-0.3,0-0.4,0.1s-0.2,0.2-0.2,0.2L30,21.3l0.4,0.5L30.3,21.9C30.1,22,30,22,29.8,22.1
				c-0.1,0.104-0.2,0.104-0.3,0.2L29.4,22.4L27.7,25.6c-0.1,0.104-0.1,0.2,0,0.301c0,0.103,0.1,0.199,0.2,0.303
				c0.1,0.1,0.1,0.1,0.2,0.1l-0.2,0.303l-5.4-1.303l4.9-8.5c0.1-0.1,0.1-0.197,0.1-0.3c0.1-0.2,0.1-0.5,0.1-0.7
				c-0.1-0.3-0.2-0.5-0.3-0.7c-0.1-0.2-0.3-0.3-0.4-0.5c-0.2-0.1-0.3-0.2-0.5-0.2h-1.2v0.2h-0.3v-2.1h-1v-0.3H20L18.8,13h-3.6v0.3
				H12v2H9.8v0.8H8.7v-0.8l-3.6,2.3V15.7L0.5,18v0.8V18.9C0.3,19,0.3,19,0.2,19c-0.1,0-0.1,0-0.2-0.1V18.8L0.1,8.5h4.1
				c0.1,0,0.1,0.1,0.2,0.2C4.5,8.8,4.5,9,4.5,9.2L15,9.3c0.1,0,0.1,0.1,0.1,0.1c0.1,0.1,0.1,0.1,0.1,0.2h8.5V9.3h1V9H25v0.3h1V8.7h1
				l0.1,0.1l2.6-4.1l0.1-0.2c0.1-0.1,0.2-0.2,0.3-0.2c0.1-0.1,0.2-0.1,0.4-0.2c0.1,0,0.2,0,0.2,0l12.9,1.4L44,5.6
				c0.3,0.1,0.5,0.2,0.7,0.4c0.1,0.2,0.3,0.4,0.4,0.7c0.1,0.1,0.1,0.2,0.2,0.3l-0.1,2.5h0.3V8.4l0.8,0.2V8.2h0.3V8.1
				C46.6,8,46.7,8,46.7,8c0.1,0,0.1-0.1,0.2-0.1L61,8.1l0.2,0.3v0.4H61.6H61.7c0,0.2,0.1,0.2,0.1,0.3S61.9,9.5,61.9,10h0.5V8.5
				L64.8,5.2L65,5c0.2-0.1,0.3-0.2,0.5-0.2c0.4,0.1,0.7,0.2,0.8,0.4C66.4,5.3,66.4,5.4,66.4,5.5s0,0.1,0,0.1V10h4.1l0.5,0.2h2.3V10
				H79V9h17.3L96.5,9.1z M65.6,7.7c-0.1-0.1-0.1-0.1-0.199-0.2c0-0.1-0.101-0.2-0.197-0.5V6.6l-0.898-0.1l-1.4,2.2L63.1,8.9H65.7
				l0.2-0.2v-1H65.6z M63.1,10h2.5L65.7,9.6H63.1V10z M43.7,6.1H32.9c-0.1,0-0.2,0-0.3,0c-0.2,0.1-0.3,0.1-0.4,0.2
				c-0.1,0.1-0.2,0.2-0.3,0.3l-0.2,0.2l-0.6,1.5l0.2,0.2l12.3-0.1h0.2c0.1,0,0.2-0.1,0.3-0.2c0.3-0.2,0.5-0.5,0.5-1
				c0-0.4-0.1-0.7-0.4-0.9c-0.1-0.1-0.2-0.1-0.3-0.2H43.7z M3.7,13.4H3.5H0.7H0.5c-0.1,0.1-0.1,0.2-0.1,0.2s0.1,0.1,0.2,0.2l0.1,0.1
				h2.9c0.1,0,0.1-0.1,0.1-0.1c0.1-0.1,0.1-0.1,0.1-0.2S3.8,13.4,3.7,13.4z M0.4,8.8v0.4h3.7c0-0.1,0-0.2,0-0.3s0-0.1-0.1-0.2H3.8
				L0.4,8.8z M35.9,16.2c-0.1-0.1-0.2-0.1-0.3-0.1h-1.5c-0.1,0.1-0.2,0.2-0.3,0.3c-0.2,0.3-0.3,0.6-0.3,0.9s0.1,0.601,0.3,0.8
				c0.1,0.104,0.2,0.2,0.3,0.301l-0.2,0.103c-0.2-0.103-0.3-0.2-0.5-0.397c-0.3-0.303-0.5-0.603-0.5-1c0-0.199,0-0.5,0.2-0.802
				l0.2-0.3c-0.2,0-0.5,0.1-0.7,0.2C32.1,16.5,31.9,17,32,17.6c0,0.301,0.2,0.604,0.5,0.9c0.2,0.2,0.3,0.3,0.5,0.3h3.5v-0.5
				c0.1-0.1,0.2-0.3,0.3-0.5c0.1-0.399,0.1-0.8-0.1-1.2C36.4,16.6,36.2,16.4,35.9,16.2z"/>
		</defs>
		<clipPath id="SVGID_2_">
			<use xlink:href="#SVGID_1_"  overflow="visible"/>
		</clipPath>
		<path clip-path="url(#SVGID_2_)" fill="#1A5AC1" d="M1.296,11.871L16.03,8.783l7.397,0.651l10.526-4.598l8.24,0.333l2.826,2.548
			l3.43,5.489l1.262,2.211c0,0,1.443-4.043,3.37-3.49c1.923,0.555,0.362,3.236,0.362,3.236l-2.188,10.205l2.901,0.313
			c0,0-0.821,1.838-2.146,2.834c-1.322,1-8.724,1.68-9.14,1.735c-0.414,0.056-3.181-0.39-3.362-0.444
			c-0.18-0.054-3.368-3.101-3.368-3.101l0.136-2.89l0.328-1.1l-10.595-4.365c0,0-6.676,4.043-7.278,2.326
			c-0.067-0.188-5.173,4.932-5.533,5.152c-0.361,0.221-5.894,1.107-5.894,1.107l-4.452-1.828L1.296,11.871z"/>
	</g>
	<g>
		<defs>
			<path id="SVGID_3_" d="M96.5,9.1v3.7L96.4,13H78.7v-0.7H79V12l-5.7-0.1v-0.2H70.9l-0.5,0.2H66.3l0.8,0.2v0.7L66.9,13H66v0.3h-0.7
				V12h0.2v-0.2L63,11.7l0.1,0.3L63,12.6c0,0.1-0.1,0.1-0.1,0.1c-0.104,0.1-0.104,0.1-0.2,0.1c-0.101,0-0.101-0.1-0.2-0.1l-0.2-0.1
				v-0.5l-0.1-0.2h-0.5v0.8c0,0.1-0.101,0.1-0.2,0.2V13h-0.3L61,13.5l-14.2,0.1l-0.3-0.2l-0.3-0.1l-0.7,0.3l-0.1-1h-0.7v0.6v0.1
				c0,0.1-0.1,0.1-0.1,0.2c-0.1,0-0.1,0.1-0.2,0.1h-0.1h-0.1c-0.1,0-0.2,0.1-0.2,0.2c-0.1,0.1-0.1,0.2-0.2,0.2l-0.1,0.2v3.3l0.2,0.1
				V17.9L43.4,18v1.2c0.1,0.899,0.2,1.8,0.3,2.6c0.2,0.8,0.5,1.8,0.8,3C44.7,25.4,44.8,25.9,45,26.4l0.2,0.199L39.4,28.2h-0.2V28
				c-0.2-0.6-0.4-1.3-0.6-2c-0.4-1.5-0.7-2.7-0.9-3.4c-0.2-0.699-0.3-1.5-0.3-2.3l-0.1-1L36.9,19.4L36.4,19.3h-3.6L31.6,19.4
				c-0.1,0-0.1,0-0.2,0c-0.2,0-0.3,0-0.4,0.1s-0.2,0.2-0.2,0.2L30,21.3l0.4,0.5L30.3,21.9C30.1,22,30,22,29.8,22.1
				c-0.1,0.104-0.2,0.104-0.3,0.2L29.4,22.4L27.7,25.6c-0.1,0.104-0.1,0.2,0,0.301c0,0.103,0.1,0.199,0.2,0.303
				c0.1,0.1,0.1,0.1,0.2,0.1l-0.2,0.303l-5.4-1.303l4.9-8.5c0.1-0.1,0.1-0.197,0.1-0.3c0.1-0.2,0.1-0.5,0.1-0.7
				c-0.1-0.3-0.2-0.5-0.3-0.7c-0.1-0.2-0.3-0.3-0.4-0.5c-0.2-0.1-0.3-0.2-0.5-0.2h-1.2v0.2h-0.3v-2.1h-1v-0.3H20L18.8,13h-3.6v0.3
				H12v2H9.8v0.8H8.7v-0.8l-3.6,2.3V15.7L0.5,18v0.8V18.9C0.3,19,0.3,19,0.2,19c-0.1,0-0.1,0-0.2-0.1V18.8L0.1,8.5h4.1
				c0.1,0,0.1,0.1,0.2,0.2C4.5,8.8,4.5,9,4.5,9.2L15,9.3c0.1,0,0.1,0.1,0.1,0.1c0.1,0.1,0.1,0.1,0.1,0.2h8.5V9.3h1V9H25v0.3h1V8.7h1
				l0.1,0.1l2.6-4.1l0.1-0.2c0.1-0.1,0.2-0.2,0.3-0.2c0.1-0.1,0.2-0.1,0.4-0.2c0.1,0,0.2,0,0.2,0l12.9,1.4L44,5.6
				c0.3,0.1,0.5,0.2,0.7,0.4c0.1,0.2,0.3,0.4,0.4,0.7c0.1,0.1,0.1,0.2,0.2,0.3l-0.1,2.5h0.3V8.4l0.8,0.2V8.2h0.3V8.1
				C46.6,8,46.7,8,46.7,8c0.1,0,0.1-0.1,0.2-0.1L61,8.1l0.2,0.3v0.4H61.6H61.7c0,0.2,0.1,0.2,0.1,0.3S61.9,9.5,61.9,10h0.5V8.5
				L64.8,5.2L65,5c0.2-0.1,0.3-0.2,0.5-0.2c0.4,0.1,0.7,0.2,0.8,0.4C66.4,5.3,66.4,5.4,66.4,5.5s0,0.1,0,0.1V10h4.1l0.5,0.2h2.3V10
				H79V9h17.3L96.5,9.1z M65.6,7.7c-0.1-0.1-0.1-0.1-0.199-0.2c0-0.1-0.101-0.2-0.197-0.5V6.6l-0.898-0.1l-1.4,2.2L63.1,8.9H65.7
				l0.2-0.2v-1H65.6z M63.1,10h2.5L65.7,9.6H63.1V10z M43.7,6.1H32.9c-0.1,0-0.2,0-0.3,0c-0.2,0.1-0.3,0.1-0.4,0.2
				c-0.1,0.1-0.2,0.2-0.3,0.3l-0.2,0.2l-0.6,1.5l0.2,0.2l12.3-0.1h0.2c0.1,0,0.2-0.1,0.3-0.2c0.3-0.2,0.5-0.5,0.5-1
				c0-0.4-0.1-0.7-0.4-0.9c-0.1-0.1-0.2-0.1-0.3-0.2H43.7z M3.7,13.4H3.5H0.7H0.5c-0.1,0.1-0.1,0.2-0.1,0.2s0.1,0.1,0.2,0.2l0.1,0.1
				h2.9c0.1,0,0.1-0.1,0.1-0.1c0.1-0.1,0.1-0.1,0.1-0.2S3.8,13.4,3.7,13.4z M0.4,8.8v0.4h3.7c0-0.1,0-0.2,0-0.3s0-0.1-0.1-0.2H3.8
				L0.4,8.8z M35.9,16.2c-0.1-0.1-0.2-0.1-0.3-0.1h-1.5c-0.1,0.1-0.2,0.2-0.3,0.3c-0.2,0.3-0.3,0.6-0.3,0.9s0.1,0.601,0.3,0.8
				c0.1,0.104,0.2,0.2,0.3,0.301l-0.2,0.103c-0.2-0.103-0.3-0.2-0.5-0.397c-0.3-0.303-0.5-0.603-0.5-1c0-0.199,0-0.5,0.2-0.802
				l0.2-0.3c-0.2,0-0.5,0.1-0.7,0.2C32.1,16.5,31.9,17,32,17.6c0,0.301,0.2,0.604,0.5,0.9c0.2,0.2,0.3,0.3,0.5,0.3h3.5v-0.5
				c0.1-0.1,0.2-0.3,0.3-0.5c0.1-0.399,0.1-0.8-0.1-1.2C36.4,16.6,36.2,16.4,35.9,16.2z"/>
		</defs>
		<clipPath id="SVGID_4_">
			<use xlink:href="#SVGID_3_"  overflow="visible"/>
		</clipPath>
		
			<path clip-path="url(#SVGID_4_)" fill="none" stroke="#FFFFFF" stroke-width="0.5" stroke-linecap="round" stroke-linejoin="round" stroke-miterlimit="10" d="
			M61.918,13.629c0,0,2.273-5.074,6.721-5.01c3.394,0.049,5.605,1.714,6.133,3.655c0,0,1.117-2.326,3.965-1.924
			c1.476,0.208,3.666,2.813,3.666,2.813s5.18-3.007,6.687-0.533c0,0-0.478-2.038-6.661-3.154c-2.723-0.491-1.48-1.948-2.976-2.087
			c-1.791-0.166-1.241,0.351-4.942,3.881"/>
	</g>
	<g>
		<defs>
			<path id="SVGID_5_" d="M96.5,9.1v3.7L96.4,13H78.7v-0.7H79V12l-5.7-0.1v-0.2H70.9l-0.5,0.2H66.3l0.8,0.2v0.7L66.9,13H66v0.3h-0.7
				V12h0.2v-0.2L63,11.7l0.1,0.3L63,12.6c0,0.1-0.1,0.1-0.1,0.1c-0.104,0.1-0.104,0.1-0.2,0.1c-0.101,0-0.101-0.1-0.2-0.1l-0.2-0.1
				v-0.5l-0.1-0.2h-0.5v0.8c0,0.1-0.101,0.1-0.2,0.2V13h-0.3L61,13.5l-14.2,0.1l-0.3-0.2l-0.3-0.1l-0.7,0.3l-0.1-1h-0.7v0.6v0.1
				c0,0.1-0.1,0.1-0.1,0.2c-0.1,0-0.1,0.1-0.2,0.1h-0.1h-0.1c-0.1,0-0.2,0.1-0.2,0.2c-0.1,0.1-0.1,0.2-0.2,0.2l-0.1,0.2v3.3l0.2,0.1
				V17.9L43.4,18v1.2c0.1,0.899,0.2,1.8,0.3,2.6c0.2,0.8,0.5,1.8,0.8,3C44.7,25.4,44.8,25.9,45,26.4l0.2,0.199L39.4,28.2h-0.2V28
				c-0.2-0.6-0.4-1.3-0.6-2c-0.4-1.5-0.7-2.7-0.9-3.4c-0.2-0.699-0.3-1.5-0.3-2.3l-0.1-1L36.9,19.4L36.4,19.3h-3.6L31.6,19.4
				c-0.1,0-0.1,0-0.2,0c-0.2,0-0.3,0-0.4,0.1s-0.2,0.2-0.2,0.2L30,21.3l0.4,0.5L30.3,21.9C30.1,22,30,22,29.8,22.1
				c-0.1,0.104-0.2,0.104-0.3,0.2L29.4,22.4L27.7,25.6c-0.1,0.104-0.1,0.2,0,0.301c0,0.103,0.1,0.199,0.2,0.303
				c0.1,0.1,0.1,0.1,0.2,0.1l-0.2,0.303l-5.4-1.303l4.9-8.5c0.1-0.1,0.1-0.197,0.1-0.3c0.1-0.2,0.1-0.5,0.1-0.7
				c-0.1-0.3-0.2-0.5-0.3-0.7c-0.1-0.2-0.3-0.3-0.4-0.5c-0.2-0.1-0.3-0.2-0.5-0.2h-1.2v0.2h-0.3v-2.1h-1v-0.3H20L18.8,13h-3.6v0.3
				H12v2H9.8v0.8H8.7v-0.8l-3.6,2.3V15.7L0.5,18v0.8V18.9C0.3,19,0.3,19,0.2,19c-0.1,0-0.1,0-0.2-0.1V18.8L0.1,8.5h4.1
				c0.1,0,0.1,0.1,0.2,0.2C4.5,8.8,4.5,9,4.5,9.2L15,9.3c0.1,0,0.1,0.1,0.1,0.1c0.1,0.1,0.1,0.1,0.1,0.2h8.5V9.3h1V9H25v0.3h1V8.7h1
				l0.1,0.1l2.6-4.1l0.1-0.2c0.1-0.1,0.2-0.2,0.3-0.2c0.1-0.1,0.2-0.1,0.4-0.2c0.1,0,0.2,0,0.2,0l12.9,1.4L44,5.6
				c0.3,0.1,0.5,0.2,0.7,0.4c0.1,0.2,0.3,0.4,0.4,0.7c0.1,0.1,0.1,0.2,0.2,0.3l-0.1,2.5h0.3V8.4l0.8,0.2V8.2h0.3V8.1
				C46.6,8,46.7,8,46.7,8c0.1,0,0.1-0.1,0.2-0.1L61,8.1l0.2,0.3v0.4H61.6H61.7c0,0.2,0.1,0.2,0.1,0.3S61.9,9.5,61.9,10h0.5V8.5
				L64.8,5.2L65,5c0.2-0.1,0.3-0.2,0.5-0.2c0.4,0.1,0.7,0.2,0.8,0.4C66.4,5.3,66.4,5.4,66.4,5.5s0,0.1,0,0.1V10h4.1l0.5,0.2h2.3V10
				H79V9h17.3L96.5,9.1z M65.6,7.7c-0.1-0.1-0.1-0.1-0.199-0.2c0-0.1-0.101-0.2-0.197-0.5V6.6l-0.898-0.1l-1.4,2.2L63.1,8.9H65.7
				l0.2-0.2v-1H65.6z M63.1,10h2.5L65.7,9.6H63.1V10z M43.7,6.1H32.9c-0.1,0-0.2,0-0.3,0c-0.2,0.1-0.3,0.1-0.4,0.2
				c-0.1,0.1-0.2,0.2-0.3,0.3l-0.2,0.2l-0.6,1.5l0.2,0.2l12.3-0.1h0.2c0.1,0,0.2-0.1,0.3-0.2c0.3-0.2,0.5-0.5,0.5-1
				c0-0.4-0.1-0.7-0.4-0.9c-0.1-0.1-0.2-0.1-0.3-0.2H43.7z M3.7,13.4H3.5H0.7H0.5c-0.1,0.1-0.1,0.2-0.1,0.2s0.1,0.1,0.2,0.2l0.1,0.1
				h2.9c0.1,0,0.1-0.1,0.1-0.1c0.1-0.1,0.1-0.1,0.1-0.2S3.8,13.4,3.7,13.4z M0.4,8.8v0.4h3.7c0-0.1,0-0.2,0-0.3s0-0.1-0.1-0.2H3.8
				L0.4,8.8z M35.9,16.2c-0.1-0.1-0.2-0.1-0.3-0.1h-1.5c-0.1,0.1-0.2,0.2-0.3,0.3c-0.2,0.3-0.3,0.6-0.3,0.9s0.1,0.601,0.3,0.8
				c0.1,0.104,0.2,0.2,0.3,0.301l-0.2,0.103c-0.2-0.103-0.3-0.2-0.5-0.397c-0.3-0.303-0.5-0.603-0.5-1c0-0.199,0-0.5,0.2-0.802
				l0.2-0.3c-0.2,0-0.5,0.1-0.7,0.2C32.1,16.5,31.9,17,32,17.6c0,0.301,0.2,0.604,0.5,0.9c0.2,0.2,0.3,0.3,0.5,0.3h3.5v-0.5
				c0.1-0.1,0.2-0.3,0.3-0.5c0.1-0.399,0.1-0.8-0.1-1.2C36.4,16.6,36.2,16.4,35.9,16.2z"/>
		</defs>
		<clipPath id="SVGID_6_">
			<use xlink:href="#SVGID_5_"  overflow="visible"/>
		</clipPath>
		
			<linearGradient id="SVGID_7_" gradientUnits="userSpaceOnUse" x1="577.0234" y1="823.627" x2="616.499" y2="823.627" gradientTransform="matrix(1 0 0 1 -563.1992 -808.9199)">
			<stop  offset="0" style="stop-color:#A9D0FF"/>
			<stop  offset="0.1986" style="stop-color:#A7CBFF"/>
			<stop  offset="0.4411" style="stop-color:#A1BCFF"/>
			<stop  offset="0.7063" style="stop-color:#97A3FF"/>
			<stop  offset="0.9861" style="stop-color:#8981FF"/>
			<stop  offset="1" style="stop-color:#887FFF"/>
		</linearGradient>
		<path clip-path="url(#SVGID_6_)" fill="url(#SVGID_7_)" d="M15.126,16.334c0,0-0.053,1.955,1.119,3.201
			c1.174,1.246,2.437-0.666,2.437-0.666l3.879-3.322c0,0,2.617,0.414,2.978,0.748c0.361,0.33,6.314-1.58,6.314-1.58
			s-1.172,1.662-0.451,3.156c0.722,1.498,3.789,1.414,5.052,0.834c1.263-0.584,1.804-2.162,4.33-0.916
			c2.526,1.246,5.594,2.908,5.594,2.908s1.973,0.07,2.151-0.676c0.182-0.748,1.217,0.811,2.39,0.063
			c1.175-0.748,1.843-2.338,2.293-3c0.449-0.666-0.989-5.399-0.989-5.399s1.469,3.134,0.516,1.44
			c-1.229-2.187-4.266-4.707-6.968,0.084c-1.809,3.209-3.075,0.625-3.075,0.625s-4.078,1.539-6.243,0.457
			c-2.165-1.08-4.056-2.566-5.951-2.65c-1.895-0.083-4.6-0.499-5.322,0.083c-0.722,0.581-1.214-2.528-2.026-2.954
			c-0.812-0.426-9.026,1.702-9.297,3.031C13.583,13.129,15.126,16.334,15.126,16.334z"/>
	</g>
	<g>
		<defs>
			<path id="SVGID_8_" d="M96.5,9.1v3.7L96.4,13H78.7v-0.7H79V12l-5.7-0.1v-0.2H70.9l-0.5,0.2H66.3l0.8,0.2v0.7L66.9,13H66v0.3h-0.7
				V12h0.2v-0.2L63,11.7l0.1,0.3L63,12.6c0,0.1-0.1,0.1-0.1,0.1c-0.104,0.1-0.104,0.1-0.2,0.1c-0.101,0-0.101-0.1-0.2-0.1l-0.2-0.1
				v-0.5l-0.1-0.2h-0.5v0.8c0,0.1-0.101,0.1-0.2,0.2V13h-0.3L61,13.5l-14.2,0.1l-0.3-0.2l-0.3-0.1l-0.7,0.3l-0.1-1h-0.7v0.6v0.1
				c0,0.1-0.1,0.1-0.1,0.2c-0.1,0-0.1,0.1-0.2,0.1h-0.1h-0.1c-0.1,0-0.2,0.1-0.2,0.2c-0.1,0.1-0.1,0.2-0.2,0.2l-0.1,0.2v3.3l0.2,0.1
				V17.9L43.4,18v1.2c0.1,0.899,0.2,1.8,0.3,2.6c0.2,0.8,0.5,1.8,0.8,3C44.7,25.4,44.8,25.9,45,26.4l0.2,0.199L39.4,28.2h-0.2V28
				c-0.2-0.6-0.4-1.3-0.6-2c-0.4-1.5-0.7-2.7-0.9-3.4c-0.2-0.699-0.3-1.5-0.3-2.3l-0.1-1L36.9,19.4L36.4,19.3h-3.6L31.6,19.4
				c-0.1,0-0.1,0-0.2,0c-0.2,0-0.3,0-0.4,0.1s-0.2,0.2-0.2,0.2L30,21.3l0.4,0.5L30.3,21.9C30.1,22,30,22,29.8,22.1
				c-0.1,0.104-0.2,0.104-0.3,0.2L29.4,22.4L27.7,25.6c-0.1,0.104-0.1,0.2,0,0.301c0,0.103,0.1,0.199,0.2,0.303
				c0.1,0.1,0.1,0.1,0.2,0.1l-0.2,0.303l-5.4-1.303l4.9-8.5c0.1-0.1,0.1-0.197,0.1-0.3c0.1-0.2,0.1-0.5,0.1-0.7
				c-0.1-0.3-0.2-0.5-0.3-0.7c-0.1-0.2-0.3-0.3-0.4-0.5c-0.2-0.1-0.3-0.2-0.5-0.2h-1.2v0.2h-0.3v-2.1h-1v-0.3H20L18.8,13h-3.6v0.3
				H12v2H9.8v0.8H8.7v-0.8l-3.6,2.3V15.7L0.5,18v0.8V18.9C0.3,19,0.3,19,0.2,19c-0.1,0-0.1,0-0.2-0.1V18.8L0.1,8.5h4.1
				c0.1,0,0.1,0.1,0.2,0.2C4.5,8.8,4.5,9,4.5,9.2L15,9.3c0.1,0,0.1,0.1,0.1,0.1c0.1,0.1,0.1,0.1,0.1,0.2h8.5V9.3h1V9H25v0.3h1V8.7h1
				l0.1,0.1l2.6-4.1l0.1-0.2c0.1-0.1,0.2-0.2,0.3-0.2c0.1-0.1,0.2-0.1,0.4-0.2c0.1,0,0.2,0,0.2,0l12.9,1.4L44,5.6
				c0.3,0.1,0.5,0.2,0.7,0.4c0.1,0.2,0.3,0.4,0.4,0.7c0.1,0.1,0.1,0.2,0.2,0.3l-0.1,2.5h0.3V8.4l0.8,0.2V8.2h0.3V8.1
				C46.6,8,46.7,8,46.7,8c0.1,0,0.1-0.1,0.2-0.1L61,8.1l0.2,0.3v0.4H61.6H61.7c0,0.2,0.1,0.2,0.1,0.3S61.9,9.5,61.9,10h0.5V8.5
				L64.8,5.2L65,5c0.2-0.1,0.3-0.2,0.5-0.2c0.4,0.1,0.7,0.2,0.8,0.4C66.4,5.3,66.4,5.4,66.4,5.5s0,0.1,0,0.1V10h4.1l0.5,0.2h2.3V10
				H79V9h17.3L96.5,9.1z M65.6,7.7c-0.1-0.1-0.1-0.1-0.199-0.2c0-0.1-0.101-0.2-0.197-0.5V6.6l-0.898-0.1l-1.4,2.2L63.1,8.9H65.7
				l0.2-0.2v-1H65.6z M63.1,10h2.5L65.7,9.6H63.1V10z M43.7,6.1H32.9c-0.1,0-0.2,0-0.3,0c-0.2,0.1-0.3,0.1-0.4,0.2
				c-0.1,0.1-0.2,0.2-0.3,0.3l-0.2,0.2l-0.6,1.5l0.2,0.2l12.3-0.1h0.2c0.1,0,0.2-0.1,0.3-0.2c0.3-0.2,0.5-0.5,0.5-1
				c0-0.4-0.1-0.7-0.4-0.9c-0.1-0.1-0.2-0.1-0.3-0.2H43.7z M3.7,13.4H3.5H0.7H0.5c-0.1,0.1-0.1,0.2-0.1,0.2s0.1,0.1,0.2,0.2l0.1,0.1
				h2.9c0.1,0,0.1-0.1,0.1-0.1c0.1-0.1,0.1-0.1,0.1-0.2S3.8,13.4,3.7,13.4z M0.4,8.8v0.4h3.7c0-0.1,0-0.2,0-0.3s0-0.1-0.1-0.2H3.8
				L0.4,8.8z M35.9,16.2c-0.1-0.1-0.2-0.1-0.3-0.1h-1.5c-0.1,0.1-0.2,0.2-0.3,0.3c-0.2,0.3-0.3,0.6-0.3,0.9s0.1,0.601,0.3,0.8
				c0.1,0.104,0.2,0.2,0.3,0.301l-0.2,0.103c-0.2-0.103-0.3-0.2-0.5-0.397c-0.3-0.303-0.5-0.603-0.5-1c0-0.199,0-0.5,0.2-0.802
				l0.2-0.3c-0.2,0-0.5,0.1-0.7,0.2C32.1,16.5,31.9,17,32,17.6c0,0.301,0.2,0.604,0.5,0.9c0.2,0.2,0.3,0.3,0.5,0.3h3.5v-0.5
				c0.1-0.1,0.2-0.3,0.3-0.5c0.1-0.399,0.1-0.8-0.1-1.2C36.4,16.6,36.2,16.4,35.9,16.2z"/>
		</defs>
		<clipPath id="SVGID_9_">
			<use xlink:href="#SVGID_8_"  overflow="visible"/>
		</clipPath>
		
			<path clip-path="url(#SVGID_9_)" fill="none" stroke="#FFFFFF" stroke-width="0.75" stroke-linecap="round" stroke-linejoin="round" stroke-miterlimit="10" d="
			M40.975,17.428c0,0,1.65-0.476,2.442-3.863c0.4-1.717,1.827-5.359,4.95-5.303c3.074,0.056,4.715,3.243,4.951,5.511
			c0,0,1.445-2.681,5.242-2.393c1.371,0.104,3.944,1.71,5.746,3.288c0,0-0.951-2.688-2.44-4.511
			c-0.552-0.675-1.402-2.501-4.612-2.515c-1.941-0.009-3.781,2.971-4.9,6.186"/>
	</g>
	<g>
		<defs>
			<path id="SVGID_10_" d="M96.5,9.1v3.7L96.4,13H78.7v-0.7H79V12l-5.7-0.1v-0.2H70.9l-0.5,0.2H66.3l0.8,0.2v0.7L66.9,13H66v0.3
				h-0.7V12h0.2v-0.2L63,11.7l0.1,0.3L63,12.6c0,0.1-0.1,0.1-0.1,0.1c-0.104,0.1-0.104,0.1-0.2,0.1c-0.101,0-0.101-0.1-0.2-0.1
				l-0.2-0.1v-0.5l-0.1-0.2h-0.5v0.8c0,0.1-0.101,0.1-0.2,0.2V13h-0.3L61,13.5l-14.2,0.1l-0.3-0.2l-0.3-0.1l-0.7,0.3l-0.1-1h-0.7
				v0.6v0.1c0,0.1-0.1,0.1-0.1,0.2c-0.1,0-0.1,0.1-0.2,0.1h-0.1h-0.1c-0.1,0-0.2,0.1-0.2,0.2c-0.1,0.1-0.1,0.2-0.2,0.2l-0.1,0.2v3.3
				l0.2,0.1V17.9L43.4,18v1.2c0.1,0.899,0.2,1.8,0.3,2.6c0.2,0.8,0.5,1.8,0.8,3C44.7,25.4,44.8,25.9,45,26.4l0.2,0.199L39.4,28.2
				h-0.2V28c-0.2-0.6-0.4-1.3-0.6-2c-0.4-1.5-0.7-2.7-0.9-3.4c-0.2-0.699-0.3-1.5-0.3-2.3l-0.1-1L36.9,19.4L36.4,19.3h-3.6
				L31.6,19.4c-0.1,0-0.1,0-0.2,0c-0.2,0-0.3,0-0.4,0.1s-0.2,0.2-0.2,0.2L30,21.3l0.4,0.5L30.3,21.9C30.1,22,30,22,29.8,22.1
				c-0.1,0.104-0.2,0.104-0.3,0.2L29.4,22.4L27.7,25.6c-0.1,0.104-0.1,0.2,0,0.301c0,0.103,0.1,0.199,0.2,0.303
				c0.1,0.1,0.1,0.1,0.2,0.1l-0.2,0.303l-5.4-1.303l4.9-8.5c0.1-0.1,0.1-0.197,0.1-0.3c0.1-0.2,0.1-0.5,0.1-0.7
				c-0.1-0.3-0.2-0.5-0.3-0.7c-0.1-0.2-0.3-0.3-0.4-0.5c-0.2-0.1-0.3-0.2-0.5-0.2h-1.2v0.2h-0.3v-2.1h-1v-0.3H20L18.8,13h-3.6v0.3
				H12v2H9.8v0.8H8.7v-0.8l-3.6,2.3V15.7L0.5,18v0.8V18.9C0.3,19,0.3,19,0.2,19c-0.1,0-0.1,0-0.2-0.1V18.8L0.1,8.5h4.1
				c0.1,0,0.1,0.1,0.2,0.2C4.5,8.8,4.5,9,4.5,9.2L15,9.3c0.1,0,0.1,0.1,0.1,0.1c0.1,0.1,0.1,0.1,0.1,0.2h8.5V9.3h1V9H25v0.3h1V8.7h1
				l0.1,0.1l2.6-4.1l0.1-0.2c0.1-0.1,0.2-0.2,0.3-0.2c0.1-0.1,0.2-0.1,0.4-0.2c0.1,0,0.2,0,0.2,0l12.9,1.4L44,5.6
				c0.3,0.1,0.5,0.2,0.7,0.4c0.1,0.2,0.3,0.4,0.4,0.7c0.1,0.1,0.1,0.2,0.2,0.3l-0.1,2.5h0.3V8.4l0.8,0.2V8.2h0.3V8.1
				C46.6,8,46.7,8,46.7,8c0.1,0,0.1-0.1,0.2-0.1L61,8.1l0.2,0.3v0.4H61.6H61.7c0,0.2,0.1,0.2,0.1,0.3S61.9,9.5,61.9,10h0.5V8.5
				L64.8,5.2L65,5c0.2-0.1,0.3-0.2,0.5-0.2c0.4,0.1,0.7,0.2,0.8,0.4C66.4,5.3,66.4,5.4,66.4,5.5s0,0.1,0,0.1V10h4.1l0.5,0.2h2.3V10
				H79V9h17.3L96.5,9.1z M65.6,7.7c-0.1-0.1-0.1-0.1-0.199-0.2c0-0.1-0.101-0.2-0.197-0.5V6.6l-0.898-0.1l-1.4,2.2L63.1,8.9H65.7
				l0.2-0.2v-1H65.6z M63.1,10h2.5L65.7,9.6H63.1V10z M43.7,6.1H32.9c-0.1,0-0.2,0-0.3,0c-0.2,0.1-0.3,0.1-0.4,0.2
				c-0.1,0.1-0.2,0.2-0.3,0.3l-0.2,0.2l-0.6,1.5l0.2,0.2l12.3-0.1h0.2c0.1,0,0.2-0.1,0.3-0.2c0.3-0.2,0.5-0.5,0.5-1
				c0-0.4-0.1-0.7-0.4-0.9c-0.1-0.1-0.2-0.1-0.3-0.2H43.7z M3.7,13.4H3.5H0.7H0.5c-0.1,0.1-0.1,0.2-0.1,0.2s0.1,0.1,0.2,0.2l0.1,0.1
				h2.9c0.1,0,0.1-0.1,0.1-0.1c0.1-0.1,0.1-0.1,0.1-0.2S3.8,13.4,3.7,13.4z M0.4,8.8v0.4h3.7c0-0.1,0-0.2,0-0.3s0-0.1-0.1-0.2H3.8
				L0.4,8.8z M35.9,16.2c-0.1-0.1-0.2-0.1-0.3-0.1h-1.5c-0.1,0.1-0.2,0.2-0.3,0.3c-0.2,0.3-0.3,0.6-0.3,0.9s0.1,0.601,0.3,0.8
				c0.1,0.104,0.2,0.2,0.3,0.301l-0.2,0.103c-0.2-0.103-0.3-0.2-0.5-0.397c-0.3-0.303-0.5-0.603-0.5-1c0-0.199,0-0.5,0.2-0.802
				l0.2-0.3c-0.2,0-0.5,0.1-0.7,0.2C32.1,16.5,31.9,17,32,17.6c0,0.301,0.2,0.604,0.5,0.9c0.2,0.2,0.3,0.3,0.5,0.3h3.5v-0.5
				c0.1-0.1,0.2-0.3,0.3-0.5c0.1-0.399,0.1-0.8-0.1-1.2C36.4,16.6,36.2,16.4,35.9,16.2z"/>
		</defs>
		<clipPath id="SVGID_11_">
			<use xlink:href="#SVGID_10_"  overflow="visible"/>
		</clipPath>
		<path clip-path="url(#SVGID_11_)" fill="#A2CAFF" d="M45.444,16.775c0.72,1.057-1.594,4.437-1.594,4.437s0.143,2.521-2.322,2.767
			c-4.948,0.485-5.191-6.239-5.191-6.239s2.051,3.081,4.194,2.17C42.605,19.027,44.438,15.297,45.444,16.775z"/>
	</g>
	<g>
		<defs>
			<path id="SVGID_12_" d="M96.5,9.1v3.7L96.4,13H78.7v-0.7H79V12l-5.7-0.1v-0.2H70.9l-0.5,0.2H66.3l0.8,0.2v0.7L66.9,13H66v0.3
				h-0.7V12h0.2v-0.2L63,11.7l0.1,0.3L63,12.6c0,0.1-0.1,0.1-0.1,0.1c-0.104,0.1-0.104,0.1-0.2,0.1c-0.101,0-0.101-0.1-0.2-0.1
				l-0.2-0.1v-0.5l-0.1-0.2h-0.5v0.8c0,0.1-0.101,0.1-0.2,0.2V13h-0.3L61,13.5l-14.2,0.1l-0.3-0.2l-0.3-0.1l-0.7,0.3l-0.1-1h-0.7
				v0.6v0.1c0,0.1-0.1,0.1-0.1,0.2c-0.1,0-0.1,0.1-0.2,0.1h-0.1h-0.1c-0.1,0-0.2,0.1-0.2,0.2c-0.1,0.1-0.1,0.2-0.2,0.2l-0.1,0.2v3.3
				l0.2,0.1V17.9L43.4,18v1.2c0.1,0.899,0.2,1.8,0.3,2.6c0.2,0.8,0.5,1.8,0.8,3C44.7,25.4,44.8,25.9,45,26.4l0.2,0.199L39.4,28.2
				h-0.2V28c-0.2-0.6-0.4-1.3-0.6-2c-0.4-1.5-0.7-2.7-0.9-3.4c-0.2-0.699-0.3-1.5-0.3-2.3l-0.1-1L36.9,19.4L36.4,19.3h-3.6
				L31.6,19.4c-0.1,0-0.1,0-0.2,0c-0.2,0-0.3,0-0.4,0.1s-0.2,0.2-0.2,0.2L30,21.3l0.4,0.5L30.3,21.9C30.1,22,30,22,29.8,22.1
				c-0.1,0.104-0.2,0.104-0.3,0.2L29.4,22.4L27.7,25.6c-0.1,0.104-0.1,0.2,0,0.301c0,0.103,0.1,0.199,0.2,0.303
				c0.1,0.1,0.1,0.1,0.2,0.1l-0.2,0.303l-5.4-1.303l4.9-8.5c0.1-0.1,0.1-0.197,0.1-0.3c0.1-0.2,0.1-0.5,0.1-0.7
				c-0.1-0.3-0.2-0.5-0.3-0.7c-0.1-0.2-0.3-0.3-0.4-0.5c-0.2-0.1-0.3-0.2-0.5-0.2h-1.2v0.2h-0.3v-2.1h-1v-0.3H20L18.8,13h-3.6v0.3
				H12v2H9.8v0.8H8.7v-0.8l-3.6,2.3V15.7L0.5,18v0.8V18.9C0.3,19,0.3,19,0.2,19c-0.1,0-0.1,0-0.2-0.1V18.8L0.1,8.5h4.1
				c0.1,0,0.1,0.1,0.2,0.2C4.5,8.8,4.5,9,4.5,9.2L15,9.3c0.1,0,0.1,0.1,0.1,0.1c0.1,0.1,0.1,0.1,0.1,0.2h8.5V9.3h1V9H25v0.3h1V8.7h1
				l0.1,0.1l2.6-4.1l0.1-0.2c0.1-0.1,0.2-0.2,0.3-0.2c0.1-0.1,0.2-0.1,0.4-0.2c0.1,0,0.2,0,0.2,0l12.9,1.4L44,5.6
				c0.3,0.1,0.5,0.2,0.7,0.4c0.1,0.2,0.3,0.4,0.4,0.7c0.1,0.1,0.1,0.2,0.2,0.3l-0.1,2.5h0.3V8.4l0.8,0.2V8.2h0.3V8.1
				C46.6,8,46.7,8,46.7,8c0.1,0,0.1-0.1,0.2-0.1L61,8.1l0.2,0.3v0.4H61.6H61.7c0,0.2,0.1,0.2,0.1,0.3S61.9,9.5,61.9,10h0.5V8.5
				L64.8,5.2L65,5c0.2-0.1,0.3-0.2,0.5-0.2c0.4,0.1,0.7,0.2,0.8,0.4C66.4,5.3,66.4,5.4,66.4,5.5s0,0.1,0,0.1V10h4.1l0.5,0.2h2.3V10
				H79V9h17.3L96.5,9.1z M65.6,7.7c-0.1-0.1-0.1-0.1-0.199-0.2c0-0.1-0.101-0.2-0.197-0.5V6.6l-0.898-0.1l-1.4,2.2L63.1,8.9H65.7
				l0.2-0.2v-1H65.6z M63.1,10h2.5L65.7,9.6H63.1V10z M43.7,6.1H32.9c-0.1,0-0.2,0-0.3,0c-0.2,0.1-0.3,0.1-0.4,0.2
				c-0.1,0.1-0.2,0.2-0.3,0.3l-0.2,0.2l-0.6,1.5l0.2,0.2l12.3-0.1h0.2c0.1,0,0.2-0.1,0.3-0.2c0.3-0.2,0.5-0.5,0.5-1
				c0-0.4-0.1-0.7-0.4-0.9c-0.1-0.1-0.2-0.1-0.3-0.2H43.7z M3.7,13.4H3.5H0.7H0.5c-0.1,0.1-0.1,0.2-0.1,0.2s0.1,0.1,0.2,0.2l0.1,0.1
				h2.9c0.1,0,0.1-0.1,0.1-0.1c0.1-0.1,0.1-0.1,0.1-0.2S3.8,13.4,3.7,13.4z M0.4,8.8v0.4h3.7c0-0.1,0-0.2,0-0.3s0-0.1-0.1-0.2H3.8
				L0.4,8.8z M35.9,16.2c-0.1-0.1-0.2-0.1-0.3-0.1h-1.5c-0.1,0.1-0.2,0.2-0.3,0.3c-0.2,0.3-0.3,0.6-0.3,0.9s0.1,0.601,0.3,0.8
				c0.1,0.104,0.2,0.2,0.3,0.301l-0.2,0.103c-0.2-0.103-0.3-0.2-0.5-0.397c-0.3-0.303-0.5-0.603-0.5-1c0-0.199,0-0.5,0.2-0.802
				l0.2-0.3c-0.2,0-0.5,0.1-0.7,0.2C32.1,16.5,31.9,17,32,17.6c0,0.301,0.2,0.604,0.5,0.9c0.2,0.2,0.3,0.3,0.5,0.3h3.5v-0.5
				c0.1-0.1,0.2-0.3,0.3-0.5c0.1-0.399,0.1-0.8-0.1-1.2C36.4,16.6,36.2,16.4,35.9,16.2z"/>
		</defs>
		<clipPath id="SVGID_13_">
			<use xlink:href="#SVGID_12_"  overflow="visible"/>
		</clipPath>
		<path clip-path="url(#SVGID_13_)" fill="#AFCDFF" d="M15.455,5.14c0,0-3.781,2.228-5.78,1.195c-2-1.031-6.424-2.428-6.424-2.428
			s-4.537,6.124-4.645,6.336c-0.109,0.216,3.813,6.892,3.813,6.892L12.542,16L15.455,5.14z"/>
	</g>
	<g>
		<defs>
			<path id="SVGID_14_" d="M96.5,9.1v3.7L96.4,13H78.7v-0.7H79V12l-5.7-0.1v-0.2H70.9l-0.5,0.2H66.3l0.8,0.2v0.7L66.9,13H66v0.3
				h-0.7V12h0.2v-0.2L63,11.7l0.1,0.3L63,12.6c0,0.1-0.1,0.1-0.1,0.1c-0.104,0.1-0.104,0.1-0.2,0.1c-0.101,0-0.101-0.1-0.2-0.1
				l-0.2-0.1v-0.5l-0.1-0.2h-0.5v0.8c0,0.1-0.101,0.1-0.2,0.2V13h-0.3L61,13.5l-14.2,0.1l-0.3-0.2l-0.3-0.1l-0.7,0.3l-0.1-1h-0.7
				v0.6v0.1c0,0.1-0.1,0.1-0.1,0.2c-0.1,0-0.1,0.1-0.2,0.1h-0.1h-0.1c-0.1,0-0.2,0.1-0.2,0.2c-0.1,0.1-0.1,0.2-0.2,0.2l-0.1,0.2v3.3
				l0.2,0.1V17.9L43.4,18v1.2c0.1,0.899,0.2,1.8,0.3,2.6c0.2,0.8,0.5,1.8,0.8,3C44.7,25.4,44.8,25.9,45,26.4l0.2,0.199L39.4,28.2
				h-0.2V28c-0.2-0.6-0.4-1.3-0.6-2c-0.4-1.5-0.7-2.7-0.9-3.4c-0.2-0.699-0.3-1.5-0.3-2.3l-0.1-1L36.9,19.4L36.4,19.3h-3.6
				L31.6,19.4c-0.1,0-0.1,0-0.2,0c-0.2,0-0.3,0-0.4,0.1s-0.2,0.2-0.2,0.2L30,21.3l0.4,0.5L30.3,21.9C30.1,22,30,22,29.8,22.1
				c-0.1,0.104-0.2,0.104-0.3,0.2L29.4,22.4L27.7,25.6c-0.1,0.104-0.1,0.2,0,0.301c0,0.103,0.1,0.199,0.2,0.303
				c0.1,0.1,0.1,0.1,0.2,0.1l-0.2,0.303l-5.4-1.303l4.9-8.5c0.1-0.1,0.1-0.197,0.1-0.3c0.1-0.2,0.1-0.5,0.1-0.7
				c-0.1-0.3-0.2-0.5-0.3-0.7c-0.1-0.2-0.3-0.3-0.4-0.5c-0.2-0.1-0.3-0.2-0.5-0.2h-1.2v0.2h-0.3v-2.1h-1v-0.3H20L18.8,13h-3.6v0.3
				H12v2H9.8v0.8H8.7v-0.8l-3.6,2.3V15.7L0.5,18v0.8V18.9C0.3,19,0.3,19,0.2,19c-0.1,0-0.1,0-0.2-0.1V18.8L0.1,8.5h4.1
				c0.1,0,0.1,0.1,0.2,0.2C4.5,8.8,4.5,9,4.5,9.2L15,9.3c0.1,0,0.1,0.1,0.1,0.1c0.1,0.1,0.1,0.1,0.1,0.2h8.5V9.3h1V9H25v0.3h1V8.7h1
				l0.1,0.1l2.6-4.1l0.1-0.2c0.1-0.1,0.2-0.2,0.3-0.2c0.1-0.1,0.2-0.1,0.4-0.2c0.1,0,0.2,0,0.2,0l12.9,1.4L44,5.6
				c0.3,0.1,0.5,0.2,0.7,0.4c0.1,0.2,0.3,0.4,0.4,0.7c0.1,0.1,0.1,0.2,0.2,0.3l-0.1,2.5h0.3V8.4l0.8,0.2V8.2h0.3V8.1
				C46.6,8,46.7,8,46.7,8c0.1,0,0.1-0.1,0.2-0.1L61,8.1l0.2,0.3v0.4H61.6H61.7c0,0.2,0.1,0.2,0.1,0.3S61.9,9.5,61.9,10h0.5V8.5
				L64.8,5.2L65,5c0.2-0.1,0.3-0.2,0.5-0.2c0.4,0.1,0.7,0.2,0.8,0.4C66.4,5.3,66.4,5.4,66.4,5.5s0,0.1,0,0.1V10h4.1l0.5,0.2h2.3V10
				H79V9h17.3L96.5,9.1z M65.6,7.7c-0.1-0.1-0.1-0.1-0.199-0.2c0-0.1-0.101-0.2-0.197-0.5V6.6l-0.898-0.1l-1.4,2.2L63.1,8.9H65.7
				l0.2-0.2v-1H65.6z M63.1,10h2.5L65.7,9.6H63.1V10z M43.7,6.1H32.9c-0.1,0-0.2,0-0.3,0c-0.2,0.1-0.3,0.1-0.4,0.2
				c-0.1,0.1-0.2,0.2-0.3,0.3l-0.2,0.2l-0.6,1.5l0.2,0.2l12.3-0.1h0.2c0.1,0,0.2-0.1,0.3-0.2c0.3-0.2,0.5-0.5,0.5-1
				c0-0.4-0.1-0.7-0.4-0.9c-0.1-0.1-0.2-0.1-0.3-0.2H43.7z M3.7,13.4H3.5H0.7H0.5c-0.1,0.1-0.1,0.2-0.1,0.2s0.1,0.1,0.2,0.2l0.1,0.1
				h2.9c0.1,0,0.1-0.1,0.1-0.1c0.1-0.1,0.1-0.1,0.1-0.2S3.8,13.4,3.7,13.4z M0.4,8.8v0.4h3.7c0-0.1,0-0.2,0-0.3s0-0.1-0.1-0.2H3.8
				L0.4,8.8z M35.9,16.2c-0.1-0.1-0.2-0.1-0.3-0.1h-1.5c-0.1,0.1-0.2,0.2-0.3,0.3c-0.2,0.3-0.3,0.6-0.3,0.9s0.1,0.601,0.3,0.8
				c0.1,0.104,0.2,0.2,0.3,0.301l-0.2,0.103c-0.2-0.103-0.3-0.2-0.5-0.397c-0.3-0.303-0.5-0.603-0.5-1c0-0.199,0-0.5,0.2-0.802
				l0.2-0.3c-0.2,0-0.5,0.1-0.7,0.2C32.1,16.5,31.9,17,32,17.6c0,0.301,0.2,0.604,0.5,0.9c0.2,0.2,0.3,0.3,0.5,0.3h3.5v-0.5
				c0.1-0.1,0.2-0.3,0.3-0.5c0.1-0.399,0.1-0.8-0.1-1.2C36.4,16.6,36.2,16.4,35.9,16.2z"/>
		</defs>
		<clipPath id="SVGID_15_">
			<use xlink:href="#SVGID_14_"  overflow="visible"/>
		</clipPath>
		<path clip-path="url(#SVGID_15_)" fill="#E9EDFF" d="M11.764,13.938c0,0-3.029-1.197-5.316-1.354
			c-2.286-0.158-6.479-1.396-6.479-1.396s-1.303,7.314-1.303,7.548c0,0.238,6.617,4.765,6.617,4.765l6.462-4.394L11.764,13.938z"/>
	</g>
	<g>
		<defs>
			<path id="SVGID_16_" d="M96.5,9.1v3.7L96.4,13H78.7v-0.7H79V12l-5.7-0.1v-0.2H70.9l-0.5,0.2H66.3l0.8,0.2v0.7L66.9,13H66v0.3
				h-0.7V12h0.2v-0.2L63,11.7l0.1,0.3L63,12.6c0,0.1-0.1,0.1-0.1,0.1c-0.104,0.1-0.104,0.1-0.2,0.1c-0.101,0-0.101-0.1-0.2-0.1
				l-0.2-0.1v-0.5l-0.1-0.2h-0.5v0.8c0,0.1-0.101,0.1-0.2,0.2V13h-0.3L61,13.5l-14.2,0.1l-0.3-0.2l-0.3-0.1l-0.7,0.3l-0.1-1h-0.7
				v0.6v0.1c0,0.1-0.1,0.1-0.1,0.2c-0.1,0-0.1,0.1-0.2,0.1h-0.1h-0.1c-0.1,0-0.2,0.1-0.2,0.2c-0.1,0.1-0.1,0.2-0.2,0.2l-0.1,0.2v3.3
				l0.2,0.1V17.9L43.4,18v1.2c0.1,0.899,0.2,1.8,0.3,2.6c0.2,0.8,0.5,1.8,0.8,3C44.7,25.4,44.8,25.9,45,26.4l0.2,0.199L39.4,28.2
				h-0.2V28c-0.2-0.6-0.4-1.3-0.6-2c-0.4-1.5-0.7-2.7-0.9-3.4c-0.2-0.699-0.3-1.5-0.3-2.3l-0.1-1L36.9,19.4L36.4,19.3h-3.6
				L31.6,19.4c-0.1,0-0.1,0-0.2,0c-0.2,0-0.3,0-0.4,0.1s-0.2,0.2-0.2,0.2L30,21.3l0.4,0.5L30.3,21.9C30.1,22,30,22,29.8,22.1
				c-0.1,0.104-0.2,0.104-0.3,0.2L29.4,22.4L27.7,25.6c-0.1,0.104-0.1,0.2,0,0.301c0,0.103,0.1,0.199,0.2,0.303
				c0.1,0.1,0.1,0.1,0.2,0.1l-0.2,0.303l-5.4-1.303l4.9-8.5c0.1-0.1,0.1-0.197,0.1-0.3c0.1-0.2,0.1-0.5,0.1-0.7
				c-0.1-0.3-0.2-0.5-0.3-0.7c-0.1-0.2-0.3-0.3-0.4-0.5c-0.2-0.1-0.3-0.2-0.5-0.2h-1.2v0.2h-0.3v-2.1h-1v-0.3H20L18.8,13h-3.6v0.3
				H12v2H9.8v0.8H8.7v-0.8l-3.6,2.3V15.7L0.5,18v0.8V18.9C0.3,19,0.3,19,0.2,19c-0.1,0-0.1,0-0.2-0.1V18.8L0.1,8.5h4.1
				c0.1,0,0.1,0.1,0.2,0.2C4.5,8.8,4.5,9,4.5,9.2L15,9.3c0.1,0,0.1,0.1,0.1,0.1c0.1,0.1,0.1,0.1,0.1,0.2h8.5V9.3h1V9H25v0.3h1V8.7h1
				l0.1,0.1l2.6-4.1l0.1-0.2c0.1-0.1,0.2-0.2,0.3-0.2c0.1-0.1,0.2-0.1,0.4-0.2c0.1,0,0.2,0,0.2,0l12.9,1.4L44,5.6
				c0.3,0.1,0.5,0.2,0.7,0.4c0.1,0.2,0.3,0.4,0.4,0.7c0.1,0.1,0.1,0.2,0.2,0.3l-0.1,2.5h0.3V8.4l0.8,0.2V8.2h0.3V8.1
				C46.6,8,46.7,8,46.7,8c0.1,0,0.1-0.1,0.2-0.1L61,8.1l0.2,0.3v0.4H61.6H61.7c0,0.2,0.1,0.2,0.1,0.3S61.9,9.5,61.9,10h0.5V8.5
				L64.8,5.2L65,5c0.2-0.1,0.3-0.2,0.5-0.2c0.4,0.1,0.7,0.2,0.8,0.4C66.4,5.3,66.4,5.4,66.4,5.5s0,0.1,0,0.1V10h4.1l0.5,0.2h2.3V10
				H79V9h17.3L96.5,9.1z M65.6,7.7c-0.1-0.1-0.1-0.1-0.199-0.2c0-0.1-0.101-0.2-0.197-0.5V6.6l-0.898-0.1l-1.4,2.2L63.1,8.9H65.7
				l0.2-0.2v-1H65.6z M63.1,10h2.5L65.7,9.6H63.1V10z M43.7,6.1H32.9c-0.1,0-0.2,0-0.3,0c-0.2,0.1-0.3,0.1-0.4,0.2
				c-0.1,0.1-0.2,0.2-0.3,0.3l-0.2,0.2l-0.6,1.5l0.2,0.2l12.3-0.1h0.2c0.1,0,0.2-0.1,0.3-0.2c0.3-0.2,0.5-0.5,0.5-1
				c0-0.4-0.1-0.7-0.4-0.9c-0.1-0.1-0.2-0.1-0.3-0.2H43.7z M3.7,13.4H3.5H0.7H0.5c-0.1,0.1-0.1,0.2-0.1,0.2s0.1,0.1,0.2,0.2l0.1,0.1
				h2.9c0.1,0,0.1-0.1,0.1-0.1c0.1-0.1,0.1-0.1,0.1-0.2S3.8,13.4,3.7,13.4z M0.4,8.8v0.4h3.7c0-0.1,0-0.2,0-0.3s0-0.1-0.1-0.2H3.8
				L0.4,8.8z M35.9,16.2c-0.1-0.1-0.2-0.1-0.3-0.1h-1.5c-0.1,0.1-0.2,0.2-0.3,0.3c-0.2,0.3-0.3,0.6-0.3,0.9s0.1,0.601,0.3,0.8
				c0.1,0.104,0.2,0.2,0.3,0.301l-0.2,0.103c-0.2-0.103-0.3-0.2-0.5-0.397c-0.3-0.303-0.5-0.603-0.5-1c0-0.199,0-0.5,0.2-0.802
				l0.2-0.3c-0.2,0-0.5,0.1-0.7,0.2C32.1,16.5,31.9,17,32,17.6c0,0.301,0.2,0.604,0.5,0.9c0.2,0.2,0.3,0.3,0.5,0.3h3.5v-0.5
				c0.1-0.1,0.2-0.3,0.3-0.5c0.1-0.399,0.1-0.8-0.1-1.2C36.4,16.6,36.2,16.4,35.9,16.2z"/>
		</defs>
		<clipPath id="SVGID_17_">
			<use xlink:href="#SVGID_16_"  overflow="visible"/>
		</clipPath>
		
			<linearGradient id="SVGID_18_" gradientUnits="userSpaceOnUse" x1="524.7109" y1="877.2754" x2="524.7109" y2="872.4053" gradientTransform="matrix(0.9934 -0.1144 0.1144 0.9934 -563.8093 -795.3724)">
			<stop  offset="0" style="stop-color:#158CFF"/>
			<stop  offset="0.6989" style="stop-color:#FFFFFF"/>
		</linearGradient>
		<path clip-path="url(#SVGID_17_)" fill="url(#SVGID_18_)" d="M50.941,15.813c0,0,2.029-4.5,7.373-4.655
			c3.965-0.116,6.224,4.151,6.224,4.151L50.941,15.813z"/>
	</g>
	<g>
		<defs>
			<path id="SVGID_19_" d="M96.5,9.1v3.7L96.4,13H78.7v-0.7H79V12l-5.7-0.1v-0.2H70.9l-0.5,0.2H66.3l0.8,0.2v0.7L66.9,13H66v0.3
				h-0.7V12h0.2v-0.2L63,11.7l0.1,0.3L63,12.6c0,0.1-0.1,0.1-0.1,0.1c-0.104,0.1-0.104,0.1-0.2,0.1c-0.101,0-0.101-0.1-0.2-0.1
				l-0.2-0.1v-0.5l-0.1-0.2h-0.5v0.8c0,0.1-0.101,0.1-0.2,0.2V13h-0.3L61,13.5l-14.2,0.1l-0.3-0.2l-0.3-0.1l-0.7,0.3l-0.1-1h-0.7
				v0.6v0.1c0,0.1-0.1,0.1-0.1,0.2c-0.1,0-0.1,0.1-0.2,0.1h-0.1h-0.1c-0.1,0-0.2,0.1-0.2,0.2c-0.1,0.1-0.1,0.2-0.2,0.2l-0.1,0.2v3.3
				l0.2,0.1V17.9L43.4,18v1.2c0.1,0.899,0.2,1.8,0.3,2.6c0.2,0.8,0.5,1.8,0.8,3C44.7,25.4,44.8,25.9,45,26.4l0.2,0.199L39.4,28.2
				h-0.2V28c-0.2-0.6-0.4-1.3-0.6-2c-0.4-1.5-0.7-2.7-0.9-3.4c-0.2-0.699-0.3-1.5-0.3-2.3l-0.1-1L36.9,19.4L36.4,19.3h-3.6
				L31.6,19.4c-0.1,0-0.1,0-0.2,0c-0.2,0-0.3,0-0.4,0.1s-0.2,0.2-0.2,0.2L30,21.3l0.4,0.5L30.3,21.9C30.1,22,30,22,29.8,22.1
				c-0.1,0.104-0.2,0.104-0.3,0.2L29.4,22.4L27.7,25.6c-0.1,0.104-0.1,0.2,0,0.301c0,0.103,0.1,0.199,0.2,0.303
				c0.1,0.1,0.1,0.1,0.2,0.1l-0.2,0.303l-5.4-1.303l4.9-8.5c0.1-0.1,0.1-0.197,0.1-0.3c0.1-0.2,0.1-0.5,0.1-0.7
				c-0.1-0.3-0.2-0.5-0.3-0.7c-0.1-0.2-0.3-0.3-0.4-0.5c-0.2-0.1-0.3-0.2-0.5-0.2h-1.2v0.2h-0.3v-2.1h-1v-0.3H20L18.8,13h-3.6v0.3
				H12v2H9.8v0.8H8.7v-0.8l-3.6,2.3V15.7L0.5,18v0.8V18.9C0.3,19,0.3,19,0.2,19c-0.1,0-0.1,0-0.2-0.1V18.8L0.1,8.5h4.1
				c0.1,0,0.1,0.1,0.2,0.2C4.5,8.8,4.5,9,4.5,9.2L15,9.3c0.1,0,0.1,0.1,0.1,0.1c0.1,0.1,0.1,0.1,0.1,0.2h8.5V9.3h1V9H25v0.3h1V8.7h1
				l0.1,0.1l2.6-4.1l0.1-0.2c0.1-0.1,0.2-0.2,0.3-0.2c0.1-0.1,0.2-0.1,0.4-0.2c0.1,0,0.2,0,0.2,0l12.9,1.4L44,5.6
				c0.3,0.1,0.5,0.2,0.7,0.4c0.1,0.2,0.3,0.4,0.4,0.7c0.1,0.1,0.1,0.2,0.2,0.3l-0.1,2.5h0.3V8.4l0.8,0.2V8.2h0.3V8.1
				C46.6,8,46.7,8,46.7,8c0.1,0,0.1-0.1,0.2-0.1L61,8.1l0.2,0.3v0.4H61.6H61.7c0,0.2,0.1,0.2,0.1,0.3S61.9,9.5,61.9,10h0.5V8.5
				L64.8,5.2L65,5c0.2-0.1,0.3-0.2,0.5-0.2c0.4,0.1,0.7,0.2,0.8,0.4C66.4,5.3,66.4,5.4,66.4,5.5s0,0.1,0,0.1V10h4.1l0.5,0.2h2.3V10
				H79V9h17.3L96.5,9.1z M65.6,7.7c-0.1-0.1-0.1-0.1-0.199-0.2c0-0.1-0.101-0.2-0.197-0.5V6.6l-0.898-0.1l-1.4,2.2L63.1,8.9H65.7
				l0.2-0.2v-1H65.6z M63.1,10h2.5L65.7,9.6H63.1V10z M43.7,6.1H32.9c-0.1,0-0.2,0-0.3,0c-0.2,0.1-0.3,0.1-0.4,0.2
				c-0.1,0.1-0.2,0.2-0.3,0.3l-0.2,0.2l-0.6,1.5l0.2,0.2l12.3-0.1h0.2c0.1,0,0.2-0.1,0.3-0.2c0.3-0.2,0.5-0.5,0.5-1
				c0-0.4-0.1-0.7-0.4-0.9c-0.1-0.1-0.2-0.1-0.3-0.2H43.7z M3.7,13.4H3.5H0.7H0.5c-0.1,0.1-0.1,0.2-0.1,0.2s0.1,0.1,0.2,0.2l0.1,0.1
				h2.9c0.1,0,0.1-0.1,0.1-0.1c0.1-0.1,0.1-0.1,0.1-0.2S3.8,13.4,3.7,13.4z M0.4,8.8v0.4h3.7c0-0.1,0-0.2,0-0.3s0-0.1-0.1-0.2H3.8
				L0.4,8.8z M35.9,16.2c-0.1-0.1-0.2-0.1-0.3-0.1h-1.5c-0.1,0.1-0.2,0.2-0.3,0.3c-0.2,0.3-0.3,0.6-0.3,0.9s0.1,0.601,0.3,0.8
				c0.1,0.104,0.2,0.2,0.3,0.301l-0.2,0.103c-0.2-0.103-0.3-0.2-0.5-0.397c-0.3-0.303-0.5-0.603-0.5-1c0-0.199,0-0.5,0.2-0.802
				l0.2-0.3c-0.2,0-0.5,0.1-0.7,0.2C32.1,16.5,31.9,17,32,17.6c0,0.301,0.2,0.604,0.5,0.9c0.2,0.2,0.3,0.3,0.5,0.3h3.5v-0.5
				c0.1-0.1,0.2-0.3,0.3-0.5c0.1-0.399,0.1-0.8-0.1-1.2C36.4,16.6,36.2,16.4,35.9,16.2z"/>
		</defs>
		<clipPath id="SVGID_20_">
			<use xlink:href="#SVGID_19_"  overflow="visible"/>
		</clipPath>
		<path clip-path="url(#SVGID_20_)" fill="#FFFFFF" d="M30.309,17.003c0,0,1.474-4.597-0.685-3.897
			c-1.464,0.474-2.295,3.89-2.295,3.89s-5.384,8.031-5.342,8.193c0.04,0.16,7.249,1.896,7.249,1.896l4.25-7.345L30.309,17.003z"/>
	</g>
	<g>
		<defs>
			<path id="SVGID_21_" d="M96.5,9.1v3.7L96.4,13H78.7v-0.7H79V12l-5.7-0.1v-0.2H70.9l-0.5,0.2H66.3l0.8,0.2v0.7L66.9,13H66v0.3
				h-0.7V12h0.2v-0.2L63,11.7l0.1,0.3L63,12.6c0,0.1-0.1,0.1-0.1,0.1c-0.104,0.1-0.104,0.1-0.2,0.1c-0.101,0-0.101-0.1-0.2-0.1
				l-0.2-0.1v-0.5l-0.1-0.2h-0.5v0.8c0,0.1-0.101,0.1-0.2,0.2V13h-0.3L61,13.5l-14.2,0.1l-0.3-0.2l-0.3-0.1l-0.7,0.3l-0.1-1h-0.7
				v0.6v0.1c0,0.1-0.1,0.1-0.1,0.2c-0.1,0-0.1,0.1-0.2,0.1h-0.1h-0.1c-0.1,0-0.2,0.1-0.2,0.2c-0.1,0.1-0.1,0.2-0.2,0.2l-0.1,0.2v3.3
				l0.2,0.1V17.9L43.4,18v1.2c0.1,0.899,0.2,1.8,0.3,2.6c0.2,0.8,0.5,1.8,0.8,3C44.7,25.4,44.8,25.9,45,26.4l0.2,0.199L39.4,28.2
				h-0.2V28c-0.2-0.6-0.4-1.3-0.6-2c-0.4-1.5-0.7-2.7-0.9-3.4c-0.2-0.699-0.3-1.5-0.3-2.3l-0.1-1L36.9,19.4L36.4,19.3h-3.6
				L31.6,19.4c-0.1,0-0.1,0-0.2,0c-0.2,0-0.3,0-0.4,0.1s-0.2,0.2-0.2,0.2L30,21.3l0.4,0.5L30.3,21.9C30.1,22,30,22,29.8,22.1
				c-0.1,0.104-0.2,0.104-0.3,0.2L29.4,22.4L27.7,25.6c-0.1,0.104-0.1,0.2,0,0.301c0,0.103,0.1,0.199,0.2,0.303
				c0.1,0.1,0.1,0.1,0.2,0.1l-0.2,0.303l-5.4-1.303l4.9-8.5c0.1-0.1,0.1-0.197,0.1-0.3c0.1-0.2,0.1-0.5,0.1-0.7
				c-0.1-0.3-0.2-0.5-0.3-0.7c-0.1-0.2-0.3-0.3-0.4-0.5c-0.2-0.1-0.3-0.2-0.5-0.2h-1.2v0.2h-0.3v-2.1h-1v-0.3H20L18.8,13h-3.6v0.3
				H12v2H9.8v0.8H8.7v-0.8l-3.6,2.3V15.7L0.5,18v0.8V18.9C0.3,19,0.3,19,0.2,19c-0.1,0-0.1,0-0.2-0.1V18.8L0.1,8.5h4.1
				c0.1,0,0.1,0.1,0.2,0.2C4.5,8.8,4.5,9,4.5,9.2L15,9.3c0.1,0,0.1,0.1,0.1,0.1c0.1,0.1,0.1,0.1,0.1,0.2h8.5V9.3h1V9H25v0.3h1V8.7h1
				l0.1,0.1l2.6-4.1l0.1-0.2c0.1-0.1,0.2-0.2,0.3-0.2c0.1-0.1,0.2-0.1,0.4-0.2c0.1,0,0.2,0,0.2,0l12.9,1.4L44,5.6
				c0.3,0.1,0.5,0.2,0.7,0.4c0.1,0.2,0.3,0.4,0.4,0.7c0.1,0.1,0.1,0.2,0.2,0.3l-0.1,2.5h0.3V8.4l0.8,0.2V8.2h0.3V8.1
				C46.6,8,46.7,8,46.7,8c0.1,0,0.1-0.1,0.2-0.1L61,8.1l0.2,0.3v0.4H61.6H61.7c0,0.2,0.1,0.2,0.1,0.3S61.9,9.5,61.9,10h0.5V8.5
				L64.8,5.2L65,5c0.2-0.1,0.3-0.2,0.5-0.2c0.4,0.1,0.7,0.2,0.8,0.4C66.4,5.3,66.4,5.4,66.4,5.5s0,0.1,0,0.1V10h4.1l0.5,0.2h2.3V10
				H79V9h17.3L96.5,9.1z M65.6,7.7c-0.1-0.1-0.1-0.1-0.199-0.2c0-0.1-0.101-0.2-0.197-0.5V6.6l-0.898-0.1l-1.4,2.2L63.1,8.9H65.7
				l0.2-0.2v-1H65.6z M63.1,10h2.5L65.7,9.6H63.1V10z M43.7,6.1H32.9c-0.1,0-0.2,0-0.3,0c-0.2,0.1-0.3,0.1-0.4,0.2
				c-0.1,0.1-0.2,0.2-0.3,0.3l-0.2,0.2l-0.6,1.5l0.2,0.2l12.3-0.1h0.2c0.1,0,0.2-0.1,0.3-0.2c0.3-0.2,0.5-0.5,0.5-1
				c0-0.4-0.1-0.7-0.4-0.9c-0.1-0.1-0.2-0.1-0.3-0.2H43.7z M3.7,13.4H3.5H0.7H0.5c-0.1,0.1-0.1,0.2-0.1,0.2s0.1,0.1,0.2,0.2l0.1,0.1
				h2.9c0.1,0,0.1-0.1,0.1-0.1c0.1-0.1,0.1-0.1,0.1-0.2S3.8,13.4,3.7,13.4z M0.4,8.8v0.4h3.7c0-0.1,0-0.2,0-0.3s0-0.1-0.1-0.2H3.8
				L0.4,8.8z M35.9,16.2c-0.1-0.1-0.2-0.1-0.3-0.1h-1.5c-0.1,0.1-0.2,0.2-0.3,0.3c-0.2,0.3-0.3,0.6-0.3,0.9s0.1,0.601,0.3,0.8
				c0.1,0.104,0.2,0.2,0.3,0.301l-0.2,0.103c-0.2-0.103-0.3-0.2-0.5-0.397c-0.3-0.303-0.5-0.603-0.5-1c0-0.199,0-0.5,0.2-0.802
				l0.2-0.3c-0.2,0-0.5,0.1-0.7,0.2C32.1,16.5,31.9,17,32,17.6c0,0.301,0.2,0.604,0.5,0.9c0.2,0.2,0.3,0.3,0.5,0.3h3.5v-0.5
				c0.1-0.1,0.2-0.3,0.3-0.5c0.1-0.399,0.1-0.8-0.1-1.2C36.4,16.6,36.2,16.4,35.9,16.2z"/>
		</defs>
		<clipPath id="SVGID_22_">
			<use xlink:href="#SVGID_21_"  overflow="visible"/>
		</clipPath>
		<path clip-path="url(#SVGID_22_)" fill="#A4BAFF" d="M13.21,12.674c0.362,0.332,5.915-1.715,5.915-1.715s-0.772,1.797-0.05,3.293
			c0.721,1.496,3.79,1.412,5.052,0.832c1.264-0.582,1.805-2.162,4.331-0.916c0.964,0.477,1.703-3.794,2.929,1.494
			c0.678,2.92,2.665,1.416,2.665,1.416s3.193-0.686,3.374-1.434c0.181-0.748-0.738-1.033,0.434-1.781
			c1.174-0.748,0.209-1.979-0.072-2.718c-1.554-4.099-2.307-5.844-2.307-5.844s5.218,0.61,2.782-0.885
			c-2.435-1.496-3.311-4.406-6.197-0.75c-2.887,3.656-4.316,3.88-4.316,3.88s-1.396,1.708-4.145,1.12
			c-2.398-0.514-3.537-0.563-5.431-0.646s-4.601-0.499-5.323,0.083c-0.723,0.583-3.16,1.517-3.972,1.091
			C8.066,8.77,11.251,9.92,10.981,11.25C10.71,12.58,12.849,12.342,13.21,12.674z"/>
	</g>
	<g>
		<defs>
			<path id="SVGID_23_" d="M96.5,9.1v3.7L96.4,13H78.7v-0.7H79V12l-5.7-0.1v-0.2H70.9l-0.5,0.2H66.3l0.8,0.2v0.7L66.9,13H66v0.3
				h-0.7V12h0.2v-0.2L63,11.7l0.1,0.3L63,12.6c0,0.1-0.1,0.1-0.1,0.1c-0.104,0.1-0.104,0.1-0.2,0.1c-0.101,0-0.101-0.1-0.2-0.1
				l-0.2-0.1v-0.5l-0.1-0.2h-0.5v0.8c0,0.1-0.101,0.1-0.2,0.2V13h-0.3L61,13.5l-14.2,0.1l-0.3-0.2l-0.3-0.1l-0.7,0.3l-0.1-1h-0.7
				v0.6v0.1c0,0.1-0.1,0.1-0.1,0.2c-0.1,0-0.1,0.1-0.2,0.1h-0.1h-0.1c-0.1,0-0.2,0.1-0.2,0.2c-0.1,0.1-0.1,0.2-0.2,0.2l-0.1,0.2v3.3
				l0.2,0.1V17.9L43.4,18v1.2c0.1,0.899,0.2,1.8,0.3,2.6c0.2,0.8,0.5,1.8,0.8,3C44.7,25.4,44.8,25.9,45,26.4l0.2,0.199L39.4,28.2
				h-0.2V28c-0.2-0.6-0.4-1.3-0.6-2c-0.4-1.5-0.7-2.7-0.9-3.4c-0.2-0.699-0.3-1.5-0.3-2.3l-0.1-1L36.9,19.4L36.4,19.3h-3.6
				L31.6,19.4c-0.1,0-0.1,0-0.2,0c-0.2,0-0.3,0-0.4,0.1s-0.2,0.2-0.2,0.2L30,21.3l0.4,0.5L30.3,21.9C30.1,22,30,22,29.8,22.1
				c-0.1,0.104-0.2,0.104-0.3,0.2L29.4,22.4L27.7,25.6c-0.1,0.104-0.1,0.2,0,0.301c0,0.103,0.1,0.199,0.2,0.303
				c0.1,0.1,0.1,0.1,0.2,0.1l-0.2,0.303l-5.4-1.303l4.9-8.5c0.1-0.1,0.1-0.197,0.1-0.3c0.1-0.2,0.1-0.5,0.1-0.7
				c-0.1-0.3-0.2-0.5-0.3-0.7c-0.1-0.2-0.3-0.3-0.4-0.5c-0.2-0.1-0.3-0.2-0.5-0.2h-1.2v0.2h-0.3v-2.1h-1v-0.3H20L18.8,13h-3.6v0.3
				H12v2H9.8v0.8H8.7v-0.8l-3.6,2.3V15.7L0.5,18v0.8V18.9C0.3,19,0.3,19,0.2,19c-0.1,0-0.1,0-0.2-0.1V18.8L0.1,8.5h4.1
				c0.1,0,0.1,0.1,0.2,0.2C4.5,8.8,4.5,9,4.5,9.2L15,9.3c0.1,0,0.1,0.1,0.1,0.1c0.1,0.1,0.1,0.1,0.1,0.2h8.5V9.3h1V9H25v0.3h1V8.7h1
				l0.1,0.1l2.6-4.1l0.1-0.2c0.1-0.1,0.2-0.2,0.3-0.2c0.1-0.1,0.2-0.1,0.4-0.2c0.1,0,0.2,0,0.2,0l12.9,1.4L44,5.6
				c0.3,0.1,0.5,0.2,0.7,0.4c0.1,0.2,0.3,0.4,0.4,0.7c0.1,0.1,0.1,0.2,0.2,0.3l-0.1,2.5h0.3V8.4l0.8,0.2V8.2h0.3V8.1
				C46.6,8,46.7,8,46.7,8c0.1,0,0.1-0.1,0.2-0.1L61,8.1l0.2,0.3v0.4H61.6H61.7c0,0.2,0.1,0.2,0.1,0.3S61.9,9.5,61.9,10h0.5V8.5
				L64.8,5.2L65,5c0.2-0.1,0.3-0.2,0.5-0.2c0.4,0.1,0.7,0.2,0.8,0.4C66.4,5.3,66.4,5.4,66.4,5.5s0,0.1,0,0.1V10h4.1l0.5,0.2h2.3V10
				H79V9h17.3L96.5,9.1z M65.6,7.7c-0.1-0.1-0.1-0.1-0.199-0.2c0-0.1-0.101-0.2-0.197-0.5V6.6l-0.898-0.1l-1.4,2.2L63.1,8.9H65.7
				l0.2-0.2v-1H65.6z M63.1,10h2.5L65.7,9.6H63.1V10z M43.7,6.1H32.9c-0.1,0-0.2,0-0.3,0c-0.2,0.1-0.3,0.1-0.4,0.2
				c-0.1,0.1-0.2,0.2-0.3,0.3l-0.2,0.2l-0.6,1.5l0.2,0.2l12.3-0.1h0.2c0.1,0,0.2-0.1,0.3-0.2c0.3-0.2,0.5-0.5,0.5-1
				c0-0.4-0.1-0.7-0.4-0.9c-0.1-0.1-0.2-0.1-0.3-0.2H43.7z M3.7,13.4H3.5H0.7H0.5c-0.1,0.1-0.1,0.2-0.1,0.2s0.1,0.1,0.2,0.2l0.1,0.1
				h2.9c0.1,0,0.1-0.1,0.1-0.1c0.1-0.1,0.1-0.1,0.1-0.2S3.8,13.4,3.7,13.4z M0.4,8.8v0.4h3.7c0-0.1,0-0.2,0-0.3s0-0.1-0.1-0.2H3.8
				L0.4,8.8z M35.9,16.2c-0.1-0.1-0.2-0.1-0.3-0.1h-1.5c-0.1,0.1-0.2,0.2-0.3,0.3c-0.2,0.3-0.3,0.6-0.3,0.9s0.1,0.601,0.3,0.8
				c0.1,0.104,0.2,0.2,0.3,0.301l-0.2,0.103c-0.2-0.103-0.3-0.2-0.5-0.397c-0.3-0.303-0.5-0.603-0.5-1c0-0.199,0-0.5,0.2-0.802
				l0.2-0.3c-0.2,0-0.5,0.1-0.7,0.2C32.1,16.5,31.9,17,32,17.6c0,0.301,0.2,0.604,0.5,0.9c0.2,0.2,0.3,0.3,0.5,0.3h3.5v-0.5
				c0.1-0.1,0.2-0.3,0.3-0.5c0.1-0.399,0.1-0.8-0.1-1.2C36.4,16.6,36.2,16.4,35.9,16.2z"/>
		</defs>
		<clipPath id="SVGID_24_">
			<use xlink:href="#SVGID_23_"  overflow="visible"/>
		</clipPath>
		<path clip-path="url(#SVGID_24_)" fill="#E9EDFF" d="M37.56,9.438c0,0,0.95-6,7.418-5.688c2.289,0.11-21.647-1.851-21.647-1.851
			s-3.257,7.217-3.257,7.452c0,0.119,4.57-0.681,6.742,0.399c2.171,1.08,1.945,4.042,1.945,4.042l4.615-6.083l2.477-0.656
			L37.56,9.438z"/>
	</g>
	<g>
		<defs>
			<path id="SVGID_25_" d="M96.5,9.1v3.7L96.4,13H78.7v-0.7H79V12l-5.7-0.1v-0.2H70.9l-0.5,0.2H66.3l0.8,0.2v0.7L66.9,13H66v0.3
				h-0.7V12h0.2v-0.2L63,11.7l0.1,0.3L63,12.6c0,0.1-0.1,0.1-0.1,0.1c-0.104,0.1-0.104,0.1-0.2,0.1c-0.101,0-0.101-0.1-0.2-0.1
				l-0.2-0.1v-0.5l-0.1-0.2h-0.5v0.8c0,0.1-0.101,0.1-0.2,0.2V13h-0.3L61,13.5l-14.2,0.1l-0.3-0.2l-0.3-0.1l-0.7,0.3l-0.1-1h-0.7
				v0.6v0.1c0,0.1-0.1,0.1-0.1,0.2c-0.1,0-0.1,0.1-0.2,0.1h-0.1h-0.1c-0.1,0-0.2,0.1-0.2,0.2c-0.1,0.1-0.1,0.2-0.2,0.2l-0.1,0.2v3.3
				l0.2,0.1V17.9L43.4,18v1.2c0.1,0.899,0.2,1.8,0.3,2.6c0.2,0.8,0.5,1.8,0.8,3C44.7,25.4,44.8,25.9,45,26.4l0.2,0.199L39.4,28.2
				h-0.2V28c-0.2-0.6-0.4-1.3-0.6-2c-0.4-1.5-0.7-2.7-0.9-3.4c-0.2-0.699-0.3-1.5-0.3-2.3l-0.1-1L36.9,19.4L36.4,19.3h-3.6
				L31.6,19.4c-0.1,0-0.1,0-0.2,0c-0.2,0-0.3,0-0.4,0.1s-0.2,0.2-0.2,0.2L30,21.3l0.4,0.5L30.3,21.9C30.1,22,30,22,29.8,22.1
				c-0.1,0.104-0.2,0.104-0.3,0.2L29.4,22.4L27.7,25.6c-0.1,0.104-0.1,0.2,0,0.301c0,0.103,0.1,0.199,0.2,0.303
				c0.1,0.1,0.1,0.1,0.2,0.1l-0.2,0.303l-5.4-1.303l4.9-8.5c0.1-0.1,0.1-0.197,0.1-0.3c0.1-0.2,0.1-0.5,0.1-0.7
				c-0.1-0.3-0.2-0.5-0.3-0.7c-0.1-0.2-0.3-0.3-0.4-0.5c-0.2-0.1-0.3-0.2-0.5-0.2h-1.2v0.2h-0.3v-2.1h-1v-0.3H20L18.8,13h-3.6v0.3
				H12v2H9.8v0.8H8.7v-0.8l-3.6,2.3V15.7L0.5,18v0.8V18.9C0.3,19,0.3,19,0.2,19c-0.1,0-0.1,0-0.2-0.1V18.8L0.1,8.5h4.1
				c0.1,0,0.1,0.1,0.2,0.2C4.5,8.8,4.5,9,4.5,9.2L15,9.3c0.1,0,0.1,0.1,0.1,0.1c0.1,0.1,0.1,0.1,0.1,0.2h8.5V9.3h1V9H25v0.3h1V8.7h1
				l0.1,0.1l2.6-4.1l0.1-0.2c0.1-0.1,0.2-0.2,0.3-0.2c0.1-0.1,0.2-0.1,0.4-0.2c0.1,0,0.2,0,0.2,0l12.9,1.4L44,5.6
				c0.3,0.1,0.5,0.2,0.7,0.4c0.1,0.2,0.3,0.4,0.4,0.7c0.1,0.1,0.1,0.2,0.2,0.3l-0.1,2.5h0.3V8.4l0.8,0.2V8.2h0.3V8.1
				C46.6,8,46.7,8,46.7,8c0.1,0,0.1-0.1,0.2-0.1L61,8.1l0.2,0.3v0.4H61.6H61.7c0,0.2,0.1,0.2,0.1,0.3S61.9,9.5,61.9,10h0.5V8.5
				L64.8,5.2L65,5c0.2-0.1,0.3-0.2,0.5-0.2c0.4,0.1,0.7,0.2,0.8,0.4C66.4,5.3,66.4,5.4,66.4,5.5s0,0.1,0,0.1V10h4.1l0.5,0.2h2.3V10
				H79V9h17.3L96.5,9.1z M65.6,7.7c-0.1-0.1-0.1-0.1-0.199-0.2c0-0.1-0.101-0.2-0.197-0.5V6.6l-0.898-0.1l-1.4,2.2L63.1,8.9H65.7
				l0.2-0.2v-1H65.6z M63.1,10h2.5L65.7,9.6H63.1V10z M43.7,6.1H32.9c-0.1,0-0.2,0-0.3,0c-0.2,0.1-0.3,0.1-0.4,0.2
				c-0.1,0.1-0.2,0.2-0.3,0.3l-0.2,0.2l-0.6,1.5l0.2,0.2l12.3-0.1h0.2c0.1,0,0.2-0.1,0.3-0.2c0.3-0.2,0.5-0.5,0.5-1
				c0-0.4-0.1-0.7-0.4-0.9c-0.1-0.1-0.2-0.1-0.3-0.2H43.7z M3.7,13.4H3.5H0.7H0.5c-0.1,0.1-0.1,0.2-0.1,0.2s0.1,0.1,0.2,0.2l0.1,0.1
				h2.9c0.1,0,0.1-0.1,0.1-0.1c0.1-0.1,0.1-0.1,0.1-0.2S3.8,13.4,3.7,13.4z M0.4,8.8v0.4h3.7c0-0.1,0-0.2,0-0.3s0-0.1-0.1-0.2H3.8
				L0.4,8.8z M35.9,16.2c-0.1-0.1-0.2-0.1-0.3-0.1h-1.5c-0.1,0.1-0.2,0.2-0.3,0.3c-0.2,0.3-0.3,0.6-0.3,0.9s0.1,0.601,0.3,0.8
				c0.1,0.104,0.2,0.2,0.3,0.301l-0.2,0.103c-0.2-0.103-0.3-0.2-0.5-0.397c-0.3-0.303-0.5-0.603-0.5-1c0-0.199,0-0.5,0.2-0.802
				l0.2-0.3c-0.2,0-0.5,0.1-0.7,0.2C32.1,16.5,31.9,17,32,17.6c0,0.301,0.2,0.604,0.5,0.9c0.2,0.2,0.3,0.3,0.5,0.3h3.5v-0.5
				c0.1-0.1,0.2-0.3,0.3-0.5c0.1-0.399,0.1-0.8-0.1-1.2C36.4,16.6,36.2,16.4,35.9,16.2z"/>
		</defs>
		<clipPath id="SVGID_26_">
			<use xlink:href="#SVGID_25_"  overflow="visible"/>
		</clipPath>
		<path clip-path="url(#SVGID_26_)" fill="#E9EDFF" d="M99.143,10.855c0,0,0.95-6,7.42-5.688c2.287,0.11-21.647-1.851-21.647-1.851
			S81.172,8.765,81.172,9c0,0.119,3.953,0.627,6.125,1.707s3.047,4.502,3.047,4.502l6.615-0.876l0.477-5.863L99.143,10.855z"/>
	</g>
	<g>
		<defs>
			<path id="SVGID_27_" d="M96.5,9.1v3.7L96.4,13H78.7v-0.7H79V12l-5.7-0.1v-0.2H70.9l-0.5,0.2H66.3l0.8,0.2v0.7L66.9,13H66v0.3
				h-0.7V12h0.2v-0.2L63,11.7l0.1,0.3L63,12.6c0,0.1-0.1,0.1-0.1,0.1c-0.104,0.1-0.104,0.1-0.2,0.1c-0.101,0-0.101-0.1-0.2-0.1
				l-0.2-0.1v-0.5l-0.1-0.2h-0.5v0.8c0,0.1-0.101,0.1-0.2,0.2V13h-0.3L61,13.5l-14.2,0.1l-0.3-0.2l-0.3-0.1l-0.7,0.3l-0.1-1h-0.7
				v0.6v0.1c0,0.1-0.1,0.1-0.1,0.2c-0.1,0-0.1,0.1-0.2,0.1h-0.1h-0.1c-0.1,0-0.2,0.1-0.2,0.2c-0.1,0.1-0.1,0.2-0.2,0.2l-0.1,0.2v3.3
				l0.2,0.1V17.9L43.4,18v1.2c0.1,0.899,0.2,1.8,0.3,2.6c0.2,0.8,0.5,1.8,0.8,3C44.7,25.4,44.8,25.9,45,26.4l0.2,0.199L39.4,28.2
				h-0.2V28c-0.2-0.6-0.4-1.3-0.6-2c-0.4-1.5-0.7-2.7-0.9-3.4c-0.2-0.699-0.3-1.5-0.3-2.3l-0.1-1L36.9,19.4L36.4,19.3h-3.6
				L31.6,19.4c-0.1,0-0.1,0-0.2,0c-0.2,0-0.3,0-0.4,0.1s-0.2,0.2-0.2,0.2L30,21.3l0.4,0.5L30.3,21.9C30.1,22,30,22,29.8,22.1
				c-0.1,0.104-0.2,0.104-0.3,0.2L29.4,22.4L27.7,25.6c-0.1,0.104-0.1,0.2,0,0.301c0,0.103,0.1,0.199,0.2,0.303
				c0.1,0.1,0.1,0.1,0.2,0.1l-0.2,0.303l-5.4-1.303l4.9-8.5c0.1-0.1,0.1-0.197,0.1-0.3c0.1-0.2,0.1-0.5,0.1-0.7
				c-0.1-0.3-0.2-0.5-0.3-0.7c-0.1-0.2-0.3-0.3-0.4-0.5c-0.2-0.1-0.3-0.2-0.5-0.2h-1.2v0.2h-0.3v-2.1h-1v-0.3H20L18.8,13h-3.6v0.3
				H12v2H9.8v0.8H8.7v-0.8l-3.6,2.3V15.7L0.5,18v0.8V18.9C0.3,19,0.3,19,0.2,19c-0.1,0-0.1,0-0.2-0.1V18.8L0.1,8.5h4.1
				c0.1,0,0.1,0.1,0.2,0.2C4.5,8.8,4.5,9,4.5,9.2L15,9.3c0.1,0,0.1,0.1,0.1,0.1c0.1,0.1,0.1,0.1,0.1,0.2h8.5V9.3h1V9H25v0.3h1V8.7h1
				l0.1,0.1l2.6-4.1l0.1-0.2c0.1-0.1,0.2-0.2,0.3-0.2c0.1-0.1,0.2-0.1,0.4-0.2c0.1,0,0.2,0,0.2,0l12.9,1.4L44,5.6
				c0.3,0.1,0.5,0.2,0.7,0.4c0.1,0.2,0.3,0.4,0.4,0.7c0.1,0.1,0.1,0.2,0.2,0.3l-0.1,2.5h0.3V8.4l0.8,0.2V8.2h0.3V8.1
				C46.6,8,46.7,8,46.7,8c0.1,0,0.1-0.1,0.2-0.1L61,8.1l0.2,0.3v0.4H61.6H61.7c0,0.2,0.1,0.2,0.1,0.3S61.9,9.5,61.9,10h0.5V8.5
				L64.8,5.2L65,5c0.2-0.1,0.3-0.2,0.5-0.2c0.4,0.1,0.7,0.2,0.8,0.4C66.4,5.3,66.4,5.4,66.4,5.5s0,0.1,0,0.1V10h4.1l0.5,0.2h2.3V10
				H79V9h17.3L96.5,9.1z M65.6,7.7c-0.1-0.1-0.1-0.1-0.199-0.2c0-0.1-0.101-0.2-0.197-0.5V6.6l-0.898-0.1l-1.4,2.2L63.1,8.9H65.7
				l0.2-0.2v-1H65.6z M63.1,10h2.5L65.7,9.6H63.1V10z M43.7,6.1H32.9c-0.1,0-0.2,0-0.3,0c-0.2,0.1-0.3,0.1-0.4,0.2
				c-0.1,0.1-0.2,0.2-0.3,0.3l-0.2,0.2l-0.6,1.5l0.2,0.2l12.3-0.1h0.2c0.1,0,0.2-0.1,0.3-0.2c0.3-0.2,0.5-0.5,0.5-1
				c0-0.4-0.1-0.7-0.4-0.9c-0.1-0.1-0.2-0.1-0.3-0.2H43.7z M3.7,13.4H3.5H0.7H0.5c-0.1,0.1-0.1,0.2-0.1,0.2s0.1,0.1,0.2,0.2l0.1,0.1
				h2.9c0.1,0,0.1-0.1,0.1-0.1c0.1-0.1,0.1-0.1,0.1-0.2S3.8,13.4,3.7,13.4z M0.4,8.8v0.4h3.7c0-0.1,0-0.2,0-0.3s0-0.1-0.1-0.2H3.8
				L0.4,8.8z M35.9,16.2c-0.1-0.1-0.2-0.1-0.3-0.1h-1.5c-0.1,0.1-0.2,0.2-0.3,0.3c-0.2,0.3-0.3,0.6-0.3,0.9s0.1,0.601,0.3,0.8
				c0.1,0.104,0.2,0.2,0.3,0.301l-0.2,0.103c-0.2-0.103-0.3-0.2-0.5-0.397c-0.3-0.303-0.5-0.603-0.5-1c0-0.199,0-0.5,0.2-0.802
				l0.2-0.3c-0.2,0-0.5,0.1-0.7,0.2C32.1,16.5,31.9,17,32,17.6c0,0.301,0.2,0.604,0.5,0.9c0.2,0.2,0.3,0.3,0.5,0.3h3.5v-0.5
				c0.1-0.1,0.2-0.3,0.3-0.5c0.1-0.399,0.1-0.8-0.1-1.2C36.4,16.6,36.2,16.4,35.9,16.2z"/>
		</defs>
		<clipPath id="SVGID_28_">
			<use xlink:href="#SVGID_27_"  overflow="visible"/>
		</clipPath>
		<path clip-path="url(#SVGID_28_)" fill="#FFFFFF" d="M5.53,10.188c0,0-2.592,0.993-2.359,2.45
			c0.232,1.457,1.239,3.943,1.781,3.084c0.543-0.855,1.482-3.518,2.027-4.368c0.496-0.773,1.718-3.125,4.438-1.721
			c0.872,0.45,2.518,1.805,2.518,1.805s1.936-4.885,7.434-4.885c0,0-5.27,2.466-6.224,5.302c-1.551,4.607,4.573,6.549,4.573,6.549
			l4.271-2.799l-3.96,3.645l-8.889,2.063c0,0,2.737-2.416,2.556-4.916c-0.146-2.014-0.803-3.443-0.803-3.443
			s-2.044-3.583-4.287-1.182c-1.65,1.768-2.494,5.236-2.494,5.236l1.626,1.715l2.013,0.17l0.774,2.914c0,0-0.542,1.201-2.633-0.428
			c-2.09-1.629-2.4-2.314-2.4-2.314s-1.625,0.941-0.696,3.687c0.928,2.742-1.586,3.17-1.645,2.912c-0.059-0.256-1.645-4.884,0-6.599
			c1.645-1.713-0.446-1.713-1.685-5.569C0.228,9.639,0.848,6.724,2.784,8.096C4.718,9.467,5.53,10.188,5.53,10.188z"/>
	</g>
	<g>
		<defs>
			<path id="SVGID_29_" d="M96.5,9.1v3.7L96.4,13H78.7v-0.7H79V12l-5.7-0.1v-0.2H70.9l-0.5,0.2H66.3l0.8,0.2v0.7L66.9,13H66v0.3
				h-0.7V12h0.2v-0.2L63,11.7l0.1,0.3L63,12.6c0,0.1-0.1,0.1-0.1,0.1c-0.104,0.1-0.104,0.1-0.2,0.1c-0.101,0-0.101-0.1-0.2-0.1
				l-0.2-0.1v-0.5l-0.1-0.2h-0.5v0.8c0,0.1-0.101,0.1-0.2,0.2V13h-0.3L61,13.5l-14.2,0.1l-0.3-0.2l-0.3-0.1l-0.7,0.3l-0.1-1h-0.7
				v0.6v0.1c0,0.1-0.1,0.1-0.1,0.2c-0.1,0-0.1,0.1-0.2,0.1h-0.1h-0.1c-0.1,0-0.2,0.1-0.2,0.2c-0.1,0.1-0.1,0.2-0.2,0.2l-0.1,0.2v3.3
				l0.2,0.1V17.9L43.4,18v1.2c0.1,0.899,0.2,1.8,0.3,2.6c0.2,0.8,0.5,1.8,0.8,3C44.7,25.4,44.8,25.9,45,26.4l0.2,0.199L39.4,28.2
				h-0.2V28c-0.2-0.6-0.4-1.3-0.6-2c-0.4-1.5-0.7-2.7-0.9-3.4c-0.2-0.699-0.3-1.5-0.3-2.3l-0.1-1L36.9,19.4L36.4,19.3h-3.6
				L31.6,19.4c-0.1,0-0.1,0-0.2,0c-0.2,0-0.3,0-0.4,0.1s-0.2,0.2-0.2,0.2L30,21.3l0.4,0.5L30.3,21.9C30.1,22,30,22,29.8,22.1
				c-0.1,0.104-0.2,0.104-0.3,0.2L29.4,22.4L27.7,25.6c-0.1,0.104-0.1,0.2,0,0.301c0,0.103,0.1,0.199,0.2,0.303
				c0.1,0.1,0.1,0.1,0.2,0.1l-0.2,0.303l-5.4-1.303l4.9-8.5c0.1-0.1,0.1-0.197,0.1-0.3c0.1-0.2,0.1-0.5,0.1-0.7
				c-0.1-0.3-0.2-0.5-0.3-0.7c-0.1-0.2-0.3-0.3-0.4-0.5c-0.2-0.1-0.3-0.2-0.5-0.2h-1.2v0.2h-0.3v-2.1h-1v-0.3H20L18.8,13h-3.6v0.3
				H12v2H9.8v0.8H8.7v-0.8l-3.6,2.3V15.7L0.5,18v0.8V18.9C0.3,19,0.3,19,0.2,19c-0.1,0-0.1,0-0.2-0.1V18.8L0.1,8.5h4.1
				c0.1,0,0.1,0.1,0.2,0.2C4.5,8.8,4.5,9,4.5,9.2L15,9.3c0.1,0,0.1,0.1,0.1,0.1c0.1,0.1,0.1,0.1,0.1,0.2h8.5V9.3h1V9H25v0.3h1V8.7h1
				l0.1,0.1l2.6-4.1l0.1-0.2c0.1-0.1,0.2-0.2,0.3-0.2c0.1-0.1,0.2-0.1,0.4-0.2c0.1,0,0.2,0,0.2,0l12.9,1.4L44,5.6
				c0.3,0.1,0.5,0.2,0.7,0.4c0.1,0.2,0.3,0.4,0.4,0.7c0.1,0.1,0.1,0.2,0.2,0.3l-0.1,2.5h0.3V8.4l0.8,0.2V8.2h0.3V8.1
				C46.6,8,46.7,8,46.7,8c0.1,0,0.1-0.1,0.2-0.1L61,8.1l0.2,0.3v0.4H61.6H61.7c0,0.2,0.1,0.2,0.1,0.3S61.9,9.5,61.9,10h0.5V8.5
				L64.8,5.2L65,5c0.2-0.1,0.3-0.2,0.5-0.2c0.4,0.1,0.7,0.2,0.8,0.4C66.4,5.3,66.4,5.4,66.4,5.5s0,0.1,0,0.1V10h4.1l0.5,0.2h2.3V10
				H79V9h17.3L96.5,9.1z M65.6,7.7c-0.1-0.1-0.1-0.1-0.199-0.2c0-0.1-0.101-0.2-0.197-0.5V6.6l-0.898-0.1l-1.4,2.2L63.1,8.9H65.7
				l0.2-0.2v-1H65.6z M63.1,10h2.5L65.7,9.6H63.1V10z M43.7,6.1H32.9c-0.1,0-0.2,0-0.3,0c-0.2,0.1-0.3,0.1-0.4,0.2
				c-0.1,0.1-0.2,0.2-0.3,0.3l-0.2,0.2l-0.6,1.5l0.2,0.2l12.3-0.1h0.2c0.1,0,0.2-0.1,0.3-0.2c0.3-0.2,0.5-0.5,0.5-1
				c0-0.4-0.1-0.7-0.4-0.9c-0.1-0.1-0.2-0.1-0.3-0.2H43.7z M3.7,13.4H3.5H0.7H0.5c-0.1,0.1-0.1,0.2-0.1,0.2s0.1,0.1,0.2,0.2l0.1,0.1
				h2.9c0.1,0,0.1-0.1,0.1-0.1c0.1-0.1,0.1-0.1,0.1-0.2S3.8,13.4,3.7,13.4z M0.4,8.8v0.4h3.7c0-0.1,0-0.2,0-0.3s0-0.1-0.1-0.2H3.8
				L0.4,8.8z M35.9,16.2c-0.1-0.1-0.2-0.1-0.3-0.1h-1.5c-0.1,0.1-0.2,0.2-0.3,0.3c-0.2,0.3-0.3,0.6-0.3,0.9s0.1,0.601,0.3,0.8
				c0.1,0.104,0.2,0.2,0.3,0.301l-0.2,0.103c-0.2-0.103-0.3-0.2-0.5-0.397c-0.3-0.303-0.5-0.603-0.5-1c0-0.199,0-0.5,0.2-0.802
				l0.2-0.3c-0.2,0-0.5,0.1-0.7,0.2C32.1,16.5,31.9,17,32,17.6c0,0.301,0.2,0.604,0.5,0.9c0.2,0.2,0.3,0.3,0.5,0.3h3.5v-0.5
				c0.1-0.1,0.2-0.3,0.3-0.5c0.1-0.399,0.1-0.8-0.1-1.2C36.4,16.6,36.2,16.4,35.9,16.2z"/>
		</defs>
		<clipPath id="SVGID_30_">
			<use xlink:href="#SVGID_29_"  overflow="visible"/>
		</clipPath>
		<path clip-path="url(#SVGID_30_)" fill="#B3B3FF" d="M29.058,14.285c0,0,6.376-1.231,8.405-0.711
			c2.03,0.521,0.797-1.615,0.221-2.833c-1.139-2.405-0.767-4.081-3.317-3.705C32.764,7.271,29.821,11.508,29.058,14.285z"/>
	</g>
	<g>
		<defs>
			<path id="SVGID_31_" d="M96.5,9.1v3.7L96.4,13H78.7v-0.7H79V12l-5.7-0.1v-0.2H70.9l-0.5,0.2H66.3l0.8,0.2v0.7L66.9,13H66v0.3
				h-0.7V12h0.2v-0.2L63,11.7l0.1,0.3L63,12.6c0,0.1-0.1,0.1-0.1,0.1c-0.104,0.1-0.104,0.1-0.2,0.1c-0.101,0-0.101-0.1-0.2-0.1
				l-0.2-0.1v-0.5l-0.1-0.2h-0.5v0.8c0,0.1-0.101,0.1-0.2,0.2V13h-0.3L61,13.5l-14.2,0.1l-0.3-0.2l-0.3-0.1l-0.7,0.3l-0.1-1h-0.7
				v0.6v0.1c0,0.1-0.1,0.1-0.1,0.2c-0.1,0-0.1,0.1-0.2,0.1h-0.1h-0.1c-0.1,0-0.2,0.1-0.2,0.2c-0.1,0.1-0.1,0.2-0.2,0.2l-0.1,0.2v3.3
				l0.2,0.1V17.9L43.4,18v1.2c0.1,0.899,0.2,1.8,0.3,2.6c0.2,0.8,0.5,1.8,0.8,3C44.7,25.4,44.8,25.9,45,26.4l0.2,0.199L39.4,28.2
				h-0.2V28c-0.2-0.6-0.4-1.3-0.6-2c-0.4-1.5-0.7-2.7-0.9-3.4c-0.2-0.699-0.3-1.5-0.3-2.3l-0.1-1L36.9,19.4L36.4,19.3h-3.6
				L31.6,19.4c-0.1,0-0.1,0-0.2,0c-0.2,0-0.3,0-0.4,0.1s-0.2,0.2-0.2,0.2L30,21.3l0.4,0.5L30.3,21.9C30.1,22,30,22,29.8,22.1
				c-0.1,0.104-0.2,0.104-0.3,0.2L29.4,22.4L27.7,25.6c-0.1,0.104-0.1,0.2,0,0.301c0,0.103,0.1,0.199,0.2,0.303
				c0.1,0.1,0.1,0.1,0.2,0.1l-0.2,0.303l-5.4-1.303l4.9-8.5c0.1-0.1,0.1-0.197,0.1-0.3c0.1-0.2,0.1-0.5,0.1-0.7
				c-0.1-0.3-0.2-0.5-0.3-0.7c-0.1-0.2-0.3-0.3-0.4-0.5c-0.2-0.1-0.3-0.2-0.5-0.2h-1.2v0.2h-0.3v-2.1h-1v-0.3H20L18.8,13h-3.6v0.3
				H12v2H9.8v0.8H8.7v-0.8l-3.6,2.3V15.7L0.5,18v0.8V18.9C0.3,19,0.3,19,0.2,19c-0.1,0-0.1,0-0.2-0.1V18.8L0.1,8.5h4.1
				c0.1,0,0.1,0.1,0.2,0.2C4.5,8.8,4.5,9,4.5,9.2L15,9.3c0.1,0,0.1,0.1,0.1,0.1c0.1,0.1,0.1,0.1,0.1,0.2h8.5V9.3h1V9H25v0.3h1V8.7h1
				l0.1,0.1l2.6-4.1l0.1-0.2c0.1-0.1,0.2-0.2,0.3-0.2c0.1-0.1,0.2-0.1,0.4-0.2c0.1,0,0.2,0,0.2,0l12.9,1.4L44,5.6
				c0.3,0.1,0.5,0.2,0.7,0.4c0.1,0.2,0.3,0.4,0.4,0.7c0.1,0.1,0.1,0.2,0.2,0.3l-0.1,2.5h0.3V8.4l0.8,0.2V8.2h0.3V8.1
				C46.6,8,46.7,8,46.7,8c0.1,0,0.1-0.1,0.2-0.1L61,8.1l0.2,0.3v0.4H61.6H61.7c0,0.2,0.1,0.2,0.1,0.3S61.9,9.5,61.9,10h0.5V8.5
				L64.8,5.2L65,5c0.2-0.1,0.3-0.2,0.5-0.2c0.4,0.1,0.7,0.2,0.8,0.4C66.4,5.3,66.4,5.4,66.4,5.5s0,0.1,0,0.1V10h4.1l0.5,0.2h2.3V10
				H79V9h17.3L96.5,9.1z M65.6,7.7c-0.1-0.1-0.1-0.1-0.199-0.2c0-0.1-0.101-0.2-0.197-0.5V6.6l-0.898-0.1l-1.4,2.2L63.1,8.9H65.7
				l0.2-0.2v-1H65.6z M63.1,10h2.5L65.7,9.6H63.1V10z M43.7,6.1H32.9c-0.1,0-0.2,0-0.3,0c-0.2,0.1-0.3,0.1-0.4,0.2
				c-0.1,0.1-0.2,0.2-0.3,0.3l-0.2,0.2l-0.6,1.5l0.2,0.2l12.3-0.1h0.2c0.1,0,0.2-0.1,0.3-0.2c0.3-0.2,0.5-0.5,0.5-1
				c0-0.4-0.1-0.7-0.4-0.9c-0.1-0.1-0.2-0.1-0.3-0.2H43.7z M3.7,13.4H3.5H0.7H0.5c-0.1,0.1-0.1,0.2-0.1,0.2s0.1,0.1,0.2,0.2l0.1,0.1
				h2.9c0.1,0,0.1-0.1,0.1-0.1c0.1-0.1,0.1-0.1,0.1-0.2S3.8,13.4,3.7,13.4z M0.4,8.8v0.4h3.7c0-0.1,0-0.2,0-0.3s0-0.1-0.1-0.2H3.8
				L0.4,8.8z M35.9,16.2c-0.1-0.1-0.2-0.1-0.3-0.1h-1.5c-0.1,0.1-0.2,0.2-0.3,0.3c-0.2,0.3-0.3,0.6-0.3,0.9s0.1,0.601,0.3,0.8
				c0.1,0.104,0.2,0.2,0.3,0.301l-0.2,0.103c-0.2-0.103-0.3-0.2-0.5-0.397c-0.3-0.303-0.5-0.603-0.5-1c0-0.199,0-0.5,0.2-0.802
				l0.2-0.3c-0.2,0-0.5,0.1-0.7,0.2C32.1,16.5,31.9,17,32,17.6c0,0.301,0.2,0.604,0.5,0.9c0.2,0.2,0.3,0.3,0.5,0.3h3.5v-0.5
				c0.1-0.1,0.2-0.3,0.3-0.5c0.1-0.399,0.1-0.8-0.1-1.2C36.4,16.6,36.2,16.4,35.9,16.2z"/>
		</defs>
		<clipPath id="SVGID_32_">
			<use xlink:href="#SVGID_31_"  overflow="visible"/>
		</clipPath>
		<path clip-path="url(#SVGID_32_)" fill="#FFFFFF" d="M24.124,7.5c-2.33,0.604-2.095,4.153-1.447,5.229
			c1.969,3.271,4.567,2.351,4.976,1.833c1.008-1.27,0.124-0.29,1.967-2.979c1.172-1.708,2.637-5.564,5.284-5.206
			c1.753,0.237,3.162,2.852,3.718,5.953c0.945,5.256,3.372,5.754,5.441,6.504c1.067,0.387-1.493,0.906-1.493,0.906
			s-4.127-1.182-4.875-6.699c-0.407-3.006-1.701-5.5-3.336-5.521c-2.579-0.031-5.3,6.763-5.3,6.763s-0.489,1.852-3.261,1.426
			c-5.836-0.896-4.253-7.167-4.253-7.167l2.737-1.417L24.124,7.5z"/>
	</g>
	<g>
		<defs>
			<path id="SVGID_33_" d="M96.5,9.1v3.7L96.4,13H78.7v-0.7H79V12l-5.7-0.1v-0.2H70.9l-0.5,0.2H66.3l0.8,0.2v0.7L66.9,13H66v0.3
				h-0.7V12h0.2v-0.2L63,11.7l0.1,0.3L63,12.6c0,0.1-0.1,0.1-0.1,0.1c-0.104,0.1-0.104,0.1-0.2,0.1c-0.101,0-0.101-0.1-0.2-0.1
				l-0.2-0.1v-0.5l-0.1-0.2h-0.5v0.8c0,0.1-0.101,0.1-0.2,0.2V13h-0.3L61,13.5l-14.2,0.1l-0.3-0.2l-0.3-0.1l-0.7,0.3l-0.1-1h-0.7
				v0.6v0.1c0,0.1-0.1,0.1-0.1,0.2c-0.1,0-0.1,0.1-0.2,0.1h-0.1h-0.1c-0.1,0-0.2,0.1-0.2,0.2c-0.1,0.1-0.1,0.2-0.2,0.2l-0.1,0.2v3.3
				l0.2,0.1V17.9L43.4,18v1.2c0.1,0.899,0.2,1.8,0.3,2.6c0.2,0.8,0.5,1.8,0.8,3C44.7,25.4,44.8,25.9,45,26.4l0.2,0.199L39.4,28.2
				h-0.2V28c-0.2-0.6-0.4-1.3-0.6-2c-0.4-1.5-0.7-2.7-0.9-3.4c-0.2-0.699-0.3-1.5-0.3-2.3l-0.1-1L36.9,19.4L36.4,19.3h-3.6
				L31.6,19.4c-0.1,0-0.1,0-0.2,0c-0.2,0-0.3,0-0.4,0.1s-0.2,0.2-0.2,0.2L30,21.3l0.4,0.5L30.3,21.9C30.1,22,30,22,29.8,22.1
				c-0.1,0.104-0.2,0.104-0.3,0.2L29.4,22.4L27.7,25.6c-0.1,0.104-0.1,0.2,0,0.301c0,0.103,0.1,0.199,0.2,0.303
				c0.1,0.1,0.1,0.1,0.2,0.1l-0.2,0.303l-5.4-1.303l4.9-8.5c0.1-0.1,0.1-0.197,0.1-0.3c0.1-0.2,0.1-0.5,0.1-0.7
				c-0.1-0.3-0.2-0.5-0.3-0.7c-0.1-0.2-0.3-0.3-0.4-0.5c-0.2-0.1-0.3-0.2-0.5-0.2h-1.2v0.2h-0.3v-2.1h-1v-0.3H20L18.8,13h-3.6v0.3
				H12v2H9.8v0.8H8.7v-0.8l-3.6,2.3V15.7L0.5,18v0.8V18.9C0.3,19,0.3,19,0.2,19c-0.1,0-0.1,0-0.2-0.1V18.8L0.1,8.5h4.1
				c0.1,0,0.1,0.1,0.2,0.2C4.5,8.8,4.5,9,4.5,9.2L15,9.3c0.1,0,0.1,0.1,0.1,0.1c0.1,0.1,0.1,0.1,0.1,0.2h8.5V9.3h1V9H25v0.3h1V8.7h1
				l0.1,0.1l2.6-4.1l0.1-0.2c0.1-0.1,0.2-0.2,0.3-0.2c0.1-0.1,0.2-0.1,0.4-0.2c0.1,0,0.2,0,0.2,0l12.9,1.4L44,5.6
				c0.3,0.1,0.5,0.2,0.7,0.4c0.1,0.2,0.3,0.4,0.4,0.7c0.1,0.1,0.1,0.2,0.2,0.3l-0.1,2.5h0.3V8.4l0.8,0.2V8.2h0.3V8.1
				C46.6,8,46.7,8,46.7,8c0.1,0,0.1-0.1,0.2-0.1L61,8.1l0.2,0.3v0.4H61.6H61.7c0,0.2,0.1,0.2,0.1,0.3S61.9,9.5,61.9,10h0.5V8.5
				L64.8,5.2L65,5c0.2-0.1,0.3-0.2,0.5-0.2c0.4,0.1,0.7,0.2,0.8,0.4C66.4,5.3,66.4,5.4,66.4,5.5s0,0.1,0,0.1V10h4.1l0.5,0.2h2.3V10
				H79V9h17.3L96.5,9.1z M65.6,7.7c-0.1-0.1-0.1-0.1-0.199-0.2c0-0.1-0.101-0.2-0.197-0.5V6.6l-0.898-0.1l-1.4,2.2L63.1,8.9H65.7
				l0.2-0.2v-1H65.6z M63.1,10h2.5L65.7,9.6H63.1V10z M43.7,6.1H32.9c-0.1,0-0.2,0-0.3,0c-0.2,0.1-0.3,0.1-0.4,0.2
				c-0.1,0.1-0.2,0.2-0.3,0.3l-0.2,0.2l-0.6,1.5l0.2,0.2l12.3-0.1h0.2c0.1,0,0.2-0.1,0.3-0.2c0.3-0.2,0.5-0.5,0.5-1
				c0-0.4-0.1-0.7-0.4-0.9c-0.1-0.1-0.2-0.1-0.3-0.2H43.7z M3.7,13.4H3.5H0.7H0.5c-0.1,0.1-0.1,0.2-0.1,0.2s0.1,0.1,0.2,0.2l0.1,0.1
				h2.9c0.1,0,0.1-0.1,0.1-0.1c0.1-0.1,0.1-0.1,0.1-0.2S3.8,13.4,3.7,13.4z M0.4,8.8v0.4h3.7c0-0.1,0-0.2,0-0.3s0-0.1-0.1-0.2H3.8
				L0.4,8.8z M35.9,16.2c-0.1-0.1-0.2-0.1-0.3-0.1h-1.5c-0.1,0.1-0.2,0.2-0.3,0.3c-0.2,0.3-0.3,0.6-0.3,0.9s0.1,0.601,0.3,0.8
				c0.1,0.104,0.2,0.2,0.3,0.301l-0.2,0.103c-0.2-0.103-0.3-0.2-0.5-0.397c-0.3-0.303-0.5-0.603-0.5-1c0-0.199,0-0.5,0.2-0.802
				l0.2-0.3c-0.2,0-0.5,0.1-0.7,0.2C32.1,16.5,31.9,17,32,17.6c0,0.301,0.2,0.604,0.5,0.9c0.2,0.2,0.3,0.3,0.5,0.3h3.5v-0.5
				c0.1-0.1,0.2-0.3,0.3-0.5c0.1-0.399,0.1-0.8-0.1-1.2C36.4,16.6,36.2,16.4,35.9,16.2z"/>
		</defs>
		<clipPath id="SVGID_34_">
			<use xlink:href="#SVGID_33_"  overflow="visible"/>
		</clipPath>
		<path clip-path="url(#SVGID_34_)" fill="#FFFFFF" d="M36.313,15.12c0.762-1.176,2.518-3.07,4.749-2.667
			c1.744,0.314,2.064,2.433,2.064,2.433s0.226-0.568,0.707-1.067c0.555-0.578,1.36-1.062,1.054-0.41
			c-0.728,1.558-1.741,6.649-3.818,7.303c-3.936,1.238-5.037-4.397-5.037-4.397s2.225,2.321,3.99,2.061
			c1.667-0.247,2.813-2.411,2.813-2.411s-0.479-3.782-3.388-2.759c-1.868,0.654-3.569,3.049-3.569,3.049L36.313,15.12z"/>
	</g>
	<g>
		<defs>
			<path id="SVGID_35_" d="M96.5,9.1v3.7L96.4,13H78.7v-0.7H79V12l-5.7-0.1v-0.2H70.9l-0.5,0.2H66.3l0.8,0.2v0.7L66.9,13H66v0.3
				h-0.7V12h0.2v-0.2L63,11.7l0.1,0.3L63,12.6c0,0.1-0.1,0.1-0.1,0.1c-0.104,0.1-0.104,0.1-0.2,0.1c-0.101,0-0.101-0.1-0.2-0.1
				l-0.2-0.1v-0.5l-0.1-0.2h-0.5v0.8c0,0.1-0.101,0.1-0.2,0.2V13h-0.3L61,13.5l-14.2,0.1l-0.3-0.2l-0.3-0.1l-0.7,0.3l-0.1-1h-0.7
				v0.6v0.1c0,0.1-0.1,0.1-0.1,0.2c-0.1,0-0.1,0.1-0.2,0.1h-0.1h-0.1c-0.1,0-0.2,0.1-0.2,0.2c-0.1,0.1-0.1,0.2-0.2,0.2l-0.1,0.2v3.3
				l0.2,0.1V17.9L43.4,18v1.2c0.1,0.899,0.2,1.8,0.3,2.6c0.2,0.8,0.5,1.8,0.8,3C44.7,25.4,44.8,25.9,45,26.4l0.2,0.199L39.4,28.2
				h-0.2V28c-0.2-0.6-0.4-1.3-0.6-2c-0.4-1.5-0.7-2.7-0.9-3.4c-0.2-0.699-0.3-1.5-0.3-2.3l-0.1-1L36.9,19.4L36.4,19.3h-3.6
				L31.6,19.4c-0.1,0-0.1,0-0.2,0c-0.2,0-0.3,0-0.4,0.1s-0.2,0.2-0.2,0.2L30,21.3l0.4,0.5L30.3,21.9C30.1,22,30,22,29.8,22.1
				c-0.1,0.104-0.2,0.104-0.3,0.2L29.4,22.4L27.7,25.6c-0.1,0.104-0.1,0.2,0,0.301c0,0.103,0.1,0.199,0.2,0.303
				c0.1,0.1,0.1,0.1,0.2,0.1l-0.2,0.303l-5.4-1.303l4.9-8.5c0.1-0.1,0.1-0.197,0.1-0.3c0.1-0.2,0.1-0.5,0.1-0.7
				c-0.1-0.3-0.2-0.5-0.3-0.7c-0.1-0.2-0.3-0.3-0.4-0.5c-0.2-0.1-0.3-0.2-0.5-0.2h-1.2v0.2h-0.3v-2.1h-1v-0.3H20L18.8,13h-3.6v0.3
				H12v2H9.8v0.8H8.7v-0.8l-3.6,2.3V15.7L0.5,18v0.8V18.9C0.3,19,0.3,19,0.2,19c-0.1,0-0.1,0-0.2-0.1V18.8L0.1,8.5h4.1
				c0.1,0,0.1,0.1,0.2,0.2C4.5,8.8,4.5,9,4.5,9.2L15,9.3c0.1,0,0.1,0.1,0.1,0.1c0.1,0.1,0.1,0.1,0.1,0.2h8.5V9.3h1V9H25v0.3h1V8.7h1
				l0.1,0.1l2.6-4.1l0.1-0.2c0.1-0.1,0.2-0.2,0.3-0.2c0.1-0.1,0.2-0.1,0.4-0.2c0.1,0,0.2,0,0.2,0l12.9,1.4L44,5.6
				c0.3,0.1,0.5,0.2,0.7,0.4c0.1,0.2,0.3,0.4,0.4,0.7c0.1,0.1,0.1,0.2,0.2,0.3l-0.1,2.5h0.3V8.4l0.8,0.2V8.2h0.3V8.1
				C46.6,8,46.7,8,46.7,8c0.1,0,0.1-0.1,0.2-0.1L61,8.1l0.2,0.3v0.4H61.6H61.7c0,0.2,0.1,0.2,0.1,0.3S61.9,9.5,61.9,10h0.5V8.5
				L64.8,5.2L65,5c0.2-0.1,0.3-0.2,0.5-0.2c0.4,0.1,0.7,0.2,0.8,0.4C66.4,5.3,66.4,5.4,66.4,5.5s0,0.1,0,0.1V10h4.1l0.5,0.2h2.3V10
				H79V9h17.3L96.5,9.1z M65.6,7.7c-0.1-0.1-0.1-0.1-0.199-0.2c0-0.1-0.101-0.2-0.197-0.5V6.6l-0.898-0.1l-1.4,2.2L63.1,8.9H65.7
				l0.2-0.2v-1H65.6z M63.1,10h2.5L65.7,9.6H63.1V10z M43.7,6.1H32.9c-0.1,0-0.2,0-0.3,0c-0.2,0.1-0.3,0.1-0.4,0.2
				c-0.1,0.1-0.2,0.2-0.3,0.3l-0.2,0.2l-0.6,1.5l0.2,0.2l12.3-0.1h0.2c0.1,0,0.2-0.1,0.3-0.2c0.3-0.2,0.5-0.5,0.5-1
				c0-0.4-0.1-0.7-0.4-0.9c-0.1-0.1-0.2-0.1-0.3-0.2H43.7z M3.7,13.4H3.5H0.7H0.5c-0.1,0.1-0.1,0.2-0.1,0.2s0.1,0.1,0.2,0.2l0.1,0.1
				h2.9c0.1,0,0.1-0.1,0.1-0.1c0.1-0.1,0.1-0.1,0.1-0.2S3.8,13.4,3.7,13.4z M0.4,8.8v0.4h3.7c0-0.1,0-0.2,0-0.3s0-0.1-0.1-0.2H3.8
				L0.4,8.8z M35.9,16.2c-0.1-0.1-0.2-0.1-0.3-0.1h-1.5c-0.1,0.1-0.2,0.2-0.3,0.3c-0.2,0.3-0.3,0.6-0.3,0.9s0.1,0.601,0.3,0.8
				c0.1,0.104,0.2,0.2,0.3,0.301l-0.2,0.103c-0.2-0.103-0.3-0.2-0.5-0.397c-0.3-0.303-0.5-0.603-0.5-1c0-0.199,0-0.5,0.2-0.802
				l0.2-0.3c-0.2,0-0.5,0.1-0.7,0.2C32.1,16.5,31.9,17,32,17.6c0,0.301,0.2,0.604,0.5,0.9c0.2,0.2,0.3,0.3,0.5,0.3h3.5v-0.5
				c0.1-0.1,0.2-0.3,0.3-0.5c0.1-0.399,0.1-0.8-0.1-1.2C36.4,16.6,36.2,16.4,35.9,16.2z"/>
		</defs>
		<clipPath id="SVGID_36_">
			<use xlink:href="#SVGID_35_"  overflow="visible"/>
		</clipPath>
		<path clip-path="url(#SVGID_36_)" fill="#FFFFFF" d="M44.987,20.548c-0.617,1.769-1.745,3.278-2.813,3.658
			c-0.401,0.144-1.26,0.416-2.501-0.076c-1.177-0.469-2.104-1.771-2.104-1.771s0.027-0.08-0.898-1.219
			c-0.658-0.811,0.434-0.313,0.434-0.313s2.067,3.877,5.08,2.514c1.932-0.873,2.396-4.156,2.396-4.156L44.987,20.548z"/>
	</g>
	<g>
		<defs>
			<path id="SVGID_37_" d="M96.5,9.1v3.7L96.4,13H78.7v-0.7H79V12l-5.7-0.1v-0.2H70.9l-0.5,0.2H66.3l0.8,0.2v0.7L66.9,13H66v0.3
				h-0.7V12h0.2v-0.2L63,11.7l0.1,0.3L63,12.6c0,0.1-0.1,0.1-0.1,0.1c-0.104,0.1-0.104,0.1-0.2,0.1c-0.101,0-0.101-0.1-0.2-0.1
				l-0.2-0.1v-0.5l-0.1-0.2h-0.5v0.8c0,0.1-0.101,0.1-0.2,0.2V13h-0.3L61,13.5l-14.2,0.1l-0.3-0.2l-0.3-0.1l-0.7,0.3l-0.1-1h-0.7
				v0.6v0.1c0,0.1-0.1,0.1-0.1,0.2c-0.1,0-0.1,0.1-0.2,0.1h-0.1h-0.1c-0.1,0-0.2,0.1-0.2,0.2c-0.1,0.1-0.1,0.2-0.2,0.2l-0.1,0.2v3.3
				l0.2,0.1V17.9L43.4,18v1.2c0.1,0.899,0.2,1.8,0.3,2.6c0.2,0.8,0.5,1.8,0.8,3C44.7,25.4,44.8,25.9,45,26.4l0.2,0.199L39.4,28.2
				h-0.2V28c-0.2-0.6-0.4-1.3-0.6-2c-0.4-1.5-0.7-2.7-0.9-3.4c-0.2-0.699-0.3-1.5-0.3-2.3l-0.1-1L36.9,19.4L36.4,19.3h-3.6
				L31.6,19.4c-0.1,0-0.1,0-0.2,0c-0.2,0-0.3,0-0.4,0.1s-0.2,0.2-0.2,0.2L30,21.3l0.4,0.5L30.3,21.9C30.1,22,30,22,29.8,22.1
				c-0.1,0.104-0.2,0.104-0.3,0.2L29.4,22.4L27.7,25.6c-0.1,0.104-0.1,0.2,0,0.301c0,0.103,0.1,0.199,0.2,0.303
				c0.1,0.1,0.1,0.1,0.2,0.1l-0.2,0.303l-5.4-1.303l4.9-8.5c0.1-0.1,0.1-0.197,0.1-0.3c0.1-0.2,0.1-0.5,0.1-0.7
				c-0.1-0.3-0.2-0.5-0.3-0.7c-0.1-0.2-0.3-0.3-0.4-0.5c-0.2-0.1-0.3-0.2-0.5-0.2h-1.2v0.2h-0.3v-2.1h-1v-0.3H20L18.8,13h-3.6v0.3
				H12v2H9.8v0.8H8.7v-0.8l-3.6,2.3V15.7L0.5,18v0.8V18.9C0.3,19,0.3,19,0.2,19c-0.1,0-0.1,0-0.2-0.1V18.8L0.1,8.5h4.1
				c0.1,0,0.1,0.1,0.2,0.2C4.5,8.8,4.5,9,4.5,9.2L15,9.3c0.1,0,0.1,0.1,0.1,0.1c0.1,0.1,0.1,0.1,0.1,0.2h8.5V9.3h1V9H25v0.3h1V8.7h1
				l0.1,0.1l2.6-4.1l0.1-0.2c0.1-0.1,0.2-0.2,0.3-0.2c0.1-0.1,0.2-0.1,0.4-0.2c0.1,0,0.2,0,0.2,0l12.9,1.4L44,5.6
				c0.3,0.1,0.5,0.2,0.7,0.4c0.1,0.2,0.3,0.4,0.4,0.7c0.1,0.1,0.1,0.2,0.2,0.3l-0.1,2.5h0.3V8.4l0.8,0.2V8.2h0.3V8.1
				C46.6,8,46.7,8,46.7,8c0.1,0,0.1-0.1,0.2-0.1L61,8.1l0.2,0.3v0.4H61.6H61.7c0,0.2,0.1,0.2,0.1,0.3S61.9,9.5,61.9,10h0.5V8.5
				L64.8,5.2L65,5c0.2-0.1,0.3-0.2,0.5-0.2c0.4,0.1,0.7,0.2,0.8,0.4C66.4,5.3,66.4,5.4,66.4,5.5s0,0.1,0,0.1V10h4.1l0.5,0.2h2.3V10
				H79V9h17.3L96.5,9.1z M65.6,7.7c-0.1-0.1-0.1-0.1-0.199-0.2c0-0.1-0.101-0.2-0.197-0.5V6.6l-0.898-0.1l-1.4,2.2L63.1,8.9H65.7
				l0.2-0.2v-1H65.6z M63.1,10h2.5L65.7,9.6H63.1V10z M43.7,6.1H32.9c-0.1,0-0.2,0-0.3,0c-0.2,0.1-0.3,0.1-0.4,0.2
				c-0.1,0.1-0.2,0.2-0.3,0.3l-0.2,0.2l-0.6,1.5l0.2,0.2l12.3-0.1h0.2c0.1,0,0.2-0.1,0.3-0.2c0.3-0.2,0.5-0.5,0.5-1
				c0-0.4-0.1-0.7-0.4-0.9c-0.1-0.1-0.2-0.1-0.3-0.2H43.7z M3.7,13.4H3.5H0.7H0.5c-0.1,0.1-0.1,0.2-0.1,0.2s0.1,0.1,0.2,0.2l0.1,0.1
				h2.9c0.1,0,0.1-0.1,0.1-0.1c0.1-0.1,0.1-0.1,0.1-0.2S3.8,13.4,3.7,13.4z M0.4,8.8v0.4h3.7c0-0.1,0-0.2,0-0.3s0-0.1-0.1-0.2H3.8
				L0.4,8.8z M35.9,16.2c-0.1-0.1-0.2-0.1-0.3-0.1h-1.5c-0.1,0.1-0.2,0.2-0.3,0.3c-0.2,0.3-0.3,0.6-0.3,0.9s0.1,0.601,0.3,0.8
				c0.1,0.104,0.2,0.2,0.3,0.301l-0.2,0.103c-0.2-0.103-0.3-0.2-0.5-0.397c-0.3-0.303-0.5-0.603-0.5-1c0-0.199,0-0.5,0.2-0.802
				l0.2-0.3c-0.2,0-0.5,0.1-0.7,0.2C32.1,16.5,31.9,17,32,17.6c0,0.301,0.2,0.604,0.5,0.9c0.2,0.2,0.3,0.3,0.5,0.3h3.5v-0.5
				c0.1-0.1,0.2-0.3,0.3-0.5c0.1-0.399,0.1-0.8-0.1-1.2C36.4,16.6,36.2,16.4,35.9,16.2z"/>
		</defs>
		<clipPath id="SVGID_38_">
			<use xlink:href="#SVGID_37_"  overflow="visible"/>
		</clipPath>
		<path clip-path="url(#SVGID_38_)" fill="#A089F4" d="M33.036,7.896"/>
	</g>
	<g>
		<defs>
			<path id="SVGID_39_" d="M96.5,9.1v3.7L96.4,13H78.7v-0.7H79V12l-5.7-0.1v-0.2H70.9l-0.5,0.2H66.3l0.8,0.2v0.7L66.9,13H66v0.3
				h-0.7V12h0.2v-0.2L63,11.7l0.1,0.3L63,12.6c0,0.1-0.1,0.1-0.1,0.1c-0.104,0.1-0.104,0.1-0.2,0.1c-0.101,0-0.101-0.1-0.2-0.1
				l-0.2-0.1v-0.5l-0.1-0.2h-0.5v0.8c0,0.1-0.101,0.1-0.2,0.2V13h-0.3L61,13.5l-14.2,0.1l-0.3-0.2l-0.3-0.1l-0.7,0.3l-0.1-1h-0.7
				v0.6v0.1c0,0.1-0.1,0.1-0.1,0.2c-0.1,0-0.1,0.1-0.2,0.1h-0.1h-0.1c-0.1,0-0.2,0.1-0.2,0.2c-0.1,0.1-0.1,0.2-0.2,0.2l-0.1,0.2v3.3
				l0.2,0.1V17.9L43.4,18v1.2c0.1,0.899,0.2,1.8,0.3,2.6c0.2,0.8,0.5,1.8,0.8,3C44.7,25.4,44.8,25.9,45,26.4l0.2,0.199L39.4,28.2
				h-0.2V28c-0.2-0.6-0.4-1.3-0.6-2c-0.4-1.5-0.7-2.7-0.9-3.4c-0.2-0.699-0.3-1.5-0.3-2.3l-0.1-1L36.9,19.4L36.4,19.3h-3.6
				L31.6,19.4c-0.1,0-0.1,0-0.2,0c-0.2,0-0.3,0-0.4,0.1s-0.2,0.2-0.2,0.2L30,21.3l0.4,0.5L30.3,21.9C30.1,22,30,22,29.8,22.1
				c-0.1,0.104-0.2,0.104-0.3,0.2L29.4,22.4L27.7,25.6c-0.1,0.104-0.1,0.2,0,0.301c0,0.103,0.1,0.199,0.2,0.303
				c0.1,0.1,0.1,0.1,0.2,0.1l-0.2,0.303l-5.4-1.303l4.9-8.5c0.1-0.1,0.1-0.197,0.1-0.3c0.1-0.2,0.1-0.5,0.1-0.7
				c-0.1-0.3-0.2-0.5-0.3-0.7c-0.1-0.2-0.3-0.3-0.4-0.5c-0.2-0.1-0.3-0.2-0.5-0.2h-1.2v0.2h-0.3v-2.1h-1v-0.3H20L18.8,13h-3.6v0.3
				H12v2H9.8v0.8H8.7v-0.8l-3.6,2.3V15.7L0.5,18v0.8V18.9C0.3,19,0.3,19,0.2,19c-0.1,0-0.1,0-0.2-0.1V18.8L0.1,8.5h4.1
				c0.1,0,0.1,0.1,0.2,0.2C4.5,8.8,4.5,9,4.5,9.2L15,9.3c0.1,0,0.1,0.1,0.1,0.1c0.1,0.1,0.1,0.1,0.1,0.2h8.5V9.3h1V9H25v0.3h1V8.7h1
				l0.1,0.1l2.6-4.1l0.1-0.2c0.1-0.1,0.2-0.2,0.3-0.2c0.1-0.1,0.2-0.1,0.4-0.2c0.1,0,0.2,0,0.2,0l12.9,1.4L44,5.6
				c0.3,0.1,0.5,0.2,0.7,0.4c0.1,0.2,0.3,0.4,0.4,0.7c0.1,0.1,0.1,0.2,0.2,0.3l-0.1,2.5h0.3V8.4l0.8,0.2V8.2h0.3V8.1
				C46.6,8,46.7,8,46.7,8c0.1,0,0.1-0.1,0.2-0.1L61,8.1l0.2,0.3v0.4H61.6H61.7c0,0.2,0.1,0.2,0.1,0.3S61.9,9.5,61.9,10h0.5V8.5
				L64.8,5.2L65,5c0.2-0.1,0.3-0.2,0.5-0.2c0.4,0.1,0.7,0.2,0.8,0.4C66.4,5.3,66.4,5.4,66.4,5.5s0,0.1,0,0.1V10h4.1l0.5,0.2h2.3V10
				H79V9h17.3L96.5,9.1z M65.6,7.7c-0.1-0.1-0.1-0.1-0.199-0.2c0-0.1-0.101-0.2-0.197-0.5V6.6l-0.898-0.1l-1.4,2.2L63.1,8.9H65.7
				l0.2-0.2v-1H65.6z M63.1,10h2.5L65.7,9.6H63.1V10z M43.7,6.1H32.9c-0.1,0-0.2,0-0.3,0c-0.2,0.1-0.3,0.1-0.4,0.2
				c-0.1,0.1-0.2,0.2-0.3,0.3l-0.2,0.2l-0.6,1.5l0.2,0.2l12.3-0.1h0.2c0.1,0,0.2-0.1,0.3-0.2c0.3-0.2,0.5-0.5,0.5-1
				c0-0.4-0.1-0.7-0.4-0.9c-0.1-0.1-0.2-0.1-0.3-0.2H43.7z M3.7,13.4H3.5H0.7H0.5c-0.1,0.1-0.1,0.2-0.1,0.2s0.1,0.1,0.2,0.2l0.1,0.1
				h2.9c0.1,0,0.1-0.1,0.1-0.1c0.1-0.1,0.1-0.1,0.1-0.2S3.8,13.4,3.7,13.4z M0.4,8.8v0.4h3.7c0-0.1,0-0.2,0-0.3s0-0.1-0.1-0.2H3.8
				L0.4,8.8z M35.9,16.2c-0.1-0.1-0.2-0.1-0.3-0.1h-1.5c-0.1,0.1-0.2,0.2-0.3,0.3c-0.2,0.3-0.3,0.6-0.3,0.9s0.1,0.601,0.3,0.8
				c0.1,0.104,0.2,0.2,0.3,0.301l-0.2,0.103c-0.2-0.103-0.3-0.2-0.5-0.397c-0.3-0.303-0.5-0.603-0.5-1c0-0.199,0-0.5,0.2-0.802
				l0.2-0.3c-0.2,0-0.5,0.1-0.7,0.2C32.1,16.5,31.9,17,32,17.6c0,0.301,0.2,0.604,0.5,0.9c0.2,0.2,0.3,0.3,0.5,0.3h3.5v-0.5
				c0.1-0.1,0.2-0.3,0.3-0.5c0.1-0.399,0.1-0.8-0.1-1.2C36.4,16.6,36.2,16.4,35.9,16.2z"/>
		</defs>
		<clipPath id="SVGID_40_">
			<use xlink:href="#SVGID_39_"  overflow="visible"/>
		</clipPath>
		
			<linearGradient id="SVGID_41_" gradientUnits="userSpaceOnUse" x1="576.918" y1="860.4346" x2="576.918" y2="855.6377" gradientTransform="matrix(0.997 -0.0776 0.0776 0.997 -563.4193 -797.9429)">
			<stop  offset="0" style="stop-color:#158CFF"/>
			<stop  offset="0.6989" style="stop-color:#FFFFFF"/>
		</linearGradient>
		<path clip-path="url(#SVGID_40_)" fill="url(#SVGID_41_)" d="M74.297,13.172c0,0,1.432-2.806,3.696-2.79
			c2.262,0.015,4.504,3.091,4.504,3.091l-4.074,1.677L74.297,13.172z"/>
	</g>
</g>
<g>
	<path fill="#F3FFFE" d="M52.835,25.452l-1.3,2.8h-2.7l6.2-12.3h3l1.8,12.3h-2.601l-0.301-2.8H52.835z M56.135,18.553l-2.1,4.499
		h2.6L56.135,18.553z"/>
	<path fill="#F3FFFE" d="M63.635,28.252c-0.699,0-1.3-0.2-1.699-0.7c-0.397-0.5-0.5-1.1-0.397-1.8l1.397-7.6
		c0.103-0.7,0.399-1.301,1-1.7c0.5-0.4,1.103-0.6,1.899-0.6h4c0.7,0,1.3,0.2,1.7,0.701c0.398,0.5,0.5,1.1,0.398,1.799l-0.302,1.9
		h-2.601l0.301-1.6c0-0.2,0-0.301,0-0.4c-0.102-0.1-0.2-0.1-0.398-0.1h-2.699c-0.399,0-0.699,0.199-0.801,0.7l-1.199,6.6
		c0,0.2,0,0.3,0,0.4c0.101,0.1,0.199,0.1,0.399,0.1h2.699c0.399,0,0.7-0.2,0.801-0.7l0.199-1.399h2.601l-0.5,2.102
		c-0.101,0.7-0.397,1.301-1,1.7c-0.5,0.397-1.101,0.601-1.898,0.601L63.635,28.252L63.635,28.252z"/>
	<path fill="#F3FFFE" d="M82.535,15.952l-0.4,2.3h-5.699l-0.5,2.5h4.602l-0.398,2.3h-4.602l-0.5,2.801h5.699l-0.399,2.302h-8.198
		l2.198-12.2L82.535,15.952L82.535,15.952z"/>
</g>
</svg>
