<?xml version="1.0" encoding="utf-8"?>
<!-- Generator: Adobe Illustrator 16.0.0, SVG Export Plug-In . SVG Version: 6.00 Build 0)  -->
<!DOCTYPE svg PUBLIC "-//W3C//DTD SVG 1.0//EN" "http://www.w3.org/TR/2001/REC-SVG-20010904/DTD/svg10.dtd">
<svg version="1.0" id="图层_1" xmlns="http://www.w3.org/2000/svg" xmlns:xlink="http://www.w3.org/1999/xlink" x="0px" y="0px"
	 width="96.5px" height="32px" viewBox="0 0 96.5 32" enable-background="new 0 0 96.5 32" xml:space="preserve">
<g id="Selected_Items">
	<g>
		<g id="Selected_Items_31_">
			
				<linearGradient id="SVGID_1_" gradientUnits="userSpaceOnUse" x1="374.96" y1="-262.75" x2="471.46" y2="-262.75" gradientTransform="matrix(1 0 0 -1 -374.96 -246.5996)">
				<stop  offset="0" style="stop-color:#8F00DB"/>
				<stop  offset="0.6452" style="stop-color:#77B9FF"/>
				<stop  offset="1" style="stop-color:#B6CAFF"/>
			</linearGradient>
			<path fill="url(#SVGID_1_)" d="M96.5,9.1v3.7L96.4,13H78.7v-0.7H79V12l-5.7-0.1v-0.2H70.9l-0.5,0.2H66.3l0.8,0.2v0.7L66.9,13H66
				v0.3h-0.7V12h0.2v-0.2L63,11.7l0.1,0.3L63,12.6c0,0.1-0.1,0.1-0.1,0.1c-0.101,0.1-0.101,0.1-0.2,0.1c-0.101,0-0.101-0.1-0.2-0.1
				l-0.2-0.1v-0.5l-0.1-0.2h-0.5v0.8c0,0.1-0.101,0.1-0.2,0.2V13h-0.3L61,13.5l-14.2,0.1l-0.3-0.2l-0.3-0.1l-0.7,0.3l-0.1-1h-0.7
				v0.6v0.1c0,0.1-0.1,0.1-0.1,0.2c-0.1,0-0.1,0.1-0.2,0.1h-0.1h-0.1c-0.1,0-0.2,0.1-0.2,0.2c-0.1,0.1-0.1,0.2-0.2,0.2l-0.1,0.2v3.3
				l0.2,0.1V17.9L43.4,18v1.2c0.1,0.899,0.2,1.8,0.3,2.6c0.2,0.8,0.5,1.8,0.8,3C44.7,25.4,44.8,25.9,45,26.4l0.2,0.199L39.4,28.2
				h-0.2V28c-0.2-0.6-0.4-1.3-0.6-2c-0.4-1.5-0.7-2.7-0.9-3.4c-0.2-0.699-0.3-1.5-0.3-2.3l-0.1-1L36.9,19.4L36.4,19.3h-3.6
				L31.6,19.4c-0.1,0-0.1,0-0.2,0c-0.2,0-0.3,0-0.4,0.1s-0.2,0.2-0.2,0.2L30,21.3l0.4,0.5L30.3,21.9C30.1,22,30,22,29.8,22.1
				c-0.1,0.101-0.2,0.101-0.3,0.2L29.4,22.4L27.7,25.6c-0.1,0.101-0.1,0.2,0,0.301c0,0.1,0.1,0.199,0.2,0.3c0.1,0.1,0.1,0.1,0.2,0.1
				l-0.2,0.3l-5.4-1.3l4.9-8.5c0.1-0.1,0.1-0.2,0.1-0.3c0.1-0.2,0.1-0.5,0.1-0.7c-0.1-0.3-0.2-0.5-0.3-0.7c-0.1-0.2-0.3-0.3-0.4-0.5
				c-0.2-0.1-0.3-0.2-0.5-0.2h-1.2v0.2h-0.3v-2.1h-1v-0.3H20L18.8,13h-3.6v0.3H12v2H9.8v0.8H8.7v-0.8l-3.6,2.3V15.7L0.5,18v0.8V18.9
				C0.3,19,0.3,19,0.2,19c-0.1,0-0.1,0-0.2-0.1V18.8L0.1,8.5h4.1c0.1,0,0.1,0.1,0.2,0.2C4.5,8.8,4.5,9,4.5,9.2L15,9.3
				c0.1,0,0.1,0.1,0.1,0.1c0.1,0.1,0.1,0.1,0.1,0.2h8.5V9.3h1V9H25v0.3h1V8.7h1l0.1,0.1l2.6-4.1l0.1-0.2c0.1-0.1,0.2-0.2,0.3-0.2
				c0.1-0.1,0.2-0.1,0.4-0.2c0.1,0,0.2,0,0.2,0l12.9,1.4L44,5.6c0.3,0.1,0.5,0.2,0.7,0.4c0.1,0.2,0.3,0.4,0.4,0.7
				c0.1,0.1,0.1,0.2,0.2,0.3l-0.1,2.5h0.3V8.4l0.8,0.2V8.2h0.3V8.1C46.6,8,46.7,8,46.7,8c0.1,0,0.1-0.1,0.2-0.1L61,8.1l0.2,0.3v0.4
				H61.6H61.7c0,0.2,0.1,0.2,0.1,0.3S61.9,9.5,61.9,10h0.5V8.5L64.8,5.2L65,5c0.2-0.1,0.3-0.2,0.5-0.2c0.4,0.1,0.7,0.2,0.8,0.4
				C66.4,5.3,66.4,5.4,66.4,5.5s0,0.1,0,0.1V10h4.1l0.5,0.2h2.3V10H79V9h17.3L96.5,9.1z M65.6,7.7c-0.1-0.1-0.1-0.1-0.199-0.2
				c0-0.1-0.101-0.2-0.2-0.5V6.6l-0.9-0.1L62.9,8.7L63.1,8.9H65.7l0.2-0.2v-1H65.6z M63.1,10h2.5L65.7,9.6H63.1V10z M43.7,6.1H32.9
				c-0.1,0-0.2,0-0.3,0c-0.2,0.1-0.3,0.1-0.4,0.2c-0.1,0.1-0.2,0.2-0.3,0.3l-0.2,0.2l-0.6,1.5l0.2,0.2l12.3-0.1h0.2
				c0.1,0,0.2-0.1,0.3-0.2c0.3-0.2,0.5-0.5,0.5-1c0-0.4-0.1-0.7-0.4-0.9c-0.1-0.1-0.2-0.1-0.3-0.2H43.7z M3.7,13.4H3.5H0.7H0.5
				c-0.1,0.1-0.1,0.2-0.1,0.2s0.1,0.1,0.2,0.2l0.1,0.1h2.9c0.1,0,0.1-0.1,0.1-0.1c0.1-0.1,0.1-0.1,0.1-0.2S3.8,13.4,3.7,13.4z
				 M0.4,8.8v0.4h3.7c0-0.1,0-0.2,0-0.3s0-0.1-0.1-0.2H3.8L0.4,8.8z M35.9,16.2c-0.1-0.1-0.2-0.1-0.3-0.1h-1.5
				c-0.1,0.1-0.2,0.2-0.3,0.3c-0.2,0.3-0.3,0.6-0.3,0.9s0.1,0.601,0.3,0.8c0.1,0.101,0.2,0.2,0.3,0.301l-0.2,0.1
				c-0.2-0.1-0.3-0.2-0.5-0.4c-0.3-0.3-0.5-0.6-0.5-1c0-0.199,0-0.5,0.2-0.8l0.2-0.3c-0.2,0-0.5,0.1-0.7,0.2
				C32.1,16.5,31.9,17,32,17.6c0,0.301,0.2,0.601,0.5,0.9c0.2,0.2,0.3,0.3,0.5,0.3h3.5v-0.5c0.1-0.1,0.2-0.3,0.3-0.5
				c0.1-0.399,0.1-0.8-0.1-1.2C36.4,16.6,36.2,16.4,35.9,16.2z"/>
		</g>
	</g>
</g>
<linearGradient id="SVGID_2_" gradientUnits="userSpaceOnUse" x1="-52.8525" y1="-233.1768" x2="-44.6899" y2="-233.1768" gradientTransform="matrix(6.6522 0 0 6.6522 351.588 1561.9419)">
	<stop  offset="0" style="stop-color:#C216FF"/>
	<stop  offset="0.6452" style="stop-color:#77B9FF"/>
	<stop  offset="1" style="stop-color:#B6CAFF"/>
</linearGradient>
<path fill="url(#SVGID_2_)" fill-opacity="0.5" d="M0,17.1c0,0,4.9-1.1,7.1-2.7c0,0-4.4,0.5-6-1.4c0,0,8.1,1.6,12.2-0.9
	c0,0-7.8,1.2-10.1-1.6c0,0,6.1,1.6,10.6,1.1c3-0.3,3.3,0.7,7,0c6.1-0.7,15.4,1,21.8,5c0,0-3.3-6.6-12.6-6.899c0,0,15.6-1.2,24.3,1.8
	c0,0-2.8-2.7-9.6-3.7c-0.6-0.1-1,1.2-1.6,1.1c-3-0.3-7.6-0.4-11.9-0.2c-0.3,0,0-2.2,1.3-2.5c3.3-0.6,12.3,0.2,12,0
	c-0.7-0.3-0.4-0.5-1.1-0.7l-6.1-0.7l-7.5-0.3l-2.6,4.6l-3.5,0.2v0.3h-8.5L0.1,9.2L0,9.5V17.1z"/>
</svg>
