<?xml version="1.0" encoding="utf-8"?>
<!-- Generator: Adobe Illustrator 16.0.0, SVG Export Plug-In . SVG Version: 6.00 Build 0)  -->
<!DOCTYPE svg PUBLIC "-//W3C//DTD SVG 1.0//EN" "http://www.w3.org/TR/2001/REC-SVG-20010904/DTD/svg10.dtd">
<svg version="1.0" id="图层_1" xmlns="http://www.w3.org/2000/svg" xmlns:xlink="http://www.w3.org/1999/xlink" x="0px" y="0px"
	 width="67.5px" height="32px" viewBox="0 0 67.5 32" enable-background="new 0 0 67.5 32" xml:space="preserve">
<g id="Selected_Items">
	<g>
		<g id="Selected_Items_34_">
			<linearGradient id="SVGID_1_" gradientUnits="userSpaceOnUse" x1="0.5" y1="16.1846" x2="66.9336" y2="16.1846">
				<stop  offset="2.300000e-007" style="stop-color:#F8D27E"/>
				<stop  offset="1" style="stop-color:#B3751F"/>
			</linearGradient>
			<path fill="url(#SVGID_1_)" d="M2.1,4.1c0,0,0.1,0,0.1,0v0h0c0,0,0.1,0,0.1,0c5,0,10,0,15,0c0.3,0,0.7,0,1,0c0,0,0.1-0.1,0.1-0.1
				c0.1,0,0.1,0,0.1,0c0,0,0.1,0,0.1,0c0.1,0,0.1,0,0.2,0c0,0,0.1,0.1,0.1,0.1c11.8,0,23.7,0,35.5,0c0.1,0,0.1,0,0.1,0
				c0.1,0,0.1,0,0.1,0c0,0,0.1,0,0.2,0c0,0,0.1,0.1,0.1,0.1c0,0,0.1,0.1,0.1,0.1c0,0,0,0.1,0,0.1c0,0,0,0.1,0,0.1c0,0,0,0,0,0
				c0.1,0,0.3,0,0.4,0c0,0,0,0.1,0,0.1c0,0,0,0.1,0,0.1c0,0,0,0.1,0,0.1c0,0,0,0.1,0,0.1c0,0,0,0.1,0,0.1s0,0.1,0,0.1
				c0,0,0,0.1,0,0.1v0c0,0,0,0.1,0,0.1s0,0.1,0,0.1s0,0.1,0,0.1c0,0,0,0.1,0,0.1v0l0,0c0,0,0,0.1,0,0.1c0,0,0,0.1,0,0.1
				c0,0,0,0.1,0,0.1v0c0,0,0,0.1,0,0.1c0,0,0,0.1,0,0.1c0,0,0,0.1,0,0.1V6c-0.1,0-0.1,0-0.2,0c0,0,0,0.1,0,0.1c0,0,0.1,0,0.1,0
				c0.1,0,0.1,0,0.2,0l0,0c0,0,0.1-0.1,0.1-0.1c0,0,0.1,0,0.1,0c0.2,0,0.3,0,0.5,0c0,0,0.1,0,0.1,0v0c0.1,0,0.1,0,0.2,0
				c0,0,0.1,0.1,0.1,0.1c0,0,0,0.1,0,0.1c0,0,0,0.1,0,0.1v0c0,0,0,0.1,0,0.1c0,0,0,0.1,0,0.1c0,0,0,0.1,0,0.1c0,0,0,0.1,0,0.1
				s0,0.1,0,0.1c0,0,0,0.1,0,0.1c0,0,0,0.1,0,0.1v0c0,0,0,0.1,0,0.1c3.3,0,6.6,0,9.9,0c0.1,0,0.1,0,0.2,0c0,0,0.1,0,0.1,0.1
				c0,0,0.1,0,0.1,0c0,0,0.1,0.1,0.1,0.1c0,0,0,0.1,0,0.1c0,0,0,0.1,0,0.1c0,0,0,0.1,0,0.1v0c0,0,0,0.1,0,0.1c0,0,0,0.1,0,0.1
				c0,0,0,0.1,0,0.1c0,0,0,0.1,0,0.1c0,0,0,0.1,0,0.1c0,0,0,0.1,0,0.1c0,0,0,0.1,0,0.1v0c0,0,0,0.1,0,0.1s0,0.1,0,0.1s0,0.1,0,0.1
				c0,0,0,0.1,0,0.1c0,0,0,0.1,0,0.1c0,0,0,0.1,0,0.1s0,0,0,0.1v0c0,0,0,0.1,0,0.1s0,0.1,0,0.1c0,0,0,0.1,0,0.1c0,0,0,0.1,0,0.1
				c0,0,0,0.1,0,0.1c0,0,0,0.1,0,0.1c0,0,0,0.1,0,0.1v0c0,0-0.1,0.1-0.1,0.1c0,0,0,0.1,0,0.1v0c0,0-0.1,0.1-0.1,0.1c0,0,0,0.1,0,0.1
				l0,0c0,0-0.1,0-0.1,0s-0.1,0-0.1,0c-1.6,0-3.2,0-4.8,0c0,0,0,0.1,0,0.1v0c0,0,0,0.1,0,0.1c0,0,0,0.1,0,0.1c0,0,0,0.1,0,0.1v0.1h0
				v0c0,0-0.1,0-0.1,0c0,0,0,0.1,0,0.1c0,0-0.1,0.1-0.1,0.1h0c0,0-0.1,0-0.1,0c-0.1,0-0.1,0-0.2,0c0,0-0.1,0-0.1,0
				c-1.4,0-2.8,0-4.2,0c0,0-0.1,0-0.1,0c0,0-0.1,0-0.1,0c0,0-0.1,0-0.1,0c0,0-0.1,0.1-0.1,0.1l0,0c0,0,0,0.1,0,0.1c0,0,0,0.1,0,0.1
				c0,0-0.1,0-0.1,0c0,0,0,0.1,0,0.1c0,0,0,0.1,0,0.1c0,0-0.1,0-0.1,0c0,0-0.1,0-0.1,0c0,0-0.1,0-0.1,0c0,0-0.1,0-0.1,0
				c-0.1,0-0.1,0-0.2,0v0.1c-0.5,0-0.9,0-1.4,0v0c0,0,0,0.1,0,0.1c0,0,0,0,0,0.1c0,0,0,0.1,0,0.1c0,0,0,0.1,0,0.1c0,0,0,0.1,0,0.1v0
				c0,0,0,0.1,0,0.1c0,0,0,0,0,0.1c0,0,0,0.1,0,0.1v0.1c-0.1,0-0.2,0-0.3,0v0c0,0,0,0.1,0,0.1c0,0,0,0,0,0.1c0,0,0,0,0,0
				c0,0,0,0.1,0,0.1c0,0,0,0.1,0,0.1c0,0-0.1,0.1-0.1,0.1c0,0,0,0.1,0,0.1c0,0,0,0.1-0.1,0.1c0,0,0,0.1,0,0.1c0,0,0,0.1,0,0.1l0,0
				c0,0,0,0.1,0,0.1c0,0,0,0.1,0,0.1c0,0,0,0.1,0,0.1c0,0-0.1,0.1-0.1,0.1c0,0,0,0.1,0,0.1v0c0,0,0,0.1,0,0.1c0,0,0,0,0,0
				c0,0,0,0,0,0c0,0,0,0.1,0,0.1c0,0,0,0,0,0.1c0,0,0,0,0,0c0,0-0.1,0.1-0.1,0.1c0,0,0,0.1,0,0.1c0,0-0.1,0.1-0.1,0.1
				c0,0-0.1,0.1-0.1,0.1l-0.1,0.1c0,0-0.1,0-0.1,0c0,0,0,0,0,0.1c0,0-0.1,0.1-0.1,0.1h0c0,0,0,0-0.1,0l0,0c0,0,0,0.1,0,0.1
				c0,0,0,0.1,0,0.1c0,0,0,0,0,0c0,0-0.1,0.1-0.1,0.1c-0.1,0-0.2,0.1-0.2,0.1c-0.1,0-0.1,0.1-0.2,0.1v0l0,0c-0.2,0-0.3,0-0.5,0
				c0,0,0,0,0,0c-0.1,0-0.1,0-0.2,0c-0.5,0-1,0-1.5,0c-0.1,0-0.1,0-0.2,0c0,0,0-0.1,0-0.1c0,0,0,0-0.1,0c-0.1,0-0.2,0-0.3,0
				c0,0-0.1,0-0.1,0l0,0c0,0-0.1,0-0.1,0c-0.1,0-0.1,0-0.2,0c0,0-0.1-0.1-0.1-0.1c0,0,0-0.1,0-0.1h0c-0.1,0-0.1,0-0.2,0
				c0,0-0.1-0.1-0.1-0.1c0,0,0-0.1,0-0.1c0,0-0.1-0.1-0.1-0.1v0c-1.4,0-2.8,0-4.2,0c0,0,0,0,0,0h0c-0.1,0-0.1,0-0.2,0
				c-0.2,0-0.3,0-0.5,0l0,0c-0.1,0-0.1,0-0.1,0c-0.1,0-0.1,0-0.2,0c0,0,0,0.1,0,0.1c-0.1,0-0.1,0.1-0.2,0.1c0,0-0.1,0.1-0.1,0.1
				c0,0-0.1,0-0.1,0c0,0,0,0.1,0,0.1c0,0,0,0.1,0,0.1h0c-0.1,0-0.1,0-0.2,0c0,0-0.1,0.1-0.1,0.1c0,0-0.1,0.1-0.1,0.1
				c0,0,0,0-0.1,0.1c0,0,0,0.1,0,0.1c0,0,0,0.1,0,0.1c-0.1,0-0.1,0.1-0.2,0.1c0,0-0.1,0.1-0.1,0.1c0,0-0.1,0-0.1,0c0,0,0,0.1,0,0.1
				c0,0,0,0.1-0.1,0.1c0,0,0,0.1,0,0.1c0,0-0.1,0.1-0.1,0.1s0,0.1,0,0.1c0,0-0.1,0.1-0.1,0.1c0,0,0,0.1,0,0.1v0c0,0,0,0.1,0,0.1
				c0,0,0,0.1,0,0.1c0,0-0.1,0.1-0.1,0.1c0,0,0,0.1,0,0.1c0,0,0,0.1,0,0.1c0,0,0,0,0,0.1c0,0,0,0.1,0,0.1c0,0,0,0,0,0
				c0,0,0,0.1,0,0.1c0,0,0,0.1,0,0.1c0,0,0,0,0,0.1c0,0,0,0.1,0,0.1c0,0,0,0.1,0,0.1c-0.1,0-0.1,0.1-0.1,0.1c0,0,0,0.1,0,0.1
				c0,0-0.1,0-0.1,0c0,0,0,0.1,0,0.1c0,0-0.1,0.1-0.1,0.1c0,0,0,0,0,0l0,0c-0.1,0-0.1,0-0.1,0c0,0-0.1,0-0.2,0l0,0
				c-0.1,0-0.1,0-0.2,0c-0.1,0-0.2,0-0.3,0l0,0c-0.1,0-0.1,0-0.1,0c-0.1,0-0.2,0-0.3,0c0,0-0.1,0-0.1,0l0,0c0,0,0,0-0.1,0
				c-0.1,0-0.1,0-0.2,0c0,0,0-0.1,0-0.1c0,0-0.1,0-0.1,0c-0.1,0-0.1-0.1-0.2-0.1c0,0-0.1,0-0.1,0c0,0,0,0-0.1-0.1
				c-0.1,0-0.2,0-0.3,0c0,0-0.1-0.1-0.1-0.1c0,0,0,0,0,0c0,0,0-0.1,0-0.1s0-0.1,0-0.1c0,0-0.1-0.1-0.1-0.1c0,0,0-0.1,0-0.1
				c0,0,0-0.1,0-0.1c0,0,0-0.1,0-0.1c0,0,0-0.1,0-0.1v0c0,0,0-0.1,0-0.1c0,0,0-0.1,0-0.1c0,0-0.1-0.1-0.1-0.1c0,0,0,0,0-0.1
				c0,0,0-0.1,0-0.1c0,0,0-0.1,0-0.1s0-0.1,0-0.1v-0.1c0,0,0-0.1,0-0.1s0-0.1,0-0.1s0-0.1,0-0.1c0,0,0-0.1,0-0.1v0c0,0,0,0,0-0.1
				c0,0,0-0.1,0-0.1c0,0,0-0.1,0-0.1c0,0,0-0.1,0-0.1c0,0,0-0.1,0-0.1c0,0,0-0.1,0-0.1c0,0,0-0.1,0-0.1c0,0,0,0,0,0c0,0,0-0.1,0-0.1
				c-2,0-3.9,0-5.9,0c0,0,0,0,0,0c-0.1,0-0.1,0-0.2,0c0,0-0.1,0-0.1,0c0,0-0.1,0-0.1,0c0,0,0,0.1,0,0.1s0,0.1,0,0.1c0,0,0,0.1,0,0.1
				c0,0-0.1,0.1-0.1,0.1c0,0,0,0,0,0l0,0v0l-0.1,0.1c0,0,0,0.1,0,0.1c-0.1,0-0.1,0-0.1,0c0,0,0,0.1,0,0.1c0,0,0,0.1,0,0.1
				c0,0,0,0.1,0,0.1c0,0-0.1,0.1-0.1,0.1c0,0-0.1,0.1-0.1,0.1c0,0,0,0.1,0,0.1c0,0-0.1,0.1-0.1,0.1c0,0-0.1,0-0.1,0c0,0,0,0.1,0,0.1
				c0,0-0.1,0.1-0.1,0.1c0,0-0.1,0-0.1,0.1c0,0,0,0.1,0,0.1c0,0-0.1,0.1-0.1,0.1c0,0-0.1,0.1-0.1,0.1c0,0,0,0.1,0,0.1
				c-0.1,0-0.1,0-0.1,0c0,0,0,0,0,0.1c0,0-0.1,0.1-0.1,0.1c0,0-0.1,0.1-0.1,0.1c0,0,0,0.1-0.1,0.1c0,0-0.1,0.1-0.1,0.1
				c0,0-0.1,0.1-0.1,0.1c-0.1,0-0.1,0.1-0.1,0.1c0,0-0.1,0-0.1,0c0,0,0,0.1,0,0.1c0,0,0,0.1,0,0.1h0c-0.1,0-0.1,0-0.2,0
				c0,0,0,0.1,0,0.1c0,0,0,0.1,0,0.1l0,0c0,0-0.1,0-0.1,0c0,0-0.1,0-0.1,0c0,0-0.1,0-0.1,0c0,0,0,0,0,0c0,0,0,0.1,0,0.1
				c0,0-0.1,0-0.1,0c0,0-0.1,0-0.1,0c-1.7,0-3.4,0-5.1,0c0,0-0.1,0-0.1,0c0,0-0.1,0-0.1,0c-0.1,0-0.1,0-0.2,0c0,0-0.1-0.1-0.1-0.1
				c0,0,0-0.1,0-0.1c0,0,0-0.1,0-0.1c0,0,0-0.1,0-0.1l0,0c0,0-0.1,0-0.1,0c0,0,0,0.1,0,0.1c0,0,0,0,0,0c0,0,0,0.1,0,0.1c0,0,0,0,0,0
				c0,0,0,0.1,0,0.1v0c0,0,0,0.1,0,0.1c0,0-0.1,0-0.1,0c0,0,0,0,0,0.1v0c0,0,0,0,0,0.1c0,0-0.1,0-0.1,0c0,0,0,0.1,0,0.1v0
				c0,0,0,0.1,0,0.1v0c0,0,0,0.1,0,0.1v0c0,0,0,0.1,0,0.1v0c0,0,0,0.1,0,0.1c0,0,0,0,0,0c0,0,0,0.1,0,0.1c0,0,0,0,0,0s0,0.1,0,0.1v0
				c0,0,0,0,0,0.1c0,0-0.1,0-0.1,0c0,0,0,0.1,0,0.1c0,0,0,0,0,0c0,0,0,0.1,0,0.1v0c0,0,0,0.1,0,0.1c0,0-0.1,0-0.1,0c0,0,0,0.1,0,0.1
				v0c0,0,0,0.1,0,0.1c0,0,0,0,0,0c0,0,0,0.1,0,0.1c0,0,0,0,0,0c0,0,0,0.1,0,0.1v0c0,0,0,0.1,0,0.1c0,0,0,0-0.1,0c0,0,0,0.1,0,0.1
				c0,0,0,0,0,0c0,0,0,0.1,0,0.1c0,0,0,0,0,0c0,0,0,0,0,0.1c0,0,0,0,0,0c0,0,0,0.1,0,0.1v0c0,0,0,0.1,0,0.1c0,0-0.1,0-0.1,0
				c0,0,0,0.1,0,0.1v0c0,0,0,0,0,0.1c0,0,0,0,0,0s0,0.1,0,0.1c0,0,0,0,0,0s0,0.1,0,0.1c0,0,0,0.1,0,0.1c0,0,0,0,0,0c0,0,0,0.1,0,0.1
				c0,0,0,0,0,0c0,0,0,0.1,0,0.1c0,0-0.1,0-0.1,0c0,0,0,0.1,0,0.1c0,0,0,0,0,0c0,0,0,0.1,0,0.1c0,0,0,0,0,0c0,0,0,0.1,0,0.1l0,0
				c0,0,0,0.1,0,0.1v0c0,0,0,0.1,0,0.1c0,0,0,0,0,0v0l0,0.1c0,0,0,0,0,0v0.1h0l0,0c0,0,0,0.1,0,0.1c0,0,0,0,0,0c0,0,0,0,0,0v0.1l0,0
				l0,0.1c0,0-0.1,0-0.1,0c0,0,0,0.1,0,0.1c0,0-0.1,0-0.1,0c0,0,0,0.1,0,0.1c0,0-0.1,0-0.1,0v0.1c0,0,0.1,0,0.1,0c0,0,0.1,0,0.1,0
				c0,0,0,0.1,0,0.1c0,0-0.1,0-0.1,0c0,0,0,0.1,0,0.1l0,0c0,0,0,0.1,0,0.1v0c0,0,0,0.1,0,0.1v0c0,0,0,0.1,0,0.1c0,0-0.1,0-0.1,0
				c0,0,0,0.1,0,0.1l0,0c0,0,0,0.1,0,0.1v0c0,0,0,0.1,0,0.1v0c0,0,0,0.1,0,0.1v0c0,0,0,0.1,0,0.1V24c0,0,0,0,0,0c0,0,0,0-0.1,0
				c0,0,0,0.1,0,0.1c0,0,0,0,0,0c0,0,0,0.1,0,0.1v0.2c0,0-0.1,0-0.1,0c0,0,0,0.1,0,0.1l0,0c0,0,0,0.1,0,0.1v0c0,0,0,0,0,0.1
				c0,0,0,0,0,0v0c-0.1,0-0.1,0-0.1,0c0,0-0.1,0-0.1,0c0,0-0.1,0-0.1,0c0,0-0.1,0-0.1,0c0,0,0,0-0.1,0c0,0-0.1,0-0.1,0c0,0,0,0,0,0
				c0,0,0,0.1,0,0.1c0,0-0.1,0-0.1,0c0,0,0,0.1,0,0.1v0c0,0,0,0.1,0,0.1c0,0-0.1,0-0.1,0c0,0-0.1,0.1-0.1,0.1v0c0,0,0,0.1,0,0.1
				c0,0,0,0,0,0c0,0,0,0.1,0,0.1v0c0,0,0,0,0,0.1v0c0,0,0,0.1,0,0.1c0,0-0.1,0-0.1,0c0,0,0,0.1,0,0.1v0c0,0,0,0,0,0.1v0
				c0,0,0,0.1,0,0.1l0,0c0,0,0,0.1,0,0.1v0c0,0,0,0.1,0,0.1v0c0,0,0,0.1,0,0.1c0.1,0,0.1,0,0.1,0.1c0,0,0.1,0,0.1,0c0,0,0,0.1,0,0.1
				c0,0,0,0.1,0,0.1c0,0-0.1,0.1-0.1,0.1c0,0-0.1,0-0.1,0c0,0-0.1,0-0.2,0c0,0,0,0.1,0,0.1c0,0-0.1,0-0.1,0c0,0,0,0.1,0,0.1l0,0
				c0,0,0,0.1,0,0.1l0,0c0,0,0,0.1,0,0.1v0c0,0,0,0.1,0,0.1c0,0,0,0,0,0h0c-0.1,0-0.2,0-0.3,0v0.1c0,0,0,0.1,0,0.1v0
				c0,0,0,0.1,0,0.1c0,0,0.1,0.1,0.1,0.1l0,0v0c0,0,0,0.1,0,0.1s0,0.1,0,0.1c0,0,0,0.1,0,0.1c0,0,0,0,0,0v0c0,0,0,0,0,0.1h0
				c-0.1,0-0.1,0-0.2,0c-2.5,0-5,0-7.4,0c0,0-0.1,0-0.1,0c0,0-0.1,0-0.1,0c-0.1,0-0.1,0-0.2,0c-0.1,0-0.1,0-0.2,0c0,0-0.1,0-0.1,0
				c0,0-0.1,0-0.1,0c-0.1,0-0.1,0-0.2,0c0,0-0.1-0.1-0.1-0.1c0,0-0.1-0.1-0.1-0.1c0,0,0-0.1-0.1-0.1c0,0-0.1-0.1-0.1-0.1
				c0,0,0-0.1,0-0.1c0,0-0.1-0.1-0.1-0.1c0,0-0.1,0-0.1,0c0,0-0.1-0.1-0.1-0.1c0,0-0.1-0.1-0.1-0.1c0,0,0-0.1,0-0.1s0-0.1,0-0.1
				c0,0,0-0.1,0-0.1c0,0,0,0,0-0.1c0,0,0-0.1,0-0.1v0c0,0,0-0.1,0.1-0.1c0,0,0.1-0.1,0.1-0.1c0.1,0,0.1,0,0.1,0c0,0,0.1,0,0.1,0
				c0.1,0,0.1,0,0.2,0c0,0,0,0.1,0.1,0.1c0,0,0,0.1,0,0.1v-0.1c0,0,0-0.1,0-0.1V27c0,0-0.1-0.1-0.1-0.1c0,0,0-0.1,0-0.1c0,0,0,0,0,0
				v-0.1c0,0,0-0.1,0-0.1l0.1-0.1h0c0,0,0,0,0-0.1v0c0,0,0-0.1,0-0.1s0,0,0,0c0,0,0-0.1,0-0.1c0,0,0,0,0,0c0,0,0,0,0,0
				c0,0,0.1,0,0.1-0.1c0,0,0,0,0.1,0c0,0,0,0,0-0.1c0,0,0.1,0,0.1,0c0,0,0-0.1,0-0.1l0,0c0,0,0-0.1,0-0.1c0,0,0.1,0,0.1,0
				c0,0,0-0.1,0-0.1c0,0,0,0,0,0c0,0,0-0.1,0-0.1v0c0,0,0-0.1,0-0.1v0c0,0,0-0.1,0-0.1c0,0,0.1,0,0.1,0c0,0,0-0.1,0-0.1c0,0,0,0,0,0
				c0,0,0,0,0-0.1c0,0,0.1,0,0.1,0c0,0,0-0.1,0-0.1v0c0,0,0-0.1,0-0.1c0,0,0.1,0,0.1,0c0,0,0-0.1,0-0.1s0,0,0,0c0,0,0-0.1,0-0.1
				c0,0,0,0,0,0c0,0,0-0.1,0-0.1v0c0,0,0-0.1,0-0.1v0c0,0,0-0.1,0-0.1c0,0,0.1,0,0.1,0c0,0,0-0.1,0-0.1v0c0,0,0-0.1,0-0.1
				c0,0,0,0,0,0c0,0,0-0.1,0-0.1c0,0,0,0,0.1,0c0,0,0-0.1,0-0.1l0,0c0,0,0-0.1,0-0.1v0c0,0,0-0.1,0-0.1c0,0,0,0,0,0c0,0,0-0.1,0-0.1
				v-0.1c0,0,0-0.1,0-0.1l0,0c0,0,0-0.1,0-0.1s0,0,0,0c0,0,0-0.1,0-0.1s0,0,0,0c0,0,0-0.1,0-0.1v0c0,0,0-0.1,0-0.1c0,0,0.1,0,0.1,0
				c0,0,0-0.1,0-0.1c0,0,0,0,0,0c0,0,0-0.1,0-0.1c0,0,0,0,0,0c0,0,0-0.1,0-0.1v0c0,0,0-0.1,0-0.1l0,0c0,0,0-0.1,0-0.1
				c0,0,0.1,0,0.1,0c0,0,0-0.1,0-0.1v0c0,0,0-0.1,0-0.1v0c0,0,0,0,0-0.1l0,0c0,0,0-0.1,0-0.1c0.1,0,0.1,0,0.1,0c0,0,0-0.1,0-0.1
				s0,0,0,0c0,0,0-0.1,0-0.1v0c0,0,0-0.1,0-0.1s0,0,0,0c0,0,0-0.1,0-0.1v0c0,0,0-0.1,0-0.1v0c0,0,0-0.1,0-0.1v0c0,0,0,0,0-0.1l0,0
				c0,0,0-0.1,0-0.1c0,0,0,0,0,0c0,0,0-0.1,0-0.1l0,0v-0.1c0,0,0.1,0,0.1,0v0c0,0,0-0.1,0-0.1v0c0,0,0-0.1,0-0.1v0l0,0l0,0v0l0,0
				c0,0,0-0.1,0-0.1l0,0c0,0,0-0.1,0-0.1v0c0,0,0-0.1,0-0.1c0,0,0.1,0,0.1,0c0,0,0-0.1,0-0.1v0c0,0,0-0.1,0-0.1l0,0c0,0,0-0.1,0-0.1
				s0,0,0,0c0,0,0-0.1,0-0.1s0,0,0,0c0,0,0-0.1,0-0.1s0,0,0,0c0,0,0-0.1,0-0.1v0h0c0,0,0.1,0,0.1,0v0c0,0,0-0.1,0-0.1l0,0
				c0,0,0-0.1,0-0.1l0,0c0,0,0-0.1,0-0.1v0c0,0,0-0.1,0-0.1v0c0,0,0,0,0-0.1v-0.1c0,0,0-0.1,0-0.1v0c0,0,0-0.1,0-0.1v0
				c0,0,0-0.1,0-0.1v0c0,0,0-0.1,0-0.1v0c0,0,0-0.1,0-0.1v0c0,0,0-0.1,0-0.1v0c0,0,0-0.1,0-0.1v0c0,0,0-0.1,0-0.1c0,0,0.1,0,0.1,0
				c0,0,0-0.1,0-0.1c0,0,0,0,0,0c0,0,0,0,0-0.1l0,0c0,0,0-0.1,0-0.1l0,0c0,0,0-0.1,0-0.1c0,0,0,0,0,0c0,0,0-0.1,0-0.1v0
				c0,0,0-0.1,0-0.1v0c0,0,0-0.1,0-0.1v0c0,0,0-0.1,0-0.1c0,0,0,0,0,0c0,0,0-0.1,0-0.1c0,0,0,0,0,0c0,0,0-0.1,0-0.1c0,0,0.1,0,0.1,0
				c0,0,0-0.1,0-0.1v0c0,0,0-0.1,0-0.1c0,0,0,0,0,0c0,0,0-0.1,0-0.1v0c0,0,0-0.1,0-0.1v0c0,0,0-0.1,0-0.1c0,0,0,0,0,0
				c0,0,0-0.1,0-0.1c0,0,0,0,0,0c0,0,0-0.1,0-0.1c0,0,0,0,0,0c0,0,0-0.1,0-0.1l0,0c0,0,0-0.1,0-0.1l0,0c0,0,0-0.1,0-0.1
				c0,0-0.1,0-0.1,0c0,0,0,0,0-0.1c-0.1,0-0.1,0-0.2,0c0,0-0.1,0-0.1,0c0,0,0,0,0,0c-0.1,0-0.2,0-0.3,0c-0.1,0-0.1,0-0.2,0
				c0,0,0-0.1,0-0.1c-0.2,0-0.3,0-0.5,0c0,0-0.1,0-0.1,0c0,0,0,0,0,0c-0.1,0-0.3,0-0.4,0c-0.1,0-0.1,0-0.2,0c0,0,0-0.1,0-0.1
				c-0.1,0-0.3,0-0.4,0c0,0-0.1,0-0.1,0c0,0,0,0,0,0c-0.1,0-0.2,0-0.3,0c-0.1,0-0.1,0-0.2,0c0,0,0-0.1,0-0.1c-0.1,0-0.2,0-0.3,0
				c0,0-0.1,0-0.1,0c0,0,0,0,0,0c-0.2,0-0.3,0-0.5,0c-0.1,0-0.1,0-0.2,0c0,0,0-0.1,0-0.1c-0.1,0-0.3,0-0.4,0c0,0-0.1,0-0.1,0l0,0
				c-0.1,0-0.2,0-0.2,0c-0.1,0-0.1,0-0.2,0c0,0,0-0.1,0-0.1c-0.1,0-0.1,0-0.2,0c0,0-0.1,0-0.1,0l0,0c-0.1,0-0.2,0-0.2,0
				c-0.1,0-0.1,0-0.2,0c0,0,0-0.1,0-0.1c-0.1,0-0.1,0-0.1,0c0,0-0.1,0-0.1,0c0,0,0,0,0,0c0,0-0.1,0-0.1,0c-0.1,0-0.1,0-0.2,0
				c0,0,0-0.1,0-0.1c-0.1,0-0.1,0-0.2,0c0,0-0.1,0-0.1,0l0,0c-0.1,0-0.1,0-0.2,0c0,0-0.1,0-0.2,0c0,0,0-0.1,0-0.1c0,0-0.1,0-0.1,0
				c0,0-0.1,0-0.1,0l0,0c-0.1,0-0.1,0-0.2,0c0,0-0.1,0-0.2,0c0,0,0-0.1,0-0.1c0,0,0,0-0.1,0c0,0-0.1,0-0.1,0l0,0c-0.1,0-0.1,0-0.2,0
				c-0.1,0-0.1,0-0.2,0c0,0-0.1-0.1-0.1-0.1c0,0-0.1-0.1-0.1-0.1h0c-0.1,0-0.1,0-0.2,0c0,0-0.1-0.1-0.1-0.1c0,0-0.1-0.1-0.1-0.1h0
				c-0.1,0-0.1,0-0.2,0c0,0-0.1,0-0.1-0.1c0,0-0.1,0-0.1-0.1c0,0-0.1,0-0.1,0c-0.1,0-0.1,0-0.2,0c0,0-0.1-0.1-0.1-0.1
				c0,0,0-0.1,0-0.1h0c-0.1,0-0.1,0-0.2,0c0,0,0-0.1,0-0.1c0,0,0,0-0.1,0c-0.1,0-0.1-0.1-0.2-0.1c-0.1,0-0.1,0-0.1,0
				c0,0-0.1-0.1-0.1-0.1s0-0.1,0-0.1c-0.1,0-0.1-0.1-0.1-0.1c0,0-0.1-0.1-0.1-0.1c0,0-0.1-0.1-0.1-0.1c0,0-0.1-0.1-0.1-0.1
				C3.1,12,3.1,12,3,11.9c-0.1,0-0.1,0-0.1,0c0,0-0.1-0.1-0.1-0.1c0,0,0-0.1,0-0.1c-0.1,0-0.1-0.1-0.1-0.1c0,0-0.1-0.1-0.1-0.1
				c0,0,0-0.1,0-0.1c0,0-0.1-0.1-0.1-0.1c-0.1,0-0.1-0.1-0.2-0.1c0,0-0.1,0-0.1,0c0,0-0.1-0.1-0.1-0.1c0,0-0.1,0-0.1-0.1
				c-0.1,0-0.1-0.1-0.1-0.1c0,0,0,0,0,0c-0.1,0-0.2,0-0.3,0c0,0,0-0.1,0-0.1c0,0,0-0.1,0-0.1c0,0-0.1-0.1-0.1-0.1
				c0,0-0.1-0.1-0.1-0.1c0,0-0.1-0.1-0.1-0.1c0,0-0.1-0.1-0.1-0.1c0,0,0-0.1-0.1-0.1c0,0-0.1-0.1-0.1-0.1l0,0c0,0,0-0.1,0-0.1v0
				c0,0-0.1,0-0.1,0c0,0-0.1,0-0.1,0c0,0,0-0.1,0-0.1c0,0,0-0.1,0-0.1c0,0,0,0,0-0.1c0,0-0.1,0-0.1-0.1c0,0,0-0.1,0-0.1
				c0,0-0.1-0.1-0.1-0.1c0,0,0-0.1,0-0.1c0,0,0,0,0,0c0,0,0-0.1,0-0.1s0-0.1,0-0.1c0,0,0-0.1,0-0.1c0,0,0-0.1,0-0.1c0,0,0-0.1,0-0.1
				s0-0.1,0-0.1c0,0,0-0.1,0-0.1v0c0,0,0-0.1,0-0.1c0,0,0,0,0-0.1c0,0,0-0.1,0-0.1s0-0.1,0-0.1c0,0,0-0.1,0-0.1c0,0,0-0.1,0-0.1
				s0-0.1,0-0.1v0c0,0,0-0.1,0-0.1c0,0,0-0.1,0-0.1c0,0,0-0.1,0-0.1s0-0.1,0-0.1c0,0,0-0.1,0-0.1c0,0,0-0.1,0-0.1c0,0,0-0.1,0-0.1v0
				c0,0,0-0.1,0-0.1c0,0,0-0.1,0-0.1s0-0.1,0-0.1c0,0,0-0.1,0-0.1c0,0,0-0.1,0-0.1c0,0,0-0.1,0-0.1c0,0,0-0.1,0-0.1v0
				c0,0,0.1-0.1,0.1-0.1c0,0,0-0.1,0.1-0.1c0,0,0-0.1,0-0.1c0,0,0-0.1,0-0.1c0,0,0.1-0.1,0.1-0.1C1,6.9,1,6.9,1,6.8c0,0,0-0.1,0-0.1
				c0,0,0,0,0.1,0c0,0,0,0,0-0.1c0,0,0-0.1,0-0.1c0,0,0-0.1,0-0.1c0,0,0-0.1,0-0.1c0,0,0-0.1,0-0.1c0,0,0.1-0.1,0.1-0.1
				c0,0,0-0.1,0-0.1v0c0,0,0-0.1,0-0.1c0,0,0-0.1,0-0.1c0,0,0-0.1,0-0.1s0-0.1,0-0.1c0,0,0-0.1,0-0.1c0,0,0-0.1,0-0.1
				c0,0,0-0.1,0-0.1v0c0,0,0-0.1,0-0.1c0,0,0-0.1,0-0.1c0,0,0-0.1,0-0.1c0,0,0,0,0-0.1c0,0,0-0.1,0-0.1s0-0.1,0-0.1s0-0.1,0-0.1v0
				c0,0,0.1-0.1,0.1-0.1c0,0,0-0.1,0-0.1c0,0,0-0.1,0-0.1c0,0,0-0.1,0-0.1c0,0,0-0.1,0-0.1c0,0,0-0.1,0-0.1c0,0,0-0.1,0-0.1
				c0,0,0.1,0,0.1,0c0,0,0.1-0.1,0.1-0.1c0,0,0-0.1,0-0.1c0,0,0.1-0.1,0.1-0.1C2,4.1,2,4.1,2.1,4.1z M29,14.1c-1.2,0-2.4,0-3.6,0v0
				c0,0,0,0.1,0,0.1c0,0,0,0.1,0,0.1s0,0.1,0,0.1s0,0.1,0,0.1c0,0,0,0.1,0,0.1v0c0,0,0,0.1,0,0.1c0,0,0,0.1,0,0.1c0,0,0,0,0,0.1
				c0,0,0,0.1,0,0.1c0,0,0,0.1,0,0.1c0,0,0,0.1,0,0.1c0,0,0,0.1,0,0.1v0c0,0,0.1,0,0.1,0.1c0,0,0.1,0.1,0.1,0.1l0.1,0.1h0l0,0v0
				c0,0,0,0,0,0l0,0v0.1c0,0,0.1,0.1,0.2,0.1c0.5,0,0.9,0,1.4,0c0.1,0,0.1,0,0.2,0c0,0,0.1,0,0.1,0l0,0c0.1,0,0.1,0,0.1,0
				c0,0,0,0,0-0.1h0c0,0,0.1,0,0.1,0c0.1,0,0.1,0,0.2,0c0,0,0.1-0.1,0.1-0.1c0,0,0.1-0.1,0.1-0.1c0,0,0,0,0-0.1c0,0,0.1-0.1,0.1-0.1
				v0c0,0,0,0,0-0.1c0,0,0.1-0.1,0.1-0.1c0,0,0.1-0.1,0.1-0.1c0,0,0-0.1,0-0.1c0,0,0.1-0.1,0.1-0.1c0,0,0-0.1,0-0.1c0,0,0-0.1,0-0.1
				v0c0,0,0-0.1,0-0.1c0,0,0.1-0.1,0.1-0.1l0.1-0.1c0,0,0.1,0,0.1,0v0c0,0,0-0.1,0-0.1C29.1,14.2,29.1,14.2,29,14.1L29,14.1L29,14.1
				z M24.2,14.8C24.2,14.8,24.2,14.8,24.2,14.8C24.2,14.8,24.2,14.8,24.2,14.8c-0.1,0-0.1,0.1-0.1,0.1c0,0-0.1,0.1-0.1,0.1v0h0v0
				l0,0v0h0v0c0,0,0,0,0,0v0h0c0,0,0,0.1,0,0.1c0,0,0,0,0,0c0,0,0,0,0,0c0,0,0,0.1,0,0.1v0h0c0,0,0,0,0,0v0c0,0,0,0.1,0,0.1
				c0,0,0,0.1,0,0.1c0.3,0,0.6,0,0.9,0c0,0,0-0.1,0-0.1c0,0,0,0,0-0.1c0,0-0.1,0-0.1,0c0,0-0.1-0.1-0.1-0.1c0,0,0-0.1,0-0.1
				c0,0,0-0.1,0-0.1c0,0,0-0.1,0-0.1c0,0-0.1,0-0.1-0.1c0,0,0,0,0-0.1c0,0,0-0.1,0-0.1v0C24.2,15,24.2,14.9,24.2,14.8
				C24.2,14.9,24.2,14.9,24.2,14.8z M1.6,10.1C1.6,10,1.6,10,1.6,10.1c0-0.1,0-0.1,0-0.2c0,0,0,0-0.1,0l0,0C1.6,10,1.6,10,1.6,10.1
				L1.6,10.1L1.6,10.1z M6.3,11.1c0,0,0.1,0,0.1,0v0C6.4,11.1,6.3,11.1,6.3,11.1z"/>
		</g>
	</g>
</g>
<g id="guides">
</g>
<linearGradient id="SVGID_2_" gradientUnits="userSpaceOnUse" x1="-174.8892" y1="-317.2148" x2="-168.4927" y2="-317.2148" gradientTransform="matrix(6.6522 0 0 6.6522 1163.9746 2124.1409)">
	<stop  offset="2.300000e-007" style="stop-color:#EDF3CB"/>
	<stop  offset="1" style="stop-color:#F8D27E"/>
</linearGradient>
<path opacity="0.5" fill="url(#SVGID_2_)" enable-background="new    " d="M5.9,13.1c0,0,2.4,1.3,4.8,1.4c0,0,3.2,0.3,3.5,0.7
	c0.4,0.7-2.4,6.6-3.8,8.7c0,0,5.9-9.5,13.9-10.3c0,0-8.6,0.1-13.1-2.9c0,0,13.2-0.6,19.1,3.1c0,0-1.2-5-8.7-5.6
	c0,0,17.1-3.8,21.6,4.9c0,0-2.6-11.8-24.4-7.2l1.8-0.3L28.1,4H14.4L6.8,4.2L2.2,4L0.8,7.1L0.6,9.6l2.7,2.5L5.9,13.1z"/>
</svg>
