<?xml version="1.0" encoding="utf-8"?>
<!-- Generator: Adobe Illustrator 16.0.0, SVG Export Plug-In . SVG Version: 6.00 Build 0)  -->
<!DOCTYPE svg PUBLIC "-//W3C//DTD SVG 1.0//EN" "http://www.w3.org/TR/2001/REC-SVG-20010904/DTD/svg10.dtd">
<svg version="1.0" id="图层_1" xmlns="http://www.w3.org/2000/svg" xmlns:xlink="http://www.w3.org/1999/xlink" x="0px" y="0px"
	 width="67.5px" height="32px" viewBox="0 0 67.5 32" enable-background="new 0 0 67.5 32" xml:space="preserve">
<g id="Selected_Items">
	<g>
		<g id="Selected_Items_34_">
			
				<linearGradient id="SVGID_1_" gradientUnits="userSpaceOnUse" x1="375.4609" y1="-262.2998" x2="441.8604" y2="-262.2998" gradientTransform="matrix(1 0 0 -1 -374.96 -246.5996)">
				<stop  offset="0" style="stop-color:#8F00DB"/>
				<stop  offset="0.6452" style="stop-color:#77B9FF"/>
				<stop  offset="1" style="stop-color:#B6CAFF"/>
			</linearGradient>
			<path fill="url(#SVGID_1_)" d="M2.1,4.1h0.1l0,0l0,0h0.1c5,0,10,0,15,0c0.3,0,0.7,0,1,0L18.4,4c0.1,0,0.1,0,0.1,0h0.1
				c0.1,0,0.1,0,0.2,0l0.1,0.1c11.8,0,23.7,0,35.5,0c0.1,0,0.1,0,0.1,0c0.1,0,0.1,0,0.1,0s0.101,0,0.2,0L54.9,4.2L55,4.3v0.1v0.1
				l0,0c0.1,0,0.3,0,0.4,0v0.1v0.1v0.1v0.1V5v0.1v0.1l0,0v0.1v0.1v0.1v0.1l0,0l0,0v0.1v0.1v0.1l0,0V6v0.1v0.1V6
				C55.3,6,55.3,6,55.2,6v0.1h0.1c0.101,0,0.101,0,0.2,0l0,0L55.6,6H55.7c0.2,0,0.3,0,0.5,0h0.1l0,0C56.4,6,56.4,6,56.5,6l0.1,0.1
				v0.1v0.1l0,0v0.1v0.1v0.1v0.1v0.1v0.1V7l0,0v0.1c3.301,0,6.601,0,9.9,0c0.1,0,0.1,0,0.2,0c0,0,0.1,0,0.1,0.1H66.9L67,7.3v0.1v0.1
				v0.1l0,0v0.1v0.1v0.1V8v0.1v0.1v0.1l0,0v0.1v0.1v0.1v0.1v0.1v0.1c0,0,0,0,0,0.1l0,0v0.1v0.1v0.1v0.1v0.1v0.1v0.1l0,0l-0.1,0.1
				v0.1l0,0L66.8,10v0.1l0,0h-0.1H66.6c-1.6,0-3.199,0-4.8,0v0.1l0,0v0.1v0.1v0.1v0.1l0,0l0,0h-0.1v0.1L61.6,10.8l0,0h-0.1
				c-0.1,0-0.1,0-0.2,0h-0.1c-1.4,0-2.8,0-4.2,0h-0.1H56.8h-0.1L56.6,10.9l0,0V11v0.1h-0.1v0.1v0.1h-0.1H56.3h-0.1H56.1
				c-0.1,0-0.1,0-0.199,0v0.1c-0.5,0-0.9,0-1.4,0l0,0v0.1c0,0,0,0,0,0.1v0.1v0.1v0.1l0,0V12c0,0,0,0,0,0.1v0.1v0.1
				c-0.1,0-0.2,0-0.3,0l0,0v0.1c0,0,0,0,0,0.1l0,0v0.1v0.1L54.1,12.8v0.1c0,0,0,0.1-0.1,0.1v0.1v0.1l0,0v0.1v0.1v0.1l-0.1,0.1v0.1
				l0,0v0.1l0,0l0,0v0.1c0,0,0,0,0,0.1l0,0L53.8,14.1v0.1l-0.1,0.1L53.6,14.4l-0.1,0.1h-0.1c0,0,0,0,0,0.1L53.3,14.7l0,0
				c0,0,0,0-0.1,0l0,0v0.1v0.1l0,0L53.1,15C53,15,52.9,15.1,52.9,15.1c-0.101,0-0.101,0.1-0.2,0.1l0,0l0,0c-0.2,0-0.3,0-0.5,0l0,0
				c-0.101,0-0.101,0-0.2,0c-0.5,0-1,0-1.5,0c-0.1,0-0.1,0-0.2,0v-0.1c0,0,0,0-0.1,0c-0.101,0-0.2,0-0.3,0H49.8l0,0h-0.1
				c-0.101,0-0.101,0-0.2,0L49.4,15v-0.1l0,0c-0.101,0-0.101,0-0.2,0L49.1,14.8v-0.1L49,14.6l0,0c-1.4,0-2.8,0-4.2,0l0,0l0,0
				c-0.1,0-0.1,0-0.2,0c-0.199,0-0.3,0-0.5,0l0,0c-0.1,0-0.1,0-0.1,0c-0.1,0-0.1,0-0.2,0v0.1c-0.1,0-0.1,0.1-0.2,0.1l-0.1,0.1h-0.1
				V15v0.1l0,0c-0.101,0-0.101,0-0.2,0L43.1,15.2L43,15.3c0,0,0,0-0.1,0.1v0.1v0.1c-0.101,0-0.101,0.1-0.2,0.1L42.6,15.8h-0.1v0.1
				c0,0,0,0.1-0.1,0.1v0.1L42.3,16.2v0.1l-0.1,0.1v0.1l0,0v0.1V16.7L42.1,16.8V16.9V17c0,0,0,0,0,0.1V17.2l0,0v0.101v0.1
				c0,0,0,0,0,0.1v0.1V17.7c-0.1,0-0.1,0.101-0.1,0.101v0.1h-0.1V18L41.8,18.1l0,0l0,0c-0.1,0-0.1,0-0.1,0s-0.101,0-0.2,0l0,0
				c-0.1,0-0.1,0-0.2,0c-0.1,0-0.2,0-0.3,0l0,0c-0.1,0-0.1,0-0.1,0c-0.101,0-0.2,0-0.301,0h-0.1l0,0c0,0,0,0-0.1,0
				c-0.101,0-0.101,0-0.2,0V18H40.1C40,18,40,17.9,39.9,17.9H39.8c0,0,0,0-0.1-0.1c-0.101,0-0.2,0-0.3,0L39.3,17.7l0,0V17.6v-0.1
				l-0.1-0.1v-0.1V17.2V17.1V17l0,0v-0.1V16.8L39.1,16.7c0,0,0,0,0-0.101v-0.1v-0.1v-0.1v-0.1v-0.1V16v-0.1v-0.1l0,0c0,0,0,0,0-0.1
				v-0.1v-0.1v-0.1v-0.1v-0.1v-0.1l0,0V15c-2,0-3.899,0-5.899,0l0,0c-0.1,0-0.1,0-0.2,0h-0.1h-0.1v0.1v0.1v0.1l-0.1,0.1l0,0l0,0l0,0
				l-0.1,0.1v0.1c-0.1,0-0.1,0-0.1,0v0.1v0.1v0.1L32.4,16l-0.1,0.1v0.1l-0.1,0.1h-0.1v0.1L32,16.5c0,0-0.1,0-0.1,0.1V16.7l-0.1,0.1
				L31.7,16.9V17c-0.1,0-0.1,0-0.1,0s0,0,0,0.1L31.5,17.2l-0.1,0.101c0,0,0,0.1-0.1,0.1l-0.1,0.1l-0.1,0.1C31,17.6,31,17.7,31,17.7
				h-0.1v0.101v0.1l0,0c-0.1,0-0.1,0-0.2,0V18v0.1l0,0h-0.1h-0.1h-0.1l0,0V18.2h-0.1h-0.1c-1.7,0-3.4,0-5.1,0H25h-0.1
				c-0.1,0-0.1,0-0.2,0L24.6,18.1V18v-0.1v-0.1l0,0h-0.1v0.1l0,0V18l0,0v0.1l0,0V18.2h-0.1c0,0,0,0,0,0.101l0,0c0,0,0,0,0,0.1h-0.1
				v0.1l0,0v0.1l0,0V18.7l0,0v0.101l0,0v0.1l0,0V19l0,0v0.1l0,0c0,0,0,0,0,0.101h-0.1v0.101l0,0v0.1l0,0v0.1h-0.1v0.1l0,0V19.7l0,0
				v0.101l0,0v0.1l0,0V20c0,0,0,0-0.1,0v0.1l0,0V20.2l0,0c0,0,0,0,0,0.101l0,0v0.1l0,0v0.1h-0.1v0.1l0,0c0,0,0,0,0,0.101l0,0v0.101
				l0,0v0.1V21l0,0v0.1l0,0V21.2h-0.1v0.101l0,0v0.1l0,0v0.1l0,0v0.1l0,0V21.7l0,0l0,0v0.101l0,0v0.1l0,0l0,0V22l0,0l0,0v0.1l0,0
				V22.2h-0.1v0.101h-0.1v0.1h-0.1v0.1h0.1h0.1v0.1h-0.1V22.7l0,0v0.101l0,0v0.1l0,0V23h-0.1v0.1l0,0V23.2l0,0v0.101l0,0v0.1l0,0
				v0.1V24l0,0c0,0,0,0-0.1,0v0.1l0,0V24.2v0.2h-0.1v0.1l0,0v0.1l0,0c0,0,0,0,0,0.101l0,0l0,0c-0.1,0-0.1,0-0.1,0h-0.1H23h-0.1
				c0,0,0,0-0.1,0h-0.1l0,0v0.1h-0.1V24.9l0,0V25h-0.1l-0.1,0.1l0,0V25.2l0,0v0.1l0,0c0,0,0,0,0,0.101l0,0v0.1h-0.1v0.1l0,0
				c0,0,0,0,0,0.101l0,0v0.1l0,0V25.9l0,0V26l0,0v0.1c0.1,0,0.1,0,0.1,0.101h0.1v0.1V26.4l-0.1,0.1h-0.1c0,0-0.1,0-0.2,0v0.1H22
				V26.7l0,0v0.1l0,0V26.9l0,0V27l0,0l0,0c-0.1,0-0.2,0-0.3,0v0.1V27.2l0,0v0.1l0.1,0.101l0,0l0,0v0.1v0.1V27.7l0,0l0,0
				c0,0,0,0,0,0.1l0,0c-0.1,0-0.1,0-0.2,0c-2.5,0-5,0-7.4,0h-0.1H14c-0.1,0-0.1,0-0.2,0c-0.1,0-0.1,0-0.2,0h-0.1h-0.1
				c-0.1,0-0.1,0-0.2,0l-0.1-0.1L13,27.6c0,0,0-0.1-0.1-0.1l-0.1-0.1V27.3l-0.1-0.1h-0.1L12.5,27.1L12.4,27v-0.1V26.8v-0.1
				c0,0,0,0,0-0.101v-0.1l0,0c0,0,0-0.1,0.1-0.1l0.1-0.101c0.1,0,0.1,0,0.1,0h0.1c0.1,0,0.1,0,0.2,0c0,0,0,0.101,0.1,0.101v0.1v-0.1
				V26.3V27L13,26.9V26.8l0,0v-0.1V26.6l0.1-0.1l0,0c0,0,0,0,0-0.1l0,0V26.3l0,0v-0.1l0,0l0,0c0,0,0.1,0,0.1-0.101c0,0,0,0,0.1,0
				c0,0,0,0,0-0.1h0.1v-0.1l0,0V25.8h0.1v-0.1l0,0V25.6l0,0v-0.1l0,0v-0.1h0.1V25.3l0,0c0,0,0,0,0-0.1h0.1V25.1l0,0V25h0.1v-0.1l0,0
				V24.8l0,0v-0.1l0,0V24.6l0,0v-0.1h0.1v-0.1l0,0V24.3l0,0v-0.1c0,0,0,0,0.1,0V24.1l0,0V24l0,0v-0.1l0,0V23.8v-0.1V23.6l0,0v-0.1
				l0,0v-0.1l0,0V23.3l0,0v-0.1h0.1V23.1l0,0V23l0,0v-0.1l0,0V22.8l0,0v-0.1h0.1V22.6l0,0v-0.1l0,0c0,0,0,0,0-0.1l0,0V22.3
				c0.1,0,0.1,0,0.1,0v-0.1l0,0V22.1l0,0V22l0,0v-0.1l0,0V21.8l0,0v-0.1l0,0c0,0,0,0,0-0.101l0,0v-0.1l0,0v-0.1l0,0V21.3h0.1l0,0
				v-0.1l0,0V21.1l0,0l0,0l0,0l0,0l0,0V21l0,0v-0.1l0,0V20.8h0.1v-0.1l0,0V20.6l0,0v-0.1l0,0v-0.1l0,0V20.3l0,0v-0.1l0,0l0,0h0.1
				l0,0V20.1l0,0V20l0,0v-0.1l0,0V19.8l0,0c0,0,0,0,0-0.1V19.6v-0.1l0,0v-0.1l0,0V19.3l0,0v-0.1l0,0V19.1l0,0V19l0,0v-0.1l0,0V18.8
				h0.1v-0.1l0,0c0,0,0,0,0-0.101l0,0v-0.1l0,0v-0.1l0,0V18.3l0,0v-0.101l0,0v-0.1l0,0V18l0,0v-0.1l0,0V17.8h0.1v-0.101l0,0v-0.1
				l0,0v-0.1l0,0v-0.1l0,0V17.3l0,0v-0.101l0,0v-0.1l0,0V17l0,0v-0.1l0,0V16.8h-0.1c0,0,0,0,0-0.101c-0.1,0-0.1,0-0.2,0h-0.1l0,0
				c-0.1,0-0.2,0-0.3,0s-0.1,0-0.2,0v-0.1c-0.2,0-0.3,0-0.5,0h-0.1l0,0c-0.1,0-0.3,0-0.4,0s-0.1,0-0.2,0v-0.1c-0.1,0-0.3,0-0.4,0
				h-0.1l0,0c-0.1,0-0.2,0-0.3,0s-0.1,0-0.2,0v-0.1c-0.1,0-0.2,0-0.3,0h-0.1l0,0c-0.2,0-0.3,0-0.5,0c-0.1,0-0.1,0-0.2,0v-0.1
				c-0.1,0-0.3,0-0.4,0h-0.1l0,0c-0.1,0-0.2,0-0.2,0c-0.1,0-0.1,0-0.2,0v-0.1c-0.1,0-0.1,0-0.2,0H9.4l0,0c-0.1,0-0.2,0-0.2,0
				c-0.1,0-0.1,0-0.2,0v-0.1c-0.1,0-0.1,0-0.1,0H8.8l0,0H8.7c-0.1,0-0.1,0-0.2,0V16c-0.1,0-0.1,0-0.2,0H8.2l0,0c-0.1,0-0.1,0-0.2,0
				c0,0-0.1,0-0.2,0v-0.1H7.7H7.6l0,0c-0.1,0-0.1,0-0.2,0c0,0-0.1,0-0.2,0v-0.1c0,0,0,0-0.1,0H7l0,0c-0.1,0-0.1,0-0.2,0
				c-0.1,0-0.1,0-0.2,0l-0.1-0.1l-0.1-0.1l0,0c-0.1,0-0.1,0-0.2,0l-0.1-0.1L6,15.4l0,0c-0.1,0-0.1,0-0.2,0c0,0-0.1,0-0.1-0.1
				c0,0-0.1,0-0.1-0.1H5.5c-0.1,0-0.1,0-0.2,0l-0.1-0.1V15l0,0c-0.1,0-0.1,0-0.2,0v-0.1c0,0,0,0-0.1,0s-0.1-0.1-0.2-0.1
				c-0.1,0-0.1,0-0.1,0l-0.1-0.1v-0.1c-0.1,0-0.1-0.1-0.1-0.1l-0.1-0.1l-0.1-0.1l-0.1-0.1c-1-2.2-1-2.2-1.1-2.3c-0.1,0-0.1,0-0.1,0
				l-0.1-0.1v-0.1c-0.1,0-0.1-0.1-0.1-0.1l-0.1-0.1v-0.1l-0.1-0.1c-0.1,0-0.1-0.1-0.2-0.1H2.2l-0.1-0.1c0,0-0.1,0-0.1-0.1
				c-0.1,0-0.1-0.1-0.1-0.1l0,0c-0.1,0-0.2,0-0.3,0v-0.1v-0.1l-0.1-0.1l-0.1-0.1l-0.1-0.1l-0.1-0.1c0,0,0-0.1-0.1-0.1L1,10.1l0,0V10
				l0,0H0.9H0.8V9.9V9.8c0,0,0,0,0-0.1c0,0-0.1,0-0.1-0.1V9.5L0.6,9.4V9.3l0,0V9.2V9.1V9V8.9V8.8V8.7V8.6l0,0V8.5c0,0,0,0,0-0.1V8.3
				V8.2V8.1V8V7.9l0,0V7.8V7.7V7.6V7.5V7.4V7.3V7.2l0,0V7.1V7V6.9V6.8V6.7V6.6V6.5l0,0l0.1-0.1c0,0,0-0.1,0.1-0.1V6.2V6.1L0.9,6
				C1,6.9,1,6.9,1,6.8V6.7c0,0,0,0,0.1,0c0,0,0,0,0-0.1V6.5V6.4V6.3V6.2l0.1-0.1V6l0,0V5.9V5.8V5.7V5.6V5.5V5.4V5.3l0,0V5.2V5.1V5
				c0,0,0,0,0-0.1V4.8V4.7V4.6l0,0l0.1-0.1V4.4V4.3V4.2V4.1V4V3.9h0.1l0.1-0.1V3.7l0.1-0.1C2,4.1,2,4.1,2.1,4.1z M29,14.1
				c-1.2,0-2.4,0-3.6,0l0,0v0.1v0.1v0.1v0.1v0.1l0,0v0.1v0.1c0,0,0,0,0,0.1V15v0.1v0.1v0.1l0,0c0,0,0.1,0,0.1,0.1l0.1,0.1l0.1,0.1
				l0,0l0,0l0,0l0,0l0,0v0.1c0,0,0.1,0.1,0.2,0.1c0.5,0,0.9,0,1.4,0c0.1,0,0.1,0,0.2,0h0.1l0,0c0.1,0,0.1,0,0.1,0s0,0,0-0.1l0,0h0.1
				c0.1,0,0.1,0,0.2,0l0.1-0.1l0.1-0.1c0,0,0,0,0-0.1l0.1-0.1l0,0c0,0,0,0,0-0.1l0.1-0.1l0.1-0.1v-0.1l0.1-0.1v-0.1v-0.1l0,0v-0.1
				l0.1-0.1l0.1-0.1h0.1l0,0v-0.1C29.1,14.2,29.1,14.2,29,14.1L29,14.1L29,14.1z M24.2,14.8L24.2,14.8L24.2,14.8
				c-0.1,0-0.1,0.1-0.1,0.1L24,15l0,0l0,0l0,0l0,0l0,0l0,0l0,0l0,0l0,0l0,0v0.1l0,0l0,0v0.1l0,0l0,0l0,0l0,0v0.1v0.1
				c0.3,0,0.6,0,0.9,0v-0.1c0,0,0,0,0-0.1h-0.1l-0.1-0.1V15v-0.1v-0.1c0,0-0.1,0-0.1-0.1c0,0,0,0,0-0.1v-0.1l0,0
				C24.2,15,24.2,14.9,24.2,14.8C24.2,14.9,24.2,14.9,24.2,14.8z M1.6,10.1C1.6,10,1.6,10,1.6,10.1c0-0.1,0-0.1,0-0.2c0,0,0,0-0.1,0
				l0,0C1.6,10,1.6,10,1.6,10.1L1.6,10.1L1.6,10.1z M6.3,11.1h0.1l0,0H6.3z"/>
		</g>
	</g>
</g>
<g id="guides">
</g>
<linearGradient id="SVGID_2_" gradientUnits="userSpaceOnUse" x1="-128.4727" y1="309.4385" x2="-122.1059" y2="309.4385" gradientTransform="matrix(6.6522 0 0 -6.6522 855.4277 2072.5425)">
	<stop  offset="0" style="stop-color:#C216FF"/>
	<stop  offset="0.6452" style="stop-color:#77B9FF"/>
	<stop  offset="1" style="stop-color:#B6CAFF"/>
</linearGradient>
<path fill="url(#SVGID_2_)" fill-opacity="0.5" d="M5.9,13.1c0,0,2.4,1.3,4.8,1.4c0,0,3.937,1.412,4.237,1.813
	c0.4,0.699,0.688,3.063-1.038,7.888c0,0,4.1-9.963,12.1-10.763c0,0-10.3,0.263-14.8-2.737c0,0,17.462-1.15,23.362,2.55
	c0,0-5.462-4.45-12.962-5.05c0,0,17.1-3.8,21.6,4.9c0,0-2.601-11.8-24.4-7.2l1.8-0.3L28.1,4H14.4L6.8,4.2L2.2,4L0.8,7.1l0.45,2.525
	L3.3,12.1L5.9,13.1z"/>
</svg>
