<?xml version="1.0" encoding="utf-8"?>
<!-- Generator: Adobe Illustrator 16.0.0, SVG Export Plug-In . SVG Version: 6.00 Build 0)  -->
<!DOCTYPE svg PUBLIC "-//W3C//DTD SVG 1.0//EN" "http://www.w3.org/TR/2001/REC-SVG-20010904/DTD/svg10.dtd">
<svg version="1.0" id="图层_1" xmlns="http://www.w3.org/2000/svg" xmlns:xlink="http://www.w3.org/1999/xlink" x="0px" y="0px"
	 width="67.5px" height="32px" viewBox="0 0 67.5 32" enable-background="new 0 0 67.5 32" xml:space="preserve">
<path fill="#0001BF" d="M2.1,4.1h0.1l0,0l0,0h0.1c5,0,10,0,15,0c0.3,0,0.7,0,1,0L18.4,4c0.1,0,0.1,0,0.1,0h0.1c0.1,0,0.1,0,0.2,0
	l0.1,0.1c11.8,0,23.7,0,35.5,0c0.1,0,0.1,0,0.1,0c0.1,0,0.1,0,0.1,0s0.103,0,0.2,0L54.9,4.2L55,4.3v0.1v0.1l0,0c0.1,0,0.3,0,0.4,0
	v0.1v0.1v0.1v0.1V5v0.1v0.1l0,0v0.1v0.1v0.1v0.1l0,0l0,0v0.1v0.1v0.1l0,0V6v0.1v0.1V6C55.3,6,55.3,6,55.2,6v0.1h0.1
	c0.101,0,0.101,0,0.2,0l0,0L55.6,6H55.7c0.2,0,0.3,0,0.5,0h0.1l0,0C56.4,6,56.4,6,56.5,6l0.1,0.1v0.1v0.1l0,0v0.1v0.1v0.1v0.1v0.1
	v0.1V7l0,0v0.1c3.301,0,6.603,0,9.9,0c0.1,0,0.1,0,0.2,0c0,0,0.1,0,0.1,0.1H66.9L67,7.3v0.1v0.1v0.1l0,0v0.1v0.1v0.1V8v0.1v0.1v0.1
	l0,0v0.1v0.1v0.1v0.1v0.1v0.1c0,0,0,0,0,0.1l0,0v0.1v0.1v0.1v0.1v0.1v0.1v0.1l0,0l-0.1,0.1v0.1l0,0L66.8,10v0.1l0,0h-0.1H66.6
	c-1.6,0-3.199,0-4.8,0v0.1l0,0v0.1v0.1v0.1v0.1l0,0l0,0h-0.1v0.1L61.6,10.8l0,0h-0.1c-0.1,0-0.1,0-0.2,0h-0.1c-1.4,0-2.8,0-4.2,0
	h-0.1H56.8h-0.1L56.6,10.9l0,0V11v0.1h-0.1v0.1v0.1h-0.1H56.3h-0.1H56.1c-0.1,0-0.1,0-0.199,0v0.1c-0.5,0-0.898,0-1.398,0l0,0v0.1
	c0,0,0,0,0,0.1v0.1v0.1v0.1l0,0V12c0,0,0,0,0,0.1v0.1v0.1c-0.102,0-0.199,0-0.3,0l0,0v0.1c0,0,0,0,0,0.1l0,0v0.1v0.1L54.1,12.8v0.1
	c0,0,0,0.1-0.1,0.1v0.1v0.1l0,0v0.1v0.1v0.1l-0.1,0.1v0.1l0,0v0.1l0,0l0,0v0.1c0,0,0,0,0,0.1l0,0L53.8,14.1v0.1l-0.1,0.1L53.6,14.4
	l-0.1,0.1h-0.1c0,0,0,0,0,0.1L53.3,14.7l0,0c0,0,0,0-0.1,0l0,0v0.1v0.1l0,0L53.1,15C53,15,52.9,15.1,52.9,15.1
	c-0.103,0-0.103,0.1-0.2,0.1l0,0l0,0c-0.2,0-0.3,0-0.5,0l0,0c-0.101,0-0.101,0-0.2,0c-0.5,0-1,0-1.5,0c-0.1,0-0.1,0-0.2,0v-0.1
	c0,0,0,0-0.1,0c-0.101,0-0.2,0-0.3,0H49.8l0,0h-0.1c-0.101,0-0.101,0-0.2,0L49.4,15v-0.1l0,0c-0.103,0-0.103,0-0.2,0L49.1,14.8v-0.1
	L49,14.6l0,0c-1.4,0-2.8,0-4.2,0l0,0l0,0c-0.1,0-0.1,0-0.2,0c-0.199,0-0.3,0-0.5,0l0,0c-0.1,0-0.1,0-0.1,0c-0.1,0-0.1,0-0.2,0v0.1
	c-0.1,0-0.1,0.1-0.2,0.1l-0.1,0.1h-0.1V15v0.1l0,0c-0.103,0-0.103,0-0.2,0L43.1,15.2L43,15.3c0,0,0,0-0.1,0.1v0.1v0.1
	c-0.103,0-0.103,0.1-0.2,0.1L42.6,15.8h-0.1v0.1c0,0,0,0.1-0.1,0.1v0.1L42.3,16.2v0.1l-0.1,0.1v0.1l0,0v0.1V16.7L42.1,16.8V16.9V17
	c0,0,0,0,0,0.1V17.2l0,0v0.101v0.1c0,0,0,0,0,0.102v0.102V17.7c-0.1,0-0.1,0.101-0.1,0.101v0.1h-0.1V18L41.8,18.1l0,0l0,0
	c-0.1,0-0.1,0-0.1,0s-0.101,0-0.2,0l0,0c-0.1,0-0.1,0-0.2,0c-0.1,0-0.2,0-0.3,0l0,0c-0.1,0-0.1,0-0.1,0c-0.103,0-0.2,0-0.301,0
	h-0.102l0,0c0,0,0,0-0.102,0c-0.101,0-0.101,0-0.199,0V18h-0.1C40,18,40,17.9,39.9,17.9H39.8c0,0,0,0-0.1-0.102
	c-0.101,0-0.2,0-0.3,0L39.3,17.7l0,0V17.6v-0.1l-0.1-0.1V17.3v-0.1V17.1V17l0,0v-0.1V16.8L39.1,16.7c0,0,0,0,0-0.101v-0.102v-0.1
	v-0.1v-0.1v-0.1V16v-0.1v-0.1l0,0c0,0,0,0,0-0.1v-0.1v-0.1v-0.1v-0.1v-0.1v-0.1l0,0V15c-2,0-3.897,0-5.897,0l0,0c-0.1,0-0.1,0-0.2,0
	h-0.1h-0.1v0.1v0.1v0.1l-0.1,0.1l0,0l0,0l0,0l-0.1,0.1v0.1c-0.1,0-0.1,0-0.1,0v0.1v0.1v0.1L32.4,16l-0.1,0.1v0.1l-0.1,0.1h-0.1v0.1
	L32,16.5c0,0-0.1,0-0.1,0.1V16.7l-0.1,0.1L31.7,16.9V17c-0.1,0-0.1,0-0.1,0s0,0,0,0.1L31.5,17.2l-0.1,0.101c0,0,0,0.1-0.1,0.1
	l-0.1,0.102l-0.1,0.102C31,17.6,31,17.7,31,17.7h-0.1v0.101v0.1l0,0c-0.1,0-0.1,0-0.2,0V18v0.1l0,0h-0.1h-0.1h-0.1l0,0V18.2h-0.1
	h-0.1c-1.7,0-3.4,0-5.1,0H25h-0.1c-0.1,0-0.1,0-0.2,0L24.6,18.1V18v-0.1V17.8l0,0h-0.1V17.9l0,0V18l0,0v0.1l0,0V18.2h-0.1
	c0,0,0,0,0,0.101l0,0c0,0,0,0,0,0.1h-0.1v0.102l0,0v0.102l0,0V18.7l0,0v0.101l0,0v0.1l0,0V19l0,0v0.1l0,0c0,0,0,0,0,0.103h-0.1
	v0.103l0,0v0.1l0,0v0.1h-0.1v0.1l0,0V19.7l0,0v0.101l0,0v0.1l0,0V20c0,0,0,0-0.1,0v0.1l0,0V20.2l0,0c0,0,0,0,0,0.101l0,0v0.1l0,0
	v0.102h-0.1v0.102l0,0c0,0,0,0,0,0.101l0,0v0.101l0,0v0.1V21l0,0v0.1l0,0V21.2h-0.1v0.101l0,0v0.1l0,0v0.102l0,0v0.102l0,0V21.7l0,0
	l0,0v0.101l0,0v0.1l0,0l0,0V22l0,0l0,0v0.1l0,0V22.2h-0.1v0.101h-0.1v0.1h-0.1v0.102h0.1h0.1v0.102h-0.1V22.7l0,0v0.101l0,0v0.1l0,0
	V23h-0.1v0.1l0,0V23.2l0,0v0.101l0,0v0.1l0,0v0.102V24l0,0c0,0,0,0-0.1,0v0.1l0,0V24.2v0.2h-0.1v0.1l0,0v0.1l0,0c0,0,0,0,0,0.103
	l0,0l0,0c-0.1,0-0.1,0-0.1,0h-0.1H23h-0.1c0,0,0,0-0.1,0h-0.1l0,0v0.1h-0.1v0.101l0,0V25h-0.1l-0.1,0.1l0,0V25.2l0,0v0.1l0,0
	c0,0,0,0,0,0.101l0,0v0.102h-0.1v0.102l0,0c0,0,0,0,0,0.101l0,0v0.101l0,0V25.9l0,0V26l0,0v0.1c0.1,0,0.1,0,0.1,0.103h0.1v0.1v0.101
	l-0.1,0.1h-0.1c0,0-0.1,0-0.2,0v0.1H22V26.7l0,0v0.1l0,0V26.9l0,0V27l0,0l0,0c-0.1,0-0.2,0-0.3,0v0.1V27.2l0,0v0.1l0.1,0.101l0,0
	l0,0v0.102v0.102V27.7l0,0l0,0c0,0,0,0,0,0.1l0,0c-0.1,0-0.1,0-0.2,0c-2.5,0-5,0-7.4,0h-0.1H14c-0.1,0-0.1,0-0.2,0
	c-0.1,0-0.1,0-0.2,0h-0.1h-0.1c-0.1,0-0.1,0-0.2,0l-0.1-0.1L13,27.6c0,0,0-0.1-0.1-0.1l-0.1-0.1V27.3l-0.1-0.1h-0.1L12.5,27.1
	L12.4,27v-0.1V26.8v-0.1c0,0,0,0,0-0.101v-0.102l0,0c0,0,0-0.102,0.1-0.102l0.1-0.101c0.1,0,0.1,0,0.1,0h0.1c0.1,0,0.1,0,0.2,0
	c0,0,0,0.101,0.1,0.101v0.102v-0.102V26.3V27L13,26.9V26.8l0,0v-0.1V26.6l0.1-0.1l0,0c0,0,0,0,0-0.1l0,0V26.3l0,0v-0.1l0,0l0,0
	c0,0,0.1,0,0.1-0.101c0,0,0,0,0.1,0c0,0,0,0,0-0.102h0.1v-0.102l0,0V25.8h0.1v-0.1l0,0V25.6l0,0v-0.1l0,0v-0.1h0.1V25.3l0,0
	c0,0,0,0,0-0.1h0.1V25.1l0,0V25h0.1v-0.1l0,0V24.8l0,0v-0.1l0,0V24.6l0,0v-0.1h0.1v-0.1l0,0V24.3l0,0v-0.1c0,0,0,0,0.1,0V24.1l0,0
	V24l0,0v-0.1l0,0V23.8v-0.1V23.6l0,0v-0.1l0,0v-0.1l0,0V23.3l0,0v-0.1h0.1V23.1l0,0V23l0,0v-0.1l0,0V22.8l0,0v-0.1h0.1V22.6l0,0
	v-0.1l0,0c0,0,0,0,0-0.1l0,0V22.3c0.1,0,0.1,0,0.1,0v-0.1l0,0V22.1l0,0V22l0,0v-0.1l0,0V21.8l0,0v-0.1l0,0c0,0,0,0,0-0.101l0,0
	v-0.102l0,0v-0.102l0,0V21.3h0.1l0,0v-0.1l0,0V21.1l0,0l0,0l0,0l0,0l0,0V21l0,0v-0.1l0,0V20.8h0.1v-0.1l0,0V20.6l0,0v-0.1l0,0v-0.1
	l0,0V20.3l0,0v-0.1l0,0l0,0h0.1l0,0V20.1l0,0V20l0,0v-0.1l0,0V19.8l0,0c0,0,0,0,0-0.1V19.6v-0.1l0,0v-0.1l0,0V19.3l0,0v-0.1l0,0
	V19.1l0,0V19l0,0v-0.1l0,0V18.8h0.1v-0.1l0,0c0,0,0,0,0-0.101l0,0v-0.102l0,0v-0.102l0,0V18.3l0,0v-0.101l0,0v-0.1l0,0V18l0,0v-0.1
	l0,0V17.8h0.1v-0.101l0,0v-0.1l0,0v-0.102l0,0v-0.102l0,0V17.3l0,0v-0.101l0,0v-0.1l0,0V17l0,0v-0.1l0,0V16.8h-0.1c0,0,0,0,0-0.101
	c-0.1,0-0.1,0-0.2,0h-0.1l0,0c-0.1,0-0.2,0-0.3,0s-0.1,0-0.2,0v-0.1c-0.2,0-0.3,0-0.5,0h-0.1l0,0c-0.1,0-0.3,0-0.4,0s-0.1,0-0.2,0
	v-0.102c-0.1,0-0.3,0-0.4,0h-0.1l0,0c-0.1,0-0.2,0-0.3,0s-0.1,0-0.2,0v-0.1c-0.1,0-0.2,0-0.3,0h-0.1l0,0c-0.2,0-0.3,0-0.5,0
	c-0.1,0-0.1,0-0.2,0v-0.1c-0.1,0-0.3,0-0.4,0h-0.1l0,0c-0.1,0-0.2,0-0.2,0c-0.1,0-0.1,0-0.2,0v-0.1c-0.1,0-0.1,0-0.2,0H9.4l0,0
	c-0.1,0-0.2,0-0.2,0c-0.1,0-0.1,0-0.2,0v-0.1c-0.1,0-0.1,0-0.1,0H8.8l0,0H8.7c-0.1,0-0.1,0-0.2,0V16c-0.1,0-0.1,0-0.2,0H8.2l0,0
	c-0.1,0-0.1,0-0.2,0c0,0-0.1,0-0.2,0v-0.1H7.7H7.6l0,0c-0.1,0-0.1,0-0.2,0c0,0-0.1,0-0.2,0v-0.1c0,0,0,0-0.1,0H7l0,0
	c-0.1,0-0.1,0-0.2,0c-0.1,0-0.1,0-0.2,0l-0.1-0.1l-0.1-0.1l0,0c-0.1,0-0.1,0-0.2,0l-0.1-0.1L6,15.4l0,0c-0.1,0-0.1,0-0.2,0
	c0,0-0.1,0-0.1-0.1c0,0-0.1,0-0.1-0.1H5.5c-0.1,0-0.1,0-0.2,0l-0.1-0.1V15l0,0c-0.1,0-0.1,0-0.2,0v-0.1c0,0,0,0-0.1,0
	s-0.1-0.1-0.2-0.1c-0.1,0-0.1,0-0.1,0l-0.1-0.1v-0.1c-0.1,0-0.1-0.1-0.1-0.1l-0.1-0.1l-0.1-0.1l-0.1-0.1c-1-2.2-1-2.2-1.1-2.3
	c-0.1,0-0.1,0-0.1,0l-0.1-0.1v-0.1c-0.1,0-0.1-0.1-0.1-0.1l-0.1-0.1v-0.1l-0.1-0.1c-0.1,0-0.1-0.1-0.2-0.1H2.2l-0.1-0.1
	c0,0-0.1,0-0.1-0.1c-0.1,0-0.1-0.1-0.1-0.1l0,0c-0.1,0-0.2,0-0.3,0v-0.1v-0.1l-0.1-0.1l-0.1-0.1l-0.1-0.1l-0.1-0.1
	c0,0,0-0.1-0.1-0.1L1,10.1l0,0V10l0,0H0.9H0.8V9.9V9.8c0,0,0,0,0-0.1c0,0-0.1,0-0.1-0.1V9.5L0.6,9.4V9.3l0,0V9.2V9.1V9V8.9V8.8V8.7
	V8.6l0,0V8.5c0,0,0,0,0-0.1V8.3V8.2V8.1V8V7.9l0,0V7.8V7.7V7.6V7.5V7.4V7.3V7.2l0,0V7.1V7V6.9V6.8V6.7V6.6V6.5l0,0l0.1-0.1
	c0,0,0-0.1,0.1-0.1V6.2V6.1L0.9,6C1,6.9,1,6.9,1,6.8V6.7c0,0,0,0,0.1,0c0,0,0,0,0-0.1V6.5V6.4V6.3V6.2l0.1-0.1V6l0,0V5.9V5.8V5.7
	V5.6V5.5V5.4V5.3l0,0V5.2V5.1V5c0,0,0,0,0-0.1V4.8V4.7V4.6l0,0l0.1-0.1V4.4V4.3V4.2V4.1V4V3.9h0.1l0.1-0.1V3.7l0.1-0.1
	C2,4.1,2,4.1,2.1,4.1z M29,14.1c-1.2,0-2.4,0-3.6,0l0,0v0.1v0.1v0.1v0.1v0.1l0,0v0.1v0.1c0,0,0,0,0,0.1V15v0.1v0.1v0.1l0,0
	c0,0,0.1,0,0.1,0.1l0.1,0.1l0.1,0.1l0,0l0,0l0,0l0,0l0,0v0.1c0,0,0.1,0.1,0.2,0.1c0.5,0,0.9,0,1.4,0c0.1,0,0.1,0,0.2,0h0.1l0,0
	c0.1,0,0.1,0,0.1,0s0,0,0-0.1l0,0h0.1c0.1,0,0.1,0,0.2,0l0.1-0.1l0.1-0.1c0,0,0,0,0-0.1l0.1-0.1l0,0c0,0,0,0,0-0.1l0.1-0.1l0.1-0.1
	v-0.1l0.1-0.1v-0.1v-0.1l0,0v-0.1l0.1-0.1l0.1-0.1h0.1l0,0v-0.1C29.1,14.2,29.1,14.2,29,14.1L29,14.1L29,14.1z M24.2,14.8L24.2,14.8
	L24.2,14.8c-0.1,0-0.1,0.1-0.1,0.1L24,15l0,0l0,0l0,0l0,0l0,0l0,0l0,0l0,0l0,0l0,0v0.1l0,0l0,0v0.1l0,0l0,0l0,0l0,0v0.1v0.1
	c0.3,0,0.6,0,0.9,0v-0.1c0,0,0,0,0-0.1h-0.1l-0.1-0.1V15v-0.1v-0.1c0,0-0.1,0-0.1-0.1c0,0,0,0,0-0.1v-0.1l0,0
	C24.2,15,24.2,14.9,24.2,14.8C24.2,14.9,24.2,14.9,24.2,14.8z M1.6,10.1C1.6,10,1.6,10,1.6,10.1c0-0.1,0-0.1,0-0.2c0,0,0,0-0.1,0
	l0,0C1.6,10,1.6,10,1.6,10.1L1.6,10.1L1.6,10.1z M6.3,11.1h0.1l0,0H6.3z"/>
<g>
	<defs>
		<path id="SVGID_1_" d="M2.1,4.1h0.1l0,0l0,0h0.1c5,0,10,0,15,0c0.3,0,0.7,0,1,0L18.4,4c0.1,0,0.1,0,0.1,0h0.1c0.1,0,0.1,0,0.2,0
			l0.1,0.1c11.8,0,23.7,0,35.5,0c0.1,0,0.1,0,0.1,0c0.1,0,0.1,0,0.1,0s0.103,0,0.2,0L54.9,4.2L55,4.3v0.1v0.1l0,0c0.1,0,0.3,0,0.4,0
			v0.1v0.1v0.1v0.1V5v0.1v0.1l0,0v0.1v0.1v0.1v0.1l0,0l0,0v0.1v0.1v0.1l0,0V6v0.1v0.1V6C55.3,6,55.3,6,55.2,6v0.1h0.1
			c0.101,0,0.101,0,0.2,0l0,0L55.6,6H55.7c0.2,0,0.3,0,0.5,0h0.1l0,0C56.4,6,56.4,6,56.5,6l0.1,0.1v0.1v0.1l0,0v0.1v0.1v0.1v0.1v0.1
			v0.1V7l0,0v0.1c3.301,0,6.603,0,9.9,0c0.1,0,0.1,0,0.2,0c0,0,0.1,0,0.1,0.1H66.9L67,7.3v0.1v0.1v0.1l0,0v0.1v0.1v0.1V8v0.1v0.1
			v0.1l0,0v0.1v0.1v0.1v0.1v0.1v0.1c0,0,0,0,0,0.1l0,0v0.1v0.1v0.1v0.1v0.1v0.1v0.1l0,0l-0.1,0.1v0.1l0,0L66.8,10v0.1l0,0h-0.1H66.6
			c-1.6,0-3.199,0-4.8,0v0.1l0,0v0.1v0.1v0.1v0.1l0,0l0,0h-0.1v0.1L61.6,10.8l0,0h-0.1c-0.1,0-0.1,0-0.2,0h-0.1c-1.4,0-2.8,0-4.2,0
			h-0.1H56.8h-0.1L56.6,10.9l0,0V11v0.1h-0.1v0.1v0.1h-0.1H56.3h-0.1H56.1c-0.1,0-0.1,0-0.199,0v0.1c-0.5,0-0.898,0-1.398,0l0,0v0.1
			c0,0,0,0,0,0.1v0.1v0.1v0.1l0,0V12c0,0,0,0,0,0.1v0.1v0.1c-0.102,0-0.199,0-0.3,0l0,0v0.1c0,0,0,0,0,0.1l0,0v0.1v0.1L54.1,12.8
			v0.1c0,0,0,0.1-0.1,0.1v0.1v0.1l0,0v0.1v0.1v0.1l-0.1,0.1v0.1l0,0v0.1l0,0l0,0v0.1c0,0,0,0,0,0.1l0,0L53.8,14.1v0.1l-0.1,0.1
			L53.6,14.4l-0.1,0.1h-0.1c0,0,0,0,0,0.1L53.3,14.7l0,0c0,0,0,0-0.1,0l0,0v0.1v0.1l0,0L53.1,15C53,15,52.9,15.1,52.9,15.1
			c-0.103,0-0.103,0.1-0.2,0.1l0,0l0,0c-0.2,0-0.3,0-0.5,0l0,0c-0.101,0-0.101,0-0.2,0c-0.5,0-1,0-1.5,0c-0.1,0-0.1,0-0.2,0v-0.1
			c0,0,0,0-0.1,0c-0.101,0-0.2,0-0.3,0H49.8l0,0h-0.1c-0.101,0-0.101,0-0.2,0L49.4,15v-0.1l0,0c-0.103,0-0.103,0-0.2,0L49.1,14.8
			v-0.1L49,14.6l0,0c-1.4,0-2.8,0-4.2,0l0,0l0,0c-0.1,0-0.1,0-0.2,0c-0.199,0-0.3,0-0.5,0l0,0c-0.1,0-0.1,0-0.1,0
			c-0.1,0-0.1,0-0.2,0v0.1c-0.1,0-0.1,0.1-0.2,0.1l-0.1,0.1h-0.1V15v0.1l0,0c-0.103,0-0.103,0-0.2,0L43.1,15.2L43,15.3
			c0,0,0,0-0.1,0.1v0.1v0.1c-0.103,0-0.103,0.1-0.2,0.1L42.6,15.8h-0.1v0.1c0,0,0,0.1-0.1,0.1v0.1L42.3,16.2v0.1l-0.1,0.1v0.1l0,0
			v0.1V16.7L42.1,16.8V16.9V17c0,0,0,0,0,0.1V17.2l0,0v0.101v0.1c0,0,0,0,0,0.102v0.102V17.7c-0.1,0-0.1,0.101-0.1,0.101v0.1h-0.1
			V18L41.8,18.1l0,0l0,0c-0.1,0-0.1,0-0.1,0s-0.101,0-0.2,0l0,0c-0.1,0-0.1,0-0.2,0c-0.1,0-0.2,0-0.3,0l0,0c-0.1,0-0.1,0-0.1,0
			c-0.103,0-0.2,0-0.301,0h-0.102l0,0c0,0,0,0-0.102,0c-0.101,0-0.101,0-0.199,0V18h-0.1C40,18,40,17.9,39.9,17.9H39.8
			c0,0,0,0-0.1-0.102c-0.101,0-0.2,0-0.3,0L39.3,17.7l0,0V17.6v-0.1l-0.1-0.1V17.3v-0.1V17.1V17l0,0v-0.1V16.8L39.1,16.7
			c0,0,0,0,0-0.101v-0.102v-0.1v-0.1v-0.1v-0.1V16v-0.1v-0.1l0,0c0,0,0,0,0-0.1v-0.1v-0.1v-0.1v-0.1v-0.1v-0.1l0,0V15
			c-2,0-3.897,0-5.897,0l0,0c-0.1,0-0.1,0-0.2,0h-0.1h-0.1v0.1v0.1v0.1l-0.1,0.1l0,0l0,0l0,0l-0.1,0.1v0.1c-0.1,0-0.1,0-0.1,0v0.1
			v0.1v0.1L32.4,16l-0.1,0.1v0.1l-0.1,0.1h-0.1v0.1L32,16.5c0,0-0.1,0-0.1,0.1V16.7l-0.1,0.1L31.7,16.9V17c-0.1,0-0.1,0-0.1,0
			s0,0,0,0.1L31.5,17.2l-0.1,0.101c0,0,0,0.1-0.1,0.1l-0.1,0.102l-0.1,0.102C31,17.6,31,17.7,31,17.7h-0.1v0.101v0.1l0,0
			c-0.1,0-0.1,0-0.2,0V18v0.1l0,0h-0.1h-0.1h-0.1l0,0V18.2h-0.1h-0.1c-1.7,0-3.4,0-5.1,0H25h-0.1c-0.1,0-0.1,0-0.2,0L24.6,18.1V18
			v-0.1V17.8l0,0h-0.1V17.9l0,0V18l0,0v0.1l0,0V18.2h-0.1c0,0,0,0,0,0.101l0,0c0,0,0,0,0,0.1h-0.1v0.102l0,0v0.102l0,0V18.7l0,0
			v0.101l0,0v0.1l0,0V19l0,0v0.1l0,0c0,0,0,0,0,0.103h-0.1v0.103l0,0v0.1l0,0v0.1h-0.1v0.1l0,0V19.7l0,0v0.101l0,0v0.1l0,0V20
			c0,0,0,0-0.1,0v0.1l0,0V20.2l0,0c0,0,0,0,0,0.101l0,0v0.1l0,0v0.102h-0.1v0.102l0,0c0,0,0,0,0,0.101l0,0v0.101l0,0v0.1V21l0,0v0.1
			l0,0V21.2h-0.1v0.101l0,0v0.1l0,0v0.102l0,0v0.102l0,0V21.7l0,0l0,0v0.101l0,0v0.1l0,0l0,0V22l0,0l0,0v0.1l0,0V22.2h-0.1v0.101
			h-0.1v0.1h-0.1v0.102h0.1h0.1v0.102h-0.1V22.7l0,0v0.101l0,0v0.1l0,0V23h-0.1v0.1l0,0V23.2l0,0v0.101l0,0v0.1l0,0v0.102V24l0,0
			c0,0,0,0-0.1,0v0.1l0,0V24.2v0.2h-0.1v0.1l0,0v0.1l0,0c0,0,0,0,0,0.103l0,0l0,0c-0.1,0-0.1,0-0.1,0h-0.1H23h-0.1c0,0,0,0-0.1,0
			h-0.1l0,0v0.1h-0.1v0.101l0,0V25h-0.1l-0.1,0.1l0,0V25.2l0,0v0.1l0,0c0,0,0,0,0,0.101l0,0v0.102h-0.1v0.102l0,0c0,0,0,0,0,0.101
			l0,0v0.101l0,0V25.9l0,0V26l0,0v0.1c0.1,0,0.1,0,0.1,0.103h0.1v0.1v0.101l-0.1,0.1h-0.1c0,0-0.1,0-0.2,0v0.1H22V26.7l0,0v0.1l0,0
			V26.9l0,0V27l0,0l0,0c-0.1,0-0.2,0-0.3,0v0.1V27.2l0,0v0.1l0.1,0.101l0,0l0,0v0.102v0.102V27.7l0,0l0,0c0,0,0,0,0,0.1l0,0
			c-0.1,0-0.1,0-0.2,0c-2.5,0-5,0-7.4,0h-0.1H14c-0.1,0-0.1,0-0.2,0c-0.1,0-0.1,0-0.2,0h-0.1h-0.1c-0.1,0-0.1,0-0.2,0l-0.1-0.1
			L13,27.6c0,0,0-0.1-0.1-0.1l-0.1-0.1V27.3l-0.1-0.1h-0.1L12.5,27.1L12.4,27v-0.1V26.8v-0.1c0,0,0,0,0-0.101v-0.102l0,0
			c0,0,0-0.102,0.1-0.102l0.1-0.101c0.1,0,0.1,0,0.1,0h0.1c0.1,0,0.1,0,0.2,0c0,0,0,0.101,0.1,0.101v0.102v-0.102V26.3V27L13,26.9
			V26.8l0,0v-0.1V26.6l0.1-0.1l0,0c0,0,0,0,0-0.1l0,0V26.3l0,0v-0.1l0,0l0,0c0,0,0.1,0,0.1-0.101c0,0,0,0,0.1,0c0,0,0,0,0-0.102h0.1
			v-0.102l0,0V25.8h0.1v-0.1l0,0V25.6l0,0v-0.1l0,0v-0.1h0.1V25.3l0,0c0,0,0,0,0-0.1h0.1V25.1l0,0V25h0.1v-0.1l0,0V24.8l0,0v-0.1
			l0,0V24.6l0,0v-0.1h0.1v-0.1l0,0V24.3l0,0v-0.1c0,0,0,0,0.1,0V24.1l0,0V24l0,0v-0.1l0,0V23.8v-0.1V23.6l0,0v-0.1l0,0v-0.1l0,0
			V23.3l0,0v-0.1h0.1V23.1l0,0V23l0,0v-0.1l0,0V22.8l0,0v-0.1h0.1V22.6l0,0v-0.1l0,0c0,0,0,0,0-0.1l0,0V22.3c0.1,0,0.1,0,0.1,0v-0.1
			l0,0V22.1l0,0V22l0,0v-0.1l0,0V21.8l0,0v-0.1l0,0c0,0,0,0,0-0.101l0,0v-0.102l0,0v-0.102l0,0V21.3h0.1l0,0v-0.1l0,0V21.1l0,0l0,0
			l0,0l0,0l0,0V21l0,0v-0.1l0,0V20.8h0.1v-0.1l0,0V20.6l0,0v-0.1l0,0v-0.1l0,0V20.3l0,0v-0.1l0,0l0,0h0.1l0,0V20.1l0,0V20l0,0v-0.1
			l0,0V19.8l0,0c0,0,0,0,0-0.1V19.6v-0.1l0,0v-0.1l0,0V19.3l0,0v-0.1l0,0V19.1l0,0V19l0,0v-0.1l0,0V18.8h0.1v-0.1l0,0
			c0,0,0,0,0-0.101l0,0v-0.102l0,0v-0.102l0,0V18.3l0,0v-0.101l0,0v-0.1l0,0V18l0,0v-0.1l0,0V17.8h0.1v-0.101l0,0v-0.1l0,0v-0.102
			l0,0v-0.102l0,0V17.3l0,0v-0.101l0,0v-0.1l0,0V17l0,0v-0.1l0,0V16.8h-0.1c0,0,0,0,0-0.101c-0.1,0-0.1,0-0.2,0h-0.1l0,0
			c-0.1,0-0.2,0-0.3,0s-0.1,0-0.2,0v-0.1c-0.2,0-0.3,0-0.5,0h-0.1l0,0c-0.1,0-0.3,0-0.4,0s-0.1,0-0.2,0v-0.102c-0.1,0-0.3,0-0.4,0
			h-0.1l0,0c-0.1,0-0.2,0-0.3,0s-0.1,0-0.2,0v-0.1c-0.1,0-0.2,0-0.3,0h-0.1l0,0c-0.2,0-0.3,0-0.5,0c-0.1,0-0.1,0-0.2,0v-0.1
			c-0.1,0-0.3,0-0.4,0h-0.1l0,0c-0.1,0-0.2,0-0.2,0c-0.1,0-0.1,0-0.2,0v-0.1c-0.1,0-0.1,0-0.2,0H9.4l0,0c-0.1,0-0.2,0-0.2,0
			c-0.1,0-0.1,0-0.2,0v-0.1c-0.1,0-0.1,0-0.1,0H8.8l0,0H8.7c-0.1,0-0.1,0-0.2,0V16c-0.1,0-0.1,0-0.2,0H8.2l0,0c-0.1,0-0.1,0-0.2,0
			c0,0-0.1,0-0.2,0v-0.1H7.7H7.6l0,0c-0.1,0-0.1,0-0.2,0c0,0-0.1,0-0.2,0v-0.1c0,0,0,0-0.1,0H7l0,0c-0.1,0-0.1,0-0.2,0
			c-0.1,0-0.1,0-0.2,0l-0.1-0.1l-0.1-0.1l0,0c-0.1,0-0.1,0-0.2,0l-0.1-0.1L6,15.4l0,0c-0.1,0-0.1,0-0.2,0c0,0-0.1,0-0.1-0.1
			c0,0-0.1,0-0.1-0.1H5.5c-0.1,0-0.1,0-0.2,0l-0.1-0.1V15l0,0c-0.1,0-0.1,0-0.2,0v-0.1c0,0,0,0-0.1,0s-0.1-0.1-0.2-0.1
			c-0.1,0-0.1,0-0.1,0l-0.1-0.1v-0.1c-0.1,0-0.1-0.1-0.1-0.1l-0.1-0.1l-0.1-0.1l-0.1-0.1c-1-2.2-1-2.2-1.1-2.3c-0.1,0-0.1,0-0.1,0
			l-0.1-0.1v-0.1c-0.1,0-0.1-0.1-0.1-0.1l-0.1-0.1v-0.1l-0.1-0.1c-0.1,0-0.1-0.1-0.2-0.1H2.2l-0.1-0.1c0,0-0.1,0-0.1-0.1
			c-0.1,0-0.1-0.1-0.1-0.1l0,0c-0.1,0-0.2,0-0.3,0v-0.1v-0.1l-0.1-0.1l-0.1-0.1l-0.1-0.1l-0.1-0.1c0,0,0-0.1-0.1-0.1L1,10.1l0,0V10
			l0,0H0.9H0.8V9.9V9.8c0,0,0,0,0-0.1c0,0-0.1,0-0.1-0.1V9.5L0.6,9.4V9.3l0,0V9.2V9.1V9V8.9V8.8V8.7V8.6l0,0V8.5c0,0,0,0,0-0.1V8.3
			V8.2V8.1V8V7.9l0,0V7.8V7.7V7.6V7.5V7.4V7.3V7.2l0,0V7.1V7V6.9V6.8V6.7V6.6V6.5l0,0l0.1-0.1c0,0,0-0.1,0.1-0.1V6.2V6.1L0.9,6
			C1,6.9,1,6.9,1,6.8V6.7c0,0,0,0,0.1,0c0,0,0,0,0-0.1V6.5V6.4V6.3V6.2l0.1-0.1V6l0,0V5.9V5.8V5.7V5.6V5.5V5.4V5.3l0,0V5.2V5.1V5
			c0,0,0,0,0-0.1V4.8V4.7V4.6l0,0l0.1-0.1V4.4V4.3V4.2V4.1V4V3.9h0.1l0.1-0.1V3.7l0.1-0.1C2,4.1,2,4.1,2.1,4.1z M29,14.1
			c-1.2,0-2.4,0-3.6,0l0,0v0.1v0.1v0.1v0.1v0.1l0,0v0.1v0.1c0,0,0,0,0,0.1V15v0.1v0.1v0.1l0,0c0,0,0.1,0,0.1,0.1l0.1,0.1l0.1,0.1
			l0,0l0,0l0,0l0,0l0,0v0.1c0,0,0.1,0.1,0.2,0.1c0.5,0,0.9,0,1.4,0c0.1,0,0.1,0,0.2,0h0.1l0,0c0.1,0,0.1,0,0.1,0s0,0,0-0.1l0,0h0.1
			c0.1,0,0.1,0,0.2,0l0.1-0.1l0.1-0.1c0,0,0,0,0-0.1l0.1-0.1l0,0c0,0,0,0,0-0.1l0.1-0.1l0.1-0.1v-0.1l0.1-0.1v-0.1v-0.1l0,0v-0.1
			l0.1-0.1l0.1-0.1h0.1l0,0v-0.1C29.1,14.2,29.1,14.2,29,14.1L29,14.1L29,14.1z M24.2,14.8L24.2,14.8L24.2,14.8
			c-0.1,0-0.1,0.1-0.1,0.1L24,15l0,0l0,0l0,0l0,0l0,0l0,0l0,0l0,0l0,0l0,0v0.1l0,0l0,0v0.1l0,0l0,0l0,0l0,0v0.1v0.1
			c0.3,0,0.6,0,0.9,0v-0.1c0,0,0,0,0-0.1h-0.1l-0.1-0.1V15v-0.1v-0.1c0,0-0.1,0-0.1-0.1c0,0,0,0,0-0.1v-0.1l0,0
			C24.2,15,24.2,14.9,24.2,14.8C24.2,14.9,24.2,14.9,24.2,14.8z M1.6,10.1C1.6,10,1.6,10,1.6,10.1c0-0.1,0-0.1,0-0.2c0,0,0,0-0.1,0
			l0,0C1.6,10,1.6,10,1.6,10.1L1.6,10.1L1.6,10.1z M6.3,11.1h0.1l0,0H6.3z"/>
	</defs>
	<clipPath id="SVGID_2_">
		<use xlink:href="#SVGID_1_"  overflow="visible"/>
	</clipPath>
	<path clip-path="url(#SVGID_2_)" fill="#1A5AC1" d="M-5.161,10.766L8.41,7.678l6.813,0.651l9.694-4.598l7.589,0.333l2.605,2.548
		l3.158,5.489l1.162,2.211c0,0,1.33-4.043,3.104-3.49c1.771,0.555,0.334,3.236,0.334,3.236l1.49,9.339l0.875,2.084
		c0,0-2.463,0.934-3.682,1.93c-1.221,1-2.34,1.607-2.723,1.664c-0.381,0.055-2.93-0.389-3.096-0.445
		c-0.166-0.053-3.103-3.1-3.103-3.1l0.125-2.889l0.303-1.102l-15.455-4.293c0,0-6.149,4.043-6.703,2.326
		c-0.063-0.188-4.764,4.932-5.096,5.152c-0.333,0.221-5.43,1.107-5.43,1.107l-4.1-1.828L-5.161,10.766z"/>
	
		<path clip-path="url(#SVGID_2_)" fill="none" stroke="#FFFFFF" stroke-width="0.5" stroke-linecap="round" stroke-linejoin="round" stroke-miterlimit="10" d="
		M49.941,12.371c0,0,1.679-6.124,4.959-6.046c2.504,0.06,4.14,2.069,4.525,4.411c0,0,0.83-2.807,2.931-2.322
		c1.086,0.251,2.703,3.395,2.703,3.395s1.698-3.231,2.815-0.246c0,0,2.817-4.091-1.75-5.438c-2.011-0.592-2.138-1.117-3.241-1.285
		c-1.322-0.201-0.917,0.423-3.648,4.683"/>
	
		<linearGradient id="SVGID_3_" gradientUnits="userSpaceOnUse" x1="569.5762" y1="822.9219" x2="607.7725" y2="822.9219" gradientTransform="matrix(1 0 0 1 -563.1992 -808.9199)">
		<stop  offset="0" style="stop-color:#A9D0FF"/>
		<stop  offset="0.1986" style="stop-color:#A7CBFF"/>
		<stop  offset="0.4411" style="stop-color:#A1BCFF"/>
		<stop  offset="0.7063" style="stop-color:#97A3FF"/>
		<stop  offset="0.9861" style="stop-color:#8981FF"/>
		<stop  offset="1" style="stop-color:#887FFF"/>
	</linearGradient>
	<path clip-path="url(#SVGID_2_)" fill="url(#SVGID_3_)" d="M7.629,15.228c0,0-0.051,1.956,1.075,3.202
		c1.128,1.246,2.342-0.666,2.342-0.666l3.266-0.389c0,0,2.977-2.52,3.324-2.186c0.348,0.33,6.068-1.58,6.068-1.58
		s-1.127,1.662-0.433,3.156c0.693,1.498,3.641,1.414,4.854,0.834c1.214-0.584-2.042,1.066,0.386,2.313s9.152-0.32,9.152-0.32
		s1.896,0.07,2.066-0.676c0.176-0.748,1.17,0.813,2.297,0.064c1.129-0.748,1.771-2.338,2.205-3c0.434-0.666,0.33-2.542,0.33-2.542
		s0.129,0.277-0.785-1.417c-1.184-2.187-4.102-4.707-6.697,0.084c-1.74,3.209-2.957,0.625-2.957,0.625s-3.919,1.539-6,0.457
		c-2.081-1.08-3.897-2.566-5.719-2.65c-1.821-0.083-4.421-0.499-5.115,0.083c-0.693,0.581-1.167-2.528-1.946-2.954
		c-0.781-0.426-8.676,1.702-8.937,3.031C6.147,12.023,7.629,15.228,7.629,15.228z"/>
	
		<path clip-path="url(#SVGID_2_)" fill="none" stroke="#FFFFFF" stroke-width="0.75" stroke-linecap="round" stroke-linejoin="round" stroke-miterlimit="10" d="
		M31.125,16.875c0,0,0.316-0.405,1.004-4.129c0.348-1.887,1.588-5.892,4.301-5.83c2.672,0.062,3.706,4.127,3.911,6.62
		c0,0,1.647-3.508,4.946-3.192c1.191,0.115,3.428,1.88,4.992,3.615c0,0-0.826-2.955-2.121-4.959
		c-0.479-0.742-1.217-2.75-4.008-2.765c-1.686-0.009-3.103,3.239-3.81,7.301"/>
	<path clip-path="url(#SVGID_2_)" fill="#AFCDFF" d="M11.529,1.233c0,0-3.482,2.228-5.324,1.195C4.363,1.397,0.289,0,0.289,0
		s-4.178,6.124-4.276,6.336c-0.102,0.215,3.511,6.89,3.511,6.89l7.25-1.467L11.529,1.233z"/>
	<path clip-path="url(#SVGID_2_)" fill="#E9EDFF" d="M9.322,11.229c0,0-2.79-1.197-4.896-1.354C2.321,9.717-1.541,8.479-1.541,8.479
		s-1.199,7.314-1.199,7.548c0,0.238,6.094,4.766,6.094,4.766l5.952-4.395L9.322,11.229z"/>
	
		<linearGradient id="SVGID_4_" gradientUnits="userSpaceOnUse" x1="511.5771" y1="881.1826" x2="511.5771" y2="872.7275" gradientTransform="matrix(0.9934 -0.1144 0.1144 0.9934 -563.9636 -798.0552)">
		<stop  offset="0" style="stop-color:#158CFF"/>
		<stop  offset="0.6989" style="stop-color:#FFFFFF"/>
	</linearGradient>
	<path clip-path="url(#SVGID_2_)" fill="url(#SVGID_4_)" d="M38.11,19.585c0,0,1.265-9.397,6.888-9.255
		C48.328,10.21,51.75,16,51.75,16L38.11,19.585z"/>
	<path clip-path="url(#SVGID_2_)" fill="#FFFFFF" d="M18.308,17.43c0,0,0.48-5.745-1.963-4.276
		c-1.658,0.996-1.688,5.184-1.688,5.184s-4.279,10.9-4.18,11.074C10.571,29.584,23.438,29,23.438,29l2-10.125L18.308,17.43z"/>
	<path clip-path="url(#SVGID_2_)" fill="#A4BAFF" d="M5.813,11.568c0.333,0.332,5.448-1.715,5.448-1.715s-0.712,1.797-0.047,3.293
		c0.664,1.496,3.49,1.412,4.653,0.832c1.164-0.582,1.662-2.162,3.989-0.916c0.888,0.477,1.568-3.794,2.698,1.494
		c0.624,2.92,2.454,1.416,2.454,1.416s2.939-0.686,3.105-1.433c0.168-0.748-0.335-0.229,0.745-0.978
		c1.081-0.748-0.152-2.783-0.411-3.522c-1.432-4.099-2.125-5.844-2.125-5.844s4.807,0.61,2.563-0.885
		c-2.242-1.496-3.051-4.406-5.708-0.75c-2.659,3.656-3.976,3.88-3.976,3.88S18.1,5.65,15.569,5.063
		C13.36,4.548,11.492,5.16,9.748,5.077s-3.601,1.34-4.266,1.922c-0.666,0.583-2.91,1.517-3.658,1.091
		C1.076,7.665,4.009,8.815,3.76,10.146C3.51,11.475,5.48,11.236,5.813,11.568z"/>
	<path clip-path="url(#SVGID_2_)" fill="#E9EDFF" d="M28.24,8.333c0,0,1.205-6.732,7.163-6.42c2.107,0.11-20.267-1.119-20.267-1.119
		S8.33,6.842,8.563,6.875c2.677,0.378,7.782,0.69,9.782,1.771s1.792,4.042,1.792,4.042l4.25-6.083l2.28-0.656L28.24,8.333z"/>
	<path clip-path="url(#SVGID_2_)" fill="#FFFFFF" d="M-0.261,6.271c0,0-2.388,0.993-2.173,2.45c0.214,1.457,1.141,3.942,1.64,3.083
		c0.5-0.854,1.365-3.518,1.867-4.368C1.53,6.664,2.655,4.312,5.16,5.715C5.962,6.165,7.479,7.52,7.479,7.52s1.783-4.885,6.847-4.885
		c0,0-4.853,2.466-5.731,5.302c-1.43,4.607,4.212,6.549,4.212,6.549l3.934-2.799l-3.646,3.645l-8.188,2.063
		c0,0,2.521-2.416,2.354-4.917c-0.135-2.013-0.74-3.442-0.74-3.442S4.638,5.453,2.572,7.854c-1.52,1.768-2.297,5.235-2.297,5.235
		l1.498,1.715l1.854,0.17l0.713,2.914c0,0-0.499,1.201-2.425-0.428c-1.925-1.629-2.211-2.314-2.211-2.314s-1.497,0.941-0.641,3.688
		c0.854,2.742-1.461,3.17-1.516,2.912c-0.054-0.256-1.515-4.885,0-6.6c1.516-1.713-0.41-1.713-1.552-5.569
		c-1.14-3.856-0.569-6.771,1.214-5.399C-1.009,5.549-0.261,6.271-0.261,6.271z"/>
	<path clip-path="url(#SVGID_2_)" fill="#B3B3FF" d="M68.563,7.688c0,0,1.531,0.578,2.297,2.219c0.793,1.773,3.654,1.585,4.252,0.4
		c1.184-2.342,2.693-3.146,0.906-4.716C74.895,4.603,71.15,6.458,68.563,7.688z"/>
	<path clip-path="url(#SVGID_2_)" fill="#FFFFFF" d="M15.864,6.396c-2.146,0.604-1.93,4.153-1.333,5.229
		c1.813,3.271,4.206,2.351,4.583,1.833c0.928-1.27,0.114-0.29,1.813-2.979c1.078-1.708,2.428-5.564,4.865-5.207
		c1.615,0.237,2.912,2.852,3.426,5.953c0.869,5.255,3.104,5.754,5.011,6.504c0.981,0.387-1.375,0.906-1.375,0.906
		s-3.801-1.182-4.49-6.699c-0.375-3.006-1.566-5.5-3.072-5.521c-2.375-0.031-4.881,6.763-4.881,6.763s-0.451,1.851-3.004,1.426
		c-5.375-0.896-3.917-7.167-3.917-7.167L16.01,6.02L15.864,6.396z"/>
	<path clip-path="url(#SVGID_2_)" fill="#A089F4" d="M24.072,6.792"/>
	<path clip-path="url(#SVGID_2_)" fill="#FFFFFF" d="M43.729,19.373c-0.158,2.064-0.895,3.967-1.859,4.633
		c-0.363,0.25-1.148,0.75-2.516,0.514c-1.293-0.227-2.557-1.416-2.557-1.416s0.008-0.094-1.211-1.105
		c-0.865-0.721,0.354-0.441,0.354-0.441s3.063,3.707,5.717,1.514c1.701-1.406,1.314-5.07,1.314-5.07L43.729,19.373z"/>
	
		<linearGradient id="SVGID_5_" gradientUnits="userSpaceOnUse" x1="560.8916" y1="860.0537" x2="560.8916" y2="854.2764" gradientTransform="matrix(0.997 -0.0776 0.0776 0.997 -563.4901 -799.7625)">
		<stop  offset="0" style="stop-color:#158CFF"/>
		<stop  offset="0.6989" style="stop-color:#FFFFFF"/>
	</linearGradient>
	<path clip-path="url(#SVGID_2_)" fill="url(#SVGID_5_)" d="M58.387,12.104c0,0,1.136-3.671,3.375-3.652
		c2.237,0.019,4.453,3.73,4.453,3.73l-4.028,2.024L58.387,12.104z"/>
</g>
</svg>
