<?xml version="1.0" encoding="utf-8"?>
<!-- Generator: Adobe Illustrator 16.0.0, SVG Export Plug-In . SVG Version: 6.00 Build 0)  -->
<!DOCTYPE svg PUBLIC "-//W3C//DTD SVG 1.0//EN" "http://www.w3.org/TR/2001/REC-SVG-20010904/DTD/svg10.dtd">
<svg version="1.0" id="Layer_1" xmlns="http://www.w3.org/2000/svg" xmlns:xlink="http://www.w3.org/1999/xlink" x="0px" y="0px"
	 width="92.6px" height="39.1px" viewBox="0 0 92.6 39.1" enable-background="new 0 0 92.6 39.1" xml:space="preserve">
<path opacity="0.7" fill="#077272" enable-background="new    " d="M56.108,13.927c0,0-4.911,0.914-8.795,6.398
	c0,0,3.313,1.483,2.17,2.4c-1.143,0.916-6.168-0.455-14.851,8.224c0,0,3.542-1.596,8.338-1.94c4.799-0.344-1.256,2.855-2.626,3.654
	c0,0,8.91-4.452,11.425-4.113c2.512,0.343-8.912,6.854-13.825,9.14c0,0,14.967-4.913,16.68-4.684
	c1.714,0.227-0.915,2.97-5.025,4.684c0,0,8.567,0,14.28-2.628c5.712-2.627,6.854-2.972,6.854-1.484c0,0,5.024-3.201,3.543-4.344
	c-1.484-1.142,3.771-2.629,7.31-5.256c3.543-2.628,5.024-4.342,5.024-4.342s-8.566,3.771-11.194,3.884
	c-2.627,0.115,1.713-3.542,6.397-5.597c4.687-2.056,6.169-5.826,6.169-5.826s-6.398,0.229-14.622,4.341
	c-8.227,4.113-9.14,5.484-8.454,2.97c0.686-2.513,8.225-6.055,8.225-6.055s-10.51,0.229-15.309,3.999
	c-4.797,3.771-3.427-0.914-2.399-1.828C56.452,14.613,56.108,13.927,56.108,13.927z"/>
<linearGradient id="SVGID_1_" gradientUnits="userSpaceOnUse" x1="743.1086" y1="574.8" x2="832.7083" y2="574.8" gradientTransform="matrix(1 0 0 1 -741.9199 -555.0996)">
	<stop  offset="0" style="stop-color:#5782CE"/>
	<stop  offset="0.9898" style="stop-color:#5CAEFF"/>
</linearGradient>
<linearGradient id="SVGID_2_" gradientUnits="userSpaceOnUse" x1="371.885" y1="-259.2756" x2="462.2346" y2="-259.2756" gradientTransform="matrix(1 0 0 -1 -370.96 -239.4995)">
	<stop  offset="0" style="stop-color:#86D4F7"/>
	<stop  offset="1" style="stop-color:#DEF6FF"/>
</linearGradient>
<path fill="url(#SVGID_1_)" stroke="url(#SVGID_2_)" stroke-width="0.75" stroke-miterlimit="10" d="M90.9,10.2
	c0,0.6-0.1,1.196-0.3,2c-0.1,0.396-0.1,0.696-0.3,1h-27V14L63,14.3H38.3v-1.1h-1c-0.2,0.1-0.2,0.396-0.1,0.8l0.696,2.1h0.4l0.1,0.4
	l-0.6,0.3l0.1,0.5c0.2,0.4,0.4,0.9,0.5,1.5c0.7,1.7,1.5,3.6,2.604,5.7c1,2,2.5,4.396,4.396,7.1c0.9,1.3,1.7,2.5,2.5,3.5L44.2,38
	c-0.7-0.9-1.5-2-2.5-3.4c-1.804-2.7-3.304-5.2-4.4-7.5s-2.1-4.396-3-6.3l-1-2.3L33,18.6h-1.4L31.2,20.7H31l0.3-2h-1.5L29.5,19
	l-1.8,3.5C27.6,22.8,27.4,22.9,27.1,22.9h-5.5c-0.5,0-0.896-0.1-1.2-0.396L20.2,22.7C20.1,22.9,20,23,19.9,23.2
	c-0.1,0.1-0.1,0.3-0.1,0.6s-0.1,0.5-0.2,0.7c0,0.1-0.1,0.3-0.3,0.6c-0.2,0.2-0.4,0.5-0.4,0.8C18.8,26.2,18.7,26.5,18.7,26.8
	s0,0.6-0.104,0.7c0,0.2-0.2,0.396-0.396,0.8c-0.2,0.3-0.4,0.6-0.5,0.9C17.6,29.4,17.6,29.7,17.6,30.1c0,0.3-0.1,0.5-0.1,0.7
	C17.4,31,17.2,31.3,17,31.5c-0.2,0.1-0.3,0.2-0.4,0.3l-6-3.3c0-0.3,0.104-0.7,0.3-1.2c0.304-1,0.7-2,1.2-3.1
	c0.4-0.9,1-1.7,1.604-2.604c0.3-0.396,0.5-0.7,0.6-0.8c0.1-0.3,0.3-0.5,0.4-0.7C14.9,19.5,15,19,15,18.6c0.1-0.6,0-1-0.3-1.396
	C14.5,16.9,14.2,16.6,13.9,16.4C13.7,16.3,13.5,16.3,13.4,16.2c-0.1,0-0.196-0.104-0.3-0.104c-0.1-0.1-0.2-0.2-0.2-0.3H9.1
	c-0.3,0-0.6-0.3-0.8-0.8l-0.6-3H7.4l-0.1,0.3L8,14.5L7.7,15H6.2L5.9,14.4l1-2l-0.1-0.5l-0.4,0.2C6.1,12.4,5.9,12.7,5.7,13
	C5.5,13.4,5.4,13.7,5.3,14.1c-0.1,0.2-0.1,0.3-0.1,0.4L4.7,17.9C4.3,20.1,4.1,21.3,3.9,21.5c-0.1,0.1-0.3,0.2-0.396,0.3
	c-0.104,0.1-0.2,0.1-0.3,0.1c-0.2,0-0.5,0-0.804,0C2,21.8,1.7,21.7,1.6,21.5c-0.2-0.2-0.3-0.3-0.3-0.5c0-0.104,0-0.2,0-0.5
	c0,0,0.1-0.8,0.4-2.2C1.8,17,2,16,2.1,15.3c0-0.4,0-1.8,0-4V8.6c0-0.5,0-0.896,0.104-1.1C2.4,7.3,2.6,7.2,2.8,7.2
	c0.3,0,0.9,0,2,0.196C5.3,7.5,5.8,7.7,6.3,7.8h1.4V7C7.9,6.7,8,6.4,8.1,6C8.4,5.3,8.5,4.9,8.6,4.7C8.7,4.6,8.9,4.5,9,4.5
	c0.1,0,0.1,0,0.1,0h3.7l0.3,0.1h1.8L15,3.2C15.1,2.9,15.3,2.6,15.4,2.5C15.6,2.4,15.8,2.3,16,2.4c0.2,0,0.396,0,0.5,0L16.7,3.2
	l0.396-1L19.2,3l-0.5,0.8l0.5,0.8H38.1L38.5,4.7h22.8V4.1H61V1.7L61.2,1.4H62l0.7,1.9v1.2h0.5L63.5,5v1.7h-0.3v0.6h27.3l0.2,0.9
	C90.8,9,90.9,9.6,90.9,10.2z M28.3,19L28,18.6H23.9L23.7,19c-0.104,0.3-0.2,0.5-0.304,0.8c0,0.2,0,0.5,0.104,0.9
	c0.1,0.3,0.1,0.6,0.2,0.8V22l-0.4-0.2c-0.3-0.4-0.5-0.9-0.6-1.3C22.6,20.1,22.6,19.7,22.6,19.2v-0.5h-1l-0.5,1
	C20.8,20.4,20.7,20.8,20.7,20.9c0,0.2,0,0.5,0,0.9c0.3,0.3,0.6,0.5,1,0.6h5.1c0.2,0,0.3-0.196,0.4-0.396L28.3,19z"/>
<g>
	<g>
		<defs>
			<path id="SVGID_3_" d="M90.9,10.2c0,0.6-0.1,1.196-0.3,2c-0.1,0.396-0.1,0.696-0.3,1h-27V14L63,14.3H38.3v-1.1h-1
				c-0.2,0.1-0.2,0.396-0.1,0.8l0.696,2.1h0.4l0.1,0.4l-0.6,0.3l0.1,0.5c0.2,0.4,0.4,0.9,0.5,1.5c0.7,1.7,1.5,3.6,2.604,5.7
				c1,2,2.5,4.396,4.396,7.1c0.9,1.3,1.7,2.5,2.5,3.5L44.2,38c-0.7-0.9-1.5-2-2.5-3.4c-1.804-2.7-3.304-5.2-4.4-7.5
				s-2.1-4.396-3-6.3l-1-2.3L33,18.6h-1.4L31.2,20.7H31l0.3-2h-1.5L29.5,19l-1.8,3.5C27.6,22.8,27.4,22.9,27.1,22.9h-5.5
				c-0.5,0-0.896-0.1-1.2-0.396L20.2,22.7C20.1,22.9,20,23,19.9,23.2c-0.1,0.1-0.1,0.3-0.1,0.6s-0.1,0.5-0.2,0.7
				c0,0.1-0.1,0.3-0.3,0.6c-0.2,0.2-0.4,0.5-0.4,0.8C18.8,26.2,18.7,26.5,18.7,26.8s0,0.6-0.104,0.7c0,0.2-0.2,0.396-0.396,0.8
				c-0.2,0.3-0.4,0.6-0.5,0.9C17.6,29.4,17.6,29.7,17.6,30.1c0,0.3-0.1,0.5-0.1,0.7C17.4,31,17.2,31.3,17,31.5
				c-0.2,0.1-0.3,0.2-0.4,0.3l-6-3.3c0-0.3,0.104-0.7,0.3-1.2c0.304-1,0.7-2,1.2-3.1c0.4-0.9,1-1.7,1.604-2.604
				c0.3-0.396,0.5-0.7,0.6-0.8c0.1-0.3,0.3-0.5,0.4-0.7C14.9,19.5,15,19,15,18.6c0.1-0.6,0-1-0.3-1.396
				C14.5,16.9,14.2,16.6,13.9,16.4C13.7,16.3,13.5,16.3,13.4,16.2c-0.1,0-0.196-0.104-0.3-0.104c-0.1-0.1-0.2-0.2-0.2-0.3H9.1
				c-0.3,0-0.6-0.3-0.8-0.8l-0.6-3H7.4l-0.1,0.3L8,14.5L7.7,15H6.2L5.9,14.4l1-2l-0.1-0.5l-0.4,0.2C6.1,12.4,5.9,12.7,5.7,13
				C5.5,13.4,5.4,13.7,5.3,14.1c-0.1,0.2-0.1,0.3-0.1,0.4L4.7,17.9C4.3,20.1,4.1,21.3,3.9,21.5c-0.1,0.1-0.3,0.2-0.396,0.3
				c-0.104,0.1-0.2,0.1-0.3,0.1c-0.2,0-0.5,0-0.804,0C2,21.8,1.7,21.7,1.6,21.5c-0.2-0.2-0.3-0.3-0.3-0.5c0-0.104,0-0.2,0-0.5
				c0,0,0.1-0.8,0.4-2.2C1.8,17,2,16,2.1,15.3c0-0.4,0-1.8,0-4V8.6c0-0.5,0-0.896,0.104-1.1C2.4,7.3,2.6,7.2,2.8,7.2
				c0.3,0,0.9,0,2,0.196C5.3,7.5,5.8,7.7,6.3,7.8h1.4V7C7.9,6.7,8,6.4,8.1,6C8.4,5.3,8.5,4.9,8.6,4.7C8.7,4.6,8.9,4.5,9,4.5
				c0.1,0,0.1,0,0.1,0h3.7l0.3,0.1h1.8L15,3.2C15.1,2.9,15.3,2.6,15.4,2.5C15.6,2.4,15.8,2.3,16,2.4c0.2,0,0.396,0,0.5,0L16.7,3.2
				l0.396-1L19.2,3l-0.5,0.8l0.5,0.8H38.1L38.5,4.7h22.8V4.1H61V1.7L61.2,1.4H62l0.7,1.9v1.2h0.5L63.5,5v1.7h-0.3v0.6h27.3l0.2,0.9
				C90.8,9,90.9,9.6,90.9,10.2z M28.3,19L28,18.6H23.9L23.7,19c-0.104,0.3-0.2,0.5-0.304,0.8c0,0.2,0,0.5,0.104,0.9
				c0.1,0.3,0.1,0.6,0.2,0.8V22l-0.4-0.2c-0.3-0.4-0.5-0.9-0.6-1.3C22.6,20.1,22.6,19.7,22.6,19.2v-0.5h-1l-0.5,1
				C20.8,20.4,20.7,20.8,20.7,20.9c0,0.2,0,0.5,0,0.9c0.3,0.3,0.6,0.5,1,0.6h5.1c0.2,0,0.3-0.196,0.4-0.396L28.3,19z"/>
		</defs>
		<clipPath id="SVGID_4_">
			<use xlink:href="#SVGID_3_"  overflow="visible"/>
		</clipPath>
		<g clip-path="url(#SVGID_4_)">
			<polygon fill="#148193" points="52.288,34.535 43.91,39.505 30.005,14.651 38.841,17.008 42.02,15.391 			"/>
			<polygon fill="#E08300" stroke="#DDBE26" stroke-miterlimit="10" points="33.445,22.794 46.143,15.982 48.985,21.38 
				36.286,28.19 			"/>
			<polygon fill="#E08300" stroke="#DDBE26" stroke-miterlimit="10" points="36.685,31.197 49.383,24.386 52.225,29.781 
				39.526,36.593 			"/>
			
				<linearGradient id="SVGID_5_" gradientUnits="userSpaceOnUse" x1="728.6409" y1="572.9866" x2="789.761" y2="572.9866" gradientTransform="matrix(1 0 0 1 -741.9199 -555.0996)">
				<stop  offset="5.581969e-004" style="stop-color:#FF9500"/>
				<stop  offset="1" style="stop-color:#EFB941"/>
			</linearGradient>
			<path fill="url(#SVGID_5_)" d="M-13.078,9.739l15.35-3.6l6.362-3.005l6.145,1.119l11.858-2.251l6.592,0.469
				c0,0,12.792,2.499,14.612,5.304c0,0-3.02,1.725-4.106,4.345c-1.088,2.618-2.641,4.466-5.13,4.994
				c-2.492,0.527-4.548-2.251-6.72-0.968c-2.173,1.282-5.549,3.974-7.081,5.082s-4.153,7.365-5.462,9.262
				c-1.31,1.905-3.044,3.906-4.669,3.099c-1.624-0.809-3.782-2.2-3.782-2.2l-8.727-3.67l-7.197,0.142l-7.066,1.142l-1.18-1.683
				L-13.078,9.739z"/>
			<path fill="#300093" d="M9.363,6.985c0,0-5.868-2.343-8.505,2.379c-3.401,6.088,4.413,6.586,4.413,6.586
				S4.516,10.657,9.363,6.985z"/>
			<path fill="#5D29FF" d="M13.574,31.303l-0.071-5.044c0,0-3.938,0.586-5.148-3.729c-0.998-3.548,2.354-6.324,2.354-6.324
				l-2.461-3.415c0,0-7.344,7.072-3.843,14.349C6.887,32.304,13.574,31.303,13.574,31.303z"/>
			<path fill="#4383FF" d="M11.249,5.917c0,0-1.396,3.173-2.329,3.974c-0.934,0.801,1.583-0.122,1.583-0.122l0.174,4.5l2.333,1.096
				l5.279-4.228l-5.924-7.321L11.249,5.917z"/>
			<path fill="#8600EE" d="M27.293,9.762c0,0-2.804-1.665-6.126,0.141c-3.321,1.806-3.708,8.773,2.073,9.412
				c4.961,0.55,5.939-5.535,3.11-6.379c-2.83-0.843-2.989,2.044-2.669,2.351h-0.764c0,0-1.146-3.519,2.749-3.482
				c3.875,0.035,2.958,4.936,2.958,4.936s1.855-3.07,4.2-2.896c2.648,0.2,2.172,1.438,3.876,1.776
				c1.771,0.352,4.335,0.299,5.145-3.447c0.44-2.026,3.158-3.396,3.158-3.396s-3.434-1.178-5.406,1.636
				c-1.804,2.569-3.114,0.923-4.17-0.229c-1.552-1.688-3.339-2.216-6.144-1.706C28.374,8.644,27.293,9.762,27.293,9.762z"/>
			
				<ellipse transform="matrix(-0.2747 0.9615 -0.9615 -0.2747 37.1829 13.7261)" fill="#00A625" cx="13.414" cy="20.887" rx="4.633" ry="4.412"/>
			<path fill="#A20063" d="M33.055,5.373c0,0,1.729-0.677,5.29,0.185c3.562,0.862,5.146,2.057,5.146,2.057s-3.34-0.104-4.149,1.407
				c-0.814,1.514-1.587,1.583-2.362,1.233c-0.776-0.354-1.678-2.146-4.17-2.481c-2.247-0.3,0.128-1.811,0.128-1.811L33.055,5.373z"
				/>
			<path fill="#F58800" d="M16.315,6.209c0.057,0.018,2.104,4.556,2.104,4.556l4.427-2.375l-0.941-3.833L16.315,6.209z"/>
			<polygon fill="#5CFF16" points="22.403,4.557 23.547,8.29 26.794,8.777 27.034,4.03 			"/>
			<path fill="#646BFF" d="M32.532,4.258c0,0-1.458,2.867-1.477,3.401c0,0-2.715-0.195-3.58,0.801l0.112-4.644L32.532,4.258z"/>
		</g>
	</g>
</g>
<g>
	<path fill="#F3FFFE" d="M46.987,28.054l-1.519,3.273h-3.155l7.244-14.375h3.507l2.103,14.375h-3.039l-0.351-3.273H46.987z
		 M50.843,19.991l-2.453,5.258h3.037L50.843,19.991z"/>
	<path fill="#F3FFFE" d="M59.608,31.327c-0.818,0-1.52-0.235-1.986-0.82c-0.465-0.584-0.585-1.284-0.465-2.102l1.633-8.882
		c0.121-0.818,0.467-1.52,1.169-1.986c0.585-0.468,1.288-0.702,2.22-0.702h4.675c0.817,0,1.518,0.233,1.986,0.818
		c0.466,0.585,0.584,1.286,0.466,2.104l-0.354,2.221h-3.037l0.35-1.869c0-0.234,0-0.352,0-0.469
		c-0.118-0.116-0.233-0.116-0.465-0.116h-3.154c-0.467,0-0.817,0.233-0.937,0.816l-1.4,7.714c0,0.234,0,0.352,0,0.469
		c0.117,0.115,0.232,0.115,0.466,0.115h3.155c0.466,0,0.817-0.232,0.936-0.817l0.233-1.636h3.038l-0.584,2.456
		c-0.118,0.818-0.465,1.52-1.169,1.987c-0.584,0.464-1.285,0.701-2.218,0.701L59.608,31.327L59.608,31.327z"/>
	<path fill="#F3FFFE" d="M81.693,16.953l-0.467,2.687h-6.66l-0.585,2.922h5.378l-0.467,2.688h-5.376l-0.584,3.273h6.659
		l-0.467,2.689h-9.58l2.568-14.257L81.693,16.953L81.693,16.953z"/>
</g>
</svg>
