<?xml version="1.0" encoding="utf-8"?>
<!-- Generator: Adobe Illustrator 16.0.0, SVG Export Plug-In . SVG Version: 6.00 Build 0)  -->
<!DOCTYPE svg PUBLIC "-//W3C//DTD SVG 1.0//EN" "http://www.w3.org/TR/2001/REC-SVG-20010904/DTD/svg10.dtd">
<svg version="1.0" id="图层_1" xmlns="http://www.w3.org/2000/svg" xmlns:xlink="http://www.w3.org/1999/xlink" x="0px" y="0px"
	 width="49.1px" height="32px" viewBox="0 0 49.1 32" enable-background="new 0 0 49.1 32" xml:space="preserve">
<path opacity="0.7" fill="#077272" enable-background="new    " d="M26.255,9.773c0,0-3.519,0.812-6.303,5.689
	c0,0,2.374,1.32,1.555,2.135c-0.818,0.813-4.421-0.406-10.644,7.313c0,0,2.538-1.42,5.976-1.726c3.439-0.307-0.901,2.539-1.883,3.25
	c0,0,6.386-3.96,8.188-3.658c1.801,0.304-6.387,6.097-9.908,8.127c0,0,10.727-4.367,11.955-4.164
	c1.228,0.201-0.657,2.64-3.603,4.164c0,0,6.141,0,10.234-2.337c4.095-2.335,4.912-2.642,4.912-1.319c0,0,3.602-2.848,2.539-3.863
	c-1.063-1.015,2.703-2.337,5.24-4.675c2.539-2.336,3.6-3.86,3.6-3.86s-6.139,3.353-8.021,3.453
	c-1.884,0.104,1.228-3.149,4.584-4.976c3.359-1.829,4.422-5.182,4.422-5.182s-4.586,0.205-10.48,3.862
	c-5.896,3.656-6.55,4.875-6.059,2.641c0.492-2.236,5.895-5.384,5.895-5.384s-7.531,0.203-10.972,3.555
	c-3.437,3.354-2.456-0.811-1.72-1.625C26.503,10.384,26.255,9.773,26.255,9.773z"/>
<linearGradient id="SVGID_1_" gradientUnits="userSpaceOnUse" x1="746.8118" y1="581.9443" x2="787.9233" y2="569.2571" gradientTransform="matrix(1 0 0 1 -741.9199 -562.1992)">
	<stop  offset="0" style="stop-color:#5782CE"/>
	<stop  offset="0.9898" style="stop-color:#5CAEFF"/>
</linearGradient>
<linearGradient id="SVGID_2_" gradientUnits="userSpaceOnUse" x1="371.6604" y1="-263.0303" x2="420.0354" y2="-263.0303" gradientTransform="matrix(1 0 0 -1 -370.96 -246.5996)">
	<stop  offset="0" style="stop-color:#86D4F7"/>
	<stop  offset="1" style="stop-color:#DEF6FF"/>
</linearGradient>
<path fill="url(#SVGID_1_)" stroke="url(#SVGID_2_)" stroke-width="0.75" stroke-miterlimit="10" d="M28.303,10.423
	C28.303,10.326,28.303,10.326,28.303,10.423c-1.171-0.097-2.244-0.097-3.315-0.097v0.097v0.098v0.098v0.098l0,0l0,0l0,0
	c0.099,0,0.099,0.098,0.192,0.098l0.099,0.097v0.098l0,0h0.098v0.098v0.098l0,0v0.098v0.097v0.098l0,0l0,0l0.101,0.098v0.098
	l0.098,0.098l0,0l0,0l0,0l0.097,0.097v0.098l0,0l0,0h0.1v0.098c0.388,0,0.78,0,1.171,0l0,0h0.098l0,0h0.098v-0.098l0.096-0.098
	c0.099,0,0.099,0,0.099,0v-0.1l0,0v-0.098v-0.098v-0.098l0,0l0,0v-0.098l0.1-0.097v-0.098l0,0v-0.098v-0.098h0.098h0.098v-0.098
	v-0.097v-0.098v-0.098l0,0v-0.098C28.303,10.521,28.303,10.521,28.303,10.423L28.303,10.423z M44.016,6.617L44.016,6.617
	c0,0.098,0.099,0.098,0.099,0.098c0.194,0,0.391,0,0.585,0l0,0h3.807L48.7,7.007v2.245l-0.293,0.292h-3.515v0.098
	c-0.194,0-0.388,0-0.585,0l0,0L44.21,9.74h-0.098v0.098v0.097v0.098l0,0v0.098v0.098v0.098v0.097v0.098l-0.098,0.098l0,0v0.098
	v0.098v0.097l0,0l0,0v0.098c-0.1,0-0.1,0-0.195,0c-0.1,0-0.1,0-0.194,0v-0.098h-0.098l0,0v-0.097v-0.098V10.62l0,0l-0.099-0.098
	l-0.097-0.098v-0.097h-0.1l-0.097-0.098L43.04,10.13v-0.098c0,0,0,0-0.101,0V9.935l-0.096-0.097L42.746,9.74L42.65,9.643V9.545l0,0
	c-0.098,0-0.098,0-0.194,0l0,0c-0.099,0-0.099,0-0.099,0c0,0.098-0.1,0.098-0.1,0.098c0,0.098,0,0.098,0,0.098l-0.098,0.098
	c-0.098,0.097-0.098,0.097-0.195,0.097c-0.097,0-0.097,0.098-0.195,0.098c-0.097,0-0.097,0-0.097,0l0,0l0,0v0.098
	c-0.098,0-0.098,0-0.098,0c-0.1,0-0.1,0.098-0.1,0.098v0.098v0.097l0,0v0.098h-0.097l0,0v0.098v0.098v0.098v0.097v0.098l0,0v0.098
	v0.098l0,0v0.098l0,0v0.097v0.098v0.098l0,0v0.098l0,0v0.098v0.097l0,0v0.098v0.098v0.098v0.098v0.097v0.098l0,0v0.098v0.098v0.098
	v0.097v0.098v0.098v0.098l0,0v0.098v0.097v0.098v0.098v0.098v0.098v0.097l0,0v0.098v0.098v0.098v0.098l0,0v0.097v0.098v0.098l0,0
	v0.098l0,0v0.098l0,0v0.097v0.098v0.098v0.098v0.098v0.097V15.4l0,0v0.098v0.098v0.098v0.293v0.098v0.098v0.097l0,0v0.098v0.098
	v0.098v0.099v0.097v0.1v0.097l0,0v0.099v0.098v0.098v0.098v0.099v0.097v0.1l0,0v0.097l0,0v0.099l0,0v0.098v0.098v0.1l0,0v0.096l0,0
	v0.1v0.098l0,0v0.098v0.098v0.098v0.099v0.098v0.097v0.1l0,0v0.097v0.099v0.098v0.098v0.1v0.097v0.099l0,0v0.098v0.098v-0.111v0.098
	v0.098v0.098l0,0v0.098v0.099l0,0v0.097l0,0v0.1v0.097v0.099l0,0v0.099l0,0v0.097v0.1l0,0v0.097v0.099v0.098v0.098v0.098v0.098
	v0.099l0,0v0.099h-0.097l0,0c-0.098,0-0.098,0-0.098,0h-0.098c-0.099,0-0.099,0-0.099,0H40.89c-0.1,0-0.292,0-0.391,0
	c-0.098,0-0.098,0-0.195,0s-0.098-0.099-0.098-0.099h-0.098l0,0c-0.101,0-0.101,0-0.194,0l0,0c-0.102,0-0.102,0-0.195,0
	c-0.096,0-0.098,0-0.098,0l0,0c-0.101,0-0.101,0-0.195,0c-0.1,0-0.1,0-0.195,0l0,0c-0.097,0-0.097,0-0.194,0h-0.098H38.84h-0.098
	c-0.098,0-0.098,0-0.098,0c-0.099,0-0.099-0.099-0.099-0.099c-0.097,0-0.097-0.098-0.195-0.098l0,0
	c-0.097,0-0.097-0.098-0.097-0.098c-0.098,0-0.098-0.1-0.098-0.1v-0.1h-0.099v-0.095l-0.098-0.097v-0.1h-0.099H37.77V20.87v-0.099
	V20.67l0,0v-0.098v-0.098l0,0l-0.097-0.098l0,0v-0.098v-0.098v-0.098l0,0v-0.098l0,0v-0.096v-0.098v-0.195v-0.099l0,0V19.4v-0.096
	v-0.1v-0.098v-0.099v-0.097v-0.098l0,0v-0.099v-0.098l0,0V18.52l0,0v-0.098v-0.097V18.23l0,0v-0.098l0,0v-0.099l0,0v-0.099v-0.097
	V17.74v-0.098v-0.099V17.45v-0.099l0,0v-0.098v-0.098v-0.096v-0.099v-0.097v-0.1V16.67l0,0v-0.1v-0.097v-0.098v-0.098V16.18v-0.098
	v-0.098l0,0v-0.098v-0.098v-0.097v-0.098v-0.098V15.4v-0.098l0,0v-0.097l0,0v-0.098l0,0V15.01v-0.098v-0.098l0,0v-0.097l0,0V14.62
	v-0.098l0,0v-0.098v-0.098v-0.097v-0.098v-0.098v-0.098v-0.098l0,0V13.74v-0.098v-0.098v-0.098v-0.098v-0.097v-0.098l0,0v-0.098
	V12.96v-0.098v-0.097v-0.098V12.57l0,0v-0.098v-0.098l0,0v-0.097l0,0V12.18v-0.098v-0.098l0,0v-0.098l0,0V11.79v-0.098l0,0v-0.098
	v-0.098v-0.098v-0.097v-0.098v-0.098v-0.098l0,0v-0.098v-0.097v-0.098l0,0c-0.102,0-0.102,0-0.102,0c-2.146,0-4.392,0-6.538,0l0,0
	l0,0v0.098v0.097l0,0v0.098l0,0v0.098v0.098v0.098l0,0v0.097l0,0l-0.098,0.098v0.098l0,0v0.098v0.098
	c-0.098,0-0.098,0.097-0.194,0.097h-0.099h-0.098v0.098l-0.096,0.098c-0.099,0-0.099,0.098-0.099,0.098l0,0v0.098v0.097v0.098
	l-0.098,0.098v0.098v0.098l0,0v0.097v0.098v0.098l0,0l0,0l-0.099,0.098v0.098v0.097l0,0v0.098v0.098l0,0l-0.098,0.098l0,0
	l-0.098,0.098h-0.098c-0.101,0-0.194,0.097-0.391,0.097h-0.098H29.28c-0.389,0-0.876,0-1.269,0l0,0c-0.098,0-0.098,0-0.098,0
	c-0.977,0-2.053,0.098-3.028,0.098h-0.097H24.69c-0.097,0-0.191,0-0.191,0l0,0L24.4,14.034l0,0l0,0v0.098v0.098v0.097l0,0v0.098
	v0.098v0.098v0.098v0.097v0.098v0.098l0,0v0.098v0.098l0,0v0.097l0,0V15.4v0.098v0.098l0,0v0.098l0,0v0.097l0,0v0.098v0.098v0.098
	v0.098v0.097v0.098v0.098l0,0v0.098v0.099v0.097v0.1v0.097v0.099v0.098l0,0v0.098v0.098v0.099v0.097v0.1v0.097v0.099l0,0v0.098
	v0.098v0.1v0.096v0.1v0.098v0.098l0,0v0.098l0,0v0.098l0,0v0.099v0.098v0.097l0,0v0.1l0,0v0.097v0.099l0,0v0.098v0.098v0.1v0.097
	v0.099v0.098v0.098l0,0V20.1v0.098v0.099v0.099v0.097v0.099v0.098l0,0v0.099v0.098l0,0l0,0v0.097h-0.097v0.1v0.098l0,0v0.098
	l-0.098,0.098v0.098v0.098v0.099v0.099v0.098l0,0v0.097v0.099v0.098h0.098v0.099v0.099v0.097l0,0v0.099v0.098v0.099v0.097v0.098
	v0.099v0.099l0,0v0.098v0.098l0,0v0.098l0,0v0.098v0.098v0.1l0,0v0.098l0,0v0.097v0.099l0,0v0.098v0.099v0.097l0,0H24.4v0.099v0.098
	l0,0v0.099v0.098v0.098l0.101,0.098l0,0v0.099v0.099v0.098l0,0v0.098v0.098v0.098l0,0l0,0v0.098v0.1v0.096l0,0v0.099v0.099h0.097
	v0.098l0,0v0.098v0.098v0.098l0,0v0.099l0,0l0.097,0.099l0,0v0.098v0.098v0.098v0.099l0,0l0,0v0.097v0.1l0,0v0.097v0.099v0.098l0,0
	l0,0v0.098V27.6v0.098l0,0v0.098v0.1v0.098h0.099l0,0v0.098v0.098v0.098l0,0v0.099v0.099h0.097l0,0v0.098v0.098v0.098v0.098l0,0
	c0.101,0,0.101,0,0.196,0v0.1l0,0v0.096l0,0v0.101v0.099v0.096l0,0v0.099l0,0v0.097v0.099l0,0v0.097v0.1v0.098l0,0l0,0v0.098
	l-0.099,0.1v0.1h-0.1c-0.488,0-0.976,0-1.464,0h-0.097l0,0c-0.101,0-0.195,0-0.195,0l-0.097,0.094l0,0h-0.099
	c-0.585,0-1.171,0-1.66,0c-0.097,0-0.097,0-0.191,0c-0.101,0-0.101-0.098-0.197-0.098l0,0c-0.1,0-0.1,0-0.195,0
	c-0.194,0-0.487,0-0.683,0H19.91l-0.488,0.391c-0.101,0-0.101,0-0.195,0l0,0H19.13c-0.101,0-0.101,0-0.195,0l-0.098-0.098V30.43l0,0
	H18.74v-0.098v-0.098v-0.098l0,0l-0.098-0.098v-0.1l0,0l-0.099-0.097l0,0v-0.099v-0.098v-0.098l0,0l-0.098-0.098l0,0v-0.098l0,0
	v-0.099v-0.098v-0.099v-0.098l0,0l0,0v-0.098v-0.098l0,0v-0.099V28.57l-0.098-0.1v-0.097v-0.099v-0.098V28.08l0,0v-0.09v-0.098v-0.1
	h-0.097l0,0v-0.098V27.6v-0.098l0,0v-0.098v-0.098v-0.099v-0.097v-0.1v-0.097v-0.099l0,0v-0.098l0,0v-0.098l0,0v-0.098v-0.099V26.33
	l0,0v-0.098l0,0v-0.098v-0.098l0,0v-0.098v-0.098v-0.098v-0.098V25.55v-0.097v-0.1l0,0v-0.097V25.16v-0.098v-0.099v-0.099V24.77
	v-0.098l0,0v-0.098v-0.098l0,0l0,0v-0.099v-0.099v-0.096l0,0v-0.1v-0.098l0,0v-0.098l0,0v-0.098v-0.098v-0.1l0,0v-0.097l0,0v-0.099
	v-0.098l0,0v-0.098v-0.094v-0.098v-0.098v-0.098v-0.098V22.62l0,0v-0.097v-0.1V22.33v-0.098v-0.1v-0.098l0,0v-0.098V21.84v-0.098
	v-0.098v-0.1v-0.098v-0.1l0,0h-0.195H17.96h-0.099h-0.097l0,0c-0.097,0-0.097,0-0.195,0l-0.097-0.095l-0.098-0.099v-0.098v-0.099
	v-0.097l0,0v-0.098V20.67v-0.098v-0.098v-0.1v-0.1v-0.094l0,0v-0.1l-0.098-0.098v-0.094v-0.098v-0.1v-0.098v-0.098l0,0V19.4V19.3
	l0,0v-0.095l0,0v-0.098v-0.099v-0.097l0,0v-0.098l0,0v-0.099l0,0V18.62v-0.097v-0.101v-0.099V18.23v-0.099v-0.098l0,0v-0.099v-0.097
	V17.74v-0.098v-0.099v-0.099v-0.1l0,0v-0.095v-0.099v-0.092v-0.099v-0.097v-0.1v-0.098l0,0V16.57v-0.1v-0.098v-0.098v-0.098v-0.097
	v-0.096l0,0v-0.098l0,0v-0.098V15.69v-0.098v-0.098V15.4l0,0v-0.098h0.098v-0.097v-0.098l0,0V15.01l0.098-0.098v-0.098l0,0h0.097
	v-0.097V14.62v-0.098l0,0v-0.098v-0.098v-0.097h0.099v-0.098v-0.098v-0.098v-0.098h0.097V13.74v-0.098l0,0l0,0v-0.098v-0.098v-0.098
	l0,0v-0.097v-0.098l0,0v-0.098l0,0V12.96v-0.098v-0.097l0,0l0.097-0.098l0,0V12.57v-0.098l0,0v-0.098v-0.097V12.18h-0.097l0,0
	v-0.098v-0.098v-0.098l0,0V11.79l-0.097-0.098H17.57l0,0v0.098v0.097l0,0l-0.097,0.098h-0.098l0,0c-0.098,0-0.098,0-0.098,0
	s-0.098,0-0.195,0h-0.098h-0.098c-0.976,0-1.852,0.098-2.828,0.098v0.098l0,0c-0.1,0-0.1,0-0.1,0c-0.098,0-0.098,0-0.192,0v-0.098
	l-0.1-0.098l0,0l0,0v-0.098l0,0l0,0H13.57c-0.1,0-0.1,0-0.1,0l0,0h-0.1c-0.098,0-0.195,0-0.195,0h-0.097H12.98
	c-0.097,0-0.097,0-0.097,0h-0.098c-1.564,0-3.123,0-4.587,0c-0.101,0-0.101,0-0.195,0H7.907L7.809,11.79v-0.098l0,0v-0.098H7.712
	H7.615l-0.098-0.098v-0.098v-0.097l0,0v-0.098v-0.098v-0.098H7.419l0,0v0.098v0.098v0.098l0,0v0.097l0,0v0.098v0.098l0,0v0.098
	v0.098v0.097l0,0l0,0v0.098v0.098l0,0v0.098v0.098v0.097v0.098H5.76v0.098v0.098v0.098l0,0v0.097v0.098v0.098v0.098l-0.098,0.098
	c-0.098,0.097-0.098,0.097-0.192,0.195c0,0,0,0,0,0.098c0,0.098,0,0.098,0,0.195c0,0.097,0,0.097,0,0.097c0,0.098,0,0.098,0,0.195
	v0.098c-0.1,0.098-0.1,0.098-0.1,0.195c0,0.098,0,0.098,0,0.098c0,0.098,0,0.098,0,0.196v0.098c-0.098,0-0.098,0.097-0.098,0.097
	c0,0.098,0,0.098,0,0.195l-0.098,0.098v0.098c0,0.097-0.097,0.097-0.097,0.097c0,0.098-0.098,0.098-0.098,0.195s0,0.098,0,0.098
	v0.098v0.097l0,0v0.098v0.098c0,0.098-0.1,0.098-0.1,0.195H4.784l0,0l0,0l-0.099,0.097v0.098l0,0v0.098v0.098l0,0v0.099H4.589v0.098
	v0.099v0.097H4.491v0.098H4.393c-0.097,0-0.097,0-0.097,0v0.099H4.198l0,0H4.1c-0.097,0-0.097,0-0.195,0c-0.097,0-0.097,0-0.097,0
	H3.71c-0.098,0-0.192,0-0.292,0c-0.098,0-0.098,0-0.195,0c-1.073-0.194-1.17-0.194-1.269-0.194c-0.098,0-0.195,0-0.195,0
	c-0.098,0-0.193,0-0.293,0c-0.097,0-0.097,0-0.195,0v-0.098l-0.097-0.1V16.67v-0.1v-0.097v-0.098l0,0v-0.098V16.18v-0.098v-0.098
	v-0.098v-0.098v-0.097l0,0v-0.098v-0.098V15.4v-0.098v-0.097v-0.098V15.01l0,0v-0.098v-0.098v-0.097l0,0V14.62v-0.098v-0.098l0,0
	v-0.098l0,0v-0.097v-0.098l0,0v-0.098v-0.098v-0.098V13.74v-0.098v-0.098v-0.098l0,0v-0.098v-0.097v-0.098v-0.098V12.96v-0.098
	v-0.097l0,0v-0.098V12.57v-0.098v-0.098v-0.097V12.18l0,0v-0.098v-0.098l0,0v-0.098l0,0V11.79v-0.098v-0.098l0,0v-0.098l0,0v-0.098
	v-0.097l0,0v-0.098v-0.098v-0.098v-0.098v-0.097v-0.098v-0.098l0,0v-0.098V10.42v-0.097v-0.098V10.13v-0.098l0,0V9.935V9.838V9.74
	l0,0V9.643V9.545V9.447l0,0V9.35V9.252l0,0V9.155l0,0V9.057V8.959V8.862l0,0V8.764l0,0V8.667V8.569l0,0V8.471V8.374V8.276V8.179
	V8.081V7.983l0,0V7.886V7.789V7.691V7.593V7.495V7.398V7.3l0,0V7.203V7.105V7.007l0,0V6.91V6.813V6.715l0,0V6.617V6.52l0,0V6.422
	l0,0V6.325V6.227V6.129l0,0V6.031l0,0V5.934l0,0V5.836V5.739l0,0H1.075V5.641l0,0V5.543l0.097-0.097
	c0.195-0.195,0.195-0.195,0.195-0.195l0.097-0.098V5.056V4.958V4.861h0.098l0,0c0.098,0,0.098,0,0.098,0
	c0.098,0,0.098-0.098,0.195-0.098s0.098,0,0.195,0l0,0c0.097,0,0.097,0,0.097,0c0.098,0,0.195,0,0.195,0l0,0h0.097
	C2.731,4.567,2.83,4.567,2.83,4.567l0,0l0,0v0.098c0.78,0,1.561,0,2.245,0l0,0V4.567l0,0L4.979,4.47l0,0V4.373V4.177V4.08V3.982
	h0.098l0,0V3.885V3.787V3.689l0,0V3.592h0.097h0.098h0.098l0,0V3.495V3.397l0,0V3.299l0,0V3.201C5.76,2.909,5.76,2.909,5.857,2.811
	l0.099-0.098l0,0h0.098c0.097,0,0.195,0,0.391,0H6.54h0.097c0.098,0,0.098,0.098,0.195,0.098v0.098H6.93c0.097,0,0.097,0,0.097,0
	l0,0c0.098,0,0.195,0,0.195,0h0.097h0.1h0.097h0.097c0,0,0,0.098,0.101,0.098V2.909V2.811h0.097l0,0l0.099-0.098V2.616l0.097-0.097
	l0,0V2.421V2.323h0.097V2.226h0.096h0.098l0,0c0.1,0,0.1,0,0.1,0c0.098,0,0.098,0,0.192,0l0,0l0,0l0,0l0,0h0.098
	c0.099,0,0.099,0,0.196,0c9.855,0,19.711,0,29.665,0l0,0l0,0h0.101l0,0h0.098c0.098,0,0.098,0.098,0.195,0.098s0.098,0,0.195,0
	h0.097c0.099,0,0.099,0.098,0.099,0.098l0.098,0.098l0,0l0.098,0.097l0.099,0.098v0.098v0.098c0.098,0,0.098,0.098,0.098,0.098
	v0.097l0.097,0.098c0,0,0,0,0.102,0l0,0l0,0c0.097,0,0.097,0,0.097,0h0.1l0,0c0.191,0,0.388,0,0.585,0l0,0h0.098c0,0,0.1,0,0.195,0
	h0.096l0,0h0.098c0.098,0,0.098,0.098,0.195,0.098l0,0c0.097,0,0.097,0,0.097,0l0,0c0.1,0,0.1,0.098,0.195,0.098l0,0
	c0.098,0,0.098,0.098,0.196,0.098v0.097h0.097v0.098v0.098v0.098l0,0c0,0.098,0,0.098,0,0.098c0,0.097,0.101,0.097,0.101,0.195V4.28
	c0,0.098,0,0.098,0,0.195v0.097c0,0.098,0,0.098,0,0.196v0.098c0.098,0,0.098,0,0.098,0h0.098l0,0l0.098,0.098v0.097l0,0l0,0v0.098
	v0.098v0.098l0,0v0.098V5.55l0,0v0.098v0.098c0,0.098,0,0.098,0.099,0.195v0.097c0,0.098,0,0.098,0,0.196v0.098
	c0,0.098,0,0.098,0,0.195l0,0l0,0c0.1,0,0.1,0.098,0.194,0.098l0,0C43.821,6.52,43.918,6.617,44.016,6.617z M23.814,11.692
	C23.814,11.692,23.716,11.692,23.814,11.692c-0.098-0.098-0.098-0.098-0.098-0.098v-0.098v-0.098v-0.097v0.097v0.098v0.098l0,0
	v0.098v0.098v0.097l0,0l0,0v0.098v0.098v0.098l0,0l0.1,0.098l0,0c0.195,0,0.389,0,0.685,0H24.4l-0.097-0.098l0,0l-0.098-0.098
	v-0.098v-0.098l0,0h-0.099C23.814,11.887,23.814,11.79,23.814,11.692C23.814,11.79,23.814,11.692,23.814,11.692z M1.758,7.3
	C1.758,7.3,1.758,7.398,1.758,7.3c0,0.098,0,0.098,0,0.195v0.098v0.098l0,0v0.098l0,0v0.098l0,0v0.097v0.098V8.18l0,0v0.098l0,0
	v0.098v0.097v0.098v-0.1V8.374c0-0.098,0-0.098,0-0.195V8.081c0-0.098,0-0.098,0-0.098V7.886c0-0.098,0-0.098,0-0.195V7.593
	c0-0.098,0-0.098,0-0.098C1.758,7.398,1.758,7.3,1.758,7.3c0-0.098,0-0.098,0-0.195s0-0.098,0-0.098c0-0.097,0-0.097,0-0.097V6.813
	l0,0V6.91v0.097l0,0v0.098C1.758,7.203,1.758,7.203,1.758,7.3L1.758,7.3z"/>
<g>
	<g>
		<defs>
			<path id="SVGID_3_" d="M28.303,10.423C28.303,10.326,28.303,10.326,28.303,10.423c-1.171-0.097-2.244-0.097-3.315-0.097v0.097
				v0.098v0.098v0.098l0,0l0,0l0,0c0.099,0,0.099,0.098,0.192,0.098l0.099,0.097v0.098l0,0h0.098v0.098v0.098l0,0v0.098v0.097v0.098
				l0,0l0,0l0.101,0.098v0.098l0.098,0.098l0,0l0,0l0,0l0.097,0.097v0.098l0,0l0,0h0.1v0.098c0.388,0,0.78,0,1.171,0l0,0h0.098l0,0
				h0.098v-0.098l0.096-0.098c0.099,0,0.099,0,0.099,0v-0.1l0,0v-0.098v-0.098v-0.098l0,0l0,0v-0.098l0.1-0.097v-0.098l0,0v-0.098
				v-0.098h0.098h0.098v-0.098v-0.097v-0.098v-0.098l0,0v-0.098C28.303,10.521,28.303,10.521,28.303,10.423L28.303,10.423z
				 M44.016,6.617L44.016,6.617c0,0.098,0.099,0.098,0.099,0.098c0.194,0,0.391,0,0.585,0l0,0h3.807L48.7,7.007v2.245l-0.293,0.292
				h-3.515v0.098c-0.194,0-0.388,0-0.585,0l0,0L44.21,9.74h-0.098v0.098v0.097v0.098l0,0v0.098v0.098v0.098v0.097v0.098
				l-0.098,0.098l0,0v0.098v0.098v0.097l0,0l0,0v0.098c-0.1,0-0.1,0-0.195,0c-0.1,0-0.1,0-0.194,0v-0.098h-0.098l0,0v-0.097v-0.098
				V10.62l0,0l-0.099-0.098l-0.097-0.098v-0.097h-0.1l-0.097-0.098L43.04,10.13v-0.098c0,0,0,0-0.101,0V9.935l-0.096-0.097
				L42.746,9.74L42.65,9.643V9.545l0,0c-0.098,0-0.098,0-0.194,0l0,0c-0.099,0-0.099,0-0.099,0c0,0.098-0.1,0.098-0.1,0.098
				c0,0.098,0,0.098,0,0.098l-0.098,0.098c-0.098,0.097-0.098,0.097-0.195,0.097c-0.097,0-0.097,0.098-0.195,0.098
				c-0.097,0-0.097,0-0.097,0l0,0l0,0v0.098c-0.098,0-0.098,0-0.098,0c-0.1,0-0.1,0.098-0.1,0.098v0.098v0.097l0,0v0.098h-0.097l0,0
				v0.098v0.098v0.098v0.097v0.098l0,0v0.098v0.098l0,0v0.098l0,0v0.097v0.098v0.098l0,0v0.098l0,0v0.098v0.097l0,0v0.098v0.098
				v0.098v0.098v0.097v0.098l0,0v0.098v0.098v0.098v0.097v0.098v0.098v0.098l0,0v0.098v0.097v0.098v0.098v0.098v0.098v0.097l0,0
				v0.098v0.098v0.098v0.098l0,0v0.097v0.098v0.098l0,0v0.098l0,0v0.098l0,0v0.097v0.098v0.098v0.098v0.098v0.097V15.4l0,0v0.098
				v0.098v0.098v0.293v0.098v0.098v0.097l0,0v0.098v0.098v0.098v0.099v0.097v0.1v0.097l0,0v0.099v0.098v0.098v0.098v0.099v0.097v0.1
				l0,0v0.097l0,0v0.099l0,0v0.098v0.098v0.1l0,0v0.096l0,0v0.1v0.098l0,0v0.098v0.098v0.098v0.099v0.098v0.097v0.1l0,0v0.097v0.099
				v0.098v0.098v0.1v0.097v0.099l0,0v0.098v0.098v-0.111v0.098v0.098v0.098l0,0v0.098v0.099l0,0v0.097l0,0v0.1v0.097v0.099l0,0
				v0.099l0,0v0.097v0.1l0,0v0.097v0.099v0.098v0.098v0.098v0.098v0.099l0,0v0.099h-0.097l0,0c-0.098,0-0.098,0-0.098,0h-0.098
				c-0.099,0-0.099,0-0.099,0H40.89c-0.1,0-0.292,0-0.391,0c-0.098,0-0.098,0-0.195,0s-0.098-0.099-0.098-0.099h-0.098l0,0
				c-0.101,0-0.101,0-0.194,0l0,0c-0.102,0-0.102,0-0.195,0c-0.096,0-0.098,0-0.098,0l0,0c-0.101,0-0.101,0-0.195,0
				c-0.1,0-0.1,0-0.195,0l0,0c-0.097,0-0.097,0-0.194,0h-0.098H38.84h-0.098c-0.098,0-0.098,0-0.098,0
				c-0.099,0-0.099-0.099-0.099-0.099c-0.097,0-0.097-0.098-0.195-0.098l0,0c-0.097,0-0.097-0.098-0.097-0.098
				c-0.098,0-0.098-0.1-0.098-0.1v-0.1h-0.099v-0.095l-0.098-0.097v-0.1h-0.099H37.77V20.87v-0.099V20.67l0,0v-0.098v-0.098l0,0
				l-0.097-0.098l0,0v-0.098v-0.098v-0.098l0,0v-0.098l0,0v-0.096v-0.098v-0.195v-0.099l0,0V19.4v-0.096v-0.1v-0.098v-0.099v-0.097
				v-0.098l0,0v-0.099v-0.098l0,0V18.52l0,0v-0.098v-0.097V18.23l0,0v-0.098l0,0v-0.099l0,0v-0.099v-0.097V17.74v-0.098v-0.099
				V17.45v-0.099l0,0v-0.098v-0.098v-0.096v-0.099v-0.097v-0.1V16.67l0,0v-0.1v-0.097v-0.098v-0.098V16.18v-0.098v-0.098l0,0v-0.098
				v-0.098v-0.097v-0.098v-0.098V15.4v-0.098l0,0v-0.097l0,0v-0.098l0,0V15.01v-0.098v-0.098l0,0v-0.097l0,0V14.62v-0.098l0,0
				v-0.098v-0.098v-0.097v-0.098v-0.098v-0.098v-0.098l0,0V13.74v-0.098v-0.098v-0.098v-0.098v-0.097v-0.098l0,0v-0.098V12.96
				v-0.098v-0.097v-0.098V12.57l0,0v-0.098v-0.098l0,0v-0.097l0,0V12.18v-0.098v-0.098l0,0v-0.098l0,0V11.79v-0.098l0,0v-0.098
				v-0.098v-0.098v-0.097v-0.098v-0.098v-0.098l0,0v-0.098v-0.097v-0.098l0,0c-0.102,0-0.102,0-0.102,0c-2.146,0-4.392,0-6.538,0
				l0,0l0,0v0.098v0.097l0,0v0.098l0,0v0.098v0.098v0.098l0,0v0.097l0,0l-0.098,0.098v0.098l0,0v0.098v0.098
				c-0.098,0-0.098,0.097-0.194,0.097h-0.099h-0.098v0.098l-0.096,0.098c-0.099,0-0.099,0.098-0.099,0.098l0,0v0.098v0.097v0.098
				l-0.098,0.098v0.098v0.098l0,0v0.097v0.098v0.098l0,0l0,0l-0.099,0.098v0.098v0.097l0,0v0.098v0.098l0,0l-0.098,0.098l0,0
				l-0.098,0.098h-0.098c-0.101,0-0.194,0.097-0.391,0.097h-0.098H29.28c-0.389,0-0.876,0-1.269,0l0,0c-0.098,0-0.098,0-0.098,0
				c-0.977,0-2.053,0.098-3.028,0.098h-0.097H24.69c-0.097,0-0.191,0-0.191,0l0,0L24.4,14.034l0,0l0,0v0.098v0.098v0.097l0,0v0.098
				v0.098v0.098v0.098v0.097v0.098v0.098l0,0v0.098v0.098l0,0v0.097l0,0V15.4v0.098v0.098l0,0v0.098l0,0v0.097l0,0v0.098v0.098
				v0.098v0.098v0.097v0.098v0.098l0,0v0.098v0.099v0.097v0.1v0.097v0.099v0.098l0,0v0.098v0.098v0.099v0.097v0.1v0.097v0.099l0,0
				v0.098v0.098v0.1v0.096v0.1v0.098v0.098l0,0v0.098l0,0v0.098l0,0v0.099v0.098v0.097l0,0v0.1l0,0v0.097v0.099l0,0v0.098v0.098v0.1
				v0.097v0.099v0.098v0.098l0,0V20.1v0.098v0.099v0.099v0.097v0.099v0.098l0,0v0.099v0.098l0,0l0,0v0.097h-0.097v0.1v0.098l0,0
				v0.098l-0.098,0.098v0.098v0.098v0.099v0.099v0.098l0,0v0.097v0.099v0.098h0.098v0.099v0.099v0.097l0,0v0.099v0.098v0.099v0.097
				v0.098v0.099v0.099l0,0v0.098v0.098l0,0v0.098l0,0v0.098v0.098v0.1l0,0v0.098l0,0v0.097v0.099l0,0v0.098v0.099v0.097l0,0H24.4
				v0.099v0.098l0,0v0.099v0.098v0.098l0.101,0.098l0,0v0.099v0.099v0.098l0,0v0.098v0.098v0.098l0,0l0,0v0.098v0.1v0.096l0,0v0.099
				v0.099h0.097v0.098l0,0v0.098v0.098v0.098l0,0v0.099l0,0l0.097,0.099l0,0v0.098v0.098v0.098v0.099l0,0l0,0v0.097v0.1l0,0v0.097
				v0.099v0.098l0,0l0,0v0.098V27.6v0.098l0,0v0.098v0.1v0.098h0.099l0,0v0.098v0.098v0.098l0,0v0.099v0.099h0.097l0,0v0.098v0.098
				v0.098v0.098l0,0c0.101,0,0.101,0,0.196,0v0.1l0,0v0.096l0,0v0.101v0.099v0.096l0,0v0.099l0,0v0.097v0.099l0,0v0.097v0.1v0.098
				l0,0l0,0v0.098l-0.099,0.1v0.1h-0.1c-0.488,0-0.976,0-1.464,0h-0.097l0,0c-0.101,0-0.195,0-0.195,0l-0.097,0.094l0,0h-0.099
				c-0.585,0-1.171,0-1.66,0c-0.097,0-0.097,0-0.191,0c-0.101,0-0.101-0.098-0.197-0.098l0,0c-0.1,0-0.1,0-0.195,0
				c-0.194,0-0.487,0-0.683,0H19.91l-0.488,0.391c-0.101,0-0.101,0-0.195,0l0,0H19.13c-0.101,0-0.101,0-0.195,0l-0.098-0.098V30.43
				l0,0H18.74v-0.098v-0.098v-0.098l0,0l-0.098-0.098v-0.1l0,0l-0.099-0.097l0,0v-0.099v-0.098v-0.098l0,0l-0.098-0.098l0,0v-0.098
				l0,0v-0.099v-0.098v-0.099v-0.098l0,0l0,0v-0.098v-0.098l0,0v-0.099V28.57l-0.098-0.1v-0.097v-0.099v-0.098V28.08l0,0v-0.09
				v-0.098v-0.1h-0.097l0,0v-0.098V27.6v-0.098l0,0v-0.098v-0.098v-0.099v-0.097v-0.1v-0.097v-0.099l0,0v-0.098l0,0v-0.098l0,0
				v-0.098v-0.099V26.33l0,0v-0.098l0,0v-0.098v-0.098l0,0v-0.098v-0.098v-0.098v-0.098V25.55v-0.097v-0.1l0,0v-0.097V25.16v-0.098
				v-0.099v-0.099V24.77v-0.098l0,0v-0.098v-0.098l0,0l0,0v-0.099v-0.099v-0.096l0,0v-0.1v-0.098l0,0v-0.098l0,0v-0.098v-0.098v-0.1
				l0,0v-0.097l0,0v-0.099v-0.098l0,0v-0.098v-0.094v-0.098v-0.098v-0.098v-0.098V22.62l0,0v-0.097v-0.1V22.33v-0.098v-0.1v-0.098
				l0,0v-0.098V21.84v-0.098v-0.098v-0.1v-0.098v-0.1l0,0h-0.195H17.96h-0.099h-0.097l0,0c-0.097,0-0.097,0-0.195,0l-0.097-0.095
				l-0.098-0.099v-0.098v-0.099v-0.097l0,0v-0.098V20.67v-0.098v-0.098v-0.1v-0.1v-0.094l0,0v-0.1l-0.098-0.098v-0.094v-0.098v-0.1
				v-0.098v-0.098l0,0V19.4V19.3l0,0v-0.095l0,0v-0.098v-0.099v-0.097l0,0v-0.098l0,0v-0.099l0,0V18.62v-0.097v-0.101v-0.099V18.23
				v-0.099v-0.098l0,0v-0.099v-0.097V17.74v-0.098v-0.099v-0.099v-0.1l0,0v-0.095v-0.099v-0.092v-0.099v-0.097v-0.1v-0.098l0,0
				V16.57v-0.1v-0.098v-0.098v-0.098v-0.097v-0.096l0,0v-0.098l0,0v-0.098V15.69v-0.098v-0.098V15.4l0,0v-0.098h0.098v-0.097v-0.098
				l0,0V15.01l0.098-0.098v-0.098l0,0h0.097v-0.097V14.62v-0.098l0,0v-0.098v-0.098v-0.097h0.099v-0.098v-0.098v-0.098v-0.098h0.097
				V13.74v-0.098l0,0l0,0v-0.098v-0.098v-0.098l0,0v-0.097v-0.098l0,0v-0.098l0,0V12.96v-0.098v-0.097l0,0l0.097-0.098l0,0V12.57
				v-0.098l0,0v-0.098v-0.097V12.18h-0.097l0,0v-0.098v-0.098v-0.098l0,0V11.79l-0.097-0.098H17.57l0,0v0.098v0.097l0,0
				l-0.097,0.098h-0.098l0,0c-0.098,0-0.098,0-0.098,0s-0.098,0-0.195,0h-0.098h-0.098c-0.976,0-1.852,0.098-2.828,0.098v0.098l0,0
				c-0.1,0-0.1,0-0.1,0c-0.098,0-0.098,0-0.192,0v-0.098l-0.1-0.098l0,0l0,0v-0.098l0,0l0,0H13.57c-0.1,0-0.1,0-0.1,0l0,0h-0.1
				c-0.098,0-0.195,0-0.195,0h-0.097H12.98c-0.097,0-0.097,0-0.097,0h-0.098c-1.564,0-3.123,0-4.587,0c-0.101,0-0.101,0-0.195,0
				H7.907L7.809,11.79v-0.098l0,0v-0.098H7.712H7.615l-0.098-0.098v-0.098v-0.097l0,0v-0.098v-0.098v-0.098H7.419l0,0v0.098v0.098
				v0.098l0,0v0.097l0,0v0.098v0.098l0,0v0.098v0.098v0.097l0,0l0,0v0.098v0.098l0,0v0.098v0.098v0.097v0.098H5.76v0.098v0.098
				v0.098l0,0v0.097v0.098v0.098v0.098l-0.098,0.098c-0.098,0.097-0.098,0.097-0.192,0.195c0,0,0,0,0,0.098c0,0.098,0,0.098,0,0.195
				c0,0.097,0,0.097,0,0.097c0,0.098,0,0.098,0,0.195v0.098c-0.1,0.098-0.1,0.098-0.1,0.195c0,0.098,0,0.098,0,0.098
				c0,0.098,0,0.098,0,0.196v0.098c-0.098,0-0.098,0.097-0.098,0.097c0,0.098,0,0.098,0,0.195l-0.098,0.098v0.098
				c0,0.097-0.097,0.097-0.097,0.097c0,0.098-0.098,0.098-0.098,0.195s0,0.098,0,0.098v0.098v0.097l0,0v0.098v0.098
				c0,0.098-0.1,0.098-0.1,0.195H4.784l0,0l0,0l-0.099,0.097v0.098l0,0v0.098v0.098l0,0v0.099H4.589v0.098v0.099v0.097H4.491v0.098
				H4.393c-0.097,0-0.097,0-0.097,0v0.099H4.198l0,0H4.1c-0.097,0-0.097,0-0.195,0c-0.097,0-0.097,0-0.097,0H3.71
				c-0.098,0-0.192,0-0.292,0c-0.098,0-0.098,0-0.195,0c-1.073-0.194-1.17-0.194-1.269-0.194c-0.098,0-0.195,0-0.195,0
				c-0.098,0-0.193,0-0.293,0c-0.097,0-0.097,0-0.195,0v-0.098l-0.097-0.1V16.67v-0.1v-0.097v-0.098l0,0v-0.098V16.18v-0.098v-0.098
				v-0.098v-0.098v-0.097l0,0v-0.098v-0.098V15.4v-0.098v-0.097v-0.098V15.01l0,0v-0.098v-0.098v-0.097l0,0V14.62v-0.098v-0.098l0,0
				v-0.098l0,0v-0.097v-0.098l0,0v-0.098v-0.098v-0.098V13.74v-0.098v-0.098v-0.098l0,0v-0.098v-0.097v-0.098v-0.098V12.96v-0.098
				v-0.097l0,0v-0.098V12.57v-0.098v-0.098v-0.097V12.18l0,0v-0.098v-0.098l0,0v-0.098l0,0V11.79v-0.098v-0.098l0,0v-0.098l0,0
				v-0.098v-0.097l0,0v-0.098v-0.098v-0.098v-0.098v-0.097v-0.098v-0.098l0,0v-0.098V10.42v-0.097v-0.098V10.13v-0.098l0,0V9.935
				V9.838V9.74l0,0V9.643V9.545V9.447l0,0V9.35V9.252l0,0V9.155l0,0V9.057V8.959V8.862l0,0V8.764l0,0V8.667V8.569l0,0V8.471V8.374
				V8.276V8.179V8.081V7.983l0,0V7.886V7.789V7.691V7.593V7.495V7.398V7.3l0,0V7.203V7.105V7.007l0,0V6.91V6.813V6.715l0,0V6.617
				V6.52l0,0V6.422l0,0V6.325V6.227V6.129l0,0V6.031l0,0V5.934l0,0V5.836V5.739l0,0H1.075V5.641l0,0V5.543l0.097-0.097
				c0.195-0.195,0.195-0.195,0.195-0.195l0.097-0.098V5.056V4.958V4.861h0.098l0,0c0.098,0,0.098,0,0.098,0
				c0.098,0,0.098-0.098,0.195-0.098s0.098,0,0.195,0l0,0c0.097,0,0.097,0,0.097,0c0.098,0,0.195,0,0.195,0l0,0h0.097
				C2.731,4.567,2.83,4.567,2.83,4.567l0,0l0,0v0.098c0.78,0,1.561,0,2.245,0l0,0V4.567l0,0L4.979,4.47l0,0V4.373V4.177V4.08V3.982
				h0.098l0,0V3.885V3.787V3.689l0,0V3.592h0.097h0.098h0.098l0,0V3.495V3.397l0,0V3.299l0,0V3.201
				C5.76,2.909,5.76,2.909,5.857,2.811l0.099-0.098l0,0h0.098c0.097,0,0.195,0,0.391,0H6.54h0.097c0.098,0,0.098,0.098,0.195,0.098
				v0.098H6.93c0.097,0,0.097,0,0.097,0l0,0c0.098,0,0.195,0,0.195,0h0.097h0.1h0.097h0.097c0,0,0,0.098,0.101,0.098V2.909V2.811
				h0.097l0,0l0.099-0.098V2.616l0.097-0.097l0,0V2.421V2.323h0.097V2.226h0.096h0.098l0,0c0.1,0,0.1,0,0.1,0
				c0.098,0,0.098,0,0.192,0l0,0l0,0l0,0l0,0h0.098c0.099,0,0.099,0,0.196,0c9.855,0,19.711,0,29.665,0l0,0l0,0h0.101l0,0h0.098
				c0.098,0,0.098,0.098,0.195,0.098s0.098,0,0.195,0h0.097c0.099,0,0.099,0.098,0.099,0.098l0.098,0.098l0,0l0.098,0.097
				l0.099,0.098v0.098v0.098c0.098,0,0.098,0.098,0.098,0.098v0.097l0.097,0.098c0,0,0,0,0.102,0l0,0l0,0c0.097,0,0.097,0,0.097,0
				h0.1l0,0c0.191,0,0.388,0,0.585,0l0,0h0.098c0,0,0.1,0,0.195,0h0.096l0,0h0.098c0.098,0,0.098,0.098,0.195,0.098l0,0
				c0.097,0,0.097,0,0.097,0l0,0c0.1,0,0.1,0.098,0.195,0.098l0,0c0.098,0,0.098,0.098,0.196,0.098v0.097h0.097v0.098v0.098v0.098
				l0,0c0,0.098,0,0.098,0,0.098c0,0.097,0.101,0.097,0.101,0.195V4.28c0,0.098,0,0.098,0,0.195v0.097c0,0.098,0,0.098,0,0.196
				v0.098c0.098,0,0.098,0,0.098,0h0.098l0,0l0.098,0.098v0.097l0,0l0,0v0.098v0.098v0.098l0,0v0.098V5.55l0,0v0.098v0.098
				c0,0.098,0,0.098,0.099,0.195v0.097c0,0.098,0,0.098,0,0.196v0.098c0,0.098,0,0.098,0,0.195l0,0l0,0c0.1,0,0.1,0.098,0.194,0.098
				l0,0C43.821,6.52,43.918,6.617,44.016,6.617z M23.814,11.692C23.814,11.692,23.716,11.692,23.814,11.692
				c-0.098-0.098-0.098-0.098-0.098-0.098v-0.098v-0.098v-0.097v0.097v0.098v0.098l0,0v0.098v0.098v0.097l0,0l0,0v0.098v0.098v0.098
				l0,0l0.1,0.098l0,0c0.195,0,0.389,0,0.685,0H24.4l-0.097-0.098l0,0l-0.098-0.098v-0.098v-0.098l0,0h-0.099
				C23.814,11.887,23.814,11.79,23.814,11.692C23.814,11.79,23.814,11.692,23.814,11.692z M1.758,7.3
				C1.758,7.3,1.758,7.398,1.758,7.3c0,0.098,0,0.098,0,0.195v0.098v0.098l0,0v0.098l0,0v0.098l0,0v0.097v0.098V8.18l0,0v0.098l0,0
				v0.098v0.097v0.098v-0.1V8.374c0-0.098,0-0.098,0-0.195V8.081c0-0.098,0-0.098,0-0.098V7.886c0-0.098,0-0.098,0-0.195V7.593
				c0-0.098,0-0.098,0-0.098C1.758,7.398,1.758,7.3,1.758,7.3c0-0.098,0-0.098,0-0.195s0-0.098,0-0.098c0-0.097,0-0.097,0-0.097
				V6.813l0,0V6.91v0.097l0,0v0.098C1.758,7.203,1.758,7.203,1.758,7.3L1.758,7.3z"/>
		</defs>
		<clipPath id="SVGID_4_">
			<use xlink:href="#SVGID_3_"  overflow="visible"/>
		</clipPath>
		<g clip-path="url(#SVGID_4_)">
			<polygon fill="#148193" points="25.291,30.066 18.335,30.826 16.631,10.44 21.708,14.608 24.268,14.496 			"/>
			<polygon fill="#E08300" stroke="#DDBE26" stroke-miterlimit="10" points="16.593,15.543 26.923,14.892 27.165,19.268 
				16.835,19.918 			"/>
			<polygon fill="#E08300" stroke="#DDBE26" stroke-miterlimit="10" points="16.197,22.001 26.527,21.35 26.769,25.725 
				16.439,26.375 			"/>
			
				<linearGradient id="SVGID_5_" gradientUnits="userSpaceOnUse" x1="728.1399" y1="570.7246" x2="772.0432" y2="570.7246" gradientTransform="matrix(1 0 0 1 -741.9199 -562.1992)">
				<stop  offset="5.581969e-004" style="stop-color:#FF9500"/>
				<stop  offset="1" style="stop-color:#EFB941"/>
			</linearGradient>
			<path fill="url(#SVGID_5_)" d="M-13.635,4.06H0.861l5.125-0.37l0.39-3.57l8.518-1.617l4.734,0.337c0,0,9.188,1.795,10.496,3.81
				c0,0-2.168,1.238-2.951,3.12c-0.779,1.881-1.896,3.208-3.685,3.588c-1.789,0.379-3.267-1.617-4.826-0.695
				c-1.563,0.921-3.986,2.854-5.087,3.65c-1.102,0.796-3.896,2.513-4.838,3.875c-0.939,1.369-2.187,2.806-3.354,2.226
				c-1.166-0.581-2.716-1.581-2.716-1.581l-5.354,0.142l-5.169,0.103l-5.076,0.819l-0.848-1.209L-13.635,4.06z"/>
			<path fill="#300093" d="M-8.458,7.652c0,0-4.539,0.049-4.998,3.908c-0.594,4.973,4.731,3.166,4.731,3.166
				S-10.673,11.417-8.458,7.652z"/>
			<path fill="#5D29FF" d="M-8.154,14.376l3.47-1.043c0,0-1.182-2.605,1.56-4.292c2.253-1.389,4.833,0.377,4.833,0.377l1.873-2.374
				c0,0-6.334-3.676-10.668,0.177C-10.164,9.956-8.154,14.376-8.154,14.376z"/>
			<path fill="#4383FF" d="M6.71,5.138c0,0-2.245,1.077-3.129,1.077c-0.883,0,0.92,0.674,0.92,0.674l-2.01,2.534l0.759,1.688
				l4.854,0.164L8.3,4.514L6.71,5.138z"/>
			<path fill="#8600EE" d="M15.365,4.077c0,0-2.015-1.196-4.4,0.101c-2.386,1.296-2.664,6.302,1.489,6.76
				c3.563,0.396,4.267-3.976,2.234-4.582c-2.031-0.605-2.146,1.468-1.917,1.688h-0.548c0,0-0.823-2.527,1.976-2.501
				c2.783,0.025,2.125,3.545,2.125,3.545s1.334-2.206,3.017-2.08c1.903,0.144,1.561,1.033,2.784,1.275
				c1.271,0.253,3.113,0.215,3.695-2.476c0.316-1.456,2.27-2.438,2.27-2.438s-2.466-0.847-3.884,1.174
				c-1.296,1.846-2.236,0.663-2.995-0.164c-1.115-1.212-2.399-1.592-4.413-1.226C16.14,3.274,15.365,4.077,15.365,4.077z"/>
			<ellipse fill="#00A625" cx="-0.991" cy="12.21" rx="3.328" ry="3.169"/>
			<path fill="#A20063" d="M19.503,0.925c0,0,1.242-0.486,3.8,0.132c2.557,0.62,3.696,1.478,3.696,1.478s-2.398-0.075-2.98,1.011
				c-0.585,1.086-1.141,1.137-1.697,0.886c-0.558-0.253-1.205-1.542-2.995-1.782c-1.614-0.215,0.092-1.301,0.092-1.301L19.503,0.925
				z"/>
			<path fill="#F58800" d="M7.479,1.525C7.518,1.538,8.99,4.797,8.99,4.797l3.18-1.706l-0.676-2.753L7.479,1.525z"/>
			<polygon fill="#5CFF16" points="11.852,0.338 12.674,3.02 15.006,3.37 15.178,-0.04 			"/>
			<path fill="#646BFF" d="M19.128,0.124c0,0-1.047,2.06-1.061,2.443c0,0-1.949-0.14-2.57,0.575l0.08-3.335L19.128,0.124z"/>
		</g>
	</g>
</g>
<g>
	<path fill="#F3FFFE" d="M21.105,22.458l-1.064,2.293H17.83l5.077-10.071h2.457l1.473,10.071h-2.128l-0.248-2.293H21.105z
		 M23.807,16.809l-1.72,3.685h2.128L23.807,16.809z"/>
	<path fill="#F3FFFE" d="M29.948,24.751c-0.573,0-1.064-0.164-1.393-0.573c-0.324-0.409-0.409-0.9-0.324-1.473l1.144-6.224
		c0.084-0.573,0.326-1.064,0.819-1.393c0.409-0.326,0.902-0.491,1.555-0.491h3.275c0.572,0,1.064,0.165,1.392,0.574
		c0.327,0.408,0.409,0.9,0.327,1.474l-0.248,1.556h-2.128l0.245-1.311c0-0.163,0-0.245,0-0.327
		c-0.084-0.082-0.164-0.082-0.327-0.082h-2.21c-0.326,0-0.571,0.164-0.655,0.573l-0.981,5.403c0,0.165,0,0.247,0,0.328
		c0.082,0.082,0.162,0.082,0.327,0.082h2.21c0.327,0,0.573-0.163,0.655-0.573l0.163-1.146h2.13l-0.41,1.721
		c-0.081,0.574-0.324,1.065-0.818,1.393c-0.41,0.325-0.901,0.492-1.555,0.492L29.948,24.751L29.948,24.751z"/>
	<path fill="#F3FFFE" d="M45.422,14.68l-0.327,1.884h-4.666L40.02,18.61h3.768l-0.327,1.883h-3.768l-0.409,2.293h4.667l-0.327,1.885
		H36.91l1.8-9.989L45.422,14.68L45.422,14.68z"/>
</g>
</svg>
