<?xml version="1.0" encoding="utf-8"?>
<!-- Generator: Adobe Illustrator 16.0.0, SVG Export Plug-In . SVG Version: 6.00 Build 0)  -->
<!DOCTYPE svg PUBLIC "-//W3C//DTD SVG 1.0//EN" "http://www.w3.org/TR/2001/REC-SVG-20010904/DTD/svg10.dtd">
<svg version="1.0" id="图层_1" xmlns="http://www.w3.org/2000/svg" xmlns:xlink="http://www.w3.org/1999/xlink" x="0px" y="0px"
	 width="49.1px" height="32px" viewBox="0 0 49.1 32" enable-background="new 0 0 49.1 32" xml:space="preserve">
<path opacity="0.7" fill="#CE0B4C" enable-background="new    " d="M24.531,9.387c0,0-3.786,0.704-6.78,4.931
	c0,0,2.554,1.145,1.673,1.85c-0.88,0.706-4.755-0.351-11.448,6.34c0,0,2.73-1.231,6.428-1.497c3.7-0.265-0.968,2.202-2.024,2.817
	c0,0,6.868-3.433,8.806-3.17c1.936,0.264-6.87,5.283-10.655,7.045c0,0,11.536-3.786,12.856-3.61c1.321,0.175-0.705,2.29-3.875,3.61
	c0,0,6.605,0,11.007-2.024c4.403-2.026,5.283-2.29,5.283-1.146c0,0,3.874-2.467,2.73-3.347c-1.145-0.881,2.906-2.026,5.636-4.052
	c2.729-2.025,3.873-3.346,3.873-3.346s-6.603,2.906-8.629,2.994c-2.024,0.088,1.321-2.729,4.932-4.314
	c3.611-1.585,4.755-4.491,4.755-4.491s-4.931,0.176-11.271,3.346c-6.342,3.17-7.044,4.227-6.517,2.289
	c0.528-1.937,6.34-4.667,6.34-4.667s-8.101,0.176-11.801,3.082c-3.697,2.906-2.642-0.705-1.849-1.409
	C24.796,9.915,24.531,9.387,24.531,9.387z"/>
<g id="Selected_Items">
	<g>
		<g id="Selected_Items_36_">
			
				<linearGradient id="SVGID_1_" gradientUnits="userSpaceOnUse" x1="379.0706" y1="-266.4473" x2="421.1956" y2="-253.4473" gradientTransform="matrix(1 0 0 -1 -374.96 -246.5996)">
				<stop  offset="0" style="stop-color:#FF2F7D"/>
				<stop  offset="0.3142" style="stop-color:#FF4D6E"/>
				<stop  offset="0.7626" style="stop-color:#FF725A"/>
				<stop  offset="1" style="stop-color:#FF8053"/>
			</linearGradient>
			<path fill="url(#SVGID_1_)" d="M28.1,10.3C28.1,10.2,28.1,10.2,28.1,10.3c-1.2-0.1-2.3-0.1-3.397-0.1v0.1v0.1v0.1v0.1l0,0l0,0
				l0,0c0.1,0,0.1,0.1,0.197,0.1L25,10.8v0.1l0,0h0.1V11v0.1l0,0v0.1v0.1v0.1l0,0l0,0l0.103,0.1v0.1l0.1,0.1l0,0l0,0l0,0l0.1,0.1
				v0.1l0,0l0,0h0.101V12c0.397,0,0.8,0,1.2,0l0,0h0.1l0,0h0.1v-0.1L27,11.8c0.1,0,0.1,0,0.1,0v-0.1l0,0v-0.1v-0.1v-0.1l0,0l0,0
				v-0.1l0.103-0.1v-0.1l0,0V11v-0.1h0.1h0.1v-0.1v-0.1v-0.1v-0.1l0,0v-0.1C28.1,10.4,28.1,10.4,28.1,10.3L28.1,10.3z M44.2,6.4
				L44.2,6.4c0,0.1,0.1,0.1,0.1,0.1c0.2,0,0.4,0,0.6,0l0,0h3.9L49,6.8v2.3l-0.3,0.3H45.1v0.1c-0.2,0-0.397,0-0.6,0l0,0L44.4,9.6
				h-0.1v0.1v0.1v0.1l0,0V10v0.1v0.1v0.1v0.1l-0.1,0.1l0,0v0.1v0.1v0.1l0,0l0,0v0.1c-0.103,0-0.103,0-0.2,0c-0.103,0-0.103,0-0.2,0
				v-0.1h-0.1l0,0v-0.1v-0.1v-0.1l0,0L43.6,10.4l-0.1-0.1v-0.1H43.4l-0.1-0.1L43.2,10V9.9c0,0,0,0-0.103,0V9.8L43,9.7L42.9,9.6
				l-0.1-0.1V9.4l0,0c-0.1,0-0.1,0-0.2,0l0,0c-0.1,0-0.1,0-0.1,0c0,0.1-0.103,0.1-0.103,0.1c0,0.1,0,0.1,0,0.1l-0.1,0.1
				c-0.1,0.1-0.1,0.1-0.2,0.1c-0.1,0-0.1,0.1-0.2,0.1c-0.1,0-0.1,0-0.1,0l0,0l0,0V10c-0.1,0-0.1,0-0.1,0
				c-0.101,0-0.101,0.1-0.101,0.1v0.1v0.1l0,0v0.1h-0.1l0,0v0.1v0.1v0.1v0.1v0.1l0,0V11v0.1l0,0v0.1l0,0v0.1v0.1v0.1l0,0v0.1l0,0
				v0.1v0.1l0,0v0.1V12v0.1v0.1v0.1v0.1l0,0v0.1v0.1v0.1v0.1v0.1V13v0.1l0,0v0.1v0.1v0.1v0.1v0.1v0.1v0.1l0,0v0.1V14v0.1v0.1l0,0
				v0.1v0.1v0.1l0,0v0.1l0,0v0.1l0,0v0.1v0.1V15v0.1v0.1v0.1v0.1l0,0v0.1v0.1v0.1V16v0.1v0.1v0.1l0,0v0.1v0.1v0.1V16.7v0.1V16.9V17
				l0,0v0.1V17.2v0.1V17.4v0.1v0.1V17.7l0,0v0.1l0,0V17.9l0,0V18v0.1V18.2l0,0v0.1l0,0V18.4v0.1l0,0v0.1V18.7v0.1V18.9V19v0.1V19.2
				l0,0v0.1V19.4v0.1v0.1V19.7v0.1V19.9l0,0V20v0.1V20v0.1V20.2v0.1l0,0V20.4v0.1l0,0v0.1l0,0V20.7v0.1V20.9l0,0V21l0,0v0.1V21.2
				l0,0v0.1V21.4v0.1v0.1V21.7v0.1V21.9l0,0V22H41.4l0,0c-0.1,0-0.1,0-0.1,0h-0.1C41.1,22,41.1,22,41.1,22H41c-0.103,0-0.3,0-0.4,0
				c-0.1,0-0.1,0-0.2,0c-0.1,0-0.1-0.1-0.1-0.1h-0.1l0,0c-0.103,0-0.103,0-0.2,0l0,0c-0.103,0-0.103,0-0.2,0s-0.1,0-0.1,0l0,0
				c-0.103,0-0.103,0-0.2,0c-0.103,0-0.103,0-0.2,0l0,0c-0.1,0-0.1,0-0.2,0H39H38.9h-0.1c-0.1,0-0.1,0-0.1,0
				C38.6,21.9,38.6,21.8,38.6,21.8c-0.1,0-0.1-0.1-0.2-0.1l0,0c-0.1,0-0.1-0.101-0.1-0.101c-0.1,0-0.1-0.102-0.1-0.102v-0.102H38.1
				V21.3L38,21.2V21.1H37.9h-0.1V21v-0.1V20.8l0,0v-0.1V20.6l0,0l-0.1-0.1l0,0v-0.1V20.3v-0.1l0,0V20.1l0,0V20v-0.1v-0.2V19.6l0,0
				v-0.1v-0.1V19.3v-0.1V19.1V19v-0.1l0,0V18.8v-0.1l0,0V18.6l0,0v-0.1v-0.1V18.3l0,0v-0.1l0,0V18.1l0,0V18v-0.1V17.8v-0.1V17.6
				v-0.1v-0.1l0,0V17.3v-0.1V17.1V17v-0.1V16.8v-0.1l0,0V16.6v-0.1v-0.1v-0.1v-0.1v-0.1V16l0,0v-0.1v-0.1v-0.1v-0.1v-0.1v-0.1v-0.1
				l0,0v-0.1l0,0v-0.1l0,0V15v-0.1v-0.1l0,0v-0.1l0,0v-0.1v-0.1l0,0v-0.1v-0.1v-0.1v-0.1V14v-0.1v-0.1l0,0v-0.1v-0.1v-0.1v-0.1v-0.1
				v-0.1v-0.1l0,0V13v-0.1v-0.1v-0.1v-0.1v-0.1l0,0v-0.1v-0.1l0,0v-0.1l0,0v-0.1V12v-0.1l0,0v-0.1l0,0v-0.1v-0.1l0,0v-0.1v-0.1v-0.1
				v-0.1v-0.1V11v-0.1l0,0v-0.1v-0.1v-0.1l0,0c-0.103,0-0.103,0-0.103,0c-2.2,0-4.5,0-6.7,0l0,0l0,0v0.1v0.1l0,0v0.1l0,0V11v0.1v0.1
				l0,0v0.1l0,0l-0.1,0.1v0.1l0,0v0.1v0.1c-0.1,0-0.1,0.1-0.2,0.1h-0.1h-0.101v0.1L30.3,12c-0.1,0-0.1,0.1-0.1,0.1l0,0v0.1v0.1v0.1
				L30.1,12.5v0.1v0.1l0,0v0.1v0.1V13l0,0l0,0L30,13.1v0.1v0.1l0,0v0.1v0.1l0,0L29.9,13.6l0,0l-0.1,0.1h-0.1
				c-0.103,0-0.2,0.1-0.4,0.1h-0.1H29.1c-0.397,0-0.897,0-1.3,0l0,0c-0.1,0-0.1,0-0.1,0c-1,0-2.103,0.1-3.103,0.1h-0.1h-0.101
				c-0.1,0-0.197,0-0.197,0l0,0L24.1,14l0,0l0,0v0.1v0.1v0.1l0,0v0.1v0.1v0.1v0.1v0.1v0.1V15l0,0v0.1v0.1l0,0v0.1l0,0v0.1v0.1v0.1
				l0,0v0.1l0,0v0.1l0,0v0.1V16v0.1v0.1v0.1v0.1v0.1l0,0v0.1V16.7v0.1V16.9V17v0.1V17.2l0,0v0.1V17.4v0.1v0.1V17.7v0.1V17.9l0,0V18
				v0.1V18.2v0.1V18.4v0.1v0.1l0,0V18.7l0,0v0.1l0,0V18.9V19v0.1l0,0V19.2l0,0v0.1V19.4l0,0v0.1v0.1V19.7v0.1V19.9V20v0.1l0,0V20.2
				v0.1V20.4v0.1v0.1V20.7v0.1l0,0V20.9V21l0,0l0,0v0.1H24V21.2v0.1l0,0V21.4L23.9,21.5v0.1V21.7v0.1V21.9V22l0,0v0.1V22.2v0.1H24
				V22.4v0.1v0.1l0,0V22.7v0.1V22.9V23v0.1V23.2v0.1l0,0V23.4v0.1l0,0v0.1l0,0V23.7v0.1V23.9l0,0V24l0,0v0.1V24.2l0,0v0.1V24.4v0.1
				l0,0h0.1v0.1V24.7l0,0v0.1V24.9V25l0.103,0.1l0,0V25.2v0.1V25.4l0,0v0.1v0.1V25.7l0,0l0,0v0.1V25.9V26l0,0v0.1V26.2h0.1v0.1l0,0
				V26.4v0.1v0.1l0,0V26.7l0,0l0.1,0.1l0,0V26.9V27v0.1V27.2l0,0l0,0v0.1V27.4l0,0v0.1v0.1V27.7l0,0l0,0v0.1V27.9V28l0,0v0.1V28.2
				v0.1h0.101l0,0V28.4v0.1v0.1l0,0V28.7v0.101h0.1l0,0v0.1V29v0.1V29.2l0,0c0.103,0,0.103,0,0.2,0v0.101l0,0v0.1l0,0v0.102v0.102
				V29.7l0,0v0.101l0,0v0.1V30l0,0v0.1V30.2v0.101l0,0l0,0v0.1l-0.1,0.102v0.102H24.6c-0.5,0-1,0-1.5,0H23l0,0c-0.103,0-0.2,0-0.2,0
				L22.7,30.7l0,0H22.6c-0.6,0-1.2,0-1.7,0c-0.1,0-0.1,0-0.197,0C20.6,30.7,20.6,30.6,20.5,30.6l0,0c-0.103,0-0.103,0-0.2,0
				c-0.2,0-0.5,0-0.7,0h-0.1L19,31c-0.103,0-0.103,0-0.2,0l0,0h-0.1c-0.103,0-0.103,0-0.2,0L18.4,30.9V30.8l0,0h-0.1v-0.1V30.6v-0.1
				l0,0l-0.1-0.1V30.3l0,0L18.1,30.2l0,0V30.1V30v-0.1l0,0L18,29.8l0,0v-0.1l0,0V29.6v-0.1v-0.1V29.3l0,0l0,0v-0.1V29.1l0,0V29v-0.1
				L17.9,28.8v-0.1V28.6v-0.1v-0.1l0,0V28.3v-0.1V28.1h-0.1l0,0V28v-0.1V27.8l0,0v-0.1V27.6v-0.1v-0.1V27.3v-0.1V27.1l0,0V27l0,0
				v-0.1l0,0V26.8v-0.1V26.6l0,0v-0.1l0,0v-0.1V26.3l0,0v-0.1V26.1V26v-0.1V25.8v-0.1V25.6l0,0v-0.1v-0.1V25.3v-0.1V25.1V25v-0.1
				l0,0V24.8v-0.1l0,0l0,0V24.6v-0.1v-0.1l0,0V24.3v-0.1l0,0V24.1l0,0V24v-0.1V23.8l0,0v-0.1l0,0V23.6v-0.1l0,0v-0.1V23.3v-0.1V23.1
				V23v-0.1V22.8l0,0v-0.1V22.6v-0.1v-0.1V22.3v-0.101l0,0v-0.1V22v-0.1V21.8v-0.101v-0.1v-0.102l0,0h-0.2h-0.1H17.4h-0.1l0,0
				c-0.1,0-0.1,0-0.2,0L17,21.4L16.9,21.3v-0.101v-0.1V21l0,0v-0.1V20.8v-0.101v-0.1v-0.102v-0.102V20.3l0,0v-0.101l-0.1-0.1V20
				v-0.1V19.8v-0.101v-0.1l0,0v-0.102v-0.102l0,0V19.3l0,0v-0.101v-0.1V19l0,0v-0.1l0,0V18.8l0,0v-0.101v-0.1v-0.102v-0.102V18.3
				v-0.101v-0.1l0,0V18v-0.1V17.8v-0.101v-0.1v-0.102v-0.102l0,0V17.3v-0.101v-0.1V17v-0.1V16.8v-0.101l0,0v-0.1v-0.102v-0.1v-0.1
				v-0.1v-0.1V16l0,0v-0.1l0,0v-0.1v-0.1v-0.1v-0.1v-0.1l0,0v-0.1h0.1v-0.1v-0.1l0,0V15L17,14.9v-0.1l0,0h0.1v-0.1v-0.1v-0.1l0,0
				v-0.1v-0.1v-0.1H17.2v-0.1V14v-0.1v-0.1h0.1v-0.1v-0.1l0,0l0,0v-0.1v-0.1v-0.1l0,0v-0.1v-0.1l0,0V13l0,0v-0.1v-0.1v-0.1l0,0
				l0.1-0.1l0,0v-0.1v-0.1l0,0v-0.1v-0.1v-0.1h-0.1l0,0V12v-0.1v-0.1l0,0v-0.1l-0.1-0.1H17.1l0,0v0.1v0.1l0,0L17,11.9H16.9l0,0
				c-0.1,0-0.1,0-0.1,0s-0.1,0-0.2,0h-0.1H16.4c-1,0-1.897,0.1-2.897,0.1v0.1l0,0c-0.103,0-0.103,0-0.103,0c-0.1,0-0.1,0-0.197,0V12
				L13.1,11.9l0,0l0,0v-0.1l0,0l0,0H13c-0.103,0-0.103,0-0.103,0l0,0h-0.1c-0.1,0-0.2,0-0.2,0h-0.1h-0.101c-0.1,0-0.1,0-0.1,0h-0.1
				c-1.603,0-3.2,0-4.7,0c-0.103,0-0.103,0-0.2,0H7.2L7.1,11.7v-0.1l0,0v-0.1H7H6.9l-0.1-0.1v-0.1v-0.1l0,0v-0.1V11v-0.1H6.7l0,0V11
				v0.1v0.1l0,0v0.1l0,0v0.1v0.1l0,0v0.1v0.1v0.1l0,0l0,0v0.1V12l0,0v0.1v0.1v0.1v0.1H5v0.1v0.1v0.1l0,0v0.1v0.1V13v0.1L4.9,13.2
				c-0.1,0.1-0.1,0.1-0.197,0.2c0,0,0,0,0,0.1s0,0.1,0,0.2c0,0.1,0,0.1,0,0.1c0,0.1,0,0.1,0,0.2v0.1C4.6,14.2,4.6,14.2,4.6,14.3
				c0,0.1,0,0.1,0,0.1c0,0.1,0,0.1,0,0.2v0.1c-0.1,0-0.1,0.1-0.1,0.1c0,0.1,0,0.1,0,0.2L4.4,15.1v0.1c0,0.1-0.1,0.1-0.1,0.1
				c0,0.1-0.1,0.1-0.1,0.2s0,0.1,0,0.1v0.1v0.1l0,0v0.1V16c0,0.1-0.103,0.1-0.103,0.2H4l0,0l0,0L3.9,16.3v0.1l0,0v0.1v0.1l0,0V16.7
				H3.8v0.1V16.9V17H3.7v0.1H3.6c-0.1,0-0.1,0-0.1,0V17.2H3.4l0,0H3.3c-0.1,0-0.1,0-0.2,0c-0.1,0-0.1,0-0.1,0H2.9
				c-0.1,0-0.197,0-0.3,0c-0.1,0-0.1,0-0.2,0C1.3,17,1.2,17,1.1,17c-0.1,0-0.2,0-0.2,0c-0.1,0-0.197,0-0.3,0c-0.1,0-0.1,0-0.2,0
				v-0.1L0.3,16.8v-0.1V16.6v-0.1v-0.1l0,0v-0.1v-0.1v-0.1V16v-0.1v-0.1v-0.1l0,0v-0.1v-0.1v-0.1v-0.1v-0.1v-0.1V15l0,0v-0.1v-0.1
				v-0.1l0,0v-0.1v-0.1v-0.1l0,0v-0.1l0,0v-0.1v-0.1l0,0V14v-0.1v-0.1v-0.1v-0.1v-0.1v-0.1l0,0v-0.1v-0.1v-0.1V13v-0.1v-0.1v-0.1
				l0,0v-0.1v-0.1v-0.1v-0.1v-0.1v-0.1l0,0V12v-0.1l0,0v-0.1l0,0v-0.1v-0.1v-0.1l0,0v-0.1l0,0v-0.1v-0.1l0,0v-0.1V11v-0.1v-0.1v-0.1
				v-0.1v-0.1l0,0v-0.1v-0.1v-0.1v-0.1V10V9.9l0,0V9.8V9.7V9.6l0,0V9.5V9.4V9.3l0,0V9.2V9.1l0,0V9l0,0V8.9V8.8V8.7l0,0V8.6l0,0V8.5
				V8.4l0,0V8.3V8.2V8.1V8V7.9V7.8l0,0V7.7V7.6V7.5V7.4V7.3V7.2V7.1l0,0V7V6.9V6.8l0,0V6.7V6.6V6.5l0,0V6.4V6.3l0,0V6.2l0,0V6.1V6
				V5.9l0,0V5.8l0,0V5.7l0,0V5.6V5.5l0,0H0.2V5.4l0,0V5.3l0.1-0.1C0.5,5,0.5,5,0.5,5l0.1-0.1V4.8V4.7V4.6H0.7l0,0c0.1,0,0.1,0,0.1,0
				c0.1,0,0.1-0.1,0.2-0.1c0.1,0,0.1,0,0.2,0l0,0c0.1,0,0.1,0,0.1,0c0.1,0,0.2,0,0.2,0l0,0h0.1C1.9,4.3,2,4.3,2,4.3l0,0l0,0v0.1
				c0.8,0,1.6,0,2.3,0l0,0V4.3l0,0L4.2,4.2l0,0V4.1V3.9V3.8V3.7h0.1l0,0V3.6V3.5V3.4l0,0V3.3h0.1H4.5h0.1l0,0V3.2V3.1l0,0V3l0,0V2.9
				C5,2.6,5,2.6,5.1,2.5L5.2,2.4l0,0h0.1c0.1,0,0.2,0,0.4,0h0.1h0.1C6,2.4,6,2.5,6.1,2.5v0.1H6.2c0.1,0,0.1,0,0.1,0l0,0
				c0.1,0,0.2,0,0.2,0h0.1H6.7h0.1h0.1c0,0,0,0.1,0.103,0.1V2.6V2.5h0.1l0,0l0.101-0.1V2.3l0.1-0.1l0,0V2.1V2h0.1V1.9H7.5h0.1l0,0
				c0.103,0,0.103,0,0.103,0c0.1,0,0.1,0,0.197,0l0,0l0,0l0,0l0,0H8c0.1,0,0.1,0,0.2,0c10.1,0,20.197,0,30.397,0l0,0l0,0H38.7l0,0
				h0.1C38.9,1.9,38.9,2,39,2c0.1,0,0.1,0,0.2,0h0.1c0.1,0,0.1,0.1,0.1,0.1L39.5,2.2l0,0l0.1,0.1L39.7,2.4v0.1v0.1
				c0.1,0,0.1,0.1,0.1,0.1v0.1l0.1,0.1c0,0,0,0,0.103,0l0,0l0,0c0.1,0,0.1,0,0.1,0h0.101l0,0c0.197,0,0.397,0,0.6,0l0,0h0.1
				c0,0,0.103,0,0.2,0H41.2l0,0h0.1c0.1,0,0.1,0.1,0.2,0.1l0,0c0.1,0,0.1,0,0.1,0l0,0C41.7,3,41.7,3.1,41.8,3.1l0,0
				c0.1,0,0.1,0.1,0.2,0.1v0.1h0.1v0.1v0.1v0.1l0,0c0,0.1,0,0.1,0,0.1c0,0.1,0.103,0.1,0.103,0.2V4c0,0.1,0,0.1,0,0.2v0.1
				c0,0.1,0,0.1,0,0.2v0.1c0.1,0,0.1,0,0.1,0h0.1l0,0l0.101,0.1v0.1l0,0l0,0v0.1V5v0.1l0,0v0.1v0.1l0,0v0.1v0.1c0,0.1,0,0.1,0.1,0.2
				v0.1c0,0.1,0,0.1,0,0.2v0.1c0,0.1,0,0.1,0,0.2l0,0l0,0c0.103,0,0.103,0.1,0.2,0.1l0,0C44,6.3,44.1,6.4,44.2,6.4z M23.5,11.6
				C23.5,11.6,23.4,11.6,23.5,11.6C23.4,11.5,23.4,11.5,23.4,11.5v-0.1v-0.1v-0.1v0.1v0.1v0.1l0,0v0.1v0.1v0.1l0,0l0,0v0.1V12v0.1
				l0,0l0.103,0.1l0,0c0.2,0,0.397,0,0.7,0H24.1L24,12.1l0,0L23.9,12v-0.1v-0.1l0,0h-0.1C23.5,11.8,23.5,11.7,23.5,11.6
				C23.5,11.7,23.5,11.6,23.5,11.6z M0.9,7.1C0.9,7.1,0.9,7.2,0.9,7.1c0,0.1,0,0.1,0,0.2v0.1v0.1l0,0v0.1l0,0v0.1l0,0v0.1v0.1V8l0,0
				v0.1l0,0v0.1v0.1v0.1V8.3V8.2c0-0.1,0-0.1,0-0.2V7.9c0-0.1,0-0.1,0-0.1V7.7c0-0.1,0-0.1,0-0.2V7.4c0-0.1,0-0.1,0-0.1
				C0.9,7.2,0.9,7.1,0.9,7.1c0-0.1,0-0.1,0-0.2s0-0.1,0-0.1c0-0.1,0-0.1,0-0.1V6.6l0,0v0.1v0.1l0,0v0.1C0.9,7,0.9,7,0.9,7.1L0.9,7.1
				z"/>
		</g>
	</g>
</g>
<g id="guides">
</g>
<g>
	<g>
		<defs>
			<path id="SVGID_2_" d="M28.1,10.3C28.1,10.2,28.1,10.2,28.1,10.3c-1.2-0.1-2.3-0.1-3.397-0.1v0.1v0.1v0.1v0.1l0,0l0,0l0,0
				c0.1,0,0.1,0.1,0.197,0.1L25,10.8v0.1l0,0h0.1V11v0.1l0,0v0.1v0.1v0.1l0,0l0,0l0.103,0.1v0.1l0.1,0.1l0,0l0,0l0,0l0.1,0.1v0.1
				l0,0l0,0h0.101V12c0.397,0,0.8,0,1.2,0l0,0h0.1l0,0h0.1v-0.1L27,11.8c0.1,0,0.1,0,0.1,0v-0.1l0,0v-0.1v-0.1v-0.1l0,0l0,0v-0.1
				l0.103-0.1v-0.1l0,0V11v-0.1h0.1h0.1v-0.1v-0.1v-0.1v-0.1l0,0v-0.1C28.1,10.4,28.1,10.4,28.1,10.3L28.1,10.3z M44.2,6.4L44.2,6.4
				c0,0.1,0.1,0.1,0.1,0.1c0.2,0,0.4,0,0.6,0l0,0h3.9L49,6.8v2.3l-0.3,0.3H45.1v0.1c-0.2,0-0.397,0-0.6,0l0,0L44.4,9.6h-0.1v0.1v0.1
				v0.1l0,0V10v0.1v0.1v0.1v0.1l-0.1,0.1l0,0v0.1v0.1v0.1l0,0l0,0v0.1c-0.103,0-0.103,0-0.2,0c-0.103,0-0.103,0-0.2,0v-0.1h-0.1l0,0
				v-0.1v-0.1v-0.1l0,0L43.6,10.4l-0.1-0.1v-0.1H43.4l-0.1-0.1L43.2,10V9.9c0,0,0,0-0.103,0V9.8L43,9.7L42.9,9.6l-0.1-0.1V9.4l0,0
				c-0.1,0-0.1,0-0.2,0l0,0c-0.1,0-0.1,0-0.1,0c0,0.1-0.103,0.1-0.103,0.1c0,0.1,0,0.1,0,0.1l-0.1,0.1c-0.1,0.1-0.1,0.1-0.2,0.1
				c-0.1,0-0.1,0.1-0.2,0.1c-0.1,0-0.1,0-0.1,0l0,0l0,0V10c-0.1,0-0.1,0-0.1,0c-0.101,0-0.101,0.1-0.101,0.1v0.1v0.1l0,0v0.1h-0.1
				l0,0v0.1v0.1v0.1v0.1v0.1l0,0V11v0.1l0,0v0.1l0,0v0.1v0.1v0.1l0,0v0.1l0,0v0.1v0.1l0,0v0.1V12v0.1v0.1v0.1v0.1l0,0v0.1v0.1v0.1
				v0.1v0.1V13v0.1l0,0v0.1v0.1v0.1v0.1v0.1v0.1v0.1l0,0v0.1V14v0.1v0.1l0,0v0.1v0.1v0.1l0,0v0.1l0,0v0.1l0,0v0.1v0.1V15v0.1v0.1
				v0.1v0.1l0,0v0.1v0.1v0.1V16v0.1v0.1v0.1l0,0v0.1v0.1v0.1V16.7v0.1V16.9V17l0,0v0.1V17.2v0.1V17.4v0.1v0.1V17.7l0,0v0.1l0,0V17.9
				l0,0V18v0.1V18.2l0,0v0.1l0,0V18.4v0.1l0,0v0.1V18.7v0.1V18.9V19v0.1V19.2l0,0v0.1V19.4v0.1v0.1V19.7v0.1V19.9l0,0V20v0.1V20v0.1
				V20.2v0.1l0,0V20.4v0.1l0,0v0.1l0,0V20.7v0.1V20.9l0,0V21l0,0v0.1V21.2l0,0v0.1V21.4v0.1v0.1V21.7v0.1V21.9l0,0V22H41.4l0,0
				c-0.1,0-0.1,0-0.1,0h-0.1C41.1,22,41.1,22,41.1,22H41c-0.103,0-0.3,0-0.4,0c-0.1,0-0.1,0-0.2,0c-0.1,0-0.1-0.1-0.1-0.1h-0.1l0,0
				c-0.103,0-0.103,0-0.2,0l0,0c-0.103,0-0.103,0-0.2,0s-0.1,0-0.1,0l0,0c-0.103,0-0.103,0-0.2,0c-0.103,0-0.103,0-0.2,0l0,0
				c-0.1,0-0.1,0-0.2,0H39H38.9h-0.1c-0.1,0-0.1,0-0.1,0C38.6,21.9,38.6,21.8,38.6,21.8c-0.1,0-0.1-0.1-0.2-0.1l0,0
				c-0.1,0-0.1-0.101-0.1-0.101c-0.1,0-0.1-0.102-0.1-0.102v-0.102H38.1V21.3L38,21.2V21.1H37.9h-0.1V21v-0.1V20.8l0,0v-0.1V20.6
				l0,0l-0.1-0.1l0,0v-0.1V20.3v-0.1l0,0V20.1l0,0V20v-0.1v-0.2V19.6l0,0v-0.1v-0.1V19.3v-0.1V19.1V19v-0.1l0,0V18.8v-0.1l0,0V18.6
				l0,0v-0.1v-0.1V18.3l0,0v-0.1l0,0V18.1l0,0V18v-0.1V17.8v-0.1V17.6v-0.1v-0.1l0,0V17.3v-0.1V17.1V17v-0.1V16.8v-0.1l0,0V16.6
				v-0.1v-0.1v-0.1v-0.1v-0.1V16l0,0v-0.1v-0.1v-0.1v-0.1v-0.1v-0.1v-0.1l0,0v-0.1l0,0v-0.1l0,0V15v-0.1v-0.1l0,0v-0.1l0,0v-0.1
				v-0.1l0,0v-0.1v-0.1v-0.1v-0.1V14v-0.1v-0.1l0,0v-0.1v-0.1v-0.1v-0.1v-0.1v-0.1v-0.1l0,0V13v-0.1v-0.1v-0.1v-0.1v-0.1l0,0v-0.1
				v-0.1l0,0v-0.1l0,0v-0.1V12v-0.1l0,0v-0.1l0,0v-0.1v-0.1l0,0v-0.1v-0.1v-0.1v-0.1v-0.1V11v-0.1l0,0v-0.1v-0.1v-0.1l0,0
				c-0.103,0-0.103,0-0.103,0c-2.2,0-4.5,0-6.7,0l0,0l0,0v0.1v0.1l0,0v0.1l0,0V11v0.1v0.1l0,0v0.1l0,0l-0.1,0.1v0.1l0,0v0.1v0.1
				c-0.1,0-0.1,0.1-0.2,0.1h-0.1h-0.101v0.1L30.3,12c-0.1,0-0.1,0.1-0.1,0.1l0,0v0.1v0.1v0.1L30.1,12.5v0.1v0.1l0,0v0.1v0.1V13l0,0
				l0,0L30,13.1v0.1v0.1l0,0v0.1v0.1l0,0L29.9,13.6l0,0l-0.1,0.1h-0.1c-0.103,0-0.2,0.1-0.4,0.1h-0.1H29.1c-0.397,0-0.897,0-1.3,0
				l0,0c-0.1,0-0.1,0-0.1,0c-1,0-2.103,0.1-3.103,0.1h-0.1h-0.101c-0.1,0-0.197,0-0.197,0l0,0L24.1,14l0,0l0,0v0.1v0.1v0.1l0,0v0.1
				v0.1v0.1v0.1v0.1v0.1V15l0,0v0.1v0.1l0,0v0.1l0,0v0.1v0.1v0.1l0,0v0.1l0,0v0.1l0,0v0.1V16v0.1v0.1v0.1v0.1v0.1l0,0v0.1V16.7v0.1
				V16.9V17v0.1V17.2l0,0v0.1V17.4v0.1v0.1V17.7v0.1V17.9l0,0V18v0.1V18.2v0.1V18.4v0.1v0.1l0,0V18.7l0,0v0.1l0,0V18.9V19v0.1l0,0
				V19.2l0,0v0.1V19.4l0,0v0.1v0.1V19.7v0.1V19.9V20v0.1l0,0V20.2v0.1V20.4v0.1v0.1V20.7v0.1l0,0V20.9V21l0,0l0,0v0.1H24V21.2v0.1
				l0,0V21.4L23.9,21.5v0.1V21.7v0.1V21.9V22l0,0v0.1V22.2v0.1H24V22.4v0.1v0.1l0,0V22.7v0.1V22.9V23v0.1V23.2v0.1l0,0V23.4v0.1l0,0
				v0.1l0,0V23.7v0.1V23.9l0,0V24l0,0v0.1V24.2l0,0v0.1V24.4v0.1l0,0h0.1v0.1V24.7l0,0v0.1V24.9V25l0.103,0.1l0,0V25.2v0.1V25.4l0,0
				v0.1v0.1V25.7l0,0l0,0v0.1V25.9V26l0,0v0.1V26.2h0.1v0.1l0,0V26.4v0.1v0.1l0,0V26.7l0,0l0.1,0.1l0,0V26.9V27v0.1V27.2l0,0l0,0
				v0.1V27.4l0,0v0.1v0.1V27.7l0,0l0,0v0.1V27.9V28l0,0v0.1V28.2v0.1h0.101l0,0V28.4v0.1v0.1l0,0V28.7v0.101h0.1l0,0v0.1V29v0.1
				V29.2l0,0c0.103,0,0.103,0,0.2,0v0.101l0,0v0.1l0,0v0.102v0.102V29.7l0,0v0.101l0,0v0.1V30l0,0v0.1V30.2v0.101l0,0l0,0v0.1
				l-0.1,0.102v0.102H24.6c-0.5,0-1,0-1.5,0H23l0,0c-0.103,0-0.2,0-0.2,0L22.7,30.7l0,0H22.6c-0.6,0-1.2,0-1.7,0
				c-0.1,0-0.1,0-0.197,0C20.6,30.7,20.6,30.6,20.5,30.6l0,0c-0.103,0-0.103,0-0.2,0c-0.2,0-0.5,0-0.7,0h-0.1L19,31
				c-0.103,0-0.103,0-0.2,0l0,0h-0.1c-0.103,0-0.103,0-0.2,0L18.4,30.9V30.8l0,0h-0.1v-0.1V30.6v-0.1l0,0l-0.1-0.1V30.3l0,0
				L18.1,30.2l0,0V30.1V30v-0.1l0,0L18,29.8l0,0v-0.1l0,0V29.6v-0.1v-0.1V29.3l0,0l0,0v-0.1V29.1l0,0V29v-0.1L17.9,28.8v-0.1V28.6
				v-0.1v-0.1l0,0V28.3v-0.1V28.1h-0.1l0,0V28v-0.1V27.8l0,0v-0.1V27.6v-0.1v-0.1V27.3v-0.1V27.1l0,0V27l0,0v-0.1l0,0V26.8v-0.1
				V26.6l0,0v-0.1l0,0v-0.1V26.3l0,0v-0.1V26.1V26v-0.1V25.8v-0.1V25.6l0,0v-0.1v-0.1V25.3v-0.1V25.1V25v-0.1l0,0V24.8v-0.1l0,0l0,0
				V24.6v-0.1v-0.1l0,0V24.3v-0.1l0,0V24.1l0,0V24v-0.1V23.8l0,0v-0.1l0,0V23.6v-0.1l0,0v-0.1V23.3v-0.1V23.1V23v-0.1V22.8l0,0v-0.1
				V22.6v-0.1v-0.1V22.3v-0.101l0,0v-0.1V22v-0.1V21.8v-0.101v-0.1v-0.102l0,0h-0.2h-0.1H17.4h-0.1l0,0c-0.1,0-0.1,0-0.2,0L17,21.4
				L16.9,21.3v-0.101v-0.1V21l0,0v-0.1V20.8v-0.101v-0.1v-0.102v-0.102V20.3l0,0v-0.101l-0.1-0.1V20v-0.1V19.8v-0.101v-0.1l0,0
				v-0.102v-0.102l0,0V19.3l0,0v-0.101v-0.1V19l0,0v-0.1l0,0V18.8l0,0v-0.101v-0.1v-0.102v-0.102V18.3v-0.101v-0.1l0,0V18v-0.1V17.8
				v-0.101v-0.1v-0.102v-0.102l0,0V17.3v-0.101v-0.1V17v-0.1V16.8v-0.101l0,0v-0.1v-0.102v-0.1v-0.1v-0.1v-0.1V16l0,0v-0.1l0,0v-0.1
				v-0.1v-0.1v-0.1v-0.1l0,0v-0.1h0.1v-0.1v-0.1l0,0V15L17,14.9v-0.1l0,0h0.1v-0.1v-0.1v-0.1l0,0v-0.1v-0.1v-0.1H17.2v-0.1V14v-0.1
				v-0.1h0.1v-0.1v-0.1l0,0l0,0v-0.1v-0.1v-0.1l0,0v-0.1v-0.1l0,0V13l0,0v-0.1v-0.1v-0.1l0,0l0.1-0.1l0,0v-0.1v-0.1l0,0v-0.1v-0.1
				v-0.1h-0.1l0,0V12v-0.1v-0.1l0,0v-0.1l-0.1-0.1H17.1l0,0v0.1v0.1l0,0L17,11.9H16.9l0,0c-0.1,0-0.1,0-0.1,0s-0.1,0-0.2,0h-0.1
				H16.4c-1,0-1.897,0.1-2.897,0.1v0.1l0,0c-0.103,0-0.103,0-0.103,0c-0.1,0-0.1,0-0.197,0V12L13.1,11.9l0,0l0,0v-0.1l0,0l0,0H13
				c-0.103,0-0.103,0-0.103,0l0,0h-0.1c-0.1,0-0.2,0-0.2,0h-0.1h-0.101c-0.1,0-0.1,0-0.1,0h-0.1c-1.603,0-3.2,0-4.7,0
				c-0.103,0-0.103,0-0.2,0H7.2L7.1,11.7v-0.1l0,0v-0.1H7H6.9l-0.1-0.1v-0.1v-0.1l0,0v-0.1V11v-0.1H6.7l0,0V11v0.1v0.1l0,0v0.1l0,0
				v0.1v0.1l0,0v0.1v0.1v0.1l0,0l0,0v0.1V12l0,0v0.1v0.1v0.1v0.1H5v0.1v0.1v0.1l0,0v0.1v0.1V13v0.1L4.9,13.2
				c-0.1,0.1-0.1,0.1-0.197,0.2c0,0,0,0,0,0.1s0,0.1,0,0.2c0,0.1,0,0.1,0,0.1c0,0.1,0,0.1,0,0.2v0.1C4.6,14.2,4.6,14.2,4.6,14.3
				c0,0.1,0,0.1,0,0.1c0,0.1,0,0.1,0,0.2v0.1c-0.1,0-0.1,0.1-0.1,0.1c0,0.1,0,0.1,0,0.2L4.4,15.1v0.1c0,0.1-0.1,0.1-0.1,0.1
				c0,0.1-0.1,0.1-0.1,0.2s0,0.1,0,0.1v0.1v0.1l0,0v0.1V16c0,0.1-0.103,0.1-0.103,0.2H4l0,0l0,0L3.9,16.3v0.1l0,0v0.1v0.1l0,0V16.7
				H3.8v0.1V16.9V17H3.7v0.1H3.6c-0.1,0-0.1,0-0.1,0V17.2H3.4l0,0H3.3c-0.1,0-0.1,0-0.2,0c-0.1,0-0.1,0-0.1,0H2.9
				c-0.1,0-0.197,0-0.3,0c-0.1,0-0.1,0-0.2,0C1.3,17,1.2,17,1.1,17c-0.1,0-0.2,0-0.2,0c-0.1,0-0.197,0-0.3,0c-0.1,0-0.1,0-0.2,0
				v-0.1L0.3,16.8v-0.1V16.6v-0.1v-0.1l0,0v-0.1v-0.1v-0.1V16v-0.1v-0.1v-0.1l0,0v-0.1v-0.1v-0.1v-0.1v-0.1v-0.1V15l0,0v-0.1v-0.1
				v-0.1l0,0v-0.1v-0.1v-0.1l0,0v-0.1l0,0v-0.1v-0.1l0,0V14v-0.1v-0.1v-0.1v-0.1v-0.1v-0.1l0,0v-0.1v-0.1v-0.1V13v-0.1v-0.1v-0.1
				l0,0v-0.1v-0.1v-0.1v-0.1v-0.1v-0.1l0,0V12v-0.1l0,0v-0.1l0,0v-0.1v-0.1v-0.1l0,0v-0.1l0,0v-0.1v-0.1l0,0v-0.1V11v-0.1v-0.1v-0.1
				v-0.1v-0.1l0,0v-0.1v-0.1v-0.1v-0.1V10V9.9l0,0V9.8V9.7V9.6l0,0V9.5V9.4V9.3l0,0V9.2V9.1l0,0V9l0,0V8.9V8.8V8.7l0,0V8.6l0,0V8.5
				V8.4l0,0V8.3V8.2V8.1V8V7.9V7.8l0,0V7.7V7.6V7.5V7.4V7.3V7.2V7.1l0,0V7V6.9V6.8l0,0V6.7V6.6V6.5l0,0V6.4V6.3l0,0V6.2l0,0V6.1V6
				V5.9l0,0V5.8l0,0V5.7l0,0V5.6V5.5l0,0H0.2V5.4l0,0V5.3l0.1-0.1C0.5,5,0.5,5,0.5,5l0.1-0.1V4.8V4.7V4.6H0.7l0,0c0.1,0,0.1,0,0.1,0
				c0.1,0,0.1-0.1,0.2-0.1c0.1,0,0.1,0,0.2,0l0,0c0.1,0,0.1,0,0.1,0c0.1,0,0.2,0,0.2,0l0,0h0.1C1.9,4.3,2,4.3,2,4.3l0,0l0,0v0.1
				c0.8,0,1.6,0,2.3,0l0,0V4.3l0,0L4.2,4.2l0,0V4.1V3.9V3.8V3.7h0.1l0,0V3.6V3.5V3.4l0,0V3.3h0.1H4.5h0.1l0,0V3.2V3.1l0,0V3l0,0V2.9
				C5,2.6,5,2.6,5.1,2.5L5.2,2.4l0,0h0.1c0.1,0,0.2,0,0.4,0h0.1h0.1C6,2.4,6,2.5,6.1,2.5v0.1H6.2c0.1,0,0.1,0,0.1,0l0,0
				c0.1,0,0.2,0,0.2,0h0.1H6.7h0.1h0.1c0,0,0,0.1,0.103,0.1V2.6V2.5h0.1l0,0l0.101-0.1V2.3l0.1-0.1l0,0V2.1V2h0.1V1.9H7.5h0.1l0,0
				c0.103,0,0.103,0,0.103,0c0.1,0,0.1,0,0.197,0l0,0l0,0l0,0l0,0H8c0.1,0,0.1,0,0.2,0c10.1,0,20.197,0,30.397,0l0,0l0,0H38.7l0,0
				h0.1C38.9,1.9,38.9,2,39,2c0.1,0,0.1,0,0.2,0h0.1c0.1,0,0.1,0.1,0.1,0.1L39.5,2.2l0,0l0.1,0.1L39.7,2.4v0.1v0.1
				c0.1,0,0.1,0.1,0.1,0.1v0.1l0.1,0.1c0,0,0,0,0.103,0l0,0l0,0c0.1,0,0.1,0,0.1,0h0.101l0,0c0.197,0,0.397,0,0.6,0l0,0h0.1
				c0,0,0.103,0,0.2,0H41.2l0,0h0.1c0.1,0,0.1,0.1,0.2,0.1l0,0c0.1,0,0.1,0,0.1,0l0,0C41.7,3,41.7,3.1,41.8,3.1l0,0
				c0.1,0,0.1,0.1,0.2,0.1v0.1h0.1v0.1v0.1v0.1l0,0c0,0.1,0,0.1,0,0.1c0,0.1,0.103,0.1,0.103,0.2V4c0,0.1,0,0.1,0,0.2v0.1
				c0,0.1,0,0.1,0,0.2v0.1c0.1,0,0.1,0,0.1,0h0.1l0,0l0.101,0.1v0.1l0,0l0,0v0.1V5v0.1l0,0v0.1v0.1l0,0v0.1v0.1c0,0.1,0,0.1,0.1,0.2
				v0.1c0,0.1,0,0.1,0,0.2v0.1c0,0.1,0,0.1,0,0.2l0,0l0,0c0.103,0,0.103,0.1,0.2,0.1l0,0C44,6.3,44.1,6.4,44.2,6.4z M23.5,11.6
				C23.5,11.6,23.4,11.6,23.5,11.6C23.4,11.5,23.4,11.5,23.4,11.5v-0.1v-0.1v-0.1v0.1v0.1v0.1l0,0v0.1v0.1v0.1l0,0l0,0v0.1V12v0.1
				l0,0l0.103,0.1l0,0c0.2,0,0.397,0,0.7,0H24.1L24,12.1l0,0L23.9,12v-0.1v-0.1l0,0h-0.1C23.5,11.8,23.5,11.7,23.5,11.6
				C23.5,11.7,23.5,11.6,23.5,11.6z M0.9,7.1C0.9,7.1,0.9,7.2,0.9,7.1c0,0.1,0,0.1,0,0.2v0.1v0.1l0,0v0.1l0,0v0.1l0,0v0.1v0.1V8l0,0
				v0.1l0,0v0.1v0.1v0.1V8.3V8.2c0-0.1,0-0.1,0-0.2V7.9c0-0.1,0-0.1,0-0.1V7.7c0-0.1,0-0.1,0-0.2V7.4c0-0.1,0-0.1,0-0.1
				C0.9,7.2,0.9,7.1,0.9,7.1c0-0.1,0-0.1,0-0.2s0-0.1,0-0.1c0-0.1,0-0.1,0-0.1V6.6l0,0v0.1v0.1l0,0v0.1C0.9,7,0.9,7,0.9,7.1L0.9,7.1
				z"/>
		</defs>
		<clipPath id="SVGID_3_">
			<use xlink:href="#SVGID_2_"  overflow="visible"/>
		</clipPath>
		<g clip-path="url(#SVGID_3_)">
			<g>
				<g>
					
						<linearGradient id="SVGID_4_" gradientUnits="userSpaceOnUse" x1="751.5139" y1="574.8193" x2="780.2853" y2="567.2362" gradientTransform="matrix(1 0 0 1 -749.9199 -562.1992)">
						<stop  offset="2.054068e-007" style="stop-color:#FE6198"/>
						<stop  offset="1" style="stop-color:#FFC9D4"/>
					</linearGradient>
					<polygon fill="url(#SVGID_4_)" points="-7.368,16 -3.559,16 -0.642,12.19 -4.451,12.19 					"/>
					
						<linearGradient id="SVGID_5_" gradientUnits="userSpaceOnUse" x1="751.01" y1="572.9053" x2="779.7838" y2="565.3215" gradientTransform="matrix(1 0 0 1 -749.9199 -562.1992)">
						<stop  offset="2.054068e-007" style="stop-color:#FE6198"/>
						<stop  offset="1" style="stop-color:#FFC9D4"/>
					</linearGradient>
					<polygon fill="url(#SVGID_5_)" points="2.194,8.381 -0.642,12.19 3.167,12.19 6.003,8.381 					"/>
					
						<linearGradient id="SVGID_6_" gradientUnits="userSpaceOnUse" x1="752.01" y1="576.6963" x2="780.7811" y2="569.1133" gradientTransform="matrix(1 0 0 1 -749.9199 -562.1992)">
						<stop  offset="2.054068e-007" style="stop-color:#FE6198"/>
						<stop  offset="1" style="stop-color:#FFC9D4"/>
					</linearGradient>
					<polygon fill="url(#SVGID_6_)" points="0.249,16 4.057,16 6.975,12.19 3.167,12.19 					"/>
					
						<linearGradient id="SVGID_7_" gradientUnits="userSpaceOnUse" x1="751.5032" y1="574.7822" x2="780.2783" y2="567.1981" gradientTransform="matrix(1 0 0 1 -749.9199 -562.1992)">
						<stop  offset="2.054068e-007" style="stop-color:#FE6198"/>
						<stop  offset="1" style="stop-color:#FFC9D4"/>
					</linearGradient>
					<polygon fill="url(#SVGID_7_)" points="6.975,12.19 10.783,12.19 13.62,8.381 9.811,8.381 					"/>
					
						<linearGradient id="SVGID_8_" gradientUnits="userSpaceOnUse" x1="750.01" y1="569.1133" x2="778.783" y2="561.5297" gradientTransform="matrix(1 0 0 1 -749.9199 -562.1992)">
						<stop  offset="2.054068e-007" style="stop-color:#FE6198"/>
						<stop  offset="1" style="stop-color:#FFC9D4"/>
					</linearGradient>
					<polygon fill="url(#SVGID_8_)" points="1.302,4.573 -1.615,8.381 2.194,8.381 5.111,4.573 					"/>
					
						<linearGradient id="SVGID_9_" gradientUnits="userSpaceOnUse" x1="749.5032" y1="567.2002" x2="778.2807" y2="559.6154" gradientTransform="matrix(1 0 0 1 -749.9199 -562.1992)">
						<stop  offset="2.054068e-007" style="stop-color:#FE6198"/>
						<stop  offset="1" style="stop-color:#FFC9D4"/>
					</linearGradient>
					<polygon fill="url(#SVGID_9_)" points="11.756,0.764 7.948,0.764 5.111,4.573 8.92,4.573 					"/>
					
						<linearGradient id="SVGID_10_" gradientUnits="userSpaceOnUse" x1="750.5071" y1="570.9902" x2="779.2788" y2="563.407" gradientTransform="matrix(1 0 0 1 -749.9199 -562.1992)">
						<stop  offset="2.054068e-007" style="stop-color:#FE6198"/>
						<stop  offset="1" style="stop-color:#FFC9D4"/>
					</linearGradient>
					<polygon fill="url(#SVGID_10_)" points="9.811,8.381 12.728,4.573 8.92,4.573 6.003,8.381 					"/>
					
						<linearGradient id="SVGID_11_" gradientUnits="userSpaceOnUse" x1="749.9983" y1="569.0791" x2="778.7753" y2="561.4945" gradientTransform="matrix(1 0 0 1 -749.9199 -562.1992)">
						<stop  offset="2.054068e-007" style="stop-color:#FE6198"/>
						<stop  offset="1" style="stop-color:#FFC9D4"/>
					</linearGradient>
					<polygon fill="url(#SVGID_11_)" points="19.374,0.764 15.565,0.764 12.728,4.573 16.537,4.573 					"/>
					
						<linearGradient id="SVGID_12_" gradientUnits="userSpaceOnUse" x1="752.0012" y1="576.6582" x2="780.7714" y2="569.0753" gradientTransform="matrix(1 0 0 1 -749.9199 -562.1992)">
						<stop  offset="2.054068e-007" style="stop-color:#FE6198"/>
						<stop  offset="1" style="stop-color:#FFC9D4"/>
					</linearGradient>
					<polygon fill="url(#SVGID_12_)" points="14.592,12.19 18.401,12.19 21.237,8.381 17.428,8.381 					"/>
					
						<linearGradient id="SVGID_13_" gradientUnits="userSpaceOnUse" x1="751.4885" y1="574.7363" x2="780.2667" y2="567.1513" gradientTransform="matrix(1 0 0 1 -749.9199 -562.1992)">
						<stop  offset="2.054068e-007" style="stop-color:#FE6198"/>
						<stop  offset="1" style="stop-color:#FFC9D4"/>
					</linearGradient>
					<polygon fill="url(#SVGID_13_)" points="21.237,8.381 25.046,8.381 27.882,4.573 24.073,4.573 					"/>
					
						<linearGradient id="SVGID_14_" gradientUnits="userSpaceOnUse" x1="750.9993" y1="572.8682" x2="779.7748" y2="565.284" gradientTransform="matrix(1 0 0 1 -749.9199 -562.1992)">
						<stop  offset="2.054068e-007" style="stop-color:#FE6198"/>
						<stop  offset="1" style="stop-color:#FFC9D4"/>
					</linearGradient>
					<polygon fill="url(#SVGID_14_)" points="16.537,4.573 13.62,8.381 17.428,8.381 20.265,4.573 					"/>
					
						<linearGradient id="SVGID_15_" gradientUnits="userSpaceOnUse" x1="750.4905" y1="570.9453" x2="779.2679" y2="563.3606" gradientTransform="matrix(1 0 0 1 -749.9199 -562.1992)">
						<stop  offset="2.054068e-007" style="stop-color:#FE6198"/>
						<stop  offset="1" style="stop-color:#FFC9D4"/>
					</linearGradient>
					<polygon fill="url(#SVGID_15_)" points="26.991,0.764 23.182,0.764 20.265,4.573 24.073,4.573 					"/>
					
						<linearGradient id="SVGID_16_" gradientUnits="userSpaceOnUse" x1="750.9875" y1="572.8213" x2="779.7609" y2="565.2375" gradientTransform="matrix(1 0 0 1 -749.9199 -562.1992)">
						<stop  offset="2.054068e-007" style="stop-color:#FE6198"/>
						<stop  offset="1" style="stop-color:#FFC9D4"/>
					</linearGradient>
					<polygon fill="url(#SVGID_16_)" points="30.798,0.764 27.882,4.573 31.69,4.573 34.607,0.764 					"/>
				</g>
			</g>
		</g>
	</g>
</g>
<g>
	<path fill="#FFF0F4" d="M19.295,19.479l-1.145,2.466h-2.378l5.46-10.831h2.642l1.584,10.831h-2.29l-0.265-2.466H19.295z
		 M22.201,13.404l-1.849,3.963h2.289L22.201,13.404z"/>
	<path fill="#FFF0F4" d="M28.806,21.945c-0.617,0-1.146-0.176-1.497-0.616c-0.352-0.439-0.441-0.969-0.352-1.585l1.231-6.692
		c0.089-0.617,0.353-1.145,0.881-1.497c0.439-0.353,0.97-0.529,1.673-0.529h3.522c0.616,0,1.145,0.176,1.497,0.617
		c0.352,0.44,0.44,0.969,0.352,1.585l-0.264,1.673h-2.29l0.264-1.409c0-0.177,0-0.265,0-0.353c-0.089-0.088-0.176-0.088-0.352-0.088
		h-2.377c-0.353,0-0.616,0.176-0.705,0.616l-1.056,5.811c0,0.177,0,0.265,0,0.354c0.088,0.088,0.175,0.088,0.352,0.088h2.378
		c0.353,0,0.616-0.177,0.704-0.616l0.177-1.232h2.289l-0.44,1.849c-0.088,0.616-0.351,1.144-0.881,1.497
		c-0.44,0.352-0.968,0.527-1.672,0.527H28.806z"/>
	<path fill="#FFF0F4" d="M45.449,11.115l-0.354,2.025h-5.02l-0.439,2.202h4.051l-0.354,2.025h-4.05l-0.439,2.466h5.02l-0.354,2.024
		H36.29l1.937-10.743H45.449z"/>
</g>
</svg>
