<?xml version="1.0" encoding="utf-8"?>
<!-- Generator: Adobe Illustrator 16.0.0, SVG Export Plug-In . SVG Version: 6.00 Build 0)  -->
<!DOCTYPE svg PUBLIC "-//W3C//DTD SVG 1.0//EN" "http://www.w3.org/TR/2001/REC-SVG-20010904/DTD/svg10.dtd">
<svg version="1.0" id="图层_1" xmlns="http://www.w3.org/2000/svg" xmlns:xlink="http://www.w3.org/1999/xlink" x="0px" y="0px"
	 width="49.1px" height="32px" viewBox="0 0 49.1 32" enable-background="new 0 0 49.1 32" xml:space="preserve">
<g id="Selected_Items">
	<g>
		<g id="Selected_Items_36_">
			
				<linearGradient id="SVGID_1_" gradientUnits="userSpaceOnUse" x1="375.261" y1="-263.0498" x2="423.9534" y2="-263.0498" gradientTransform="matrix(1 0 0 -1 -374.96 -246.5996)">
				<stop  offset="0" style="stop-color:#8F00DB"/>
				<stop  offset="0.6452" style="stop-color:#77B9FF"/>
				<stop  offset="1" style="stop-color:#B6CAFF"/>
			</linearGradient>
			<path fill="url(#SVGID_1_)" d="M28.1,10.3C28.1,10.2,28.1,10.2,28.1,10.3c-1.2-0.1-2.3-0.1-3.399-0.1v0.1v0.1v0.1v0.1l0,0l0,0
				l0,0c0.1,0,0.1,0.1,0.199,0.1L25,10.8v0.1l0,0h0.1V11v0.1l0,0v0.1v0.1v0.1l0,0l0,0l0.101,0.1v0.1l0.1,0.1l0,0l0,0l0,0l0.1,0.1
				v0.1l0,0l0,0H25.5V12c0.399,0,0.8,0,1.2,0l0,0h0.1l0,0h0.1v-0.1L27,11.8c0.1,0,0.1,0,0.1,0v-0.1l0,0v-0.1v-0.1v-0.1l0,0l0,0v-0.1
				l0.101-0.1v-0.1l0,0V11v-0.1h0.1h0.1v-0.1v-0.1v-0.1v-0.1l0,0v-0.1C28.1,10.4,28.1,10.4,28.1,10.3L28.1,10.3z M44.2,6.4L44.2,6.4
				c0,0.1,0.1,0.1,0.1,0.1c0.2,0,0.4,0,0.6,0l0,0h3.9L49,6.8v2.3l-0.3,0.3H45.1v0.1c-0.2,0-0.399,0-0.6,0l0,0L44.4,9.6h-0.1v0.1v0.1
				v0.1l0,0V10v0.1v0.1v0.1v0.1l-0.1,0.1l0,0v0.1v0.1v0.1l0,0l0,0v0.1c-0.101,0-0.101,0-0.2,0c-0.101,0-0.101,0-0.2,0v-0.1h-0.1l0,0
				v-0.1v-0.1v-0.1l0,0L43.6,10.4l-0.1-0.1v-0.1H43.4l-0.1-0.1L43.2,10V9.9c0,0,0,0-0.101,0V9.8L43,9.7L42.9,9.6l-0.1-0.1V9.4l0,0
				c-0.1,0-0.1,0-0.2,0l0,0c-0.1,0-0.1,0-0.1,0c0,0.1-0.101,0.1-0.101,0.1c0,0.1,0,0.1,0,0.1l-0.1,0.1c-0.1,0.1-0.1,0.1-0.2,0.1
				c-0.1,0-0.1,0.1-0.2,0.1c-0.1,0-0.1,0-0.1,0l0,0l0,0V10c-0.1,0-0.1,0-0.1,0C41.6,10,41.6,10.1,41.6,10.1v0.1v0.1l0,0v0.1h-0.1
				l0,0v0.1v0.1v0.1v0.1v0.1l0,0V11v0.1l0,0v0.1l0,0v0.1v0.1v0.1l0,0v0.1l0,0v0.1v0.1l0,0v0.1V12v0.1v0.1v0.1v0.1l0,0v0.1v0.1v0.1
				v0.1v0.1V13v0.1l0,0v0.1v0.1v0.1v0.1v0.1v0.1v0.1l0,0v0.1V14v0.1v0.1l0,0v0.1v0.1v0.1l0,0v0.1l0,0v0.1l0,0v0.1v0.1V15v0.1v0.1
				v0.1v0.1l0,0v0.1v0.1v0.1V16v0.1v0.1v0.1l0,0v0.1v0.1v0.1V16.7v0.1V16.9V17l0,0v0.1V17.2v0.1V17.4v0.1v0.1V17.7l0,0v0.1l0,0V17.9
				l0,0V18v0.1V18.2l0,0v0.1l0,0V18.4v0.1l0,0v0.1V18.7v0.1V18.9V19v0.1V19.2l0,0v0.1V19.4v0.1v0.1V19.7v0.1V19.9l0,0V20v0.1V20v0.1
				V20.2v0.1l0,0V20.4v0.1l0,0v0.1l0,0V20.7v0.1V20.9l0,0V21l0,0v0.1V21.2l0,0v0.1V21.4v0.1v0.1V21.7v0.1V21.9l0,0V22H41.4l0,0
				c-0.1,0-0.1,0-0.1,0h-0.1C41.1,22,41.1,22,41.1,22H41c-0.101,0-0.3,0-0.4,0c-0.1,0-0.1,0-0.2,0c-0.1,0-0.1-0.1-0.1-0.1h-0.1l0,0
				c-0.101,0-0.101,0-0.2,0l0,0c-0.101,0-0.101,0-0.2,0s-0.1,0-0.1,0l0,0c-0.101,0-0.101,0-0.2,0c-0.101,0-0.101,0-0.2,0l0,0
				c-0.1,0-0.1,0-0.2,0H39H38.9h-0.1c-0.1,0-0.1,0-0.1,0C38.6,21.9,38.6,21.8,38.6,21.8c-0.1,0-0.1-0.1-0.2-0.1l0,0
				c-0.1,0-0.1-0.101-0.1-0.101c-0.1,0-0.1-0.1-0.1-0.1v-0.1H38.1V21.3L38,21.2V21.1H37.9h-0.1V21v-0.1V20.8l0,0v-0.1V20.6l0,0
				l-0.1-0.1l0,0v-0.1V20.3v-0.1l0,0V20.1l0,0V20v-0.1v-0.2V19.6l0,0v-0.1v-0.1V19.3v-0.1V19.1V19v-0.1l0,0V18.8v-0.1l0,0V18.6l0,0
				v-0.1v-0.1V18.3l0,0v-0.1l0,0V18.1l0,0V18v-0.1V17.8v-0.1V17.6v-0.1v-0.1l0,0V17.3v-0.1V17.1V17v-0.1V16.8v-0.1l0,0V16.6v-0.1
				v-0.1v-0.1v-0.1v-0.1V16l0,0v-0.1v-0.1v-0.1v-0.1v-0.1v-0.1v-0.1l0,0v-0.1l0,0v-0.1l0,0V15v-0.1v-0.1l0,0v-0.1l0,0v-0.1v-0.1l0,0
				v-0.1v-0.1v-0.1v-0.1V14v-0.1v-0.1l0,0v-0.1v-0.1v-0.1v-0.1v-0.1v-0.1v-0.1l0,0V13v-0.1v-0.1v-0.1v-0.1v-0.1l0,0v-0.1v-0.1l0,0
				v-0.1l0,0v-0.1V12v-0.1l0,0v-0.1l0,0v-0.1v-0.1l0,0v-0.1v-0.1v-0.1v-0.1v-0.1V11v-0.1l0,0v-0.1v-0.1v-0.1l0,0
				c-0.101,0-0.101,0-0.101,0c-2.2,0-4.5,0-6.7,0l0,0l0,0v0.1v0.1l0,0v0.1l0,0V11v0.1v0.1l0,0v0.1l0,0l-0.1,0.1v0.1l0,0v0.1v0.1
				c-0.1,0-0.1,0.1-0.2,0.1h-0.1H30.4v0.1L30.3,12c-0.1,0-0.1,0.1-0.1,0.1l0,0v0.1v0.1v0.1L30.1,12.5v0.1v0.1l0,0v0.1v0.1V13l0,0
				l0,0L30,13.1v0.1v0.1l0,0v0.1v0.1l0,0L29.9,13.6l0,0l-0.1,0.1h-0.1c-0.101,0-0.2,0.1-0.4,0.1h-0.1H29.1c-0.399,0-0.899,0-1.3,0
				l0,0c-0.1,0-0.1,0-0.1,0c-1,0-2.101,0.1-3.101,0.1h-0.1H24.4c-0.1,0-0.199,0-0.199,0l0,0L24.1,14l0,0l0,0v0.1v0.1v0.1l0,0v0.1
				v0.1v0.1v0.1v0.1v0.1V15l0,0v0.1v0.1l0,0v0.1l0,0v0.1v0.1v0.1l0,0v0.1l0,0v0.1l0,0v0.1V16v0.1v0.1v0.1v0.1v0.1l0,0v0.1V16.7v0.1
				V16.9V17v0.1V17.2l0,0v0.1V17.4v0.1v0.1V17.7v0.1V17.9l0,0V18v0.1V18.2v0.1V18.4v0.1v0.1l0,0V18.7l0,0v0.1l0,0V18.9V19v0.1l0,0
				V19.2l0,0v0.1V19.4l0,0v0.1v0.1V19.7v0.1V19.9V20v0.1l0,0V20.2v0.1V20.4v0.1v0.1V20.7v0.1l0,0V20.9V21l0,0l0,0v0.1H24V21.2v0.1
				l0,0V21.4L23.9,21.5v0.1V21.7v0.1V21.9V22l0,0v0.1V22.2v0.1H24V22.4v0.1v0.1l0,0V22.7v0.1V22.9V23v0.1V23.2v0.1l0,0V23.4v0.1l0,0
				v0.1l0,0V23.7v0.1V23.9l0,0V24l0,0v0.1V24.2l0,0v0.1V24.4v0.1l0,0h0.1v0.1V24.7l0,0v0.1V24.9V25l0.101,0.1l0,0V25.2v0.1V25.4l0,0
				v0.1v0.1V25.7l0,0l0,0v0.1V25.9V26l0,0v0.1V26.2h0.1v0.1l0,0V26.4v0.1v0.1l0,0V26.7l0,0l0.1,0.1l0,0V26.9V27v0.1V27.2l0,0l0,0
				v0.1V27.4l0,0v0.1v0.1V27.7l0,0l0,0v0.1V27.9V28l0,0v0.1V28.2v0.1H24.5l0,0V28.4v0.1v0.1l0,0V28.7v0.101h0.1l0,0v0.1V29v0.1V29.2
				l0,0c0.101,0,0.101,0,0.2,0v0.101l0,0v0.1l0,0v0.1v0.1V29.7l0,0v0.101l0,0v0.1V30l0,0v0.1V30.2v0.101l0,0l0,0v0.1l-0.1,0.1v0.1
				H24.6c-0.5,0-1,0-1.5,0H23l0,0c-0.101,0-0.2,0-0.2,0L22.7,30.7l0,0H22.6c-0.6,0-1.2,0-1.7,0c-0.1,0-0.1,0-0.199,0
				C20.6,30.7,20.6,30.6,20.5,30.6l0,0c-0.101,0-0.101,0-0.2,0c-0.2,0-0.5,0-0.7,0h-0.1L19,31c-0.101,0-0.101,0-0.2,0l0,0h-0.1
				c-0.101,0-0.101,0-0.2,0L18.4,30.9V30.8l0,0h-0.1v-0.1V30.6v-0.1l0,0l-0.1-0.1V30.3l0,0L18.1,30.2l0,0V30.1V30v-0.1l0,0L18,29.8
				l0,0v-0.1l0,0V29.6v-0.1v-0.1V29.3l0,0l0,0v-0.1V29.1l0,0V29v-0.1L17.9,28.8v-0.1V28.6v-0.1v-0.1l0,0V28.3v-0.1V28.1h-0.1l0,0V28
				v-0.1V27.8l0,0v-0.1V27.6v-0.1v-0.1V27.3v-0.1V27.1l0,0V27l0,0v-0.1l0,0V26.8v-0.1V26.6l0,0v-0.1l0,0v-0.1V26.3l0,0v-0.1V26.1V26
				v-0.1V25.8v-0.1V25.6l0,0v-0.1v-0.1V25.3v-0.1V25.1V25v-0.1l0,0V24.8v-0.1l0,0l0,0V24.6v-0.1v-0.1l0,0V24.3v-0.1l0,0V24.1l0,0V24
				v-0.1V23.8l0,0v-0.1l0,0V23.6v-0.1l0,0v-0.1V23.3v-0.1V23.1V23v-0.1V22.8l0,0v-0.1V22.6v-0.1v-0.1V22.3v-0.101l0,0v-0.1V22v-0.1
				V21.8v-0.101v-0.1v-0.1l0,0h-0.2h-0.1H17.4h-0.1l0,0c-0.1,0-0.1,0-0.2,0L17,21.4L16.9,21.3v-0.101v-0.1V21l0,0v-0.1V20.8v-0.101
				v-0.1v-0.1v-0.1V20.3l0,0v-0.101l-0.1-0.1V20v-0.1V19.8v-0.101v-0.1l0,0v-0.1v-0.1l0,0V19.3l0,0v-0.101v-0.1V19l0,0v-0.1l0,0
				V18.8l0,0v-0.101v-0.1v-0.1v-0.1V18.3v-0.101v-0.1l0,0V18v-0.1V17.8v-0.101v-0.1v-0.1v-0.1l0,0V17.3v-0.101v-0.1V17v-0.1V16.8
				v-0.101l0,0v-0.1v-0.1v-0.1v-0.1v-0.1v-0.1V16l0,0v-0.1l0,0v-0.1v-0.1v-0.1v-0.1v-0.1l0,0v-0.1h0.1v-0.1v-0.1l0,0V15L17,14.9
				v-0.1l0,0h0.1v-0.1v-0.1v-0.1l0,0v-0.1v-0.1v-0.1H17.2v-0.1V14v-0.1v-0.1h0.1v-0.1v-0.1l0,0l0,0v-0.1v-0.1v-0.1l0,0v-0.1v-0.1
				l0,0V13l0,0v-0.1v-0.1v-0.1l0,0l0.1-0.1l0,0v-0.1v-0.1l0,0v-0.1v-0.1v-0.1h-0.1l0,0V12v-0.1v-0.1l0,0v-0.1l-0.1-0.1H17.1l0,0v0.1
				v0.1l0,0L17,11.9H16.9l0,0c-0.1,0-0.1,0-0.1,0s-0.1,0-0.2,0h-0.1H16.4c-1,0-1.899,0.1-2.899,0.1v0.1l0,0
				c-0.101,0-0.101,0-0.101,0c-0.1,0-0.1,0-0.199,0V12L13.1,11.9l0,0l0,0v-0.1l0,0l0,0H13c-0.101,0-0.101,0-0.101,0l0,0h-0.1
				c-0.1,0-0.2,0-0.2,0h-0.1H12.4c-0.1,0-0.1,0-0.1,0h-0.1c-1.601,0-3.2,0-4.7,0c-0.101,0-0.101,0-0.2,0H7.2L7.1,11.7v-0.1l0,0v-0.1
				H7H6.9l-0.1-0.1v-0.1v-0.1l0,0v-0.1V11v-0.1H6.7l0,0V11v0.1v0.1l0,0v0.1l0,0v0.1v0.1l0,0v0.1v0.1v0.1l0,0l0,0v0.1V12l0,0v0.1v0.1
				v0.1v0.1H5v0.1v0.1v0.1l0,0v0.1v0.1V13v0.1L4.9,13.2c-0.1,0.1-0.1,0.1-0.199,0.2c0,0,0,0,0,0.1s0,0.1,0,0.2c0,0.1,0,0.1,0,0.1
				c0,0.1,0,0.1,0,0.2v0.1C4.6,14.2,4.6,14.2,4.6,14.3s0,0.1,0,0.1c0,0.1,0,0.1,0,0.2v0.1c-0.1,0-0.1,0.1-0.1,0.1c0,0.1,0,0.1,0,0.2
				L4.4,15.1v0.1c0,0.1-0.1,0.1-0.1,0.1c0,0.1-0.1,0.1-0.1,0.2s0,0.1,0,0.1v0.1v0.1l0,0v0.1V16c0,0.1-0.101,0.1-0.101,0.2H4l0,0l0,0
				L3.9,16.3v0.1l0,0v0.1v0.1l0,0v0.1H3.8V16.8V16.9V17H3.7v0.1H3.6c-0.1,0-0.1,0-0.1,0v0.1H3.4l0,0H3.3c-0.1,0-0.1,0-0.2,0
				c-0.1,0-0.1,0-0.1,0H2.9c-0.1,0-0.199,0-0.3,0c-0.1,0-0.1,0-0.2,0C1.3,17,1.2,17,1.1,17c-0.1,0-0.2,0-0.2,0c-0.1,0-0.199,0-0.3,0
				c-0.1,0-0.1,0-0.2,0v-0.1L0.3,16.8v-0.1V16.6v-0.1v-0.1l0,0v-0.1v-0.1v-0.1V16v-0.1v-0.1v-0.1l0,0v-0.1v-0.1v-0.1v-0.1v-0.1v-0.1
				V15l0,0v-0.1v-0.1v-0.1l0,0v-0.1v-0.1v-0.1l0,0v-0.1l0,0v-0.1v-0.1l0,0V14v-0.1v-0.1v-0.1v-0.1v-0.1v-0.1l0,0v-0.1v-0.1v-0.1V13
				v-0.1v-0.1v-0.1l0,0v-0.1v-0.1v-0.1v-0.1v-0.1v-0.1l0,0V12v-0.1l0,0v-0.1l0,0v-0.1v-0.1v-0.1l0,0v-0.1l0,0v-0.1v-0.1l0,0v-0.1V11
				v-0.1v-0.1v-0.1v-0.1v-0.1l0,0v-0.1v-0.1v-0.1v-0.1V10V9.9l0,0V9.8V9.7V9.6l0,0V9.5V9.4V9.3l0,0V9.2V9.1l0,0V9l0,0V8.9V8.8V8.7
				l0,0V8.6l0,0V8.5V8.4l0,0V8.3V8.2V8.1V8V7.9V7.8l0,0V7.7V7.6V7.5V7.4V7.3V7.2V7.1l0,0V7V6.9V6.8l0,0V6.7V6.6V6.5l0,0V6.4V6.3l0,0
				V6.2l0,0V6.1V6V5.9l0,0V5.8l0,0V5.7l0,0V5.6V5.5l0,0H0.2V5.4l0,0V5.3l0.1-0.1C0.5,5,0.5,5,0.5,5l0.1-0.1V4.8V4.7V4.6H0.7l0,0
				c0.1,0,0.1,0,0.1,0c0.1,0,0.1-0.1,0.2-0.1c0.1,0,0.1,0,0.2,0l0,0c0.1,0,0.1,0,0.1,0c0.1,0,0.2,0,0.2,0l0,0h0.1
				C1.9,4.3,2,4.3,2,4.3l0,0l0,0v0.1c0.8,0,1.6,0,2.3,0l0,0V4.3l0,0L4.2,4.2l0,0V4.1V3.9V3.8V3.7h0.1l0,0V3.6V3.5V3.4l0,0V3.3h0.1
				H4.5h0.1l0,0V3.2V3.1l0,0V3l0,0V2.9C5,2.6,5,2.6,5.1,2.5L5.2,2.4l0,0h0.1c0.1,0,0.2,0,0.4,0h0.1h0.1C6,2.4,6,2.5,6.1,2.5v0.1H6.2
				c0.1,0,0.1,0,0.1,0l0,0c0.1,0,0.2,0,0.2,0h0.1H6.7h0.1h0.1c0,0,0,0.1,0.101,0.1V2.6V2.5h0.1l0,0L7.2,2.4V2.3l0.1-0.1l0,0V2.1V2
				h0.1V1.9H7.5h0.1l0,0c0.101,0,0.101,0,0.101,0c0.1,0,0.1,0,0.199,0l0,0l0,0l0,0l0,0H8c0.1,0,0.1,0,0.2,0
				c10.1,0,20.199,0,30.399,0l0,0l0,0H38.7l0,0h0.1C38.9,1.9,38.9,2,39,2c0.1,0,0.1,0,0.2,0h0.1c0.1,0,0.1,0.1,0.1,0.1L39.5,2.2l0,0
				l0.1,0.1L39.7,2.4v0.1v0.1c0.1,0,0.1,0.1,0.1,0.1v0.1l0.1,0.1c0,0,0,0,0.101,0l0,0l0,0c0.1,0,0.1,0,0.1,0H40.2l0,0
				c0.199,0,0.399,0,0.6,0l0,0h0.1c0,0,0.101,0,0.2,0H41.2l0,0h0.1c0.1,0,0.1,0.1,0.2,0.1l0,0c0.1,0,0.1,0,0.1,0l0,0
				C41.7,3,41.7,3.1,41.8,3.1l0,0c0.1,0,0.1,0.1,0.2,0.1v0.1h0.1v0.1v0.1v0.1l0,0c0,0.1,0,0.1,0,0.1c0,0.1,0.101,0.1,0.101,0.2V4
				c0,0.1,0,0.1,0,0.2v0.1c0,0.1,0,0.1,0,0.2v0.1c0.1,0,0.1,0,0.1,0h0.1l0,0L42.5,4.7v0.1l0,0l0,0v0.1V5v0.1l0,0v0.1v0.1l0,0v0.1
				v0.1c0,0.1,0,0.1,0.1,0.2v0.1c0,0.1,0,0.1,0,0.2v0.1c0,0.1,0,0.1,0,0.2l0,0l0,0c0.101,0,0.101,0.1,0.2,0.1l0,0
				C44,6.3,44.1,6.4,44.2,6.4z M23.5,11.6C23.5,11.6,23.4,11.6,23.5,11.6C23.4,11.5,23.4,11.5,23.4,11.5v-0.1v-0.1v-0.1v0.1v0.1v0.1
				l0,0v0.1v0.1v0.1l0,0l0,0v0.1V12v0.1l0,0l0.101,0.1l0,0c0.2,0,0.399,0,0.7,0H24.1L24,12.1l0,0L23.9,12v-0.1v-0.1l0,0h-0.1
				C23.5,11.8,23.5,11.7,23.5,11.6C23.5,11.7,23.5,11.6,23.5,11.6z M0.9,7.1C0.9,7.1,0.9,7.2,0.9,7.1c0,0.1,0,0.1,0,0.2v0.1v0.1l0,0
				v0.1l0,0v0.1l0,0v0.1v0.1V8l0,0v0.1l0,0v0.1v0.1v0.1V8.3V8.2c0-0.1,0-0.1,0-0.2V7.9c0-0.1,0-0.1,0-0.1V7.7c0-0.1,0-0.1,0-0.2V7.4
				c0-0.1,0-0.1,0-0.1C0.9,7.2,0.9,7.1,0.9,7.1c0-0.1,0-0.1,0-0.2s0-0.1,0-0.1c0-0.1,0-0.1,0-0.1V6.6l0,0v0.1v0.1l0,0v0.1
				C0.9,7,0.9,7,0.9,7.1L0.9,7.1z"/>
		</g>
	</g>
</g>
<g id="guides">
</g>
<linearGradient id="SVGID_2_" gradientUnits="userSpaceOnUse" x1="-144.1711" y1="310.1973" x2="-139.5725" y2="310.1973" gradientTransform="matrix(6.6522 0 0 -6.6522 959.3574 2072.5425)">
	<stop  offset="0" style="stop-color:#C216FF"/>
	<stop  offset="0.6452" style="stop-color:#77B9FF"/>
	<stop  offset="1" style="stop-color:#B6CAFF"/>
</linearGradient>
<path fill="url(#SVGID_2_)" fill-opacity="0.5" d="M0.3,16.3c0,0,2.7,0.8,3.3-0.8c1.5-3.8,1.3-3,2.3-7.4c0,0-0.8,1.5,0.9,2.6
	c0.7,0.5,2.8,0.2,3.6,0.2C16.6,10.6,21,11.4,22.5,16.4c0,0,1.5-7.4-11.7-8.9c0,0,10.5-2.4,14.5,1c0,0-3.2-3.2-9-3.6
	c0,0,9.5-3,14.5,3.8c0,0-1.6-7.1-16.2-7L8.2,1.6L5.9,2.4L4.7,3.2L5.9,4.5L2.7,4.8L1.2,4.4l-0.9,1l0.3,7.5L0.3,16.3z"/>
</svg>
