<?xml version="1.0" encoding="utf-8"?>
<!-- Generator: Adobe Illustrator 16.0.0, SVG Export Plug-In . SVG Version: 6.00 Build 0)  -->
<!DOCTYPE svg PUBLIC "-//W3C//DTD SVG 1.0//EN" "http://www.w3.org/TR/2001/REC-SVG-20010904/DTD/svg10.dtd">
<svg version="1.0" id="图层_1" xmlns="http://www.w3.org/2000/svg" xmlns:xlink="http://www.w3.org/1999/xlink" x="0px" y="0px"
	 width="73.6px" height="32px" viewBox="0 0 73.6 32" enable-background="new 0 0 73.6 32" xml:space="preserve">
<path opacity="0.7" fill="#077272" enable-background="new    " d="M47.941,12.924c0,0-3.942,0.733-7.061,5.137
	c0,0,2.659,1.191,1.742,1.926c-0.917,0.735-4.952-0.365-11.922,6.603c0,0,2.843-1.281,6.694-1.558
	c3.853-0.276-1.009,2.293-2.108,2.934c0,0,7.152-3.574,9.171-3.302c2.018,0.274-7.154,5.503-11.098,7.337
	c0,0,12.015-3.943,13.391-3.76c1.376,0.182-0.734,2.384-4.035,3.76c0,0,6.879,0,11.465-2.109c4.585-2.109,5.502-2.386,5.502-1.192
	c0,0,4.033-2.569,2.844-3.486c-1.191-0.917,3.027-2.11,5.869-4.221c2.844-2.108,4.033-3.484,4.033-3.484s-6.877,3.027-8.986,3.117
	c-2.109,0.094,1.375-2.843,5.135-4.492c3.763-1.65,4.953-4.677,4.953-4.677s-5.137,0.184-11.739,3.485
	c-6.604,3.301-7.337,4.402-6.786,2.384s6.603-4.861,6.603-4.861s-8.437,0.184-12.289,3.21c-3.851,3.026-2.752-0.733-1.926-1.467
	C48.217,13.474,47.941,12.924,47.941,12.924z"/>
<linearGradient id="SVGID_1_" gradientUnits="userSpaceOnUse" x1="743.3918" y1="578.2197" x2="813.9055" y2="578.2197" gradientTransform="matrix(1 0 0 1 -741.9199 -562.1992)">
	<stop  offset="0" style="stop-color:#5782CE"/>
	<stop  offset="0.9898" style="stop-color:#5CAEFF"/>
</linearGradient>
<linearGradient id="SVGID_2_" gradientUnits="userSpaceOnUse" x1="372.1682" y1="-262.6191" x2="443.3508" y2="-262.6191" gradientTransform="matrix(1 0 0 -1 -370.96 -246.5996)">
	<stop  offset="0" style="stop-color:#86D4F7"/>
	<stop  offset="1" style="stop-color:#DEF6FF"/>
</linearGradient>
<path fill="url(#SVGID_1_)" stroke="url(#SVGID_2_)" stroke-width="0.75" stroke-miterlimit="10" d="M32.127,2.559l0.097-0.097
	V2.366V2.269V2.173l0,0c0.19,0,0.289,0,0.482,0v0.096c0.189,0,0.289,0,0.48,0v0.097h0.097v0.096c0.096,0,0.096,0,0.096,0v0.097
	c0,0,0.099,0,0.099,0.096l0.097,0.096c0.097,0,0.097,0.096,0.097,0.096c0.096,0,0.096,0.097,0.096,0.097l0,0
	c0.096,0,0.193,0.096,0.289,0.096v0.097h0.095v0.096c10.019,0,19.943,0,29.967,0c0.287,0.193,0.386,0.193,0.386,0.193l0.096,0.097
	l0.096,0.097v0.096v0.097v0.096l0,0l0,0c0,0.097,0.098,0.097,0.098,0.097s0.192,0.481,0.384,1.445
	c0.291,0.963,0.481,1.445,0.773,1.445H67.2l0.289-0.097h0.288l0,0h1.156h0.289l0.289,0.097h1.734l0.191,0.096l0.098,0.096h0.48
	v3.854v0.097v0.096l-0.191,0.193h-0.289h-0.192l0,0h-3.565l1.544,3.565c0,0.097,0,0.097,0,0.097v0.096v0.097l0,0
	c0,0.096,0,0.096,0,0.096v0.097v0.096v0.771c0,0-0.58,0-1.639,0c-0.099,0-0.58-0.963-1.544-2.89c-0.383,0-0.864,0.096-1.252,0.096
	c-0.097,0-0.193,0-0.193,0c-0.096,0-0.188,0-0.188,0h-0.101v0.097c0,0.096,0,0.096,0,0.096c0,0.097,0,0.097,0,0.097v0.096v0.097
	c0,0.096,0,0.096,0,0.096v0.097v0.096l0,0c0,0.096,0,0.096,0,0.096v0.096v0.097v0.096v0.097v0.096v0.096v0.097v0.096
	c0,0.097,0,0.097,0,0.097v0.096v0.097l0,0c0,0.096,0,0.096,0,0.096v0.097v0.096l0,0c0,0.096,0,0.096,0,0.096v0.096v0.096l0,0
	c0,0.097,0,0.097,0,0.097l0,0v0.097v0.096l0.101,0.097c0,0.097,0,0.097,0,0.097v0.096v0.097l0,0c0,0.097,0,0.097,0,0.097v0.098
	v0.096l0,0c0,0.096,0,0.096,0,0.096v0.099v0.096v0.097l0.096,0.098c0,0.096,0,0.096,0,0.096V17.6v0.096v0.098
	c0,0.096,0,0.096,0,0.096v0.096v0.098l0,0c0,0.098,0,0.098,0,0.098v0.096v0.097l0,0c0,0.097,0,0.097,0,0.097v0.098v0.096v0.097
	v0.097c0,0.097,0,0.097,0,0.097v0.097v0.096v0.099c0,0.096,0,0.096,0,0.096v0.097v0.097v0.097c0,0.098,0.096,0.098,0.096,0.098
	v0.096v0.096v0.098v0.096v0.098c0,0,0,0,0,0.098v0.096v0.097c0,0.097,0,0.097,0,0.097s0,0,0,0.098v0.096l0.098,0.096
	c0,0.1,0,0.1,0,0.1v0.099v0.097v0.096c0,0.097,0,0.097,0,0.097l0.097,0.101v0.098v0.097v0.089l0.1,0.096c0,0,0,0,0,0.1v0.099v0.097
	v0.097v0.096v0.093c0,0.098,0.096,0.098,0.096,0.098c0,0.097,0,0.097,0,0.097v0.097v0.096c0,0.1,0.096,0.1,0.096,0.1v0.1v0.096l0,0
	c0,0.096,0,0.096,0,0.096l0.101,0.098v0.092v0.098v0.098v0.096l0.096,0.096v0.097v0.099v0.096v0.098v0.098v0.095
	c0,0.097,0,0.097,0,0.097v0.096v0.098l0,0c0,0.096,0.099,0.096,0.099,0.096v0.098v0.096l0,0c0,0.098,0,0.098,0,0.098v0.098v0.098
	v0.094v0.098c0,0.096,0,0.096,0,0.096v0.097v0.097v0.098c0,0.097,0,0.097,0,0.097v0.097v0.098l0,0c0,0.099,0,0.099,0,0.099v0.093
	v0.098l0,0c0,0.097,0,0.097,0,0.097v1.06v0.096v0.098v0.096c0,0.098,0,0.098,0,0.098l0,0v0.099l0,0c0,0.099-0.099,0.099-0.099,0.099
	c0,0.096,0,0.096,0,0.096v0.099l0,0c-0.096,0-0.193,0.097-0.289,0.097s-0.192,0-0.192,0c-0.103-0.005-0.103,0.092-0.103,0.092
	s-0.1,0-0.192,0s-0.096,0-0.192,0l-0.097,0.097c-0.099,0-0.099,0-0.191,0c-0.096,0-0.289,0-0.387,0h-0.097c-0.096,0-0.096,0-0.192,0
	c-0.192,0-0.383,0-0.481,0c-0.096,0-0.096,0.097-0.192,0.097c-0.48,0-0.964,0-1.347,0l-0.099,0.096c-0.097,0-0.097,0-0.19,0
	c-0.292,0-0.58,0.098-0.773,0.098h-0.096c0.771,0.482,0.675,0.578,0.675,0.578c-0.099,0-0.192-0.096-0.192-0.096
	c-0.097,0-0.097,0-0.097,0l0,0c-0.099,0-0.192,0-0.192,0c-0.098-0.099-0.098-0.099-0.192-0.099l-0.096-0.097l-0.098-0.096l0,0
	c0-0.097,0-0.097,0-0.097v-0.097v-0.098h-0.097c0-0.096,0-0.096,0-0.096v-0.098l-0.097-0.096l-0.096-0.097v-0.097
	c0-0.098,0-0.098,0-0.098V28.13v-0.096l0,0c0-0.097-0.098-0.097-0.098-0.097l-0.097-0.098v-0.096l0,0c0-0.098,0-0.098,0-0.098
	c0-0.098-0.096-0.098-0.096-0.098V27.45v-0.093v-0.096c0-0.098,0-0.098,0-0.098v-0.135v-0.098V26.84c0-0.097,0-0.097,0-0.097v-0.097
	l-0.099-0.097h-0.096v-0.096l-0.096-0.099V26.26l0,0c0-0.097,0-0.097,0-0.097v-0.578v-0.097v-0.096v-0.098c0-0.098,0-0.098,0-0.098
	V25.1v-0.098v-0.094c0-0.096,0-0.096,0-0.096l-0.098-0.098v-0.096l0,0c0-0.098,0-0.098,0-0.098v-0.097v-0.096v-0.097v-0.098v-0.096
	v-0.098v-0.096v-0.098c0-0.096,0-0.096,0-0.096v-0.096v-0.099v-0.097c0-0.096,0-0.096,0-0.096v-0.099v-0.099v-0.094
	c0-0.096,0-0.096,0-0.096v-0.098v-0.096v-0.097v-0.097v-0.098v-0.097v-0.096l-0.097-0.097v-0.098v-0.096v-0.098v-0.096
	c0-0.097,0-0.097,0-0.097V21.54v-0.097c0-0.098,0-0.098,0-0.098v-0.098V21.15l0,0c0-0.098,0-0.098,0-0.098v-0.097v-0.093V20.77
	v-0.096v-0.098l-0.097-0.096v-0.098v-0.096v-0.098v-0.097v-0.096v-0.099c0-0.096,0-0.096,0-0.096V19.71v-0.097l0,0
	c0-0.098,0-0.098,0-0.098V19.42v-0.096l0,0c0-0.096,0-0.096,0-0.096V19.13v-0.096v-0.097v-0.097c0-0.097,0-0.097,0-0.097
	s-0.097,0-0.097-0.1v-0.097v-0.096c0-0.097,0-0.097,0-0.097v-0.097v-0.095l0,0c0-0.098,0-0.098,0-0.098v-0.096v-0.097l0,0
	c0-0.097,0-0.097,0-0.097V17.68v-0.09v-0.097v-0.097c0-0.097,0-0.097,0-0.097v-0.386v-0.096v-0.098c0-0.097,0-0.097,0-0.097h-0.096
	v-0.097l0,0c0-0.096,0-0.096,0-0.096v-0.097c-0.1,0-0.1-0.097-0.1-0.097h-0.097c0-0.096,0-0.096,0-0.096v-0.097v-0.097l0,0
	l-0.097-0.096h-0.096c-0.098,0-0.193-0.096-0.289-0.096c0,0-0.1,0-0.1-0.096l0,0H57.85c-0.097,0-0.191,0-0.288,0h-0.098h-0.096
	c-0.098,0-0.098,0-0.289,0c-0.1,0-0.1,0-0.29,0c-0.099,0-0.099,0-0.191,0c0,0.096,0,0.096,0,0.096c-0.099,0-0.099,0.096-0.193,0.096
	c-0.094,0-0.092,0.096-0.188,0.096l0,0c0,0.097,0,0.097,0,0.097c-0.097,0.097-0.097,0.097-0.097,0.097l-0.098,0.096
	c-0.096,0-0.096,0.097-0.096,0.097c-0.096,0-0.096,0.097-0.096,0.097v0.096c-0.099,0-0.099,0.097-0.099,0.097l-0.096,0.097
	l-0.097,0.098v0.096c-0.097,0-0.097,0-0.19,0.096l-0.099,0.098h-0.097c0,0.097,0,0.097,0,0.097c-0.098,0-0.098,0.097-0.098,0.097
	l-0.096,0.098h-0.096c-0.1,0.096-0.1,0.096-0.193,0.096c0,0.097-0.097,0.097-0.097,0.097l-0.097,0.097
	c-0.096,0-0.096,0.098-0.096,0.098l-0.098,0.096c0,0.096-0.097,0.096-0.097,0.096l-0.867-0.096l-0.097,0.096
	c-0.099,0-0.191,0-0.288,0c-0.098,0-0.098,0.098-0.192,0.098c0,0.097-0.1,0.097-0.1,0.097s-0.096,0-0.096,0.097
	c-0.097,0-0.193,0.099-0.289,0.099c-0.099,0-0.193,0.098-0.289,0.098c-0.095,0.095-0.095,0.095-0.191,0.095
	c-0.099,0-0.099,0-0.191,0.096c-0.096,0-0.096,0.097-0.193,0.097c-0.096,0-0.191,0-0.289,0H51.01c-0.099,0-0.099,0-0.192,0
	c-0.192,0-0.481,0.099-0.675,0.099c-0.096,0-0.192,0.098-0.192,0.098c-0.577,0-1.156,0-1.734,0c-0.096,0-0.096-0.098-0.288-0.098
	c-0.1,0-0.289-0.099-0.482-0.099c-0.099,0-0.099,0-0.191,0c0-0.097,0-0.097-0.097-0.097c0-0.096-0.1-0.096-0.1-0.096V18.46
	c-0.096,0-0.096-0.097-0.096-0.097c-0.1,0-0.1-0.096-0.289-0.096c0-0.099,0-0.099-0.099-0.099c-0.097,0-0.097-0.099-0.097-0.099
	l-0.094-0.094v0.098c0,0.097,0,0.097,0,0.097s-0.096,0-0.096,0.097v0.099v0.098c0,0.099,0,0.099,0,0.099s-0.097,0-0.097,0.097v0.092
	h-0.097c0,0.097,0,0.097,0,0.097v0.096v0.098l0,0c0,0.096,0,0.096,0,0.096l-0.097,0.098v0.097v0.097v0.096c0,0.098,0,0.098,0,0.098
	v0.098l-0.098,0.096v0.096c0,0.1,0,0.1,0,0.1v0.098v0.096c0,0.096,0,0.096,0,0.096c0,0.098,0,0.098,0,0.098v0.095l-0.096,0.096
	v0.099v0.096v0.096c0,0-0.097,0-0.097,0.1v0.098v0.096c0,0.096,0,0.096,0,0.096v0.096v0.097v0.097c0,0.096,0,0.096,0,0.096v0.098
	v0.096v0.098c0,0.096,0,0.096,0,0.096l-0.098,0.098v0.096v0.097v0.097v0.098v0.191v0.098v0.097v0.096L45.515,23.1v0.098v0.096
	c0,0.1,0,0.1,0,0.1v0.096v0.098c0,0.096,0,0.096,0,0.096v0.096v0.096l0,0c0,0.098,0,0.098,0,0.098v0.096v0.097v0.097v0.098v0.096
	v0.097v0.097v0.097v0.097v0.096v0.099v0.096c0,0.097,0,0.097,0,0.097v0.097v0.097l0,0c0,0.098,0,0.098,0,0.098v0.096v0.097l0,0
	c0,0.099,0,0.099,0,0.099v0.098v0.096V26.1v0.096c0,0.099,0,0.099,0,0.099v0.097v0.096v0.094c0,0.096,0,0.096,0,0.096v0.098v0.097
	l0,0c0,0.097,0,0.097,0,0.097v0.098v0.099l0,0c0,0.099,0,0.099,0,0.099v0.284v0.097v0.096v0.097c0,0.099,0,0.099,0,0.099v0.098
	v0.098l0,0c0,0.098,0,0.098,0,0.098v0.098v0.092l0,0c0,0.096,0,0.096,0,0.096v0.098v0.097v0.097v0.096v0.098l-0.097,0.096
	l-0.098,0.098c-0.096,0-0.096,0-0.191,0l0,0c0,0.096,0,0.096,0,0.096v0.098v0.096l0,0c0,0.097,0,0.097,0,0.097v0.097v0.098v0.097
	c-2.312,0-4.719,0-7.034,0l0,0V29.73v-0.098v-0.097v-0.097v-0.096c0-0.1,0-0.1,0-0.1v0.195v-0.097l0,0c-0.289,0-0.578,0-0.771,0
	h-0.098c-0.096,0-0.096,0-0.189,0c-0.1,0-0.193,0-0.193,0c-0.099,0-0.099,0-0.099,0c-0.097,0-0.097,0-0.19,0
	c-0.099,0-0.193,0-0.193,0c-0.099,0-0.192,0-0.192,0c-0.099-0.098-0.099-0.098-0.099-0.098l-0.097-0.097v-0.096l0,0
	c0-0.097,0-0.097,0-0.097l-0.096-0.097l-0.098-0.098l0,0c0-0.096,0-0.096,0-0.096v-0.098v-0.096v-0.097v-0.097
	c0-0.098,0-0.098,0-0.098v-0.097v-0.097l0,0c0-0.096,0-0.096,0-0.096v-0.098v-0.096l0,0c0-0.098,0-0.098,0-0.098v-0.096v-0.097
	v-0.097v-0.097c0-0.097,0-0.097,0-0.097v-0.09v-0.098V26.84c0-0.097,0-0.097,0-0.097v-0.097V26.55l0,0c0-0.096,0-0.096,0-0.096
	v-0.099V26.26l0,0c0-0.097,0-0.097,0-0.097v-0.578v-0.097v-0.096v-0.098c0-0.098,0-0.098,0-0.098V25.1v-0.098v-0.094
	c0-0.096,0-0.096,0-0.096v-0.092v-0.097l0,0c0-0.097,0-0.097,0-0.097V24.43v-0.096v-0.098v-0.096v-0.097v-0.097V23.85v-0.097
	c0-0.097,0-0.097,0-0.097v-0.096v-0.098v-0.096c0.098-0.098,0.098-0.098,0.098-0.098v-0.096v-0.097V22.98c0-0.097,0-0.097,0-0.097
	v-0.097v-0.098v-0.096l0.096-0.099v-0.097v-0.098v-0.096v-0.096v-0.096v-0.097V21.82v-0.096c0-0.098,0-0.098,0-0.098V21.54v-0.097
	c0.097-0.098,0.097-0.098,0.097-0.098V21.25l0.097-0.096l0,0c0-0.1,0-0.1,0-0.1V20.96v-0.097V20.77v-0.096v-0.098V20.48v-0.098
	v-0.096v-0.098v-0.097l0.096-0.096l0.097-0.099c0-0.096,0-0.096,0-0.096V19.71v-0.097l0,0c0-0.098,0-0.098,0-0.098l0.097-0.097
	V19.32h0.097c0-0.098,0.096-0.098,0.096-0.098v-0.094v-0.096v-0.098V18.84c0-0.097,0-0.097,0-0.097s0.097,0,0.097-0.099v-0.098
	v-0.096c0-0.098,0.099-0.098,0.099-0.098s0.096,0,0.096-0.096v-0.095l0,0c0-0.097,0-0.097,0-0.097l0.098-0.098l0.096-0.097l0,0
	c0-0.097,0-0.097,0-0.097V17.68v-0.09l0.096-0.097v-0.099c0-0.099,0-0.099,0-0.099v-0.382v-0.096v-0.098c0-0.097,0-0.097,0-0.097
	l0,0v-0.097l0,0c0-0.096,0-0.096,0-0.096v-0.097V16.24v-0.096v-0.097V15.95v-0.096v-0.096l-0.096-0.096c0-0.096,0-0.096,0-0.096
	l-0.096-0.097l-0.1-0.096l0,0c0-0.097,0-0.097,0-0.097l-0.096-0.096l-0.097-0.097l0,0c0-0.096,0-0.096,0-0.096l-0.097-0.097v-0.096
	v-0.096l-0.096-0.097c-0.097-0.096-0.097-0.096-0.097-0.096h-6.648c-1.544,0-3.083,0-4.628,0l-0.096,0.096h-0.097
	c-0.099,0-0.099,0-0.099,0c-0.096,0-0.096,0-0.193,0c-0.096,0-0.096,0-0.189,0c-0.099,0-0.099-0.096-0.193-0.096
	c0-0.097-0.099-0.097-0.099-0.097s-0.096,0-0.096-0.096v-0.096l0,0h-0.098c0-0.096,0-0.096,0-0.096l-0.092-0.097v-0.096V13.83
	c0-0.096,0-0.096,0-0.096v-0.097v-0.096v-0.097V13.35v-0.096v-0.097v-0.096v-0.097v-0.096v-0.096v-0.096v-0.097
	c0-0.096,0-0.096,0-0.096v-0.097V12.29v-0.193c0-0.097,0-0.097,0-0.097v-0.096v-0.096c0-0.097,0-0.097,0-0.097v-0.096v-0.097v-0.096
	v-0.096V11.23v-0.097v-0.096V10.94v-0.096v-0.097v-0.096l0,0c-0.193,0-0.289,0-0.482,0c-0.096,0-0.192,0-0.192,0
	c-0.096,0-0.19-0.097-0.289-0.097l-0.096-0.096h-0.098c-0.096,0-0.189-0.096-0.189-0.096l-0.1-0.097c0,0-0.096,0-0.096-0.096v-0.097
	l0,0H3.991v0.771v0.096l0,0v0.482l0,0l0,0v0.096L3.22,19.42l0,0v0.098l0,0L2.836,20.77l-1.253,0.097v-13.2H1.68h0.193l0,0h0.096
	l0.096,0.097l0.098,0.096v0.097h1.927h0.096l0,0h0.098h18.596c0.289,0,0.481,0,0.675,0c0.672,0,1.347,0,2.023,0h0.096
	c0.099,0,0.099,0,0.193,0l0,0V7.858V7.665V7.568V7.473V7.376c0-0.096,0-0.096,0-0.096V7.183V7.087l0,0c0-0.096,0-0.096,0-0.096
	V6.895V6.798l0,0c0-0.096,0-0.096,0-0.096V6.509V6.413V6.316V6.22c0-0.097,0-0.097,0-0.097V6.027V5.931l0,0c0-0.096,0-0.096,0-0.096
	V5.738V5.642l0,0c0-0.096,0-0.096,0-0.096V5.449V5.353l0,0c0-0.096,0-0.096,0-0.096V4.871V4.774V4.678V4.582
	c0-0.097,0-0.097,0-0.097V4.389V4.292V4.196c0-0.096,0-0.096,0-0.096V4.004V3.907l0,0c0-0.096,0-0.096,0-0.096V3.714
	c0.097,0,0.097-0.096,0.097-0.096s0.096,0,0.189,0V3.522l0,0h0.1c0.096,0,0.096,0,0.192,0l0,0c1.734,0,3.469,0,5.201,0V3.425V3.329
	V3.232V3.137V3.04l0,0c0.1,0,0.1,0,0.193,0V2.944V2.655C32.031,2.655,32.031,2.559,32.127,2.559z M49.278,16.818
	c-0.672-0.674-1.06-1.445-1.152-2.313c-0.1,0.096-0.192,0.193-0.292,0.289c-0.385,0.386-0.577,0.771-0.771,1.156l0.1,0.097
	c0.771,0.675,1.542,1.062,2.505,1.156C49.568,17.012,49.471,16.915,49.278,16.818z M53.807,14.892
	c-0.096-0.096-0.096-0.096-0.192-0.192c-0.771-0.771-1.733-1.156-2.791-1.156c-0.387,0-0.868,0.096-1.254,0.193
	c-0.099,0.289-0.099,0.481-0.099,0.771c0,0.963,0.289,1.831,0.964,2.602c0.963-0.098,1.733-0.481,2.507-1.156
	C53.229,15.663,53.518,15.277,53.807,14.892z M36.078,28.285C36.078,28.188,36.078,28.188,36.078,28.285L36.078,28.285
	C36.078,28.188,36.078,28.285,36.078,28.285L36.078,28.285z"/>
<g>
	<g>
		<defs>
			<path id="SVGID_3_" d="M32.127,2.559l0.097-0.097V2.366V2.269V2.173l0,0c0.19,0,0.289,0,0.482,0v0.096c0.189,0,0.289,0,0.48,0
				v0.097h0.097v0.096c0.096,0,0.096,0,0.096,0v0.097c0,0,0.099,0,0.099,0.096l0.097,0.096c0.097,0,0.097,0.096,0.097,0.096
				c0.096,0,0.096,0.097,0.096,0.097l0,0c0.096,0,0.193,0.096,0.289,0.096v0.097h0.095v0.096c10.019,0,19.943,0,29.967,0
				c0.287,0.193,0.386,0.193,0.386,0.193l0.096,0.097l0.096,0.097v0.096v0.097v0.096l0,0l0,0c0,0.097,0.098,0.097,0.098,0.097
				s0.192,0.481,0.384,1.445c0.291,0.963,0.481,1.445,0.773,1.445H67.2l0.289-0.097h0.288l0,0h1.156h0.289l0.289,0.097h1.734
				l0.191,0.096l0.098,0.096h0.48v3.854v0.097v0.096l-0.191,0.193h-0.289h-0.192l0,0h-3.565l1.544,3.565c0,0.097,0,0.097,0,0.097
				v0.096v0.097l0,0c0,0.096,0,0.096,0,0.096v0.097v0.096v0.771c0,0-0.58,0-1.639,0c-0.099,0-0.58-0.963-1.544-2.89
				c-0.383,0-0.864,0.096-1.252,0.096c-0.097,0-0.193,0-0.193,0c-0.096,0-0.188,0-0.188,0h-0.101v0.097c0,0.096,0,0.096,0,0.096
				c0,0.097,0,0.097,0,0.097v0.096v0.097c0,0.096,0,0.096,0,0.096v0.097v0.096l0,0c0,0.096,0,0.096,0,0.096v0.096v0.097v0.096v0.097
				v0.096v0.096v0.097v0.096c0,0.097,0,0.097,0,0.097v0.096v0.097l0,0c0,0.096,0,0.096,0,0.096v0.097v0.096l0,0
				c0,0.096,0,0.096,0,0.096v0.096v0.096l0,0c0,0.097,0,0.097,0,0.097l0,0v0.097v0.096l0.101,0.097c0,0.097,0,0.097,0,0.097v0.096
				v0.097l0,0c0,0.097,0,0.097,0,0.097v0.098v0.096l0,0c0,0.096,0,0.096,0,0.096v0.099v0.096v0.097l0.096,0.098
				c0,0.096,0,0.096,0,0.096V17.6v0.096v0.098c0,0.096,0,0.096,0,0.096v0.096v0.098l0,0c0,0.098,0,0.098,0,0.098v0.096v0.097l0,0
				c0,0.097,0,0.097,0,0.097v0.098v0.096v0.097v0.097c0,0.097,0,0.097,0,0.097v0.097v0.096v0.099c0,0.096,0,0.096,0,0.096v0.097
				v0.097v0.097c0,0.098,0.096,0.098,0.096,0.098v0.096v0.096v0.098v0.096v0.098c0,0,0,0,0,0.098v0.096v0.097
				c0,0.097,0,0.097,0,0.097s0,0,0,0.098v0.096l0.098,0.096c0,0.1,0,0.1,0,0.1v0.099v0.097v0.096c0,0.097,0,0.097,0,0.097
				l0.097,0.101v0.098v0.097v0.089l0.1,0.096c0,0,0,0,0,0.1v0.099v0.097v0.097v0.096v0.093c0,0.098,0.096,0.098,0.096,0.098
				c0,0.097,0,0.097,0,0.097v0.097v0.096c0,0.1,0.096,0.1,0.096,0.1v0.1v0.096l0,0c0,0.096,0,0.096,0,0.096l0.101,0.098v0.092v0.098
				v0.098v0.096l0.096,0.096v0.097v0.099v0.096v0.098v0.098v0.095c0,0.097,0,0.097,0,0.097v0.096v0.098l0,0
				c0,0.096,0.099,0.096,0.099,0.096v0.098v0.096l0,0c0,0.098,0,0.098,0,0.098v0.098v0.098v0.094v0.098c0,0.096,0,0.096,0,0.096
				v0.097v0.097v0.098c0,0.097,0,0.097,0,0.097v0.097v0.098l0,0c0,0.099,0,0.099,0,0.099v0.093v0.098l0,0c0,0.097,0,0.097,0,0.097
				v1.06v0.096v0.098v0.096c0,0.098,0,0.098,0,0.098l0,0v0.099l0,0c0,0.099-0.099,0.099-0.099,0.099c0,0.096,0,0.096,0,0.096v0.099
				l0,0c-0.096,0-0.193,0.097-0.289,0.097s-0.192,0-0.192,0c-0.103-0.005-0.103,0.092-0.103,0.092s-0.1,0-0.192,0s-0.096,0-0.192,0
				l-0.097,0.097c-0.099,0-0.099,0-0.191,0c-0.096,0-0.289,0-0.387,0h-0.097c-0.096,0-0.096,0-0.192,0c-0.192,0-0.383,0-0.481,0
				c-0.096,0-0.096,0.097-0.192,0.097c-0.48,0-0.964,0-1.347,0l-0.099,0.096c-0.097,0-0.097,0-0.19,0
				c-0.292,0-0.58,0.098-0.773,0.098h-0.096c0.771,0.482,0.675,0.578,0.675,0.578c-0.099,0-0.192-0.096-0.192-0.096
				c-0.097,0-0.097,0-0.097,0l0,0c-0.099,0-0.192,0-0.192,0c-0.098-0.099-0.098-0.099-0.192-0.099l-0.096-0.097l-0.098-0.096l0,0
				c0-0.097,0-0.097,0-0.097v-0.097v-0.098h-0.097c0-0.096,0-0.096,0-0.096v-0.098l-0.097-0.096l-0.096-0.097v-0.097
				c0-0.098,0-0.098,0-0.098V28.13v-0.096l0,0c0-0.097-0.098-0.097-0.098-0.097l-0.097-0.098v-0.096l0,0c0-0.098,0-0.098,0-0.098
				c0-0.098-0.096-0.098-0.096-0.098V27.45v-0.093v-0.096c0-0.098,0-0.098,0-0.098v-0.135v-0.098V26.84c0-0.097,0-0.097,0-0.097
				v-0.097l-0.099-0.097h-0.096v-0.096l-0.096-0.099V26.26l0,0c0-0.097,0-0.097,0-0.097v-0.578v-0.097v-0.096v-0.098
				c0-0.098,0-0.098,0-0.098V25.1v-0.098v-0.094c0-0.096,0-0.096,0-0.096l-0.098-0.098v-0.096l0,0c0-0.098,0-0.098,0-0.098v-0.097
				v-0.096v-0.097v-0.098v-0.096v-0.098v-0.096v-0.098c0-0.096,0-0.096,0-0.096v-0.096v-0.099v-0.097c0-0.096,0-0.096,0-0.096
				v-0.099v-0.099v-0.094c0-0.096,0-0.096,0-0.096v-0.098v-0.096v-0.097v-0.097v-0.098v-0.097v-0.096l-0.097-0.097v-0.098v-0.096
				v-0.098v-0.096c0-0.097,0-0.097,0-0.097V21.54v-0.097c0-0.098,0-0.098,0-0.098v-0.098V21.15l0,0c0-0.098,0-0.098,0-0.098v-0.097
				v-0.093V20.77v-0.096v-0.098l-0.097-0.096v-0.098v-0.096v-0.098v-0.097v-0.096v-0.099c0-0.096,0-0.096,0-0.096V19.71v-0.097l0,0
				c0-0.098,0-0.098,0-0.098V19.42v-0.096l0,0c0-0.096,0-0.096,0-0.096V19.13v-0.096v-0.097v-0.097c0-0.097,0-0.097,0-0.097
				s-0.097,0-0.097-0.1v-0.097v-0.096c0-0.097,0-0.097,0-0.097v-0.097v-0.095l0,0c0-0.098,0-0.098,0-0.098v-0.096v-0.097l0,0
				c0-0.097,0-0.097,0-0.097V17.68v-0.09v-0.097v-0.097c0-0.097,0-0.097,0-0.097v-0.386v-0.096v-0.098c0-0.097,0-0.097,0-0.097
				h-0.096v-0.097l0,0c0-0.096,0-0.096,0-0.096v-0.097c-0.1,0-0.1-0.097-0.1-0.097h-0.097c0-0.096,0-0.096,0-0.096v-0.097v-0.097
				l0,0l-0.097-0.096h-0.096c-0.098,0-0.193-0.096-0.289-0.096c0,0-0.1,0-0.1-0.096l0,0H57.85c-0.097,0-0.191,0-0.288,0h-0.098
				h-0.096c-0.098,0-0.098,0-0.289,0c-0.1,0-0.1,0-0.29,0c-0.099,0-0.099,0-0.191,0c0,0.096,0,0.096,0,0.096
				c-0.099,0-0.099,0.096-0.193,0.096c-0.094,0-0.092,0.096-0.188,0.096l0,0c0,0.097,0,0.097,0,0.097
				c-0.097,0.097-0.097,0.097-0.097,0.097l-0.098,0.096c-0.096,0-0.096,0.097-0.096,0.097c-0.096,0-0.096,0.097-0.096,0.097v0.096
				c-0.099,0-0.099,0.097-0.099,0.097l-0.096,0.097l-0.097,0.098v0.096c-0.097,0-0.097,0-0.19,0.096l-0.099,0.098h-0.097
				c0,0.097,0,0.097,0,0.097c-0.098,0-0.098,0.097-0.098,0.097l-0.096,0.098h-0.096c-0.1,0.096-0.1,0.096-0.193,0.096
				c0,0.097-0.097,0.097-0.097,0.097l-0.097,0.097c-0.096,0-0.096,0.098-0.096,0.098l-0.098,0.096c0,0.096-0.097,0.096-0.097,0.096
				l-0.867-0.096l-0.097,0.096c-0.099,0-0.191,0-0.288,0c-0.098,0-0.098,0.098-0.192,0.098c0,0.097-0.1,0.097-0.1,0.097
				s-0.096,0-0.096,0.097c-0.097,0-0.193,0.099-0.289,0.099c-0.099,0-0.193,0.098-0.289,0.098c-0.095,0.095-0.095,0.095-0.191,0.095
				c-0.099,0-0.099,0-0.191,0.096c-0.096,0-0.096,0.097-0.193,0.097c-0.096,0-0.191,0-0.289,0H51.01c-0.099,0-0.099,0-0.192,0
				c-0.192,0-0.481,0.099-0.675,0.099c-0.096,0-0.192,0.098-0.192,0.098c-0.577,0-1.156,0-1.734,0c-0.096,0-0.096-0.098-0.288-0.098
				c-0.1,0-0.289-0.099-0.482-0.099c-0.099,0-0.099,0-0.191,0c0-0.097,0-0.097-0.097-0.097c0-0.096-0.1-0.096-0.1-0.096V18.46
				c-0.096,0-0.096-0.097-0.096-0.097c-0.1,0-0.1-0.096-0.289-0.096c0-0.099,0-0.099-0.099-0.099c-0.097,0-0.097-0.099-0.097-0.099
				l-0.094-0.094v0.098c0,0.097,0,0.097,0,0.097s-0.096,0-0.096,0.097v0.099v0.098c0,0.099,0,0.099,0,0.099s-0.097,0-0.097,0.097
				v0.092h-0.097c0,0.097,0,0.097,0,0.097v0.096v0.098l0,0c0,0.096,0,0.096,0,0.096l-0.097,0.098v0.097v0.097v0.096
				c0,0.098,0,0.098,0,0.098v0.098l-0.098,0.096v0.096c0,0.1,0,0.1,0,0.1v0.098v0.096c0,0.096,0,0.096,0,0.096
				c0,0.098,0,0.098,0,0.098v0.095l-0.096,0.096v0.099v0.096v0.096c0,0-0.097,0-0.097,0.1v0.098v0.096c0,0.096,0,0.096,0,0.096
				v0.096v0.097v0.097c0,0.096,0,0.096,0,0.096v0.098v0.096v0.098c0,0.096,0,0.096,0,0.096l-0.098,0.098v0.096v0.097v0.097v0.098
				v0.191v0.098v0.097v0.096L45.515,23.1v0.098v0.096c0,0.1,0,0.1,0,0.1v0.096v0.098c0,0.096,0,0.096,0,0.096v0.096v0.096l0,0
				c0,0.098,0,0.098,0,0.098v0.096v0.097v0.097v0.098v0.096v0.097v0.097v0.097v0.097v0.096v0.099v0.096c0,0.097,0,0.097,0,0.097
				v0.097v0.097l0,0c0,0.098,0,0.098,0,0.098v0.096v0.097l0,0c0,0.099,0,0.099,0,0.099v0.098v0.096V26.1v0.096
				c0,0.099,0,0.099,0,0.099v0.097v0.096v0.094c0,0.096,0,0.096,0,0.096v0.098v0.097l0,0c0,0.097,0,0.097,0,0.097v0.098v0.099l0,0
				c0,0.099,0,0.099,0,0.099v0.284v0.097v0.096v0.097c0,0.099,0,0.099,0,0.099v0.098v0.098l0,0c0,0.098,0,0.098,0,0.098v0.098v0.092
				l0,0c0,0.096,0,0.096,0,0.096v0.098v0.097v0.097v0.096v0.098l-0.097,0.096l-0.098,0.098c-0.096,0-0.096,0-0.191,0l0,0
				c0,0.096,0,0.096,0,0.096v0.098v0.096l0,0c0,0.097,0,0.097,0,0.097v0.097v0.098v0.097c-2.312,0-4.719,0-7.034,0l0,0V29.73v-0.098
				v-0.097v-0.097v-0.096c0-0.1,0-0.1,0-0.1v0.195v-0.097l0,0c-0.289,0-0.578,0-0.771,0h-0.098c-0.096,0-0.096,0-0.189,0
				c-0.1,0-0.193,0-0.193,0c-0.099,0-0.099,0-0.099,0c-0.097,0-0.097,0-0.19,0c-0.099,0-0.193,0-0.193,0c-0.099,0-0.192,0-0.192,0
				c-0.099-0.098-0.099-0.098-0.099-0.098l-0.097-0.097v-0.096l0,0c0-0.097,0-0.097,0-0.097l-0.096-0.097l-0.098-0.098l0,0
				c0-0.096,0-0.096,0-0.096v-0.098v-0.096v-0.097v-0.097c0-0.098,0-0.098,0-0.098v-0.097v-0.097l0,0c0-0.096,0-0.096,0-0.096
				v-0.098v-0.096l0,0c0-0.098,0-0.098,0-0.098v-0.096v-0.097v-0.097v-0.097c0-0.097,0-0.097,0-0.097v-0.09v-0.098V26.84
				c0-0.097,0-0.097,0-0.097v-0.097V26.55l0,0c0-0.096,0-0.096,0-0.096v-0.099V26.26l0,0c0-0.097,0-0.097,0-0.097v-0.578v-0.097
				v-0.096v-0.098c0-0.098,0-0.098,0-0.098V25.1v-0.098v-0.094c0-0.096,0-0.096,0-0.096v-0.092v-0.097l0,0c0-0.097,0-0.097,0-0.097
				V24.43v-0.096v-0.098v-0.096v-0.097v-0.097V23.85v-0.097c0-0.097,0-0.097,0-0.097v-0.096v-0.098v-0.096
				c0.098-0.098,0.098-0.098,0.098-0.098v-0.096v-0.097V22.98c0-0.097,0-0.097,0-0.097v-0.097v-0.098v-0.096l0.096-0.099v-0.097
				v-0.098v-0.096v-0.096v-0.096v-0.097V21.82v-0.096c0-0.098,0-0.098,0-0.098V21.54v-0.097c0.097-0.098,0.097-0.098,0.097-0.098
				V21.25l0.097-0.096l0,0c0-0.1,0-0.1,0-0.1V20.96v-0.097V20.77v-0.096v-0.098V20.48v-0.098v-0.096v-0.098v-0.097l0.096-0.096
				l0.097-0.099c0-0.096,0-0.096,0-0.096V19.71v-0.097l0,0c0-0.098,0-0.098,0-0.098l0.097-0.097V19.32h0.097
				c0-0.098,0.096-0.098,0.096-0.098v-0.094v-0.096v-0.098V18.84c0-0.097,0-0.097,0-0.097s0.097,0,0.097-0.099v-0.098v-0.096
				c0-0.098,0.099-0.098,0.099-0.098s0.096,0,0.096-0.096v-0.095l0,0c0-0.097,0-0.097,0-0.097l0.098-0.098l0.096-0.097l0,0
				c0-0.097,0-0.097,0-0.097V17.68v-0.09l0.096-0.097v-0.099c0-0.099,0-0.099,0-0.099v-0.382v-0.096v-0.098c0-0.097,0-0.097,0-0.097
				l0,0v-0.097l0,0c0-0.096,0-0.096,0-0.096v-0.097V16.24v-0.096v-0.097V15.95v-0.096v-0.096l-0.096-0.096c0-0.096,0-0.096,0-0.096
				l-0.096-0.097l-0.1-0.096l0,0c0-0.097,0-0.097,0-0.097l-0.096-0.096l-0.097-0.097l0,0c0-0.096,0-0.096,0-0.096l-0.097-0.097
				v-0.096v-0.096l-0.096-0.097c-0.097-0.096-0.097-0.096-0.097-0.096h-6.648c-1.544,0-3.083,0-4.628,0l-0.096,0.096h-0.097
				c-0.099,0-0.099,0-0.099,0c-0.096,0-0.096,0-0.193,0c-0.096,0-0.096,0-0.189,0c-0.099,0-0.099-0.096-0.193-0.096
				c0-0.097-0.099-0.097-0.099-0.097s-0.096,0-0.096-0.096v-0.096l0,0h-0.098c0-0.096,0-0.096,0-0.096l-0.092-0.097v-0.096V13.83
				c0-0.096,0-0.096,0-0.096v-0.097v-0.096v-0.097V13.35v-0.096v-0.097v-0.096v-0.097v-0.096v-0.096v-0.096v-0.097
				c0-0.096,0-0.096,0-0.096v-0.097V12.29v-0.193c0-0.097,0-0.097,0-0.097v-0.096v-0.096c0-0.097,0-0.097,0-0.097v-0.096v-0.097
				v-0.096v-0.096V11.23v-0.097v-0.096V10.94v-0.096v-0.097v-0.096l0,0c-0.193,0-0.289,0-0.482,0c-0.096,0-0.192,0-0.192,0
				c-0.096,0-0.19-0.097-0.289-0.097l-0.096-0.096h-0.098c-0.096,0-0.189-0.096-0.189-0.096l-0.1-0.097c0,0-0.096,0-0.096-0.096
				v-0.097l0,0H3.991v0.771v0.096l0,0v0.482l0,0l0,0v0.096L3.22,19.42l0,0v0.098l0,0L2.836,20.77l-1.253,0.097v-13.2H1.68h0.193l0,0
				h0.096l0.096,0.097l0.098,0.096v0.097h1.927h0.096l0,0h0.098h18.596c0.289,0,0.481,0,0.675,0c0.672,0,1.347,0,2.023,0h0.096
				c0.099,0,0.099,0,0.193,0l0,0V7.858V7.665V7.568V7.473V7.376c0-0.096,0-0.096,0-0.096V7.183V7.087l0,0c0-0.096,0-0.096,0-0.096
				V6.895V6.798l0,0c0-0.096,0-0.096,0-0.096V6.509V6.413V6.316V6.22c0-0.097,0-0.097,0-0.097V6.027V5.931l0,0
				c0-0.096,0-0.096,0-0.096V5.738V5.642l0,0c0-0.096,0-0.096,0-0.096V5.449V5.353l0,0c0-0.096,0-0.096,0-0.096V4.871V4.774V4.678
				V4.582c0-0.097,0-0.097,0-0.097V4.389V4.292V4.196c0-0.096,0-0.096,0-0.096V4.004V3.907l0,0c0-0.096,0-0.096,0-0.096V3.714
				c0.097,0,0.097-0.096,0.097-0.096s0.096,0,0.189,0V3.522l0,0h0.1c0.096,0,0.096,0,0.192,0l0,0c1.734,0,3.469,0,5.201,0V3.425
				V3.329V3.232V3.137V3.04l0,0c0.1,0,0.1,0,0.193,0V2.944V2.655C32.031,2.655,32.031,2.559,32.127,2.559z M49.278,16.818
				c-0.672-0.674-1.06-1.445-1.152-2.313c-0.1,0.096-0.192,0.193-0.292,0.289c-0.385,0.386-0.577,0.771-0.771,1.156l0.1,0.097
				c0.771,0.675,1.542,1.062,2.505,1.156C49.568,17.012,49.471,16.915,49.278,16.818z M53.807,14.892
				c-0.096-0.096-0.096-0.096-0.192-0.192c-0.771-0.771-1.733-1.156-2.791-1.156c-0.387,0-0.868,0.096-1.254,0.193
				c-0.099,0.289-0.099,0.481-0.099,0.771c0,0.963,0.289,1.831,0.964,2.602c0.963-0.098,1.733-0.481,2.507-1.156
				C53.229,15.663,53.518,15.277,53.807,14.892z M36.078,28.285C36.078,28.188,36.078,28.188,36.078,28.285L36.078,28.285
				C36.078,28.188,36.078,28.285,36.078,28.285L36.078,28.285z"/>
		</defs>
		<clipPath id="SVGID_4_">
			<use xlink:href="#SVGID_3_"  overflow="visible"/>
		</clipPath>
		<g clip-path="url(#SVGID_4_)">
			<polygon fill="#148193" points="44.891,32.214 34.932,31.242 38.615,4.838 44.481,11.552 48.095,12.121 			"/>
			<polygon fill="#E08300" stroke="#DDBE26" stroke-miterlimit="10" points="32.557,16 47.312,17.217 46.733,22.895 31.978,21.678 
							"/>
			<polygon fill="#E08300" stroke="#DDBE26" stroke-miterlimit="10" points="33.289,24.118 48.044,25.334 47.465,31.012 
				32.709,29.794 			"/>
			
				<linearGradient id="SVGID_5_" gradientUnits="userSpaceOnUse" x1="742.9602" y1="573.1602" x2="790.9749" y2="573.1602" gradientTransform="matrix(1 0 0 1 -741.9199 -562.1992)">
				<stop  offset="5.581969e-004" style="stop-color:#FF9500"/>
				<stop  offset="1" style="stop-color:#EFB941"/>
			</linearGradient>
			<path fill="url(#SVGID_5_)" d="M1.198,6.078h15.853l5.605-0.405l0.425-3.904L32.397,0l5.18,0.369c0,0,10.048,1.963,11.479,4.167
				c0,0-2.371,1.354-3.227,3.413c-0.854,2.057-2.074,3.508-4.029,3.924c-1.957,0.414-3.572-1.769-5.279-0.76
				c-1.708,1.007-4.358,3.121-5.563,3.992s-4.263,2.749-5.291,4.238c-1.029,1.496-2.393,3.068-3.668,2.435
				c-1.275-0.635-2.972-1.729-2.972-1.729l-5.855,0.154l-5.653,0.11l-5.551,0.896L1.04,19.887L1.198,6.078z"/>
			<path fill="#300093" d="M6.859,10.007c0,0-4.964,0.054-5.466,4.273c-0.648,5.438,5.175,3.462,5.175,3.462
				S4.437,14.124,6.859,10.007z"/>
			<path fill="#5D29FF" d="M7.192,17.359l3.795-1.14c0,0-1.292-2.849,1.705-4.694c2.465-1.519,5.286,0.413,5.286,0.413l2.048-2.596
				c0,0-6.928-4.021-11.667,0.193C4.994,12.525,7.192,17.359,7.192,17.359z"/>
			<path fill="#4383FF" d="M23.448,7.257c0,0-2.455,1.178-3.423,1.178c-0.966,0,1.007,0.737,1.007,0.737l-2.199,2.772l0.83,1.847
				l5.31,0.18l0.213-7.395L23.448,7.257z"/>
			<path fill="#8600EE" d="M32.912,6.097c0,0-2.203-1.308-4.813,0.11c-2.608,1.418-2.913,6.893,1.628,7.394
				c3.897,0.433,4.667-4.348,2.444-5.011c-2.223-0.662-2.348,1.606-2.097,1.846h-0.601c0,0-0.899-2.764,2.16-2.736
				c3.044,0.027,2.324,3.877,2.324,3.877s1.458-2.412,3.299-2.275c2.081,0.157,1.707,1.13,3.045,1.395
				c1.392,0.277,3.405,0.235,4.042-2.708c0.346-1.592,2.48-2.667,2.48-2.667s-2.696-0.926-4.247,1.284
				c-1.417,2.019-2.445,0.725-3.275-0.179c-1.219-1.326-2.624-1.741-4.826-1.34C33.761,5.218,32.912,6.097,32.912,6.097z"/>
			<ellipse fill="#00A625" cx="15.026" cy="14.991" rx="3.64" ry="3.466"/>
			<path fill="#A20063" d="M37.439,2.649c0,0,1.358-0.531,4.156,0.145c2.797,0.678,4.042,1.616,4.042,1.616s-2.623-0.082-3.26,1.105
				c-0.641,1.188-1.247,1.243-1.855,0.969c-0.609-0.277-1.317-1.686-3.275-1.949c-1.767-0.236,0.101-1.423,0.101-1.423L37.439,2.649
				z"/>
			<path fill="#F58800" d="M24.288,3.305c0.043,0.014,1.651,3.579,1.651,3.579l3.479-1.865l-0.739-3.011L24.288,3.305z"/>
			<polygon fill="#5CFF16" points="29.071,2.008 29.97,4.94 32.521,5.323 32.709,1.594 			"/>
			<path fill="#646BFF" d="M37.029,1.772c0,0-1.145,2.252-1.158,2.672c0,0-2.134-0.153-2.813,0.629l0.088-3.647L37.029,1.772z"/>
		</g>
	</g>
</g>
<g>
	<path fill="#F3FFFE" d="M44.255,24.268l-1.192,2.568h-2.476l5.686-11.281h2.752l1.65,11.281H48.29l-0.276-2.568H44.255z
		 M47.281,17.939l-1.926,4.127h2.385L47.281,17.939z"/>
	<path fill="#F3FFFE" d="M54.16,26.836c-0.642,0-1.192-0.184-1.559-0.643c-0.365-0.459-0.459-1.009-0.365-1.649l1.282-6.972
		c0.094-0.642,0.366-1.192,0.917-1.559c0.459-0.367,1.011-0.55,1.742-0.55h3.668c0.643,0,1.192,0.184,1.56,0.642
		c0.365,0.459,0.459,1.009,0.365,1.65l-0.276,1.743H59.11l0.275-1.468c0-0.184,0-0.275,0-0.367
		c-0.093-0.092-0.184-0.092-0.365-0.092h-2.476c-0.366,0-0.642,0.184-0.734,0.643l-1.1,6.053c0,0.184,0,0.276,0,0.367
		c0.092,0.092,0.183,0.092,0.366,0.092h2.476c0.366,0,0.642-0.183,0.734-0.642l0.183-1.284h2.385l-0.458,1.928
		c-0.093,0.642-0.365,1.192-0.918,1.559c-0.458,0.365-1.009,0.551-1.741,0.551L54.16,26.836L54.16,26.836z"/>
	<path fill="#F3FFFE" d="M71.493,15.555l-0.367,2.109H65.9l-0.458,2.294h4.22l-0.365,2.108h-4.221l-0.458,2.568h5.227l-0.366,2.111
		h-7.519l2.016-11.189L71.493,15.555L71.493,15.555z"/>
</g>
</svg>
