<?xml version="1.0" encoding="utf-8"?>
<!-- Generator: Adobe Illustrator 16.0.0, SVG Export Plug-In . SVG Version: 6.00 Build 0)  -->
<!DOCTYPE svg PUBLIC "-//W3C//DTD SVG 1.0//EN" "http://www.w3.org/TR/2001/REC-SVG-20010904/DTD/svg10.dtd">
<svg version="1.0" id="图层_1" xmlns="http://www.w3.org/2000/svg" xmlns:xlink="http://www.w3.org/1999/xlink" x="0px" y="0px"
	 width="73.6px" height="32px" viewBox="0 0 73.6 32" enable-background="new 0 0 73.6 32" xml:space="preserve">
<linearGradient id="SVGID_1_" gradientUnits="userSpaceOnUse" x1="372.4319" y1="-262.5996" x2="442.9465" y2="-262.5996" gradientTransform="matrix(1 0 0 -1 -370.96 -246.5996)">
	<stop  offset="0" style="stop-color:#5782CE"/>
	<stop  offset="0.9898" style="stop-color:#5CAEFF"/>
</linearGradient>
<linearGradient id="SVGID_2_" gradientUnits="userSpaceOnUse" x1="1.2073" y1="16" x2="72.3928" y2="16">
	<stop  offset="0" style="stop-color:#86D4F7"/>
	<stop  offset="1" style="stop-color:#DEF6FF"/>
</linearGradient>
<path fill="url(#SVGID_1_)" stroke="url(#SVGID_2_)" stroke-width="0.75" stroke-miterlimit="10" d="M32.127,2.559l0.097-0.097
	V2.366V2.269V2.173l0,0c0.19,0,0.289,0,0.482,0v0.096c0.19,0,0.289,0,0.481,0v0.097h0.096v0.096c0.096,0,0.096,0,0.096,0v0.097
	c0,0,0.099,0,0.099,0.096l0.096,0.096c0.097,0,0.097,0.096,0.097,0.096c0.096,0,0.096,0.097,0.096,0.097l0,0
	c0.096,0,0.193,0.096,0.289,0.096v0.097h0.095v0.096c10.018,0,19.943,0,29.966,0c0.288,0.193,0.386,0.193,0.386,0.193l0.096,0.097
	l0.096,0.097v0.096v0.097v0.096l0,0l0,0c0,0.097,0.097,0.097,0.097,0.097s0.193,0.481,0.384,1.445
	c0.291,0.963,0.481,1.445,0.773,1.445H67.2l0.289-0.097h0.289l0,0h1.156h0.289l0.289,0.097h1.734l0.192,0.096l0.097,0.096h0.481
	v3.854v0.097v0.096l-0.192,0.193h-0.289h-0.192l0,0h-3.565l1.544,3.565c0,0.097,0,0.097,0,0.097v0.096v0.097l0,0
	c0,0.096,0,0.096,0,0.096v0.097v0.096v0.771c0,0-0.581,0-1.639,0c-0.099,0-0.58-0.963-1.544-2.89c-0.383,0-0.864,0.096-1.252,0.096
	c-0.097,0-0.193,0-0.193,0c-0.096,0-0.189,0-0.189,0h-0.1v0.097c0,0.096,0,0.096,0,0.096c0,0.097,0,0.097,0,0.097v0.096v0.097
	c0,0.096,0,0.096,0,0.096v0.097v0.096l0,0c0,0.096,0,0.096,0,0.096v0.096v0.097v0.096v0.097v0.096v0.096v0.097v0.096
	c0,0.097,0,0.097,0,0.097v0.096v0.097l0,0c0,0.096,0,0.096,0,0.096v0.097v0.096l0,0c0,0.096,0,0.096,0,0.096v0.096v0.096l0,0
	c0,0.097,0,0.097,0,0.097l0,0v0.097v0.096l0.1,0.097c0,0.097,0,0.097,0,0.097v0.096v0.097l0,0c0,0.097,0,0.097,0,0.097v0.097v0.096
	l0,0c0,0.096,0,0.096,0,0.096v0.098v0.096v0.097l0.096,0.097c0,0.096,0,0.096,0,0.096v0.097v0.096v0.098c0,0.096,0,0.096,0,0.096
	v0.096v0.097l0,0c0,0.097,0,0.097,0,0.097v0.097v0.096l0,0c0,0.096,0,0.096,0,0.096v0.098v0.096v0.097v0.097
	c0,0.096,0,0.096,0,0.096v0.097v0.096v0.098c0,0.096,0,0.096,0,0.096v0.096v0.097v0.097c0,0.097,0.096,0.097,0.096,0.097v0.096
	v0.096v0.098v0.096v0.097c0,0,0,0,0,0.097v0.096v0.097c0,0.096,0,0.096,0,0.096s0,0,0,0.098v0.096l0.097,0.096
	c0,0.099,0,0.099,0,0.099v0.099v0.097v0.096c0,0.096,0,0.096,0,0.096l0.097,0.1v0.099v0.096v0.089l0.099,0.096c0,0,0,0,0,0.099
	v0.099v0.096v0.097v0.096v0.093c0,0.098,0.096,0.098,0.096,0.098c0,0.096,0,0.096,0,0.096v0.096v0.097
	c0,0.099,0.096,0.099,0.096,0.099v0.099v0.096l0,0c0,0.096,0,0.096,0,0.096l0.1,0.097v0.093v0.097v0.097v0.096l0.096,0.096v0.097
	v0.098v0.096v0.098v0.098v0.094c0,0.097,0,0.097,0,0.097v0.096v0.097l0,0c0,0.096,0.099,0.096,0.099,0.096v0.097v0.097l0,0
	c0,0.097,0,0.097,0,0.097v0.098v0.098v0.093v0.098c0,0.096,0,0.096,0,0.096v0.096v0.097v0.097c0,0.097,0,0.097,0,0.097v0.096v0.099
	l0,0c0,0.098,0,0.098,0,0.098v0.093v0.097l0,0c0,0.097,0,0.097,0,0.097v1.06v0.096v0.097v0.096c0,0.098,0,0.098,0,0.098l0,0v0.098
	l0,0c0,0.098-0.099,0.098-0.099,0.098c0,0.097,0,0.097,0,0.097v0.098l0,0c-0.096,0-0.193,0.096-0.289,0.096s-0.192,0-0.192,0
	c-0.103-0.004-0.103,0.092-0.103,0.092s-0.099,0-0.192,0s-0.096,0-0.193,0l-0.096,0.097c-0.099,0-0.099,0-0.192,0
	c-0.095,0-0.289,0-0.386,0h-0.097c-0.096,0-0.096,0-0.192,0c-0.193,0-0.383,0-0.482,0c-0.096,0-0.096,0.097-0.192,0.097
	c-0.481,0-0.964,0-1.347,0l-0.099,0.096c-0.096,0-0.096,0-0.19,0c-0.292,0-0.58,0.097-0.773,0.097h-0.096
	c0.771,0.482,0.675,0.578,0.675,0.578c-0.099,0-0.193-0.096-0.193-0.096c-0.096,0-0.096,0-0.096,0l0,0c-0.099,0-0.193,0-0.193,0
	c-0.097-0.098-0.097-0.098-0.192-0.098l-0.096-0.096l-0.098-0.097l0,0c0-0.096,0-0.096,0-0.096v-0.097v-0.097h-0.096
	c0-0.096,0-0.096,0-0.096v-0.097l-0.097-0.097l-0.096-0.096v-0.097c0-0.097,0-0.097,0-0.097v-0.097v-0.096l0,0
	c0-0.096-0.097-0.096-0.097-0.096l-0.097-0.098v-0.096l0,0c0-0.097,0-0.097,0-0.097c0-0.098-0.096-0.098-0.096-0.098v-0.099v-0.093
	v-0.096c0-0.097,0-0.097,0-0.097V27.03v-0.098V26.84c0-0.097,0-0.097,0-0.097v-0.097l-0.098-0.096h-0.096v-0.096l-0.096-0.098
	v-0.096l0,0c0-0.097,0-0.097,0-0.097v-0.578v-0.096v-0.097v-0.097c0-0.097,0-0.097,0-0.097v-0.098v-0.098v-0.094
	c0-0.096,0-0.096,0-0.096l-0.097-0.097v-0.096l0,0c0-0.097,0-0.097,0-0.097v-0.097v-0.096v-0.097v-0.097v-0.096v-0.097v-0.097
	v-0.097c0-0.096,0-0.096,0-0.096v-0.096v-0.098v-0.096c0-0.097,0-0.097,0-0.097v-0.098v-0.099v-0.093c0-0.096,0-0.096,0-0.096
	v-0.097v-0.097v-0.096v-0.097v-0.097v-0.097v-0.096l-0.097-0.096v-0.098v-0.096v-0.097v-0.096c0-0.097,0-0.097,0-0.097V21.54v-0.096
	c0-0.098,0-0.098,0-0.098v-0.098v-0.098l0,0c0-0.097,0-0.097,0-0.097v-0.097v-0.093V20.77v-0.096v-0.098l-0.097-0.096v-0.097v-0.096
	v-0.097v-0.097v-0.096v-0.098c0-0.096,0-0.096,0-0.096V19.71v-0.097l0,0c0-0.097,0-0.097,0-0.097V19.42v-0.096l0,0
	c0-0.096,0-0.096,0-0.096v-0.098v-0.096v-0.097v-0.096c0-0.097,0-0.097,0-0.097s-0.096,0-0.096-0.099v-0.097v-0.096
	c0-0.097,0-0.097,0-0.097v-0.096v-0.095l0,0c0-0.097,0-0.097,0-0.097v-0.097v-0.096l0,0c0-0.096,0-0.096,0-0.096v-0.098V17.59
	v-0.097v-0.096c0-0.097,0-0.097,0-0.097v-0.386v-0.096v-0.097c0-0.097,0-0.097,0-0.097h-0.096v-0.097l0,0c0-0.096,0-0.096,0-0.096
	v-0.097c-0.1,0-0.1-0.097-0.1-0.097h-0.096c0-0.096,0-0.096,0-0.096v-0.097v-0.097l0,0l-0.097-0.096h-0.096
	c-0.097,0-0.193-0.096-0.289-0.096c0,0-0.099,0-0.099-0.096l0,0H57.85c-0.097,0-0.192,0-0.288,0h-0.098h-0.096
	c-0.097,0-0.097,0-0.289,0c-0.099,0-0.099,0-0.29,0c-0.098,0-0.098,0-0.191,0c0,0.096,0,0.096,0,0.096
	c-0.099,0-0.099,0.096-0.193,0.096c-0.094,0-0.092,0.096-0.188,0.096l0,0c0,0.097,0,0.097,0,0.097
	c-0.097,0.097-0.097,0.097-0.097,0.097l-0.097,0.096c-0.096,0-0.096,0.097-0.096,0.097c-0.096,0-0.096,0.097-0.096,0.097v0.096
	c-0.098,0-0.098,0.097-0.098,0.097l-0.096,0.097l-0.097,0.097v0.096c-0.096,0-0.096,0-0.19,0.096l-0.099,0.098h-0.096
	c0,0.096,0,0.096,0,0.096c-0.098,0-0.098,0.097-0.098,0.097l-0.096,0.097h-0.096c-0.099,0.096-0.099,0.096-0.193,0.096
	c0,0.097-0.097,0.097-0.097,0.097l-0.096,0.096c-0.096,0-0.096,0.098-0.096,0.098l-0.098,0.096c0,0.096-0.096,0.096-0.096,0.096
	l-0.867-0.096l-0.097,0.096c-0.099,0-0.192,0-0.288,0c-0.098,0-0.098,0.097-0.193,0.097c0,0.097-0.099,0.097-0.099,0.097
	s-0.096,0-0.096,0.097c-0.097,0-0.193,0.098-0.289,0.098c-0.099,0-0.193,0.098-0.289,0.098c-0.095,0.094-0.095,0.094-0.191,0.094
	c-0.099,0-0.099,0-0.192,0.096c-0.096,0-0.096,0.097-0.193,0.097c-0.096,0-0.192,0-0.289,0h-0.096c-0.099,0-0.099,0-0.192,0
	c-0.193,0-0.482,0.098-0.675,0.098c-0.096,0-0.193,0.099-0.193,0.099c-0.577,0-1.156,0-1.734,0c-0.096,0-0.096-0.099-0.288-0.099
	c-0.1,0-0.289-0.098-0.482-0.098c-0.099,0-0.099,0-0.192,0c0-0.097,0-0.097-0.097-0.097c0-0.096-0.099-0.096-0.099-0.096v-0.098
	c-0.096,0-0.096-0.096-0.096-0.096c-0.099,0-0.099-0.096-0.289-0.096c0-0.099,0-0.099-0.099-0.099c-0.096,0-0.096-0.098-0.096-0.098
	l-0.094-0.094v0.097c0,0.097,0,0.097,0,0.097s-0.096,0-0.096,0.097v0.098v0.098c0,0.098,0,0.098,0,0.098s-0.096,0-0.096,0.097v0.092
	h-0.097c0,0.097,0,0.097,0,0.097v0.096v0.097l0,0c0,0.096,0,0.096,0,0.096l-0.097,0.098v0.096v0.096v0.097c0,0.097,0,0.097,0,0.097
	v0.097l-0.097,0.096v0.096c0,0.1,0,0.1,0,0.1v0.097v0.096c0,0.096,0,0.096,0,0.096c0,0.097,0,0.097,0,0.097v0.095l-0.096,0.096
	v0.098v0.096v0.096c0,0-0.097,0-0.097,0.099v0.098v0.096c0,0.096,0,0.096,0,0.096v0.096v0.096v0.096c0,0.097,0,0.097,0,0.097v0.097
	v0.096v0.097c0,0.096,0,0.096,0,0.096l-0.097,0.098v0.096v0.096v0.097v0.097v0.192v0.097v0.097v0.096l-0.096,0.097v0.097v0.096
	c0,0.099,0,0.099,0,0.099v0.097v0.097c0,0.096,0,0.096,0,0.096v0.096v0.095l0,0c0,0.097,0,0.097,0,0.097v0.097v0.096v0.097v0.097
	v0.096v0.097v0.097v0.096v0.097v0.096v0.098v0.096c0,0.096,0,0.096,0,0.096v0.097v0.097l0,0c0,0.097,0,0.097,0,0.097v0.096v0.097
	l0,0c0,0.099,0,0.099,0,0.099v0.097v0.096v0.097v0.096c0,0.099,0,0.099,0,0.099v0.097v0.096v0.093c0,0.096,0,0.096,0,0.096v0.097
	v0.097l0,0c0,0.097,0,0.097,0,0.097v0.098v0.098l0,0c0,0.098,0,0.098,0,0.098v0.285v0.096v0.097v0.096c0,0.098,0,0.098,0,0.098
	v0.098v0.098l0,0c0,0.097,0,0.097,0,0.097v0.098v0.092l0,0c0,0.096,0,0.096,0,0.096v0.097v0.097v0.096v0.097v0.097l-0.097,0.096
	l-0.097,0.097c-0.096,0-0.096,0-0.192,0l0,0c0,0.096,0,0.096,0,0.096v0.098v0.096l0,0c0,0.096,0,0.096,0,0.096v0.097v0.097v0.097
	c-2.311,0-4.719,0-7.034,0l0,0V29.73v-0.097v-0.097v-0.096v-0.096c0-0.1,0-0.1,0-0.1v0.195v-0.096l0,0c-0.289,0-0.578,0-0.771,0
	h-0.097c-0.096,0-0.096,0-0.19,0c-0.099,0-0.193,0-0.193,0c-0.099,0-0.099,0-0.099,0c-0.096,0-0.096,0-0.19,0
	c-0.099,0-0.193,0-0.193,0c-0.099,0-0.193,0-0.193,0c-0.098-0.098-0.098-0.098-0.098-0.098l-0.097-0.096v-0.097l0,0
	c0-0.096,0-0.096,0-0.096l-0.096-0.097l-0.097-0.097l0,0c0-0.096,0-0.096,0-0.096v-0.097v-0.097v-0.096v-0.097
	c0-0.097,0-0.097,0-0.097v-0.097v-0.096l0,0c0-0.096,0-0.096,0-0.096v-0.098v-0.096l0,0c0-0.097,0-0.097,0-0.097v-0.096v-0.097
	v-0.097v-0.096c0-0.097,0-0.097,0-0.097V27.03v-0.098V26.84c0-0.097,0-0.097,0-0.097v-0.097v-0.096l0,0c0-0.096,0-0.096,0-0.096
	v-0.098v-0.096l0,0c0-0.097,0-0.097,0-0.097v-0.578v-0.096v-0.097v-0.097c0-0.097,0-0.097,0-0.097v-0.098v-0.098v-0.094
	c0-0.096,0-0.096,0-0.096V24.72v-0.096l0,0c0-0.097,0-0.097,0-0.097v-0.097v-0.096v-0.097v-0.097v-0.096v-0.097v-0.097v-0.097
	c0-0.096,0-0.096,0-0.096v-0.096v-0.098v-0.096c0.097-0.097,0.097-0.097,0.097-0.097v-0.096v-0.097v-0.097c0-0.096,0-0.096,0-0.096
	v-0.097v-0.097v-0.096l0.096-0.099v-0.097v-0.097v-0.096v-0.096v-0.096v-0.096v-0.097v-0.096c0-0.097,0-0.097,0-0.097V21.54v-0.096
	c0.097-0.098,0.097-0.098,0.097-0.098v-0.096l0.096-0.096l0,0c0-0.099,0-0.099,0-0.099V20.96v-0.097V20.77v-0.096v-0.098V20.48
	v-0.097v-0.096v-0.097v-0.097l0.096-0.096l0.097-0.098c0-0.096,0-0.096,0-0.096V19.71v-0.097l0,0c0-0.097,0-0.097,0-0.097
	l0.096-0.097v-0.098h0.097c0-0.098,0.096-0.098,0.096-0.098v-0.094v-0.096v-0.097v-0.096c0-0.097,0-0.097,0-0.097
	s0.096,0,0.096-0.099v-0.097v-0.096c0-0.097,0.099-0.097,0.099-0.097s0.096,0,0.096-0.096v-0.095l0,0c0-0.097,0-0.097,0-0.097
	l0.097-0.097l0.096-0.097l0,0c0-0.097,0-0.097,0-0.097v-0.096V17.59l0.096-0.097v-0.098c0-0.099,0-0.099,0-0.099v-0.382v-0.096
	v-0.097c0-0.097,0-0.097,0-0.097l0,0v-0.097l0,0c0-0.096,0-0.096,0-0.096v-0.097V16.24v-0.096v-0.097v-0.097v-0.096v-0.096
	l-0.096-0.096c0-0.096,0-0.096,0-0.096l-0.096-0.097l-0.099-0.096l0,0c0-0.097,0-0.097,0-0.097l-0.096-0.096l-0.097-0.097l0,0
	c0-0.096,0-0.096,0-0.096l-0.096-0.097v-0.096v-0.096l-0.096-0.097c-0.097-0.096-0.097-0.096-0.097-0.096h-6.648
	c-1.544,0-3.083,0-4.628,0l-0.096,0.096h-0.096c-0.099,0-0.099,0-0.099,0c-0.096,0-0.096,0-0.193,0c-0.096,0-0.096,0-0.19,0
	c-0.099,0-0.099-0.096-0.193-0.096c0-0.097-0.099-0.097-0.099-0.097s-0.096,0-0.096-0.096v-0.096l0,0h-0.097
	c0-0.096,0-0.096,0-0.096l-0.092-0.097v-0.096v-0.097c0-0.096,0-0.096,0-0.096v-0.097v-0.096v-0.097V13.35v-0.096v-0.097v-0.096
	v-0.097v-0.096v-0.096v-0.096v-0.097c0-0.096,0-0.096,0-0.096v-0.097v-0.096v-0.193c0-0.097,0-0.097,0-0.097v-0.096v-0.096
	c0-0.097,0-0.097,0-0.097v-0.096v-0.097v-0.096v-0.096V11.23v-0.097v-0.096v-0.097v-0.096v-0.097v-0.096l0,0
	c-0.193,0-0.289,0-0.482,0c-0.096,0-0.193,0-0.193,0c-0.096,0-0.19-0.097-0.289-0.097l-0.096-0.096h-0.097
	c-0.096,0-0.19-0.096-0.19-0.096l-0.099-0.097c0,0-0.096,0-0.096-0.096v-0.097l0,0H3.991v0.771v0.096l0,0v0.482l0,0l0,0v0.096
	L3.22,19.42l0,0v0.097l0,0L2.836,20.77l-1.253,0.096v-13.2h0.097h0.193l0,0h0.096l0.096,0.097l0.097,0.096v0.097h1.927h0.096l0,0
	h0.097h18.596c0.289,0,0.482,0,0.675,0c0.672,0,1.347,0,2.023,0h0.096c0.099,0,0.099,0,0.193,0l0,0V7.858V7.665V7.568V7.473V7.376
	c0-0.096,0-0.096,0-0.096V7.183V7.087l0,0c0-0.096,0-0.096,0-0.096V6.895V6.798l0,0c0-0.096,0-0.096,0-0.096V6.509V6.413V6.316V6.22
	c0-0.097,0-0.097,0-0.097V6.027V5.931l0,0c0-0.096,0-0.096,0-0.096V5.738V5.642l0,0c0-0.096,0-0.096,0-0.096V5.449V5.353l0,0
	c0-0.096,0-0.096,0-0.096V4.871V4.774V4.678V4.582c0-0.097,0-0.097,0-0.097V4.389V4.292V4.196c0-0.096,0-0.096,0-0.096V4.004V3.907
	l0,0c0-0.096,0-0.096,0-0.096V3.714c0.097,0,0.097-0.096,0.097-0.096s0.096,0,0.19,0V3.522l0,0h0.099c0.096,0,0.096,0,0.193,0l0,0
	c1.734,0,3.468,0,5.201,0V3.425V3.329V3.232V3.137V3.04l0,0c0.099,0,0.099,0,0.193,0V2.944V2.655
	C32.031,2.655,32.031,2.559,32.127,2.559z M49.278,16.819c-0.672-0.675-1.06-1.446-1.153-2.313
	c-0.099,0.096-0.192,0.193-0.292,0.289c-0.385,0.386-0.577,0.771-0.771,1.156l0.099,0.097c0.771,0.675,1.542,1.061,2.505,1.156
	C49.568,17.011,49.471,16.915,49.278,16.819z M53.807,14.892c-0.096-0.096-0.096-0.096-0.193-0.192
	c-0.771-0.771-1.733-1.156-2.791-1.156c-0.386,0-0.868,0.096-1.253,0.193c-0.099,0.289-0.099,0.481-0.099,0.771
	c0,0.963,0.289,1.831,0.964,2.602c0.963-0.098,1.733-0.482,2.507-1.157C53.229,15.663,53.518,15.277,53.807,14.892z M36.078,28.285
	C36.078,28.188,36.078,28.188,36.078,28.285L36.078,28.285C36.078,28.188,36.078,28.285,36.078,28.285L36.078,28.285z"/>
<g>
	<defs>
		<path id="SVGID_3_" d="M32.127,2.559l0.097-0.097V2.366V2.269V2.173l0,0c0.19,0,0.289,0,0.482,0v0.096c0.19,0,0.289,0,0.481,0
			v0.097h0.096v0.096c0.096,0,0.096,0,0.096,0v0.097c0,0,0.099,0,0.099,0.096l0.096,0.096c0.097,0,0.097,0.096,0.097,0.096
			c0.096,0,0.096,0.097,0.096,0.097l0,0c0.096,0,0.193,0.096,0.289,0.096v0.097h0.095v0.096c10.018,0,19.943,0,29.966,0
			c0.288,0.193,0.386,0.193,0.386,0.193l0.096,0.097l0.096,0.097v0.096v0.097v0.096l0,0l0,0c0,0.097,0.097,0.097,0.097,0.097
			s0.193,0.481,0.384,1.445c0.291,0.963,0.481,1.445,0.773,1.445H67.2l0.289-0.097h0.289l0,0h1.156h0.289l0.289,0.097h1.734
			l0.192,0.096l0.097,0.096h0.481v3.854v0.097v0.096l-0.192,0.193h-0.289h-0.192l0,0h-3.565l1.544,3.565c0,0.097,0,0.097,0,0.097
			v0.096v0.097l0,0c0,0.096,0,0.096,0,0.096v0.097v0.096v0.771c0,0-0.581,0-1.639,0c-0.099,0-0.58-0.963-1.544-2.89
			c-0.383,0-0.864,0.096-1.252,0.096c-0.097,0-0.193,0-0.193,0c-0.096,0-0.189,0-0.189,0h-0.1v0.097c0,0.096,0,0.096,0,0.096
			c0,0.097,0,0.097,0,0.097v0.096v0.097c0,0.096,0,0.096,0,0.096v0.097v0.096l0,0c0,0.096,0,0.096,0,0.096v0.096v0.097v0.096v0.097
			v0.096v0.096v0.097v0.096c0,0.097,0,0.097,0,0.097v0.096v0.097l0,0c0,0.096,0,0.096,0,0.096v0.097v0.096l0,0
			c0,0.096,0,0.096,0,0.096v0.096v0.096l0,0c0,0.097,0,0.097,0,0.097l0,0v0.097v0.096l0.1,0.097c0,0.097,0,0.097,0,0.097v0.096
			v0.097l0,0c0,0.097,0,0.097,0,0.097v0.097v0.096l0,0c0,0.096,0,0.096,0,0.096v0.098v0.096v0.097l0.096,0.097
			c0,0.096,0,0.096,0,0.096v0.097v0.096v0.098c0,0.096,0,0.096,0,0.096v0.096v0.097l0,0c0,0.097,0,0.097,0,0.097v0.097v0.096l0,0
			c0,0.096,0,0.096,0,0.096v0.098v0.096v0.097v0.097c0,0.096,0,0.096,0,0.096v0.097v0.096v0.098c0,0.096,0,0.096,0,0.096v0.096
			v0.097v0.097c0,0.097,0.096,0.097,0.096,0.097v0.096v0.096v0.098v0.096v0.097c0,0,0,0,0,0.097v0.096v0.097
			c0,0.096,0,0.096,0,0.096s0,0,0,0.098v0.096l0.097,0.096c0,0.099,0,0.099,0,0.099v0.099v0.097v0.096c0,0.096,0,0.096,0,0.096
			l0.097,0.1v0.099v0.096v0.089l0.099,0.096c0,0,0,0,0,0.099v0.099v0.096v0.097v0.096v0.093c0,0.098,0.096,0.098,0.096,0.098
			c0,0.096,0,0.096,0,0.096v0.096v0.097c0,0.099,0.096,0.099,0.096,0.099v0.099v0.096l0,0c0,0.096,0,0.096,0,0.096l0.1,0.097v0.093
			v0.097v0.097v0.096l0.096,0.096v0.097v0.098v0.096v0.098v0.098v0.094c0,0.097,0,0.097,0,0.097v0.096v0.097l0,0
			c0,0.096,0.099,0.096,0.099,0.096v0.097v0.097l0,0c0,0.097,0,0.097,0,0.097v0.098v0.098v0.093v0.098c0,0.096,0,0.096,0,0.096
			v0.096v0.097v0.097c0,0.097,0,0.097,0,0.097v0.096v0.099l0,0c0,0.098,0,0.098,0,0.098v0.093v0.097l0,0c0,0.097,0,0.097,0,0.097
			v1.06v0.096v0.097v0.096c0,0.098,0,0.098,0,0.098l0,0v0.098l0,0c0,0.098-0.099,0.098-0.099,0.098c0,0.097,0,0.097,0,0.097v0.098
			l0,0c-0.096,0-0.193,0.096-0.289,0.096s-0.192,0-0.192,0c-0.103-0.004-0.103,0.092-0.103,0.092s-0.099,0-0.192,0s-0.096,0-0.193,0
			l-0.096,0.097c-0.099,0-0.099,0-0.192,0c-0.095,0-0.289,0-0.386,0h-0.097c-0.096,0-0.096,0-0.192,0c-0.193,0-0.383,0-0.482,0
			c-0.096,0-0.096,0.097-0.192,0.097c-0.481,0-0.964,0-1.347,0l-0.099,0.096c-0.096,0-0.096,0-0.19,0
			c-0.292,0-0.58,0.097-0.773,0.097h-0.096c0.771,0.482,0.675,0.578,0.675,0.578c-0.099,0-0.193-0.096-0.193-0.096
			c-0.096,0-0.096,0-0.096,0l0,0c-0.099,0-0.193,0-0.193,0c-0.097-0.098-0.097-0.098-0.192-0.098l-0.096-0.096l-0.098-0.097l0,0
			c0-0.096,0-0.096,0-0.096v-0.097v-0.097h-0.096c0-0.096,0-0.096,0-0.096v-0.097l-0.097-0.097l-0.096-0.096v-0.097
			c0-0.097,0-0.097,0-0.097v-0.097v-0.096l0,0c0-0.096-0.097-0.096-0.097-0.096l-0.097-0.098v-0.096l0,0c0-0.097,0-0.097,0-0.097
			c0-0.098-0.096-0.098-0.096-0.098v-0.099v-0.093v-0.096c0-0.097,0-0.097,0-0.097V27.03v-0.098V26.84c0-0.097,0-0.097,0-0.097
			v-0.097l-0.098-0.096h-0.096v-0.096l-0.096-0.098v-0.096l0,0c0-0.097,0-0.097,0-0.097v-0.578v-0.096v-0.097v-0.097
			c0-0.097,0-0.097,0-0.097v-0.098v-0.098v-0.094c0-0.096,0-0.096,0-0.096l-0.097-0.097v-0.096l0,0c0-0.097,0-0.097,0-0.097v-0.097
			v-0.096v-0.097v-0.097v-0.096v-0.097v-0.097v-0.097c0-0.096,0-0.096,0-0.096v-0.096v-0.098v-0.096c0-0.097,0-0.097,0-0.097v-0.098
			v-0.099v-0.093c0-0.096,0-0.096,0-0.096v-0.097v-0.097v-0.096v-0.097v-0.097v-0.097v-0.096l-0.097-0.096v-0.098v-0.096v-0.097
			v-0.096c0-0.097,0-0.097,0-0.097V21.54v-0.096c0-0.098,0-0.098,0-0.098v-0.098v-0.098l0,0c0-0.097,0-0.097,0-0.097v-0.097v-0.093
			V20.77v-0.096v-0.098l-0.097-0.096v-0.097v-0.096v-0.097v-0.097v-0.096v-0.098c0-0.096,0-0.096,0-0.096V19.71v-0.097l0,0
			c0-0.097,0-0.097,0-0.097V19.42v-0.096l0,0c0-0.096,0-0.096,0-0.096v-0.098v-0.096v-0.097v-0.096c0-0.097,0-0.097,0-0.097
			s-0.096,0-0.096-0.099v-0.097v-0.096c0-0.097,0-0.097,0-0.097v-0.096v-0.095l0,0c0-0.097,0-0.097,0-0.097v-0.097v-0.096l0,0
			c0-0.096,0-0.096,0-0.096v-0.098V17.59v-0.097v-0.096c0-0.097,0-0.097,0-0.097v-0.386v-0.096v-0.097c0-0.097,0-0.097,0-0.097
			h-0.096v-0.097l0,0c0-0.096,0-0.096,0-0.096v-0.097c-0.1,0-0.1-0.097-0.1-0.097h-0.096c0-0.096,0-0.096,0-0.096v-0.097v-0.097l0,0
			l-0.097-0.096h-0.096c-0.097,0-0.193-0.096-0.289-0.096c0,0-0.099,0-0.099-0.096l0,0H57.85c-0.097,0-0.192,0-0.288,0h-0.098
			h-0.096c-0.097,0-0.097,0-0.289,0c-0.099,0-0.099,0-0.29,0c-0.098,0-0.098,0-0.191,0c0,0.096,0,0.096,0,0.096
			c-0.099,0-0.099,0.096-0.193,0.096c-0.094,0-0.092,0.096-0.188,0.096l0,0c0,0.097,0,0.097,0,0.097
			c-0.097,0.097-0.097,0.097-0.097,0.097l-0.097,0.096c-0.096,0-0.096,0.097-0.096,0.097c-0.096,0-0.096,0.097-0.096,0.097v0.096
			c-0.098,0-0.098,0.097-0.098,0.097l-0.096,0.097l-0.097,0.097v0.096c-0.096,0-0.096,0-0.19,0.096l-0.099,0.098h-0.096
			c0,0.096,0,0.096,0,0.096c-0.098,0-0.098,0.097-0.098,0.097l-0.096,0.097h-0.096c-0.099,0.096-0.099,0.096-0.193,0.096
			c0,0.097-0.097,0.097-0.097,0.097l-0.096,0.096c-0.096,0-0.096,0.098-0.096,0.098l-0.098,0.096c0,0.096-0.096,0.096-0.096,0.096
			l-0.867-0.096l-0.097,0.096c-0.099,0-0.192,0-0.288,0c-0.098,0-0.098,0.097-0.193,0.097c0,0.097-0.099,0.097-0.099,0.097
			s-0.096,0-0.096,0.097c-0.097,0-0.193,0.098-0.289,0.098c-0.099,0-0.193,0.098-0.289,0.098c-0.095,0.094-0.095,0.094-0.191,0.094
			c-0.099,0-0.099,0-0.192,0.096c-0.096,0-0.096,0.097-0.193,0.097c-0.096,0-0.192,0-0.289,0h-0.096c-0.099,0-0.099,0-0.192,0
			c-0.193,0-0.482,0.098-0.675,0.098c-0.096,0-0.193,0.099-0.193,0.099c-0.577,0-1.156,0-1.734,0c-0.096,0-0.096-0.099-0.288-0.099
			c-0.1,0-0.289-0.098-0.482-0.098c-0.099,0-0.099,0-0.192,0c0-0.097,0-0.097-0.097-0.097c0-0.096-0.099-0.096-0.099-0.096v-0.098
			c-0.096,0-0.096-0.096-0.096-0.096c-0.099,0-0.099-0.096-0.289-0.096c0-0.099,0-0.099-0.099-0.099
			c-0.096,0-0.096-0.098-0.096-0.098l-0.094-0.094v0.097c0,0.097,0,0.097,0,0.097s-0.096,0-0.096,0.097v0.098v0.098
			c0,0.098,0,0.098,0,0.098s-0.096,0-0.096,0.097v0.092h-0.097c0,0.097,0,0.097,0,0.097v0.096v0.097l0,0c0,0.096,0,0.096,0,0.096
			l-0.097,0.098v0.096v0.096v0.097c0,0.097,0,0.097,0,0.097v0.097l-0.097,0.096v0.096c0,0.1,0,0.1,0,0.1v0.097v0.096
			c0,0.096,0,0.096,0,0.096c0,0.097,0,0.097,0,0.097v0.095l-0.096,0.096v0.098v0.096v0.096c0,0-0.097,0-0.097,0.099v0.098v0.096
			c0,0.096,0,0.096,0,0.096v0.096v0.096v0.096c0,0.097,0,0.097,0,0.097v0.097v0.096v0.097c0,0.096,0,0.096,0,0.096l-0.097,0.098
			v0.096v0.096v0.097v0.097v0.192v0.097v0.097v0.096l-0.096,0.097v0.097v0.096c0,0.099,0,0.099,0,0.099v0.097v0.097
			c0,0.096,0,0.096,0,0.096v0.096v0.095l0,0c0,0.097,0,0.097,0,0.097v0.097v0.096v0.097v0.097v0.096v0.097v0.097v0.096v0.097v0.096
			v0.098v0.096c0,0.096,0,0.096,0,0.096v0.097v0.097l0,0c0,0.097,0,0.097,0,0.097v0.096v0.097l0,0c0,0.099,0,0.099,0,0.099v0.097
			v0.096v0.097v0.096c0,0.099,0,0.099,0,0.099v0.097v0.096v0.093c0,0.096,0,0.096,0,0.096v0.097v0.097l0,0c0,0.097,0,0.097,0,0.097
			v0.098v0.098l0,0c0,0.098,0,0.098,0,0.098v0.285v0.096v0.097v0.096c0,0.098,0,0.098,0,0.098v0.098v0.098l0,0
			c0,0.097,0,0.097,0,0.097v0.098v0.092l0,0c0,0.096,0,0.096,0,0.096v0.097v0.097v0.096v0.097v0.097l-0.097,0.096l-0.097,0.097
			c-0.096,0-0.096,0-0.192,0l0,0c0,0.096,0,0.096,0,0.096v0.098v0.096l0,0c0,0.096,0,0.096,0,0.096v0.097v0.097v0.097
			c-2.311,0-4.719,0-7.034,0l0,0V29.73v-0.097v-0.097v-0.096v-0.096c0-0.1,0-0.1,0-0.1v0.195v-0.096l0,0c-0.289,0-0.578,0-0.771,0
			h-0.097c-0.096,0-0.096,0-0.19,0c-0.099,0-0.193,0-0.193,0c-0.099,0-0.099,0-0.099,0c-0.096,0-0.096,0-0.19,0
			c-0.099,0-0.193,0-0.193,0c-0.099,0-0.193,0-0.193,0c-0.098-0.098-0.098-0.098-0.098-0.098l-0.097-0.096v-0.097l0,0
			c0-0.096,0-0.096,0-0.096l-0.096-0.097l-0.097-0.097l0,0c0-0.096,0-0.096,0-0.096v-0.097v-0.097v-0.096v-0.097
			c0-0.097,0-0.097,0-0.097v-0.097v-0.096l0,0c0-0.096,0-0.096,0-0.096v-0.098v-0.096l0,0c0-0.097,0-0.097,0-0.097v-0.096v-0.097
			v-0.097v-0.096c0-0.097,0-0.097,0-0.097V27.03v-0.098V26.84c0-0.097,0-0.097,0-0.097v-0.097v-0.096l0,0c0-0.096,0-0.096,0-0.096
			v-0.098v-0.096l0,0c0-0.097,0-0.097,0-0.097v-0.578v-0.096v-0.097v-0.097c0-0.097,0-0.097,0-0.097v-0.098v-0.098v-0.094
			c0-0.096,0-0.096,0-0.096V24.72v-0.096l0,0c0-0.097,0-0.097,0-0.097v-0.097v-0.096v-0.097v-0.097v-0.096v-0.097v-0.097v-0.097
			c0-0.096,0-0.096,0-0.096v-0.096v-0.098v-0.096c0.097-0.097,0.097-0.097,0.097-0.097v-0.096v-0.097v-0.097
			c0-0.096,0-0.096,0-0.096v-0.097v-0.097v-0.096l0.096-0.099v-0.097v-0.097v-0.096v-0.096v-0.096v-0.096v-0.097v-0.096
			c0-0.097,0-0.097,0-0.097V21.54v-0.096c0.097-0.098,0.097-0.098,0.097-0.098v-0.096l0.096-0.096l0,0c0-0.099,0-0.099,0-0.099
			V20.96v-0.097V20.77v-0.096v-0.098V20.48v-0.097v-0.096v-0.097v-0.097l0.096-0.096l0.097-0.098c0-0.096,0-0.096,0-0.096V19.71
			v-0.097l0,0c0-0.097,0-0.097,0-0.097l0.096-0.097v-0.098h0.097c0-0.098,0.096-0.098,0.096-0.098v-0.094v-0.096v-0.097v-0.096
			c0-0.097,0-0.097,0-0.097s0.096,0,0.096-0.099v-0.097v-0.096c0-0.097,0.099-0.097,0.099-0.097s0.096,0,0.096-0.096v-0.095l0,0
			c0-0.097,0-0.097,0-0.097l0.097-0.097l0.096-0.097l0,0c0-0.097,0-0.097,0-0.097v-0.096V17.59l0.096-0.097v-0.098
			c0-0.099,0-0.099,0-0.099v-0.382v-0.096v-0.097c0-0.097,0-0.097,0-0.097l0,0v-0.097l0,0c0-0.096,0-0.096,0-0.096v-0.097V16.24
			v-0.096v-0.097v-0.097v-0.096v-0.096l-0.096-0.096c0-0.096,0-0.096,0-0.096l-0.096-0.097l-0.099-0.096l0,0
			c0-0.097,0-0.097,0-0.097l-0.096-0.096l-0.097-0.097l0,0c0-0.096,0-0.096,0-0.096l-0.096-0.097v-0.096v-0.096l-0.096-0.097
			c-0.097-0.096-0.097-0.096-0.097-0.096h-6.648c-1.544,0-3.083,0-4.628,0l-0.096,0.096h-0.096c-0.099,0-0.099,0-0.099,0
			c-0.096,0-0.096,0-0.193,0c-0.096,0-0.096,0-0.19,0c-0.099,0-0.099-0.096-0.193-0.096c0-0.097-0.099-0.097-0.099-0.097
			s-0.096,0-0.096-0.096v-0.096l0,0h-0.097c0-0.096,0-0.096,0-0.096l-0.092-0.097v-0.096v-0.097c0-0.096,0-0.096,0-0.096v-0.097
			v-0.096v-0.097V13.35v-0.096v-0.097v-0.096v-0.097v-0.096v-0.096v-0.096v-0.097c0-0.096,0-0.096,0-0.096v-0.097v-0.096v-0.193
			c0-0.097,0-0.097,0-0.097v-0.096v-0.096c0-0.097,0-0.097,0-0.097v-0.096v-0.097v-0.096v-0.096V11.23v-0.097v-0.096v-0.097v-0.096
			v-0.097v-0.096l0,0c-0.193,0-0.289,0-0.482,0c-0.096,0-0.193,0-0.193,0c-0.096,0-0.19-0.097-0.289-0.097l-0.096-0.096h-0.097
			c-0.096,0-0.19-0.096-0.19-0.096l-0.099-0.097c0,0-0.096,0-0.096-0.096v-0.097l0,0H3.991v0.771v0.096l0,0v0.482l0,0l0,0v0.096
			L3.22,19.42l0,0v0.097l0,0L2.836,20.77l-1.253,0.096v-13.2h0.097h0.193l0,0h0.096l0.096,0.097l0.097,0.096v0.097h1.927h0.096l0,0
			h0.097h18.596c0.289,0,0.482,0,0.675,0c0.672,0,1.347,0,2.023,0h0.096c0.099,0,0.099,0,0.193,0l0,0V7.858V7.665V7.568V7.473V7.376
			c0-0.096,0-0.096,0-0.096V7.183V7.087l0,0c0-0.096,0-0.096,0-0.096V6.895V6.798l0,0c0-0.096,0-0.096,0-0.096V6.509V6.413V6.316
			V6.22c0-0.097,0-0.097,0-0.097V6.027V5.931l0,0c0-0.096,0-0.096,0-0.096V5.738V5.642l0,0c0-0.096,0-0.096,0-0.096V5.449V5.353l0,0
			c0-0.096,0-0.096,0-0.096V4.871V4.774V4.678V4.582c0-0.097,0-0.097,0-0.097V4.389V4.292V4.196c0-0.096,0-0.096,0-0.096V4.004
			V3.907l0,0c0-0.096,0-0.096,0-0.096V3.714c0.097,0,0.097-0.096,0.097-0.096s0.096,0,0.19,0V3.522l0,0h0.099
			c0.096,0,0.096,0,0.193,0l0,0c1.734,0,3.468,0,5.201,0V3.425V3.329V3.232V3.137V3.04l0,0c0.099,0,0.099,0,0.193,0V2.944V2.655
			C32.031,2.655,32.031,2.559,32.127,2.559z M49.278,16.819c-0.672-0.675-1.06-1.446-1.153-2.313
			c-0.099,0.096-0.192,0.193-0.292,0.289c-0.385,0.386-0.577,0.771-0.771,1.156l0.099,0.097c0.771,0.675,1.542,1.061,2.505,1.156
			C49.568,17.011,49.471,16.915,49.278,16.819z M53.807,14.892c-0.096-0.096-0.096-0.096-0.193-0.192
			c-0.771-0.771-1.733-1.156-2.791-1.156c-0.386,0-0.868,0.096-1.253,0.193c-0.099,0.289-0.099,0.481-0.099,0.771
			c0,0.963,0.289,1.831,0.964,2.602c0.963-0.098,1.733-0.482,2.507-1.157C53.229,15.663,53.518,15.277,53.807,14.892z
			 M36.078,28.285C36.078,28.188,36.078,28.188,36.078,28.285L36.078,28.285C36.078,28.188,36.078,28.285,36.078,28.285
			L36.078,28.285z"/>
	</defs>
	<clipPath id="SVGID_4_">
		<use xlink:href="#SVGID_3_"  overflow="visible"/>
	</clipPath>
	<g clip-path="url(#SVGID_4_)">
		<polygon fill="#148193" points="44.891,32.214 34.932,31.242 38.615,4.838 44.481,11.552 48.095,12.121 		"/>
		<polygon fill="#E08300" stroke="#DDBE26" stroke-miterlimit="10" points="32.557,16 47.312,17.217 46.733,22.894 31.978,21.677 		
			"/>
		<polygon fill="#E08300" stroke="#DDBE26" stroke-miterlimit="10" points="33.289,24.118 48.044,25.334 47.465,31.011 
			32.709,29.794 		"/>
		
			<linearGradient id="SVGID_5_" gradientUnits="userSpaceOnUse" x1="371.9993" y1="-257.5596" x2="420.0139" y2="-257.5596" gradientTransform="matrix(1 0 0 -1 -370.96 -246.5996)">
			<stop  offset="5.581969e-004" style="stop-color:#FF9500"/>
			<stop  offset="1" style="stop-color:#EFB941"/>
		</linearGradient>
		<path fill="url(#SVGID_5_)" d="M1.198,6.078h15.853l5.605-0.405l0.425-3.904L32.397,0l5.179,0.369c0,0,10.048,1.963,11.479,4.167
			c0,0-2.371,1.354-3.227,3.413c-0.854,2.057-2.074,3.508-4.029,3.924c-1.957,0.414-3.572-1.769-5.279-0.76
			c-1.708,1.007-4.359,3.121-5.563,3.992c-1.204,0.871-4.262,2.748-5.291,4.238c-1.029,1.496-2.392,3.068-3.668,2.434
			c-1.275-0.635-2.971-1.729-2.971-1.729l-5.856,0.154l-5.653,0.111l-5.551,0.896l-0.927-1.322L1.198,6.078z"/>
		<path fill="#300093" d="M6.859,10.007c0,0-4.964,0.054-5.466,4.273c-0.649,5.438,5.175,3.462,5.175,3.462
			S4.437,14.124,6.859,10.007z"/>
		<path fill="#5D29FF" d="M7.192,17.359l3.795-1.14c0,0-1.292-2.849,1.705-4.694c2.464-1.519,5.286,0.413,5.286,0.413l2.048-2.596
			c0,0-6.928-4.021-11.667,0.193C4.994,12.525,7.192,17.359,7.192,17.359z"/>
		<path fill="#4383FF" d="M23.448,7.257c0,0-2.455,1.178-3.422,1.178c-0.966,0,1.006,0.737,1.006,0.737l-2.199,2.772l0.83,1.847
			l5.31,0.18l0.213-7.395L23.448,7.257z"/>
		<path fill="#8600EE" d="M32.912,6.097c0,0-2.203-1.308-4.813,0.11c-2.609,1.418-2.913,6.893,1.628,7.394
			c3.897,0.433,4.667-4.348,2.444-5.011c-2.223-0.662-2.348,1.606-2.097,1.846h-0.6c0,0-0.9-2.764,2.16-2.736
			c3.044,0.027,2.324,3.877,2.324,3.877s1.458-2.412,3.299-2.275c2.081,0.157,1.707,1.13,3.045,1.395
			c1.392,0.277,3.405,0.235,4.042-2.708c0.346-1.592,2.48-2.667,2.48-2.667s-2.696-0.926-4.247,1.284
			c-1.417,2.019-2.445,0.725-3.275-0.179c-1.219-1.326-2.624-1.741-4.826-1.34C33.761,5.218,32.912,6.097,32.912,6.097z"/>
		<ellipse fill="#00A625" cx="15.026" cy="14.991" rx="3.639" ry="3.466"/>
		<path fill="#A20063" d="M37.439,2.649c0,0,1.358-0.531,4.156,0.145c2.797,0.678,4.042,1.616,4.042,1.616s-2.623-0.082-3.26,1.105
			c-0.64,1.188-1.247,1.243-1.855,0.969c-0.61-0.277-1.318-1.686-3.276-1.949c-1.766-0.236,0.101-1.423,0.101-1.423L37.439,2.649z"
			/>
		<path fill="#F58800" d="M24.288,3.305c0.043,0.014,1.652,3.579,1.652,3.579l3.478-1.865l-0.739-3.011L24.288,3.305z"/>
		<polygon fill="#5CFF16" points="29.071,2.008 29.97,4.94 32.521,5.323 32.709,1.594 		"/>
		<path fill="#646BFF" d="M37.029,1.772c0,0-1.145,2.252-1.159,2.672c0,0-2.133-0.153-2.812,0.629l0.088-3.647L37.029,1.772z"/>
	</g>
</g>
</svg>
