<?xml version="1.0" encoding="utf-8"?>
<!-- Generator: Adobe Illustrator 16.0.0, SVG Export Plug-In . SVG Version: 6.00 Build 0)  -->
<!DOCTYPE svg PUBLIC "-//W3C//DTD SVG 1.0//EN" "http://www.w3.org/TR/2001/REC-SVG-20010904/DTD/svg10.dtd">
<svg version="1.0" id="图层_1" xmlns="http://www.w3.org/2000/svg" xmlns:xlink="http://www.w3.org/1999/xlink" x="0px" y="0px"
	 width="81.5px" height="32px" viewBox="0 0 81.5 32" enable-background="new 0 0 81.5 32" xml:space="preserve">
<linearGradient id="SVGID_1_" gradientUnits="userSpaceOnUse" x1="372.96" y1="-262.8828" x2="451.4005" y2="-262.8828" gradientTransform="matrix(1 0 0 -1 -370.96 -246.5996)">
	<stop  offset="0" style="stop-color:#5782CE"/>
	<stop  offset="0.9898" style="stop-color:#5CAEFF"/>
</linearGradient>
<linearGradient id="SVGID_2_" gradientUnits="userSpaceOnUse" x1="1.625" y1="16.2832" x2="80.6543" y2="16.2832">
	<stop  offset="0" style="stop-color:#86D4F7"/>
	<stop  offset="1" style="stop-color:#DEF6FF"/>
</linearGradient>
<path fill="url(#SVGID_1_)" stroke="url(#SVGID_2_)" stroke-width="0.75" stroke-miterlimit="10" d="M79.798,8.195l0.097,0.096
	c0,0.096,0.097,0.096,0.097,0.193c0,0.096,0,0.096,0,0.192l0.096,0.096l0,0h0.097v0.096h0.096l0,0v0.097v0.096l0,0v0.096v0.096l0,0
	l0,0v0.096v0.097v0.096v0.096h-0.096h-0.097l0,0l0,0v0.097v0.096l0,0l0,0v0.097h-0.096l0,0h-0.097l0,0l0,0c-0.771,0-1.637,0-2.406,0
	l0,0c-0.1,0-0.1,0-0.1,0l0,0h-0.096h-0.097c-6.354,0-12.613,0.096-18.871,0.096h-0.097l0,0v0.096v0.097v0.096v0.097l0,0v0.096v0.096
	v0.29v0.096l0,0v0.096v0.097v0.096v0.097v0.096h0.097h0.096l0,0h0.099h0.096v0.096l0,0v0.097l0,0h0.097l0,0v0.096v0.096l0,0l0,0
	c-0.099,0-0.099,0.097-0.099,0.097v0.096v0.097v0.096v0.096v0.097v0.096v0.097v0.096l0,0v0.096v0.097l0,0v0.096l0,0v0.097v0.096
	v0.096l0,0v0.097v0.096v0.097v0.096l0,0v0.096v0.097v0.096v0.097l0,0v0.096v0.096l0,0v0.097v0.096v0.096v0.097l0,0l0,0l0,0
	c-0.096,0-0.096,0-0.096,0c-0.099,0-0.192,0-0.29,0h-0.094l0,0l0,0v0.096l0,0v0.097v0.096l0,0v0.096v0.097v0.096v0.097v0.096v0.096
	l0,0v0.097l0,0v0.096l0,0v0.097v0.096l0,0v0.096v0.097v0.096v0.096v0.096v0.096l0,0v0.097l0,0v0.097l0,0h0.097l0,0h0.097v0.096l0,0
	v0.096l0,0l0,0l0,0v0.097v0.097l0,0v0.096l0,0v0.097l0,0v0.096v0.098v2.021v0.096v0.097v0.096l0,0v0.097v0.097l0,0v0.096l0,0v0.097
	l0,0v0.096v0.097v0.097v0.096v0.097v0.096v0.097l0,0v0.097v0.096v0.386v0.096v0.097l0,0v0.096v0.097v0.097v0.096v0.097l0,0v0.096
	v0.097v0.097v0.096l0,0v0.097v0.096l0,0v0.097v0.097v0.096v0.097v0.096v0.097v0.097v0.096v0.097l0,0v0.096v0.097l0,0v0.097l0,0
	v0.096v0.097l0,0v0.096v0.097v0.097v0.096v0.097l0,0v0.096v0.097v0.096l0,0v0.097l0,0v0.097v0.096l0,0v0.097v0.096v0.097v0.097
	v0.096v0.097l0,0v0.096l0,0v0.097l0,0v0.097v0.096l0,0v0.097V26.2l0,0v0.097v0.097l0,0v0.096v0.097v0.577v0.097l0,0v0.097v0.096
	v0.097v0.096v0.097v0.097v0.096l0,0v0.097v0.096v0.097v0.097v0.096v0.097l0,0v0.096v0.097v0.097v0.096v0.097l0,0v0.096h0.096v0.097
	v0.097v0.096c-0.096,0-0.096,0-0.096,0c-0.097,0-0.289,0-0.386,0v0.097l-0.096,0.096l0,0v0.097v0.097l0,0v0.096l0,0v0.097v0.096
	v0.096l0,0v0.098v0.096v0.097v0.096l0,0v0.096v0.098v0.096l0,0v0.097l0,0v0.096v0.096l0,0v0.098l0,0h0.096l0,0v0.096V31.4l0,0
	c-0.096,0-0.096,0-0.096,0c-0.386,0-0.771,0-1.06,0c-0.099,0-0.099,0-0.099,0h-0.096v-0.097v-0.096h0.096h0.099l0,0V31.11l0,0
	v-0.096v-0.096v-0.097v-0.096v0.288v-0.096v-0.097v-0.096v-0.098v-0.096l0,0v-0.096v-0.097l0,0v-0.096l0,0v-0.098v-0.096l0,0v-0.096
	v-0.097l0,0l0,0v-0.096c-0.099,0-0.099,0-0.099,0v-0.097l0,0h-0.096c-0.099,0-0.099-0.097-0.099-0.097v-0.096v-0.097l0,0v-0.096l0,0
	v-0.097v-0.097v-0.096v-0.097v-0.096l0,0v-0.097v-0.097v-0.096v-0.386V28.03v-0.097l0,0v-0.096v-0.097v-0.097v-0.096v-0.097v-0.096
	V27.26l0,0v-0.097v-0.096v-0.097v-0.096l0,0v-0.097v-0.097l0,0v-0.096v-0.097l0,0v-0.096v-0.097l0,0V26.2l0,0v-0.096l0,0v-0.097
	v-0.096v-0.097v-0.097v-0.096v-0.097l0,0v-0.096v-0.097l0,0v-0.097l0,0v-0.096v-0.097v-0.096l0,0v-0.097v-0.097V24.66v-0.097v-0.096
	l0,0v-0.097v-0.096l0,0v-0.097l0,0v-0.097v-0.096l0,0V23.89v-0.096v-0.481v-0.097v-0.097v-0.096v-0.097v-0.096v-0.097l0,0v-0.097
	v-0.096l0,0v-0.097V22.35v-0.097v-0.097l0,0v-0.096v-0.097v-0.096v-0.097v-0.097l0,0v-0.096v-0.097V21.29v-0.097v-0.096l0,0v-0.097
	v-0.096v-0.097v-0.097v-0.096v-0.192v-0.097l0,0V20.23l0,0v-0.096l0,0v-0.097v-0.096l0,0v-0.097v-0.097v-0.096v-0.097v-0.096v-0.096
	l0,0v-0.098l0,0v-0.096l0,0v-0.097v-0.096v-0.096l0,0l0,0h0.101l0,0v-0.098V18.69h0.096l0,0v-0.097v-0.096v-0.096v-0.098l0,0v-0.096
	v-0.097v-0.096v-0.096v-0.098v-0.096v-0.097l0,0v-0.096v-0.096v-0.193v-0.097v-0.096l0,0v-0.097V16.86v-0.096v-0.096v-0.097l0,0
	v-0.097h-0.096h-0.097c-0.096,0-0.096,0-0.192,0h-0.097l0,0l-0.096-0.096l0,0v-0.096v-0.096l0,0v-0.096v-0.097v-0.096v-0.096l0,0
	h-0.097v-0.097v-0.096l0,0v-0.097v-0.096l0,0v-0.096v-0.097v-0.096v-0.097l0,0v-0.096v-0.096v-0.097h0.097h-0.097v-0.096
	c-0.096,0-0.096,0-0.192,0l0,0l-0.097-0.097v-0.096v-0.096v-0.097l0,0v-0.096v-0.096l-0.096-0.097h-0.097v0.097v0.096v0.096v0.097
	v0.096l0,0c-0.096,0-0.096,0-0.096,0c-0.096,0-0.193,0.096-0.289,0.096h-0.097l0,0v0.097v0.096l0,0l0,0v0.097l0,0l0,0h-1.059
	c-0.096,0-0.096,0-0.193,0l0,0h-0.096c-0.097,0-0.097,0-0.192,0l0,0c-0.096,0-0.096,0-0.193,0l0,0l0,0h-0.096h-0.097
	c-0.096,0-0.191,0-0.191,0c-0.191,0-0.29,0-0.384,0h-0.098c-0.098,0-0.29,0.096-0.385,0.096h-0.097c-0.098,0-0.098,0-0.098,0l0,0
	c-0.097,0-0.097,0-0.192,0v-0.096h-0.097h-0.097v-0.097h-0.095v-0.096l0,0V14.55v-0.096v-0.096l0,0v-0.097v-0.096v-0.096
	c-0.097,0-0.097,0-0.193,0h-0.096h-9.629v0.096v0.096v0.097l0,0v0.096v0.096v0.097l0,0v0.096v0.097h0.097h0.097
	c0.096,0,0.096,0.096,0.096,0.096v0.096l0,0v0.097v0.096v0.097v0.096v0.096v0.097v0.096v0.097c0,0.096,0.097,0.096,0.097,0.096
	c0,0.096,0,0.096,0,0.193l0.098,0.096h0.099h0.092l0,0h0.097l0,0h0.097v0.096l0,0v0.096v0.096l0,0v0.097v0.097v0.096v0.096v0.097
	v0.097l0,0v0.096l0,0v0.097l0,0v0.096v0.098l0,0v0.096v0.096v0.097v0.096v0.098v0.096l0,0v0.096l0,0v0.097l0,0v0.096v0.098l0,0
	v0.096v0.096v0.097v0.096l0,0v0.098v0.096v0.096v0.097l0,0v0.096v0.098v0.096v0.096v0.097v0.096v0.097l0,0v0.097v0.096v0.386v0.096
	l0,0v0.097v0.096l0,0v0.097v0.097v0.096v0.097l0,0v0.096v0.193v0.096v0.097l0,0v0.096v0.097l0,0v0.097v0.096v0.097v0.096v0.097
	v0.097v0.096v0.097v0.096l0,0v0.097v0.097l0,0v0.096v0.097v0.096v0.097l0,0v0.097v0.096v0.097v0.096l0,0v0.097v0.097v0.096l0,0
	v0.097l0,0v0.096v0.097l0,0v0.097v0.096v0.097v0.096v0.097v0.096v0.097v0.097v0.096l0,0v0.097v0.096l0,0v0.097v0.097l0,0v0.096
	v0.097l0,0v0.096v0.097v0.097v0.096l0,0v0.097v0.192v0.097l0,0v0.096l0,0l-0.097,0.097l0,0v0.096v0.097l0,0v0.097l0,0v0.096v0.097
	H42.15h-0.096c-2.696,0-5.392,0-7.992,0h-0.096l0,0h-0.096c-0.097,0-0.097,0-0.097,0h-0.096c-0.096,0-0.096,0-0.192,0v-0.097
	l-0.096-0.096h-0.097c-0.096,0-0.096,0-0.096,0H33.1v-0.097v-0.097v-0.096v-0.097l0,0v-0.096v-0.097V26.2v-0.096v-0.097v-0.096
	v-0.097l0,0v-0.097V26.2v-0.096v-0.097l0,0v-0.096v-0.097l0,0v-0.097v-0.096l0,0v-0.097v-0.096l0,0v-0.097v-0.097v-0.096v-0.097
	v-0.096v-0.097v-0.097V24.66v-0.097l0,0v-0.096v-0.097l0,0v-0.096l0,0v-0.097v-0.097v-0.096l0,0V23.89v-0.096v-0.097v-0.097l0,0
	v-0.096v-0.097v-0.096v-0.097l0,0v-0.097v-0.096l0,0v-0.097v-0.096v-0.097v-0.097v-0.096v-0.097V22.35v-0.097v-0.097l0,0v-0.096
	v-0.097l0,0v-0.096v-0.097v-0.097v-0.096l0,0v-0.097v-0.096V21.29v-0.097l0,0v-0.096v-0.097l0,0v-0.096v-0.097v-0.097v-0.096l0,0
	V20.52v-0.096v-0.097V20.23v-0.096v-0.674v-0.096l0,0v-0.098v-0.096v-0.097v-0.096l0,0v-0.096v-0.098V18.69v-0.097l0,0v-0.096
	v-0.096l0,0v-0.098l0,0v-0.096l0,0v-0.097v-0.096v-0.096v-0.098v-0.096v-0.097l0,0v-0.096v-0.096l0,0v-0.098l0,0v-0.096l0,0v-0.097
	l0,0l0,0v-0.096v-0.097V16.86v-0.096v-0.096v-0.097v-0.097l0,0v-0.096v-0.096v-0.096v-0.096l0,0v-0.097v-0.096l0,0l0,0v-0.096
	v-0.097v-0.096l0.096-0.097v-0.096h0.096h0.097l0,0v-0.096v-0.097l0,0h0.096c-0.578,0-1.059,0-1.637,0h-0.096l0,0
	c0,0.097,0,0.097,0,0.192v0.096v0.097v0.096v0.097c0,0.096,0,0.096,0,0.096v0.096v0.097l0,0l0.096,0.096l0.097,0.096v0.096v0.096
	l0,0v0.097v0.097v0.096l0,0l0,0v0.096l0,0l-0.097,0.097h-0.096c-0.192,0-0.289,0.097-0.481,0.097h-0.096l0,0
	c-0.096,0-0.096,0-0.096,0l0,0c-0.192,0-0.385,0-0.578,0l0,0l0,0v0.096l0,0v0.097l0,0v0.096h-0.096v0.098v0.096l0,0v0.096v0.097
	v0.096h-0.097l0,0v0.098v0.096l0,0v0.096l0,0v0.097l0,0v0.096v0.098l0,0v0.096l0,0v0.096v0.097l-0.096,0.096l0,0v0.098v0.096l0,0
	l0,0v0.096l0,0v0.097l0,0l0,0l-0.096,0.096v0.098v0.096v0.096v0.097l0,0l-0.096,0.096v0.097v0.578l-0.096,0.096l0,0v0.097v0.096l0,0
	v0.097v0.097v0.096v0.097l0,0v0.096h-0.097v0.193v0.096l-0.096,0.097l0,0v0.096v0.097l0,0v0.097h-0.096h-0.096l0,0v0.096h-0.096l0,0
	c-0.097,0-0.097,0-0.193,0l0,0h-0.096l0,0h-0.096c-0.578,0-1.156,0-1.733,0c-0.096,0-0.096,0-0.192,0l0,0c-0.096,0-0.193,0-0.193,0
	h-0.096l0,0h-0.096c-0.097,0-0.097,0-0.193,0l-1.444-0.096c-0.096,0-0.096,0-0.096,0h-0.097l-0.096-0.097v-0.097h-0.097v-0.096
	v-0.097v-0.096V21.29l-0.096-0.097l0,0v-0.096l0,0v-0.097v-0.096l0,0v-0.097v-0.097v-0.096l0,0V20.52l0,0v-0.096v-0.097V20.23
	v-0.096l0,0v-0.097v-0.096l0,0v-0.097l0,0h0.096l0,0v-0.097v-0.096l0,0v-0.097v-0.096l0,0h0.097v-0.096l0,0v-0.098l0,0l0,0v-0.096
	v-0.097l0,0l0,0v-0.096v-0.096l0,0v-0.098V18.69h0.096v-0.097v-0.096l0,0v-0.096v-0.098l0,0v-0.096v-0.097v-0.096v-0.096l0,0v-0.098
	v-0.096h0.097v-0.097v-0.096l0,0v-0.096v-0.098l0,0v-0.096l0,0l0,0v-0.097l0,0l0,0l0,0v-0.096v-0.097l0,0V16.86l-0.097-0.096l0,0
	l0,0v-0.096l-0.096-0.097l0,0c0,0,0-0.097-0.097-0.097h-0.096h-0.096l0,0c-0.097,0-0.097,0-0.192,0v-0.096c-0.096,0-0.096,0-0.193,0
	h-0.096v-0.096h-0.097v-0.096c-0.096,0-0.096,0-0.192,0l-0.097-0.096c-0.096,0-0.096-0.097-0.096-0.097h-0.097l0,0
	c-0.096,0-0.096-0.096-0.096-0.096l0,0l0,0l-0.096-0.096v-0.097l0,0l0,0v-0.096v-0.097l0,0v-0.096v-0.096l0,0v-0.097l0,0l0,0v-0.096
	v-0.097v-0.096h-0.097h-0.096H22.99c-0.096,0-0.096,0-0.096,0h-0.096v-0.096c-0.097,0-0.097,0-0.097,0h-0.096v-0.097v-0.096V14.55
	c-1.637,0-3.273,0-5.007,0h-0.096l0,0c-0.096,0-0.096,0-0.193,0l0,0l-0.096-0.096l0,0l0,0l-0.096-0.096l0,0v-0.097l0,0v-0.096
	v-0.096l0,0v-0.097v-0.096l0,0V13.78c-0.771,0-1.444,0-2.119,0c-0.096,0-0.193,0-0.289,0c-0.097,0-0.193,0-0.193,0l-0.096,0.097
	c0,0-0.097,0.096-0.192,0.096h-0.193h-0.096v0.097c0,0.096-0.097,0.192-0.097,0.289l-6.258,4.91c-0.096,0.098-0.192,0.098-0.289,0
	H7.199c-0.096,0-0.096,0-0.096,0c-0.096,0-0.096,0.098-0.192,0.098c0,0.098,0,0.098,0,0.191c0,0.097-0.096,0.192-0.096,0.289
	l-0.578-2.311c-0.096,0-0.096,0-0.192,0l0,0l0,0l-0.096,0.096l0,0l0,0c-0.096,0-0.096,0.097-0.096,0.097l0,0l0,0H5.755H5.659
	l-0.096,0.096l0,0H5.466H4.792c-0.096,0-0.096,0-0.192,0l0,0H4.503c-0.096,0-0.096,0-0.193,0c0,0-0.096-0.096-0.192-0.096v-0.097
	c-0.097,0-0.097,0-0.097,0l0,0H3.926l-0.097-0.096l0,0v-0.096v-0.098l0,0l-0.096-0.096v-0.097v-0.096v-0.097l0,0V16.86v-0.096l0,0
	v-0.096v-0.097l0,0v-0.097v-0.096l0,0v-0.096H3.637l0,0v-0.096l0,0v-0.096l0,0l-0.097-0.097v-0.096v-0.096v-0.097l0,0v-0.096v-0.097
	l0,0v-0.096l0,0l-0.096-0.096v-0.097v-0.096l0,0v-0.097v-0.096v-0.096v-0.097l0,0v-0.096V14.55l-0.097-0.096l0,0v-0.096l0,0v-0.097
	v-0.096l0,0v-0.096v-0.097l0,0l0,0v-0.096V13.78v-0.096v-0.096l0,0l0,0v-0.097l0,0v-0.096v-0.097l0,0v-0.096v-0.096l0,0v-0.097
	v-0.096l0,0v-0.097v-0.096v-0.096v-0.097v-0.096l0,0v-0.097l0,0l0,0v-0.096v-0.096v-0.097v-0.096l0,0v-0.097l-0.096-0.096v-0.963
	v-0.096v-0.097v-0.096V10.41l0,0v-0.097v-0.096v-0.097v-0.096l0,0V9.929C2,9.832,2,9.832,2,9.736l0,0V9.639V9.543l0,0V9.447V9.351
	l0,0l0.096-0.096l0,0V9.158l0,0V9.062V8.966h0.097V8.869V8.773h0.096V8.677l0.097-0.096l0,0l0,0c0.096,0,0.096,0,0.096,0
	c0.096,0,0.096,0,0.193,0l0,0c0,0,0.096,0,0.192,0l0,0l0,0l0,0h0.096l0,0h0.096c0.097,0,0.097,0,0.097,0h0.096h0.096
	c0.578-0.385,0.578-0.385,0.771-0.385h9.05c0.097,0,0.192,0,0.192,0c0.097,0,0.097-0.096,0.193-0.096s0.096-0.096,0.193-0.096h0.096
	c0.097,0,0.097,0,0.193,0s0.096,0,0.193,0c1.733,0,3.562,0,5.392,0l0,0V7.906V7.714V7.618V7.521h0.096l0,0V7.425V7.329l0,0
	l0.096-0.096l0,0c0.097,0,0.097-0.096,0.193-0.096h0.096V7.04l0.192-0.193h0.097c0.096,0,0.192,0,0.289,0h0.096l0,0h0.097l0,0V6.751
	V6.655h0.096V6.559V6.462l0,0V6.366V6.27l0,0h-0.096l0,0V6.173l0,0V6.077V5.981l0,0V5.884V5.788V5.692V5.596l0,0h0.096h0.096l0,0
	l0,0h0.096l0,0h0.096h0.097h0.096h0.096h0.096V5.5l0,0V5.403V5.307h0.096V5.21V5.114h0.097c0.096,0,0.096,0,0.096,0l0,0
	c0.192,0,0.385,0,0.577,0h0.097h0.096V5.21l0.097,0.096l0,0v0.096V5.5h0.096c0.096,0,0.192,0,0.289,0c0.097,0,0.097,0,0.193,0
	l0.096,0.096h0.097l0,0v0.096v0.096l0,0c0,0,0,0.096,0.096,0.096c0.097,0,0.097,0,0.097,0l0,0c0.096,0,0.096,0,0.096,0
	c0.481,0,0.963,0,1.444,0c0.192,0,0.481,0,0.77,0h0.096h0.097l0,0h0.096c0.097,0,0.097,0.097,0.097,0.097l0,0h0.096l0,0
	c0.096,0,0.096,0.096,0.096,0.096v0.096h0.097V6.27v0.096v0.097h0.096h0.096h0.097v0.096V5.981v0.096v0.096V6.27v0.096l0,0l0,0
	v0.097v0.096l0,0l0,0l0,0v0.096l0,0v0.096l0,0h0.096c1.155,0,2.214,0,3.37,0l0,0l0,0l0,0h0.096c0,0,0.096,0,0.192,0V6.655
	l0.097-0.096l0,0l0.096-0.096V6.366l0.096-0.096l0,0h0.096l0,0c0.096,0,0.096,0,0.193,0l0.096,0.096l0.096,0.097v0.096
	c0.096-0.096,0.096-0.096,0.192-0.096s0.096,0,0.193-0.097c0.096,0,0.192,0,0.289,0l0,0c0.096,0,0.193,0,0.289,0l0.096,0.097
	c0-0.097,0-0.097,0-0.097c0.096-0.096,0.192-0.096,0.289-0.096h2.214c0.096,0,0.193,0,0.193,0.096c0,0.097,0.096,0.097,0.096,0.193
	c0.192,0,0.289,0,0.385,0c0.096,0,0.096,0,0.192,0h0.097c0.963,0,1.926,0,2.888,0c0.097,0,0.097,0,0.097,0c0.096,0,0.096,0,0.096,0
	c0.097,0,0.097,0.096,0.097,0.096l0.096,0.096l0,0l0,0l0.096-0.096V6.559l0,0h0.097l0,0h0.096h0.097v0.096v0.096l0,0l0,0h0.096
	c0.096,0,0.096,0,0.193,0h0.096l0,0c0.578,0,1.155,0,1.733,0l0,0l0.097-0.096l0.096-0.096l0,0c0.098,0,0.098,0,0.192,0
	c0.192,0,0.386,0,0.675,0V6.462h0.096h0.096l0,0c0.097,0,0.097-0.097,0.193-0.097c0.096,0,0.191,0,0.289,0l0,0l0,0l0.096-0.096
	c0.097,0,0.097,0,0.097,0c0.098,0,0.191,0,0.191,0h0.098l0,0l0,0l0,0h0.096c0.097,0,0.097,0,0.097,0l0,0h0.096V5.596V5.5V5.403
	H44.27l0,0l0,0l-0.867-1.348c-0.096,0-0.096-0.097-0.192-0.193c0-0.096,0-0.096,0-0.192l0,0h-0.097h-0.096h-0.096
	c-0.097,0-0.097,0-0.097,0c-0.099,0-0.192-0.096-0.29-0.096h-0.096l0,0h-0.096c-0.099,0-0.099,0-0.099,0c-0.096,0-0.096,0-0.19,0
	h-0.098l-0.099-0.097l-0.093-0.096H41.67c-0.097,0-0.097,0-0.097,0c-0.097,0-0.097,0-0.097,0V3.285h-0.096V3.188l0,0l0,0l0,0l0,0
	h-0.097l-0.096-0.096V2.996V2.899V2.804l0,0V2.707V2.611l0,0l0,0V2.514l0,0V2.418l0,0l0,0l0.096-0.096h0.097l0,0
	c0-0.097,0.096-0.193,0.192-0.193c-0.385-0.963-0.289-0.963-0.192-0.963l0.289,0.096c0.096,0,0.192,0.097,0.289,0.192
	c0.096,0.097,0.096,0.193,0,0.289h0.096h0.096h0.097h0.097c0.096,0,0.096,0,0.096,0l0,0h0.096c0.1,0,0.1,0,0.1,0l0,0
	c0-0.096,0-0.096,0.096-0.096c0.099-0.096,0.192-0.096,0.291-0.096c0.096,0,0.096,0,0.19,0l4.718,1.252c0.097,0,0.191,0,0.191,0.096
	v0.096h0.096h0.096h0.097v0.097h0.097h0.097v0.096h0.096l0,0l0,0c0.096,0,0.096,0,0.192,0l0,0c0.097,0,0.097,0.097,0.097,0.097l0,0
	l0.097,0.096v0.096l0,0v0.097V3.67l0,0v0.097l0,0v0.096l0,0v0.096v0.097v0.096v0.097v0.096V4.44l0,0v0.097v0.096l0,0v0.096v0.096
	v0.096v0.097l0,0v0.096V5.21v0.096v0.096V5.5l0,0v0.096v0.096v0.096l0,0v0.096v0.097l0,0v0.096v0.096l0,0h-0.097V6.27h-0.097h-0.097
	l0,0l0,0l0,0l0,0h-0.096c-0.481,0-0.963,0-1.444,0l0,0l0,0l0,0l0,0c-0.096,0-0.096,0-0.096,0c-0.099,0-0.099,0.096-0.193,0.096
	v0.097v0.096v0.096v0.096c2.215,0,4.43,0,6.644,0l0,0V6.655V6.559v0.866V7.329V7.232h0.097h0.096h0.098V7.136h0.096l0,0l0,0V7.04
	l0,0V6.944V6.847V6.751V6.655l0,0V6.559V6.462l0,0h-0.096l0,0V6.366l0,0V6.27l0.096-0.096l0,0h0.096h0.097V6.077h0.096V5.981V5.884
	l0,0l0,0h0.098V5.788l0,0l0,0h0.096c0.192,0,0.386,0,0.577,0l0,0h0.097l0,0c0.096,0,0.096,0,0.193,0
	c0.096,0,0.096,0.096,0.096,0.096l0,0l0,0c0.096,0,0.096,0,0.096,0l0,0c0.097,0,0.097,0.097,0.192,0.097l0,0l0,0v0.096v0.096V6.27
	v0.096v0.097v0.096v0.096l0,0l0,0l0,0l0,0c0.097,0,0.097,0.096,0.193,0.096l0,0l0,0v0.096h0.096l0,0l0,0v0.097V7.04l0,0v0.096v0.096
	v0.096v0.096l0,0v0.097v0.096v0.096l0,0V7.81v0.193h0.097h0.096c0.097,0,0.097,0.096,0.097,0.096v0.096h0.097l0,0v0.096l0,0
	c7.125,0,14.25,0,21.375,0c0.096,0,0.193,0,0.289,0s0.192,0.096,0.288,0.096C79.605,8.099,79.702,8.195,79.798,8.195z
	 M58.134,15.609L58.134,15.609L58.134,15.609L58.134,15.609z M56.594,6.462L56.594,6.462c0,0.096,0,0.192,0,0.192l0,0v0.096V6.655
	V6.559V6.462L56.594,6.462L56.594,6.462z M54.668,7.425L54.668,7.425L54.668,7.425L54.668,7.425z M54.476,7.618
	C54.571,7.618,54.571,7.618,54.476,7.618L54.476,7.618L54.476,7.618L54.476,7.618z M47.64,5.403L47.64,5.403V5.5V5.403L47.64,5.403
	C47.64,5.307,47.64,5.307,47.64,5.403L47.64,5.403L47.64,5.403z M45.136,6.944c-0.096,0-0.193,0-0.289,0
	C44.942,7.04,45.04,7.04,45.136,6.944L45.136,6.944z M56.305,15.609L56.305,15.609L56.305,15.609L56.305,15.609z M23.183,12.335
	L23.183,12.335L23.183,12.335C23.183,12.239,23.183,12.335,23.183,12.335L23.183,12.335z M26.071,15.031
	C26.167,15.128,26.167,15.128,26.071,15.031L26.071,15.031C26.167,15.031,26.167,15.031,26.071,15.031z M31.078,15.994
	c0,0.097-0.096,0.097-0.096,0.097h0.096C31.174,16.091,31.174,15.994,31.078,15.994L31.078,15.994z M12.688,10.41H5.082v0.096
	c0,0.096,0,0.096,0,0.096v0.097v0.096v0.097v0.096c0,0.096,0.096,0.096,0.096,0.096c0,0.097,0,0.097,0,0.193l0,0
	c0,0.097,0,0.097,0,0.097c0,0.096,0,0.096,0,0.192c0,0.097,0.096,0.097,0.096,0.097v0.096l0,0c0.097,0,0.097,0,0.193,0
	c0.096,0.096,0.096,0.096,0.192,0.193l0.674,2.021l1.155-0.866c0.096-0.097,0.192-0.097,0.289-0.097
	c0.096,0,0.192,0.097,0.192,0.097l0.096-0.097l0.096-0.096v-0.097l0,0h0.096v-0.096c0.097,0,0.193-0.096,0.193-0.096l0,0h0.096
	l0.096-0.097H8.74h0.097c0,0,0-0.096,0.096-0.096l0.096-0.097l0.096-0.096c0.096,0,0.096-0.096,0.096-0.096h0.097h0.096v-0.097H9.51
	h0.096v-0.096c0.096,0,0.096-0.097,0.096-0.097l0,0l0.097-0.096c0.866,0.096,0.866,0,0.866,0c0.097,0,0.097-0.096,0.097-0.096l0,0
	v-0.097l0.096-0.096h0.096l0.097-0.096v-0.097h0.096V11.18c0.097,0,0.097,0,0.097,0l0.096-0.097h0.096l0.097-0.096l0.096-0.096
	h0.097c0.096,0,0.096-0.097,0.096-0.097h0.096l0,0v-0.096c0.097,0,0.097-0.097,0.097-0.097C12.591,10.41,12.591,10.41,12.688,10.41z
	"/>
<g>
	<defs>
		<path id="SVGID_3_" d="M79.798,8.195l0.097,0.096c0,0.096,0.097,0.096,0.097,0.193c0,0.096,0,0.096,0,0.192l0.096,0.096l0,0h0.097
			v0.096h0.096l0,0v0.097v0.096l0,0v0.096v0.096l0,0l0,0v0.096v0.097v0.096v0.096h-0.096h-0.097l0,0l0,0v0.097v0.096l0,0l0,0v0.097
			h-0.096l0,0h-0.097l0,0l0,0c-0.771,0-1.637,0-2.406,0l0,0c-0.1,0-0.1,0-0.1,0l0,0h-0.096h-0.097
			c-6.354,0-12.613,0.096-18.871,0.096h-0.097l0,0v0.096v0.097v0.096v0.097l0,0v0.096v0.096v0.29v0.096l0,0v0.096v0.097v0.096v0.097
			v0.096h0.097h0.096l0,0h0.099h0.096v0.096l0,0v0.097l0,0h0.097l0,0v0.096v0.096l0,0l0,0c-0.099,0-0.099,0.097-0.099,0.097v0.096
			v0.097v0.096v0.096v0.097v0.096v0.097v0.096l0,0v0.096v0.097l0,0v0.096l0,0v0.097v0.096v0.096l0,0v0.097v0.096v0.097v0.096l0,0
			v0.096v0.097v0.096v0.097l0,0v0.096v0.096l0,0v0.097v0.096v0.096v0.097l0,0l0,0l0,0c-0.096,0-0.096,0-0.096,0
			c-0.099,0-0.192,0-0.29,0h-0.094l0,0l0,0v0.096l0,0v0.097v0.096l0,0v0.096v0.097v0.096v0.097v0.096v0.096l0,0v0.097l0,0v0.096l0,0
			v0.097v0.096l0,0v0.096v0.097v0.096v0.096v0.096v0.096l0,0v0.097l0,0v0.097l0,0h0.097l0,0h0.097v0.096l0,0v0.096l0,0l0,0l0,0
			v0.097v0.097l0,0v0.096l0,0v0.097l0,0v0.096v0.098v2.021v0.096v0.097v0.096l0,0v0.097v0.097l0,0v0.096l0,0v0.097l0,0v0.096v0.097
			v0.097v0.096v0.097v0.096v0.097l0,0v0.097v0.096v0.386v0.096v0.097l0,0v0.096v0.097v0.097v0.096v0.097l0,0v0.096v0.097v0.097
			v0.096l0,0v0.097v0.096l0,0v0.097v0.097v0.096v0.097v0.096v0.097v0.097v0.096v0.097l0,0v0.096v0.097l0,0v0.097l0,0v0.096v0.097
			l0,0v0.096v0.097v0.097v0.096v0.097l0,0v0.096v0.097v0.096l0,0v0.097l0,0v0.097v0.096l0,0v0.097v0.096v0.097v0.097v0.096v0.097
			l0,0v0.096l0,0v0.097l0,0v0.097v0.096l0,0v0.097V26.2l0,0v0.097v0.097l0,0v0.096v0.097v0.577v0.097l0,0v0.097v0.096v0.097v0.096
			v0.097v0.097v0.096l0,0v0.097v0.096v0.097v0.097v0.096v0.097l0,0v0.096v0.097v0.097v0.096v0.097l0,0v0.096h0.096v0.097v0.097
			v0.096c-0.096,0-0.096,0-0.096,0c-0.097,0-0.289,0-0.386,0v0.097l-0.096,0.096l0,0v0.097v0.097l0,0v0.096l0,0v0.097v0.096v0.096
			l0,0v0.098v0.096v0.097v0.096l0,0v0.096v0.098v0.096l0,0v0.097l0,0v0.096v0.096l0,0v0.098l0,0h0.096l0,0v0.096V31.4l0,0
			c-0.096,0-0.096,0-0.096,0c-0.386,0-0.771,0-1.06,0c-0.099,0-0.099,0-0.099,0h-0.096v-0.097v-0.096h0.096h0.099l0,0V31.11l0,0
			v-0.096v-0.096v-0.097v-0.096v0.288v-0.096v-0.097v-0.096v-0.098v-0.096l0,0v-0.096v-0.097l0,0v-0.096l0,0v-0.098v-0.096l0,0
			v-0.096v-0.097l0,0l0,0v-0.096c-0.099,0-0.099,0-0.099,0v-0.097l0,0h-0.096c-0.099,0-0.099-0.097-0.099-0.097v-0.096v-0.097l0,0
			v-0.096l0,0v-0.097v-0.097v-0.096v-0.097v-0.096l0,0v-0.097v-0.097v-0.096v-0.386V28.03v-0.097l0,0v-0.096v-0.097v-0.097v-0.096
			v-0.097v-0.096V27.26l0,0v-0.097v-0.096v-0.097v-0.096l0,0v-0.097v-0.097l0,0v-0.096v-0.097l0,0v-0.096v-0.097l0,0V26.2l0,0
			v-0.096l0,0v-0.097v-0.096v-0.097v-0.097v-0.096v-0.097l0,0v-0.096v-0.097l0,0v-0.097l0,0v-0.096v-0.097v-0.096l0,0v-0.097v-0.097
			V24.66v-0.097v-0.096l0,0v-0.097v-0.096l0,0v-0.097l0,0v-0.097v-0.096l0,0V23.89v-0.096v-0.481v-0.097v-0.097v-0.096v-0.097
			v-0.096v-0.097l0,0v-0.097v-0.096l0,0v-0.097V22.35v-0.097v-0.097l0,0v-0.096v-0.097v-0.096v-0.097v-0.097l0,0v-0.096v-0.097
			V21.29v-0.097v-0.096l0,0v-0.097v-0.096v-0.097v-0.097v-0.096v-0.192v-0.097l0,0V20.23l0,0v-0.096l0,0v-0.097v-0.096l0,0v-0.097
			v-0.097v-0.096v-0.097v-0.096v-0.096l0,0v-0.098l0,0v-0.096l0,0v-0.097v-0.096v-0.096l0,0l0,0h0.101l0,0v-0.098V18.69h0.096l0,0
			v-0.097v-0.096v-0.096v-0.098l0,0v-0.096v-0.097v-0.096v-0.096v-0.098v-0.096v-0.097l0,0v-0.096v-0.096v-0.193v-0.097v-0.096l0,0
			v-0.097V16.86v-0.096v-0.096v-0.097l0,0v-0.097h-0.096h-0.097c-0.096,0-0.096,0-0.192,0h-0.097l0,0l-0.096-0.096l0,0v-0.096
			v-0.096l0,0v-0.096v-0.097v-0.096v-0.096l0,0h-0.097v-0.097v-0.096l0,0v-0.097v-0.096l0,0v-0.096v-0.097v-0.096v-0.097l0,0v-0.096
			v-0.096v-0.097h0.097h-0.097v-0.096c-0.096,0-0.096,0-0.192,0l0,0l-0.097-0.097v-0.096v-0.096v-0.097l0,0v-0.096v-0.096
			l-0.096-0.097h-0.097v0.097v0.096v0.096v0.097v0.096l0,0c-0.096,0-0.096,0-0.096,0c-0.096,0-0.193,0.096-0.289,0.096h-0.097l0,0
			v0.097v0.096l0,0l0,0v0.097l0,0l0,0h-1.059c-0.096,0-0.096,0-0.193,0l0,0h-0.096c-0.097,0-0.097,0-0.192,0l0,0
			c-0.096,0-0.096,0-0.193,0l0,0l0,0h-0.096h-0.097c-0.096,0-0.191,0-0.191,0c-0.191,0-0.29,0-0.384,0h-0.098
			c-0.098,0-0.29,0.096-0.385,0.096h-0.097c-0.098,0-0.098,0-0.098,0l0,0c-0.097,0-0.097,0-0.192,0v-0.096h-0.097h-0.097v-0.097
			h-0.095v-0.096l0,0V14.55v-0.096v-0.096l0,0v-0.097v-0.096v-0.096c-0.097,0-0.097,0-0.193,0h-0.096h-9.629v0.096v0.096v0.097l0,0
			v0.096v0.096v0.097l0,0v0.096v0.097h0.097h0.097c0.096,0,0.096,0.096,0.096,0.096v0.096l0,0v0.097v0.096v0.097v0.096v0.096v0.097
			v0.096v0.097c0,0.096,0.097,0.096,0.097,0.096c0,0.096,0,0.096,0,0.193l0.098,0.096h0.099h0.092l0,0h0.097l0,0h0.097v0.096l0,0
			v0.096v0.096l0,0v0.097v0.097v0.096v0.096v0.097v0.097l0,0v0.096l0,0v0.097l0,0v0.096v0.098l0,0v0.096v0.096v0.097v0.096v0.098
			v0.096l0,0v0.096l0,0v0.097l0,0v0.096v0.098l0,0v0.096v0.096v0.097v0.096l0,0v0.098v0.096v0.096v0.097l0,0v0.096v0.098v0.096
			v0.096v0.097v0.096v0.097l0,0v0.097v0.096v0.386v0.096l0,0v0.097v0.096l0,0v0.097v0.097v0.096v0.097l0,0v0.096v0.193v0.096v0.097
			l0,0v0.096v0.097l0,0v0.097v0.096v0.097v0.096v0.097v0.097v0.096v0.097v0.096l0,0v0.097v0.097l0,0v0.096v0.097v0.096v0.097l0,0
			v0.097v0.096v0.097v0.096l0,0v0.097v0.097v0.096l0,0v0.097l0,0v0.096v0.097l0,0v0.097v0.096v0.097v0.096v0.097v0.096v0.097v0.097
			v0.096l0,0v0.097v0.096l0,0v0.097v0.097l0,0v0.096v0.097l0,0v0.096v0.097v0.097v0.096l0,0v0.097v0.192v0.097l0,0v0.096l0,0
			l-0.097,0.097l0,0v0.096v0.097l0,0v0.097l0,0v0.096v0.097H42.15h-0.096c-2.696,0-5.392,0-7.992,0h-0.096l0,0h-0.096
			c-0.097,0-0.097,0-0.097,0h-0.096c-0.096,0-0.096,0-0.192,0v-0.097l-0.096-0.096h-0.097c-0.096,0-0.096,0-0.096,0H33.1v-0.097
			v-0.097v-0.096v-0.097l0,0v-0.096v-0.097V26.2v-0.096v-0.097v-0.096v-0.097l0,0v-0.097V26.2v-0.096v-0.097l0,0v-0.096v-0.097l0,0
			v-0.097v-0.096l0,0v-0.097v-0.096l0,0v-0.097v-0.097v-0.096v-0.097v-0.096v-0.097v-0.097V24.66v-0.097l0,0v-0.096v-0.097l0,0
			v-0.096l0,0v-0.097v-0.097v-0.096l0,0V23.89v-0.096v-0.097v-0.097l0,0v-0.096v-0.097v-0.096v-0.097l0,0v-0.097v-0.096l0,0v-0.097
			v-0.096v-0.097v-0.097v-0.096v-0.097V22.35v-0.097v-0.097l0,0v-0.096v-0.097l0,0v-0.096v-0.097v-0.097v-0.096l0,0v-0.097v-0.096
			V21.29v-0.097l0,0v-0.096v-0.097l0,0v-0.096v-0.097v-0.097v-0.096l0,0V20.52v-0.096v-0.097V20.23v-0.096v-0.674v-0.096l0,0v-0.098
			v-0.096v-0.097v-0.096l0,0v-0.096v-0.098V18.69v-0.097l0,0v-0.096v-0.096l0,0v-0.098l0,0v-0.096l0,0v-0.097v-0.096v-0.096v-0.098
			v-0.096v-0.097l0,0v-0.096v-0.096l0,0v-0.098l0,0v-0.096l0,0v-0.097l0,0l0,0v-0.096v-0.097V16.86v-0.096v-0.096v-0.097v-0.097l0,0
			v-0.096v-0.096v-0.096v-0.096l0,0v-0.097v-0.096l0,0l0,0v-0.096v-0.097v-0.096l0.096-0.097v-0.096h0.096h0.097l0,0v-0.096v-0.097
			l0,0h0.096c-0.578,0-1.059,0-1.637,0h-0.096l0,0c0,0.097,0,0.097,0,0.192v0.096v0.097v0.096v0.097c0,0.096,0,0.096,0,0.096v0.096
			v0.097l0,0l0.096,0.096l0.097,0.096v0.096v0.096l0,0v0.097v0.097v0.096l0,0l0,0v0.096l0,0l-0.097,0.097h-0.096
			c-0.192,0-0.289,0.097-0.481,0.097h-0.096l0,0c-0.096,0-0.096,0-0.096,0l0,0c-0.192,0-0.385,0-0.578,0l0,0l0,0v0.096l0,0v0.097
			l0,0v0.096h-0.096v0.098v0.096l0,0v0.096v0.097v0.096h-0.097l0,0v0.098v0.096l0,0v0.096l0,0v0.097l0,0v0.096v0.098l0,0v0.096l0,0
			v0.096v0.097l-0.096,0.096l0,0v0.098v0.096l0,0l0,0v0.096l0,0v0.097l0,0l0,0l-0.096,0.096v0.098v0.096v0.096v0.097l0,0
			l-0.096,0.096v0.097v0.578l-0.096,0.096l0,0v0.097v0.096l0,0v0.097v0.097v0.096v0.097l0,0v0.096h-0.097v0.193v0.096l-0.096,0.097
			l0,0v0.096v0.097l0,0v0.097h-0.096h-0.096l0,0v0.096h-0.096l0,0c-0.097,0-0.097,0-0.193,0l0,0h-0.096l0,0h-0.096
			c-0.578,0-1.156,0-1.733,0c-0.096,0-0.096,0-0.192,0l0,0c-0.096,0-0.193,0-0.193,0h-0.096l0,0h-0.096c-0.097,0-0.097,0-0.193,0
			l-1.444-0.096c-0.096,0-0.096,0-0.096,0h-0.097l-0.096-0.097v-0.097h-0.097v-0.096v-0.097v-0.096V21.29l-0.096-0.097l0,0v-0.096
			l0,0v-0.097v-0.096l0,0v-0.097v-0.097v-0.096l0,0V20.52l0,0v-0.096v-0.097V20.23v-0.096l0,0v-0.097v-0.096l0,0v-0.097l0,0h0.096
			l0,0v-0.097v-0.096l0,0v-0.097v-0.096l0,0h0.097v-0.096l0,0v-0.098l0,0l0,0v-0.096v-0.097l0,0l0,0v-0.096v-0.096l0,0v-0.098V18.69
			h0.096v-0.097v-0.096l0,0v-0.096v-0.098l0,0v-0.096v-0.097v-0.096v-0.096l0,0v-0.098v-0.096h0.097v-0.097v-0.096l0,0v-0.096
			v-0.098l0,0v-0.096l0,0l0,0v-0.097l0,0l0,0l0,0v-0.096v-0.097l0,0V16.86l-0.097-0.096l0,0l0,0v-0.096l-0.096-0.097l0,0
			c0,0,0-0.097-0.097-0.097h-0.096h-0.096l0,0c-0.097,0-0.097,0-0.192,0v-0.096c-0.096,0-0.096,0-0.193,0h-0.096v-0.096h-0.097
			v-0.096c-0.096,0-0.096,0-0.192,0l-0.097-0.096c-0.096,0-0.096-0.097-0.096-0.097h-0.097l0,0c-0.096,0-0.096-0.096-0.096-0.096
			l0,0l0,0l-0.096-0.096v-0.097l0,0l0,0v-0.096v-0.097l0,0v-0.096v-0.096l0,0v-0.097l0,0l0,0v-0.096v-0.097v-0.096h-0.097h-0.096
			H22.99c-0.096,0-0.096,0-0.096,0h-0.096v-0.096c-0.097,0-0.097,0-0.097,0h-0.096v-0.097v-0.096V14.55c-1.637,0-3.273,0-5.007,0
			h-0.096l0,0c-0.096,0-0.096,0-0.193,0l0,0l-0.096-0.096l0,0l0,0l-0.096-0.096l0,0v-0.097l0,0v-0.096v-0.096l0,0v-0.097v-0.096l0,0
			V13.78c-0.771,0-1.444,0-2.119,0c-0.096,0-0.193,0-0.289,0c-0.097,0-0.193,0-0.193,0l-0.096,0.097c0,0-0.097,0.096-0.192,0.096
			h-0.193h-0.096v0.097c0,0.096-0.097,0.192-0.097,0.289l-6.258,4.91c-0.096,0.098-0.192,0.098-0.289,0H7.199
			c-0.096,0-0.096,0-0.096,0c-0.096,0-0.096,0.098-0.192,0.098c0,0.098,0,0.098,0,0.191c0,0.097-0.096,0.192-0.096,0.289
			l-0.578-2.311c-0.096,0-0.096,0-0.192,0l0,0l0,0l-0.096,0.096l0,0l0,0c-0.096,0-0.096,0.097-0.096,0.097l0,0l0,0H5.755H5.659
			l-0.096,0.096l0,0H5.466H4.792c-0.096,0-0.096,0-0.192,0l0,0H4.503c-0.096,0-0.096,0-0.193,0c0,0-0.096-0.096-0.192-0.096v-0.097
			c-0.097,0-0.097,0-0.097,0l0,0H3.926l-0.097-0.096l0,0v-0.096v-0.098l0,0l-0.096-0.096v-0.097v-0.096v-0.097l0,0V16.86v-0.096l0,0
			v-0.096v-0.097l0,0v-0.097v-0.096l0,0v-0.096H3.637l0,0v-0.096l0,0v-0.096l0,0l-0.097-0.097v-0.096v-0.096v-0.097l0,0v-0.096
			v-0.097l0,0v-0.096l0,0l-0.096-0.096v-0.097v-0.096l0,0v-0.097v-0.096v-0.096v-0.097l0,0v-0.096V14.55l-0.097-0.096l0,0v-0.096
			l0,0v-0.097v-0.096l0,0v-0.096v-0.097l0,0l0,0v-0.096V13.78v-0.096v-0.096l0,0l0,0v-0.097l0,0v-0.096v-0.097l0,0v-0.096v-0.096
			l0,0v-0.097v-0.096l0,0v-0.097v-0.096v-0.096v-0.097v-0.096l0,0v-0.097l0,0l0,0v-0.096v-0.096v-0.097v-0.096l0,0v-0.097
			l-0.096-0.096v-0.963v-0.096v-0.097v-0.096V10.41l0,0v-0.097v-0.096v-0.097v-0.096l0,0V9.929C2,9.832,2,9.832,2,9.736l0,0V9.639
			V9.543l0,0V9.447V9.351l0,0l0.096-0.096l0,0V9.158l0,0V9.062V8.966h0.097V8.869V8.773h0.096V8.677l0.097-0.096l0,0l0,0
			c0.096,0,0.096,0,0.096,0c0.096,0,0.096,0,0.193,0l0,0c0,0,0.096,0,0.192,0l0,0l0,0l0,0h0.096l0,0h0.096c0.097,0,0.097,0,0.097,0
			h0.096h0.096c0.578-0.385,0.578-0.385,0.771-0.385h9.05c0.097,0,0.192,0,0.192,0c0.097,0,0.097-0.096,0.193-0.096
			s0.096-0.096,0.193-0.096h0.096c0.097,0,0.097,0,0.193,0s0.096,0,0.193,0c1.733,0,3.562,0,5.392,0l0,0V7.906V7.714V7.618V7.521
			h0.096l0,0V7.425V7.329l0,0l0.096-0.096l0,0c0.097,0,0.097-0.096,0.193-0.096h0.096V7.04l0.192-0.193h0.097
			c0.096,0,0.192,0,0.289,0h0.096l0,0h0.097l0,0V6.751V6.655h0.096V6.559V6.462l0,0V6.366V6.27l0,0h-0.096l0,0V6.173l0,0V6.077
			V5.981l0,0V5.884V5.788V5.692V5.596l0,0h0.096h0.096l0,0l0,0h0.096l0,0h0.096h0.097h0.096h0.096h0.096V5.5l0,0V5.403V5.307h0.096
			V5.21V5.114h0.097c0.096,0,0.096,0,0.096,0l0,0c0.192,0,0.385,0,0.577,0h0.097h0.096V5.21l0.097,0.096l0,0v0.096V5.5h0.096
			c0.096,0,0.192,0,0.289,0c0.097,0,0.097,0,0.193,0l0.096,0.096h0.097l0,0v0.096v0.096l0,0c0,0,0,0.096,0.096,0.096
			c0.097,0,0.097,0,0.097,0l0,0c0.096,0,0.096,0,0.096,0c0.481,0,0.963,0,1.444,0c0.192,0,0.481,0,0.77,0h0.096h0.097l0,0h0.096
			c0.097,0,0.097,0.097,0.097,0.097l0,0h0.096l0,0c0.096,0,0.096,0.096,0.096,0.096v0.096h0.097V6.27v0.096v0.097h0.096h0.096h0.097
			v0.096V5.981v0.096v0.096V6.27v0.096l0,0l0,0v0.097v0.096l0,0l0,0l0,0v0.096l0,0v0.096l0,0h0.096c1.155,0,2.214,0,3.37,0l0,0l0,0
			l0,0h0.096c0,0,0.096,0,0.192,0V6.655l0.097-0.096l0,0l0.096-0.096V6.366l0.096-0.096l0,0h0.096l0,0c0.096,0,0.096,0,0.193,0
			l0.096,0.096l0.096,0.097v0.096c0.096-0.096,0.096-0.096,0.192-0.096s0.096,0,0.193-0.097c0.096,0,0.192,0,0.289,0l0,0
			c0.096,0,0.193,0,0.289,0l0.096,0.097c0-0.097,0-0.097,0-0.097c0.096-0.096,0.192-0.096,0.289-0.096h2.214
			c0.096,0,0.193,0,0.193,0.096c0,0.097,0.096,0.097,0.096,0.193c0.192,0,0.289,0,0.385,0c0.096,0,0.096,0,0.192,0h0.097
			c0.963,0,1.926,0,2.888,0c0.097,0,0.097,0,0.097,0c0.096,0,0.096,0,0.096,0c0.097,0,0.097,0.096,0.097,0.096l0.096,0.096l0,0l0,0
			l0.096-0.096V6.559l0,0h0.097l0,0h0.096h0.097v0.096v0.096l0,0l0,0h0.096c0.096,0,0.096,0,0.193,0h0.096l0,0
			c0.578,0,1.155,0,1.733,0l0,0l0.097-0.096l0.096-0.096l0,0c0.098,0,0.098,0,0.192,0c0.192,0,0.386,0,0.675,0V6.462h0.096h0.096
			l0,0c0.097,0,0.097-0.097,0.193-0.097c0.096,0,0.191,0,0.289,0l0,0l0,0l0.096-0.096c0.097,0,0.097,0,0.097,0
			c0.098,0,0.191,0,0.191,0h0.098l0,0l0,0l0,0h0.096c0.097,0,0.097,0,0.097,0l0,0h0.096V5.596V5.5V5.403H44.27l0,0l0,0l-0.867-1.348
			c-0.096,0-0.096-0.097-0.192-0.193c0-0.096,0-0.096,0-0.192l0,0h-0.097h-0.096h-0.096c-0.097,0-0.097,0-0.097,0
			c-0.099,0-0.192-0.096-0.29-0.096h-0.096l0,0h-0.096c-0.099,0-0.099,0-0.099,0c-0.096,0-0.096,0-0.19,0h-0.098l-0.099-0.097
			l-0.093-0.096H41.67c-0.097,0-0.097,0-0.097,0c-0.097,0-0.097,0-0.097,0V3.285h-0.096V3.188l0,0l0,0l0,0l0,0h-0.097l-0.096-0.096
			V2.996V2.899V2.804l0,0V2.707V2.611l0,0l0,0V2.514l0,0V2.418l0,0l0,0l0.096-0.096h0.097l0,0c0-0.097,0.096-0.193,0.192-0.193
			c-0.385-0.963-0.289-0.963-0.192-0.963l0.289,0.096c0.096,0,0.192,0.097,0.289,0.192c0.096,0.097,0.096,0.193,0,0.289h0.096h0.096
			h0.097h0.097c0.096,0,0.096,0,0.096,0l0,0h0.096c0.1,0,0.1,0,0.1,0l0,0c0-0.096,0-0.096,0.096-0.096
			c0.099-0.096,0.192-0.096,0.291-0.096c0.096,0,0.096,0,0.19,0l4.718,1.252c0.097,0,0.191,0,0.191,0.096v0.096h0.096h0.096h0.097
			v0.097h0.097h0.097v0.096h0.096l0,0l0,0c0.096,0,0.096,0,0.192,0l0,0c0.097,0,0.097,0.097,0.097,0.097l0,0l0.097,0.096v0.096l0,0
			v0.097V3.67l0,0v0.097l0,0v0.096l0,0v0.096v0.097v0.096v0.097v0.096V4.44l0,0v0.097v0.096l0,0v0.096v0.096v0.096v0.097l0,0v0.096
			V5.21v0.096v0.096V5.5l0,0v0.096v0.096v0.096l0,0v0.096v0.097l0,0v0.096v0.096l0,0h-0.097V6.27h-0.097h-0.097l0,0l0,0l0,0l0,0
			h-0.096c-0.481,0-0.963,0-1.444,0l0,0l0,0l0,0l0,0c-0.096,0-0.096,0-0.096,0c-0.099,0-0.099,0.096-0.193,0.096v0.097v0.096v0.096
			v0.096c2.215,0,4.43,0,6.644,0l0,0V6.655V6.559v0.866V7.329V7.232h0.097h0.096h0.098V7.136h0.096l0,0l0,0V7.04l0,0V6.944V6.847
			V6.751V6.655l0,0V6.559V6.462l0,0h-0.096l0,0V6.366l0,0V6.27l0.096-0.096l0,0h0.096h0.097V6.077h0.096V5.981V5.884l0,0l0,0h0.098
			V5.788l0,0l0,0h0.096c0.192,0,0.386,0,0.577,0l0,0h0.097l0,0c0.096,0,0.096,0,0.193,0c0.096,0,0.096,0.096,0.096,0.096l0,0l0,0
			c0.096,0,0.096,0,0.096,0l0,0c0.097,0,0.097,0.097,0.192,0.097l0,0l0,0v0.096v0.096V6.27v0.096v0.097v0.096v0.096l0,0l0,0l0,0l0,0
			c0.097,0,0.097,0.096,0.193,0.096l0,0l0,0v0.096h0.096l0,0l0,0v0.097V7.04l0,0v0.096v0.096v0.096v0.096l0,0v0.097v0.096v0.096l0,0
			V7.81v0.193h0.097h0.096c0.097,0,0.097,0.096,0.097,0.096v0.096h0.097l0,0v0.096l0,0c7.125,0,14.25,0,21.375,0
			c0.096,0,0.193,0,0.289,0s0.192,0.096,0.288,0.096C79.605,8.099,79.702,8.195,79.798,8.195z M58.134,15.609L58.134,15.609
			L58.134,15.609L58.134,15.609z M56.594,6.462L56.594,6.462c0,0.096,0,0.192,0,0.192l0,0v0.096V6.655V6.559V6.462L56.594,6.462
			L56.594,6.462z M54.668,7.425L54.668,7.425L54.668,7.425L54.668,7.425z M54.476,7.618C54.571,7.618,54.571,7.618,54.476,7.618
			L54.476,7.618L54.476,7.618L54.476,7.618z M47.64,5.403L47.64,5.403V5.5V5.403L47.64,5.403C47.64,5.307,47.64,5.307,47.64,5.403
			L47.64,5.403L47.64,5.403z M45.136,6.944c-0.096,0-0.193,0-0.289,0C44.942,7.04,45.04,7.04,45.136,6.944L45.136,6.944z
			 M56.305,15.609L56.305,15.609L56.305,15.609L56.305,15.609z M23.183,12.335L23.183,12.335L23.183,12.335
			C23.183,12.239,23.183,12.335,23.183,12.335L23.183,12.335z M26.071,15.031C26.167,15.128,26.167,15.128,26.071,15.031
			L26.071,15.031C26.167,15.031,26.167,15.031,26.071,15.031z M31.078,15.994c0,0.097-0.096,0.097-0.096,0.097h0.096
			C31.174,16.091,31.174,15.994,31.078,15.994L31.078,15.994z M12.688,10.41H5.082v0.096c0,0.096,0,0.096,0,0.096v0.097v0.096v0.097
			v0.096c0,0.096,0.096,0.096,0.096,0.096c0,0.097,0,0.097,0,0.193l0,0c0,0.097,0,0.097,0,0.097c0,0.096,0,0.096,0,0.192
			c0,0.097,0.096,0.097,0.096,0.097v0.096l0,0c0.097,0,0.097,0,0.193,0c0.096,0.096,0.096,0.096,0.192,0.193l0.674,2.021
			l1.155-0.866c0.096-0.097,0.192-0.097,0.289-0.097c0.096,0,0.192,0.097,0.192,0.097l0.096-0.097l0.096-0.096v-0.097l0,0h0.096
			v-0.096c0.097,0,0.193-0.096,0.193-0.096l0,0h0.096l0.096-0.097H8.74h0.097c0,0,0-0.096,0.096-0.096l0.096-0.097l0.096-0.096
			c0.096,0,0.096-0.096,0.096-0.096h0.097h0.096v-0.097H9.51h0.096v-0.096c0.096,0,0.096-0.097,0.096-0.097l0,0l0.097-0.096
			c0.866,0.096,0.866,0,0.866,0c0.097,0,0.097-0.096,0.097-0.096l0,0v-0.097l0.096-0.096h0.096l0.097-0.096v-0.097h0.096V11.18
			c0.097,0,0.097,0,0.097,0l0.096-0.097h0.096l0.097-0.096l0.096-0.096h0.097c0.096,0,0.096-0.097,0.096-0.097h0.096l0,0v-0.096
			c0.097,0,0.097-0.097,0.097-0.097C12.591,10.41,12.591,10.41,12.688,10.41z"/>
	</defs>
	<clipPath id="SVGID_4_">
		<use xlink:href="#SVGID_3_"  overflow="visible"/>
	</clipPath>
	<g clip-path="url(#SVGID_4_)">
		<polygon fill="#148193" points="41.288,28.487 33.049,29.476 32.509,7.164 39.089,11.392 42.098,11.214 		"/>
		<polygon fill="#E08300" stroke="#DDBE26" stroke-miterlimit="10" points="32.157,16.188 43.141,16 43.184,20.648 32.2,20.838 		
			"/>
		<polygon fill="#E08300" stroke="#DDBE26" stroke-miterlimit="10" points="31.422,23.015 42.406,22.825 42.451,27.477 
			31.467,27.664 		"/>
		
			<linearGradient id="SVGID_5_" gradientUnits="userSpaceOnUse" x1="372.3965" y1="-259.2344" x2="418.9932" y2="-259.2344" gradientTransform="matrix(1 0 0 -1 -370.96 -246.5996)">
			<stop  offset="5.581969e-004" style="stop-color:#FF9500"/>
			<stop  offset="1" style="stop-color:#EFB941"/>
		</linearGradient>
		<path fill="url(#SVGID_5_)" d="M1.59,7.897h15.385l5.439-0.394l0.413-3.789l9.04-1.716l5.025,0.358c0,0,9.75,1.905,11.14,4.044
			c0,0-2.301,1.314-3.132,3.312c-0.83,1.997-2.013,3.405-3.91,3.809c-1.9,0.402-3.467-1.716-5.124-0.738
			c-1.657,0.978-4.23,3.029-5.399,3.874c-1.168,0.845-4.136,2.667-5.134,4.113c-0.998,1.451-2.321,2.978-3.56,2.361
			c-1.238-0.616-2.883-1.678-2.883-1.678l-5.683,0.15l-5.486,0.107l-5.387,0.87l-0.9-1.283L1.59,7.897z"/>
		<path fill="#300093" d="M7.084,11.709c0,0-4.817,0.052-5.305,4.147c-0.63,5.278,5.022,3.36,5.022,3.36S4.733,15.705,7.084,11.709z
			"/>
		<path fill="#5D29FF" d="M7.408,18.846l3.683-1.107c0,0-1.254-2.765,1.654-4.555c2.392-1.474,5.129,0.4,5.129,0.4l1.988-2.519
			c0,0-6.723-3.902-11.323,0.188C5.274,14.154,7.408,18.846,7.408,18.846z"/>
		<path fill="#4383FF" d="M23.184,9.041c0,0-2.383,1.143-3.321,1.143s0.977,0.715,0.977,0.715l-2.134,2.69l0.805,1.792l5.153,0.174
			l0.207-7.176L23.184,9.041z"/>
		<path fill="#8600EE" d="M32.368,7.915c0,0-2.138-1.269-4.67,0.107c-2.532,1.376-2.827,6.689,1.581,7.175
			c3.782,0.419,4.529-4.22,2.372-4.863c-2.157-0.643-2.278,1.559-2.035,1.792h-0.582c0,0-0.874-2.682,2.096-2.655
			c2.955,0.026,2.255,3.763,2.255,3.763s1.415-2.341,3.202-2.208c2.019,0.152,1.656,1.096,2.956,1.354
			c1.349,0.269,3.304,0.228,3.921-2.627c0.336-1.545,2.407-2.588,2.407-2.588s-2.615-0.898-4.12,1.247
			c-1.376,1.958-2.374,0.704-3.179-0.174c-1.184-1.287-2.546-1.689-4.684-1.301C33.192,7.063,32.368,7.915,32.368,7.915z"/>
		<ellipse fill="#00A625" cx="15.01" cy="16.547" rx="3.532" ry="3.364"/>
		<path fill="#A20063" d="M36.761,4.569c0,0,1.317-0.516,4.033,0.141c2.714,0.658,3.921,1.568,3.921,1.568s-2.545-0.08-3.163,1.073
			c-0.62,1.153-1.209,1.206-1.8,0.94c-0.591-0.269-1.279-1.636-3.179-1.892c-1.713-0.229,0.098-1.381,0.098-1.381L36.761,4.569z"/>
		<path fill="#F58800" d="M23.999,5.206c0.042,0.014,1.604,3.474,1.604,3.474l3.375-1.81L28.26,3.947L23.999,5.206z"/>
		<polygon fill="#5CFF16" points="28.64,3.947 29.513,6.792 31.988,7.164 32.171,3.545 		"/>
		<path fill="#646BFF" d="M36.363,3.718c0,0-1.111,2.186-1.125,2.593c0,0-2.07-0.148-2.729,0.61l0.085-3.539L36.363,3.718z"/>
	</g>
</g>
</svg>
