<?xml version="1.0" encoding="utf-8"?>
<!-- Generator: Adobe Illustrator 16.0.0, SVG Export Plug-In . SVG Version: 6.00 Build 0)  -->
<!DOCTYPE svg PUBLIC "-//W3C//DTD SVG 1.0//EN" "http://www.w3.org/TR/2001/REC-SVG-20010904/DTD/svg10.dtd">
<svg version="1.0" id="图层_1" xmlns="http://www.w3.org/2000/svg" xmlns:xlink="http://www.w3.org/1999/xlink" x="0px" y="0px"
	 width="81.5px" height="32px" viewBox="0 0 81.5 32" enable-background="new 0 0 81.5 32" xml:space="preserve">
<g id="Selected_Items">
	<g>
		<g id="Selected_Items_38_">
			
				<linearGradient id="SVGID_1_" gradientUnits="userSpaceOnUse" x1="374.96" y1="-262.2998" x2="456.4272" y2="-262.2998" gradientTransform="matrix(1 0 0 -1 -374.96 -246.5996)">
				<stop  offset="0" style="stop-color:#8F00DB"/>
				<stop  offset="0.6452" style="stop-color:#77B9FF"/>
				<stop  offset="1" style="stop-color:#B6CAFF"/>
			</linearGradient>
			<path fill="url(#SVGID_1_)" d="M80.8,7.3L80.9,7.4c0,0.1,0.1,0.1,0.1,0.2s0,0.1,0,0.2l0.1,0.1l0,0H81.2V8h0.1l0,0v0.1v0.1l0,0
				v0.1v0.1l0,0l0,0v0.1v0.1v0.1v0.1h-0.1H81.1l0,0l0,0v0.1V9l0,0l0,0v0.1H81l0,0h-0.1l0,0l0,0c-0.801,0-1.7,0-2.5,0l0,0
				c-0.101,0-0.101,0-0.101,0l0,0h-0.1H78.1c-6.6,0-13.1,0.1-19.6,0.1h-0.1l0,0v0.1v0.1v0.1v0.1l0,0v0.1v0.1v0.3v0.1l0,0v0.1v0.1
				v0.1v0.1v0.1h0.1h0.1l0,0H58.7h0.1v0.1l0,0v0.1l0,0H58.9l0,0V11v0.1l0,0l0,0c-0.101,0-0.101,0.1-0.101,0.1v0.1v0.1v0.1v0.1v0.1
				v0.1v0.1V12l0,0v0.1v0.1l0,0v0.1l0,0v0.1v0.1v0.1l0,0v0.1v0.1v0.1V13l0,0v0.1v0.1v0.1v0.1l0,0v0.1v0.1l0,0v0.1v0.1v0.1V14l0,0
				l0,0l0,0c-0.1,0-0.1,0-0.1,0c-0.101,0-0.2,0-0.3,0H58.3l0,0l0,0v0.1l0,0v0.1v0.1l0,0v0.1v0.1v0.1v0.1v0.1v0.1l0,0V15l0,0v0.1l0,0
				v0.1v0.1l0,0v0.1v0.1v0.1v0.1v0.1v0.1l0,0V16l0,0v0.1l0,0H58.4l0,0h0.1v0.1l0,0v0.1l0,0l0,0l0,0v0.1v0.1l0,0v0.1l0,0V16.7l0,0
				v0.1V16.9V19v0.1V19.2v0.1l0,0V19.4v0.1l0,0v0.1l0,0V19.7l0,0v0.1V19.9V20v0.1V20.2v0.1V20.4l0,0v0.1v0.1V21v0.1V21.2l0,0v0.1
				V21.4v0.1v0.1V21.7l0,0v0.1V21.9V22v0.1l0,0V22.2v0.1l0,0V22.4v0.1v0.1V22.7v0.1V22.9V23v0.1V23.2l0,0v0.1V23.4l0,0v0.1l0,0v0.1
				V23.7l0,0v0.1V23.9V24v0.1V24.2l0,0v0.1V24.4v0.1l0,0v0.1l0,0V24.7v0.1l0,0V24.9V25v0.1V25.2v0.1V25.4l0,0v0.1l0,0v0.1l0,0V25.7
				v0.1l0,0V25.9V26l0,0v0.1V26.2l0,0v0.1V26.4V27v0.1l0,0V27.2v0.1V27.4v0.1v0.1V27.7v0.1l0,0V27.9V28v0.1V28.2v0.1V28.4l0,0v0.1
				v0.1V28.7v0.1V28.9l0,0V29h0.1v0.1V29.2v0.1c-0.1,0-0.1,0-0.1,0c-0.1,0-0.3,0-0.4,0V29.4L58,29.5l0,0v0.1V29.7l0,0v0.1l0,0V29.9
				V30v0.1l0,0V30.2v0.1V30.4v0.1l0,0v0.1V30.7v0.1l0,0V30.9l0,0V31v0.1l0,0V31.2l0,0h0.1l0,0v0.1V31.4l0,0c-0.1,0-0.1,0-0.1,0
				c-0.4,0-0.8,0-1.1,0c-0.101,0-0.101,0-0.101,0h-0.1V31.3v-0.1h0.1H56.9l0,0V31.1l0,0V31v-0.1V30.8v-0.1V31v-0.1V30.8v-0.1V30.6
				v-0.1l0,0v-0.1V30.3l0,0v-0.1l0,0V30.1V30l0,0v-0.1V29.8l0,0l0,0v-0.1c-0.101,0-0.101,0-0.101,0V29.6l0,0h-0.1
				c-0.101,0-0.101-0.1-0.101-0.1v-0.1V29.3l0,0v-0.1l0,0V29.1V29v-0.1V28.8v-0.1l0,0V28.6v-0.1v-0.1V28v-0.1V27.8l0,0v-0.1V27.6
				v-0.1v-0.1V27.3v-0.1V27.1l0,0V27v-0.1V26.8v-0.1l0,0V26.6v-0.1l0,0v-0.1V26.3l0,0v-0.1V26.1l0,0V26l0,0v-0.1l0,0V25.8v-0.1V25.6
				v-0.1v-0.1V25.3l0,0v-0.1V25.1l0,0V25l0,0v-0.1V24.8v-0.1l0,0V24.6v-0.1v-0.1V24.3v-0.1l0,0V24.1V24l0,0v-0.1l0,0V23.8v-0.1l0,0
				V23.6v-0.1V23v-0.1V22.8v-0.1V22.6v-0.1v-0.1l0,0V22.3v-0.1l0,0V22.1V22v-0.1V21.8l0,0v-0.1V21.6v-0.1v-0.1V21.3l0,0v-0.1V21.1
				V20.9V20.8v-0.1l0,0V20.6v-0.1v-0.1V20.3v-0.1V20v-0.1l0,0V19.8l0,0v-0.1l0,0V19.6v-0.1l0,0v-0.1V19.3v-0.1V19.1V19v-0.1l0,0
				V18.8l0,0v-0.1l0,0V18.6v-0.1v-0.1l0,0l0,0H56.7l0,0V18.3v-0.1h0.1l0,0V18.1V18v-0.1V17.8l0,0v-0.1V17.6v-0.1v-0.1V17.3v-0.1
				V17.1l0,0V17v-0.1v-0.2V16.6v-0.1l0,0v-0.1v-0.1v-0.1v-0.1V16l0,0v-0.1h-0.1H56.6c-0.1,0-0.1,0-0.199,0H56.3l0,0l-0.1-0.1l0,0
				v-0.1v-0.1l0,0v-0.1v-0.1v-0.1v-0.1l0,0H56.1v-0.1V15l0,0v-0.1v-0.1l0,0v-0.1v-0.1v-0.1v-0.1l0,0v-0.1v-0.1v-0.1H56.2H56.1V14
				C56,14,56,14,55.9,14l0,0L55.8,13.9v-0.1v-0.1v-0.1l0,0v-0.1v-0.1l-0.1-0.1H55.6v0.1v0.1v0.1v0.1v0.1l0,0c-0.1,0-0.1,0-0.1,0
				c-0.1,0-0.2,0.1-0.3,0.1H55.1l0,0V14v0.1l0,0l0,0v0.1l0,0l0,0H54c-0.1,0-0.1,0-0.2,0l0,0h-0.1c-0.101,0-0.101,0-0.2,0l0,0
				c-0.1,0-0.1,0-0.2,0l0,0l0,0h-0.1H53.1c-0.1,0-0.199,0-0.199,0c-0.2,0-0.301,0-0.4,0h-0.1c-0.101,0-0.301,0.1-0.4,0.1h-0.1
				c-0.101,0-0.101,0-0.101,0l0,0c-0.1,0-0.1,0-0.2,0v-0.1h-0.1h-0.1v-0.1H51.3V14l0,0v-0.1v-0.1v-0.1l0,0v-0.1v-0.1v-0.1
				c-0.1,0-0.1,0-0.2,0H51H41v0.1v0.1v0.1l0,0v0.1v0.1V14l0,0v0.1v0.1h0.1h0.1c0.1,0,0.1,0.1,0.1,0.1v0.1l0,0v0.1v0.1v0.1v0.1v0.1
				V15v0.1v0.1c0,0.1,0.101,0.1,0.101,0.1c0,0.1,0,0.1,0,0.2l0.1,0.1h0.1H41.7l0,0h0.1l0,0H41.9v0.1l0,0v0.1v0.1l0,0V16v0.1v0.1v0.1
				v0.1v0.1l0,0v0.1l0,0V16.7l0,0v0.1V16.9l0,0V17v0.1V17.2v0.1V17.4v0.1l0,0v0.1l0,0V17.7l0,0v0.1V17.9l0,0V18v0.1V18.2v0.1l0,0
				V18.4v0.1v0.1V18.7l0,0v0.1V18.9V19v0.1V19.2v0.1V19.4l0,0v0.1v0.1V20v0.1l0,0V20.2v0.1l0,0V20.4v0.1v0.1V20.7l0,0v0.1V21v0.1
				V21.2l0,0v0.1V21.4l0,0v0.1v0.1V21.7v0.1V21.9V22v0.1V22.2v0.1l0,0V22.4v0.1l0,0v0.1V22.7v0.1V22.9l0,0V23v0.1V23.2v0.1l0,0V23.4
				v0.1v0.1l0,0V23.7l0,0v0.1V23.9l0,0V24v0.1V24.2v0.1V24.4v0.1v0.1V24.7v0.1l0,0V24.9V25l0,0v0.1V25.2l0,0v0.1V25.4l0,0v0.1v0.1
				V25.7v0.1l0,0V25.9V26.1V26.2l0,0v0.1l0,0L41.8,26.4l0,0v0.1v0.1l0,0V26.7l0,0v0.1V26.9h-0.1H41.6c-2.8,0-5.6,0-8.3,0h-0.1l0,0
				h-0.1c-0.1,0-0.1,0-0.1,0h-0.1c-0.1,0-0.1,0-0.2,0V26.8l-0.1-0.1h-0.1c-0.1,0-0.1,0-0.1,0h-0.1V26.6v-0.1v-0.1V26.3l0,0v-0.1
				V26.1V26v-0.1V25.8v-0.1V25.6l0,0v-0.1V26v-0.1V25.8l0,0v-0.1V25.6l0,0v-0.1v-0.1l0,0V25.3v-0.1l0,0V25.1V25v-0.1V24.8v-0.1V24.6
				v-0.1v-0.1V24.3l0,0v-0.1V24.1l0,0V24l0,0v-0.1V23.8v-0.1l0,0V23.6v-0.1v-0.1V23.3l0,0v-0.1V23.1V23v-0.1l0,0V22.8v-0.1l0,0V22.6
				v-0.1v-0.1V22.3v-0.1V22.1V22v-0.1V21.8l0,0v-0.1V21.6l0,0v-0.1v-0.1V21.3v-0.1l0,0V21.1V21v-0.1V20.8l0,0v-0.1V20.6l0,0v-0.1
				v-0.1V20.3v-0.1l0,0V20.1V20v-0.1V19.8v-0.1V19v-0.1l0,0V18.8v-0.1V18.6v-0.1l0,0v-0.1V18.3v-0.1V18.1l0,0V18v-0.1l0,0V17.8l0,0
				v-0.1l0,0V17.6v-0.1v-0.1V17.3v-0.1V17.1l0,0V17v-0.1l0,0V16.8l0,0v-0.1l0,0V16.6l0,0l0,0v-0.1v-0.1v-0.1v-0.1v-0.1V16v-0.1l0,0
				v-0.1v-0.1v-0.1v-0.1l0,0v-0.1v-0.1l0,0l0,0v-0.1v-0.1V15l0.1-0.1v-0.1h0.1h0.1l0,0v-0.1v-0.1l0,0h0.1c-0.6,0-1.1,0-1.7,0h-0.1
				l0,0c0,0.1,0,0.1,0,0.2v0.1V15v0.1v0.1c0,0.1,0,0.1,0,0.1v0.1v0.1l0,0l0.1,0.1l0.1,0.1v0.1v0.1l0,0V16v0.1v0.1l0,0l0,0v0.1l0,0
				L31,16.4h-0.1c-0.2,0-0.3,0.1-0.5,0.1h-0.1l0,0c-0.1,0-0.1,0-0.1,0l0,0c-0.2,0-0.4,0-0.6,0l0,0l0,0v0.1l0,0V16.7l0,0v0.1h-0.1
				V16.9V17l0,0v0.1V17.2v0.1h-0.1l0,0V17.4v0.1l0,0v0.1l0,0V17.7l0,0v0.1V17.9l0,0V18l0,0v0.1V18.2l-0.1,0.1l0,0V18.4v0.1l0,0l0,0
				v0.1l0,0V18.7l0,0l0,0l-0.1,0.1V18.9V19v0.1V19.2l0,0l-0.1,0.1V19.4V20L29,20.1l0,0V20.2v0.1l0,0V20.4v0.1v0.1V20.7l0,0v0.1h-0.1
				V21v0.1L28.8,21.2l0,0v0.1V21.4l0,0v0.1h-0.1h-0.1l0,0v0.1h-0.1l0,0c-0.1,0-0.1,0-0.2,0l0,0h-0.1l0,0h-0.1c-0.6,0-1.2,0-1.8,0
				c-0.1,0-0.1,0-0.2,0l0,0c-0.1,0-0.2,0-0.2,0h-0.1l0,0h-0.1c-0.1,0-0.1,0-0.2,0L24,21.5c-0.1,0-0.1,0-0.1,0h-0.1l-0.1-0.1V21.3
				h-0.1v-0.1V21.1V21v-0.1L23.5,20.8l0,0v-0.1l0,0V20.6v-0.1l0,0v-0.1V20.3v-0.1l0,0V20.1l0,0V20v-0.1V19.8v-0.1l0,0V19.6v-0.1l0,0
				v-0.1l0,0h0.1l0,0V19.3v-0.1l0,0V19.1V19l0,0h0.1v-0.1l0,0V18.8l0,0l0,0v-0.1V18.6l0,0l0,0v-0.1v-0.1l0,0V18.3v-0.1h0.1V18.1V18
				l0,0v-0.1V17.8l0,0v-0.1V17.6v-0.1v-0.1l0,0V17.3v-0.1h0.1V17.1V17l0,0v-0.1V16.8l0,0v-0.1l0,0l0,0V16.6l0,0l0,0l0,0v-0.1v-0.1
				l0,0v-0.1l-0.1-0.1l0,0l0,0v-0.1L23.7,16l0,0c0,0,0-0.1-0.1-0.1h-0.1h-0.1l0,0c-0.1,0-0.1,0-0.2,0v-0.1c-0.1,0-0.1,0-0.2,0h-0.1
				v-0.1h-0.1v-0.1c-0.1,0-0.1,0-0.2,0l-0.1-0.1c-0.1,0-0.1-0.1-0.1-0.1h-0.1l0,0c-0.1,0-0.1-0.1-0.1-0.1l0,0l0,0l-0.1-0.1v-0.1l0,0
				l0,0V15v-0.1l0,0v-0.1v-0.1l0,0v-0.1l0,0l0,0v-0.1v-0.1v-0.1H22h-0.1h-0.1c-0.1,0-0.1,0-0.1,0h-0.1v-0.1c-0.1,0-0.1,0-0.1,0h-0.1
				v-0.1V14v-0.1c-1.7,0-3.4,0-5.2,0h-0.1l0,0c-0.1,0-0.1,0-0.2,0l0,0l-0.1-0.1l0,0l0,0l-0.1-0.1l0,0v-0.1l0,0v-0.1v-0.1l0,0v-0.1
				v-0.1l0,0v-0.1c-0.8,0-1.5,0-2.2,0c-0.1,0-0.2,0-0.3,0c-0.1,0-0.2,0-0.2,0l-0.1,0.1c0,0-0.1,0.1-0.2,0.1h-0.2h-0.1v0.1
				c0,0.1-0.1,0.2-0.1,0.3l-6.5,5.1c-0.1,0.101-0.2,0.101-0.3,0H5.4c-0.1,0-0.1,0-0.1,0c-0.1,0-0.1,0.101-0.2,0.101
				c0,0.1,0,0.1,0,0.199C5.1,19.2,5,19.3,5,19.4L4.4,17c-0.1,0-0.1,0-0.2,0l0,0l0,0l-0.1,0.1l0,0l0,0C4,17.1,4,17.2,4,17.2l0,0l0,0
				H3.9H3.8l-0.1,0.1l0,0H3.6H2.9c-0.1,0-0.1,0-0.2,0l0,0H2.6c-0.1,0-0.1,0-0.2,0c0,0-0.1-0.1-0.2-0.1V17.1c-0.1,0-0.1,0-0.1,0l0,0
				H2L1.9,17l0,0v-0.1V16.8l0,0l-0.1-0.1V16.6v-0.1v-0.1l0,0v-0.1v-0.1l0,0v-0.1V16l0,0v-0.1v-0.1l0,0v-0.1H1.7l0,0v-0.1l0,0v-0.1
				l0,0l-0.1-0.1v-0.1v-0.1v-0.1l0,0V15v-0.1l0,0v-0.1l0,0l-0.1-0.1v-0.1v-0.1l0,0v-0.1v-0.1v-0.1v-0.1l0,0V14v-0.1l-0.1-0.1l0,0
				v-0.1l0,0v-0.1v-0.1l0,0v-0.1v-0.1l0,0l0,0v-0.1v-0.1V13v-0.1l0,0l0,0v-0.1l0,0v-0.1v-0.1l0,0v-0.1v-0.1l0,0v-0.1v-0.1l0,0v-0.1
				V12v-0.1v-0.1v-0.1l0,0v-0.1l0,0l0,0v-0.1v-0.1v-0.1v-0.1l0,0v-0.1L1.3,11v-1V9.9V9.8V9.7V9.6l0,0V9.5V9.4V9.3V9.2l0,0V9.1
				C0,9,0,9,0,8.9l0,0V8.8V8.7l0,0V8.6V8.5l0,0l0.1-0.1l0,0V8.3l0,0V8.2V8.1h0.1V8V7.9h0.1V7.8l0.1-0.1l0,0l0,0c0.1,0,0.1,0,0.1,0
				c0.1,0,0.1,0,0.2,0l0,0c0,0,0.1,0,0.2,0l0,0l0,0l0,0H1l0,0h0.1c0.1,0,0.1,0,0.1,0h0.1h0.1C2,7.3,2,7.3,2.2,7.3h9.4
				c0.1,0,0.2,0,0.2,0c0.1,0,0.1-0.1,0.2-0.1s0.1-0.1,0.2-0.1h0.1c0.1,0,0.1,0,0.2,0s0.1,0,0.2,0c1.8,0,3.7,0,5.6,0l0,0V7V6.8V6.7
				V6.6h0.1l0,0V6.5V6.4l0,0l0.1-0.1l0,0c0.1,0,0.1-0.1,0.2-0.1h0.1V6.1L19,5.9h0.1c0.1,0,0.2,0,0.3,0h0.1l0,0h0.1l0,0V5.8V5.7h0.1
				V5.6V5.5l0,0V5.4V5.3l0,0h-0.1l0,0V5.2l0,0V5.1V5l0,0V4.9V4.8V4.7V4.6l0,0h0.1h0.1l0,0l0,0h0.1l0,0H20h0.1h0.1h0.1h0.1V4.5l0,0
				V4.4V4.3h0.1V4.2V4.1h0.1c0.1,0,0.1,0,0.1,0l0,0c0.2,0,0.4,0,0.6,0h0.1h0.1v0.1l0.1,0.1l0,0v0.1v0.1h0.1c0.1,0,0.2,0,0.3,0
				s0.1,0,0.2,0l0.1,0.1h0.1l0,0v0.1v0.1l0,0c0,0,0,0.1,0.1,0.1s0.1,0,0.1,0l0,0c0.1,0,0.1,0,0.1,0c0.5,0,1,0,1.5,0
				c0.2,0,0.5,0,0.8,0h0.1h0.1l0,0h0.1c0.1,0,0.1,0.1,0.1,0.1l0,0h0.1l0,0c0.1,0,0.1,0.1,0.1,0.1v0.1h0.1v0.1v0.1v0.1h0.1h0.1H26
				v0.1V5v0.1v0.1v0.1v0.1l0,0l0,0v0.1v0.1l0,0l0,0l0,0v0.1l0,0v0.1l0,0h0.1c1.2,0,2.3,0,3.5,0l0,0l0,0l0,0h0.1c0,0,0.1,0,0.2,0V5.7
				L30,5.6l0,0l0.1-0.1V5.4l0.1-0.1l0,0h0.1l0,0c0.1,0,0.1,0,0.2,0l0.1,0.1l0.1,0.1v0.1c0.1-0.1,0.1-0.1,0.2-0.1s0.1,0,0.2-0.1
				c0.1,0,0.2,0,0.3,0l0,0c0.1,0,0.2,0,0.3,0l0.1,0.1c0-0.1,0-0.1,0-0.1c0.1-0.1,0.2-0.1,0.3-0.1h2.3c0.1,0,0.2,0,0.2,0.1
				s0.1,0.1,0.1,0.2c0.2,0,0.3,0,0.4,0s0.1,0,0.2,0h0.1c1,0,2,0,3,0c0.1,0,0.1,0,0.1,0c0.1,0,0.1,0,0.1,0c0.1,0,0.1,0.1,0.1,0.1
				l0.1,0.1l0,0l0,0l0.1-0.1V5.6l0,0H39l0,0h0.1h0.1v0.1v0.1l0,0l0,0h0.1c0.1,0,0.1,0,0.2,0h0.1l0,0c0.6,0,1.2,0,1.8,0l0,0l0.1-0.1
				l0.1-0.1l0,0c0.101,0,0.101,0,0.2,0c0.2,0,0.4,0,0.7,0V5.5h0.1H42.7l0,0c0.1,0,0.1-0.1,0.2-0.1c0.1,0,0.199,0,0.3,0l0,0l0,0
				l0.1-0.1c0.101,0,0.101,0,0.101,0c0.1,0,0.199,0,0.199,0H43.7l0,0l0,0l0,0h0.1c0.101,0,0.101,0,0.101,0l0,0H44V4.6V4.5V4.4h-0.1
				l0,0l0,0L43,3c-0.1,0-0.1-0.1-0.2-0.2c0-0.1,0-0.1,0-0.2l0,0h-0.1H42.6h-0.1c-0.1,0-0.1,0-0.1,0c-0.101,0-0.2-0.1-0.301-0.1H42
				l0,0h-0.1c-0.101,0-0.101,0-0.101,0c-0.1,0-0.1,0-0.2,0h-0.1l-0.1-0.1L41.3,2.3h-0.1c-0.1,0-0.1,0-0.1,0c-0.1,0-0.1,0-0.1,0V2.2
				h-0.1V2.1l0,0l0,0l0,0l0,0h-0.1L40.7,2V1.9V1.8V1.7l0,0V1.6V1.5l0,0l0,0V1.4l0,0V1.3l0,0l0,0l0.1-0.1h0.1l0,0
				C40.9,1.1,41,1,41.1,1c-0.4-1-0.3-1-0.2-1l0.3,0.1c0.1,0,0.2,0.1,0.3,0.2c0.1,0.1,0.1,0.2,0,0.3h0.1H41.7h0.1H41.9
				c0.1,0,0.1,0,0.1,0l0,0h0.1c0.101,0,0.101,0,0.101,0l0,0c0-0.1,0-0.1,0.1-0.1c0.101-0.1,0.2-0.1,0.3-0.1c0.101,0,0.101,0,0.2,0
				l4.9,1.3c0.1,0,0.2,0,0.2,0.1v0.1H48h0.1H48.2V2h0.1H48.4v0.1h0.1l0,0l0,0c0.1,0,0.1,0,0.2,0l0,0c0.1,0,0.1,0.1,0.1,0.1l0,0
				L48.9,2.3v0.1l0,0v0.1v0.1l0,0v0.1l0,0v0.1l0,0v0.1V3v0.1v0.1v0.1v0.1l0,0v0.1v0.1l0,0v0.1v0.1v0.1V4l0,0v0.1v0.1v0.1v0.1v0.1
				l0,0v0.1v0.1v0.1l0,0v0.1V5l0,0v0.1v0.1l0,0H48.8v0.1h-0.1H48.6l0,0l0,0l0,0l0,0h-0.1c-0.5,0-1,0-1.5,0l0,0l0,0l0,0l0,0
				c-0.1,0-0.1,0-0.1,0c-0.101,0-0.101,0.1-0.2,0.1v0.1v0.1v0.1v0.1c2.3,0,4.6,0,6.899,0l0,0V5.7V5.6v0.9V6.4V6.3H53.7h0.1H53.9V6.2
				H54l0,0l0,0V6.1l0,0V6V5.9V5.8V5.7l0,0V5.6V5.5l0,0h-0.1l0,0V5.4l0,0V5.3L54,5.2l0,0h0.1H54.2V5.1h0.1V5V4.9l0,0l0,0H54.4V4.8
				l0,0l0,0h0.1c0.2,0,0.4,0,0.6,0l0,0H55.2l0,0c0.1,0,0.1,0,0.2,0c0.1,0,0.1,0.1,0.1,0.1l0,0l0,0c0.1,0,0.1,0,0.1,0l0,0
				C55.7,4.9,55.7,5,55.8,5l0,0l0,0v0.1v0.1v0.1v0.1v0.1v0.1v0.1l0,0l0,0l0,0l0,0C55.9,5.7,55.9,5.8,56,5.8l0,0l0,0v0.1h0.1l0,0l0,0
				V6v0.1l0,0v0.1v0.1v0.1v0.1l0,0v0.1v0.1v0.1l0,0v0.1v0.2H56.2h0.1C56.4,7.1,56.4,7.2,56.4,7.2v0.1h0.1l0,0v0.1l0,0
				c7.4,0,14.8,0,22.2,0c0.1,0,0.2,0,0.3,0s0.2,0.1,0.3,0.1C80.6,7.2,80.7,7.3,80.8,7.3z M58.3,15L58.3,15L58.3,15L58.3,15z
				 M56.7,5.5L56.7,5.5c0,0.1,0,0.2,0,0.2l0,0v0.1V5.7V5.6V5.5L56.7,5.5L56.7,5.5z M54.7,6.5L54.7,6.5L54.7,6.5L54.7,6.5z M54.5,6.7
				C54.6,6.7,54.6,6.7,54.5,6.7L54.5,6.7L54.5,6.7L54.5,6.7z M47.4,4.4L47.4,4.4v0.1V4.4L47.4,4.4C47.4,4.3,47.4,4.3,47.4,4.4
				L47.4,4.4L47.4,4.4z M44.8,6c-0.1,0-0.2,0-0.3,0C44.6,6.1,44.7,6.1,44.8,6L44.8,6z M56.4,15L56.4,15L56.4,15L56.4,15z M22,11.6
				L22,11.6L22,11.6C22,11.5,22,11.6,22,11.6L22,11.6z M25,14.4C25.1,14.5,25.1,14.5,25,14.4L25,14.4C25.1,14.4,25.1,14.4,25,14.4z
				 M30.2,15.4c0,0.1-0.1,0.1-0.1,0.1h0.1C30.3,15.5,30.3,15.4,30.2,15.4L30.2,15.4z M11.1,9.6H3.2v0.1c0,0.1,0,0.1,0,0.1v0.1V10
				v0.1v0.1c0,0.1,0.1,0.1,0.1,0.1c0,0.1,0,0.1,0,0.2l0,0c0,0.1,0,0.1,0,0.1c0,0.1,0,0.1,0,0.2c0,0.1,0.1,0.1,0.1,0.1V11l0,0
				c0.1,0,0.1,0,0.2,0c0.1,0.1,0.1,0.1,0.2,0.2l0.7,2.1l1.2-0.9c0.1-0.1,0.2-0.1,0.3-0.1s0.2,0.1,0.2,0.1l0.1-0.1l0.1-0.1v-0.1l0,0
				h0.1V12c0.1,0,0.2-0.1,0.2-0.1l0,0h0.1l0.1-0.1H7h0.1c0,0,0-0.1,0.1-0.1l0.1-0.1l0.1-0.1c0.1,0,0.1-0.1,0.1-0.1h0.1h0.1v-0.1h0.1
				h0.1v-0.1C8,11.2,8,11.1,8,11.1l0,0L8.1,11C9,11.1,9,11,9,11c0.1,0,0.1-0.1,0.1-0.1l0,0v-0.1l0.1-0.1h0.1l0.1-0.1v-0.1h0.1v-0.1
				c0.1,0,0.1,0,0.1,0l0.1-0.1h0.1l0.1-0.1l0.1-0.1h0.1c0.1,0,0.1-0.1,0.1-0.1h0.1l0,0V9.9c0.1,0,0.1-0.1,0.1-0.1
				C11,9.6,11,9.6,11.1,9.6z"/>
		</g>
	</g>
</g>
<g id="guides">
</g>
<linearGradient id="SVGID_2_" gradientUnits="userSpaceOnUse" x1="-116.7119" y1="309.9785" x2="-109.2407" y2="309.9785" gradientTransform="matrix(6.6522 0 0 -6.6522 776.3936 2072.5425)">
	<stop  offset="0" style="stop-color:#C216FF"/>
	<stop  offset="0.6452" style="stop-color:#77B9FF"/>
	<stop  offset="1" style="stop-color:#B6CAFF"/>
</linearGradient>
<path fill="url(#SVGID_2_)" fill-opacity="0.5" d="M1.7,17c0,0,1,0.9,1.9,0.3c3.3-2,8.4-6.4,10.6-7.2c0,0-1.8-0.4-3.1-0.5
	c0,0-3.3,2.5-6.4,4.2c0,0-0.1-0.7-1.6-4.1c0,0,4.2,0.4,7.8-0.3c2.4-0.4,5,2.6,7.9,1.6c3.1-1.9,18.5,0.2,21.9,3.8c0,0-1.5-4.3-9.6-6
	c0,0,13.9-0.4,18.6,4.1c0,0-6.2-6.9-16.1-6.9c-0.7,0-0.3-0.3-1-0.4c-0.4-0.1-3.8,0.6-5,0.6c-0.9,0,0-1.7-1-1.7c-2,0-2.7,0-3.3,0
	l-1.8-1l-1,0.5L20,5l-0.3,0.9l-1,0.2l-0.5,1.1l-5.9-0.1l-0.8,0.5h-11L0,8.7L1.7,17z"/>
<path opacity="0.7" fill="#AC00CF" enable-background="new    " d="M58,11.5c0,0-3.6,0.8-6.5,5.5c0,0,2.4,1.2,1.6,2.1
	C52.3,20,48.6,18.7,42.2,26.2c0,0,2.6-1.4,6.1-1.7S47.4,27,46.4,27.6c0,0,6.6-3.899,8.399-3.5c1.8,0.4-6.5,5.9-10.2,7.9
	c0,0,11-4.2,12.301-4c1.3,0.2-0.7,2.6-3.7,4c0,0,6.3,0,10.5-2.2s5-2.5,5-1.3c0,0,3.7-2.7,2.6-3.7c-1.1-1,2.7-2.2,5.4-4.5
	s3.7-3.7,3.7-3.7S74.1,19.8,72.2,20c-1.9,0.2,1.3-3.1,4.7-4.8c3.399-1.7,4.5-5,4.5-5s-4.7,0.2-10.7,3.7c-6,3.5-6.7,4.7-6.3,2.6
	c0.5-2.1,6-5.2,6-5.2s-7.7,0.2-11.301,3.4c-3.6,3.2-2.5-0.7-1.699-1.5C58.3,12.4,58,11.5,58,11.5z"/>
<g>
	<path fill="#F5EDFF" d="M48.7,25l-1.4,2.9H44.4L51,14.8h3.2L56.1,27.9h-2.8L53,25H48.7z M52.1,17.7l-2.3,4.8h2.8L52.1,17.7z"/>
	<path fill="#F5EDFF" d="M60.2,28c-0.8,0-1.4-0.2-1.8-0.7C58,26.8,57.9,26.2,58,25.4l1.5-8.101c0.1-0.8,0.5-1.4,1-1.8
		c0.5-0.5,1.2-0.7,2-0.7h4.3c0.8,0,1.4,0.3,1.8,0.8c0.4,0.5,0.601,1.1,0.4,1.9l-0.4,2H65.9l0.3-1.7c0-0.2,0-0.3,0-0.399
		C66.1,17.3,66,17.3,65.8,17.3H62.9c-0.5,0-0.801,0.2-0.9,0.7l-1.2,7c0,0.2,0,0.3,0,0.4c0.101,0.1,0.2,0.1,0.4,0.1H64.1
		c0.5,0,0.801-0.2,0.801-0.7l0.3-1.5h2.7l-0.4,2.2c-0.1,0.8-0.5,1.4-1,1.8c-0.5,0.5-1.2,0.7-2,0.7H60.2z"/>
	<path fill="#F5EDFF" d="M80.3,14.8l-0.5,2.5h-6L73.3,20h4.9l-0.5,2.5h-4.9l-0.5,3h6L77.8,28H69l2.4-13.1H80.3V14.8z"/>
</g>
</svg>
