<?xml version="1.0" encoding="utf-8"?>
<!-- Generator: Adobe Illustrator 16.0.0, SVG Export Plug-In . SVG Version: 6.00 Build 0)  -->
<!DOCTYPE svg PUBLIC "-//W3C//DTD SVG 1.0//EN" "http://www.w3.org/TR/2001/REC-SVG-20010904/DTD/svg10.dtd">
<svg version="1.0" id="图层_1" xmlns="http://www.w3.org/2000/svg" xmlns:xlink="http://www.w3.org/1999/xlink" x="0px" y="0px"
	 width="81.5px" height="32px" viewBox="0 0 81.5 32" enable-background="new 0 0 81.5 32" xml:space="preserve">
<path fill="#0001BF" d="M80.8,7.3L80.9,7.4c0,0.1,0.1,0.1,0.1,0.2s0,0.1,0,0.2l0.1,0.1l0,0H81.2V8h0.1l0,0v0.1v0.1l0,0v0.1v0.1l0,0
	l0,0v0.1v0.1v0.1v0.1h-0.1H81.1l0,0l0,0v0.1V9l0,0l0,0v0.1H81l0,0h-0.1l0,0l0,0c-0.801,0-1.7,0-2.5,0l0,0c-0.103,0-0.103,0-0.103,0
	l0,0h-0.101h-0.1c-6.6,0-13.1,0.1-19.6,0.1h-0.1l0,0v0.1v0.1v0.1v0.1l0,0v0.1v0.1v0.3v0.1l0,0v0.1v0.1v0.1v0.1v0.1h0.1h0.1l0,0H58.7
	h0.1v0.1l0,0v0.1l0,0H58.9l0,0V11v0.1l0,0l0,0c-0.103,0-0.103,0.1-0.103,0.1v0.1v0.1v0.1v0.1v0.1v0.1v0.1V12l0,0v0.1v0.1l0,0v0.1
	l0,0v0.1v0.1v0.1l0,0v0.1v0.1v0.1V13l0,0v0.1v0.1v0.1v0.1l0,0v0.1v0.1l0,0v0.1v0.1v0.1V14l0,0l0,0l0,0c-0.101,0-0.101,0-0.101,0
	c-0.102,0-0.199,0-0.301,0H58.3l0,0l0,0v0.1l0,0v0.1v0.1l0,0v0.1v0.1v0.1v0.1v0.1v0.1l0,0V15l0,0v0.1l0,0v0.1v0.1l0,0v0.1v0.1v0.1
	v0.1v0.1v0.1l0,0V16l0,0v0.1l0,0H58.4l0,0h0.1v0.1l0,0v0.1l0,0l0,0l0,0v0.1v0.1l0,0v0.1l0,0V16.7l0,0v0.1V16.9V19v0.1V19.2v0.1l0,0
	V19.4v0.1l0,0v0.1l0,0V19.7l0,0v0.1V19.9V20v0.1V20.2v0.1V20.4l0,0v0.1v0.1V21v0.1V21.2l0,0v0.1V21.4v0.1v0.1V21.7l0,0v0.1V21.9V22
	v0.1l0,0V22.2v0.1l0,0V22.4v0.1v0.1V22.7v0.1V22.9V23v0.1V23.2l0,0v0.1V23.4l0,0v0.1l0,0v0.1V23.7l0,0v0.1V23.9V24v0.1V24.2l0,0v0.1
	V24.4v0.1l0,0v0.1l0,0V24.7v0.1l0,0V24.9V25v0.1V25.2v0.1V25.4l0,0v0.1l0,0v0.1l0,0V25.7v0.1l0,0V25.9V26l0,0v0.1V26.2l0,0v0.1V26.4
	V27v0.1l0,0V27.2v0.1V27.4v0.1v0.1V27.7v0.1l0,0V27.9V28v0.1V28.2v0.1V28.4l0,0v0.1v0.1V28.7v0.1V28.9l0,0V29h0.1v0.1V29.2v0.1
	c-0.1,0-0.1,0-0.1,0c-0.1,0-0.3,0-0.4,0V29.4L58,29.5l0,0v0.1V29.7l0,0v0.1l0,0V29.9V30v0.1l0,0V30.2v0.1V30.4v0.1l0,0v0.1V30.7v0.1
	l0,0V30.9l0,0V31v0.1l0,0V31.2l0,0h0.1l0,0v0.1V31.4l0,0c-0.1,0-0.1,0-0.1,0c-0.4,0-0.8,0-1.1,0c-0.103,0-0.103,0-0.103,0h-0.101
	V31.3v-0.1h0.101H56.9l0,0V31.1l0,0V31v-0.1V30.8v-0.1V31v-0.1V30.8v-0.1V30.6v-0.1l0,0v-0.1V30.3l0,0v-0.1l0,0V30.1V30l0,0v-0.1
	V29.8l0,0l0,0v-0.1c-0.103,0-0.103,0-0.103,0V29.6l0,0h-0.101c-0.102,0-0.102-0.1-0.102-0.1v-0.1V29.3l0,0v-0.1l0,0V29.1V29v-0.1
	V28.8v-0.1l0,0V28.6v-0.1v-0.1V28v-0.1V27.8l0,0v-0.1V27.6v-0.1v-0.1V27.3v-0.1V27.1l0,0V27v-0.1V26.8v-0.1l0,0V26.6v-0.1l0,0v-0.1
	V26.3l0,0v-0.1V26.1l0,0V26l0,0v-0.1l0,0V25.8v-0.1V25.6v-0.1v-0.1V25.3l0,0v-0.1V25.1l0,0V25l0,0v-0.1V24.8v-0.1l0,0V24.6v-0.1
	v-0.1V24.3v-0.1l0,0V24.1V24l0,0v-0.1l0,0V23.8v-0.1l0,0V23.6v-0.1V23v-0.1V22.8v-0.1V22.6v-0.1v-0.1l0,0V22.3v-0.1l0,0V22.1V22
	v-0.1V21.8l0,0v-0.1V21.6v-0.1v-0.1V21.3l0,0v-0.1V21.1V20.9V20.8v-0.1l0,0V20.6v-0.1v-0.1V20.3v-0.1V20v-0.1l0,0V19.8l0,0v-0.1l0,0
	V19.6v-0.1l0,0v-0.1V19.3v-0.1V19.1V19v-0.1l0,0V18.8l0,0v-0.1l0,0V18.6v-0.1v-0.1l0,0l0,0H56.7l0,0V18.3v-0.1h0.1l0,0V18.1V18v-0.1
	V17.8l0,0v-0.1V17.6v-0.1v-0.1V17.3v-0.1V17.1l0,0V17v-0.1v-0.2V16.6v-0.1l0,0v-0.1v-0.1v-0.1v-0.1V16l0,0v-0.1h-0.1H56.6
	c-0.1,0-0.1,0-0.199,0H56.3l0,0l-0.1-0.1l0,0v-0.1v-0.1l0,0v-0.1v-0.1v-0.1v-0.1l0,0H56.1v-0.1V15l0,0v-0.1v-0.1l0,0v-0.1v-0.1v-0.1
	v-0.1l0,0v-0.1v-0.1v-0.1H56.2H56.1V14C56,14,56,14,55.9,14l0,0L55.8,13.9v-0.1v-0.1v-0.1l0,0v-0.1v-0.1l-0.1-0.1H55.6v0.1v0.1v0.1
	v0.1v0.1l0,0c-0.1,0-0.1,0-0.1,0c-0.1,0-0.2,0.1-0.3,0.1H55.1l0,0V14v0.1l0,0l0,0v0.1l0,0l0,0H54c-0.1,0-0.1,0-0.2,0l0,0h-0.1
	c-0.101,0-0.101,0-0.2,0l0,0c-0.1,0-0.1,0-0.2,0l0,0l0,0h-0.1H53.1c-0.1,0-0.199,0-0.199,0c-0.198,0-0.301,0-0.398,0H52.4
	c-0.102,0-0.301,0.1-0.399,0.1H51.9c-0.102,0-0.102,0-0.102,0l0,0c-0.1,0-0.1,0-0.199,0v-0.1h-0.101h-0.101v-0.1H51.3V14l0,0v-0.1
	v-0.1v-0.1l0,0v-0.1v-0.1v-0.1c-0.1,0-0.1,0-0.2,0H51H41v0.1v0.1v0.1l0,0v0.1v0.1V14l0,0v0.1v0.1h0.1h0.1c0.1,0,0.1,0.1,0.1,0.1v0.1
	l0,0v0.1v0.1v0.1v0.1v0.1V15v0.1v0.1c0,0.1,0.101,0.1,0.101,0.1c0,0.1,0,0.1,0,0.2l0.102,0.1h0.102H41.7l0,0h0.1l0,0H41.9v0.1l0,0
	v0.1v0.1l0,0V16v0.1v0.1v0.1v0.1v0.1l0,0v0.1l0,0V16.7l0,0v0.1V16.9l0,0V17v0.1V17.2v0.1V17.4v0.1l0,0v0.1l0,0V17.7l0,0v0.1V17.9
	l0,0V18v0.1V18.2v0.1l0,0V18.4v0.1v0.1V18.7l0,0v0.1V18.9V19v0.1V19.2v0.1V19.4l0,0v0.1v0.1V20v0.1l0,0V20.2v0.1l0,0V20.4v0.1v0.1
	V20.7l0,0v0.1V21v0.1V21.2l0,0v0.1V21.4l0,0v0.1v0.1V21.7v0.1V21.9V22v0.1V22.2v0.1l0,0V22.4v0.1l0,0v0.1V22.7v0.1V22.9l0,0V23v0.1
	V23.2v0.1l0,0V23.4v0.1v0.1l0,0V23.7l0,0v0.1V23.9l0,0V24v0.1V24.2v0.1V24.4v0.1v0.1V24.7v0.1l0,0V24.9V25l0,0v0.1V25.2l0,0v0.1
	V25.4l0,0v0.1v0.1V25.7v0.1l0,0V25.9V26.1V26.2l0,0v0.1l0,0L41.8,26.4l0,0v0.1v0.1l0,0V26.7l0,0v0.1V26.9h-0.1H41.6
	c-2.8,0-5.6,0-8.3,0h-0.1l0,0h-0.1c-0.1,0-0.1,0-0.1,0h-0.1c-0.1,0-0.1,0-0.2,0V26.8l-0.1-0.1h-0.1c-0.1,0-0.1,0-0.1,0h-0.1V26.6
	v-0.1v-0.1V26.3l0,0v-0.1V26.1V26v-0.1V25.8v-0.1V25.6l0,0v-0.1V26v-0.1V25.8l0,0v-0.1V25.6l0,0v-0.1v-0.1l0,0V25.3v-0.1l0,0V25.1
	V25v-0.1V24.8v-0.1V24.6v-0.1v-0.1V24.3l0,0v-0.1V24.1l0,0V24l0,0v-0.1V23.8v-0.1l0,0V23.6v-0.1v-0.1V23.3l0,0v-0.1V23.1V23v-0.1
	l0,0V22.8v-0.1l0,0V22.6v-0.1v-0.1V22.3v-0.1V22.1V22v-0.1V21.8l0,0v-0.1V21.6l0,0v-0.1v-0.1V21.3v-0.1l0,0V21.1V21v-0.1V20.8l0,0
	v-0.1V20.6l0,0v-0.1v-0.1V20.3v-0.1l0,0V20.1V20v-0.1V19.8v-0.1V19v-0.1l0,0V18.8v-0.1V18.6v-0.1l0,0v-0.1V18.3v-0.1V18.1l0,0V18
	v-0.1l0,0V17.8l0,0v-0.1l0,0V17.6v-0.1v-0.1V17.3v-0.1V17.1l0,0V17v-0.1l0,0V16.8l0,0v-0.1l0,0V16.6l0,0l0,0v-0.1v-0.1v-0.1v-0.1
	v-0.1V16v-0.1l0,0v-0.1v-0.1v-0.1v-0.1l0,0v-0.1v-0.1l0,0l0,0v-0.1v-0.1V15l0.1-0.1v-0.1h0.1h0.1l0,0v-0.1v-0.1l0,0h0.1
	c-0.6,0-1.1,0-1.7,0h-0.1l0,0c0,0.1,0,0.1,0,0.2v0.1V15v0.1v0.1c0,0.1,0,0.1,0,0.1v0.1v0.1l0,0l0.1,0.1l0.1,0.1v0.1v0.1l0,0V16v0.1
	v0.1l0,0l0,0v0.1l0,0L31,16.4h-0.1c-0.2,0-0.3,0.1-0.5,0.1h-0.1l0,0c-0.1,0-0.1,0-0.1,0l0,0c-0.2,0-0.4,0-0.6,0l0,0l0,0v0.1l0,0
	V16.7l0,0v0.1h-0.1V16.9V17l0,0v0.1V17.2v0.1h-0.1l0,0V17.4v0.1l0,0v0.1l0,0V17.7l0,0v0.1V17.9l0,0V18l0,0v0.1V18.2l-0.1,0.1l0,0
	V18.4v0.1l0,0l0,0v0.1l0,0V18.7l0,0l0,0l-0.1,0.1V18.9V19v0.1V19.2l0,0l-0.1,0.1V19.4V20L29,20.1l0,0V20.2v0.1l0,0V20.4v0.1v0.1
	V20.7l0,0v0.1h-0.1V21v0.1L28.8,21.2l0,0v0.1V21.4l0,0v0.1h-0.1h-0.1l0,0v0.1h-0.1l0,0c-0.1,0-0.1,0-0.2,0l0,0h-0.1l0,0h-0.1
	c-0.6,0-1.2,0-1.8,0c-0.1,0-0.1,0-0.2,0l0,0c-0.1,0-0.2,0-0.2,0h-0.1l0,0h-0.1c-0.1,0-0.1,0-0.2,0L24,21.5c-0.1,0-0.1,0-0.1,0h-0.1
	l-0.1-0.1V21.3h-0.1v-0.1V21.1V21v-0.1L23.5,20.8l0,0v-0.1l0,0V20.6v-0.1l0,0v-0.1V20.3v-0.1l0,0V20.1l0,0V20v-0.1V19.8v-0.1l0,0
	V19.6v-0.1l0,0v-0.1l0,0h0.1l0,0V19.3v-0.1l0,0V19.1V19l0,0h0.1v-0.1l0,0V18.8l0,0l0,0v-0.1V18.6l0,0l0,0v-0.1v-0.1l0,0V18.3v-0.1
	h0.1V18.1V18l0,0v-0.1V17.8l0,0v-0.1V17.6v-0.1v-0.1l0,0V17.3v-0.1h0.1V17.1V17l0,0v-0.1V16.8l0,0v-0.1l0,0l0,0V16.6l0,0l0,0l0,0
	v-0.1v-0.1l0,0v-0.1l-0.1-0.1l0,0l0,0v-0.1L23.7,16l0,0c0,0,0-0.1-0.1-0.1h-0.1h-0.1l0,0c-0.1,0-0.1,0-0.2,0v-0.1
	c-0.1,0-0.1,0-0.2,0h-0.1v-0.1h-0.1v-0.1c-0.1,0-0.1,0-0.2,0l-0.1-0.1c-0.1,0-0.1-0.1-0.1-0.1h-0.1l0,0c-0.1,0-0.1-0.1-0.1-0.1l0,0
	l0,0l-0.1-0.1v-0.1l0,0l0,0V15v-0.1l0,0v-0.1v-0.1l0,0v-0.1l0,0l0,0v-0.1v-0.1v-0.1H22h-0.1h-0.1c-0.1,0-0.1,0-0.1,0h-0.1v-0.1
	c-0.1,0-0.1,0-0.1,0h-0.1v-0.1V14v-0.1c-1.7,0-3.4,0-5.2,0h-0.1l0,0c-0.1,0-0.1,0-0.2,0l0,0l-0.1-0.1l0,0l0,0l-0.1-0.1l0,0v-0.1l0,0
	v-0.1v-0.1l0,0v-0.1v-0.1l0,0v-0.1c-0.8,0-1.5,0-2.2,0c-0.1,0-0.2,0-0.3,0c-0.1,0-0.2,0-0.2,0l-0.1,0.1c0,0-0.1,0.1-0.2,0.1h-0.2
	h-0.1v0.1c0,0.1-0.1,0.2-0.1,0.3l-6.5,5.1c-0.1,0.101-0.2,0.101-0.3,0H5.4c-0.1,0-0.1,0-0.1,0c-0.1,0-0.1,0.101-0.2,0.101
	c0,0.102,0,0.102,0,0.199C5.1,19.2,5,19.3,5,19.4L4.4,17c-0.1,0-0.1,0-0.2,0l0,0l0,0l-0.1,0.1l0,0l0,0C4,17.1,4,17.2,4,17.2l0,0l0,0
	H3.9H3.8l-0.1,0.1l0,0H3.6H2.9c-0.1,0-0.1,0-0.2,0l0,0H2.6c-0.1,0-0.1,0-0.2,0c0,0-0.1-0.1-0.2-0.1V17.1c-0.1,0-0.1,0-0.1,0l0,0H2
	L1.9,17l0,0v-0.1V16.8l0,0l-0.1-0.1V16.6v-0.1v-0.1l0,0v-0.1v-0.1l0,0v-0.1V16l0,0v-0.1v-0.1l0,0v-0.1H1.7l0,0v-0.1l0,0v-0.1l0,0
	l-0.1-0.1v-0.1v-0.1v-0.1l0,0V15v-0.1l0,0v-0.1l0,0l-0.1-0.1v-0.1v-0.1l0,0v-0.1v-0.1v-0.1v-0.1l0,0V14v-0.1l-0.1-0.1l0,0v-0.1l0,0
	v-0.1v-0.1l0,0v-0.1v-0.1l0,0l0,0v-0.1v-0.1V13v-0.1l0,0l0,0v-0.1l0,0v-0.1v-0.1l0,0v-0.1v-0.1l0,0v-0.1v-0.1l0,0v-0.1V12v-0.1v-0.1
	v-0.1l0,0v-0.1l0,0l0,0v-0.1v-0.1v-0.1v-0.1l0,0v-0.1L1.3,11v-1V9.9V9.8V9.7V9.6l0,0V9.5V9.4V9.3V9.2l0,0V9.1C0,9,0,9,0,8.9l0,0V8.8
	V8.7l0,0V8.6V8.5l0,0l0.1-0.1l0,0V8.3l0,0V8.2V8.1h0.1V8V7.9h0.1V7.8l0.1-0.1l0,0l0,0c0.1,0,0.1,0,0.1,0c0.1,0,0.1,0,0.2,0l0,0
	c0,0,0.1,0,0.2,0l0,0l0,0l0,0H1l0,0h0.1c0.1,0,0.1,0,0.1,0h0.1h0.1C2,7.3,2,7.3,2.2,7.3h9.4c0.1,0,0.2,0,0.2,0
	c0.1,0,0.1-0.1,0.2-0.1s0.1-0.1,0.2-0.1h0.1c0.1,0,0.1,0,0.2,0s0.1,0,0.2,0c1.8,0,3.7,0,5.6,0l0,0V7V6.8V6.7V6.6h0.1l0,0V6.5V6.4
	l0,0l0.1-0.1l0,0c0.1,0,0.1-0.1,0.2-0.1h0.1V6.1L19,5.9h0.1c0.1,0,0.2,0,0.3,0h0.1l0,0h0.1l0,0V5.8V5.7h0.1V5.6V5.5l0,0V5.4V5.3l0,0
	h-0.1l0,0V5.2l0,0V5.1V5l0,0V4.9V4.8V4.7V4.6l0,0h0.1h0.1l0,0l0,0h0.1l0,0H20h0.1h0.1h0.1h0.1V4.5l0,0V4.4V4.3h0.1V4.2V4.1h0.1
	c0.1,0,0.1,0,0.1,0l0,0c0.2,0,0.4,0,0.6,0h0.1h0.1v0.1l0.1,0.1l0,0v0.1v0.1h0.1c0.1,0,0.2,0,0.3,0s0.1,0,0.2,0l0.1,0.1h0.1l0,0v0.1
	v0.1l0,0c0,0,0,0.1,0.1,0.1s0.1,0,0.1,0l0,0c0.1,0,0.1,0,0.1,0c0.5,0,1,0,1.5,0c0.2,0,0.5,0,0.8,0h0.1h0.1l0,0h0.1
	c0.1,0,0.1,0.1,0.1,0.1l0,0h0.1l0,0c0.1,0,0.1,0.1,0.1,0.1v0.1h0.1v0.1v0.1v0.1h0.1h0.1H26v0.1V5v0.1v0.1v0.1v0.1l0,0l0,0v0.1v0.1
	l0,0l0,0l0,0v0.1l0,0v0.1l0,0h0.1c1.2,0,2.3,0,3.5,0l0,0l0,0l0,0h0.1c0,0,0.1,0,0.2,0V5.7L30,5.6l0,0l0.1-0.1V5.4l0.1-0.1l0,0h0.1
	l0,0c0.1,0,0.1,0,0.2,0l0.1,0.1l0.1,0.1v0.1c0.1-0.1,0.1-0.1,0.2-0.1s0.1,0,0.2-0.1c0.1,0,0.2,0,0.3,0l0,0c0.1,0,0.2,0,0.3,0
	l0.1,0.1c0-0.1,0-0.1,0-0.1c0.1-0.1,0.2-0.1,0.3-0.1h2.3c0.1,0,0.2,0,0.2,0.1s0.1,0.1,0.1,0.2c0.2,0,0.3,0,0.4,0s0.1,0,0.2,0h0.1
	c1,0,2,0,3,0c0.1,0,0.1,0,0.1,0c0.1,0,0.1,0,0.1,0c0.1,0,0.1,0.1,0.1,0.1l0.1,0.1l0,0l0,0l0.1-0.1V5.6l0,0H39l0,0h0.1h0.1v0.1v0.1
	l0,0l0,0h0.1c0.1,0,0.1,0,0.2,0h0.1l0,0c0.6,0,1.2,0,1.8,0l0,0l0.1-0.1l0.1-0.1l0,0c0.103,0,0.103,0,0.2,0c0.2,0,0.4,0,0.7,0V5.5
	h0.1H42.7l0,0c0.1,0,0.1-0.1,0.2-0.1c0.1,0,0.199,0,0.3,0l0,0l0,0l0.1-0.1c0.101,0,0.101,0,0.101,0c0.102,0,0.199,0,0.199,0H43.7
	l0,0l0,0l0,0h0.1c0.101,0,0.101,0,0.101,0l0,0H44V4.6V4.5V4.4h-0.1l0,0l0,0L43,3c-0.1,0-0.1-0.1-0.2-0.2c0-0.1,0-0.1,0-0.2l0,0h-0.1
	H42.6h-0.1c-0.1,0-0.1,0-0.1,0c-0.103,0-0.2-0.1-0.301-0.1H42l0,0h-0.1c-0.103,0-0.103,0-0.103,0c-0.101,0-0.101,0-0.198,0h-0.102
	l-0.102-0.1L41.3,2.3h-0.1c-0.1,0-0.1,0-0.1,0c-0.1,0-0.1,0-0.1,0V2.2h-0.1V2.1l0,0l0,0l0,0l0,0h-0.1L40.7,2V1.9V1.8V1.7l0,0V1.6
	V1.5l0,0l0,0V1.4l0,0V1.3l0,0l0,0l0.1-0.1h0.1l0,0C40.9,1.1,41,1,41.1,1c-0.4-1-0.3-1-0.2-1l0.3,0.1c0.1,0,0.2,0.1,0.3,0.2
	c0.1,0.1,0.1,0.2,0,0.3h0.1H41.7h0.1H41.9c0.1,0,0.1,0,0.1,0l0,0h0.1c0.103,0,0.103,0,0.103,0l0,0c0-0.1,0-0.1,0.101-0.1
	c0.102-0.1,0.199-0.1,0.301-0.1c0.101,0,0.101,0,0.199,0l4.899,1.3c0.101,0,0.198,0,0.198,0.1v0.1H48h0.1H48.2V2h0.1H48.4v0.1h0.1
	l0,0l0,0c0.1,0,0.1,0,0.2,0l0,0c0.1,0,0.1,0.1,0.1,0.1l0,0L48.9,2.3v0.1l0,0v0.1v0.1l0,0v0.1l0,0v0.1l0,0v0.1V3v0.1v0.1v0.1v0.1l0,0
	v0.1v0.1l0,0v0.1v0.1v0.1V4l0,0v0.1v0.1v0.1v0.1v0.1l0,0v0.1v0.1v0.1l0,0v0.1V5l0,0v0.1v0.1l0,0H48.8v0.1h-0.1H48.6l0,0l0,0l0,0l0,0
	h-0.1c-0.5,0-1,0-1.5,0l0,0l0,0l0,0l0,0c-0.1,0-0.1,0-0.1,0c-0.103,0-0.103,0.1-0.2,0.1v0.1v0.1v0.1v0.1c2.3,0,4.6,0,6.899,0l0,0
	V5.7V5.6v0.9V6.4V6.3H53.7h0.1H53.9V6.2H54l0,0l0,0V6.1l0,0V6V5.9V5.8V5.7l0,0V5.6V5.5l0,0h-0.1l0,0V5.4l0,0V5.3L54,5.2l0,0h0.1
	H54.2V5.1h0.1V5V4.9l0,0l0,0H54.4V4.8l0,0l0,0h0.1c0.2,0,0.4,0,0.6,0l0,0H55.2l0,0c0.1,0,0.1,0,0.2,0c0.1,0,0.1,0.1,0.1,0.1l0,0l0,0
	c0.1,0,0.1,0,0.1,0l0,0C55.7,4.9,55.7,5,55.8,5l0,0l0,0v0.1v0.1v0.1v0.1v0.1v0.1v0.1l0,0l0,0l0,0l0,0C55.9,5.7,55.9,5.8,56,5.8l0,0
	l0,0v0.1h0.1l0,0l0,0V6v0.1l0,0v0.1v0.1v0.1v0.1l0,0v0.1v0.1v0.1l0,0v0.1v0.2H56.2h0.1C56.4,7.1,56.4,7.2,56.4,7.2v0.1h0.1l0,0v0.1
	l0,0c7.4,0,14.8,0,22.2,0c0.1,0,0.2,0,0.3,0s0.2,0.1,0.3,0.1C80.6,7.2,80.7,7.3,80.8,7.3z M58.3,15L58.3,15L58.3,15L58.3,15z
	 M56.7,5.5L56.7,5.5c0,0.1,0,0.2,0,0.2l0,0v0.1V5.7V5.6V5.5L56.7,5.5L56.7,5.5z M54.7,6.5L54.7,6.5L54.7,6.5L54.7,6.5z M54.5,6.7
	C54.6,6.7,54.6,6.7,54.5,6.7L54.5,6.7L54.5,6.7L54.5,6.7z M47.4,4.4L47.4,4.4v0.1V4.4L47.4,4.4C47.4,4.3,47.4,4.3,47.4,4.4L47.4,4.4
	L47.4,4.4z M44.8,6c-0.1,0-0.2,0-0.3,0C44.6,6.1,44.7,6.1,44.8,6L44.8,6z M56.4,15L56.4,15L56.4,15L56.4,15z M22,11.6L22,11.6
	L22,11.6C22,11.5,22,11.6,22,11.6L22,11.6z M25,14.4C25.1,14.5,25.1,14.5,25,14.4L25,14.4C25.1,14.4,25.1,14.4,25,14.4z M30.2,15.4
	c0,0.1-0.1,0.1-0.1,0.1h0.1C30.3,15.5,30.3,15.4,30.2,15.4L30.2,15.4z M11.1,9.6H3.2v0.1c0,0.1,0,0.1,0,0.1v0.1V10v0.1v0.1
	c0,0.1,0.1,0.1,0.1,0.1c0,0.1,0,0.1,0,0.2l0,0c0,0.1,0,0.1,0,0.1c0,0.1,0,0.1,0,0.2c0,0.1,0.1,0.1,0.1,0.1V11l0,0c0.1,0,0.1,0,0.2,0
	c0.1,0.1,0.1,0.1,0.2,0.2l0.7,2.1l1.2-0.9c0.1-0.1,0.2-0.1,0.3-0.1s0.2,0.1,0.2,0.1l0.1-0.1l0.1-0.1v-0.1l0,0h0.1V12
	c0.1,0,0.2-0.1,0.2-0.1l0,0h0.1l0.1-0.1H7h0.1c0,0,0-0.1,0.1-0.1l0.1-0.1l0.1-0.1c0.1,0,0.1-0.1,0.1-0.1h0.1h0.1v-0.1h0.1h0.1v-0.1
	C8,11.2,8,11.1,8,11.1l0,0L8.1,11C9,11.1,9,11,9,11c0.1,0,0.1-0.1,0.1-0.1l0,0v-0.1l0.1-0.1h0.1l0.1-0.1v-0.1h0.1v-0.1
	c0.1,0,0.1,0,0.1,0l0.1-0.1h0.1l0.1-0.1l0.1-0.1h0.1c0.1,0,0.1-0.1,0.1-0.1h0.1l0,0V9.9c0.1,0,0.1-0.1,0.1-0.1
	C11,9.6,11,9.6,11.1,9.6z"/>
<g>
	<defs>
		<path id="SVGID_1_" d="M80.8,7.3L80.9,7.4c0,0.1,0.1,0.1,0.1,0.2s0,0.1,0,0.2l0.1,0.1l0,0H81.2V8h0.1l0,0v0.1v0.1l0,0v0.1v0.1l0,0
			l0,0v0.1v0.1v0.1v0.1h-0.1H81.1l0,0l0,0v0.1V9l0,0l0,0v0.1H81l0,0h-0.1l0,0l0,0c-0.801,0-1.7,0-2.5,0l0,0
			c-0.103,0-0.103,0-0.103,0l0,0h-0.101h-0.1c-6.6,0-13.1,0.1-19.6,0.1h-0.1l0,0v0.1v0.1v0.1v0.1l0,0v0.1v0.1v0.3v0.1l0,0v0.1v0.1
			v0.1v0.1v0.1h0.1h0.1l0,0H58.7h0.1v0.1l0,0v0.1l0,0H58.9l0,0V11v0.1l0,0l0,0c-0.103,0-0.103,0.1-0.103,0.1v0.1v0.1v0.1v0.1v0.1
			v0.1v0.1V12l0,0v0.1v0.1l0,0v0.1l0,0v0.1v0.1v0.1l0,0v0.1v0.1v0.1V13l0,0v0.1v0.1v0.1v0.1l0,0v0.1v0.1l0,0v0.1v0.1v0.1V14l0,0l0,0
			l0,0c-0.101,0-0.101,0-0.101,0c-0.102,0-0.199,0-0.301,0H58.3l0,0l0,0v0.1l0,0v0.1v0.1l0,0v0.1v0.1v0.1v0.1v0.1v0.1l0,0V15l0,0
			v0.1l0,0v0.1v0.1l0,0v0.1v0.1v0.1v0.1v0.1v0.1l0,0V16l0,0v0.1l0,0H58.4l0,0h0.1v0.1l0,0v0.1l0,0l0,0l0,0v0.1v0.1l0,0v0.1l0,0V16.7
			l0,0v0.1V16.9V19v0.1V19.2v0.1l0,0V19.4v0.1l0,0v0.1l0,0V19.7l0,0v0.1V19.9V20v0.1V20.2v0.1V20.4l0,0v0.1v0.1V21v0.1V21.2l0,0v0.1
			V21.4v0.1v0.1V21.7l0,0v0.1V21.9V22v0.1l0,0V22.2v0.1l0,0V22.4v0.1v0.1V22.7v0.1V22.9V23v0.1V23.2l0,0v0.1V23.4l0,0v0.1l0,0v0.1
			V23.7l0,0v0.1V23.9V24v0.1V24.2l0,0v0.1V24.4v0.1l0,0v0.1l0,0V24.7v0.1l0,0V24.9V25v0.1V25.2v0.1V25.4l0,0v0.1l0,0v0.1l0,0V25.7
			v0.1l0,0V25.9V26l0,0v0.1V26.2l0,0v0.1V26.4V27v0.1l0,0V27.2v0.1V27.4v0.1v0.1V27.7v0.1l0,0V27.9V28v0.1V28.2v0.1V28.4l0,0v0.1
			v0.1V28.7v0.1V28.9l0,0V29h0.1v0.1V29.2v0.1c-0.1,0-0.1,0-0.1,0c-0.1,0-0.3,0-0.4,0V29.4L58,29.5l0,0v0.1V29.7l0,0v0.1l0,0V29.9
			V30v0.1l0,0V30.2v0.1V30.4v0.1l0,0v0.1V30.7v0.1l0,0V30.9l0,0V31v0.1l0,0V31.2l0,0h0.1l0,0v0.1V31.4l0,0c-0.1,0-0.1,0-0.1,0
			c-0.4,0-0.8,0-1.1,0c-0.103,0-0.103,0-0.103,0h-0.101V31.3v-0.1h0.101H56.9l0,0V31.1l0,0V31v-0.1V30.8v-0.1V31v-0.1V30.8v-0.1
			V30.6v-0.1l0,0v-0.1V30.3l0,0v-0.1l0,0V30.1V30l0,0v-0.1V29.8l0,0l0,0v-0.1c-0.103,0-0.103,0-0.103,0V29.6l0,0h-0.101
			c-0.102,0-0.102-0.1-0.102-0.1v-0.1V29.3l0,0v-0.1l0,0V29.1V29v-0.1V28.8v-0.1l0,0V28.6v-0.1v-0.1V28v-0.1V27.8l0,0v-0.1V27.6
			v-0.1v-0.1V27.3v-0.1V27.1l0,0V27v-0.1V26.8v-0.1l0,0V26.6v-0.1l0,0v-0.1V26.3l0,0v-0.1V26.1l0,0V26l0,0v-0.1l0,0V25.8v-0.1V25.6
			v-0.1v-0.1V25.3l0,0v-0.1V25.1l0,0V25l0,0v-0.1V24.8v-0.1l0,0V24.6v-0.1v-0.1V24.3v-0.1l0,0V24.1V24l0,0v-0.1l0,0V23.8v-0.1l0,0
			V23.6v-0.1V23v-0.1V22.8v-0.1V22.6v-0.1v-0.1l0,0V22.3v-0.1l0,0V22.1V22v-0.1V21.8l0,0v-0.1V21.6v-0.1v-0.1V21.3l0,0v-0.1V21.1
			V20.9V20.8v-0.1l0,0V20.6v-0.1v-0.1V20.3v-0.1V20v-0.1l0,0V19.8l0,0v-0.1l0,0V19.6v-0.1l0,0v-0.1V19.3v-0.1V19.1V19v-0.1l0,0V18.8
			l0,0v-0.1l0,0V18.6v-0.1v-0.1l0,0l0,0H56.7l0,0V18.3v-0.1h0.1l0,0V18.1V18v-0.1V17.8l0,0v-0.1V17.6v-0.1v-0.1V17.3v-0.1V17.1l0,0
			V17v-0.1v-0.2V16.6v-0.1l0,0v-0.1v-0.1v-0.1v-0.1V16l0,0v-0.1h-0.1H56.6c-0.1,0-0.1,0-0.199,0H56.3l0,0l-0.1-0.1l0,0v-0.1v-0.1
			l0,0v-0.1v-0.1v-0.1v-0.1l0,0H56.1v-0.1V15l0,0v-0.1v-0.1l0,0v-0.1v-0.1v-0.1v-0.1l0,0v-0.1v-0.1v-0.1H56.2H56.1V14
			C56,14,56,14,55.9,14l0,0L55.8,13.9v-0.1v-0.1v-0.1l0,0v-0.1v-0.1l-0.1-0.1H55.6v0.1v0.1v0.1v0.1v0.1l0,0c-0.1,0-0.1,0-0.1,0
			c-0.1,0-0.2,0.1-0.3,0.1H55.1l0,0V14v0.1l0,0l0,0v0.1l0,0l0,0H54c-0.1,0-0.1,0-0.2,0l0,0h-0.1c-0.101,0-0.101,0-0.2,0l0,0
			c-0.1,0-0.1,0-0.2,0l0,0l0,0h-0.1H53.1c-0.1,0-0.199,0-0.199,0c-0.198,0-0.301,0-0.398,0H52.4c-0.102,0-0.301,0.1-0.399,0.1H51.9
			c-0.102,0-0.102,0-0.102,0l0,0c-0.1,0-0.1,0-0.199,0v-0.1h-0.101h-0.101v-0.1H51.3V14l0,0v-0.1v-0.1v-0.1l0,0v-0.1v-0.1v-0.1
			c-0.1,0-0.1,0-0.2,0H51H41v0.1v0.1v0.1l0,0v0.1v0.1V14l0,0v0.1v0.1h0.1h0.1c0.1,0,0.1,0.1,0.1,0.1v0.1l0,0v0.1v0.1v0.1v0.1v0.1V15
			v0.1v0.1c0,0.1,0.101,0.1,0.101,0.1c0,0.1,0,0.1,0,0.2l0.102,0.1h0.102H41.7l0,0h0.1l0,0H41.9v0.1l0,0v0.1v0.1l0,0V16v0.1v0.1v0.1
			v0.1v0.1l0,0v0.1l0,0V16.7l0,0v0.1V16.9l0,0V17v0.1V17.2v0.1V17.4v0.1l0,0v0.1l0,0V17.7l0,0v0.1V17.9l0,0V18v0.1V18.2v0.1l0,0
			V18.4v0.1v0.1V18.7l0,0v0.1V18.9V19v0.1V19.2v0.1V19.4l0,0v0.1v0.1V20v0.1l0,0V20.2v0.1l0,0V20.4v0.1v0.1V20.7l0,0v0.1V21v0.1
			V21.2l0,0v0.1V21.4l0,0v0.1v0.1V21.7v0.1V21.9V22v0.1V22.2v0.1l0,0V22.4v0.1l0,0v0.1V22.7v0.1V22.9l0,0V23v0.1V23.2v0.1l0,0V23.4
			v0.1v0.1l0,0V23.7l0,0v0.1V23.9l0,0V24v0.1V24.2v0.1V24.4v0.1v0.1V24.7v0.1l0,0V24.9V25l0,0v0.1V25.2l0,0v0.1V25.4l0,0v0.1v0.1
			V25.7v0.1l0,0V25.9V26.1V26.2l0,0v0.1l0,0L41.8,26.4l0,0v0.1v0.1l0,0V26.7l0,0v0.1V26.9h-0.1H41.6c-2.8,0-5.6,0-8.3,0h-0.1l0,0
			h-0.1c-0.1,0-0.1,0-0.1,0h-0.1c-0.1,0-0.1,0-0.2,0V26.8l-0.1-0.1h-0.1c-0.1,0-0.1,0-0.1,0h-0.1V26.6v-0.1v-0.1V26.3l0,0v-0.1V26.1
			V26v-0.1V25.8v-0.1V25.6l0,0v-0.1V26v-0.1V25.8l0,0v-0.1V25.6l0,0v-0.1v-0.1l0,0V25.3v-0.1l0,0V25.1V25v-0.1V24.8v-0.1V24.6v-0.1
			v-0.1V24.3l0,0v-0.1V24.1l0,0V24l0,0v-0.1V23.8v-0.1l0,0V23.6v-0.1v-0.1V23.3l0,0v-0.1V23.1V23v-0.1l0,0V22.8v-0.1l0,0V22.6v-0.1
			v-0.1V22.3v-0.1V22.1V22v-0.1V21.8l0,0v-0.1V21.6l0,0v-0.1v-0.1V21.3v-0.1l0,0V21.1V21v-0.1V20.8l0,0v-0.1V20.6l0,0v-0.1v-0.1
			V20.3v-0.1l0,0V20.1V20v-0.1V19.8v-0.1V19v-0.1l0,0V18.8v-0.1V18.6v-0.1l0,0v-0.1V18.3v-0.1V18.1l0,0V18v-0.1l0,0V17.8l0,0v-0.1
			l0,0V17.6v-0.1v-0.1V17.3v-0.1V17.1l0,0V17v-0.1l0,0V16.8l0,0v-0.1l0,0V16.6l0,0l0,0v-0.1v-0.1v-0.1v-0.1v-0.1V16v-0.1l0,0v-0.1
			v-0.1v-0.1v-0.1l0,0v-0.1v-0.1l0,0l0,0v-0.1v-0.1V15l0.1-0.1v-0.1h0.1h0.1l0,0v-0.1v-0.1l0,0h0.1c-0.6,0-1.1,0-1.7,0h-0.1l0,0
			c0,0.1,0,0.1,0,0.2v0.1V15v0.1v0.1c0,0.1,0,0.1,0,0.1v0.1v0.1l0,0l0.1,0.1l0.1,0.1v0.1v0.1l0,0V16v0.1v0.1l0,0l0,0v0.1l0,0
			L31,16.4h-0.1c-0.2,0-0.3,0.1-0.5,0.1h-0.1l0,0c-0.1,0-0.1,0-0.1,0l0,0c-0.2,0-0.4,0-0.6,0l0,0l0,0v0.1l0,0V16.7l0,0v0.1h-0.1
			V16.9V17l0,0v0.1V17.2v0.1h-0.1l0,0V17.4v0.1l0,0v0.1l0,0V17.7l0,0v0.1V17.9l0,0V18l0,0v0.1V18.2l-0.1,0.1l0,0V18.4v0.1l0,0l0,0
			v0.1l0,0V18.7l0,0l0,0l-0.1,0.1V18.9V19v0.1V19.2l0,0l-0.1,0.1V19.4V20L29,20.1l0,0V20.2v0.1l0,0V20.4v0.1v0.1V20.7l0,0v0.1h-0.1
			V21v0.1L28.8,21.2l0,0v0.1V21.4l0,0v0.1h-0.1h-0.1l0,0v0.1h-0.1l0,0c-0.1,0-0.1,0-0.2,0l0,0h-0.1l0,0h-0.1c-0.6,0-1.2,0-1.8,0
			c-0.1,0-0.1,0-0.2,0l0,0c-0.1,0-0.2,0-0.2,0h-0.1l0,0h-0.1c-0.1,0-0.1,0-0.2,0L24,21.5c-0.1,0-0.1,0-0.1,0h-0.1l-0.1-0.1V21.3
			h-0.1v-0.1V21.1V21v-0.1L23.5,20.8l0,0v-0.1l0,0V20.6v-0.1l0,0v-0.1V20.3v-0.1l0,0V20.1l0,0V20v-0.1V19.8v-0.1l0,0V19.6v-0.1l0,0
			v-0.1l0,0h0.1l0,0V19.3v-0.1l0,0V19.1V19l0,0h0.1v-0.1l0,0V18.8l0,0l0,0v-0.1V18.6l0,0l0,0v-0.1v-0.1l0,0V18.3v-0.1h0.1V18.1V18
			l0,0v-0.1V17.8l0,0v-0.1V17.6v-0.1v-0.1l0,0V17.3v-0.1h0.1V17.1V17l0,0v-0.1V16.8l0,0v-0.1l0,0l0,0V16.6l0,0l0,0l0,0v-0.1v-0.1
			l0,0v-0.1l-0.1-0.1l0,0l0,0v-0.1L23.7,16l0,0c0,0,0-0.1-0.1-0.1h-0.1h-0.1l0,0c-0.1,0-0.1,0-0.2,0v-0.1c-0.1,0-0.1,0-0.2,0h-0.1
			v-0.1h-0.1v-0.1c-0.1,0-0.1,0-0.2,0l-0.1-0.1c-0.1,0-0.1-0.1-0.1-0.1h-0.1l0,0c-0.1,0-0.1-0.1-0.1-0.1l0,0l0,0l-0.1-0.1v-0.1l0,0
			l0,0V15v-0.1l0,0v-0.1v-0.1l0,0v-0.1l0,0l0,0v-0.1v-0.1v-0.1H22h-0.1h-0.1c-0.1,0-0.1,0-0.1,0h-0.1v-0.1c-0.1,0-0.1,0-0.1,0h-0.1
			v-0.1V14v-0.1c-1.7,0-3.4,0-5.2,0h-0.1l0,0c-0.1,0-0.1,0-0.2,0l0,0l-0.1-0.1l0,0l0,0l-0.1-0.1l0,0v-0.1l0,0v-0.1v-0.1l0,0v-0.1
			v-0.1l0,0v-0.1c-0.8,0-1.5,0-2.2,0c-0.1,0-0.2,0-0.3,0c-0.1,0-0.2,0-0.2,0l-0.1,0.1c0,0-0.1,0.1-0.2,0.1h-0.2h-0.1v0.1
			c0,0.1-0.1,0.2-0.1,0.3l-6.5,5.1c-0.1,0.101-0.2,0.101-0.3,0H5.4c-0.1,0-0.1,0-0.1,0c-0.1,0-0.1,0.101-0.2,0.101
			c0,0.102,0,0.102,0,0.199C5.1,19.2,5,19.3,5,19.4L4.4,17c-0.1,0-0.1,0-0.2,0l0,0l0,0l-0.1,0.1l0,0l0,0C4,17.1,4,17.2,4,17.2l0,0
			l0,0H3.9H3.8l-0.1,0.1l0,0H3.6H2.9c-0.1,0-0.1,0-0.2,0l0,0H2.6c-0.1,0-0.1,0-0.2,0c0,0-0.1-0.1-0.2-0.1V17.1c-0.1,0-0.1,0-0.1,0
			l0,0H2L1.9,17l0,0v-0.1V16.8l0,0l-0.1-0.1V16.6v-0.1v-0.1l0,0v-0.1v-0.1l0,0v-0.1V16l0,0v-0.1v-0.1l0,0v-0.1H1.7l0,0v-0.1l0,0
			v-0.1l0,0l-0.1-0.1v-0.1v-0.1v-0.1l0,0V15v-0.1l0,0v-0.1l0,0l-0.1-0.1v-0.1v-0.1l0,0v-0.1v-0.1v-0.1v-0.1l0,0V14v-0.1l-0.1-0.1
			l0,0v-0.1l0,0v-0.1v-0.1l0,0v-0.1v-0.1l0,0l0,0v-0.1v-0.1V13v-0.1l0,0l0,0v-0.1l0,0v-0.1v-0.1l0,0v-0.1v-0.1l0,0v-0.1v-0.1l0,0
			v-0.1V12v-0.1v-0.1v-0.1l0,0v-0.1l0,0l0,0v-0.1v-0.1v-0.1v-0.1l0,0v-0.1L1.3,11v-1V9.9V9.8V9.7V9.6l0,0V9.5V9.4V9.3V9.2l0,0V9.1
			C0,9,0,9,0,8.9l0,0V8.8V8.7l0,0V8.6V8.5l0,0l0.1-0.1l0,0V8.3l0,0V8.2V8.1h0.1V8V7.9h0.1V7.8l0.1-0.1l0,0l0,0c0.1,0,0.1,0,0.1,0
			c0.1,0,0.1,0,0.2,0l0,0c0,0,0.1,0,0.2,0l0,0l0,0l0,0H1l0,0h0.1c0.1,0,0.1,0,0.1,0h0.1h0.1C2,7.3,2,7.3,2.2,7.3h9.4
			c0.1,0,0.2,0,0.2,0c0.1,0,0.1-0.1,0.2-0.1s0.1-0.1,0.2-0.1h0.1c0.1,0,0.1,0,0.2,0s0.1,0,0.2,0c1.8,0,3.7,0,5.6,0l0,0V7V6.8V6.7
			V6.6h0.1l0,0V6.5V6.4l0,0l0.1-0.1l0,0c0.1,0,0.1-0.1,0.2-0.1h0.1V6.1L19,5.9h0.1c0.1,0,0.2,0,0.3,0h0.1l0,0h0.1l0,0V5.8V5.7h0.1
			V5.6V5.5l0,0V5.4V5.3l0,0h-0.1l0,0V5.2l0,0V5.1V5l0,0V4.9V4.8V4.7V4.6l0,0h0.1h0.1l0,0l0,0h0.1l0,0H20h0.1h0.1h0.1h0.1V4.5l0,0
			V4.4V4.3h0.1V4.2V4.1h0.1c0.1,0,0.1,0,0.1,0l0,0c0.2,0,0.4,0,0.6,0h0.1h0.1v0.1l0.1,0.1l0,0v0.1v0.1h0.1c0.1,0,0.2,0,0.3,0
			s0.1,0,0.2,0l0.1,0.1h0.1l0,0v0.1v0.1l0,0c0,0,0,0.1,0.1,0.1s0.1,0,0.1,0l0,0c0.1,0,0.1,0,0.1,0c0.5,0,1,0,1.5,0
			c0.2,0,0.5,0,0.8,0h0.1h0.1l0,0h0.1c0.1,0,0.1,0.1,0.1,0.1l0,0h0.1l0,0c0.1,0,0.1,0.1,0.1,0.1v0.1h0.1v0.1v0.1v0.1h0.1h0.1H26v0.1
			V5v0.1v0.1v0.1v0.1l0,0l0,0v0.1v0.1l0,0l0,0l0,0v0.1l0,0v0.1l0,0h0.1c1.2,0,2.3,0,3.5,0l0,0l0,0l0,0h0.1c0,0,0.1,0,0.2,0V5.7
			L30,5.6l0,0l0.1-0.1V5.4l0.1-0.1l0,0h0.1l0,0c0.1,0,0.1,0,0.2,0l0.1,0.1l0.1,0.1v0.1c0.1-0.1,0.1-0.1,0.2-0.1s0.1,0,0.2-0.1
			c0.1,0,0.2,0,0.3,0l0,0c0.1,0,0.2,0,0.3,0l0.1,0.1c0-0.1,0-0.1,0-0.1c0.1-0.1,0.2-0.1,0.3-0.1h2.3c0.1,0,0.2,0,0.2,0.1
			s0.1,0.1,0.1,0.2c0.2,0,0.3,0,0.4,0s0.1,0,0.2,0h0.1c1,0,2,0,3,0c0.1,0,0.1,0,0.1,0c0.1,0,0.1,0,0.1,0c0.1,0,0.1,0.1,0.1,0.1
			l0.1,0.1l0,0l0,0l0.1-0.1V5.6l0,0H39l0,0h0.1h0.1v0.1v0.1l0,0l0,0h0.1c0.1,0,0.1,0,0.2,0h0.1l0,0c0.6,0,1.2,0,1.8,0l0,0l0.1-0.1
			l0.1-0.1l0,0c0.103,0,0.103,0,0.2,0c0.2,0,0.4,0,0.7,0V5.5h0.1H42.7l0,0c0.1,0,0.1-0.1,0.2-0.1c0.1,0,0.199,0,0.3,0l0,0l0,0
			l0.1-0.1c0.101,0,0.101,0,0.101,0c0.102,0,0.199,0,0.199,0H43.7l0,0l0,0l0,0h0.1c0.101,0,0.101,0,0.101,0l0,0H44V4.6V4.5V4.4h-0.1
			l0,0l0,0L43,3c-0.1,0-0.1-0.1-0.2-0.2c0-0.1,0-0.1,0-0.2l0,0h-0.1H42.6h-0.1c-0.1,0-0.1,0-0.1,0c-0.103,0-0.2-0.1-0.301-0.1H42
			l0,0h-0.1c-0.103,0-0.103,0-0.103,0c-0.101,0-0.101,0-0.198,0h-0.102l-0.102-0.1L41.3,2.3h-0.1c-0.1,0-0.1,0-0.1,0
			c-0.1,0-0.1,0-0.1,0V2.2h-0.1V2.1l0,0l0,0l0,0l0,0h-0.1L40.7,2V1.9V1.8V1.7l0,0V1.6V1.5l0,0l0,0V1.4l0,0V1.3l0,0l0,0l0.1-0.1h0.1
			l0,0C40.9,1.1,41,1,41.1,1c-0.4-1-0.3-1-0.2-1l0.3,0.1c0.1,0,0.2,0.1,0.3,0.2c0.1,0.1,0.1,0.2,0,0.3h0.1H41.7h0.1H41.9
			c0.1,0,0.1,0,0.1,0l0,0h0.1c0.103,0,0.103,0,0.103,0l0,0c0-0.1,0-0.1,0.101-0.1c0.102-0.1,0.199-0.1,0.301-0.1
			c0.101,0,0.101,0,0.199,0l4.899,1.3c0.101,0,0.198,0,0.198,0.1v0.1H48h0.1H48.2V2h0.1H48.4v0.1h0.1l0,0l0,0c0.1,0,0.1,0,0.2,0l0,0
			c0.1,0,0.1,0.1,0.1,0.1l0,0L48.9,2.3v0.1l0,0v0.1v0.1l0,0v0.1l0,0v0.1l0,0v0.1V3v0.1v0.1v0.1v0.1l0,0v0.1v0.1l0,0v0.1v0.1v0.1V4
			l0,0v0.1v0.1v0.1v0.1v0.1l0,0v0.1v0.1v0.1l0,0v0.1V5l0,0v0.1v0.1l0,0H48.8v0.1h-0.1H48.6l0,0l0,0l0,0l0,0h-0.1c-0.5,0-1,0-1.5,0
			l0,0l0,0l0,0l0,0c-0.1,0-0.1,0-0.1,0c-0.103,0-0.103,0.1-0.2,0.1v0.1v0.1v0.1v0.1c2.3,0,4.6,0,6.899,0l0,0V5.7V5.6v0.9V6.4V6.3
			H53.7h0.1H53.9V6.2H54l0,0l0,0V6.1l0,0V6V5.9V5.8V5.7l0,0V5.6V5.5l0,0h-0.1l0,0V5.4l0,0V5.3L54,5.2l0,0h0.1H54.2V5.1h0.1V5V4.9
			l0,0l0,0H54.4V4.8l0,0l0,0h0.1c0.2,0,0.4,0,0.6,0l0,0H55.2l0,0c0.1,0,0.1,0,0.2,0c0.1,0,0.1,0.1,0.1,0.1l0,0l0,0
			c0.1,0,0.1,0,0.1,0l0,0C55.7,4.9,55.7,5,55.8,5l0,0l0,0v0.1v0.1v0.1v0.1v0.1v0.1v0.1l0,0l0,0l0,0l0,0C55.9,5.7,55.9,5.8,56,5.8
			l0,0l0,0v0.1h0.1l0,0l0,0V6v0.1l0,0v0.1v0.1v0.1v0.1l0,0v0.1v0.1v0.1l0,0v0.1v0.2H56.2h0.1C56.4,7.1,56.4,7.2,56.4,7.2v0.1h0.1
			l0,0v0.1l0,0c7.4,0,14.8,0,22.2,0c0.1,0,0.2,0,0.3,0s0.2,0.1,0.3,0.1C80.6,7.2,80.7,7.3,80.8,7.3z M58.3,15L58.3,15L58.3,15
			L58.3,15z M56.7,5.5L56.7,5.5c0,0.1,0,0.2,0,0.2l0,0v0.1V5.7V5.6V5.5L56.7,5.5L56.7,5.5z M54.7,6.5L54.7,6.5L54.7,6.5L54.7,6.5z
			 M54.5,6.7C54.6,6.7,54.6,6.7,54.5,6.7L54.5,6.7L54.5,6.7L54.5,6.7z M47.4,4.4L47.4,4.4v0.1V4.4L47.4,4.4
			C47.4,4.3,47.4,4.3,47.4,4.4L47.4,4.4L47.4,4.4z M44.8,6c-0.1,0-0.2,0-0.3,0C44.6,6.1,44.7,6.1,44.8,6L44.8,6z M56.4,15L56.4,15
			L56.4,15L56.4,15z M22,11.6L22,11.6L22,11.6C22,11.5,22,11.6,22,11.6L22,11.6z M25,14.4C25.1,14.5,25.1,14.5,25,14.4L25,14.4
			C25.1,14.4,25.1,14.4,25,14.4z M30.2,15.4c0,0.1-0.1,0.1-0.1,0.1h0.1C30.3,15.5,30.3,15.4,30.2,15.4L30.2,15.4z M11.1,9.6H3.2v0.1
			c0,0.1,0,0.1,0,0.1v0.1V10v0.1v0.1c0,0.1,0.1,0.1,0.1,0.1c0,0.1,0,0.1,0,0.2l0,0c0,0.1,0,0.1,0,0.1c0,0.1,0,0.1,0,0.2
			c0,0.1,0.1,0.1,0.1,0.1V11l0,0c0.1,0,0.1,0,0.2,0c0.1,0.1,0.1,0.1,0.2,0.2l0.7,2.1l1.2-0.9c0.1-0.1,0.2-0.1,0.3-0.1
			s0.2,0.1,0.2,0.1l0.1-0.1l0.1-0.1v-0.1l0,0h0.1V12c0.1,0,0.2-0.1,0.2-0.1l0,0h0.1l0.1-0.1H7h0.1c0,0,0-0.1,0.1-0.1l0.1-0.1
			l0.1-0.1c0.1,0,0.1-0.1,0.1-0.1h0.1h0.1v-0.1h0.1h0.1v-0.1C8,11.2,8,11.1,8,11.1l0,0L8.1,11C9,11.1,9,11,9,11
			c0.1,0,0.1-0.1,0.1-0.1l0,0v-0.1l0.1-0.1h0.1l0.1-0.1v-0.1h0.1v-0.1c0.1,0,0.1,0,0.1,0l0.1-0.1h0.1l0.1-0.1l0.1-0.1h0.1
			c0.1,0,0.1-0.1,0.1-0.1h0.1l0,0V9.9c0.1,0,0.1-0.1,0.1-0.1C11,9.6,11,9.6,11.1,9.6z"/>
	</defs>
	<clipPath id="SVGID_2_">
		<use xlink:href="#SVGID_1_"  overflow="visible"/>
	</clipPath>
	<path clip-path="url(#SVGID_2_)" fill="#1A5AC1" d="M-8.262,6.958L8.714,3.573l6.813,0.651l9.695-4.598l7.589,0.333l2.604,2.548
		l3.158,5.488l1.162,2.21c0,0,1.33-4.043,3.105-3.489c1.771,0.554,0.569,3.59,0.569,3.59l4.938,7.441l2.672,0.314
		c0,0-0.756,1.838-1.977,2.834c-1.217,1-4.285,7.426-4.668,7.48c-0.383,0.057-12.081,0.119-12.25,0.063
		c-0.166-0.053-0.875-6.875-0.875-6.875L32.3,18.8l-1.913-1.034L17.91,13.14c0,0-6.149,4.043-6.703,2.325
		c-0.063-0.188-4.765,4.933-5.097,5.152c-0.333,0.221-5.429,1.107-5.429,1.107l-12.943-3.768L-8.262,6.958z"/>
	
		<path clip-path="url(#SVGID_2_)" fill="none" stroke="#FFFFFF" stroke-width="0.75" stroke-linecap="round" stroke-linejoin="round" stroke-miterlimit="10" d="
		M59.804,9.971c0,0,1.527-3.522,4.199-3.464c2.036,0.045,4.01,2.361,4.326,4.133c0,0-0.129-3.783,1.581-3.416
		c0.886,0.19,1.452,2.03,1.452,2.03s0.572-2.518,3.382-0.747c0,0-2.238-2.746-4.249-3.123c-1.067-0.2-3.086,0.797-2.968,3.543"/>
	
		<linearGradient id="SVGID_3_" gradientUnits="userSpaceOnUse" x1="566.3574" y1="821.5039" x2="606.5889" y2="821.5039" gradientTransform="matrix(1 0 0 1 -563.1992 -808.9199)">
		<stop  offset="0" style="stop-color:#A9D0FF"/>
		<stop  offset="0.1986" style="stop-color:#A7CBFF"/>
		<stop  offset="0.4411" style="stop-color:#A1BCFF"/>
		<stop  offset="0.7063" style="stop-color:#97A3FF"/>
		<stop  offset="0.9861" style="stop-color:#8981FF"/>
		<stop  offset="1" style="stop-color:#887FFF"/>
	</linearGradient>
	<path clip-path="url(#SVGID_2_)" fill="url(#SVGID_3_)" d="M4.458,13.56c0,0-0.054,1.955,1.112,3.202
		c1.168,1.246,3.243,1.771,3.243,1.771l2.91-3.617c0,0,2.739-1.729,3.098-1.395c5.73,3.25,5.863-0.75,5.863-0.75
		s-0.744,0.832-0.024,2.326c0.718,1.497,3.771,1.413,5.028,0.834c1.256-0.584,1.796-2.162,4.312-0.916
		c2.515,1.245,4.46,3.735,4.46,3.735s3.446,0.934,3.625,0.188c0.181-0.747,0.836-0.879,2.004-1.629
		c1.167-0.748,2.764-2.939,3.213-3.602c0.447-0.666-0.939-4-0.939-4s-4.5-6.875-8.833,0.269C31.728,13.183,28.93,7.77,28.93,7.77
		s-1.845,4.08-4,3c-2.154-1.081-3.286-1.819-5.171-1.903c-1.886-0.082-4.58-0.498-5.299,0.084c-0.719,0.58-1.208-2.528-2.018-2.955
		c-0.809-0.426-8.984,1.703-9.254,3.031C2.921,10.357,4.458,13.56,4.458,13.56z"/>
	
		<path clip-path="url(#SVGID_2_)" fill="none" stroke="#FFFFFF" stroke-linecap="round" stroke-linejoin="round" stroke-miterlimit="10" d="
		M29.577,17.701c0,0,1.832-0.746,2.71-6.061c0.443-2.692,2.027-8.409,5.496-8.319c3.41,0.088,4.719,6.967,4.983,10.522
		c0,0,2.129-5.72,6.346-5.268c1.521,0.162,4.965,3.697,6.965,6.172c0,0-0.869-6.055-2.525-8.915
		c-0.611-1.059-0.998-2.791-4.563-2.813c-2.152-0.014-5.002,5.517-6.244,10.561"/>
	<path clip-path="url(#SVGID_2_)" fill="#A2CAFF" d="M43.151,15.347c1.002,1.368-1.562,6.168-1.562,6.168s0.425,3.408-2.632,3.963
		c-6.143,1.111-7.105-8.001-7.105-8.001s0.056-1.005,0.447-0.576c0.985,1.081,3.157,4.167,5.011,3.143
		C39.82,18.661,41.748,13.428,43.151,15.347z"/>
	<path clip-path="url(#SVGID_2_)" fill="#AFCDFF" d="M10.333,0.347c0,0-3.482,2.228-5.324,1.195C3.167,0.51-0.909-0.887-0.909-0.887
		S-5.086,5.237-5.186,5.45c-0.101,0.216,3.512,6.892,3.512,6.892l7.25-1.469L10.333,0.347z"/>
	<path clip-path="url(#SVGID_2_)" fill="#E9EDFF" d="M5.375,8.509c0,0-3.729-1.508-6.544-1.707
		c-2.813-0.198-7.977-1.759-7.977-1.759s-1.679,5.745-1.679,6.04c0,0.301,0.625,11.417,0.625,11.417l16.75-3.166L5.375,8.509z"/>
	
		<linearGradient id="SVGID_4_" gradientUnits="userSpaceOnUse" x1="612.5752" y1="824.1914" x2="612.5752" y2="817.8428" gradientTransform="matrix(1 0 0 1 -563.1992 -808.9199)">
		<stop  offset="0" style="stop-color:#158CFF"/>
		<stop  offset="0.6989" style="stop-color:#FFFFFF"/>
	</linearGradient>
	<path clip-path="url(#SVGID_2_)" fill="url(#SVGID_4_)" d="M42.676,15.271c0,0,2.035-6.721,6.057-6.332
		c2.982,0.291,7.344,5.809,7.344,5.809L42.676,15.271z"/>
	<path clip-path="url(#SVGID_2_)" fill="#FFFFFF" d="M27.018,13.259c0,0-0.182-4.788-1.843-3.49c-1.126,0.881-0.76,4.362-0.76,4.362
		s-2.132,9.192-2.046,9.334c0.086,0.141,6.934-0.336,6.934-0.336L30.9,15L27.018,13.259z"/>
	<path clip-path="url(#SVGID_2_)" fill="#A4BAFF" d="M6.115,7.464c0.333,0.332,5.448-1.716,5.448-1.716s-0.711,1.798-0.046,3.294
		c0.664,1.495,3.49,1.411,4.653,0.831c1.164-0.582,0.626-0.635,2.953,0.611c0.888,0.476,1.906-2.207,3.733-0.031
		c1.92,2.287,2.454,1.414,2.454,1.414s2.941-0.684,3.107-1.431c0.167-0.749-0.681-1.035,0.399-1.783
		c1.081-0.748,0.192-1.978-0.065-2.718c-1.433-4.099-2.125-5.844-2.125-5.844s4.806,0.61,2.562-0.885
		c-2.243-1.496-3.05-4.406-5.708-0.75c-2.659,3.656-3.975,3.88-3.975,3.88s-1.286,1.708-3.817,1.12
		c-2.21-0.513-3.259-0.563-5.004-0.646S6.447,2.312,5.783,2.894C5.118,3.476,2.875,4.411,2.126,3.984
		C1.378,3.559,4.311,4.71,4.062,6.041S5.783,7.131,6.115,7.464z"/>
	<path clip-path="url(#SVGID_2_)" fill="#E9EDFF" d="M28.67,4.02c0,0-0.354-7.055,6.354-6.588c2.373,0.165-25.53-1.003-25.53-1.003
		s1.067,6.647,1.067,6.998c0,0.178,4.738-1.017,6.99,0.596c2.252,1.612,2.017,6.031,2.017,6.031s2.58-6.446,4.5-8.147
		c0.515-0.456,1.914-0.768,2.579-0.436C27.225,1.757,28.67,4.02,28.67,4.02z"/>
	<path clip-path="url(#SVGID_2_)" fill="#FFFFFF" d="M4.333,7.415c0,0-2.388,0.993-2.173,2.451c0.214,1.457,1.141,3.941,1.64,3.083
		c0.5-0.857,1.365-3.519,1.867-4.368C6.124,7.807,7.249,5.456,9.754,6.86c0.804,0.449,2.319,1.805,2.319,1.805
		S13.856,3.78,18.92,3.78c0,0-4.853,2.466-5.731,5.302c-1.43,4.607,4.212,6.548,4.212,6.548l3.934-2.799l-3.646,3.646l-8.188,2.064
		c0,0,2.521-2.417,2.354-4.917c-0.134-2.015-0.74-3.443-0.74-3.443S9.233,6.599,7.167,8.999c-1.52,1.766-2.297,5.236-2.297,5.236
		l1.498,1.716l1.854,0.17l0.713,2.915c0,0-0.499,1.199-2.426-0.43c-1.925-1.629-2.211-2.313-2.211-2.313s-1.498,0.94-0.642,3.686
		c0.855,2.742-1.461,3.172-1.515,2.912c-0.055-0.256-1.516-4.883,0-6.598c1.515-1.713-0.411-1.713-1.553-5.568
		c-1.141-3.855-0.569-6.771,1.214-5.398C3.586,6.695,4.333,7.415,4.333,7.415z"/>
	<path clip-path="url(#SVGID_2_)" fill="#84B5FF" d="M59.533,10.402c0,0,2.343-4.064,4.913-3.858
		c2.569,0.207,4.078,4.595,4.078,4.595L59.533,10.402z"/>
	<path clip-path="url(#SVGID_2_)" fill="#B3B3FF" d="M20.712,9.075c0,0,5.872-1.231,7.741-0.711
		c1.869,0.521,0.733-1.615,0.202-2.833c-1.048-2.405-0.705-4.081-3.055-3.705C24.125,2.062,21.416,6.298,20.712,9.075z"/>
	<path clip-path="url(#SVGID_2_)" fill="#FFFFFF" d="M14.314,3.145c-2.146,0.604-1.931,4.153-1.333,5.229
		c1.813,3.27,4.206,2.351,4.583,1.833c0.928-1.27,0.113-0.29,1.812-2.979c1.079-1.708,2.429-5.564,4.866-5.206
		c1.615,0.237,2.912,2.852,3.425,5.952c0.87,5.253,3.105,5.751,5.011,6.501c0.983,0.389-1.375,0.906-1.375,0.906
		s-3.801-1.18-4.489-6.696c-0.375-3.007-1.567-5.501-3.073-5.521c-2.375-0.031-4.881,6.764-4.881,6.764s-0.451,1.851-3.004,1.423
		c-5.375-0.895-3.917-7.166-3.917-7.166l2.521-1.417L14.314,3.145z"/>
	<path clip-path="url(#SVGID_2_)" fill="#FFFFFF" d="M32.254,14.394c0.838-1.667,2.848-4.395,5.677-4.05
		c2.211,0.27,2.821,3.118,2.821,3.118s0.227-0.791,0.778-1.512c0.639-0.835,1.597-1.564,1.277-0.651
		c-0.756,2.183-1.524,9.188-4.059,10.264c-4.801,2.034-6.729-5.52-6.729-5.52s3.01,2.955,5.192,2.438
		c2.06-0.486,3.284-3.528,3.284-3.528s-0.971-5.09-4.509-3.441c-2.273,1.058-4.166,4.463-4.166,4.463L32.254,14.394z"/>
	<path clip-path="url(#SVGID_2_)" fill="#FFFFFF" d="M42.535,22.267c-1.461,2.062-3.428,3.603-4.86,3.693
		c-0.54,0.031-1.677,0.06-2.96-1.047c-1.216-1.049-1.79-3.094-1.79-3.094s0.066-0.095-0.574-1.92
		c-0.455-1.302,0.648-0.24,0.648-0.24s0.885,5.813,5.045,5.18c2.669-0.406,4.568-4.495,4.568-4.495L42.535,22.267z"/>
	<path clip-path="url(#SVGID_2_)" fill="#A089F4" d="M24.375,2.687"/>
	
		<linearGradient id="SVGID_5_" gradientUnits="userSpaceOnUse" x1="578.5488" y1="856.0313" x2="578.5488" y2="852.6572" gradientTransform="matrix(0.997 -0.0776 0.0776 0.997 -563.4369 -798.4038)">
		<stop  offset="0" style="stop-color:#158CFF"/>
		<stop  offset="0.6989" style="stop-color:#FFFFFF"/>
	</linearGradient>
	<path clip-path="url(#SVGID_2_)" fill="url(#SVGID_5_)" d="M76.539,9.848c0,0,0.941-3.042,2.797-3.026
		c1.854,0.015,3.689,3.091,3.689,3.091L76.539,9.848z"/>
	<path clip-path="url(#SVGID_2_)" fill="#FFFFFF" d="M54.605,3.208c1.117-2.017,3.266-3.999,4.314-4.05
		c0.494-0.022,2.676-0.164,3.68,0.714c1.115,0.976,1.27,2.466,1.27,2.466s-0.049,0.091,0.727,1.692
		c0.555,1.14-1.311-0.502-1.311-0.502s-0.451-3.919-4.18-2.945c-2.393,0.624-4.668,4.375-4.668,4.375L54.605,3.208z"/>
</g>
</svg>
