<?xml version="1.0" encoding="utf-8"?>
<!-- Generator: Adobe Illustrator 16.0.0, SVG Export Plug-In . SVG Version: 6.00 Build 0)  -->
<!DOCTYPE svg PUBLIC "-//W3C//DTD SVG 1.0//EN" "http://www.w3.org/TR/2001/REC-SVG-20010904/DTD/svg10.dtd">
<svg version="1.0" id="图层_1" xmlns="http://www.w3.org/2000/svg" xmlns:xlink="http://www.w3.org/1999/xlink" x="0px" y="0px"
	 width="100.3px" height="32px" viewBox="0 0 100.3 32" enable-background="new 0 0 100.3 32" xml:space="preserve">
<linearGradient id="SVGID_1_" gradientUnits="userSpaceOnUse" x1="375.4106" y1="-264.0498" x2="473.707" y2="-264.0498" gradientTransform="matrix(1 0 0 -1 -374.96 -246.5996)">
	<stop  offset="2.300000e-007" style="stop-color:#F8D27E"/>
	<stop  offset="1" style="stop-color:#B3751F"/>
</linearGradient>
<path fill="url(#SVGID_1_)" d="M96.3,7.5v0.1v0.1v0.1v0.1v0.3c0.5,0,1.1,0,1.6,0c0.1,0,0.1,0,0.2,0c0,0,0,0,0.1,0l0,0l0,0
	c0,0,0,0,0.1,0c0,0,0.1,0,0.2,0.1c0,0,0,0.1,0.1,0.1c0,0,0,0,0,0.1c0,0,0,0,0,0.1v0.1v0.1c0,0,0,0,0,0.1c0,0,0,0,0.1,0V9v0.1v0.1
	v0.1v0.1c0,0,0,0,0,0.1v0.1l0,0v0.1v0.1v0.1c0,0,0,0,0,0.1c0,0,0,0-0.1,0.1v0.1v0.1v0.1v0.1v0.1v0.1c0,0,0,0,0,0.1
	c-0.2,0-0.3,0-0.5,0l0,0c0,0,0,0,0,0.1c0,0,0,0,0.1,0.1v0.1l0,0c-3.1,0-6.1,0-9.2,0c0,0-0.1,0-0.1,0.1c-0.1,0-0.3,0-0.4,0v0.1l0,0
	l0,0c0,0,0,0,0-0.1c-0.4,0-0.8,0-1.2,0.1l0,0h-0.1c0,0,0,0,0,0.1c-0.2,0-0.3,0-0.5,0c0,0,0,0-0.1,0.1v0.1h-0.1v0.1v0.1v0.1V12l0,0
	c0.1,0,0.1,0,0.2,0v0.1v0.1v0.1v0.1v0.1v0.1v0.1v0.1c0,0.1,0,0.1,0,0.1V13v0.1v0.1v0.1v0.1v0.1c0,0,0,0,0,0.1c-0.1,0-0.2,0-0.4,0
	v0.1c0,0,0,0,0,0.1c-0.1,0-0.2,0-0.4,0c-0.2,0-0.4,0-0.6,0l0,0c0,0,0,0,0,0.1s0,0,0,0.1v0.1c0,0,0,0-0.1,0c0,0,0,0-0.1,0
	c0,0,0,0-0.1,0l0,0h-0.1c-0.1,0-0.1,0-0.2,0h-0.1l0,0c-0.2,0-0.5,0.1-0.7,0.1c0,0,0,0,0,0.1c-0.2,0-0.4,0.1-0.6,0.1
	c0,0-0.1,0-0.1,0.1c-0.6,0-1.2,0.1-1.8,0.1c0,0-0.1,0-0.1,0.1c-0.5,0-1,0-1.4,0c0,0,0,0-0.1,0.1l0,0c0,0-0.1,0-0.2,0
	c-3.3,0-6.6,0-9.9,0c-0.1,0-0.2,0-0.3,0c0,0,0,0,0,0.1c-0.5,0-1,0.1-1.6,0.1c0,0,0,0,0,0.1c-0.6,0-1.1,0.1-1.7,0.1
	c0,0-0.1,0-0.1,0.1c-0.4,0-0.9,0.1-1.3,0.1c0,0-0.1,0-0.1,0.1c-0.4,0-0.8,0.1-1.2,0.1c0,0,0,0,0,0.1c-0.5,0-0.9,0.1-1.4,0.1
	c0,0,0,0,0,0.1c-0.4,0-0.9,0.1-1.3,0.1c0,0-0.1,0-0.1,0.1c-0.6,0-1.1,0.1-1.7,0.1c0,0-0.1,0-0.1,0.1c-0.7,0-1.4,0-2.2,0l-0.1-0.1
	c-0.4,0-0.8,0-1.1-0.1L55.3,16c-0.1,0-0.2,0-0.4-0.1v-0.1c-0.1,0-0.2,0-0.4-0.1v-0.1c0,0-0.1,0-0.2-0.1v-0.1c-0.1,0-0.2,0-0.4-0.1
	v-0.1c0,0-0.1,0-0.2-0.1V15l-0.1-0.1l-0.1-0.1c-0.1,0-0.2-0.1-0.3-0.1v-0.1l-0.1-0.1c-2.5,0-5,0-7.4,0.1c0,0,0,0,0,0.1
	c-0.8,0-1.6,0-2.3,0l-0.1-0.1c-0.1,0-0.2,0-0.4-0.1v-0.1c0,0,0,0-0.1,0l0,0l-0.1,0.1c0,0,0,0-0.1,0l0,0l0,0l0,0c0,0,0,0-0.1,0l0,0
	h-0.1l0,0l0,0l0,0h-0.1l0,0l0,0c0,0,0,0-0.1,0l0,0h-0.1l0,0l0,0l0,0l0,0l0,0c0,0,0,0-0.1,0l0,0c0,0,0,0-0.1,0l0,0l0,0c0,0,0,0-0.1,0
	l0,0l0,0c-0.1,0-0.2,0-0.4,0l0,0c0,0,0,0-0.1,0l-0.1,0.1l0,0l0,0l0,0h-0.1l0,0l0,0l0,0c0,0,0,0-0.1,0l-0.1,0.1v0.1h-0.1l-0.1,0.1V15
	h-0.1c0,0,0,0-0.1,0v0.1h-0.1l0,0c0,0,0,0-0.1,0l0,0l0,0l0,0v0.1c-0.1,0-0.1,0-0.2,0l0,0v0.1H40c0,0,0,0-0.1,0s-0.2,0-0.2,0
	c-0.1,0-0.2,0-0.2,0v0.1c-0.1,0-0.1,0-0.2,0h-0.1c-0.3,0-0.6,0-0.8,0c-0.3,0-0.6,0-0.8,0h-0.1h-0.1c0,0,0,0-0.1,0l0,0h-0.1l0,0v0.3
	l0,0l0,0l0,0v0.1l0,0l0,0c-0.2,0-0.4,0-0.6,0h-0.1l-0.1-0.1v-0.1h-0.1l0,0l0,0l0,0l0,0l0,0c0,0,0,0-0.1,0l0,0v-0.1l0,0l0,0L35,17.2
	l0,0l0,0l-0.1-0.1l0,0l0,0V17c0,0,0,0-0.1,0l0,0l0,0l0,0l0,0l0,0l0,0l0,0l0,0l0,0l0,0l0,0l0,0l0,0l0,0l-0.1-0.1l0,0l0,0l0,0l0,0V16
	l0,0l0,0l0,0l0,0l0,0l0,0c-0.1,0-0.1,0-0.2,0c-0.4,0-0.8,0-1.2,0c-0.2,0-0.5,0-0.7,0l0,0h-0.1c-0.1,0-0.1,0-0.2,0.1
	c-0.3,0-0.5,0-0.8,0.1h-0.1h-0.1c-0.1,0-0.1,0-0.1,0s0,0-0.1,0s-0.1,0-0.1,0h-0.1h-0.1c-0.1,0-0.1,0-0.1,0.1c-0.1,0-0.1,0-0.2,0.1
	c0,0,0,0-0.1,0.1h-0.1c0,0-0.1,0-0.1,0.1h-0.1l0,0c0,0,0,0-0.1,0c0,0,0,0,0,0.1c0,0,0,0-0.1,0.1l0,0l0,0l0,0l-0.1,0.1L29.7,17
	c-0.1,0-0.1,0.1-0.2,0.1v0.1v0.1l0,0c0,0-0.1,0.1-0.2,0.1c0,0,0,0,0,0.1c0,0-0.1,0.1-0.2,0.1v0.1v0.1l0,0c0,0-0.1,0.1-0.2,0.1V18
	v0.1l0,0c0,0-0.1,0.1-0.2,0.1v0.1v0.1v0.1v0.1v0.1v0.1v0.1V19v0.1v0.1v0.1v0.1v0.1l-0.1,0.1l0,0c-0.1,0-0.1,0-0.2,0c0,0,0,0,0,0.1
	c0,0,0,0.1-0.1,0.1h-0.1c0,0-0.1,0-0.2,0h-0.1c-0.1,0-0.1,0-0.2,0c0,0,0-0.1-0.1-0.1s0-0.1,0-0.1l0,0c-0.2,0-0.3,0-0.5,0l0,0
	c0,0-0.1,0.1-0.2,0.1c0,0,0,0,0,0.1c-0.1,0-0.1,0-0.2,0.1V20v0.1c0,0,0,0,0,0.1c0,0-0.1,0.1-0.2,0.1c0,0,0,0,0,0.1
	c-0.3,0-0.6,0-0.8,0c-0.4,0-0.8,0-1.1,0c0,0,0,0,0,0.1c0,0,0,0,0.1,0.1l0.1,0.1c0,0,0,0,0,0.1l0,0l0,0v0.1c0,0,0,0,0,0.1v0.1
	c0,0,0,0-0.1,0c0,0,0,0-0.1,0h-0.1c-0.1,0-0.1,0-0.1,0c-0.1,0-0.1,0-0.2,0c0,0-0.1,0-0.1-0.1s0-0.1-0.1-0.1c0,0,0,0-0.1-0.1v-0.1
	l0,0v-0.1v-0.1c0,0,0,0-0.1-0.1c0,0,0,0,0-0.1c0,0,0,0,0-0.1l-0.1-0.1c0,0-0.1,0-0.1-0.1c0,0,0,0,0-0.1c0,0,0-0.1-0.1-0.1
	c0,0,0,0-0.1-0.1v-0.1c0,0,0,0,0-0.1l0,0c-0.1,0-0.1,0-0.2-0.1c0,0,0-0.1-0.1-0.1c0,0,0-0.1-0.1-0.1s-0.1,0-0.2-0.1
	c-0.1,0-0.1,0-0.2,0c0,0-0.1,0-0.2,0c0,0-0.1,0-0.2,0c0,0,0,0-0.1-0.1c0,0,0-0.1-0.1-0.1c0,0,0,0,0-0.1c0,0,0,0,0-0.1v-0.1v-0.1
	c0,0,0,0,0-0.1c-0.1,0-0.2,0.1-0.2,0.1c-0.1,0-0.2,0.1-0.3,0.1v0.1c-0.1,0-0.2,0.1-0.2,0.1c-0.1,0-0.2,0-0.3,0.1
	c-0.1,0-0.2,0.1-0.4,0.1c0,0-0.1,0-0.2,0.1c-0.1,0-0.2,0.1-0.2,0.1s-0.1,0-0.1,0.1c-0.1,0-0.2,0.1-0.4,0.1c0,0,0,0,0,0.1
	c-0.1,0-0.2,0.1-0.4,0.1c0,0,0,0,0,0.1c-0.1,0-0.2,0.1-0.4,0.1c0,0,0,0,0,0.1c-0.1,0-0.3,0.1-0.4,0.1c0,0-0.1,0-0.1,0.1
	c0,0-0.1,0.1-0.2,0.1c0,0,0,0,0,0.1c-0.1,0-0.3,0.1-0.4,0.1c0,0-0.1,0-0.1,0.1c-0.1,0-0.2,0.1-0.4,0.1c0,0,0,0,0,0.1
	c-0.1,0-0.2,0.1-0.4,0.1c0,0,0,0,0,0.1c-0.1,0-0.3,0.1-0.4,0.1c0,0-0.1,0-0.1,0.1c-0.1,0-0.2,0.1-0.4,0.1c0,0,0,0,0,0.1
	c0,0-0.1,0.1-0.2,0.1v0.1c-0.1,0-0.2,0.1-0.2,0.1s-0.1,0-0.1,0.1c-0.1,0-0.2,0.1-0.4,0.1c0,0,0,0,0,0.1c-0.1,0-0.2,0.1-0.4,0.1
	c0,0,0,0,0,0.1c-0.1,0-0.2,0.1-0.2,0.1s-0.1,0-0.1,0.1c-0.1,0-0.2,0.1-0.2,0.1s-0.1,0-0.1,0.1c-0.1,0-0.2,0.1-0.2,0.1
	s-0.1,0-0.1,0.1c0,0-0.1,0.1-0.2,0.1c0,0,0,0,0,0.1c-0.1,0-0.2,0.1-0.4,0.1c0,0,0,0,0,0.1c-0.1,0-0.2,0.1-0.4,0.1c0,0,0,0,0,0.1
	c-0.1,0-0.2,0.1-0.4,0.1c0,0,0,0,0,0.1c-0.2,0-0.3,0.1-0.5,0.1c0,0,0,0,0,0.1c-0.1,0-0.2,0.1-0.2,0.1s-0.1,0-0.1,0.1
	c-0.1,0-0.2,0.1-0.4,0.1c0,0,0,0,0,0.1c-0.1,0-0.2,0.1-0.4,0.1c0,0,0,0,0,0.1c-0.1,0-0.2,0.1-0.4,0.1c0,0,0,0,0,0.1
	c-0.2,0-0.3,0.1-0.5,0.1c0,0,0,0,0,0.1c-0.1,0-0.2,0.1-0.4,0.1c0,0,0,0,0,0.1c-0.1,0-0.2,0.1-0.4,0.1c0,0,0,0,0,0.1
	c-0.1,0-0.2,0.1-0.4,0.1c0,0,0,0,0,0.1c-0.1,0-0.2,0.1-0.4,0.1c0,0,0,0,0,0.1C8.1,26,8,26,7.9,26.1c0,0-0.1,0-0.1,0.1
	c-0.1,0-0.2,0.1-0.4,0.1c0,0,0,0,0,0.1c-0.1,0-0.2,0.1-0.4,0.1c0,0,0,0,0,0.1c-0.2,0-0.3,0.1-0.5,0.1c0,0,0,0,0,0.1
	c-0.1,0-0.3,0.1-0.4,0.1c0,0-0.1,0-0.1,0.1c-0.1,0-0.3,0.1-0.4,0.1l-0.1,0.1c-0.1,0-0.2,0.1-0.4,0.1c0,0,0,0,0,0.1
	c-0.1,0-0.2,0-0.3,0v0.1v0.1l0,0c0,0,0,0.1-0.1,0.1l0,0l0,0H4.6H4.5c0,0-0.1,0-0.1-0.1l0,0H4.3c0,0-0.1,0-0.1,0.1H4.1
	c0,0-0.1,0-0.2-0.1c0,0,0,0-0.1-0.1l0,0c0,0,0,0-0.1-0.1c0,0,0,0,0,0.1l0,0c0,0,0,0-0.1,0.1v0.1v0.1H3.5c0,0-0.1,0-0.2,0.1
	c-0.1,0-0.2,0-0.3,0s-0.1,0-0.2-0.1c0,0,0,0-0.1,0l-0.1-0.1c0,0,0,0-0.1-0.1c0,0-0.1,0-0.2-0.1H2.2c-0.1,0-0.2,0-0.2-0.1H1.9
	c0,0,0,0-0.1-0.1l-0.1-0.1c0,0,0,0,0-0.1V27c0,0,0,0,0-0.1c0,0,0,0,0-0.1v-0.1v-0.1c0,0,0,0,0-0.1v-0.1v-0.1c0,0,0,0,0-0.1
	c0-0.1,0,0,0-0.1V26c0,0,0,0,0-0.1v-0.1c0,0,0,0,0-0.1c0,0,0,0,0-0.1v-0.1v-0.1c0,0,0,0,0-0.1v-0.1v-0.1c0,0,0,0,0-0.1v-0.1
	c0,0,0,0,0-0.1c0,0,0,0,0-0.1c0,0,0-0.1-0.1-0.1c0,0,0,0,0-0.1c0,0,0,0,0-0.1v-0.1v-0.1v-0.1l0,0V24v-0.1v-0.1c0,0,0,0,0-0.1
	c0-0.1,0,0,0-0.1v-0.1c0,0,0,0,0-0.1c0,0,0,0,0-0.1v-0.1c0,0,0,0,0-0.1V23c0,0,0,0,0-0.1c0,0,0,0,0-0.1v-0.1v-0.1v-0.1l0,0
	c0-0.1,0-0.1,0-0.1s0,0,0-0.1c0-0.1,0-0.1,0-0.1s0,0,0-0.1c0,0,0,0,0-0.1v-0.1v-0.1c0,0,0,0,0-0.1v-0.1c0,0,0-0.1-0.1-0.1v-0.1v-0.1
	c0,0,0,0,0-0.1c0-0.1,0,0,0-0.1c0-0.1,0-0.1,0-0.1s0,0,0-0.1c0,0,0,0,0-0.1v-0.1v-0.1v-0.1l0,0v-0.1v-0.1v-0.1c0,0,0,0,0-0.1
	c0-0.1,0,0,0-0.1v-0.1c0,0,0,0,0-0.1c0,0,0,0,0-0.1v-0.1c0,0,0,0-0.1-0.1v-0.1c0,0,0,0,0-0.1c0-0.1,0,0,0-0.1v-0.1V19v-0.1l0,0v-0.1
	c0,0,0,0,0-0.1c0-0.1,0-0.1,0-0.1s0,0,0-0.1c0,0,0,0,0-0.1v-0.1c0,0,0,0,0-0.1c0,0,0,0,0-0.1V18v-0.1c0,0,0-0.1-0.1-0.1l0,0v-0.1
	v-0.1v-0.1c0,0,0,0,0-0.1c0-0.1,0,0,0-0.1v-0.1c0,0,0,0,0-0.1V17l0,0v-0.1v-0.1V18c0,0,0,0-0.1-0.1v-0.1v-0.1c0,0,0,0,0-0.1
	c0-0.1,0,0,0-0.1v-0.1c0,0,0,0,0-0.1v-0.1v-0.1V17v-0.1V17v-0.1l0,0c0,0,0-0.1-0.1-0.1c0,0,0,0,0-0.1v-0.1c0,0,0,0,0-0.1
	c0-0.1,0,0,0-0.1v-0.1c0,0,0,0,0-0.1c0,0,0,0,0-0.1V16c0,0,0,0,0-0.1v-0.1c0,0,0,0-0.1,0v-0.1v-0.1v-0.1v-0.1l0,0v-0.1
	c0,0,0,0,0-0.1c0-0.1,0-0.1,0-0.1s0,0,0-0.1c0,0,0,0,0-0.1c0,0,0-0.1,0.1-0.1c0,0,0,0,0.1,0l0,0l0,0c0,0,0,0,0-0.1v-0.1v-0.1v-0.1
	c0,0,0,0,0.1,0l0.1-0.1c0,0,0,0,0.1-0.1c0,0,0-0.1,0.1-0.1c0,0,0,0,0.1-0.1h0.1c0.1,0,0.1,0,0.2-0.1c0,0,0,0,0.1-0.1h0.1
	c0.1,0,0.1,0,0.2-0.1c0.1,0,0.2-0.1,0.2-0.1h0.1h0.1c0.1,0,0.2,0,0.2,0h0.1h0.1c0,0,0,0,0.1,0c0,0,0.1,0,0.2,0.1c0,0,0,0.1,0.1,0.1
	c0,0,0,0.1,0.1,0.1h0.1c0.1,0,0.3,0,0.4-0.1c0,0,0,0,0-0.1l0,0c0,0,0,0,0.1,0c0.4,0,0.7,0,1.1,0l0,0c0.5,0,1,0,1.4,0l0.1,0.1l0,0
	c0.1,0,0.3,0,0.4,0c0.2,0,0.4,0,0.5,0c0,0,0,0,0.1,0.1c0.2,0,0.5,0,0.7,0c0,0,0,0,0.1-0.1l0,0c0.6,0,1.2,0,1.8,0h0.1h0.1
	c0.1,0,0.1,0,0.2,0v-0.4c0.1,0,0.3,0,0.4,0c0,0,0,0,0.1,0s0.1,0,0.2,0l0,0l0,0c0.1,0,0.2,0,0.2,0l0,0l0,0c0.1,0,0.3,0,0.4,0l0,0l0,0
	c0.1,0,0.1,0,0.2,0c0,0,0,0,0.1,0c0,0,0,0,0.1,0s0.2,0,0.4,0c0,0,0,0,0.1,0s0,0,0.1,0c0.1,0,0.1,0,0.2,0c0,0,0,0,0.1,0
	c0,0,0,0,0.1,0l0,0c0,0,0,0,0.1,0c0,0,0,0,0.1,0c0.1,0,0.2,0,0.4,0c0.1,0,0.3,0,0.4,0c0,0,0,0,0.1,0l0,0c0.1,0,0.3,0,0.4,0
	c0,0,0,0,0.1,0l0,0c0.3,0,0.5,0,0.8,0h0.1l0,0c0.2,0,0.4,0,0.5,0c0,0,0,0,0.1,0l0,0l0,0c0,0,0,0,0.1,0h0.1c0.1,0,0.3,0,0.4,0h0.1
	h0.1h0.1h0.1h0.1h0.1H18h0.1c0.2,0,0.4,0,0.6,0c0,0,0,0,0.1,0c0,0,0,0,0.1,0l0,0c0,0,0,0,0.1,0c0,0,0,0,0.1,0c0,0,0,0,0.1,0l0,0
	c0,0,0.1,0,0.2,0h0.1h0.1c0.1,0,0.1,0,0.2,0c0,0,0.1,0,0.2,0h0.1h0.1h0.1h0.1c0,0,0,0,0.1,0s0,0,0.1,0c0,0,0,0,0.1,0c0,0,0,0,0.1,0
	c0.1,0,0,0,0.1,0c0,0,0,0,0.1,0c0,0,0,0,0.1,0h0.1h0.1h0.1c0,0,0.1,0,0.2,0h0.1h0.1h0.1H22c0.2,0,0.4,0,0.6,0c0,0,0,0,0.1,0l0,0
	c0,0,0,0,0.1,0l0,0c0,0,0,0,0.1,0l0,0l0,0H23h0.1h0.1h0.1h0.1c0.1,0,0.2,0,0.3,0l0,0h0.1v0.2l0,0l0,0l0,0l0,0h0.1c0.1,0,0.1,0,0.2,0
	c0,0,0,0,0.1,0l0,0c0.1,0,0.1,0,0.2,0s-12.3-0.3-12.3-0.3c0.1,0,0.3,0,0.4,0s0.1,0,0.2,0c0,0,0,0,0.1,0l0,0h0.1c0,0,0,0,0.1,0h0.1
	h0.1h0.1l0,0h0.1l0,0h0.1h0.1c0,0,0,0,0.1,0l0,0l0,0l0,0h0.1l0,0h0.1H14h0.1l0,0h0.1l0,0c0,0,0,0,0.1,0c0.1,0,0.1,0,0.2,0h0.1l0,0
	c0,0,0,0,0.1,0l0,0c0.1,0,0.1,0,0.2,0H15h0.1l0,0h0.1l0,0c0.1,0,0.1,0,0.2,0h0.1c0,0,0,0,0.1,0l0,0h0.1l0,0h0.1c0,0,0,0,0.1,0
	c0,0,0,0,0.1,0l0,0h0.1c0,0,0,0,0.1,0l0,0h0.1c0,0,0,0,0.1,0l0,0h0.1l0,0h0.1c0,0,0,0,0.1,0h0.1l0,0c0,0,0,0,0.1,0c0,0,0,0,0.1,0
	l0,0h0.1c0,0,0,0,0.1,0l0,0h0.1l0,0c0,0,0,0,0.1,0c0,0,0,0,0.1,0l0,0l0,0h0.1l0,0c0,0,0,0,0.1,0l0,0h0.1c0,0,0,0,0.1,0H18l0,0
	c0,0,0,0,0.1,0c0,0,0,0,0.1,0c0,0,0,0,0.1,0h0.1c0,0,0,0,0.1,0l0,0h0.1l0,0h0.1c0,0,0,0,0.1,0h0.1l0,0H19l0,0c0,0,0,0,0.1,0h0.1
	c0,0,0,0,0.1,0l0,0c0,0,0,0,0.1,0l0,0h0.1c0,0,0,0,0.1,0h0.1l0,0c0,0,0,0,0.1,0l0,0h0.1H20c0,0,0,0,0.1,0l0,0c0,0,0,0,0.1,0
	c0,0,0,0,0.1,0c0,0,0,0,0.1,0h0.1c0,0,0,0,0.1,0l0,0h0.1l0,0h0.1c0,0,0,0,0.1,0H21l0,0l0,0l0,0h0.1c0,0,0,0,0.1,0h0.1l0,0
	c0,0,0,0,0.1,0l0,0h0.1l0,0h0.1l0,0c0,0,0,0,0.1,0c0,0,0,0,0.1,0l0,0c0,0,0,0,0.1,0H22l0,0c0,0,0,0,0.1,0c0,0,0,0,0.1,0l0,0h0.1
	c0,0,0,0,0.1,0l0,0h0.1l0,0c0,0,0,0,0.1,0h0.1l0,0l0,0c0,0,0,0,0.1,0c0,0,0,0,0.1,0l0,0l0,0H23l0,0c0,0,0,0,0.1,0l0,0
	c0,0,0.1,0,0.2,0l0,0h0.1h0.1l0,0l0,0l0,0l0,0l0,0h0.1c0,0-3.1-1.4-0.5-1.1l12.5-4.8c0.3-0.2,0.8-0.1,1-0.1V7c0.4,0,0.8,0,1.2,0l0,0
	c0.2,0,0.4,0,0.5,0c0,0,0,0,0.1,0v0.4c0.1,0,0.2,0,0.3,0l0,0c0.1,0,0.3,0,0.4,0l0,0l0,0v0.4c2.1,0,4.3,0,6.4,0c0,0,0,0,0,0.1
	c0.1,0,0.1,0,0.2,0c0,0,0,0-0.1,0l0,0c0.1,0,0.3,0,0.4,0l0,0l0,0c0.7,0,1.4,0,2.2,0l0,0c0.2,0,0.3,0,0.5,0l0,0h0.1l0,0
	c0.1,0,0.3,0,0.4,0l0,0c0.1,0,0.2,0,0.2,0l0,0c0.1,0,0.3,0,0.4,0l0,0c0.4,0,0.8,0,1.2,0l0,0c0.1,0,0.3,0,0.4,0l0,0
	c0.1,0,0.2,0,0.3,0l0,0c0.3,0,0.6,0,0.9,0l0,0c0.1,0,0.3,0,0.4,0V8c0,0,0,0.1,0.1,0.1c0.4,0,0.8,0,1.2,0v0.1v0.1c0,0,0,0,0.1,0
	l0.1,0.1l0,0l0,0h0.1c12.3,0,24.5,0,36.8,0c0,0,0,0-0.1-0.1V8.2l0,0c0.3,0,0.6,0,0.9,0c0,0,0,0,0.1,0.1c0.2,0,0.3,0,0.5,0
	c0,0,0,0,0-0.1c0-0.1,0-0.2,0-0.3V7.8V7.7V7.6c0.1,0,0.1-0.1,0.2-0.1c0,0,0,0,0-0.1l0,0c0.8,0,1.6,0,2.3,0
	C96.3,7.4,96.3,7.5,96.3,7.5z M34.7,14.5h-0.1C34.7,14.5,34.7,14.5,34.7,14.5L34.7,14.5z M36.3,15.7C36.3,15.7,36.2,15.7,36.3,15.7
	C36.2,15.7,36.2,15.7,36.3,15.7v0.8c0,0,0,0,0.1,0v0.1c0,0,0,0,0.1,0l0,0l0,0l0,0l0,0l0,0h0.1v0.1l0,0c0,0,0,0,0.1,0h0.1l0,0l0,0
	h0.1l0,0c0,0,0,0,0.1,0h0.1c0,0,0.1,0,0.2,0c0.2,0,0.5,0,0.7,0c0.1,0,0.1,0,0.2,0V17h0.1c0.1,0,0.2,0,0.4,0c0,0,0,0,0.1,0h0.1l0,0
	l0,0l0,0H39v-1.4c-0.9,0-1.9,0-2.8,0L36.3,15.7L36.3,15.7z M39.7,14.8c-0.3,0-0.6,0-0.8,0C39.1,14.8,39.4,14.8,39.7,14.8L39.7,14.8z
	 M1.2,15.1L1.2,15.1L1.2,15.1c-0.1,0.1-0.1,0.1-0.1,0.1l0,0C1.1,15.2,1.2,15.2,1.2,15.1c0.1,0,0.1,0,0.1-0.1l0,0
	C1.3,15,1.3,15,1.2,15.1L1.2,15.1z M1.4,14.8C1.4,14.8,1.5,14.8,1.4,14.8c0.1-0.1,0.1-0.1,0.1-0.1C1.5,14.8,1.4,14.8,1.4,14.8
	L1.4,14.8z M1.8,14.6L1.8,14.6L1.8,14.6c-0.1,0-0.1,0-0.2,0c0,0,0,0-0.1,0.1h0.1v-0.1C1.7,14.6,1.7,14.6,1.8,14.6z M1.4,17.8
	C1.4,17.8,1.5,17.8,1.4,17.8L1.4,17.8L1.4,17.8z M3.6,27.3c0,0,0,0.1,0.1,0.1c0,0,0,0,0,0.1l0,0v-0.1c0,0,0,0,0-0.1l0,0
	C3.7,27.2,3.6,27.2,3.6,27.3C3.5,27.3,3.6,27.3,3.6,27.3z"/>
<linearGradient id="SVGID_2_" gradientUnits="userSpaceOnUse" x1="-40.248" y1="-232.373" x2="-30.4063" y2="-232.373" gradientTransform="matrix(6.6522 0 0 6.6522 268.9354 1561.9419)">
	<stop  offset="2.300000e-007" style="stop-color:#EDF3CB"/>
	<stop  offset="1" style="stop-color:#F8D27E"/>
</linearGradient>
<path opacity="0.5" fill="url(#SVGID_2_)" enable-background="new    " d="M2.2,25.6c0,0,11.7-3.2,14.5-6.3c0,0-6.9,1.9-11.5-1.1
	c0,0,7.2,2,12.9-2.3c0,0-7.9,2.3-11.7-1.9c0,0,2.6,1.9,8.2,0.9c3.8-0.5,6.9,0.4,11.5-1c7.7-1.3,12.4-3.8,25.6,0.8
	c0,0-4.7-3.7-11.6-5.3c0,0,22.3-0.5,26.6,5.3c0,0-1.2-6.5-20.6-7.4h-6.8l-2-0.6L37,7.8l-2.1,0.1l-11.2,4.2l-12.8,1.1l-0.1,0.3
	l-8.7-0.1l-1,1.1L2.2,25.6z"/>
<linearGradient id="SVGID_3_" gradientUnits="userSpaceOnUse" x1="35.3999" y1="13.6001" x2="35.3999" y2="13.6001">
	<stop  offset="2.300000e-007" style="stop-color:#F8D27E"/>
	<stop  offset="1" style="stop-color:#B3751F"/>
</linearGradient>
<path fill="url(#SVGID_3_)" d="M35.4,13.6"/>
</svg>
