<?xml version="1.0" encoding="utf-8"?>
<!-- Generator: Adobe Illustrator 16.0.0, SVG Export Plug-In . SVG Version: 6.00 Build 0)  -->
<!DOCTYPE svg PUBLIC "-//W3C//DTD SVG 1.0//EN" "http://www.w3.org/TR/2001/REC-SVG-20010904/DTD/svg10.dtd">
<svg version="1.0" id="图层_1" xmlns="http://www.w3.org/2000/svg" xmlns:xlink="http://www.w3.org/1999/xlink" x="0px" y="0px"
	 width="37.8px" height="32px" viewBox="0 0 37.8 32" enable-background="new 0 0 37.8 32" xml:space="preserve">
<path fill="#0001BF" d="M37.1,2.5L37.1,2.5c0,0.1,0,0.1,0,0.2c0,0.1,0,0.1,0,0.1v0.1c0.101,0,0.3,0,0.399,0V3c0,0.2,0,0.3,0,0.5
	c0,0.1,0,0.3,0,0.4c0,0.2,0,0.3,0,0.5c0,0.1,0,0.3,0,0.4c0,0.2,0,0.3,0,0.5c0,0.1,0,0.3,0,0.4c0,0.2,0,0.3,0,0.5c0,0.1,0,0.3,0,0.4
	c0,0.2,0,0.3,0,0.5c0,0.1,0,0.3,0,0.4c0,0.2,0,0.3,0,0.5c0,0.1,0,0.3,0,0.4c0,0.2,0,0.3,0,0.5c0,0.1,0,0.3,0,0.4c0,0.2,0,0.3,0,0.4
	c0,0.1,0,0.2,0,0.3s0,0.1,0,0.1v0.1v0.3c0,0.1,0,0.1,0,0.1c0,0.1,0,0.1,0,0.1v0.1v0.1V11l0,0v0.1l0,0v0.1c-3.399,0-6.699,0-10.102,0
	l0,0l0,0v0.1h-0.102c-0.1,0-0.1,0.1-0.1,0.1l0,0l0,0H27.1v0.1l0,0L27,11.6l0,0l0,0h-0.1h-0.1c0,0.1,0,0.1,0,0.2c0,0.1,0,0.2,0,0.4
	c0,0.1,0,0.2,0,0.4c0,0.1,0,0.3,0,0.4s0,0.3,0,0.4s0,0.3,0,0.4c0,0.1,0,0.3,0,0.4c0,0.1,0,0.3,0,0.4s0,0.2,0,0.4c0,0.1,0,0.2,0,0.4
	c0,0.1,0,0.2,0,0.4v0.1c0.1,0,0.199,0,0.199,0V16v0.1v0.1v0.1l0,0v0.1v0.1v0.1V16.7l0,0l0,0v0.1V16.9V17l0,0v0.1V17.2
	c-4.102,0-8.202,0-12.399,0c0,0.1,0,0.1,0,0.1c0,0.101,0,0.101,0,0.101v0.102c0,0.102-0.1,0.102-0.1,0.102V17.7v0.1V18v0.1
	c0,0.103,0,0.103,0,0.103c0,0.1,0,0.1,0,0.1v0.101c-0.1,0-0.1,0.1-0.1,0.1v0.1V18.7v0.1V18.9c0,0.1,0,0.1,0,0.1c0,0.1,0,0.1,0,0.1
	c-0.1,0-0.1,0.103-0.1,0.103v0.1v0.101v0.1v0.1c0,0.103,0,0.103,0,0.103c0,0.101,0,0.101,0,0.101c-0.1,0-0.1,0.102-0.2,0.102V20v0.1
	V20.2v0.1V20.4c0,0-0.1,0-0.1,0.1v0.1V20.7v0.1V20.9V21c0,0.1-0.1,0.1-0.1,0.1c0,0.103,0,0.103,0,0.103v0.1c0,0,0,0,0,0.103
	l-0.1,0.1v0.1c0,0.103,0,0.103,0,0.103v0.101c0,0.102-0.1,0.102-0.1,0.102c0,0.1,0,0.1,0,0.1v0.1c0,0,0,0,0,0.103l-0.1,0.101v0.09
	c0,0.1,0,0.1,0,0.1v0.1c-0.1,0-0.1,0-0.2,0.103c0,0,0,0,0,0.1l-0.1,0.101V23c0,0.1,0,0.1,0,0.1V23.2v0.1c-0.1,0-0.1,0.101-0.2,0.101
	v0.102c0,0.102,0,0.102,0,0.102V23.7L13,23.8V23.9V24c0,0.1,0,0.1,0,0.1C12.9,24.2,12.9,24.2,12.8,24.2v0.1c0,0.101,0,0.101,0,0.101
	v0.102v0.102c-0.1,0-0.1,0-0.1,0.101v0.101c0,0.1,0,0.1,0,0.1c0,0.102,0,0.102,0,0.102l0,0c-0.1,0-0.1,0.102-0.2,0.102V25.2v0.1
	c0,0.101,0,0.101,0,0.101c0,0.102,0,0.102,0,0.102l0,0l-0.1,0.102V25.7v0.1c0,0.101,0,0.101,0,0.101c0,0.102,0,0.102,0,0.102v0.102
	V26.2l0,0c-0.1,0-0.1,0.1-0.2,0.1V26.4v0.1v0.1V26.7v0.101c0,0.1,0,0.1,0,0.1c0,0.102,0,0.102,0,0.102v0.102V27.2v0.101v0.1v0.102
	v0.102V27.7l0,0l0,0v0.2l0,0V28l0,0l0,0l0,0l0,0l0,0l0,0l0,0v0.2h0.1l0,0l0,0l0,0l0,0l0,0l0,0l0,0l0,0l0,0l0,0h0.1l0,0h0.1h0.1l0,0
	l0,0h0.1c0.1,0,0.1,0,0.1,0l0,0l0,0l0,0c0.1,0,0.1,0,0.1,0l0,0H13l0,0v0.3c-0.2,0-0.4,0-0.5,0s-0.2,0-0.3,0l0,0h-0.1l0,0
	c-0.2,0-0.3,0-0.5,0c-0.1,0-0.2,0-0.3,0c-0.3,0-0.7,0-1,0c-0.1,0-0.2,0-0.2,0v-0.1l0,0c-0.1,0-0.2,0-0.3,0c-0.1,0-0.1,0-0.2,0V30
	c-0.1,0-0.2,0-0.4,0c-0.1,0-0.3,0-0.4,0v-0.1c-0.1,0-0.2,0-0.4,0c-0.1,0-0.3,0-0.4,0l0,0l0,0c-0.1,0-0.1,0-0.1,0H7.8
	c-0.3,0-0.7,0-1,0V29.8c-0.3,0-0.6-0.1-0.9-0.1c0,0-0.1,0-0.1-0.101c-0.2,0-0.3,0-0.5,0l-0.1-0.102c-0.2,0-0.3-0.102-0.5-0.102
	c0,0-0.1,0-0.1-0.101c-0.2,0-0.3,0-0.5,0L4,29.2C3.9,29,3.7,29,3.6,29v-0.1c-0.1,0-0.2,0-0.3,0L3.2,28.8c-0.1,0-0.1-0.1-0.2-0.1
	s-0.2,0-0.3,0V28.6c0-0.1,0-0.1,0-0.1v-0.1c0-0.103,0-0.103,0-0.103v-0.1v-0.101c-0.8,0-1.6,0-2.3,0l0,0V28v-0.1c0,0-0.1,0-0.2,0
	c0-0.103,0-0.103,0-0.103c0-0.1,0-0.1,0-0.1v-0.101c0-0.1,0-0.1,0-0.1v-0.1V27.3v-0.1V27.1c0-0.1,0-0.1,0-0.1c0-0.1,0-0.1,0-0.1
	V26.8v-0.1V26.6v-0.1c0-0.1,0-0.1,0-0.1V26.3c0-0.1,0-0.1,0-0.1c0-0.101,0-0.101,0-0.101V26v-0.1V25.8v-0.1V25.6c0-0.1,0-0.1,0-0.1
	v-0.1l0,0c0.1,0,0.1,0,0.2,0c0-0.103,0-0.103,0-0.103c0-0.1,0-0.1,0-0.1v-0.101V25v-0.1V24.8v-0.1C0.4,24.6,0.5,24.6,0.5,24.6
	c0-0.1,0-0.1,0-0.1c0-0.1,0-0.1,0-0.1V24.3v-0.1V24.1c0.1,0,0.1,0,0.2,0c0-0.1,0-0.1,0-0.1c0-0.1,0-0.1,0-0.1V23.8v-0.1V23.6v-0.1
	c0-0.1,0-0.1,0-0.1C0.8,23.3,0.8,23.3,0.8,23.3c0-0.1,0-0.1,0-0.1V23.1V23v-0.1V22.8c0.1,0,0.1,0,0.2,0C1,22.1,1,22,1,22v-0.1V21.8
	v-0.1V21.6c0.1,0,0.1,0,0.1,0c0-0.1,0-0.1,0-0.1v-0.1V21.3c0.1,0,0.1-0.1,0.2-0.1V21.1c0-0.1,0-0.1,0-0.1c0-0.1,0-0.1,0-0.1
	c0.1,0,0.1-0.103,0.1-0.103c0-0.1,0-0.1,0-0.1v-0.101c0.1,0,0.1-0.1,0.1-0.1v-0.1V20.3c0.1,0,0.1,0,0.1,0c0-0.1,0-0.1,0-0.1V20.1
	c0.1,0,0.1-0.1,0.1-0.1v-0.1V19.8v-0.1l0,0c0.1,0,0.1-0.101,0.1-0.101v-0.102c0-0.102,0-0.102,0-0.102c0-0.101,0-0.101,0-0.101
	C2,19,2.1,19,2.1,18.9V18.8v-0.1L2.2,18.6c0-0.1,0-0.1,0-0.1v-0.1C2.2,18.3,2.3,18.3,2.3,18.3c0-0.1,0-0.1,0-0.1L2.4,18.1V18v-0.1
	V17.8c0.1-0.1,0.1-0.1,0.2-0.1c0-0.101,0-0.101,0-0.101c0-0.102,0-0.102,0-0.102l0.1-0.102V17.3v-0.1V17.1c0.1,0,0.1-0.1,0.1-0.1
	c0-0.1,0-0.1,0-0.1V16.8c0.1,0,0.1-0.1,0.1-0.1V16.6v-0.1c0.1,0,0.1-0.1,0.2-0.1v-0.1c0.1,0,0.1-0.1,0.1-0.1c0-0.1,0-0.1,0-0.1
	C3.2,16,3.3,16,3.3,16c0-0.1,0.1-0.1,0.1-0.1c0-0.1,0-0.1,0-0.1v-0.1c0,0,0-0.1,0.1-0.1v-0.1v-0.1c0.1-0.1,0.1-0.1,0.1-0.1
	c0-0.1,0-0.1,0-0.1c0-0.1,0-0.1,0-0.1c0.1,0,0.1-0.1,0.1-0.1v-0.1v-0.1v-0.1c0.1,0,0.1,0,0.2,0c0-0.1,0-0.1,0-0.1v-0.1v-0.1
	C4.2,14,4.3,14,4.3,14v-0.1v-0.1c0-0.1,0-0.1,0-0.1v-0.1c0-0.1,0-0.1,0-0.1v-0.1l0,0c0.1,0,0.1,0,0.2,0c0-0.1,0-0.1,0-0.1v-0.1v-0.1
	c-0.1,0-0.1,0-0.2,0V13l0,0v-0.1c-0.1,0-0.1,0-0.2,0L4,12.8v-0.1v-0.1c-0.1,0-0.2-0.1-0.2-0.1v-0.1C3.6,12,3.6,12,3.5,12l-0.1-0.1
	v-0.1c-0.1,0-0.1-0.1-0.2-0.1l-0.1-0.1c-0.1,0-0.1,0-0.2,0v-0.1c-0.1,0-0.1-0.1-0.2-0.1v-0.1c-0.1,0-0.2,0-0.3,0v-0.1
	c-0.1,0-0.1-0.1-0.2-0.1L2.1,11C2,11,2,11,1.9,11v-0.1c-0.2,0-0.3-0.1-0.5-0.1l-0.1-0.1c-0.1,0-0.1,0-0.2,0v-0.1
	c-0.2,0-0.4-0.1-0.6-0.1v-0.1v-0.1v-0.1c-0.1,0-0.3,0-0.4,0v-0.1V10V9.9c0-0.1,0-0.1,0-0.1c0-0.1,0-0.1,0-0.1V9.6V9.5V9.4V9.3V9.2V9
	c0-0.1,0-0.1,0-0.1c0-0.1,0-0.1,0-0.1V8.7l0.1-0.1V8.5V8.4c0-0.1,0-0.1,0-0.1V8.2c0-0.1,0-0.1,0-0.1c0-0.1,0-0.1,0-0.1V7.9V7.8V7.7
	c0.2,0,0.3,0,0.5,0c0-0.1,0-0.1,0-0.1V7.5V7.4V7.3V7.2V7.1c0-0.1,0-0.1,0-0.1V6.7c0-0.1,0-0.1,0-0.1V6.5V6.4C1,6.3,1,6.3,1.1,6.2
	V6.1c0-0.1,0-0.1,0-0.1l0.1-0.1V5.8c0-0.1,0-0.1,0-0.1V5.6l0,0c0.1,0,0.1,0,0.1,0c0-0.1,0-0.1,0-0.1V5.4V5.3c0.1,0,0.1-0.1,0.2-0.1
	V5.1V5c0.1,0,0.1-0.1,0.1-0.1V4.8V4.7l0,0c0.1,0,0.1-0.1,0.2-0.1V4.5c0.1,0,0.1,0,0.1,0V4.4V4.3l0,0c0.1,0,0.1,0,0.2,0V4.2
	c0.1,0,0.1-0.1,0.1-0.1V4V3.9l0,0c0.1,0,0.1-0.1,0.2-0.1V3.7c0.1,0,0.1,0,0.1,0V3.6c0.1,0,0.1-0.1,0.2-0.1V3.4c0.1,0,0.1,0,0.1,0
	V3.3c0.1,0,0.1,0,0.2,0C3,3,3,3,3,3V2.9V2.8V2.6c0.4,0,0.8,0,1.2,0V2.5V2.4V2.3V2.2l0,0c0-0.1,0-0.1,0-0.1V2l0,0C9,2,13.7,2,18.5,2
	v0.1c0,0.1,0,0.1,0,0.1c0,0.1,0,0.1,0,0.1v0.1c0.2,0,0.4,0,0.6,0v0.1c0.1,0,0.1,0.1,0.1,0.1v0.1c0,0.1,0,0.1,0,0.1
	c0,0.1,0,0.1,0,0.1V3c0,0.1,0,0.1,0,0.1v0.1l0,0c1.7,0,3.5,0,5.299,0l0,0V3.1l0,0c0-0.1,0-0.1,0-0.1c0-0.1,0-0.1,0-0.1V2.8V2.7V2.6
	V2.5V2.4V2.2c0-0.1,0-0.1,0-0.1V2l0,0c3.5,0,7,0,10.5,0l0,0c0.301,0,0.701,0,1,0H36.3c0.199,0,0.4,0,0.6,0v0.1c0.1,0,0.1,0,0.2,0
	c0,0.1,0,0.1,0,0.1v0.1C37.1,2.4,37.1,2.4,37.1,2.5z M17.5,11.7c-0.1,0-0.2,0.1-0.2,0.1l-0.1,0.1L17.1,12v0.1L17,12.2v0.1
	c0,0.1,0,0.1,0,0.1c-0.1,0-0.1,0.1-0.2,0.1v0.1c0,0.1,0,0.1,0,0.1l-0.1,0.1v0.1c0,0.1,0,0.1,0,0.1c0,0.1,0,0.1,0,0.1l-0.1,0.1
	l-0.1,0.1v0.1v0.1v0.1l-0.1,0.1c0,0.1,0,0.1,0,0.1c0,0.1,0,0.1,0,0.1V14v0.1v0.1v0.1c0,0.1,0.1,0.1,0.1,0.1v0.1c0,0.1,0,0.1,0,0.1
	c0.1,0.1,0.1,0.1,0.1,0.1v0.1c0,0,0,0,0,0.1l0.1,0.1v0.1c0,0.1,0,0.1,0,0.1v0.1c0,0.1,0,0.1,0,0.1v0.1v0.1V16v0.1v0.1
	c0,0.1,0,0.1,0,0.1v0.1c0,0.1,0,0.1,0,0.1c2.799,0,5.5,0,8.299,0v-0.1v-0.1l0,0v-0.1V16c0.201,0,0.398,0,0.701,0l0,0v-0.1l0,0h0.1
	l0,0c0-0.1,0-0.2,0-0.3s0-0.2,0-0.3c0-0.1,0-0.3,0-0.3c0-0.1,0-0.2,0-0.4c0-0.1,0-0.2,0-0.3c0-0.1,0-0.2,0-0.3s0-0.2,0-0.3
	c0-0.1,0-0.2,0-0.3s0-0.2,0-0.3s0-0.2,0-0.3c0-0.1,0-0.2,0-0.3v-0.1c-0.1,0-0.2,0-0.4,0l0,0v-0.1h-0.1l0,0h-0.1v-0.1l0,0l0,0l0,0
	H25.1v-0.1H25V12h-0.1h-0.1c-0.1,0-0.1,0-0.1,0v-0.1l0,0c-1.5,0-3,0-4.5,0V12l0,0v0.1v0.1v0.1C20.1,12.3,20.1,12.4,20,12.4
	c0,0.1,0,0.1,0,0.1v0.1v0.1v0.1v0.1c0,0.1,0,0.1,0,0.1c0,0.1,0,0.1,0,0.1c0,0.1,0,0.1,0,0.2l0,0v0.1v0.1v0.1v0.1c0,0.1,0,0.1,0,0.1
	c0,0.1,0,0.1,0,0.1V14v0.1v0.1l0,0l0,0l0,0l0,0v0.1H20.1l0.101,0.1l0,0l0,0v0.1l0,0h0.1v0.1h0.102l0,0h0.102v0.1H20.6l0.101,0.1l0,0
	h0.1c0.102,0,0.102,0,0.199,0v0.1c0.103,0,0.103,0,0.201,0c0.1,0,0.1,0.1,0.1,0.1l0,0c0.102,0,0.199,0,0.199,0
	c0.103,0,0.103,0,0.201,0v0.1c0.199,0,0.399,0,0.6,0v0.1v0.1v0.1v0.1l0,0v0.1v0.1v0.1v0.1c-0.398,0-0.898,0-1.301,0l0,0
	c-0.1,0-0.1,0-0.199,0c-0.098,0-0.1-0.1-0.198-0.1l0,0H20.5c0,0-0.1,0-0.199,0l0,0h-0.1C20.1,15.8,20.1,15.7,20,15.7l0,0l0,0h-0.1
	l0,0c-0.1,0-0.1-0.1-0.1-0.1h-0.1v-0.1H19.6H19.5v-0.1l0,0v-0.1h-0.1l0,0l-0.1-0.1l0,0l-0.1-0.1l0,0l0,0h-0.1l0,0L19,15l0,0
	c0,0,0,0-0.1,0l0,0v-0.1c-0.1,0-0.1,0-0.2,0v-0.1l0,0v-0.1v-0.2v-0.1l0,0v-0.1v-0.1v-0.1V14v-0.1c0.1,0,0.1,0,0.1,0v-0.1
	c0-0.1,0-0.1,0-0.1c0-0.1,0-0.1,0-0.2s0-0.1,0-0.2c0-0.1,0-0.1,0-0.2s0-0.1,0-0.2s0-0.1,0-0.2c0-0.1,0-0.1,0-0.2s0-0.1,0-0.2
	c0-0.1,0-0.1,0-0.1c0-0.1,0-0.2,0-0.2c-0.3,0-0.5,0-0.7,0l0,0v0.1l0,0c-0.1,0-0.3,0.1-0.5,0.1l0,0C17.6,11.6,17.6,11.6,17.5,11.7
	C17.5,11.6,17.5,11.7,17.5,11.7z M7.2,29.6c0.1,0,0.2,0,0.2,0l0,0C7.3,29.6,7.2,29.6,7.2,29.6L7.2,29.6z"/>
<g>
	<defs>
		<path id="SVGID_1_" d="M37.1,2.5L37.1,2.5c0,0.1,0,0.1,0,0.2c0,0.1,0,0.1,0,0.1v0.1c0.101,0,0.3,0,0.399,0V3c0,0.2,0,0.3,0,0.5
			c0,0.1,0,0.3,0,0.4c0,0.2,0,0.3,0,0.5c0,0.1,0,0.3,0,0.4c0,0.2,0,0.3,0,0.5c0,0.1,0,0.3,0,0.4c0,0.2,0,0.3,0,0.5
			c0,0.1,0,0.3,0,0.4c0,0.2,0,0.3,0,0.5c0,0.1,0,0.3,0,0.4c0,0.2,0,0.3,0,0.5c0,0.1,0,0.3,0,0.4c0,0.2,0,0.3,0,0.5
			c0,0.1,0,0.3,0,0.4c0,0.2,0,0.3,0,0.4c0,0.1,0,0.2,0,0.3s0,0.1,0,0.1v0.1v0.3c0,0.1,0,0.1,0,0.1c0,0.1,0,0.1,0,0.1v0.1v0.1V11l0,0
			v0.1l0,0v0.1c-3.399,0-6.699,0-10.102,0l0,0l0,0v0.1h-0.102c-0.1,0-0.1,0.1-0.1,0.1l0,0l0,0H27.1v0.1l0,0L27,11.6l0,0l0,0h-0.1
			h-0.1c0,0.1,0,0.1,0,0.2c0,0.1,0,0.2,0,0.4c0,0.1,0,0.2,0,0.4c0,0.1,0,0.3,0,0.4s0,0.3,0,0.4s0,0.3,0,0.4c0,0.1,0,0.3,0,0.4
			c0,0.1,0,0.3,0,0.4s0,0.2,0,0.4c0,0.1,0,0.2,0,0.4c0,0.1,0,0.2,0,0.4v0.1c0.1,0,0.199,0,0.199,0V16v0.1v0.1v0.1l0,0v0.1v0.1v0.1
			V16.7l0,0l0,0v0.1V16.9V17l0,0v0.1V17.2c-4.102,0-8.202,0-12.399,0c0,0.1,0,0.1,0,0.1c0,0.101,0,0.101,0,0.101v0.102
			c0,0.102-0.1,0.102-0.1,0.102V17.7v0.1V18v0.1c0,0.103,0,0.103,0,0.103c0,0.1,0,0.1,0,0.1v0.101c-0.1,0-0.1,0.1-0.1,0.1v0.1V18.7
			v0.1V18.9c0,0.1,0,0.1,0,0.1c0,0.1,0,0.1,0,0.1c-0.1,0-0.1,0.103-0.1,0.103v0.1v0.101v0.1v0.1c0,0.103,0,0.103,0,0.103
			c0,0.101,0,0.101,0,0.101c-0.1,0-0.1,0.102-0.2,0.102V20v0.1V20.2v0.1V20.4c0,0-0.1,0-0.1,0.1v0.1V20.7v0.1V20.9V21
			c0,0.1-0.1,0.1-0.1,0.1c0,0.103,0,0.103,0,0.103v0.1c0,0,0,0,0,0.103l-0.1,0.1v0.1c0,0.103,0,0.103,0,0.103v0.101
			c0,0.102-0.1,0.102-0.1,0.102c0,0.1,0,0.1,0,0.1v0.1c0,0,0,0,0,0.103l-0.1,0.101v0.09c0,0.1,0,0.1,0,0.1v0.1
			c-0.1,0-0.1,0-0.2,0.103c0,0,0,0,0,0.1l-0.1,0.101V23c0,0.1,0,0.1,0,0.1V23.2v0.1c-0.1,0-0.1,0.101-0.2,0.101v0.102
			c0,0.102,0,0.102,0,0.102V23.7L13,23.8V23.9V24c0,0.1,0,0.1,0,0.1C12.9,24.2,12.9,24.2,12.8,24.2v0.1c0,0.101,0,0.101,0,0.101
			v0.102v0.102c-0.1,0-0.1,0-0.1,0.101v0.101c0,0.1,0,0.1,0,0.1c0,0.102,0,0.102,0,0.102l0,0c-0.1,0-0.1,0.102-0.2,0.102V25.2v0.1
			c0,0.101,0,0.101,0,0.101c0,0.102,0,0.102,0,0.102l0,0l-0.1,0.102V25.7v0.1c0,0.101,0,0.101,0,0.101c0,0.102,0,0.102,0,0.102
			v0.102V26.2l0,0c-0.1,0-0.1,0.1-0.2,0.1V26.4v0.1v0.1V26.7v0.101c0,0.1,0,0.1,0,0.1c0,0.102,0,0.102,0,0.102v0.102V27.2v0.101v0.1
			v0.102v0.102V27.7l0,0l0,0v0.2l0,0V28l0,0l0,0l0,0l0,0l0,0l0,0l0,0v0.2h0.1l0,0l0,0l0,0l0,0l0,0l0,0l0,0l0,0l0,0l0,0h0.1l0,0h0.1
			h0.1l0,0l0,0h0.1c0.1,0,0.1,0,0.1,0l0,0l0,0l0,0c0.1,0,0.1,0,0.1,0l0,0H13l0,0v0.3c-0.2,0-0.4,0-0.5,0s-0.2,0-0.3,0l0,0h-0.1l0,0
			c-0.2,0-0.3,0-0.5,0c-0.1,0-0.2,0-0.3,0c-0.3,0-0.7,0-1,0c-0.1,0-0.2,0-0.2,0v-0.1l0,0c-0.1,0-0.2,0-0.3,0c-0.1,0-0.1,0-0.2,0V30
			c-0.1,0-0.2,0-0.4,0c-0.1,0-0.3,0-0.4,0v-0.1c-0.1,0-0.2,0-0.4,0c-0.1,0-0.3,0-0.4,0l0,0l0,0c-0.1,0-0.1,0-0.1,0H7.8
			c-0.3,0-0.7,0-1,0V29.8c-0.3,0-0.6-0.1-0.9-0.1c0,0-0.1,0-0.1-0.101c-0.2,0-0.3,0-0.5,0l-0.1-0.102c-0.2,0-0.3-0.102-0.5-0.102
			c0,0-0.1,0-0.1-0.101c-0.2,0-0.3,0-0.5,0L4,29.2C3.9,29,3.7,29,3.6,29v-0.1c-0.1,0-0.2,0-0.3,0L3.2,28.8c-0.1,0-0.1-0.1-0.2-0.1
			s-0.2,0-0.3,0V28.6c0-0.1,0-0.1,0-0.1v-0.1c0-0.103,0-0.103,0-0.103v-0.1v-0.101c-0.8,0-1.6,0-2.3,0l0,0V28v-0.1c0,0-0.1,0-0.2,0
			c0-0.103,0-0.103,0-0.103c0-0.1,0-0.1,0-0.1v-0.101c0-0.1,0-0.1,0-0.1v-0.1V27.3v-0.1V27.1c0-0.1,0-0.1,0-0.1c0-0.1,0-0.1,0-0.1
			V26.8v-0.1V26.6v-0.1c0-0.1,0-0.1,0-0.1V26.3c0-0.1,0-0.1,0-0.1c0-0.101,0-0.101,0-0.101V26v-0.1V25.8v-0.1V25.6
			c0-0.1,0-0.1,0-0.1v-0.1l0,0c0.1,0,0.1,0,0.2,0c0-0.103,0-0.103,0-0.103c0-0.1,0-0.1,0-0.1v-0.101V25v-0.1V24.8v-0.1
			C0.4,24.6,0.5,24.6,0.5,24.6c0-0.1,0-0.1,0-0.1c0-0.1,0-0.1,0-0.1V24.3v-0.1V24.1c0.1,0,0.1,0,0.2,0c0-0.1,0-0.1,0-0.1
			c0-0.1,0-0.1,0-0.1V23.8v-0.1V23.6v-0.1c0-0.1,0-0.1,0-0.1C0.8,23.3,0.8,23.3,0.8,23.3c0-0.1,0-0.1,0-0.1V23.1V23v-0.1V22.8
			c0.1,0,0.1,0,0.2,0C1,22.1,1,22,1,22v-0.1V21.8v-0.1V21.6c0.1,0,0.1,0,0.1,0c0-0.1,0-0.1,0-0.1v-0.1V21.3c0.1,0,0.1-0.1,0.2-0.1
			V21.1c0-0.1,0-0.1,0-0.1c0-0.1,0-0.1,0-0.1c0.1,0,0.1-0.103,0.1-0.103c0-0.1,0-0.1,0-0.1v-0.101c0.1,0,0.1-0.1,0.1-0.1v-0.1V20.3
			c0.1,0,0.1,0,0.1,0c0-0.1,0-0.1,0-0.1V20.1c0.1,0,0.1-0.1,0.1-0.1v-0.1V19.8v-0.1l0,0c0.1,0,0.1-0.101,0.1-0.101v-0.102
			c0-0.102,0-0.102,0-0.102c0-0.101,0-0.101,0-0.101C2,19,2.1,19,2.1,18.9V18.8v-0.1L2.2,18.6c0-0.1,0-0.1,0-0.1v-0.1
			C2.2,18.3,2.3,18.3,2.3,18.3c0-0.1,0-0.1,0-0.1L2.4,18.1V18v-0.1V17.8c0.1-0.1,0.1-0.1,0.2-0.1c0-0.101,0-0.101,0-0.101
			c0-0.102,0-0.102,0-0.102l0.1-0.102V17.3v-0.1V17.1c0.1,0,0.1-0.1,0.1-0.1c0-0.1,0-0.1,0-0.1V16.8c0.1,0,0.1-0.1,0.1-0.1V16.6
			v-0.1c0.1,0,0.1-0.1,0.2-0.1v-0.1c0.1,0,0.1-0.1,0.1-0.1c0-0.1,0-0.1,0-0.1C3.2,16,3.3,16,3.3,16c0-0.1,0.1-0.1,0.1-0.1
			c0-0.1,0-0.1,0-0.1v-0.1c0,0,0-0.1,0.1-0.1v-0.1v-0.1c0.1-0.1,0.1-0.1,0.1-0.1c0-0.1,0-0.1,0-0.1c0-0.1,0-0.1,0-0.1
			c0.1,0,0.1-0.1,0.1-0.1v-0.1v-0.1v-0.1c0.1,0,0.1,0,0.2,0c0-0.1,0-0.1,0-0.1v-0.1v-0.1C4.2,14,4.3,14,4.3,14v-0.1v-0.1
			c0-0.1,0-0.1,0-0.1v-0.1c0-0.1,0-0.1,0-0.1v-0.1l0,0c0.1,0,0.1,0,0.2,0c0-0.1,0-0.1,0-0.1v-0.1v-0.1c-0.1,0-0.1,0-0.2,0V13l0,0
			v-0.1c-0.1,0-0.1,0-0.2,0L4,12.8v-0.1v-0.1c-0.1,0-0.2-0.1-0.2-0.1v-0.1C3.6,12,3.6,12,3.5,12l-0.1-0.1v-0.1
			c-0.1,0-0.1-0.1-0.2-0.1l-0.1-0.1c-0.1,0-0.1,0-0.2,0v-0.1c-0.1,0-0.1-0.1-0.2-0.1v-0.1c-0.1,0-0.2,0-0.3,0v-0.1
			c-0.1,0-0.1-0.1-0.2-0.1L2.1,11C2,11,2,11,1.9,11v-0.1c-0.2,0-0.3-0.1-0.5-0.1l-0.1-0.1c-0.1,0-0.1,0-0.2,0v-0.1
			c-0.2,0-0.4-0.1-0.6-0.1v-0.1v-0.1v-0.1c-0.1,0-0.3,0-0.4,0v-0.1V10V9.9c0-0.1,0-0.1,0-0.1c0-0.1,0-0.1,0-0.1V9.6V9.5V9.4V9.3V9.2
			V9c0-0.1,0-0.1,0-0.1c0-0.1,0-0.1,0-0.1V8.7l0.1-0.1V8.5V8.4c0-0.1,0-0.1,0-0.1V8.2c0-0.1,0-0.1,0-0.1c0-0.1,0-0.1,0-0.1V7.9V7.8
			V7.7c0.2,0,0.3,0,0.5,0c0-0.1,0-0.1,0-0.1V7.5V7.4V7.3V7.2V7.1c0-0.1,0-0.1,0-0.1V6.7c0-0.1,0-0.1,0-0.1V6.5V6.4
			C1,6.3,1,6.3,1.1,6.2V6.1c0-0.1,0-0.1,0-0.1l0.1-0.1V5.8c0-0.1,0-0.1,0-0.1V5.6l0,0c0.1,0,0.1,0,0.1,0c0-0.1,0-0.1,0-0.1V5.4V5.3
			c0.1,0,0.1-0.1,0.2-0.1V5.1V5c0.1,0,0.1-0.1,0.1-0.1V4.8V4.7l0,0c0.1,0,0.1-0.1,0.2-0.1V4.5c0.1,0,0.1,0,0.1,0V4.4V4.3l0,0
			c0.1,0,0.1,0,0.2,0V4.2c0.1,0,0.1-0.1,0.1-0.1V4V3.9l0,0c0.1,0,0.1-0.1,0.2-0.1V3.7c0.1,0,0.1,0,0.1,0V3.6c0.1,0,0.1-0.1,0.2-0.1
			V3.4c0.1,0,0.1,0,0.1,0V3.3c0.1,0,0.1,0,0.2,0C3,3,3,3,3,3V2.9V2.8V2.6c0.4,0,0.8,0,1.2,0V2.5V2.4V2.3V2.2l0,0c0-0.1,0-0.1,0-0.1
			V2l0,0C9,2,13.7,2,18.5,2v0.1c0,0.1,0,0.1,0,0.1c0,0.1,0,0.1,0,0.1v0.1c0.2,0,0.4,0,0.6,0v0.1c0.1,0,0.1,0.1,0.1,0.1v0.1
			c0,0.1,0,0.1,0,0.1c0,0.1,0,0.1,0,0.1V3c0,0.1,0,0.1,0,0.1v0.1l0,0c1.7,0,3.5,0,5.299,0l0,0V3.1l0,0c0-0.1,0-0.1,0-0.1
			c0-0.1,0-0.1,0-0.1V2.8V2.7V2.6V2.5V2.4V2.2c0-0.1,0-0.1,0-0.1V2l0,0c3.5,0,7,0,10.5,0l0,0c0.301,0,0.701,0,1,0H36.3
			c0.199,0,0.4,0,0.6,0v0.1c0.1,0,0.1,0,0.2,0c0,0.1,0,0.1,0,0.1v0.1C37.1,2.4,37.1,2.4,37.1,2.5z M17.5,11.7
			c-0.1,0-0.2,0.1-0.2,0.1l-0.1,0.1L17.1,12v0.1L17,12.2v0.1c0,0.1,0,0.1,0,0.1c-0.1,0-0.1,0.1-0.2,0.1v0.1c0,0.1,0,0.1,0,0.1
			l-0.1,0.1v0.1c0,0.1,0,0.1,0,0.1c0,0.1,0,0.1,0,0.1l-0.1,0.1l-0.1,0.1v0.1v0.1v0.1l-0.1,0.1c0,0.1,0,0.1,0,0.1c0,0.1,0,0.1,0,0.1
			V14v0.1v0.1v0.1c0,0.1,0.1,0.1,0.1,0.1v0.1c0,0.1,0,0.1,0,0.1c0.1,0.1,0.1,0.1,0.1,0.1v0.1c0,0,0,0,0,0.1l0.1,0.1v0.1
			c0,0.1,0,0.1,0,0.1v0.1c0,0.1,0,0.1,0,0.1v0.1v0.1V16v0.1v0.1c0,0.1,0,0.1,0,0.1v0.1c0,0.1,0,0.1,0,0.1c2.799,0,5.5,0,8.299,0
			v-0.1v-0.1l0,0v-0.1V16c0.201,0,0.398,0,0.701,0l0,0v-0.1l0,0h0.1l0,0c0-0.1,0-0.2,0-0.3s0-0.2,0-0.3c0-0.1,0-0.3,0-0.3
			c0-0.1,0-0.2,0-0.4c0-0.1,0-0.2,0-0.3c0-0.1,0-0.2,0-0.3s0-0.2,0-0.3c0-0.1,0-0.2,0-0.3s0-0.2,0-0.3s0-0.2,0-0.3
			c0-0.1,0-0.2,0-0.3v-0.1c-0.1,0-0.2,0-0.4,0l0,0v-0.1h-0.1l0,0h-0.1v-0.1l0,0l0,0l0,0H25.1v-0.1H25V12h-0.1h-0.1
			c-0.1,0-0.1,0-0.1,0v-0.1l0,0c-1.5,0-3,0-4.5,0V12l0,0v0.1v0.1v0.1C20.1,12.3,20.1,12.4,20,12.4c0,0.1,0,0.1,0,0.1v0.1v0.1v0.1
			v0.1c0,0.1,0,0.1,0,0.1c0,0.1,0,0.1,0,0.1c0,0.1,0,0.1,0,0.2l0,0v0.1v0.1v0.1v0.1c0,0.1,0,0.1,0,0.1c0,0.1,0,0.1,0,0.1V14v0.1v0.1
			l0,0l0,0l0,0l0,0v0.1H20.1l0.101,0.1l0,0l0,0v0.1l0,0h0.1v0.1h0.102l0,0h0.102v0.1H20.6l0.101,0.1l0,0h0.1
			c0.102,0,0.102,0,0.199,0v0.1c0.103,0,0.103,0,0.201,0c0.1,0,0.1,0.1,0.1,0.1l0,0c0.102,0,0.199,0,0.199,0
			c0.103,0,0.103,0,0.201,0v0.1c0.199,0,0.399,0,0.6,0v0.1v0.1v0.1v0.1l0,0v0.1v0.1v0.1v0.1c-0.398,0-0.898,0-1.301,0l0,0
			c-0.1,0-0.1,0-0.199,0c-0.098,0-0.1-0.1-0.198-0.1l0,0H20.5c0,0-0.1,0-0.199,0l0,0h-0.1C20.1,15.8,20.1,15.7,20,15.7l0,0l0,0h-0.1
			l0,0c-0.1,0-0.1-0.1-0.1-0.1h-0.1v-0.1H19.6H19.5v-0.1l0,0v-0.1h-0.1l0,0l-0.1-0.1l0,0l-0.1-0.1l0,0l0,0h-0.1l0,0L19,15l0,0
			c0,0,0,0-0.1,0l0,0v-0.1c-0.1,0-0.1,0-0.2,0v-0.1l0,0v-0.1v-0.2v-0.1l0,0v-0.1v-0.1v-0.1V14v-0.1c0.1,0,0.1,0,0.1,0v-0.1
			c0-0.1,0-0.1,0-0.1c0-0.1,0-0.1,0-0.2s0-0.1,0-0.2c0-0.1,0-0.1,0-0.2s0-0.1,0-0.2s0-0.1,0-0.2c0-0.1,0-0.1,0-0.2s0-0.1,0-0.2
			c0-0.1,0-0.1,0-0.1c0-0.1,0-0.2,0-0.2c-0.3,0-0.5,0-0.7,0l0,0v0.1l0,0c-0.1,0-0.3,0.1-0.5,0.1l0,0C17.6,11.6,17.6,11.6,17.5,11.7
			C17.5,11.6,17.5,11.7,17.5,11.7z M7.2,29.6c0.1,0,0.2,0,0.2,0l0,0C7.3,29.6,7.2,29.6,7.2,29.6L7.2,29.6z"/>
	</defs>
	<clipPath id="SVGID_2_">
		<use xlink:href="#SVGID_1_"  overflow="visible"/>
	</clipPath>
	
		<linearGradient id="SVGID_3_" gradientUnits="userSpaceOnUse" x1="554.2153" y1="822.043" x2="586.9946" y2="822.043" gradientTransform="matrix(1 0 0 1 -563.1992 -808.9199)">
		<stop  offset="0" style="stop-color:#A9D0FF"/>
		<stop  offset="0.1986" style="stop-color:#A7CBFF"/>
		<stop  offset="0.4411" style="stop-color:#A1BCFF"/>
		<stop  offset="0.7063" style="stop-color:#97A3FF"/>
		<stop  offset="0.9861" style="stop-color:#8981FF"/>
		<stop  offset="1" style="stop-color:#887FFF"/>
	</linearGradient>
	<path clip-path="url(#SVGID_2_)" fill="url(#SVGID_3_)" d="M-8.025,14.419c0,0-0.039,1.561,0.822,2.556
		c0.863,0.996,1.791-0.531,1.791-0.531l2.851-2.651c0,0,1.923,0.329,2.189,0.595c0.266,0.265,2.641-1.681,2.641-1.681
		s0.679-0.435,1.21,0.756c0.53,1.197,3.243,3.313,4.172,2.85c0.928-0.466,1.326-1.726,3.182-0.733
		c1.857,0.999,4.111,2.325,4.111,2.325s1.449,0.054,1.58-0.541c0.134-0.597,0.896,0.649,1.756,0.052
		c0.864-0.598,3.658-1.229,3.991-1.758c0.33-0.531,2.242-1.384,1.235-3.993c-0.706-1.834-8.495-5.418-10.481-1.594
		c-1.329,2.56-0.787,2.353-0.787,2.353s-2.998,1.228-4.589,0.366s-2.98-2.049-4.373-2.116c-1.393-0.066-3.383-0.398-3.914,0.067
		c-0.531,0.463-0.892-2.016-1.488-2.356c-0.597-0.34-6.634,1.358-6.833,2.419S-8.025,14.419-8.025,14.419z"/>
	<path clip-path="url(#SVGID_2_)" fill="#2970D6" d="M26.572,8.204c0,0-0.462-2.406-0.735-2.804
		c-0.515-0.753-0.938-1.96-2.435-1.904c-0.53,0.02-2.704-1.789-0.439-1.871c2.454-0.09,10.021-0.22,13.465,0.083
		c3.442,0.303,2.08,2.012,2.08,2.012s0.964,1.621,0.628,2.494c-0.356,0.932-1.725,2.234-1.739,2.177
		c-0.199-0.814-2.457,1.189-2.457,1.189s-1.481-2.62-1.976-2.771c-0.381-0.115-1.524,1.708-1.524,1.708s-1.163-3.512-2.226-3.433
		C26.862,5.26,26.572,8.204,26.572,8.204z"/>
	
		<path clip-path="url(#SVGID_2_)" fill="none" stroke="#FFFFFF" stroke-width="0.5" stroke-linecap="round" stroke-linejoin="round" stroke-miterlimit="10" d="
		M12.823,14.445c0,0,0.604-0.495,1.095-4.015c0.25-1.785,1.14-5.57,3.085-5.512c1.916,0.059,2.94,3.371,3.088,5.728
		c0,0,2.576-4.988,6.228-0.813c0,0,0.466-6.464-3.602-6.091c-1.21-0.009-1.93,3.563-2.626,6.903"/>
	<path clip-path="url(#SVGID_2_)" fill="#A2CAFF" d="M13.835,17.377c0.449,1.159-2.834,4.12-2.834,4.12s-2.64,2.172-5.253,1.396
		c-5.247-1.557-2.154-8.396-2.154-8.396s1.149-1.001,1.772-0.149c0.624,0.853,2.374,0.331,3.608,0.379
		c1.693,0.066,2.311,3.013,3.487,0.72C12.689,14.999,13.654,16.906,13.835,17.377z"/>
	<path clip-path="url(#SVGID_2_)" fill="#FFFFFF" d="M15.275,17.2c0,0-2.518-0.224-2.64,0.872c-0.213,1.908-3.663,4.576-4.564,4.531
		c-1.538-0.08-5.266-1.162-4.788-3.727c0.116-0.617,0.476-3.513,0.312-4.38c-0.275-1.45-1.496,4.06-1.496,4.06
		s-3.685,8.518-3.622,8.658s5.048,4.473,5.048,4.473L14.212,30L15.275,17.2z"/>
	<path clip-path="url(#SVGID_2_)" fill="#A4BAFF" d="M-4.429,9.184c0.198,0.386,4.598-0.931,4.598-0.931s-0.9,1.714-0.664,3.326
		c0.236,1.613,2.469,1.944,3.492,1.528c1.024-0.417,1.815-0.648,3.403,0.956c0.604,0.613,1.444-2.581,1.729,0.618
		c-0.067,3.048,1.655,1.792,1.655,1.792s2.554,0.833,2.827,0.101c0.274-0.732-0.15,0.781,0.84,0.184
		c0.99-0.598,0.224-4.991,0.163-5.778c0.003-0.425,0.322-2.339,0.322-2.339s1.799-5.221,4.153-3.704
		C16.614,3.091,9.664-2.46,6.883,0.847C6.212,2.793,6.212,0,6.212,0s-4.786,3.741-6.66,2.772c-1.633-0.847,1.84,2.72,0.488,2.377
		c-1.352-0.341-3.228-1.13-3.86-0.639c-0.632,0.49-2.569,1.104-3.076,0.563C-7.4,4.532-5.32,6.131-5.769,7.441
		C-6.218,8.748-4.627,8.797-4.429,9.184z"/>
	<path clip-path="url(#SVGID_2_)" fill="#B3B3FF" d="M3.889,11.402c0,0,4.686-0.981,6.177-0.565
		c1.492,0.416,0.585-1.288,0.162-2.261C9.391,6.657,9.665,5.319,7.79,5.619C6.611,5.808,4.449,9.189,3.889,11.402z"/>
	
		<path clip-path="url(#SVGID_2_)" fill="none" stroke="#92A8DD" stroke-width="0.5" stroke-linecap="round" stroke-linejoin="round" stroke-miterlimit="10" d="
		M26.228,10.22c0,0,0.954-5.217,2.82-5.151c1.945,0.106,2.217,1.857,2.438,3.852c0,0,0.604-2.486,1.8-2.074
		c0.619,0.214,1.537,2.892,1.537,2.892s2.176-3.092,2.808-0.548c0,0,0.094-5.388-2.883-2.183c0.385-1.642-0.918-2.896-1.544-3.039
		c-0.753-0.17-2.149,3.012-1.915,3.526"/>
	<path clip-path="url(#SVGID_2_)" fill="#FFFFFF" d="M3.651,5.017C1.938,5.499-0.83,9.72-0.354,10.579
		c1.446,2.61,4.146-0.158,4.694-0.923c1.148-1.646,1.148-2.676,1.463-2.926c0.3-0.333,0.883-1.506,2.829-1.22
		c1.289,0.189,2.323,2.276,2.734,4.75c0.694,4.194,2.477,4.589,3.998,5.188c0.784,0.31-1.097,0.723-1.097,0.723
		s-3.033-0.941-3.583-5.346c-0.299-2.399-1.25-4.562-2.452-4.579c-1.896-0.024-2.66,2.811-2.66,2.811s-1.778,2.992-4.089,3.357
		c-1.563,0.2-2.945-0.915-2.66-2.244c0.465-2.175,4.431-6.177,4.431-6.177l1.101-0.621L3.651,5.017z"/>
	<path clip-path="url(#SVGID_2_)" fill="#FFFFFF" d="M5.052,12.254c1.296-1.033,4.012-2.524,6.55-1.363
		c1.987,0.911,1.681,3.322,1.681,3.322s1.325,3.731-4.356,5.68c-5.115,0.071-4.597-6.429-4.597-6.429s1.907,3.254,4.106,3.543
		c2.076,0.271,4.15-1.713,4.15-1.713s0.656-4.276-3.16-4.108c-2.446,0.107-5.262,2.16-5.262,2.16L5.052,12.254z"/>
	<path clip-path="url(#SVGID_2_)" fill="#A089F4" d="M9.355,6.306"/>
</g>
</svg>
