<?xml version="1.0" encoding="utf-8"?>
<!-- Generator: Adobe Illustrator 16.0.0, SVG Export Plug-In . SVG Version: 6.00 Build 0)  -->
<!DOCTYPE svg PUBLIC "-//W3C//DTD SVG 1.0//EN" "http://www.w3.org/TR/2001/REC-SVG-20010904/DTD/svg10.dtd">
<svg version="1.0" id="图层_1" xmlns="http://www.w3.org/2000/svg" xmlns:xlink="http://www.w3.org/1999/xlink" x="0px" y="0px"
	 width="68.4px" height="32px" viewBox="0 0 68.4 32" enable-background="new 0 0 68.4 32" xml:space="preserve">
<path opacity="0.7" fill="#077272" enable-background="new    " d="M41.886,12.234c0,0-4.085,0.76-7.315,5.324
	c0,0,2.755,1.233,1.805,1.995s-5.131-0.379-12.353,6.841c0,0,2.946-1.328,6.936-1.614c3.993-0.286-1.045,2.376-2.185,3.04
	c0,0,7.411-3.704,9.502-3.422c2.09,0.285-7.413,5.702-11.499,7.603c0,0,12.45-4.086,13.875-3.896
	c1.426,0.188-0.761,2.47-4.181,3.896c0,0,7.127,0,11.879-2.186c4.751-2.186,1.6,0.49,1.6,1.728c0,0,6.938-0.708,9.708-4.313
	c4.271-4.396,0.478-4.449,3.422-6.636c2.946-2.186,4.179-3.611,4.179-3.611s-7.125,3.137-9.312,3.23
	c-2.186,0.097,1.426-2.946,5.321-4.654c3.898-1.711,5.132-4.847,5.132-4.847s-5.322,0.19-12.164,3.612
	c-6.842,3.421-7.602,4.561-7.031,2.47c0.571-2.09,6.842-5.036,6.842-5.036s-8.742,0.19-12.734,3.326
	c-3.99,3.136-2.852-0.76-1.995-1.521C42.174,12.804,41.886,12.234,41.886,12.234z"/>
<linearGradient id="SVGID_1_" gradientUnits="userSpaceOnUse" x1="748.0701" y1="576.6572" x2="807.498" y2="576.6572" gradientTransform="matrix(1 0 0 1 -741.9199 -562.1992)">
	<stop  offset="0" style="stop-color:#5782CE"/>
	<stop  offset="0.9898" style="stop-color:#5CAEFF"/>
</linearGradient>
<linearGradient id="SVGID_2_" gradientUnits="userSpaceOnUse" x1="371.5095" y1="-261.0576" x2="438.8113" y2="-261.0576" gradientTransform="matrix(1 0 0 -1 -370.96 -246.5996)">
	<stop  offset="0" style="stop-color:#86D4F7"/>
	<stop  offset="1" style="stop-color:#DEF6FF"/>
</linearGradient>
<path fill="url(#SVGID_1_)" stroke="url(#SVGID_2_)" stroke-width="0.75" stroke-miterlimit="10" d="M46.178,17.169
	c-0.396,0.197-0.69,0.395-0.889,0.592s-0.197,0.592-0.197,1.086c0,0.689,0,1.182,0,1.676h1.578v0.789l0.296,0.098
	c0.197,0.102,0.297,0.102,0.396,0.197c0.196,0.197,0.394,0.395,0.688,0.395c0.493,0.198,1.088,0,1.777-0.395
	c0.688-0.494,0.885-1.084,0.591-1.973c-0.196-0.689-0.689-1.184-1.28-1.479c-0.197-0.1-0.396-0.297-0.595-0.69l-0.296-0.493
	c-0.197,0-0.392,0-0.591,0C47.065,16.972,46.573,17.071,46.178,17.169z M35.334,20.324c0.393-0.396,0.69-0.888,0.69-1.281
	c0-0.493-0.103-0.888-0.396-1.381l-0.296-0.591h-5.521c-0.688,0.689-1.181,1.183-1.577,1.479c-0.197,0.197-0.295,0.395-0.197,0.69
	c0,0.196,0,0.394,0.099,0.887c0,0.888,0.297,1.578,0.789,1.972c0.592,0.493,1.185,0.69,1.774,0.69
	c0.198-0.099,0.789-0.296,1.774-0.69c0.789-0.394,1.479-0.689,1.875-0.887C34.643,20.817,35.038,20.521,35.334,20.324z M55.15,8.986
	c0.102-0.099-0.099-0.198-0.295-0.493c-3.155,0-5.128,0-6.113,0c-0.591,0-1.677-0.099-3.155-0.197l-2.168-0.098v1.281h11.438
	c0-0.099,0-0.099,0-0.197C55.052,9.184,55.052,9.085,55.15,8.986z M56.531,8.395c-0.102,0-0.197,0-0.396,0h-0.196v0.789h0.296
	c0.194,0.098,0.296,0.197,0.296,0.394c0,0.197-0.102,0.395-0.197,0.493l-0.196,0.197l0.196,1.972h0.493V8.789
	c0-0.197,0-0.295,0-0.295C56.728,8.493,56.63,8.395,56.531,8.395z M67.277,15.297c-0.099,0.196-0.296,0.295-0.591,0.295h-5.521
	l-0.197-0.196c-0.101,0-0.101,0.099-0.196,0.099c-0.197,0.099-0.197,0.099-0.197,0.196c0,0,0.197,0.197,0.493,0.593
	c0.295,0.394,0.492,0.791,0.395,0.985c-0.102,0.297-0.196,1.183-0.296,2.564c-0.101,1.379-0.197,2.169-0.197,2.365
	c0,0.195-0.101,0.297-0.196,0.297c-0.1,0.1-0.197,0.1-0.396,0.1H58.01c-0.101,0-0.196-0.1-0.295-0.297
	c-0.102-0.195-0.196-0.492-0.196-0.886c0-0.493,0-0.888,0-1.282c-0.101-0.496-0.101-0.792-0.198-0.89
	c-0.098-0.103-0.492-0.197-1.183-0.197c-0.69-0.101-1.185,0-1.281,0.099c-0.198,0.196-0.296,0.295-0.396,0.396
	c-0.193,0.196-0.295,0.394-0.295,0.491c0,0.099-0.099,0.789-0.198,2.171c-0.295,1.479-0.887,2.563-1.675,3.45
	c-0.888,0.887-2.169,1.479-4.043,1.873c-1.378,0.295-2.563,0.295-3.45,0.197c-0.492-0.1-0.886-0.197-0.985-0.297
	c-0.1,0-0.1-0.099,0-0.395c0.689-2.268,0.985-3.451,0.888-3.648c0.099-0.098,0.099-0.295,0-0.295
	c-0.102-0.1-0.296-0.197-0.395-0.197c-0.197,0-0.593,0-1.282,0c-0.396,0-0.788,0-1.184,0c-0.099,0-0.196,0.102-0.196,0.197
	c-0.1,0.197-0.196,0.295-0.196,0.395c-0.102,0.099-0.396,0.395-0.986,0.789c-0.689,0.592-1.381,1.084-2.169,1.479
	c-2.268,1.381-4.239,2.169-5.817,2.169c-1.479,0-3.155-0.101-4.93-0.196l-2.169-0.197v-1.281c-3.253-1.381-5.126-2.07-5.619-2.07
	c-0.298,0-0.594,0-0.888,0h-0.395l-0.296,0.295c-0.197,0.395-0.493,0.493-0.69,0.493H1.91c-0.197,0-0.493-0.196-0.591-0.493
	c-0.102-0.295-0.197-0.592-0.197-0.984v-6.705c0-1.381,0-2.958-0.098-4.633c-0.1-1.38-0.1-2.07-0.1-2.07
	C1.026,9.58,1.122,9.284,1.32,9.284h20.31c0.102,0,0.493-0.098,1.087-0.197c0.592-0.099,0.986-0.198,1.281-0.198h14.494V7.211
	c0-0.099,0.194-0.591,0.591-1.479c0.396-0.986,0.69-1.479,0.69-1.676c0-0.198,0.197-0.296,0.493-0.493
	c0.196-0.099,0.295-0.099,0.492-0.197c0-0.197,0-0.493,0.099-0.69c0.1-0.493,0.1-0.789,0.196-0.887C41.449,1.296,41.743,1,41.941,1
	c0.296,0,0.493,0.099,0.592,0.395c0.098,0.197,0.098,0.395,0.197,0.69c0.098,0.198,0.098,0.592,0,1.184h-0.102
	c-0.098,0.098-0.098,0.098-0.098,0.295V4.55h11.436l1.479-0.887c0,0,0.197-0.099,0.197-0.197v-0.69h-0.197V1.789l0.099-0.197
	l0.396-0.296l0.888-0.099c0.098,0,0.098,0.099,0.197,0.197c0,0.099,0,0.197,0,0.395v1.774l0.197,0.592
	c0.195,0.394,0.296,0.591,0.394,0.591c0.102,0,0.493,0,1.087,0c1.575,1.775,2.364,2.662,2.463,2.761
	C61.36,7.704,61.462,8,61.462,8.296v4.338h5.521l0.197,0.197c0.196,0.197,0.296,0.592,0.296,1.084
	C67.474,14.606,67.376,15.099,67.277,15.297z"/>
<g>
	<g>
		<defs>
			<path id="SVGID_3_" d="M46.178,17.169c-0.396,0.197-0.69,0.395-0.889,0.592s-0.197,0.592-0.197,1.086c0,0.689,0,1.182,0,1.676
				h1.578v0.789l0.296,0.098c0.197,0.102,0.297,0.102,0.396,0.197c0.196,0.197,0.394,0.395,0.688,0.395
				c0.493,0.198,1.088,0,1.777-0.395c0.688-0.494,0.885-1.084,0.591-1.973c-0.196-0.689-0.689-1.184-1.28-1.479
				c-0.197-0.1-0.396-0.297-0.595-0.69l-0.296-0.493c-0.197,0-0.392,0-0.591,0C47.065,16.972,46.573,17.071,46.178,17.169z
				 M35.334,20.324c0.393-0.396,0.69-0.888,0.69-1.281c0-0.493-0.103-0.888-0.396-1.381l-0.296-0.591h-5.521
				c-0.688,0.689-1.181,1.183-1.577,1.479c-0.197,0.197-0.295,0.395-0.197,0.69c0,0.196,0,0.394,0.099,0.887
				c0,0.888,0.297,1.578,0.789,1.972c0.592,0.493,1.185,0.69,1.774,0.69c0.198-0.099,0.789-0.296,1.774-0.69
				c0.789-0.394,1.479-0.689,1.875-0.887C34.643,20.817,35.038,20.521,35.334,20.324z M55.15,8.986
				c0.102-0.099-0.099-0.198-0.295-0.493c-3.155,0-5.128,0-6.113,0c-0.591,0-1.677-0.099-3.155-0.197l-2.168-0.098v1.281h11.438
				c0-0.099,0-0.099,0-0.197C55.052,9.184,55.052,9.085,55.15,8.986z M56.531,8.395c-0.102,0-0.197,0-0.396,0h-0.196v0.789h0.296
				c0.194,0.098,0.296,0.197,0.296,0.394c0,0.197-0.102,0.395-0.197,0.493l-0.196,0.197l0.196,1.972h0.493V8.789
				c0-0.197,0-0.295,0-0.295C56.728,8.493,56.63,8.395,56.531,8.395z M67.277,15.297c-0.099,0.196-0.296,0.295-0.591,0.295h-5.521
				l-0.197-0.196c-0.101,0-0.101,0.099-0.196,0.099c-0.197,0.099-0.197,0.099-0.197,0.196c0,0,0.197,0.197,0.493,0.593
				c0.295,0.394,0.492,0.791,0.395,0.985c-0.102,0.297-0.196,1.183-0.296,2.564c-0.101,1.379-0.197,2.169-0.197,2.365
				c0,0.195-0.101,0.297-0.196,0.297c-0.1,0.1-0.197,0.1-0.396,0.1H58.01c-0.101,0-0.196-0.1-0.295-0.297
				c-0.102-0.195-0.196-0.492-0.196-0.886c0-0.493,0-0.888,0-1.282c-0.101-0.496-0.101-0.792-0.198-0.89
				c-0.098-0.103-0.492-0.197-1.183-0.197c-0.69-0.101-1.185,0-1.281,0.099c-0.198,0.196-0.296,0.295-0.396,0.396
				c-0.193,0.196-0.295,0.394-0.295,0.491c0,0.099-0.099,0.789-0.198,2.171c-0.295,1.479-0.887,2.563-1.675,3.45
				c-0.888,0.887-2.169,1.479-4.043,1.873c-1.378,0.295-2.563,0.295-3.45,0.197c-0.492-0.1-0.886-0.197-0.985-0.297
				c-0.1,0-0.1-0.099,0-0.395c0.689-2.268,0.985-3.451,0.888-3.648c0.099-0.098,0.099-0.295,0-0.295
				c-0.102-0.1-0.296-0.197-0.395-0.197c-0.197,0-0.593,0-1.282,0c-0.396,0-0.788,0-1.184,0c-0.099,0-0.196,0.102-0.196,0.197
				c-0.1,0.197-0.196,0.295-0.196,0.395c-0.102,0.099-0.396,0.395-0.986,0.789c-0.689,0.592-1.381,1.084-2.169,1.479
				c-2.268,1.381-4.239,2.169-5.817,2.169c-1.479,0-3.155-0.101-4.93-0.196l-2.169-0.197v-1.281c-3.253-1.381-5.126-2.07-5.619-2.07
				c-0.298,0-0.594,0-0.888,0h-0.395l-0.296,0.295c-0.197,0.395-0.493,0.493-0.69,0.493H1.91c-0.197,0-0.493-0.196-0.591-0.493
				c-0.102-0.295-0.197-0.592-0.197-0.984v-6.705c0-1.381,0-2.958-0.098-4.633c-0.1-1.38-0.1-2.07-0.1-2.07
				C1.026,9.58,1.122,9.284,1.32,9.284h20.31c0.102,0,0.493-0.098,1.087-0.197c0.592-0.099,0.986-0.198,1.281-0.198h14.494V7.211
				c0-0.099,0.194-0.591,0.591-1.479c0.396-0.986,0.69-1.479,0.69-1.676c0-0.198,0.197-0.296,0.493-0.493
				c0.196-0.099,0.295-0.099,0.492-0.197c0-0.197,0-0.493,0.099-0.69c0.1-0.493,0.1-0.789,0.196-0.887
				C41.449,1.296,41.743,1,41.941,1c0.296,0,0.493,0.099,0.592,0.395c0.098,0.197,0.098,0.395,0.197,0.69
				c0.098,0.198,0.098,0.592,0,1.184h-0.102c-0.098,0.098-0.098,0.098-0.098,0.295V4.55h11.436l1.479-0.887
				c0,0,0.197-0.099,0.197-0.197v-0.69h-0.197V1.789l0.099-0.197l0.396-0.296l0.888-0.099c0.098,0,0.098,0.099,0.197,0.197
				c0,0.099,0,0.197,0,0.395v1.774l0.197,0.592c0.195,0.394,0.296,0.591,0.394,0.591c0.102,0,0.493,0,1.087,0
				c1.575,1.775,2.364,2.662,2.463,2.761C61.36,7.704,61.462,8,61.462,8.296v4.338h5.521l0.197,0.197
				c0.196,0.197,0.296,0.592,0.296,1.084C67.474,14.606,67.376,15.099,67.277,15.297z"/>
		</defs>
		<clipPath id="SVGID_4_">
			<use xlink:href="#SVGID_3_"  overflow="visible"/>
		</clipPath>
		<g clip-path="url(#SVGID_4_)">
			<polygon display="none" fill="#148193" points="46.089,31.142 38.615,33.696 32.176,10.169 38.688,13.847 41.477,13.103 			"/>
			<polygon display="none" fill="#E08300" stroke="#DDBE26" stroke-miterlimit="10" points="34.48,19.444 45.477,15.474 
				47.014,20.46 36.017,24.431 			"/>
			<polygon display="none" fill="#E08300" stroke="#DDBE26" stroke-miterlimit="10" points="35.933,27.039 46.931,23.067 
				48.467,28.056 37.469,32.026 			"/>
			
				<linearGradient id="SVGID_5_" gradientUnits="userSpaceOnUse" x1="739.4958" y1="577.0527" x2="788.7312" y2="577.0527" gradientTransform="matrix(1 0 0 1 -741.9199 -562.1992)">
				<stop  offset="5.581969e-004" style="stop-color:#FF9500"/>
				<stop  offset="1" style="stop-color:#EFB941"/>
			</linearGradient>
			<path fill="url(#SVGID_5_)" d="M-2.262,9.504h16.256l5.748-0.444l0.438-4.278l9.552-1.938l5.309,0.404
				c0,0,10.306,2.15,11.771,4.565c0,0-2.432,1.483-3.31,3.739c-0.875,2.254-2.127,3.843-4.132,4.298
				c-2.007,0.455-3.663-1.937-5.414-0.832s-4.47,3.42-5.704,4.373c-1.233,0.955-4.371,3.012-5.425,4.645
				c-1.055,1.641-2.453,3.361-3.761,2.667c-1.309-0.695-3.046-1.894-3.046-1.894l-6.005,0.168l-5.798,0.123l-5.69,0.981
				l-0.951-1.449L-2.262,9.504z"/>
			<path fill="#300093" d="M3.543,13.809c0,0-5.089,0.059-5.604,4.684c-0.666,5.959,5.307,3.793,5.307,3.793
				S1.059,18.319,3.543,13.809z"/>
			<path fill="#5D29FF" d="M3.885,21.865l3.893-1.249c0,0-1.325-3.121,1.748-5.145c2.526-1.664,5.42,0.452,5.42,0.452l2.101-2.844
				c0,0-7.104-4.405-11.964,0.212C1.631,16.567,3.885,21.865,3.885,21.865z"/>
			<path fill="#4383FF" d="M20.553,10.796c0,0-2.518,1.29-3.509,1.29c-0.99,0,1.032,0.807,1.032,0.807l-2.254,3.038l0.851,2.024
				l5.444,0.196l0.219-8.104L20.553,10.796z"/>
			<path fill="#8600EE" d="M30.259,9.524c0,0-2.26-1.433-4.935,0.121c-2.676,1.553-2.987,7.551,1.669,8.102
				c3.997,0.473,4.786-4.765,2.506-5.492c-2.278-0.726-2.407,1.76-2.148,2.023h-0.615c0,0-0.923-3.028,2.214-2.998
				c3.122,0.03,2.383,4.25,2.383,4.25s1.496-2.644,3.382-2.493c2.136,0.172,1.75,1.238,3.123,1.528
				c1.428,0.304,3.492,0.258,4.146-2.966c0.354-1.744,2.544-2.921,2.544-2.921s-2.767-1.015-4.356,1.407
				c-1.452,2.211-2.508,0.794-3.356-0.196c-1.25-1.453-2.69-1.907-4.949-1.469C31.13,8.562,30.259,9.524,30.259,9.524z"/>
			<ellipse fill="#00A625" cx="11.917" cy="19.27" rx="3.732" ry="3.798"/>
			<path fill="#A20063" d="M34.9,5.747c0,0,1.394-0.583,4.262,0.158c2.868,0.743,4.146,1.771,4.146,1.771s-2.689-0.09-3.343,1.211
				c-0.657,1.302-1.279,1.362-1.902,1.062c-0.627-0.303-1.354-1.848-3.36-2.136c-1.811-0.258,0.104-1.56,0.104-1.56L34.9,5.747z"/>
			<path fill="#F58800" d="M21.415,6.466c0.044,0.015,1.695,3.922,1.695,3.922l3.565-2.044l-0.758-3.299L21.415,6.466z"/>
			<polygon fill="#5CFF16" points="26.32,5.044 27.242,8.258 29.857,8.677 30.05,4.59 			"/>
			<path fill="#646BFF" d="M34.479,4.786c0,0-1.174,2.468-1.188,2.928c0,0-2.188-0.168-2.884,0.689l0.09-3.996L34.479,4.786z"/>
		</g>
	</g>
</g>
<g>
	<path fill="#F3FFFE" d="M36.858,25.335l-1.235,2.661h-2.566l5.892-11.689H41.8l1.711,11.689h-2.472l-0.286-2.661H36.858z
		 M39.994,18.777l-1.995,4.276h2.471L39.994,18.777z"/>
	<path fill="#F3FFFE" d="M47.121,27.996c-0.664,0-1.234-0.191-1.614-0.666c-0.378-0.476-0.476-1.045-0.378-1.71l1.328-7.223
		c0.098-0.665,0.38-1.235,0.95-1.615c0.476-0.38,1.048-0.57,1.805-0.57h3.802c0.665,0,1.235,0.19,1.615,0.665
		c0.379,0.476,0.476,1.046,0.379,1.711l-0.287,1.806h-2.47l0.284-1.521c0-0.19,0-0.285,0-0.38c-0.096-0.096-0.189-0.096-0.378-0.096
		h-2.565c-0.38,0-0.664,0.19-0.761,0.666l-1.14,6.271c0,0.189,0,0.285,0,0.38c0.096,0.095,0.189,0.095,0.38,0.095h2.564
		c0.38,0,0.666-0.189,0.761-0.664l0.189-1.331h2.472l-0.476,1.997c-0.096,0.665-0.377,1.236-0.95,1.616
		c-0.475,0.377-1.046,0.57-1.804,0.57L47.121,27.996L47.121,27.996z"/>
	<path fill="#F3FFFE" d="M65.082,16.307l-0.38,2.187h-5.416l-0.476,2.376h4.373l-0.379,2.185h-4.372l-0.476,2.661h5.416l-0.38,2.188
		h-7.79l2.089-11.594L65.082,16.307L65.082,16.307z"/>
</g>
</svg>
