<?xml version="1.0" encoding="utf-8"?>
<!-- Generator: Adobe Illustrator 16.0.0, SVG Export Plug-In . SVG Version: 6.00 Build 0)  -->
<!DOCTYPE svg PUBLIC "-//W3C//DTD SVG 1.0//EN" "http://www.w3.org/TR/2001/REC-SVG-20010904/DTD/svg10.dtd">
<svg version="1.0" id="图层_1" xmlns="http://www.w3.org/2000/svg" xmlns:xlink="http://www.w3.org/1999/xlink" x="0px" y="0px"
	 width="52.5px" height="32px" viewBox="0 0 52.5 32" enable-background="new 0 0 52.5 32" xml:space="preserve">
<g id="Selected_Items">
	<g>
		<g id="Selected_Items_42_">
			<linearGradient id="SVGID_1_" gradientUnits="userSpaceOnUse" x1="0.3491" y1="16.1289" x2="52.2715" y2="16.1289">
				<stop  offset="2.300000e-007" style="stop-color:#F8D27E"/>
				<stop  offset="1" style="stop-color:#B3751F"/>
			</linearGradient>
			<path fill="url(#SVGID_1_)" d="M52.3,6.9l-0.5,1.3v2.5h-2.5v-0.3h-0.6v0.4h-3.9v-0.4l-3.9,0l-0.7,0.3h-5.9c-0.2,0-0.4,0-0.6,0.1
				c-0.5,0.1-0.8,0.2-1,0.4l0,0c-0.4,0.3-0.6,0.5-0.6,0.5c-0.2,0.3-0.3,0.6-0.4,0.9c0,0.3,0,0.8,0,1.5c0,0.3,0,0.7,0,1
				c-0.4,0-0.9,0-1.3,0h0c-0.4,0-0.8,0-1.1,0c-0.3,0-0.6,0-0.8,0.1c-0.4,0.1-0.7,0.2-0.9,0.4c-0.1,0.1-0.2,0.3-0.4,0.5
				c-0.1,0.1-0.1,0.1-0.1,0.2c-0.1,0.2-0.2,0.6-0.3,1c-0.1,0.5-0.1,0.8-0.2,0.9c-0.2,0.4-0.4,0.8-0.6,1c-0.5,0.5-1.1,0.9-1.8,1.1
				c-0.1,0-0.1,0.1-0.2,0.1c-0.8,0.2-1.5,0.4-2.2,0.5c-0.7,0.1-1.3,0.1-1.8,0c-0.1,0-0.3,0-0.4-0.1c-0.3-0.1-0.6-0.3-0.9-0.5
				c-0.1-0.1-0.2-0.2-0.4-0.4L18,19.7l-0.3,0.3c-0.2,0-0.3-0.1-0.5-0.1c-0.2,0-0.4-0.1-0.6-0.1c-0.2,0-0.3,0-0.5,0
				c-0.4-0.1-0.7-0.1-1-0.1c-0.6-0.1-1,0-1.2,0c-0.4,0.2-0.7,0.4-1,0.6c-0.3,0.3-0.4,0.6-0.5,0.9c0,0.5,0.1,0.9,0.4,1.2
				c0.1,0.1,0.1,0.3,0.3,0.4c0.1,0.1,0.1,0.2,0,0.3c0,0.1-0.1,0.2-0.2,0.3c-0.1,0.1-0.2,0.2-0.4,0.3c-0.3,0.3-0.5,0.6-0.5,1
				c-0.1,0.5,0,0.9,0.3,1.3l0.2,0.4c0.1,0.1,0.1,0.2,0,0.4c0,0.1-0.1,0.2-0.2,0.3c-0.1,0.1-0.2,0.1-0.5,0.2
				c-0.4,0.2-0.7,0.4-0.9,0.6c-0.1,0.2-0.3,0.5-0.4,0.8c-0.1,0.3-0.2,0.5-0.4,0.7c-0.3,0.2-1,0.4-2.1,0.6c-1.2,0.2-2.2,0.3-3,0.2
				c-1.2-0.1-2.2-0.2-3-0.4c-1.2-0.3-1.8-0.7-1.9-1.3c-0.1-0.2,0-0.5,0.2-0.9c0.1-0.1,0.1-0.1,0.1-0.2C0.8,27.2,1,27,1.1,26.8
				c0.2-0.3,0.3-0.6,0.4-0.9c0.1-0.3,0.3-0.7,0.5-1.3c0.3-0.7,0.5-1.3,0.6-1.7c0.5-1.5,1-2.6,1.4-3.4c0.4-0.8,1.1-1.9,2.1-3.4
				c1-1.5,1.7-2.5,2-3c0.2-0.3,0.4-0.7,0.5-1c0-0.2,0-0.5,0-0.9c0-0.4,0-0.7,0-0.8c0-0.3,0.1-0.5,0.2-0.8C8.8,9.4,9.3,9.2,10.1,9
				c0.3-0.1,0.6-0.1,0.9-0.1h0.3c0.1-0.1,0.3-0.2,0.4-0.4C12,8.3,12.3,8.1,12.6,8c0.2-0.1,0.5-0.2,0.9-0.3l0.5-0.1L13.6,7
				c-0.2-0.4-0.5-0.7-0.8-0.9c-0.3-0.2-0.7-0.3-1.1-0.3c-0.1,0-0.1,0-0.2,0c-0.3,0-0.6,0-0.8,0l0-0.2c0.3,0,0.6,0,0.9,0
				c0.7-0.1,1.1-0.1,1.4,0c0.2,0.1,0.5,0.2,0.9,0.5c0,0,0.1,0,0.1,0c0.3,0.2,0.5,0.3,0.6,0.3c0.2,0,0.4-0.2,0.7-0.7
				c0.2-0.2,0.3-0.4,0.5-0.6l1,0l0.4-1L17,4c-0.1,0-0.1-0.1-0.1-0.1c-0.2-0.2-0.2-0.4-0.1-0.6c0.1-0.2,0.2-0.3,0.3-0.3
				c0,0,0.1,0,0.1,0c0.1,0,0.2,0,0.2,0l0.1-0.5L18,2.5l0,0.4h1.6L20,3.2h2.4V2.6L23.1,2l0.9,0v0.5h0.8V2.1h1v0.5h0.8V2h1v0.5h0.9V2
				h0.8v0.5h1V2.1H31v0.5h0.9V2h0.9v0.5h0.9V2h0.9v0.5h0.9V2h0.8v0.5h0.9V2.1H38v0.4h0.9V2.1h0.6L40,2.2c0.3,0.1,0.6,0.2,0.9,0.3
				c0.4,0.2,0.9,0.4,1.6,0.8h5.3V2.5h2.6l0.2,0c0.1,0,0.3,0.1,0.4,0.2C51,2.9,51,3,51,3.2l0,0.2l1.3,1L52.3,6.9L52.3,6.9z
				 M22.5,14.6l0.3,0.2c-0.1,0.3-0.2,0.5-0.4,0.7c-0.1,0.1-0.2,0.3-0.3,0.5c0,0-0.1,0-0.1,0c-0.2,0.2-0.4,0.5-0.5,0.6
				c-0.1,0.3-0.1,0.6,0,0.9c0.1,0.3,0.2,0.5,0.5,0.8c0.2,0.2,0.6,0.5,1,0.7c0.2,0.1,0.3,0.2,0.5,0.3l-0.1,0.3
				c-0.2-0.1-0.5-0.1-0.8-0.3c-0.5-0.2-1-0.5-1.4-0.9c-0.2-0.3-0.4-0.7-0.6-1.1l-0.2-0.7l0.2-0.2l0-0.5c-0.1,0-0.3,0-0.4,0
				c-0.4,0-0.6-0.1-0.8-0.1c-0.2-0.1-0.3-0.2-0.5-0.4l-0.2-0.2l-0.2,0.1c-0.1,0.1-0.2,0.3-0.3,0.5c-0.3,0.5-0.5,0.9-0.5,1.3
				c0,0.1,0,0.1,0,0.2c0,0.4,0.1,0.8,0.2,1.2c0.1,0.5,0.3,0.8,0.5,1c0.2,0.2,0.5,0.4,0.8,0.5c0.4,0.2,0.8,0.2,1.4,0.3
				c0.5,0,1.2,0,1.9-0.1c0.4-0.1,0.7-0.2,1-0.2c0.1-0.1,0.3-0.1,0.4-0.1c0.1-0.1,0.3-0.1,0.5-0.2c0.2-0.1,0.4-0.2,0.6-0.4
				c0.5-0.4,0.8-0.7,0.9-0.9c0.2-0.3,0.2-0.6,0.3-0.9c0.1-0.3,0.1-0.7,0-1.1v0c0-0.4-0.2-0.7-0.6-1c-0.2-0.2-0.6-0.4-1-0.7
				c-0.3-0.2-0.8-0.2-1.4-0.2h-0.8L22.5,14.6z"/>
		</g>
	</g>
</g>
<g id="guides">
</g>
<linearGradient id="SVGID_2_" gradientUnits="userSpaceOnUse" x1="-181.2651" y1="-316.999" x2="-175.5044" y2="-316.999" gradientTransform="matrix(6.6522 0 0 6.6522 1206.3661 2124.1409)">
	<stop  offset="2.300000e-007" style="stop-color:#EDF3CB"/>
	<stop  offset="1" style="stop-color:#F8D27E"/>
</linearGradient>
<path opacity="0.5" fill="url(#SVGID_2_)" enable-background="new    " d="M0.6,27.7c0,0,2.2-3.9,5-5.7c2-1.2,5.8-0.9,9.3-4.6
	c0,0-5.2,2.4-7.7,0.6c0,0,9.1-0.2,11.9-5c0,0-6.2,3-8.3-0.2c0,0,6-0.5,8.3-2c3.7-1.5,9.8-3.2,11.8-0.9c0,0-3.4-4-11.1-2
	c0,0,10.6-5.5,19.3-1c0,0-4.5-5.8-15.3-3.3h-4.8l-0.2-0.6l-1.8,2.1l-0.9,0l-1.2,1.4l-2-1.2l-1.8,0.3L13.1,6l1.1,1.8l-2.9,1.3
	L8.8,9.8l-0.3,2.8l-4.6,7L0.6,27.7z"/>
<path opacity="0.7" fill="#7A4621" d="M30.4,12.4c0,0-3.4,0.7-6,5.1c0,0,2.3,1.2,1.5,2c-0.8,0.8-4.2-0.3-10.2,6.6
	c0,0,2.5-1.3,5.8-1.6c3.3-0.3-0.9,2.3-1.8,2.9c0,0,6.1-3.6,7.9-3.3c1.7,0.3-6.1,5.5-9.5,7.4c0,0,10.3-4,11.5-3.7
	c1.2,0.2-0.6,2.4-3.5,3.7c0,0,5.9,0,9.8-2.1c3.9-2.1,4.7-2.4,4.7-1.2c0,0,3.4-2.5,2.5-3.5c-1-0.9,2.6-2.1,5.1-4.2
	c2.5-2.1,3.4-3.5,3.4-3.5s-5.9,3-7.7,3.2c-1.8,0.2,1.2-2.9,4.4-4.5c3.2-1.6,4.2-4.7,4.2-4.7s-4.4,0.2-10,3.5
	c-5.7,3.3-6.3,4.4-5.8,2.4c0.4-2,5.6-4.9,5.6-4.9s-7.2,0.2-10.6,3.2c-3.3,3-2.4-0.7-1.6-1.4S30.4,12.4,30.4,12.4z"/>
<g>
	<path fill="#FBF1C8" d="M21.6,25l-1.3,2.8h-2.7l6.2-12.2h3l1.8,12.2h-2.6L25.6,25H21.6z M24.8,18.2l-2.1,4.5h2.6L24.8,18.2z"/>
	<path fill="#FBF1C8" d="M32.4,27.8c-0.7,0-1.3-0.2-1.7-0.7c-0.4-0.5-0.5-1.1-0.4-1.8l1.4-7.5c0.1-0.7,0.4-1.3,1-1.7
		c0.5-0.4,1.1-0.6,1.9-0.6h4c0.7,0,1.3,0.2,1.7,0.7c0.4,0.5,0.5,1.1,0.4,1.8l-0.3,1.9h-2.5l0.3-1.6c0-0.2,0-0.3,0-0.4
		c-0.1-0.1-0.2-0.1-0.4-0.1h-2.7c-0.4,0-0.7,0.2-0.8,0.7L32.9,25c0,0.2,0,0.3,0,0.4c0.1,0.1,0.2,0.1,0.4,0.1H36
		c0.4,0,0.7-0.2,0.8-0.7l0.2-1.4h2.5l-0.4,2.1c-0.1,0.7-0.4,1.3-1,1.7c-0.5,0.4-1.1,0.6-1.9,0.6H32.4z"/>
	<path fill="#FBF1C8" d="M51.2,15.5l-0.4,2.3h-5.6l-0.5,2.5h4.6l-0.4,2.3h-4.6l-0.5,2.8h5.6L49,27.8h-8.2L43,15.5H51.2z"/>
</g>
</svg>
