<?xml version="1.0" encoding="utf-8"?>
<!-- Generator: Adobe Illustrator 16.0.0, SVG Export Plug-In . SVG Version: 6.00 Build 0)  -->
<!DOCTYPE svg PUBLIC "-//W3C//DTD SVG 1.1//EN" "http://www.w3.org/Graphics/SVG/1.1/DTD/svg11.dtd">
<svg version="1.1" id="图层_1" xmlns="http://www.w3.org/2000/svg" xmlns:xlink="http://www.w3.org/1999/xlink" x="0px" y="0px"
	 width="75.833px" height="32px" viewBox="0 0 75.833 32" enable-background="new 0 0 75.833 32" xml:space="preserve">
<rect fill="none" width="75.833" height="32"/>
<g>
	<g>
		<g>
			<g>
				<g>
					
						<linearGradient id="SVGID_1_" gradientUnits="userSpaceOnUse" x1="-872.9375" y1="19.0947" x2="-872.1177" y2="17.9566" gradientTransform="matrix(74.7526 0 0 31.085 65254.6211 -561.6553)">
						<stop  offset="0.2463" style="stop-color:#000000"/>
						<stop  offset="0.5025" style="stop-color:#FFD400"/>
						<stop  offset="0.8177" style="stop-color:#FF0000"/>
					</linearGradient>
					<path fill="url(#SVGID_1_)" d="M37.072,14.253c-0.076,0.051-0.15,0.112-0.226,0.188c-0.174,0.2-0.262,0.45-0.262,0.75
						c0,0.126,0.024,0.375,0.074,0.75c0.025,0.123-0.025,0.199-0.149,0.225c-0.149,0.051-0.399,0.062-0.75,0.037l-0.487-0.037
						c-0.024,0.299-0.087,0.449-0.188,0.449h-0.9c-0.124,0-0.211,0.025-0.26,0.076c-0.077,0.099-0.15,0.174-0.227,0.226
						c-0.174,0.174-0.787,1.298-1.835,3.372c-0.252,0.475-0.277,0.888-0.076,1.238c0.15,0.273,0.35,0.449,0.601,0.522
						c0.5,0.075,1.35,0.075,2.548,0c0.925-0.099,1.638-0.336,2.137-0.711c0.349-0.3,1.574-2.174,3.673-5.624
						c0.125-0.226-0.037-0.712-0.488-1.462H37.072L37.072,14.253z M72.271,8.256c0.075,0.025,0.226,0.037,0.45,0.037
						c0.148,0,0.324-0.075,0.523-0.225h1.838l0.188,0.336c0.102,0.276,0.15,0.563,0.15,0.863c0,0.325-0.049,0.613-0.15,0.863
						c-0.1,0.225-0.188,0.337-0.262,0.337h-1.65c-0.049-0.024-0.162-0.062-0.338-0.112c-0.074-0.026-0.188-0.038-0.336-0.038
						c-0.15,0-0.301,0.024-0.45,0.076l-0.226,0.075h-1.047l-0.151-0.112h-1.649l-0.149-0.15h-0.788
						c-0.051,0.176-0.163,0.263-0.336,0.263h-1.538c-0.101,0-0.2-0.037-0.302-0.112l-0.111-0.075l-10.832,0.262L54.5,11.181h-0.26
						l-0.189-0.225H53.79l-0.148,0.225h-2.249l-0.302,2.288c-0.023,0.25-0.188,0.425-0.485,0.523l0.263,0.263l0.6,0.075
						c0.4,0.076,0.587,0.238,0.563,0.488c-0.15,0.824-0.188,1.437-0.113,1.837c0.051,0.249,0.063,0.823,0.039,1.724
						c0,1.049,0,1.699,0,1.949c0.049,0.775,0.336,1.6,0.86,2.475c0.101,0.176-0.075,0.35-0.524,0.526
						c-0.451,0.174-0.926,0.261-1.424,0.261c-0.425,0-0.975-0.1-1.65-0.299l-0.936-0.264c-0.027-1.101,0.035-2.111,0.186-3.036
						c0.053-0.349,0.227-0.962,0.527-1.836c0.198-0.599,0.262-1.036,0.188-1.313c-0.051-0.3-0.139-0.612-0.262-0.937
						c-0.15-0.326-0.252-0.551-0.301-0.674c-0.074-0.2,0.111-0.426,0.563-0.677c0.227-0.124,0.447-0.237,0.675-0.336
						c-0.899-0.05-1.836-0.1-2.813-0.149c-1.924-0.051-3.01,0-3.26,0.149c-0.727,0.475-1.676,1.538-2.849,3.188
						c-0.274,0.35-1.075,1.55-2.399,3.6c-0.549,0.8-1.074,1.324-1.575,1.574c-0.374,0.176-1.086,0.299-2.137,0.375
						c-0.849,0.049-2.086,0.11-3.71,0.188c-1.4,0.023-2.274,0.037-2.625,0.037c-0.249,0-0.413-0.074-0.488-0.226
						c-0.074-0.149-0.098-0.412-0.074-0.787c0.05-1.075,0.188-1.851,0.412-2.325c0.1-0.226,0.338-0.66,0.712-1.313
						c0.376-0.676,0.638-1.074,0.788-1.199c0.075-0.1,0.325-0.324,0.75-0.674c0.375-0.451,0.563-1,0.563-1.65
						c0-0.724-0.313-1.149-0.938-1.275c-0.273-0.048-0.974-0.024-2.098,0.075c-1.074,0.05-1.837,0.102-2.286,0.15
						c-0.75,0.051-1.174,0.175-1.274,0.375c-0.2,0.3-0.55,0.539-1.051,0.712l-0.075,1.351c0.125,1.375,0.513,3.186,1.163,5.435
						c1,3.549,1.913,5.858,2.737,6.935c0.349,0.449,0.311,0.786-0.113,1.014c-0.25,0.1-1.162,0.424-2.737,0.974
						c-1.599,0.574-2.523,0.899-2.773,0.976c-0.3,0.074-0.425-0.377-0.375-1.352c-0.224-0.424-0.511-1.036-0.86-1.836
						c-0.625-1.65-1.176-3.438-1.65-5.359c-0.45-1.926-0.775-3.775-0.975-5.549l-0.149-2.062c-0.55-0.199-0.924-0.213-1.126-0.038
						l-1.686,1.351c-0.074,0.074-0.2,0-0.375-0.225c-0.175-0.2-0.287-0.289-0.337-0.262c-0.6,0.224-1.5,0.737-2.699,1.537
						c-1.375,0.977-2.137,1.726-2.288,2.25L8.92,21.075l0.413,0.45c0.274,0.324,0.413,0.539,0.413,0.638
						c0,0.323-0.101,0.576-0.301,0.75c-0.174,0.175-0.425,0.262-0.749,0.262H4.31c-0.276,0-0.55-0.112-0.824-0.337
						c-0.325-0.3-0.575-0.699-0.75-1.199c-0.2-0.648-0.587-2.263-1.163-4.836c-0.574-2.699-0.875-4.348-0.898-4.949
						c-0.025-0.625,0.012-1.074,0.112-1.349c0.075-0.199,0.238-0.437,0.488-0.711c0.25-0.275,0.649-0.6,1.199-0.975
						c0.601-0.401,1.063-0.6,1.386-0.6l23.579-0.487V7.468l0.601-0.45c0.424-0.3,0.725-0.5,0.899-0.599
						c0.274-0.125,0.624-0.188,1.05-0.188l1.423,0.037v-1.91H30.85c0.025,0.274-0.163,0.411-0.562,0.411
						c-0.226,0-0.375-0.062-0.45-0.187l-0.075-0.224h-1.312l-0.188,0.187h-0.449c-0.226-0.325-0.337-0.874-0.337-1.649
						c0-0.751,0.1-1.162,0.299-1.238h0.337l0.225,0.15l1.275-0.037l0.074-0.263c0.075-0.149,0.25-0.225,0.524-0.225
						c0.327,0,0.487,0.15,0.487,0.451l0.375-0.039V1.059l0.712-0.113c0.225,0,0.488,0.025,0.788,0.076V1.47l2.961-0.411
						c2.049-0.274,3.237-0.412,3.56-0.412h1.162l0.523,0.412h0.526V0.833h0.411v0.151h0.75v3.674l-0.75,0.037v0.151h-0.375V4.619
						H39.47l0.3,0.45h0.486c0.351,0.051,0.537,0.138,0.563,0.261l0.15,0.713h1.236v-0.15h0.563v0.15h1.273v-0.15h0.563v0.15h1.272
						v-0.15h0.527v0.15h1.311v-0.15h0.525v0.15h1.313v-0.15h0.523v0.15h1.012l2.662,1.312v0.863l0.676,0.374h11.619l0.188-0.112
						c0.125-0.125,0.224-0.188,0.302-0.188h1.385l0.338,0.299h0.675l0.337-0.188c0.277-0.024,0.766,0,1.463,0.076l0.038-0.148
						c0.075-0.101,0.176-0.151,0.301-0.151h0.937C72.108,8.181,72.196,8.206,72.271,8.256z"/>
				</g>
			</g>
		</g>
	</g>
</g>
<linearGradient id="SVGID_2_" gradientUnits="userSpaceOnUse" x1="17.5557" y1="28.082" x2="32.2864" y2="19.5772">
	<stop  offset="0.3505" style="stop-color:#FFE3A0"/>
	<stop  offset="1" style="stop-color:#00FFFF"/>
</linearGradient>
<path fill="url(#SVGID_2_)" d="M28.391,19.734c0.853,1.051,1.65,2.188,2.373,3.414c0.028,0,0.054,0,0.082-0.002
	c-0.278-0.701-0.938-2.299-1.945-4.352C28.66,19.219,28.49,19.531,28.391,19.734z"/>
<linearGradient id="SVGID_3_" gradientUnits="userSpaceOnUse" x1="10.3247" y1="15.5576" x2="25.0554" y2="7.0528">
	<stop  offset="0.3505" style="stop-color:#FFE3A0"/>
	<stop  offset="1" style="stop-color:#00FFFF"/>
</linearGradient>
<path fill="url(#SVGID_3_)" d="M25.83,13.956c0.119-0.013,0.262-0.025,0.424-0.038c-1.204-2.011-2.619-4.112-4.233-6.073
	l-11.85,0.244c2.906,0.869,8.381,2.896,13.423,6.912c0.446-0.17,0.776-0.391,0.962-0.67C24.656,14.131,25.08,14.006,25.83,13.956z"
	/>
<linearGradient id="SVGID_4_" gradientUnits="userSpaceOnUse" x1="24.6392" y1="12.9458" x2="36.5495" y2="6.0694">
	<stop  offset="0.1781" style="stop-color:#FFE3A0"/>
	<stop  offset="1" style="stop-color:#00FFFF"/>
</linearGradient>
<path fill="url(#SVGID_4_)" d="M38.398,14.252h0.329c-1.081-2.66-4.544-9.896-11.059-12.495c-0.125,0.169-0.191,0.542-0.191,1.139
	c0,0.774,0.111,1.323,0.337,1.649h0.449l0.188-0.188h1.312l0.075,0.225c0.075,0.125,0.224,0.187,0.45,0.187
	c0.399,0,0.587-0.138,0.562-0.411h0.562v1.91l-1.423-0.037c-0.426,0-0.776,0.063-1.05,0.188c-0.174,0.1-0.475,0.299-0.899,0.6
	l-0.313,0.234C30.963,8.092,35.196,9.989,38.398,14.252z"/>
<g>
	<g>
		<g>
			<g>
				<g>
					<g>
						<linearGradient id="SVGID_5_" gradientUnits="userSpaceOnUse" x1="70.9077" y1="-2.085" x2="4.3694" y2="25.5842">
							<stop  offset="0" style="stop-color:#BB925B"/>
							<stop  offset="0.3429" style="stop-color:#FFF6DA"/>
							<stop  offset="0.6571" style="stop-color:#FFF1B1"/>
							<stop  offset="1" style="stop-color:#B38B54"/>
						</linearGradient>
						<path fill="url(#SVGID_5_)" d="M39.91,1.647l0.252,0.198c0.176,0.139,0.394,0.214,0.618,0.214h0.526
							c0.055,0,0.108-0.004,0.161-0.013v1.581c-0.041-0.005-0.083-0.008-0.125-0.008H39.47c-0.369,0-0.708,0.203-0.882,0.528
							s-0.154,0.72,0.05,1.027l0.3,0.449c0.186,0.278,0.498,0.445,0.832,0.445h0.183l0.038,0.181
							c0.098,0.462,0.506,0.793,0.979,0.793h1.236c0.098,0,0.192-0.014,0.281-0.04c0.089,0.026,0.184,0.04,0.281,0.04h1.273
							c0.098,0,0.192-0.014,0.281-0.04c0.09,0.026,0.185,0.04,0.282,0.04h1.272c0.091,0,0.18-0.012,0.264-0.035
							c0.084,0.023,0.173,0.035,0.264,0.035h1.311c0.091,0,0.179-0.012,0.263-0.035c0.084,0.022,0.172,0.035,0.263,0.035h1.313
							c0.091,0,0.179-0.012,0.262-0.035c0.083,0.022,0.171,0.035,0.262,0.035h0.778l1.896,0.935v0.24
							c0,0.364,0.197,0.699,0.516,0.875l0.676,0.374c0.148,0.082,0.315,0.125,0.484,0.125h0.372
							c-0.159,0.051-0.304,0.142-0.421,0.265l-0.115,0.122c-0.068-0.015-0.14-0.022-0.211-0.022H53.79
							c-0.233,0-0.456,0.082-0.633,0.226h-1.765c-0.502,0-0.926,0.372-0.991,0.869l-0.271,2.062
							c-0.059,0.031-0.113,0.069-0.164,0.111c-0.018-0.002-0.035-0.003-0.053-0.004c-0.901-0.05-1.839-0.1-2.843-0.15
							c-0.492-0.013-0.932-0.02-1.316-0.02c-1.65,0-2.146,0.109-2.518,0.332c-0.468,0.306-0.991,0.792-1.576,1.461
							c-0.124-0.366-0.326-0.739-0.547-1.105c-0.181-0.3-0.506-0.484-0.856-0.484h-3.185c-0.203,0-0.4,0.062-0.567,0.176
							c-0.131,0.09-0.25,0.19-0.366,0.305c-0.016,0.016-0.032,0.033-0.046,0.05c-0.332,0.38-0.507,0.865-0.508,1.403l-0.236-0.018
							c-0.026-0.002-0.052-0.003-0.077-0.003c-0.344,0-0.653,0.176-0.833,0.449h-0.253c-0.506,0-0.813,0.208-0.98,0.383
							c-0.025,0.026-0.049,0.066-0.071,0.094c-0.051,0.035-0.099,0.075-0.143,0.119c-0.159,0.159-0.377,0.377-2.011,3.609
							c-0.527,0.993-0.323,1.747-0.069,2.189c0.026,0.047,0.052,0.092,0.08,0.135c-0.928,0.016-1.614,0.026-2.061,0.031
							c0.058-1.199,0.222-1.711,0.323-1.925c0.081-0.18,0.305-0.592,0.674-1.235c0.408-0.733,0.562-0.919,0.556-0.919
							c0,0,0,0-0.001,0c0.057-0.047,0.088-0.076,0.133-0.135c0.011-0.012,0.12-0.128,0.612-0.534
							c0.048-0.04,0.093-0.084,0.132-0.132c0.527-0.634,0.795-1.404,0.795-2.29c0-1.191-0.65-2.034-1.769-2.261
							c-0.149-0.026-0.333-0.038-0.577-0.038c-0.406,0-1.004,0.035-1.736,0.101c-1.029,0.047-1.84,0.1-2.307,0.151
							c-0.842,0.057-1.669,0.2-2.052,0.834c-0.044,0.056-0.179,0.183-0.533,0.305c-0.384,0.132-0.65,0.484-0.673,0.891l-0.074,1.352
							c-0.002,0.048-0.002,0.097,0.002,0.145c0.132,1.448,0.523,3.287,1.196,5.616c0.954,3.386,1.832,5.665,2.677,6.945
							c-0.459,0.165-1.182,0.42-2.165,0.764c-0.825,0.297-1.405,0.503-1.813,0.646c0-0.01,0.001-0.02,0.001-0.03
							c0.009-0.181-0.03-0.36-0.115-0.521c-0.215-0.405-0.494-1-0.809-1.722c-0.612-1.616-1.155-3.381-1.612-5.232
							c-0.438-1.874-0.759-3.701-0.951-5.394l-0.149-2.062c-0.029-0.394-0.287-0.734-0.658-0.869
							c-0.408-0.147-0.759-0.219-1.071-0.219c-0.519,0-0.858,0.2-1.02,0.342l-1.081,0.867c-0.178-0.127-0.4-0.228-0.671-0.228
							c-0.121,0-0.251,0.024-0.37,0.068v0c-0.674,0.252-1.624,0.789-2.928,1.658c-1.622,1.152-2.445,2.012-2.667,2.78l-0.267,0.895
							c-0.1,0.337-0.016,0.702,0.222,0.961l0.386,0.42c0.001,0.001,0.002,0.003,0.003,0.004H4.31c-0.011,0-0.069-0.017-0.169-0.094
							c-0.191-0.184-0.346-0.442-0.45-0.738c-0.187-0.605-0.571-2.207-1.141-4.749c-0.699-3.286-0.863-4.413-0.877-4.78
							c-0.028-0.72,0.045-0.943,0.051-0.959c0-0.001,0.049-0.124,0.29-0.388c0.137-0.15,0.426-0.415,1.015-0.817
							C3.633,9.248,3.863,9.22,3.88,9.219l23.579-0.486c0.454-0.01,0.832-0.32,0.945-0.739l0.212-0.16
							c0.442-0.313,0.665-0.456,0.772-0.52c0.106-0.041,0.288-0.083,0.574-0.084l1.424,0.037c0.008,0,0.017,0,0.026,0
							c0.26,0,0.511-0.102,0.698-0.284c0.193-0.188,0.302-0.447,0.302-0.716v-1.91c0-0.552-0.448-1-1-1H30.85
							c-0.195,0-0.383,0.057-0.543,0.161c-0.158-0.103-0.346-0.161-0.543-0.161h-1.268c-0.011-0.128-0.018-0.28-0.018-0.461
							c0-0.032,0-0.063,0-0.091l1.165-0.034c0.199-0.006,0.386-0.07,0.542-0.179c0.155,0.093,0.332,0.142,0.514,0.142
							c0.034,0,0.069-0.002,0.104-0.005l0.375-0.039c0.316-0.033,0.585-0.21,0.744-0.463c0.183,0.158,0.415,0.243,0.653,0.243
							c0.046,0,0.092-0.003,0.138-0.009l2.956-0.411c2.629-0.351,3.277-0.403,3.428-0.403H39.91 M74.409,9.069
							C74.417,9.133,74.42,9.2,74.42,9.268c0,0.071-0.003,0.138-0.01,0.199h-0.875c-0.06-0.02-0.132-0.042-0.221-0.067
							c-0.177-0.057-0.378-0.083-0.631-0.083c-0.265,0-0.526,0.044-0.767,0.127l-0.071,0.024H71.27
							c-0.05-0.026-0.102-0.048-0.155-0.065c0.124-0.051,0.237-0.127,0.331-0.223h0.442c0.021,0.008,0.042,0.017,0.063,0.023
							c0.189,0.064,0.412,0.09,0.771,0.09c0.269,0,0.542-0.075,0.814-0.225H74.409 M67.542,9.292l0.055,0.048
							c0.018,0.016,0.036,0.031,0.056,0.046c-0.037,0.025-0.071,0.053-0.104,0.083h-1.021c0.01-0.005,0.019-0.01,0.028-0.016
							l0.188-0.111c0.023-0.014,0.048-0.031,0.073-0.049H67.542 M50.331,15.099c0.124,0.079,0.265,0.13,0.413,0.148l0.202,0.025
							c-0.083,0.647-0.087,1.166-0.009,1.583c0.009,0.045,0.051,0.325,0.019,1.522v1.949c0,0.021,0.001,0.042,0.002,0.063
							c0.043,0.687,0.237,1.401,0.575,2.128c-0.214,0.048-0.434,0.071-0.665,0.071c-0.225,0-0.645-0.045-1.379-0.262l-0.211-0.059
							c0.011-0.755,0.07-1.466,0.179-2.128c0.025-0.169,0.122-0.609,0.487-1.672c0.258-0.779,0.327-1.364,0.218-1.834
							c-0.062-0.346-0.165-0.711-0.306-1.084c-0.009-0.022-0.018-0.043-0.027-0.065c-0.019-0.04-0.036-0.079-0.054-0.116
							c0.18-0.097,0.334-0.172,0.479-0.235C50.281,15.125,50.306,15.112,50.331,15.099 M40.256,0.647h-1.162
							c-0.323,0-1.512,0.139-3.561,0.412L32.573,1.47V1.022c-0.3-0.051-0.563-0.076-0.787-0.076l-0.713,0.113v0.637l-0.375,0.039
							c0-0.301-0.16-0.451-0.486-0.451c-0.274,0-0.449,0.076-0.524,0.225l-0.074,0.264l-1.274,0.037l-0.226-0.15h-0.337
							c-0.199,0.076-0.299,0.486-0.299,1.238c0,0.774,0.111,1.323,0.337,1.648h0.449l0.188-0.188h1.312l0.075,0.225
							c0.074,0.125,0.224,0.188,0.449,0.188c0.399,0,0.588-0.138,0.563-0.412h0.563v1.91l-1.424-0.037
							c-0.426,0-0.775,0.063-1.05,0.188c-0.174,0.099-0.476,0.299-0.899,0.599l-0.601,0.45v0.265L3.86,8.219
							c-0.322,0-0.785,0.199-1.386,0.6C1.924,9.194,1.525,9.52,1.275,9.794s-0.413,0.513-0.487,0.711
							c-0.101,0.275-0.138,0.724-0.113,1.349c0.023,0.602,0.324,2.25,0.898,4.949c0.576,2.574,0.963,4.188,1.163,4.836
							c0.175,0.5,0.425,0.9,0.75,1.199c0.274,0.225,0.548,0.338,0.824,0.338h4.386c0.324,0,0.575-0.088,0.749-0.262
							c0.2-0.174,0.302-0.428,0.302-0.75c0-0.1-0.14-0.314-0.414-0.639L8.92,21.076l0.267-0.895c0.151-0.523,0.913-1.273,2.288-2.25
							c1.199-0.799,2.1-1.313,2.699-1.537c0.006-0.003,0.012-0.004,0.02-0.004c0.057,0,0.163,0.09,0.317,0.268
							c0.131,0.169,0.235,0.252,0.31,0.252c0.025,0,0.047-0.009,0.065-0.027l1.686-1.351c0.094-0.082,0.226-0.123,0.395-0.123
							c0.194,0,0.438,0.054,0.731,0.16l0.149,2.062c0.2,1.773,0.524,3.623,0.975,5.549c0.474,1.922,1.025,3.709,1.65,5.359
							c0.349,0.801,0.636,1.412,0.86,1.836c-0.047,0.906,0.058,1.359,0.314,1.359c0.02,0,0.04-0.003,0.061-0.008
							c0.25-0.076,1.174-0.4,2.772-0.975c1.575-0.551,2.487-0.875,2.737-0.975c0.424-0.227,0.462-0.564,0.113-1.014
							c-0.824-1.076-1.738-3.385-2.738-6.934c-0.649-2.25-1.037-4.061-1.162-5.435l0.074-1.352c0.502-0.173,0.852-0.412,1.052-0.712
							c0.101-0.2,0.524-0.324,1.274-0.375c0.448-0.048,1.211-0.101,2.285-0.149c0.755-0.067,1.319-0.1,1.69-0.1
							c0.182,0,0.318,0.008,0.407,0.023c0.625,0.127,0.938,0.552,0.938,1.275c0,0.65-0.188,1.199-0.563,1.65
							c-0.424,0.35-0.674,0.574-0.75,0.674c-0.149,0.125-0.411,0.523-0.787,1.199c-0.374,0.652-0.612,1.088-0.713,1.313
							c-0.223,0.475-0.361,1.25-0.411,2.326c-0.024,0.375,0,0.637,0.073,0.787c0.076,0.15,0.24,0.225,0.488,0.225
							c0.352,0,1.225-0.014,2.625-0.037c1.624-0.078,2.861-0.139,3.711-0.188c1.051-0.076,1.762-0.199,2.137-0.375
							c0.5-0.25,1.025-0.775,1.574-1.574c1.324-2.051,2.125-3.25,2.399-3.6c1.173-1.65,2.122-2.712,2.849-3.188
							c0.188-0.112,0.844-0.168,1.97-0.168c0.377,0,0.808,0.006,1.29,0.019c0.978,0.05,1.914,0.1,2.813,0.149
							c-0.228,0.099-0.448,0.212-0.675,0.337c-0.451,0.25-0.637,0.477-0.563,0.676c0.049,0.123,0.15,0.349,0.301,0.675
							c0.123,0.325,0.211,0.637,0.262,0.936c0.074,0.277,0.011,0.715-0.188,1.314c-0.301,0.873-0.475,1.486-0.527,1.836
							c-0.15,0.924-0.213,1.936-0.186,3.035l0.936,0.264c0.676,0.199,1.226,0.299,1.65,0.299c0.498,0,0.973-0.086,1.424-0.26
							c0.449-0.178,0.625-0.352,0.524-0.527c-0.524-0.875-0.812-1.699-0.86-2.475c0-0.25,0-0.9,0-1.949
							c0.024-0.9,0.012-1.475-0.039-1.723c-0.074-0.401-0.037-1.013,0.113-1.837c0.024-0.25-0.162-0.412-0.563-0.488l-0.6-0.075
							l-0.263-0.263c0.298-0.098,0.462-0.273,0.485-0.523l0.302-2.287h2.249l0.148-0.226h0.262l0.189,0.226h0.26l0.604-0.638
							l10.832-0.262l0.111,0.075c0.102,0.074,0.201,0.111,0.302,0.111h1.538c0.173,0,0.285-0.087,0.336-0.263h0.788l0.149,0.149
							h1.649l0.151,0.112h1.047l0.226-0.075c0.149-0.052,0.3-0.076,0.45-0.076c0.148,0,0.262,0.013,0.336,0.039
							c0.176,0.05,0.289,0.088,0.338,0.111h1.65c0.074,0,0.162-0.111,0.262-0.337c0.102-0.25,0.15-0.538,0.15-0.862
							c0-0.301-0.049-0.588-0.15-0.863l-0.188-0.336h-1.838c-0.199,0.149-0.375,0.225-0.523,0.225c-0.225,0-0.375-0.012-0.45-0.037
							c-0.075-0.05-0.163-0.074-0.263-0.076h-0.937c-0.125,0-0.226,0.051-0.301,0.151l-0.038,0.147
							c-0.525-0.058-0.933-0.085-1.22-0.085c-0.094,0-0.175,0.003-0.243,0.009l-0.337,0.188h-0.675L67.92,8.292h-1.385
							c-0.078,0-0.177,0.063-0.302,0.188l-0.188,0.111H54.426L53.75,8.218V7.356l-2.662-1.313h-1.012v-0.15h-0.523v0.15h-1.313
							v-0.15h-0.525v0.15h-1.311v-0.15h-0.527v0.15h-1.272v-0.15h-0.563v0.15h-1.273v-0.15h-0.563v0.15h-1.236l-0.15-0.713
							c-0.025-0.123-0.212-0.21-0.563-0.262H39.77l-0.3-0.449h1.872v0.227h0.375v-0.15l0.75-0.037V0.985h-0.75V0.833h-0.411v0.226
							H40.78L40.256,0.647L40.256,0.647z M36.081,16.217c0.187,0,0.329-0.017,0.427-0.05c0.125-0.025,0.175-0.102,0.15-0.225
							c-0.051-0.375-0.074-0.625-0.074-0.75c0-0.301,0.088-0.551,0.262-0.75c0.076-0.076,0.15-0.137,0.226-0.188h3.185
							c0.451,0.75,0.613,1.236,0.488,1.462c-2.099,3.451-3.324,5.324-3.673,5.625c-0.499,0.375-1.212,0.611-2.137,0.711
							c-0.599,0.037-1.111,0.056-1.536,0.056c-0.425,0-0.762-0.019-1.012-0.056c-0.251-0.074-0.451-0.25-0.602-0.523
							c-0.201-0.35-0.176-0.764,0.076-1.238c1.049-2.074,1.661-3.197,1.835-3.371c0.077-0.053,0.15-0.127,0.228-0.227
							c0.049-0.051,0.136-0.076,0.26-0.076h0.9c0.101,0,0.164-0.15,0.188-0.449l0.486,0.037
							C35.877,16.212,35.985,16.217,36.081,16.217L36.081,16.217z"/>
					</g>
				</g>
			</g>
		</g>
	</g>
</g>
</svg>
