<?xml version="1.0" encoding="utf-8"?>
<!-- Generator: Adobe Illustrator 16.0.0, SVG Export Plug-In . SVG Version: 6.00 Build 0)  -->
<!DOCTYPE svg PUBLIC "-//W3C//DTD SVG 1.1//EN" "http://www.w3.org/Graphics/SVG/1.1/DTD/svg11.dtd">
<svg version="1.1" id="图层_1" xmlns="http://www.w3.org/2000/svg" xmlns:xlink="http://www.w3.org/1999/xlink" x="0px" y="0px"
	 width="42px" height="29px" viewBox="0 0 42 29" enable-background="new 0 0 42 29" xml:space="preserve">
<rect y="0.028" fill="none" width="30.094" height="28.943"/>
<g>
	<g>
		
			<linearGradient id="SVGID_1_" gradientUnits="userSpaceOnUse" x1="-890.1167" y1="25.915" x2="-889.4793" y2="24.7264" gradientTransform="matrix(24.61 0 0 22.858 21911.748 -563.0161)">
			<stop  offset="0.1429" style="stop-color:#000000"/>
			<stop  offset="0.4335" style="stop-color:#FFD400"/>
			<stop  offset="0.7488" style="stop-color:#FF0000"/>
		</linearGradient>
		<path fill="url(#SVGID_1_)" d="M11.445,8.92c0.22,1.083,0.242,2.046,0.064,2.888c-0.177,0.843-0.336,1.434-0.479,1.771
			c0.133-0.249,0.324-0.53,0.572-0.849c0.707-0.905,1.705-1.641,2.992-2.2c0.661-0.29,1.172-0.501,1.527-0.636
			c1.145-0.435,1.762-0.995,1.859-1.688c0.082-0.563,0.043-1.145-0.119-1.739C17.709,5.882,17.67,5.359,17.746,4.9
			C17.848,4.31,18.23,3.817,18.9,3.423c0.258-0.152,0.51-0.27,0.756-0.351c-0.037,0.021-0.113,0.263-0.229,0.722
			c-0.115,0.458-0.039,1.019,0.234,1.677c0.271,0.657,0.471,1.133,0.604,1.42c0.133,0.29,0.24,0.854,0.324,1.688
			c0.084,0.838-0.127,1.821-0.629,2.952c-0.502,1.132-1.121,1.891-1.854,2.274c-0.732,0.386-1.146,0.786-1.238,1.203
			c-0.092,0.419,0.088,0.755,0.535,1.013c0.449,0.259,0.928,0.282,1.436,0.074c0.578-0.238,0.922-0.741,1.031-1.508
			c0.109-0.752,0.424-1.422,0.945-2.01c0.393-0.438,0.943-0.873,1.654-1.3c0.24-0.144,0.531-0.285,0.879-0.431
			c0.191-0.078,0.471-0.19,0.836-0.338c0.621-0.276,1.074-0.65,1.357-1.123c0.297-0.491,0.465-1.189,0.504-2.097
			c0.012-0.283,0.01-0.57-0.004-0.861c0.445,0.265,0.797,0.788,1.049,1.567c0.25,0.782,0.32,1.457,0.205,2.024
			c-0.111,0.568-0.316,1.06-0.609,1.473c-0.295,0.412-0.695,0.9-1.201,1.47c-0.52,0.577-0.865,0.984-1.041,1.222
			c-0.318,0.425-0.502,0.795-0.557,1.108c-0.045,0.27-0.051,0.764-0.016,1.48c0.049,1.017,0.074,1.695,0.074,2.037
			c0,1.836-0.334,3.185-1.004,4.045c-0.875,1.123-1.73,1.902-2.568,2.336c-0.955,0.49-2.229,0.736-3.813,0.736
			c-1.718,0-3.154-0.246-4.313-0.736c-1.237-0.524-2.083-1.303-2.541-2.336c-0.394-0.885-0.668-1.938-0.827-3.157
			c-0.05-0.386-0.083-0.761-0.104-1.127C8.288,18.479,7.861,18.78,7.5,19.475c-0.359,0.692-0.521,1.349-0.484,1.957
			c0.039,0.61,0.246,1.472,0.625,2.578c0.131,0.448,0.186,0.801,0.161,1.051c-0.03,0.312-0.184,0.521-0.456,0.631
			c-0.32,0.13-0.688,0.179-1.1,0.146c-0.463-0.037-0.902-0.175-1.319-0.41c-1.062-0.602-1.704-1.779-1.937-3.529
			c-0.229-1.75-0.301-3.032-0.213-3.85c0.086-0.814,0.342-1.613,0.77-2.398c0.428-0.782,0.832-1.344,1.213-1.681
			c0.383-0.338,0.893-0.712,1.532-1.122c0.64-0.408,1.108-0.745,1.405-1.008c0.438-0.384,0.715-0.808,0.83-1.271
			c0.3-1.178-0.004-2.518-0.912-4.014C7.333,6.087,7.008,5.631,6.641,5.186c0.836,0.111,1.791,0.49,2.864,1.139
			C10.579,6.971,11.227,7.836,11.445,8.92z"/>
	</g>
</g>
<g>
	<g>
		<g>
			<linearGradient id="SVGID_2_" gradientUnits="userSpaceOnUse" x1="24.7197" y1="4.9087" x2="3.7552" y2="24.3813">
				<stop  offset="0" style="stop-color:#BB925B"/>
				<stop  offset="0.3429" style="stop-color:#FFF6DA"/>
				<stop  offset="0.6571" style="stop-color:#FFF1B1"/>
				<stop  offset="1" style="stop-color:#B38B54"/>
			</linearGradient>
			<path fill="url(#SVGID_2_)" d="M18.762,5.91c0.267,0.646,0.464,1.114,0.595,1.396c0.021,0.047,0.134,0.334,0.238,1.372
				c0.065,0.656-0.118,1.479-0.548,2.447c-0.406,0.915-0.878,1.519-1.405,1.795c-1.018,0.536-1.59,1.148-1.749,1.874
				c-0.187,0.852,0.183,1.614,1.013,2.093c0.4,0.23,0.827,0.348,1.271,0.348c0.345,0,0.695-0.072,1.045-0.215
				c0.637-0.263,1.438-0.873,1.64-2.289c0.082-0.561,0.313-1.048,0.701-1.486c0.327-0.365,0.806-0.738,1.422-1.108
				c0.195-0.116,0.441-0.236,0.744-0.363l0.547-0.222l0.317-0.128c0.706-0.314,1.258-0.743,1.645-1.274
				c-0.086,0.288-0.208,0.544-0.362,0.762c-0.267,0.373-0.649,0.84-1.131,1.383c-0.538,0.598-0.898,1.021-1.098,1.291
				c-0.416,0.554-0.658,1.057-0.743,1.544c-0.037,0.221-0.08,0.637-0.028,1.692c0.05,1.023,0.073,1.675,0.073,1.989
				c0,1.601-0.267,2.755-0.793,3.431c-0.782,1.005-1.536,1.698-2.236,2.061c-0.809,0.415-1.938,0.626-3.355,0.626
				c-1.572,0-2.893-0.221-3.923-0.657c-1.003-0.425-1.663-1.021-2.018-1.821c-0.351-0.788-0.604-1.758-0.749-2.879
				c-0.045-0.348-0.077-0.692-0.098-1.055c-0.025-0.459-0.36-0.841-0.812-0.927c-0.118-0.022-0.238-0.034-0.356-0.034
				c-0.563,0-1.367,0.253-1.995,1.459c-0.443,0.854-0.644,1.688-0.595,2.481c0.046,0.714,0.268,1.642,0.663,2.795
				c0.073,0.252,0.105,0.421,0.118,0.526c-0.095,0.021-0.199,0.031-0.313,0.031c-0.053,0-0.106-0.002-0.16-0.007
				c-0.317-0.025-0.614-0.118-0.906-0.283c-0.777-0.44-1.247-1.354-1.438-2.789c-0.218-1.668-0.288-2.884-0.21-3.615
				c0.072-0.68,0.292-1.36,0.652-2.023c0.463-0.846,0.799-1.234,0.998-1.41c0.345-0.306,0.819-0.651,1.408-1.029
				c0.688-0.438,1.188-0.799,1.526-1.099c0.593-0.521,0.977-1.12,1.14-1.776C9.776,9.715,9.643,8.52,9.1,7.25
				c0.764,0.489,1.211,1.101,1.365,1.869c0.192,0.945,0.215,1.78,0.066,2.483c-0.203,0.969-0.342,1.398-0.421,1.588
				c-0.208,0.492,0.008,1.062,0.491,1.291c0.139,0.066,0.285,0.098,0.429,0.098c0.358,0,0.704-0.193,0.884-0.529
				c0.101-0.189,0.262-0.427,0.478-0.704c0.602-0.771,1.478-1.409,2.605-1.899c0.607-0.267,1.119-0.479,1.481-0.617
				c1.503-0.57,2.342-1.406,2.493-2.478c0.103-0.7,0.054-1.423-0.142-2.139C18.803,6.109,18.78,6.008,18.762,5.91 M19.656,3.072
				h0.005H19.656z M19.656,3.072C19.41,3.153,19.158,3.271,18.9,3.423C18.23,3.817,17.848,4.31,17.746,4.9
				c-0.076,0.459-0.037,0.981,0.117,1.567c0.162,0.595,0.201,1.176,0.119,1.739c-0.098,0.692-0.715,1.253-1.859,1.688
				c-0.355,0.135-0.866,0.346-1.527,0.636c-1.287,0.56-2.285,1.295-2.992,2.2c-0.248,0.318-0.439,0.6-0.572,0.849
				c0.143-0.338,0.302-0.929,0.479-1.771c0.178-0.842,0.155-1.805-0.064-2.888c-0.219-1.084-0.866-1.949-1.94-2.596
				C8.432,5.676,7.477,5.297,6.641,5.186c0.367,0.445,0.692,0.901,0.975,1.369c0.908,1.496,1.212,2.836,0.912,4.014
				c-0.115,0.464-0.393,0.888-0.83,1.271c-0.297,0.263-0.766,0.6-1.405,1.008c-0.64,0.41-1.149,0.784-1.532,1.122
				c-0.381,0.337-0.785,0.898-1.213,1.681c-0.428,0.785-0.684,1.584-0.77,2.398c-0.088,0.817-0.016,2.1,0.213,3.85
				c0.232,1.75,0.875,2.928,1.937,3.529c0.417,0.235,0.856,0.373,1.319,0.41c0.082,0.007,0.162,0.01,0.24,0.01
				c0.316,0,0.603-0.052,0.859-0.156c0.272-0.109,0.426-0.319,0.456-0.631c0.024-0.25-0.03-0.603-0.161-1.051
				c-0.379-1.106-0.586-1.968-0.625-2.578c-0.037-0.608,0.125-1.265,0.484-1.957c0.318-0.612,0.688-0.92,1.107-0.92
				c0.056,0,0.112,0.006,0.17,0.017c0.021,0.366,0.054,0.741,0.104,1.127c0.159,1.22,0.434,2.272,0.827,3.157
				c0.458,1.033,1.304,1.812,2.541,2.336c1.159,0.49,2.596,0.736,4.313,0.736c1.584,0,2.857-0.246,3.813-0.736
				c0.838-0.434,1.693-1.213,2.568-2.336c0.67-0.86,1.004-2.209,1.004-4.045c0-0.342-0.025-1.021-0.074-2.037
				c-0.035-0.717-0.029-1.211,0.016-1.48c0.055-0.313,0.238-0.684,0.557-1.108c0.176-0.237,0.521-0.645,1.041-1.222
				c0.506-0.569,0.906-1.058,1.201-1.47c0.293-0.413,0.498-0.904,0.609-1.473c0.115-0.567,0.045-1.242-0.205-2.024
				c-0.252-0.779-0.604-1.303-1.049-1.567c0.014,0.291,0.016,0.578,0.004,0.861c-0.039,0.907-0.207,1.605-0.504,2.097
				c-0.283,0.473-0.736,0.847-1.357,1.123c-0.365,0.147-0.645,0.26-0.836,0.338c-0.348,0.146-0.639,0.287-0.879,0.431
				c-0.711,0.427-1.262,0.861-1.654,1.3c-0.521,0.588-0.836,1.258-0.945,2.01c-0.109,0.767-0.453,1.27-1.031,1.508
				c-0.228,0.093-0.449,0.14-0.664,0.14c-0.267,0-0.523-0.071-0.771-0.214c-0.447-0.258-0.627-0.594-0.535-1.013
				c0.092-0.417,0.506-0.817,1.238-1.203c0.732-0.384,1.352-1.143,1.854-2.274c0.502-1.131,0.713-2.114,0.629-2.952
				c-0.084-0.835-0.191-1.398-0.324-1.688c-0.133-0.287-0.332-0.763-0.604-1.42c-0.273-0.658-0.35-1.219-0.234-1.677
				C19.543,3.335,19.619,3.094,19.656,3.072L19.656,3.072z"/>
		</g>
	</g>
</g>
<rect fill="none" width="42" height="29"/>
<g>
	<g>
		<g>
			<path fill="#7A4621" d="M12.208,22.619l4.445,3.706l9.781,0.296c3.358-0.395,6.125-1.283,8.299-2.667
				C37.598,19.984,40.089,18,42.209,18c-1.439-0.574-3.087-0.339-4.941,0.706c-1.854,1.044-3.736-0.015-5.646-3.177
				c-1.778-1.187-5.264-0.326-8.118,1.059L26.434,12l-8.578,2.824L12.208,22.619z"/>
		</g>
	</g>
</g>
<g>
	
		<linearGradient id="SVGID_3_" gradientUnits="userSpaceOnUse" x1="-884.0874" y1="56.1416" x2="-883.0882" y2="57.1424" gradientTransform="matrix(24.3018 0 0 10.0763 21500.4219 -550.8442)">
		<stop  offset="0.6071" style="stop-color:#FFF6DA"/>
		<stop  offset="1" style="stop-color:#D6BB7E"/>
	</linearGradient>
	<path fill="url(#SVGID_3_)" d="M21.953,14.471h-2.517L14.58,24.547h2.258l0.747-1.709h2.022l-0.132,1.709h2.16L21.953,14.471z
		 M20.129,17.008l-0.368,4.279h-1.522L20.129,17.008z M31.398,16.072c0-1.047-0.979-1.603-2.819-1.603
		c-2.28,0-3.324,0.728-3.868,2.599l-1.361,4.695c-0.172,0.551-0.205,0.823-0.205,1.078c0,1.106,1.028,1.704,2.936,1.704
		c1.05,0,1.874-0.181,2.449-0.551c0.621-0.412,1.013-1.047,1.313-2.153l0.324-1.144h-2.159l-0.357,1.239
		c-0.252,0.903-0.57,1.172-1.334,1.172c-0.588,0-0.912-0.213-0.912-0.605c0-0.12,0.037-0.324,0.104-0.579l1.451-4.991
		c0.219-0.74,0.576-1.037,1.285-1.037c0.588,0,0.906,0.213,0.906,0.594c0,0.16-0.049,0.365-0.148,0.754l-0.27,0.973h2.16
		l0.334-1.176C31.348,16.639,31.398,16.328,31.398,16.072z M38.881,14.471h-5.773l-2.748,10.076h5.939L36.723,23h-3.748l0.842-3.152
		h3.379l0.423-1.523h-3.38l0.644-2.329h3.577L38.881,14.471z"/>
</g>
</svg>
