<?xml version="1.0" encoding="utf-8"?>
<!-- Generator: Adobe Illustrator 16.0.0, SVG Export Plug-In . SVG Version: 6.00 Build 0)  -->
<!DOCTYPE svg PUBLIC "-//W3C//DTD SVG 1.1//EN" "http://www.w3.org/Graphics/SVG/1.1/DTD/svg11.dtd">
<svg version="1.1" xmlns="http://www.w3.org/2000/svg" xmlns:xlink="http://www.w3.org/1999/xlink" x="0px" y="0px"
	 width="92.059px" height="31.75px" viewBox="0 0 92.059 31.75" enable-background="new 0 0 92.059 31.75" xml:space="preserve">
<g id="Selected_Items">
	<g>
		<g id="Selected_Items_17_">
			<linearGradient id="SVGID_1_" gradientUnits="userSpaceOnUse" x1="0.2656" y1="16.6841" x2="90.344" y2="16.6841">
				<stop  offset="0" style="stop-color:#FFD93F"/>
				<stop  offset="1" style="stop-color:#FF310E"/>
			</linearGradient>		
			<path fill-rule="evenodd" clip-rule="evenodd" fill="url(#SVGID_1_)" d="M4.3,19.1c0.3,0.3,0.6,0.4,1,0.4c0.4,0,0.7-0.1,1-0.4c0.3-0.3,0.4-0.6,0.4-1c0-0.4-0.1-0.7-0.4-1
				c-0.3-0.3-0.6-0.4-1-0.4s-0.7,0.1-1,0.4c-0.3,0.3-0.4,0.6-0.4,1C4,18.4,4.1,18.8,4.3,19.1z M1.8,15.1c-0.1-0.1-0.2-0.2-0.4-0.2
				c-0.1,0-0.3,0.1-0.4,0.2c-0.1,0.1-0.2,0.2-0.2,0.4s0.1,0.3,0.2,0.4C1.2,15.9,1.3,16,1.5,16s0.3-0.1,0.4-0.2
				C1.9,15.7,2,15.6,2,15.4S1.9,15.2,1.8,15.1z M36.1,15.3c-0.3-0.3-0.6-0.4-1-0.4c-0.4,0-0.7,0.1-1,0.4c-0.3,0.3-0.4,0.6-0.4,1
				c0,0.4,0.1,0.7,0.4,1c0.3,0.3,0.6,0.4,1,0.4s0.7-0.1,1-0.4c0.3-0.3,0.4-0.6,0.4-1C36.5,15.9,36.4,15.6,36.1,15.3z M68,15
				c0.1-0.1,0.2-0.3,0.2-0.4c0-0.2-0.1-0.3-0.2-0.5c-0.1-0.1-0.3-0.2-0.4-0.2l-16.6-0.5c-0.3,0-0.5,0.1-0.7,0.4
				c-0.3,0.2-0.4,0.5-0.4,0.9c0,0.3,0.1,0.6,0.4,0.8c0.2,0.2,0.5,0.3,0.7,0.4l16.6-0.6C67.7,15.2,67.9,15.1,68,15z M90.3,12L82,20.3
				c-7.3,2.7-15,3.5-23.1,2.3c-0.1-0.1-0.1-0.1-0.2-0.2c-0.2-0.1-0.3-0.2-0.5-0.3c-0.2,0-0.3,0-0.5,0.1c-0.1,0-0.2,0.1-0.2,0.1
				c0-0.1-0.1-0.1-0.1-0.2c-0.1-0.1-0.3-0.2-0.4-0.2c-0.1,0-0.2,0-0.3,0.1c0,0,0,0.1-0.1,0.1c0-0.1-0.1-0.1-0.1-0.2
				C56.4,22,56.3,22,56.2,22c-0.1,0-0.2,0-0.3,0.1c0,0-0.1,0.1-0.1,0.1c-0.1-0.1-0.2-0.1-0.3-0.2c-0.2-0.1-0.4-0.2-0.6-0.2
				c-0.2,0-0.3,0.1-0.4,0.2c-0.1,0-0.1,0.1-0.1,0.2c0,0-0.1-0.1-0.2-0.2c-0.1-0.1-0.2-0.2-0.4-0.2c-0.1,0-0.2,0.1-0.2,0.2
				c0,0.1,0,0.1,0,0.2c0,0-0.1-0.1-0.1-0.2c-0.1-0.1-0.2-0.2-0.3-0.2s-0.2,0.1-0.2,0.2c0,0.1-0.1,0.1-0.1,0.2c0,0-0.1-0.1-0.2-0.1
				c-0.2-0.1-0.4-0.2-0.5-0.2c-0.2,0-0.3,0.1-0.5,0.2c-0.1,0.1-0.1,0.1-0.1,0.2c0,0-0.1-0.1-0.1-0.1C51.6,22,51.5,22,51.4,22
				c-0.1,0-0.2,0.1-0.2,0.2c0,0.1,0,0.1,0,0.2c0,0-0.1-0.1-0.1-0.1c-0.1,0-0.2-0.1-0.3,0c-0.1,0-0.1,0.1-0.2,0.3c0,0.1,0,0.1,0,0.2
				c-0.1,0-0.2-0.1-0.3-0.1c-0.2,0-0.4,0-0.6,0.1c-0.2,0.1-0.3,0.2-0.3,0.4c0,0.1-0.1,0.2,0,0.3l-0.3,0.2c-0.2-0.3-0.5-0.6-0.7-0.8
				c-0.6-0.5-1.1-0.7-1.5-0.5c-0.4,0.1-0.7,0.5-0.9,1.2c-0.1,0.3-0.1,0.6-0.1,0.9h-1.3c-0.1-0.7-0.4-0.9-0.9-0.4l-0.5-0.2
				c0-0.7-0.4-0.9-0.9-0.5L41.9,23c-0.1-0.7-0.4-0.8-0.9-0.4l-0.5-0.1c0-0.6-0.4-0.8-0.9-0.4c-0.5-0.2-1.2-0.5-1.9-0.7
				c-1.5-0.5-2.8-0.6-3.9-0.6c-1.1,0.1-2.4,0.4-4,0.9c-1.4,0.5-2.1,0.8-2.3,0.8c-0.3,0-0.8-0.1-1.5-0.3c-1.4-0.4-2.2-0.7-2.4-0.7
				c-2.5-0.7-5-0.9-7.5-0.6c-1.6,0.1-4.1,0.6-7.5,1.5c-3.2,0.9-4.8,1.3-5,1.4c-0.3,0-0.6,0.1-0.9,0.1l-0.4,0l-0.8-1.2l-0.2-3.3
				c-0.2-0.3-0.3-0.7-0.5-1.2c-0.3-0.9-0.5-1.7-0.5-2.3c0-0.8,0.5-1.3,1.4-1.6c0.5-0.2,0.9-0.3,1.4-0.3c0-0.1,0.1-0.2,0.2-0.4
				c0.2-0.3,1.4-0.7,3.4-1.1c2.4-0.6,5-1,7.9-1.3c2.6-0.3,5.5-0.5,8.4-0.5c1.5,0,2.7,0,3.7,0c1.4,0.1,2.7,0.2,3.8,0.5
				c0.6,0.1,1,0.3,1.3,0.4l1.8,0.1l0.1,0.3c0.1,0.2,0.3,0.3,0.5,0.3c0.2,0,0.3-0.1,0.4-0.3l0.1-0.2l0.6,0.1l0.1,0.2
				c0.1,0.1,0.2,0.2,0.4,0.2c0.2,0,0.3-0.1,0.4-0.2l0.1-0.2h0.6l0.2,0.2c0.2,0.2,0.3,0.2,0.5,0.2c0.2,0,0.3-0.1,0.4-0.3l0.1-0.3
				l0.6-0.1l0.2,0.2c0.2,0.1,0.3,0.1,0.5,0.1c0.1,0,0.2-0.2,0.3-0.4v-0.3l0.5-0.2l0.3,0.1c0.2,0.1,0.4,0.1,0.5,0
				c0.1-0.1,0.2-0.2,0.2-0.4l0-0.3l0.5-0.3l0.3,0.1c0.2,0,0.4,0,0.5,0c0.1-0.1,0.2-0.2,0.1-0.4l-0.1-0.3l1.1-0.5l0.2,0.4
				c0.2,0.3,0.4,0.5,0.7,0.7c0.3,0.2,0.6,0.3,1,0.4c0.2,0,0.4,0.1,0.5,0.1l19.1-0.4l1.6,0.9c1.3,0.7,2.4,1.2,3.3,1.6
				c1.9,0.7,3,0.7,3.5-0.2c0.2-0.3,0-0.7-0.6-1.3l-0.9-0.9C77.8,10.4,84.1,11,90.3,12z"/>
		</g>
	</g>
</g>
<g id="guides">
</g>
</svg>
