<?xml version="1.0" encoding="utf-8"?>
<!-- Generator: Adobe Illustrator 16.0.0, SVG Export Plug-In . SVG Version: 6.00 Build 0)  -->
<!DOCTYPE svg PUBLIC "-//W3C//DTD SVG 1.1//EN" "http://www.w3.org/Graphics/SVG/1.1/DTD/svg11.dtd">
<svg version="1.1" id="图层_1" xmlns="http://www.w3.org/2000/svg" xmlns:xlink="http://www.w3.org/1999/xlink" x="0px" y="0px"
	 width="84.75px" height="32px" viewBox="0 0 84.75 32" enable-background="new 0 0 84.75 32" xml:space="preserve">
<rect fill="none" width="84.75" height="32"/>
<g>
	<rect fill="none" width="84.75" height="32"/>
	<g>
		<g>
			<g>
				<g>
					
						<linearGradient id="SVGID_1_" gradientUnits="userSpaceOnUse" x1="-519.1558" y1="46.9072" x2="-520.3319" y2="47.6095" gradientTransform="matrix(83.9 0 0 17.253 43643.4375 -801.4253)">
						<stop  offset="0.2512" style="stop-color:#FF0000"/>
						<stop  offset="0.5665" style="stop-color:#FFD400"/>
						<stop  offset="0.803" style="stop-color:#1A1600"/>
						<stop  offset="0.8571" style="stop-color:#000000"/>
					</linearGradient>
					<path fill="url(#SVGID_1_)" d="M19.105,19.89c-0.02,0.021-0.03,0.04-0.03,0.061c0.04-0.021,0.11-0.04,0.2-0.061H19.105z
						 M19.105,19.89c-0.02,0.021-0.03,0.04-0.03,0.061c0.04-0.021,0.11-0.04,0.2-0.061H19.105z M19.105,19.89
						c-0.02,0.021-0.03,0.04-0.03,0.061c0.04-0.021,0.11-0.04,0.2-0.061H19.105z M19.105,19.89c-0.02,0.021-0.03,0.04-0.03,0.061
						c0.04-0.021,0.11-0.04,0.2-0.061H19.105z M84.585,8.63c0-0.02-0.01-0.05-0.03-0.09c-0.02-0.05-0.04-0.09-0.06-0.13
						c-0.05-0.03-0.08-0.05-0.101-0.07c-0.069-0.02-0.14-0.05-0.229-0.09c-8.91-0.02-17.82-0.03-26.72-0.03
						c-2.82,0-5.63-0.01-8.44,0c-2.18-0.01-4.36-0.01-6.53-0.01h-6.86c-0.04-0.02-0.09-0.04-0.13-0.06
						c-0.09-0.03-0.15-0.06-0.19-0.1h-0.3v0.07h-0.09v-0.1c-0.03-0.02-0.04-0.05-0.04-0.07c-0.02-0.04-0.04-0.08-0.06-0.13
						c-0.06-0.04-0.11-0.07-0.13-0.09h-0.03l-0.04-0.04c-0.02-0.04-0.06-0.08-0.12-0.13c-0.05-0.02-0.11-0.04-0.2-0.06h-13.68
						c-0.03,0-0.04,0.01-0.04,0.03c-0.11,0.02-0.21,0.05-0.32,0.07c-0.02,0.02-0.04,0.06-0.07,0.13c-0.24,0.02-0.46,0.04-0.68,0.06
						c-0.02,0.02-0.05,0.07-0.1,0.13c-0.17,0.02-0.33,0.04-0.48,0.06c-0.02,0.03-0.04,0.05-0.07,0.07h-0.06v0.07
						c-0.02,0-0.04,0.01-0.07,0.03c-0.02,0-0.04,0.01-0.06,0.03c-0.07,0-0.12,0.01-0.16,0.03c-0.11,0-0.2,0.02-0.26,0.04v0.16h-0.07
						c-0.06,0-0.14,0.01-0.22,0.03h-0.04c0,0.02-0.01,0.06-0.03,0.1c-0.02,0.02-0.06,0.04-0.13,0.06c-0.04,0-0.07,0.02-0.1,0.04
						h-0.03v0.09c-0.08,0.02-0.15,0.05-0.19,0.07c-0.07,0-0.12,0.01-0.17,0.03h-0.03V8.9c-0.08,0.04-0.15,0.07-0.19,0.09
						c-0.11,0-0.23,0.01-0.36,0.03v0.07c-0.06,0.04-0.13,0.08-0.19,0.1c-0.07,0-0.12,0.01-0.17,0.03h-0.06v0.06
						c-0.07,0.03-0.13,0.06-0.2,0.1c-0.06,0-0.14,0.01-0.22,0.03v0.07c-0.05,0.02-0.09,0.05-0.13,0.1c-0.07,0-0.12,0-0.16,0.03
						h-0.04v0.06c-0.08,0.02-0.15,0.04-0.19,0.07c-0.09,0-0.16,0.02-0.23,0.06v0.07c-0.09,0.02-0.15,0.04-0.19,0.07
						c-0.07,0-0.11,0.02-0.13,0.07h-0.04v0.06c-0.04,0.02-0.09,0.05-0.16,0.07c-0.06,0-0.13,0.02-0.19,0.06v0.07
						c-0.02,0.02-0.04,0.04-0.07,0.06c-0.08,0-0.15,0.01-0.19,0.03h-0.03c0,0.05-0.01,0.08-0.04,0.1c-0.02,0.02-0.06,0.04-0.13,0.06
						c-0.04,0-0.07,0.01-0.09,0.04h-0.07v0.09c-0.04,0-0.08,0.01-0.13,0.04v0.03c-0.02,0-0.05,0.01-0.1,0.03
						c-0.02,0.02-0.04,0.06-0.06,0.1c-0.02,0.02-0.04,0.04-0.07,0.06c-0.06,0-0.12,0.01-0.16,0.03h-0.03v0.1
						c-0.09,0.02-0.16,0.04-0.23,0.07c-0.06,0-0.1,0.01-0.13,0.03h-0.03v0.06c-0.03,0-0.08,0.02-0.13,0.05
						c-0.01,0.01-0.02,0.01-0.03,0.02v0.03c-0.02,0-0.04,0.01-0.07,0.03c-0.02,0.02-0.05,0.05-0.09,0.07
						c-0.05,0.04-0.09,0.07-0.13,0.1c-0.07,0-0.12,0-0.17,0.03h-0.03c0,0.02-0.01,0.04-0.03,0.06c-0.04,0.02-0.09,0.05-0.13,0.1
						c-0.04,0-0.09,0.01-0.13,0.03v0.07c-0.06,0-0.12,0.01-0.16,0.03l-0.1,0.1l-0.06,0.06c-0.09,0-0.17,0.01-0.23,0.03v0.03
						c-0.02,0-0.05,0.02-0.1,0.07l-0.06,0.06c-0.02,0.02-0.07,0.05-0.13,0.07c-0.04,0-0.08,0.02-0.1,0.06h-0.03v0.07
						c-0.07,0.02-0.12,0.04-0.17,0.06c-0.1,0-0.19,0.01-0.25,0.03v0.1c-0.09,0.02-0.15,0.04-0.2,0.06c-0.08,0-0.15,0.01-0.19,0.04
						v0.09c-0.09,0.03-0.16,0.05-0.23,0.07c-0.11,0-0.2,0.01-0.26,0.03v0.1c-0.11,0.02-0.2,0.04-0.29,0.06
						c-0.07,0-0.13,0.01-0.19,0.03h-0.04c0,0.03-0.01,0.06-0.03,0.1c-0.13,0.02-0.25,0.05-0.36,0.07c-0.04,0-0.08,0.01-0.13,0.03
						h-0.06c0,0.02-0.01,0.05-0.03,0.1c-0.07,0.02-0.16,0.04-0.26,0.06c-0.05,0-0.1,0.01-0.17,0.03h-0.03v0.07
						c-0.08,0.04-0.16,0.08-0.22,0.1c-0.13,0-0.26,0.01-0.39,0.03v0.06c-0.13,0.04-0.26,0.08-0.4,0.1c-0.13,0-0.25,0.01-0.38,0.04
						h-0.03c0,0.02-0.01,0.05-0.03,0.07c-0.11,0.02-0.21,0.05-0.3,0.09c-0.13,0-0.26,0.02-0.39,0.04h-0.03
						c0,0.02-0.02,0.04-0.07,0.06c-0.12,0.03-0.23,0.06-0.32,0.1h-1.13c-0.09-0.04-0.19-0.08-0.3-0.1v-0.06
						c-0.13,0-0.26-0.01-0.39-0.04c-0.04-0.04-0.1-0.07-0.19-0.09v-0.07c-0.07,0-0.13-0.01-0.19-0.03c-0.07-0.02-0.13-0.05-0.2-0.1
						v-0.06c-0.06,0-0.12-0.01-0.16-0.03c-0.04-0.03-0.07-0.06-0.07-0.1c-0.02-0.02-0.03-0.05-0.03-0.07c-0.04,0-0.1-0.01-0.16-0.03
						c-0.04-0.02-0.09-0.04-0.13-0.06v-0.1c-0.04,0-0.08-0.01-0.1-0.03c-0.04-0.02-0.07-0.05-0.1-0.07v-0.09h-1.62v1.61
						c0.02,0,0.05,0.02,0.07,0.04v4.83c-0.02,0.02-0.05,0.03-0.07,0.03v1.55c0,0.02,0.01,0.05,0.04,0.07c0,0.02,0.01,0.04,0.03,0.06
						v0.13c0.04,0.021,0.08,0.04,0.13,0.061v0.04c0.02,0.039,0.03,0.069,0.03,0.1c0.02,0.02,0.03,0.04,0.03,0.06
						c0.04,0.021,0.09,0.03,0.13,0.03v0.1c0,0.021,0.01,0.04,0.03,0.061c0,0.03,0.02,0.04,0.04,0.04v0.09
						c0.02,0.021,0.06,0.05,0.13,0.07l0.03,0.029c0.02,0.021,0.03,0.061,0.03,0.101c0.02,0.02,0.06,0.04,0.13,0.06l0.03,0.03
						c0.03,0.03,0.03,0.05,0.03,0.07c0.02,0.04,0.05,0.08,0.07,0.1c0.04,0.021,0.08,0.05,0.1,0.07c0,0.02,0.01,0.05,0.03,0.09
						c0.02,0.03,0.07,0.05,0.13,0.07c0.02,0.02,0.04,0.04,0.06,0.06v0.1c0.05,0.021,0.08,0.03,0.1,0.03
						c0.05,0.021,0.07,0.05,0.07,0.07c0.04,0.02,0.08,0.05,0.13,0.09v0.04c0,0.02,0.02,0.04,0.06,0.06
						c0.02,0.021,0.03,0.061,0.03,0.101c0.05,0.02,0.08,0.03,0.1,0.03c0.02,0.02,0.03,0.039,0.03,0.06
						c0.05,0.03,0.09,0.05,0.13,0.07c0.02,0.04,0.04,0.08,0.07,0.1c0,0.021,0.02,0.04,0.06,0.06c0.02,0.021,0.06,0.061,0.1,0.101
						c0.02,0.02,0.05,0.04,0.1,0.07v0.06c0.04,0.02,0.07,0.03,0.09,0.03c0.03,0.04,0.04,0.08,0.04,0.1
						c0.06,0.021,0.12,0.04,0.16,0.061c0.02,0.02,0.04,0.029,0.06,0.029l0.1,0.101c0.02,0.02,0.05,0.05,0.07,0.069
						c0.04,0.021,0.09,0.03,0.16,0.03v0.1c0.04,0.021,0.11,0.04,0.19,0.061l0.03,0.03c0.03,0.02,0.04,0.06,0.04,0.1
						c0.04,0.021,0.1,0.04,0.19,0.06c0.02,0.021,0.07,0.03,0.13,0.03v0.07c0.05,0.04,0.1,0.07,0.16,0.1
						c0.54,0.021,1.08,0.03,1.63,0.03v-0.2h0.13v-0.42c0.02-0.02,0.04-0.04,0.06-0.06V23.97c0.02,0,0.04-0.01,0.07-0.029
						c0-0.021,0.02-0.04,0.06-0.08V23.76c0.03-0.02,0.04-0.04,0.04-0.06c0.02-0.021,0.03-0.04,0.03-0.061
						c0.02-0.02,0.06-0.04,0.13-0.04v-0.09c0-0.02,0.01-0.05,0.03-0.069c0-0.021,0.01-0.051,0.03-0.101c0.02,0,0.06-0.01,0.1-0.03
						v-0.22c0.04-0.03,0.06-0.05,0.06-0.07c0.03,0,0.04-0.01,0.04-0.029c0-0.04,0.01-0.08,0.03-0.101c0.02-0.02,0.03-0.04,0.03-0.06
						c0.02-0.021,0.03-0.061,0.03-0.1c0-0.021,0.03-0.04,0.07-0.061c0-0.02,0.01-0.05,0.03-0.07c0.02,0,0.05-0.01,0.1-0.029v-0.13
						c0.02-0.021,0.03-0.04,0.03-0.061c0.04-0.05,0.06-0.08,0.06-0.1v-0.07c0.05-0.01,0.08-0.04,0.1-0.06
						c0.02-0.04,0.03-0.08,0.03-0.101c0.05,0,0.07-0.01,0.07-0.03c0-0.02,0.01-0.039,0.03-0.06c0.02-0.05,0.05-0.08,0.07-0.1
						c0.02-0.021,0.04-0.04,0.06-0.061c0.04-0.02,0.08-0.05,0.1-0.069c0-0.04,0.01-0.08,0.03-0.101c0.02-0.02,0.04-0.04,0.07-0.06
						V21.47c0.04,0,0.07-0.01,0.09-0.029c0.03-0.021,0.05-0.04,0.07-0.061c0-0.03,0.01-0.05,0.03-0.07c0.02-0.04,0.06-0.079,0.1-0.1
						c0.02-0.02,0.04-0.04,0.06-0.06c0.02-0.021,0.03-0.051,0.03-0.101c0.07-0.02,0.11-0.04,0.13-0.06
						c0.03-0.021,0.04-0.04,0.04-0.07c0.02,0,0.03-0.01,0.03-0.03c0-0.04,0.01-0.08,0.03-0.1c0.02-0.021,0.06-0.04,0.1-0.06
						c0.02-0.021,0.04-0.061,0.06-0.101c0.02-0.02,0.05-0.04,0.07-0.06c0.04-0.021,0.08-0.03,0.13-0.03v-0.07
						c0.02-0.04,0.04-0.08,0.06-0.1c0.03-0.021,0.07-0.03,0.13-0.03v-0.06c0.02-0.05,0.05-0.08,0.07-0.101
						c0-0.02,0.01-0.04,0.03-0.06c0.04-0.03,0.07-0.05,0.1-0.08c0.02-0.04,0.04-0.08,0.06-0.1c0.02,0,0.06-0.011,0.1-0.03
						c0.02-0.021,0.04-0.04,0.07-0.061c0.02-0.05,0.03-0.08,0.03-0.1c0.02-0.02,0.04-0.04,0.06-0.06c0.05-0.03,0.09-0.051,0.13-0.07
						c0.02-0.04,0.05-0.08,0.07-0.101c0.04-0.02,0.06-0.039,0.06-0.06c0.02-0.02,0.04-0.05,0.07-0.1c0.02,0,0.04-0.011,0.06-0.03
						h0.1V19.27l0.03-0.039c0.07-0.061,0.14-0.11,0.23-0.131c0.04-0.04,0.1-0.1,0.16-0.159c0.02-0.021,0.04-0.04,0.06-0.061
						c0.03-0.02,0.05-0.04,0.07-0.04v-0.13c0-0.02,0.02-0.04,0.06-0.06c0.03-0.021,0.05-0.04,0.07-0.07c0.04,0,0.1-0.021,0.16-0.061
						l0.03-0.029v-0.03c0.05-0.02,0.1-0.04,0.17-0.04l0.06-0.09c0.02-0.021,0.04-0.05,0.06-0.07c0.03-0.02,0.07-0.029,0.13-0.029
						l0.04-0.03c0.02,0,0.03-0.01,0.03-0.03c0.02-0.05,0.05-0.08,0.1-0.1c0.04-0.021,0.09-0.04,0.16-0.07
						c0.06,0,0.12-0.01,0.16-0.03v-0.1c0.02-0.01,0.05-0.04,0.1-0.061c0.06,0,0.12-0.01,0.16-0.029v-0.03c0.04,0,0.08-0.02,0.1-0.07
						c0.02-0.02,0.05-0.029,0.09-0.029l0.07-0.03c0.02,0,0.03-0.01,0.03-0.03c0.02-0.03,0.04-0.06,0.07-0.1
						c0.06-0.021,0.12-0.03,0.16-0.03l0.06-0.07c0.02-0.02,0.06-0.04,0.1-0.06c0.02-0.04,0.06-0.061,0.1-0.061l0.03-0.039
						c0.04,0,0.08-0.011,0.1-0.03c0.02-0.021,0.04-0.04,0.06-0.061c0.05-0.05,0.1-0.08,0.16-0.1c0.05,0,0.1-0.01,0.17-0.03
						l0.03-0.04V16.94h0.03v0.29c0.05-0.021,0.08-0.03,0.1-0.03c0.04-0.021,0.09-0.04,0.13-0.061c0.17-0.069,0.37-0.109,0.58-0.13
						c0.02,0,0.04-0.01,0.07-0.029h0.58l0.2,0.189v0.03c0.02,0,0.03,0.01,0.03,0.03l0.1,0.13h0.06c0,0.02,0.01,0.04,0.03,0.04v0.06
						h0.04v0.03l0.29,0.319c0,0.03,0.02,0.04,0.06,0.04v0.03l0.04,0.03v0.07l0.16,0.13v0.06l0.06,0.061v0.039l0.03,0.03v0.03
						l0.04,0.08v0.06h0.06l0.04,0.03v0.04l0.06,0.1v0.03l0.03,0.03v0.03l0.1,0.1v0.06c0.02,0,0.03,0.021,0.03,0.04l0.03,0.03v0.06
						l0.07,0.07v0.03c0.04,0,0.08,0.01,0.1,0.03v0.029l0.03,0.07v0.03l0.03,0.029v0.03h0.04l0.03,0.04v0.061l0.06,0.029v0.03h0.03
						v0.04l0.07,0.09v0.03l0.1,0.07v0.029h0.03v0.03h0.03v0.07l0.07,0.06v0.01h0.03v0.03l0.13,0.13h0.03l0.03,0.04v0.03h0.07v0.03
						h0.03v0.06h0.03v0.04h0.03v0.03h0.04v0.029h0.09v0.03h0.04l0.06,0.101h0.04v0.039h0.09l0.03,0.03h0.07l0.03,0.03h0.1v0.03h0.06
						l0.03,0.06h0.07l0.03,0.04h0.07l0.03,0.03h0.03l0.07,0.029h0.09v0.03h0.1l0.03,0.07h0.1l0.03,0.03h0.1l0.03,0.01h0.13v0.03
						h0.07l0.03,0.04h0.23l0.03,0.029h0.16l0.03,0.061h0.13V21.1h0.17l0.03,0.04h1.17c0.11-0.02,0.21-0.04,0.32-0.04h0.03
						c0.05-0.02,0.1-0.029,0.17-0.029h0.03c0.02-0.04,0.06-0.061,0.13-0.061h0.03c0.07-0.02,0.15-0.029,0.26-0.029
						c0.04-0.021,0.09-0.04,0.13-0.04h0.03c0.02-0.021,0.06-0.03,0.1-0.03h0.06c0.03-0.021,0.05-0.03,0.07-0.03h0.03
						c0.02-0.02,0.05-0.03,0.07-0.03h0.06c0-0.05,0.01-0.069,0.03-0.069h0.04c0.02-0.021,0.06-0.03,0.13-0.03h0.03
						c0-0.02,0.01-0.03,0.03-0.03h0.03c0.02-0.02,0.05-0.029,0.07-0.029c0.04-0.021,0.07-0.03,0.1-0.03h0.03
						c0.02-0.05,0.05-0.07,0.07-0.07c0.04-0.02,0.07-0.03,0.09-0.03h0.04c0.02-0.02,0.04-0.029,0.06-0.029
						c0.02-0.021,0.06-0.03,0.1-0.03c0.02-0.02,0.04-0.04,0.06-0.04h0.03c0-0.02,0.02-0.03,0.04-0.03h0.06
						c0-0.04,0.01-0.06,0.03-0.06h0.04c0-0.021,0.01-0.03,0.03-0.03l0.13-0.1h0.03c0-0.04,0.01-0.07,0.03-0.07l0.13-0.09h0.03
						c0-0.03,0.01-0.03,0.04-0.03c0.02,0,0.03-0.02,0.03-0.04c0.02-0.04,0.04-0.06,0.06-0.06l0.1-0.07h0.03
						c0-0.02,0.01-0.03,0.04-0.03h0.03c0-0.02,0.02-0.029,0.06-0.029h0.04c0-0.04,0.01-0.061,0.03-0.061v-0.04h0.03
						c0-0.02,0.01-0.029,0.03-0.029h0.04c0-0.021,0.02-0.03,0.06-0.03h0.03c0-0.021,0.01-0.03,0.03-0.03s0.04-0.01,0.04-0.03h0.03
						c0-0.05,0.02-0.069,0.07-0.069c0.02,0,0.03-0.011,0.03-0.03h0.03c0-0.02,0.01-0.03,0.03-0.03s0.03-0.01,0.03-0.029h0.04
						c0-0.03,0.02-0.04,0.06-0.04h0.03c0-0.04,0.02-0.061,0.04-0.061l0.06-0.06h0.07c0-0.03,0.01-0.03,0.03-0.03h0.03
						c0-0.03,0.01-0.04,0.03-0.04s0.04-0.02,0.04-0.06h0.06c0-0.021,0.01-0.03,0.03-0.03h0.04c0-0.021,0.01-0.04,0.03-0.04h0.03
						c0-0.021,0.01-0.03,0.03-0.03h0.07c0-0.02,0.01-0.03,0.03-0.03h0.03c0.02-0.02,0.04-0.029,0.07-0.029
						c0.04,0,0.06-0.021,0.06-0.07h0.03c0.03-0.02,0.05-0.03,0.07-0.03s0.03-0.01,0.03-0.029h0.03c0.05-0.021,0.08-0.03,0.1-0.03
						s0.03-0.01,0.03-0.04h0.04c0-0.04,0.01-0.06,0.03-0.06h0.06V18.7l0.07-0.061h0.03c0.02-0.029,0.06-0.04,0.13-0.04
						c0.02,0,0.03-0.01,0.03-0.029h0.04c0-0.04,0.01-0.061,0.03-0.061c0.02-0.029,0.05-0.04,0.1-0.04c0.02,0,0.03-0.01,0.03-0.029
						h0.03c0-0.021,0.01-0.03,0.03-0.03h0.03c0.03-0.021,0.06-0.03,0.1-0.03c0.02-0.05,0.04-0.07,0.07-0.07h0.03
						c0-0.02,0.01-0.029,0.03-0.029h0.07c0-0.021,0.01-0.03,0.03-0.03h0.03c0-0.02,0.01-0.03,0.03-0.03h0.04
						c0.02-0.02,0.05-0.029,0.09-0.029c0.02,0,0.03-0.021,0.03-0.04h0.04c0.02-0.04,0.04-0.061,0.06-0.061h0.07
						c0-0.02,0.01-0.03,0.03-0.03h0.03c0.02-0.02,0.05-0.029,0.07-0.029h0.03l0.06-0.04h0.04c0.02-0.021,0.04-0.03,0.06-0.03h0.03
						c0.05-0.04,0.08-0.06,0.1-0.06h0.03c0.03-0.021,0.05-0.04,0.07-0.04h0.03c0.04-0.011,0.08-0.03,0.1-0.03s0.03-0.01,0.03-0.03
						h0.03c0.02-0.02,0.06-0.03,0.1-0.03h0.03c0.02-0.02,0.05-0.029,0.07-0.029h0.03c0-0.04,0.01-0.07,0.03-0.07h0.07
						c0.02-0.02,0.04-0.03,0.06-0.03h0.03c0.07-0.02,0.12-0.029,0.17-0.029h0.03c0.02-0.021,0.07-0.03,0.13-0.03h0.03
						c0.02-0.021,0.06-0.04,0.1-0.04h0.06c0-0.04,0.02-0.06,0.04-0.06h0.03c0.02-0.021,0.06-0.03,0.13-0.03h0.03
						c0.02-0.021,0.04-0.03,0.07-0.03h0.03c0.02-0.02,0.05-0.04,0.1-0.04h0.03c0.04-0.02,0.08-0.03,0.1-0.03h0.06
						c0.09-0.02,0.17-0.029,0.26-0.029h0.03c0.11-0.04,0.21-0.061,0.3-0.061h0.06c0.02-0.029,0.05-0.04,0.1-0.04h0.03
						c0.09-0.01,0.18-0.029,0.29-0.029h0.03c0.03,0,0.05-0.011,0.08-0.011c0.13-0.01,0.26-0.02,0.38-0.02V17h0.16v-0.16
						c0.02,0,0.06-0.01,0.1-0.04v-0.06c0.02-0.021,0.05-0.05,0.1-0.101c0.02,0,0.05-0.01,0.09-0.029c0.02,0,0.04-0.011,0.04-0.03
						c0.04,0,0.06-0.01,0.06-0.03c0.04-0.03,0.09-0.05,0.13-0.07c0.02-0.02,0.03-0.04,0.05-0.05c0-0.02,0.01-0.03,0.01-0.05
						c0.05-0.02,0.09-0.04,0.13-0.06c0.03,0,0.07-0.01,0.13-0.03h0.1c0.07-0.04,0.12-0.08,0.16-0.1c0.02-0.02,0.07-0.04,0.13-0.07
						c0.05,0,0.08,0,0.1-0.03h0.1c0.04-0.04,0.07-0.06,0.1-0.06h7.87v0.29c0.03,0.02,0.05,0.04,0.07,0.06
						c0.54,0.03,1.06,0.04,1.56,0.04v-0.39h0.68v-0.49h2.431v0.36c0.02,0.02,0.05,0.04,0.1,0.06c0.04,0.05,0.07,0.09,0.09,0.14
						c0.07,0.02,0.12,0.04,0.17,0.06c0.021,0.02,0.05,0.04,0.09,0.07c0.09,0.04,0.181,0.07,0.261,0.09h10.449v0.07
						c0.08,0.02,0.181,0.05,0.29,0.09c0.09,0.03,0.181,0.04,0.29,0.04v0.061c0.07,0.02,0.13,0.04,0.2,0.06
						c0.04,0.051,0.1,0.07,0.19,0.07v0.06c0.09,0.021,0.17,0.04,0.26,0.07c0.09,0,0.16,0.021,0.229,0.061v0.319
						c0.54,0.021,1.08,0.03,1.62,0.03v-0.22c6.96,0,13.931-0.011,20.92-0.04V16.8h0.49v-0.06c0.021-0.03,0.05-0.061,0.09-0.101
						c0.07,0,0.12-0.01,0.16-0.029v-0.07c0.05-0.021,0.09-0.03,0.13-0.03v-0.03c0-0.05,0.01-0.08,0.03-0.1
						c0-0.02,0.02-0.04,0.04-0.07c0.04-0.02,0.07-0.05,0.1-0.09c0.021-0.02,0.03-0.05,0.03-0.07c0.021-0.02,0.04-0.04,0.06-0.06
						c0.021-0.04,0.07-0.08,0.131-0.1v-0.06c0.02,0,0.04-0.01,0.04-0.03c0.02-0.03,0.04-0.06,0.06-0.1
						c0.04-0.02,0.06-0.05,0.06-0.07c0.021-0.02,0.04-0.04,0.04-0.06c0-0.05,0.011-0.08,0.03-0.1c0-0.02,0.01-0.04,0.03-0.06v-0.07
						c0.02-0.04,0.04-0.07,0.06-0.1c0.05,0,0.08-0.01,0.101-0.03c0-0.02,0.01-0.03,0.04-0.03h0.39v-0.03
						c0.47,0.02,0.96,0.03,1.45,0.03v-3.37h-1.55v0.13c-0.15-0.02-0.32-0.03-0.49-0.03l-0.03-0.03c-0.02-0.02-0.03-0.05-0.03-0.07
						v-0.55h1.681l0.029,0.03c0.051,0.05,0.11,0.08,0.2,0.1c0-0.02,0.01-0.05,0.03-0.1c0.02-0.04,0.07-0.07,0.13-0.1
						c0.021-0.02,0.04-0.06,0.07-0.12c0.04-0.03,0.08-0.06,0.13-0.1c0.04-0.02,0.07-0.03,0.09-0.03V8.86c0-0.02-0.01-0.04-0.03-0.06
						c0.021,0,0.03-0.01,0.03-0.04V8.63z M2.335,19.3c-0.02,0.03-0.03,0.05-0.03,0.07v-0.13h0.07
						C2.375,19.26,2.365,19.28,2.335,19.3z M23.905,18.43h-0.03v0.061c-0.05,0-0.07,0.01-0.07,0.04l-0.03,0.06v0.03
						c-0.02,0-0.03,0.01-0.03,0.04v0.03c-0.02,0-0.03,0.01-0.03,0.029v0.03h-0.04v0.07l-0.06,0.029v0.04h-0.03v0.16
						c-0.02,0-0.04,0.01-0.04,0.03v0.03h-0.03v0.04c-0.02,0-0.03,0.01-0.03,0.029v0.061l-0.03,0.029h-0.07l-0.03,0.03h-0.03
						l-0.03,0.04c-0.02,0-0.04,0.01-0.04,0.03c-0.04,0-0.06,0.02-0.06,0.06h-0.07l-0.06,0.07v0.03h-0.13
						c0,0.02-0.01,0.029-0.03,0.029v0.07h-0.07l-0.06,0.03c-0.02,0-0.03,0.01-0.03,0.03h-0.04l-0.09,0.1h-0.1l-0.06,0.1v0.03h-0.1
						l-0.03,0.03h-0.07v0.03h-0.06l-0.07,0.06h-0.1v0.04h-0.13v0.03h-0.06l-0.03,0.029h-0.1v0.03h-0.03v0.04h-0.1v0.06h-0.13v0.03
						h-0.13v0.04h-0.1v0.03h-0.35v0.03h-0.1v0.06h-0.39v-0.07h-0.55l-0.03-0.029h-0.04l-0.03-0.03h-0.1V20.3h-0.1l-0.03-0.03h-0.1
						l-0.03-0.069h-0.16v-0.03h-0.03v-0.03h-0.04V20.11h-0.03v-0.03h-0.03v-0.04h-0.23l-0.06-0.06h-0.03v-0.03h-0.07v-0.04h-0.1
						l-0.03-0.03h-0.03l-0.03-0.03h-0.04v-0.06h-0.03l-0.06-0.04h-0.04l-0.03-0.03h-0.03V19.69h-0.03l-0.13-0.131h-0.04V19.53
						l-0.13-0.101h-0.03v-0.06l-0.06-0.07v-0.03l-0.03-0.029v-0.07l-0.07-0.03v-0.06l-0.03-0.03v-0.13l-0.03-0.04V18.69l-0.03-0.03
						V18.4l0.03-0.07v-0.16l0.03-0.06v-0.07l0.03-0.03V17.98l0.07-0.07V17.85l0.03-0.029v-0.03l0.16-0.17v-0.03l0.13-0.16
						c0.02,0,0.03-0.01,0.03-0.029l0.07-0.03h0.03v1.29l0.03,0.04v0.189l0.04,0.03v0.16l0.03,0.03v0.069l0.06,0.061v0.069h0.03
						v0.061l0.04,0.06v0.03h0.03v0.07l0.03,0.029v0.101h0.03v0.03h0.62v-0.65l-0.03-0.03V18.65h0.03v-0.16
						c0-0.021,0.02-0.03,0.07-0.03V18.3c0-0.02,0.01-0.03,0.03-0.03V18.2h0.03v-0.23h0.03v-0.13h0.03v-0.06l0.07-0.04v-0.07
						c0-0.02,0.01-0.03,0.03-0.03V17.61h0.03v-0.07l0.04-0.06V17.42l0.03-0.03v-0.04c0-0.02,0.01-0.029,0.03-0.029V17.26h0.07v-0.04
						c0-0.01,0.01-0.029,0.03-0.029v-0.03l0.03-0.03v-0.07c0.02,0,0.03,0,0.03-0.02c0-0.021,0.01-0.03,0.04-0.03h3.14
						c0.04,0,0.08,0.01,0.1,0.03l0.06,0.1h0.07l0.1,0.061h0.03v0.03l0.03,0.039h0.03l0.07,0.061v0.03l0.16,0.199v0.03l0.06,0.03
						v0.03l0.04,0.029v0.07l0.03,0.03v0.029l0.03,0.04v0.061c0.02,0,0.03,0.02,0.03,0.06v0.07l0.07,0.03v0.1
						c0.02,0,0.03,0.01,0.03,0.03V18.43z M19.075,19.95c0.04-0.021,0.11-0.04,0.2-0.061h-0.17
						C19.085,19.91,19.075,19.93,19.075,19.95z M19.105,19.89c-0.02,0.021-0.03,0.04-0.03,0.061c0.04-0.021,0.11-0.04,0.2-0.061
						H19.105z M19.105,19.89c-0.02,0.021-0.03,0.04-0.03,0.061c0.04-0.021,0.11-0.04,0.2-0.061H19.105z"/>
				</g>
			</g>
		</g>
	</g>
	<g>
		
			<linearGradient id="SVGID_2_" gradientUnits="userSpaceOnUse" x1="-849.9028" y1="43.2744" x2="-850.4985" y2="43.2744" gradientTransform="matrix(34.5122 0 0 13.1527 29365.2578 -556.8325)">
			<stop  offset="0" style="stop-color:#00FFFF"/>
			<stop  offset="0.6495" style="stop-color:#FFE3A0"/>
		</linearGradient>
		<path fill="url(#SVGID_2_)" d="M21.005,7.5h-0.4c-0.03,0-0.04,0.01-0.04,0.03c-0.11,0.02-0.21,0.05-0.32,0.07
			c-0.02,0.02-0.04,0.06-0.07,0.13c-0.24,0.02-0.46,0.04-0.68,0.06c-0.02,0.02-0.05,0.07-0.1,0.13c-0.17,0.02-0.33,0.04-0.48,0.06
			c-0.02,0.03-0.04,0.05-0.07,0.07h-0.06v0.07c-0.02,0-0.04,0.01-0.07,0.03c-0.02,0-0.04,0.01-0.06,0.03
			c-0.07,0-0.12,0.01-0.16,0.03c-0.11,0-0.2,0.02-0.26,0.04v0.16h-0.07c-0.06,0-0.14,0.01-0.22,0.03h-0.04
			c0,0.02-0.01,0.06-0.03,0.1c-0.02,0.02-0.06,0.04-0.13,0.06c-0.04,0-0.07,0.02-0.1,0.04h-0.03v0.09
			c-0.08,0.02-0.15,0.05-0.19,0.07c-0.07,0-0.12,0.01-0.17,0.03h-0.03V8.9c-0.08,0.04-0.15,0.07-0.19,0.09
			c-0.11,0-0.23,0.01-0.36,0.03v0.07c-0.06,0.04-0.13,0.08-0.19,0.1c-0.07,0-0.12,0.01-0.17,0.03h-0.06v0.06
			c-0.07,0.03-0.13,0.06-0.2,0.1c-0.06,0-0.14,0.01-0.22,0.03v0.07c-0.05,0.02-0.09,0.05-0.13,0.1c-0.07,0-0.12,0-0.16,0.03h-0.04
			v0.06c-0.08,0.02-0.15,0.04-0.19,0.07c-0.09,0-0.16,0.02-0.23,0.06v0.07c-0.09,0.02-0.15,0.04-0.19,0.07
			c-0.07,0-0.11,0.02-0.13,0.07h-0.04v0.06c-0.04,0.02-0.09,0.05-0.16,0.07c-0.06,0-0.13,0.02-0.19,0.06v0.07
			c-0.02,0.02-0.04,0.04-0.07,0.06c-0.08,0-0.15,0.01-0.19,0.03h-0.03c0,0.05-0.01,0.08-0.04,0.1c-0.02,0.02-0.06,0.04-0.13,0.06
			c-0.04,0-0.07,0.01-0.09,0.04h-0.07v0.09c-0.04,0-0.08,0.01-0.13,0.04v0.03c-0.02,0-0.05,0.01-0.1,0.03
			c-0.02,0.02-0.04,0.06-0.06,0.1c-0.02,0.02-0.04,0.04-0.07,0.06c-0.06,0-0.12,0.01-0.16,0.03h-0.03v0.1
			c-0.09,0.02-0.16,0.04-0.23,0.07c-0.06,0-0.1,0.01-0.13,0.03h-0.03v0.06c-0.03,0-0.08,0.02-0.13,0.05
			c6.96,1.04,13.04,3.01,18.24,5.93c0.13-0.01,0.26-0.02,0.38-0.02V17h0.16v-0.16c0.02,0,0.06-0.01,0.1-0.04v-0.06
			c0.02-0.021,0.05-0.05,0.1-0.101c0.02,0,0.05-0.01,0.09-0.029c0.02,0,0.04-0.011,0.04-0.03c0.04,0,0.06-0.01,0.06-0.03
			c0.04-0.03,0.09-0.05,0.13-0.07c0.02-0.02,0.03-0.04,0.05-0.05C28.765,12.99,25.095,10.02,21.005,7.5z"/>
	</g>
	<g>
		<linearGradient id="SVGID_3_" gradientUnits="userSpaceOnUse" x1="48.9971" y1="10.6929" x2="33.8212" y2="10.6929">
			<stop  offset="0" style="stop-color:#00FFFF"/>
			<stop  offset="0.8219" style="stop-color:#FFE3A0"/>
		</linearGradient>
		<path fill="url(#SVGID_3_)" d="M42.258,8.22c0.01-0.01,0.01,0,0.01,0c2.05,1.5,3.99,3.15,5.83,4.95
			c-4.23-2.36-8.99-4.02-14.26-4.95c-0.011,0-0.011,0-0.021,0H42.258z"/>
	</g>
	<g>
		<g>
			<g>
				<g>
					<g>
						<linearGradient id="SVGID_4_" gradientUnits="userSpaceOnUse" x1="28.3818" y1="38.6328" x2="55.5018" y2="-8.3404">
							<stop  offset="0" style="stop-color:#BB925B"/>
							<stop  offset="0.3429" style="stop-color:#FFF6DA"/>
							<stop  offset="0.6571" style="stop-color:#FFF1B1"/>
							<stop  offset="1" style="stop-color:#B38B54"/>
						</linearGradient>
						<path fill="url(#SVGID_4_)" d="M33.979,8.5c0.149,0.364,0.507,0.62,0.925,0.62h0.09c0.06,0,0.118-0.005,0.174-0.015
							c0.138,0.069,0.291,0.105,0.446,0.105h6.86c2.167,0,4.347,0,6.533,0.01c0.937-0.003,1.871-0.004,2.808-0.004l2.81,0.002
							l2.82,0.002c8.707,0,17.423,0.009,26.14,0.028v1.111h-1.36c-0.553,0-1,0.448-1,1v0.55c0,0.283,0.114,0.563,0.314,0.768
							c0.005,0.005,0.04,0.04,0.045,0.045c0.188,0.184,0.439,0.287,0.701,0.287c0.124,0,0.248,0.007,0.358,0.021
							c0.044,0.006,0.088,0.009,0.132,0.009c0.173,0,0.343-0.045,0.492-0.13h0.058v1.355c-0.138-0.004-0.273-0.009-0.407-0.015
							c-0.014,0-0.025-0.001-0.038-0.001c-0.078,0-0.155,0.01-0.231,0.03h-0.163c-0.204,0-0.392,0.055-0.55,0.151
							c-0.177,0.081-0.33,0.212-0.438,0.376c-0.037,0.058-0.074,0.118-0.111,0.194c-0.033,0.068-0.059,0.139-0.076,0.213
							c-0.013,0.018-0.025,0.037-0.037,0.057c-0.022,0.025-0.043,0.051-0.063,0.078c-0.028,0.029-0.056,0.06-0.081,0.091
							c-0.054,0.053-0.101,0.112-0.14,0.175c-0.039,0.039-0.073,0.079-0.104,0.121c-0.006,0.007-0.012,0.015-0.018,0.024
							c-0.023,0.012-0.045,0.025-0.067,0.04h-0.037c-0.221,0-0.425,0.072-0.591,0.193c-6.256,0.025-12.914,0.038-20.329,0.038
							c-0.234,0-0.45,0.081-0.62,0.215c-0.082-0.001-0.165-0.002-0.248-0.004c-0.07-0.081-0.156-0.151-0.252-0.207
							c-0.143-0.083-0.295-0.139-0.453-0.169c-0.088-0.056-0.185-0.098-0.288-0.124c-0.021-0.011-0.044-0.021-0.066-0.03
							c-0.158-0.112-0.349-0.182-0.552-0.191c-0.168-0.125-0.375-0.2-0.601-0.2H46.581c-0.101-0.446-0.499-0.78-0.976-0.78h-2.431
							c-0.374,0-0.699,0.205-0.871,0.508c-0.24,0.046-0.449,0.178-0.594,0.362c-0.021,0-0.041-0.001-0.061-0.001
							c-0.183-0.231-0.466-0.379-0.784-0.379h-7.87c-0.113,0-0.257,0.018-0.411,0.083c-0.061,0.013-0.119,0.032-0.176,0.055
							c-0.067,0.02-0.131,0.044-0.187,0.071c-0.042,0.02-0.097,0.046-0.159,0.084c-0.013,0.003-0.025,0.006-0.038,0.009
							c-0.105,0.017-0.208,0.049-0.303,0.097l-0.047,0.022c-0.144,0.058-0.27,0.146-0.37,0.256c-0.132,0.051-0.253,0.13-0.354,0.233
							L30.89,16c-0.003,0.003-0.038,0.038-0.041,0.042c-0.013,0.013-0.025,0.027-0.038,0.041c-0.04,0.034-0.076,0.071-0.11,0.111
							c-0.083,0.005-0.159,0.014-0.233,0.025l-0.012,0.001c-0.107,0.003-0.21,0.021-0.308,0.05
							c-0.091,0.011-0.185,0.028-0.278,0.054c-0.074,0.005-0.147,0.013-0.223,0.026c-0.098,0.004-0.19,0.021-0.272,0.044
							c-0.081,0.013-0.159,0.034-0.235,0.063c-0.01,0.003-0.02,0.006-0.03,0.009c-0.068,0.01-0.134,0.025-0.196,0.046
							c-0.082,0.021-0.16,0.052-0.233,0.092c-0.03,0.005-0.059,0.012-0.086,0.019c-0.049,0.007-0.096,0.015-0.139,0.024
							c-0.063,0.008-0.125,0.02-0.185,0.038c-0.141,0.024-0.271,0.077-0.384,0.151c-0.054,0.016-0.107,0.035-0.157,0.059
							c-0.066,0.018-0.124,0.04-0.174,0.063C27.5,16.977,27.45,17,27.405,17.022c-0.007,0.003-0.015,0.006-0.023,0.009
							c-0.044,0.014-0.088,0.029-0.131,0.049c-0.029,0.009-0.057,0.02-0.085,0.03c-0.001,0.001-0.002,0.001-0.003,0.001
							c-0.141,0.029-0.271,0.087-0.388,0.17c-0.024,0.01-0.049,0.02-0.073,0.03c-0.074,0.019-0.144,0.046-0.21,0.079
							c-0.065,0.027-0.13,0.061-0.193,0.104c-0.016,0.007-0.031,0.014-0.046,0.021c-0.02,0.008-0.039,0.018-0.057,0.025
							c-0.097,0.037-0.188,0.086-0.271,0.147c-0.001,0.001-0.002,0.002-0.004,0.003c-0.01,0.004-0.021,0.009-0.031,0.014
							c-0.093,0.035-0.181,0.084-0.261,0.146c-0.048,0.025-0.094,0.055-0.137,0.088c-0.03,0.014-0.06,0.027-0.088,0.043
							c-0.078,0.029-0.15,0.068-0.218,0.115c-0.068,0.021-0.133,0.049-0.195,0.084c-0.017,0.008-0.034,0.017-0.05,0.025
							c-0.013,0.004-0.025,0.01-0.037,0.014V18.2c0-0.096-0.014-0.188-0.041-0.278c-0.021-0.143-0.073-0.277-0.15-0.396
							c-0.001-0.002-0.002-0.005-0.003-0.008c-0.008-0.021-0.018-0.045-0.027-0.066c-0.021-0.078-0.051-0.153-0.09-0.225
							c-0.053-0.124-0.13-0.236-0.228-0.329l-0.024-0.031c-0.058-0.11-0.137-0.21-0.234-0.294l-0.07-0.061
							c-0.002-0.002-0.005-0.004-0.008-0.006c-0.082-0.082-0.178-0.15-0.283-0.201l-0.011-0.007
							c-0.205-0.186-0.476-0.288-0.771-0.288h-3.14c-0.331,0-0.621,0.146-0.81,0.376c-0.056,0.061-0.104,0.129-0.144,0.204
							c-0.178-0.138-0.4-0.22-0.637-0.22c-0.137,0-0.272,0.028-0.398,0.083l-0.069,0.03c-0.12,0.052-0.225,0.125-0.313,0.214
							c-0.034,0.031-0.066,0.066-0.096,0.103l-0.13,0.16c-0.025,0.032-0.049,0.065-0.071,0.103l-0.041,0.043
							c-0.059,0.063-0.108,0.135-0.149,0.213c-0.029,0.047-0.055,0.096-0.076,0.147c-0.008,0.013-0.015,0.026-0.022,0.04
							c-0.072,0.113-0.121,0.242-0.142,0.376c0,0.002-0.001,0.004-0.002,0.006c-0.013-0.017-0.026-0.033-0.041-0.049
							c-0.017-0.04-0.036-0.077-0.058-0.114c-0.052-0.125-0.129-0.238-0.228-0.334c-0.013-0.021-0.026-0.041-0.04-0.061
							c-0.066-0.108-0.152-0.203-0.253-0.279L16,16.934c-0.029-0.056-0.063-0.107-0.102-0.156c-0.058-0.08-0.127-0.152-0.207-0.212
							c-0.033-0.044-0.069-0.084-0.109-0.122l-0.2-0.189c-0.186-0.175-0.432-0.273-0.688-0.273h-0.58
							c-0.108,0-0.214,0.018-0.316,0.051c-0.044,0.006-0.087,0.012-0.129,0.02c-0.141-0.071-0.3-0.111-0.465-0.111
							c-0.188,0-0.364,0.055-0.515,0.15c-0.174,0.057-0.332,0.146-0.471,0.266c-0.103,0.044-0.199,0.103-0.284,0.175
							c-0.004,0.003-0.008,0.005-0.012,0.008c-0.004,0.001-0.008,0.003-0.012,0.004c-0.143,0.049-0.273,0.13-0.379,0.235
							c-0.046,0.023-0.09,0.051-0.132,0.081c-0.022,0.007-0.044,0.016-0.066,0.024c-0.113,0.047-0.198,0.101-0.262,0.146
							c-0.047,0.03-0.091,0.064-0.132,0.102c-0.022,0.01-0.042,0.02-0.062,0.028c-0.106,0.048-0.203,0.108-0.289,0.183
							c-0.049,0.023-0.097,0.05-0.143,0.08c-0.056,0.037-0.108,0.079-0.156,0.126c-0.071,0.033-0.138,0.075-0.198,0.124
							c-0.104,0.049-0.201,0.115-0.283,0.198c-0.147,0.11-0.26,0.251-0.333,0.409c-0.111,0.064-0.199,0.135-0.267,0.193
							c-0.004,0.004-0.009,0.008-0.014,0.014c-0.029,0.018-0.057,0.037-0.083,0.059c-0.101,0.07-0.191,0.157-0.263,0.254
							c-0.007,0.007-0.014,0.014-0.021,0.021c-0.01,0.01-0.02,0.021-0.029,0.03c-0.055,0.036-0.106,0.077-0.153,0.123l-0.06,0.06
							c-0.03,0.03-0.059,0.061-0.084,0.093c-0.041,0.029-0.08,0.063-0.116,0.098c-0.052,0.051-0.094,0.102-0.129,0.15
							c-0.01,0.01-0.021,0.02-0.031,0.029c-0.057,0.056-0.107,0.116-0.15,0.18c-0.028,0.022-0.055,0.046-0.08,0.07
							c-0.047,0.046-0.087,0.093-0.12,0.138c-0.013,0.011-0.025,0.021-0.038,0.032c-0.037,0.03-0.072,0.062-0.102,0.09
							c-0.023,0.023-0.048,0.051-0.071,0.08c-0.03,0.024-0.061,0.051-0.089,0.08c-0.061,0.06-0.114,0.125-0.159,0.196
							c-0.101,0.082-0.186,0.183-0.248,0.296c-0.024,0.024-0.047,0.051-0.068,0.077c-0.17,0.116-0.303,0.284-0.375,0.481
							c-0.007,0.007-0.014,0.014-0.02,0.02c-0.027,0.026-0.084,0.082-0.146,0.167c-0.062,0.057-0.117,0.121-0.163,0.192
							c-0.125,0.126-0.217,0.284-0.261,0.46c-0.001,0.002-0.002,0.003-0.002,0.005c-0.003,0.007-0.006,0.013-0.01,0.019
							c-0.011,0.014-0.021,0.027-0.031,0.041c-0.129,0.138-0.199,0.285-0.236,0.415c-0.003,0.006-0.006,0.012-0.009,0.018
							c-0.091,0.113-0.157,0.245-0.192,0.386c-0.021,0.037-0.04,0.076-0.057,0.116c-0.065,0.071-0.119,0.15-0.161,0.235
							c-0.031,0.046-0.058,0.093-0.081,0.143c-0.085,0.105-0.149,0.229-0.187,0.363c-0.006,0.013-0.012,0.025-0.017,0.039
							c-0.141-0.003-0.281-0.006-0.421-0.01c-0.088-0.063-0.188-0.111-0.293-0.143c-0.041-0.037-0.083-0.07-0.129-0.1
							c-0.106-0.115-0.24-0.206-0.391-0.261c-0.067-0.062-0.143-0.113-0.223-0.153c-0.034-0.034-0.071-0.066-0.109-0.096
							c-0.042-0.043-0.086-0.082-0.133-0.117L3.41,22.821c-0.004-0.005-0.008-0.009-0.013-0.014
							c-0.073-0.107-0.17-0.203-0.278-0.277c-0.005-0.005-0.011-0.011-0.016-0.016c-0.01-0.01-0.02-0.02-0.03-0.028
							c-0.06-0.101-0.138-0.19-0.231-0.266c-0.021-0.017-0.042-0.033-0.064-0.05c-0.025-0.025-0.051-0.05-0.078-0.073
							c-0.033-0.045-0.069-0.087-0.107-0.125l-0.039-0.038c-0.022-0.021-0.046-0.043-0.072-0.063
							c-0.022-0.028-0.045-0.055-0.07-0.08c-0.015-0.016-0.031-0.031-0.046-0.045c-0.05-0.08-0.105-0.146-0.156-0.198
							c-0.002-0.002-0.034-0.034-0.036-0.036c-0.026-0.026-0.053-0.051-0.082-0.073c-0.019-0.024-0.039-0.047-0.061-0.069
							c-0.055-0.174-0.155-0.328-0.289-0.446c-0.017-0.028-0.036-0.057-0.056-0.083v-0.687c0.17,0.136,0.386,0.216,0.62,0.216
							c0.384,0,0.717-0.216,0.885-0.533c0.119-0.175,0.185-0.381,0.185-0.597c0-0.553-0.448-1-1-1h-0.07
							c-0.203,0-0.393,0.061-0.55,0.165V14.71c0-0.127-0.024-0.251-0.07-0.367V14.06h0.116c0.074,0.074,0.16,0.136,0.257,0.185
							c0.027,0.013,0.056,0.027,0.098,0.046c0.042,0.042,0.089,0.082,0.143,0.122c0.047,0.035,0.097,0.066,0.149,0.092
							c0.013,0.006,0.026,0.012,0.039,0.018c0.142,0.1,0.282,0.171,0.408,0.213c0.067,0.044,0.141,0.081,0.218,0.108
							c0.092,0.056,0.193,0.098,0.299,0.122c0.065,0.015,0.132,0.027,0.201,0.037c0.071,0.032,0.148,0.056,0.228,0.071
							c0.029,0.007,0.055,0.021,0.079,0.031c0.127,0.057,0.266,0.086,0.405,0.086h1.13c0.128,0,0.285-0.038,0.404-0.085
							c0.046-0.019,0.102-0.03,0.161-0.045c0.042-0.011,0.084-0.024,0.125-0.041c0.021-0.008,0.042-0.017,0.061-0.026
							c0.02-0.001,0.04-0.002,0.06-0.002c0.14,0,0.279-0.029,0.407-0.086c0.008-0.003,0.03-0.013,0.072-0.02
							c0.097-0.018,0.19-0.049,0.277-0.094c0.042-0.001,0.084-0.004,0.125-0.01c0.218-0.031,0.404-0.088,0.553-0.134
							c0.042-0.013,0.082-0.028,0.121-0.046c0.099-0.002,0.197-0.02,0.291-0.051c0.095-0.032,0.225-0.091,0.352-0.154
							c0.024-0.013,0.049-0.026,0.072-0.04c0.081-0.018,0.153-0.036,0.215-0.053c0.108-0.031,0.21-0.08,0.3-0.143
							c0.05-0.011,0.103-0.021,0.158-0.03c0.149-0.023,0.289-0.079,0.41-0.161c0.052-0.011,0.106-0.022,0.167-0.034
							c0.145-0.026,0.278-0.083,0.393-0.163c0.07-0.021,0.142-0.042,0.231-0.071c0.115-0.038,0.219-0.095,0.31-0.167
							c0.129-0.031,0.247-0.086,0.349-0.16c0.014-0.005,0.028-0.01,0.042-0.015c0.021-0.009,0.042-0.018,0.072-0.026
							c0.172-0.049,0.323-0.143,0.442-0.265c0.055-0.032,0.112-0.07,0.167-0.115c0.158-0.038,0.305-0.113,0.428-0.222
							c0.124-0.045,0.236-0.114,0.332-0.201c0.032-0.021,0.063-0.043,0.093-0.068c0.117-0.033,0.227-0.088,0.325-0.162
							c0.031-0.023,0.063-0.047,0.099-0.075c0.036-0.023,0.068-0.047,0.097-0.07c0.02-0.013,0.04-0.026,0.059-0.04
							c0.055-0.025,0.107-0.054,0.157-0.088c0.014-0.004,0.028-0.007,0.044-0.01c0.167-0.037,0.316-0.115,0.438-0.221
							c0.032-0.017,0.063-0.035,0.092-0.055c0.09-0.061,0.154-0.119,0.215-0.18c0.092-0.042,0.177-0.098,0.252-0.164
							c0.073-0.034,0.14-0.073,0.201-0.118c0.085-0.028,0.167-0.068,0.242-0.119c0.062-0.042,0.111-0.082,0.155-0.122
							c0.066-0.028,0.119-0.055,0.154-0.074c0.076-0.038,0.145-0.084,0.208-0.139c0.113-0.035,0.217-0.089,0.308-0.158
							c0.023-0.009,0.045-0.019,0.068-0.03c0.092-0.024,0.178-0.06,0.257-0.106c0.13-0.042,0.251-0.11,0.354-0.202
							c0.064-0.021,0.127-0.049,0.187-0.083c0.035-0.02,0.065-0.035,0.1-0.05c0.027-0.012,0.053-0.024,0.078-0.038
							c0.024-0.006,0.047-0.013,0.07-0.021c0.107-0.036,0.218-0.087,0.33-0.154c0.133-0.016,0.277-0.062,0.389-0.117
							c0.043-0.02,0.096-0.044,0.153-0.073c0.033-0.017,0.065-0.035,0.096-0.055c0.03-0.011,0.06-0.024,0.089-0.039
							c0.177-0.044,0.333-0.135,0.458-0.256c0.027-0.015,0.054-0.03,0.079-0.046c0.198-0.032,0.376-0.121,0.517-0.251
							c0.078-0.021,0.153-0.05,0.224-0.089c0,0,0.001,0,0.002-0.001c0.084-0.032,0.164-0.075,0.235-0.127
							c0.046-0.005,0.093-0.011,0.14-0.017c0.157-0.019,0.306-0.074,0.436-0.16c0.101-0.009,0.204-0.018,0.31-0.027
							c0.199-0.017,0.388-0.099,0.542-0.225c0.002,0,0.005-0.001,0.007-0.002H33.979 M34.285,7.5h-13.68
							c-0.03,0-0.04,0.01-0.04,0.03c-0.11,0.02-0.21,0.05-0.32,0.07c-0.02,0.02-0.04,0.06-0.07,0.13c-0.24,0.02-0.46,0.04-0.68,0.06
							c-0.02,0.02-0.05,0.07-0.1,0.13c-0.17,0.02-0.33,0.04-0.48,0.06c-0.02,0.03-0.04,0.05-0.07,0.07h-0.06v0.07
							c-0.02,0-0.04,0.01-0.07,0.03c-0.02,0-0.04,0.01-0.06,0.03c-0.07,0-0.12,0.01-0.16,0.03c-0.11,0-0.2,0.02-0.26,0.04v0.16
							h-0.07c-0.06,0-0.14,0.01-0.22,0.03h-0.04c0,0.02-0.01,0.06-0.03,0.1c-0.02,0.02-0.06,0.04-0.13,0.06
							c-0.04,0-0.07,0.02-0.1,0.04h-0.03v0.09c-0.08,0.02-0.15,0.05-0.19,0.07c-0.07,0-0.12,0.01-0.17,0.03h-0.03V8.9
							c-0.08,0.04-0.15,0.07-0.19,0.09c-0.11,0-0.23,0.01-0.36,0.03v0.07c-0.06,0.04-0.13,0.08-0.19,0.1
							c-0.07,0-0.12,0.01-0.17,0.03h-0.06v0.06c-0.07,0.03-0.13,0.06-0.2,0.1c-0.06,0-0.14,0.01-0.22,0.03v0.07
							c-0.05,0.02-0.09,0.05-0.13,0.1c-0.07,0-0.12,0-0.16,0.03h-0.04v0.06c-0.08,0.02-0.15,0.04-0.19,0.07
							c-0.09,0-0.16,0.02-0.23,0.06v0.07c-0.09,0.02-0.15,0.04-0.19,0.07c-0.07,0-0.11,0.02-0.13,0.07h-0.04v0.06
							c-0.04,0.02-0.09,0.05-0.16,0.07c-0.06,0-0.13,0.02-0.19,0.06v0.07c-0.02,0.02-0.04,0.04-0.07,0.06
							c-0.08,0-0.15,0.01-0.19,0.03h-0.03c0,0.05-0.01,0.08-0.04,0.1c-0.02,0.02-0.06,0.04-0.13,0.06c-0.04,0-0.07,0.01-0.09,0.04
							h-0.07v0.09c-0.04,0-0.08,0.01-0.13,0.04v0.03c-0.02,0-0.05,0.01-0.1,0.03c-0.02,0.02-0.04,0.06-0.06,0.1
							c-0.02,0.02-0.04,0.04-0.07,0.06c-0.06,0-0.12,0.01-0.16,0.03h-0.03v0.1c-0.09,0.02-0.16,0.04-0.23,0.07
							c-0.06,0-0.1,0.01-0.13,0.03h-0.03v0.06c-0.04,0-0.1,0.03-0.16,0.07v0.03c-0.02,0-0.04,0.01-0.07,0.03
							c-0.02,0.02-0.05,0.05-0.09,0.07c-0.05,0.04-0.09,0.07-0.13,0.1c-0.07,0-0.12,0-0.17,0.03h-0.03c0,0.02-0.01,0.04-0.03,0.06
							c-0.04,0.02-0.09,0.05-0.13,0.1c-0.04,0-0.09,0.01-0.13,0.03v0.07c-0.06,0-0.12,0.01-0.16,0.03l-0.1,0.1l-0.06,0.06
							c-0.09,0-0.17,0.01-0.23,0.03v0.03c-0.02,0-0.05,0.02-0.1,0.07l-0.06,0.06c-0.02,0.02-0.07,0.05-0.13,0.07
							c-0.04,0-0.08,0.02-0.1,0.06h-0.03v0.07c-0.07,0.02-0.12,0.04-0.17,0.06c-0.1,0-0.19,0.01-0.25,0.03v0.1
							c-0.09,0.02-0.15,0.04-0.2,0.06c-0.08,0-0.15,0.01-0.19,0.04v0.09c-0.09,0.03-0.16,0.05-0.23,0.07c-0.11,0-0.2,0.01-0.26,0.03
							v0.1c-0.11,0.02-0.2,0.04-0.29,0.06c-0.07,0-0.13,0.01-0.19,0.03h-0.04c0,0.03-0.01,0.06-0.03,0.1
							c-0.13,0.02-0.25,0.05-0.36,0.07c-0.04,0-0.08,0.01-0.13,0.03h-0.06c0,0.02-0.01,0.05-0.03,0.1
							c-0.07,0.02-0.16,0.04-0.26,0.06c-0.05,0-0.1,0.01-0.17,0.03h-0.03v0.07c-0.08,0.04-0.16,0.08-0.22,0.1
							c-0.13,0-0.26,0.01-0.39,0.03v0.06c-0.13,0.04-0.26,0.08-0.4,0.1c-0.13,0-0.25,0.01-0.38,0.04h-0.03
							c0,0.02-0.01,0.05-0.03,0.07c-0.11,0.02-0.21,0.05-0.3,0.09c-0.13,0-0.26,0.02-0.39,0.04h-0.03c0,0.02-0.02,0.04-0.07,0.06
							c-0.12,0.03-0.23,0.06-0.32,0.1h-1.13c-0.09-0.04-0.19-0.08-0.3-0.1v-0.06c-0.13,0-0.26-0.01-0.39-0.04
							c-0.04-0.04-0.1-0.07-0.19-0.09v-0.07c-0.07,0-0.13-0.01-0.19-0.03c-0.07-0.02-0.13-0.05-0.2-0.1v-0.06
							c-0.06,0-0.12-0.01-0.16-0.03c-0.04-0.03-0.07-0.06-0.07-0.1c-0.02-0.02-0.03-0.05-0.03-0.07c-0.04,0-0.1-0.01-0.16-0.03
							c-0.04-0.02-0.09-0.04-0.13-0.06v-0.1c-0.04,0-0.08-0.01-0.1-0.03c-0.04-0.02-0.07-0.05-0.1-0.07v-0.09h-1.62v1.61
							c0.02,0,0.05,0.02,0.07,0.04v4.83c-0.02,0.02-0.05,0.03-0.07,0.03v1.55c0,0.02,0.01,0.05,0.04,0.07
							c0,0.02,0.01,0.04,0.03,0.06v0.13c0.04,0.021,0.08,0.04,0.13,0.061v0.04c0.02,0.039,0.03,0.069,0.03,0.1
							c0.02,0.02,0.03,0.04,0.03,0.06c0.04,0.021,0.09,0.03,0.13,0.03v0.1c0,0.021,0.01,0.04,0.03,0.061c0,0.03,0.02,0.04,0.04,0.04
							v0.09c0.02,0.021,0.06,0.05,0.13,0.07l0.03,0.029c0.02,0.021,0.03,0.061,0.03,0.101c0.02,0.02,0.06,0.04,0.13,0.06l0.03,0.03
							c0.03,0.03,0.03,0.05,0.03,0.07c0.02,0.04,0.05,0.08,0.07,0.1c0.04,0.021,0.08,0.05,0.1,0.07c0,0.02,0.01,0.05,0.03,0.09
							c0.02,0.03,0.07,0.05,0.13,0.07c0.02,0.02,0.04,0.04,0.06,0.06v0.1c0.05,0.021,0.08,0.03,0.1,0.03
							c0.05,0.021,0.07,0.05,0.07,0.07c0.04,0.02,0.08,0.05,0.13,0.09v0.04c0,0.02,0.02,0.04,0.06,0.06
							c0.02,0.021,0.03,0.061,0.03,0.101c0.05,0.02,0.08,0.03,0.1,0.03c0.02,0.02,0.03,0.039,0.03,0.06
							c0.05,0.03,0.09,0.05,0.13,0.07c0.02,0.04,0.04,0.08,0.07,0.1c0,0.021,0.02,0.04,0.06,0.06c0.02,0.021,0.06,0.061,0.1,0.101
							c0.02,0.02,0.05,0.04,0.1,0.07v0.06c0.04,0.02,0.07,0.03,0.09,0.03c0.03,0.04,0.04,0.08,0.04,0.1
							c0.06,0.021,0.12,0.04,0.16,0.061c0.02,0.02,0.04,0.029,0.06,0.029l0.1,0.101c0.02,0.02,0.05,0.05,0.07,0.069
							c0.04,0.021,0.09,0.03,0.16,0.03v0.1c0.04,0.021,0.11,0.04,0.19,0.061l0.03,0.03c0.03,0.02,0.04,0.06,0.04,0.1
							c0.04,0.021,0.1,0.04,0.19,0.06c0.02,0.021,0.07,0.03,0.13,0.03v0.07c0.05,0.04,0.1,0.07,0.16,0.1
							c0.54,0.021,1.08,0.03,1.63,0.03v-0.2h0.13v-0.42c0.02-0.02,0.04-0.04,0.06-0.06V23.97c0.02,0,0.04-0.01,0.07-0.029
							c0-0.021,0.02-0.04,0.06-0.08V23.76c0.03-0.02,0.04-0.04,0.04-0.06c0.02-0.021,0.03-0.04,0.03-0.061
							c0.02-0.02,0.06-0.04,0.13-0.04v-0.09c0-0.02,0.01-0.05,0.03-0.069c0-0.021,0.01-0.051,0.03-0.101c0.02,0,0.06-0.01,0.1-0.03
							v-0.22c0.04-0.03,0.06-0.05,0.06-0.07c0.03,0,0.04-0.01,0.04-0.029c0-0.04,0.01-0.08,0.03-0.101
							c0.02-0.02,0.03-0.04,0.03-0.06c0.02-0.021,0.03-0.061,0.03-0.1c0-0.021,0.03-0.04,0.07-0.061c0-0.02,0.01-0.05,0.03-0.07
							c0.02,0,0.05-0.01,0.1-0.029v-0.13c0.02-0.021,0.03-0.04,0.03-0.061c0.04-0.05,0.06-0.08,0.06-0.1v-0.07
							c0.05-0.01,0.08-0.04,0.1-0.06c0.02-0.04,0.03-0.08,0.03-0.101c0.05,0,0.07-0.01,0.07-0.03c0-0.02,0.01-0.039,0.03-0.06
							c0.02-0.05,0.05-0.08,0.07-0.1c0.02-0.021,0.04-0.04,0.06-0.061c0.04-0.02,0.08-0.05,0.1-0.069c0-0.04,0.01-0.08,0.03-0.101
							c0.02-0.02,0.04-0.04,0.07-0.06V21.47c0.04,0,0.07-0.01,0.09-0.029c0.03-0.021,0.05-0.04,0.07-0.061
							c0-0.03,0.01-0.05,0.03-0.07c0.02-0.04,0.06-0.079,0.1-0.1c0.02-0.02,0.04-0.04,0.06-0.06c0.02-0.021,0.03-0.051,0.03-0.101
							c0.07-0.02,0.11-0.04,0.13-0.06c0.03-0.021,0.04-0.04,0.04-0.07c0.02,0,0.03-0.01,0.03-0.03c0-0.04,0.01-0.08,0.03-0.1
							c0.02-0.021,0.06-0.04,0.1-0.06c0.02-0.021,0.04-0.061,0.06-0.101c0.02-0.02,0.05-0.04,0.07-0.06
							c0.04-0.021,0.08-0.03,0.13-0.03v-0.07c0.02-0.04,0.04-0.08,0.06-0.1c0.03-0.021,0.07-0.03,0.13-0.03v-0.06
							c0.02-0.05,0.05-0.08,0.07-0.101c0-0.02,0.01-0.04,0.03-0.06c0.04-0.03,0.07-0.05,0.1-0.08c0.02-0.04,0.04-0.08,0.06-0.1
							c0.02,0,0.06-0.011,0.1-0.03c0.02-0.021,0.04-0.04,0.07-0.061c0.02-0.05,0.03-0.08,0.03-0.1c0.02-0.02,0.04-0.04,0.06-0.06
							c0.05-0.03,0.09-0.051,0.13-0.07c0.02-0.04,0.05-0.08,0.07-0.101c0.04-0.02,0.06-0.039,0.06-0.06
							c0.02-0.02,0.04-0.05,0.07-0.1c0.02,0,0.04-0.011,0.06-0.03h0.1V19.27l0.03-0.039c0.07-0.061,0.14-0.11,0.23-0.131
							c0.04-0.04,0.1-0.1,0.16-0.159c0.02-0.021,0.04-0.04,0.06-0.061c0.03-0.02,0.05-0.04,0.07-0.04v-0.13
							c0-0.02,0.02-0.04,0.06-0.06c0.03-0.021,0.05-0.04,0.07-0.07c0.04,0,0.1-0.021,0.16-0.061l0.03-0.029v-0.03
							c0.05-0.02,0.1-0.04,0.17-0.04l0.06-0.09c0.02-0.021,0.04-0.05,0.06-0.07c0.03-0.02,0.07-0.029,0.13-0.029l0.04-0.03
							c0.02,0,0.03-0.01,0.03-0.03c0.02-0.05,0.05-0.08,0.1-0.1c0.04-0.021,0.09-0.04,0.16-0.07c0.06,0,0.12-0.01,0.16-0.03v-0.1
							c0.02-0.01,0.05-0.04,0.1-0.061c0.06,0,0.12-0.01,0.16-0.029v-0.03c0.04,0,0.08-0.02,0.1-0.07
							c0.02-0.02,0.05-0.029,0.09-0.029l0.07-0.03c0.02,0,0.03-0.01,0.03-0.03c0.02-0.03,0.04-0.06,0.07-0.1
							c0.06-0.021,0.12-0.03,0.16-0.03l0.06-0.07c0.02-0.02,0.06-0.04,0.1-0.06c0.02-0.04,0.06-0.061,0.1-0.061l0.03-0.039
							c0.04,0,0.08-0.011,0.1-0.03c0.02-0.021,0.04-0.04,0.06-0.061c0.05-0.05,0.1-0.08,0.16-0.1c0.05,0,0.1-0.01,0.17-0.03
							l0.03-0.04V16.94h0.03v0.29c0.05-0.021,0.08-0.03,0.1-0.03c0.04-0.021,0.09-0.04,0.13-0.061c0.17-0.069,0.37-0.109,0.58-0.13
							c0.02,0,0.04-0.01,0.07-0.029h0.58l0.2,0.189v0.03c0.02,0,0.03,0.01,0.03,0.03l0.1,0.13h0.06c0,0.02,0.01,0.04,0.03,0.04v0.06
							h0.04v0.03l0.29,0.319c0,0.03,0.02,0.04,0.06,0.04v0.03l0.04,0.03v0.07l0.16,0.13v0.06l0.06,0.061v0.039l0.03,0.03v0.03
							l0.04,0.08v0.06h0.06l0.04,0.03v0.04l0.06,0.1v0.03l0.03,0.03v0.03l0.1,0.1v0.06c0.02,0,0.03,0.021,0.03,0.04l0.03,0.03v0.06
							l0.07,0.07v0.03c0.04,0,0.08,0.01,0.1,0.03v0.029l0.03,0.07v0.03l0.03,0.029v0.03h0.04l0.03,0.04v0.061l0.06,0.029v0.03h0.03
							v0.04l0.07,0.09v0.03l0.1,0.07v0.029h0.03v0.03h0.03v0.07l0.07,0.06v0.01h0.03v0.03l0.13,0.13h0.03l0.03,0.04v0.03h0.07v0.03
							h0.03v0.06h0.03v0.04h0.03v0.03h0.04v0.029h0.09v0.03h0.04l0.06,0.101h0.04v0.039h0.09l0.03,0.03h0.07l0.03,0.03h0.1v0.03
							h0.06l0.03,0.06h0.07l0.03,0.04h0.07l0.03,0.03h0.03l0.07,0.029h0.09v0.03h0.1l0.03,0.07h0.1l0.03,0.03h0.1l0.03,0.01h0.13
							v0.03h0.07l0.03,0.04h0.23l0.03,0.029h0.16l0.03,0.061h0.13V21.1h0.17l0.03,0.04h1.17c0.11-0.02,0.21-0.04,0.32-0.04h0.03
							c0.05-0.02,0.1-0.029,0.17-0.029h0.03c0.02-0.04,0.06-0.061,0.13-0.061h0.03c0.07-0.02,0.15-0.029,0.26-0.029
							c0.04-0.021,0.09-0.04,0.13-0.04h0.03c0.02-0.021,0.06-0.03,0.1-0.03h0.06c0.03-0.021,0.05-0.03,0.07-0.03h0.03
							c0.02-0.02,0.05-0.03,0.07-0.03h0.06c0-0.05,0.01-0.069,0.03-0.069h0.04c0.02-0.021,0.06-0.03,0.13-0.03h0.03
							c0-0.02,0.01-0.03,0.03-0.03h0.03c0.02-0.02,0.05-0.029,0.07-0.029c0.04-0.021,0.07-0.03,0.1-0.03h0.03
							c0.02-0.05,0.05-0.07,0.07-0.07c0.04-0.02,0.07-0.03,0.09-0.03h0.04c0.02-0.02,0.04-0.029,0.06-0.029
							c0.02-0.021,0.06-0.03,0.1-0.03c0.02-0.02,0.04-0.04,0.06-0.04h0.03c0-0.02,0.02-0.03,0.04-0.03h0.06
							c0-0.04,0.01-0.06,0.03-0.06h0.04c0-0.021,0.01-0.03,0.03-0.03l0.13-0.1h0.03c0-0.04,0.01-0.07,0.03-0.07l0.13-0.09h0.03
							c0-0.03,0.01-0.03,0.04-0.03c0.02,0,0.03-0.02,0.03-0.04c0.02-0.04,0.04-0.06,0.06-0.06l0.1-0.07h0.03
							c0-0.02,0.01-0.03,0.04-0.03h0.03c0-0.02,0.02-0.029,0.06-0.029h0.04c0-0.04,0.01-0.061,0.03-0.061v-0.04h0.03
							c0-0.02,0.01-0.029,0.03-0.029h0.04c0-0.021,0.02-0.03,0.06-0.03h0.03c0-0.021,0.01-0.03,0.03-0.03s0.04-0.01,0.04-0.03h0.03
							c0-0.05,0.02-0.069,0.07-0.069c0.02,0,0.03-0.011,0.03-0.03h0.03c0-0.02,0.01-0.03,0.03-0.03s0.03-0.01,0.03-0.029h0.04
							c0-0.03,0.02-0.04,0.06-0.04h0.03c0-0.04,0.02-0.061,0.04-0.061l0.06-0.06h0.07c0-0.03,0.01-0.03,0.03-0.03h0.03
							c0-0.03,0.01-0.04,0.03-0.04s0.04-0.02,0.04-0.06h0.06c0-0.021,0.01-0.03,0.03-0.03h0.04c0-0.021,0.01-0.04,0.03-0.04h0.03
							c0-0.021,0.01-0.03,0.03-0.03h0.07c0-0.02,0.01-0.03,0.03-0.03h0.03c0.02-0.02,0.04-0.029,0.07-0.029
							c0.04,0,0.06-0.021,0.06-0.07h0.03c0.03-0.02,0.05-0.03,0.07-0.03s0.03-0.01,0.03-0.029h0.03c0.05-0.021,0.08-0.03,0.1-0.03
							s0.03-0.01,0.03-0.04h0.04c0-0.04,0.01-0.06,0.03-0.06h0.06V18.7l0.07-0.061h0.03c0.02-0.029,0.06-0.04,0.13-0.04
							c0.02,0,0.03-0.01,0.03-0.029h0.04c0-0.04,0.01-0.061,0.03-0.061c0.02-0.029,0.05-0.04,0.1-0.04c0.02,0,0.03-0.01,0.03-0.029
							h0.03c0-0.021,0.01-0.03,0.03-0.03h0.03c0.03-0.021,0.06-0.03,0.1-0.03c0.02-0.05,0.04-0.07,0.07-0.07h0.03
							c0-0.02,0.01-0.029,0.03-0.029h0.07c0-0.021,0.01-0.03,0.03-0.03h0.03c0-0.02,0.01-0.03,0.03-0.03h0.04
							c0.02-0.02,0.05-0.029,0.09-0.029c0.02,0,0.03-0.021,0.03-0.04h0.04c0.02-0.04,0.04-0.061,0.06-0.061h0.07
							c0-0.02,0.01-0.03,0.03-0.03h0.03c0.02-0.02,0.05-0.029,0.07-0.029h0.03l0.06-0.04h0.04c0.02-0.021,0.04-0.03,0.06-0.03h0.03
							c0.05-0.04,0.08-0.06,0.1-0.06h0.03c0.03-0.021,0.05-0.04,0.07-0.04h0.03c0.04-0.011,0.08-0.03,0.1-0.03s0.03-0.01,0.03-0.03
							h0.03c0.02-0.02,0.06-0.03,0.1-0.03h0.03c0.02-0.02,0.05-0.029,0.07-0.029h0.03c0-0.04,0.01-0.07,0.03-0.07h0.07
							c0.02-0.02,0.04-0.03,0.06-0.03h0.03c0.07-0.02,0.12-0.029,0.17-0.029h0.03c0.02-0.021,0.07-0.03,0.13-0.03h0.03
							c0.02-0.021,0.06-0.04,0.1-0.04h0.06c0-0.04,0.02-0.06,0.04-0.06h0.03c0.02-0.021,0.06-0.03,0.13-0.03h0.03
							c0.02-0.021,0.04-0.03,0.07-0.03h0.03c0.02-0.02,0.05-0.04,0.1-0.04h0.03c0.04-0.02,0.08-0.03,0.1-0.03h0.06
							c0.09-0.02,0.17-0.029,0.26-0.029h0.03c0.11-0.04,0.21-0.061,0.3-0.061h0.06c0.02-0.029,0.05-0.04,0.1-0.04h0.03
							c0.09-0.01,0.18-0.029,0.29-0.029h0.03c0.15-0.021,0.31-0.03,0.46-0.03V17h0.16v-0.16c0.02,0,0.06-0.01,0.1-0.04v-0.06
							c0.02-0.021,0.05-0.05,0.1-0.101c0.02,0,0.05-0.01,0.09-0.029c0.02,0,0.04-0.011,0.04-0.03c0.04,0,0.06-0.01,0.06-0.03
							c0.04-0.03,0.09-0.05,0.13-0.07c0.04-0.04,0.06-0.07,0.06-0.1c0.05-0.02,0.09-0.04,0.13-0.06c0.03,0,0.07-0.01,0.13-0.03h0.1
							c0.07-0.04,0.12-0.08,0.16-0.1c0.02-0.02,0.07-0.04,0.13-0.07c0.05,0,0.08,0,0.1-0.03h0.1c0.04-0.04,0.07-0.06,0.1-0.06h7.87
							v0.29c0.03,0.02,0.05,0.04,0.07,0.06c0.54,0.03,1.06,0.04,1.56,0.04v-0.39h0.68v-0.49h2.431v0.36
							c0.02,0.02,0.05,0.04,0.1,0.06c0.04,0.05,0.07,0.09,0.09,0.14c0.07,0.02,0.12,0.04,0.17,0.06c0.021,0.02,0.05,0.04,0.09,0.07
							c0.09,0.04,0.181,0.07,0.261,0.09h10.449v0.07c0.08,0.02,0.181,0.05,0.29,0.09c0.09,0.03,0.181,0.04,0.29,0.04v0.061
							c0.07,0.02,0.13,0.04,0.2,0.06c0.04,0.051,0.1,0.07,0.19,0.07v0.06c0.09,0.021,0.17,0.04,0.26,0.07
							c0.09,0,0.16,0.021,0.229,0.061v0.319c0.54,0.021,1.08,0.03,1.62,0.03v-0.22c6.96,0,13.931-0.011,20.92-0.04V16.8h0.49v-0.06
							c0.021-0.03,0.05-0.061,0.09-0.101c0.07,0,0.12-0.01,0.16-0.029v-0.07c0.05-0.021,0.09-0.03,0.13-0.03v-0.03
							c0-0.05,0.01-0.08,0.03-0.1c0-0.02,0.02-0.04,0.04-0.07c0.04-0.02,0.07-0.05,0.1-0.09c0.021-0.02,0.03-0.05,0.03-0.07
							c0.021-0.02,0.04-0.04,0.06-0.06c0.021-0.04,0.07-0.08,0.131-0.1v-0.06c0.02,0,0.04-0.01,0.04-0.03
							c0.02-0.03,0.04-0.06,0.06-0.1c0.04-0.02,0.06-0.05,0.06-0.07c0.021-0.02,0.04-0.04,0.04-0.06c0-0.05,0.011-0.08,0.03-0.1
							c0-0.02,0.01-0.04,0.03-0.06v-0.07c0.02-0.04,0.04-0.07,0.06-0.1c0.05,0,0.08-0.01,0.101-0.03c0-0.02,0.01-0.03,0.04-0.03
							h0.39v-0.03c0.47,0.02,0.96,0.03,1.45,0.03v-3.37h-1.55v0.13c-0.15-0.02-0.32-0.03-0.49-0.03l-0.03-0.03
							c-0.02-0.02-0.03-0.05-0.03-0.07v-0.55h1.681l0.029,0.03c0.051,0.05,0.11,0.08,0.2,0.1c0-0.02,0.01-0.05,0.03-0.1
							c0.02-0.04,0.07-0.07,0.13-0.1c0.021-0.02,0.04-0.06,0.07-0.12c0.04-0.03,0.08-0.06,0.13-0.1c0.04-0.02,0.07-0.03,0.09-0.03
							V8.86c0-0.02-0.01-0.04-0.03-0.06c0.021,0,0.03-0.01,0.03-0.04V8.63c0-0.02-0.01-0.05-0.03-0.09
							c-0.02-0.05-0.04-0.09-0.06-0.13c-0.05-0.03-0.08-0.05-0.101-0.07c-0.069-0.02-0.14-0.05-0.229-0.09
							c-8.91-0.02-17.82-0.03-26.72-0.03c-1.88,0-3.756-0.004-5.63-0.004c-0.937,0-1.874,0.001-2.811,0.004
							c-2.18-0.01-4.36-0.01-6.53-0.01h-6.86c-0.04-0.02-0.09-0.04-0.13-0.06c-0.09-0.03-0.15-0.06-0.19-0.1h-0.3v0.07h-0.09v-0.1
							c-0.03-0.02-0.04-0.05-0.04-0.07c-0.02-0.04-0.04-0.08-0.06-0.13c-0.06-0.04-0.11-0.07-0.13-0.09h-0.03l-0.04-0.04
							c-0.02-0.04-0.06-0.08-0.12-0.13C34.435,7.54,34.375,7.52,34.285,7.5L34.285,7.5z M18.585,19.69h0.62v-0.65l-0.03-0.03V18.65
							h0.03v-0.16c0-0.021,0.02-0.03,0.07-0.03V18.3c0-0.02,0.01-0.03,0.03-0.03V18.2h0.03v-0.23h0.03v-0.13h0.03v-0.06l0.07-0.04
							v-0.07c0-0.02,0.01-0.03,0.03-0.03V17.61h0.03v-0.07l0.04-0.06V17.42l0.03-0.03v-0.04c0-0.02,0.01-0.029,0.03-0.029V17.26
							h0.07v-0.04c0-0.01,0.01-0.029,0.03-0.029v-0.03l0.03-0.03v-0.07c0.02,0,0.03,0,0.03-0.02c0-0.021,0.01-0.03,0.04-0.03h3.14
							c0.04,0,0.08,0.01,0.1,0.03l0.06,0.1h0.07l0.1,0.061h0.03v0.03l0.03,0.039h0.03l0.07,0.061v0.03l0.16,0.199v0.03l0.06,0.03
							v0.03l0.04,0.029v0.07l0.03,0.03v0.029l0.03,0.04v0.061c0.02,0,0.03,0.02,0.03,0.06v0.07l0.07,0.03v0.1
							c0.02,0,0.03,0.01,0.03,0.03v0.229h-0.03v0.061c-0.05,0-0.07,0.01-0.07,0.04l-0.03,0.06v0.03c-0.02,0-0.03,0.01-0.03,0.04
							v0.03c-0.02,0-0.03,0.01-0.03,0.029v0.03h-0.04v0.07l-0.06,0.029v0.04h-0.03v0.16c-0.02,0-0.04,0.01-0.04,0.03v0.03h-0.03
							v0.04c-0.02,0-0.03,0.01-0.03,0.029v0.061l-0.03,0.029h-0.07l-0.03,0.03h-0.03l-0.03,0.04c-0.02,0-0.04,0.01-0.04,0.03
							c-0.04,0-0.06,0.02-0.06,0.06h-0.07l-0.06,0.07v0.03h-0.13c0,0.02-0.01,0.029-0.03,0.029v0.07h-0.07l-0.06,0.03
							c-0.02,0-0.03,0.01-0.03,0.03h-0.04l-0.09,0.1h-0.1l-0.06,0.1v0.03h-0.1l-0.03,0.03h-0.07v0.03h-0.06l-0.07,0.06h-0.1v0.04
							h-0.13v0.03h-0.06l-0.03,0.029h-0.1v0.03h-0.03v0.04h-0.1v0.06h-0.13v0.03h-0.13v0.04h-0.1v0.03h-0.35v0.03h-0.1v0.06h-0.39
							v-0.07h-0.55l-0.03-0.029h-0.04l-0.03-0.03h-0.1V20.3h-0.1l-0.03-0.03h-0.1l-0.03-0.069h-0.16v-0.03h-0.03v-0.03h-0.04V20.11
							h-0.03v-0.03h-0.03v-0.04h-0.23l-0.06-0.06h-0.03v-0.03h-0.07v-0.04h-0.1l-0.03-0.03h-0.03l-0.03-0.03h-0.04v-0.06h-0.03
							l-0.06-0.04h-0.04l-0.03-0.03h-0.03V19.69h-0.03l-0.13-0.131h-0.04V19.53l-0.13-0.101h-0.03v-0.06l-0.06-0.07v-0.03
							l-0.03-0.029v-0.07l-0.07-0.03v-0.06l-0.03-0.03v-0.13l-0.03-0.04V18.69l-0.03-0.03V18.4l0.03-0.07v-0.16l0.03-0.06v-0.07
							l0.03-0.03V17.98l0.07-0.07V17.85l0.03-0.029v-0.03l0.16-0.17v-0.03l0.13-0.16c0.02,0,0.03-0.01,0.03-0.029l0.07-0.03h0.03
							v1.29l0.03,0.04v0.189l0.04,0.03v0.16l0.03,0.03v0.069l0.06,0.061v0.069h0.03v0.061l0.04,0.06v0.03h0.03v0.07l0.03,0.029
							v0.101h0.03V19.69L18.585,19.69z M2.305,19.37v-0.13h0.07c0,0.02-0.01,0.04-0.04,0.06C2.315,19.33,2.305,19.35,2.305,19.37
							L2.305,19.37z M19.275,19.89h0.005H19.275z M19.275,19.89h-0.17c-0.02,0.021-0.03,0.04-0.03,0.061
							c0-0.021,0.01-0.04,0.03-0.061H19.275L19.275,19.89z M19.275,19.89h0.005H19.275z M19.275,19.89h0.005H19.275z M19.275,19.89
							h0.005H19.275z M19.275,19.89c-0.09,0.021-0.16,0.04-0.2,0.061C19.115,19.93,19.185,19.91,19.275,19.89L19.275,19.89z
							 M19.275,19.89h-0.17c-0.02,0.021-0.03,0.04-0.03,0.061C19.115,19.93,19.185,19.91,19.275,19.89L19.275,19.89z M19.075,19.95
							h0.005H19.075z"/>
					</g>
				</g>
			</g>
		</g>
	</g>
</g>
<g>
	<g>
		<path fill="#7A4621" d="M41.75,26.044l6.298,5.25l13.854,0.42c4.759-0.56,8.678-1.819,11.756-3.778
			c4.059-5.623,7.589-8.436,10.592-8.436c-2.039-0.813-4.372-0.48-7,1s-5.295-0.02-8-4.5c-2.52-1.679-7.457-0.462-11.5,1.5
			l4.152-6.5L49.75,15L41.75,26.044z"/>
	</g>
</g>
<g>
	
		<linearGradient id="SVGID_5_" gradientUnits="userSpaceOnUse" x1="-511.4106" y1="56.7051" x2="-510.4106" y2="57.7067" gradientTransform="matrix(34.4275 0 0 14.2748 17653.0176 -794.4175)">
		<stop  offset="0.6071" style="stop-color:#FFF6DA"/>
		<stop  offset="1" style="stop-color:#D6BB7E"/>
	</linearGradient>
	<path fill="url(#SVGID_5_)" d="M55.555,14.5H51.99l-6.881,14.275h3.199l1.059-2.422h2.863l-0.187,2.422h3.06L55.555,14.5z
		 M52.971,18.095l-0.521,6.063h-2.156L52.971,18.095z M68.936,16.77c0-1.481-1.387-2.27-3.994-2.27c-3.229,0-4.709,1.03-5.479,3.68
		l-1.931,6.652c-0.24,0.781-0.287,1.168-0.287,1.529c0,1.566,1.455,2.414,4.155,2.414c1.486,0,2.654-0.256,3.472-0.781
		c0.881-0.584,1.435-1.482,1.86-3.051l0.459-1.62h-3.059l-0.506,1.759c-0.357,1.279-0.811,1.659-1.893,1.659
		c-0.832,0-1.291-0.302-1.291-0.859c0-0.171,0.055-0.459,0.146-0.819l2.055-7.071c0.313-1.05,0.817-1.47,1.821-1.47
		c0.833,0,1.285,0.302,1.285,0.84c0,0.229-0.069,0.519-0.211,1.068l-0.381,1.377h3.059l0.476-1.666
		C68.865,17.57,68.936,17.131,68.936,16.77z M79.537,14.5h-8.182l-3.893,14.275h8.414l0.6-2.191h-5.309l1.189-4.468h4.787
		l0.601-2.158h-4.787l0.91-3.3h5.067L79.537,14.5z"/>
</g>
</svg>
