<?xml version="1.0" encoding="utf-8"?>
<!-- Generator: Adobe Illustrator 16.0.0, SVG Export Plug-In . SVG Version: 6.00 Build 0)  -->
<!DOCTYPE svg PUBLIC "-//W3C//DTD SVG 1.1//EN" "http://www.w3.org/Graphics/SVG/1.1/DTD/svg11.dtd">
<svg version="1.1" id="图层_1" xmlns="http://www.w3.org/2000/svg" xmlns:xlink="http://www.w3.org/1999/xlink" x="0px" y="0px"
	 width="44.875px" height="32px" viewBox="0 0 44.875 32" enable-background="new 0 0 44.875 32" xml:space="preserve">
<rect fill="none" width="44.875" height="32"/>
<g>
	<g>
		<g>
			<g>
				<g>
					
						<linearGradient id="SVGID_1_" gradientUnits="userSpaceOnUse" x1="-896.2852" y1="21.1387" x2="-895.2479" y2="20.1806" gradientTransform="matrix(44.263 0 0 27.6675 39666.1133 -560.1484)">
						<stop  offset="0.1429" style="stop-color:#000000"/>
						<stop  offset="0.4335" style="stop-color:#FFD400"/>
						<stop  offset="0.7488" style="stop-color:#FF0000"/>
					</linearGradient>
					<path fill="url(#SVGID_1_)" d="M43.566,10.77c-0.084,0.056-0.221,0.084-0.412,0.084c-0.381,0.082-0.997,0.137-1.844,0.164
						c-0.875,0.025-1.82,0.053-2.832,0.08c-1.014,0.084-2.011,0.125-2.996,0.125c-0.981,0.025-1.789,0.039-2.422,0.039
						c-0.709,0-1.283,0.04-1.723,0.125c-0.438,0.08-0.777,0.148-1.023,0.205c-0.217,0.137-0.355,0.275-0.412,0.41
						c-0.053,0.135-0.08,0.314-0.08,0.534v0.33c0,0.245,0.014,0.545,0.043,0.899c0.027,0.327,0.066,0.644,0.123,0.942
						c0.078,0.383,0.162,0.753,0.244,1.108v0.123l-0.574,0.656v0.124c-0.191,0.109-0.686,0.164-1.479,0.164
						c-1.584,0.082-2.924,0.105-4.02,0.082c-1.039,0-1.93-0.028-2.667-0.082c-0.655-0.083-1.177-0.164-1.558-0.245
						c-0.33-0.113-0.561-0.207-0.697-0.289c-0.219,0-0.44,0.043-0.658,0.125c-0.217,0.164-0.477,0.438-0.779,0.82
						c-0.354,0.41-0.766,1.039-1.23,1.887c-0.438,0.903-0.944,2.107-1.516,3.609c-0.603,1.475-1.272,3.336-2.011,5.577l-0.083,0.084
						c0,0.655-0.179,1.065-0.533,1.231c-0.191,0.188-0.344,0.229-0.451,0.123H2.79c0-0.138,0.017-0.264,0.042-0.369
						c0.105-0.275,0.166-0.494,0.166-0.657H2.339c-0.11,0-0.22-0.013-0.327-0.041c-0.631-0.056-1.121-0.343-1.477-0.859
						c-0.193-0.305-0.288-0.687-0.288-1.149c0-0.572,0.08-1.066,0.245-1.478c0.138-0.466,0.205-0.726,0.205-0.778v0.082
						c0.027-0.029,0.205-0.261,0.533-0.699c0.274-0.438,0.629-0.982,1.067-1.642c0.466-0.681,0.943-1.409,1.437-2.172
						c0.574-0.767,1.106-1.519,1.6-2.258c0.545-1.039,0.973-1.968,1.27-2.788c0.277-0.822,0.412-1.544,0.412-2.176
						c0-0.409-0.067-0.819-0.203-1.229c-0.248-0.521-0.59-0.931-1.025-1.229c-0.411-0.248-0.837-0.481-1.273-0.7
						C4.13,9.583,3.871,9.405,3.734,9.13C3.623,8.83,3.57,8.5,3.57,8.146c0-0.135,0.016-0.274,0.041-0.41c0-0.081,0-0.178,0-0.288
						L3.57,7.367V5.191c0-0.356,0-0.654,0-0.903c0-0.246-0.041-0.408-0.125-0.492H3.404c-0.026,0-0.039-0.041-0.039-0.12
						c0-0.03,0.013-0.07,0.039-0.124l0.041-0.085c0.029-0.053,0.152-0.133,0.371-0.243c0.192-0.082,0.781-0.151,1.763-0.207
						C5.635,2.935,5.663,2.853,5.663,2.77c0-0.055,0.041-0.108,0.125-0.163c0.053-0.11,0.104-0.205,0.163-0.289l0.121-0.121
						L7.26,2.239l0.127,0.287C7.438,2.58,7.466,2.662,7.466,2.771c0.028,0.083,0.042,0.166,0.042,0.247h33.885l0.08-0.164
						c0.055-0.055,0.096-0.083,0.125-0.083l0.778-0.245c0.028,0.054,0.083,0.11,0.165,0.164l0.204,0.202h1.478l0.287,4.475
						C44.508,9.25,44.195,10.387,43.566,10.77z M27.361,11.592h-5.827c-0.079,0-0.177,0.066-0.284,0.204
						c-0.139,0.138-0.206,0.328-0.206,0.577v1.968c0,0.302,0.067,0.504,0.206,0.613c0.105,0.137,0.205,0.208,0.284,0.208h5.827
						c0.139,0,0.248-0.071,0.328-0.208c0.137-0.109,0.207-0.313,0.207-0.613v-1.968c0-0.249-0.07-0.438-0.207-0.577
						C27.609,11.658,27.5,11.592,27.361,11.592z"/>
				</g>
			</g>
		</g>
	</g>
</g>
<linearGradient id="SVGID_2_" gradientUnits="userSpaceOnUse" x1="-2.5356" y1="17.4434" x2="15.1151" y2="7.2751">
	<stop  offset="0.3505" style="stop-color:#FFE3A0"/>
	<stop  offset="1" style="stop-color:#00FFFF"/>
</linearGradient>
<path fill="url(#SVGID_2_)" d="M17.584,16.417c0,0-2.522-7.378-8.236-13.398h-1.84c0-0.082-0.014-0.164-0.042-0.248
	c0-0.108-0.028-0.19-0.079-0.244L7.26,2.239L6.072,2.197l-0.121,0.12c-0.059,0.084-0.11,0.18-0.163,0.289
	C5.704,2.662,5.663,2.715,5.663,2.771c0,0.082-0.028,0.164-0.084,0.246c-0.981,0.057-1.57,0.125-1.763,0.207
	c-0.219,0.11-0.342,0.19-0.371,0.243L3.404,3.552C3.378,3.606,3.365,3.646,3.365,3.676c0,0.079,0.013,0.12,0.039,0.12h0.041
	C3.529,3.88,3.57,4.042,3.57,4.288c0,0.249,0,0.547,0,0.902v1.625C8.485,8.151,13.873,10.893,17.584,16.417z"/>
<linearGradient id="SVGID_3_" gradientUnits="userSpaceOnUse" x1="9.0205" y1="12.5166" x2="24.665" y2="3.5041">
	<stop  offset="0.1781" style="stop-color:#FFE3A0"/>
	<stop  offset="1" style="stop-color:#00FFFF"/>
</linearGradient>
<path fill="url(#SVGID_3_)" d="M25.584,8.479c0,0-1.259-2.554-3.583-5.461h-6.05C19.297,3.935,22.773,5.582,25.584,8.479z"/>
<g>
	<g>
		<g>
			<g>
				<g>
					<g>
						<linearGradient id="SVGID_4_" gradientUnits="userSpaceOnUse" x1="40.2959" y1="-3.4209" x2="-2.349" y2="23.2352">
							<stop  offset="0" style="stop-color:#BB925B"/>
							<stop  offset="0.3429" style="stop-color:#FFF6DA"/>
							<stop  offset="0.6571" style="stop-color:#FFF1B1"/>
							<stop  offset="1" style="stop-color:#B38B54"/>
						</linearGradient>
						<path fill="url(#SVGID_4_)" d="M6.552,3.281C6.678,3.69,7.058,3.987,7.508,3.987h33.885c0.288,0,0.557-0.124,0.744-0.332
							c0.174,0.133,0.387,0.207,0.608,0.207h0.54l0.225,3.505c-0.005,1.683-0.276,2.266-0.419,2.457
							c-0.05,0.003-0.099,0.01-0.147,0.021c-0.22,0.048-0.688,0.11-1.662,0.142c-0.874,0.025-1.818,0.053-2.83,0.08
							c-0.019,0.001-0.037,0.002-0.056,0.004c-0.974,0.08-1.954,0.121-2.938,0.121c-0.972,0.025-1.771,0.039-2.396,0.039
							c-0.783,0-1.407,0.047-1.902,0.142c-0.457,0.083-0.812,0.155-1.068,0.214c-0.109,0.025-0.214,0.068-0.309,0.129
							c-0.399,0.251-0.661,0.535-0.811,0.892c-0.045,0.116-0.08,0.24-0.104,0.375c-0.065-0.371-0.224-0.641-0.38-0.825
							c-0.264-0.38-0.667-0.596-1.125-0.596h-5.827c-0.271,0-0.668,0.096-1.037,0.545c-0.218,0.235-0.453,0.63-0.453,1.236v1.969
							c0,0.563,0.162,1.002,0.482,1.308c0.03,0.035,0.061,0.068,0.092,0.1c-0.157-0.026-0.295-0.051-0.415-0.076
							c-0.338-0.118-0.434-0.171-0.45-0.181c-0.155-0.094-0.333-0.143-0.515-0.143c-0.338,0-0.678,0.063-1.011,0.189
							c-0.09,0.033-0.175,0.08-0.251,0.138c-0.282,0.214-0.596,0.54-0.934,0.965c-0.408,0.475-0.85,1.147-1.35,2.06
							c-0.008,0.015-0.016,0.029-0.022,0.044c-0.452,0.933-0.975,2.175-1.542,3.668c-0.585,1.433-1.247,3.262-1.968,5.439
							c-0.129,0.172-0.2,0.383-0.2,0.601c0,0.186-0.02,0.296-0.035,0.354H3.998c0-0.009,0-0.017,0-0.025c0-0.553-0.447-1-1-1H2.339
							c-0.027,0-0.054-0.003-0.08-0.01c-0.052-0.014-0.104-0.022-0.157-0.027c-0.333-0.029-0.556-0.158-0.722-0.399
							c-0.088-0.138-0.133-0.345-0.133-0.614c0-0.447,0.059-0.818,0.173-1.104c0.012-0.029,0.022-0.06,0.031-0.09
							c0.063-0.211,0.108-0.374,0.144-0.503c0.087-0.112,0.222-0.29,0.438-0.578c0.016-0.022,0.031-0.044,0.045-0.067
							c0.271-0.432,0.62-0.969,1.046-1.607c0.465-0.68,0.941-1.406,1.433-2.164c0.569-0.763,1.111-1.527,1.61-2.274
							c0.02-0.029,0.037-0.06,0.054-0.091c0.586-1.118,1.02-2.071,1.331-2.935c0.313-0.927,0.465-1.743,0.465-2.495
							c0-0.515-0.085-1.034-0.254-1.543c-0.013-0.039-0.028-0.078-0.046-0.115c-0.324-0.68-0.782-1.227-1.363-1.625
							C6.337,9.496,6.32,9.486,6.304,9.476c-0.419-0.253-0.87-0.5-1.342-0.737C4.885,8.7,4.803,8.672,4.718,8.654
							C4.68,8.646,4.652,8.638,4.634,8.631C4.592,8.477,4.57,8.304,4.57,8.115c0-0.064,0.008-0.141,0.024-0.228
							c0.011-0.061,0.017-0.121,0.017-0.183V7.418c0-0.097-0.014-0.191-0.041-0.283V5.161V4.257c0-0.044,0-0.11-0.005-0.189
							c0.223-0.025,0.562-0.054,1.07-0.083c0.311-0.018,0.596-0.179,0.771-0.437C6.465,3.463,6.514,3.374,6.552,3.281
							 M28.896,14.111c0.029,0.271,0.065,0.522,0.112,0.767c0.051,0.249,0.104,0.492,0.157,0.73l-0.189,0.217
							c-0.161,0.015-0.412,0.028-0.793,0.028c0.102-0.079,0.194-0.173,0.274-0.282c0.225-0.237,0.438-0.63,0.438-1.261V14.111
							 M6.072,2.167L5.951,2.288c-0.059,0.084-0.11,0.179-0.163,0.289C5.704,2.631,5.663,2.684,5.663,2.739
							c0,0.084-0.028,0.166-0.084,0.248c-0.981,0.056-1.57,0.125-1.763,0.207C3.598,3.303,3.475,3.383,3.445,3.436L3.404,3.521
							C3.378,3.575,3.365,3.616,3.365,3.645c0,0.079,0.013,0.12,0.039,0.12h0.041C3.529,3.849,3.57,4.011,3.57,4.257
							c0,0.249,0,0.547,0,0.903v2.175l0.041,0.082c0,0.109,0,0.207,0,0.287C3.586,7.842,3.57,7.98,3.57,8.115
							c0,0.354,0.053,0.684,0.164,0.984C3.871,9.375,4.13,9.553,4.514,9.633c0.437,0.219,0.862,0.451,1.273,0.699
							c0.436,0.299,0.777,0.709,1.025,1.23c0.136,0.41,0.203,0.82,0.203,1.229c0,0.633-0.135,1.354-0.412,2.176
							c-0.297,0.82-0.725,1.75-1.27,2.789c-0.493,0.738-1.025,1.49-1.6,2.258c-0.493,0.762-0.971,1.49-1.437,2.172
							c-0.438,0.658-0.793,1.203-1.067,1.641c-0.328,0.439-0.506,0.67-0.533,0.699v-0.082c0,0.053-0.067,0.313-0.205,0.779
							c-0.165,0.41-0.245,0.904-0.245,1.477c0,0.463,0.095,0.846,0.288,1.15c0.355,0.516,0.846,0.803,1.477,0.859
							c0.107,0.027,0.217,0.041,0.327,0.041h0.659c0,0.162-0.061,0.381-0.166,0.656c-0.025,0.105-0.042,0.232-0.042,0.369h9.187
							c0.039,0.039,0.083,0.058,0.133,0.058c0.089,0,0.195-0.061,0.318-0.181c0.354-0.166,0.533-0.576,0.533-1.23l0.083-0.084
							c0.738-2.242,1.408-4.104,2.011-5.578c0.571-1.502,1.077-2.705,1.516-3.609c0.465-0.848,0.877-1.477,1.23-1.887
							c0.303-0.381,0.563-0.656,0.779-0.82c0.218-0.082,0.439-0.125,0.658-0.125c0.137,0.082,0.367,0.176,0.697,0.289
							c0.381,0.082,0.902,0.162,1.558,0.246c0.737,0.053,1.628,0.082,2.667,0.082c0.266,0.006,0.546,0.009,0.841,0.009
							c0.919,0,1.979-0.028,3.179-0.091c0.793,0,1.287-0.055,1.479-0.164v-0.125l0.574-0.656v-0.123
							c-0.082-0.355-0.166-0.725-0.244-1.107c-0.057-0.299-0.096-0.615-0.123-0.943c-0.029-0.354-0.043-0.654-0.043-0.898v-0.33
							c0-0.221,0.027-0.4,0.08-0.535c0.057-0.135,0.195-0.273,0.412-0.41c0.246-0.057,0.586-0.125,1.023-0.205
							c0.439-0.084,1.014-0.125,1.723-0.125c0.633,0,1.44-0.014,2.422-0.039c0.985,0,1.982-0.041,2.996-0.125
							c1.012-0.027,1.957-0.055,2.832-0.08c0.847-0.027,1.463-0.082,1.844-0.164c0.191,0,0.328-0.027,0.412-0.084
							c0.629-0.383,0.941-1.52,0.943-3.402l-0.287-4.474h-1.478l-0.204-0.203c-0.082-0.054-0.137-0.109-0.165-0.164l-0.778,0.246
							c-0.029,0-0.07,0.027-0.125,0.082l-0.08,0.164H7.508c0-0.08-0.014-0.164-0.042-0.246c0-0.109-0.028-0.191-0.079-0.246
							L7.26,2.208L6.072,2.167L6.072,2.167z M21.534,15.131c-0.079,0-0.179-0.07-0.284-0.207c-0.139-0.109-0.206-0.313-0.206-0.613
							v-1.969c0-0.248,0.067-0.439,0.206-0.576c0.107-0.139,0.205-0.205,0.284-0.205h5.827c0.139,0,0.248,0.066,0.328,0.205
							c0.137,0.139,0.207,0.328,0.207,0.576v1.969c0,0.299-0.07,0.504-0.207,0.613c-0.08,0.137-0.189,0.207-0.328,0.207H21.534
							L21.534,15.131z"/>
					</g>
				</g>
			</g>
		</g>
	</g>
</g>
<rect fill="none" width="44.875" height="32"/>
<g>
	<g>
		<path fill="#7A4621" d="M13.184,25.975l4.594,3.828l10.106,0.307c3.472-0.407,6.329-1.327,8.575-2.756
			c2.959-4.103,5.535-6.152,7.725-6.152c-1.485-0.594-3.188-0.352-5.104,0.729c-1.916,1.079-3.861-0.015-5.836-3.283
			c-1.837-1.225-5.438-0.336-8.388,1.096L27.884,15l-8.864,2.918L13.184,25.975z"/>
	</g>
</g>
<linearGradient id="SVGID_5_" gradientUnits="userSpaceOnUse" x1="-882.3857" y1="54.043" x2="-881.3857" y2="55.0447" gradientTransform="matrix(25.1118 0 0 10.4122 22174.9121 -544.772)">
	<stop  offset="0.6071" style="stop-color:#FFF6DA"/>
	<stop  offset="1" style="stop-color:#D6BB7E"/>
</linearGradient>
<path fill="url(#SVGID_5_)" d="M23.254,17.553h-2.601l-5.019,10.412h2.333l0.772-1.766h2.089l-0.136,1.766h2.231L23.254,17.553z
	 M21.369,20.176l-0.381,4.422h-1.572L21.369,20.176z M33.014,19.209c0-1.082-1.012-1.656-2.912-1.656
	c-2.356,0-3.436,0.752-3.998,2.686l-1.408,4.853c-0.176,0.568-0.209,0.853-0.209,1.114c0,1.145,1.062,1.761,3.031,1.761
	c1.084,0,1.937-0.187,2.531-0.569c0.643-0.426,1.045-1.08,1.357-2.225l0.335-1.183H29.51l-0.369,1.282
	c-0.261,0.934-0.59,1.211-1.379,1.211c-0.607,0-0.943-0.221-0.943-0.627c0-0.125,0.041-0.336,0.108-0.599l1.499-5.157
	c0.227-0.767,0.596-1.072,1.328-1.072c0.607,0,0.938,0.221,0.938,0.611c0,0.168-0.051,0.379-0.153,0.78l-0.276,1.005h2.229
	l0.347-1.215C32.962,19.793,33.014,19.473,33.014,19.209z M40.746,17.553h-5.967l-2.84,10.412h6.139l0.438-1.598h-3.873l0.869-3.26
	h3.491l0.437-1.573h-3.49l0.664-2.407h3.695L40.746,17.553z"/>
</svg>
