<?xml version="1.0" encoding="utf-8"?>
<!-- Generator: Adobe Illustrator 16.0.0, SVG Export Plug-In . SVG Version: 6.00 Build 0)  -->
<!DOCTYPE svg PUBLIC "-//W3C//DTD SVG 1.1//EN" "http://www.w3.org/Graphics/SVG/1.1/DTD/svg11.dtd">
<svg version="1.1" id="图层_1" xmlns="http://www.w3.org/2000/svg" xmlns:xlink="http://www.w3.org/1999/xlink" x="0px" y="0px"
	 width="91.436px" height="33.02px" viewBox="0 0 91.436 33.02" enable-background="new 0 0 91.436 33.02" xml:space="preserve">
<rect x="0" y="0" fill="none" width="91.436" height="33.02"/>
<g>
	<g>
		<g>
			<g>
				<g>
					
						<linearGradient id="SVGID_1_" gradientUnits="userSpaceOnUse" x1="-428.6023" y1="270.802" x2="-429.6032" y2="269.8011" gradientTransform="matrix(89.063 0 0 -10.697 38260.0195 2907.626)">
						<stop  offset="0" style="stop-color:#BB925B"/>
						<stop  offset="0.3429" style="stop-color:#FFF6DA"/>
						<stop  offset="0.6571" style="stop-color:#FFF1B1"/>
						<stop  offset="1" style="stop-color:#B38B54"/>
					</linearGradient>
					<path fill="url(#SVGID_1_)" d="M64.413,15.165c0.021,0,0.042,0,0.063,0c0.167-0.021,0.301-0.082,0.407-0.188
						c0.124-0.124,0.187-0.271,0.187-0.438s-0.063-0.313-0.187-0.438c-0.105-0.104-0.24-0.156-0.407-0.156c-0.021,0-0.042,0-0.063,0
						H42.11c-0.146,0-0.271,0.052-0.375,0.156c-0.125,0.124-0.188,0.271-0.188,0.438s0.063,0.313,0.188,0.438
						c0.104,0.105,0.23,0.167,0.375,0.188H64.413z M75.736,21.265H36.104l-0.563-1.596h-2.097v2.034l-0.125,0.154h-0.844
						l-0.313-0.499v-0.845l-0.188-0.313c0,0.146-0.052,0.28-0.156,0.405c-0.125,0.125-0.271,0.188-0.438,0.188
						s-0.313-0.063-0.438-0.188c-0.104-0.125-0.156-0.26-0.156-0.405c-0.021,0.146-0.083,0.28-0.188,0.405
						c-0.125,0.125-0.271,0.188-0.438,0.188c-0.166,0-0.313-0.063-0.438-0.188c-0.104-0.125-0.156-0.26-0.156-0.405
						c-0.021,0.146-0.083,0.28-0.187,0.405c-0.125,0.125-0.271,0.188-0.438,0.188s-0.313-0.063-0.438-0.188
						c-0.103-0.123-0.155-0.258-0.156-0.405c-0.002,0.147-0.063,0.282-0.188,0.405c-0.125,0.125-0.271,0.188-0.438,0.188
						c-0.168,0-0.313-0.063-0.438-0.188c-0.104-0.123-0.155-0.258-0.157-0.405c-0.001,0.147-0.064,0.282-0.188,0.405
						c-0.125,0.125-0.271,0.188-0.438,0.188s-0.304-0.063-0.407-0.188c-0.123-0.123-0.187-0.258-0.189-0.405
						c-0.001,0.147-0.063,0.282-0.187,0.405c-0.104,0.125-0.24,0.188-0.407,0.188c-0.188,0-0.333-0.063-0.438-0.188
						c-0.123-0.123-0.187-0.258-0.188-0.405c-0.002,0.147-0.064,0.282-0.188,0.405c-0.104,0.125-0.24,0.188-0.407,0.188
						s-0.313-0.063-0.438-0.188c-0.124-0.123-0.186-0.258-0.188-0.405c-0.001,0.147-0.064,0.282-0.188,0.405
						c-0.104,0.125-0.239,0.188-0.406,0.188s-0.313-0.063-0.438-0.188c-0.104-0.125-0.167-0.26-0.188-0.405
						c0,0.146-0.053,0.28-0.156,0.405c-0.125,0.125-0.271,0.188-0.438,0.188c-0.166,0-0.313-0.063-0.438-0.188
						c-0.104-0.125-0.167-0.26-0.188-0.405c0,0.146-0.053,0.28-0.156,0.405c-0.125,0.125-0.271,0.188-0.438,0.188
						s-0.313-0.063-0.438-0.188c-0.104-0.125-0.157-0.26-0.157-0.405c-0.021,0.146-0.083,0.28-0.188,0.405
						c-0.125,0.125-0.271,0.188-0.438,0.188s-0.313-0.063-0.438-0.188c-0.104-0.125-0.156-0.26-0.156-0.405
						c-0.021,0.146-0.083,0.28-0.187,0.405c-0.125,0.125-0.271,0.188-0.438,0.188s-0.313-0.063-0.438-0.188
						c-0.103-0.123-0.156-0.258-0.157-0.405c-0.002,0.147-0.064,0.282-0.188,0.405c-0.125,0.125-0.271,0.188-0.438,0.188
						s-0.313-0.063-0.438-0.188c-0.104-0.123-0.156-0.258-0.156-0.405c-0.002,0.147-0.065,0.282-0.188,0.405
						c-0.125,0.125-0.271,0.188-0.438,0.188s-0.303-0.063-0.406-0.188c-0.124-0.123-0.186-0.258-0.188-0.405
						c-0.001,0.147-0.064,0.282-0.188,0.405c-0.104,0.125-0.24,0.188-0.407,0.188c-0.188,0-0.333-0.063-0.438-0.188
						c-0.123-0.123-0.187-0.258-0.188-0.405c-0.002,0.147-0.063,0.282-0.188,0.405c-0.104,0.125-0.24,0.188-0.407,0.188
						c-0.166,0-0.313-0.063-0.438-0.188c-0.123-0.123-0.187-0.258-0.188-0.405c-0.002,0.147-0.063,0.282-0.188,0.405
						c-0.104,0.125-0.24,0.188-0.406,0.188c-0.168,0-0.313-0.063-0.439-0.188c-0.104-0.125-0.167-0.26-0.188-0.405
						c0,0.146-0.053,0.28-0.156,0.405c-0.126,0.125-0.271,0.188-0.438,0.188s-0.313-0.063-0.438-0.188
						c-0.104-0.125-0.167-0.26-0.188-0.405c0,0.146-0.052,0.28-0.155,0.405c-0.125,0.125-0.271,0.188-0.438,0.188
						c-0.166,0-0.312-0.063-0.437-0.188c-0.104-0.125-0.156-0.26-0.156-0.405c-0.021,0.146-0.084,0.28-0.189,0.405
						c-0.125,0.125-0.271,0.188-0.437,0.188c-0.167,0-0.313-0.063-0.438-0.188c-0.104-0.125-0.155-0.26-0.155-0.405
						c-0.021,0.146-0.083,0.28-0.188,0.405c-0.125,0.125-0.271,0.188-0.438,0.188S6.725,20.732,6.6,20.607
						c-0.103-0.123-0.155-0.258-0.156-0.405c-0.002,0.147-0.064,0.282-0.188,0.405c-0.125,0.125-0.271,0.188-0.438,0.188
						c-0.167,0-0.313-0.063-0.438-0.188c-0.104-0.123-0.155-0.258-0.156-0.405c-0.001,0.147-0.064,0.282-0.187,0.405
						c-0.126,0.125-0.272,0.188-0.439,0.188s-0.302-0.063-0.407-0.188c-0.125-0.125-0.187-0.26-0.187-0.405L3.66,19.325l-2.81-2.096
						v-2.409l3.253-2.033l0.25-0.438c0-0.167,0.052-0.303,0.157-0.407c0.125-0.125,0.27-0.188,0.438-0.188
						c0.168,0,0.313,0.063,0.438,0.188c0.104,0.104,0.167,0.24,0.188,0.407c0-0.167,0.053-0.303,0.156-0.407
						c0.125-0.125,0.271-0.188,0.438-0.188s0.313,0.063,0.438,0.188c0.104,0.104,0.157,0.24,0.157,0.407
						c0.021-0.167,0.083-0.303,0.188-0.407c0.125-0.125,0.271-0.188,0.438-0.188c0.166,0,0.313,0.063,0.438,0.188
						c0.104,0.104,0.155,0.24,0.155,0.407c0.021-0.167,0.083-0.303,0.188-0.407c0.125-0.125,0.271-0.188,0.438-0.188
						s0.304,0.063,0.407,0.188c0.124,0.104,0.187,0.238,0.188,0.407c0.001-0.169,0.063-0.305,0.188-0.407
						c0.125-0.125,0.271-0.188,0.438-0.188c0.167,0,0.303,0.063,0.406,0.188c0.123,0.104,0.187,0.238,0.188,0.407
						c0.002-0.169,0.063-0.305,0.187-0.407c0.105-0.125,0.251-0.188,0.438-0.188c0.167,0,0.303,0.063,0.408,0.188
						c0.123,0.104,0.186,0.238,0.187,0.407c0.001-0.169,0.065-0.305,0.188-0.407c0.104-0.125,0.24-0.188,0.407-0.188
						s0.313,0.063,0.438,0.188c0.123,0.104,0.185,0.238,0.188,0.407c0.001-0.169,0.054-0.305,0.156-0.407
						c0.125-0.125,0.271-0.188,0.438-0.188s0.313,0.063,0.438,0.188c0.124,0.104,0.188,0.238,0.188,0.407
						c0.002-0.169,0.054-0.305,0.156-0.407c0.125-0.125,0.271-0.188,0.438-0.188s0.313,0.063,0.438,0.188
						c0.104,0.104,0.167,0.24,0.188,0.407c0-0.167,0.051-0.303,0.156-0.407c0.125-0.125,0.271-0.188,0.438-0.188
						c0.167,0,0.313,0.063,0.438,0.188c0.104,0.104,0.166,0.24,0.187,0.407c0-0.167,0.054-0.303,0.157-0.407
						c0.125-0.125,0.271-0.188,0.438-0.188s0.313,0.063,0.438,0.188c0.104,0.104,0.157,0.24,0.157,0.407
						c0.021-0.167,0.083-0.303,0.187-0.407c0.125-0.125,0.271-0.188,0.438-0.188s0.312,0.063,0.437,0.188
						c0.105,0.104,0.157,0.24,0.157,0.407c0.021-0.167,0.083-0.303,0.188-0.407c0.125-0.125,0.271-0.188,0.438-0.188
						s0.302,0.063,0.407,0.188c0.123,0.104,0.185,0.238,0.188,0.407c0.003-0.169,0.065-0.305,0.188-0.407
						c0.125-0.125,0.271-0.188,0.438-0.188s0.302,0.063,0.405,0.188c0.124,0.104,0.187,0.238,0.188,0.407
						c0.002-0.169,0.064-0.305,0.188-0.407c0.104-0.125,0.25-0.188,0.438-0.188c0.167,0,0.302,0.063,0.407,0.188
						c0.124,0.104,0.186,0.238,0.188,0.407c0.002-0.169,0.064-0.305,0.188-0.407c0.104-0.125,0.239-0.188,0.406-0.188
						c0.188,0,0.333,0.063,0.438,0.188c0.123,0.104,0.186,0.238,0.188,0.407c0.001-0.169,0.055-0.305,0.157-0.407
						c0.124-0.125,0.271-0.188,0.438-0.188s0.313,0.063,0.438,0.188c0.123,0.104,0.186,0.238,0.188,0.407
						c0.003-0.169,0.055-0.305,0.156-0.407c0.125-0.125,0.271-0.188,0.438-0.188s0.313,0.063,0.437,0.188
						c0.106,0.104,0.168,0.24,0.189,0.407c0-0.167,0.052-0.303,0.156-0.407c0.125-0.125,0.271-0.188,0.438-0.188
						s0.313,0.063,0.438,0.188c0.104,0.104,0.167,0.24,0.188,0.407c0-0.167,0.052-0.303,0.156-0.407
						c0.125-0.125,0.271-0.188,0.438-0.188s0.313,0.063,0.438,0.188c0.104,0.104,0.155,0.24,0.155,0.407
						c0.021-0.167,0.084-0.303,0.188-0.407c0.125-0.125,0.271-0.188,0.438-0.188s0.313,0.063,0.438,0.188
						c0.104,0.104,0.157,0.24,0.157,0.407c0.021-0.167,0.083-0.303,0.188-0.407c0.125-0.125,0.271-0.188,0.438-0.188
						s0.302,0.063,0.407,0.188c0.123,0.104,0.186,0.238,0.188,0.407c0.001-0.169,0.064-0.305,0.188-0.407
						c0.126-0.125,0.271-0.188,0.438-0.188c0.166,0,0.303,0.063,0.406,0.188c0.125,0.104,0.188,0.24,0.188,0.407l0.251,0.25
						l2.877-1.438h12.637l2.846,1.346h17.423l21.554,1.938L75.736,21.265z M36.323,11.756h-0.031c-0.167,0-0.313,0.063-0.438,0.188
						c-0.104,0.125-0.157,0.271-0.157,0.438c0,0.166,0.053,0.303,0.157,0.405c0.125,0.125,0.271,0.188,0.438,0.188h0.031
						c0.146,0,0.281-0.063,0.406-0.188c0.125-0.104,0.188-0.239,0.188-0.405c0-0.168-0.063-0.313-0.188-0.438
						C36.605,11.818,36.469,11.756,36.323,11.756z M45.864,12.382c0-0.168-0.062-0.313-0.188-0.438
						c-0.104-0.125-0.24-0.188-0.407-0.188h-6.413c-0.146,0.021-0.271,0.083-0.375,0.188c-0.125,0.125-0.187,0.271-0.187,0.438
						c0,0.166,0.063,0.303,0.187,0.405c0.105,0.125,0.229,0.188,0.375,0.188h6.413c0.167,0,0.302-0.063,0.407-0.188
						C45.802,12.685,45.864,12.548,45.864,12.382z M47.083,12.976c0.167,0,0.303-0.063,0.405-0.188
						c0.125-0.104,0.189-0.239,0.189-0.405c0-0.168-0.063-0.313-0.189-0.438c-0.104-0.125-0.238-0.188-0.405-0.188
						s-0.313,0.063-0.438,0.188s-0.188,0.271-0.188,0.438c0,0.166,0.063,0.303,0.188,0.405
						C46.771,12.912,46.916,12.976,47.083,12.976z"/>
				</g>
			</g>
		</g>
	</g>
</g>
</svg>
