<?xml version="1.0" encoding="utf-8"?>
<!-- Generator: Adobe Illustrator 16.0.0, SVG Export Plug-In . SVG Version: 6.00 Build 0)  -->
<!DOCTYPE svg PUBLIC "-//W3C//DTD SVG 1.1//EN" "http://www.w3.org/Graphics/SVG/1.1/DTD/svg11.dtd">
<svg version="1.1" xmlns="http://www.w3.org/2000/svg" xmlns:xlink="http://www.w3.org/1999/xlink" x="0px" y="0px"
	 width="25.458px" height="32px" viewBox="0 0 25.458 32" enable-background="new 0 0 25.458 32" xml:space="preserve">
<g id="Selected_Items">
	<g>
		<g id="Selected_Items_55_">
			<linearGradient id="SVGID_1_" gradientUnits="userSpaceOnUse" x1="0" y1="12.6521" x2="25.109" y2="12.6521">
				<stop  offset="0" style="stop-color:#FFD93F"/>
				<stop  offset="1" style="stop-color:#FF310E"/>
			</linearGradient>		
			<path fill-rule="evenodd" clip-rule="evenodd" fill="url(#SVGID_1_)" fill-opacity="0.302" d="M19.2,7.8l5.9,0.9l-6,4.1l5.7,4.5l-5.3,0.7l1.2,6.8L18,23.3l0-10.6L14.5,7h-4.2C9.9,7,9.7,7,9.5,7.1
				C9.3,7.2,9.2,7.4,9.2,7.8c0,0.5,0.3,0.8,0.9,0.9v1.5l-1.2,1H8.4c-0.4,0-0.5,0.2-0.5,0.5l0.4,2.3L8.9,15l-0.1,1.9h0.4v1.8H8.8v0.7
				l0,0.5l0.1,0.4l-6,2.6l2.5-6.8L0,13.6l5.8-2.3L1.6,5l7.3,1l1.3-5.6l3.7,5.2l6-3L19.2,7.8z M17.3,13.3V23l-3-1.9l0.1-1l0.3-0.7
				l-0.1-0.6l-0.3-0.2v-1.9l0.5-0.3l-0.3-1.5l1.2-0.8l-0.1-2L17.3,13.3z"/>
			<linearGradient id="SVGID_2_" gradientUnits="userSpaceOnUse" x1="7.807" y1="19.1321" x2="18.046" y2="19.1321">
				<stop  offset="0" style="stop-color:#FFD93F"/>
				<stop  offset="1" style="stop-color:#FF310E"/>
			</linearGradient>				
			<path fill-rule="evenodd" clip-rule="evenodd" fill="url(#SVGID_2_)" d="M17.3,13.2l-1.5-0.9v1.8L14.8,15v1.8h-0.4v1.8h0.4v1.9h-0.4v1.8h0.4v1.9h-0.4v1.8h0.4v1.8l0.9,1.6v1.3
				c0,0.4-0.2,0.5-0.5,0.5H8.3c-0.4,0-0.5-0.2-0.5-0.5v-1.3l0.9-1.6v-1.8h0.4v-1.8H8.7v-1.9h0.4v-1.8H8.7v-1.9h0.4v-1.8H8.7V15
				l-0.9-0.8v-2.5c0-0.4,0.2-0.5,0.5-0.5h0.5l1.2-1V8.6C9.4,8.5,9.1,8.2,9.1,7.7c0-0.3,0.1-0.6,0.3-0.7C9.6,7,9.8,6.9,10.2,6.9h4.2
				l3.6,5.7v12.1l-1.8,0.9c-0.3,0.1-0.4,0.1-0.6-0.1c-0.1-0.2-0.1-0.4,0.2-0.7c0.2-0.2,0.5-0.4,0.9-0.6l0.5-0.3
				C17.3,24,17.3,13.2,17.3,13.2z
				"/>
		</g>
	</g>
</g>
<g id="guides">
</g>
</svg>
