<?xml version="1.0" encoding="utf-8"?>
<!-- Generator: Adobe Illustrator 16.0.0, SVG Export Plug-In . SVG Version: 6.00 Build 0)  -->
<!DOCTYPE svg PUBLIC "-//W3C//DTD SVG 1.1//EN" "http://www.w3.org/Graphics/SVG/1.1/DTD/svg11.dtd">
<svg version="1.1" id="图层_1" xmlns="http://www.w3.org/2000/svg" xmlns:xlink="http://www.w3.org/1999/xlink" x="0px" y="0px"
	 width="72px" height="32px" viewBox="0 0 72 32" enable-background="new 0 0 72 32" xml:space="preserve">
<rect fill="none" width="72" height="32"/>
<g>
	<g>
		<g>
			<g>
				<g>
					
						<linearGradient id="SVGID_1_" gradientUnits="userSpaceOnUse" x1="-876.4263" y1="42.7471" x2="-875.2062" y2="42.1805" gradientTransform="matrix(71.2284 0 0 13.4198 62410.7031 -553.0254)">
						<stop  offset="0.2463" style="stop-color:#000000"/>
						<stop  offset="0.532" style="stop-color:#FFD400"/>
						<stop  offset="0.8325" style="stop-color:#FF0000"/>
					</linearGradient>
					<path fill="url(#SVGID_1_)" d="M2.485,19.214c-0.226-0.169-0.479-0.254-0.761-0.254c-0.263,0.021-0.479,0.084-0.648,0.198
						c-0.114,0.093-0.228,0.244-0.338,0.451c-0.094,0.168-0.131,0.354-0.113,0.563c0,0.171,0.036,0.331,0.113,0.479
						c0.037,0.15,0.159,0.291,0.365,0.425c0.188,0.112,0.367,0.179,0.537,0.196c0.205,0.02,0.403-0.039,0.591-0.17
						c0.149-0.056,0.3-0.168,0.45-0.338c0.113-0.132,0.191-0.311,0.227-0.535c0.018-0.209-0.008-0.387-0.085-0.535
						C2.749,19.505,2.636,19.345,2.485,19.214z M71.227,14.506c-0.525,0.603-1.24,1.26-2.143,1.973
						c-1.787,1.466-3.523,2.546-5.217,3.242c-1.953,0.827-3.861,1.459-5.723,1.893c-1.654,0.395-3.524,0.676-5.609,0.846
						c-1.656,0.131-4.598,0.216-8.826,0.252h-5.837v-0.534l-0.396-0.509l-0.479-0.025l-0.284,0.365l-0.507-0.141
						c-0.037-0.434-0.131-0.903-0.282-1.411c-0.319-1.015-0.751-1.701-1.298-2.058c-0.713-0.453-1.362-0.771-1.946-0.959
						c-0.638-0.207-1.334-0.291-2.084-0.254c-0.734,0.057-1.373,0.196-1.918,0.422c-0.49,0.188-1.006,0.51-1.551,0.959
						c-0.469,0.356-0.78,0.563-0.93,0.619c-0.057,0.037-0.132,0.058-0.227,0.058c-0.15,0-0.263,0.009-0.337,0.028
						c-0.227,0.021-0.499-0.104-0.819-0.369c-0.169-0.148-0.291-0.252-0.365-0.309c-0.134-0.113-0.228-0.18-0.283-0.195
						c-0.131-0.057-0.912-0.057-2.34,0c-1.071,0.037-2.049,0.095-2.934,0.168c-2.931,0.207-4.971,0.388-6.118,0.537
						c-1.033,0.131-2.021,0.271-2.961,0.422c-1.165,0.188-1.832,0.311-2.001,0.365c-0.132,0.039-0.799,0.338-2.003,0.902
						c-1.258,0.583-2,0.913-2.226,0.987c-0.415,0.169-0.725,0.271-0.933,0.311c-0.355,0.093-0.674,0.093-0.958,0
						c-0.3-0.075-0.573-0.196-0.818-0.368c-0.225-0.131-0.366-0.262-0.422-0.393c-0.15-0.188-0.255-0.378-0.312-0.564
						c-0.111-0.283-0.159-0.574-0.139-0.875c0.018-0.357,0.028-0.574,0.028-0.648c0.017-0.112,0.084-0.329,0.196-0.648
						c0.133-0.355,0.62-1.335,1.466-2.932c0.865-1.617,1.374-2.501,1.524-2.651c0.17-0.186,0.283-0.29,0.34-0.31
						c0.075-0.057,0.169-0.085,0.282-0.085c0.018,0,0.168,0.02,0.451,0.057c0.207,0.038,0.366,0.028,0.48-0.028
						c0.112-0.055,0.187-0.15,0.226-0.281v-0.196l0.535,0.167l0.48-0.337l1.494-0.254c0.677-0.169,1.409-0.339,2.198-0.507
						c2.576-0.526,5.292-0.958,8.149-1.297c2.857-0.338,6.503-0.546,10.94-0.621c2.199-0.037,4.126-0.037,5.779,0l0.481,0.453
						L35.7,9.433l0.646,0.394l0.481-0.394l0.534,0.451l0.678-0.338l0.563,0.48l0.59-0.338l0.623,0.366l0.535-0.282L41,10.163
						l0.593-0.281l0.45,0.422l0.592-0.281l0.51,0.478l0.733-0.283l0.563,0.424l0.729-0.283l0.479,0.453l0.621-0.283l1.605,0.283
						c1.26,0.206,2.396,0.433,3.414,0.676c1.033,0.226,2.779,0.743,5.243,1.551c1.259,0.396,2.407,0.78,3.44,1.156l0.194,0.057
						c0.151,0.057,0.304,0.103,0.453,0.142c0.489,0.075,0.874,0.018,1.155-0.17c0.281-0.206,0.423-0.441,0.423-0.703
						c0.021-0.151-0.021-0.36-0.114-0.623c-0.057-0.131-0.329-0.355-0.814-0.675c-0.51-0.282-0.996-0.509-1.47-0.678
						c-0.147-0.037-0.448-0.142-0.901-0.31c-0.149-0.018-0.244-0.065-0.28-0.142c-0.039-0.095-0.039-0.179,0-0.253
						c0.019-0.132,0.112-0.217,0.28-0.253c0.133-0.057,0.236-0.085,0.312-0.085c0.076,0,0.216,0.02,0.425,0.056
						c0.225,0.058,1.063,0.283,2.508,0.677c1.599,0.471,2.856,0.865,3.778,1.184c0.882,0.263,2.03,0.694,3.44,1.297
						C70.08,14.018,70.7,14.28,71.227,14.506z"/>
				</g>
			</g>
		</g>
	</g>
</g>
<path fill="none" d="M22.797,66.777c0.908-0.052,1.864-0.095,2.87-0.129c-1.089-0.201-2.166-0.32-3.213-0.382
	C22.57,66.438,22.685,66.607,22.797,66.777z"/>
<path fill="none" d="M2.485,76.463c-0.226-0.168-0.479-0.254-0.761-0.254c-0.263,0.021-0.479,0.084-0.648,0.199
	c-0.114,0.092-0.228,0.244-0.338,0.451c-0.094,0.168-0.131,0.354-0.113,0.563c0,0.17,0.036,0.33,0.113,0.479
	c0.037,0.15,0.159,0.291,0.365,0.424c0.188,0.113,0.367,0.18,0.537,0.197c0.205,0.02,0.403-0.039,0.591-0.17
	c0.149-0.057,0.3-0.168,0.45-0.338c0.113-0.133,0.191-0.311,0.227-0.535c0.018-0.209-0.008-0.387-0.085-0.535
	C2.749,76.754,2.636,76.594,2.485,76.463z"/>
<linearGradient id="SVGID_2_" gradientUnits="userSpaceOnUse" x1="-876.4258" y1="47.0156" x2="-875.2057" y2="46.4491" gradientTransform="matrix(71.2284 0 0 13.4198 62410.7031 -553.0254)">
	<stop  offset="0.2463" style="stop-color:#000000"/>
	<stop  offset="0.532" style="stop-color:#FFD400"/>
	<stop  offset="0.8325" style="stop-color:#FF0000"/>
</linearGradient>
<path fill="url(#SVGID_2_)" d="M69.363,70.965c-1.41-0.603-2.559-1.033-3.44-1.297c-0.922-0.318-2.18-0.713-3.778-1.184
	c-1.445-0.395-2.283-0.619-2.508-0.677c-0.209-0.036-0.349-0.056-0.425-0.056c-0.075,0-0.179,0.027-0.312,0.084
	c-0.168,0.037-0.262,0.121-0.28,0.254c-0.039,0.074-0.039,0.158,0,0.252c0.036,0.078,0.131,0.125,0.28,0.143
	c0.453,0.168,0.754,0.273,0.901,0.311c0.474,0.168,0.96,0.396,1.47,0.678c0.485,0.32,0.758,0.544,0.814,0.675
	c0.094,0.263,0.135,0.472,0.114,0.623c0,0.263-0.142,0.497-0.423,0.703c-0.281,0.188-0.666,0.245-1.155,0.17
	c-0.149-0.039-0.302-0.085-0.453-0.142l-0.194-0.058c-1.033-0.376-2.182-0.76-3.44-1.155c-2.464-0.809-4.21-1.326-5.243-1.552
	c-1.018-0.243-2.154-0.47-3.414-0.676l-1.605-0.283l-0.621,0.283l-0.479-0.453l-0.729,0.283l-0.563-0.425l-0.733,0.283l-0.51-0.478
	l-0.592,0.281l-0.45-0.423L41,67.412l-0.65-0.391l-0.535,0.282l-0.623-0.366l-0.59,0.338l-0.563-0.48l-0.678,0.338l-0.534-0.45
	l-0.481,0.394L35.7,66.683l-0.649,0.339l-0.481-0.453c-1.105-0.024-2.345-0.031-3.695-0.023c2.014,1.996,3.187,3.628,3.187,3.628
	c-2.626-1.939-5.548-3.001-8.396-3.524c-1.005,0.034-1.962,0.077-2.87,0.129c2.942,4.461,4.287,8.39,4.287,8.39
	c-2.581-3.843-5.974-6.333-9.454-7.947c-2.774,0.335-5.42,0.755-7.927,1.267c-0.789,0.168-1.521,0.338-2.198,0.508L6.01,69.248
	l-0.48,0.336l-0.535-0.166v0.195c-0.039,0.131-0.114,0.227-0.226,0.281c-0.114,0.057-0.273,0.066-0.48,0.027
	c-0.283-0.037-0.433-0.057-0.451-0.057c-0.113,0-0.207,0.028-0.282,0.086c-0.057,0.02-0.17,0.123-0.34,0.309
	c-0.15,0.15-0.659,1.035-1.524,2.652c-0.846,1.596-1.333,2.576-1.466,2.932c-0.112,0.318-0.179,0.535-0.196,0.648
	c0,0.074-0.01,0.291-0.028,0.648c-0.02,0.301,0.028,0.592,0.139,0.875c0.057,0.186,0.162,0.377,0.312,0.564
	c0.056,0.131,0.197,0.262,0.422,0.393c0.245,0.172,0.518,0.293,0.818,0.367c0.284,0.094,0.603,0.094,0.958,0
	c0.208-0.039,0.518-0.141,0.933-0.311c0.226-0.074,0.968-0.404,2.226-0.986c1.204-0.564,1.871-0.863,2.003-0.902
	c0.169-0.055,0.836-0.178,2.001-0.365c0.94-0.15,1.928-0.291,2.961-0.422c1.147-0.15,3.187-0.33,6.118-0.537
	c0.885-0.074,1.863-0.131,2.934-0.168c1.428-0.057,2.209-0.057,2.34,0c0.055,0.016,0.149,0.082,0.283,0.195
	c0.074,0.057,0.196,0.16,0.365,0.309c0.32,0.266,0.592,0.389,0.819,0.369c0.074-0.02,0.187-0.029,0.337-0.029
	c0.095,0,0.17-0.02,0.227-0.057c0.15-0.057,0.461-0.264,0.93-0.619c0.545-0.449,1.061-0.771,1.551-0.959
	c0.545-0.227,1.184-0.365,1.918-0.422c0.75-0.037,1.446,0.047,2.084,0.254c0.584,0.188,1.233,0.506,1.946,0.959
	c0.547,0.355,0.979,1.043,1.298,2.057c0.151,0.508,0.245,0.979,0.282,1.412l0.507,0.141l0.284-0.365l0.479,0.025l0.396,0.508v0.535
	h5.837c4.229-0.037,7.17-0.121,8.826-0.252c2.085-0.17,3.955-0.451,5.609-0.846c1.861-0.434,3.77-1.066,5.723-1.893
	c1.693-0.695,3.43-1.775,5.217-3.242c0.902-0.713,1.617-1.37,2.143-1.973C70.7,71.529,70.08,71.268,69.363,70.965z M2.681,78.014
	c-0.15,0.17-0.301,0.281-0.45,0.338c-0.188,0.131-0.386,0.189-0.591,0.17c-0.17-0.018-0.349-0.084-0.537-0.197
	c-0.206-0.133-0.328-0.273-0.365-0.424c-0.077-0.148-0.113-0.309-0.113-0.479c-0.018-0.209,0.019-0.395,0.113-0.563
	c0.11-0.207,0.224-0.359,0.338-0.451c0.169-0.115,0.385-0.178,0.648-0.199c0.282,0,0.535,0.086,0.761,0.254
	c0.151,0.131,0.264,0.291,0.338,0.48c0.077,0.148,0.103,0.326,0.085,0.535C2.872,77.703,2.794,77.881,2.681,78.014z"/>
<linearGradient id="SVGID_3_" gradientUnits="userSpaceOnUse" x1="5.9482" y1="74.4268" x2="23.5988" y2="64.2586">
	<stop  offset="0.3505" style="stop-color:#FFE3A0"/>
	<stop  offset="1" style="stop-color:#00FFFF"/>
</linearGradient>
<path fill="url(#SVGID_3_)" d="M22.797,66.777c-0.112-0.17-0.227-0.34-0.343-0.511c-2.378-0.141-4.592,0.025-6.397,0.279
	c0.525,0.204,1.05,0.432,1.573,0.674c0.076-0.009,0.146-0.021,0.222-0.03C19.297,67.019,20.946,66.881,22.797,66.777z"/>
<linearGradient id="SVGID_4_" gradientUnits="userSpaceOnUse" x1="0.3867" y1="64.7734" x2="18.0372" y2="54.6053">
	<stop  offset="0.3505" style="stop-color:#FFE3A0"/>
	<stop  offset="1" style="stop-color:#00FFFF"/>
</linearGradient>
<path fill="url(#SVGID_4_)" d="M16.279,59.357c-2.938-2.432-6.525-4.354-10.821-5.003L1.021,64.479c0,0,5.206-0.608,11.326,0.901
	l2.323-5.929C15.212,59.385,15.748,59.359,16.279,59.357z"/>
<linearGradient id="SVGID_5_" gradientUnits="userSpaceOnUse" x1="-876.5225" y1="46.8066" x2="-875.3024" y2="46.2401" gradientTransform="matrix(71.2284 0 0 13.4198 62410.7031 -553.0254)">
	<stop  offset="0.2463" style="stop-color:#000000"/>
	<stop  offset="0.532" style="stop-color:#FFD400"/>
	<stop  offset="0.8325" style="stop-color:#FF0000"/>
</linearGradient>
<path fill="url(#SVGID_5_)" d="M27.083,75.167c0,0-1.344-3.929-4.287-8.39c-1.851,0.104-3.5,0.241-4.946,0.412
	c-0.076,0.009-0.146,0.021-0.222,0.03C21.11,68.834,24.503,71.324,27.083,75.167z"/>
<linearGradient id="SVGID_6_" gradientUnits="userSpaceOnUse" x1="8.6387" y1="21.8438" x2="26.2892" y2="11.6756">
	<stop  offset="0.3505" style="stop-color:#FFE3A0"/>
	<stop  offset="1" style="stop-color:#00FFFF"/>
</linearGradient>
<path fill="url(#SVGID_6_)" d="M27.083,17.914c0,0-1.344-3.929-4.287-8.39c-1.851,0.104-3.5,0.241-4.946,0.412
	c-0.076,0.009-0.146,0.021-0.222,0.03C21.11,11.581,24.503,14.071,27.083,17.914z"/>
<linearGradient id="SVGID_7_" gradientUnits="userSpaceOnUse" x1="10.8535" y1="66.3105" x2="26.4985" y2="57.2978" gradientTransform="matrix(0.9865 -0.1637 0.1637 0.9865 -10.2094 4.6617)">
	<stop  offset="0.1781" style="stop-color:#FFE3A0"/>
	<stop  offset="1" style="stop-color:#00FFFF"/>
</linearGradient>
<path fill="url(#SVGID_7_)" d="M11.51,67.517c0,0,1.803-0.584,4.546-0.971c-1.251-0.486-2.497-0.866-3.709-1.165L11.51,67.517z"/>
<linearGradient id="SVGID_8_" gradientUnits="userSpaceOnUse" x1="12.6602" y1="69.4453" x2="28.3051" y2="60.4325" gradientTransform="matrix(0.9865 -0.1637 0.1637 0.9865 -10.2094 4.6617)">
	<stop  offset="0.1781" style="stop-color:#FFE3A0"/>
	<stop  offset="1" style="stop-color:#00FFFF"/>
</linearGradient>
<path fill="url(#SVGID_8_)" d="M22.454,66.267c1.047,0.062,2.124,0.181,3.213,0.382c0.995-0.035,2.035-0.062,3.125-0.08
	c0.728-0.013,1.416-0.019,2.084-0.023c-3.186-3.156-8.481-7.217-14.596-7.188C18.806,61.447,20.849,63.912,22.454,66.267z"/>
<linearGradient id="SVGID_9_" gradientUnits="userSpaceOnUse" x1="-876.583" y1="46.6768" x2="-875.363" y2="46.1102" gradientTransform="matrix(71.2284 0 0 13.4198 62410.7031 -553.0254)">
	<stop  offset="0.2463" style="stop-color:#000000"/>
	<stop  offset="0.532" style="stop-color:#FFD400"/>
	<stop  offset="0.8325" style="stop-color:#FF0000"/>
</linearGradient>
<path fill="url(#SVGID_9_)" d="M25.667,66.648c2.847,0.523,5.769,1.585,8.396,3.524c0,0-1.173-1.632-3.187-3.628
	c-0.668,0.005-1.356,0.011-2.084,0.023C27.702,66.587,26.661,66.613,25.667,66.648z"/>
<linearGradient id="SVGID_10_" gradientUnits="userSpaceOnUse" x1="26.1328" y1="20.0771" x2="41.776" y2="11.0654" gradientTransform="matrix(0.9865 -0.1637 0.1637 0.9865 -10.2094 4.6617)">
	<stop  offset="0.1781" style="stop-color:#FFE3A0"/>
	<stop  offset="1" style="stop-color:#00FFFF"/>
</linearGradient>
<path fill="url(#SVGID_10_)" d="M25.667,9.395c2.847,0.523,5.769,1.585,8.396,3.524c0,0-1.173-1.632-3.187-3.628
	c-0.668,0.005-1.356,0.011-2.084,0.023C27.702,9.333,26.661,9.36,25.667,9.395z"/>
<linearGradient id="SVGID_11_" gradientUnits="userSpaceOnUse" x1="4.0879" y1="71.1982" x2="21.7384" y2="61.0301">
	<stop  offset="0.3505" style="stop-color:#FFE3A0"/>
	<stop  offset="1" style="stop-color:#00FFFF"/>
</linearGradient>
<path fill="url(#SVGID_11_)" d="M22.454,66.267c-1.604-2.354-3.647-4.819-6.174-6.909c-0.531,0.002-1.067,0.027-1.609,0.095
	l-2.323,5.929c1.212,0.299,2.458,0.679,3.709,1.165C17.862,66.292,20.075,66.126,22.454,66.267z"/>
<linearGradient id="SVGID_12_" gradientUnits="userSpaceOnUse" x1="11.0361" y1="66.6279" x2="26.6811" y2="57.6151" gradientTransform="matrix(0.9865 -0.1637 0.1637 0.9865 -10.2094 4.6617)">
	<stop  offset="0.1781" style="stop-color:#FFE3A0"/>
	<stop  offset="1" style="stop-color:#00FFFF"/>
</linearGradient>
<path fill="url(#SVGID_12_)" d="M22.454,66.267c-1.604-2.354-3.647-4.819-6.174-6.909c-0.531,0.002-1.067,0.027-1.609,0.095
	l-2.323,5.929c1.212,0.299,2.458,0.679,3.709,1.165C17.862,66.292,20.075,66.126,22.454,66.267z"/>
<g>
	<g>
		<g>
			<g>
				<g>
					<g>
						<linearGradient id="SVGID_13_" gradientUnits="userSpaceOnUse" x1="70.2988" y1="9.5835" x2="0.4745" y2="22.7388">
							<stop  offset="0" style="stop-color:#BB925B"/>
							<stop  offset="0.3429" style="stop-color:#FFF6DA"/>
							<stop  offset="0.6571" style="stop-color:#FFF1B1"/>
							<stop  offset="1" style="stop-color:#B38B54"/>
						</linearGradient>
						<path fill="url(#SVGID_13_)" d="M31.885,10.29c0.808,0,1.568,0.006,2.279,0.02l0.201,0.188c0.19,0.18,0.437,0.272,0.686,0.272
							c0.158,0,0.316-0.037,0.462-0.113l0.149-0.078l0.164,0.1c0.16,0.099,0.34,0.146,0.52,0.146c0.159,0,0.316-0.037,0.459-0.111
							c0.167,0.11,0.36,0.168,0.556,0.168c0.152,0,0.305-0.034,0.446-0.105l0.085-0.042l0.06,0.051
							c0.186,0.158,0.417,0.239,0.649,0.239c0.171,0,0.342-0.044,0.497-0.132l0.086-0.05l0.123,0.072
							c0.156,0.092,0.331,0.138,0.507,0.138c0.16,0,0.32-0.038,0.467-0.115l0.036-0.02l0.168,0.101
							c0.157,0.095,0.336,0.143,0.515,0.143c0.139,0,0.277-0.028,0.407-0.087c0.182,0.15,0.407,0.229,0.636,0.229
							c0.138,0,0.275-0.028,0.405-0.086l0.013,0.012c0.188,0.177,0.435,0.271,0.684,0.271c0.121,0,0.243-0.021,0.36-0.067
							l0.215-0.083l0.12,0.091c0.176,0.133,0.388,0.201,0.602,0.201c0.122,0,0.245-0.022,0.362-0.067l0.14-0.055l0.021,0.019
							c0.189,0.18,0.437,0.273,0.687,0.273c0.141,0,0.282-0.029,0.415-0.09l0.338-0.154l1.313,0.231
							c1.209,0.197,2.333,0.42,3.362,0.665c0.987,0.216,2.718,0.729,5.156,1.529c1.295,0.406,2.406,0.78,3.398,1.141
							c0.019,0.007,0.038,0.014,0.058,0.02l0.163,0.048c0.172,0.063,0.346,0.115,0.516,0.16c0.033,0.009,0.067,0.016,0.101,0.021
							c0.189,0.029,0.373,0.044,0.546,0.044c0.507,0,0.95-0.125,1.353-0.396c0.652-0.479,0.815-1.039,0.831-1.445
							c0.026-0.296-0.028-0.624-0.172-1.023c-0.002-0.008-0.005-0.015-0.008-0.022c1.04,0.315,1.912,0.595,2.617,0.837
							c0.859,0.257,1.981,0.681,3.338,1.26l0.091,0.039c0.14,0.059,0.275,0.116,0.408,0.172c-0.305,0.274-0.646,0.561-1.024,0.858
							c-1.702,1.398-3.372,2.438-4.972,3.095c-1.901,0.804-3.771,1.423-5.565,1.841c-1.593,0.38-3.429,0.656-5.456,0.821
							c-1.625,0.129-4.571,0.212-8.747,0.249h-4.951c-0.027-0.053-0.061-0.103-0.097-0.149l-0.396-0.508
							c-0.178-0.229-0.446-0.369-0.736-0.385l-0.479-0.025c-0.013,0-0.026-0.001-0.04-0.001c-0.038-0.159-0.083-0.321-0.132-0.487
							c-0.396-1.257-0.954-2.105-1.715-2.601c-0.777-0.494-1.51-0.854-2.174-1.066c-0.637-0.206-1.327-0.312-2.052-0.312
							c-0.128,0-0.258,0.004-0.417,0.012c-0.854,0.065-1.582,0.228-2.199,0.485c-0.59,0.226-1.188,0.592-1.798,1.096
							c-0.443,0.336-0.627,0.448-0.669,0.475c-0.082,0.002-0.157,0.007-0.228,0.016c-0.034-0.021-0.085-0.054-0.151-0.108
							c-0.192-0.169-0.332-0.286-0.38-0.322c-0.202-0.17-0.383-0.3-0.591-0.373c-0.209-0.076-0.468-0.101-1.021-0.101
							c-0.401,0-0.972,0.015-1.691,0.044c-1.069,0.037-2.073,0.094-2.97,0.17c-2.928,0.206-5.006,0.389-6.173,0.542
							c-1.045,0.133-2.052,0.276-2.994,0.427c-1.812,0.292-2.041,0.365-2.126,0.394C7.43,18.96,7.245,19.015,5.39,19.885
							c-0.732,0.338-1.215,0.558-1.534,0.698c0.016-0.063,0.029-0.13,0.04-0.196c0.004-0.025,0.007-0.05,0.009-0.075
							c0.032-0.381-0.025-0.727-0.168-1.028c-0.134-0.322-0.335-0.601-0.598-0.828c-0.019-0.016-0.038-0.031-0.058-0.046
							c-0.403-0.3-0.859-0.451-1.357-0.451c-0.027,0-0.054,0.001-0.082,0.003c-0.006,0.001-0.012,0.001-0.019,0.002
							c0.21-0.419,0.513-1.007,0.95-1.83c1.031-1.927,1.313-2.358,1.382-2.452c0.013-0.014,0.025-0.027,0.037-0.04
							c0.042,0.006,0.089,0.012,0.141,0.019c0.133,0.023,0.261,0.035,0.382,0.035c0.255,0,0.49-0.052,0.692-0.152
							c0.115-0.057,0.219-0.127,0.313-0.209c0.003,0,0.005,0,0.008,0c0.203,0,0.403-0.062,0.573-0.181l0.296-0.207l1.272-0.216
							c0.025-0.005,0.051-0.01,0.076-0.017c0.684-0.172,1.412-0.34,2.155-0.498c2.541-0.518,5.255-0.95,8.067-1.283
							c2.82-0.334,6.467-0.54,10.839-0.614C29.901,10.299,30.927,10.29,31.885,10.29 M31.885,9.29c-0.963,0-1.995,0.009-3.094,0.027
							c-4.437,0.075-8.083,0.283-10.94,0.621c-2.857,0.339-5.573,0.771-8.149,1.297c-0.789,0.168-1.521,0.338-2.198,0.508
							L6.01,11.997l-0.48,0.336l-0.535-0.166v0.195c-0.039,0.131-0.114,0.227-0.226,0.281c-0.068,0.034-0.152,0.051-0.253,0.051
							c-0.068,0-0.144-0.008-0.227-0.023c-0.283-0.037-0.433-0.057-0.451-0.057c-0.113,0-0.207,0.028-0.282,0.086
							c-0.057,0.02-0.17,0.123-0.34,0.309c-0.15,0.15-0.659,1.035-1.524,2.652c-0.846,1.596-1.333,2.576-1.466,2.932
							c-0.112,0.318-0.179,0.535-0.196,0.648c0,0.074-0.01,0.291-0.028,0.648c-0.02,0.301,0.028,0.592,0.139,0.875
							c0.057,0.186,0.162,0.377,0.312,0.564c0.056,0.131,0.197,0.262,0.422,0.393c0.245,0.172,0.518,0.293,0.818,0.367
							c0.142,0.047,0.293,0.07,0.453,0.07c0.159,0,0.328-0.023,0.505-0.07c0.208-0.039,0.518-0.141,0.933-0.311
							c0.226-0.074,0.968-0.404,2.226-0.986c1.204-0.564,1.871-0.863,2.003-0.902c0.169-0.055,0.836-0.178,2.001-0.365
							c0.94-0.15,1.928-0.291,2.961-0.422c1.147-0.15,3.187-0.33,6.118-0.537c0.885-0.074,1.863-0.131,2.934-0.168
							c0.714-0.028,1.266-0.043,1.656-0.043s0.618,0.015,0.684,0.043c0.055,0.016,0.149,0.082,0.283,0.195
							c0.074,0.057,0.196,0.16,0.365,0.309c0.298,0.247,0.555,0.371,0.771,0.371c0.016,0,0.032-0.001,0.047-0.002
							c0.074-0.02,0.187-0.029,0.337-0.029c0.095,0,0.17-0.02,0.227-0.057c0.15-0.057,0.461-0.264,0.93-0.619
							c0.545-0.449,1.061-0.771,1.551-0.959c0.545-0.227,1.184-0.365,1.918-0.422c0.115-0.006,0.228-0.009,0.34-0.009
							c0.621,0,1.203,0.087,1.744,0.263c0.584,0.188,1.233,0.506,1.946,0.959c0.547,0.355,0.979,1.043,1.298,2.057
							c0.151,0.508,0.245,0.979,0.282,1.412l0.507,0.141l0.284-0.365l0.479,0.025l0.396,0.508v0.535h5.837
							c4.229-0.037,7.17-0.121,8.826-0.252c2.085-0.17,3.955-0.451,5.609-0.846c1.861-0.434,3.77-1.066,5.723-1.893
							c1.693-0.695,3.43-1.775,5.217-3.242c0.902-0.713,1.617-1.37,2.143-1.973c-0.526-0.227-1.146-0.488-1.863-0.791
							c-1.41-0.603-2.559-1.033-3.44-1.297c-0.922-0.318-2.18-0.713-3.778-1.184c-1.445-0.395-2.283-0.619-2.508-0.677
							c-0.209-0.036-0.349-0.056-0.425-0.056c-0.075,0-0.179,0.027-0.312,0.084c-0.168,0.037-0.262,0.121-0.28,0.254
							c-0.039,0.074-0.039,0.158,0,0.252c0.036,0.078,0.131,0.125,0.28,0.143c0.453,0.168,0.754,0.273,0.901,0.311
							c0.474,0.168,0.96,0.396,1.47,0.678c0.485,0.32,0.758,0.544,0.814,0.675c0.094,0.263,0.135,0.472,0.114,0.623
							c0,0.263-0.142,0.497-0.423,0.703c-0.201,0.135-0.455,0.202-0.762,0.202c-0.123,0-0.254-0.011-0.394-0.032
							c-0.149-0.039-0.302-0.085-0.453-0.142l-0.194-0.058c-1.033-0.376-2.182-0.76-3.44-1.155c-2.464-0.809-4.21-1.326-5.243-1.552
							c-1.018-0.243-2.154-0.47-3.414-0.676l-1.605-0.283l-0.621,0.283l-0.479-0.453l-0.729,0.283l-0.563-0.425l-0.733,0.283
							l-0.51-0.478l-0.592,0.281l-0.45-0.423L41,10.161l-0.65-0.391l-0.535,0.282l-0.623-0.366l-0.59,0.338l-0.563-0.48
							l-0.678,0.338l-0.534-0.45l-0.481,0.394L35.7,9.432l-0.649,0.339L34.57,9.317C33.743,9.299,32.849,9.29,31.885,9.29
							L31.885,9.29z M1.717,21.274c-0.026,0-0.051-0.001-0.077-0.004c-0.17-0.018-0.349-0.084-0.537-0.197
							C0.897,20.94,0.775,20.8,0.738,20.649c-0.077-0.148-0.113-0.309-0.113-0.479c-0.018-0.209,0.019-0.395,0.113-0.563
							c0.11-0.207,0.224-0.359,0.338-0.451c0.169-0.115,0.385-0.178,0.648-0.199c0.282,0,0.535,0.086,0.761,0.254
							c0.151,0.131,0.264,0.291,0.338,0.48c0.077,0.148,0.103,0.326,0.085,0.535c-0.036,0.225-0.114,0.402-0.227,0.535
							c-0.15,0.17-0.301,0.281-0.45,0.338C2.066,21.215,1.895,21.274,1.717,21.274L1.717,21.274z"/>
					</g>
				</g>
			</g>
		</g>
	</g>
</g>
</svg>
