<?xml version="1.0" encoding="utf-8"?>
<!-- Generator: Adobe Illustrator 16.0.0, SVG Export Plug-In . SVG Version: 6.00 Build 0)  -->
<!DOCTYPE svg PUBLIC "-//W3C//DTD SVG 1.1//EN" "http://www.w3.org/Graphics/SVG/1.1/DTD/svg11.dtd">
<svg version="1.1" id="图层_1" xmlns="http://www.w3.org/2000/svg" xmlns:xlink="http://www.w3.org/1999/xlink" x="0px" y="0px"
	 width="92.059px" height="32px" viewBox="0 0 92.059 32" enable-background="new 0 0 92.059 32" xml:space="preserve">
<rect x="0" fill="none" width="92.059" height="32"/>
<g>
	<g>
		<g>
			<g>
				
					<linearGradient id="SVGID_1_" gradientUnits="userSpaceOnUse" x1="-684.9978" y1="-64.4946" x2="-683.7161" y2="-65.1271" gradientTransform="matrix(76.377 0 0 13.5408 52299.3906 894.356)">
					<stop  offset="0.2611" style="stop-color:#000000"/>
					<stop  offset="0.5271" style="stop-color:#FFD400"/>
					<stop  offset="0.8079" style="stop-color:#FF0000"/>
				</linearGradient>
				<path fill="url(#SVGID_1_)" d="M1.984,14.83c-0.149,0.151-0.226,0.331-0.226,0.538c0,0.189,0.075,0.36,0.226,0.51
					c0.134,0.134,0.305,0.199,0.513,0.199c0.207,0,0.376-0.065,0.51-0.199c0.149-0.149,0.227-0.32,0.227-0.51
					c0-0.207-0.075-0.387-0.227-0.538c-0.133-0.133-0.303-0.198-0.51-0.198C2.287,14.632,2.117,14.697,1.984,14.83z M72.412,13.3
					c1.719,0.284,3.116,0.548,4.192,0.793l-8.333,6.378l-13.488-0.113c-0.171-0.416-0.465-0.528-0.88-0.342
					c-0.111-0.074-0.188-0.132-0.227-0.17c-0.076-0.055-0.16-0.084-0.255-0.084c-0.094,0-0.179,0.029-0.255,0.084
					c-0.038,0.038-0.066,0.076-0.085,0.114c-0.037-0.038-0.113-0.076-0.228-0.114c-0.171-0.055-0.379-0.084-0.624-0.084
					c-0.227,0-0.426,0.029-0.595,0.084c-0.114,0.038-0.188,0.076-0.227,0.114c-0.021-0.038-0.049-0.076-0.085-0.114
					c-0.075-0.055-0.16-0.084-0.257-0.084c-0.095,0-0.179,0.029-0.255,0.084c-0.039,0.038-0.064,0.076-0.085,0.114
					c-0.019-0.038-0.047-0.076-0.085-0.114c-0.076-0.055-0.161-0.084-0.255-0.084s-0.179,0.029-0.255,0.084
					c-0.057,0.038-0.085,0.076-0.085,0.114c-0.056-0.038-0.132-0.076-0.228-0.114c-0.171-0.055-0.378-0.084-0.622-0.084
					c-0.246,0-0.454,0.029-0.623,0.084c-0.098,0.038-0.162,0.076-0.199,0.114c-0.021-0.038-0.059-0.076-0.114-0.114
					c-0.056-0.055-0.131-0.084-0.226-0.084c-0.113,0-0.198,0.029-0.256,0.084c-0.058,0.038-0.096,0.076-0.113,0.114
					c-0.021-0.038-0.047-0.076-0.085-0.114c-0.075-0.055-0.161-0.084-0.255-0.084c-0.096,0-0.182,0.029-0.256,0.084
					c-0.037,0.038-0.065,0.076-0.084,0.114c-0.037-0.038-0.113-0.076-0.228-0.114c-0.17-0.055-0.369-0.084-0.596-0.084
					c-0.245,0-0.454,0.029-0.623,0.084c-0.115,0.038-0.19,0.076-0.229,0.114c-0.019-0.038-0.047-0.076-0.085-0.114
					c-0.074-0.055-0.161-0.084-0.255-0.084c-0.095,0-0.18,0.029-0.256,0.084c-0.038,0.038-0.065,0.076-0.084,0.114
					c-0.021-0.038-0.048-0.076-0.085-0.114c-0.076-0.055-0.161-0.084-0.255-0.084c-0.095,0-0.181,0.029-0.255,0.084
					c-0.037,0.038-0.066,0.076-0.084,0.114c-0.038-0.038-0.114-0.076-0.229-0.114c-0.169-0.055-0.377-0.084-0.623-0.084
					c-0.226,0-0.435,0.029-0.624,0.084c-0.094,0.038-0.161,0.076-0.197,0.114c-0.021-0.038-0.058-0.076-0.113-0.114
					c-0.059-0.055-0.132-0.084-0.229-0.084c-0.111,0-0.196,0.029-0.255,0.084c-0.056,0.038-0.085,0.076-0.085,0.114
					c-0.378-0.228-0.688-0.058-0.935,0.511H37.41l-0.059,0.34c-0.057,0.283-0.123,0.549-0.198,0.793
					c-0.264,0.736-0.633,1.125-1.104,1.162c-0.265,0.021-0.481-0.027-0.652-0.143c-0.132-0.094-0.271-0.244-0.425-0.451
					c-0.17-0.283-0.321-0.502-0.453-0.652c-0.208-0.283-0.442-0.528-0.709-0.736c-0.661-0.512-1.492-0.813-2.494-0.907
					c-0.832-0.094-2.381-0.058-4.646,0.114c-1.588,0.111-3.798,0.17-6.632,0.17c-3.042-0.059-5.104-0.084-6.181-0.084
					c0-0.077-0.026-0.143-0.084-0.2c-0.056-0.058-0.132-0.083-0.227-0.083c-0.076,0-0.144,0.025-0.199,0.083
					c-0.056,0.06-0.084,0.123-0.084,0.2c-0.132,0-0.245,0-0.34,0c-0.114,0.019-0.229,0.025-0.34,0.025
					c0-0.076-0.028-0.142-0.085-0.196c-0.059-0.06-0.123-0.087-0.199-0.087c-0.075,0-0.142,0.027-0.198,0.087
					c-0.076,0.057-0.112,0.12-0.112,0.196v0.028c-0.188,0-0.379,0.009-0.566,0.028c0-0.075-0.028-0.133-0.085-0.17
					c-0.059-0.057-0.123-0.086-0.198-0.086c-0.076,0-0.15,0.029-0.227,0.086c-0.059,0.057-0.085,0.123-0.085,0.197
					c0,0.02,0.01,0.037,0.026,0.057c-0.188,0.021-0.368,0.039-0.539,0.058c0-0.036-0.026-0.085-0.084-0.142
					s-0.124-0.084-0.197-0.084c-0.075,0-0.151,0.027-0.229,0.084c-0.057,0.057-0.085,0.133-0.085,0.227
					c0,0.021,0.01,0.038,0.029,0.057c-0.17,0.039-0.331,0.084-0.482,0.145C9.25,20.547,9.231,20.52,9.213,20.5
					c-0.059-0.059-0.132-0.084-0.229-0.084c-0.073,0-0.142,0.025-0.196,0.084c-0.059,0.059-0.085,0.123-0.085,0.199
					c0,0.035,0.01,0.072,0.026,0.111c-0.075,0.037-0.159,0.084-0.255,0.144c-0.075,0.037-0.142,0.084-0.197,0.144
					c-0.058-0.039-0.112-0.06-0.171-0.06c-0.094,0-0.169,0.028-0.227,0.085c-0.057,0.059-0.085,0.133-0.085,0.229
					c0,0.074,0.028,0.143,0.085,0.197c0.02,0.02,0.048,0.038,0.085,0.059c-0.021,0-0.028,0.01-0.028,0.026
					c-0.188,0.341-0.435,0.55-0.736,0.624c-0.379,0.113-0.746,0.096-1.105-0.058C5.813,22.066,5.5,21.831,5.16,21.491
					c-0.266-0.283-0.767-0.878-1.502-1.784c-0.72-0.891-1.173-1.484-1.36-1.787c-0.114-0.17-0.161-0.339-0.144-0.51l0.087-0.17
					l-0.538,0.027l-1.476-1.701l1.476-1.928l0.34-0.028c0-0.094,0.018-0.198,0.056-0.312c0.095-0.227,0.236-0.397,0.425-0.511
					c0.152-0.075,0.645-0.17,1.477-0.283c0.018,0.094,0.056,0.17,0.11,0.228c0.097,0.095,0.199,0.142,0.313,0.142
					s0.208-0.047,0.283-0.142c0.076-0.076,0.112-0.171,0.112-0.284c0-0.019,0-0.037,0-0.057c0.171-0.02,0.352-0.038,0.539-0.057
					c0,0.113,0.038,0.198,0.114,0.255c0.075,0.095,0.169,0.143,0.283,0.143s0.217-0.048,0.312-0.143
					c0.076-0.075,0.113-0.17,0.113-0.282v-0.03c0.151-0.019,0.321-0.037,0.51-0.056c0,0.095,0.038,0.18,0.113,0.255
					c0.076,0.076,0.17,0.113,0.284,0.113c0.113,0,0.217-0.037,0.312-0.113c0.076-0.075,0.114-0.169,0.114-0.283
					c0-0.02,0-0.038,0-0.057c0.208-0.019,0.416-0.038,0.624-0.057c0,0.113,0.038,0.197,0.113,0.255
					c0.076,0.095,0.17,0.142,0.283,0.142c0.112,0,0.208-0.047,0.282-0.142c0.097-0.076,0.144-0.169,0.144-0.283v-0.027
					c0.169-0.021,0.34-0.029,0.51-0.029c0,0.094,0.038,0.179,0.113,0.254c0.095,0.078,0.196,0.114,0.313,0.114
					c0.113,0,0.208-0.036,0.282-0.114c0.077-0.075,0.114-0.169,0.114-0.283V11.94c0.188-0.021,0.368-0.029,0.538-0.029
					c0,0.094,0.038,0.179,0.112,0.256c0.075,0.074,0.181,0.111,0.313,0.111c0.113,0,0.208-0.037,0.283-0.111
					c0.074-0.077,0.112-0.171,0.112-0.284v-0.029c1.738-0.095,3.485-0.16,5.242-0.197c2.74-0.038,5.753,0.047,9.042,0.255
					c0.737,0.037,1.646,0.094,2.722,0.17v0.027c0,0.114,0.036,0.22,0.112,0.313c0.075,0.075,0.169,0.113,0.283,0.113
					s0.218-0.038,0.313-0.113c0.074-0.075,0.112-0.171,0.112-0.283c0.246,0.019,0.462,0.029,0.651,0.029
					c0,0.093,0.038,0.188,0.114,0.282c0.095,0.076,0.196,0.113,0.313,0.113c0.113,0,0.208-0.037,0.283-0.113
					c0.076-0.095,0.114-0.199,0.114-0.312v-0.029c0.245-0.019,0.479-0.047,0.708-0.083c0,0.094,0.037,0.178,0.11,0.253
					c0.076,0.076,0.171,0.114,0.284,0.114c0.114,0,0.208-0.038,0.283-0.114c0.094-0.093,0.142-0.197,0.142-0.312
					c0-0.019,0-0.036,0-0.056c0.229-0.058,0.428-0.104,0.598-0.142c0.019,0.037,0.056,0.075,0.111,0.113
					c0.075,0.095,0.17,0.143,0.283,0.143s0.208-0.048,0.283-0.143c0.094-0.076,0.143-0.17,0.143-0.284
					c0-0.075-0.019-0.141-0.058-0.197c0.227-0.151,0.426-0.322,0.596-0.511c0.058,0.038,0.132,0.057,0.228,0.057
					c0.112,0,0.208-0.037,0.284-0.113c0.073-0.075,0.112-0.171,0.112-0.284c0-0.113-0.039-0.217-0.112-0.311
					c-0.021-0.021-0.049-0.038-0.087-0.058c0.267-0.435,0.539-0.717,0.822-0.85c0.189-0.095,0.389-0.123,0.598-0.086
					c0.396,0.076,0.708,0.511,0.935,1.304c0.113,0.379,0.189,0.756,0.226,1.135l9.778,0.085c7.124,0.095,12.244,0.227,15.361,0.397
					C65.695,12.354,68.973,12.733,72.412,13.3z"/>
			</g>
		</g>
	</g>
</g>
<linearGradient id="SVGID_2_" gradientUnits="userSpaceOnUse" x1="15.9246" y1="21.8457" x2="33.5753" y2="11.6774">
	<stop  offset="0.3505" style="stop-color:#FFE3A0"/>
	<stop  offset="1" style="stop-color:#00FFFF"/>
</linearGradient>
<path fill="url(#SVGID_2_)" d="M30.954,12.109v0.029c0,0.112-0.038,0.217-0.114,0.312c-0.075,0.075-0.17,0.112-0.283,0.112
	c-0.116,0-0.218-0.037-0.313-0.112c-0.076-0.095-0.114-0.189-0.114-0.282c-0.189,0-0.405-0.01-0.651-0.029
	c0,0.112-0.038,0.209-0.112,0.283c-0.096,0.075-0.199,0.113-0.313,0.113s-0.208-0.038-0.283-0.113
	c-0.076-0.093-0.112-0.199-0.112-0.313v-0.027c-1.076-0.076-1.984-0.133-2.722-0.17c-3.289-0.208-6.302-0.293-9.042-0.255
	c-1.757,0.036-3.504,0.102-5.242,0.196v0.029c0,0.056-0.01,0.107-0.028,0.154c2.897-0.217,17.394-0.699,25.184,10.232
	c0.038-0.053,0.078-0.097,0.113-0.158c-0.619-1.584-2.443-5.823-5.683-10.035C31.143,12.086,31.052,12.102,30.954,12.109z"/>
<linearGradient id="SVGID_3_" gradientUnits="userSpaceOnUse" x1="32.2825" y1="19.8945" x2="47.9274" y2="10.8817">
	<stop  offset="0.1781" style="stop-color:#FFE3A0"/>
	<stop  offset="1" style="stop-color:#00FFFF"/>
</linearGradient>
<path fill="url(#SVGID_3_)" d="M37.217,10.549c-0.227-0.793-0.539-1.229-0.935-1.304c-0.209-0.037-0.408-0.009-0.598,0.086
	c-0.283,0.133-0.556,0.415-0.822,0.851c0.038,0.02,0.066,0.036,0.087,0.058c0.073,0.094,0.112,0.198,0.112,0.311
	c0,0.113-0.039,0.209-0.112,0.284c-0.076,0.076-0.172,0.113-0.284,0.113c-0.096,0-0.17-0.02-0.228-0.057
	c-0.17,0.188-0.369,0.359-0.596,0.51c0.039,0.057,0.058,0.123,0.058,0.197c0,0.035-0.013,0.064-0.022,0.096
	c4.716,0.231,11.491,1.527,16.31,6.494c0,0-1.555-3.146-4.391-6.431l-8.354-0.073C37.406,11.305,37.33,10.928,37.217,10.549z"/>
<g>
	<g>
		<g>
			<g>
				<g>
					<linearGradient id="SVGID_4_" gradientUnits="userSpaceOnUse" x1="75.7805" y1="9.4478" x2="1.4783" y2="22.6209">
						<stop  offset="0" style="stop-color:#BB925B"/>
						<stop  offset="0.3429" style="stop-color:#FFF6DA"/>
						<stop  offset="0.6571" style="stop-color:#FFF1B1"/>
						<stop  offset="1" style="stop-color:#B38B54"/>
					</linearGradient>
					<path fill="url(#SVGID_4_)" d="M36.046,10.284c0.054,0.096,0.131,0.265,0.213,0.552c0.097,0.325,0.159,0.633,0.188,0.943
						c0.049,0.51,0.475,0.901,0.987,0.905l9.773,0.086c7.085,0.094,12.239,0.227,15.314,0.395c3.058,0.184,6.33,0.562,9.728,1.123
						c0.725,0.12,1.393,0.236,2.001,0.349l-6.313,4.833l-12.628-0.106c-0.28-0.28-0.643-0.433-1.053-0.433
						c-0.05,0-0.101,0.002-0.151,0.007c-0.21-0.114-0.442-0.174-0.683-0.174c-0.158,0-0.314,0.026-0.462,0.077
						c-0.223-0.052-0.467-0.077-0.729-0.077c-0.246,0-0.479,0.025-0.699,0.076c-0.148-0.05-0.305-0.076-0.464-0.076
						c-0.115,0-0.229,0.014-0.34,0.041c-0.11-0.027-0.225-0.041-0.34-0.041c-0.161,0-0.318,0.027-0.465,0.076
						c-0.222-0.051-0.464-0.076-0.725-0.076c-0.258,0-0.498,0.024-0.716,0.074c-0.141-0.049-0.291-0.074-0.446-0.074
						c-0.134,0-0.254,0.016-0.362,0.043c-0.112-0.028-0.229-0.043-0.347-0.043c-0.159,0-0.315,0.026-0.463,0.076
						c-0.218-0.051-0.453-0.076-0.7-0.076c-0.262,0-0.505,0.025-0.729,0.077c-0.147-0.051-0.304-0.077-0.464-0.077
						c-0.116,0-0.229,0.014-0.34,0.041c-0.11-0.027-0.224-0.041-0.339-0.041c-0.16,0-0.315,0.026-0.463,0.077
						c-0.221-0.052-0.465-0.077-0.728-0.077c-0.245,0-0.483,0.025-0.71,0.075c-0.142-0.05-0.294-0.075-0.453-0.075
						c-0.217,0-0.399,0.042-0.549,0.104c-0.033-0.002-0.066-0.003-0.099-0.003c-0.292,0-0.774,0.092-1.189,0.608h-2.69
						c-0.487,0-0.903,0.351-0.985,0.83l-0.054,0.313c-0.05,0.25-0.108,0.483-0.159,0.652c-0.142,0.396-0.268,0.503-0.246,0.503
						c0.001,0,0.003,0,0.005-0.001l0.003,0.037c-0.014-0.011-0.069-0.06-0.171-0.193c-0.182-0.3-0.347-0.535-0.502-0.718
						c-0.257-0.345-0.552-0.647-0.878-0.902c-0.808-0.625-1.821-0.999-2.995-1.11c-0.339-0.038-0.758-0.057-1.281-0.057
						c-0.892,0-2.087,0.057-3.546,0.167c-1.585,0.111-3.793,0.168-6.543,0.168c-2.444-0.047-4.425-0.075-5.678-0.082
						c-0.229-0.185-0.519-0.285-0.833-0.285c-0.231,0-0.451,0.06-0.647,0.176c-0.183-0.099-0.388-0.15-0.6-0.15
						c-0.238,0-0.465,0.064-0.663,0.187c-0.157-0.067-0.325-0.103-0.498-0.103c-0.184,0-0.455,0.041-0.74,0.226
						c-0.118-0.035-0.241-0.054-0.366-0.054c-0.289,0-0.573,0.096-0.82,0.278c-0.03,0.021-0.059,0.045-0.086,0.07
						c-0.046-0.005-0.095-0.007-0.145-0.007c-0.356,0-0.686,0.143-0.903,0.377c-0.081,0.08-0.149,0.169-0.205,0.265
						c-0.266,0.045-0.511,0.169-0.715,0.37c-0.234,0.242-0.36,0.552-0.366,0.898c-0.026,0.003-0.052,0.005-0.077,0.005
						c-0.076,0-0.151-0.017-0.195-0.034c-0.102-0.049-0.322-0.18-0.633-0.49c-0.172-0.184-0.564-0.633-1.454-1.729
						c-0.718-0.889-1.056-1.341-1.226-1.591c0.046-0.181,0.041-0.371-0.016-0.549c0.192-0.083,0.366-0.201,0.519-0.354
						c0.34-0.34,0.52-0.761,0.52-1.217c0-0.477-0.181-0.908-0.52-1.245c-0.192-0.192-0.42-0.33-0.673-0.41
						c0.001-0.013,0.001-0.025,0.002-0.039c0.096-0.021,0.257-0.053,0.521-0.095c0.313,0.24,0.634,0.295,0.861,0.295
						c0.292,0,0.563-0.088,0.79-0.254c0.167,0.073,0.35,0.111,0.542,0.111c0.29,0,0.563-0.086,0.795-0.247
						C6.719,13.554,6.9,13.59,7.088,13.59c0.3,0,0.586-0.089,0.835-0.258c0.186,0.095,0.393,0.145,0.611,0.145
						c0.277,0,0.542-0.084,0.764-0.237c0.187,0.083,0.388,0.125,0.597,0.125c0.277,0,0.538-0.077,0.75-0.21
						c0.164,0.073,0.366,0.123,0.61,0.123c0.375,0,0.725-0.142,1.004-0.417c0.012-0.013,0.024-0.026,0.036-0.039
						c1.529-0.078,3.079-0.133,4.611-0.164c0.419-0.006,0.846-0.009,1.278-0.009c2.355,0,4.941,0.088,7.7,0.262
						c0.589,0.03,1.289,0.072,2.096,0.127c0.005,0.006,0.01,0.013,0.015,0.019c0.021,0.025,0.042,0.049,0.066,0.072
						c0.262,0.262,0.613,0.406,0.99,0.406c0.256,0,0.504-0.065,0.728-0.191c0.235,0.143,0.5,0.218,0.776,0.218
						c0.328,0,0.637-0.109,0.884-0.309c0.188,0.091,0.398,0.139,0.616,0.139c0.38,0,0.733-0.146,0.99-0.406
						c0.007-0.007,0.015-0.015,0.021-0.022c0.129,0.041,0.265,0.061,0.405,0.061c0.384,0,0.732-0.154,0.994-0.437
						c0.195-0.182,0.328-0.406,0.391-0.654c0.304-0.041,0.583-0.178,0.808-0.403c0.255-0.262,0.396-0.611,0.396-0.982
						c0-0.088-0.008-0.175-0.023-0.26C36.041,10.288,36.044,10.286,36.046,10.284 M36.107,9.229c-0.146,0-0.287,0.034-0.422,0.102
						c-0.283,0.133-0.556,0.415-0.822,0.851c0.038,0.02,0.066,0.036,0.087,0.058c0.073,0.094,0.112,0.198,0.112,0.311
						c0,0.113-0.039,0.209-0.112,0.284c-0.076,0.076-0.172,0.113-0.284,0.113c-0.096,0-0.17-0.02-0.228-0.057
						c-0.17,0.188-0.369,0.359-0.596,0.51c0.039,0.057,0.058,0.123,0.058,0.197c0,0.114-0.049,0.209-0.143,0.284
						c-0.075,0.095-0.17,0.144-0.283,0.144s-0.208-0.049-0.283-0.144c-0.056-0.038-0.093-0.075-0.111-0.112
						c-0.17,0.037-0.369,0.084-0.598,0.142c0,0.021,0,0.037,0,0.056c0,0.115-0.048,0.219-0.142,0.313
						c-0.075,0.076-0.169,0.113-0.283,0.113c-0.113,0-0.208-0.037-0.284-0.113c-0.073-0.075-0.11-0.159-0.11-0.254
						c-0.229,0.037-0.463,0.064-0.708,0.084v0.029c0,0.112-0.038,0.217-0.114,0.312c-0.075,0.075-0.17,0.112-0.283,0.112
						c-0.116,0-0.218-0.037-0.313-0.112c-0.076-0.095-0.114-0.189-0.114-0.282c-0.189,0-0.405-0.01-0.651-0.029
						c0,0.112-0.038,0.209-0.112,0.283c-0.096,0.075-0.199,0.113-0.313,0.113s-0.208-0.038-0.283-0.113
						c-0.076-0.093-0.112-0.199-0.112-0.313v-0.027c-1.076-0.076-1.984-0.133-2.722-0.17c-2.78-0.176-5.363-0.264-7.75-0.264
						c-0.437,0-0.868,0.003-1.292,0.009c-1.757,0.036-3.504,0.102-5.242,0.196v0.029c0,0.113-0.038,0.207-0.112,0.284
						c-0.075,0.074-0.17,0.11-0.283,0.11c-0.133,0-0.238-0.036-0.313-0.11c-0.074-0.077-0.112-0.162-0.112-0.256
						c-0.17,0-0.351,0.008-0.538,0.028v0.027c0,0.114-0.037,0.208-0.114,0.283c-0.074,0.078-0.169,0.114-0.282,0.114
						c-0.116,0-0.218-0.036-0.313-0.114c-0.075-0.075-0.113-0.16-0.113-0.254c-0.17,0-0.341,0.008-0.51,0.029v0.026
						c0,0.114-0.047,0.207-0.144,0.283c-0.074,0.095-0.17,0.142-0.282,0.142c-0.113,0-0.207-0.047-0.283-0.142
						c-0.075-0.058-0.113-0.142-0.113-0.255c-0.208,0.02-0.416,0.038-0.624,0.057c0,0.02,0,0.037,0,0.057
						c0,0.115-0.038,0.209-0.114,0.283c-0.095,0.076-0.198,0.113-0.312,0.113c-0.114,0-0.208-0.037-0.284-0.113
						c-0.075-0.074-0.113-0.16-0.113-0.254c-0.188,0.019-0.358,0.036-0.51,0.055v0.031c0,0.111-0.037,0.207-0.113,0.281
						c-0.095,0.096-0.197,0.143-0.312,0.143s-0.208-0.047-0.283-0.143c-0.076-0.057-0.114-0.142-0.114-0.255
						c-0.188,0.019-0.368,0.037-0.539,0.058c0,0.02,0,0.037,0,0.057c0,0.113-0.036,0.208-0.112,0.283
						c-0.075,0.096-0.169,0.143-0.283,0.143s-0.217-0.047-0.313-0.143C4.056,12.675,4.018,12.6,4,12.505
						c-0.832,0.113-1.324,0.208-1.477,0.283c-0.188,0.114-0.33,0.284-0.425,0.511c-0.038,0.114-0.056,0.219-0.056,0.313l-0.34,0.027
						l-1.476,1.928l1.476,1.701l0.538-0.027l-0.087,0.17c-0.018,0.171,0.029,0.34,0.144,0.51c0.188,0.303,0.641,0.896,1.36,1.787
						c0.735,0.906,1.236,1.501,1.502,1.784c0.34,0.34,0.652,0.575,0.935,0.709c0.205,0.088,0.413,0.131,0.624,0.131
						c0.159,0,0.319-0.024,0.482-0.073c0.302-0.074,0.548-0.283,0.736-0.624c0-0.017,0.008-0.026,0.028-0.026
						C7.928,21.587,7.9,21.568,7.88,21.549c-0.057-0.055-0.085-0.123-0.085-0.197c0-0.096,0.028-0.17,0.085-0.229
						c0.058-0.057,0.133-0.085,0.227-0.085c0.059,0,0.113,0.021,0.171,0.06c0.056-0.06,0.122-0.106,0.197-0.144
						c0.096-0.06,0.18-0.106,0.255-0.144c-0.017-0.039-0.026-0.076-0.026-0.111c0-0.076,0.026-0.141,0.085-0.199
						c0.055-0.059,0.123-0.084,0.196-0.084c0.097,0,0.17,0.025,0.229,0.084c0.018,0.02,0.037,0.047,0.056,0.086
						c0.151-0.061,0.313-0.105,0.482-0.145c-0.02-0.019-0.029-0.035-0.029-0.057c0-0.094,0.028-0.17,0.085-0.227
						c0.077-0.057,0.153-0.084,0.229-0.084c0.073,0,0.14,0.027,0.197,0.084s0.084,0.105,0.084,0.142
						c0.171-0.019,0.352-0.036,0.539-0.058c-0.017-0.02-0.026-0.037-0.026-0.057c0-0.074,0.026-0.141,0.085-0.197
						c0.076-0.057,0.15-0.086,0.227-0.086c0.075,0,0.14,0.029,0.198,0.086c0.057,0.037,0.085,0.095,0.085,0.17
						c0.188-0.02,0.378-0.028,0.566-0.028v-0.028c0-0.076,0.036-0.14,0.112-0.196c0.057-0.06,0.123-0.087,0.198-0.087
						c0.076,0,0.141,0.027,0.199,0.087c0.057,0.055,0.085,0.12,0.085,0.196c0.111,0,0.226-0.007,0.34-0.025c0.095,0,0.208,0,0.34,0
						c0-0.077,0.028-0.141,0.084-0.2c0.056-0.058,0.123-0.083,0.199-0.083c0.095,0,0.171,0.025,0.227,0.083
						c0.058,0.058,0.084,0.123,0.084,0.2c1.077,0,3.139,0.025,6.181,0.084c2.834,0,5.044-0.059,6.632-0.17
						c1.454-0.11,2.613-0.165,3.477-0.165c0.481,0,0.871,0.018,1.169,0.051c1.002,0.095,1.833,0.396,2.494,0.907
						c0.267,0.208,0.501,0.453,0.709,0.736c0.132,0.15,0.283,0.369,0.453,0.652c0.153,0.207,0.293,0.357,0.425,0.451
						c0.145,0.098,0.324,0.147,0.536,0.147c0.038,0,0.077-0.002,0.116-0.005c0.471-0.037,0.84-0.426,1.104-1.162
						c0.075-0.244,0.142-0.51,0.198-0.793l0.059-0.34h3.253c0.176-0.405,0.384-0.608,0.626-0.608c0.097,0,0.2,0.032,0.308,0.098
						c0-0.038,0.029-0.076,0.085-0.114c0.059-0.055,0.144-0.084,0.255-0.084c0.097,0,0.17,0.029,0.229,0.084
						c0.056,0.038,0.093,0.076,0.113,0.114c0.036-0.038,0.104-0.076,0.197-0.114c0.189-0.055,0.398-0.084,0.624-0.084
						c0.246,0,0.454,0.029,0.623,0.084c0.115,0.038,0.191,0.076,0.229,0.114c0.018-0.038,0.047-0.076,0.084-0.114
						c0.074-0.055,0.16-0.084,0.255-0.084c0.094,0,0.179,0.029,0.255,0.084c0.037,0.038,0.064,0.076,0.085,0.114
						c0.019-0.038,0.046-0.076,0.084-0.114c0.076-0.055,0.161-0.084,0.256-0.084c0.094,0,0.181,0.029,0.255,0.084
						c0.038,0.038,0.066,0.076,0.085,0.114c0.039-0.038,0.114-0.076,0.229-0.114c0.169-0.055,0.378-0.084,0.623-0.084
						c0.227,0,0.426,0.029,0.596,0.084c0.114,0.038,0.19,0.076,0.228,0.114c0.019-0.038,0.047-0.076,0.084-0.114
						c0.074-0.055,0.16-0.084,0.256-0.084c0.094,0,0.18,0.029,0.255,0.084c0.038,0.038,0.064,0.076,0.085,0.114
						c0.018-0.038,0.056-0.076,0.113-0.114c0.058-0.055,0.143-0.084,0.256-0.084c0.095,0,0.17,0.029,0.226,0.084
						c0.056,0.038,0.093,0.076,0.114,0.114c0.037-0.038,0.102-0.076,0.199-0.114c0.169-0.055,0.377-0.084,0.623-0.084
						c0.244,0,0.451,0.029,0.622,0.084c0.096,0.038,0.172,0.076,0.228,0.114c0-0.038,0.028-0.076,0.085-0.114
						c0.076-0.055,0.161-0.084,0.255-0.084s0.179,0.029,0.255,0.084c0.038,0.038,0.066,0.076,0.085,0.114
						c0.021-0.038,0.046-0.076,0.085-0.114c0.076-0.055,0.16-0.084,0.255-0.084c0.097,0,0.182,0.029,0.257,0.084
						c0.036,0.038,0.064,0.076,0.085,0.114c0.039-0.038,0.112-0.076,0.227-0.114c0.169-0.055,0.368-0.084,0.595-0.084
						c0.245,0,0.453,0.029,0.624,0.084c0.114,0.038,0.19,0.076,0.228,0.114c0.019-0.038,0.047-0.076,0.085-0.114
						c0.076-0.055,0.161-0.084,0.255-0.084c0.095,0,0.179,0.029,0.255,0.084c0.039,0.038,0.115,0.096,0.227,0.17
						c0.129-0.058,0.247-0.087,0.353-0.087c0.233,0,0.41,0.143,0.527,0.429l13.488,0.113l8.333-6.378
						c-1.076-0.245-2.474-0.509-4.192-0.793c-3.439-0.567-6.718-0.946-9.83-1.134c-3.117-0.17-8.237-0.302-15.361-0.396
						l-9.778-0.086c-0.036-0.379-0.112-0.756-0.226-1.135c-0.227-0.793-0.539-1.229-0.935-1.304
						C36.223,9.234,36.165,9.229,36.107,9.229L36.107,9.229z M2.496,16.077c-0.208,0-0.379-0.065-0.513-0.199
						c-0.15-0.149-0.226-0.321-0.226-0.51c0-0.207,0.076-0.388,0.226-0.538c0.134-0.133,0.304-0.198,0.513-0.198
						c0.207,0,0.377,0.065,0.51,0.198c0.151,0.15,0.227,0.331,0.227,0.538c0,0.19-0.077,0.36-0.227,0.51
						C2.872,16.012,2.703,16.077,2.496,16.077L2.496,16.077z"/>
				</g>
			</g>
		</g>
	</g>
</g>
<rect x="0" fill="none" width="92.059" height="32"/>
<g>
	<g>
		<path fill="#7A4621" d="M54,27.297l5.631,4.694l12.388,0.375c4.255-0.501,7.758-1.626,10.511-3.378
			c3.63-5.028,6.785-7.543,9.472-7.543c-1.823-0.728-3.909-0.43-6.259,0.895c-2.351,1.324-4.734-0.018-7.153-4.023
			c-2.252-1.502-6.667-0.412-10.282,1.343l3.713-5.813l-10.866,3.576L54,27.297z"/>
	</g>
</g>
<g>
	
		<linearGradient id="SVGID_5_" gradientUnits="userSpaceOnUse" x1="-672.5803" y1="-62.2446" x2="-671.5803" y2="-61.243" gradientTransform="matrix(30.7822 0 0 12.7634 20761.6875 811.9097)">
		<stop  offset="0.6071" style="stop-color:#FFF6DA"/>
		<stop  offset="1" style="stop-color:#D6BB7E"/>
	</linearGradient>
	<path fill="url(#SVGID_5_)" d="M66.343,16.977h-3.188l-6.151,12.763h2.859l0.946-2.164h2.563l-0.167,2.164h2.734L66.343,16.977z
		 M64.032,20.189l-0.468,5.42h-1.928L64.032,20.189z M78.307,19.005c0-1.325-1.239-2.028-3.57-2.028
		c-2.889,0-4.211,0.92-4.898,3.289l-1.728,5.947c-0.216,0.699-0.258,1.045-0.258,1.367c0,1.402,1.302,2.158,3.717,2.158
		c1.329,0,2.373-0.229,3.104-0.697c0.786-0.521,1.28-1.326,1.663-2.729l0.41-1.448h-2.735l-0.452,1.571
		c-0.319,1.145-0.724,1.483-1.689,1.483c-0.745,0-1.155-0.271-1.155-0.769c0-0.151,0.048-0.41,0.132-0.732l1.837-6.323
		c0.278-0.938,0.731-1.313,1.629-1.313c0.745,0,1.148,0.271,1.148,0.752c0,0.205-0.063,0.463-0.188,0.955l-0.341,1.231h2.735
		l0.425-1.489C78.243,19.721,78.307,19.328,78.307,19.005z M87.785,16.977h-7.314l-3.479,12.763h7.522l0.535-1.959h-4.746
		l1.064-3.994h4.279l0.536-1.931h-4.28l0.814-2.949h4.53L87.785,16.977z"/>
</g>
</svg>
