<?xml version="1.0" encoding="utf-8"?>
<!-- Generator: Adobe Illustrator 16.0.0, SVG Export Plug-In . SVG Version: 6.00 Build 0)  -->
<!DOCTYPE svg PUBLIC "-//W3C//DTD SVG 1.1//EN" "http://www.w3.org/Graphics/SVG/1.1/DTD/svg11.dtd">
<svg version="1.1" id="图层_1" xmlns="http://www.w3.org/2000/svg" xmlns:xlink="http://www.w3.org/1999/xlink" x="0px" y="0px"
	 width="38px" height="32px" viewBox="0 0 38 32" enable-background="new 0 0 38 32" xml:space="preserve">
<rect fill="none" width="38" height="32"/>
<g>
	<path fill="#B38B54" fill-opacity="0.6" d="M17.826,5.438c0.05,0.074,0.185,0.259,0.407,0.554c0.172,0.224,0.308,0.285,0.406,0.186
		c0.099-0.099,0-0.382-0.295-0.851c-0.321-0.493-0.271-1.035,0.148-1.628c0.049,0.247,0.345,0.617,0.888,1.11
		c0.543,0.518,0.875,1.023,0.999,1.517c0.049,0.246,0.061,0.493,0.037,0.739c-0.049,0.37-0.148,0.666-0.295,0.888
		c-0.247,0.321-0.383,0.53-0.407,0.63c-0.075,0.173-0.013,0.382,0.185,0.629c0.172,0.245,0.123,0.578-0.147,0.998
		c-0.173,0.246-0.567,0.715-1.183,1.405c-0.355,0.396-0.879,0.618-1.573,0.666c0.172-0.279,0.351-0.575,0.537-0.887
		c0.099,0,0.161-0.014,0.186-0.038l1.11-1.517c0.049-0.099-0.014-0.259-0.186-0.48c-0.197-0.222-0.456-0.456-0.776-0.704
		c-0.32-0.22-0.617-0.381-0.888-0.48c-0.295-0.122-0.469-0.136-0.518-0.036l-1.11,1.517h0.038c-0.024,0.05-0.024,0.123,0,0.221
		c-0.425,0.508-0.801,0.957-1.128,1.351c-0.036-0.027-0.067-0.059-0.093-0.091c-0.198-0.271-0.382-0.642-0.555-1.11
		c-0.197-0.666-0.234-1.208-0.111-1.627c0.198-0.371,0.345-0.642,0.444-0.815c0.173-0.345,0.173-0.813,0-1.405l0.407,0.148
		c0.32,0.173,0.555,0.444,0.702,0.813c0.075,0.124,0.111,0.457,0.111,0.999c0,0.418,0.011,0.555,0.037,0.406
		c0.295-0.394,0.48-0.801,0.554-1.22c0.025-0.246-0.135-0.629-0.48-1.147c-0.443-0.542-0.714-0.888-0.813-1.035
		c-0.148-0.223-0.21-0.739-0.186-1.553c0.025-0.839,0.148-1.369,0.37-1.591c0.05,0.518,0.271,0.974,0.666,1.368
		c0.198,0.196,0.728,0.419,1.59,0.666c0.346,0.099,0.555,0.309,0.629,0.629C17.653,5.105,17.752,5.363,17.826,5.438z"/>
</g>
<g>
	
		<linearGradient id="SVGID_1_" gradientUnits="userSpaceOnUse" x1="-435.6406" y1="283.1328" x2="-436.6406" y2="282.1328" gradientTransform="matrix(16.841 0 0 -21.0679 7355.8237 5973.5483)">
		<stop  offset="0" style="stop-color:#BB925B"/>
		<stop  offset="0.3429" style="stop-color:#FFF6DA"/>
		<stop  offset="0.6571" style="stop-color:#FFF1B1"/>
		<stop  offset="1" style="stop-color:#B38B54"/>
	</linearGradient>
	<path fill="url(#SVGID_1_)" d="M16.975,8.174c0.271,0.1,0.568,0.261,0.888,0.48c0.32,0.248,0.58,0.482,0.776,0.704
		c0.172,0.222,0.235,0.382,0.186,0.48l-1.11,1.517c-0.025,0.024-0.087,0.038-0.186,0.038c-1.356,2.269-2.158,3.574-2.404,3.92
		c-0.099,0.122-0.21,0.803-0.334,2.035c-0.147,1.207-0.406,2.084-0.776,2.625L7.58,29c-0.197,0.172-0.641,0.186-1.332,0.037
		C5.509,28.84,4.793,28.494,4.104,28c-0.691-0.491-1.246-1.061-1.666-1.7c-0.37-0.593-0.505-1.011-0.407-1.259l6.437-9.062
		c0.37-0.544,1.11-1.072,2.22-1.591c0.271-0.123,0.641-0.296,1.109-0.518c0.346-0.173,0.567-0.32,0.667-0.443
		c0.148-0.224,1.122-1.406,2.922-3.553c-0.024-0.098-0.024-0.171,0-0.221h-0.038l1.11-1.517C16.506,8.038,16.679,8.052,16.975,8.174
		z"/>
</g>
<g>
	<g>
		<g>
			<path fill="#7A4621" d="M5.124,25.104l4.445,3.706l9.78,0.296c3.358-0.396,6.125-1.284,8.298-2.667
				c2.864-3.97,5.356-5.955,7.477-5.955c-1.438-0.573-3.087-0.338-4.941,0.707c-1.854,1.044-3.737-0.015-5.647-3.177
				c-1.777-1.186-5.263-0.326-8.117,1.059l2.932-4.588l-8.579,2.824L5.124,25.104z"/>
		</g>
	</g>
</g>
<g>
	
		<linearGradient id="SVGID_2_" gradientUnits="userSpaceOnUse" x1="-443.9419" y1="268.5596" x2="-442.942" y2="267.558" gradientTransform="matrix(24.3018 0 0 -10.0763 10797.0098 2723.4197)">
		<stop  offset="0.6071" style="stop-color:#FFF6DA"/>
		<stop  offset="1" style="stop-color:#D6BB7E"/>
	</linearGradient>
	<path fill="url(#SVGID_2_)" d="M14.869,16.955h-2.517L7.495,27.031h2.258l0.747-1.708h2.022l-0.132,1.708h2.159L14.869,16.955z
		 M13.044,19.493l-0.368,4.278h-1.522L13.044,19.493z M24.313,18.558c0-1.046-0.978-1.603-2.819-1.603
		c-2.279,0-3.324,0.728-3.868,2.598l-1.362,4.696c-0.17,0.551-0.204,0.824-0.204,1.079c0,1.106,1.028,1.703,2.934,1.703
		c1.05,0,1.874-0.18,2.451-0.551c0.621-0.412,1.011-1.046,1.313-2.152l0.324-1.145h-2.158l-0.357,1.241
		c-0.253,0.903-0.572,1.172-1.335,1.172c-0.588,0-0.912-0.214-0.912-0.606c0-0.121,0.039-0.324,0.104-0.579l1.451-4.992
		c0.22-0.741,0.577-1.037,1.286-1.037c0.588,0,0.906,0.213,0.906,0.593c0,0.162-0.05,0.365-0.148,0.755l-0.27,0.972h2.16
		l0.334-1.176C24.264,19.123,24.313,18.813,24.313,18.558z M31.797,16.955h-5.775l-2.746,10.076h5.939l0.423-1.546h-3.747
		l0.84-3.153h3.379l0.424-1.523h-3.379l0.643-2.33h3.576L31.797,16.955z"/>
</g>
</svg>
