<?xml version="1.0" encoding="utf-8"?>
<!-- Generator: Adobe Illustrator 16.0.0, SVG Export Plug-In . SVG Version: 6.00 Build 0)  -->
<!DOCTYPE svg PUBLIC "-//W3C//DTD SVG 1.0//EN" "http://www.w3.org/TR/2001/REC-SVG-20010904/DTD/svg10.dtd">
<svg version="1.0" id="图层_1" xmlns="http://www.w3.org/2000/svg" xmlns:xlink="http://www.w3.org/1999/xlink" x="0px" y="0px"
	 width="50.8px" height="32px" viewBox="0 0 50.8 32" enable-background="new 0 0 50.8 32" xml:space="preserve">
<g id="Selected_Items">
	<g>
		<g id="Selected_Items_6_">
			<linearGradient id="SVGID_1_" gradientUnits="userSpaceOnUse" x1="0.162" y1="16.0298" x2="50.693" y2="16.0298">
				<stop  offset="0" style="stop-color:#FFD93F"/>
				<stop  offset="1" style="stop-color:#FF310E"/>
			</linearGradient>
			<path fill="url(#SVGID_1_)" d="M50.3,3.3c0.1,0,0.1,0,0.3,0l0,1l0.2,1.4c-0.1,0.3-0.1,0.6-0.3,0.9c-0.1,0.3-0.1,0.5-0.3,0.8
				c-0.1,0.4-0.2,0.7-0.3,0.9c-0.2,0.7-0.3,1.2-0.5,1.6c-0.1,0.4-0.2,0.6-0.3,0.8C49,10.9,49,11,48.9,11c0,0.1-0.1,0.1-0.1,0.1H29.3
				c0,0-0.2,0-0.6,0.1c-0.4,0.2-0.8,0.5-1.3,0.9c-0.4,0.4-0.8,1-1.2,1.9c-0.4,0.8-0.6,1.9-0.6,3.3v0.5h-0.1c0,0-0.3,0.1-0.8,0.2
				c-0.5,0.1-1.1,0.2-1.9,0.3c-0.7,0.1-1.5,0.1-2.3,0.1c-0.8,0-1.6-0.2-2.2-0.4c-0.2,0.1-0.5,0.2-0.8,0.6c-0.3,0.4-0.5,0.8-0.5,1.2
				c0,0.3-0.1,0.8-0.3,1.6c-0.1,0.8-0.3,1.7-0.5,2.6c-0.2,0.9-0.3,1.7-0.4,2.5c-0.2,0.7-0.3,1.2-0.3,1.3l0.7,1.9H16
				c-1.3,0.2-2.7,0.3-4.1,0.5c-1.2,0.1-2.5,0.2-3.8,0.2c-1.4,0-2.7,0-4-0.2c-0.1,0-0.2,0-0.3,0c-0.2-0.1-0.4-0.2-0.5-0.4
				C3.1,29.2,3,28.7,3,28c0-0.5,0-1,0.1-1.7c0.1-0.7,0.3-1.5,0.6-2.4c0.3-0.9,0.6-2,1.1-3.3C5.4,19.4,6,18,6.7,16.4v-0.2
				c0-0.1,0-0.2,0-0.3c0-0.2,0-0.4,0-0.6c0-0.6-0.1-1.1-0.4-1.7c-0.2-0.6-0.8-0.9-1.7-1.1c-0.1,0-0.3,0-0.7,0c-0.5,0-0.9,0-1.5-0.1
				c-0.5,0-1,0-1.5,0c-0.4,0-0.7,0-0.7,0l-0.1-0.1v-0.1c0-0.1,0-0.2,0.1-0.3c0.1-0.3,0.4-0.6,0.9-0.9c0.5-0.3,1.4-0.6,2.6-0.9
				c0,0,0.1-0.2,0.3-0.5c0.2-0.3,0.3-0.7,0.3-1.1c0-0.2,0-0.3,0-0.4c0-0.1-0.1-0.3-0.2-0.5C4,7.3,3.9,7.2,3.8,7
				C3.7,6.8,3.4,6.4,3.2,5.8V5L4,4.8c0.1,0.1,0.2,0.1,0.2,0.1C4.3,5,4.4,5.1,4.4,5.1h1.4C5.9,5,5.9,4.9,6,4.7c0-0.1,0.1-0.2,0.2-0.3
				l1.3-1.1c0.1,0,0.1-0.1,0.3-0.1C7.8,3.2,7.9,3.1,8,3V2.4c0-0.1,0-0.3,0-0.5h1.6L10.7,3l1.9,0l0.6-0.3l7.7,0
				C21,2.7,21,2.7,21.1,2.8C21.2,3,21.3,3,21.4,3l9.9,0.2l0.1,0.1c0,0.1,0.1,0.1,0.2,0.1h0.5c0-0.1,0-0.1,0-0.1c0-0.1,0-0.1,0-0.1
				C32.3,3.1,32.4,3,32.4,3L43.6,3c0,0.1,0,0.2,0,0.2c0,0.1,0,0.2,0,0.2c0,0.1,0,0.1,0,0.1h0.6c0,0,0-0.1,0.1-0.3
				c0-0.1,0.1-0.1,0.2-0.2h2.2c0.1,0,0.2-0.1,0.4-0.2c0.2-0.1,0.4-0.3,0.6-0.4c0.2-0.1,0.4-0.2,0.6-0.3c0.2-0.1,0.4-0.1,0.5-0.1
				c0.2,0,0.3,0.1,0.3,0.3c0.1,0.3,0.1,0.4,0.1,0.5c0.1,0.1,0.3,0.1,0.5,0.2c0.1,0,0.2,0.1,0.3,0.1c0,0,0,0,0.1,0
				C50.1,3.3,50.3,3.3,50.3,3.3z M20,11.7c-0.3,0-0.5,0.1-0.7,0.3c-0.2,0.2-0.3,0.4-0.3,0.7v3.1c0,0.3,0.1,0.5,0.3,0.7
				c0.2,0.2,0.4,0.3,0.7,0.3h3.3c0.3,0,0.5-0.1,0.7-0.3c0.2-0.2,0.3-0.5,0.3-0.7v-3.1c0-0.3-0.1-0.5-0.3-0.7
				c-0.2-0.2-0.4-0.3-0.7-0.3C23.3,11.7,20,11.7,20,11.7z"/>
		</g>
	</g>
</g>
<g id="guides">
</g>
</svg>
