<?xml version="1.0" encoding="utf-8"?>
<!-- Generator: Adobe Illustrator 16.0.0, SVG Export Plug-In . SVG Version: 6.00 Build 0)  -->
<!DOCTYPE svg PUBLIC "-//W3C//DTD SVG 1.1//EN" "http://www.w3.org/Graphics/SVG/1.1/DTD/svg11.dtd">
<svg version="1.1" id="图层_1" xmlns="http://www.w3.org/2000/svg" xmlns:xlink="http://www.w3.org/1999/xlink" x="0px" y="0px"
	 width="79.809px" height="32px" viewBox="0 0 79.809 32" enable-background="new 0 0 79.809 32" xml:space="preserve">
<rect x="0" fill="none" width="79.809" height="32"/>
<g>
	<g>
		<g>
			
				<linearGradient id="SVGID_1_" gradientUnits="userSpaceOnUse" x1="-261.323" y1="395.7783" x2="-262.3239" y2="394.7774" gradientTransform="matrix(76.87 0 0 -24.079 20160.3281 9533.0879)">
				<stop  offset="0" style="stop-color:#BB925B"/>
				<stop  offset="0.3429" style="stop-color:#FFF6DA"/>
				<stop  offset="0.6571" style="stop-color:#FFF1B1"/>
				<stop  offset="1" style="stop-color:#B38B54"/>
			</linearGradient>
			<path fill="url(#SVGID_1_)" d="M78.096,12.723l-3.507-0.042v-0.155l-2.354,0.039l-0.463,0.153l-4.09-0.038l0.811,0.155v0.695
				L68.3,13.762l-0.887-0.039v0.309h-0.656v-1.158h0.154v-0.156l-2.51-0.076l-0.076,0.232l-0.078,0.578
				c-0.024,0.051-0.051,0.09-0.076,0.116c-0.051,0.051-0.116,0.077-0.192,0.077c-0.052-0.025-0.117-0.064-0.193-0.115l-0.154-0.078
				l0.039-0.541l-0.078-0.231h-0.5l-0.041,0.849c-0.024,0.076-0.075,0.128-0.151,0.154l-0.154,0.116h-0.271l-0.23,0.502L48,14.417
				l-0.27-0.153l-0.349-0.078l-0.732,0.27l-0.077-0.965l-0.696,0.04l0.038,0.617l-0.038,0.078c-0.025,0.077-0.063,0.141-0.116,0.192
				c-0.052,0.026-0.129,0.052-0.231,0.078l-0.116,0.039c-0.024-0.026-0.064-0.039-0.116-0.039c-0.103,0-0.179,0.051-0.231,0.155
				c-0.052,0.077-0.104,0.154-0.154,0.231l-0.077,0.154v3.278l0.23,0.078l0.039,0.271L44.6,18.855v1.196
				c0.052,0.927,0.168,1.787,0.348,2.584c0.181,0.8,0.463,1.804,0.849,3.013c0.182,0.617,0.349,1.145,0.502,1.58l0.153,0.194
				l-5.826,1.621h-0.153v-0.155c-0.181-0.617-0.387-1.3-0.618-2.046c-0.438-1.543-0.733-2.688-0.889-3.434
				c-0.152-0.746-0.258-1.519-0.309-2.314l-0.077-1.004l-0.425,0.078l-0.54-0.078h-3.627l-1.196,0.115c-0.052,0-0.116,0-0.191,0
				c-0.182,0-0.323,0.039-0.426,0.117c-0.076,0.075-0.154,0.153-0.231,0.229l-0.848,1.621l0.423,0.502l-0.115,0.076
				c-0.155,0.053-0.335,0.129-0.542,0.232c-0.103,0.051-0.192,0.127-0.27,0.229l-0.077,0.117l-1.66,3.242
				c-0.051,0.102-0.063,0.204-0.038,0.307c0.024,0.078,0.09,0.181,0.192,0.31c0.052,0.051,0.103,0.09,0.154,0.117l-0.154,0.346
				l-5.44-1.273l4.901-8.49c0.051-0.102,0.089-0.217,0.115-0.348c0.104-0.23,0.129-0.461,0.077-0.693
				c-0.077-0.281-0.166-0.514-0.27-0.692c-0.128-0.18-0.271-0.335-0.425-0.463c-0.154-0.103-0.309-0.18-0.463-0.232l-1.234-0.039
				v0.155l-0.349,0.038l-0.038-2.123l-0.965-0.038l-0.039-0.348h-3.896L20.057,13.8l-3.667,0.078v0.348l-3.203,0.039l0.039,2.006
				H10.99v0.812H9.91v-0.771L6.282,18.59v-1.854L1.689,18.82l-0.038,0.771l-0.039,0.115c-0.052,0.104-0.117,0.153-0.193,0.153
				s-0.128-0.051-0.153-0.153l-0.039-0.119L1.305,9.325h4.09C5.472,9.35,5.522,9.4,5.548,9.479c0.052,0.103,0.091,0.283,0.117,0.54
				L16.2,10.136c0.052,0.026,0.09,0.051,0.115,0.076c0.051,0.052,0.077,0.116,0.077,0.192l8.528,0.04l-0.039-0.348h1.003v-0.27
				l0.348-0.038l0.039,0.269l1.002-0.038V9.556h1.004l0.078,0.078l2.585-4.13l0.115-0.153c0.104-0.129,0.206-0.206,0.31-0.231
				c0.102-0.078,0.232-0.129,0.385-0.155c0.078,0,0.155,0,0.232,0l12.851,1.389l0.385,0.077c0.31,0.103,0.527,0.232,0.656,0.386
				c0.128,0.181,0.257,0.399,0.385,0.656c0.053,0.128,0.104,0.244,0.154,0.348l-0.076,2.508l0.271-0.039l0.038-1.12l0.811,0.155
				V9.054l0.271-0.039c0-0.025,0-0.051,0-0.076c0.025-0.052,0.052-0.091,0.077-0.117c0.051-0.026,0.116-0.051,0.192-0.077
				l14.279,0.231l0.154,0.31V9.67l0.387,0.04l0.076,0.038c0.078,0.051,0.114,0.103,0.114,0.154c0.025,0.103,0.054,0.412,0.078,0.926
				h0.502l0.039-1.504l2.354-3.319l0.229-0.193c0.154-0.129,0.31-0.18,0.463-0.154c0.388,0.051,0.67,0.192,0.851,0.424
				c0.076,0.077,0.115,0.167,0.115,0.27c0,0.051-0.015,0.09-0.039,0.116l0.039,4.36h4.092l0.539,0.193l2.315-0.038v-0.155
				l3.508-0.034 M66.793,8.552C66.715,8.5,66.65,8.437,66.6,8.358c-0.025-0.077-0.078-0.244-0.154-0.501l-0.039-0.386l-0.889-0.077
				l-1.39,2.16l0.195,0.155h2.623l0.191-0.232V8.552H66.793z M64.361,10.829h2.469l0.117-0.385h-2.586V10.829z M44.912,6.97H34.105
				c-0.077,0-0.167,0-0.27,0c-0.181,0.052-0.321,0.116-0.425,0.193c-0.103,0.078-0.219,0.193-0.347,0.347L32.91,7.703l-0.617,1.506
				l0.231,0.231l12.311-0.078l0.153-0.038c0.104-0.026,0.206-0.078,0.309-0.155c0.31-0.206,0.463-0.541,0.463-1.004
				c0-0.386-0.142-0.694-0.425-0.925c-0.103-0.078-0.206-0.142-0.308-0.193L44.912,6.97z M4.932,14.226l-0.155-0.039H1.921
				l-0.153,0.039c-0.078,0.077-0.116,0.154-0.116,0.231s0.051,0.141,0.154,0.193c0.024,0.026,0.063,0.051,0.115,0.077h2.896
				c0.052-0.026,0.09-0.064,0.116-0.116c0.076-0.077,0.115-0.141,0.115-0.193C5.047,14.34,5.009,14.278,4.932,14.226z M1.651,9.67
				v0.425h3.666c0-0.077-0.013-0.167-0.039-0.27c0-0.077-0.039-0.128-0.116-0.155L5.009,9.632L1.651,9.67z M37.117,17.041
				c-0.103-0.051-0.206-0.088-0.309-0.114h-1.467c-0.103,0.075-0.219,0.192-0.348,0.347c-0.206,0.334-0.321,0.644-0.348,0.927
				c-0.025,0.28,0.065,0.563,0.271,0.848c0.104,0.129,0.218,0.234,0.349,0.31l-0.155,0.117c-0.154-0.078-0.321-0.207-0.502-0.388
				c-0.333-0.31-0.514-0.644-0.54-1.002c-0.025-0.231,0.026-0.502,0.155-0.812l0.153-0.347c-0.231,0.024-0.451,0.104-0.656,0.229
				c-0.463,0.309-0.667,0.76-0.616,1.352c0.025,0.334,0.192,0.643,0.501,0.926c0.153,0.154,0.309,0.271,0.463,0.351h3.473V19.32
				c0.129-0.104,0.231-0.258,0.31-0.465c0.128-0.359,0.103-0.758-0.078-1.195C37.644,17.402,37.426,17.197,37.117,17.041z"/>
		</g>
	</g>
</g>
</svg>
