<?xml version="1.0" encoding="utf-8"?>
<!-- Generator: Adobe Illustrator 16.0.0, SVG Export Plug-In . SVG Version: 6.00 Build 0)  -->
<!DOCTYPE svg PUBLIC "-//W3C//DTD SVG 1.1//EN" "http://www.w3.org/Graphics/SVG/1.1/DTD/svg11.dtd">
<svg version="1.1" id="图层_1" xmlns="http://www.w3.org/2000/svg" xmlns:xlink="http://www.w3.org/1999/xlink" x="0px" y="0px"
	 width="66px" height="32px" viewBox="0 0 66 32" enable-background="new 0 0 66 32" xml:space="preserve">
<rect fill="none" width="66" height="32"/>
<g>
	<g>
		<g>
			<g>
				<g>
					
						<linearGradient id="SVGID_1_" gradientUnits="userSpaceOnUse" x1="-881.3652" y1="23.9473" x2="-880.1401" y2="23.3708" gradientTransform="matrix(65.135 0 0 24.41 57391.1875 -558.6118)">
						<stop  offset="0.266" style="stop-color:#000000"/>
						<stop  offset="0.5468" style="stop-color:#FFD400"/>
						<stop  offset="0.8719" style="stop-color:#FF0000"/>
					</linearGradient>
					<path fill="url(#SVGID_1_)" d="M6.958,18.46c-0.298,0.022-0.644,0.161-1.032,0.413c-0.367,0.229-0.733,0.527-1.1,0.895
						c-0.321,0.319-0.549,0.651-0.689,0.996c-0.089,0.252-0.192,0.699-0.307,1.342c-0.093,0.525-0.093,0.983,0,1.373
						c0.045,0.23,0.183,0.619,0.414,1.168c0.181,0.481,0.558,0.93,1.132,1.344c0.598,0.434,1.216,0.72,1.857,0.859
						c0.619,0.112,1.248,0.057,1.889-0.175c0.598-0.229,1.1-0.551,1.513-0.964c0.46-0.456,0.78-0.916,0.962-1.372
						c0.16-0.481,0.239-1.079,0.239-1.789c0-0.709-0.192-1.374-0.583-1.993c-0.344-0.596-0.835-1.121-1.479-1.58
						c-0.457-0.319-0.984-0.504-1.58-0.551C7.965,18.402,7.554,18.415,6.958,18.46z M64.805,21.21
						c0.504,1.259,0.801,2.29,0.891,3.095c-0.594-0.939-1.451-1.98-2.576-3.129c-2.29-2.269-4.789-3.93-7.491-4.984
						c-2.478-0.94-4.489-1.535-6.05-1.788c-0.618-0.09-1.262-0.147-1.926-0.171c-0.299,0-0.883,0-1.752,0
						c-2.086,0.047-4.193,0.356-6.325,0.929c-0.687,0.183-1.328,0.377-1.923,0.584l-0.689,0.275l0.07,0.241
						c0.021,0.161-0.012,0.285-0.104,0.378c-0.139,0.09-0.471,0.25-0.998,0.479c-0.527,0.207-0.855,0.311-0.994,0.311
						c-0.14-0.022-0.254-0.138-0.345-0.345c-0.024-0.045-0.104-0.241-0.241-0.585c-0.185-0.549-0.526-1.12-1.033-1.717
						c-0.802-0.962-1.696-1.5-2.68-1.614c-1.375-0.184-2.578,0.264-3.609,1.339c-0.322,0.321-0.607,0.688-0.858,1.099l-0.276,0.552
						c-0.297-0.183-0.697-0.31-1.203-0.378c-1.009-0.162-1.994-0.024-2.958,0.412c-0.8,0.366-1.5,0.952-2.093,1.752
						c-0.209,0.25-0.379,0.507-0.516,0.757l-0.174,0.308c-0.367-0.045-0.778-0.078-1.236-0.103
						c-0.917-0.021-1.604,0.103-2.063,0.378s-0.882,0.721-1.271,1.341c-0.116,0.183-0.242,0.399-0.38,0.653
						c-0.09,0.205-0.148,0.342-0.171,0.412c-0.09,0.138-0.171,0.193-0.239,0.172l-0.103-0.068v0.55c0,0.437-0.037,0.825-0.104,1.169
						c-0.091,0.413-0.356,0.977-0.79,1.687c-0.414,0.685-0.747,1.145-0.999,1.374c-0.365,0.365-0.859,0.688-1.478,0.962
						C9.27,27.95,8.434,28.143,7.609,28.12c-0.758-0.021-1.787-0.376-3.094-1.063c-0.389-0.23-0.792-0.471-1.203-0.722L2.829,25.99
						L0.7,25.508l-0.139-0.345C0.77,24.866,1,24.5,1.252,24.063c0.503-0.869,0.823-1.604,0.961-2.198
						c0.16-0.572,0.38-1.33,0.655-2.27l0.345-1.202l0.72-0.381l-0.378-0.408c0.069-0.277,0.148-0.553,0.242-0.828
						c0.228-0.526,0.411-0.813,0.549-0.858c0.113-0.021,0.262-0.021,0.445,0c0.16,0,0.288-0.034,0.38-0.102
						c0.228-0.116,0.342-0.242,0.342-0.38c-0.047-0.137-0.058-0.228-0.034-0.273C5.548,15,5.674,14.918,5.858,14.918
						c0.022,0,0.149,0.034,0.377,0.107c0.183,0.067,0.296,0.055,0.342-0.037c0.048-0.045,0.103-0.218,0.173-0.516
						c0.07-0.253,0.161-0.414,0.275-0.482c0.183-0.138,0.401-0.138,0.652,0c0.114,0.092,0.208,0.138,0.276,0.138
						c0.09,0.022,0.184,0,0.276-0.07c0.138-0.113,0.206-0.285,0.206-0.513c-0.025-0.185,0.068-0.344,0.274-0.482
						c0.208-0.115,0.402-0.137,0.585-0.069c0.023,0,0.091,0.023,0.207,0.069c0.045,0.045,0.081,0.057,0.103,0.034
						c0.091-0.045,0.136-0.149,0.136-0.31c-0.021-0.185,0-0.321,0.071-0.412c0.228-0.23,0.448-0.332,0.653-0.31
						c0.138,0,0.217,0,0.239,0c0.093,0,0.184-0.034,0.276-0.104c0.069-0.091,0.15-0.194,0.24-0.309
						c0.022-0.046,0.068-0.115,0.137-0.204c0.023-0.046,0.184-0.14,0.479-0.277c0.141-0.068,0.277-0.137,0.414-0.205l0.068-0.242
						l1.617-0.893c1.285-0.71,2.508-1.306,3.679-1.787c1.145-0.482,2.728-0.985,4.742-1.514c1.008-0.274,1.915-0.494,2.715-0.652
						l1.031,0.481l0.48-0.138l0.482,0.034c0.391,0.045,0.779,0.079,1.168,0.104c1.261,0.045,2.326-0.025,3.2-0.208
						c1.35-0.297,2.461-0.745,3.333-1.338c0.437-0.299,0.745-0.575,0.93-0.827l2.131-0.275l0.378,0.482l0.032,0.377l4.882,0.379
						c1.766,0.251,3.221,0.539,4.366,0.86c1.307,0.388,2.701,0.916,4.192,1.581c1.375,0.616,2.462,1.214,3.265,1.786
						c0.871,0.596,1.766,1.271,2.685,2.027c1.052,0.917,1.935,1.787,2.644,2.612C62.283,16.203,63.795,18.668,64.805,21.21z"/>
				</g>
			</g>
		</g>
	</g>
</g>
<linearGradient id="SVGID_2_" gradientUnits="userSpaceOnUse" x1="7.3027" y1="20.168" x2="24.952" y2="10.0005">
	<stop  offset="0.3505" style="stop-color:#FFE3A0"/>
	<stop  offset="1" style="stop-color:#00FFFF"/>
</linearGradient>
<path fill="url(#SVGID_2_)" d="M25.563,15.917c0,0-1.393-4.081-4.457-8.649c-1.39,0.249-2.673,0.574-3.801,0.916
	c-0.127,0.054-0.259,0.117-0.388,0.175C20.11,9.975,23.182,12.372,25.563,15.917z"/>
<linearGradient id="SVGID_3_" gradientUnits="userSpaceOnUse" x1="38.3643" y1="20.2588" x2="54.0083" y2="11.2466" gradientTransform="matrix(0.9453 -0.3262 0.3262 0.9453 -22.9701 10.6318)">
	<stop  offset="0.1781" style="stop-color:#FFE3A0"/>
	<stop  offset="1" style="stop-color:#00FFFF"/>
</linearGradient>
<path fill="url(#SVGID_3_)" d="M28.231,6.36c-0.389-0.025-0.777-0.06-1.168-0.104l-0.482-0.034l-0.48,0.139L25.07,5.878
	c-0.8,0.158-1.707,0.378-2.715,0.652c-0.522,0.137-1.013,0.272-1.477,0.406c0.076,0.11,0.155,0.221,0.228,0.33
	c4.188-0.748,9.339-0.786,14.104,1.624c0,0-1.306-1.29-3.443-2.827c-0.113,0.028-0.218,0.062-0.335,0.087
	C30.557,6.334,29.492,6.405,28.231,6.36z"/>
<linearGradient id="SVGID_4_" gradientUnits="userSpaceOnUse" x1="34.9746" y1="14.373" x2="50.6191" y2="5.3605" gradientTransform="matrix(0.9453 -0.3262 0.3262 0.9453 -22.9701 10.6318)">
	<stop  offset="0.1781" style="stop-color:#FFE3A0"/>
	<stop  offset="1" style="stop-color:#00FFFF"/>
</linearGradient>
<path fill="url(#SVGID_4_)" d="M17.613,8.044c-0.1,0.041-0.207,0.096-0.308,0.139c1.128-0.342,2.411-0.667,3.801-0.916
	c-0.073-0.109-0.152-0.22-0.228-0.33C19.552,7.319,18.461,7.688,17.613,8.044z"/>
<g>
	<g>
		<g>
			<g>
				<g>
					<g>
						<linearGradient id="SVGID_5_" gradientUnits="userSpaceOnUse" x1="60.3018" y1="9.1777" x2="2.6656" y2="30.7781">
							<stop  offset="0" style="stop-color:#BB925B"/>
							<stop  offset="0.3429" style="stop-color:#FFF6DA"/>
							<stop  offset="0.6571" style="stop-color:#FFF1B1"/>
							<stop  offset="1" style="stop-color:#B38B54"/>
						</linearGradient>
						<path fill="url(#SVGID_5_)" d="M37.259,4.792c0.096,0.421,0.457,0.741,0.898,0.775l4.85,0.376
							c1.688,0.241,3.103,0.519,4.19,0.823c1.25,0.372,2.619,0.889,4.069,1.536c1.295,0.58,2.335,1.147,3.108,1.698
							c0.841,0.575,1.72,1.239,2.592,1.956c1.019,0.888,1.874,1.732,2.536,2.502c1.438,1.703,2.619,3.462,3.527,5.251
							c-2.164-1.976-4.528-3.471-7.048-4.455c-2.563-0.972-4.606-1.574-6.261-1.842c-0.653-0.095-1.337-0.156-2.069-0.182h-1.774
							c-2.156,0.049-4.364,0.373-6.56,0.963c-0.714,0.19-1.386,0.394-2.037,0.622l-0.689,0.275
							c-0.385,0.154-0.625,0.523-0.629,0.919c-0.105,0.048-0.236,0.107-0.396,0.177c-0.085,0.033-0.161,0.062-0.228,0.087
							c-0.016-0.038-0.031-0.079-0.049-0.122c-0.228-0.661-0.634-1.34-1.203-2.01c-0.966-1.161-2.088-1.823-3.315-1.966
							c-0.243-0.033-0.486-0.049-0.723-0.049c-1.408,0-2.666,0.568-3.726,1.672c-0.327,0.326-0.625,0.697-0.89,1.104
							c-0.183-0.046-0.377-0.083-0.582-0.11c-0.324-0.052-0.651-0.079-0.972-0.079c-0.866,0-1.726,0.191-2.56,0.568
							c-0.945,0.432-1.774,1.119-2.464,2.043c-0.163,0.197-0.314,0.407-0.448,0.624c-0.205-0.017-0.426-0.031-0.668-0.044
							c-0.076-0.002-0.15-0.002-0.223-0.002c-1.014,0-1.792,0.171-2.378,0.522c-0.593,0.355-1.133,0.917-1.601,1.663
							c-0.126,0.198-0.263,0.435-0.414,0.71c-0.014,0.025-0.026,0.051-0.038,0.077c0,0.001,0,0.001-0.001,0.002
							c-0.023,0.011-0.046,0.021-0.069,0.034c-0.149,0.08-0.272,0.194-0.362,0.33c-0.121-0.418-0.3-0.816-0.535-1.188
							c-0.414-0.718-1.008-1.355-1.772-1.899c-0.604-0.423-1.302-0.668-2.051-0.727c-0.103-0.01-0.231-0.017-0.388-0.017
							c-0.256,0-0.591,0.016-1.024,0.049c-0.473,0.035-0.964,0.223-1.486,0.562c-0.182,0.113-0.364,0.241-0.546,0.384
							c0.031-0.072,0.054-0.149,0.068-0.229c0.052-0.306-0.041-0.619-0.251-0.847c0.021-0.066,0.042-0.132,0.063-0.197
							c0.039-0.088,0.073-0.16,0.102-0.219c0.326-0.007,0.612-0.089,0.854-0.243c0.335-0.183,0.537-0.399,0.658-0.609
							c0.028,0.001,0.057,0.002,0.085,0.002c0.398,0,0.747-0.182,0.961-0.494c0.107-0.144,0.178-0.308,0.234-0.492
							c0.065,0.019,0.131,0.031,0.198,0.039c0.065,0.01,0.132,0.016,0.199,0.016c0.288,0,0.568-0.097,0.842-0.304
							c0.236-0.193,0.404-0.45,0.495-0.747c0.081,0.018,0.156,0.023,0.221,0.023c0.161,0,0.328-0.043,0.476-0.119l0,0
							c0.179-0.091,0.566-0.35,0.663-0.926c0.309-0.003,0.609-0.11,0.869-0.31c0.071-0.055,0.135-0.118,0.189-0.19l0.18-0.232
							l0.05-0.063c0.026-0.034,0.051-0.069,0.073-0.106c0.05-0.025,0.112-0.055,0.187-0.09c0.109-0.052,0.215-0.105,0.321-0.158
							l0.108-0.054c0.197-0.098,0.354-0.257,0.451-0.452l1.272-0.703c1.254-0.693,2.457-1.277,3.583-1.74
							c1.088-0.458,2.639-0.952,4.617-1.471c0.867-0.236,1.648-0.428,2.329-0.571l0.732,0.342c0.133,0.062,0.278,0.094,0.423,0.094
							c0.093,0,0.187-0.013,0.277-0.039l0.311-0.09l0.26,0.018c0.408,0.046,0.812,0.082,1.247,0.11
							c0.258,0.009,0.509,0.014,0.752,0.014c1.016,0,1.92-0.082,2.699-0.246c1.467-0.323,2.706-0.823,3.682-1.489
							c0.354-0.242,0.642-0.476,0.87-0.708L37.259,4.792 M2.781,23.274c0.015,0.139,0.037,0.271,0.067,0.396
							c0.059,0.303,0.209,0.736,0.459,1.328c0.019,0.051,0.039,0.101,0.061,0.15c-0.098-0.063-0.206-0.107-0.319-0.134l-1.057-0.239
							c0.041-0.069,0.082-0.14,0.124-0.212C2.387,24.098,2.608,23.668,2.781,23.274 M37.824,3.711l-2.131,0.275
							c-0.185,0.252-0.493,0.527-0.93,0.826c-0.871,0.594-1.983,1.041-3.333,1.338c-0.704,0.148-1.53,0.222-2.484,0.222
							c-0.231,0-0.47-0.004-0.716-0.013c-0.389-0.025-0.777-0.06-1.168-0.104l-0.482-0.034l-0.48,0.139L25.07,5.878
							c-0.8,0.158-1.707,0.378-2.715,0.652c-2.014,0.528-3.597,1.032-4.742,1.514c-1.171,0.481-2.394,1.077-3.679,1.787
							l-1.617,0.894l-0.068,0.241c-0.137,0.068-0.273,0.138-0.414,0.205c-0.295,0.138-0.456,0.231-0.479,0.277
							c-0.069,0.089-0.115,0.157-0.137,0.204c-0.09,0.115-0.171,0.218-0.24,0.309c-0.092,0.07-0.183,0.104-0.276,0.104
							c-0.022,0-0.101,0-0.239,0c-0.018-0.002-0.036-0.003-0.054-0.003c-0.19,0-0.391,0.103-0.599,0.313
							c-0.071,0.091-0.092,0.227-0.071,0.412c0,0.161-0.045,0.265-0.136,0.311c-0.007,0.007-0.016,0.011-0.025,0.011
							c-0.021,0-0.047-0.016-0.078-0.046c-0.116-0.045-0.184-0.068-0.207-0.068c-0.069-0.026-0.139-0.039-0.211-0.039
							c-0.12,0-0.244,0.036-0.374,0.107c-0.206,0.139-0.299,0.297-0.274,0.482c0,0.229-0.068,0.4-0.206,0.514
							c-0.069,0.052-0.139,0.078-0.208,0.078c-0.023,0-0.045-0.003-0.068-0.008c-0.068,0-0.162-0.046-0.276-0.138
							c-0.125-0.069-0.243-0.104-0.352-0.104c-0.108,0-0.209,0.035-0.3,0.104c-0.114,0.068-0.205,0.229-0.275,0.482
							c-0.07,0.297-0.125,0.471-0.173,0.516c-0.027,0.053-0.076,0.079-0.147,0.079c-0.053,0-0.117-0.014-0.195-0.042
							c-0.228-0.073-0.355-0.107-0.377-0.107c-0.184,0-0.31,0.082-0.379,0.244c-0.024,0.045-0.013,0.136,0.034,0.273
							c0,0.138-0.114,0.264-0.342,0.379c-0.092,0.068-0.22,0.103-0.38,0.103c-0.092-0.01-0.175-0.016-0.249-0.016
							s-0.14,0.005-0.196,0.016c-0.138,0.046-0.321,0.332-0.549,0.858c-0.094,0.275-0.173,0.551-0.242,0.828l0.378,0.408
							l-0.72,0.381l-0.345,1.202c-0.275,0.939-0.495,1.697-0.655,2.27c-0.138,0.595-0.458,1.329-0.961,2.198
							C1,24.5,0.77,24.866,0.561,25.163L0.7,25.508l2.129,0.482l0.483,0.345c0.411,0.251,0.814,0.491,1.203,0.722
							c1.307,0.688,2.336,1.043,3.094,1.063c0.043,0.001,0.086,0.002,0.129,0.002c0.783,0,1.576-0.193,2.38-0.586
							c0.619-0.274,1.113-0.597,1.478-0.962c0.252-0.229,0.585-0.689,0.999-1.374c0.434-0.71,0.699-1.273,0.79-1.687
							c0.067-0.344,0.104-0.732,0.104-1.169v-0.55l0.103,0.068c0.009,0.003,0.019,0.005,0.029,0.005c0.062,0,0.133-0.059,0.21-0.177
							c0.023-0.07,0.081-0.207,0.171-0.412c0.138-0.254,0.264-0.471,0.38-0.653c0.389-0.62,0.812-1.065,1.271-1.341
							c0.425-0.255,1.046-0.38,1.864-0.38c0.065,0,0.132,0,0.199,0.002c0.458,0.024,0.869,0.058,1.236,0.103l0.174-0.308
							c0.137-0.25,0.307-0.507,0.516-0.757c0.593-0.801,1.293-1.387,2.093-1.752c0.704-0.318,1.418-0.478,2.145-0.478
							c0.27,0,0.541,0.022,0.813,0.066c0.506,0.068,0.906,0.195,1.203,0.378l0.276-0.552c0.251-0.412,0.536-0.778,0.858-1.1
							c0.881-0.917,1.887-1.379,3.019-1.379c0.193,0,0.39,0.014,0.59,0.041c0.984,0.114,1.878,0.651,2.68,1.614
							c0.506,0.597,0.848,1.168,1.033,1.717c0.137,0.344,0.217,0.54,0.241,0.585c0.091,0.207,0.205,0.322,0.345,0.345
							c0.139,0,0.467-0.104,0.994-0.311c0.527-0.229,0.859-0.389,0.998-0.479c0.092-0.094,0.125-0.218,0.104-0.379l-0.07-0.24
							l0.689-0.275c0.595-0.207,1.236-0.401,1.923-0.584c2.132-0.573,4.239-0.883,6.325-0.93c0.869,0,1.453,0,1.752,0
							c0.664,0.024,1.308,0.082,1.926,0.172c1.561,0.253,3.572,0.848,6.05,1.787c2.702,1.055,5.201,2.716,7.491,4.984
							c1.125,1.148,1.982,2.189,2.576,3.129c-0.09-0.805-0.387-1.836-0.891-3.095c-1.01-2.542-2.521-5.007-4.537-7.396
							c-0.709-0.824-1.592-1.694-2.644-2.611c-0.919-0.756-1.813-1.432-2.685-2.027c-0.803-0.572-1.89-1.17-3.265-1.785
							c-1.491-0.666-2.886-1.193-4.192-1.582c-1.146-0.32-2.601-0.608-4.366-0.859L38.234,4.57l-0.032-0.377L37.824,3.711
							L37.824,3.711z M7.853,26.905c-0.208,0-0.414-0.019-0.62-0.056c-0.641-0.14-1.259-0.426-1.857-0.859
							c-0.574-0.414-0.951-0.862-1.132-1.344c-0.231-0.549-0.369-0.938-0.414-1.168c-0.093-0.39-0.093-0.848,0-1.373
							c0.115-0.643,0.218-1.09,0.307-1.342c0.14-0.345,0.368-0.677,0.689-0.996c0.367-0.367,0.733-0.666,1.1-0.895
							c0.388-0.252,0.734-0.391,1.032-0.413c0.399-0.03,0.715-0.046,0.949-0.046c0.116,0,0.211,0.004,0.287,0.012
							c0.596,0.047,1.123,0.231,1.58,0.551c0.644,0.459,1.135,0.984,1.479,1.58c0.391,0.619,0.583,1.284,0.583,1.993
							c0,0.71-0.079,1.308-0.239,1.789c-0.182,0.456-0.502,0.916-0.962,1.372c-0.413,0.413-0.915,0.734-1.513,0.964
							C8.694,26.829,8.271,26.905,7.853,26.905L7.853,26.905z"/>
					</g>
				</g>
			</g>
		</g>
	</g>
</g>
<rect fill="none" width="66" height="32"/>
<g>
	<g>
		<path fill="#7A4621" d="M27.941,27.297l5.631,4.694l12.388,0.375c4.255-0.501,7.758-1.626,10.511-3.378
			c3.629-5.028,6.785-7.543,9.471-7.543c-1.822-0.728-3.909-0.43-6.26,0.895c-2.35,1.324-4.732-0.018-7.152-4.023
			c-2.252-1.502-6.666-0.412-10.282,1.343l3.714-5.813l-10.865,3.576L27.941,27.297z"/>
	</g>
</g>
<linearGradient id="SVGID_6_" gradientUnits="userSpaceOnUse" x1="-867.7881" y1="44.0947" x2="-866.7873" y2="45.0971" gradientTransform="matrix(30.7822 0 0 12.7634 26744.5332 -545.3481)">
	<stop  offset="0.6071" style="stop-color:#FFF6DA"/>
	<stop  offset="1" style="stop-color:#D6BB7E"/>
</linearGradient>
<path fill="url(#SVGID_6_)" d="M40.283,16.977h-3.188l-6.152,12.763h2.861l0.945-2.164h2.563l-0.168,2.164h2.735L40.283,16.977z
	 M37.973,20.189l-0.466,5.42h-1.928L37.973,20.189z M52.248,19.005c0-1.325-1.239-2.028-3.57-2.028c-2.889,0-4.211,0.92-4.9,3.289
	l-1.726,5.947c-0.216,0.699-0.258,1.045-0.258,1.367c0,1.402,1.302,2.158,3.718,2.158c1.328,0,2.372-0.229,3.104-0.697
	c0.785-0.521,1.279-1.326,1.662-2.729l0.41-1.448h-2.734l-0.452,1.571c-0.319,1.145-0.724,1.483-1.69,1.483
	c-0.746,0-1.156-0.271-1.156-0.769c0-0.151,0.05-0.41,0.134-0.732l1.837-6.323c0.277-0.938,0.73-1.313,1.628-1.313
	c0.746,0,1.147,0.271,1.147,0.752c0,0.205-0.063,0.463-0.188,0.955l-0.341,1.231h2.735l0.424-1.489
	C52.186,19.721,52.248,19.328,52.248,19.005z M61.727,16.977h-7.313l-3.479,12.763h7.522l0.536-1.959h-4.747l1.065-3.994h4.279
	l0.535-1.931h-4.279l0.814-2.949h4.529L61.727,16.977z"/>
</svg>
