<?xml version="1.0" encoding="utf-8"?>
<!-- Generator: Adobe Illustrator 16.0.0, SVG Export Plug-In . SVG Version: 6.00 Build 0)  -->
<!DOCTYPE svg PUBLIC "-//W3C//DTD SVG 1.1//EN" "http://www.w3.org/Graphics/SVG/1.1/DTD/svg11.dtd">
<svg version="1.1" id="图层_1" xmlns="http://www.w3.org/2000/svg" xmlns:xlink="http://www.w3.org/1999/xlink" x="0px" y="0px"
	 width="100.25px" height="32px" viewBox="0 0 100.25 32" enable-background="new 0 0 100.25 32" xml:space="preserve">
<rect fill="none" width="100.25" height="32"/>
<g>
	<rect fill="none" width="100.25" height="32"/>
	<g>
		<g>
			<g>
				
					<linearGradient id="SVGID_1_" gradientUnits="userSpaceOnUse" x1="-504.9131" y1="38.4883" x2="-505.9124" y2="39.4876" gradientTransform="matrix(100.013 0 0 20.961 50587.8203 -802.3193)">
					<stop  offset="0.2512" style="stop-color:#FF0000"/>
					<stop  offset="0.5665" style="stop-color:#FFD400"/>
					<stop  offset="0.8571" style="stop-color:#000000"/>
				</linearGradient>
				<path fill="url(#SVGID_1_)" d="M100.175,9.43c0-0.039-0.01-0.08-0.03-0.1c-0.02-0.03-0.029-0.04-0.039-0.061V8.65h-0.07
					c0.01-0.041,0.02-0.061,0.04-0.08c0-0.021,0.01-0.061,0.03-0.11V8.391c0-0.021-0.011-0.051-0.03-0.07
					c0-0.051-0.021-0.07-0.04-0.07c-0.021-0.05-0.05-0.08-0.07-0.109c-0.07-0.021-0.13-0.051-0.18-0.07h-0.07v0.039h-0.04
					c-0.02-0.029-0.05-0.039-0.069-0.039c-0.051-0.021-0.11-0.03-0.181-0.03h-1.649V7.32c-0.021-0.051-0.03-0.1-0.03-0.15
					c-0.03-0.04-0.07-0.09-0.12-0.141c-0.78,0-1.57-0.01-2.36-0.029v0.1c-0.05,0.03-0.109,0.061-0.18,0.11v0.74
					c-0.17-0.011-0.34-0.021-0.5-0.021c-0.03-0.029-0.05-0.05-0.08-0.07c-0.3-0.01-0.59-0.02-0.89-0.039v0.14
					c0.02,0.03,0.05,0.05,0.069,0.08h-37.54l-0.029,0.03V8.04c-0.05-0.05-0.09-0.09-0.11-0.11h-0.07v-0.07
					c0-0.029-0.02-0.06-0.04-0.109h-1.25c-0.029-0.05-0.05-0.09-0.079-0.109c0-0.051-0.011-0.08-0.03-0.111h-0.4V7.5h-0.89v0.029
					h-0.33V7.5h-0.43v0.029h-1.25V7.5h-0.431v0.029h-0.26V7.5h-0.43v0.029h-0.1V7.5h-0.471v0.029h-2.189L47.395,7.5V7.48h-0.43V7.5
					c0.02,0,0.04,0.01,0.07,0.029h-0.221V7.48c-2.17-0.01-4.35-0.01-6.529-0.021V7.1c0-0.02-0.01-0.029-0.03-0.029V7.029h-0.399V7
					h-0.291V6.641h-0.069c-0.17-0.011-0.351-0.021-0.54-0.041v0.041c-0.391-0.011-0.79-0.021-1.18-0.041V6.98
					c-0.121-0.01-0.24-0.021-0.36-0.021v0.5h-0.069V7.5h-0.111v0.029c0,0.031-0.01,0.041-0.029,0.041V7.6
					c-0.03,0-0.04,0.021-0.04,0.041c-0.03,0-0.04,0.01-0.04,0.039h-0.1v0.03c-0.03,0.03-0.051,0.04-0.08,0.04l-0.03,0.029
					c-0.03,0-0.05,0.021-0.069,0.041l-0.041,0.039h-0.109v0.031c-0.021,0.029-0.041,0.039-0.07,0.039v0.03
					c-0.02,0-0.061,0.021-0.1,0.04l-0.041,0.04h-0.039c-0.021,0.021-0.041,0.03-0.07,0.03c-0.02,0.02-0.04,0.039-0.07,0.039v0.031
					L36.266,8.18c-0.021,0-0.061,0.01-0.101,0.03h-0.08v0.04c-0.04,0.02-0.09,0.04-0.14,0.04v0.03c-0.021,0-0.051,0.02-0.07,0.039
					c-0.05,0-0.08,0.011-0.109,0.041h-0.041c-0.02,0.02-0.039,0.029-0.07,0.029c-0.02,0.021-0.039,0.041-0.069,0.041V8.5
					c-0.05,0-0.09,0.02-0.14,0.04h-0.07v0.03c-0.029,0.029-0.05,0.039-0.08,0.039c-0.02,0.021-0.04,0.041-0.07,0.041V8.68
					c-0.05,0-0.09,0.01-0.14,0.041l-0.04,0.029h-0.141v0.04c-0.029,0.021-0.049,0.04-0.069,0.04v0.029
					c-0.03,0-0.06,0.011-0.11,0.041c-0.02,0-0.05,0.01-0.07,0.029h-0.109v0.041c0,0.02-0.01,0.029-0.04,0.029v0.04
					c-0.04,0-0.09,0.01-0.14,0.04c-0.02,0-0.051,0.01-0.07,0.029h-0.109V9.15c-0.041,0.02-0.08,0.039-0.11,0.039l-0.03,0.031
					c-0.02,0-0.05,0.01-0.07,0.039c-0.05,0-0.1,0.01-0.149,0.03h-0.07c-0.021,0.03-0.05,0.04-0.069,0.04
					c-0.021,0.02-0.051,0.029-0.07,0.029V9.4c-0.03,0-0.051,0.01-0.07,0.039c-0.05,0-0.1,0.011-0.15,0.031h-0.1V9.51
					c-0.029,0.02-0.05,0.03-0.08,0.03v0.04c-0.05,0-0.09,0.01-0.14,0.04c-0.03,0-0.05,0.01-0.07,0.03h-0.11v0.039
					c-0.02,0.021-0.049,0.031-0.069,0.031l-0.04,0.039c-0.02,0-0.051,0.01-0.07,0.03c-0.05,0-0.09,0.021-0.14,0.04h-0.07v0.04
					c-0.05,0.021-0.101,0.03-0.149,0.03v0.039c-0.051,0-0.101,0.011-0.141,0.031c-0.029,0-0.05,0.02-0.07,0.039h-0.149v0.04
					c-0.05,0.021-0.091,0.03-0.14,0.03v0.04c-0.03,0-0.051,0.01-0.07,0.03c-0.03,0-0.061,0.02-0.11,0.039h-0.069
					c-0.03,0.021-0.051,0.031-0.07,0.031c-0.03,0.029-0.051,0.039-0.08,0.039v0.051c-0.04,0-0.09,0.01-0.141,0.029
					c-0.02,0-0.049,0.02-0.069,0.04h-0.11v0.04c-0.02,0.02-0.05,0.03-0.07,0.03v0.04c-0.049,0-0.1,0.01-0.14,0.029h-0.04
					l-0.029,0.041h-0.15v0.029c-0.051,0.03-0.08,0.04-0.109,0.04v0.03c-0.021,0-0.041,0.02-0.07,0.04c-0.051,0-0.09,0.01-0.141,0.04
					h-0.039c-0.021,0.02-0.051,0.029-0.07,0.029c-0.021,0.021-0.051,0.041-0.07,0.041l-0.04,0.029c-0.04,0-0.09,0.02-0.14,0.04
					c-0.021,0-0.051,0.011-0.07,0.04h-0.141v0.03c-0.049,0.021-0.09,0.04-0.109,0.04l-0.04,0.029c-0.021,0-0.05,0.021-0.069,0.041
					c-0.051,0-0.08,0.01-0.111,0.029h-0.029c-0.03,0.03-0.051,0.04-0.08,0.04c-0.04,0.021-0.09,0.04-0.141,0.04l-0.029,0.03
					c-0.03,0-0.051,0.01-0.08,0.04c-0.02,0-0.04,0.01-0.07,0.029h-0.109c0,0.03-0.01,0.041-0.03,0.041
					c-0.03,0.02-0.06,0.029-0.11,0.029v0.04c-0.02,0-0.05,0.011-0.07,0.04c-0.029,0-0.06,0.01-0.109,0.03h-0.18v0.04
					c-0.051,0.02-0.08,0.029-0.11,0.029l-0.03,0.041c-0.029,0-0.06,0.01-0.109,0.029c-0.021,0-0.061,0.01-0.11,0.04h-0.181v0.04
					c-0.02,0.02-0.039,0.03-0.069,0.03v0.04c-0.04,0-0.08,0.01-0.11,0.029c-0.039,0-0.1,0.021-0.18,0.041h-0.07v0.029
					c-0.01,0.01-0.02,0.01-0.029,0.01c-0.03,0.021-0.07,0.03-0.11,0.03v0.04c-0.05,0-0.09,0.01-0.14,0.03
					c-0.051,0-0.09,0.01-0.11,0.04h-0.14c0,0.02-0.021,0.029-0.041,0.029c-0.02,0.03-0.059,0.041-0.109,0.041v0.029
					c-0.02,0-0.029,0.02-0.029,0.04h-0.111c-0.049,0-0.09,0.011-0.109,0.04h-0.141c0,0.02-0.02,0.03-0.039,0.03
					c-0.02,0.03-0.061,0.04-0.11,0.04v0.029c-0.05,0-0.09,0.021-0.14,0.041c-0.051,0-0.09,0.01-0.11,0.029h-0.14
					c-0.03,0.03-0.051,0.04-0.07,0.04c-0.05,0.021-0.1,0.04-0.15,0.04l-0.029,0.03c-0.03,0-0.051,0.01-0.08,0.04
					c-0.04,0-0.1,0.01-0.18,0.029h-0.391c-0.07-0.02-0.15-0.029-0.25-0.029c-0.07-0.03-0.15-0.04-0.22-0.04v-0.03
					c-0.021,0-0.04-0.02-0.07-0.04c-0.05-0.021-0.11-0.04-0.18-0.04c-0.021-0.02-0.06-0.029-0.101-0.029V12.27l-0.039-0.029V12.2
					l-0.041-0.03v-0.18h-0.14v-0.04c-0.11,0.03-0.22,0.04-0.32,0.04h-0.22c-0.02,0-0.06,0.01-0.11,0.029h-0.25l-0.03,0.041h-0.15
					c-0.02,0.02-0.05,0.029-0.07,0.029h-0.11c-0.19,0.03-0.38,0.04-0.57,0.04h-0.29c-0.05,0.021-0.1,0.04-0.14,0.04h-0.33
					c-0.04,0-0.09,0.01-0.14,0.03h-0.29c-0.02,0-0.05,0.01-0.07,0.04h-0.21c-0.03,0.02-0.05,0.029-0.08,0.029h-0.14
					c-0.05,0.03-0.09,0.041-0.14,0.041h-0.29c-0.05,0.02-0.1,0.029-0.14,0.029h-0.36c-0.05,0-0.1,0.02-0.15,0.04h-0.32
					c-0.02,0-0.03,0.011-0.03,0.04h-0.22c0,0.02-0.01,0.03-0.03,0.03h-0.15c-0.19,0.03-0.39,0.04-0.61,0.04h-0.25
					c-0.05,0.02-0.08,0.029-0.11,0.029h-0.29c-0.04,0-0.08,0.021-0.1,0.041h-0.29c-0.12,0-0.25,0.01-0.4,0.029h-0.14l-0.03,0.04
					h-0.11c-0.18,0.011-0.36,0.021-0.54,0.021c-0.01,0.01-0.02,0.01-0.04,0.02h-0.14c-0.26-0.01-0.52-0.02-0.79-0.04v0.04h-0.5
					c0,0.02-0.02,0.03-0.04,0.03s-0.05,0.01-0.07,0.04c-0.14,0-0.29,0.01-0.43,0.029h-0.4c-0.02,0.03-0.05,0.041-0.07,0.041h-0.11
					c-0.02,0.02-0.04,0.029-0.07,0.029h-0.28c-0.03,0.03-0.05,0.04-0.08,0.04c-0.02,0-0.04,0.011-0.07,0.04
					c-0.14,0-0.27,0.01-0.39,0.03h-0.36c0,0.03-0.01,0.04-0.04,0.04h-0.46c0,0.02-0.01,0.029-0.04,0.029h-0.28v0.041
					c-0.03,0-0.04,0.01-0.04,0.029c-0.07,0-0.15,0.02-0.22,0.04h-0.46v0.42c-0.06,0-0.12,0.011-0.18,0.021
					c-0.03,0-0.06,0.01-0.11,0.029h-0.11c-0.62,0.03-1.24,0.041-1.86,0.041h-0.04l-0.07,0.069h-0.72l-0.07-0.069
					c-0.17,0-0.35-0.011-0.54-0.041c-0.13,0-0.27-0.01-0.41-0.02l-0.02-0.02c-0.01-0.011-0.04-0.031-0.07-0.07
					c-0.48,0-0.96,0-1.46-0.01l-0.01-0.021h-1.19c0,0.021-0.01,0.05-0.03,0.069c-0.14,0.021-0.29,0.051-0.43,0.07h-0.11
					c-0.02-0.05-0.05-0.08-0.07-0.109c-0.03,0-0.05-0.02-0.07-0.07c-0.08-0.02-0.13-0.05-0.18-0.07h-0.07
					c-0.03-0.02-0.07-0.039-0.11-0.039c-0.05-0.021-0.1-0.031-0.15-0.031h-0.35c-0.05,0.021-0.09,0.031-0.11,0.031
					c-0.05,0.049-0.12,0.09-0.22,0.109c-0.07,0.02-0.14,0.051-0.21,0.07h-0.15c-0.02,0.029-0.04,0.05-0.07,0.07
					c-0.05,0.029-0.11,0.049-0.18,0.08c0,0.02-0.02,0.029-0.07,0.029c-0.02,0.03-0.05,0.051-0.07,0.07
					c-0.02,0.05-0.05,0.09-0.07,0.109c-0.03,0.03-0.05,0.051-0.08,0.07c-0.04,0.03-0.08,0.061-0.1,0.109
					c-0.03,0.021-0.05,0.031-0.07,0.031c-0.03,0.049-0.04,0.09-0.04,0.109v0.26h-0.04l-0.03,0.041c-0.03,0.02-0.05,0.029-0.07,0.029
					c-0.03,0.05-0.05,0.09-0.08,0.109c0,0.031-0.01,0.051-0.03,0.07v0.68c0.02,0.021,0.03,0.061,0.03,0.111
					c0.03,0.029,0.05,0.039,0.08,0.039c0.02,0.04,0.03,0.08,0.03,0.1v0.681c0.03,0.03,0.04,0.05,0.04,0.069
					c0.02,0.031,0.05,0.061,0.07,0.111v1.02l0.04,0.069c0.02,0.021,0.04,0.051,0.07,0.07v1.07c0,0.02,0.01,0.03,0.03,0.03
					c0.03,0.05,0.05,0.09,0.07,0.109v1.32c0.03,0.05,0.04,0.08,0.04,0.109c0.02,0.021,0.05,0.04,0.07,0.07v1.69
					c0.02,0.02,0.05,0.06,0.07,0.109c0.03,0,0.04,0.021,0.04,0.07c0.02,0.021,0.04,0.05,0.04,0.07v1.25
					c0.02,0.02,0.03,0.06,0.03,0.109v0.07c0.03,0.021,0.04,0.04,0.04,0.07v0.92c0.02,0.02,0.03,0.05,0.03,0.069
					c0.03,0.051,0.05,0.091,0.08,0.11c0,0.021,0.01,0.05,0.03,0.07v0.569c0,0.021,0.01,0.061,0.04,0.11c0,0.021,0.01,0.05,0.03,0.07
					c0.03,0.02,0.04,0.05,0.04,0.069v0.75c0.02,0.04,0.03,0.08,0.03,0.11c0.03,0.021,0.04,0.04,0.04,0.07
					c0.02,0.02,0.04,0.05,0.04,0.069c0.02,0.04,0.03,0.08,0.03,0.11c0,0.021,0.01,0.04,0.04,0.07c0.02,0.02,0.06,0.06,0.11,0.1
					c0.02,0.03,0.05,0.05,0.07,0.08c0.05,0.021,0.1,0.04,0.14,0.03c0.05,0.02,0.12,0.05,0.22,0.07c0,0.02,0.02,0.039,0.07,0.039
					c0.07,0.021,0.13,0.04,0.18,0.07c0.02,0.021,0.05,0.04,0.07,0.07c0.05,0.02,0.1,0.05,0.14,0.07h0.08
					c0.05,0.02,0.1,0.05,0.18,0.069h0.32c0.07-0.02,0.13-0.05,0.18-0.069c0.05,0,0.09-0.011,0.14-0.04
					c0.03-0.04,0.04-0.08,0.04-0.101l0.03-0.07c0.03-0.029,0.05-0.05,0.08-0.069v-0.11c0.02,0.021,0.04,0.05,0.07,0.07v0.04
					c0.02,0.04,0.04,0.069,0.07,0.069c0.07,0.021,0.13,0.04,0.18,0.07h0.14c0.05-0.03,0.1-0.05,0.15-0.07h0.14
					c0.05,0.021,0.1,0.04,0.14,0.07h0.11c0.05-0.03,0.08-0.04,0.11-0.04c0-0.02,0.01-0.03,0.03-0.03l0.04-0.039
					c0.02-0.021,0.05-0.061,0.07-0.11v-0.24c0.1-0.01,0.19-0.01,0.29,0V26.8c0.12-0.04,0.24-0.08,0.36-0.1
					c0.02-0.03,0.06-0.05,0.11-0.08c0.14-0.04,0.28-0.08,0.43-0.101c0.02-0.02,0.06-0.05,0.1-0.069c0.15-0.05,0.29-0.09,0.43-0.11
					v-0.07c0.2-0.05,0.38-0.079,0.54-0.109v-0.07c0.12-0.04,0.24-0.08,0.36-0.109V25.92c0.12-0.05,0.24-0.09,0.36-0.11
					c0.02-0.029,0.06-0.05,0.11-0.069c0.07-0.05,0.15-0.09,0.25-0.11v-0.07c0.12-0.05,0.24-0.09,0.36-0.109v-0.07
					c0.12-0.05,0.24-0.09,0.36-0.11V25.2c0.12-0.04,0.24-0.08,0.36-0.11v-0.07c0.11-0.039,0.23-0.079,0.36-0.1v-0.08
					c0.19-0.04,0.37-0.08,0.53-0.12V24.65c0.12-0.04,0.24-0.08,0.36-0.11v-0.07c0.12-0.04,0.24-0.08,0.36-0.1v-0.08
					c0.12-0.04,0.24-0.08,0.36-0.1c0.02-0.021,0.06-0.051,0.11-0.07c0.07-0.05,0.15-0.09,0.25-0.11V23.94
					c0.19-0.051,0.37-0.08,0.54-0.11v-0.07c0.11-0.04,0.23-0.08,0.35-0.109v-0.07c0.13-0.04,0.24-0.08,0.36-0.1v-0.07
					c0.12-0.05,0.24-0.09,0.36-0.11V23.23c0.07-0.051,0.13-0.091,0.18-0.11c0.03-0.021,0.06-0.05,0.11-0.07
					c0.07-0.05,0.15-0.08,0.25-0.109c0.02-0.021,0.06-0.051,0.11-0.07c0.07-0.04,0.15-0.08,0.25-0.11
					c0.02-0.02,0.06-0.04,0.11-0.069c0.07-0.04,0.15-0.08,0.25-0.101v-0.07c0.12-0.05,0.24-0.09,0.36-0.109v-0.07
					c0.12-0.05,0.24-0.09,0.36-0.109c0.02-0.021,0.06-0.051,0.1-0.07c0.08-0.05,0.16-0.08,0.25-0.11V21.98
					c0.08-0.051,0.14-0.08,0.19-0.11V21.8c0.11-0.04,0.23-0.08,0.35-0.1c0.03-0.03,0.06-0.05,0.11-0.08
					c0.14-0.04,0.29-0.08,0.43-0.101V21.45c0.12-0.05,0.24-0.09,0.36-0.11v-0.07c0.12-0.05,0.24-0.079,0.36-0.109
					c0.02-0.021,0.06-0.05,0.1-0.07c0.15-0.05,0.29-0.08,0.43-0.109v-0.07c0.08-0.04,0.14-0.08,0.19-0.11
					c0.02-0.02,0.06-0.04,0.1-0.069c0.15-0.04,0.29-0.08,0.43-0.101v-0.07c0.12-0.05,0.24-0.09,0.36-0.109v-0.07
					c0.12-0.05,0.24-0.09,0.36-0.11V20.2c0.12-0.04,0.24-0.08,0.36-0.11c0.02-0.02,0.06-0.04,0.11-0.07
					c0.07-0.039,0.15-0.079,0.25-0.1c0.07-0.03,0.13-0.05,0.18-0.08c0.12-0.04,0.24-0.08,0.35-0.1c0.1-0.03,0.2-0.05,0.29-0.07
					c0.07-0.05,0.16-0.1,0.25-0.15v-0.14c0.1-0.05,0.19-0.1,0.29-0.149c0.07-0.04,0.16-0.08,0.25-0.101v0.39
					c0.03,0.021,0.05,0.061,0.07,0.11c0.03,0.021,0.05,0.04,0.08,0.07c0.07,0,0.13,0.01,0.17,0.03c0.08-0.021,0.14-0.03,0.19-0.03
					h0.21c0.05,0.02,0.11,0.04,0.18,0.069c0.02,0.04,0.05,0.08,0.07,0.101c0.02,0,0.05,0.03,0.07,0.08
					c0.07,0.02,0.15,0.04,0.22,0.069v0.03c0,0.03,0.01,0.05,0.03,0.07c0,0.05,0.02,0.09,0.04,0.11c0.02,0.02,0.05,0.05,0.07,0.069
					c0.02,0.03,0.05,0.061,0.07,0.11c0.03,0.02,0.04,0.05,0.04,0.07c0,0.02,0.02,0.05,0.07,0.069c0.02,0.021,0.06,0.061,0.11,0.11
					v0.07c0.02,0.02,0.03,0.05,0.03,0.069c0.03,0.05,0.05,0.07,0.08,0.07v0.36c0.02,0.05,0.04,0.069,0.07,0.069
					c0.02,0.021,0.05,0.061,0.07,0.11c0.05,0.02,0.08,0.04,0.11,0.06c0.07,0,0.14,0.021,0.21,0.04h0.14c0.05,0,0.09-0.01,0.11-0.04
					h0.08c0.02,0,0.039-0.01,0.069-0.029c0-0.051,0.011-0.08,0.03-0.11c0-0.021,0.02-0.04,0.04-0.07v-0.1l-0.04-0.04v-0.04
					c0-0.021-0.01-0.04-0.03-0.07c-0.05-0.04-0.09-0.08-0.11-0.1c-0.02-0.03-0.049-0.05-0.069-0.08V20.77c0.39,0,0.78,0,1.17,0.011
					c0.271,0.01,0.56,0.01,0.84,0.02V20.73c0.07-0.04,0.13-0.08,0.181-0.11v-0.3c0.06-0.03,0.119-0.04,0.18-0.061V20.19
					c0.07-0.04,0.13-0.08,0.18-0.101v-0.04c0.16,0.01,0.33,0.01,0.5,0.021v0.02c0,0.04,0.01,0.08,0.04,0.101
					c0.021,0.02,0.04,0.06,0.069,0.109c0.07,0,0.141,0.01,0.211,0.03h0.07c0.069-0.021,0.129-0.03,0.18-0.03l0.07-0.03
					c0.029-0.029,0.049-0.06,0.08-0.109c0-0.03,0.01-0.05,0.029-0.07c0.061-0.01,0.12-0.01,0.18,0l0.041-0.04
					c0.049-0.02,0.08-0.06,0.109-0.109c0-0.04,0.01-0.08,0.029-0.101v-1.62c0.07-0.05,0.141-0.09,0.181-0.109v-0.25
					c0.069-0.051,0.13-0.08,0.181-0.11V17.5c0.069-0.04,0.129-0.08,0.18-0.1v-0.07c0.07-0.05,0.13-0.09,0.18-0.11v-0.25
					c0.07-0.05,0.141-0.1,0.221-0.14c0.039-0.05,0.09-0.1,0.139-0.15c0.051-0.05,0.101-0.1,0.141-0.14V16.5h0.04l0.11-0.109
					c0-0.011,0.01-0.031,0.02-0.051c0.02-0.01,0.04-0.01,0.051-0.02v-0.03c0.049,0,0.09-0.021,0.139-0.04
					c0.031-0.02,0.061-0.05,0.111-0.07c0.02-0.02,0.059-0.039,0.109-0.039c0.05-0.021,0.07-0.051,0.07-0.07
					c0.07-0.021,0.14-0.051,0.209-0.07c0.031-0.02,0.08-0.05,0.15-0.07c0.04,0,0.09-0.01,0.141-0.039c0.02,0,0.06-0.011,0.109-0.031
					c0.02-0.029,0.07-0.039,0.141-0.039c0.02-0.021,0.05-0.03,0.07-0.03c0.029-0.03,0.069-0.04,0.149-0.04
					c0.021-0.02,0.06-0.04,0.101-0.04c0.049-0.021,0.09-0.03,0.109-0.03c0.29-0.029,0.57-0.05,0.83-0.07
					c0.07-0.029,0.14-0.049,0.21-0.069h0.149V15.5c0.221-0.01,0.451-0.02,0.681-0.04h1.26c0.06,0.021,0.11,0.04,0.17,0.04h0.04v0.04
					l0.04,0.04v0.029c0.021,0,0.03,0.011,0.03,0.041h0.039v0.209l0.031,0.041v0.029c0.029,0,0.039,0.01,0.039,0.041V16l0.07,0.08
					c0.02,0,0.04,0.01,0.04,0.029c0.021,0,0.03,0.011,0.03,0.041v0.029h0.039v0.041l0.041,0.029c0,0.029,0.01,0.04,0.029,0.04v0.04
					l0.041,0.029V16.4c0,0.02,0.01,0.039,0.029,0.039v0.031c0.03,0,0.04,0.01,0.04,0.039l0.04,0.03c0.02,0,0.04,0.02,0.07,0.04v0.07
					c0.02,0,0.029,0.01,0.029,0.04v0.029l0.07,0.07c0,0.02,0.02,0.04,0.04,0.04v0.03l0.22,0.22v0.04l0.03,0.03v0.069
					c0.03,0,0.04,0.011,0.04,0.04c0.02,0.021,0.05,0.03,0.07,0.03l0.039,0.04c0,0.02,0.011,0.04,0.031,0.04v0.03l0.039,0.029v0.04
					c0.021,0,0.061,0.011,0.11,0.04v0.07l0.069,0.07c0.041,0.02,0.08,0.04,0.101,0.04h0.62c0.01,0.01,0.02,0.02,0.029,0.029
					c0.011-0.01,0.021-0.02,0.041-0.029v-0.15l-0.041-0.03c-0.01-0.02-0.02-0.029-0.029-0.04v-0.29c0-0.01,0-0.02-0.01-0.02
					c0.039-0.01,0.08,0,0.109,0.02v0.04c0.03,0.021,0.051,0.03,0.07,0.03c0.029,0.03,0.061,0.04,0.109,0.04
					c0.051,0.02,0.101,0.04,0.15,0.04h0.82c0.29,0,0.57-0.021,0.859-0.04c0.051,0,0.101-0.01,0.15-0.04h0.21v-0.07
					c0.101,0,0.181-0.01,0.25-0.029c0.101,0,0.181-0.011,0.25-0.04c0.03,0,0.05-0.011,0.07-0.03h0.11v-0.07
					c0.029,0,0.039-0.02,0.039-0.04h0.211V16.9l0.039-0.051c0-0.02,0.01-0.04,0.041-0.04c0.02,0,0.029-0.01,0.029-0.029
					c0.02,0,0.051-0.011,0.07-0.04v-0.03h0.109v-0.07c0.021,0,0.051-0.02,0.07-0.04c0.03,0,0.061-0.01,0.11-0.029v-0.08l0.069-0.07
					c0.03,0,0.061-0.01,0.11-0.029v-0.07l0.11-0.11c0.02,0,0.05-0.01,0.07-0.04h0.029v-0.029l0.04-0.041
					c0.021,0,0.06-0.01,0.11-0.039v-0.031l0.029-0.039v-0.03l0.07-0.069c0.03,0,0.051-0.021,0.08-0.041l0.03-0.039
					c0.12,0,0.239-0.011,0.36-0.031V15.74c0.029,0,0.039-0.01,0.039-0.03c0.021,0,0.051-0.021,0.07-0.04
					c0.02,0,0.04-0.01,0.04-0.029h0.03c0.029-0.031,0.05-0.041,0.07-0.041c0-0.02,0.02-0.029,0.039-0.029
					c0.021-0.03,0.051-0.041,0.07-0.041c0-0.02,0.01-0.039,0.04-0.039c0-0.02,0.011-0.03,0.03-0.03v-0.01
					c0.01-0.021,0.02-0.03,0.039-0.03c0-0.02,0.011-0.029,0.031-0.029c0.029,0,0.039-0.021,0.039-0.041
					c0.021,0,0.061-0.01,0.11-0.039h0.04c0.01-0.021,0.029-0.031,0.05-0.031h0.021l0.029-0.039l0.07-0.03v-0.04h0.04l0.04-0.029
					c0.02,0,0.061-0.021,0.109-0.041h0.031c0.029-0.02,0.049-0.039,0.069-0.039l0.04-0.031c0.02,0,0.04-0.01,0.04-0.039
					c0.021,0,0.03-0.01,0.03-0.03c0.029,0,0.05-0.01,0.08-0.04l0.1-0.109c0.029,0,0.04-0.011,0.04-0.031
					c0.021,0,0.05-0.01,0.069-0.02v0.09c0.141,0.021,0.271,0.051,0.391,0.07c0.05,0.051,0.09,0.08,0.109,0.109
					c0.681,0,1.361,0.011,2.041,0.031c0.109-0.011,0.22,0,0.33,0v-0.07h0.27c2.439-0.03,4.87-0.051,7.3-0.07
					c0.05,0.051,0.08,0.1,0.11,0.141c0,0.049,0.01,0.1,0.04,0.149c0.09,0.05,0.189,0.101,0.28,0.14
					c0.029,0.03,0.06,0.061,0.109,0.11s0.08,0.101,0.11,0.14c0,0.051,0.01,0.101,0.03,0.15c0.069,0.02,0.14,0.05,0.18,0.07v0.109
					c0.12,0.021,0.24,0.051,0.359,0.07v0.109c0.07,0.021,0.131,0.051,0.181,0.07v0.11c0.12,0.021,0.24,0.04,0.359,0.06v0.11
					c0.141,0.03,0.271,0.05,0.391,0.07l0.109,0.109c0.381,0.03,0.771,0.051,1.15,0.07c0.04,0.05,0.08,0.09,0.1,0.11
					c0.721,0,1.45,0.01,2.19,0.029c0.03-0.02,0.06-0.04,0.11-0.069c0.55-0.04,1.109-0.08,1.689-0.101
					c0.021-0.029,0.061-0.05,0.101-0.069c0.439-0.051,0.88-0.091,1.33-0.11v-0.07c0.479-0.05,0.96-0.09,1.439-0.109v-0.07
					c0.43-0.05,0.85-0.08,1.25-0.109c0.03-0.021,0.061-0.051,0.11-0.07c0.43-0.051,0.88-0.08,1.33-0.11
					c0.02-0.021,0.06-0.04,0.109-0.069c0.55-0.051,1.11-0.08,1.681-0.111V15.71c0.56-0.04,1.09-0.08,1.619-0.11v-0.06
					c0.12-0.021,0.23-0.03,0.341-0.04h10.1c0.07,0,0.13-0.01,0.18-0.04h0.04c0.021-0.021,0.051-0.04,0.07-0.069
					c0.49,0.01,0.98,0.02,1.47,0.039c0.03-0.029,0.061-0.05,0.11-0.08c0.62-0.039,1.24-0.08,1.87-0.1c0.02-0.02,0.05-0.05,0.1-0.07
					c0.19-0.05,0.4-0.09,0.61-0.109V15c0.24-0.05,0.479-0.1,0.72-0.15V14.82h0.36c0.05,0,0.1-0.01,0.14-0.041l0.04-0.029
					c0.021,0,0.05-0.02,0.07-0.04c0.029-0.021,0.05-0.04,0.069-0.04c0.03,0,0.051-0.01,0.07-0.029c0-0.051,0.021-0.08,0.04-0.111
					c0.021-0.02,0.04-0.049,0.04-0.069v-0.11h0.96v-0.18h0.36v-2.12c-0.061-0.01-0.12-0.01-0.181-0.01V11.5
					c0.04-0.01,0.07-0.02,0.11-0.02c0-0.051,0.01-0.101,0.04-0.15c0.01-0.01,0.03-0.03,0.05-0.051
					c0.17,0.011,0.34,0.011,0.521,0.021V11.23h0.14V11.21c0.4-0.03,0.79-0.05,1.19-0.069v0.09h0.029v-0.09
					c0.15-0.011,0.29-0.021,0.431-0.021c0.029-0.03,0.06-0.05,0.109-0.07c3.11,0,6.23,0,9.351,0.011l0.02-0.011v-0.11
					c-0.03-0.02-0.05-0.049-0.07-0.069c-0.029-0.03-0.039-0.05-0.039-0.07l-0.021-0.04h0.521V9.9c0.029-0.021,0.05-0.051,0.069-0.07
					c0.03-0.03,0.04-0.051,0.04-0.07V9.471L100.175,9.43z M0.995,14.82c-0.05,0.02-0.08,0.06-0.11,0.1v-0.1l0.04-0.041
					c0.02,0,0.03-0.01,0.03-0.029c0.03,0,0.05-0.02,0.07-0.04c0.01-0.01,0.02-0.01,0.02-0.01C1.035,14.74,1.015,14.779,0.995,14.82z
					 M1.065,14.67l-0.01,0.01c0.01-0.02,0.01-0.029,0.01-0.039V14.67z M1.245,17.47c-0.02-0.01-0.03-0.02-0.04-0.029h0.04V17.47z
					 M1.245,14.46c-0.02,0.011-0.05,0.021-0.07,0.04v-0.04c0.02-0.021,0.05-0.05,0.07-0.069V14.46z M1.535,14.25
					c-0.05,0-0.09,0.01-0.11,0.029v0.07h-0.15c0.04-0.029,0.06-0.05,0.08-0.07c0.04-0.02,0.1-0.049,0.18-0.069l0.01-0.021
					C1.535,14.21,1.535,14.23,1.535,14.25z M3.505,26.91c0,0.03-0.01,0.05-0.04,0.07v0.14c0-0.021-0.01-0.04-0.03-0.07
					c-0.03-0.04-0.05-0.08-0.07-0.1c0-0.03-0.01-0.05-0.04-0.07h0.22C3.525,26.89,3.515,26.9,3.505,26.91z M40.105,14.48v0.02
					c-0.141,0-0.28-0.01-0.431-0.01C39.825,14.48,39.965,14.48,40.105,14.48z M35.064,14.189h-0.09c0.03-0.01,0.07-0.01,0.11-0.02
					L35.064,14.189z M39.495,16.4h-0.14v0.039c0,0.021-0.021,0.031-0.041,0.031v0.039c-0.02,0-0.06,0.01-0.109,0.03
					c-0.02,0-0.04,0.02-0.07,0.04c-0.119,0-0.24,0.01-0.359,0.04h-0.141v0.07c-0.07,0-0.14,0.01-0.21,0.029
					c-0.239,0-0.479,0.011-0.72,0.04h-0.18c-0.051-0.029-0.09-0.04-0.11-0.04s-0.05-0.01-0.069-0.029v-0.04
					c-0.051-0.021-0.101-0.03-0.141-0.03c-0.02-0.01-0.03-0.021-0.04-0.021v-0.02c-0.03-0.01-0.06-0.021-0.09-0.021
					c-0.021-0.01-0.04-0.02-0.05-0.02h-0.041v-0.069c-0.049-0.031-0.08-0.041-0.109-0.041c0-0.02-0.01-0.029-0.029-0.029v-0.041
					c-0.031,0-0.041-0.01-0.041-0.029v-0.04c-0.02,0-0.029-0.011-0.029-0.04c-0.03,0-0.051-0.01-0.08-0.029v-0.15h-0.07v-0.68
					c-0.02,0-0.029-0.011-0.029-0.031c0.02,0,0.049-0.02,0.069-0.039V15c0.94,0.01,1.89,0.02,2.83,0.04V16.4z"/>
			</g>
		</g>
	</g>
	<g>
		
			<linearGradient id="SVGID_2_" gradientUnits="userSpaceOnUse" x1="-841.9629" y1="43.2217" x2="-842.5456" y2="43.2217" gradientTransform="matrix(34.5122 0 0 13.1527 29105.5371 -556.8325)">
			<stop  offset="0" style="stop-color:#00FFFF"/>
			<stop  offset="0.6495" style="stop-color:#FFE3A0"/>
		</linearGradient>
		<path fill="url(#SVGID_2_)" d="M36.814,7.85l-0.01,0.01h-0.109v0.031c-0.021,0.029-0.041,0.039-0.07,0.039v0.03
			c-0.02,0-0.061,0.021-0.1,0.04l-0.041,0.04h-0.039c-0.021,0.021-0.041,0.03-0.07,0.03c-0.02,0.02-0.04,0.039-0.07,0.039v0.031
			L36.266,8.18c-0.021,0-0.061,0.01-0.101,0.03h-0.08v0.04c-0.04,0.02-0.09,0.04-0.14,0.04v0.03c-0.021,0-0.051,0.02-0.07,0.039
			c-0.05,0-0.08,0.011-0.109,0.041h-0.041c-0.02,0.02-0.039,0.029-0.07,0.029c-0.02,0.021-0.039,0.041-0.069,0.041V8.5
			c-0.05,0-0.09,0.02-0.14,0.04h-0.07v0.03c-0.029,0.029-0.05,0.039-0.08,0.039c-0.02,0.021-0.04,0.041-0.07,0.041V8.68
			c-0.05,0-0.09,0.01-0.14,0.041l-0.04,0.029h-0.141v0.04c-0.029,0.021-0.049,0.04-0.069,0.04v0.029c-0.03,0-0.06,0.011-0.11,0.041
			c-0.02,0-0.05,0.01-0.07,0.029h-0.109v0.041c0,0.02-0.01,0.029-0.04,0.029v0.04c-0.04,0-0.09,0.01-0.14,0.04
			c-0.02,0-0.051,0.01-0.07,0.029h-0.109V9.15c-0.041,0.02-0.08,0.039-0.11,0.039l-0.03,0.031c-0.02,0-0.05,0.01-0.07,0.039
			c-0.05,0-0.1,0.01-0.149,0.03h-0.07c-0.021,0.03-0.05,0.04-0.069,0.04c-0.021,0.02-0.051,0.029-0.07,0.029V9.4
			c-0.03,0-0.051,0.01-0.07,0.039c-0.05,0-0.1,0.011-0.15,0.031h-0.1V9.51c-0.029,0.02-0.05,0.03-0.08,0.03v0.04
			c-0.05,0-0.09,0.01-0.14,0.04c-0.03,0-0.05,0.01-0.07,0.03h-0.11v0.039c-0.02,0.021-0.049,0.031-0.069,0.031l-0.04,0.039
			c-0.02,0-0.051,0.01-0.07,0.03c-0.05,0-0.09,0.021-0.14,0.04h-0.07v0.04c-0.05,0.021-0.101,0.03-0.149,0.03v0.039
			c-0.051,0-0.101,0.011-0.141,0.031c-0.029,0-0.05,0.02-0.07,0.039h-0.149v0.04c-0.05,0.021-0.091,0.03-0.14,0.03v0.04
			c-0.03,0-0.051,0.01-0.07,0.03c-0.03,0-0.061,0.02-0.11,0.039h-0.069c-0.03,0.021-0.051,0.031-0.07,0.031
			c-0.03,0.029-0.051,0.039-0.08,0.039v0.051c-0.04,0-0.09,0.01-0.141,0.029c-0.02,0-0.049,0.02-0.069,0.04h-0.11v0.04
			c-0.02,0.02-0.05,0.03-0.07,0.03v0.04c-0.049,0-0.1,0.01-0.14,0.029h-0.04l-0.029,0.041h-0.15v0.029
			c-0.051,0.03-0.08,0.04-0.109,0.04v0.03c-0.021,0-0.041,0.02-0.07,0.04c-0.051,0-0.09,0.01-0.141,0.04h-0.039
			c-0.021,0.02-0.051,0.029-0.07,0.029c-0.021,0.021-0.051,0.041-0.07,0.041l-0.04,0.029c-0.04,0-0.09,0.02-0.14,0.04
			c-0.021,0-0.051,0.011-0.07,0.04h-0.141v0.03c-0.049,0.021-0.09,0.04-0.109,0.04l-0.04,0.029c-0.021,0-0.05,0.021-0.069,0.041
			c-0.051,0-0.08,0.01-0.111,0.029h-0.029c-0.03,0.03-0.051,0.04-0.08,0.04c-0.04,0.021-0.09,0.04-0.141,0.04l-0.029,0.03
			c-0.03,0-0.051,0.01-0.08,0.04c-0.02,0-0.04,0.01-0.07,0.029h-0.109c0,0.03-0.01,0.041-0.03,0.041
			c-0.03,0.02-0.06,0.029-0.11,0.029v0.04c-0.02,0-0.05,0.011-0.07,0.04c-0.029,0-0.06,0.01-0.109,0.03h-0.18v0.04
			c-0.051,0.02-0.08,0.029-0.11,0.029l-0.03,0.041c-0.029,0-0.06,0.01-0.109,0.029c-0.021,0-0.061,0.01-0.11,0.04h-0.181v0.04
			c-0.02,0.02-0.039,0.03-0.069,0.03v0.04c-0.04,0-0.08,0.01-0.11,0.029c-0.039,0-0.1,0.021-0.18,0.041h-0.07v0.029
			c-0.01,0.01-0.02,0.01-0.029,0.01c4.35,0.521,8.359,1.41,12.06,2.641c0.89,0.3,1.761,0.609,2.61,0.96
			c0.01-0.021,0.02-0.03,0.039-0.03c0-0.02,0.011-0.029,0.031-0.029c0.029,0,0.039-0.021,0.039-0.041c0.021,0,0.061-0.01,0.11-0.039
			h0.04c0.01-0.021,0.029-0.031,0.05-0.031h0.021l0.029-0.039l0.07-0.03v-0.04h0.04l0.04-0.029c0.02,0,0.061-0.021,0.109-0.041
			h0.031c0.029-0.02,0.049-0.039,0.069-0.039l0.04-0.031c0.02,0,0.04-0.01,0.04-0.039c0.021,0,0.03-0.01,0.03-0.03
			c0.029,0,0.05-0.01,0.08-0.04l0.1-0.109c0.029,0,0.04-0.011,0.04-0.031c0.021,0,0.05-0.01,0.069-0.02v0.09
			c0.141,0.021,0.271,0.051,0.391,0.07c0.05,0.051,0.09,0.08,0.109,0.109c0.681,0,1.361,0.011,2.041,0.031l0.33-0.041l0.27-0.029
			C43.475,12.279,40.295,9.91,36.814,7.85z"/>
	</g>
	<g>
		<linearGradient id="SVGID_3_" gradientUnits="userSpaceOnUse" x1="62.6035" y1="9.8999" x2="48.4488" y2="9.8999">
			<stop  offset="0" style="stop-color:#00FFFF"/>
			<stop  offset="0.8219" style="stop-color:#FFE3A0"/>
		</linearGradient>
		<path fill="url(#SVGID_3_)" d="M61.765,12.3c-3.979-2.22-8.42-3.819-13.319-4.771h1.1V7.5h0.471v0.029h0.1V7.5h0.43v0.029h0.26
			V7.5h0.431v0.029h1.25V7.5h0.43v0.029h0.33V7.5h0.89v0.029h0.4c0.02,0.031,0.03,0.061,0.03,0.111
			c0.029,0.02,0.05,0.06,0.079,0.109h1.25c0.021,0.05,0.04,0.08,0.04,0.109v0.07h0.07c0.021,0.021,0.061,0.061,0.11,0.11v0.03
			l0.029-0.03h0.711C58.565,9.35,60.205,10.76,61.765,12.3z"/>
	</g>
	<g>
		<g>
			<g>
				<g>
					<linearGradient id="SVGID_4_" gradientUnits="userSpaceOnUse" x1="31.7534" y1="44.5361" x2="64.5657" y2="-12.2964">
						<stop  offset="0" style="stop-color:#BB925B"/>
						<stop  offset="0.3429" style="stop-color:#FFF6DA"/>
						<stop  offset="0.6571" style="stop-color:#FFF1B1"/>
						<stop  offset="1" style="stop-color:#B38B54"/>
					</linearGradient>
					<path fill="url(#SVGID_4_)" d="M38.536,7.63c0.086,0.002,0.172,0.004,0.257,0.007c0.158,0.191,0.387,0.323,0.646,0.355
						c0.176,0.279,0.487,0.466,0.842,0.468c1.141,0.006,2.282,0.009,3.421,0.011c0.935,0.002,1.868,0.005,2.8,0.009
						c0.099,0.032,0.204,0.05,0.313,0.05h0.221c0.055,0,0.107-0.004,0.16-0.013c0.053,0.009,0.105,0.013,0.16,0.013h2.189
						c0.08,0,0.157-0.01,0.231-0.028c0.077,0.019,0.157,0.028,0.239,0.028h0.1c0.072,0,0.144-0.008,0.212-0.023
						c0.07,0.016,0.143,0.023,0.218,0.023h0.26c0.073,0,0.144-0.008,0.212-0.024c0.07,0.017,0.144,0.024,0.219,0.024h1.25
						c0.072,0,0.144-0.008,0.212-0.023c0.07,0.016,0.143,0.023,0.218,0.023h0.33c0.081,0,0.159-0.01,0.234-0.029h0.414
						c0.037,0.009,0.075,0.017,0.114,0.021c0.177,0.146,0.401,0.229,0.637,0.229h0.718c0.038,0.026,0.078,0.051,0.119,0.071
						c0.081,0.066,0.173,0.12,0.273,0.161c0.116,0.047,0.239,0.069,0.361,0.069c0.052,0,0.103-0.004,0.153-0.012h37.415
						c0.203,0,0.396-0.062,0.559-0.171c0.108,0.04,0.225,0.061,0.342,0.061c0.14,0,0.288,0.009,0.437,0.019
						c0.021,0.001,0.043,0.002,0.063,0.002c0.254,0,0.498-0.097,0.685-0.271c0.185-0.174,0.297-0.411,0.313-0.663
						c0.231,0.004,0.462,0.007,0.692,0.009V8.04c0,0.553,0.447,1,1,1h1.33V9.27c0,0.107,0.018,0.214,0.051,0.315
						c-0.032,0.099-0.05,0.203-0.051,0.31c-0.075,0.045-0.145,0.101-0.207,0.163c-2.854-0.008-5.708-0.008-8.554-0.008
						c-0.131,0-0.26,0.025-0.381,0.075c-0.003,0.001-0.006,0.003-0.009,0.004c-0.061,0.003-0.123,0.007-0.186,0.012
						c-0.015,0-0.028,0-0.043,0.001c-0.409,0.021-0.808,0.04-1.217,0.071c-0.047,0.004-0.093,0.01-0.137,0.021
						c-0.091,0.006-0.179,0.024-0.261,0.054c-0.042-0.001-0.083-0.003-0.124-0.006c-0.018-0.001-0.034-0.002-0.052-0.002
						c-0.28,0-0.577,0.143-0.77,0.344c-0.041,0.041-0.078,0.086-0.111,0.134c-0.205,0.185-0.331,0.452-0.331,0.743v0.54
						c0,0.213,0.066,0.411,0.181,0.573v0.736h-0.32c-0.358,0-0.672,0.188-0.849,0.471c-0.141,0.003-0.273,0.036-0.394,0.094
						l-0.511,0.106c-0.104,0.021-0.201,0.06-0.29,0.109c-0.123,0.022-0.247,0.05-0.37,0.082c-0.044,0.012-0.086,0.026-0.128,0.043
						c-0.004,0.002-0.008,0.003-0.011,0.005c-0.501,0.02-0.996,0.051-1.49,0.082l-0.15,0.01c-0.105,0.007-0.208,0.029-0.306,0.068
						c-0.396-0.014-0.794-0.021-1.192-0.029c-0.006,0-0.013,0-0.02,0c-0.16,0-0.315,0.038-0.455,0.109h-9.935
						c-0.029,0-0.059,0.001-0.088,0.004c-0.137,0.012-0.272,0.025-0.421,0.051c-0.08,0.014-0.156,0.036-0.229,0.067
						c-0.327,0.021-0.658,0.045-0.997,0.069l-0.297,0.021c-0.123,0.009-0.239,0.039-0.346,0.088
						c-0.458,0.025-0.91,0.053-1.355,0.094c-0.096,0.009-0.206,0.041-0.306,0.083c-0.384,0.025-0.777,0.055-1.159,0.1
						c-0.085,0.01-0.168,0.031-0.248,0.063c-0.018,0.007-0.034,0.014-0.05,0.021c-0.344,0.025-0.698,0.055-1.061,0.097
						c-0.106,0.012-0.207,0.041-0.3,0.083c-0.346,0.021-0.718,0.053-1.128,0.096c-0.112,0.011-0.218,0.041-0.315,0.086
						c-0.319,0.021-0.653,0.053-1.026,0.096c-0.096,0.011-0.188,0.036-0.277,0.073c-0.502,0.022-0.989,0.058-1.47,0.093
						c-0.096,0.007-0.188,0.027-0.277,0.061c-0.536-0.013-1.066-0.021-1.593-0.022c-0.125-0.064-0.264-0.103-0.406-0.11
						c-0.268-0.014-0.539-0.027-0.81-0.045c-0.089-0.052-0.186-0.09-0.287-0.112c-0.105-0.08-0.228-0.141-0.361-0.174
						c-0.131-0.165-0.313-0.289-0.525-0.346c-0.004-0.003-0.008-0.006-0.012-0.009c-0.01-0.015-0.02-0.029-0.029-0.043
						c-0.051-0.071-0.111-0.15-0.191-0.23l-0.097-0.098c-0.067-0.069-0.143-0.128-0.227-0.175c-0.006-0.009-0.012-0.018-0.018-0.026
						c-0.051-0.072-0.11-0.15-0.191-0.233c-0.188-0.191-0.445-0.3-0.714-0.3c-0.003,0-0.005,0-0.008,0
						c-2.432,0.02-4.863,0.04-7.292,0.07h-0.27c-0.122,0-0.238,0.021-0.347,0.062c-0.56-0.012-1.118-0.02-1.678-0.021
						c-0.088-0.045-0.183-0.077-0.28-0.095c-0.014-0.009-0.027-0.018-0.041-0.026c-0.16-0.1-0.343-0.149-0.525-0.149
						c-0.102,0-0.204,0.016-0.303,0.047c-0.15,0.036-0.287,0.105-0.402,0.201c-0.046,0.033-0.089,0.071-0.129,0.113
						c-0.037,0.024-0.072,0.051-0.105,0.079c-0.001,0.001-0.003,0.001-0.004,0.002c0.001-0.001,0.003-0.001,0.004-0.002
						c-0.002,0.002-0.004,0.004-0.007,0.006c-0.13,0.037-0.249,0.102-0.353,0.186c-0.14,0.043-0.267,0.114-0.373,0.209
						c-0.05,0.038-0.097,0.08-0.139,0.126c-0.003,0.002-0.005,0.004-0.008,0.006c-0.05,0.022-0.097,0.05-0.142,0.08
						c-0.081,0.005-0.163,0.022-0.243,0.049c0.048-0.118,0.074-0.247,0.074-0.381c0-0.553-0.447-1-1-1
						c-0.162,0-0.322,0.001-0.495,0.012c-0.36,0.023-0.665,0.235-0.821,0.534c-0.698-0.012-1.401-0.019-2.113-0.026
						c-0.004,0-0.008,0-0.011,0c-0.209,0-0.412,0.065-0.58,0.186c0.003-0.169-0.037-0.339-0.122-0.495
						c-0.179-0.326-0.519-0.521-0.878-0.521c-0.063,0-0.129,0.006-0.193,0.019c-0.082,0.012-0.157,0.028-0.224,0.049
						c-0.469,0.151-0.758,0.621-0.682,1.107c0.007,0.039,0.015,0.078,0.025,0.115h-0.937c-0.029,0-0.06,0.001-0.089,0.004
						c-0.205,0.019-0.411,0.027-0.636,0.037c-0.097,0.004-0.189,0.023-0.276,0.055c-0.042,0.008-0.084,0.018-0.123,0.028
						c-0.043,0.013-0.085,0.025-0.127,0.039c-0.223,0.018-0.458,0.035-0.701,0.06c-0.092,0.007-0.187,0.026-0.282,0.057
						c-0.045,0.011-0.088,0.023-0.131,0.038c-0.083,0.018-0.162,0.042-0.236,0.075c-0.09,0.02-0.17,0.048-0.241,0.082
						c-0.016,0.005-0.029,0.01-0.044,0.015c-0.028,0.006-0.057,0.013-0.084,0.021c-0.112,0.033-0.206,0.075-0.277,0.111
						c-0.024,0.009-0.051,0.019-0.082,0.029c-0.11,0.032-0.213,0.083-0.303,0.147c-0.038,0.019-0.075,0.039-0.111,0.062
						c-0.011,0.006-0.021,0.012-0.031,0.018c-0.121,0.04-0.231,0.103-0.328,0.184c-0.086,0.061-0.163,0.134-0.226,0.218
						c-0.064,0.055-0.121,0.118-0.171,0.187l-0.041,0.041c-0.006,0.006-0.04,0.041-0.046,0.047
						c-0.011,0.011-0.021,0.021-0.031,0.032c-0.055,0.035-0.107,0.071-0.16,0.108c-0.19,0.135-0.325,0.33-0.386,0.55
						c-0.178,0.135-0.305,0.325-0.361,0.538c-0.084,0.106-0.146,0.229-0.181,0.358c-0.138,0.175-0.215,0.393-0.215,0.62v0.856
						c-0.016-0.002-0.031-0.003-0.046-0.004c-0.099-0.006-0.197-0.01-0.295-0.013c-0.07-0.002-0.14-0.004-0.208-0.008
						c-0.018-0.001-0.034-0.002-0.052-0.002c-0.237,0-0.467,0.098-0.648,0.251l-0.035,0.021c-0.064,0.037-0.123,0.08-0.177,0.129
						c-0.146,0.082-0.266,0.198-0.353,0.335c-0.049-0.001-0.099-0.003-0.148-0.005c-0.398-0.011-0.799-0.011-1.197-0.011
						c-0.073,0-0.145,0.008-0.213,0.022c-0.016-0.021-0.027-0.037-0.033-0.044c-0.006-0.008-0.013-0.018-0.02-0.027
						c-0.087-0.276-0.292-0.508-0.567-0.623c-0.003-0.002-0.007-0.003-0.01-0.005c-0.097-0.104-0.216-0.189-0.35-0.245
						c-0.061-0.025-0.116-0.047-0.206-0.08c-0.055-0.021-0.112-0.037-0.17-0.049c-0.064-0.143-0.162-0.271-0.288-0.37
						c-0.179-0.144-0.399-0.219-0.624-0.219c-0.074,0-0.148,0.008-0.221,0.024c-0.21,0.048-0.388,0.131-0.505,0.197l-0.133,0.068
						l-0.126,0.064c-0.139,0.069-0.257,0.168-0.348,0.287c-0.151,0.032-0.289,0.078-0.413,0.12
						c-0.058,0.019-0.114,0.044-0.168,0.073c-0.001,0-0.003,0.001-0.004,0.001c0,0,0,0,0,0c0,0,0,0-0.001,0.001h-0.002
						c-0.178,0.05-0.318,0.12-0.423,0.179c-0.004,0.002-0.021,0.013-0.037,0.021c-0.087,0.026-0.174,0.055-0.264,0.085
						c-0.104,0.034-0.2,0.085-0.285,0.148c-0.047,0.018-0.094,0.036-0.143,0.057c-0.078,0.032-0.151,0.074-0.216,0.123
						c-0.047,0.018-0.094,0.036-0.143,0.056c-0.063,0.025-0.121,0.058-0.175,0.094c-0.026,0.007-0.052,0.014-0.079,0.021
						l-0.051,0.014c-0.12,0.031-0.229,0.083-0.329,0.156c-0.021,0.013-0.05,0.031-0.084,0.057c-0.019,0.012-0.04,0.025-0.066,0.038
						c-0.042,0.021-0.083,0.045-0.121,0.071c-0.058,0.017-0.117,0.034-0.178,0.054c-0.048,0.017-0.095,0.036-0.14,0.06
						c-0.02,0.01-0.042,0.021-0.069,0.037c-0.097,0.027-0.205,0.062-0.319,0.108c-0.08,0.033-0.153,0.076-0.22,0.126
						c-0.046,0.017-0.092,0.035-0.139,0.055c-0.06,0.025-0.117,0.055-0.169,0.09c-0.052,0.014-0.103,0.028-0.153,0.042
						c-0.086,0.025-0.168,0.061-0.244,0.107c-0.003,0.001-0.005,0.003-0.008,0.005c-0.101,0.027-0.193,0.06-0.275,0.09
						c-0.175,0.063-0.324,0.173-0.436,0.312c-0.039,0.028-0.075,0.059-0.109,0.092c-0.014,0.008-0.029,0.016-0.043,0.024
						c-0.006,0.004-0.013,0.007-0.019,0.011c-0.106,0.03-0.216,0.068-0.333,0.117c-0.079,0.033-0.152,0.074-0.218,0.124
						c-0.047,0.018-0.095,0.036-0.143,0.057c-0.111,0.046-0.21,0.11-0.295,0.189c-0.034,0.018-0.066,0.036-0.097,0.054
						c-0.01,0.005-0.02,0.011-0.031,0.018c-0.102,0.04-0.186,0.082-0.252,0.118c-0.041,0.019-0.08,0.04-0.118,0.063
						c-0.091,0.034-0.188,0.079-0.288,0.14c-0.057,0.03-0.102,0.06-0.134,0.082c-0.092,0.05-0.173,0.105-0.249,0.161
						c-0.004,0.003-0.008,0.006-0.013,0.01c-0.046,0.017-0.094,0.035-0.142,0.055c-0.076,0.031-0.146,0.071-0.21,0.119l-0.061,0.019
						c-0.12,0.037-0.229,0.096-0.323,0.169c-0.025,0.01-0.05,0.019-0.075,0.027c-0.066,0.024-0.129,0.055-0.187,0.091
						c-0.088,0.019-0.177,0.039-0.269,0.063c-0.165,0.044-0.311,0.128-0.429,0.239c-0.018,0.011-0.037,0.021-0.055,0.033
						c-0.005,0.003-0.011,0.005-0.016,0.008c-0.104,0.028-0.197,0.06-0.279,0.087c-0.109,0.036-0.209,0.091-0.297,0.158
						c-0.021,0.008-0.042,0.015-0.063,0.021c-0.11,0.036-0.211,0.091-0.299,0.16c-0.021,0.007-0.041,0.014-0.062,0.021
						c-0.089,0.029-0.171,0.071-0.246,0.122c-0.057,0.013-0.114,0.024-0.173,0.037c-0.151,0.032-0.289,0.097-0.405,0.187
						c-0.028,0.01-0.056,0.02-0.083,0.029c-0.103,0.037-0.197,0.089-0.281,0.154c-0.021,0.007-0.041,0.014-0.062,0.021
						c-0.104,0.035-0.199,0.085-0.283,0.148c-0.047,0.018-0.094,0.035-0.143,0.056c-0.079,0.033-0.152,0.075-0.218,0.125
						c-0.046,0.017-0.094,0.035-0.142,0.055c-0.116,0.048-0.22,0.116-0.307,0.2c-0.012,0.007-0.024,0.014-0.036,0.021
						c-0.014,0.007-0.028,0.015-0.043,0.022c-0.108,0.03-0.219,0.069-0.335,0.118c-0.074,0.03-0.143,0.069-0.206,0.115
						c-0.029,0.01-0.058,0.02-0.086,0.029c-0.077,0.025-0.149,0.06-0.216,0.102c-0.08,0.017-0.163,0.034-0.25,0.056
						c-0.118,0.03-0.228,0.08-0.324,0.146c-0.065,0.019-0.125,0.038-0.179,0.056c-0.042,0.015-0.083,0.031-0.123,0.051
						c-0.015,0.007-0.029,0.015-0.043,0.021c-0.12,0.027-0.229,0.059-0.323,0.085c-0.079,0.023-0.179,0.069-0.252,0.112
						c-0.096,0.026-0.183,0.056-0.26,0.081c-0.031,0.011-0.062,0.022-0.091,0.035c-0.176,0.021-0.337,0.087-0.472,0.186
						c-0.167-0.122-0.372-0.192-0.59-0.192h-0.22c-0.354,0-0.676,0.187-0.854,0.48c-0.013-0.005-0.025-0.01-0.038-0.014
						c-0.059-0.031-0.122-0.057-0.188-0.076V25.77c0-0.168-0.039-0.329-0.11-0.476V24.95c0-0.148-0.033-0.293-0.095-0.425
						c-0.013-0.034-0.028-0.068-0.045-0.102V23.78c0-0.122-0.02-0.239-0.057-0.351c-0.004-0.022-0.008-0.045-0.013-0.067V22.28
						c0-0.159-0.037-0.315-0.106-0.46c-0.013-0.035-0.027-0.069-0.043-0.102V20.34c0-0.159-0.038-0.315-0.11-0.456V18.84
						c0-0.152-0.035-0.301-0.1-0.436c0.073-0.025,0.143-0.06,0.21-0.102c0.292-0.183,0.47-0.518,0.47-0.862
						c0-0.467-0.349-0.859-0.79-0.969v-0.001c0-0.126-0.023-0.25-0.07-0.367c-0.013-0.032-0.026-0.063-0.04-0.091v-0.214
						c0.094-0.048,0.18-0.11,0.256-0.186c0.125-0.097,0.228-0.222,0.296-0.363c0.004-0.008,0.008-0.017,0.013-0.026
						c0.09-0.05,0.171-0.114,0.242-0.188c0.165-0.13,0.287-0.311,0.345-0.518C2.621,14.57,2.756,14.6,2.895,14.6h0.11
						c0.046,0,0.092-0.003,0.138-0.01c0.084-0.012,0.172-0.026,0.26-0.042l0.177-0.029c0.076-0.011,0.15-0.03,0.221-0.059h0.663
						c0.06,0.013,0.12,0.02,0.182,0.021c0.394,0.008,0.776,0.009,1.155,0.01c0.108,0.049,0.225,0.079,0.345,0.088
						c0.135,0.009,0.271,0.018,0.399,0.021c0.098,0.014,0.197,0.024,0.297,0.031c0.123,0.053,0.256,0.08,0.393,0.08h0.72
						c0.127,0,0.251-0.024,0.368-0.07c0.598-0.003,1.135-0.017,1.602-0.04h0.11c0.098,0,0.209-0.02,0.308-0.05
						c0.353-0.006,0.66-0.194,0.833-0.475c0.07-0.012,0.137-0.031,0.201-0.057c0.063-0.004,0.125-0.014,0.185-0.028h0.263
						c0.102,0,0.2-0.014,0.292-0.04h0.108c0.056,0,0.113-0.005,0.168-0.015c0.068-0.012,0.142-0.016,0.222-0.016
						c0.136,0,0.27-0.027,0.392-0.08h0.038c0.091,0,0.181-0.011,0.268-0.033c0.071-0.006,0.14-0.018,0.207-0.037h0.175
						c0.046,0,0.092-0.003,0.138-0.01c0.095-0.013,0.197-0.02,0.292-0.02c0.128,0,0.253-0.024,0.368-0.07h0.242
						c0.073,0,0.144-0.009,0.212-0.024c0.185,0.01,0.374,0.018,0.578,0.024h0.14c0.07,0,0.14-0.008,0.208-0.021
						c0.134-0.004,0.268-0.011,0.402-0.019h0.08c0.093,0,0.187-0.017,0.277-0.046c0.007-0.001,0.015-0.002,0.022-0.003
						c0.102-0.013,0.189-0.021,0.271-0.021h0.29c0.097,0,0.192-0.014,0.283-0.041h0.107c0.096,0,0.181-0.012,0.258-0.029h0.102
						c0.262,0,0.481-0.013,0.683-0.04h0.077c0.082,0,0.162-0.011,0.24-0.03h0.01c0.098,0,0.192-0.014,0.281-0.04h0.069
						c0.084,0,0.18-0.016,0.27-0.04h0.24c0.09,0,0.182-0.01,0.274-0.029h0.156c0.11,0,0.218-0.014,0.323-0.042
						c0.077-0.003,0.148-0.014,0.212-0.028h0.035c0.096,0,0.19-0.014,0.28-0.04h0.08c0.083,0,0.165-0.01,0.244-0.03h0.226
						c0.114,0,0.216-0.018,0.302-0.04h0.128c0.234,0,0.445-0.013,0.643-0.04h0.037c0.085,0,0.169-0.01,0.251-0.029
						c0.086-0.003,0.171-0.017,0.252-0.041c0.05,0,0.1-0.004,0.149-0.012c0.131,0.135,0.3,0.232,0.49,0.277
						c0.017,0.006,0.034,0.011,0.052,0.016c0.135,0.084,0.291,0.137,0.459,0.147c0.086,0.024,0.173,0.035,0.269,0.035
						c0.087,0.023,0.177,0.036,0.268,0.036h0.391c0.075,0,0.177-0.015,0.254-0.032c0.149-0.011,0.295-0.056,0.424-0.13
						c0.02-0.006,0.038-0.013,0.055-0.019c0.004-0.001,0.008-0.002,0.012-0.004c0.087-0.008,0.171-0.027,0.252-0.057
						c0.04-0.01,0.079-0.021,0.116-0.034c0.076-0.019,0.149-0.046,0.219-0.081c0.004-0.002,0.008-0.004,0.012-0.005
						c0.046-0.007,0.091-0.018,0.135-0.03c0.179-0.012,0.346-0.071,0.487-0.166c0.055-0.013,0.108-0.031,0.16-0.054h0.001
						c0.134-0.021,0.258-0.07,0.368-0.142c0.004-0.002,0.008-0.004,0.012-0.006l0.007-0.002c0.062-0.009,0.123-0.023,0.182-0.044
						c0.1-0.023,0.194-0.063,0.28-0.115c0.056-0.015,0.11-0.033,0.162-0.057c0.001,0,0.002,0,0.003-0.001
						c0.104-0.02,0.203-0.057,0.295-0.107c0.049-0.009,0.098-0.021,0.145-0.035c0.137-0.027,0.266-0.084,0.378-0.164
						c0.056-0.015,0.109-0.034,0.162-0.058c0.052-0.02,0.103-0.044,0.15-0.071c0.018-0.006,0.036-0.013,0.054-0.019
						c0.047-0.014,0.095-0.031,0.145-0.054c0.109-0.025,0.215-0.069,0.31-0.13c0.108-0.02,0.212-0.057,0.308-0.109
						c0.052-0.017,0.104-0.036,0.153-0.06c0.03-0.012,0.061-0.026,0.091-0.041c0.015-0.005,0.029-0.01,0.044-0.015
						c0.122-0.025,0.239-0.074,0.346-0.144c0.072-0.016,0.143-0.04,0.21-0.072c0.125-0.03,0.241-0.086,0.344-0.16
						c0.011-0.005,0.021-0.01,0.033-0.015c0.141-0.029,0.271-0.089,0.384-0.171l0.016-0.007c0.082-0.023,0.16-0.057,0.234-0.101
						c0.01-0.005,0.02-0.011,0.029-0.016c0.003-0.002,0.006-0.003,0.009-0.004c0.084-0.017,0.165-0.043,0.242-0.08
						c0.07-0.018,0.139-0.044,0.204-0.077c0.036-0.012,0.071-0.024,0.106-0.039c0.026-0.011,0.052-0.022,0.076-0.036
						c0.063-0.016,0.125-0.038,0.184-0.066c0.067-0.025,0.132-0.059,0.191-0.099c0.033-0.012,0.064-0.024,0.096-0.039
						c0.11-0.027,0.214-0.073,0.307-0.135c0.144-0.028,0.278-0.088,0.396-0.173c0.141-0.023,0.273-0.075,0.391-0.153
						c0.025-0.011,0.048-0.021,0.067-0.03c0.042-0.013,0.082-0.028,0.121-0.046c0.003-0.001,0.005-0.002,0.007-0.003
						c0.143-0.034,0.272-0.1,0.385-0.189c0.015-0.006,0.028-0.012,0.042-0.019c0.089-0.031,0.172-0.074,0.248-0.128
						c0.024-0.01,0.049-0.02,0.072-0.03c0.124-0.033,0.237-0.09,0.338-0.165c0.011-0.006,0.021-0.012,0.032-0.018
						c0.103-0.028,0.198-0.073,0.285-0.132c0.017-0.006,0.032-0.013,0.048-0.02c0.093-0.028,0.181-0.07,0.261-0.124
						c0.03-0.013,0.062-0.026,0.092-0.042c0.004-0.002,0.009-0.004,0.013-0.006c0.136-0.038,0.263-0.105,0.372-0.197
						c0.059-0.027,0.114-0.061,0.167-0.099c0.031-0.017,0.063-0.035,0.092-0.056c0.098-0.038,0.189-0.091,0.271-0.158
						c0.006-0.003,0.012-0.006,0.018-0.01c0.148-0.052,0.28-0.137,0.387-0.247c0.009-0.008,0.018-0.017,0.025-0.024
						c0.228-0.115,0.404-0.315,0.49-0.559c0.033-0.023,0.064-0.05,0.095-0.077C38.482,7.688,38.511,7.659,38.536,7.63 M38.955,6.6
						v0.041c-0.391-0.011-0.79-0.021-1.18-0.041V6.98c-0.121-0.01-0.24-0.021-0.36-0.021v0.5h-0.069V7.5h-0.111v0.029
						c0,0.031-0.01,0.041-0.029,0.041V7.6c-0.03,0-0.04,0.021-0.04,0.041c-0.03,0-0.04,0.01-0.04,0.039h-0.1v0.03
						c-0.03,0.03-0.051,0.04-0.08,0.04l-0.03,0.029c-0.03,0-0.05,0.021-0.069,0.041l-0.041,0.039h-0.109v0.031
						c-0.021,0.029-0.041,0.039-0.07,0.039v0.03c-0.02,0-0.061,0.021-0.1,0.04l-0.041,0.04h-0.039
						c-0.021,0.021-0.041,0.03-0.07,0.03c-0.02,0.02-0.04,0.039-0.07,0.039v0.031L36.266,8.18c-0.021,0-0.061,0.01-0.101,0.03h-0.08
						v0.04c-0.04,0.02-0.09,0.04-0.14,0.04v0.03c-0.021,0-0.051,0.02-0.07,0.039c-0.05,0-0.08,0.011-0.109,0.041h-0.041
						c-0.02,0.02-0.039,0.029-0.07,0.029c-0.02,0.021-0.039,0.041-0.069,0.041V8.5c-0.05,0-0.09,0.02-0.14,0.04h-0.07v0.03
						c-0.029,0.029-0.05,0.039-0.08,0.039c-0.02,0.021-0.04,0.041-0.07,0.041V8.68c-0.05,0-0.09,0.01-0.14,0.041l-0.04,0.029h-0.141
						v0.04c-0.029,0.021-0.049,0.04-0.069,0.04v0.029c-0.03,0-0.06,0.011-0.11,0.041c-0.02,0-0.05,0.01-0.07,0.029h-0.109v0.041
						c0,0.02-0.01,0.029-0.04,0.029v0.04c-0.04,0-0.09,0.01-0.14,0.04c-0.02,0-0.051,0.01-0.07,0.029h-0.109V9.15
						c-0.041,0.02-0.08,0.039-0.11,0.039l-0.03,0.031c-0.02,0-0.05,0.01-0.07,0.039c-0.05,0-0.1,0.01-0.149,0.03h-0.07
						c-0.021,0.03-0.05,0.04-0.069,0.04c-0.021,0.02-0.051,0.029-0.07,0.029V9.4c-0.03,0-0.051,0.01-0.07,0.039
						c-0.05,0-0.1,0.011-0.15,0.031h-0.1V9.51c-0.029,0.02-0.05,0.03-0.08,0.03v0.04c-0.05,0-0.09,0.01-0.14,0.04
						c-0.03,0-0.05,0.01-0.07,0.03h-0.11v0.039c-0.02,0.021-0.049,0.031-0.069,0.031l-0.04,0.039c-0.02,0-0.051,0.01-0.07,0.03
						c-0.05,0-0.09,0.021-0.14,0.04h-0.07v0.04c-0.05,0.021-0.101,0.03-0.149,0.03v0.039c-0.051,0-0.101,0.011-0.141,0.031
						c-0.029,0-0.05,0.02-0.07,0.039h-0.149v0.04c-0.05,0.021-0.091,0.03-0.14,0.03v0.04c-0.03,0-0.051,0.01-0.07,0.03
						c-0.03,0-0.061,0.02-0.11,0.039h-0.069c-0.03,0.021-0.051,0.031-0.07,0.031c-0.03,0.029-0.051,0.039-0.08,0.039v0.051
						c-0.04,0-0.09,0.01-0.141,0.029c-0.02,0-0.049,0.02-0.069,0.04h-0.11v0.04c-0.02,0.02-0.05,0.03-0.07,0.03v0.04
						c-0.049,0-0.1,0.01-0.14,0.029h-0.04l-0.029,0.041h-0.15v0.029c-0.051,0.03-0.08,0.04-0.109,0.04v0.03
						c-0.021,0-0.041,0.02-0.07,0.04c-0.051,0-0.09,0.01-0.141,0.04h-0.039c-0.021,0.02-0.051,0.029-0.07,0.029
						c-0.021,0.021-0.051,0.041-0.07,0.041l-0.04,0.029c-0.04,0-0.09,0.02-0.14,0.04c-0.021,0-0.051,0.011-0.07,0.04h-0.141v0.03
						c-0.049,0.021-0.09,0.04-0.109,0.04l-0.04,0.029c-0.021,0-0.05,0.021-0.069,0.041c-0.051,0-0.08,0.01-0.111,0.029h-0.029
						c-0.03,0.03-0.051,0.04-0.08,0.04c-0.04,0.021-0.09,0.04-0.141,0.04l-0.029,0.03c-0.03,0-0.051,0.01-0.08,0.04
						c-0.02,0-0.04,0.01-0.07,0.029h-0.109c0,0.03-0.01,0.041-0.03,0.041c-0.03,0.02-0.06,0.029-0.11,0.029v0.04
						c-0.02,0-0.05,0.011-0.07,0.04c-0.029,0-0.06,0.01-0.109,0.03h-0.18v0.04c-0.051,0.02-0.08,0.029-0.11,0.029l-0.03,0.041
						c-0.029,0-0.06,0.01-0.109,0.029c-0.021,0-0.061,0.01-0.11,0.04h-0.181v0.04c-0.02,0.02-0.039,0.03-0.069,0.03v0.04
						c-0.04,0-0.08,0.01-0.11,0.029c-0.039,0-0.1,0.021-0.18,0.041h-0.07v0.029c-0.01,0.01-0.02,0.01-0.029,0.01
						c-0.03,0.021-0.07,0.03-0.11,0.03v0.04c-0.05,0-0.09,0.01-0.14,0.03c-0.051,0-0.09,0.01-0.11,0.04h-0.14
						c0,0.02-0.021,0.029-0.041,0.029c-0.02,0.03-0.059,0.041-0.109,0.041v0.029c-0.02,0-0.029,0.02-0.029,0.04h-0.111
						c-0.049,0-0.09,0.011-0.109,0.04h-0.141c0,0.02-0.02,0.03-0.039,0.03c-0.02,0.03-0.061,0.04-0.11,0.04v0.029
						c-0.05,0-0.09,0.021-0.14,0.041c-0.051,0-0.09,0.01-0.11,0.029h-0.14c-0.03,0.03-0.051,0.04-0.07,0.04
						c-0.05,0.021-0.1,0.04-0.15,0.04l-0.029,0.03c-0.03,0-0.051,0.01-0.08,0.04c-0.04,0-0.1,0.01-0.18,0.029h-0.391
						c-0.07-0.02-0.15-0.029-0.25-0.029c-0.07-0.03-0.15-0.04-0.22-0.04v-0.03c-0.021,0-0.04-0.02-0.07-0.04
						c-0.05-0.021-0.11-0.04-0.18-0.04c-0.021-0.02-0.06-0.029-0.101-0.029V12.27l-0.039-0.029V12.2l-0.041-0.03v-0.18h-0.14v-0.04
						c-0.11,0.03-0.22,0.04-0.32,0.04h-0.22c-0.02,0-0.06,0.01-0.11,0.029h-0.25l-0.03,0.041h-0.15
						c-0.02,0.02-0.05,0.029-0.07,0.029h-0.11c-0.19,0.03-0.38,0.04-0.57,0.04h-0.29c-0.05,0.021-0.1,0.04-0.14,0.04h-0.33
						c-0.04,0-0.09,0.01-0.14,0.03h-0.29c-0.02,0-0.05,0.01-0.07,0.04h-0.21c-0.03,0.02-0.05,0.029-0.08,0.029h-0.14
						c-0.05,0.03-0.09,0.041-0.14,0.041h-0.29c-0.05,0.02-0.1,0.029-0.14,0.029h-0.36c-0.05,0-0.1,0.02-0.15,0.04h-0.32
						c-0.02,0-0.03,0.011-0.03,0.04h-0.22c0,0.02-0.01,0.03-0.03,0.03h-0.15c-0.19,0.03-0.39,0.04-0.61,0.04h-0.25
						c-0.05,0.02-0.08,0.029-0.11,0.029h-0.29c-0.04,0-0.08,0.021-0.1,0.041h-0.29c-0.12,0-0.25,0.01-0.4,0.029h-0.14l-0.03,0.04
						h-0.11c-0.18,0.011-0.36,0.021-0.54,0.021c-0.01,0.01-0.02,0.01-0.04,0.02h-0.14c-0.26-0.01-0.52-0.02-0.79-0.04v0.04h-0.5
						c0,0.02-0.02,0.03-0.04,0.03s-0.05,0.01-0.07,0.04c-0.14,0-0.29,0.01-0.43,0.029h-0.4c-0.02,0.03-0.05,0.041-0.07,0.041h-0.11
						c-0.02,0.02-0.04,0.029-0.07,0.029h-0.28c-0.03,0.03-0.05,0.04-0.08,0.04c-0.02,0-0.04,0.011-0.07,0.04
						c-0.14,0-0.27,0.01-0.39,0.03h-0.36c0,0.03-0.01,0.04-0.04,0.04h-0.46c0,0.02-0.01,0.029-0.04,0.029h-0.28v0.041
						c-0.03,0-0.04,0.01-0.04,0.029c-0.07,0-0.15,0.02-0.22,0.04h-0.46v0.42c-0.06,0-0.12,0.011-0.18,0.021
						c-0.03,0-0.06,0.01-0.11,0.029h-0.11c-0.62,0.03-1.24,0.041-1.86,0.041h-0.04l-0.07,0.069h-0.72l-0.07-0.069
						c-0.17,0-0.35-0.011-0.54-0.041c-0.13,0-0.27-0.01-0.41-0.02l-0.02-0.02c-0.01-0.011-0.04-0.031-0.07-0.07
						c-0.48,0-0.96,0-1.46-0.01l-0.01-0.021h-1.19c0,0.021-0.01,0.05-0.03,0.069c-0.14,0.021-0.29,0.051-0.43,0.07h-0.11
						c-0.02-0.05-0.05-0.08-0.07-0.109c-0.03,0-0.05-0.02-0.07-0.07c-0.08-0.02-0.13-0.05-0.18-0.07h-0.07
						c-0.03-0.02-0.07-0.039-0.11-0.039c-0.05-0.021-0.1-0.031-0.15-0.031h-0.35c-0.05,0.021-0.09,0.031-0.11,0.031
						c-0.05,0.049-0.12,0.09-0.22,0.109c-0.07,0.02-0.14,0.051-0.21,0.07h-0.15c-0.02,0.029-0.04,0.05-0.07,0.07
						c-0.05,0.029-0.11,0.049-0.18,0.08c0,0.02-0.02,0.029-0.07,0.029c-0.02,0.03-0.05,0.051-0.07,0.07
						c-0.02,0.05-0.05,0.09-0.07,0.109c-0.03,0.03-0.05,0.051-0.08,0.07c-0.04,0.03-0.08,0.061-0.1,0.109
						c-0.03,0.021-0.05,0.031-0.07,0.031c-0.03,0.049-0.04,0.09-0.04,0.109v0.26h-0.04l-0.03,0.041
						c-0.03,0.02-0.05,0.029-0.07,0.029c-0.03,0.05-0.05,0.09-0.08,0.109c0,0.031-0.01,0.051-0.03,0.07v0.68
						c0.02,0.021,0.03,0.061,0.03,0.111c0.03,0.029,0.05,0.039,0.08,0.039c0.02,0.04,0.03,0.08,0.03,0.1v0.681
						c0.03,0.03,0.04,0.05,0.04,0.069c0.02,0.031,0.05,0.061,0.07,0.111v1.02l0.04,0.069c0.02,0.021,0.04,0.051,0.07,0.07v1.07
						c0,0.02,0.01,0.03,0.03,0.03c0.03,0.05,0.05,0.09,0.07,0.109v1.32c0.03,0.05,0.04,0.08,0.04,0.109
						c0.02,0.021,0.05,0.04,0.07,0.07v1.69c0.02,0.02,0.05,0.06,0.07,0.109c0.03,0,0.04,0.021,0.04,0.07
						c0.02,0.021,0.04,0.05,0.04,0.07v1.25c0.02,0.02,0.03,0.06,0.03,0.109v0.07c0.03,0.021,0.04,0.04,0.04,0.07v0.92
						c0.02,0.02,0.03,0.05,0.03,0.069c0.03,0.051,0.05,0.091,0.08,0.11c0,0.021,0.01,0.05,0.03,0.07v0.569
						c0,0.021,0.01,0.061,0.04,0.11c0,0.021,0.01,0.05,0.03,0.07c0.03,0.02,0.04,0.05,0.04,0.069v0.75
						c0.02,0.04,0.03,0.08,0.03,0.11c0.03,0.021,0.04,0.04,0.04,0.07c0.02,0.02,0.04,0.05,0.04,0.069c0.02,0.04,0.03,0.08,0.03,0.11
						c0,0.021,0.01,0.04,0.04,0.07c0.02,0.02,0.06,0.06,0.11,0.1c0.02,0.03,0.05,0.05,0.07,0.08
						c0.041,0.017,0.082,0.033,0.117,0.033c0.008,0,0.016-0.001,0.023-0.003c0.05,0.02,0.12,0.05,0.22,0.07
						c0,0.02,0.02,0.039,0.07,0.039c0.07,0.021,0.13,0.04,0.18,0.07c0.02,0.021,0.05,0.04,0.07,0.07c0.05,0.02,0.1,0.05,0.14,0.07
						h0.08c0.05,0.02,0.1,0.05,0.18,0.069h0.32c0.07-0.02,0.13-0.05,0.18-0.069c0.05,0,0.09-0.011,0.14-0.04
						c0.03-0.04,0.04-0.08,0.04-0.101l0.03-0.07c0.03-0.029,0.05-0.05,0.08-0.069v-0.11c0.02,0.021,0.04,0.05,0.07,0.07v0.04
						c0.02,0.04,0.04,0.069,0.07,0.069c0.07,0.021,0.13,0.04,0.18,0.07h0.14c0.05-0.03,0.1-0.05,0.15-0.07h0.14
						c0.05,0.021,0.1,0.04,0.14,0.07h0.11c0.05-0.03,0.08-0.04,0.11-0.04c0-0.02,0.01-0.03,0.03-0.03l0.04-0.039
						c0.02-0.021,0.05-0.061,0.07-0.11v-0.24c0.05-0.005,0.098-0.007,0.145-0.007s0.095,0.002,0.145,0.007V26.8
						c0.12-0.04,0.24-0.08,0.36-0.1c0.02-0.03,0.06-0.05,0.11-0.08c0.14-0.04,0.28-0.08,0.43-0.101c0.02-0.02,0.06-0.05,0.1-0.069
						c0.15-0.05,0.29-0.09,0.43-0.11v-0.07c0.2-0.05,0.38-0.079,0.54-0.109v-0.07c0.12-0.04,0.24-0.08,0.36-0.109V25.92
						c0.12-0.05,0.24-0.09,0.36-0.11c0.02-0.029,0.06-0.05,0.11-0.069c0.07-0.05,0.15-0.09,0.25-0.11v-0.07
						c0.12-0.05,0.24-0.09,0.36-0.109v-0.07c0.12-0.05,0.24-0.09,0.36-0.11V25.2c0.12-0.04,0.24-0.08,0.36-0.11v-0.07
						c0.11-0.039,0.23-0.079,0.36-0.1v-0.08c0.19-0.04,0.37-0.08,0.53-0.12V24.65c0.12-0.04,0.24-0.08,0.36-0.11v-0.07
						c0.12-0.04,0.24-0.08,0.36-0.1v-0.08c0.12-0.04,0.24-0.08,0.36-0.1c0.02-0.021,0.06-0.051,0.11-0.07
						c0.07-0.05,0.15-0.09,0.25-0.11V23.94c0.19-0.051,0.37-0.08,0.54-0.11v-0.07c0.11-0.04,0.23-0.08,0.35-0.109v-0.07
						c0.13-0.04,0.24-0.08,0.36-0.1v-0.07c0.12-0.05,0.24-0.09,0.36-0.11V23.23c0.07-0.051,0.13-0.091,0.18-0.11
						c0.03-0.021,0.06-0.05,0.11-0.07c0.07-0.05,0.15-0.08,0.25-0.109c0.02-0.021,0.06-0.051,0.11-0.07
						c0.07-0.04,0.15-0.08,0.25-0.11c0.02-0.02,0.06-0.04,0.11-0.069c0.07-0.04,0.15-0.08,0.25-0.101v-0.07
						c0.12-0.05,0.24-0.09,0.36-0.109v-0.07c0.12-0.05,0.24-0.09,0.36-0.109c0.02-0.021,0.06-0.051,0.1-0.07
						c0.08-0.05,0.16-0.08,0.25-0.11V21.98c0.08-0.051,0.14-0.08,0.19-0.11V21.8c0.11-0.04,0.23-0.08,0.35-0.1
						c0.03-0.03,0.06-0.05,0.11-0.08c0.14-0.04,0.29-0.08,0.43-0.101V21.45c0.12-0.05,0.24-0.09,0.36-0.11v-0.07
						c0.12-0.05,0.24-0.079,0.36-0.109c0.02-0.021,0.06-0.05,0.1-0.07c0.15-0.05,0.29-0.08,0.43-0.109v-0.07
						c0.08-0.04,0.14-0.08,0.19-0.11c0.02-0.02,0.06-0.04,0.1-0.069c0.15-0.04,0.29-0.08,0.43-0.101v-0.07
						c0.12-0.05,0.24-0.09,0.36-0.109v-0.07c0.12-0.05,0.24-0.09,0.36-0.11V20.2c0.12-0.04,0.24-0.08,0.36-0.11
						c0.02-0.02,0.06-0.04,0.11-0.07c0.07-0.039,0.15-0.079,0.25-0.1c0.07-0.03,0.13-0.05,0.18-0.08c0.12-0.04,0.24-0.08,0.35-0.1
						c0.1-0.03,0.2-0.05,0.29-0.07c0.07-0.05,0.16-0.1,0.25-0.15v-0.14c0.1-0.05,0.19-0.1,0.29-0.149
						c0.07-0.04,0.16-0.08,0.25-0.101v0.39c0.03,0.021,0.05,0.061,0.07,0.11c0.03,0.021,0.05,0.04,0.08,0.07
						c0.07,0,0.13,0.01,0.17,0.03c0.08-0.021,0.14-0.03,0.19-0.03h0.21c0.05,0.02,0.11,0.04,0.18,0.069
						c0.02,0.04,0.05,0.08,0.07,0.101c0.02,0,0.05,0.03,0.07,0.08c0.07,0.02,0.15,0.04,0.22,0.069v0.03c0,0.03,0.01,0.05,0.03,0.07
						c0,0.05,0.02,0.09,0.04,0.11c0.02,0.02,0.05,0.05,0.07,0.069c0.02,0.03,0.05,0.061,0.07,0.11c0.03,0.02,0.04,0.05,0.04,0.07
						c0,0.02,0.02,0.05,0.07,0.069c0.02,0.021,0.06,0.061,0.11,0.11v0.07c0.02,0.02,0.03,0.05,0.03,0.069
						c0.03,0.05,0.05,0.07,0.08,0.07v0.36c0.02,0.05,0.04,0.069,0.07,0.069c0.02,0.021,0.05,0.061,0.07,0.11
						c0.05,0.02,0.08,0.04,0.11,0.06c0.07,0,0.14,0.021,0.21,0.04h0.14c0.05,0,0.09-0.01,0.11-0.04h0.08
						c0.02,0,0.039-0.01,0.069-0.029c0-0.051,0.011-0.08,0.03-0.11c0-0.021,0.02-0.04,0.04-0.07v-0.1l-0.04-0.04v-0.04
						c0-0.021-0.01-0.04-0.03-0.07c-0.05-0.04-0.09-0.08-0.11-0.1c-0.02-0.03-0.049-0.05-0.069-0.08V20.77c0.39,0,0.78,0,1.17,0.011
						c0.271,0.01,0.56,0.01,0.84,0.02V20.73c0.07-0.04,0.13-0.08,0.181-0.11v-0.3c0.06-0.03,0.119-0.04,0.18-0.061V20.19
						c0.07-0.04,0.13-0.08,0.18-0.101v-0.04c0.16,0.01,0.33,0.01,0.5,0.021v0.02c0,0.04,0.01,0.08,0.04,0.101
						c0.021,0.02,0.04,0.06,0.069,0.109c0.07,0,0.141,0.01,0.211,0.03h0.07c0.069-0.021,0.129-0.03,0.18-0.03l0.07-0.03
						c0.029-0.029,0.049-0.06,0.08-0.109c0-0.03,0.01-0.05,0.029-0.07c0.03-0.005,0.061-0.008,0.09-0.008
						c0.03,0,0.061,0.003,0.09,0.008l0.041-0.04c0.049-0.02,0.08-0.06,0.109-0.109c0-0.04,0.01-0.08,0.029-0.101v-1.62
						c0.07-0.05,0.141-0.09,0.181-0.109v-0.25c0.069-0.051,0.13-0.08,0.181-0.11V17.5c0.069-0.04,0.129-0.08,0.18-0.1v-0.07
						c0.07-0.05,0.13-0.09,0.18-0.11v-0.25c0.07-0.05,0.141-0.1,0.221-0.14c0.039-0.05,0.09-0.1,0.139-0.15
						c0.051-0.05,0.101-0.1,0.141-0.14V16.5h0.04l0.11-0.109c0-0.011,0.01-0.031,0.02-0.051c0.02-0.01,0.04-0.01,0.051-0.02v-0.03
						c0.049,0,0.09-0.021,0.139-0.04c0.031-0.02,0.061-0.05,0.111-0.07c0.02-0.02,0.059-0.039,0.109-0.039
						c0.05-0.021,0.07-0.051,0.07-0.07c0.07-0.021,0.14-0.051,0.209-0.07c0.031-0.02,0.08-0.05,0.15-0.07
						c0.04,0,0.09-0.01,0.141-0.039c0.02,0,0.06-0.011,0.109-0.031c0.02-0.029,0.07-0.039,0.141-0.039
						c0.02-0.021,0.05-0.03,0.07-0.03c0.029-0.03,0.069-0.04,0.149-0.04c0.021-0.02,0.06-0.04,0.101-0.04
						c0.049-0.021,0.09-0.03,0.109-0.03c0.29-0.029,0.57-0.05,0.83-0.07c0.07-0.029,0.14-0.049,0.21-0.069h0.149V15.5
						c0.221-0.01,0.451-0.02,0.681-0.04h1.26c0.06,0.021,0.11,0.04,0.17,0.04h0.04v0.04l0.04,0.04v0.029
						c0.021,0,0.03,0.011,0.03,0.041h0.039v0.209l0.031,0.041v0.029c0.029,0,0.039,0.01,0.039,0.041V16l0.07,0.08
						c0.02,0,0.04,0.01,0.04,0.029c0.021,0,0.03,0.011,0.03,0.041v0.029h0.039v0.041l0.041,0.029c0,0.029,0.01,0.04,0.029,0.04v0.04
						l0.041,0.029V16.4c0,0.02,0.01,0.039,0.029,0.039v0.031c0.03,0,0.04,0.01,0.04,0.039l0.04,0.03c0.02,0,0.04,0.02,0.07,0.04
						v0.07c0.02,0,0.029,0.01,0.029,0.04v0.029l0.07,0.07c0,0.02,0.02,0.04,0.04,0.04v0.03l0.22,0.22v0.04l0.03,0.03v0.069
						c0.03,0,0.04,0.011,0.04,0.04c0.02,0.021,0.05,0.03,0.07,0.03l0.039,0.04c0,0.02,0.011,0.04,0.031,0.04v0.03l0.039,0.029v0.04
						c0.021,0,0.061,0.011,0.11,0.04v0.07l0.069,0.07c0.041,0.02,0.08,0.04,0.101,0.04h0.62c0.01,0.01,0.02,0.02,0.029,0.029
						c0.011-0.01,0.021-0.02,0.041-0.029v-0.15l-0.041-0.03c-0.01-0.02-0.02-0.029-0.029-0.04v-0.29c0-0.01,0-0.02-0.01-0.02
						c0.011-0.003,0.021-0.004,0.031-0.004c0.029,0,0.057,0.009,0.078,0.023v0.04c0.03,0.021,0.051,0.03,0.07,0.03
						c0.029,0.03,0.061,0.04,0.109,0.04c0.051,0.02,0.101,0.04,0.15,0.04h0.82c0.29,0,0.57-0.021,0.859-0.04
						c0.051,0,0.101-0.01,0.15-0.04h0.21v-0.07c0.101,0,0.181-0.01,0.25-0.029c0.101,0,0.181-0.011,0.25-0.04
						c0.03,0,0.05-0.011,0.07-0.03h0.11v-0.07c0.029,0,0.039-0.02,0.039-0.04h0.211V16.9l0.039-0.051c0-0.02,0.01-0.04,0.041-0.04
						c0.02,0,0.029-0.01,0.029-0.029c0.02,0,0.051-0.011,0.07-0.04v-0.03h0.109v-0.07c0.021,0,0.051-0.02,0.07-0.04
						c0.03,0,0.061-0.01,0.11-0.029v-0.08l0.069-0.07c0.03,0,0.061-0.01,0.11-0.029v-0.07l0.11-0.11c0.02,0,0.05-0.01,0.07-0.04
						h0.029v-0.029l0.04-0.041c0.021,0,0.06-0.01,0.11-0.039v-0.031l0.029-0.039v-0.03l0.07-0.069c0.03,0,0.051-0.021,0.08-0.041
						l0.03-0.039c0.12,0,0.239-0.011,0.36-0.031V15.74c0.029,0,0.039-0.01,0.039-0.03c0.021,0,0.051-0.021,0.07-0.04
						c0.02,0,0.04-0.01,0.04-0.029h0.03c0.029-0.031,0.05-0.041,0.07-0.041c0-0.02,0.02-0.029,0.039-0.029
						c0.021-0.03,0.051-0.041,0.07-0.041c0-0.02,0.01-0.039,0.04-0.039c0-0.02,0.011-0.03,0.03-0.03v-0.01
						c0.01-0.021,0.02-0.03,0.039-0.03c0-0.02,0.011-0.029,0.031-0.029c0.029,0,0.039-0.021,0.039-0.041
						c0.021,0,0.061-0.01,0.11-0.039h0.04c0.01-0.021,0.029-0.031,0.05-0.031h0.021l0.029-0.039l0.07-0.03v-0.04h0.04l0.04-0.029
						c0.02,0,0.061-0.021,0.109-0.041h0.031c0.029-0.02,0.049-0.039,0.069-0.039l0.04-0.031c0.02,0,0.04-0.01,0.04-0.039
						c0.021,0,0.03-0.01,0.03-0.03c0.029,0,0.05-0.01,0.08-0.04l0.1-0.109c0.029,0,0.04-0.011,0.04-0.031
						c0.021,0,0.05-0.01,0.069-0.02v0.09c0.141,0.021,0.271,0.051,0.391,0.07c0.05,0.051,0.09,0.08,0.109,0.109
						c0.791,0,1.58,0.011,2.371,0.031v-0.07h0.27c2.439-0.03,4.87-0.051,7.3-0.07c0.05,0.051,0.08,0.1,0.11,0.141
						c0,0.049,0.01,0.1,0.04,0.149c0.09,0.05,0.189,0.101,0.28,0.14c0.029,0.03,0.06,0.061,0.109,0.11s0.08,0.101,0.11,0.14
						c0,0.051,0.01,0.101,0.03,0.15c0.069,0.02,0.14,0.05,0.18,0.07v0.109c0.12,0.021,0.24,0.051,0.359,0.07v0.109
						c0.07,0.021,0.131,0.051,0.181,0.07v0.11c0.12,0.021,0.24,0.04,0.359,0.06v0.11c0.141,0.03,0.271,0.05,0.391,0.07l0.109,0.109
						c0.381,0.03,0.771,0.051,1.15,0.07c0.04,0.05,0.08,0.09,0.1,0.11c0.721,0,1.45,0.01,2.19,0.029c0.03-0.02,0.06-0.04,0.11-0.069
						c0.55-0.04,1.109-0.08,1.689-0.101c0.021-0.029,0.061-0.05,0.101-0.069c0.439-0.051,0.88-0.091,1.33-0.11v-0.07
						c0.479-0.05,0.96-0.09,1.439-0.109v-0.07c0.43-0.05,0.85-0.08,1.25-0.109c0.03-0.021,0.061-0.051,0.11-0.07
						c0.43-0.051,0.88-0.08,1.33-0.11c0.02-0.021,0.06-0.04,0.109-0.069c0.55-0.051,1.11-0.08,1.681-0.111V15.71
						c0.56-0.04,1.09-0.08,1.619-0.11v-0.06c0.12-0.021,0.23-0.03,0.341-0.04h10.1c0.07,0,0.13-0.01,0.18-0.04h0.04
						c0.021-0.021,0.051-0.04,0.07-0.069c0.49,0.01,0.98,0.02,1.47,0.039c0.03-0.029,0.061-0.05,0.11-0.08
						c0.62-0.039,1.24-0.08,1.87-0.1c0.02-0.02,0.05-0.05,0.1-0.07c0.19-0.05,0.4-0.09,0.61-0.109V15c0.24-0.05,0.479-0.1,0.72-0.15
						V14.82h0.36c0.05,0,0.1-0.01,0.14-0.041l0.04-0.029c0.021,0,0.05-0.02,0.07-0.04c0.029-0.021,0.05-0.04,0.069-0.04
						c0.03,0,0.051-0.01,0.07-0.029c0-0.051,0.021-0.08,0.04-0.111c0.021-0.02,0.04-0.049,0.04-0.069v-0.11h0.96v-0.18h0.36v-2.12
						c-0.061-0.01-0.12-0.01-0.181-0.01V11.5c0.04-0.01,0.07-0.02,0.11-0.02c0-0.051,0.01-0.101,0.04-0.15
						c0.01-0.01,0.03-0.03,0.05-0.051c0.17,0.011,0.34,0.011,0.521,0.021V11.23h0.14V11.21c0.4-0.03,0.79-0.05,1.19-0.069v0.09
						h0.029v-0.09c0.15-0.011,0.29-0.021,0.431-0.021c0.029-0.03,0.06-0.05,0.109-0.07c3.11,0,6.23,0,9.351,0.011l0.02-0.011v-0.11
						c-0.03-0.02-0.05-0.049-0.07-0.069c-0.029-0.03-0.039-0.05-0.039-0.07l-0.021-0.04h0.521V9.9
						c0.029-0.021,0.05-0.051,0.069-0.07c0.03-0.03,0.04-0.051,0.04-0.07V9.471l-0.04-0.041c0-0.039-0.01-0.08-0.03-0.1
						c-0.02-0.03-0.029-0.04-0.039-0.061V8.65h-0.07c0.01-0.041,0.02-0.061,0.04-0.08c0-0.021,0.01-0.061,0.03-0.11V8.391
						c0-0.021-0.011-0.051-0.03-0.07c0-0.051-0.021-0.07-0.04-0.07c-0.021-0.05-0.05-0.08-0.07-0.109
						c-0.07-0.021-0.13-0.051-0.18-0.07h-0.07v0.039h-0.04c-0.02-0.029-0.05-0.039-0.069-0.039c-0.051-0.021-0.11-0.03-0.181-0.03
						h-1.649V7.32c-0.021-0.051-0.03-0.1-0.03-0.15c-0.03-0.04-0.07-0.09-0.12-0.141c-0.78,0-1.57-0.01-2.36-0.029v0.1
						c-0.05,0.03-0.109,0.061-0.18,0.11v0.74c-0.17-0.011-0.34-0.021-0.5-0.021c-0.03-0.029-0.05-0.05-0.08-0.07
						c-0.3-0.01-0.59-0.02-0.89-0.039v0.14c0.02,0.03,0.05,0.05,0.069,0.08h-37.54l-0.029,0.03V8.04c-0.05-0.05-0.09-0.09-0.11-0.11
						h-0.07v-0.07c0-0.029-0.02-0.06-0.04-0.109h-1.25c-0.029-0.05-0.05-0.09-0.079-0.109c0-0.051-0.011-0.08-0.03-0.111h-0.4V7.5
						h-0.89v0.029h-0.33V7.5h-0.43v0.029h-1.25V7.5h-0.431v0.029h-0.26V7.5h-0.43v0.029h-0.1V7.5h-0.471v0.029h-2.189L47.395,7.5
						V7.48h-0.43V7.5c0.02,0,0.04,0.01,0.07,0.029h-0.221V7.48c-2.17-0.01-4.35-0.01-6.529-0.021V7.1c0-0.02-0.01-0.029-0.03-0.029
						V7.029h-0.399V7h-0.291V6.641h-0.069C39.325,6.63,39.145,6.62,38.955,6.6L38.955,6.6z M34.975,14.189
						c0.03-0.01,0.07-0.01,0.11-0.02l-0.021,0.02H34.975L34.975,14.189z M1.275,14.35c0.04-0.029,0.06-0.05,0.08-0.07
						c0.04-0.02,0.1-0.049,0.18-0.069l0.01-0.021c-0.01,0.021-0.01,0.041-0.01,0.061c-0.05,0-0.09,0.01-0.11,0.029v0.07H1.275
						L1.275,14.35z M1.175,14.5v-0.04c0.02-0.021,0.05-0.05,0.07-0.069v0.069C1.225,14.471,1.195,14.48,1.175,14.5L1.175,14.5z
						 M40.105,14.5c-0.141,0-0.28-0.01-0.431-0.01c0.15-0.01,0.29-0.01,0.431-0.01V14.5L40.105,14.5z M1.065,14.641L1.065,14.641
						L1.065,14.641v0.029l-0.01,0.01C1.065,14.66,1.065,14.65,1.065,14.641L1.065,14.641z M0.885,14.92v-0.1l0.04-0.041
						c0.02,0,0.03-0.01,0.03-0.029c0.03,0,0.05-0.02,0.07-0.04c0.01-0.01,0.02-0.01,0.02-0.01c-0.01,0.04-0.03,0.079-0.05,0.12
						C0.945,14.84,0.915,14.88,0.885,14.92L0.885,14.92z M36.625,16.07v-0.68c-0.02,0-0.029-0.011-0.029-0.031
						c0.02,0,0.049-0.02,0.069-0.039V15c0.94,0.01,1.89,0.02,2.83,0.04v1.36h-0.14v0.039c0,0.021-0.021,0.031-0.041,0.031v0.039
						c-0.02,0-0.06,0.01-0.109,0.03c-0.02,0-0.04,0.02-0.07,0.04c-0.119,0-0.24,0.01-0.359,0.04h-0.141v0.07
						c-0.07,0-0.14,0.01-0.21,0.029c-0.239,0-0.479,0.011-0.72,0.04h-0.18c-0.051-0.029-0.09-0.04-0.11-0.04s-0.05-0.01-0.069-0.029
						v-0.04c-0.051-0.021-0.101-0.03-0.141-0.03c-0.02-0.01-0.03-0.021-0.04-0.021v-0.02c-0.03-0.01-0.06-0.021-0.09-0.021
						c-0.021-0.01-0.04-0.02-0.05-0.02h-0.041v-0.069c-0.049-0.031-0.08-0.041-0.109-0.041c0-0.02-0.01-0.029-0.029-0.029v-0.041
						c-0.031,0-0.041-0.01-0.041-0.029v-0.04c-0.02,0-0.029-0.011-0.029-0.04c-0.03,0-0.051-0.01-0.08-0.029v-0.15H36.625
						L36.625,16.07z M1.245,17.47c-0.02-0.01-0.03-0.02-0.04-0.029h0.04V17.47L1.245,17.47z M3.465,27.12
						c0-0.021-0.01-0.04-0.03-0.07c-0.03-0.04-0.05-0.08-0.07-0.1c0-0.03-0.01-0.05-0.04-0.07h0.22c-0.02,0.01-0.03,0.021-0.04,0.03
						c0,0.03-0.01,0.05-0.04,0.07V27.12L3.465,27.12z"/>
				</g>
			</g>
		</g>
	</g>
</g>
<g>
	<g>
		<g>
			<path fill="#7A4621" d="M58.125,26.044l6.298,5.25l13.854,0.42c4.759-0.56,8.678-1.819,11.756-3.778
				c4.059-5.623,7.589-8.436,10.592-8.436c-2.039-0.813-4.372-0.48-7,1s-5.295-0.02-8-4.5c-2.52-1.679-7.457-0.462-11.5,1.5
				l4.152-6.5l-12.152,4L58.125,26.044z"/>
		</g>
	</g>
</g>
<linearGradient id="SVGID_5_" gradientUnits="userSpaceOnUse" x1="-496.3608" y1="56.7051" x2="-495.3608" y2="57.7067" gradientTransform="matrix(34.4275 0 0 14.2748 17151.2656 -794.4175)">
	<stop  offset="0.6071" style="stop-color:#FFF6DA"/>
	<stop  offset="1" style="stop-color:#D6BB7E"/>
</linearGradient>
<path fill="url(#SVGID_5_)" d="M71.93,14.5h-3.563l-6.882,14.275h3.199l1.06-2.422h2.862l-0.186,2.422h3.059L71.93,14.5z
	 M69.346,18.095l-0.521,6.063h-2.156L69.346,18.095z M85.311,16.77c0-1.481-1.387-2.27-3.994-2.27c-3.229,0-4.709,1.03-5.479,3.68
	l-1.931,6.652c-0.24,0.781-0.287,1.168-0.287,1.529c0,1.566,1.455,2.414,4.155,2.414c1.486,0,2.654-0.256,3.472-0.781
	c0.881-0.584,1.435-1.482,1.86-3.051l0.459-1.62h-3.059l-0.506,1.759c-0.357,1.279-0.811,1.659-1.893,1.659
	c-0.832,0-1.291-0.302-1.291-0.859c0-0.171,0.055-0.459,0.146-0.819l2.055-7.071c0.313-1.05,0.817-1.47,1.821-1.47
	c0.833,0,1.285,0.302,1.285,0.84c0,0.229-0.069,0.519-0.211,1.068l-0.381,1.377h3.059l0.476-1.666
	C85.24,17.57,85.311,17.131,85.311,16.77z M95.912,14.5H87.73l-3.893,14.275h8.414l0.6-2.191h-5.309l1.189-4.468h4.787l0.601-2.158
	h-4.787l0.91-3.3h5.067L95.912,14.5z"/>
</svg>
