<?xml version="1.0" encoding="utf-8"?>
<!-- Generator: Adobe Illustrator 16.0.0, SVG Export Plug-In . SVG Version: 6.00 Build 0)  -->
<!DOCTYPE svg PUBLIC "-//W3C//DTD SVG 1.1//EN" "http://www.w3.org/Graphics/SVG/1.1/DTD/svg11.dtd">
<svg version="1.1" id="图层_1" xmlns="http://www.w3.org/2000/svg" xmlns:xlink="http://www.w3.org/1999/xlink" x="0px" y="0px"
	 width="67.5px" height="32px" viewBox="0 0 67.5 32" enable-background="new 0 0 67.5 32" xml:space="preserve">
<rect fill="none" width="67.5" height="32"/>
<g>
	<g>
		<g>
			<g>
				
					<linearGradient id="SVGID_1_" gradientUnits="userSpaceOnUse" x1="-266.9644" y1="396.1748" x2="-267.9644" y2="395.1748" gradientTransform="matrix(66.434 0 0 -24.505 17790.5332 9707.7813)">
					<stop  offset="0" style="stop-color:#BB925B"/>
					<stop  offset="0.3429" style="stop-color:#FFF6DA"/>
					<stop  offset="0.6571" style="stop-color:#FFF1B1"/>
					<stop  offset="1" style="stop-color:#B38B54"/>
				</linearGradient>
				<path fill="url(#SVGID_1_)" d="M2.081,4.085c0.026,0,0.064,0,0.115,0V4.047h0.039c0.025,0,0.052,0,0.077,0
					c4.986,0,9.974,0,14.96,0c0.334-0.024,0.656-0.038,0.965-0.038c0.025-0.026,0.051-0.051,0.075-0.077c0.052,0,0.091,0,0.117,0
					c0.026,0,0.051,0,0.076,0c0.051,0,0.103,0.013,0.155,0.039c0.026,0.024,0.051,0.052,0.077,0.076c11.849,0,23.687,0,35.51,0
					c0.052,0,0.09,0,0.114,0c0.053,0,0.092,0,0.119,0c0.049,0,0.101,0.013,0.151,0.039c0.026,0.026,0.054,0.052,0.078,0.077
					c0.024,0.026,0.052,0.053,0.076,0.078c0.026,0.025,0.04,0.052,0.04,0.077c0.025,0.025,0.039,0.05,0.039,0.077
					c0.023,0,0.039,0.013,0.039,0.038c0.127,0,0.257,0,0.385,0c0,0.025,0,0.052,0,0.076c0,0.026,0,0.052,0,0.078
					c0,0.025,0,0.052,0,0.077c0,0.026,0,0.052,0,0.077c0,0.026,0,0.052,0,0.077s0,0.051,0,0.076c0,0.026,0,0.053,0,0.078v0.039
					c0,0.025,0,0.052,0,0.077s0,0.053,0,0.078s0,0.051,0,0.076c0,0.026,0,0.051,0,0.077v0.04l0.039,0.038c0,0.025,0,0.051,0,0.077
					c0,0.025,0,0.051,0,0.076c-0.026,0.026-0.038,0.052-0.039,0.078v0.039c0,0.025,0,0.052,0,0.076c0,0.026,0,0.052,0,0.078
					c0,0.025,0,0.052,0,0.077v0.076c-0.053,0-0.104,0-0.154,0c0,0.026,0,0.053,0,0.078c0.026,0,0.064,0,0.115,0
					c0.052,0,0.104,0.012,0.154,0.039l0.037,0.04c0.026-0.026,0.053-0.053,0.078-0.078c0.026,0,0.063,0,0.117,0
					c0.152,0,0.32,0,0.5,0c0.026,0,0.051,0.012,0.077,0.039V6.053c0.052,0,0.103,0.012,0.154,0.039
					c0.024,0.025,0.051,0.052,0.077,0.077c0,0.025,0.013,0.052,0.039,0.077c0,0.025,0.013,0.051,0.037,0.078V6.36
					c0,0.026,0,0.053,0,0.078c0,0.026,0,0.052,0,0.078c0,0.024,0,0.051,0,0.076c0,0.026,0,0.052,0,0.077s0,0.052,0,0.077
					c0,0.026,0,0.051,0,0.077c0,0.026,0,0.052,0,0.078V6.94c0,0.025,0,0.051,0,0.076c3.316,0,6.619,0,9.91,0
					c0.051,0,0.104,0.013,0.153,0.04c0.024,0.025,0.054,0.05,0.078,0.077c0.024,0,0.063,0.012,0.114,0.037
					c0.027,0.025,0.052,0.052,0.078,0.078c0,0.025,0.013,0.052,0.039,0.077c0,0.025,0.015,0.052,0.039,0.077
					c0,0.025,0,0.052,0,0.077v0.039c0,0.024,0,0.052,0,0.077c0,0.025,0,0.051,0,0.077c0,0.025,0,0.051,0,0.076
					c0,0.027,0,0.053,0,0.078c0,0.025,0,0.053,0,0.078c0,0.024,0,0.051,0,0.077c0,0.024,0,0.051,0,0.076v0.039
					c0,0.026,0,0.052,0,0.077c0,0.025,0,0.051,0,0.077s0,0.052,0,0.078c0,0.025,0,0.051,0,0.076c0,0.026,0,0.052,0,0.078
					c0,0.025,0,0.052,0,0.077s0,0.05,0,0.077v0.038c0,0.025,0,0.053,0,0.078s0,0.051,0,0.077c0,0.025,0,0.052,0,0.077
					c0,0.025,0,0.05,0,0.077c0,0.025,0,0.052,0,0.077c-0.024,0.025-0.039,0.051-0.039,0.077c0,0.025,0.015,0.051,0.039,0.077v0.039
					c-0.024,0.026-0.051,0.051-0.076,0.078c0,0.024,0,0.051,0,0.076v0.039c-0.026,0.025-0.053,0.051-0.078,0.077
					c0,0.026,0,0.052,0,0.077L66.74,9.638c-0.026,0.025-0.053,0.039-0.077,0.039S66.6,9.689,66.548,9.716c-1.583,0-3.175,0-4.782,0
					c0,0.026,0,0.052,0,0.078v0.037c0,0.025,0,0.052,0,0.077c0,0.026,0,0.053,0,0.078s0,0.05,0,0.076v0.077h-0.037v0.04
					c-0.025,0-0.053,0.013-0.078,0.039c0,0.024,0,0.05,0,0.077c-0.025,0.025-0.053,0.05-0.078,0.077h-0.038
					c-0.025,0-0.063,0.012-0.115,0.038c-0.052-0.025-0.104-0.038-0.155-0.038c-0.025,0-0.063,0.012-0.115,0.038
					c-1.414,0-2.828,0-4.241,0c-0.027,0.025-0.052,0.039-0.078,0.039c-0.024,0-0.063,0.013-0.116,0.039c-0.025,0-0.051,0-0.076,0
					c-0.025,0.026-0.052,0.052-0.078,0.078l0.039,0.039c0,0.025,0.012,0.052,0.039,0.077c0,0.026,0,0.052,0,0.077
					c-0.025,0.025-0.052,0.038-0.078,0.038c0,0.027,0,0.053,0,0.078c-0.025,0.025-0.039,0.052-0.039,0.077c-0.024,0-0.051,0-0.076,0
					c-0.025,0.025-0.064,0.039-0.116,0.039c-0.025,0-0.063,0-0.115,0c-0.026,0-0.051,0-0.077,0c-0.052,0-0.103,0-0.154,0v0.116
					c-0.453,0-0.901,0-1.351,0v0.039c0,0.026,0,0.051,0,0.078c0,0.024,0,0.05,0,0.076c0,0.026,0,0.052,0,0.078
					c0,0.025,0,0.051,0,0.077c0,0.025,0,0.051,0,0.076v0.04c0,0.025,0,0.05,0,0.077c0,0.025,0,0.05,0,0.077c0,0.025,0,0.051,0,0.076
					v0.078c-0.103,0.025-0.218,0.039-0.346,0.039v0.039c0,0.025-0.013,0.051-0.04,0.077c0,0.025-0.014,0.05-0.038,0.077
					c0,0.025-0.013,0.038-0.038,0.038c0,0.025-0.014,0.051-0.04,0.077c0,0.025,0,0.052,0,0.077
					c-0.024,0.025-0.051,0.051-0.078,0.077c0,0.026,0,0.052,0,0.077c-0.024,0.026-0.05,0.052-0.075,0.077c0,0.025,0,0.051,0,0.077
					c-0.026,0.025-0.039,0.052-0.039,0.077l-0.039,0.039c-0.025,0.025-0.039,0.052-0.039,0.077
					c-0.026,0.026-0.039,0.052-0.039,0.077c-0.025,0.026-0.039,0.052-0.039,0.077c-0.025,0.025-0.051,0.051-0.077,0.077
					c0,0.026-0.015,0.052-0.04,0.078v0.039c0,0.025-0.012,0.051-0.038,0.076c-0.013,0.012-0.026,0.026-0.039,0.04
					c-0.013,0.016-0.026,0.027-0.038,0.039c-0.025,0.026-0.039,0.052-0.039,0.077c-0.025,0.024-0.039,0.049-0.039,0.077
					c0,0.025-0.013,0.037-0.037,0.037c-0.027,0.028-0.054,0.053-0.078,0.078c-0.025,0.025-0.039,0.051-0.039,0.077
					c-0.025,0.026-0.051,0.052-0.078,0.077c-0.023,0.025-0.051,0.052-0.077,0.077l-0.076,0.077c-0.03,0-0.063,0.006-0.097,0.02
					c-0.014,0.017-0.02,0.035-0.02,0.057c-0.025,0.025-0.052,0.051-0.076,0.077h-0.031c-0.021,0.01-0.039,0.018-0.059,0.019
					l-0.019,0.02c-0.026,0.025-0.038,0.052-0.038,0.077c0,0.026-0.014,0.052-0.04,0.077c0,0.026-0.013,0.039-0.038,0.039
					c-0.025,0.025-0.051,0.052-0.077,0.077c-0.075,0.027-0.153,0.052-0.231,0.079c-0.075,0.024-0.142,0.05-0.192,0.076v0.039
					l-0.038,0.04c-0.152,0-0.309,0-0.462,0c0,0.025-0.015,0.039-0.039,0.039c-0.051,0.025-0.103,0.038-0.155,0.038
					c-0.515,0-1.029,0-1.541,0c-0.052-0.025-0.104-0.038-0.154-0.038c-0.026-0.026-0.041-0.052-0.041-0.078
					c-0.024,0-0.049,0-0.075,0c-0.104,0-0.208,0-0.31,0c-0.024-0.025-0.063-0.039-0.115-0.039l-0.039-0.039
					c-0.026,0-0.051,0-0.078,0c-0.078-0.025-0.141-0.037-0.191-0.037c-0.025-0.027-0.052-0.052-0.078-0.079
					c0-0.025-0.013-0.052-0.039-0.077h-0.037c-0.051-0.025-0.104-0.039-0.155-0.039c-0.025-0.025-0.052-0.051-0.076-0.077
					c0-0.025-0.013-0.052-0.039-0.077c-0.026-0.026-0.063-0.052-0.114-0.078v-0.038c-1.414,0-2.814,0.013-4.205,0.038
					c-0.024,0-0.037,0.013-0.037,0.04h-0.039c-0.053,0.026-0.104,0.039-0.154,0.039c-0.153,0-0.309,0-0.463,0l-0.039,0.039
					c-0.051,0-0.09,0.013-0.115,0.039c-0.052,0-0.104,0.013-0.154,0.039c-0.025,0.025-0.039,0.052-0.039,0.077
					c-0.052,0.025-0.103,0.052-0.154,0.077c-0.025,0.027-0.064,0.052-0.115,0.079c-0.025,0.024-0.053,0.037-0.078,0.037
					c0,0.025-0.014,0.052-0.038,0.077c0,0.026-0.013,0.052-0.038,0.078h-0.039c-0.078,0.025-0.141,0.038-0.193,0.038
					c-0.025,0.026-0.063,0.052-0.115,0.078c-0.025,0.025-0.053,0.052-0.077,0.077c-0.026,0.024-0.05,0.05-0.077,0.076
					c0,0.026,0,0.052,0,0.077c-0.025,0.025-0.038,0.052-0.038,0.077c-0.053,0.026-0.104,0.052-0.153,0.078
					c-0.026,0.025-0.064,0.052-0.117,0.076c-0.025,0.028-0.051,0.04-0.076,0.04c0,0.025-0.014,0.05-0.04,0.077
					c-0.024,0.027-0.05,0.051-0.076,0.076c0,0.026,0,0.052,0,0.078c-0.024,0.025-0.052,0.052-0.077,0.077s-0.039,0.052-0.039,0.078
					c-0.025,0.025-0.052,0.051-0.078,0.076c0,0.025-0.012,0.052-0.037,0.077v0.039c-0.026,0.025-0.041,0.052-0.041,0.077
					c-0.024,0.025-0.039,0.051-0.039,0.078c-0.025,0.025-0.051,0.051-0.075,0.076c0,0.026,0,0.052,0,0.077
					c-0.025,0.025-0.038,0.053-0.038,0.079c0,0.025-0.014,0.05-0.04,0.077c0,0.024-0.013,0.051-0.039,0.076
					c0,0.026-0.012,0.039-0.039,0.039c-0.024,0.026-0.039,0.052-0.039,0.078c-0.024,0.025-0.038,0.05-0.038,0.077
					c0,0.025-0.013,0.05-0.039,0.077c0,0.025,0,0.053,0,0.077c-0.025,0.024-0.039,0.051-0.039,0.077
					c-0.052,0.025-0.09,0.051-0.115,0.076c-0.024,0.025-0.037,0.053-0.037,0.078c-0.026,0.024-0.064,0.039-0.115,0.039
					c0,0.024-0.014,0.051-0.04,0.076c-0.024,0.025-0.051,0.053-0.077,0.077c0,0.024-0.013,0.038-0.038,0.038l-0.038,0.04
					c-0.053,0-0.091,0.013-0.117,0.039c-0.049,0-0.102,0.013-0.152,0.039l-0.039,0.039c-0.051,0.024-0.104,0.038-0.155,0.038
					c-0.077,0-0.167,0-0.269,0L39.783,17.4c-0.051,0-0.09,0.015-0.116,0.039c-0.128,0-0.244,0-0.347,0
					c-0.025-0.023-0.065-0.039-0.116-0.039l-0.039-0.039c-0.024,0-0.05,0-0.076,0c-0.077-0.024-0.142-0.038-0.192-0.038
					c0-0.026-0.014-0.052-0.041-0.077c-0.024,0-0.063,0-0.115,0c-0.051-0.025-0.104-0.053-0.153-0.078
					c-0.024,0-0.051-0.012-0.078-0.038c-0.022-0.022-0.042-0.042-0.057-0.057c-0.087-0.011-0.171-0.017-0.251-0.021
					c-0.025-0.025-0.051-0.052-0.077-0.076c-0.024,0-0.038-0.014-0.038-0.039c-0.025-0.025-0.039-0.053-0.039-0.078
					s-0.013-0.051-0.039-0.076c-0.025-0.026-0.051-0.053-0.076-0.077c0-0.024,0-0.052,0-0.077c-0.027-0.027-0.039-0.052-0.039-0.077
					c0-0.026-0.013-0.052-0.039-0.077c0-0.026,0-0.052,0-0.078v-0.039c0-0.025,0-0.052,0-0.076c0-0.026-0.013-0.052-0.039-0.077
					c-0.024-0.025-0.051-0.053-0.076-0.079c0-0.025,0-0.05,0-0.077c0-0.025,0-0.051,0-0.076c0-0.027,0-0.053,0-0.078
					s0-0.052,0-0.077V15.74c-0.025-0.024-0.038-0.051-0.038-0.076s0-0.052,0-0.077s0-0.051,0-0.077c0-0.025,0-0.052,0-0.077v-0.04
					c0-0.025,0-0.049,0-0.076c0-0.026,0-0.052,0-0.077c0-0.026,0-0.053,0-0.077c0-0.025,0-0.052,0-0.077c0-0.026,0-0.052,0-0.078
					c0-0.024-0.013-0.051-0.04-0.076c0-0.025,0-0.052,0-0.078c-0.025,0-0.038-0.013-0.038-0.037c0-0.025,0-0.052,0-0.077
					c-1.954,0-3.921,0.012-5.9,0.039c0,0.025-0.013,0.039-0.038,0.039c-0.051,0.024-0.104,0.037-0.155,0.037
					c-0.026,0-0.063,0-0.117,0c-0.024,0-0.05,0-0.076,0c0,0.026,0,0.053,0,0.078s-0.014,0.052-0.039,0.076c0,0.027,0,0.053,0,0.078
					c-0.025,0.025-0.051,0.052-0.078,0.077c-0.009,0.011-0.021,0.023-0.038,0.037l-0.039,0.021v0.019l-0.077,0.077
					c-0.026,0.027-0.04,0.051-0.04,0.076c-0.051,0.026-0.088,0.04-0.113,0.04c0,0.025-0.013,0.052-0.039,0.077
					c0,0.026-0.013,0.052-0.039,0.077c0,0.025,0,0.052,0,0.077c-0.025,0.025-0.052,0.052-0.077,0.076
					c-0.026,0.028-0.064,0.053-0.116,0.078c0,0.025-0.013,0.052-0.038,0.077c-0.027,0.025-0.053,0.051-0.079,0.078
					c-0.024,0.025-0.051,0.039-0.076,0.039c-0.026,0.024-0.038,0.052-0.038,0.076c-0.026,0.025-0.052,0.05-0.078,0.078
					c-0.025,0.025-0.051,0.05-0.077,0.076c0,0.026,0,0.052,0,0.077c-0.025,0.025-0.051,0.053-0.077,0.077
					c-0.026,0.026-0.052,0.052-0.078,0.078c-0.025,0.025-0.039,0.05-0.039,0.077c-0.05,0.025-0.089,0.039-0.115,0.039
					c0,0.025-0.013,0.05-0.038,0.076c-0.025,0.026-0.051,0.052-0.078,0.078c-0.025,0.024-0.052,0.051-0.078,0.077
					c-0.025,0.025-0.05,0.051-0.076,0.076c-0.027,0.026-0.052,0.053-0.077,0.078c-0.027,0.024-0.065,0.051-0.116,0.076
					c-0.051,0.025-0.09,0.053-0.117,0.077c-0.024,0.025-0.051,0.038-0.076,0.038c0,0.025-0.013,0.053-0.038,0.078
					c-0.027,0.025-0.04,0.051-0.04,0.077h-0.039c-0.051,0.024-0.102,0.038-0.153,0.038c-0.026,0.025-0.039,0.054-0.039,0.078
					c-0.025,0.025-0.038,0.052-0.038,0.078l-0.04,0.037c-0.025,0.024-0.051,0.038-0.076,0.038c-0.025,0-0.065,0.013-0.117,0.04
					c-0.05-0.025-0.089-0.04-0.114-0.04c-0.026,0-0.039,0.013-0.039,0.04c-0.026,0.025-0.039,0.051-0.039,0.076
					c-0.025,0-0.052,0-0.077,0c-0.026,0.025-0.065,0.039-0.117,0.039c-1.696,0-3.393,0-5.089,0c-0.026,0-0.064,0-0.117,0
					c-0.025,0-0.05,0-0.076,0c-0.052-0.025-0.103-0.039-0.155-0.039c-0.025-0.025-0.052-0.051-0.077-0.076
					c0-0.025-0.013-0.053-0.039-0.078c0-0.024,0-0.052,0-0.076c0-0.025,0-0.052,0-0.078l0.019-0.039c-0.044,0-0.09,0-0.135,0
					c0,0.025,0,0.054,0,0.078c-0.025,0-0.039,0.013-0.039,0.039c0,0.024,0,0.051,0,0.076c-0.026,0-0.039,0.014-0.039,0.039
					c0,0.028-0.013,0.053-0.039,0.078v0.038c-0.026,0.026-0.039,0.052-0.039,0.077c-0.025,0-0.051,0.013-0.078,0.041
					c0,0.023,0,0.05,0,0.076v0.039c0,0.024,0,0.05,0,0.076c-0.025,0-0.051,0.013-0.076,0.039c0,0.025,0,0.051,0,0.076v0.04
					c0,0.025,0,0.052,0,0.076v0.04c0,0.025-0.013,0.051-0.039,0.077v0.039c-0.025,0.024-0.038,0.05-0.038,0.077v0.037
					c-0.026,0.025-0.04,0.053-0.04,0.076c-0.025,0-0.038,0.014-0.038,0.039c-0.025,0.026-0.039,0.053-0.039,0.078
					c-0.026,0-0.039,0.014-0.039,0.039c0,0.026,0,0.051,0,0.077v0.04c0,0.025,0,0.05,0,0.076c-0.026,0-0.052,0.013-0.078,0.039
					c-0.024,0.024-0.037,0.051-0.037,0.078c-0.026,0-0.04,0.012-0.04,0.037c0,0.026,0,0.053,0,0.078V19.2
					c-0.026,0.024-0.038,0.052-0.038,0.077c-0.027,0-0.052,0.013-0.077,0.039c0,0.025-0.013,0.051-0.038,0.078v0.037
					c0,0.026,0,0.053,0,0.078c-0.025,0-0.039,0.012-0.039,0.039c0,0.025,0,0.053,0,0.077c-0.026,0-0.039,0.013-0.039,0.039
					c0,0.024-0.012,0.052-0.038,0.077v0.037c-0.026,0.027-0.039,0.053-0.039,0.078c-0.025,0-0.05,0.012-0.077,0.037
					c0,0.026,0,0.053,0,0.078c-0.025,0-0.039,0.012-0.039,0.038s0,0.052,0,0.078c-0.025,0-0.038,0.013-0.038,0.04
					c-0.027,0.025-0.04,0.049-0.04,0.076c-0.025,0-0.037,0.013-0.037,0.038c0,0.024,0,0.052,0,0.077v0.039
					c-0.025,0.024-0.039,0.052-0.039,0.076c-0.026,0-0.051,0.013-0.077,0.039c0,0.026-0.013,0.053-0.039,0.078v0.038
					c-0.026,0.025-0.039,0.05-0.039,0.077c-0.026,0-0.039,0.014-0.039,0.039s0,0.052,0,0.078c-0.025,0-0.039,0.012-0.039,0.038
					c0,0.024-0.013,0.05-0.038,0.077c-0.026,0.024-0.038,0.052-0.038,0.078c-0.027,0-0.039,0.013-0.039,0.039
					c-0.027,0.024-0.04,0.051-0.04,0.075c-0.025,0-0.038,0.015-0.038,0.04c-0.026,0.025-0.038,0.051-0.038,0.077
					c-0.026,0-0.052,0.013-0.078,0.039c-0.025,0.024-0.039,0.051-0.039,0.077c-0.025,0-0.038,0.012-0.038,0.039
					c0,0.025,0,0.053,0,0.076c-0.025,0-0.039,0.013-0.039,0.039c0,0.025-0.013,0.052-0.039,0.078l-0.039,0.036
					c0,0.026-0.013,0.052-0.038,0.077v0.04c-0.026,0.024-0.039,0.052-0.039,0.077c-0.026,0-0.039,0.012-0.039,0.039v0.039
					l-0.039,0.078c-0.026,0-0.039,0.012-0.039,0.037v0.078H20.43L20.41,22.1c0,0.024,0,0.051,0,0.076
					c-0.014,0-0.028,0.008-0.039,0.02c-0.015,0.003-0.029,0.008-0.038,0.02v0.077l-0.039,0.04l-0.04,0.076
					c-0.025,0-0.051,0.013-0.077,0.04c-0.026,0.024-0.039,0.05-0.039,0.075c-0.026,0-0.051,0.014-0.077,0.039
					c-0.026,0.026-0.039,0.053-0.039,0.078c-0.026,0-0.051,0.012-0.077,0.039v0.076c0.045,0,0.09,0,0.135,0
					c0.044,0.001,0.089,0.001,0.135,0c0,0.026,0,0.053,0,0.078c-0.026,0-0.051,0.012-0.078,0.037c0,0.027,0,0.052,0,0.077
					l-0.039,0.04c0,0.025-0.012,0.051-0.038,0.076v0.039c0,0.025,0,0.052,0,0.076v0.04c0,0.025,0,0.052,0,0.077
					c-0.026,0-0.052,0.014-0.078,0.039c0,0.025,0,0.053,0,0.078l-0.039,0.037c0,0.025-0.013,0.052-0.038,0.076v0.039
					c0,0.024,0,0.053,0,0.078v0.039c0,0.025,0,0.051,0,0.076v0.039c0,0.026,0,0.051,0,0.077v0.077c0,0.013-0.007,0.025-0.018,0.039
					c-0.018,0.004-0.037,0.017-0.059,0.04c-0.025,0.024-0.04,0.051-0.04,0.075c-0.025,0-0.038,0.013-0.038,0.039
					c0,0.027,0,0.053,0,0.078v0.154c-0.026,0-0.052,0.014-0.078,0.039c0,0.025,0,0.052,0,0.076l-0.037,0.039
					c0,0.025-0.014,0.052-0.039,0.078v0.039c-0.026,0.024-0.039,0.05-0.039,0.076c-0.026,0-0.039,0.014-0.039,0.039v0.039
					c-0.051,0.024-0.09,0.037-0.116,0.037c-0.025,0-0.064,0.014-0.114,0.04c-0.025,0-0.066,0-0.118,0
					c-0.025,0-0.063,0.013-0.116,0.039c-0.02,0-0.039,0-0.057,0c-0.034,0.011-0.066,0.022-0.097,0.039
					c-0.025,0-0.039,0.013-0.039,0.039c-0.025,0.024-0.039,0.051-0.039,0.078c-0.025,0-0.052,0.012-0.077,0.039
					c0,0.024-0.014,0.052-0.039,0.075v0.037c0,0.026,0,0.054,0,0.08c-0.026,0-0.051,0.012-0.077,0.037
					c-0.025,0.025-0.052,0.053-0.078,0.077v0.039c-0.026,0.026-0.039,0.052-0.039,0.077c-0.025,0-0.039,0.013-0.039,0.039
					c0,0.025,0,0.052,0,0.077v0.04c0,0.024,0,0.05,0,0.076v0.039c0,0.025,0,0.051,0,0.076c-0.025,0-0.05,0.014-0.076,0.039
					c0,0.026,0,0.053,0,0.079v0.038c0,0.025,0,0.05,0,0.077v0.038c0,0.025,0,0.051,0,0.076l-0.039,0.039
					c0,0.025-0.012,0.053-0.04,0.078v0.039c0,0.025,0,0.051,0,0.076v0.039c-0.025,0.026-0.039,0.053-0.039,0.078
					c0.052,0.025,0.091,0.049,0.117,0.076c0.026,0,0.051,0.013,0.076,0.039c0,0.025,0,0.052,0,0.076c0,0.025,0,0.052,0,0.078
					c-0.025,0.025-0.05,0.052-0.076,0.076c-0.026,0.026-0.065,0.04-0.117,0.04c-0.05,0-0.102,0-0.153,0
					c-0.025,0.024-0.04,0.052-0.04,0.076c-0.025,0-0.051,0.015-0.076,0.039c0,0.026-0.013,0.052-0.039,0.078l-0.039,0.038
					c0,0.025-0.013,0.053-0.038,0.078l-0.039,0.039c0,0.023-0.014,0.052-0.04,0.076v0.037c-0.024,0.027-0.038,0.053-0.038,0.078
					c-0.026,0-0.039,0.012-0.039,0.038H17.7c-0.103,0-0.206,0-0.31,0v0.077c0,0.025,0,0.052,0,0.077v0.039c0,0.026,0,0.053,0,0.077
					c0.026,0.025,0.053,0.052,0.078,0.076l0.039,0.041v0.039c0.026,0.026,0.039,0.051,0.039,0.076s0,0.051,0,0.077
					c-0.025,0.024-0.039,0.052-0.039,0.076c-0.021,0-0.034,0.007-0.039,0.021v0.021c-0.024,0.024-0.037,0.049-0.037,0.077H17.39
					c-0.05,0.025-0.102,0.037-0.153,0.037c-2.492,0-4.974,0.014-7.441,0.039c-0.025,0-0.051,0-0.076,0
					c-0.027,0-0.065,0.013-0.117,0.039c-0.051-0.025-0.103-0.039-0.154-0.039c-0.052-0.025-0.103-0.039-0.155-0.039
					c-0.026,0-0.051,0-0.077,0c-0.026,0-0.051,0-0.076,0c-0.052-0.025-0.103-0.037-0.156-0.037
					c-0.024-0.028-0.051-0.053-0.076-0.077c-0.025-0.025-0.052-0.054-0.078-0.078c-0.024-0.024-0.05-0.052-0.076-0.077
					s-0.051-0.052-0.078-0.076c0-0.025-0.012-0.053-0.039-0.078c-0.025-0.024-0.05-0.051-0.076-0.076
					C8.535,27.834,8.51,27.82,8.484,27.82c-0.026-0.025-0.052-0.051-0.077-0.078c-0.025-0.025-0.052-0.053-0.078-0.076
					c-0.025-0.025-0.038-0.052-0.038-0.077c0-0.024,0-0.053,0-0.077c0-0.025,0-0.051,0-0.078c0-0.024,0-0.05,0-0.076
					c0-0.025,0-0.051,0-0.076v-0.04c0.025-0.025,0.05-0.052,0.078-0.076c0.025-0.026,0.051-0.052,0.076-0.078
					c0.052,0,0.09,0,0.117,0c0.025,0,0.051,0,0.076,0c0.052,0,0.103,0.013,0.155,0.039c0.025,0.024,0.05,0.052,0.077,0.077
					c0,0.025,0.014,0.053,0.039,0.078v-0.078c0-0.025,0-0.053,0-0.077v-0.077c-0.025-0.025-0.052-0.052-0.078-0.076
					c0-0.025-0.013-0.052-0.038-0.078c0-0.023-0.013-0.039-0.039-0.039v-0.076c0.026-0.025,0.039-0.053,0.039-0.077l0.077-0.077
					h0.039c0-0.025,0-0.05,0-0.077v-0.039c0-0.026,0-0.052,0-0.077c0-0.024,0.013-0.039,0.039-0.039
					c0-0.024,0.013-0.052,0.037-0.078c0.012-0.01,0.025-0.018,0.04-0.019c0.011-0.014,0.024-0.021,0.039-0.021
					c0.025-0.024,0.052-0.049,0.078-0.075c0.025-0.025,0.05-0.039,0.076-0.039c0-0.025,0-0.05,0-0.078
					c0.026-0.024,0.051-0.037,0.077-0.037c0-0.024,0.014-0.053,0.039-0.077l0.038-0.039c0-0.025,0-0.053,0-0.076
					c0.025-0.025,0.053-0.039,0.078-0.039c0-0.027,0-0.053,0-0.078c0-0.024,0.013-0.037,0.038-0.037
					c0-0.027,0.013-0.053,0.039-0.077v-0.04c0-0.025,0-0.051,0-0.076v-0.04c0-0.024,0-0.051,0-0.077
					c0.025-0.024,0.051-0.039,0.077-0.039c0-0.024,0-0.051,0-0.076c0-0.026,0.014-0.041,0.039-0.041
					c0-0.023,0.013-0.049,0.038-0.075c0.026-0.025,0.052-0.038,0.079-0.038c0-0.026,0-0.053,0-0.079v-0.038c0-0.025,0-0.051,0-0.077
					c0.025-0.026,0.05-0.039,0.076-0.039c0-0.024,0-0.052,0-0.077s0.013-0.037,0.039-0.037c0-0.025,0-0.053,0-0.078
					c0-0.024,0.012-0.038,0.039-0.038c0-0.026,0.014-0.052,0.039-0.078v-0.039c0.025-0.024,0.038-0.052,0.038-0.076v-0.039
					c0.026-0.024,0.039-0.052,0.039-0.078c0.026-0.024,0.051-0.036,0.077-0.036c0-0.027,0.013-0.053,0.039-0.078v-0.039
					c0-0.024,0-0.051,0-0.077c0-0.025,0.012-0.038,0.039-0.038c0-0.027,0-0.053,0-0.078c0.026-0.025,0.05-0.039,0.076-0.039
					c0.025-0.025,0.039-0.051,0.039-0.077l0.039-0.039c0-0.024,0.013-0.051,0.038-0.077v-0.037c0-0.025,0-0.054,0-0.078
					c0-0.025,0.014-0.039,0.039-0.039c0-0.026,0.012-0.053,0.039-0.077V23.48c0.025-0.025,0.038-0.051,0.038-0.076l0.039-0.041
					c0.025-0.025,0.039-0.051,0.039-0.076c0-0.026,0.013-0.039,0.038-0.039c0-0.025,0-0.053,0-0.078s0.014-0.039,0.039-0.039
					c0-0.025,0.013-0.051,0.04-0.076v-0.039c0.025-0.024,0.039-0.052,0.039-0.078c0.025-0.024,0.051-0.037,0.077-0.037
					c0-0.025,0.013-0.051,0.038-0.076c0-0.025,0.013-0.039,0.039-0.039c0-0.025,0-0.053,0-0.077c0-0.026,0.014-0.04,0.04-0.04
					c0-0.025,0-0.051,0-0.077v-0.039c0.025-0.024,0.038-0.052,0.038-0.077l0.04-0.037c0-0.025,0-0.053,0-0.078
					c0.025-0.024,0.051-0.037,0.076-0.037c0-0.026,0.013-0.053,0.039-0.078v-0.039c0.025-0.025,0.038-0.051,0.038-0.077v-0.039
					c0.026-0.024,0.04-0.05,0.04-0.077l0.038-0.037c0-0.025,0-0.053,0-0.078c0.051-0.024,0.09-0.039,0.115-0.039
					c0.027-0.025,0.038-0.051,0.038-0.076s0.014-0.038,0.04-0.038c0-0.026,0.012-0.054,0.038-0.079v-0.038c0-0.024,0-0.052,0-0.077
					s0.013-0.039,0.037-0.039c0-0.025,0.013-0.052,0.039-0.076v-0.039c0-0.026,0.014-0.053,0.039-0.078v-0.039
					c0.025-0.025,0.04-0.051,0.04-0.076v-0.04c0.025-0.025,0.038-0.05,0.038-0.077l0.038-0.037c0.026-0.025,0.039-0.052,0.039-0.077
					c0-0.026,0.013-0.04,0.039-0.04c0-0.024,0.013-0.051,0.038-0.076l0.038-0.039v-0.078c0.027,0,0.052-0.012,0.078-0.038v-0.039
					c0-0.026,0-0.052,0-0.077v-0.038c0-0.026,0.012-0.052,0.038-0.079v-0.039l0.02-0.018l0.02-0.04V20.35l0.038-0.039
					c0.026-0.025,0.039-0.053,0.039-0.078l0.039-0.037c0-0.027,0.012-0.051,0.039-0.076v-0.04c0.026-0.026,0.039-0.052,0.039-0.078
					c0.025-0.024,0.051-0.039,0.077-0.039c0-0.024,0.013-0.051,0.038-0.077v-0.037c0.026-0.025,0.039-0.051,0.039-0.078l0.038-0.037
					c0.026-0.025,0.04-0.053,0.04-0.077c0-0.026,0.012-0.039,0.039-0.039c0-0.025,0-0.052,0-0.077S12.48,19.5,12.505,19.5
					c0-0.025,0-0.052,0-0.078c0-0.025,0.013-0.038,0.039-0.038c0-0.026,0-0.052,0-0.077v-0.039h0.02
					c0.019-0.002,0.051-0.017,0.096-0.039V19.2c0.026-0.025,0.039-0.052,0.039-0.077l0.039-0.039
					c0.026-0.025,0.038-0.052,0.038-0.077l0.04-0.039c0-0.024,0.013-0.05,0.038-0.077v-0.037c0-0.027,0-0.053,0-0.078v-0.039
					c0-0.019,0-0.037,0-0.059V18.62c0-0.025,0-0.052,0-0.077v-0.038c0-0.024,0-0.052,0-0.078v-0.036c0-0.025,0-0.054,0-0.078v-0.039
					c0-0.024,0-0.053,0-0.076V18.16c0-0.026,0-0.053,0-0.077v-0.04c0-0.025,0-0.051,0-0.076v-0.039c0-0.025,0-0.053,0-0.076v-0.039
					c0-0.026,0-0.053,0-0.078c0.026-0.025,0.051-0.039,0.078-0.039c0-0.025,0.012-0.051,0.037-0.076c0-0.026,0.014-0.04,0.039-0.04
					c0-0.024,0-0.05,0-0.076l0.038-0.039c0.026-0.026,0.04-0.052,0.04-0.078l0.039-0.038c0-0.025,0.012-0.052,0.038-0.078
					c0-0.024,0.013-0.039,0.04-0.039c0-0.024,0-0.051,0-0.078v-0.037c0-0.025,0.013-0.053,0.038-0.077v-0.039
					c0-0.024,0.013-0.052,0.039-0.077v-0.039c0.026-0.025,0.039-0.052,0.039-0.076c0-0.026,0.012-0.039,0.037-0.039
					c0-0.026,0.014-0.053,0.041-0.078c0-0.024,0.013-0.039,0.038-0.039c0-0.025,0.013-0.051,0.038-0.076
					c0.026-0.026,0.052-0.039,0.077-0.039c0-0.026,0.013-0.052,0.039-0.077v-0.039c0.026-0.026,0.039-0.052,0.039-0.078
					c0-0.025,0.013-0.039,0.038-0.039c0-0.025,0.014-0.051,0.039-0.077v-0.037c0-0.025,0.013-0.053,0.039-0.079v-0.038
					c0-0.024,0.013-0.052,0.038-0.076c0-0.025,0.013-0.039,0.04-0.039c0-0.027,0.012-0.053,0.039-0.078
					c0-0.025,0.012-0.039,0.038-0.039c0-0.025,0.013-0.052,0.039-0.077c0-0.025,0.013-0.04,0.039-0.04
					c0.025-0.024,0.038-0.051,0.038-0.076l0.04-0.038c0.025-0.026,0.038-0.053,0.038-0.078l0.039-0.039
					c0.025-0.024,0.038-0.051,0.039-0.077c-0.025-0.026-0.051-0.04-0.077-0.04c-0.025-0.025-0.038-0.049-0.038-0.076
					c-0.078,0-0.142,0-0.192,0c-0.027-0.026-0.066-0.039-0.117-0.039c-0.026,0-0.039-0.013-0.039-0.038c-0.103,0-0.206,0-0.307,0
					c-0.053-0.026-0.104-0.04-0.156-0.04c-0.025-0.024-0.038-0.05-0.038-0.076c-0.18,0-0.347,0-0.502,0
					c-0.025-0.026-0.064-0.039-0.116-0.039c-0.026,0-0.039-0.013-0.039-0.04c-0.129,0-0.27,0-0.424,0
					c-0.051-0.025-0.103-0.039-0.155-0.039c-0.026-0.024-0.038-0.051-0.038-0.076c-0.129,0-0.257,0-0.386,0
					c-0.026-0.025-0.063-0.04-0.114-0.04c-0.026,0-0.04-0.012-0.04-0.039c-0.102,0-0.205,0-0.308,0
					c-0.051-0.025-0.102-0.037-0.153-0.037c-0.025-0.025-0.04-0.052-0.04-0.077c-0.102,0-0.204,0-0.308,0
					c-0.026-0.026-0.064-0.04-0.115-0.04c-0.027,0-0.039-0.012-0.039-0.039c-0.155,0-0.322,0-0.501,0
					c-0.051-0.025-0.103-0.038-0.153-0.038c-0.027-0.026-0.039-0.052-0.039-0.078c-0.129,0-0.258,0-0.386,0
					c-0.025-0.025-0.065-0.039-0.116-0.039l-0.04-0.039c-0.076,0-0.153,0-0.229,0c-0.052-0.025-0.104-0.037-0.154-0.037
					c-0.026-0.027-0.039-0.052-0.039-0.079c-0.051,0-0.117,0-0.192,0c-0.027-0.025-0.065-0.038-0.117-0.038l-0.039-0.039
					c-0.078,0-0.153,0-0.231,0c-0.052-0.025-0.103-0.039-0.154-0.039C8.014,14.188,8,14.162,8,14.136c-0.051,0-0.089,0-0.114,0
					c-0.026-0.025-0.065-0.039-0.116-0.039c-0.025,0-0.039-0.013-0.039-0.039c-0.026,0-0.064,0-0.116,0
					c-0.051-0.026-0.102-0.039-0.154-0.039c-0.026-0.026-0.038-0.052-0.038-0.077c-0.051,0-0.115,0-0.192,0
					c-0.026-0.026-0.064-0.039-0.116-0.039L7.094,13.88c-0.051,0-0.104,0-0.156,0c-0.05-0.025-0.102-0.039-0.153-0.039
					c-0.025-0.025-0.039-0.052-0.039-0.077c-0.026,0-0.051,0-0.077,0c-0.025-0.026-0.063-0.039-0.117-0.039l-0.039-0.039
					c-0.05,0-0.101,0-0.154,0c-0.05-0.026-0.102-0.039-0.152-0.039c-0.027-0.026-0.041-0.052-0.041-0.077c-0.024,0-0.05,0-0.077,0
					c-0.025-0.025-0.063-0.04-0.115-0.04l-0.038-0.039c-0.052,0-0.104,0-0.154,0c-0.052-0.024-0.102-0.037-0.155-0.037
					c-0.024-0.028-0.063-0.053-0.115-0.077c-0.025-0.025-0.051-0.051-0.077-0.077H5.397c-0.052-0.025-0.104-0.039-0.155-0.039
					c-0.025-0.027-0.064-0.053-0.116-0.078C5.1,13.158,5.075,13.132,5.05,13.107H5.011c-0.051-0.026-0.103-0.04-0.153-0.04
					c-0.027-0.025-0.065-0.05-0.117-0.077c-0.026-0.025-0.052-0.05-0.077-0.076c-0.026,0-0.064,0-0.115,0
					c-0.052-0.026-0.103-0.04-0.155-0.04c-0.024-0.025-0.05-0.051-0.076-0.077c-0.027-0.025-0.04-0.052-0.04-0.077H4.24
					c-0.052-0.025-0.103-0.039-0.155-0.039c-0.025-0.025-0.038-0.052-0.038-0.077c-0.026,0-0.05,0-0.078,0
					c-0.051-0.025-0.103-0.052-0.153-0.077c-0.052,0-0.091-0.014-0.117-0.039c-0.026-0.025-0.051-0.052-0.077-0.077
					c-0.026-0.025-0.039-0.052-0.039-0.078c-0.052-0.025-0.09-0.051-0.114-0.076c-0.027-0.026-0.065-0.052-0.117-0.078
					c-0.026-0.025-0.051-0.051-0.077-0.076c-0.027-0.027-0.053-0.052-0.078-0.077C3.145,12,3.094,11.974,3.043,11.949
					c-0.052,0-0.089-0.013-0.116-0.039c-0.025-0.026-0.051-0.052-0.077-0.078c-0.026-0.025-0.039-0.052-0.039-0.076
					c-0.051-0.026-0.09-0.052-0.116-0.078c-0.026-0.025-0.051-0.05-0.077-0.077c0-0.025-0.013-0.05-0.039-0.077
					c-0.025-0.025-0.051-0.051-0.078-0.076c-0.051-0.026-0.102-0.052-0.153-0.077c-0.026,0-0.052-0.014-0.077-0.041
					c-0.026-0.024-0.065-0.051-0.116-0.076c-0.026-0.025-0.065-0.05-0.117-0.076c-0.051-0.026-0.089-0.053-0.115-0.078
					c-0.012-0.013-0.025-0.025-0.039-0.038c-0.089,0-0.179,0-0.269,0c0-0.026,0-0.052,0-0.078s0-0.064,0-0.116
					c-0.028-0.025-0.052-0.051-0.078-0.078c-0.025-0.025-0.051-0.051-0.077-0.076c-0.026-0.027-0.064-0.052-0.116-0.077
					c-0.025-0.025-0.064-0.052-0.116-0.077c-0.025-0.026-0.05-0.052-0.076-0.078c-0.027-0.025-0.051-0.052-0.077-0.077l-0.04-0.038
					c-0.025-0.026-0.038-0.052-0.038-0.077v-0.04c-0.026,0-0.052-0.013-0.078-0.037c-0.025-0.025-0.051-0.039-0.077-0.039
					c-0.026-0.025-0.039-0.052-0.039-0.077s0-0.053,0-0.078c-0.02-0.021-0.032-0.046-0.032-0.073
					c-0.027-0.025-0.052-0.05-0.078-0.077c0-0.026,0-0.05,0-0.076C0.667,9.767,0.641,9.742,0.616,9.715
					c0-0.026-0.013-0.052-0.039-0.077c0-0.025-0.013-0.039-0.039-0.039C0.513,9.574,0.5,9.549,0.5,9.522s0-0.052,0-0.077
					s0-0.052,0-0.077c0-0.025,0-0.05,0-0.077c0-0.025,0-0.051,0-0.077c0-0.026,0-0.052,0-0.077c0-0.026,0-0.052,0-0.077V9.02
					c0-0.025,0-0.051,0-0.077c0-0.025,0-0.05,0-0.076c0-0.026,0-0.052,0-0.077s0-0.051,0-0.076c0-0.027,0-0.054,0-0.078
					c0-0.027,0-0.052,0-0.077s0-0.052,0-0.077v-0.04c0-0.025,0-0.052,0-0.077c0-0.025,0.013-0.051,0.038-0.076
					c0.026-0.026,0.039-0.053,0.039-0.078S0.589,8.16,0.616,8.134c0-0.025,0-0.051,0-0.077c0-0.025,0-0.052,0-0.076
					c0-0.026,0-0.053,0-0.077v-0.04c0-0.026,0-0.051,0-0.076c0-0.027,0-0.053,0-0.078s0-0.051,0-0.077c0-0.026,0-0.052,0-0.078
					c0-0.024,0-0.05,0-0.076c0.025-0.025,0.039-0.052,0.039-0.077S0.668,7.35,0.694,7.325V7.287c0.026-0.025,0.05-0.052,0.077-0.078
					c0.025-0.025,0.05-0.051,0.076-0.076c0-0.027,0.014-0.052,0.039-0.077c0-0.026,0-0.053,0-0.078
					c0.026-0.025,0.051-0.051,0.077-0.076C0.988,6.875,1.014,6.85,1.039,6.823c0.026-0.026,0.04-0.051,0.04-0.077
					c0.025-0.025,0.05-0.039,0.077-0.039c0-0.025,0.014-0.05,0.039-0.076c0-0.026,0.012-0.052,0.038-0.078
					c0-0.025,0.013-0.052,0.041-0.077c0-0.025,0-0.051,0-0.077c0-0.025,0-0.052,0-0.076c0.024-0.027,0.05-0.053,0.075-0.078
					c0-0.025,0.014-0.052,0.039-0.077V6.131c0-0.026,0-0.053,0-0.078c0-0.025,0-0.052,0-0.078c0-0.025,0-0.051,0-0.076
					s0-0.052,0-0.077C1.413,5.795,1.425,5.77,1.425,5.743c0-0.024,0.013-0.05,0.039-0.076c0-0.025,0-0.052,0-0.077V5.55
					c0-0.025,0-0.051,0-0.076c0-0.026,0-0.052,0-0.077c0-0.026,0-0.053,0-0.078s0-0.05,0-0.077c0-0.025,0-0.051,0-0.076
					s0-0.053,0-0.078s0-0.052,0-0.077V4.973C1.49,4.947,1.515,4.921,1.541,4.895c0-0.024,0.013-0.051,0.038-0.076
					c0-0.025,0-0.051,0-0.077c0-0.025,0-0.051,0-0.077c0.027-0.025,0.04-0.052,0.04-0.077c0-0.026,0.013-0.052,0.039-0.078
					c0-0.024,0-0.051,0-0.076c0.025-0.025,0.051-0.038,0.076-0.038C1.759,4.368,1.798,4.343,1.85,4.318
					c0-0.025,0.013-0.052,0.038-0.077C1.914,4.216,1.94,4.189,1.966,4.163C1.991,4.137,2.028,4.112,2.081,4.085z M29.032,14.149
					c-1.184,0.026-2.378,0.039-3.586,0.039v0.039c0,0.026,0,0.052,0,0.077c0,0.026,0,0.052,0,0.077c0,0.025,0,0.052,0,0.077
					s0,0.052,0,0.077c0,0.026,0,0.052,0,0.078v0.038c0,0.026,0,0.052,0,0.078c0,0.025,0,0.052,0,0.077c0,0.024,0,0.05,0,0.076
					c0.026,0.026,0.039,0.052,0.039,0.077c0.025,0.025,0.038,0.052,0.038,0.077c0.025,0.026,0.04,0.052,0.04,0.078
					c0,0.025,0,0.052,0,0.076v0.04c0.025,0.025,0.051,0.05,0.076,0.077c0.026,0.027,0.052,0.051,0.078,0.076l0.078,0.078h0.038
					l0.039,0.039v0.039c0.026,0,0.039,0.013,0.039,0.039l0.038,0.04v0.076c0.05,0.025,0.102,0.052,0.155,0.077
					c0.462,0,0.926,0,1.387,0c0.078,0,0.141,0,0.193,0c0.025,0,0.052,0,0.078,0l0.038-0.04c0.051-0.024,0.09-0.038,0.116-0.038
					c0.025-0.025,0.039-0.05,0.039-0.076h0.039c0.026,0,0.051-0.014,0.077-0.04c0.077,0,0.142-0.013,0.193-0.039
					c0.025-0.025,0.051-0.052,0.076-0.077c0.026-0.026,0.052-0.052,0.078-0.078c0.025-0.025,0.039-0.049,0.039-0.076
					c0.025-0.026,0.051-0.052,0.077-0.077v-0.04c0.025-0.024,0.039-0.05,0.039-0.076c0.025-0.026,0.052-0.052,0.077-0.078
					c0.025-0.025,0.05-0.052,0.076-0.077c0-0.025,0-0.051,0-0.077c0.027-0.025,0.052-0.052,0.079-0.076
					c0-0.025,0.014-0.052,0.039-0.077c0-0.026,0-0.052,0-0.078v-0.038c0.025-0.026,0.038-0.052,0.038-0.078
					c0.026-0.025,0.051-0.052,0.078-0.077l0.077-0.077c0.026,0,0.051,0,0.076,0v-0.039c0-0.025-0.013-0.052-0.038-0.077
					c0-0.025-0.013-0.052-0.039-0.077v-0.039H29.032z M24.211,14.843c0-0.024,0-0.05,0-0.076c0,0.025-0.013,0.052-0.038,0.076
					c-0.025,0.026-0.051,0.053-0.078,0.078c-0.025,0.025-0.051,0.052-0.077,0.076v0.039h-0.039v0.04l-0.039,0.039v0.039h-0.038
					v0.037c-0.014,0.014-0.026,0.028-0.04,0.04v0.038h-0.038c-0.026,0.027-0.04,0.052-0.04,0.077
					c-0.013,0.012-0.025,0.025-0.038,0.038c-0.012,0.013-0.025,0.026-0.038,0.04c0,0.025-0.013,0.052-0.039,0.077v0.039H23.65
					c0,0.013-0.007,0.026-0.02,0.039v0.04c-0.025,0.025-0.038,0.052-0.038,0.076c0,0.025,0,0.052,0,0.077c0.309,0,0.603,0,0.887,0
					c0-0.025,0-0.052,0-0.077s0-0.05,0-0.076c-0.025,0-0.051-0.014-0.078-0.04c-0.025-0.025-0.051-0.051-0.077-0.077
					c0-0.025-0.013-0.052-0.039-0.077c0-0.026,0-0.052,0-0.077s0-0.052,0-0.077c-0.025-0.025-0.051-0.05-0.078-0.078
					c0-0.024,0-0.05,0-0.076c0-0.026,0-0.052,0-0.078V15c0-0.024,0-0.051,0-0.076C24.207,14.899,24.211,14.869,24.211,14.843z
					 M1.619,10.083c0-0.037,0-0.069,0-0.097c0-0.02,0-0.039,0-0.058c-0.02,0-0.04,0-0.059,0l0.019,0.02c0,0.026,0,0.052,0,0.077
					v0.039L1.619,10.083z M6.303,11.083c0.045,0.013,0.089,0.02,0.135,0.02v-0.02C6.392,11.083,6.348,11.083,6.303,11.083z"/>
			</g>
		</g>
	</g>
</g>
<g>
	<g>
		<path fill="#7A4621" d="M25.25,26.044l6.298,5.25l13.854,0.42c4.759-0.56,8.678-1.819,11.756-3.778
			c4.059-5.624,7.589-8.436,10.592-8.436c-2.039-0.813-4.372-0.48-7,1s-5.295-0.02-8-4.5c-2.52-1.679-7.457-0.462-11.5,1.5
			l4.152-6.5L33.25,15L25.25,26.044z"/>
	</g>
</g>
<g>
	
		<linearGradient id="SVGID_2_" gradientUnits="userSpaceOnUse" x1="-264.061" y1="384.1299" x2="-263.061" y2="383.1282" gradientTransform="matrix(34.4275 0 0 -14.2748 9120.8613 5498.3936)">
		<stop  offset="0.6071" style="stop-color:#FFF6DA"/>
		<stop  offset="1" style="stop-color:#D6BB7E"/>
	</linearGradient>
	<path fill="url(#SVGID_2_)" d="M39.055,14.5H35.49l-6.881,14.275h3.199l1.059-2.422h2.864l-0.186,2.422h3.059L39.055,14.5z
		 M36.471,18.095l-0.521,6.062h-2.156L36.471,18.095z M52.436,16.77c0-1.482-1.387-2.27-3.994-2.27c-3.23,0-4.709,1.03-5.479,3.68
		l-1.931,6.652c-0.24,0.781-0.287,1.168-0.287,1.529c0,1.567,1.455,2.414,4.156,2.414c1.486,0,2.654-0.256,3.471-0.781
		c0.881-0.584,1.434-1.482,1.861-3.051l0.459-1.62h-3.059l-0.506,1.759c-0.358,1.279-0.811,1.659-1.893,1.659
		c-0.832,0-1.291-0.302-1.291-0.859c0-0.171,0.055-0.459,0.147-0.819l2.055-7.072c0.312-1.05,0.817-1.47,1.821-1.47
		c0.833,0,1.285,0.302,1.285,0.84c0,0.229-0.07,0.519-0.211,1.069l-0.381,1.377h3.059l0.475-1.666
		C52.365,17.57,52.436,17.131,52.436,16.77z M63.037,14.5h-8.182l-3.892,14.275h8.414l0.6-2.191h-5.309l1.19-4.468h4.787l0.6-2.158
		h-4.787l0.91-3.3h5.068L63.037,14.5z"/>
</g>
</svg>
