<?xml version="1.0" encoding="utf-8"?>
<!-- Generator: Adobe Illustrator 16.0.0, SVG Export Plug-In . SVG Version: 6.00 Build 0)  -->
<!DOCTYPE svg PUBLIC "-//W3C//DTD SVG 1.1//EN" "http://www.w3.org/Graphics/SVG/1.1/DTD/svg11.dtd">
<svg version="1.1" id="图层_1" xmlns="http://www.w3.org/2000/svg" xmlns:xlink="http://www.w3.org/1999/xlink" x="0px" y="0px"
	 width="76.833px" height="32px" viewBox="0 0 76.833 32" enable-background="new 0 0 76.833 32" xml:space="preserve">
<rect fill="none" width="76.833" height="32"/>
<g>
	<rect x="0.001" fill="none" width="76.833" height="32"/>
	<path fill="none" d="M39.876,13.125c0.102,0,0.196-0.152,0.285-0.441c-0.205-0.058-0.409-0.117-0.616-0.172
		C39.628,12.918,39.737,13.125,39.876,13.125z"/>
	<path fill="none" d="M41.244,13.125c0.077,0,0.149-0.023,0.22-0.061c-0.236-0.072-0.472-0.146-0.711-0.217
		C40.896,13.025,41.058,13.125,41.244,13.125z"/>
	
		<linearGradient id="SVGID_1_" gradientUnits="userSpaceOnUse" x1="-698.8315" y1="154.9473" x2="-699.8316" y2="155.9473" gradientTransform="matrix(76.563 0 0 17.588 53578.6328 -2718.6279)">
		<stop  offset="0.2512" style="stop-color:#FF0000"/>
		<stop  offset="0.5419" style="stop-color:#FFD400"/>
		<stop  offset="0.803" style="stop-color:#000000"/>
	</linearGradient>
	<path fill="url(#SVGID_1_)" d="M67.737,13.061l-6.159-0.588h-10.99c-0.104,0.433-0.215,0.65-0.328,0.652
		c-0.146,0-0.26-0.217-0.342-0.65h-0.063c-0.063,0.433-0.177,0.65-0.339,0.65c-0.146,0-0.262-0.217-0.342-0.65h-0.342
		c-0.145,0.433-0.371,0.65-0.683,0.65s-0.535-0.217-0.683-0.65h-0.338c-0.063,0.433-0.176,0.65-0.34,0.65
		c-0.148,0-0.26-0.217-0.344-0.65h-0.063c-0.063,0.433-0.176,0.65-0.342,0.65c-0.123,0-0.235-0.217-0.34-0.65h-0.309
		c-0.039,0.092-0.083,0.169-0.127,0.242c1.507,1.189,2.961,2.457,4.352,3.814c-2.531-1.412-5.252-2.563-8.153-3.467
		c-0.07,0.037-0.143,0.061-0.22,0.061c-0.186,0-0.348-0.1-0.491-0.277c-0.195-0.058-0.395-0.109-0.591-0.164
		c-0.089,0.289-0.184,0.441-0.285,0.441c-0.14,0-0.248-0.207-0.331-0.613c-0.024-0.006-0.05-0.014-0.075-0.021
		c-0.063,0.421-0.174,0.634-0.336,0.634c-0.146,0-0.259-0.217-0.341-0.65h-2.479c-0.41,0.268-0.722,0.401-0.926,0.401
		c-0.124,0-0.381-0.071-0.774-0.215l-0.558-0.249l0.093-1.551l0.773-2.256L34.83,7.582l-1.704-0.373
		c-0.331,1.652-0.795,2.809-1.394,3.471c-0.482,0.528-1.242,0.941-2.262,1.246c2.873,2.062,5.544,4.389,7.998,7.002
		c-6.932-4.275-15.446-6.576-25.496-6.957c-0.473,0.041-0.939,0.079-1.445,0.131c-2.932,0.312-4.459,0.457-4.584,0.434
		c-0.641-0.389-0.979-0.598-1.021-0.618c-0.371-0.164-0.774-0.257-1.206-0.278c-0.557-0.02-0.971,0.031-1.239,0.154
		c-0.331,0.146-0.753,0.497-1.269,1.055c-0.434,0.454-0.683,1.321-0.745,2.598H0.401c-0.267,0-0.402,0.238-0.402,0.713
		c0,0.477,0.134,0.714,0.402,0.714h0.06C0.523,18.027,0.71,19,1.018,19.783c0.437,1.154,1.312,1.732,2.634,1.732
		c0.291,0,1.083-0.578,2.385-1.732l0.245-0.188c0.206-0.103,0.476-0.113,0.805-0.029c0.456,0.373,3.334,0.584,8.639,0.646
		c5.078,0.063,7.874,0.014,8.391-0.15c1.258-0.354,3.035-0.387,5.324-0.097c1.219,0.683,1.767,1.601,1.642,2.759
		c-0.063,0.596-0.247,1.111-0.558,1.545l1.858,0.526l1.641-4.733v-0.437l0.557-0.062c0.165-0.067,0.446-0.178,0.836-0.342
		c0.187-0.041,0.433,0.029,0.744,0.215h2.625c0.063-0.431,0.174-0.646,0.34-0.646c0.164,0,0.277,0.214,0.34,0.646h0.063
		c0.063-0.431,0.178-0.646,0.342-0.646c0.168,0,0.28,0.214,0.344,0.646h0.308c0.124-0.431,0.362-0.646,0.713-0.646
		c0.328,0,0.558,0.214,0.681,0.646h0.313c0.102-0.431,0.227-0.646,0.372-0.646c0.164,0,0.276,0.214,0.34,0.646h0.03
		c0.062-0.431,0.175-0.646,0.341-0.646c0.142,0,0.267,0.214,0.37,0.646h0.277c0.164-0.431,0.401-0.646,0.713-0.646
		c0.351,0,0.586,0.214,0.709,0.646h0.313c0.063-0.431,0.178-0.646,0.342-0.646c0.166,0,0.278,0.214,0.342,0.646h0.062
		c0.062-0.431,0.176-0.646,0.342-0.646c0.164,0,0.278,0.214,0.341,0.646h0.305c0.166-0.431,0.4-0.646,0.712-0.646
		s0.549,0.214,0.714,0.646h0.311c0.063-0.431,0.174-0.646,0.34-0.646c0.164,0,0.277,0.214,0.34,0.646h0.063
		c0.064-0.431,0.178-0.646,0.344-0.646c0.164,0,0.276,0.214,0.34,0.646h11.236c2.579-0.063,4.697-0.205,6.344-0.433
		c3.924-0.556,6.722-1.567,8.394-3.034C75.076,14.693,72.132,13.721,67.737,13.061z"/>
	
		<linearGradient id="SVGID_2_" gradientUnits="userSpaceOnUse" x1="-698.9019" y1="154.8779" x2="-699.9017" y2="155.8778" gradientTransform="matrix(76.563 0 0 17.588 53578.6328 -2718.6279)">
		<stop  offset="0.2512" style="stop-color:#FF0000"/>
		<stop  offset="0.5419" style="stop-color:#FFD400"/>
		<stop  offset="0.803" style="stop-color:#000000"/>
	</linearGradient>
	<path fill="url(#SVGID_2_)" d="M29.47,11.926c-0.29,0.087-0.593,0.168-0.926,0.236c-0.99,0.044-4.583-0.08-10.773-0.37
		c-1.528-0.083-3.476-0.02-5.799,0.179c10.05,0.381,18.564,2.682,25.496,6.957C35.014,16.314,32.343,13.987,29.47,11.926z"/>
	
		<linearGradient id="SVGID_3_" gradientUnits="userSpaceOnUse" x1="-853.5859" y1="43.5352" x2="-854.4203" y2="43.5352" gradientTransform="matrix(34.4187 -2.538 0.9673 13.1171 29376.1328 -2723.0825)">
		<stop  offset="0" style="stop-color:#00FFFF"/>
		<stop  offset="0.6495" style="stop-color:#FFE3A0"/>
	</linearGradient>
	<path fill="url(#SVGID_3_)" d="M29.47,11.926c-0.29,0.087-0.593,0.168-0.926,0.236c-0.99,0.044-4.583-0.08-10.773-0.37
		c-1.528-0.083-3.476-0.02-5.799,0.179c10.05,0.381,18.564,2.682,25.496,6.957C35.014,16.314,32.343,13.987,29.47,11.926z"/>
	
		<linearGradient id="SVGID_4_" gradientUnits="userSpaceOnUse" x1="-698.8882" y1="154.8906" x2="-699.8883" y2="155.8907" gradientTransform="matrix(76.563 0 0 17.588 53578.6328 -2718.6279)">
		<stop  offset="0.2512" style="stop-color:#FF0000"/>
		<stop  offset="0.5419" style="stop-color:#FFD400"/>
		<stop  offset="0.803" style="stop-color:#000000"/>
	</linearGradient>
	<path fill="url(#SVGID_4_)" d="M39.537,12.475h-0.063c-0.001,0.006-0.002,0.01-0.004,0.017c0.025,0.007,0.051,0.015,0.075,0.021
		C39.542,12.498,39.54,12.488,39.537,12.475z"/>
	
		<linearGradient id="SVGID_5_" gradientUnits="userSpaceOnUse" x1="-822.9448" y1="105.1064" x2="-824.0075" y2="105.1064" gradientTransform="matrix(14.3613 0 0 5.4165 11869.0742 -556.8064)">
		<stop  offset="0" style="stop-color:#00FFFF"/>
		<stop  offset="0.8219" style="stop-color:#FFE3A0"/>
	</linearGradient>
	<path fill="url(#SVGID_5_)" d="M39.537,12.475h-0.063c-0.001,0.006-0.002,0.01-0.004,0.017c0.025,0.007,0.051,0.015,0.075,0.021
		C39.542,12.498,39.54,12.488,39.537,12.475z"/>
	
		<linearGradient id="SVGID_6_" gradientUnits="userSpaceOnUse" x1="-698.7905" y1="154.9883" x2="-699.7906" y2="155.9884" gradientTransform="matrix(76.563 0 0 17.588 53578.6328 -2718.6279)">
		<stop  offset="0.2512" style="stop-color:#FF0000"/>
		<stop  offset="0.5419" style="stop-color:#FFD400"/>
		<stop  offset="0.803" style="stop-color:#000000"/>
	</linearGradient>
	<path fill="url(#SVGID_6_)" d="M44.682,13.125c-0.271,0-0.497-0.217-0.683-0.65h-0.343c-0.062,0.433-0.176,0.65-0.338,0.65
		c-0.125,0-0.239-0.217-0.341-0.65h-0.031c-0.105,0.433-0.217,0.65-0.34,0.65c-0.146,0-0.262-0.217-0.342-0.65h-0.342
		c-0.133,0.308-0.287,0.501-0.46,0.59c2.901,0.903,5.622,2.055,8.153,3.467c-1.391-1.357-2.845-2.625-4.352-3.814
		C45.102,12.984,44.908,13.125,44.682,13.125z"/>
	
		<linearGradient id="SVGID_7_" gradientUnits="userSpaceOnUse" x1="-822.9448" y1="105.4775" x2="-824.0075" y2="105.4775" gradientTransform="matrix(14.3613 0 0 5.4165 11869.0742 -556.8064)">
		<stop  offset="0" style="stop-color:#00FFFF"/>
		<stop  offset="0.8219" style="stop-color:#FFE3A0"/>
	</linearGradient>
	<path fill="url(#SVGID_7_)" d="M44.682,13.125c-0.271,0-0.497-0.217-0.683-0.65h-0.343c-0.062,0.433-0.176,0.65-0.338,0.65
		c-0.125,0-0.239-0.217-0.341-0.65h-0.031c-0.105,0.433-0.217,0.65-0.34,0.65c-0.146,0-0.262-0.217-0.342-0.65h-0.342
		c-0.133,0.308-0.287,0.501-0.46,0.59c2.901,0.903,5.622,2.055,8.153,3.467c-1.391-1.357-2.845-2.625-4.352-3.814
		C45.102,12.984,44.908,13.125,44.682,13.125z"/>
	
		<linearGradient id="SVGID_8_" gradientUnits="userSpaceOnUse" x1="-698.8794" y1="154.9033" x2="-699.8748" y2="155.8988" gradientTransform="matrix(76.563 0 0 17.588 53578.6328 -2718.6279)">
		<stop  offset="0.2512" style="stop-color:#FF0000"/>
		<stop  offset="0.5419" style="stop-color:#FFD400"/>
		<stop  offset="0.803" style="stop-color:#000000"/>
	</linearGradient>
	<path fill="url(#SVGID_8_)" d="M40.221,12.475c-0.02,0.079-0.04,0.144-0.06,0.209c0.196,0.055,0.396,0.106,0.591,0.164
		c-0.08-0.1-0.156-0.218-0.224-0.373H40.221z"/>
	
		<linearGradient id="SVGID_9_" gradientUnits="userSpaceOnUse" x1="-822.9448" y1="105.1367" x2="-824.0075" y2="105.1367" gradientTransform="matrix(14.3613 0 0 5.4165 11869.0742 -556.8064)">
		<stop  offset="0" style="stop-color:#00FFFF"/>
		<stop  offset="0.8219" style="stop-color:#FFE3A0"/>
	</linearGradient>
	<path fill="url(#SVGID_9_)" d="M40.221,12.475c-0.02,0.079-0.04,0.144-0.06,0.209c0.196,0.055,0.396,0.106,0.591,0.164
		c-0.08-0.1-0.156-0.218-0.224-0.373H40.221z"/>
	<g>
		<g>
			<g>
				<g>
					<g>
						<g>
							<linearGradient id="SVGID_10_" gradientUnits="userSpaceOnUse" x1="26.7539" y1="35.377" x2="47.6584" y2="-0.8308">
								<stop  offset="0" style="stop-color:#BB925B"/>
								<stop  offset="0.3429" style="stop-color:#FFF6DA"/>
								<stop  offset="0.6571" style="stop-color:#FFF1B1"/>
								<stop  offset="1" style="stop-color:#B38B54"/>
							</linearGradient>
							<path fill="url(#SVGID_10_)" d="M33.878,8.397l0.021,0.005l0.007,0.08l-0.704,2.055c-0.029,0.086-0.047,0.175-0.052,0.265
								l-0.093,1.551c-0.025,0.415,0.21,0.803,0.59,0.973l0.558,0.249c0.021,0.01,0.043,0.019,0.064,0.026
								c0.626,0.229,0.9,0.275,1.118,0.275c0.357,0,0.738-0.125,1.21-0.401h1.488c0.292,0.52,0.706,0.65,1.048,0.65
								c0.108,0,0.238-0.014,0.374-0.057c0.126,0.041,0.252,0.057,0.368,0.057c0.255,0,0.46-0.073,0.627-0.188
								c0.28,0.152,0.548,0.188,0.74,0.188c0.187,0,0.446-0.036,0.72-0.189c0.213,0.145,0.44,0.189,0.644,0.189
								c0.13,0,0.248-0.02,0.354-0.054c0.106,0.034,0.226,0.054,0.357,0.054c0.151,0,0.397-0.03,0.64-0.188
								c0.274,0.152,0.536,0.188,0.724,0.188c0.19,0,0.457-0.036,0.734-0.186c0.166,0.113,0.371,0.186,0.624,0.186
								c0.109,0,0.24-0.014,0.377-0.058c0.127,0.042,0.253,0.058,0.371,0.058c0.177,0,0.409-0.035,0.633-0.178
								c0.288,0.149,0.563,0.178,0.728,0.178c0.166,0,0.445-0.028,0.736-0.181c0.208,0.137,0.432,0.181,0.63,0.181
								c0.109,0,0.24-0.014,0.378-0.058c0.129,0.042,0.26,0.058,0.383,0.058l0,0c0.516-0.009,0.822-0.314,1.011-0.652H61.53
								l6.085,0.581c3.735,0.563,5.914,1.292,7.184,1.95c-1.57,0.921-3.839,1.596-6.768,2.011c-1.587,0.219-3.684,0.361-6.207,0.423
								H51.31c-0.306-0.545-0.765-0.646-1.063-0.646c-0.108,0-0.237,0.014-0.373,0.057c-0.136-0.043-0.265-0.057-0.373-0.057
								c-0.177,0-0.409,0.035-0.634,0.178c-0.292-0.15-0.567-0.178-0.73-0.178c-0.193,0-0.457,0.034-0.73,0.173
								c-0.221-0.138-0.451-0.173-0.627-0.173c-0.094,0-0.225,0.012-0.367,0.058c-0.137-0.044-0.269-0.058-0.378-0.058
								c-0.146,0-0.38,0.027-0.614,0.172c-0.225-0.112-0.477-0.172-0.749-0.172c-0.163,0-0.44,0.028-0.733,0.179
								c-0.182-0.119-0.391-0.179-0.627-0.179c-0.09,0-0.214,0.011-0.351,0.053c-0.131-0.04-0.255-0.053-0.36-0.053
								c-0.235,0-0.443,0.059-0.625,0.176c-0.221-0.115-0.471-0.176-0.74-0.176c-0.271,0-0.521,0.059-0.743,0.169
								c-0.22-0.135-0.448-0.169-0.621-0.169c-0.094,0-0.224,0.012-0.366,0.058c-0.137-0.044-0.269-0.058-0.378-0.058
								c-0.299,0-0.758,0.102-1.063,0.646h-1.651c-0.313-0.152-0.605-0.227-0.887-0.227c-0.11,0-0.219,0.012-0.323,0.035
								c-0.059,0.013-0.117,0.031-0.173,0.055c-0.278,0.117-0.5,0.206-0.662,0.271l-0.033,0.014l-0.42,0.046
								c-0.507,0.056-0.89,0.484-0.89,0.994v0.269l-0.927,2.673c0.044-1.064-0.335-2.448-2.168-3.474
								c-0.112-0.063-0.235-0.104-0.363-0.12c-1.065-0.135-2.041-0.203-2.901-0.203c-1.092,0-2.041,0.11-2.834,0.334
								c-0.128,0.031-0.824,0.135-4.384,0.135c-1.059,0-2.295-0.009-3.709-0.026c-6.47-0.076-7.818-0.371-8.092-0.476
								c-0.095-0.064-0.2-0.111-0.312-0.14c-0.227-0.058-0.446-0.087-0.652-0.087c-0.308,0-0.593,0.063-0.846,0.19
								c-0.057,0.028-0.111,0.062-0.161,0.101L5.43,18.989c-0.019,0.015-0.038,0.029-0.056,0.046
								c-1.205,1.067-1.688,1.386-1.856,1.478c-0.818-0.031-1.291-0.361-1.568-1.096c-0.269-0.683-0.433-1.558-0.489-2.599
								c-0.014-0.259-0.125-0.489-0.297-0.659c0.174-0.17,0.287-0.404,0.299-0.665c0.069-1.432,0.376-1.858,0.48-1.967
								c0.587-0.635,0.868-0.788,0.952-0.825c0.006-0.003,0.152-0.067,0.599-0.067c0.06,0,0.123,0.001,0.173,0.003
								c0.292,0.015,0.563,0.073,0.81,0.176c0.061,0.036,0.175,0.106,0.346,0.21l0.603,0.367c0.103,0.063,0.216,0.105,0.334,0.127
								c0.061,0.012,0.168,0.02,0.23,0.02c0.241,0,0.981-0.052,4.641-0.44c2.192-0.228,4.097-0.343,5.662-0.343
								c0.508,0,0.987,0.013,1.433,0.037c5.455,0.256,8.823,0.38,10.297,0.38c0.237,0,0.426-0.004,0.567-0.01
								c0.053-0.002,0.105-0.009,0.156-0.02c1.732-0.354,2.951-0.939,3.729-1.791C33.063,10.698,33.526,9.727,33.878,8.397
								 M33.126,7.209c-0.331,1.652-0.795,2.809-1.394,3.471c-0.619,0.678-1.682,1.174-3.188,1.482
								c-0.129,0.006-0.304,0.009-0.522,0.009c-1.453,0-4.871-0.127-10.25-0.379c-0.458-0.025-0.951-0.038-1.479-0.038
								c-1.596,0-3.518,0.115-5.765,0.348c-2.728,0.29-4.24,0.436-4.538,0.436c-0.022,0-0.038,0-0.046-0.002
								c-0.641-0.389-0.979-0.598-1.021-0.618c-0.371-0.164-0.774-0.257-1.206-0.278c-0.077-0.003-0.152-0.004-0.223-0.004
								c-0.445,0-0.785,0.052-1.016,0.158c-0.331,0.146-0.753,0.497-1.269,1.055c-0.434,0.454-0.683,1.321-0.745,2.598H0.401
								c-0.267,0-0.402,0.238-0.402,0.713c0,0.477,0.134,0.714,0.402,0.714h0.06C0.523,18.027,0.71,19,1.018,19.783
								c0.437,1.154,1.312,1.732,2.634,1.732c0.291,0,1.083-0.578,2.385-1.732l0.245-0.188c0.114-0.057,0.248-0.085,0.4-0.085
								c0.123,0,0.258,0.019,0.405,0.056c0.456,0.373,3.334,0.584,8.639,0.646c1.418,0.018,2.659,0.026,3.721,0.026
								c2.741,0,4.297-0.059,4.67-0.177c0.692-0.194,1.542-0.292,2.548-0.292c0.821,0,1.747,0.065,2.776,0.195
								c1.219,0.683,1.767,1.601,1.642,2.759c-0.063,0.596-0.247,1.111-0.558,1.545l1.858,0.526l1.641-4.733v-0.437l0.557-0.062
								c0.165-0.067,0.446-0.178,0.836-0.342c0.034-0.008,0.071-0.012,0.109-0.012c0.171,0,0.381,0.075,0.635,0.227h2.625
								c0.063-0.431,0.174-0.646,0.34-0.646c0.164,0,0.277,0.214,0.34,0.646h0.063c0.063-0.431,0.178-0.646,0.342-0.646
								c0.168,0,0.28,0.214,0.344,0.646h0.308c0.124-0.431,0.362-0.646,0.713-0.646c0.328,0,0.558,0.214,0.681,0.646h0.313
								c0.102-0.431,0.227-0.646,0.372-0.646c0.164,0,0.276,0.214,0.34,0.646h0.03c0.062-0.431,0.175-0.646,0.341-0.646
								c0.142,0,0.267,0.214,0.37,0.646h0.277c0.164-0.431,0.401-0.646,0.713-0.646c0.351,0,0.586,0.214,0.709,0.646h0.313
								c0.063-0.431,0.178-0.646,0.342-0.646c0.166,0,0.278,0.214,0.342,0.646h0.062c0.062-0.431,0.176-0.646,0.342-0.646
								c0.164,0,0.278,0.214,0.341,0.646h0.305c0.166-0.431,0.4-0.646,0.712-0.646s0.549,0.214,0.714,0.646h0.311
								c0.063-0.431,0.174-0.646,0.34-0.646c0.164,0,0.277,0.214,0.34,0.646h0.063c0.064-0.431,0.178-0.646,0.344-0.646
								c0.164,0,0.276,0.214,0.34,0.646h11.236c2.579-0.063,4.697-0.205,6.344-0.433c3.924-0.556,6.722-1.567,8.394-3.034
								c-1.485-1.277-4.429-2.25-8.824-2.91l-6.159-0.588h-10.99c-0.104,0.433-0.215,0.65-0.328,0.652
								c-0.146,0-0.26-0.217-0.342-0.65h-0.063c-0.063,0.433-0.177,0.65-0.339,0.65c-0.146,0-0.262-0.217-0.342-0.65h-0.342
								c-0.145,0.433-0.371,0.65-0.683,0.65s-0.535-0.217-0.683-0.65h-0.338c-0.063,0.433-0.176,0.65-0.34,0.65
								c-0.148,0-0.26-0.217-0.344-0.65h-0.063c-0.063,0.433-0.176,0.65-0.342,0.65c-0.123,0-0.235-0.217-0.34-0.65h-0.309
								c-0.186,0.433-0.424,0.65-0.71,0.65c-0.271,0-0.497-0.217-0.683-0.65h-0.343c-0.062,0.433-0.176,0.65-0.338,0.65
								c-0.125,0-0.239-0.217-0.341-0.65h-0.031c-0.105,0.433-0.217,0.65-0.34,0.65c-0.146,0-0.262-0.217-0.342-0.65h-0.342
								c-0.188,0.433-0.414,0.65-0.68,0.65c-0.289,0-0.527-0.217-0.715-0.65h-0.308c-0.106,0.433-0.22,0.65-0.345,0.65
								c-0.145,0-0.256-0.217-0.34-0.65h-0.063c-0.063,0.433-0.176,0.65-0.34,0.65c-0.146,0-0.26-0.217-0.342-0.65h-2.479
								c-0.41,0.268-0.722,0.401-0.926,0.401c-0.124,0-0.381-0.071-0.774-0.215l-0.558-0.249l0.093-1.551l0.773-2.256L34.83,7.582
								L33.126,7.209L33.126,7.209z"/>
						</g>
					</g>
				</g>
			</g>
		</g>
	</g>
</g>
<g>
	<g>
		<path fill="#7A4621" d="M39,27.047l5.631,4.694l12.388,0.375c4.255-0.501,7.758-1.626,10.511-3.378
			c3.629-5.028,6.785-7.543,9.471-7.543c-1.824-0.728-3.91-0.43-6.26,0.895s-4.732-0.018-7.152-4.023
			c-2.252-1.502-6.666-0.412-10.282,1.343l3.714-5.813l-10.866,3.576L39,27.047z"/>
	</g>
</g>
<linearGradient id="SVGID_11_" gradientUnits="userSpaceOnUse" x1="-687.313" y1="169.7549" x2="-686.313" y2="170.7565" gradientTransform="matrix(30.7822 0 0 12.7634 21200.1621 -2149.4492)">
	<stop  offset="0.6071" style="stop-color:#FFF6DA"/>
	<stop  offset="1" style="stop-color:#D6BB7E"/>
</linearGradient>
<path fill="url(#SVGID_11_)" d="M51.342,16.727h-3.188l-6.151,12.763h2.86l0.946-2.164h2.563l-0.168,2.164h2.735L51.342,16.727z
	 M49.032,19.939l-0.466,5.42h-1.928L49.032,19.939z M63.307,18.755c0-1.325-1.239-2.028-3.57-2.028c-2.889,0-4.211,0.92-4.9,3.289
	l-1.726,5.947c-0.216,0.699-0.258,1.045-0.258,1.367c0,1.402,1.302,2.158,3.717,2.158c1.329,0,2.373-0.229,3.104-0.697
	c0.785-0.521,1.279-1.326,1.662-2.729l0.41-1.448h-2.734l-0.452,1.571c-0.319,1.145-0.724,1.483-1.69,1.483
	c-0.746,0-1.156-0.271-1.156-0.769c0-0.151,0.05-0.41,0.134-0.732l1.837-6.323c0.277-0.938,0.73-1.313,1.628-1.313
	c0.746,0,1.147,0.271,1.147,0.752c0,0.205-0.063,0.463-0.188,0.955l-0.341,1.231h2.735l0.424-1.489
	C63.245,19.471,63.307,19.078,63.307,18.755z M72.786,16.727h-7.313l-3.479,12.763h7.522l0.536-1.959h-4.747l1.065-3.994h4.279
	l0.535-1.931h-4.279l0.814-2.949h4.529L72.786,16.727z"/>
</svg>
