<?xml version="1.0" encoding="utf-8"?>
<!-- Generator: Adobe Illustrator 16.0.0, SVG Export Plug-In . SVG Version: 6.00 Build 0)  -->
<!DOCTYPE svg PUBLIC "-//W3C//DTD SVG 1.1//EN" "http://www.w3.org/Graphics/SVG/1.1/DTD/svg11.dtd">
<svg version="1.1" id="图层_1" xmlns="http://www.w3.org/2000/svg" xmlns:xlink="http://www.w3.org/1999/xlink" x="0px" y="0px"
	 width="87.167px" height="32px" viewBox="0 0 87.167 32" enable-background="new 0 0 87.167 32" xml:space="preserve">
<rect fill="none" width="87.167" height="32"/>
<g>
	<g>
		<g>
			<g>
				<g>
					
						<linearGradient id="SVGID_1_" gradientUnits="userSpaceOnUse" x1="-863.4883" y1="25.7803" x2="-862.1796" y2="24.8994" gradientTransform="matrix(86.7847 0 0 22.734 74908.1563 -557.6934)">
						<stop  offset="0.3251" style="stop-color:#000000"/>
						<stop  offset="0.6059" style="stop-color:#FFD400"/>
						<stop  offset="0.8768" style="stop-color:#FF0000"/>
					</linearGradient>
					<path fill="url(#SVGID_1_)" d="M67.82,18.114c0.12,0.104,0.254,0.173,0.396,0.216h2.052l0.095-0.063
						c0.1-0.041,0.184-0.104,0.244-0.186c0.225-0.227,0.338-0.51,0.338-0.855c-0.021-0.349-0.123-0.612-0.308-0.796
						c-0.062-0.042-0.123-0.082-0.185-0.123l-0.093-0.029h-2.235c-0.123,0.06-0.244,0.152-0.367,0.275
						c-0.228,0.243-0.338,0.521-0.338,0.826S67.552,17.932,67.82,18.114z M86.937,17.686c-0.652,0.431-1.419,0.897-2.297,1.41
						c-1.758,1.041-3.227,1.766-4.412,2.174c-2.124,0.758-4.188,1.269-6.189,1.532c-0.61,0.063-1.185,0.104-1.715,0.123
						L41.53,23.078c-0.021-0.061-0.062-0.112-0.124-0.153c-0.123-0.123-0.266-0.215-0.428-0.276
						c-0.144-0.08-0.356-0.144-0.644-0.183l-0.368-0.063l-5.851,0.031l-0.031,4.688l-0.214,0.123
						c-0.165,0.08-0.328,0.121-0.493,0.121c-0.142,0-0.294-0.041-0.457-0.121l-0.246-0.095l-0.06-4.84l-0.276-0.063l-0.062-0.83
						l-0.184,0.37L27.989,21.7l-0.153-0.397l-0.4-0.033l-0.152,0.459l-3.31,0.125l-0.214-0.396l-0.458-0.034l-0.214,0.433h-3.432
						l-0.245-0.459h-0.276l-0.244,0.396l-3.218,0.063l-0.275-0.396H15.09l-0.214,0.428l-3.4-0.123l-0.307-0.457H10.71l-0.216,0.185
						l-0.732,0.366c-0.636,0.041-1.33,0.082-2.085,0.121c-1.513,0.082-2.594,0.111-3.248,0.092c-0.756-0.021-1.288-0.038-1.592-0.06
						c-0.267-0.021-0.451-0.053-0.554-0.093c-0.062-0.042-0.123-0.093-0.185-0.154l-0.06-0.092l-1.38,0.123
						c-0.082-0.063-0.131-0.132-0.152-0.215c-0.021-0.041-0.042-0.081-0.062-0.121l-0.03-1.503L0.231,19.37
						c-0.021-0.204-0.042-0.438-0.063-0.704c-0.021-0.552-0.021-0.99,0-1.318c0.021-0.326,0.063-0.673,0.124-1.041l0.121-0.429
						v-1.623c0-0.041,0-0.082,0-0.123c0.021-0.122,0.05-0.215,0.092-0.276c0.063-0.06,0.123-0.093,0.185-0.093
						c0.021-0.021,0.041-0.021,0.062,0h1.502l0.335-0.061c0.286-0.041,0.542-0.071,0.766-0.091c0.227-0.021,1.328,0,3.31,0.062
						c1,0.02,1.972,0.041,2.911,0.062l0.95,0.397l0.121,0.123l0.521-0.032l0.307-0.427l3.339-0.123l0.275,0.397h0.276l0.338-0.397
						h3.094l0.275,0.427l0.308,0.032l0.245-0.459l3.43-0.032l0.215,0.43l0.462-0.03l0.242-0.429l3.218,0.123l0.153,0.397
						l0.429,0.029l0.183-0.427l4.107-0.123l0.153,0.398l0.062-0.858l0.276-0.031V4.878l0.151-0.122
						c0.123-0.082,0.267-0.124,0.432-0.124c0.183,0,0.377,0.042,0.58,0.124c0.123,0.04,0.215,0.082,0.276,0.122l0.092,7.876h4.963
						l0.583,0.549l0.581,1.259l0.214,0.029c0.184,0.021,0.328-0.021,0.43-0.123c0.227-0.184,0.235-0.469,0.029-0.856
						c-0.059-0.123-0.142-0.246-0.244-0.368l-0.121-0.153l2.971,0.123l0.583,1.133l0.09,0.062c0.063,0.061,0.135,0.102,0.217,0.122
						c0.223,0.103,0.418,0.062,0.582-0.122c0.142-0.163,0.132-0.408-0.032-0.734c-0.041-0.123-0.101-0.235-0.183-0.339l-0.095-0.121
						l1.899,0.183l0.582,1.104l0.063,0.062c0.082,0.019,0.151,0.041,0.215,0.06c0.225,0.041,0.397-0.041,0.521-0.244
						c0.122-0.184,0.112-0.408-0.029-0.675c-0.04-0.082-0.092-0.162-0.151-0.245l-0.063-0.092h1.841l0.52,1.073l0.063,0.062
						c0.063,0.038,0.135,0.07,0.217,0.091c0.205,0.063,0.407-0.021,0.61-0.245c0.123-0.144,0.103-0.357-0.063-0.644
						c-0.041-0.082-0.09-0.162-0.15-0.245l-0.094-0.123h1.9l0.489,1.012l0.091,0.093c0.084,0.062,0.165,0.1,0.245,0.123
						c0.245,0.101,0.45,0.009,0.614-0.277c0.08-0.144,0.063-0.347-0.063-0.611c-0.041-0.062-0.095-0.133-0.152-0.216l-0.092-0.092
						l1.623-0.063l0.43,1.043l0.093,0.062c0.103,0.041,0.192,0.082,0.274,0.122c0.307,0.082,0.531,0.032,0.672-0.152
						c0.123-0.143,0.104-0.367-0.059-0.675c-0.041-0.103-0.104-0.203-0.185-0.307l-0.095-0.121l1.686,0.06l0.583,1.043l0.063,0.091
						c0.082,0.041,0.15,0.07,0.213,0.094c0.226,0.06,0.41-0.012,0.552-0.216c0.144-0.205,0.134-0.429-0.029-0.673
						c-0.063-0.062-0.133-0.133-0.214-0.216l-0.093-0.062l1.868,0.031l0.459,0.888l0.093,0.031c0.062,0.02,0.124,0.041,0.187,0.062
						c0.201,0,0.346-0.082,0.426-0.246c0.104-0.183,0.104-0.378,0-0.583c-0.039-0.079-0.092-0.151-0.151-0.213l-0.06-0.063
						l2.021-0.028l17.096,3.063L86.937,17.686z"/>
				</g>
			</g>
		</g>
	</g>
</g>
<linearGradient id="SVGID_2_" gradientUnits="userSpaceOnUse" x1="14.5894" y1="25.6465" x2="32.2396" y2="15.4785">
	<stop  offset="0.3505" style="stop-color:#FFE3A0"/>
	<stop  offset="1" style="stop-color:#00FFFF"/>
</linearGradient>
<path fill="url(#SVGID_2_)" d="M34.062,23.5c0,0-1.637-4.784-5.255-9.791l-0.85,0.025l-0.183,0.427l-0.429-0.029l-0.153-0.397
	l-3.218-0.123l-0.242,0.43L23.27,14.07l-0.215-0.43l-3.43,0.032l-0.054,0.102C24.612,15.061,30.231,17.795,34.062,23.5z"/>
<linearGradient id="SVGID_3_" gradientUnits="userSpaceOnUse" x1="30.8071" y1="23.04" x2="46.4529" y2="14.0268" gradientTransform="matrix(0.9994 0.034 -0.034 0.9994 3.8469 -0.8838)">
	<stop  offset="0.1781" style="stop-color:#FFE3A0"/>
	<stop  offset="1" style="stop-color:#00FFFF"/>
</linearGradient>
<path fill="url(#SVGID_3_)" d="M44.75,13.336c0.082,0.104,0.142,0.216,0.183,0.339c0.164,0.326,0.174,0.571,0.032,0.734
	c-0.164,0.184-0.359,0.225-0.582,0.122c-0.082-0.021-0.154-0.062-0.217-0.122l-0.09-0.062l-0.583-1.134l-2.971-0.123l0.121,0.153
	c0.102,0.122,0.185,0.245,0.244,0.367c0.206,0.388,0.198,0.673-0.029,0.856c-0.048,0.048-0.107,0.08-0.173,0.102
	c3.584,0.981,7.383,2.784,10.34,6.047c0,0-1.294-2.86-3.737-6.027c-0.029-0.009-0.055-0.017-0.088-0.024l-0.063-0.063l-0.169-0.319
	c-0.214-0.27-0.437-0.539-0.667-0.809l-1.646-0.159L44.75,13.336z"/>
<linearGradient id="SVGID_4_" gradientUnits="userSpaceOnUse" x1="25.9468" y1="14.603" x2="41.5931" y2="5.5894" gradientTransform="matrix(0.9994 0.034 -0.034 0.9994 3.8469 -0.8838)">
	<stop  offset="0.1781" style="stop-color:#FFE3A0"/>
	<stop  offset="1" style="stop-color:#00FFFF"/>
</linearGradient>
<path fill="url(#SVGID_4_)" d="M40.152,14.432l-0.521-1.129l-0.583-0.549h-4.963L34.013,6.46l-1.458,2.264v4.396l-0.276,0.03
	l-0.021,0.301C34.251,13.463,37.104,13.659,40.152,14.432z"/>
<g>
	<g>
		<g>
			<g>
				<g>
					<g>
						<linearGradient id="SVGID_5_" gradientUnits="userSpaceOnUse" x1="83.8452" y1="5.8872" x2="1.9815" y2="27.3321">
							<stop  offset="0" style="stop-color:#BB925B"/>
							<stop  offset="0.3429" style="stop-color:#FFF6DA"/>
							<stop  offset="0.6571" style="stop-color:#FFF1B1"/>
							<stop  offset="1" style="stop-color:#B38B54"/>
						</linearGradient>
						<path fill="url(#SVGID_5_)" d="M33.464,13.538c0.17,0.136,0.387,0.217,0.622,0.217h4.566l0.153,0.144l0.5,1.083
							c0.144,0.312,0.437,0.527,0.777,0.572l0.234,0.031c0.069,0.008,0.135,0.011,0.199,0.011c0.388,0,0.745-0.137,1.013-0.386
							c0.173-0.153,0.492-0.507,0.513-1.055l0.828,0.034l0.317,0.616c0.076,0.148,0.188,0.275,0.326,0.37l0.038,0.026
							c0.146,0.122,0.313,0.215,0.493,0.273c0.186,0.075,0.376,0.113,0.568,0.113c0.414,0,0.805-0.182,1.108-0.521
							c0.089-0.103,0.221-0.289,0.292-0.552l0.24,0.456c0.047,0.089,0.106,0.17,0.178,0.241l0.063,0.063
							c0.134,0.134,0.302,0.227,0.486,0.269c0.04,0.009,0.074,0.02,0.106,0.029c0.002,0,0.046,0.014,0.049,0.015
							c0.033,0.01,0.066,0.018,0.101,0.024c0.1,0.018,0.195,0.026,0.288,0.026c0.521,0,0.984-0.269,1.246-0.703
							c0.069-0.105,0.147-0.251,0.199-0.433l0.183,0.378c0.05,0.103,0.117,0.197,0.199,0.277l0.063,0.062
							c0.055,0.054,0.115,0.101,0.181,0.141c0.146,0.089,0.305,0.157,0.47,0.201c0.131,0.038,0.266,0.057,0.4,0.057
							c0.311,0,0.773-0.103,1.239-0.616c0.084-0.099,0.206-0.275,0.271-0.521l0.148,0.307c0.048,0.099,0.112,0.19,0.189,0.268
							l0.091,0.092c0.035,0.036,0.073,0.069,0.114,0.099c0.159,0.119,0.333,0.208,0.516,0.267c0.168,0.063,0.34,0.094,0.511,0.094
							c0.305,0,0.872-0.104,1.285-0.799c0.078,0.152,0.194,0.283,0.338,0.378l0.093,0.062c0.057,0.038,0.118,0.07,0.182,0.095
							c0.077,0.031,0.146,0.062,0.207,0.092c0.058,0.028,0.118,0.05,0.18,0.067c0.179,0.048,0.354,0.072,0.52,0.072
							c0.48,0,0.901-0.199,1.188-0.562c0.064-0.078,0.133-0.18,0.189-0.305l0.091,0.164c0.016,0.028,0.032,0.055,0.051,0.081
							l0.063,0.092c0.096,0.138,0.225,0.25,0.375,0.326c0.114,0.057,0.209,0.097,0.296,0.131c0.036,0.014,0.072,0.025,0.109,0.035
							c0.134,0.036,0.27,0.054,0.402,0.054c0.493,0,0.93-0.238,1.224-0.664c0.076-0.109,0.137-0.224,0.183-0.341l0.101,0.196
							c0.119,0.23,0.323,0.406,0.569,0.489l0.109,0.037l0.103,0.034l0.075,0.025c0.101,0.033,0.206,0.05,0.312,0.05
							c0.571,0,1.058-0.29,1.31-0.777c0.061-0.111,0.106-0.227,0.14-0.345l0.705-0.01l5.576,0.999h-1.393
							c-0.153,0-0.304,0.035-0.441,0.103c-0.222,0.109-0.429,0.262-0.656,0.49c-0.397,0.425-0.607,0.947-0.607,1.509
							c0,0.62,0.28,1.161,0.791,1.529c0.211,0.172,0.452,0.3,0.718,0.379c0.093,0.028,0.19,0.043,0.288,0.043h2.052
							c0.196,0,0.388-0.058,0.551-0.165l0.032-0.021c0.199-0.1,0.372-0.236,0.51-0.403c0.383-0.407,0.584-0.93,0.584-1.514
							c0-0.021-0.001-0.041-0.002-0.062c-0.037-0.597-0.238-1.082-0.599-1.442c-0.047-0.047-0.098-0.088-0.152-0.125l-0.042-0.028
							l9.743,1.746l3.448,0.797c-0.069,0.04-0.14,0.081-0.211,0.123c-1.694,1.003-3.116,1.706-4.238,2.093
							c-2.048,0.73-4.061,1.229-5.957,1.479c-0.583,0.061-1.138,0.1-1.616,0.117l-30.361,0.151c-0.168-0.14-0.356-0.252-0.56-0.337
							c-0.251-0.127-0.553-0.213-0.894-0.259l-0.368-0.063c-0.056-0.01-0.113-0.015-0.17-0.015c-0.002,0-0.003,0-0.005,0
							l-5.851,0.031c-0.269,0.001-0.513,0.109-0.691,0.283c-0.038-0.052-0.081-0.1-0.128-0.143l-0.018-0.23
							c-0.033-0.449-0.363-0.82-0.805-0.907c-0.064-0.013-0.129-0.019-0.193-0.019c-0.296,0-0.577,0.132-0.766,0.357l-2.865-0.062
							c-0.169-0.231-0.432-0.384-0.726-0.408l-0.4-0.033c-0.028-0.002-0.056-0.003-0.083-0.003c-0.354,0-0.678,0.188-0.857,0.485
							l-2.039,0.076c-0.172-0.214-0.427-0.351-0.706-0.371l-0.458-0.034c-0.025-0.002-0.05-0.003-0.075-0.003
							c-0.33,0-0.638,0.163-0.823,0.433h-2.226c-0.183-0.284-0.499-0.459-0.841-0.459h-0.276c-0.319,0-0.618,0.152-0.805,0.407
							l-2.142,0.042c-0.189-0.243-0.48-0.387-0.79-0.387H15.09c-0.32,0-0.618,0.153-0.804,0.405l-2.264-0.081l-0.023-0.034
							c-0.186-0.276-0.497-0.442-0.83-0.442H10.71c-0.238,0-0.469,0.085-0.65,0.24l-0.123,0.104l-0.441,0.221
							c-0.577,0.037-1.2,0.073-1.874,0.107c-1.177,0.064-2.103,0.097-2.754,0.097c-0.152,0-0.289-0.002-0.412-0.006
							c-0.62-0.017-1.237-0.035-1.543-0.057c-0.053-0.004-0.097-0.008-0.133-0.013c-0.189-0.209-0.458-0.329-0.742-0.329
							c-0.029,0-0.059,0.001-0.089,0.004l-0.52,0.046l-0.015-0.785c-0.002-0.095-0.017-0.188-0.045-0.278L1.216,19.17
							c-0.017-0.172-0.034-0.36-0.048-0.541c-0.02-0.515-0.021-0.924-0.001-1.216c0.017-0.27,0.052-0.568,0.104-0.888l0.106-0.375
							c0.025-0.088,0.038-0.18,0.038-0.272v-1.114h0.841c0.061,0,0.121-0.005,0.181-0.017l0.296-0.055
							c0.266-0.038,0.503-0.066,0.714-0.084c0.047-0.003,0.13-0.004,0.249-0.004c0.48,0,1.442,0.023,2.951,0.07l2.721,0.057
							l0.59,0.247c0.186,0.179,0.434,0.278,0.691,0.278c0.021,0,0.041,0,0.062-0.002l0.521-0.032c0.3-0.019,0.575-0.17,0.75-0.414
							l0.021-0.029l2.305-0.085c0.189,0.238,0.477,0.378,0.783,0.378h0.276c0.293,0,0.572-0.129,0.762-0.353l0.039-0.045h2.087
							c0.166,0.237,0.426,0.391,0.715,0.421l0.308,0.032c0.035,0.003,0.07,0.005,0.104,0.005c0.341,0,0.661-0.175,0.844-0.464
							l2.228-0.021c0.186,0.264,0.49,0.424,0.817,0.424c0.021,0,0.042,0,0.063-0.002l0.462-0.029
							c0.297-0.019,0.568-0.169,0.742-0.405l1.992,0.076c0.171,0.241,0.444,0.399,0.748,0.419l0.429,0.029
							c0.023,0.001,0.046,0.002,0.069,0.002c0.336,0,0.648-0.169,0.832-0.446l2.827-0.084c0.188,0.236,0.476,0.378,0.783,0.378
							c0.049,0,0.098-0.003,0.147-0.011c0.463-0.069,0.817-0.45,0.851-0.917l0.016-0.223C33.329,13.769,33.408,13.66,33.464,13.538
							 M33.138,4.633c-0.165,0-0.309,0.042-0.432,0.124l-0.151,0.122v8.242l-0.276,0.03l-0.062,0.858l-0.153-0.397l-4.107,0.123
							l-0.183,0.427l-0.429-0.029l-0.153-0.397l-3.218-0.123l-0.242,0.43l-0.462,0.029l-0.215-0.43l-3.43,0.032l-0.245,0.459
							l-0.308-0.032l-0.275-0.427h-3.094l-0.338,0.397h-0.276l-0.275-0.397l-3.339,0.123l-0.307,0.427l-0.521,0.032l-0.121-0.123
							l-0.95-0.397c-0.939-0.021-1.911-0.041-2.911-0.062c-1.482-0.046-2.472-0.07-2.972-0.07c-0.168,0-0.281,0.003-0.338,0.008
							c-0.224,0.02-0.48,0.05-0.766,0.091l-0.335,0.062H0.752c-0.01-0.011-0.021-0.016-0.031-0.016
							c-0.011,0-0.021,0.005-0.031,0.016c-0.062,0-0.122,0.032-0.185,0.092c-0.042,0.062-0.071,0.154-0.092,0.276
							c0,0.041,0,0.082,0,0.123v1.623l-0.121,0.429c-0.061,0.368-0.103,0.715-0.124,1.041c-0.021,0.328-0.021,0.767,0,1.318
							c0.021,0.266,0.042,0.5,0.063,0.704l0.183,0.586l0.03,1.503c0.02,0.04,0.041,0.08,0.062,0.121
							c0.021,0.083,0.07,0.152,0.152,0.215l1.38-0.123l0.06,0.092c0.062,0.062,0.123,0.112,0.185,0.154
							c0.103,0.04,0.287,0.072,0.554,0.093c0.304,0.021,0.836,0.039,1.592,0.06c0.13,0.004,0.276,0.006,0.439,0.006
							c0.66,0,1.596-0.032,2.808-0.098c0.755-0.039,1.449-0.08,2.085-0.121l0.732-0.366l0.216-0.185h0.459l0.307,0.457l3.4,0.123
							l0.214-0.428h0.308l0.275,0.396l3.218-0.063l0.244-0.396h0.276l0.245,0.459h3.432l0.214-0.433l0.458,0.034l0.214,0.396
							l3.31-0.125l0.152-0.459l0.4,0.033l0.153,0.397l4.103,0.088l0.184-0.37l0.062,0.83l0.276,0.063l0.06,4.84l0.246,0.095
							c0.163,0.08,0.315,0.121,0.457,0.121c0.165,0,0.328-0.041,0.493-0.121l0.214-0.123l0.031-4.688l5.851-0.031l0.368,0.063
							c0.288,0.039,0.5,0.103,0.644,0.183c0.162,0.062,0.305,0.153,0.428,0.276c0.062,0.041,0.103,0.093,0.124,0.153l30.794-0.153
							c0.53-0.019,1.104-0.06,1.715-0.123c2.002-0.264,4.065-0.774,6.189-1.532c1.186-0.408,2.654-1.133,4.412-2.174
							c0.878-0.513,1.645-0.979,2.297-1.41l-5.818-1.345l-17.096-3.063l-2.021,0.029l0.06,0.063c0.06,0.063,0.112,0.134,0.151,0.213
							c0.104,0.205,0.104,0.4,0,0.583c-0.08,0.164-0.225,0.246-0.426,0.246c-0.063-0.021-0.125-0.042-0.187-0.062l-0.093-0.031
							l-0.459-0.889l-1.868-0.031l0.093,0.063c0.081,0.083,0.15,0.154,0.214,0.216c0.163,0.244,0.173,0.468,0.029,0.673
							c-0.109,0.159-0.244,0.237-0.404,0.237c-0.047,0-0.097-0.007-0.147-0.021c-0.063-0.024-0.131-0.053-0.213-0.094l-0.063-0.092
							l-0.583-1.043l-1.686-0.061l0.095,0.121c0.08,0.104,0.144,0.205,0.185,0.308c0.162,0.308,0.182,0.532,0.059,0.675
							c-0.098,0.127-0.234,0.19-0.411,0.19c-0.079,0-0.166-0.013-0.261-0.038c-0.082-0.04-0.172-0.081-0.274-0.122l-0.093-0.062
							l-0.43-1.043l-1.623,0.063l0.092,0.092c0.058,0.083,0.111,0.154,0.152,0.216c0.125,0.265,0.143,0.468,0.063,0.611
							c-0.121,0.211-0.265,0.316-0.43,0.316c-0.059,0-0.12-0.013-0.185-0.04c-0.08-0.022-0.161-0.061-0.245-0.123l-0.091-0.092
							l-0.489-1.013h-1.9l0.094,0.123c0.061,0.083,0.109,0.163,0.15,0.245c0.166,0.287,0.187,0.5,0.063,0.645
							c-0.159,0.175-0.317,0.265-0.478,0.265c-0.044,0-0.089-0.007-0.133-0.021c-0.082-0.021-0.154-0.053-0.217-0.091l-0.063-0.062
							l-0.52-1.073H47.69l0.063,0.092c0.06,0.083,0.111,0.163,0.151,0.245c0.142,0.268,0.151,0.49,0.029,0.675
							c-0.103,0.169-0.239,0.254-0.412,0.254c-0.035,0-0.071-0.003-0.108-0.01c-0.063-0.019-0.133-0.041-0.215-0.06l-0.063-0.063
							l-0.582-1.104l-1.899-0.184l0.095,0.121c0.082,0.104,0.142,0.216,0.183,0.339c0.164,0.326,0.174,0.571,0.032,0.734
							c-0.105,0.118-0.224,0.177-0.354,0.177c-0.073,0-0.148-0.019-0.229-0.055c-0.082-0.021-0.154-0.062-0.217-0.122l-0.09-0.062
							l-0.583-1.134l-2.971-0.123l0.121,0.153c0.102,0.122,0.185,0.245,0.244,0.367c0.206,0.388,0.198,0.673-0.029,0.856
							c-0.085,0.085-0.199,0.128-0.341,0.128c-0.028,0-0.058-0.001-0.088-0.005l-0.214-0.028l-0.581-1.26l-0.583-0.549h-4.963
							l-0.092-7.876c-0.061-0.04-0.153-0.082-0.276-0.122C33.515,4.675,33.321,4.633,33.138,4.633L33.138,4.633z M68.216,18.331
							c-0.143-0.043-0.276-0.112-0.396-0.216c-0.268-0.183-0.4-0.431-0.4-0.735s0.11-0.583,0.338-0.826
							c0.123-0.123,0.244-0.215,0.367-0.275h2.235l0.093,0.029c0.062,0.041,0.123,0.082,0.185,0.123
							c0.185,0.185,0.286,0.448,0.308,0.797c0,0.346-0.113,0.629-0.338,0.855c-0.061,0.082-0.145,0.145-0.244,0.186l-0.095,0.063
							H68.216L68.216,18.331z"/>
					</g>
				</g>
			</g>
		</g>
	</g>
</g>
<rect fill="none" width="87.167" height="32"/>
<g>
	<g>
		<path fill="#7A4621" d="M48.941,27.297l5.631,4.694l12.389,0.375c4.254-0.501,7.758-1.626,10.511-3.378
			c3.629-5.028,6.784-7.543,9.471-7.543c-1.821-0.728-3.909-0.43-6.259,0.895s-4.732-0.018-7.153-4.023
			c-2.252-1.502-6.666-0.412-10.282,1.343l3.715-5.813l-10.867,3.576L48.941,27.297z"/>
	</g>
</g>
<linearGradient id="SVGID_6_" gradientUnits="userSpaceOnUse" x1="-847.3081" y1="44.0938" x2="-846.3081" y2="45.0952" gradientTransform="matrix(30.7822 0 0 12.7634 26135.1309 -545.3481)">
	<stop  offset="0.6071" style="stop-color:#FFF6DA"/>
	<stop  offset="1" style="stop-color:#D6BB7E"/>
</linearGradient>
<path fill="url(#SVGID_6_)" d="M61.285,16.977h-3.188l-6.151,12.763h2.859l0.947-2.164h2.561l-0.167,2.164h2.735L61.285,16.977z
	 M58.973,20.189l-0.466,5.42H56.58L58.973,20.189z M73.248,19.005c0-1.325-1.238-2.028-3.569-2.028c-2.89,0-4.212,0.92-4.899,3.289
	l-1.726,5.947c-0.218,0.699-0.259,1.045-0.259,1.367c0,1.402,1.302,2.158,3.718,2.158c1.327,0,2.372-0.229,3.104-0.697
	c0.785-0.521,1.279-1.326,1.662-2.729l0.411-1.448h-2.735l-0.451,1.571c-0.32,1.145-0.726,1.483-1.691,1.483
	c-0.745,0-1.154-0.271-1.154-0.769c0-0.151,0.047-0.41,0.131-0.732l1.838-6.323c0.277-0.938,0.73-1.313,1.629-1.313
	c0.744,0,1.147,0.271,1.147,0.752c0,0.205-0.063,0.463-0.188,0.955l-0.34,1.231h2.734l0.426-1.489
	C73.185,19.721,73.248,19.328,73.248,19.005z M82.726,16.977h-7.314l-3.479,12.763h7.523l0.535-1.959h-4.746l1.064-3.994h4.279
	l0.535-1.931h-4.279l0.814-2.949h4.53L82.726,16.977z"/>
</svg>
