<?xml version="1.0" encoding="utf-8"?>
<!-- Generator: Adobe Illustrator 16.0.0, SVG Export Plug-In . SVG Version: 6.00 Build 0)  -->
<!DOCTYPE svg PUBLIC "-//W3C//DTD SVG 1.1//EN" "http://www.w3.org/Graphics/SVG/1.1/DTD/svg11.dtd">
<svg version="1.1" id="图层_1" xmlns="http://www.w3.org/2000/svg" xmlns:xlink="http://www.w3.org/1999/xlink" x="0px" y="0px"
	 width="18.833px" height="32px" viewBox="0 0 18.833 32" enable-background="new 0 0 18.833 32" xml:space="preserve">
<rect fill="none" width="18.833" height="32"/>
<linearGradient id="SVGID_1_" gradientUnits="userSpaceOnUse" x1="10.9106" y1="11.1489" x2="17.7384" y2="7.2069">
	<stop  offset="0.4335" style="stop-color:#FFD400"/>
	<stop  offset="0.7488" style="stop-color:#FF0000"/>
</linearGradient>
<path fill="url(#SVGID_1_)" fill-opacity="0.6" d="M15.827,7.595c0.049,0.074,0.186,0.259,0.406,0.554
	c0.172,0.224,0.309,0.285,0.406,0.186c0.099-0.099,0-0.382-0.295-0.851c-0.321-0.493-0.271-1.035,0.148-1.628
	c0.049,0.247,0.344,0.617,0.887,1.11c0.543,0.518,0.875,1.023,1,1.517c0.049,0.246,0.061,0.493,0.037,0.739
	c-0.049,0.37-0.148,0.666-0.295,0.888c-0.248,0.321-0.384,0.53-0.408,0.63c-0.074,0.173-0.012,0.382,0.186,0.629
	c0.172,0.245,0.123,0.578-0.148,0.998c-0.172,0.246-0.565,0.715-1.183,1.405c-0.354,0.396-0.879,0.618-1.573,0.666
	c0.172-0.279,0.353-0.575,0.537-0.887c0.1,0,0.161-0.014,0.186-0.038l1.111-1.517c0.049-0.099-0.015-0.259-0.187-0.48
	c-0.197-0.222-0.456-0.456-0.776-0.704c-0.32-0.22-0.617-0.381-0.888-0.48c-0.295-0.122-0.47-0.136-0.519-0.036l-1.109,1.517h0.038
	c-0.024,0.05-0.024,0.123,0,0.221c-0.425,0.508-0.802,0.957-1.128,1.351c-0.036-0.027-0.067-0.059-0.094-0.091
	c-0.197-0.271-0.381-0.642-0.556-1.11c-0.196-0.666-0.233-1.208-0.11-1.627c0.199-0.371,0.346-0.642,0.443-0.815
	c0.174-0.345,0.174-0.813,0-1.405l0.407,0.148c0.319,0.173,0.555,0.444,0.702,0.813c0.074,0.124,0.109,0.457,0.109,0.999
	c0,0.418,0.012,0.555,0.037,0.406c0.295-0.394,0.48-0.801,0.555-1.22c0.025-0.246-0.135-0.629-0.479-1.147
	c-0.442-0.542-0.714-0.888-0.813-1.035c-0.147-0.223-0.211-0.739-0.187-1.553c0.024-0.839,0.147-1.369,0.37-1.591
	c0.05,0.518,0.271,0.974,0.666,1.368c0.197,0.196,0.729,0.419,1.59,0.666C15.249,6.29,15.458,6.5,15.532,6.82
	C15.653,7.262,15.752,7.52,15.827,7.595z"/>
<linearGradient id="SVGID_2_" gradientUnits="userSpaceOnUse" x1="-891.4165" y1="27.4912" x2="-890.165" y2="26.9136" gradientTransform="matrix(16.841 0 0 21.0679 15011.2715 -552.0854)">
	<stop  offset="0.1429" style="stop-color:#000000"/>
	<stop  offset="0.4335" style="stop-color:#FFD400"/>
	<stop  offset="0.7488" style="stop-color:#FF0000"/>
</linearGradient>
<path fill="url(#SVGID_2_)" d="M14.975,10.331c0.271,0.1,0.568,0.261,0.888,0.48c0.32,0.248,0.58,0.482,0.776,0.704
	c0.172,0.222,0.234,0.382,0.186,0.48l-1.109,1.517c-0.024,0.024-0.088,0.038-0.187,0.038c-1.356,2.269-2.157,3.574-2.403,3.92
	c-0.1,0.122-0.211,0.804-0.334,2.034c-0.146,1.208-0.405,2.084-0.775,2.626L5.58,31.157c-0.197,0.172-0.641,0.185-1.332,0.036
	c-0.739-0.196-1.455-0.543-2.144-1.036c-0.691-0.491-1.246-1.06-1.666-1.7c-0.37-0.593-0.505-1.012-0.407-1.259l6.437-9.063
	c0.37-0.544,1.11-1.07,2.22-1.591c0.271-0.123,0.641-0.296,1.109-0.518c0.346-0.173,0.567-0.32,0.667-0.443
	c0.148-0.224,1.123-1.406,2.924-3.553c-0.024-0.098-0.024-0.171,0-0.221h-0.038l1.108-1.517
	C14.506,10.195,14.679,10.209,14.975,10.331z"/>
<linearGradient id="SVGID_3_" gradientUnits="userSpaceOnUse" x1="-35.2568" y1="43.4336" x2="-26.101" y2="38.1591">
	<stop  offset="0.3505" style="stop-color:#FFE3A0"/>
	<stop  offset="1" style="stop-color:#00FFFF"/>
</linearGradient>
<path fill="url(#SVGID_3_)" d="M-36.979,39.721c0,0,9.079-1.068,13.521,5.545c0,0-3.274-9.597-11.219-10.797L-36.979,39.721z"/>
<linearGradient id="SVGID_4_" gradientUnits="userSpaceOnUse" x1="-21.8662" y1="13.7773" x2="-14.3998" y2="9.4761" gradientTransform="matrix(0.9467 -0.3222 0.3222 0.9467 -4.2455 3.2187)">
	<stop  offset="0.1781" style="stop-color:#FFE3A0"/>
	<stop  offset="1" style="stop-color:#00FFFF"/>
</linearGradient>
<path fill="url(#SVGID_4_)" d="M-22.49,21.176c0,0,5.867-3.037,10.826-0.502c0,0-5.012-5.006-9.965-3.541L-22.49,21.176z"/>
<path fill="none" d="M35.667,0v12.772c1.049,0.204,2.012,0.55,2.895,1.003c2.835-0.725,5.655,0.598,7.526,1.844
	c0.011-0.011,0.034-0.025,0.043-0.036c0.148-0.224,1.123-1.406,2.924-3.553c-0.024-0.098-0.024-0.171,0-0.221h-0.038l1.108-1.517
	c0.049-0.097,0.222-0.083,0.518,0.039c0.271,0.1,0.568,0.261,0.888,0.48c0.32,0.248,0.58,0.482,0.776,0.704
	c0.172,0.222,0.234,0.382,0.186,0.48l-1.109,1.517c-0.024,0.024-0.088,0.038-0.187,0.038c-1.356,2.269-2.157,3.574-2.403,3.92
	c-0.1,0.122-0.211,0.804-0.334,2.034c-0.146,1.208-0.405,2.084-0.775,2.626l-6.437,9.027c-0.197,0.172-0.641,0.185-1.332,0.036
	c-0.738-0.196-1.455-0.543-2.144-1.036c-0.69-0.491-1.246-1.06-1.666-1.7c-0.37-0.593-0.505-1.012-0.407-1.259l5.644-7.945
	c-2.035-0.901-4.097-1.23-5.675-1.337V32H54.5V0H35.667z"/>
<path fill="none" d="M44.681,16.394c-0.884-0.064-1.741-0.021-2.543,0.087c0.277,0.29,0.539,0.585,0.788,0.884
	c0.377-0.276,0.85-0.549,1.429-0.82C44.447,16.502,44.566,16.447,44.681,16.394z"/>
<linearGradient id="SVGID_5_" gradientUnits="userSpaceOnUse" x1="-889.2983" y1="27.4922" x2="-888.0466" y2="26.9145" gradientTransform="matrix(16.841 0 0 21.0679 15011.2715 -552.0854)">
	<stop  offset="0.1429" style="stop-color:#000000"/>
	<stop  offset="0.4335" style="stop-color:#FFD400"/>
	<stop  offset="0.7488" style="stop-color:#FF0000"/>
</linearGradient>
<path fill="url(#SVGID_5_)" d="M44.681,16.394c-0.115,0.053-0.234,0.108-0.326,0.15c-0.579,0.271-1.052,0.544-1.429,0.82
	c2.438,2.93,3.532,6.11,3.532,6.11c-1.392-2.071-3.237-3.389-5.117-4.222l-5.644,7.945c-0.098,0.247,0.037,0.666,0.407,1.259
	c0.42,0.641,0.976,1.209,1.666,1.7c0.688,0.493,1.405,0.84,2.144,1.036c0.691,0.148,1.135,0.136,1.332-0.036l6.437-9.027
	c0.37-0.542,0.629-1.418,0.775-2.626c0.123-1.23,0.234-1.912,0.334-2.034c0.246-0.346,1.047-1.651,2.403-3.92
	c0.099,0,0.162-0.014,0.187-0.038l1.109-1.517c0.049-0.098-0.014-0.258-0.186-0.48c-0.196-0.222-0.456-0.456-0.776-0.704
	c-0.319-0.219-0.616-0.38-0.888-0.48c-0.296-0.122-0.469-0.136-0.518-0.039l-1.108,1.517h0.038c-0.024,0.05-0.024,0.123,0,0.221
	c-1.801,2.146-2.775,3.329-2.924,3.553c-0.009,0.011-0.032,0.025-0.043,0.036c1.348,0.897,2.207,1.748,2.207,1.748
	C47.111,16.762,45.876,16.48,44.681,16.394z"/>
<linearGradient id="SVGID_6_" gradientUnits="userSpaceOnUse" x1="32.1128" y1="17.2217" x2="41.2688" y2="11.947">
	<stop  offset="0.3505" style="stop-color:#FFE3A0"/>
	<stop  offset="1" style="stop-color:#00FFFF"/>
</linearGradient>
<path fill="url(#SVGID_6_)" d="M35.24,12.677l-2.302,5.252c0,0,1.11-0.123,2.729-0.014v-5.144
	C35.522,12.744,35.387,12.7,35.24,12.677z"/>
<linearGradient id="SVGID_7_" gradientUnits="userSpaceOnUse" x1="33.1821" y1="19.0781" x2="42.3382" y2="13.8035">
	<stop  offset="0.3505" style="stop-color:#FFE3A0"/>
	<stop  offset="1" style="stop-color:#00FFFF"/>
</linearGradient>
<path fill="url(#SVGID_7_)" d="M42.135,18.135c0.177-0.261,0.444-0.517,0.791-0.771c-0.249-0.299-0.511-0.594-0.788-0.884
	c-2.658,0.355-4.67,1.389-4.67,1.389l0.861-4.043c0.077-0.023,0.154-0.031,0.231-0.05c-0.883-0.453-1.846-0.8-2.895-1.003v5.144
	c1.578,0.106,3.64,0.436,5.675,1.337L42.135,18.135z"/>
<linearGradient id="SVGID_8_" gradientUnits="userSpaceOnUse" x1="-889.314" y1="27.458" x2="-888.0622" y2="26.8803" gradientTransform="matrix(16.841 0 0 21.0679 15011.2715 -552.0854)">
	<stop  offset="0.1429" style="stop-color:#000000"/>
	<stop  offset="0.4335" style="stop-color:#FFD400"/>
	<stop  offset="0.7488" style="stop-color:#FF0000"/>
</linearGradient>
<path fill="url(#SVGID_8_)" d="M46.458,23.475c0,0-1.094-3.181-3.532-6.11c-0.347,0.254-0.614,0.51-0.791,0.771l-0.794,1.118
	C43.221,20.086,45.067,21.403,46.458,23.475z"/>
<linearGradient id="SVGID_9_" gradientUnits="userSpaceOnUse" x1="1.0469" y1="25.0645" x2="10.2038" y2="19.7893">
	<stop  offset="0.3505" style="stop-color:#FFE3A0"/>
	<stop  offset="1" style="stop-color:#00FFFF"/>
</linearGradient>
<path fill="url(#SVGID_9_)" d="M10.875,23.475c0,0-1.094-3.181-3.533-6.11c-0.347,0.254-0.614,0.51-0.791,0.771l-0.794,1.118
	C7.638,20.086,9.483,21.403,10.875,23.475z"/>
<linearGradient id="SVGID_10_" gradientUnits="userSpaceOnUse" x1="35.2935" y1="28.8066" x2="42.7603" y2="24.5051" gradientTransform="matrix(0.9467 -0.3222 0.3222 0.9467 -4.2455 3.2187)">
	<stop  offset="0.1781" style="stop-color:#FFE3A0"/>
	<stop  offset="1" style="stop-color:#00FFFF"/>
</linearGradient>
<path fill="url(#SVGID_10_)" d="M44.681,16.394c0.224-0.104,0.474-0.221,0.782-0.368c0.315-0.158,0.514-0.291,0.624-0.407
	c-1.871-1.246-4.691-2.568-7.526-1.844c1.386,0.71,2.578,1.66,3.577,2.705C42.94,16.373,43.797,16.329,44.681,16.394z"/>
<linearGradient id="SVGID_11_" gradientUnits="userSpaceOnUse" x1="-889.3599" y1="27.3594" x2="-888.1081" y2="26.7817" gradientTransform="matrix(16.841 0 0 21.0679 15011.2715 -552.0854)">
	<stop  offset="0.1429" style="stop-color:#000000"/>
	<stop  offset="0.4335" style="stop-color:#FFD400"/>
	<stop  offset="0.7488" style="stop-color:#FF0000"/>
</linearGradient>
<path fill="url(#SVGID_11_)" d="M44.681,16.394c1.195,0.087,2.43,0.368,3.613,0.974c0,0-0.859-0.851-2.207-1.748
	c-0.11,0.116-0.309,0.249-0.624,0.407C45.155,16.173,44.905,16.29,44.681,16.394z"/>
<linearGradient id="SVGID_12_" gradientUnits="userSpaceOnUse" x1="3.8862" y1="21.3027" x2="11.3553" y2="16.9999" gradientTransform="matrix(0.9467 -0.3222 0.3222 0.9467 -4.2455 3.2187)">
	<stop  offset="0.1781" style="stop-color:#FFE3A0"/>
	<stop  offset="1" style="stop-color:#00FFFF"/>
</linearGradient>
<path fill="url(#SVGID_12_)" d="M9.098,16.394c1.196,0.087,2.43,0.368,3.614,0.974c0,0-0.859-0.851-2.207-1.748
	c-0.111,0.116-0.309,0.249-0.625,0.407C9.571,16.173,9.321,16.29,9.098,16.394z"/>
<linearGradient id="SVGID_13_" gradientUnits="userSpaceOnUse" x1="33.2417" y1="19.1826" x2="42.3977" y2="13.908">
	<stop  offset="0.3505" style="stop-color:#FFE3A0"/>
	<stop  offset="1" style="stop-color:#00FFFF"/>
</linearGradient>
<path fill="url(#SVGID_13_)" d="M37.468,17.869c0,0,2.012-1.033,4.67-1.389c-0.999-1.045-2.191-1.995-3.577-2.705
	c-0.077,0.02-0.154,0.027-0.231,0.05L37.468,17.869z"/>
<linearGradient id="SVGID_14_" gradientUnits="userSpaceOnUse" x1="34.6587" y1="27.7051" x2="42.1256" y2="23.4035" gradientTransform="matrix(0.9467 -0.3222 0.3222 0.9467 -4.2455 3.2187)">
	<stop  offset="0.1781" style="stop-color:#FFE3A0"/>
	<stop  offset="1" style="stop-color:#00FFFF"/>
</linearGradient>
<path fill="url(#SVGID_14_)" d="M37.468,17.869c0,0,2.012-1.033,4.67-1.389c-0.999-1.045-2.191-1.995-3.577-2.705
	c-0.077,0.02-0.154,0.027-0.231,0.05L37.468,17.869z"/>
<g>
	<path fill="#B38B54" d="M13.305,6.688c0.292,0.135,0.698,0.285,1.278,0.453c0.152,0.549,0.279,0.853,0.449,1.064
		c0.073,0.104,0.208,0.287,0.407,0.554c0.317,0.413,0.687,0.622,1.098,0.622c0.308,0,0.597-0.123,0.813-0.343
		c0.028-0.028,0.055-0.058,0.079-0.087c0.001,0.05,0,0.097-0.004,0.14c-0.033,0.249-0.088,0.383-0.126,0.447
		c-0.254,0.332-0.401,0.558-0.486,0.755c-0.104-0.089-0.216-0.18-0.335-0.272c-0.016-0.012-0.03-0.022-0.047-0.033
		c-0.396-0.272-0.76-0.467-1.07-0.579c-0.231-0.096-0.431-0.151-0.615-0.171c-0.049-0.413-0.254-0.877-0.638-1.455
		c-0.019-0.027-0.038-0.054-0.059-0.078c-0.473-0.58-0.657-0.821-0.725-0.914C13.319,6.77,13.312,6.736,13.305,6.688 M12.645,4.157
		c-0.223,0.222-0.346,0.752-0.37,1.591c-0.024,0.813,0.039,1.33,0.187,1.553c0.1,0.147,0.371,0.493,0.813,1.035
		c0.345,0.519,0.505,0.901,0.479,1.147c-0.074,0.418-0.26,0.826-0.555,1.22c-0.007,0.039-0.013,0.059-0.018,0.059
		c-0.013,0-0.02-0.156-0.02-0.465c0-0.542-0.035-0.875-0.109-0.999c-0.147-0.369-0.383-0.64-0.702-0.813l-0.407-0.148
		c0.174,0.592,0.174,1.061,0,1.405c-0.098,0.173-0.244,0.444-0.443,0.815c-0.123,0.418-0.086,0.961,0.11,1.627
		c0.175,0.467,0.358,0.838,0.556,1.109c0.026,0.032,0.058,0.064,0.094,0.091c0.326-0.394,0.703-0.843,1.128-1.351
		c-0.024-0.098-0.024-0.172,0-0.221H13.35l1.109-1.518c0.021-0.044,0.068-0.066,0.139-0.066c0.089,0,0.216,0.035,0.38,0.103
		c0.271,0.099,0.567,0.26,0.888,0.479c0.32,0.248,0.579,0.482,0.776,0.705c0.172,0.221,0.235,0.381,0.187,0.479l-1.111,1.517
		c-0.024,0.024-0.086,0.038-0.186,0.038c-0.185,0.312-0.365,0.608-0.537,0.888c0.694-0.049,1.219-0.271,1.573-0.666
		c0.617-0.69,1.011-1.16,1.183-1.405c0.271-0.42,0.32-0.753,0.148-0.998c-0.197-0.247-0.26-0.456-0.186-0.629
		c0.024-0.101,0.16-0.31,0.408-0.63c0.146-0.223,0.246-0.519,0.295-0.889c0.023-0.246,0.012-0.492-0.037-0.738
		c-0.125-0.494-0.457-1-1-1.518c-0.543-0.492-0.838-0.863-0.887-1.109c-0.42,0.593-0.47,1.135-0.148,1.627
		c0.295,0.47,0.394,0.752,0.295,0.852c-0.03,0.031-0.064,0.046-0.102,0.046c-0.084,0-0.186-0.077-0.305-0.231
		c-0.221-0.295-0.357-0.48-0.406-0.555c-0.074-0.074-0.174-0.332-0.295-0.775C15.458,6.5,15.249,6.29,14.901,6.19
		c-0.861-0.246-1.393-0.469-1.59-0.666C12.917,5.131,12.695,4.675,12.645,4.157L12.645,4.157z M13.388,11.813h0.005H13.388z"/>
</g>
<g>
	<linearGradient id="SVGID_15_" gradientUnits="userSpaceOnUse" x1="16.605" y1="11.4043" x2="1.7975" y2="29.9283">
		<stop  offset="0" style="stop-color:#BB925B"/>
		<stop  offset="0.3429" style="stop-color:#FFF6DA"/>
		<stop  offset="0.6571" style="stop-color:#FFF1B1"/>
		<stop  offset="1" style="stop-color:#B38B54"/>
	</linearGradient>
	<path fill="url(#SVGID_15_)" d="M14.894,11.39c0.118,0.062,0.244,0.139,0.379,0.23c0.137,0.106,0.259,0.208,0.364,0.305
		l-0.522,0.715c-0.182,0.083-0.338,0.22-0.444,0.397c-1.694,2.835-2.198,3.622-2.347,3.835c-0.214,0.278-0.341,0.671-0.525,2.512
		c-0.157,1.298-0.417,1.903-0.597,2.166l-6.234,8.744c-0.105-0.006-0.26-0.024-0.463-0.067c-0.618-0.164-1.229-0.461-1.821-0.885
		c-0.583-0.414-1.058-0.896-1.397-1.414c-0.125-0.201-0.197-0.343-0.237-0.437l6.246-8.794c0.18-0.265,0.642-0.696,1.807-1.243
		c0.274-0.124,0.649-0.3,1.144-0.534c0.498-0.25,0.796-0.462,0.995-0.708c0.017-0.021,0.04-0.053,0.056-0.075
		c0.098-0.144,0.673-0.86,2.856-3.464c0.141-0.167,0.221-0.374,0.232-0.587L14.894,11.39 M14.593,10.228
		c-0.069,0-0.114,0.021-0.136,0.064l-1.108,1.518h0.038c-0.024,0.049-0.024,0.123,0,0.221c-1.801,2.146-2.775,3.328-2.924,3.553
		c-0.1,0.123-0.32,0.27-0.667,0.443c-0.468,0.222-0.838,0.395-1.109,0.518c-1.11,0.521-1.85,1.047-2.22,1.591l-6.437,9.063
		c-0.098,0.247,0.037,0.666,0.407,1.259c0.42,0.641,0.975,1.209,1.666,1.7c0.689,0.493,1.405,0.84,2.144,1.036
		c0.319,0.068,0.585,0.103,0.799,0.103c0.249,0,0.427-0.046,0.533-0.139l6.436-9.027c0.37-0.542,0.629-1.418,0.775-2.626
		c0.123-1.23,0.234-1.912,0.334-2.034c0.246-0.346,1.047-1.65,2.403-3.92c0.099,0,0.162-0.014,0.187-0.037l1.109-1.518
		c0.049-0.098-0.014-0.258-0.186-0.48c-0.196-0.222-0.456-0.455-0.776-0.703c-0.319-0.22-0.616-0.381-0.888-0.48
		C14.809,10.263,14.682,10.228,14.593,10.228L14.593,10.228z"/>
</g>
</svg>
