<?xml version="1.0" encoding="utf-8"?>
<!-- Generator: Adobe Illustrator 16.0.0, SVG Export Plug-In . SVG Version: 6.00 Build 0)  -->
<!DOCTYPE svg PUBLIC "-//W3C//DTD SVG 1.1//EN" "http://www.w3.org/Graphics/SVG/1.1/DTD/svg11.dtd">
<svg version="1.1" id="图层_1" xmlns="http://www.w3.org/2000/svg" xmlns:xlink="http://www.w3.org/1999/xlink" x="0px" y="0px"
	 width="83.5px" height="32px" viewBox="0 0 83.5 32" enable-background="new 0 0 83.5 32" xml:space="preserve">
<rect fill="none" width="83.5" height="32"/>
<g>
	<g>
		<g>
			
				<linearGradient id="SVGID_1_" gradientUnits="userSpaceOnUse" x1="-259.6802" y1="399.0078" x2="-260.6802" y2="398.0078" gradientTransform="matrix(83.1786 0 0 -29.973 21682.9316 11960.6436)">
				<stop  offset="0" style="stop-color:#BB925B"/>
				<stop  offset="0.3429" style="stop-color:#FFF6DA"/>
				<stop  offset="0.6571" style="stop-color:#FFF1B1"/>
				<stop  offset="1" style="stop-color:#B38B54"/>
			</linearGradient>
			<path fill="url(#SVGID_1_)" d="M78.091,3.545c0,0.085,0.072,0.199,0.216,0.342c0.113,0.314,0.242,0.728,0.385,1.241
				c0.084,0.542,0.199,1.068,0.342,1.583v1.368c0.113,0.086,0.186,0.2,0.213,0.341c0.029,0.172,0.087,0.343,0.171,0.515h0.257
				c0.172,0,0.314-0.015,0.428-0.042c0.059,0,0.144,0,0.258,0l2.352,0.042l0.085,0.17c0,0.142,0.043,0.284,0.128,0.427
				c0.084,0.199,0.156,0.415,0.215,0.643c0.057,0.256,0.057,0.485,0,0.684c-0.059,0.229-0.201,0.384-0.429,0.47
				c-0.257,0.113-0.569,0.186-0.94,0.213c-0.313,0.058-0.556,0.086-0.728,0.086c-0.028,0-0.171,0.043-0.429,0.128
				c-0.17,0.029-0.313,0.071-0.426,0.128h-0.256c-0.145,0-0.314-0.044-0.515-0.128c0,0.257-0.042,0.485-0.126,0.685
				c-0.059,0.255-0.244,0.427-0.557,0.513c-0.115,0-0.199,0.014-0.256,0.042c-0.029,0.057-0.059,0.086-0.088,0.086l-0.082,0.043
				v0.726l-0.217,0.685h-0.126c-0.284,0-0.714,0-1.284,0c-0.627,0.029-1.055-0.072-1.283-0.299c-0.113,0-0.213,0.058-0.299,0.171
				l-0.129,0.128h-0.086c-0.256,0.029-0.513,0.129-0.77,0.299c-0.229,0.172-0.37,0.341-0.428,0.513c0,0.085,0,0.3,0,0.642
				c0,0.312,0.028,0.697,0.086,1.154c0,0.482,0,1.067,0,1.752c0,0.742,0,1.439,0,2.095c0,0.657,0,1.282,0,1.882
				c-0.029,0.6-0.059,1.1-0.086,1.498c-0.084,0.57-0.155,1.025-0.215,1.367c-0.113,0.313-0.199,0.57-0.256,0.771
				c-0.084,0.171-0.127,0.327-0.127,0.472l-0.128,0.213H72.79c-0.228,0.057-0.613,0.099-1.153,0.129
				c-0.543,0-0.929-0.115-1.156-0.342v-0.086c-0.084-0.114-0.198-0.244-0.342-0.386c-0.143-0.114-0.214-0.329-0.214-0.643
				c-0.057-0.398-0.086-0.655-0.086-0.771v-0.17l-0.171-0.128c0.145-1.767,0.244-3.235,0.299-4.403
				c0.088-1.113,0.143-1.996,0.172-2.652c0.057-0.655,0.129-1.154,0.215-1.497c0.057-0.314,0.099-0.526,0.127-0.641
				c-0.084,0-0.185-0.042-0.299-0.128c-0.057-0.086-0.143-0.186-0.257-0.3L69.71,14.92c-0.058-0.028-0.112-0.058-0.17-0.085
				c-0.028-0.056-0.085-0.086-0.172-0.086c0-0.113-0.084-0.213-0.257-0.3c-0.198-0.142-0.327-0.212-0.385-0.212
				c-0.142,0-0.24-0.029-0.299-0.086c-0.086,0-0.128-0.014-0.128-0.043c-0.028,0-0.057,0-0.085,0l-0.643,0.129
				c-0.026,0-0.086-0.029-0.17-0.086c-0.084,0-0.143-0.014-0.172-0.043c-0.084,0-0.155,0-0.213,0c-0.027,0-0.099,0-0.213,0
				c-0.113,0.03-0.201,0.043-0.257,0.043c-0.144,0.057-0.284,0.086-0.427,0.086h-2.607c0-0.086,0.014-0.215,0.043-0.386
				c0-0.114,0.014-0.257,0.041-0.427c0-0.114,0-0.214,0-0.299c-0.256,0.114-0.641,0.34-1.154,0.684
				c-0.541,0.285-0.897,0.428-1.068,0.428h-1.754c0.059,0.227,0.128,0.542,0.214,0.939c0.086,0.401,0.171,0.826,0.257,1.283
				c0.057,0.514,0.143,1.084,0.256,1.712c-0.113,0-0.199,0.013-0.256,0.042l-0.471,0.257c0,0.087,0.072,0.414,0.214,0.984
				c0.171,0.598,0.356,1.368,0.556,2.308c0.172,0.94,0.385,1.981,0.644,3.122c0.228,1.197,0.499,2.38,0.813,3.55
				c0.131,0.598,0.266,1.211,0.405,1.838c0.021,0.103,0.042,0.201,0.063,0.299c-0.071,0.005-0.142,0.019-0.213,0.044
				c-0.115,0-0.213,0.014-0.301,0.042c-0.113,0.027-0.213,0.043-0.3,0.043c-0.058,0.027-0.127,0.055-0.213,0.084
				c-0.228,0-0.456,0.013-0.685,0.043c-0.113,0-0.215,0.013-0.299,0.043c-0.113,0.027-0.214,0.042-0.3,0.042
				c-0.058,0.03-0.127,0.059-0.213,0.086c-0.428,0-0.87,0.015-1.326,0.043c-0.112,0-0.214,0.017-0.298,0.042
				c-0.115,0.027-0.215,0.043-0.3,0.043c-0.058,0.027-0.129,0.057-0.216,0.084c-0.241,0-0.483,0-0.725,0l-0.214-0.896
				c-0.004-0.015-0.004-0.027,0-0.043c-0.288-1.353-0.589-2.649-0.899-3.891c-0.283-1.313-0.568-2.494-0.854-3.55
				c-0.201-1.056-0.385-1.894-0.557-2.522c-0.172-0.625-0.258-0.955-0.258-0.983h-1.153c-0.343,0.028-0.642,0.042-0.897,0.042
				c-0.229,0.027-0.443,0.043-0.643,0.043c-0.256,0-0.441,0.058-0.557,0.172c-0.256,0.113-0.44,0.255-0.556,0.427
				c-0.143,0.198-0.256,0.37-0.342,0.513c-0.06,0.143-0.142,0.271-0.257,0.383c-0.114,0.117-0.229,0.218-0.342,0.301
				c-0.145,0.086-0.484,0.156-1.026,0.215c-0.627,0.086-1.253,0.128-1.883,0.128c-0.739,0-1.438,0-2.095,0
				c-0.625,0-1.041-0.071-1.239-0.213c-0.343-0.087-0.728-0.229-1.155-0.431c-0.457-0.227-0.783-0.411-0.982-0.553
				c-0.57,0.797-0.855,1.34-0.855,1.625c0.113,0.254,0.199,0.44,0.256,0.555c0.058,0.115,0.086,0.216,0.086,0.3h0.129L40.167,23.3
				c-0.029-0.028-0.073-0.043-0.129-0.043c-0.143,0-0.227,0.015-0.256,0.043c-0.115,0.084-0.241,0.298-0.385,0.642
				c-0.199,0.342-0.441,0.728-0.726,1.152c-0.229,0.457-0.415,0.885-0.557,1.284c-0.172,0.341-0.256,0.584-0.256,0.726v0.941
				c0.084,0.086,0.057,0.229-0.087,0.43c-0.227,0.17-0.555,0.228-0.981,0.17c-0.172-0.084-0.515-0.242-1.028-0.47
				c-0.483-0.286-1.026-0.6-1.625-0.94c-0.569-0.315-1.082-0.614-1.539-0.899c-0.512-0.372-0.784-0.626-0.813-0.771
				c0-0.112,0.043-0.271,0.129-0.471c0.057-0.141,0.242-0.484,0.555-1.025c0.257-0.541,0.671-1.324,1.24-2.353
				c0.6-0.998,1.384-2.352,2.353-4.063c0-0.254-0.099-0.711-0.3-1.366c-0.142-0.656-0.626-1.113-1.453-1.369l-1.797-0.684
				c-0.369-0.086-0.684-0.143-0.94-0.171c-0.256-0.057-0.527-0.085-0.813-0.085c-0.257-0.058-0.57-0.1-0.941-0.129
				c-0.427-0.083-0.869-0.127-1.326-0.127c-0.484-0.03-0.913-0.03-1.282,0c-0.428,0-0.727,0.044-0.897,0.127L4.201,21.675H4.117
				c-0.058,0-0.215,0.017-0.47,0.043c-0.315,0.058-0.657,0.101-1.028,0.128c-0.314,0-0.669-0.014-1.068-0.041
				c-0.399-0.059-0.685-0.145-0.855-0.258c-0.172-0.199-0.257-0.384-0.257-0.557v-2.993c0-0.712,0-1.453,0-2.224
				c0-0.741-0.072-1.296-0.213-1.668v-2.051c0-0.286-0.014-0.571-0.043-0.855c-0.058-0.286-0.085-0.558-0.085-0.813
				C0.013,10.015-0.016,9.66,0.013,9.317c0-0.342,0.186-0.585,0.555-0.727c0.029-0.028,0.315-0.07,0.854-0.128
				c0.515,0,1.099-0.015,1.754-0.043c0.685,0,1.411-0.013,2.181-0.042c0.711,0,1.325,0,1.838,0H22.76
				c0.199-0.086,0.5-0.17,0.898-0.256c0.399-0.142,0.784-0.243,1.155-0.299c0.426-0.143,0.827-0.256,1.197-0.342
				c0.286-0.114,0.47-0.199,0.556-0.256l0.898-0.642c0.199-0.086,0.371-0.186,0.514-0.3c0.169-0.029,0.298-0.071,0.382-0.128
				c0.171-0.143,0.728-0.285,1.669-0.428c0.284,0,0.457-0.028,0.514-0.085c0.142,0,0.242-0.028,0.299-0.084
				c0.142-0.086,0.498-0.429,1.069-1.028c0.513-0.569,1.012-1.097,1.496-1.582c0.284-0.2,0.713-0.256,1.283-0.171
				c0.57,0.058,0.998,0.114,1.283,0.171c0.085,0,0.172-0.014,0.256-0.043c0.057,0,0.101-0.014,0.127-0.043
				c0.086,0,0.144,0.015,0.172,0.043c0.199,0.115,0.342,0.186,0.429,0.214h1.024L38.24,3.63v1.797h0.17V4.358h2.224V3.802h1.196
				v0.557h0.813V3.802h1.111v0.557h0.771V3.802h1.154v0.557h0.94V3.802h1.112v0.557h0.939V3.802h1.155v0.557h0.94V3.802h1.155v0.557
				h0.726V3.802h1.283v0.557h0.685V3.802h1.155v0.557h1.196v1.068h15.694c0.283-0.228,0.641-0.541,1.068-0.941
				c0.457-0.399,0.756-0.711,0.897-0.941c0-0.256,0.015-0.455,0.042-0.598c0.029-0.113,0.042-0.229,0.042-0.342
				c0.114-0.285,0.2-0.528,0.256-0.727c0.144-0.228,0.343-0.371,0.599-0.426h0.345c0.255-0.116,0.511-0.186,0.769-0.216
				c0.229,0,0.442,0.172,0.641,0.514c0.314,0.399,0.527,0.798,0.644,1.197C78.049,3.204,78.091,3.403,78.091,3.545z M56.326,4.957
				H39.095v0.47h17.231V4.957z M42.559,19.025c0.229,0.199,0.498,0.299,0.813,0.299h3.975c0.256,0,0.543-0.1,0.855-0.299
				c0.199-0.198,0.301-0.414,0.301-0.643c0-0.427-0.102-0.756-0.301-0.982c-0.313-0.17-0.6-0.256-0.855-0.256h-3.975
				c-0.314,0-0.584,0.086-0.813,0.256c-0.285,0.228-0.429,0.557-0.429,0.982C42.13,18.611,42.271,18.827,42.559,19.025z
				 M20.194,12.824c0-0.713-0.342-1.069-1.027-1.069h-1.88c-0.257,0-0.471,0.084-0.642,0.257c-0.2,0.201-0.298,0.471-0.298,0.812
				c0,0.228,0.098,0.415,0.298,0.557c0.171,0.198,0.385,0.3,0.642,0.3h1.88c0.314,0,0.57-0.102,0.77-0.3
				C20.108,13.239,20.194,13.052,20.194,12.824z M5.868,10.985c-0.484-0.085-0.939-0.141-1.367-0.169c-0.457,0-0.8-0.03-1.027-0.086
				c0,0.398,0.015,0.913,0.042,1.538c0.086,0.657,0.143,1.326,0.171,2.01c0,0.685,0.028,1.34,0.085,1.967
				c0.029,0.6,0.045,0.985,0.045,1.155c0.141,0.143,0.441,0.299,0.896,0.471c0.513,0.17,0.998,0.256,1.455,0.256
				C6.511,18.1,6.98,17.984,7.58,17.785c0.542-0.171,1.111-0.371,1.71-0.6c0.57-0.256,1.14-0.513,1.711-0.769
				c0.513-0.257,0.911-0.47,1.196-0.643c0.199-0.229,0.298-0.485,0.298-0.769c0-0.315-0.084-0.755-0.255-1.326
				c-0.172-0.514-0.329-0.971-0.47-1.369c-0.229,0-0.628-0.056-1.198-0.169c-0.513-0.146-1.154-0.316-1.924-0.515
				c-0.341-0.113-0.769-0.229-1.282-0.342C6.909,11.114,6.411,11.014,5.868,10.985z"/>
		</g>
	</g>
</g>
<g>
	<g>
		<g>
			<path fill="#7A4621" d="M41,26.477l6.298,5.25l13.854,0.42c4.759-0.56,8.678-1.819,11.756-3.778
				c4.059-5.624,7.589-8.435,10.592-8.435c-2.039-0.814-4.372-0.48-7,1c-2.628,1.479-5.295-0.021-8-4.5
				c-2.52-1.68-7.457-0.462-11.5,1.5l4.152-6.5l-12.152,4L41,26.477z"/>
		</g>
	</g>
</g>
<linearGradient id="SVGID_2_" gradientUnits="userSpaceOnUse" x1="-256.293" y1="384.1299" x2="-255.293" y2="383.1283" gradientTransform="matrix(34.4275 0 0 -14.2748 8869.1904 5498.8311)">
	<stop  offset="0.6071" style="stop-color:#FFF6DA"/>
	<stop  offset="1" style="stop-color:#D6BB7E"/>
</linearGradient>
<path fill="url(#SVGID_2_)" d="M54.805,14.933H51.24l-6.881,14.275h3.199l1.059-2.421h2.863l-0.186,2.421h3.059L54.805,14.933z
	 M52.221,18.527l-0.521,6.063h-2.156L52.221,18.527z M68.186,17.203c0-1.483-1.387-2.27-3.994-2.27c-3.23,0-4.709,1.03-5.479,3.68
	l-1.931,6.652c-0.24,0.78-0.287,1.167-0.287,1.528c0,1.567,1.455,2.414,4.156,2.414c1.486,0,2.654-0.256,3.471-0.78
	c0.881-0.584,1.434-1.483,1.861-3.051l0.459-1.621h-3.059l-0.506,1.759c-0.358,1.279-0.811,1.659-1.893,1.659
	c-0.832,0-1.291-0.301-1.291-0.859c0-0.17,0.055-0.459,0.147-0.82l2.055-7.071c0.312-1.05,0.817-1.47,1.821-1.47
	c0.833,0,1.285,0.303,1.285,0.84c0,0.23-0.07,0.519-0.211,1.069L64.41,20.24h3.059l0.475-1.666
	C68.115,18.003,68.186,17.563,68.186,17.203z M78.787,14.933h-8.182l-3.892,14.275h8.414l0.6-2.191h-5.309l1.19-4.468h4.787
	l0.6-2.158h-4.787l0.91-3.299h5.068L78.787,14.933z"/>
</svg>
