<?xml version="1.0" encoding="utf-8"?>
<!-- Generator: Adobe Illustrator 16.0.0, SVG Export Plug-In . SVG Version: 6.00 Build 0)  -->
<!DOCTYPE svg PUBLIC "-//W3C//DTD SVG 1.1//EN" "http://www.w3.org/Graphics/SVG/1.1/DTD/svg11.dtd">
<svg version="1.1" id="图层_1" xmlns="http://www.w3.org/2000/svg" xmlns:xlink="http://www.w3.org/1999/xlink" x="0px" y="0px"
	 width="41.5px" height="32px" viewBox="0 0 41.5 32" enable-background="new 0 0 41.5 32" xml:space="preserve">
<rect fill="none" width="41.5" height="32"/>
<g>
	<g>
		<g>
			
				<linearGradient id="SVGID_1_" gradientUnits="userSpaceOnUse" x1="-277.1382" y1="399.0703" x2="-278.1382" y2="398.0703" gradientTransform="matrix(40.9166 0 0 -29.7965 11374.9404 11887.9658)">
				<stop  offset="0" style="stop-color:#BB925B"/>
				<stop  offset="0.3429" style="stop-color:#FFF6DA"/>
				<stop  offset="0.6571" style="stop-color:#FFF1B1"/>
				<stop  offset="1" style="stop-color:#B38B54"/>
			</linearGradient>
			<path fill="url(#SVGID_1_)" d="M18.693,11.759h-3.017c-0.397,0-0.596,0.199-0.596,0.595v1.702c0,0.425,0.199,0.636,0.596,0.636
				h1.615c0.567,0,1.047-0.169,1.445-0.509c0.368-0.34,0.551-0.694,0.551-1.063v-0.468c0-0.199-0.056-0.382-0.169-0.552
				C19.005,11.873,18.863,11.759,18.693,11.759z M40.971,5.127c0.168,0.03,0.268,0.071,0.297,0.128c0,0.03-0.015,0.185-0.043,0.468
				l-0.807,5.868c-0.113,0.481-0.553,0.849-1.318,1.104l-2.934,0.808c-0.538,0.142-0.835,0.212-0.893,0.212L30.469,13.8
				c-0.425,0-0.638,0.113-0.638,0.34v1.871c0,0.567-0.197,0.837-0.595,0.808c-0.283-0.084-0.524-0.127-0.723-0.127h-6.632
				c-0.539,0.141-0.907,0.213-1.106,0.213c-0.114,0-0.212-0.113-0.299-0.342l-0.041-0.382c-0.425,0.679-0.851,1.021-1.277,1.021
				h-4.208c-0.509,0-0.793,0.34-0.849,1.02c-0.03,0.086-0.201,0.439-0.512,1.063c-0.311,0.625-0.522,1.162-0.638,1.617
				c-0.822,3.173-1.289,5.271-1.401,6.291c-0.058,0.766,0.013,1.914,0.211,3.443c0,0.481-0.34,0.58-1.021,0.297
				c-0.312,0.228-0.721,0.282-1.231,0.172c-0.68-0.115-1.9-0.369-3.656-0.767c-2.184-0.481-3.573-0.835-4.167-1.063
				c-0.68-0.256-1.091-0.651-1.233-1.189c-0.171-0.538-0.128-1.375,0.127-2.508C0.809,24.5,1.292,22.5,2.03,19.582
				c0.706-2.807,1.09-4.322,1.147-4.549c0.169-0.369,0.311-0.708,0.424-1.02c0.198-0.596,0.312-1.106,0.34-1.531
				c0.029-0.426-0.212-0.921-0.723-1.489c-0.084-0.056-0.467-0.396-1.148-1.02C1.789,9.718,1.646,9.364,1.646,8.911V4.576
				c0-0.624,0.128-1.105,0.384-1.446c0.141-0.17,0.424-0.454,0.848-0.851c0.425-0.339,0.708-0.567,0.851-0.68
				C3.842,1.543,4.522,1.643,5.77,1.897c0.169,0.029,0.297,0.1,0.382,0.212c0.084,0.085,0.142,0.129,0.169,0.129
				C6.519,2.18,7.2,2.294,8.361,2.578c0.256,0.056,1.263,0.085,3.019,0.085c1.021,0,1.615,0.085,1.786,0.254
				c0.142,0.141,0.212,0.312,0.212,0.509l0.298-0.127c0.226-0.084,0.426-0.127,0.595-0.127h7.907c0.313,0,0.652,0.085,1.021,0.254
				c-0.057-0.112-0.071-0.254-0.043-0.425c0.029-0.198,0.269-0.338,0.722-0.424c0.17-0.03,0.412,0.013,0.726,0.127l0.426-0.426
				c0.025-0.029,0.055-0.141,0.082-0.339c0-0.199,0.086-0.326,0.255-0.382c0.625-0.228,1.077-0.256,1.36-0.085
				c0.17,0.085,0.61,0.254,1.317,0.509c0.681,0.257,1.12,0.398,1.319,0.426c0.111,0,0.297-0.057,0.552-0.169
				c0.226-0.087,0.44-0.1,0.637-0.043c0.368,0.084,1.546,0.326,3.53,0.723c0.281,0.113,0.636,0.312,1.061,0.595
				c0.113,0.058,0.354,0.071,0.725,0.043c0.367,0,0.609,0.014,0.723,0.042c0.141,0.057,0.211,0.128,0.211,0.212
				c0,0.114,0.014,0.186,0.043,0.212c0.143,0.085,0.764,0.256,1.87,0.511c0.169,0.056,0.325,0.155,0.468,0.296
				c0.143,0.114,0.239,0.172,0.297,0.172c0.059,0,0.158-0.03,0.299-0.085c0.113-0.086,0.227-0.113,0.339-0.086L40.971,5.127z"/>
		</g>
	</g>
</g>
</svg>
