<?xml version="1.0" encoding="utf-8"?>
<!-- Generator: Adobe Illustrator 16.0.0, SVG Export Plug-In . SVG Version: 6.00 Build 0)  -->
<!DOCTYPE svg PUBLIC "-//W3C//DTD SVG 1.1//EN" "http://www.w3.org/Graphics/SVG/1.1/DTD/svg11.dtd">
<svg version="1.1" id="图层_1" xmlns="http://www.w3.org/2000/svg" xmlns:xlink="http://www.w3.org/1999/xlink" x="0px" y="0px"
	 width="79.809px" height="32px" viewBox="0 0 79.809 32" enable-background="new 0 0 79.809 32" xml:space="preserve">
<rect x="0" fill="none" width="79.809" height="32"/>
<g>
	<g>
		<g>
			<g>
				
					<linearGradient id="SVGID_1_" gradientUnits="userSpaceOnUse" x1="-523.572" y1="33.5186" x2="-524.573" y2="34.5195" gradientTransform="matrix(76.87 0 0 24.079 40319.418 -803.9629)">
					<stop  offset="0.2512" style="stop-color:#FF0000"/>
					<stop  offset="0.5468" style="stop-color:#FFD400"/>
					<stop  offset="0.798" style="stop-color:#000000"/>
				</linearGradient>
				<path fill="url(#SVGID_1_)" d="M74.584,10.83v0.15l-2.319,0.04l-0.53-0.19h-4.1l-0.04-4.36c0.029-0.03,0.04-0.07,0.04-0.12
					c0-0.1-0.04-0.19-0.11-0.27c-0.18-0.23-0.46-0.37-0.851-0.42c-0.159-0.03-0.31,0.02-0.47,0.15L65.985,6l-2.36,3.32l-0.04,1.51
					h-0.5c-0.02-0.52-0.05-0.83-0.08-0.93c0-0.05-0.029-0.1-0.109-0.15l-0.08-0.04l-0.38-0.04V9.29l-0.16-0.31l-14.28-0.23
					c-0.07,0.02-0.14,0.05-0.189,0.07c-0.021,0.03-0.051,0.07-0.08,0.12v0.08l-0.271,0.03v0.28l-0.81-0.16l-0.04,1.12l-0.271,0.04
					l0.08-2.51c-0.05-0.1-0.1-0.22-0.16-0.35c-0.119-0.25-0.25-0.47-0.38-0.65c-0.13-0.16-0.35-0.29-0.66-0.39l-0.38-0.08
					l-12.85-1.39h-0.23c-0.16,0.03-0.29,0.08-0.39,0.16c-0.1,0.03-0.21,0.1-0.31,0.23l-0.11,0.15l-0.76,1.22l-1.83,2.91l-0.08-0.07
					h-1v0.46l-1,0.04l-0.04-0.27l-0.35,0.04v0.27h-1l0.04,0.34l-2.27-0.01l-6.26-0.03c0-0.07-0.03-0.14-0.08-0.19
					c-0.02-0.02-0.06-0.05-0.11-0.07l-10.54-0.12c-0.03-0.26-0.06-0.44-0.12-0.54c-0.02-0.08-0.07-0.13-0.15-0.15h-4.09l-0.08,10.26
					l0.04,0.12c0.03,0.1,0.08,0.15,0.15,0.15c0.08,0,0.15-0.051,0.2-0.15l0.04-0.12l0.03-0.77l4.6-2.08v1.85l3.63-2.28v0.77h1.08
					v-0.81h2.23l-0.04-2l3.21-0.04v-0.35l3.66-0.08l0.93-0.7h3.89l0.04,0.35l0.97,0.04l0.04,2.12l0.35-0.03v-0.16l1.23,0.04
					c0.15,0.05,0.31,0.13,0.46,0.23c0.16,0.13,0.3,0.28,0.43,0.46c0.1,0.18,0.19,0.41,0.27,0.7c0.05,0.23,0.02,0.46-0.08,0.69
					c-0.03,0.13-0.06,0.25-0.11,0.35l-4.91,8.49l5.44,1.271l0.16-0.351c-0.05-0.02-0.1-0.06-0.16-0.109
					c-0.1-0.131-0.16-0.23-0.19-0.311c-0.02-0.11-0.01-0.21,0.04-0.31l1.66-3.24l0.08-0.12c0.08-0.1,0.16-0.18,0.27-0.229
					c0.2-0.101,0.38-0.181,0.54-0.23l0.11-0.08l-0.42-0.5l0.85-1.62c0.08-0.08,0.15-0.149,0.23-0.229c0.1-0.08,0.24-0.11,0.43-0.11
					h0.19l1.19-0.12h3.63l0.54,0.08l0.43-0.08l0.07,1c0.05,0.8,0.16,1.57,0.31,2.32c0.16,0.74,0.45,1.89,0.89,3.43
					c0.23,0.75,0.44,1.43,0.62,2.05v0.15h0.149l5.83-1.62l-0.16-0.189c-0.149-0.44-0.319-0.961-0.5-1.58
					c-0.38-1.21-0.67-2.21-0.85-3.021c-0.18-0.79-0.29-1.649-0.34-2.58V18.86l0.5-0.2l-0.04-0.271l-0.23-0.08v-3.27l0.08-0.16
					c0.05-0.07,0.101-0.15,0.15-0.23c0.05-0.1,0.13-0.15,0.229-0.15c0.051,0,0.091,0.01,0.12,0.04l0.11-0.04
					c0.11-0.03,0.18-0.06,0.24-0.08c0.05-0.05,0.09-0.12,0.109-0.19l0.04-0.08l-0.04-0.62l0.7-0.04l0.07,0.97l0.74-0.27l0.35,0.07
					l0.27,0.16l14.24-0.12l0.23-0.5h0.27l0.16-0.12c0.07-0.02,0.12-0.08,0.15-0.15l0.04-0.85h0.5l0.079,0.23l-0.039,0.54l0.149,0.08
					c0.08,0.05,0.14,0.09,0.19,0.12c0.08,0,0.149-0.03,0.199-0.08c0.021-0.03,0.051-0.07,0.07-0.12l0.08-0.58l0.08-0.23l2.51,0.08
					v0.15h-0.16v1.16h0.66v-0.31l0.891,0.04l0.189-0.23v-0.7l-0.81-0.15l4.09,0.04l0.46-0.16l2.35-0.03v0.15l3.511,0.04v-1.93
					L74.584,10.83z M4.934,14.61c-0.03,0.05-0.07,0.09-0.12,0.12h-2.89c-0.06-0.03-0.09-0.05-0.12-0.08
					c-0.1-0.05-0.15-0.12-0.15-0.19c0-0.08,0.04-0.16,0.11-0.23l0.16-0.04h2.85l0.16,0.04c0.07,0.05,0.11,0.11,0.11,0.19
					C5.045,14.47,5.005,14.53,4.934,14.61z M1.655,10.09V9.67l3.35-0.04l0.16,0.04c0.07,0.03,0.11,0.08,0.11,0.16
					c0.03,0.1,0.04,0.19,0.04,0.26H1.655z M32.914,7.7l0.15-0.19c0.13-0.15,0.24-0.27,0.35-0.35c0.1-0.07,0.24-0.14,0.42-0.19h11.08
					l0.11,0.08c0.1,0.05,0.21,0.11,0.31,0.19c0.28,0.23,0.431,0.54,0.431,0.93c0,0.46-0.16,0.79-0.471,1
					c-0.1,0.08-0.199,0.13-0.31,0.15l-0.15,0.04l-0.88,0.01l-6.17,0.04h-0.01l-3.64,0.02l-1.61,0.01l-0.23-0.23l0.35-0.86
					L32.914,7.7z M37.855,18.86c-0.08,0.199-0.18,0.359-0.31,0.46v0.47h-3.48c-0.15-0.08-0.31-0.2-0.46-0.36
					c-0.31-0.279-0.48-0.59-0.5-0.92c-0.05-0.59,0.15-1.05,0.62-1.35c0.2-0.13,0.42-0.21,0.65-0.23l-0.15,0.34
					c-0.13,0.311-0.18,0.591-0.16,0.82c0.03,0.351,0.21,0.69,0.54,1c0.18,0.18,0.35,0.311,0.51,0.391l0.15-0.12
					c-0.13-0.08-0.24-0.181-0.35-0.311c-0.2-0.29-0.29-0.569-0.27-0.85c0.03-0.28,0.14-0.59,0.35-0.931
					c0.13-0.149,0.24-0.27,0.35-0.34h1.46c0.11,0.021,0.21,0.061,0.31,0.11c0.31,0.16,0.53,0.36,0.66,0.62
					C37.954,18.1,37.974,18.5,37.855,18.86z M66.834,10.83h-2.47v-0.39h2.58L66.834,10.83z M67.135,9.48l-0.19,0.23h-2.62l-0.2-0.16
					l1.391-2.16l0.89,0.08l0.04,0.39c0.08,0.25,0.13,0.42,0.16,0.5c0.05,0.08,0.109,0.14,0.189,0.19h0.341V9.48z"/>
			</g>
		</g>
	</g>
	<g>
		
			<linearGradient id="SVGID_2_" gradientUnits="userSpaceOnUse" x1="-851.9583" y1="43.3047" x2="-852.6089" y2="43.3047" gradientTransform="matrix(34.5122 0 0 13.1527 29448.0469 -556.8325)">
			<stop  offset="0" style="stop-color:#00FFFF"/>
			<stop  offset="0.6495" style="stop-color:#FFE3A0"/>
		</linearGradient>
		<path fill="url(#SVGID_2_)" d="M43.784,18.75c-2.85-3.53-6.07-6.63-9.65-9.32l-1.61,0.01l-0.23-0.23l0.35-0.86
			c-0.8-0.57-1.62-1.11-2.46-1.63l-1.83,2.91l-0.08-0.07h-1v0.46l-1,0.04l-0.04-0.27l-0.35,0.04v0.27h-1l0.04,0.34l-2.27-0.01
			C30.985,11.82,38.034,14.59,43.784,18.75z"/>
	</g>
	<g>
		<linearGradient id="SVGID_3_" gradientUnits="userSpaceOnUse" x1="49.6897" y1="11.5454" x2="37.787" y2="11.5454">
			<stop  offset="0" style="stop-color:#00FFFF"/>
			<stop  offset="0.8219" style="stop-color:#FFE3A0"/>
		</linearGradient>
		<path fill="url(#SVGID_3_)" d="M48.985,13.72c-3.4-1.9-7.13-3.34-11.2-4.31l6.17-0.04C45.704,10.7,47.385,12.16,48.985,13.72z"/>
	</g>
	<g>
		<g>
			<g>
				<g>
					<linearGradient id="SVGID_4_" gradientUnits="userSpaceOnUse" x1="26.2952" y1="34.2441" x2="49.4011" y2="-5.7766">
						<stop  offset="0" style="stop-color:#BB925B"/>
						<stop  offset="0.3429" style="stop-color:#FFF6DA"/>
						<stop  offset="0.6571" style="stop-color:#FFF1B1"/>
						<stop  offset="1" style="stop-color:#B38B54"/>
					</linearGradient>
					<path fill="url(#SVGID_4_)" d="M31.931,5.96l1.346,0.146c-0.161,0.066-0.311,0.147-0.451,0.247
						C32.623,6.499,32.46,6.681,32.28,6.89l-0.15,0.19c-0.057,0.072-0.104,0.152-0.139,0.236l-0.272,0.656l-0.35,0.86
						c-0.151,0.373-0.065,0.8,0.219,1.084l0.23,0.23c0.188,0.188,0.442,0.293,0.707,0.293c0.002,0,0.004,0,0.006,0l1.609-0.01
						l3.651-0.02l6.175-0.04l0.88-0.01c0.083-0.001,0.165-0.012,0.245-0.034l0.121-0.032c0.042-0.009,0.083-0.02,0.124-0.032
						l-0.001,0.036c-0.01,0.296,0.112,0.581,0.334,0.778c0.185,0.165,0.421,0.253,0.665,0.253c0.049,0,0.098-0.003,0.146-0.011
						l0.271-0.04c0.477-0.071,0.836-0.472,0.853-0.954l0.001-0.007c0.176-0.027,0.344-0.101,0.484-0.216
						c0.098-0.08,0.178-0.177,0.238-0.284c0.025-0.019,0.05-0.04,0.074-0.062l13.078,0.21c0.091,0.29,0.31,0.525,0.594,0.635
						c0.004,0.076,0.008,0.164,0.012,0.265c0.015,0.405,0.27,0.746,0.624,0.89c-0.346,0.145-0.595,0.479-0.613,0.876l-0.012,0.246
						c-0.199,0.085-0.369,0.233-0.479,0.426l-13.331,0.112L48.245,13.4c-0.098-0.058-0.204-0.099-0.314-0.121l-0.35-0.07
						c-0.017-0.003-0.033-0.006-0.05-0.009c-0.125-0.415-0.51-0.71-0.956-0.71c-0.02,0-0.038,0-0.058,0.001l-0.7,0.04
						c-0.266,0.015-0.515,0.136-0.692,0.335c-0.171,0.193-0.261,0.446-0.25,0.704c-0.284,0.099-0.522,0.3-0.677,0.579
						c-0.033,0.052-0.065,0.104-0.099,0.15c-0.03,0.042-0.057,0.087-0.08,0.133l-0.08,0.16c-0.069,0.139-0.105,0.292-0.105,0.447
						v3.183c-0.146,0.176-0.229,0.399-0.229,0.638v1.189c0,0.018,0,0.036,0.001,0.054c0.055,1.013,0.174,1.911,0.362,2.743
						c0.171,0.769,0.439,1.726,0.866,3.084c0.089,0.305,0.175,0.584,0.253,0.831l-3.881,1.079c-0.099-0.327-0.204-0.669-0.313-1.027
						l-0.076-0.249c-0.387-1.351-0.697-2.546-0.872-3.351c-0.153-0.765-0.249-1.479-0.293-2.193l-0.07-1
						c-0.02-0.285-0.16-0.547-0.386-0.722c-0.112-0.087-0.24-0.147-0.375-0.181c0.179-0.584,0.138-1.201-0.122-1.837
						c-0.01-0.022-0.02-0.046-0.031-0.068c-0.222-0.443-0.59-0.8-1.109-1.068c-0.2-0.1-0.382-0.163-0.572-0.198
						c-0.061-0.011-0.122-0.017-0.184-0.017h-1.46c-0.17,0-0.337,0.043-0.485,0.125c-0.146-0.082-0.313-0.125-0.485-0.125
						c-0.029,0-0.059,0.001-0.089,0.004c-0.391,0.035-0.763,0.166-1.1,0.384c-0.778,0.496-1.161,1.306-1.08,2.253
						c0.011,0.188,0.051,0.417,0.152,0.665c-0.209,0.033-0.471,0.114-0.708,0.304c-0.029,0.023-0.057,0.048-0.083,0.074
						l-0.113,0.112l-0.117,0.117c-0.071,0.071-0.131,0.153-0.179,0.242l-0.85,1.62c-0.096,0.184-0.131,0.387-0.107,0.584
						c-0.125,0.102-0.218,0.209-0.287,0.294c-0.019,0.023-0.036,0.048-0.053,0.072l-0.08,0.12c-0.021,0.032-0.041,0.064-0.058,0.099
						l-1.662,3.245c-0.039,0.078-0.071,0.157-0.096,0.238l-2.761-0.645l4.234-7.322c0.009-0.017,0.019-0.033,0.027-0.05
						c0.085-0.169,0.134-0.336,0.173-0.495c0.155-0.401,0.189-0.808,0.102-1.209c-0.004-0.018-0.008-0.035-0.013-0.052
						c-0.099-0.361-0.216-0.661-0.359-0.919c-0.02-0.036-0.042-0.07-0.065-0.104c-0.184-0.253-0.383-0.465-0.61-0.649
						c-0.024-0.02-0.049-0.038-0.075-0.055c-0.224-0.149-0.466-0.27-0.7-0.348c-0.091-0.03-0.187-0.047-0.283-0.05l-0.635-0.021
						l-0.018-0.969c-0.01-0.529-0.43-0.958-0.959-0.98l-0.266-0.011c-0.184-0.232-0.469-0.38-0.785-0.38h-3.89
						c-0.217,0-0.428,0.07-0.601,0.201l-0.673,0.506l-3.338,0.073c-0.3,0.007-0.567,0.146-0.746,0.359l-2.455,0.031
						c-0.266,0.003-0.521,0.113-0.706,0.305c-0.186,0.191-0.287,0.449-0.282,0.715l0.02,0.98h-1.21
						c-0.212,0-0.409,0.066-0.571,0.179c-0.008-0.005-0.017-0.01-0.025-0.014c-0.151-0.083-0.317-0.125-0.484-0.125
						c-0.185,0-0.37,0.051-0.532,0.153l-2.098,1.318V16.74c0-0.34-0.172-0.656-0.458-0.84c-0.164-0.106-0.353-0.16-0.542-0.16
						c-0.14,0-0.281,0.029-0.412,0.089l-3.631,1.642l0.014-1.741h2.56c0.181,0,0.358-0.049,0.513-0.142
						c0.158-0.094,0.295-0.221,0.402-0.371c0.116-0.138,0.314-0.413,0.314-0.798c0-0.399-0.194-0.766-0.532-1.006
						c-0.101-0.072-0.215-0.124-0.335-0.154l-0.16-0.04c-0.08-0.02-0.161-0.03-0.243-0.03h-2.5l0.017-2.1h3.024
						c0.13,0,0.253-0.024,0.367-0.069l10.035,0.114c0.177,0.164,0.414,0.264,0.673,0.265l6.26,0.03l2.27,0.01
						c0.001,0,0.003,0,0.004,0c0.285,0,0.556-0.122,0.746-0.334c0.001-0.002,0.003-0.004,0.005-0.006h0.209
						c0.103,0,0.202-0.016,0.295-0.044c0.031,0.003,0.063,0.004,0.094,0.004c0.013,0,0.027,0,0.041-0.001l1-0.04
						c0.323-0.013,0.605-0.178,0.778-0.424c0.085,0.023,0.173,0.035,0.262,0.035c0.048,0,0.097-0.003,0.146-0.011
						c0.29-0.042,0.545-0.209,0.701-0.457l1.832-2.913l0.741-1.189l0.03-0.042c0.036-0.017,0.07-0.037,0.103-0.058H31.931
						 M31.985,4.96h-0.23c-0.16,0.03-0.29,0.08-0.39,0.16c-0.1,0.03-0.21,0.1-0.31,0.23l-0.11,0.15l-0.76,1.22l-1.83,2.91
						l-0.08-0.07h-1v0.46l-1,0.04l-0.04-0.27l-0.35,0.04v0.27h-1l0.04,0.34l-2.27-0.01l-6.26-0.03c0-0.07-0.03-0.14-0.08-0.19
						c-0.02-0.02-0.06-0.05-0.11-0.07l-10.54-0.12c-0.03-0.26-0.06-0.44-0.12-0.54c-0.02-0.08-0.07-0.13-0.15-0.15h-4.09
						l-0.08,10.26l0.04,0.12c0.03,0.1,0.08,0.15,0.15,0.15c0.08,0,0.15-0.051,0.2-0.15l0.04-0.12l0.03-0.77l4.6-2.08v1.85l3.63-2.28
						v0.77h1.08v-0.81h2.23l-0.04-2l3.21-0.04v-0.35l3.66-0.08l0.93-0.7h3.89l0.04,0.35l0.97,0.04l0.04,2.12l0.35-0.03v-0.16
						l1.23,0.04c0.15,0.05,0.31,0.13,0.46,0.23c0.16,0.13,0.3,0.28,0.43,0.46c0.1,0.18,0.19,0.41,0.27,0.7
						c0.05,0.23,0.02,0.46-0.08,0.69c-0.03,0.13-0.06,0.25-0.11,0.35l-4.91,8.49l5.44,1.271l0.16-0.351
						c-0.05-0.02-0.1-0.06-0.16-0.109c-0.1-0.131-0.16-0.23-0.19-0.311c-0.02-0.11-0.01-0.21,0.04-0.31l1.66-3.24l0.08-0.12
						c0.08-0.1,0.16-0.18,0.27-0.229c0.2-0.101,0.38-0.181,0.54-0.23l0.11-0.08l-0.42-0.5l0.85-1.62
						c0.08-0.08,0.15-0.149,0.23-0.229c0.1-0.08,0.24-0.11,0.43-0.11h0.19l1.19-0.12h3.63l0.54,0.08l0.43-0.08l0.07,1
						c0.05,0.8,0.16,1.57,0.31,2.32c0.16,0.74,0.45,1.89,0.89,3.43c0.23,0.75,0.44,1.43,0.62,2.05v0.15h0.149l5.83-1.62l-0.16-0.189
						c-0.149-0.44-0.319-0.961-0.5-1.58c-0.38-1.21-0.67-2.21-0.85-3.021c-0.18-0.79-0.29-1.649-0.34-2.58V18.86l0.5-0.2
						l-0.04-0.271l-0.23-0.08v-3.27l0.08-0.16c0.05-0.07,0.101-0.15,0.15-0.23c0.05-0.1,0.13-0.15,0.229-0.15
						c0.051,0,0.091,0.01,0.12,0.04l0.11-0.04c0.11-0.03,0.18-0.06,0.24-0.08c0.05-0.05,0.09-0.12,0.109-0.19l0.04-0.08l-0.04-0.62
						l0.7-0.04l0.07,0.97l0.74-0.27l0.35,0.07l0.27,0.16l14.24-0.12l0.23-0.5h0.27l0.16-0.12c0.07-0.02,0.12-0.08,0.15-0.15
						l0.04-0.85h0.5l0.079,0.23l-0.039,0.54l0.149,0.08c0.08,0.05,0.14,0.09,0.19,0.12c0.08,0,0.149-0.03,0.199-0.08
						c0.021-0.03,0.051-0.07,0.07-0.12l0.08-0.58l0.08-0.23l2.51,0.08v0.15h-0.16v1.16h0.66v-0.31l0.891,0.04l0.189-0.23v-0.7
						l-0.81-0.15l4.09,0.04l0.46-0.16l2.35-0.03v0.15l3.511,0.04v-1.93l-3.511,0.04v0.15l-2.319,0.04l-0.53-0.19h-4.1l-0.04-4.36
						c0.029-0.03,0.04-0.07,0.04-0.12c0-0.1-0.04-0.19-0.11-0.27c-0.18-0.23-0.46-0.37-0.851-0.42
						c-0.03-0.006-0.06-0.009-0.089-0.009c-0.127,0-0.251,0.053-0.381,0.159L65.985,6l-2.36,3.32l-0.04,1.51h-0.5
						c-0.02-0.52-0.05-0.83-0.08-0.93c0-0.05-0.029-0.1-0.109-0.15l-0.08-0.04l-0.38-0.04V9.29l-0.16-0.31l-14.28-0.23
						c-0.07,0.02-0.14,0.05-0.189,0.07c-0.021,0.03-0.051,0.07-0.08,0.12v0.08l-0.271,0.03v0.28l-0.81-0.16l-0.04,1.12l-0.271,0.04
						l0.08-2.51c-0.05-0.1-0.1-0.22-0.16-0.35c-0.119-0.25-0.25-0.47-0.38-0.65c-0.13-0.16-0.35-0.29-0.66-0.39l-0.38-0.08
						L31.985,4.96L31.985,4.96z M32.525,9.44l-0.23-0.23l0.35-0.86l0.27-0.65l0.15-0.19c0.13-0.15,0.24-0.27,0.35-0.35
						c0.1-0.07,0.24-0.14,0.42-0.19h11.08l0.11,0.08c0.1,0.05,0.21,0.11,0.31,0.19c0.28,0.23,0.431,0.54,0.431,0.93
						c0,0.46-0.16,0.79-0.471,1c-0.1,0.08-0.199,0.13-0.31,0.15l-0.15,0.04l-0.88,0.01l-6.17,0.04h-0.01l-3.64,0.02L32.525,9.44
						L32.525,9.44z M64.324,9.71l-0.2-0.16l1.391-2.16l0.89,0.08l0.04,0.39c0.08,0.25,0.13,0.42,0.16,0.5
						c0.05,0.08,0.109,0.14,0.189,0.19h0.341v0.93l-0.19,0.23H64.324L64.324,9.71z M1.655,10.09V9.67l3.35-0.04l0.16,0.04
						c0.07,0.03,0.11,0.08,0.11,0.16c0.03,0.1,0.04,0.19,0.04,0.26H1.655L1.655,10.09z M64.365,10.83v-0.39h2.58l-0.11,0.39H64.365
						L64.365,10.83z M1.925,14.73c-0.06-0.03-0.09-0.05-0.12-0.08c-0.1-0.05-0.15-0.12-0.15-0.19c0-0.08,0.04-0.16,0.11-0.23
						l0.16-0.04h2.85l0.16,0.04c0.07,0.05,0.11,0.11,0.11,0.19c0,0.05-0.04,0.11-0.11,0.19c-0.03,0.05-0.07,0.09-0.12,0.12H1.925
						L1.925,14.73z M35.115,19.48l0.15-0.12c-0.13-0.08-0.24-0.181-0.35-0.311c-0.2-0.29-0.29-0.569-0.27-0.85
						c0.03-0.28,0.14-0.59,0.35-0.931c0.13-0.149,0.24-0.27,0.35-0.34h1.46c0.11,0.021,0.21,0.061,0.31,0.11
						c0.31,0.16,0.53,0.36,0.66,0.62c0.18,0.439,0.2,0.84,0.08,1.2c-0.08,0.199-0.18,0.359-0.31,0.46v0.47h-3.48
						c-0.15-0.08-0.31-0.2-0.46-0.36c-0.31-0.279-0.48-0.59-0.5-0.92c-0.05-0.59,0.15-1.05,0.62-1.35c0.2-0.13,0.42-0.21,0.65-0.23
						l-0.15,0.34c-0.13,0.311-0.18,0.591-0.16,0.82c0.03,0.351,0.21,0.69,0.54,1C34.784,19.27,34.954,19.4,35.115,19.48
						L35.115,19.48z"/>
				</g>
			</g>
		</g>
	</g>
</g>
</svg>
