<?xml version="1.0" encoding="utf-8"?>
<!-- Generator: Adobe Illustrator 16.0.0, SVG Export Plug-In . SVG Version: 6.00 Build 0)  -->
<!DOCTYPE svg PUBLIC "-//W3C//DTD SVG 1.1//EN" "http://www.w3.org/Graphics/SVG/1.1/DTD/svg11.dtd">
<svg version="1.1" id="图层_1" xmlns="http://www.w3.org/2000/svg" xmlns:xlink="http://www.w3.org/1999/xlink" x="0px" y="0px"
	 width="30.875px" height="29.661px" viewBox="0 0 30.875 29.661" enable-background="new 0 0 30.875 29.661" xml:space="preserve">
<rect y="0.682" fill="none" width="30.875" height="29.661"/>
<path fill="#B38B54" fill-opacity="0.302" d="M25.039,14.382l3.543,4.824l-7.172-1.344l0.814,7.238l-4.26-3.263l-3.954,5.705
	l-0.819-3.048l7.501-7.484l1.626-6.493l-2.993-2.992c-0.271-0.272-0.479-0.426-0.626-0.462c-0.235-0.091-0.472-0.019-0.708,0.217
	c-0.363,0.363-0.354,0.789,0.027,1.279l-1.088,1.088l-1.524-0.11l-0.38-0.38c-0.254-0.254-0.508-0.255-0.763-0.001l-1.374,1.912
	l-0.215,1.121l-1.405,1.213l0.299,0.299l-1.306,1.306l-0.299-0.298l-0.517,0.517l-0.345,0.409l-0.27,0.365l-6.084-2.394l6.537-3.061
	L7.393,4.887l5.728,2.418L14.609,0l4.429,5.842l4.932-3.023l-1.05,6.269l6.363,2.164L25.039,14.382z M19.869,16.94l-6.884,6.884
	l-0.812-3.435l0.795-0.604l0.713-0.335l0.382-0.478l-0.095-0.334l1.312-1.313l0.573,0.096l0.883-1.266l1.354,0.288l1.365-1.481
	L19.869,16.94z"/>
<linearGradient id="SVGID_1_" gradientUnits="userSpaceOnUse" x1="-415.5688" y1="298.8833" x2="-416.5681" y2="297.8841" gradientTransform="matrix(7.2401 7.2401 17.2817 -17.2817 -2131.3733 8186.3374)">
	<stop  offset="0" style="stop-color:#BB925B"/>
	<stop  offset="0.3429" style="stop-color:#FFF6DA"/>
	<stop  offset="0.6571" style="stop-color:#FFF1B1"/>
	<stop  offset="1" style="stop-color:#B38B54"/>
</linearGradient>
<path fill="url(#SVGID_1_)" d="M19.884,16.828l-0.462-1.715l-1.28,1.28l-1.251-0.054l-1.279,1.278l-0.271-0.271l-1.307,1.307
	l0.271,0.271l-1.36,1.36l-0.271-0.271l-1.307,1.307l0.271,0.271l-1.36,1.361l-0.272-0.271l-1.307,1.307l0.271,0.271L7.718,25.51
	l-0.463,1.768L6.33,28.204c-0.254,0.254-0.508,0.254-0.762,0L0.724,23.36c-0.254-0.254-0.255-0.508,0-0.764l0.925-0.924l1.742-0.49
	l1.252-1.252l0.3,0.299l1.307-1.307L5.95,18.624l1.36-1.36l0.3,0.3l1.307-1.307l-0.3-0.3l1.362-1.362l0.3,0.3l1.307-1.307l-0.3-0.3
	l1.278-1.278l-0.027-1.225l1.742-1.743c0.254-0.253,0.508-0.252,0.762,0.001l0.38,0.38l1.525,0.109l1.088-1.089
	c-0.381-0.489-0.391-0.914-0.029-1.276c0.236-0.236,0.473-0.31,0.709-0.219c0.145,0.036,0.354,0.191,0.625,0.463l2.992,2.993
	l-1.522,6.586l-8.572,8.572l-1.906-0.653c-0.272-0.091-0.382-0.255-0.326-0.489c0.071-0.254,0.262-0.373,0.57-0.354
	c0.273,0.018,0.636,0.09,1.088,0.217l0.573,0.19L19.884,16.828z"/>
<g>
	<g>
		
			<linearGradient id="SVGID_2_" gradientUnits="userSpaceOnUse" x1="-424.3892" y1="269.1138" x2="-425.3892" y2="268.1138" gradientTransform="matrix(10.473 0 0 -10.795 4474.8843 2923.9944)">
			<stop  offset="0" style="stop-color:#BB925B"/>
			<stop  offset="0.3429" style="stop-color:#FFF6DA"/>
			<stop  offset="0.6571" style="stop-color:#FFF1B1"/>
			<stop  offset="1" style="stop-color:#B38B54"/>
		</linearGradient>
		<path fill="url(#SVGID_2_)" d="M30.253,23.006H26.32v-4.093h-2.609v4.093h-3.932v2.609h3.932v4.093h2.609v-4.093h3.933V23.006z"/>
	</g>
</g>
</svg>
