<?xml version="1.0" encoding="utf-8"?>
<!-- Generator: Adobe Illustrator 16.0.0, SVG Export Plug-In . SVG Version: 6.00 Build 0)  -->
<!DOCTYPE svg PUBLIC "-//W3C//DTD SVG 1.1//EN" "http://www.w3.org/Graphics/SVG/1.1/DTD/svg11.dtd">
<svg version="1.1" id="图层_1" xmlns="http://www.w3.org/2000/svg" xmlns:xlink="http://www.w3.org/1999/xlink" x="0px" y="0px"
	 width="79.833px" height="32px" viewBox="0 0 79.833 32" enable-background="new 0 0 79.833 32" xml:space="preserve">
<rect fill="none" width="79.833" height="32"/>
<g>
	<g>
		<g>
			<g>
				<g>
					
						<linearGradient id="SVGID_1_" gradientUnits="userSpaceOnUse" x1="-869.646" y1="42.127" x2="-868.6557" y2="41.1206" gradientTransform="matrix(78.881 0 0 13.6864 68589.0703 -552.5803)">
						<stop  offset="0.2463" style="stop-color:#000000"/>
						<stop  offset="0.5616" style="stop-color:#FFD400"/>
						<stop  offset="0.8768" style="stop-color:#FF0000"/>
					</linearGradient>
					<path fill="url(#SVGID_1_)" d="M16.598,10.484c1.581-0.238,2.805-0.404,3.67-0.504c0.71-0.08,1.956-0.148,3.729-0.205
						c1.815-0.041,3.166-0.041,4.053,0c0.752,0.019,1.57,0.106,2.457,0.265c0.437,0.08,0.8,0.149,1.096,0.206
						c1.047,0.574,2.169,0.89,3.374,0.947c0.253,0.021,0.608,0.021,1.063,0c0.295,0,0.461,0.012,0.504,0.033
						c0.08,0.099,0.426,0.058,1.033-0.123c0.516-0.139,1.035-0.313,1.57-0.528c0.473-0.181,0.798-0.279,0.975-0.296
						c0.219-0.041,0.492,0,0.83,0.115c0.315,0.101,0.58,0.267,0.799,0.504c0.08,0.101,0.168,0.219,0.266,0.354
						c0.063,0.08,0.143,0.198,0.238,0.354c0.139,0.199,0.492,0.252,1.064,0.15c0.295-0.04,0.571-0.1,0.825-0.178
						c0.298,0,0.622-0.167,0.976-0.501c0.159-0.159,0.299-0.316,0.42-0.478c0.035,0,0.291,0.06,0.768,0.182
						c0.611,0.115,1.24,0.234,1.895,0.353c0.217,0.04,0.444,0.08,0.68,0.117c1.854,0.313,3.711,0.513,5.563,0.593
						c2.095,0.098,4.358-0.048,6.808-0.443c1.24-0.196,2.267-0.402,3.074-0.618l0.236,0.147c0.277,0.155,0.682,0.401,1.212,0.735
						c1.244,0.731,2.495,1.253,3.761,1.569c0.67,0.16,1.459,0.274,2.363,0.354c0.376,0.021,0.781,0.038,1.217,0.058
						c1.022,0.041,2.387-0.076,4.084-0.354c0.846-0.118,1.594-0.245,2.246-0.385c-0.216,0.279-0.474,0.613-0.771,1.007
						c-0.633,0.769-1.192,1.419-1.688,1.951c-0.531,0.593-1.39,1.164-2.572,1.719c-0.869,0.412-1.707,0.728-2.518,0.944
						c-0.098,0.021-0.195,0.041-0.296,0.06c-0.667,0.177-1.753,0.229-3.255,0.147c-1.223-0.057-2.365-0.166-3.432-0.325
						c-0.709-0.118-3.435-0.455-8.164-1.005l-6.896-0.828l-0.113,0.382l-1.867,0.147c-0.099-0.114-0.195-0.228-0.295-0.321
						c-0.08-0.08-0.229-0.147-0.445-0.208c-0.196-0.042-0.361-0.042-0.502,0c-0.1,0.038-0.217,0.098-0.354,0.177l-0.148,0.119
						l0.029-0.179c0.041-0.159-0.107-0.277-0.443-0.354c-0.1-0.021-0.266,0.028-0.502,0.148c-0.238,0.136-0.364,0.235-0.383,0.296
						c-0.021,0.058-0.031,0.167-0.031,0.32c-0.041,0.183-0.135,0.367-0.295,0.563c-0.159,0.22-0.426,0.416-0.803,0.595
						c-0.354,0.157-0.66,0.244-0.916,0.266c-0.217,0-0.404-0.037-0.562-0.117c-0.039-0.018-0.08-0.042-0.119-0.059l-0.028-0.03
						l0.119,0.267c0.059,0.157,0.096,0.334,0.116,0.532c0.021,0.217,0.013,0.481-0.03,0.799c-0.02,0.296-0.138,0.622-0.354,0.979
						c-0.159,0.272-0.328,0.5-0.504,0.681c-0.098,0.116-0.25,0.224-0.441,0.321c-0.199,0.104-0.326,0.123-0.387,0.061
						c-0.059-0.061-0.077-0.119-0.059-0.177c0.021-0.022,0.107-0.138,0.267-0.353c0.136-0.16,0.256-0.486,0.353-0.979
						c0.1-0.477,0.139-0.869,0.122-1.188c-0.022-0.273-0.146-0.631-0.39-1.064c-0.098-0.178-0.184-0.336-0.264-0.475
						c-0.08-0.114-0.138-0.176-0.179-0.176c-0.079,0-0.286,0-0.622,0c-0.434-0.021-0.777-0.041-1.033-0.062
						c-0.238,0-1.295-0.119-3.168-0.354c-1.99-0.258-3.137-0.404-3.433-0.443c-0.493-0.037-2.446,0.05-5.856,0.266
						c-3.395,0.24-5.455,0.414-6.186,0.533c-0.63,0.121-1.795,0.425-3.488,0.918c-1.264,0.376-2.377,0.719-3.346,1.037
						c-0.613,0.176-1.655,0.59-3.138,1.238c-1.437,0.633-2.335,1.059-2.691,1.272c-0.353,0.217-0.611,0.385-0.768,0.503
						C6.54,22.6,6.422,22.727,6.363,22.848c-0.06,0.139-0.1,0.236-0.12,0.295c-0.02,0.039-0.059,0.106-0.116,0.207
						c-0.06,0.078-0.198,0.1-0.414,0.062c-0.198-0.042-0.405-0.109-0.622-0.207c-0.196-0.08-0.623-0.501-1.271-1.271
						c-0.258-0.317-0.476-0.604-0.65-0.859c-0.2-0.256-0.287-0.4-0.267-0.444c0-0.099,0.12-0.235,0.354-0.413
						c0.217-0.139,0.728-0.472,1.537-1.006c0.613-0.415,1.53-0.896,2.754-1.447c0.253-0.101,0.68-0.274,1.271-0.535
						c0.416-0.195,0.68-0.324,0.797-0.384c0.456-0.218,0.981-0.446,1.567-0.682c0.91-0.336,2.032-0.7,3.376-1.097
						c1.301-0.354,3.095-0.699,5.386-1.031c0.787-0.1,1.548-0.188,2.279-0.268c0.608-0.08,0.993-0.121,1.153-0.121
						c0.414-0.02,1.174-0.035,2.273-0.058c1.383-0.021,2.24-0.021,2.575,0c0.89,0.058,1.896,0.136,3.021,0.237
						c1.615,0.138,2.475,0.226,2.572,0.265c0.061,0.023,0.307,0.14,0.739,0.354c0.435,0.197,0.799,0.348,1.095,0.447
						c0.297,0.077,0.563,0.146,0.797,0.203c0.12,0.021,0.209,0.03,0.27,0.03L36.481,14.8c-0.098-0.157-0.176-0.364-0.232-0.62
						c-0.039-0.158-0.061-0.314-0.061-0.476c0-0.078-0.012-0.128-0.029-0.146h-0.062c-0.53,0-1.042-0.039-1.537-0.119
						c-0.297-0.041-1.231-0.098-2.812-0.178c-1.615-0.1-2.674-0.147-3.164-0.147c-0.513,0-1.145,0.018-1.896,0.06
						c-0.729,0.038-1.766,0.106-3.105,0.205c-1.244,0.08-2.804,0.296-4.674,0.654c-1.736,0.313-3.275,0.641-4.617,0.977
						c-1.063,0.276-2.534,0.799-4.41,1.567c-1.005,0.432-2.107,0.915-3.312,1.448c-0.475,0.216-1.106,0.582-1.896,1.095
						c-0.293,0.198-0.709,0.481-1.242,0.858c-0.097,0.059-0.227,0.049-0.384-0.031c-0.059-0.021-0.106-0.049-0.146-0.088
						l-0.061-0.028c-0.16-0.062-0.443-0.326-0.858-0.799c-0.473-0.535-0.776-0.871-0.918-1.007
						c-0.217-0.237-0.362-0.412-0.441-0.533c-0.08-0.139-0.08-0.247,0-0.324c0.058-0.038,0.185-0.188,0.384-0.441
						c0.236-0.301,0.415-0.517,0.532-0.651c0.157-0.159,0.74-0.542,1.746-1.155c0.493-0.293,0.976-0.57,1.449-0.828
						c0.632-0.374,2.041-0.927,4.23-1.654c1.716-0.594,3.078-1.025,4.083-1.304C13.604,10.979,14.786,10.762,16.598,10.484z
						 M26.125,10.518c-0.194,0-0.363,0.065-0.5,0.205c-0.143,0.135-0.209,0.305-0.209,0.504c0,0.193,0.066,0.363,0.209,0.5
						c0.137,0.14,0.306,0.209,0.5,0.209c0.197,0,0.365-0.069,0.504-0.209c0.14-0.137,0.207-0.307,0.207-0.5
						c0-0.199-0.067-0.369-0.207-0.504C26.493,10.583,26.325,10.518,26.125,10.518z M28.375,10.93
						c-0.139,0.116-0.205,0.274-0.205,0.473c0,0.195,0.066,0.363,0.205,0.504c0.139,0.139,0.307,0.205,0.504,0.205
						c0.195,0,0.363-0.066,0.5-0.205c0.141-0.141,0.209-0.309,0.209-0.504c0-0.197-0.068-0.355-0.209-0.473
						c-0.137-0.14-0.305-0.207-0.5-0.207C28.682,10.723,28.514,10.791,28.375,10.93z M66.249,13.563l-14.561-0.355l0.563,0.296
						l14.41,0.384L66.249,13.563z M32.042,15.189c0-0.176-0.065-0.336-0.205-0.475c-0.139-0.117-0.295-0.179-0.475-0.179
						c-0.193,0-0.361,0.062-0.501,0.179c-0.141,0.139-0.208,0.299-0.208,0.475c0,0.181,0.067,0.334,0.208,0.474
						c0.14,0.139,0.308,0.206,0.501,0.206c0.18,0,0.336-0.067,0.475-0.206C31.976,15.523,32.042,15.37,32.042,15.189z M33.32,14.98
						c-0.142,0.119-0.208,0.278-0.208,0.475c0,0.199,0.066,0.355,0.208,0.479c0.136,0.135,0.304,0.2,0.501,0.2
						c0.18,0,0.333-0.065,0.475-0.2c0.139-0.121,0.205-0.278,0.205-0.479c0-0.195-0.066-0.355-0.205-0.475
						c-0.142-0.137-0.295-0.207-0.475-0.207C33.624,14.773,33.456,14.844,33.32,14.98z M10.506,17.883
						c-0.159,0.137-0.237,0.297-0.237,0.473c0,0.196,0.078,0.361,0.237,0.502c0.136,0.141,0.307,0.207,0.504,0.207
						c0.197,0,0.364-0.066,0.501-0.207c0.159-0.141,0.235-0.306,0.235-0.502c0-0.176-0.076-0.336-0.235-0.473
						c-0.137-0.141-0.304-0.211-0.501-0.211C10.813,17.672,10.642,17.743,10.506,17.883z M3.583,17.672
						c0.175,0,0.332-0.068,0.472-0.206c0.138-0.138,0.207-0.295,0.207-0.471c0-0.199-0.069-0.354-0.207-0.478
						c-0.14-0.138-0.297-0.207-0.472-0.207c-0.198,0-0.366,0.069-0.505,0.207c-0.118,0.121-0.176,0.276-0.176,0.478
						c0,0.176,0.058,0.333,0.176,0.471C3.217,17.604,3.385,17.672,3.583,17.672z M5.624,15.988c0,0.195,0.071,0.363,0.208,0.505
						c0.136,0.136,0.296,0.206,0.473,0.206c0.198,0,0.366-0.07,0.503-0.206c0.136-0.142,0.208-0.31,0.208-0.505
						c0-0.178-0.072-0.334-0.208-0.473c-0.137-0.139-0.305-0.207-0.503-0.207c-0.177,0-0.337,0.068-0.473,0.207
						C5.695,15.654,5.624,15.811,5.624,15.988z M8.287,18.828c-0.14,0.137-0.207,0.296-0.207,0.474c0,0.196,0.067,0.367,0.207,0.503
						c0.138,0.141,0.306,0.209,0.503,0.209c0.197,0,0.365-0.068,0.504-0.209c0.138-0.136,0.205-0.307,0.205-0.503
						c0-0.178-0.067-0.337-0.205-0.474c-0.139-0.137-0.307-0.207-0.504-0.207C8.593,18.621,8.424,18.691,8.287,18.828z"/>
				</g>
			</g>
		</g>
	</g>
</g>
<linearGradient id="SVGID_2_" gradientUnits="userSpaceOnUse" x1="21.2852" y1="18.5" x2="38.9351" y2="8.3322" gradientTransform="matrix(0.992 -0.1265 0.1265 0.992 -7.8611 3.4066)">
	<stop  offset="0.3505" style="stop-color:#FFE3A0"/>
	<stop  offset="1" style="stop-color:#00FFFF"/>
</linearGradient>
<path fill="url(#SVGID_2_)" d="M34.56,13.482c0.004,0.001,0.008,0.001,0.012,0.001c-0.675-0.916-1.448-1.893-2.321-2.885
	c-0.168-0.073-0.333-0.152-0.496-0.237c-5.592-0.851-10.277,0.08-10.277,0.08l0.284-0.532c-0.634,0.034-1.134,0.071-1.493,0.112
	c-0.865,0.101-2.089,0.267-3.67,0.504c-0.676,0.104-1.263,0.199-1.764,0.286c2.76-0.241,6.6-0.261,10.625,0.682
	c-0.023-0.071-0.043-0.146-0.043-0.226c0-0.199,0.066-0.367,0.209-0.504c0.137-0.139,0.306-0.205,0.5-0.205
	c0.199,0,0.367,0.066,0.504,0.205c0.14,0.137,0.207,0.305,0.207,0.504c0,0.194-0.067,0.364-0.207,0.502
	c-0.008,0.008-0.018,0.01-0.025,0.018c1.311,0.367,2.632,0.837,3.933,1.446c0.364,0.021,0.761,0.043,1.212,0.071
	C33.329,13.384,34.263,13.439,34.56,13.482z M29.379,11.948c-0.137,0.139-0.305,0.204-0.5,0.204c-0.197,0-0.365-0.065-0.504-0.204
	c-0.139-0.142-0.205-0.308-0.205-0.505s0.066-0.355,0.205-0.471c0.139-0.14,0.307-0.209,0.504-0.209c0.195,0,0.363,0.068,0.5,0.209
	c0.141,0.116,0.209,0.274,0.209,0.471C29.588,11.641,29.52,11.807,29.379,11.948z"/>
<linearGradient id="SVGID_3_" gradientUnits="userSpaceOnUse" x1="25.6392" y1="26.0449" x2="43.2821" y2="15.8811" gradientTransform="matrix(0.992 -0.1265 0.1265 0.992 -7.8611 3.4066)">
	<stop  offset="0.3505" style="stop-color:#FFE3A0"/>
	<stop  offset="1" style="stop-color:#00FFFF"/>
</linearGradient>
<path fill="url(#SVGID_3_)" d="M34.558,14.488c-0.433-0.215-0.679-0.332-0.739-0.355c-0.084-0.033-0.734-0.104-1.938-0.21
	c0.545,0.3,1.083,0.627,1.615,0.981c0.099-0.053,0.204-0.088,0.325-0.088c0.18,0,0.333,0.069,0.475,0.207
	c0.139,0.119,0.205,0.278,0.205,0.474c0,0.039-0.014,0.068-0.02,0.104c0.682,0.509,1.345,1.069,1.988,1.682
	c0.236,0.029,0.454,0.056,0.656,0.08c-0.377-0.649-0.895-1.492-1.549-2.458C35.293,14.807,34.959,14.671,34.558,14.488z"/>
<linearGradient id="SVGID_4_" gradientUnits="userSpaceOnUse" x1="29.7119" y1="20.9775" x2="45.3591" y2="11.9635" gradientTransform="matrix(0.9989 -0.0469 0.0469 0.9989 -3.0538 1.6081)">
	<stop  offset="0.1781" style="stop-color:#FFE3A0"/>
	<stop  offset="1" style="stop-color:#00FFFF"/>
</linearGradient>
<path fill="url(#SVGID_4_)" d="M37.577,11.146c-0.607,0.18-0.953,0.221-1.033,0.121c-0.043-0.021-0.209-0.031-0.504-0.031
	c-0.144,0.007-0.26,0.008-0.383,0.01c2.76,0.854,5.529,2.25,7.904,4.479c0,0-1.384-2.503-3.852-5.305
	c-0.156,0.049-0.34,0.111-0.563,0.197C38.612,10.833,38.092,11.007,37.577,11.146z"/>
<linearGradient id="SVGID_5_" gradientUnits="userSpaceOnUse" x1="21.1216" y1="18.168" x2="38.7719" y2="8" gradientTransform="matrix(0.992 -0.1265 0.1265 0.992 -7.8611 3.4066)">
	<stop  offset="0.3505" style="stop-color:#FFE3A0"/>
	<stop  offset="1" style="stop-color:#00FFFF"/>
</linearGradient>
<path fill="url(#SVGID_5_)" d="M30.52,10.061c-0.887-0.158-1.705-0.246-2.457-0.266c-0.887-0.041-2.237-0.041-4.053,0
	c-0.875,0.028-1.618,0.06-2.235,0.093l-0.284,0.532c0,0,4.686-0.931,10.277-0.08c-0.051-0.026-0.103-0.046-0.152-0.073
	C31.32,10.209,30.957,10.141,30.52,10.061z"/>
<g>
	<g>
		<g>
			<g>
				<g>
					<g>
						<linearGradient id="SVGID_6_" gradientUnits="userSpaceOnUse" x1="78.6909" y1="8.5308" x2="1.3657" y2="21.9468">
							<stop  offset="0" style="stop-color:#BB925B"/>
							<stop  offset="0.3429" style="stop-color:#FFF6DA"/>
							<stop  offset="0.6571" style="stop-color:#FFF1B1"/>
							<stop  offset="1" style="stop-color:#B38B54"/>
						</linearGradient>
						<path fill="url(#SVGID_6_)" d="M24.476,10.766c-0.04,0.146-0.06,0.301-0.06,0.461c0,0.4,0.134,0.775,0.369,1.063
							c-0.39,0.026-0.813,0.057-1.268,0.091c-1.308,0.084-2.922,0.31-4.786,0.668c-1.714,0.309-3.289,0.642-4.691,0.993
							c-1.111,0.288-2.595,0.814-4.553,1.615c-0.478,0.205-0.978,0.423-1.5,0.651c0.02-0.104,0.029-0.211,0.029-0.32
							c0-0.438-0.17-0.843-0.497-1.176c-0.253-0.256-0.563-0.418-0.907-0.478c0.623-0.244,1.485-0.556,2.68-0.952
							c1.638-0.566,2.991-1,4.023-1.286c0.359-0.1,1.247-0.289,3.433-0.623c1.485-0.225,2.742-0.397,3.633-0.499
							c0.679-0.077,1.906-0.145,3.639-0.199C24.175,10.771,24.327,10.769,24.476,10.766 M30.555,11.065
							c0.267,0.049,0.502,0.095,0.709,0.134c1.134,0.596,2.364,0.93,3.627,0.99c0.15,0.013,0.331,0.02,0.541,0.02
							c0.191,0,0.409-0.005,0.607-0.016c0.079,0,0.146,0,0.2,0.002c0.135,0.051,0.296,0.083,0.487,0.083
							c0.279,0,0.629-0.066,1.109-0.209c0.567-0.152,1.119-0.339,1.666-0.561c0.54-0.205,0.7-0.232,0.707-0.233
							c0.032-0.003,0.057-0.006,0.089-0.012c0.024,0,0.12,0.006,0.353,0.084c0.139,0.045,0.249,0.11,0.344,0.206
							c0.064,0.083,0.137,0.182,0.233,0.313c0.046,0.059,0.104,0.146,0.174,0.261c0.01,0.017,0.021,0.033,0.032,0.049
							c0.199,0.287,0.603,0.63,1.387,0.63c0.203,0,0.423-0.021,0.636-0.061c0.305-0.042,0.594-0.102,0.859-0.176
							c0.501-0.049,1.004-0.308,1.509-0.785c0.025-0.025,0.051-0.051,0.075-0.076c0.049,0.013,0.102,0.026,0.157,0.041
							c0.021,0.005,0.043,0.01,0.064,0.014l0.147,0.028c0.568,0.106,1.151,0.217,1.747,0.323c0.227,0.043,0.464,0.084,0.698,0.121
							c0.736,0.124,1.475,0.231,2.214,0.321c-0.097,0.112-0.169,0.247-0.208,0.398c-0.117,0.45,0.092,0.921,0.503,1.137l0.563,0.295
							c0.136,0.071,0.285,0.109,0.438,0.114l14.41,0.385c0.009,0,0.018,0,0.026,0c0.42,0,0.797-0.264,0.94-0.66
							c0.065-0.181,0.075-0.37,0.038-0.549c0.552,0.214,1.107,0.39,1.664,0.529c0.692,0.166,1.513,0.289,2.539,0.379
							c0.34,0.02,0.704,0.036,1.094,0.054l0.14,0.006c0.146,0.006,0.297,0.009,0.454,0.009c0.946,0,2.123-0.108,3.483-0.319
							c-0.277,0.321-0.532,0.606-0.771,0.863c-0.434,0.485-1.191,0.983-2.256,1.482c-0.808,0.383-1.588,0.678-2.319,0.875
							l-0.061,0.013c-0.059,0.012-0.117,0.024-0.177,0.034c-0.029,0.005-0.058,0.012-0.086,0.02
							c-0.261,0.069-0.772,0.152-1.729,0.152c-0.365,0-0.773-0.013-1.223-0.037c-1.175-0.055-2.295-0.161-3.314-0.313
							c-0.969-0.16-5-0.639-8.208-1.011l-6.896-0.828c-0.04-0.005-0.08-0.007-0.12-0.007c-0.333,0-0.64,0.166-0.824,0.435
							l-0.749,0.06c-0.207-0.205-0.479-0.346-0.878-0.457c-0.018-0.005-0.036-0.01-0.055-0.014
							c-0.168-0.037-0.331-0.056-0.485-0.056c-0.12,0-0.236,0.011-0.35,0.033c-0.238-0.136-0.479-0.191-0.604-0.221
							c-0.063-0.013-0.175-0.022-0.239-0.022c-0.27,0-0.549,0.08-0.905,0.26c-0.016,0.008-0.032,0.017-0.048,0.025
							c-0.327,0.188-0.688,0.423-0.829,0.836c-0.048,0.134-0.074,0.282-0.083,0.475c-0.014,0.024-0.036,0.059-0.072,0.103
							c-0.013,0.016-0.025,0.032-0.037,0.049c-0.015,0.02-0.102,0.125-0.396,0.266c-0.279,0.124-0.457,0.166-0.554,0.18
							c-0.036-0.003-0.06-0.008-0.079-0.016c-0.174-0.126-0.38-0.19-0.588-0.19c-0.16,0-0.32,0.038-0.467,0.115
							c-0.041-0.073-0.08-0.144-0.118-0.209c-0.015-0.024-0.029-0.048-0.045-0.07c-0.104-0.15-0.421-0.605-1-0.605l-0.572,0.001
							c-0.42-0.021-0.752-0.039-0.999-0.06c-0.023-0.002-0.059-0.004-0.082-0.004c-0.12-0.002-0.676-0.049-3.041-0.346l-0.376-0.048
							c0.03-0.072,0.055-0.146,0.073-0.224l0.048,0.012l0.71,0.181c0.021,0.006,0.044,0.011,0.066,0.015
							c0.166,0.03,0.316,0.045,0.445,0.045c0.377,0,0.721-0.212,0.892-0.547c0.171-0.336,0.138-0.739-0.084-1.043l-0.209-0.286
							c-0.02-0.038-0.059-0.128-0.099-0.309c-0.021-0.087-0.031-0.162-0.031-0.237c0-0.352-0.108-0.638-0.322-0.852
							c-0.188-0.188-0.442-0.293-0.707-0.293h-0.062c-0.478,0-0.941-0.036-1.4-0.109c-0.316-0.044-1.156-0.098-2.887-0.186
							c-0.525-0.032-0.995-0.06-1.406-0.082c0.121-0.236,0.185-0.5,0.185-0.779C30.588,11.287,30.578,11.174,30.555,11.065
							 M64.167,11.854c0.248,0.142,0.604,0.358,1.102,0.671c0.007,0.005,0.015,0.009,0.021,0.014l-4.188-0.103
							c0.103-0.016,0.205-0.032,0.309-0.049C62.502,12.214,63.41,12.039,64.167,11.854 M27.332,14.573
							c0.401,0,0.68,0.004,0.829,0.013c0.499,0.032,1.022,0.071,1.565,0.114c-0.049,0.156-0.073,0.319-0.073,0.489
							c0,0.198,0.034,0.39,0.101,0.569c-0.923,0.046-2.088,0.113-3.489,0.203c-3.595,0.254-5.53,0.422-6.304,0.548
							c-0.697,0.135-1.901,0.45-3.584,0.941c-1.326,0.394-2.43,0.736-3.337,1.035c-0.094,0.026-0.197,0.059-0.308,0.095
							c0.01-0.073,0.015-0.148,0.015-0.226c0-0.456-0.195-0.881-0.55-1.202c-0.079-0.076-0.163-0.145-0.25-0.203
							c0.802-0.284,1.752-0.587,2.876-0.919c1.272-0.346,3.044-0.685,5.249-1.004c0.781-0.099,1.536-0.187,2.284-0.269
							c0.788-0.104,0.982-0.112,1.069-0.113c0.39-0.019,1.087-0.033,2.09-0.055l0.15-0.003
							C26.35,14.578,26.906,14.573,27.332,14.573 M4.842,15.175c-0.096,0.166-0.161,0.345-0.193,0.531
							c-0.107-0.091-0.221-0.166-0.341-0.226C4.485,15.377,4.663,15.275,4.842,15.175 M5.234,17.3
							c0.074,0.063,0.152,0.118,0.233,0.167c-0.111,0.062-0.228,0.128-0.349,0.2C5.171,17.55,5.21,17.427,5.234,17.3 M2.866,18.519
							c0.212,0.098,0.445,0.149,0.691,0.153c-0.101,0.069-0.208,0.144-0.322,0.224C3.173,18.841,3.058,18.73,2.866,18.519
							 M7.095,19.077c-0.01,0.073-0.015,0.147-0.015,0.224c0,0.474,0.176,0.895,0.493,1.203c0.064,0.065,0.131,0.125,0.202,0.178
							c-0.366,0.177-0.635,0.317-0.813,0.423c-0.399,0.245-0.669,0.423-0.86,0.568c-0.254,0.198-0.437,0.393-0.576,0.626
							C5.447,22.234,5.183,22,4.597,21.305c-0.148-0.183-0.28-0.353-0.396-0.508c0.275-0.18,0.659-0.432,1.154-0.759
							C5.768,19.759,6.356,19.435,7.095,19.077 M26.372,9.744c-0.676,0-1.467,0.011-2.375,0.031
							C22.224,9.832,20.978,9.9,20.268,9.98c-0.865,0.1-2.089,0.266-3.67,0.504c-1.813,0.277-2.994,0.494-3.55,0.648
							c-1.005,0.279-2.367,0.711-4.083,1.305c-2.189,0.727-3.598,1.279-4.23,1.654c-0.473,0.258-0.956,0.535-1.449,0.828
							c-1.006,0.613-1.589,0.996-1.746,1.154c-0.117,0.135-0.296,0.352-0.532,0.652c-0.199,0.254-0.326,0.402-0.384,0.441
							c-0.08,0.076-0.08,0.186,0,0.324c0.079,0.121,0.224,0.295,0.441,0.533c0.142,0.135,0.445,0.471,0.918,1.006
							c0.415,0.473,0.698,0.738,0.858,0.799l0.061,0.029c0.04,0.039,0.087,0.066,0.146,0.088c0.09,0.046,0.171,0.068,0.243,0.068
							c0.053,0,0.1-0.012,0.142-0.037c0.533-0.377,0.949-0.66,1.242-0.859c0.79-0.512,1.421-0.879,1.896-1.094
							c1.205-0.533,2.307-1.018,3.312-1.449c1.876-0.768,3.347-1.291,4.41-1.566c1.342-0.336,2.881-0.664,4.617-0.977
							c1.87-0.359,3.43-0.574,4.674-0.654c1.34-0.1,2.377-0.168,3.105-0.205c0.752-0.043,1.384-0.061,1.896-0.061
							c0.49,0,1.549,0.049,3.164,0.148c1.58,0.08,2.515,0.137,2.812,0.178c0.495,0.08,1.007,0.119,1.537,0.119h0.062
							c0.018,0.018,0.029,0.066,0.029,0.145c0,0.162,0.021,0.318,0.061,0.477c0.057,0.256,0.135,0.463,0.232,0.619l0.238,0.326
							c-0.061,0-0.149-0.008-0.27-0.029c-0.234-0.059-0.5-0.127-0.797-0.203c-0.296-0.1-0.66-0.25-1.095-0.447
							c-0.433-0.215-0.679-0.332-0.739-0.355c-0.098-0.039-0.957-0.127-2.572-0.264c-1.125-0.102-2.131-0.18-3.021-0.238
							c-0.167-0.01-0.466-0.015-0.895-0.015s-0.989,0.005-1.681,0.015c-1.1,0.023-1.859,0.039-2.273,0.059
							c-0.16,0-0.545,0.041-1.153,0.121c-0.731,0.08-1.492,0.168-2.279,0.268c-2.291,0.332-4.085,0.678-5.386,1.031
							c-1.344,0.396-2.466,0.76-3.376,1.096c-0.586,0.236-1.111,0.465-1.567,0.682c-0.117,0.061-0.381,0.189-0.797,0.385
							c-0.591,0.26-1.018,0.434-1.271,0.535c-1.224,0.551-2.141,1.031-2.754,1.447c-0.809,0.533-1.32,0.867-1.537,1.006
							c-0.234,0.178-0.354,0.314-0.354,0.412c-0.02,0.045,0.067,0.189,0.267,0.445c0.174,0.254,0.392,0.541,0.65,0.859
							c0.648,0.77,1.075,1.189,1.271,1.27c0.217,0.098,0.424,0.166,0.622,0.207c0.07,0.013,0.133,0.02,0.187,0.02
							c0.111,0,0.187-0.027,0.228-0.08c0.057-0.102,0.096-0.168,0.116-0.207c0.02-0.059,0.06-0.156,0.12-0.295
							c0.059-0.121,0.177-0.248,0.355-0.387c0.157-0.119,0.415-0.287,0.768-0.504c0.356-0.213,1.254-0.639,2.691-1.271
							c1.483-0.648,2.525-1.063,3.138-1.238c0.969-0.318,2.082-0.662,3.346-1.037c1.693-0.494,2.858-0.797,3.488-0.918
							c0.73-0.119,2.791-0.293,6.186-0.533c2.898-0.185,4.744-0.274,5.536-0.274c0.14,0,0.246,0.003,0.32,0.009
							c0.296,0.039,1.442,0.186,3.433,0.443c1.873,0.234,2.93,0.354,3.168,0.354c0.256,0.021,0.6,0.041,1.033,0.063
							c0.336,0,0.543,0,0.622,0c0.041,0,0.099,0.061,0.179,0.176c0.08,0.139,0.166,0.297,0.264,0.475
							c0.244,0.434,0.367,0.791,0.39,1.064c0.017,0.318-0.022,0.711-0.122,1.188c-0.097,0.492-0.217,0.818-0.353,0.979
							c-0.159,0.215-0.246,0.33-0.267,0.352c-0.019,0.059,0,0.117,0.059,0.178c0.023,0.023,0.056,0.035,0.098,0.035
							c0.069,0,0.165-0.031,0.289-0.096c0.191-0.098,0.344-0.205,0.441-0.322c0.176-0.18,0.345-0.408,0.504-0.68
							c0.216-0.357,0.334-0.684,0.354-0.98c0.043-0.316,0.051-0.582,0.03-0.799c-0.021-0.197-0.058-0.375-0.116-0.531l-0.119-0.268
							l0.028,0.031c0.039,0.016,0.08,0.041,0.119,0.059c0.157,0.08,0.345,0.117,0.562,0.117c0.256-0.021,0.563-0.109,0.916-0.266
							c0.377-0.18,0.644-0.375,0.803-0.596c0.16-0.195,0.254-0.381,0.295-0.563c0-0.154,0.01-0.264,0.031-0.32
							c0.019-0.061,0.145-0.16,0.383-0.297c0.203-0.103,0.354-0.152,0.455-0.152c0.018,0,0.032,0.001,0.047,0.004
							c0.336,0.078,0.484,0.195,0.443,0.355l-0.029,0.178l0.148-0.119c0.137-0.078,0.254-0.139,0.354-0.176
							c0.07-0.021,0.146-0.032,0.23-0.032c0.083,0,0.174,0.011,0.271,0.032c0.217,0.061,0.365,0.127,0.445,0.207
							c0.1,0.094,0.196,0.207,0.295,0.322l1.867-0.148l0.113-0.381l6.896,0.828c4.729,0.549,7.455,0.887,8.164,1.004
							c1.066,0.16,2.209,0.27,3.432,0.326c0.462,0.025,0.885,0.038,1.269,0.038c0.862,0,1.524-0.063,1.986-0.187
							c0.101-0.018,0.198-0.039,0.296-0.059c0.811-0.217,1.648-0.533,2.518-0.945c1.183-0.555,2.041-1.125,2.572-1.719
							c0.495-0.531,1.055-1.182,1.688-1.951c0.298-0.393,0.556-0.727,0.771-1.006c-0.652,0.139-1.4,0.266-2.246,0.385
							c-1.478,0.241-2.702,0.361-3.67,0.361c-0.144,0-0.281-0.003-0.414-0.008c-0.436-0.02-0.841-0.037-1.217-0.059
							c-0.904-0.08-1.693-0.193-2.363-0.354c-1.266-0.316-2.517-0.838-3.761-1.57c-0.53-0.334-0.935-0.58-1.212-0.734l-0.236-0.148
							c-0.808,0.217-1.834,0.422-3.074,0.619c-1.96,0.315-3.802,0.473-5.532,0.473c-0.432,0-0.857-0.01-1.275-0.029
							c-1.853-0.08-3.71-0.279-5.563-0.594c-0.235-0.037-0.463-0.076-0.68-0.117c-0.654-0.117-1.283-0.236-1.895-0.352
							c-0.477-0.123-0.732-0.182-0.768-0.182c-0.121,0.16-0.261,0.318-0.42,0.477c-0.354,0.334-0.678,0.502-0.976,0.502
							c-0.254,0.078-0.53,0.137-0.825,0.178c-0.189,0.034-0.355,0.051-0.498,0.051c-0.285,0-0.474-0.068-0.566-0.201
							c-0.096-0.156-0.176-0.273-0.238-0.354c-0.098-0.135-0.186-0.254-0.266-0.354c-0.219-0.238-0.483-0.404-0.799-0.504
							c-0.252-0.086-0.469-0.131-0.653-0.131c-0.063,0-0.121,0.005-0.177,0.016c-0.177,0.016-0.502,0.115-0.975,0.295
							c-0.535,0.217-1.055,0.391-1.57,0.529c-0.394,0.116-0.678,0.175-0.85,0.175c-0.094,0-0.155-0.018-0.184-0.052
							c-0.043-0.021-0.209-0.033-0.504-0.033c-0.228,0.011-0.43,0.016-0.607,0.016s-0.33-0.005-0.456-0.016
							c-1.205-0.059-2.327-0.373-3.374-0.947c-0.296-0.057-0.659-0.127-1.096-0.207c-0.887-0.158-1.705-0.246-2.457-0.264
							C27.606,9.755,27.046,9.744,26.372,9.744L26.372,9.744z M26.125,11.936c-0.194,0-0.363-0.07-0.5-0.209
							c-0.143-0.137-0.209-0.307-0.209-0.5c0-0.199,0.066-0.369,0.209-0.504c0.137-0.141,0.306-0.205,0.5-0.205
							c0.199,0,0.367,0.064,0.504,0.205c0.14,0.135,0.207,0.305,0.207,0.504c0,0.193-0.067,0.363-0.207,0.5
							C26.491,11.865,26.323,11.936,26.125,11.936L26.125,11.936z M28.879,12.111c-0.197,0-0.365-0.066-0.504-0.205
							c-0.139-0.141-0.205-0.309-0.205-0.504c0-0.199,0.066-0.357,0.205-0.473c0.139-0.139,0.307-0.207,0.504-0.207
							c0.195,0,0.363,0.066,0.5,0.207c0.141,0.117,0.209,0.275,0.209,0.473c0,0.195-0.068,0.363-0.209,0.504
							C29.243,12.045,29.075,12.111,28.879,12.111L28.879,12.111z M66.661,13.887l-14.41-0.385l-0.563-0.295l14.561,0.355
							L66.661,13.887L66.661,13.887z M31.362,15.869c-0.193,0-0.361-0.068-0.501-0.207c-0.141-0.139-0.208-0.293-0.208-0.473
							c0-0.176,0.067-0.336,0.208-0.475c0.14-0.117,0.308-0.18,0.501-0.18c0.18,0,0.336,0.063,0.475,0.18
							c0.14,0.139,0.205,0.299,0.205,0.475c0,0.18-0.065,0.334-0.205,0.473C31.698,15.801,31.542,15.869,31.362,15.869
							L31.362,15.869z M33.821,16.133c-0.197,0-0.365-0.064-0.501-0.199c-0.142-0.123-0.208-0.279-0.208-0.479
							c0-0.197,0.066-0.355,0.208-0.475c0.136-0.137,0.304-0.207,0.501-0.207c0.18,0,0.333,0.07,0.475,0.207
							C34.434,15.1,34.5,15.26,34.5,15.455c0,0.199-0.066,0.357-0.205,0.479C34.154,16.068,34,16.133,33.821,16.133L33.821,16.133z
							 M6.305,16.699c-0.177,0-0.337-0.07-0.473-0.207c-0.137-0.141-0.208-0.309-0.208-0.504c0-0.178,0.071-0.334,0.208-0.473
							c0.136-0.139,0.296-0.207,0.473-0.207c0.198,0,0.366,0.068,0.503,0.207c0.136,0.139,0.208,0.295,0.208,0.473
							c0,0.195-0.072,0.363-0.208,0.504C6.671,16.629,6.503,16.699,6.305,16.699L6.305,16.699z M3.583,17.672
							c-0.198,0-0.366-0.068-0.505-0.207c-0.118-0.137-0.176-0.295-0.176-0.471c0-0.201,0.058-0.355,0.176-0.477
							c0.139-0.139,0.307-0.207,0.505-0.207c0.175,0,0.332,0.068,0.472,0.207c0.138,0.123,0.207,0.277,0.207,0.477
							c0,0.176-0.069,0.334-0.207,0.471C3.915,17.604,3.758,17.672,3.583,17.672L3.583,17.672z M11.01,19.064
							c-0.197,0-0.368-0.066-0.504-0.207c-0.159-0.141-0.237-0.307-0.237-0.502c0-0.176,0.078-0.336,0.237-0.473
							c0.136-0.141,0.307-0.211,0.504-0.211c0.197,0,0.364,0.07,0.501,0.211c0.159,0.137,0.235,0.297,0.235,0.473
							c0,0.195-0.076,0.361-0.235,0.502C11.374,18.998,11.207,19.064,11.01,19.064L11.01,19.064z M8.79,20.014
							c-0.197,0-0.365-0.068-0.503-0.209c-0.14-0.137-0.207-0.307-0.207-0.504c0-0.178,0.067-0.336,0.207-0.473
							c0.137-0.137,0.306-0.207,0.503-0.207c0.197,0,0.365,0.07,0.504,0.207c0.138,0.137,0.205,0.295,0.205,0.473
							c0,0.197-0.067,0.367-0.205,0.504C9.155,19.945,8.987,20.014,8.79,20.014L8.79,20.014z M79.446,12.908h0.005H79.446z"/>
					</g>
				</g>
			</g>
		</g>
	</g>
</g>
<rect fill="none" width="79.833" height="32"/>
<g>
	<g>
		<path fill="#7A4621" d="M41.583,26.807l5.631,4.694l12.39,0.376c4.254-0.501,7.758-1.627,10.511-3.379
			c3.629-5.028,6.785-7.542,9.471-7.542c-1.822-0.728-3.908-0.429-6.258,0.894c-2.351,1.324-4.734-0.018-7.154-4.022
			c-2.252-1.501-6.666-0.412-10.281,1.342l3.713-5.812l-10.866,3.577L41.583,26.807z"/>
	</g>
</g>
<linearGradient id="SVGID_7_" gradientUnits="userSpaceOnUse" x1="-854.4033" y1="44.0938" x2="-853.4042" y2="45.0944" gradientTransform="matrix(30.7822 0 0 12.7634 26346.1855 -545.8325)">
	<stop  offset="0.6071" style="stop-color:#FFF6DA"/>
	<stop  offset="1" style="stop-color:#D6BB7E"/>
</linearGradient>
<path fill="url(#SVGID_7_)" d="M53.926,16.485h-3.188l-6.151,12.764h2.859l0.946-2.165h2.562l-0.166,2.165h2.733L53.926,16.485z
	 M51.616,19.699l-0.467,5.42h-1.928L51.616,19.699z M65.889,18.516c0-1.326-1.238-2.03-3.57-2.03c-2.888,0-4.21,0.921-4.898,3.29
	l-1.727,5.949c-0.216,0.697-0.258,1.043-0.258,1.365c0,1.402,1.302,2.159,3.717,2.159c1.329,0,2.373-0.229,3.104-0.698
	c0.787-0.521,1.281-1.326,1.664-2.728l0.41-1.448h-2.734l-0.452,1.57c-0.319,1.145-0.724,1.484-1.69,1.484
	c-0.744,0-1.154-0.271-1.154-0.769c0-0.152,0.048-0.41,0.131-0.733l1.838-6.322c0.277-0.938,0.73-1.313,1.629-1.313
	c0.744,0,1.148,0.271,1.148,0.751c0,0.205-0.063,0.463-0.188,0.956l-0.341,1.231h2.734l0.426-1.49
	C65.827,19.23,65.889,18.838,65.889,18.516z M75.37,16.485h-7.315l-3.479,12.764h7.523l0.535-1.96h-4.746l1.064-3.994h4.279
	l0.536-1.93h-4.28l0.813-2.95h4.531L75.37,16.485z"/>
</svg>
