<?xml version="1.0" encoding="utf-8"?>
<!-- Generator: Adobe Illustrator 16.0.0, SVG Export Plug-In . SVG Version: 6.00 Build 0)  -->
<!DOCTYPE svg PUBLIC "-//W3C//DTD SVG 1.1//EN" "http://www.w3.org/Graphics/SVG/1.1/DTD/svg11.dtd">
<svg version="1.1" id="图层_1" xmlns="http://www.w3.org/2000/svg" xmlns:xlink="http://www.w3.org/1999/xlink" x="0px" y="0px"
	 width="68.25px" height="32px" viewBox="0 0 68.25 32" enable-background="new 0 0 68.25 32" xml:space="preserve">
<rect fill="none" width="68.25" height="32"/>
<linearGradient id="SVGID_1_" gradientUnits="userSpaceOnUse" x1="-879.4023" y1="25.4648" x2="-878.4397" y2="24.429" gradientTransform="matrix(67.806 0 0 22.935 59625.7539 -557.6807)">
	<stop  offset="0.1921" style="stop-color:#000000"/>
	<stop  offset="0.4729" style="stop-color:#FFD400"/>
	<stop  offset="0.7488" style="stop-color:#FF0000"/>
</linearGradient>
<path fill="url(#SVGID_1_)" d="M67.857,6.396c0.129,0.28,0.19,0.572,0.19,0.877c0,0.202,0,0.368,0,0.496
	c-0.024,0.127-0.036,0.266-0.036,0.419c0,0.025-0.014,0.049-0.037,0.076c-0.055,0-0.076,0.025-0.076,0.075
	c0,0.026-0.012,0.206-0.041,0.535c0,0.304-0.012,0.621-0.039,0.953c-0.022,0.355-0.036,0.685-0.036,0.992
	c-0.026,0.329-0.039,0.532-0.039,0.607v0.268h-2.362c0,0.025-0.038,0.114-0.113,0.267c-0.024,0-0.063,0.011-0.113,0.036
	c-0.053,0-0.202,0.014-0.459,0.04c-0.229,0.024-0.584,0.038-1.065,0.038s-1.155,0-2.021,0c-0.457,0-0.889-0.014-1.295-0.038
	c-0.381-0.026-0.748-0.04-1.104-0.04h-0.987c-0.205,0-0.396,0.026-0.574,0.078c-0.354,0.05-0.709,0.204-1.064,0.456
	c-0.407,0.305-0.749,0.61-1.027,0.915c-0.256,0.331-0.396,0.583-0.42,0.761c-0.052,0.281-0.078,0.547-0.078,0.802
	c0,0.227,0,0.379,0,0.456c0.18,0.28,0.203,0.47,0.078,0.571c-0.101,0.128-0.191,0.229-0.267,0.306v0.114
	c-0.076,0.078-0.269,0.153-0.572,0.229c-0.28,0.053-0.61,0.141-0.989,0.268c-0.384,0.127-0.84,0.254-1.373,0.38
	c-0.33,0.076-0.787,0.103-1.373,0.076c-0.582,0-1.396-0.101-2.438-0.306c-0.534-0.074-0.928-0.074-1.182,0
	c-0.303,0.078-0.545,0.18-0.726,0.306c-0.176,0.128-0.292,0.268-0.342,0.419l-1.522,5.26c0,0.025-0.014,0.049-0.037,0.076v0.15
	c0,0.151,0.014,0.369,0.037,0.646c0.051,0.305,0.114,0.738,0.189,1.296v0.608c0,0.635-0.127,1.131-0.381,1.484
	c-0.128,0.104-0.253,0.166-0.383,0.192c-0.127,0.024-0.201,0.037-0.229,0.037h-5.335l-0.038-0.076c-0.049,0-0.113-0.012-0.188-0.038
	c-0.052,0-0.103-0.013-0.151-0.039c-0.076,0-0.167-0.025-0.268-0.076c-0.305-0.177-0.459-0.558-0.459-1.143
	c0-0.102,0.027-0.189,0.076-0.266c0.027-0.078,0.041-0.153,0.041-0.229c-0.765-0.026-1.271-0.088-1.523-0.19
	c-0.255-0.074-0.42-0.166-0.495-0.267v-0.151c-0.052-0.024-0.076-0.078-0.076-0.152c0-0.076,0-0.128,0-0.151
	c-0.024-0.052-0.041-0.114-0.041-0.188c-0.051-0.129-0.073-0.293-0.073-0.497v-0.382c0-0.508,0.063-1.028,0.189-1.562
	c0.148-0.532,0.229-0.813,0.229-0.838h0.039v-0.039c0.051-0.076,0.215-0.469,0.494-1.18c0.277-0.688,0.609-1.449,0.988-2.287
	c0.357-0.837,0.699-1.611,1.03-2.322c0.305-0.711,0.493-1.132,0.569-1.259c0.051-0.203,0.078-0.38,0.078-0.533
	c0-0.304-0.115-0.647-0.344-1.027c-0.152-0.305-0.432-0.495-0.836-0.574c-0.357-0.074-0.688-0.15-0.993-0.228
	c-0.305,0-0.521-0.024-0.646-0.076c-0.18-0.127-0.271-0.317-0.271-0.572V11.16c0-0.227,0.063-0.405,0.191-0.534
	c0.153-0.127,0.331-0.19,0.532-0.19c0.076-0.101,0.153-0.154,0.229-0.154c0.052,0,0.115-0.009,0.19-0.036
	c0.149-0.078,0.367-0.281,0.646-0.61l0.152-0.152c0.201-0.229,0.367-0.521,0.494-0.876c0.125-0.381,0.188-0.66,0.188-0.838
	c0-0.024-0.036-0.23-0.114-0.61c-0.076-0.355-0.113-0.61-0.113-0.763V6.284c0.076-0.255,0.191-0.394,0.344-0.421
	c0.126-0.126,0.304-0.153,0.533-0.075c0.129,0.05,0.292,0.102,0.492,0.152c0.205,0.05,0.347,0.077,0.424,0.077
	c0.1-0.051,0.188-0.077,0.265-0.077c0.103-0.026,0.203-0.077,0.308-0.152c0.151-0.026,0.291-0.064,0.418-0.115
	c0.102-0.024,0.203-0.062,0.306-0.114c0.101-0.052,0.202-0.075,0.304-0.075h0.114V4.758h0.231c0.607,0.026,0.976,0.063,1.104,0.115
	c0.102,0.049,0.164,0.125,0.189,0.227c0.051,0.076,0.076,0.154,0.076,0.229c0,0.101,0.012,0.229,0.037,0.38h1.829
	c0.433,0,0.938-0.011,1.522-0.038c0.916,0,1.627,0,2.134,0c0.534,0,0.915,0,1.146,0c0.229,0.026,0.381,0.038,0.459,0.038h0.073
	c0.179,0.101,0.267,0.203,0.267,0.307h14.746V5.978c0-0.079,0.023-0.128,0.074-0.152c0.053-0.051,0.104-0.089,0.154-0.116
	c0.072-0.023,0.111-0.049,0.111-0.076c0.027-0.023,0.078-0.1,0.152-0.229c0.205-0.177,0.483-0.239,0.838-0.19
	c0.305,0.026,0.496,0.051,0.573,0.077L67.32,5.37l0.113,0.114c0.178,0.075,0.278,0.215,0.305,0.416
	C67.77,6.105,67.807,6.271,67.857,6.396z M48.848,12.53c-0.279,0.026-0.433,0.039-0.459,0.039c-0.05,0-0.076,0.013-0.076,0.037H48.2
	c-0.177,0.079-0.407,0.19-0.687,0.343c-0.252,0.153-0.42,0.356-0.494,0.611c-0.078,0.278-0.115,0.494-0.115,0.646
	c0,0.382,0.05,0.624,0.152,0.724v0.038h0.076c0.024,0.102,0.217,0.292,0.572,0.573l0.113,0.038c0.255,0.177,0.686,0.342,1.295,0.496
	c0.584,0.154,1.246,0.177,1.982,0.075c1.752-0.229,2.68-0.672,2.78-1.333c0.075-0.151,0.114-0.329,0.114-0.534
	c0-0.303-0.09-0.609-0.268-0.913c-0.179-0.33-0.508-0.61-0.992-0.839c-0.48,0-0.978,0-1.483,0c-0.481,0-0.929,0-1.334,0
	C49.506,12.53,49.152,12.53,48.848,12.53z M32.627,5.404c0.204,0.026,0.33,0.141,0.381,0.345c0.05,0.229,0.075,0.406,0.075,0.535
	c0.178,0.304,0.267,0.608,0.267,0.914c0,0.178-0.024,0.328-0.075,0.456c-0.026,0.128-0.051,0.268-0.076,0.418v0.154
	c0,0.025-0.014,0.19-0.039,0.496c-0.024,0.33-0.05,0.66-0.077,0.99c0,0.381-0.025,0.712-0.075,0.99
	c-0.025,0.306-0.039,0.497-0.039,0.574v0.266h-2.286c-0.052,0.049-0.076,0.103-0.076,0.152c0,0.025-0.038,0.076-0.114,0.151
	l-0.076,0.038c-0.078,0-0.23,0.013-0.458,0.039c-0.23,0.026-0.584,0.039-1.066,0.039c-0.458,0-1.131,0-2.018,0
	c-0.434,0-0.852-0.013-1.26-0.039c-0.406-0.026-0.776-0.039-1.104-0.039h-1.106c-0.151,0-0.316,0.026-0.495,0.078
	c-0.406,0.076-0.788,0.23-1.144,0.456c-0.406,0.305-0.735,0.61-0.989,0.915c-0.255,0.33-0.394,0.583-0.42,0.762
	c-0.05,0.278-0.076,0.545-0.076,0.799c0,0.229,0.025,0.381,0.076,0.458c0.103,0.278,0.116,0.482,0.04,0.609
	c-0.102,0.128-0.192,0.215-0.268,0.269v0.074c-0.075,0.076-0.266,0.152-0.571,0.23c-0.305,0.099-0.635,0.203-0.991,0.302
	c-0.356,0.103-0.687,0.192-0.991,0.269l-0.42,0.113c-0.329,0.077-0.787,0.102-1.37,0.077c-0.584-0.052-1.423-0.165-2.514-0.342
	c-0.508-0.078-0.901-0.078-1.182,0c-0.279,0.101-0.494,0.215-0.648,0.342c-0.126,0.126-0.228,0.269-0.303,0.419L9.578,22.97v0.229
	c0,0.152,0,0.367,0,0.646c0,0.306,0.036,0.736,0.113,1.296c0.077,0.151,0.115,0.369,0.115,0.647c0,0.659-0.139,1.13-0.419,1.409
	c-0.152,0.15-0.279,0.228-0.381,0.228c-0.077,0.025-0.139,0.039-0.19,0.039H3.444c0-0.024-0.205-0.114-0.611-0.267
	c-0.177-0.076-0.292-0.217-0.342-0.42c-0.051-0.229-0.077-0.455-0.077-0.686v-0.496c-0.66-0.025-1.118-0.076-1.372-0.152
	c-0.024-0.023-0.051-0.036-0.075-0.036c-0.254-0.103-0.418-0.189-0.497-0.271c-0.024-0.021-0.037-0.074-0.037-0.152
	c-0.051-0.024-0.076-0.073-0.076-0.149v-0.304c-0.024-0.152-0.038-0.331-0.038-0.534c0-0.077-0.013-0.142-0.039-0.188
	c-0.025-0.078-0.037-0.154-0.037-0.23c0-0.508,0.063-1.016,0.189-1.521c0.127-0.51,0.191-0.802,0.191-0.879v-0.076
	c0.052-0.022,0.191-0.305,0.418-0.836c0.026-0.076,0.064-0.166,0.116-0.269c0.305-0.709,0.646-1.483,1.028-2.322
	c0.355-0.84,0.699-1.626,1.027-2.362c0.305-0.711,0.495-1.107,0.573-1.182c0.05-0.279,0.076-0.458,0.076-0.535
	c0-0.329-0.102-0.672-0.305-1.027c-0.153-0.306-0.419-0.495-0.8-0.573c-0.38-0.075-0.737-0.138-1.066-0.189
	c-0.254,0-0.459-0.038-0.612-0.114L1.04,11.655c-0.152-0.178-0.228-0.357-0.228-0.534v-0.038c0-0.253,0.052-0.431,0.152-0.533
	c0.024-0.026,0.051-0.052,0.075-0.078c0.153-0.125,0.333-0.19,0.536-0.19c0.076-0.049,0.138-0.075,0.189-0.075
	c0.076,0,0.138-0.014,0.19-0.039c0.152-0.076,0.368-0.278,0.647-0.609L2.715,9.37C2.918,9.166,3.086,8.874,3.21,8.493
	c0.128-0.354,0.204-0.624,0.231-0.799c0-0.103-0.041-0.307-0.117-0.61c-0.046-0.355-0.072-0.61-0.072-0.762V6.168
	C3.304,5.939,3.392,5.8,3.518,5.749C3.694,5.648,3.875,5.634,4.052,5.71C4.18,5.736,4.356,5.788,4.586,5.863
	c0.228,0.05,0.38,0.077,0.455,0.077l0.535-0.23c0.128-0.023,0.255-0.076,0.381-0.151C6.059,5.506,6.173,5.47,6.301,5.444
	c0.075-0.025,0.189-0.04,0.343-0.04h0.037V4.646h0.266c0.586,0.025,0.94,0.062,1.068,0.113c0.127,0.026,0.19,0.076,0.19,0.152
	c0.077,0.23,0.116,0.458,0.116,0.687c0.101,0,0.342,0,0.723,0c0.356,0,0.737-0.013,1.142-0.039c0.433,0,0.94-0.025,1.524-0.075
	c0.915,0,1.625,0.012,2.134,0.036c0.507,0.026,0.876,0.04,1.104,0.04c0.23,0,0.37,0,0.421,0c0.051,0.026,0.1,0.039,0.152,0.039
	c0.076,0.075,0.15,0.19,0.229,0.342h14.82V5.863c0-0.075,0.051-0.164,0.15-0.265c0.026-0.079,0.064-0.114,0.114-0.114
	c0.079-0.025,0.141-0.09,0.191-0.192c0.18-0.202,0.445-0.279,0.802-0.229c0.355,0.05,0.57,0.102,0.646,0.151l0.076,0.04
	L32.627,5.404z M16.471,12.379c-0.482,0-0.927,0-1.331,0c-0.406,0-0.763,0.011-1.068,0.037c-0.279,0-0.433,0-0.458,0l-0.19,0.076
	c-0.177,0.078-0.404,0.179-0.686,0.305c-0.252,0.179-0.418,0.383-0.495,0.611c-0.075,0.153-0.113,0.369-0.113,0.647
	c0,0.381,0.051,0.623,0.151,0.724l0.077,0.077c0.052,0.075,0.114,0.14,0.189,0.189c0.077,0.052,0.205,0.179,0.382,0.38l0.153,0.04
	c0.228,0.153,0.649,0.305,1.255,0.456c0.61,0.154,1.259,0.18,1.944,0.078c1.754-0.281,2.705-0.71,2.859-1.295
	c0.051-0.127,0.074-0.318,0.074-0.572c0-0.279-0.088-0.571-0.266-0.875c-0.177-0.331-0.508-0.624-0.99-0.876
	C17.477,12.379,16.98,12.379,16.471,12.379z"/>
<path fill="none" d="M52.73,96.031c-0.48,0-0.978,0-1.483,0c-0.481,0-0.929,0-1.334,0c-0.407,0-0.761,0-1.065,0
	c-0.279,0.025-0.433,0.038-0.459,0.038c-0.05,0-0.076,0.013-0.076,0.037H48.2c-0.177,0.079-0.407,0.19-0.687,0.343
	c-0.252,0.153-0.42,0.356-0.494,0.611c-0.078,0.277-0.115,0.494-0.115,0.646c0,0.381,0.05,0.623,0.152,0.724v0.038h0.076
	c0.024,0.102,0.217,0.291,0.572,0.572l0.113,0.039c0.255,0.176,0.686,0.342,1.295,0.496c0.584,0.153,1.246,0.176,1.982,0.074
	c1.752-0.229,2.68-0.672,2.78-1.333c0.075-0.151,0.114-0.329,0.114-0.534c0-0.303-0.09-0.609-0.268-0.912
	C53.544,96.541,53.215,96.26,52.73,96.031z"/>
<path fill="none" d="M12.358,98.356c0.052,0.075,0.114,0.14,0.189,0.188c0.077,0.053,0.205,0.18,0.382,0.381l0.153,0.039
	c0.228,0.154,0.649,0.306,1.255,0.457c0.61,0.154,1.259,0.18,1.944,0.078c1.754-0.281,2.705-0.711,2.859-1.295
	c0.051-0.127,0.074-0.318,0.074-0.572c0-0.279-0.088-0.571-0.266-0.875c-0.177-0.332-0.508-0.625-0.99-0.877
	c-0.481-0.002-0.978-0.002-1.487-0.002c-0.482,0-0.927,0-1.331,0c-0.406,0-0.763,0.012-1.068,0.037c-0.279,0-0.433,0-0.458,0
	l-0.19,0.076c-0.177,0.078-0.404,0.18-0.686,0.305c-0.252,0.18-0.418,0.384-0.495,0.611c-0.075,0.153-0.113,0.369-0.113,0.647
	c0,0.381,0.051,0.622,0.151,0.724L12.358,98.356z"/>
<linearGradient id="SVGID_2_" gradientUnits="userSpaceOnUse" x1="-879.2632" y1="29.2354" x2="-878.3007" y2="28.1996" gradientTransform="matrix(67.806 0 0 22.935 59625.7539 -557.6807)">
	<stop  offset="0.1921" style="stop-color:#000000"/>
	<stop  offset="0.4729" style="stop-color:#FFD400"/>
	<stop  offset="0.7488" style="stop-color:#FF0000"/>
</linearGradient>
<path fill="url(#SVGID_2_)" d="M67.857,89.896c-0.051-0.125-0.088-0.291-0.119-0.496c-0.026-0.201-0.127-0.341-0.305-0.416
	l-0.113-0.113l-0.151-0.078c-0.077-0.026-0.269-0.051-0.573-0.078c-0.354-0.049-0.633,0.014-0.838,0.191
	c-0.074,0.129-0.125,0.205-0.152,0.229c0,0.027-0.039,0.053-0.111,0.076c-0.051,0.026-0.102,0.064-0.154,0.115
	c-0.051,0.024-0.074,0.073-0.074,0.152v0.038H50.52c0-0.104-0.088-0.206-0.267-0.308H50.18c-0.078,0-0.23-0.012-0.459-0.037
	c-0.23,0-0.611,0-1.146,0c-0.507,0-1.218,0-2.134,0c-0.584,0.027-1.09,0.037-1.522,0.037H43.09c-0.025-0.15-0.037-0.278-0.037-0.379
	c0-0.076-0.025-0.154-0.076-0.229c-0.025-0.103-0.088-0.179-0.189-0.228c-0.128-0.052-0.496-0.088-1.104-0.115h-0.231v0.727h-0.114
	c-0.102,0-0.203,0.023-0.304,0.075c-0.103,0.052-0.204,0.09-0.306,0.114c-0.127,0.051-0.267,0.089-0.418,0.115
	c-0.104,0.074-0.205,0.125-0.308,0.151c-0.068,0-0.148,0.028-0.233,0.068c2.683,3.179,4.147,6.147,4.147,6.147
	c-1.737-1.791-3.73-3.102-5.789-4.061c-0.031,0.144-0.078,0.313-0.144,0.513c-0.127,0.354-0.293,0.647-0.494,0.876l-0.152,0.152
	c-0.279,0.328-0.497,0.531-0.646,0.609c-0.075,0.027-0.139,0.037-0.19,0.037c-0.076,0-0.153,0.053-0.229,0.153
	c-0.201,0-0.379,0.063-0.532,0.19c-0.128,0.129-0.191,0.307-0.191,0.533v0.076c0,0.256,0.091,0.445,0.271,0.572
	c0.125,0.052,0.341,0.076,0.646,0.076c0.306,0.078,0.636,0.154,0.993,0.228c0.404,0.079,0.684,0.269,0.836,0.574
	c0.229,0.38,0.344,0.724,0.344,1.026c0,0.154-0.027,0.33-0.078,0.533c-0.076,0.127-0.265,0.549-0.569,1.26
	c-0.331,0.711-0.673,1.484-1.03,2.322c-0.379,0.838-0.711,1.598-0.988,2.287c-0.279,0.711-0.443,1.104-0.494,1.18v0.039h-0.039
	c0,0.023-0.08,0.305-0.229,0.838c-0.127,0.533-0.189,1.053-0.189,1.561v0.383c0,0.203,0.022,0.367,0.073,0.496
	c0,0.074,0.017,0.137,0.041,0.189c0,0.023,0,0.074,0,0.15c0,0.074,0.024,0.129,0.076,0.152v0.152c0.075,0.1,0.24,0.191,0.495,0.266
	c0.253,0.104,0.759,0.164,1.523,0.191c0,0.076-0.014,0.15-0.041,0.229c-0.049,0.076-0.076,0.164-0.076,0.266
	c0,0.586,0.154,0.967,0.459,1.143c0.101,0.051,0.191,0.076,0.268,0.076c0.049,0.027,0.1,0.039,0.151,0.039
	c0.075,0.027,0.14,0.039,0.188,0.039l0.038,0.076h5.335c0.027,0,0.102-0.014,0.229-0.037c0.13-0.027,0.255-0.09,0.383-0.193
	c0.254-0.354,0.381-0.85,0.381-1.484v-0.607c-0.075-0.559-0.139-0.992-0.189-1.297c-0.023-0.277-0.037-0.494-0.037-0.646v-0.15
	c0.023-0.027,0.037-0.051,0.037-0.076l1.522-5.26c0.05-0.15,0.166-0.291,0.342-0.418c0.181-0.127,0.423-0.229,0.726-0.307
	c0.254-0.074,0.647-0.074,1.182,0c1.042,0.205,1.855,0.307,2.438,0.307c0.586,0.025,1.043,0,1.373-0.076
	c0.533-0.127,0.989-0.254,1.373-0.381c0.379-0.127,0.709-0.215,0.989-0.268c0.304-0.076,0.496-0.15,0.572-0.229v-0.115
	c0.075-0.076,0.166-0.178,0.267-0.305c0.125-0.102,0.102-0.291-0.078-0.572c0-0.076,0-0.229,0-0.455
	c0-0.256,0.026-0.521,0.078-0.803c0.024-0.178,0.164-0.43,0.42-0.761c0.278-0.305,0.62-0.61,1.027-0.915
	c0.355-0.252,0.71-0.406,1.064-0.455c0.179-0.053,0.369-0.078,0.574-0.078h0.987c0.356,0,0.724,0.014,1.104,0.039
	c0.406,0.024,0.838,0.039,1.295,0.039c0.865,0,1.539,0,2.021,0s0.837-0.015,1.065-0.039c0.257-0.025,0.406-0.039,0.459-0.039
	c0.05-0.025,0.089-0.037,0.113-0.037c0.075-0.152,0.113-0.242,0.113-0.267h2.362v-0.269c0-0.074,0.013-0.277,0.039-0.606
	c0-0.307,0.014-0.637,0.036-0.991c0.027-0.332,0.039-0.65,0.039-0.953c0.029-0.33,0.041-0.51,0.041-0.535
	c0-0.051,0.021-0.075,0.076-0.075c0.023-0.027,0.037-0.052,0.037-0.076c0-0.153,0.012-0.292,0.036-0.419c0-0.128,0-0.294,0-0.496
	C68.048,90.469,67.986,90.176,67.857,89.896z M53.876,98.317c-0.101,0.661-1.028,1.104-2.78,1.333
	c-0.736,0.102-1.398,0.079-1.982-0.074c-0.609-0.154-1.04-0.32-1.295-0.496l-0.113-0.039c-0.355-0.281-0.548-0.471-0.572-0.572
	h-0.076v-0.038c-0.103-0.101-0.152-0.343-0.152-0.724c0-0.152,0.037-0.369,0.115-0.646c0.074-0.255,0.242-0.458,0.494-0.611
	c0.279-0.152,0.51-0.264,0.687-0.343h0.112c0-0.024,0.026-0.037,0.076-0.037c0.026,0,0.18-0.013,0.459-0.038
	c0.305,0,0.658,0,1.065,0c0.405,0,0.853,0,1.334,0c0.506,0,1.003,0,1.483,0c0.484,0.229,0.813,0.51,0.992,0.84
	c0.178,0.303,0.268,0.609,0.268,0.912C53.99,97.988,53.951,98.166,53.876,98.317z"/>
<linearGradient id="SVGID_3_" gradientUnits="userSpaceOnUse" x1="-879.5591" y1="28.96" x2="-878.5964" y2="27.924" gradientTransform="matrix(67.806 0 0 22.935 59625.7539 -557.6807)">
	<stop  offset="0.1921" style="stop-color:#000000"/>
	<stop  offset="0.4729" style="stop-color:#FFD400"/>
	<stop  offset="0.7488" style="stop-color:#FF0000"/>
</linearGradient>
<path fill="url(#SVGID_3_)" d="M30.57,89.441H18.188c1.864,1.984,3.379,4.106,4.578,6.062c0.049-0.012,0.095-0.032,0.145-0.042
	c0.179-0.051,0.344-0.078,0.495-0.078h1.106c0.328,0,0.698,0.014,1.104,0.039c0.408,0.027,0.826,0.039,1.26,0.039
	c0.887,0,1.56,0,2.018,0c0.482,0,0.836-0.012,1.066-0.039c0.228-0.025,0.38-0.039,0.458-0.039l0.076-0.037
	c0.076-0.075,0.114-0.127,0.114-0.151c0-0.049,0.024-0.103,0.076-0.151h2.286v-0.267c0-0.077,0.014-0.269,0.039-0.573
	c0.05-0.279,0.075-0.609,0.075-0.99c0.027-0.33,0.053-0.66,0.077-0.99c0.025-0.307,0.039-0.471,0.039-0.496v-0.154
	c0.025-0.15,0.05-0.289,0.076-0.418c0.051-0.128,0.075-0.277,0.075-0.455c0-0.265-0.08-0.527-0.212-0.789
	C32.261,89.71,31.4,89.556,30.57,89.441L30.57,89.441z"/>
<linearGradient id="SVGID_4_" gradientUnits="userSpaceOnUse" x1="-879.5132" y1="29.0029" x2="-878.5507" y2="27.9672" gradientTransform="matrix(67.806 0 0 22.935 59625.7539 -557.6807)">
	<stop  offset="0.1921" style="stop-color:#000000"/>
	<stop  offset="0.4729" style="stop-color:#FFD400"/>
	<stop  offset="0.7488" style="stop-color:#FF0000"/>
</linearGradient>
<path fill="url(#SVGID_4_)" d="M3.21,91.994c-0.124,0.381-0.292,0.672-0.495,0.877L2.601,93.06
	c-0.279,0.331-0.495,0.532-0.647,0.608c-0.052,0.025-0.114,0.039-0.19,0.039c-0.051,0-0.113,0.026-0.189,0.076
	c-0.203,0-0.383,0.064-0.536,0.189c-0.024,0.025-0.051,0.052-0.075,0.078c-0.1,0.102-0.152,0.279-0.152,0.533v0.037
	c0,0.178,0.076,0.356,0.228,0.535l0.038,0.037c0.153,0.076,0.358,0.114,0.612,0.114c0.329,0.051,0.686,0.114,1.066,0.188
	c0.381,0.078,0.647,0.268,0.8,0.573c0.203,0.354,0.305,0.698,0.305,1.027c0,0.077-0.026,0.256-0.076,0.534
	c-0.078,0.076-0.268,0.472-0.573,1.183c-0.328,0.735-0.672,1.522-1.027,2.362c-0.382,0.838-0.723,1.613-1.028,2.322
	c-0.052,0.102-0.09,0.191-0.116,0.268c-0.227,0.531-0.366,0.814-0.418,0.836v0.076c0,0.078-0.064,0.369-0.191,0.879
	c-0.126,0.506-0.189,1.014-0.189,1.521c0,0.076,0.012,0.152,0.037,0.23c0.026,0.047,0.039,0.111,0.039,0.189
	c0,0.203,0.014,0.381,0.038,0.533v0.305c0,0.076,0.025,0.125,0.076,0.148c0,0.078,0.013,0.131,0.037,0.152
	c0.079,0.082,0.243,0.168,0.497,0.271c0.024,0,0.051,0.012,0.075,0.035c0.254,0.076,0.712,0.127,1.372,0.152v0.496
	c0,0.23,0.026,0.457,0.077,0.686c0.05,0.203,0.165,0.344,0.342,0.42c0.406,0.152,0.611,0.242,0.611,0.268h5.372
	c0.051,0,0.113-0.014,0.19-0.039c0.102,0,0.229-0.078,0.381-0.229c0.28-0.279,0.419-0.75,0.419-1.408
	c0-0.279-0.038-0.496-0.115-0.648c-0.077-0.559-0.113-0.99-0.113-1.295c0-0.279,0-0.494,0-0.646v-0.229l1.561-5.258
	c0.075-0.15,0.177-0.293,0.303-0.418c0.154-0.127,0.369-0.242,0.648-0.342c0.281-0.078,0.674-0.078,1.182,0
	c1.091,0.176,1.93,0.289,2.514,0.342c0.583,0.023,1.041,0,1.37-0.078l0.42-0.113c0.304-0.076,0.635-0.166,0.991-0.268
	c0.356-0.1,0.686-0.203,0.991-0.303c0.305-0.078,0.496-0.154,0.571-0.23v-0.073c0.076-0.054,0.166-0.142,0.268-0.269
	c0.076-0.127,0.063-0.332-0.04-0.609c-0.051-0.077-0.076-0.229-0.076-0.458c0-0.254,0.026-0.521,0.076-0.8
	c0.022-0.149,0.142-0.365,0.325-0.622C14.573,92.659,7.25,91.937,3.238,91.91C3.227,91.94,3.222,91.962,3.21,91.994z M12.243,96.908
	c0.077-0.228,0.243-0.432,0.495-0.611c0.282-0.125,0.509-0.227,0.686-0.305l0.19-0.076c0.025,0,0.179,0,0.458,0
	c0.305-0.025,0.662-0.037,1.068-0.037c0.404,0,0.849,0,1.331,0c0.509,0,1.006,0,1.487,0.002c0.482,0.252,0.813,0.545,0.99,0.877
	c0.178,0.304,0.266,0.596,0.266,0.875c0,0.254-0.023,0.445-0.074,0.572c-0.154,0.584-1.105,1.014-2.859,1.295
	c-0.685,0.102-1.334,0.076-1.944-0.078c-0.606-0.151-1.027-0.303-1.255-0.457l-0.153-0.039c-0.177-0.201-0.305-0.328-0.382-0.381
	c-0.075-0.049-0.137-0.113-0.189-0.188l-0.077-0.077c-0.1-0.102-0.151-0.343-0.151-0.724C12.13,97.277,12.168,97.062,12.243,96.908z
	"/>
<linearGradient id="SVGID_5_" gradientUnits="userSpaceOnUse" x1="8.7192" y1="108.1416" x2="26.37" y2="97.9733">
	<stop  offset="0.3505" style="stop-color:#FFE3A0"/>
	<stop  offset="1" style="stop-color:#00FFFF"/>
</linearGradient>
<path fill="url(#SVGID_5_)" d="M20.777,96.832c-0.041,0.053-0.06,0.091-0.095,0.14c2.074,1.465,4.008,3.342,5.624,5.747
	c0,0-1.117-3.262-3.541-7.216c-0.351,0.084-0.687,0.216-0.999,0.415C21.36,96.223,21.031,96.527,20.777,96.832z"/>
<linearGradient id="SVGID_6_" gradientUnits="userSpaceOnUse" x1="-0.3223" y1="92.4473" x2="17.3285" y2="82.279">
	<stop  offset="0.3505" style="stop-color:#FFE3A0"/>
	<stop  offset="1" style="stop-color:#00FFFF"/>
</linearGradient>
<path fill="url(#SVGID_6_)" d="M3.324,90.584c-0.046-0.354-0.072-0.609-0.072-0.762v-0.154c0.052-0.229,0.14-0.367,0.266-0.418
	c0.176-0.102,0.357-0.115,0.534-0.039c0.128,0.025,0.304,0.078,0.534,0.152c0.228,0.051,0.38,0.077,0.455,0.077l0.535-0.229
	c0.128-0.023,0.255-0.076,0.381-0.151c0.102-0.054,0.216-0.089,0.344-0.115c0.075-0.024,0.189-0.04,0.343-0.04h0.037v-0.758h0.266
	c0.586,0.025,0.94,0.063,1.068,0.113c0.127,0.025,0.19,0.076,0.19,0.152c0.077,0.229,0.116,0.457,0.116,0.687
	c0.101,0,0.342,0,0.723,0c0.356,0,0.737-0.013,1.142-0.039c0.433,0,0.94-0.024,1.524-0.075c0.915,0,1.625,0.012,2.134,0.036
	c0.507,0.026,0.876,0.04,1.104,0.04c0.23,0,0.37,0,0.421,0c0.051,0.025,0.1,0.039,0.152,0.039c0.076,0.074,0.15,0.189,0.229,0.342
	h2.438c-3.346-3.563-7.8-6.674-13.507-7.535L0.243,92.031c0,0,1.148-0.134,2.995-0.121c0.108-0.309,0.179-0.557,0.203-0.716
	C3.441,91.092,3.4,90.888,3.324,90.584z"/>
<linearGradient id="SVGID_7_" gradientUnits="userSpaceOnUse" x1="-879.647" y1="28.8779" x2="-878.6844" y2="27.8422" gradientTransform="matrix(67.806 0 0 22.935 59625.7539 -557.6807)">
	<stop  offset="0.1921" style="stop-color:#000000"/>
	<stop  offset="0.4729" style="stop-color:#FFD400"/>
	<stop  offset="0.7488" style="stop-color:#FF0000"/>
</linearGradient>
<path fill="url(#SVGID_7_)" d="M15.75,89.441c-0.079-0.152-0.153-0.268-0.229-0.342c-0.052,0-0.101-0.014-0.152-0.039
	c-0.051,0-0.191,0-0.421,0c-0.228,0-0.597-0.014-1.104-0.04c-0.509-0.024-1.219-0.036-2.134-0.036
	c-0.584,0.051-1.091,0.075-1.524,0.075c-0.405,0.026-0.786,0.039-1.142,0.039c-0.381,0-0.622,0-0.723,0
	c0-0.229-0.039-0.457-0.116-0.687c0-0.076-0.063-0.127-0.19-0.152c-0.128-0.051-0.482-0.088-1.068-0.113H6.681v0.758H6.644
	c-0.154,0-0.268,0.016-0.343,0.04c-0.128,0.026-0.242,0.062-0.344,0.115c-0.126,0.075-0.253,0.128-0.381,0.151L5.041,89.44
	c-0.075,0-0.227-0.026-0.455-0.077c-0.23-0.074-0.406-0.127-0.534-0.152c-0.177-0.076-0.358-0.063-0.534,0.039
	c-0.126,0.051-0.214,0.189-0.266,0.418v0.154c0,0.152,0.026,0.407,0.072,0.762c0.076,0.304,0.117,0.508,0.117,0.61
	c-0.024,0.159-0.095,0.407-0.203,0.716c4.012,0.026,11.335,0.749,17.444,5.062c0.035-0.049,0.054-0.087,0.095-0.14
	c0.254-0.305,0.583-0.609,0.989-0.914c0.313-0.199,0.648-0.331,0.999-0.415c-1.198-1.955-2.714-4.077-4.578-6.062H15.75z"/>
<linearGradient id="SVGID_8_" gradientUnits="userSpaceOnUse" x1="3.0596" y1="14.8174" x2="20.7103" y2="4.6491">
	<stop  offset="0.3505" style="stop-color:#FFE3A0"/>
	<stop  offset="1" style="stop-color:#00FFFF"/>
</linearGradient>
<path fill="url(#SVGID_8_)" d="M15.75,5.941c-0.079-0.152-0.153-0.268-0.229-0.342c-0.052,0-0.101-0.014-0.152-0.039
	c-0.051,0-0.191,0-0.421,0c-0.228,0-0.597-0.014-1.104-0.04c-0.509-0.024-1.219-0.036-2.134-0.036
	c-0.584,0.051-1.091,0.075-1.524,0.075C9.781,5.585,9.4,5.598,9.044,5.598c-0.381,0-0.622,0-0.723,0
	c0-0.229-0.039-0.457-0.116-0.687c0-0.076-0.063-0.127-0.19-0.152C7.887,4.708,7.533,4.671,6.947,4.646H6.681v0.758H6.644
	c-0.154,0-0.268,0.016-0.343,0.04C6.173,5.47,6.059,5.505,5.957,5.559C5.831,5.634,5.704,5.687,5.576,5.71L5.041,5.94
	c-0.075,0-0.227-0.026-0.455-0.077C4.356,5.789,4.18,5.736,4.052,5.71C3.875,5.634,3.694,5.648,3.518,5.75
	C3.392,5.8,3.304,5.939,3.252,6.167v0.154c0,0.152,0.026,0.407,0.072,0.762C3.4,7.387,3.441,7.591,3.441,7.694
	C3.417,7.853,3.346,8.101,3.238,8.41c4.012,0.026,11.335,0.749,17.444,5.062c0.035-0.049,0.054-0.087,0.095-0.14
	c0.254-0.305,0.583-0.609,0.989-0.914c0.313-0.199,0.648-0.331,0.999-0.415c-1.198-1.955-2.714-4.077-4.578-6.062H15.75z"/>
<linearGradient id="SVGID_9_" gradientUnits="userSpaceOnUse" x1="22.9971" y1="92.1309" x2="38.642" y2="83.1181">
	<stop  offset="0.1781" style="stop-color:#FFE3A0"/>
	<stop  offset="1" style="stop-color:#00FFFF"/>
</linearGradient>
<path fill="url(#SVGID_9_)" d="M38.059,90.66c-0.076-0.354-0.113-0.609-0.113-0.763v-0.112c0.076-0.256,0.191-0.395,0.344-0.422
	c0.126-0.126,0.304-0.152,0.533-0.074c0.129,0.049,0.292,0.102,0.492,0.151c0.205,0.05,0.347,0.077,0.424,0.077
	c0.012-0.006,0.02-0.004,0.031-0.009c-2.999-3.554-7.521-7.372-13.228-7.603l-4.438,7.438c0,0,3.738-0.561,8.465,0.097v-0.077
	c0-0.074,0.051-0.164,0.15-0.265c0.026-0.079,0.064-0.114,0.114-0.114c0.079-0.025,0.141-0.09,0.191-0.191
	c0.18-0.203,0.445-0.279,0.802-0.229c0.355,0.05,0.57,0.103,0.646,0.151l0.076,0.039l0.078,0.15c0.204,0.026,0.33,0.141,0.381,0.346
	c0.05,0.229,0.075,0.406,0.075,0.535c0.024,0.041,0.034,0.083,0.055,0.125c1.642,0.375,3.337,0.915,4.99,1.686
	c0.028-0.13,0.045-0.24,0.045-0.325C38.173,91.246,38.137,91.041,38.059,90.66z"/>
<linearGradient id="SVGID_10_" gradientUnits="userSpaceOnUse" x1="-879.4312" y1="29.0791" x2="-878.4686" y2="28.0433" gradientTransform="matrix(67.806 0 0 22.935 59625.7539 -557.6807)">
	<stop  offset="0.1921" style="stop-color:#000000"/>
	<stop  offset="0.4729" style="stop-color:#FFD400"/>
	<stop  offset="0.7488" style="stop-color:#FF0000"/>
</linearGradient>
<path fill="url(#SVGID_10_)" d="M39.77,89.509c-0.012,0.005-0.02,0.003-0.031,0.009c-0.077,0-0.219-0.027-0.424-0.077
	c-0.2-0.05-0.363-0.103-0.492-0.151c-0.229-0.078-0.407-0.052-0.533,0.074c-0.152,0.027-0.268,0.166-0.344,0.422v0.112
	c0,0.153,0.037,0.408,0.113,0.763c0.078,0.381,0.114,0.586,0.114,0.61c0,0.085-0.017,0.195-0.045,0.325
	c2.059,0.959,4.052,2.27,5.789,4.061C43.917,95.656,42.452,92.688,39.77,89.509z"/>
<linearGradient id="SVGID_11_" gradientUnits="userSpaceOnUse" x1="27.6694" y1="16.7383" x2="43.3131" y2="7.7262">
	<stop  offset="0.1781" style="stop-color:#FFE3A0"/>
	<stop  offset="1" style="stop-color:#00FFFF"/>
</linearGradient>
<path fill="url(#SVGID_11_)" d="M39.77,6.008c-0.012,0.005-0.02,0.003-0.031,0.009c-0.077,0-0.219-0.027-0.424-0.077
	c-0.2-0.05-0.363-0.103-0.492-0.151c-0.229-0.078-0.407-0.052-0.533,0.074c-0.152,0.027-0.268,0.166-0.344,0.422v0.112
	c0,0.153,0.037,0.408,0.113,0.763c0.078,0.381,0.114,0.586,0.114,0.61c0,0.085-0.017,0.195-0.045,0.325
	c2.059,0.959,4.052,2.27,5.789,4.061C43.917,12.156,42.452,9.187,39.77,6.008z"/>
<linearGradient id="SVGID_12_" gradientUnits="userSpaceOnUse" x1="-879.5713" y1="28.9492" x2="-878.6088" y2="27.9135" gradientTransform="matrix(67.806 0 0 22.935 59625.7539 -557.6807)">
	<stop  offset="0.1921" style="stop-color:#000000"/>
	<stop  offset="0.4729" style="stop-color:#FFD400"/>
	<stop  offset="0.7488" style="stop-color:#FF0000"/>
</linearGradient>
<path fill="url(#SVGID_12_)" d="M33.008,89.25c-0.051-0.205-0.177-0.319-0.381-0.346l-0.078-0.15l-0.076-0.039
	c-0.076-0.049-0.291-0.102-0.646-0.151c-0.357-0.05-0.622,0.026-0.802,0.229c-0.05,0.102-0.112,0.166-0.191,0.191
	c-0.05,0-0.088,0.035-0.114,0.114c-0.099,0.101-0.15,0.19-0.15,0.265v0.077c0.831,0.115,1.691,0.27,2.568,0.47
	c-0.021-0.042-0.03-0.084-0.055-0.125C33.083,89.656,33.058,89.479,33.008,89.25z"/>
<linearGradient id="SVGID_13_" gradientUnits="userSpaceOnUse" x1="24.0488" y1="10.459" x2="39.6972" y2="1.4442">
	<stop  offset="0.1781" style="stop-color:#FFE3A0"/>
	<stop  offset="1" style="stop-color:#00FFFF"/>
</linearGradient>
<path fill="url(#SVGID_13_)" d="M33.008,5.75c-0.051-0.205-0.177-0.319-0.381-0.346l-0.078-0.15l-0.076-0.039
	c-0.076-0.049-0.291-0.102-0.646-0.151c-0.357-0.05-0.622,0.026-0.802,0.229c-0.05,0.102-0.112,0.166-0.191,0.191
	c-0.05,0-0.088,0.035-0.114,0.114c-0.099,0.101-0.15,0.19-0.15,0.265V5.94c0.831,0.115,1.691,0.27,2.568,0.47
	c-0.021-0.042-0.03-0.084-0.055-0.125C33.083,6.156,33.058,5.978,33.008,5.75z"/>
<g>
	<linearGradient id="SVGID_14_" gradientUnits="userSpaceOnUse" x1="66.4814" y1="2.1431" x2="0.245" y2="24.5472">
		<stop  offset="0" style="stop-color:#BB925B"/>
		<stop  offset="0.3429" style="stop-color:#FFF6DA"/>
		<stop  offset="0.6571" style="stop-color:#FFF1B1"/>
		<stop  offset="1" style="stop-color:#B38B54"/>
	</linearGradient>
	<path fill="url(#SVGID_14_)" d="M31.711,6.056c0.075,0.011,0.136,0.021,0.185,0.03c0.055,0.059,0.117,0.11,0.185,0.154
		c0.003,0.029,0.003,0.043,0.003,0.044c0,0.179,0.048,0.354,0.138,0.508c0.087,0.146,0.129,0.28,0.129,0.406
		c0,0.058-0.005,0.085-0.004,0.085c0,0,0,0,0,0c-0.022,0.056-0.04,0.114-0.052,0.173c-0.028,0.14-0.055,0.289-0.082,0.452
		c-0.009,0.054-0.014,0.108-0.014,0.163L32.2,8.184c-0.002,0.035-0.009,0.118-0.02,0.252l-0.018,0.214
		c-0.023,0.327-0.05,0.654-0.076,0.981c-0.002,0.027-0.003,0.054-0.003,0.081c0,0.32-0.02,0.595-0.06,0.813
		c-0.001,0.006-0.002,0.012-0.003,0.018h-1.337c-0.253,0-0.498,0.097-0.683,0.27c-0.038,0.035-0.073,0.072-0.105,0.11
		c-0.018,0.002-0.036,0.004-0.054,0.006c-0.179,0.021-0.498,0.032-0.948,0.032h-2.018c-0.433,0-0.823-0.012-1.197-0.037
		c-0.436-0.027-0.828-0.041-1.167-0.041h-1.106c-0.229,0-0.466,0.034-0.724,0.104c-0.51,0.102-0.999,0.3-1.452,0.588
		c-0.021,0.014-0.042,0.028-0.063,0.044c-0.464,0.349-0.854,0.71-1.181,1.103c-0.039,0.05-0.075,0.099-0.109,0.146
		c-0.015-0.027-0.03-0.054-0.045-0.08c-0.273-0.512-0.747-0.946-1.409-1.292c-0.142-0.074-0.299-0.113-0.459-0.114
		c-0.482-0.002-0.98-0.002-1.491-0.002H15.14c-0.427,0-0.791,0.012-1.109,0.037h-0.417c-0.127,0-0.254,0.024-0.372,0.072
		l-0.222,0.089l-0.299,0.133l-0.388,0.173c-0.062,0.027-0.121,0.061-0.176,0.1c-0.407,0.291-0.69,0.643-0.841,1.047
		c-0.125,0.283-0.187,0.62-0.187,1.026c0,0.455,0.05,1.029,0.444,1.431l0.026,0.026c0.106,0.135,0.227,0.25,0.362,0.344
		c0.012,0.011,0.039,0.036,0.083,0.083c-0.077,0.014-0.15,0.03-0.222,0.05c-0.023,0.007-0.046,0.014-0.069,0.022
		c-0.387,0.138-0.697,0.306-0.947,0.511c-0.024,0.02-0.047,0.041-0.069,0.063c-0.202,0.201-0.369,0.431-0.494,0.683
		c-0.026,0.052-0.047,0.105-0.063,0.161L8.62,22.686c-0.027,0.092-0.042,0.188-0.042,0.284v0.229v0.646
		c0,0.363,0.041,0.845,0.122,1.432c0.015,0.109,0.037,0.189,0.087,0.288c0,0.001,0.019,0.063,0.019,0.224
		c0,0.406-0.07,0.61-0.107,0.676H3.693c-0.084-0.038-0.172-0.074-0.262-0.109c-0.012-0.088-0.017-0.176-0.017-0.264v-0.496
		c0-0.537-0.425-0.979-0.961-0.999c-0.6-0.023-0.897-0.063-1.034-0.09c-0.021-0.01-0.042-0.019-0.063-0.026
		c-0.001-0.035-0.005-0.07-0.011-0.104c-0.017-0.109-0.026-0.236-0.026-0.378c0-0.17-0.025-0.328-0.075-0.474
		c0.004-0.407,0.058-0.819,0.159-1.227c0.109-0.437,0.166-0.687,0.194-0.851c0.11-0.199,0.222-0.455,0.364-0.789
		c0.01-0.023,0.019-0.047,0.027-0.071C2,20.549,2.021,20.505,2.046,20.454c0.011-0.021,0.021-0.041,0.03-0.063
		c0.302-0.702,0.64-1.472,1.03-2.327c0.353-0.834,0.693-1.615,1.025-2.357c0.288-0.67,0.402-0.892,0.439-0.957
		c0.102-0.129,0.17-0.281,0.2-0.444c0.076-0.425,0.091-0.587,0.091-0.71c0-0.497-0.143-1.002-0.424-1.502
		c-0.208-0.402-0.633-0.905-1.489-1.08c-0.12-0.023-0.237-0.046-0.352-0.067c0.229-0.155,0.475-0.394,0.77-0.743
		c0.034-0.04,0.065-0.083,0.092-0.128l0.06-0.1C3.791,9.668,4.006,9.276,4.15,8.833c0.149-0.413,0.24-0.736,0.279-0.988
		c0.008-0.05,0.012-0.101,0.012-0.151c0-0.185-0.036-0.403-0.132-0.795C4.305,6.871,4.302,6.845,4.299,6.82
		c0.023,0.007,0.046,0.013,0.07,0.019c0.327,0.072,0.515,0.101,0.672,0.101c0.136,0,0.27-0.027,0.394-0.081l0.452-0.193
		c0.181-0.047,0.362-0.121,0.54-0.223c0.01-0.004,0.033-0.011,0.076-0.02c0.023-0.005,0.047-0.011,0.07-0.017
		c0.021-0.003,0.05-0.003,0.109-0.003c0.3,0,0.57-0.133,0.753-0.342C7.602,6.38,7.936,6.598,8.321,6.598h0.723
		c0.371,0,0.766-0.013,1.175-0.039c0.447-0.001,0.963-0.026,1.534-0.075c0.879,0,1.567,0.012,2.04,0.035
		c0.53,0.027,0.917,0.041,1.156,0.041h0.017C15.152,6.798,15.44,6.94,15.75,6.94h14.82c0.451,0,0.833-0.299,0.957-0.71
		C31.589,6.183,31.651,6.124,31.711,6.056 M42.194,6.153c0.165,0.333,0.508,0.555,0.896,0.555h1.829c0.5,0,1.027-0.013,1.522-0.037
		h2.134h1.091c0.038,0.004,0.074,0.008,0.107,0.011c0.184,0.205,0.449,0.334,0.746,0.334h14.746c0.359,0,0.674-0.205,0.851-0.501
		c0.138-0.089,0.242-0.197,0.318-0.313c0.019,0.002,0.041,0.005,0.071,0.009c0.108,0.01,0.198,0.018,0.27,0.026
		c0.002,0.002,0.005,0.004,0.007,0.006c0.041,0.213,0.092,0.388,0.167,0.572c0.066,0.144,0.099,0.293,0.099,0.458v0.411
		c-0.006,0.039-0.011,0.079-0.016,0.119c-0.085,0.15-0.134,0.322-0.133,0.506c-0.003,0.049-0.015,0.208-0.038,0.477
		c-0.003,0.03-0.004,0.06-0.004,0.089c0,0.29-0.012,0.584-0.037,0.89c-0.022,0.351-0.034,0.656-0.037,0.93h-1.402
		c-0.302,0-0.572,0.134-0.756,0.345c-0.012,0.001-0.023,0.003-0.036,0.004c-0.116,0.013-0.396,0.033-0.959,0.033h-2.021
		c-0.408,0-0.823-0.013-1.229-0.037c-0.416-0.027-0.8-0.041-1.171-0.041h-0.987c-0.274,0-0.538,0.033-0.784,0.099
		c-0.484,0.08-0.967,0.288-1.453,0.634c-0.452,0.338-0.845,0.688-1.167,1.041c-0.019,0.021-0.036,0.042-0.053,0.063
		c-0.04,0.051-0.077,0.101-0.113,0.149c-0.016-0.029-0.033-0.06-0.051-0.09c-0.282-0.522-0.769-0.949-1.444-1.268
		c-0.134-0.063-0.279-0.096-0.427-0.096h-1.483h-1.334h-1.065c-0.03,0-0.061,0.001-0.091,0.004
		c-0.223,0.021-0.358,0.032-0.368,0.034c-0.114,0-0.224,0.017-0.326,0.047c-0.093,0.013-0.185,0.039-0.271,0.077
		c-0.195,0.088-0.449,0.21-0.798,0.401c-0.469,0.285-0.792,0.695-0.938,1.194c-0.103,0.365-0.152,0.665-0.152,0.918
		c0,0.354,0.03,0.777,0.224,1.133c0.074,0.186,0.202,0.343,0.364,0.454c0.091,0.102,0.198,0.203,0.323,0.311
		c-0.043,0.009-0.084,0.02-0.122,0.03c-0.426,0.11-0.77,0.26-1.062,0.465c-0.351,0.254-0.588,0.562-0.717,0.95l-1.498,5.178
		c-0.065,0.135-0.101,0.284-0.101,0.437v0.15c0,0.172,0.014,0.417,0.041,0.73c0.002,0.027,0.005,0.054,0.01,0.08
		c0.048,0.285,0.106,0.687,0.176,1.2v0.54c0,0.29-0.034,0.535-0.1,0.715h-4.883c-0.087-0.036-0.18-0.06-0.275-0.07
		c-0.04-0.013-0.081-0.022-0.122-0.029c-0.011-0.004-0.021-0.008-0.032-0.011c-0.007-0.038-0.013-0.088-0.017-0.152
		c0.006-0.016,0.012-0.03,0.017-0.046c0.065-0.184,0.098-0.372,0.098-0.559c0-0.538-0.426-0.98-0.964-0.999
		c-0.771-0.028-1.063-0.086-1.15-0.108c-0.007-0.036-0.016-0.071-0.026-0.105c-0.009-0.08-0.026-0.155-0.059-0.236
		c0-0.002-0.01-0.042-0.01-0.148v-0.383c0-0.43,0.055-0.877,0.152-1.292l0.079-0.282c0.045-0.16,0.079-0.282,0.104-0.377
		c0.013-0.023,0.024-0.048,0.034-0.072c0.08-0.156,0.21-0.46,0.509-1.221c0.247-0.614,0.556-1.329,0.98-2.268
		c0.371-0.87,0.703-1.62,1.029-2.321c0.37-0.863,0.479-1.088,0.508-1.139c0.051-0.085,0.089-0.177,0.112-0.272
		c0.073-0.29,0.108-0.544,0.108-0.775c0-0.477-0.157-0.985-0.469-1.512c-0.211-0.402-0.645-0.899-1.51-1.068
		c-0.127-0.026-0.25-0.053-0.369-0.079c0.232-0.15,0.48-0.385,0.783-0.737l0.125-0.125c0.015-0.015,0.029-0.03,0.044-0.046
		c0.285-0.325,0.516-0.729,0.693-1.226c0.165-0.502,0.238-0.856,0.238-1.149c0-0.09,0-0.155-0.137-0.82
		c-0.004-0.018-0.007-0.035-0.011-0.052c0.018,0.005,0.035,0.01,0.053,0.014c0.316,0.077,0.495,0.105,0.66,0.105
		c0.129,0,0.278-0.036,0.403-0.087c0.037-0.005,0.074-0.013,0.11-0.021c0.15-0.039,0.295-0.098,0.438-0.178
		c0.12-0.028,0.235-0.063,0.346-0.104c0.127-0.035,0.255-0.082,0.384-0.143h0.033C41.747,6.483,42.012,6.356,42.194,6.153
		 M6.947,4.646H6.681v0.758H6.644c-0.154,0-0.268,0.016-0.343,0.04C6.173,5.47,6.059,5.505,5.957,5.559
		C5.831,5.634,5.704,5.687,5.576,5.71L5.041,5.939c-0.075,0-0.227-0.026-0.455-0.077C4.356,5.788,4.18,5.735,4.052,5.71
		C3.977,5.678,3.9,5.661,3.824,5.661c-0.103,0-0.205,0.029-0.306,0.088C3.392,5.8,3.304,5.938,3.252,6.167v0.154
		c0,0.152,0.026,0.407,0.072,0.762C3.4,7.387,3.441,7.591,3.441,7.693c-0.027,0.175-0.103,0.445-0.231,0.8
		C3.086,8.874,2.918,9.165,2.715,9.37L2.601,9.559c-0.279,0.331-0.495,0.532-0.647,0.608c-0.052,0.025-0.114,0.039-0.19,0.039
		c-0.051,0-0.113,0.026-0.189,0.076c-0.203,0-0.383,0.064-0.536,0.189c-0.024,0.025-0.051,0.052-0.075,0.078
		c-0.1,0.102-0.152,0.279-0.152,0.533v0.037c0,0.178,0.076,0.356,0.228,0.535l0.038,0.037c0.153,0.076,0.358,0.114,0.612,0.114
		c0.329,0.051,0.686,0.114,1.066,0.188c0.381,0.078,0.647,0.268,0.8,0.573c0.203,0.354,0.305,0.698,0.305,1.027
		c0,0.077-0.026,0.256-0.076,0.534c-0.078,0.076-0.268,0.472-0.573,1.183c-0.328,0.735-0.672,1.522-1.027,2.362
		c-0.382,0.838-0.723,1.613-1.028,2.322c-0.052,0.102-0.09,0.191-0.116,0.268c-0.227,0.531-0.366,0.814-0.418,0.836v0.076
		c0,0.078-0.064,0.369-0.191,0.879c-0.126,0.506-0.189,1.014-0.189,1.521c0,0.076,0.012,0.152,0.037,0.23
		c0.026,0.047,0.039,0.111,0.039,0.189c0,0.203,0.014,0.381,0.038,0.533v0.305c0,0.076,0.025,0.125,0.076,0.148
		c0,0.078,0.013,0.131,0.037,0.152c0.079,0.082,0.243,0.168,0.497,0.271c0.024,0,0.051,0.012,0.075,0.035
		c0.254,0.076,0.712,0.127,1.372,0.152v0.496c0,0.23,0.026,0.457,0.077,0.686c0.05,0.203,0.165,0.344,0.342,0.42
		c0.406,0.152,0.611,0.242,0.611,0.268h5.372c0.051,0,0.113-0.014,0.19-0.039c0.102,0,0.229-0.078,0.381-0.229
		c0.28-0.279,0.419-0.75,0.419-1.408c0-0.279-0.038-0.496-0.115-0.648c-0.077-0.559-0.113-0.99-0.113-1.295c0-0.279,0-0.494,0-0.646
		V22.97l1.561-5.258c0.075-0.15,0.177-0.293,0.303-0.418c0.154-0.127,0.369-0.242,0.648-0.342c0.141-0.039,0.309-0.059,0.506-0.059
		c0.197,0,0.422,0.02,0.676,0.059c1.091,0.176,1.93,0.289,2.514,0.342c0.143,0.006,0.278,0.009,0.406,0.009
		c0.394,0,0.716-0.028,0.964-0.087l0.42-0.113c0.304-0.076,0.635-0.166,0.991-0.268c0.356-0.1,0.686-0.203,0.991-0.303
		c0.305-0.078,0.496-0.154,0.571-0.23v-0.073c0.076-0.054,0.166-0.142,0.268-0.269c0.076-0.127,0.063-0.332-0.04-0.609
		c-0.051-0.077-0.076-0.229-0.076-0.458c0-0.254,0.026-0.521,0.076-0.8c0.026-0.178,0.165-0.432,0.42-0.762
		c0.254-0.305,0.583-0.609,0.989-0.914c0.356-0.227,0.738-0.381,1.144-0.457c0.179-0.051,0.344-0.078,0.495-0.078h1.106
		c0.328,0,0.698,0.014,1.104,0.039c0.408,0.027,0.826,0.039,1.26,0.039c0.887,0,1.56,0,2.018,0c0.482,0,0.836-0.012,1.066-0.039
		c0.228-0.025,0.38-0.039,0.458-0.039l0.076-0.037c0.076-0.075,0.114-0.127,0.114-0.151c0-0.049,0.024-0.103,0.076-0.151h2.286
		v-0.267c0-0.077,0.014-0.269,0.039-0.573c0.05-0.279,0.075-0.609,0.075-0.99c0.027-0.33,0.053-0.66,0.077-0.99
		c0.025-0.307,0.039-0.471,0.039-0.496V8.071c0.025-0.15,0.05-0.289,0.076-0.418c0.051-0.128,0.075-0.277,0.075-0.455
		c0-0.307-0.089-0.611-0.267-0.914c0-0.129-0.025-0.307-0.075-0.535c-0.051-0.205-0.177-0.319-0.381-0.346l-0.078-0.15l-0.076-0.039
		c-0.076-0.049-0.291-0.102-0.646-0.151c-0.07-0.01-0.137-0.015-0.201-0.015c-0.258,0-0.457,0.081-0.602,0.244
		c-0.05,0.102-0.112,0.166-0.191,0.191c-0.05,0-0.088,0.035-0.114,0.114c-0.099,0.101-0.15,0.19-0.15,0.265V5.94H15.75
		c-0.079-0.152-0.153-0.268-0.229-0.342c-0.052,0-0.101-0.014-0.152-0.039c-0.051,0-0.191,0-0.421,0
		c-0.228,0-0.597-0.014-1.104-0.04c-0.509-0.024-1.219-0.036-2.134-0.036c-0.584,0.051-1.091,0.075-1.524,0.075
		C9.781,5.585,9.4,5.598,9.044,5.598c-0.381,0-0.622,0-0.723,0c0-0.229-0.039-0.457-0.116-0.687c0-0.076-0.063-0.127-0.19-0.152
		C7.887,4.708,7.533,4.671,6.947,4.646L6.947,4.646z M15.479,16.06c-0.395,0-0.775-0.046-1.142-0.139
		c-0.606-0.151-1.027-0.303-1.255-0.457l-0.153-0.039c-0.177-0.201-0.305-0.328-0.382-0.381c-0.075-0.049-0.137-0.113-0.189-0.188
		l-0.077-0.077c-0.1-0.102-0.151-0.343-0.151-0.724c0-0.278,0.038-0.494,0.113-0.647c0.077-0.228,0.243-0.432,0.495-0.611
		c0.282-0.125,0.509-0.227,0.686-0.305l0.19-0.076c0.025,0,0.179,0,0.458,0c0.305-0.025,0.662-0.037,1.068-0.037
		c0.404,0,0.849,0,1.331,0c0.509,0,1.006,0,1.487,0.002c0.482,0.252,0.813,0.545,0.99,0.877c0.178,0.304,0.266,0.596,0.266,0.875
		c0,0.254-0.023,0.445-0.074,0.572c-0.154,0.584-1.105,1.014-2.859,1.295C16.008,16.039,15.74,16.06,15.479,16.06L15.479,16.06z
		 M41.684,4.757h-0.231v0.727h-0.114c-0.102,0-0.203,0.023-0.304,0.075c-0.103,0.052-0.204,0.09-0.306,0.114
		c-0.127,0.051-0.267,0.089-0.418,0.115c-0.104,0.074-0.205,0.125-0.308,0.151c-0.077,0-0.165,0.026-0.265,0.077
		c-0.077,0-0.219-0.027-0.424-0.077c-0.2-0.05-0.363-0.103-0.492-0.151c-0.087-0.029-0.166-0.044-0.237-0.044
		c-0.119,0-0.218,0.04-0.296,0.118c-0.152,0.027-0.268,0.166-0.344,0.422v0.112c0,0.153,0.037,0.408,0.113,0.763
		c0.078,0.381,0.114,0.586,0.114,0.61c0,0.179-0.063,0.457-0.188,0.838c-0.127,0.354-0.293,0.647-0.494,0.876l-0.152,0.152
		c-0.279,0.328-0.497,0.531-0.646,0.609c-0.075,0.027-0.139,0.037-0.19,0.037c-0.076,0-0.153,0.053-0.229,0.153
		c-0.201,0-0.379,0.063-0.532,0.19c-0.128,0.129-0.191,0.307-0.191,0.533v0.076c0,0.256,0.091,0.445,0.271,0.572
		c0.125,0.052,0.341,0.076,0.646,0.076c0.306,0.078,0.636,0.154,0.993,0.228c0.404,0.079,0.684,0.269,0.836,0.574
		c0.229,0.38,0.344,0.724,0.344,1.026c0,0.154-0.027,0.33-0.078,0.533c-0.076,0.127-0.265,0.549-0.569,1.26
		c-0.331,0.711-0.673,1.484-1.03,2.322c-0.379,0.838-0.711,1.598-0.988,2.287c-0.279,0.711-0.443,1.104-0.494,1.18v0.039h-0.039
		c0,0.023-0.08,0.305-0.229,0.838c-0.127,0.533-0.189,1.053-0.189,1.561v0.383c0,0.203,0.022,0.367,0.073,0.496
		c0,0.074,0.017,0.137,0.041,0.189c0,0.023,0,0.074,0,0.15c0,0.074,0.024,0.129,0.076,0.152v0.152c0.075,0.1,0.24,0.191,0.495,0.266
		c0.253,0.104,0.759,0.164,1.523,0.191c0,0.076-0.014,0.15-0.041,0.229c-0.049,0.076-0.076,0.164-0.076,0.266
		c0,0.586,0.154,0.967,0.459,1.143c0.101,0.051,0.191,0.076,0.268,0.076c0.049,0.027,0.1,0.039,0.151,0.039
		c0.075,0.027,0.14,0.039,0.188,0.039l0.038,0.076h5.335c0.027,0,0.102-0.014,0.229-0.037c0.13-0.027,0.255-0.09,0.383-0.193
		c0.254-0.354,0.381-0.85,0.381-1.484v-0.607c-0.075-0.559-0.139-0.992-0.189-1.297c-0.023-0.277-0.037-0.494-0.037-0.646v-0.15
		c0.023-0.027,0.037-0.051,0.037-0.076l1.522-5.26c0.05-0.15,0.166-0.291,0.342-0.418c0.181-0.127,0.423-0.229,0.726-0.307
		c0.127-0.037,0.289-0.056,0.485-0.056c0.197,0,0.429,0.019,0.696,0.056c1.042,0.205,1.855,0.307,2.438,0.307
		c0.146,0.006,0.285,0.01,0.415,0.01c0.392,0,0.71-0.029,0.958-0.086c0.533-0.127,0.989-0.254,1.373-0.381
		c0.379-0.127,0.709-0.215,0.989-0.268c0.304-0.076,0.496-0.15,0.572-0.229v-0.115c0.075-0.076,0.166-0.178,0.267-0.305
		c0.125-0.102,0.102-0.291-0.078-0.572c0-0.076,0-0.229,0-0.455c0-0.256,0.026-0.521,0.078-0.803c0.024-0.178,0.164-0.43,0.42-0.761
		c0.278-0.305,0.62-0.61,1.027-0.915c0.355-0.252,0.71-0.406,1.064-0.455c0.179-0.053,0.369-0.078,0.574-0.078h0.987
		c0.356,0,0.724,0.014,1.104,0.039c0.406,0.024,0.838,0.039,1.295,0.039c0.865,0,1.539,0,2.021,0s0.837-0.015,1.065-0.039
		c0.257-0.025,0.406-0.039,0.459-0.039c0.05-0.025,0.089-0.037,0.113-0.037c0.075-0.152,0.113-0.242,0.113-0.267h2.362v-0.269
		c0-0.074,0.013-0.277,0.039-0.606c0-0.307,0.014-0.637,0.036-0.991c0.027-0.332,0.039-0.65,0.039-0.953
		c0.029-0.33,0.041-0.51,0.041-0.535c0-0.051,0.021-0.075,0.076-0.075c0.023-0.027,0.037-0.052,0.037-0.076
		c0-0.153,0.012-0.292,0.036-0.419c0-0.128,0-0.294,0-0.496c0-0.305-0.062-0.598-0.19-0.877c-0.051-0.125-0.088-0.291-0.119-0.496
		c-0.026-0.201-0.127-0.341-0.305-0.416L67.32,5.37l-0.151-0.078c-0.077-0.026-0.269-0.051-0.573-0.078
		c-0.077-0.011-0.151-0.016-0.222-0.016c-0.251,0-0.456,0.068-0.616,0.207c-0.074,0.129-0.125,0.205-0.152,0.229
		c0,0.027-0.039,0.053-0.111,0.076c-0.051,0.026-0.102,0.064-0.154,0.115c-0.051,0.024-0.074,0.073-0.074,0.152v0.038H50.52
		c0-0.104-0.088-0.206-0.267-0.308H50.18c-0.078,0-0.23-0.012-0.459-0.037c-0.23,0-0.611,0-1.146,0c-0.507,0-1.218,0-2.134,0
		c-0.584,0.027-1.09,0.037-1.522,0.037H43.09c-0.025-0.15-0.037-0.278-0.037-0.379c0-0.076-0.025-0.154-0.076-0.229
		c-0.025-0.103-0.088-0.179-0.189-0.228C42.659,4.82,42.291,4.784,41.684,4.757L41.684,4.757z M47.057,14.968V14.93
		c-0.103-0.101-0.152-0.343-0.152-0.724c0-0.152,0.037-0.369,0.115-0.646c0.074-0.255,0.242-0.458,0.494-0.611
		c0.279-0.152,0.51-0.264,0.687-0.343h0.112c0-0.024,0.026-0.037,0.076-0.037c0.026,0,0.18-0.013,0.459-0.038
		c0.305,0,0.658,0,1.065,0c0.405,0,0.853,0,1.334,0c0.506,0,1.003,0,1.483,0c0.484,0.229,0.813,0.51,0.992,0.84
		c0.178,0.303,0.268,0.609,0.268,0.912c0,0.205-0.039,0.383-0.114,0.534c-0.101,0.661-1.028,1.104-2.78,1.333
		c-0.298,0.041-0.584,0.062-0.857,0.062c-0.402,0-0.777-0.045-1.125-0.136c-0.609-0.154-1.04-0.32-1.295-0.496l-0.113-0.039
		c-0.355-0.281-0.548-0.471-0.572-0.572H47.057L47.057,14.968z"/>
</g>
</svg>
