<?xml version="1.0" encoding="utf-8"?>
<!-- Generator: Adobe Illustrator 16.0.0, SVG Export Plug-In . SVG Version: 6.00 Build 0)  -->
<!DOCTYPE svg PUBLIC "-//W3C//DTD SVG 1.1//EN" "http://www.w3.org/Graphics/SVG/1.1/DTD/svg11.dtd">
<svg version="1.1" id="图层_1" xmlns="http://www.w3.org/2000/svg" xmlns:xlink="http://www.w3.org/1999/xlink" x="0px" y="0px"
	 width="90.25px" height="32px" viewBox="0 0 90.25 32" enable-background="new 0 0 90.25 32" xml:space="preserve">
<rect fill="none" width="90.25" height="32"/>
<g>
	<g>
		<g>
			<g>
				<g>
					
						<linearGradient id="SVGID_1_" gradientUnits="userSpaceOnUse" x1="-860.333" y1="23.0742" x2="-859.0792" y2="22.2976" gradientTransform="matrix(88.5722 0 0 25.214 76197.0469 -558.373)">
						<stop  offset="0.1429" style="stop-color:#000000"/>
						<stop  offset="0.4335" style="stop-color:#FFD400"/>
						<stop  offset="0.7488" style="stop-color:#FF0000"/>
					</linearGradient>
					<path fill="url(#SVGID_1_)" d="M88.842,8.021c0.247,0,0.37,0.11,0.37,0.334v2.447h-3.931c-0.123,0-0.766,0-1.928,0
						c-1.14,0.023-2.41,0.063-3.819,0.111c-1.384,0-2.769,0.013-4.153,0.038c-1.285,0.025-2.15,0.037-2.595,0.037
						c0,0.321-0.101,0.581-0.298,0.778c-0.521,0.521-1.002,0.778-1.446,0.778c-0.198,0-0.457-0.135-0.778-0.408
						c-0.322-0.32-0.568-0.543-0.742-0.667c-0.099,0-0.233-0.025-0.405-0.075c-0.124-0.024-0.284-0.087-0.482-0.185l-0.704-0.223
						c-0.1-0.049-0.322-0.074-0.668-0.074c-0.371-0.049-0.828-0.074-1.371-0.074c-0.521,0-1.14,0.025-1.854,0.074
						c-0.644,0-1.298,0.025-1.966,0.074c0,0.1-0.024,0.223-0.073,0.371c-0.075,0.173-0.11,0.31-0.11,0.407l-0.261,0.112
						c-0.099,0.025-0.224,0.038-0.37,0.038c0,0.073-0.014,0.197-0.038,0.371c-0.024,0.098-0.036,0.247-0.036,0.445
						c-0.051,0.196-0.074,0.443-0.074,0.741h-0.297c-1.015,0-2.127,0.012-3.336,0.037c-1.188,0-2.326,0.012-3.412,0.037
						c-1.063,0.05-1.965,0.074-2.707,0.074c-0.741,0.025-1.188,0.037-1.336,0.037c-0.098,0.025-0.271,0.049-0.519,0.074
						c-0.224,0.025-0.481,0.049-0.778,0.074c-0.322,0.073-0.644,0.124-0.965,0.149c-0.296,0.074-0.531,0.124-0.705,0.148h-0.111
						l-0.186-0.446c-0.049-0.272-0.074-0.556-0.074-0.854c-0.048-0.247-0.074-0.469-0.074-0.668c0-0.221,0-0.396,0-0.518
						c-0.146,0.075-0.42,0.136-0.813,0.185c-0.421,0.049-0.866,0.124-1.335,0.222c-0.445,0.076-0.877,0.161-1.298,0.262
						c-0.42,0.048-0.68,0.073-0.778,0.073c0,0.148-0.013,0.296-0.038,0.444c-0.075,0.149-0.111,0.26-0.111,0.334
						c0,1.26,0.197,2.682,0.594,4.266c0.396,1.508,0.829,2.941,1.297,4.303c0.495,1.309,0.927,2.408,1.3,3.299
						c0.396,0.866,0.593,1.311,0.593,1.335l0.147,0.261l-0.296,0.11c-0.124,0.074-0.396,0.198-0.816,0.372
						c-0.371,0.197-0.877,0.443-1.52,0.742c-0.668,0.271-1.57,0.715-2.707,1.334h-0.26c-0.419-0.545-0.865-1.483-1.335-2.819
						c-0.47-1.335-0.914-2.731-1.333-4.19c-0.421-1.434-0.768-2.793-1.04-4.078c-0.296-1.312-0.519-2.166-0.667-2.56
						c-0.222,0.123-0.544,0.271-0.964,0.443c-0.099,0-0.16,0.038-0.185,0.111c0,0.026-0.038,0.038-0.111,0.038
						c-0.125,0.223-0.334,0.334-0.63,0.334c-1.21,0.297-2.176,0.309-2.894,0.038c-0.691-0.271-1.149-0.495-1.371-0.668
						c-0.05,0.075-0.111,0.124-0.186,0.147l-0.668,0.335c-0.766,1.73-1.223,3.15-1.371,4.265c-0.124,1.112-0.186,1.929-0.186,2.447
						v0.593c0,0.1-0.024,0.162-0.074,0.186c-0.05,0-0.075,0.037-0.075,0.113c-0.419,0-1.816-0.632-4.19-1.893l-0.222-0.111v-0.111
						c0.296-0.668,0.605-1.373,0.927-2.112c0.273-0.769,0.544-1.472,0.816-2.115c0.247-0.642,0.445-1.223,0.593-1.742
						c0.148-0.444,0.234-0.717,0.26-0.815c0-0.098-0.038-0.197-0.111-0.297c-0.049-0.098-0.074-0.197-0.074-0.296
						c-0.075-0.049-0.161-0.148-0.259-0.296c-0.1-0.099-0.199-0.2-0.298-0.297c-0.123-0.1-0.211-0.209-0.26-0.333
						c-0.148-0.073-0.494-0.112-1.038-0.112c-0.618,0-1.311,0.013-2.077,0.039c-0.791,0.049-1.669,0.085-2.633,0.11
						c-0.913,0.075-1.767,0.125-2.558,0.148l-3.115,0.111c-1.953,0-4.918,1.768-8.899,5.302l-0.297,0.297
						c-0.173,0.248-0.419,0.458-0.741,0.63c-0.346,0.42-0.569,0.679-0.667,0.778c-0.125,0.1-0.223,0.149-0.298,0.149
						c-0.196,0-0.383-0.149-0.555-0.448c-0.149-0.395-0.224-0.701-0.224-0.927c0-0.123-0.012-0.505-0.037-1.149
						c-0.023-0.617-0.086-1.348-0.185-2.188c-0.073-0.816-0.148-1.657-0.223-2.521c-0.098-0.841-0.198-1.535-0.295-2.077
						c-0.272-0.544-0.224-1.087,0.147-1.632C1.207,9.71,1.529,9.574,1.924,9.574c0.42,0,0.68,0,0.779,0h17.243
						c0.125,0,0.273,0,0.445,0c0.149,0,0.26-0.049,0.334-0.148V9.281c0.099-0.074,0.162-0.147,0.187-0.223
						c0.024-0.074,0.073-0.173,0.147-0.297c0.173-0.123,0.433-0.185,0.778-0.185c0.372,0,0.631-0.05,0.779-0.147
						c0.149-0.051,0.297-0.074,0.446-0.074c0.172,0,0.321-0.05,0.445-0.149c0.37-0.098,0.678-0.209,0.926-0.333
						c0.296-0.124,0.506-0.297,0.63-0.519c0.197-0.124,0.309-0.321,0.333-0.593c0.049-0.249,0.1-0.618,0.148-1.114V5.314
						c0-0.445,0.111-0.755,0.334-0.929c0.198-0.099,0.469-0.148,0.815-0.148h0.296L27.1,4.385l0.817,0.78
						c0,0.173,0.309,0.135,0.926-0.111h0.482c0.148,0.073,0.271,0.272,0.37,0.592c0.075,0.322,0.149,0.656,0.224,1.001
						C30.659,6.55,31.462,6.5,32.328,6.5c0.841,0,1.335,0.05,1.483,0.148c0.099,0.025,0.186,0.038,0.26,0.038
						c0.098,0.05,0.235,0.075,0.408,0.075h9.457c0-0.249-0.038-0.458-0.111-0.631l-0.112-0.295h1.669V6.13
						c0,0.125,0.025,0.198,0.074,0.223c0,0.023,0.025,0.037,0.073,0.037H68.41c0-0.048-0.012-0.135-0.037-0.26
						c0-0.098,0-0.259,0-0.482c-0.075-0.148-0.111-0.346-0.111-0.592l0.518-0.966l1.559-0.148h0.148v2.707l-0.112,0.038
						c-0.024,0.05-0.06,0.075-0.11,0.075c-0.023,0.023-0.05,0.061-0.074,0.111c0.197,0.223,0.58,0.507,1.149,0.852
						c0.593,0.322,1.249,0.482,1.966,0.482c0.271,0.026,0.766,0.05,1.482,0.075c0.717,0.05,1.508,0.075,2.374,0.075
						s1.743-0.025,2.633-0.075c0.964-0.024,1.817-0.038,2.56-0.038c0.791,0,1.457-0.011,2.002-0.037c0.494,0,0.804,0,0.927,0
						c0.099,0,0.334-0.036,0.704-0.111c0.272-0.048,0.595-0.111,0.967-0.184c0.418-0.025,0.802-0.051,1.148-0.076
						C88.473,7.785,88.721,7.847,88.842,8.021z M31.438,13.027c-0.199,0-0.396,0.086-0.594,0.26
						c-0.173,0.222-0.259,0.494-0.259,0.816c0,0.321,0.086,0.592,0.259,0.815c0.198,0.198,0.395,0.297,0.594,0.297h2.706
						c0.223,0,0.445-0.099,0.668-0.297c0.173-0.223,0.259-0.494,0.259-0.815c0-0.322-0.086-0.594-0.259-0.816
						c-0.224-0.173-0.445-0.26-0.668-0.26H31.438z M2.735,12.953c0.075,0.495,0.148,1.001,0.222,1.521
						c0.076,0.593,0.125,1.162,0.149,1.706c0.075,0.47,0.136,0.89,0.186,1.259c0.223-0.223,0.532-0.494,0.927-0.815
						c0.445-0.346,0.889-0.717,1.334-1.111c0.99-0.717,1.941-1.434,2.856-2.152c0.939-0.668,1.78-1.273,2.521-1.816H2.55
						C2.574,11.938,2.636,12.408,2.735,12.953z"/>
				</g>
			</g>
		</g>
	</g>
</g>
<path fill="none" d="M2.735,86.369c0.075,0.496,0.148,1.002,0.222,1.521c0.076,0.593,0.125,1.162,0.149,1.706
	c0.075,0.47,0.136,0.89,0.186,1.259c0.223-0.223,0.532-0.494,0.927-0.814c0.445-0.347,0.889-0.717,1.334-1.111
	c0.99-0.717,1.941-1.434,2.856-2.152c0.939-0.668,1.78-1.273,2.521-1.816H2.55C2.574,85.354,2.636,85.824,2.735,86.369z"/>
<path fill="none" d="M34.144,86.443h-2.706c-0.199,0-0.396,0.086-0.594,0.26c-0.173,0.223-0.259,0.494-0.259,0.816
	c0,0.32,0.086,0.592,0.259,0.814c0.198,0.199,0.395,0.297,0.594,0.297h2.706c0.223,0,0.445-0.098,0.668-0.297
	c0.173-0.223,0.259-0.494,0.259-0.814c0-0.322-0.086-0.594-0.259-0.816C34.588,86.531,34.367,86.443,34.144,86.443z"/>
<path fill="none" d="M34.783,80.178h1.934c-0.756-0.117-1.488-0.202-2.189-0.263C34.612,80.003,34.7,80.089,34.783,80.178z"/>
<linearGradient id="SVGID_2_" gradientUnits="userSpaceOnUse" x1="-860.3237" y1="26" x2="-859.07" y2="25.2234" gradientTransform="matrix(88.5722 0 0 25.214 76197.0469 -558.373)">
	<stop  offset="0.1429" style="stop-color:#000000"/>
	<stop  offset="0.4335" style="stop-color:#FFD400"/>
	<stop  offset="0.7488" style="stop-color:#FF0000"/>
</linearGradient>
<path fill="url(#SVGID_2_)" d="M88.842,81.438c-0.121-0.174-0.369-0.236-0.74-0.186c-0.347,0.025-0.73,0.052-1.148,0.076
	c-0.372,0.073-0.694,0.137-0.967,0.185c-0.37,0.075-0.605,0.11-0.704,0.11c-0.123,0-0.433,0-0.927,0
	c-0.545,0.026-1.211,0.037-2.002,0.037c-0.742,0-1.596,0.014-2.56,0.039c-0.89,0.049-1.767,0.074-2.633,0.074
	s-1.657-0.025-2.374-0.074c-0.717-0.025-1.211-0.05-1.482-0.076c-0.717,0-1.373-0.16-1.966-0.481
	c-0.569-0.345-0.952-0.629-1.149-0.853c0.024-0.049,0.051-0.088,0.074-0.11c0.051,0,0.086-0.025,0.11-0.075l0.112-0.038v-2.707
	h-0.148l-1.559,0.147l-0.518,0.967c0,0.246,0.036,0.443,0.111,0.592c0,0.223,0,0.385,0,0.482c0.025,0.125,0.037,0.211,0.037,0.26
	H45.529c-0.048,0-0.073-0.014-0.073-0.037c-0.049-0.025-0.074-0.098-0.074-0.223v-0.295h-0.759c3.197,3.503,4.961,7.071,4.961,7.071
	c-3.737-3.853-8.649-5.493-12.867-6.146h-1.934c5.586,5.984,8.051,13.208,8.051,13.208c-5.979-8.902-16.309-10.581-22.002-10.785
	c-0.029,0.032-0.063,0.064-0.106,0.097v0.145c-0.074,0.1-0.185,0.148-0.334,0.148c-0.172,0-0.32,0-0.445,0H2.703
	c-0.099,0-0.359,0-0.779,0c-0.395,0-0.717,0.137-0.961,0.409c-0.371,0.545-0.419,1.088-0.147,1.632
	c0.097,0.543,0.197,1.236,0.295,2.077c0.075,0.864,0.15,1.705,0.223,2.521c0.099,0.84,0.162,1.57,0.185,2.188
	c0.025,0.645,0.037,1.027,0.037,1.15c0,0.225,0.075,0.531,0.224,0.926c0.172,0.299,0.359,0.449,0.555,0.449
	c0.075,0,0.173-0.051,0.298-0.15c0.098-0.1,0.321-0.357,0.667-0.777c0.322-0.172,0.568-0.383,0.741-0.631l0.297-0.297
	c3.981-3.533,6.946-5.302,8.899-5.302l3.115-0.11c0.791-0.023,1.645-0.074,2.558-0.148c0.964-0.025,1.842-0.061,2.633-0.11
	c0.766-0.026,1.459-0.039,2.077-0.039c0.544,0,0.89,0.039,1.038,0.112c0.049,0.124,0.137,0.232,0.26,0.333
	c0.099,0.097,0.198,0.198,0.298,0.297c0.098,0.147,0.184,0.247,0.259,0.296c0,0.1,0.025,0.198,0.074,0.296
	c0.073,0.101,0.111,0.199,0.111,0.298c-0.026,0.098-0.112,0.37-0.26,0.814c-0.148,0.52-0.346,1.1-0.593,1.742
	c-0.272,0.643-0.543,1.346-0.816,2.115c-0.322,0.738-0.631,1.443-0.927,2.111v0.111l0.222,0.111c2.374,1.262,3.771,1.893,4.19,1.893
	c0-0.076,0.025-0.113,0.075-0.113c0.05-0.023,0.074-0.086,0.074-0.186v-0.592c0-0.52,0.062-1.336,0.186-2.447
	c0.148-1.115,0.605-2.535,1.371-4.266l0.668-0.334c0.075-0.023,0.136-0.072,0.186-0.147c0.222,0.173,0.68,0.397,1.371,0.668
	c0.718,0.271,1.684,0.259,2.894-0.038c0.296,0,0.505-0.111,0.63-0.334c0.073,0,0.111-0.012,0.111-0.038
	c0.025-0.073,0.086-0.11,0.185-0.11c0.42-0.172,0.742-0.32,0.964-0.443c0.148,0.394,0.371,1.248,0.667,2.559
	c0.272,1.285,0.619,2.645,1.04,4.078c0.419,1.459,0.863,2.855,1.333,4.191c0.47,1.336,0.916,2.273,1.335,2.818h0.26
	c1.137-0.619,2.039-1.063,2.707-1.334c0.643-0.299,1.149-0.545,1.52-0.742c0.42-0.174,0.692-0.297,0.816-0.371l0.296-0.111
	l-0.147-0.26c0-0.025-0.197-0.469-0.593-1.336c-0.373-0.891-0.805-1.99-1.3-3.299c-0.468-1.361-0.901-2.795-1.297-4.303
	c-0.397-1.583-0.594-3.005-0.594-4.266c0-0.073,0.036-0.184,0.111-0.334c0.025-0.147,0.038-0.295,0.038-0.443
	c0.098,0,0.358-0.025,0.778-0.072c0.421-0.102,0.853-0.187,1.298-0.263c0.469-0.099,0.914-0.173,1.335-0.222
	c0.394-0.049,0.667-0.11,0.813-0.186c0,0.122,0,0.297,0,0.518c0,0.199,0.026,0.422,0.074,0.668c0,0.299,0.025,0.582,0.074,0.855
	l0.186,0.445h0.111c0.174-0.023,0.409-0.074,0.705-0.148c0.321-0.025,0.643-0.076,0.965-0.148c0.297-0.025,0.555-0.049,0.778-0.074
	c0.248-0.025,0.421-0.049,0.519-0.074c0.148,0,0.595-0.012,1.336-0.037c0.742,0,1.645-0.023,2.707-0.074
	c1.086-0.024,2.225-0.037,3.412-0.037c1.209-0.024,2.321-0.036,3.336-0.036h0.297c0-0.298,0.023-0.546,0.074-0.741
	c0-0.197,0.012-0.348,0.036-0.445c0.024-0.174,0.038-0.298,0.038-0.371c0.146,0,0.271-0.013,0.37-0.037l0.261-0.112
	c0-0.097,0.035-0.233,0.11-0.407c0.049-0.148,0.073-0.271,0.073-0.371c0.668-0.049,1.322-0.074,1.966-0.074
	c0.715-0.049,1.333-0.074,1.854-0.074c0.543,0,1,0.025,1.371,0.074c0.346,0,0.568,0.025,0.668,0.074l0.704,0.223
	c0.198,0.099,0.358,0.162,0.482,0.186c0.172,0.05,0.307,0.074,0.405,0.074c0.174,0.125,0.42,0.348,0.742,0.668
	c0.321,0.273,0.58,0.408,0.778,0.408c0.444,0,0.926-0.258,1.446-0.778c0.197-0.197,0.298-0.457,0.298-0.778
	c0.444,0,1.31-0.012,2.595-0.037c1.385-0.025,2.77-0.037,4.153-0.037c1.409-0.049,2.68-0.088,3.819-0.111c1.162,0,1.805,0,1.928,0
	h3.931v-2.447C89.212,81.547,89.089,81.438,88.842,81.438z M8.409,86.777c-0.915,0.719-1.866,1.436-2.856,2.152
	c-0.445,0.395-0.889,0.765-1.334,1.111c-0.395,0.32-0.704,0.592-0.927,0.814c-0.05-0.369-0.111-0.789-0.186-1.259
	c-0.024-0.544-0.073-1.113-0.149-1.706c-0.074-0.52-0.147-1.025-0.222-1.521c-0.099-0.545-0.161-1.015-0.185-1.408h8.38
	C10.189,85.504,9.348,86.109,8.409,86.777z M34.812,88.334c-0.223,0.199-0.445,0.297-0.668,0.297h-2.706
	c-0.199,0-0.396-0.098-0.594-0.297c-0.173-0.223-0.259-0.494-0.259-0.814c0-0.322,0.086-0.594,0.259-0.816
	c0.198-0.174,0.395-0.26,0.594-0.26h2.706c0.223,0,0.444,0.088,0.668,0.26c0.173,0.223,0.259,0.494,0.259,0.816
	C35.071,87.84,34.985,88.111,34.812,88.334z"/>
<linearGradient id="SVGID_3_" gradientUnits="userSpaceOnUse" x1="18.877" y1="87.751" x2="36.5272" y2="77.583">
	<stop  offset="0.3505" style="stop-color:#FFE3A0"/>
	<stop  offset="1" style="stop-color:#00FFFF"/>
</linearGradient>
<path fill="url(#SVGID_3_)" d="M29.866,79.828c0.018,0.08,0.035,0.154,0.053,0.235c0.74-0.097,1.543-0.147,2.409-0.147
	c0.841,0,1.335,0.051,1.483,0.148c0.099,0.025,0.186,0.038,0.26,0.038c0.098,0.05,0.235,0.075,0.408,0.075h0.304
	c-0.083-0.089-0.171-0.175-0.255-0.263C32.674,79.756,31.056,79.77,29.866,79.828z"/>
<linearGradient id="SVGID_4_" gradientUnits="userSpaceOnUse" x1="15.1836" y1="81.3398" x2="32.8339" y2="71.1718">
	<stop  offset="0.3505" style="stop-color:#FFE3A0"/>
	<stop  offset="1" style="stop-color:#00FFFF"/>
</linearGradient>
<path fill="url(#SVGID_4_)" d="M20.912,82.475c0.024-0.074,0.073-0.174,0.147-0.297c0.173-0.123,0.433-0.186,0.778-0.186
	c0.372,0,0.631-0.05,0.779-0.146c0.149-0.051,0.297-0.074,0.446-0.074c0.172,0,0.321-0.05,0.445-0.148
	c0.37-0.099,0.678-0.209,0.926-0.334c0.296-0.123,0.506-0.297,0.63-0.519c0.197-0.124,0.309-0.321,0.333-0.593
	c0.049-0.249,0.1-0.618,0.148-1.114V78.73c0-0.445,0.111-0.755,0.334-0.93c0.198-0.098,0.469-0.147,0.815-0.147h0.296l0.111,0.147
	l0.817,0.781c0,0.151,0.254,0.131,0.731-0.041l1.444-2.42c-2.539-1.726-5.489-3.035-8.883-3.548l-4.438,10.125
	c0,0,1.6-0.186,4.06-0.098C20.869,82.559,20.898,82.518,20.912,82.475z"/>
<linearGradient id="SVGID_5_" gradientUnits="userSpaceOnUse" x1="-860.4111" y1="25.8584" x2="-859.1574" y2="25.0818" gradientTransform="matrix(88.5722 0 0 25.214 76197.0469 -558.373)">
	<stop  offset="0.1429" style="stop-color:#000000"/>
	<stop  offset="0.4335" style="stop-color:#FFD400"/>
	<stop  offset="0.7488" style="stop-color:#FF0000"/>
</linearGradient>
<path fill="url(#SVGID_5_)" d="M42.833,93.386c0,0-2.465-7.224-8.051-13.208h-0.304c-0.173,0-0.31-0.025-0.408-0.075
	c-0.074,0-0.161-0.013-0.26-0.038c-0.148-0.098-0.642-0.148-1.483-0.148c-0.866,0-1.669,0.051-2.409,0.147
	c-0.018-0.081-0.035-0.155-0.053-0.235c-1.305,0.065-2.095,0.183-2.095,0.183l0.877-1.47c-0.477,0.172-0.731,0.192-0.731,0.041
	L27.1,77.801l-0.111-0.147h-0.296c-0.346,0-0.617,0.05-0.815,0.147c-0.223,0.175-0.334,0.484-0.334,0.93v0.333
	c-0.048,0.496-0.099,0.865-0.148,1.114c-0.024,0.271-0.136,0.469-0.333,0.593c-0.124,0.222-0.334,0.396-0.63,0.519
	c-0.248,0.125-0.556,0.235-0.926,0.334c-0.124,0.099-0.273,0.148-0.445,0.148c-0.149,0-0.297,0.023-0.446,0.074
	c-0.148,0.097-0.407,0.146-0.779,0.146c-0.345,0-0.605,0.063-0.778,0.186c-0.074,0.123-0.123,0.223-0.147,0.297
	c-0.014,0.043-0.043,0.084-0.081,0.126C26.525,82.805,36.854,84.483,42.833,93.386z"/>
<linearGradient id="SVGID_6_" gradientUnits="userSpaceOnUse" x1="21.8018" y1="19.4316" x2="39.452" y2="9.2636">
	<stop  offset="0.3505" style="stop-color:#FFE3A0"/>
	<stop  offset="1" style="stop-color:#00FFFF"/>
</linearGradient>
<path fill="url(#SVGID_6_)" d="M42.833,19.99c0,0-2.465-7.224-8.051-13.208h-0.304c-0.173,0-0.31-0.025-0.408-0.075
	c-0.074,0-0.161-0.013-0.26-0.038c-0.148-0.098-0.642-0.148-1.483-0.148c-0.866,0-1.669,0.051-2.409,0.147
	c-0.018-0.081-0.035-0.155-0.053-0.235c-1.305,0.065-2.095,0.183-2.095,0.183l0.877-1.47c-0.477,0.172-0.731,0.192-0.731,0.041
	L27.1,4.405l-0.111-0.147h-0.296c-0.346,0-0.617,0.05-0.815,0.147c-0.223,0.175-0.334,0.484-0.334,0.93v0.333
	c-0.048,0.496-0.099,0.865-0.148,1.114c-0.024,0.271-0.136,0.469-0.333,0.593c-0.124,0.222-0.334,0.396-0.63,0.519
	c-0.248,0.125-0.556,0.235-0.926,0.334c-0.124,0.099-0.273,0.148-0.445,0.148c-0.149,0-0.297,0.023-0.446,0.074
	c-0.148,0.097-0.407,0.146-0.779,0.146c-0.345,0-0.605,0.063-0.778,0.186c-0.074,0.123-0.123,0.223-0.147,0.297
	c-0.014,0.043-0.043,0.084-0.081,0.126C26.525,9.409,36.854,11.088,42.833,19.99z"/>
<linearGradient id="SVGID_7_" gradientUnits="userSpaceOnUse" x1="28.2305" y1="82.0449" x2="43.8754" y2="73.0321">
	<stop  offset="0.1781" style="stop-color:#FFE3A0"/>
	<stop  offset="1" style="stop-color:#00FFFF"/>
</linearGradient>
<path fill="url(#SVGID_7_)" d="M34.528,79.915c0.701,0.061,1.433,0.146,2.189,0.263h7.219c0-0.249-0.038-0.459-0.111-0.631
	l-0.112-0.295h0.91c-2.978-3.263-7.2-6.468-12.415-6.679l-2.117,3.548C31.743,77.244,33.218,78.543,34.528,79.915z"/>
<linearGradient id="SVGID_8_" gradientUnits="userSpaceOnUse" x1="-860.4243" y1="25.8369" x2="-859.1706" y2="25.0604" gradientTransform="matrix(88.5722 0 0 25.214 76197.0469 -558.373)">
	<stop  offset="0.1429" style="stop-color:#000000"/>
	<stop  offset="0.4335" style="stop-color:#FFD400"/>
	<stop  offset="0.7488" style="stop-color:#FF0000"/>
</linearGradient>
<path fill="url(#SVGID_8_)" d="M43.825,79.547c0.073,0.172,0.111,0.382,0.111,0.631h-7.219c4.218,0.652,9.13,2.293,12.867,6.146
	c0,0-1.764-3.568-4.961-7.071h-0.91L43.825,79.547z"/>
<linearGradient id="SVGID_9_" gradientUnits="userSpaceOnUse" x1="32.4697" y1="16.0088" x2="48.1156" y2="6.9955">
	<stop  offset="0.1781" style="stop-color:#FFE3A0"/>
	<stop  offset="1" style="stop-color:#00FFFF"/>
</linearGradient>
<path fill="url(#SVGID_9_)" d="M43.825,6.151c0.073,0.172,0.111,0.382,0.111,0.631h-7.219c4.218,0.652,9.13,2.293,12.867,6.146
	c0,0-1.764-3.568-4.961-7.071h-0.91L43.825,6.151z"/>
<linearGradient id="SVGID_10_" gradientUnits="userSpaceOnUse" x1="18.0146" y1="86.2539" x2="35.6649" y2="76.0859">
	<stop  offset="0.3505" style="stop-color:#FFE3A0"/>
	<stop  offset="1" style="stop-color:#00FFFF"/>
</linearGradient>
<path fill="url(#SVGID_10_)" d="M28.843,78.471h0.482c0.148,0.072,0.271,0.271,0.37,0.592c0.058,0.246,0.114,0.506,0.171,0.766
	c1.189-0.059,2.808-0.072,4.662,0.087c-1.31-1.372-2.785-2.671-4.436-3.794l-1.444,2.42C28.713,78.517,28.769,78.5,28.843,78.471z"
	/>
<linearGradient id="SVGID_11_" gradientUnits="userSpaceOnUse" x1="27.5049" y1="80.7861" x2="43.1498" y2="71.7733">
	<stop  offset="0.1781" style="stop-color:#FFE3A0"/>
	<stop  offset="1" style="stop-color:#00FFFF"/>
</linearGradient>
<path fill="url(#SVGID_11_)" d="M28.843,78.471h0.482c0.148,0.072,0.271,0.271,0.37,0.592c0.058,0.246,0.114,0.506,0.171,0.766
	c1.189-0.059,2.808-0.072,4.662,0.087c-1.31-1.372-2.785-2.671-4.436-3.794l-1.444,2.42C28.713,78.517,28.769,78.5,28.843,78.471z"
	/>
<linearGradient id="SVGID_12_" gradientUnits="userSpaceOnUse" x1="-860.5405" y1="25.6494" x2="-859.2868" y2="24.8729" gradientTransform="matrix(88.5722 0 0 25.214 76197.0469 -558.373)">
	<stop  offset="0.1429" style="stop-color:#000000"/>
	<stop  offset="0.4335" style="stop-color:#FFD400"/>
	<stop  offset="0.7488" style="stop-color:#FF0000"/>
</linearGradient>
<path fill="url(#SVGID_12_)" d="M29.325,78.471h-0.482c-0.074,0.029-0.129,0.046-0.195,0.07l-0.877,1.47
	c0,0,0.791-0.117,2.095-0.183c-0.057-0.26-0.114-0.52-0.171-0.766C29.596,78.742,29.473,78.543,29.325,78.471z"/>
<linearGradient id="SVGID_13_" gradientUnits="userSpaceOnUse" x1="17.7578" y1="12.4253" x2="35.4081" y2="2.2573">
	<stop  offset="0.3505" style="stop-color:#FFE3A0"/>
	<stop  offset="1" style="stop-color:#00FFFF"/>
</linearGradient>
<path fill="url(#SVGID_13_)" d="M29.325,5.086h-0.482c-0.074,0.029-0.129,0.046-0.195,0.07l-0.877,1.47c0,0,0.791-0.117,2.095-0.183
	c-0.057-0.26-0.114-0.52-0.171-0.766C29.596,5.358,29.473,5.159,29.325,5.086z"/>
<g>
	<g>
		<g>
			<g>
				<g>
					<g>
						<linearGradient id="SVGID_14_" gradientUnits="userSpaceOnUse" x1="87.0361" y1="0.6436" x2="2.929" y2="24.5865">
							<stop  offset="0" style="stop-color:#BB925B"/>
							<stop  offset="0.3429" style="stop-color:#FFF6DA"/>
							<stop  offset="0.6571" style="stop-color:#FFF1B1"/>
							<stop  offset="1" style="stop-color:#B38B54"/>
						</linearGradient>
						<path fill="url(#SVGID_14_)" d="M69.486,5.027v1.104c-0.029,0.035-0.058,0.071-0.084,0.11
							c-0.006-0.063-0.016-0.13-0.029-0.207V5.647c0-0.146-0.021-0.267-0.082-0.396l0.116-0.218L69.486,5.027 M26.549,5.241
							l0.532,0.507c0.198,0.318,0.561,0.523,0.993,0.523c0.2,0,0.424-0.041,0.709-0.133c0.053,0.233,0.106,0.474,0.159,0.719
							c0.101,0.466,0.512,0.789,0.977,0.789c0.043,0,0.087-0.003,0.132-0.009C30.743,7.547,31.51,7.5,32.328,7.5
							c0.698,0,0.97,0.036,1.056,0.052c0.06,0.028,0.123,0.051,0.188,0.066c0.097,0.024,0.188,0.041,0.275,0.053
							c0.187,0.06,0.396,0.089,0.632,0.089h9.457c0.409,0,0.761-0.245,0.916-0.597c0.184,0.143,0.418,0.227,0.677,0.227H68.41
							c0.32,0,0.605-0.15,0.788-0.385c0.025,0.193,0.107,0.379,0.243,0.531c0.269,0.304,0.707,0.636,1.42,1.067
							c0.724,0.394,1.53,0.597,2.396,0.604c0.283,0.024,0.747,0.047,1.459,0.071c0.728,0.052,1.55,0.078,2.444,0.078
							c0.892,0,1.797-0.025,2.657-0.075c0.955-0.023,1.8-0.037,2.535-0.037c0.827,0,1.497-0.013,2.002-0.037h0.927
							c0.149,0,0.359-0.022,0.881-0.127c0.261-0.047,0.565-0.105,0.916-0.174c0.396-0.024,0.762-0.05,1.093-0.073
							c0.014-0.001,0.026-0.002,0.04-0.003v0.971h-2.931h-1.948c-1.144,0.023-2.418,0.064-3.799,0.111
							c-1.349,0-2.752,0.014-4.172,0.039c-1.276,0.024-2.135,0.036-2.576,0.036c-0.553,0-1,0.447-1,1
							c0,0.047-0.006,0.071-0.006,0.072c-0.336,0.337-0.553,0.439-0.661,0.471c-0.039-0.025-0.099-0.066-0.181-0.135
							c-0.369-0.364-0.629-0.594-0.839-0.743c-0.169-0.119-0.345-0.183-0.552-0.183c-0.041-0.005-0.092-0.019-0.153-0.037
							c-0.028-0.008-0.051-0.014-0.08-0.02c-0.002,0-0.068-0.017-0.239-0.102c-0.045-0.021-0.091-0.04-0.139-0.056l-0.659-0.209
							c-0.229-0.091-0.517-0.131-0.949-0.135c-0.402-0.05-0.873-0.074-1.438-0.074c-0.538,0-1.174,0.025-1.89,0.074
							c-0.652,0.001-1.327,0.026-2.004,0.076c-0.515,0.037-0.914,0.431-0.925,0.943c-0.45,0.09-0.797,0.499-0.816,0.973
							c-0.002,0.046-0.011,0.113-0.022,0.202c-0.022,0.106-0.037,0.227-0.045,0.365c-0.868,0.004-1.781,0.017-2.714,0.036
							c-1.219,0-2.374,0.013-3.458,0.038c-1.071,0.049-1.941,0.073-2.694,0.074c-0.723,0.023-1.158,0.036-1.303,0.036
							c-0.077,0-0.166,0.012-0.241,0.029c-0.009,0.002-0.093,0.021-0.386,0.05c-0.217,0.023-0.467,0.048-0.755,0.072
							c-0.046,0.004-0.092,0.011-0.137,0.021c-0.278,0.063-0.554,0.106-0.816,0.128c-0.002-0.052-0.003-0.104-0.003-0.155
							c0-0.063-0.006-0.128-0.019-0.19c-0.037-0.191-0.056-0.353-0.056-0.478v-0.518c0-0.348-0.17-0.675-0.466-0.857
							c-0.162-0.1-0.343-0.15-0.524-0.15c-0.149,0-0.3,0.034-0.439,0.105c-0.005,0.002-0.122,0.046-0.501,0.093
							c-0.443,0.053-0.908,0.13-1.387,0.23c-0.479,0.082-0.906,0.167-1.302,0.261c-0.473,0.054-0.591,0.06-0.605,0.06
							c-0.552,0-1,0.447-1,1c0,0.053-0.003,0.105-0.008,0.16c-0.096,0.225-0.141,0.424-0.141,0.618c0,1.339,0.21,2.855,0.627,4.52
							c0.397,1.512,0.841,2.983,1.329,4.402c0.515,1.36,0.944,2.45,1.326,3.361c0.13,0.284,0.23,0.504,0.307,0.675
							c-0.046,0.02-0.097,0.041-0.151,0.063c-0.03,0.012-0.059,0.025-0.087,0.041c-0.337,0.179-0.812,0.411-1.45,0.708
							c-0.57,0.231-1.278,0.571-2.152,1.032c-0.219-0.416-0.49-1.029-0.808-1.934c-0.461-1.31-0.904-2.7-1.317-4.139
							c-0.414-1.409-0.757-2.756-1.024-4.017c-0.308-1.364-0.539-2.245-0.706-2.692c-0.103-0.271-0.318-0.486-0.591-0.587
							c-0.112-0.041-0.229-0.062-0.345-0.062c-0.051,0-0.102,0.004-0.153,0.012c0.022-0.135,0.033-0.273,0.033-0.417
							c0-0.543-0.163-1.038-0.472-1.432c-0.051-0.065-0.109-0.123-0.174-0.174c-0.402-0.313-0.833-0.471-1.281-0.471h-2.706
							c-0.45,0-0.872,0.172-1.256,0.512c-0.045,0.04-0.087,0.084-0.125,0.132c-0.309,0.394-0.473,0.889-0.473,1.433
							c0,0.27,0.039,0.524,0.115,0.761c-0.136,0.048-0.26,0.126-0.364,0.227l-0.604,0.304c-0.207,0.104-0.372,0.277-0.465,0.488
							c-0.813,1.836-1.286,3.319-1.45,4.559c-0.099,0.887-0.159,1.585-0.182,2.115c-0.484-0.216-1.216-0.569-2.318-1.145
							c0.191-0.436,0.388-0.886,0.59-1.35c0.009-0.021,0.018-0.043,0.025-0.064c0.266-0.748,0.533-1.441,0.807-2.091
							c0.255-0.662,0.464-1.276,0.608-1.785c0.158-0.474,0.249-0.766,0.277-0.87c0.023-0.085,0.035-0.173,0.035-0.261
							c0-0.245-0.066-0.488-0.192-0.714c-0.032-0.263-0.167-0.503-0.376-0.666c-0.013-0.018-0.027-0.038-0.042-0.061
							c-0.037-0.056-0.08-0.107-0.127-0.155l-0.08-0.08l-0.227-0.226c-0.016-0.016-0.038-0.035-0.058-0.052
							c-0.097-0.2-0.257-0.363-0.458-0.462c-0.31-0.153-0.739-0.216-1.48-0.216c-0.616,0-1.306,0.013-2.139,0.041
							c-0.766,0.047-1.64,0.084-2.597,0.107c-0.019,0.001-0.039,0.002-0.058,0.004c-0.878,0.073-1.721,0.122-2.511,0.146l-3.08,0.11
							c-1.295,0-2.896,0.615-4.837,1.866c0.2-0.154,0.397-0.308,0.589-0.459c0.943-0.671,1.788-1.277,2.532-1.823
							c0.349-0.256,0.494-0.706,0.36-1.117c-0.109-0.333-0.381-0.579-0.71-0.66h8.775h0.445c0.465,0,0.868-0.194,1.133-0.547
							c0.068-0.091,0.12-0.191,0.154-0.298c0.036-0.05,0.068-0.101,0.096-0.152c0.02-0.001,0.041-0.001,0.063-0.001
							c0.487,0,0.862-0.069,1.162-0.217c0.02-0.003,0.041-0.005,0.063-0.005c0.312,0,0.606-0.078,0.864-0.228
							c0.35-0.101,0.66-0.216,0.924-0.345c0.408-0.178,0.728-0.426,0.957-0.739c0.324-0.281,0.525-0.676,0.579-1.137
							c0.056-0.295,0.107-0.687,0.153-1.164c0.003-0.031,0.005-0.063,0.005-0.096V5.313c0-0.026,0-0.051,0.002-0.072
							C26.547,5.241,26.548,5.241,26.549,5.241 M2.31,10.574c-0.186,0.046-0.355,0.145-0.488,0.286
							c-0.061,0.063-0.111,0.135-0.152,0.211c-0.047-0.135-0.039-0.267,0.076-0.457c0.031-0.022,0.08-0.04,0.179-0.04H2.31
							 M2.504,18.056c0.118,0.15,0.279,0.268,0.467,0.331c0.105,0.035,0.213,0.053,0.32,0.053c0.106,0,0.212-0.017,0.313-0.05
							L3.334,18.66c-0.042,0.042-0.08,0.087-0.113,0.136c-0.081,0.115-0.212,0.223-0.392,0.317c-0.104,0.057-0.198,0.13-0.277,0.219
							c-0.006-0.203-0.017-0.526-0.034-0.969C2.515,18.264,2.51,18.161,2.504,18.056 M70.486,3.941h-0.148L68.779,4.09l-0.518,0.966
							c0,0.245,0.036,0.444,0.111,0.592c0,0.224,0,0.384,0,0.481c0.025,0.125,0.037,0.213,0.037,0.261H45.529
							c-0.048,0-0.073-0.015-0.073-0.037c-0.049-0.024-0.074-0.099-0.074-0.224V5.834h-1.669l0.112,0.295
							c0.073,0.174,0.111,0.383,0.111,0.631h-9.457c-0.173,0-0.31-0.024-0.408-0.074c-0.074,0-0.161-0.014-0.26-0.038
							C33.663,6.549,33.169,6.5,32.328,6.5c-0.866,0-1.669,0.049-2.409,0.146c-0.075-0.346-0.149-0.68-0.224-1.001
							c-0.099-0.319-0.222-0.519-0.37-0.592h-0.482c-0.363,0.145-0.62,0.218-0.77,0.218c-0.104,0-0.156-0.036-0.156-0.107
							L27.1,4.385l-0.111-0.148h-0.296c-0.346,0-0.617,0.049-0.815,0.148c-0.223,0.174-0.334,0.484-0.334,0.929v0.333
							c-0.048,0.496-0.099,0.865-0.148,1.113c-0.024,0.273-0.136,0.47-0.333,0.594c-0.124,0.223-0.334,0.395-0.63,0.52
							c-0.248,0.123-0.556,0.234-0.926,0.332c-0.124,0.1-0.273,0.149-0.445,0.149c-0.149,0-0.297,0.022-0.446,0.074
							c-0.148,0.097-0.407,0.147-0.779,0.147c-0.345,0-0.605,0.062-0.778,0.184c-0.074,0.125-0.123,0.224-0.147,0.298
							c-0.025,0.075-0.088,0.149-0.187,0.224v0.145c-0.074,0.099-0.185,0.148-0.334,0.148c-0.172,0-0.32,0-0.445,0H2.703
							c-0.099,0-0.359,0-0.779,0c-0.395,0-0.717,0.135-0.961,0.408c-0.371,0.545-0.419,1.088-0.147,1.633
							c0.097,0.541,0.197,1.235,0.295,2.076c0.075,0.864,0.15,1.705,0.223,2.521c0.099,0.84,0.162,1.57,0.185,2.188
							c0.025,0.645,0.037,1.025,0.037,1.148c0,0.227,0.075,0.533,0.224,0.928c0.172,0.299,0.359,0.447,0.555,0.447
							c0.075,0,0.173-0.049,0.298-0.148c0.098-0.1,0.321-0.359,0.667-0.779c0.322-0.172,0.568-0.381,0.741-0.629l0.297-0.297
							c3.981-3.535,6.946-5.303,8.899-5.303l3.115-0.111c0.791-0.023,1.645-0.072,2.558-0.148c0.964-0.024,1.842-0.061,2.633-0.109
							c0.766-0.025,1.459-0.039,2.077-0.039c0.544,0,0.89,0.039,1.038,0.112c0.049,0.124,0.137,0.233,0.26,0.333
							c0.099,0.097,0.198,0.197,0.298,0.297c0.098,0.148,0.184,0.247,0.259,0.296c0,0.099,0.025,0.198,0.074,0.296
							c0.073,0.1,0.111,0.199,0.111,0.297c-0.026,0.098-0.112,0.371-0.26,0.815c-0.148,0.519-0.346,1.101-0.593,1.741
							c-0.272,0.645-0.543,1.348-0.816,2.115c-0.322,0.74-0.631,1.445-0.927,2.113v0.111l0.222,0.111
							c2.374,1.26,3.771,1.893,4.19,1.893c0-0.076,0.025-0.113,0.075-0.113c0.05-0.023,0.074-0.086,0.074-0.186v-0.594
							c0-0.518,0.062-1.334,0.186-2.447c0.148-1.113,0.605-2.533,1.371-4.264l0.668-0.336c0.075-0.022,0.136-0.072,0.186-0.146
							c0.222,0.173,0.68,0.396,1.371,0.668c0.343,0.13,0.743,0.195,1.199,0.195c0.498,0,1.063-0.078,1.694-0.233
							c0.296,0,0.505-0.11,0.63-0.334c0.073,0,0.111-0.013,0.111-0.038c0.025-0.072,0.086-0.111,0.185-0.111
							c0.42-0.172,0.742-0.32,0.964-0.443c0.148,0.395,0.371,1.248,0.667,2.561c0.272,1.285,0.619,2.645,1.04,4.078
							c0.419,1.459,0.863,2.855,1.333,4.189c0.47,1.336,0.916,2.275,1.335,2.82h0.26c1.137-0.619,2.039-1.064,2.707-1.334
							c0.643-0.299,1.149-0.545,1.52-0.742c0.42-0.174,0.692-0.299,0.816-0.373l0.296-0.109l-0.147-0.262
							c0-0.023-0.197-0.469-0.593-1.334c-0.373-0.891-0.805-1.99-1.3-3.299c-0.468-1.361-0.901-2.795-1.297-4.303
							c-0.397-1.584-0.594-3.006-0.594-4.266c0-0.074,0.036-0.186,0.111-0.334c0.025-0.148,0.038-0.297,0.038-0.444
							c0.098,0,0.358-0.024,0.778-0.073c0.421-0.101,0.853-0.186,1.298-0.262c0.469-0.098,0.914-0.173,1.335-0.223
							c0.394-0.049,0.667-0.109,0.813-0.184c0,0.121,0,0.297,0,0.518c0,0.199,0.026,0.421,0.074,0.668
							c0,0.298,0.025,0.582,0.074,0.854l0.186,0.446h0.111c0.174-0.024,0.409-0.074,0.705-0.147
							c0.321-0.025,0.643-0.076,0.965-0.149c0.297-0.025,0.555-0.05,0.778-0.074c0.248-0.024,0.421-0.049,0.519-0.073
							c0.148,0,0.595-0.013,1.336-0.037c0.742,0,1.645-0.025,2.707-0.074c1.086-0.025,2.225-0.037,3.412-0.037
							c1.209-0.025,2.321-0.037,3.336-0.037h0.297c0-0.299,0.023-0.545,0.074-0.741c0-0.198,0.012-0.347,0.036-0.444
							c0.024-0.175,0.038-0.299,0.038-0.371c0.146,0,0.271-0.014,0.37-0.039l0.261-0.111c0-0.098,0.035-0.234,0.11-0.407
							c0.049-0.147,0.073-0.271,0.073-0.371c0.668-0.049,1.322-0.073,1.966-0.073c0.715-0.05,1.333-0.074,1.854-0.074
							c0.543,0,1,0.024,1.371,0.074c0.346,0,0.568,0.024,0.668,0.073l0.704,0.224c0.198,0.098,0.358,0.16,0.482,0.185
							c0.172,0.05,0.307,0.075,0.405,0.075c0.174,0.123,0.42,0.347,0.742,0.666c0.321,0.273,0.58,0.408,0.778,0.408
							c0.444,0,0.926-0.256,1.446-0.777c0.197-0.197,0.298-0.457,0.298-0.778c0.444,0,1.31-0.012,2.595-0.036
							c1.385-0.025,2.77-0.039,4.153-0.039c1.409-0.047,2.68-0.088,3.819-0.111c1.162,0,1.805,0,1.928,0h3.931V8.354
							c0-0.224-0.123-0.334-0.37-0.334c-0.094-0.135-0.264-0.202-0.508-0.202c-0.071,0-0.148,0.006-0.232,0.018
							c-0.347,0.024-0.73,0.051-1.148,0.076c-0.372,0.072-0.694,0.135-0.967,0.184c-0.37,0.074-0.605,0.111-0.704,0.111
							c-0.123,0-0.433,0-0.927,0c-0.545,0.025-1.211,0.037-2.002,0.037c-0.742,0-1.596,0.014-2.56,0.037
							c-0.89,0.051-1.767,0.075-2.633,0.075s-1.657-0.024-2.374-0.075c-0.717-0.025-1.211-0.049-1.482-0.074
							c-0.717,0-1.373-0.16-1.966-0.482c-0.569-0.346-0.952-0.629-1.149-0.852c0.024-0.051,0.051-0.088,0.074-0.111
							c0.051,0,0.086-0.025,0.11-0.075l0.112-0.038V3.941L70.486,3.941z M10.93,11.545c-0.741,0.543-1.582,1.147-2.521,1.815
							c-0.915,0.718-1.866,1.435-2.856,2.152c-0.445,0.394-0.889,0.765-1.334,1.11c-0.395,0.322-0.704,0.594-0.927,0.816
							c-0.05-0.369-0.111-0.789-0.186-1.26c-0.024-0.545-0.073-1.113-0.149-1.706c-0.074-0.521-0.147-1.026-0.222-1.521
							c-0.099-0.545-0.161-1.016-0.185-1.408H10.93L10.93,11.545z M31.438,15.215c-0.199,0-0.396-0.1-0.594-0.297
							c-0.173-0.224-0.259-0.494-0.259-0.815s0.086-0.595,0.259-0.815c0.198-0.175,0.395-0.261,0.594-0.261h2.706
							c0.223,0,0.444,0.087,0.668,0.261c0.173,0.221,0.259,0.494,0.259,0.815s-0.086,0.592-0.259,0.815
							c-0.223,0.197-0.445,0.297-0.668,0.297H31.438L31.438,15.215z"/>
					</g>
				</g>
			</g>
		</g>
	</g>
</g>
</svg>
