<?xml version="1.0" encoding="utf-8"?>
<!-- Generator: Adobe Illustrator 16.0.0, SVG Export Plug-In . SVG Version: 6.00 Build 0)  -->
<!DOCTYPE svg PUBLIC "-//W3C//DTD SVG 1.1//EN" "http://www.w3.org/Graphics/SVG/1.1/DTD/svg11.dtd">
<svg version="1.1" xmlns="http://www.w3.org/2000/svg" xmlns:xlink="http://www.w3.org/1999/xlink" x="0px" y="0px"
	 width="95.833px" height="32px" viewBox="0 0 95.833 32" enable-background="new 0 0 95.833 32" xml:space="preserve">
<g id="Selected_Items">
	<g>
		<g id="Selected_Items_28_">
			<linearGradient id="SVGID_1_" gradientUnits="userSpaceOnUse" x1="1.151803e-03" y1="16.3707" x2="95.291" y2="16.3707">
				<stop  offset="0" style="stop-color:#FFD93F"/>
				<stop  offset="1" style="stop-color:#FF310E"/>
			</linearGradient>		
			<path fill-rule="evenodd" clip-rule="evenodd" fill="url(#SVGID_1_)" d="M88.1,18.1c-1,0.4-2.3,0.7-3.7,1.1c-2.8,0.8-5.2,1.4-7,1.7c-1.8,0.3-4.2,0.5-7.1,0.6c-0.9,0-1.8,0.1-2.7,0.1
				h-1.1c0-0.1-0.1-0.3-0.2-0.5c-0.2-0.4-0.5-0.8-1-1.1c-0.4-0.3-0.9-0.6-1.5-0.7c-0.2,0-0.3-0.1-0.5-0.1l-19.8-0.1
				c-0.1,0-0.2,0.1-0.3,0.1c0,0-0.1,0.1-0.1,0.2l0,0.1l-0.5,2.2c-0.3,1.5-0.6,2.6-0.7,3.2c0,0.1-0.1,0.2-0.1,0.3
				c-0.1,0.1-0.1,0.2-0.2,0.2c-0.1,0.1-0.3,0.2-0.7,0.2l-0.5,0.1c-0.3,0-0.6,0-1,0c-0.7,0-1.2-0.1-1.4-0.1c-0.1,0-0.2-0.1-0.2-0.1
				c-0.1-0.1-0.2-0.2-0.2-0.2c0-0.2,0.1-0.5,0.4-0.8c0,0,0.2-0.2,0.5-0.6c0.2-0.3,0.5-0.6,0.7-0.9c0.4-0.5,0.6-1,0.6-1.2
				c0-0.2,0-0.5,0-1l0-0.6c-0.1,0-0.2,0-0.2,0c-0.1-0.2-0.3-0.4-0.5-0.6c-0.3-0.4-0.6-0.7-0.9-0.9c-0.4-0.3-0.7-0.5-1.1-0.7
				c-0.6-0.3-1.3-0.4-2.1-0.4c-0.7,0-1.4,0.3-2,0.7c-0.6,0.4-1.1,1.1-1.4,1.8c-0.3,0.7-0.5,1.2-0.6,1.5c-0.1,0.2-0.2,0.3-0.2,0.3
				c0,0-0.1,0.1-0.1,0.1c-0.1,0.1-0.2,0.1-0.3,0.1c-0.1,0-0.3-0.1-0.5-0.3c-0.2-0.3-0.5-0.6-0.7-1c-0.2-0.3-0.3-0.5-0.4-0.6
				c-0.1-0.3-0.3-0.5-0.4-0.7c-0.4-0.5-0.8-0.9-1.4-1.2c-0.6-0.3-1.2-0.5-1.8-0.6c-0.7-0.1-1.3,0.1-1.8,0.5c-0.4,0.2-0.9,0.6-1.4,1
				c-0.4,0.3-0.7,0.5-0.8,0.5c-0.2,0-0.3,0.1-0.5,0c-0.1,0-0.3-0.1-0.6-0.2c-0.4-0.1-0.7-0.3-1.1-0.4c-0.6-0.1-1.2-0.2-1.8-0.1
				c-0.6,0.1-1,0.2-1.4,0.4c-0.4,0.2-0.8,0.4-1.1,0.7c-0.2,0.2-0.5,0.4-0.8,0.7c-0.2,0.2-0.4,0.3-0.6,0.4c-0.4,0.2-0.8,0.3-1.1,0.3
				c-0.3,0-0.6,0.1-0.8,0.1c-0.5,0.1-0.9,0.2-1.3,0.4c-0.4,0.2-0.8,0.6-1.3,1c-0.2,0.2-0.5,0.6-1,1.2c-0.4,0.5-0.8,1-1.2,1.6
				l-1.1,0.4L5,26.2c-2-3.2-3.1-5-3.4-5.4c0-0.1-0.4-0.5-1-1.2c-0.4-0.5-0.6-0.9-0.7-1c0-0.2,0-0.4,0.1-0.7c0.1-0.2,0.2-0.5,0.4-0.7
				c0.1-0.1,0.3-0.4,0.7-0.8c0.4-0.4,0.7-0.7,0.9-1c0.1-0.2,0.3-0.5,0.6-1c0.2-0.4,0.4-0.7,0.6-0.8c0.2-0.2,0.4-0.3,0.6-0.4
				c0.1,0,0.2,0,0.4-0.1c0.1,0,0.4,0,0.8-0.1c0.5,0,1.1-0.1,1.6-0.3c0.7-0.2,1.2-0.3,1.6-0.4c0.4-0.1,1.1-0.4,2-0.8
				c1.2-0.5,2.1-0.9,2.8-1.2c0.9-0.4,1.8-0.7,2.6-0.9c1-0.3,1.7-0.5,2.1-0.6c0.6-0.1,1.4-0.2,2.3-0.3c0.9-0.1,1.7-0.1,2.5,0
				c0.5,0,1.2,0.1,2.1,0.3c0.7,0.1,1.4,0.2,2.1,0.2c0.6,0,1.4,0,2.4,0c0.7,0,1.4,0,2.2-0.1c0.4,0,0.6-0.1,0.8-0.1l0-0.2l0.2,0
				l0.1,0.2l0.4,0V8.5l0.3-0.1l0.1,0.2l0.3,0V8.4l0.3,0l0,0.2l0.4,0V8.3h0.2l0,0.2l0.3,0V8.2l0.3,0l0,0.3l0.3,0V8l0.2,0l0.1,0.3
				l0.3-0.1V7.8h0.2l0.1,0.2h0.2l0-0.3l0.3,0l0,0.3L37,7.9V7.7l0.2,0l0.1,0.2l0.4-0.1c0.3-0.1,0.4-0.2,0.5-0.2
				c0.1,0,0.2-0.1,0.3-0.2c0.1-0.1,0.2-0.2,0.2-0.2C38.9,7,39,7,39.2,7c0.1,0,0.2,0,0.2,0c0.1,0,0.3-0.1,0.5-0.3
				c0.2-0.1,0.4-0.2,0.5-0.2c0.2-0.1,0.3-0.1,0.5,0c0.1,0,0.2,0.1,0.4,0.1c0,0,0.2,0.1,0.5,0.2C42.1,6.9,42.3,7,42.5,7
				c0.2,0,0.4,0,0.5,0C43.2,7,43.3,7,43.4,7c0.1,0,0.4,0.1,0.8,0.4c0.2,0.1,0.4,0.3,0.6,0.4l2.8,0.5c2,0.4,3.5,0.7,4.3,0.8
				c1,0.1,2.3,0.3,3.7,0.4c1.3,0,2.4,0.1,3.2,0c1.7-0.1,3.1-0.3,4.3-0.8c0.3-0.1,0.8-0.4,1.6-0.8c0.7-0.4,1.2-0.6,1.3-0.6
				c0.2-0.1,0.4-0.1,0.6-0.1c0.3,0,0.4,0,0.5,0.1c0.1,0,0.1,0.1,0.2,0.3c0.1,0.1,0.1,0.3,0.2,0.5c0.2,0.4,0.4,0.7,0.6,0.8
				c0.2,0.1,0.4,0.1,0.6,0c0.2-0.1,0.3-0.2,0.3-0.5c0-0.2,0-0.4,0-0.6l-0.1-0.2h0.4l0.1,0.3c0.1,0.2,0.3,0.4,0.3,0.6
				c0.1,0.2,0.2,0.4,0.3,0.6c0.2,0.2,0.3,0.3,0.5,0.3c0.3,0,0.5,0,0.6,0c0.3-0.1,0.4-0.2,0.4-0.5c0-0.3,0-0.5-0.1-0.7l-0.1-0.2
				l0.4,0.1l0.2,0.3c0.1,0.2,0.3,0.4,0.4,0.5c0.1,0.3,0.2,0.5,0.3,0.5c0.1,0.2,0.3,0.3,0.5,0.3c0.2,0,0.4,0,0.5,0
				c0.2,0,0.3-0.2,0.3-0.4c0-0.2,0-0.4-0.1-0.6l-0.2-0.4l0.4,0l0.2,0.3c0.1,0.2,0.2,0.3,0.2,0.4c0.1,0.2,0.2,0.4,0.2,0.5
				c0.1,0.2,0.3,0.3,0.4,0.4c0.5,0.2,0.8,0.2,1.1-0.1c0.1-0.1,0.2-0.2,0.2-0.4c0-0.1,0-0.3,0-0.4c0-0.1-0.1-0.3-0.2-0.4l-0.1-0.1
				l0.5,0l0.2,0.3c0.1,0.2,0.2,0.4,0.3,0.6c0.1,0.2,0.2,0.3,0.3,0.4c0,0.1,0.2,0.1,0.4,0.2c0.1,0.1,0.3,0.1,0.4,0.1
				c0.1,0,0.3,0,0.4-0.1c0.2-0.1,0.3-0.4,0.2-0.6c0-0.1-0.1-0.2-0.2-0.4l-0.1-0.2l0.4,0l0.2,0.3C78.9,9.1,79,9.2,79,9.3
				c0,0.1,0.1,0.3,0.2,0.4c0.1,0.2,0.2,0.3,0.3,0.4c0.2,0.1,0.3,0.2,0.5,0.2c0.2,0,0.4,0,0.6-0.1c0.2-0.2,0.3-0.5,0.2-0.9
				c0-0.1,0-0.2-0.1-0.4l-0.1-0.2l0.5,0.1L81.3,9c0.1,0.2,0.2,0.4,0.3,0.6c0.1,0.1,0.1,0.2,0.2,0.3c0.1,0.1,0.2,0.3,0.5,0.5
				c0.1,0.1,0.3,0.2,0.5,0.2c0.2,0,0.3-0.1,0.4-0.2c0.1-0.1,0.2-0.2,0.2-0.4c0-0.1,0-0.2,0-0.4c-0.1-0.1-0.1-0.2-0.2-0.4L82.9,9
				l0.4,0.1l0.2,0.2c0.1,0.2,0.2,0.3,0.2,0.4c0,0.1,0.1,0.2,0.2,0.4c0.1,0.2,0.2,0.3,0.4,0.4c0.2,0.1,0.3,0.2,0.4,0.2
				c0.2,0,0.4,0,0.5-0.2c0.1-0.1,0.2-0.2,0.2-0.4c0-0.1,0-0.2-0.1-0.4c0-0.1-0.1-0.2-0.2-0.3L85,9.3l10.3,1.3L88.1,18.1z M40.1,23.5
				c-0.3,0-0.5,0.1-0.6,0.2c-0.2,0.2-0.2,0.4-0.2,0.6c0,0.2,0.1,0.4,0.2,0.6c0.2,0.2,0.4,0.2,0.6,0.2c0.2,0,0.4-0.1,0.6-0.2
				c0.2-0.2,0.2-0.4,0.2-0.6c0-0.2-0.1-0.4-0.2-0.6C40.5,23.6,40.3,23.5,40.1,23.5z"/>
		</g>
	</g>
</g>
<g id="guides">
</g>
</svg>
