<?xml version="1.0" encoding="utf-8"?>
<!-- Generator: Adobe Illustrator 16.0.0, SVG Export Plug-In . SVG Version: 6.00 Build 0)  -->
<!DOCTYPE svg PUBLIC "-//W3C//DTD SVG 1.1//EN" "http://www.w3.org/Graphics/SVG/1.1/DTD/svg11.dtd">
<svg version="1.1" id="图层_1" xmlns="http://www.w3.org/2000/svg" xmlns:xlink="http://www.w3.org/1999/xlink" x="0px" y="0px"
	 width="109.5px" height="32px" viewBox="0 0 109.5 32" enable-background="new 0 0 109.5 32" xml:space="preserve">
<rect x="-0.015" fill="none" width="109.5" height="32"/>
<g>
	<g>
		<g>
			<g>
				<g>
					<linearGradient id="SVGID_1_" gradientUnits="userSpaceOnUse" x1="40.5215" y1="43.7744" x2="65.4174" y2="-9.615">
						<stop  offset="0.1429" style="stop-color:#000000"/>
						<stop  offset="0.4335" style="stop-color:#FFD400"/>
						<stop  offset="0.7488" style="stop-color:#FF0000"/>
					</linearGradient>
					<path fill="url(#SVGID_1_)" d="M109.259,11.317c0.053,0.129,0.104,0.256,0.154,0.385c0.078,0.18,0.117,0.348,0.117,0.503
						c0,0.256-0.154,0.617-0.465,1.08l-0.115,0.193H67.968v0.695h3.01v2.624l0.424,0.426c0.23,0.18,0.346,0.487,0.346,0.924
						c0,0.155-0.023,0.259-0.074,0.311c-0.055,0-0.078,0.039-0.078,0.116v0.114c0,0.311-0.064,0.463-0.191,0.463
						c-0.078,0-0.193,0-0.348,0c-0.182,0-0.785,0-1.814,0c-0.977,0-2.521,0-4.631,0s-5.119,0-9.029,0
						c-0.129,0.078-0.193,0.205-0.193,0.388c0.051,0,0.117,0.038,0.193,0.114l0.27,0.271l-0.193,0.579h-1.541l-0.193-0.192
						c-0.076-0.127-0.244-0.516-0.5-1.158c-0.258-0.59-0.283-1.08-0.078-1.465c0-0.311,0.154-0.463,0.463-0.463h0.117
						c0.644,0,1.041,0.09,1.196,0.271c0.36,0,0.786-0.103,1.272-0.308l-7.486-0.08c-0.051,0-0.372,0.092-0.964,0.271
						c-0.515,0.128-1.104,0.297-1.774,0.501c-0.644,0.182-1.262,0.35-1.853,0.501c-0.541,0.129-0.836,0.231-0.888,0.312v2.701
						l-8.836,0.926V19.54c-0.463,0-0.746,0.063-0.849,0.192c-0.078,0.127-0.284,0.295-0.617,0.502
						c-0.31,0.308-0.695,0.514-1.158,0.617c-0.515,0.18-1.107,0.23-1.775,0.152c-0.668-0.051-1.428-0.334-2.277-0.849
						c-0.052,0-0.104,0.024-0.154,0.077c-0.077,0-0.18,0-0.309,0c0,0.332-0.013,0.731-0.038,1.195
						c-0.051,0.514-0.142,1.029-0.27,1.543c-0.078,0.514-0.232,1.004-0.463,1.467c-0.154,0.412-0.334,0.668-0.54,0.771
						c-0.361,0.207-0.966,0.271-1.815,0.193c-0.849-0.053-1.749-0.168-2.701-0.348c-0.951-0.13-1.827-0.271-2.624-0.426
						c-0.796-0.23-1.286-0.396-1.466-0.501c-0.18-0.128-0.541-0.514-1.08-1.159c-0.386-0.308-0.773-0.654-1.159-1.042
						c-0.385-0.334-0.629-0.514-0.732-0.538h-5.06C9.299,22.777,9.171,23.6,9.12,23.857c-0.026,0.205-0.104,0.309-0.232,0.309
						c-0.076,0.18-0.231,0.271-0.463,0.271c-0.206,0-0.644-0.093-1.313-0.271c-0.514,0-1.029,0-1.542,0
						c-0.541-0.025-0.876-0.025-1.003,0c-0.232,0-0.491,0.038-0.772,0.117c-0.335,0.102-0.733,0.167-1.197,0.193
						c-0.361,0.127-0.771,0.217-1.236,0.269c-0.514,0.077-0.822,0.144-0.925,0.192H0.163c-0.077,0-0.115-0.039-0.115-0.115
						c-0.053-0.102-0.078-0.32-0.078-0.655c0-0.283,0-0.771,0-1.466c0-0.721,0-1.711,0-2.973c0.128-1.185,0.193-2.328,0.193-3.436
						c0-1.183,0-2.032,0-2.547c0-0.205,0.258-0.424,0.772-0.654c0.463-0.207,1.607-0.285,3.435-0.233h1.003l0.077-0.077l0.117-0.077
						c0.051,0,0.114-0.039,0.193-0.117c0.076-0.051,0.179-0.128,0.308-0.231h9.185c0.206,0.026,0.411,0.142,0.617,0.348
						c0.464,0.308,0.811,0.655,1.042,1.041h10.419c0.078-0.205,0.18-0.527,0.309-0.964c0.129-0.386,0.193-0.708,0.193-0.964v-0.231
						h0.078c0.283-0.103,0.785-0.193,1.504-0.27c0.694-0.025,1.107-0.104,1.235-0.232c0.128,0,0.258-0.026,0.386-0.077
						c0.025-0.077,0.103-0.142,0.231-0.193h3.242V9.85h-1.196c-0.128,0-0.451,0.052-0.964,0.155
						c-0.515,0.077-1.133,0.153-1.853,0.231c-0.668,0.076-1.39,0.142-2.161,0.193c-0.722,0-1.351-0.038-1.892-0.117l-0.077-0.192
						v-0.115c-0.077-0.721-0.116-1.274-0.116-1.66c0-0.437,0-0.786,0-1.042c0-0.206,0.039-0.347,0.116-0.424l0.077-0.078h0.192
						l0.811-0.077c0.566-0.026,1.184-0.064,1.853-0.116c0.72-0.077,1.441-0.115,2.161-0.115c0.668,0,1.183,0.038,1.542,0.115
						c0.463,0,0.965,0,1.506,0c0.592,0,1.208,0,1.852,0c0.591,0,1.145-0.013,1.659-0.039c0.464-0.051,0.823-0.076,1.081-0.076V5.837
						c-0.052-0.026-0.077-0.09-0.077-0.193V5.027l3.203-0.193h0.039l0.385,1.08c0,0.052-0.039,0.09-0.115,0.116
						c-0.052,0.103-0.142,0.154-0.271,0.154v0.193h5.596c0.438-0.103,1.054-0.193,1.854-0.271c0.848-0.077,1.684-0.167,2.508-0.27
						c0.848-0.077,1.633-0.141,2.354-0.193c0.668-0.026,1.092,0.026,1.273,0.155l0.154,0.115l0.076,4.399h-0.23
						c-4.683,0-7.19-0.154-7.525-0.463v0.155c-0.18-0.104-0.541-0.167-1.081-0.193c-0.541-0.052-1.158-0.04-1.853,0.038v0.888
						h63.674v0.154C109.118,11.021,109.183,11.162,109.259,11.317z M31.846,17.684h-2.161c-0.592,0-0.887,0.271-0.887,0.813
						c0,0.645,0.295,0.965,0.887,0.965h2.161c0.591,0,0.888-0.32,0.888-0.965C32.735,17.954,32.438,17.684,31.846,17.684z
						 M19.227,21.428c0.36,0.747,0.926,1.158,1.698,1.235c0.643,0.18,1.403,0.078,2.277-0.31c0.438-0.231,0.913-0.645,1.428-1.233
						c0.179-0.334,0.308-0.722,0.386-1.158c0.077-0.515,0.026-0.914-0.155-1.196c-0.128-0.488-0.604-0.812-1.427-0.966
						c-1.055-0.206-1.904-0.167-2.546,0.116c-0.438,0.23-0.746,0.424-0.927,0.579c-0.206,0.153-0.399,0.411-0.579,0.772
						C18.97,19.936,18.918,20.655,19.227,21.428z"/>
				</g>
			</g>
		</g>
	</g>
</g>
<linearGradient id="SVGID_2_" gradientUnits="userSpaceOnUse" x1="23.1626" y1="18.46" x2="43.1609" y2="18.46" gradientTransform="matrix(0.9842 -0.1771 0.1771 0.9842 -10.4839 5.3339)">
	<stop  offset="0.3505" style="stop-color:#FFE3A0"/>
	<stop  offset="1" style="stop-color:#00FFFF"/>
</linearGradient>
<path fill="url(#SVGID_2_)" d="M30.666,11.096c-0.128,0.128-0.541,0.207-1.235,0.231c-0.719,0.078-1.221,0.168-1.504,0.271h-0.078
	v0.231c0,0.256-0.064,0.578-0.193,0.964c-0.089,0.301-0.161,0.527-0.225,0.719c3.261,1.312,6.474,3.673,8.756,7.823
	c0,0-0.149-5.212-5.096-10.369c-0.013,0.018-0.032,0.033-0.039,0.053C30.923,11.069,30.793,11.096,30.666,11.096z"/>
<linearGradient id="SVGID_3_" gradientUnits="userSpaceOnUse" x1="23.1602" y1="10.1782" x2="43.1611" y2="10.1782" gradientTransform="matrix(0.9842 -0.1771 0.1771 0.9842 -10.4839 5.3339)">
	<stop  offset="0.3505" style="stop-color:#FFE3A0"/>
	<stop  offset="1" style="stop-color:#00FFFF"/>
</linearGradient>
<path fill="url(#SVGID_3_)" d="M26.265,8.355c0,0.386,0.039,0.939,0.116,1.66v0.115l0.077,0.192c0.541,0.078,1.17,0.117,1.892,0.117
	c0.723-0.049,1.398-0.11,2.031-0.18c-1.13-1.077-2.482-2.14-4.095-3.142c-0.011,0.059-0.022,0.117-0.022,0.194
	C26.265,7.569,26.265,7.919,26.265,8.355z"/>
<linearGradient id="SVGID_4_" gradientUnits="userSpaceOnUse" x1="24.6729" y1="9.6748" x2="44.0479" y2="9.6748">
	<stop  offset="0.3505" style="stop-color:#FFE3A0"/>
	<stop  offset="1" style="stop-color:#00FFFF"/>
</linearGradient>
<path fill="url(#SVGID_4_)" d="M39.115,6.504c-0.258,0-0.617,0.024-1.081,0.075c-0.514,0.026-1.068,0.039-1.659,0.039
	c-0.644,0-1.26,0-1.852,0c-0.473,0-0.911,0-1.324,0c3.924,0.598,8.271,2.381,10.848,6.955c0,0-1.371-3.991-4.991-7.797
	c0.013,0.033,0.031,0.058,0.058,0.071V6.504z"/>
<g>
	<g>
		<g>
			<g>
				<g>
					<g>
						<linearGradient id="SVGID_5_" gradientUnits="userSpaceOnUse" x1="36.4043" y1="45.5488" x2="69.083" y2="-11.976">
							<stop  offset="0" style="stop-color:#BB925B"/>
							<stop  offset="0.3429" style="stop-color:#FFF6DA"/>
							<stop  offset="0.6571" style="stop-color:#FFF1B1"/>
							<stop  offset="1" style="stop-color:#B38B54"/>
						</linearGradient>
						<path fill="url(#SVGID_5_)" d="M41.308,5.891c-0.028,0.093-0.043,0.191-0.043,0.292v0.193c0,0.552,0.448,1,1,1h5.596
							c0.077,0,0.154-0.009,0.23-0.027c0.389-0.092,0.968-0.176,1.713-0.249c0.855-0.077,1.711-0.169,2.509-0.27
							c0.841-0.077,1.62-0.14,2.301-0.19c0.097-0.003,0.187-0.005,0.271-0.005c0.048,0,0.091,0,0.131,0.001l0.046,2.673
							c-4.78-0.02-5.927-0.22-6.195-0.301c-0.163-0.105-0.353-0.16-0.543-0.16c-0.09,0-0.18,0.012-0.268,0.037
							c-0.207-0.035-0.445-0.058-0.719-0.071c-0.248-0.023-0.511-0.036-0.782-0.036c-0.397,0-0.827,0.026-1.277,0.077
							C44.772,8.913,44.39,9.341,44.39,9.85v0.887c0,0.552,0.448,1,1,1h62.961c0.045,0.111,0.09,0.225,0.146,0.364
							c0.021,0.047,0.028,0.078,0.032,0.083c-0.01,0.035-0.042,0.127-0.138,0.295H67.968c-0.553,0-1,0.448-1,1v0.694
							c0,0.552,0.447,1,1,1h2.01v1.624c0,0.265,0.104,0.518,0.291,0.705l0.424,0.426c0.013,0.014,0.025,0.025,0.039,0.037
							c0.002,0.01,0.004,0.021,0.006,0.037c-0.026,0.047-0.049,0.097-0.068,0.148h-1.428H64.61h-7.929
							c0.033-0.014,0.066-0.027,0.101-0.041c0.437-0.185,0.684-0.65,0.593-1.115c-0.092-0.465-0.497-0.802-0.971-0.807l-7.497-0.08
							c-0.172,0-0.258,0.012-1.207,0.3c-0.499,0.125-1.078,0.288-1.803,0.508c-0.636,0.18-1.245,0.346-1.813,0.491
							c-0.831,0.198-1.244,0.353-1.496,0.741c-0.104,0.162-0.16,0.351-0.16,0.543v1.801l-6.836,0.716V19.54c0-0.552-0.448-1-1-1
							c-0.271,0-0.575,0.016-0.862,0.093c0.002-0.043,0.003-0.088,0.003-0.133c0.002-0.664-0.267-1.072-0.493-1.3
							c-0.341-0.343-0.811-0.517-1.395-0.517h-2.161c-1.146,0-1.887,0.711-1.887,1.813c0,0.237,0.029,0.459,0.085,0.66
							c-0.133,0.003-0.263,0.029-0.386,0.076h-0.045c-0.552,0-1,0.447-1,1c0,0.316-0.011,0.698-0.032,1.097
							c-0.045,0.454-0.127,0.926-0.246,1.399c-0.008,0.031-0.014,0.063-0.019,0.094c-0.062,0.409-0.186,0.802-0.369,1.168
							c-0.016,0.032-0.03,0.064-0.042,0.099c-0.055,0.147-0.1,0.227-0.124,0.263c-0.06,0.025-0.245,0.083-0.651,0.083
							c-0.168,0-0.352-0.01-0.581-0.03c-0.809-0.051-1.676-0.162-2.578-0.332c-0.017-0.004-0.034-0.006-0.05-0.008
							c-0.92-0.127-1.77-0.264-2.525-0.408c-0.763-0.223-1.056-0.332-1.156-0.374c-0.087-0.079-0.325-0.317-0.857-0.954
							c-0.043-0.053-0.091-0.1-0.144-0.141c-0.362-0.289-0.723-0.614-1.073-0.966c-0.018-0.018-0.036-0.034-0.054-0.05
							c-0.579-0.502-0.86-0.686-1.157-0.756c-0.075-0.018-0.153-0.027-0.23-0.027h-5.06c-0.496,0-0.917,0.363-0.989,0.854
							c-0.155,1.047-0.266,1.769-0.33,2.156c-0.16-0.033-0.416-0.092-0.815-0.199c-0.084-0.021-0.171-0.033-0.258-0.033
							l-1.495,0.001c-0.29-0.014-0.524-0.021-0.704-0.021c-0.18,0-0.315,0.007-0.427,0.021c-0.305,0.008-0.629,0.06-0.981,0.159
							c-0.262,0.08-0.586,0.131-0.964,0.152c-0.094,0.005-0.187,0.023-0.275,0.055c-0.29,0.102-0.631,0.176-1.052,0.223
							c-0.088,0.014-0.169,0.026-0.244,0.039v-1.094v-2.919c0.128-1.202,0.193-2.376,0.193-3.489v-2.201
							c0.047-0.024,0.106-0.054,0.18-0.087c0.038-0.017,0.413-0.162,2.004-0.162c0.304,0,0.635,0.005,1.023,0.016h1.003
							c0.251,0,0.492-0.094,0.677-0.264c0.116-0.055,0.229-0.13,0.337-0.225c0.006-0.004,0.012-0.009,0.019-0.013h8.697
							c0.015,0.012,0.036,0.03,0.061,0.055c0.047,0.047,0.098,0.089,0.153,0.125c0.337,0.225,0.585,0.467,0.737,0.721
							c0.18,0.302,0.506,0.487,0.858,0.487h10.419c0.415,0,0.787-0.256,0.935-0.644c0.083-0.218,0.186-0.538,0.322-1.003
							c0.083-0.247,0.144-0.476,0.185-0.689c0.179-0.03,0.412-0.063,0.715-0.096c0.686-0.026,1.148-0.103,1.479-0.255
							c0.146-0.024,0.292-0.064,0.436-0.121c0.081-0.032,0.156-0.074,0.225-0.124h2.881c0.552,0,1-0.448,1-1V9.85
							c0-0.552-0.448-1-1-1h-1.196c-0.176,0-0.431,0.029-1.112,0.167c-0.485,0.072-1.078,0.146-1.819,0.227
							c-0.659,0.075-1.359,0.138-2.08,0.187c-0.354,0-0.686-0.011-0.992-0.032C27.27,8.955,27.25,8.603,27.25,8.345l0-0.598
							l0.243-0.023c0.575-0.027,1.204-0.065,1.912-0.122c0.681-0.072,1.373-0.109,2.056-0.109c0.742,0,1.135,0.05,1.334,0.093
							c0.068,0.014,0.138,0.021,0.208,0.021h1.506h1.853c0.612,0,1.188-0.014,1.709-0.041c0.019-0.001,0.038-0.002,0.057-0.004
							c0.421-0.046,0.748-0.069,0.973-0.069c0.552,0,1-0.448,1-1V5.964L41.308,5.891 M19.336,17.715
							c-0.316,0.244-0.588,0.594-0.829,1.068c-0.555,0.926-0.627,1.967-0.208,3.016c0.009,0.021,0.018,0.043,0.028,0.063
							c0.5,1.036,1.333,1.651,2.415,1.786c0.267,0.066,0.547,0.101,0.834,0.101c0.628,0,1.313-0.162,2.032-0.481
							c0.021-0.01,0.042-0.02,0.062-0.029c0.546-0.289,1.106-0.766,1.713-1.459c0.05-0.058,0.093-0.12,0.129-0.188
							c0.228-0.426,0.392-0.914,0.493-1.481c0.104-0.692,0.029-1.278-0.222-1.748c-0.203-0.588-0.75-1.28-2.157-1.544
							c-0.505-0.099-0.98-0.148-1.414-0.148c-0.648,0-1.229,0.111-1.728,0.331c-0.021,0.009-0.042,0.02-0.063,0.03
							C19.934,17.288,19.578,17.512,19.336,17.715 M54.209,18.232c0.143,0.01,0.229,0.024,0.275,0.035
							c0.106,0.088,0.229,0.151,0.361,0.189c-0.179,0.162-0.31,0.366-0.384,0.6c-0.037-0.091-0.078-0.191-0.123-0.305
							C54.231,18.506,54.201,18.333,54.209,18.232 M42.265,4.834h-0.039l-3.203,0.193v0.617c0,0.103,0.025,0.166,0.077,0.192v0.656
							c-0.258,0-0.616,0.024-1.081,0.075c-0.514,0.026-1.068,0.039-1.658,0.039c-0.645,0-1.261,0-1.853,0c-0.541,0-1.043,0-1.506,0
							c-0.359-0.076-0.874-0.114-1.542-0.114c-0.721,0-1.441,0.038-2.161,0.114c-0.669,0.053-1.287,0.091-1.853,0.117l-0.812,0.076
							h-0.192l-0.076,0.078c-0.078,0.077-0.117,0.219-0.117,0.424c0,0.256,0,0.605,0,1.042c0,0.386,0.039,0.939,0.117,1.66v0.115
							l0.076,0.192c0.541,0.078,1.17,0.117,1.893,0.117c0.771-0.052,1.492-0.117,2.16-0.193c0.721-0.078,1.338-0.154,1.854-0.231
							c0.514-0.103,0.836-0.155,0.964-0.155h1.196v0.965h-3.242c-0.128,0.052-0.206,0.117-0.23,0.193
							c-0.129,0.051-0.258,0.077-0.387,0.077c-0.128,0.128-0.541,0.207-1.234,0.231c-0.719,0.078-1.221,0.168-1.504,0.271h-0.078
							v0.231c0,0.256-0.064,0.578-0.193,0.964c-0.129,0.437-0.23,0.759-0.309,0.964H16.912c-0.231-0.387-0.578-0.732-1.042-1.041
							c-0.206-0.206-0.411-0.322-0.617-0.348H6.068c-0.129,0.103-0.232,0.18-0.308,0.23c-0.079,0.078-0.142,0.117-0.193,0.117
							L5.45,12.782l-0.077,0.077H4.37c-0.369-0.011-0.71-0.016-1.023-0.016c-1.239,0-2.042,0.083-2.412,0.249
							c-0.514,0.23-0.772,0.449-0.772,0.654c0,0.515,0,1.363,0,2.547c0,1.107-0.065,2.251-0.193,3.436c0,1.262,0,2.252,0,2.973
							c0,0.695,0,1.183,0,1.466c0,0.335,0.025,0.554,0.078,0.655c0,0.076,0.038,0.115,0.115,0.115h0.274
							c0.103-0.049,0.411-0.115,0.925-0.192c0.465-0.052,0.875-0.142,1.236-0.269c0.464-0.026,0.862-0.092,1.197-0.193
							c0.281-0.079,0.54-0.117,0.772-0.117c0.063-0.013,0.179-0.02,0.346-0.02s0.386,0.007,0.657,0.02c0.513,0,1.028,0,1.542,0
							c0.669,0.179,1.107,0.271,1.313,0.271c0.232,0,0.387-0.092,0.463-0.271c0.128,0,0.206-0.104,0.232-0.309
							c0.051-0.258,0.179-1.08,0.385-2.469h5.06c0.103,0.024,0.347,0.204,0.732,0.538c0.386,0.388,0.773,0.734,1.159,1.042
							c0.539,0.646,0.9,1.031,1.08,1.159c0.18,0.104,0.67,0.271,1.466,0.501c0.797,0.154,1.673,0.296,2.624,0.426
							c0.952,0.18,1.852,0.295,2.701,0.348c0.232,0.021,0.447,0.032,0.643,0.032c0.519,0,0.91-0.075,1.172-0.226
							c0.206-0.104,0.387-0.359,0.54-0.771c0.231-0.463,0.386-0.953,0.463-1.467c0.128-0.514,0.22-1.029,0.271-1.543
							c0.025-0.464,0.037-0.863,0.037-1.195c0.129,0,0.232,0,0.31,0c0.05-0.053,0.103-0.077,0.153-0.077
							c0.85,0.515,1.609,0.798,2.277,0.849c0.203,0.023,0.398,0.035,0.586,0.035c0.433,0,0.83-0.063,1.189-0.188
							c0.463-0.104,0.848-0.31,1.158-0.617c0.333-0.207,0.539-0.375,0.617-0.502c0.103-0.129,0.386-0.192,0.849-0.192v2.778
							l8.836-0.926v-2.701c0.052-0.08,0.347-0.183,0.888-0.312c0.592-0.151,1.208-0.319,1.853-0.501
							c0.67-0.204,1.26-0.373,1.773-0.501c0.592-0.179,0.914-0.271,0.965-0.271l7.486,0.08c-0.486,0.205-0.912,0.308-1.273,0.308
							c-0.154-0.181-0.553-0.271-1.195-0.271h-0.117c-0.309,0-0.463,0.152-0.463,0.463c-0.205,0.385-0.18,0.875,0.078,1.465
							c0.256,0.643,0.424,1.031,0.5,1.158l0.193,0.192h1.541l0.193-0.579l-0.27-0.271c-0.076-0.076-0.143-0.114-0.193-0.114
							c0-0.183,0.064-0.31,0.193-0.388c3.91,0,6.92,0,9.029,0s3.654,0,4.631,0c1.029,0,1.633,0,1.814,0c0.154,0,0.27,0,0.348,0
							c0.127,0,0.191-0.152,0.191-0.463v-0.114c0-0.077,0.023-0.116,0.078-0.116c0.051-0.052,0.074-0.155,0.074-0.311
							c0-0.437-0.115-0.744-0.346-0.924l-0.424-0.426v-2.624h-3.01v-0.694h40.982l0.115-0.193c0.311-0.463,0.465-0.824,0.465-1.08
							c0-0.155-0.039-0.323-0.117-0.503c-0.051-0.129-0.102-0.257-0.154-0.386c-0.076-0.154-0.141-0.295-0.195-0.426v-0.154H45.39
							V9.85c0.416-0.047,0.804-0.07,1.165-0.07c0.241,0,0.47,0.011,0.687,0.031c0.541,0.026,0.902,0.09,1.082,0.193V9.85
							c0.334,0.309,2.842,0.463,7.525,0.463h0.23l-0.076-4.399l-0.154-0.115c-0.151-0.108-0.473-0.162-0.964-0.162
							c-0.097,0-0.2,0.002-0.31,0.006c-0.721,0.053-1.506,0.116-2.354,0.193c-0.824,0.104-1.66,0.193-2.508,0.27
							c-0.801,0.078-1.416,0.168-1.854,0.271h-5.596V6.184c0.129,0,0.22-0.051,0.271-0.153c0.076-0.026,0.115-0.064,0.115-0.116
							L42.265,4.834L42.265,4.834z M21.575,22.749c-0.229,0-0.445-0.028-0.65-0.086c-0.772-0.077-1.338-0.488-1.698-1.235
							c-0.309-0.772-0.257-1.492,0.155-2.16c0.18-0.361,0.373-0.619,0.579-0.772c0.181-0.155,0.489-0.349,0.927-0.579
							c0.372-0.164,0.813-0.246,1.324-0.246c0.371,0,0.778,0.043,1.222,0.13c0.823,0.154,1.3,0.478,1.427,0.966
							c0.182,0.282,0.232,0.682,0.155,1.196c-0.078,0.437-0.207,0.824-0.386,1.158c-0.516,0.589-0.99,1.002-1.428,1.233
							C22.606,22.617,22.064,22.749,21.575,22.749L21.575,22.749z M29.685,19.461c-0.592,0-0.887-0.32-0.887-0.965
							c0-0.541,0.295-0.813,0.887-0.813h2.161c0.592,0,0.89,0.271,0.888,0.813c0,0.645-0.297,0.965-0.888,0.965H29.685
							L29.685,19.461z"/>
					</g>
				</g>
			</g>
		</g>
	</g>
</g>
<rect fill="none" width="109.5" height="32"/>
<g>
	<g>
		<g>
			<path fill="#7A4621" d="M67,25.91l6.298,5.25l13.854,0.42c4.759-0.561,8.678-1.82,11.756-3.779
				c4.059-5.623,7.589-8.435,10.592-8.435c-2.039-0.813-4.372-0.48-7,1c-2.628,1.479-5.295-0.021-8-4.5
				c-2.52-1.68-7.457-0.462-11.5,1.5l4.152-6.5l-12.152,4L67,25.91z"/>
		</g>
	</g>
</g>
<g>
	
		<linearGradient id="SVGID_6_" gradientUnits="userSpaceOnUse" x1="-828.2163" y1="39.4297" x2="-827.2171" y2="40.4305" gradientTransform="matrix(34.4275 0 0 14.2748 28585.1133 -547.9551)">
		<stop  offset="0.6071" style="stop-color:#FFF6DA"/>
		<stop  offset="1" style="stop-color:#D6BB7E"/>
	</linearGradient>
	<path fill="url(#SVGID_6_)" d="M80.805,14.366H77.24l-6.881,14.274h3.199l1.059-2.421h2.863l-0.188,2.421h3.061L80.805,14.366z
		 M78.221,17.961L77.7,24.023h-2.156L78.221,17.961z M94.186,16.636c0-1.482-1.387-2.27-3.994-2.27c-3.229,0-4.709,1.03-5.479,3.681
		l-1.931,6.651c-0.24,0.78-0.287,1.167-0.287,1.528c0,1.567,1.455,2.414,4.155,2.414c1.486,0,2.654-0.257,3.472-0.781
		c0.881-0.584,1.435-1.482,1.86-3.051l0.459-1.619h-3.059l-0.506,1.758c-0.357,1.279-0.811,1.66-1.893,1.66
		c-0.832,0-1.291-0.303-1.291-0.859c0-0.171,0.055-0.459,0.146-0.82l2.055-7.072c0.313-1.049,0.817-1.468,1.821-1.468
		c0.833,0,1.285,0.302,1.285,0.839c0,0.229-0.069,0.519-0.211,1.068l-0.381,1.378h3.059l0.476-1.666
		C94.115,17.436,94.186,16.996,94.186,16.636z M104.786,14.366h-8.181l-3.893,14.274h8.414l0.6-2.191h-5.309l1.189-4.467h4.787
		l0.601-2.158h-4.787l0.91-3.301h5.067L104.786,14.366z"/>
</g>
</svg>
