<?xml version="1.0" encoding="utf-8"?>
<!-- Generator: Adobe Illustrator 16.0.0, SVG Export Plug-In . SVG Version: 6.00 Build 0)  -->
<!DOCTYPE svg PUBLIC "-//W3C//DTD SVG 1.1//EN" "http://www.w3.org/Graphics/SVG/1.1/DTD/svg11.dtd">
<svg version="1.1" id="图层_1" xmlns="http://www.w3.org/2000/svg" xmlns:xlink="http://www.w3.org/1999/xlink" x="0px" y="0px"
	 width="95.563px" height="32px" viewBox="0 0 95.563 32" enable-background="new 0 0 95.563 32" xml:space="preserve">
<rect x="0" fill="none" width="95.563" height="32"/>
<g>
	<rect x="-0.064" fill="none" width="95.562" height="32"/>
	<g>
		<g>
			<linearGradient id="SVGID_1_" gradientUnits="userSpaceOnUse" x1="87.4143" y1="-25.3823" x2="12.6983" y2="49.3428">
				<stop  offset="0.2512" style="stop-color:#FF0000"/>
				<stop  offset="0.5665" style="stop-color:#FFD400"/>
				<stop  offset="0.8571" style="stop-color:#000000"/>
			</linearGradient>
			<path fill="url(#SVGID_1_)" d="M95.367,15.59c-2.08,1.83-5.561,3.09-10.449,3.78c-2.061,0.28-4.701,0.46-7.92,0.54h-14
				c-0.08-0.54-0.221-0.811-0.432-0.811c-0.199,0-0.35,0.271-0.42,0.811h-0.08c-0.08-0.54-0.219-0.811-0.42-0.811
				c-0.209,0-0.35,0.271-0.43,0.811h-0.389c-0.201-0.54-0.5-0.811-0.881-0.811c-0.391,0-0.68,0.271-0.891,0.811h-0.389
				c-0.07-0.54-0.211-0.811-0.42-0.811c-0.211,0-0.352,0.271-0.432,0.811h-0.068c-0.08-0.54-0.221-0.811-0.432-0.811
				c-0.199,0-0.34,0.271-0.42,0.811h-0.389c-0.15-0.54-0.451-0.811-0.881-0.811c-0.391,0-0.689,0.271-0.891,0.811h-0.35
				c-0.129-0.54-0.279-0.811-0.459-0.811c-0.211,0-0.35,0.271-0.43,0.811h-0.041c-0.07-0.54-0.221-0.811-0.42-0.811
				c-0.18,0-0.34,0.271-0.459,0.811h-0.391c-0.15-0.54-0.439-0.811-0.85-0.811c-0.441,0-0.73,0.271-0.891,0.811h-0.381
				c-0.08-0.54-0.219-0.811-0.43-0.811c-0.199,0-0.35,0.271-0.42,0.811h-0.08c-0.08-0.54-0.219-0.811-0.43-0.811
				c-0.199,0-0.34,0.271-0.42,0.811h-3.28c-0.39-0.23-0.69-0.32-0.931-0.271c-0.479,0.21-0.83,0.351-1.039,0.431l-0.69,0.069v0.54
				l-2.05,5.91l-2.311-0.66c0.381-0.54,0.621-1.18,0.69-1.93c0.16-1.44-0.53-2.58-2.04-3.43c-2.859-0.36-5.07-0.33-6.64,0.109
				c-0.64,0.21-4.13,0.271-10.46,0.19c-6.61-0.07-10.2-0.34-10.77-0.811c-0.41-0.1-0.74-0.09-1,0.04l-0.31,0.23
				c-1.62,1.439-2.61,2.16-2.97,2.16c-1.65,0-2.74-0.721-3.28-2.16c-0.39-0.97-0.62-2.19-0.69-3.62h-0.08c-0.33,0-0.5-0.3-0.5-0.89
				s0.17-0.891,0.5-0.891h0.08c0.07-1.59,0.38-2.67,0.92-3.24c0.65-0.69,1.17-1.13,1.59-1.31c0.33-0.15,0.84-0.22,1.54-0.19
				c0.54,0.02,1.04,0.14,1.5,0.34c0.06,0.03,0.48,0.29,1.28,0.77c0.15,0.03,2.06-0.15,5.71-0.54c3.13-0.32,5.76-0.46,7.87-0.42
				c0.4,0.01,0.79,0.02,1.16,0.04c7.72,0.36,12.19,0.51,13.43,0.46c1.06-0.21,1.94-0.51,2.65-0.88c0.54-0.27,0.979-0.6,1.319-0.97
				c0.75-0.82,1.33-2.26,1.74-4.32l2.12,0.46l0.12,1.27l-0.971,2.82l-0.109,1.93l0.689,0.31c0.49,0.18,0.811,0.27,0.971,0.27
				c0.26,0,0.641-0.17,1.16-0.5h3.08c0.109,0.54,0.25,0.81,0.43,0.81c0.201,0,0.34-0.27,0.42-0.81h0.08
				c0.1,0.54,0.24,0.81,0.42,0.81c0.16,0,0.301-0.27,0.43-0.81h0.381c0.24,0.54,0.529,0.81,0.891,0.81c0.279,0,0.51-0.18,0.709-0.53
				l0.1-0.19c0.012-0.03,0.031-0.06,0.041-0.09h0.43c0.01,0.03,0.01,0.06,0.02,0.09c0.021,0.13,0.051,0.23,0.08,0.32v0.01
				c0.09,0.26,0.201,0.39,0.32,0.39c0.09,0,0.17-0.09,0.25-0.27c0.051-0.11,0.1-0.26,0.15-0.45c0.01-0.03,0.01-0.06,0.02-0.09h0.041
				c0.01,0.03,0.02,0.06,0.02,0.09c0.07,0.25,0.129,0.43,0.199,0.55c0.07,0.11,0.141,0.17,0.211,0.17c0.059,0,0.119-0.03,0.17-0.08
				c0.109-0.11,0.189-0.32,0.24-0.64c0-0.03,0.01-0.06,0.01-0.09h0.43c0.01,0.03,0.029,0.06,0.039,0.09
				c0.221,0.48,0.49,0.72,0.811,0.72c0.34,0,0.621-0.24,0.85-0.72c0.01-0.03,0.031-0.06,0.041-0.09h0.379
				c0.012,0.03,0.021,0.06,0.021,0.09c0.129,0.48,0.26,0.72,0.41,0.72c0.199,0,0.34-0.27,0.42-0.81h0.08
				c0.1,0.54,0.238,0.81,0.42,0.81c0.209,0,0.35-0.27,0.43-0.81h0.42c0.18,0.54,0.459,0.81,0.85,0.81c0.16,0,0.289-0.04,0.41-0.13
				c0.189-0.13,0.33-0.35,0.439-0.68h0.43c0.102,0.54,0.24,0.81,0.42,0.81c0.211,0,0.352-0.27,0.432-0.81h0.068
				c0.111,0.54,0.25,0.81,0.432,0.81c0.148,0,0.289-0.27,0.42-0.81h13.699l7.68,0.73C89.858,12.79,93.518,13.99,95.367,15.59z"/>
		</g>
	</g>
	<g>
		
			<linearGradient id="SVGID_2_" gradientUnits="userSpaceOnUse" x1="-844.177" y1="43.4521" x2="-845.0114" y2="43.4521" gradientTransform="matrix(34.5122 0 0 13.1527 29184.0742 -556.8325)">
			<stop  offset="0" style="stop-color:#00FFFF"/>
			<stop  offset="0.6495" style="stop-color:#FFE3A0"/>
		</linearGradient>
		<path fill="url(#SVGID_2_)" d="M38.168,9.96c-0.71,0.37-1.591,0.67-2.65,0.88c-1.239,0.05-5.71-0.1-13.43-0.46
			c-0.37-0.02-0.76-0.03-1.16-0.04c-0.02,0-0.03,0.01-0.05,0.01c10.99,0.91,20.02,3.93,27.1,9.05
			C45.077,15.83,41.817,12.69,38.168,9.96z"/>
	</g>
	<g>
		<linearGradient id="SVGID_3_" gradientUnits="userSpaceOnUse" x1="52.759" y1="11.48" x2="52.0471" y2="11.48">
			<stop  offset="0" style="stop-color:#00FFFF"/>
			<stop  offset="0.8219" style="stop-color:#FFE3A0"/>
		</linearGradient>
		<path fill="url(#SVGID_3_)" d="M52.147,11.32h0.49c0.021,0.13,0.051,0.23,0.08,0.32c-0.219-0.05-0.439-0.09-0.67-0.13
			L52.147,11.32z"/>
		<linearGradient id="SVGID_4_" gradientUnits="userSpaceOnUse" x1="53.7444" y1="11.5952" x2="53.2878" y2="11.5952">
			<stop  offset="0" style="stop-color:#00FFFF"/>
			<stop  offset="0.8219" style="stop-color:#FFE3A0"/>
		</linearGradient>
		<path fill="url(#SVGID_4_)" d="M53.717,11.87c-0.139-0.05-0.289-0.08-0.43-0.1c0.051-0.11,0.1-0.26,0.15-0.45h0.08
			C53.588,11.57,53.647,11.75,53.717,11.87z"/>
		<linearGradient id="SVGID_5_" gradientUnits="userSpaceOnUse" x1="66.1516" y1="13.7603" x2="54.101" y2="13.7603">
			<stop  offset="0" style="stop-color:#00FFFF"/>
			<stop  offset="0.8219" style="stop-color:#FFE3A0"/>
		</linearGradient>
		<path fill="url(#SVGID_5_)" d="M65.438,16.29c-3.439-1.92-7.221-3.37-11.34-4.33c0.109-0.11,0.189-0.32,0.24-0.64h2.58
			c0.129,0.48,0.26,0.72,0.41,0.72c0.199,0,0.34-0.27,0.42-0.81h0.08c0.1,0.54,0.238,0.81,0.42,0.81c0.209,0,0.35-0.27,0.43-0.81
			h0.42c0.18,0.54,0.459,0.81,0.85,0.81c0.16,0,0.289-0.04,0.41-0.13C62.127,13.25,63.828,14.72,65.438,16.29z"/>
	</g>
	<g>
		<g>
			<g>
				<linearGradient id="SVGID_6_" gradientUnits="userSpaceOnUse" x1="33.2849" y1="39.7686" x2="59.3387" y2="-5.358">
					<stop  offset="0" style="stop-color:#BB925B"/>
					<stop  offset="0.3429" style="stop-color:#FFF6DA"/>
					<stop  offset="0.6571" style="stop-color:#FFF1B1"/>
					<stop  offset="1" style="stop-color:#B38B54"/>
				</linearGradient>
				<path fill="url(#SVGID_6_)" d="M41.987,5.858l0.434,0.094l0.031,0.327l-0.9,2.616c-0.029,0.086-0.047,0.177-0.053,0.269
					l-0.109,1.93c-0.023,0.414,0.21,0.799,0.588,0.969l0.69,0.31c0.021,0.01,0.043,0.019,0.064,0.026
					c0.649,0.239,1.019,0.332,1.315,0.332c0.408,0,0.85-0.151,1.441-0.5h2.074c0.259,0.538,0.646,0.81,1.154,0.81
					c0.148,0,0.307-0.022,0.463-0.084c0.139,0.056,0.291,0.084,0.457,0.084c0.322,0,0.572-0.114,0.764-0.284
					c0.328,0.219,0.66,0.284,0.938,0.284c0.264,0,0.594-0.062,0.924-0.293c0.295,0.254,0.609,0.293,0.775,0.293
					c0.119,0,0.277-0.019,0.447-0.09c0.172,0.073,0.33,0.09,0.443,0.09c0.283,0,0.559-0.102,0.783-0.287
					c0.346,0.236,0.686,0.287,0.916,0.287c0.275,0,0.609-0.063,0.939-0.283c0.191,0.168,0.438,0.283,0.762,0.283
					c0.146,0,0.305-0.022,0.463-0.084c0.139,0.056,0.291,0.084,0.457,0.084c0.248,0,0.529-0.063,0.777-0.268
					c0.359,0.229,0.719,0.268,0.922,0.268c0.357,0,0.68-0.1,0.934-0.275c0.211,0.183,0.467,0.275,0.766,0.275
					c0.15,0,0.313-0.023,0.473-0.086c0.141,0.058,0.293,0.086,0.459,0.086c0.596,0,0.936-0.396,1.137-0.81h12.936l7.605,0.723
					c4.344,0.66,7.5,1.554,9.414,2.664c-1.994,1.283-4.975,2.21-8.887,2.763c-2.012,0.273-4.641,0.453-7.785,0.531h-13.25
					c-0.303-0.65-0.783-0.811-1.182-0.811c-0.131,0-0.293,0.02-0.457,0.084c-0.156-0.062-0.314-0.084-0.463-0.084
					c-0.248,0-0.529,0.063-0.777,0.268c-0.363-0.229-0.721-0.268-0.922-0.268c-0.24,0-0.584,0.049-0.928,0.268
					c-0.266-0.217-0.557-0.268-0.771-0.268c-0.148,0-0.309,0.021-0.467,0.084c-0.156-0.063-0.316-0.084-0.465-0.084
					c-0.24,0-0.512,0.06-0.754,0.254c-0.273-0.166-0.59-0.254-0.936-0.254c-0.205,0-0.566,0.04-0.936,0.273
					c-0.195-0.164-0.443-0.273-0.764-0.273c-0.145,0-0.297,0.021-0.449,0.077c-0.16-0.06-0.314-0.077-0.441-0.077
					c-0.293,0-0.547,0.09-0.76,0.268c-0.273-0.175-0.592-0.268-0.939-0.268c-0.213,0-0.578,0.038-0.941,0.253
					c-0.244-0.193-0.518-0.253-0.76-0.253c-0.133,0-0.293,0.02-0.461,0.085c-0.158-0.063-0.318-0.085-0.469-0.085
					c-0.395,0-0.871,0.16-1.171,0.811h-2.273c-0.381-0.193-0.721-0.283-1.051-0.283c-0.114,0-0.229,0.011-0.338,0.033
					c-0.067,0.015-0.134,0.035-0.197,0.063c-0.377,0.165-0.67,0.285-0.874,0.365l-0.556,0.056c-0.51,0.051-0.899,0.481-0.899,0.995
					v0.372l-1.685,4.856l-0.243-0.069c0.129-0.378,0.214-0.775,0.251-1.188c0.143-1.28-0.183-3.084-2.543-4.411
					c-0.113-0.064-0.236-0.105-0.365-0.121c-1.345-0.17-2.568-0.256-3.635-0.256c-1.341,0-2.453,0.129-3.434,0.404
					c-0.151,0.042-0.995,0.178-5.476,0.178c-1.331,0-2.886-0.012-4.67-0.034c-8.295-0.089-9.894-0.487-10.196-0.622
					c-0.104-0.074-0.223-0.129-0.349-0.16c-0.264-0.064-0.505-0.096-0.737-0.096c-0.345,0-0.663,0.072-0.946,0.213
					c-0.053,0.026-0.103,0.057-0.15,0.092l-0.31,0.23c-0.023,0.018-0.045,0.036-0.067,0.055c-1.641,1.458-2.238,1.819-2.417,1.906
					c-1.162-0.027-1.853-0.496-2.241-1.531c-0.346-0.859-0.554-1.969-0.619-3.297c-0.019-0.367-0.234-0.682-0.542-0.84
					c0.31-0.159,0.526-0.476,0.542-0.846c0.077-1.747,0.438-2.377,0.649-2.599c0.74-0.785,1.104-1.012,1.275-1.085
					c0.055-0.025,0.278-0.107,0.821-0.107c0.084,0,0.172,0.002,0.269,0.006c0.379,0.014,0.747,0.094,1.094,0.238
					c0.06,0.035,0.17,0.103,0.333,0.201l0.876,0.528c0.098,0.059,0.205,0.1,0.317,0.123c0.047,0.009,0.132,0.023,0.257,0.023
					c0.17,0,0.621,0,5.752-0.549c2.737-0.279,5.107-0.421,7.046-0.421c0.241,0,0.476,0.002,0.723,0.007
					c0.381,0.01,0.753,0.019,1.113,0.039c6.688,0.312,11.015,0.47,12.858,0.47c0.273,0,0.493-0.003,0.658-0.01
					c0.053-0.002,0.104-0.008,0.154-0.018c1.123-0.223,2.105-0.55,2.903-0.966c0.635-0.317,1.177-0.717,1.61-1.189
					C40.973,8.847,41.553,7.596,41.987,5.858 M41.227,4.67c-0.41,2.06-0.99,3.5-1.74,4.32c-0.34,0.37-0.779,0.7-1.319,0.97
					c-0.71,0.37-1.591,0.67-2.65,0.88c-0.155,0.006-0.361,0.009-0.618,0.009c-1.792,0-6.059-0.154-12.812-0.469
					c-0.37-0.02-0.76-0.03-1.16-0.04c-0.234-0.004-0.475-0.007-0.723-0.007c-1.978,0-4.365,0.143-7.147,0.427
					c-3.388,0.362-5.276,0.543-5.65,0.543c-0.029,0-0.049-0.001-0.06-0.003c-0.8-0.48-1.22-0.74-1.28-0.77
					c-0.46-0.2-0.96-0.32-1.5-0.34c-0.106-0.004-0.208-0.007-0.306-0.007c-0.545,0-0.955,0.07-1.234,0.197
					c-0.42,0.18-0.94,0.62-1.59,1.31c-0.54,0.57-0.85,1.65-0.92,3.24h-0.08c-0.33,0-0.5,0.301-0.5,0.891s0.17,0.89,0.5,0.89h0.08
					c0.07,1.43,0.3,2.65,0.69,3.62c0.54,1.439,1.63,2.16,3.28,2.16c0.36,0,1.35-0.721,2.97-2.16l0.31-0.23
					c0.145-0.072,0.31-0.107,0.499-0.107c0.152,0,0.318,0.023,0.501,0.067c0.57,0.471,4.16,0.74,10.77,0.811
					c1.787,0.022,3.347,0.034,4.681,0.034c3.392,0,5.32-0.074,5.779-0.225c0.854-0.238,1.896-0.357,3.13-0.357
					c1.035,0,2.205,0.084,3.51,0.248c1.51,0.85,2.2,1.989,2.04,3.43c-0.069,0.75-0.31,1.39-0.69,1.93l2.311,0.66l2.05-5.91v-0.54
					l0.69-0.069c0.209-0.08,0.56-0.221,1.039-0.431c0.043-0.009,0.088-0.013,0.135-0.013c0.216,0,0.475,0.094,0.796,0.283h3.28
					c0.08-0.54,0.221-0.811,0.42-0.811c0.211,0,0.35,0.271,0.43,0.811h0.08c0.07-0.54,0.221-0.811,0.42-0.811
					c0.211,0,0.35,0.271,0.43,0.811h0.381c0.16-0.54,0.449-0.811,0.891-0.811c0.41,0,0.699,0.271,0.85,0.811h0.391
					c0.119-0.54,0.279-0.811,0.459-0.811c0.199,0,0.35,0.271,0.42,0.811h0.041c0.08-0.54,0.219-0.811,0.43-0.811
					c0.18,0,0.33,0.271,0.459,0.811h0.35c0.201-0.54,0.5-0.811,0.891-0.811c0.43,0,0.73,0.271,0.881,0.811h0.389
					c0.08-0.54,0.221-0.811,0.42-0.811c0.211,0,0.352,0.271,0.432,0.811h0.068c0.08-0.54,0.221-0.811,0.432-0.811
					c0.209,0,0.35,0.271,0.42,0.811h0.389c0.211-0.54,0.5-0.811,0.891-0.811c0.381,0,0.68,0.271,0.881,0.811h0.389
					c0.08-0.54,0.221-0.811,0.43-0.811c0.201,0,0.34,0.271,0.42,0.811h0.08c0.07-0.54,0.221-0.811,0.42-0.811
					c0.211,0,0.352,0.271,0.432,0.811h14c3.219-0.08,5.859-0.26,7.92-0.54c4.889-0.69,8.369-1.95,10.449-3.78
					c-1.85-1.6-5.51-2.8-10.99-3.63l-7.68-0.73H62.998c-0.131,0.54-0.271,0.81-0.42,0.81c-0.182,0-0.32-0.27-0.432-0.81h-0.068
					c-0.08,0.54-0.221,0.81-0.432,0.81c-0.18,0-0.318-0.27-0.42-0.81h-0.43c-0.109,0.33-0.25,0.55-0.439,0.68
					c-0.121,0.09-0.25,0.13-0.41,0.13c-0.391,0-0.67-0.27-0.85-0.81h-0.42c-0.08,0.54-0.221,0.81-0.43,0.81
					c-0.182,0-0.32-0.27-0.42-0.81h-0.08c-0.08,0.54-0.221,0.81-0.42,0.81c-0.15,0-0.281-0.24-0.41-0.72
					c0-0.03-0.01-0.06-0.021-0.09h-0.379c-0.01,0.03-0.031,0.06-0.041,0.09c-0.229,0.48-0.51,0.72-0.85,0.72
					c-0.32,0-0.59-0.24-0.811-0.72c-0.01-0.03-0.029-0.06-0.039-0.09h-0.43c0,0.03-0.01,0.06-0.01,0.09
					c-0.051,0.32-0.131,0.53-0.24,0.64c-0.051,0.05-0.111,0.08-0.17,0.08c-0.07,0-0.141-0.06-0.211-0.17
					c-0.07-0.12-0.129-0.3-0.199-0.55c0-0.03-0.01-0.06-0.02-0.09h-0.041c-0.01,0.03-0.01,0.06-0.02,0.09
					c-0.051,0.19-0.1,0.34-0.15,0.45c-0.08,0.18-0.16,0.27-0.25,0.27c-0.119,0-0.23-0.13-0.32-0.39v-0.01
					c-0.029-0.09-0.059-0.19-0.08-0.32c-0.01-0.03-0.01-0.06-0.02-0.09h-0.43c-0.01,0.03-0.029,0.06-0.041,0.09l-0.1,0.19
					c-0.199,0.35-0.43,0.53-0.709,0.53c-0.361,0-0.65-0.27-0.891-0.81h-0.381c-0.129,0.54-0.27,0.81-0.43,0.81
					c-0.18,0-0.32-0.27-0.42-0.81h-0.08c-0.08,0.54-0.219,0.81-0.42,0.81c-0.18,0-0.32-0.27-0.43-0.81h-3.08
					c-0.52,0.33-0.9,0.5-1.16,0.5c-0.16,0-0.48-0.09-0.971-0.27l-0.689-0.31l0.109-1.93l0.971-2.82l-0.12-1.27L41.227,4.67
					L41.227,4.67z"/>
			</g>
		</g>
	</g>
</g>
<g>
	<g>
		<path fill="#7A4621" d="M57.167,27.047l5.631,4.694l12.388,0.375c4.255-0.501,7.758-1.626,10.511-3.378
			c3.63-5.028,6.785-7.543,9.472-7.543c-1.823-0.728-3.909-0.43-6.259,0.895c-2.351,1.324-4.734-0.018-7.153-4.023
			c-2.252-1.502-6.667-0.412-10.282,1.343l3.713-5.813L64.32,17.172L57.167,27.047z"/>
	</g>
</g>
<linearGradient id="SVGID_7_" gradientUnits="userSpaceOnUse" x1="-499.1951" y1="63.416" x2="-498.1959" y2="64.4167" gradientTransform="matrix(30.7822 0 0 12.7634 15427.7051 -792.1914)">
	<stop  offset="0.6071" style="stop-color:#FFF6DA"/>
	<stop  offset="1" style="stop-color:#D6BB7E"/>
</linearGradient>
<path fill="url(#SVGID_7_)" d="M69.51,16.727h-3.188L60.17,29.488h2.859l0.946-2.164h2.563l-0.167,2.164h2.734L69.51,16.727z
	 M67.199,19.939l-0.468,5.42h-1.928L67.199,19.939z M81.474,18.755c0-1.325-1.239-2.028-3.57-2.028c-2.889,0-4.211,0.92-4.898,3.289
	l-1.728,5.947c-0.216,0.699-0.258,1.045-0.258,1.367c0,1.402,1.302,2.158,3.717,2.158c1.329,0,2.373-0.229,3.104-0.697
	c0.786-0.521,1.28-1.326,1.663-2.729l0.41-1.448h-2.735l-0.452,1.571c-0.319,1.145-0.724,1.483-1.689,1.483
	c-0.745,0-1.155-0.271-1.155-0.769c0-0.151,0.048-0.41,0.132-0.732l1.837-6.323c0.278-0.938,0.731-1.313,1.629-1.313
	c0.745,0,1.148,0.271,1.148,0.752c0,0.205-0.063,0.463-0.188,0.955l-0.341,1.231h2.735l0.425-1.489
	C81.41,19.471,81.474,19.078,81.474,18.755z M90.952,16.727h-7.314l-3.479,12.763h7.522l0.535-1.959h-4.746l1.064-3.994h4.279
	l0.536-1.931h-4.28l0.814-2.949h4.53L90.952,16.727z"/>
</svg>
