<?xml version="1.0" encoding="utf-8"?>
<!-- Generator: Adobe Illustrator 16.0.0, SVG Export Plug-In . SVG Version: 6.00 Build 0)  -->
<!DOCTYPE svg PUBLIC "-//W3C//DTD SVG 1.1//EN" "http://www.w3.org/Graphics/SVG/1.1/DTD/svg11.dtd">
<svg version="1.1" id="图层_1" xmlns="http://www.w3.org/2000/svg" xmlns:xlink="http://www.w3.org/1999/xlink" x="0px" y="0px"
	 width="79.833px" height="32px" viewBox="0 0 79.833 32" enable-background="new 0 0 79.833 32" xml:space="preserve">
<rect fill="none" width="79.833" height="32"/>
<g>
	<g>
		
			<linearGradient id="SVGID_1_" gradientUnits="userSpaceOnUse" x1="-433.8086" y1="276.0059" x2="-434.8078" y2="275.0067" gradientTransform="matrix(78.881 0 0 -13.6864 34294.8281 3786.5957)">
			<stop  offset="0" style="stop-color:#BB925B"/>
			<stop  offset="0.3429" style="stop-color:#FFF6DA"/>
			<stop  offset="0.6571" style="stop-color:#FFF1B1"/>
			<stop  offset="1" style="stop-color:#B38B54"/>
		</linearGradient>
		<path fill="url(#SVGID_1_)" d="M16.598,10.484c1.581-0.238,2.805-0.404,3.67-0.504c0.71-0.08,1.956-0.148,3.729-0.205
			c1.815-0.041,3.166-0.041,4.053,0c0.751,0.019,1.569,0.107,2.456,0.265c0.437,0.08,0.8,0.149,1.096,0.206
			c1.047,0.575,2.169,0.89,3.374,0.948c0.253,0.021,0.609,0.021,1.063,0c0.296,0,0.462,0.011,0.504,0.032
			c0.08,0.099,0.426,0.058,1.034-0.122c0.515-0.139,1.035-0.313,1.57-0.529c0.473-0.181,0.798-0.279,0.974-0.296
			c0.219-0.041,0.493,0,0.831,0.115c0.315,0.101,0.58,0.267,0.799,0.504c0.08,0.101,0.168,0.219,0.265,0.354
			c0.062,0.08,0.142,0.198,0.239,0.354c0.138,0.199,0.492,0.251,1.064,0.15c0.295-0.04,0.571-0.1,0.825-0.178
			c0.298,0,0.622-0.167,0.976-0.501c0.159-0.159,0.299-0.316,0.42-0.477c0.035,0,0.291,0.059,0.767,0.181
			c0.612,0.115,1.241,0.234,1.894,0.353c0.217,0.04,0.445,0.08,0.68,0.117c1.854,0.314,3.711,0.513,5.564,0.593
			c2.094,0.098,4.358-0.048,6.807-0.443c1.24-0.197,2.267-0.403,3.074-0.619l0.237,0.147c0.278,0.156,0.681,0.402,1.212,0.736
			c1.244,0.732,2.495,1.253,3.76,1.57c0.67,0.16,1.459,0.274,2.364,0.354c0.376,0.021,0.781,0.038,1.216,0.058
			c1.023,0.041,2.387-0.077,4.084-0.354c0.846-0.118,1.594-0.245,2.247-0.385c-0.216,0.279-0.474,0.613-0.771,1.007
			c-0.633,0.768-1.193,1.419-1.688,1.951c-0.531,0.593-1.39,1.164-2.572,1.719c-0.869,0.412-1.707,0.728-2.518,0.944
			c-0.098,0.021-0.195,0.041-0.296,0.06c-0.667,0.177-1.753,0.229-3.255,0.147c-1.223-0.057-2.365-0.166-3.432-0.325
			c-0.709-0.118-3.434-0.455-8.164-1.005l-6.896-0.828l-0.113,0.382l-1.867,0.147c-0.099-0.114-0.196-0.227-0.295-0.321
			c-0.08-0.08-0.229-0.147-0.445-0.208c-0.197-0.042-0.362-0.042-0.502,0c-0.1,0.038-0.217,0.098-0.354,0.177l-0.148,0.119
			l0.029-0.179c0.041-0.159-0.107-0.277-0.443-0.354c-0.1-0.021-0.266,0.028-0.502,0.148c-0.239,0.136-0.365,0.236-0.383,0.296
			c-0.022,0.058-0.031,0.167-0.031,0.321c-0.041,0.182-0.135,0.367-0.295,0.563c-0.16,0.219-0.426,0.416-0.803,0.594
			c-0.354,0.158-0.66,0.245-0.916,0.267c-0.217,0-0.404-0.038-0.562-0.118c-0.039-0.018-0.08-0.042-0.119-0.059l-0.028-0.03
			l0.119,0.267c0.059,0.157,0.096,0.334,0.116,0.532c0.021,0.217,0.013,0.481-0.03,0.799c-0.02,0.296-0.138,0.622-0.354,0.979
			c-0.159,0.273-0.328,0.5-0.504,0.681c-0.098,0.116-0.25,0.224-0.441,0.321c-0.199,0.104-0.326,0.123-0.387,0.061
			c-0.059-0.061-0.077-0.119-0.059-0.177c0.021-0.022,0.108-0.138,0.267-0.353c0.136-0.16,0.256-0.486,0.353-0.978
			c0.1-0.476,0.139-0.869,0.122-1.187c-0.022-0.274-0.146-0.631-0.39-1.065c-0.098-0.177-0.184-0.336-0.264-0.474
			c-0.08-0.115-0.137-0.176-0.178-0.176c-0.079,0-0.287,0-0.623,0c-0.433-0.021-0.777-0.041-1.033-0.062
			c-0.238,0-1.295-0.119-3.167-0.354c-1.991-0.258-3.137-0.404-3.433-0.443c-0.493-0.038-2.446,0.049-5.857,0.265
			c-3.394,0.24-5.454,0.414-6.185,0.533c-0.63,0.121-1.795,0.425-3.489,0.918c-1.263,0.376-2.376,0.719-3.345,1.037
			c-0.613,0.176-1.655,0.59-3.138,1.239c-1.437,0.633-2.335,1.058-2.691,1.272c-0.353,0.217-0.611,0.385-0.768,0.503
			c-0.178,0.139-0.296,0.266-0.355,0.387c-0.06,0.139-0.1,0.236-0.12,0.295c-0.02,0.039-0.059,0.106-0.116,0.207
			c-0.06,0.078-0.198,0.099-0.414,0.061c-0.198-0.042-0.405-0.109-0.622-0.207c-0.196-0.08-0.623-0.501-1.271-1.271
			c-0.258-0.317-0.476-0.604-0.65-0.859c-0.2-0.256-0.287-0.4-0.267-0.444c0-0.099,0.12-0.235,0.354-0.413
			c0.217-0.139,0.728-0.472,1.537-1.006c0.613-0.415,1.53-0.896,2.754-1.447c0.253-0.101,0.68-0.275,1.271-0.535
			c0.416-0.196,0.68-0.324,0.797-0.384c0.456-0.218,0.981-0.446,1.567-0.682c0.91-0.336,2.032-0.7,3.376-1.096
			c1.301-0.354,3.095-0.7,5.386-1.032c0.787-0.1,1.547-0.187,2.279-0.267c0.609-0.08,0.994-0.121,1.153-0.121
			c0.414-0.02,1.174-0.036,2.274-0.058c1.383-0.02,2.24-0.02,2.575,0c0.889,0.058,1.895,0.136,3.021,0.237
			c1.615,0.138,2.474,0.226,2.572,0.265c0.06,0.023,0.307,0.14,0.739,0.355c0.434,0.197,0.799,0.347,1.095,0.446
			c0.296,0.078,0.562,0.146,0.797,0.204c0.12,0.021,0.209,0.03,0.269,0.03L36.481,14.8c-0.097-0.157-0.176-0.364-0.233-0.621
			c-0.039-0.157-0.06-0.314-0.06-0.475c0-0.078-0.011-0.128-0.029-0.146h-0.062c-0.53,0-1.042-0.038-1.537-0.118
			c-0.297-0.042-1.232-0.098-2.811-0.178c-1.616-0.1-2.674-0.148-3.165-0.148c-0.512,0-1.144,0.018-1.896,0.06
			c-0.728,0.038-1.766,0.106-3.105,0.205c-1.244,0.08-2.804,0.296-4.675,0.654c-1.735,0.313-3.275,0.641-4.616,0.977
			c-1.063,0.276-2.534,0.798-4.41,1.567c-1.005,0.432-2.107,0.915-3.312,1.448c-0.475,0.216-1.106,0.582-1.896,1.095
			c-0.293,0.198-0.709,0.481-1.242,0.858c-0.097,0.059-0.227,0.049-0.384-0.031c-0.059-0.02-0.106-0.049-0.146-0.088l-0.061-0.028
			c-0.16-0.062-0.443-0.326-0.858-0.799c-0.473-0.535-0.776-0.871-0.918-1.007c-0.217-0.237-0.362-0.412-0.441-0.533
			c-0.08-0.139-0.08-0.247,0-0.324c0.058-0.038,0.185-0.188,0.384-0.441c0.236-0.301,0.415-0.517,0.532-0.652
			c0.157-0.159,0.74-0.542,1.746-1.155c0.493-0.293,0.976-0.571,1.449-0.828c0.632-0.374,2.041-0.927,4.23-1.655
			c1.716-0.593,3.078-1.025,4.083-1.303C13.604,10.978,14.786,10.762,16.598,10.484z M26.126,10.517
			c-0.195,0-0.364,0.066-0.501,0.205c-0.142,0.136-0.208,0.305-0.208,0.504c0,0.194,0.066,0.364,0.208,0.501
			c0.137,0.139,0.306,0.208,0.501,0.208c0.197,0,0.365-0.069,0.504-0.208c0.139-0.137,0.206-0.307,0.206-0.501
			c0-0.199-0.067-0.368-0.206-0.504C26.492,10.583,26.324,10.517,26.126,10.517z M28.376,10.93
			c-0.139,0.116-0.206,0.274-0.206,0.472c0,0.196,0.067,0.363,0.206,0.504c0.138,0.139,0.306,0.205,0.504,0.205
			c0.195,0,0.362-0.066,0.499-0.205c0.141-0.141,0.21-0.308,0.21-0.504c0-0.197-0.069-0.355-0.21-0.472
			c-0.137-0.14-0.304-0.208-0.499-0.208C28.682,10.722,28.514,10.791,28.376,10.93z M66.249,13.562l-14.561-0.355l0.563,0.296
			l14.41,0.384L66.249,13.562z M32.042,15.189c0-0.176-0.066-0.336-0.205-0.474c-0.139-0.118-0.296-0.179-0.475-0.179
			c-0.194,0-0.362,0.061-0.501,0.179c-0.141,0.138-0.208,0.298-0.208,0.474c0,0.181,0.067,0.335,0.208,0.474
			c0.139,0.139,0.307,0.206,0.501,0.206c0.179,0,0.336-0.067,0.475-0.206C31.976,15.524,32.042,15.37,32.042,15.189z M33.32,14.981
			c-0.142,0.118-0.208,0.278-0.208,0.474c0,0.199,0.066,0.356,0.208,0.478c0.136,0.136,0.304,0.201,0.501,0.201
			c0.179,0,0.333-0.065,0.475-0.201c0.138-0.121,0.205-0.278,0.205-0.478c0-0.195-0.067-0.355-0.205-0.474
			c-0.142-0.137-0.296-0.207-0.475-0.207C33.624,14.774,33.456,14.844,33.32,14.981z M10.506,17.883
			c-0.159,0.137-0.237,0.297-0.237,0.473c0,0.196,0.078,0.361,0.237,0.502c0.136,0.14,0.307,0.207,0.504,0.207
			c0.197,0,0.364-0.067,0.501-0.207c0.159-0.141,0.235-0.306,0.235-0.502c0-0.176-0.076-0.336-0.235-0.473
			c-0.137-0.141-0.304-0.211-0.501-0.211C10.813,17.672,10.642,17.743,10.506,17.883z M3.583,17.672
			c0.175,0,0.332-0.068,0.472-0.206c0.138-0.138,0.207-0.295,0.207-0.471c0-0.199-0.069-0.354-0.207-0.478
			c-0.14-0.137-0.297-0.206-0.472-0.206c-0.198,0-0.366,0.069-0.505,0.206c-0.118,0.121-0.176,0.277-0.176,0.478
			c0,0.176,0.058,0.333,0.176,0.471C3.217,17.604,3.385,17.672,3.583,17.672z M5.624,15.988c0,0.196,0.071,0.364,0.208,0.505
			c0.136,0.136,0.296,0.206,0.473,0.206c0.198,0,0.366-0.07,0.503-0.206c0.136-0.141,0.208-0.309,0.208-0.505
			c0-0.177-0.072-0.334-0.208-0.473c-0.137-0.138-0.305-0.207-0.503-0.207c-0.177,0-0.337,0.069-0.473,0.207
			C5.695,15.654,5.624,15.811,5.624,15.988z M8.287,18.828c-0.14,0.137-0.207,0.296-0.207,0.474c0,0.196,0.067,0.367,0.207,0.503
			c0.138,0.141,0.306,0.209,0.503,0.209c0.197,0,0.365-0.068,0.504-0.209c0.138-0.136,0.205-0.307,0.205-0.503
			c0-0.178-0.067-0.337-0.205-0.474c-0.139-0.137-0.307-0.207-0.504-0.207C8.593,18.621,8.424,18.691,8.287,18.828z"/>
	</g>
</g>
<g>
	<g>
		<path fill="#7A4621" d="M41.583,26.807l5.631,4.694l12.389,0.376c4.254-0.501,7.758-1.627,10.511-3.379
			c3.628-5.028,6.785-7.542,9.47-7.542c-1.822-0.728-3.908-0.429-6.258,0.894c-2.35,1.324-4.734-0.018-7.153-4.023
			c-2.253-1.501-6.667-0.412-10.282,1.342l3.713-5.812l-10.866,3.577L41.583,26.807z"/>
	</g>
</g>
<linearGradient id="SVGID_2_" gradientUnits="userSpaceOnUse" x1="-427.1821" y1="274.4355" x2="-426.1822" y2="273.434" gradientTransform="matrix(30.7822 0 0 -12.7634 13195.3887 3519.6765)">
	<stop  offset="0.6071" style="stop-color:#FFF6DA"/>
	<stop  offset="1" style="stop-color:#D6BB7E"/>
</linearGradient>
<path fill="url(#SVGID_2_)" d="M53.926,16.485h-3.188l-6.152,12.764h2.86l0.946-2.165h2.561l-0.166,2.165h2.734L53.926,16.485z
	 M51.616,19.699l-0.467,5.42h-1.928L51.616,19.699z M65.889,18.515c0-1.325-1.238-2.029-3.57-2.029c-2.888,0-4.21,0.921-4.898,3.29
	l-1.727,5.948c-0.216,0.698-0.258,1.044-0.258,1.366c0,1.402,1.302,2.159,3.717,2.159c1.329,0,2.373-0.229,3.104-0.698
	c0.787-0.521,1.281-1.326,1.664-2.728l0.41-1.448h-2.735l-0.452,1.571c-0.32,1.144-0.724,1.484-1.691,1.484
	c-0.744,0-1.154-0.271-1.154-0.769c0-0.152,0.048-0.41,0.131-0.733l1.838-6.323c0.278-0.938,0.73-1.313,1.629-1.313
	c0.744,0,1.148,0.27,1.148,0.751c0,0.205-0.063,0.463-0.188,0.956l-0.341,1.231h2.734l0.426-1.49
	C65.827,19.23,65.889,18.838,65.889,18.515z M75.369,16.485h-7.315l-3.479,12.764h7.523l0.535-1.96h-4.746l1.064-3.994h4.28
	l0.536-1.93h-4.28l0.813-2.95h4.531L75.369,16.485z"/>
</svg>
