<?xml version="1.0" encoding="utf-8"?>
<!-- Generator: Adobe Illustrator 16.0.0, SVG Export Plug-In . SVG Version: 6.00 Build 0)  -->
<!DOCTYPE svg PUBLIC "-//W3C//DTD SVG 1.1//EN" "http://www.w3.org/Graphics/SVG/1.1/DTD/svg11.dtd">
<svg version="1.1" id="Layer_1" xmlns="http://www.w3.org/2000/svg" xmlns:xlink="http://www.w3.org/1999/xlink" x="0px" y="0px"
	 width="92.059px" height="32px" viewBox="0 0 92.059 32" enable-background="new 0 0 92.059 32" xml:space="preserve">
<g id="guides">
</g>
<linearGradient id="SVGID_1_" gradientUnits="userSpaceOnUse" x1="2.127" y1="14.8951" x2="83.592" y2="14.8951">
	<stop  offset="0" style="stop-color:#FFD93F"/>
	<stop  offset="1" style="stop-color:#FF310E"/>
</linearGradient>
<path fill="url(#SVGID_1_)" d="M72.9,12.4C61.2,10.2,44.6,11,44.6,11s-0.1,0.4-0.4,0.4S43.9,11,43.9,11l-0.4,0c0,0-0.1,0.4-0.4,0.4
	s-0.4-0.3-0.4-0.3l-0.5,0c0,0-0.1,0.4-0.4,0.4s-0.3-0.4-0.3-0.4l-0.5,0c0,0,0,0.4-0.4,0.4c-0.3,0-0.4-0.3-0.4-0.3l-0.5,0
	c0,0-0.1,0.3-0.4,0.3s-0.3-0.4-0.3-0.4l-0.5,0c0,0-0.1,0.4-0.4,0.4s-0.4-0.4-0.4-0.4l-4.7,0.1L33.8,9V8.8l-0.9-0.7l-0.2,0.1l-0.8,2
	l-0.8,0.7l-0.9,0.4l-1.7,0.1l-0.2,0.3l-0.4,0.2v-0.2l-0.2-0.3L6.6,11.9L6,12.5V13H5.7l-0.4,0.4v0.4H4.9l-0.4,0.4v0.4H4.1L3.7,15v0.4
	l-0.3,0L3,15.7v0.4H2.6l-0.5,0.6l1.1,2.8l5.1-0.8l16.3-1.8c0,0,1.8,0,1.9-0.1c0.1,0,0.2-0.4,0.4-0.4s0.3,0.3,0.3,0.3
	s1.6,0.3,1.9,1.8c0.3,1.2-0.3,2.6-0.3,2.6l0.9,0.6c0,0,0.4-0.6,0.7-1.3c0.4-0.7,0.5-1.3,0.5-1.3s1.6-1.7,3.9-0.9
	c2.6,0.9,2.5,3.6,2.5,3.6s4.1-2,11.3-2.2s10.4,0.8,19.5,0.8c9.1,0,15.3-4.9,15.3-4.9S81.5,13.9,72.9,12.4z M4.5,18.4
	c-0.5,0-0.9-0.4-0.9-0.9s0.4-0.9,0.9-0.9c0.5,0,0.9,0.4,0.9,0.9S5,18.4,4.5,18.4z"/>
</svg>
