<?xml version="1.0" encoding="utf-8"?>
<!-- Generator: Adobe Illustrator 16.0.0, SVG Export Plug-In . SVG Version: 6.00 Build 0)  -->
<!DOCTYPE svg PUBLIC "-//W3C//DTD SVG 1.1//EN" "http://www.w3.org/Graphics/SVG/1.1/DTD/svg11.dtd">
<svg version="1.1" id="图层_1" xmlns="http://www.w3.org/2000/svg" xmlns:xlink="http://www.w3.org/1999/xlink" x="0px" y="0px"
	 width="73.625px" height="32px" viewBox="0 0 73.625 32" enable-background="new 0 0 73.625 32" xml:space="preserve">
<linearGradient id="SVGID_1_" gradientUnits="userSpaceOnUse" x1="-869.1309" y1="20.6396" x2="-869.1351" y2="20.6439" gradientTransform="matrix(87.667 0 0 25.553 76207.0313 -557.8789)">
	<stop  offset="0" style="stop-color:#BB925B"/>
	<stop  offset="0.3429" style="stop-color:#FFF6DA"/>
	<stop  offset="0.6571" style="stop-color:#FFF1B1"/>
	<stop  offset="1" style="stop-color:#B38B54"/>
</linearGradient>
<path fill="url(#SVGID_1_)" d="M12.624-30.306c0-0.065,0.009-0.123,0.027-0.175c-0.005,0.021-0.01,0.041-0.015,0.063
	C12.629-30.381,12.624-30.344,12.624-30.306z"/>
<rect fill="none" width="73.625" height="32"/>
<g>
	<g>
		<g>
			<g>
				
					<linearGradient id="SVGID_2_" gradientUnits="userSpaceOnUse" x1="-529.2002" y1="27.9277" x2="-530.3083" y2="28.8349" gradientTransform="matrix(73.182 0 0 29.045 38805.7734 -807.2344)">
					<stop  offset="0.2512" style="stop-color:#FF0000"/>
					<stop  offset="0.4975" style="stop-color:#FFD400"/>
					<stop  offset="0.546" style="stop-color:#C2A100"/>
					<stop  offset="0.6596" style="stop-color:#382E00"/>
					<stop  offset="0.7094" style="stop-color:#000000"/>
				</linearGradient>
				<path fill="url(#SVGID_2_)" d="M73.003,6.8l-0.08-0.13l-0.17-0.08h-1.801l-0.26-0.09l-0.29-0.04h-1.22V6.5h-0.25l-0.25,0.08
					h-1.3c-0.23,0-0.48-0.49-0.761-1.47c-0.25-0.95-0.39-1.44-0.42-1.47c-0.029-0.03-0.06-0.07-0.08-0.12h-0.05V3.48
					c0-0.03-0.01-0.06-0.04-0.09c0-0.06-0.01-0.1-0.04-0.12l-0.04-0.09c-0.06-0.03-0.1-0.06-0.13-0.08
					c-0.02-0.03-0.05-0.06-0.08-0.09c-0.09-0.03-0.16-0.05-0.21-0.08h-31.13V2.85c-0.06,0-0.1-0.02-0.13-0.05V2.72
					c-0.11-0.03-0.22-0.06-0.33-0.08l-0.05-0.05c-0.02-0.05-0.07-0.09-0.12-0.12c-0.03-0.03-0.07-0.06-0.13-0.09
					c-0.03-0.02-0.05-0.05-0.08-0.08c-0.03-0.05-0.06-0.08-0.08-0.08V2.09c-0.03-0.03-0.07-0.04-0.13-0.04V1.96
					c-0.06-0.02-0.1-0.04-0.13-0.04V1.84c-0.17-0.03-0.33-0.04-0.5-0.04V1.71c-0.17,0-0.34-0.01-0.51-0.04v0.34
					c-0.05,0.03-0.09,0.06-0.12,0.08c-0.06,0.03-0.11,0.07-0.17,0.13v0.17c-0.09,0.02-0.15,0.04-0.21,0.04v0.5h-5.42v0.05h-0.17
					c-0.02,0-0.05,0.01-0.08,0.04l-0.04,0.04c0,0.03-0.02,0.06-0.05,0.08h-0.16c-0.03,0.06-0.07,0.1-0.13,0.13
					c-0.03,0.03-0.04,0.06-0.04,0.08v4.29h-0.25c-0.39,0.02-0.79,0.03-1.18,0.03c-0.31,0.01-0.61,0.01-0.92,0.01h-20l-0.08-0.04
					L3.143,7.6l-0.12-0.05h-2.19V7.47l-0.08-0.08L0.623,7.3h-0.08v0.04l-0.17,0.05h-0.09v13.82l1.35-0.13l0.38-1.26l0.04-0.04V19.7
					l0.04-0.05l0.76-8.23l0.04-0.09l-0.04-0.04h-0.04v-0.5l0.04-0.04l0.04-0.09V9.91h19.42v0.13c0.03,0.06,0.06,0.08,0.09,0.08
					c0.03,0.06,0.05,0.1,0.08,0.13c0.06,0.03,0.13,0.06,0.21,0.08c0.03-0.02,0.06-0.04,0.09-0.04c0.02,0.03,0.05,0.06,0.08,0.09
					c0.08,0.02,0.17,0.05,0.25,0.08h0.76v3.31c0.02,0.03,0.05,0.06,0.08,0.09c0,0.02,0.01,0.07,0.04,0.12
					c0.03,0,0.06,0.02,0.09,0.05v0.12c0.03,0.06,0.05,0.08,0.08,0.08c0.03,0.03,0.06,0.08,0.08,0.13c0.06,0.03,0.12,0.06,0.17,0.09
					c0.09,0.02,0.16,0.04,0.21,0.04h0.3c0.02-0.03,0.05-0.04,0.08-0.04c0.03-0.06,0.06-0.1,0.09-0.13c1.59,0,3.19-0.01,4.78-0.04
					l6.89-0.05c0,0.03,0.03,0.08,0.09,0.13c0.05,0.03,0.1,0.06,0.12,0.09v0.08c0,0.05,0.02,0.1,0.04,0.13
					c0.06,0.02,0.1,0.05,0.13,0.08c0.03,0.03,0.04,0.07,0.04,0.13l0.05,0.04c0.02,0.05,0.05,0.09,0.08,0.12
					c0.03,0.03,0.06,0.06,0.08,0.09c0,0.03,0.02,0.07,0.04,0.12v0.05c0.03,0.05,0.06,0.09,0.09,0.12l0.08,0.09
					c0,0.02,0.02,0.07,0.05,0.12c0.021,0.03,0.05,0.06,0.08,0.09c0,0.02,0.01,0.05,0.04,0.08V16c0,0.03,0.021,0.06,0.04,0.08v0.63
					c-0.02,0.03-0.04,0.07-0.04,0.13v0.4c-0.03,0.02-0.04,0.05-0.04,0.08c-0.03,0.029-0.06,0.06-0.08,0.09
					c-0.03,0.05-0.05,0.09-0.05,0.12v0.25c-0.021,0.06-0.05,0.1-0.08,0.13c-0.03,0.02-0.06,0.05-0.09,0.08v0.17
					c-0.021,0.05-0.04,0.1-0.04,0.12c-0.021,0.06-0.05,0.09-0.08,0.09c-0.03,0.02-0.06,0.07-0.08,0.12
					c-0.03,0.029-0.05,0.06-0.05,0.09c0,0.02-0.01,0.05-0.04,0.08c-0.03,0.06-0.05,0.08-0.08,0.08v0.21c0,0.03-0.02,0.06-0.04,0.09
					c-0.03,0.05-0.05,0.09-0.05,0.12v0.09c-0.02,0.02-0.05,0.06-0.08,0.12c-0.03,0-0.05,0.02-0.08,0.05
					c-0.03,0.05-0.04,0.09-0.04,0.12c-0.03,0.03-0.06,0.06-0.09,0.09v0.16c0,0.06-0.01,0.1-0.04,0.13c0,0.021-0.02,0.05-0.04,0.08
					v0.13c-0.03,0.03-0.06,0.061-0.09,0.08c-0.05,0.03-0.09,0.06-0.12,0.08c-0.03,0.07-0.05,0.11-0.05,0.13l-0.04,0.09v0.08
					c0,0.03-0.01,0.061-0.04,0.08c0,0.061-0.01,0.1-0.04,0.13c0,0.03-0.02,0.061-0.04,0.08v0.17c-0.03,0.061-0.04,0.101-0.04,0.13
					c-0.03,0.021-0.05,0.051-0.05,0.08v0.13l-0.04,0.04c-0.03,0.061-0.06,0.101-0.08,0.12c0,0.03-0.02,0.061-0.05,0.09
					c-0.02,0.03-0.06,0.07-0.12,0.12c0,0.03-0.02,0.061-0.04,0.09v0.591c-0.03,0.02-0.05,0.05-0.05,0.079v0.171
					c-0.02,0.05-0.04,0.1-0.04,0.119c-0.02,0.03-0.05,0.061-0.08,0.091c-0.03,0.02-0.04,0.05-0.04,0.08v0.59
					c-0.03,0.029-0.07,0.069-0.13,0.12c0,0.029-0.01,0.06-0.04,0.09v2.01c0,0.03-0.02,0.06-0.04,0.09v2.01
					c0,0.061,0.01,0.101,0.04,0.13v1.131c0.03,0.06,0.06,0.1,0.08,0.13c0.03,0.02,0.06,0.05,0.09,0.08v0.29
					c0.02,0.029,0.05,0.06,0.08,0.09c0.03,0.029,0.07,0.069,0.13,0.12c0.05,0.029,0.12,0.05,0.21,0.05h0.88
					c0.03-0.03,0.05-0.05,0.08-0.05h0.84v0.859h7.31v-0.84h0.171c0.029-0.03,0.06-0.06,0.079-0.09c0.03-0.05,0.061-0.09,0.091-0.12
					l0.04-0.09v-5.45c0-0.05,0.01-0.1,0.04-0.13c0-0.02,0.02-0.05,0.04-0.08v-0.59c0.029-0.03,0.06-0.05,0.09-0.08
					c0.029-0.06,0.04-0.1,0.04-0.13c0-0.021,0.02-0.05,0.04-0.08v-0.59c0.029-0.021,0.06-0.05,0.09-0.08c0-0.03,0.01-0.07,0.04-0.13
					l0.04-0.08v-0.54c0-0.03,0.02-0.07,0.04-0.13v-0.08c0.029-0.03,0.05-0.061,0.05-0.09c0.02-0.051,0.05-0.08,0.08-0.08
					c0.029-0.061,0.04-0.101,0.04-0.12v-0.17c0.029-0.061,0.06-0.101,0.09-0.13c0-0.03,0.01-0.061,0.04-0.09
					c0-0.021,0.01-0.061,0.04-0.12c0.03,0,0.04-0.03,0.04-0.08c0-0.03,0.01-0.061,0.04-0.09v-0.29c0.029-0.03,0.06-0.061,0.09-0.08
					l0.04-0.09c0.03-0.021,0.04-0.07,0.04-0.12V19.56c0.03-0.02,0.06-0.05,0.09-0.079c0-0.03,0.01-0.07,0.04-0.131l0.04-0.04
					c0-0.06,0.01-0.1,0.04-0.119V18.97c0.03-0.02,0.06-0.04,0.09-0.04c0.02-0.05,0.04-0.09,0.04-0.12c0.02-0.06,0.05-0.09,0.08-0.09
					c0-0.02,0.01-0.06,0.04-0.12c0-0.029,0.02-0.06,0.05-0.08v-0.09c0.021-0.05,0.05-0.08,0.08-0.08c0-0.029,0.01-0.069,0.04-0.13
					c0.03-0.029,0.04-0.06,0.04-0.08c0.06,0.021,0.1,0.051,0.13,0.08c0.03,0.061,0.07,0.101,0.12,0.13c0.06,0,0.09,0.03,0.09,0.08
					c0.11,0.03,0.19,0.061,0.25,0.09c0.03,0.021,0.07,0.051,0.13,0.08c0.03,0.051,0.04,0.101,0.04,0.12c0.05,0,0.101,0.03,0.13,0.09
					c0.05,0.021,0.08,0.07,0.08,0.12h0.21c0.17,0.03,0.32,0.061,0.46,0.09c0.11,0.021,0.2,0.051,0.25,0.08h1.771
					c0.05-0.02,0.12-0.05,0.21-0.08c0.25-0.029,0.49-0.06,0.71-0.09h0.25c0.09-0.02,0.189-0.04,0.3-0.04
					c0.05-0.02,0.11-0.05,0.16-0.08c0.06-0.06,0.12-0.09,0.17-0.09c0.03-0.02,0.09-0.06,0.17-0.12c0.09-0.029,0.18-0.06,0.29-0.08
					c0.09-0.029,0.17-0.06,0.26-0.09c0.061-0.05,0.101-0.08,0.12-0.08c0.03-0.029,0.061-0.069,0.09-0.13
					c0.05-0.029,0.11-0.06,0.17-0.08c0.08,0,0.16-0.02,0.25-0.04c0.021-0.029,0.051-0.06,0.08-0.09l0.08-0.08
					c0.03-0.029,0.061-0.069,0.09-0.13c0.021-0.02,0.051-0.05,0.08-0.08c0.03-0.029,0.07-0.06,0.13-0.09
					c0.051-0.05,0.091-0.09,0.12-0.12c0.03,0,0.061-0.029,0.09-0.09c0.08-0.02,0.15-0.07,0.21-0.12c0.021,0,0.051-0.01,0.08-0.04
					c0.03-0.06,0.061-0.1,0.08-0.13c0.03-0.03,0.07-0.05,0.13-0.08c0.03-0.03,0.04-0.069,0.04-0.13c0.03-0.03,0.061-0.04,0.091-0.04
					c0.05-0.06,0.09-0.1,0.119-0.13c0.08-0.05,0.15-0.08,0.21-0.08l0.04-0.09c0.03-0.021,0.061-0.05,0.091-0.08
					c0.05-0.02,0.1-0.05,0.119-0.08c0.03-0.06,0.07-0.1,0.131-0.13l0.04-0.08c0-0.03,0.029-0.06,0.079-0.09
					c0.03-0.02,0.07-0.05,0.131-0.08c0.029-0.06,0.06-0.1,0.079-0.13c0.03,0,0.07-0.02,0.131-0.08V15.7c0.029,0,0.04-0.01,0.04-0.04
					c0.06-0.05,0.109-0.09,0.17-0.12c0.029-0.03,0.08-0.06,0.17-0.09c0.029-0.03,0.04-0.07,0.04-0.12
					c0.08-0.03,0.149-0.04,0.21-0.04h0.71c0.09,0.02,0.17,0.04,0.26,0.04c0.02,0,0.05,0.01,0.08,0.04v0.04
					c0.06,0.06,0.1,0.09,0.12,0.09c0.06,0.02,0.14,0.05,0.26,0.08l0.08,0.04c0.03,0.03,0.06,0.06,0.08,0.09
					c0.03,0,0.04,0.01,0.04,0.04v0.33c0.03,0,0.06,0.02,0.09,0.05c0.03,0.05,0.07,0.09,0.12,0.12v0.29c0.03,0.06,0.05,0.1,0.05,0.13
					c0.05,0,0.1,0.021,0.12,0.04c0.03,0.03,0.04,0.07,0.04,0.13v1.82c0.03,0.05,0.06,0.08,0.09,0.08c0,0.029,0.01,0.069,0.04,0.13
					v1.8c0.03,0.061,0.06,0.1,0.08,0.13v1.51c0,0.051,0.02,0.101,0.05,0.12c0.021,0.03,0.05,0.061,0.08,0.09
					c0.03,0.021,0.04,0.051,0.04,0.08v1.341c0.03,0.029,0.04,0.069,0.04,0.13c0,0.02,0.02,0.05,0.05,0.08
					c0,0.029,0.01,0.06,0.04,0.09v0.75c0,0.06,0.01,0.1,0.04,0.13c0.03,0.02,0.061,0.05,0.08,0.08v0.51
					c0.03,0.021,0.05,0.05,0.05,0.08c0.03,0.02,0.04,0.06,0.04,0.08v0.38c0.03,0.05,0.04,0.1,0.04,0.13
					c0.03,0.021,0.061,0.05,0.08,0.08c0,0.03,0.021,0.07,0.05,0.09c0.03,0.03,0.061,0.05,0.08,0.05
					c0.03,0.051,0.061,0.091,0.09,0.12v0.46c0.021,0.03,0.04,0.07,0.04,0.13v0.16c0.03,0.061,0.04,0.11,0.04,0.13
					c0.03,0,0.061,0.03,0.09,0.091c0.021,0.02,0.04,0.06,0.04,0.119v0.171c0.021,0.029,0.051,0.06,0.08,0.079
					c0.03,0.03,0.061,0.07,0.08,0.131v0.17l0.05,0.08v0.13c0.021,0.029,0.04,0.05,0.04,0.08c0.021,0.029,0.051,0.06,0.08,0.09
					c0.03,0.05,0.061,0.09,0.09,0.12v0.21c0.021,0,0.051,0.02,0.08,0.04c0,0.06,0.021,0.1,0.04,0.13v0.08
					c0,0.029,0.021,0.069,0.04,0.13v0.05c0.03,0.05,0.061,0.09,0.09,0.12c0.061,0.03,0.101,0.05,0.12,0.09
					c0.03,0.021,0.091,0.06,0.17,0.12c0.061,0.03,0.131,0.04,0.21,0.04h0.04c0.03,0,0.07,0.02,0.131,0.04
					c0.06,0.03,0.13,0.06,0.21,0.09c0.06-0.03,0.13-0.06,0.21-0.09c0.029-0.021,0.06-0.04,0.08-0.04
					c0.279-0.021,0.56-0.05,0.85-0.08c0.05-0.03,0.11-0.04,0.16-0.04l0.09-0.09c0.47,0,0.95-0.01,1.42-0.04
					c0.09-0.03,0.16-0.061,0.21-0.08c0.17-0.03,0.35-0.04,0.55-0.04c0.061,0,0.11-0.02,0.17-0.05h0.08
					c0.141-0.03,0.28-0.04,0.42-0.04c0.061-0.03,0.11-0.04,0.17-0.04l0.08-0.08c0.091,0,0.16-0.021,0.21-0.05
					c0.091,0,0.141-0.01,0.17-0.04c0.03-0.03,0.07-0.061,0.131-0.08c0.06-0.03,0.119-0.04,0.21-0.04c0.05-0.03,0.14-0.061,0.25-0.09
					c0-0.03,0.01-0.04,0.04-0.04c0-0.03,0.01-0.061,0.04-0.08c0.029,0,0.04-0.03,0.04-0.09c0.029-0.03,0.06-0.07,0.09-0.12v-0.04
					c0-0.061-0.021-0.101-0.04-0.13v-0.04c0.02-0.03,0.04-0.07,0.04-0.13V26.01c0-0.029-0.021-0.05-0.04-0.08
					c-0.03-0.029-0.061-0.069-0.09-0.13l-0.04-0.04v-0.42c-0.03-0.03-0.04-0.06-0.04-0.08c-0.03-0.06-0.04-0.1-0.04-0.13v-0.17
					c-0.03-0.02-0.04-0.05-0.04-0.08c-0.03-0.06-0.061-0.1-0.09-0.13c0-0.03-0.011-0.05-0.04-0.08v-0.29
					c-0.03-0.03-0.051-0.06-0.08-0.09c-0.03-0.021-0.051-0.07-0.051-0.12v-0.25c-0.02-0.03-0.05-0.08-0.079-0.13v-0.3
					c-0.03,0-0.051-0.021-0.08-0.08c-0.03-0.03-0.051-0.061-0.051-0.08c0-0.03-0.01-0.061-0.04-0.09v-0.21
					c0-0.021-0.01-0.05-0.039-0.08c0-0.05-0.021-0.08-0.04-0.08c-0.03-0.061-0.061-0.101-0.091-0.13v-0.29
					c-0.02-0.03-0.05-0.061-0.08-0.08v-0.38c-0.029-0.03-0.039-0.07-0.039-0.13c-0.03-0.03-0.061-0.061-0.091-0.08v-0.09
					c0-0.051-0.01-0.08-0.04-0.08c0-0.03-0.01-0.07-0.04-0.13c0-0.021-0.01-0.051-0.04-0.08c0-0.03-0.02-0.061-0.039-0.08
					c0-0.061-0.021-0.09-0.051-0.09v-0.12c-0.029-0.03-0.04-0.061-0.04-0.091v-0.21c-0.029-0.02-0.04-0.05-0.04-0.079
					c-0.029-0.03-0.06-0.07-0.08-0.131v-0.08c0-0.029-0.02-0.06-0.05-0.079c0-0.03-0.01-0.061-0.04-0.091
					c0-0.02-0.01-0.069-0.04-0.119c0-0.03-0.01-0.061-0.04-0.091v-0.17c-0.029-0.02-0.04-0.06-0.04-0.12
					c-0.029-0.029-0.05-0.06-0.05-0.08v-0.21c-0.02-0.029-0.04-0.06-0.04-0.09c-0.02-0.02-0.04-0.069-0.04-0.13
					c-0.029,0-0.04-0.01-0.04-0.04v-0.96c-0.029-0.03-0.04-0.07-0.04-0.13c-0.029-0.02-0.06-0.05-0.09-0.08
					c0-0.03-0.01-0.05-0.04-0.08v-1.09c-0.029-0.03-0.06-0.06-0.08-0.09v-2.64c0.021-0.03,0.04-0.07,0.04-0.12
					c0.03-0.03,0.04-0.06,0.04-0.09v-0.21c0.03,0,0.04-0.02,0.04-0.08c0.03-0.03,0.05-0.06,0.05-0.09h0.29
					c0.051-0.02,0.12-0.04,0.21-0.04c0.45-0.02,0.9-0.05,1.341-0.08c1.04,1.96,1.59,2.95,1.64,2.98c1.12,0,1.68-0.01,1.68-0.04
					v-1.18c-0.029-0.05-0.04-0.09-0.04-0.12v-0.21l-1.64-3.7h3.7v-0.04l0.2,0.04h0.17l0.17-0.17l0.04-0.13l0.04-0.08l0.05-4.03
					L73.003,6.8z M36.212,28.81c-0.03-0.02-0.05-0.06-0.05-0.119h0.05V28.81z M47.763,16.04c-0.061-0.06-0.101-0.1-0.13-0.13
					c0.199-0.45,0.479-0.85,0.84-1.21c0.09-0.09,0.189-0.17,0.3-0.26c0.08,0.93,0.47,1.74,1.17,2.44c0.14,0.14,0.28,0.271,0.42,0.38
					C49.383,17.17,48.522,16.77,47.763,16.04z M53.683,16.04c-0.73,0.729-1.58,1.13-2.561,1.22c-0.67-0.78-1.01-1.69-1.01-2.73
					c0-0.31,0.03-0.59,0.08-0.84c0.4-0.14,0.82-0.21,1.26-0.21c1.15,0,2.13,0.4,2.95,1.22c0.05,0.05,0.11,0.11,0.16,0.17
					C54.343,15.29,54.053,15.68,53.683,16.04z"/>
			</g>
		</g>
	</g>
</g>
<g>
	
		<linearGradient id="SVGID_3_" gradientUnits="userSpaceOnUse" x1="-854.8867" y1="43.0762" x2="-855.5665" y2="43.0762" gradientTransform="matrix(34.5122 0 0 13.1527 29551.668 -556.8325)">
		<stop  offset="0" style="stop-color:#00FFFF"/>
		<stop  offset="0.6495" style="stop-color:#FFE3A0"/>
	</linearGradient>
	<path fill="url(#SVGID_3_)" d="M30.862,2.93h-4.57v0.05h-0.17c-0.02,0-0.05,0.01-0.08,0.04l-0.04,0.04c0,0.03-0.02,0.06-0.05,0.08
		h-0.16c-0.03,0.06-0.07,0.1-0.13,0.13c-0.03,0.03-0.04,0.06-0.04,0.08v4.29h-0.25c-0.39,0.02-0.79,0.03-1.18,0.03
		c8.72,1.45,16.08,4.41,22.08,8.86C41.942,11.05,36.813,6.52,30.862,2.93z"/>
</g>
<g>
	<linearGradient id="SVGID_4_" gradientUnits="userSpaceOnUse" x1="60.1865" y1="7.4653" x2="39.868" y2="7.4653">
		<stop  offset="0" style="stop-color:#00FFFF"/>
		<stop  offset="0.8219" style="stop-color:#FFE3A0"/>
	</linearGradient>
	<path fill="url(#SVGID_4_)" d="M58.982,12c-5.68-4.33-12.05-7.36-19.12-9.07h11.32C53.923,5.69,56.513,8.71,58.982,12z"/>
</g>
<g>
	<g>
		<g>
			<g>
				<g>
					<linearGradient id="SVGID_5_" gradientUnits="userSpaceOnUse" x1="24.1641" y1="34.998" x2="48.6838" y2="-7.4715">
						<stop  offset="0" style="stop-color:#BB925B"/>
						<stop  offset="0.3429" style="stop-color:#FFF6DA"/>
						<stop  offset="0.6571" style="stop-color:#FFF1B1"/>
						<stop  offset="1" style="stop-color:#B38B54"/>
					</linearGradient>
					<path fill="url(#SVGID_5_)" d="M32.77,2.921c0.015,0.015,0.03,0.03,0.046,0.043c0.008,0.009,0.016,0.017,0.024,0.026
						c0.04,0.044,0.121,0.137,0.251,0.223c0.014,0.009,0.028,0.018,0.042,0.026c0.016,0.019,0.032,0.036,0.049,0.053l0.05,0.05
						c0.119,0.12,0.266,0.208,0.427,0.255c0.183,0.203,0.448,0.331,0.743,0.331h30.767c0.041,0.084,0.095,0.163,0.158,0.233
						c0.047,0.158,0.143,0.498,0.333,1.222c0.25,0.874,0.628,2.195,1.723,2.195h1.3c0.104,0,0.206-0.016,0.305-0.048L69.089,7.5
						h0.094c0.094,0,0.185-0.014,0.271-0.04h0.881l0.124,0.017l0.167,0.058c0.105,0.036,0.216,0.055,0.327,0.055h1.438
						c0.023,0.018,0.048,0.035,0.073,0.051l-0.032,2.609h-3.328c-0.338,0-0.653,0.171-0.838,0.455s-0.214,0.641-0.076,0.951
						l1.554,3.506c0,0.101,0.014,0.202,0.04,0.3v0.036c-0.037,0-0.075,0-0.115,0.001c-0.211-0.377-0.603-1.094-1.32-2.448
						c-0.175-0.328-0.516-0.531-0.884-0.531c-0.022,0-0.045,0.001-0.067,0.002c-0.433,0.029-0.875,0.059-1.273,0.078
						c-0.119,0-0.237,0.013-0.353,0.04h-0.147c-0.396,0-0.737,0.229-0.899,0.563c-0.023,0.038-0.045,0.078-0.063,0.119
						c-0.081,0.145-0.127,0.312-0.127,0.489v0.02c-0.002,0.008-0.005,0.017-0.007,0.025c-0.048,0.119-0.073,0.246-0.073,0.375v2.64
						c0,0.136,0.027,0.269,0.08,0.392v0.788c0,0.172,0.044,0.34,0.127,0.487c0.013,0.029,0.027,0.058,0.043,0.086V19.3
						c0,0.18,0.043,0.348,0.12,0.493c0.003,0.113,0.024,0.255,0.092,0.405c0.008,0.136,0.044,0.269,0.104,0.39
						c0.002,0.007,0.005,0.014,0.008,0.021c0.018,0.065,0.042,0.129,0.072,0.189c0.002,0.007,0.005,0.013,0.008,0.02
						c0.008,0.035,0.017,0.069,0.028,0.104c0.02,0.058,0.043,0.113,0.069,0.167c0.005,0.084,0.02,0.167,0.044,0.247
						c0.016,0.158,0.069,0.306,0.15,0.433c0.006,0.011,0.011,0.021,0.017,0.031c0.009,0.02,0.018,0.04,0.028,0.06
						c0.006,0.022,0.012,0.045,0.02,0.066c0.018,0.124,0.059,0.241,0.119,0.349v0.097c0,0.137,0.028,0.271,0.08,0.393
						c0.005,0.193,0.064,0.38,0.172,0.538c0.008,0.129,0.04,0.255,0.096,0.37c0.019,0.054,0.043,0.11,0.074,0.168
						c0.006,0.117,0.032,0.233,0.078,0.341c0.002,0.191,0.048,0.374,0.132,0.535c0.007,0.155,0.051,0.307,0.126,0.442
						c0.015,0.033,0.031,0.065,0.05,0.098c0.011,0.101,0.035,0.201,0.073,0.303v0.202c0,0.2,0.06,0.394,0.17,0.558v1.856
						c-0.017,0.007-0.034,0.014-0.051,0.021c-0.055,0.021-0.108,0.047-0.16,0.075c-0.031,0.008-0.063,0.018-0.094,0.028
						c-0.129,0.017-0.253,0.058-0.366,0.12c-0.095,0.007-0.186,0.018-0.273,0.032c-0.1,0.002-0.202,0.021-0.298,0.052
						c-0.22,0.005-0.408,0.022-0.584,0.054c-0.064,0.012-0.128,0.029-0.189,0.054c-0.003,0.001-0.045,0.018-0.049,0.02
						c-0.002,0-0.004,0.001-0.006,0.002c-0.358,0.02-0.756,0.029-1.21,0.029c-0.19,0-0.375,0.054-0.533,0.154
						c-0.213,0.021-0.422,0.042-0.63,0.058c-0.091,0.006-0.175,0.023-0.248,0.046c-0.015-0.004-0.03-0.008-0.047-0.012
						c-0.003-0.009-0.006-0.017-0.009-0.024c-0.017-0.069-0.04-0.136-0.069-0.199c-0.031-0.171-0.106-0.333-0.22-0.467
						c-0.008-0.032-0.017-0.063-0.026-0.094c-0.006-0.081-0.021-0.161-0.046-0.238c-0.033-0.102-0.076-0.196-0.131-0.284
						c-0.025-0.15-0.08-0.293-0.158-0.419c-0.007-0.063-0.018-0.123-0.033-0.184V26.72c0-0.242-0.088-0.476-0.246-0.657
						c-0.028-0.044-0.06-0.086-0.094-0.124V25.87c0-0.15-0.031-0.298-0.09-0.434V25.2c0-0.166-0.041-0.329-0.12-0.476V24.24
						c0-0.158-0.037-0.313-0.107-0.451c-0.007-0.018-0.015-0.035-0.022-0.053V22.6c0-0.212-0.061-0.416-0.17-0.589V20.8
						c0-0.127-0.029-0.259-0.08-0.381V18.87c0-0.122-0.022-0.243-0.066-0.357c-0.015-0.065-0.036-0.128-0.063-0.188V16.84
						c0-0.305-0.097-0.531-0.216-0.696c-0.021-0.19-0.094-0.368-0.211-0.515c-0.032-0.292-0.181-0.542-0.399-0.708
						c-0.004-0.004-0.008-0.008-0.013-0.013c-0.074-0.073-0.16-0.135-0.254-0.182l-0.08-0.04c-0.053-0.026-0.107-0.048-0.164-0.064
						c-0.205-0.186-0.46-0.288-0.689-0.288c-0.003,0-0.006,0-0.009,0l-0.087-0.019c-0.071-0.016-0.145-0.024-0.218-0.024h-0.71
						c-0.19,0-0.38,0.035-0.563,0.104c-0.18,0.068-0.33,0.183-0.441,0.329c-0.092,0.058-0.165,0.118-0.23,0.173
						c-0.028,0.024-0.056,0.05-0.081,0.078c-0.095,0.089-0.171,0.196-0.226,0.315c-0.006,0.007-0.011,0.014-0.017,0.021
						c-0.046,0.032-0.087,0.064-0.125,0.098c0.014-0.024,0.026-0.049,0.039-0.074c0.188-0.357,0.142-0.792-0.116-1.102
						c-0.067-0.082-0.147-0.164-0.223-0.239c-1.004-1.004-2.234-1.513-3.657-1.513c-0.551,0-1.086,0.089-1.59,0.266
						c-0.334,0.117-0.581,0.401-0.65,0.749c-0.004,0.018-0.007,0.036-0.011,0.053c-0.016-0.007-0.031-0.015-0.047-0.021
						c-0.123-0.052-0.254-0.077-0.384-0.077c-0.232,0-0.463,0.08-0.646,0.229c-0.133,0.107-0.252,0.207-0.358,0.314
						c-0.449,0.449-0.802,0.958-1.047,1.513c-0.166,0.375-0.087,0.813,0.201,1.106l0.15,0.15c0.187,0.179,0.38,0.342,0.579,0.49
						c-0.046-0.021-0.093-0.041-0.142-0.058c-0.105-0.037-0.216-0.055-0.325-0.055c-0.205,0-0.409,0.063-0.581,0.186
						c-0.147,0.105-0.261,0.247-0.333,0.408c-0.007,0.013-0.014,0.025-0.021,0.039c-0.005,0.011-0.01,0.021-0.015,0.031
						c-0.054,0.074-0.099,0.156-0.136,0.245c-0.02,0.047-0.035,0.096-0.047,0.146c-0.02,0.028-0.037,0.058-0.055,0.088
						c-0.168,0.178-0.268,0.414-0.273,0.664c-0.134,0.173-0.21,0.388-0.21,0.613v0.033c-0.11,0.164-0.17,0.357-0.17,0.558v0.065
						c-0.017,0.036-0.031,0.072-0.044,0.107c-0.004,0.007-0.007,0.014-0.011,0.021c-0.034,0.054-0.066,0.111-0.096,0.171
						c-0.048,0.099-0.079,0.204-0.092,0.313c-0.011,0.02-0.021,0.039-0.029,0.059c-0.079,0.128-0.128,0.272-0.144,0.423
						c-0.023,0.081-0.045,0.188-0.045,0.312v0.272c-0.109,0.163-0.17,0.356-0.17,0.558v0.322c-0.11,0.164-0.17,0.357-0.17,0.558
						v0.355c-0.053,0.138-0.08,0.287-0.08,0.444v4.965c-0.192,0.151-0.327,0.372-0.368,0.625h-5.332
						c-0.068-0.485-0.485-0.859-0.99-0.859h-0.562c0.001-0.017,0.001-0.034,0.001-0.051V28.69c0-0.491-0.394-0.9-0.87-0.984v-1.624
						c0.024-0.085,0.04-0.183,0.04-0.292v-1.661c0.11-0.164,0.17-0.358,0.17-0.559v-0.286c0.053-0.098,0.088-0.203,0.106-0.313
						c-0.009,0.058-0.021,0.093-0.02,0.093c0,0,0,0,0-0.001c0.039-0.097,0.063-0.199,0.07-0.303c0.035-0.102,0.053-0.21,0.053-0.32
						v-0.25c0.035-0.049,0.066-0.1,0.092-0.151c0.002-0.004,0.004-0.007,0.006-0.01c0.122-0.146,0.199-0.324,0.223-0.513
						c0.013-0.035,0.023-0.071,0.032-0.108c0.035-0.091,0.056-0.186,0.063-0.283c0.013-0.031,0.024-0.064,0.034-0.1
						c0.02-0.046,0.037-0.094,0.05-0.144c0.017-0.017,0.033-0.031,0.046-0.045c0.157-0.156,0.256-0.36,0.284-0.578
						c0.031-0.075,0.057-0.16,0.072-0.254c0.035-0.044,0.068-0.091,0.097-0.142c0.103-0.132,0.17-0.287,0.196-0.451
						c0.039-0.084,0.077-0.191,0.094-0.318c0.011-0.02,0.021-0.04,0.03-0.061c0.11-0.117,0.198-0.262,0.255-0.428
						c0.008-0.022,0.016-0.046,0.021-0.069c0.018-0.043,0.031-0.087,0.043-0.131c0.061-0.093,0.109-0.192,0.146-0.3
						c0.032-0.094,0.051-0.192,0.054-0.291c0.017-0.028,0.031-0.058,0.045-0.088c0.081-0.146,0.126-0.313,0.126-0.486v-0.25
						c0.026-0.091,0.04-0.185,0.04-0.28v-0.63c0-0.096-0.014-0.19-0.04-0.28v-0.01c0-0.201-0.061-0.396-0.172-0.561
						c-0.024-0.044-0.052-0.087-0.081-0.127c-0.041-0.096-0.098-0.185-0.168-0.264c-0.028-0.099-0.073-0.192-0.131-0.279
						c-0.035-0.052-0.078-0.105-0.126-0.158c-0.052-0.126-0.12-0.227-0.187-0.306c-0.026-0.069-0.061-0.135-0.102-0.197
						c-0.072-0.11-0.156-0.193-0.235-0.257c-0.031-0.043-0.065-0.083-0.104-0.121c-0.187-0.186-0.44-0.291-0.704-0.291
						c-0.002,0-0.005,0-0.007,0l-6.902,0.05c-1.409,0.027-2.966,0.04-4.761,0.04c-0.075,0-0.148,0.008-0.22,0.024V10.46
						c0-0.552-0.448-1-1-1H23.34c-0.061-0.041-0.125-0.075-0.193-0.101c-0.179-0.271-0.486-0.449-0.834-0.449H2.893
						c-0.552,0-1,0.448-1,1v0.488c-0.052,0.123-0.08,0.256-0.08,0.392v0.5c0,0.077,0.009,0.151,0.027,0.223l-0.557,6.03V8.55h1.493
						l0.05,0.025C2.964,8.644,3.117,8.68,3.272,8.68h20c0.321,0,0.632,0,0.92-0.01c0.398,0,0.807-0.01,1.206-0.03h0.225
						c0.552,0,1-0.448,1-1V3.93h5.09c0.526,0,0.958-0.407,0.997-0.923C32.731,2.979,32.751,2.951,32.77,2.921 M47.992,17.486
						c0.439,0.276,0.907,0.481,1.399,0.613h-0.128c-0.076-0.024-0.155-0.044-0.236-0.059c-0.108-0.023-0.223-0.046-0.348-0.069
						c-0.094-0.116-0.215-0.216-0.347-0.28c-0.038-0.025-0.078-0.049-0.119-0.069c-0.036-0.018-0.073-0.034-0.111-0.05
						c-0.025-0.02-0.051-0.037-0.077-0.055c-0.006-0.005-0.012-0.011-0.018-0.017C48.003,17.496,47.998,17.491,47.992,17.486
						 M32.212,1.67v0.34c-0.05,0.03-0.09,0.06-0.12,0.08c-0.06,0.03-0.11,0.07-0.17,0.13v0.17c-0.09,0.02-0.15,0.04-0.21,0.04v0.5
						h-5.42v0.05h-0.17c-0.02,0-0.05,0.01-0.08,0.04l-0.04,0.04c0,0.03-0.02,0.06-0.05,0.08h-0.16c-0.03,0.06-0.07,0.1-0.13,0.13
						c-0.03,0.03-0.04,0.06-0.04,0.08v4.29h-0.25c-0.39,0.02-0.79,0.03-1.18,0.03c-0.31,0.01-0.61,0.01-0.92,0.01h-20l-0.08-0.04
						L3.143,7.6l-0.12-0.05h-2.19V7.47l-0.08-0.08L0.623,7.3h-0.08v0.04l-0.17,0.05h-0.09v13.82l1.35-0.13l0.38-1.26l0.04-0.04V19.7
						l0.04-0.05l0.76-8.23l0.04-0.09l-0.04-0.04h-0.04v-0.5l0.04-0.04l0.04-0.09V9.91h19.42v0.13c0.03,0.06,0.06,0.08,0.09,0.08
						c0.03,0.06,0.05,0.1,0.08,0.13c0.06,0.03,0.13,0.06,0.21,0.08c0.03-0.02,0.06-0.04,0.09-0.04c0.02,0.03,0.05,0.06,0.08,0.09
						c0.08,0.02,0.17,0.05,0.25,0.08h0.76v3.31c0.02,0.03,0.05,0.06,0.08,0.09c0,0.02,0.01,0.07,0.04,0.12
						c0.03,0,0.06,0.02,0.09,0.05v0.12c0.03,0.06,0.05,0.08,0.08,0.08c0.03,0.03,0.06,0.08,0.08,0.13c0.06,0.03,0.12,0.06,0.17,0.09
						c0.09,0.02,0.16,0.04,0.21,0.04h0.3c0.02-0.03,0.05-0.04,0.08-0.04c0.03-0.06,0.06-0.1,0.09-0.13c1.59,0,3.19-0.01,4.78-0.04
						l6.89-0.05c0,0.03,0.03,0.08,0.09,0.13c0.05,0.03,0.1,0.06,0.12,0.09v0.08c0,0.05,0.02,0.1,0.04,0.13
						c0.06,0.02,0.1,0.05,0.13,0.08c0.03,0.03,0.04,0.07,0.04,0.13l0.05,0.04c0.02,0.05,0.05,0.09,0.08,0.12
						c0.03,0.03,0.06,0.06,0.08,0.09c0,0.03,0.02,0.07,0.04,0.12v0.05c0.03,0.05,0.06,0.09,0.09,0.12l0.08,0.09
						c0,0.02,0.02,0.07,0.05,0.12c0.021,0.03,0.05,0.06,0.08,0.09c0,0.02,0.01,0.05,0.04,0.08V16c0,0.03,0.021,0.06,0.04,0.08v0.63
						c-0.02,0.03-0.04,0.07-0.04,0.13v0.4c-0.03,0.02-0.04,0.05-0.04,0.08c-0.03,0.029-0.06,0.06-0.08,0.09
						c-0.03,0.05-0.05,0.09-0.05,0.12v0.25c-0.021,0.06-0.05,0.1-0.08,0.13c-0.03,0.02-0.06,0.05-0.09,0.08v0.17
						c-0.021,0.05-0.04,0.1-0.04,0.12c-0.021,0.06-0.05,0.09-0.08,0.09c-0.03,0.02-0.06,0.07-0.08,0.12
						c-0.03,0.029-0.05,0.06-0.05,0.09c0,0.02-0.01,0.05-0.04,0.08c-0.03,0.06-0.05,0.08-0.08,0.08v0.21c0,0.03-0.02,0.06-0.04,0.09
						c-0.03,0.05-0.05,0.09-0.05,0.12v0.09c-0.02,0.02-0.05,0.06-0.08,0.12c-0.03,0-0.05,0.02-0.08,0.05
						c-0.03,0.05-0.04,0.09-0.04,0.12c-0.03,0.03-0.06,0.06-0.09,0.09v0.16c0,0.06-0.01,0.1-0.04,0.13c0,0.021-0.02,0.05-0.04,0.08
						v0.13c-0.03,0.03-0.06,0.061-0.09,0.08c-0.05,0.03-0.09,0.06-0.12,0.08c-0.03,0.07-0.05,0.11-0.05,0.13l-0.04,0.09v0.08
						c0,0.03-0.01,0.061-0.04,0.08c0,0.061-0.01,0.1-0.04,0.13c0,0.03-0.02,0.061-0.04,0.08v0.17c-0.03,0.061-0.04,0.101-0.04,0.13
						c-0.03,0.021-0.05,0.051-0.05,0.08v0.13l-0.04,0.04c-0.03,0.061-0.06,0.101-0.08,0.12c0,0.03-0.02,0.061-0.05,0.09
						c-0.02,0.03-0.06,0.07-0.12,0.12c0,0.03-0.02,0.061-0.04,0.09v0.591c-0.03,0.02-0.05,0.05-0.05,0.079v0.171
						c-0.02,0.05-0.04,0.1-0.04,0.119c-0.02,0.03-0.05,0.061-0.08,0.091c-0.03,0.02-0.04,0.05-0.04,0.08v0.59
						c-0.03,0.029-0.07,0.069-0.13,0.12c0,0.029-0.01,0.06-0.04,0.09v2.01c0,0.03-0.02,0.06-0.04,0.09v2.01
						c0,0.061,0.01,0.101,0.04,0.13v1.131c0.03,0.06,0.06,0.1,0.08,0.13c0.03,0.02,0.06,0.05,0.09,0.08v0.29
						c0.02,0.029,0.05,0.06,0.08,0.09c0.03,0.029,0.07,0.069,0.13,0.12c0.05,0.029,0.12,0.05,0.21,0.05h0.88
						c0.03-0.03,0.05-0.05,0.08-0.05h0.84v0.859h7.31v-0.84h0.171c0.029-0.03,0.06-0.06,0.079-0.09c0.03-0.05,0.061-0.09,0.091-0.12
						l0.04-0.09v-5.45c0-0.05,0.01-0.1,0.04-0.13c0-0.02,0.02-0.05,0.04-0.08v-0.59c0.029-0.03,0.06-0.05,0.09-0.08
						c0.029-0.06,0.04-0.1,0.04-0.13c0-0.021,0.02-0.05,0.04-0.08v-0.59c0.029-0.021,0.06-0.05,0.09-0.08
						c0-0.03,0.01-0.07,0.04-0.13l0.04-0.08v-0.54c0-0.03,0.02-0.07,0.04-0.13v-0.08c0.029-0.03,0.05-0.061,0.05-0.09
						c0.02-0.051,0.05-0.08,0.08-0.08c0.029-0.061,0.04-0.101,0.04-0.12v-0.17c0.029-0.061,0.06-0.101,0.09-0.13
						c0-0.03,0.01-0.061,0.04-0.09c0-0.021,0.01-0.061,0.04-0.12c0.03,0,0.04-0.03,0.04-0.08c0-0.03,0.01-0.061,0.04-0.09v-0.29
						c0.029-0.03,0.06-0.061,0.09-0.08l0.04-0.09c0.03-0.021,0.04-0.07,0.04-0.12V19.56c0.03-0.02,0.06-0.05,0.09-0.079
						c0-0.03,0.01-0.07,0.04-0.131l0.04-0.04c0-0.06,0.01-0.1,0.04-0.119V18.97c0.03-0.02,0.06-0.04,0.09-0.04
						c0.02-0.05,0.04-0.09,0.04-0.12c0.02-0.06,0.05-0.09,0.08-0.09c0-0.02,0.01-0.06,0.04-0.12c0-0.029,0.02-0.06,0.05-0.08v-0.09
						c0.021-0.05,0.05-0.08,0.08-0.08c0-0.029,0.01-0.069,0.04-0.13c0.03-0.029,0.04-0.06,0.04-0.08c0.06,0.021,0.1,0.051,0.13,0.08
						c0.03,0.061,0.07,0.101,0.12,0.13c0.06,0,0.09,0.03,0.09,0.08c0.11,0.03,0.19,0.061,0.25,0.09c0.03,0.021,0.07,0.051,0.13,0.08
						c0.03,0.051,0.04,0.101,0.04,0.12c0.05,0,0.101,0.03,0.13,0.09c0.05,0.021,0.08,0.07,0.08,0.12h0.21
						c0.17,0.03,0.32,0.061,0.46,0.09c0.11,0.021,0.2,0.051,0.25,0.08h1.771c0.05-0.02,0.12-0.05,0.21-0.08
						c0.25-0.029,0.49-0.06,0.71-0.09h0.25c0.09-0.02,0.189-0.04,0.3-0.04c0.05-0.02,0.11-0.05,0.16-0.08
						c0.06-0.06,0.12-0.09,0.17-0.09c0.03-0.02,0.09-0.06,0.17-0.12c0.09-0.029,0.18-0.06,0.29-0.08c0.09-0.029,0.17-0.06,0.26-0.09
						c0.061-0.05,0.101-0.08,0.12-0.08c0.03-0.029,0.061-0.069,0.09-0.13c0.05-0.029,0.11-0.06,0.17-0.08
						c0.08,0,0.16-0.02,0.25-0.04c0.021-0.029,0.051-0.06,0.08-0.09l0.08-0.08c0.03-0.029,0.061-0.069,0.09-0.13
						c0.021-0.02,0.051-0.05,0.08-0.08c0.03-0.029,0.07-0.06,0.13-0.09c0.051-0.05,0.091-0.09,0.12-0.12
						c0.03,0,0.061-0.029,0.09-0.09c0.08-0.02,0.15-0.07,0.21-0.12c0.021,0,0.051-0.01,0.08-0.04c0.03-0.06,0.061-0.1,0.08-0.13
						c0.03-0.03,0.07-0.05,0.13-0.08c0.03-0.03,0.04-0.069,0.04-0.13c0.03-0.03,0.061-0.04,0.091-0.04
						c0.05-0.06,0.09-0.1,0.119-0.13c0.08-0.05,0.15-0.08,0.21-0.08l0.04-0.09c0.03-0.021,0.061-0.05,0.091-0.08
						c0.05-0.02,0.1-0.05,0.119-0.08c0.03-0.06,0.07-0.1,0.131-0.13l0.04-0.08c0-0.03,0.029-0.06,0.079-0.09
						c0.03-0.02,0.07-0.05,0.131-0.08c0.029-0.06,0.06-0.1,0.079-0.13c0.03,0,0.07-0.02,0.131-0.08V15.7
						c0.029,0,0.04-0.01,0.04-0.04c0.06-0.05,0.109-0.09,0.17-0.12c0.029-0.03,0.08-0.06,0.17-0.09c0.029-0.03,0.04-0.07,0.04-0.12
						c0.08-0.03,0.149-0.04,0.21-0.04h0.71c0.09,0.02,0.17,0.04,0.26,0.04c0.02,0,0.05,0.01,0.08,0.04v0.04
						c0.06,0.06,0.1,0.09,0.12,0.09c0.06,0.02,0.14,0.05,0.26,0.08l0.08,0.04c0.03,0.03,0.06,0.06,0.08,0.09
						c0.03,0,0.04,0.01,0.04,0.04v0.33c0.03,0,0.06,0.02,0.09,0.05c0.03,0.05,0.07,0.09,0.12,0.12v0.29
						c0.03,0.06,0.05,0.1,0.05,0.13c0.05,0,0.1,0.021,0.12,0.04c0.03,0.03,0.04,0.07,0.04,0.13v1.82c0.03,0.05,0.06,0.08,0.09,0.08
						c0,0.029,0.01,0.069,0.04,0.13v1.8c0.03,0.061,0.06,0.1,0.08,0.13v1.51c0,0.051,0.02,0.101,0.05,0.12
						c0.021,0.03,0.05,0.061,0.08,0.09c0.03,0.021,0.04,0.051,0.04,0.08v1.341c0.03,0.029,0.04,0.069,0.04,0.13
						c0,0.02,0.02,0.05,0.05,0.08c0,0.029,0.01,0.06,0.04,0.09v0.75c0,0.06,0.01,0.1,0.04,0.13c0.03,0.02,0.061,0.05,0.08,0.08v0.51
						c0.03,0.021,0.05,0.05,0.05,0.08c0.03,0.02,0.04,0.06,0.04,0.08v0.38c0.03,0.05,0.04,0.1,0.04,0.13
						c0.03,0.021,0.061,0.05,0.08,0.08c0,0.03,0.021,0.07,0.05,0.09c0.03,0.03,0.061,0.05,0.08,0.05
						c0.03,0.051,0.061,0.091,0.09,0.12v0.46c0.021,0.03,0.04,0.07,0.04,0.13v0.16c0.03,0.061,0.04,0.11,0.04,0.13
						c0.03,0,0.061,0.03,0.09,0.091c0.021,0.02,0.04,0.06,0.04,0.119v0.171c0.021,0.029,0.051,0.06,0.08,0.079
						c0.03,0.03,0.061,0.07,0.08,0.131v0.17l0.05,0.08v0.13c0.021,0.029,0.04,0.05,0.04,0.08c0.021,0.029,0.051,0.06,0.08,0.09
						c0.03,0.05,0.061,0.09,0.09,0.12v0.21c0.021,0,0.051,0.02,0.08,0.04c0,0.06,0.021,0.1,0.04,0.13v0.08
						c0,0.029,0.021,0.069,0.04,0.13v0.05c0.03,0.05,0.061,0.09,0.09,0.12c0.061,0.03,0.101,0.05,0.12,0.09
						c0.03,0.021,0.091,0.06,0.17,0.12c0.061,0.03,0.131,0.04,0.21,0.04h0.04c0.03,0,0.07,0.02,0.131,0.04
						c0.06,0.03,0.13,0.06,0.21,0.09c0.06-0.03,0.13-0.06,0.21-0.09c0.029-0.021,0.06-0.04,0.08-0.04
						c0.279-0.021,0.56-0.05,0.85-0.08c0.05-0.03,0.11-0.04,0.16-0.04l0.09-0.09c0.47,0,0.95-0.01,1.42-0.04
						c0.09-0.03,0.16-0.061,0.21-0.08c0.17-0.03,0.35-0.04,0.55-0.04c0.061,0,0.11-0.02,0.17-0.05h0.08
						c0.141-0.03,0.28-0.04,0.42-0.04c0.061-0.03,0.11-0.04,0.17-0.04l0.08-0.08c0.091,0,0.16-0.021,0.21-0.05
						c0.091,0,0.141-0.01,0.17-0.04c0.03-0.03,0.07-0.061,0.131-0.08c0.06-0.03,0.119-0.04,0.21-0.04
						c0.05-0.03,0.14-0.061,0.25-0.09c0-0.03,0.01-0.04,0.04-0.04c0-0.03,0.01-0.061,0.04-0.08c0.029,0,0.04-0.03,0.04-0.09
						c0.029-0.03,0.06-0.07,0.09-0.12v-0.04c0-0.061-0.021-0.101-0.04-0.13v-0.04c0.02-0.03,0.04-0.07,0.04-0.13V26.01
						c0-0.029-0.021-0.05-0.04-0.08c-0.03-0.029-0.061-0.069-0.09-0.13l-0.04-0.04v-0.42c-0.03-0.03-0.04-0.06-0.04-0.08
						c-0.03-0.06-0.04-0.1-0.04-0.13v-0.17c-0.03-0.02-0.04-0.05-0.04-0.08c-0.03-0.06-0.061-0.1-0.09-0.13
						c0-0.03-0.011-0.05-0.04-0.08v-0.29c-0.03-0.03-0.051-0.06-0.08-0.09c-0.03-0.021-0.051-0.07-0.051-0.12v-0.25
						c-0.02-0.03-0.05-0.08-0.079-0.13v-0.3c-0.03,0-0.051-0.021-0.08-0.08c-0.03-0.03-0.051-0.061-0.051-0.08
						c0-0.03-0.01-0.061-0.04-0.09v-0.21c0-0.021-0.01-0.05-0.039-0.08c0-0.05-0.021-0.08-0.04-0.08
						c-0.03-0.061-0.061-0.101-0.091-0.13v-0.29c-0.02-0.03-0.05-0.061-0.08-0.08v-0.38c-0.029-0.03-0.039-0.07-0.039-0.13
						c-0.03-0.03-0.061-0.061-0.091-0.08v-0.09c0-0.051-0.01-0.08-0.04-0.08c0-0.03-0.01-0.07-0.04-0.13
						c0-0.021-0.01-0.051-0.04-0.08c0-0.03-0.02-0.061-0.039-0.08c0-0.061-0.021-0.09-0.051-0.09v-0.12
						c-0.029-0.03-0.04-0.061-0.04-0.091v-0.21c-0.029-0.02-0.04-0.05-0.04-0.079c-0.029-0.03-0.06-0.07-0.08-0.131v-0.08
						c0-0.029-0.02-0.06-0.05-0.079c0-0.03-0.01-0.061-0.04-0.091c0-0.02-0.01-0.069-0.04-0.119c0-0.03-0.01-0.061-0.04-0.091v-0.17
						c-0.029-0.02-0.04-0.06-0.04-0.12c-0.029-0.029-0.05-0.06-0.05-0.08v-0.21c-0.02-0.029-0.04-0.06-0.04-0.09
						c-0.02-0.02-0.04-0.069-0.04-0.13c-0.029,0-0.04-0.01-0.04-0.04v-0.96c-0.029-0.03-0.04-0.07-0.04-0.13
						c-0.029-0.02-0.06-0.05-0.09-0.08c0-0.03-0.01-0.05-0.04-0.08v-1.09c-0.029-0.03-0.06-0.06-0.08-0.09v-2.64
						c0.021-0.03,0.04-0.07,0.04-0.12c0.03-0.03,0.04-0.06,0.04-0.09v-0.21c0.03,0,0.04-0.02,0.04-0.08
						c0.03-0.03,0.05-0.06,0.05-0.09h0.29c0.051-0.02,0.12-0.04,0.21-0.04c0.45-0.02,0.9-0.05,1.341-0.08
						c1.04,1.96,1.59,2.95,1.64,2.98c1.12,0,1.68-0.01,1.68-0.04v-1.18c-0.029-0.05-0.04-0.09-0.04-0.12v-0.21l-1.64-3.7h3.7v-0.04
						l0.2,0.04h0.17l0.17-0.17l0.04-0.13l0.04-0.08l0.05-4.03l-0.47-0.04l-0.08-0.13l-0.17-0.08h-1.801l-0.26-0.09l-0.29-0.04h-1.22
						V6.5h-0.25l-0.25,0.08h-1.3c-0.23,0-0.48-0.49-0.761-1.47c-0.25-0.95-0.39-1.44-0.42-1.47c-0.029-0.03-0.06-0.07-0.08-0.12
						h-0.05V3.48c0-0.03-0.01-0.06-0.04-0.09c0-0.06-0.01-0.1-0.04-0.12l-0.04-0.09c-0.06-0.03-0.1-0.06-0.13-0.08
						c-0.02-0.03-0.05-0.06-0.08-0.09c-0.09-0.03-0.16-0.05-0.21-0.08h-31.13V2.85c-0.06,0-0.1-0.02-0.13-0.05V2.72
						c-0.11-0.03-0.22-0.06-0.33-0.08l-0.05-0.05c-0.02-0.05-0.07-0.09-0.12-0.12c-0.03-0.03-0.07-0.06-0.13-0.09
						c-0.03-0.02-0.05-0.05-0.08-0.08c-0.03-0.05-0.06-0.08-0.08-0.08V2.09c-0.03-0.03-0.07-0.04-0.13-0.04V1.96
						c-0.06-0.02-0.1-0.04-0.13-0.04V1.84c-0.17-0.03-0.33-0.04-0.5-0.04V1.71C32.553,1.71,32.382,1.7,32.212,1.67L32.212,1.67z
						 M51.122,17.26c-0.67-0.78-1.01-1.69-1.01-2.73c0-0.31,0.03-0.59,0.08-0.84c0.4-0.14,0.82-0.21,1.26-0.21
						c1.15,0,2.13,0.4,2.95,1.22c0.05,0.05,0.11,0.11,0.16,0.17c-0.22,0.42-0.51,0.81-0.88,1.17
						C52.952,16.77,52.103,17.17,51.122,17.26L51.122,17.26z M50.362,17.26c-0.979-0.09-1.84-0.49-2.6-1.22
						c-0.061-0.06-0.101-0.1-0.13-0.13c0.199-0.45,0.479-0.85,0.84-1.21c0.09-0.09,0.189-0.17,0.3-0.26
						c0.08,0.93,0.47,1.74,1.17,2.44C50.082,17.02,50.223,17.15,50.362,17.26L50.362,17.26z M36.212,28.81
						c-0.03-0.02-0.05-0.06-0.05-0.119h0.05V28.81L36.212,28.81z"/>
				</g>
			</g>
		</g>
	</g>
</g>
</svg>
