<?xml version="1.0" encoding="utf-8"?>
<!-- Generator: Adobe Illustrator 16.0.0, SVG Export Plug-In . SVG Version: 6.00 Build 0)  -->
<!DOCTYPE svg PUBLIC "-//W3C//DTD SVG 1.1//EN" "http://www.w3.org/Graphics/SVG/1.1/DTD/svg11.dtd">
<svg version="1.1" id="图层_1" xmlns="http://www.w3.org/2000/svg" xmlns:xlink="http://www.w3.org/1999/xlink" x="0px" y="0px"
	 width="37.875px" height="32px" viewBox="0 0 37.875 32" enable-background="new 0 0 37.875 32" xml:space="preserve">
<rect fill="none" width="37.875" height="32"/>
<g>
	<g>
		<g>
			
				<linearGradient id="SVGID_1_" gradientUnits="userSpaceOnUse" x1="-278.2314" y1="398.2627" x2="-279.2314" y2="397.2627" gradientTransform="matrix(37.2495 0 0 -28.1333 10396.3584 11202.4844)">
				<stop  offset="0" style="stop-color:#BB925B"/>
				<stop  offset="0.3429" style="stop-color:#FFF6DA"/>
				<stop  offset="0.6571" style="stop-color:#FFF1B1"/>
				<stop  offset="1" style="stop-color:#B38B54"/>
			</linearGradient>
			<path fill="url(#SVGID_1_)" d="M37.225,10.695c-0.119,0.239-0.313,0.372-0.58,0.402c-0.447,0.029-3.496,0.073-9.137,0.135
				c-0.179,0-0.372,0.043-0.582,0.132c-0.359,0.121-0.598,0.329-0.717,0.629c-0.089,0.239-0.104,0.714-0.046,1.433
				c0.03,0.356,0.091,0.894,0.18,1.611c0.031,0.359,0.091,0.731,0.179,1.123c0,0.207-0.164,0.327-0.494,0.355
				c-0.685,0.148-1.312,0.254-1.879,0.314c-1.014,0.146-2.104,0.238-3.269,0.268c-1.822,0.029-3.851-0.029-6.092-0.179
				c-1.939,5.166-2.91,7.911-2.91,8.239c0,0.359,0.077,1.508,0.224,3.449c0.448,0.326,0.807,0.553,1.075,0.67
				c0.209,0.093,0.297,0.209,0.269,0.361c0,0.088-0.03,0.146-0.09,0.176l-0.312,0.18c-0.33,0.089-0.688,0.105-1.077,0.046
				c-0.568-0.09-4.374-0.851-11.419-2.284c-0.357-0.061-0.357-1.043,0-2.957c0.149-0.805,0.493-1.971,1.03-3.492
				c0.567-1.554,1.09-2.776,1.568-3.67c0.506-0.929,0.91-1.926,1.208-3c0.358-1.076,0.507-1.838,0.449-2.285
				c-0.061-0.327-0.479-0.716-1.254-1.165c-0.597-0.298-1.163-0.521-1.701-0.672c-0.3-0.03-0.539-0.178-0.718-0.447
				c-0.12-0.12-0.253-0.285-0.404-0.493c-0.089-0.12-0.134-0.431-0.134-0.94c0-0.24,0-0.611,0-1.12c0-0.775,0.061-1.253,0.18-1.433
				C1.34,5.097,1.77,4.364,2.068,3.888C2.337,3.5,2.592,3.2,2.832,2.991C3.1,2.723,3.338,2.603,3.548,2.632
				c0.208,0.03,0.448,0.03,0.717,0l0.447-0.044c0.149-0.269,0.284-0.464,0.404-0.582C5.236,1.888,5.681,1.932,6.46,2.14l0.179,0.492
				h12.314v0.404h5.331V2.632l12.271-0.044l0.402,0.223c0.238,0.149,0.357,0.329,0.357,0.537c0.062,1.167,0.119,2.256,0.18,3.271
				c0.061,2.001,0.044,3.103-0.046,3.314C37.298,10.41,37.225,10.665,37.225,10.695z M24.371,11.814
				c-0.148-0.061-0.268-0.092-0.355-0.092v0.092L20.03,11.77c-0.152,0.566-0.091,1.043,0.176,1.433
				c0.36,0.565,0.657,0.97,0.899,1.209c0.238,0.208,0.521,0.341,0.85,0.4c0.297,0.03,0.434,0.106,0.402,0.225
				c-0.028,0.149-0.147,0.226-0.358,0.226c-0.118,0-0.312,0-0.579,0c-0.329-0.061-0.689-0.269-1.076-0.627
				c-0.627-0.538-1.031-0.987-1.212-1.343c-0.117-0.39-0.178-0.898-0.178-1.522l-0.805-0.047c-0.479,0-0.896,0.194-1.254,0.584
				c-0.298,0.357-0.448,0.778-0.448,1.253c0,0.298,0,0.7,0,1.208c0.061,0.36,0.361,0.644,0.897,0.852
				c0.775,0.299,1.523,0.418,2.238,0.36c0.837-0.122,1.493-0.196,1.973-0.226c0.237-0.03,0.67-0.014,1.297,0.045
				c0.627,0.059,1.061,0.089,1.297,0.089c0.391,0,0.644-0.03,0.762-0.089c0.061-0.06,0.181-0.179,0.361-0.357
				c0.117-0.18,0.147-0.659,0.086-1.435c-0.029-0.748-0.147-1.3-0.356-1.657C24.88,12.083,24.669,11.902,24.371,11.814z"/>
		</g>
	</g>
</g>
</svg>
