<?xml version="1.0" encoding="utf-8"?>
<!-- Generator: Adobe Illustrator 16.0.0, SVG Export Plug-In . SVG Version: 6.00 Build 0)  -->
<!DOCTYPE svg PUBLIC "-//W3C//DTD SVG 1.1//EN" "http://www.w3.org/Graphics/SVG/1.1/DTD/svg11.dtd">
<svg version="1.1" id="图层_1" xmlns="http://www.w3.org/2000/svg" xmlns:xlink="http://www.w3.org/1999/xlink" x="0px" y="0px"
	 width="92px" height="32px" viewBox="0 0 92 32" enable-background="new 0 0 92 32" xml:space="preserve">
<rect fill="none" width="92" height="32"/>
<g>
	<g>
		<g>
			<g>
				<g>
					
						<linearGradient id="SVGID_1_" gradientUnits="userSpaceOnUse" x1="-859.2412" y1="29.4404" x2="-857.75" y2="28.8307" gradientTransform="matrix(91.817 0 0 19.646 78856.6094 -556.1484)">
						<stop  offset="0.2709" style="stop-color:#000000"/>
						<stop  offset="0.5271" style="stop-color:#FFD400"/>
						<stop  offset="0.803" style="stop-color:#FF0000"/>
					</linearGradient>
					<path fill="url(#SVGID_1_)" d="M78.404,15.481l-0.1-0.065l-1.901,0.033c-0.089,0.067-0.178,0.168-0.267,0.299
						c-0.178,0.203-0.256,0.412-0.234,0.635c0,0.223,0.102,0.445,0.303,0.668c0.088,0.088,0.178,0.168,0.266,0.232h2.102
						c0.067-0.064,0.135-0.145,0.2-0.232c0.113-0.244,0.169-0.502,0.169-0.768c0-0.267-0.111-0.488-0.336-0.666
						C78.539,15.572,78.471,15.525,78.404,15.481z M90.312,17.283c-1.49,1.135-3.202,2.047-5.138,2.734
						c-1.891,0.688-4.447,1.168-7.672,1.436c-1,0.088-2,0.156-3,0.199l-38.586,0.066l-0.035,4.105h-1.334v-4.971h-4.305
						c-0.043-0.045-0.109-0.102-0.197-0.168c-0.156-0.109-0.334-0.166-0.533-0.166c-0.201,0.021-0.379,0.09-0.535,0.199
						c-0.064,0.047-0.111,0.1-0.135,0.166h-3.1c-0.046-0.066-0.102-0.119-0.166-0.166c-0.158-0.135-0.348-0.199-0.568-0.199
						c-0.2,0-0.366,0.064-0.502,0.199c-0.065,0.047-0.108,0.1-0.131,0.166h-3.07c-0.021-0.066-0.064-0.119-0.133-0.166
						c-0.111-0.135-0.256-0.199-0.432-0.199c-0.201,0-0.369,0.064-0.502,0.199c-0.066,0.047-0.111,0.1-0.134,0.166h-3.067
						c-0.045-0.066-0.102-0.133-0.166-0.199c-0.113-0.131-0.259-0.199-0.436-0.199c-0.178,0-0.322,0.068-0.436,0.199
						c-0.064,0.066-0.121,0.133-0.166,0.199h-3.233c-0.021-0.066-0.065-0.119-0.134-0.166c-0.111-0.135-0.256-0.199-0.432-0.199
						c-0.158,0-0.303,0.043-0.436,0.133c-0.046,0.047-0.079,0.078-0.102,0.102H9.799l-1.303,0.533H0.961
						c-0.135-0.178-0.258-0.391-0.367-0.635c-0.268-0.486-0.422-0.82-0.469-1c-0.045-0.197-0.045-1.123,0-2.768l0.067-2.401
						c0-0.065,0.011-0.157,0.033-0.269c0.021-0.223,0.088-0.398,0.201-0.533c0.132-0.109,0.311-0.232,0.532-0.364l0.301-0.137
						l6.97,0.034l1.47,0.533l1.635-0.033l0.197,0.199c0.112,0.112,0.244,0.168,0.401,0.168c0.132,0,0.301-0.078,0.5-0.234
						l0.267-0.198h3.004l0.197,0.198c0.156,0.136,0.348,0.201,0.566,0.201c0.201,0.021,0.369-0.035,0.502-0.168
						c0.045-0.043,0.076-0.1,0.099-0.166l0.068-0.065l2.866,0.032l0.168,0.199c0.156,0.154,0.332,0.226,0.533,0.201
						c0.155,0,0.321-0.068,0.5-0.201l0.168-0.199h3.066l0.167,0.199c0.112,0.133,0.256,0.201,0.435,0.201
						c0.18,0.023,0.354-0.047,0.535-0.201l0.198-0.199h3.067l0.168,0.232c0.178,0.156,0.344,0.234,0.5,0.234
						c0.244,0,0.435-0.078,0.566-0.234c0.043-0.045,0.077-0.099,0.102-0.166l0.031-0.066h4.304V6.176h1.401v7.07h3.567
						c0.153-0.021,0.289-0.053,0.399-0.099c0.156-0.112,0.332-0.224,0.535-0.333l32.918,0.133l18.576,2.868
						C91.578,16.24,91.045,16.729,90.312,17.283z"/>
				</g>
			</g>
		</g>
	</g>
</g>
<linearGradient id="SVGID_2_" gradientUnits="userSpaceOnUse" x1="12.0464" y1="19.1025" x2="53.4332" y2="15.4817" gradientTransform="matrix(0.9946 -0.1042 0.1042 0.9946 -6.7123 3.3029)">
	<stop  offset="0.3505" style="stop-color:#FFE3A0"/>
	<stop  offset="1" style="stop-color:#00FFFF"/>
</linearGradient>
<path fill="url(#SVGID_2_)" d="M44.578,21.614c0,0-1.179-4.122-4.625-8.477c-0.022,0.016-0.053,0.03-0.074,0.046
	c-0.11,0.046-0.246,0.078-0.399,0.1h-3.567V9.02C35.467,8.654,35,8.297,34.511,7.95v5.768h-0.497
	C37.594,15.096,41.27,17.522,44.578,21.614z"/>
<linearGradient id="SVGID_3_" gradientUnits="userSpaceOnUse" x1="39.7734" y1="19.1543" x2="70.7927" y2="16.4405" gradientTransform="matrix(0.9919 -0.127 0.127 0.9919 -8.0988 6.8389)">
	<stop  offset="0.1781" style="stop-color:#FFE3A0"/>
	<stop  offset="1" style="stop-color:#00FFFF"/>
</linearGradient>
<path fill="url(#SVGID_3_)" d="M61.336,18.642c0,0-0.895-2.667-3.072-5.719l-5.963-0.024C55.372,13.805,58.57,15.526,61.336,18.642z
	"/>
<g>
	<g>
		<g>
			<g>
				<g>
					<g>
						<linearGradient id="SVGID_4_" gradientUnits="userSpaceOnUse" x1="89.9551" y1="6.6851" x2="1.4047" y2="25.6321">
							<stop  offset="0" style="stop-color:#BB925B"/>
							<stop  offset="0.3429" style="stop-color:#FFF6DA"/>
							<stop  offset="0.6571" style="stop-color:#FFF1B1"/>
							<stop  offset="1" style="stop-color:#B38B54"/>
						</linearGradient>
						<path fill="url(#SVGID_4_)" d="M40.679,13.815l32.574,0.132l3.241,0.5l-0.108,0.002c-0.215,0.004-0.422,0.076-0.592,0.207
							c-0.163,0.125-0.311,0.283-0.451,0.481c-0.397,0.48-0.463,0.958-0.439,1.293c0.012,0.458,0.2,0.893,0.56,1.29
							c0.012,0.013,0.023,0.025,0.035,0.037c0.129,0.13,0.258,0.241,0.381,0.332c0.172,0.126,0.379,0.193,0.592,0.193h2.102
							c0.258,0,0.505-0.1,0.691-0.277c0.104-0.1,0.206-0.217,0.311-0.357c0.041-0.056,0.076-0.114,0.105-0.177
							c0.174-0.374,0.262-0.774,0.262-1.188c0-0.547-0.234-1.044-0.66-1.405l10.424,1.61c-1.402,1.068-3.04,1.938-4.873,2.59
							c-1.806,0.656-4.3,1.12-7.418,1.379c-1.038,0.091-2.005,0.155-2.914,0.195l-38.586,0.066c-0.13,0-0.255,0.025-0.369,0.071
							c-0.033-0.522-0.467-0.937-0.998-0.937H30.6c-0.32-0.219-0.695-0.334-1.088-0.334c-0.035,0-0.071,0.002-0.106,0.006
							c-0.352,0.037-0.677,0.155-0.98,0.359h-2.291c-0.32-0.239-0.707-0.365-1.126-0.365c-0.402,0-0.768,0.126-1.067,0.365h-2.191
							c-0.278-0.237-0.628-0.365-1.009-0.365c-0.405,0-0.771,0.126-1.068,0.365h-2.188c-0.287-0.258-0.652-0.398-1.048-0.398
							s-0.761,0.141-1.048,0.398h-2.344c-0.278-0.237-0.628-0.365-1.009-0.365c-0.317,0-0.614,0.079-0.884,0.234H9.799
							c-0.13,0-0.259,0.025-0.379,0.074L8.3,20.287H1.526c-0.007-0.015-0.014-0.029-0.021-0.044
							c-0.011-0.024-0.022-0.049-0.036-0.073c-0.249-0.452-0.338-0.663-0.365-0.737c-0.012-0.15-0.03-0.685,0.021-2.52l0.067-2.414
							c0.001-0.024,0.007-0.053,0.014-0.087c0.003-0.018,0.008-0.047,0.013-0.075c0.054-0.037,0.122-0.081,0.205-0.131l0.051-0.023
							l6.577,0.031l1.307,0.475c0.109,0.039,0.225,0.06,0.341,0.06c0.007,0,0.014,0,0.021,0l1.216-0.025
							c0.281,0.236,0.623,0.359,0.997,0.359c0.368,0,0.733-0.146,1.095-0.431l0.002-0.001h2.272
							c0.313,0.251,0.695,0.388,1.114,0.397c0.045,0.004,0.089,0.006,0.132,0.006c0.407,0,0.775-0.142,1.058-0.398l1.953,0.021
							c0.387,0.337,0.789,0.41,1.066,0.41c0.047,0,0.095-0.002,0.143-0.006c0.35-0.015,0.697-0.148,1.032-0.397
							c0.001-0.001,0.001-0.001,0.002-0.002h2.188c0.271,0.246,0.613,0.385,0.986,0.399c0.044,0.004,0.087,0.006,0.13,0.006
							c0.377,0,0.736-0.137,1.068-0.405h2.191c0.359,0.31,0.743,0.467,1.142,0.467c0.477,0,0.902-0.164,1.216-0.467h3.787
							c0.397,0,0.741-0.232,0.902-0.568c0.147,0.084,0.317,0.133,0.499,0.133h3.567c0.042,0,0.085-0.003,0.126-0.008
							c0.24-0.031,0.459-0.086,0.65-0.164c0.074-0.03,0.145-0.069,0.21-0.116C40.534,13.909,40.604,13.861,40.679,13.815
							 M35.912,6.176h-1.401v7.506h-4.304l-0.031,0.066c-0.024,0.068-0.059,0.121-0.102,0.166c-0.132,0.156-0.322,0.234-0.566,0.234
							c-0.156,0-0.322-0.078-0.5-0.234l-0.168-0.232h-3.067l-0.198,0.199c-0.158,0.135-0.312,0.206-0.468,0.206
							c-0.022,0-0.045-0.002-0.067-0.005c-0.179,0-0.322-0.068-0.435-0.201l-0.167-0.199h-3.066l-0.168,0.199
							c-0.179,0.133-0.345,0.201-0.5,0.201c-0.026,0.003-0.053,0.005-0.078,0.005c-0.169,0-0.319-0.072-0.455-0.206l-0.168-0.199
							l-2.866-0.031l-0.068,0.064c-0.022,0.066-0.054,0.123-0.099,0.166c-0.114,0.114-0.255,0.173-0.421,0.173
							c-0.026,0-0.054-0.002-0.081-0.005c-0.219,0-0.41-0.064-0.566-0.201l-0.197-0.197h-3.004l-0.267,0.197
							c-0.199,0.156-0.368,0.234-0.5,0.234c-0.157,0-0.289-0.055-0.401-0.168l-0.197-0.199l-1.635,0.033l-1.47-0.533l-6.97-0.033
							l-0.301,0.137c-0.222,0.131-0.4,0.254-0.532,0.363c-0.113,0.135-0.181,0.311-0.201,0.533c-0.022,0.111-0.033,0.203-0.033,0.27
							l-0.067,2.4c-0.045,1.645-0.045,2.57,0,2.768c0.047,0.18,0.201,0.514,0.469,1c0.109,0.244,0.232,0.457,0.367,0.635h7.535
							l1.303-0.533h1.699c0.022-0.023,0.056-0.055,0.102-0.102c0.133-0.09,0.277-0.133,0.436-0.133c0.176,0,0.32,0.064,0.432,0.199
							c0.068,0.047,0.113,0.1,0.134,0.166h3.233c0.045-0.066,0.102-0.133,0.166-0.199c0.113-0.131,0.258-0.199,0.436-0.199
							c0.177,0,0.322,0.068,0.436,0.199c0.064,0.066,0.121,0.133,0.166,0.199h3.067c0.022-0.066,0.067-0.119,0.134-0.166
							c0.133-0.135,0.301-0.199,0.502-0.199c0.176,0,0.32,0.064,0.432,0.199c0.068,0.047,0.111,0.1,0.133,0.166h3.07
							c0.022-0.066,0.065-0.119,0.131-0.166c0.136-0.135,0.302-0.199,0.502-0.199c0.221,0,0.41,0.064,0.568,0.199
							c0.064,0.047,0.12,0.1,0.166,0.166h3.1c0.023-0.066,0.07-0.119,0.135-0.166c0.156-0.109,0.334-0.178,0.535-0.199
							c0.199,0,0.377,0.057,0.533,0.166c0.088,0.066,0.154,0.123,0.197,0.168h4.305v4.971h1.334l0.035-4.105l38.586-0.066
							c1-0.043,2-0.111,3-0.199c3.225-0.268,5.781-0.748,7.672-1.436c1.936-0.688,3.647-1.6,5.138-2.734
							c0.733-0.555,1.267-1.043,1.597-1.467l-18.576-2.869l-32.918-0.133c-0.203,0.109-0.379,0.221-0.535,0.334
							c-0.11,0.045-0.246,0.078-0.399,0.098h-3.567V6.176L35.912,6.176z M76.471,17.283c-0.088-0.064-0.178-0.145-0.266-0.232
							c-0.201-0.223-0.303-0.445-0.303-0.668c-0.021-0.223,0.057-0.432,0.234-0.635c0.089-0.131,0.178-0.23,0.267-0.299l1.901-0.033
							l0.1,0.066c0.066,0.043,0.135,0.09,0.201,0.135c0.225,0.178,0.336,0.4,0.336,0.666s-0.056,0.523-0.169,0.768
							c-0.065,0.088-0.133,0.168-0.2,0.232H76.471L76.471,17.283z"/>
					</g>
				</g>
			</g>
		</g>
	</g>
</g>
<rect fill="none" width="92" height="32"/>
<g>
	<g>
		<g>
			<path fill="#7A4621" d="M53.771,27.047l5.631,4.694l12.388,0.375c4.255-0.501,7.758-1.626,10.511-3.378
				c3.629-5.028,6.785-7.543,9.471-7.543c-1.822-0.728-3.91-0.43-6.26,0.895s-4.732-0.018-7.152-4.023
				c-2.252-1.502-6.666-0.412-10.282,1.343l3.714-5.813l-10.866,3.576L53.771,27.047z"/>
		</g>
	</g>
</g>
<g>
	
		<linearGradient id="SVGID_5_" gradientUnits="userSpaceOnUse" x1="-842.6323" y1="44.0947" x2="-841.6315" y2="45.0971" gradientTransform="matrix(30.7822 0 0 12.7634 25996.0215 -545.5981)">
		<stop  offset="0.6071" style="stop-color:#FFF6DA"/>
		<stop  offset="1" style="stop-color:#D6BB7E"/>
	</linearGradient>
	<path fill="url(#SVGID_5_)" d="M66.113,16.727h-3.188l-6.151,12.763h2.86l0.946-2.164h2.563l-0.168,2.164h2.735L66.113,16.727z
		 M63.803,19.939l-0.466,5.42h-1.928L63.803,19.939z M78.078,18.755c0-1.325-1.239-2.028-3.57-2.028c-2.889,0-4.211,0.92-4.9,3.289
		l-1.726,5.947c-0.216,0.699-0.258,1.045-0.258,1.367c0,1.402,1.302,2.158,3.717,2.158c1.329,0,2.373-0.229,3.104-0.697
		c0.785-0.521,1.279-1.326,1.662-2.729l0.41-1.448h-2.734l-0.452,1.571c-0.319,1.145-0.724,1.483-1.69,1.483
		c-0.746,0-1.156-0.271-1.156-0.769c0-0.151,0.05-0.41,0.134-0.732l1.837-6.323c0.277-0.938,0.73-1.313,1.628-1.313
		c0.746,0,1.147,0.271,1.147,0.752c0,0.205-0.063,0.463-0.188,0.955l-0.341,1.231h2.735l0.424-1.489
		C78.016,19.471,78.078,19.078,78.078,18.755z M87.557,16.727h-7.313l-3.479,12.763h7.522l0.536-1.959h-4.747l1.065-3.994h4.279
		l0.535-1.931h-4.279l0.814-2.949h4.529L87.557,16.727z"/>
</g>
</svg>
