<?xml version="1.0" encoding="utf-8"?>
<!-- Generator: Adobe Illustrator 16.0.0, SVG Export Plug-In . SVG Version: 6.00 Build 0)  -->
<!DOCTYPE svg PUBLIC "-//W3C//DTD SVG 1.1//EN" "http://www.w3.org/Graphics/SVG/1.1/DTD/svg11.dtd">
<svg version="1.1" id="图层_1" xmlns="http://www.w3.org/2000/svg" xmlns:xlink="http://www.w3.org/1999/xlink" x="0px" y="0px"
	 width="25.458px" height="32px" viewBox="0 0 25.458 32" enable-background="new 0 0 25.458 32" xml:space="preserve">
<rect fill="none" width="25.458" height="32"/>
<linearGradient id="SVGID_1_" gradientUnits="userSpaceOnUse" x1="1.4648" y1="20.5703" x2="24.3308" y2="7.3687">
	<stop  offset="0.1429" style="stop-color:#000000"/>
	<stop  offset="0.4335" style="stop-color:#FFD400"/>
	<stop  offset="0.7488" style="stop-color:#FF0000"/>
</linearGradient>
<path fill="url(#SVGID_1_)" fill-opacity="0.302" d="M19.192,7.81l5.917,0.906l-6.022,4.121l5.694,4.542l-5.319,0.705l1.238,6.83
	l-2.734-1.576l0.013-10.596l-3.44-5.741h-4.231c-0.385,0-0.641,0.038-0.77,0.116c-0.231,0.102-0.347,0.32-0.347,0.654
	c0,0.513,0.308,0.808,0.924,0.885v1.539l-1.156,1h-0.54c-0.359,0-0.54,0.179-0.54,0.539l0.38,2.323l0.641,0.945l-0.136,1.852h0.423
	V18.7H8.763v0.731l0.045,0.531l0.067,0.449L2.88,23.021l2.458-6.788L0,13.574l5.76-2.34L1.647,5.016L8.91,6.015l1.349-5.625
	l3.691,5.175l6.029-2.97L19.192,7.81z M17.345,13.274v9.736l-3.003-1.854l0.136-0.99l0.269-0.741l-0.066-0.608l-0.305-0.168v-1.854
	l0.473-0.338l-0.271-1.519l1.161-0.754l-0.082-2.013L17.345,13.274z"/>
<linearGradient id="SVGID_2_" gradientUnits="userSpaceOnUse" x1="-854.1069" y1="23.9893" x2="-852.9516" y2="23.1509" gradientTransform="matrix(10.239 0 0 24.44 8750.8809 -555.4131)">
	<stop  offset="0.2709" style="stop-color:#000000"/>
	<stop  offset="0.5172" style="stop-color:#FFD400"/>
	<stop  offset="0.8276" style="stop-color:#FF0000"/>
</linearGradient>
<path fill="url(#SVGID_2_)" d="M17.276,13.185l-1.54-0.886v1.81l-0.923,0.847v1.808h-0.384v1.848h0.384v1.926h-0.384v1.848h0.384
	v1.926h-0.384v1.848h0.384v1.771l0.923,1.577v1.308c0,0.36-0.18,0.539-0.539,0.539h-6.85c-0.359,0-0.54-0.179-0.54-0.539v-1.308
	l0.885-1.577v-1.771h0.424v-1.848H8.693v-1.926h0.424v-1.848H8.693v-1.928h0.424v-1.848H8.693v-1.808l-0.885-0.847v-2.464
	c0-0.359,0.181-0.538,0.54-0.538h0.538l1.155-1.001v-1.54c-0.616-0.076-0.923-0.37-0.923-0.882c0-0.333,0.115-0.553,0.346-0.655
	c0.128-0.077,0.385-0.115,0.77-0.115h4.231l3.58,5.734v12.122l-1.81,0.888c-0.257,0.128-0.448,0.09-0.575-0.116
	c-0.131-0.229-0.078-0.448,0.151-0.653c0.206-0.18,0.515-0.386,0.923-0.614L17.275,24L17.276,13.185L17.276,13.185z"/>
<linearGradient id="SVGID_3_" gradientUnits="userSpaceOnUse" x1="-4.019" y1="31.2324" x2="13.6294" y2="21.0655">
	<stop  offset="0.3505" style="stop-color:#FFE3A0"/>
	<stop  offset="1" style="stop-color:#00FFFF"/>
</linearGradient>
<path fill="url(#SVGID_3_)" d="M14.25,26.999c0,0-1.599-4.68-5.134-9.626v1.236H8.692v1.928h0.424v1.08
	C11.003,23.026,12.762,24.785,14.25,26.999z"/>
<linearGradient id="SVGID_4_" gradientUnits="userSpaceOnUse" x1="-0.8042" y1="11.7227" x2="14.8408" y2="2.7099" gradientTransform="matrix(0.908 -0.4189 0.4189 0.908 -2.7388 16.5687)">
	<stop  offset="0.1781" style="stop-color:#FFE3A0"/>
	<stop  offset="1" style="stop-color:#00FFFF"/>
</linearGradient>
<path fill="url(#SVGID_4_)" d="M8.692,14.954v0.07c1.665,0.158,3.359,0.523,5.037,1.17c0,0-2.386-1.927-5.922-3.643v1.556
	L8.692,14.954z"/>
<g>
	<linearGradient id="SVGID_5_" gradientUnits="userSpaceOnUse" x1="5.6108" y1="24.5986" x2="18.7302" y2="1.8752">
		<stop  offset="0" style="stop-color:#BB925B"/>
		<stop  offset="0.3429" style="stop-color:#FFF6DA"/>
		<stop  offset="0.6571" style="stop-color:#FFF1B1"/>
		<stop  offset="1" style="stop-color:#B38B54"/>
	</linearGradient>
	<path fill="url(#SVGID_5_)" d="M10.719,2.759l2.313,3.243h-2.727c-0.132,0-0.254,0.004-0.367,0.012L10.719,2.759 M18.705,4.338
		l-0.502,3.323c-0.082,0.545,0.293,1.054,0.838,1.138l3.413,0.523l-3.801,2.601l-3.258-5.435c-0.087-0.146-0.208-0.264-0.35-0.347
		L18.705,4.338 M3.701,6.309L8.362,6.95C8.249,7.188,8.189,7.466,8.189,7.771c0,0.589,0.257,1.24,0.924,1.608v0.359l-0.528,0.457
		H8.417c-0.907,0-1.54,0.633-1.54,1.539c0,0.054,0.004,0.108,0.013,0.161l0.38,2.323c0.023,0.144,0.078,0.28,0.16,0.4l0.445,0.657
		l-0.11,1.504c-0.021,0.277,0.075,0.551,0.265,0.754c0.047,0.051,0.1,0.097,0.155,0.136v0.215c-0.255,0.182-0.422,0.479-0.422,0.816
		v0.73c0,0.028,0.001,0.057,0.003,0.084l0.023,0.278l-3.179,1.384l1.667-4.603c0.173-0.478-0.04-1.009-0.495-1.236l-3.355-1.672
		l3.708-1.506c0.278-0.113,0.49-0.344,0.579-0.63c0.089-0.287,0.044-0.598-0.121-0.848L3.701,6.309 M18.976,14.029l3.345,2.667
		l-2.991,0.396c-0.126,0.017-0.247,0.058-0.356,0.119L18.976,14.029 M16.345,14.978v6.24l-0.924-0.57l0.033-0.24l0.232-0.641
		c0.052-0.144,0.07-0.297,0.054-0.449l-0.066-0.609c-0.025-0.234-0.133-0.45-0.299-0.61V17.31l0.055-0.039
		c0.313-0.225,0.471-0.609,0.402-0.989l-0.154-0.866l0.604-0.393C16.304,15.008,16.325,14.994,16.345,14.978 M18.968,20.969
		l0.363,2.002l-0.365-0.21L18.968,20.969 M10.259,0.391L8.91,6.016L1.647,5.017l4.113,6.218L0,13.574l5.338,2.66L2.88,23.021
		l5.995-2.609l-0.067-0.449l-0.045-0.531v-0.73h0.422v-1.848H8.762l0.136-1.852l-0.641-0.944l-0.38-2.323
		c0-0.359,0.181-0.539,0.54-0.539h0.54l1.156-1V8.656C9.497,8.58,9.189,8.285,9.189,7.771c0-0.334,0.116-0.553,0.347-0.654
		c0.129-0.078,0.385-0.115,0.77-0.115h4.231l3.44,5.74l-0.013,10.596l2.734,1.576l-1.238-6.83l5.319-0.705l-5.694-4.541l6.022-4.121
		l-5.917-0.906l0.787-5.215l-6.029,2.97L10.259,0.391L10.259,0.391z M15.656,12.17l0.082,2.014l-1.161,0.754l0.271,1.52
		l-0.473,0.338v1.854l0.305,0.168l0.066,0.609l-0.269,0.74l-0.136,0.99l3.003,1.854v-9.735L15.656,12.17L15.656,12.17z"/>
</g>
<g>
	<linearGradient id="SVGID_6_" gradientUnits="userSpaceOnUse" x1="17.1177" y1="8.0234" x2="7.4694" y2="31.0533">
		<stop  offset="0" style="stop-color:#BB925B"/>
		<stop  offset="0.3429" style="stop-color:#FFF6DA"/>
		<stop  offset="0.6571" style="stop-color:#FFF1B1"/>
		<stop  offset="1" style="stop-color:#B38B54"/>
	</linearGradient>
	<path fill="url(#SVGID_6_)" d="M13.911,7.912l2.147,3.44c-0.104-0.036-0.213-0.054-0.322-0.054c-0.173,0-0.346,0.045-0.501,0.135
		c-0.309,0.178-0.499,0.508-0.499,0.865v1.371l-0.6,0.551c-0.206,0.189-0.323,0.456-0.323,0.736v1.019
		c-0.233,0.184-0.384,0.468-0.384,0.788v1.848c0,0.32,0.15,0.604,0.384,0.788v0.35c-0.233,0.184-0.384,0.468-0.384,0.788v1.848
		c0,0.32,0.15,0.604,0.384,0.788v0.35c-0.233,0.184-0.384,0.468-0.384,0.788v1.848c0,0.32,0.15,0.604,0.384,0.788v0.983
		c0,0.178,0.047,0.352,0.137,0.505l0.786,1.344v0.575H8.807v-0.585l0.757-1.35c0.084-0.149,0.128-0.318,0.128-0.489v-0.954
		c0.257-0.181,0.424-0.479,0.424-0.817v-1.848c0-0.338-0.167-0.636-0.423-0.817v-0.291c0.257-0.181,0.424-0.479,0.424-0.817v-1.848
		c0-0.338-0.167-0.637-0.424-0.817v-0.293c0.257-0.181,0.424-0.479,0.424-0.817v-1.848c0-0.338-0.167-0.637-0.424-0.817v-0.989
		c0-0.272-0.111-0.533-0.308-0.722l-0.577-0.553v-1.575h0.078c0.241,0,0.473-0.087,0.655-0.244l1.155-1.001
		c0.219-0.19,0.345-0.466,0.345-0.756v-1.54c0-0.248-0.091-0.477-0.242-0.652H13.911 M14.465,6.912h-4.231
		c-0.385,0-0.642,0.039-0.77,0.115C9.233,7.129,9.118,7.35,9.118,7.683c0,0.512,0.307,0.806,0.923,0.882v1.54l-1.155,1.001H8.348
		c-0.359,0-0.54,0.18-0.54,0.538v2.464l0.885,0.848v1.807h0.424v1.848H8.693v1.928h0.424v1.848H8.693v1.926h0.423v1.848H8.692v1.771
		l-0.885,1.578v1.307c0,0.361,0.181,0.539,0.54,0.539h6.85c0.359,0,0.539-0.178,0.539-0.539v-1.307l-0.923-1.578v-1.771h-0.384
		v-1.848h0.384v-1.926h-0.384v-1.848h0.384v-1.926h-0.384v-1.848h0.384v-1.807l0.923-0.848v-1.811l1.54,0.887h-0.001V24l-0.54,0.271
		c-0.408,0.229-0.717,0.436-0.923,0.615c-0.229,0.205-0.282,0.424-0.151,0.652c0.078,0.128,0.181,0.19,0.308,0.19
		c0.08,0,0.169-0.024,0.268-0.073l1.81-0.889V12.646L14.465,6.912L14.465,6.912z"/>
</g>
</svg>
