<?xml version="1.0" encoding="utf-8"?>
<!-- Generator: Adobe Illustrator 16.0.0, SVG Export Plug-In . SVG Version: 6.00 Build 0)  -->
<!DOCTYPE svg PUBLIC "-//W3C//DTD SVG 1.1//EN" "http://www.w3.org/Graphics/SVG/1.1/DTD/svg11.dtd">
<svg version="1.1" id="图层_1" xmlns="http://www.w3.org/2000/svg" xmlns:xlink="http://www.w3.org/1999/xlink" x="0px" y="0px"
	 width="92px" height="31.5px" viewBox="0 0 92 31.5" enable-background="new 0 0 92 31.5" xml:space="preserve">
<rect fill="none" width="92" height="31.5"/>
<g>
	<g>
		
			<linearGradient id="SVGID_1_" gradientUnits="userSpaceOnUse" x1="-686.4551" y1="-52.9238" x2="-685.2543" y2="-53.7846" gradientTransform="matrix(90.5848 0 0 11.0562 62150.6367 605.9602)">
			<stop  offset="0.3153" style="stop-color:#000000"/>
			<stop  offset="0.6059" style="stop-color:#FFD400"/>
			<stop  offset="0.9113" style="stop-color:#FF0000"/>
		</linearGradient>
		<path fill="url(#SVGID_1_)" d="M53.805,16.461c0-0.224-0.078-0.415-0.236-0.572c-0.154-0.155-0.344-0.232-0.567-0.232
			s-0.415,0.077-0.571,0.232c-0.156,0.157-0.232,0.349-0.232,0.572c0,0.223,0.076,0.413,0.232,0.568
			c0.156,0.158,0.348,0.236,0.571,0.236s0.413-0.078,0.567-0.236C53.727,16.874,53.805,16.686,53.805,16.461z M2.377,11.257
			c2.377,0.732,4.884,1.029,7.52,0.889c11.378-0.462,22.542-0.521,33.489-0.178c0.61-0.641,0.582-1.409-0.084-2.306
			c1.559-0.418,2.602,0.387,3.131,2.415h2.34l0.435,0.543c18.56-0.04,32.681,0.977,42.367,3.047
			c-5.397,1.267-17.763,1.899-37.093,1.899l-0.271,0.281h-4.986l-0.451,0.213H46.27c-0.528,0.487-0.372,1.213,0.468,2.178
			c-1.57,0.878-2.724,0.205-3.46-2.021c-10.783,0.404-21.969,0.404-33.558,0c-2.601-0.089-5.066,0.293-7.396,1.146
			C0.528,16.593,0.546,13.89,2.377,11.257z"/>
	</g>
</g>
<path fill="none" d="M53.001,92.49c-0.224,0-0.415,0.077-0.571,0.232c-0.156,0.156-0.232,0.349-0.232,0.572
	c0,0.223,0.076,0.412,0.232,0.568c0.156,0.158,0.348,0.236,0.571,0.236s0.413-0.078,0.567-0.236
	c0.158-0.156,0.236-0.344,0.236-0.568s-0.078-0.416-0.236-0.572C53.414,92.567,53.225,92.49,53.001,92.49z"/>
<path fill="none" d="M32.943,86.998c0.504,0.54,0.981,1.082,1.43,1.619c2.857,0.031,5.701,0.088,8.53,0.173
	C39.51,87.396,35.962,86.987,32.943,86.998z"/>
<linearGradient id="SVGID_2_" gradientUnits="userSpaceOnUse" x1="-686.5176" y1="-46.0615" x2="-685.3168" y2="-46.9222" gradientTransform="matrix(90.5848 0 0 11.0562 62150.6367 605.9602)">
	<stop  offset="0.3153" style="stop-color:#000000"/>
	<stop  offset="0.6059" style="stop-color:#FFD400"/>
	<stop  offset="0.9113" style="stop-color:#FF0000"/>
</linearGradient>
<path fill="url(#SVGID_2_)" d="M9.897,88.979c-2.636,0.14-5.143-0.157-7.52-0.89c-1.831,2.634-1.849,5.336-0.053,8.107
	c2.33-0.854,4.795-1.236,7.396-1.146c9.831,0.343,19.354,0.377,28.605,0.138c-4.036-4.019-8.989-5.839-13.475-6.572
	C19.906,88.663,14.926,88.775,9.897,88.979z"/>
<linearGradient id="SVGID_3_" gradientUnits="userSpaceOnUse" x1="-686.4136" y1="-45.917" x2="-685.2128" y2="-46.7777" gradientTransform="matrix(90.5848 0 0 11.0562 62150.6367 605.9602)">
	<stop  offset="0.3153" style="stop-color:#000000"/>
	<stop  offset="0.6059" style="stop-color:#FFD400"/>
	<stop  offset="0.9113" style="stop-color:#FF0000"/>
</linearGradient>
<path fill="url(#SVGID_3_)" d="M49.208,89.453l-0.435-0.543h-2.34c-0.524-2.008-1.554-2.813-3.089-2.422
	c2.717,2.649,4.314,5.099,4.314,5.099c-1.495-1.212-3.107-2.119-4.756-2.797c-2.829-0.085-5.672-0.142-8.53-0.173
	c2.175,2.604,3.688,5.07,4.516,6.556c1.464-0.04,2.939-0.067,4.389-0.122c0.736,2.227,1.89,2.898,3.46,2.021
	c-0.84-0.965-0.996-1.691-0.468-2.178h2.503l0.451-0.213h4.986l0.271-0.281c19.33,0,31.695-0.633,37.093-1.9
	C81.889,90.431,67.768,89.414,49.208,89.453z M53.568,93.863c-0.154,0.158-0.344,0.236-0.567,0.236s-0.415-0.078-0.571-0.236
	c-0.156-0.156-0.232-0.346-0.232-0.568c0-0.224,0.076-0.416,0.232-0.572c0.156-0.155,0.348-0.232,0.571-0.232
	s0.413,0.077,0.567,0.232c0.158,0.156,0.236,0.348,0.236,0.572S53.727,93.707,53.568,93.863z"/>
<linearGradient id="SVGID_4_" gradientUnits="userSpaceOnUse" x1="13.0845" y1="90.5625" x2="30.7352" y2="80.3942" gradientTransform="matrix(0.9941 -0.1089 0.1089 0.9941 -9.0483 3.1162)">
	<stop  offset="0.3505" style="stop-color:#FFE3A0"/>
	<stop  offset="1" style="stop-color:#00FFFF"/>
</linearGradient>
<path fill="url(#SVGID_4_)" d="M34.373,88.617c-0.448-0.537-0.926-1.079-1.43-1.619c-4.412,0.017-7.694,0.919-7.694,0.919
	l2.446-5.497c-3.292-2.277-7.238-3.965-11.818-4.151l-3.309,10.549c0,0,5.621-1.29,12.283-0.201
	C28.041,88.586,31.218,88.582,34.373,88.617z"/>
<linearGradient id="SVGID_5_" gradientUnits="userSpaceOnUse" x1="22.186" y1="106.3604" x2="39.8368" y2="96.1921" gradientTransform="matrix(0.9941 -0.1089 0.1089 0.9941 -9.0483 3.1162)">
	<stop  offset="0.3505" style="stop-color:#FFE3A0"/>
	<stop  offset="1" style="stop-color:#00FFFF"/>
</linearGradient>
<path fill="url(#SVGID_5_)" d="M39.639,96.602c0,0-0.256-0.543-0.75-1.429c-0.188,0.005-0.375,0.011-0.563,0.016
	C38.774,95.636,39.215,96.099,39.639,96.602z"/>
<linearGradient id="SVGID_6_" gradientUnits="userSpaceOnUse" x1="-686.4629" y1="-45.9854" x2="-685.2621" y2="-46.8461" gradientTransform="matrix(90.5848 0 0 11.0562 62150.6367 605.9602)">
	<stop  offset="0.3153" style="stop-color:#000000"/>
	<stop  offset="0.6059" style="stop-color:#FFD400"/>
	<stop  offset="0.9113" style="stop-color:#FF0000"/>
</linearGradient>
<path fill="url(#SVGID_6_)" d="M24.851,88.616c4.486,0.733,9.439,2.554,13.475,6.572c0.188-0.005,0.375-0.011,0.563-0.016
	c-0.829-1.485-2.341-3.951-4.516-6.556C31.218,88.582,28.041,88.586,24.851,88.616z"/>
<linearGradient id="SVGID_7_" gradientUnits="userSpaceOnUse" x1="26.8701" y1="23.5527" x2="44.5214" y2="13.3841" gradientTransform="matrix(0.9941 -0.1089 0.1089 0.9941 -9.0483 3.1162)">
	<stop  offset="0.3505" style="stop-color:#FFE3A0"/>
	<stop  offset="1" style="stop-color:#00FFFF"/>
</linearGradient>
<path fill="url(#SVGID_7_)" d="M24.875,11.785c4.486,0.733,9.439,2.554,13.475,6.573c0.188-0.006,0.375-0.012,0.563-0.016
	c-0.829-1.486-2.341-3.952-4.516-6.556C31.241,11.75,28.064,11.754,24.875,11.785z"/>
<linearGradient id="SVGID_8_" gradientUnits="userSpaceOnUse" x1="26.291" y1="90.1035" x2="41.936" y2="81.0907" gradientTransform="matrix(0.9929 -0.1191 0.1191 0.9929 -9.8818 4.894)">
	<stop  offset="0.1781" style="stop-color:#FFE3A0"/>
	<stop  offset="1" style="stop-color:#00FFFF"/>
</linearGradient>
<path fill="url(#SVGID_8_)" d="M32.943,86.998c3.02-0.011,6.567,0.397,9.959,1.792c0.161,0.005,0.323,0.006,0.484,0.011
	c0.61-0.641,0.582-1.408-0.084-2.305c0.015-0.004,0.027-0.004,0.042-0.008c-3.406-3.321-8.573-6.959-14.574-6.484l-1.075,2.416
	C29.687,83.797,31.439,85.386,32.943,86.998z"/>
<linearGradient id="SVGID_9_" gradientUnits="userSpaceOnUse" x1="-686.5342" y1="-46.0859" x2="-685.3334" y2="-46.9467" gradientTransform="matrix(90.5848 0 0 11.0562 62150.6367 605.9602)">
	<stop  offset="0.3153" style="stop-color:#000000"/>
	<stop  offset="0.6059" style="stop-color:#FFD400"/>
	<stop  offset="0.9113" style="stop-color:#FF0000"/>
</linearGradient>
<path fill="url(#SVGID_9_)" d="M43.386,88.801c-0.161-0.005-0.323-0.006-0.484-0.011c1.648,0.678,3.261,1.585,4.756,2.797
	c0,0-1.598-2.449-4.314-5.099c-0.015,0.004-0.027,0.004-0.042,0.008C43.968,87.393,43.996,88.16,43.386,88.801z"/>
<linearGradient id="SVGID_10_" gradientUnits="userSpaceOnUse" x1="40.126" y1="21.9199" x2="55.7727" y2="12.9061" gradientTransform="matrix(0.9929 -0.1191 0.1191 0.9929 -9.8818 4.894)">
	<stop  offset="0.1781" style="stop-color:#FFE3A0"/>
	<stop  offset="1" style="stop-color:#00FFFF"/>
</linearGradient>
<path fill="url(#SVGID_10_)" d="M43.41,11.969c-0.161-0.005-0.323-0.006-0.484-0.011c1.648,0.678,3.261,1.585,4.756,2.797
	c0,0-1.598-2.449-4.314-5.099c-0.015,0.004-0.027,0.004-0.042,0.008C43.991,10.561,44.02,11.329,43.41,11.969z"/>
<linearGradient id="SVGID_11_" gradientUnits="userSpaceOnUse" x1="15.126" y1="94.1055" x2="32.7767" y2="83.9372" gradientTransform="matrix(0.9941 -0.1089 0.1089 0.9941 -9.0483 3.1162)">
	<stop  offset="0.3505" style="stop-color:#FFE3A0"/>
	<stop  offset="1" style="stop-color:#00FFFF"/>
</linearGradient>
<path fill="url(#SVGID_11_)" d="M32.943,86.998c-1.503-1.612-3.256-3.201-5.248-4.578l-2.446,5.497
	C25.249,87.917,28.531,87.015,32.943,86.998z"/>
<linearGradient id="SVGID_12_" gradientUnits="userSpaceOnUse" x1="24.6914" y1="87.3281" x2="40.3364" y2="78.3153" gradientTransform="matrix(0.9929 -0.1191 0.1191 0.9929 -9.8818 4.894)">
	<stop  offset="0.1781" style="stop-color:#FFE3A0"/>
	<stop  offset="1" style="stop-color:#00FFFF"/>
</linearGradient>
<path fill="url(#SVGID_12_)" d="M32.943,86.998c-1.503-1.612-3.256-3.201-5.248-4.578l-2.446,5.497
	C25.249,87.917,28.531,87.015,32.943,86.998z"/>
<g>
	<g>
		<g>
			<linearGradient id="SVGID_13_" gradientUnits="userSpaceOnUse" x1="90.666" y1="8.2222" x2="1.4109" y2="19.1163">
				<stop  offset="0" style="stop-color:#BB925B"/>
				<stop  offset="0.3429" style="stop-color:#FFF6DA"/>
				<stop  offset="0.6571" style="stop-color:#FFF1B1"/>
				<stop  offset="1" style="stop-color:#B38B54"/>
			</linearGradient>
			<path fill="url(#SVGID_13_)" d="M44.821,10.912c0.222,0.252,0.453,0.682,0.644,1.417c0.115,0.439,0.513,0.747,0.968,0.747h1.86
				l0.135,0.168c0.189,0.237,0.477,0.375,0.78,0.375c0.001,0,0.001,0,0.002,0l1.023-0.001c14.4,0,26.173,0.659,35.12,1.963
				c-6.604,0.649-16.83,0.98-30.552,0.985c0.002-0.035,0.003-0.07,0.003-0.105c0-0.495-0.185-0.939-0.527-1.277
				c-0.343-0.345-0.784-0.527-1.276-0.527c-0.49,0-0.932,0.181-1.278,0.525c-0.344,0.344-0.525,0.786-0.525,1.279
				c0,0.133,0.014,0.262,0.039,0.387h-2.012c-0.147,0-0.293,0.032-0.427,0.096l-0.248,0.117h-2.28c-0.251,0-0.493,0.095-0.678,0.265
				c-0.329,0.303-0.876,1.009-0.498,2.125c-0.408-0.322-0.706-1.061-0.867-1.548c-0.136-0.41-0.519-0.686-0.949-0.686
				c-0.013,0-0.025,0-0.038,0.001c-5.354,0.2-10.885,0.302-16.439,0.302c-5.555,0-11.291-0.102-17.046-0.302
				c-0.259-0.01-0.517-0.014-0.773-0.014c-2.148,0-4.233,0.319-6.212,0.95c-1.047-1.966-1.031-3.852,0.049-5.73
				c1.864,0.501,3.819,0.755,5.823,0.755c0.431,0,0.871-0.012,1.296-0.034c6.48-0.263,12.986-0.396,19.334-0.396
				c4.709,0,9.447,0.073,14.083,0.219c0.01,0,0.021,0,0.031,0c0.273,0,0.535-0.112,0.724-0.311
				C44.388,12.365,44.836,11.761,44.821,10.912 M44.056,9.555c-0.236,0-0.488,0.036-0.754,0.107
				c0.666,0.896,0.694,1.664,0.084,2.305c-4.666-0.146-9.37-0.219-14.114-0.219c-6.387,0-12.846,0.133-19.375,0.397
				c-0.422,0.022-0.84,0.033-1.255,0.033c-2.179,0-4.268-0.308-6.265-0.923c-1.831,2.634-1.849,5.336-0.053,8.107
				c2.108-0.772,4.327-1.159,6.658-1.159c0.245,0,0.491,0.004,0.738,0.013c5.794,0.202,11.488,0.303,17.081,0.303
				c5.593,0,11.085-0.101,16.477-0.303c0.528,1.597,1.271,2.394,2.228,2.394c0.377,0,0.789-0.124,1.233-0.372
				c-0.84-0.965-0.996-1.691-0.468-2.178h2.503l0.451-0.213h4.986l0.271-0.281c19.33,0,31.695-0.633,37.093-1.9
				c-9.508-2.031-23.286-3.048-41.342-3.048c-0.34,0-0.683,0-1.025,0.001l-0.435-0.543h-2.34
				C45.994,10.396,45.203,9.555,44.056,9.555L44.056,9.555z M53.001,17.266c-0.224,0-0.415-0.078-0.571-0.236
				c-0.156-0.156-0.232-0.346-0.232-0.568c0-0.224,0.076-0.416,0.232-0.572c0.156-0.155,0.348-0.232,0.571-0.232
				s0.413,0.077,0.567,0.232c0.158,0.156,0.236,0.348,0.236,0.572s-0.078,0.412-0.236,0.568
				C53.414,17.188,53.225,17.266,53.001,17.266L53.001,17.266z"/>
		</g>
	</g>
</g>
</svg>
