<?xml version="1.0" encoding="utf-8"?>
<!-- Generator: Adobe Illustrator 16.0.0, SVG Export Plug-In . SVG Version: 6.00 Build 0)  -->
<!DOCTYPE svg PUBLIC "-//W3C//DTD SVG 1.1//EN" "http://www.w3.org/Graphics/SVG/1.1/DTD/svg11.dtd">
<svg version="1.1" id="图层_1" xmlns="http://www.w3.org/2000/svg" xmlns:xlink="http://www.w3.org/1999/xlink" x="0px" y="0px"
	 width="69.25px" height="32px" viewBox="0 0 69.25 32" enable-background="new 0 0 69.25 32" xml:space="preserve">
<rect fill="none" width="69.25" height="32"/>
<g>
	<rect x="-0.056" fill="none" width="69.25" height="32"/>
	<g>
		<g>
			<g>
				
					<linearGradient id="SVGID_1_" gradientUnits="userSpaceOnUse" x1="-533.2021" y1="31.7051" x2="-534.31" y2="32.5645" gradientTransform="matrix(68.7803 0 0 25.424 36736.832 -805.3848)">
					<stop  offset="0.2512" style="stop-color:#FF0000"/>
					<stop  offset="0.5665" style="stop-color:#FFD400"/>
					<stop  offset="0.8571" style="stop-color:#000000"/>
				</linearGradient>
				<path fill="url(#SVGID_1_)" d="M68.819,4.92c-0.06-0.35-0.15-0.67-0.27-0.93l-0.221-0.27H54.64l-0.32,0.13l-0.31-0.04H43.35
					l-0.4-0.18l-0.31,0.18h-4.641V5.1h-1.34v0.63h-0.89V5.01l-0.311-0.4L35.14,4.66V3.85l-0.26-0.31h-2.23v1.2h-9.37v0.14h-5.44V4.7
					h-9.72l-0.27-0.22l-2.86-0.05l-0.71-0.4v0.76l-0.94,1.78l-0.58,2.9l-1.34-0.85l-0.22,1.17c-0.15-0.06-0.31-0.08-0.49-0.05
					c-0.33,0-0.52,0.15-0.58,0.45c-0.03,0.24,0.06,0.43,0.27,0.58c0.09,0.06,0.19,0.09,0.31,0.09l1.65,0.18L2.27,11.7
					c-0.06,0.48-0.07,0.82-0.04,1.03c0,0.15,0.12,0.27,0.36,0.36c0.17,0.06,0.56,0.19,1.15,0.4c0.6,0.2,0.98,0.4,1.16,0.57
					c0.24,0.21,0.32,0.5,0.23,0.85c-0.03,0.15-0.14,0.42-0.31,0.8c-0.39,0.78-0.6,1.21-0.63,1.3C3.54,18.44,3,19.97,2.589,21.6
					c-0.39,1.61-0.67,3.301-0.85,5.091c-0.06,0.89-0.09,1.619-0.09,2.18l9.59,0.09l-0.49-0.71l0.09-1.07l2.27-9.63l0.31,0.08
					c0.27,0.04,0.54,0,0.81-0.08c0.32-0.069,0.55-0.109,0.67-0.14c0.11,0,0.34,0.03,0.66,0.09c0.3,0.03,0.69,0.15,1.16,0.36
					c0.27,0.09,0.5,0.18,0.67,0.26l4.64-0.17c0.39-0.03,0.63-0.08,0.71-0.141c0.15-0.06,0.3-0.22,0.45-0.489
					c1.07-2.58,1.67-4.041,1.78-4.37c0.1-0.21,0.21-0.37,0.36-0.49c0.06-0.06,0.12-0.09,0.18-0.09h10.12l0.091-1.51l0.229-0.18V9.92
					L35.72,9.74V8.18h0.939v0.67h1.521v0.8h4.5l0.399,0.14L43.35,9.6h10.66l0.27-0.08l0.18,0.13h13.86c0.07-0.12,0.13-0.25,0.18-0.4
					c0.15-0.33,0.24-0.64,0.271-0.94c0.09-0.44,0.13-1.02,0.13-1.74C68.879,5.92,68.85,5.37,68.819,4.92z M23.819,13.49l-0.67,1.87
					c-0.45,1.25-0.75,1.92-0.89,2.01c-0.12,0.05-0.78,0.1-1.97,0.13c-1.24,0-1.97-0.03-2.18-0.09c-0.15-0.09-0.48-0.12-0.98-0.09
					c-0.6,0-1.03-0.021-1.3-0.04c-0.44-0.09-0.83-0.25-1.16-0.49c-0.32-0.24-0.58-0.54-0.75-0.9c-0.18-0.38-0.21-0.8-0.09-1.24
					c0.09-0.42,0.29-0.81,0.62-1.16c0.24-0.24,0.63-0.45,1.16-0.63c0.27-0.09,0.51-0.15,0.71-0.18c-0.17,0.15-0.34,0.34-0.49,0.58
					c-0.38,0.51-0.61,1.06-0.67,1.65c-0.03,0.36,0.08,0.81,0.32,1.34c0.09,0.3,0.21,0.55,0.35,0.76l0.32-0.22
					c-0.06-0.12-0.12-0.271-0.18-0.45c-0.09-0.39-0.12-0.68-0.09-0.89c0.03-0.42,0.15-0.79,0.35-1.12c0.03-0.06,0.21-0.29,0.54-0.71
					c0.21-0.24,0.56-0.61,1.07-1.12l5.08-0.04l0.32,0.04c0.2,0.06,0.37,0.15,0.49,0.27c0.06,0.12,0.09,0.27,0.09,0.45V13.49z"/>
			</g>
		</g>
	</g>
	<g>
		
			<linearGradient id="SVGID_2_" gradientUnits="userSpaceOnUse" x1="-857.3682" y1="42.9854" x2="-858.0272" y2="42.9854" gradientTransform="matrix(34.5122 0 0 13.1527 29624.9766 -556.8325)">
			<stop  offset="0" style="stop-color:#00FFFF"/>
			<stop  offset="0.6495" style="stop-color:#FFE3A0"/>
		</linearGradient>
		<path fill="url(#SVGID_2_)" d="M33.52,12.37C27.77,8.5,20.79,5.94,12.599,4.7h5.24v0.18h5.44V4.74h2.87
			c2.86,2.27,5.47,4.81,7.84,7.63H33.52z"/>
	</g>
	<g>
		<linearGradient id="SVGID_3_" gradientUnits="userSpaceOnUse" x1="46.5244" y1="5.6304" x2="38.0012" y2="5.6304">
			<stop  offset="0" style="stop-color:#00FFFF"/>
			<stop  offset="0.8219" style="stop-color:#FFE3A0"/>
		</linearGradient>
		<path fill="url(#SVGID_3_)" d="M46.02,7.45c-2.49-1.39-5.17-2.54-8.021-3.42V3.81h3.891C43.319,4.94,44.699,6.16,46.02,7.45z"/>
	</g>
	<g>
		<g>
			<g>
				<g>
					<linearGradient id="SVGID_4_" gradientUnits="userSpaceOnUse" x1="17.8584" y1="38.2285" x2="45.4183" y2="-9.5067">
						<stop  offset="0" style="stop-color:#BB925B"/>
						<stop  offset="0.3429" style="stop-color:#FFF6DA"/>
						<stop  offset="0.6571" style="stop-color:#FFF1B1"/>
						<stop  offset="1" style="stop-color:#B38B54"/>
					</linearGradient>
					<path fill="url(#SVGID_4_)" d="M34.14,4.54v0.12c0,0.292,0.128,0.57,0.35,0.76c0.084,0.072,0.179,0.128,0.28,0.169V5.73
						c0,0.552,0.447,1,1,1h0.89c0.422,0,0.782-0.261,0.93-0.63h0.41c0.553,0,1-0.448,1-1V4.81h3.641
						c0.122,0,0.242-0.022,0.354-0.065c0.113,0.043,0.234,0.065,0.355,0.065h10.596l0.246,0.032
						c0.042,0.005,0.085,0.008,0.128,0.008c0.128,0,0.256-0.025,0.376-0.073l0.14-0.057h12.917c0.025,0.09,0.051,0.196,0.073,0.32
						c0.028,0.43,0.056,0.949,0.074,1.53c0,0.666-0.037,1.184-0.109,1.54c-0.007,0.033-0.012,0.066-0.016,0.1
						c-0.014,0.137-0.05,0.282-0.108,0.44H54.772c-0.151-0.085-0.321-0.13-0.493-0.13c-0.096,0-0.191,0.014-0.285,0.042L53.864,8.6
						H43.35c-0.141,0-0.278,0.029-0.404,0.085C42.858,8.662,42.77,8.65,42.68,8.65h-3.521c-0.092-0.457-0.496-0.8-0.979-0.8h-0.576
						c-0.137-0.39-0.508-0.67-0.944-0.67H35.72c-0.553,0-1,0.448-1,1v1.56c0,0.202,0.061,0.396,0.171,0.56
						c-0.099,0.147-0.159,0.319-0.169,0.5l-0.035,0.57h-9.178c-0.306,0-0.603,0.12-0.842,0.34c-0.105,0.088-0.201,0.187-0.288,0.298
						c-0.227-0.208-0.513-0.364-0.853-0.466c-0.053-0.016-0.107-0.027-0.163-0.034l-0.32-0.04c-0.041-0.005-0.083-0.008-0.124-0.008
						c-0.002,0-0.005,0-0.008,0l-5.08,0.04c-0.262,0.002-0.513,0.107-0.699,0.292c-0.049,0.049-0.097,0.097-0.144,0.145
						c-0.182-0.163-0.419-0.257-0.669-0.257c-0.049,0-0.098,0.003-0.147,0.011c-0.261,0.039-0.557,0.113-0.885,0.222
						c-0.688,0.234-1.194,0.519-1.565,0.891c-0.439,0.465-0.73,1.007-0.865,1.61c-0.173,0.661-0.119,1.319,0.158,1.903
						c0.038,0.08,0.078,0.157,0.122,0.233c-0.009,0-0.019,0-0.028,0c-0.181,0-0.359,0.049-0.517,0.144
						c-0.23,0.14-0.395,0.365-0.456,0.627l-2.27,9.63c-0.012,0.048-0.019,0.097-0.023,0.146l-0.071,0.851L2.673,27.88
						c0.014-0.333,0.035-0.698,0.061-1.089c0.179-1.775,0.449-3.396,0.825-4.947c0.385-1.53,0.903-3.018,1.541-4.42
						c0.015-0.033,0.015-0.032,0.026-0.065c0.039-0.097,0.237-0.5,0.606-1.24c0.221-0.494,0.324-0.767,0.372-0.983
						c0.173-0.707-0.025-1.371-0.519-1.803c-0.311-0.293-0.811-0.552-1.51-0.784c-0.36-0.128-0.646-0.227-0.855-0.299
						c0.006-0.107,0.019-0.243,0.04-0.415l0.09-0.66c0.037-0.267-0.037-0.538-0.203-0.75c-0.007-0.008-0.013-0.017-0.02-0.024
						c0.008-0.003,0.017-0.007,0.025-0.01c0.303-0.129,0.523-0.4,0.587-0.723l0.552-2.758l0.78-1.477l2.414,0.042l0.002,0.001
						C7.666,5.621,7.889,5.7,8.119,5.7h9.148c0.162,0.113,0.359,0.18,0.572,0.18h5.44c0.187,0,0.361-0.051,0.51-0.14h8.86
						c0.552,0,1-0.448,1-1v-0.2H34.14 M34.879,3.54h-2.23v1.2h-9.37v0.14h-5.44V4.7h-9.72l-0.27-0.22l-2.86-0.05l-0.71-0.4v0.76
						l-0.94,1.78l-0.58,2.9l-1.34-0.85l-0.22,1.17C1.096,9.749,0.988,9.726,0.872,9.726c-0.052,0-0.106,0.005-0.162,0.014
						c-0.33,0-0.52,0.15-0.58,0.45c-0.03,0.24,0.06,0.43,0.27,0.58c0.09,0.06,0.19,0.09,0.31,0.09l1.65,0.18L2.27,11.7
						c-0.06,0.48-0.07,0.82-0.04,1.03c0,0.15,0.12,0.27,0.36,0.36c0.17,0.06,0.56,0.19,1.15,0.4c0.6,0.2,0.98,0.4,1.16,0.57
						c0.24,0.21,0.32,0.5,0.23,0.85c-0.03,0.15-0.14,0.42-0.31,0.8c-0.39,0.78-0.6,1.21-0.63,1.3C3.54,18.44,3,19.97,2.589,21.6
						c-0.39,1.61-0.67,3.301-0.85,5.091c-0.06,0.89-0.09,1.619-0.09,2.18l9.59,0.09l-0.49-0.71l0.09-1.07l2.27-9.63l0.31,0.08
						c0.072,0.011,0.145,0.016,0.217,0.016c0.197,0,0.395-0.037,0.593-0.096c0.32-0.069,0.55-0.109,0.67-0.14
						c0.11,0,0.34,0.03,0.66,0.09c0.3,0.03,0.69,0.15,1.16,0.36c0.27,0.09,0.5,0.18,0.67,0.26l4.64-0.17
						c0.39-0.03,0.63-0.08,0.71-0.141c0.15-0.06,0.3-0.22,0.45-0.489c1.07-2.58,1.67-4.041,1.78-4.37c0.1-0.21,0.21-0.37,0.36-0.49
						c0.06-0.06,0.12-0.09,0.18-0.09h10.12l0.091-1.51l0.229-0.18V9.92L35.72,9.74V8.18h0.939v0.67h1.521v0.8h4.5l0.399,0.14
						L43.35,9.6h10.66l0.27-0.08l0.18,0.13h13.86c0.07-0.12,0.13-0.25,0.18-0.4c0.15-0.33,0.24-0.64,0.271-0.94
						c0.09-0.44,0.13-1.02,0.13-1.74c-0.021-0.65-0.05-1.2-0.08-1.65c-0.06-0.35-0.15-0.67-0.27-0.93l-0.221-0.27H54.64l-0.32,0.13
						l-0.31-0.04H43.35l-0.4-0.18l-0.31,0.18h-4.641V5.1h-1.34v0.63h-0.89V5.01l-0.311-0.4L35.14,4.66V3.85L34.879,3.54L34.879,3.54
						z M15.829,17.01l0.32-0.22c-0.06-0.12-0.12-0.271-0.18-0.45c-0.09-0.39-0.12-0.68-0.09-0.89c0.03-0.42,0.15-0.79,0.35-1.12
						c0.03-0.06,0.21-0.29,0.54-0.71c0.21-0.24,0.56-0.61,1.07-1.12l5.08-0.04l0.32,0.04c0.2,0.06,0.37,0.15,0.49,0.27
						c0.06,0.12,0.09,0.27,0.09,0.45v0.27l-0.67,1.87c-0.45,1.25-0.75,1.92-0.89,2.01c-0.12,0.05-0.78,0.1-1.97,0.13
						c-1.24,0-1.97-0.03-2.18-0.09c-0.112-0.067-0.326-0.102-0.636-0.102c-0.104,0-0.218,0.004-0.344,0.012
						c-0.6,0-1.03-0.021-1.3-0.04c-0.44-0.09-0.83-0.25-1.16-0.49c-0.32-0.24-0.58-0.54-0.75-0.9c-0.18-0.38-0.21-0.8-0.09-1.24
						c0.09-0.42,0.29-0.81,0.62-1.16c0.24-0.24,0.63-0.45,1.16-0.63c0.27-0.09,0.51-0.15,0.71-0.18c-0.17,0.15-0.34,0.34-0.49,0.58
						c-0.38,0.51-0.61,1.06-0.67,1.65c-0.03,0.36,0.08,0.81,0.32,1.34C15.569,16.55,15.689,16.8,15.829,17.01L15.829,17.01z"/>
				</g>
			</g>
		</g>
	</g>
</g>
<g>
	<g>
		<g>
			<path fill="#7A4621" d="M11.5,24.975l4.594,3.828L26.2,29.109c3.471-0.408,6.329-1.328,8.575-2.758
				c2.959-4.102,5.536-6.151,7.726-6.151c-1.487-0.593-3.188-0.351-5.104,0.729c-1.918,1.078-3.862-0.016-5.836-3.283
				c-1.837-1.226-5.438-0.336-8.388,1.095L26.2,14l-8.864,2.918L11.5,24.975z"/>
		</g>
	</g>
</g>
<g>
	
		<linearGradient id="SVGID_5_" gradientUnits="userSpaceOnUse" x1="-520.8037" y1="77.7266" x2="-519.8029" y2="78.7291" gradientTransform="matrix(25.1118 0 0 10.4122 13093.2051 -792.3687)">
		<stop  offset="0.6071" style="stop-color:#FFF6DA"/>
		<stop  offset="1" style="stop-color:#D6BB7E"/>
	</linearGradient>
	<path fill="url(#SVGID_5_)" d="M21.569,16.553h-2.601L13.95,26.965h2.333l0.772-1.766h2.089l-0.136,1.766h2.231L21.569,16.553z
		 M19.685,19.176l-0.381,4.422h-1.572L19.685,19.176z M31.329,18.209c0-1.082-1.011-1.656-2.913-1.656
		c-2.356,0-3.435,0.752-3.997,2.686l-1.408,4.853c-0.176,0.568-0.21,0.853-0.21,1.114c0,1.145,1.062,1.761,3.032,1.761
		c1.084,0,1.936-0.187,2.532-0.569c0.642-0.426,1.045-1.08,1.357-2.225l0.335-1.183h-2.231l-0.369,1.282
		c-0.261,0.934-0.591,1.211-1.38,1.211c-0.607,0-0.942-0.221-0.942-0.627c0-0.125,0.04-0.336,0.108-0.599l1.499-5.157
		c0.227-0.767,0.596-1.072,1.329-1.072c0.607,0,0.937,0.221,0.937,0.611c0,0.168-0.051,0.379-0.153,0.78l-0.278,1.005h2.231
		l0.346-1.215C31.278,18.793,31.329,18.473,31.329,18.209z M39.063,16.553h-5.967l-2.839,10.412h6.139l0.437-1.598h-3.872
		l0.869-3.26h3.49l0.438-1.573h-3.492l0.665-2.407h3.696L39.063,16.553z"/>
</g>
</svg>
