<?xml version="1.0" encoding="utf-8"?>
<!-- Generator: Adobe Illustrator 16.0.0, SVG Export Plug-In . SVG Version: 6.00 Build 0)  -->
<!DOCTYPE svg PUBLIC "-//W3C//DTD SVG 1.1//EN" "http://www.w3.org/Graphics/SVG/1.1/DTD/svg11.dtd">
<svg version="1.1" id="图层_1" xmlns="http://www.w3.org/2000/svg" xmlns:xlink="http://www.w3.org/1999/xlink" x="0px" y="0px"
	 width="72px" height="32px" viewBox="0 0 72 32" enable-background="new 0 0 72 32" xml:space="preserve">
<rect x="0.001" fill="none" width="72" height="32"/>
<g>
	<g>
		<g>
			<g>
				<g>
					
						<linearGradient id="SVGID_1_" gradientUnits="userSpaceOnUse" x1="-876.4263" y1="42.7471" x2="-875.2062" y2="42.1805" gradientTransform="matrix(71.2284 0 0 13.4198 62410.7031 -553.0254)">
						<stop  offset="0.2463" style="stop-color:#000000"/>
						<stop  offset="0.532" style="stop-color:#FFD400"/>
						<stop  offset="0.8325" style="stop-color:#FF0000"/>
					</linearGradient>
					<path fill="url(#SVGID_1_)" d="M2.486,19.214C2.26,19.045,2.007,18.96,1.725,18.96c-0.263,0.021-0.479,0.084-0.648,0.198
						c-0.114,0.093-0.228,0.244-0.338,0.451c-0.094,0.168-0.131,0.354-0.113,0.563c0,0.171,0.036,0.331,0.113,0.479
						c0.037,0.15,0.159,0.291,0.365,0.425c0.188,0.112,0.367,0.179,0.537,0.196c0.205,0.02,0.403-0.039,0.591-0.17
						c0.149-0.056,0.3-0.168,0.45-0.338c0.113-0.132,0.191-0.311,0.227-0.535c0.018-0.209-0.008-0.387-0.085-0.535
						C2.75,19.505,2.637,19.345,2.486,19.214z M71.228,14.506c-0.525,0.604-1.24,1.26-2.143,1.973
						c-1.787,1.467-3.523,2.547-5.217,3.242c-1.953,0.827-3.861,1.459-5.723,1.893c-1.654,0.395-3.524,0.676-5.609,0.846
						c-1.656,0.131-4.598,0.216-8.826,0.252h-5.837v-0.534l-0.396-0.509l-0.479-0.025l-0.284,0.365l-0.507-0.141
						c-0.037-0.434-0.131-0.903-0.282-1.411c-0.319-1.015-0.751-1.701-1.298-2.058c-0.713-0.453-1.361-0.771-1.945-0.959
						c-0.639-0.207-1.334-0.291-2.084-0.254c-0.734,0.057-1.373,0.196-1.918,0.422c-0.49,0.188-1.007,0.51-1.552,0.959
						c-0.469,0.356-0.78,0.563-0.93,0.619c-0.058,0.037-0.132,0.058-0.228,0.058c-0.15,0-0.263,0.009-0.337,0.028
						c-0.227,0.021-0.499-0.104-0.819-0.369c-0.168-0.148-0.291-0.252-0.364-0.309c-0.134-0.113-0.228-0.18-0.283-0.195
						c-0.131-0.057-0.912-0.057-2.34,0c-1.071,0.037-2.049,0.095-2.934,0.168c-2.931,0.207-4.971,0.388-6.118,0.537
						c-1.033,0.131-2.021,0.271-2.961,0.422c-1.165,0.188-1.832,0.311-2.001,0.365c-0.132,0.039-0.799,0.338-2.003,0.902
						c-1.258,0.583-2,0.913-2.226,0.987c-0.415,0.169-0.725,0.271-0.933,0.311c-0.355,0.093-0.674,0.093-0.958,0
						c-0.3-0.075-0.573-0.196-0.818-0.368c-0.225-0.131-0.366-0.262-0.422-0.393c-0.15-0.188-0.255-0.378-0.312-0.564
						c-0.111-0.283-0.159-0.574-0.139-0.875c0.018-0.357,0.028-0.574,0.028-0.648c0.017-0.112,0.084-0.329,0.196-0.648
						c0.133-0.355,0.62-1.335,1.466-2.932c0.865-1.617,1.374-2.501,1.524-2.651c0.17-0.186,0.283-0.29,0.34-0.31
						c0.075-0.057,0.169-0.085,0.282-0.085c0.018,0,0.168,0.02,0.451,0.057c0.207,0.038,0.366,0.028,0.48-0.028
						c0.112-0.055,0.187-0.149,0.226-0.28v-0.196l0.535,0.167l0.48-0.337l1.494-0.254c0.677-0.169,1.409-0.339,2.198-0.508
						c2.576-0.525,5.292-0.957,8.149-1.297c2.857-0.338,6.502-0.545,10.94-0.621c2.199-0.036,4.126-0.036,5.779,0l0.48,0.453
						l0.649-0.338l0.646,0.394l0.481-0.394l0.534,0.45l0.678-0.338l0.563,0.479l0.59-0.338l0.623,0.367l0.535-0.283l0.65,0.392
						l0.593-0.281l0.45,0.423l0.592-0.281l0.51,0.478l0.733-0.283l0.563,0.425l0.729-0.283l0.479,0.453l0.621-0.283l1.605,0.283
						c1.26,0.205,2.396,0.433,3.414,0.676c1.033,0.226,2.779,0.742,5.243,1.551c1.259,0.396,2.407,0.779,3.44,1.156l0.194,0.057
						c0.151,0.057,0.304,0.104,0.453,0.143c0.489,0.074,0.874,0.018,1.155-0.17c0.281-0.207,0.423-0.441,0.423-0.703
						c0.021-0.151-0.021-0.36-0.114-0.623c-0.057-0.131-0.329-0.355-0.814-0.676c-0.51-0.281-0.996-0.509-1.47-0.678
						c-0.147-0.037-0.448-0.143-0.901-0.311c-0.149-0.018-0.244-0.064-0.28-0.142c-0.039-0.095-0.039-0.179,0-0.253
						c0.019-0.132,0.112-0.217,0.28-0.253c0.133-0.058,0.236-0.085,0.312-0.085c0.076,0,0.216,0.02,0.425,0.057
						c0.225,0.058,1.063,0.282,2.508,0.676c1.599,0.472,2.856,0.865,3.778,1.185c0.882,0.263,2.03,0.694,3.44,1.297
						C70.081,14.018,70.701,14.28,71.228,14.506z"/>
				</g>
			</g>
		</g>
	</g>
</g>
<linearGradient id="SVGID_2_" gradientUnits="userSpaceOnUse" x1="8.6387" y1="21.8438" x2="26.2901" y2="11.6751">
	<stop  offset="0.3505" style="stop-color:#FFE3A0"/>
	<stop  offset="1" style="stop-color:#00FFFF"/>
</linearGradient>
<path fill="url(#SVGID_2_)" d="M27.085,17.914c0,0-1.345-3.93-4.287-8.391c-1.851,0.104-3.5,0.242-4.946,0.412
	c-0.076,0.01-0.146,0.021-0.222,0.031C21.111,11.58,24.504,14.07,27.085,17.914z"/>
<linearGradient id="SVGID_3_" gradientUnits="userSpaceOnUse" x1="26.1304" y1="20.0801" x2="41.778" y2="11.0658" gradientTransform="matrix(0.9865 -0.1637 0.1637 0.9865 -10.2094 4.6617)">
	<stop  offset="0.1781" style="stop-color:#FFE3A0"/>
	<stop  offset="1" style="stop-color:#00FFFF"/>
</linearGradient>
<path fill="url(#SVGID_3_)" d="M25.667,9.395c2.848,0.523,5.77,1.586,8.396,3.525c0,0-1.174-1.633-3.188-3.629
	c-0.668,0.006-1.355,0.012-2.084,0.023C27.702,9.334,26.662,9.359,25.667,9.395z"/>
<g>
	<g>
		<g>
			<g>
				<g>
					<g>
						<linearGradient id="SVGID_4_" gradientUnits="userSpaceOnUse" x1="70.3008" y1="9.583" x2="0.4765" y2="22.7383">
							<stop  offset="0" style="stop-color:#BB925B"/>
							<stop  offset="0.3429" style="stop-color:#FFF6DA"/>
							<stop  offset="0.6571" style="stop-color:#FFF1B1"/>
							<stop  offset="1" style="stop-color:#B38B54"/>
						</linearGradient>
						<path fill="url(#SVGID_4_)" d="M31.887,10.289c0.808,0,1.567,0.007,2.278,0.021l0.2,0.188c0.19,0.179,0.438,0.272,0.687,0.272
							c0.158,0,0.316-0.037,0.463-0.113l0.148-0.078l0.163,0.1c0.16,0.099,0.341,0.146,0.521,0.146c0.158,0,0.316-0.038,0.46-0.112
							c0.166,0.111,0.36,0.169,0.556,0.169c0.152,0,0.305-0.034,0.446-0.105l0.085-0.042l0.06,0.051
							c0.186,0.158,0.417,0.239,0.649,0.239c0.171,0,0.342-0.044,0.497-0.132l0.086-0.05l0.123,0.072
							c0.156,0.092,0.331,0.138,0.507,0.138c0.16,0,0.32-0.038,0.467-0.115l0.036-0.02l0.168,0.101
							c0.157,0.095,0.336,0.143,0.515,0.143c0.139,0,0.277-0.028,0.407-0.087c0.182,0.15,0.407,0.229,0.636,0.229
							c0.138,0,0.275-0.028,0.405-0.086l0.013,0.012c0.188,0.177,0.435,0.271,0.684,0.271c0.121,0,0.243-0.022,0.36-0.067
							l0.215-0.083l0.12,0.091c0.176,0.133,0.388,0.201,0.602,0.201c0.122,0,0.245-0.022,0.362-0.067l0.14-0.055l0.021,0.019
							c0.189,0.18,0.437,0.273,0.687,0.273c0.141,0,0.282-0.029,0.415-0.09l0.338-0.154l1.313,0.231
							c1.209,0.197,2.333,0.42,3.362,0.665c0.987,0.216,2.718,0.729,5.156,1.529c1.295,0.406,2.406,0.78,3.398,1.141
							c0.019,0.007,0.038,0.014,0.058,0.02l0.163,0.048c0.172,0.063,0.346,0.115,0.516,0.16c0.033,0.009,0.067,0.016,0.101,0.021
							c0.189,0.029,0.373,0.044,0.546,0.044c0.507,0,0.951-0.125,1.353-0.396c0.652-0.479,0.815-1.039,0.831-1.445
							c0.026-0.296-0.028-0.624-0.172-1.023c-0.002-0.008-0.005-0.015-0.008-0.022c1.04,0.315,1.912,0.595,2.617,0.837
							c0.859,0.257,1.981,0.681,3.338,1.26l0.091,0.039c0.14,0.059,0.275,0.116,0.408,0.172c-0.305,0.274-0.646,0.561-1.024,0.858
							c-1.702,1.398-3.372,2.438-4.972,3.095c-1.901,0.804-3.771,1.423-5.565,1.841c-1.593,0.38-3.429,0.656-5.456,0.821
							c-1.625,0.129-4.571,0.212-8.747,0.249h-4.951c-0.027-0.053-0.061-0.103-0.097-0.149l-0.396-0.508
							c-0.178-0.229-0.446-0.369-0.736-0.385l-0.479-0.025c-0.013,0-0.026-0.001-0.04-0.001c-0.038-0.159-0.083-0.322-0.132-0.488
							c-0.396-1.257-0.954-2.105-1.716-2.6c-0.777-0.494-1.509-0.854-2.173-1.066c-0.637-0.207-1.327-0.312-2.052-0.312
							c-0.129,0-0.259,0.004-0.418,0.012c-0.854,0.065-1.581,0.228-2.198,0.485c-0.59,0.226-1.189,0.592-1.799,1.096
							c-0.441,0.335-0.626,0.448-0.67,0.475c-0.082,0.002-0.157,0.007-0.228,0.016c-0.034-0.021-0.085-0.054-0.149-0.106
							c-0.191-0.169-0.331-0.286-0.38-0.322c-0.202-0.172-0.384-0.303-0.595-0.375c-0.208-0.076-0.467-0.101-1.019-0.101
							c-0.401,0-0.972,0.015-1.691,0.044c-1.069,0.037-2.073,0.094-2.97,0.17c-2.928,0.206-5.006,0.389-6.173,0.542
							c-1.045,0.133-2.052,0.276-2.994,0.427c-1.812,0.292-2.041,0.365-2.126,0.394c-0.099,0.029-0.284,0.084-2.139,0.954
							c-0.732,0.338-1.215,0.558-1.534,0.698c0.016-0.063,0.029-0.13,0.04-0.196c0.004-0.025,0.007-0.05,0.009-0.075
							c0.032-0.381-0.025-0.727-0.168-1.028c-0.134-0.322-0.335-0.601-0.598-0.828c-0.019-0.016-0.038-0.031-0.058-0.046
							c-0.403-0.3-0.859-0.451-1.357-0.451c-0.027,0-0.054,0.001-0.082,0.003c-0.006,0.001-0.012,0.001-0.019,0.002
							c0.21-0.419,0.513-1.007,0.95-1.83c1.031-1.927,1.313-2.358,1.382-2.452c0.013-0.014,0.025-0.027,0.037-0.04
							c0.042,0.006,0.089,0.012,0.141,0.019c0.133,0.023,0.261,0.035,0.382,0.035c0.255,0,0.49-0.052,0.692-0.152
							c0.115-0.057,0.219-0.126,0.313-0.209c0.003,0,0.005,0,0.008,0c0.203,0,0.403-0.062,0.573-0.181L6.4,12.945l1.272-0.216
							c0.025-0.005,0.051-0.01,0.076-0.017c0.684-0.172,1.412-0.34,2.155-0.498c2.541-0.518,5.255-0.95,8.067-1.283
							c2.82-0.334,6.467-0.54,10.839-0.614C29.902,10.299,30.929,10.289,31.887,10.289 M31.887,9.289
							c-0.964,0-1.995,0.01-3.095,0.028c-4.438,0.075-8.083,0.283-10.94,0.621c-2.857,0.339-5.573,0.771-8.149,1.297
							c-0.789,0.168-1.521,0.338-2.198,0.508l-1.494,0.254l-0.48,0.336l-0.535-0.166v0.195c-0.039,0.131-0.114,0.227-0.226,0.281
							c-0.068,0.034-0.152,0.051-0.253,0.051c-0.068,0-0.144-0.008-0.227-0.023c-0.283-0.037-0.433-0.057-0.451-0.057
							c-0.113,0-0.207,0.028-0.282,0.086c-0.057,0.02-0.17,0.123-0.34,0.309c-0.15,0.15-0.659,1.035-1.524,2.652
							c-0.846,1.596-1.333,2.576-1.466,2.932c-0.112,0.318-0.179,0.535-0.196,0.648c0,0.074-0.01,0.291-0.028,0.648
							c-0.02,0.301,0.028,0.592,0.139,0.875c0.057,0.186,0.162,0.377,0.312,0.564c0.056,0.131,0.197,0.262,0.422,0.393
							c0.245,0.172,0.518,0.293,0.818,0.367c0.142,0.047,0.293,0.07,0.453,0.07c0.159,0,0.328-0.023,0.505-0.07
							c0.208-0.039,0.518-0.141,0.933-0.311c0.226-0.074,0.968-0.404,2.226-0.986c1.204-0.564,1.871-0.863,2.003-0.902
							c0.169-0.055,0.836-0.178,2.001-0.365c0.94-0.15,1.928-0.291,2.961-0.422c1.147-0.15,3.187-0.33,6.118-0.537
							c0.885-0.074,1.863-0.131,2.934-0.168c0.714-0.028,1.267-0.042,1.656-0.042s0.618,0.014,0.684,0.042
							c0.056,0.016,0.149,0.082,0.283,0.195c0.073,0.057,0.196,0.16,0.364,0.309c0.299,0.247,0.556,0.371,0.772,0.371
							c0.016,0,0.031-0.001,0.047-0.002c0.074-0.02,0.187-0.029,0.337-0.029c0.096,0,0.17-0.02,0.228-0.057
							c0.149-0.057,0.461-0.264,0.93-0.619c0.545-0.449,1.062-0.771,1.552-0.959c0.545-0.227,1.184-0.365,1.918-0.422
							c0.115-0.006,0.229-0.009,0.341-0.009c0.621,0,1.202,0.087,1.743,0.263c0.584,0.188,1.232,0.506,1.945,0.959
							c0.547,0.355,0.979,1.043,1.298,2.057c0.151,0.508,0.245,0.979,0.282,1.412l0.507,0.141l0.284-0.365l0.479,0.025l0.396,0.508
							v0.535h5.837c4.229-0.037,7.17-0.121,8.826-0.252c2.085-0.17,3.955-0.451,5.609-0.846c1.861-0.434,3.77-1.066,5.723-1.893
							c1.693-0.695,3.43-1.775,5.217-3.242c0.902-0.713,1.617-1.37,2.143-1.973c-0.526-0.227-1.146-0.488-1.863-0.791
							c-1.41-0.603-2.559-1.033-3.44-1.297c-0.922-0.318-2.18-0.713-3.778-1.184c-1.445-0.395-2.283-0.619-2.508-0.677
							c-0.209-0.036-0.349-0.056-0.425-0.056c-0.075,0-0.179,0.027-0.312,0.084c-0.168,0.037-0.262,0.121-0.28,0.254
							c-0.039,0.074-0.039,0.158,0,0.252c0.036,0.078,0.131,0.125,0.28,0.143c0.453,0.168,0.754,0.273,0.901,0.311
							c0.474,0.168,0.96,0.396,1.47,0.678c0.485,0.32,0.758,0.544,0.814,0.675c0.094,0.263,0.135,0.472,0.114,0.623
							c0,0.263-0.142,0.497-0.423,0.703c-0.201,0.135-0.455,0.202-0.762,0.202c-0.123,0-0.254-0.011-0.394-0.032
							c-0.149-0.039-0.302-0.085-0.453-0.142l-0.194-0.058c-1.033-0.376-2.182-0.76-3.44-1.155c-2.464-0.809-4.21-1.326-5.243-1.552
							c-1.018-0.243-2.154-0.47-3.414-0.676l-1.605-0.283l-0.621,0.283l-0.479-0.453l-0.729,0.283l-0.563-0.425l-0.733,0.283
							l-0.51-0.478l-0.592,0.281l-0.45-0.423l-0.593,0.281l-0.65-0.391l-0.535,0.282l-0.623-0.366l-0.59,0.338l-0.563-0.48
							l-0.678,0.338l-0.534-0.45l-0.481,0.394l-0.646-0.394l-0.649,0.339l-0.48-0.453C33.745,9.299,32.85,9.289,31.887,9.289
							L31.887,9.289z M1.718,21.274c-0.026,0-0.051-0.001-0.077-0.004c-0.17-0.018-0.349-0.084-0.537-0.197
							C0.898,20.94,0.776,20.8,0.739,20.649c-0.077-0.148-0.113-0.309-0.113-0.479c-0.018-0.209,0.019-0.395,0.113-0.563
							c0.11-0.207,0.224-0.359,0.338-0.451c0.169-0.115,0.385-0.178,0.648-0.199c0.282,0,0.535,0.086,0.761,0.254
							c0.151,0.131,0.264,0.291,0.338,0.48c0.077,0.148,0.103,0.326,0.085,0.535c-0.036,0.225-0.114,0.402-0.227,0.535
							c-0.15,0.17-0.301,0.281-0.45,0.338C2.067,21.215,1.896,21.274,1.718,21.274L1.718,21.274z"/>
					</g>
				</g>
			</g>
		</g>
	</g>
</g>
<rect fill="none" width="72" height="32"/>
<g>
	<g>
		<g>
			<path fill="#7A4621" d="M35.771,27.047l5.631,4.694l12.388,0.375c4.255-0.501,7.758-1.626,10.511-3.378
				c3.629-5.028,6.785-7.543,9.471-7.543c-1.822-0.728-3.91-0.43-6.26,0.895s-4.732-0.018-7.152-4.023
				c-2.252-1.502-6.666-0.412-10.282,1.343l3.714-5.813l-10.866,3.576L35.771,27.047z"/>
		</g>
	</g>
</g>
<linearGradient id="SVGID_5_" gradientUnits="userSpaceOnUse" x1="-861.9819" y1="44.0957" x2="-860.9827" y2="45.0965" gradientTransform="matrix(30.7822 0 0 12.7634 26573.6719 -545.5981)">
	<stop  offset="0.6071" style="stop-color:#FFF6DA"/>
	<stop  offset="1" style="stop-color:#D6BB7E"/>
</linearGradient>
<path fill="url(#SVGID_5_)" d="M48.113,16.727h-3.188l-6.151,12.763h2.86l0.946-2.164h2.563l-0.168,2.164h2.735L48.113,16.727z
	 M45.803,19.939l-0.466,5.42h-1.928L45.803,19.939z M60.078,18.755c0-1.325-1.239-2.028-3.57-2.028c-2.889,0-4.211,0.92-4.9,3.289
	l-1.726,5.947c-0.216,0.699-0.258,1.045-0.258,1.367c0,1.402,1.302,2.158,3.717,2.158c1.329,0,2.373-0.229,3.104-0.697
	c0.785-0.521,1.279-1.326,1.662-2.729l0.41-1.448h-2.734l-0.452,1.571c-0.319,1.145-0.724,1.483-1.69,1.483
	c-0.746,0-1.156-0.271-1.156-0.769c0-0.151,0.05-0.41,0.134-0.732l1.837-6.323c0.277-0.938,0.73-1.313,1.628-1.313
	c0.746,0,1.147,0.271,1.147,0.752c0,0.205-0.063,0.463-0.188,0.955l-0.341,1.231h2.735l0.424-1.489
	C60.016,19.471,60.078,19.078,60.078,18.755z M69.557,16.727h-7.313l-3.479,12.763h7.522l0.536-1.959h-4.747l1.065-3.994h4.279
	l0.535-1.931h-4.279l0.814-2.949h4.529L69.557,16.727z"/>
</svg>
