<?xml version="1.0" encoding="utf-8"?>
<!-- Generator: Adobe Illustrator 16.0.0, SVG Export Plug-In . SVG Version: 6.00 Build 0)  -->
<!DOCTYPE svg PUBLIC "-//W3C//DTD SVG 1.1//EN" "http://www.w3.org/Graphics/SVG/1.1/DTD/svg11.dtd">
<svg version="1.1" id="图层_1" xmlns="http://www.w3.org/2000/svg" xmlns:xlink="http://www.w3.org/1999/xlink" x="0px" y="0px"
	 width="92px" height="32px" viewBox="0 0 92 32" enable-background="new 0 0 92 32" xml:space="preserve">
<rect x="0.098" fill="none" width="92" height="32"/>
<g>
	<g>
		<g>
			<g>
				<g>
					
						<linearGradient id="SVGID_1_" gradientUnits="userSpaceOnUse" x1="-859.2402" y1="29.4414" x2="-857.749" y2="28.8317" gradientTransform="matrix(91.817 0 0 19.646 78856.6094 -556.1484)">
						<stop  offset="0.2709" style="stop-color:#000000"/>
						<stop  offset="0.5271" style="stop-color:#FFD400"/>
						<stop  offset="0.803" style="stop-color:#FF0000"/>
					</linearGradient>
					<path fill="url(#SVGID_1_)" d="M78.502,15.481l-0.1-0.065l-1.901,0.032c-0.089,0.068-0.178,0.169-0.267,0.3
						c-0.178,0.202-0.256,0.412-0.234,0.634c0,0.223,0.102,0.446,0.303,0.668c0.088,0.088,0.178,0.168,0.266,0.232h2.102
						c0.067-0.064,0.135-0.145,0.2-0.232c0.113-0.244,0.169-0.502,0.169-0.767c0-0.267-0.111-0.489-0.336-0.666
						C78.637,15.572,78.568,15.525,78.502,15.481z M90.409,17.283c-1.49,1.135-3.202,2.047-5.138,2.734
						c-1.891,0.688-4.447,1.168-7.672,1.436c-1,0.088-2,0.156-3,0.199l-38.586,0.066l-0.035,4.105h-1.333v-4.971H30.34
						c-0.043-0.045-0.109-0.102-0.198-0.168c-0.156-0.109-0.334-0.166-0.533-0.166c-0.201,0.021-0.379,0.09-0.535,0.199
						c-0.065,0.047-0.112,0.1-0.134,0.166h-3.101c-0.045-0.066-0.101-0.119-0.166-0.166c-0.158-0.135-0.347-0.199-0.568-0.199
						c-0.2,0-0.366,0.064-0.502,0.199c-0.065,0.047-0.108,0.1-0.131,0.166h-3.07c-0.021-0.066-0.064-0.119-0.132-0.166
						c-0.112-0.135-0.256-0.199-0.432-0.199c-0.201,0-0.369,0.064-0.502,0.199c-0.067,0.047-0.112,0.1-0.134,0.166h-3.068
						c-0.045-0.066-0.101-0.133-0.166-0.199c-0.112-0.131-0.258-0.199-0.435-0.199c-0.177,0-0.322,0.068-0.435,0.199
						c-0.065,0.066-0.121,0.133-0.166,0.199h-3.234c-0.021-0.066-0.065-0.119-0.134-0.166c-0.111-0.135-0.256-0.199-0.432-0.199
						c-0.158,0-0.302,0.043-0.435,0.133c-0.046,0.047-0.079,0.078-0.101,0.102h-1.7l-1.302,0.533H1.058
						c-0.135-0.178-0.258-0.391-0.367-0.635c-0.268-0.486-0.422-0.82-0.469-1c-0.044-0.197-0.044-1.123,0-2.768l0.068-2.401
						c0-0.066,0.011-0.158,0.033-0.268c0.021-0.224,0.088-0.399,0.201-0.534c0.132-0.11,0.311-0.233,0.533-0.364l0.3-0.137
						l6.97,0.035l1.469,0.533l1.635-0.034l0.198,0.2c0.112,0.112,0.244,0.167,0.401,0.167c0.132,0,0.301-0.077,0.5-0.234
						l0.267-0.198h3.004l0.197,0.198c0.156,0.136,0.347,0.201,0.566,0.201c0.201,0.022,0.369-0.035,0.502-0.167
						c0.045-0.044,0.077-0.101,0.099-0.167l0.068-0.065l2.867,0.032l0.167,0.2c0.156,0.153,0.333,0.225,0.533,0.2
						c0.156,0,0.322-0.068,0.501-0.2l0.167-0.2h3.067l0.167,0.2c0.113,0.132,0.256,0.2,0.434,0.2c0.18,0.024,0.355-0.047,0.535-0.2
						l0.199-0.2h3.067l0.169,0.233c0.177,0.156,0.343,0.234,0.5,0.234c0.243,0,0.434-0.078,0.566-0.234
						c0.043-0.046,0.077-0.099,0.101-0.166l0.032-0.067h4.303V6.176h1.402v7.07h3.567c0.153-0.021,0.289-0.053,0.4-0.099
						c0.156-0.112,0.332-0.223,0.534-0.333l32.918,0.133l18.576,2.868C91.676,16.241,91.143,16.729,90.409,17.283z"/>
				</g>
			</g>
		</g>
	</g>
</g>
<linearGradient id="SVGID_2_" gradientUnits="userSpaceOnUse" x1="12.1436" y1="19.1143" x2="53.5304" y2="15.4934" gradientTransform="matrix(0.9946 -0.1042 0.1042 0.9946 -6.7123 3.3029)">
	<stop  offset="0.3505" style="stop-color:#FFE3A0"/>
	<stop  offset="1" style="stop-color:#00FFFF"/>
</linearGradient>
<path fill="url(#SVGID_2_)" d="M44.675,21.614c0,0-1.178-4.122-4.625-8.477c-0.022,0.016-0.052,0.03-0.073,0.046
	c-0.111,0.046-0.247,0.078-0.4,0.1H36.01V9.02c-0.446-0.365-0.913-0.723-1.402-1.069v5.768h-0.498
	C37.692,15.096,41.368,17.522,44.675,21.614z"/>
<linearGradient id="SVGID_3_" gradientUnits="userSpaceOnUse" x1="39.8682" y1="19.167" x2="70.8894" y2="16.453" gradientTransform="matrix(0.9919 -0.127 0.127 0.9919 -8.0988 6.8389)">
	<stop  offset="0.1781" style="stop-color:#FFE3A0"/>
	<stop  offset="1" style="stop-color:#00FFFF"/>
</linearGradient>
<path fill="url(#SVGID_3_)" d="M61.434,18.642c0,0-0.895-2.667-3.072-5.719l-5.963-0.024C55.47,13.805,58.668,15.526,61.434,18.642z
	"/>
<g>
	<g>
		<g>
			<g>
				<g>
					<g>
						<linearGradient id="SVGID_4_" gradientUnits="userSpaceOnUse" x1="90.0527" y1="6.6846" x2="1.5029" y2="25.6315">
							<stop  offset="0" style="stop-color:#BB925B"/>
							<stop  offset="0.3429" style="stop-color:#FFF6DA"/>
							<stop  offset="0.6571" style="stop-color:#FFF1B1"/>
							<stop  offset="1" style="stop-color:#B38B54"/>
						</linearGradient>
						<path fill="url(#SVGID_4_)" d="M40.778,13.815l32.573,0.132l3.236,0.5l-0.103,0.001c-0.215,0.004-0.423,0.077-0.593,0.208
							c-0.162,0.124-0.31,0.282-0.45,0.481c-0.398,0.479-0.464,0.957-0.44,1.292c0.012,0.458,0.2,0.893,0.56,1.291
							c0.012,0.013,0.023,0.025,0.035,0.037c0.129,0.13,0.258,0.241,0.381,0.332c0.172,0.126,0.379,0.193,0.592,0.193h2.102
							c0.258,0,0.505-0.1,0.691-0.277c0.104-0.1,0.206-0.217,0.311-0.357c0.041-0.056,0.076-0.114,0.105-0.177
							c0.174-0.374,0.262-0.774,0.262-1.188c0-0.548-0.234-1.045-0.661-1.406l10.426,1.61c-1.403,1.068-3.041,1.939-4.874,2.59
							c-1.806,0.656-4.3,1.12-7.418,1.379c-1.038,0.091-2.005,0.155-2.914,0.195l-38.586,0.066c-0.13,0-0.255,0.025-0.369,0.071
							c-0.033-0.522-0.467-0.937-0.998-0.937h-3.947c-0.32-0.219-0.696-0.334-1.088-0.334c-0.036,0-0.071,0.002-0.106,0.006
							c-0.352,0.037-0.677,0.155-0.98,0.359h-2.292c-0.32-0.239-0.707-0.365-1.126-0.365c-0.402,0-0.768,0.126-1.067,0.365h-2.191
							c-0.278-0.237-0.628-0.365-1.009-0.365c-0.405,0-0.771,0.126-1.068,0.365h-2.188c-0.288-0.258-0.653-0.398-1.048-0.398
							s-0.761,0.141-1.048,0.398h-2.343c-0.278-0.237-0.628-0.365-1.009-0.365c-0.317,0-0.614,0.079-0.884,0.234H9.896
							c-0.13,0-0.259,0.025-0.379,0.074l-1.121,0.459H1.624c-0.007-0.015-0.013-0.029-0.02-0.044
							c-0.011-0.024-0.023-0.049-0.037-0.073c-0.249-0.452-0.337-0.663-0.366-0.737c-0.012-0.15-0.03-0.685,0.021-2.52l0.067-2.415
							c0.002-0.023,0.007-0.051,0.014-0.084c0.004-0.019,0.009-0.048,0.013-0.078c0.054-0.037,0.122-0.081,0.205-0.131l0.051-0.023
							l6.577,0.032l1.307,0.474c0.109,0.04,0.225,0.06,0.341,0.06c0.007,0,0.014,0,0.021,0l1.215-0.025
							c0.282,0.235,0.624,0.358,0.998,0.358c0.37,0,0.736-0.147,1.095-0.431l0.001-0.001h2.273c0.313,0.251,0.695,0.388,1.114,0.398
							c0.045,0.003,0.089,0.005,0.132,0.005c0.402,0,0.768-0.139,1.058-0.397l1.952,0.021c0.388,0.336,0.79,0.41,1.067,0.41
							c0.047,0,0.095-0.002,0.143-0.006c0.348-0.015,0.694-0.147,1.029-0.394c0.002-0.001,0.004-0.003,0.006-0.005h2.187
							c0.272,0.246,0.614,0.385,0.987,0.399c0.043,0.003,0.087,0.005,0.13,0.005c0.376,0,0.736-0.136,1.069-0.405h2.189
							c0.36,0.31,0.744,0.467,1.142,0.467c0.491,0,0.928-0.175,1.22-0.467h3.783c0.397,0,0.741-0.232,0.902-0.568
							c0.146,0.085,0.317,0.133,0.499,0.133h3.567c0.044,0,0.089-0.003,0.133-0.009c0.239-0.032,0.456-0.087,0.644-0.164
							c0.073-0.03,0.143-0.068,0.207-0.114C40.63,13.91,40.702,13.862,40.778,13.815 M36.01,6.176h-1.401v7.505h-4.304l-0.031,0.067
							c-0.024,0.067-0.059,0.12-0.102,0.166c-0.132,0.155-0.322,0.233-0.566,0.233c-0.156,0-0.322-0.078-0.5-0.233l-0.168-0.233
							H25.87l-0.198,0.2c-0.158,0.134-0.312,0.205-0.467,0.205c-0.022,0-0.045-0.001-0.068-0.004c-0.179,0-0.322-0.068-0.435-0.2
							l-0.167-0.2h-3.066l-0.168,0.2c-0.179,0.132-0.345,0.2-0.5,0.2c-0.026,0.003-0.052,0.005-0.078,0.005
							c-0.169,0-0.319-0.072-0.455-0.205l-0.168-0.2l-2.866-0.031l-0.068,0.064c-0.022,0.066-0.054,0.123-0.099,0.167
							c-0.114,0.114-0.255,0.171-0.421,0.171c-0.026,0-0.053-0.001-0.081-0.004c-0.219,0-0.41-0.064-0.566-0.201l-0.197-0.197
							h-3.004l-0.267,0.197c-0.199,0.157-0.368,0.234-0.5,0.234c-0.157,0-0.289-0.055-0.401-0.167l-0.197-0.2l-1.635,0.034
							l-1.47-0.533l-6.97-0.034l-0.301,0.137c-0.222,0.131-0.4,0.254-0.532,0.363c-0.113,0.135-0.181,0.311-0.201,0.534
							c-0.022,0.11-0.033,0.202-0.033,0.269l-0.067,2.401c-0.045,1.645-0.045,2.57,0,2.768c0.047,0.18,0.201,0.514,0.469,1
							c0.109,0.244,0.232,0.457,0.367,0.635h7.535l1.303-0.533h1.699c0.022-0.023,0.056-0.055,0.102-0.102
							c0.133-0.09,0.277-0.133,0.436-0.133c0.176,0,0.32,0.064,0.432,0.199c0.068,0.047,0.113,0.1,0.134,0.166h3.233
							c0.045-0.066,0.102-0.133,0.166-0.199c0.113-0.131,0.258-0.199,0.436-0.199c0.177,0,0.322,0.068,0.436,0.199
							c0.064,0.066,0.121,0.133,0.166,0.199h3.067c0.022-0.066,0.067-0.119,0.134-0.166c0.133-0.135,0.301-0.199,0.502-0.199
							c0.176,0,0.32,0.064,0.432,0.199c0.068,0.047,0.111,0.1,0.133,0.166h3.07c0.022-0.066,0.065-0.119,0.131-0.166
							c0.136-0.135,0.302-0.199,0.502-0.199c0.221,0,0.41,0.064,0.568,0.199c0.064,0.047,0.12,0.1,0.166,0.166h3.1
							c0.023-0.066,0.07-0.119,0.135-0.166c0.156-0.109,0.334-0.178,0.535-0.199c0.199,0,0.377,0.057,0.533,0.166
							c0.088,0.066,0.154,0.123,0.197,0.168h4.305v4.971h1.334l0.035-4.105L74.6,21.652c1-0.043,2-0.111,3-0.199
							c3.225-0.268,5.781-0.748,7.672-1.436c1.936-0.688,3.647-1.6,5.138-2.734c0.733-0.555,1.267-1.042,1.597-1.467L73.43,12.948
							l-32.918-0.134c-0.203,0.11-0.379,0.222-0.535,0.334c-0.11,0.045-0.246,0.078-0.399,0.099H36.01V6.176L36.01,6.176z
							 M76.568,17.283c-0.088-0.064-0.178-0.145-0.266-0.232C76.102,16.828,76,16.605,76,16.382
							c-0.021-0.222,0.057-0.432,0.234-0.634c0.089-0.131,0.178-0.231,0.267-0.3l1.901-0.032l0.1,0.065
							c0.066,0.043,0.135,0.09,0.201,0.136c0.225,0.177,0.336,0.399,0.336,0.666c0,0.265-0.056,0.523-0.169,0.767
							c-0.065,0.088-0.133,0.168-0.2,0.232H76.568L76.568,17.283z"/>
					</g>
				</g>
			</g>
		</g>
	</g>
</g>
</svg>
