<?xml version="1.0" encoding="utf-8"?>
<!-- Generator: Adobe Illustrator 16.0.0, SVG Export Plug-In . SVG Version: 6.00 Build 0)  -->
<!DOCTYPE svg PUBLIC "-//W3C//DTD SVG 1.1//EN" "http://www.w3.org/Graphics/SVG/1.1/DTD/svg11.dtd">
<svg version="1.1" id="图层_1" xmlns="http://www.w3.org/2000/svg" xmlns:xlink="http://www.w3.org/1999/xlink" x="0px" y="0px"
	 width="92.059px" height="32px" viewBox="0 0 92.059 32" enable-background="new 0 0 92.059 32" xml:space="preserve">
<rect x="0" fill="none" width="92.059" height="32"/>
<g>
	<g>
		
			<linearGradient id="SVGID_1_" gradientUnits="userSpaceOnUse" x1="-857.8464" y1="42.3105" x2="-856.8771" y2="41.2917" gradientTransform="matrix(81.465 0 0 13.666 69878.6406 -554.2581)">
			<stop  offset="0.335" style="stop-color:#000000"/>
			<stop  offset="0.6256" style="stop-color:#FFD400"/>
			<stop  offset="0.8571" style="stop-color:#FF0000"/>
		</linearGradient>
		<path fill="url(#SVGID_1_)" d="M72.948,12.353c-7.81-1.446-17.26-1.887-28.354-1.323c-0.07,0.254-0.192,0.382-0.364,0.382
			s-0.296-0.127-0.374-0.382l-0.442,0.018c-0.077,0.261-0.205,0.391-0.382,0.391c-0.179,0-0.297-0.112-0.354-0.337l-0.471,0.009
			c-0.084,0.243-0.211,0.367-0.382,0.373c-0.173,0.006-0.284-0.112-0.339-0.355l-0.479,0.009c-0.023,0.236-0.142,0.358-0.355,0.364
			c-0.213,0.006-0.331-0.109-0.354-0.346l-0.506,0.009c-0.042,0.225-0.16,0.34-0.355,0.346c-0.193,0.006-0.304-0.112-0.329-0.354
			l-0.487,0.018c-0.083,0.261-0.22,0.391-0.408,0.391c-0.189,0-0.312-0.133-0.364-0.4l-4.682,0.098l0.675-2.248v-0.26L32.9,8.062
			l-0.249,0.125l-0.79,1.999l-0.78,0.675l-0.897,0.364l-1.679,0.089l-0.213,0.337l-0.364,0.213v-0.213l-0.178-0.257L6.639,11.9
			l-0.595,0.586v0.506H5.706l-0.399,0.391V13.8H4.916l-0.417,0.391v0.444h-0.4l-0.373,0.346v0.436l-0.32-0.036l-0.427,0.364v0.409
			H2.58l-0.453,0.56l1.106,2.806l5.07-0.765l16.332-1.819c1.213-0.033,1.858-0.061,1.934-0.082c0.114-0.03,0.221-0.391,0.384-0.391
			c0.107,0,0.214,0.098,0.315,0.293c1.045,0.172,1.685,0.771,1.917,1.796c0.18,0.786,0.092,1.66-0.26,2.624l0.91,0.553
			c0.238-0.412,0.477-0.854,0.715-1.332c0.238-0.477,0.39-0.92,0.455-1.332c1.056-1.166,2.354-1.479,3.9-0.942
			c1.705,0.594,2.551,1.795,2.533,3.606c2.709-1.344,6.469-2.092,11.277-2.242c7.214-0.228,10.4,0.847,19.533,0.813
			c6.089-0.021,11.202-1.641,15.34-4.858C82.2,14.438,78.652,13.409,72.948,12.353z M4.49,18.422c-0.492,0-0.892-0.42-0.892-0.938
			c0-0.52,0.398-0.938,0.892-0.938c0.489,0,0.89,0.42,0.89,0.938C5.38,18.002,4.981,18.422,4.49,18.422z"/>
	</g>
</g>
<path fill="none" d="M33.167,73.076l2.339-0.049c-0.73-0.198-1.458-0.354-2.18-0.481L33.167,73.076z"/>
<ellipse fill="none" cx="4.49" cy="79.296" rx="0.892" ry="0.938"/>
<path fill="none" d="M30.192,73.033l0.889-0.359l0.443-0.384c-0.679-0.072-1.345-0.12-1.994-0.146
	C29.758,72.441,29.978,72.737,30.192,73.033z"/>
<linearGradient id="SVGID_2_" gradientUnits="userSpaceOnUse" x1="-857.7917" y1="46.8857" x2="-856.8224" y2="45.8669" gradientTransform="matrix(81.465 0 0 13.666 69878.6406 -554.2581)">
	<stop  offset="0.335" style="stop-color:#000000"/>
	<stop  offset="0.6256" style="stop-color:#FFD400"/>
	<stop  offset="0.8571" style="stop-color:#FF0000"/>
</linearGradient>
<path fill="url(#SVGID_2_)" d="M72.948,74.166c-7.81-1.446-17.26-1.888-28.354-1.323c-0.07,0.254-0.192,0.382-0.364,0.382
	s-0.296-0.127-0.374-0.382l-0.442,0.018c-0.077,0.261-0.205,0.392-0.382,0.392c-0.179,0-0.297-0.112-0.354-0.338l-0.471,0.01
	c-0.084,0.242-0.211,0.367-0.382,0.373c-0.173,0.006-0.284-0.112-0.339-0.355l-0.479,0.01c-0.023,0.235-0.142,0.357-0.355,0.363
	c-0.213,0.006-0.331-0.109-0.354-0.346l-0.428,0.008c1.901,2.067,2.987,3.731,2.987,3.731c-2.274-1.844-4.817-2.993-7.352-3.681
	l-2.339,0.049l0.159-0.53c-0.608-0.107-1.21-0.191-1.803-0.256l-0.443,0.384l-0.889,0.359c1.789,2.479,3.093,4.896,3.952,6.711
	c0.248,0.042,0.5,0.1,0.763,0.19c1.705,0.594,2.551,1.795,2.533,3.606c2.709-1.344,6.469-2.092,11.277-2.242
	c7.214-0.228,10.4,0.847,19.533,0.813c6.089-0.021,11.202-1.641,15.34-4.858C82.2,76.25,78.652,75.222,72.948,74.166z"/>
<linearGradient id="SVGID_3_" gradientUnits="userSpaceOnUse" x1="-857.9514" y1="46.7344" x2="-856.9821" y2="45.7155" gradientTransform="matrix(81.465 0 0 13.666 69878.6406 -554.2581)">
	<stop  offset="0.335" style="stop-color:#000000"/>
	<stop  offset="0.6256" style="stop-color:#FFD400"/>
	<stop  offset="0.8571" style="stop-color:#FF0000"/>
</linearGradient>
<path fill="url(#SVGID_3_)" d="M21.899,73.348l-15.26,0.365l-0.595,0.586v0.506H5.706l-0.399,0.391v0.417H4.916l-0.417,0.392v0.443
	h-0.4l-0.373,0.346v0.437l-0.32-0.036l-0.427,0.364v0.409H2.58l-0.453,0.56l1.106,2.806l5.07-0.765l16.332-1.819
	c1.213-0.033,1.858-0.061,1.934-0.082c0.114-0.03,0.221-0.391,0.384-0.391c0.107,0,0.214,0.098,0.315,0.293
	c1.045,0.172,1.685,0.771,1.917,1.796c0.18,0.786,0.092,1.66-0.26,2.624l0.91,0.553c0.238-0.412,0.477-0.854,0.715-1.332
	c0.238-0.477,0.39-0.92,0.455-1.332c0.573-0.633,1.22-1.006,1.937-1.137C29.66,76.362,25.664,74.434,21.899,73.348z M4.49,80.234
	c-0.492,0-0.892-0.42-0.892-0.938c0-0.52,0.398-0.938,0.892-0.938c0.489,0,0.89,0.42,0.89,0.938
	C5.38,79.814,4.981,80.234,4.49,80.234z"/>
<linearGradient id="SVGID_4_" gradientUnits="userSpaceOnUse" x1="18.9133" y1="90.0781" x2="36.5638" y2="79.91">
	<stop  offset="0.3505" style="stop-color:#FFE3A0"/>
	<stop  offset="1" style="stop-color:#00FFFF"/>
</linearGradient>
<path fill="url(#SVGID_4_)" d="M32.943,79.74c0.89,0.915,1.729,1.933,2.495,3.072c0,0-0.418-1.221-1.294-3.068
	C33.723,79.672,33.323,79.671,32.943,79.74z"/>
<linearGradient id="SVGID_5_" gradientUnits="userSpaceOnUse" x1="13.1472" y1="80.0703" x2="30.7977" y2="69.9022">
	<stop  offset="0.3505" style="stop-color:#FFE3A0"/>
	<stop  offset="1" style="stop-color:#00FFFF"/>
</linearGradient>
<path fill="url(#SVGID_5_)" d="M27.927,73.463v0.214l0.364-0.214l0.213-0.336l1.679-0.09l0.009-0.004
	c-0.214-0.296-0.434-0.592-0.662-0.889c-4.536-0.181-8.192,0.666-8.938,0.854c0.432,0.105,0.868,0.222,1.307,0.349l5.85-0.141
	L27.927,73.463z"/>
<linearGradient id="SVGID_6_" gradientUnits="userSpaceOnUse" x1="8.7004" y1="72.3516" x2="26.351" y2="62.1834">
	<stop  offset="0.3505" style="stop-color:#FFE3A0"/>
	<stop  offset="1" style="stop-color:#00FFFF"/>
</linearGradient>
<path fill="url(#SVGID_6_)" d="M13.813,62L9.375,72.125c0,0,5.08-0.595,11.104,0.846l3.042-6.836
	C20.802,64.121,17.581,62.569,13.813,62z"/>
<linearGradient id="SVGID_7_" gradientUnits="userSpaceOnUse" x1="-857.9651" y1="46.7207" x2="-856.9958" y2="45.7019" gradientTransform="matrix(81.465 0 0 13.666 69878.6406 -554.2581)">
	<stop  offset="0.335" style="stop-color:#000000"/>
	<stop  offset="0.6256" style="stop-color:#FFD400"/>
	<stop  offset="0.8571" style="stop-color:#FF0000"/>
</linearGradient>
<path fill="url(#SVGID_7_)" d="M30.183,73.037l-1.679,0.09l-0.213,0.336l-0.364,0.214v-0.214l-0.178-0.256l-5.85,0.141
	c3.765,1.086,7.761,3.015,11.044,6.393c0.38-0.069,0.78-0.068,1.201,0.004c-0.859-1.814-2.163-4.232-3.952-6.711L30.183,73.037z"/>
<linearGradient id="SVGID_8_" gradientUnits="userSpaceOnUse" x1="15.3293" y1="22.0439" x2="32.9799" y2="11.8758">
	<stop  offset="0.3505" style="stop-color:#FFE3A0"/>
	<stop  offset="1" style="stop-color:#00FFFF"/>
</linearGradient>
<path fill="url(#SVGID_8_)" d="M30.183,11.224l-1.679,0.09l-0.213,0.336l-0.364,0.214V11.65l-0.178-0.256l-5.85,0.141
	c3.765,1.086,7.761,3.015,11.044,6.393c0.38-0.07,0.78-0.068,1.201,0.004c-0.859-1.815-2.163-4.233-3.952-6.711L30.183,11.224z"/>
<linearGradient id="SVGID_9_" gradientUnits="userSpaceOnUse" x1="19.7737" y1="71.9707" x2="35.4177" y2="62.9585" gradientTransform="matrix(0.9929 -0.119 0.119 0.9929 -8.2387 4.3087)">
	<stop  offset="0.1781" style="stop-color:#FFE3A0"/>
	<stop  offset="1" style="stop-color:#00FFFF"/>
</linearGradient>
<path fill="url(#SVGID_9_)" d="M20.45,73.036c0,0,0.051-0.014,0.142-0.037c-0.038-0.009-0.076-0.019-0.113-0.028L20.45,73.036z"/>
<linearGradient id="SVGID_10_" gradientUnits="userSpaceOnUse" x1="21.6257" y1="75.1855" x2="37.2697" y2="66.1733" gradientTransform="matrix(0.9929 -0.119 0.119 0.9929 -8.2387 4.3087)">
	<stop  offset="0.1781" style="stop-color:#FFE3A0"/>
	<stop  offset="1" style="stop-color:#00FFFF"/>
</linearGradient>
<path fill="url(#SVGID_10_)" d="M29.53,72.145c0.649,0.025,1.314,0.073,1.994,0.146l0.337-0.292L32.651,70l0.249-0.125l0.942,0.693
	v0.26l-0.516,1.718c0.722,0.127,1.45,0.283,2.18,0.481l2.342-0.049c0.053,0.268,0.175,0.4,0.364,0.4
	c0.188,0,0.325-0.131,0.408-0.392l0.487-0.018c0.025,0.241,0.136,0.36,0.329,0.354c0.195-0.006,0.313-0.12,0.355-0.346l0.078-0.001
	c-3.298-3.588-9.057-8.395-15.901-7.854l-0.45,1.012C25.903,67.898,27.896,70.017,29.53,72.145z"/>
<linearGradient id="SVGID_11_" gradientUnits="userSpaceOnUse" x1="-857.9543" y1="46.7305" x2="-856.985" y2="45.7116" gradientTransform="matrix(81.465 0 0 13.666 69878.6406 -554.2581)">
	<stop  offset="0.335" style="stop-color:#000000"/>
	<stop  offset="0.6256" style="stop-color:#FFD400"/>
	<stop  offset="0.8571" style="stop-color:#FF0000"/>
</linearGradient>
<path fill="url(#SVGID_11_)" d="M39.438,73.323c-0.193,0.007-0.304-0.112-0.329-0.354l-0.487,0.018
	c-0.083,0.261-0.22,0.392-0.408,0.392c-0.189,0-0.312-0.133-0.364-0.4l-2.342,0.049c2.535,0.688,5.078,1.837,7.352,3.681
	c0,0-1.086-1.664-2.987-3.731l-0.078,0.001C39.751,73.203,39.633,73.317,39.438,73.323z"/>
<linearGradient id="SVGID_12_" gradientUnits="userSpaceOnUse" x1="33.4597" y1="21.5771" x2="49.1006" y2="12.5667" gradientTransform="matrix(0.9929 -0.119 0.119 0.9929 -8.2387 4.3087)">
	<stop  offset="0.1781" style="stop-color:#FFE3A0"/>
	<stop  offset="1" style="stop-color:#00FFFF"/>
</linearGradient>
<path fill="url(#SVGID_12_)" d="M39.438,11.51c-0.193,0.007-0.304-0.112-0.329-0.354l-0.487,0.018
	c-0.083,0.261-0.22,0.392-0.408,0.392c-0.189,0-0.312-0.133-0.364-0.4l-2.342,0.049c2.535,0.688,5.078,1.837,7.352,3.681
	c0,0-1.086-1.664-2.987-3.731l-0.078,0.001C39.751,11.39,39.633,11.504,39.438,11.51z"/>
<linearGradient id="SVGID_13_" gradientUnits="userSpaceOnUse" x1="-858.1272" y1="46.5664" x2="-857.1579" y2="45.5476" gradientTransform="matrix(81.465 0 0 13.666 69878.6406 -554.2581)">
	<stop  offset="0.335" style="stop-color:#000000"/>
	<stop  offset="0.6256" style="stop-color:#FFD400"/>
	<stop  offset="0.8571" style="stop-color:#FF0000"/>
</linearGradient>
<path fill="url(#SVGID_13_)" d="M33.842,70.568L32.9,69.875L32.651,70l-0.79,1.998l-0.337,0.292
	c0.593,0.064,1.195,0.148,1.803,0.256l0.516-1.718V70.568z"/>
<linearGradient id="SVGID_14_" gradientUnits="userSpaceOnUse" x1="30.1682" y1="15.8696" x2="45.8122" y2="6.8574" gradientTransform="matrix(0.9929 -0.119 0.119 0.9929 -8.2387 4.3087)">
	<stop  offset="0.1781" style="stop-color:#FFE3A0"/>
	<stop  offset="1" style="stop-color:#00FFFF"/>
</linearGradient>
<path fill="url(#SVGID_14_)" d="M33.842,8.755L32.9,8.062l-0.249,0.125l-0.79,1.998l-0.337,0.292
	c0.593,0.064,1.195,0.148,1.803,0.256l0.516-1.718V8.755z"/>
<linearGradient id="SVGID_15_" gradientUnits="userSpaceOnUse" x1="11.7532" y1="77.6504" x2="29.4037" y2="67.4822">
	<stop  offset="0.3505" style="stop-color:#FFE3A0"/>
	<stop  offset="1" style="stop-color:#00FFFF"/>
</linearGradient>
<path fill="url(#SVGID_15_)" d="M29.53,72.145c-1.633-2.128-3.626-4.246-6.009-6.01l-3.042,6.836c0.038,0.01,0.076,0.02,0.113,0.028
	C21.337,72.811,24.993,71.964,29.53,72.145z"/>
<linearGradient id="SVGID_16_" gradientUnits="userSpaceOnUse" x1="20.0271" y1="72.4102" x2="35.6711" y2="63.3979" gradientTransform="matrix(0.9929 -0.119 0.119 0.9929 -8.2387 4.3087)">
	<stop  offset="0.1781" style="stop-color:#FFE3A0"/>
	<stop  offset="1" style="stop-color:#00FFFF"/>
</linearGradient>
<path fill="url(#SVGID_16_)" d="M29.53,72.145c-1.633-2.128-3.626-4.246-6.009-6.01l-3.042,6.836c0.038,0.01,0.076,0.02,0.113,0.028
	C21.337,72.811,24.993,71.964,29.53,72.145z"/>
<g>
	<g>
		<g>
			<linearGradient id="SVGID_17_" gradientUnits="userSpaceOnUse" x1="82.47" y1="8.7603" x2="3.0287" y2="22.0868">
				<stop  offset="0" style="stop-color:#BB925B"/>
				<stop  offset="0.3429" style="stop-color:#FFF6DA"/>
				<stop  offset="0.6571" style="stop-color:#FFF1B1"/>
				<stop  offset="1" style="stop-color:#B38B54"/>
			</linearGradient>
			<path fill="url(#SVGID_17_)" d="M32.167,11.243c-0.004,0.223,0.066,0.444,0.204,0.626c0.189,0.25,0.484,0.395,0.796,0.395
				c0.007,0,0.014,0,0.021,0l4.091-0.085c0.275,0.277,0.631,0.388,0.934,0.388c0.246,0,0.473-0.061,0.671-0.175
				c0.183,0.081,0.382,0.119,0.582,0.119c0,0,0.001,0,0.001,0c0.21-0.006,0.405-0.056,0.578-0.143
				c0.185,0.087,0.398,0.134,0.633,0.134c0,0,0.001,0,0.001,0c0.215-0.006,0.414-0.056,0.588-0.142
				c0.189,0.086,0.393,0.125,0.589,0.125c0,0,0.001,0,0.002,0c0.219-0.008,0.423-0.066,0.604-0.169
				c0.188,0.086,0.385,0.125,0.569,0.125c0.116,0,0.367-0.019,0.628-0.159c0.24,0.115,0.463,0.131,0.57,0.131
				c0.311,0,0.668-0.117,0.946-0.409c2.895-0.14,5.708-0.21,8.37-0.21c7.221,0,13.688,0.52,19.221,1.544
				c4.796,0.888,7.455,1.648,8.921,2.24c-3.714,2.455-8.227,3.706-13.441,3.723l-0.409,0.001c-4.251,0-7.122-0.239-9.898-0.47
				c-2.33-0.193-4.531-0.376-7.248-0.376c-0.637,0-1.303,0.01-2.005,0.031c-4.228,0.133-7.723,0.732-10.416,1.784
				c-0.384-1.472-1.414-2.528-3.036-3.093c-0.591-0.206-1.169-0.31-1.718-0.31c-1.241,0-2.335,0.513-3.251,1.525
				c-0.026,0.028-0.05,0.058-0.072,0.089c-0.01-0.051-0.021-0.102-0.032-0.152c-0.289-1.272-1.102-2.136-2.31-2.469
				c-0.324-0.337-0.682-0.398-0.898-0.398c-0.42,0-0.701,0.214-0.886,0.425c-0.257,0.011-0.699,0.027-1.459,0.048
				c-0.028,0-0.056,0.002-0.083,0.006l-16.37,1.824l-1.856,0.28c0.053-0.178,0.081-0.366,0.081-0.562
				c0-0.949-0.668-1.741-1.547-1.907c0.343-0.121,0.601-0.425,0.656-0.794c0.414-0.076,0.738-0.406,0.806-0.822
				c0.431-0.111,0.75-0.503,0.75-0.969v-0.087l0.015-0.014l20.031-0.48c0.085,0.13,0.201,0.241,0.34,0.321
				c0.154,0.088,0.326,0.132,0.497,0.132c0.175,0,0.35-0.046,0.506-0.138l0.364-0.214c0.102-0.06,0.191-0.136,0.266-0.227
				l1.173-0.063c0.11-0.006,0.219-0.03,0.321-0.072l0.897-0.363c0.102-0.041,0.197-0.099,0.28-0.171L32.167,11.243 M32.9,8.063
				l-0.249,0.125l-0.79,1.998l-0.78,0.676l-0.897,0.363l-1.679,0.09l-0.213,0.336l-0.364,0.214V11.65l-0.178-0.256L6.639,11.9
				l-0.595,0.586v0.506H5.706l-0.399,0.391V13.8H4.916l-0.417,0.392v0.443h-0.4L3.726,14.98v0.437l-0.32-0.036l-0.427,0.364v0.409
				H2.58l-0.453,0.56l1.106,2.806l5.07-0.765l16.332-1.819c1.213-0.033,1.858-0.061,1.934-0.082c0.114-0.03,0.221-0.391,0.384-0.391
				c0.107,0,0.214,0.098,0.315,0.293c1.045,0.172,1.685,0.771,1.917,1.796c0.18,0.786,0.092,1.66-0.26,2.624l0.91,0.553
				c0.238-0.412,0.477-0.854,0.715-1.332c0.238-0.477,0.39-0.92,0.455-1.332c0.723-0.798,1.559-1.196,2.51-1.196
				c0.439,0,0.902,0.084,1.39,0.254c1.705,0.594,2.551,1.795,2.533,3.606c2.709-1.344,6.469-2.092,11.277-2.242
				c0.691-0.021,1.347-0.031,1.974-0.031c5.807,0,9.188,0.846,17.146,0.846c0.136,0,0.273,0,0.413-0.001
				c6.089-0.021,11.202-1.641,15.34-4.858c-1.39-1.004-4.938-2.032-10.642-3.088c-5.618-1.041-12.085-1.561-19.402-1.561
				c-2.854,0-5.838,0.08-8.951,0.238c-0.07,0.254-0.192,0.382-0.364,0.382s-0.296-0.127-0.374-0.382l-0.442,0.018
				c-0.077,0.261-0.205,0.392-0.382,0.392c-0.179,0-0.297-0.112-0.354-0.338l-0.471,0.01c-0.084,0.242-0.211,0.367-0.382,0.373
				c-0.004,0-0.008,0-0.012,0c-0.166,0-0.273-0.118-0.327-0.355l-0.479,0.01c-0.023,0.235-0.142,0.357-0.355,0.363
				c-0.005,0-0.01,0-0.015,0c-0.204,0-0.316-0.115-0.338-0.346l-0.506,0.009c-0.042,0.226-0.16,0.34-0.355,0.346
				c-0.005,0-0.01,0-0.016,0c-0.184,0-0.289-0.119-0.313-0.354l-0.487,0.018c-0.083,0.261-0.22,0.392-0.408,0.392
				c-0.189,0-0.312-0.133-0.364-0.4l-4.682,0.098l0.675-2.248v-0.26L32.9,8.063L32.9,8.063z M4.49,18.422
				c-0.492,0-0.892-0.42-0.892-0.938c0-0.52,0.398-0.938,0.892-0.938c0.489,0,0.89,0.42,0.89,0.938
				C5.38,18.002,4.981,18.422,4.49,18.422L4.49,18.422z"/>
		</g>
	</g>
</g>
</svg>
