<?xml version="1.0" encoding="utf-8"?>
<!-- Generator: Adobe Illustrator 16.0.0, SVG Export Plug-In . SVG Version: 6.00 Build 0)  -->
<!DOCTYPE svg PUBLIC "-//W3C//DTD SVG 1.0//EN" "http://www.w3.org/TR/2001/REC-SVG-20010904/DTD/svg10.dtd">
<svg version="1.0" id="图层_1" xmlns="http://www.w3.org/2000/svg" xmlns:xlink="http://www.w3.org/1999/xlink" x="0px" y="0px"
	 width="39px" height="32px" viewBox="0 0 39 32" enable-background="new 0 0 39 32" xml:space="preserve">
<g id="Selected_Items">
	<g>
		<g id="Selected_Items_9_">
			<linearGradient id="SVGID_1_" gradientUnits="userSpaceOnUse" x1="0" y1="15.9168" x2="38.636" y2="15.9168">
				<stop  offset="0" style="stop-color:#FFD93F"/>
				<stop  offset="1" style="stop-color:#FF310E"/>
			</linearGradient>
			<path fill="url(#SVGID_1_)" d="M38.4,3.6c0.1,0.2,0.2,0.5,0.2,0.8c0,0.3,0,0.6,0,1c0,0.6,0,1.2,0,1.9c-0.1,0.6-0.1,1-0.1,1.2l-0.1,0.2
				l-0.2,0.2c0,0.1,0,0.2,0,0.5v0.2L38,9.9l-0.3-0.1c-0.1,0-0.2,0-0.4,0c-0.2,0-0.7,0-1.5,0c0,0.3-0.1,0.7-0.3,1
				c-0.1,0.2-0.2,0.4-0.3,0.4l0,0.2h-9l-0.4,0.2c-0.2,0.1-0.4,0.2-0.7,0.4c-0.3,0.1-0.6,0.3-0.8,0.4c-0.2,0.2-0.4,0.3-0.5,0.3
				c0.1,0.3,0.1,0.6,0.1,1.1c0,0.2,0,0.5,0,0.9c0,0.4,0,0.8-0.1,1.2c-0.1,0.6-0.4,1.1-0.8,1.4c-0.4,0.3-0.9,0.5-1.4,0.6
				c-0.5,0.1-1.1,0.1-1.8,0.1c-0.7,0-1.3-0.1-1.9-0.1c-0.5,0-0.9-0.1-1.3-0.1c-0.4-0.1-0.7,0-1,0h-0.1c-0.9-0.1-1.4-0.1-1.7,0
				c-0.3,0.1-0.4,0.2-0.5,0.4l-0.2,0.1c-0.2,0.2-0.3,0.7-0.3,1.5v0.3c0,0.4,0,0.8-0.1,1.1c-0.1,0.3-0.2,0.7-0.4,1l0,0.2
				c-0.1,0.2-0.2,0.6-0.3,1.2c-0.1,0.5-0.3,1.1-0.4,1.7c-0.2,0.7-0.3,1.3-0.4,1.6c-0.1,0.4-0.2,0.6-0.2,0.8l0.2,0.2
				c0.1,0.1,0.2,0.2,0.2,0.3c0.1,0.1,0.1,0.2,0.1,0.4l-0.1,0.1c0,0.2-0.2,0.4-0.4,0.6c-0.2,0.1-0.4,0.2-0.6,0.3h-0.1
				c-0.1,0-0.5,0-1.2,0c-0.8,0-1.6,0-2.4,0.1c-2.6,0.1-4,0.2-4.3,0.2c-0.5,0-1-0.5-1.6-1.6h0v-0.6c0-0.9,0.1-1.9,0.4-3.2
				c0.2-1.2,0.5-2.5,0.8-3.7c0.4-1.3,0.7-2.4,1.1-3.5c0.4-1.1,0.7-2,1-2.8v-0.2C4,13.9,4,13.7,4,13.6c0-0.1,0-0.2,0-0.2
				c0,0,0,0,0-0.1c0,0,0-0.1,0-0.1H3.8v-0.1c0-0.2-0.1-0.3-0.3-0.4c-0.1-0.1-0.1-0.1-0.2-0.1c-0.2,0-0.3-0.1-0.5-0.2
				c-0.4-0.1-0.9-0.4-1.6-0.9c-0.5-0.3-0.7-0.6-0.9-0.9C0.1,10.4,0,10,0,9.7C0,9.4,0,9.1,0,9c0.1-0.1,0.2-0.6,0.4-1.4
				C0.6,6.8,0.8,5.9,1,5.1c0.2-0.7,0.5-1.2,0.8-1.5c0.3-0.3,0.6-0.5,0.8-0.6V2.3l0.2-0.1C3.6,2,4.4,2.1,5.2,2.4
				C5.9,2.8,6.3,3,6.5,3.1h19.2c0.1,0,0.1,0,0.2,0.1L26,3.4h10.1l0.1-0.1c0.2-0.1,0.3-0.4,0.6-0.9V2.2h0.1c0,0,0.1,0,0.2,0
				c0.1,0,0.3,0,0.4,0C37.9,2.3,38.2,2.7,38.4,3.6z M21.7,12.2h-7c-0.4,0-0.6,0.2-0.6,0.6v2.5c0,0.4,0.2,0.6,0.6,0.6h7
				c0.3,0,0.5-0.2,0.5-0.6v-2.5C22.3,12.4,22.1,12.2,21.7,12.2z"/>
		</g>
	</g>
</g>
<g id="guides">
</g>
</svg>
