<?xml version="1.0" encoding="utf-8"?>
<!-- Generator: Adobe Illustrator 16.0.0, SVG Export Plug-In . SVG Version: 6.00 Build 0)  -->
<!DOCTYPE svg PUBLIC "-//W3C//DTD SVG 1.0//EN" "http://www.w3.org/TR/2001/REC-SVG-20010904/DTD/svg10.dtd">
<svg version="1.0" id="图层_1" xmlns="http://www.w3.org/2000/svg" xmlns:xlink="http://www.w3.org/1999/xlink" x="0px" y="0px"
	 width="52.4px" height="32px" viewBox="0 0 52.4 32" enable-background="new 0 0 52.4 32" xml:space="preserve">
<g id="Selected_Items">
	<g>
		<g id="Selected_Items_49_">
			<linearGradient id="SVGID_1_" gradientUnits="userSpaceOnUse" x1="0.315" y1="16.1081" x2="52.092" y2="16.1081">
				<stop  offset="0" style="stop-color:#FFD93F"/>
				<stop  offset="1" style="stop-color:#FF310E"/>
			</linearGradient>
			<path fill="url(#SVGID_1_)" d="M24.6,2C24.6,2,24.6,2,24.6,2c0.1-0.1,0.2-0.1,0.2-0.1l0,0c0,0,0.1,0,0.1,0l0,0c0,0,0.1,0,0.1,0c0,0,0,0,0,0
				h0v0c0,0,0.1,0,0.1,0l0.1-0.1c0,0,0,0,0,0c0,0,0,0,0,0c0.1,0,0.1,0,0.1,0c0,0,0.1,0,0.1,0c0.1,0,0.2,0,0.3,0c0,0,0-0.1,0-0.1h0v0
				c0.2,0,0.3,0,0.5,0v0c0,0,0.1,0,0.1,0v0c0,0,0.1,0,0.1,0l0,0c0,0,0.1,0,0.1,0v0c0,0,0,0,0,0c0.1,0,0.1,0,0.1,0c0,0,0.1,0,0.1,0
				c0,0,0,0,0,0c0,0,0.1,0,0.1,0c0,0,0,0,0,0h0.1l0,0c0,0,0.1,0,0.1,0l0,0.1l0.1,0c0.1,0,0.1,0,0.1,0c0,0,0.1,0.1,0.1,0.1v0.1
				c0,0,0,0.1,0,0.1v0.1c0,0.1,0,0.1,0,0.1v0.2c0,0.1,0,0.1,0,0.1c0,0,0,0.1,0,0.1v0.1c0,0.1,0,0.1,0,0.1c6.3,0,12.5,0,18.8,0v0
				c0,0,0-0.1,0-0.1s0-0.1,0-0.1c0,0,0-0.1,0-0.1c0,0,0-0.1,0-0.1c0,0,0-0.1,0-0.1h0c0,0,0.1,0,0.1,0c0,0,0-0.1,0-0.1c0,0,0,0,0,0h0
				c0,0,0-0.1,0-0.1h0c0,0,0-0.1,0-0.1c0,0,0.1,0,0.1,0h0c0,0,0-0.1,0-0.1c0,0,0,0,0,0c0,0,0,0,0,0v0c0,0,0,0,0,0l0,0v0
				c0.4,0,0.8,0,1.3,0v0l0.1,0.1c0,0,0,0,0,0c0,0,0,0,0,0v0c0,0,0,0.1,0,0.1h0l0,0c0,0,0.1,0.1,0.1,0.1c0,0,0,0.1,0,0.1
				c0,0,0.1,0,0.1,0c0,0,0,0,0,0c0,0,0,0.1,0,0.1c0,0,0.1,0,0.1,0c0,0.1,0,0.1,0,0.1c0,0,0,0.1,0,0.1v0.1c0,0,0,0.1,0,0.1
				c0,0,0.1,0,0.1,0c0,0,0,0.1,0,0.1c0.1,0,0.2,0,0.3,0c0,0.1,0,0.1,0,0.1v0.1c0,0,0.1,0.1,0.1,0.1c0,0,0.1,0,0.1,0c0,0,0,0.1,0,0.1
				h0c0,0,0.1,0,0.2,0v0.1c0,0.1,0,0.1,0,0.1v0.2c0,0.1,0,0.1,0,0.1v0.1c0,0,0,0.1,0,0.1s0,0,0.1,0c0,0.1,0,0.1,0,0.1V5
				c0,0,0.1,0,0.1,0c0,0,0,0.1,0,0.1c0,0,0,0.1,0,0.1c0,0,0,0.1,0,0.1c0,0,0,0.1,0,0.1c0,0,0,0.1,0,0.1v0c0.1,0,0.1,0,0.2,0v0.1
				c0,0,0,0.1,0,0.1c0.5,0,0.9,0,1.4,0c0,0,0,0.1,0,0.1c0.1,0,0.2,0,0.3,0c0,0,0,0.1,0,0.1c0,0,0,0.1,0,0.1s0,0.1,0,0.1
				c0,0,0,0.1,0,0.1c0,0,0,0.1,0,0.1c0,0,0,0.1,0,0.1c0,0,0,0.1,0,0.1c0,0,0,0.1,0,0.1c0,0,0,0.1,0,0.1c0,0,0,0.1,0,0.1
				c0,0,0,0.1,0,0.1c0,0,0,0.1,0,0.1c0,0,0,0.1,0,0.1c0,0,0,0.1,0,0.1c0,0,0,0.1,0,0.1c0,0,0,0.1,0,0.1c0,0,0,0.1,0,0.1s0,0.1,0,0.1
				c0,0,0,0.1,0,0.1c0,0,0,0.1,0,0.1c0,0,0,0.1,0,0.1c0,0,0,0.1,0,0.1v0.1c0,0,0,0.1,0,0.1c0,0,0,0.1,0,0.1v0c-0.1,0-0.1,0-0.1,0
				c-0.5,0-1.1,0-1.6,0v0c-0.1,0-0.1,0-0.1,0c0,0.1,0,0.1,0,0.1c0,0,0,0.1,0,0.1v0.1c-0.1,0-0.1,0-0.1,0c0,0.1,0,0.1,0,0.1
				c0,0,0,0.1,0,0.1c0,0,0,0.1,0,0.1v0c0,0.1-0.1,0.1-0.1,0.1c0,0,0,0.1,0,0.1c0,0-0.1,0.1-0.1,0.1c0,0,0,0.1,0,0.1v0
				c-0.1,0-0.1,0-0.2,0c0,0.1,0,0.1,0,0.1v0c0,0,0,0,0,0c0,0,0,0,0,0c0,0,0,0.1,0,0.1l0,0c0,0,0,0,0,0v0l0,0v0.1c0,0,0,0,0,0
				c0,0-0.1,0-0.2,0v0c0,0.1,0,0.1,0,0.1v0.1l0,0v0c-0.2,0-0.4,0-0.7,0v0c-4.2,0-8.4-0.1-12.6-0.1v0c-0.3,0-0.5,0-0.7,0
				c0,0,0,0.1,0,0.1v0c0,0.1,0,0.1,0,0.1c0,0,0,0.1,0,0.1c0,0,0,0.1,0,0.1s0,0.1,0,0.1c0,0,0,0.1,0,0.1c0,0,0,0.1,0,0.1
				c0,0,0,0.1,0,0.1c0,0,0,0.1,0,0.1c0,0,0,0.1,0,0.1c0,0,0,0.1,0,0.1c0,0,0,0.1,0,0.1c0,0,0,0.1,0,0.1c0,0,0,0.1,0,0.1
				c0,0,0,0.1,0,0.1c0,0,0,0.1,0,0.1c0,0,0,0.1,0,0.1c0,0,0,0.1,0,0.1c0,0,0,0.1,0,0.1c0,0,0,0.1,0,0.1s0,0.1,0,0.1c0,0,0,0.1,0,0.1
				c0,0,0,0.1,0,0.1c0,0,0,0.1,0,0.1c0,0,0,0.1,0,0.1c0,0,0,0.1,0,0.1c0,0,0,0.1,0,0.1c0,0,0,0.1,0,0.1s0,0.1,0,0.1c0,0,0,0.1,0,0.1
				c-0.1,0-0.1,0-0.2,0V13c-0.3,0-0.6,0.1-1,0.1v0c-0.3,0-0.5,0-0.8,0c-0.1,0-0.1,0-0.1,0c-0.1,0-0.1,0-0.2,0v0.1c0,0-0.1,0-0.1,0
				c0,0-0.1,0-0.1,0c0,0,0,0.1,0,0.1c0,0-0.1,0-0.1,0c0,0,0,0.1,0,0.1v0h0c0,0,0,0.1,0,0.1h0c0,0,0,0.1,0,0.1l0,0h0c0,0,0,0.1,0,0.1
				v0h0c0,0,0,0.1,0,0.1L32.3,14c0,0,0,0.1,0,0.1c0,0,0,0,0,0h0c0,0,0,0.1,0,0.1v0.1c0,0-0.1,0-0.1,0h0c0,0,0,0.1,0,0.1c0,0,0,0,0,0
				c0,0,0,0,0,0v0c0,0-0.1,0-0.1,0l0,0v0h0c0,0,0,0.1,0,0.1c0,0-0.1,0-0.1,0v0c0,0,0,0,0,0c-0.1,0-0.1,0-0.2,0l0,0.1v0l-0.1,0.1v0.2
				c0,0,0,0.1,0,0.1v0.1c0,0,0,0.1,0,0.1v0c0,0,0,0.1,0,0.1v0c0,0,0,0.1,0,0.1c0,0,0,0.1,0,0.1v0.2c0,0,0,0.1,0,0.1c0,0,0,0.1,0,0.1
				v0.3c0,0,0,0.1,0,0.1v0.3c0,0,0,0.1,0,0.1v0.3c0,0,0,0.1,0,0.1v0.3c0,0,0,0.1,0,0.1V18c0,0,0,0.1,0,0.1c0.1,0,0.2,0,0.4,0
				c0,0,0.1,0.1,0.1,0.1c0,0.1,0,0.1,0,0.1c0,0,0,0.1,0,0.1c0,0,0,0.1,0,0.1v0.1c0,0,0,0.1,0,0.1c0,0,0,0.1,0,0.1v0.1
				c0,0,0,0.1,0,0.1l0,0v0.4c0,0,0,0,0,0v0l0,0v0.3l0,0V20c0,0,0,0,0,0c0,0,0,0,0,0v0c0,0,0,0,0,0c0,0,0,0.1,0,0.1v0.1
				c-0.1,0-0.1,0-0.1,0c0,0-0.1,0-0.1,0c0,0,0,0,0,0c0,0-0.1,0-0.1,0v0h0c0,0-0.1,0-0.1,0c0,0-0.1,0-0.1,0c0,0-0.1,0-0.1,0
				c0,0,0,0,0,0v0c0,0,0,0.1,0,0.1v0c0,0-0.1,0-0.1,0c0,0,0,0.1,0,0.1v0c0,0,0,0.1,0,0.1c0,0,0,0.1,0,0.1l0,0v0c0,0,0,0.1,0,0.1
				c0,0,0,0.1,0,0.1c0,0,0,0.1,0,0.1c0,0,0,0.1,0,0.1c0,0,0,0.1,0,0.1c0,0,0,0.1,0,0.1s0,0.1,0,0.1c0,0,0,0.1,0,0.1c0,0,0,0.1,0,0.1
				c0,0,0,0.1,0,0.1c0,0,0,0.1,0,0.1c0,0,0,0.1,0,0.1c0,0,0,0.1,0,0.1c0,0,0,0.1,0,0.1c0,0,0,0.1,0,0.1c0,0,0,0.1,0,0.1s0,0.1,0,0.1
				c0,0,0,0.1,0,0.1c0,0,0,0.1,0,0.1c0,0,0,0.1,0,0.1v0.1c0,0,0,0.1,0,0.1c0,0,0,0.1,0,0.1s0,0.1,0,0.1v0.1c0,0,0,0.1,0,0.1
				c0,0,0,0.1,0,0.1v0.1c0,0,0,0.1,0,0.1c0,0,0,0.1,0,0.1v0.1c0,0,0,0.1,0,0.1v0.2c0,0.1,0,0.1,0,0.1v0.2c0,0.1,0,0.1,0,0.1v0.2
				c0,0.1,0,0.1,0,0.1v0.1c0,0,0,0.1,0,0.1v0c0,0.1,0,0.1,0,0.1v0.1c0,0,0,0.1,0,0.1v0c0,0.1,0,0.1,0,0.1v0.1c0,0,0,0.1,0,0.1
				c0,0,0,0.1,0,0.1c0,0,0,0.1,0,0.1c0,0,0,0.1,0,0.1v1.5c0,0,0,0.1,0,0.1v0.5c0,0,0,0.1,0,0.1c0,0,0,0.1,0,0.1v0.2c0,0,0,0.1,0,0.1
				c0,0,0,0.1,0,0.1v0c0,0,0,0.1,0,0.1v0.1c0,0,0,0.1,0,0.1v0.2c0,0,0,0.1,0,0.1V30c0,0,0,0.1,0,0.1c0,0,0,0.1,0,0.1v0.2
				c0,0,0,0.1,0,0.1s0,0.1,0,0.1v0.3c0,0,0,0.1,0,0.1V31c-2.3,0-4.7,0-7,0v-0.2c0,0,0-0.1,0-0.1v-0.6c0,0,0-0.1,0-0.1
				c0,0,0-0.1,0-0.1v-0.2c0,0,0-0.1,0-0.1c0,0,0-0.1,0-0.1v-0.2c0,0,0-0.1,0-0.1c0,0,0-0.1,0-0.1v-0.2c0,0,0-0.1,0-0.1
				c0,0,0-0.1,0-0.1v-0.2c0,0,0-0.1,0-0.1c0,0,0-0.1,0-0.1v-0.2c0,0,0-0.1,0-0.1c0,0,0-0.1,0-0.1V28c0,0,0-0.1,0-0.1v-1.5
				c0,0,0-0.1,0-0.1c0,0,0-0.1,0-0.1c0,0,0-0.1,0-0.1c0,0,0-0.1,0-0.1V26c0,0,0-0.1,0-0.1v0c0,0,0-0.1,0-0.1v-0.1c0,0,0-0.1,0-0.1v0
				c0,0,0-0.1,0-0.1v-0.1c0,0,0-0.1,0-0.1V25c0,0,0-0.1,0-0.1v-0.2c0,0,0-0.1,0-0.1v-0.2c0-0.1,0-0.1,0-0.1V24c0-0.1,0-0.1,0-0.1
				c0,0,0-0.1,0-0.1v-0.1c0-0.1,0-0.1,0-0.1c0,0,0-0.1,0-0.1v-0.1c0,0,0-0.1,0-0.1s0-0.1,0-0.1c0,0,0-0.1,0-0.1V23c0,0,0-0.1,0-0.1
				c0,0,0-0.1,0-0.1c0,0,0-0.1,0-0.1c0,0,0-0.1,0-0.1s0-0.1,0-0.1c0,0,0-0.1,0-0.1c0,0,0-0.1,0-0.1c0,0,0-0.1,0-0.1c0,0,0-0.1,0-0.1
				c0,0,0-0.1,0-0.1c0,0,0-0.1,0-0.1c0,0,0-0.1,0-0.1c0,0,0-0.1,0-0.1c0,0,0-0.1,0-0.1s0-0.1,0-0.1c0,0,0-0.1,0-0.1c0,0,0-0.1,0-0.1
				c0,0,0-0.1,0-0.1c0,0,0-0.1,0-0.1c0,0,0-0.1,0-0.1c0,0,0-0.1,0-0.1c0,0,0-0.1,0-0.1c0,0,0-0.1,0-0.1c0,0,0-0.1,0-0.1v-0.1h0
				c0,0,0,0,0,0c0,0,0,0.1,0,0.1c0,0-0.1,0.1-0.1,0.1c0,0,0,0.1,0,0.1v0c0,0-0.1,0.1-0.1,0.1c0,0,0,0.1,0,0.1c0,0,0,0.1,0,0.1
				c-0.4,0-0.7,0-1.1,0c0,0,0-0.1,0-0.1c-0.1,0-0.2,0-0.3,0c0,0,0-0.1,0-0.1c-0.1,0-0.2,0-0.3,0c0,0,0-0.1,0-0.1v0c0,0-0.1,0-0.1,0
				c0,0,0-0.1,0-0.1c0,0,0-0.1,0-0.1c0,0,0-0.1,0-0.1c0,0,0-0.1,0-0.1c0,0,0-0.1,0-0.1c0,0,0-0.1,0-0.1c0,0,0-0.1,0-0.1
				c0,0,0-0.1,0-0.1s0-0.1,0-0.1c0,0,0-0.1,0-0.1c0,0,0-0.1,0-0.1c0,0,0-0.1,0-0.1c0,0,0-0.1,0-0.1c0,0,0-0.1,0-0.1c0,0,0-0.1,0-0.1
				c0,0,0-0.1,0-0.1s0-0.1,0-0.1s0-0.1,0-0.1c0,0,0-0.1,0-0.1c0,0,0-0.1,0-0.1s0-0.1,0-0.1v0c0,0,0-0.1,0-0.1c0,0,0-0.1,0-0.1
				s0-0.1,0-0.1v-0.1c0,0,0-0.1,0-0.1c-1.7,0-3.4,0-5.2,0c0,0,0,0.1,0,0.1c0,0,0,0.1,0,0.1V19c0,0,0,0.1,0,0.1v0.2
				c0,0.1,0,0.1,0,0.1v0.1c-1,0-2,0-3,0v0l0,0.1c0,0.1,0,0.1,0,0.1c0,0-0.1,0-0.1,0.1l0,0c0,0.1,0,0.1,0,0.1c0,0.1-0.1,0.1-0.1,0.1
				v0.1c0,0,0,0.1,0,0.1l0,0c0,0.1,0,0.1,0,0.1v0.2c-0.1,0-0.1,0-0.1,0c0,0,0,0.1,0,0.1c0,0,0,0.1,0,0.1c0,0-0.1,0.1-0.1,0.1
				c0,0,0,0.1,0,0.1c0,0,0,0.1,0,0.1c0,0,0,0.1,0,0.1c0,0,0,0.1,0,0.1c0,0,0,0.1,0,0.1c0,0-0.1,0-0.1,0c0,0,0,0.1,0,0.1
				c0,0,0,0.1,0,0.1c0,0-0.1,0.1-0.1,0.1l0,0c0,0,0,0.1,0,0.1c0,0,0,0.1,0,0.1c0,0,0,0.1,0,0.1v0l0,0.1L12,22.4c0,0,0,0.1,0,0.1
				c0,0-0.1,0-0.1,0c0,0.1,0,0.1-0.1,0.1v0.1c0,0,0,0.1,0,0.1l0,0V23c0,0.1,0,0.1,0,0.1v0.1c-0.1,0-0.1,0-0.1,0c0,0,0,0.1,0,0.1
				l0,0.1c-0.1,0-0.1,0.1-0.1,0.1c0,0,0,0.1,0,0.1v0l0,0.1c0,0,0,0.1,0,0.1c0,0,0,0.1,0,0.1c-0.1,0-0.1,0-0.1,0v0.1c0,0,0,0.1,0,0.1
				c0,0-0.1,0-0.1,0.1l0,0v0.1c0,0,0,0.1,0,0.1v0c0,0-0.1,0-0.1,0c0,0,0,0.1,0,0.1c0,0,0,0.1,0,0.1c0,0,0,0.1,0,0.1c0,0,0,0.1,0,0.1
				c0,0,0,0.1,0,0.1c-0.1,0-0.1,0-0.1,0c0,0,0,0.1,0,0.1v0.1c0,0,0,0.1,0,0.1c-0.1,0-0.1,0-0.1,0c0,0,0,0.1,0,0.1
				c0,0.1-0.1,0.1-0.1,0.1c0,0,0,0.1,0,0.1v0c0,0,0,0.1,0,0.1l0,0.1c-0.1,0-0.1,0.1-0.1,0.1v0.1c0,0.1,0,0.1,0,0.1
				c-0.1,0-0.1,0.1-0.1,0.1v0.1c0,0.1,0.1,0.1,0.1,0.1c0,0,0,0.1,0,0.1c0,0,0.1,0,0.1,0c0,0,0,0.1,0,0.1l0,0c0,0,0,0.1,0,0.1
				c0,0,0,0.1,0,0.1c0,0,0.1,0.1,0.1,0.1c0,0,0,0,0,0v0.2c0,0,0,0.1,0,0.1v0.2c0,0,0,0.1,0,0.1v0.1c0,0.1,0,0.1,0,0.1v0.1
				c-0.1,0-0.1,0-0.1,0c0,0,0,0.1,0,0.1c0,0,0,0.1,0,0.1c0,0,0,0.1,0,0.1c-0.1,0-0.1,0.1-0.2,0.1c0,0,0,0.1,0,0.1
				c-0.3,0-0.6,0-0.9,0h0c0,0,0-0.1,0-0.1c-0.4,0-0.8,0-1.2,0v0c-0.6,0-1.1-0.1-1.7-0.1c0,0,0,0,0,0c-0.6,0-1.2,0-1.8,0
				c0,0,0-0.1,0-0.1c-0.2,0-0.4,0-0.5,0l0,0c-0.5,0-1,0-1.5,0c-0.1,0-0.1,0-0.1,0c-0.1,0-0.2,0-0.3,0c0,0,0,0-0.1,0
				c-0.4,0-0.7-0.1-1.1-0.1c0,0-0.1,0-0.1,0c0-0.1,0-0.1,0-0.1v-0.1c-0.2,0-0.3,0-0.5,0c0,0-0.1,0-0.1,0c0-0.1,0-0.1,0-0.1
				c0,0-0.1,0-0.1-0.1c0,0-0.1,0-0.1-0.1v0c0-0.1,0-0.1,0-0.1c0,0,0-0.1,0-0.1c0,0,0-0.1,0-0.1v0c0-0.1,0-0.1,0-0.1c0,0,0-0.1,0-0.1
				c0,0,0-0.1,0-0.1v0c0-0.1,0-0.1,0-0.1c0,0,0-0.1,0-0.1c0,0,0-0.1,0-0.1c0,0,0-0.1,0-0.1c0,0,0-0.1,0-0.1c0,0,0-0.1,0-0.1
				c0,0,0-0.1,0-0.1c0,0,0-0.1,0-0.1c0,0,0-0.1,0-0.1c0,0,0.1-0.1,0.1-0.1c0,0,0.1-0.1,0.1-0.1c0,0,0-0.1,0-0.1c0,0,0-0.1,0-0.1
				c0,0,0.1-0.1,0.1-0.1c0,0,0-0.1,0-0.1c0,0,0-0.1,0-0.1c0,0,0-0.1,0-0.1c0,0,0-0.1,0-0.1c0,0,0-0.1,0-0.1c0,0,0-0.1,0-0.1
				c0,0,0-0.1,0-0.1c0,0,0-0.1,0-0.1c0,0,0-0.1,0-0.1c0,0,0-0.1,0-0.1c0,0,0-0.1,0-0.1v0c0,0,0.1,0,0.1,0v-0.1c0-0.1,0-0.1,0-0.1
				v-0.1c0,0,0.1,0,0.1,0c0-0.1,0-0.1,0-0.1c0,0,0-0.1,0-0.1v-0.1c0,0,0.1,0,0.1,0c0-0.1,0-0.1,0-0.1c0,0,0-0.1,0-0.1v-0.1
				c0,0,0.1,0,0.1,0v-0.1c0,0,0-0.1,0-0.1c0.1,0,0.1-0.1,0.2-0.1c0,0,0-0.1,0-0.1c0,0,0-0.1,0-0.1c0,0,0-0.1,0-0.1
				c0.1,0,0.1-0.1,0.1-0.1s0-0.1,0-0.1c0,0,0-0.1,0-0.1c0,0,0.1-0.1,0.1-0.1c0,0,0.1-0.1,0.1-0.1c0,0,0.1-0.1,0.1-0.1
				c0,0,0-0.1,0-0.1c0.1,0,0.1,0,0.1,0c0-0.1,0-0.1,0-0.1c0,0,0-0.1,0-0.1c0,0,0.1-0.1,0.1-0.1c0,0,0,0,0,0c0-0.1,0-0.1,0-0.1
				c0,0,0-0.1,0-0.1c0.1,0,0.1-0.1,0.1-0.1v0c0-0.1,0-0.1,0-0.1c0,0,0-0.1,0-0.1c0,0,0-0.1,0-0.1v0c0.1,0,0.1,0,0.1,0
				c0-0.1,0-0.1,0-0.1c0-0.1,0-0.1,0-0.1l0-0.1c0,0,0,0,0,0c0-0.1,0-0.1,0-0.1c0-0.1,0-0.1,0-0.1v-0.1c0.1,0,0.1-0.1,0.1-0.1v-0.1
				c0-0.1,0-0.1,0-0.1c0,0,0.1,0,0.1-0.1c0,0,0-0.1,0-0.1c0,0,0.1-0.1,0.1-0.1c0,0,0-0.1,0-0.1c0,0,0.1-0.1,0.1-0.1c0,0,0-0.1,0-0.1
				c0,0,0-0.1,0-0.1c0,0,0-0.1,0-0.1c0,0,0-0.1,0-0.1c0,0,0.1-0.1,0.1-0.1c0,0,0-0.1,0-0.1c0,0,0.1-0.1,0.1-0.1c0,0,0-0.1,0-0.1
				c0,0,0.1-0.1,0.1-0.1c0,0,0-0.1,0-0.1h0.1c0-0.1,0-0.1,0-0.1c0,0,0-0.1,0-0.1c0,0,0.1,0,0.1-0.1c0.1,0,0.1,0,0.1,0
				c0-0.1,0-0.1,0-0.1v-0.1c0.1,0,0.1,0,0.1,0c0,0,0-0.1,0-0.1c0,0,0.1-0.1,0.1-0.1c0,0,0-0.1,0-0.1c0.1,0,0.1-0.1,0.1-0.1
				c0,0,0-0.1,0-0.1c0,0,0-0.1,0-0.1c0.1,0,0.1,0,0.1,0c0,0,0-0.1,0-0.1c0,0,0.1-0.1,0.1-0.1c0,0,0-0.1,0-0.1c0.1,0,0.1-0.1,0.1-0.1
				c0,0,0-0.1,0-0.1c0,0,0.1-0.1,0.1-0.1c0,0,0-0.1,0-0.1c0,0,0.1-0.1,0.1-0.1c0,0,0-0.1,0-0.1c0,0,0-0.1,0-0.1
				c0.1,0,0.1-0.1,0.1-0.1c0,0,0-0.1,0-0.1v-0.1c0.1,0,0.1,0,0.1,0c0,0,0-0.1,0-0.1l0-0.1v0c0-0.1,0-0.1,0-0.1
				C5.3,16.1,5.3,16,5.3,16v-0.1c0.1-0.1,0.1-0.1,0.1-0.1c0-0.1,0-0.1,0-0.1l0-0.1l0,0v-0.1c0-0.1,0-0.1,0-0.1c0,0,0.1,0,0.1-0.1
				c0,0,0-0.1,0-0.1v0c0,0,0-0.1,0-0.1c0,0,0.1,0,0.1,0c0,0,0-0.1,0-0.1v-0.2c-0.1,0-0.1-0.1-0.1-0.1v-0.1c-0.1,0-0.1-0.1-0.1-0.1
				c0,0,0-0.1,0-0.1c0,0,0-0.1,0-0.1c0,0-0.1-0.1-0.1-0.1c0,0-0.1,0-0.1,0c0,0,0-0.1,0-0.1c0,0,0-0.1,0-0.1c0,0-0.1-0.1-0.1-0.1
				v-0.1c0,0-0.1-0.1-0.1-0.1c0,0-0.1-0.1-0.1-0.1c0,0-0.1,0-0.1,0v-0.2c0,0-0.1-0.1-0.1-0.1v-0.1c0-0.1,0-0.1,0-0.1v-0.2
				c0,0,0-0.1,0-0.1c-0.7,0-1.4,0-2.1,0c0,0,0-0.1,0-0.1c-0.1,0-0.2,0-0.2,0v0c0,0-0.1,0-0.1,0c0,0-0.1-0.1-0.1-0.1
				C2.1,12,2.1,12,2.1,12c-0.1,0-0.1-0.1-0.1-0.1c0,0,0-0.1,0-0.1c0,0-0.1,0-0.1,0c0,0,0-0.1,0-0.1c0,0-0.1-0.1-0.1-0.1v0
				c0,0-0.1-0.1-0.1-0.1c0,0-0.1,0-0.1,0v-0.1c0,0,0-0.1,0-0.1L1.3,11c-0.1,0-0.1,0-0.2,0c0,0,0-0.1,0-0.1c0,0-0.1-0.1-0.1-0.1
				c0,0,0-0.1,0-0.1c0,0,0-0.1,0-0.1H1v-0.1c0-0.1,0-0.1,0-0.1v-0.2c0-0.1,0-0.1,0-0.1V10c0,0,0-0.1,0-0.1v0c0-0.1,0-0.1,0-0.1V9.6
				c0,0,0-0.1,0-0.1c0,0,0-0.1,0-0.1c0,0,0-0.1,0-0.1V9.3c0,0,0-0.1,0-0.1c0,0,0-0.1,0-0.1S1,9.1,1,9S1,9,1,8.9c0,0,0-0.1,0-0.1
				c0,0,0-0.1,0-0.1c0,0,0-0.1,0-0.1c0,0,0-0.1,0-0.1c0,0,0-0.1,0-0.1c0,0,0-0.1,0-0.1c0,0,0-0.1,0-0.1c0,0,0-0.1,0-0.1
				c0,0,0-0.1,0-0.1c0,0,0-0.1,0-0.1C1,8,1,8,1,8c0,0,0-0.1,0-0.1c0,0,0-0.1,0-0.1s0-0.1,0-0.1c0,0,0-0.1,0-0.1c0,0,0-0.1,0-0.1V7.5
				c0,0,0-0.1,0-0.1c0,0,0-0.1,0-0.1c0,0,0-0.1,0-0.1V7.1c0,0,0-0.1,0-0.1C1,7,1,7,1,6.9c0,0,0-0.1,0-0.1V6.8c0,0,0-0.1,0-0.1
				c0,0,0-0.1,0-0.1V6.4c0,0,0-0.1,0-0.1V6.1c0,0,0-0.1,0-0.1h0.1v0c0,0,0-0.1,0-0.1c0,0,0-0.1,0-0.1s0-0.1,0-0.1c0,0,0-0.1,0-0.1
				s0-0.1,0-0.1c0,0,0-0.1,0-0.1v0c0,0,0.1,0,0.1,0c0,0,0-0.1,0-0.1c0.1,0,0.2-0.1,0.3-0.1c0,0,0-0.1,0-0.1c0,0,0-0.1,0-0.1h0
				c0.1,0,0.1,0,0.2,0c0,0,0-0.1,0-0.1V4.9c0,0,0.1-0.1,0.1-0.1c0.1,0,0.1,0,0.2,0c0,0,0.1-0.1,0.1-0.1c0,0,0-0.1,0-0.1
				c0.1,0,0.1-0.1,0.2-0.1c0,0,0-0.1,0.1-0.1v0l0,0c0.1,0,0.1,0,0.1,0v0c0.1,0,0.1-0.1,0.2-0.1l0,0C3,4,3,4,3.1,4c0.1,0,0.1,0,0.2,0
				c0,0,0-0.1,0-0.1c0.1,0,0.1-0.1,0.2-0.1c0,0,0.1-0.1,0.1-0.1c0,0,0-0.1,0-0.1c0.1,0,0.2,0,0.3,0c0,0,0-0.1,0-0.1
				C4,3.5,4,3.4,4,3.4v0c0.1,0,0.1-0.1,0.2-0.1c0.1,0,0.1,0,0.1,0c0,0,0-0.1,0-0.1v0c0.1,0,0.1,0,0.1,0h0v0h0v0c0,0,0-0.1,0-0.1V2.7
				c0.1,0,0.3,0,0.4,0c0,0,0-0.1,0-0.1c0,0,0-0.1,0-0.1c0,0,0-0.1,0-0.1s0-0.1,0-0.1v0h0c0,0,0.1,0,0.1,0c0,0,0-0.1,0-0.1h0
				c0,0,0-0.1,0-0.1c0,0,0,0,0,0c0,0,0-0.1,0-0.1c0.3,0,0.6,0,0.9,0v0c0.1,0,0.2,0,0.3,0v0.1c0,0,0,0.1,0,0.1v0.1c0,0,0,0,0,0
				c0,0.1,0,0.1,0,0.1l0,0.1v0.1c0,0.1,0,0.1,0,0.1c0,0,0,0.1,0,0.1c5.9,0,11.9,0,17.8,0v0c0,0,0-0.1,0-0.1c0,0,0-0.1,0-0.1V2.7
				c0,0,0-0.1,0-0.1V2.4c0-0.1,0-0.1,0-0.1V2L24.6,2C24.5,2,24.5,2,24.6,2z M21.9,14.8C21.9,14.8,21.9,14.7,21.9,14.8
				c-0.1-0.1-0.1-0.1-0.1-0.2c0,0,0-0.1,0-0.1c0,0-0.1-0.1-0.1-0.1c0,0,0-0.1,0-0.1c0,0,0-0.1,0-0.1v-0.1c0,0-0.1-0.1-0.1-0.1V14
				c0,0-0.1,0-0.1,0c0,0,0-0.1,0-0.1c0,0-0.1-0.1-0.1-0.1c0,0-0.1-0.1-0.1-0.1c-0.2,0-0.4,0-0.6,0c-0.8,0-1.6,0-2.4,0l0,0
				c0,0,0,0.1,0,0.1v0c0,0,0,0.1,0,0.1h0v0l0,0c0,0,0,0,0,0c0,0,0,0.1,0,0.1l0,0c0,0,0,0.1,0,0.1h0c0,0,0,0.1,0,0.1h0c0,0,0,0,0,0
				c0,0,0.1,0.1,0.1,0.1v0c0,0,0,0.1,0,0.1H19c0,0,0,0.1,0,0.1c0,0,0.1,0,0.1,0l0,0c0,0,0,0.1,0,0.1h0v0.1c0,0,0.1,0,0.1,0
				c0,0,0,0,0,0l0,0v0h0l0,0c0,0,0.1,0,0.1,0v0c0,0,0,0,0,0h0c0,0,0.1,0,0.1,0s0.1,0,0.1,0c0,0,0.1,0,0.1,0v0.1l0,0h0.1
				c0,0,0.1,0.1,0.1,0.1l0,0c0,0,0,0.1,0,0.1l0,0c0,0,0,0.1,0,0.1l0,0V16h0c0,0,0,0.1,0,0.1c0,0,0,0,0,0c0,0,0,0,0,0h0l0,0h0
				c-0.1,0-0.3,0-0.4,0c-0.1,0-0.1,0-0.1,0c-0.1,0-0.1,0-0.1,0c0,0-0.1,0-0.1,0c0,0-0.1,0-0.1,0c0,0-0.1,0-0.1,0l0,0v0
				c0,0-0.1,0-0.1,0h-0.1c0,0-0.1,0-0.1,0c0,0,0,0,0,0l0,0c0,0,0,0,0,0c0,0,0,0,0,0c0,0-0.1,0-0.1,0l0,0v0c0,0,0,0,0,0l0,0
				c0,0-0.1,0-0.1,0c0,0,0,0,0,0c0,0,0,0,0,0c0,0,0,0,0,0l0,0v0c0,0,0,0,0,0l0,0c0,0-0.1,0-0.1,0c0,0,0,0,0,0c0,0,0,0,0,0s0,0,0,0
				l0,0v0c0,0,0,0,0,0c0,0,0,0,0,0l0,0c0,0-0.1,0-0.1,0c0,0,0,0,0,0c0,0,0-0.1,0-0.1h0v-0.1l0,0v0c0,0-0.1,0-0.1,0v0
				c0,0,0-0.1,0-0.1c0,0,0,0,0,0c0,0,0,0,0,0v0c0,0,0-0.1,0-0.1l0,0c0,0,0-0.1,0-0.1v-0.1l0,0c0,0,0-0.1,0-0.1v0c0,0,0-0.1,0-0.1
				c0,0-0.1,0-0.1,0l0,0c-0.1,0-0.1,0.1-0.1,0.1v0c0,0-0.1,0.1-0.1,0.1l0,0c0,0,0,0.1,0,0.1c0,0.1-0.1,0.1-0.1,0.1
				c0,0.1,0,0.1,0,0.1c0,0,0,0.1,0,0.1c-0.1,0-0.1,0.1-0.1,0.1c0,0.1,0,0.1,0,0.1c0,0,0,0.1,0,0.1c0,0-0.1,0.1-0.1,0.1
				c0,0-0.1,0.1-0.1,0.1c0,0.1,0,0.1,0,0.1s0,0.1-0.1,0.1c0,0,0,0.1,0,0.1c0,0,0,0.1,0,0.1c0,0,0,0.1,0,0.1c0,0-0.1,0.1-0.1,0.1
				c0,0,0,0.1,0,0.1c0,0,0,0.1,0,0.1c0,0-0.1,0.1-0.1,0.1c0,0,0,0.1,0,0.1c0,0,0,0.1,0,0.1c0,0,0,0,0,0.1c0,0-0.1,0.1-0.1,0.1
				c0,0,0,0.1,0,0.1c2.2,0,4.3,0.1,6.4,0.1c0,0,0-0.1,0-0.1c0,0,0-0.1,0-0.1c0,0,0-0.1,0-0.1c0,0,0-0.1,0-0.1c0.1,0,0.1-0.1,0.1-0.1
				c0,0,0.1-0.1,0.1-0.1v-0.1c0,0,0.1,0,0.1,0c0-0.1,0-0.1,0-0.1v-0.1c0.1,0,0.1,0,0.2,0c0,0,0-0.1,0-0.1c0,0,0-0.1,0-0.1
				c0,0,0-0.1,0-0.1c0,0,0.1-0.1,0.1-0.1c0,0,0-0.1,0-0.1c0,0,0-0.1,0-0.1c0,0,0-0.1,0-0.1c0,0,0-0.1,0-0.1c0,0,0-0.1,0-0.1
				c0,0-0.1-0.1-0.1-0.1C21.9,14.9,21.9,14.9,21.9,14.8C21.9,14.9,21.9,14.8,21.9,14.8z M6.3,15.9L6.3,15.9L6.3,15.9L6.3,15.9
				L6.3,15.9z"/>
		</g>
	</g>
</g>
<g id="guides">
</g>
</svg>
