<?xml version="1.0" encoding="utf-8"?>
<!-- Generator: Adobe Illustrator 16.0.3, SVG Export Plug-In . SVG Version: 6.00 Build 0)  -->
<!DOCTYPE svg PUBLIC "-//W3C//DTD SVG 1.1//EN" "http://www.w3.org/Graphics/SVG/1.1/DTD/svg11.dtd">
<svg version="1.1" id="Selected_Items" xmlns="http://www.w3.org/2000/svg" xmlns:xlink="http://www.w3.org/1999/xlink" x="0px"
	 y="0px" width="95.563px" height="32px" viewBox="0 0 95.563 32" enable-background="new 0 0 95.563 32" xml:space="preserve">
<g>
	<g id="Selected_Items_20_">
		<linearGradient id="SVGID_1_" gradientUnits="userSpaceOnUse" x1="0" y1="15.6271" x2="95.435" y2="15.6271">
			<stop  offset="0" style="stop-color:#FFD93F"/>
			<stop  offset="1" style="stop-color:#FF310E"/>
		</linearGradient>
		<path fill-rule="evenodd" clip-rule="evenodd" fill="url(#SVGID_1_)" d="M63.1,11.2h13.7l7.7,0.7c5.5,0.8,9.1,2,11,3.6c-2.1,1.8-5.6,3.1-10.5,3.8c-2.1,0.3-4.7,0.5-7.9,0.5h-14
			c-0.1-0.5-0.2-0.8-0.4-0.8c-0.2,0-0.3,0.3-0.4,0.8h-0.1c-0.1-0.5-0.2-0.8-0.4-0.8c-0.2,0-0.3,0.3-0.4,0.8h-0.4
			c-0.2-0.5-0.5-0.8-0.9-0.8s-0.7,0.3-0.9,0.8h-0.4c-0.1-0.5-0.2-0.8-0.4-0.8c-0.2,0-0.3,0.3-0.4,0.8h-0.1c-0.1-0.5-0.2-0.8-0.4-0.8
			c-0.2,0-0.3,0.3-0.4,0.8h-0.4c-0.2-0.5-0.5-0.8-0.9-0.8c-0.4,0-0.7,0.3-0.9,0.8h-0.3c-0.1-0.5-0.3-0.8-0.5-0.8
			c-0.2,0-0.3,0.3-0.4,0.8h0c-0.1-0.5-0.2-0.8-0.4-0.8c-0.2,0-0.3,0.3-0.5,0.8h-0.4c-0.2-0.5-0.4-0.8-0.8-0.8
			c-0.4,0-0.7,0.3-0.9,0.8h-0.4c-0.1-0.5-0.2-0.8-0.4-0.8s-0.3,0.3-0.4,0.8h-0.1c-0.1-0.5-0.2-0.8-0.4-0.8c-0.2,0-0.3,0.3-0.4,0.8
			h-3.3c-0.4-0.2-0.7-0.3-0.9-0.3c-0.5,0.2-0.8,0.3-1,0.4l-0.7,0.1v0.5l-2,5.9l-2.3-0.7c0.4-0.5,0.6-1.2,0.7-1.9
			c0.2-1.4-0.5-2.6-2-3.4c-2.9-0.4-5.1-0.3-6.6,0.1c-0.6,0.2-4.1,0.3-10.5,0.2C13,20.8,9.4,20.5,8.8,20.1c-0.4-0.1-0.7-0.1-1,0
			l-0.3,0.2c-1.6,1.4-2.6,2.2-3,2.2c-1.6,0-2.7-0.7-3.3-2.2c-0.4-1-0.6-2.2-0.7-3.6H0.5c-0.3,0-0.5-0.3-0.5-0.9
			c0-0.6,0.2-0.9,0.5-0.9h0.1c0.1-1.6,0.4-2.7,0.9-3.2c0.6-0.7,1.2-1.1,1.6-1.3c0.3-0.2,0.8-0.2,1.5-0.2c0.5,0,1,0.1,1.5,0.3
			c0.1,0,0.5,0.3,1.3,0.8c0.2,0,2.1-0.2,5.7-0.5c3.7-0.4,6.7-0.5,9-0.4c7.7,0.4,12.2,0.5,13.4,0.5c1.9-0.4,3.2-1,4-1.9
			c0.7-0.8,1.3-2.3,1.7-4.3l2.1,0.5l0.1,1.3l-1,2.8l-0.1,1.9l0.7,0.3c0.5,0.2,0.8,0.3,1,0.3c0.3,0,0.6-0.2,1.2-0.5h3.1
			c0.1,0.5,0.2,0.8,0.4,0.8c0.2,0,0.3-0.3,0.4-0.8h0.1c0.1,0.5,0.2,0.8,0.4,0.8c0.2,0,0.3-0.3,0.4-0.8h0.4c0.2,0.5,0.5,0.8,0.9,0.8
			c0.3,0,0.6-0.3,0.8-0.8h0.4c0.1,0.5,0.2,0.8,0.4,0.8c0.2,0,0.3-0.3,0.4-0.8h0c0.1,0.5,0.3,0.8,0.4,0.8c0.2,0,0.3-0.3,0.4-0.8h0.4
			c0.2,0.5,0.5,0.8,0.8,0.8c0.4,0,0.7-0.3,0.9-0.8H57c0.1,0.5,0.3,0.8,0.4,0.8c0.2,0,0.3-0.3,0.4-0.8h0.1c0.1,0.5,0.2,0.8,0.4,0.8
			c0.2,0,0.3-0.3,0.4-0.8h0.4c0.2,0.5,0.5,0.8,0.8,0.8s0.7-0.3,0.8-0.8h0.4c0.1,0.5,0.2,0.8,0.4,0.8c0.2,0,0.3-0.3,0.4-0.8h0.1
			c0.1,0.5,0.2,0.8,0.4,0.8C62.8,12,62.9,11.8,63.1,11.2z"/>
	</g>
</g>
</svg>
