<?xml version="1.0" encoding="utf-8"?>
<!-- Generator: Adobe Illustrator 16.0.0, SVG Export Plug-In . SVG Version: 6.00 Build 0)  -->
<!DOCTYPE svg PUBLIC "-//W3C//DTD SVG 1.1//EN" "http://www.w3.org/Graphics/SVG/1.1/DTD/svg11.dtd">
<svg version="1.1" xmlns="http://www.w3.org/2000/svg" xmlns:xlink="http://www.w3.org/1999/xlink" x="0px" y="0px" width="92px"
	 height="32.5px" viewBox="0 0 92 32.5" enable-background="new 0 0 92 32.5" xml:space="preserve">
<g id="Selected_Items">
	<linearGradient id="SVGID_1_" gradientUnits="userSpaceOnUse" x1="0.99" y1="16.2496" x2="75.074" y2="16.2496">
		<stop  offset="0" style="stop-color:#FFD93F"/>
		<stop  offset="1" style="stop-color:#FF310E"/>
	</linearGradient>
	<path fill-rule="evenodd" clip-rule="evenodd" fill="url(#SVGID_1_)" d="M9.7,26.3c0.8-0.8,1.2-1.8,1.2-3s-0.4-2.1-1.2-3c-0.8-0.8-1.8-1.2-3-1.2s-2.1,0.4-3,1.2
		c-0.8,0.8-1.2,1.8-1.2,3s0.4,2.1,1.2,3c0.8,0.8,1.8,1.2,3,1.2S8.9,27.1,9.7,26.3z M54.6,8.7c-0.2,0-0.5,0.1-0.6,0.3
		c-0.2,0.2-0.3,0.4-0.3,0.6c0,0.2,0.1,0.5,0.3,0.6c0.2,0.2,0.4,0.3,0.6,0.3s0.5-0.1,0.6-0.3c0.2-0.2,0.3-0.4,0.3-0.6
		c0-0.2-0.1-0.5-0.3-0.6C55,8.8,54.8,8.7,54.6,8.7z M51.8,7.6c-0.3,0-0.5,0.1-0.7,0.3c-0.2,0.2-0.3,0.5-0.3,0.7s0.1,0.5,0.3,0.7
		c0.2,0.2,0.5,0.3,0.7,0.3s0.5-0.1,0.7-0.3c0.2-0.2,0.3-0.4,0.3-0.7s-0.1-0.5-0.3-0.7C52.3,7.7,52.1,7.6,51.8,7.6z M48.6,6.6
		c-0.4,0-0.7,0.1-0.9,0.4c-0.3,0.3-0.4,0.6-0.4,0.9c0,0.4,0.1,0.7,0.4,0.9c0.3,0.3,0.6,0.4,0.9,0.4c0.4,0,0.7-0.1,0.9-0.4
		c0.3-0.3,0.4-0.6,0.4-0.9c0-0.4-0.1-0.7-0.4-0.9C49.3,6.8,49,6.6,48.6,6.6z M22.4,8.6c1-0.2,2-0.4,3.2-0.5c0.7-0.1,1.8-0.1,3.2-0.2
		c1.4-0.1,2.4-0.1,3.2-0.2c1.2-0.1,2.2-0.3,3.2-0.5c1.8-0.5,3.4-1,4.8-1.7c0.4-0.2,1-0.5,1.7-1c0.8-0.5,1.4-0.8,1.8-1L46,5.3
		c0.3-0.1,0.4-0.4,0.3-0.7l-0.9-1.2l2.7,0.4L48.9,5c0.2,0.2,0.3,0.3,0.5,0.2L49.6,4l1.9,1.7l0.2-1.2l1.8,1.8V5.1l1.9,1.8V5.8
		c11.9,4.6,18.5,11.7,19.7,21.4c-9.5-8.5-19.3-12.8-29.4-13.1l-0.3,0.4l-1.8,0.2c-2,2.1-4,3.2-6,3.2c-0.3-0.5-0.5-0.9-0.6-1.1
		c-0.3-0.4-0.6-0.7-0.9-1c-0.8-0.7-1.9-1-3.3-1c-1.9,0-4.1,0.7-6.5,2c-1.2,0.7-2.3,1.3-3.1,2c-0.9-0.1-2-0.1-3.2,0
		c-2.4,0.3-4.4,1-6,2.1c-0.3,0.2-0.6,0.6-0.7,1.1c-0.1,0.3-0.2,0.8-0.3,1.5c-0.1,0.7-0.3,1.3-0.4,1.7c-0.3,0.6-0.6,1.2-1.1,1.7
		c-0.1,0.1-0.2,0.2-0.3,0.4c-1.1,1.1-2.5,1.7-4.1,1.7c-1.6,0-3-0.6-4.1-1.7C1.6,26.3,1,24.9,1,23.2c0-0.7,0.2-1.5,0.5-2.3
		c0.4-0.9,0.9-1.7,1.5-2.4c2.2-2.4,4.8-4.3,7.8-5.9C14,11,17.9,9.7,22.4,8.6z"/>
</g>
<g id="guides">
</g>
</svg>
