<?xml version="1.0" encoding="utf-8"?>
<!-- Generator: Adobe Illustrator 16.0.0, SVG Export Plug-In . SVG Version: 6.00 Build 0)  -->
<!DOCTYPE svg PUBLIC "-//W3C//DTD SVG 1.1//EN" "http://www.w3.org/Graphics/SVG/1.1/DTD/svg11.dtd">
<svg version="1.1" xmlns="http://www.w3.org/2000/svg" xmlns:xlink="http://www.w3.org/1999/xlink" x="0px" y="0px" width="92px"
	 height="31.75px" viewBox="0 0 92 31.75" enable-background="new 0 0 92 31.75" xml:space="preserve">
<g id="Selected_Items">
	<linearGradient id="SVGID_1_" gradientUnits="userSpaceOnUse" x1="-5.072979e-03" y1="17.043" x2="87.534" y2="17.043">
		<stop  offset="0" style="stop-color:#FFD93F"/>
		<stop  offset="1" style="stop-color:#FF310E"/>
	</linearGradient>
	<path fill-rule="evenodd" clip-rule="evenodd" fill="url(#SVGID_1_)" d="M22.3,9.9c4.7,0.5,9.9,0.1,15.4-1c1.1,0.1,2.2,0,3.3-0.1l0.5,0.9c0,0,0.1,0,0.1,0c0.2,0,0.4,0,0.5-0.1
		c0.1-0.1,0.2-0.2,0.2-0.3c0,0,0-0.1,0-0.1L42.8,9c0,0.1,0.1,0.2,0.1,0.3c0.1,0.1,0.2,0.1,0.3,0.1s0.2,0,0.3-0.1
		c0.1-0.1,0.1-0.2,0.1-0.3c0,0,0-0.1,0-0.1l0.5-0.1c0,0.1,0.1,0.2,0.1,0.2c0.1,0.1,0.2,0.1,0.3,0.1c0.1,0,0.2,0,0.3-0.1
		c0.1-0.1,0.1-0.2,0.1-0.3c0,0,0-0.1,0-0.1l0.5-0.1c0,0.1,0.1,0.1,0.1,0.2c0.1,0.1,0.2,0.1,0.3,0.1c0.1,0,0.2,0,0.3-0.1
		c0.1-0.1,0.1-0.2,0.1-0.3c0-0.1,0-0.1,0-0.1L47.3,8l2.2,0.7c1.7,0.5,3.2,0.9,4.5,1c1.2,0.2,3,0.3,5.3,0.4c3.8,0.1,5.8,0.2,6.2,0.2
		c4.3,0.2,9.2,1,14.9,2.2c2.8,0.6,5.2,1.2,7.2,1.7c-1.3,0.9-2.8,1.8-4.6,2.8c-3.7,2-6.9,3.1-9.7,3.5c-2.8,0.4-6.4,0.5-10.6,0.4
		c-1.4,0-3-0.1-5-0.2c-2.3-0.1-3.7-0.2-4.1-0.2c-2-0.1-3.6-0.1-5.1,0l-1.6,0.2c-0.4-0.3-0.8-0.3-1.1-0.2c-0.3,0.1-0.5,0.4-0.7,0.8
		c-0.1,0.3-0.4,0.8-0.6,1.6c-0.4,1-0.6,1.7-0.9,2.3c-0.2,0.4-0.4,0.6-0.6,0.7c-0.2,0.1-0.5,0.1-0.7-0.1c-0.6-0.4-1-1.4-1.2-3
		c-0.2,0.1-0.4,0-0.6,0c-0.2-0.1-0.3-0.3-0.5-0.5c-0.5-1-1.4-1.9-2.5-2.6c-1.1-0.7-2.2-1.1-3.5-1.3c-1.3-0.2-2.5-0.1-3.7,0.3
		c-1.2,0.4-2.2,1.1-2.9,2.2c-0.1,0.2-0.2,0.2-0.4,0.2c-0.2,0-0.4-0.1-0.6-0.2c-0.8-0.6-1.7-1.1-2.7-1.4c-0.9-0.3-1.9-0.5-2.9-0.5
		c-1,0-1.9,0.2-2.7,0.5c-0.9,0.3-1.6,0.8-2.3,1.4c-0.4,0.4-0.9,0.5-1.4,0.2c-1.9-0.8-3.8-1-5.8-0.6c-2.1,0.4-3.9,1.3-5.4,2.9
		c-0.7-0.1-1.3-1.4-1.7-3.8c-2.3-2.3-2-4,0.8-5.3C8.8,10.6,15.4,9.2,22.3,9.9z M1.6,17.8L2,15.6C0.7,16.2,0.6,16.9,1.6,17.8z"/>
</g>
<g id="guides">
</g>
</svg>
