<?xml version="1.0" encoding="utf-8"?>
<!-- Generator: Adobe Illustrator 16.0.0, SVG Export Plug-In . SVG Version: 6.00 Build 0)  -->
<!DOCTYPE svg PUBLIC "-//W3C//DTD SVG 1.1//EN" "http://www.w3.org/Graphics/SVG/1.1/DTD/svg11.dtd">
<svg version="1.1" id="图层_1" xmlns="http://www.w3.org/2000/svg" xmlns:xlink="http://www.w3.org/1999/xlink" x="0px" y="0px"
	 width="89px" height="32px" viewBox="0 0 89 32" enable-background="new 0 0 89 32" xml:space="preserve">
<rect fill="none" width="89" height="32"/>
<g>
	<g>
		<g>
			<g>
				<g>
					
						<linearGradient id="SVGID_1_" gradientUnits="userSpaceOnUse" x1="-861.7207" y1="29.5205" x2="-860.6008" y2="28.6365" gradientTransform="matrix(88.15 0 0 19.691 75938.875 -555.6626)">
						<stop  offset="0.2562" style="stop-color:#000000"/>
						<stop  offset="0.5271" style="stop-color:#FFD400"/>
						<stop  offset="0.8079" style="stop-color:#FF0000"/>
					</linearGradient>
					<path fill="url(#SVGID_1_)" d="M81.346,17.205c-1.482,0.773-2.791,1.277-3.926,1.513c-1.824,0.388-3.217,0.665-4.184,0.837
						c-1.631,0.235-3.153,0.375-4.57,0.418c-1.785,0.047-2.964,0.078-3.538,0.098c-0.211,0-0.339,0-0.385,0
						c-1.16,0.021-2.24-0.012-3.25-0.098c-1.05-0.087-2.82-0.375-5.31-0.867c-2.274-0.473-3.563-0.774-3.861-0.902
						c-0.082-0.042-0.149-0.063-0.192-0.063l-4.698-0.063l-0.322-0.451c-0.148,0.086-0.363,0.203-0.643,0.354
						c-0.449,0.234-1.352,0.566-2.704,0.998c-1.587,0.58-2.444,0.804-2.572,0.676c-0.152-0.151-0.27-0.324-0.354-0.516
						c-0.108-0.171-0.193-0.388-0.258-0.644c-0.085-0.323-0.312-0.902-0.676-1.739c-0.449-0.965-0.815-1.619-1.095-1.961
						c-0.321-0.387-0.686-0.709-1.092-0.966c-0.452-0.255-0.869-0.385-1.255-0.385c-0.515-0.022-1.008,0.02-1.479,0.13
						c-0.643,0.17-1.105,0.458-1.383,0.866c-0.215,0.323-0.441,0.687-0.677,1.093c-0.129,0.324-0.226,0.516-0.291,0.579
						c-0.085,0.063-0.236,0.097-0.45,0.097c-0.149,0-0.374-0.021-0.674-0.063c-0.903-0.172-1.739-0.323-2.511-0.45
						c-1.457-0.258-2.541-0.354-3.25-0.29c-0.877,0.021-1.469,0.032-1.771,0.032c-0.405,0.02-0.931,0.107-1.573,0.258
						c-0.13,0.021-0.667,0.138-1.61,0.353c-0.409,0.106-0.697,0.16-0.868,0.16c-0.214,0-0.355-0.011-0.42-0.034
						c-0.105-0.02-0.32-0.104-0.643-0.256c-0.386-0.193-0.74-0.312-1.063-0.352c-0.405-0.065-0.761-0.012-1.06,0.159
						c-0.428,0.258-0.773,0.496-1.03,0.71c-0.365,0.32-0.642,0.708-0.835,1.156c-0.066,0.086-0.257,0.549-0.58,1.385
						c-0.173,0.473-0.333,0.752-0.484,0.838c-0.212,0.086-0.45,0.138-0.707,0.16c-0.277,0.043-0.495,0-0.643-0.129
						c-0.322-0.363-0.602-0.664-0.837-0.9c-0.429-0.473-0.761-0.729-0.998-0.772c-0.386-0.106-0.676-0.138-0.869-0.096
						c-0.43,0.021-0.913,0.214-1.448,0.58c-0.516,0.34-1.341,1.157-2.478,2.442c-0.023,0.021-0.688,0.808-1.995,2.35
						c-0.622,0.729-1.125,1.309-1.513,1.736c-0.729,0.771-1.178,1.159-1.351,1.159c-0.299,0-0.524-0.503-0.674-1.513
						c-0.043-0.257-0.033-0.824,0.032-1.704c0.108-1.01,0.257-1.835,0.45-2.479c0.365-1.137,0.729-2.049,1.094-2.732
						c0.622-1.245,1.426-2.36,2.412-3.347c1.096-1.051,2.393-2.07,3.893-3.057c1.352-0.9,2.521-1.534,3.507-1.899
						c1.459-0.535,3.271-1.028,5.439-1.479c1.479-0.321,2.723-0.548,3.729-0.675c4.721-0.537,7.23-0.805,7.529-0.805
						c0.215,0,0.388,0.033,0.515,0.096c0.065,0.045,0.129,0.087,0.193,0.13c0.042,0,1.04,0.033,2.992,0.095
						c0.987,0.044,1.962,0.086,2.927,0.128l0.258-0.19h2.059l10.458,0.804l0.291,0.161c0.191,0.13,0.309,0.277,0.354,0.45
						c0,0.15,0.021,0.182,0.063,0.097c0-0.022,0.01-0.053,0.034-0.097L48.43,7.813l3.506,0.033v0.546h-1.031l0.227,0.481
						c0.217,0.323,0.432,0.517,0.646,0.58c0.234,0.063,1.598,0.031,4.086-0.097c1.242-0.064,2.455-0.139,3.633-0.225l1.417-0.193
						l2.993,0.965c0.416,0.129,0.824,0.247,1.222,0.353c1.8,0.517,3.376,0.871,4.729,1.063c5.252,0.708,8.633,1.019,10.135,0.934
						c0.601-0.021,2.037-0.087,4.313-0.194c2.1-0.105,3.473-0.247,4.117-0.419l-0.098,0.227c-0.43,0.472-0.899,0.964-1.416,1.479
						c-1.094,1.072-1.932,1.781-2.51,2.123C82.941,16.325,81.922,16.906,81.346,17.205z M52.229,18.139
						c-0.064-0.021-0.107-0.043-0.129-0.063c-0.043,0-0.033,0.021,0.032,0.063H52.229z"/>
				</g>
			</g>
		</g>
	</g>
</g>
<linearGradient id="SVGID_2_" gradientUnits="userSpaceOnUse" x1="12.7148" y1="19.4336" x2="30.3649" y2="9.2657">
	<stop  offset="0.3505" style="stop-color:#FFE3A0"/>
	<stop  offset="1" style="stop-color:#00FFFF"/>
</linearGradient>
<path fill="url(#SVGID_2_)" d="M20.852,7.485c-0.008,0.001-0.018,0.003-0.026,0.004c-0.222,0.062-0.34,0.099-0.34,0.099l0.021-0.054
	c-0.182,0.025-0.364,0.052-0.56,0.083c4.154,1.479,8.409,4.072,11.548,8.554c0.004,0.001,0.008,0.001,0.012,0.002
	c0.046,0.006,0.078,0.009,0.12,0.014c-0.43-1.148-2.042-5.146-5.047-9.337C25.32,6.982,23.427,7.192,20.852,7.485z"/>
<linearGradient id="SVGID_3_" gradientUnits="userSpaceOnUse" x1="38.1694" y1="18.5469" x2="53.8139" y2="9.5344" gradientTransform="matrix(0.9879 -0.1553 0.1553 0.9879 -12.6948 5.3618)">
	<stop  offset="0.1781" style="stop-color:#FFE3A0"/>
	<stop  offset="1" style="stop-color:#00FFFF"/>
</linearGradient>
<path fill="url(#SVGID_3_)" d="M35.266,6.939l-0.034,0.024c2.656,0.581,5.35,1.645,7.782,3.473c0,0-1.014-1.438-2.782-3.273
	l-2.907-0.224H35.266z"/>
<g>
	<g>
		<g>
			<g>
				<g>
					<g>
						<linearGradient id="SVGID_4_" gradientUnits="userSpaceOnUse" x1="86.8457" y1="4.5825" x2="0.0798" y2="23.9643">
							<stop  offset="0" style="stop-color:#BB925B"/>
							<stop  offset="0.3429" style="stop-color:#FFF6DA"/>
							<stop  offset="0.6571" style="stop-color:#FFF1B1"/>
							<stop  offset="1" style="stop-color:#B38B54"/>
						</linearGradient>
						<path fill="url(#SVGID_4_)" d="M28.385,7.654c0.029,0,0.051,0.001,0.066,0.002l0.024,0.017l0.056,0.037
							c0.159,0.107,0.352,0.166,0.544,0.17c0.048,0.001,0.332,0.01,0.852,0.027l2.108,0.067l1.723,0.076l1.205,0.053
							c0.015,0,0.03,0.001,0.044,0.001c0.21,0,0.416-0.066,0.587-0.19h1.692l10.184,0.783c0.153,0.604,0.682,0.775,0.982,0.775
							c0.398,0,0.748-0.226,0.935-0.604c0.008-0.015,0.015-0.03,0.021-0.046l0.595,0.006l0.223,0.472
							c0.021,0.046,0.046,0.09,0.074,0.132c0.357,0.53,0.749,0.852,1.219,0.988c0.154,0.041,0.345,0.065,0.861,0.065
							c0.679,0,1.867-0.044,3.533-0.13c1.236-0.063,2.466-0.139,3.655-0.226c0.021-0.002,0.041-0.004,0.062-0.007l1.192-0.163
							l2.785,0.898c0.43,0.134,0.853,0.256,1.243,0.36c1.832,0.527,3.469,0.894,4.872,1.093c4.705,0.635,7.976,0.957,9.72,0.957
							c0.226,0,0.428-0.005,0.583-0.014c0.603-0.021,2.043-0.087,4.328-0.195c0.551-0.027,1.053-0.057,1.507-0.089
							c-1.064,1.018-1.656,1.454-1.97,1.639c-1.479,0.869-2.462,1.429-3.009,1.712c-1.394,0.728-2.626,1.204-3.671,1.42
							c-1.76,0.375-3.155,0.655-4.118,0.826c-1.598,0.23-3.098,0.367-4.454,0.408c-1.789,0.047-2.971,0.079-3.512,0.098h-0.403
							c-0.223,0.004-0.441,0.006-0.658,0.006c-0.868,0-1.706-0.033-2.49-0.1c-1.025-0.086-2.775-0.373-5.189-0.851
							c-2.608-0.542-3.381-0.749-3.604-0.819c-0.057-0.038-0.117-0.07-0.183-0.097c-0.15-0.087-0.323-0.134-0.5-0.134
							c-0.117,0-0.231,0.021-0.34,0.06l-3.809-0.053l-0.028-0.039c-0.193-0.271-0.501-0.419-0.814-0.419
							c-0.17,0-0.343,0.044-0.5,0.135c-0.144,0.083-0.351,0.195-0.604,0.334c-0.269,0.141-0.929,0.416-2.584,0.945
							c-0.904,0.33-1.433,0.493-1.733,0.573c-0.001-0.002-0.002-0.004-0.003-0.005c-0.027-0.045-0.082-0.15-0.138-0.368
							c-0.098-0.372-0.329-0.971-0.736-1.905c-0.487-1.049-0.889-1.76-1.232-2.179c-0.387-0.465-0.833-0.86-1.37-1.198
							c-0.604-0.34-1.19-0.514-1.701-0.514c-0.001,0-0.002,0-0.004,0c-0.101-0.004-0.2-0.006-0.299-0.006
							c-0.501,0-0.988,0.055-1.477,0.169c-0.881,0.233-1.538,0.66-1.96,1.279c-0.23,0.346-0.468,0.731-0.708,1.144
							c-0.025,0.043-0.047,0.087-0.065,0.133c-0.004,0.011-0.009,0.022-0.013,0.033c-0.077-0.008-0.179-0.019-0.312-0.037
							c-0.901-0.171-1.736-0.323-2.497-0.449c-1.231-0.218-2.197-0.324-2.952-0.324c-0.191,0-0.367,0.007-0.528,0.021
							c-0.848,0.02-1.422,0.03-1.716,0.03c-0.017,0-0.034,0-0.051,0.001c-0.459,0.023-1.023,0.113-1.722,0.276
							c-0.101,0.019-0.412,0.081-1.663,0.366c-0.462,0.12-0.604,0.127-0.616,0.128c-0.071,0-0.129,0-0.174-0.004
							c-0.008-0.001-0.017-0.003-0.027-0.005c-0.004-0.001-0.109-0.032-0.416-0.176c-0.496-0.247-0.949-0.395-1.352-0.445
							c-0.163-0.025-0.324-0.039-0.479-0.039c-0.451,0-0.867,0.107-1.254,0.33c-0.467,0.281-0.854,0.549-1.174,0.814
							c-0.45,0.396-0.807,0.879-1.059,1.436c-0.105,0.182-0.254,0.527-0.635,1.514c-0.054,0.146-0.097,0.247-0.129,0.315
							c-0.062,0.013-0.128,0.022-0.2,0.029c-0.254-0.282-0.481-0.524-0.662-0.704c-0.589-0.649-1.044-0.975-1.508-1.075
							c-0.352-0.094-0.65-0.14-0.913-0.14c-0.107,0-0.209,0.008-0.307,0.023c-0.602,0.045-1.221,0.29-1.877,0.739
							c-0.594,0.391-1.444,1.222-2.677,2.616h0.001c-0.119,0.133-0.411,0.477-1.316,1.546L3.074,22.8
							c-0.683,0.799-1.143,1.327-1.48,1.699c-0.107,0.113-0.204,0.214-0.291,0.302c-0.007-0.042-0.014-0.087-0.021-0.133
							c-0.004-0.028-0.042-0.306,0.04-1.435c0.101-0.946,0.24-1.72,0.408-2.279c0.348-1.082,0.692-1.945,1.037-2.592
							c0.569-1.14,1.318-2.179,2.21-3.073c1.047-1.004,2.309-1.994,3.754-2.946c1.281-0.853,2.391-1.457,3.297-1.792
							c1.408-0.517,3.19-1.001,5.307-1.441c1.459-0.317,2.685-0.539,3.629-0.658C27.161,7.747,28.22,7.659,28.385,7.654
							 M28.381,6.654c-0.299,0-2.808,0.268-7.529,0.805c-1.006,0.127-2.25,0.354-3.729,0.675c-2.168,0.451-3.98,0.944-5.439,1.479
							c-0.986,0.365-2.155,0.998-3.507,1.898c-1.5,0.987-2.797,2.006-3.893,3.057c-0.986,0.988-1.79,2.102-2.412,3.348
							c-0.365,0.684-0.729,1.596-1.094,2.732c-0.193,0.645-0.342,1.469-0.45,2.479c-0.065,0.881-0.075,1.447-0.032,1.705
							c0.15,1.01,0.375,1.512,0.674,1.512c0.173,0,0.622-0.387,1.351-1.158c0.388-0.428,0.891-1.008,1.513-1.736
							c1.307-1.543,1.972-2.33,1.995-2.35c1.137-1.285,1.962-2.104,2.478-2.443c0.535-0.365,1.018-0.559,1.448-0.58
							c0.055-0.012,0.117-0.018,0.187-0.018c0.178,0,0.405,0.038,0.682,0.113c0.237,0.043,0.569,0.301,0.998,0.773
							c0.235,0.236,0.515,0.537,0.837,0.9c0.111,0.097,0.262,0.145,0.447,0.145c0.062,0,0.127-0.005,0.196-0.016
							c0.257-0.023,0.495-0.074,0.707-0.16c0.151-0.086,0.311-0.365,0.484-0.838c0.323-0.836,0.514-1.299,0.58-1.385
							c0.193-0.447,0.47-0.836,0.835-1.157c0.257-0.213,0.602-0.451,1.03-0.709c0.217-0.125,0.464-0.187,0.738-0.187
							c0.104,0,0.211,0.009,0.322,0.026c0.323,0.041,0.677,0.16,1.063,0.353c0.323,0.151,0.538,0.236,0.643,0.256
							c0.065,0.023,0.206,0.034,0.42,0.034c0.171,0,0.459-0.054,0.868-0.16c0.943-0.215,1.48-0.332,1.61-0.354
							c0.642-0.15,1.168-0.237,1.573-0.258c0.302,0,0.894-0.011,1.771-0.031c0.143-0.013,0.3-0.02,0.473-0.02
							c0.687,0,1.613,0.103,2.777,0.309c0.772,0.128,1.608,0.279,2.511,0.451c0.3,0.041,0.525,0.063,0.674,0.063
							c0.214,0,0.365-0.034,0.45-0.098c0.065-0.063,0.162-0.254,0.291-0.578c0.236-0.406,0.462-0.77,0.677-1.094
							c0.278-0.407,0.74-0.695,1.383-0.865c0.392-0.092,0.799-0.136,1.221-0.136c0.085,0,0.171,0.002,0.258,0.005
							c0.386,0,0.803,0.131,1.255,0.386c0.406,0.257,0.771,0.579,1.092,0.966c0.28,0.342,0.646,0.996,1.095,1.961
							c0.364,0.836,0.591,1.416,0.676,1.738c0.065,0.256,0.15,0.473,0.258,0.645c0.084,0.191,0.202,0.363,0.354,0.516
							c0.023,0.023,0.07,0.034,0.141,0.034c0.321,0,1.131-0.235,2.431-0.71c1.352-0.432,2.254-0.764,2.704-0.998
							c0.279-0.152,0.494-0.27,0.643-0.355l0.322,0.451l4.698,0.064c0.043,0,0.11,0.02,0.192,0.063
							c0.299,0.127,1.587,0.43,3.861,0.902c2.489,0.492,4.26,0.779,5.31,0.867c0.811,0.069,1.667,0.104,2.573,0.104
							c0.223,0,0.448-0.002,0.677-0.006c0.046,0,0.174,0,0.385,0c0.574-0.02,1.753-0.051,3.538-0.098
							c1.417-0.043,2.939-0.184,4.57-0.418c0.967-0.172,2.359-0.449,4.184-0.838c1.135-0.234,2.443-0.738,3.926-1.512
							c0.576-0.299,1.596-0.88,3.053-1.737c0.578-0.342,1.416-1.051,2.51-2.123c0.517-0.515,0.986-1.007,1.416-1.479l0.098-0.227
							c-0.645,0.172-2.018,0.313-4.117,0.418c-2.275,0.107-3.712,0.174-4.313,0.194c-0.161,0.009-0.344,0.014-0.549,0.014
							c-1.701,0-4.898-0.315-9.586-0.948c-1.354-0.191-2.93-0.545-4.729-1.063c-0.397-0.105-0.806-0.224-1.222-0.354l-2.993-0.965
							L59.496,9.13c-1.178,0.086-2.391,0.161-3.633,0.225c-1.664,0.086-2.825,0.129-3.482,0.129c-0.324,0-0.526-0.011-0.604-0.031
							c-0.215-0.063-0.43-0.258-0.646-0.58l-0.227-0.48h1.031V7.845L48.43,7.812l0.096,0.516c-0.024,0.044-0.034,0.074-0.034,0.097
							c-0.016,0.031-0.028,0.046-0.038,0.046c-0.017,0-0.025-0.047-0.025-0.143c-0.045-0.174-0.162-0.32-0.354-0.45l-0.291-0.161
							L37.325,6.913h-2.059l-0.258,0.19c-0.965-0.043-1.94-0.084-2.927-0.129c-1.952-0.062-2.95-0.095-2.992-0.095
							c-0.064-0.043-0.128-0.085-0.193-0.13C28.769,6.687,28.596,6.654,28.381,6.654L28.381,6.654z M52.132,18.139
							c-0.065-0.041-0.075-0.063-0.032-0.063c0.021,0.02,0.064,0.041,0.129,0.063H52.132L52.132,18.139z"/>
					</g>
				</g>
			</g>
		</g>
	</g>
</g>
<rect fill="none" width="89" height="32"/>
<g>
	<g>
		<path fill="#7A4621" d="M50.195,26.807l5.631,4.694l12.389,0.376c4.254-0.501,7.758-1.627,10.512-3.379
			c3.627-5.028,6.785-7.542,9.469-7.542c-1.821-0.728-3.907-0.429-6.258,0.894c-2.35,1.324-4.733-0.018-7.152-4.022
			c-2.253-1.501-6.667-0.412-10.282,1.342l3.713-5.812L57.35,16.934L50.195,26.807z"/>
	</g>
</g>
<linearGradient id="SVGID_5_" gradientUnits="userSpaceOnUse" x1="-845.5347" y1="44.0938" x2="-844.5346" y2="45.0955" gradientTransform="matrix(30.7822 0 0 12.7634 26081.7891 -545.8325)">
	<stop  offset="0.6071" style="stop-color:#FFF6DA"/>
	<stop  offset="1" style="stop-color:#D6BB7E"/>
</linearGradient>
<path fill="url(#SVGID_5_)" d="M62.539,16.485h-3.188l-6.152,12.764h2.859l0.946-2.165h2.562L59.4,29.249h2.733L62.539,16.485z
	 M60.229,19.699l-0.467,5.42h-1.928L60.229,19.699z M74.502,18.516c0-1.326-1.238-2.03-3.57-2.03c-2.888,0-4.209,0.921-4.897,3.29
	l-1.728,5.949c-0.216,0.697-0.258,1.043-0.258,1.365c0,1.402,1.303,2.159,3.717,2.159c1.33,0,2.373-0.229,3.104-0.698
	c0.787-0.521,1.28-1.326,1.664-2.728l0.409-1.448h-2.734l-0.452,1.57c-0.319,1.145-0.724,1.484-1.69,1.484
	c-0.744,0-1.154-0.271-1.154-0.769c0-0.152,0.048-0.41,0.131-0.733l1.838-6.322c0.278-0.938,0.73-1.313,1.629-1.313
	c0.744,0,1.148,0.271,1.148,0.751c0,0.205-0.063,0.463-0.188,0.956l-0.342,1.231h2.734l0.426-1.49
	C74.439,19.23,74.502,18.838,74.502,18.516z M83.98,16.485h-7.313l-3.479,12.764h7.523l0.535-1.96H76.5l1.064-3.994h4.279
	l0.536-1.93H78.1l0.813-2.95h4.53L83.98,16.485z"/>
</svg>
