<?xml version="1.0" encoding="utf-8"?>
<!-- Generator: Adobe Illustrator 16.0.0, SVG Export Plug-In . SVG Version: 6.00 Build 0)  -->
<!DOCTYPE svg PUBLIC "-//W3C//DTD SVG 1.1//EN" "http://www.w3.org/Graphics/SVG/1.1/DTD/svg11.dtd">
<svg version="1.1" id="图层_1" xmlns="http://www.w3.org/2000/svg" xmlns:xlink="http://www.w3.org/1999/xlink" x="0px" y="0px"
	 width="36px" height="32px" viewBox="0 0 36 32" enable-background="new 0 0 36 32" xml:space="preserve">
<rect fill="none" width="36" height="32"/>
<rect y="-3.042" fill="none" width="12.333" height="32"/>
<g>
	<g>
		<g>
			
				<linearGradient id="SVGID_1_" gradientUnits="userSpaceOnUse" x1="-535.272" y1="32.4219" x2="-536.2725" y2="33.4224" gradientTransform="matrix(11.282 0 0 24.8744 6050.5205 -802.8301)">
				<stop  offset="0.2512" style="stop-color:#FF0000"/>
				<stop  offset="0.5665" style="stop-color:#FFD400"/>
				<stop  offset="0.8571" style="stop-color:#000000"/>
			</linearGradient>
			<path fill="url(#SVGID_1_)" d="M11.216,10.659v-0.26l-0.109-0.14v-0.04h-0.03v-0.04c-0.03,0-0.04-0.01-0.04-0.03l-0.07-0.07
				v-0.04h-0.04v-0.04l-0.029-0.03c0-0.03-0.021-0.04-0.04-0.04v-0.07h-0.04v-0.04l-0.03-0.04v-0.03l-0.04-0.04
				c0-0.02-0.01-0.03-0.04-0.03v-0.08l-0.03-0.03v-0.48l-0.149-0.14v-0.04c-0.021,0-0.04-0.01-0.04-0.03h-0.03v-0.08h-0.04v-0.03
				l-0.04-0.04v-0.07l-0.07-0.08v-0.1l-0.029-0.04v-0.04c-0.03,0-0.04-0.01-0.04-0.03v-0.04l-0.03-0.04v-0.1h-0.04v-0.08l-0.04-0.03
				v-0.04l-0.04-0.04v-0.03h-0.03v-0.04l-0.04-0.04v-0.07c-0.02,0-0.04-0.01-0.04-0.03v-0.08c0-0.02-0.01-0.03-0.029-0.03v-0.08
				l-0.04-0.03v-0.04l-0.03-0.04v-0.07h-0.04v-0.11h-0.04v-0.07l-0.03-0.04v-0.14l-0.04-0.04v-0.04l-0.04-0.03v-0.04l-0.029-0.03
				v-0.04h-0.04v-0.07c0-0.03-0.01-0.04-0.04-0.04v-0.07c0-0.03-0.01-0.04-0.03-0.04v-0.11c-0.03,0-0.04-0.01-0.04-0.03v-0.08h-0.04
				v-0.07l-0.03-0.04v-0.03l-0.039-0.04v-0.03l-0.04-0.04v-0.07l-0.04-0.04v-0.18l-0.03-0.04c0-0.02-0.01-0.04-0.04-0.04v-0.03
				l-0.07-0.08v-0.04l-0.04-0.03v-0.04l-0.029-0.04v-0.1l-0.04-0.04v-0.07l-0.03-0.04v-0.03l-0.04-0.04v-0.04h-0.04v-0.11h-0.04
				v-0.03c-0.02,0-0.03-0.02-0.03-0.04v-0.11l-0.04-0.03v-0.04c0-0.02-0.01-0.04-0.029-0.04v-0.03l-0.04-0.04v-0.07h-0.04v-0.04
				l-0.03-0.04v-0.07l-0.04-0.03v-0.11c0-0.03-0.01-0.04-0.04-0.04v-0.07h-0.03v-0.08h-0.04v-0.11c0-0.02-0.01-0.03-0.029-0.03
				v-0.04h-0.04v-0.07c-0.03,0-0.04-0.01-0.04-0.04v-0.07l-0.03-0.04v-0.11l-0.04-0.03v-0.04h-0.18v-0.03l-0.04-0.04v-0.4h-0.36
				v-0.04c-0.03,0-0.04,0.01-0.04,0.04H7.647v0.11c-0.221,0.22-0.4,0.47-0.551,0.76v-0.14l-0.18-0.07h-4.3
				c-0.17,0.02-0.29,0.12-0.36,0.29c-0.1,0.17-0.15,0.29-0.15,0.36c-0.05,0.15-0.05,0.26,0,0.33h-0.07v0.04h-0.04v0.51h0.51
				c0.15,0.02,0.28,0.03,0.4,0.03h0.04v1.61l-0.11,0.14c-0.02,0.05-0.06,0.11-0.11,0.19c-0.02,0.1-0.02,0.23-0.01,0.39
				c0,0.03,0.01,0.07,0.01,0.11c-0.07,0-0.19,0.02-0.36,0.04c-0.22,0.02-0.43,0.06-0.62,0.11c-0.37,0.02-0.65,0.05-0.84,0.07
				c-0.19,0.03-0.35,0.06-0.47,0.11v0.04c-0.08,0-0.15,0.01-0.22,0.03c-0.03,0.03-0.04,0.05-0.04,0.08
				c-0.12,0.15-0.17,0.29-0.16,0.44c0.01,0.06,0.03,0.12,0.05,0.18v17.819l0.11,0.031c0,0.029,0.09,0.068,0.26,0.148
				c0.12,0.07,0.29,0.15,0.51,0.25c0.43,0.24,1.05,0.451,1.85,0.621c0.37,0.07,0.78,0.129,1.24,0.18c0.49,0.051,0.99,0.029,1.5-0.07
				c0.56-0.049,1.14-0.17,1.75-0.369c0.51-0.121,1.05-0.33,1.64-0.65h0.03c0.05-0.051,0.1-0.08,0.15-0.109l0.14-0.031V8.878h0.04
				c0,0.03,0.01,0.04,0.04,0.04v0.04l0.109,0.14h0.03v0.04l0.04,0.03c0,0.03,0.01,0.04,0.04,0.04v0.07c0,0.03,0.01,0.04,0.03,0.04
				v0.04h0.04v0.03c0.02,0,0.05,0.02,0.069,0.04v0.04h0.04v0.03l0.03,0.04c0,0.02,0.021,0.04,0.04,0.04v0.07h0.04v0.04l0.11,0.07
				v0.03c0.02,0,0.029,0.02,0.029,0.04l0.04,0.07v0.04h0.03v0.04c0.03,0,0.04,0.01,0.04,0.03c0,0.03,0.021,0.04,0.04,0.04v0.07h0.04
				v0.04c0.02,0,0.03,0.01,0.03,0.03v0.08c0.029,0,0.04,0.01,0.04,0.03h0.029l0.04,0.04v0.04h0.04v0.07h0.03v0.04l0.04,0.03v0.07
				l0.04,0.04v0.04l0.03,0.03v0.04h0.04v0.02l0.04,0.02v0.04l0.029,0.04h0.07v13.511h-0.03v0.039h-0.04v0.031h-0.029
				c0,0.02-0.021,0.039-0.04,0.039l-0.07,0.07v0.58h0.51v-0.07h0.03v-0.041l0.04-0.01v-0.039h0.07l0.04-0.07
				c0-0.02,0.01-0.039,0.039-0.039v-0.031h0.101v-14.14C11.266,10.688,11.247,10.679,11.216,10.659z M8.886,22.979
				c-1.819,0.34-3.17,0.51-4.04,0.51c-0.83,0-2.29-0.18-4.38-0.549v-1.342c2.07,0.291,3.5,0.441,4.3,0.441
				c0.78,0,2.15-0.15,4.12-0.441V22.979z"/>
		</g>
	</g>
</g>
<g>
	
		<linearGradient id="SVGID_2_" gradientUnits="userSpaceOnUse" x1="-874.2505" y1="43.5947" x2="-874.5333" y2="43.5947" gradientTransform="matrix(34.5122 0 0 13.1527 30182.1172 -556.8325)">
		<stop  offset="0" style="stop-color:#00FFFF"/>
		<stop  offset="0.6495" style="stop-color:#FFE3A0"/>
	</linearGradient>
	<path fill="url(#SVGID_2_)" d="M0.066,12.039v4.439c3.34,1.231,6.4,2.76,9.18,4.6v-0.699C6.506,17.238,3.437,14.458,0.066,12.039z"
		/>
</g>
<g>
	<linearGradient id="SVGID_3_" gradientUnits="userSpaceOnUse" x1="8.2764" y1="9.8286" x2="0.0178" y2="9.8286">
		<stop  offset="0" style="stop-color:#00FFFF"/>
		<stop  offset="0.8219" style="stop-color:#FFE3A0"/>
	</linearGradient>
	<path fill="url(#SVGID_3_)" d="M7.787,12.019c-2.42-1.35-5.01-2.47-7.77-3.35c-0.01-0.15,0.04-0.29,0.16-0.44
		c0-0.03,0.01-0.05,0.04-0.08c0.07-0.02,0.14-0.03,0.22-0.03v-0.04c0.12-0.05,0.28-0.08,0.47-0.11c0.19-0.02,0.47-0.05,0.84-0.07
		c0.19-0.05,0.4-0.09,0.62-0.11c0.17-0.02,0.29-0.04,0.36-0.04c0-0.04-0.01-0.08-0.01-0.11C4.486,8.979,6.176,10.438,7.787,12.019z"
		/>
</g>
<g>
	<g>
		<g>
			<g>
				<linearGradient id="SVGID_4_" gradientUnits="userSpaceOnUse" x1="-0.2046" y1="26.5117" x2="12.0282" y2="5.3239">
					<stop  offset="0" style="stop-color:#BB925B"/>
					<stop  offset="0.3429" style="stop-color:#FFF6DA"/>
					<stop  offset="0.6571" style="stop-color:#FFF1B1"/>
					<stop  offset="1" style="stop-color:#B38B54"/>
				</linearGradient>
				<path fill="url(#SVGID_4_)" d="M7.72,4.74c0.005,0.015,0.011,0.03,0.017,0.045C7.755,4.854,7.779,4.92,7.811,4.983
					c0.012,0.029,0.026,0.058,0.041,0.086c0.016,0.038,0.034,0.074,0.053,0.11c0.021,0.106,0.057,0.206,0.107,0.298
					c0.025,0.071,0.06,0.138,0.1,0.201c0.009,0.027,0.019,0.055,0.029,0.081c0.012,0.044,0.027,0.087,0.044,0.13
					c0.015,0.043,0.032,0.085,0.052,0.126C8.262,6.08,8.293,6.143,8.33,6.202c0.014,0.081,0.037,0.159,0.069,0.234
					C8.425,6.521,8.462,6.604,8.51,6.68C8.525,6.728,8.544,6.775,8.567,6.82c0.008,0.041,0.019,0.081,0.032,0.119
					C8.615,7.015,8.64,7.088,8.672,7.156c0.028,0.079,0.067,0.153,0.114,0.221C8.793,7.409,8.801,7.439,8.811,7.47
					c0.013,0.074,0.035,0.146,0.064,0.213C8.894,7.749,8.92,7.811,8.952,7.869c0.002,0.004,0.003,0.008,0.005,0.012
					C8.961,7.894,8.965,7.905,8.97,7.917c-0.417,0.12-0.723,0.505-0.723,0.961V20.68c-1.69,0.242-2.831,0.359-3.48,0.359
					c-0.675,0-1.888-0.121-3.7-0.367V8.957c0.176-0.018,0.42-0.043,0.734-0.06C1.868,8.893,1.935,8.883,2,8.866
					c0.154-0.041,0.308-0.068,0.484-0.084l0.162-0.021C2.691,8.755,2.729,8.75,2.727,8.749c0.552,0,1-0.448,1-1
					c0-0.061-0.005-0.121-0.013-0.183c0-0.001,0-0.003,0-0.005l0.02-0.025c0.138-0.176,0.213-0.394,0.213-0.617v-1.61
					c0-0.208-0.069-0.4-0.184-0.56h2.721C6.592,4.833,6.719,4.896,6.859,4.93c0.079,0.019,0.158,0.028,0.237,0.028
					C7.325,4.958,7.544,4.88,7.72,4.74 M1.066,24.057c1.741,0.291,2.982,0.432,3.78,0.432c0.803,0,1.92-0.123,3.4-0.379v1.926
					c-0.42,0.213-0.812,0.361-1.189,0.449c-0.028,0.008-0.055,0.016-0.082,0.023c-0.531,0.174-1.03,0.281-1.527,0.324
					c-0.035,0.004-0.069,0.008-0.103,0.016c-0.265,0.051-0.533,0.078-0.795,0.078c-0.138,0-0.276-0.008-0.403-0.021
					c-0.439-0.047-0.819-0.104-1.142-0.164c-0.865-0.184-1.332-0.381-1.57-0.516c-0.024-0.014-0.049-0.025-0.075-0.037
					c-0.114-0.051-0.211-0.096-0.293-0.137V24.057 M7.796,3.048c-0.03,0-0.04,0.01-0.04,0.04H7.647v0.11
					c-0.221,0.22-0.4,0.47-0.551,0.76v-0.14l-0.18-0.07h-4.3c-0.17,0.02-0.29,0.12-0.36,0.29c-0.1,0.17-0.15,0.29-0.15,0.36
					c-0.05,0.15-0.05,0.26,0,0.33h-0.07v0.04h-0.04v0.51h0.51c0.15,0.02,0.28,0.03,0.4,0.03h0.04v1.61l-0.11,0.14
					c-0.02,0.05-0.06,0.11-0.11,0.19c-0.02,0.1-0.02,0.23-0.01,0.39c0,0.03,0.01,0.07,0.01,0.11c-0.07,0-0.19,0.02-0.36,0.04
					c-0.22,0.02-0.43,0.06-0.62,0.11c-0.37,0.02-0.65,0.05-0.84,0.07c-0.19,0.03-0.35,0.06-0.47,0.11v0.04
					c-0.08,0-0.15,0.01-0.22,0.03c-0.03,0.03-0.04,0.05-0.04,0.08c-0.12,0.15-0.17,0.29-0.16,0.44c0.01,0.06,0.03,0.12,0.05,0.18
					v17.819l0.11,0.031c0,0.029,0.09,0.068,0.26,0.148c0.12,0.07,0.29,0.15,0.51,0.25c0.43,0.24,1.05,0.451,1.85,0.621
					c0.37,0.07,0.78,0.129,1.24,0.18c0.17,0.018,0.341,0.027,0.513,0.027c0.325,0,0.653-0.031,0.987-0.098
					c0.56-0.049,1.14-0.17,1.75-0.369c0.51-0.121,1.05-0.33,1.64-0.65h0.03c0.05-0.051,0.1-0.08,0.15-0.109l0.14-0.031V8.878h0.04
					c0,0.03,0.01,0.04,0.04,0.04v0.04l0.109,0.14h0.03v0.04l0.04,0.03c0,0.03,0.01,0.04,0.04,0.04v0.07c0,0.03,0.01,0.04,0.03,0.04
					v0.04h0.04v0.03c0.02,0,0.05,0.02,0.069,0.04v0.04h0.04v0.03l0.03,0.04c0,0.02,0.021,0.04,0.04,0.04v0.07h0.04v0.04l0.11,0.07
					v0.03c0.02,0,0.029,0.02,0.029,0.04l0.04,0.07v0.04h0.03v0.04c0.03,0,0.04,0.01,0.04,0.03c0,0.03,0.021,0.04,0.04,0.04v0.07
					h0.04v0.04c0.02,0,0.03,0.01,0.03,0.03v0.08c0.029,0,0.04,0.01,0.04,0.03h0.029l0.04,0.04v0.04h0.04v0.07h0.03v0.04l0.04,0.03
					v0.07l0.04,0.04v0.04l0.03,0.03v0.04h0.04v0.02l0.04,0.02v0.04l0.029,0.04h0.07v13.511h-0.03v0.039h-0.04v0.031h-0.029
					c0,0.02-0.021,0.039-0.04,0.039l-0.07,0.07v0.58h0.51v-0.07h0.03v-0.041l0.04-0.01v-0.039h0.07l0.04-0.07
					c0-0.02,0.01-0.039,0.039-0.039v-0.031h0.101v-14.14c-0.021,0-0.04-0.01-0.07-0.03v-0.26l-0.109-0.14v-0.04h-0.03v-0.04
					c-0.03,0-0.04-0.01-0.04-0.03l-0.07-0.07v-0.04h-0.04v-0.04l-0.029-0.03c0-0.03-0.021-0.04-0.04-0.04v-0.07h-0.04v-0.04
					l-0.03-0.04v-0.03l-0.04-0.04c0-0.02-0.01-0.03-0.04-0.03v-0.08l-0.03-0.03v-0.48l-0.149-0.14v-0.04
					c-0.021,0-0.04-0.01-0.04-0.03h-0.03v-0.08h-0.04v-0.03l-0.04-0.04v-0.07l-0.07-0.08v-0.1l-0.029-0.04v-0.04
					c-0.03,0-0.04-0.01-0.04-0.03v-0.04l-0.03-0.04v-0.1h-0.04v-0.08l-0.04-0.03v-0.04l-0.04-0.04v-0.03h-0.03v-0.04l-0.04-0.04
					v-0.07c-0.02,0-0.04-0.01-0.04-0.03v-0.08c0-0.02-0.01-0.03-0.029-0.03v-0.08l-0.04-0.03v-0.04l-0.03-0.04v-0.07h-0.04v-0.11
					h-0.04v-0.07l-0.03-0.04v-0.14l-0.04-0.04v-0.04l-0.04-0.03v-0.04l-0.029-0.03v-0.04h-0.04v-0.07c0-0.03-0.01-0.04-0.04-0.04
					v-0.07c0-0.03-0.01-0.04-0.03-0.04v-0.11c-0.03,0-0.04-0.01-0.04-0.03v-0.08h-0.04v-0.07l-0.03-0.04v-0.03l-0.039-0.04v-0.03
					l-0.04-0.04v-0.07l-0.04-0.04v-0.18l-0.03-0.04c0-0.02-0.01-0.04-0.04-0.04v-0.03l-0.07-0.08v-0.04l-0.04-0.03v-0.04
					l-0.029-0.04v-0.1l-0.04-0.04v-0.07l-0.03-0.04v-0.03l-0.04-0.04v-0.04h-0.04v-0.11h-0.04v-0.03c-0.02,0-0.03-0.02-0.03-0.04
					v-0.11l-0.04-0.03v-0.04c0-0.02-0.01-0.04-0.029-0.04v-0.03l-0.04-0.04v-0.07h-0.04v-0.04l-0.03-0.04v-0.07l-0.04-0.03v-0.11
					c0-0.03-0.01-0.04-0.04-0.04v-0.07h-0.03v-0.08h-0.04v-0.11c0-0.02-0.01-0.03-0.029-0.03v-0.04h-0.04v-0.07
					c-0.03,0-0.04-0.01-0.04-0.04v-0.07l-0.03-0.04v-0.11l-0.04-0.03v-0.04h-0.18v-0.03l-0.04-0.04v-0.4h-0.36V3.048L7.796,3.048z
					 M4.767,22.039c0.78,0,2.15-0.15,4.12-0.441v1.381c-1.819,0.34-3.17,0.51-4.04,0.51c-0.83,0-2.29-0.18-4.38-0.549v-1.342
					C2.537,21.889,3.966,22.039,4.767,22.039L4.767,22.039z"/>
			</g>
		</g>
	</g>
</g>
<g>
	<g>
		<g>
			<path fill="#7A4621" d="M5.9,24.168l4.445,3.706l9.78,0.296c3.359-0.395,6.125-1.283,8.299-2.667
				c2.864-3.97,5.355-5.954,7.477-5.954c-1.438-0.574-3.086-0.339-4.94,0.706s-3.737-0.015-5.647-3.177
				c-1.777-1.185-5.263-0.326-8.118,1.059l2.931-4.588l-8.578,2.824L5.9,24.168z"/>
		</g>
	</g>
</g>
<linearGradient id="SVGID_5_" gradientUnits="userSpaceOnUse" x1="-551.9868" y1="80.3164" x2="-550.9877" y2="81.3171" gradientTransform="matrix(24.3018 0 0 10.0763 13423.4863 -792.8955)">
	<stop  offset="0.6071" style="stop-color:#FFF6DA"/>
	<stop  offset="1" style="stop-color:#D6BB7E"/>
</linearGradient>
<path fill="url(#SVGID_5_)" d="M15.645,16.02h-2.517L8.271,26.096h2.258l0.747-1.709h2.022l-0.132,1.709h2.159L15.645,16.02z
	 M13.82,18.557l-0.368,4.279H11.93L13.82,18.557z M25.09,17.621c0-1.046-0.979-1.602-2.818-1.602c-2.28,0-3.324,0.727-3.869,2.598
	l-1.362,4.695c-0.17,0.551-0.204,0.823-0.204,1.078c0,1.106,1.028,1.704,2.935,1.704c1.049,0,1.873-0.18,2.449-0.551
	c0.621-0.412,1.012-1.047,1.313-2.153l0.323-1.144h-2.158l-0.357,1.239c-0.252,0.904-0.57,1.173-1.335,1.173
	c-0.588,0-0.911-0.214-0.911-0.606c0-0.119,0.037-0.324,0.104-0.578l1.451-4.992c0.219-0.74,0.576-1.037,1.285-1.037
	c0.588,0,0.905,0.213,0.905,0.594c0,0.162-0.049,0.365-0.147,0.754l-0.271,0.973h2.16l0.335-1.176
	C25.039,18.188,25.09,17.877,25.09,17.621z M32.572,16.02h-5.774l-2.747,10.076h5.939l0.424-1.547h-3.748l0.841-3.152h3.38
	l0.422-1.523H27.93l0.644-2.329h3.577L32.572,16.02z"/>
</svg>
