<?xml version="1.0" encoding="utf-8"?>
<!-- Generator: Adobe Illustrator 16.0.0, SVG Export Plug-In . SVG Version: 6.00 Build 0)  -->
<!DOCTYPE svg PUBLIC "-//W3C//DTD SVG 1.1//EN" "http://www.w3.org/Graphics/SVG/1.1/DTD/svg11.dtd">
<svg version="1.1" id="图层_1" xmlns="http://www.w3.org/2000/svg" xmlns:xlink="http://www.w3.org/1999/xlink" x="0px" y="0px"
	 width="52.375px" height="32px" viewBox="0 0 52.375 32" enable-background="new 0 0 52.375 32" xml:space="preserve">
<rect fill="none" width="52.375" height="32"/>
<g>
	<g>
		<g>
			<g>
				
					<linearGradient id="SVGID_1_" gradientUnits="userSpaceOnUse" x1="-547.1484" y1="27.1689" x2="-548.28" y2="28.0036" gradientTransform="matrix(51.777 0 0 29.796 28382.3086 -807.709)">
					<stop  offset="0.2512" style="stop-color:#FF0000"/>
					<stop  offset="0.5665" style="stop-color:#FFD400"/>
					<stop  offset="0.8571" style="stop-color:#000000"/>
				</linearGradient>
				<path fill="url(#SVGID_1_)" d="M51.827,5.84V5.71h-1.399V5.49h-0.21V5.01c-0.061,0-0.11-0.01-0.141-0.04V4.75
					c-0.06,0-0.08-0.02-0.08-0.04V3.96c-0.09,0-0.149-0.01-0.18-0.04h-0.04c-0.03-0.03-0.05-0.06-0.05-0.09
					c-0.05,0-0.1-0.01-0.13-0.04c-0.03-0.03-0.061-0.06-0.09-0.09V3.48h-0.261V3.35c-0.029,0-0.06-0.02-0.09-0.05V2.87h-0.09
					c-0.03-0.03-0.04-0.06-0.04-0.09c-0.03,0-0.05-0.01-0.05-0.04h-0.08V2.65c-0.03-0.03-0.06-0.06-0.09-0.09l-0.04-0.04h-0.05
					c0-0.03-0.011-0.06-0.04-0.09V2.39c-0.03,0-0.05-0.01-0.05-0.05c-0.021,0-0.04-0.01-0.04-0.04l-0.091-0.09V2.17h-1.26v0.05
					l-0.05,0.04c-0.03,0-0.04,0.01-0.04,0.04v0.05c0,0.03-0.02,0.04-0.04,0.04c0,0.03-0.02,0.05-0.05,0.05
					c-0.03,0.02-0.04,0.05-0.04,0.08h-0.04c-0.03,0.03-0.06,0.05-0.09,0.05v0.09h-0.05c-0.03,0.02-0.04,0.05-0.04,0.08h-0.04
					c0,0.03-0.021,0.04-0.051,0.04c-0.02,0.03-0.039,0.06-0.039,0.09h-0.131v0.48h-18.79V2.17c-0.029-0.03-0.06-0.06-0.09-0.09
					c-0.029-0.02-0.069-0.04-0.13-0.04L27.447,2l-0.05-0.09c-0.03,0-0.06-0.02-0.09-0.04l-0.04-0.05h-0.09
					c-0.03,0-0.04-0.01-0.04-0.04c-0.03-0.03-0.061-0.05-0.09-0.05c0-0.03-0.011-0.04-0.04-0.04c-0.03,0-0.061-0.02-0.09-0.04
					c0-0.03-0.03-0.05-0.091-0.05c0-0.03-0.01-0.04-0.04-0.04V1.52c-0.029-0.03-0.06-0.05-0.09-0.05l-0.04-0.04
					c-0.03-0.03-0.06-0.05-0.09-0.05V1.34c-0.03,0-0.06-0.01-0.09-0.04V1.25c-0.17-0.02-0.34-0.04-0.52-0.04v0.04h-0.04v0.09h-0.31
					c-0.03,0-0.06,0.02-0.09,0.05c-0.02,0.03-0.07,0.04-0.12,0.04c0,0.03-0.02,0.04-0.05,0.04c0,0.03-0.01,0.05-0.04,0.05
					l-0.09,0.08c-0.03,0.03-0.06,0.05-0.09,0.05v0.04h-0.04c-0.03,0-0.04,0.02-0.04,0.04c-0.03,0-0.06,0.02-0.09,0.05l-0.05,0.04
					c-0.02,0-0.05,0.02-0.08,0.05l-0.04,0.04c-0.06,0-0.12,0.01-0.18,0.04c-0.03,0-0.04,0.02-0.04,0.05
					c-0.03,0.03-0.06,0.04-0.09,0.04h-0.05v1.09h-0.6c-2.3-0.01-4.59-0.02-6.89-0.03h-0.74c-3.2-0.01-6.39-0.01-9.59-0.01V2.74
					l-0.05-0.09c-0.03-0.03-0.04-0.07-0.04-0.13c-0.03,0-0.05-0.01-0.05-0.04V2.17c-0.11,0-0.23-0.01-0.35-0.04V2.08
					c-0.31-0.02-0.62-0.04-0.91-0.04v0.09c-0.03,0-0.05,0.01-0.05,0.04c0,0.03-0.01,0.06-0.04,0.09h-0.04v0.09
					c-0.03,0-0.06,0.01-0.09,0.04h-0.04v0.39c-0.09-0.03-0.21-0.04-0.35-0.04V3h-0.05v0.05h-0.04c-0.03,0.02-0.07,0.04-0.13,0.04
					v0.13c-0.03,0-0.07,0.01-0.13,0.05c-0.09,0.02-0.16,0.05-0.22,0.08V3.4c-0.03,0.02-0.07,0.05-0.13,0.08v0.09h-0.26
					c0,0.03-0.02,0.06-0.05,0.09c-0.06,0.03-0.1,0.05-0.13,0.08c-0.06,0.03-0.12,0.06-0.17,0.09c-0.03,0.03-0.05,0.06-0.05,0.09
					c-0.06,0-0.11,0.01-0.17,0.04c-0.03,0.03-0.07,0.06-0.13,0.09l-0.05,0.04c-0.06,0.03-0.11,0.06-0.17,0.09v0.05
					c-0.03,0.02-0.08,0.04-0.13,0.04l-0.05,0.04v0.05c-0.01,0.01-0.03,0.02-0.04,0.03c-0.03,0.02-0.05,0.04-0.05,0.06
					c-0.08,0.02-0.15,0.05-0.21,0.08c0,0.03-0.02,0.06-0.05,0.09c-0.03,0.03-0.05,0.06-0.08,0.09c-0.09,0.02-0.16,0.04-0.22,0.04
					c-0.03,0.06-0.06,0.1-0.09,0.13v0.09C1.768,5,1.757,5.03,1.757,5.06c-0.09,0.02-0.16,0.04-0.22,0.04h-0.05
					c0,0.03-0.01,0.06-0.04,0.09c0,0.03-0.01,0.05-0.04,0.08c-0.09,0.03-0.18,0.06-0.26,0.09v0.09h-0.09v0.61h-0.09v4.59h0.09v0.18
					c0.03,0.02,0.06,0.05,0.09,0.08V11c0.05,0.03,0.11,0.04,0.17,0.04l0.09,0.09v0.22c0.06,0.03,0.1,0.04,0.13,0.04
					c0.06,0.03,0.1,0.06,0.13,0.09v0.04c0.06,0.03,0.1,0.06,0.13,0.09v0.09c0.03,0.03,0.06,0.04,0.09,0.04
					c0,0.06,0.01,0.1,0.04,0.13c0.03,0.03,0.07,0.06,0.13,0.09c0.03,0,0.06,0.03,0.09,0.09c0.03,0.03,0.05,0.06,0.08,0.09
					c0.06,0,0.11,0.01,0.13,0.04v0.04c0.06,0,0.14,0.02,0.22,0.05v0.08h2.14v0.58c0.03,0.06,0.06,0.1,0.09,0.13v0.18
					c0.06,0.02,0.1,0.04,0.13,0.04c0.06,0.06,0.1,0.1,0.13,0.13c0.03,0.03,0.06,0.06,0.09,0.09v0.13c0.06,0.06,0.1,0.1,0.13,0.13
					v0.17c0.06,0.03,0.1,0.05,0.13,0.05l0.09,0.09v0.17c0.03,0.03,0.07,0.06,0.13,0.09v0.13c0.03,0.06,0.07,0.1,0.13,0.13v0.35
					c-0.06,0-0.1,0.02-0.13,0.04v0.13c0,0.03-0.01,0.06-0.04,0.09c-0.03,0.06-0.06,0.09-0.09,0.09v0.22l-0.04,0.04l-0.05,0.09v0.13
					c-0.03,0-0.07,0.03-0.13,0.08v0.13c0,0.03-0.03,0.08-0.09,0.13c-0.03,0-0.04,0.03-0.04,0.09v0.04l-0.04,0.09
					c-0.03,0.06-0.05,0.1-0.05,0.13c-0.03,0-0.07,0.02-0.13,0.05v0.17c-0.03,0.03-0.07,0.061-0.13,0.09v0.171
					c-0.03,0.029-0.06,0.06-0.09,0.09v0.09c-0.05,0.03-0.1,0.06-0.13,0.09v0.08c-0.03,0.03-0.07,0.06-0.13,0.09v0.09
					c-0.03,0.021-0.05,0.061-0.09,0.09v0.08c-0.02,0.03-0.07,0.051-0.12,0.051v0.17c-0.03,0.029-0.08,0.06-0.14,0.09v0.08
					c-0.03,0.029-0.06,0.06-0.09,0.09v0.09c-0.02,0.03-0.07,0.04-0.13,0.04v0.22c-0.02,0-0.07,0.011-0.13,0.04
					c-0.02,0.061-0.06,0.09-0.08,0.09c0,0.03-0.02,0.061-0.05,0.091v0.13h-0.08v0.09c-0.06,0.03-0.11,0.06-0.13,0.09
					c0,0.02-0.02,0.06-0.05,0.08c-0.03,0.03-0.06,0.06-0.09,0.09v0.09c-0.03,0.03-0.05,0.061-0.08,0.09
					c-0.03,0.021-0.05,0.061-0.05,0.08c0,0.03-0.01,0.061-0.04,0.09c0,0.03-0.02,0.061-0.04,0.091v0.08
					c-0.06,0.029-0.11,0.06-0.14,0.09v0.09c-0.02,0.03-0.05,0.06-0.08,0.09c-0.03,0.021-0.05,0.05-0.05,0.08
					c-0.02,0.06-0.05,0.09-0.08,0.09v0.18c-0.03,0.03-0.08,0.061-0.13,0.091v0.22c-0.03,0-0.05,0.03-0.05,0.09
					c-0.03,0-0.04,0.01-0.04,0.04l-0.05,0.09c0,0.03-0.01,0.07-0.04,0.13c-0.03,0-0.04,0.03-0.04,0.09c-0.03,0-0.08,0.011-0.13,0.04
					v0.04c0,0.03-0.02,0.061-0.05,0.091c0,0.029-0.01,0.06-0.04,0.09v0.17c-0.03,0.029-0.07,0.05-0.13,0.08
					c-0.03,0.029-0.05,0.06-0.05,0.09s-0.01,0.07-0.04,0.13c-0.03,0-0.04,0.02-0.04,0.04c-0.03,0.04-0.06,0.06-0.09,0.09v0.22h-0.13
					v0.091c-0.03,0.029-0.06,0.06-0.09,0.09c-0.03,0.02-0.06,0.05-0.09,0.08c-0.02,0.029-0.05,0.06-0.08,0.09v0.18
					c0,0.021-0.03,0.05-0.09,0.08v0.27c-0.06,0.021-0.12,0.051-0.17,0.08v0.181c-0.03,0-0.06,0.01-0.09,0.04v0.35
					c-0.03,0-0.06,0.021-0.09,0.04v0.09c-0.03,0.03-0.04,0.061-0.04,0.09c0,0.03-0.02,0.07-0.04,0.13c-0.03,0-0.06,0.011-0.09,0.04
					v0.311h-0.09v0.39c0,0.03-0.01,0.061-0.04,0.09c-0.03,0.03-0.05,0.061-0.05,0.091v0.35c-0.02,0.03-0.04,0.06-0.04,0.08
					c-0.03,0.03-0.06,0.06-0.09,0.09v0.17c-0.03,0.03-0.06,0.061-0.09,0.09c-0.02,0.03-0.05,0.061-0.08,0.09v1.57
					c0.03,0.061,0.06,0.09,0.08,0.09c0.03,0.061,0.06,0.09,0.09,0.09v0.131c0.03,0,0.06,0.02,0.09,0.04
					c0.14,0.029,0.31,0.05,0.48,0.05v0.26c0.03,0,0.06,0.02,0.09,0.04c0.38,0.03,0.74,0.06,1.09,0.09c0.06,0,0.09,0.01,0.09,0.04
					c0.08,0,0.17,0.021,0.26,0.05c0.03,0.03,0.07,0.04,0.13,0.04h1.49l0.04,0.04c0.14,0.03,0.32,0.05,0.52,0.05v0.091
					c0.61,0,1.22,0.01,1.84,0.039c0.03,0,0.04,0.011,0.04,0.04c0.58,0.03,1.15,0.061,1.7,0.091v0.04c0.41,0.029,0.81,0.05,1.19,0.05
					v0.09h0.04c0.29,0,0.6,0.01,0.92,0.04c0-0.03,0.01-0.061,0.04-0.09c0.06-0.03,0.12-0.061,0.18-0.09V28.43
					c0.02-0.029,0.07-0.04,0.13-0.04v-1.01c0-0.03-0.02-0.04-0.05-0.04c-0.03-0.06-0.05-0.1-0.08-0.13v-0.09
					c-0.03-0.03-0.05-0.061-0.05-0.09l-0.04-0.04v-0.13c-0.06,0-0.1-0.021-0.13-0.051V26.73c-0.06,0-0.1-0.03-0.13-0.091v-0.13
					c0-0.06,0.03-0.1,0.09-0.13c0.03,0,0.04-0.03,0.04-0.09v-0.13c0-0.061,0.03-0.101,0.09-0.13l0.04-0.09V25.68
					c0.03,0,0.06-0.029,0.09-0.09V25.5c0.03-0.02,0.07-0.04,0.13-0.04v-0.3c0.03-0.03,0.07-0.05,0.13-0.05v-0.17
					c0-0.03,0.01-0.061,0.04-0.091c0-0.029,0.02-0.06,0.05-0.09v-0.08c0.03-0.029,0.06-0.05,0.08-0.05v-0.22l0.05-0.04
					c0.03-0.061,0.06-0.09,0.08-0.09c0-0.061,0.02-0.101,0.05-0.13V24.06c0.03-0.029,0.07-0.04,0.13-0.04V23.8l0.04-0.09v-0.17
					c0.03-0.03,0.07-0.06,0.13-0.09l0.05-0.09v-0.08c0.03,0,0.07-0.021,0.13-0.05V22.88l0.04-0.04v-0.22c0.06,0,0.09-0.03,0.09-0.08
					c0.03-0.03,0.06-0.05,0.09-0.05v-0.13l0.08-0.091l0.05-0.079V22.14c0-0.06,0.01-0.1,0.04-0.13v-0.18l0.04-0.04
					c0.03-0.06,0.06-0.1,0.09-0.13c0.03-0.03,0.05-0.061,0.05-0.08c0-0.04,0.01-0.061,0.04-0.09c0.03-0.03,0.06-0.05,0.09-0.05
					V21.14c0.02-0.029,0.04-0.06,0.04-0.09c0.03-0.03,0.04-0.06,0.04-0.09c0.03-0.03,0.06-0.06,0.09-0.09
					c0.03-0.03,0.05-0.05,0.05-0.08V20.7c0.02,0,0.07-0.021,0.13-0.05V20.35l0.04-0.05c0-0.02,0.01-0.05,0.04-0.08v-0.09
					c0.03-0.03,0.06-0.07,0.09-0.13c0.03,0,0.04-0.03,0.04-0.09l0.05-0.04c0.03-0.061,0.06-0.09,0.08-0.09
					c0-0.03,0.02-0.07,0.05-0.13l0.04-0.091v-0.04c0.99,0,1.98,0.021,2.97,0.04V18.6h5.16v2.45h0.09v0.13
					c0.08,0,0.18,0.021,0.3,0.04c0,0.03,0.02,0.061,0.05,0.09c0.11,0,0.23,0.021,0.34,0.051v0.08h1.1c0-0.021,0.01-0.061,0.04-0.08
					c0-0.03,0.01-0.07,0.04-0.091c0.06-0.029,0.11-0.06,0.14-0.09v-0.04c0-0.029,0.01-0.06,0.04-0.09c0.03-0.03,0.06-0.06,0.09-0.09
					v-0.09c0-0.021,0.01-0.04,0.04-0.04h0.05v10.18h7.03v-9.79l0.04-0.04c0.03-0.029,0.05-0.06,0.05-0.09v-0.22
					c0.03-0.03,0.061-0.04,0.08-0.04v-0.18c0.03,0,0.05-0.011,0.05-0.04h0.09c0.03-0.03,0.061-0.051,0.08-0.051
					c0.03-0.02,0.061-0.04,0.09-0.04h0.04V20.48c0.03,0,0.061-0.021,0.091-0.04c0.029,0,0.05-0.021,0.05-0.051
					c0.029-0.029,0.06-0.04,0.09-0.04h0.13v-0.18c0-0.03,0.01-0.04,0.04-0.04v-0.04c0.03,0,0.04-0.02,0.04-0.05s0.02-0.04,0.05-0.04
					v-0.05l0.04-0.05V19.59l0.04-0.04v-0.04c0.03,0,0.05-0.01,0.05-0.04V19.11l-0.05-0.04v-0.74c-0.02-0.03-0.04-0.061-0.04-0.09
					c-0.03,0-0.04-0.03-0.04-0.09c-0.06-0.021-0.109-0.061-0.13-0.08h-0.36v-2.93l0.091-0.09v-0.04l0.05-0.09
					c0.05-0.02,0.109-0.04,0.17-0.04c0-0.03,0.02-0.04,0.05-0.04v-0.05c0.021-0.02,0.05-0.04,0.08-0.04v-0.09h0.05v-0.04l0.04-0.04
					c0.03,0,0.061-0.02,0.09-0.05v-0.04c0-0.03,0.011-0.05,0.04-0.05c0-0.02,0.021-0.04,0.04-0.04v-0.09h0.05
					c0.03-0.02,0.061-0.04,0.091-0.04v-0.09c0-0.02,0.02-0.05,0.04-0.08h0.039c0-0.03,0.021-0.05,0.051-0.05v-0.08l0.13-0.14
					c0-0.02,0.01-0.05,0.04-0.08h0.05V13.7c0-0.03,0.01-0.06,0.04-0.08h0.04l0.05-0.05v-0.09h0.04c0-0.02,0.021-0.05,0.05-0.08h0.04
					v-0.13h0.09v-0.09c0.021,0,0.051-0.02,0.08-0.05h0.09v-0.08h0.311c0.26,0.03,0.52,0.04,0.78,0.04v-0.04
					c0.319-0.03,0.64-0.06,0.96-0.09v-0.08h0.18v-2.71h0.74v-0.05c4.189,0.03,8.39,0.06,12.59,0.09v0.04h0.649v-0.04l0.04-0.04V9.91
					h0.181c0-0.03,0.01-0.05,0.04-0.05V9.77l0.05-0.04V9.69c0.02,0,0.04-0.02,0.04-0.05l0.04-0.04V9.51c0.03,0,0.05-0.01,0.05-0.04
					c0.03,0,0.04-0.02,0.04-0.05V9.25c0.06,0,0.12-0.02,0.18-0.04V9.08c0.021-0.04,0.051-0.06,0.08-0.09
					c0.03-0.03,0.05-0.06,0.05-0.09c0.021-0.03,0.061-0.07,0.08-0.13V8.42h0.13V8.07h0.141V8.02c0.55,0,1.09,0.02,1.609,0.05h0.141
					V5.84H51.827z M6.348,15.94h-0.05v-0.05h0.05V15.94z M22.118,15.59v0.26c-0.06,0.03-0.12,0.04-0.18,0.04v0.22
					c-0.02,0-0.05,0.02-0.08,0.04v0.09c-0.03,0.03-0.06,0.06-0.09,0.09c-0.03,0.03-0.07,0.06-0.13,0.09v0.35
					c-2.13-0.029-4.27-0.06-6.42-0.09v-0.13c0.05-0.06,0.1-0.11,0.13-0.13c0-0.06,0.01-0.09,0.04-0.09v-0.26
					c0.06-0.06,0.1-0.11,0.13-0.13c0-0.03,0.02-0.06,0.05-0.09v-0.13c0.05-0.06,0.1-0.1,0.13-0.13v-0.22
					c0.02-0.06,0.04-0.1,0.04-0.13c0.06-0.06,0.09-0.11,0.09-0.14c0-0.02,0.01-0.07,0.04-0.13c0.03-0.02,0.06-0.05,0.09-0.08
					c0.03-0.06,0.06-0.1,0.09-0.13v-0.27c0-0.03,0.03-0.05,0.08-0.08c0.03-0.06,0.05-0.1,0.05-0.13v-0.13
					c0.06-0.03,0.1-0.08,0.13-0.14c0-0.03,0.01-0.05,0.04-0.08l0.04-0.05c0.03-0.03,0.06-0.05,0.09-0.08v-0.05
					c0.03-0.02,0.07-0.06,0.13-0.09l0.05-0.04h0.08v0.13c0.03,0.03,0.05,0.06,0.05,0.09l0.04,0.04v0.18l0.04,0.04v0.13
					c0.03,0,0.05,0.02,0.05,0.05c0.03,0,0.04,0.01,0.04,0.04c0.03,0.03,0.05,0.06,0.05,0.09v0.04c0.03,0,0.06,0.01,0.08,0.04v0.05
					l0.05,0.04v0.09h0.04c0.03,0.03,0.04,0.06,0.04,0.09c0.03,0,0.05,0.01,0.05,0.04c0.03,0,0.06,0.01,0.09,0.04l0.04,0.05
					c0,0.03,0.01,0.04,0.04,0.04s0.05,0.01,0.05,0.04v0.05l0.04,0.04c0.03,0,0.05,0.01,0.05,0.04c0,0.03,0.01,0.05,0.04,0.05
					c0.03,0,0.04,0.01,0.04,0.04c0.03,0,0.06,0.02,0.09,0.04l0.04,0.05c0.03,0,0.04,0.01,0.04,0.04v0.04l0.05,0.05
					c0.03,0,0.04,0.01,0.04,0.04c0,0.03,0.02,0.04,0.05,0.04c0.02,0,0.04,0.02,0.04,0.05c0.03,0,0.06,0.01,0.09,0.04l0.04,0.04
					c0.03,0,0.04,0.02,0.04,0.05v0.04l0.05,0.05h0.13c0,0.02,0.01,0.04,0.04,0.04c0,0.03,0.02,0.04,0.05,0.04l0.04,0.05
					c0.03,0,0.04,0.01,0.04,0.04c0.06,0,0.1,0.02,0.13,0.04h0.22v0.05l0.04,0.04c0.03,0,0.06,0.02,0.09,0.04h0.09
					c0.03,0,0.06,0.02,0.09,0.05h0.13c0.03,0.03,0.07,0.04,0.13,0.04h0.39l0.04-0.04h0.05c0-0.03,0.01-0.05,0.04-0.05
					c0-0.02,0.02-0.04,0.05-0.04v-0.09h0.04v-0.08l0.04-0.05c0-0.02,0.02-0.06,0.05-0.08l0.04-0.05v-0.09l-0.04-0.04
					c-0.03-0.03-0.06-0.06-0.09-0.09h-0.09l-0.04-0.04v-0.09c-0.03-0.03-0.06-0.04-0.09-0.04c-0.03-0.03-0.06-0.04-0.09-0.04
					c-0.02,0-0.05-0.02-0.08-0.05h-0.05c-0.02,0-0.04-0.01-0.04-0.04v-0.04c-0.03,0-0.06-0.02-0.09-0.05l-0.04-0.04h-0.04v-0.04
					l-0.05-0.05c0-0.03-0.01-0.04-0.04-0.04c-0.03,0-0.06-0.01-0.09-0.04V14.8h-0.04c0-0.03-0.02-0.06-0.04-0.09l-0.05-0.04h-0.09
					v-0.09h-0.08c0-0.03-0.02-0.06-0.05-0.09v-0.04c-0.03-0.03-0.06-0.06-0.08-0.09c-0.03,0-0.05-0.01-0.05-0.04h-0.04
					c-0.03-0.03-0.05-0.06-0.05-0.09h-0.04c0-0.03-0.01-0.06-0.04-0.08l-0.05-0.05v-0.09c-0.02,0-0.04-0.01-0.04-0.04l-0.04-0.05
					v-0.04h-0.04v-0.22l-0.05-0.04h2.36c0.2,0.03,0.41,0.04,0.61,0.04l0.18,0.18v0.08c0.05,0.04,0.1,0.05,0.13,0.05v0.13
					c0.06,0.03,0.1,0.06,0.13,0.09v0.26c0.03,0.03,0.06,0.06,0.09,0.09v0.17c0.03,0.03,0.05,0.06,0.08,0.09c0,0.03,0,0.06,0.01,0.09
					v0.09c0.05,0.03,0.1,0.06,0.13,0.08c0,0.03,0.01,0.06,0.04,0.09v0.18c0,0.02,0.02,0.05,0.04,0.08c0.03,0.03,0.05,0.06,0.05,0.09
					L22.118,15.59z"/>
			</g>
		</g>
	</g>
</g>
<g>
	
		<linearGradient id="SVGID_2_" gradientUnits="userSpaceOnUse" x1="-865.7632" y1="42.9131" x2="-866.5125" y2="42.9131" gradientTransform="matrix(34.5122 0 0 13.1527 29907.7344 -556.8325)">
		<stop  offset="0" style="stop-color:#00FFFF"/>
		<stop  offset="0.6495" style="stop-color:#FFE3A0"/>
	</linearGradient>
	<path fill="url(#SVGID_2_)" d="M16.197,3.1c-3.2-0.01-6.39-0.01-9.59-0.01V2.74l-0.05-0.09c-0.03-0.03-0.04-0.07-0.04-0.13
		c-0.03,0-0.05-0.01-0.05-0.04V2.17c-0.11,0-0.23-0.01-0.35-0.04V2.08c-0.31-0.02-0.62-0.04-0.91-0.04v0.09
		c-0.03,0-0.05,0.01-0.05,0.04c0,0.03-0.01,0.06-0.04,0.09h-0.04v0.09c-0.03,0-0.06,0.01-0.09,0.04h-0.04v0.39
		c-0.09-0.03-0.21-0.04-0.35-0.04V3h-0.05v0.05h-0.04c-0.03,0.02-0.07,0.04-0.13,0.04v0.13c-0.03,0-0.07,0.01-0.13,0.05
		c-0.09,0.02-0.16,0.05-0.22,0.08V3.4c-0.03,0.02-0.07,0.05-0.13,0.08v0.09h-0.26c0,0.03-0.02,0.06-0.05,0.09
		c-0.06,0.03-0.1,0.05-0.13,0.08c-0.06,0.03-0.12,0.06-0.17,0.09c-0.03,0.03-0.05,0.06-0.05,0.09c-0.06,0-0.11,0.01-0.17,0.04
		c-0.03,0.03-0.07,0.06-0.13,0.09l-0.05,0.04c-0.06,0.03-0.11,0.06-0.17,0.09v0.05c-0.03,0.02-0.08,0.04-0.13,0.04l-0.05,0.04v0.05
		c-0.01,0.01-0.03,0.02-0.04,0.03c9.75,1.15,17.87,4.08,24.34,8.76C23.728,9.31,20.178,5.96,16.197,3.1z"/>
</g>
<g>
	<linearGradient id="SVGID_3_" gradientUnits="userSpaceOnUse" x1="29.8105" y1="5.3599" x2="16.9406" y2="5.3599">
		<stop  offset="0" style="stop-color:#00FFFF"/>
		<stop  offset="0.8219" style="stop-color:#FFE3A0"/>
	</linearGradient>
	<path fill="url(#SVGID_3_)" d="M29.048,7.62c-3.65-2.03-7.68-3.54-12.11-4.52c2.3,0.01,4.59,0.02,6.89,0.03
		C25.647,4.51,27.388,6,29.048,7.62z"/>
</g>
<linearGradient id="SVGID_4_" gradientUnits="userSpaceOnUse" x1="-879.6445" y1="21.4785" x2="-879.6488" y2="21.4828" gradientTransform="matrix(87.667 0 0 25.553 77127.8672 -557.8789)">
	<stop  offset="0" style="stop-color:#BB925B"/>
	<stop  offset="0.3429" style="stop-color:#FFF6DA"/>
	<stop  offset="0.6571" style="stop-color:#FFF1B1"/>
	<stop  offset="1" style="stop-color:#B38B54"/>
</linearGradient>
<path fill="url(#SVGID_4_)" d="M11.848-8.856c0-0.065,0.009-0.123,0.027-0.175C11.87-9.01,11.865-8.99,11.86-8.969
	C11.853-8.932,11.848-8.895,11.848-8.856z"/>
<g>
	<g>
		<g>
			<g>
				<g>
					<linearGradient id="SVGID_5_" gradientUnits="userSpaceOnUse" x1="10.9844" y1="33.7715" x2="34.0463" y2="-6.1729">
						<stop  offset="0" style="stop-color:#BB925B"/>
						<stop  offset="0.3429" style="stop-color:#FFF6DA"/>
						<stop  offset="0.6571" style="stop-color:#FFF1B1"/>
						<stop  offset="1" style="stop-color:#B38B54"/>
					</linearGradient>
					<path fill="url(#SVGID_5_)" d="M26.13,2.317c0.076,0.073,0.163,0.135,0.259,0.182c0.021,0.014,0.048,0.031,0.081,0.048
						c0.081,0.075,0.174,0.136,0.277,0.182v0.62c0,0.552,0.447,1,1,1h18.79c0.527,0,0.96-0.409,0.997-0.927
						c0.056-0.046,0.104-0.099,0.148-0.156c0.034-0.03,0.065-0.063,0.095-0.097h0.201C47.989,3.181,48,3.192,48.011,3.203
						c0.042,0.08,0.094,0.152,0.153,0.217c0.019,0.147,0.068,0.288,0.147,0.412c0.081,0.216,0.234,0.396,0.431,0.511
						c0.017,0.02,0.034,0.04,0.053,0.058l0.102,0.102c0.031,0.031,0.065,0.061,0.101,0.088V4.71c0,0.156,0.034,0.303,0.096,0.435
						c0.021,0.119,0.063,0.233,0.125,0.336V5.49c0,0.323,0.153,0.61,0.391,0.792c0.181,0.258,0.48,0.427,0.819,0.427h0.67v0.321
						c-0.258-0.007-0.507-0.011-0.75-0.011c-0.128,0-0.25,0.027-0.362,0.075c-0.393,0.089-0.697,0.408-0.765,0.809
						c-0.091,0.15-0.144,0.328-0.144,0.517v0.038c-0.188,0.145-0.323,0.356-0.371,0.598c-0.003,0.006-0.006,0.012-0.009,0.019
						c-0.06,0.039-0.114,0.084-0.164,0.135l-6.815-0.049L35.975,9.12c-0.002,0-0.004,0-0.006,0c-0.098,0-0.195,0.018-0.287,0.05
						h-0.454c-0.553,0-1,0.448-1,1v1.862l-0.095,0.009l-0.138,0.013c-0.058,0.005-0.114,0.016-0.168,0.032
						c-0.146-0.005-0.278-0.015-0.403-0.029c-0.039-0.004-0.077-0.007-0.116-0.007h-0.311c-0.268,0-0.511,0.105-0.689,0.276
						c-0.087,0.053-0.164,0.118-0.231,0.194c-0.104,0.092-0.189,0.206-0.248,0.334c-0.036,0.044-0.068,0.092-0.096,0.143
						c-0.038,0.046-0.072,0.096-0.103,0.148c-0.032,0.041-0.062,0.083-0.088,0.126l-0.018,0.02
						c-0.051,0.055-0.095,0.114-0.132,0.178c-0.017,0.021-0.033,0.042-0.048,0.065c-0.006,0.008-0.012,0.017-0.019,0.027
						c-0.107,0.095-0.194,0.211-0.253,0.344c-0.051,0.044-0.097,0.093-0.138,0.146c-0.16,0.09-0.293,0.224-0.383,0.386l-0.039,0.071
						c-0.146,0.178-0.227,0.402-0.227,0.634v2.93c0,0.398,0.233,0.742,0.57,0.903v0.097c0,0.063,0.006,0.125,0.018,0.186
						c-0.038,0.106-0.058,0.219-0.058,0.334v0.003c-0.002,0.002-0.003,0.005-0.005,0.007c-0.01,0.008-0.02,0.016-0.029,0.024
						c-0.009,0.004-0.018,0.009-0.027,0.013c-0.157,0.038-0.3,0.112-0.419,0.214c-0.185,0.139-0.318,0.339-0.373,0.57
						c-0.059,0.117-0.095,0.246-0.104,0.379c-0.06,0.131-0.092,0.273-0.092,0.42v8.79h-5.03v-9.18c0-0.553-0.498-1-1.05-1
						c-0.42,0-0.783,0.251-0.947,0.61h-0.151c-0.041-0.018-0.083-0.032-0.126-0.044c-0.015-0.004-0.03-0.009-0.045-0.013V18.6
						c0-0.372-0.203-0.696-0.504-0.869c0.159-0.045,0.307-0.131,0.427-0.249c0.166-0.164,0.269-0.38,0.292-0.609
						c0.044-0.055,0.083-0.113,0.115-0.175c0.035-0.049,0.066-0.101,0.092-0.155c0.16-0.167,0.26-0.386,0.276-0.623
						c0.06-0.13,0.092-0.273,0.092-0.419c0-0.102-0.016-0.262-0.094-0.438c-0.011-0.127-0.046-0.251-0.104-0.364
						c-0.031-0.079-0.072-0.155-0.122-0.224c-0.013-0.041-0.029-0.08-0.047-0.117c-0.016-0.082-0.041-0.162-0.076-0.237
						c-0.014-0.199-0.086-0.388-0.208-0.544c-0.063-0.146-0.16-0.275-0.281-0.375c-0.02-0.023-0.04-0.046-0.062-0.068l-0.18-0.18
						c-0.188-0.188-0.442-0.293-0.707-0.293c-0.177,0-0.333-0.01-0.463-0.029c-0.048-0.007-0.098-0.011-0.147-0.011h-2.36
						c-0.326,0-0.625,0.158-0.81,0.414c-0.182-0.25-0.477-0.414-0.81-0.414h-0.08c-0.223,0-0.439,0.074-0.615,0.211
						c-0.07,0.044-0.115,0.081-0.124,0.089c-0.107,0.072-0.197,0.17-0.268,0.283c-0.016,0.018-0.031,0.036-0.046,0.054l-0.016,0.021
						c-0.052,0.059-0.095,0.118-0.13,0.177c-0.132,0.137-0.224,0.309-0.262,0.497c-0.096,0.159-0.133,0.315-0.145,0.44
						c-0.028,0.04-0.054,0.082-0.076,0.125c-0.024,0.049-0.051,0.107-0.075,0.174c-0.064,0.098-0.11,0.206-0.137,0.319l-0.016,0.043
						c-0.016,0.049-0.029,0.099-0.037,0.15c-0.046,0.076-0.082,0.158-0.106,0.243c-0.123,0.155-0.198,0.342-0.214,0.54
						c-0.113,0.166-0.174,0.362-0.174,0.563v0.13c0,0.547,0.439,0.992,0.986,1l0.641,0.009c-0.329,0.149-0.563,0.473-0.585,0.852
						c-0.657-0.012-1.314-0.021-1.972-0.021c-0.432,0-0.8,0.299-0.94,0.693l-0.002,0.006c-0.083,0.087-0.15,0.188-0.197,0.297
						c-0.088,0.113-0.151,0.244-0.184,0.384c-0.045,0.09-0.077,0.186-0.093,0.284c-0.034,0.057-0.062,0.115-0.084,0.177
						c-0.055,0.073-0.099,0.153-0.132,0.238c-0.015,0.029-0.028,0.059-0.04,0.09c-0.057,0.111-0.092,0.232-0.104,0.357
						c-0.016,0.028-0.03,0.058-0.042,0.086c-0.013,0.017-0.024,0.035-0.036,0.053c-0.146,0.173-0.229,0.391-0.236,0.617
						c-0.027,0.041-0.051,0.083-0.072,0.127c-0.167,0.175-0.272,0.41-0.278,0.67c-0.017,0.059-0.029,0.118-0.035,0.18
						c-0.013,0.022-0.026,0.046-0.037,0.069c-0.169,0.177-0.268,0.409-0.277,0.653c-0.06,0.088-0.104,0.185-0.133,0.286
						c-0.11,0.137-0.181,0.301-0.208,0.476c-0.025,0.056-0.045,0.113-0.061,0.173c-0.022,0.044-0.041,0.089-0.058,0.135
						c-0.088,0.121-0.148,0.261-0.176,0.407c-0.032,0.053-0.06,0.108-0.082,0.167c-0.089,0.14-0.144,0.304-0.154,0.48
						c-0.052,0.098-0.09,0.205-0.111,0.317c-0.097,0.168-0.15,0.361-0.15,0.567v0.13c0,0.153,0.035,0.304,0.103,0.441
						c0.055,0.112,0.125,0.212,0.205,0.297c0.024,0.035,0.051,0.068,0.079,0.101c0.022,0.078,0.053,0.154,0.094,0.226v0.085
						c-0.098-0.031-0.202-0.049-0.31-0.049c-0.247,0-0.52-0.01-0.846-0.029c-0.091-0.033-0.188-0.054-0.289-0.059l-1.429-0.077
						c-0.1-0.035-0.207-0.055-0.316-0.055c-0.001,0-0.001,0-0.002,0c-0.462-0.021-0.936-0.034-1.467-0.038
						c-0.128-0.06-0.27-0.093-0.42-0.093c-0.062,0-0.115-0.003-0.16-0.007c-0.125-0.054-0.261-0.083-0.4-0.083H2.869
						c-0.066-0.021-0.131-0.038-0.194-0.052c-0.113-0.044-0.24-0.071-0.38-0.077c-0.156-0.014-0.314-0.026-0.476-0.04
						c-0.129-0.151-0.303-0.264-0.501-0.316v-0.627c0.073-0.109,0.125-0.232,0.15-0.362c0.008-0.016,0.016-0.032,0.023-0.048
						c0.083-0.148,0.126-0.316,0.126-0.487v-0.091c0.056-0.129,0.086-0.27,0.089-0.414c0.051-0.11,0.082-0.231,0.089-0.359
						c0.018-0.034,0.033-0.07,0.046-0.105c0.006-0.016,0.013-0.035,0.021-0.058c0.118-0.159,0.189-0.354,0.194-0.566
						c0.001-0.003,0.002-0.005,0.003-0.008c0.145-0.16,0.236-0.366,0.254-0.589c0.021-0.047,0.038-0.093,0.05-0.137
						c0.217-0.149,0.373-0.384,0.418-0.655c0.014-0.022,0.027-0.046,0.039-0.07c0.002-0.006,0.005-0.011,0.008-0.017
						c0.006-0.006,0.013-0.012,0.019-0.018c0.136-0.134,0.23-0.303,0.273-0.486c0.076-0.087,0.137-0.188,0.18-0.298
						c0-0.001,0-0.001,0.001-0.002c0.025-0.05,0.046-0.1,0.065-0.148c0.026-0.038,0.049-0.078,0.069-0.12
						c0.058-0.092,0.101-0.194,0.125-0.304c0.065-0.103,0.111-0.216,0.135-0.335c0.024-0.029,0.046-0.059,0.065-0.088
						c0.007-0.011,0.013-0.021,0.02-0.032c0.132-0.134,0.224-0.304,0.263-0.489c0.056-0.067,0.103-0.141,0.139-0.219
						c0.055-0.046,0.105-0.097,0.148-0.152c0.087-0.087,0.159-0.189,0.209-0.303c0.136-0.117,0.24-0.271,0.297-0.445
						c0.004-0.007,0.009-0.014,0.013-0.02c0.04-0.06,0.072-0.123,0.098-0.189c0.101-0.1,0.179-0.218,0.229-0.348
						c0.008-0.011,0.016-0.022,0.023-0.033c0.036-0.055,0.066-0.112,0.091-0.172c0.013-0.019,0.024-0.038,0.036-0.058
						c0.043-0.048,0.081-0.099,0.114-0.153c0.091-0.096,0.162-0.208,0.209-0.331c0.045-0.071,0.081-0.147,0.107-0.227
						c0.039-0.056,0.071-0.114,0.098-0.177c0.045-0.058,0.084-0.121,0.116-0.188c0.102,0.035,0.211,0.054,0.325,0.054h0.05
						c0.552,0,1-0.497,1-1.049c0-0.403-0.238-0.75-0.581-0.908c0-0.014,0.001-0.028,0.001-0.042v-0.35
						c0-0.208-0.065-0.408-0.18-0.572c-0.031-0.093-0.075-0.181-0.131-0.261c-0.048-0.147-0.131-0.283-0.243-0.394l-0.016-0.016
						c-0.025-0.056-0.056-0.109-0.091-0.159c-0.049-0.15-0.134-0.288-0.249-0.4L5.82,12.748l-0.04-0.039l-0.062-0.063
						c0,0,0-0.001-0.001-0.002V12.35c0-0.552-0.448-1-1-1H2.97c-0.014-0.006-0.029-0.012-0.043-0.017
						c-0.023-0.009-0.046-0.017-0.069-0.024c-0.013-0.008-0.026-0.016-0.039-0.023c-0.027-0.028-0.055-0.054-0.084-0.078
						c-0.022-0.035-0.046-0.068-0.073-0.101c-0.043-0.074-0.096-0.143-0.157-0.204c-0.023-0.023-0.048-0.046-0.073-0.068
						c-0.018-0.021-0.037-0.042-0.057-0.062c-0.018-0.018-0.036-0.035-0.054-0.051c-0.05-0.111-0.12-0.213-0.208-0.301l-0.09-0.09
						c-0.008-0.008-0.017-0.017-0.025-0.024c-0.009-0.025-0.019-0.049-0.03-0.073V6.476c0.058-0.127,0.09-0.268,0.09-0.416V6.03
						c0.01-0.009,0.02-0.017,0.029-0.026C2.313,5.926,2.499,5.77,2.618,5.57c0.069-0.041,0.133-0.091,0.191-0.147
						c0.024-0.024,0.046-0.047,0.064-0.067C2.999,5.296,3.109,5.212,3.199,5.11c0.003-0.002,0.006-0.005,0.009-0.008
						C3.23,5.089,3.253,5.075,3.275,5.06c0.053-0.036,0.102-0.078,0.146-0.124c0.024-0.015,0.047-0.031,0.07-0.048
						c0.188-0.049,0.355-0.152,0.482-0.291C3.992,4.585,4.01,4.574,4.028,4.562c0.274-0.036,0.514-0.183,0.671-0.395
						C4.896,4.1,5.066,3.974,5.186,3.809C5.224,3.781,5.26,3.75,5.294,3.718C5.378,3.687,5.458,3.644,5.533,3.59
						c0.053-0.038,0.102-0.082,0.146-0.129C5.826,3.83,6.187,4.09,6.607,4.09c3.199,0,6.388,0,9.59,0.01h0.736l3.438,0.015
						l3.457,0.015h0.6c0.552,0,1-0.448,1-1V2.678c0.006-0.005,0.013-0.011,0.019-0.016c0.024-0.015,0.047-0.031,0.069-0.048
						c0.034-0.018,0.066-0.038,0.098-0.059c0.057-0.034,0.109-0.073,0.159-0.117c0.033-0.024,0.067-0.051,0.1-0.081
						c0.009-0.005,0.017-0.011,0.026-0.017h0.02C25.99,2.34,26.062,2.332,26.13,2.317 M25.958,1.21v0.04h-0.04v0.09h-0.31
						c-0.03,0-0.06,0.02-0.09,0.05c-0.02,0.03-0.07,0.04-0.12,0.04c0,0.03-0.02,0.04-0.05,0.04c0,0.03-0.01,0.05-0.04,0.05
						l-0.09,0.08c-0.03,0.03-0.06,0.05-0.09,0.05v0.04h-0.04c-0.03,0-0.04,0.02-0.04,0.04c-0.03,0-0.06,0.02-0.09,0.05l-0.05,0.04
						c-0.02,0-0.05,0.02-0.08,0.05l-0.04,0.04c-0.06,0-0.12,0.01-0.18,0.04c-0.03,0-0.04,0.02-0.04,0.05
						c-0.03,0.03-0.06,0.04-0.09,0.04h-0.05v1.09h-0.6c-2.3-0.01-4.59-0.02-6.89-0.03h-0.74c-3.2-0.01-6.39-0.01-9.59-0.01V2.74
						l-0.05-0.09c-0.03-0.03-0.04-0.07-0.04-0.13c-0.03,0-0.05-0.01-0.05-0.04V2.17c-0.11,0-0.23-0.01-0.35-0.04V2.08
						c-0.31-0.02-0.62-0.04-0.91-0.04v0.09c-0.03,0-0.05,0.01-0.05,0.04c0,0.03-0.01,0.06-0.04,0.09h-0.04v0.09
						c-0.03,0-0.06,0.01-0.09,0.04h-0.04v0.39c-0.09-0.03-0.21-0.04-0.35-0.04V3h-0.05v0.05h-0.04c-0.03,0.02-0.07,0.04-0.13,0.04
						v0.13c-0.03,0-0.07,0.01-0.13,0.05c-0.09,0.02-0.16,0.05-0.22,0.08V3.4c-0.03,0.02-0.07,0.05-0.13,0.08v0.09h-0.26
						c0,0.03-0.02,0.06-0.05,0.09c-0.06,0.03-0.1,0.05-0.13,0.08c-0.06,0.03-0.12,0.06-0.17,0.09c-0.03,0.03-0.05,0.06-0.05,0.09
						c-0.06,0-0.11,0.01-0.17,0.04c-0.03,0.03-0.07,0.06-0.13,0.09l-0.05,0.04c-0.06,0.03-0.11,0.06-0.17,0.09v0.05
						c-0.03,0.02-0.08,0.04-0.13,0.04l-0.05,0.04v0.05c-0.01,0.01-0.03,0.02-0.04,0.03c-0.03,0.02-0.05,0.04-0.05,0.06
						c-0.08,0.02-0.15,0.05-0.21,0.08c0,0.03-0.02,0.06-0.05,0.09c-0.03,0.03-0.05,0.06-0.08,0.09c-0.09,0.02-0.16,0.04-0.22,0.04
						c-0.03,0.06-0.06,0.1-0.09,0.13v0.09C1.768,5,1.757,5.03,1.757,5.06c-0.09,0.02-0.16,0.04-0.22,0.04h-0.05
						c0,0.03-0.01,0.06-0.04,0.09c0,0.03-0.01,0.05-0.04,0.08c-0.09,0.03-0.18,0.06-0.26,0.09v0.09h-0.09v0.61h-0.09v4.59h0.09v0.18
						c0.03,0.02,0.06,0.05,0.09,0.08V11c0.05,0.03,0.11,0.04,0.17,0.04l0.09,0.09v0.22c0.06,0.03,0.1,0.04,0.13,0.04
						c0.06,0.03,0.1,0.06,0.13,0.09v0.04c0.06,0.03,0.1,0.06,0.13,0.09v0.09c0.03,0.03,0.06,0.04,0.09,0.04
						c0,0.06,0.01,0.1,0.04,0.13c0.03,0.03,0.07,0.06,0.13,0.09c0.03,0,0.06,0.03,0.09,0.09c0.03,0.03,0.05,0.06,0.08,0.09
						c0.06,0,0.11,0.01,0.13,0.04v0.04c0.06,0,0.14,0.02,0.22,0.05v0.08h2.14v0.58c0.03,0.06,0.06,0.1,0.09,0.13v0.18
						c0.06,0.02,0.1,0.04,0.13,0.04c0.06,0.06,0.1,0.1,0.13,0.13c0.03,0.03,0.06,0.06,0.09,0.09v0.13c0.06,0.06,0.1,0.1,0.13,0.13
						v0.17c0.06,0.03,0.1,0.05,0.13,0.05l0.09,0.09v0.17c0.03,0.03,0.07,0.06,0.13,0.09v0.13c0.03,0.06,0.07,0.1,0.13,0.13v0.35
						c-0.06,0-0.1,0.02-0.13,0.04v0.13c0,0.03-0.01,0.06-0.04,0.09c-0.03,0.06-0.06,0.09-0.09,0.09v0.22l-0.04,0.04l-0.05,0.09v0.13
						c-0.03,0-0.07,0.03-0.13,0.08v0.13c0,0.03-0.03,0.08-0.09,0.13c-0.03,0-0.04,0.03-0.04,0.09v0.04l-0.04,0.09
						c-0.03,0.06-0.05,0.1-0.05,0.13c-0.03,0-0.07,0.02-0.13,0.05v0.17c-0.03,0.03-0.07,0.061-0.13,0.09v0.171
						c-0.03,0.029-0.06,0.06-0.09,0.09v0.09c-0.05,0.03-0.1,0.06-0.13,0.09v0.08c-0.03,0.03-0.07,0.06-0.13,0.09v0.09
						c-0.03,0.021-0.05,0.061-0.09,0.09v0.08c-0.02,0.03-0.07,0.051-0.12,0.051v0.17c-0.03,0.029-0.08,0.06-0.14,0.09v0.08
						c-0.03,0.029-0.06,0.06-0.09,0.09v0.09c-0.02,0.03-0.07,0.04-0.13,0.04v0.22c-0.02,0-0.07,0.011-0.13,0.04
						c-0.02,0.061-0.06,0.09-0.08,0.09c0,0.03-0.02,0.061-0.05,0.091v0.13h-0.08v0.09c-0.06,0.03-0.11,0.06-0.13,0.09
						c0,0.02-0.02,0.06-0.05,0.08c-0.03,0.03-0.06,0.06-0.09,0.09v0.09c-0.03,0.03-0.05,0.061-0.08,0.09
						c-0.03,0.021-0.05,0.061-0.05,0.08c0,0.03-0.01,0.061-0.04,0.09c0,0.03-0.02,0.061-0.04,0.091v0.08
						c-0.06,0.029-0.11,0.06-0.14,0.09v0.09c-0.02,0.03-0.05,0.06-0.08,0.09c-0.03,0.021-0.05,0.05-0.05,0.08
						c-0.02,0.06-0.05,0.09-0.08,0.09v0.18c-0.03,0.03-0.08,0.061-0.13,0.091v0.22c-0.03,0-0.05,0.03-0.05,0.09
						c-0.03,0-0.04,0.01-0.04,0.04l-0.05,0.09c0,0.03-0.01,0.07-0.04,0.13c-0.03,0-0.04,0.03-0.04,0.09
						c-0.03,0-0.08,0.011-0.13,0.04v0.04c0,0.03-0.02,0.061-0.05,0.091c0,0.029-0.01,0.06-0.04,0.09v0.17
						c-0.03,0.029-0.07,0.05-0.13,0.08c-0.03,0.029-0.05,0.06-0.05,0.09s-0.01,0.07-0.04,0.13c-0.03,0-0.04,0.02-0.04,0.04
						c-0.03,0.04-0.06,0.06-0.09,0.09v0.22h-0.13v0.091c-0.03,0.029-0.06,0.06-0.09,0.09c-0.03,0.02-0.06,0.05-0.09,0.08
						c-0.02,0.029-0.05,0.06-0.08,0.09v0.18c0,0.021-0.03,0.05-0.09,0.08v0.27c-0.06,0.021-0.12,0.051-0.17,0.08v0.181
						c-0.03,0-0.06,0.01-0.09,0.04v0.35c-0.03,0-0.06,0.021-0.09,0.04v0.09c-0.03,0.03-0.04,0.061-0.04,0.09
						c0,0.03-0.02,0.07-0.04,0.13c-0.03,0-0.06,0.011-0.09,0.04v0.311h-0.09v0.39c0,0.03-0.01,0.061-0.04,0.09
						c-0.03,0.03-0.05,0.061-0.05,0.091v0.35c-0.02,0.03-0.04,0.06-0.04,0.08c-0.03,0.03-0.06,0.06-0.09,0.09v0.17
						c-0.03,0.03-0.06,0.061-0.09,0.09c-0.02,0.03-0.05,0.061-0.08,0.09v1.57c0.03,0.061,0.06,0.09,0.08,0.09
						c0.03,0.061,0.06,0.09,0.09,0.09v0.131c0.03,0,0.06,0.02,0.09,0.04c0.14,0.029,0.31,0.05,0.48,0.05v0.26
						c0.03,0,0.06,0.02,0.09,0.04c0.38,0.03,0.74,0.06,1.09,0.09c0.06,0,0.09,0.01,0.09,0.04c0.08,0,0.17,0.021,0.26,0.05
						c0.03,0.03,0.07,0.04,0.13,0.04h1.49l0.04,0.04c0.14,0.03,0.32,0.05,0.52,0.05v0.091c0.61,0,1.22,0.01,1.84,0.039
						c0.03,0,0.04,0.011,0.04,0.04c0.58,0.03,1.15,0.061,1.7,0.091v0.04c0.41,0.029,0.81,0.05,1.19,0.05v0.09h0.04
						c0.29,0,0.6,0.01,0.92,0.04c0-0.03,0.01-0.061,0.04-0.09c0.06-0.03,0.12-0.061,0.18-0.09V28.43c0.02-0.029,0.07-0.04,0.13-0.04
						v-1.01c0-0.03-0.02-0.04-0.05-0.04c-0.03-0.06-0.05-0.1-0.08-0.13v-0.09c-0.03-0.03-0.05-0.061-0.05-0.09l-0.04-0.04v-0.13
						c-0.06,0-0.1-0.021-0.13-0.051V26.73c-0.06,0-0.1-0.03-0.13-0.091v-0.13c0-0.06,0.03-0.1,0.09-0.13c0.03,0,0.04-0.03,0.04-0.09
						v-0.13c0-0.061,0.03-0.101,0.09-0.13l0.04-0.09V25.68c0.03,0,0.06-0.029,0.09-0.09V25.5c0.03-0.02,0.07-0.04,0.13-0.04v-0.3
						c0.03-0.03,0.07-0.05,0.13-0.05v-0.17c0-0.03,0.01-0.061,0.04-0.091c0-0.029,0.02-0.06,0.05-0.09v-0.08
						c0.03-0.029,0.06-0.05,0.08-0.05v-0.22l0.05-0.04c0.03-0.061,0.06-0.09,0.08-0.09c0-0.061,0.02-0.101,0.05-0.13V24.06
						c0.03-0.029,0.07-0.04,0.13-0.04V23.8l0.04-0.09v-0.17c0.03-0.03,0.07-0.06,0.13-0.09l0.05-0.09v-0.08
						c0.03,0,0.07-0.021,0.13-0.05V22.88l0.04-0.04v-0.22c0.06,0,0.09-0.03,0.09-0.08c0.03-0.03,0.06-0.05,0.09-0.05v-0.13
						l0.08-0.091l0.05-0.079V22.14c0-0.06,0.01-0.1,0.04-0.13v-0.18l0.04-0.04c0.03-0.06,0.06-0.1,0.09-0.13
						c0.03-0.03,0.05-0.061,0.05-0.08c0-0.04,0.01-0.061,0.04-0.09c0.03-0.03,0.06-0.05,0.09-0.05V21.14
						c0.02-0.029,0.04-0.06,0.04-0.09c0.03-0.03,0.04-0.06,0.04-0.09c0.03-0.03,0.06-0.06,0.09-0.09c0.03-0.03,0.05-0.05,0.05-0.08
						V20.7c0.02,0,0.07-0.021,0.13-0.05V20.35l0.04-0.05c0-0.02,0.01-0.05,0.04-0.08v-0.09c0.03-0.03,0.06-0.07,0.09-0.13
						c0.03,0,0.04-0.03,0.04-0.09l0.05-0.04c0.03-0.061,0.06-0.09,0.08-0.09c0-0.03,0.02-0.07,0.05-0.13l0.04-0.091v-0.04
						c0.99,0,1.98,0.021,2.97,0.04V18.6h5.16v2.45h0.09v0.13c0.08,0,0.18,0.021,0.3,0.04c0,0.03,0.02,0.061,0.05,0.09
						c0.11,0,0.23,0.021,0.34,0.051v0.08h1.1c0-0.021,0.01-0.061,0.04-0.08c0-0.03,0.01-0.07,0.04-0.091
						c0.06-0.029,0.11-0.06,0.14-0.09v-0.04c0-0.029,0.01-0.06,0.04-0.09c0.03-0.03,0.06-0.06,0.09-0.09v-0.09
						c0-0.021,0.01-0.04,0.04-0.04h0.05v10.18h7.03v-9.79l0.04-0.04c0.03-0.029,0.05-0.06,0.05-0.09v-0.22
						c0.03-0.03,0.061-0.04,0.08-0.04v-0.18c0.03,0,0.05-0.011,0.05-0.04h0.09c0.03-0.03,0.061-0.051,0.08-0.051
						c0.03-0.02,0.061-0.04,0.09-0.04h0.04V20.48c0.03,0,0.061-0.021,0.091-0.04c0.029,0,0.05-0.021,0.05-0.051
						c0.029-0.029,0.06-0.04,0.09-0.04h0.13v-0.18c0-0.03,0.01-0.04,0.04-0.04v-0.04c0.03,0,0.04-0.02,0.04-0.05
						s0.02-0.04,0.05-0.04v-0.05l0.04-0.05V19.59l0.04-0.04v-0.04c0.03,0,0.05-0.01,0.05-0.04V19.11l-0.05-0.04v-0.74
						c-0.02-0.03-0.04-0.061-0.04-0.09c-0.03,0-0.04-0.03-0.04-0.09c-0.06-0.021-0.109-0.061-0.13-0.08h-0.36v-2.93l0.091-0.09
						v-0.04l0.05-0.09c0.05-0.02,0.109-0.04,0.17-0.04c0-0.03,0.02-0.04,0.05-0.04v-0.05c0.021-0.02,0.05-0.04,0.08-0.04v-0.09h0.05
						v-0.04l0.04-0.04c0.03,0,0.061-0.02,0.09-0.05v-0.04c0-0.03,0.011-0.05,0.04-0.05c0-0.02,0.021-0.04,0.04-0.04v-0.09h0.05
						c0.03-0.02,0.061-0.04,0.091-0.04v-0.09c0-0.02,0.02-0.05,0.04-0.08h0.039c0-0.03,0.021-0.05,0.051-0.05v-0.08l0.13-0.14
						c0-0.02,0.01-0.05,0.04-0.08h0.05V13.7c0-0.03,0.01-0.06,0.04-0.08h0.04l0.05-0.05v-0.09h0.04c0-0.02,0.021-0.05,0.05-0.08
						h0.04v-0.13h0.09v-0.09c0.021,0,0.051-0.02,0.08-0.05h0.09v-0.08h0.311c0.26,0.03,0.52,0.04,0.78,0.04v-0.04
						c0.319-0.03,0.64-0.06,0.96-0.09v-0.08h0.18v-2.71h0.74v-0.05c4.189,0.03,8.39,0.06,12.59,0.09v0.04h0.649v-0.04l0.04-0.04
						V9.91h0.181c0-0.03,0.01-0.05,0.04-0.05V9.77l0.05-0.04V9.69c0.02,0,0.04-0.02,0.04-0.05l0.04-0.04V9.51
						c0.03,0,0.05-0.01,0.05-0.04c0.03,0,0.04-0.02,0.04-0.05V9.25c0.06,0,0.12-0.02,0.18-0.04V9.08
						c0.021-0.04,0.051-0.06,0.08-0.09c0.03-0.03,0.05-0.06,0.05-0.09c0.021-0.03,0.061-0.07,0.08-0.13V8.42h0.13V8.07h0.141V8.02
						c0.55,0,1.09,0.02,1.609,0.05h0.141V5.84h-0.271V5.71h-1.399V5.49h-0.21V5.01c-0.061,0-0.11-0.01-0.141-0.04V4.75
						c-0.06,0-0.08-0.02-0.08-0.04V3.96c-0.09,0-0.149-0.01-0.18-0.04h-0.04c-0.03-0.03-0.05-0.06-0.05-0.09
						c-0.05,0-0.1-0.01-0.13-0.04c-0.03-0.03-0.061-0.06-0.09-0.09V3.48h-0.261V3.35c-0.029,0-0.06-0.02-0.09-0.05V2.87h-0.09
						c-0.03-0.03-0.04-0.06-0.04-0.09c-0.03,0-0.05-0.01-0.05-0.04h-0.08V2.65c-0.03-0.03-0.06-0.06-0.09-0.09l-0.04-0.04h-0.05
						c0-0.03-0.011-0.06-0.04-0.09V2.39c-0.03,0-0.05-0.01-0.05-0.05c-0.021,0-0.04-0.01-0.04-0.04l-0.091-0.09V2.17h-1.26v0.05
						l-0.05,0.04c-0.03,0-0.04,0.01-0.04,0.04v0.05c0,0.03-0.02,0.04-0.04,0.04c0,0.03-0.02,0.05-0.05,0.05
						c-0.03,0.02-0.04,0.05-0.04,0.08h-0.04c-0.03,0.03-0.06,0.05-0.09,0.05v0.09h-0.05c-0.03,0.02-0.04,0.05-0.04,0.08h-0.04
						c0,0.03-0.021,0.04-0.051,0.04c-0.02,0.03-0.039,0.06-0.039,0.09h-0.131v0.48h-18.79V2.17c-0.029-0.03-0.06-0.06-0.09-0.09
						c-0.029-0.02-0.069-0.04-0.13-0.04L27.447,2l-0.05-0.09c-0.03,0-0.06-0.02-0.09-0.04l-0.04-0.05h-0.09
						c-0.03,0-0.04-0.01-0.04-0.04c-0.03-0.03-0.061-0.05-0.09-0.05c0-0.03-0.011-0.04-0.04-0.04c-0.03,0-0.061-0.02-0.09-0.04
						c0-0.03-0.03-0.05-0.091-0.05c0-0.03-0.01-0.04-0.04-0.04V1.52c-0.029-0.03-0.06-0.05-0.09-0.05l-0.04-0.04
						c-0.03-0.03-0.06-0.05-0.09-0.05V1.34c-0.03,0-0.06-0.01-0.09-0.04V1.25C26.308,1.23,26.138,1.21,25.958,1.21L25.958,1.21z
						 M18.408,13.88v-0.22l-0.05-0.04h2.36c0.2,0.03,0.41,0.04,0.61,0.04l0.18,0.18v0.08c0.05,0.04,0.1,0.05,0.13,0.05v0.13
						c0.06,0.03,0.1,0.06,0.13,0.09v0.26c0.03,0.03,0.06,0.06,0.09,0.09v0.17c0.03,0.03,0.05,0.06,0.08,0.09
						c0,0.03,0,0.06,0.01,0.09v0.09c0.05,0.03,0.1,0.06,0.13,0.08c0,0.03,0.01,0.06,0.04,0.09v0.18c0,0.02,0.02,0.05,0.04,0.08
						c0.03,0.03,0.05,0.06,0.05,0.09l-0.09,0.09v0.26c-0.06,0.03-0.12,0.04-0.18,0.04v0.22c-0.02,0-0.05,0.02-0.08,0.04v0.09
						c-0.03,0.03-0.06,0.06-0.09,0.09c-0.03,0.03-0.07,0.06-0.13,0.09v0.35c-2.13-0.029-4.27-0.06-6.42-0.09v-0.13
						c0.05-0.06,0.1-0.11,0.13-0.13c0-0.06,0.01-0.09,0.04-0.09v-0.26c0.06-0.06,0.1-0.11,0.13-0.13c0-0.03,0.02-0.06,0.05-0.09
						v-0.13c0.05-0.06,0.1-0.1,0.13-0.13v-0.22c0.02-0.06,0.04-0.1,0.04-0.13c0.06-0.06,0.09-0.11,0.09-0.14
						c0-0.02,0.01-0.07,0.04-0.13c0.03-0.02,0.06-0.05,0.09-0.08c0.03-0.06,0.06-0.1,0.09-0.13v-0.27c0-0.03,0.03-0.05,0.08-0.08
						c0.03-0.06,0.05-0.1,0.05-0.13v-0.13c0.06-0.03,0.1-0.08,0.13-0.14c0-0.03,0.01-0.05,0.04-0.08l0.04-0.05
						c0.03-0.03,0.06-0.05,0.09-0.08v-0.05c0.03-0.02,0.07-0.06,0.13-0.09l0.05-0.04h0.08v0.13c0.03,0.03,0.05,0.06,0.05,0.09
						l0.04,0.04v0.18l0.04,0.04v0.13c0.03,0,0.05,0.02,0.05,0.05c0.03,0,0.04,0.01,0.04,0.04c0.03,0.03,0.05,0.06,0.05,0.09v0.04
						c0.03,0,0.06,0.01,0.08,0.04v0.05l0.05,0.04v0.09h0.04c0.03,0.03,0.04,0.06,0.04,0.09c0.03,0,0.05,0.01,0.05,0.04
						c0.03,0,0.06,0.01,0.09,0.04l0.04,0.05c0,0.03,0.01,0.04,0.04,0.04s0.05,0.01,0.05,0.04v0.05l0.04,0.04
						c0.03,0,0.05,0.01,0.05,0.04c0,0.03,0.01,0.05,0.04,0.05c0.03,0,0.04,0.01,0.04,0.04c0.03,0,0.06,0.02,0.09,0.04l0.04,0.05
						c0.03,0,0.04,0.01,0.04,0.04v0.04l0.05,0.05c0.03,0,0.04,0.01,0.04,0.04c0,0.03,0.02,0.04,0.05,0.04
						c0.02,0,0.04,0.02,0.04,0.05c0.03,0,0.06,0.01,0.09,0.04l0.04,0.04c0.03,0,0.04,0.02,0.04,0.05v0.04l0.05,0.05h0.13
						c0,0.02,0.01,0.04,0.04,0.04c0,0.03,0.02,0.04,0.05,0.04l0.04,0.05c0.03,0,0.04,0.01,0.04,0.04c0.06,0,0.1,0.02,0.13,0.04h0.22
						v0.05l0.04,0.04c0.03,0,0.06,0.02,0.09,0.04h0.09c0.03,0,0.06,0.02,0.09,0.05h0.13c0.03,0.03,0.07,0.04,0.13,0.04h0.39
						l0.04-0.04h0.05c0-0.03,0.01-0.05,0.04-0.05c0-0.02,0.02-0.04,0.05-0.04v-0.09h0.04v-0.08l0.04-0.05
						c0-0.02,0.02-0.06,0.05-0.08l0.04-0.05v-0.09l-0.04-0.04c-0.03-0.03-0.06-0.06-0.09-0.09h-0.09l-0.04-0.04v-0.09
						c-0.03-0.03-0.06-0.04-0.09-0.04c-0.03-0.03-0.06-0.04-0.09-0.04c-0.02,0-0.05-0.02-0.08-0.05h-0.05
						c-0.02,0-0.04-0.01-0.04-0.04v-0.04c-0.03,0-0.06-0.02-0.09-0.05l-0.04-0.04h-0.04v-0.04l-0.05-0.05
						c0-0.03-0.01-0.04-0.04-0.04c-0.03,0-0.06-0.01-0.09-0.04V14.8h-0.04c0-0.03-0.02-0.06-0.04-0.09l-0.05-0.04h-0.09v-0.09h-0.08
						c0-0.03-0.02-0.06-0.05-0.09v-0.04c-0.03-0.03-0.06-0.06-0.08-0.09c-0.03,0-0.05-0.01-0.05-0.04h-0.04
						c-0.03-0.03-0.05-0.06-0.05-0.09h-0.04c0-0.03-0.01-0.06-0.04-0.08l-0.05-0.05v-0.09c-0.02,0-0.04-0.01-0.04-0.04l-0.04-0.05
						v-0.04H18.408L18.408,13.88z M6.297,15.94v-0.05h0.05v0.05H6.297L6.297,15.94z"/>
				</g>
			</g>
		</g>
	</g>
</g>
<g>
	<g>
		<path fill="#7A4621" d="M21.434,24.975l4.594,3.828l10.106,0.307c3.472-0.407,6.329-1.327,8.575-2.756
			c2.959-4.103,5.535-6.152,7.725-6.152c-1.485-0.594-3.188-0.352-5.104,0.729c-1.916,1.079-3.861-0.015-5.836-3.283
			c-1.837-1.225-5.438-0.336-8.388,1.096L36.134,14l-8.864,2.918L21.434,24.975z"/>
	</g>
</g>
<linearGradient id="SVGID_6_" gradientUnits="userSpaceOnUse" x1="-537.0049" y1="77.7266" x2="-536.005" y2="78.7281" gradientTransform="matrix(25.1118 0 0 10.4122 13510.0078 -792.3687)">
	<stop  offset="0.6071" style="stop-color:#FFF6DA"/>
	<stop  offset="1" style="stop-color:#D6BB7E"/>
</linearGradient>
<path fill="url(#SVGID_6_)" d="M31.504,16.553h-2.602l-5.019,10.412h2.333l0.771-1.766h2.09l-0.137,1.766h2.23L31.504,16.553z
	 M29.619,19.176l-0.381,4.422h-1.572L29.619,19.176z M41.264,18.209c0-1.082-1.012-1.656-2.912-1.656
	c-2.356,0-3.436,0.752-3.998,2.686l-1.408,4.853c-0.176,0.568-0.209,0.853-0.209,1.114c0,1.145,1.062,1.761,3.031,1.761
	c1.084,0,1.937-0.187,2.531-0.569c0.643-0.426,1.045-1.08,1.357-2.225l0.335-1.183H37.76l-0.369,1.282
	c-0.261,0.934-0.59,1.211-1.379,1.211c-0.607,0-0.943-0.221-0.943-0.627c0-0.125,0.041-0.336,0.108-0.599l1.499-5.157
	c0.227-0.767,0.596-1.072,1.328-1.072c0.607,0,0.938,0.221,0.938,0.611c0,0.168-0.051,0.379-0.153,0.78l-0.276,1.005h2.229
	l0.347-1.215C41.212,18.793,41.264,18.473,41.264,18.209z M48.996,16.553h-5.967l-2.84,10.412h6.139l0.438-1.598h-3.873l0.869-3.26
	h3.491l0.437-1.573h-3.49l0.664-2.407h3.695L48.996,16.553z"/>
</svg>
