<?xml version="1.0" encoding="utf-8"?>
<!-- Generator: Adobe Illustrator 16.0.0, SVG Export Plug-In . SVG Version: 6.00 Build 0)  -->
<!DOCTYPE svg PUBLIC "-//W3C//DTD SVG 1.1//EN" "http://www.w3.org/Graphics/SVG/1.1/DTD/svg11.dtd">
<svg version="1.1" id="图层_1" xmlns="http://www.w3.org/2000/svg" xmlns:xlink="http://www.w3.org/1999/xlink" x="0px" y="0px"
	 width="81.465px" height="32px" viewBox="0 0 81.465 32" enable-background="new 0 0 81.465 32" xml:space="preserve">
<linearGradient id="SVGID_1_" gradientUnits="userSpaceOnUse" x1="-865.0986" y1="24.0029" x2="-865.1029" y2="24.0072" gradientTransform="matrix(87.667 0 0 25.553 75867.3047 -557.8789)">
	<stop  offset="0" style="stop-color:#BB925B"/>
	<stop  offset="0.3429" style="stop-color:#FFF6DA"/>
	<stop  offset="0.6571" style="stop-color:#FFF1B1"/>
	<stop  offset="1" style="stop-color:#B38B54"/>
</linearGradient>
<path fill="url(#SVGID_1_)" d="M26.432,55.628c0-0.065,0.009-0.123,0.027-0.175c-0.005,0.021-0.01,0.041-0.015,0.063
	C26.437,55.553,26.432,55.59,26.432,55.628z"/>
<g>
	<rect y="-0.034" fill="none" width="81.465" height="32"/>
	<rect x="0.587" y="-0.817" fill="none" width="81.464" height="32"/>
	<g>
		<g>
			<g>
				
					<linearGradient id="SVGID_2_" gradientUnits="userSpaceOnUse" x1="-783.8701" y1="374.5771" x2="-784.87" y2="373.5771" gradientTransform="matrix(81.467 0 0 -31.9852 63940.1172 11980.5205)">
					<stop  offset="0.2512" style="stop-color:#FF0000"/>
					<stop  offset="0.5222" style="stop-color:#FFD400"/>
					<stop  offset="0.5362" style="stop-color:#E8C100"/>
					<stop  offset="0.5882" style="stop-color:#977D00"/>
					<stop  offset="0.6343" style="stop-color:#564700"/>
					<stop  offset="0.6728" style="stop-color:#272100"/>
					<stop  offset="0.7023" style="stop-color:#0B0900"/>
					<stop  offset="0.7192" style="stop-color:#000000"/>
				</linearGradient>
				<path fill="url(#SVGID_2_)" d="M81.473,8.087c-0.031,0-0.07,0-0.102-0.041c-0.029-0.02-0.039-0.06-0.039-0.08
					c-0.041-0.039-0.07-0.06-0.1-0.06c-0.031,0-0.041-0.021-0.041-0.04c-0.07-0.07-0.119-0.109-0.15-0.15V7.527
					c-0.059-0.02-0.119-0.08-0.189-0.141c-0.029-0.049-0.061-0.109-0.09-0.129c-0.09-0.041-0.17-0.08-0.23-0.141
					c-0.09-0.05-0.189-0.07-0.279-0.109h-22.49v-0.19c-0.029,0-0.07-0.011-0.1-0.04c-0.029-0.02-0.041-0.061-0.041-0.1
					c-0.029-0.021-0.08-0.051-0.139-0.09c-0.041,0-0.07-0.021-0.1-0.041l-0.092-0.039v-1.33l-0.049-0.041
					c-0.029,0-0.061-0.01-0.09-0.049V4.987c-0.031,0-0.051,0-0.051-0.04c-0.029,0-0.049-0.02-0.049-0.04
					c-0.061-0.03-0.121-0.06-0.201-0.101h-0.029c0-0.029-0.02-0.049-0.051-0.049h-0.049V4.056c-0.031,0-0.041-0.01-0.041-0.049
					l-0.049-0.041c-0.061-0.039-0.131-0.06-0.191-0.09v0.051c-0.029,0-0.08,0-0.139,0.039c0,0.021-0.021,0.041-0.051,0.041
					l-0.039-0.041c-0.041-0.039-0.08-0.06-0.15-0.09h-0.18v0.051h-0.111c0,0.02,0,0.039-0.039,0.039
					c-0.211,0.041-0.42,0.041-0.611,0.041c-0.029,0.039-0.059,0.049-0.1,0.049h-0.039l-0.041,0.041v0.1h-0.1v0.061l-0.039,0.039
					c0,0.021-0.021,0.07-0.051,0.09c0,0.041-0.02,0.061-0.051,0.101c-0.029,0.021-0.059,0.04-0.09,0.04v0.1
					c-0.07,0-0.109,0.01-0.139,0.051c-0.031,0.02-0.07,0.039-0.111,0.039c0,0.021-0.01,0.041-0.029,0.041
					c-0.051,0.039-0.07,0.06-0.1,0.109c0,0.02-0.031,0.061-0.041,0.08c0,0.04-0.029,0.061-0.049,0.061v0.129
					c0.02,0,0.049,0.021,0.09,0.041l0.039,0.06v0.79l-0.039,0.061h-0.09c-0.021,0.039-0.031,0.049-0.061,0.09
					c-0.061,0.02-0.1,0.039-0.141,0.039c-0.01,0-0.01,0.021-0.02,0.021c-0.051,0.021-0.09,0.04-0.119,0.04
					c-0.041,0-0.07,0-0.102,0.029c0,0.041-0.01,0.07-0.039,0.101c0,0.04-0.02,0.06-0.051,0.101v0.369h-6.939V6.507
					c0.09-0.041,0.17-0.061,0.23-0.101h0.15c0.029,0,0.039-0.021,0.039-0.04l0.051-0.061V6.277c0.029,0,0.049-0.02,0.049-0.061h1.59
					c0.031,0,0.051-0.02,0.051-0.039c0.029,0,0.051-0.021,0.051-0.051l0.039-0.039l0.01-0.021h0.141c0.061,0,0.109-0.011,0.141-0.04
					c0-0.02,0.01-0.061,0.039-0.1c0.039-0.021,0.07-0.041,0.1-0.041v-3.34c-0.029-0.02-0.061-0.06-0.1-0.08h-0.039
					c-0.041-0.039-0.08-0.06-0.141-0.09v0.03c-0.07,0-0.131,0.021-0.189,0.06h-0.051v0.041c-0.029,0-0.061,0.02-0.09,0.039
					c-0.029-0.02-0.051-0.06-0.051-0.08c-0.029,0-0.059-0.02-0.09-0.06c-0.029-0.021-0.061-0.03-0.09-0.03v-0.1
					c-0.039-0.04-0.08-0.04-0.15-0.04c-0.059,0-0.109-0.021-0.139-0.06c-0.031,0-0.061-0.021-0.09-0.041
					c-0.031-0.039-0.051-0.069-0.051-0.09c-0.061-0.1-0.141-0.14-0.23-0.14l-4.889-1.319c-0.061-0.041-0.121-0.041-0.191-0.041
					c-0.119,0-0.209,0.021-0.279,0.09c-0.061,0.021-0.09,0.08-0.09,0.141l-0.051-0.061c-0.029,0-0.08,0-0.139-0.039h-0.092
					l-0.049-0.041h-0.141c-0.029,0-0.061-0.02-0.1-0.049c-0.061,0-0.1-0.021-0.141-0.041h-0.18c0.029-0.1,0.01-0.199-0.049-0.289
					c-0.061-0.101-0.16-0.16-0.281-0.201l-0.279-0.09c-0.131-0.02-0.221,0-0.291,0.09c-0.09,0.08-0.149,0.16-0.18,0.24v0.051h-0.1
					c-0.03,0.039-0.061,0.06-0.09,0.1l-0.051,0.04v0.19c-0.029,0.039-0.049,0.06-0.049,0.1c0,0.02-0.011,0.04-0.041,0.04v0.229
					l0.041,0.051c0,0.039,0.02,0.06,0.049,0.1v0.1l0.051,0.09c0.029,0.021,0.06,0.061,0.09,0.08c0.029,0,0.07,0.021,0.1,0.061
					l0.041,0.04v0.06h0.049l0.051,0.03c0,0.04,0.01,0.08,0.039,0.101c0.031,0,0.07,0.02,0.101,0.039c0,0.051,0.011,0.08,0.05,0.11
					c0.03,0.021,0.07,0.04,0.141,0.04c0.029,0.04,0.07,0.04,0.14,0.04c0.03,0,0.06,0.021,0.09,0.06
					c0.03,0.021,0.06,0.051,0.091,0.09c0.029,0.021,0.058,0.061,0.099,0.101c0.029,0,0.061,0,0.09,0.04
					c0.061,0,0.119,0.02,0.189,0.04h0.141c0.029,0.03,0.061,0.06,0.09,0.06h0.189c0.061,0.03,0.16,0.051,0.281,0.09h0.238
					c0.031,0.021,0.061,0.041,0.092,0.041c0.029,0,0.068,0.02,0.1,0.049h0.039c0,0.07,0.02,0.121,0.051,0.181
					c0.061,0.11,0.129,0.17,0.189,0.19l0.09,0.039l1.041,0.351l2.539,0.88v0.061c0.031,0,0.041,0,0.041,0.039
					c0.029,0.021,0.059,0.051,0.09,0.051v0.279h-0.131c0,0.03-0.039,0.051-0.1,0.051c-0.029,0-0.061,0.02-0.09,0.039h-0.051
					l-0.049,0.041h-0.141c-0.029,0-0.09,0.02-0.189,0.06c-0.031,0-0.08,0.021-0.141,0.05l-0.029,0.02l-0.061,0.061
					c0,0.04-0.02,0.061-0.051,0.061h-0.33l-0.18,0.08c0,0.039-0.02,0.049-0.049,0.049c-0.031,0-0.07,0.021-0.102,0.061
					c-0.029,0-0.059,0-0.09,0.04h-0.01c0,0.021-0.01,0.06-0.039,0.101c-0.221,0.029-0.441,0.039-0.66,0.039
					c-0.061,0.03-0.121,0.051-0.18,0.051c0,0.02-0.021,0.039-0.051,0.039c-0.029,0.041-0.061,0.061-0.09,0.09
					c-0.01,0.011-0.02,0.021-0.029,0.031c-0.031,0.02-0.051,0.049-0.07,0.069v0.04c-0.631,0-1.24,0.02-1.83,0.061V5.697
					c-0.031,0-0.061,0-0.1-0.04h-0.182c-0.01,0-0.02,0-0.02,0c-0.059,0.04-0.09,0.04-0.119,0.04h-0.051v-0.13
					c-0.029-0.04-0.049-0.06-0.049-0.101c-0.031,0-0.061-0.02-0.09-0.039c-0.07,0-0.111-0.021-0.141-0.051v0.051h-0.19
					c-0.03,0.02-0.05,0.06-0.05,0.08c-0.03,0.039-0.061,0.08-0.09,0.109c0,0.02-0.02,0.04-0.051,0.04l-0.049-0.04
					c-0.061-0.05-0.111-0.07-0.141-0.109c-0.029-0.021-0.07-0.061-0.141-0.08h-0.139c-0.031,0-0.08-0.021-0.141-0.051h-2.96
					c-0.06,0.03-0.11,0.051-0.14,0.051h-0.19c-0.12,0.02-0.26,0.039-0.42,0.039c-0.03-0.06-0.06-0.119-0.09-0.189
					c-0.06-0.061-0.14-0.1-0.24-0.1h-2.3c-0.09,0-0.19,0.039-0.28,0.1c0,0.04-0.02,0.09-0.05,0.15c-0.03-0.041-0.06-0.061-0.09-0.09
					c-0.1,0-0.21-0.021-0.33-0.061v0.061h-0.28c-0.1,0.049-0.17,0.09-0.24,0.09c-0.09,0.02-0.17,0.08-0.23,0.14V5.466l-0.1-0.09
					c-0.06-0.029-0.11-0.06-0.14-0.1h-0.23v0.061h-0.1c-0.03,0-0.04,0.01-0.04,0.039l-0.1,0.09c0,0.041-0.01,0.061-0.04,0.101
					c-0.03,0.021-0.07,0.06-0.1,0.09h-0.04l-0.1,0.101v0.09c-0.09,0.029-0.15,0.039-0.19,0.039h-0.14c-0.03,0-0.04,0.021-0.04,0.061
					l-0.05,0.04v0.04c-1.19,0.04-2.37,0.061-3.52,0.061h-0.14V5.796l-0.05-0.039V5.697c0-0.02-0.02-0.04-0.05-0.04v-0.19
					c-0.03,0-0.04-0.02-0.04-0.039l-0.05-0.051v-0.47c0-0.03-0.02-0.06-0.05-0.09c-0.06-0.04-0.11-0.06-0.14-0.06h-0.14
					c-0.03,0-0.06,0.02-0.09,0.06V4.716c0-0.039-0.02-0.06-0.05-0.09c-0.03-0.039-0.05-0.06-0.05-0.1h-0.09
					c0-0.02-0.01-0.061-0.05-0.1c-0.03-0.021-0.07-0.051-0.14-0.08v0.039h-0.09v0.041c-0.03-0.021-0.08-0.051-0.14-0.08h-0.1v0.039
					h-0.14c-0.03,0-0.06,0.021-0.09,0.041h-2.44c0-0.021-0.02-0.041-0.05-0.041c-0.03-0.039-0.08-0.039-0.14-0.039
					c-0.06-0.03-0.09-0.07-0.09-0.11h-0.05v-0.17c-0.03,0-0.05-0.021-0.05-0.06c-0.03,0-0.06-0.021-0.09-0.041
					c-0.03-0.039-0.07-0.06-0.1-0.09c-0.06-0.029-0.12-0.06-0.19-0.06h-0.46c0-0.021-0.02-0.06-0.05-0.08
					c0-0.04-0.02-0.08-0.05-0.101c0-0.039-0.01-0.049-0.05-0.049c-0.03-0.041-0.06-0.061-0.09-0.101
					c-0.03-0.021-0.05-0.06-0.05-0.08c-0.03,0-0.06-0.021-0.09-0.06c-0.06,0-0.11,0-0.14-0.051h-0.57v0.051h-0.14
					c-0.03,0.039-0.06,0.06-0.09,0.06c-0.03,0.021-0.05,0.06-0.05,0.08c-0.03,0.04-0.04,0.08-0.04,0.101
					c-0.04,0-0.07,0.01-0.1,0.049c0,0.041-0.01,0.061-0.05,0.101v0.14c0,0.03-0.01,0.051-0.04,0.09
					c-0.06,0.041-0.11,0.041-0.14,0.041c-0.04,0.039-0.07,0.06-0.1,0.06h-0.18c-0.04,0.021-0.07,0.03-0.1,0.03
					c-0.03,0-0.04,0.029-0.04,0.06c-0.04,0-0.07,0.021-0.1,0.04v0.061h-0.14c-0.03,0-0.06,0-0.09,0.039v0.051
					c0,0.029-0.02,0.06-0.05,0.08c0,0.039-0.02,0.06-0.05,0.1v0.23c0,0.02,0,0.02,0,0.02v0.23c0.03,0.02,0.05,0.06,0.05,0.08
					l0.05,0.049c0.01,0,0.02,0,0.04,0.011c0.01,0.01,0.03,0.021,0.05,0.03v0.06c0.03,0.021,0.05,0.06,0.05,0.101
					c0,0.029-0.02,0.049-0.05,0.09v0.229h-0.09v0.229l-0.1,0.061c0-0.04-0.01-0.061-0.04-0.061h-0.57l-0.09,0.101
					c0,0.021-0.02,0.06-0.05,0.101h-0.09c-0.06,0.029-0.13,0.049-0.19,0.09v0.039l-0.09,0.101v0.229h-0.05
					c-0.03,0-0.06,0.021-0.09,0.041v0.109c0,0.02-0.02,0.061-0.05,0.08v0.109c0,0.021-0.01,0.061-0.05,0.08v0.061h-5.82
					c-0.06,0-0.12,0-0.19,0.04c-0.03,0-0.06,0.021-0.09,0.05c-0.06,0.02-0.13,0.061-0.19,0.08c-0.06,0.04-0.12,0.08-0.19,0.1
					c-0.03-0.02-0.11-0.039-0.23-0.039h-9.39c-0.13,0-0.21,0.02-0.24,0.09c-0.03-0.03-0.06-0.051-0.09-0.051
					c-0.06,0-0.11-0.02-0.14-0.039h-0.28l-0.05,0.039h-0.09c0,0.041-0.02,0.051-0.05,0.051v0.039l-0.05-0.039h-0.19v0.039
					c-0.06,0-0.12,0.021-0.18,0.061c-0.03,0-0.08,0-0.14,0.04h-0.05c-0.03,0-0.05,0.021-0.05,0.04c-0.03,0.04-0.06,0.061-0.09,0.1
					v0.09h-0.1c0,0.041-0.01,0.061-0.04,0.101v0.09h-0.1c0,0.04-0.01,0.06-0.04,0.101v0.08l-0.05,0.049v0.101l-0.05,0.04
					c-0.03,0.04-0.06,0.07-0.09,0.109v1.641c0.03,0.02,0.06,0.061,0.09,0.1c0,0.03,0.02,0.051,0.05,0.09v0.42
					c0,0.021,0.02,0.041,0.05,0.041v0.56c0.03,0.04,0.04,0.06,0.04,0.11l0.05,0.039c0.03,0.041,0.05,0.061,0.05,0.101v0.14
					c0.03,0.03,0.04,0.051,0.04,0.09v0.371c0.04,0.039,0.05,0.069,0.05,0.09l0.05,0.06v0.33c0.03,0.021,0.05,0.06,0.05,0.09
					l0.04,0.04v0.37c0.03,0.05,0.05,0.069,0.05,0.11c0.03,0,0.05,0.02,0.05,0.039v0.15c0.03,0.02,0.06,0.061,0.09,0.08v0.23
					c0.03,0.039,0.05,0.08,0.05,0.1c0,0.04,0.01,0.07,0.04,0.1v0.42l0.1,0.09v0.201c0.03,0.029,0.05,0.049,0.05,0.09
					c0.03,0.02,0.04,0.06,0.04,0.1v0.311c0.03,0.039,0.06,0.069,0.1,0.109v0.27c0.03,0,0.04,0.021,0.04,0.061
					c0.04,0.02,0.07,0.04,0.1,0.04v0.229c0,0.041,0.01,0.07,0.04,0.09v0.141c0.03,0.04,0.05,0.061,0.05,0.109l0.05,0.041v0.189
					c0.03,0,0.04,0.02,0.04,0.04v0.281c0.04,0.029,0.07,0.07,0.1,0.09c0,0.051,0.01,0.061,0.05,0.061c0,0.02,0.01,0.059,0.04,0.09
					c0.03,0.02,0.05,0.07,0.05,0.1c0,0.02,0.01,0.039,0.05,0.039c0.03,0.021,0.06,0.07,0.09,0.102c0.03,0,0.06,0.01,0.09,0.039
					c0,0.029,0.02,0.051,0.05,0.051c0.03,0,0.08,0.02,0.14,0.049c0.03,0.031,0.05,0.061,0.05,0.09c0.09,0.031,0.15,0.061,0.19,0.102
					h0.18c0.03,0.029,0.07,0.039,0.1,0.039c0,0.029,0.01,0.051,0.04,0.051c0.07,0.029,0.13,0.049,0.19,0.049h0.42
					c0.04,0,0.07-0.02,0.1-0.049h0.05c0.03-0.031,0.06-0.061,0.09-0.102h0.1c0.03-0.029,0.06-0.039,0.09-0.039s0.05-0.02,0.05-0.051
					l0.04-0.049c0.03-0.031,0.08-0.061,0.14-0.09c0.04,0,0.05-0.021,0.05-0.051l0.05-0.039c0.03-0.031,0.06-0.07,0.09-0.102h0.04
					c0.03,0,0.05-0.02,0.05-0.059c0.06,0,0.13,0,0.19-0.031l0.19-0.139c0.06-0.102,0.11-0.191,0.14-0.291c0.03-0.1,0.03-0.17,0-0.23
					c0.06-0.04,0.12-0.06,0.18-0.101c0.04-0.02,0.08-0.039,0.15-0.039h0.09c0.13,0.02,0.22,0.02,0.28-0.051l6.53-5.08
					c0.01,0,0.02-0.02,0.02-0.039c0.05-0.08,0.09-0.141,0.12-0.23v-0.1h0.33c0.09,0,0.17-0.021,0.23-0.09
					c0.07-0.061,0.11-0.121,0.15-0.141c0.03,0,0.09,0.02,0.18,0.04c0.06,0,0.16,0.021,0.28,0.06h2.21v0.75
					c0.03,0.021,0.07,0.051,0.1,0.09c0.03,0,0.04,0.021,0.04,0.041l0.19,0.199h0.19v0.03c0.06,0.04,0.11,0.06,0.14,0.06h5.16v0.291
					c0.04,0.02,0.07,0.039,0.1,0.039c0.03,0,0.08,0.021,0.14,0.041c0,0.039,0.02,0.069,0.05,0.09c0.06,0.039,0.11,0.06,0.14,0.06
					h0.42v0.271c0.03,0,0.05,0.02,0.05,0.06h0.04v0.09c0,0.021,0.02,0.04,0.05,0.04c0,0.04,0.02,0.061,0.05,0.1v0.23
					c0.03,0.04,0.04,0.061,0.04,0.1l0.05,0.051c0.03,0,0.05,0.02,0.05,0.039c0.03,0.041,0.05,0.061,0.05,0.101l0.09,0.09v0.04
					c0.03,0,0.05,0.02,0.05,0.061c0,0.02,0.03,0.06,0.09,0.08c0,0.039,0.02,0.049,0.05,0.049c0.03,0.041,0.06,0.041,0.09,0.041
					c0,0.039,0.03,0.08,0.09,0.1c0.03,0.04,0.07,0.07,0.1,0.1h0.19v0.051c0.03,0.02,0.06,0.039,0.09,0.039
					c0,0.041,0.02,0.061,0.05,0.101c0.06,0.021,0.11,0.03,0.14,0.03c0.06,0.039,0.12,0.06,0.18,0.06l0.05,0.101
					c0.1,0.02,0.17,0.039,0.24,0.039v0.051h0.09c0.03,0.029,0.06,0.039,0.09,0.039c0.07,0.041,0.1,0.061,0.1,0.101l0.05,0.04
					c0.03,0.04,0.06,0.061,0.09,0.1v0.09l0.05,0.041c0,0.039,0.01,0.06,0.04,0.06c0.04,0.03,0.07,0.06,0.1,0.09v0.101
					c0.03,0,0.05,0,0.05,0.039c0.03,0.021,0.04,0.051,0.04,0.09v0.101c0.03,0,0.05,0.021,0.05,0.04l0.05,0.04v0.06
					c-0.04,0.03-0.05,0.051-0.05,0.09l-0.05,0.041v0.189c0,0.04-0.01,0.061-0.04,0.1c0,0.041-0.02,0.07-0.05,0.09v0.24
					c-0.03,0.03-0.06,0.051-0.1,0.051v0.189l-0.04,0.04v0.101c0,0.02-0.02,0.059-0.05,0.08v0.25c0,0.02-0.02,0.059-0.05,0.09v0.08
					c0,0.039-0.01,0.059-0.04,0.059c0,0.021-0.02,0.061-0.05,0.102v0.09c-0.03,0-0.06,0.02-0.1,0.049v0.23
					c0,0.029-0.01,0.061-0.04,0.1c0,0.031-0.02,0.061-0.05,0.09c0,0.031-0.01,0.051-0.05,0.051v0.23l-0.04,0.049v0.191
					c-0.03,0.029-0.05,0.059-0.05,0.09c-0.03,0.029-0.06,0.049-0.09,0.049v0.141c0,0.029-0.02,0.061-0.05,0.09
					c0,0.029-0.01,0.051-0.05,0.051v0.229c-0.03,0.041-0.06,0.051-0.09,0.051v0.141l-0.05,0.049c0,0.031-0.01,0.061-0.04,0.1v0.131
					c-0.03,0.041-0.05,0.07-0.05,0.1v0.18c0,0.031-0.01,0.07-0.05,0.102c0,0.029-0.01,0.049-0.04,0.049
					c0,0.031-0.02,0.061-0.05,0.09c0,0.031-0.02,0.041-0.05,0.041v0.289c0,0.031-0.01,0.041-0.04,0.041c0,0.039-0.02,0.07-0.05,0.1
					v0.279c0.03,0.031,0.06,0.061,0.09,0.1v0.23c0,0.031,0.02,0.061,0.05,0.1c0.03,0.031,0.05,0.061,0.05,0.092h0.14v0.1
					c0.03,0.029,0.06,0.059,0.09,0.09c0.03,0.029,0.06,0.049,0.1,0.049c0.03,0.031,0.07,0.041,0.14,0.041l0.09,0.1
					c0.06,0.029,0.13,0.051,0.19,0.051c0.06,0.029,0.11,0.039,0.14,0.039h0.14c0.06,0.031,0.14,0.051,0.24,0.051v0.039
					c0.09,0.041,0.17,0.051,0.23,0.051h1.88c0.03,0,0.05-0.01,0.05-0.051c0.03,0,0.06-0.01,0.09-0.039l0.05,0.039
					c0.06,0.041,0.12,0.051,0.18,0.051h0.05c0.03-0.031,0.06-0.051,0.1-0.051c0-0.029,0.01-0.059,0.04-0.09l0.05-0.049h0.14
					c0.03-0.031,0.06-0.041,0.09-0.041v-0.1l0.05-0.051v-0.229c0.03-0.031,0.06-0.061,0.09-0.092v-0.189c0.04,0,0.07-0.02,0.1-0.049
					v-0.801c0.03-0.029,0.06-0.061,0.09-0.09v-0.24c0.03-0.029,0.07-0.061,0.1-0.09v-0.051c0.03-0.029,0.04-0.059,0.04-0.09v-0.279
					c0.03-0.029,0.07-0.061,0.1-0.09v-0.051l0.04-0.049v-0.23c0.03,0,0.05-0.02,0.05-0.051v-0.279c0.03-0.029,0.06-0.061,0.09-0.1
					c0-0.031,0.02-0.061,0.05-0.09v-0.102l0.05-0.039c0-0.029,0.01-0.061,0.05-0.1v-0.141c0.03-0.029,0.04-0.061,0.04-0.09
					l0.05-0.051v-0.279c0.03-0.029,0.05-0.061,0.05-0.1c0.03-0.031,0.04-0.061,0.04-0.09v-0.051c0.03-0.029,0.07-0.039,0.1-0.039
					v-0.281l0.04-0.049c0.03-0.041,0.05-0.07,0.05-0.102v-0.09c0.03-0.029,0.06-0.049,0.09-0.049c0-0.031,0.02-0.061,0.05-0.09
					v-0.282h0.05l0.04-0.049h0.8c0.03-0.03,0.06-0.051,0.1-0.051c0.15-0.029,0.31-0.06,0.47-0.09h0.09l0.09-0.09
					c0.03,0,0.05-0.02,0.05-0.05c0.03-0.03,0.05-0.06,0.05-0.101v-0.039h0.04l0.04-0.101c0-0.03,0.02-0.06,0.05-0.09v-0.14
					c-0.03-0.03-0.05-0.061-0.05-0.09v-0.141c-0.03-0.04-0.06-0.07-0.09-0.1l-0.14-0.141c-0.03-0.029-0.05-0.06-0.05-0.09
					c-0.03-0.029-0.04-0.07-0.04-0.1c0-0.03,0.01-0.07,0.04-0.141v-0.75h0.1c0.35-0.02,0.7-0.029,1.06-0.039h0.15
					c0.16-0.011,0.32-0.011,0.48-0.011c-0.03,0.011-0.07,0.021-0.1,0.05l-0.04,0.051v0.069c0,0.011,0,0.011,0,0.021
					c-0.03,0.029-0.05,0.06-0.05,0.09v0.05c-0.06,0-0.11,0.021-0.14,0.05c-0.03,0.03-0.07,0.051-0.1,0.051
					c0,0.029-0.01,0.06-0.04,0.09l-0.1,0.09v0.189c0,0.03,0.02,0.07,0.05,0.1h-0.05l-0.04,0.041c0,0.01,0,0.029-0.01,0.039
					c-0.01,0.021-0.02,0.041-0.04,0.061v1.17c0.03,0.03,0.05,0.061,0.05,0.09c0,0.03,0.01,0.051,0.04,0.051v11
					c0,0.029,0.02,0.059,0.05,0.1c0.03,0.029,0.06,0.039,0.09,0.039h0.29c0.03,0.031,0.06,0.07,0.09,0.102
					c0.03,0.029,0.05,0.059,0.05,0.09c0.06,0.029,0.12,0.049,0.18,0.049c0.07,0.031,0.11,0.041,0.15,0.041h8.729
					c0.061,0,0.109-0.01,0.141-0.041c0.029,0,0.059-0.02,0.09-0.049c0-0.031,0.02-0.061,0.049-0.09v-0.521l0.102-0.1V15.386
					c-0.031,0-0.07-0.02-0.102-0.049c-0.029,0-0.049-0.021-0.049-0.051c-0.061-0.029-0.111-0.05-0.141-0.05h-0.039
					c-0.031,0-0.07-0.011-0.102-0.04c-0.029,0-0.059-0.02-0.09-0.05c-0.029-0.06-0.07-0.11-0.1-0.14
					c-0.029-0.061-0.039-0.131-0.039-0.19c-0.07-0.03-0.111-0.08-0.141-0.14v-0.801h-0.051c-0.029-0.029-0.049-0.06-0.049-0.09
					c-0.03-0.029-0.08-0.07-0.141-0.1h-0.189v-0.84h10.33v0.75c0.039,0.029,0.07,0.05,0.1,0.05c0,0.03,0.01,0.06,0.039,0.09
					c0.07,0.03,0.111,0.05,0.15,0.05h0.09c0.031,0.03,0.051,0.061,0.051,0.09h0.471c0.148-0.029,0.299-0.06,0.42-0.09h0.889
					l0.051-0.05c0-0.04,0.02-0.05,0.049-0.05h0.191v0.05c0.059,0.03,0.119,0.04,0.189,0.04h0.09l0.051-0.04
					c0.09,0,0.17-0.021,0.229-0.05h0.102c0-0.03,0.01-0.051,0.039-0.051c0.031,0,0.051-0.01,0.051-0.039
					c0.029-0.03,0.049-0.07,0.049-0.101l0.051-0.04c0.02,0,0.039-0.02,0.039-0.05v-0.229c0.031,0,0.061-0.021,0.102-0.051
					c0.09-0.029,0.199-0.06,0.318-0.1c0.031,0,0.08-0.01,0.15-0.04l0.041-0.05c0.029-0.03,0.049-0.061,0.049-0.09
					c0.031-0.03,0.041-0.07,0.041-0.101v-0.28c0.07,0,0.119-0.01,0.15-0.049l0.09,0.1v0.189c0.029,0,0.049,0.01,0.049,0.04
					c0.031,0.03,0.051,0.07,0.051,0.101v0.18c0.029,0.04,0.061,0.07,0.09,0.1l0.039,0.051c0.07,0.029,0.131,0.039,0.191,0.039
					l0.049,0.101c0.031,0,0.061,0.01,0.09,0.05h-0.09v0.32c0.031,0.029,0.051,0.07,0.051,0.1c0.02,0.03,0.039,0.061,0.039,0.09v0.33
					c-0.029,0.03-0.039,0.061-0.039,0.09c0,0.03-0.02,0.051-0.051,0.051v0.189c0.031,0,0.061,0.01,0.09,0.051
					c-0.029,0-0.039,0.01-0.039,0.039c0,0.03-0.02,0.07-0.051,0.1v0.561l0.09,0.09v-0.039h0.471v2.34l-0.051,0.049
					c-0.029,0.031-0.059,0.051-0.09,0.051c0,0.029-0.01,0.061-0.049,0.09v0.141h-0.141c-0.029,0-0.039,0.02-0.039,0.049v10.65
					c0.029,0.029,0.039,0.061,0.039,0.1v0.09l0.051,0.051c0.029,0.029,0.049,0.061,0.049,0.09l0.041,0.051v0.09
					c0.039,0.039,0.049,0.07,0.049,0.1c0.031,0.029,0.08,0.061,0.141,0.09h0.141c0,0.041,0.02,0.07,0.049,0.1
					c0.031,0,0.08,0.01,0.141,0.041v0.1h0.051v2.01h-0.051c-0.061,0.029-0.109,0.051-0.141,0.051
					c-0.029,0.029-0.068,0.049-0.09,0.049v0.18c0.021,0.031,0.061,0.051,0.09,0.051c0.031,0,0.08,0.01,0.141,0.051h1.131
					c0.029-0.031,0.08-0.051,0.139-0.051c0.031,0,0.041-0.02,0.041-0.051c0-0.029,0.02-0.059,0.049-0.09
					c-0.029-0.029-0.049-0.059-0.049-0.09l-0.041-0.049c-0.07,0-0.109-0.021-0.139-0.051v-2.029c0.029-0.031,0.059-0.061,0.09-0.09
					c0-0.031,0.02-0.061,0.049-0.09h0.521c0.029-0.031,0.039-0.07,0.039-0.102v-0.09c0-0.029-0.01-0.059-0.039-0.09
					c-0.041-0.039-0.07-0.049-0.102-0.049c0-0.031,0.021-0.07,0.051-0.102V18.578l0.039-0.051c0.031-0.029,0.051-0.061,0.051-0.09
					v-0.141c0-0.039-0.02-0.07-0.051-0.1h-0.039c-0.029,0-0.051-0.01-0.051-0.051v-0.039c-0.029-0.029-0.049-0.061-0.049-0.1
					l-0.041-0.041v-0.1c-0.029-0.029-0.059-0.039-0.1-0.039l-0.039-0.051h-0.15v-0.051c0-0.029,0.02-0.059,0.049-0.09v-2.31h0.051
					c0.061,0.04,0.109,0.05,0.141,0.05h0.279c0.029-0.029,0.08-0.05,0.15-0.05v-0.04l0.039-0.05v-3.05c0-0.03,0.031-0.061,0.1-0.1
					l-0.049-0.041v-0.05c-0.029-0.03-0.051-0.06-0.051-0.09v-0.14h-0.09v-0.141h-0.049c0-0.039-0.012-0.07-0.051-0.1
					c-0.029-0.03-0.061-0.04-0.09-0.04c-0.061,0-0.109-0.021-0.141-0.05h-0.049c-0.031-0.03-0.061-0.051-0.09-0.051h-0.111v-0.939
					c0.051-0.029,0.061-0.061,0.061-0.09c0.01-0.01,0.01-0.01,0.02-0.02c0.02-0.021,0.031-0.051,0.031-0.08V9.796h1.029
					c0.18-0.01,0.359-0.01,0.561-0.01c6.01-0.029,12.049-0.061,18.129-0.09h0.371l0.049-0.05c0.811,0,1.641-0.011,2.49-0.04h0.051
					c0.029,0,0.039-0.02,0.039-0.051h0.1V9.507h0.09c0-0.031,0.021-0.061,0.051-0.09c0.029,0,0.041-0.021,0.041-0.051
					c0-0.029,0.02-0.05,0.049-0.05V9.136l-0.049-0.049h0.139l0.1-0.051c0.031-0.029,0.051-0.061,0.051-0.09
					c0.029-0.029,0.041-0.061,0.041-0.09V8.667c-0.031,0-0.041-0.021-0.041-0.051l0.051-0.05V8.087z M47.371,4.257h0.051v0.229
					l-0.051-0.06V4.257z M10.942,9.597c-0.03,0.039-0.08,0.06-0.14,0.1c0,0.02-0.02,0.061-0.05,0.1h-0.05c-0.06,0-0.11,0-0.14,0.041
					c-0.03,0.029-0.08,0.069-0.14,0.09c-0.03,0.039-0.06,0.039-0.09,0.039c-0.07,0.041-0.11,0.08-0.14,0.101
					c-0.03,0.03-0.07,0.069-0.1,0.09c-0.03,0.04-0.06,0.06-0.09,0.06l-0.09,0.08c-0.04,0.051-0.08,0.051-0.14,0.051
					c-0.04,0.039-0.05,0.06-0.05,0.1c-0.03,0-0.06,0.02-0.1,0.04c0,0.04-0.01,0.06-0.04,0.101c-0.06,0.039-0.11,0.069-0.14,0.09
					h-0.1l-0.09,0.1c0,0.02-0.02,0.061-0.05,0.1h-0.04c-0.04,0.03-0.08,0.051-0.15,0.09c0,0.021-0.01,0.021-0.02,0.041
					c-0.02,0.02-0.04,0.039-0.07,0.039c-0.02,0.021-0.04,0.021-0.06,0.041c-0.03,0.029-0.06,0.049-0.08,0.069l-0.05,0.04
					c-0.03,0.04-0.08,0.061-0.14,0.1c-0.03,0.021-0.05,0.051-0.05,0.09c-0.03,0-0.06,0.021-0.09,0.041
					c-0.03,0.039-0.06,0.06-0.09,0.06c-0.04,0.021-0.05,0.06-0.05,0.08c-0.06,0.03-0.11,0.06-0.14,0.06h-0.1
					c-0.03,0.03-0.08,0.051-0.14,0.09c-0.03,0.021-0.06,0.061-0.09,0.101c-0.03,0.03-0.06,0.06-0.1,0.09
					c-0.06,0.021-0.09,0.06-0.09,0.08c-0.06,0-0.11,0.021-0.14,0.06c-0.03,0-0.06,0-0.1,0.041l-0.09,0.09
					c-0.03,0.039-0.06,0.06-0.09,0.06l-0.05,0.04c-0.06,0.02-0.14,0.07-0.23,0.1c0,0.03-0.02,0.051-0.05,0.09
					c-0.03,0.021-0.06,0.041-0.1,0.041l-0.04,0.06c0,0.021-0.02,0.06-0.05,0.09l-0.19,0.19c-0.03-0.07-0.09-0.11-0.19-0.15
					c-0.09,0-0.18,0.04-0.28,0.1l-1.22,0.881l-0.7-2.051c-0.04-0.06-0.08-0.119-0.13-0.16c-0.02-0.039-0.04-0.06-0.06-0.08h-0.23
					v-0.039c-0.03-0.07-0.05-0.11-0.05-0.15c-0.02,0-0.04-0.02-0.05-0.02c-0.04-0.041-0.07-0.08-0.09-0.131v-0.369
					c-0.03-0.051-0.05-0.131-0.05-0.19c-0.03-0.021-0.06-0.08-0.09-0.14c0-0.051-0.02-0.11-0.05-0.131v-0.149
					c-0.03-0.06-0.05-0.101-0.05-0.14V9.796c0-0.039-0.01-0.08-0.04-0.14v-0.11h7.84C11.022,9.546,10.973,9.567,10.942,9.597z
					 M22.022,11.567h-0.05v-0.08h0.05V11.567z M25.123,14.427c-0.03,0-0.06,0-0.1-0.041h0.1V14.427z M30.143,15.466
					c0.03-0.02,0.07-0.08,0.1-0.129v0.039c0.03,0.03,0.04,0.07,0.04,0.09H30.143z M44.791,6.037h-0.279
					c0.121-0.029,0.23-0.05,0.33-0.05C44.813,5.987,44.791,6.007,44.791,6.037z M54.541,6.677c-0.01,0.01-0.02,0.01-0.029,0.02
					c-0.029,0-0.061,0.01-0.09,0.04v-0.04c0.029-0.01,0.051-0.029,0.08-0.04c0.029-0.021,0.07-0.04,0.109-0.06
					C54.611,6.626,54.592,6.636,54.541,6.677z M54.701,6.546h-0.049l0.049-0.039V6.546z M56.393,14.947v-0.04l0.049,0.04H56.393z
					 M56.723,5.757c0-0.041-0.021-0.08-0.051-0.101V5.427h0.051V5.757z M58.313,14.907v0.101h-0.041
					C58.303,14.966,58.313,14.947,58.313,14.907z"/>
			</g>
		</g>
	</g>
	<g>
		
			<linearGradient id="SVGID_3_" gradientUnits="userSpaceOnUse" x1="92.583" y1="42.6016" x2="62.5592" y2="42.6016" gradientTransform="matrix(0.9881 0.1538 0.1538 -0.9881 -56.4555 41.1675)">
			<stop  offset="0" style="stop-color:#00FFFF"/>
			<stop  offset="0.6495" style="stop-color:#FFE3A0"/>
		</linearGradient>
		<path fill="url(#SVGID_3_)" d="M31.833,14.767c0,0.01,0,0.029-0.01,0.039c2.49,1.471,4.8,3.131,6.96,4.991
			c-4-5.959-8.68-11.081-14.02-15.37h-1.33c0-0.021-0.02-0.041-0.05-0.041c-0.03-0.039-0.08-0.039-0.14-0.039
			c-0.06-0.03-0.09-0.07-0.09-0.11h-0.05v-0.17c-0.03,0-0.05-0.021-0.05-0.06c-0.03,0-0.06-0.021-0.09-0.041
			c-0.03-0.039-0.07-0.06-0.1-0.09c-0.06-0.029-0.12-0.06-0.19-0.06h-0.46c0-0.021-0.02-0.06-0.05-0.08c0-0.04-0.02-0.08-0.05-0.101
			c0-0.039-0.01-0.049-0.05-0.049c-0.03-0.041-0.06-0.061-0.09-0.101c-0.03-0.021-0.05-0.06-0.05-0.08c-0.03,0-0.06-0.021-0.09-0.06
			c-0.06,0-0.11,0-0.14-0.051h-0.57v0.051h-0.14c-0.03,0.039-0.06,0.06-0.09,0.06c-0.03,0.021-0.05,0.06-0.05,0.08
			c-0.03,0.04-0.04,0.08-0.04,0.101c-0.04,0-0.07,0.01-0.1,0.049c0,0.041-0.01,0.061-0.05,0.101v0.14c0,0.03-0.01,0.051-0.04,0.09
			c-0.06,0.041-0.11,0.041-0.14,0.041c-0.04,0.039-0.07,0.06-0.1,0.06h-0.18c-0.04,0.021-0.07,0.03-0.1,0.03
			c-0.03,0-0.04,0.029-0.04,0.06c-0.04,0-0.07,0.021-0.1,0.04v0.061h-0.14c-0.03,0-0.06,0-0.09,0.039v0.051
			c0,0.029-0.02,0.06-0.05,0.08c0,0.039-0.02,0.06-0.05,0.1v0.13l0.05,0.05c0.03,0,0.06,0.01,0.09,0.04v0.05
			c0.03,0.03,0.05,0.061,0.05,0.101c0,0.03-0.02,0.06-0.05,0.09v0.16c0.01,0.01,0.03,0.021,0.05,0.03v0.06
			c0.03,0.021,0.05,0.06,0.05,0.101c0,0.029-0.02,0.049-0.05,0.09v0.229h-0.09v0.229l-0.1,0.061c0-0.04-0.01-0.061-0.04-0.061h-0.57
			l-0.09,0.101c0,0.021-0.02,0.06-0.05,0.101h-0.09c-0.06,0.029-0.13,0.049-0.19,0.09v0.039l-0.09,0.101v0.229h-0.05
			c-0.03,0-0.06,0.021-0.09,0.041v0.109c0,0.02-0.02,0.061-0.05,0.08v0.109c0,0.021-0.01,0.061-0.05,0.08v0.061h-5.82
			c-0.06,0-0.12,0-0.19,0.04c-0.03,0-0.06,0.021-0.09,0.05l1.28,0.2l-0.09,0.569c6.03,1.211,11.48,3.11,16.35,5.721
			c0.17,0.08,0.33,0.16,0.48,0.25c0.14,0.08,0.28,0.16,0.42,0.24v-0.66h0.1c0.35-0.02,0.7-0.03,1.06-0.04
			c0.21-0.011,0.42-0.011,0.63-0.011c-0.03,0.011-0.07,0.021-0.1,0.051l-0.04,0.05v0.069c0,0.011,0,0.011,0,0.021
			c-0.03,0.03-0.05,0.06-0.05,0.091v0.049c-0.06,0-0.11,0.021-0.14,0.051c-0.03,0.029-0.07,0.05-0.1,0.05c0,0.01,0,0.01,0,0.021
			c0.16-0.011,0.32-0.011,0.48-0.011c-0.03,0.011-0.07,0.021-0.1,0.05l-0.04,0.051v0.069c0,0.011,0,0.011,0,0.021
			c-0.03,0.029-0.05,0.06-0.05,0.09v0.05c-0.06,0-0.11,0.021-0.14,0.05c-0.03,0.03-0.07,0.051-0.1,0.051
			c0,0.029-0.01,0.06-0.04,0.09l-0.1,0.09v0.189c0,0.03,0.02,0.07,0.05,0.1h-0.05L31.833,14.767z"/>
	</g>
	<g>
		
			<linearGradient id="SVGID_4_" gradientUnits="userSpaceOnUse" x1="35.8662" y1="4.9883" x2="34.7599" y2="4.9883" gradientTransform="matrix(1 0 0 -1 8.3398 8.04)">
			<stop  offset="0" style="stop-color:#00FFFF"/>
			<stop  offset="0.8219" style="stop-color:#FFE3A0"/>
		</linearGradient>
		<path fill="url(#SVGID_4_)" d="M44.141,3.322L43.1,2.962c0.061-0.06,0.1-0.08,0.18-0.08c0.061,0,0.141-0.049,0.23-0.1
			C43.721,2.952,43.93,3.132,44.141,3.322z"/>
		<linearGradient id="SVGID_5_" gradientUnits="userSpaceOnUse" x1="54.5313" y1="8.8218" x2="38.3768" y2="8.8218">
			<stop  offset="0" style="stop-color:#00FFFF"/>
			<stop  offset="0.8219" style="stop-color:#FFE3A0"/>
		</linearGradient>
		<path fill="url(#SVGID_5_)" d="M53.572,12.737l-1.08,0.021c-0.291-0.17-0.6-0.351-0.91-0.541c-4.16-2.459-8.57-4.539-13.209-6.17
			h3.399v-0.39c0,0,0.01,0,0.02,0h0.182c0.039,0.04,0.068,0.04,0.1,0.04v0.061c0.59-0.041,1.199-0.061,1.83-0.061v-0.04
			c0.02-0.021,0.039-0.05,0.07-0.069c0.01-0.011,0.02-0.021,0.029-0.031c0.029-0.029,0.061-0.049,0.09-0.09
			c0.029,0,0.051-0.02,0.051-0.039c0.059,0,0.119-0.021,0.18-0.051c0.219,0,0.439-0.01,0.66-0.039
			c0.029-0.041,0.049-0.08,0.049-0.101c0.031-0.04,0.061-0.04,0.09-0.04c0.031-0.04,0.07-0.061,0.102-0.061
			c0.029,0,0.049-0.01,0.049-0.049l0.18-0.08h0.33c0.031,0,0.051-0.021,0.051-0.061l0.061-0.061c0.469,0.431,0.939,0.891,1.41,1.33
			h-0.111c0,0.041-0.02,0.061-0.049,0.061v0.029l-0.051,0.061c0,0.02-0.01,0.04-0.039,0.04h-0.15c-0.061,0.04-0.141,0.06-0.23,0.101
			v0.369h1.301c1.359,1.301,2.699,2.68,4.01,4.09C52.531,11.546,53.053,12.126,53.572,12.737z"/>
	</g>
	<g>
		<g>
			<g>
				<g>
					
						<linearGradient id="SVGID_6_" gradientUnits="userSpaceOnUse" x1="18.9414" y1="-23.8589" x2="42.9854" y2="17.7864" gradientTransform="matrix(1 0 0 -1 8.3398 8.04)">
						<stop  offset="0" style="stop-color:#BB925B"/>
						<stop  offset="0.3429" style="stop-color:#FFF6DA"/>
						<stop  offset="0.6571" style="stop-color:#FFF1B1"/>
						<stop  offset="1" style="stop-color:#B38B54"/>
					</linearGradient>
					<path fill="url(#SVGID_6_)" d="M43.246,1.696L47.4,2.818c0.01,0.009,0.018,0.02,0.025,0.027
						c0.123,0.121,0.248,0.199,0.369,0.25c0.018,0.009,0.033,0.018,0.051,0.025c0.053,0.045,0.107,0.086,0.168,0.12
						c0.006,0.007,0.012,0.013,0.02,0.019c0.094,0.095,0.201,0.166,0.316,0.215v0.428c-0.154-0.38-0.553-0.65-0.98-0.65
						c-0.096,0-0.189,0.014-0.277,0.039c-0.027-0.013-0.057-0.023-0.084-0.033l-3.363-1.164c-0.084-0.148-0.207-0.275-0.354-0.367
						C43.277,1.716,43.262,1.707,43.246,1.696 M21.464,4.489c0.183,0.205,0.449,0.333,0.746,0.333h0.075
						c0.072,0.102,0.162,0.188,0.266,0.256c0.072,0.061,0.152,0.113,0.239,0.157c0.039,0.021,0.079,0.036,0.119,0.051
						c0.152,0.093,0.33,0.146,0.521,0.146h2.44c0.05,0,0.099-0.004,0.147-0.01c0.07,0.09,0.155,0.17,0.253,0.231
						c0.016,0.056,0.037,0.108,0.062,0.16c0.016,0.097,0.046,0.19,0.087,0.274c0.004,0.549,0.45,0.994,1,0.994h0.14
						c1.038,0,2.197-0.018,3.544-0.051c0.214-0.005,0.411-0.077,0.571-0.195c0.048-0.015,0.094-0.029,0.138-0.043
						c0.163-0.055,0.304-0.146,0.416-0.266c0.086,0.023,0.174,0.035,0.261,0.035c0.209,0,0.417-0.066,0.589-0.192
						c0.039-0.011,0.076-0.024,0.112-0.038h0.049c0.001,0,0.003,0,0.004,0c0.13,0.059,0.271,0.09,0.416,0.09
						c0.051,0,0.103-0.004,0.154-0.012C34,6.382,34.171,6.302,34.31,6.183h1.616c0.184,0.177,0.431,0.279,0.694,0.279
						c0.199,0,0.368-0.013,0.521-0.039h0.089c0.122,0,0.232-0.021,0.331-0.051h2.579c0.043,0.014,0.088,0.024,0.136,0.033
						c0.01,0.006,0.018,0.012,0.026,0.018l0.016,0.012c0.177,0.142,0.396,0.219,0.623,0.219c0.091,0,0.181-0.012,0.265-0.031
						c0.121,0.051,0.253,0.081,0.396,0.081h0.051c0.031,0,0.063-0.001,0.096-0.004c0.104,0.035,0.213,0.054,0.324,0.054
						c0.016,0,0.033,0,0.049,0c0.596-0.031,1.137-0.047,1.648-0.049c0.184,0.203,0.449,0.33,0.742,0.33h0.277
						c0.291,0,0.553-0.124,0.736-0.322c0.055-0.051,0.102-0.107,0.145-0.17v0.332c0,0.553,0.447,1,1,1h6.949
						c0.207,0,0.398-0.063,0.561-0.17c0.078,0.02,0.158,0.03,0.24,0.03c0.154,0,0.311-0.036,0.449-0.106
						c0.072-0.027,0.143-0.063,0.205-0.107c0.004-0.002,0.006-0.004,0.008-0.004c0.109-0.07,0.197-0.147,0.268-0.227
						c0.215-0.195,0.352-0.48,0.352-0.785c0-0.326-0.158-0.629-0.42-0.813V5.365c0.014-0.012,0.025-0.023,0.037-0.036
						c0.068-0.067,0.127-0.146,0.172-0.229c0.029-0.034,0.055-0.07,0.078-0.105c0.061-0.005,0.119-0.012,0.178-0.021
						c0.004,0.015,0.008,0.029,0.012,0.043C55.699,5.14,55.67,5.278,55.67,5.423v0.229c0,0.179,0.047,0.351,0.135,0.501
						c0.098,0.225,0.275,0.404,0.498,0.507c0.051,0.313,0.246,0.587,0.533,0.731c0.148,0.365,0.506,0.621,0.924,0.621h22.299
						c0.004,0.004,0.01,0.006,0.016,0.011c0.008,0.009,0.016,0.019,0.023,0.028c0.053,0.146,0.139,0.283,0.25,0.393
						c0.002,0.002,0.004,0.004,0.006,0.007c-0.041,0.052-0.078,0.106-0.109,0.167c-0.607,0.018-1.26,0.023-1.975,0.023
						c-0.105,0-0.211,0.018-0.311,0.051h-0.113l-5.764,0.029L59.721,8.783c-0.199,0-0.398,0-0.588,0.01h-1.004c-0.553,0-1,0.448-1,1
						v0.215c-0.064,0.135-0.1,0.283-0.1,0.436v0.939c0,0.434,0.275,0.803,0.66,0.941v1.794c-0.146,0.117-0.262,0.274-0.324,0.456
						c-0.049-0.121-0.123-0.232-0.219-0.328l-0.049-0.05c-0.068-0.069-0.146-0.125-0.23-0.17v-0.153
						c0-0.095-0.012-0.182-0.031-0.259c0.076-0.292,0.018-0.606-0.17-0.854c-0.045-0.06-0.096-0.113-0.148-0.162
						c-0.059-0.075-0.125-0.141-0.201-0.194c-0.006-0.015-0.012-0.026-0.02-0.041c-0.027-0.19-0.111-0.372-0.242-0.519l-0.092-0.1
						c-0.189-0.212-0.461-0.332-0.742-0.332c-0.016,0-0.029,0-0.045,0.001c-0.117,0.005-0.234,0.032-0.344,0.077
						c-0.352,0.085-0.629,0.355-0.727,0.7c-0.041,0.017-0.084,0.036-0.123,0.06c-0.207,0.086-0.377,0.239-0.486,0.432
						c-0.006,0-0.012,0-0.018,0h-0.191c-0.164,0-0.316,0.037-0.455,0.101h-0.533c-0.082,0-0.16,0.011-0.24,0.028
						c-0.023,0.007-0.053,0.014-0.078,0.02c-0.008-0.547-0.453-0.988-1-0.988H40.65c-0.552,0-1,0.449-1,1v0.84
						c0,0.341,0.17,0.642,0.431,0.822v0.168c0,0.157,0.037,0.313,0.107,0.453c0.038,0.074,0.079,0.141,0.123,0.199
						c0.016,0.042,0.033,0.083,0.053,0.122c0.037,0.073,0.082,0.144,0.135,0.205c0.043,0.069,0.092,0.135,0.148,0.192
						c0.07,0.072,0.148,0.135,0.232,0.186v10.428c-0.021,0.045-0.039,0.09-0.055,0.137h-7.832c-0.039-0.037-0.081-0.072-0.125-0.104
						V16.173c0-0.148-0.032-0.289-0.09-0.416v-0.523c0.024-0.041,0.045-0.083,0.064-0.128c0.026-0.063,0.046-0.13,0.058-0.194
						c0.133-0.115,0.236-0.264,0.294-0.434c0.187-0.217,0.279-0.51,0.231-0.811c-0.077-0.486-0.496-0.844-0.988-0.844
						c-0.226,0-0.451,0-0.679,0.012c-0.353,0.01-0.696,0.02-1.04,0.039H30.65c-0.552,0-1,0.447-1,1v0.586
						c-0.007,0.024-0.013,0.051-0.018,0.08c-0.1,0.075-0.187,0.172-0.253,0.284c-0.088,0.104-0.154,0.224-0.193,0.351
						c-0.184,0.002-0.36,0.056-0.513,0.149c-0.305,0.147-0.523,0.448-0.558,0.802c-0.055,0.09-0.095,0.188-0.119,0.291
						c-0.055,0.104-0.091,0.215-0.107,0.333c-0.037,0.072-0.065,0.148-0.083,0.227c-0.076,0.143-0.116,0.303-0.116,0.469v0.004
						c-0.033,0.072-0.057,0.146-0.072,0.225c-0.032,0.061-0.058,0.123-0.077,0.188c-0.118,0.168-0.182,0.367-0.182,0.574v0.018
						c-0.022,0.068-0.038,0.141-0.045,0.215c-0.094,0.154-0.145,0.334-0.145,0.518c-0.075,0.127-0.122,0.271-0.136,0.418
						c-0.062,0.131-0.094,0.275-0.094,0.424v0.414c-0.038,0.076-0.065,0.16-0.082,0.246c-0.094,0.014-0.186,0.039-0.272,0.08h-1.42
						c-0.103-0.047-0.216-0.078-0.334-0.088c-0.095-0.031-0.193-0.049-0.294-0.053c-0.038-0.027-0.079-0.053-0.121-0.074
						c-0.021-0.027-0.043-0.055-0.067-0.08c0.015-0.061,0.024-0.123,0.028-0.188c0.008-0.014,0.016-0.027,0.023-0.043
						c0.104-0.166,0.163-0.357,0.168-0.563c0.016-0.049,0.028-0.098,0.037-0.148c0.019-0.037,0.035-0.074,0.048-0.113
						c0.079-0.131,0.127-0.277,0.141-0.43c0.022-0.047,0.041-0.096,0.056-0.145c0.013-0.021,0.025-0.045,0.037-0.068
						c0.091-0.145,0.143-0.313,0.15-0.486c0.018-0.063,0.03-0.123,0.036-0.188c0.01-0.021,0.02-0.043,0.028-0.064
						c0.053-0.109,0.084-0.217,0.1-0.311c0.033-0.063,0.06-0.129,0.08-0.199c0.051-0.096,0.089-0.199,0.109-0.313
						c0.052-0.141,0.068-0.271,0.068-0.377v-0.012c0.014-0.045,0.025-0.088,0.032-0.129c0.008-0.023,0.016-0.049,0.022-0.072
						c0.084-0.147,0.132-0.311,0.135-0.483c0.047-0.11,0.077-0.229,0.086-0.352c0.067-0.148,0.104-0.312,0.104-0.468
						c0-0.065-0.007-0.132-0.02-0.196c0.185-0.191,0.299-0.455,0.299-0.734c0-0.551-0.448-1-1-1h-0.1
						c-0.137,0-0.269,0.029-0.389,0.08c-0.016-0.008-0.033-0.014-0.049-0.021c-0.002-0.001-0.005-0.002-0.008-0.004
						c-0.077-0.049-0.162-0.087-0.251-0.113c-0.092-0.064-0.193-0.113-0.302-0.144c-0.129-0.138-0.296-0.24-0.485-0.288
						c-0.024-0.02-0.048-0.037-0.073-0.053c-0.027-0.041-0.057-0.08-0.089-0.116c-0.004-0.007-0.008-0.013-0.011-0.019
						c-0.006-0.011-0.012-0.021-0.019-0.031c-0.016-0.146-0.064-0.287-0.14-0.412c-0.013-0.04-0.029-0.079-0.047-0.117
						c-0.013-0.164-0.064-0.316-0.146-0.447c0.006-0.045,0.009-0.09,0.009-0.136v-0.09c0-0.552-0.448-1-1-1h-0.05
						c-0.243,0-0.465,0.086-0.638,0.229c-0.007,0-0.014,0-0.021,0h-4.82v-0.17c0-0.552-0.448-1-1-1h-2.075
						c-0.08-0.019-0.155-0.031-0.222-0.039c-0.114-0.035-0.231-0.062-0.373-0.062c-0.218,0-0.43,0.071-0.603,0.202
						c-0.015,0.012-0.031,0.023-0.047,0.037h-0.06c-0.013,0-0.026,0-0.039,0.002c0.005-0.043,0.008-0.086,0.008-0.131
						c0-0.553-0.448-1-1-1H3.24c-0.552,0-1,0.447-1,1v0.1c0,0.095,0.014,0.189,0.04,0.279c0,0.127,0.022,0.234,0.051,0.328
						c0.006,0.125,0.036,0.246,0.085,0.358c0.017,0.062,0.04,0.121,0.068,0.179c0.012,0.023,0.024,0.047,0.036,0.068v0.188
						c0,0.127,0.024,0.254,0.072,0.373c0.053,0.133,0.122,0.235,0.184,0.313c0.095,0.248,0.286,0.448,0.527,0.556l0.58,1.709
						c0.102,0.301,0.342,0.535,0.645,0.631c0.099,0.031,0.201,0.047,0.302,0.047c0.209,0,0.416-0.066,0.589-0.192l0.913-0.666l0,0
						c0.063,0.013,0.126,0.019,0.188,0.019c0.094,0,0.187-0.014,0.276-0.039l-1.764,1.369c-0.223,0.006-0.428,0.067-0.614,0.182
						l-0.033,0.018L4.29,15.419c-0.289,0.146-0.476,0.412-0.532,0.707c-0.023,0.012-0.046,0.025-0.068,0.039
						c-0.098,0.049-0.188,0.112-0.267,0.191c-0.024,0.023-0.048,0.05-0.071,0.076c-0.004,0.004-0.009,0.008-0.013,0.011
						c-0.045,0.028-0.087,0.058-0.126,0.085c-0.066,0.021-0.129,0.049-0.189,0.084c-0.024-0.012-0.05-0.02-0.075-0.027
						c-0.073-0.033-0.149-0.061-0.228-0.074c-0.05-0.038-0.104-0.072-0.16-0.101C2.539,16.4,2.515,16.388,2.49,16.376
						c-0.014-0.027-0.029-0.053-0.045-0.078c-0.007-0.064-0.019-0.125-0.036-0.186c-0.01-0.146-0.05-0.286-0.117-0.411
						c-0.006-0.03-0.013-0.06-0.021-0.089v-0.05c0-0.196-0.056-0.378-0.153-0.532c-0.016-0.096-0.045-0.188-0.087-0.273
						c-0.002-0.153-0.034-0.301-0.093-0.438c-0.009-0.126-0.042-0.25-0.097-0.361v-0.084c0-0.145-0.031-0.285-0.09-0.414l0,0v-0.006
						c0-0.164-0.041-0.324-0.115-0.466c-0.017-0.075-0.042-0.147-0.075-0.216v-0.068c0-0.145-0.031-0.285-0.09-0.416v-0.055
						c0-0.152-0.035-0.301-0.1-0.436v-0.084c0-0.105-0.015-0.209-0.043-0.308c-0.014-0.188-0.076-0.344-0.137-0.455v-0.269
						c0-0.109-0.018-0.215-0.05-0.313v-0.155c0-0.182-0.049-0.357-0.14-0.511v-0.96c0.032-0.054,0.058-0.109,0.08-0.168
						c0.044-0.053,0.084-0.109,0.118-0.169c0.01-0.011,0.02-0.022,0.029-0.032c0.126-0.006,0.253-0.033,0.374-0.084l0,0
						c0.103,0.034,0.21,0.053,0.318,0.053c0.054,0,0.108-0.004,0.162-0.014C2.17,8.315,2.255,8.289,2.335,8.253h9.131
						c0.101,0.032,0.207,0.049,0.313,0.049c0.134,0,0.27-0.026,0.398-0.082c0.075-0.033,0.145-0.07,0.236-0.123l0.071-0.032
						l0.09-0.043h5.685c0.354,0,0.665-0.204,0.842-0.496c0.076-0.104,0.132-0.222,0.167-0.345c0.064-0.077,0.117-0.164,0.156-0.258
						c0.064,0.012,0.129,0.019,0.195,0.019c0.152,0,0.305-0.035,0.445-0.104l0.1-0.05c0.27-0.134,0.46-0.38,0.528-0.665
						c0.074-0.139,0.117-0.298,0.117-0.466c0.038-0.121,0.05-0.231,0.05-0.323c0-0.102-0.014-0.227-0.059-0.359
						c0.019-0.008,0.036-0.018,0.053-0.025c0.107-0.036,0.212-0.088,0.311-0.154c0.055-0.037,0.106-0.078,0.152-0.125
						C21.373,4.614,21.422,4.552,21.464,4.489 M57.125,18.291c0.072,0.119,0.17,0.225,0.285,0.303v9.961
						c-0.061,0.037-0.115,0.08-0.166,0.131c-0.025-0.018-0.051-0.035-0.078-0.051c-0.059-0.057-0.125-0.104-0.195-0.145v-9.916
						c0.053-0.074,0.096-0.158,0.127-0.248C57.105,18.314,57.115,18.303,57.125,18.291 M40.81-0.038c-0.083,0-0.147,0.033-0.2,0.101
						c-0.09,0.069-0.15,0.149-0.18,0.239v0.051h-0.1c-0.031,0.029-0.061,0.06-0.09,0.09l-0.051,0.05v0.19
						c-0.029,0.029-0.05,0.06-0.05,0.09c0,0.029-0.011,0.05-0.04,0.05v0.229l0.04,0.051c0,0.029,0.021,0.06,0.05,0.09v0.1
						l0.051,0.09c0.029,0.03,0.059,0.061,0.09,0.09c0.029,0,0.069,0.021,0.1,0.051l0.04,0.05v0.05h0.05l0.05,0.04
						c0,0.03,0.011,0.07,0.04,0.101c0.03,0,0.07,0.01,0.1,0.039c0,0.041,0.011,0.07,0.051,0.101c0.029,0.03,0.07,0.04,0.14,0.04
						c0.03,0.04,0.07,0.05,0.14,0.05c0.03,0,0.061,0.021,0.09,0.05c0.031,0.03,0.061,0.061,0.091,0.09
						c0.03,0.03,0.059,0.061,0.1,0.101c0.029,0,0.061,0.01,0.09,0.04c0.061,0,0.119,0.02,0.189,0.05h0.141
						c0.029,0.03,0.061,0.05,0.09,0.05h0.189c0.061,0.03,0.16,0.061,0.281,0.09h0.238c0.031,0.03,0.061,0.051,0.09,0.051
						c0.031,0,0.07,0.01,0.102,0.05h0.039c0,0.06,0.02,0.12,0.051,0.18c0.059,0.101,0.129,0.16,0.189,0.19l3.67,1.27v0.051
						c0.029,0,0.041,0.01,0.041,0.039c0.029,0.03,0.059,0.051,0.09,0.051v0.279H46.68c0,0.03-0.039,0.051-0.1,0.051
						c-0.029,0-0.061,0.02-0.09,0.049h-0.051l-0.049,0.041H46.25c-0.029,0-0.09,0.02-0.189,0.05c-0.031,0-0.08,0.021-0.141,0.05
						l-0.09,0.09c0,0.03-0.02,0.051-0.051,0.051h-0.33l-0.18,0.09c0,0.029-0.021,0.049-0.049,0.049c-0.031,0-0.07,0.011-0.104,0.051
						c-0.029,0-0.059,0.01-0.09,0.04c0,0.03-0.02,0.06-0.049,0.101c-0.221,0.029-0.441,0.039-0.66,0.039
						c-0.061,0.03-0.121,0.051-0.18,0.051c0,0.029-0.021,0.049-0.051,0.049c-0.029,0.031-0.061,0.061-0.09,0.091
						c-0.041,0.03-0.07,0.06-0.1,0.09v0.05c-0.631,0-1.24,0.02-1.83,0.051V5.703c-0.031,0-0.063-0.01-0.102-0.05h-0.178
						c-0.068,0.04-0.109,0.05-0.139,0.05H41.6v-0.14c-0.029-0.03-0.051-0.06-0.051-0.091c-0.029,0-0.059-0.02-0.09-0.049
						c-0.068,0-0.109-0.021-0.139-0.051v0.051h-0.191c-0.029,0.029-0.049,0.06-0.049,0.09c-0.031,0.029-0.061,0.07-0.09,0.1
						c0,0.029-0.021,0.04-0.051,0.04l-0.05-0.04c-0.06-0.04-0.11-0.07-0.14-0.1c-0.03-0.03-0.07-0.061-0.141-0.09h-0.14
						c-0.03,0-0.08-0.021-0.14-0.051h-2.96c-0.06,0.03-0.11,0.051-0.14,0.051h-0.19c-0.12,0.029-0.26,0.039-0.42,0.039
						c-0.03-0.06-0.06-0.119-0.09-0.18c-0.06-0.07-0.14-0.1-0.24-0.1h-2.3c-0.09,0-0.19,0.029-0.28,0.1c0,0.03-0.02,0.08-0.05,0.141
						c-0.03-0.031-0.06-0.061-0.09-0.09c-0.1,0-0.21-0.021-0.33-0.051v0.051h-0.28c-0.1,0.059-0.17,0.09-0.24,0.09
						c-0.09,0.029-0.17,0.08-0.23,0.14V5.462l-0.1-0.09c-0.06-0.029-0.11-0.06-0.14-0.09h-0.23v0.051h-0.1
						c-0.03,0-0.04,0.01-0.04,0.039l-0.1,0.1c0,0.031-0.01,0.061-0.04,0.091c-0.03,0.03-0.07,0.06-0.1,0.09H31.6l-0.1,0.101v0.09
						c-0.09,0.029-0.15,0.049-0.19,0.049h-0.14c-0.03,0-0.04,0.011-0.04,0.051l-0.05,0.04v0.05c-1.19,0.03-2.37,0.051-3.52,0.051
						h-0.14V5.792l-0.05-0.039V5.703c0-0.029-0.02-0.05-0.05-0.05V5.472c-0.03,0-0.04-0.02-0.04-0.049l-0.05-0.051v-0.47
						c0-0.03-0.02-0.06-0.05-0.09c-0.06-0.03-0.11-0.05-0.14-0.05H26.9c-0.03,0-0.06,0.02-0.09,0.05V4.712
						c0-0.029-0.02-0.06-0.05-0.09c-0.03-0.029-0.05-0.06-0.05-0.09h-0.09c0-0.029-0.01-0.07-0.05-0.1
						c-0.03-0.03-0.07-0.061-0.14-0.09v0.049h-0.09v0.041c-0.03-0.03-0.08-0.061-0.14-0.09h-0.1v0.039h-0.14
						c-0.03,0-0.06,0.021-0.09,0.051h-2.44c0-0.03-0.02-0.051-0.05-0.051c-0.03-0.029-0.08-0.039-0.14-0.039
						c-0.06-0.03-0.09-0.07-0.09-0.101H23.1v-0.18c-0.03,0-0.05-0.021-0.05-0.05c-0.03,0-0.06-0.021-0.09-0.051
						c-0.03-0.029-0.07-0.06-0.1-0.09c-0.06-0.029-0.12-0.05-0.19-0.05h-0.46c0-0.03-0.02-0.06-0.05-0.09
						c0-0.03-0.02-0.07-0.05-0.101c0-0.029-0.01-0.039-0.05-0.039c-0.03-0.041-0.06-0.07-0.09-0.101c-0.03-0.03-0.05-0.06-0.05-0.09
						c-0.03,0-0.06-0.021-0.09-0.05c-0.06,0-0.11-0.01-0.14-0.051h-0.57v0.051h-0.14c-0.03,0.029-0.06,0.05-0.09,0.05
						c-0.03,0.03-0.05,0.06-0.05,0.09c-0.03,0.03-0.04,0.07-0.04,0.101c-0.04,0-0.07,0.01-0.1,0.039c0,0.041-0.01,0.07-0.05,0.101
						v0.14c0,0.03-0.01,0.061-0.04,0.09c-0.06,0.041-0.11,0.051-0.14,0.051c-0.04,0.029-0.07,0.05-0.1,0.05h-0.18
						c-0.04,0.03-0.07,0.04-0.1,0.04c-0.03,0-0.04,0.02-0.04,0.05c-0.04,0-0.07,0.021-0.1,0.05v0.051h-0.14
						c-0.03,0-0.06,0.01-0.09,0.039v0.051c0,0.029-0.02,0.06-0.05,0.09c0,0.029-0.02,0.06-0.05,0.1v0.23c0,0.01,0,0.01,0,0.02v0.221
						c0.03,0.029,0.05,0.06,0.05,0.09l0.05,0.049c0.03,0,0.06,0.011,0.09,0.041v0.05c0.03,0.03,0.05,0.06,0.05,0.101
						c0,0.029-0.02,0.059-0.05,0.09v0.229h-0.09v0.239l-0.1,0.051c0-0.04-0.01-0.051-0.04-0.051h-0.57l-0.09,0.091
						c0,0.03-0.02,0.06-0.05,0.101h-0.09c-0.06,0.029-0.13,0.059-0.19,0.09v0.049L18.5,6.313v0.229h-0.05
						c-0.03,0-0.06,0.021-0.09,0.051v0.1c0,0.029-0.02,0.061-0.05,0.09v0.1c0,0.03-0.01,0.061-0.05,0.09v0.051h-5.82
						c-0.06,0-0.12,0.01-0.19,0.04c-0.03,0-0.06,0.021-0.09,0.05c-0.06,0.029-0.13,0.061-0.19,0.09c-0.06,0.03-0.12,0.07-0.19,0.1
						c-0.03-0.029-0.11-0.049-0.23-0.049H2.16c-0.13,0-0.21,0.029-0.24,0.09c-0.03-0.03-0.06-0.041-0.09-0.041
						c-0.06,0-0.11-0.02-0.14-0.049H1.41L1.36,7.302H1.27c0,0.031-0.02,0.041-0.05,0.041v0.049L1.17,7.343H0.98v0.049
						c-0.06,0-0.12,0.021-0.18,0.051c-0.03,0-0.08,0.01-0.14,0.04H0.61c-0.03,0-0.05,0.021-0.05,0.05
						c-0.03,0.03-0.06,0.061-0.09,0.09v0.1h-0.1c0,0.031-0.01,0.061-0.04,0.091v0.1h-0.1c0,0.03-0.01,0.06-0.04,0.091v0.09
						L0.14,8.142v0.091l-0.05,0.05c-0.03,0.03-0.06,0.07-0.09,0.1v1.641c0.03,0.029,0.06,0.061,0.09,0.1
						c0,0.03,0.02,0.061,0.05,0.09v0.42c0,0.03,0.02,0.051,0.05,0.051v0.56c0.03,0.03,0.04,0.06,0.04,0.101l0.05,0.039
						c0.03,0.041,0.05,0.07,0.05,0.101v0.14c0.03,0.03,0.04,0.061,0.04,0.09v0.381c0.04,0.029,0.05,0.06,0.05,0.09l0.05,0.05v0.33
						c0.03,0.03,0.05,0.06,0.05,0.09l0.04,0.05v0.37c0.03,0.04,0.05,0.069,0.05,0.101c0.03,0,0.05,0.02,0.05,0.039v0.15
						c0.03,0.029,0.06,0.061,0.09,0.09v0.23c0.03,0.039,0.05,0.07,0.05,0.1c0,0.03,0.01,0.061,0.04,0.09v0.42l0.1,0.1v0.191
						c0.03,0.029,0.05,0.059,0.05,0.09c0.03,0.029,0.04,0.06,0.04,0.1v0.32c0.03,0.029,0.06,0.069,0.1,0.1v0.279
						c0.03,0,0.04,0.011,0.04,0.051c0.04,0.029,0.07,0.04,0.1,0.04v0.239c0,0.031,0.01,0.061,0.04,0.09v0.141
						c0.03,0.03,0.05,0.061,0.05,0.102l0.05,0.039v0.189c0.03,0,0.04,0.021,0.04,0.051v0.28c0.04,0.029,0.07,0.061,0.1,0.09
						c0,0.039,0.01,0.051,0.05,0.051c0,0.029,0.01,0.061,0.04,0.09c0.03,0.029,0.05,0.068,0.05,0.1s0.01,0.041,0.05,0.041
						c0.03,0.029,0.06,0.07,0.09,0.102c0.03,0,0.06,0.01,0.09,0.037c0,0.031,0.02,0.053,0.05,0.053c0.03,0,0.08,0.02,0.14,0.049
						c0.03,0.031,0.05,0.061,0.05,0.09c0.09,0.031,0.15,0.061,0.19,0.1h0.18c0.03,0.031,0.07,0.041,0.1,0.041
						c0,0.029,0.01,0.051,0.04,0.051c0.07,0.029,0.13,0.051,0.19,0.051h0.42c0.04,0,0.07-0.021,0.1-0.051h0.05
						c0.03-0.029,0.06-0.061,0.09-0.102h0.1c0.03-0.029,0.06-0.039,0.09-0.039c0.03,0,0.05-0.02,0.05-0.051l0.04-0.049
						c0.03-0.031,0.08-0.063,0.14-0.09c0.04,0,0.05-0.021,0.05-0.053l0.05-0.037c0.03-0.031,0.06-0.07,0.09-0.102h0.04
						c0.03,0,0.05-0.01,0.05-0.051c0.06,0,0.13-0.01,0.19-0.039l0.19-0.141c0.06-0.102,0.11-0.189,0.14-0.289
						c0.03-0.092,0.03-0.17,0-0.231c0.06-0.03,0.12-0.061,0.18-0.09c0.04-0.03,0.08-0.051,0.15-0.051h0.09
						c0.045,0.01,0.085,0.017,0.121,0.017c0.068,0,0.12-0.021,0.16-0.065l6.53-5.07c0.01-0.01,0.02-0.029,0.02-0.039
						c0.05-0.08,0.09-0.15,0.12-0.24v-0.09h0.33c0.09,0,0.17-0.03,0.23-0.1c0.07-0.061,0.11-0.111,0.15-0.141
						c0.03,0,0.09,0.02,0.18,0.05c0.06,0,0.16,0.011,0.28,0.05h2.21v0.75c0.03,0.03,0.07,0.061,0.1,0.09
						c0.03,0,0.04,0.021,0.04,0.051l0.19,0.189h0.19v0.041c0.06,0.029,0.11,0.049,0.14,0.049h5.16v0.291
						c0.04,0.029,0.07,0.039,0.1,0.039c0.03,0,0.08,0.021,0.14,0.051c0,0.029,0.02,0.06,0.05,0.09c0.06,0.029,0.11,0.05,0.14,0.05
						h0.42v0.28c0.03,0,0.05,0.02,0.05,0.05h0.04v0.09c0,0.03,0.02,0.05,0.05,0.05c0,0.03,0.02,0.061,0.05,0.09v0.24
						c0.03,0.03,0.04,0.061,0.04,0.09l0.05,0.051c0.03,0,0.05,0.02,0.05,0.039c0.03,0.041,0.05,0.07,0.05,0.101l0.09,0.09v0.05
						c0.03,0,0.05,0.01,0.05,0.051c0,0.029,0.03,0.06,0.09,0.09c0,0.029,0.02,0.05,0.05,0.05c0.03,0.03,0.06,0.04,0.09,0.04
						c0,0.029,0.03,0.07,0.09,0.1c0.03,0.03,0.07,0.061,0.1,0.09h0.19v0.051c0.03,0.029,0.06,0.039,0.09,0.039
						c0,0.041,0.02,0.07,0.05,0.101c0.06,0.03,0.11,0.04,0.14,0.04c0.06,0.029,0.12,0.05,0.18,0.05l0.05,0.101
						c0.1,0.029,0.17,0.039,0.24,0.039v0.051h0.09c0.03,0.029,0.06,0.039,0.09,0.039c0.07,0.041,0.1,0.07,0.1,0.101l0.05,0.05
						c0.03,0.03,0.06,0.061,0.09,0.09v0.09l0.05,0.051c0,0.029,0.01,0.05,0.04,0.05c0.04,0.03,0.07,0.06,0.1,0.09v0.101
						c0.03,0,0.05,0.01,0.05,0.039c0.03,0.03,0.04,0.061,0.04,0.101v0.09c0.03,0,0.05,0.021,0.05,0.05l0.05,0.04v0.05
						c-0.04,0.03-0.05,0.061-0.05,0.09l-0.05,0.051v0.188c0,0.03-0.01,0.062-0.04,0.091c0,0.041-0.02,0.069-0.05,0.101v0.229
						c-0.03,0.029-0.06,0.051-0.1,0.051v0.188l-0.04,0.04v0.102c0,0.027-0.02,0.059-0.05,0.09v0.24c0,0.027-0.02,0.059-0.05,0.09
						v0.09c0,0.029-0.01,0.049-0.04,0.049c0,0.031-0.02,0.063-0.05,0.102v0.09c-0.03,0-0.06,0.02-0.1,0.051v0.229
						c0,0.029-0.01,0.061-0.04,0.102c0,0.029-0.02,0.059-0.05,0.09c0,0.029-0.01,0.049-0.05,0.049v0.23l-0.04,0.051v0.188
						c-0.03,0.031-0.05,0.063-0.05,0.092c-0.03,0.029-0.06,0.051-0.09,0.051v0.139c0,0.031-0.02,0.063-0.05,0.09
						c0,0.031-0.01,0.053-0.05,0.053v0.229c-0.03,0.039-0.06,0.049-0.09,0.049v0.143l-0.05,0.049c0,0.031-0.01,0.061-0.04,0.1v0.131
						c-0.03,0.039-0.05,0.07-0.05,0.102v0.18c0,0.029-0.01,0.07-0.05,0.1c0,0.029-0.01,0.051-0.04,0.051
						c0,0.029-0.02,0.061-0.05,0.09c0,0.031-0.02,0.041-0.05,0.041v0.289c0,0.029-0.01,0.041-0.04,0.041
						c0,0.039-0.02,0.068-0.05,0.1v0.279c0.03,0.031,0.06,0.061,0.09,0.1v0.23c0,0.029,0.02,0.061,0.05,0.1
						c0.03,0.031,0.05,0.063,0.05,0.09h0.14v0.102c0.03,0.029,0.06,0.061,0.09,0.09c0.03,0.031,0.06,0.051,0.1,0.051
						c0.03,0.029,0.07,0.039,0.14,0.039l0.09,0.102c0.06,0.029,0.13,0.051,0.19,0.051c0.06,0.027,0.11,0.039,0.14,0.039h0.14
						c0.06,0.029,0.14,0.051,0.24,0.051v0.039c0.09,0.041,0.17,0.051,0.23,0.051h1.88c0.03,0,0.05-0.01,0.05-0.051
						c0.03,0,0.06-0.01,0.09-0.039l0.05,0.039c0.06,0.041,0.12,0.051,0.18,0.051h0.05c0.03-0.031,0.06-0.051,0.1-0.051
						c0-0.029,0.01-0.061,0.04-0.09l0.05-0.051h0.14c0.03-0.029,0.06-0.039,0.09-0.039v-0.102l0.05-0.049v-0.23
						c0.03-0.029,0.06-0.061,0.09-0.09v-0.189c0.04,0,0.07-0.021,0.1-0.051v-0.801c0.03-0.029,0.06-0.059,0.09-0.09v-0.24
						c0.03-0.027,0.07-0.059,0.1-0.09v-0.049c0.03-0.031,0.04-0.061,0.04-0.09v-0.281c0.03-0.029,0.07-0.059,0.1-0.09v-0.049
						L28.311,19v-0.23c0.03,0,0.05-0.02,0.05-0.049v-0.281c0.03-0.029,0.06-0.059,0.09-0.1c0-0.029,0.02-0.061,0.05-0.09v-0.102
						l0.05-0.039c0-0.031,0.01-0.061,0.05-0.1v-0.143c0.03-0.027,0.04-0.059,0.04-0.09l0.05-0.049v-0.281
						c0.03-0.027,0.05-0.059,0.05-0.1c0.03-0.029,0.04-0.061,0.04-0.09v-0.051c0.03-0.029,0.07-0.039,0.1-0.039v-0.279l0.04-0.051
						c0.03-0.039,0.05-0.07,0.05-0.102v-0.09c0.03-0.029,0.06-0.049,0.09-0.049c0-0.031,0.02-0.063,0.05-0.09v-0.282h0.05
						l0.04-0.049H30c0.03-0.03,0.06-0.051,0.1-0.051c0.15-0.029,0.31-0.061,0.47-0.091h0.09l0.09-0.09c0.03,0,0.05-0.021,0.05-0.05
						c0.03-0.03,0.05-0.061,0.05-0.1v-0.041h0.04l0.04-0.1c0-0.029,0.02-0.061,0.05-0.09v-0.141c-0.03-0.029-0.05-0.06-0.05-0.09
						v-0.14c-0.03-0.04-0.06-0.069-0.09-0.101l-0.14-0.139c-0.03-0.031-0.05-0.061-0.05-0.091c-0.03-0.03-0.04-0.069-0.04-0.101
						c0-0.029,0.01-0.069,0.04-0.139v-0.75h0.1c0.35-0.021,0.7-0.031,1.06-0.041c0.21-0.01,0.42-0.01,0.63-0.01
						c-0.03,0.01-0.07,0.02-0.1,0.051l-0.04,0.049v0.07c0,0.01,0,0.01,0,0.02c-0.03,0.031-0.05,0.061-0.05,0.091v0.05
						c-0.06,0-0.11,0.02-0.14,0.051c-0.03,0.029-0.07,0.049-0.1,0.049c0,0.03-0.01,0.061-0.04,0.09l-0.1,0.09v0.191
						c0,0.029,0.02,0.069,0.05,0.1h-0.05l-0.04,0.039c0,0.031-0.02,0.07-0.05,0.101v1.169c0.03,0.03,0.05,0.061,0.05,0.092
						c0,0.028,0.01,0.049,0.04,0.049v11c0,0.029,0.02,0.061,0.05,0.1c0.03,0.031,0.06,0.041,0.09,0.041h0.29
						c0.03,0.029,0.06,0.07,0.09,0.102c0.03,0.027,0.05,0.059,0.05,0.09c0.06,0.027,0.12,0.049,0.18,0.049
						c0.07,0.031,0.11,0.041,0.15,0.041h8.73c0.061,0,0.109-0.01,0.141-0.041c0.029,0,0.059-0.021,0.09-0.049
						c0-0.031,0.02-0.063,0.049-0.09v-0.521l0.1-0.1V15.386c-0.027,0-0.066-0.021-0.1-0.051c-0.029,0-0.049-0.02-0.049-0.05
						c-0.061-0.03-0.111-0.05-0.141-0.05h-0.041c-0.029,0-0.068-0.01-0.1-0.04c-0.029,0-0.061-0.021-0.09-0.05
						c-0.029-0.061-0.07-0.11-0.102-0.141c-0.029-0.06-0.039-0.129-0.039-0.189c-0.07-0.03-0.11-0.08-0.141-0.141v-0.799h-0.05
						c-0.03-0.031-0.05-0.061-0.05-0.091c-0.029-0.03-0.08-0.069-0.141-0.101h-0.189v-0.84H50.98v0.75
						c0.039,0.031,0.068,0.051,0.1,0.051c0,0.029,0.01,0.061,0.039,0.09c0.07,0.029,0.111,0.05,0.15,0.05h0.09
						c0.031,0.03,0.051,0.06,0.051,0.091h0.469c0.15-0.031,0.301-0.061,0.422-0.091h0.889l0.051-0.05
						c0-0.04,0.021-0.051,0.049-0.051h0.191v0.051c0.059,0.029,0.119,0.04,0.189,0.04h0.09l0.051-0.04c0.09,0,0.17-0.02,0.229-0.051
						h0.104c0-0.029,0.01-0.049,0.039-0.049c0.027,0,0.051-0.01,0.051-0.041c0.029-0.029,0.049-0.069,0.049-0.1l0.051-0.039
						c0.02,0,0.039-0.021,0.039-0.051v-0.23c0.031,0,0.061-0.02,0.102-0.049c0.09-0.031,0.199-0.061,0.318-0.101
						c0.031,0,0.08-0.011,0.15-0.04l0.041-0.051c0.029-0.029,0.049-0.059,0.049-0.09c0.031-0.029,0.041-0.069,0.041-0.1v-0.279
						c0.07,0,0.119-0.01,0.15-0.051l0.09,0.1v0.191c0.027,0,0.049,0.01,0.049,0.039c0.031,0.03,0.051,0.07,0.051,0.1v0.181
						c0.029,0.04,0.061,0.069,0.09,0.101l0.039,0.049c0.07,0.031,0.131,0.041,0.191,0.041l0.049,0.1c0.031,0,0.061,0.01,0.09,0.05
						h-0.09v0.319c0.031,0.031,0.051,0.07,0.051,0.101c0.02,0.03,0.039,0.06,0.039,0.091v0.33c-0.029,0.029-0.039,0.059-0.039,0.09
						c0,0.029-0.02,0.049-0.051,0.049v0.19c0.031,0,0.061,0.011,0.09,0.05c-0.029,0-0.039,0.01-0.039,0.041
						c0,0.029-0.02,0.069-0.051,0.1v0.56l0.09,0.091v-0.041h0.471v2.34l-0.051,0.051c-0.029,0.029-0.059,0.049-0.09,0.049
						c0,0.031-0.01,0.063-0.049,0.09v0.143H56.01c-0.029,0-0.039,0.02-0.039,0.049v10.65c0.029,0.029,0.039,0.061,0.039,0.1v0.09
						l0.051,0.051c0.029,0.029,0.049,0.061,0.049,0.09l0.041,0.051v0.09c0.039,0.041,0.049,0.07,0.049,0.1
						c0.031,0.031,0.08,0.063,0.141,0.09h0.143c0,0.041,0.02,0.07,0.049,0.102c0.031,0,0.08,0.01,0.141,0.041v0.1h0.051v2.01H56.67
						c-0.061,0.029-0.109,0.051-0.141,0.051c-0.029,0.029-0.07,0.051-0.09,0.051v0.18c0.02,0.029,0.061,0.049,0.09,0.049
						c0.031,0,0.08,0.012,0.141,0.051h1.131c0.029-0.029,0.078-0.051,0.139-0.051c0.031,0,0.041-0.02,0.041-0.049
						c0-0.031,0.02-0.061,0.049-0.09C58,31.779,57.98,31.75,57.98,31.721l-0.041-0.051c-0.07,0-0.109-0.021-0.139-0.051V29.59
						c0.029-0.029,0.059-0.061,0.09-0.09c0-0.029,0.02-0.061,0.049-0.092h0.52c0.031-0.027,0.041-0.068,0.041-0.1v-0.09
						c0-0.029-0.01-0.061-0.041-0.09c-0.039-0.039-0.066-0.051-0.1-0.051c0-0.029,0.02-0.068,0.051-0.1v-10.4l0.039-0.051
						c0.031-0.029,0.051-0.059,0.051-0.09v-0.139c0-0.041-0.02-0.07-0.051-0.102H58.41c-0.031,0-0.051-0.01-0.051-0.051v-0.039
						c-0.029-0.031-0.049-0.061-0.049-0.1l-0.041-0.041v-0.102c-0.029-0.027-0.063-0.039-0.102-0.039l-0.041-0.051H57.98v-0.049
						c0-0.031,0.02-0.061,0.049-0.09v-2.311h0.051c0.061,0.04,0.109,0.051,0.141,0.051H58.5c0.029-0.031,0.08-0.051,0.15-0.051
						v-0.04l0.039-0.05v-3.051c0-0.029,0.031-0.059,0.1-0.1l-0.049-0.039v-0.051c-0.031-0.029-0.051-0.061-0.051-0.09v-0.141H58.6
						v-0.139h-0.049c0-0.041-0.012-0.07-0.051-0.101c-0.029-0.03-0.061-0.04-0.09-0.04c-0.061,0-0.109-0.02-0.141-0.051h-0.049
						c-0.031-0.029-0.063-0.049-0.094-0.049h-0.1v-0.94c0.041-0.03,0.051-0.06,0.051-0.09c0.01-0.011,0.01-0.011,0.021-0.021
						c0.02-0.02,0.027-0.05,0.027-0.08V9.796h1.031c0.18-0.011,0.369-0.011,0.563-0.011c6.01-0.03,12.049-0.06,18.129-0.09h0.371
						l0.049-0.05c0.811,0,1.641-0.01,2.488-0.04h0.053c0.027,0,0.039-0.021,0.039-0.05h0.1V9.505h0.09
						c0-0.029,0.021-0.06,0.051-0.09c0.029,0,0.039-0.02,0.039-0.05s0.021-0.05,0.051-0.05v-0.18l-0.051-0.051h0.141l0.1-0.05
						c0.031-0.03,0.051-0.06,0.051-0.09c0.029-0.03,0.039-0.06,0.039-0.09v-0.19c-0.027,0-0.039-0.02-0.039-0.05l0.053-0.05V8.095
						c-0.031,0-0.07-0.01-0.104-0.039c-0.029-0.03-0.039-0.061-0.039-0.09c-0.041-0.041-0.068-0.051-0.1-0.051
						s-0.041-0.02-0.041-0.05c-0.07-0.06-0.119-0.11-0.15-0.14v-0.19c-0.059-0.03-0.119-0.079-0.188-0.14
						c-0.029-0.061-0.063-0.11-0.09-0.141c-0.092-0.029-0.172-0.08-0.23-0.14c-0.09-0.04-0.189-0.069-0.279-0.101H57.76V6.826
						c-0.029,0-0.07-0.01-0.1-0.04c-0.031-0.03-0.041-0.069-0.041-0.101c-0.029-0.029-0.08-0.059-0.139-0.09
						c-0.041,0-0.07-0.02-0.104-0.049l-0.09-0.041v-1.32l-0.049-0.039c-0.031,0-0.061-0.02-0.09-0.051v-0.1
						c-0.031,0-0.051-0.01-0.051-0.039c-0.029,0-0.049-0.021-0.049-0.051c-0.061-0.029-0.121-0.061-0.191-0.09H56.82
						c0-0.03-0.021-0.051-0.051-0.051h-0.049V4.066c-0.031,0-0.041-0.02-0.041-0.051l-0.053-0.049
						c-0.059-0.031-0.129-0.061-0.188-0.09v0.049c-0.029,0-0.08,0.01-0.141,0.041c0,0.029-0.02,0.049-0.051,0.049l-0.041-0.049
						c-0.039-0.031-0.08-0.061-0.146-0.09h-0.184v0.049h-0.1c0,0.031-0.01,0.041-0.049,0.041c-0.211,0.039-0.42,0.049-0.602,0.049
						c-0.039,0.031-0.068,0.051-0.1,0.051H54.98l-0.041,0.04v0.101h-0.102v0.049l-0.039,0.041c0,0.029-0.02,0.069-0.051,0.1
						c0,0.029-0.02,0.061-0.051,0.09c-0.029,0.029-0.059,0.05-0.09,0.05v0.091c-0.07,0-0.109,0.02-0.139,0.049
						c-0.031,0.031-0.07,0.041-0.102,0.041c0,0.029-0.02,0.049-0.039,0.049c-0.041,0.031-0.07,0.061-0.1,0.101
						c0,0.03-0.021,0.06-0.041,0.091c0,0.029-0.021,0.049-0.049,0.049v0.141c0.027,0,0.059,0.01,0.09,0.039l0.049,0.051v0.8
						l-0.049,0.05h-0.09v0.01c-0.014,0.031-0.021,0.051-0.053,0.08c-0.068,0.031-0.107,0.051-0.141,0.051
						c-0.01,0-0.01,0.01-0.02,0.01c-0.051,0.02-0.09,0.04-0.119,0.04c-0.041,0-0.07,0.01-0.102,0.04c0,0.029-0.01,0.061-0.039,0.09
						c0,0.04-0.02,0.07-0.051,0.1v0.371H46.67V6.505c0.09-0.029,0.17-0.06,0.23-0.1h0.148c0.029,0,0.039-0.01,0.039-0.04l0.053-0.05
						v-0.04c0.027,0,0.049-0.021,0.049-0.05h1.59c0.031,0,0.051-0.02,0.051-0.051c0.029,0,0.049-0.02,0.049-0.049l0.041-0.031
						l0.01-0.02h0.141c0.059,0,0.109-0.01,0.139-0.04c0-0.03,0.014-0.069,0.041-0.101c0.039-0.029,0.07-0.039,0.102-0.039v-3.34
						c-0.029-0.03-0.063-0.061-0.102-0.09h-0.041c-0.039-0.031-0.08-0.061-0.139-0.09v0.039c-0.07,0-0.131,0.02-0.191,0.051H48.83
						v0.049c-0.029,0-0.061,0.011-0.09,0.041c-0.031-0.03-0.051-0.061-0.051-0.09c-0.029,0-0.063-0.021-0.09-0.051
						c-0.029-0.029-0.063-0.039-0.092-0.039V2.276c-0.037-0.03-0.078-0.04-0.148-0.04c-0.061,0-0.109-0.02-0.139-0.051
						c-0.031,0-0.063-0.02-0.094-0.049c-0.027-0.03-0.049-0.061-0.049-0.09c-0.061-0.101-0.141-0.141-0.229-0.141l-4.893-1.32
						c-0.059-0.029-0.119-0.039-0.188-0.039c-0.119,0-0.209,0.029-0.279,0.09c-0.061,0.029-0.09,0.08-0.09,0.14l-0.051-0.05
						c-0.029,0-0.08-0.01-0.143-0.041h-0.09l-0.049-0.049H41.93c-0.029,0-0.061-0.021-0.1-0.051c-0.061,0-0.1-0.01-0.141-0.039
						h-0.182c0.031-0.101,0.012-0.19-0.049-0.291c-0.061-0.09-0.16-0.149-0.28-0.189l-0.28-0.09
						C40.868-0.036,40.836-0.038,40.81-0.038L40.81-0.038z M47.42,4.483l-0.051-0.05v-0.18h0.051V4.483L47.42,4.483z M56.721,5.753
						c0-0.041-0.021-0.07-0.051-0.101V5.423h0.051V5.753L56.721,5.753z M44.51,6.033c0.119-0.029,0.23-0.05,0.33-0.05
						c-0.029,0-0.051,0.021-0.051,0.05H44.51L44.51,6.033z M54.65,6.542l0.049-0.039v0.039H54.65L54.65,6.542z M54.42,6.733v-0.04
						c0.029-0.01,0.051-0.03,0.08-0.04c0.029-0.021,0.07-0.04,0.109-0.06c0,0.029-0.021,0.049-0.07,0.08
						c-0.01,0.01-0.02,0.01-0.029,0.02C54.48,6.693,54.449,6.703,54.42,6.733L54.42,6.733z M3.71,11.382v-0.039
						c-0.03-0.07-0.05-0.11-0.05-0.141c-0.02-0.01-0.04-0.02-0.05-0.029c-0.04-0.041-0.07-0.07-0.09-0.121v-0.369
						c-0.03-0.061-0.05-0.131-0.05-0.19c-0.03-0.03-0.06-0.08-0.09-0.14c0-0.061-0.02-0.11-0.05-0.141v-0.14
						c-0.03-0.069-0.05-0.11-0.05-0.14V9.792c0-0.039-0.01-0.08-0.04-0.14V9.552h7.84c-0.06,0-0.11,0.021-0.14,0.051
						c-0.03,0.029-0.08,0.06-0.14,0.09c0,0.029-0.02,0.061-0.05,0.1H10.7c-0.06,0-0.11,0.01-0.14,0.041
						c-0.03,0.029-0.08,0.069-0.14,0.1c-0.03,0.029-0.06,0.039-0.09,0.039c-0.07,0.031-0.11,0.07-0.14,0.101
						c-0.03,0.03-0.07,0.06-0.1,0.09c-0.03,0.03-0.06,0.05-0.09,0.05l-0.09,0.09c-0.04,0.041-0.08,0.051-0.14,0.051
						c-0.04,0.029-0.05,0.06-0.05,0.09c-0.03,0-0.06,0.02-0.1,0.05c0,0.03-0.01,0.06-0.04,0.091c-0.06,0.039-0.11,0.069-0.14,0.1
						h-0.1l-0.09,0.09c0,0.029-0.02,0.061-0.05,0.1H9.16c-0.04,0.03-0.08,0.061-0.15,0.09c0,0.021-0.01,0.03-0.02,0.041
						c-0.02,0.02-0.04,0.039-0.07,0.049c-0.02,0.011-0.04,0.021-0.06,0.041c-0.03,0.02-0.06,0.039-0.08,0.06l-0.05,0.05
						c-0.03,0.03-0.08,0.061-0.14,0.09c-0.03,0.03-0.05,0.061-0.05,0.09c-0.03,0-0.06,0.021-0.09,0.051
						c-0.03,0.029-0.06,0.05-0.09,0.05c-0.04,0.03-0.05,0.06-0.05,0.09c-0.06,0.03-0.11,0.05-0.14,0.05h-0.1
						c-0.03,0.03-0.08,0.061-0.14,0.09c-0.03,0.03-0.06,0.061-0.09,0.101c-0.03,0.03-0.06,0.06-0.1,0.09
						c-0.06,0.03-0.09,0.06-0.09,0.09c-0.06,0-0.11,0.021-0.14,0.05c-0.03,0-0.06,0.01-0.1,0.051l-0.09,0.09
						c-0.03,0.029-0.06,0.05-0.09,0.05l-0.05,0.04c-0.06,0.029-0.14,0.07-0.23,0.1c0,0.03-0.02,0.061-0.05,0.09
						c-0.03,0.03-0.06,0.051-0.1,0.051l-0.04,0.05c0,0.03-0.02,0.06-0.05,0.09l-0.19,0.19c-0.03-0.07-0.09-0.11-0.19-0.141
						c-0.09,0-0.18,0.03-0.28,0.09l-1.22,0.891l-0.7-2.061c-0.04-0.06-0.08-0.119-0.13-0.16c-0.02-0.029-0.04-0.05-0.06-0.08H3.71
						L3.71,11.382z M21.97,11.573v-0.09h0.05v0.09H21.97L21.97,11.573z M25.12,14.433c-0.03,0-0.06-0.01-0.1-0.041h0.1V14.433
						L25.12,14.433z M58.27,15.003c0.031-0.031,0.041-0.061,0.041-0.101v0.101H58.27L58.27,15.003z M56.391,14.953v-0.05l0.049,0.05
						H56.391L56.391,14.953z M30.14,15.472c0.03-0.029,0.07-0.08,0.1-0.139v0.039c0.03,0.03,0.04,0.07,0.04,0.1H30.14L30.14,15.472z
						"/>
				</g>
			</g>
		</g>
	</g>
</g>
</svg>
