<?xml version="1.0" encoding="utf-8"?>
<!-- Generator: Adobe Illustrator 16.0.0, SVG Export Plug-In . SVG Version: 6.00 Build 0)  -->
<!DOCTYPE svg PUBLIC "-//W3C//DTD SVG 1.1//EN" "http://www.w3.org/Graphics/SVG/1.1/DTD/svg11.dtd">
<svg version="1.1" id="图层_1" xmlns="http://www.w3.org/2000/svg" xmlns:xlink="http://www.w3.org/1999/xlink" x="0px" y="0px"
	 width="89.667px" height="32px" viewBox="0 0 89.667 32" enable-background="new 0 0 89.667 32" xml:space="preserve">
<rect fill="none" width="89.667" height="32"/>
<g>
	<rect fill="none" width="89.667" height="32"/>
	<g>
		<g>
			<g>
				
					<linearGradient id="SVGID_1_" gradientUnits="userSpaceOnUse" x1="-514.7031" y1="26.0176" x2="-515.7418" y2="26.9839" gradientTransform="matrix(88.854 0 0 31.029 45818.0273 -808.2432)">
					<stop  offset="0.2512" style="stop-color:#FF0000"/>
					<stop  offset="0.5665" style="stop-color:#FFD400"/>
					<stop  offset="0.8276" style="stop-color:#000000"/>
				</linearGradient>
				<path fill="url(#SVGID_1_)" d="M88.933,12.16v-2.11h-4.489v0.31h-8.65V10.23h2.06V9.6h-0.899V9.561l0.09-0.051V9.24h0.9V8.62
					h-0.091V8.439h-1.84V8.35h-0.22v-0.99h-0.14c-0.09,0-0.19-0.02-0.311-0.049h-0.359V4.71h-0.091V4.35h-0.31v-0.99
					c-0.04,0-0.06-0.01-0.09-0.039h-0.32V3l-0.04-0.04h-0.14V2.91h-0.94v4.76h-0.319v0.27h-0.351V7.721h-26.29v-0.41h-6.1v-0.4
					h-1.52V6.77h0.04V6.73c0-0.03,0.02-0.041,0.05-0.041V6.641c0-0.031,0.01-0.051,0.04-0.051l0.05-0.08l0.04-0.05V6.42
					c0.03,0,0.05-0.02,0.05-0.05h0.04V6.189h0.05V6.1h0.04V5.971h0.05l0.04-0.051V5.83h0.05V5.79h0.04V5.65
					c0-0.03,0.02-0.041,0.05-0.041V5.561h0.04v-0.09h0.05V5.38h0.04V5.34c0-0.029,0.02-0.05,0.05-0.05V5.16
					c0.03,0,0.04-0.01,0.04-0.04V5.07h0.05V4.939l0.04-0.049V4.85h0.05V4.8c0-0.03,0.01-0.04,0.04-0.04V4.67h0.04V4.58h0.05V4.439
					h0.04V4.4l0.05-0.051V4.221c0.03,0,0.04-0.021,0.04-0.051c0.03,0,0.05-0.01,0.05-0.04l0.04-0.09L39.863,4V3.95h0.04V3.859
					l0.05-0.049V3.77l0.04-0.039V3.63l0.05-0.04V3.55h0.04V3.46c0-0.03,0.02-0.05,0.05-0.05V3.37c0-0.03,0.01-0.05,0.04-0.05v-0.18
					h0.05V3.05c0.03-0.03,0.06-0.04,0.09-0.04V2.2h-0.45V2.02c-0.03,0-0.05-0.01-0.05-0.039v-0.5h-0.62v0.629h-3.05v0.451h-4.62V1.8
					h-0.63v0.04h-0.85v0.051h-0.09v0.67c-0.09-0.031-0.2-0.031-0.32,0V2.43l-0.04-0.05V2.2h-0.63V2.52h-1.08V0.67h-0.62v0.141h-0.45
					v0.85l-0.05,0.05v0.181l-0.04,0.039h-0.05v0.09h-0.09v0.041c-0.03,0-0.04,0.02-0.04,0.049h-0.05V2.16l-0.04,0.04v0.18h-0.09
					v3.899h0.09V6.6h0.63V6.51h0.04V6.1h1.79V6.37l0.05,0.05V6.6h0.63c0-0.029,0.01-0.05,0.04-0.05V6.1h0.32v0.68l0.04,0.041v0.05
					c0.03,0,0.04,0.01,0.04,0.04v0.4h-6.54V7.23h-0.63v0.129c-0.03,0.031-0.06,0.041-0.09,0.041v0.41h-0.14l-0.09,0.09
					c-0.03,0.029-0.06,0.039-0.09,0.039c-0.03,0-0.05,0.021-0.08,0.051c-0.04,0-0.07,0.01-0.1,0.039V8.08
					c-0.02,0-0.04,0.01-0.04,0.04h-0.04l-0.05,0.05h-0.04v0.04l-0.23,0.229h-0.05c-0.02,0-0.04,0.011-0.04,0.041l-0.09,0.039V8.57
					c-0.03,0-0.04,0.01-0.04,0.05h-0.05c0,0.03-0.01,0.04-0.04,0.04l-0.09,0.09c0,0.029-0.02,0.04-0.05,0.04
					c0,0.03-0.01,0.05-0.04,0.05c0,0.03-0.02,0.04-0.05,0.04l-0.09,0.091V9.02h-0.04c-0.03,0-0.05,0.01-0.05,0.041v0.049h-0.04
					l-0.05,0.041c-0.03,0.029-0.06,0.05-0.09,0.05v0.04l-0.09,0.05l-0.04,0.04h-0.05l-0.04,0.09h-0.04l-0.05,0.09v0.051h-0.09V9.6
					c0,0.03-0.01,0.051-0.04,0.051h-0.05l-0.04,0.039c0,0.031-0.02,0.041-0.05,0.041H1.874v-0.67L1.824,9.02V8.971h-0.09V8.88
					c-0.45-0.03-0.89-0.04-1.34-0.04v0.04c-0.03,0.03-0.06,0.05-0.09,0.05V9.65c-0.03,0.029-0.05,0.06-0.05,0.09v0.939l-0.04,0.051
					c0,0.029-0.02,0.039-0.05,0.039v2.82l0.05,0.051c0,0.029,0.01,0.06,0.04,0.09v1.52c0,0.029,0.02,0.061,0.05,0.09v0.721h0.09
					v0.81l0.04,0.04v0.05c0.03,0,0.05,0.01,0.05,0.04v0.5l0.04,0.04v0.05c0.03,0.03,0.05,0.061,0.05,0.09v0.58
					c0,0.03,0.01,0.04,0.04,0.04v0.54c0.06,0,0.09,0.021,0.09,0.04v0.9l0.05,0.05v0.04l0.05,0.05v0.36c0,0.02,0.01,0.04,0.04,0.04
					c0.03,0.029,0.05,0.06,0.05,0.09v0.31c0.03,0.03,0.04,0.061,0.04,0.09v0.54h0.09v0.23c0.03,0.03,0.05,0.06,0.05,0.09
					c0.03,0,0.04,0.01,0.04,0.04v0.36l0.09,0.04v0.319l0.04,0.04v0.32c0.03,0,0.06,0.01,0.09,0.04v0.4c0,0.029,0.02,0.05,0.05,0.05
					c0,0.029,0.01,0.06,0.04,0.09v0.09c0,0.03,0.03,0.04,0.09,0.04h0.36c0.3,0,0.62,0.02,0.94,0.05h0.32v-0.27
					c0.03-0.03,0.06-0.05,0.09-0.05V23.1c0.03-0.029,0.04-0.06,0.04-0.09v-0.13c0.06,0,0.09-0.02,0.09-0.05v-0.09
					c0-0.03,0.02-0.061,0.05-0.09v-0.04l0.04-0.051c0-0.02,0.02-0.06,0.05-0.09l0.04-0.04c0-0.029,0.01-0.05,0.04-0.05v-0.09
					c0-0.021,0.03-0.04,0.09-0.04v-0.09c0.03-0.03,0.05-0.061,0.05-0.09c0.03,0,0.04-0.011,0.04-0.051V21.98
					c0.03-0.03,0.06-0.061,0.09-0.091v-0.05c0.03-0.03,0.08-0.04,0.14-0.04v-0.13c0.03,0,0.04-0.02,0.04-0.05
					c0.03-0.03,0.05-0.061,0.05-0.09v-0.04c0.06,0,0.1-0.021,0.13-0.05h0.05V21.35c0.03,0,0.04-0.01,0.04-0.04
					c0-0.029,0.02-0.05,0.05-0.05c0.03-0.029,0.04-0.06,0.04-0.09c0.03-0.03,0.06-0.04,0.09-0.04v-0.09h0.09
					c0-0.03,0.02-0.06,0.05-0.09v-0.04c0.02-0.03,0.05-0.05,0.08-0.05c0-0.03,0.02-0.061,0.05-0.091c0-0.029,0.02-0.05,0.04-0.05
					c0-0.02,0.02-0.05,0.05-0.09c0.03,0,0.04-0.01,0.04-0.04l0.09-0.09v-0.04c0.03-0.03,0.06-0.06,0.09-0.09l0.05-0.05
					c0.03-0.03,0.04-0.061,0.04-0.09c0.03,0,0.06-0.011,0.09-0.04l0.05-0.051c0-0.029,0.03-0.04,0.09-0.04
					c0-0.029,0.01-0.06,0.04-0.09l0.09-0.09c0.03-0.03,0.05-0.06,0.05-0.09c0.03,0,0.04-0.021,0.04-0.05
					c0.03,0,0.06-0.011,0.09-0.04h0.06v-0.05c0-0.03,0.01-0.061,0.04-0.091h0.09v-0.04l0.05-0.05c0.03-0.029,0.06-0.06,0.09-0.09
					l0.04-0.04c0.03-0.03,0.08-0.05,0.14-0.05c0.03,0,0.04-0.01,0.04-0.04V19.2h0.09v-0.04c0.03,0,0.04-0.021,0.04-0.05
					c0.03,0,0.05-0.021,0.05-0.051c0-0.02,0.03-0.04,0.09-0.04c0.03,0,0.07-0.02,0.13-0.05v-0.09c0.03,0,0.06-0.01,0.09-0.04
					c0.06,0,0.11-0.01,0.14-0.05c0.03,0,0.04-0.01,0.04-0.04c0.03-0.03,0.06-0.04,0.09-0.04c0.06,0,0.12-0.02,0.18-0.05v-0.13
					c0.06,0,0.12-0.021,0.18-0.05l0.05-0.04h0.09V20.1h1.25v-0.09l0.14-0.14v-0.04c0.03-0.03,0.06-0.061,0.09-0.09v-0.05
					c0.03-0.03,0.06-0.061,0.08-0.091c0.03,0,0.06-0.01,0.09-0.04v-0.05c0.03-0.029,0.08-0.04,0.14-0.04
					c0-0.029,0.01-0.05,0.04-0.05c0-0.02,0.02-0.05,0.05-0.09l0.09-0.04c0-0.03,0.01-0.06,0.04-0.09c0.03,0,0.08-0.01,0.14-0.04
					l0.04-0.05c0-0.03,0.02-0.061,0.04-0.091h0.14c0-0.02,0.03-0.06,0.09-0.09c0-0.02,0.01-0.04,0.05-0.04
					c0-0.029,0.02-0.06,0.08-0.09l0.05-0.05c0.03-0.02,0.07-0.04,0.13-0.04v-0.09c0.03,0,0.06-0.01,0.09-0.04s0.08-0.05,0.14-0.05
					c0-0.03,0.03-0.04,0.09-0.04V18.4c0.03,0,0.06-0.021,0.09-0.051c0-0.029,0.01-0.04,0.04-0.04c0.03-0.029,0.06-0.06,0.09-0.09
					h0.18c0-0.029,0.01-0.05,0.04-0.05c0-0.03,0.02-0.06,0.05-0.09c0.03,0,0.07-0.01,0.13-0.04c0-0.03,0.03-0.05,0.09-0.05
					c0-0.03,0.02-0.061,0.05-0.09h0.18c0-0.03,0.01-0.04,0.04-0.04l0.05-0.051c0.03-0.029,0.06-0.06,0.09-0.09
					c0-0.029,0.01-0.04,0.04-0.04h0.05v0.49h1.12c0.15-0.03,0.28-0.04,0.4-0.04v-0.14l0.04-0.04V17.68h0.09v-0.41l0.05-0.039V17.18
					h0.94c0.09-0.02,0.16-0.04,0.22-0.04v-0.05h0.09v0.05h0.63v-0.27h0.09v-0.899h2.96V15.84h0.22v-0.63l-0.04-0.04v-1.529h0.31
					V13.55h0.5v1.841h0.22v0.18h0.36c0.03,0,0.07,0.01,0.13,0.039c0.07,0,0.12,0.021,0.18,0.051h0.18v0.04
					c0.03,0,0.06,0.021,0.09,0.05h0.09c0.03,0,0.08,0.01,0.14,0.04h0.09v0.05h0.04c0.09,0,0.18,0.01,0.27,0.04
					c0.03,0,0.06,0.021,0.09,0.04c0.06,0,0.11,0.02,0.14,0.051h0.04c0.03,0,0.04,0.01,0.04,0.049c0.03,0,0.06,0.01,0.09,0.041h0.05
					c0.03,0,0.06,0.02,0.09,0.039h0.04v0.051l0.05,0.039c0.03,0,0.04,0.021,0.04,0.051l0.18,0.18h0.05v0.04l0.03,0.05v0.05h0.05
					v0.131c0.03,0,0.06,0.02,0.09,0.05v0.22h0.04v0.4c0,0.029-0.01,0.05-0.04,0.05v0.22c-0.03,0-0.06,0.021-0.09,0.05v0.181
					c0,0.029-0.02,0.04-0.05,0.04l-0.04,0.05v0.09c0,0.02-0.02,0.04-0.05,0.04l-0.04,0.05v0.09h-0.04v0.09h-0.05l-0.04,0.04v0.091
					c0,0.029-0.02,0.04-0.05,0.04c0,0.039-0.01,0.05-0.04,0.05v0.04l-0.05,0.05c-0.03,0-0.04,0.01-0.04,0.04l-0.05,0.05v0.04h-0.04
					v0.05h-0.05v0.04c0,0.03-0.01,0.05-0.04,0.05l-0.05,0.04v0.051c0,0.029-0.01,0.039-0.04,0.039l-0.09,0.091h-0.04
					c0,0.029-0.02,0.05-0.05,0.05l-0.04,0.04c0,0.03-0.02,0.05-0.05,0.05v0.04l-0.13,0.13v0.05c-0.03,0-0.05,0.011-0.05,0.05h-0.04
					l-0.05,0.04v0.051h-0.04c0,0.02-0.02,0.04-0.05,0.04v0.09h-0.04v0.04l-0.05,0.05c-0.03,0-0.04,0.01-0.04,0.04v0.05
					c-0.03,0-0.06,0.01-0.09,0.04v0.05c0,0.03-0.02,0.04-0.05,0.04c0,0.03-0.01,0.05-0.04,0.05l-0.04,0.04
					c0,0.03-0.02,0.051-0.05,0.051v0.04c-0.03,0-0.05,0.02-0.05,0.05l-0.04,0.04c-0.03,0-0.04,0.02-0.04,0.05l-0.05,0.09h-0.04
					c0,0.03-0.02,0.04-0.05,0.04v0.05c-0.03,0.03-0.06,0.04-0.09,0.04v0.04h-0.04v0.05c-0.03,0-0.05,0.011-0.05,0.04v0.05
					c-0.03,0-0.04,0.011-0.04,0.04l-0.05,0.051v0.04l-0.08,0.05c0,0.03-0.02,0.04-0.05,0.04c0,0.029-0.01,0.05-0.04,0.05
					c-0.03,0-0.05,0.01-0.05,0.04v0.05c0,0.03-0.01,0.04-0.04,0.04l-0.09,0.09v0.05c-0.03,0-0.05,0.011-0.05,0.04h-0.04l-0.09,0.091
					v0.09h-0.05v0.05l-0.13,0.13v0.05l-0.04,0.04v0.04h-0.05v0.101l-0.05,0.04v0.039h-0.04v0.051h-0.04v0.09l-0.05,0.04v0.05
					c-0.03,0-0.04,0.01-0.04,0.04l-0.05,0.05v0.04l-0.04,0.05v0.09c0,0.03-0.02,0.04-0.05,0.04h-0.04c0,0.03-0.02,0.051-0.05,0.051
					v0.18h-0.04v0.13c-0.03,0-0.05,0.01-0.05,0.04v0.14h-0.04v0.71h0.04v0.141h0.14v0.04l0.04,0.05h0.05v0.04h0.09
					c0.03,0,0.06,0.02,0.09,0.05h0.09v0.04c0.03,0.03,0.06,0.05,0.09,0.05s0.04,0.011,0.04,0.04c0.06,0,0.12,0.021,0.18,0.05h0.05
					c0.02,0.03,0.06,0.04,0.08,0.04V24.4h0.14c0.03,0,0.06,0.01,0.09,0.04c0.03,0,0.04,0.02,0.04,0.05h0.14v0.04
					c0.03,0,0.06,0.02,0.09,0.05c0.03,0,0.07,0.01,0.13,0.04h0.05v0.05h0.13v0.04h0.09l0.04,0.05h0.14c0,0.03,0.01,0.04,0.04,0.04
					l0.09,0.05c0.03,0.03,0.06,0.04,0.09,0.04h0.14v0.051h0.04l0.05,0.04c0,0.029,0.01,0.05,0.04,0.05h0.09l0.05,0.04
					c0.03,0,0.06,0.02,0.09,0.05c0.06,0,0.1,0.01,0.13,0.04c0.03,0,0.06,0.02,0.09,0.05h0.04l0.05,0.04l0.09,0.05
					c0,0.03,0.01,0.04,0.04,0.04h0.05l0.04,0.04h0.14l0.09,0.09c0.06,0,0.1,0.021,0.13,0.05h0.14v0.04c0.03,0,0.06,0.021,0.09,0.051
					h0.09c0.03,0,0.06,0.01,0.09,0.04c0.03,0,0.04,0.02,0.04,0.05h0.09v0.04h0.14v0.05c0.03,0,0.06,0.01,0.09,0.04h0.08
					c0.03,0,0.06,0.02,0.09,0.05v0.04h0.09c0.03,0,0.06,0.021,0.09,0.05c0.03,0,0.06,0.011,0.09,0.04h0.14v0.05h0.05v0.04
					c0.03,0,0.06,0.021,0.09,0.051h0.09l0.04,0.04c0.03,0,0.05,0.02,0.05,0.05v0.04h0.67v-0.04c0.03,0,0.04-0.021,0.04-0.05v-0.58
					h0.05V25.52l0.04-0.05v-0.31c0.03-0.03,0.06-0.04,0.09-0.04v-0.18c0.03,0,0.05-0.021,0.05-0.051v-0.13
					c0-0.029,0.01-0.05,0.04-0.05v-0.09l0.05-0.04v-0.09c0.03,0,0.04-0.021,0.04-0.05V24.4l0.05-0.04V24.27
					c0-0.029,0.01-0.05,0.04-0.05c0-0.02,0.02-0.04,0.05-0.04V24h0.04l0.04-0.04v-0.05h0.05v-0.09l0.04-0.04v-0.05
					c0-0.03,0.02-0.04,0.05-0.04V23.6h0.09v-0.14l0.04-0.04v-0.05h0.05l0.04-0.04v-0.05c0-0.03,0.02-0.04,0.05-0.04v-0.05
					l0.04-0.091c0.03,0,0.05-0.01,0.05-0.04c0.03,0,0.04-0.02,0.04-0.05v-0.09l0.05-0.04h0.04v-0.05c0-0.03,0.02-0.04,0.05-0.04
					l0.04-0.05V22.7l0.04-0.05V22.56c0.03,0,0.05-0.01,0.05-0.04c0.03,0,0.04-0.02,0.04-0.05v-0.04h0.05v-0.05h0.04v-0.13l0.09-0.04
					v-0.09l0.14-0.101V21.98c0-0.03,0.01-0.04,0.04-0.04V21.84h0.05V21.8l0.09-0.09v-0.13l0.04-0.04c0.03,0,0.05-0.021,0.05-0.05
					v-0.04h0.04V21.4c0-0.03,0.02-0.04,0.05-0.04V21.31l0.04-0.04v-0.05l0.05-0.05v-0.04h0.04V21c0-0.03,0.02-0.05,0.05-0.05v-0.09
					l0.09-0.091V20.73l0.04-0.051v-0.13h0.09c0-0.03,0.02-0.05,0.05-0.05v-0.22c0.03,0,0.04-0.021,0.04-0.05
					c0.03,0,0.05-0.011,0.05-0.04l0.04-0.051v-0.09l0.05-0.04v-0.09h0.09v-0.05l0.04-0.04v-0.22h7c0,0.02,0.01,0.04,0.04,0.04v0.13
					c0,0.029,0.02,0.05,0.05,0.05v0.22c0.03,0,0.04,0.021,0.04,0.05v0.131h0.05v0.319h0.04v0.4h0.05V21c0.02,0,0.04,0.01,0.04,0.04
					v0.41l0.05,0.04v0.18h0.04v0.22l0.04,0.04v0.23l0.05,0.04v0.359c0,0.03,0.02,0.051,0.04,0.051v0.27h0.05
					c0,0.03,0.01,0.04,0.04,0.04v0.36h0.05v0.13c0,0.03,0.01,0.05,0.04,0.05v0.09l0.05,0.04v0.141c0.03,0,0.04,0.01,0.04,0.039v0.32
					h0.05v0.18c0.03,0,0.04,0.011,0.04,0.04V24.4l0.05,0.05v0.13l0.04,0.05v0.08h0.05v0.09l0.04,0.05v0.131l0.05,0.05v0.18h0.04
					v0.09l0.05,0.04v0.101l0.05,0.04v0.13l0.04,0.04v0.09c0,0.029,0.02,0.05,0.05,0.05v0.09l0.04,0.04v0.09
					c0.03,0,0.05,0.021,0.05,0.05v0.181c0,0.029,0.01,0.04,0.04,0.04v0.05l0.05,0.04v0.18l0.04,0.05v0.131h0.05v0.18
					c0.02,0,0.04,0.02,0.04,0.05h0.05v0.09l0.04,0.04v0.271h0.04v0.09c0.03,0,0.05,0.01,0.05,0.05v0.17l0.04,0.05v0.09l0.05,0.051
					v0.31h0.09v0.271l0.04,0.04v0.09c0,0.029,0.02,0.05,0.05,0.05v0.09c0,0.03,0.01,0.04,0.04,0.04v0.09c0.03,0,0.05,0.01,0.05,0.04
					v0.09h0.04v0.23l0.09,0.09v0.18h0.05v0.09c0,0.03,0.01,0.051,0.04,0.051v0.04l0.05,0.04v0.09h0.04v0.14h0.05v0.271h0.09v0.31
					h0.04v0.18h0.05v0.181c0,0.029,0.01,0.05,0.04,0.05v0.17l0.04,0.05c0,0.03,0.02,0.04,0.05,0.04v0.19c0.03,0,0.04,0.01,0.04,0.04
					h0.05v0.31h0.89c0.03-0.03,0.08-0.05,0.14-0.05v-0.04h0.27c0.03-0.03,0.07-0.05,0.13-0.05c0.03,0,0.06-0.011,0.09-0.04h0.09
					v-0.05c0.03-0.03,0.06-0.04,0.09-0.04h0.14l0.09-0.051c0.02-0.02,0.05-0.04,0.08-0.04V31.3h0.14c0.06,0,0.12-0.01,0.18-0.04
					v-0.05h0.09v-0.04c0.09-0.03,0.18-0.05,0.27-0.05h0.13l0.05-0.04h0.05c0.03-0.03,0.06-0.04,0.09-0.04
					c0-0.04,0.01-0.05,0.04-0.05h0.09c0.06-0.03,0.1-0.04,0.13-0.04c0.03,0,0.06-0.021,0.09-0.05h0.09
					c0.03-0.03,0.06-0.04,0.09-0.04c0-0.03,0.03-0.051,0.09-0.051h0.05c0.03,0,0.06-0.02,0.09-0.04h0.04
					c0.03-0.029,0.06-0.05,0.09-0.05h0.05c0.06-0.029,0.1-0.04,0.13-0.04c0.06-0.029,0.11-0.05,0.13-0.05
					c0.03,0,0.08-0.01,0.14-0.04h0.09l0.04-0.05c0.03-0.03,0.06-0.04,0.09-0.04h0.14c0.03-0.03,0.06-0.05,0.09-0.05
					c0.03-0.03,0.06-0.04,0.09-0.04h0.04c0.03-0.03,0.06-0.05,0.09-0.05h0.05l0.04-0.04h0.09c0.03-0.03,0.06-0.051,0.09-0.051V30.23
					c0.06-0.03,0.11-0.051,0.13-0.051h0.14l0.09-0.09h0.04c0.03-0.03,0.06-0.04,0.09-0.04c0.06-0.03,0.11-0.05,0.14-0.05h0.13
					l0.05-0.04c0.03-0.03,0.06-0.05,0.09-0.05h0.04c0.06-0.03,0.1-0.04,0.13-0.04c0.03,0,0.06-0.021,0.09-0.05h0.05
					c0.09-0.03,0.18-0.04,0.27-0.04v-0.09h0.22V29.6h0.05v-0.63l-0.05-0.04c-0.03-0.029-0.06-0.05-0.09-0.05v-0.04
					c-0.03,0-0.04-0.01-0.04-0.05h-0.05v-0.04c0-0.03-0.01-0.04-0.04-0.04v-0.05c0-0.03-0.02-0.04-0.05-0.04v-0.14l-0.04-0.04V28.39
					l-0.09-0.04v-0.18h-0.04v-0.05c-0.03,0-0.05-0.01-0.05-0.04v-0.05c-0.03,0-0.04-0.011-0.04-0.04V27.9l-0.05-0.051v-0.18h-0.04
					v-0.04c-0.03,0-0.05-0.02-0.05-0.05v-0.09l-0.04-0.04V27.4c0-0.03-0.02-0.04-0.05-0.04V27.27l-0.04-0.09
					c-0.03,0-0.05-0.02-0.05-0.05v-0.09c-0.03,0-0.04-0.01-0.04-0.04v-0.13l-0.05-0.05c0-0.03-0.01-0.04-0.04-0.04v-0.13h-0.05V26.6
					c-0.03,0-0.04-0.02-0.04-0.05v-0.09l-0.05-0.04v-0.09l-0.04-0.09v-0.09h-0.04V25.93h-0.05v-0.09l-0.04-0.05v-0.13
					c-0.03,0-0.05-0.021-0.05-0.05c-0.03,0-0.04-0.011-0.04-0.04V25.39l-0.09-0.09v-0.09h-0.05v-0.18h-0.04v-0.05l-0.05-0.091V24.8
					h-0.04v-0.13c-0.03,0-0.05-0.02-0.05-0.05v-0.17l-0.09-0.05V24.09h-0.04v-0.04L42.463,24v-0.04l-0.04-0.05v-0.13
					c-0.03,0-0.05-0.021-0.05-0.05v-0.04h-0.04v-0.23c-0.03,0-0.05-0.01-0.05-0.04l-0.04-0.05v-0.22l-0.05-0.051v-0.04l-0.04-0.05
					v-0.13l-0.05-0.05v-0.22l-0.04-0.051v-0.04c-0.03,0-0.05-0.02-0.05-0.05V22.03c-0.02,0-0.04-0.021-0.04-0.05l-0.04-0.04v-0.5
					h-0.05V21.13c-0.03,0-0.04-0.01-0.04-0.05V20.77l-0.05-0.039v-0.4h-0.04v-0.41h-0.05v-1.25h0.05c0.23-0.04,0.46-0.05,0.67-0.05
					v-0.63h-0.36V16.64l0.04-0.04c0-0.029,0.02-0.05,0.05-0.05h0.04l0.05-0.04c0-0.029,0.01-0.05,0.04-0.05h0.05l0.04-0.04
					c0.03,0,0.05-0.02,0.05-0.05h0.04l0.05-0.04c0.03,0,0.04-0.02,0.04-0.051c0.03,0,0.06-0.01,0.09-0.039h0.05l0.04-0.051
					c0.03-0.02,0.06-0.039,0.09-0.039l0.05-0.051c0.03-0.02,0.06-0.039,0.09-0.039c0.03-0.031,0.06-0.041,0.09-0.041v-0.049h0.09
					l0.04-0.051c0.03,0,0.04-0.01,0.04-0.04c0.03,0,0.06-0.01,0.09-0.04h0.05l0.04-0.05c0.03,0,0.05-0.011,0.05-0.04h0.09
					c0.03-0.029,0.06-0.05,0.09-0.05l0.04-0.04h0.09c0-0.03,0.02-0.051,0.05-0.051l0.04-0.039h0.05c2.21,0,4.42,0.01,6.64,0.039
					c0.021,0,0.04,0.021,0.04,0.051v0.09h0.04v0.04l0.05,0.05c0,0.03,0.01,0.04,0.04,0.04v0.091h0.05v0.09h0.721V15.88
					c6.189,0,12.359,0.021,18.52,0.04l0.04,0.051h0.771V15.75h0.039v-0.09h0.051l0.04-0.051h0.5V14.8c0-0.03,0.01-0.04,0.04-0.04
					v-0.05l0.09-0.09v-0.091h0.05v-0.09h0.04V14.4h0.58V14.27h0.05V12.87c0.03,0,0.04-0.011,0.04-0.04h0.4v0.27
					c0.069,0,0.109,0.021,0.14,0.051h0.27v1.289c-0.029,0.041-0.06,0.051-0.09,0.051v0.72l0.09,0.04h0.181
					c0.21,0,0.399,0.02,0.58,0.05h0.09v0.04h0.63v-2.15c0.03-0.029,0.06-0.039,0.09-0.039V13.1h0.36v-0.27h0.13v-0.45h7.72v0.41
					h0.04c0.03,0,0.05,0.01,0.05,0.04h0.63v-0.04h5.381v-0.63H88.933z M29.414,18.98h-0.63V18.89l-0.09-0.05h-0.05V18.8h-0.04
					c-0.03,0-0.06-0.02-0.09-0.05v-0.04h-0.04l-0.09-0.05v-0.04h-0.09v-0.05l-0.05-0.04v-0.05h-0.04V18.39h-0.05
					c0-0.029-0.01-0.04-0.04-0.04l-0.05-0.05v-1.34h0.32V17c0,0.03,0.01,0.05,0.04,0.05c0,0.03,0.02,0.04,0.05,0.04v0.09
					c0,0.03,0.01,0.051,0.04,0.051v0.039h0.05v0.091l0.04,0.05v0.09h0.05v0.04l0.04,0.05v0.09c0.03,0,0.04,0.011,0.04,0.04
					c0.03,0,0.05,0.021,0.05,0.05v0.04h0.04v0.051l0.09,0.09v0.09l0.05,0.04v0.13h0.04v0.14c0.03,0.03,0.06,0.04,0.09,0.04v0.091
					l0.05,0.05v0.09h0.04c0,0.03,0.02,0.04,0.05,0.04v0.05h0.04v0.04c0,0.03,0.02,0.05,0.05,0.05v0.09h0.09V18.98z M33.983,17.9
					h-0.09c0,0.029-0.01,0.04-0.04,0.04v0.05h-0.09v0.04c-0.03,0.029-0.06,0.05-0.09,0.05c0,0.03-0.02,0.04-0.05,0.04l-0.09,0.09
					c-0.03,0-0.04,0.021-0.04,0.05l-0.05,0.04h-0.13l-0.09,0.09c-0.03,0-0.05,0.021-0.05,0.051l-0.09,0.04v0.05h-0.04l-0.09,0.09
					h-0.04c0,0.03-0.02,0.04-0.05,0.04v0.05h-0.04v0.271h-2.56V18.39h-0.04v-0.18h-0.05v-0.09l-0.04-0.04v-0.09h-0.05v-0.67
					c0.03,0,0.05-0.021,0.05-0.051v-0.18h0.04v-0.13l0.05-0.05v-0.18c0-0.03,0.01-0.04,0.04-0.04V16.55h0.04l0.05-0.09v-0.04h2.82
					c0.03,0,0.05,0.01,0.05,0.04l0.04,0.04h0.05l0.04,0.05c0,0.03,0.02,0.04,0.05,0.04c0.03,0.03,0.06,0.05,0.09,0.05v0.091
					c0.03,0,0.06,0.02,0.09,0.039h0.04c0,0.03,0.02,0.051,0.05,0.051v0.05c0.03,0.02,0.06,0.04,0.09,0.04l0.09,0.04
					c0.03,0,0.04,0.02,0.04,0.05c0.03,0,0.05,0.02,0.05,0.04l0.04,0.05V17.9z M42.063,15.609V15.57h0.04L42.063,15.609z"/>
			</g>
		</g>
	</g>
	<g>
		
			<linearGradient id="SVGID_2_" gradientUnits="userSpaceOnUse" x1="-847.3413" y1="43.3252" x2="-848.1762" y2="43.3252" gradientTransform="matrix(34.5122 0 0 13.1527 29282.8691 -556.8325)">
			<stop  offset="0" style="stop-color:#00FFFF"/>
			<stop  offset="0.6495" style="stop-color:#FFE3A0"/>
		</linearGradient>
		<path fill="url(#SVGID_2_)" d="M24.843,7.311h-1.35V7.23h-0.63v0.129c-0.03,0.031-0.06,0.041-0.09,0.041v0.41h-0.14l-0.09,0.09
			c-0.03,0.029-0.06,0.039-0.09,0.039c-0.03,0-0.05,0.021-0.08,0.051c-0.04,0-0.07,0.01-0.1,0.039V8.08c-0.02,0-0.04,0.01-0.04,0.04
			h-0.04l-0.05,0.05h-0.04v0.04l-0.23,0.229h-0.05c-0.02,0-0.04,0.011-0.04,0.041l-0.09,0.039V8.57c-0.03,0-0.04,0.01-0.04,0.05
			h-0.05c0,0.03-0.01,0.04-0.04,0.04l-0.09,0.09c0,0.029-0.02,0.04-0.05,0.04c0,0.03-0.01,0.05-0.04,0.05
			c0,0.03-0.02,0.04-0.05,0.04l-0.09,0.091V9.02h-0.04c-0.03,0-0.05,0.01-0.05,0.041v0.049h-0.04l-0.05,0.041
			c-0.03,0.029-0.06,0.05-0.09,0.05v0.04l-0.09,0.05l-0.04,0.04h-0.05l-0.04,0.09h-0.04l-0.05,0.09v0.051h-0.09V9.6
			c0,0.03-0.01,0.051-0.04,0.051h-0.05l-0.04,0.039c0,0.031-0.02,0.041-0.05,0.041h-9.94c10.99,0.91,20.03,3.93,27.1,9.05
			C33.914,14.279,29.684,10.46,24.843,7.311z"/>
	</g>
	<g>
		<linearGradient id="SVGID_3_" gradientUnits="userSpaceOnUse" x1="61.3882" y1="10.2104" x2="46.1277" y2="10.2104">
			<stop  offset="0" style="stop-color:#00FFFF"/>
			<stop  offset="0.8219" style="stop-color:#FFE3A0"/>
		</linearGradient>
		<path fill="url(#SVGID_3_)" d="M54.614,7.721c2.06,1.51,4.02,3.17,5.87,4.979c-4.261-2.38-9.04-4.04-14.36-4.97h5.99v-0.01H54.614
			z"/>
	</g>
	<g>
		<g>
			<g>
				<g>
					<linearGradient id="SVGID_4_" gradientUnits="userSpaceOnUse" x1="28.3896" y1="39.0479" x2="56.0818" y2="-8.9163">
						<stop  offset="0" style="stop-color:#BB925B"/>
						<stop  offset="0.3429" style="stop-color:#FFF6DA"/>
						<stop  offset="0.6571" style="stop-color:#FFF1B1"/>
						<stop  offset="1" style="stop-color:#B38B54"/>
					</linearGradient>
					<path fill="url(#SVGID_4_)" d="M39.14,3.109c-0.051,0.084-0.09,0.176-0.115,0.271c-0.022,0.041-0.041,0.083-0.057,0.126
						c-0.007,0.01-0.013,0.021-0.019,0.031c-0.01,0.013-0.021,0.025-0.03,0.039c-0.091,0.107-0.159,0.234-0.198,0.374
						c-0.04,0.07-0.07,0.146-0.092,0.226c-0.006,0.014-0.012,0.028-0.017,0.042c-0.025,0.051-0.047,0.103-0.063,0.157
						c-0.063,0.092-0.109,0.192-0.138,0.299c-0.038,0.068-0.068,0.142-0.089,0.218c-0.01,0.018-0.019,0.035-0.027,0.053
						c-0.024,0.04-0.046,0.081-0.065,0.124c-0.049,0.074-0.089,0.155-0.118,0.241c-0.011,0.018-0.021,0.035-0.031,0.054
						c-0.076,0.101-0.134,0.215-0.168,0.339c-0.045,0.08-0.079,0.168-0.1,0.26c-0.047,0.058-0.088,0.121-0.123,0.189
						c-0.134,0.17-0.213,0.384-0.213,0.617V6.91c0,0.553,0.448,1,1,1h0.72c0.182,0.243,0.473,0.4,0.8,0.4h5.292
						c0.183,0.249,0.476,0.41,0.808,0.41h25.666c0.171,0.137,0.388,0.219,0.624,0.219h0.351c0.321,0,0.607-0.151,0.79-0.387
						c0.313-0.168,0.526-0.497,0.529-0.876c0.124,0.314,0.401,0.551,0.74,0.615V8.35c0,0.433,0.274,0.801,0.659,0.94
						c-0.385,0.14-0.659,0.508-0.659,0.94v0.129c0,0.553,0.447,1,1,1h8.65c0.284,0,0.541-0.119,0.724-0.31h2.766v0.74h-4.202
						c-0.182-0.249-0.476-0.41-0.808-0.41h-7.72c-0.502,0-0.918,0.37-0.989,0.853c-0.095,0.055-0.179,0.124-0.251,0.205
						c-0.012,0.011-0.023,0.022-0.035,0.033c-0.01,0.009-0.019,0.019-0.027,0.027c-0.1-0.115-0.225-0.208-0.367-0.269
						c-0.183-0.242-0.473-0.399-0.8-0.399h-0.4c-0.286,0-0.545,0.12-0.727,0.313c-0.193,0.182-0.313,0.44-0.313,0.727v0.606
						c-0.07,0.03-0.137,0.068-0.198,0.113c-0.159,0.1-0.288,0.242-0.371,0.411c-0.038,0.062-0.07,0.128-0.095,0.198
						c-0.107,0.154-0.174,0.34-0.185,0.543c-0.011,0.007-0.021,0.013-0.032,0.02c-0.091,0.045-0.174,0.103-0.246,0.172
						c-0.053-0.009-0.106-0.014-0.16-0.014l-0.81-0.003c-5.892-0.019-11.793-0.037-17.713-0.037c-0.074,0-0.147,0.008-0.218,0.023
						c-0.185-0.182-0.437-0.294-0.71-0.294l0,0c-1.995-0.026-4.172-0.039-6.703-0.039c-0.19,0-0.375,0.055-0.534,0.154
						c-0.045,0.018-0.088,0.037-0.131,0.061c-0.12,0.033-0.23,0.088-0.328,0.159c-0.192-0.232-0.489-0.374-0.797-0.374
						c-0.552,0-1,0.447-1,1v0.039c0,0.186,0.051,0.362,0.143,0.516c-0.093,0.154-0.143,0.332-0.143,0.515v1.262
						c-0.22,0.184-0.36,0.46-0.36,0.769v1.25c0,0.104,0.018,0.204,0.05,0.298v0.112c0,0.094,0.014,0.185,0.04,0.271v0.13
						c0,0.107,0.017,0.212,0.05,0.312v0.038c0,0.103,0.014,0.202,0.04,0.295v0.065c0,0.109,0.018,0.215,0.05,0.314v0.186
						c0,0.136,0.028,0.27,0.08,0.393v0.137c0,0.153,0.033,0.299,0.092,0.431c0.007,0.098,0.028,0.194,0.063,0.285
						c0.015,0.084,0.041,0.166,0.077,0.243c0.007,0.129,0.04,0.254,0.094,0.369c0.014,0.124,0.053,0.241,0.112,0.348
						c0.018,0.075,0.045,0.147,0.08,0.216c0.007,0.019,0.015,0.036,0.022,0.055c0.002,0.165,0.046,0.323,0.122,0.464
						c0.011,0.042,0.024,0.083,0.04,0.123c0.015,0.067,0.037,0.132,0.066,0.193c0.013,0.04,0.028,0.079,0.046,0.117
						c0.001,0.003,0.002,0.006,0.003,0.009c0.015,0.12,0.053,0.233,0.11,0.337c0.011,0.028,0.023,0.057,0.037,0.084
						c0.021,0.127,0.063,0.246,0.125,0.354c0.004,0.011,0.008,0.022,0.012,0.033c0.009,0.046,0.022,0.091,0.037,0.134
						c0.012,0.1,0.04,0.194,0.082,0.283c0.012,0.094,0.037,0.186,0.075,0.271c0.022,0.09,0.056,0.174,0.099,0.252
						c0.02,0.065,0.046,0.129,0.079,0.188c0.011,0.045,0.024,0.088,0.041,0.13c0.021,0.085,0.053,0.166,0.094,0.241
						c0.021,0.074,0.049,0.146,0.086,0.211c0.019,0.073,0.044,0.143,0.078,0.208c0.013,0.065,0.033,0.128,0.058,0.189
						c0.02,0.083,0.049,0.162,0.086,0.235c0.011,0.027,0.023,0.054,0.036,0.079c0.027,0.131,0.08,0.253,0.154,0.361
						c0.007,0.025,0.016,0.051,0.026,0.074c-0.024,0.01-0.047,0.021-0.07,0.031c-0.095,0.018-0.181,0.046-0.255,0.076
						c-0.04,0.012-0.079,0.026-0.117,0.042c-0.058,0.019-0.115,0.042-0.169,0.071c-0.128,0.03-0.24,0.08-0.338,0.13
						c-0.028,0.014-0.055,0.029-0.081,0.046c-0.024,0.009-0.047,0.019-0.07,0.029c-0.033,0.011-0.067,0.023-0.102,0.039
						c-0.053,0.015-0.105,0.033-0.156,0.057c-0.148,0.019-0.29,0.065-0.418,0.14h0c-0.085,0.017-0.164,0.042-0.237,0.072
						c-0.014,0.004-0.028,0.008-0.042,0.012c-0.092,0.015-0.195,0.043-0.3,0.094c-0.115,0.02-0.222,0.055-0.321,0.105
						c-0.062,0.016-0.123,0.037-0.181,0.065c-0.147,0.016-0.284,0.062-0.405,0.131c-0.139,0.014-0.28,0.045-0.426,0.095
						c-0.062,0.021-0.121,0.048-0.176,0.081c-0.159,0.015-0.308,0.071-0.437,0.157c-0.138,0.026-0.27,0.079-0.389,0.155
						c-0.004,0.001-0.009,0.003-0.014,0.004h-0.055c-0.084,0-0.166,0.012-0.244,0.032c-0.002-0.01-0.005-0.02-0.008-0.029
						c-0.006-0.097-0.027-0.189-0.061-0.276c-0.007-0.04-0.016-0.079-0.027-0.117V30.19c0-0.161-0.038-0.313-0.105-0.447
						c-0.016-0.089-0.043-0.173-0.081-0.251c-0.012-0.037-0.026-0.073-0.042-0.108c-0.021-0.066-0.05-0.131-0.084-0.191
						c-0.005-0.018-0.012-0.035-0.018-0.052c-0.015-0.098-0.043-0.191-0.085-0.279c-0.011-0.094-0.036-0.183-0.072-0.267
						c-0.018-0.063-0.041-0.124-0.07-0.183c-0.002-0.007-0.005-0.014-0.008-0.021c-0.015-0.062-0.035-0.12-0.06-0.177
						c-0.001-0.005-0.002-0.009-0.004-0.014v-0.03c0-0.154-0.035-0.3-0.097-0.431c-0.012-0.099-0.039-0.194-0.079-0.285
						c-0.002-0.007-0.004-0.015-0.006-0.021c-0.008-0.13-0.039-0.253-0.088-0.365c-0.002-0.124-0.028-0.244-0.074-0.356
						c-0.019-0.066-0.045-0.131-0.078-0.192c-0.016-0.072-0.039-0.142-0.07-0.208c-0.007-0.129-0.04-0.254-0.094-0.369
						c-0.013-0.111-0.043-0.219-0.088-0.316c-0.007-0.021-0.014-0.042-0.021-0.063c-0.015-0.063-0.036-0.124-0.062-0.182
						c-0.004-0.015-0.008-0.029-0.013-0.044c-0.013-0.09-0.039-0.178-0.075-0.26c-0.016-0.058-0.037-0.113-0.062-0.167
						c-0.01-0.082-0.03-0.161-0.059-0.237c-0.011-0.063-0.028-0.123-0.051-0.183c-0.018-0.071-0.043-0.14-0.077-0.205
						c-0.013-0.076-0.035-0.151-0.064-0.223c-0.004-0.02-0.01-0.038-0.015-0.058c-0.007-0.079-0.023-0.156-0.047-0.229V23.77
						c0-0.115-0.018-0.226-0.051-0.329c-0.014-0.094-0.042-0.186-0.082-0.271c-0.002-0.008-0.004-0.015-0.007-0.022
						c-0.008-0.057-0.022-0.112-0.04-0.165V22.92c0-0.154-0.035-0.301-0.098-0.432c-0.007-0.055-0.018-0.107-0.033-0.159V22.2
						c0-0.108-0.018-0.214-0.051-0.314c-0.003-0.081-0.017-0.16-0.039-0.237c-0.002-0.093-0.019-0.183-0.046-0.269
						c-0.008-0.068-0.022-0.136-0.044-0.201V21.04c0-0.151-0.032-0.294-0.09-0.424V20.55c0-0.093-0.014-0.184-0.04-0.269V20.23
						c0-0.143-0.03-0.278-0.084-0.401c-0.002-0.009-0.004-0.018-0.007-0.025c-0.003-0.116-0.025-0.228-0.065-0.33
						c-0.038-0.215-0.146-0.406-0.297-0.55c-0.125-0.133-0.287-0.231-0.469-0.279c0.204-0.184,0.332-0.449,0.332-0.744V17.09
						c0-0.214-0.069-0.422-0.195-0.594c-0.037-0.06-0.08-0.114-0.127-0.165c-0.092-0.114-0.208-0.207-0.339-0.272
						c-0.011-0.01-0.023-0.019-0.035-0.028c-0.077-0.1-0.173-0.186-0.282-0.25c-0.039-0.036-0.082-0.068-0.126-0.098
						c-0.186-0.164-0.432-0.263-0.705-0.263h-2.82c-0.328,0-0.619,0.172-0.801,0.427c-0.146,0.147-0.246,0.341-0.278,0.556
						c-0.007,0.021-0.013,0.043-0.019,0.064c-0.002-0.003-0.005-0.007-0.008-0.011c-0.173-0.297-0.496-0.496-0.864-0.496h-0.32
						c-0.552,0-1,0.447-1,1v1.34c0,0.119,0.021,0.237,0.062,0.347c-0.351,0.098-0.624,0.381-0.706,0.737
						c-0.048,0.075-0.085,0.156-0.112,0.242c-0.008,0.018-0.016,0.035-0.022,0.052c-0.064,0.085-0.115,0.18-0.149,0.282
						c-0.079,0.107-0.137,0.231-0.167,0.365c-0.047,0.075-0.084,0.155-0.111,0.24c-0.029,0.064-0.053,0.132-0.068,0.203
						c-0.003,0.006-0.006,0.012-0.009,0.019c-0.015,0.023-0.028,0.048-0.041,0.072c-0.01,0.017-0.019,0.032-0.027,0.049
						c-0.088,0.098-0.156,0.21-0.2,0.332c-0.048,0.063-0.088,0.133-0.12,0.207c-0.048,0.053-0.09,0.109-0.125,0.171
						c-0.071,0.087-0.127,0.186-0.166,0.292c-0.08,0.094-0.144,0.202-0.185,0.321c-0.092,0.097-0.163,0.21-0.209,0.333
						c-0.026,0.042-0.05,0.086-0.07,0.132l-0.021,0.047l0,0c-0.027,0.034-0.053,0.069-0.076,0.106
						c-0.034,0.044-0.064,0.092-0.091,0.141c-0.076,0.099-0.134,0.213-0.169,0.336c-0.001,0.002-0.002,0.004-0.003,0.006
						c-0.113,0.127-0.195,0.282-0.232,0.455c-0.036,0.071-0.064,0.147-0.083,0.228c-0.032,0.059-0.058,0.12-0.077,0.186
						c-0.025,0.054-0.045,0.109-0.061,0.167c-0.027,0.071-0.047,0.146-0.06,0.225c-0.01,0.026-0.019,0.054-0.026,0.082
						c-0.06,0.106-0.099,0.223-0.116,0.345c0-0.001-0.001-0.001-0.001-0.001c-0.019-0.009-0.039-0.017-0.058-0.024
						c-0.067-0.041-0.137-0.074-0.209-0.1c-0.099-0.063-0.209-0.107-0.327-0.133c-0.003-0.001-0.005-0.002-0.008-0.002
						c-0.002-0.001-0.004-0.002-0.005-0.003c-0.069-0.039-0.143-0.071-0.219-0.095c-0.103-0.062-0.217-0.105-0.339-0.127
						c-0.111-0.07-0.236-0.118-0.367-0.141c-0.054-0.036-0.113-0.067-0.175-0.094c-0.039-0.021-0.077-0.04-0.115-0.056
						c-0.051-0.026-0.107-0.049-0.167-0.068c-0.031-0.019-0.063-0.035-0.095-0.051c-0.137-0.115-0.306-0.195-0.491-0.224
						c-0.102-0.061-0.215-0.104-0.335-0.126c-0.078-0.039-0.161-0.068-0.249-0.086c-0.11-0.082-0.237-0.143-0.375-0.174
						c-0.078-0.038-0.16-0.067-0.244-0.087c-0.036-0.016-0.074-0.028-0.112-0.04c-0.026-0.01-0.052-0.02-0.079-0.027
						c-0.046-0.039-0.096-0.073-0.148-0.103c0.013-0.036,0.023-0.072,0.032-0.109c0-0.002,0.001-0.004,0.002-0.006
						c0.081-0.108,0.141-0.233,0.174-0.37c0.052-0.067,0.095-0.14,0.128-0.217c0.068-0.087,0.121-0.185,0.157-0.288
						c0.001,0,0.001-0.001,0.002-0.002c0.077-0.071,0.144-0.154,0.196-0.247c0.03-0.034,0.059-0.07,0.084-0.108
						c0.07-0.063,0.131-0.135,0.183-0.216c0.005-0.006,0.01-0.011,0.016-0.017c0.09-0.075,0.167-0.168,0.226-0.271
						c0.021-0.028,0.041-0.059,0.059-0.089c0.023-0.02,0.045-0.04,0.066-0.062c0.014-0.014,0.027-0.028,0.041-0.044
						c0.084-0.073,0.156-0.16,0.213-0.261c0.027-0.03,0.053-0.063,0.077-0.096c0.006-0.006,0.011-0.013,0.017-0.019
						c0.039-0.034,0.074-0.071,0.107-0.111c0.051-0.055,0.096-0.114,0.135-0.18c0.019-0.023,0.037-0.048,0.054-0.072
						c0.001-0.002,0.003-0.005,0.005-0.007c0.066-0.063,0.125-0.134,0.172-0.212c0.075-0.07,0.14-0.151,0.191-0.24l0.018-0.019
						c0.028-0.028,0.054-0.059,0.079-0.091c0.029-0.022,0.057-0.046,0.084-0.071c0.134-0.094,0.245-0.218,0.321-0.364
						c0.023-0.032,0.045-0.065,0.065-0.101c0.012-0.016,0.024-0.031,0.035-0.047l0.043-0.042c0.037-0.037,0.071-0.078,0.102-0.122
						c0.071-0.074,0.131-0.16,0.178-0.254c0.053-0.071,0.097-0.15,0.129-0.234c0.012-0.024,0.023-0.049,0.034-0.074
						c0.033-0.052,0.062-0.107,0.086-0.165c0.065-0.101,0.113-0.212,0.141-0.333c0.071-0.133,0.112-0.282,0.116-0.442
						c0.026-0.094,0.041-0.192,0.041-0.296v-0.4c0-0.096-0.015-0.188-0.042-0.275c-0.01-0.17-0.062-0.334-0.152-0.477
						c-0.036-0.096-0.086-0.185-0.148-0.265c-0.072-0.122-0.171-0.229-0.287-0.314c-0.044-0.063-0.096-0.122-0.154-0.174
						c-0.099-0.111-0.222-0.201-0.359-0.263c-0.043-0.022-0.096-0.046-0.159-0.067c-0.064-0.038-0.133-0.07-0.207-0.095
						c-0.061-0.028-0.125-0.051-0.19-0.068c-0.055-0.022-0.118-0.043-0.188-0.059c-0.044-0.012-0.09-0.022-0.137-0.031
						c-0.095-0.041-0.197-0.067-0.305-0.078c-0.002,0-0.003-0.001-0.005-0.001c-0.146-0.084-0.316-0.133-0.497-0.133
						c-0.023-0.007-0.047-0.013-0.072-0.019V13.55c0-0.553-0.448-1-1-1h-0.5c-0.155,0-0.302,0.035-0.433,0.099
						c-0.495,0.061-0.877,0.481-0.877,0.992v1.33h-2.14c-0.552,0-1,0.447-1,1v0.139c-0.072,0.016-0.141,0.039-0.207,0.07h-0.763
						c-0.394,0-0.735,0.228-0.897,0.559c-0.048,0.076-0.085,0.158-0.11,0.244c-0.194-0.187-0.461-0.303-0.742-0.303
						c-0.274,0-0.52,0.101-0.704,0.268c-0.14,0.045-0.27,0.12-0.379,0.222c-0.067,0.03-0.131,0.068-0.19,0.113
						c-0.125,0.047-0.243,0.116-0.342,0.202c-0.049,0.032-0.095,0.069-0.137,0.109c-0.042,0.031-0.082,0.065-0.119,0.104
						c-0.005,0.003-0.01,0.006-0.015,0.009c-0.141,0.063-0.265,0.157-0.362,0.273c-0.015,0.013-0.03,0.025-0.044,0.039
						c-0.028,0.021-0.055,0.043-0.081,0.065c-0.146,0.055-0.278,0.145-0.385,0.261c-0.071,0.043-0.136,0.095-0.195,0.154
						c-0.021,0.021-0.04,0.042-0.059,0.064c-0.026,0.021-0.05,0.044-0.074,0.068c-0.063,0.037-0.118,0.077-0.165,0.117V18.44
						c0-0.553-0.448-1-1-1h-0.09c-0.167,0-0.33,0.042-0.475,0.12c-0.196,0.05-0.369,0.156-0.5,0.303
						c-0.025,0.015-0.05,0.03-0.074,0.047c-0.026,0.011-0.052,0.022-0.078,0.035c-0.133,0.051-0.251,0.129-0.35,0.228
						c-0.088,0.052-0.168,0.115-0.237,0.188c-0.092,0.061-0.174,0.136-0.243,0.223c-0.035,0.027-0.068,0.058-0.1,0.09L5.289,18.73
						c-0.077,0.044-0.148,0.099-0.212,0.162c-0.026,0.025-0.05,0.052-0.073,0.08c-0.082,0.06-0.153,0.131-0.213,0.212
						c-0.033,0.038-0.063,0.08-0.09,0.123c-0.033,0.024-0.064,0.051-0.094,0.079c-0.137,0.087-0.251,0.206-0.332,0.347l-0.019,0.02
						c-0.051,0.051-0.096,0.11-0.135,0.175c-0.032,0.033-0.063,0.068-0.09,0.105c-0.013,0.018-0.03,0.04-0.049,0.067
						c-0.022,0.027-0.043,0.056-0.063,0.085c-0.021,0.021-0.04,0.042-0.059,0.064c-0.101,0.078-0.187,0.176-0.251,0.286
						c-0.027,0.033-0.052,0.068-0.074,0.104c-0.012,0.014-0.023,0.028-0.034,0.043c-0.137,0.102-0.248,0.238-0.323,0.394
						c-0.011,0.015-0.021,0.03-0.032,0.046c-0.003,0.003-0.006,0.007-0.01,0.01c-0.062,0.062-0.114,0.136-0.158,0.217
						c-0.049,0.063-0.091,0.135-0.125,0.21c-0.014,0.022-0.026,0.046-0.038,0.07c-0.082,0.096-0.145,0.206-0.187,0.327
						c-0.024,0.036-0.045,0.073-0.064,0.111c-0.029,0.046-0.054,0.097-0.075,0.148c-0.016,0.028-0.03,0.057-0.043,0.086
						c-0.045,0.064-0.084,0.135-0.113,0.209c-0.018,0-0.035-0.001-0.053-0.002c-0.011-0.033-0.024-0.065-0.039-0.098
						c-0.004-0.076-0.018-0.15-0.039-0.223V22.11c0-0.146-0.032-0.288-0.09-0.416c-0.002-0.15-0.035-0.293-0.093-0.421
						c-0.009-0.12-0.039-0.234-0.087-0.339V20.81c0-0.102-0.014-0.201-0.04-0.297V20.41c0-0.148-0.031-0.294-0.09-0.43V19.92
						c0-0.152-0.035-0.302-0.1-0.437V18.88c0-0.151-0.032-0.294-0.09-0.422V18.3c0-0.097-0.014-0.19-0.04-0.279V17.68
						c0-0.119-0.02-0.271-0.09-0.433V17c0-0.153-0.032-0.299-0.09-0.429v-0.511c0-0.148-0.032-0.288-0.09-0.415V15.34
						c0-0.107-0.017-0.213-0.05-0.313V13.73c0-0.145-0.031-0.285-0.09-0.414v-2.223c0.059-0.129,0.09-0.271,0.09-0.414v-0.165
						c0.17,0.136,0.386,0.216,0.62,0.216h18.52c0.234,0,0.448-0.072,0.621-0.196c0.075-0.039,0.144-0.087,0.206-0.143
						c0.122-0.082,0.224-0.189,0.3-0.314c0.053-0.035,0.103-0.077,0.148-0.123c0.078-0.051,0.148-0.112,0.21-0.182
						c0.041-0.035,0.079-0.075,0.114-0.117c0.039-0.03,0.075-0.063,0.109-0.099c0.014-0.014,0.029-0.028,0.042-0.043
						c0.019-0.018,0.038-0.036,0.056-0.055c0.071-0.047,0.136-0.102,0.192-0.164c0.068-0.041,0.132-0.091,0.189-0.147l0.172-0.173
						c0.068-0.041,0.131-0.091,0.187-0.146c0.033-0.016,0.064-0.033,0.096-0.052c0.257-0.07,0.474-0.24,0.604-0.466h6.394
						c0.552,0,1-0.447,1-1v-0.4c0-0.146-0.028-0.283-0.08-0.407V6.1c0-0.553-0.448-1-1-1h-0.32c-0.127,0-0.248,0.023-0.36,0.066
						C29.162,5.123,29.041,5.1,28.914,5.1h-1.55V3.374c0.151,0.092,0.33,0.146,0.52,0.146h1.08c0.096,0,0.189-0.014,0.278-0.039
						c0.124,0.053,0.257,0.08,0.392,0.08c0.053,0,0.107-0.004,0.16-0.013c0.053,0.009,0.106,0.013,0.16,0.013
						c0.205,0,0.409-0.063,0.58-0.186c0.078-0.056,0.147-0.121,0.205-0.195c0.183,0.232,0.466,0.381,0.785,0.381h4.62
						c0.35,0,0.657-0.18,0.836-0.451H39.14 M27.883,0.67h-0.62v0.141h-0.45v0.85l-0.05,0.05v0.181l-0.04,0.039h-0.05v0.09h-0.09
						v0.041c-0.03,0-0.04,0.02-0.04,0.049h-0.05V2.16l-0.04,0.04v0.18h-0.09v3.899h0.09V6.6h0.63V6.51h0.04V6.1h1.79V6.37l0.05,0.05
						V6.6h0.63c0-0.029,0.01-0.05,0.04-0.05V6.1h0.32v0.68l0.04,0.041v0.05c0.03,0,0.04,0.01,0.04,0.04v0.4h-6.54V7.23h-0.63v0.129
						c-0.03,0.031-0.06,0.041-0.09,0.041v0.41h-0.14l-0.09,0.09c-0.03,0.029-0.06,0.039-0.09,0.039c-0.03,0-0.05,0.021-0.08,0.051
						c-0.04,0-0.07,0.01-0.1,0.039V8.08c-0.02,0-0.04,0.01-0.04,0.04h-0.04l-0.05,0.05h-0.04v0.04l-0.23,0.229h-0.05
						c-0.02,0-0.04,0.011-0.04,0.041l-0.09,0.039V8.57c-0.03,0-0.04,0.01-0.04,0.05h-0.05c0,0.03-0.01,0.04-0.04,0.04l-0.09,0.09
						c0,0.029-0.02,0.04-0.05,0.04c0,0.03-0.01,0.05-0.04,0.05c0,0.03-0.02,0.04-0.05,0.04l-0.09,0.091V9.02h-0.04
						c-0.03,0-0.05,0.01-0.05,0.041v0.049h-0.04l-0.05,0.041c-0.03,0.029-0.06,0.05-0.09,0.05v0.04l-0.09,0.05l-0.04,0.04h-0.05
						l-0.04,0.09h-0.04l-0.05,0.09v0.051h-0.09V9.6c0,0.03-0.01,0.051-0.04,0.051h-0.05l-0.04,0.039c0,0.031-0.02,0.041-0.05,0.041
						H1.874v-0.67L1.824,9.02V8.971h-0.09V8.88c-0.45-0.03-0.89-0.04-1.34-0.04v0.04c-0.03,0.03-0.06,0.05-0.09,0.05V9.65
						c-0.03,0.029-0.05,0.06-0.05,0.09v0.939l-0.04,0.051c0,0.029-0.02,0.039-0.05,0.039v2.82l0.05,0.051
						c0,0.029,0.01,0.06,0.04,0.09v1.52c0,0.029,0.02,0.061,0.05,0.09v0.721h0.09v0.81l0.04,0.04v0.05c0.03,0,0.05,0.01,0.05,0.04
						v0.5l0.04,0.04v0.05c0.03,0.03,0.05,0.061,0.05,0.09v0.58c0,0.03,0.01,0.04,0.04,0.04v0.54c0.06,0,0.09,0.021,0.09,0.04v0.9
						l0.05,0.05v0.04l0.05,0.05v0.36c0,0.02,0.01,0.04,0.04,0.04c0.03,0.029,0.05,0.06,0.05,0.09v0.31
						c0.03,0.03,0.04,0.061,0.04,0.09v0.54h0.09v0.23c0.03,0.03,0.05,0.06,0.05,0.09c0.03,0,0.04,0.01,0.04,0.04v0.36l0.09,0.04
						v0.319l0.04,0.04v0.32c0.03,0,0.06,0.01,0.09,0.04v0.4c0,0.029,0.02,0.05,0.05,0.05c0,0.029,0.01,0.06,0.04,0.09v0.09
						c0,0.03,0.03,0.04,0.09,0.04h0.36c0.3,0,0.62,0.02,0.94,0.05h0.32v-0.27c0.03-0.03,0.06-0.05,0.09-0.05V23.1
						c0.03-0.029,0.04-0.06,0.04-0.09v-0.13c0.06,0,0.09-0.02,0.09-0.05v-0.09c0-0.03,0.02-0.061,0.05-0.09v-0.04l0.04-0.051
						c0-0.02,0.02-0.06,0.05-0.09l0.04-0.04c0-0.029,0.01-0.05,0.04-0.05v-0.09c0-0.021,0.03-0.04,0.09-0.04v-0.09
						c0.03-0.03,0.05-0.061,0.05-0.09c0.03,0,0.04-0.011,0.04-0.051V21.98c0.03-0.03,0.06-0.061,0.09-0.091v-0.05
						c0.03-0.03,0.08-0.04,0.14-0.04v-0.13c0.03,0,0.04-0.02,0.04-0.05c0.03-0.03,0.05-0.061,0.05-0.09v-0.04
						c0.06,0,0.1-0.021,0.13-0.05h0.05V21.35c0.03,0,0.04-0.01,0.04-0.04c0-0.029,0.02-0.05,0.05-0.05
						c0.03-0.029,0.04-0.06,0.04-0.09c0.03-0.03,0.06-0.04,0.09-0.04v-0.09h0.09c0-0.03,0.02-0.06,0.05-0.09v-0.04
						c0.02-0.03,0.05-0.05,0.08-0.05c0-0.03,0.02-0.061,0.05-0.091c0-0.029,0.02-0.05,0.04-0.05c0-0.02,0.02-0.05,0.05-0.09
						c0.03,0,0.04-0.01,0.04-0.04l0.09-0.09v-0.04c0.03-0.03,0.06-0.06,0.09-0.09l0.05-0.05c0.03-0.03,0.04-0.061,0.04-0.09
						c0.03,0,0.06-0.011,0.09-0.04l0.05-0.051c0-0.029,0.03-0.04,0.09-0.04c0-0.029,0.01-0.06,0.04-0.09l0.09-0.09
						c0.03-0.03,0.05-0.06,0.05-0.09c0.03,0,0.04-0.021,0.04-0.05c0.03,0,0.06-0.011,0.09-0.04h0.06v-0.05
						c0-0.03,0.01-0.061,0.04-0.091h0.09v-0.04l0.05-0.05c0.03-0.029,0.06-0.06,0.09-0.09l0.04-0.04c0.03-0.03,0.08-0.05,0.14-0.05
						c0.03,0,0.04-0.01,0.04-0.04V19.2h0.09v-0.04c0.03,0,0.04-0.021,0.04-0.05c0.03,0,0.05-0.021,0.05-0.051
						c0-0.02,0.03-0.04,0.09-0.04c0.03,0,0.07-0.02,0.13-0.05v-0.09c0.03,0,0.06-0.01,0.09-0.04c0.06,0,0.11-0.01,0.14-0.05
						c0.03,0,0.04-0.01,0.04-0.04c0.03-0.03,0.06-0.04,0.09-0.04c0.06,0,0.12-0.02,0.18-0.05v-0.13c0.06,0,0.12-0.021,0.18-0.05
						l0.05-0.04h0.09V20.1h1.25v-0.09l0.14-0.14v-0.04c0.03-0.03,0.06-0.061,0.09-0.09v-0.05c0.03-0.03,0.06-0.061,0.08-0.091
						c0.03,0,0.06-0.01,0.09-0.04v-0.05c0.03-0.029,0.08-0.04,0.14-0.04c0-0.029,0.01-0.05,0.04-0.05c0-0.02,0.02-0.05,0.05-0.09
						l0.09-0.04c0-0.03,0.01-0.06,0.04-0.09c0.03,0,0.08-0.01,0.14-0.04l0.04-0.05c0-0.03,0.02-0.061,0.04-0.091h0.14
						c0-0.02,0.03-0.06,0.09-0.09c0-0.02,0.01-0.04,0.05-0.04c0-0.029,0.02-0.06,0.08-0.09l0.05-0.05c0.03-0.02,0.07-0.04,0.13-0.04
						v-0.09c0.03,0,0.06-0.01,0.09-0.04s0.08-0.05,0.14-0.05c0-0.03,0.03-0.04,0.09-0.04V18.4c0.03,0,0.06-0.021,0.09-0.051
						c0-0.029,0.01-0.04,0.04-0.04c0.03-0.029,0.06-0.06,0.09-0.09h0.18c0-0.029,0.01-0.05,0.04-0.05c0-0.03,0.02-0.06,0.05-0.09
						c0.03,0,0.07-0.01,0.13-0.04c0-0.03,0.03-0.05,0.09-0.05c0-0.03,0.02-0.061,0.05-0.09h0.18c0-0.03,0.01-0.04,0.04-0.04
						l0.05-0.051c0.03-0.029,0.06-0.06,0.09-0.09c0-0.029,0.01-0.04,0.04-0.04h0.05v0.49h1.12c0.15-0.03,0.28-0.04,0.4-0.04v-0.14
						l0.04-0.04V17.68h0.09v-0.41l0.05-0.039V17.18h0.94c0.09-0.02,0.16-0.04,0.22-0.04v-0.05h0.09v0.05h0.63v-0.27h0.09v-0.899
						h2.96V15.84h0.22v-0.63l-0.04-0.04v-1.529h0.31V13.55h0.5v1.841h0.22v0.18h0.36c0.03,0,0.07,0.01,0.13,0.039
						c0.07,0,0.12,0.021,0.18,0.051h0.18v0.04c0.03,0,0.06,0.021,0.09,0.05h0.09c0.03,0,0.08,0.01,0.14,0.04h0.09v0.05h0.04
						c0.09,0,0.18,0.01,0.27,0.04c0.03,0,0.06,0.021,0.09,0.04c0.06,0,0.11,0.02,0.14,0.051h0.04c0.03,0,0.04,0.01,0.04,0.049
						c0.03,0,0.06,0.01,0.09,0.041h0.05c0.03,0,0.06,0.02,0.09,0.039h0.04v0.051l0.05,0.039c0.03,0,0.04,0.021,0.04,0.051l0.18,0.18
						h0.05v0.04l0.03,0.05v0.05h0.05v0.131c0.03,0,0.06,0.02,0.09,0.05v0.22h0.04v0.4c0,0.029-0.01,0.05-0.04,0.05v0.22
						c-0.03,0-0.06,0.021-0.09,0.05v0.181c0,0.029-0.02,0.04-0.05,0.04l-0.04,0.05v0.09c0,0.02-0.02,0.04-0.05,0.04l-0.04,0.05v0.09
						h-0.04v0.09h-0.05l-0.04,0.04v0.091c0,0.029-0.02,0.04-0.05,0.04c0,0.039-0.01,0.05-0.04,0.05v0.04l-0.05,0.05
						c-0.03,0-0.04,0.01-0.04,0.04l-0.05,0.05v0.04h-0.04v0.05h-0.05v0.04c0,0.03-0.01,0.05-0.04,0.05l-0.05,0.04v0.051
						c0,0.029-0.01,0.039-0.04,0.039l-0.09,0.091h-0.04c0,0.029-0.02,0.05-0.05,0.05l-0.04,0.04c0,0.03-0.02,0.05-0.05,0.05v0.04
						l-0.13,0.13v0.05c-0.03,0-0.05,0.011-0.05,0.05h-0.04l-0.05,0.04v0.051h-0.04c0,0.02-0.02,0.04-0.05,0.04v0.09h-0.04v0.04
						l-0.05,0.05c-0.03,0-0.04,0.01-0.04,0.04v0.05c-0.03,0-0.06,0.01-0.09,0.04v0.05c0,0.03-0.02,0.04-0.05,0.04
						c0,0.03-0.01,0.05-0.04,0.05l-0.04,0.04c0,0.03-0.02,0.051-0.05,0.051v0.04c-0.03,0-0.05,0.02-0.05,0.05l-0.04,0.04
						c-0.03,0-0.04,0.02-0.04,0.05l-0.05,0.09h-0.04c0,0.03-0.02,0.04-0.05,0.04v0.05c-0.03,0.03-0.06,0.04-0.09,0.04v0.04h-0.04
						v0.05c-0.03,0-0.05,0.011-0.05,0.04v0.05c-0.03,0-0.04,0.011-0.04,0.04l-0.05,0.051v0.04l-0.08,0.05
						c0,0.03-0.02,0.04-0.05,0.04c0,0.029-0.01,0.05-0.04,0.05c-0.03,0-0.05,0.01-0.05,0.04v0.05c0,0.03-0.01,0.04-0.04,0.04
						l-0.09,0.09v0.05c-0.03,0-0.05,0.011-0.05,0.04h-0.04l-0.09,0.091v0.09h-0.05v0.05l-0.13,0.13v0.05l-0.04,0.04v0.04h-0.05
						v0.101l-0.05,0.04v0.039h-0.04v0.051h-0.04v0.09l-0.05,0.04v0.05c-0.03,0-0.04,0.01-0.04,0.04l-0.05,0.05v0.04l-0.04,0.05v0.09
						c0,0.03-0.02,0.04-0.05,0.04h-0.04c0,0.03-0.02,0.051-0.05,0.051v0.18h-0.04v0.13c-0.03,0-0.05,0.01-0.05,0.04v0.14h-0.04v0.71
						h0.04v0.141h0.14v0.04l0.04,0.05h0.05v0.04h0.09c0.03,0,0.06,0.02,0.09,0.05h0.09v0.04c0.03,0.03,0.06,0.05,0.09,0.05
						s0.04,0.011,0.04,0.04c0.06,0,0.12,0.021,0.18,0.05h0.05c0.02,0.03,0.06,0.04,0.08,0.04V24.4h0.14c0.03,0,0.06,0.01,0.09,0.04
						c0.03,0,0.04,0.02,0.04,0.05h0.14v0.04c0.03,0,0.06,0.02,0.09,0.05c0.03,0,0.07,0.01,0.13,0.04h0.05v0.05h0.13v0.04h0.09
						l0.04,0.05h0.14c0,0.03,0.01,0.04,0.04,0.04l0.09,0.05c0.03,0.03,0.06,0.04,0.09,0.04h0.14v0.051h0.04l0.05,0.04
						c0,0.029,0.01,0.05,0.04,0.05h0.09l0.05,0.04c0.03,0,0.06,0.02,0.09,0.05c0.06,0,0.1,0.01,0.13,0.04
						c0.03,0,0.06,0.02,0.09,0.05h0.04l0.05,0.04l0.09,0.05c0,0.03,0.01,0.04,0.04,0.04h0.05l0.04,0.04h0.14l0.09,0.09
						c0.06,0,0.1,0.021,0.13,0.05h0.14v0.04c0.03,0,0.06,0.021,0.09,0.051h0.09c0.03,0,0.06,0.01,0.09,0.04
						c0.03,0,0.04,0.02,0.04,0.05h0.09v0.04h0.14v0.05c0.03,0,0.06,0.01,0.09,0.04h0.08c0.03,0,0.06,0.02,0.09,0.05v0.04h0.09
						c0.03,0,0.06,0.021,0.09,0.05c0.03,0,0.06,0.011,0.09,0.04h0.14v0.05h0.05v0.04c0.03,0,0.06,0.021,0.09,0.051h0.09l0.04,0.04
						c0.03,0,0.05,0.02,0.05,0.05v0.04h0.67v-0.04c0.03,0,0.04-0.021,0.04-0.05v-0.58h0.05V25.52l0.04-0.05v-0.31
						c0.03-0.03,0.06-0.04,0.09-0.04v-0.18c0.03,0,0.05-0.021,0.05-0.051v-0.13c0-0.029,0.01-0.05,0.04-0.05v-0.09l0.05-0.04v-0.09
						c0.03,0,0.04-0.021,0.04-0.05V24.4l0.05-0.04V24.27c0-0.029,0.01-0.05,0.04-0.05c0-0.02,0.02-0.04,0.05-0.04V24h0.04l0.04-0.04
						v-0.05h0.05v-0.09l0.04-0.04v-0.05c0-0.03,0.02-0.04,0.05-0.04V23.6h0.09v-0.14l0.04-0.04v-0.05h0.05l0.04-0.04v-0.05
						c0-0.03,0.02-0.04,0.05-0.04v-0.05l0.04-0.091c0.03,0,0.05-0.01,0.05-0.04c0.03,0,0.04-0.02,0.04-0.05v-0.09l0.05-0.04h0.04
						v-0.05c0-0.03,0.02-0.04,0.05-0.04l0.04-0.05V22.7l0.04-0.05V22.56c0.03,0,0.05-0.01,0.05-0.04c0.03,0,0.04-0.02,0.04-0.05
						v-0.04h0.05v-0.05h0.04v-0.13l0.09-0.04v-0.09l0.14-0.101V21.98c0-0.03,0.01-0.04,0.04-0.04V21.84h0.05V21.8l0.09-0.09v-0.13
						l0.04-0.04c0.03,0,0.05-0.021,0.05-0.05v-0.04h0.04V21.4c0-0.03,0.02-0.04,0.05-0.04V21.31l0.04-0.04v-0.05l0.05-0.05v-0.04
						h0.04V21c0-0.03,0.02-0.05,0.05-0.05v-0.09l0.09-0.091V20.73l0.04-0.051v-0.13h0.09c0-0.03,0.02-0.05,0.05-0.05v-0.22
						c0.03,0,0.04-0.021,0.04-0.05c0.03,0,0.05-0.011,0.05-0.04l0.04-0.051v-0.09l0.05-0.04v-0.09h0.09v-0.05l0.04-0.04v-0.22h7
						c0,0.02,0.01,0.04,0.04,0.04v0.13c0,0.029,0.02,0.05,0.05,0.05v0.22c0.03,0,0.04,0.021,0.04,0.05v0.131h0.05v0.319h0.04v0.4
						h0.05V21c0.02,0,0.04,0.01,0.04,0.04v0.41l0.05,0.04v0.18h0.04v0.22l0.04,0.04v0.23l0.05,0.04v0.359
						c0,0.03,0.02,0.051,0.04,0.051v0.27h0.05c0,0.03,0.01,0.04,0.04,0.04v0.36h0.05v0.13c0,0.03,0.01,0.05,0.04,0.05v0.09
						l0.05,0.04v0.141c0.03,0,0.04,0.01,0.04,0.039v0.32h0.05v0.18c0.03,0,0.04,0.011,0.04,0.04V24.4l0.05,0.05v0.13l0.04,0.05v0.08
						h0.05v0.09l0.04,0.05v0.131l0.05,0.05v0.18h0.04v0.09l0.05,0.04v0.101l0.05,0.04v0.13l0.04,0.04v0.09
						c0,0.029,0.02,0.05,0.05,0.05v0.09l0.04,0.04v0.09c0.03,0,0.05,0.021,0.05,0.05v0.181c0,0.029,0.01,0.04,0.04,0.04v0.05
						l0.05,0.04v0.18l0.04,0.05v0.131h0.05v0.18c0.02,0,0.04,0.02,0.04,0.05h0.05v0.09l0.04,0.04v0.271h0.04v0.09
						c0.03,0,0.05,0.01,0.05,0.05v0.17l0.04,0.05v0.09l0.05,0.051v0.31h0.09v0.271l0.04,0.04v0.09c0,0.029,0.02,0.05,0.05,0.05v0.09
						c0,0.03,0.01,0.04,0.04,0.04v0.09c0.03,0,0.05,0.01,0.05,0.04v0.09h0.04v0.23l0.09,0.09v0.18h0.05v0.09
						c0,0.03,0.01,0.051,0.04,0.051v0.04l0.05,0.04v0.09h0.04v0.14h0.05v0.271h0.09v0.31h0.04v0.18h0.05v0.181
						c0,0.029,0.01,0.05,0.04,0.05v0.17l0.04,0.05c0,0.03,0.02,0.04,0.05,0.04v0.19c0.03,0,0.04,0.01,0.04,0.04h0.05v0.31h0.89
						c0.03-0.03,0.08-0.05,0.14-0.05v-0.04h0.27c0.03-0.03,0.07-0.05,0.13-0.05c0.03,0,0.06-0.011,0.09-0.04h0.09v-0.05
						c0.03-0.03,0.06-0.04,0.09-0.04h0.14l0.09-0.051c0.02-0.02,0.05-0.04,0.08-0.04V31.3h0.14c0.06,0,0.12-0.01,0.18-0.04v-0.05
						h0.09v-0.04c0.09-0.03,0.18-0.05,0.27-0.05h0.13l0.05-0.04h0.05c0.03-0.03,0.06-0.04,0.09-0.04c0-0.04,0.01-0.05,0.04-0.05
						h0.09c0.06-0.03,0.1-0.04,0.13-0.04c0.03,0,0.06-0.021,0.09-0.05h0.09c0.03-0.03,0.06-0.04,0.09-0.04
						c0-0.03,0.03-0.051,0.09-0.051h0.05c0.03,0,0.06-0.02,0.09-0.04h0.04c0.03-0.029,0.06-0.05,0.09-0.05h0.05
						c0.06-0.029,0.1-0.04,0.13-0.04c0.06-0.029,0.11-0.05,0.13-0.05c0.03,0,0.08-0.01,0.14-0.04h0.09l0.04-0.05
						c0.03-0.03,0.06-0.04,0.09-0.04h0.14c0.03-0.03,0.06-0.05,0.09-0.05c0.03-0.03,0.06-0.04,0.09-0.04h0.04
						c0.03-0.03,0.06-0.05,0.09-0.05h0.05l0.04-0.04h0.09c0.03-0.03,0.06-0.051,0.09-0.051V30.23c0.06-0.03,0.11-0.051,0.13-0.051
						h0.14l0.09-0.09h0.04c0.03-0.03,0.06-0.04,0.09-0.04c0.06-0.03,0.11-0.05,0.14-0.05h0.13l0.05-0.04
						c0.03-0.03,0.06-0.05,0.09-0.05h0.04c0.06-0.03,0.1-0.04,0.13-0.04c0.03,0,0.06-0.021,0.09-0.05h0.05
						c0.09-0.03,0.18-0.04,0.27-0.04v-0.09h0.22V29.6h0.05v-0.63l-0.05-0.04c-0.03-0.029-0.06-0.05-0.09-0.05v-0.04
						c-0.03,0-0.04-0.01-0.04-0.05h-0.05v-0.04c0-0.03-0.01-0.04-0.04-0.04v-0.05c0-0.03-0.02-0.04-0.05-0.04v-0.14l-0.04-0.04
						V28.39l-0.09-0.04v-0.18h-0.04v-0.05c-0.03,0-0.05-0.01-0.05-0.04v-0.05c-0.03,0-0.04-0.011-0.04-0.04V27.9l-0.05-0.051v-0.18
						h-0.04v-0.04c-0.03,0-0.05-0.02-0.05-0.05v-0.09l-0.04-0.04V27.4c0-0.03-0.02-0.04-0.05-0.04V27.27l-0.04-0.09
						c-0.03,0-0.05-0.02-0.05-0.05v-0.09c-0.03,0-0.04-0.01-0.04-0.04v-0.13l-0.05-0.05c0-0.03-0.01-0.04-0.04-0.04v-0.13h-0.05
						V26.6c-0.03,0-0.04-0.02-0.04-0.05v-0.09l-0.05-0.04v-0.09l-0.04-0.09v-0.09h-0.04V25.93h-0.05v-0.09l-0.04-0.05v-0.13
						c-0.03,0-0.05-0.021-0.05-0.05c-0.03,0-0.04-0.011-0.04-0.04V25.39l-0.09-0.09v-0.09h-0.05v-0.18h-0.04v-0.05l-0.05-0.091V24.8
						h-0.04v-0.13c-0.03,0-0.05-0.02-0.05-0.05v-0.17l-0.09-0.05V24.09h-0.04v-0.04L42.463,24v-0.04l-0.04-0.05v-0.13
						c-0.03,0-0.05-0.021-0.05-0.05v-0.04h-0.04v-0.23c-0.03,0-0.05-0.01-0.05-0.04l-0.04-0.05v-0.22l-0.05-0.051v-0.04l-0.04-0.05
						v-0.13l-0.05-0.05v-0.22l-0.04-0.051v-0.04c-0.03,0-0.05-0.02-0.05-0.05V22.03c-0.02,0-0.04-0.021-0.04-0.05l-0.04-0.04v-0.5
						h-0.05V21.13c-0.03,0-0.04-0.01-0.04-0.05V20.77l-0.05-0.039v-0.4h-0.04v-0.41h-0.05v-1.25h0.05c0.23-0.04,0.46-0.05,0.67-0.05
						v-0.63h-0.36V16.64l0.04-0.04c0-0.029,0.02-0.05,0.05-0.05h0.04l0.05-0.04c0-0.029,0.01-0.05,0.04-0.05h0.05l0.04-0.04
						c0.03,0,0.05-0.02,0.05-0.05h0.04l0.05-0.04c0.03,0,0.04-0.02,0.04-0.051c0.03,0,0.06-0.01,0.09-0.039h0.05l0.04-0.051
						c0.03-0.02,0.06-0.039,0.09-0.039l0.05-0.051c0.03-0.02,0.06-0.039,0.09-0.039c0.03-0.031,0.06-0.041,0.09-0.041v-0.049h0.09
						l0.04-0.051c0.03,0,0.04-0.01,0.04-0.04c0.03,0,0.06-0.01,0.09-0.04h0.05l0.04-0.05c0.03,0,0.05-0.011,0.05-0.04h0.09
						c0.03-0.029,0.06-0.05,0.09-0.05l0.04-0.04h0.09c0-0.03,0.02-0.051,0.05-0.051l0.04-0.039h0.05c2.21,0,4.42,0.01,6.64,0.039
						c0.021,0,0.04,0.021,0.04,0.051v0.09h0.04v0.04l0.05,0.05c0,0.03,0.01,0.04,0.04,0.04v0.091h0.05v0.09h0.721V15.88
						c6.189,0,12.359,0.021,18.52,0.04l0.04,0.051h0.771V15.75h0.039v-0.09h0.051l0.04-0.051h0.5V14.8c0-0.03,0.01-0.04,0.04-0.04
						v-0.05l0.09-0.09v-0.091h0.05v-0.09h0.04V14.4h0.58V14.27h0.05V12.87c0.03,0,0.04-0.011,0.04-0.04h0.4v0.27
						c0.069,0,0.109,0.021,0.14,0.051h0.27v1.289c-0.029,0.041-0.06,0.051-0.09,0.051v0.72l0.09,0.04h0.181
						c0.21,0,0.399,0.02,0.58,0.05h0.09v0.04h0.63v-2.15c0.03-0.029,0.06-0.039,0.09-0.039V13.1h0.36v-0.27h0.13v-0.45h7.72v0.41
						h0.04c0.03,0,0.05,0.01,0.05,0.04h0.63v-0.04h5.381v-0.63h-0.091v-2.11h-4.489v0.31h-8.65V10.23h2.06V9.6h-0.899V9.561
						l0.09-0.051V9.24h0.9V8.62h-0.091V8.439h-1.84V8.35h-0.22v-0.99h-0.14c-0.09,0-0.19-0.02-0.311-0.049h-0.359V4.71h-0.091V4.35
						h-0.31v-0.99c-0.04,0-0.06-0.01-0.09-0.039h-0.32V3l-0.04-0.04h-0.14V2.91h-0.94v4.76h-0.319v0.27h-0.351V7.721h-26.29v-0.41
						h-6.1v-0.4h-1.52V6.77h0.04V6.73c0-0.03,0.02-0.041,0.05-0.041V6.641c0-0.031,0.01-0.051,0.04-0.051l0.05-0.08l0.04-0.05V6.42
						c0.03,0,0.05-0.02,0.05-0.05h0.04V6.189h0.05V6.1h0.04V5.971h0.05l0.04-0.051V5.83h0.05V5.79h0.04V5.65
						c0-0.03,0.02-0.041,0.05-0.041V5.561h0.04v-0.09h0.05V5.38h0.04V5.34c0-0.029,0.02-0.05,0.05-0.05V5.16
						c0.03,0,0.04-0.01,0.04-0.04V5.07h0.05V4.939l0.04-0.049V4.85h0.05V4.8c0-0.03,0.01-0.04,0.04-0.04V4.67h0.04V4.58h0.05V4.439
						h0.04V4.4l0.05-0.051V4.221c0.03,0,0.04-0.021,0.04-0.051c0.03,0,0.05-0.01,0.05-0.04l0.04-0.09L39.863,4V3.95h0.04V3.859
						l0.05-0.049V3.77l0.04-0.039V3.63l0.05-0.04V3.55h0.04V3.46c0-0.03,0.02-0.05,0.05-0.05V3.37c0-0.03,0.01-0.05,0.04-0.05v-0.18
						h0.05V3.05c0.03-0.03,0.06-0.04,0.09-0.04V2.2h-0.45V2.02c-0.03,0-0.05-0.01-0.05-0.039v-0.5h-0.62v0.629h-3.05v0.451h-4.62
						V1.8h-0.63v0.04h-0.85v0.051h-0.09v0.67c-0.045-0.016-0.095-0.023-0.149-0.023s-0.111,0.008-0.171,0.023V2.43l-0.04-0.05V2.2
						h-0.63V2.52h-1.08V0.67L27.883,0.67z M42.063,15.609V15.57h0.04L42.063,15.609L42.063,15.609z M30.083,17.99v-0.67
						c0.03,0,0.05-0.021,0.05-0.051v-0.18h0.04v-0.13l0.05-0.05v-0.18c0-0.03,0.01-0.04,0.04-0.04V16.55h0.04l0.05-0.09v-0.04h2.82
						c0.03,0,0.05,0.01,0.05,0.04l0.04,0.04h0.05l0.04,0.05c0,0.03,0.02,0.04,0.05,0.04c0.03,0.03,0.06,0.05,0.09,0.05v0.091
						c0.03,0,0.06,0.02,0.09,0.039h0.04c0,0.03,0.02,0.051,0.05,0.051v0.05c0.03,0.02,0.06,0.04,0.09,0.04l0.09,0.04
						c0.03,0,0.04,0.02,0.04,0.05c0.03,0,0.05,0.02,0.05,0.04l0.04,0.05V17.9h-0.09c0,0.029-0.01,0.04-0.04,0.04v0.05h-0.09v0.04
						c-0.03,0.029-0.06,0.05-0.09,0.05c0,0.03-0.02,0.04-0.05,0.04l-0.09,0.09c-0.03,0-0.04,0.021-0.04,0.05l-0.05,0.04h-0.13
						l-0.09,0.09c-0.03,0-0.05,0.021-0.05,0.051l-0.09,0.04v0.05h-0.04l-0.09,0.09h-0.04c0,0.03-0.02,0.04-0.05,0.04v0.05h-0.04
						v0.271h-2.56V18.39h-0.04v-0.18h-0.05v-0.09l-0.04-0.04v-0.09H30.083L30.083,17.99z M28.153,18.39c0-0.029-0.01-0.04-0.04-0.04
						l-0.05-0.05v-1.34h0.32V17c0,0.03,0.01,0.05,0.04,0.05c0,0.03,0.02,0.04,0.05,0.04v0.09c0,0.03,0.01,0.051,0.04,0.051v0.039
						h0.05v0.091l0.04,0.05v0.09h0.05v0.04l0.04,0.05v0.09c0.03,0,0.04,0.011,0.04,0.04c0.03,0,0.05,0.021,0.05,0.05v0.04h0.04
						v0.051l0.09,0.09v0.09l0.05,0.04v0.13h0.04v0.14c0.03,0.03,0.06,0.04,0.09,0.04v0.091l0.05,0.05v0.09h0.04
						c0,0.03,0.02,0.04,0.05,0.04v0.05h0.04v0.04c0,0.03,0.02,0.05,0.05,0.05v0.09h0.09v0.091h-0.63V18.89l-0.09-0.05h-0.05V18.8
						h-0.04c-0.03,0-0.06-0.02-0.09-0.05v-0.04h-0.04l-0.09-0.05v-0.04h-0.09v-0.05l-0.05-0.04v-0.05h-0.04V18.39H28.153
						L28.153,18.39z"/>
				</g>
			</g>
		</g>
	</g>
</g>
<g>
	<g>
		<g>
			<path fill="#7A4621" d="M46.671,25.91l6.299,5.25l13.854,0.42c4.76-0.561,8.678-1.82,11.756-3.779
				c4.059-5.623,7.59-8.435,10.592-8.435c-2.039-0.813-4.371-0.48-7,1c-2.627,1.479-5.295-0.021-8-4.5
				c-2.52-1.68-7.457-0.462-11.5,1.5l4.152-6.5l-12.152,4L46.671,25.91z"/>
		</g>
	</g>
</g>
<g>
	
		<linearGradient id="SVGID_5_" gradientUnits="userSpaceOnUse" x1="-506.6377" y1="56.7041" x2="-505.6369" y2="57.7066" gradientTransform="matrix(34.4275 0 0 14.2748 17493.5879 -794.5581)">
		<stop  offset="0.6071" style="stop-color:#FFF6DA"/>
		<stop  offset="1" style="stop-color:#D6BB7E"/>
	</linearGradient>
	<path fill="url(#SVGID_5_)" d="M60.476,14.366h-3.564l-6.881,14.274h3.199l1.059-2.421h2.864l-0.187,2.421h3.059L60.476,14.366z
		 M57.892,17.961l-0.521,6.063h-2.156L57.892,17.961z M73.857,16.636c0-1.482-1.386-2.27-3.993-2.27
		c-3.229,0-4.709,1.03-5.479,3.681l-1.93,6.651c-0.242,0.78-0.289,1.167-0.289,1.528c0,1.567,1.455,2.414,4.156,2.414
		c1.487,0,2.654-0.257,3.473-0.781c0.879-0.584,1.433-1.482,1.859-3.051l0.459-1.619h-3.059l-0.506,1.758
		c-0.357,1.279-0.811,1.66-1.893,1.66c-0.832,0-1.292-0.303-1.292-0.859c0-0.171,0.056-0.459,0.148-0.82l2.055-7.072
		c0.312-1.049,0.815-1.468,1.821-1.468c0.833,0,1.283,0.302,1.283,0.839c0,0.229-0.069,0.519-0.211,1.068l-0.381,1.378h3.06
		l0.475-1.666C73.787,17.436,73.857,16.996,73.857,16.636z M84.458,14.366h-8.183l-3.892,14.274H80.8l0.6-2.191h-5.309l1.189-4.467
		h4.787l0.6-2.158H77.88l0.91-3.301h5.067L84.458,14.366z"/>
</g>
</svg>
