<?xml version="1.0" encoding="utf-8"?>
<!-- Generator: Adobe Illustrator 16.0.0, SVG Export Plug-In . SVG Version: 6.00 Build 0)  -->
<!DOCTYPE svg PUBLIC "-//W3C//DTD SVG 1.1//EN" "http://www.w3.org/Graphics/SVG/1.1/DTD/svg11.dtd">
<svg version="1.1" id="图层_1" xmlns="http://www.w3.org/2000/svg" xmlns:xlink="http://www.w3.org/1999/xlink" x="0px" y="0px"
	 width="75.833px" height="32px" viewBox="0 0 75.833 32" enable-background="new 0 0 75.833 32" xml:space="preserve">
<rect fill="none" width="75.833" height="32"/>
<g>
	<g>
		<g>
			<g>
				
					<linearGradient id="SVGID_1_" gradientUnits="userSpaceOnUse" x1="-435.5405" y1="287.5293" x2="-436.5405" y2="286.5293" gradientTransform="matrix(74.7526 0 0 -31.085 32627.6152 8936.209)">
					<stop  offset="0" style="stop-color:#BB925B"/>
					<stop  offset="0.3429" style="stop-color:#FFF6DA"/>
					<stop  offset="0.6571" style="stop-color:#FFF1B1"/>
					<stop  offset="1" style="stop-color:#B38B54"/>
				</linearGradient>
				<path fill="url(#SVGID_1_)" d="M37.072,14.253c-0.076,0.051-0.15,0.112-0.226,0.188c-0.174,0.2-0.262,0.45-0.262,0.75
					c0,0.126,0.024,0.375,0.074,0.75c0.025,0.123-0.025,0.199-0.149,0.225c-0.149,0.051-0.399,0.062-0.75,0.037l-0.487-0.037
					c-0.024,0.299-0.087,0.449-0.188,0.449h-0.9c-0.124,0-0.211,0.025-0.26,0.076c-0.077,0.099-0.15,0.174-0.227,0.226
					c-0.174,0.174-0.787,1.298-1.835,3.372c-0.252,0.475-0.277,0.888-0.076,1.238c0.15,0.274,0.35,0.449,0.601,0.523
					c0.5,0.075,1.35,0.075,2.548,0c0.925-0.099,1.638-0.336,2.137-0.711c0.349-0.3,1.574-2.174,3.672-5.624
					c0.125-0.226-0.037-0.712-0.488-1.462L37.072,14.253L37.072,14.253z M72.271,8.256c0.075,0.025,0.226,0.037,0.45,0.037
					c0.148,0,0.324-0.075,0.523-0.225h1.838l0.188,0.336c0.102,0.276,0.15,0.563,0.15,0.863c0,0.325-0.049,0.613-0.15,0.863
					c-0.1,0.225-0.188,0.337-0.262,0.337h-1.65c-0.049-0.024-0.162-0.062-0.338-0.112c-0.074-0.026-0.188-0.038-0.336-0.038
					c-0.15,0-0.3,0.024-0.45,0.076l-0.225,0.075h-1.048l-0.151-0.112h-1.649l-0.15-0.15h-0.788c-0.05,0.176-0.163,0.263-0.336,0.263
					h-1.538c-0.1,0-0.2-0.037-0.301-0.112l-0.112-0.075l-10.832,0.262L54.5,11.181h-0.26l-0.188-0.225H53.79l-0.149,0.225h-2.249
					l-0.301,2.288c-0.024,0.25-0.188,0.425-0.486,0.523l0.262,0.263l0.6,0.075c0.4,0.076,0.587,0.238,0.563,0.488
					c-0.15,0.824-0.188,1.437-0.113,1.837c0.051,0.249,0.063,0.823,0.039,1.724c0,1.049,0,1.699,0,1.949
					c0.049,0.775,0.336,1.6,0.86,2.475c0.101,0.176-0.075,0.35-0.524,0.526c-0.451,0.174-0.926,0.261-1.424,0.261
					c-0.425,0-0.975-0.1-1.65-0.299l-0.936-0.264c-0.027-1.1,0.035-2.111,0.186-3.036c0.052-0.349,0.226-0.962,0.527-1.836
					c0.198-0.599,0.262-1.036,0.187-1.313c-0.05-0.3-0.138-0.612-0.261-0.937c-0.151-0.326-0.252-0.551-0.301-0.674
					c-0.074-0.2,0.111-0.426,0.562-0.677c0.226-0.124,0.448-0.237,0.675-0.336c-0.9-0.05-1.836-0.1-2.813-0.149
					c-1.924-0.051-3.01,0-3.26,0.149c-0.727,0.475-1.676,1.538-2.849,3.187c-0.274,0.35-1.075,1.55-2.399,3.6
					c-0.549,0.799-1.074,1.324-1.575,1.574c-0.374,0.176-1.086,0.299-2.137,0.375c-0.849,0.049-2.086,0.111-3.71,0.188
					c-1.4,0.024-2.274,0.037-2.625,0.037c-0.249,0-0.413-0.074-0.488-0.225c-0.074-0.15-0.098-0.412-0.074-0.787
					c0.05-1.075,0.188-1.85,0.412-2.325c0.1-0.226,0.338-0.661,0.712-1.312c0.376-0.676,0.638-1.075,0.788-1.2
					c0.075-0.099,0.325-0.324,0.75-0.674c0.375-0.451,0.563-1,0.563-1.65c0-0.724-0.313-1.149-0.938-1.275
					c-0.273-0.048-0.974-0.024-2.098,0.075c-1.074,0.05-1.837,0.102-2.286,0.15c-0.75,0.051-1.174,0.175-1.274,0.375
					c-0.2,0.3-0.55,0.539-1.051,0.712l-0.075,1.351c0.125,1.375,0.513,3.186,1.163,5.435c1,3.549,1.913,5.859,2.737,6.934
					c0.349,0.45,0.311,0.787-0.113,1.014c-0.25,0.1-1.162,0.424-2.737,0.974c-1.599,0.574-2.523,0.899-2.773,0.976
					c-0.3,0.074-0.425-0.377-0.375-1.352c-0.224-0.424-0.511-1.036-0.86-1.836c-0.625-1.65-1.176-3.438-1.65-5.36
					c-0.45-1.925-0.775-3.774-0.975-5.548l-0.149-2.062c-0.55-0.199-0.924-0.213-1.126-0.038l-1.686,1.351
					c-0.074,0.074-0.2,0-0.375-0.225c-0.175-0.2-0.287-0.289-0.337-0.262c-0.6,0.224-1.5,0.737-2.699,1.537
					c-1.375,0.976-2.137,1.725-2.288,2.25L8.92,21.075l0.413,0.45c0.274,0.324,0.413,0.539,0.413,0.638
					c0,0.323-0.101,0.576-0.301,0.75c-0.174,0.175-0.425,0.262-0.749,0.262H4.31c-0.276,0-0.55-0.112-0.824-0.337
					c-0.325-0.3-0.575-0.699-0.75-1.199c-0.2-0.649-0.587-2.263-1.163-4.836c-0.574-2.699-0.875-4.348-0.898-4.949
					c-0.025-0.625,0.012-1.074,0.112-1.349c0.075-0.199,0.238-0.437,0.488-0.711c0.25-0.275,0.649-0.6,1.199-0.975
					c0.601-0.401,1.063-0.6,1.386-0.6l23.579-0.487V7.468l0.601-0.45c0.424-0.3,0.725-0.5,0.899-0.599
					c0.274-0.125,0.624-0.188,1.05-0.188l1.423,0.037v-1.91H30.85c0.025,0.274-0.163,0.411-0.562,0.411
					c-0.226,0-0.375-0.062-0.45-0.187l-0.075-0.224h-1.312l-0.188,0.187h-0.449c-0.226-0.325-0.337-0.874-0.337-1.649
					c0-0.751,0.1-1.162,0.299-1.238h0.337l0.225,0.15l1.275-0.037l0.074-0.263c0.075-0.149,0.25-0.225,0.524-0.225
					c0.327,0,0.487,0.15,0.487,0.451l0.375-0.039V1.059l0.712-0.113c0.225,0,0.488,0.025,0.788,0.076V1.47l2.961-0.411
					c2.049-0.274,3.237-0.412,3.56-0.412h1.162l0.524,0.412h0.526V0.833h0.412v0.151h0.75v3.674l-0.75,0.037v0.151h-0.375V4.619
					H39.47l0.3,0.45h0.486c0.351,0.051,0.537,0.138,0.563,0.261l0.15,0.713h1.236v-0.15h0.563v0.15h1.274v-0.15h0.563v0.15h1.273
					v-0.15h0.527v0.15h1.311v-0.15h0.525v0.15h1.312v-0.15h0.524v0.15h1.012l2.662,1.312v0.863l0.675,0.374h11.62l0.188-0.112
					c0.125-0.125,0.224-0.188,0.302-0.188h1.385l0.338,0.299h0.674l0.337-0.188c0.278-0.024,0.765,0,1.463,0.076l0.038-0.148
					c0.075-0.101,0.176-0.151,0.301-0.151h0.937C72.108,8.181,72.196,8.206,72.271,8.256z"/>
			</g>
		</g>
	</g>
</g>
<g>
	<g>
		<g>
			<path fill="#7A4621" d="M32.5,25.91l6.297,5.25l13.855,0.42c4.758-0.561,8.677-1.82,11.756-3.779
				c4.058-5.623,7.588-8.435,10.592-8.435c-2.039-0.813-4.373-0.48-7,1c-2.629,1.479-5.295-0.021-8-4.5
				c-2.52-1.68-7.457-0.462-11.5,1.5l4.152-6.5l-12.152,4L32.5,25.91z"/>
		</g>
	</g>
</g>
<g>
	
		<linearGradient id="SVGID_2_" gradientUnits="userSpaceOnUse" x1="-430.4336" y1="276.7676" x2="-429.4337" y2="275.766" gradientTransform="matrix(34.4275 0 0 -14.2748 14855.9375 3965.6812)">
		<stop  offset="0.6071" style="stop-color:#FFF6DA"/>
		<stop  offset="1" style="stop-color:#D6BB7E"/>
	</linearGradient>
	<path fill="url(#SVGID_2_)" d="M46.305,14.366H42.74l-6.881,14.274h3.199l1.059-2.42h2.864l-0.187,2.42h3.059L46.305,14.366z
		 M43.721,17.961l-0.522,6.062h-2.155L43.721,17.961z M59.685,16.636c0-1.482-1.386-2.27-3.993-2.27c-3.23,0-4.709,1.03-5.48,3.681
		l-1.93,6.651c-0.241,0.78-0.288,1.167-0.288,1.528c0,1.568,1.456,2.414,4.157,2.414c1.486,0,2.654-0.256,3.471-0.78
		c0.88-0.584,1.433-1.483,1.86-3.051l0.46-1.62h-3.06l-0.506,1.758c-0.358,1.279-0.81,1.66-1.892,1.66
		c-0.833,0-1.292-0.303-1.292-0.859c0-0.171,0.055-0.459,0.147-0.82l2.055-7.072c0.313-1.049,0.818-1.469,1.822-1.469
		c0.832,0,1.284,0.302,1.284,0.84c0,0.229-0.07,0.518-0.21,1.068l-0.382,1.378h3.06l0.475-1.666
		C59.615,17.436,59.685,16.996,59.685,16.636z M70.286,14.366h-8.18l-3.893,14.274h8.414l0.6-2.191h-5.309l1.191-4.467h4.787
		l0.6-2.158h-4.787l0.91-3.3h5.067L70.286,14.366z"/>
</g>
</svg>
