<?xml version="1.0" encoding="utf-8"?>
<!-- Generator: Adobe Illustrator 16.0.0, SVG Export Plug-In . SVG Version: 6.00 Build 0)  -->
<!DOCTYPE svg PUBLIC "-//W3C//DTD SVG 1.1//EN" "http://www.w3.org/Graphics/SVG/1.1/DTD/svg11.dtd">
<svg version="1.1" id="图层_1" xmlns="http://www.w3.org/2000/svg" xmlns:xlink="http://www.w3.org/1999/xlink" x="0px" y="0px"
	 width="68.375px" height="32px" viewBox="0 0 68.375 32" enable-background="new 0 0 68.375 32" xml:space="preserve">
<rect fill="none" width="68.375" height="32"/>
<g>
	<g>
		<g>
			
				<linearGradient id="SVGID_1_" gradientUnits="userSpaceOnUse" x1="-266.4131" y1="397.6104" x2="-267.4131" y2="396.6104" gradientTransform="matrix(67.569 0 0 -27.1764 18069.8145 10808.207)">
				<stop  offset="0" style="stop-color:#BB925B"/>
				<stop  offset="0.3429" style="stop-color:#FFF6DA"/>
				<stop  offset="0.6571" style="stop-color:#FFF1B1"/>
				<stop  offset="1" style="stop-color:#B38B54"/>
			</linearGradient>
			<path fill="url(#SVGID_1_)" d="M46.439,18.814c-0.434,0.164-0.746,0.353-0.937,0.57c-0.163,0.243-0.241,0.596-0.241,1.059
				c0,0.652,0.012,1.221,0.039,1.709h1.629v0.813l0.284,0.082c0.216,0.083,0.341,0.147,0.367,0.204
				c0.162,0.216,0.407,0.366,0.731,0.446c0.543,0.163,1.127,0.015,1.75-0.446c0.678-0.488,0.881-1.139,0.61-1.954
				c-0.245-0.707-0.692-1.208-1.343-1.507c-0.163-0.082-0.354-0.299-0.568-0.652l-0.287-0.486c-0.188-0.027-0.408-0.041-0.648-0.041
				C47.282,18.583,46.82,18.652,46.439,18.814z M35.369,21.989c0.434-0.407,0.652-0.855,0.652-1.343
				c0-0.463-0.123-0.937-0.367-1.424l-0.327-0.568h-5.574c-0.706,0.678-1.248,1.193-1.63,1.545c-0.188,0.162-0.27,0.393-0.242,0.691
				c0,0.162,0.026,0.446,0.081,0.854c0,0.924,0.258,1.588,0.773,1.995c0.624,0.515,1.206,0.746,1.75,0.693
				c0.244-0.059,0.828-0.273,1.75-0.651c0.813-0.38,1.451-0.694,1.913-0.937C34.719,22.52,35.125,22.234,35.369,21.989z
				 M55.477,10.511c0.055-0.081-0.055-0.244-0.326-0.489c-3.121,0-5.155,0-6.105,0C48.42,9.996,47.35,9.941,45.83,9.86l-2.159-0.123
				v1.224h11.642c0.027-0.055,0.041-0.11,0.041-0.164C55.41,10.661,55.448,10.565,55.477,10.511z M56.9,9.86
				c-0.082-0.027-0.217-0.027-0.408,0H56.25v0.772l0.326,0.044c0.216,0.082,0.324,0.23,0.324,0.446c0,0.19-0.066,0.368-0.203,0.529
				l-0.204,0.204l0.165,1.994h0.488V10.39c0-0.163-0.013-0.272-0.041-0.326C57.077,9.956,57.008,9.885,56.9,9.86z M67.768,16.9
				c-0.107,0.22-0.299,0.326-0.569,0.326h-5.617l-0.203-0.244c-0.055,0.026-0.121,0.067-0.204,0.123
				c-0.135,0.08-0.203,0.136-0.203,0.162c0,0.027,0.176,0.231,0.528,0.611c0.327,0.432,0.478,0.773,0.449,1.018
				c-0.054,0.326-0.162,1.193-0.326,2.604c-0.134,1.409-0.202,2.226-0.202,2.44c0,0.164-0.057,0.272-0.162,0.326
				c-0.056,0.053-0.191,0.082-0.408,0.082H58.49c-0.108,0-0.204-0.097-0.287-0.285c-0.107-0.219-0.162-0.502-0.162-0.854
				c0-0.461-0.014-0.91-0.041-1.344c-0.057-0.487-0.122-0.771-0.204-0.854c-0.055-0.082-0.462-0.162-1.22-0.244
				c-0.734-0.055-1.154-0.026-1.264,0.082c-0.162,0.162-0.297,0.299-0.405,0.407c-0.191,0.188-0.285,0.366-0.285,0.528
				c-0.028,0.107-0.095,0.842-0.204,2.197c-0.299,1.468-0.869,2.619-1.709,3.461c-0.868,0.895-2.227,1.521-4.068,1.873
				c-1.414,0.27-2.566,0.338-3.461,0.203c-0.543-0.082-0.869-0.177-0.978-0.287c-0.056-0.027-0.056-0.147,0-0.365
				c0.651-2.251,0.95-3.487,0.896-3.703c-0.055-0.189-0.107-0.329-0.164-0.407c-0.106-0.137-0.256-0.204-0.445-0.204
				c-0.163-0.027-0.612-0.041-1.344-0.041c-0.379-0.027-0.774-0.039-1.181-0.039c-0.081,0-0.163,0.065-0.243,0.202
				c-0.084,0.161-0.166,0.285-0.246,0.365c-0.082,0.108-0.406,0.382-0.976,0.815c-0.706,0.568-1.44,1.086-2.197,1.547
				c-2.308,1.438-4.262,2.156-5.863,2.156c-1.544,0-3.201-0.055-4.965-0.164l-2.158-0.203l-0.039-1.344
				c-3.31-1.354-5.197-2.061-5.656-2.115c-0.275-0.027-0.573-0.041-0.896-0.041l-0.408-0.043l-0.325,0.571
				c-0.244,0.354-0.476,0.529-0.694,0.529H1.465c-0.244,0-0.46-0.175-0.65-0.529c-0.136-0.298-0.204-0.622-0.204-0.976V18.45
				c0-1.411-0.026-2.974-0.082-4.683c-0.054-1.358-0.082-2.062-0.082-2.117c0.082-0.515,0.204-0.772,0.368-0.772h20.552
				c0.138,0,0.517-0.068,1.141-0.202c0.597-0.111,1.02-0.165,1.262-0.165h14.653l0.042-1.749c0-0.109,0.217-0.626,0.648-1.547
				c0.436-0.952,0.652-1.52,0.652-1.71c0.027-0.164,0.203-0.34,0.529-0.53c0.163-0.081,0.325-0.149,0.49-0.204
				c0-0.243,0.025-0.487,0.081-0.732c0.079-0.488,0.147-0.774,0.202-0.854c0.354-0.517,0.652-0.775,0.896-0.775
				c0.271,0,0.474,0.148,0.611,0.446c0.055,0.165,0.108,0.395,0.163,0.694c0.054,0.19,0.054,0.597,0,1.22
				c-0.027,0-0.069,0.015-0.122,0.042c-0.056,0.054-0.083,0.149-0.083,0.285V5.99h11.559l1.465-0.854
				c0.272,0,0.408-0.093,0.408-0.284v-0.65h-0.244V3.186l0.203-0.205l0.448-0.284l0.937-0.082c0.053,0,0.108,0.068,0.162,0.204
				c0.028,0.107,0.043,0.23,0.043,0.367v1.79l0.162,0.608c0.135,0.383,0.232,0.586,0.284,0.612c0.11,0.027,0.476,0.027,1.101,0
				c1.627,1.764,2.482,2.687,2.563,2.769c0.19,0.244,0.286,0.501,0.286,0.772v4.397h5.576l0.244,0.244
				c0.188,0.245,0.285,0.625,0.285,1.139C68.014,16.196,67.93,16.658,67.768,16.9z"/>
		</g>
	</g>
</g>
<g>
	<g>
		<g>
			<path fill="#7A4621" d="M25.5,26.477l6.298,5.25l13.854,0.42c4.759-0.56,8.678-1.819,11.756-3.778
				c4.059-5.624,7.589-8.435,10.592-8.435c-2.039-0.814-4.372-0.48-7,1c-2.628,1.479-5.295-0.021-8-4.5
				c-2.52-1.68-7.457-0.462-11.5,1.5l4.152-6.5l-12.152,4L25.5,26.477z"/>
		</g>
	</g>
</g>
<g>
	
		<linearGradient id="SVGID_2_" gradientUnits="userSpaceOnUse" x1="-263.6357" y1="384.1289" x2="-262.6357" y2="383.1273" gradientTransform="matrix(34.4275 0 0 -14.2748 9106.4863 5498.8311)">
		<stop  offset="0.6071" style="stop-color:#FFF6DA"/>
		<stop  offset="1" style="stop-color:#D6BB7E"/>
	</linearGradient>
	<path fill="url(#SVGID_2_)" d="M39.305,14.933H35.74l-6.881,14.275h3.199l1.059-2.421h2.864l-0.186,2.421h3.059L39.305,14.933z
		 M36.721,18.527l-0.521,6.063h-2.156L36.721,18.527z M52.686,17.203c0-1.483-1.387-2.27-3.994-2.27c-3.23,0-4.709,1.03-5.479,3.68
		l-1.931,6.652c-0.24,0.78-0.287,1.167-0.287,1.528c0,1.567,1.455,2.414,4.156,2.414c1.486,0,2.654-0.256,3.471-0.78
		c0.881-0.584,1.434-1.483,1.861-3.051l0.459-1.621h-3.059l-0.506,1.759c-0.358,1.279-0.811,1.659-1.893,1.659
		c-0.832,0-1.291-0.301-1.291-0.859c0-0.17,0.055-0.459,0.147-0.82l2.055-7.071c0.312-1.05,0.817-1.47,1.821-1.47
		c0.833,0,1.285,0.303,1.285,0.84c0,0.23-0.07,0.519-0.211,1.069L48.91,20.24h3.059l0.475-1.666
		C52.615,18.003,52.686,17.563,52.686,17.203z M63.287,14.933h-8.182l-3.892,14.275h8.414l0.6-2.191h-5.309l1.19-4.468h4.787
		l0.6-2.158h-4.787l0.91-3.299h5.068L63.287,14.933z"/>
</g>
</svg>
