<?xml version="1.0" encoding="utf-8"?>
<!-- Generator: Adobe Illustrator 16.0.0, SVG Export Plug-In . SVG Version: 6.00 Build 0)  -->
<!DOCTYPE svg PUBLIC "-//W3C//DTD SVG 1.1//EN" "http://www.w3.org/Graphics/SVG/1.1/DTD/svg11.dtd">
<svg version="1.1" id="图层_1" xmlns="http://www.w3.org/2000/svg" xmlns:xlink="http://www.w3.org/1999/xlink" x="0px" y="0px"
	 width="92px" height="32.5px" viewBox="0 0 92 32.5" enable-background="new 0 0 92 32.5" xml:space="preserve">
<rect fill="none" width="92" height="32.5"/>
<g>
	<g>
		<g>
			
				<linearGradient id="SVGID_1_" gradientUnits="userSpaceOnUse" x1="-511.1187" y1="31.5332" x2="-512.1186" y2="32.5331" gradientTransform="matrix(74.084 0 0 25.719 37948.2344 -805.0176)">
				<stop  offset="0.2512" style="stop-color:#FF0000"/>
				<stop  offset="0.5665" style="stop-color:#FFD400"/>
				<stop  offset="0.8571" style="stop-color:#000000"/>
			</linearGradient>
			<path fill="url(#SVGID_1_)" d="M55.319,5.819v1.09l-1.91-1.81v1.18l-1.771-1.77l-0.149,1.21l-1.891-1.74l-0.17,1.24
				c-0.17,0.06-0.34-0.01-0.51-0.19l-0.84-1.24l-2.73-0.37l0.91,1.16c0.101,0.31,0.021,0.54-0.25,0.67l-2.55-1.86
				c-0.36,0.19-0.96,0.54-1.8,1.03c-0.71,0.41-1.29,0.73-1.73,0.96c-0.11,0.06-0.23,0.11-0.34,0.17c-0.97,0.47-2.05,0.87-3.24,1.22
				c-0.4,0.12-0.81,0.23-1.23,0.34c-0.94,0.24-1.99,0.42-3.16,0.53c-0.71,0.08-1.77,0.15-3.16,0.22c-1.42,0.07-2.48,0.14-3.18,0.21
				c-0.91,0.09-1.75,0.21-2.52,0.37c-0.24,0.04-0.47,0.1-0.7,0.15c-4.55,1.08-8.41,2.45-11.59,4.13c-1.05,0.56-2.06,1.16-3.01,1.82
				c-1.77,1.2-3.36,2.561-4.79,4.09c-0.65,0.71-1.15,1.49-1.52,2.36c-0.33,0.8-0.5,1.55-0.5,2.26c0,1.62,0.57,3,1.71,4.14
				c1.15,1.15,2.53,1.721,4.15,1.721c1.62,0,3-0.57,4.14-1.721c0.15-0.16,0.26-0.279,0.34-0.359c0.45-0.45,0.8-1,1.05-1.65
				c0.17-0.42,0.32-1,0.45-1.72c0.15-0.78,0.26-1.3,0.34-1.55c0.17-0.5,0.42-0.881,0.75-1.12c1.52-1.15,3.51-1.86,5.96-2.12
				c1.23-0.12,2.3-0.141,3.22-0.04c0.84-0.67,1.87-1.34,3.1-2.021c2.45-1.35,4.63-2.02,6.55-2.03c1.41-0.01,2.52,0.31,3.31,0.97
				c0.32,0.26,0.61,0.59,0.87,0.99c0.17,0.25,0.38,0.63,0.63,1.13c2.01-0.021,4.01-1.08,5.99-3.18l1.85-0.23l0.3-0.36
				c10.08,0.27,19.88,4.64,29.37,13.089C73.779,17.509,67.188,10.379,55.319,5.819z M9.729,26.289c-0.81,0.81-1.8,1.22-2.95,1.22
				c-1.16,0-2.14-0.41-2.96-1.22c-0.81-0.82-1.22-1.8-1.22-2.95c0-1.16,0.41-2.14,1.22-2.96c0.82-0.82,1.8-1.22,2.96-1.22
				c1.15,0,2.14,0.399,2.95,1.22c0.82,0.82,1.23,1.8,1.23,2.96C10.959,24.489,10.549,25.469,9.729,26.289z M49.559,8.859
				c-0.26,0.25-0.56,0.38-0.92,0.38c-0.359,0-0.67-0.13-0.92-0.38c-0.26-0.26-0.38-0.57-0.38-0.92c0-0.36,0.12-0.67,0.38-0.92
				c0.25-0.26,0.561-0.39,0.92-0.39c0.36,0,0.66,0.13,0.92,0.39c0.25,0.25,0.38,0.56,0.38,0.92
				C49.938,8.289,49.809,8.599,49.559,8.859z M52.499,9.419c-0.21,0.2-0.45,0.31-0.74,0.31c-0.28,0-0.53-0.11-0.74-0.31
				c-0.199-0.21-0.3-0.45-0.3-0.74c0-0.28,0.101-0.53,0.3-0.73c0.21-0.21,0.46-0.31,0.74-0.31c0.29,0,0.53,0.1,0.74,0.31
				c0.2,0.2,0.3,0.45,0.3,0.73C52.799,8.969,52.699,9.209,52.499,9.419z M55.199,10.219c-0.181,0.17-0.38,0.25-0.63,0.25
				c-0.24,0-0.45-0.08-0.631-0.25c-0.17-0.18-0.26-0.39-0.26-0.63c0-0.25,0.09-0.45,0.26-0.63c0.181-0.17,0.391-0.26,0.631-0.26
				c0.239,0,0.449,0.09,0.63,0.26c0.17,0.18,0.26,0.38,0.26,0.63C55.459,9.829,55.369,10.039,55.199,10.219z"/>
		</g>
	</g>
	<g>
		
			<linearGradient id="SVGID_2_" gradientUnits="userSpaceOnUse" x1="-846.3081" y1="43.6523" x2="-847.1243" y2="43.6523" gradientTransform="matrix(32.5215 -11.5518 4.4024 12.394 27366.7031 -10308.5566)">
			<stop  offset="0" style="stop-color:#00FFFF"/>
			<stop  offset="0.6495" style="stop-color:#FFE3A0"/>
		</linearGradient>
		<path fill="url(#SVGID_2_)" d="M23.099,8.439c-0.24,0.04-0.47,0.1-0.7,0.15c-4.55,1.08-8.41,2.45-11.59,4.13
			c-1.05,0.56-2.06,1.16-3.01,1.82c10.43-2.69,19.77-2.82,28-0.4C31.789,11.689,27.549,9.779,23.099,8.439z"/>
	</g>
	<g>
		<linearGradient id="SVGID_3_" gradientUnits="userSpaceOnUse" x1="46.0327" y1="8.0386" x2="36.3518" y2="8.0386">
			<stop  offset="0" style="stop-color:#00FFFF"/>
			<stop  offset="0.8219" style="stop-color:#FFE3A0"/>
		</linearGradient>
		<path fill="url(#SVGID_3_)" d="M45.459,10.529c-2.81-1.57-5.85-2.82-9.11-3.76c1.19-0.35,2.27-0.75,3.24-1.22
			C41.649,7.059,43.609,8.709,45.459,10.529z"/>
	</g>
	<g>
		<g>
			<g>
				<linearGradient id="SVGID_4_" gradientUnits="userSpaceOnUse" x1="27.8203" y1="42.1416" x2="50.7271" y2="2.466">
					<stop  offset="0" style="stop-color:#BB925B"/>
					<stop  offset="0.3429" style="stop-color:#FFF6DA"/>
					<stop  offset="0.6571" style="stop-color:#FFF1B1"/>
					<stop  offset="1" style="stop-color:#B38B54"/>
				</linearGradient>
				<path fill="url(#SVGID_4_)" d="M43.386,4.573l2.034,1.483c0.174,0.127,0.381,0.192,0.589,0.192c0.147,0,0.295-0.033,0.433-0.099
					c0.594-0.285,0.904-0.833,0.854-1.458l0.206,0.028l0.589,0.87c0.021,0.03,0.043,0.06,0.067,0.087
					c-0.439,0.09-0.829,0.304-1.133,0.621c-0.449,0.433-0.687,1-0.687,1.641c0,0.625,0.232,1.187,0.673,1.627
					c0.439,0.44,1.003,0.673,1.627,0.673c0.513,0,0.975-0.154,1.394-0.474c0.082,0.13,0.181,0.256,0.296,0.377
					c0.402,0.384,0.897,0.586,1.431,0.586c0.391,0,0.761-0.109,1.102-0.331c0.087,0.182,0.205,0.353,0.352,0.508
					c0.013,0.014,0.027,0.028,0.042,0.042c0.362,0.341,0.817,0.521,1.315,0.521c0.505,0,0.947-0.175,1.315-0.521
					c0.014-0.014,0.027-0.027,0.041-0.042c0.349-0.369,0.533-0.824,0.533-1.317c0-0.5-0.18-0.943-0.533-1.317
					c-0.014-0.014-0.027-0.028-0.041-0.042c-0.143-0.134-0.297-0.243-0.461-0.327c0.098-0.01,0.196-0.036,0.291-0.076
					c0.252-0.108,0.442-0.313,0.537-0.559c9.517,3.949,15.317,9.755,17.287,17.296C64.57,17.209,55.226,13.354,45.726,13.1
					c-0.009,0-0.018,0-0.027,0c-0.296,0-0.578,0.131-0.768,0.359l-0.048,0.057l-1.458,0.182c-0.231,0.028-0.444,0.137-0.604,0.306
					c-1.573,1.668-3.143,2.615-4.677,2.823c-0.144-0.265-0.268-0.473-0.377-0.632c-0.315-0.486-0.678-0.896-1.067-1.212
					c-0.955-0.798-2.264-1.203-3.889-1.203h-0.068c-2.089,0.011-4.453,0.736-7.029,2.155c-1.142,0.631-2.101,1.244-2.919,1.864
					c-0.309-0.022-0.635-0.033-0.974-0.033c-0.622,0-1.289,0.036-2.049,0.11c-2.621,0.277-4.793,1.057-6.441,2.305
					c-0.496,0.359-0.87,0.9-1.115,1.625c-0.071,0.22-0.15,0.561-0.27,1.156c-0.083-1.264-0.59-2.368-1.506-3.285
					c-0.994-1.006-2.226-1.517-3.662-1.517c-0.946,0-1.807,0.224-2.573,0.667c1.258-1.28,2.654-2.443,4.164-3.466
					c0.864-0.6,1.815-1.176,2.907-1.757c3.07-1.622,6.89-2.981,11.334-4.037l0.23-0.052c0.139-0.032,0.278-0.065,0.462-0.096
					c0.712-0.148,1.502-0.264,2.416-0.354c0.687-0.068,1.739-0.138,3.131-0.207c1.507-0.076,2.53-0.147,3.203-0.223
					c1.192-0.112,2.307-0.299,3.32-0.558c0.432-0.113,0.852-0.226,1.259-0.348c1.291-0.38,2.401-0.799,3.437-1.302
					c0.039-0.021,0.081-0.041,0.122-0.06c0.074-0.035,0.148-0.071,0.202-0.101c0.483-0.252,1.077-0.582,1.771-0.982
					C42.624,5.014,43.046,4.767,43.386,4.573 M50.183,5.875l0.63,0.579c0.132,0.122,0.292,0.203,0.461,0.241
					c-0.199,0.048-0.389,0.126-0.564,0.233c-0.109-0.224-0.258-0.431-0.442-0.616c-0.095-0.094-0.192-0.179-0.295-0.254
					C50.051,6.007,50.121,5.946,50.183,5.875 M54.029,7.063l0.603,0.571c0.026,0.024,0.054,0.048,0.081,0.069
					c-0.047-0.003-0.096-0.005-0.144-0.005c-0.323,0-0.63,0.08-0.908,0.233c-0.097-0.246-0.242-0.472-0.435-0.67
					c0.061,0.011,0.121,0.017,0.183,0.017c0.129,0,0.259-0.025,0.383-0.076C53.879,7.167,53.958,7.12,54.029,7.063 M43.459,3.389
					c-0.36,0.19-0.96,0.54-1.8,1.03c-0.71,0.41-1.29,0.73-1.73,0.96c-0.11,0.06-0.23,0.11-0.34,0.17c-0.97,0.47-2.05,0.87-3.24,1.22
					c-0.4,0.12-0.81,0.23-1.23,0.34c-0.94,0.24-1.99,0.42-3.16,0.53c-0.71,0.08-1.77,0.15-3.16,0.22c-1.42,0.07-2.48,0.14-3.18,0.21
					c-0.91,0.09-1.75,0.21-2.52,0.37c-0.24,0.04-0.47,0.1-0.7,0.15c-4.55,1.08-8.41,2.45-11.59,4.13c-1.05,0.56-2.06,1.16-3.01,1.82
					c-1.77,1.2-3.36,2.561-4.79,4.09c-0.65,0.71-1.15,1.49-1.52,2.36c-0.33,0.8-0.5,1.55-0.5,2.26c0,1.62,0.57,3,1.71,4.14
					c1.15,1.15,2.53,1.721,4.15,1.721c1.62,0,3-0.57,4.14-1.721c0.15-0.16,0.26-0.279,0.34-0.359c0.45-0.45,0.8-1,1.05-1.65
					c0.17-0.42,0.32-1,0.45-1.72c0.15-0.78,0.26-1.3,0.34-1.55c0.17-0.5,0.42-0.881,0.75-1.12c1.52-1.15,3.51-1.86,5.96-2.12
					c0.699-0.068,1.346-0.104,1.943-0.104c0.454,0,0.879,0.021,1.277,0.064c0.84-0.67,1.87-1.34,3.1-2.021
					c2.45-1.35,4.63-2.02,6.55-2.03c0.021,0,0.042,0,0.063,0c1.38,0,2.469,0.32,3.248,0.97c0.32,0.26,0.61,0.59,0.87,0.99
					c0.17,0.25,0.38,0.63,0.63,1.13c2.01-0.021,4.01-1.08,5.99-3.18l1.85-0.23l0.3-0.36c10.08,0.27,19.88,4.64,29.37,13.089
					c-1.29-9.68-7.881-16.81-19.75-21.37v1.09l-1.91-1.81v1.18l-1.771-1.77l-0.149,1.21l-1.891-1.74l-0.17,1.24
					c-0.04,0.014-0.08,0.021-0.12,0.021c-0.13,0-0.26-0.073-0.39-0.211l-0.84-1.24l-2.73-0.37l0.91,1.16
					c0.101,0.31,0.021,0.54-0.25,0.67L43.459,3.389L43.459,3.389z M48.639,9.239c-0.359,0-0.67-0.13-0.92-0.38
					c-0.26-0.26-0.38-0.57-0.38-0.92c0-0.36,0.12-0.67,0.38-0.92c0.25-0.26,0.561-0.39,0.92-0.39c0.36,0,0.66,0.13,0.92,0.39
					c0.25,0.25,0.38,0.56,0.38,0.92c0,0.35-0.13,0.66-0.38,0.92C49.299,9.109,48.999,9.239,48.639,9.239L48.639,9.239z
					 M51.759,9.729c-0.28,0-0.53-0.11-0.74-0.31c-0.199-0.21-0.3-0.45-0.3-0.74c0-0.28,0.101-0.53,0.3-0.73
					c0.21-0.21,0.46-0.31,0.74-0.31c0.29,0,0.53,0.1,0.74,0.31c0.2,0.2,0.3,0.45,0.3,0.73c0,0.29-0.1,0.53-0.3,0.74
					C52.289,9.619,52.049,9.729,51.759,9.729L51.759,9.729z M54.569,10.469c-0.24,0-0.45-0.08-0.631-0.25
					c-0.17-0.18-0.26-0.39-0.26-0.63c0-0.25,0.09-0.45,0.26-0.63c0.181-0.17,0.391-0.26,0.631-0.26c0.239,0,0.449,0.09,0.63,0.26
					c0.17,0.18,0.26,0.38,0.26,0.63c0,0.24-0.09,0.45-0.26,0.63C55.019,10.389,54.819,10.469,54.569,10.469L54.569,10.469z
					 M6.779,27.509c-1.16,0-2.14-0.41-2.96-1.22c-0.81-0.82-1.22-1.8-1.22-2.95c0-1.16,0.41-2.14,1.22-2.96
					c0.82-0.82,1.8-1.22,2.96-1.22c1.15,0,2.14,0.399,2.95,1.22c0.82,0.82,1.23,1.8,1.23,2.96c0,1.15-0.41,2.13-1.23,2.95
					C8.919,27.099,7.929,27.509,6.779,27.509L6.779,27.509z"/>
			</g>
		</g>
	</g>
</g>
<g>
	<g>
		<g>
			<path fill="#7A4621" d="M54.167,27.297l5.631,4.694l12.388,0.375c4.256-0.501,7.758-1.626,10.513-3.378
				c3.628-5.028,6.784-7.543,9.47-7.543c-1.822-0.728-3.909-0.43-6.259,0.895c-2.351,1.324-4.734-0.018-7.152-4.023
				c-2.253-1.502-6.668-0.412-10.282,1.343l3.713-5.813L61.32,17.422L54.167,27.297z"/>
		</g>
	</g>
</g>
<linearGradient id="SVGID_5_" gradientUnits="userSpaceOnUse" x1="-502.6436" y1="63.377" x2="-501.6445" y2="64.3777" gradientTransform="matrix(30.7822 0 0 12.7634 15530.8086 -791.4448)">
	<stop  offset="0.6071" style="stop-color:#FFF6DA"/>
	<stop  offset="1" style="stop-color:#D6BB7E"/>
</linearGradient>
<path fill="url(#SVGID_5_)" d="M66.51,16.977h-3.188L57.17,29.738h2.861l0.945-2.164h2.562l-0.167,2.164h2.734L66.51,16.977z
	 M64.199,20.189l-0.467,5.42h-1.928L64.199,20.189z M78.475,19.005c0-1.325-1.24-2.028-3.57-2.028c-2.889,0-4.211,0.92-4.899,3.289
	l-1.728,5.947c-0.215,0.699-0.258,1.045-0.258,1.367c0,1.402,1.304,2.158,3.717,2.158c1.33,0,2.373-0.229,3.104-0.697
	c0.786-0.521,1.28-1.326,1.663-2.729l0.41-1.448H74.18l-0.453,1.571c-0.319,1.145-0.723,1.483-1.689,1.483
	c-0.745,0-1.155-0.271-1.155-0.769c0-0.151,0.05-0.41,0.132-0.732l1.838-6.323c0.278-0.938,0.73-1.313,1.629-1.313
	c0.744,0,1.147,0.271,1.147,0.752c0,0.205-0.063,0.463-0.188,0.955l-0.342,1.231h2.735l0.425-1.489
	C78.41,19.721,78.475,19.328,78.475,19.005z M87.953,16.977h-7.314l-3.479,12.763h7.522l0.535-1.959h-4.746l1.064-3.994h4.281
	l0.535-1.931h-4.279l0.813-2.949h4.53L87.953,16.977z"/>
</svg>
