<?xml version="1.0" encoding="utf-8"?>
<!-- Generator: Adobe Illustrator 16.0.0, SVG Export Plug-In . SVG Version: 6.00 Build 0)  -->
<!DOCTYPE svg PUBLIC "-//W3C//DTD SVG 1.1//EN" "http://www.w3.org/Graphics/SVG/1.1/DTD/svg11.dtd">
<svg version="1.1" id="图层_1" xmlns="http://www.w3.org/2000/svg" xmlns:xlink="http://www.w3.org/1999/xlink" x="0px" y="0px"
	 width="82.5px" height="32px" viewBox="0 0 82.5 32" enable-background="new 0 0 82.5 32" xml:space="preserve">
<rect fill="none" width="82.5" height="32"/>
<g>
	
		<linearGradient id="SVGID_1_" gradientUnits="userSpaceOnUse" x1="-684.9995" y1="-87.4312" x2="-685.9995" y2="-86.4312" gradientTransform="matrix(38.267 0 0 23.9183 26248.2305 2092.9268)">
		<stop  offset="0" style="stop-color:#BB925B"/>
		<stop  offset="0.3429" style="stop-color:#FFF6DA"/>
		<stop  offset="0.6571" style="stop-color:#FFF1B1"/>
		<stop  offset="1" style="stop-color:#B38B54"/>
	</linearGradient>
	<path fill="url(#SVGID_1_)" d="M35.559,17.938c-2.777,1.283-5.455,2.144-8.031,2.572c-2.224,0.379-4.532,0.67-6.933,0.871
		c-1.995,0.153-3.095,0.253-3.3,0.303c-0.274,0.053-0.54,0.09-0.793,0.114l-0.3,0.038c-0.457,0.104-0.723,0.203-0.797,0.303
		c0,0.153-0.078,0.379-0.229,0.682c-0.151,0.355-0.279,0.57-0.38,0.646l-0.304,0.19c-0.049,0-0.124-0.091-0.225-0.267
		c-0.053-0.151-0.127-0.519-0.229-1.099c-0.077-0.708-0.125-1.164-0.152-1.365c-0.127-0.43-0.505-0.974-1.135-1.627
		c-0.708-0.782-1.402-1.229-2.085-1.327c-0.783-0.103-1.503,0.023-2.159,0.377c-0.655,0.33-1.036,0.784-1.136,1.364
		c-0.152,0.706-0.203,1.313-0.152,1.82c0.103,0.808,0.442,1.741,1.024,2.803c0.125,0.302,0.011,0.783-0.341,1.44
		c-0.254,0.404-0.633,0.854-1.139,1.358c-0.757,0.709-1.352,0.962-1.78,0.761c-0.429-0.229-1.085-1.199-1.969-2.914
		c-0.455-0.89-0.949-1.857-1.479-2.918c-0.279-0.558-0.491-1.682-0.645-3.373c-0.049-0.834-0.088-1.629-0.113-2.385v-1.744
		c0.052-1.338,0.178-2.426,0.38-3.259c0.201-0.961,0.781-2.347,1.741-4.169c0.886-1.716,1.491-2.713,1.819-2.991
		C4.975,3.918,5.466,4.08,6.199,4.636c0.732,0.53,1.327,1.177,1.779,1.933c0.203,0.305,0.304,0.492,0.304,0.566
		c0.05,0.154,0,0.419-0.152,0.798C7.828,8.537,7.601,9.031,7.449,9.411c-0.304,0.681-0.456,1.246-0.456,1.702
		c0.026,0.685,0.054,1.161,0.078,1.44c0.1,0.43,0.253,0.771,0.455,1.024c0.452,0.454,0.972,0.781,1.551,0.984
		c0.455,0.15,0.847,0.203,1.174,0.15c0.456-0.052,0.974-0.251,1.555-0.604c0.835-0.508,1.441-1.163,1.818-1.972
		c0.152-0.302,0.292-0.858,0.417-1.669l0.303-1.511c0.052-0.203,0.102-0.317,0.15-0.343c0.053-0.025,0.114-0.037,0.19-0.037
		c0.025,0.024,0.178,0.252,0.457,0.682c0.277,0.479,0.44,0.77,0.491,0.87c0.076,0.076,0.238,0.139,0.49,0.189
		c0.129,0,0.241,0,0.345,0c0.199,0,0.301,0.052,0.301,0.149l4.281,0.269c3.082,0.151,5.076,0.354,5.987,0.605
		c0.275,0.076,0.945,0.216,2.006,0.418c0.962,0.202,1.769,0.377,2.425,0.531c1.517,0.402,2.881,0.944,4.092,1.628
		c0.48,0.251,0.936,0.52,1.362,0.794c0.557,0.354,0.999,0.621,1.327,0.797c0.53,0.378,0.796,0.594,0.796,0.644
		C37.884,16.809,36.719,17.402,35.559,17.938z M6.275,22.366c-0.05-0.074-0.089-0.162-0.115-0.265
		c-0.05-0.078-0.15-0.113-0.303-0.113c-0.201-0.051-0.605,0.113-1.211,0.492c-0.379,0.252-0.733,0.492-1.062,0.72
		c-0.101,0.075-0.14,0.202-0.115,0.379l0.076,0.228c0.229,0.381,0.444,0.758,0.645,1.135c0.507,0.76,0.834,1.164,0.986,1.214
		c0.175,0.053,0.492-0.112,0.946-0.491c0.403-0.305,0.632-0.52,0.681-0.646c0.053-0.076-0.013-0.492-0.189-1.25
		C6.463,22.984,6.349,22.518,6.275,22.366z M2.978,11.685c-0.202,0.024-0.403,0.126-0.604,0.302
		c-0.306,0.275-0.493,1.073-0.57,2.386L1.767,16.23c0,0.504,0.037,1.036,0.114,1.59c0.102,1.088,0.263,1.82,0.493,2.197
		c0.177,0.278,0.402,0.455,0.682,0.528C3.308,20.6,3.56,20.59,3.811,20.51c0.253-0.074,1.049-0.771,2.388-2.084
		c1.337-1.314,1.995-2.057,1.97-2.234c0-0.177-0.72-0.921-2.159-2.234c-1.363-1.264-2.185-1.971-2.464-2.122
		C3.37,11.733,3.179,11.685,2.978,11.685z M6.463,6.795c-0.177-0.227-0.429-0.44-0.757-0.643C5.378,5.975,5.098,5.886,4.873,5.886
		c-0.176,0-0.519,0.481-1.022,1.439C3.345,8.287,3.104,8.829,3.129,8.957c0,0.074,0.05,0.162,0.15,0.262
		c0.102,0.13,0.204,0.203,0.305,0.229l1.779,0.909c0.078,0.077,0.165,0.11,0.267,0.11c0.251,0.079,0.404-0.022,0.454-0.3
		c0.051-0.227,0.178-0.819,0.379-1.78C6.59,7.528,6.59,6.998,6.463,6.795z"/>
</g>
<g>
	
		<linearGradient id="SVGID_2_" gradientUnits="userSpaceOnUse" x1="-684.9971" y1="-87.4316" x2="-685.998" y2="-86.4306" gradientTransform="matrix(38.265 0 0 23.9188 26289.8867 2092.9819)">
		<stop  offset="0" style="stop-color:#BB925B"/>
		<stop  offset="0.3429" style="stop-color:#FFF6DA"/>
		<stop  offset="0.6571" style="stop-color:#FFF1B1"/>
		<stop  offset="1" style="stop-color:#B38B54"/>
	</linearGradient>
	<path fill="url(#SVGID_2_)" d="M63.669,21.381c-1.995,0.153-3.094,0.253-3.296,0.303c-0.303,0.053-0.568,0.09-0.796,0.114
		l-0.302,0.038c-0.48,0.104-0.746,0.203-0.797,0.303c-0.024,0.153-0.104,0.379-0.229,0.682c-0.173,0.355-0.313,0.57-0.416,0.646
		l-0.267,0.19c-0.049,0-0.127-0.091-0.226-0.267c-0.077-0.151-0.153-0.519-0.229-1.099c-0.074-0.708-0.139-1.164-0.188-1.365
		c-0.125-0.43-0.493-0.974-1.1-1.627c-0.704-0.782-1.412-1.229-2.121-1.327c-0.757-0.103-1.464,0.023-2.12,0.377
		c-0.684,0.33-1.074,0.784-1.176,1.364c-0.124,0.706-0.163,1.313-0.114,1.82c0.103,0.808,0.431,1.741,0.985,2.803
		c0.152,0.302,0.052,0.783-0.301,1.44c-0.281,0.404-0.67,0.854-1.175,1.358c-0.733,0.709-1.315,0.962-1.745,0.761
		c-0.429-0.229-1.084-1.198-1.97-2.914c-0.479-0.89-0.974-1.857-1.479-2.918c-0.303-0.558-0.516-1.682-0.646-3.373
		c-0.073-0.834-0.112-1.629-0.112-2.385v-1.744c0.051-1.338,0.162-2.426,0.34-3.259c0.229-0.961,0.82-2.347,1.781-4.169
		c0.885-1.716,1.49-2.713,1.819-2.991c0.251-0.226,0.743-0.063,1.478,0.492c0.733,0.53,1.326,1.177,1.781,1.933
		c0.2,0.305,0.301,0.492,0.301,0.566c0.055,0.154,0,0.419-0.149,0.798c-0.304,0.604-0.53,1.099-0.683,1.479
		c-0.306,0.681-0.455,1.246-0.455,1.702c0,0.685,0.025,1.161,0.076,1.44c0.073,0.43,0.229,0.771,0.455,1.024
		c0.455,0.454,0.971,0.781,1.553,0.984c0.431,0.15,0.81,0.203,1.136,0.15c0.481-0.052,1.013-0.251,1.593-0.604
		c0.835-0.508,1.439-1.163,1.816-1.972c0.129-0.302,0.27-0.858,0.418-1.669l0.306-1.511c0.049-0.203,0.103-0.317,0.147-0.343
		c0.054-0.025,0.115-0.037,0.19-0.037c0.024,0.024,0.179,0.252,0.455,0.682c0.276,0.479,0.442,0.77,0.493,0.87
		c0.074,0.076,0.229,0.139,0.453,0.189c0.125,0,0.254,0,0.38,0c0.176,0,0.276,0.052,0.303,0.149l4.28,0.269
		c3.057,0.151,5.041,0.354,5.949,0.605c0.304,0.076,0.972,0.216,2.009,0.418c0.983,0.202,1.791,0.377,2.423,0.531
		c2.098,0.58,3.93,1.386,5.495,2.422c0.556,0.354,0.983,0.621,1.284,0.797c0.559,0.378,0.838,0.594,0.838,0.644
		c-4.069,2.299-7.92,3.751-11.555,4.356C68.369,20.889,66.068,21.18,63.669,21.381z M46.887,20.51
		c0.252-0.074,1.049-0.771,2.387-2.084c1.338-1.314,1.996-2.057,1.971-2.234c0-0.177-0.721-0.921-2.16-2.234
		c-1.361-1.264-2.195-1.971-2.499-2.122c-0.178-0.102-0.354-0.15-0.528-0.15c-0.203,0.024-0.416,0.126-0.645,0.302
		c-0.307,0.275-0.479,1.073-0.531,2.386l-0.035,1.857c0,0.505,0.023,1.035,0.073,1.591c0.099,1.087,0.267,1.818,0.493,2.197
		c0.175,0.277,0.415,0.453,0.718,0.527C46.355,20.6,46.607,20.59,46.887,20.51z M49.199,22.104
		c-0.025-0.078-0.129-0.113-0.307-0.113c-0.177-0.051-0.578,0.113-1.211,0.492c-0.354,0.25-0.705,0.49-1.063,0.72
		c-0.101,0.073-0.123,0.2-0.073,0.379l0.037,0.228c0.229,0.381,0.457,0.758,0.684,1.135c0.479,0.76,0.809,1.166,0.982,1.215
		c0.178,0.052,0.479-0.113,0.91-0.492c0.402-0.303,0.646-0.518,0.719-0.646c0.027-0.076-0.036-0.489-0.188-1.248
		c-0.151-0.782-0.276-1.25-0.379-1.4C49.286,22.292,49.25,22.204,49.199,22.104z M49.499,6.795c-0.149-0.227-0.403-0.44-0.755-0.643
		c-0.328-0.178-0.594-0.267-0.796-0.267c-0.203,0-0.556,0.481-1.062,1.439c-0.508,0.962-0.746,1.504-0.719,1.632
		c0.021,0.074,0.072,0.162,0.148,0.262c0.101,0.13,0.201,0.203,0.302,0.229l1.782,0.909c0.103,0.077,0.201,0.11,0.303,0.11
		c0.253,0.079,0.402-0.022,0.455-0.3c0.023-0.227,0.138-0.819,0.339-1.78C49.652,7.528,49.652,6.998,49.499,6.795z"/>
</g>
<linearGradient id="SVGID_3_" gradientUnits="userSpaceOnUse" x1="-686.3174" y1="-86.5039" x2="-685.0468" y2="-87.2437" gradientTransform="matrix(38.265 0 0 23.9188 26289.8867 2092.9819)">
	<stop  offset="0.2808" style="stop-color:#000000"/>
	<stop  offset="0.5911" style="stop-color:#FFD400"/>
	<stop  offset="0.8719" style="stop-color:#FF0000"/>
</linearGradient>
<path fill="url(#SVGID_3_)" d="M81.277,15.507c-0.301-0.176-0.729-0.443-1.284-0.797c-1.565-1.036-3.397-1.842-5.495-2.422
	c-0.632-0.154-1.439-0.329-2.423-0.531c-1.037-0.202-1.705-0.342-2.009-0.418c-0.908-0.251-2.893-0.454-5.949-0.605l-4.28-0.269
	c-0.026-0.097-0.127-0.149-0.303-0.149c-0.126,0-0.255,0-0.38,0c-0.225-0.05-0.379-0.113-0.453-0.189
	c-0.051-0.1-0.217-0.391-0.493-0.87c-0.276-0.43-0.431-0.658-0.455-0.682c-0.075,0-0.137,0.012-0.19,0.037
	c-0.045,0.026-0.099,0.14-0.147,0.343l-0.306,1.511c-0.148,0.811-0.289,1.367-0.418,1.669c-0.377,0.809-0.981,1.464-1.816,1.972
	c-0.58,0.353-1.111,0.552-1.593,0.604c-0.326,0.053-0.705,0-1.136-0.15c-0.582-0.203-1.098-0.53-1.553-0.984
	c-0.226-0.253-0.382-0.594-0.455-1.024c-0.051-0.279-0.076-0.755-0.076-1.44c0-0.456,0.149-1.021,0.455-1.702
	c0.152-0.38,0.379-0.875,0.683-1.479c0.149-0.379,0.204-0.644,0.149-0.798c0-0.074-0.101-0.261-0.301-0.566
	c-0.455-0.756-1.048-1.403-1.781-1.933c-0.734-0.555-1.227-0.718-1.478-0.492c-0.329,0.278-0.935,1.275-1.819,2.991
	c-0.961,1.822-1.552,3.208-1.781,4.169c-0.178,0.833-0.289,1.921-0.34,3.259v1.744c0,0.756,0.039,1.551,0.112,2.385
	c0.13,1.691,0.343,2.815,0.646,3.373c0.506,1.061,1,2.028,1.479,2.918c0.886,1.716,1.541,2.686,1.97,2.914
	c0.43,0.201,1.012-0.052,1.745-0.761c0.505-0.504,0.894-0.954,1.175-1.358c0.353-0.657,0.453-1.139,0.301-1.44
	c-0.555-1.062-0.883-1.995-0.985-2.803c-0.049-0.507-0.01-1.114,0.114-1.82c0.102-0.58,0.492-1.034,1.176-1.364
	c0.656-0.354,1.363-0.479,2.12-0.377c0.709,0.098,1.417,0.545,2.121,1.327c0.606,0.653,0.975,1.197,1.1,1.627
	c0.05,0.201,0.114,0.657,0.188,1.365c0.076,0.58,0.152,0.947,0.229,1.099c0.099,0.176,0.177,0.267,0.226,0.267l0.267-0.19
	c0.103-0.076,0.243-0.291,0.416-0.646c0.126-0.303,0.205-0.528,0.229-0.682c0.051-0.1,0.316-0.199,0.797-0.303l0.302-0.038
	c0.228-0.024,0.493-0.062,0.796-0.114c0.202-0.05,1.301-0.149,3.296-0.303c2.399-0.201,4.7-0.492,6.892-0.874
	c3.635-0.604,7.485-2.057,11.555-4.356C82.115,16.101,81.836,15.885,81.277,15.507z M46.887,7.325
	c0.506-0.958,0.858-1.439,1.063-1.439c0.2,0,0.468,0.089,0.796,0.267c0.35,0.201,0.604,0.415,0.753,0.642
	c0.153,0.203,0.153,0.733,0,1.593c-0.201,0.961-0.313,1.554-0.339,1.78c-0.051,0.277-0.202,0.379-0.455,0.3
	c-0.102,0-0.2-0.033-0.303-0.11l-1.782-0.91c-0.099-0.026-0.201-0.1-0.302-0.229c-0.076-0.1-0.127-0.188-0.148-0.262
	C46.141,8.829,46.381,8.287,46.887,7.325z M49.879,25.018c-0.072,0.127-0.314,0.342-0.719,0.646c-0.43,0.379-0.732,0.544-0.91,0.492
	c-0.176-0.051-0.505-0.455-0.984-1.215c-0.225-0.377-0.453-0.754-0.682-1.135l-0.037-0.228c-0.05-0.177-0.025-0.304,0.073-0.379
	c0.356-0.228,0.71-0.468,1.062-0.72c0.633-0.379,1.036-0.543,1.213-0.492c0.176,0,0.278,0.035,0.305,0.115
	c0.051,0.103,0.087,0.188,0.113,0.265c0.102,0.149,0.227,0.618,0.379,1.399C49.841,24.525,49.907,24.941,49.879,25.018z
	 M49.271,18.426c-1.336,1.313-2.133,2.01-2.385,2.084c-0.279,0.08-0.531,0.09-0.759,0.037c-0.303-0.074-0.543-0.25-0.718-0.529
	c-0.229-0.377-0.396-1.108-0.493-2.197c-0.05-0.555-0.074-1.086-0.074-1.589l0.036-1.857c0.051-1.313,0.227-2.11,0.531-2.386
	c0.227-0.176,0.439-0.277,0.643-0.302c0.176,0,0.354,0.049,0.53,0.15c0.304,0.151,1.138,0.858,2.499,2.122
	c1.439,1.313,2.16,2.058,2.16,2.234C51.27,16.37,50.611,17.111,49.271,18.426z"/>
<linearGradient id="SVGID_4_" gradientUnits="userSpaceOnUse" x1="-686.3174" y1="-86.5049" x2="-685.0488" y2="-87.2436" gradientTransform="matrix(38.267 0 0 23.9183 26248.2305 2092.9268)">
	<stop  offset="0.2808" style="stop-color:#000000"/>
	<stop  offset="0.5911" style="stop-color:#FFD400"/>
	<stop  offset="0.8719" style="stop-color:#FF0000"/>
</linearGradient>
<path fill="url(#SVGID_4_)" d="M38.248,15.507c-0.328-0.176-0.77-0.443-1.327-0.797c-0.426-0.274-0.882-0.543-1.362-0.794
	c-1.211-0.684-2.575-1.226-4.092-1.628c-0.656-0.154-1.463-0.329-2.425-0.531c-1.061-0.202-1.731-0.342-2.006-0.418
	c-0.911-0.251-2.905-0.454-5.987-0.605l-4.281-0.269c0-0.097-0.102-0.149-0.301-0.149c-0.104,0-0.216,0-0.345,0
	c-0.252-0.05-0.414-0.113-0.49-0.189c-0.051-0.1-0.214-0.391-0.491-0.87c-0.279-0.43-0.432-0.658-0.457-0.682
	c-0.076,0-0.137,0.012-0.19,0.037c-0.048,0.026-0.098,0.14-0.15,0.343l-0.303,1.511c-0.125,0.811-0.265,1.367-0.417,1.669
	c-0.377,0.809-0.983,1.464-1.818,1.972c-0.581,0.353-1.099,0.552-1.555,0.604c-0.327,0.053-0.719,0-1.174-0.15
	c-0.579-0.203-1.099-0.53-1.551-0.984c-0.202-0.253-0.355-0.594-0.455-1.024c-0.024-0.279-0.052-0.755-0.078-1.44
	c0-0.456,0.152-1.021,0.456-1.702c0.152-0.38,0.379-0.874,0.681-1.478c0.152-0.379,0.202-0.644,0.152-0.798
	c0-0.074-0.101-0.261-0.304-0.566C7.526,5.813,6.931,5.166,6.199,4.636C5.466,4.08,4.975,3.918,4.717,4.143
	C4.389,4.421,3.784,5.418,2.898,7.134c-0.96,1.822-1.54,3.208-1.741,4.169c-0.202,0.833-0.328,1.921-0.38,3.259v1.744
	c0.025,0.756,0.064,1.551,0.113,2.385c0.154,1.691,0.366,2.815,0.645,3.373c0.53,1.061,1.024,2.028,1.479,2.918
	c0.884,1.715,1.54,2.686,1.969,2.914c0.428,0.201,1.023-0.052,1.78-0.761c0.506-0.504,0.885-0.954,1.139-1.358
	c0.352-0.657,0.466-1.139,0.341-1.44c-0.582-1.062-0.921-1.995-1.024-2.803c-0.051-0.507,0-1.114,0.152-1.82
	c0.1-0.58,0.481-1.034,1.136-1.364c0.656-0.354,1.376-0.479,2.159-0.377c0.683,0.098,1.377,0.545,2.085,1.327
	c0.63,0.653,1.008,1.197,1.135,1.627c0.027,0.201,0.075,0.657,0.152,1.365c0.102,0.58,0.176,0.947,0.229,1.099
	c0.101,0.176,0.176,0.267,0.225,0.267l0.304-0.19c0.101-0.076,0.229-0.291,0.38-0.646c0.151-0.303,0.229-0.528,0.229-0.682
	c0.074-0.1,0.34-0.199,0.797-0.303l0.3-0.038c0.253-0.024,0.519-0.062,0.793-0.114c0.205-0.05,1.305-0.149,3.3-0.303
	c2.401-0.201,4.709-0.492,6.933-0.871c2.576-0.429,5.254-1.289,8.031-2.572c1.16-0.535,2.325-1.129,3.485-1.787
	C39.044,16.101,38.778,15.885,38.248,15.507z M3.85,7.325c0.504-0.958,0.847-1.439,1.022-1.439c0.226,0,0.506,0.089,0.834,0.267
	c0.329,0.201,0.581,0.415,0.757,0.642c0.127,0.203,0.127,0.733,0,1.593c-0.201,0.961-0.328,1.554-0.379,1.78
	c-0.05,0.277-0.203,0.379-0.454,0.3c-0.102,0-0.188-0.033-0.267-0.11l-1.779-0.91c-0.101-0.026-0.203-0.1-0.305-0.229
	c-0.101-0.1-0.15-0.188-0.15-0.262C3.104,8.829,3.345,8.287,3.85,7.325z M6.803,25.016c-0.049,0.129-0.277,0.344-0.681,0.646
	c-0.454,0.379-0.771,0.544-0.946,0.491c-0.152-0.049-0.479-0.454-0.986-1.215c-0.2-0.377-0.416-0.754-0.645-1.135l-0.076-0.227
	c-0.024-0.178,0.015-0.305,0.115-0.379c0.328-0.229,0.683-0.469,1.062-0.719c0.605-0.379,1.01-0.543,1.211-0.494
	c0.152,0,0.253,0.037,0.303,0.115c0.026,0.104,0.065,0.192,0.115,0.267c0.074,0.151,0.188,0.618,0.339,1.401
	C6.791,24.525,6.856,24.939,6.803,25.016z M6.198,18.425c-1.339,1.313-2.135,2.011-2.388,2.084c-0.251,0.08-0.503,0.091-0.756,0.037
	c-0.279-0.075-0.505-0.25-0.682-0.528c-0.23-0.379-0.392-1.109-0.493-2.197c-0.077-0.557-0.114-1.086-0.114-1.59l0.037-1.857
	c0.077-1.313,0.265-2.11,0.57-2.386c0.203-0.176,0.404-0.278,0.606-0.302c0.201,0,0.392,0.049,0.567,0.15
	c0.279,0.151,1.101,0.858,2.464,2.122c1.439,1.313,2.159,2.058,2.159,2.234C8.193,16.369,7.535,17.111,6.198,18.425z"/>
<linearGradient id="SVGID_5_" gradientUnits="userSpaceOnUse" x1="13.499" y1="19.8369" x2="31.1496" y2="9.6687">
	<stop  offset="0.3505" style="stop-color:#FFE3A0"/>
	<stop  offset="1" style="stop-color:#00FFFF"/>
</linearGradient>
<path fill="url(#SVGID_5_)" d="M29.861,11.973c-0.266-0.057-0.542-0.116-0.837-0.178c-1.061-0.202-1.731-0.342-2.006-0.418
	c-0.911-0.251-2.905-0.454-5.987-0.604l-4.281-0.27c0-0.097-0.102-0.148-0.301-0.148c-0.104,0-0.216,0-0.345,0
	c-0.252-0.051-0.414-0.113-0.49-0.189c-0.051-0.1-0.214-0.391-0.491-0.87c-0.279-0.43-0.432-0.657-0.457-0.682
	c-0.076,0-0.137,0.012-0.19,0.036c-0.048,0.027-0.098,0.141-0.15,0.344l-0.303,1.511c-0.119,0.77-0.251,1.302-0.394,1.612
	c4.715,0.124,12.976,1.255,19.117,7.002c0.441-0.16,0.884-0.332,1.33-0.516C33.086,16.674,31.69,14.31,29.861,11.973z"/>
<linearGradient id="SVGID_6_" gradientUnits="userSpaceOnUse" x1="43.3467" y1="23.541" x2="58.9876" y2="14.5306">
	<stop  offset="0.1781" style="stop-color:#FFE3A0"/>
	<stop  offset="1" style="stop-color:#00FFFF"/>
</linearGradient>
<path fill="url(#SVGID_6_)" d="M54.857,14.146c-0.123,0.075-0.244,0.14-0.363,0.201c1.545,0.867,3.025,1.954,4.357,3.327
	c0,0-0.994-2.012-2.84-4.495C55.693,13.544,55.313,13.87,54.857,14.146z"/>
<linearGradient id="SVGID_7_" gradientUnits="userSpaceOnUse" x1="38.2998" y1="14.7881" x2="53.9438" y2="5.7759">
	<stop  offset="0.1781" style="stop-color:#FFE3A0"/>
	<stop  offset="1" style="stop-color:#00FFFF"/>
</linearGradient>
<path fill="url(#SVGID_7_)" d="M50.045,11.152c0-0.456,0.15-1.021,0.455-1.702c0.15-0.374,0.373-0.861,0.67-1.453
	c-0.607-0.502-1.25-0.979-1.922-1.419c0.09,0.084,0.176,0.168,0.234,0.256c0.152,0.203,0.152,0.732,0,1.594
	c-0.201,0.961-0.314,1.553-0.34,1.779c-0.051,0.277-0.201,0.379-0.455,0.3c-0.102,0-0.199-0.032-0.303-0.11l-1.781-0.909
	c-0.1-0.026-0.201-0.101-0.303-0.229c-0.076-0.1-0.127-0.188-0.148-0.262c-0.029-0.128,0.211-0.67,0.717-1.632
	c0.506-0.958,0.859-1.439,1.064-1.439c0.111,0,0.246,0.034,0.398,0.088c-0.441-0.254-0.893-0.493-1.357-0.71
	c-0.285,0.48-0.623,1.099-1.021,1.87c-0.947,1.799-1.533,3.168-1.768,4.128c1.828,0.179,3.861,0.53,5.92,1.172
	C50.066,12.185,50.045,11.754,50.045,11.152z"/>
<g>
	<linearGradient id="SVGID_8_" gradientUnits="userSpaceOnUse" x1="74.5967" y1="4.1162" x2="44.6384" y2="22.8426">
		<stop  offset="0" style="stop-color:#BB925B"/>
		<stop  offset="0.3429" style="stop-color:#FFF6DA"/>
		<stop  offset="0.6571" style="stop-color:#FFF1B1"/>
		<stop  offset="1" style="stop-color:#B38B54"/>
	</linearGradient>
	<path fill="url(#SVGID_8_)" d="M45.69,10.017c0.163,0.163,0.344,0.282,0.54,0.356l1.656,0.845c0.202,0.134,0.425,0.216,0.657,0.242
		c0.105,0.023,0.21,0.035,0.313,0.035c0.07,0,0.141-0.005,0.208-0.016c0.007,0.519,0.032,0.9,0.076,1.175
		c-1.34-1.221-1.811-1.556-2.084-1.698c-0.319-0.179-0.657-0.27-1.005-0.27c-0.041,0-0.083,0.002-0.124,0.008
		c-0.188,0.023-0.376,0.077-0.563,0.16C45.454,10.599,45.563,10.319,45.69,10.017 M58.048,10.886
		c0.21,0.188,0.494,0.318,0.886,0.407c0.072,0.016,0.146,0.024,0.221,0.024h0.158c0.137,0.084,0.294,0.136,0.462,0.146l4.294,0.27
		c3.691,0.182,5.154,0.41,5.755,0.576c0.331,0.083,1.024,0.227,2.051,0.427c1.054,0.217,1.813,0.383,2.357,0.516
		c1.991,0.551,3.744,1.322,5.224,2.301c0.292,0.186,0.549,0.348,0.771,0.486c-3.441,1.798-6.743,2.967-9.837,3.482
		c-2.149,0.374-4.438,0.663-6.798,0.861c-2.656,0.205-3.2,0.273-3.412,0.318c-0.271,0.047-0.509,0.08-0.725,0.104l-0.302,0.037
		c-0.029,0.003-0.06,0.008-0.089,0.015c-0.397,0.086-0.779,0.184-1.072,0.38c-0.053-0.363-0.088-0.507-0.109-0.59
		c-0.171-0.588-0.605-1.252-1.316-2.017c-0.867-0.965-1.785-1.52-2.731-1.65c-0.213-0.028-0.426-0.043-0.634-0.043
		c-0.469,0-0.925,0.072-1.353,0.211c0.349-0.459,0.421-0.729,0.393-1.023c-0.004-0.166-0.031-0.317-0.167-0.539
		c0.336,0.097,0.649,0.144,0.951,0.144c0.133,0,0.263-0.01,0.389-0.028c0.624-0.072,1.29-0.321,1.98-0.741
		c1.002-0.61,1.743-1.418,2.217-2.434C57.759,12.182,57.903,11.638,58.048,10.886 M49.395,19.702
		c-0.078,0.479-0.119,0.917-0.122,1.325c-0.084-0.019-0.175-0.031-0.275-0.036c-0.057-0.008-0.115-0.012-0.175-0.012
		c-0.412,0-0.892,0.187-1.654,0.643c-0.023,0.015-0.047,0.029-0.068,0.046c-0.338,0.241-0.677,0.472-1.02,0.691
		c-0.021,0.014-0.041,0.027-0.062,0.043c-0.033,0.025-0.066,0.052-0.097,0.08c-0.139-0.28-0.275-0.563-0.412-0.849
		c-0.008-0.016-0.016-0.031-0.023-0.047c-0.027-0.051-0.065-0.134-0.109-0.267c0.162,0.088,0.338,0.154,0.525,0.201
		c0.168,0.038,0.343,0.059,0.519,0.059c0.24,0,0.49-0.037,0.748-0.111C47.474,21.379,47.863,21.174,49.395,19.702 M48.069,4.045
		c-0.113,0-0.206,0.033-0.279,0.098c-0.329,0.278-0.935,1.275-1.819,2.991c-0.961,1.822-1.552,3.208-1.781,4.169
		c-0.178,0.833-0.289,1.922-0.34,3.26v1.744c0,0.755,0.039,1.55,0.112,2.384c0.13,1.691,0.343,2.816,0.646,3.373
		c0.506,1.061,1,2.029,1.479,2.918c0.886,1.717,1.541,2.686,1.97,2.914c0.096,0.045,0.198,0.067,0.309,0.067
		c0.387,0,0.866-0.275,1.437-0.827c0.505-0.504,0.894-0.955,1.175-1.359c0.353-0.656,0.453-1.139,0.301-1.439
		c-0.555-1.063-0.883-1.996-0.985-2.803c-0.049-0.508-0.01-1.115,0.114-1.82c0.102-0.58,0.492-1.035,1.176-1.365
		c0.51-0.274,1.049-0.411,1.619-0.411c0.164,0,0.332,0.012,0.501,0.034c0.709,0.098,1.417,0.545,2.121,1.328
		c0.606,0.652,0.975,1.197,1.1,1.627c0.05,0.201,0.114,0.656,0.188,1.365c0.076,0.58,0.152,0.947,0.229,1.098
		c0.099,0.176,0.177,0.268,0.226,0.268l0.267-0.191c0.103-0.076,0.243-0.291,0.416-0.646c0.126-0.303,0.205-0.527,0.229-0.682
		c0.051-0.1,0.316-0.199,0.797-0.303l0.302-0.037c0.228-0.025,0.493-0.063,0.796-0.115c0.202-0.049,1.301-0.148,3.296-0.303
		c2.399-0.201,4.7-0.492,6.892-0.873c3.635-0.605,7.485-2.057,11.555-4.357c0-0.049-0.279-0.266-0.838-0.644
		c-0.301-0.176-0.729-0.442-1.284-0.797c-1.565-1.036-3.397-1.842-5.495-2.422c-0.632-0.154-1.439-0.329-2.423-0.531
		c-1.037-0.202-1.705-0.342-2.009-0.418c-0.908-0.251-2.893-0.454-5.949-0.604l-4.28-0.27c-0.026-0.097-0.127-0.148-0.303-0.148
		c-0.126,0-0.255,0-0.38,0c-0.225-0.051-0.379-0.113-0.453-0.189c-0.051-0.1-0.217-0.391-0.493-0.87
		c-0.276-0.43-0.431-0.657-0.455-0.682c-0.075,0-0.137,0.012-0.19,0.036c-0.045,0.027-0.099,0.141-0.147,0.344l-0.306,1.511
		c-0.148,0.812-0.289,1.367-0.418,1.669c-0.377,0.809-0.981,1.465-1.816,1.973c-0.58,0.353-1.111,0.552-1.593,0.604
		c-0.082,0.013-0.168,0.02-0.257,0.02c-0.264,0-0.557-0.058-0.879-0.17c-0.582-0.203-1.098-0.529-1.553-0.983
		c-0.226-0.253-0.382-0.595-0.455-1.024c-0.051-0.279-0.076-0.755-0.076-1.439c0-0.456,0.149-1.021,0.455-1.702
		c0.152-0.38,0.379-0.875,0.683-1.479c0.149-0.379,0.204-0.644,0.149-0.798c0-0.073-0.101-0.261-0.301-0.565
		c-0.455-0.756-1.048-1.403-1.781-1.934C48.746,4.241,48.347,4.045,48.069,4.045L48.069,4.045z M48.857,10.494
		c-0.046,0-0.097-0.008-0.152-0.026c-0.102,0-0.2-0.032-0.303-0.11L46.62,9.449c-0.099-0.026-0.201-0.101-0.302-0.229
		c-0.076-0.1-0.127-0.188-0.148-0.262c-0.029-0.128,0.211-0.67,0.717-1.632c0.506-0.958,0.858-1.439,1.063-1.439
		c0.2,0,0.468,0.089,0.796,0.267c0.35,0.201,0.604,0.416,0.753,0.643c0.153,0.203,0.153,0.732,0,1.594
		c-0.201,0.961-0.313,1.553-0.339,1.779C49.12,10.385,49.02,10.494,48.857,10.494L48.857,10.494z M46.421,20.58
		c-0.102,0-0.199-0.012-0.293-0.033c-0.303-0.074-0.543-0.25-0.718-0.529c-0.229-0.377-0.396-1.107-0.493-2.197
		c-0.05-0.555-0.074-1.086-0.074-1.589l0.036-1.856c0.051-1.313,0.227-2.11,0.531-2.386c0.227-0.176,0.439-0.277,0.643-0.303
		c0.176,0,0.354,0.049,0.53,0.15c0.304,0.15,1.138,0.857,2.499,2.122c1.439,1.313,2.16,2.058,2.16,2.233
		c0.027,0.179-0.631,0.919-1.971,2.234c-1.336,1.314-2.133,2.01-2.385,2.084C46.723,20.557,46.567,20.58,46.421,20.58L46.421,20.58z
		 M48.32,26.166c-0.025,0-0.049-0.003-0.07-0.01c-0.176-0.051-0.505-0.455-0.984-1.215c-0.225-0.377-0.453-0.754-0.682-1.135
		l-0.037-0.227c-0.05-0.178-0.025-0.305,0.073-0.379c0.356-0.229,0.71-0.469,1.062-0.721c0.558-0.334,0.938-0.501,1.141-0.501
		c0.027,0,0.052,0.003,0.072,0.009c0.176,0,0.278,0.035,0.305,0.115c0.051,0.104,0.087,0.189,0.113,0.266
		c0.102,0.148,0.227,0.617,0.379,1.398c0.149,0.758,0.216,1.174,0.188,1.25c-0.072,0.127-0.314,0.342-0.719,0.646
		C48.782,25.997,48.503,26.166,48.32,26.166L48.32,26.166z"/>
</g>
<g>
	<linearGradient id="SVGID_9_" gradientUnits="userSpaceOnUse" x1="31.5254" y1="4.1152" x2="1.5644" y2="22.842">
		<stop  offset="0" style="stop-color:#BB925B"/>
		<stop  offset="0.3429" style="stop-color:#FFF6DA"/>
		<stop  offset="0.6571" style="stop-color:#FFF1B1"/>
		<stop  offset="1" style="stop-color:#B38B54"/>
	</linearGradient>
	<path fill="url(#SVGID_9_)" d="M2.635,10c0.168,0.172,0.356,0.297,0.561,0.374l1.613,0.824c0.194,0.146,0.417,0.234,0.66,0.262
		c0.105,0.023,0.21,0.035,0.313,0.035c0.077,0,0.153-0.006,0.226-0.019c0.021,0.49,0.044,0.889,0.067,1.163
		c0.001,0.007,0.001,0.015,0.002,0.022c-1.382-1.262-1.809-1.571-2.033-1.692c-0.326-0.188-0.684-0.283-1.065-0.283
		c-0.039,0-0.077,0.002-0.115,0.007c-0.184,0.021-0.365,0.071-0.543,0.15C2.403,10.587,2.509,10.306,2.635,10 M14.985,10.891
		c0.22,0.194,0.515,0.32,0.939,0.406c0.065,0.013,0.131,0.02,0.198,0.02h0.122c0.135,0.083,0.292,0.136,0.461,0.146L21,11.734
		c3.719,0.181,5.19,0.41,5.769,0.569c0.195,0.054,0.623,0.158,2.067,0.433c0.953,0.2,1.752,0.374,2.375,0.52
		c1.427,0.377,2.725,0.893,3.885,1.547c0.43,0.225,0.862,0.477,1.289,0.751c0.292,0.186,0.55,0.346,0.777,0.482
		c-0.665,0.347-1.341,0.679-2.022,0.993c-2.695,1.246-5.311,2.085-7.78,2.495c-2.195,0.374-4.5,0.663-6.842,0.859
		c-2.845,0.22-3.267,0.282-3.412,0.317c-0.228,0.044-0.464,0.078-0.727,0.105l-0.3,0.037c-0.033,0.004-0.065,0.01-0.098,0.017
		c-0.437,0.1-0.786,0.206-1.052,0.379c-0.022-0.202-0.039-0.35-0.052-0.444c-0.007-0.051-0.018-0.102-0.033-0.151
		c-0.177-0.596-0.626-1.263-1.352-2.014c-0.882-0.977-1.761-1.515-2.698-1.649c-0.217-0.027-0.434-0.042-0.645-0.042
		c-0.479,0-0.942,0.072-1.378,0.214c0.35-0.46,0.422-0.729,0.396-1.021c-0.004-0.167-0.032-0.321-0.174-0.55
		c0.358,0.101,0.687,0.15,0.998,0.15c0.144,0,0.285-0.011,0.373-0.026c0.611-0.069,1.252-0.312,1.962-0.743
		c1.004-0.61,1.746-1.419,2.191-2.377C14.705,12.212,14.857,11.659,14.985,10.891 M6.361,19.662
		c-0.099,0.49-0.151,0.938-0.159,1.357c-0.077-0.017-0.16-0.028-0.249-0.032c-0.057-0.008-0.115-0.012-0.173-0.012
		c-0.434,0-0.932,0.196-1.685,0.668c-0.386,0.255-0.748,0.5-1.107,0.75c-0.042,0.031-0.082,0.064-0.119,0.1
		c-0.144-0.285-0.291-0.577-0.441-0.877c-0.032-0.063-0.071-0.159-0.115-0.301c0.149,0.085,0.309,0.15,0.477,0.196
		c0.02,0.005,0.039,0.01,0.059,0.014c0.171,0.036,0.345,0.055,0.516,0.055c0.253,0,0.504-0.04,0.726-0.11
		C4.406,21.377,4.786,21.175,6.361,19.662 M5,4.045c-0.114,0-0.208,0.033-0.283,0.098C4.389,4.421,3.784,5.418,2.898,7.134
		c-0.96,1.822-1.54,3.208-1.741,4.169c-0.202,0.833-0.328,1.922-0.38,3.26v1.744c0.025,0.755,0.064,1.55,0.113,2.384
		c0.154,1.691,0.366,2.816,0.645,3.373c0.53,1.061,1.024,2.029,1.479,2.918c0.884,1.715,1.54,2.686,1.969,2.914
		c0.095,0.045,0.198,0.067,0.31,0.067c0.391,0,0.881-0.275,1.471-0.827c0.506-0.504,0.885-0.955,1.139-1.359
		c0.352-0.656,0.466-1.139,0.341-1.439c-0.582-1.063-0.921-1.996-1.024-2.803c-0.051-0.508,0-1.115,0.152-1.82
		c0.1-0.58,0.481-1.035,1.136-1.365c0.509-0.274,1.057-0.411,1.643-0.411c0.169,0,0.341,0.012,0.517,0.034
		c0.683,0.098,1.377,0.545,2.085,1.328c0.63,0.652,1.008,1.197,1.135,1.627c0.027,0.201,0.075,0.656,0.152,1.365
		c0.102,0.58,0.176,0.947,0.229,1.098c0.101,0.176,0.176,0.268,0.225,0.268l0.304-0.191c0.101-0.076,0.229-0.291,0.38-0.646
		c0.151-0.303,0.229-0.527,0.229-0.682c0.074-0.1,0.34-0.199,0.797-0.303l0.3-0.037c0.253-0.025,0.519-0.063,0.793-0.115
		c0.205-0.049,1.305-0.148,3.3-0.303c2.401-0.201,4.709-0.492,6.933-0.871c2.576-0.428,5.254-1.289,8.031-2.572
		c1.16-0.535,2.325-1.129,3.485-1.787c0-0.049-0.266-0.266-0.796-0.644c-0.328-0.176-0.77-0.442-1.327-0.797
		c-0.426-0.274-0.882-0.543-1.362-0.794c-1.211-0.684-2.575-1.227-4.092-1.628c-0.656-0.154-1.463-0.329-2.425-0.531
		c-1.061-0.202-1.731-0.342-2.006-0.418c-0.911-0.251-2.905-0.454-5.987-0.604l-4.281-0.27c0-0.097-0.102-0.148-0.301-0.148
		c-0.104,0-0.216,0-0.345,0c-0.252-0.051-0.414-0.113-0.49-0.189c-0.051-0.1-0.214-0.391-0.491-0.87
		c-0.279-0.43-0.432-0.657-0.457-0.682c-0.076,0-0.137,0.012-0.19,0.036c-0.048,0.027-0.098,0.141-0.15,0.344l-0.303,1.511
		c-0.125,0.812-0.265,1.367-0.417,1.669c-0.377,0.809-0.983,1.465-1.818,1.973c-0.581,0.353-1.099,0.552-1.555,0.604
		c-0.083,0.013-0.169,0.02-0.26,0.02c-0.269,0-0.574-0.058-0.914-0.17c-0.579-0.203-1.099-0.529-1.551-0.983
		c-0.202-0.253-0.355-0.595-0.455-1.024c-0.024-0.279-0.052-0.755-0.078-1.439c0-0.456,0.152-1.021,0.456-1.702
		c0.152-0.38,0.379-0.874,0.681-1.478C8.282,7.555,8.332,7.29,8.282,7.135c0-0.074-0.101-0.261-0.304-0.566
		C7.526,5.813,6.931,5.167,6.199,4.636C5.678,4.242,5.28,4.045,5,4.045L5,4.045z M5.781,10.494c-0.046,0-0.096-0.008-0.151-0.026
		c-0.102,0-0.188-0.032-0.267-0.11L3.584,9.449C3.483,9.422,3.381,9.348,3.279,9.219c-0.101-0.1-0.15-0.188-0.15-0.262
		C3.104,8.83,3.345,8.288,3.85,7.326c0.504-0.958,0.847-1.439,1.022-1.439c0.226,0,0.506,0.089,0.834,0.267
		c0.329,0.201,0.581,0.416,0.757,0.643c0.127,0.203,0.127,0.732,0,1.594C6.262,9.35,6.135,9.942,6.084,10.168
		C6.045,10.385,5.943,10.494,5.781,10.494L5.781,10.494z M3.366,20.58c-0.104,0-0.208-0.012-0.312-0.033
		c-0.279-0.076-0.505-0.25-0.682-0.529c-0.23-0.379-0.392-1.109-0.493-2.197c-0.077-0.557-0.114-1.086-0.114-1.589l0.037-1.857
		c0.077-1.313,0.265-2.109,0.57-2.387c0.203-0.176,0.404-0.277,0.606-0.301c0.201,0,0.392,0.049,0.567,0.149
		c0.279,0.151,1.101,0.858,2.464,2.122c1.439,1.313,2.159,2.059,2.159,2.234c0.025,0.178-0.633,0.919-1.97,2.234
		c-1.339,1.313-2.135,2.01-2.388,2.084C3.662,20.557,3.514,20.58,3.366,20.58L3.366,20.58z M5.246,26.162
		c-0.025,0-0.049-0.003-0.07-0.01c-0.152-0.049-0.479-0.453-0.986-1.215c-0.2-0.377-0.416-0.754-0.645-1.135l-0.076-0.227
		c-0.024-0.178,0.015-0.305,0.115-0.379c0.328-0.229,0.683-0.469,1.062-0.719c0.536-0.336,0.915-0.503,1.134-0.503
		c0.028,0,0.054,0.003,0.077,0.009c0.152,0,0.253,0.037,0.303,0.115c0.026,0.105,0.065,0.193,0.115,0.268
		c0.074,0.15,0.188,0.617,0.339,1.4c0.177,0.758,0.242,1.172,0.189,1.248c-0.049,0.129-0.277,0.344-0.681,0.646
		C5.723,25.995,5.43,26.162,5.246,26.162L5.246,26.162z"/>
</g>
<rect fill="none" width="82.5" height="32"/>
<g>
	<g>
		<path fill="#7A4621" d="M44.773,27.297l5.631,4.694l12.389,0.375c4.254-0.501,7.758-1.626,10.512-3.378
			c3.627-5.028,6.784-7.543,9.469-7.543c-1.821-0.728-3.907-0.43-6.258,0.895c-2.35,1.324-4.733-0.018-7.152-4.023
			c-2.254-1.502-6.668-0.412-10.282,1.343l3.713-5.813l-10.866,3.576L44.773,27.297z"/>
	</g>
</g>
<linearGradient id="SVGID_10_" gradientUnits="userSpaceOnUse" x1="-851.8242" y1="44.0947" x2="-850.8242" y2="45.0963" gradientTransform="matrix(30.7822 0 0 12.7634 26269.9551 -545.3481)">
	<stop  offset="0.6071" style="stop-color:#FFF6DA"/>
	<stop  offset="1" style="stop-color:#D6BB7E"/>
</linearGradient>
<path fill="url(#SVGID_10_)" d="M57.117,16.977H53.93l-6.152,12.763h2.861l0.945-2.164h2.561l-0.166,2.164h2.734L57.117,16.977z
	 M54.807,20.189l-0.467,5.42h-1.928L54.807,20.189z M69.08,19.005c0-1.325-1.238-2.028-3.57-2.028c-2.888,0-4.21,0.92-4.898,3.289
	l-1.727,5.947c-0.216,0.699-0.258,1.045-0.258,1.367c0,1.402,1.303,2.158,3.717,2.158c1.329,0,2.373-0.229,3.104-0.697
	c0.786-0.521,1.28-1.326,1.663-2.729l0.41-1.448h-2.734l-0.452,1.571c-0.319,1.145-0.724,1.483-1.69,1.483
	c-0.744,0-1.154-0.271-1.154-0.769c0-0.151,0.048-0.41,0.131-0.732l1.838-6.323c0.277-0.938,0.73-1.313,1.629-1.313
	c0.744,0,1.148,0.271,1.148,0.752c0,0.205-0.063,0.463-0.188,0.955l-0.341,1.231h2.734l0.426-1.489
	C69.018,19.721,69.08,19.328,69.08,19.005z M78.561,16.977h-7.314l-3.479,12.763h7.522l0.535-1.959h-4.746l1.063-3.994h4.28
	l0.536-1.931H72.68l0.813-2.949h4.531L78.561,16.977z"/>
</svg>
