<?xml version="1.0" encoding="utf-8"?>
<!-- Generator: Adobe Illustrator 16.0.0, SVG Export Plug-In . SVG Version: 6.00 Build 0)  -->
<!DOCTYPE svg PUBLIC "-//W3C//DTD SVG 1.1//EN" "http://www.w3.org/Graphics/SVG/1.1/DTD/svg11.dtd">
<svg version="1.1" id="图层_1" xmlns="http://www.w3.org/2000/svg" xmlns:xlink="http://www.w3.org/1999/xlink" x="0px" y="0px"
	 width="78.604px" height="32px" viewBox="0 0 78.604 32" enable-background="new 0 0 78.604 32" xml:space="preserve">
<rect x="0" fill="none" width="78.604" height="32"/>
<g>
	<g>
		<g>
			<g>
				
					<linearGradient id="SVGID_1_" gradientUnits="userSpaceOnUse" x1="-524.8982" y1="31.6104" x2="-525.8974" y2="32.6096" gradientTransform="matrix(78.603 0 0 25.538 41332.1992 -805.7998)">
					<stop  offset="0.2512" style="stop-color:#FF0000"/>
					<stop  offset="0.5665" style="stop-color:#FFD400"/>
					<stop  offset="0.584" style="stop-color:#E8C100"/>
					<stop  offset="0.649" style="stop-color:#977D00"/>
					<stop  offset="0.7066" style="stop-color:#564700"/>
					<stop  offset="0.7548" style="stop-color:#272100"/>
					<stop  offset="0.7917" style="stop-color:#0B0900"/>
					<stop  offset="0.8128" style="stop-color:#000000"/>
				</linearGradient>
				<path fill="url(#SVGID_1_)" d="M78.292,9.04c-0.13-0.16-0.3-0.23-0.51-0.23h-4.671c-0.1,0-0.21,0.05-0.31,0.15l-0.16,0.2h-1.17
					V4.17h-0.97c-0.41,0-0.74,0.07-0.97,0.2l-0.19,0.19c-0.19,0.16-0.56,0.64-1.13,1.44l-0.82,1.13c-0.05-0.05-0.1-0.11-0.16-0.19
					c-0.13-0.16-0.27-0.23-0.43-0.23h-17.36c-0.149,0-0.26,0.06-0.31,0.19c-0.03,0.05-0.04,0.12-0.04,0.19h-1.17
					c-0.311,0.29-0.48,0.37-0.5,0.24c-0.05-0.11-0.13-0.22-0.24-0.35c-0.13-0.16-0.27-0.24-0.42-0.24h-10.98V5.93h-1.44v0.62h-0.47
					V4.21c0-0.28-0.11-0.53-0.31-0.74c-0.23-0.23-0.52-0.35-0.86-0.35c-0.28,0-0.54,0.12-0.78,0.35c-0.21,0.21-0.31,0.44-0.31,0.7
					c0,0.39,0.16,0.71,0.47,0.94c0.15,0.1,0.31,0.18,0.47,0.23l0.07,0.39l-0.16,0.22l-0.66,0.95h-2.33c-0.49,0-0.84,0.06-1.05,0.19
					l-0.2,0.2v0.86h-0.97l-0.5,0.19v0.23h-5.61c-0.02-0.08-0.04-0.16-0.07-0.25c0-0.02,0-0.04-0.01-0.06
					c-0.05-0.21-0.13-0.31-0.23-0.31H1.442c-0.47,0-0.83,0.13-1.09,0.39c-0.23,0.23-0.35,0.5-0.35,0.82v11.91
					c0,0.29,0.06,0.489,0.19,0.63c0,0.02,0.13,0.14,0.39,0.35c0.15,0.12,0.38,0.22,0.66,0.271c0.26,0.08,0.49,0.09,0.7,0.04
					c0.16-0.03,0.3-0.2,0.43-0.511l0.11-0.46l6.23-4.01l0.04,0.39c0.05,0.181,0.14,0.261,0.27,0.23c0.11-0.03,0.26-0.1,0.47-0.23
					c0.21-0.13,1.31-0.96,3.31-2.5h1.36v0.59h2.3l0.62-1.09h0.93l0.71-1.29l0.31-0.27c0.26-0.26,0.57-0.52,0.93-0.77
					c0.34-0.26,0.57-0.56,0.7-0.9l0.08-0.43h6v0.2l0.5,0.19h0.2c-0.06,0.23-0.07,0.6-0.04,1.09c0,0.26,0.01,0.56,0.04,0.89
					c0,0.27,0.14,0.46,0.43,0.59c0.13,0.05,0.27,0.06,0.43,0.04c0.2-0.03,0.42-0.04,0.66-0.04c0.34,0.02,0.58,0.31,0.74,0.85
					c0.15,0.52,0.15,0.93,0,1.21c-3.06,5.271-4.71,8.11-4.95,8.53c-0.15,0.31,0,0.59,0.47,0.85c0.41,0.26,1.01,0.44,1.79,0.55
					c2.03,0.28,3.18,0.24,3.47-0.119c0.13-0.181,0.11-0.381-0.04-0.58c-0.18-0.29-0.27-0.46-0.27-0.511c0-0.13,0.22-0.6,0.66-1.399
					c0.52-0.96,0.79-1.47,0.81-1.521c0.08-0.21,0.29-0.359,0.63-0.47c0.33-0.13,0.52-0.22,0.54-0.27c0.03-0.08-0.04-0.23-0.19-0.471
					c-0.13-0.2-0.17-0.37-0.12-0.5c0.05-0.08,0.16-0.21,0.31-0.39c0.13-0.13,0.25-0.32,0.36-0.55c0.1-0.23,0.25-0.351,0.46-0.351
					c0.11,0,0.21,0.03,0.31,0.08l0.12,0.19c0.13,0.16,0.24,0.229,0.31,0.229c0.13,0,0.28-0.14,0.43-0.42h4.44
					c0.1,0,0.27-0.17,0.51-0.51v0.43l0.5,0.15l-0.04,1.05c0.03,0.94,0.149,1.99,0.35,3.16c0.19,1.06,0.46,2.19,0.82,3.39
					c0.26,0.9,0.38,1.38,0.35,1.44c-0.05,0.1-0.05,0.22,0,0.35c0.08,0.13,0.2,0.19,0.351,0.19c0.239-0.05,2.29-0.7,6.149-1.95
					c0.16-0.07,0.2-0.16,0.12-0.27l-0.189-0.11c-0.521-1.72-0.87-2.91-1.061-3.58c-0.149-0.58-0.27-1.02-0.34-1.33
					c-0.06-0.41-0.08-0.88-0.08-1.4c0-0.159-0.04-0.68-0.12-1.56c-0.05-0.49-0.01-0.76,0.12-0.81c0.18-0.11,0.28-0.21,0.311-0.32
					l-0.311-0.39v-4.48h0.271l0.43-0.69l0.15,0.35c0.13,0.23,0.26,0.35,0.39,0.35h18.81c0.23,0,0.45-0.09,0.66-0.28
					c0.21-0.15,0.311-0.31,0.311-0.46V11.1h2.42l0.109,0.16c0.08,0.13,0.16,0.19,0.23,0.19h0.59c0.18,0,0.35-0.22,0.5-0.66h1.21
					l0.08,0.12c0.05,0.08,0.12,0.11,0.19,0.11l4.789,0.01c0.19,0,0.351-0.07,0.511-0.2c0.18-0.15,0.27-0.36,0.27-0.62V9.82
					C78.602,9.48,78.502,9.22,78.292,9.04z M38.892,17.84c-0.18,0.34-0.51,0.51-0.97,0.51h-2.38c-0.33,0-0.62-0.159-0.86-0.47
					c-0.2-0.31-0.32-0.649-0.34-1.01c0-0.29,0.14-0.56,0.42-0.82c0.16-0.13,0.32-0.24,0.47-0.31l0.04,0.47
					c0.05,0.33,0.14,0.58,0.27,0.73c0.44,0.6,0.74,0.85,0.9,0.739c0.05-0.05,0.01-0.229-0.12-0.54c-0.18-0.39-0.26-0.689-0.23-0.899
					c0.05-0.26,0.1-0.41,0.16-0.47c0-0.05,0.01-0.06,0.03-0.03h1.87c0.26,0,0.48,0.1,0.66,0.31c0.19,0.21,0.28,0.48,0.28,0.82
					C39.092,17.28,39.022,17.6,38.892,17.84z M70.742,7.99h-1.761l-0.229-0.51c-0.05-0.23-0.061-0.39-0.04-0.46
					c0.03-0.08,0.1-0.25,0.24-0.51l0.42-0.82h1.479L70.742,7.99z"/>
			</g>
		</g>
	</g>
	<g>
		
			<linearGradient id="SVGID_2_" gradientUnits="userSpaceOnUse" x1="-852.4714" y1="43.2217" x2="-853.3011" y2="43.2217" gradientTransform="matrix(34.3911 2.8881 -1.1007 13.1066 29412.416 1908.854)">
			<stop  offset="0" style="stop-color:#00FFFF"/>
			<stop  offset="0.6495" style="stop-color:#FFE3A0"/>
		</linearGradient>
		<path fill="url(#SVGID_2_)" d="M21.062,8.26c-0.05-0.21-0.13-0.31-0.23-0.31h-1.73c0.67,0.11,1.32,0.23,1.97,0.37
			C21.072,8.3,21.072,8.28,21.062,8.26z M32.462,5.95l-0.66,0.95h-2.33c-0.49,0-0.84,0.06-1.05,0.19l-0.2,0.2v0.86h-0.97l-0.5,0.19
			v0.23h-4.45c9.33,1.99,16.96,5.54,22.89,10.64C41.702,14.07,37.452,9.64,32.462,5.95z"/>
	</g>
	<g>
		<linearGradient id="SVGID_3_" gradientUnits="userSpaceOnUse" x1="52.8284" y1="9.0854" x2="39.0556" y2="9.0854">
			<stop  offset="0" style="stop-color:#00FFFF"/>
			<stop  offset="0.8219" style="stop-color:#FFE3A0"/>
		</linearGradient>
		<path fill="url(#SVGID_3_)" d="M52.012,11.43c-3.89-2.17-8.2-3.73-12.96-4.69h7.46C48.432,8.16,50.262,9.73,52.012,11.43z"/>
	</g>
	<g>
		<g>
			<g>
				<g>
					<linearGradient id="SVGID_4_" gradientUnits="userSpaceOnUse" x1="24.2498" y1="35.7266" x2="49.7197" y2="-8.3887">
						<stop  offset="0" style="stop-color:#BB925B"/>
						<stop  offset="0.3429" style="stop-color:#FFF6DA"/>
						<stop  offset="0.6571" style="stop-color:#FFF1B1"/>
						<stop  offset="1" style="stop-color:#B38B54"/>
					</linearGradient>
					<path fill="url(#SVGID_4_)" d="M32.967,6.976c0.16,0.339,0.505,0.574,0.905,0.574h0.47c0.239,0,0.458-0.083,0.63-0.223
						c0.182,0.25,0.477,0.414,0.81,0.414h10.724c0.163,0.389,0.54,0.65,0.977,0.65c0.3,0,0.553-0.113,0.805-0.3h0.805
						c0.318,0,0.602-0.148,0.784-0.38h16.691c0.04,0.047,0.079,0.089,0.117,0.127c0.188,0.188,0.442,0.293,0.707,0.293
						c0.026,0,0.053-0.001,0.079-0.003c0.148-0.012,0.291-0.057,0.418-0.129L68.07,8.4c0.161,0.359,0.519,0.59,0.912,0.59h1.49v0.17
						c0,0.354,0.185,0.666,0.463,0.843c-0.097,0.076-0.179,0.168-0.242,0.275c-0.165-0.115-0.363-0.179-0.57-0.179h-2.42
						c-0.553,0-1,0.448-1,1v0.364c-0.003,0.002-0.006,0.004-0.008,0.006H48.342l-0.041-0.095c-0.147-0.342-0.472-0.575-0.844-0.603
						c-0.025-0.002-0.05-0.003-0.075-0.003c-0.344,0-0.665,0.177-0.849,0.471l-0.168,0.27c-0.397,0.132-0.684,0.507-0.684,0.949
						v4.48c0,0.101,0.016,0.2,0.045,0.295c-0.248,0.459-0.188,1.045-0.161,1.315c0.107,1.179,0.116,1.422,0.116,1.469
						c0,0.629,0.028,1.119,0.091,1.544c0.003,0.026,0.008,0.052,0.014,0.077c0.05,0.22,0.124,0.503,0.215,0.852l0.139,0.531
						c0.169,0.596,0.464,1.602,0.893,3.023c-2.396,0.774-3.699,1.189-4.399,1.407c-0.065-0.269-0.163-0.61-0.293-1.063
						c-0.338-1.123-0.605-2.227-0.793-3.271c-0.194-1.14-0.305-2.118-0.334-2.989l0.038-1.014c0.016-0.396-0.204-0.758-0.549-0.932
						c-0.099-0.299-0.336-0.54-0.647-0.64c-0.006-0.002-0.013-0.004-0.019-0.006c0.037-0.207,0.056-0.43,0.056-0.671
						c0-0.595-0.182-1.098-0.521-1.471c-0.369-0.431-0.86-0.659-1.419-0.659h-1.711c-0.059-0.011-0.118-0.017-0.177-0.017
						c-0.19,0-0.368,0.058-0.521,0.157c-0.003-0.002-0.006-0.003-0.009-0.005c-0.154-0.089-0.328-0.135-0.501-0.135
						c-0.144,0-0.287,0.031-0.421,0.093c-0.215,0.1-0.438,0.244-0.679,0.44c-0.018,0.014-0.035,0.029-0.051,0.044
						c-0.611,0.568-0.739,1.158-0.739,1.553c0,0.019,0,0.037,0.001,0.056c0.02,0.346,0.099,0.683,0.236,1.005
						c-0.581,0.02-1.073,0.371-1.309,0.916c-0.101,0.21-0.162,0.272-0.165,0.275c-0.022,0.021-0.042,0.044-0.063,0.067l-0.034,0.04
						c-0.165,0.198-0.274,0.329-0.357,0.462c-0.033,0.053-0.061,0.109-0.083,0.167c-0.079,0.205-0.132,0.491-0.046,0.834
						c-0.389,0.206-0.657,0.488-0.8,0.84c-0.051,0.102-0.258,0.495-0.768,1.436c-0.729,1.325-0.784,1.605-0.784,1.882
						c0,0.135,0.023,0.258,0.074,0.394c-0.023,0-0.047,0-0.072,0c-0.505,0-1.186-0.059-2.023-0.174
						c-0.672-0.095-1.061-0.229-1.283-0.342c0.459-0.794,1.49-2.569,3.091-5.327l1.624-2.798c0.278-0.519,0.305-1.178,0.078-1.966
						c-0.384-1.3-1.192-1.538-1.64-1.564c-0.02-0.001-0.039-0.002-0.059-0.002c-0.204,0-0.383,0.007-0.546,0.021
						c-0.009-0.165-0.014-0.333-0.014-0.5c0-0.021,0-0.041-0.002-0.062c-0.036-0.581,0.005-0.757,0.01-0.775
						c0.078-0.3,0.013-0.619-0.176-0.864c-0.17-0.22-0.422-0.358-0.696-0.384c-0.183-0.24-0.471-0.395-0.796-0.395h-6
						c-0.482,0-0.895,0.343-0.983,0.817l-0.061,0.324c-0.068,0.141-0.177,0.268-0.306,0.368c-0.384,0.266-0.734,0.555-1.042,0.859
						l-0.286,0.249c-0.088,0.077-0.163,0.169-0.219,0.272l-0.425,0.772h-0.339c-0.36,0-0.691,0.193-0.869,0.506L15.88,14.86h-0.806
						c-0.156-0.348-0.506-0.59-0.912-0.59h-1.36c-0.221,0-0.435,0.073-0.61,0.208c-1.594,1.228-2.407,1.842-2.822,2.149
						c-0.067-0.059-0.143-0.108-0.225-0.148C9.008,16.413,8.86,16.38,8.712,16.38c-0.189,0-0.377,0.054-0.541,0.159l-6.23,4.01
						c-0.217,0.14-0.371,0.357-0.431,0.607l-0.045,0.189c-0.015-0.004-0.029-0.007-0.044-0.01c-0.128-0.022-0.202-0.059-0.21-0.063
						c-0.088-0.071-0.157-0.129-0.208-0.173c0-0.009,0-0.019,0-0.029V9.16c0-0.035,0-0.057,0.056-0.112
						C1.123,8.983,1.252,8.95,1.442,8.95h18.775c0.152,0.371,0.515,0.62,0.925,0.62h5.61c0.336,0,0.633-0.166,0.814-0.42h0.655
						c0.552,0,1-0.448,1-1V7.907C29.29,7.903,29.373,7.9,29.472,7.9h2.33c0.328,0,0.634-0.16,0.821-0.429L32.967,6.976 M77.602,9.81
						c0,0.003,0,0.006,0,0.01v0.209l-4.201-0.008c-0.039-0.033-0.08-0.062-0.124-0.088c0.045-0.037,0.087-0.078,0.125-0.123H77.602
						 M32.702,3.12c-0.28,0-0.54,0.12-0.78,0.35c-0.21,0.21-0.31,0.44-0.31,0.7c0,0.39,0.16,0.71,0.47,0.94
						c0.15,0.1,0.31,0.18,0.47,0.23l0.07,0.39l-0.16,0.22l-0.66,0.95h-2.33c-0.49,0-0.84,0.06-1.05,0.19l-0.2,0.2v0.86h-0.97
						l-0.5,0.19v0.23h-5.61c-0.02-0.08-0.04-0.16-0.07-0.25c0-0.02,0-0.04-0.01-0.06c-0.05-0.21-0.13-0.31-0.23-0.31H1.442
						c-0.47,0-0.83,0.13-1.09,0.39c-0.23,0.23-0.35,0.5-0.35,0.82v11.91c0,0.29,0.06,0.489,0.19,0.63c0,0.02,0.13,0.14,0.39,0.35
						c0.15,0.12,0.38,0.22,0.66,0.271c0.155,0.048,0.3,0.07,0.436,0.07c0.092,0,0.18-0.01,0.265-0.03c0.16-0.03,0.3-0.2,0.43-0.511
						l0.11-0.46l6.23-4.01l0.04,0.39c0.043,0.155,0.116,0.236,0.218,0.236c0.017,0,0.034-0.002,0.052-0.006
						c0.11-0.03,0.26-0.1,0.47-0.23c0.21-0.13,1.31-0.96,3.31-2.5h1.36v0.59h2.3l0.62-1.09h0.93l0.71-1.29l0.31-0.27
						c0.26-0.26,0.57-0.52,0.93-0.77c0.34-0.26,0.57-0.56,0.7-0.9l0.08-0.43h6v0.2l0.5,0.19h0.2c-0.06,0.23-0.07,0.6-0.04,1.09
						c0,0.26,0.01,0.56,0.04,0.89c0,0.27,0.14,0.46,0.43,0.59c0.089,0.034,0.182,0.05,0.283,0.05c0.047,0,0.096-0.003,0.147-0.01
						c0.2-0.03,0.42-0.04,0.66-0.04c0.34,0.02,0.58,0.31,0.74,0.85c0.15,0.52,0.15,0.93,0,1.21c-3.06,5.271-4.71,8.11-4.95,8.53
						c-0.15,0.31,0,0.59,0.47,0.85c0.41,0.26,1.01,0.44,1.79,0.55c0.889,0.123,1.609,0.184,2.162,0.184
						c0.71,0,1.145-0.101,1.308-0.303c0.13-0.181,0.11-0.381-0.04-0.58c-0.18-0.29-0.27-0.46-0.27-0.511c0-0.13,0.22-0.6,0.66-1.399
						c0.52-0.96,0.79-1.47,0.81-1.521c0.08-0.21,0.29-0.359,0.63-0.47c0.33-0.13,0.52-0.22,0.54-0.27
						c0.03-0.08-0.04-0.23-0.19-0.471c-0.13-0.2-0.17-0.37-0.12-0.5c0.05-0.08,0.16-0.21,0.31-0.39c0.13-0.13,0.25-0.32,0.36-0.55
						c0.1-0.23,0.25-0.351,0.46-0.351c0.11,0,0.21,0.03,0.31,0.08l0.12,0.19c0.13,0.16,0.24,0.229,0.31,0.229
						c0.13,0,0.28-0.14,0.43-0.42h4.44c0.1,0,0.27-0.17,0.51-0.51v0.43l0.5,0.15l-0.04,1.05c0.03,0.94,0.149,1.99,0.35,3.16
						c0.19,1.06,0.46,2.19,0.82,3.39c0.26,0.9,0.38,1.38,0.35,1.44c-0.05,0.1-0.05,0.22,0,0.35c0.08,0.13,0.2,0.19,0.351,0.19
						c0.239-0.05,2.29-0.7,6.149-1.95c0.16-0.07,0.2-0.16,0.12-0.27l-0.189-0.11c-0.521-1.72-0.87-2.91-1.061-3.58
						c-0.149-0.58-0.27-1.02-0.34-1.33c-0.06-0.41-0.08-0.88-0.08-1.4c0-0.159-0.04-0.68-0.12-1.56c-0.05-0.49-0.01-0.76,0.12-0.81
						c0.18-0.11,0.28-0.21,0.311-0.32l-0.311-0.39v-4.48h0.271l0.43-0.69l0.15,0.35c0.13,0.23,0.26,0.35,0.39,0.35h18.81
						c0.23,0,0.45-0.09,0.66-0.28c0.21-0.15,0.311-0.31,0.311-0.46V11.1h2.42l0.109,0.16c0.08,0.13,0.16,0.19,0.23,0.19h0.59
						c0.18,0,0.35-0.22,0.5-0.66h1.21l0.08,0.12c0.05,0.08,0.12,0.11,0.19,0.11l4.789,0.01c0.19,0,0.351-0.07,0.511-0.2
						c0.18-0.15,0.27-0.36,0.27-0.62V9.82c0-0.34-0.1-0.6-0.31-0.78c-0.13-0.16-0.3-0.23-0.51-0.23h-4.671
						c-0.1,0-0.21,0.05-0.31,0.15l-0.16,0.2h-1.17V4.17h-0.97c-0.41,0-0.74,0.07-0.97,0.2l-0.19,0.19
						c-0.19,0.16-0.56,0.64-1.13,1.44l-0.82,1.13c-0.05-0.05-0.1-0.11-0.16-0.19c-0.13-0.16-0.27-0.23-0.43-0.23h-17.36
						c-0.149,0-0.26,0.06-0.31,0.19c-0.03,0.05-0.04,0.12-0.04,0.19h-1.17c-0.215,0.2-0.362,0.3-0.439,0.3
						c-0.034,0-0.055-0.02-0.061-0.06c-0.05-0.11-0.13-0.22-0.24-0.35c-0.13-0.16-0.27-0.24-0.42-0.24h-10.98V5.93h-1.44v0.62h-0.47
						V4.21c0-0.28-0.11-0.53-0.31-0.74C33.332,3.24,33.042,3.12,32.702,3.12L32.702,3.12z M68.982,7.99l-0.229-0.51
						c-0.05-0.23-0.061-0.39-0.04-0.46c0.03-0.08,0.1-0.25,0.24-0.51l0.42-0.82h1.479l-0.109,2.3H68.982L68.982,7.99z
						 M36.359,17.705c0.031,0,0.059-0.009,0.083-0.025c0.05-0.05,0.01-0.229-0.12-0.54c-0.18-0.39-0.26-0.689-0.23-0.899
						c0.05-0.26,0.1-0.41,0.16-0.47c0-0.031,0.004-0.047,0.012-0.047c0.004,0,0.011,0.006,0.018,0.017h1.87
						c0.26,0,0.48,0.1,0.66,0.31c0.19,0.21,0.28,0.48,0.28,0.82c0,0.41-0.07,0.729-0.2,0.97c-0.18,0.34-0.51,0.51-0.97,0.51h-2.38
						c-0.33,0-0.62-0.159-0.86-0.47c-0.2-0.31-0.32-0.649-0.34-1.01c0-0.29,0.14-0.56,0.42-0.82c0.16-0.13,0.32-0.24,0.47-0.31
						l0.04,0.47c0.05,0.33,0.14,0.58,0.27,0.73C35.915,17.448,36.187,17.705,36.359,17.705L36.359,17.705z"/>
				</g>
			</g>
		</g>
	</g>
</g>
</svg>
