<?xml version="1.0" encoding="utf-8"?>
<!-- Generator: Adobe Illustrator 16.0.0, SVG Export Plug-In . SVG Version: 6.00 Build 0)  -->
<!DOCTYPE svg PUBLIC "-//W3C//DTD SVG 1.1//EN" "http://www.w3.org/Graphics/SVG/1.1/DTD/svg11.dtd">
<svg version="1.1" id="图层_1" xmlns="http://www.w3.org/2000/svg" xmlns:xlink="http://www.w3.org/1999/xlink" x="0px" y="0px"
	 width="92.059px" height="31.75px" viewBox="0 0 92.059 31.75" enable-background="new 0 0 92.059 31.75" xml:space="preserve">
<rect x="0" fill="none" width="92.059" height="31.75"/>
<g>
	<g>
		<g>
			<g>
				<g>
					
						<linearGradient id="SVGID_1_" gradientUnits="userSpaceOnUse" x1="-858.6897" y1="38.0557" x2="-857.7142" y2="37.0371" gradientTransform="matrix(90.0784 0 0 15.212 77344.0469 -553.4878)">
						<stop  offset="0.2808" style="stop-color:#000000"/>
						<stop  offset="0.5764" style="stop-color:#FFD400"/>
						<stop  offset="0.8522" style="stop-color:#FF0000"/>
					</linearGradient>
					<path fill="url(#SVGID_1_)" d="M4.341,19.059c0.28,0.256,0.614,0.387,1.001,0.387c0.388,0,0.71-0.131,0.969-0.387
						c0.28-0.283,0.419-0.615,0.419-1.002c0-0.39-0.14-0.711-0.419-0.971c-0.259-0.279-0.582-0.418-0.969-0.418
						s-0.721,0.139-1.001,0.418c-0.258,0.26-0.388,0.581-0.388,0.971C3.954,18.443,4.083,18.775,4.341,19.059z M1.822,15.051
						c-0.085-0.106-0.202-0.161-0.354-0.161c-0.15,0-0.279,0.055-0.388,0.161c-0.107,0.109-0.162,0.239-0.162,0.39
						s0.054,0.277,0.162,0.387c0.106,0.107,0.235,0.162,0.388,0.162s0.27-0.055,0.354-0.162c0.108-0.109,0.162-0.236,0.162-0.387
						S1.93,15.161,1.822,15.051z M36.121,15.311c-0.28-0.279-0.615-0.421-1.001-0.421c-0.39,0-0.711,0.142-0.971,0.421
						c-0.277,0.257-0.419,0.582-0.419,0.97c0,0.388,0.142,0.72,0.419,1.002c0.26,0.257,0.582,0.385,0.971,0.385
						c0.387,0,0.722-0.128,1.001-0.385c0.257-0.282,0.387-0.614,0.387-1.002C36.508,15.893,36.378,15.568,36.121,15.311z
						 M67.996,14.988c0.106-0.13,0.16-0.269,0.16-0.421c0-0.171-0.054-0.323-0.16-0.451c-0.129-0.106-0.271-0.173-0.421-0.193
						l-16.633-0.517c-0.278,0.021-0.527,0.139-0.741,0.354c-0.26,0.237-0.39,0.526-0.39,0.872c0,0.323,0.129,0.604,0.39,0.839
						c0.214,0.215,0.463,0.334,0.741,0.356l16.633-0.646C67.727,15.161,67.867,15.097,67.996,14.988z M90.344,12.017L81.98,20.35
						c-7.275,2.713-14.974,3.465-23.092,2.26c-0.063-0.063-0.14-0.129-0.226-0.192c-0.174-0.149-0.333-0.235-0.484-0.257
						c-0.172,0-0.334,0.041-0.484,0.129c-0.086,0.041-0.161,0.085-0.227,0.128c-0.021-0.063-0.064-0.115-0.129-0.161
						c-0.129-0.131-0.258-0.193-0.387-0.193c-0.108,0-0.195,0.045-0.261,0.129c-0.021,0.043-0.042,0.086-0.063,0.131
						c-0.022-0.064-0.057-0.119-0.1-0.16c-0.085-0.13-0.191-0.194-0.32-0.194c-0.108,0-0.194,0.044-0.259,0.128
						c-0.045,0.045-0.064,0.086-0.064,0.131c-0.064-0.063-0.152-0.131-0.259-0.192c-0.215-0.15-0.409-0.228-0.582-0.228
						c-0.172,0-0.301,0.053-0.388,0.161c-0.064,0.044-0.098,0.097-0.098,0.159c-0.043-0.042-0.096-0.095-0.162-0.159
						c-0.106-0.108-0.226-0.161-0.354-0.161c-0.107,0-0.185,0.053-0.228,0.161c-0.021,0.064-0.03,0.117-0.03,0.159
						c-0.022-0.042-0.057-0.095-0.1-0.159c-0.085-0.108-0.183-0.161-0.291-0.161c-0.106,0-0.182,0.053-0.225,0.161
						c-0.044,0.064-0.065,0.117-0.065,0.159c-0.043-0.042-0.097-0.086-0.162-0.127c-0.171-0.109-0.354-0.161-0.548-0.161
						c-0.192,0.021-0.345,0.097-0.453,0.226c-0.063,0.063-0.105,0.127-0.129,0.193c-0.021-0.044-0.053-0.087-0.096-0.131
						c-0.108-0.086-0.216-0.115-0.323-0.095c-0.106,0.02-0.173,0.095-0.193,0.226c-0.021,0.064-0.032,0.129-0.032,0.192
						c-0.043-0.042-0.086-0.083-0.129-0.128c-0.129-0.045-0.237-0.055-0.324-0.031c-0.085,0.041-0.14,0.128-0.161,0.258
						c0,0.063,0,0.129,0,0.193c-0.063-0.043-0.151-0.075-0.259-0.098c-0.194-0.041-0.387-0.021-0.582,0.063
						c-0.171,0.085-0.278,0.215-0.322,0.388c-0.043,0.109-0.053,0.193-0.032,0.262l-0.291,0.16c-0.215-0.281-0.462-0.552-0.741-0.81
						c-0.581-0.539-1.065-0.722-1.453-0.548c-0.409,0.148-0.7,0.548-0.872,1.193c-0.087,0.32-0.129,0.633-0.129,0.938H44.58
						c-0.108-0.711-0.398-0.854-0.872-0.42l-0.485-0.195c-0.043-0.71-0.354-0.859-0.937-0.449l-0.419-0.195
						c-0.088-0.664-0.398-0.807-0.938-0.42l-0.485-0.129c-0.043-0.646-0.354-0.783-0.936-0.42c-0.539-0.235-1.184-0.475-1.938-0.709
						c-1.527-0.453-2.818-0.646-3.876-0.582c-1.098,0.063-2.421,0.367-3.971,0.903c-1.355,0.537-2.11,0.808-2.261,0.808
						c-0.302,0.021-0.797-0.074-1.486-0.291c-1.378-0.43-2.163-0.668-2.355-0.711c-2.454-0.668-4.952-0.881-7.493-0.646
						c-1.615,0.13-4.124,0.646-7.525,1.55c-3.166,0.885-4.845,1.334-5.039,1.357c-0.259,0.043-0.56,0.063-0.901,0.063l-0.45-0.033
						l-0.776-1.162l-0.191-3.295c-0.174-0.319-0.346-0.709-0.518-1.158c-0.345-0.906-0.496-1.684-0.452-2.327
						c0.021-0.754,0.495-1.303,1.421-1.648c0.452-0.17,0.904-0.279,1.356-0.323c0-0.063,0.076-0.182,0.226-0.355
						c0.218-0.279,1.356-0.654,3.425-1.128c2.368-0.56,5.006-1.003,7.911-1.325c2.647-0.323,5.457-0.493,8.43-0.517
						c1.484-0.021,2.712-0.012,3.682,0.032c1.399,0.065,2.681,0.236,3.843,0.519c0.581,0.128,1.014,0.257,1.291,0.387l1.811,0.128
						l0.097,0.259c0.108,0.172,0.258,0.271,0.453,0.292c0.191,0,0.332-0.087,0.42-0.26l0.063-0.226l0.612,0.064l0.13,0.225
						c0.085,0.15,0.216,0.226,0.388,0.226c0.173,0,0.302-0.063,0.389-0.193l0.064-0.225h0.612l0.162,0.225
						c0.151,0.153,0.313,0.217,0.484,0.193c0.149-0.021,0.27-0.107,0.354-0.257l0.064-0.258l0.582-0.098l0.226,0.162
						c0.151,0.106,0.302,0.141,0.452,0.098c0.129-0.046,0.216-0.173,0.258-0.387v-0.26l0.453-0.162l0.259,0.13
						c0.215,0.064,0.376,0.075,0.485,0.032c0.106-0.066,0.17-0.194,0.192-0.387l-0.032-0.26l0.452-0.258l0.291,0.064
						c0.215,0.043,0.376,0.031,0.482-0.032c0.107-0.065,0.15-0.193,0.129-0.389l-0.063-0.289l1.064-0.549l0.162,0.354
						c0.193,0.28,0.419,0.505,0.678,0.679c0.28,0.171,0.614,0.301,1.001,0.388c0.194,0.042,0.366,0.063,0.518,0.063l19.087-0.419
						l1.615,0.903c1.271,0.667,2.368,1.195,3.294,1.582c1.851,0.733,3.003,0.667,3.455-0.191c0.149-0.262-0.042-0.701-0.581-1.327
						l-0.872-0.871C77.813,10.413,84.079,11.004,90.344,12.017z"/>
				</g>
			</g>
		</g>
	</g>
</g>
<path fill="none" d="M1.468,100.641c-0.15,0-0.279,0.055-0.388,0.16c-0.107,0.109-0.162,0.24-0.162,0.391s0.054,0.277,0.162,0.387
	c0.106,0.107,0.235,0.162,0.388,0.162s0.27-0.055,0.354-0.162c0.108-0.109,0.162-0.236,0.162-0.387s-0.054-0.279-0.162-0.391
	C1.737,100.695,1.619,100.641,1.468,100.641z"/>
<path fill="none" d="M49.812,100.383c0,0.322,0.129,0.604,0.39,0.839c0.214,0.215,0.463,0.334,0.741,0.356l1.129-0.044
	c-0.696-0.594-1.422-1.127-2.168-1.601C49.846,100.072,49.812,100.22,49.812,100.383z"/>
<path fill="none" d="M5.342,102.418c-0.387,0-0.721,0.139-1.001,0.418c-0.258,0.26-0.388,0.582-0.388,0.971
	c0.001,0.387,0.13,0.719,0.388,1.002c0.28,0.256,0.614,0.387,1.001,0.387c0.388,0,0.71-0.131,0.969-0.387
	c0.28-0.283,0.419-0.615,0.419-1.002c0-0.389-0.14-0.711-0.419-0.971C6.052,102.557,5.729,102.418,5.342,102.418z"/>
<path fill="none" d="M35.12,100.641c-0.39,0-0.711,0.143-0.971,0.421c-0.277,0.257-0.419,0.582-0.419,0.97
	c0,0.389,0.142,0.721,0.419,1.002c0.26,0.258,0.582,0.385,0.971,0.385c0.387,0,0.722-0.127,1.001-0.385
	c0.257-0.281,0.387-0.613,0.387-1.002c0-0.388-0.13-0.713-0.387-0.97C35.841,100.783,35.506,100.641,35.12,100.641z"/>
<path fill="none" d="M67.575,100.932c0.151-0.02,0.292-0.084,0.421-0.193c0.106-0.13,0.16-0.27,0.16-0.421
	c0-0.171-0.054-0.323-0.16-0.45c-0.129-0.107-0.271-0.174-0.421-0.193l-16.397-0.51c0.638,0.918,1.141,1.731,1.499,2.347
	L67.575,100.932z"/>
<linearGradient id="SVGID_2_" gradientUnits="userSpaceOnUse" x1="-858.6887" y1="43.6934" x2="-857.7133" y2="42.6748" gradientTransform="matrix(90.0784 0 0 15.212 77344.0469 -553.4878)">
	<stop  offset="0.2808" style="stop-color:#000000"/>
	<stop  offset="0.5764" style="stop-color:#FFD400"/>
	<stop  offset="0.8522" style="stop-color:#FF0000"/>
</linearGradient>
<path fill="url(#SVGID_2_)" d="M71.549,95.99l0.872,0.871c0.539,0.626,0.73,1.064,0.581,1.327c-0.452,0.858-1.604,0.924-3.455,0.19
	c-0.926-0.387-2.023-0.914-3.294-1.582l-1.615-0.902L48.91,96.24c0.881,1.017,1.641,2.02,2.268,2.924l16.397,0.51
	c0.15,0.02,0.292,0.086,0.421,0.193c0.106,0.127,0.16,0.279,0.16,0.45c0,0.151-0.054,0.291-0.16,0.421
	c-0.129,0.109-0.27,0.174-0.421,0.193l-14.898,0.579c0.433,0.742,0.657,1.197,0.657,1.197c-0.406-0.419-0.83-0.806-1.263-1.174
	l-1.129,0.044c-0.278-0.022-0.527-0.142-0.741-0.356c-0.261-0.235-0.39-0.517-0.39-0.839c0-0.163,0.034-0.311,0.092-0.449
	c-2.919-1.848-6.137-2.821-9.057-3.31c-0.03,0.142-0.082,0.25-0.171,0.306c-0.109,0.043-0.271,0.031-0.485-0.032l-0.259-0.13
	l-0.453,0.162v0.26c-0.042,0.214-0.129,0.341-0.258,0.387c-0.15,0.043-0.301,0.008-0.452-0.098l-0.226-0.162l-0.582,0.098
	l-0.064,0.258c-0.084,0.15-0.204,0.236-0.354,0.258c-0.171,0.023-0.333-0.04-0.484-0.193l-0.162-0.225h-0.612l-0.064,0.225
	c-0.087,0.131-0.216,0.193-0.389,0.193c-0.172,0-0.303-0.076-0.388-0.227l-0.13-0.225l-0.612-0.064l-0.063,0.227
	c-0.088,0.173-0.229,0.26-0.42,0.26c-0.195-0.021-0.345-0.12-0.453-0.292l-0.097-0.259l-1.811-0.128
	c-0.277-0.13-0.71-0.259-1.291-0.388c-0.198-0.049-0.42-0.074-0.625-0.116c3.483,4.907,5.058,9.521,5.058,9.521
	c-3.977-5.922-9.88-8.646-15.064-9.867c-1.839,0.083-3.619,0.221-5.323,0.429c-2.905,0.322-5.543,0.765-7.911,1.324
	c-2.068,0.475-3.207,0.85-3.425,1.129c-0.149,0.172-0.226,0.291-0.226,0.354c-0.452,0.044-0.904,0.153-1.356,0.323
	c-0.926,0.345-1.399,0.895-1.421,1.648c-0.044,0.643,0.107,1.42,0.452,2.326c0.172,0.449,0.344,0.84,0.518,1.158l0.191,3.295
	l0.776,1.162l0.45,0.033c0.342,0,0.643-0.02,0.901-0.063c0.194-0.023,1.873-0.473,5.039-1.357c3.401-0.904,5.91-1.42,7.525-1.549
	c2.541-0.236,5.039-0.023,7.493,0.645c0.192,0.043,0.978,0.281,2.355,0.711c0.689,0.217,1.185,0.313,1.486,0.291
	c0.15,0,0.905-0.27,2.261-0.807c1.55-0.537,2.873-0.84,3.971-0.904c1.058-0.064,2.349,0.129,3.876,0.582
	c0.755,0.234,1.399,0.475,1.938,0.709c0.582-0.363,0.893-0.225,0.936,0.42l0.485,0.129c0.54-0.387,0.851-0.244,0.938,0.42
	l0.419,0.195c0.583-0.41,0.894-0.26,0.937,0.449l0.485,0.195c0.474-0.434,0.764-0.291,0.872,0.42h1.292
	c0-0.305,0.042-0.617,0.129-0.938c0.172-0.645,0.463-1.045,0.872-1.193c0.388-0.174,0.872,0.01,1.453,0.549
	c0.279,0.258,0.526,0.527,0.741,0.809l0.291-0.16c-0.021-0.068-0.011-0.152,0.032-0.262c0.044-0.172,0.151-0.303,0.322-0.387
	c0.195-0.086,0.388-0.105,0.582-0.064c0.107,0.023,0.195,0.055,0.259,0.098c0-0.064,0-0.131,0-0.193
	c0.021-0.129,0.076-0.217,0.161-0.258c0.087-0.023,0.195-0.014,0.324,0.031c0.043,0.045,0.086,0.086,0.129,0.129
	c0-0.064,0.011-0.129,0.032-0.193c0.021-0.131,0.087-0.205,0.193-0.225c0.107-0.021,0.215,0.008,0.323,0.094
	c0.043,0.045,0.075,0.088,0.096,0.131c0.023-0.066,0.066-0.129,0.129-0.193c0.108-0.129,0.261-0.205,0.453-0.225
	c0.194,0,0.377,0.051,0.548,0.16c0.065,0.041,0.119,0.086,0.162,0.127c0-0.041,0.021-0.094,0.065-0.158
	c0.043-0.109,0.118-0.162,0.225-0.162c0.108,0,0.206,0.053,0.291,0.162c0.043,0.064,0.077,0.117,0.1,0.158
	c0-0.041,0.01-0.094,0.03-0.158c0.043-0.109,0.12-0.162,0.228-0.162c0.128,0,0.247,0.053,0.354,0.162
	c0.066,0.064,0.119,0.117,0.162,0.158c0-0.063,0.033-0.115,0.098-0.158c0.087-0.109,0.216-0.162,0.388-0.162
	c0.173,0,0.367,0.078,0.582,0.229c0.106,0.061,0.194,0.129,0.259,0.191c0-0.045,0.02-0.086,0.064-0.131
	c0.064-0.084,0.15-0.127,0.259-0.127c0.129,0,0.235,0.064,0.32,0.193c0.043,0.041,0.077,0.096,0.1,0.16
	c0.021-0.045,0.042-0.088,0.063-0.131c0.065-0.084,0.152-0.129,0.261-0.129c0.129,0,0.258,0.063,0.387,0.193
	c0.064,0.047,0.107,0.098,0.129,0.162c0.065-0.043,0.141-0.088,0.227-0.129c0.15-0.088,0.313-0.129,0.484-0.129
	c0.151,0.021,0.311,0.107,0.484,0.258c0.086,0.063,0.162,0.129,0.226,0.191c8.118,1.205,15.816,0.453,23.092-2.26l8.364-8.332
	C84.079,96.754,77.813,96.164,71.549,95.99z M1.822,101.578c-0.084,0.107-0.201,0.162-0.354,0.162s-0.281-0.055-0.388-0.162
	c-0.108-0.109-0.162-0.236-0.162-0.387s0.055-0.281,0.162-0.391c0.108-0.105,0.237-0.16,0.388-0.16c0.151,0,0.269,0.055,0.354,0.16
	c0.108,0.111,0.162,0.24,0.162,0.391S1.93,101.469,1.822,101.578z M6.311,104.809c-0.259,0.256-0.581,0.387-0.969,0.387
	c-0.387,0-0.721-0.131-1.001-0.387c-0.258-0.283-0.387-0.615-0.388-1.002c0-0.389,0.13-0.711,0.388-0.971
	c0.28-0.279,0.614-0.418,1.001-0.418s0.71,0.139,0.969,0.418c0.279,0.26,0.419,0.582,0.419,0.971
	C6.73,104.193,6.591,104.525,6.311,104.809z M36.121,103.033c-0.279,0.258-0.614,0.385-1.001,0.385
	c-0.389,0-0.711-0.127-0.971-0.385c-0.277-0.281-0.419-0.613-0.419-1.002c0-0.388,0.142-0.713,0.419-0.97
	c0.26-0.278,0.581-0.421,0.971-0.421c0.386,0,0.721,0.143,1.001,0.421c0.257,0.257,0.387,0.582,0.387,0.97
	C36.508,102.42,36.378,102.752,36.121,103.033z"/>
<linearGradient id="SVGID_3_" gradientUnits="userSpaceOnUse" x1="9.5662" y1="98.0391" x2="27.2164" y2="87.8711">
	<stop  offset="0.3505" style="stop-color:#FFE3A0"/>
	<stop  offset="1" style="stop-color:#00FFFF"/>
</linearGradient>
<path fill="url(#SVGID_3_)" d="M26.724,96.315c1.161,0.055,2.22,0.199,3.218,0.402c-3.492-4.919-8.901-10.134-16.567-11.291
	L8.937,95.552c0,0,5.021-0.589,10.999,0.82c1.018-0.046,2.048-0.08,3.106-0.089C24.527,96.263,25.754,96.271,26.724,96.315z"/>
<linearGradient id="SVGID_4_" gradientUnits="userSpaceOnUse" x1="-858.8245" y1="43.5635" x2="-857.849" y2="42.5449" gradientTransform="matrix(90.0784 0 0 15.212 77344.0469 -553.4878)">
	<stop  offset="0.2808" style="stop-color:#000000"/>
	<stop  offset="0.5764" style="stop-color:#FFD400"/>
	<stop  offset="0.8522" style="stop-color:#FF0000"/>
</linearGradient>
<path fill="url(#SVGID_4_)" d="M35,106.239c0,0-1.575-4.614-5.058-9.521c-0.998-0.203-2.057-0.348-3.218-0.402
	c-0.97-0.044-2.197-0.053-3.682-0.032c-1.059,0.009-2.089,0.043-3.106,0.089C25.12,97.594,31.023,100.317,35,106.239z"/>
<linearGradient id="SVGID_5_" gradientUnits="userSpaceOnUse" x1="15.4397" y1="22.4854" x2="33.0905" y2="12.3171">
	<stop  offset="0.3505" style="stop-color:#FFE3A0"/>
	<stop  offset="1" style="stop-color:#00FFFF"/>
</linearGradient>
<path fill="url(#SVGID_5_)" d="M35,20.488c0,0-1.575-4.614-5.058-9.521c-0.998-0.203-2.057-0.348-3.218-0.402
	c-0.97-0.044-2.197-0.053-3.682-0.032c-1.059,0.009-2.089,0.043-3.106,0.089C25.12,11.843,31.023,14.566,35,20.488z"/>
<linearGradient id="SVGID_6_" gradientUnits="userSpaceOnUse" x1="32.0632" y1="98.5752" x2="47.7082" y2="89.5624">
	<stop  offset="0.1781" style="stop-color:#FFE3A0"/>
	<stop  offset="1" style="stop-color:#00FFFF"/>
</linearGradient>
<path fill="url(#SVGID_6_)" d="M40.836,96.283l0.452-0.259l0.291,0.063c0.215,0.043,0.376,0.031,0.482-0.031
	c0.107-0.064,0.15-0.193,0.129-0.389l-0.063-0.289l1.064-0.549l0.162,0.354c0.193,0.279,0.419,0.505,0.678,0.679
	c0.28,0.171,0.614,0.302,1.001,0.388c0.194,0.043,0.366,0.063,0.518,0.063l3.359-0.073c-2.998-3.46-7.416-7.059-12.952-7.282
	l-4.438,7.438c0,0,4.199-0.63,9.326,0.229c0.006-0.029,0.018-0.049,0.021-0.081L40.836,96.283z"/>
<linearGradient id="SVGID_7_" gradientUnits="userSpaceOnUse" x1="37.7175" y1="108.3896" x2="53.3625" y2="99.3769">
	<stop  offset="0.1781" style="stop-color:#FFE3A0"/>
	<stop  offset="1" style="stop-color:#00FFFF"/>
</linearGradient>
<path fill="url(#SVGID_7_)" d="M50.201,99.51c-0.138,0.126-0.233,0.269-0.298,0.424c0.746,0.474,1.472,1.007,2.168,1.601
	l0.605-0.023c-0.358-0.615-0.861-1.429-1.499-2.347l-0.235-0.008C50.664,99.178,50.415,99.295,50.201,99.51z"/>
<linearGradient id="SVGID_8_" gradientUnits="userSpaceOnUse" x1="-858.8425" y1="43.5459" x2="-857.8671" y2="42.5274" gradientTransform="matrix(90.0784 0 0 15.212 77344.0469 -553.4878)">
	<stop  offset="0.2808" style="stop-color:#000000"/>
	<stop  offset="0.5764" style="stop-color:#FFD400"/>
	<stop  offset="0.8522" style="stop-color:#FF0000"/>
</linearGradient>
<path fill="url(#SVGID_8_)" d="M50.201,99.51c0.214-0.215,0.463-0.332,0.741-0.354l0.235,0.008
	c-0.627-0.904-1.387-1.907-2.268-2.924l-3.359,0.073c-0.151,0-0.323-0.021-0.518-0.063c-0.387-0.086-0.721-0.217-1.001-0.388
	c-0.259-0.174-0.484-0.399-0.678-0.679l-0.162-0.354l-1.064,0.549l0.063,0.289c0.021,0.195-0.021,0.324-0.129,0.389
	c-0.106,0.063-0.268,0.074-0.482,0.031l-0.291-0.063l-0.452,0.259l0.032,0.26c-0.004,0.032-0.016,0.052-0.021,0.081
	c2.92,0.488,6.138,1.462,9.057,3.31C49.968,99.778,50.064,99.636,50.201,99.51z"/>
<linearGradient id="SVGID_9_" gradientUnits="userSpaceOnUse" x1="35.1428" y1="18.1699" x2="50.7883" y2="9.1569">
	<stop  offset="0.1781" style="stop-color:#FFE3A0"/>
	<stop  offset="1" style="stop-color:#00FFFF"/>
</linearGradient>
<path fill="url(#SVGID_9_)" d="M50.201,13.759c0.214-0.215,0.463-0.332,0.741-0.354l0.235,0.008
	c-0.627-0.904-1.387-1.907-2.268-2.924l-3.359,0.073c-0.151,0-0.323-0.021-0.518-0.063c-0.387-0.086-0.721-0.217-1.001-0.388
	c-0.259-0.174-0.484-0.399-0.678-0.679l-0.162-0.354l-1.064,0.549l0.063,0.289c0.021,0.195-0.021,0.324-0.129,0.389
	c-0.106,0.063-0.268,0.074-0.482,0.031l-0.291-0.063l-0.452,0.259l0.032,0.26c-0.004,0.032-0.016,0.052-0.021,0.081
	c2.92,0.488,6.138,1.462,9.057,3.31C49.968,14.027,50.064,13.885,50.201,13.759z"/>
<linearGradient id="SVGID_10_" gradientUnits="userSpaceOnUse" x1="-858.6506" y1="43.7295" x2="-857.6752" y2="42.711" gradientTransform="matrix(90.0784 0 0 15.212 77344.0469 -553.4878)">
	<stop  offset="0.2808" style="stop-color:#000000"/>
	<stop  offset="0.5764" style="stop-color:#FFD400"/>
	<stop  offset="0.8522" style="stop-color:#FF0000"/>
</linearGradient>
<path fill="url(#SVGID_10_)" d="M53.334,102.708c0,0-0.225-0.455-0.657-1.197l-0.605,0.023
	C52.504,101.902,52.928,102.289,53.334,102.708z"/>
<linearGradient id="SVGID_11_" gradientUnits="userSpaceOnUse" x1="38.7405" y1="24.4141" x2="54.3854" y2="15.4013">
	<stop  offset="0.1781" style="stop-color:#FFE3A0"/>
	<stop  offset="1" style="stop-color:#00FFFF"/>
</linearGradient>
<path fill="url(#SVGID_11_)" d="M53.334,16.957c0,0-0.225-0.455-0.657-1.197l-0.605,0.023
	C52.504,16.151,52.928,16.538,53.334,16.957z"/>
<g>
	<g>
		<g>
			<g>
				<g>
					<g>
						<linearGradient id="SVGID_12_" gradientUnits="userSpaceOnUse" x1="89.8391" y1="9.0273" x2="1.542" y2="23.9385">
							<stop  offset="0" style="stop-color:#BB925B"/>
							<stop  offset="0.3429" style="stop-color:#FFF6DA"/>
							<stop  offset="0.6571" style="stop-color:#FFF1B1"/>
							<stop  offset="1" style="stop-color:#B38B54"/>
						</linearGradient>
						<path fill="url(#SVGID_12_)" d="M43.068,10.618c0.136,0.124,0.282,0.239,0.442,0.346c0.374,0.229,0.813,0.401,1.313,0.514
							c0.264,0.057,0.501,0.085,0.747,0.085c0.001,0,0.002,0,0.003,0l18.815-0.412l1.4,0.782c0.739,0.388,1.411,0.725,2.029,1.018
							c-0.035-0.007-0.071-0.014-0.107-0.019c-0.034-0.004-0.069-0.007-0.104-0.009l-16.633-0.517c-0.011,0-0.021,0-0.031,0
							c-0.024,0-0.049,0.001-0.073,0.003c-0.519,0.038-0.994,0.261-1.343,0.612c-0.468,0.428-0.715,0.984-0.715,1.61
							c0,0.603,0.242,1.143,0.7,1.563c0.377,0.371,0.844,0.588,1.351,0.629c0.026,0.002,0.054,0.003,0.08,0.003
							c0.013,0,0.026,0,0.039-0.001l16.633-0.646c0.031-0.001,0.063-0.004,0.095-0.008c0.345-0.047,0.659-0.188,0.934-0.422
							c0.047-0.04,0.091-0.084,0.129-0.132c0.252-0.309,0.385-0.673,0.385-1.053c0-0.405-0.136-0.782-0.392-1.09
							c-0.04-0.048-0.084-0.092-0.132-0.132c-0.021-0.017-0.04-0.032-0.061-0.048c0.208,0.093,0.41,0.18,0.606,0.262
							c0.978,0.387,1.788,0.575,2.478,0.575c1.377,0,1.988-0.771,2.214-1.2c0.32-0.561,0.177-1.14-0.073-1.612
							c4.809,0.212,9.649,0.676,14.441,1.383l-6.811,6.783c-4.839,1.777-9.939,2.679-15.163,2.679c-2.267,0-4.601-0.17-6.943-0.504
							c-0.012-0.01-0.023-0.019-0.036-0.027c-0.315-0.266-0.633-0.417-0.967-0.465c-0.047-0.007-0.094-0.01-0.141-0.01
							c-0.189,0-0.372,0.025-0.547,0.075c-0.256-0.137-0.497-0.173-0.68-0.173c-0.07,0-0.14,0.006-0.208,0.017
							c-0.167-0.073-0.348-0.111-0.535-0.111c-0.118,0-0.234,0.016-0.346,0.045c-0.274-0.137-0.549-0.206-0.818-0.206
							c-0.184,0-0.358,0.028-0.52,0.083c-0.154-0.055-0.316-0.083-0.481-0.083c-0.111,0-0.219,0.014-0.321,0.041
							c-0.105-0.027-0.215-0.041-0.327-0.041c-0.173,0-0.338,0.034-0.487,0.098c-0.165-0.044-0.337-0.065-0.513-0.065
							c-0.035,0-0.07,0.002-0.106,0.006c-0.234,0.024-0.45,0.091-0.644,0.194c-0.062-0.009-0.123-0.013-0.186-0.013
							c-0.084,0-0.169,0.008-0.246,0.022c-0.202,0.037-0.383,0.119-0.534,0.236c-0.076,0.007-0.151,0.021-0.224,0.04
							c-0.061,0.017-0.119,0.038-0.175,0.065c-0.127,0.061-0.24,0.142-0.338,0.24c-0.213,0.018-0.424,0.071-0.628,0.16
							c-0.016,0.007-0.031,0.014-0.047,0.021c-0.094,0.047-0.182,0.101-0.263,0.161c-0.637-0.59-1.235-0.877-1.831-0.877
							c-0.234,0-0.462,0.046-0.675,0.136c-0.485,0.187-1.11,0.645-1.435,1.761c-0.317-0.316-0.691-0.367-0.897-0.367
							c-0.072,0-0.143,0.006-0.214,0.017c-0.364-0.601-0.977-0.642-1.135-0.642c-0.085,0-0.171,0.008-0.257,0.023
							c-0.382-0.586-0.979-0.625-1.13-0.625c-0.101,0-0.202,0.01-0.303,0.031c-0.285-0.404-0.715-0.565-1.094-0.565
							c-0.181,0-0.364,0.033-0.555,0.102c-0.491-0.197-1.033-0.389-1.625-0.572c-1.421-0.421-2.684-0.635-3.753-0.635
							c-0.16,0-0.316,0.004-0.465,0.014c-1.191,0.068-2.579,0.382-4.281,0.972c-1.419,0.563-1.86,0.704-1.991,0.74
							c-0.092-0.003-0.396-0.03-1.09-0.249c-1.767-0.551-2.251-0.69-2.391-0.721c-1.885-0.513-3.825-0.773-5.768-0.773
							c-0.687,0-1.387,0.033-2.068,0.096c-1.697,0.137-4.216,0.653-7.714,1.584c-4.258,1.189-4.846,1.318-4.934,1.334
							c-0.172,0.028-0.384,0.045-0.632,0.048l-0.35-0.523l-0.175-3.023c-0.009-0.147-0.05-0.291-0.12-0.421
							c-0.145-0.267-0.301-0.615-0.461-1.035c-0.109-0.288-0.196-0.559-0.26-0.813c0.022,0.002,0.045,0.002,0.068,0.002
							c0.439,0,0.828-0.177,1.102-0.498c0.271-0.292,0.414-0.654,0.414-1.051c0-0.194-0.034-0.38-0.1-0.553
							c0.089-0.016,0.178-0.027,0.266-0.036c0.388-0.038,0.705-0.295,0.836-0.64c0.002-0.004,0.005-0.007,0.008-0.01
							c0.148-0.083,0.75-0.354,2.938-0.855c2.322-0.549,4.943-0.988,7.802-1.306c2.578-0.314,5.376-0.485,8.323-0.509
							c0.5-0.008,0.97-0.011,1.411-0.011c0.85,0,1.594,0.014,2.209,0.041c1.341,0.063,2.57,0.229,3.675,0.497
							c0.669,0.147,0.965,0.261,1.082,0.315c0.111,0.053,0.231,0.083,0.354,0.092l1.251,0.09c0.269,0.333,0.643,0.54,1.071,0.587
							c0.036,0.004,0.073,0.006,0.109,0.006c0.289,0,0.558-0.079,0.787-0.224c0.235,0.164,0.518,0.253,0.827,0.253
							c0.304,0,0.587-0.085,0.822-0.24c0.307,0.196,0.604,0.245,0.822,0.245c0.067,0,0.135-0.005,0.21-0.015
							c0.331-0.048,0.622-0.199,0.848-0.437c0.181,0.073,0.369,0.11,0.562,0.11c0.135,0,0.27-0.019,0.401-0.056
							c0.022-0.007,0.045-0.014,0.067-0.022c0.191-0.069,0.484-0.228,0.693-0.581c0.092,0.014,0.18,0.021,0.266,0.021
							c0.185,0,0.36-0.032,0.52-0.095c0.057-0.022,0.112-0.05,0.164-0.082c0.188-0.117,0.41-0.32,0.546-0.666
							c0.02,0.001,0.04,0.001,0.06,0.001c0.283,0,0.538-0.065,0.771-0.203C42.707,11.084,42.928,10.916,43.068,10.618
							 M33.443,14.603c-0.466,0.445-0.712,1.025-0.712,1.679c0,0.645,0.244,1.233,0.716,1.713c0.446,0.44,1.024,0.674,1.674,0.674
							c0.636,0,1.216-0.225,1.678-0.648c0.022-0.021,0.043-0.041,0.063-0.063c0.423-0.465,0.647-1.044,0.647-1.675
							c0-0.651-0.234-1.231-0.682-1.681c-0.468-0.464-1.058-0.71-1.706-0.71C34.469,13.891,33.89,14.137,33.443,14.603
							 M5.342,20.445c0.646,0,1.225-0.233,1.68-0.684c0.463-0.468,0.708-1.058,0.708-1.705c0-0.652-0.246-1.231-0.711-1.678
							c-0.444-0.465-1.023-0.711-1.677-0.711c-0.651,0-1.241,0.245-1.711,0.714c-0.443,0.446-0.678,1.025-0.678,1.678
							c0.001,0.63,0.226,1.208,0.648,1.672c0.021,0.023,0.042,0.045,0.065,0.065C4.131,20.221,4.711,20.445,5.342,20.445
							 M43.193,9.079l-1.064,0.549l0.063,0.289c0.021,0.196-0.021,0.324-0.129,0.39c-0.064,0.037-0.148,0.057-0.251,0.057
							c-0.069,0-0.146-0.008-0.231-0.025l-0.291-0.064l-0.452,0.259l0.032,0.26c-0.022,0.192-0.086,0.321-0.192,0.388
							c-0.043,0.017-0.095,0.025-0.154,0.025c-0.091,0-0.201-0.02-0.331-0.059l-0.259-0.129l-0.453,0.162v0.26
							c-0.042,0.213-0.129,0.34-0.258,0.387c-0.042,0.012-0.084,0.018-0.126,0.018c-0.108,0-0.217-0.039-0.326-0.115l-0.226-0.162
							l-0.582,0.098l-0.064,0.258c-0.084,0.15-0.204,0.236-0.354,0.258c-0.023,0.003-0.045,0.005-0.068,0.005
							c-0.146,0-0.285-0.066-0.417-0.198l-0.162-0.226h-0.612l-0.064,0.226c-0.087,0.13-0.216,0.193-0.389,0.193
							c-0.172,0-0.303-0.076-0.388-0.227l-0.13-0.225l-0.612-0.064l-0.063,0.227c-0.088,0.172-0.229,0.26-0.42,0.26
							c-0.195-0.021-0.345-0.121-0.453-0.293L33.668,11.6l-1.811-0.129c-0.277-0.13-0.71-0.259-1.291-0.387
							c-1.162-0.283-2.443-0.454-3.843-0.52c-0.64-0.028-1.392-0.042-2.256-0.042c-0.445,0-0.92,0.004-1.425,0.011
							c-2.973,0.023-5.782,0.193-8.43,0.517c-2.905,0.322-5.543,0.765-7.911,1.325c-2.068,0.475-3.207,0.85-3.425,1.128
							c-0.149,0.173-0.226,0.292-0.226,0.354c-0.452,0.045-0.904,0.153-1.356,0.324c-0.926,0.344-1.399,0.894-1.421,1.647
							c-0.044,0.644,0.107,1.421,0.452,2.327c0.172,0.449,0.344,0.839,0.518,1.158l0.191,3.295l0.776,1.162l0.45,0.033
							c0.342,0,0.643-0.02,0.901-0.063c0.194-0.023,1.873-0.473,5.039-1.357c3.401-0.904,5.91-1.42,7.525-1.55
							c0.666-0.062,1.329-0.093,1.988-0.093c1.859,0,3.694,0.245,5.505,0.738c0.192,0.043,0.978,0.281,2.355,0.711
							c0.628,0.197,1.095,0.294,1.401,0.294c0.03,0,0.058-0.001,0.085-0.003c0.15,0,0.905-0.271,2.261-0.808
							c1.55-0.536,2.873-0.84,3.971-0.903c0.132-0.008,0.268-0.012,0.407-0.012c0.977,0,2.132,0.197,3.469,0.594
							c0.755,0.234,1.399,0.474,1.938,0.709c0.21-0.132,0.386-0.197,0.525-0.197c0.246,0,0.383,0.205,0.41,0.617l0.485,0.129
							c0.198-0.142,0.365-0.212,0.501-0.212c0.236,0,0.381,0.211,0.437,0.632l0.419,0.195c0.213-0.15,0.391-0.226,0.531-0.226
							c0.243,0,0.378,0.225,0.405,0.675l0.485,0.195c0.179-0.164,0.331-0.245,0.458-0.245c0.209,0,0.347,0.223,0.415,0.665h1.292
							c0-0.305,0.042-0.617,0.129-0.938c0.172-0.646,0.463-1.045,0.872-1.193c0.095-0.042,0.195-0.063,0.301-0.063
							c0.329,0,0.713,0.204,1.152,0.611c0.279,0.258,0.526,0.528,0.741,0.81l0.291-0.16c-0.021-0.068-0.011-0.152,0.032-0.262
							c0.044-0.173,0.151-0.303,0.322-0.388c0.13-0.057,0.259-0.084,0.388-0.084c0.064,0,0.13,0.007,0.194,0.021
							c0.107,0.022,0.195,0.055,0.259,0.098c0-0.064,0-0.131,0-0.193c0.021-0.13,0.076-0.217,0.161-0.258
							c0.03-0.008,0.063-0.013,0.099-0.013c0.066,0,0.142,0.015,0.226,0.044c0.043,0.045,0.086,0.086,0.129,0.128
							c0-0.063,0.011-0.128,0.032-0.192c0.021-0.131,0.087-0.206,0.193-0.226c0.021-0.004,0.044-0.006,0.065-0.006
							c0.086,0,0.172,0.032,0.258,0.101c0.043,0.044,0.075,0.087,0.096,0.131c0.023-0.066,0.066-0.13,0.129-0.193
							c0.108-0.129,0.261-0.205,0.453-0.226c0.194,0,0.377,0.052,0.548,0.161c0.065,0.041,0.119,0.085,0.162,0.127
							c0-0.042,0.021-0.095,0.065-0.159c0.043-0.108,0.118-0.161,0.225-0.161c0.108,0,0.206,0.053,0.291,0.161
							c0.043,0.064,0.077,0.117,0.1,0.159c0-0.042,0.01-0.095,0.03-0.159c0.043-0.108,0.12-0.161,0.228-0.161
							c0.128,0,0.247,0.053,0.354,0.161c0.066,0.064,0.119,0.117,0.162,0.159c0-0.063,0.033-0.115,0.098-0.159
							c0.087-0.108,0.216-0.161,0.388-0.161c0.173,0,0.367,0.077,0.582,0.228c0.106,0.062,0.194,0.13,0.259,0.192
							c0-0.045,0.02-0.086,0.064-0.131c0.064-0.084,0.15-0.128,0.259-0.128c0.129,0,0.235,0.064,0.32,0.194
							c0.043,0.041,0.077,0.096,0.1,0.16c0.021-0.045,0.042-0.088,0.063-0.131c0.065-0.084,0.152-0.129,0.261-0.129
							c0.129,0,0.258,0.063,0.387,0.193c0.064,0.046,0.107,0.098,0.129,0.161c0.065-0.043,0.141-0.087,0.227-0.128
							c0.15-0.088,0.313-0.129,0.484-0.129c0.151,0.021,0.311,0.107,0.484,0.257c0.086,0.063,0.162,0.13,0.226,0.192
							c2.499,0.371,4.957,0.557,7.377,0.557c5.44,0,10.679-0.938,15.715-2.816l8.364-8.332c-6.265-1.014-12.531-1.604-18.795-1.777
							l0.872,0.871c0.539,0.625,0.73,1.064,0.581,1.326c-0.244,0.464-0.693,0.696-1.346,0.696c-0.556,0-1.259-0.168-2.109-0.505
							c-0.926-0.387-2.023-0.915-3.294-1.582l-1.615-0.902l-19.087,0.418c-0.151,0-0.323-0.021-0.518-0.063
							c-0.387-0.087-0.721-0.217-1.001-0.389c-0.259-0.174-0.484-0.398-0.678-0.678L43.193,9.079L43.193,9.079z M50.943,15.827
							c-0.278-0.022-0.527-0.142-0.741-0.356c-0.261-0.234-0.39-0.516-0.39-0.839c0-0.346,0.13-0.635,0.39-0.872
							c0.214-0.215,0.463-0.333,0.741-0.354l16.633,0.517c0.15,0.021,0.292,0.087,0.421,0.193c0.106,0.128,0.16,0.28,0.16,0.45
							c0,0.152-0.054,0.291-0.16,0.422c-0.129,0.109-0.27,0.173-0.421,0.193L50.943,15.827L50.943,15.827z M35.12,17.668
							c-0.389,0-0.711-0.128-0.971-0.385c-0.277-0.282-0.419-0.614-0.419-1.002c0-0.389,0.142-0.713,0.419-0.971
							c0.26-0.278,0.581-0.42,0.971-0.42c0.386,0,0.721,0.142,1.001,0.42c0.257,0.258,0.387,0.582,0.387,0.971
							c0,0.388-0.13,0.72-0.387,1.002C35.842,17.54,35.507,17.668,35.12,17.668L35.12,17.668z M1.468,15.99
							c-0.152,0-0.281-0.055-0.388-0.162c-0.108-0.11-0.162-0.236-0.162-0.387c0-0.151,0.055-0.281,0.162-0.391
							c0.108-0.105,0.237-0.16,0.388-0.16c0.151,0,0.269,0.055,0.354,0.16c0.108,0.11,0.162,0.239,0.162,0.391
							c0,0.15-0.054,0.277-0.162,0.387C1.738,15.936,1.62,15.99,1.468,15.99L1.468,15.99z M5.342,19.445
							c-0.387,0-0.721-0.131-1.001-0.387c-0.258-0.283-0.387-0.615-0.388-1.002c0-0.39,0.13-0.711,0.388-0.971
							c0.28-0.279,0.614-0.418,1.001-0.418s0.71,0.139,0.969,0.418c0.279,0.26,0.419,0.581,0.419,0.971
							c0,0.387-0.139,0.719-0.419,1.002C6.052,19.314,5.73,19.445,5.342,19.445L5.342,19.445z"/>
					</g>
				</g>
			</g>
		</g>
	</g>
</g>
</svg>
