<?xml version="1.0" encoding="utf-8"?>
<!-- Generator: Adobe Illustrator 16.0.0, SVG Export Plug-In . SVG Version: 6.00 Build 0)  -->
<!DOCTYPE svg PUBLIC "-//W3C//DTD SVG 1.1//EN" "http://www.w3.org/Graphics/SVG/1.1/DTD/svg11.dtd">
<svg version="1.1" xmlns="http://www.w3.org/2000/svg" xmlns:xlink="http://www.w3.org/1999/xlink" x="0px" y="0px" width="92px"
	 height="32px" viewBox="0 0 92 32" enable-background="new 0 0 92 32" xml:space="preserve">
<g id="Selected_Items">
	<g>
		<g id="Selected_Items_15_">
			<linearGradient id="SVGID_1_" gradientUnits="userSpaceOnUse" x1="0.238" y1="16.0001" x2="92.055" y2="16.0001">
				<stop  offset="0" style="stop-color:#FFD93F"/>
				<stop  offset="1" style="stop-color:#FF310E"/>
			</linearGradient>		
			<path fill-rule="evenodd" clip-rule="evenodd" fill="url(#SVGID_1_)" d="M78.6,15.5L78.6,15.5l-2,0c-0.1,0.1-0.2,0.2-0.3,0.3C76.1,16,76,16.2,76,16.4c0,0.2,0.1,0.4,0.3,0.7
				c0.1,0.1,0.2,0.2,0.3,0.2h2.1c0.1-0.1,0.1-0.1,0.2-0.2c0.1-0.2,0.2-0.5,0.2-0.8c0-0.3-0.1-0.5-0.3-0.7
				C78.7,15.6,78.6,15.5,78.6,15.5z M90.5,17.3c-1.5,1.1-3.2,2-5.1,2.7c-1.9,0.7-4.4,1.2-7.7,1.4c-1,0.1-2,0.2-3,0.2l-38.6,0.1
				l0,4.1h-1.3v-5h-4.3c0,0-0.1-0.1-0.2-0.2c-0.2-0.1-0.3-0.2-0.5-0.2c-0.2,0-0.4,0.1-0.5,0.2c-0.1,0-0.1,0.1-0.1,0.2h-3.1
				c0-0.1-0.1-0.1-0.2-0.2c-0.2-0.1-0.3-0.2-0.6-0.2c-0.2,0-0.4,0.1-0.5,0.2c-0.1,0-0.1,0.1-0.1,0.2h-3.1c0-0.1-0.1-0.1-0.1-0.2
				c-0.1-0.1-0.3-0.2-0.4-0.2c-0.2,0-0.4,0.1-0.5,0.2c-0.1,0-0.1,0.1-0.1,0.2h-3.1c0-0.1-0.1-0.1-0.2-0.2c-0.1-0.1-0.3-0.2-0.4-0.2
				s-0.3,0.1-0.4,0.2c-0.1,0.1-0.1,0.1-0.2,0.2h-3.2c0-0.1-0.1-0.1-0.1-0.2c-0.1-0.1-0.3-0.2-0.4-0.2c-0.2,0-0.3,0-0.4,0.1
				c0,0-0.1,0.1-0.1,0.1H9.9l-1.3,0.5H1.1c-0.1-0.2-0.3-0.4-0.4-0.6c-0.3-0.5-0.4-0.8-0.5-1c0-0.2,0-1.1,0-2.8l0.1-2.4
				c0-0.1,0-0.2,0-0.3c0-0.2,0.1-0.4,0.2-0.5c0.1-0.1,0.3-0.2,0.5-0.4l0.3-0.1l7,0l1.5,0.5l1.6,0l0.2,0.2c0.1,0.1,0.2,0.2,0.4,0.2
				c0.1,0,0.3-0.1,0.5-0.2l0.3-0.2h3l0.2,0.2c0.2,0.1,0.3,0.2,0.6,0.2c0.2,0,0.4,0,0.5-0.2c0,0,0.1-0.1,0.1-0.2l0.1-0.1l2.9,0
				l0.2,0.2c0.2,0.2,0.3,0.2,0.5,0.2c0.2,0,0.3-0.1,0.5-0.2l0.2-0.2h3.1l0.2,0.2c0.1,0.1,0.3,0.2,0.4,0.2c0.2,0,0.4,0,0.5-0.2
				l0.2-0.2H29l0.2,0.2c0.2,0.2,0.3,0.2,0.5,0.2c0.2,0,0.4-0.1,0.6-0.2c0,0,0.1-0.1,0.1-0.2l0-0.1h4.3V6.2h1.4v7.1h3.6
				c0.2,0,0.3-0.1,0.4-0.1c0.2-0.1,0.3-0.2,0.5-0.3l32.9,0.1l18.6,2.9C91.7,16.2,91.2,16.7,90.5,17.3z"/>
		</g>
	</g>
</g>
<g id="guides">
</g>
</svg>
