<?xml version="1.0" encoding="utf-8"?>
<!-- Generator: Adobe Illustrator 16.0.0, SVG Export Plug-In . SVG Version: 6.00 Build 0)  -->
<!DOCTYPE svg PUBLIC "-//W3C//DTD SVG 1.1//EN" "http://www.w3.org/Graphics/SVG/1.1/DTD/svg11.dtd">
<svg version="1.1" id="图层_1" xmlns="http://www.w3.org/2000/svg" xmlns:xlink="http://www.w3.org/1999/xlink" x="0px" y="0px"
	 width="90px" height="32px" viewBox="0 0 90 32" enable-background="new 0 0 90 32" xml:space="preserve">
<rect fill="none" width="90" height="32"/>
<linearGradient id="SVGID_1_" gradientUnits="userSpaceOnUse" x1="-429.3271" y1="286.2646" x2="-430.3271" y2="285.2646" gradientTransform="matrix(89.578 0 0 -27.418 38546.2031 7850.2183)">
	<stop  offset="0" style="stop-color:#BB925B"/>
	<stop  offset="0.3429" style="stop-color:#FFF6DA"/>
	<stop  offset="0.6571" style="stop-color:#FFF1B1"/>
	<stop  offset="1" style="stop-color:#B38B54"/>
</linearGradient>
<path fill="url(#SVGID_1_)" d="M81.771,2.073c0.307-0.028,0.625-0.041,0.959-0.041c0.029-0.027,0.043-0.055,0.043-0.084
	c0.056,0,0.098,0,0.125,0c0.194,0,0.402,0,0.625,0c0.028,0,0.068,0.015,0.127,0.042l0.039,0.042c0,0.028,0.016,0.041,0.043,0.041
	c0.029,0,0.069,0,0.125,0c0.029,0.028,0.069,0.042,0.125,0.042c0.029,0.027,0.056,0.057,0.084,0.083
	c0.029,0.028,0.041,0.056,0.041,0.084c0,0.028,0.016,0.055,0.043,0.083c0,0.028,0,0.057,0,0.084c0,0.028,0,0.056,0,0.083v0.042
	c0,0.03,0,0.056,0,0.083c0,0.027,0.014,0.056,0.041,0.083c0.029,0.028,0.041,0.056,0.041,0.083c0.027,0.028,0.043,0.055,0.043,0.085
	c0,0.027,0,0.056,0,0.083c0,0.028,0,0.055,0,0.083c0,0.029,0,0.057,0,0.084V3.2c0,0.028,0,0.055,0,0.083c0,0.027,0,0.055,0,0.083
	c0,0.028,0,0.056,0,0.085c0,0.027,0,0.056,0,0.083c0,0.027,0,0.055,0,0.083c0,0.027,0,0.055,0,0.083v0.083
	c0,0.028,0.013,0.042,0.041,0.042c0,0.027,0.015,0.056,0.043,0.083c0,0.028,0,0.056,0,0.083c-0.028,0.028-0.043,0.056-0.043,0.084
	c0,0.028,0,0.055,0,0.084c-0.028,0.026-0.057,0.04-0.082,0.04c0,0.028,0,0.056,0,0.084c-0.014,0.013-0.028,0.028-0.043,0.041V4.37
	c0,0.028,0,0.057,0,0.083c0,0.029,0,0.057,0,0.084c0,0.027,0,0.056,0,0.083c0,0.027,0,0.056,0,0.084c0,0.027,0,0.055,0,0.083v0.041
	c0,0.029,0,0.057,0,0.084c0,0.027,0,0.055,0,0.084c0,0.026,0,0.055,0,0.083c0,0.027,0,0.055,0,0.083c0,0.028,0,0.056,0,0.084
	c0,0.028,0,0.056,0,0.083l0.043,0.042c0,0.027,0.014,0.041,0.041,0.041c0.029,0.029,0.057,0.058,0.084,0.084
	c0,0.029,0,0.055,0,0.083c0,0.028,0,0.057,0,0.084c0,0.027,0,0.057,0,0.083c0,0.028,0,0.056,0,0.084
	c-0.028,0.028-0.043,0.056-0.043,0.084c0,0.028-0.014,0.054-0.041,0.083v0.042c0,0.027,0,0.056,0,0.083c0,0.028,0,0.056,0,0.083
	c0,0.029,0,0.058,0,0.084c0,0.028,0,0.056,0,0.083c0,0.029,0,0.056,0,0.083c0,0.029,0,0.056,0,0.083c0,0.029,0,0.057,0,0.084v0.041
	c0,0.029,0,0.055,0,0.083c0,0.03,0,0.058,0,0.084c0,0.029,0,0.057,0,0.084c0,0.026,0,0.054,0,0.083c0,0.027,0,0.055,0,0.084
	c0,0.027,0,0.055,0,0.081c0,0.03,0,0.057,0,0.084v0.042c0,0.027,0,0.055,0,0.083c0,0.028,0,0.056,0,0.083c0,0.027,0,0.055,0,0.083
	c0,0.029,0,0.057,0,0.084c0,0.027,0,0.056,0,0.083c0,0.028,0,0.057,0,0.084c0,0.029,0,0.056,0,0.083V7.92c0,0.028,0,0.056,0,0.083
	c0,0.027,0,0.056,0,0.083s0,0.056,0,0.083s0,0.056,0,0.083s0,0.056,0,0.085c0,0.026,0,0.054,0,0.081c0,0.029,0,0.057,0,0.084v0.042
	c1.559,0,3.132,0,4.718,0c0.058,0.027,0.112,0.056,0.168,0.083l0.041,0.042c0.028,0,0.057,0,0.084,0V8.63
	c0.055,0.028,0.11,0.056,0.167,0.083c0,0.029,0.014,0.043,0.042,0.043c0.028,0.028,0.056,0.056,0.083,0.083c0,0.029,0,0.056,0,0.083
	c0,0.027,0,0.056,0,0.083c0,0.027,0,0.057,0,0.083c0,0.028,0,0.056,0,0.083c0,0.027,0,0.056,0,0.083c0,0.027,0,0.056,0,0.083v0.042
	c0,0.027,0,0.054,0,0.083c0,0.028,0,0.056,0,0.084c0,0.028,0,0.055,0,0.083c0,0.027,0,0.056,0,0.084c0,0.027,0,0.055,0,0.083
	c0,0.028,0,0.056,0,0.083c0,0.029,0,0.058,0,0.085v0.042c0,0.027,0,0.055,0,0.083c0,0.028,0,0.058,0,0.083c0,0.03,0,0.058,0,0.084
	c0,0.028,0,0.058,0,0.083c0,0.028,0,0.056,0,0.084c0,0.028,0,0.055,0,0.084c0,0.028,0,0.054,0,0.083v0.041c0,0.028,0,0.056,0,0.083
	c0,0.029,0,0.056,0,0.083c0,0.027,0,0.056,0,0.084c0,0.027,0,0.056,0,0.084c0,0.026,0,0.054,0,0.082c0,0.029,0,0.057,0,0.084
	c0,0.027,0,0.057,0,0.082v0.045c0,0.028,0,0.056,0,0.083c0,0.027,0,0.055,0,0.082c0,0.028,0,0.058,0,0.085c0,0.026,0,0.055,0,0.083
	c0,0.028,0,0.055,0,0.084c0,0.028,0,0.054,0,0.083c-0.028,0.029-0.043,0.056-0.043,0.084l-0.041,0.042c0,0.027,0,0.056,0,0.082
	c0,0.03,0,0.056,0,0.084c0,0.028-0.016,0.056-0.042,0.083c0,0.028,0,0.058,0,0.085c-0.029,0.028-0.058,0.042-0.084,0.042
	c0,0.028-0.013,0.042-0.041,0.042c-0.056,0-0.099,0-0.126,0c-1.369,0-2.735,0-4.092,0c-0.059,0.001-0.101,0.016-0.125,0.041
	c-0.057,0-0.11,0-0.166,0c-0.033,0.016-0.061,0.029-0.084,0.042c0.019,0.008,0.045,0.023,0.084,0.042v-0.042
	c0.056,0.028,0.109,0.056,0.166,0.083c0.027,0.028,0.055,0.041,0.082,0.041c0,0.029,0.015,0.057,0.043,0.085
	c0,0.028,0,0.056,0,0.082c0.029,0.028,0.043,0.057,0.043,0.084c0,0.029,0.015,0.057,0.041,0.084c0,0.028,0,0.056,0,0.083
	c0,0.029,0,0.056,0,0.084c0,0.026,0,0.056,0,0.083v0.042c0,0.028,0,0.056,0,0.083c0,0.029,0,0.057,0,0.084c0,0.027,0,0.057,0,0.083
	c0,0.026-0.014,0.056-0.041,0.083c0,0.029-0.014,0.057-0.043,0.085L85.068,13.6v0.041c0,0.028,0.014,0.055,0.043,0.084l-0.043,0.083
	c0.027,0,0.07,0.014,0.127,0.042c0.027,0.028,0.055,0.055,0.082,0.083c0,0.028,0.015,0.042,0.041,0.042c0,0.028,0,0.055,0,0.083
	c0,0.029,0,0.057,0,0.084s0,0.056,0,0.084c0.029,0,0.056,0.013,0.084,0.041c0.027,0.027,0.057,0.056,0.082,0.083
	c0,0.028,0.014,0.042,0.043,0.042c0,0.028,0,0.055,0,0.083s0,0.056,0,0.083s0,0.056,0,0.083s0,0.057,0,0.084s0,0.055,0,0.083
	c-0.029,0.027-0.043,0.057-0.043,0.084s-0.014,0.056-0.041,0.083c0,0.028-0.014,0.042-0.043,0.042c0,0.026,0,0.056,0,0.083
	c0,0.029,0,0.057,0,0.086c0,0.026,0,0.056,0,0.082c0,0.028,0,0.056,0,0.084s0,0.055,0,0.083c0,0.029,0,0.056,0,0.083
	c0,0.028,0,0.056,0,0.083v0.042c0,0.028,0,0.055,0,0.083s0,0.055,0,0.083s0,0.057,0,0.083c0,0.028,0,0.057,0,0.083
	c0,0.028,0,0.057,0,0.084s0,0.056,0,0.083c0,0.028,0,0.057,0,0.084v0.042c0,0.026,0,0.055,0,0.083s0,0.057,0,0.084
	c0,0.026,0,0.056,0,0.083c0,0.028,0,0.056,0,0.084s0,0.057,0,0.084c0,0.028,0,0.056,0,0.084c0,0.026,0,0.055,0,0.084v0.041
	c0,0.027,0,0.055,0,0.082c0,0.029,0,0.058,0,0.084c0,0.027,0,0.057,0,0.084c0,0.028,0,0.058,0,0.084c0,0.027,0,0.056,0,0.084
	c0,0.027,0,0.055,0,0.082c0,0.028,0,0.057,0,0.084v0.041c0,0.027,0,0.057,0,0.082c0,0.029,0,0.058,0,0.084c0,0.028,0,0.057,0,0.084
	c0,0.028,0,0.057,0,0.084c0,0.026,0,0.055,0,0.082s0,0.058,0,0.084c0,0.027,0,0.057,0,0.084v0.041c0,0.029,0,0.057,0,0.084
	c0,0.029,0,0.056,0,0.082c0,0.027,0,0.058,0,0.084c0,0.027,0,0.058,0,0.084c0,0.025,0,0.055,0,0.082c0,0.028,0,0.057,0,0.084
	c0,0.026,0,0.056,0,0.082v0.043c0,0.027,0,0.056,0,0.082c0,0.029,0,0.058,0,0.084c0,0.027,0,0.057,0,0.084c0,0.026,0,0.055,0,0.082
	c0,0.028,0,0.057,0,0.084c0,0.026,0,0.056,0,0.082c0,0.027,0,0.058,0,0.084v0.041c0,0.027,0,0.056,0,0.084c0,0.027,0,0.056,0,0.084
	c0,0.027,0,0.057,0,0.084c0,0.025-0.012,0.054-0.039,0.082c0,0.028-0.016,0.057-0.043,0.084l-0.084,0.082c-0.055,0-0.096,0-0.125,0
	h-0.043v0.043c-0.027,0.027-0.055,0.041-0.082,0.041c0,0.027-0.014,0.041-0.043,0.041c-0.057,0-0.099,0-0.123,0
	c-0.643,0-1.27,0-1.881,0c-0.058,0-0.098,0-0.125,0c-0.084,0-0.153,0-0.209,0s-0.125-0.014-0.211-0.041
	c-0.025-0.028-0.041-0.056-0.041-0.084c-0.026-0.025-0.055-0.054-0.082-0.082V19.77c0-0.029,0-0.057,0-0.086
	c-0.029-0.026-0.058-0.055-0.084-0.082v-0.043c0-0.028,0-0.057,0-0.084c0-0.026,0-0.056,0-0.082c0-0.028,0-0.057,0-0.084
	c0-0.028,0-0.057,0-0.084v-0.041c-9.021,0-18.041,0-27.063,0c-0.028,0.028-0.054,0.057-0.082,0.084c0,0.027,0,0.057,0,0.084
	c0,0.026,0,0.055,0,0.082s0,0.056,0,0.084c0.028,0.028,0.041,0.056,0.041,0.082c0.026,0.028,0.041,0.057,0.041,0.084
	c0,0.029,0,0.057,0,0.084v0.043c-0.028,0.027-0.054,0.056-0.082,0.082C55.016,19.934,55,19.96,55,19.989v0.041
	c-0.025,0-0.055,0.014-0.083,0.042l-0.041,0.043c-0.056,0-0.099,0-0.125,0c-0.335,0-0.657,0-0.962,0
	c-0.057,0-0.126-0.016-0.21-0.043c-0.027-0.028-0.042-0.057-0.042-0.083c-0.028-0.029-0.055-0.056-0.083-0.084
	c0-0.026,0-0.054,0-0.082v-0.042c0,0.027-0.015,0.042-0.041,0.042c-0.058,0-0.099,0-0.125,0c-0.058,0-0.113-0.015-0.169-0.042
	c-0.028-0.029-0.057-0.057-0.083-0.086c-0.027-0.026-0.056-0.055-0.082-0.082c-0.03,0-0.056-0.014-0.084-0.043
	c0-0.028-0.013-0.057-0.043-0.084c0-0.027,0-0.055,0-0.082c0-0.028,0-0.057,0-0.084c0-0.028,0-0.057,0-0.084
	c0-0.026,0-0.055,0-0.082c0-0.029,0-0.057,0-0.084s0-0.057,0-0.084v-0.041c0-0.027,0-0.055,0-0.084c0-0.026,0-0.055,0-0.082
	c0-0.028,0-0.057,0-0.084s0-0.055,0-0.082s0-0.057,0-0.084c0-0.028,0-0.055,0-0.084c0-0.027,0-0.055,0-0.082V18.32
	c0-0.027,0-0.053,0-0.082c0-0.028,0-0.055,0-0.083s0-0.056,0-0.083v-0.041c-0.001-0.029-0.015-0.057-0.042-0.084
	c0-0.028-0.014-0.055-0.041-0.083c0-0.028-0.016-0.056-0.042-0.083c-0.027,0-0.056-0.016-0.083-0.042c0-0.028,0-0.054,0-0.083
	c-0.028-0.028-0.042-0.057-0.042-0.083c0-0.029-0.015-0.056-0.04-0.083c0-0.028-0.016-0.057-0.044-0.083
	c-0.028-0.029-0.041-0.056-0.041-0.083c-0.028-0.028-0.043-0.057-0.043-0.083c-0.027-0.028-0.042-0.058-0.042-0.085l-0.04-0.041
	c0-0.027,0-0.057,0-0.083v-0.043c-0.058-0.028-0.099-0.056-0.128-0.083c-0.055-0.027-0.098-0.057-0.125-0.083
	c-0.028-0.027-0.069-0.042-0.123-0.042c-0.03,0.027-0.044,0.055-0.044,0.084c-0.029,0-0.041,0.014-0.041,0.041h-0.043
	c0,0.027-0.015,0.055-0.042,0.083c0,0.028,0,0.057,0,0.084c0,0.026,0,0.056,0,0.083c0,0.029,0,0.058,0,0.085
	c0,0.026,0,0.055,0,0.083c0,0.027,0,0.055,0,0.083s0,0.056,0,0.083v0.042c0,0.026,0,0.056,0,0.082c0,0.028,0,0.057,0,0.084
	c0,0.028,0,0.056,0,0.084s0,0.056,0,0.083s0,0.055,0,0.083c0,0.026,0,0.057,0,0.084c0,0.026,0,0.056,0,0.083v0.042
	c0,0.028,0,0.056,0,0.083c0,0.029,0,0.056,0,0.083c0,0.026,0,0.057,0,0.083c0,0.027,0,0.058,0,0.085c0,0.024,0,0.054,0,0.082
	s0,0.056,0,0.083c-0.028,0.027-0.043,0.056-0.043,0.083l-0.041,0.042c-0.028,0.027-0.043,0.056-0.043,0.083
	c-0.014,0.014-0.027,0.028-0.041,0.042c0,0.027,0,0.056,0,0.083v0.042c0,0.027,0,0.055,0,0.083s0,0.056,0,0.083s0,0.056,0,0.083
	c0,0.026,0,0.057,0,0.084c0,0.026,0,0.055,0,0.083c-0.029,0.027-0.045,0.055-0.045,0.083c-0.025,0.028-0.039,0.056-0.039,0.083
	l-0.043,0.043c-0.027,0.025-0.055,0.054-0.082,0.083v0.042c0,0.027,0,0.055,0,0.083c0,0.026,0,0.056,0,0.084
	c0,0.026,0,0.055,0,0.082c0,0.028-0.014,0.057-0.043,0.085c0,0.027-0.012,0.056-0.041,0.083l-0.043,0.043c0,0.028,0,0.054,0,0.083
	c-0.027,0.027-0.041,0.055-0.041,0.082s0,0.058,0,0.083c-0.028,0.028-0.057,0.057-0.084,0.084c-0.055,0.028-0.096,0.055-0.125,0.084
	c0,0.028-0.014,0.055-0.041,0.083c-0.057,0-0.098,0.015-0.125,0.042c-0.139,0-0.279,0-0.418,0c-0.055-0.027-0.098-0.042-0.125-0.042
	c-0.029,0-0.057,0-0.084,0c-0.058,0-0.125-0.014-0.207-0.041c-0.028-0.029-0.043-0.057-0.043-0.083
	c-0.028-0.028-0.057-0.058-0.084-0.083c-0.028-0.029-0.055-0.043-0.082-0.043c-0.028-0.026-0.043-0.057-0.043-0.083
	c-0.027-0.027-0.055-0.056-0.084-0.082c0-0.03,0-0.056,0-0.083v-0.043c0-0.027,0-0.055,0-0.083c0-0.029,0-0.058,0-0.085
	s0-0.055,0-0.082c0-0.029,0-0.059,0-0.084c0-0.028,0-0.057,0-0.083c0-0.029,0-0.056,0-0.085c0-0.027,0-0.055,0-0.083
	c0.031,0,0.058-0.015,0.084-0.042c0-0.029,0.016-0.057,0.043-0.084c0-0.028,0-0.057,0-0.083c0-0.028,0-0.056,0-0.085
	c0-0.02,0-0.04,0-0.063c-0.027-0.006-0.057-0.013-0.086-0.021c-0.056,0-0.108,0-0.166,0c-0.053-0.025-0.107-0.039-0.166-0.041
	c-0.028,0-0.055,0-0.082,0s-0.059,0-0.084,0c-0.058,0.029-0.111,0.057-0.166,0.084c-0.028,0.027-0.057,0.057-0.084,0.084
	c-0.028,0.027-0.057,0.041-0.084,0.041c-0.055,0.027-0.111,0.055-0.166,0.082c-0.027,0.029-0.058,0.057-0.084,0.084
	c-0.057,0.029-0.098,0.058-0.127,0.085c-0.082,0.026-0.151,0.054-0.209,0.083c-0.027,0.027-0.053,0.042-0.082,0.042
	c0,0.026-0.014,0.042-0.041,0.042c-0.058,0-0.1,0-0.127,0c-0.082,0.027-0.166,0.041-0.25,0.041l-0.041,0.041
	c-0.057,0-0.097,0-0.125,0c-0.112,0.029-0.224,0.056-0.336,0.084c-0.027,0-0.056,0.014-0.082,0.041c-0.056,0-0.098,0-0.125,0
	s-0.058,0-0.084,0c-0.057,0-0.11-0.014-0.166-0.041c-0.03,0-0.059-0.014-0.084-0.041c-0.196,0-0.391-0.016-0.584-0.043
	c-0.057,0-0.099,0-0.125,0l-0.043-0.041c-1.474,0-2.95-0.014-4.425-0.041c-0.056,0-0.109-0.016-0.168-0.042
	c-0.027-0.029-0.055-0.056-0.083-0.085c-0.029-0.027-0.055-0.055-0.083-0.084V19.57c0-0.029,0-0.057,0-0.084
	s-0.015-0.057-0.043-0.084c-0.026-0.027-0.054-0.055-0.081-0.084c0-0.027-0.015-0.055-0.042-0.082
	c-0.028-0.027-0.042-0.055-0.042-0.084c-0.028-0.028-0.043-0.057-0.043-0.084c-0.028-0.027-0.056-0.055-0.084-0.082l-0.041-0.041
	v-0.043c-0.028,0-0.057,0-0.083,0l-0.042,0.043c-0.058,0-0.097,0-0.125,0c-0.112,0.027-0.225,0.056-0.335,0.082v0.041
	c-0.028,0.029-0.043,0.057-0.043,0.084c-0.027,0.029-0.055,0.057-0.083,0.084c-0.027,0.027-0.055,0.056-0.083,0.082
	c0,0.029,0,0.058,0,0.084c0,0.027,0,0.056,0,0.084c0,0.027-0.015,0.056-0.043,0.084c0,0.027-0.013,0.057-0.041,0.084
	c0,0.025-0.013,0.039-0.042,0.039c0,0.031,0,0.058,0,0.086c-0.027,0.027-0.055,0.055-0.082,0.082c0,0.027,0,0.057,0,0.084
	s0,0.056,0,0.082c0,0.029,0,0.058,0,0.086c0,0.027-0.016,0.056-0.044,0.082c0,0.029-0.014,0.057-0.042,0.084
	c0,0.027-0.013,0.043-0.042,0.043c0,0.027,0,0.055,0,0.082c-0.026,0.027-0.054,0.058-0.083,0.082c0,0.029,0,0.058,0,0.084
	c0,0.029-0.015,0.056-0.042,0.085c0,0.028,0,0.055,0,0.083c-0.026,0.029-0.056,0.057-0.083,0.082
	c-0.028,0.029-0.041,0.057-0.041,0.086c0,0.027-0.014,0.042-0.043,0.042c0,0.028,0,0.055,0,0.083c0,0.027,0,0.057,0,0.084
	s0,0.056,0,0.083c0,0.026-0.014,0.055-0.042,0.083c0,0.027,0,0.056,0,0.083c-0.027,0.026-0.056,0.055-0.083,0.083
	c-0.028,0.029-0.04,0.056-0.04,0.083c0,0.028-0.015,0.043-0.044,0.043c0,0.028,0,0.056,0,0.083s0,0.056,0,0.083
	c0,0.028-0.014,0.057-0.042,0.084c0,0.028,0,0.055,0,0.083c-0.027,0.027-0.056,0.056-0.083,0.082c0,0.027,0,0.058,0,0.085
	c-0.028,0.026-0.043,0.056-0.043,0.084c0,0.026-0.012,0.04-0.042,0.04c0,0.027,0,0.057,0,0.084s0,0.056,0,0.083
	c0,0.026,0,0.056,0,0.083s-0.014,0.056-0.041,0.083c0,0.028,0,0.056,0,0.083c-0.029,0.029-0.057,0.056-0.084,0.085
	c-0.028,0.026-0.042,0.057-0.042,0.082c0,0.028-0.013,0.04-0.041,0.04c0,0.031,0,0.058,0,0.086c0,0.027,0,0.057,0,0.083
	c0,0.028,0,0.056,0,0.083s-0.015,0.056-0.042,0.084c0,0.027,0,0.055,0,0.083c-0.028,0.028-0.057,0.056-0.085,0.084
	c-0.027,0.026-0.041,0.055-0.041,0.083c0,0.027-0.014,0.042-0.04,0.042c0,0.028,0,0.056,0,0.083s0,0.056,0,0.084
	c0,0.027-0.015,0.056-0.044,0.084c0,0.025,0,0.054,0,0.081c-0.026,0.03-0.054,0.058-0.083,0.084c0,0.028,0,0.056,0,0.083
	c-0.028,0.027-0.042,0.057-0.042,0.084s-0.014,0.041-0.043,0.041c0,0.029,0,0.057,0,0.083c0,0.028,0,0.058,0,0.083
	c0,0.027-0.012,0.057-0.04,0.084c0,0.027,0,0.055,0,0.083c-0.028,0.03-0.056,0.056-0.084,0.084c0,0.028,0,0.056,0,0.084
	c0,0.026,0,0.054,0,0.082v0.042c-0.028,0.029-0.056,0.058-0.083,0.084c0,0.027,0,0.056,0,0.084c0,0.025-0.014,0.054-0.042,0.082
	c0,0.029,0,0.057,0,0.085c-0.028,0.028-0.055,0.054-0.083,0.082c0,0.028,0,0.057,0,0.084c0,0.026,0,0.055,0,0.083v0.042
	c-0.027,0.03-0.055,0.058-0.084,0.083c0,0.027,0,0.056,0,0.084c0,0.027,0,0.057,0,0.084s-0.013,0.054-0.041,0.083
	c0,0.028,0,0.056,0,0.084c-0.027,0.026-0.057,0.054-0.083,0.083c0,0.027,0,0.055,0,0.082v0.042c0,0.028,0,0.056,0,0.084
	c-0.028,0.026-0.056,0.056-0.083,0.083c0,0.027,0,0.055,0,0.083c0,0.026-0.014,0.056-0.042,0.083c0,0.027,0,0.056,0,0.083
	c-0.028,0.028-0.056,0.055-0.083,0.083c-0.028,0.029-0.042,0.059-0.042,0.085c0,0.028-0.015,0.042-0.042,0.042
	c0,0.025,0,0.056,0,0.083c0,0.028,0,0.057,0,0.084c0,0.026-0.013,0.056-0.041,0.083c0,0.027,0,0.055,0,0.083
	c-0.029,0.026-0.058,0.056-0.084,0.082c-0.028,0.03-0.043,0.057-0.043,0.085l-0.041,0.042c0.028,0.026,0.056,0.042,0.083,0.042
	c0.027,0.027,0.056,0.042,0.084,0.042c0,0.028,0.013,0.054,0.041,0.083c0,0.027,0,0.056,0,0.083
	c0.027,0.028,0.042,0.057,0.042,0.084c0.028,0.028,0.069,0.056,0.125,0.083c0,0.027,0,0.054,0,0.083
	c0.028,0.028,0.042,0.057,0.042,0.083c0,0.027,0,0.055,0,0.083c0.028,0.026,0.056,0.041,0.083,0.041c0,0.028,0,0.057,0,0.084
	c0,0.028,0,0.056,0,0.083s0,0.055,0,0.083s0,0.056,0,0.083s0,0.056,0,0.083c0,0.026,0,0.056,0,0.083c0,0.025,0,0.056,0,0.083v0.042
	c0,0.029,0,0.056,0,0.083c-0.028,0.028-0.056,0.057-0.083,0.083c0,0.027-0.014,0.056-0.042,0.082c0,0.029,0,0.058,0,0.085
	c-0.056,0.028-0.097,0.056-0.125,0.083c-0.027,0.029-0.042,0.057-0.042,0.085s-0.013,0.056-0.041,0.083
	c0,0.027-0.015,0.042-0.043,0.042c-0.028,0.028-0.055,0.057-0.084,0.083c-0.027,0-0.069,0-0.124,0h-0.043
	c-0.027,0.029-0.056,0.057-0.083,0.084c-0.027,0-0.055,0.014-0.082,0.042c-0.058,0-0.098,0-0.128,0
	c-0.222,0.028-0.444,0.042-0.667,0.042l-0.041,0.042c-0.056,0-0.098,0-0.126,0c-0.39,0-0.767,0-1.128,0c-0.056,0-0.095,0-0.123,0
	l-0.043-0.042c-0.195,0-0.391-0.014-0.584-0.042c-0.057,0-0.124-0.013-0.209-0.042l-0.042-0.041c-0.083,0-0.167-0.016-0.25-0.043
	c-0.055,0-0.097,0-0.124,0l-0.043-0.041c-0.056,0-0.11-0.014-0.167-0.042c-0.056,0-0.124-0.015-0.208-0.042l-0.083-0.083
	c-0.057,0-0.111-0.015-0.167-0.042c-0.084-0.028-0.152-0.057-0.209-0.084c-0.057-0.028-0.097-0.057-0.125-0.083
	c-0.058-0.028-0.111-0.056-0.169-0.083c-0.026,0-0.056-0.014-0.082-0.042c-0.028-0.027-0.055-0.056-0.084-0.083
	c-0.028-0.028-0.042-0.055-0.042-0.083c-0.055-0.027-0.096-0.058-0.124-0.083c-0.057-0.029-0.113-0.057-0.169-0.083
	c0-0.028-0.014-0.056-0.042-0.083c-0.028-0.027-0.055-0.057-0.083-0.083c-0.028-0.027-0.056-0.056-0.084-0.083
	c-0.026,0-0.056-0.014-0.083-0.042c0-0.028-0.014-0.056-0.042-0.083c0-0.027-0.013-0.057-0.041-0.084
	c-0.028-0.028-0.056-0.057-0.084-0.083c0-0.028-0.013-0.056-0.041-0.083c0-0.028-0.015-0.057-0.042-0.085v-0.081l-0.042-0.042
	c-0.013-0.015-0.026-0.028-0.042-0.042c-0.028,0-0.055-0.014-0.083-0.042c0-0.027-0.015-0.056-0.042-0.083c0-0.03,0-0.057,0-0.083
	c0-0.029,0-0.058,0-0.083c0-0.03,0-0.057,0-0.083c0-0.027,0-0.058,0-0.083c-0.026-0.028-0.056-0.059-0.083-0.085
	c0-0.026,0-0.054,0-0.083v-0.041c0-0.028,0-0.057,0-0.084s0-0.057,0-0.083c0-0.028,0-0.056,0-0.083c0-0.029,0-0.057,0-0.083
	c0-0.028,0-0.056,0-0.083c0-0.029,0-0.057,0-0.085c0-0.029,0-0.056,0-0.083v-0.042c0.028-0.028,0.042-0.058,0.042-0.083
	c0-0.029,0.015-0.057,0.041-0.084c0-0.029,0-0.055,0-0.083s0-0.058,0-0.084c0-0.027,0-0.058,0-0.084s0-0.054,0-0.082
	c0-0.029,0-0.058,0-0.083v-0.042c0-0.029,0-0.058,0-0.084c0.028-0.026,0.042-0.054,0.042-0.083c0.028-0.027,0.042-0.055,0.042-0.082
	c0.027-0.03,0.041-0.057,0.041-0.083c0.028-0.029,0.042-0.058,0.042-0.084c0.03-0.029,0.042-0.056,0.042-0.083
	c0-0.03,0-0.057,0-0.085v-0.04c0.027-0.029,0.042-0.057,0.042-0.084c0.028-0.027,0.041-0.055,0.041-0.084
	c0.028-0.028,0.042-0.055,0.042-0.083c0.03-0.028,0.042-0.058,0.042-0.084c0.028-0.026,0.041-0.056,0.041-0.083s0-0.057,0-0.084
	s0-0.055,0-0.081c0.029,0,0.057-0.017,0.084-0.043c0-0.026,0.015-0.056,0.041-0.083c0-0.027,0.016-0.055,0.043-0.083
	c0-0.026,0.013-0.056,0.041-0.083c0-0.028,0-0.057,0-0.083c0.028-0.028,0.042-0.056,0.042-0.083
	c0.028-0.028,0.057-0.055,0.083-0.083c0-0.027,0-0.056,0-0.083c0.028,0,0.042-0.014,0.042-0.041c0-0.029,0.013-0.057,0.042-0.084
	c0-0.028,0.014-0.055,0.042-0.083c0.027-0.028,0.043-0.056,0.043-0.084c0.028-0.028,0.041-0.056,0.041-0.083
	c0.028-0.027,0.043-0.055,0.043-0.083c0.027-0.028,0.04-0.056,0.04-0.083c0.028-0.027,0.057-0.057,0.085-0.083l0.042-0.042
	c0-0.027,0.014-0.057,0.041-0.083c0-0.029,0.015-0.056,0.041-0.085c0-0.026,0-0.055,0-0.081c0.029-0.029,0.042-0.058,0.042-0.084
	c0.029-0.028,0.056-0.056,0.084-0.083c0-0.027,0-0.057,0-0.084c0.03-0.027,0.056-0.055,0.083-0.084v-0.04c0-0.028,0-0.058,0-0.083
	c0.028-0.028,0.043-0.057,0.043-0.084c0.028-0.027,0.042-0.055,0.042-0.082c0.027-0.029,0.04-0.057,0.04-0.085
	c0.03-0.027,0.042-0.056,0.042-0.083c0.028-0.028,0.042-0.057,0.042-0.083c0-0.029,0-0.058,0-0.084c0.029,0,0.057-0.013,0.084-0.042
	c0-0.027,0.013-0.057,0.041-0.083c0-0.028,0-0.056,0-0.083c0-0.029,0-0.057,0-0.084s0-0.057,0-0.083
	c0.028-0.028,0.041-0.056,0.041-0.084c0.029-0.028,0.042-0.058,0.042-0.083c0-0.03,0-0.057,0-0.084v-0.041
	c0.029-0.028,0.043-0.059,0.043-0.084c0.028-0.028,0.042-0.055,0.042-0.083c0.029-0.028,0.041-0.056,0.041-0.084s0-0.056,0-0.083
	c0.028-0.027,0.042-0.057,0.042-0.083c0.027-0.029,0.043-0.058,0.043-0.083c0-0.028,0-0.057,0-0.083v-0.043
	c0.028-0.026,0.041-0.056,0.041-0.083c0.028-0.027,0.043-0.055,0.043-0.082c0.028-0.03,0.041-0.057,0.041-0.083
	c0-0.027,0-0.058,0-0.084c0-0.028,0-0.058,0-0.084c0-0.027,0-0.056,0-0.083c0.028-0.029,0.057-0.057,0.083-0.084v-0.041
	c0.028-0.028,0.043-0.057,0.043-0.083c0.026-0.029,0.041-0.056,0.041-0.085c0.03-0.027,0.043-0.055,0.043-0.083s0-0.056,0-0.083
	c0.027-0.029,0.042-0.057,0.042-0.083c0.028-0.028,0.043-0.056,0.043-0.083c0-0.028,0-0.057,0-0.084v-0.042c0-0.027,0-0.056,0-0.083
	c0.027-0.029,0.04-0.057,0.04-0.084c0.03-0.028,0.043-0.057,0.043-0.083c0.027-0.028,0.041-0.056,0.041-0.083s0-0.055,0-0.083
	s0-0.056,0-0.084s0-0.056,0-0.083v-0.041c0.03-0.028,0.043-0.057,0.043-0.084c0-0.028,0.014-0.055,0.042-0.083
	c0-0.028,0-0.056,0-0.083c0-0.029,0-0.057,0-0.083c0-0.028,0-0.058,0-0.086c0-0.025,0-0.056,0-0.083
	c0.027-0.027,0.055-0.055,0.083-0.083l0.042-0.042c0-0.029,0-0.059,0-0.085c0.029-0.027,0.042-0.056,0.042-0.083
	s0.016-0.057,0.044-0.083c0-0.028,0-0.054,0-0.083c0-0.028,0-0.057,0-0.083c0-0.029,0-0.056,0-0.083s0-0.057,0-0.083l-0.044-0.042
	v-0.292c-0.027,0-0.042-0.015-0.042-0.041v-0.043l-0.042-0.042v-0.041h-0.041v-0.125h-0.042V16.7c-0.028,0-0.042-0.015-0.042-0.042
	l-0.043-0.043v-0.042c-0.028,0-0.041-0.013-0.041-0.041l-0.043-0.041c0-0.029-0.013-0.042-0.04-0.042v-0.044h-0.043v-0.04
	l-0.042-0.042v-0.041h-0.043l-0.041-0.042c0-0.028-0.015-0.042-0.043-0.042l-0.042-0.042h-0.042c0-0.027-0.013-0.042-0.041-0.042
	c-0.028-0.028-0.056-0.041-0.083-0.041h-0.043l-0.042-0.042c-0.027,0-0.041-0.014-0.041-0.042c-0.028,0-0.056,0-0.085,0
	c0-0.027-0.013-0.041-0.042-0.041c-0.026-0.029-0.056-0.042-0.082-0.042h-0.043c-0.028-0.027-0.056-0.042-0.083-0.042l-0.042-0.042
	h-0.04l-0.042-0.041c-0.029-0.028-0.056-0.042-0.083-0.042h-0.043l-0.042-0.041c-0.026,0-0.055,0-0.083,0h-0.082l-0.042-0.042
	c-0.028,0-0.057,0-0.085,0H32.2l-0.043-0.042c-0.028,0-0.056,0-0.083,0c-0.028,0-0.056,0-0.083,0h-0.042l-0.042-0.042
	c-0.028,0-0.055,0-0.083,0H31.74l-0.041-0.042c-0.028,0-0.056,0-0.084,0c-0.028,0-0.057,0-0.083,0
	c-0.028-0.028-0.055-0.042-0.083-0.042h-0.042l-0.042-0.042H31.28l-0.042-0.042c-0.028,0-0.056,0-0.083,0c-0.15,0-0.302,0-0.459,0
	c-0.028,0-0.057,0-0.084,0h-0.375c-0.043,0-0.084,0-0.125,0H30.07c-0.028,0-0.056,0.014-0.083,0.042h-0.042
	c-0.097,0-0.195,0-0.292,0h-0.042c-0.028,0-0.056,0.015-0.083,0.042h-0.042c-0.028,0-0.043,0.014-0.043,0.042
	c-0.029,0-0.057,0-0.083,0c0,0.028-0.014,0.042-0.042,0.042h-0.083c-0.027,0-0.056,0.015-0.084,0.042H29.11
	c-0.029,0-0.057,0-0.083,0h-0.042c-0.028,0-0.056,0.013-0.083,0.042h-0.126c-0.027,0-0.055,0.013-0.083,0.042h-0.126
	c-0.027,0-0.055,0.012-0.083,0.041H28.44c-0.028,0-0.043,0.014-0.043,0.042h-0.04c-0.028,0.027-0.057,0.041-0.084,0.041
	s-0.055,0.014-0.083,0.042h-0.083c-0.029,0-0.057,0.015-0.083,0.042h-0.083c-0.029,0-0.057,0.013-0.084,0.042h-0.041
	c-0.028,0-0.057,0.014-0.083,0.041H27.69c-0.028,0-0.055,0.014-0.083,0.042H27.52c-0.027,0.028-0.055,0.042-0.082,0.042
	c-0.028,0-0.055,0.013-0.083,0.041l-0.043,0.042h-0.083c-0.028,0-0.056,0.015-0.084,0.042h-0.041c-0.028,0-0.057,0.014-0.084,0.042
	h-0.083c0,0.028-0.013,0.042-0.041,0.042s-0.057,0.013-0.083,0.041h-0.085c0,0.027-0.014,0.042-0.041,0.042
	c-0.029,0-0.055,0.013-0.084,0.04h-0.042c-0.027,0-0.055,0.017-0.081,0.044h-0.042c-0.028,0-0.056,0.013-0.084,0.042h-0.041
	c-0.03,0-0.057,0.014-0.083,0.041h-0.085c0,0.028-0.013,0.041-0.041,0.041c-0.029,0-0.055,0.014-0.084,0.042h-0.083
	c0,0.029-0.015,0.043-0.041,0.043c-0.029,0-0.056,0.014-0.084,0.042H25.77c-0.028,0-0.056,0.013-0.084,0.041h-0.042
	c-0.026,0-0.04,0.014-0.04,0.042c-0.029,0-0.058,0-0.084,0h-0.042c-0.027,0-0.055,0.014-0.083,0.042H25.35
	c-0.027,0-0.057,0.013-0.084,0.042h-0.041c-0.029,0-0.058,0.014-0.084,0.041h-0.042c-0.028,0-0.056,0.014-0.082,0.041h-0.084
	c0,0.027-0.015,0.042-0.042,0.042c-0.028,0-0.056,0.016-0.084,0.043l-0.041,0.041h-0.084c-0.028,0-0.056,0.015-0.083,0.042h-0.042
	c-0.028,0-0.055,0.014-0.083,0.041H24.39c-0.028,0.029-0.056,0.043-0.083,0.043c-0.027,0-0.056,0.014-0.084,0.042H24.18
	c-0.028,0-0.042,0.014-0.042,0.04h-0.042c-0.029,0.029-0.056,0.042-0.083,0.042c-0.027,0-0.042,0.014-0.042,0.042
	c-0.028,0-0.056,0-0.083,0c-0.028,0.029-0.056,0.042-0.083,0.042c-0.029,0-0.056,0.015-0.083,0.042H23.68
	c-0.03,0-0.056,0.013-0.083,0.041h-0.042c-0.028,0-0.056,0.014-0.084,0.042H23.43c-0.027,0-0.056,0.012-0.083,0.041h-0.041
	c-0.029,0-0.057,0.015-0.084,0.041h-0.044c-0.027,0-0.04,0.015-0.04,0.042h-0.042L23.054,17.7c-0.027,0-0.041,0.014-0.041,0.042
	H22.97c-0.028,0-0.055,0.014-0.083,0.042h-0.043c-0.028,0-0.056,0.014-0.084,0.041h-0.041c-0.028,0-0.058,0.015-0.084,0.042h-0.041
	c-0.029,0-0.057,0.013-0.083,0.04h-0.083c-0.028,0-0.056,0.015-0.084,0.042h-0.041c-0.029,0-0.057,0.014-0.083,0.043h-0.043
	c-0.028,0-0.056,0.014-0.084,0.042H22.05c-0.028,0-0.055,0.014-0.083,0.041h-0.084c-0.028,0-0.056,0.015-0.083,0.042h-0.083
	c-0.029,0-0.057,0.013-0.085,0.042h-0.041c-0.028,0-0.041,0.016-0.041,0.041h-0.044c-0.028,0.028-0.054,0.042-0.083,0.042h-0.082
	c-0.03,0-0.058,0.016-0.086,0.043h-0.082c-0.028,0-0.055,0.012-0.084,0.04h-0.041c-0.056,0-0.098,0.014-0.126,0.042h-0.041
	c-0.028,0-0.058,0.014-0.083,0.041h-0.084c-0.027,0-0.055,0.015-0.082,0.042h-0.043c-0.029,0-0.042,0.015-0.042,0.043
	c-0.028,0-0.057,0-0.083,0h-0.042c-0.027,0-0.056,0.012-0.084,0.04h-0.083c-0.027,0-0.055,0.014-0.083,0.042h-0.084
	c-0.028,0-0.056,0.015-0.083,0.042h-0.042c-0.028,0-0.057,0.013-0.083,0.041h-0.126c-0.028,0-0.056,0.015-0.083,0.042h-0.124
	c-0.029,0-0.056,0.013-0.083,0.041h-0.126c-0.028,0-0.054,0.015-0.083,0.042h-0.124c-0.028,0-0.056,0.014-0.083,0.042h-0.044
	c-0.028,0-0.042,0.014-0.042,0.041H18.92c-0.028,0.028-0.055,0.042-0.083,0.042c-0.028,0-0.057,0-0.084,0h-0.042
	c-0.027,0-0.055,0.015-0.082,0.042H18.5c-0.028,0-0.056,0.013-0.083,0.041h-0.125c-0.028,0-0.056,0.015-0.083,0.042h-0.043
	c-0.028,0-0.042,0.013-0.042,0.041h-0.042l-0.041,0.042c-0.028,0-0.057,0.013-0.084,0.042h-0.042c-0.028,0-0.041,0.014-0.041,0.042
	c-0.03,0-0.058,0-0.084,0h-0.042c-0.028,0-0.056,0.014-0.083,0.041h-0.041c-0.03,0-0.057,0.015-0.084,0.042l-0.042,0.041h-0.041
	l-0.043,0.043c-0.028,0-0.056,0.013-0.083,0.041H17.29c-0.028,0-0.056,0.014-0.085,0.042h-0.083c-0.028,0-0.054,0.013-0.082,0.041
	h-0.084c0,0.028-0.014,0.042-0.042,0.042s-0.056,0.013-0.084,0.042h-0.042c-0.027,0-0.056,0.014-0.082,0.042H16.58
	c-0.027,0-0.055,0.015-0.083,0.043h-0.083c-0.028,0-0.056,0.013-0.084,0.04h-0.043c-0.027,0-0.055,0.014-0.083,0.043h-0.041
	c-0.028,0-0.056,0.014-0.084,0.042h-0.125c-0.026,0-0.057,0.013-0.083,0.042h-0.083c0,0.028-0.014,0.041-0.041,0.041
	c-0.028,0-0.056,0.015-0.084,0.041H15.62c-0.028,0-0.057,0.015-0.085,0.043l-0.059,0.063c-0.026,0.006-0.046,0.014-0.065,0.019
	h-0.043c-0.027,0-0.056,0.014-0.083,0.042h-0.083c0,0.027-0.014,0.043-0.041,0.043c-0.028,0-0.056,0.013-0.084,0.041h-0.083
	c-0.028,0-0.056,0.015-0.083,0.042H14.87c-0.029,0-0.057,0.015-0.085,0.043h-0.083c-0.028,0-0.055,0.013-0.083,0.041h-0.042
	c-0.028,0-0.056,0.013-0.084,0.043h-0.125c-0.028,0-0.058,0.014-0.085,0.042h-0.04c-0.028,0-0.056,0.013-0.083,0.04l-0.042,0.042
	c-0.028,0-0.056,0-0.083,0h-0.042c-0.028,0-0.056,0.015-0.084,0.041h-0.125c-0.027,0-0.055,0.015-0.083,0.043h-0.042
	c-0.056,0-0.098,0.013-0.127,0.041h-0.04c-0.028,0-0.058,0.015-0.085,0.042h-0.041c-0.029,0-0.057,0.012-0.083,0.042L13.24,20.7
	c-0.028,0-0.056,0-0.083,0h-0.042c-0.028,0-0.056,0.013-0.084,0.041h-0.125c-0.028,0-0.057,0.015-0.084,0.042h-0.041
	c-0.029,0-0.057,0.015-0.083,0.041h-0.042c-0.03,0-0.058,0-0.083,0h-0.041c-0.029,0-0.059,0.014-0.086,0.042h-0.042
	c-0.026,0-0.055,0.013-0.083,0.043H12.28c-0.029,0-0.058,0.014-0.084,0.042H12.11c0,0.027-0.013,0.042-0.04,0.042
	c-0.028,0-0.058,0.013-0.085,0.041h-0.042c-0.026,0-0.069,0-0.125,0h-0.04c-0.028,0-0.056,0.013-0.085,0.041H11.61
	c-0.029,0-0.055,0.016-0.083,0.043h-0.125c-0.03,0-0.057,0.014-0.084,0.041h-0.043c-0.027,0-0.055,0-0.083,0H11.15
	c-0.027,0-0.056,0.015-0.083,0.042h-0.125c-0.028,0-0.056,0.012-0.083,0.042h-0.124c-0.03,0-0.057,0.013-0.084,0.042h-0.124
	c-0.03,0-0.058,0.013-0.087,0.041H10.4c-0.027,0-0.056,0.015-0.084,0.042l-0.041,0.042h-0.042c-0.027,0.025-0.055,0.041-0.083,0.041
	c-0.029,0-0.043,0.015-0.043,0.042c-0.027,0-0.055,0-0.084,0c0,0.028-0.014,0.042-0.041,0.042c-0.028,0-0.057,0.014-0.084,0.043
	h-0.04c-0.029,0-0.058,0.013-0.084,0.042H9.731c-0.028,0-0.042,0.014-0.042,0.042h-0.04c-0.029,0.027-0.058,0.042-0.084,0.042
	c-0.058,0-0.099,0.014-0.127,0.041H9.397c-0.028,0-0.056,0.015-0.084,0.042H9.271c-0.028,0-0.056,0.015-0.083,0.043l-0.042,0.042
	c-0.027,0.026-0.056,0.042-0.083,0.042c-0.028,0-0.056,0.014-0.083,0.042l-0.042,0.04c-0.056,0-0.098,0-0.125,0H8.771
	c-0.028,0-0.056,0.016-0.083,0.042H8.646c-0.027,0-0.043,0.015-0.043,0.043c-0.027,0-0.057,0-0.083,0
	c0,0.026-0.015,0.042-0.042,0.042s-0.055,0.013-0.083,0.042l-0.042,0.04H8.311c-0.027,0.027-0.055,0.043-0.083,0.043H8.145
	c-0.029,0-0.056,0.014-0.083,0.042H7.936c-0.03,0-0.056,0.015-0.083,0.042H7.769c0,0.027-0.015,0.042-0.042,0.042
	s-0.055,0.012-0.083,0.04H7.559c-0.028,0-0.056,0.016-0.083,0.043H7.392c-0.027,0-0.056,0.014-0.083,0.041H7.226
	c-0.029,0-0.057,0.016-0.083,0.042H7.015c-0.028,0-0.056,0.015-0.083,0.042H6.808c-0.029,0-0.056,0.014-0.083,0.041H6.682
	c-0.028,0-0.041,0.016-0.041,0.043c-0.029,0-0.058,0-0.085,0c0,0.027-0.012,0.042-0.041,0.042c-0.028,0-0.056,0.013-0.084,0.042
	H6.39c-0.028,0-0.056,0-0.083,0H6.266c-0.03,0-0.058,0.016-0.083,0.04H6.14c-0.028,0-0.055,0.015-0.084,0.041H5.972
	c-0.027,0.03-0.055,0.043-0.082,0.043c-0.028,0-0.057,0.013-0.084,0.042H5.765c-0.03,0-0.042,0.014-0.042,0.042H5.68
	C5.651,22.984,5.623,23,5.596,23c-0.027,0-0.056,0.014-0.083,0.042H5.471c-0.028,0-0.056,0.013-0.083,0.041H5.346
	c-0.029,0-0.043,0.015-0.043,0.042c-0.027,0-0.055,0-0.083,0H5.178c-0.027,0-0.056,0.014-0.083,0.043H5.011
	c0,0.027-0.014,0.041-0.041,0.041c-0.028,0-0.056,0.014-0.084,0.042H4.803c-0.027,0-0.055,0.015-0.082,0.042H4.677
	c-0.028,0-0.056,0.014-0.083,0.043H4.553c-0.028,0-0.057,0.012-0.084,0.04H4.384c0,0.029-0.013,0.043-0.041,0.043
	c-0.027,0-0.056,0.015-0.083,0.042H4.218c-0.027,0-0.055,0.014-0.084,0.041H4.009c-0.028,0-0.056,0.016-0.083,0.042H3.884
	c-0.028,0-0.055,0-0.084,0H3.759c-0.028,0-0.056,0.015-0.083,0.042H3.634c-0.027,0-0.055,0-0.083,0H3.508
	c-0.028,0-0.055,0.014-0.083,0.042H3.341c-0.028,0-0.056,0.013-0.084,0.041H3.175c-0.029,0-0.057,0.015-0.085,0.043H3.049
	c-0.029,0-0.057,0-0.083,0H2.922c-0.027,0-0.055,0.013-0.082,0.04H2.8c-0.03,0-0.058,0-0.085,0H2.673
	c-0.028,0-0.056,0.014-0.083,0.041H2.547c-0.028,0-0.042,0.016-0.042,0.043h-0.04l-0.042,0.042c-0.028,0-0.056,0.015-0.084,0.042
	H2.297c-0.027,0-0.056,0.014-0.082,0.042H2.088c-0.028,0-0.056,0.015-0.083,0.042H1.963c-0.028,0-0.055,0.016-0.083,0.042
	c-0.029,0-0.057,0.015-0.084,0.041c-0.027,0-0.056,0-0.083,0c0,0.029-0.015,0.042-0.042,0.042c-0.027,0-0.055,0.016-0.083,0.042
	H1.545c-0.028,0-0.042,0.013-0.042,0.042c-0.027,0-0.056,0-0.083,0c0,0.028-0.014,0.041-0.041,0.041
	c-0.029,0-0.057,0.016-0.083,0.043H1.211c0,0.026-0.015,0.041-0.042,0.041c-0.029,0-0.056,0.014-0.083,0.04H1.002
	c-0.028,0-0.056,0.015-0.083,0.043H0.877c-0.028,0-0.057,0.015-0.083,0.042H0.752c-0.028,0-0.056,0.014-0.083,0.043
	c-0.031-0.015-0.058-0.029-0.083-0.043c-0.029-0.027-0.057-0.056-0.083-0.084c-0.028-0.027-0.056-0.055-0.083-0.081v-0.043
	c0-0.026,0-0.056,0-0.083c-0.056,0-0.126-0.014-0.209-0.042c0-0.028-0.015-0.055-0.042-0.083c-0.013-0.015-0.027-0.027-0.042-0.042
	v-4.112l0.042-0.021c0-0.028,0.013-0.041,0.042-0.041c0.028,0,0.07-0.016,0.125-0.042c0.055,0,0.111,0,0.167,0v-0.042
	c0-0.029,0-0.057,0-0.083c0-0.028,0-0.058,0-0.084c0-0.029,0-0.058,0-0.084v-0.041c0-0.028,0-0.056,0-0.083c0-0.028,0-0.057,0-0.084
	s0-0.057,0-0.083c0-0.027,0-0.056,0-0.083c0-0.028,0-0.057,0-0.083c0-0.027,0-0.056,0-0.083s0-0.057,0-0.084V18.82
	c0-0.028,0-0.057,0-0.084c0-0.028,0-0.057,0-0.084c0-0.026,0-0.055,0-0.082s0-0.057,0-0.082c0-0.028,0-0.059,0-0.086
	c0-0.026,0-0.057,0-0.082c0-0.028,0-0.055,0-0.084v-0.041c0-0.025,0-0.055,0-0.084c0-0.026,0-0.055,0-0.082c0-0.028,0-0.057,0-0.084
	c0-0.028,0-0.055,0-0.084c0-0.027,0-0.055,0-0.082c0-0.029,0-0.057,0-0.084s0-0.055,0-0.084V17.57c0-0.029,0-0.057,0-0.084
	c0-0.026,0-0.055,0-0.082c0-0.029,0-0.057,0-0.084c0-0.026,0-0.055,0-0.082c0-0.028,0-0.057,0-0.086c0-0.026,0-0.055,0-0.082
	c0-0.028,0-0.057,0-0.084v-0.047c0-0.026,0-0.056,0-0.082c0-0.028,0-0.057,0-0.084s0-0.055,0-0.082c0-0.028,0-0.057,0-0.086
	c0-0.027,0-0.055,0-0.082s0-0.057,0-0.083c0-0.028,0-0.057,0-0.084v-0.042c0-0.028,0-0.056,0-0.083s0-0.057,0-0.084s0-0.056,0-0.083
	c0-0.028,0-0.057,0-0.084s0-0.056,0-0.083s0-0.056,0-0.083s0-0.055,0-0.083V15.69c0-0.029,0-0.057,0-0.085c0-0.027,0-0.055,0-0.083
	c-0.002-0.029-0.015-0.07-0.043-0.125c0-0.027-0.013-0.069-0.04-0.125c0-0.026,0-0.07,0-0.125c0-0.029,0-0.07,0-0.126
	c0-0.028,0-0.069,0-0.125c0-0.028,0-0.07,0-0.125c0-0.028,0-0.069,0-0.126c0-0.021,0-0.048,0-0.083c-0.023,0-0.052,0-0.084,0
	c-0.056,0-0.112-0.014-0.168-0.042c-0.027-0.027-0.055-0.055-0.083-0.082C0.057,14.408,0.028,14.38,0,14.352
	c0-0.028,0-0.057,0-0.083v-0.041c0-0.029,0-0.057,0-0.084s0-0.056,0-0.084s0-0.055,0-0.083s0-0.056,0-0.083c0-0.03,0-0.057,0-0.084
	s0-0.056,0-0.083c0-0.03,0-0.057,0-0.084V13.6c0-0.028,0-0.057,0-0.084c0-0.029,0-0.055,0-0.083s0-0.056,0-0.083s0-0.056,0-0.083
	s0-0.056,0-0.083c0-0.029,0-0.057,0-0.083c0-0.028,0-0.058,0-0.083v-0.044c0-0.026,0-0.054,0-0.083c0-0.027,0-0.055,0-0.083
	s0-0.056,0-0.083c0-0.029,0-0.056,0-0.083s0-0.056,0-0.085c0-0.028,0-0.055,0-0.083c0-0.027,0-0.055,0-0.083v-0.042
	c0-0.029,0-0.055,0-0.083c0-0.028,0-0.057,0-0.084s0-0.057,0-0.083c0-0.028,0-0.056,0-0.085c0-0.026,0-0.055,0-0.083
	c0-0.026,0-0.056,0-0.082c0-0.029,0-0.056,0-0.084V11.72c0-0.028,0-0.056,0-0.084c0-0.028,0-0.056,0-0.082c0-0.029,0-0.056,0-0.083
	c0-0.03,0-0.058,0-0.085c0.028-0.026,0.042-0.055,0.042-0.082c0.027-0.028,0.042-0.058,0.042-0.086
	c0.028-0.025,0.056-0.055,0.083-0.082c0.028,0,0.042-0.015,0.042-0.042c0-0.026,0-0.055,0-0.083
	c0.028-0.027,0.042-0.057,0.042-0.084c0.028-0.026,0.042-0.054,0.042-0.083c0.056-0.028,0.097-0.056,0.126-0.084
	c0.027-0.028,0.069-0.056,0.125-0.083c0.028,0,0.054-0.014,0.083-0.042c0.028-0.028,0.055-0.041,0.084-0.041
	c0.027-0.029,0.055-0.055,0.083-0.083c0.027-0.03,0.07-0.057,0.125-0.084c0.027-0.029,0.055-0.041,0.083-0.041
	c0-0.029,0.015-0.043,0.042-0.043c0.029,0,0.071,0,0.126,0v-0.041c0.056,0.028,0.097,0.041,0.126,0.041
	c0.027,0,0.04,0.015,0.04,0.043c0.057,0,0.098,0,0.126,0c0.056,0.026,0.109,0.056,0.167,0.082c0.028,0,0.042,0.014,0.042,0.044
	c0.529,0,1.058,0,1.586,0L3.3,10.551l0.042-0.041c2.005,0,4.024,0,6.056,0c0.056,0,0.125,0,0.208,0c0.194,0,0.403,0,0.626,0
	c0.028,0.028,0.07,0.041,0.125,0.041c0.027,0,0.042,0.013,0.042,0.042c1.114-0.029,2.213-0.042,3.3-0.042V10.51
	c0.028,0,0.056-0.015,0.083-0.044v-0.041c0.058,0,0.112-0.015,0.168-0.041c0.055,0,0.111-0.016,0.167-0.043
	c0.028-0.026,0.07-0.041,0.125-0.041c0.055-0.029,0.097-0.058,0.125-0.084c0.027-0.028,0.057-0.055,0.083-0.083
	c0.028-0.029,0.054-0.057,0.083-0.084c0.056-0.028,0.112-0.056,0.167-0.083c0.027-0.028,0.042-0.057,0.042-0.085
	c0.028,0,0.056-0.013,0.083-0.04V9.799c0.056,0,0.112-0.014,0.168-0.042c0.056,0,0.111,0,0.167,0V9.716c0.027,0,0.07,0,0.125,0
	c0.056,0.027,0.098,0.041,0.125,0.041c0.028,0.028,0.042,0.056,0.042,0.084c0.027,0.027,0.042,0.057,0.042,0.084
	c0,0.027-0.015,0.054-0.042,0.083c0,0.027-0.015,0.055-0.042,0.083c-0.056,0.028-0.125,0.058-0.209,0.083v0.042
	c0.029,0,0.069,0.015,0.125,0.042c0.02,0,0.04,0.007,0.062,0.022l0.021-0.022v-0.042l0.042-0.042c0.027-0.025,0.055-0.04,0.082-0.04
	c0.032-0.001,0.073-0.015,0.126-0.042h0.062c0.045-0.002,0.096-0.016,0.146-0.042c0.083,0,0.168,0,0.25,0v-0.041
	c0.153,0,0.307,0,0.459,0c0.03-0.001,0.072-0.015,0.127-0.042c0.139,0,0.277,0,0.416,0c0.029,0.013,0.057,0.027,0.083,0.042
	c0.14,0,0.28,0,0.419,0c0.029-0.001,0.069-0.015,0.124-0.042c0.946,0,1.894,0,2.84,0c0.028,0.013,0.057,0.027,0.083,0.042
	c0.097,0,0.195,0,0.294,0c0.029-0.001,0.069-0.015,0.123-0.042c1.002,0,2.02,0,3.05,0c0.027,0.013,0.056,0.027,0.083,0.042
	c0.35,0,0.697,0,1.044,0c0.03-0.001,0.072-0.015,0.125-0.042c0.668,0,1.322,0,1.964,0c0.029-0.028,0.056-0.041,0.083-0.041
	s0.07-0.016,0.125-0.045c0.39,0,0.779-0.013,1.17-0.04c0.028,0,0.055-0.015,0.083-0.043c0.028,0,0.068,0,0.125,0V9.757
	c0.196,0,0.404,0,0.626,0c0.028-0.028,0.042-0.056,0.042-0.083c0.027-0.03,0.07-0.056,0.126-0.084
	c0.026-0.027,0.069-0.055,0.125-0.081c0.029-0.029,0.07-0.057,0.126-0.084c0.027-0.029,0.055-0.057,0.083-0.084
	c0.028-0.028,0.056-0.056,0.083-0.083c0.028,0,0.056-0.014,0.084-0.042c0.056-0.027,0.11-0.057,0.167-0.083
	c0.028-0.029,0.041-0.056,0.041-0.083c0.03-0.028,0.071-0.056,0.127-0.083c0.028-0.029,0.069-0.057,0.125-0.084
	c0.027-0.026,0.057-0.056,0.083-0.082c0-0.031,0-0.058,0-0.086c0.028-0.027,0.056-0.055,0.084-0.083
	c0.028,0,0.041-0.014,0.041-0.042c0.056-0.029,0.112-0.058,0.167-0.083c0.028-0.028,0.069-0.056,0.125-0.084
	c0.028-0.027,0.057-0.04,0.084-0.04c0-0.029,0.013-0.041,0.041-0.041c0.028,0,0.071-0.017,0.126-0.045
	c0.223,0,0.458-0.013,0.709-0.041c0.028-0.028,0.07-0.057,0.125-0.083c0.03-0.028,0.057-0.056,0.084-0.083
	c0.026-0.028,0.056-0.057,0.082-0.083c0.029,0,0.058-0.014,0.083-0.042c0.028-0.029,0.042-0.057,0.042-0.083
	c0.03-0.028,0.056-0.055,0.083-0.083c0.028-0.028,0.057-0.057,0.085-0.084c0.027-0.027,0.057-0.055,0.083-0.083
	c0.028-0.028,0.055-0.056,0.083-0.084c0.028,0,0.056-0.015,0.083-0.041c0.028-0.028,0.055-0.042,0.083-0.042
	c0.029-0.028,0.043-0.056,0.043-0.083c0.028-0.029,0.042-0.057,0.042-0.083c0.029-0.029,0.069-0.057,0.125-0.083
	c0.028-0.028,0.068-0.058,0.124-0.084c0.028-0.028,0.057-0.055,0.083-0.083c0.028-0.026,0.056-0.055,0.083-0.083l0.043-0.041
	c0-0.028,0.013-0.056,0.042-0.084c0.028-0.027,0.043-0.055,0.043-0.084c0.027-0.028,0.055-0.041,0.083-0.041
	c0-0.027,0.012-0.042,0.041-0.042c0.03-0.028,0.072-0.041,0.126-0.041c0.028-0.028,0.041-0.056,0.041-0.084
	c0.027-0.028,0.057-0.055,0.083-0.083c0.029-0.028,0.057-0.055,0.085-0.083c0.026-0.028,0.054-0.056,0.083-0.083
	c0.028-0.027,0.056-0.056,0.083-0.084c0.027-0.027,0.055-0.055,0.083-0.083c0.027,0,0.043-0.013,0.043-0.042
	C34.483,6.055,34.511,6.027,34.538,6c0.028-0.03,0.056-0.056,0.083-0.083c0.03-0.029,0.057-0.057,0.085-0.084
	c0.027-0.029,0.055-0.057,0.083-0.084c0.028-0.026,0.056-0.056,0.084-0.083c0.028-0.028,0.055-0.057,0.083-0.084
	c0.026-0.028,0.055-0.054,0.083-0.083c0.028,0,0.042-0.014,0.042-0.041c0.057-0.028,0.112-0.058,0.168-0.084
	c0.055-0.028,0.109-0.042,0.166-0.042V5.289h0.043l0.041-0.042c0.029-0.029,0.055-0.043,0.083-0.043c0.029,0,0.072,0,0.127,0V5.163
	c5.43,0,10.857,0,16.286,0V5.122c0.028-0.027,0.042-0.056,0.042-0.084c0.027-0.027,0.042-0.055,0.042-0.083
	c0.028-0.027,0.058-0.055,0.084-0.083l0.04-0.042c0-0.026,0.015-0.056,0.044-0.083c0.026-0.028,0.04-0.056,0.04-0.083
	c0.029-0.028,0.056-0.056,0.083-0.083l0.042-0.041c0.027-0.028,0.056-0.042,0.083-0.042c0.028,0,0.056,0,0.083,0V4.453l0.042-0.042
	c0.028-0.028,0.057-0.042,0.083-0.042c0.027,0,0.068-0.014,0.125-0.042c0.14,0,0.279,0,0.419,0v-0.04c0-0.029,0-0.057,0-0.084
	c0.026-0.028,0.055-0.056,0.083-0.083c0.027-0.028,0.07-0.057,0.125-0.084c0.029,0,0.055-0.014,0.083-0.042
	c0.028-0.028,0.058-0.056,0.084-0.083l0.041-0.042V3.827c0.028,0,0.058,0,0.084,0c0-0.028,0.013-0.056,0.042-0.083
	c0.027,0,0.057-0.013,0.083-0.041c0.03-0.029,0.058-0.057,0.083-0.083c0.029,0,0.057,0,0.084,0c0-0.029,0.016-0.042,0.042-0.042
	c0.028-0.028,0.056-0.056,0.083-0.083c0.027-0.028,0.059-0.056,0.085-0.082l0.042-0.044c0-0.028,0-0.056,0-0.083
	c0.025-0.028,0.055-0.056,0.083-0.083c0.026-0.027,0.056-0.055,0.084-0.082c0.028-0.03,0.056-0.058,0.083-0.085
	c0-0.028,0.014-0.055,0.04-0.083c0-0.028,0-0.057,0-0.084c0-0.028,0-0.055,0-0.084V2.742C54.641,2.714,54.68,2.7,54.709,2.7V2.658
	L54.752,2.7V2.616c0.027,0,0.055,0,0.083,0c0.026,0,0.054-0.012,0.083-0.042C54.945,2.604,54.975,2.63,55,2.658
	c0.057,0,0.111,0,0.169,0c0.029,0,0.069,0,0.125,0c0.028-0.028,0.04-0.054,0.04-0.083c0.059,0,0.1,0,0.127,0c0.083,0,0.18,0,0.292,0
	c0.029,0,0.07,0.015,0.125,0.042c0.028,0.028,0.056,0.055,0.083,0.083c0.029,0.029,0.057,0.055,0.084,0.083
	c0.025,0.029,0.057,0.056,0.083,0.084c0,0.027,0.015,0.057,0.042,0.084c0.03,0.028,0.055,0.041,0.083,0.041
	c0.028,0.028,0.058,0.055,0.083,0.083c0.027,0.029,0.057,0.057,0.083,0.084c0.026,0.028,0.056,0.056,0.084,0.083
	c0.026,0.027,0.056,0.056,0.083,0.083c0.027,0.027,0.057,0.056,0.083,0.085c0.03,0.026,0.058,0.054,0.084,0.082l0.042,0.042
	c0.029,0.028,0.071,0.041,0.125,0.041c0.028,0.028,0.068,0.055,0.125,0.083c0.028,0.029,0.042,0.056,0.042,0.083
	c0.013,0.015,0.026,0.028,0.041,0.042c0.015,0.014,0.028,0.028,0.043,0.042c0.03,0.03,0.07,0.057,0.124,0.083
	c0,0.028,0,0.056,0,0.083c0.057,0.028,0.098,0.042,0.125,0.042c0.028,0.028,0.057,0.057,0.083,0.084
	c0,0.026,0.015,0.055,0.042,0.083c0.028,0.028,0.041,0.056,0.041,0.084l0.043,0.041c0.473,0,0.96,0,1.461,0V4.287
	c0-0.029,0-0.057,0-0.084c0-0.027,0-0.056,0-0.083c0.03,0,0.057-0.014,0.083-0.042V4.036c0.058,0,0.112-0.014,0.167-0.042
	c0.057,0,0.112-0.013,0.167-0.041c0.056-0.027,0.113-0.042,0.169-0.042c0.028-0.028,0.041-0.057,0.041-0.083
	c0.057,0,0.111-0.014,0.167-0.042c0-0.027,0.015-0.055,0.041-0.083c0.03,0,0.056-0.014,0.084-0.042V3.619
	c0.056,0,0.11-0.015,0.168-0.042c0.056-0.028,0.109-0.056,0.165-0.083c0.03-0.028,0.059-0.056,0.085-0.082
	c0.027,0,0.056-0.016,0.082-0.044h0.042c0.057-0.028,0.112-0.056,0.167-0.083l0.044-0.042V3.201c0.055,0,0.11-0.014,0.164-0.042
	c0.03-0.028,0.042-0.056,0.042-0.084c0.03,0,0.056-0.013,0.083-0.041V2.992c0.057,0,0.098,0,0.126,0s0.068,0.014,0.124,0.042
	c0.029,0.028,0.043,0.056,0.043,0.085c0,0.027,0.014,0.055,0.041,0.082c0,0.028,0,0.055,0,0.083c0,0.027,0,0.055,0,0.083v0.044
	c0,0.026,0,0.054,0,0.082c0,0.028,0,0.056,0,0.083c0,0.027,0.016,0.055,0.042,0.083c0.029,0.029,0.042,0.056,0.042,0.083
	c0.029,0.028,0.045,0.056,0.045,0.083c0,0.027,0.012,0.056,0.039,0.083c0,0.028,0,0.056,0,0.083l0.043,0.042
	c0.028,0.028,0.057,0.057,0.084,0.084c0,0.026,0.014,0.055,0.041,0.083c0.027,0.028,0.043,0.056,0.043,0.084l0.041,0.041
	c0.611,0,1.225,0,1.838,0c0-0.028,0.014-0.041,0.041-0.041c0.029,0,0.068,0,0.125,0v-0.04c0.055,0,0.127,0,0.211,0
	c0.056,0.03,0.109,0.057,0.166,0.084c0.028,0.028,0.056,0.056,0.084,0.083c0,0.028,0.014,0.042,0.039,0.042c0,0.029,0,0.057,0,0.084
	v0.041c0.028,0,0.059,0.015,0.084,0.042c0.028,0.027,0.057,0.041,0.084,0.041c0,0.028,0.014,0.056,0.041,0.083
	c0,0.028,0,0.058,0,0.083c0.018,0.018,0.031,0.03,0.043,0.042c0.027,0.028,0.055,0.056,0.082,0.083
	c0.028,0.029,0.057,0.057,0.084,0.083c0,0.029,0.012,0.058,0.041,0.084c0,0.028,0.015,0.055,0.043,0.083c0.026,0,0.069,0,0.125,0
	V5.163c5.234,0,10.455,0,15.66,0c0.028-0.028,0.057-0.056,0.084-0.083c0.029,0,0.055-0.014,0.084-0.043
	c0.027-0.027,0.055-0.055,0.084-0.083c0.026-0.027,0.039-0.055,0.039-0.083c0.03-0.029,0.043-0.057,0.043-0.083
	c0.028-0.028,0.043-0.056,0.043-0.083c0-0.029,0.012-0.058,0.041-0.084c0-0.028,0-0.056,0-0.083
	c0.027-0.028,0.057-0.056,0.082-0.084c0.028,0,0.043-0.014,0.043-0.042c0.026-0.028,0.041-0.056,0.041-0.083
	c0-0.027,0.014-0.055,0.041-0.084c0-0.027,0-0.055,0-0.081c0-0.03,0-0.057,0-0.084c0-0.029,0-0.057,0-0.084c0-0.027,0-0.056,0-0.083
	C81.193,3.885,81.18,3.856,81.18,3.83c-0.029,0-0.041-0.014-0.041-0.042c0-0.027,0-0.055,0-0.083c0-0.029,0-0.057,0-0.083
	c0-0.029,0-0.056,0-0.083s0-0.057,0-0.083c0-0.029,0-0.057,0-0.085c0-0.028,0-0.056,0-0.083c0-0.028,0-0.056,0-0.083V3.159
	c0-0.028,0-0.056,0-0.084c0-0.028,0-0.055,0-0.083c0-0.027,0-0.056,0-0.083c0-0.031,0-0.058,0-0.085c0-0.027,0-0.055,0-0.083
	c0-0.028,0-0.057,0-0.083c0-0.028,0-0.054,0-0.083V2.532c0-0.027,0-0.055,0-0.083c0-0.027,0-0.056,0-0.084c0-0.028,0-0.055,0-0.083
	c0.026-0.028,0.055-0.056,0.082-0.084c0.03-0.026,0.072-0.041,0.125-0.041c0.084,0,0.17-0.015,0.252-0.042
	C81.659,2.115,81.716,2.101,81.771,2.073z M82.835,2.552l0.021-0.02c0.015-0.013,0.035-0.027,0.063-0.041h-0.022
	c-0.039,0-0.082,0-0.123,0c0.014,0.014,0.026,0.029,0.041,0.041L82.835,2.552z M55.605,3.056c0.037,0.013,0.074,0.026,0.105,0.04
	V3.075l-0.083-0.041L55.605,3.056z M41.887,16.021c-0.028,0.028-0.041,0.056-0.041,0.083c-0.029,0.028-0.056,0.056-0.084,0.084
	c0.029,0.029,0.041,0.057,0.041,0.084c0,0.026,0,0.055,0,0.083s0,0.057,0,0.084c0,0.026,0,0.056,0,0.083c0,0.028,0,0.056,0,0.084
	s0,0.057,0,0.084v0.041c0,0.027,0,0.057,0,0.084c0,0.026,0,0.057,0,0.082c0,0.028,0,0.056,0,0.084s0,0.057,0,0.084
	c-0.026,0.026-0.041,0.056-0.041,0.082c-0.028,0.029-0.04,0.059-0.04,0.086c-0.028,0.026-0.042,0.055-0.042,0.082l-0.042,0.043
	c0,0.028-0.014,0.057-0.042,0.084v0.291c0,0.028,0,0.058,0,0.084c0,0.027,0,0.056,0,0.082v0.043c0,0.026,0,0.057,0,0.084
	c0,0.026,0,0.056,0,0.082c0,0.028,0,0.059,0,0.084c0,0.028,0,0.058,0,0.086c0,0.025,0,0.054,0,0.082c0,0.029,0,0.057,0,0.084v0.043
	c0,0.024,0.013,0.054,0.042,0.082c0,0.027,0,0.056,0,0.082c0,0.027,0,0.057,0,0.084c0,0.029,0.013,0.057,0.042,0.084
	c0,0.029,0.014,0.055,0.042,0.082c0.027,0.029,0.069,0.057,0.125,0.084c0,0.027,0,0.056,0,0.082
	c0.026,0.028,0.041,0.057,0.041,0.084v0.043c1.393,0,2.784,0,4.176,0c0.027,0.027,0.069,0.041,0.125,0.041
	c0.028,0,0.041,0.015,0.041,0.041c0.278,0,0.543,0,0.795,0c0.056,0,0.123,0,0.207,0c0.111,0,0.211,0,0.293,0
	c0.027-0.027,0.057-0.041,0.084-0.041s0.07-0.014,0.123-0.041c0.029,0,0.072-0.014,0.127-0.043c0.027,0,0.055-0.012,0.084-0.041
	c0.027,0,0.066-0.016,0.123-0.043c0.055,0,0.111-0.012,0.166-0.041c0.031-0.027,0.07-0.056,0.127-0.082
	c0.027-0.028,0.057-0.057,0.084-0.084c0.055-0.027,0.111-0.055,0.166-0.084c0.029,0,0.057,0,0.084,0c0-0.027,0-0.057,0-0.082
	c0-0.028,0-0.057,0-0.084c0-0.026,0-0.055,0-0.084c0-0.027,0-0.055,0-0.082c0-0.028,0-0.057,0-0.084v-0.041c0-0.028,0-0.055,0-0.084
	c0-0.027,0-0.055,0-0.082c0-0.028,0-0.057,0-0.084c0-0.026,0-0.055,0-0.082c0-0.029,0-0.059,0-0.086c0-0.026,0-0.055,0-0.082
	s0-0.057,0-0.084v-0.041c0-0.027,0-0.055,0-0.084c0-0.026,0-0.055,0-0.082c0-0.029,0-0.057,0-0.084c0-0.026,0-0.055,0-0.084
	c0-0.027,0-0.055,0-0.084c0-0.025,0-0.053,0-0.082c0-0.028,0-0.057,0-0.084v-0.041c0-0.028,0-0.057,0-0.084c0-0.028,0-0.055,0-0.084
	c0-0.026,0-0.056,0-0.082c0-0.027,0-0.058,0-0.084c0-0.027,0-0.055,0-0.082c0-0.029,0-0.059,0-0.086c0-0.026,0-0.056,0-0.082V16.44
	c0-0.028,0-0.057,0-0.084s0-0.056,0-0.083c0-0.028,0-0.056,0-0.084s0-0.056,0-0.084v-0.292c0-0.028,0-0.055,0-0.083v-0.041
	c-1.514,0-3.024,0-4.531,0l-0.02,0.041c-0.028,0.028-0.042,0.055-0.042,0.083s0,0.057,0,0.083c0,0.028,0,0.057,0,0.083
	c0,0.028,0,0.057,0,0.084s0,0.056,0,0.083c0,0.028,0,0.057,0,0.084v0.042c0,0.026,0.015,0.055,0.042,0.083
	c0,0.028,0.014,0.057,0.042,0.084c0,0.026,0,0.056,0,0.083c0,0.028,0,0.056,0,0.084s0,0.057,0,0.084
	c0.028,0.028,0.055,0.056,0.083,0.084c0,0.026,0,0.055,0,0.084l0.042,0.041c0,0.027,0.014,0.055,0.042,0.082
	c0.028,0.029,0.056,0.058,0.083,0.084c0.027,0.027,0.042,0.057,0.042,0.084c0.028,0.028,0.043,0.058,0.043,0.084
	c0.027,0.027,0.04,0.056,0.04,0.084c0.028,0.027,0.07,0.055,0.125,0.082c0,0.028,0,0.057,0,0.084l0.042,0.041
	c0,0.027,0.014,0.057,0.041,0.082c0.028,0.029,0.056,0.058,0.083,0.084c0.03,0.028,0.056,0.057,0.084,0.084
	c0.029,0.028,0.041,0.057,0.041,0.084c0.028,0.027,0.056,0.039,0.084,0.039c0.028,0.028,0.056,0.043,0.083,0.043
	s0.069,0.014,0.125,0.043c0.03,0.027,0.042,0.056,0.042,0.082c0.028,0.028,0.042,0.056,0.042,0.084c0,0.027,0,0.056,0,0.082
	c0,0.03,0,0.057,0,0.084l-0.042,0.041c-0.027,0.028-0.042,0.057-0.042,0.084h-0.041c0,0.027,0,0.055,0,0.082l-0.042,0.043
	c-0.028,0.027-0.042,0.056-0.042,0.082H45.1c-0.026,0.028-0.054,0.043-0.083,0.043c-0.112,0-0.209,0-0.292,0
	c-0.056-0.028-0.097-0.043-0.124-0.043c-0.029-0.027-0.043-0.056-0.043-0.082h-0.04c-0.058-0.028-0.112-0.043-0.168-0.043
	c-0.057-0.027-0.112-0.055-0.167-0.082c-0.028-0.028-0.042-0.057-0.042-0.084h-0.042c-0.056-0.028-0.097-0.041-0.125-0.041
	c-0.056-0.028-0.098-0.055-0.126-0.084c-0.027-0.027-0.056-0.055-0.083-0.082c-0.058-0.029-0.098-0.043-0.127-0.043
	c-0.027-0.026-0.055-0.055-0.082-0.082c-0.028-0.028-0.056-0.058-0.085-0.084c-0.027-0.028-0.056-0.056-0.083-0.084
	c-0.028-0.027-0.056-0.056-0.083-0.082c-0.027-0.029-0.056-0.058-0.084-0.084c-0.028-0.027-0.055-0.056-0.083-0.084
	c-0.028-0.026-0.042-0.056-0.042-0.082c-0.028,0-0.042-0.016-0.042-0.043c-0.027-0.027-0.041-0.056-0.041-0.082
	c-0.03-0.029-0.057-0.057-0.085-0.084c0-0.027,0-0.056,0-0.082c0-0.028,0-0.058,0-0.086c-0.028-0.026-0.042-0.056-0.042-0.082
	c0-0.028,0-0.057,0-0.084c-0.027-0.028-0.041-0.056-0.041-0.084v-0.041c0-0.028,0-0.057,0-0.084s-0.014-0.055-0.042-0.082
	c0-0.028-0.015-0.057-0.042-0.086c-0.028-0.027-0.042-0.055-0.042-0.082s0-0.057,0-0.083c0-0.028,0-0.057,0-0.084s0-0.056,0-0.083
	v-0.042c-0.029-0.028-0.042-0.057-0.042-0.084s-0.014-0.056-0.042-0.083c0-0.028,0-0.057,0-0.084s0-0.056,0-0.083s0-0.056,0-0.083
	s0-0.055,0-0.083v-0.041c-0.056,0-0.111,0-0.167,0c-0.028,0.026-0.056,0.041-0.085,0.041c-0.056,0.028-0.109,0.055-0.165,0.083
	c-0.055,0.028-0.112,0.042-0.167,0.042c-0.029,0.029-0.056,0.055-0.083,0.084C41.944,15.966,41.915,15.994,41.887,16.021z
	 M44.54,18.047l-0.02,0.021l0.04,0.041v-0.041L44.54,18.047z M23.052,14.895h0.021c0.076-0.003,0.153-0.017,0.231-0.041
	c0.055,0,0.109-0.017,0.165-0.043c0.029,0,0.057-0.013,0.084-0.041c0.056,0,0.111-0.015,0.167-0.042
	c0.139-0.028,0.265-0.057,0.375-0.084c0.111-0.028,0.209-0.069,0.292-0.126c0.056-0.027,0.112-0.055,0.167-0.082
	c0.055,0,0.111-0.015,0.167-0.042c0.112-0.028,0.209-0.056,0.294-0.083c0.025-0.014,0.045-0.027,0.061-0.042
	c0.027-0.027,0.048-0.054,0.063-0.083c0.056-0.029,0.111-0.07,0.167-0.127c0.056-0.028,0.112-0.055,0.167-0.083
	c-7.517,0-15.02,0-22.508,0c0,0.028-0.015,0.055-0.044,0.083v0.022c-0.012,0-0.027,0.006-0.04,0.021H2.84
	c-0.028,0-0.056,0.014-0.083,0.042l-0.083,0.084v0.041c-0.028,0-0.042,0.015-0.042,0.042v0.042c-0.028,0-0.041,0.014-0.041,0.042
	v0.669c0,0.028,0.013,0.04,0.041,0.04v3.048c-0.028,0-0.041,0.017-0.041,0.041v0.587c-0.028,0-0.042,0.014-0.042,0.042v1.377
	c0,0.027,0.015,0.043,0.042,0.043v0.083h0.041v0.124c0,0.027,0.015,0.041,0.042,0.041v0.084h0.041v0.042l0.042,0.042V20.7H2.8
	c0.026,0.026,0.055,0.041,0.083,0.041c0.028,0,0.04,0.015,0.04,0.042c0.029,0,0.057,0,0.085,0H3.09v0.041
	c0,0.056-0.013,0.099-0.041,0.127c0,0.031-0.007,0.059-0.021,0.083c0.022,0,0.043,0,0.063,0c0.028,0.026,0.042,0.057,0.042,0.084
	l0.043,0.041v0.042c0,0.027-0.014,0.055-0.043,0.083c0,0.026-0.014,0.056-0.042,0.083c-0.028,0-0.07,0.014-0.124,0.042
	c-0.049,0-0.092,0-0.126,0c-0.016,0.016-0.03,0.03-0.041,0.041c0,0.024,0,0.047,0,0.063c0.037-0.002,0.08-0.01,0.123-0.021
	c0.029,0,0.057-0.014,0.085-0.042c0.055,0,0.111-0.015,0.168-0.041c0.082,0,0.166-0.015,0.25-0.042c0.055,0,0.11-0.014,0.167-0.042
	c0.027,0,0.056-0.015,0.083-0.041c0.056,0,0.111-0.017,0.167-0.042c0.084-0.03,0.167-0.057,0.25-0.084
	c0.084-0.027,0.167-0.069,0.251-0.125c0.056-0.028,0.111-0.055,0.167-0.083c0.056,0,0.111-0.015,0.167-0.042
	c0.083,0,0.167-0.014,0.251-0.043c0.055,0,0.11-0.016,0.166-0.042c0.028,0,0.057-0.013,0.083-0.041c0.056,0,0.112-0.013,0.168-0.042
	c0.083-0.028,0.166-0.055,0.25-0.083c0.112-0.03,0.223-0.07,0.334-0.125c0.083-0.029,0.168-0.058,0.252-0.084
	c0.054,0,0.11-0.015,0.165-0.042c0.083-0.027,0.168-0.055,0.25-0.082c0.084-0.03,0.167-0.057,0.252-0.083
	c0.082-0.028,0.165-0.058,0.25-0.084c0.084-0.028,0.167-0.058,0.251-0.084c0.083-0.028,0.165-0.056,0.25-0.083
	c0.083-0.029,0.167-0.057,0.25-0.084c0.083-0.026,0.166-0.055,0.25-0.082c0.083-0.029,0.166-0.057,0.25-0.084
	c0.083-0.029,0.167-0.057,0.25-0.083c0.084-0.028,0.168-0.058,0.25-0.084c0.084,0,0.167-0.013,0.251-0.042
	c0.111,0,0.223-0.016,0.333-0.042c0.029,0,0.057-0.015,0.084-0.041c0.056,0,0.111-0.015,0.167-0.042
	c0.083,0,0.168-0.014,0.252-0.041c0.081-0.028,0.165-0.057,0.248-0.084c0.084-0.028,0.168-0.069,0.25-0.125
	c0.087-0.029,0.168-0.057,0.252-0.084c0.083-0.028,0.167-0.057,0.25-0.083c0.084-0.028,0.169-0.069,0.25-0.125
	c0.057-0.027,0.111-0.056,0.167-0.083c0.084-0.028,0.154-0.057,0.21-0.083c0.083-0.028,0.154-0.07,0.209-0.126
	c0.055-0.028,0.111-0.057,0.165-0.082c0.028,0,0.056-0.016,0.084-0.043c0.055,0,0.112-0.016,0.167-0.042
	c0.084,0,0.168-0.013,0.25-0.041c0.196-0.029,0.391-0.058,0.585-0.083c0.084-0.028,0.167-0.071,0.251-0.127
	c0.083-0.029,0.167-0.057,0.249-0.084c0.084-0.026,0.169-0.055,0.251-0.082c0.084-0.029,0.168-0.059,0.252-0.086
	c0.083,0,0.165-0.012,0.248-0.039c0.058,0,0.112-0.016,0.169-0.043c0.028,0,0.054-0.012,0.083-0.04c0.056,0,0.112-0.015,0.167-0.042
	c0.083-0.028,0.168-0.055,0.25-0.083c0.083-0.028,0.166-0.056,0.25-0.083c0.083-0.029,0.166-0.057,0.251-0.083
	c0.082-0.028,0.167-0.056,0.25-0.083c0.083,0,0.167-0.014,0.25-0.042c0.084-0.028,0.167-0.056,0.25-0.084
	c0.083-0.026,0.168-0.068,0.252-0.125c0.082-0.027,0.166-0.056,0.25-0.083c0.082,0,0.165-0.016,0.25-0.041
	c0.138-0.028,0.263-0.057,0.375-0.086c0.111-0.026,0.209-0.067,0.293-0.125c0.082-0.027,0.166-0.057,0.25-0.082
	c0.083-0.028,0.167-0.057,0.25-0.083c0.084-0.029,0.168-0.058,0.25-0.085c0.084-0.027,0.168-0.057,0.252-0.083
	c0.082-0.029,0.166-0.056,0.25-0.086c0.083-0.027,0.168-0.055,0.25-0.082c0.056-0.028,0.111-0.069,0.167-0.125
	c0.056-0.028,0.111-0.069,0.167-0.125c0.029-0.016,0.057-0.028,0.083-0.042c0.029-0.015,0.058-0.028,0.083-0.042
	c0.026,0,0.055-0.013,0.083-0.041c0.057,0,0.112-0.015,0.168-0.042c0.023,0,0.042,0,0.063,0c0.063-0.007,0.125-0.021,0.187-0.042
	c0.112,0,0.225-0.014,0.335-0.042c0.027,0,0.056-0.014,0.083-0.041c0.057,0,0.111-0.014,0.166-0.042
	c0.084-0.029,0.168-0.056,0.252-0.083c0.11-0.03,0.222-0.07,0.333-0.126c0.112-0.028,0.224-0.069,0.333-0.125
	c0.057-0.027,0.113-0.055,0.168-0.083l0.063-0.021l0.021-0.022c0.02,0,0.041,0,0.064,0l0.855-0.292
	C22.887,14.951,22.97,14.923,23.052,14.895z"/>
</svg>
