<?xml version="1.0" encoding="utf-8"?>
<!-- Generator: Adobe Illustrator 16.0.0, SVG Export Plug-In . SVG Version: 6.00 Build 0)  -->
<!DOCTYPE svg PUBLIC "-//W3C//DTD SVG 1.1//EN" "http://www.w3.org/Graphics/SVG/1.1/DTD/svg11.dtd">
<svg version="1.1" id="图层_1" xmlns="http://www.w3.org/2000/svg" xmlns:xlink="http://www.w3.org/1999/xlink" x="0px" y="0px"
	 width="100.5px" height="32px" viewBox="0 0 100.5 32" enable-background="new 0 0 100.5 32" xml:space="preserve">
<rect x="0" fill="none" width="100.5" height="32"/>
<g>
	<g>
		<g>
			<g>
				<g>
					
						<linearGradient id="SVGID_1_" gradientUnits="userSpaceOnUse" x1="-851.2383" y1="28.8369" x2="-850.1641" y2="27.8988" gradientTransform="matrix(100.022 0 0 20.195 85128.6953 -555.9268)">
						<stop  offset="0.2808" style="stop-color:#000000"/>
						<stop  offset="0.5468" style="stop-color:#FFD400"/>
						<stop  offset="0.8177" style="stop-color:#FF0000"/>
					</linearGradient>
					<path fill="url(#SVGID_1_)" d="M99.289,15.815c-0.727,0.562-1.461,1.105-2.205,1.629c-0.082,0.06-0.17,0.121-0.273,0.181
						c-2.732,1.792-5.18,2.958-7.334,3.501c-2.637,0.686-5.291,1.068-7.969,1.148c-2.777,0.101-5.461-0.123-8.057-0.666
						c-1.025-0.222-2.104-0.476-3.232-0.754c-1.285-0.322-2.063-0.502-2.322-0.543c-1.488-0.345-3.25-0.563-5.283-0.664
						c-2.07-0.119-5.061-0.129-8.963-0.029l-5.223,0.147l-0.33,0.729l-3.141-0.063c-0.039-0.099-0.121-0.222-0.239-0.362
						c-0.242-0.263-0.553-0.494-0.937-0.693c-0.383-0.182-0.793-0.323-1.238-0.423L42,18.862l-0.18,2.597l-0.727,0.692
						c-0.543,0.545-0.937,1.039-1.175,1.479c-0.243,0.424-0.483,1.049-0.727,1.872c-0.141,0.4-0.249,0.755-0.331,1.059h-1.69
						c0-0.244,0.022-0.522,0.062-0.847c0.079-0.667,0.211-1.229,0.39-1.69c0.204-0.461,0.424-0.916,0.664-1.357l0.335-0.543
						c-0.141-0.264-0.323-0.553-0.546-0.874c-0.422-0.625-0.804-1.077-1.147-1.359c-0.362-0.261-0.713-0.614-1.053-1.055
						l-0.396-0.575c-0.361-0.201-0.783-0.383-1.266-0.543c-1.007-0.283-1.892-0.271-2.657,0.031
						c-0.16,0.061-0.975,0.439-2.443,1.145c-0.967,0.465-1.923,0.799-2.869,0.998c-1.064,0.241-2.583,0.274-4.559,0.09
						c-1.648-0.162-3.329-0.422-5.039-0.785c-1.792-0.439-3.047-0.733-3.774-0.875c-1.185-0.26-2.153-0.409-2.895-0.452
						c-0.725-0.021-1.53,0.021-2.416,0.122c-0.442,0.037-0.816,0.092-1.115,0.15l-1.121,0.907l-0.239,1.085
						c-0.182,0.745-0.361,1.166-0.543,1.268c-0.26,0.182-0.622,0.402-1.085,0.664l-0.783-0.062
						c-0.183-0.101-0.383-0.251-0.604-0.455c-0.421-0.38-0.727-0.804-0.905-1.267c-0.203-0.463-0.271-1.196-0.213-2.202l0.153-1.39
						l-0.878-0.574v-1.388l0.667-0.332c0-0.344,0.017-0.725,0.058-1.148c0.081-0.844,0.213-1.438,0.391-1.781
						c0.223-0.402,0.465-0.672,0.727-0.814c0.201-0.121,0.531-0.221,0.996-0.302c0.321-0.06,0.575,0.011,0.754,0.213
						c0.082,0.099,0.131,0.198,0.149,0.302c1.893-0.121,3.995-0.244,6.311-0.365c4.668-0.26,8.119-0.373,10.351-0.33
						c1.993,0.02,4.929,0.168,8.813,0.451c3.562,0.284,5.554,0.412,5.975,0.395c0.664-0.041,1.259-0.143,1.783-0.303
						c0.302-0.08,0.704-0.223,1.208-0.422c0.342-0.102,0.594-0.092,0.754,0.031c0.099,0.059,0.162,0.139,0.182,0.241
						c0.201-0.183,0.442-0.403,0.723-0.667c0.522-0.503,0.905-0.956,1.147-1.355c0.261-0.427,0.472-0.906,0.634-1.449l0.151-0.727
						h1.449v0.756c-0.061,0.584-0.172,1.096-0.334,1.537c-0.162,0.445-0.4,0.887-0.723,1.331c-0.162,0.239-0.311,0.435-0.454,0.575
						l8.511,0.119l-0.542-0.846l1.994,0.846l1.416,0.063L52.652,9.78l2.236,0.966h1.389L55.611,9.78l2.234,1.024h1.299L58.48,9.959
						l2.172,0.907l1.359,0.089l-0.574-0.996l2.084,0.996l1.445,0.061l-0.604-0.998l2.084,0.998l1.508,0.061l-0.723-0.968
						l1.898,0.968l1.572-0.121l-0.516-0.785l2.082,0.906l1.115,0.03c1.008,0,2.113-0.052,3.322-0.151
						c1.971-0.183,3.83-0.382,5.582-0.604l0.604,0.453c0.504,0.34,1.035,0.672,1.604,0.996c1.791,1.045,3.486,1.761,5.1,2.144
						c1.607,0.384,3.871,0.685,6.791,0.903c0.242,0.023,0.473,0.041,0.693,0.062c1.166,0.08,2.223,0.132,3.168,0.153L99.289,15.815z
						"/>
				</g>
			</g>
		</g>
	</g>
</g>
<linearGradient id="SVGID_2_" gradientUnits="userSpaceOnUse" x1="14.5625" y1="26.7373" x2="39.0001" y2="12.6593">
	<stop  offset="0.3505" style="stop-color:#FFE3A0"/>
	<stop  offset="1" style="stop-color:#00FFFF"/>
</linearGradient>
<path fill="url(#SVGID_2_)" d="M29.444,10.658c-2.025-0.148-3.786-0.258-5.296-0.334c5.966,2.037,12.138,5.703,16.62,12.205
	c0.025-0.027,0.053-0.057,0.079-0.084c-0.5-1.344-2.392-6.113-5.908-11.402C34.089,11.01,32.269,10.885,29.444,10.658z"/>
<linearGradient id="SVGID_3_" gradientUnits="userSpaceOnUse" x1="38.9092" y1="21.2148" x2="60.5712" y2="8.7358">
	<stop  offset="0.1781" style="stop-color:#FFE3A0"/>
	<stop  offset="1" style="stop-color:#00FFFF"/>
</linearGradient>
<path fill="url(#SVGID_3_)" d="M55.611,9.818l0.666,0.965h-1.389l-2.236-0.965l0.666,0.965l-1.416-0.063l-1.994-0.846l0.542,0.846
	l-8.511-0.119c0.143-0.141,0.292-0.336,0.454-0.574c0.323-0.445,0.561-0.887,0.723-1.332c0.162-0.441,0.273-0.953,0.334-1.537V6.402
	h-1.449l-0.151,0.727c-0.162,0.543-0.373,1.023-0.634,1.449c-0.242,0.4-0.625,0.854-1.147,1.355
	c-0.281,0.264-0.522,0.484-0.723,0.668c-0.02-0.104-0.083-0.184-0.182-0.242c-0.16-0.123-0.412-0.133-0.754-0.031
	c-0.376,0.148-0.676,0.254-0.939,0.338c6.001-0.221,18.435,0.488,26.71,9.018c0,0-2.135-4.316-6.027-8.842h-0.309L55.611,9.818z"/>
<g>
	<g>
		<g>
			<g>
				<g>
					<g>
						<linearGradient id="SVGID_4_" gradientUnits="userSpaceOnUse" x1="98.2705" y1="5.2661" x2="1.9634" y2="24.7111">
							<stop  offset="0" style="stop-color:#BB925B"/>
							<stop  offset="0.3429" style="stop-color:#FFF6DA"/>
							<stop  offset="0.6571" style="stop-color:#FFF1B1"/>
							<stop  offset="1" style="stop-color:#B38B54"/>
						</linearGradient>
						<path fill="url(#SVGID_4_)" d="M40.948,10.436c-0.021,0.166-0.001,0.339,0.063,0.501c0.15,0.375,0.511,0.622,0.914,0.628
							l8.511,0.119c0.005,0,0.009,0,0.014,0c0.247,0,0.481-0.091,0.661-0.249l0.4,0.17c0.11,0.046,0.229,0.073,0.348,0.078
							l1.416,0.063c0.014,0.001,0.029,0.001,0.043,0.001c0.266,0,0.516-0.105,0.701-0.286l0.474,0.204
							c0.125,0.054,0.26,0.082,0.396,0.082h1.389c0.25,0,0.486-0.094,0.667-0.255l0.485,0.223c0.131,0.06,0.273,0.091,0.416,0.091
							h1.299c0.233,0,0.453-0.081,0.629-0.222l0.494,0.207c0.102,0.042,0.211,0.068,0.32,0.075l1.359,0.088
							c0.021,0.001,0.043,0.002,0.064,0.002c0.262,0,0.511-0.103,0.695-0.281l0.384,0.184c0.122,0.059,0.255,0.091,0.39,0.097
							l1.445,0.061c0.014,0.001,0.027,0.001,0.041,0.001c0.258,0,0.502-0.1,0.686-0.271l0.363,0.174
							c0.123,0.059,0.256,0.092,0.393,0.097l1.508,0.061c0.013,0.001,0.026,0.001,0.039,0.001c0.211,0,0.411-0.065,0.577-0.183
							l0.146,0.073c0.141,0.072,0.297,0.109,0.453,0.109c0.025,0,0.052-0.001,0.077-0.003l1.571-0.121
							c0.196-0.016,0.38-0.087,0.531-0.203l0.561,0.244c0.117,0.051,0.243,0.079,0.371,0.083l1.143,0.031
							c1.02,0,2.133-0.051,3.414-0.156c1.893-0.175,3.604-0.357,5.213-0.557l0.281,0.21c0.014,0.01,0.027,0.02,0.041,0.029
							c0.539,0.363,1.098,0.711,1.658,1.03c1.875,1.095,3.684,1.854,5.373,2.254c1.65,0.394,3.988,0.705,6.926,0.925l0.367,0.033
							l0.354,0.032c0.152,0.01,0.303,0.021,0.453,0.029c-0.324,0.238-0.65,0.473-0.98,0.705c-0.053,0.04-0.113,0.081-0.221,0.146
							c-2.623,1.719-4.988,2.852-7.039,3.368c-2.553,0.663-5.158,1.039-7.752,1.117c-0.422,0.015-0.84,0.022-1.258,0.022
							c-2.23,0-4.439-0.225-6.555-0.667c-0.942-0.203-1.99-0.447-3.197-0.746c-1.239-0.311-2.036-0.497-2.371-0.555
							c-1.52-0.348-3.345-0.577-5.42-0.681c-1.143-0.066-2.575-0.1-4.259-0.1c-1.4,0-3.011,0.023-4.79,0.068l-5.224,0.148
							c-0.382,0.012-0.725,0.239-0.883,0.588l-0.058,0.128l-1.963-0.039c-0.014-0.018-0.029-0.035-0.043-0.053
							c-0.323-0.35-0.731-0.653-1.243-0.918c-0.45-0.214-0.938-0.38-1.448-0.494c-0.018-0.004-0.035-0.008-0.052-0.011l-0.543-0.092
							c-0.055-0.009-0.111-0.014-0.167-0.014c-0.223,0-0.441,0.074-0.619,0.214c-0.222,0.175-0.359,0.436-0.379,0.717l-0.153,2.21
							l-0.465,0.442c-0.303,0.305-0.563,0.593-0.781,0.868c0.043-0.222,0.01-0.456-0.1-0.661c-0.156-0.291-0.354-0.609-0.599-0.961
							c-0.482-0.714-0.921-1.229-1.342-1.573c-0.016-0.013-0.031-0.025-0.048-0.037c-0.274-0.198-0.554-0.479-0.831-0.834
							l-0.379-0.553c-0.087-0.127-0.203-0.232-0.337-0.307c-0.416-0.232-0.9-0.44-1.482-0.633c-0.57-0.16-1.123-0.241-1.641-0.241
							c-0.585,0-1.142,0.103-1.64,0.3c-0.267,0.101-1.519,0.696-2.523,1.179c-0.895,0.431-1.784,0.74-2.658,0.925
							c-0.535,0.121-1.225,0.184-2.05,0.184c-0.647,0-1.385-0.039-2.189-0.114c-1.624-0.16-3.282-0.418-4.899-0.762
							c-1.889-0.463-3.103-0.744-3.798-0.88c-1.217-0.268-2.244-0.426-3.079-0.475c-0.135-0.004-0.272-0.006-0.412-0.006
							c-0.655,0-1.377,0.045-2.118,0.131c-0.439,0.036-0.852,0.092-1.224,0.165c-0.161,0.031-0.311,0.102-0.438,0.204l-1.121,0.908
							c-0.176,0.143-0.298,0.341-0.347,0.562l-0.234,1.063c-0.107,0.438-0.188,0.652-0.23,0.744
							c-0.169,0.113-0.389,0.249-0.656,0.404l-0.225-0.018c-0.07-0.052-0.157-0.123-0.262-0.219
							c-0.308-0.278-0.523-0.576-0.66-0.928c-0.075-0.173-0.192-0.624-0.131-1.717l0.15-1.364c0.041-0.375-0.132-0.741-0.448-0.947
							l-0.424-0.276v-0.228l0.113-0.056c0.339-0.169,0.554-0.516,0.554-0.896c0-0.332,0.018-0.686,0.054-1.053
							c0.095-0.991,0.241-1.336,0.27-1.392c0.186-0.336,0.317-0.414,0.368-0.443c0.005-0.003,0.117-0.067,0.516-0.146
							c0.175,0.304,0.502,0.502,0.867,0.502c0.021,0,0.043-0.001,0.065-0.002c1.999-0.128,4.118-0.251,6.303-0.365
							c4.081-0.227,7.123-0.337,9.301-0.337c0.348,0,0.673,0.003,0.985,0.009c1.992,0.02,4.936,0.17,8.743,0.448
							c2.275,0.182,5.157,0.399,5.961,0.399c0.053,0,0.099-0.001,0.155-0.004c0.738-0.046,1.415-0.161,1.978-0.334
							c0.303-0.081,0.681-0.21,1.183-0.405c0.108,0.107,0.241,0.19,0.391,0.239c0.103,0.034,0.209,0.051,0.314,0.051
							c0.246,0,0.488-0.091,0.675-0.262c0.204-0.187,0.448-0.41,0.741-0.686C40.826,10.556,40.888,10.495,40.948,10.436
							 M43.451,6.365h-1.449l-0.151,0.727c-0.162,0.543-0.373,1.023-0.634,1.449c-0.242,0.4-0.625,0.854-1.147,1.355
							c-0.281,0.264-0.522,0.484-0.723,0.668c-0.02-0.104-0.083-0.184-0.182-0.242c-0.087-0.067-0.202-0.101-0.344-0.101
							c-0.118,0-0.255,0.023-0.41,0.069c-0.504,0.199-0.906,0.342-1.208,0.422c-0.524,0.16-1.119,0.262-1.783,0.303
							c-0.025,0.001-0.057,0.002-0.094,0.002c-0.575,0-2.536-0.129-5.881-0.396c-3.884-0.283-6.82-0.432-8.813-0.451
							c-0.308-0.006-0.64-0.009-0.995-0.009c-2.213,0-5.333,0.115-9.356,0.339c-2.316,0.121-4.418,0.244-6.311,0.365
							c-0.018-0.104-0.067-0.203-0.149-0.301c-0.137-0.156-0.319-0.233-0.542-0.233c-0.067,0-0.138,0.007-0.212,0.021
							c-0.465,0.08-0.795,0.18-0.996,0.301c-0.262,0.143-0.504,0.412-0.727,0.814c-0.178,0.344-0.31,0.938-0.391,1.781
							c-0.041,0.424-0.058,0.805-0.058,1.148l-0.667,0.332v1.389l0.878,0.572L0.953,18.08c-0.058,1.006,0.01,1.738,0.213,2.201
							c0.178,0.463,0.484,0.887,0.905,1.268c0.221,0.203,0.421,0.354,0.604,0.455l0.783,0.061c0.463-0.262,0.825-0.482,1.085-0.664
							c0.182-0.102,0.361-0.521,0.543-1.268l0.239-1.084l1.121-0.908c0.299-0.059,0.673-0.113,1.115-0.15
							c0.733-0.084,1.411-0.127,2.034-0.127c0.129,0,0.257,0.002,0.382,0.006c0.742,0.043,1.71,0.191,2.895,0.451
							c0.727,0.143,1.982,0.436,3.774,0.875c1.71,0.363,3.391,0.623,5.039,0.785c0.846,0.079,1.608,0.119,2.287,0.119
							c0.906,0,1.664-0.07,2.272-0.209c0.946-0.199,1.902-0.533,2.869-0.998c1.468-0.705,2.283-1.084,2.443-1.145
							c0.396-0.157,0.825-0.235,1.286-0.235c0.429,0,0.886,0.067,1.371,0.204c0.483,0.16,0.905,0.342,1.266,0.543l0.396,0.576
							c0.34,0.439,0.691,0.793,1.053,1.055c0.343,0.281,0.725,0.734,1.147,1.359c0.223,0.32,0.405,0.609,0.546,0.873l-0.335,0.543
							c-0.24,0.441-0.46,0.896-0.664,1.357c-0.179,0.461-0.311,1.023-0.39,1.691c-0.04,0.324-0.062,0.602-0.062,0.846h1.69
							c0.082-0.303,0.19-0.658,0.331-1.059c0.244-0.822,0.484-1.447,0.727-1.871c0.238-0.441,0.632-0.936,1.175-1.48l0.727-0.691
							L42,18.861l0.543,0.092c0.445,0.1,0.855,0.24,1.238,0.422c0.384,0.199,0.695,0.432,0.937,0.693
							c0.118,0.141,0.2,0.264,0.239,0.363l3.141,0.063l0.33-0.729l5.223-0.148c1.777-0.045,3.365-0.068,4.763-0.068
							c1.672,0,3.073,0.033,4.2,0.098c2.033,0.102,3.795,0.32,5.283,0.664c0.26,0.041,1.037,0.221,2.322,0.543
							c1.129,0.279,2.207,0.533,3.232,0.754c2.189,0.458,4.445,0.689,6.764,0.689c0.43,0,0.859-0.008,1.293-0.023
							c2.678-0.08,5.332-0.463,7.969-1.148c2.154-0.543,4.602-1.709,7.334-3.5c0.104-0.061,0.191-0.121,0.273-0.182
							c0.744-0.523,1.479-1.066,2.205-1.627l0.959-0.754c-0.945-0.021-2.002-0.072-3.168-0.152
							c-0.221-0.021-0.451-0.039-0.693-0.063c-2.92-0.219-5.184-0.52-6.791-0.902c-1.613-0.383-3.309-1.1-5.1-2.145
							c-0.568-0.324-1.1-0.656-1.604-0.996l-0.604-0.453c-1.752,0.223-3.611,0.422-5.582,0.604c-1.209,0.1-2.314,0.152-3.322,0.152
							l-1.115-0.031l-2.082-0.906l0.516,0.785l-1.572,0.121l-1.898-0.967l0.723,0.967l-1.508-0.061l-2.084-0.998l0.604,0.998
							l-1.445-0.061l-2.084-0.996l0.574,0.996l-1.359-0.088L58.48,9.959l0.664,0.846h-1.299l-2.234-1.023l0.666,0.965h-1.389
							l-2.236-0.965l0.666,0.965l-1.416-0.063l-1.994-0.846l0.542,0.846l-8.511-0.119c0.143-0.141,0.292-0.336,0.454-0.574
							c0.323-0.445,0.561-0.887,0.723-1.332c0.162-0.441,0.273-0.953,0.334-1.537V6.365L43.451,6.365z"/>
					</g>
				</g>
			</g>
		</g>
	</g>
</g>
<rect fill="none" width="100.5" height="32"/>
<g>
	<g>
		<path fill="#7A4621" d="M62.083,26.807l5.631,4.694l12.388,0.376c4.256-0.501,7.758-1.627,10.512-3.379
			c3.629-5.028,6.785-7.542,9.471-7.542c-1.822-0.728-3.909-0.429-6.259,0.894c-2.351,1.324-4.734-0.018-7.152-4.022
			c-2.253-1.501-6.668-0.412-10.282,1.342l3.713-5.812l-10.865,3.577L62.083,26.807z"/>
	</g>
</g>
<linearGradient id="SVGID_5_" gradientUnits="userSpaceOnUse" x1="-834.4072" y1="44.0947" x2="-833.408" y2="45.0955" gradientTransform="matrix(30.7822 0 0 12.7634 25751.1816 -545.8325)">
	<stop  offset="0.6071" style="stop-color:#FFF6DA"/>
	<stop  offset="1" style="stop-color:#D6BB7E"/>
</linearGradient>
<path fill="url(#SVGID_5_)" d="M74.426,16.485h-3.188l-6.152,12.764h2.861l0.945-2.165h2.562l-0.167,2.165h2.734L74.426,16.485z
	 M72.115,19.699l-0.467,5.42h-1.928L72.115,19.699z M86.391,18.516c0-1.326-1.24-2.03-3.57-2.03c-2.889,0-4.211,0.921-4.899,3.29
	l-1.728,5.949c-0.215,0.697-0.258,1.043-0.258,1.365c0,1.402,1.303,2.159,3.717,2.159c1.33,0,2.373-0.229,3.104-0.698
	c0.786-0.521,1.28-1.326,1.663-2.728l0.41-1.448h-2.734l-0.453,1.57c-0.319,1.145-0.723,1.484-1.689,1.484
	c-0.745,0-1.155-0.271-1.155-0.769c0-0.152,0.05-0.41,0.132-0.733l1.838-6.322c0.278-0.938,0.73-1.313,1.629-1.313
	c0.744,0,1.147,0.271,1.147,0.751c0,0.205-0.063,0.463-0.188,0.956l-0.342,1.231h2.735l0.425-1.49
	C86.326,19.23,86.391,18.838,86.391,18.516z M95.869,16.485h-7.314l-3.479,12.764h7.522l0.535-1.96h-4.746l1.064-3.994h4.281
	l0.535-1.93h-4.279l0.813-2.95h4.53L95.869,16.485z"/>
</svg>
