<?xml version="1.0" encoding="utf-8"?>
<!-- Generator: Adobe Illustrator 16.0.0, SVG Export Plug-In . SVG Version: 6.00 Build 0)  -->
<!DOCTYPE svg PUBLIC "-//W3C//DTD SVG 1.1//EN" "http://www.w3.org/Graphics/SVG/1.1/DTD/svg11.dtd">
<svg version="1.1" id="图层_1" xmlns="http://www.w3.org/2000/svg" xmlns:xlink="http://www.w3.org/1999/xlink" x="0px" y="0px"
	 width="100.25px" height="32px" viewBox="0 0 100.25 32" enable-background="new 0 0 100.25 32" xml:space="preserve">
<linearGradient id="SVGID_1_" gradientUnits="userSpaceOnUse" x1="-35.0547" y1="33.207" x2="-35.1127" y2="33.265" gradientTransform="matrix(1 0 0 -1 59.04 15.3398)">
	<stop  offset="0" style="stop-color:#BB925B"/>
	<stop  offset="0.3429" style="stop-color:#FFF6DA"/>
	<stop  offset="0.6571" style="stop-color:#FFF1B1"/>
	<stop  offset="1" style="stop-color:#B38B54"/>
</linearGradient>
<path fill="url(#SVGID_1_)" d="M23.917-17.896c0.032,0,0.061,0.002,0.086,0.008C23.974-17.894,23.945-17.896,23.917-17.896z"/>
<linearGradient id="SVGID_2_" gradientUnits="userSpaceOnUse" x1="-34.9727" y1="32.2168" x2="-35.0742" y2="32.3184" gradientTransform="matrix(1 0 0 -1 59.04 15.3398)">
	<stop  offset="0" style="stop-color:#BB925B"/>
	<stop  offset="0.3429" style="stop-color:#FFF6DA"/>
	<stop  offset="0.6571" style="stop-color:#FFF1B1"/>
	<stop  offset="1" style="stop-color:#B38B54"/>
</linearGradient>
<path fill="url(#SVGID_2_)" d="M23.917-16.896c0.075,0,0.148-0.018,0.216-0.049C24.076-16.911,24.004-16.896,23.917-16.896z"/>
<linearGradient id="SVGID_3_" gradientUnits="userSpaceOnUse" x1="-855.8335" y1="21.4473" x2="-855.8377" y2="21.4515" gradientTransform="matrix(87.667 0 0 25.553 75053.2734 -557.8789)">
	<stop  offset="0" style="stop-color:#BB925B"/>
	<stop  offset="0.3429" style="stop-color:#FFF6DA"/>
	<stop  offset="0.6571" style="stop-color:#FFF1B1"/>
	<stop  offset="1" style="stop-color:#B38B54"/>
</linearGradient>
<path fill="url(#SVGID_3_)" d="M24.608-9.672c0-0.065,0.009-0.123,0.027-0.175c-0.005,0.021-0.01,0.041-0.015,0.063
	C24.613-9.747,24.608-9.71,24.608-9.672z"/>
<g>
	<rect fill="none" width="100.25" height="32"/>
	<g>
		<g>
			<g>
				
					<linearGradient id="SVGID_4_" gradientUnits="userSpaceOnUse" x1="-504.9136" y1="38.4883" x2="-505.9129" y2="39.4876" gradientTransform="matrix(100.013 0 0 20.961 50587.8203 -802.3193)">
					<stop  offset="0.2512" style="stop-color:#FF0000"/>
					<stop  offset="0.5665" style="stop-color:#FFD400"/>
					<stop  offset="0.8571" style="stop-color:#000000"/>
				</linearGradient>
				<path fill="url(#SVGID_4_)" d="M100.175,9.43c0-0.04-0.01-0.08-0.03-0.1c-0.02-0.03-0.029-0.04-0.039-0.06V8.65h-0.07
					c0.01-0.04,0.02-0.06,0.04-0.08c0-0.02,0.01-0.06,0.03-0.11V8.39c0-0.02-0.011-0.05-0.03-0.07c0-0.05-0.021-0.07-0.04-0.07
					c-0.021-0.05-0.05-0.08-0.07-0.11c-0.07-0.02-0.13-0.05-0.18-0.07h-0.07v0.04h-0.04c-0.02-0.03-0.05-0.04-0.069-0.04
					c-0.051-0.02-0.11-0.03-0.181-0.03h-1.649V7.32c-0.021-0.05-0.03-0.1-0.03-0.15c-0.03-0.04-0.07-0.09-0.12-0.14
					c-0.78,0-1.57-0.01-2.36-0.03v0.1c-0.05,0.03-0.109,0.06-0.18,0.11v0.74c-0.17-0.01-0.34-0.02-0.5-0.02
					c-0.03-0.03-0.05-0.05-0.08-0.07c-0.3-0.01-0.59-0.02-0.89-0.04v0.14c0.02,0.03,0.05,0.05,0.069,0.08h-37.54l-0.029,0.03V8.04
					c-0.05-0.05-0.09-0.09-0.11-0.11h-0.07V7.86c0-0.03-0.02-0.06-0.04-0.11h-1.25c-0.029-0.05-0.05-0.09-0.079-0.11
					c0-0.05-0.011-0.08-0.03-0.11h-0.4V7.5h-0.89v0.03h-0.33V7.5h-0.43v0.03h-1.25V7.5h-0.431v0.03h-0.26V7.5h-0.43v0.03h-0.1V7.5
					h-0.47v0.03h-2.19l0.04-0.03V7.48h-0.43V7.5c0.02,0,0.04,0.01,0.07,0.03h-0.22V7.48c-2.17-0.01-4.35-0.01-6.53-0.02V7.1
					c0-0.02-0.01-0.03-0.03-0.03V7.03h-0.4V7h-0.29V6.64h-0.07c-0.17-0.01-0.35-0.02-0.54-0.04v0.04c-0.39-0.01-0.79-0.02-1.18-0.04
					v0.38c-0.12-0.01-0.24-0.02-0.36-0.02v0.5h-0.07V7.5h-0.11v0.03c0,0.03-0.01,0.04-0.03,0.04V7.6c-0.03,0-0.04,0.02-0.04,0.04
					c-0.03,0-0.04,0.01-0.04,0.04h-0.1v0.03c-0.03,0.03-0.05,0.04-0.08,0.04l-0.03,0.03c-0.03,0-0.05,0.02-0.07,0.04l-0.04,0.04
					h-0.11v0.03c-0.02,0.03-0.04,0.04-0.07,0.04v0.03c-0.02,0-0.06,0.02-0.1,0.04l-0.04,0.04h-0.04c-0.02,0.02-0.04,0.03-0.07,0.03
					c-0.02,0.02-0.04,0.04-0.07,0.04v0.03l-0.04,0.04c-0.02,0-0.06,0.01-0.1,0.03h-0.08v0.04c-0.04,0.02-0.09,0.04-0.14,0.04v0.03
					c-0.02,0-0.05,0.02-0.07,0.04c-0.05,0-0.08,0.01-0.11,0.04h-0.04c-0.02,0.02-0.04,0.03-0.07,0.03
					c-0.02,0.02-0.04,0.04-0.07,0.04V8.5c-0.05,0-0.09,0.02-0.14,0.04h-0.07v0.03c-0.03,0.03-0.05,0.04-0.08,0.04
					c-0.02,0.02-0.04,0.04-0.07,0.04v0.03c-0.05,0-0.09,0.01-0.14,0.04l-0.04,0.03h-0.14v0.04c-0.03,0.02-0.05,0.04-0.07,0.04v0.03
					c-0.03,0-0.06,0.01-0.11,0.04c-0.02,0-0.05,0.01-0.07,0.03h-0.11v0.04c0,0.02-0.01,0.03-0.04,0.03v0.04
					c-0.04,0-0.09,0.01-0.14,0.04c-0.02,0-0.05,0.01-0.07,0.03h-0.11v0.04c-0.04,0.02-0.08,0.04-0.11,0.04l-0.03,0.03
					c-0.02,0-0.05,0.01-0.07,0.04c-0.05,0-0.1,0.01-0.15,0.03h-0.07c-0.02,0.03-0.05,0.04-0.07,0.04c-0.02,0.02-0.05,0.03-0.07,0.03
					V9.4c-0.03,0-0.05,0.01-0.07,0.04c-0.05,0-0.1,0.01-0.15,0.03h-0.1v0.04c-0.03,0.02-0.05,0.03-0.08,0.03v0.04
					c-0.05,0-0.09,0.01-0.14,0.04c-0.03,0-0.05,0.01-0.07,0.03h-0.11v0.04c-0.02,0.02-0.05,0.03-0.07,0.03l-0.04,0.04
					c-0.02,0-0.05,0.01-0.07,0.03c-0.05,0-0.09,0.02-0.14,0.04h-0.07v0.04c-0.05,0.02-0.1,0.03-0.15,0.03v0.04
					c-0.05,0-0.1,0.01-0.14,0.03c-0.03,0-0.05,0.02-0.07,0.04h-0.15v0.04c-0.05,0.02-0.09,0.03-0.14,0.03v0.04
					c-0.03,0-0.05,0.01-0.07,0.03c-0.03,0-0.06,0.02-0.11,0.04h-0.07c-0.03,0.02-0.05,0.03-0.07,0.03
					c-0.03,0.03-0.05,0.04-0.08,0.04v0.05c-0.04,0-0.09,0.01-0.14,0.03c-0.02,0-0.05,0.02-0.07,0.04h-0.11v0.04
					c-0.02,0.02-0.05,0.03-0.07,0.03v0.04c-0.05,0-0.1,0.01-0.14,0.03h-0.04l-0.03,0.04h-0.15v0.03c-0.05,0.03-0.08,0.04-0.11,0.04
					v0.03c-0.02,0-0.04,0.02-0.07,0.04c-0.05,0-0.09,0.01-0.14,0.04h-0.04c-0.02,0.02-0.05,0.03-0.07,0.03
					c-0.02,0.02-0.05,0.04-0.07,0.04l-0.04,0.03c-0.04,0-0.09,0.02-0.14,0.04c-0.02,0-0.05,0.01-0.07,0.04h-0.14v0.03
					c-0.05,0.02-0.09,0.04-0.11,0.04l-0.04,0.03c-0.02,0-0.05,0.02-0.07,0.04c-0.05,0-0.08,0.01-0.11,0.03h-0.03
					c-0.03,0.03-0.05,0.04-0.08,0.04c-0.04,0.02-0.09,0.04-0.14,0.04l-0.03,0.03c-0.03,0-0.05,0.01-0.08,0.04
					c-0.02,0-0.04,0.01-0.07,0.03h-0.11c0,0.03-0.01,0.04-0.03,0.04c-0.03,0.02-0.06,0.03-0.11,0.03v0.04
					c-0.02,0-0.05,0.01-0.07,0.04c-0.03,0-0.06,0.01-0.11,0.03h-0.18v0.04c-0.05,0.02-0.08,0.03-0.11,0.03l-0.03,0.04
					c-0.03,0-0.06,0.01-0.11,0.03c-0.02,0-0.06,0.01-0.11,0.04h-0.18v0.04c-0.02,0.02-0.04,0.03-0.07,0.03v0.04
					c-0.04,0-0.08,0.01-0.11,0.03c-0.04,0-0.1,0.02-0.18,0.04h-0.07v0.03c-0.01,0.01-0.02,0.01-0.03,0.01
					c-0.03,0.02-0.07,0.03-0.11,0.03v0.04c-0.05,0-0.09,0.01-0.14,0.03c-0.05,0-0.09,0.01-0.11,0.04h-0.14
					c0,0.02-0.02,0.03-0.04,0.03c-0.02,0.03-0.06,0.04-0.11,0.04v0.03c-0.02,0-0.03,0.02-0.03,0.04h-0.11
					c-0.05,0-0.09,0.01-0.11,0.04h-0.14c0,0.02-0.02,0.03-0.04,0.03c-0.02,0.03-0.06,0.04-0.11,0.04v0.03
					c-0.05,0-0.09,0.02-0.14,0.04c-0.05,0-0.09,0.01-0.11,0.03h-0.14c-0.03,0.03-0.05,0.04-0.07,0.04c-0.05,0.02-0.1,0.04-0.15,0.04
					l-0.03,0.03c-0.03,0-0.05,0.01-0.08,0.04c-0.04,0-0.1,0.01-0.18,0.03h-0.39c-0.07-0.02-0.15-0.03-0.25-0.03
					c-0.07-0.03-0.15-0.04-0.22-0.04v-0.03c-0.02,0-0.04-0.02-0.07-0.04c-0.05-0.02-0.11-0.04-0.18-0.04
					c-0.02-0.02-0.06-0.03-0.1-0.03v-0.04l-0.04-0.03V12.2l-0.04-0.03v-0.18h-0.14v-0.04c-0.11,0.03-0.22,0.04-0.32,0.04h-0.22
					c-0.02,0-0.06,0.01-0.11,0.03h-0.25l-0.03,0.04h-0.15c-0.02,0.02-0.05,0.03-0.07,0.03h-0.11c-0.19,0.03-0.38,0.04-0.57,0.04
					h-0.29c-0.05,0.02-0.1,0.04-0.14,0.04h-0.33c-0.04,0-0.09,0.01-0.14,0.03h-0.29c-0.02,0-0.05,0.01-0.07,0.04h-0.21
					c-0.03,0.02-0.05,0.03-0.08,0.03h-0.14c-0.05,0.03-0.09,0.04-0.14,0.04h-0.29c-0.05,0.02-0.1,0.03-0.14,0.03h-0.36
					c-0.05,0-0.1,0.02-0.15,0.04h-0.32c-0.02,0-0.03,0.01-0.03,0.04h-0.22c0,0.02-0.01,0.03-0.03,0.03h-0.15
					c-0.19,0.03-0.39,0.04-0.61,0.04h-0.25c-0.05,0.02-0.08,0.03-0.11,0.03h-0.29c-0.04,0-0.08,0.02-0.1,0.04h-0.29
					c-0.12,0-0.25,0.01-0.4,0.03h-0.14l-0.03,0.04h-0.11c-0.18,0.01-0.36,0.02-0.54,0.02c-0.01,0.01-0.02,0.01-0.04,0.02h-0.14
					c-0.26-0.01-0.52-0.02-0.79-0.04v0.04h-0.5c0,0.02-0.02,0.03-0.04,0.03s-0.05,0.01-0.07,0.04c-0.14,0-0.29,0.01-0.43,0.03h-0.4
					c-0.02,0.03-0.05,0.04-0.07,0.04h-0.11c-0.02,0.02-0.04,0.03-0.07,0.03h-0.28c-0.03,0.03-0.05,0.04-0.08,0.04
					c-0.02,0-0.04,0.01-0.07,0.04c-0.14,0-0.27,0.01-0.39,0.03h-0.36c0,0.03-0.01,0.04-0.04,0.04h-0.46c0,0.02-0.01,0.03-0.04,0.03
					h-0.28v0.04c-0.03,0-0.04,0.01-0.04,0.03c-0.07,0-0.15,0.02-0.22,0.04h-0.46v0.42c-0.06,0-0.12,0.01-0.18,0.02
					c-0.03,0-0.06,0.01-0.11,0.03h-0.11c-0.62,0.03-1.24,0.04-1.86,0.04h-0.04l-0.07,0.07h-0.72l-0.07-0.07
					c-0.17,0-0.35-0.01-0.54-0.04c-0.13,0-0.27-0.01-0.41-0.02l-0.02-0.02c-0.01-0.01-0.04-0.03-0.07-0.07c-0.48,0-0.96,0-1.46-0.01
					l-0.01-0.02h-1.19c0,0.02-0.01,0.05-0.03,0.07c-0.14,0.02-0.29,0.05-0.43,0.07h-0.11c-0.02-0.05-0.05-0.08-0.07-0.11
					c-0.03,0-0.05-0.02-0.07-0.07c-0.08-0.02-0.13-0.05-0.18-0.07h-0.07c-0.03-0.02-0.07-0.04-0.11-0.04
					c-0.05-0.02-0.1-0.03-0.15-0.03h-0.35c-0.05,0.02-0.09,0.03-0.11,0.03c-0.05,0.05-0.12,0.09-0.22,0.11
					c-0.07,0.02-0.14,0.05-0.21,0.07h-0.15c-0.02,0.03-0.04,0.05-0.07,0.07c-0.05,0.03-0.11,0.05-0.18,0.08
					c0,0.02-0.02,0.03-0.07,0.03c-0.02,0.03-0.05,0.05-0.07,0.07c-0.02,0.05-0.05,0.09-0.07,0.11c-0.03,0.03-0.05,0.05-0.08,0.07
					c-0.04,0.03-0.08,0.06-0.1,0.11c-0.03,0.02-0.05,0.03-0.07,0.03c-0.03,0.05-0.04,0.09-0.04,0.11v0.26h-0.04l-0.03,0.04
					c-0.03,0.02-0.05,0.03-0.07,0.03c-0.03,0.05-0.05,0.09-0.08,0.11c0,0.03-0.01,0.05-0.03,0.07v0.68
					c0.02,0.02,0.03,0.06,0.03,0.11c0.03,0.03,0.05,0.04,0.08,0.04c0.02,0.04,0.03,0.08,0.03,0.1v0.68
					c0.03,0.03,0.04,0.05,0.04,0.07c0.02,0.03,0.05,0.06,0.07,0.11v1.02l0.04,0.069c0.02,0.021,0.04,0.051,0.07,0.07v1.07
					c0,0.02,0.01,0.03,0.03,0.03c0.03,0.05,0.05,0.09,0.07,0.109v1.32c0.03,0.05,0.04,0.08,0.04,0.109
					c0.02,0.021,0.05,0.04,0.07,0.07v1.69c0.02,0.02,0.05,0.06,0.07,0.109c0.03,0,0.04,0.021,0.04,0.07
					c0.02,0.021,0.04,0.05,0.04,0.07v1.25c0.02,0.02,0.03,0.06,0.03,0.109v0.07c0.03,0.021,0.04,0.04,0.04,0.07v0.92
					c0.02,0.02,0.03,0.05,0.03,0.069c0.03,0.051,0.05,0.091,0.08,0.11c0,0.021,0.01,0.05,0.03,0.07v0.569
					c0,0.021,0.01,0.061,0.04,0.11c0,0.021,0.01,0.05,0.03,0.07c0.03,0.02,0.04,0.05,0.04,0.069v0.75c0.02,0.04,0.03,0.08,0.03,0.11
					c0.03,0.021,0.04,0.04,0.04,0.07c0.02,0.02,0.04,0.05,0.04,0.069c0.02,0.04,0.03,0.08,0.03,0.11c0,0.021,0.01,0.04,0.04,0.07
					c0.02,0.02,0.06,0.06,0.11,0.1c0.02,0.03,0.05,0.05,0.07,0.08c0.05,0.021,0.1,0.04,0.14,0.03c0.05,0.02,0.12,0.05,0.22,0.07
					c0,0.02,0.02,0.039,0.07,0.039c0.07,0.021,0.13,0.04,0.18,0.07c0.02,0.021,0.05,0.04,0.07,0.07c0.05,0.02,0.1,0.05,0.14,0.07
					h0.08c0.05,0.02,0.1,0.05,0.18,0.069h0.32c0.07-0.02,0.13-0.05,0.18-0.069c0.05,0,0.09-0.011,0.14-0.04
					c0.03-0.04,0.04-0.08,0.04-0.101l0.03-0.07c0.03-0.029,0.05-0.05,0.08-0.069v-0.11c0.02,0.021,0.04,0.05,0.07,0.07v0.04
					c0.02,0.04,0.04,0.069,0.07,0.069c0.07,0.021,0.13,0.04,0.18,0.07h0.14c0.05-0.03,0.1-0.05,0.15-0.07h0.14
					c0.05,0.021,0.1,0.04,0.14,0.07h0.11c0.05-0.03,0.08-0.04,0.11-0.04c0-0.02,0.01-0.03,0.03-0.03l0.04-0.039
					c0.02-0.021,0.05-0.061,0.07-0.11v-0.24c0.1-0.01,0.19-0.01,0.29,0V26.8c0.12-0.04,0.24-0.08,0.36-0.1
					c0.02-0.03,0.06-0.05,0.11-0.08c0.14-0.04,0.28-0.08,0.43-0.101c0.02-0.02,0.06-0.05,0.1-0.069c0.15-0.05,0.29-0.09,0.43-0.11
					v-0.07c0.2-0.05,0.38-0.079,0.54-0.109v-0.07c0.12-0.04,0.24-0.08,0.36-0.109V25.92c0.12-0.05,0.24-0.09,0.36-0.11
					c0.02-0.029,0.06-0.05,0.11-0.069c0.07-0.05,0.15-0.09,0.25-0.11v-0.07c0.12-0.05,0.24-0.09,0.36-0.109v-0.07
					c0.12-0.05,0.24-0.09,0.36-0.11V25.2c0.12-0.04,0.24-0.08,0.36-0.11v-0.07c0.11-0.039,0.23-0.079,0.36-0.1v-0.08
					c0.19-0.04,0.37-0.08,0.53-0.12V24.65c0.12-0.04,0.24-0.08,0.36-0.11v-0.07c0.12-0.04,0.24-0.08,0.36-0.1v-0.08
					c0.12-0.04,0.24-0.08,0.36-0.1c0.02-0.021,0.06-0.051,0.11-0.07c0.07-0.05,0.15-0.09,0.25-0.11V23.94
					c0.19-0.051,0.37-0.08,0.54-0.11v-0.07c0.11-0.04,0.23-0.08,0.35-0.109v-0.07c0.13-0.04,0.24-0.08,0.36-0.1v-0.07
					c0.12-0.05,0.24-0.09,0.36-0.11V23.23c0.07-0.051,0.13-0.091,0.18-0.11c0.03-0.021,0.06-0.05,0.11-0.07
					c0.07-0.05,0.15-0.08,0.25-0.109c0.02-0.021,0.06-0.051,0.11-0.07c0.07-0.04,0.15-0.08,0.25-0.11
					c0.02-0.02,0.06-0.04,0.11-0.069c0.07-0.04,0.15-0.08,0.25-0.101v-0.07c0.12-0.05,0.24-0.09,0.36-0.109v-0.07
					c0.12-0.05,0.24-0.09,0.36-0.109c0.02-0.021,0.06-0.051,0.1-0.07c0.08-0.05,0.16-0.08,0.25-0.11V21.98
					c0.08-0.051,0.14-0.08,0.19-0.11V21.8c0.11-0.04,0.23-0.08,0.35-0.1c0.03-0.03,0.06-0.05,0.11-0.08
					c0.14-0.04,0.29-0.08,0.43-0.101V21.45c0.12-0.05,0.24-0.09,0.36-0.11v-0.07c0.12-0.05,0.24-0.079,0.36-0.109
					c0.02-0.021,0.06-0.05,0.1-0.07c0.15-0.05,0.29-0.08,0.43-0.109v-0.07c0.08-0.04,0.14-0.08,0.19-0.11
					c0.02-0.02,0.06-0.04,0.1-0.069c0.15-0.04,0.29-0.08,0.43-0.101v-0.07c0.12-0.05,0.24-0.09,0.36-0.109v-0.07
					c0.12-0.05,0.24-0.09,0.36-0.11V20.2c0.12-0.04,0.24-0.08,0.36-0.11c0.02-0.02,0.06-0.04,0.11-0.07
					c0.07-0.039,0.15-0.079,0.25-0.1c0.07-0.03,0.13-0.05,0.18-0.08c0.12-0.04,0.24-0.08,0.35-0.1c0.1-0.03,0.2-0.05,0.29-0.07
					c0.07-0.05,0.16-0.1,0.25-0.15v-0.14c0.1-0.05,0.19-0.1,0.29-0.149c0.07-0.04,0.16-0.08,0.25-0.101v0.39
					c0.03,0.021,0.05,0.061,0.07,0.11c0.03,0.021,0.05,0.04,0.08,0.07c0.07,0,0.13,0.01,0.17,0.03c0.08-0.021,0.14-0.03,0.19-0.03
					h0.21c0.05,0.02,0.11,0.04,0.18,0.069c0.02,0.04,0.05,0.08,0.07,0.101c0.02,0,0.05,0.03,0.07,0.08
					c0.07,0.02,0.15,0.04,0.22,0.069v0.03c0,0.03,0.01,0.05,0.03,0.07c0,0.05,0.02,0.09,0.04,0.11c0.02,0.02,0.05,0.05,0.07,0.069
					c0.02,0.03,0.05,0.061,0.07,0.11c0.03,0.02,0.04,0.05,0.04,0.07c0,0.02,0.02,0.05,0.07,0.069c0.02,0.021,0.06,0.061,0.11,0.11
					v0.07c0.02,0.02,0.03,0.05,0.03,0.069c0.03,0.05,0.05,0.07,0.08,0.07v0.36c0.02,0.05,0.04,0.069,0.07,0.069
					c0.02,0.021,0.05,0.061,0.07,0.11c0.05,0.02,0.08,0.04,0.11,0.06c0.07,0,0.14,0.021,0.21,0.04h0.14c0.05,0,0.09-0.01,0.11-0.04
					h0.08c0.02,0,0.04-0.01,0.07-0.029c0-0.051,0.01-0.08,0.03-0.11c0-0.021,0.02-0.04,0.04-0.07v-0.1l-0.04-0.04v-0.04
					c0-0.021-0.01-0.04-0.03-0.07c-0.05-0.04-0.09-0.08-0.11-0.1c-0.02-0.03-0.05-0.05-0.07-0.08V20.77c0.39,0,0.78,0,1.17,0.011
					c0.27,0.01,0.56,0.01,0.84,0.02V20.73c0.07-0.04,0.13-0.08,0.18-0.11v-0.3c0.06-0.03,0.12-0.04,0.18-0.061V20.19
					c0.07-0.04,0.13-0.08,0.18-0.101v-0.04c0.16,0.01,0.33,0.01,0.5,0.021v0.02c0,0.04,0.01,0.08,0.04,0.101
					c0.02,0.02,0.04,0.06,0.07,0.109c0.07,0,0.14,0.01,0.21,0.03h0.07c0.07-0.021,0.13-0.03,0.18-0.03l0.07-0.03
					c0.03-0.029,0.05-0.06,0.08-0.109c0-0.03,0.01-0.05,0.03-0.07c0.06-0.01,0.12-0.01,0.18,0l0.04-0.04
					c0.05-0.02,0.08-0.06,0.11-0.109c0-0.04,0.01-0.08,0.03-0.101v-1.62c0.07-0.05,0.14-0.09,0.18-0.109v-0.25
					c0.07-0.051,0.13-0.08,0.18-0.11V17.5c0.07-0.04,0.13-0.08,0.18-0.1v-0.07c0.07-0.05,0.13-0.09,0.18-0.11v-0.25
					c0.07-0.05,0.14-0.1,0.22-0.14c0.04-0.05,0.09-0.1,0.14-0.15c0.05-0.05,0.1-0.1,0.14-0.14V16.5h0.04l0.11-0.11
					c0-0.01,0.01-0.03,0.02-0.05c0.02-0.01,0.04-0.01,0.05-0.02v-0.03c0.05,0,0.09-0.02,0.14-0.04c0.03-0.02,0.06-0.05,0.11-0.07
					c0.02-0.02,0.06-0.04,0.11-0.04c0.05-0.02,0.07-0.05,0.07-0.07c0.07-0.02,0.14-0.05,0.21-0.07c0.03-0.02,0.08-0.05,0.15-0.07
					c0.04,0,0.09-0.01,0.14-0.04c0.02,0,0.06-0.01,0.11-0.03c0.02-0.03,0.07-0.04,0.14-0.04c0.02-0.02,0.05-0.03,0.07-0.03
					c0.03-0.03,0.07-0.04,0.15-0.04c0.02-0.02,0.06-0.04,0.1-0.04c0.05-0.02,0.09-0.03,0.11-0.03c0.29-0.03,0.57-0.05,0.83-0.07
					c0.07-0.03,0.14-0.05,0.21-0.07h0.15V15.5c0.22-0.01,0.45-0.02,0.68-0.04h1.26c0.06,0.02,0.11,0.04,0.17,0.04h0.04v0.04
					l0.04,0.04v0.03c0.02,0,0.03,0.01,0.03,0.04h0.04v0.21l0.03,0.04v0.03c0.03,0,0.04,0.01,0.04,0.04V16l0.07,0.08
					c0.02,0,0.04,0.01,0.04,0.03c0.02,0,0.03,0.01,0.03,0.04v0.03h0.04v0.04l0.04,0.03c0,0.03,0.01,0.04,0.03,0.04v0.04l0.04,0.03
					v0.04c0,0.02,0.01,0.04,0.03,0.04v0.03c0.03,0,0.04,0.01,0.04,0.04l0.04,0.03c0.02,0,0.04,0.02,0.07,0.04v0.07
					c0.02,0,0.03,0.01,0.03,0.04v0.029l0.07,0.07c0,0.02,0.02,0.04,0.04,0.04v0.03l0.22,0.22v0.04l0.03,0.03v0.069
					c0.03,0,0.04,0.011,0.04,0.04c0.02,0.021,0.05,0.03,0.07,0.03l0.04,0.04c0,0.02,0.01,0.04,0.03,0.04v0.03l0.04,0.029v0.04
					c0.02,0,0.06,0.011,0.11,0.04v0.07l0.07,0.07c0.04,0.02,0.08,0.04,0.1,0.04h0.62c0.01,0.01,0.02,0.02,0.03,0.029
					c0.01-0.01,0.02-0.02,0.04-0.029v-0.15l-0.04-0.03c-0.01-0.02-0.02-0.029-0.03-0.04v-0.29c0-0.01,0-0.02-0.01-0.02
					c0.04-0.01,0.08,0,0.11,0.02v0.04c0.03,0.021,0.05,0.03,0.07,0.03c0.03,0.03,0.06,0.04,0.11,0.04c0.05,0.02,0.1,0.04,0.15,0.04
					h0.82c0.29,0,0.57-0.021,0.86-0.04c0.05,0,0.1-0.01,0.15-0.04h0.21v-0.07c0.1,0,0.18-0.01,0.25-0.029
					c0.1,0,0.18-0.011,0.25-0.04c0.03,0,0.05-0.011,0.07-0.03h0.11v-0.07c0.03,0,0.04-0.02,0.04-0.04h0.21V16.9l0.04-0.051
					c0-0.02,0.01-0.04,0.04-0.04c0.02,0,0.03-0.01,0.03-0.029c0.02,0,0.05-0.011,0.07-0.04v-0.03h0.11v-0.07
					c0.02,0,0.05-0.02,0.07-0.04c0.03,0,0.06-0.01,0.11-0.029v-0.08l0.07-0.07c0.03,0,0.06-0.01,0.11-0.03v-0.07l0.11-0.11
					c0.02,0,0.05-0.01,0.07-0.04h0.03v-0.03l0.04-0.04c0.02,0,0.06-0.01,0.11-0.04v-0.03l0.03-0.04v-0.03l0.07-0.07
					c0.03,0,0.05-0.02,0.08-0.04l0.03-0.04c0.12,0,0.24-0.01,0.36-0.03v-0.04c0.03,0,0.04-0.01,0.04-0.03
					c0.02,0,0.05-0.02,0.07-0.04c0.02,0,0.04-0.01,0.04-0.03h0.03c0.03-0.03,0.05-0.04,0.07-0.04c0-0.02,0.02-0.03,0.04-0.03
					c0.02-0.03,0.05-0.04,0.07-0.04c0-0.02,0.01-0.04,0.04-0.04c0-0.02,0.01-0.03,0.03-0.03v-0.01c0.01-0.02,0.02-0.03,0.04-0.03
					c0-0.02,0.01-0.03,0.03-0.03c0.03,0,0.04-0.02,0.04-0.04c0.02,0,0.06-0.01,0.11-0.04h0.04c0.01-0.02,0.03-0.03,0.05-0.03h0.02
					l0.03-0.04l0.07-0.03v-0.04h0.04l0.04-0.03c0.02,0,0.06-0.02,0.11-0.04h0.03c0.03-0.02,0.05-0.04,0.07-0.04l0.04-0.03
					c0.02,0,0.04-0.01,0.04-0.04c0.02,0,0.03-0.01,0.03-0.03c0.03,0,0.05-0.01,0.08-0.04l0.1-0.11c0.03,0,0.04-0.01,0.04-0.03
					c0.02,0,0.05-0.01,0.07-0.02v0.09c0.14,0.02,0.27,0.05,0.39,0.07c0.05,0.05,0.09,0.08,0.11,0.11c0.68,0,1.36,0.01,2.04,0.03
					c0.11-0.01,0.22,0,0.33,0v-0.07h0.27c2.44-0.03,4.87-0.05,7.3-0.07c0.05,0.05,0.08,0.1,0.11,0.14c0,0.05,0.01,0.1,0.04,0.15
					c0.09,0.05,0.189,0.1,0.28,0.14c0.029,0.03,0.06,0.06,0.109,0.11s0.08,0.1,0.11,0.14c0,0.05,0.01,0.1,0.03,0.15
					c0.069,0.02,0.14,0.05,0.18,0.07v0.11c0.12,0.02,0.24,0.05,0.359,0.07v0.11c0.07,0.02,0.131,0.05,0.181,0.07v0.11
					c0.12,0.02,0.24,0.04,0.359,0.06v0.11c0.141,0.03,0.271,0.05,0.391,0.07l0.109,0.109c0.381,0.03,0.771,0.051,1.15,0.07
					c0.04,0.05,0.08,0.09,0.1,0.11c0.721,0,1.45,0.01,2.19,0.029c0.03-0.02,0.06-0.04,0.11-0.069c0.55-0.04,1.109-0.08,1.689-0.101
					c0.021-0.029,0.061-0.05,0.101-0.069c0.439-0.051,0.88-0.091,1.33-0.11v-0.07c0.479-0.05,0.96-0.09,1.439-0.11v-0.07
					c0.43-0.05,0.85-0.08,1.25-0.11c0.03-0.02,0.061-0.05,0.11-0.07c0.43-0.05,0.88-0.08,1.33-0.11c0.02-0.02,0.06-0.04,0.109-0.07
					c0.55-0.05,1.11-0.08,1.681-0.11v-0.07c0.56-0.04,1.09-0.08,1.619-0.11v-0.06c0.12-0.02,0.23-0.03,0.341-0.04h10.1
					c0.07,0,0.13-0.01,0.18-0.04h0.04c0.021-0.02,0.051-0.04,0.07-0.07c0.49,0.01,0.98,0.02,1.47,0.04
					c0.03-0.03,0.061-0.05,0.11-0.08c0.62-0.04,1.24-0.08,1.87-0.1c0.02-0.02,0.05-0.05,0.1-0.07c0.19-0.05,0.4-0.09,0.61-0.11V15
					c0.24-0.05,0.479-0.1,0.72-0.15v-0.03h0.36c0.05,0,0.1-0.01,0.14-0.04l0.04-0.03c0.021,0,0.05-0.02,0.07-0.04
					c0.029-0.02,0.05-0.04,0.069-0.04c0.03,0,0.051-0.01,0.07-0.03c0-0.05,0.021-0.08,0.04-0.11c0.021-0.02,0.04-0.05,0.04-0.07
					v-0.11h0.96v-0.18h0.36v-2.12c-0.061-0.01-0.12-0.01-0.181-0.01V11.5c0.04-0.01,0.07-0.02,0.11-0.02c0-0.05,0.01-0.1,0.04-0.15
					c0.01-0.01,0.03-0.03,0.05-0.05c0.17,0.01,0.34,0.01,0.521,0.02v-0.07h0.14v-0.02c0.4-0.03,0.79-0.05,1.19-0.07v0.09h0.029
					v-0.09c0.15-0.01,0.29-0.02,0.431-0.02c0.029-0.03,0.06-0.05,0.109-0.07c3.11,0,6.23,0,9.351,0.01l0.02-0.01v-0.11
					c-0.03-0.02-0.05-0.05-0.07-0.07c-0.029-0.03-0.039-0.05-0.039-0.07l-0.021-0.04h0.521V9.9c0.029-0.02,0.05-0.05,0.069-0.07
					c0.03-0.03,0.04-0.05,0.04-0.07V9.47L100.175,9.43z M0.995,14.82c-0.05,0.02-0.08,0.06-0.11,0.1v-0.1l0.04-0.04
					c0.02,0,0.03-0.01,0.03-0.03c0.03,0,0.05-0.02,0.07-0.04c0.01-0.01,0.02-0.01,0.02-0.01C1.035,14.74,1.015,14.78,0.995,14.82z
					 M1.065,14.67l-0.01,0.01c0.01-0.02,0.01-0.03,0.01-0.04V14.67z M1.245,17.47c-0.02-0.01-0.03-0.02-0.04-0.029h0.04V17.47z
					 M1.245,14.46c-0.02,0.01-0.05,0.02-0.07,0.04v-0.04c0.02-0.02,0.05-0.05,0.07-0.07V14.46z M1.535,14.25
					c-0.05,0-0.09,0.01-0.11,0.03v0.07h-0.15c0.04-0.03,0.06-0.05,0.08-0.07c0.04-0.02,0.1-0.05,0.18-0.07l0.01-0.02
					C1.535,14.21,1.535,14.23,1.535,14.25z M3.505,26.91c0,0.03-0.01,0.05-0.04,0.07v0.14c0-0.021-0.01-0.04-0.03-0.07
					c-0.03-0.04-0.05-0.08-0.07-0.1c0-0.03-0.01-0.05-0.04-0.07h0.22C3.525,26.89,3.515,26.9,3.505,26.91z M40.105,14.48v0.02
					c-0.14,0-0.28-0.01-0.43-0.01C39.825,14.48,39.965,14.48,40.105,14.48z M35.065,14.19h-0.09c0.03-0.01,0.07-0.01,0.11-0.02
					L35.065,14.19z M39.495,16.4h-0.14v0.04c0,0.02-0.02,0.03-0.04,0.03v0.04c-0.02,0-0.06,0.01-0.11,0.03
					c-0.02,0-0.04,0.02-0.07,0.04c-0.12,0-0.24,0.01-0.36,0.04h-0.14v0.07c-0.07,0-0.14,0.01-0.21,0.029
					c-0.24,0-0.48,0.011-0.72,0.04h-0.18c-0.05-0.029-0.09-0.04-0.11-0.04s-0.05-0.01-0.07-0.029v-0.04
					c-0.05-0.021-0.1-0.03-0.14-0.03c-0.02-0.01-0.03-0.021-0.04-0.021v-0.02c-0.03-0.01-0.06-0.021-0.09-0.021
					c-0.02-0.01-0.04-0.02-0.05-0.02h-0.04v-0.07c-0.05-0.03-0.08-0.04-0.11-0.04c0-0.02-0.01-0.03-0.03-0.03v-0.04
					c-0.03,0-0.04-0.01-0.04-0.03v-0.04c-0.02,0-0.03-0.01-0.03-0.04c-0.03,0-0.05-0.01-0.08-0.03v-0.15h-0.07v-0.68
					c-0.02,0-0.03-0.01-0.03-0.03c0.02,0,0.05-0.02,0.07-0.04V15c0.94,0.01,1.89,0.02,2.83,0.04V16.4z"/>
			</g>
		</g>
	</g>
	<g>
		
			<linearGradient id="SVGID_5_" gradientUnits="userSpaceOnUse" x1="-841.9629" y1="43.2217" x2="-842.5456" y2="43.2217" gradientTransform="matrix(34.5122 0 0 13.1527 29105.5371 -556.8325)">
			<stop  offset="0" style="stop-color:#00FFFF"/>
			<stop  offset="0.6495" style="stop-color:#FFE3A0"/>
		</linearGradient>
		<path fill="url(#SVGID_5_)" d="M36.815,7.85l-0.01,0.01h-0.11v0.03c-0.02,0.03-0.04,0.04-0.07,0.04v0.03
			c-0.02,0-0.06,0.02-0.1,0.04l-0.04,0.04h-0.04c-0.02,0.02-0.04,0.03-0.07,0.03c-0.02,0.02-0.04,0.04-0.07,0.04v0.03l-0.04,0.04
			c-0.02,0-0.06,0.01-0.1,0.03h-0.08v0.04c-0.04,0.02-0.09,0.04-0.14,0.04v0.03c-0.02,0-0.05,0.02-0.07,0.04
			c-0.05,0-0.08,0.01-0.11,0.04h-0.04c-0.02,0.02-0.04,0.03-0.07,0.03c-0.02,0.02-0.04,0.04-0.07,0.04V8.5
			c-0.05,0-0.09,0.02-0.14,0.04h-0.07v0.03c-0.03,0.03-0.05,0.04-0.08,0.04c-0.02,0.02-0.04,0.04-0.07,0.04v0.03
			c-0.05,0-0.09,0.01-0.14,0.04l-0.04,0.03h-0.14v0.04c-0.03,0.02-0.05,0.04-0.07,0.04v0.03c-0.03,0-0.06,0.01-0.11,0.04
			c-0.02,0-0.05,0.01-0.07,0.03h-0.11v0.04c0,0.02-0.01,0.03-0.04,0.03v0.04c-0.04,0-0.09,0.01-0.14,0.04
			c-0.02,0-0.05,0.01-0.07,0.03h-0.11v0.04c-0.04,0.02-0.08,0.04-0.11,0.04l-0.03,0.03c-0.02,0-0.05,0.01-0.07,0.04
			c-0.05,0-0.1,0.01-0.15,0.03h-0.07c-0.02,0.03-0.05,0.04-0.07,0.04c-0.02,0.02-0.05,0.03-0.07,0.03V9.4
			c-0.03,0-0.05,0.01-0.07,0.04c-0.05,0-0.1,0.01-0.15,0.03h-0.1v0.04c-0.03,0.02-0.05,0.03-0.08,0.03v0.04
			c-0.05,0-0.09,0.01-0.14,0.04c-0.03,0-0.05,0.01-0.07,0.03h-0.11v0.04c-0.02,0.02-0.05,0.03-0.07,0.03l-0.04,0.04
			c-0.02,0-0.05,0.01-0.07,0.03c-0.05,0-0.09,0.02-0.14,0.04h-0.07v0.04c-0.05,0.02-0.1,0.03-0.15,0.03v0.04
			c-0.05,0-0.1,0.01-0.14,0.03c-0.03,0-0.05,0.02-0.07,0.04h-0.15v0.04c-0.05,0.02-0.09,0.03-0.14,0.03v0.04
			c-0.03,0-0.05,0.01-0.07,0.03c-0.03,0-0.06,0.02-0.11,0.04h-0.07c-0.03,0.02-0.05,0.03-0.07,0.03c-0.03,0.03-0.05,0.04-0.08,0.04
			v0.05c-0.04,0-0.09,0.01-0.14,0.03c-0.02,0-0.05,0.02-0.07,0.04h-0.11v0.04c-0.02,0.02-0.05,0.03-0.07,0.03v0.04
			c-0.05,0-0.1,0.01-0.14,0.03h-0.04l-0.03,0.04h-0.15v0.03c-0.05,0.03-0.08,0.04-0.11,0.04v0.03c-0.02,0-0.04,0.02-0.07,0.04
			c-0.05,0-0.09,0.01-0.14,0.04h-0.04c-0.02,0.02-0.05,0.03-0.07,0.03c-0.02,0.02-0.05,0.04-0.07,0.04l-0.04,0.03
			c-0.04,0-0.09,0.02-0.14,0.04c-0.02,0-0.05,0.01-0.07,0.04h-0.14v0.03c-0.05,0.02-0.09,0.04-0.11,0.04l-0.04,0.03
			c-0.02,0-0.05,0.02-0.07,0.04c-0.05,0-0.08,0.01-0.11,0.03h-0.03c-0.03,0.03-0.05,0.04-0.08,0.04c-0.04,0.02-0.09,0.04-0.14,0.04
			l-0.03,0.03c-0.03,0-0.05,0.01-0.08,0.04c-0.02,0-0.04,0.01-0.07,0.03h-0.11c0,0.03-0.01,0.04-0.03,0.04
			c-0.03,0.02-0.06,0.03-0.11,0.03v0.04c-0.02,0-0.05,0.01-0.07,0.04c-0.03,0-0.06,0.01-0.11,0.03h-0.18v0.04
			c-0.05,0.02-0.08,0.03-0.11,0.03l-0.03,0.04c-0.03,0-0.06,0.01-0.11,0.03c-0.02,0-0.06,0.01-0.11,0.04h-0.18v0.04
			c-0.02,0.02-0.04,0.03-0.07,0.03v0.04c-0.04,0-0.08,0.01-0.11,0.03c-0.04,0-0.1,0.02-0.18,0.04h-0.07v0.03
			c-0.01,0.01-0.02,0.01-0.03,0.01c4.35,0.52,8.36,1.41,12.06,2.64c0.89,0.3,1.76,0.61,2.61,0.96c0.01-0.02,0.02-0.03,0.04-0.03
			c0-0.02,0.01-0.03,0.03-0.03c0.03,0,0.04-0.02,0.04-0.04c0.02,0,0.06-0.01,0.11-0.04h0.04c0.01-0.02,0.03-0.03,0.05-0.03h0.02
			l0.03-0.04l0.07-0.03v-0.04h0.04l0.04-0.03c0.02,0,0.06-0.02,0.11-0.04h0.03c0.03-0.02,0.05-0.04,0.07-0.04l0.04-0.03
			c0.02,0,0.04-0.01,0.04-0.04c0.02,0,0.03-0.01,0.03-0.03c0.03,0,0.05-0.01,0.08-0.04l0.1-0.11c0.03,0,0.04-0.01,0.04-0.03
			c0.02,0,0.05-0.01,0.07-0.02v0.09c0.14,0.02,0.27,0.05,0.39,0.07c0.05,0.05,0.09,0.08,0.11,0.11c0.68,0,1.36,0.01,2.04,0.03
			l0.33-0.04l0.27-0.03C43.475,12.28,40.295,9.91,36.815,7.85z"/>
	</g>
	<g>
		<linearGradient id="SVGID_6_" gradientUnits="userSpaceOnUse" x1="62.6035" y1="9.8999" x2="48.4483" y2="9.8999">
			<stop  offset="0" style="stop-color:#00FFFF"/>
			<stop  offset="0.8219" style="stop-color:#FFE3A0"/>
		</linearGradient>
		<path fill="url(#SVGID_6_)" d="M61.765,12.3c-3.979-2.22-8.42-3.82-13.32-4.77h1.1V7.5h0.47v0.03h0.1V7.5h0.43v0.03h0.26V7.5
			h0.431v0.03h1.25V7.5h0.43v0.03h0.33V7.5h0.89v0.03h0.4c0.02,0.03,0.03,0.06,0.03,0.11c0.029,0.02,0.05,0.06,0.079,0.11h1.25
			c0.021,0.05,0.04,0.08,0.04,0.11v0.07h0.07c0.021,0.02,0.061,0.06,0.11,0.11v0.03l0.029-0.03h0.711
			C58.565,9.35,60.205,10.76,61.765,12.3z"/>
	</g>
	<g>
		<g>
			<g>
				<g>
					<linearGradient id="SVGID_7_" gradientUnits="userSpaceOnUse" x1="31.7534" y1="44.5361" x2="64.5659" y2="-12.2968">
						<stop  offset="0" style="stop-color:#BB925B"/>
						<stop  offset="0.3429" style="stop-color:#FFF6DA"/>
						<stop  offset="0.6571" style="stop-color:#FFF1B1"/>
						<stop  offset="1" style="stop-color:#B38B54"/>
					</linearGradient>
					<path fill="url(#SVGID_7_)" d="M38.536,7.629c0.086,0.002,0.172,0.004,0.258,0.007c0.158,0.191,0.386,0.323,0.645,0.356
						c0.176,0.28,0.487,0.466,0.842,0.468c1.116,0.005,2.231,0.008,3.345,0.01c0.959,0.002,1.917,0.004,2.873,0.008
						c0.099,0.033,0.206,0.051,0.316,0.051h0.22c0.054,0,0.107-0.004,0.16-0.013c0.052,0.008,0.105,0.013,0.16,0.013h2.19
						c0.08,0,0.157-0.01,0.231-0.029c0.077,0.019,0.157,0.029,0.239,0.029h0.1c0.073,0,0.144-0.008,0.211-0.024
						c0.07,0.016,0.144,0.024,0.218,0.024h0.26c0.073,0,0.144-0.008,0.212-0.024c0.07,0.016,0.144,0.024,0.219,0.024h1.25
						c0.072,0,0.144-0.008,0.212-0.024c0.07,0.016,0.143,0.024,0.218,0.024h0.33c0.081,0,0.16-0.01,0.236-0.03h0.41
						c0.038,0.01,0.077,0.017,0.117,0.022c0.177,0.145,0.4,0.228,0.636,0.228h0.717c0.039,0.027,0.08,0.052,0.123,0.073
						c0.079,0.064,0.169,0.117,0.267,0.157c0.117,0.048,0.241,0.071,0.366,0.071c0.05,0,0.101-0.004,0.151-0.011h37.416
						c0.202,0,0.396-0.061,0.559-0.17c0.108,0.04,0.224,0.061,0.342,0.061c0.141,0,0.29,0.009,0.439,0.018
						c0.021,0.001,0.04,0.002,0.061,0.002c0.254,0,0.499-0.097,0.686-0.272c0.185-0.173,0.295-0.41,0.313-0.661
						c0.231,0.004,0.462,0.007,0.692,0.009V8.04c0,0.552,0.447,1,1,1h1.33v0.23c0,0.107,0.018,0.213,0.051,0.315
						c-0.032,0.099-0.05,0.203-0.051,0.31c-0.075,0.045-0.145,0.1-0.207,0.163c-2.854-0.008-5.708-0.008-8.554-0.008
						c-0.128,0-0.255,0.024-0.373,0.072c-0.006,0.002-0.011,0.004-0.017,0.007c-0.06,0.003-0.12,0.007-0.185,0.011
						c-0.015,0-0.03,0-0.045,0.001c-0.408,0.02-0.807,0.041-1.215,0.071c-0.046,0.003-0.091,0.01-0.135,0.02
						c-0.093,0.006-0.182,0.025-0.266,0.055c-0.042-0.001-0.083-0.003-0.125-0.005c-0.017-0.001-0.033-0.001-0.05-0.001
						c-0.271,0-0.556,0.13-0.746,0.321c-0.006,0.005-0.033,0.033-0.039,0.039c-0.034,0.036-0.065,0.075-0.095,0.116
						c-0.205,0.185-0.331,0.453-0.331,0.744v0.54c0,0.213,0.066,0.411,0.181,0.573v0.737h-0.32c-0.357,0-0.671,0.188-0.848,0.47
						c-0.142,0.003-0.276,0.037-0.397,0.095l-0.149,0.031l-0.358,0.075c-0.104,0.021-0.201,0.059-0.29,0.109
						c-0.124,0.023-0.249,0.051-0.372,0.083c-0.04,0.01-0.08,0.023-0.118,0.039c-0.006,0.002-0.012,0.005-0.019,0.007
						c-0.552,0.022-1.097,0.057-1.643,0.092c-0.104,0.007-0.206,0.03-0.303,0.068c-0.397-0.013-0.795-0.021-1.193-0.03
						c-0.006,0-0.013,0-0.02,0c-0.161,0-0.316,0.039-0.456,0.11h-9.934c-0.029,0-0.059,0.001-0.088,0.004
						c-0.136,0.012-0.271,0.025-0.417,0.05c-0.082,0.014-0.16,0.037-0.233,0.068c-0.331,0.021-0.665,0.045-1.009,0.07l-0.284,0.021
						c-0.123,0.009-0.239,0.04-0.346,0.088c-0.458,0.025-0.91,0.053-1.354,0.094c-0.097,0.009-0.207,0.041-0.307,0.083
						c-0.393,0.027-0.782,0.056-1.157,0.1c-0.089,0.01-0.175,0.032-0.258,0.065c-0.015,0.006-0.029,0.012-0.043,0.018
						c-0.343,0.026-0.698,0.055-1.06,0.097c-0.106,0.012-0.207,0.041-0.3,0.083c-0.349,0.021-0.721,0.053-1.129,0.096
						c-0.111,0.012-0.217,0.042-0.313,0.086c-0.319,0.021-0.653,0.052-1.027,0.096c-0.096,0.011-0.188,0.036-0.277,0.073
						c-0.502,0.022-0.989,0.058-1.47,0.092c-0.096,0.007-0.188,0.027-0.277,0.061c-0.536-0.012-1.066-0.02-1.593-0.022
						c-0.125-0.064-0.264-0.103-0.406-0.11c-0.268-0.014-0.539-0.028-0.81-0.046c-0.089-0.052-0.187-0.09-0.288-0.112
						c-0.104-0.08-0.227-0.139-0.359-0.173c-0.131-0.166-0.313-0.289-0.525-0.346c-0.005-0.003-0.009-0.007-0.013-0.01
						c-0.009-0.012-0.017-0.024-0.024-0.036c-0.053-0.073-0.113-0.154-0.202-0.242l-0.097-0.097c-0.065-0.066-0.14-0.123-0.22-0.169
						c-0.008-0.011-0.015-0.022-0.022-0.033c-0.051-0.072-0.11-0.15-0.19-0.231c-0.188-0.19-0.444-0.296-0.711-0.296
						c-0.003,0-0.006,0-0.008,0c-2.432,0.02-4.863,0.04-7.292,0.07h-0.27c-0.122,0-0.238,0.021-0.346,0.062
						c-0.559-0.012-1.118-0.019-1.677-0.021c-0.088-0.045-0.183-0.077-0.281-0.095c-0.015-0.01-0.029-0.02-0.044-0.029
						c-0.16-0.098-0.341-0.147-0.522-0.147c-0.104,0-0.208,0.016-0.308,0.048c-0.143,0.035-0.274,0.101-0.386,0.19
						c-0.051,0.036-0.098,0.078-0.142,0.123c-0.039,0.026-0.077,0.054-0.112,0.085c-0.13,0.037-0.25,0.102-0.354,0.187
						c-0.135,0.041-0.258,0.11-0.362,0.199c-0.054,0.04-0.104,0.085-0.148,0.135c-0.003,0.001-0.006,0.003-0.009,0.005
						c-0.049,0.022-0.096,0.049-0.14,0.079c-0.083,0.004-0.164,0.018-0.241,0.042c0.046-0.116,0.071-0.243,0.071-0.374
						c0-0.552-0.448-1-1-1c-0.162,0-0.324,0-0.498,0.013c-0.359,0.024-0.662,0.236-0.818,0.534
						c-0.705-0.011-1.412-0.019-2.113-0.026c-0.003,0-0.007,0-0.01,0c-0.209,0-0.412,0.065-0.58,0.186
						c0.003-0.175-0.04-0.351-0.131-0.511c-0.181-0.317-0.516-0.505-0.869-0.505c-0.066,0-0.134,0.007-0.2,0.021
						c-0.082,0.011-0.156,0.028-0.221,0.049c-0.467,0.153-0.754,0.623-0.676,1.108c0.006,0.038,0.014,0.076,0.024,0.112h-0.937
						c-0.029,0-0.058,0.001-0.087,0.004c-0.215,0.019-0.431,0.028-0.638,0.037c-0.094,0.004-0.184,0.022-0.27,0.053
						c-0.037,0.006-0.074,0.014-0.11,0.024c-0.05,0.014-0.099,0.029-0.148,0.045c-0.223,0.017-0.458,0.035-0.699,0.06
						c-0.089,0.007-0.181,0.025-0.275,0.054c-0.048,0.011-0.096,0.024-0.142,0.041c-0.081,0.017-0.158,0.042-0.23,0.073
						c-0.089,0.02-0.169,0.048-0.24,0.082c-0.018,0.005-0.037,0.011-0.055,0.018c-0.024,0.005-0.048,0.011-0.071,0.018
						c-0.098,0.028-0.192,0.066-0.283,0.113c-0.022,0.008-0.047,0.017-0.076,0.026c-0.114,0.033-0.219,0.084-0.312,0.151
						c-0.037,0.018-0.073,0.038-0.107,0.059c-0.011,0.006-0.022,0.013-0.033,0.019c-0.124,0.041-0.237,0.105-0.336,0.189
						c-0.081,0.059-0.154,0.129-0.214,0.209c-0.066,0.056-0.125,0.12-0.175,0.191l-0.07,0.069c-0.016,0.016-0.032,0.032-0.047,0.048
						c-0.056,0.036-0.11,0.073-0.163,0.111c-0.189,0.135-0.323,0.329-0.383,0.547c-0.178,0.135-0.305,0.325-0.362,0.539
						c-0.083,0.106-0.145,0.229-0.18,0.358c-0.137,0.175-0.214,0.392-0.214,0.619v0.856c-0.016-0.002-0.031-0.003-0.047-0.004
						c-0.099-0.006-0.197-0.01-0.294-0.013c-0.07-0.002-0.14-0.004-0.208-0.008c-0.018-0.001-0.035-0.002-0.052-0.002
						c-0.237,0-0.466,0.098-0.648,0.251l-0.038,0.022c-0.063,0.036-0.121,0.078-0.174,0.126c-0.146,0.082-0.267,0.198-0.354,0.336
						c-0.049-0.001-0.098-0.003-0.148-0.005c-0.399-0.011-0.798-0.011-1.197-0.011c-0.073,0-0.145,0.008-0.213,0.022
						c-0.015-0.021-0.027-0.037-0.033-0.044c-0.005-0.008-0.012-0.018-0.02-0.027c-0.086-0.276-0.291-0.508-0.567-0.623
						c-0.003-0.002-0.007-0.003-0.01-0.005c-0.097-0.104-0.216-0.189-0.35-0.245c-0.061-0.025-0.116-0.047-0.206-0.08
						c-0.055-0.021-0.112-0.037-0.17-0.049c-0.064-0.143-0.162-0.271-0.288-0.37c-0.179-0.143-0.399-0.219-0.624-0.219
						c-0.074,0-0.148,0.008-0.221,0.024c-0.21,0.048-0.388,0.132-0.505,0.197l-0.133,0.068l-0.126,0.064
						c-0.139,0.069-0.257,0.168-0.348,0.287c-0.151,0.032-0.289,0.078-0.413,0.12c-0.058,0.019-0.114,0.044-0.168,0.073
						c-0.001,0-0.003,0.001-0.004,0.001c0,0,0,0,0,0c0,0,0,0-0.001,0.001h-0.002c-0.178,0.05-0.318,0.12-0.423,0.179
						c-0.004,0.002-0.021,0.013-0.037,0.021c-0.087,0.026-0.174,0.055-0.264,0.085c-0.104,0.034-0.2,0.085-0.285,0.148
						c-0.047,0.018-0.095,0.036-0.143,0.057c-0.078,0.032-0.151,0.074-0.216,0.123c-0.047,0.018-0.094,0.035-0.143,0.056
						c-0.063,0.025-0.121,0.058-0.175,0.094c-0.026,0.007-0.052,0.014-0.079,0.021l-0.051,0.014
						c-0.12,0.031-0.229,0.083-0.329,0.156c-0.021,0.013-0.05,0.031-0.084,0.057c-0.019,0.012-0.04,0.025-0.066,0.038
						c-0.042,0.021-0.083,0.045-0.121,0.071c-0.058,0.017-0.117,0.034-0.178,0.054c-0.048,0.017-0.095,0.036-0.14,0.06
						c-0.02,0.01-0.042,0.021-0.069,0.037c-0.097,0.027-0.205,0.062-0.319,0.108c-0.08,0.033-0.153,0.076-0.22,0.127
						c-0.045,0.016-0.092,0.034-0.139,0.054c-0.06,0.024-0.117,0.055-0.169,0.09c-0.052,0.014-0.103,0.028-0.153,0.042
						c-0.086,0.025-0.168,0.061-0.245,0.107c-0.002,0.002-0.005,0.003-0.007,0.005c-0.101,0.027-0.193,0.06-0.275,0.09
						c-0.175,0.063-0.324,0.173-0.436,0.312c-0.039,0.028-0.075,0.059-0.109,0.092c-0.014,0.008-0.029,0.016-0.043,0.024
						c-0.006,0.004-0.013,0.007-0.019,0.011c-0.106,0.03-0.216,0.068-0.333,0.117c-0.079,0.033-0.152,0.074-0.218,0.124
						c-0.047,0.018-0.095,0.036-0.143,0.057c-0.111,0.046-0.21,0.11-0.296,0.189c-0.034,0.018-0.066,0.036-0.096,0.054
						c-0.01,0.005-0.02,0.011-0.031,0.018c-0.102,0.04-0.186,0.082-0.252,0.118c-0.041,0.019-0.08,0.04-0.118,0.063
						c-0.091,0.034-0.188,0.079-0.288,0.14c-0.057,0.03-0.102,0.06-0.134,0.082c-0.092,0.05-0.173,0.105-0.249,0.161
						c-0.004,0.003-0.008,0.006-0.013,0.009c-0.046,0.018-0.094,0.036-0.142,0.056c-0.076,0.031-0.146,0.071-0.21,0.119
						l-0.061,0.019c-0.12,0.037-0.229,0.096-0.323,0.169c-0.025,0.01-0.05,0.019-0.075,0.027c-0.066,0.024-0.129,0.055-0.187,0.091
						c-0.088,0.019-0.177,0.039-0.269,0.063c-0.165,0.044-0.311,0.128-0.429,0.239c-0.018,0.011-0.037,0.021-0.055,0.033
						c-0.005,0.003-0.011,0.005-0.016,0.008c-0.104,0.028-0.197,0.06-0.279,0.087c-0.109,0.036-0.209,0.091-0.297,0.158
						c-0.021,0.008-0.042,0.015-0.063,0.021c-0.11,0.036-0.211,0.091-0.299,0.16c-0.021,0.007-0.041,0.014-0.062,0.021
						c-0.089,0.029-0.171,0.071-0.246,0.122c-0.057,0.013-0.114,0.024-0.173,0.037c-0.151,0.032-0.289,0.097-0.405,0.187
						c-0.028,0.01-0.056,0.02-0.083,0.029c-0.103,0.037-0.197,0.089-0.281,0.154c-0.021,0.007-0.041,0.014-0.062,0.021
						c-0.104,0.035-0.199,0.085-0.283,0.148c-0.047,0.018-0.094,0.036-0.143,0.056c-0.079,0.033-0.152,0.075-0.218,0.125
						c-0.046,0.017-0.094,0.035-0.142,0.055c-0.116,0.048-0.22,0.116-0.307,0.2c-0.012,0.007-0.024,0.014-0.036,0.021
						c-0.014,0.007-0.028,0.015-0.043,0.022c-0.108,0.03-0.219,0.069-0.335,0.118c-0.074,0.03-0.143,0.069-0.206,0.115
						c-0.029,0.01-0.058,0.02-0.086,0.029c-0.077,0.025-0.149,0.06-0.216,0.102c-0.08,0.017-0.163,0.034-0.25,0.056
						c-0.119,0.03-0.228,0.08-0.324,0.146c-0.065,0.019-0.125,0.038-0.179,0.056c-0.042,0.015-0.083,0.031-0.123,0.051
						c-0.015,0.007-0.029,0.015-0.043,0.021c-0.12,0.027-0.229,0.059-0.323,0.085c-0.079,0.023-0.179,0.069-0.252,0.112
						c-0.096,0.026-0.183,0.056-0.26,0.081c-0.031,0.011-0.062,0.022-0.091,0.035c-0.176,0.021-0.337,0.087-0.472,0.186
						c-0.167-0.122-0.372-0.192-0.59-0.192h-0.22c-0.354,0-0.676,0.187-0.854,0.48c-0.013-0.005-0.025-0.01-0.038-0.014
						c-0.059-0.031-0.122-0.057-0.188-0.076V25.77c0-0.168-0.039-0.329-0.11-0.476V24.95c0-0.148-0.033-0.293-0.095-0.425
						c-0.013-0.034-0.028-0.068-0.045-0.102V23.78c0-0.122-0.02-0.239-0.057-0.351c-0.004-0.022-0.008-0.045-0.013-0.067V22.28
						c0-0.159-0.037-0.315-0.106-0.46c-0.013-0.035-0.027-0.069-0.043-0.102V20.34c0-0.159-0.038-0.315-0.11-0.456V18.84
						c0-0.152-0.035-0.301-0.1-0.436c0.073-0.025,0.143-0.06,0.21-0.102c0.292-0.183,0.47-0.518,0.47-0.862
						c0-0.467-0.349-0.859-0.79-0.969V16.47c0-0.127-0.024-0.252-0.071-0.37c-0.013-0.031-0.026-0.061-0.039-0.088v-0.213
						c0.092-0.047,0.177-0.107,0.251-0.181c0.123-0.093,0.225-0.215,0.294-0.354c0.006-0.012,0.012-0.025,0.02-0.04
						c0.091-0.051,0.174-0.115,0.245-0.191c0.163-0.13,0.285-0.309,0.343-0.515C2.621,14.571,2.755,14.6,2.895,14.6h0.11
						c0.047,0,0.095-0.003,0.142-0.01c0.08-0.011,0.162-0.025,0.244-0.04c0.063-0.011,0.125-0.022,0.186-0.031
						c0.078-0.011,0.153-0.031,0.226-0.06h0.664c0.058,0.012,0.118,0.019,0.179,0.02c0.397,0.008,0.782,0.01,1.165,0.01
						c0.113,0.05,0.236,0.081,0.356,0.089c0.129,0.009,0.258,0.018,0.38,0.02c0.097,0.014,0.196,0.023,0.296,0.03
						c0.123,0.053,0.257,0.081,0.393,0.081h0.72c0.127,0,0.252-0.024,0.369-0.07c0.602-0.003,1.138-0.016,1.601-0.04h0.11
						c0.098,0,0.209-0.02,0.309-0.05c0.352-0.007,0.659-0.195,0.833-0.475c0.069-0.012,0.136-0.031,0.2-0.057
						c0.064-0.003,0.126-0.013,0.188-0.028h0.262c0.102,0,0.2-0.014,0.292-0.04h0.108c0.055,0,0.11-0.004,0.165-0.014
						c0.069-0.012,0.145-0.017,0.226-0.017c0.136,0,0.27-0.028,0.392-0.08h0.038c0.093,0,0.184-0.011,0.271-0.034
						c0.068-0.006,0.135-0.018,0.2-0.036h0.179c0.047,0,0.095-0.003,0.142-0.01c0.094-0.013,0.194-0.02,0.289-0.02
						c0.128,0,0.253-0.024,0.368-0.07h0.242c0.073,0,0.144-0.008,0.212-0.024c0.186,0.01,0.374,0.017,0.578,0.024h0.14
						c0.071,0,0.141-0.007,0.21-0.022c0.133-0.003,0.266-0.01,0.398-0.018h0.082c0.093,0,0.187-0.017,0.278-0.046
						c0.008-0.001,0.016-0.002,0.024-0.003c0.101-0.013,0.188-0.021,0.268-0.021h0.29c0.096,0,0.19-0.014,0.28-0.04h0.11
						c0.098,0,0.185-0.013,0.259-0.03h0.101c0.259,0,0.479-0.013,0.682-0.04h0.078c0.082,0,0.162-0.011,0.24-0.03h0.01
						c0.098,0,0.192-0.014,0.281-0.04h0.069c0.082,0,0.179-0.016,0.269-0.04h0.241c0.091,0,0.184-0.01,0.276-0.03h0.154
						c0.109,0,0.216-0.014,0.319-0.041c0.08-0.003,0.152-0.014,0.217-0.029h0.033c0.096,0,0.19-0.014,0.28-0.04h0.08
						c0.083,0,0.165-0.01,0.244-0.03h0.226c0.114,0,0.216-0.018,0.302-0.04h0.128c0.234,0,0.445-0.013,0.643-0.04h0.037
						c0.086,0,0.172-0.01,0.255-0.031c0.075-0.003,0.151-0.017,0.225-0.039h0.021c0.052,0,0.103-0.004,0.154-0.012
						c0.13,0.133,0.297,0.23,0.483,0.274c0.019,0.007,0.038,0.013,0.058,0.019c0.135,0.083,0.291,0.136,0.458,0.147
						c0.083,0.024,0.166,0.033,0.261,0.033c0.089,0.025,0.182,0.039,0.275,0.039h0.39c0.077,0,0.178-0.014,0.255-0.033
						c0.15-0.011,0.294-0.056,0.423-0.13c0.018-0.006,0.035-0.011,0.051-0.017c0.005-0.001,0.01-0.003,0.016-0.004
						c0.087-0.008,0.173-0.028,0.254-0.059c0.032-0.008,0.064-0.017,0.094-0.027c0.09-0.019,0.176-0.05,0.256-0.093
						c0.043-0.007,0.086-0.017,0.127-0.03c0.179-0.012,0.346-0.071,0.487-0.165c0.056-0.013,0.11-0.032,0.162-0.054
						c0.127-0.02,0.247-0.066,0.354-0.132c0.014-0.006,0.028-0.012,0.042-0.018c0.062-0.01,0.122-0.024,0.18-0.045
						c0.097-0.023,0.189-0.063,0.273-0.114c0.057-0.014,0.112-0.034,0.165-0.058c0.019-0.005,0.037-0.011,0.055-0.018
						c0.068-0.02,0.135-0.046,0.2-0.08c0.005-0.002,0.011-0.004,0.016-0.006c0.056-0.009,0.113-0.022,0.167-0.038
						c0.138-0.027,0.268-0.083,0.381-0.164c0.058-0.016,0.115-0.036,0.17-0.062c0.05-0.019,0.098-0.042,0.144-0.069
						c0.016-0.005,0.032-0.011,0.048-0.017c0.049-0.014,0.1-0.032,0.151-0.055c0.108-0.026,0.211-0.069,0.306-0.129
						c0.109-0.02,0.213-0.057,0.309-0.11c0.052-0.016,0.104-0.036,0.153-0.059c0.031-0.012,0.061-0.026,0.091-0.041
						c0.015-0.005,0.03-0.01,0.044-0.015c0.124-0.026,0.242-0.075,0.348-0.145c0.002-0.001,0.005-0.003,0.009-0.006
						c0.051-0.014,0.102-0.032,0.151-0.054c0.144-0.027,0.277-0.086,0.393-0.171c0.011-0.004,0.022-0.01,0.034-0.015
						c0.139-0.029,0.267-0.088,0.378-0.168c0.001,0,0.002-0.001,0.003-0.001l0.022-0.01c0.079-0.023,0.154-0.056,0.225-0.097
						c0.011-0.005,0.021-0.011,0.032-0.017c0.003-0.001,0.006-0.002,0.009-0.003c0.081-0.016,0.159-0.042,0.233-0.076
						c0.084-0.02,0.165-0.05,0.24-0.091c0.024-0.008,0.049-0.018,0.073-0.027c0.028-0.011,0.057-0.024,0.083-0.039
						c0.063-0.016,0.125-0.039,0.184-0.066c0.068-0.026,0.133-0.06,0.194-0.101c0.031-0.011,0.061-0.023,0.091-0.037
						c0,0,0.001,0,0.001,0c0.11-0.026,0.214-0.072,0.307-0.134c0.144-0.028,0.28-0.088,0.397-0.174
						c0.14-0.022,0.273-0.075,0.391-0.152c0.023-0.01,0.044-0.02,0.063-0.029c0.045-0.014,0.088-0.03,0.131-0.05
						c0,0,0.001,0,0.001,0c0.142-0.034,0.273-0.1,0.385-0.19c0.012-0.005,0.023-0.01,0.035-0.015
						c0.091-0.031,0.177-0.076,0.255-0.131c0.023-0.009,0.045-0.018,0.067-0.028c0.125-0.032,0.242-0.09,0.344-0.167
						c0.01-0.005,0.021-0.011,0.031-0.018c0.103-0.028,0.199-0.074,0.286-0.132c0.013-0.005,0.025-0.01,0.037-0.015
						c0.096-0.029,0.188-0.072,0.271-0.128c0.033-0.014,0.066-0.028,0.099-0.045c0,0,0.001-0.001,0.002-0.001
						c0.136-0.038,0.264-0.105,0.374-0.197c0.059-0.028,0.115-0.061,0.168-0.1c0.031-0.016,0.061-0.034,0.089-0.053
						c0.1-0.039,0.193-0.093,0.276-0.162c0.004-0.002,0.008-0.004,0.012-0.006c0.153-0.053,0.29-0.143,0.398-0.258
						c0.005-0.005,0.01-0.01,0.015-0.015c0.228-0.116,0.406-0.316,0.491-0.56c0.033-0.023,0.064-0.049,0.094-0.077
						C38.482,7.688,38.51,7.659,38.536,7.629 M38.955,6.6v0.04c-0.39-0.01-0.79-0.02-1.18-0.04v0.38c-0.12-0.01-0.24-0.02-0.36-0.02
						v0.5h-0.07V7.5h-0.11v0.03c0,0.03-0.01,0.04-0.03,0.04V7.6c-0.03,0-0.04,0.02-0.04,0.04c-0.03,0-0.04,0.01-0.04,0.04h-0.1v0.03
						c-0.03,0.03-0.05,0.04-0.08,0.04l-0.03,0.03c-0.03,0-0.05,0.02-0.07,0.04l-0.04,0.04h-0.11v0.03
						c-0.02,0.03-0.04,0.04-0.07,0.04v0.03c-0.02,0-0.06,0.02-0.1,0.04l-0.04,0.04h-0.04c-0.02,0.02-0.04,0.03-0.07,0.03
						c-0.02,0.02-0.04,0.04-0.07,0.04v0.03l-0.04,0.04c-0.02,0-0.06,0.01-0.1,0.03h-0.08v0.04c-0.04,0.02-0.09,0.04-0.14,0.04v0.03
						c-0.02,0-0.05,0.02-0.07,0.04c-0.05,0-0.08,0.01-0.11,0.04h-0.04c-0.02,0.02-0.04,0.03-0.07,0.03
						c-0.02,0.02-0.04,0.04-0.07,0.04V8.5c-0.05,0-0.09,0.02-0.14,0.04h-0.07v0.03c-0.03,0.03-0.05,0.04-0.08,0.04
						c-0.02,0.02-0.04,0.04-0.07,0.04v0.03c-0.05,0-0.09,0.01-0.14,0.04l-0.04,0.03h-0.14v0.04c-0.03,0.02-0.05,0.04-0.07,0.04v0.03
						c-0.03,0-0.06,0.01-0.11,0.04c-0.02,0-0.05,0.01-0.07,0.03h-0.11v0.04c0,0.02-0.01,0.03-0.04,0.03v0.04
						c-0.04,0-0.09,0.01-0.14,0.04c-0.02,0-0.05,0.01-0.07,0.03h-0.11v0.04c-0.04,0.02-0.08,0.04-0.11,0.04l-0.03,0.03
						c-0.02,0-0.05,0.01-0.07,0.04c-0.05,0-0.1,0.01-0.15,0.03h-0.07c-0.02,0.03-0.05,0.04-0.07,0.04
						c-0.02,0.02-0.05,0.03-0.07,0.03V9.4c-0.03,0-0.05,0.01-0.07,0.04c-0.05,0-0.1,0.01-0.15,0.03h-0.1v0.04
						c-0.03,0.02-0.05,0.03-0.08,0.03v0.04c-0.05,0-0.09,0.01-0.14,0.04c-0.03,0-0.05,0.01-0.07,0.03h-0.11v0.04
						c-0.02,0.02-0.05,0.03-0.07,0.03l-0.04,0.04c-0.02,0-0.05,0.01-0.07,0.03c-0.05,0-0.09,0.02-0.14,0.04h-0.07v0.04
						c-0.05,0.02-0.1,0.03-0.15,0.03v0.04c-0.05,0-0.1,0.01-0.14,0.03c-0.03,0-0.05,0.02-0.07,0.04h-0.15v0.04
						c-0.05,0.02-0.09,0.03-0.14,0.03v0.04c-0.03,0-0.05,0.01-0.07,0.03c-0.03,0-0.06,0.02-0.11,0.04h-0.07
						c-0.03,0.02-0.05,0.03-0.07,0.03c-0.03,0.03-0.05,0.04-0.08,0.04v0.05c-0.04,0-0.09,0.01-0.14,0.03
						c-0.02,0-0.05,0.02-0.07,0.04h-0.11v0.04c-0.02,0.02-0.05,0.03-0.07,0.03v0.04c-0.05,0-0.1,0.01-0.14,0.03h-0.04l-0.03,0.04
						h-0.15v0.03c-0.05,0.03-0.08,0.04-0.11,0.04v0.03c-0.02,0-0.04,0.02-0.07,0.04c-0.05,0-0.09,0.01-0.14,0.04h-0.04
						c-0.02,0.02-0.05,0.03-0.07,0.03c-0.02,0.02-0.05,0.04-0.07,0.04l-0.04,0.03c-0.04,0-0.09,0.02-0.14,0.04
						c-0.02,0-0.05,0.01-0.07,0.04h-0.14v0.03c-0.05,0.02-0.09,0.04-0.11,0.04l-0.04,0.03c-0.02,0-0.05,0.02-0.07,0.04
						c-0.05,0-0.08,0.01-0.11,0.03h-0.03c-0.03,0.03-0.05,0.04-0.08,0.04c-0.04,0.02-0.09,0.04-0.14,0.04l-0.03,0.03
						c-0.03,0-0.05,0.01-0.08,0.04c-0.02,0-0.04,0.01-0.07,0.03h-0.11c0,0.03-0.01,0.04-0.03,0.04c-0.03,0.02-0.06,0.03-0.11,0.03
						v0.04c-0.02,0-0.05,0.01-0.07,0.04c-0.03,0-0.06,0.01-0.11,0.03h-0.18v0.04c-0.05,0.02-0.08,0.03-0.11,0.03l-0.03,0.04
						c-0.03,0-0.06,0.01-0.11,0.03c-0.02,0-0.06,0.01-0.11,0.04h-0.18v0.04c-0.02,0.02-0.04,0.03-0.07,0.03v0.04
						c-0.04,0-0.08,0.01-0.11,0.03c-0.04,0-0.1,0.02-0.18,0.04h-0.07v0.03c-0.01,0.01-0.02,0.01-0.03,0.01
						c-0.03,0.02-0.07,0.03-0.11,0.03v0.04c-0.05,0-0.09,0.01-0.14,0.03c-0.05,0-0.09,0.01-0.11,0.04h-0.14
						c0,0.02-0.02,0.03-0.04,0.03c-0.02,0.03-0.06,0.04-0.11,0.04v0.03c-0.02,0-0.03,0.02-0.03,0.04h-0.11
						c-0.05,0-0.09,0.01-0.11,0.04h-0.14c0,0.02-0.02,0.03-0.04,0.03c-0.02,0.03-0.06,0.04-0.11,0.04v0.03
						c-0.05,0-0.09,0.02-0.14,0.04c-0.05,0-0.09,0.01-0.11,0.03h-0.14c-0.03,0.03-0.05,0.04-0.07,0.04
						c-0.05,0.02-0.1,0.04-0.15,0.04l-0.03,0.03c-0.03,0-0.05,0.01-0.08,0.04c-0.04,0-0.1,0.01-0.18,0.03h-0.39
						c-0.07-0.02-0.15-0.03-0.25-0.03c-0.07-0.03-0.15-0.04-0.22-0.04v-0.03c-0.02,0-0.04-0.02-0.07-0.04
						c-0.05-0.02-0.11-0.04-0.18-0.04c-0.02-0.02-0.06-0.03-0.1-0.03v-0.04l-0.04-0.03V12.2l-0.04-0.03v-0.18h-0.14v-0.04
						c-0.11,0.03-0.22,0.04-0.32,0.04h-0.22c-0.02,0-0.06,0.01-0.11,0.03h-0.25l-0.03,0.04h-0.15c-0.02,0.02-0.05,0.03-0.07,0.03
						h-0.11c-0.19,0.03-0.38,0.04-0.57,0.04h-0.29c-0.05,0.02-0.1,0.04-0.14,0.04h-0.33c-0.04,0-0.09,0.01-0.14,0.03h-0.29
						c-0.02,0-0.05,0.01-0.07,0.04h-0.21c-0.03,0.02-0.05,0.03-0.08,0.03h-0.14c-0.05,0.03-0.09,0.04-0.14,0.04h-0.29
						c-0.05,0.02-0.1,0.03-0.14,0.03h-0.36c-0.05,0-0.1,0.02-0.15,0.04h-0.32c-0.02,0-0.03,0.01-0.03,0.04h-0.22
						c0,0.02-0.01,0.03-0.03,0.03h-0.15c-0.19,0.03-0.39,0.04-0.61,0.04h-0.25c-0.05,0.02-0.08,0.03-0.11,0.03h-0.29
						c-0.04,0-0.08,0.02-0.1,0.04h-0.29c-0.12,0-0.25,0.01-0.4,0.03h-0.14l-0.03,0.04h-0.11c-0.18,0.01-0.36,0.02-0.54,0.02
						c-0.01,0.01-0.02,0.01-0.04,0.02h-0.14c-0.26-0.01-0.52-0.02-0.79-0.04v0.04h-0.5c0,0.02-0.02,0.03-0.04,0.03
						s-0.05,0.01-0.07,0.04c-0.14,0-0.29,0.01-0.43,0.03h-0.4c-0.02,0.03-0.05,0.04-0.07,0.04h-0.11c-0.02,0.02-0.04,0.03-0.07,0.03
						h-0.28c-0.03,0.03-0.05,0.04-0.08,0.04c-0.02,0-0.04,0.01-0.07,0.04c-0.14,0-0.27,0.01-0.39,0.03h-0.36
						c0,0.03-0.01,0.04-0.04,0.04h-0.46c0,0.02-0.01,0.03-0.04,0.03h-0.28v0.04c-0.03,0-0.04,0.01-0.04,0.03
						c-0.07,0-0.15,0.02-0.22,0.04h-0.46v0.42c-0.06,0-0.12,0.01-0.18,0.02c-0.03,0-0.06,0.01-0.11,0.03h-0.11
						c-0.62,0.03-1.24,0.04-1.86,0.04h-0.04l-0.07,0.07h-0.72l-0.07-0.07c-0.17,0-0.35-0.01-0.54-0.04c-0.13,0-0.27-0.01-0.41-0.02
						l-0.02-0.02c-0.01-0.01-0.04-0.03-0.07-0.07c-0.48,0-0.96,0-1.46-0.01l-0.01-0.02h-1.19c0,0.02-0.01,0.05-0.03,0.07
						c-0.14,0.02-0.29,0.05-0.43,0.07h-0.11c-0.02-0.05-0.05-0.08-0.07-0.11c-0.03,0-0.05-0.02-0.07-0.07
						c-0.08-0.02-0.13-0.05-0.18-0.07h-0.07c-0.03-0.02-0.07-0.04-0.11-0.04c-0.05-0.02-0.1-0.03-0.15-0.03h-0.35
						c-0.05,0.02-0.09,0.03-0.11,0.03c-0.05,0.05-0.12,0.09-0.22,0.11c-0.07,0.02-0.14,0.05-0.21,0.07h-0.15
						c-0.02,0.03-0.04,0.05-0.07,0.07c-0.05,0.03-0.11,0.05-0.18,0.08c0,0.02-0.02,0.03-0.07,0.03c-0.02,0.03-0.05,0.05-0.07,0.07
						c-0.02,0.05-0.05,0.09-0.07,0.11c-0.03,0.03-0.05,0.05-0.08,0.07c-0.04,0.03-0.08,0.06-0.1,0.11
						c-0.03,0.02-0.05,0.03-0.07,0.03c-0.03,0.05-0.04,0.09-0.04,0.11v0.26h-0.04l-0.03,0.04c-0.03,0.02-0.05,0.03-0.07,0.03
						c-0.03,0.05-0.05,0.09-0.08,0.11c0,0.03-0.01,0.05-0.03,0.07v0.68c0.02,0.02,0.03,0.06,0.03,0.11
						c0.03,0.03,0.05,0.04,0.08,0.04c0.02,0.04,0.03,0.08,0.03,0.1v0.68c0.03,0.03,0.04,0.05,0.04,0.07
						c0.02,0.03,0.05,0.06,0.07,0.11v1.02l0.04,0.069c0.02,0.021,0.04,0.051,0.07,0.07v1.07c0,0.02,0.01,0.03,0.03,0.03
						c0.03,0.05,0.05,0.09,0.07,0.109v1.32c0.03,0.05,0.04,0.08,0.04,0.109c0.02,0.021,0.05,0.04,0.07,0.07v1.69
						c0.02,0.02,0.05,0.06,0.07,0.109c0.03,0,0.04,0.021,0.04,0.07c0.02,0.021,0.04,0.05,0.04,0.07v1.25
						c0.02,0.02,0.03,0.06,0.03,0.109v0.07c0.03,0.021,0.04,0.04,0.04,0.07v0.92c0.02,0.02,0.03,0.05,0.03,0.069
						c0.03,0.051,0.05,0.091,0.08,0.11c0,0.021,0.01,0.05,0.03,0.07v0.569c0,0.021,0.01,0.061,0.04,0.11
						c0,0.021,0.01,0.05,0.03,0.07c0.03,0.02,0.04,0.05,0.04,0.069v0.75c0.02,0.04,0.03,0.08,0.03,0.11
						c0.03,0.021,0.04,0.04,0.04,0.07c0.02,0.02,0.04,0.05,0.04,0.069c0.02,0.04,0.03,0.08,0.03,0.11c0,0.021,0.01,0.04,0.04,0.07
						c0.02,0.02,0.06,0.06,0.11,0.1c0.02,0.03,0.05,0.05,0.07,0.08c0.041,0.017,0.082,0.033,0.117,0.033
						c0.008,0,0.016-0.001,0.023-0.003c0.05,0.02,0.12,0.05,0.22,0.07c0,0.02,0.02,0.039,0.07,0.039c0.07,0.021,0.13,0.04,0.18,0.07
						c0.02,0.021,0.05,0.04,0.07,0.07c0.05,0.02,0.1,0.05,0.14,0.07h0.08c0.05,0.02,0.1,0.05,0.18,0.069h0.32
						c0.07-0.02,0.13-0.05,0.18-0.069c0.05,0,0.09-0.011,0.14-0.04c0.03-0.04,0.04-0.08,0.04-0.101l0.03-0.07
						c0.03-0.029,0.05-0.05,0.08-0.069v-0.11c0.02,0.021,0.04,0.05,0.07,0.07v0.04c0.02,0.04,0.04,0.069,0.07,0.069
						c0.07,0.021,0.13,0.04,0.18,0.07h0.14c0.05-0.03,0.1-0.05,0.15-0.07h0.14c0.05,0.021,0.1,0.04,0.14,0.07h0.11
						c0.05-0.03,0.08-0.04,0.11-0.04c0-0.02,0.01-0.03,0.03-0.03l0.04-0.039c0.02-0.021,0.05-0.061,0.07-0.11v-0.24
						c0.05-0.005,0.098-0.007,0.145-0.007s0.095,0.002,0.145,0.007V26.8c0.12-0.04,0.24-0.08,0.36-0.1
						c0.02-0.03,0.06-0.05,0.11-0.08c0.14-0.04,0.28-0.08,0.43-0.101c0.02-0.02,0.06-0.05,0.1-0.069c0.15-0.05,0.29-0.09,0.43-0.11
						v-0.07c0.2-0.05,0.38-0.079,0.54-0.109v-0.07c0.12-0.04,0.24-0.08,0.36-0.109V25.92c0.12-0.05,0.24-0.09,0.36-0.11
						c0.02-0.029,0.06-0.05,0.11-0.069c0.07-0.05,0.15-0.09,0.25-0.11v-0.07c0.12-0.05,0.24-0.09,0.36-0.109v-0.07
						c0.12-0.05,0.24-0.09,0.36-0.11V25.2c0.12-0.04,0.24-0.08,0.36-0.11v-0.07c0.11-0.039,0.23-0.079,0.36-0.1v-0.08
						c0.19-0.04,0.37-0.08,0.53-0.12V24.65c0.12-0.04,0.24-0.08,0.36-0.11v-0.07c0.12-0.04,0.24-0.08,0.36-0.1v-0.08
						c0.12-0.04,0.24-0.08,0.36-0.1c0.02-0.021,0.06-0.051,0.11-0.07c0.07-0.05,0.15-0.09,0.25-0.11V23.94
						c0.19-0.051,0.37-0.08,0.54-0.11v-0.07c0.11-0.04,0.23-0.08,0.35-0.109v-0.07c0.13-0.04,0.24-0.08,0.36-0.1v-0.07
						c0.12-0.05,0.24-0.09,0.36-0.11V23.23c0.07-0.051,0.13-0.091,0.18-0.11c0.03-0.021,0.06-0.05,0.11-0.07
						c0.07-0.05,0.15-0.08,0.25-0.109c0.02-0.021,0.06-0.051,0.11-0.07c0.07-0.04,0.15-0.08,0.25-0.11
						c0.02-0.02,0.06-0.04,0.11-0.069c0.07-0.04,0.15-0.08,0.25-0.101v-0.07c0.12-0.05,0.24-0.09,0.36-0.109v-0.07
						c0.12-0.05,0.24-0.09,0.36-0.109c0.02-0.021,0.06-0.051,0.1-0.07c0.08-0.05,0.16-0.08,0.25-0.11V21.98
						c0.08-0.051,0.14-0.08,0.19-0.11V21.8c0.11-0.04,0.23-0.08,0.35-0.1c0.03-0.03,0.06-0.05,0.11-0.08
						c0.14-0.04,0.29-0.08,0.43-0.101V21.45c0.12-0.05,0.24-0.09,0.36-0.11v-0.07c0.12-0.05,0.24-0.079,0.36-0.109
						c0.02-0.021,0.06-0.05,0.1-0.07c0.15-0.05,0.29-0.08,0.43-0.109v-0.07c0.08-0.04,0.14-0.08,0.19-0.11
						c0.02-0.02,0.06-0.04,0.1-0.069c0.15-0.04,0.29-0.08,0.43-0.101v-0.07c0.12-0.05,0.24-0.09,0.36-0.109v-0.07
						c0.12-0.05,0.24-0.09,0.36-0.11V20.2c0.12-0.04,0.24-0.08,0.36-0.11c0.02-0.02,0.06-0.04,0.11-0.07
						c0.07-0.039,0.15-0.079,0.25-0.1c0.07-0.03,0.13-0.05,0.18-0.08c0.12-0.04,0.24-0.08,0.35-0.1c0.1-0.03,0.2-0.05,0.29-0.07
						c0.07-0.05,0.16-0.1,0.25-0.15v-0.14c0.1-0.05,0.19-0.1,0.29-0.149c0.07-0.04,0.16-0.08,0.25-0.101v0.39
						c0.03,0.021,0.05,0.061,0.07,0.11c0.03,0.021,0.05,0.04,0.08,0.07c0.07,0,0.13,0.01,0.17,0.03c0.08-0.021,0.14-0.03,0.19-0.03
						h0.21c0.05,0.02,0.11,0.04,0.18,0.069c0.02,0.04,0.05,0.08,0.07,0.101c0.02,0,0.05,0.03,0.07,0.08
						c0.07,0.02,0.15,0.04,0.22,0.069v0.03c0,0.03,0.01,0.05,0.03,0.07c0,0.05,0.02,0.09,0.04,0.11c0.02,0.02,0.05,0.05,0.07,0.069
						c0.02,0.03,0.05,0.061,0.07,0.11c0.03,0.02,0.04,0.05,0.04,0.07c0,0.02,0.02,0.05,0.07,0.069c0.02,0.021,0.06,0.061,0.11,0.11
						v0.07c0.02,0.02,0.03,0.05,0.03,0.069c0.03,0.05,0.05,0.07,0.08,0.07v0.36c0.02,0.05,0.04,0.069,0.07,0.069
						c0.02,0.021,0.05,0.061,0.07,0.11c0.05,0.02,0.08,0.04,0.11,0.06c0.07,0,0.14,0.021,0.21,0.04h0.14c0.05,0,0.09-0.01,0.11-0.04
						h0.08c0.02,0,0.04-0.01,0.07-0.029c0-0.051,0.01-0.08,0.03-0.11c0-0.021,0.02-0.04,0.04-0.07v-0.1l-0.04-0.04v-0.04
						c0-0.021-0.01-0.04-0.03-0.07c-0.05-0.04-0.09-0.08-0.11-0.1c-0.02-0.03-0.05-0.05-0.07-0.08V20.77c0.39,0,0.78,0,1.17,0.011
						c0.27,0.01,0.56,0.01,0.84,0.02V20.73c0.07-0.04,0.13-0.08,0.18-0.11v-0.3c0.06-0.03,0.12-0.04,0.18-0.061V20.19
						c0.07-0.04,0.13-0.08,0.18-0.101v-0.04c0.16,0.01,0.33,0.01,0.5,0.021v0.02c0,0.04,0.01,0.08,0.04,0.101
						c0.02,0.02,0.04,0.06,0.07,0.109c0.07,0,0.14,0.01,0.21,0.03h0.07c0.07-0.021,0.13-0.03,0.18-0.03l0.07-0.03
						c0.03-0.029,0.05-0.06,0.08-0.109c0-0.03,0.01-0.05,0.03-0.07c0.03-0.005,0.06-0.008,0.09-0.008c0.03,0,0.061,0.003,0.09,0.008
						l0.04-0.04c0.05-0.02,0.08-0.06,0.11-0.109c0-0.04,0.01-0.08,0.03-0.101v-1.62c0.07-0.05,0.14-0.09,0.18-0.109v-0.25
						c0.07-0.051,0.13-0.08,0.18-0.11V17.5c0.07-0.04,0.13-0.08,0.18-0.1v-0.07c0.07-0.05,0.13-0.09,0.18-0.11v-0.25
						c0.07-0.05,0.14-0.1,0.22-0.14c0.04-0.05,0.09-0.1,0.14-0.15c0.05-0.05,0.1-0.1,0.14-0.14V16.5h0.04l0.11-0.11
						c0-0.01,0.01-0.03,0.02-0.05c0.02-0.01,0.04-0.01,0.05-0.02v-0.03c0.05,0,0.09-0.02,0.14-0.04c0.03-0.02,0.06-0.05,0.11-0.07
						c0.02-0.02,0.06-0.04,0.11-0.04c0.05-0.02,0.07-0.05,0.07-0.07c0.07-0.02,0.14-0.05,0.21-0.07c0.03-0.02,0.08-0.05,0.15-0.07
						c0.04,0,0.09-0.01,0.14-0.04c0.02,0,0.06-0.01,0.11-0.03c0.02-0.03,0.07-0.04,0.14-0.04c0.02-0.02,0.05-0.03,0.07-0.03
						c0.03-0.03,0.07-0.04,0.15-0.04c0.02-0.02,0.06-0.04,0.1-0.04c0.05-0.02,0.09-0.03,0.11-0.03c0.29-0.03,0.57-0.05,0.83-0.07
						c0.07-0.03,0.14-0.05,0.21-0.07h0.15V15.5c0.22-0.01,0.45-0.02,0.68-0.04h1.26c0.06,0.02,0.11,0.04,0.17,0.04h0.04v0.04
						l0.04,0.04v0.03c0.02,0,0.03,0.01,0.03,0.04h0.04v0.21l0.03,0.04v0.03c0.03,0,0.04,0.01,0.04,0.04V16l0.07,0.08
						c0.02,0,0.04,0.01,0.04,0.03c0.02,0,0.03,0.01,0.03,0.04v0.03h0.04v0.04l0.04,0.03c0,0.03,0.01,0.04,0.03,0.04v0.04l0.04,0.03
						v0.04c0,0.02,0.01,0.04,0.03,0.04v0.03c0.03,0,0.04,0.01,0.04,0.04l0.04,0.03c0.02,0,0.04,0.02,0.07,0.04v0.07
						c0.02,0,0.03,0.01,0.03,0.04v0.029l0.07,0.07c0,0.02,0.02,0.04,0.04,0.04v0.03l0.22,0.22v0.04l0.03,0.03v0.069
						c0.03,0,0.04,0.011,0.04,0.04c0.02,0.021,0.05,0.03,0.07,0.03l0.04,0.04c0,0.02,0.01,0.04,0.03,0.04v0.03l0.04,0.029v0.04
						c0.02,0,0.06,0.011,0.11,0.04v0.07l0.07,0.07c0.04,0.02,0.08,0.04,0.1,0.04h0.62c0.01,0.01,0.02,0.02,0.03,0.029
						c0.01-0.01,0.02-0.02,0.04-0.029v-0.15l-0.04-0.03c-0.01-0.02-0.02-0.029-0.03-0.04v-0.29c0-0.01,0-0.02-0.01-0.02
						c0.011-0.003,0.021-0.004,0.032-0.004c0.029,0,0.057,0.009,0.079,0.023v0.04c0.03,0.021,0.05,0.03,0.07,0.03
						c0.03,0.03,0.06,0.04,0.11,0.04c0.05,0.02,0.1,0.04,0.15,0.04h0.82c0.29,0,0.57-0.021,0.86-0.04c0.05,0,0.1-0.01,0.15-0.04
						h0.21v-0.07c0.1,0,0.18-0.01,0.25-0.029c0.1,0,0.18-0.011,0.25-0.04c0.03,0,0.05-0.011,0.07-0.03h0.11v-0.07
						c0.03,0,0.04-0.02,0.04-0.04h0.21V16.9l0.04-0.051c0-0.02,0.01-0.04,0.04-0.04c0.02,0,0.03-0.01,0.03-0.029
						c0.02,0,0.05-0.011,0.07-0.04v-0.03h0.11v-0.07c0.02,0,0.05-0.02,0.07-0.04c0.03,0,0.06-0.01,0.11-0.029v-0.08l0.07-0.07
						c0.03,0,0.06-0.01,0.11-0.03v-0.07l0.11-0.11c0.02,0,0.05-0.01,0.07-0.04h0.03v-0.03l0.04-0.04c0.02,0,0.06-0.01,0.11-0.04
						v-0.03l0.03-0.04v-0.03l0.07-0.07c0.03,0,0.05-0.02,0.08-0.04l0.03-0.04c0.12,0,0.24-0.01,0.36-0.03v-0.04
						c0.03,0,0.04-0.01,0.04-0.03c0.02,0,0.05-0.02,0.07-0.04c0.02,0,0.04-0.01,0.04-0.03h0.03c0.03-0.03,0.05-0.04,0.07-0.04
						c0-0.02,0.02-0.03,0.04-0.03c0.02-0.03,0.05-0.04,0.07-0.04c0-0.02,0.01-0.04,0.04-0.04c0-0.02,0.01-0.03,0.03-0.03v-0.01
						c0.01-0.02,0.02-0.03,0.04-0.03c0-0.02,0.01-0.03,0.03-0.03c0.03,0,0.04-0.02,0.04-0.04c0.02,0,0.06-0.01,0.11-0.04h0.04
						c0.01-0.02,0.03-0.03,0.05-0.03h0.02l0.03-0.04l0.07-0.03v-0.04h0.04l0.04-0.03c0.02,0,0.06-0.02,0.11-0.04h0.03
						c0.03-0.02,0.05-0.04,0.07-0.04l0.04-0.03c0.02,0,0.04-0.01,0.04-0.04c0.02,0,0.03-0.01,0.03-0.03c0.03,0,0.05-0.01,0.08-0.04
						l0.1-0.11c0.03,0,0.04-0.01,0.04-0.03c0.02,0,0.05-0.01,0.07-0.02v0.09c0.14,0.02,0.27,0.05,0.39,0.07
						c0.05,0.05,0.09,0.08,0.11,0.11c0.79,0,1.58,0.01,2.37,0.03v-0.07h0.27c2.44-0.03,4.87-0.05,7.3-0.07
						c0.05,0.05,0.08,0.1,0.11,0.14c0,0.05,0.01,0.1,0.04,0.15c0.09,0.05,0.189,0.1,0.28,0.14c0.029,0.03,0.06,0.06,0.109,0.11
						s0.08,0.1,0.11,0.14c0,0.05,0.01,0.1,0.03,0.15c0.069,0.02,0.14,0.05,0.18,0.07v0.11c0.12,0.02,0.24,0.05,0.359,0.07v0.11
						c0.07,0.02,0.131,0.05,0.181,0.07v0.11c0.12,0.02,0.24,0.04,0.359,0.06v0.11c0.141,0.03,0.271,0.05,0.391,0.07l0.109,0.109
						c0.381,0.03,0.771,0.051,1.15,0.07c0.04,0.05,0.08,0.09,0.1,0.11c0.721,0,1.45,0.01,2.19,0.029c0.03-0.02,0.06-0.04,0.11-0.069
						c0.55-0.04,1.109-0.08,1.689-0.101c0.021-0.029,0.061-0.05,0.101-0.069c0.439-0.051,0.88-0.091,1.33-0.11v-0.07
						c0.479-0.05,0.96-0.09,1.439-0.11v-0.07c0.43-0.05,0.85-0.08,1.25-0.11c0.03-0.02,0.061-0.05,0.11-0.07
						c0.43-0.05,0.88-0.08,1.33-0.11c0.02-0.02,0.06-0.04,0.109-0.07c0.55-0.05,1.11-0.08,1.681-0.11v-0.07
						c0.56-0.04,1.09-0.08,1.619-0.11v-0.06c0.12-0.02,0.23-0.03,0.341-0.04h10.1c0.07,0,0.13-0.01,0.18-0.04h0.04
						c0.021-0.02,0.051-0.04,0.07-0.07c0.49,0.01,0.98,0.02,1.47,0.04c0.03-0.03,0.061-0.05,0.11-0.08c0.62-0.04,1.24-0.08,1.87-0.1
						c0.02-0.02,0.05-0.05,0.1-0.07c0.19-0.05,0.4-0.09,0.61-0.11V15c0.24-0.05,0.479-0.1,0.72-0.15v-0.03h0.36
						c0.05,0,0.1-0.01,0.14-0.04l0.04-0.03c0.021,0,0.05-0.02,0.07-0.04c0.029-0.02,0.05-0.04,0.069-0.04
						c0.03,0,0.051-0.01,0.07-0.03c0-0.05,0.021-0.08,0.04-0.11c0.021-0.02,0.04-0.05,0.04-0.07v-0.11h0.96v-0.18h0.36v-2.12
						c-0.061-0.01-0.12-0.01-0.181-0.01V11.5c0.04-0.01,0.07-0.02,0.11-0.02c0-0.05,0.01-0.1,0.04-0.15
						c0.01-0.01,0.03-0.03,0.05-0.05c0.17,0.01,0.34,0.01,0.521,0.02v-0.07h0.14v-0.02c0.4-0.03,0.79-0.05,1.19-0.07v0.09h0.029
						v-0.09c0.15-0.01,0.29-0.02,0.431-0.02c0.029-0.03,0.06-0.05,0.109-0.07c3.11,0,6.23,0,9.351,0.01l0.02-0.01v-0.11
						c-0.03-0.02-0.05-0.05-0.07-0.07c-0.029-0.03-0.039-0.05-0.039-0.07l-0.021-0.04h0.521V9.9c0.029-0.02,0.05-0.05,0.069-0.07
						c0.03-0.03,0.04-0.05,0.04-0.07V9.47l-0.04-0.04c0-0.04-0.01-0.08-0.03-0.1c-0.02-0.03-0.029-0.04-0.039-0.06V8.65h-0.07
						c0.01-0.04,0.02-0.06,0.04-0.08c0-0.02,0.01-0.06,0.03-0.11V8.39c0-0.02-0.011-0.05-0.03-0.07c0-0.05-0.021-0.07-0.04-0.07
						c-0.021-0.05-0.05-0.08-0.07-0.11c-0.07-0.02-0.13-0.05-0.18-0.07h-0.07v0.04h-0.04c-0.02-0.03-0.05-0.04-0.069-0.04
						c-0.051-0.02-0.11-0.03-0.181-0.03h-1.649V7.32c-0.021-0.05-0.03-0.1-0.03-0.15c-0.03-0.04-0.07-0.09-0.12-0.14
						c-0.78,0-1.57-0.01-2.36-0.03v0.1c-0.05,0.03-0.109,0.06-0.18,0.11v0.74c-0.17-0.01-0.34-0.02-0.5-0.02
						c-0.03-0.03-0.05-0.05-0.08-0.07c-0.3-0.01-0.59-0.02-0.89-0.04v0.14c0.02,0.03,0.05,0.05,0.069,0.08h-37.54l-0.029,0.03V8.04
						c-0.05-0.05-0.09-0.09-0.11-0.11h-0.07V7.86c0-0.03-0.02-0.06-0.04-0.11h-1.25c-0.029-0.05-0.05-0.09-0.079-0.11
						c0-0.05-0.011-0.08-0.03-0.11h-0.4V7.5h-0.89v0.03h-0.33V7.5h-0.43v0.03h-1.25V7.5h-0.431v0.03h-0.26V7.5h-0.43v0.03h-0.1V7.5
						h-0.47v0.03h-2.19l0.04-0.03V7.48h-0.43V7.5c0.02,0,0.04,0.01,0.07,0.03h-0.22V7.48c-2.17-0.01-4.35-0.01-6.53-0.02V7.1
						c0-0.02-0.01-0.03-0.03-0.03V7.03h-0.4V7h-0.29V6.64h-0.07C39.325,6.63,39.145,6.62,38.955,6.6L38.955,6.6z M34.975,14.19
						c0.03-0.01,0.07-0.01,0.11-0.02l-0.02,0.02H34.975L34.975,14.19z M1.275,14.35c0.04-0.03,0.06-0.05,0.08-0.07
						c0.04-0.02,0.1-0.05,0.18-0.07l0.01-0.02c-0.01,0.02-0.01,0.04-0.01,0.06c-0.05,0-0.09,0.01-0.11,0.03v0.07H1.275L1.275,14.35z
						 M1.175,14.5v-0.04c0.02-0.02,0.05-0.05,0.07-0.07v0.07C1.225,14.47,1.195,14.48,1.175,14.5L1.175,14.5z M40.105,14.5
						c-0.14,0-0.28-0.01-0.43-0.01c0.15-0.01,0.29-0.01,0.43-0.01V14.5L40.105,14.5z M1.065,14.641L1.065,14.641L1.065,14.641v0.029
						l-0.01,0.01C1.065,14.661,1.065,14.65,1.065,14.641L1.065,14.641z M0.885,14.92v-0.1l0.04-0.04c0.02,0,0.03-0.01,0.03-0.03
						c0.03,0,0.05-0.02,0.07-0.04c0.01-0.01,0.02-0.01,0.02-0.01c-0.01,0.04-0.03,0.08-0.05,0.12
						C0.945,14.84,0.915,14.88,0.885,14.92L0.885,14.92z M36.625,16.07v-0.68c-0.02,0-0.03-0.01-0.03-0.03
						c0.02,0,0.05-0.02,0.07-0.04V15c0.94,0.01,1.89,0.02,2.83,0.04v1.36h-0.14v0.04c0,0.02-0.02,0.03-0.04,0.03v0.04
						c-0.02,0-0.06,0.01-0.11,0.03c-0.02,0-0.04,0.02-0.07,0.04c-0.12,0-0.24,0.01-0.36,0.04h-0.14v0.07
						c-0.07,0-0.14,0.01-0.21,0.029c-0.24,0-0.48,0.011-0.72,0.04h-0.18c-0.05-0.029-0.09-0.04-0.11-0.04s-0.05-0.01-0.07-0.029
						v-0.04c-0.05-0.021-0.1-0.03-0.14-0.03c-0.02-0.01-0.03-0.021-0.04-0.021v-0.02c-0.03-0.01-0.06-0.021-0.09-0.021
						c-0.02-0.01-0.04-0.02-0.05-0.02h-0.04v-0.07c-0.05-0.03-0.08-0.04-0.11-0.04c0-0.02-0.01-0.03-0.03-0.03v-0.04
						c-0.03,0-0.04-0.01-0.04-0.03v-0.04c-0.02,0-0.03-0.01-0.03-0.04c-0.03,0-0.05-0.01-0.08-0.03v-0.15H36.625L36.625,16.07z
						 M1.245,17.47c-0.02-0.01-0.03-0.02-0.04-0.029h0.04V17.47L1.245,17.47z M3.465,27.12c0-0.021-0.01-0.04-0.03-0.07
						c-0.03-0.04-0.05-0.08-0.07-0.1c0-0.03-0.01-0.05-0.04-0.07h0.22c-0.02,0.01-0.03,0.021-0.04,0.03c0,0.03-0.01,0.05-0.04,0.07
						V27.12L3.465,27.12z"/>
				</g>
			</g>
		</g>
	</g>
</g>
</svg>
