<?xml version="1.0" encoding="utf-8"?>
<!-- Generator: Adobe Illustrator 16.0.0, SVG Export Plug-In . SVG Version: 6.00 Build 0)  -->
<!DOCTYPE svg PUBLIC "-//W3C//DTD SVG 1.0//EN" "http://www.w3.org/TR/2001/REC-SVG-20010904/DTD/svg10.dtd">
<svg version="1.0" id="图层_1" xmlns="http://www.w3.org/2000/svg" xmlns:xlink="http://www.w3.org/1999/xlink" x="0px" y="0px"
	 width="83.5px" height="32px" viewBox="0 0 83.5 32" enable-background="new 0 0 83.5 32" xml:space="preserve">
<g id="Selected_Items">
	<g>
		<g id="Selected_Items_64_">
			<linearGradient id="SVGID_1_" gradientUnits="userSpaceOnUse" x1="2.093528e-03" y1="16.2226" x2="83.1808" y2="16.2226">
				<stop  offset="0" style="stop-color:#FFD93F"/>
				<stop  offset="1" style="stop-color:#FF310E"/>
			</linearGradient>
			<path fill="url(#SVGID_1_)" d="M78.1,3.5c0,0.1,0.1,0.2,0.2,0.3c0.1,0.3,0.2,0.7,0.4,1.2c0.1,0.5,0.2,1.1,0.3,1.6v1.4
				c0.1,0.1,0.2,0.2,0.2,0.3c0,0.2,0.1,0.3,0.2,0.5h0.3c0.2,0,0.3,0,0.4,0c0.1,0,0.1,0,0.3,0l2.4,0l0.1,0.2c0,0.1,0,0.3,0.1,0.4
				c0.1,0.2,0.2,0.4,0.2,0.6c0.1,0.3,0.1,0.5,0,0.7c-0.1,0.2-0.2,0.4-0.4,0.5c-0.3,0.1-0.6,0.2-0.9,0.2c-0.3,0.1-0.6,0.1-0.7,0.1
				c0,0-0.2,0-0.4,0.1c-0.2,0-0.3,0.1-0.4,0.1h-0.3c-0.1,0-0.3,0-0.5-0.1c0,0.3,0,0.5-0.1,0.7c-0.1,0.3-0.2,0.4-0.6,0.5
				c-0.1,0-0.2,0-0.3,0c0,0.1-0.1,0.1-0.1,0.1l-0.1,0v0.7l-0.2,0.7H78c-0.3,0-0.7,0-1.3,0c-0.6,0-1.1-0.1-1.3-0.3
				c-0.1,0-0.2,0.1-0.3,0.2L75,14.5h-0.1c-0.3,0-0.5,0.1-0.8,0.3c-0.2,0.2-0.4,0.3-0.4,0.5c0,0.1,0,0.3,0,0.6c0,0.3,0,0.7,0.1,1.2
				c0,0.5,0,1.1,0,1.8c0,0.7,0,1.4,0,2.1c0,0.7,0,1.3,0,1.9c0,0.6-0.1,1.1-0.1,1.5c-0.1,0.6-0.2,1-0.2,1.4c-0.1,0.3-0.2,0.6-0.3,0.8
				c-0.1,0.2-0.1,0.3-0.1,0.5L73,27.2h-0.2c-0.2,0.1-0.6,0.1-1.2,0.1c-0.5,0-0.9-0.1-1.2-0.3v-0.1c-0.1-0.1-0.2-0.2-0.3-0.4
				c-0.1-0.1-0.2-0.3-0.2-0.6c-0.1-0.4-0.1-0.7-0.1-0.8v-0.2l-0.2-0.1c0.1-1.8,0.2-3.2,0.3-4.4c0.1-1.1,0.1-2,0.2-2.7
				c0.1-0.7,0.1-1.2,0.2-1.5c0.1-0.3,0.1-0.5,0.1-0.6c-0.1,0-0.2,0-0.3-0.1c-0.1-0.1-0.1-0.2-0.3-0.3l-0.2-0.3
				c-0.1,0-0.1-0.1-0.2-0.1c0-0.1-0.1-0.1-0.2-0.1c0-0.1-0.1-0.2-0.3-0.3c-0.2-0.1-0.3-0.2-0.4-0.2c-0.1,0-0.2,0-0.3-0.1
				c-0.1,0-0.1,0-0.1,0c0,0-0.1,0-0.1,0l-0.6,0.1c0,0-0.1,0-0.2-0.1c-0.1,0-0.1,0-0.2,0c-0.1,0-0.2,0-0.2,0c0,0-0.1,0-0.2,0
				c-0.1,0-0.2,0-0.3,0c-0.1,0.1-0.3,0.1-0.4,0.1h-2.6c0-0.1,0-0.2,0-0.4c0-0.1,0-0.3,0-0.4c0-0.1,0-0.2,0-0.3
				c-0.3,0.1-0.6,0.3-1.2,0.7c-0.5,0.3-0.9,0.4-1.1,0.4h-1.8c0.1,0.2,0.1,0.5,0.2,0.9c0.1,0.4,0.2,0.8,0.3,1.3
				c0.1,0.5,0.1,1.1,0.3,1.7c-0.1,0-0.2,0-0.3,0l-0.5,0.3c0,0.1,0.1,0.4,0.2,1c0.2,0.6,0.4,1.4,0.6,2.3c0.2,0.9,0.4,2,0.6,3.1
				c0.2,1.2,0.5,2.4,0.8,3.5c0.1,0.6,0.3,1.2,0.4,1.8c0,0.1,0,0.2,0.1,0.3c-0.1,0-0.1,0-0.2,0c-0.1,0-0.2,0-0.3,0
				c-0.1,0-0.2,0-0.3,0c-0.1,0-0.1,0.1-0.2,0.1c-0.2,0-0.5,0-0.7,0c-0.1,0-0.2,0-0.3,0c-0.1,0-0.2,0-0.3,0c-0.1,0-0.1,0.1-0.2,0.1
				c-0.4,0-0.9,0-1.3,0c-0.1,0-0.2,0-0.3,0c-0.1,0-0.2,0-0.3,0c-0.1,0-0.1,0.1-0.2,0.1c-0.2,0-0.5,0-0.7,0l-0.2-0.9c0,0,0,0,0,0
				c-0.3-1.4-0.6-2.6-0.9-3.9c-0.3-1.3-0.6-2.5-0.9-3.5c-0.2-1.1-0.4-1.9-0.6-2.5c-0.2-0.6-0.3-1-0.3-1H53c-0.3,0-0.6,0-0.9,0
				c-0.2,0-0.4,0-0.6,0c-0.3,0-0.4,0.1-0.6,0.2c-0.3,0.1-0.4,0.3-0.6,0.4c-0.1,0.2-0.3,0.4-0.3,0.5c-0.1,0.1-0.1,0.3-0.3,0.4
				c-0.1,0.1-0.2,0.2-0.3,0.3c-0.1,0.1-0.5,0.2-1,0.2c-0.6,0.1-1.3,0.1-1.9,0.1c-0.7,0-1.4,0-2.1,0c-0.6,0-1-0.1-1.2-0.2
				c-0.3-0.1-0.7-0.2-1.2-0.4c-0.5-0.2-0.8-0.4-1-0.6c-0.6,0.8-0.9,1.3-0.9,1.6c0.1,0.3,0.2,0.4,0.3,0.6c0.1,0.1,0.1,0.2,0.1,0.3
				h0.1l-0.5,0.5c0,0-0.1,0-0.1,0c-0.1,0-0.2,0-0.3,0c-0.1,0.1-0.2,0.3-0.4,0.6c-0.2,0.3-0.4,0.7-0.7,1.2c-0.2,0.5-0.4,0.9-0.6,1.3
				c-0.2,0.3-0.3,0.6-0.3,0.7V28c0.1,0.1,0.1,0.2-0.1,0.4c-0.2,0.2-0.6,0.2-1,0.2c-0.2-0.1-0.5-0.2-1-0.5c-0.5-0.3-1-0.6-1.6-0.9
				c-0.6-0.3-1.1-0.6-1.5-0.9c-0.5-0.4-0.8-0.6-0.8-0.8c0-0.1,0-0.3,0.1-0.5c0.1-0.1,0.2-0.5,0.6-1c0.3-0.5,0.7-1.3,1.2-2.4
				c0.6-1,1.4-2.4,2.4-4.1c0-0.3-0.1-0.7-0.3-1.4c-0.1-0.7-0.6-1.1-1.5-1.4l-1.8-0.7c-0.4-0.1-0.7-0.1-0.9-0.2
				C31.3,14,31,14,30.8,14c-0.3-0.1-0.6-0.1-0.9-0.1c-0.4-0.1-0.9-0.1-1.3-0.1c-0.5,0-0.9,0-1.3,0c-0.4,0-0.7,0-0.9,0.1L4.2,21.7
				H4.1c-0.1,0-0.2,0-0.5,0c-0.3,0.1-0.7,0.1-1,0.1c-0.3,0-0.7,0-1.1,0c-0.4-0.1-0.7-0.1-0.9-0.3c-0.2-0.2-0.3-0.4-0.3-0.6v-3
				c0-0.7,0-1.5,0-2.2c0-0.7-0.1-1.3-0.2-1.7v-2.1c0-0.3,0-0.6,0-0.9c-0.1-0.3-0.1-0.6-0.1-0.8C0,10,0,9.7,0,9.3
				C0,9,0.2,8.7,0.6,8.6c0,0,0.3-0.1,0.9-0.1c0.5,0,1.1,0,1.8,0c0.7,0,1.4,0,2.2,0c0.7,0,1.3,0,1.8,0h15.6c0.2-0.1,0.5-0.2,0.9-0.3
				c0.4-0.1,0.8-0.2,1.2-0.3c0.4-0.1,0.8-0.3,1.2-0.3c0.3-0.1,0.5-0.2,0.6-0.3l0.9-0.6c0.2-0.1,0.4-0.2,0.5-0.3
				c0.2,0,0.3-0.1,0.4-0.1C28.5,6,29.1,5.9,30,5.7c0.3,0,0.5,0,0.5-0.1c0.1,0,0.2,0,0.3-0.1c0.1-0.1,0.5-0.4,1.1-1
				c0.5-0.6,1-1.1,1.5-1.6c0.3-0.2,0.7-0.3,1.3-0.2c0.6,0.1,1,0.1,1.3,0.2c0.1,0,0.2,0,0.3,0c0.1,0,0.1,0,0.1,0c0.1,0,0.1,0,0.2,0
				C36.7,3,36.9,3.1,37,3.1h1l0.3,0.5v1.8h0.2V4.4h2.2V3.8h1.2v0.6h0.8V3.8h1.1v0.6h0.8V3.8h1.2v0.6h0.9V3.8h1.1v0.6h0.9V3.8h1.2
				v0.6h0.9V3.8h1.2v0.6h0.7V3.8h1.3v0.6h0.7V3.8h1.2v0.6H57v1.1h15.7c0.3-0.2,0.6-0.5,1.1-0.9c0.5-0.4,0.8-0.7,0.9-0.9
				c0-0.3,0-0.5,0-0.6c0-0.1,0-0.2,0-0.3c0.1-0.3,0.2-0.5,0.3-0.7c0.1-0.2,0.3-0.4,0.6-0.4h0.3c0.3-0.1,0.5-0.2,0.8-0.2
				c0.2,0,0.4,0.2,0.6,0.5c0.3,0.4,0.5,0.8,0.6,1.2C78,3.2,78.1,3.4,78.1,3.5z M56.3,5H39.1v0.5h17.2C56.3,5.4,56.3,5,56.3,5z
				 M42.6,19c0.2,0.2,0.5,0.3,0.8,0.3h4c0.3,0,0.5-0.1,0.9-0.3c0.2-0.2,0.3-0.4,0.3-0.6c0-0.4-0.1-0.8-0.3-1
				c-0.3-0.2-0.6-0.3-0.9-0.3h-4c-0.3,0-0.6,0.1-0.8,0.3c-0.3,0.2-0.4,0.6-0.4,1C42.1,18.6,42.3,18.8,42.6,19z M20.2,12.8
				c0-0.7-0.3-1.1-1-1.1h-1.9c-0.3,0-0.5,0.1-0.6,0.3c-0.2,0.2-0.3,0.5-0.3,0.8c0,0.2,0.1,0.4,0.3,0.6c0.2,0.2,0.4,0.3,0.6,0.3h1.9
				c0.3,0,0.6-0.1,0.8-0.3C20.1,13.2,20.2,13.1,20.2,12.8z M5.9,11c-0.5-0.1-0.9-0.1-1.4-0.2c-0.5,0-0.8,0-1-0.1c0,0.4,0,0.9,0,1.5
				c0.1,0.7,0.1,1.3,0.2,2c0,0.7,0,1.3,0.1,2c0,0.6,0,1,0,1.2c0.1,0.1,0.4,0.3,0.9,0.5c0.5,0.2,1,0.3,1.5,0.3c0.3,0,0.8-0.1,1.4-0.3
				c0.5-0.2,1.1-0.4,1.7-0.6c0.6-0.3,1.1-0.5,1.7-0.8c0.5-0.3,0.9-0.5,1.2-0.6c0.2-0.2,0.3-0.5,0.3-0.8c0-0.3-0.1-0.8-0.3-1.3
				c-0.2-0.5-0.3-1-0.5-1.4c-0.2,0-0.6-0.1-1.2-0.2c-0.5-0.1-1.2-0.3-1.9-0.5c-0.3-0.1-0.8-0.2-1.3-0.3C6.9,11.1,6.4,11,5.9,11z"/>
		</g>
	</g>
</g>
<g id="guides">
</g>
</svg>
