<?xml version="1.0" encoding="utf-8"?>
<!-- Generator: Adobe Illustrator 16.0.0, SVG Export Plug-In . SVG Version: 6.00 Build 0)  -->
<!DOCTYPE svg PUBLIC "-//W3C//DTD SVG 1.1//EN" "http://www.w3.org/Graphics/SVG/1.1/DTD/svg11.dtd">
<svg version="1.1" xmlns="http://www.w3.org/2000/svg" xmlns:xlink="http://www.w3.org/1999/xlink" x="0px" y="0px"
	 width="61.193px" height="32px" viewBox="0 0 61.193 32" enable-background="new 0 0 61.193 32" xml:space="preserve">
<g id="Selected_Items">
	<g>
		<g id="Selected_Items_26_">
			<linearGradient id="SVGID_1_" gradientUnits="userSpaceOnUse" x1="0" y1="16.4991" x2="61.193" y2="16.4991">
				<stop  offset="0" style="stop-color:#FFD93F"/>
				<stop  offset="1" style="stop-color:#FF310E"/>
			</linearGradient>		
			<path fill-rule="evenodd" clip-rule="evenodd" fill="url(#SVGID_1_)" d="M60.6,16.1c-0.4,0.3-0.9,0.7-1.3,1c0,0-0.1,0.1-0.2,0.1c-1.7,1.1-3.2,1.8-4.5,2.1c-1.6,0.4-3.2,0.7-4.9,0.7
				c-1.7,0.1-3.3-0.1-4.9-0.4c-0.6-0.1-1.3-0.3-2-0.5c-0.8-0.2-1.3-0.3-1.4-0.3c-0.9-0.2-2-0.3-3.2-0.4c-1.3-0.1-3.1-0.1-5.5,0
				l-3.2,0.1L29.3,19l-1.9,0c0-0.1-0.1-0.1-0.1-0.2c-0.1-0.2-0.3-0.3-0.6-0.4c-0.2-0.1-0.5-0.2-0.8-0.3L25.6,18l-0.1,1.6L25,20
				c-0.3,0.3-0.6,0.6-0.7,0.9c-0.1,0.3-0.3,0.6-0.4,1.1c-0.1,0.2-0.2,0.5-0.2,0.6h-1c0-0.1,0-0.3,0-0.5c0-0.4,0.1-0.8,0.2-1
				c0.1-0.3,0.3-0.6,0.4-0.8l0.2-0.3c-0.1-0.2-0.2-0.3-0.3-0.5c-0.3-0.4-0.5-0.7-0.7-0.8c-0.2-0.2-0.4-0.4-0.6-0.6l-0.2-0.4
				c-0.2-0.1-0.5-0.2-0.8-0.3c-0.6-0.2-1.2-0.2-1.6,0c-0.1,0-0.6,0.3-1.5,0.7c-0.6,0.3-1.2,0.5-1.8,0.6c-0.7,0.1-1.6,0.2-2.8,0.1
				c-1-0.1-2-0.3-3.1-0.5c-1.1-0.3-1.9-0.5-2.3-0.5C7,17.5,6.4,17.4,6,17.4c-0.4,0-0.9,0-1.5,0.1c-0.3,0-0.5,0.1-0.7,0.1l-0.7,0.6
				L3,18.7c-0.1,0.5-0.2,0.7-0.3,0.8c-0.2,0.1-0.4,0.2-0.7,0.4l-0.5,0c-0.1-0.1-0.2-0.2-0.4-0.3c-0.3-0.2-0.4-0.5-0.6-0.8
				c-0.1-0.3-0.2-0.7-0.1-1.3l0.1-0.9L0,16.3v-0.8l0.4-0.2c0-0.2,0-0.4,0-0.7c0-0.5,0.1-0.9,0.2-1.1C0.8,13.2,1,13,1.1,12.9
				c0.1-0.1,0.3-0.1,0.6-0.2c0.2,0,0.4,0,0.5,0.1c0,0.1,0.1,0.1,0.1,0.2c1.2-0.1,2.4-0.1,3.9-0.2c2.9-0.2,5-0.2,6.3-0.2
				c1.2,0,3,0.1,5.4,0.3c2.2,0.2,3.4,0.3,3.7,0.2c0.4,0,0.8-0.1,1.1-0.2c0.2,0,0.4-0.1,0.7-0.3c0.2-0.1,0.4-0.1,0.5,0
				c0.1,0,0.1,0.1,0.1,0.1c0.1-0.1,0.3-0.2,0.4-0.4c0.3-0.3,0.6-0.6,0.7-0.8c0.2-0.3,0.3-0.6,0.4-0.9l0.1-0.4h0.9v0.5
				c0,0.4-0.1,0.7-0.2,0.9c-0.1,0.3-0.2,0.5-0.4,0.8c-0.1,0.1-0.2,0.3-0.3,0.4l5.2,0.1l-0.3-0.5l1.2,0.5l0.9,0l-0.4-0.6l1.4,0.6h0.8
				l-0.4-0.6l1.4,0.6H36l-0.4-0.5l1.3,0.6l0.8,0.1l-0.4-0.6l1.3,0.6l0.9,0l-0.4-0.6l1.3,0.6l0.9,0L41,12.6l1.2,0.6l1-0.1l-0.3-0.5
				l1.3,0.6l0.7,0c0.6,0,1.3,0,2-0.1c1.2-0.1,2.3-0.2,3.4-0.4l0.4,0.3c0.3,0.2,0.6,0.4,1,0.6c1.1,0.6,2.1,1.1,3.1,1.3
				c1,0.2,2.4,0.4,4.2,0.6c0.1,0,0.3,0,0.4,0c0.7,0.1,1.4,0.1,1.9,0.1L60.6,16.1z"/>
		</g>
	</g>
</g>
<g id="guides">
</g>
</svg>
