<?xml version="1.0" encoding="utf-8"?>
<!-- Generator: Adobe Illustrator 16.0.0, SVG Export Plug-In . SVG Version: 6.00 Build 0)  -->
<!DOCTYPE svg PUBLIC "-//W3C//DTD SVG 1.1//EN" "http://www.w3.org/Graphics/SVG/1.1/DTD/svg11.dtd">
<svg version="1.1" xmlns="http://www.w3.org/2000/svg" xmlns:xlink="http://www.w3.org/1999/xlink" x="0px" y="0px"
	 width="12.333px" height="32px" viewBox="0 0 12.333 32" enable-background="new 0 0 12.333 32" xml:space="preserve">
<g id="Selected_Items">
	<g>
		<g id="Selected_Items_59_">
			<linearGradient id="SVGID_1_" gradientUnits="userSpaceOnUse" x1="1.599016e-02" y1="18.5303" x2="11.298" y2="18.5303">
				<stop  offset="0" style="stop-color:#FFD93F"/>
				<stop  offset="1" style="stop-color:#FF310E"/>
			</linearGradient>		
			<path fill-rule="evenodd" clip-rule="evenodd" fill="url(#SVGID_1_)" d="M8.4,6.8L8.4,6.8l0,0.1c0,0,0,0,0,0V7h0v0c0,0,0,0,0,0v0.1h0v0.1h0v0.1c0,0,0,0,0,0v0.1l0,0v0.1l0,0v0h0v0.1
				l0,0v0c0,0,0,0,0,0v0l0,0V8c0,0,0,0,0,0v0h0v0.1h0v0l0,0v0l0,0v0.1l0,0v0.1l0,0v0l0,0v0l0.1,0.1v0c0,0,0,0,0,0l0,0v0.2l0,0v0.1
				l0,0v0l0,0v0l0,0v0.1h0v0.1c0,0,0,0,0,0v0.1c0,0,0,0,0,0v0.1c0,0,0,0,0,0v0.1h0v0l0,0v0l0,0v0l0,0v0.1l0,0v0.1h0v0.1h0v0.1l0,0v0
				l0,0v0.1c0,0,0,0,0,0v0.1c0,0,0,0,0,0v0.1l0,0v0h0v0l0,0v0l0,0v0.1h0v0.1l0,0v0c0,0,0,0,0,0v0l0,0v0.1l0.1,0.1v0.1l0,0v0h0v0.1h0
				c0,0,0,0,0,0v0l0.1,0.1v0.5l0,0v0.1c0,0,0,0,0,0l0,0v0l0,0v0h0V13c0,0,0,0,0,0l0,0v0h0v0l0.1,0.1c0,0,0,0,0,0v0h0v0l0.1,0.1v0.3
				c0,0,0,0,0.1,0v0.5c0,0.1,0,0.2,0,0.2c0,0.1,0,0.1,0,0.2v0.2c0,0.1,0,0.1,0,0.2v0.2c0,0.1,0,0.2,0,0.3c0,0,0,0.1,0,0.2
				c0,0,0,0.1,0,0.2c0,0,0,0.1,0,0.2v0c0,0,0,0.1,0,0.2c0,0,0,0.1,0,0.2c0,0,0,0.1,0,0.2c0,0,0,0.1,0,0.2c0,0.1,0,0.1,0,0.2
				c0,0.1,0,0.1,0,0.2s0,0.1,0,0.2s0,0.1,0,0.2c0,0.1,0,0.2,0,0.2c0,0.1,0,0.1,0,0.2c0,0.1,0,0.1,0,0.2c0,0.1,0,0.1,0,0.2
				c0,0.1,0,0.2,0,0.2c0,0.1,0,0.1,0,0.2s0,0.1,0,0.2s0,0.1,0,0.2s0,0.1,0,0.2c0,0,0,0.1,0,0.2c0,0,0,0.1,0,0.2c0,0,0,0.1,0,0.2
				s0,0.1,0,0.2c0,0,0,0.1,0,0.2c0,0,0,0.1,0,0.2c0,0,0,0.1,0,0.2s0,0.1,0,0.2c0,0.1,0,0.1,0,0.2c0,0.1,0,0.1,0,0.2s0,0.1,0,0.2
				c0,0.1,0,0.2,0,0.2c0,0.1,0,0.1,0,0.2s0,0.1,0,0.2s0,0.1,0,0.2c0,0.1,0,0.2,0,0.2c0,0.1,0,0.1,0,0.2c0,0.1,0,0.1,0,0.2
				s0,0.1,0,0.2s0,0.1,0,0.2c0,0,0,0.1,0,0.2c0,0,0,0.1,0,0.2c0,0,0,0.1,0,0.2c0,0.1,0,0.1,0,0.2c0,0,0,0.1,0,0.2c0,0,0,0.1,0,0.2
				c0,0,0,0.1,0,0.2s0,0.1,0,0.2s0,0.1,0,0.2s0,0.1,0,0.2s0,0.1,0,0.2c0,0.1,0,0.2,0,0.2c0,0.1,0,0.1,0,0.2c0,0.1,0,0.1,0,0.2
				c0,0.1,0,0.1,0,0.2c0,0.1,0,0.2,0,0.2c0,0.1,0,0.1,0,0.2c0,0.1,0,0.2,0,0.3v0.1c0,0-0.1,0-0.1,0v0c0,0,0,0,0,0l0,0.1H11v0l0,0v0
				h0v0.1c-0.2,0-0.3,0-0.5,0v-0.6l0.1-0.1c0,0,0,0,0,0h0v0h0v0h0c0-0.1,0-0.1,0-0.2c0-0.1,0-0.1,0-0.1c0-0.1,0-0.1,0-0.2
				c0-0.1,0-0.1,0-0.2c0-0.1,0-0.1,0-0.2c0-0.1,0-0.1,0-0.2c0,0,0-0.1,0-0.2c0,0,0-0.1,0-0.2c0-0.1,0-0.1,0-0.2c0-0.1,0-0.1,0-0.2
				c0,0,0-0.1,0-0.2c0,0,0-0.1,0-0.2s0-0.1,0-0.2c0-0.1,0-0.1,0-0.2c0-0.1,0-0.1,0-0.2c0-0.1,0-0.1,0-0.2c0-0.1,0-0.2,0-0.2
				c0-0.1,0-0.2,0-0.2c0-0.1,0-0.1,0-0.2c0-0.1,0-0.1,0-0.2c0-0.1,0-0.2,0-0.2c0-0.1,0-0.2,0-0.2c0-0.1,0-0.1,0-0.2
				c0-0.1,0-0.1,0-0.2c0-0.1,0-0.1,0-0.2c0-0.1,0-0.1,0-0.2c0,0,0-0.1,0-0.2c0,0,0-0.1,0-0.2s0-0.1,0-0.2s0-0.1,0-0.2
				c0,0,0-0.1,0-0.2c0,0,0-0.1,0-0.2s0-0.1,0-0.2c0-0.1,0-0.2,0-0.2c0-0.1,0-0.1,0-0.2c0-0.1,0-0.1,0-0.2c0-0.1,0-0.2,0-0.2
				c0-0.1,0-0.2,0-0.2c0-0.1,0-0.1,0-0.2s0-0.1,0-0.2c0-0.1,0-0.2,0-0.3c0-0.1,0-0.1,0-0.2c0,0,0-0.1,0-0.2c0,0,0-0.1,0-0.2
				s0-0.1,0-0.2c0-0.1,0-0.1,0-0.2c0,0,0-0.1,0-0.2c0-0.1,0-0.1,0-0.2s0-0.1,0-0.2c0-0.1,0-0.1,0-0.2c0-0.1,0-0.1,0-0.2
				c0-0.1,0-0.1,0-0.2c0-0.1,0-0.2,0-0.2c0-0.1,0-0.2,0-0.2c0-0.1,0-0.1,0-0.2c0-0.1,0-0.1,0-0.2c0-0.1,0-0.2,0-0.2
				c0-0.1,0-0.2,0-0.2c0-0.1,0-0.1,0-0.2s0-0.1,0-0.2c0-0.1,0-0.1,0-0.2c0-0.1,0-0.1,0-0.2c0,0,0-0.1,0-0.2c0,0,0-0.1,0-0.2v0
				c0,0-0.1,0-0.1,0l0,0v0l0,0v0h0v0l0,0v0l0,0v-0.1l0,0v0h0v-0.1h0v0l0,0h0c0,0,0,0,0,0v-0.1c0,0,0,0,0,0v0h0v-0.1c0,0,0,0,0,0
				c0,0,0,0,0,0v0h0v0l0-0.1c0,0,0,0,0,0v0l-0.1-0.1v0h0v-0.1c0,0,0,0,0,0l0,0v0h0v0c0,0,0,0-0.1,0v0h0v0c0,0,0,0,0,0v-0.1
				c0,0,0,0,0,0l0,0v0h0L9.3,12v0c0,0,0,0,0,0h0v17.8l-0.1,0c0,0-0.1,0.1-0.1,0.1h0c-0.6,0.3-1.1,0.5-1.6,0.7
				c-0.6,0.2-1.2,0.3-1.8,0.4C5,31,4.5,31,4,30.9c-0.5,0-0.9-0.1-1.2-0.2c-0.8-0.2-1.4-0.4-1.9-0.6C0.7,30,0.6,30,0.4,29.9
				c-0.2-0.1-0.3-0.1-0.3-0.1l-0.1,0V11.9C0,11.7,0,11.5,0.2,11.3c0,0,0,0,0-0.1c0.1,0,0.1,0,0.2,0v0C0.6,11.1,0.7,11,0.9,11
				c0.2,0,0.5-0.1,0.8-0.1c0.2,0,0.4-0.1,0.6-0.1c0.2,0,0.3,0,0.4,0c0-0.2,0-0.4,0-0.5c0-0.1,0.1-0.1,0.1-0.2L2.9,10V8.4h0
				c-0.1,0-0.3,0-0.4,0c-0.2,0-0.3,0-0.5,0V7.8h0v0c0,0,0,0,0.1,0c0-0.1,0-0.2,0-0.3c0-0.1,0-0.2,0.1-0.4c0.1-0.2,0.2-0.3,0.4-0.3
				h4.3l0.2,0.1V7c0.1-0.3,0.3-0.5,0.5-0.8v0c0,0,0,0,0-0.1c0,0,0.1,0,0.1,0c0,0,0,0,0,0v0c0.1,0,0.2,0,0.4,0v0.4l0,0v0
				c0,0,0.1,0,0.2,0v0l0,0C8.4,6.7,8.4,6.8,8.4,6.8z M8.9,24.9c0,0,0-0.1,0-0.1v-0.1c-2,0.3-3.3,0.4-4.1,0.4c-0.8,0-2.2-0.1-4.3-0.4
				c0,0,0,0,0,0.1c0,0,0,0,0,0.1v0.5c0,0,0,0,0,0.1c0,0,0,0,0,0.1v0.1c0,0,0,0,0,0.1c0,0,0,0,0,0.1s0,0,0,0.1v0.1c0,0,0,0,0,0.1
				s0,0,0,0.1v0c2.1,0.4,3.5,0.5,4.4,0.5c0.9,0,2.2-0.2,4-0.5v-0.4c0,0,0,0,0-0.1v0c0,0,0-0.1,0-0.1c0,0,0,0,0-0.1v0c0,0,0,0,0-0.1
				s0-0.1,0-0.1v0c0,0,0,0,0-0.1C8.9,25,8.9,25,8.9,24.9C8.9,24.9,8.9,24.9,8.9,24.9z"/>
		</g>
	</g>
</g>
<g id="guides">
</g>
</svg>
