<?xml version="1.0" encoding="utf-8"?>
<!-- Generator: Adobe Illustrator 16.0.0, SVG Export Plug-In . SVG Version: 6.00 Build 0)  -->
<!DOCTYPE svg PUBLIC "-//W3C//DTD SVG 1.1//EN" "http://www.w3.org/Graphics/SVG/1.1/DTD/svg11.dtd">
<svg version="1.1" id="图层_1" xmlns="http://www.w3.org/2000/svg" xmlns:xlink="http://www.w3.org/1999/xlink" x="0px" y="0px"
	 width="44px" height="32px" viewBox="0 0 44 32" enable-background="new 0 0 44 32" xml:space="preserve">
<rect fill="none" width="25.457" height="32"/>
<linearGradient id="SVGID_1_" gradientUnits="userSpaceOnUse" x1="1.4639" y1="20.5693" x2="24.3307" y2="7.3672">
	<stop  offset="0.1429" style="stop-color:#000000"/>
	<stop  offset="0.4335" style="stop-color:#FFD400"/>
	<stop  offset="0.7488" style="stop-color:#FF0000"/>
</linearGradient>
<path fill="url(#SVGID_1_)" fill-opacity="0.302" d="M19.191,7.811l5.918,0.905l-6.023,4.121l5.695,4.542l-5.32,0.705l1.238,6.83
	l-2.734-1.576l0.014-10.596l-3.441-5.741h-4.23c-0.386,0-0.642,0.038-0.771,0.116c-0.231,0.102-0.347,0.32-0.347,0.654
	c0,0.513,0.308,0.808,0.924,0.885v1.539l-1.156,1h-0.54c-0.358,0-0.54,0.179-0.54,0.539l0.38,2.322l0.642,0.945l-0.137,1.852h0.424
	V18.7H8.764v0.731l0.045,0.531l0.066,0.449L2.88,23.021l2.458-6.787L0,13.574l5.76-2.34L1.646,5.016l7.264,1l1.349-5.625l3.69,5.174
	l6.029-2.97L19.191,7.811z M17.346,13.273v9.736l-3.004-1.854l0.137-0.99l0.268-0.741l-0.066-0.608l-0.305-0.168v-1.854l0.473-0.338
	l-0.271-1.519l1.162-0.754l-0.082-2.014L17.346,13.273z"/>
<linearGradient id="SVGID_2_" gradientUnits="userSpaceOnUse" x1="-845.7412" y1="23.9902" x2="-844.5859" y2="23.1519" gradientTransform="matrix(10.239 0 0 24.44 8665.2256 -555.4131)">
	<stop  offset="0.2709" style="stop-color:#000000"/>
	<stop  offset="0.5172" style="stop-color:#FFD400"/>
	<stop  offset="0.8276" style="stop-color:#FF0000"/>
</linearGradient>
<path fill="url(#SVGID_2_)" d="M17.275,13.186l-1.539-0.887v1.811l-0.924,0.847v1.808H14.43v1.848h0.383v1.926H14.43v1.848h0.383
	v1.926H14.43v1.848h0.383v1.771l0.924,1.577v1.308c0,0.36-0.18,0.539-0.539,0.539h-6.85c-0.359,0-0.541-0.179-0.541-0.539v-1.308
	l0.885-1.577v-1.771h0.425v-1.848H8.693v-1.926h0.424v-1.848H8.693v-1.928h0.424v-1.848H8.693v-1.808l-0.885-0.847v-2.465
	c0-0.358,0.18-0.537,0.539-0.537h0.539l1.154-1.002V8.564C9.425,8.488,9.118,8.193,9.118,7.682c0-0.332,0.114-0.553,0.346-0.654
	C9.592,6.95,9.85,6.912,10.234,6.912h4.23l3.58,5.734v12.121l-1.809,0.888c-0.258,0.128-0.449,0.09-0.576-0.116
	c-0.131-0.229-0.078-0.448,0.152-0.653c0.205-0.18,0.514-0.386,0.922-0.614L17.275,24V13.186L17.275,13.186z"/>
<linearGradient id="SVGID_3_" gradientUnits="userSpaceOnUse" x1="-4.0229" y1="31.2354" x2="13.6292" y2="21.0663">
	<stop  offset="0.3505" style="stop-color:#FFE3A0"/>
	<stop  offset="1" style="stop-color:#00FFFF"/>
</linearGradient>
<path fill="url(#SVGID_3_)" d="M14.25,26.999c0,0-1.6-4.68-5.135-9.626v1.236H8.691v1.928h0.424v1.08
	C11.004,23.026,12.762,24.785,14.25,26.999z"/>
<linearGradient id="SVGID_4_" gradientUnits="userSpaceOnUse" x1="0.0493" y1="7.8369" x2="15.6924" y2="-1.1748" gradientTransform="matrix(0.908 -0.4189 0.4189 0.908 -1.8861 20.4524)">
	<stop  offset="0.1781" style="stop-color:#FFE3A0"/>
	<stop  offset="1" style="stop-color:#00FFFF"/>
</linearGradient>
<path fill="url(#SVGID_4_)" d="M8.691,14.954v0.069c1.666,0.158,3.359,0.523,5.037,1.171c0,0-2.385-1.927-5.922-3.644v1.557
	L8.691,14.954z"/>
<g>
	<linearGradient id="SVGID_5_" gradientUnits="userSpaceOnUse" x1="5.6108" y1="24.5986" x2="18.7302" y2="1.8752">
		<stop  offset="0" style="stop-color:#BB925B"/>
		<stop  offset="0.3429" style="stop-color:#FFF6DA"/>
		<stop  offset="0.6571" style="stop-color:#FFF1B1"/>
		<stop  offset="1" style="stop-color:#B38B54"/>
	</linearGradient>
	<path fill="url(#SVGID_5_)" d="M10.72,2.759l2.313,3.243h-2.726c-0.133,0-0.255,0.004-0.367,0.012L10.72,2.759 M18.704,4.338
		l-0.501,3.323c-0.083,0.546,0.292,1.055,0.837,1.138l3.414,0.523l-3.801,2.601l-3.259-5.436c-0.087-0.146-0.208-0.264-0.35-0.347
		L18.704,4.338 M3.7,6.309l4.662,0.641C8.249,7.188,8.189,7.466,8.189,7.771c0,0.59,0.257,1.24,0.924,1.608v0.358l-0.528,0.457
		H8.417c-0.907,0-1.54,0.633-1.54,1.539c0,0.054,0.004,0.108,0.013,0.161l0.38,2.323c0.023,0.144,0.078,0.28,0.16,0.4l0.445,0.656
		l-0.11,1.505c-0.021,0.276,0.075,0.55,0.265,0.754c0.048,0.051,0.1,0.097,0.156,0.137v0.214c-0.255,0.182-0.422,0.479-0.422,0.816
		v0.73c0,0.028,0.001,0.057,0.004,0.084l0.023,0.277l-3.18,1.385l1.667-4.603c0.173-0.478-0.04-1.009-0.494-1.235l-3.355-1.673
		l3.707-1.506c0.278-0.113,0.49-0.345,0.579-0.631s0.044-0.598-0.121-0.848L3.7,6.309 M18.977,14.03l3.345,2.666l-2.992,0.396
		c-0.126,0.017-0.247,0.058-0.356,0.118L18.977,14.03 M16.346,14.978v6.24l-0.924-0.57l0.033-0.24l0.231-0.642
		c0.052-0.144,0.07-0.297,0.054-0.448l-0.066-0.609c-0.025-0.234-0.133-0.45-0.299-0.61V17.31l0.055-0.039
		c0.313-0.225,0.471-0.609,0.402-0.989l-0.154-0.866l0.604-0.393C16.305,15.009,16.325,14.993,16.346,14.978 M18.968,20.971l0.363,2
		l-0.365-0.21L18.968,20.971 M10.259,0.391L8.91,6.016L1.646,5.017l4.113,6.218L0,13.574l5.338,2.66L2.88,23.021l5.995-2.609
		l-0.066-0.449l-0.045-0.531v-0.73h0.422v-1.848H8.762l0.137-1.852l-0.642-0.944l-0.38-2.323c0-0.359,0.182-0.539,0.54-0.539h0.54
		l1.156-1V8.656C9.497,8.58,9.189,8.285,9.189,7.771c0-0.334,0.115-0.553,0.347-0.654c0.129-0.078,0.385-0.115,0.771-0.115h4.23
		l3.441,5.74l-0.014,10.596l2.734,1.576l-1.238-6.83l5.32-0.705l-5.695-4.541l6.023-4.121l-5.918-0.906l0.787-5.215l-6.029,2.97
		L10.259,0.391L10.259,0.391z M15.656,12.17l0.082,2.014l-1.162,0.754l0.271,1.52l-0.473,0.338v1.854l0.305,0.168l0.066,0.609
		l-0.268,0.74l-0.137,0.99l3.004,1.854v-9.735L15.656,12.17L15.656,12.17z"/>
</g>
<g>
	<linearGradient id="SVGID_6_" gradientUnits="userSpaceOnUse" x1="17.1191" y1="8.0234" x2="7.4709" y2="31.0533">
		<stop  offset="0" style="stop-color:#BB925B"/>
		<stop  offset="0.3429" style="stop-color:#FFF6DA"/>
		<stop  offset="0.6571" style="stop-color:#FFF1B1"/>
		<stop  offset="1" style="stop-color:#B38B54"/>
	</linearGradient>
	<path fill="url(#SVGID_6_)" d="M13.91,7.912l2.147,3.439c-0.104-0.035-0.213-0.053-0.321-0.053c-0.173,0-0.346,0.045-0.5,0.134
		c-0.31,0.179-0.5,0.509-0.5,0.866v1.371l-0.6,0.55c-0.207,0.189-0.324,0.457-0.324,0.737v1.02
		c-0.233,0.184-0.383,0.468-0.383,0.787v1.848c0,0.319,0.149,0.604,0.383,0.787v0.352c-0.233,0.184-0.383,0.468-0.383,0.787v1.848
		c0,0.319,0.149,0.604,0.383,0.787v0.352c-0.233,0.184-0.383,0.468-0.383,0.787v1.848c0,0.319,0.149,0.604,0.383,0.787v0.984
		c0,0.178,0.047,0.352,0.137,0.505l0.787,1.345v0.574h-5.93v-0.585l0.757-1.35c0.084-0.149,0.128-0.318,0.128-0.489v-0.953
		c0.257-0.182,0.425-0.48,0.425-0.818v-1.848c0-0.337-0.167-0.636-0.423-0.816v-0.292c0.256-0.181,0.424-0.479,0.424-0.817v-1.848
		c0-0.338-0.168-0.637-0.424-0.817v-0.293c0.256-0.181,0.424-0.479,0.424-0.817v-1.848c0-0.338-0.168-0.637-0.424-0.817v-0.989
		c0-0.272-0.111-0.533-0.309-0.722l-0.576-0.553v-1.575h0.078c0.24,0,0.474-0.087,0.655-0.244l1.154-1.001
		c0.219-0.19,0.345-0.466,0.345-0.756v-1.54c0-0.248-0.091-0.477-0.242-0.652H13.91 M14.465,6.912h-4.23
		c-0.385,0-0.643,0.039-0.771,0.115C9.232,7.129,9.118,7.35,9.118,7.683c0,0.512,0.307,0.806,0.923,0.882v1.54l-1.154,1.001H8.348
		c-0.359,0-0.539,0.18-0.539,0.538v2.464l0.885,0.848v1.807h0.424v1.848H8.693v1.928h0.424v1.848H8.693v1.926h0.423v1.848H8.691
		v1.771l-0.885,1.578v1.307c0,0.361,0.182,0.539,0.541,0.539h6.85c0.359,0,0.539-0.178,0.539-0.539v-1.307l-0.924-1.578v-1.771
		H14.43v-1.848h0.383v-1.926H14.43v-1.848h0.383v-1.926H14.43v-1.848h0.383v-1.807l0.924-0.848v-1.811l1.539,0.887V24l-0.541,0.271
		c-0.408,0.229-0.717,0.436-0.922,0.615c-0.23,0.205-0.283,0.424-0.152,0.652c0.078,0.128,0.181,0.19,0.309,0.19
		c0.079,0,0.169-0.024,0.268-0.073l1.809-0.889V12.646L14.465,6.912L14.465,6.912z"/>
</g>
<rect fill="none" width="44" height="32"/>
<g>
	<g>
		<path fill="#7A4621" d="M13.28,27.871l4.445,3.706l9.781,0.296c3.357-0.395,6.124-1.283,8.297-2.667
			c2.865-3.97,5.357-5.954,7.477-5.954c-1.438-0.574-3.086-0.339-4.94,0.706c-1.854,1.044-3.735-0.015-5.646-3.177
			c-1.777-1.187-5.264-0.326-8.117,1.059l2.932-4.588l-8.579,2.824L13.28,27.871z"/>
	</g>
</g>
<linearGradient id="SVGID_7_" gradientUnits="userSpaceOnUse" x1="-882.1699" y1="55.8428" x2="-881.1699" y2="56.8445" gradientTransform="matrix(24.3018 0 0 10.0763 21454.8711 -542.5994)">
	<stop  offset="0.6071" style="stop-color:#FFF6DA"/>
	<stop  offset="1" style="stop-color:#D6BB7E"/>
</linearGradient>
<path fill="url(#SVGID_7_)" d="M23.023,19.723h-2.517L15.65,29.799h2.258l0.747-1.709h2.022l-0.132,1.709h2.159L23.023,19.723z
	 M21.2,22.26l-0.368,4.279H19.31L21.2,22.26z M32.469,21.324c0-1.047-0.978-1.602-2.818-1.602c-2.279,0-3.323,0.727-3.867,2.598
	l-1.362,4.695c-0.17,0.551-0.203,0.823-0.203,1.078c0,1.106,1.027,1.704,2.935,1.704c1.05,0,1.873-0.181,2.451-0.551
	c0.621-0.412,1.01-1.047,1.313-2.153l0.324-1.144h-2.159l-0.356,1.239c-0.254,0.903-0.572,1.172-1.336,1.172
	c-0.588,0-0.912-0.213-0.912-0.605c0-0.12,0.039-0.324,0.104-0.579l1.45-4.991c0.221-0.74,0.576-1.037,1.285-1.037
	c0.588,0,0.908,0.213,0.908,0.594c0,0.162-0.052,0.365-0.148,0.754l-0.27,0.973h2.158l0.335-1.176
	C32.42,21.891,32.469,21.58,32.469,21.324z M39.953,19.723h-5.775l-2.746,10.076h5.938l0.423-1.547h-3.747l0.841-3.152h3.379
	l0.424-1.523h-3.379l0.644-2.329h3.575L39.953,19.723z"/>
</svg>
