<?xml version="1.0" encoding="utf-8"?>
<!-- Generator: Adobe Illustrator 16.0.0, SVG Export Plug-In . SVG Version: 6.00 Build 0)  -->
<!DOCTYPE svg PUBLIC "-//W3C//DTD SVG 1.1//EN" "http://www.w3.org/Graphics/SVG/1.1/DTD/svg11.dtd">
<svg version="1.1" id="图层_1" xmlns="http://www.w3.org/2000/svg" xmlns:xlink="http://www.w3.org/1999/xlink" x="0px" y="0px"
	 width="44.875px" height="32px" viewBox="0 0 44.875 32" enable-background="new 0 0 44.875 32" xml:space="preserve">
<rect fill="none" width="44.875" height="32"/>
<g>
	<g>
		<g>
			<g>
				<g>
					
						<linearGradient id="SVGID_1_" gradientUnits="userSpaceOnUse" x1="-896.2852" y1="21.1387" x2="-895.2479" y2="20.1806" gradientTransform="matrix(44.263 0 0 27.6675 39666.1133 -560.1484)">
						<stop  offset="0.1429" style="stop-color:#000000"/>
						<stop  offset="0.4335" style="stop-color:#FFD400"/>
						<stop  offset="0.7488" style="stop-color:#FF0000"/>
					</linearGradient>
					<path fill="url(#SVGID_1_)" d="M43.566,10.77c-0.084,0.055-0.221,0.083-0.412,0.083c-0.381,0.082-0.997,0.137-1.844,0.165
						c-0.875,0.025-1.82,0.052-2.832,0.079c-1.014,0.085-2.011,0.126-2.996,0.126c-0.981,0.025-1.789,0.039-2.422,0.039
						c-0.709,0-1.283,0.04-1.723,0.125c-0.438,0.08-0.777,0.148-1.023,0.205c-0.217,0.137-0.355,0.275-0.412,0.41
						c-0.053,0.135-0.08,0.315-0.08,0.534v0.33c0,0.246,0.014,0.545,0.043,0.9c0.027,0.327,0.066,0.643,0.123,0.942
						c0.078,0.383,0.162,0.753,0.244,1.109v0.123l-0.574,0.656v0.124c-0.191,0.109-0.686,0.164-1.479,0.164
						c-1.584,0.082-2.924,0.105-4.02,0.082c-1.039,0-1.929-0.028-2.667-0.082c-0.655-0.083-1.176-0.164-1.558-0.245
						c-0.329-0.113-0.56-0.208-0.697-0.289c-0.219,0-0.44,0.042-0.658,0.125c-0.216,0.164-0.477,0.438-0.779,0.82
						c-0.354,0.41-0.766,1.039-1.23,1.887c-0.439,0.903-0.945,2.107-1.517,3.609c-0.602,1.475-1.272,3.336-2.01,5.577l-0.083,0.084
						c0,0.655-0.179,1.065-0.533,1.231c-0.191,0.188-0.344,0.229-0.452,0.123H2.79c0-0.138,0.016-0.264,0.042-0.369
						c0.106-0.275,0.166-0.494,0.166-0.657H2.339c-0.11,0-0.22-0.013-0.327-0.041c-0.631-0.056-1.122-0.343-1.477-0.859
						c-0.193-0.305-0.288-0.687-0.288-1.149c0-0.572,0.08-1.066,0.245-1.478c0.138-0.466,0.205-0.726,0.205-0.778v0.082
						c0.028-0.029,0.205-0.261,0.534-0.699c0.274-0.438,0.629-0.982,1.067-1.642c0.466-0.681,0.943-1.409,1.437-2.172
						c0.574-0.767,1.106-1.519,1.599-2.258c0.545-1.039,0.972-1.968,1.27-2.788c0.277-0.822,0.411-1.544,0.411-2.176
						c0-0.409-0.067-0.819-0.202-1.229c-0.249-0.521-0.591-0.931-1.026-1.23c-0.411-0.248-0.837-0.481-1.273-0.7
						C4.13,9.583,3.871,9.405,3.735,9.13C3.623,8.83,3.57,8.5,3.57,8.146c0-0.134,0.016-0.274,0.041-0.41c0-0.081,0-0.178,0-0.288
						L3.57,7.367V5.191c0-0.356,0-0.654,0-0.903c0-0.246-0.041-0.408-0.124-0.492H3.405c-0.027,0-0.04-0.041-0.04-0.12
						c0-0.03,0.013-0.07,0.04-0.124l0.041-0.085c0.028-0.053,0.152-0.133,0.37-0.243c0.193-0.082,0.781-0.151,1.763-0.207
						C5.635,2.935,5.663,2.853,5.663,2.77c0-0.055,0.041-0.108,0.125-0.163c0.053-0.11,0.105-0.205,0.163-0.289l0.121-0.121
						L7.26,2.239l0.126,0.287c0.052,0.054,0.08,0.136,0.08,0.245c0.028,0.083,0.042,0.166,0.042,0.247h33.885l0.08-0.164
						c0.055-0.055,0.096-0.083,0.125-0.083l0.778-0.245c0.028,0.054,0.083,0.11,0.165,0.164l0.204,0.202h1.478l0.287,4.475
						C44.508,9.25,44.195,10.387,43.566,10.77z M27.361,11.592h-5.827c-0.079,0-0.177,0.066-0.284,0.204
						c-0.139,0.138-0.206,0.328-0.206,0.577v1.968c0,0.301,0.067,0.504,0.206,0.613c0.106,0.137,0.205,0.208,0.284,0.208h5.827
						c0.139,0,0.248-0.071,0.328-0.208c0.137-0.109,0.207-0.313,0.207-0.613v-1.968c0-0.249-0.07-0.438-0.207-0.577
						C27.609,11.658,27.5,11.592,27.361,11.592z"/>
				</g>
			</g>
		</g>
	</g>
</g>
<path fill="none" d="M9.348,83.852h6.603c-2.808-0.77-5.519-1.022-7.67-1.067C8.648,83.135,9.005,83.49,9.348,83.852z"/>
<path fill="none" d="M27.361,92.425h-5.827c-0.079,0-0.177,0.066-0.284,0.204c-0.139,0.139-0.206,0.328-0.206,0.577v1.968
	c0,0.301,0.067,0.504,0.206,0.613c0.106,0.137,0.205,0.208,0.284,0.208h5.827c0.139,0,0.248-0.071,0.328-0.208
	c0.137-0.109,0.207-0.313,0.207-0.613v-1.968c0-0.249-0.07-0.438-0.207-0.577C27.609,92.491,27.5,92.425,27.361,92.425z"/>
<linearGradient id="SVGID_2_" gradientUnits="userSpaceOnUse" x1="-896.2573" y1="24.0898" x2="-895.22" y2="23.1317" gradientTransform="matrix(44.263 0 0 27.6675 39666.1133 -560.1484)">
	<stop  offset="0.1429" style="stop-color:#000000"/>
	<stop  offset="0.4335" style="stop-color:#FFD400"/>
	<stop  offset="0.7488" style="stop-color:#FF0000"/>
</linearGradient>
<path fill="url(#SVGID_2_)" d="M44.223,83.725h-1.478l-0.204-0.201c-0.082-0.055-0.137-0.11-0.165-0.164l-0.778,0.244
	c-0.029,0-0.07,0.028-0.125,0.084l-0.08,0.164H22.001c2.324,2.907,3.583,5.461,3.583,5.461c-2.811-2.897-6.288-4.545-9.633-5.461
	H9.348c5.713,6.021,8.235,13.398,8.235,13.398c-3.71-5.524-9.098-8.266-14.014-9.602V88.2l0.041,0.081c0,0.109,0,0.207,0,0.287
	c-0.025,0.137-0.041,0.277-0.041,0.41c0,0.354,0.053,0.685,0.165,0.984c0.136,0.275,0.395,0.453,0.779,0.533
	c0.436,0.219,0.862,0.452,1.273,0.699c0.435,0.3,0.777,0.71,1.026,1.23c0.135,0.41,0.202,0.82,0.202,1.229
	c0,0.632-0.134,1.354-0.411,2.176c-0.298,0.819-0.725,1.749-1.27,2.788c-0.493,0.739-1.025,1.491-1.599,2.258
	c-0.494,0.763-0.971,1.491-1.437,2.172c-0.438,0.659-0.793,1.204-1.067,1.642c-0.329,0.438-0.506,0.67-0.534,0.699v-0.082
	c0,0.053-0.067,0.313-0.205,0.778c-0.165,0.411-0.245,0.905-0.245,1.478c0,0.463,0.095,0.845,0.288,1.149
	c0.355,0.517,0.846,0.804,1.477,0.859c0.107,0.028,0.217,0.041,0.327,0.041h0.659c0,0.163-0.06,0.382-0.166,0.657
	c-0.026,0.105-0.042,0.231-0.042,0.369h9.186c0.108,0.106,0.261,0.064,0.452-0.123c0.354-0.166,0.533-0.576,0.533-1.231l0.083-0.084
	c0.738-2.241,1.408-4.103,2.01-5.577c0.572-1.502,1.078-2.706,1.517-3.609c0.464-0.848,0.876-1.477,1.23-1.887
	c0.302-0.382,0.563-0.656,0.779-0.819c0.218-0.084,0.439-0.125,0.658-0.125c0.137,0.08,0.368,0.175,0.697,0.288
	c0.382,0.081,0.903,0.162,1.558,0.245c0.738,0.054,1.628,0.082,2.667,0.082c1.096,0.023,2.436,0,4.02-0.082
	c0.793,0,1.287-0.055,1.479-0.164v-0.124l0.574-0.655V96.65c-0.082-0.356-0.166-0.727-0.244-1.109
	c-0.057-0.299-0.096-0.615-0.123-0.941c-0.029-0.355-0.043-0.654-0.043-0.9v-0.33c0-0.219,0.027-0.398,0.08-0.534
	c0.057-0.135,0.195-0.272,0.412-0.41c0.246-0.057,0.586-0.125,1.023-0.204c0.439-0.086,1.014-0.125,1.723-0.125
	c0.633,0,1.44-0.015,2.422-0.039c0.985,0,1.982-0.041,2.996-0.127c1.012-0.027,1.957-0.054,2.832-0.078
	c0.847-0.028,1.463-0.084,1.844-0.166c0.191,0,0.328-0.027,0.412-0.082c0.629-0.383,0.941-1.521,0.943-3.403L44.223,83.725z
	 M27.896,95.174c0,0.301-0.07,0.504-0.207,0.613c-0.08,0.137-0.189,0.208-0.328,0.208h-5.827c-0.079,0-0.178-0.071-0.284-0.208
	c-0.139-0.109-0.206-0.313-0.206-0.613v-1.968c0-0.249,0.067-0.438,0.206-0.577c0.107-0.138,0.205-0.204,0.284-0.204h5.827
	c0.139,0,0.248,0.066,0.328,0.204c0.137,0.139,0.207,0.328,0.207,0.577V95.174z"/>
<linearGradient id="SVGID_3_" gradientUnits="userSpaceOnUse" x1="-8.9834" y1="87.084" x2="8.6674" y2="76.9157">
	<stop  offset="0.3505" style="stop-color:#FFE3A0"/>
	<stop  offset="1" style="stop-color:#00FFFF"/>
</linearGradient>
<path fill="url(#SVGID_3_)" d="M3.57,85.121c0-0.246-0.041-0.408-0.124-0.492H3.405c-0.027,0-0.04-0.041-0.04-0.12
	c0-0.03,0.013-0.069,0.04-0.124L3.446,84.3c0.028-0.053,0.152-0.133,0.37-0.243c0.193-0.082,0.781-0.15,1.763-0.207
	c0.056-0.082,0.084-0.164,0.084-0.246c0-0.056,0.041-0.108,0.125-0.164c0.053-0.109,0.105-0.205,0.163-0.289l0.121-0.12l1.188,0.042
	l0.126,0.287c0.052,0.054,0.08,0.136,0.08,0.244c0.028,0.084,0.042,0.166,0.042,0.248h1.84c-0.343-0.361-0.7-0.717-1.067-1.067
	C5.586,82.729,3.771,83,3.771,83l1.582-2.651c-2.652-1.902-5.768-3.363-9.394-3.911l-4.438,10.125c0,0,5.621-0.66,12.049,1.086
	v-1.625C3.57,85.668,3.57,85.37,3.57,85.121z"/>
<linearGradient id="SVGID_4_" gradientUnits="userSpaceOnUse" x1="-896.3774" y1="23.96" x2="-895.3401" y2="23.0019" gradientTransform="matrix(44.263 0 0 27.6675 39666.1133 -560.1484)">
	<stop  offset="0.1429" style="stop-color:#000000"/>
	<stop  offset="0.4335" style="stop-color:#FFD400"/>
	<stop  offset="0.7488" style="stop-color:#FF0000"/>
</linearGradient>
<path fill="url(#SVGID_4_)" d="M17.583,97.25c0,0-2.522-7.378-8.235-13.398h-1.84c0-0.082-0.014-0.164-0.042-0.248
	c0-0.108-0.028-0.19-0.08-0.244L7.26,83.072L6.072,83.03l-0.121,0.12c-0.058,0.084-0.11,0.18-0.163,0.289
	c-0.084,0.056-0.125,0.108-0.125,0.164c0,0.082-0.028,0.164-0.084,0.246c-0.982,0.057-1.57,0.125-1.763,0.207
	c-0.218,0.11-0.342,0.19-0.37,0.243l-0.041,0.085c-0.027,0.055-0.04,0.094-0.04,0.124c0,0.079,0.013,0.12,0.04,0.12h0.041
	c0.083,0.084,0.124,0.246,0.124,0.492c0,0.249,0,0.547,0,0.902v1.625C8.485,88.984,13.873,91.726,17.583,97.25z"/>
<linearGradient id="SVGID_5_" gradientUnits="userSpaceOnUse" x1="-2.5366" y1="17.4434" x2="15.1152" y2="7.2744">
	<stop  offset="0.3505" style="stop-color:#FFE3A0"/>
	<stop  offset="1" style="stop-color:#00FFFF"/>
</linearGradient>
<path fill="url(#SVGID_5_)" d="M17.583,16.417c0,0-2.522-7.378-8.235-13.398h-1.84c0-0.082-0.014-0.164-0.042-0.248
	c0-0.108-0.028-0.19-0.08-0.244L7.26,2.239L6.072,2.197l-0.121,0.12c-0.058,0.084-0.11,0.18-0.163,0.289
	C5.704,2.662,5.663,2.715,5.663,2.771c0,0.082-0.028,0.164-0.084,0.246c-0.982,0.057-1.57,0.125-1.763,0.207
	c-0.218,0.11-0.342,0.19-0.37,0.243L3.405,3.552c-0.027,0.055-0.04,0.094-0.04,0.124c0,0.079,0.013,0.12,0.04,0.12h0.041
	C3.529,3.88,3.57,4.042,3.57,4.288c0,0.249,0,0.547,0,0.902v1.625C8.485,8.151,13.873,10.893,17.583,16.417z"/>
<linearGradient id="SVGID_6_" gradientUnits="userSpaceOnUse" x1="4.6357" y1="85.7383" x2="20.2802" y2="76.7258">
	<stop  offset="0.1781" style="stop-color:#FFE3A0"/>
	<stop  offset="1" style="stop-color:#00FFFF"/>
</linearGradient>
<path fill="url(#SVGID_6_)" d="M15.951,83.852h6.05c-2.981-3.73-7.716-8.043-13.792-8.289l-2.856,4.786
	c1.049,0.753,2.024,1.572,2.929,2.436C10.433,82.829,13.144,83.082,15.951,83.852z"/>
<linearGradient id="SVGID_7_" gradientUnits="userSpaceOnUse" x1="-896.3462" y1="23.9932" x2="-895.3089" y2="23.0351" gradientTransform="matrix(44.263 0 0 27.6675 39666.1133 -560.1484)">
	<stop  offset="0.1429" style="stop-color:#000000"/>
	<stop  offset="0.4335" style="stop-color:#FFD400"/>
	<stop  offset="0.7488" style="stop-color:#FF0000"/>
</linearGradient>
<path fill="url(#SVGID_7_)" d="M25.584,89.313c0,0-1.259-2.554-3.583-5.461h-6.05C19.296,84.768,22.773,86.415,25.584,89.313z"/>
<linearGradient id="SVGID_8_" gradientUnits="userSpaceOnUse" x1="9.0205" y1="12.5166" x2="24.665" y2="3.5041">
	<stop  offset="0.1781" style="stop-color:#FFE3A0"/>
	<stop  offset="1" style="stop-color:#00FFFF"/>
</linearGradient>
<path fill="url(#SVGID_8_)" d="M25.584,8.479c0,0-1.259-2.554-3.583-5.461h-6.05C19.296,3.935,22.773,5.582,25.584,8.479z"/>
<linearGradient id="SVGID_9_" gradientUnits="userSpaceOnUse" x1="-7.4331" y1="89.7754" x2="10.2176" y2="79.6071">
	<stop  offset="0.3505" style="stop-color:#FFE3A0"/>
	<stop  offset="1" style="stop-color:#00FFFF"/>
</linearGradient>
<path fill="url(#SVGID_9_)" d="M8.281,82.784c-0.904-0.863-1.88-1.683-2.929-2.436L3.771,83C3.771,83,5.586,82.729,8.281,82.784z"/>
<linearGradient id="SVGID_10_" gradientUnits="userSpaceOnUse" x1="3.3745" y1="83.5488" x2="19.019" y2="74.5363">
	<stop  offset="0.1781" style="stop-color:#FFE3A0"/>
	<stop  offset="1" style="stop-color:#00FFFF"/>
</linearGradient>
<path fill="url(#SVGID_10_)" d="M8.281,82.784c-0.904-0.863-1.88-1.683-2.929-2.436L3.771,83C3.771,83,5.586,82.729,8.281,82.784z"
	/>
<g>
	<g>
		<g>
			<g>
				<g>
					<g>
						<linearGradient id="SVGID_11_" gradientUnits="userSpaceOnUse" x1="40.2959" y1="-3.4219" x2="-2.349" y2="23.2342">
							<stop  offset="0" style="stop-color:#BB925B"/>
							<stop  offset="0.3429" style="stop-color:#FFF6DA"/>
							<stop  offset="0.6571" style="stop-color:#FFF1B1"/>
							<stop  offset="1" style="stop-color:#B38B54"/>
						</linearGradient>
						<path fill="url(#SVGID_11_)" d="M6.552,3.282C6.678,3.69,7.058,3.987,7.508,3.987h33.885c0.288,0,0.557-0.124,0.744-0.332
							c0.174,0.134,0.387,0.207,0.608,0.207h0.54l0.225,3.506c-0.005,1.688-0.278,2.27-0.418,2.457
							c-0.05,0.003-0.1,0.01-0.148,0.021c-0.22,0.048-0.688,0.11-1.662,0.142c-0.874,0.025-1.818,0.053-2.83,0.08
							c-0.019,0.001-0.037,0.002-0.056,0.003c-0.974,0.081-1.954,0.122-2.938,0.122c-0.972,0.025-1.771,0.039-2.396,0.039
							c-0.788,0-1.414,0.047-1.902,0.142c-0.457,0.083-0.812,0.155-1.068,0.214c-0.109,0.025-0.214,0.068-0.309,0.129
							c-0.399,0.251-0.661,0.535-0.811,0.892c-0.045,0.116-0.08,0.241-0.104,0.375c-0.065-0.371-0.224-0.642-0.38-0.826
							c-0.264-0.38-0.668-0.595-1.125-0.595h-5.827c-0.271,0-0.668,0.096-1.037,0.544c-0.217,0.235-0.454,0.63-0.454,1.237v1.968
							c0,0.563,0.163,1.003,0.483,1.309c0.03,0.035,0.061,0.068,0.091,0.1c-0.156-0.026-0.295-0.052-0.417-0.076
							c-0.338-0.118-0.435-0.172-0.451-0.182c-0.155-0.093-0.333-0.142-0.513-0.142c-0.337,0-0.677,0.063-1.01,0.189
							c-0.09,0.034-0.175,0.08-0.252,0.139c-0.287,0.218-0.601,0.544-0.932,0.964c-0.409,0.473-0.85,1.146-1.373,2.102
							c-0.45,0.926-0.972,2.168-1.543,3.67c-0.585,1.432-1.247,3.262-1.967,5.438c-0.129,0.172-0.201,0.383-0.201,0.602
							c0,0.186-0.02,0.297-0.036,0.354H3.998c0-0.008,0-0.018,0-0.025c0-0.266-0.105-0.52-0.293-0.707S3.263,27.75,2.998,27.75
							H2.339c-0.027,0-0.052-0.004-0.071-0.008c-0.055-0.016-0.111-0.025-0.168-0.029c-0.333-0.029-0.554-0.158-0.721-0.4
							c-0.088-0.137-0.132-0.344-0.132-0.613c0-0.447,0.058-0.818,0.173-1.105c0.012-0.027,0.022-0.059,0.031-0.088
							c0.062-0.211,0.108-0.373,0.143-0.502c0.086-0.111,0.219-0.287,0.437-0.576c0.017-0.023,0.033-0.047,0.048-0.07
							c0.27-0.432,0.62-0.969,1.044-1.607c0.498-0.727,1.002-1.5,1.433-2.164c0.567-0.758,1.109-1.523,1.61-2.275
							c0.02-0.029,0.037-0.061,0.054-0.09c0.584-1.115,1.018-2.068,1.332-2.934c0.312-0.927,0.463-1.742,0.463-2.495
							c0-0.516-0.085-1.034-0.252-1.543c-0.013-0.04-0.029-0.08-0.048-0.118C7.39,10.452,6.932,9.906,6.354,9.508
							C6.337,9.498,6.32,9.487,6.304,9.476C5.879,9.22,5.428,8.972,4.962,8.739C4.885,8.7,4.803,8.671,4.718,8.654
							C4.68,8.645,4.652,8.637,4.633,8.63C4.591,8.477,4.57,8.304,4.57,8.116c0-0.044,0.004-0.119,0.024-0.229
							c0.011-0.06,0.017-0.12,0.017-0.181V7.417c0-0.097-0.014-0.191-0.041-0.283V5.161V4.257c0-0.044,0-0.109-0.005-0.188
							c0.223-0.025,0.562-0.055,1.071-0.084c0.311-0.018,0.596-0.179,0.771-0.437C6.464,3.462,6.513,3.374,6.552,3.282
							 M28.896,14.111c0.029,0.271,0.065,0.522,0.112,0.767c0.051,0.249,0.104,0.493,0.157,0.731l-0.188,0.216
							c-0.161,0.015-0.412,0.028-0.794,0.028c0.102-0.079,0.194-0.173,0.275-0.282c0.224-0.237,0.438-0.63,0.438-1.261V14.111
							 M6.072,2.167L5.951,2.288c-0.058,0.084-0.11,0.179-0.163,0.289C5.704,2.631,5.663,2.684,5.663,2.739
							c0,0.084-0.028,0.166-0.084,0.248c-0.982,0.056-1.57,0.125-1.763,0.207c-0.218,0.109-0.342,0.189-0.37,0.242L3.405,3.521
							c-0.027,0.054-0.04,0.095-0.04,0.124c0,0.079,0.013,0.12,0.04,0.12h0.041C3.529,3.849,3.57,4.011,3.57,4.257
							c0,0.249,0,0.547,0,0.903v2.176l0.041,0.081c0,0.11,0,0.207,0,0.288C3.586,7.841,3.57,7.981,3.57,8.116
							c0,0.354,0.053,0.684,0.165,0.983C3.871,9.375,4.13,9.552,4.514,9.632c0.436,0.219,0.862,0.452,1.273,0.7
							c0.435,0.299,0.777,0.709,1.026,1.229c0.135,0.41,0.202,0.82,0.202,1.229c0,0.632-0.134,1.354-0.411,2.176
							c-0.298,0.82-0.725,1.75-1.27,2.789c-0.493,0.738-1.025,1.49-1.599,2.258c-0.494,0.762-0.971,1.49-1.437,2.172
							c-0.438,0.658-0.793,1.203-1.067,1.641c-0.329,0.439-0.506,0.67-0.534,0.699v-0.082c0,0.053-0.067,0.313-0.205,0.779
							c-0.165,0.41-0.245,0.904-0.245,1.477c0,0.463,0.095,0.846,0.288,1.15c0.355,0.516,0.846,0.803,1.477,0.859
							c0.107,0.027,0.217,0.041,0.327,0.041h0.659c0,0.162-0.06,0.381-0.166,0.656c-0.026,0.105-0.042,0.232-0.042,0.369h9.186
							c0.039,0.039,0.083,0.059,0.134,0.059c0.089,0,0.196-0.061,0.318-0.182c0.354-0.166,0.533-0.576,0.533-1.23l0.083-0.084
							c0.738-2.242,1.408-4.104,2.01-5.578c0.572-1.502,1.078-2.705,1.517-3.609c0.464-0.848,0.876-1.477,1.23-1.887
							c0.302-0.381,0.563-0.656,0.779-0.82c0.218-0.082,0.439-0.125,0.658-0.125c0.137,0.082,0.368,0.176,0.697,0.289
							c0.382,0.082,0.903,0.162,1.558,0.246c0.738,0.053,1.628,0.082,2.667,0.082c0.266,0.006,0.546,0.008,0.841,0.008
							c0.92,0,1.979-0.027,3.179-0.09c0.793,0,1.287-0.055,1.479-0.164v-0.125l0.574-0.656v-0.123
							c-0.082-0.355-0.166-0.726-0.244-1.108c-0.057-0.299-0.096-0.615-0.123-0.942c-0.029-0.354-0.043-0.654-0.043-0.899v-0.33
							c0-0.22,0.027-0.399,0.08-0.534c0.057-0.135,0.195-0.273,0.412-0.41c0.246-0.057,0.586-0.125,1.023-0.205
							c0.439-0.085,1.014-0.125,1.723-0.125c0.633,0,1.44-0.014,2.422-0.039c0.985,0,1.982-0.041,2.996-0.125
							c1.012-0.027,1.957-0.055,2.832-0.08c0.847-0.027,1.463-0.082,1.844-0.164c0.191,0,0.328-0.028,0.412-0.084
							c0.629-0.383,0.941-1.52,0.943-3.402l-0.287-4.475h-1.478l-0.204-0.203c-0.082-0.054-0.137-0.109-0.165-0.164l-0.778,0.246
							c-0.029,0-0.07,0.027-0.125,0.082l-0.08,0.164H7.508c0-0.08-0.014-0.164-0.042-0.246c0-0.109-0.028-0.191-0.08-0.246
							L7.26,2.208L6.072,2.167L6.072,2.167z M21.534,15.131c-0.079,0-0.178-0.071-0.284-0.208c-0.139-0.109-0.206-0.312-0.206-0.613
							v-1.968c0-0.249,0.067-0.439,0.206-0.577c0.107-0.138,0.205-0.204,0.284-0.204h5.827c0.139,0,0.248,0.066,0.328,0.204
							c0.137,0.14,0.207,0.328,0.207,0.577v1.968c0,0.3-0.07,0.504-0.207,0.613c-0.08,0.137-0.189,0.208-0.328,0.208H21.534
							L21.534,15.131z"/>
					</g>
				</g>
			</g>
		</g>
	</g>
</g>
</svg>
