<?xml version="1.0" encoding="utf-8"?>
<!-- Generator: Adobe Illustrator 16.0.0, SVG Export Plug-In . SVG Version: 6.00 Build 0)  -->
<!DOCTYPE svg PUBLIC "-//W3C//DTD SVG 1.0//EN" "http://www.w3.org/TR/2001/REC-SVG-20010904/DTD/svg10.dtd">
<svg version="1.0" id="图层_1" xmlns="http://www.w3.org/2000/svg" xmlns:xlink="http://www.w3.org/1999/xlink" x="0px" y="0px"
	 width="92px" height="36px" viewBox="0 0 92 36" enable-background="new 0 0 92 36" xml:space="preserve">
<linearGradient id="SVGID_1_" gradientUnits="userSpaceOnUse" x1="0" y1="15.8911" x2="78.603" y2="15.8911">
	<stop  offset="0" style="stop-color:#FFD93F"/>
	<stop  offset="1" style="stop-color:#FF310E"/>
</linearGradient>
<path fill="url(#SVGID_1_)" d="M39.1,16.9c0-0.3-0.1-0.6-0.3-0.8c-0.2-0.2-0.4-0.3-0.7-0.3h-1.9c0,0,0,0,0,0c-0.1,0.1-0.1,0.2-0.2,0.5
				c0,0.2,0.1,0.5,0.2,0.9c0.1,0.3,0.2,0.5,0.1,0.5c-0.2,0.1-0.5-0.1-0.9-0.7c-0.1-0.2-0.2-0.4-0.3-0.7l0-0.5
				c-0.2,0.1-0.3,0.2-0.5,0.3c-0.3,0.3-0.4,0.5-0.4,0.8c0,0.4,0.1,0.7,0.3,1c0.2,0.3,0.5,0.5,0.9,0.5h2.4c0.5,0,0.8-0.2,1-0.5
				C39,17.6,39.1,17.3,39.1,16.9z M68.9,6.5c-0.1,0.3-0.2,0.4-0.2,0.5c0,0.1,0,0.2,0,0.5L69,8h1.8l0.1-2.3h-1.5L68.9,6.5z M73,11
				c-0.1,0-0.1,0-0.2-0.1l-0.1-0.1h-1.2c-0.2,0.4-0.3,0.7-0.5,0.7h-0.6c-0.1,0-0.2-0.1-0.2-0.2l-0.1-0.2h-2.4v0.6
				c0,0.2-0.1,0.3-0.3,0.5c-0.2,0.2-0.4,0.3-0.7,0.3H47.9c-0.1,0-0.3-0.1-0.4-0.4l-0.2-0.4L47,12.5h-0.3v4.5l0.3,0.4
				c0,0.1-0.1,0.2-0.3,0.3c-0.1,0.1-0.2,0.3-0.1,0.8c0.1,0.9,0.1,1.4,0.1,1.6c0,0.5,0,1,0.1,1.4c0.1,0.3,0.2,0.8,0.3,1.3
				c0.2,0.7,0.5,1.9,1.1,3.6l0.2,0.1c0.1,0.1,0,0.2-0.1,0.3c-3.9,1.2-5.9,1.9-6.2,1.9c-0.2,0-0.3-0.1-0.3-0.2
				c-0.1-0.1-0.1-0.2,0-0.4c0-0.1-0.1-0.5-0.4-1.4c-0.4-1.2-0.6-2.3-0.8-3.4c-0.2-1.2-0.3-2.2-0.4-3.2l0-1.1l-0.5-0.2v-0.4
				c-0.2,0.3-0.4,0.5-0.5,0.5h-4.4c-0.2,0.3-0.3,0.4-0.4,0.4c-0.1,0-0.2-0.1-0.3-0.2L33.9,19c-0.1-0.1-0.2-0.1-0.3-0.1
				c-0.2,0-0.4,0.1-0.5,0.4c-0.1,0.2-0.2,0.4-0.3,0.5c-0.2,0.2-0.3,0.3-0.3,0.4c-0.1,0.1,0,0.3,0.1,0.5c0.2,0.2,0.2,0.4,0.2,0.5
				c0,0.1-0.2,0.1-0.5,0.3c-0.3,0.1-0.5,0.3-0.6,0.5c0,0.1-0.3,0.6-0.8,1.5c-0.4,0.8-0.7,1.3-0.7,1.4c0,0.1,0.1,0.2,0.3,0.5
				c0.2,0.2,0.2,0.4,0,0.6c-0.3,0.4-1.4,0.4-3.5,0.1c-0.8-0.1-1.4-0.3-1.8-0.5c-0.5-0.3-0.6-0.5-0.5-0.9c0.2-0.4,1.9-3.3,4.9-8.5
				c0.2-0.3,0.2-0.7,0-1.2c-0.2-0.5-0.4-0.8-0.7-0.9c-0.2,0-0.5,0-0.7,0c-0.2,0-0.3,0-0.4,0c-0.3-0.1-0.4-0.3-0.4-0.6
				c0-0.3,0-0.6,0-0.9c0-0.5,0-0.9,0-1.1h-0.2l-0.5-0.2v-0.2h-6l-0.1,0.4c-0.1,0.3-0.4,0.6-0.7,0.9c-0.4,0.3-0.7,0.5-0.9,0.8
				l-0.3,0.3L18,14.8h-0.9l-0.6,1.1h-2.3v-0.6h-1.4c-2,1.5-3.1,2.4-3.3,2.5C9.3,17.9,9.1,18,9,18c-0.1,0-0.2-0.1-0.3-0.2l0-0.4
				l-6.2,4l-0.1,0.5c-0.1,0.3-0.3,0.5-0.4,0.5c-0.2,0.1-0.4,0-0.7,0C1,22.3,0.7,22.2,0.6,22c-0.3-0.2-0.4-0.3-0.4-0.4
				C0.1,21.6,0,21.4,0,21.1V9.2c0-0.3,0.1-0.6,0.4-0.8C0.6,8.1,1,7.9,1.4,7.9h19.4c0.1,0,0.2,0.1,0.2,0.3c0,0.1,0.1,0.2,0.1,0.3h5.6
				V8.3l0.5-0.2h1V7.3l0.2-0.2C28.6,7,29,6.9,29.5,6.9h2.3l0.8-1.2l-0.1-0.4c-0.2-0.1-0.3-0.1-0.5-0.2c-0.3-0.2-0.5-0.5-0.5-0.9
				c0-0.3,0.1-0.5,0.3-0.7c0.2-0.2,0.5-0.4,0.8-0.4c0.3,0,0.6,0.1,0.9,0.4c0.2,0.2,0.3,0.5,0.3,0.7v2.3h0.5V5.9h1.4v0.8h11
				c0.2,0,0.3,0.1,0.4,0.2c0.1,0.1,0.2,0.2,0.2,0.4c0,0.1,0.2,0.1,0.5-0.2h1.2c0-0.1,0-0.1,0-0.2c0.1-0.1,0.2-0.2,0.3-0.2h17.4
				c0.2,0,0.3,0.1,0.4,0.2c0.1,0.1,0.1,0.1,0.2,0.2L68.2,6c0.6-0.8,0.9-1.3,1.1-1.4l0.2-0.2c0.2-0.1,0.6-0.2,1-0.2h1v5h1.2L72.8,9
				c0.1-0.1,0.2-0.2,0.3-0.2h4.7c0.2,0,0.4,0.1,0.5,0.2c0.2,0.2,0.3,0.4,0.3,0.8v0.4c0,0.3-0.1,0.5-0.3,0.6C78.2,11,78,11,77.8,11
				L73,11L73,11z"/>
</svg>
