<?xml version="1.0" encoding="utf-8"?>
<!-- Generator: Adobe Illustrator 16.0.0, SVG Export Plug-In . SVG Version: 6.00 Build 0)  -->
<!DOCTYPE svg PUBLIC "-//W3C//DTD SVG 1.1//EN" "http://www.w3.org/Graphics/SVG/1.1/DTD/svg11.dtd">
<svg version="1.1" xmlns="http://www.w3.org/2000/svg" xmlns:xlink="http://www.w3.org/1999/xlink" x="0px" y="0px"
	 width="79.833px" height="32px" viewBox="0 0 79.833 32" enable-background="new 0 0 79.833 32" xml:space="preserve">
<g id="Selected_Items">
	<g>
		<g id="Selected_Items_16_">
			<linearGradient id="SVGID_1_" gradientUnits="userSpaceOnUse" x1="0.564" y1="16.5876" x2="79.445" y2="16.5876">
				<stop  offset="0" style="stop-color:#FFD93F"/>
				<stop  offset="1" style="stop-color:#FF310E"/>
			</linearGradient>
			<path fill-rule="evenodd" clip-rule="evenodd" fill="url(#SVGID_1_)" d="M16.6,10.5c1.6-0.2,2.8-0.4,3.7-0.5c0.7-0.1,2-0.1,3.7-0.2c1.8,0,3.2,0,4.1,0c0.8,0,1.6,0.1,2.5,0.3
				c0.4,0.1,0.8,0.1,1.1,0.2c1,0.6,2.2,0.9,3.4,0.9c0.3,0,0.6,0,1.1,0c0.3,0,0.5,0,0.5,0c0.1,0.1,0.4,0.1,1-0.1
				c0.5-0.1,1-0.3,1.6-0.5c0.5-0.2,0.8-0.3,1-0.3c0.2,0,0.5,0,0.8,0.1c0.3,0.1,0.6,0.3,0.8,0.5c0.1,0.1,0.2,0.2,0.3,0.4
				c0.1,0.1,0.1,0.2,0.2,0.4c0.1,0.2,0.5,0.3,1.1,0.1c0.3,0,0.6-0.1,0.8-0.2c0.3,0,0.6-0.2,1-0.5c0.2-0.2,0.3-0.3,0.4-0.5
				c0,0,0.3,0.1,0.8,0.2c0.6,0.1,1.2,0.2,1.9,0.4c0.2,0,0.4,0.1,0.7,0.1c1.9,0.3,3.7,0.5,5.6,0.6c2.1,0.1,4.4,0,6.8-0.4
				c1.2-0.2,2.3-0.4,3.1-0.6l0.2,0.1c0.3,0.2,0.7,0.4,1.2,0.7c1.2,0.7,2.5,1.3,3.8,1.6c0.7,0.2,1.5,0.3,2.4,0.4c0.4,0,0.8,0,1.2,0.1
				c1,0,2.4-0.1,4.1-0.4c0.8-0.1,1.6-0.2,2.2-0.4c-0.2,0.3-0.5,0.6-0.8,1c-0.6,0.8-1.2,1.4-1.7,2c-0.5,0.6-1.4,1.2-2.6,1.7
				c-0.9,0.4-1.7,0.7-2.5,0.9c-0.1,0-0.2,0-0.3,0.1c-0.7,0.2-1.8,0.2-3.3,0.1c-1.2-0.1-2.4-0.2-3.4-0.3c-0.7-0.1-3.4-0.5-8.2-1
				l-6.9-0.8L49.7,17l-1.9,0.1c-0.1-0.1-0.2-0.2-0.3-0.3c-0.1-0.1-0.2-0.1-0.4-0.2c-0.2,0-0.4,0-0.5,0c-0.1,0-0.2,0.1-0.4,0.2
				l-0.1,0.1l0-0.2c0-0.2-0.1-0.3-0.4-0.4c-0.1,0-0.3,0-0.5,0.1c-0.2,0.1-0.4,0.2-0.4,0.3c0,0.1,0,0.2,0,0.3c0,0.2-0.1,0.4-0.3,0.6
				c-0.2,0.2-0.4,0.4-0.8,0.6c-0.4,0.2-0.7,0.2-0.9,0.3c-0.2,0-0.4,0-0.6-0.1c0,0-0.1,0-0.1-0.1l0,0l0.1,0.3
				c0.1,0.2,0.1,0.3,0.1,0.5c0,0.2,0,0.5,0,0.8c0,0.3-0.1,0.6-0.4,1c-0.2,0.3-0.3,0.5-0.5,0.7c-0.1,0.1-0.3,0.2-0.4,0.3
				C40.8,22,40.7,22,40.6,22c-0.1-0.1-0.1-0.1-0.1-0.2c0,0,0.1-0.1,0.3-0.4c0.1-0.2,0.3-0.5,0.4-1c0.1-0.5,0.1-0.9,0.1-1.2
				c0-0.3-0.1-0.6-0.4-1.1c-0.1-0.2-0.2-0.3-0.3-0.5c-0.1-0.1-0.1-0.2-0.2-0.2c-0.1,0-0.3,0-0.6,0c-0.4,0-0.8,0-1-0.1
				c-0.2,0-1.3-0.1-3.2-0.4c-2-0.3-3.1-0.4-3.4-0.4c-0.5,0-2.4,0-5.9,0.3c-3.4,0.2-5.5,0.4-6.2,0.5c-0.6,0.1-1.8,0.4-3.5,0.9
				c-1.3,0.4-2.4,0.7-3.3,1c-0.6,0.2-1.7,0.6-3.1,1.2c-1.4,0.6-2.3,1.1-2.7,1.3c-0.4,0.2-0.6,0.4-0.8,0.5c-0.2,0.1-0.3,0.3-0.4,0.4
				c-0.1,0.1-0.1,0.2-0.1,0.3c0,0-0.1,0.1-0.1,0.2c-0.1,0.1-0.2,0.1-0.4,0.1c-0.2,0-0.4-0.1-0.6-0.2c-0.2-0.1-0.6-0.5-1.3-1.3
				c-0.3-0.3-0.5-0.6-0.7-0.9c-0.2-0.3-0.3-0.4-0.3-0.4c0-0.1,0.1-0.2,0.4-0.4c0.2-0.1,0.7-0.5,1.5-1c0.6-0.4,1.5-0.9,2.8-1.4
				c0.3-0.1,0.7-0.3,1.3-0.5c0.4-0.2,0.7-0.3,0.8-0.4c0.5-0.2,1-0.4,1.6-0.7c0.9-0.3,2-0.7,3.4-1.1c1.3-0.4,3.1-0.7,5.4-1
				c0.8-0.1,1.5-0.2,2.3-0.3c0.6-0.1,1-0.1,1.2-0.1c0.4,0,1.2,0,2.3-0.1c1.4,0,2.2,0,2.6,0c0.9,0.1,1.9,0.1,3,0.2
				c1.6,0.1,2.5,0.2,2.6,0.3c0.1,0,0.3,0.1,0.7,0.4c0.4,0.2,0.8,0.3,1.1,0.4c0.3,0.1,0.6,0.1,0.8,0.2c0.1,0,0.2,0,0.3,0l-0.2-0.3
				c-0.1-0.2-0.2-0.4-0.2-0.6c0-0.2-0.1-0.3-0.1-0.5c0-0.1,0-0.1,0-0.1h-0.1c-0.5,0-1,0-1.5-0.1c-0.3,0-1.2-0.1-2.8-0.2
				c-1.6-0.1-2.7-0.1-3.2-0.1c-0.5,0-1.1,0-1.9,0.1c-0.7,0-1.8,0.1-3.1,0.2c-1.2,0.1-2.8,0.3-4.7,0.7c-1.7,0.3-3.3,0.6-4.6,1
				c-1.1,0.3-2.5,0.8-4.4,1.6c-1,0.4-2.1,0.9-3.3,1.4c-0.5,0.2-1.1,0.6-1.9,1.1C4.4,19.3,4,19.6,3.4,20c-0.1,0.1-0.2,0-0.4,0
				c-0.1,0-0.1,0-0.1-0.1l-0.1,0C2.7,19.8,2.4,19.5,2,19c-0.5-0.5-0.8-0.9-0.9-1c-0.2-0.2-0.4-0.4-0.4-0.5c-0.1-0.1-0.1-0.2,0-0.3
				c0.1,0,0.2-0.2,0.4-0.4c0.2-0.3,0.4-0.5,0.5-0.7c0.2-0.2,0.7-0.5,1.7-1.2c0.5-0.3,1-0.6,1.4-0.8c0.6-0.4,2-0.9,4.2-1.7
				c1.7-0.6,3.1-1,4.1-1.3C13.6,11,14.8,10.8,16.6,10.5z M26.1,10.5c-0.2,0-0.4,0.1-0.5,0.2c-0.1,0.1-0.2,0.3-0.2,0.5
				c0,0.2,0.1,0.4,0.2,0.5c0.1,0.1,0.3,0.2,0.5,0.2c0.2,0,0.4-0.1,0.5-0.2c0.1-0.1,0.2-0.3,0.2-0.5c0-0.2-0.1-0.4-0.2-0.5
				C26.5,10.6,26.3,10.5,26.1,10.5z M28.4,10.9c-0.1,0.1-0.2,0.3-0.2,0.5c0,0.2,0.1,0.4,0.2,0.5c0.1,0.1,0.3,0.2,0.5,0.2
				c0.2,0,0.4-0.1,0.5-0.2c0.1-0.1,0.2-0.3,0.2-0.5c0-0.2-0.1-0.4-0.2-0.5c-0.1-0.1-0.3-0.2-0.5-0.2C28.7,10.7,28.5,10.8,28.4,10.9z
				 M66.2,13.6l-14.6-0.4l0.6,0.3l14.4,0.4L66.2,13.6z M32,15.2c0-0.2-0.1-0.3-0.2-0.5c-0.1-0.1-0.3-0.2-0.5-0.2
				c-0.2,0-0.4,0.1-0.5,0.2c-0.1,0.1-0.2,0.3-0.2,0.5c0,0.2,0.1,0.3,0.2,0.5c0.1,0.1,0.3,0.2,0.5,0.2c0.2,0,0.3-0.1,0.5-0.2
				S32,15.4,32,15.2z M33.3,15c-0.1,0.1-0.2,0.3-0.2,0.5c0,0.2,0.1,0.4,0.2,0.5c0.1,0.1,0.3,0.2,0.5,0.2c0.2,0,0.3-0.1,0.5-0.2
				c0.1-0.1,0.2-0.3,0.2-0.5c0-0.2-0.1-0.4-0.2-0.5c-0.1-0.1-0.3-0.2-0.5-0.2C33.6,14.8,33.5,14.8,33.3,15z M10.5,17.9
				c-0.2,0.1-0.2,0.3-0.2,0.5c0,0.2,0.1,0.4,0.2,0.5c0.1,0.1,0.3,0.2,0.5,0.2s0.4-0.1,0.5-0.2c0.2-0.1,0.2-0.3,0.2-0.5
				c0-0.2-0.1-0.3-0.2-0.5c-0.1-0.1-0.3-0.2-0.5-0.2S10.6,17.7,10.5,17.9z M3.6,17.7c0.2,0,0.3-0.1,0.5-0.2c0.1-0.1,0.2-0.3,0.2-0.5
				c0-0.2-0.1-0.4-0.2-0.5c-0.1-0.1-0.3-0.2-0.5-0.2c-0.2,0-0.4,0.1-0.5,0.2C3,16.6,2.9,16.8,2.9,17c0,0.2,0.1,0.3,0.2,0.5
				C3.2,17.6,3.4,17.7,3.6,17.7z M5.6,16c0,0.2,0.1,0.4,0.2,0.5c0.1,0.1,0.3,0.2,0.5,0.2c0.2,0,0.4-0.1,0.5-0.2
				C6.9,16.4,7,16.2,7,16c0-0.2-0.1-0.3-0.2-0.5c-0.1-0.1-0.3-0.2-0.5-0.2c-0.2,0-0.3,0.1-0.5,0.2C5.7,15.7,5.6,15.8,5.6,16z
				 M8.3,18.8c-0.1,0.1-0.2,0.3-0.2,0.5c0,0.2,0.1,0.4,0.2,0.5C8.4,19.9,8.6,20,8.8,20s0.4-0.1,0.5-0.2c0.1-0.1,0.2-0.3,0.2-0.5
				c0-0.2-0.1-0.3-0.2-0.5c-0.1-0.1-0.3-0.2-0.5-0.2S8.4,18.7,8.3,18.8z"/>
		</g>
	</g>
</g>
<g id="guides">
</g>
</svg>
