<?xml version="1.0" encoding="utf-8"?>
<!-- Generator: Adobe Illustrator 16.0.0, SVG Export Plug-In . SVG Version: 6.00 Build 0)  -->
<!DOCTYPE svg PUBLIC "-//W3C//DTD SVG 1.1//EN" "http://www.w3.org/Graphics/SVG/1.1/DTD/svg11.dtd">
<svg version="1.1" id="图层_1" xmlns="http://www.w3.org/2000/svg" xmlns:xlink="http://www.w3.org/1999/xlink" x="0px" y="0px"
	 width="98px" height="32px" viewBox="0 0 98 32" enable-background="new 0 0 98 32" xml:space="preserve">
<linearGradient id="SVGID_1_" gradientUnits="userSpaceOnUse" x1="-2.166" y1="65.4092" x2="-2.2574" y2="65.5005" gradientTransform="matrix(1 0 0 -1 59.04 15.3398)">
	<stop  offset="0" style="stop-color:#BB925B"/>
	<stop  offset="0.3429" style="stop-color:#FFF6DA"/>
	<stop  offset="0.6571" style="stop-color:#FFF1B1"/>
	<stop  offset="1" style="stop-color:#B38B54"/>
</linearGradient>
<path fill="url(#SVGID_1_)" d="M56.853-50.199c0,0.07-0.012,0.132-0.034,0.184C56.841-50.074,56.853-50.136,56.853-50.199z"/>
<g>
	<rect fill="none" width="98" height="32"/>
	<g>
		<g>
			<g>
				<g>
					
						<linearGradient id="SVGID_2_" gradientUnits="userSpaceOnUse" x1="-506.8994" y1="31.4746" x2="-507.8994" y2="32.4746" gradientTransform="matrix(96.387 0 0 25.661 48950.7031 -805.8496)">
						<stop  offset="0.2512" style="stop-color:#FF0000"/>
						<stop  offset="0.5665" style="stop-color:#FFD400"/>
						<stop  offset="0.8325" style="stop-color:#000000"/>
					</linearGradient>
					<path fill="url(#SVGID_2_)" d="M92.94,13.67v-0.22h-0.41v0.22h-4.79v-0.22c0-0.03-0.021-0.04-0.04-0.04v-0.08h-0.15V13.3H87.36
						v0.37c-0.021-0.03-0.051-0.03-0.07,0c0-0.03-0.01-0.04-0.04-0.04l-0.11-0.11v-0.04l-0.04-0.07v-0.08h-0.22v0.3h-0.74v-0.3
						h-0.52v0.38h-9.11v-2.13h0.07v-0.37h-0.04V11.1h-0.26c-0.021,0-0.03-0.01-0.03-0.04v-0.22h0.41v-0.33
						c-0.15,0-0.311-0.02-0.49-0.04v-0.26h-6.62c-0.05-0.03-0.08-0.04-0.109-0.04c-0.021,0-0.051,0.01-0.07,0.04h-3.01V9.8
						l-0.04-0.04V9.61c0-0.02-0.011-0.03-0.03-0.03V9.46h-0.04V9.43c-0.03,0-0.04-0.01-0.04-0.04V9.35h-0.03V9.28
						c0-0.03-0.02-0.04-0.04-0.04V9.17H66.1V9.09h-0.04V9.02c0-0.03-0.01-0.04-0.029-0.04l-0.04-0.04V8.91h-0.04V8.76h-0.07V8.72
						l-0.04-0.04h-0.93v0.04h-0.07v0.37c-0.05-0.02-0.09-0.03-0.109-0.03c-0.03,0-0.04-0.02-0.04-0.04h-0.04V8.98
						c0-0.02-0.021-0.04-0.07-0.04l-0.04-0.03H64.5V8.87c-0.02-0.03-0.05-0.04-0.07-0.04l-0.04-0.04V8.76h-0.04
						c-0.02-0.03-0.05-0.04-0.069-0.04h-0.3V8.68H61.42v0.08H61.23v0.59l0.039,0.04v0.82H46.54V9.87c0.03-0.04,0.04-0.11,0.04-0.18
						V8.16c0-0.07-0.01-0.15-0.04-0.22V7.57h0.15V7.53h2.75c0.08,0,0.14,0.01,0.19,0.04c0.04,0,0.09,0.01,0.15,0.03
						c0.04,0,0.09,0.02,0.14,0.04c0.03,0.03,0.061,0.04,0.11,0.04c0.029,0,0.069,0.01,0.109,0.04h0.08v0.03h0.07v0.04
						c0.05,0,0.1,0.01,0.15,0.04h0.04c0.02,0,0.06,0.01,0.109,0.04C50.62,7.89,50.65,7.9,50.7,7.9s0.1,0.02,0.149,0.04
						c0.051,0,0.091,0.01,0.11,0.04c0.08,0,0.15,0.01,0.23,0.03c0.069,0.03,0.119,0.04,0.149,0.04h0.18c0.03,0,0.061,0.01,0.11,0.04
						c0.05,0.02,0.101,0.04,0.15,0.04c0.08,0,0.14,0.01,0.189,0.03c0.021,0,0.061,0.02,0.11,0.04v0.04c0.05,0.02,0.1,0.03,0.15,0.03
						c0.05,0,0.1,0.02,0.149,0.04c0.021,0,0.061,0.01,0.101,0.04c0.05,0.02,0.09,0.03,0.109,0.03c0.05,0,0.09,0.02,0.11,0.04h0.149
						c0.051,0,0.101,0.02,0.15,0.04c0.03,0.02,0.05,0.04,0.08,0.04l0.07,0.04c0.069,0,0.149,0.01,0.22,0.03l0.04,0.04
						c0.05,0,0.1,0.01,0.149,0.04c0.051,0,0.08,0.01,0.11,0.03v0.04c0.05,0.03,0.11,0.04,0.19,0.04h0.069
						c0.07,0,0.141,0.01,0.19,0.03c0,0.03,0.01,0.04,0.03,0.04c0.08,0,0.149,0.02,0.229,0.04h6.32v0.04h0.38V3.66H60.52
						c-1.909,0-3.81,0.02-5.689,0.04V3.55H54.5v0.04h-0.04v0.07L54.42,3.7c0,0.03-0.01,0.04-0.04,0.04h-0.22l-0.04,0.03
						c-0.04,0-0.11,0.02-0.18,0.04c-0.08,0-0.15,0.02-0.23,0.04h-0.14c-0.08,0-0.13,0.01-0.15,0.04h-0.04
						c-0.07,0-0.14,0.01-0.18,0.03h-0.04c-0.05,0.03-0.11,0.04-0.19,0.04h-0.26V4c-0.02,0-0.05,0.01-0.07,0.04H52.6v0.03
						C52.53,4.1,52.45,4.11,52.38,4.11c-0.03,0-0.07,0.01-0.11,0.04H52.23c-0.051,0-0.091,0.01-0.11,0.03h-0.37l-0.04,0.04
						c-0.02,0-0.08,0.01-0.15,0.04c-0.05,0-0.09,0.01-0.109,0.04h-0.04c-0.05,0.02-0.08,0.03-0.11,0.03
						c-0.05,0-0.09,0.02-0.109,0.04h-0.04c-0.07,0-0.141,0.01-0.19,0.04h-0.03c-0.05,0.02-0.1,0.04-0.149,0.04h-0.11l-0.04,0.03
						c-0.02,0-0.05,0.02-0.07,0.04h-0.04v0.04H50.33c-0.021,0-0.03,0.01-0.03,0.03h-0.04c-0.029,0-0.06,0.02-0.109,0.04
						C50.1,4.66,50.06,4.67,50.04,4.67h-0.19l-0.04,0.04c-0.02,0-0.05,0.01-0.069,0.03h-0.08l-0.03,0.04h-0.04
						c-0.03,0.02-0.05,0.04-0.07,0.04h-0.08c-0.05,0-0.1,0.01-0.15,0.03c-0.05,0-0.09,0.02-0.11,0.04h-0.22
						c0,0.03-0.02,0.04-0.04,0.04c-0.03,0-0.05,0.01-0.07,0.04V5c-0.05,0.03-0.09,0.04-0.12,0.04c-0.02,0-0.04,0.01-0.04,0.04h-2.11
						V4.44H43.9v0.34h0.04v0.34H42.6V5.08l-0.04-0.04V5l-0.04-0.03V4.93h-0.04V4.89h-0.03V4.67h-0.56V4h-0.22V3.81
						c0-0.02,0.01-0.03,0.03-0.03V3.26h-0.18V3.07h-1.49v0.3L39.99,3.4v0.49c-0.1,0-0.2-0.01-0.3-0.04V4l-0.03,0.04v0.03l-0.04,0.04
						v0.48c0.03,0.03,0.05,0.04,0.07,0.04v0.04h-0.52v0.11H39.1v0.33h-1.93V4.78h0.03V4.41h-2.71v0.74h-0.56
						c0-0.02-0.01-0.03-0.04-0.03c0-0.03-0.01-0.04-0.03-0.04c-0.03,0-0.04-0.02-0.04-0.04h-0.08V4.96c-0.05,0-0.09-0.01-0.14-0.03
						h-0.04l-0.08-0.04c-0.05,0-0.08-0.01-0.11-0.04l-0.04-0.04h-0.07V4.78h-0.19V4.7c-2.15-0.02-4.33-0.03-6.54-0.03l-0.04-0.04
						h-0.44v3.24h0.07c0.1,0,0.19,0.01,0.26,0.03V7.87c1.13,0,2.25,0,3.37,0.02c1.03-0.01,2.07,0,3.1,0.01H33l0.04-0.03h0.11
						c0-0.03,0.01-0.04,0.04-0.04l0.03-0.04c0.03,0,0.05-0.01,0.08-0.04c0-0.02,0.01-0.03,0.03-0.03V7.68h0.04V7.64
						c0-0.02,0.02-0.03,0.04-0.03s0.04-0.02,0.04-0.04h0.03c0.05,0,0.1-0.01,0.15-0.04h0.04l0.05-0.04c0.02,0,0.03-0.01,0.03-0.03
						h0.75v2.75h-3.46V9.46h-0.07V9.39h-2.42V9.06c-0.03,0-0.04-0.02-0.04-0.04l-0.03-0.08h-0.04V8.91c-0.03,0-0.05-0.02-0.08-0.04
						h-0.03c-0.03-0.03-0.06-0.04-0.08-0.04h-0.56c-0.02,0-0.04,0.01-0.04,0.04h-0.03l-0.04,0.04c-0.05,0-0.09,0.01-0.11,0.03h-0.04
						v0.04c0,0.03-0.01,0.04-0.03,0.04l-0.04,0.04c-0.03,0-0.04,0.01-0.04,0.03h-2.3V9.8h1.63v0.45h-1.71
						c-0.02,0-0.06,0.01-0.11,0.03c0,0.03-0.01,0.04-0.04,0.04v0.19h-0.11c-0.03,0.02-0.05,0.05-0.08,0.07v0.45
						c-0.02,0.02-0.03,0.05-0.03,0.07c-0.03,0.02-0.04,0.05-0.04,0.08v0.03h-0.07l-0.01,0.01l-0.03,0.03v0.04l-0.04,0.03v0.04h-0.04
						v0.04h-2.63v0.04h-0.23c0,0.02-0.01,0.03-0.04,0.03v0.11h-0.03v0.04c-0.03,0-0.04,0.01-0.04,0.04c-0.03,0-0.04,0.01-0.04,0.04
						h-0.04v0.03l-0.03,0.04v0.03c-0.03,0-0.05,0.01-0.08,0.04h-0.03c0,0.02-0.02,0.03-0.04,0.03c0,0.03-0.01,0.04-0.04,0.04v0.04
						c0,0.02-0.01,0.03-0.04,0.03c0,0.03-0.01,0.04-0.03,0.04v0.08c-0.03,0-0.04,0.01-0.04,0.03h-0.04c0,0.03-0.01,0.04-0.04,0.04
						c0,0.03-0.01,0.04-0.03,0.04c-0.03,0-0.04,0.01-0.04,0.04c-0.03,0-0.04,0.01-0.04,0.03h-0.04v0.08c-0.02,0-0.03,0.01-0.03,0.04
						h-0.04c0,0.02-0.01,0.03-0.04,0.03c0,0.03-0.01,0.04-0.03,0.04v0.04l-0.08,0.07c0,0.02-0.01,0.04-0.04,0.04h-0.03v0.04H20.4
						l-0.04,0.03c0,0.03-0.01,0.04-0.04,0.04v0.04l-0.03,0.03v0.04h-0.04c0,0.03-0.01,0.04-0.04,0.04v0.04
						c-0.02,0-0.04,0.01-0.04,0.03l-0.03,0.04H20.1v0.11c0,0.03-0.01,0.04-0.04,0.04c0,0.02-0.01,0.04-0.04,0.04v0.07l-0.03,0.04
						v0.04h-0.08l-0.03,0.03c0,0.03-0.01,0.04-0.04,0.04c0,0.02-0.01,0.04-0.04,0.04v0.07c-0.02,0-0.04,0.01-0.04,0.04h-0.03v0.04
						c-0.03,0-0.04,0.01-0.04,0.03c0,0.03-0.01,0.04-0.04,0.04h-0.03c-0.03,0-0.04,0.01-0.04,0.04h-0.04l-0.04,0.04v0.03
						c-0.02,0-0.05,0.02-0.07,0.04l-0.04,0.04h-0.04v0.07c-0.02,0-0.03,0.02-0.03,0.04V14l-0.04,0.03h-0.03
						c0,0.03-0.02,0.04-0.04,0.04v0.08h-0.04c0,0.02-0.01,0.03-0.04,0.03v0.08c-0.02,0-0.04,0.01-0.04,0.04h-0.03l-0.04,0.03v0.04
						c-0.02,0-0.04,0.01-0.04,0.04v0.03c-0.02,0.03-0.05,0.04-0.07,0.04v0.04c-0.03,0-0.05,0.01-0.08,0.04H18.8
						c0,0.02-0.02,0.04-0.04,0.04v0.07l-0.04,0.04c0,0.02-0.01,0.03-0.03,0.03h-0.04v0.04c-0.03,0-0.04,0.01-0.04,0.04v0.03
						c0,0.03-0.01,0.04-0.04,0.04v0.08c-0.02,0-0.03,0.01-0.03,0.03H18.5l-0.08,0.08h-0.03c-0.03,0-0.04,0.01-0.04,0.04h-0.04
						c0,0.02-0.01,0.03-0.04,0.03c0,0.03-0.01,0.04-0.03,0.04v0.04c-0.03,0-0.04,0.01-0.04,0.04h-0.04c0,0.02-0.01,0.03-0.04,0.03
						c-0.02,0.03-0.05,0.04-0.07,0.04h-0.04c0,0.03-0.01,0.04-0.03,0.04v0.03c-0.03,0-0.04,0.02-0.04,0.04h-4.61v-0.7l0.11-0.08
						v-0.11l0.04-0.04v-0.11h4.05v-0.04h0.15c0.02,0,0.05-0.01,0.07-0.03V14.3h0.04l0.08-0.07c0.02,0,0.03-0.02,0.03-0.04h0.08
						v-0.04l0.03-0.04c0.03,0,0.05-0.01,0.08-0.03c0.02,0,0.04-0.02,0.04-0.04h0.07L18.24,14c0.02,0,0.03-0.01,0.03-0.03l0.04-0.04
						h0.11v-0.04c0-0.02,0.02-0.03,0.04-0.03v-0.04h0.04l0.11-0.15h0.07c0-0.03,0.01-0.04,0.04-0.04l0.07-0.07h0.04l0.07-0.08v-0.03
						l0.04-0.04v-0.04h0.04v-0.04l0.04-0.03v-0.04h0.03l0.08-0.08c0.02,0,0.04-0.01,0.04-0.03h0.03v-0.04l0.04-0.04h0.04v-0.03
						L19.31,13c0-0.03,0.02-0.04,0.04-0.04h0.04c0.02,0,0.04-0.01,0.04-0.04h0.03v-0.03c0-0.03,0.02-0.04,0.04-0.04v-0.08h0.04
						v-0.03l0.07-0.08v-0.04h0.04l0.08-0.11c0-0.02,0.01-0.03,0.03-0.03v-0.04c0.03,0,0.04-0.01,0.04-0.04l0.03-0.03
						c0-0.03,0.02-0.04,0.04-0.04v-0.04h0.04l0.07-0.07c0-0.03,0.02-0.04,0.04-0.04v-0.11h0.04v-0.04c0-0.02,0.01-0.03,0.04-0.03
						v-0.08h0.07l0.04-0.04c0.02,0,0.04-0.01,0.04-0.03c0.02,0,0.03-0.02,0.03-0.04h0.08v-0.08c0.02,0,0.03-0.01,0.03-0.03v-0.04
						c0-0.02,0.02-0.04,0.04-0.04v-0.04l0.11-0.07v-0.04l0.08-0.07v-0.04h0.03l0.08-0.11v-0.04l0.07-0.03V11.1h0.04l0.15-0.15v-0.03
						l0.07-0.08v-0.03l0.08-0.08c0.02,0,0.03-0.01,0.03-0.04c0.03,0,0.04-0.01,0.04-0.03l0.04-0.04c0-0.03,0.01-0.04,0.04-0.04
						v-0.07l0.03-0.04V10.4h0.04c0-0.03,0.02-0.04,0.04-0.04V9.87c-0.02,0-0.04-0.01-0.04-0.03L21.32,9.8h-0.03l-0.04-0.04h-0.3
						V9.73h-1.34c-0.19,0-0.41-0.02-0.63-0.04c-0.27,0-0.53-0.01-0.78-0.04v0.04h-0.04c-0.44,0-0.89,0.01-1.33,0.03H6.79
						c0,0.03-0.02,0.04-0.04,0.04C6.67,9.79,6.6,9.8,6.52,9.8v0.07C6.48,9.9,6.42,9.91,6.38,9.91v0.15H6.23v0.15
						c-0.03,0-0.04,0.01-0.04,0.03v0.34c0,0.02,0.01,0.04,0.04,0.04v2.97h0.03v0.3c0,0.02,0.01,0.04,0.04,0.04v0.44h0.37v0.08H9.5v1
						H5.85v0.82H3.51v-3.06H3.4v-0.26H2.02l-0.03-0.03H2.1v-0.34H1.32v-0.04H0.5v0.34h0.19v0.52c0,0.03,0.01,0.04,0.03,0.04H0.8
						v1.49c0,0.02,0.01,0.05,0.03,0.07l0.04,0.04v0.04h0.04v6.78c-0.03,0-0.04,0.01-0.04,0.029v0.301H0.69v2h0.63l0.04-0.03H1.5
						l-0.03-0.04c0-0.021-0.01-0.04-0.04-0.04h0.59v-0.37c0.03,0,0.05-0.01,0.08-0.04v-0.26c0.37,0,0.72,0.02,1.04,0.04v0.04h0.37
						V20.7h2.12v0.29c0.07,0,0.14,0.01,0.23,0.04v0.26h0.11v0.15c0.02,0,0.03,0.01,0.03,0.04h0.04v0.069h0.07v0.03h11.05
						c0,0.03,0.01,0.04,0.03,0.04c0.03,0,0.05,0.01,0.08,0.04h0.07c0.05-0.03,0.09-0.04,0.11-0.04c0.03,0,0.04-0.01,0.04-0.04
						c0.03,0,0.05-0.01,0.08-0.03c0.02-0.03,0.05-0.05,0.07-0.08V21.4h0.07v-0.07l0.08-0.08v-0.89c-0.03,0-0.04-0.011-0.04-0.04
						c0-0.021,0.01-0.051,0.04-0.07v-0.04c-0.03-0.02-0.04-0.05-0.04-0.07l0.04-0.04v-0.04l0.04-0.029v-0.04h0.03v-0.04
						c0.03,0,0.04-0.01,0.04-0.04v-0.03h0.04c0.02-0.03,0.05-0.04,0.07-0.04c0.03,0,0.04-0.01,0.04-0.04h0.04v-0.04h0.03V19.73
						c0-0.03,0.02-0.04,0.04-0.04v-0.04h0.08c0-0.021,0.01-0.03,0.03-0.03v-0.04l0.04-0.04V19.5h0.04c0-0.02,0.01-0.03,0.03-0.03
						c0-0.029,0.02-0.04,0.04-0.04v-0.04c0.03,0,0.04-0.01,0.04-0.029h0.04c0-0.03,0.01-0.04,0.03-0.04h0.04
						c0.03,0,0.04-0.011,0.04-0.04v-0.03l0.07-0.08c0-0.02,0.02-0.04,0.04-0.04v-0.07h0.04c0-0.02,0.01-0.04,0.03-0.04V18.98
						c0.03,0,0.04-0.011,0.04-0.03h0.04c0-0.03,0.01-0.04,0.04-0.04c0-0.03,0.01-0.04,0.03-0.04v-0.03c0.03,0,0.04-0.02,0.04-0.04
						v-0.04l0.04-0.04V18.65h0.04c0-0.03,0.01-0.04,0.03-0.04h0.08c0.02,0,0.05-0.011,0.07-0.03v-0.04h0.04
						c0-0.03,0.01-0.04,0.04-0.04v-0.04c0.02,0,0.05-0.01,0.07-0.03h0.04c0-0.029,0.01-0.04,0.03-0.04c0-0.02,0.02-0.04,0.04-0.04
						l0.04-0.04V18.28h0.03l0.04-0.04h0.07v-0.07c0.03,0,0.04-0.02,0.04-0.04l0.04-0.04v-0.03c0.02,0,0.04-0.02,0.04-0.04
						c0.02,0,0.03-0.02,0.03-0.039l0.04-0.04v-0.03h0.04c0.02,0,0.03-0.021,0.03-0.04h0.04c0-0.03,0.02-0.04,0.04-0.04
						c0-0.021,0.01-0.04,0.04-0.04l0.07-0.07h0.6c0.02,0,0.05-0.01,0.07-0.04c0.77-0.02,1.54-0.029,2.31-0.029v0.069h1.11v-0.04
						h0.11c0.03,0,0.04,0.021,0.04,0.04h0.11c0.03,0.03,0.05,0.04,0.08,0.04l0.15,0.15c0.02,0,0.03,0.01,0.03,0.03v0.04
						c0,0.02,0.01,0.039,0.04,0.039v0.03c1.16,0,2.34,0.021,3.53,0.04c0.03,0,0.05,0.021,0.08,0.04c0,0.021,0.01,0.04,0.03,0.04
						c0.03,0,0.04,0.01,0.04,0.03v0.04h0.04c0.02,0,0.04,0.01,0.04,0.04c0.02,0,0.05,0.01,0.07,0.029c0.03,0,0.04,0.021,0.04,0.04
						l0.04,0.04c0.05,0,0.08,0.011,0.11,0.03v0.08l0.03,0.04c0.03,0,0.05,0.01,0.08,0.04h0.05v0.03l0.11,0.08h0.03l0.04,0.029v0.04
						c0.03,0,0.04,0.01,0.04,0.04l0.04,0.04v0.03c0.02,0,0.03,0.01,0.03,0.04v0.04c0.03,0,0.05,0.01,0.08,0.03v0.149l0.04,0.04v0.14
						h-0.04v0.301c-0.03,0-0.04,0.01-0.04,0.04h-0.04v0.069l-0.03,0.04v0.12h-0.04v0.11H29.1v0.029c-0.02,0-0.04,0.021-0.07,0.04
						v0.04l-0.04,0.03c-0.02,0-0.03,0.021-0.03,0.04l-0.04,0.04h-0.04v0.04l-0.04,0.04v0.03l-0.03,0.04c0,0.02-0.02,0.04-0.04,0.04
						v0.069h-0.04v0.04c0,0.021-0.01,0.04-0.04,0.04v0.03l-0.07,0.08h-0.04c0,0.02-0.01,0.04-0.04,0.04l-0.03,0.03v0.039h-0.04v0.15
						h-0.04v0.07l-0.03,0.04v0.04h-0.04c0,0.02-0.01,0.04-0.04,0.04l-0.04,0.029v0.04h-0.03v0.07c-0.03,0-0.04,0.01-0.04,0.04
						l-0.04,0.04v0.03c0,0.029-0.01,0.04-0.04,0.04H28.1v0.04l-0.04,0.04v0.029h-0.04v0.08c-0.02,0-0.04,0.01-0.04,0.03h-0.07v0.08
						l-0.08,0.069H27.8l-0.04,0.04v0.11c0,0.03-0.01,0.04-0.04,0.04V22c-0.02,0-0.03,0.01-0.03,0.03h-0.08v0.08h-0.07v0.069
						c-0.03,0-0.04,0.011-0.04,0.04l-0.04,0.03v0.12c-0.02,0-0.03,0.01-0.03,0.03v0.08h-0.04l-0.04,0.039v0.03h-0.04v0.11
						c-0.02,0-0.03,0.02-0.03,0.04h-0.04v0.109h-0.11v0.08l-0.04,0.03h-0.04v0.16h-0.03v0.07l-0.04,0.04h-0.04v0.029
						c0,0.03-0.01,0.04-0.04,0.04v0.04h-0.03v0.07l-0.04,0.04v0.07l-0.07,0.039h-0.04v0.04h-0.04v0.08l-0.04,0.03v0.08l-0.03,0.04
						v0.07h-0.08v0.04c0,0.02-0.01,0.04-0.04,0.04l-0.07,0.069v0.04l-0.08,0.07v0.11c-0.02,0-0.03,0.02-0.03,0.039h-0.04
						c0,0.021-0.01,0.04-0.04,0.04c0,0.021-0.01,0.03-0.04,0.03v0.08l-0.07,0.07v0.08h-0.07V24.6c0,0.03-0.02,0.04-0.04,0.04v0.15
						c-0.03,0-0.04,0.01-0.04,0.04l-0.04,0.03v0.029l-0.03,0.04c-0.03,0-0.04,0.021-0.04,0.04h-0.04v0.08
						c-0.02,0-0.05,0.01-0.07,0.03v0.04h-0.04v0.04c0,0.02-0.01,0.04-0.04,0.04v0.069h-0.03v0.07H25.6v0.04
						c0,0.021-0.01,0.04-0.04,0.04h-0.04v0.07c-0.02,0-0.04,0.01-0.07,0.04v0.04h-0.04v0.069h-0.07v0.04H25.3v0.11
						c-0.02,0-0.05,0.01-0.07,0.04v0.03l-0.04,0.04v0.04c-0.03,0-0.04,0.01-0.04,0.04h-0.04c0,0.02-0.01,0.029-0.03,0.029v0.15
						h-0.04v0.45l0.04,0.029c0.05,0,0.11,0.011,0.18,0.04h0.15c0.03,0,0.06,0.011,0.11,0.04c0.03,0,0.05,0.011,0.08,0.03
						c0.02,0.03,0.07,0.04,0.15,0.04c0.04,0,0.1,0.01,0.15,0.04c0.04,0,0.08,0.01,0.11,0.04c0.05,0,0.1,0.01,0.14,0.03
						c0.06,0.029,0.1,0.04,0.15,0.04c0.03,0,0.07,0.02,0.12,0.04c0.04,0,0.09,0.01,0.14,0.039v0.03h0.12
						c0.05,0,0.09,0.021,0.14,0.04c0.05,0,0.12,0.01,0.19,0.04c0.02,0.021,0.05,0.04,0.07,0.04c0.05,0,0.1,0.01,0.15,0.03
						c0.03,0,0.06,0.02,0.11,0.04c0.05,0.029,0.09,0.04,0.12,0.04c0.04,0,0.08,0.01,0.11,0.029c0.07,0,0.15,0.021,0.22,0.04
						c0.02,0,0.06,0.011,0.11,0.04h0.15c0.05,0,0.11,0.011,0.19,0.04c0.07,0,0.14,0.011,0.22,0.03v0.04c0.05,0,0.11,0.01,0.19,0.04
						c0.04,0,0.08,0.01,0.11,0.03c0.02,0,0.05,0.02,0.07,0.04c0.02,0.029,0.05,0.04,0.07,0.04c0.06,0,0.09,0.01,0.12,0.04h0.56
						v-0.04h0.07l0.04-0.04v-0.07l0.03-0.04v-0.07h0.04v-0.04c0.03,0,0.04-0.01,0.04-0.04l0.04-0.04V26.83H29.8V26.8
						c0-0.03-0.01-0.04-0.04-0.04v-0.04l-0.04-0.029h0.04v-0.04c0-0.03,0.01-0.04,0.04-0.04V26.5c0.03,0,0.04-0.01,0.04-0.04v-0.03
						c0.02,0,0.03-0.02,0.03-0.04v-0.04c0.03,0,0.04-0.01,0.04-0.04l0.04-0.029v-0.04c0.02,0,0.05-0.021,0.07-0.04v-0.04h0.04v-0.03
						l0.04-0.04v-0.04c0.02,0,0.03-0.01,0.03-0.03l0.04-0.039c0.03,0,0.04-0.021,0.04-0.04v-0.11c0.02,0,0.04-0.01,0.04-0.04
						l0.03-0.04v-0.03c0.03,0,0.04-0.02,0.04-0.04v-0.04c0.03,0,0.04-0.01,0.04-0.029v-0.04l0.04-0.04v-0.07h0.03v-0.08
						c0.03,0,0.05-0.01,0.08-0.03v-0.04c0.02,0,0.03-0.01,0.03-0.04c0.03,0,0.04-0.01,0.04-0.039V25.05h0.04v-0.08
						c0.03,0,0.04-0.01,0.04-0.029c0.02,0,0.03-0.021,0.03-0.04v-0.04h0.04v-0.04c0.03,0,0.04-0.011,0.04-0.03v-0.04h0.04v-0.04
						l0.03-0.04V24.6h0.04v-0.04h0.04v-0.04l0.03-0.029v-0.04c0.03,0,0.04-0.01,0.04-0.04v-0.04h0.04v-0.04l0.04-0.03
						c0.02,0,0.03-0.01,0.03-0.04V24.23c0-0.03,0.02-0.04,0.04-0.04v-0.08l0.04-0.03h0.55c0.03,0,0.06-0.021,0.08-0.04v-0.45
						c0-0.02-0.01-0.03-0.04-0.03v-0.04h-0.04V23.48c0-0.021-0.01-0.03-0.03-0.03v-0.04l-0.04-0.04v-0.11h-0.04V23.19h0.08v-0.04
						c0-0.03,0.01-0.04,0.03-0.04v-0.03h0.04V23h0.04v-0.05c0-0.021,0.01-0.03,0.04-0.03v-0.04l0.07-0.08h0.04V22.73
						c0-0.03,0.01-0.04,0.04-0.04v-0.07c0.02,0,0.03-0.01,0.03-0.04h0.04v-0.07l0.04-0.04h0.03v-0.04l0.04-0.04V22.36l0.08-0.08
						V22.1h0.37c1.59,0,3.17-0.02,4.76-0.04V21.91c0.05-0.021,0.1-0.04,0.15-0.04c0.05-0.021,0.08-0.03,0.11-0.03h0.04
						c0-0.03,0.01-0.04,0.03-0.04c0.03-0.02,0.05-0.04,0.08-0.04h0.44v5.851c-0.02,0.029-0.05,0.04-0.07,0.04V28.1h0.3v0.03h0.03
						v0.601h6.73V28.51h-0.07v-7.97h0.22v-0.11h0.3v-0.04c0.03,0,0.04-0.01,0.04-0.04h0.03V19.65c0-0.03-0.01-0.04-0.03-0.04
						l-0.04-0.04c0-0.021-0.01-0.03-0.04-0.03c-0.02-0.03-0.05-0.04-0.07-0.04h-0.04l-0.11-0.11V17.5h0.04l0.04-0.04v-0.08
						c0.02,0,0.03-0.01,0.03-0.03h0.04l0.08-0.08c0.02,0,0.03-0.01,0.03-0.029l0.08-0.04c0.02-0.03,0.05-0.04,0.07-0.04v-0.04
						l0.04-0.03c0.05-0.03,0.1-0.04,0.15-0.04c0.07,0,0.15-0.01,0.22-0.04h0.04l0.04-0.029c0.05,0,0.08-0.021,0.11-0.04l0.04-0.04
						c0.05,0,0.08-0.011,0.11-0.03c0.07,0,0.15-0.021,0.22-0.04h0.33c0-0.03,0.02-0.04,0.04-0.04c0.03,0,0.04-0.01,0.04-0.04v-0.07
						l0.04-0.04V16.61l0.04-0.04v-0.11h0.4v0.26h1.16v-0.26h0.63v0.26h0.33v-0.26h0.49v0.22h0.41v-0.22h0.55v0.26h0.34v-0.26h0.48
						v0.26h0.34v-0.26h0.521v0.22h0.329v-0.22h0.521v0.26h0.41v-0.26h0.52v0.26h0.41v-0.26h0.48v0.26h0.34v-0.26h0.55v0.33h0.34
						v-0.33h0.45v0.26h0.33v-0.26h0.56v0.26h0.37v-0.26h0.48v0.26h0.37v-0.26h0.56v0.26h0.37v-0.26h0.49v0.29h0.33v-0.29h0.71v0.33
						h0.37v-0.07h0.439c0,0.021-0.01,0.03-0.03,0.03v0.04c0.021,0,0.03-0.01,0.03-0.04h0.04l0.04-0.03h0.11v-0.34h-0.11v-0.59
						c0.02-0.03,0.05-0.04,0.07-0.04v-0.41c4.47,0.03,8.93,0.04,13.39,0.04h0.33v-0.26h0.19c0,0.02,0.01,0.04,0.039,0.04
						c0,0.02,0.011,0.03,0.03,0.03h8.82v0.52h0.18v-0.03h0.34v-0.34h0.521v0.11h0.189v-0.11h0.521v0.26h0.14v0.08h0.19v-0.34h4.979
						v0.11h0.45v-0.11h3.75v-1.67H92.94z M5.86,19.1c-0.03,0-0.04,0.011-0.04,0.03v0.71h0.03v0.04H5.63v0.23H3.51V17.01h2.35V19.1z
						 M14.71,19.84l0.03-0.04c0.03,0,0.04,0.021,0.04,0.04H14.71z M22.18,11.77c-0.02,0-0.04,0.01-0.04,0.04v-0.08h0.04V11.77z
						 M37.83,21.07H37.8v0.04c-0.03,0-0.05,0.01-0.08,0.029v0.04l-0.07,0.07v0.04h-0.04v0.1h-0.03c-0.03,0-0.06,0.021-0.08,0.04
						v0.07c-0.05,0-0.09,0.02-0.11,0.04c-0.05,0.03-0.1,0.04-0.15,0.04c-0.02,0-0.05,0.01-0.07,0.04h-3.13
						c-0.05-0.03-0.1-0.04-0.15-0.04c-0.02,0-0.05-0.01-0.07-0.04c-0.03,0-0.05-0.01-0.08-0.04c-0.02-0.02-0.05-0.03-0.07-0.03
						l-0.04-0.04v-0.04H33.6c-0.03,0-0.06-0.01-0.08-0.029l-0.04-0.04c0-0.03-0.01-0.04-0.03-0.04c0-0.021-0.02-0.04-0.04-0.04
						l-0.04-0.03v-0.08l-0.07-0.07V20.95c-0.03,0-0.04-0.021-0.04-0.04h-0.04V19.5c0.03,0,0.04-0.01,0.04-0.03
						c0.03,0,0.05-0.02,0.07-0.04v-0.26h0.04v-0.15h0.04V18.98h0.33v-0.03h0.3v0.26L34,19.25v1.11h0.04v0.109l0.04,0.04v0.26h0.04
						v0.15l0.03,0.04v0.07c0,0.029,0.02,0.04,0.04,0.04v0.04h0.04v0.069l0.03,0.04v0.07l0.08,0.08h0.04v0.03h0.11v0.04l0.03,0.04
						h0.34v-0.19c0-0.021-0.01-0.04-0.04-0.04c-0.03,0-0.04-0.01-0.04-0.03v-0.04c0-0.02-0.01-0.04-0.03-0.04V21.07h-0.04V20.85
						l-0.04-0.04v-0.22c0-0.03-0.01-0.04-0.04-0.04c0-0.02-0.01-0.04-0.03-0.04V20.36c0.02,0,0.05-0.011,0.07-0.03v-0.12l0.04-0.03
						v-0.04l0.04-0.04V20.03l0.03-0.04v-0.03l0.08-0.08v-0.03l0.03-0.04v-0.04l0.04-0.039V19.7c0.03-0.03,0.05-0.04,0.08-0.04
						l0.07-0.08h0.04c0-0.021,0.01-0.03,0.04-0.03l0.07-0.109V19.4h0.04c0-0.021,0.01-0.04,0.03-0.04v-0.03h0.04
						c0-0.03,0.01-0.04,0.04-0.04l0.04-0.04c0.02,0,0.05-0.01,0.07-0.04c0-0.02,0.01-0.03,0.04-0.03c0.02-0.029,0.05-0.04,0.07-0.04
						h0.04c0-0.029,0.01-0.04,0.04-0.04c0-0.02,0.01-0.04,0.03-0.04l0.04-0.029h0.04c0-0.03,0.01-0.04,0.04-0.04v-0.04h1.71
						l0.07,0.08V19.1c0.03,0,0.04,0.011,0.04,0.04v0.07l0.04,0.04h0.03c0,0.02,0.02,0.04,0.04,0.04c0,0.02,0.01,0.03,0.04,0.03v0.3
						l0.03,0.04V21.07z M43.93,9.13c-2.23,0-4.46-0.01-6.69-0.04h-0.08V8.87c0-0.07,0.02-0.15,0.04-0.22V8.43
						c-0.02-0.05-0.04-0.12-0.04-0.19V7.53h0.08V7.49h1.9v0.26h0.85v0.27c0.52,0,1.02,0.01,1.49,0.03V7.76h1V7.5h0.56
						c0.3,0,0.6,0.01,0.89,0.03V9.13z M43.93,5.52L43.9,5.49h0.03V5.52z M64.83,10.21H63.31V9.98h1.521V10.21z"/>
				</g>
			</g>
		</g>
	</g>
	<g>
		
			<linearGradient id="SVGID_3_" gradientUnits="userSpaceOnUse" x1="-843.1816" y1="43.3838" x2="-844.0035" y2="43.3838" gradientTransform="matrix(34.5122 0 0 13.1527 29143.2383 -556.8325)">
			<stop  offset="0" style="stop-color:#00FFFF"/>
			<stop  offset="0.6495" style="stop-color:#FFE3A0"/>
		</linearGradient>
		<path fill="url(#SVGID_3_)" d="M21.36,9.84L21.32,9.8h-0.03l-0.04-0.04h-0.3V9.73h-1.34c-0.19,0-0.41-0.02-0.63-0.04
			c-0.27,0-0.53-0.01-0.78-0.04v0.04h-0.04c-0.44,0-0.89,0.01-1.33,0.03h-1.99c2.23,0.19,4.38,0.48,6.45,0.86v-0.07l0.03-0.04V10.4
			h0.04c0-0.03,0.02-0.04,0.04-0.04V9.87C21.38,9.87,21.36,9.86,21.36,9.84z M32.91,10.21h-1.87V9.46h-0.07V9.39h-2.42V9.06
			c-0.03,0-0.04-0.02-0.04-0.04l-0.03-0.08h-0.04V8.91c-0.03,0-0.05-0.02-0.08-0.04h-0.03c-0.03-0.03-0.06-0.04-0.08-0.04h-0.56
			c-0.02,0-0.04,0.01-0.04,0.04h-0.03l-0.04,0.04c-0.05,0-0.09,0.01-0.11,0.03h-0.04v0.04c0,0.03-0.01,0.04-0.03,0.04l-0.04,0.04
			c-0.03,0-0.04,0.01-0.04,0.03h-2.3V9.8h1.63v0.45h-1.71c-0.02,0-0.06,0.01-0.11,0.03c0,0.03-0.01,0.04-0.04,0.04v0.19h-0.11
			c-0.03,0.02-0.05,0.05-0.08,0.07v0.45c-0.02,0.02-0.03,0.05-0.03,0.07c-0.03,0.02-0.04,0.05-0.04,0.08v0.03h-0.07l-0.01,0.01
			c6.6,1.54,12.29,4.04,17.08,7.52C38.96,15.55,36.08,12.71,32.91,10.21z"/>
	</g>
	<g>
		<linearGradient id="SVGID_4_" gradientUnits="userSpaceOnUse" x1="63.0732" y1="12.54" x2="49.5137" y2="12.54">
			<stop  offset="0" style="stop-color:#00FFFF"/>
			<stop  offset="0.8219" style="stop-color:#FFE3A0"/>
		</linearGradient>
		<path fill="url(#SVGID_4_)" d="M62.27,14.87c-3.829-2.14-8.079-3.69-12.76-4.66h7.311C58.73,11.63,60.54,13.19,62.27,14.87z"/>
	</g>
	<g>
		<g>
			<g>
				<g>
					<g>
						<linearGradient id="SVGID_5_" gradientUnits="userSpaceOnUse" x1="32.2515" y1="42.4131" x2="60.8542" y2="-7.1284">
							<stop  offset="0" style="stop-color:#BB925B"/>
							<stop  offset="0.3429" style="stop-color:#FFF6DA"/>
							<stop  offset="0.6571" style="stop-color:#FFF1B1"/>
							<stop  offset="1" style="stop-color:#B38B54"/>
						</linearGradient>
						<path fill="url(#SVGID_5_)" d="M40.795,4.484c0.028,0.05,0.06,0.097,0.095,0.142V4.67c0,0.508,0.378,0.927,0.869,0.992
							C41.937,5.938,42.247,6.12,42.6,6.12h0.523c0.023,0.029,0.049,0.057,0.076,0.083l0.03,0.03
							c0.186,0.184,0.433,0.276,0.684,0.276c0.136,0,0.273-0.027,0.403-0.082c0.372-0.156,0.614-0.534,0.614-0.937
							c0-0.017,0-0.034-0.001-0.05h0.718c0.144,0.375,0.508,0.64,0.933,0.64h2.11c0.183,0,0.354-0.049,0.502-0.135
							c0.045-0.019,0.09-0.041,0.135-0.066c0.077-0.011,0.151-0.032,0.223-0.06c0.153-0.004,0.301-0.042,0.436-0.109
							c0.044-0.011,0.088-0.025,0.13-0.043c0.132-0.009,0.265-0.043,0.394-0.099c0.012-0.002,0.023-0.005,0.035-0.008
							c0.163-0.004,0.316-0.051,0.451-0.129c0.062-0.011,0.117-0.026,0.166-0.041c0.028-0.006,0.057-0.013,0.084-0.021
							c0.107-0.006,0.212-0.029,0.31-0.067c0.021-0.004,0.04-0.01,0.06-0.015c0.081-0.013,0.159-0.037,0.234-0.069
							c0.013-0.004,0.026-0.008,0.04-0.013c0.034-0.006,0.068-0.014,0.102-0.024h0.13c0.093,0,0.185-0.013,0.272-0.038
							c0.067-0.008,0.134-0.023,0.198-0.045C52.735,5.079,52.872,5.042,53,4.986c0.021-0.009,0.04-0.019,0.06-0.029
							C53.181,4.952,53.294,4.932,53.4,4.9c0.015-0.003,0.029-0.006,0.043-0.01c0.088-0.002,0.174-0.016,0.257-0.04h0.01
							c0.082,0,0.163-0.01,0.242-0.03c0.001,0,0.028-0.007,0.049-0.012c0.073-0.004,0.146-0.017,0.217-0.037l0.057-0.016
							C54.269,4.756,54.209,4.77,54.12,4.77c0.071,0,0.146-0.011,0.22-0.03h0.04c0.112,0,0.22-0.017,0.32-0.048
							C54.743,4.697,54.786,4.7,54.83,4.7c0.004,0,0.007,0,0.011,0c1.732-0.019,3.481-0.037,5.239-0.04V7.87h-5.567
							c-0.007-0.003-0.014-0.005-0.02-0.008c-0.145-0.058-0.289-0.084-0.411-0.096c-0.079-0.038-0.162-0.067-0.248-0.087
							c-0.008-0.002-0.016-0.005-0.022-0.007c-0.054-0.026-0.11-0.048-0.168-0.064c-0.064-0.018-0.132-0.033-0.2-0.044
							c-0.023-0.011-0.047-0.022-0.07-0.031c-0.085-0.034-0.255-0.103-0.476-0.111c-0.022-0.006-0.045-0.011-0.067-0.016
							c-0.057-0.024-0.115-0.044-0.174-0.059c-0.04-0.014-0.086-0.028-0.138-0.041c-0.028-0.015-0.057-0.028-0.085-0.041
							c-0.046-0.02-0.113-0.048-0.199-0.07c-0.087-0.026-0.178-0.045-0.272-0.055C51.851,7.093,51.699,7.05,51.52,7.05h-0.049
							c-0.015-0.004-0.029-0.008-0.043-0.012C51.359,7.022,51.295,7.009,51.23,7c-0.047-0.015-0.095-0.028-0.144-0.037
							c-0.048-0.016-0.104-0.031-0.167-0.042c-0.051-0.021-0.103-0.038-0.156-0.051c-0.038-0.021-0.078-0.039-0.119-0.055
							c-0.086-0.041-0.18-0.069-0.277-0.083c-0.027-0.008-0.055-0.016-0.082-0.022c-0.066-0.026-0.168-0.066-0.295-0.089
							c-0.035-0.009-0.068-0.017-0.103-0.024C49.751,6.552,49.603,6.53,49.44,6.53h-2.75c-0.108,0-0.211,0.019-0.309,0.053
							C45.904,6.659,45.54,7.072,45.54,7.57v0.37c0,0.095,0.014,0.189,0.04,0.28v1.37c-0.026,0.091-0.04,0.185-0.04,0.28v0.34
							c0,0.552,0.448,1,1,1H61.27c0.553,0,1-0.448,1-1V9.68h0.086c-0.03,0.095-0.046,0.195-0.046,0.3v0.23c0,0.552,0.447,1,1,1
							h1.521c0.307,0,0.582-0.138,0.766-0.356c0.183,0.218,0.458,0.356,0.765,0.356h3.01c0.03,0,0.061-0.001,0.09-0.004
							c0.03,0.002,0.06,0.004,0.09,0.004h5.71c0.029,0.21,0.118,0.399,0.25,0.547v1.953c0,0.258,0.098,0.493,0.258,0.67
							c-4.904-0.001-9.026-0.014-12.94-0.04c-0.002,0-0.005,0-0.007,0c-0.264,0-0.518,0.104-0.705,0.291
							c-0.188,0.188-0.295,0.443-0.295,0.709v0.082c-0.005,0.013-0.01,0.025-0.015,0.038H61.15c-0.057,0-0.111,0.005-0.165,0.014
							c-0.054-0.009-0.108-0.014-0.165-0.014h-0.49c-0.063,0-0.125,0.006-0.186,0.017c-0.06-0.011-0.121-0.017-0.185-0.017H59.4
							c-0.063,0-0.125,0.006-0.186,0.017c-0.06-0.011-0.121-0.017-0.185-0.017h-0.48c-0.063,0-0.125,0.006-0.185,0.017
							c-0.061-0.011-0.122-0.017-0.186-0.017h-0.56c-0.057,0-0.111,0.005-0.165,0.014c-0.054-0.009-0.108-0.014-0.165-0.014h-0.45
							c-0.058,0-0.114,0.005-0.17,0.014c-0.056-0.009-0.112-0.014-0.17-0.014h-0.55c-0.058,0-0.114,0.005-0.17,0.014
							c-0.056-0.009-0.112-0.014-0.17-0.014h-0.48c-0.07,0-0.139,0.007-0.205,0.021c-0.066-0.014-0.135-0.021-0.205-0.021H54.2
							c-0.07,0-0.139,0.007-0.205,0.021c-0.066-0.014-0.135-0.021-0.205-0.021H53.27c-0.056,0-0.111,0.004-0.164,0.014
							c-0.054-0.009-0.109-0.014-0.165-0.014H52.42c-0.058,0-0.114,0.005-0.17,0.014c-0.056-0.009-0.112-0.014-0.17-0.014H51.6
							c-0.058,0-0.114,0.005-0.17,0.014c-0.056-0.009-0.112-0.014-0.17-0.014h-0.55c-0.07,0-0.139,0.007-0.205,0.021
							c-0.066-0.014-0.135-0.021-0.205-0.021h-0.49c-0.056,0-0.111,0.005-0.165,0.014c-0.054-0.009-0.108-0.014-0.165-0.014h-0.63
							c-0.216,0-0.417,0.069-0.58,0.186c-0.164-0.117-0.364-0.186-0.58-0.186h-0.4c-0.334,0-0.63,0.164-0.812,0.416
							c-0.074,0.007-0.148,0.023-0.219,0.047c-0.113,0.024-0.221,0.068-0.319,0.129c-0.212,0.012-0.41,0.074-0.59,0.183
							c-0.029,0.018-0.057,0.037-0.083,0.057l-0.04,0.03c-0.031,0.024-0.061,0.05-0.089,0.078c-0.042,0.027-0.082,0.057-0.118,0.089
							c-0.081,0.048-0.154,0.106-0.218,0.175c-0.068,0.065-0.126,0.141-0.173,0.224c-0.131,0.169-0.209,0.382-0.209,0.612v1.89
							c0,0.138,0.028,0.273,0.083,0.397c-0.21,0.184-0.342,0.452-0.342,0.753v7.19h-4.748c-0.027-0.06-0.06-0.115-0.098-0.168
							c-0.022-0.035-0.047-0.069-0.074-0.101V21.76c0-0.332-0.162-0.626-0.41-0.808V19.66c0-0.083-0.01-0.165-0.03-0.244V19.32
							c0-0.265-0.103-0.506-0.271-0.685c-0.041-0.095-0.096-0.184-0.165-0.263l-0.07-0.08c-0.19-0.218-0.465-0.343-0.754-0.343
							h-1.71c-0.255,0-0.488,0.104-0.665,0.271c-0.016,0.011-0.031,0.021-0.046,0.032l0,0c-0.075,0.037-0.146,0.084-0.211,0.138
							c-0.01,0.006-0.019,0.012-0.028,0.018c-0.178-0.275-0.488-0.458-0.84-0.458h-0.3c-0.082,0-0.162,0.011-0.238,0.03H33.41
							c-0.211,0-0.407,0.071-0.568,0.189c-0.234,0.146-0.403,0.387-0.455,0.668c-0.021,0.06-0.037,0.122-0.046,0.186
							c-0.077,0.142-0.121,0.304-0.121,0.477v1.41c0,0.064,0.007,0.128,0.02,0.189c-0.474,0.01-0.866,0.348-0.959,0.796
							c-0.034,0.043-0.063,0.088-0.089,0.136c-0.051,0.069-0.092,0.145-0.124,0.227c-0.027,0.034-0.052,0.072-0.074,0.112
							c-0.029,0.035-0.055,0.072-0.079,0.111c-0.182,0.182-0.294,0.432-0.294,0.709v0.062c-0.015,0.01-0.029,0.02-0.043,0.03
							l-0.04,0.03c-0.163,0.123-0.282,0.292-0.346,0.481c-0.025,0.034-0.048,0.071-0.069,0.109
							c-0.104,0.106-0.184,0.237-0.232,0.382c0,0.001-0.001,0.003-0.002,0.004c-0.075,0.08-0.136,0.173-0.182,0.274
							c-0.042,0.076-0.075,0.158-0.097,0.245c-0.055,0.078-0.099,0.165-0.129,0.258c-0.018,0.043-0.033,0.087-0.045,0.133
							c-0.081,0.099-0.144,0.214-0.182,0.34c-0.001,0.003-0.003,0.006-0.005,0.009c-0.024,0.025-0.047,0.052-0.069,0.08
							c-0.059,0.063-0.109,0.133-0.149,0.208c-0.02,0.031-0.037,0.063-0.053,0.097c-0.08,0.115-0.135,0.248-0.161,0.392
							c-0.009,0.021-0.018,0.045-0.025,0.067c-0.013,0.038-0.022,0.076-0.03,0.114c-0.021-0.006-0.042-0.012-0.064-0.018
							c-0.097-0.023-0.188-0.04-0.276-0.049c-0.115-0.03-0.226-0.047-0.337-0.05c-0.028-0.007-0.057-0.014-0.085-0.02
							c-0.061-0.016-0.126-0.03-0.196-0.042c-0.037-0.011-0.074-0.02-0.112-0.026c-0.046-0.021-0.114-0.049-0.201-0.07
							c-0.033-0.01-0.065-0.019-0.099-0.026c-0.122-0.051-0.239-0.081-0.342-0.097c-0.048-0.016-0.105-0.03-0.169-0.042
							c-0.065-0.025-0.133-0.045-0.201-0.059c-0.054-0.02-0.119-0.038-0.194-0.052c-0.015-0.005-0.03-0.011-0.045-0.016
							c0.052-0.069,0.095-0.146,0.128-0.228c0.046-0.052,0.087-0.109,0.122-0.171c0.002-0.003,0.005-0.006,0.007-0.009l0.03-0.041
							c0.007-0.009,0.014-0.019,0.021-0.028c0.088-0.098,0.158-0.212,0.203-0.339c0.038-0.057,0.07-0.116,0.096-0.181
							c0.026-0.027,0.05-0.058,0.072-0.089c0.058-0.071,0.105-0.151,0.142-0.236c0.14-0.121,0.246-0.279,0.303-0.46
							c0.094-0.102,0.167-0.223,0.211-0.354c0.076-0.087,0.135-0.187,0.177-0.293c0.099-0.101,0.176-0.221,0.226-0.355
							c0.006-0.011,0.013-0.022,0.019-0.034c0.092-0.11,0.162-0.241,0.2-0.385c0.041-0.04,0.078-0.085,0.111-0.132
							c0.066-0.076,0.121-0.161,0.162-0.255c0-0.001,0.001-0.001,0.001-0.002c0.095-0.082,0.174-0.181,0.233-0.292
							c0.051-0.058,0.095-0.121,0.133-0.19c0.03-0.039,0.058-0.08,0.083-0.123c0.059-0.063,0.109-0.135,0.151-0.212
							c0.017-0.026,0.032-0.053,0.046-0.08c0.032-0.052,0.061-0.107,0.083-0.165l0.043-0.049c0.031-0.036,0.06-0.075,0.085-0.117
							c0.069-0.081,0.126-0.173,0.167-0.273c0.211-0.127,0.371-0.33,0.442-0.571c0.022-0.05,0.04-0.103,0.053-0.157
							c0.088-0.148,0.139-0.322,0.139-0.508v-0.02c0.026-0.089,0.04-0.184,0.04-0.281v-0.14c0-0.103-0.016-0.204-0.046-0.301
							c-0.024-0.215-0.117-0.416-0.264-0.572c-0.011-0.017-0.021-0.032-0.033-0.048c-0.04-0.065-0.087-0.126-0.141-0.18
							c-0.059-0.071-0.125-0.134-0.196-0.186c-0.026-0.02-0.054-0.038-0.083-0.055c-0.07-0.095-0.157-0.179-0.259-0.245
							c-0.038-0.025-0.077-0.048-0.117-0.068c-0.025-0.019-0.051-0.036-0.078-0.053c-0.045-0.044-0.095-0.084-0.149-0.12
							c-0.018-0.015-0.037-0.028-0.056-0.042c-0.197-0.14-0.412-0.211-0.621-0.211c0,0,0,0,0,0l-0.192-0.003
							c-0.965-0.016-1.923-0.031-2.869-0.036c-0.087-0.087-0.188-0.155-0.299-0.205c-0.09-0.05-0.188-0.086-0.289-0.106
							c-0.108-0.038-0.226-0.06-0.348-0.06h-0.11c-0.094,0-0.185,0.014-0.271,0.04h-0.473c-0.114-0.045-0.237-0.069-0.367-0.069
							c-0.778,0-1.557,0.01-2.335,0.029c-0.087,0.003-0.173,0.016-0.255,0.04h-0.39c-0.257,0-0.503,0.099-0.688,0.275
							c-0.017,0.012-0.033,0.024-0.049,0.038c-0.021,0.014-0.041,0.027-0.06,0.043c-0.104,0.069-0.195,0.158-0.268,0.261
							c-0.014,0.017-0.027,0.033-0.039,0.05c-0.023,0.028-0.044,0.058-0.064,0.088c-0.053,0.039-0.102,0.084-0.146,0.133
							c-0.035,0.021-0.069,0.046-0.102,0.072c-0.091,0.035-0.176,0.083-0.251,0.141c-0.164,0.11-0.293,0.269-0.369,0.454
							c-0.007,0.008-0.015,0.016-0.021,0.023c-0.089,0.076-0.165,0.168-0.223,0.271c-0.068,0.053-0.129,0.114-0.181,0.182
							c-0.042,0.038-0.082,0.079-0.117,0.123c-0.053,0.043-0.103,0.093-0.146,0.146c-0.163,0.099-0.296,0.241-0.385,0.411
							c-0.035,0.046-0.066,0.095-0.094,0.146c-0.113,0.165-0.174,0.361-0.174,0.564c0,0.03,0.001,0.061,0.004,0.091
							c-0.002,0.029-0.004,0.06-0.004,0.09c0,0.09,0.011,0.177,0.031,0.26h-1.329c0.201-0.183,0.328-0.447,0.328-0.74
							c0-0.573-0.466-1.04-1.04-1.04c-0.313,0-0.608,0.146-0.797,0.396l-0.03,0.04c-0.229,0.303-0.267,0.709-0.098,1.049
							c0.057,0.113,0.133,0.213,0.223,0.295H6.753c-0.026-0.051-0.056-0.1-0.089-0.145c0.117-0.172,0.187-0.379,0.187-0.596
							c0-0.082-0.011-0.162-0.03-0.238v-0.221c0.026-0.09,0.04-0.184,0.04-0.281v-2.09c0-0.136-0.027-0.265-0.076-0.382
							c0.022-0.058,0.039-0.116,0.05-0.178H9.5c0.552,0,1-0.448,1-1v-1c0-0.552-0.448-1-1-1H7.25
							c-0.005-0.033-0.011-0.065-0.02-0.097V10.72l9.646-0.001c0.425-0.02,0.86-0.029,1.325-0.029c0.063,0,0.125-0.006,0.185-0.019
							c0.168,0.012,0.348,0.018,0.549,0.019c0.237,0.021,0.471,0.04,0.676,0.04h0.252c-0.005,0.007-0.011,0.014-0.016,0.021
							c-0.022,0.022-0.043,0.045-0.063,0.069c-0.078,0.069-0.145,0.152-0.198,0.243c-0.179,0.108-0.321,0.27-0.404,0.463
							c-0.029,0.045-0.055,0.092-0.076,0.141c-0.036,0.039-0.068,0.08-0.098,0.124c-0.027,0.036-0.053,0.074-0.075,0.113
							c-0.045,0.044-0.087,0.092-0.124,0.144c-0.053,0.051-0.1,0.107-0.141,0.168c-0.057,0.049-0.108,0.104-0.153,0.165
							l-0.021,0.021c-0.011,0.011-0.022,0.022-0.032,0.034c-0.011,0.01-0.022,0.021-0.033,0.031c-0.08,0.063-0.151,0.138-0.21,0.221
							c-0.021,0.025-0.04,0.052-0.058,0.08c-0.003,0.004-0.007,0.009-0.01,0.013c-0.128,0.066-0.242,0.161-0.333,0.278
							c-0.04,0.022-0.078,0.047-0.114,0.075c-0.072,0.034-0.139,0.077-0.201,0.126c-0.021,0.013-0.042,0.026-0.063,0.041
							c-0.056,0.029-0.109,0.063-0.158,0.102c-0.008,0.002-0.015,0.004-0.023,0.006H13.48c-0.475,0-0.872,0.331-0.974,0.774
							c-0.113,0.165-0.176,0.361-0.176,0.566v0.7c0,0.552,0.448,1,1,1h4.61c0.269,0,0.512-0.105,0.691-0.278
							c0.125-0.06,0.236-0.145,0.326-0.249c0.026-0.016,0.051-0.034,0.075-0.053c0.085-0.048,0.163-0.108,0.229-0.179
							c0.101-0.097,0.182-0.214,0.235-0.346c0.027-0.03,0.052-0.061,0.075-0.093c0.093-0.072,0.175-0.16,0.242-0.261
							c0.001-0.002,0.003-0.004,0.004-0.007c0.061-0.057,0.114-0.122,0.158-0.193c0.038-0.045,0.072-0.094,0.102-0.146
							c0.029-0.036,0.056-0.074,0.08-0.114c0.139-0.076,0.258-0.184,0.348-0.314c0.035-0.035,0.067-0.072,0.097-0.112
							c0.106-0.088,0.195-0.196,0.261-0.319c0.016-0.025,0.03-0.051,0.044-0.077c0.046-0.065,0.085-0.136,0.116-0.212
							c0.023-0.026,0.045-0.054,0.065-0.083c0.068-0.051,0.13-0.11,0.184-0.176c0.023-0.022,0.045-0.046,0.066-0.071
							c0.067-0.056,0.127-0.121,0.177-0.192c0.009-0.011,0.017-0.022,0.025-0.034c0.011-0.008,0.022-0.016,0.033-0.025
							c0.072-0.051,0.137-0.111,0.193-0.178c0.114,0.045,0.24,0.071,0.371,0.071c0.332,0,0.625-0.162,0.808-0.41h1.392
							c0.276,0,0.526-0.122,0.707-0.313c0.029-0.027,0.057-0.057,0.082-0.087c0.143-0.112,0.256-0.261,0.325-0.432
							c0.018-0.035,0.035-0.071,0.049-0.107c0.032-0.067,0.056-0.137,0.073-0.21h1.074c0.552,0,1-0.448,1-1v-0.216
							c0.035-0.012,0.068-0.026,0.102-0.042c0.182,0.242,0.472,0.398,0.798,0.398h1.506c0.085,0.466,0.493,0.82,0.984,0.82h3.46
							c0.552,0,1-0.448,1-1V7.46c0-0.552-0.448-1-1-1h-0.75c-0.178,0-0.345,0.046-0.49,0.128c-0.168,0.032-0.322,0.107-0.45,0.213
							c-0.041,0.03-0.08,0.063-0.117,0.098c-0.676-0.006-1.355-0.013-2.033-0.013c-0.308,0-0.615,0.001-0.893,0.004
							c-0.905-0.016-1.809-0.019-2.718-0.02v-1.2c1.896,0.001,3.769,0.011,5.62,0.027c0.092,0.04,0.191,0.067,0.296,0.078
							c0.055,0.027,0.114,0.051,0.18,0.069c0.06,0.044,0.124,0.082,0.192,0.112c0.166,0.122,0.371,0.194,0.592,0.194h0.56
							c0.462,0,0.851-0.313,0.966-0.74h0.76c0.127,0.406,0.506,0.7,0.954,0.7h1.93c0.361,0,0.677-0.191,0.853-0.478
							c0.425-0.125,0.737-0.541,0.737-1.002c0-0.008,0-0.017,0-0.025C40.728,4.567,40.763,4.527,40.795,4.484 M36.824,6.587
							C36.438,6.726,36.16,7.095,36.16,7.53v0.71c0,0.113,0.014,0.218,0.035,0.311c-0.02,0.095-0.035,0.203-0.035,0.319v0.22
							c0,0.552,0.448,1,1,1h0.066c2.017,0.027,4.147,0.04,6.704,0.04c0.552,0,1-0.448,1-1v-1.6c0-0.525-0.407-0.961-0.931-0.998
							C43.687,6.511,43.363,6.5,43.04,6.5h-0.56c-0.259,0-0.495,0.098-0.672,0.26H41.48c-0.263,0-0.503,0.102-0.682,0.269
							c-0.04-0.001-0.079-0.002-0.119-0.002C40.5,6.855,40.258,6.75,39.99,6.75h-0.178c-0.178-0.162-0.414-0.26-0.672-0.26h-1.9
							C37.092,6.49,36.951,6.525,36.824,6.587 M1.8,13.926c0.072,0.016,0.146,0.024,0.22,0.024h0.49v2.32
							c0,0.131,0.025,0.255,0.071,0.37c-0.046,0.114-0.071,0.239-0.071,0.37v3.101c0,0.103,0.016,0.202,0.044,0.295
							C2.525,20.498,2.51,20.598,2.51,20.7v1.717C2.376,22.413,2.24,22.41,2.1,22.41c-0.091,0-0.179,0.012-0.263,0.035
							c0.021-0.082,0.033-0.167,0.033-0.255v-0.049c0.026-0.089,0.04-0.184,0.04-0.281v-6.78c0-0.158-0.04-0.308-0.11-0.441V13.926
							 M41.52,3.07h-1.49v0.3L39.99,3.4v0.49c-0.1,0-0.2-0.01-0.3-0.04V4l-0.03,0.04v0.03l-0.04,0.04v0.48
							c0.03,0.03,0.05,0.04,0.07,0.04v0.04h-0.52v0.11H39.1v0.33h-1.93V4.78h0.03V4.41h-2.71v0.74h-0.56c0-0.02-0.01-0.03-0.04-0.03
							c0-0.03-0.01-0.04-0.03-0.04c-0.03,0-0.04-0.02-0.04-0.04h-0.08V4.96c-0.05,0-0.09-0.01-0.14-0.03h-0.04l-0.08-0.04
							c-0.05,0-0.08-0.01-0.11-0.04l-0.04-0.04h-0.07V4.78h-0.19V4.7c-2.15-0.02-4.33-0.03-6.54-0.03l-0.04-0.04h-0.44v3.24h0.07
							c0.1,0,0.19,0.01,0.26,0.03V7.87c1.13,0,2.25,0,3.37,0.02c0.303-0.003,0.607-0.004,0.911-0.004
							c0.73,0,1.462,0.007,2.189,0.014H33l0.04-0.03h0.11c0-0.03,0.01-0.04,0.04-0.04l0.03-0.04c0.03,0,0.05-0.01,0.08-0.04
							c0-0.02,0.01-0.03,0.03-0.03V7.68h0.04V7.64c0-0.02,0.02-0.03,0.04-0.03s0.04-0.02,0.04-0.04h0.03c0.05,0,0.1-0.01,0.15-0.04
							h0.04l0.05-0.04c0.02,0,0.03-0.01,0.03-0.03h0.75v2.75h-3.46V9.46h-0.07V9.39h-2.42V9.06c-0.03,0-0.04-0.02-0.04-0.04
							l-0.03-0.08h-0.04V8.91c-0.03,0-0.05-0.02-0.08-0.04h-0.03c-0.03-0.03-0.06-0.04-0.08-0.04h-0.56c-0.02,0-0.04,0.01-0.04,0.04
							h-0.03l-0.04,0.04c-0.05,0-0.09,0.01-0.11,0.03h-0.04v0.04c0,0.03-0.01,0.04-0.03,0.04l-0.04,0.04
							c-0.03,0-0.04,0.01-0.04,0.03h-2.3V9.8h1.63v0.45h-1.71c-0.02,0-0.06,0.01-0.11,0.03c0,0.03-0.01,0.04-0.04,0.04v0.19h-0.11
							c-0.03,0.02-0.05,0.05-0.08,0.07v0.45c-0.02,0.02-0.03,0.05-0.03,0.07c-0.03,0.02-0.04,0.05-0.04,0.08v0.03h-0.07l-0.01,0.01
							l-0.03,0.03v0.04l-0.04,0.03v0.04h-0.04v0.04h-2.63v0.04h-0.23c0,0.02-0.01,0.03-0.04,0.03v0.11h-0.03v0.04
							c-0.03,0-0.04,0.01-0.04,0.04c-0.03,0-0.04,0.01-0.04,0.04h-0.04v0.03l-0.03,0.04v0.03c-0.03,0-0.05,0.01-0.08,0.04h-0.03
							c0,0.02-0.02,0.03-0.04,0.03c0,0.03-0.01,0.04-0.04,0.04v0.04c0,0.02-0.01,0.03-0.04,0.03c0,0.03-0.01,0.04-0.03,0.04v0.08
							c-0.03,0-0.04,0.01-0.04,0.03h-0.04c0,0.03-0.01,0.04-0.04,0.04c0,0.03-0.01,0.04-0.03,0.04c-0.03,0-0.04,0.01-0.04,0.04
							c-0.03,0-0.04,0.01-0.04,0.03h-0.04v0.08c-0.02,0-0.03,0.01-0.03,0.04h-0.04c0,0.02-0.01,0.03-0.04,0.03
							c0,0.03-0.01,0.04-0.03,0.04v0.04l-0.08,0.07c0,0.02-0.01,0.04-0.04,0.04h-0.03v0.04H20.4l-0.04,0.03
							c0,0.03-0.01,0.04-0.04,0.04v0.04l-0.03,0.03v0.04h-0.04c0,0.03-0.01,0.04-0.04,0.04v0.04c-0.02,0-0.04,0.01-0.04,0.03
							l-0.03,0.04H20.1v0.11c0,0.03-0.01,0.04-0.04,0.04c0,0.02-0.01,0.04-0.04,0.04v0.07l-0.03,0.04v0.04h-0.08l-0.03,0.03
							c0,0.03-0.01,0.04-0.04,0.04c0,0.02-0.01,0.04-0.04,0.04v0.07c-0.02,0-0.04,0.01-0.04,0.04h-0.03v0.04
							c-0.03,0-0.04,0.01-0.04,0.03c0,0.03-0.01,0.04-0.04,0.04h-0.03c-0.03,0-0.04,0.01-0.04,0.04h-0.04l-0.04,0.04v0.03
							c-0.02,0-0.05,0.02-0.07,0.04l-0.04,0.04h-0.04v0.07c-0.02,0-0.03,0.02-0.03,0.04V14l-0.04,0.03h-0.03
							c0,0.03-0.02,0.04-0.04,0.04v0.08h-0.04c0,0.02-0.01,0.03-0.04,0.03v0.08c-0.02,0-0.04,0.01-0.04,0.04h-0.03l-0.04,0.03v0.04
							c-0.02,0-0.04,0.01-0.04,0.04v0.03c-0.02,0.03-0.05,0.04-0.07,0.04v0.04c-0.03,0-0.05,0.01-0.08,0.04H18.8
							c0,0.02-0.02,0.04-0.04,0.04v0.07l-0.04,0.04c0,0.02-0.01,0.03-0.03,0.03h-0.04v0.04c-0.03,0-0.04,0.01-0.04,0.04v0.03
							c0,0.03-0.01,0.04-0.04,0.04v0.08c-0.02,0-0.03,0.01-0.03,0.03H18.5l-0.08,0.08h-0.03c-0.03,0-0.04,0.01-0.04,0.04h-0.04
							c0,0.02-0.01,0.03-0.04,0.03c0,0.03-0.01,0.04-0.03,0.04v0.04c-0.03,0-0.04,0.01-0.04,0.04h-0.04c0,0.02-0.01,0.03-0.04,0.03
							c-0.02,0.03-0.05,0.04-0.07,0.04h-0.04c0,0.03-0.01,0.04-0.03,0.04v0.03c-0.03,0-0.04,0.02-0.04,0.04h-4.61v-0.7l0.11-0.08
							v-0.11l0.04-0.04v-0.11h4.05v-0.04h0.15c0.02,0,0.05-0.01,0.07-0.03V14.3h0.04l0.08-0.07c0.02,0,0.03-0.02,0.03-0.04h0.08
							v-0.04l0.03-0.04c0.03,0,0.05-0.01,0.08-0.03c0.02,0,0.04-0.02,0.04-0.04h0.07L18.24,14c0.02,0,0.03-0.01,0.03-0.03l0.04-0.04
							h0.11v-0.04c0-0.02,0.02-0.03,0.04-0.03v-0.04h0.04l0.11-0.15h0.07c0-0.03,0.01-0.04,0.04-0.04l0.07-0.07h0.04l0.07-0.08
							v-0.03l0.04-0.04v-0.04h0.04v-0.04l0.04-0.03v-0.04h0.03l0.08-0.08c0.02,0,0.04-0.01,0.04-0.03h0.03v-0.04l0.04-0.04h0.04
							v-0.03L19.31,13c0-0.03,0.02-0.04,0.04-0.04h0.04c0.02,0,0.04-0.01,0.04-0.04h0.03v-0.03c0-0.03,0.02-0.04,0.04-0.04v-0.08
							h0.04v-0.03l0.07-0.08v-0.04h0.04l0.08-0.11c0-0.02,0.01-0.03,0.03-0.03v-0.04c0.03,0,0.04-0.01,0.04-0.04l0.03-0.03
							c0-0.03,0.02-0.04,0.04-0.04v-0.04h0.04l0.07-0.07c0-0.03,0.02-0.04,0.04-0.04v-0.11h0.04v-0.04c0-0.02,0.01-0.03,0.04-0.03
							v-0.08h0.07l0.04-0.04c0.02,0,0.04-0.01,0.04-0.03c0.02,0,0.03-0.02,0.03-0.04h0.08v-0.08c0.02,0,0.03-0.01,0.03-0.03v-0.04
							c0-0.02,0.02-0.04,0.04-0.04v-0.04l0.11-0.07v-0.04l0.08-0.07v-0.04h0.03l0.08-0.11v-0.04l0.07-0.03V11.1h0.04l0.15-0.15
							v-0.03l0.07-0.08v-0.03l0.08-0.08c0.02,0,0.03-0.01,0.03-0.04c0.03,0,0.04-0.01,0.04-0.03l0.04-0.04
							c0-0.03,0.01-0.04,0.04-0.04v-0.07l0.03-0.04V10.4h0.04c0-0.03,0.02-0.04,0.04-0.04V9.87c-0.02,0-0.04-0.01-0.04-0.03
							L21.32,9.8h-0.03l-0.04-0.04h-0.3V9.73h-1.34c-0.19,0-0.41-0.02-0.63-0.04c-0.27,0-0.53-0.01-0.78-0.04v0.04h-0.04
							c-0.44,0-0.89,0.01-1.33,0.03H6.79c0,0.03-0.02,0.04-0.04,0.04C6.67,9.79,6.6,9.8,6.52,9.8v0.07C6.48,9.9,6.42,9.91,6.38,9.91
							v0.15H6.23v0.15c-0.03,0-0.04,0.01-0.04,0.03v0.34c0,0.02,0.01,0.04,0.04,0.04v2.97h0.03v0.3c0,0.02,0.01,0.04,0.04,0.04v0.44
							h0.37v0.08H9.5v1H5.85v0.82H3.51v-3.06H3.4v-0.26H2.02l-0.03-0.03H2.1v-0.34H1.32v-0.04H0.5v0.34h0.19v0.52
							c0,0.03,0.01,0.04,0.03,0.04H0.8v1.49c0,0.02,0.01,0.05,0.03,0.07l0.04,0.04v0.04h0.04v6.78c-0.03,0-0.04,0.01-0.04,0.029
							v0.301H0.69v2h0.63l0.04-0.03H1.5l-0.03-0.04c0-0.021-0.01-0.04-0.04-0.04h0.59v-0.37c0.03,0,0.05-0.01,0.08-0.04v-0.26
							c0.37,0,0.72,0.02,1.04,0.04v0.04h0.37V20.7h2.12v0.29c0.07,0,0.14,0.01,0.23,0.04v0.26h0.11v0.15c0.02,0,0.03,0.01,0.03,0.04
							h0.04v0.069h0.07v0.03h11.05c0,0.03,0.01,0.04,0.03,0.04c0.03,0,0.05,0.01,0.08,0.04h0.07c0.05-0.03,0.09-0.04,0.11-0.04
							c0.03,0,0.04-0.01,0.04-0.04c0.03,0,0.05-0.01,0.08-0.03c0.02-0.03,0.05-0.05,0.07-0.08V21.4h0.07v-0.07l0.08-0.08v-0.89
							c-0.03,0-0.04-0.011-0.04-0.04c0-0.021,0.01-0.051,0.04-0.07v-0.04c-0.03-0.02-0.04-0.05-0.04-0.07l0.04-0.04v-0.04
							l0.04-0.029v-0.04h0.03v-0.04c0.03,0,0.04-0.01,0.04-0.04v-0.03h0.04c0.02-0.03,0.05-0.04,0.07-0.04
							c0.03,0,0.04-0.01,0.04-0.04h0.04v-0.04h0.03V19.73c0-0.03,0.02-0.04,0.04-0.04v-0.04h0.08c0-0.021,0.01-0.03,0.03-0.03v-0.04
							l0.04-0.04V19.5h0.04c0-0.02,0.01-0.03,0.03-0.03c0-0.029,0.02-0.04,0.04-0.04v-0.04c0.03,0,0.04-0.01,0.04-0.029h0.04
							c0-0.03,0.01-0.04,0.03-0.04h0.04c0.03,0,0.04-0.011,0.04-0.04v-0.03l0.07-0.08c0-0.02,0.02-0.04,0.04-0.04v-0.07h0.04
							c0-0.02,0.01-0.04,0.03-0.04V18.98c0.03,0,0.04-0.011,0.04-0.03h0.04c0-0.03,0.01-0.04,0.04-0.04c0-0.03,0.01-0.04,0.03-0.04
							v-0.03c0.03,0,0.04-0.02,0.04-0.04v-0.04l0.04-0.04V18.65h0.04c0-0.03,0.01-0.04,0.03-0.04h0.08c0.02,0,0.05-0.011,0.07-0.03
							v-0.04h0.04c0-0.03,0.01-0.04,0.04-0.04v-0.04c0.02,0,0.05-0.01,0.07-0.03h0.04c0-0.029,0.01-0.04,0.03-0.04
							c0-0.02,0.02-0.04,0.04-0.04l0.04-0.04V18.28h0.03l0.04-0.04h0.07v-0.07c0.03,0,0.04-0.02,0.04-0.04l0.04-0.04v-0.03
							c0.02,0,0.04-0.02,0.04-0.04c0.02,0,0.03-0.02,0.03-0.039l0.04-0.04v-0.03h0.04c0.02,0,0.03-0.021,0.03-0.04h0.04
							c0-0.03,0.02-0.04,0.04-0.04c0-0.021,0.01-0.04,0.04-0.04l0.07-0.07h0.6c0.02,0,0.05-0.01,0.07-0.04
							c0.77-0.02,1.54-0.029,2.31-0.029v0.069h1.11v-0.04h0.11c0.03,0,0.04,0.021,0.04,0.04h0.11c0.03,0.03,0.05,0.04,0.08,0.04
							l0.15,0.15c0.02,0,0.03,0.01,0.03,0.03v0.04c0,0.02,0.01,0.039,0.04,0.039v0.03c1.16,0,2.34,0.021,3.53,0.04
							c0.03,0,0.05,0.021,0.08,0.04c0,0.021,0.01,0.04,0.03,0.04c0.03,0,0.04,0.01,0.04,0.03v0.04h0.04c0.02,0,0.04,0.01,0.04,0.04
							c0.02,0,0.05,0.01,0.07,0.029c0.03,0,0.04,0.021,0.04,0.04l0.04,0.04c0.05,0,0.08,0.011,0.11,0.03v0.08l0.03,0.04
							c0.03,0,0.05,0.01,0.08,0.04h0.05v0.03l0.11,0.08h0.03l0.04,0.029v0.04c0.03,0,0.04,0.01,0.04,0.04l0.04,0.04v0.03
							c0.02,0,0.03,0.01,0.03,0.04v0.04c0.03,0,0.05,0.01,0.08,0.03v0.149l0.04,0.04v0.14h-0.04v0.301c-0.03,0-0.04,0.01-0.04,0.04
							h-0.04v0.069l-0.03,0.04v0.12h-0.04v0.11H29.1v0.029c-0.02,0-0.04,0.021-0.07,0.04v0.04l-0.04,0.03
							c-0.02,0-0.03,0.021-0.03,0.04l-0.04,0.04h-0.04v0.04l-0.04,0.04v0.03l-0.03,0.04c0,0.02-0.02,0.04-0.04,0.04v0.069h-0.04
							v0.04c0,0.021-0.01,0.04-0.04,0.04v0.03l-0.07,0.08h-0.04c0,0.02-0.01,0.04-0.04,0.04l-0.03,0.03v0.039h-0.04v0.15h-0.04v0.07
							l-0.03,0.04v0.04h-0.04c0,0.02-0.01,0.04-0.04,0.04l-0.04,0.029v0.04h-0.03v0.07c-0.03,0-0.04,0.01-0.04,0.04l-0.04,0.04v0.03
							c0,0.029-0.01,0.04-0.04,0.04H28.1v0.04l-0.04,0.04v0.029h-0.04v0.08c-0.02,0-0.04,0.01-0.04,0.03h-0.07v0.08l-0.08,0.069
							H27.8l-0.04,0.04v0.11c0,0.03-0.01,0.04-0.04,0.04V22c-0.02,0-0.03,0.01-0.03,0.03h-0.08v0.08h-0.07v0.069
							c-0.03,0-0.04,0.011-0.04,0.04l-0.04,0.03v0.12c-0.02,0-0.03,0.01-0.03,0.03v0.08h-0.04l-0.04,0.039v0.03h-0.04v0.11
							c-0.02,0-0.03,0.02-0.03,0.04h-0.04v0.109h-0.11v0.08l-0.04,0.03h-0.04v0.16h-0.03v0.07l-0.04,0.04h-0.04v0.029
							c0,0.03-0.01,0.04-0.04,0.04v0.04h-0.03v0.07l-0.04,0.04v0.07l-0.07,0.039h-0.04v0.04h-0.04v0.08l-0.04,0.03v0.08l-0.03,0.04
							v0.07h-0.08v0.04c0,0.02-0.01,0.04-0.04,0.04l-0.07,0.069v0.04l-0.08,0.07v0.11c-0.02,0-0.03,0.02-0.03,0.039h-0.04
							c0,0.021-0.01,0.04-0.04,0.04c0,0.021-0.01,0.03-0.04,0.03v0.08l-0.07,0.07v0.08h-0.07V24.6c0,0.03-0.02,0.04-0.04,0.04v0.15
							c-0.03,0-0.04,0.01-0.04,0.04l-0.04,0.03v0.029l-0.03,0.04c-0.03,0-0.04,0.021-0.04,0.04h-0.04v0.08
							c-0.02,0-0.05,0.01-0.07,0.03v0.04h-0.04v0.04c0,0.02-0.01,0.04-0.04,0.04v0.069h-0.03v0.07H25.6v0.04
							c0,0.021-0.01,0.04-0.04,0.04h-0.04v0.07c-0.02,0-0.04,0.01-0.07,0.04v0.04h-0.04v0.069h-0.07v0.04H25.3v0.11
							c-0.02,0-0.05,0.01-0.07,0.04v0.03l-0.04,0.04v0.04c-0.03,0-0.04,0.01-0.04,0.04h-0.04c0,0.02-0.01,0.029-0.03,0.029v0.15
							h-0.04v0.45l0.04,0.029c0.05,0,0.11,0.011,0.18,0.04h0.15c0.03,0,0.06,0.011,0.11,0.04c0.03,0,0.05,0.011,0.08,0.03
							c0.02,0.03,0.07,0.04,0.15,0.04c0.04,0,0.1,0.01,0.15,0.04c0.04,0,0.08,0.01,0.11,0.04c0.05,0,0.1,0.01,0.14,0.03
							c0.06,0.029,0.1,0.04,0.15,0.04c0.03,0,0.07,0.02,0.12,0.04c0.04,0,0.09,0.01,0.14,0.039v0.03h0.12
							c0.05,0,0.09,0.021,0.14,0.04c0.05,0,0.12,0.01,0.19,0.04c0.02,0.021,0.05,0.04,0.07,0.04c0.05,0,0.1,0.01,0.15,0.03
							c0.03,0,0.06,0.02,0.11,0.04c0.05,0.029,0.09,0.04,0.12,0.04c0.04,0,0.08,0.01,0.11,0.029c0.07,0,0.15,0.021,0.22,0.04
							c0.02,0,0.06,0.011,0.11,0.04h0.15c0.05,0,0.11,0.011,0.19,0.04c0.07,0,0.14,0.011,0.22,0.03v0.04c0.05,0,0.11,0.01,0.19,0.04
							c0.04,0,0.08,0.01,0.11,0.03c0.02,0,0.05,0.02,0.07,0.04c0.02,0.029,0.05,0.04,0.07,0.04c0.06,0,0.09,0.01,0.12,0.04h0.56
							v-0.04h0.07l0.04-0.04v-0.07l0.03-0.04v-0.07h0.04v-0.04c0.03,0,0.04-0.01,0.04-0.04l0.04-0.04V26.83H29.8V26.8
							c0-0.03-0.01-0.04-0.04-0.04v-0.04l-0.04-0.029h0.04v-0.04c0-0.03,0.01-0.04,0.04-0.04V26.5c0.03,0,0.04-0.01,0.04-0.04v-0.03
							c0.02,0,0.03-0.02,0.03-0.04v-0.04c0.03,0,0.04-0.01,0.04-0.04l0.04-0.029v-0.04c0.02,0,0.05-0.021,0.07-0.04v-0.04h0.04
							v-0.03l0.04-0.04v-0.04c0.02,0,0.03-0.01,0.03-0.03l0.04-0.039c0.03,0,0.04-0.021,0.04-0.04v-0.11c0.02,0,0.04-0.01,0.04-0.04
							l0.03-0.04v-0.03c0.03,0,0.04-0.02,0.04-0.04v-0.04c0.03,0,0.04-0.01,0.04-0.029v-0.04l0.04-0.04v-0.07h0.03v-0.08
							c0.03,0,0.05-0.01,0.08-0.03v-0.04c0.02,0,0.03-0.01,0.03-0.04c0.03,0,0.04-0.01,0.04-0.039V25.05h0.04v-0.08
							c0.03,0,0.04-0.01,0.04-0.029c0.02,0,0.03-0.021,0.03-0.04v-0.04h0.04v-0.04c0.03,0,0.04-0.011,0.04-0.03v-0.04h0.04v-0.04
							l0.03-0.04V24.6h0.04v-0.04h0.04v-0.04l0.03-0.029v-0.04c0.03,0,0.04-0.01,0.04-0.04v-0.04h0.04v-0.04l0.04-0.03
							c0.02,0,0.03-0.01,0.03-0.04V24.23c0-0.03,0.02-0.04,0.04-0.04v-0.08l0.04-0.03h0.55c0.03,0,0.06-0.021,0.08-0.04v-0.45
							c0-0.02-0.01-0.03-0.04-0.03v-0.04h-0.04V23.48c0-0.021-0.01-0.03-0.03-0.03v-0.04l-0.04-0.04v-0.11h-0.04V23.19h0.08v-0.04
							c0-0.03,0.01-0.04,0.03-0.04v-0.03h0.04V23h0.04v-0.05c0-0.021,0.01-0.03,0.04-0.03v-0.04l0.07-0.08h0.04V22.73
							c0-0.03,0.01-0.04,0.04-0.04v-0.07c0.02,0,0.03-0.01,0.03-0.04h0.04v-0.07l0.04-0.04h0.03v-0.04l0.04-0.04V22.36l0.08-0.08
							V22.1h0.37c1.59,0,3.17-0.02,4.76-0.04V21.91c0.05-0.021,0.1-0.04,0.15-0.04c0.05-0.021,0.08-0.03,0.11-0.03h0.04
							c0-0.03,0.01-0.04,0.03-0.04c0.03-0.02,0.05-0.04,0.08-0.04h0.44v5.851c-0.02,0.029-0.05,0.04-0.07,0.04V28.1h0.3v0.03h0.03
							v0.601h6.73V28.51h-0.07v-7.97h0.22v-0.11h0.3v-0.04c0.03,0,0.04-0.01,0.04-0.04h0.03V19.65c0-0.03-0.01-0.04-0.03-0.04
							l-0.04-0.04c0-0.021-0.01-0.03-0.04-0.03c-0.02-0.03-0.05-0.04-0.07-0.04h-0.04l-0.11-0.11V17.5h0.04l0.04-0.04v-0.08
							c0.02,0,0.03-0.01,0.03-0.03h0.04l0.08-0.08c0.02,0,0.03-0.01,0.03-0.029l0.08-0.04c0.02-0.03,0.05-0.04,0.07-0.04v-0.04
							l0.04-0.03c0.05-0.03,0.1-0.04,0.15-0.04c0.07,0,0.15-0.01,0.22-0.04h0.04l0.04-0.029c0.05,0,0.08-0.021,0.11-0.04l0.04-0.04
							c0.05,0,0.08-0.011,0.11-0.03c0.07,0,0.15-0.021,0.22-0.04h0.33c0-0.03,0.02-0.04,0.04-0.04c0.03,0,0.04-0.01,0.04-0.04v-0.07
							l0.04-0.04V16.61l0.04-0.04v-0.11h0.4v0.26h1.16v-0.26h0.63v0.26h0.33v-0.26h0.49v0.22h0.41v-0.22h0.55v0.26h0.34v-0.26h0.48
							v0.26h0.34v-0.26h0.521v0.22h0.329v-0.22h0.521v0.26h0.41v-0.26h0.52v0.26h0.41v-0.26h0.48v0.26h0.34v-0.26h0.55v0.33h0.34
							v-0.33h0.45v0.26h0.33v-0.26h0.56v0.26h0.37v-0.26h0.48v0.26h0.37v-0.26h0.56v0.26h0.37v-0.26h0.49v0.29h0.33v-0.29h0.71v0.33
							h0.37v-0.07h0.439c0,0.021-0.01,0.03-0.03,0.03v0.04c0.021,0,0.03-0.01,0.03-0.04h0.04l0.04-0.03h0.11v-0.34h-0.11v-0.59
							c0.02-0.03,0.05-0.04,0.07-0.04v-0.41c4.47,0.03,8.93,0.04,13.39,0.04h0.33v-0.26h0.19c0,0.02,0.01,0.04,0.039,0.04
							c0,0.02,0.011,0.03,0.03,0.03h8.82v0.52h0.18v-0.03h0.34v-0.34h0.521v0.11h0.189v-0.11h0.521v0.26h0.14v0.08h0.19v-0.34h4.979
							v0.11h0.45v-0.11h3.75v-1.67H92.94v-0.22h-0.41v0.22h-4.79v-0.22c0-0.03-0.021-0.04-0.04-0.04v-0.08h-0.15V13.3H87.36v0.37
							c-0.011-0.015-0.022-0.022-0.035-0.022S87.3,13.655,87.29,13.67c0-0.03-0.01-0.04-0.04-0.04l-0.11-0.11v-0.04l-0.04-0.07
							v-0.08h-0.22v0.3h-0.74v-0.3h-0.52v0.38h-9.11v-2.13h0.07v-0.37h-0.04V11.1h-0.26c-0.021,0-0.03-0.01-0.03-0.04v-0.22h0.41
							v-0.33c-0.15,0-0.311-0.02-0.49-0.04v-0.26h-6.62c-0.05-0.03-0.08-0.04-0.109-0.04c-0.021,0-0.051,0.01-0.07,0.04h-3.01V9.8
							l-0.04-0.04V9.61c0-0.02-0.011-0.03-0.03-0.03V9.46h-0.04V9.43c-0.03,0-0.04-0.01-0.04-0.04V9.35h-0.03V9.28
							c0-0.03-0.02-0.04-0.04-0.04V9.17H66.1V9.09h-0.04V9.02c0-0.03-0.01-0.04-0.029-0.04l-0.04-0.04V8.91h-0.04V8.76h-0.07V8.72
							l-0.04-0.04h-0.93v0.04h-0.07v0.37c-0.05-0.02-0.09-0.03-0.109-0.03c-0.03,0-0.04-0.02-0.04-0.04h-0.04V8.98
							c0-0.02-0.021-0.04-0.07-0.04l-0.04-0.03H64.5V8.87c-0.02-0.03-0.05-0.04-0.07-0.04l-0.04-0.04V8.76h-0.04
							c-0.02-0.03-0.05-0.04-0.069-0.04h-0.3V8.68H61.42v0.08H61.23v0.59l0.039,0.04v0.82H46.54V9.87c0.03-0.04,0.04-0.11,0.04-0.18
							V8.16c0-0.07-0.01-0.15-0.04-0.22V7.57h0.15V7.53h2.75c0.08,0,0.14,0.01,0.19,0.04c0.04,0,0.09,0.01,0.15,0.03
							c0.04,0,0.09,0.02,0.14,0.04c0.03,0.03,0.061,0.04,0.11,0.04c0.029,0,0.069,0.01,0.109,0.04h0.08v0.03h0.07v0.04
							c0.05,0,0.1,0.01,0.15,0.04h0.04c0.02,0,0.06,0.01,0.109,0.04C50.62,7.89,50.65,7.9,50.7,7.9s0.1,0.02,0.149,0.04
							c0.051,0,0.091,0.01,0.11,0.04c0.08,0,0.15,0.01,0.23,0.03c0.069,0.03,0.119,0.04,0.149,0.04h0.18
							c0.03,0,0.061,0.01,0.11,0.04c0.05,0.02,0.101,0.04,0.15,0.04c0.08,0,0.14,0.01,0.189,0.03c0.021,0,0.061,0.02,0.11,0.04v0.04
							c0.05,0.02,0.1,0.03,0.15,0.03c0.05,0,0.1,0.02,0.149,0.04c0.021,0,0.061,0.01,0.101,0.04c0.05,0.02,0.09,0.03,0.109,0.03
							c0.05,0,0.09,0.02,0.11,0.04h0.149c0.051,0,0.101,0.02,0.15,0.04c0.03,0.02,0.05,0.04,0.08,0.04l0.07,0.04
							c0.069,0,0.149,0.01,0.22,0.03l0.04,0.04c0.05,0,0.1,0.01,0.149,0.04c0.051,0,0.08,0.01,0.11,0.03v0.04
							c0.05,0.03,0.11,0.04,0.19,0.04h0.069c0.07,0,0.141,0.01,0.19,0.03c0,0.03,0.01,0.04,0.03,0.04c0.08,0,0.149,0.02,0.229,0.04
							h6.32v0.04h0.38V3.66H60.52c-1.909,0-3.81,0.02-5.689,0.04V3.55H54.5v0.04h-0.04v0.07L54.42,3.7c0,0.03-0.01,0.04-0.04,0.04
							h-0.22l-0.04,0.03c-0.04,0-0.11,0.02-0.18,0.04c-0.08,0-0.15,0.02-0.23,0.04h-0.14c-0.08,0-0.13,0.01-0.15,0.04h-0.04
							c-0.07,0-0.14,0.01-0.18,0.03h-0.04c-0.05,0.03-0.11,0.04-0.19,0.04h-0.26V4c-0.02,0-0.05,0.01-0.07,0.04H52.6v0.03
							C52.53,4.1,52.45,4.11,52.38,4.11c-0.03,0-0.07,0.01-0.11,0.04H52.23c-0.051,0-0.091,0.01-0.11,0.03h-0.37l-0.04,0.04
							c-0.02,0-0.08,0.01-0.15,0.04c-0.05,0-0.09,0.01-0.109,0.04h-0.04c-0.05,0.02-0.08,0.03-0.11,0.03
							c-0.05,0-0.09,0.02-0.109,0.04h-0.04c-0.07,0-0.141,0.01-0.19,0.04h-0.03c-0.05,0.02-0.1,0.04-0.149,0.04h-0.11l-0.04,0.03
							c-0.02,0-0.05,0.02-0.07,0.04h-0.04v0.04H50.33c-0.021,0-0.03,0.01-0.03,0.03h-0.04c-0.029,0-0.06,0.02-0.109,0.04
							C50.1,4.66,50.06,4.67,50.04,4.67h-0.19l-0.04,0.04c-0.02,0-0.05,0.01-0.069,0.03h-0.08l-0.03,0.04h-0.04
							c-0.03,0.02-0.05,0.04-0.07,0.04h-0.08c-0.05,0-0.1,0.01-0.15,0.03c-0.05,0-0.09,0.02-0.11,0.04h-0.22
							c0,0.03-0.02,0.04-0.04,0.04c-0.03,0-0.05,0.01-0.07,0.04V5c-0.05,0.03-0.09,0.04-0.12,0.04c-0.02,0-0.04,0.01-0.04,0.04
							h-2.11V4.44H43.9v0.34h0.04v0.34H42.6V5.08l-0.04-0.04V5l-0.04-0.03V4.93h-0.04V4.89h-0.03V4.67h-0.56V4h-0.22V3.81
							c0-0.02,0.01-0.03,0.03-0.03V3.26h-0.18V3.07L41.52,3.07z M43.93,5.52L43.9,5.49h0.03V5.52L43.93,5.52z M37.16,9.09V8.87
							c0-0.07,0.02-0.15,0.04-0.22V8.43c-0.02-0.05-0.04-0.12-0.04-0.19V7.53h0.08V7.49h1.9v0.26h0.85v0.27
							c0.52,0,1.02,0.01,1.49,0.03V7.76h1V7.5h0.56c0.3,0,0.6,0.01,0.89,0.03v1.6c-2.23,0-4.46-0.01-6.69-0.04H37.16L37.16,9.09z
							 M63.31,10.21V9.98h1.521v0.23H63.31L63.31,10.21z M22.14,11.81v-0.08h0.04v0.04C22.16,11.77,22.14,11.78,22.14,11.81
							L22.14,11.81z M3.51,20.11V17.01h2.35v2.09c-0.03,0-0.04,0.011-0.04,0.03v0.71h0.03v0.04H5.63v0.23H3.51L3.51,20.11z
							 M34.71,21.07V20.85l-0.04-0.04v-0.22c0-0.03-0.01-0.04-0.04-0.04c0-0.02-0.01-0.04-0.03-0.04V20.36
							c0.02,0,0.05-0.011,0.07-0.03v-0.12l0.04-0.03v-0.04l0.04-0.04V20.03l0.03-0.04v-0.03l0.08-0.08v-0.03l0.03-0.04v-0.04
							l0.04-0.039V19.7c0.03-0.03,0.05-0.04,0.08-0.04l0.07-0.08h0.04c0-0.021,0.01-0.03,0.04-0.03l0.07-0.109V19.4h0.04
							c0-0.021,0.01-0.04,0.03-0.04v-0.03h0.04c0-0.03,0.01-0.04,0.04-0.04l0.04-0.04c0.02,0,0.05-0.01,0.07-0.04
							c0-0.02,0.01-0.03,0.04-0.03c0.02-0.029,0.05-0.04,0.07-0.04h0.04c0-0.029,0.01-0.04,0.04-0.04c0-0.02,0.01-0.04,0.03-0.04
							l0.04-0.029h0.04c0-0.03,0.01-0.04,0.04-0.04v-0.04h1.71l0.07,0.08V19.1c0.03,0,0.04,0.011,0.04,0.04v0.07l0.04,0.04h0.03
							c0,0.02,0.02,0.04,0.04,0.04c0,0.02,0.01,0.03,0.04,0.03v0.3l0.03,0.04v1.41H37.8v0.04c-0.03,0-0.05,0.01-0.08,0.029v0.04
							l-0.07,0.07v0.04h-0.04v0.1h-0.03c-0.03,0-0.06,0.021-0.08,0.04v0.07c-0.05,0-0.09,0.02-0.11,0.04
							c-0.05,0.03-0.1,0.04-0.15,0.04c-0.02,0-0.05,0.01-0.07,0.04h-3.13c-0.05-0.03-0.1-0.04-0.15-0.04
							c-0.02,0-0.05-0.01-0.07-0.04c-0.03,0-0.05-0.01-0.08-0.04c-0.02-0.02-0.05-0.03-0.07-0.03l-0.04-0.04v-0.04H33.6
							c-0.03,0-0.06-0.01-0.08-0.029l-0.04-0.04c0-0.03-0.01-0.04-0.03-0.04c0-0.021-0.02-0.04-0.04-0.04l-0.04-0.03v-0.08
							l-0.07-0.07V20.95c-0.03,0-0.04-0.021-0.04-0.04h-0.04V19.5c0.03,0,0.04-0.01,0.04-0.03c0.03,0,0.05-0.02,0.07-0.04v-0.26
							h0.04v-0.15h0.04V18.98h0.33v-0.03h0.3v0.26L34,19.25v1.11h0.04v0.109l0.04,0.04v0.26h0.04v0.15l0.03,0.04v0.07
							c0,0.029,0.02,0.04,0.04,0.04v0.04h0.04v0.069l0.03,0.04v0.07l0.08,0.08h0.04v0.03h0.11v0.04l0.03,0.04h0.34v-0.19
							c0-0.021-0.01-0.04-0.04-0.04c-0.03,0-0.04-0.01-0.04-0.03v-0.04c0-0.02-0.01-0.04-0.03-0.04V21.07H34.71L34.71,21.07z
							 M14.71,19.84l0.03-0.04c0.03,0,0.04,0.021,0.04,0.04H14.71L14.71,19.84z"/>
					</g>
				</g>
			</g>
		</g>
	</g>
</g>
</svg>
