<?xml version="1.0" encoding="utf-8"?>
<!-- Generator: Adobe Illustrator 16.0.0, SVG Export Plug-In . SVG Version: 6.00 Build 0)  -->
<!DOCTYPE svg PUBLIC "-//W3C//DTD SVG 1.1//EN" "http://www.w3.org/Graphics/SVG/1.1/DTD/svg11.dtd">
<svg version="1.1" id="图层_1" xmlns="http://www.w3.org/2000/svg" xmlns:xlink="http://www.w3.org/1999/xlink" x="0px" y="0px"
	 width="89px" height="32px" viewBox="0 0 89 32" enable-background="new 0 0 89 32" xml:space="preserve">
<rect fill="none" width="89" height="32"/>
<g>
	<g>
		<g>
			<g>
				<g>
					
						<linearGradient id="SVGID_1_" gradientUnits="userSpaceOnUse" x1="-429.7969" y1="282.2832" x2="-430.7961" y2="281.284" gradientTransform="matrix(88.15 0 0 -19.691 37969.5625 5563.8813)">
						<stop  offset="0" style="stop-color:#BB925B"/>
						<stop  offset="0.3429" style="stop-color:#FFF6DA"/>
						<stop  offset="0.6571" style="stop-color:#FFF1B1"/>
						<stop  offset="1" style="stop-color:#B38B54"/>
					</linearGradient>
					<path fill="url(#SVGID_1_)" d="M81.346,17.205c-1.482,0.773-2.792,1.277-3.926,1.513c-1.825,0.388-3.217,0.665-4.184,0.837
						c-1.631,0.235-3.153,0.375-4.57,0.418c-1.785,0.047-2.964,0.078-3.538,0.098c-0.211,0-0.339,0-0.385,0
						c-1.16,0.021-2.24-0.012-3.25-0.098c-1.05-0.087-2.82-0.375-5.31-0.867c-2.274-0.473-3.562-0.775-3.861-0.903
						c-0.082-0.042-0.149-0.062-0.192-0.063l-4.698-0.063l-0.322-0.451c-0.149,0.086-0.364,0.203-0.643,0.354
						c-0.449,0.235-1.352,0.567-2.704,0.998c-1.587,0.58-2.444,0.804-2.572,0.676c-0.152-0.151-0.27-0.324-0.354-0.516
						c-0.108-0.17-0.193-0.387-0.258-0.643c-0.085-0.323-0.312-0.902-0.676-1.739c-0.449-0.965-0.815-1.619-1.095-1.961
						c-0.321-0.387-0.686-0.709-1.092-0.966c-0.452-0.255-0.869-0.385-1.255-0.385c-0.515-0.022-1.008,0.02-1.479,0.13
						c-0.643,0.17-1.105,0.458-1.383,0.866c-0.215,0.323-0.441,0.687-0.677,1.093c-0.129,0.324-0.226,0.516-0.291,0.579
						c-0.085,0.063-0.236,0.097-0.45,0.097c-0.149,0-0.374-0.021-0.674-0.063c-0.903-0.172-1.739-0.323-2.511-0.45
						c-1.457-0.258-2.541-0.354-3.25-0.29c-0.877,0.021-1.469,0.032-1.771,0.032c-0.405,0.02-0.931,0.107-1.573,0.258
						c-0.13,0.021-0.667,0.138-1.61,0.353c-0.409,0.106-0.697,0.16-0.868,0.16c-0.214,0-0.355-0.011-0.42-0.034
						c-0.105-0.02-0.32-0.104-0.643-0.256c-0.386-0.193-0.74-0.312-1.063-0.352c-0.405-0.065-0.761-0.012-1.06,0.159
						c-0.428,0.258-0.773,0.496-1.03,0.71c-0.365,0.32-0.642,0.708-0.835,1.156c-0.066,0.086-0.257,0.548-0.58,1.384
						c-0.173,0.473-0.333,0.752-0.484,0.838c-0.212,0.086-0.45,0.138-0.707,0.16c-0.277,0.043-0.495,0-0.643-0.128
						c-0.322-0.364-0.602-0.665-0.837-0.901c-0.429-0.473-0.761-0.729-0.998-0.772c-0.386-0.106-0.676-0.138-0.869-0.096
						c-0.43,0.021-0.913,0.214-1.448,0.58c-0.516,0.34-1.341,1.157-2.478,2.442c-0.023,0.021-0.688,0.808-1.995,2.35
						c-0.622,0.729-1.125,1.309-1.513,1.736c-0.729,0.772-1.178,1.16-1.351,1.16c-0.299,0-0.524-0.503-0.674-1.513
						c-0.043-0.257-0.033-0.824,0.032-1.704c0.108-1.01,0.257-1.835,0.45-2.479c0.365-1.137,0.729-2.049,1.094-2.733
						c0.622-1.245,1.426-2.36,2.412-3.347c1.096-1.051,2.393-2.07,3.893-3.057c1.352-0.9,2.521-1.534,3.507-1.899
						c1.459-0.535,3.271-1.028,5.439-1.479c1.479-0.321,2.723-0.548,3.729-0.675c4.721-0.537,7.23-0.805,7.529-0.805
						c0.215,0,0.388,0.033,0.515,0.096c0.065,0.045,0.129,0.087,0.193,0.13c0.042,0,1.04,0.033,2.992,0.095
						c0.987,0.044,1.962,0.086,2.927,0.128l0.258-0.19h2.059l10.458,0.804l0.291,0.161c0.191,0.13,0.309,0.277,0.354,0.45
						c0,0.15,0.021,0.182,0.063,0.097c0-0.022,0.01-0.053,0.034-0.097L48.43,7.813l3.506,0.033v0.546h-1.031l0.226,0.481
						c0.216,0.323,0.431,0.517,0.646,0.58c0.235,0.063,1.598,0.031,4.086-0.097c1.242-0.064,2.455-0.139,3.633-0.225l1.417-0.193
						l2.993,0.965c0.416,0.129,0.824,0.247,1.222,0.353c1.8,0.517,3.376,0.871,4.729,1.063c5.252,0.708,8.633,1.019,10.135,0.934
						c0.601-0.021,2.037-0.087,4.313-0.194c2.1-0.105,3.473-0.247,4.117-0.419l-0.098,0.227c-0.43,0.472-0.899,0.964-1.416,1.479
						c-1.094,1.072-1.932,1.781-2.51,2.123C82.941,16.325,81.922,16.906,81.346,17.205z M52.229,18.139
						c-0.065-0.022-0.108-0.043-0.129-0.063c-0.043,0-0.033,0.021,0.032,0.063H52.229z"/>
				</g>
			</g>
		</g>
	</g>
</g>
</svg>
