<?xml version="1.0" encoding="utf-8"?>
<!-- Generator: Adobe Illustrator 16.0.0, SVG Export Plug-In . SVG Version: 6.00 Build 0)  -->
<!DOCTYPE svg PUBLIC "-//W3C//DTD SVG 1.1//EN" "http://www.w3.org/Graphics/SVG/1.1/DTD/svg11.dtd">
<svg version="1.1" id="图层_1" xmlns="http://www.w3.org/2000/svg" xmlns:xlink="http://www.w3.org/1999/xlink" x="0px" y="0px"
	 width="79.833px" height="32px" viewBox="0 0 79.833 32" enable-background="new 0 0 79.833 32" xml:space="preserve">
<rect fill="none" width="79.833" height="32"/>
<g>
	<g>
		<g>
			<g>
				<g>
					
						<linearGradient id="SVGID_1_" gradientUnits="userSpaceOnUse" x1="-869.646" y1="42.127" x2="-868.6557" y2="41.1206" gradientTransform="matrix(78.881 0 0 13.6864 68589.0703 -552.5803)">
						<stop  offset="0.2463" style="stop-color:#000000"/>
						<stop  offset="0.5616" style="stop-color:#FFD400"/>
						<stop  offset="0.8768" style="stop-color:#FF0000"/>
					</linearGradient>
					<path fill="url(#SVGID_1_)" d="M16.598,10.484c1.581-0.238,2.805-0.404,3.67-0.504c0.71-0.08,1.956-0.148,3.729-0.205
						c1.815-0.041,3.166-0.041,4.053,0c0.751,0.019,1.569,0.107,2.456,0.265c0.437,0.08,0.8,0.149,1.096,0.206
						c1.047,0.575,2.169,0.89,3.374,0.948c0.253,0.021,0.609,0.021,1.063,0c0.296,0,0.462,0.011,0.504,0.032
						c0.08,0.099,0.426,0.058,1.034-0.122c0.515-0.139,1.035-0.313,1.57-0.529c0.473-0.181,0.798-0.279,0.974-0.296
						c0.219-0.041,0.493,0,0.831,0.115c0.315,0.101,0.58,0.267,0.799,0.504c0.08,0.101,0.168,0.219,0.266,0.354
						c0.063,0.08,0.143,0.198,0.238,0.354c0.139,0.199,0.492,0.251,1.064,0.15c0.295-0.04,0.571-0.1,0.825-0.178
						c0.298,0,0.622-0.167,0.976-0.501c0.159-0.159,0.299-0.316,0.42-0.477c0.035,0,0.291,0.059,0.768,0.181
						c0.611,0.115,1.24,0.234,1.895,0.353c0.217,0.04,0.444,0.08,0.68,0.117c1.854,0.314,3.711,0.513,5.563,0.593
						c2.095,0.098,4.358-0.048,6.808-0.443c1.24-0.197,2.267-0.403,3.074-0.619l0.236,0.147c0.277,0.156,0.682,0.402,1.212,0.736
						c1.244,0.732,2.495,1.253,3.761,1.57c0.67,0.16,1.459,0.274,2.363,0.354c0.376,0.021,0.781,0.038,1.217,0.058
						c1.022,0.041,2.387-0.077,4.084-0.354c0.846-0.118,1.594-0.245,2.246-0.385c-0.216,0.279-0.474,0.613-0.771,1.007
						c-0.633,0.768-1.192,1.419-1.688,1.951c-0.531,0.593-1.39,1.164-2.572,1.719c-0.869,0.412-1.707,0.728-2.518,0.944
						c-0.098,0.021-0.195,0.041-0.296,0.06c-0.667,0.177-1.753,0.229-3.255,0.147c-1.223-0.057-2.365-0.166-3.432-0.325
						c-0.709-0.118-3.435-0.455-8.164-1.005l-6.896-0.828l-0.113,0.382l-1.867,0.147c-0.099-0.114-0.195-0.228-0.295-0.321
						c-0.08-0.08-0.229-0.147-0.445-0.208c-0.196-0.042-0.361-0.042-0.502,0c-0.1,0.038-0.217,0.098-0.354,0.177l-0.148,0.119
						l0.029-0.179c0.041-0.159-0.107-0.277-0.443-0.354c-0.1-0.021-0.266,0.028-0.502,0.148c-0.238,0.136-0.364,0.235-0.383,0.296
						c-0.021,0.058-0.031,0.167-0.031,0.32c-0.041,0.183-0.135,0.367-0.295,0.563c-0.159,0.22-0.426,0.416-0.803,0.595
						c-0.354,0.157-0.66,0.244-0.916,0.266c-0.217,0-0.404-0.037-0.562-0.117c-0.039-0.018-0.08-0.042-0.119-0.059l-0.028-0.03
						l0.119,0.267c0.059,0.157,0.096,0.334,0.116,0.532c0.021,0.217,0.013,0.481-0.03,0.799c-0.02,0.296-0.138,0.622-0.354,0.979
						c-0.159,0.272-0.328,0.5-0.504,0.681c-0.098,0.116-0.25,0.224-0.441,0.321c-0.199,0.104-0.326,0.123-0.387,0.061
						c-0.059-0.061-0.077-0.119-0.059-0.177c0.021-0.022,0.107-0.138,0.267-0.353c0.136-0.16,0.256-0.486,0.353-0.979
						c0.1-0.477,0.139-0.869,0.122-1.188c-0.022-0.273-0.146-0.631-0.39-1.064c-0.098-0.178-0.184-0.336-0.264-0.475
						c-0.08-0.114-0.138-0.176-0.179-0.176c-0.079,0-0.287,0-0.623,0c-0.433-0.021-0.777-0.041-1.033-0.062
						c-0.238,0-1.295-0.119-3.167-0.354c-1.991-0.258-3.137-0.404-3.433-0.443c-0.493-0.037-2.446,0.05-5.857,0.266
						c-3.394,0.24-5.454,0.414-6.185,0.533c-0.63,0.121-1.795,0.425-3.489,0.918c-1.263,0.376-2.376,0.719-3.345,1.037
						c-0.613,0.176-1.655,0.59-3.138,1.238c-1.437,0.633-2.335,1.059-2.691,1.272c-0.353,0.217-0.611,0.385-0.768,0.503
						C6.54,22.6,6.422,22.727,6.363,22.848c-0.06,0.139-0.1,0.236-0.12,0.295c-0.02,0.039-0.059,0.106-0.116,0.207
						c-0.06,0.078-0.198,0.1-0.414,0.062c-0.198-0.042-0.405-0.109-0.622-0.207c-0.196-0.08-0.623-0.501-1.271-1.271
						c-0.258-0.317-0.476-0.604-0.65-0.859c-0.2-0.256-0.287-0.4-0.267-0.444c0-0.099,0.12-0.235,0.354-0.413
						c0.217-0.139,0.728-0.472,1.537-1.006c0.613-0.415,1.53-0.896,2.754-1.447c0.253-0.101,0.68-0.274,1.271-0.535
						c0.416-0.195,0.68-0.324,0.797-0.384c0.456-0.218,0.981-0.446,1.567-0.682c0.91-0.336,2.032-0.7,3.376-1.096
						c1.301-0.354,3.095-0.7,5.386-1.032c0.787-0.1,1.547-0.187,2.279-0.267c0.609-0.08,0.994-0.121,1.153-0.121
						c0.414-0.02,1.174-0.036,2.274-0.058c1.383-0.02,2.24-0.02,2.575,0c0.889,0.058,1.895,0.136,3.021,0.237
						c1.615,0.138,2.474,0.226,2.572,0.265c0.06,0.023,0.307,0.14,0.739,0.355c0.434,0.197,0.799,0.347,1.095,0.446
						c0.296,0.078,0.562,0.146,0.797,0.204c0.12,0.021,0.209,0.03,0.269,0.03L36.481,14.8c-0.097-0.157-0.176-0.364-0.233-0.621
						c-0.039-0.157-0.06-0.314-0.06-0.475c0-0.078-0.011-0.128-0.029-0.146h-0.062c-0.53,0-1.042-0.038-1.537-0.118
						c-0.297-0.042-1.232-0.098-2.811-0.178c-1.616-0.1-2.674-0.148-3.165-0.148c-0.512,0-1.144,0.018-1.896,0.06
						c-0.728,0.038-1.766,0.106-3.105,0.205c-1.244,0.08-2.804,0.296-4.675,0.654c-1.735,0.313-3.275,0.641-4.616,0.977
						c-1.063,0.276-2.534,0.798-4.41,1.567c-1.005,0.432-2.107,0.915-3.312,1.448c-0.475,0.216-1.106,0.582-1.896,1.095
						c-0.293,0.198-0.709,0.481-1.242,0.858c-0.097,0.059-0.227,0.049-0.384-0.031c-0.059-0.021-0.106-0.049-0.146-0.088
						l-0.061-0.028c-0.16-0.062-0.443-0.326-0.858-0.799c-0.473-0.535-0.776-0.871-0.918-1.007
						c-0.217-0.237-0.362-0.412-0.441-0.533c-0.08-0.139-0.08-0.247,0-0.324c0.058-0.038,0.185-0.188,0.384-0.441
						c0.236-0.301,0.415-0.517,0.532-0.651c0.157-0.159,0.74-0.542,1.746-1.155c0.493-0.293,0.976-0.571,1.449-0.828
						c0.632-0.374,2.041-0.927,4.23-1.655c1.716-0.593,3.078-1.025,4.083-1.303C13.604,10.978,14.786,10.762,16.598,10.484z
						 M26.126,10.517c-0.195,0-0.364,0.066-0.501,0.205c-0.142,0.136-0.208,0.305-0.208,0.504c0,0.194,0.066,0.364,0.208,0.501
						c0.137,0.139,0.306,0.208,0.501,0.208c0.197,0,0.365-0.069,0.504-0.208c0.139-0.137,0.206-0.307,0.206-0.501
						c0-0.199-0.067-0.368-0.206-0.504C26.492,10.583,26.324,10.517,26.126,10.517z M28.376,10.93
						c-0.139,0.116-0.206,0.274-0.206,0.472c0,0.196,0.067,0.363,0.206,0.504c0.138,0.139,0.306,0.205,0.504,0.205
						c0.195,0,0.362-0.066,0.499-0.205c0.141-0.141,0.21-0.308,0.21-0.504c0-0.197-0.069-0.355-0.21-0.472
						c-0.137-0.14-0.304-0.208-0.499-0.208C28.682,10.722,28.514,10.791,28.376,10.93z M66.249,13.562l-14.561-0.355l0.563,0.296
						l14.41,0.384L66.249,13.562z M32.042,15.189c0-0.176-0.066-0.336-0.205-0.474c-0.139-0.118-0.296-0.179-0.475-0.179
						c-0.194,0-0.362,0.061-0.501,0.179c-0.141,0.138-0.208,0.298-0.208,0.474c0,0.181,0.067,0.335,0.208,0.474
						c0.139,0.139,0.307,0.206,0.501,0.206c0.179,0,0.336-0.067,0.475-0.206C31.976,15.524,32.042,15.37,32.042,15.189z
						 M33.32,14.981c-0.142,0.118-0.208,0.278-0.208,0.474c0,0.199,0.066,0.356,0.208,0.478c0.136,0.136,0.304,0.201,0.501,0.201
						c0.179,0,0.333-0.065,0.475-0.201c0.138-0.121,0.205-0.278,0.205-0.478c0-0.195-0.067-0.355-0.205-0.474
						c-0.142-0.137-0.296-0.207-0.475-0.207C33.624,14.774,33.456,14.844,33.32,14.981z M10.506,17.883
						c-0.159,0.137-0.237,0.297-0.237,0.473c0,0.196,0.078,0.361,0.237,0.502c0.136,0.141,0.307,0.207,0.504,0.207
						c0.197,0,0.364-0.066,0.501-0.207c0.159-0.141,0.235-0.306,0.235-0.502c0-0.176-0.076-0.336-0.235-0.473
						c-0.137-0.141-0.304-0.211-0.501-0.211C10.813,17.672,10.642,17.743,10.506,17.883z M3.583,17.672
						c0.175,0,0.332-0.068,0.472-0.206c0.138-0.138,0.207-0.295,0.207-0.471c0-0.199-0.069-0.354-0.207-0.478
						c-0.14-0.138-0.297-0.207-0.472-0.207c-0.198,0-0.366,0.069-0.505,0.207c-0.118,0.121-0.176,0.276-0.176,0.478
						c0,0.176,0.058,0.333,0.176,0.471C3.217,17.604,3.385,17.672,3.583,17.672z M5.624,15.988c0,0.196,0.071,0.364,0.208,0.505
						c0.136,0.136,0.296,0.206,0.473,0.206c0.198,0,0.366-0.07,0.503-0.206c0.136-0.141,0.208-0.309,0.208-0.505
						c0-0.177-0.072-0.334-0.208-0.473c-0.137-0.138-0.305-0.207-0.503-0.207c-0.177,0-0.337,0.069-0.473,0.207
						C5.695,15.654,5.624,15.811,5.624,15.988z M8.287,18.828c-0.14,0.137-0.207,0.296-0.207,0.474c0,0.196,0.067,0.367,0.207,0.503
						c0.138,0.141,0.306,0.209,0.503,0.209c0.197,0,0.365-0.068,0.504-0.209c0.138-0.136,0.205-0.307,0.205-0.503
						c0-0.178-0.067-0.337-0.205-0.474c-0.139-0.137-0.307-0.207-0.504-0.207C8.593,18.621,8.424,18.691,8.287,18.828z"/>
				</g>
			</g>
		</g>
	</g>
</g>
<path fill="none" d="M35.653,71.059c0.296,0.078,0.562,0.146,0.797,0.205c0.12,0.021,0.209,0.029,0.269,0.029l-0.238-0.326
	c-0.097-0.156-0.176-0.363-0.233-0.621c-0.039-0.156-0.06-0.313-0.06-0.475c0-0.078-0.011-0.128-0.029-0.146h-0.062
	c-0.526,0-1.034-0.037-1.525-0.116c0.365,0.495,0.7,0.971,1.005,1.422C35.601,71.038,35.63,71.051,35.653,71.059z"/>
<path fill="none" d="M33.112,71.622c0,0.198,0.066,0.356,0.208,0.478c0.136,0.137,0.304,0.201,0.501,0.201
	c0.179,0,0.333-0.064,0.475-0.201c0.111-0.098,0.164-0.226,0.186-0.373c-0.326-0.243-0.654-0.477-0.986-0.697
	c-0.062,0.032-0.123,0.066-0.176,0.119C33.178,71.266,33.112,71.426,33.112,71.622z"/>
<path fill="none" d="M3.583,72.479c-0.198,0-0.366,0.068-0.505,0.206c-0.118,0.121-0.176,0.276-0.176,0.478
	c0,0.176,0.058,0.333,0.176,0.471c0.139,0.138,0.307,0.206,0.505,0.206c0.175,0,0.332-0.068,0.472-0.206
	c0.138-0.138,0.207-0.295,0.207-0.471c0-0.199-0.069-0.354-0.207-0.478C3.915,72.547,3.758,72.479,3.583,72.479z"/>
<path fill="none" d="M26.126,68.102c0.186,0,0.344-0.066,0.478-0.189c-0.383-0.106-0.764-0.205-1.145-0.294
	c0.033,0.101,0.083,0.195,0.166,0.276C25.762,68.033,25.931,68.102,26.126,68.102z"/>
<path fill="none" d="M8.79,74.788c-0.197,0-0.366,0.07-0.503,0.207c-0.14,0.137-0.207,0.296-0.207,0.474
	c0,0.196,0.067,0.367,0.207,0.503c0.138,0.141,0.306,0.209,0.503,0.209c0.197,0,0.365-0.068,0.504-0.209
	c0.138-0.136,0.205-0.307,0.205-0.503c0-0.178-0.067-0.337-0.205-0.474C9.155,74.858,8.987,74.788,8.79,74.788z"/>
<path fill="none" d="M32.25,66.724c0.859,0.374,1.765,0.591,2.726,0.638c0.173,0.014,0.413,0.015,0.681,0.01
	c-1.205-0.373-2.406-0.643-3.573-0.833C32.139,66.6,32.196,66.662,32.25,66.724z"/>
<path fill="none" d="M6.305,71.475c-0.177,0-0.337,0.069-0.473,0.207c-0.137,0.139-0.208,0.297-0.208,0.473
	c0,0.197,0.071,0.365,0.208,0.506c0.136,0.136,0.296,0.206,0.473,0.206c0.198,0,0.366-0.07,0.503-0.206
	c0.136-0.141,0.208-0.309,0.208-0.506c0-0.176-0.072-0.334-0.208-0.473C6.671,71.544,6.503,71.475,6.305,71.475z"/>
<polygon fill="none" points="51.688,69.374 52.25,69.67 66.661,70.055 66.249,69.729 "/>
<path fill="none" d="M11.01,73.839c-0.197,0-0.368,0.071-0.504,0.211c-0.159,0.137-0.237,0.297-0.237,0.473
	c0,0.196,0.078,0.361,0.237,0.502c0.136,0.141,0.307,0.207,0.504,0.207c0.197,0,0.364-0.066,0.501-0.207
	c0.159-0.141,0.235-0.306,0.235-0.502c0-0.176-0.076-0.336-0.235-0.473C11.374,73.909,11.207,73.839,11.01,73.839z"/>
<path fill="none" d="M31.362,70.703c-0.194,0-0.362,0.061-0.501,0.179c-0.141,0.138-0.208,0.298-0.208,0.474
	c0,0.182,0.067,0.336,0.208,0.475c0.139,0.139,0.307,0.206,0.501,0.206c0.179,0,0.336-0.067,0.475-0.206
	c0.139-0.139,0.205-0.293,0.205-0.475c0-0.176-0.066-0.336-0.205-0.474C31.698,70.764,31.541,70.703,31.362,70.703z"/>
<linearGradient id="SVGID_2_" gradientUnits="userSpaceOnUse" x1="-869.8413" y1="46.04" x2="-868.851" y2="45.0336" gradientTransform="matrix(78.881 0 0 13.6864 68589.0703 -552.5803)">
	<stop  offset="0.2463" style="stop-color:#000000"/>
	<stop  offset="0.5616" style="stop-color:#FFD400"/>
	<stop  offset="0.8768" style="stop-color:#FF0000"/>
</linearGradient>
<path fill="url(#SVGID_2_)" d="M26.126,68.102c-0.195,0-0.364-0.068-0.501-0.207c-0.083-0.081-0.133-0.176-0.166-0.276
	c-4.025-0.942-7.865-0.923-10.624-0.682c-0.843,0.146-1.438,0.267-1.787,0.364c-1.005,0.278-2.367,0.71-4.083,1.303
	c-2.189,0.729-3.598,1.281-4.23,1.655c-0.473,0.257-0.956,0.535-1.449,0.828C2.28,71.7,1.697,72.083,1.54,72.242
	c-0.117,0.135-0.296,0.351-0.532,0.651c-0.199,0.254-0.326,0.403-0.384,0.441c-0.08,0.077-0.08,0.186,0,0.324
	c0.079,0.121,0.224,0.296,0.441,0.533c0.142,0.136,0.445,0.472,0.918,1.007c0.415,0.473,0.698,0.737,0.858,0.799l0.061,0.028
	c0.04,0.039,0.087,0.067,0.146,0.088c0.157,0.08,0.287,0.09,0.384,0.031c0.533-0.377,0.949-0.66,1.242-0.858
	c0.79-0.513,1.421-0.879,1.896-1.095c1.205-0.533,2.307-1.017,3.312-1.448c1.876-0.77,3.347-1.291,4.41-1.567
	c1.341-0.336,2.881-0.663,4.616-0.977c1.871-0.358,3.431-0.574,4.675-0.654c1.339-0.099,2.377-0.167,3.105-0.205
	c0.752-0.042,1.384-0.06,1.896-0.06c0.354,0,1.013,0.025,1.953,0.077c-1.301-0.609-2.622-1.079-3.933-1.446
	C26.47,68.035,26.312,68.102,26.126,68.102z M4.055,73.633c-0.14,0.138-0.297,0.206-0.472,0.206c-0.198,0-0.366-0.068-0.505-0.206
	c-0.118-0.138-0.176-0.295-0.176-0.471c0-0.201,0.058-0.356,0.176-0.478c0.139-0.138,0.307-0.206,0.505-0.206
	c0.175,0,0.332,0.068,0.472,0.206c0.138,0.123,0.207,0.278,0.207,0.478C4.262,73.338,4.193,73.495,4.055,73.633z M6.808,72.66
	c-0.137,0.136-0.305,0.206-0.503,0.206c-0.177,0-0.337-0.07-0.473-0.206c-0.137-0.141-0.208-0.309-0.208-0.506
	c0-0.176,0.071-0.334,0.208-0.473c0.136-0.138,0.296-0.207,0.473-0.207c0.198,0,0.366,0.069,0.503,0.207
	c0.136,0.139,0.208,0.297,0.208,0.473C7.016,72.352,6.944,72.52,6.808,72.66z"/>
<linearGradient id="SVGID_3_" gradientUnits="userSpaceOnUse" x1="-869.6943" y1="46.1846" x2="-868.704" y2="45.1782" gradientTransform="matrix(78.881 0 0 13.6864 68589.0703 -552.5803)">
	<stop  offset="0.2463" style="stop-color:#000000"/>
	<stop  offset="0.5616" style="stop-color:#FFD400"/>
	<stop  offset="0.8768" style="stop-color:#FF0000"/>
</linearGradient>
<path fill="url(#SVGID_3_)" d="M34.296,72.1c-0.142,0.137-0.296,0.201-0.475,0.201c-0.197,0-0.365-0.064-0.501-0.201
	c-0.142-0.121-0.208-0.279-0.208-0.478c0-0.196,0.066-0.356,0.208-0.474c0.053-0.053,0.114-0.087,0.176-0.119
	c-0.532-0.354-1.07-0.682-1.615-0.981c-0.197-0.018-0.406-0.035-0.633-0.055c-1.126-0.101-2.132-0.179-3.021-0.237
	c-0.335-0.02-1.192-0.02-2.575,0c-1.1,0.021-1.86,0.038-2.274,0.059c-0.159,0-0.544,0.041-1.153,0.121
	c-0.732,0.08-1.492,0.166-2.279,0.267c-2.291,0.332-4.085,0.678-5.386,1.032c-1.344,0.396-2.466,0.76-3.376,1.096
	c-0.586,0.236-1.111,0.464-1.567,0.682c-0.117,0.06-0.381,0.188-0.797,0.384c-0.591,0.261-1.018,0.435-1.271,0.535
	c-1.224,0.551-2.141,1.032-2.754,1.447c-0.809,0.534-1.32,0.867-1.537,1.006c-0.234,0.178-0.354,0.314-0.354,0.413
	c-0.02,0.044,0.067,0.188,0.267,0.444c0.174,0.255,0.392,0.542,0.65,0.859c0.648,0.77,1.075,1.19,1.271,1.271
	c0.217,0.098,0.424,0.165,0.622,0.207c0.216,0.038,0.354,0.017,0.414-0.062c0.057-0.101,0.096-0.168,0.116-0.207
	c0.02-0.059,0.06-0.156,0.12-0.295c0.059-0.121,0.177-0.248,0.355-0.387c0.157-0.118,0.415-0.286,0.768-0.503
	c0.356-0.214,1.254-0.64,2.691-1.272c1.483-0.648,2.525-1.063,3.138-1.238c0.969-0.318,2.082-0.661,3.345-1.037
	c1.694-0.493,2.859-0.797,3.489-0.918c0.731-0.119,2.791-0.293,6.185-0.533c3.411-0.216,5.364-0.303,5.857-0.266
	c0.296,0.039,1.442,0.186,3.433,0.443c0.306,0.038,0.583,0.073,0.845,0.104c-0.644-0.612-1.307-1.173-1.988-1.682
	C34.46,71.874,34.407,72.002,34.296,72.1z M9.294,75.972c-0.139,0.141-0.307,0.209-0.504,0.209c-0.197,0-0.365-0.068-0.503-0.209
	c-0.14-0.136-0.207-0.307-0.207-0.503c0-0.178,0.067-0.337,0.207-0.474c0.137-0.137,0.306-0.207,0.503-0.207
	c0.197,0,0.365,0.07,0.504,0.207c0.138,0.137,0.205,0.296,0.205,0.474C9.499,75.665,9.432,75.836,9.294,75.972z M11.511,75.024
	c-0.137,0.141-0.304,0.207-0.501,0.207c-0.197,0-0.368-0.066-0.504-0.207c-0.159-0.141-0.237-0.306-0.237-0.502
	c0-0.176,0.078-0.336,0.237-0.473c0.136-0.14,0.307-0.211,0.504-0.211c0.197,0,0.364,0.07,0.501,0.211
	c0.159,0.137,0.235,0.297,0.235,0.473C11.746,74.719,11.67,74.884,11.511,75.024z M31.837,71.83
	c-0.139,0.139-0.296,0.206-0.475,0.206c-0.194,0-0.362-0.067-0.501-0.206c-0.141-0.139-0.208-0.293-0.208-0.475
	c0-0.176,0.067-0.336,0.208-0.474c0.139-0.118,0.307-0.179,0.501-0.179c0.179,0,0.336,0.061,0.475,0.179
	c0.139,0.138,0.205,0.298,0.205,0.474C32.042,71.537,31.976,71.691,31.837,71.83z"/>
<linearGradient id="SVGID_4_" gradientUnits="userSpaceOnUse" x1="-869.5947" y1="46.2822" x2="-868.6044" y2="45.2758" gradientTransform="matrix(78.881 0 0 13.6864 68589.0703 -552.5803)">
	<stop  offset="0.2463" style="stop-color:#000000"/>
	<stop  offset="0.5616" style="stop-color:#FFD400"/>
	<stop  offset="0.8768" style="stop-color:#FF0000"/>
</linearGradient>
<path fill="url(#SVGID_4_)" d="M77.2,69.46c-1.697,0.276-3.062,0.396-4.084,0.354c-0.436-0.021-0.841-0.037-1.217-0.059
	c-0.904-0.08-1.693-0.193-2.363-0.354c-1.266-0.317-2.517-0.838-3.761-1.57c-0.53-0.334-0.935-0.58-1.212-0.736l-0.236-0.146
	c-0.808,0.216-1.834,0.422-3.074,0.619c-2.449,0.395-4.713,0.541-6.808,0.442c-1.853-0.079-3.71-0.278-5.563-0.593
	c-0.235-0.037-0.463-0.077-0.68-0.117c-0.654-0.119-1.283-0.238-1.895-0.353c-0.477-0.122-0.732-0.181-0.768-0.181
	c-0.121,0.16-0.261,0.317-0.42,0.477c-0.354,0.334-0.678,0.501-0.976,0.501c-0.254,0.078-0.53,0.138-0.825,0.178
	c-0.572,0.101-0.926,0.05-1.064-0.149c-0.096-0.156-0.176-0.274-0.238-0.354c-0.098-0.135-0.186-0.253-0.266-0.354
	c-0.219-0.236-0.483-0.402-0.799-0.504c-0.338-0.115-0.612-0.156-0.831-0.115c-0.093,0.01-0.234,0.045-0.411,0.1
	c2.467,2.802,3.851,5.305,3.851,5.305c-2.375-2.229-5.145-3.624-7.904-4.479c-0.269,0.005-0.508,0.004-0.681-0.01
	c-0.961-0.047-1.866-0.264-2.726-0.638c0.874,0.992,1.647,1.969,2.321,2.885c0.492,0.079,1,0.116,1.525,0.116h0.062
	c0.018,0.019,0.029,0.068,0.029,0.146c0,0.161,0.021,0.318,0.06,0.475c0.057,0.258,0.136,0.465,0.233,0.621l0.238,0.326
	c-0.06,0-0.149-0.009-0.269-0.029c-0.235-0.059-0.501-0.127-0.797-0.205c-0.022-0.008-0.052-0.021-0.076-0.028
	c0.654,0.966,1.171,1.809,1.548,2.458c0.94,0.112,1.502,0.17,1.666,0.17c0.256,0.021,0.6,0.041,1.033,0.062c0.336,0,0.544,0,0.623,0
	c0.041,0,0.099,0.062,0.179,0.176c0.08,0.139,0.166,0.297,0.264,0.475c0.244,0.434,0.367,0.791,0.39,1.064
	c0.017,0.318-0.022,0.711-0.122,1.188c-0.097,0.492-0.217,0.818-0.353,0.979c-0.159,0.215-0.246,0.33-0.267,0.353
	c-0.019,0.058,0,0.116,0.059,0.177c0.061,0.063,0.188,0.043,0.387-0.061c0.191-0.098,0.344-0.205,0.441-0.321
	c0.176-0.181,0.345-0.408,0.504-0.681c0.216-0.357,0.334-0.684,0.354-0.979c0.043-0.317,0.051-0.582,0.03-0.799
	c-0.021-0.198-0.058-0.375-0.116-0.532l-0.119-0.267l0.028,0.03c0.039,0.017,0.08,0.041,0.119,0.059
	c0.157,0.08,0.345,0.117,0.562,0.117c0.256-0.021,0.563-0.108,0.916-0.266c0.377-0.179,0.644-0.375,0.803-0.595
	c0.16-0.196,0.254-0.381,0.295-0.563c0-0.153,0.01-0.263,0.031-0.32c0.019-0.061,0.145-0.16,0.383-0.296
	c0.236-0.12,0.402-0.17,0.502-0.148c0.336,0.077,0.484,0.195,0.443,0.354l-0.029,0.179l0.148-0.119
	c0.137-0.079,0.254-0.139,0.354-0.177c0.141-0.042,0.306-0.042,0.502,0c0.217,0.061,0.365,0.128,0.445,0.208
	c0.1,0.094,0.196,0.207,0.295,0.321l1.867-0.147l0.113-0.382l6.896,0.828c4.729,0.55,7.455,0.887,8.164,1.005
	c1.066,0.159,2.209,0.269,3.432,0.325c1.502,0.082,2.588,0.029,3.255-0.147c0.101-0.019,0.198-0.039,0.296-0.06
	c0.811-0.217,1.648-0.532,2.518-0.944c1.183-0.555,2.041-1.126,2.572-1.719c0.495-0.532,1.055-1.184,1.688-1.951
	c0.298-0.395,0.556-0.729,0.771-1.007C78.793,69.215,78.045,69.342,77.2,69.46z M52.25,69.67l-0.563-0.296l14.561,0.354l0.412,0.326
	L52.25,69.67z"/>
<linearGradient id="SVGID_5_" gradientUnits="userSpaceOnUse" x1="15.7251" y1="76.8486" x2="33.3754" y2="66.6806" gradientTransform="matrix(0.992 -0.1265 0.1265 0.992 -7.8611 3.4066)">
	<stop  offset="0.3505" style="stop-color:#FFE3A0"/>
	<stop  offset="1" style="stop-color:#00FFFF"/>
</linearGradient>
<path fill="url(#SVGID_5_)" d="M31.754,66.486c0.164,0.085,0.329,0.164,0.497,0.237c-0.054-0.062-0.111-0.124-0.167-0.186
	C31.974,66.52,31.864,66.503,31.754,66.486z"/>
<linearGradient id="SVGID_6_" gradientUnits="userSpaceOnUse" x1="9.3999" y1="65.8682" x2="27.0502" y2="55.7002" gradientTransform="matrix(0.992 -0.1265 0.1265 0.992 -7.8611 3.4066)">
	<stop  offset="0.3505" style="stop-color:#FFE3A0"/>
	<stop  offset="1" style="stop-color:#00FFFF"/>
</linearGradient>
<path fill="url(#SVGID_6_)" d="M20.268,66.146c0.36-0.041,0.859-0.078,1.493-0.112l3.046-5.697
	c-3.147-1.925-6.826-3.284-11.014-3.381l-3.121,10.604c0,0,1.624-0.403,4.162-0.624c0.5-0.087,1.088-0.182,1.763-0.286
	C18.179,66.413,19.403,66.247,20.268,66.146z"/>
<linearGradient id="SVGID_7_" gradientUnits="userSpaceOnUse" x1="14.2622" y1="74.3096" x2="31.9125" y2="64.1416" gradientTransform="matrix(0.992 -0.1265 0.1265 0.992 -7.8611 3.4066)">
	<stop  offset="0.3505" style="stop-color:#FFE3A0"/>
	<stop  offset="1" style="stop-color:#00FFFF"/>
</linearGradient>
<path fill="url(#SVGID_7_)" d="M26.63,67.895c0.139-0.138,0.206-0.308,0.206-0.502c0-0.199-0.067-0.367-0.206-0.504
	c-0.138-0.139-0.306-0.205-0.504-0.205c-0.195,0-0.364,0.066-0.501,0.205c-0.142,0.137-0.208,0.305-0.208,0.504
	c0,0.08,0.019,0.154,0.042,0.226c0.38,0.089,0.762,0.188,1.145,0.294C26.612,67.904,26.622,67.902,26.63,67.895z"/>
<linearGradient id="SVGID_8_" gradientUnits="userSpaceOnUse" x1="20.2808" y1="84.7568" x2="37.931" y2="74.5888" gradientTransform="matrix(0.992 -0.1265 0.1265 0.992 -7.8611 3.4066)">
	<stop  offset="0.3505" style="stop-color:#FFE3A0"/>
	<stop  offset="1" style="stop-color:#00FFFF"/>
</linearGradient>
<path fill="url(#SVGID_8_)" d="M37.878,74.865c0,0-0.258-0.522-0.753-1.377c-0.202-0.024-0.419-0.051-0.656-0.08
	C36.95,73.867,37.423,74.345,37.878,74.865z"/>
<linearGradient id="SVGID_9_" gradientUnits="userSpaceOnUse" x1="18.2222" y1="81.1836" x2="35.8724" y2="71.0156" gradientTransform="matrix(0.992 -0.1265 0.1265 0.992 -7.8611 3.4066)">
	<stop  offset="0.3505" style="stop-color:#FFE3A0"/>
	<stop  offset="1" style="stop-color:#00FFFF"/>
</linearGradient>
<path fill="url(#SVGID_9_)" d="M34.501,71.622c0-0.195-0.067-0.354-0.205-0.474c-0.142-0.138-0.296-0.207-0.475-0.207
	c-0.121,0-0.227,0.035-0.325,0.088c0.332,0.221,0.66,0.454,0.986,0.697C34.486,71.69,34.501,71.661,34.501,71.622z"/>
<linearGradient id="SVGID_10_" gradientUnits="userSpaceOnUse" x1="17.4712" y1="79.8789" x2="35.1215" y2="69.7109" gradientTransform="matrix(0.992 -0.1265 0.1265 0.992 -7.8611 3.4066)">
	<stop  offset="0.3505" style="stop-color:#FFE3A0"/>
	<stop  offset="1" style="stop-color:#00FFFF"/>
</linearGradient>
<path fill="url(#SVGID_10_)" d="M34.558,70.613c0.401,0.183,0.736,0.318,1.019,0.417c-0.305-0.451-0.641-0.927-1.005-1.422
	c-0.004,0-0.008,0-0.012-0.001c-0.297-0.043-1.232-0.099-2.811-0.178c-0.451-0.028-0.848-0.051-1.212-0.071
	c0.451,0.212,0.899,0.444,1.344,0.689c1.205,0.106,1.854,0.177,1.938,0.21C33.879,70.281,34.126,70.398,34.558,70.613z"/>
<linearGradient id="SVGID_11_" gradientUnits="userSpaceOnUse" x1="15.1714" y1="75.8877" x2="32.8217" y2="65.7197" gradientTransform="matrix(0.992 -0.1265 0.1265 0.992 -7.8611 3.4066)">
	<stop  offset="0.3505" style="stop-color:#FFE3A0"/>
	<stop  offset="1" style="stop-color:#00FFFF"/>
</linearGradient>
<path fill="url(#SVGID_11_)" d="M28.88,66.889c-0.198,0-0.366,0.069-0.504,0.209c-0.139,0.115-0.206,0.273-0.206,0.471
	s0.067,0.363,0.206,0.505c0.138,0.139,0.306,0.204,0.504,0.204c0.195,0,0.362-0.065,0.499-0.204c0.141-0.142,0.21-0.308,0.21-0.505
	c0-0.196-0.069-0.354-0.21-0.471C29.242,66.957,29.075,66.889,28.88,66.889z"/>
<linearGradient id="SVGID_12_" gradientUnits="userSpaceOnUse" x1="-869.8599" y1="46.0215" x2="-868.8696" y2="45.0151" gradientTransform="matrix(78.881 0 0 13.6864 68589.0703 -552.5803)">
	<stop  offset="0.2463" style="stop-color:#000000"/>
	<stop  offset="0.5616" style="stop-color:#FFD400"/>
	<stop  offset="0.8768" style="stop-color:#FF0000"/>
</linearGradient>
<path fill="url(#SVGID_12_)" d="M34.56,69.607c0.004,0.001,0.008,0.001,0.012,0.001c-0.674-0.916-1.448-1.893-2.321-2.885
	c-0.167-0.073-0.333-0.152-0.497-0.237c-5.591-0.851-10.277,0.08-10.277,0.08l0.285-0.532c-0.634,0.034-1.133,0.071-1.493,0.112
	c-0.865,0.101-2.089,0.267-3.67,0.504c-0.675,0.104-1.263,0.199-1.763,0.286c2.759-0.241,6.599-0.261,10.624,0.682
	c-0.023-0.071-0.042-0.146-0.042-0.226c0-0.199,0.066-0.367,0.208-0.504c0.137-0.139,0.306-0.205,0.501-0.205
	c0.198,0,0.366,0.066,0.504,0.205c0.139,0.137,0.206,0.305,0.206,0.504c0,0.194-0.067,0.364-0.206,0.502
	c-0.008,0.008-0.018,0.01-0.026,0.018c1.312,0.367,2.632,0.837,3.933,1.446c0.364,0.021,0.761,0.043,1.212,0.071
	C33.328,69.509,34.263,69.564,34.56,69.607z M29.379,68.073c-0.137,0.139-0.304,0.204-0.499,0.204c-0.198,0-0.366-0.065-0.504-0.204
	c-0.139-0.142-0.206-0.308-0.206-0.505s0.067-0.355,0.206-0.471c0.138-0.14,0.306-0.209,0.504-0.209
	c0.195,0,0.362,0.068,0.499,0.209c0.141,0.116,0.21,0.274,0.21,0.471C29.589,67.766,29.52,67.932,29.379,68.073z"/>
<linearGradient id="SVGID_13_" gradientUnits="userSpaceOnUse" x1="21.2852" y1="18.5" x2="38.9351" y2="8.3322" gradientTransform="matrix(0.992 -0.1265 0.1265 0.992 -7.8611 3.4066)">
	<stop  offset="0.3505" style="stop-color:#FFE3A0"/>
	<stop  offset="1" style="stop-color:#00FFFF"/>
</linearGradient>
<path fill="url(#SVGID_13_)" d="M34.56,13.482c0.004,0.001,0.008,0.001,0.012,0.001c-0.674-0.916-1.448-1.893-2.321-2.885
	c-0.167-0.073-0.333-0.152-0.497-0.237c-5.591-0.851-10.277,0.08-10.277,0.08l0.285-0.532c-0.634,0.034-1.133,0.071-1.493,0.112
	c-0.865,0.101-2.089,0.267-3.67,0.504c-0.675,0.104-1.263,0.199-1.763,0.286c2.759-0.241,6.599-0.261,10.624,0.682
	c-0.023-0.071-0.042-0.146-0.042-0.226c0-0.199,0.066-0.367,0.208-0.504c0.137-0.139,0.306-0.205,0.501-0.205
	c0.198,0,0.366,0.066,0.504,0.205c0.139,0.137,0.206,0.305,0.206,0.504c0,0.194-0.067,0.364-0.206,0.502
	c-0.008,0.008-0.018,0.01-0.026,0.018c1.312,0.367,2.632,0.837,3.933,1.446c0.364,0.021,0.761,0.043,1.212,0.071
	C33.328,13.384,34.263,13.439,34.56,13.482z M29.379,11.948c-0.137,0.139-0.304,0.204-0.499,0.204c-0.198,0-0.366-0.065-0.504-0.204
	c-0.139-0.142-0.206-0.308-0.206-0.505s0.067-0.355,0.206-0.471c0.138-0.14,0.306-0.209,0.504-0.209
	c0.195,0,0.362,0.068,0.499,0.209c0.141,0.116,0.21,0.274,0.21,0.471C29.589,11.641,29.52,11.807,29.379,11.948z"/>
<linearGradient id="SVGID_14_" gradientUnits="userSpaceOnUse" x1="-869.6689" y1="46.209" x2="-868.6786" y2="45.2026" gradientTransform="matrix(78.881 0 0 13.6864 68589.0703 -552.5803)">
	<stop  offset="0.2463" style="stop-color:#000000"/>
	<stop  offset="0.5616" style="stop-color:#FFD400"/>
	<stop  offset="0.8768" style="stop-color:#FF0000"/>
</linearGradient>
<path fill="url(#SVGID_14_)" d="M34.558,70.613c-0.432-0.215-0.679-0.332-0.739-0.355c-0.084-0.033-0.734-0.104-1.938-0.21
	c0.545,0.3,1.083,0.627,1.615,0.981c0.098-0.053,0.204-0.088,0.325-0.088c0.179,0,0.333,0.069,0.475,0.207
	c0.138,0.119,0.205,0.278,0.205,0.474c0,0.039-0.015,0.068-0.02,0.104c0.681,0.509,1.344,1.069,1.988,1.682
	c0.237,0.029,0.454,0.056,0.656,0.08c-0.377-0.649-0.894-1.492-1.548-2.458C35.294,70.932,34.959,70.796,34.558,70.613z"/>
<linearGradient id="SVGID_15_" gradientUnits="userSpaceOnUse" x1="25.6367" y1="26.0469" x2="43.2833" y2="15.881" gradientTransform="matrix(0.992 -0.1265 0.1265 0.992 -7.8611 3.4066)">
	<stop  offset="0.3505" style="stop-color:#FFE3A0"/>
	<stop  offset="1" style="stop-color:#00FFFF"/>
</linearGradient>
<path fill="url(#SVGID_15_)" d="M34.558,14.488c-0.432-0.215-0.679-0.332-0.739-0.355c-0.084-0.033-0.734-0.104-1.938-0.21
	c0.545,0.3,1.083,0.627,1.615,0.981c0.098-0.053,0.204-0.088,0.325-0.088c0.179,0,0.333,0.069,0.475,0.207
	c0.138,0.119,0.205,0.278,0.205,0.474c0,0.039-0.015,0.068-0.02,0.104c0.681,0.509,1.344,1.069,1.988,1.682
	c0.237,0.029,0.454,0.056,0.656,0.08c-0.377-0.649-0.894-1.492-1.548-2.458C35.294,14.807,34.959,14.671,34.558,14.488z"/>
<linearGradient id="SVGID_16_" gradientUnits="userSpaceOnUse" x1="22.3169" y1="68.7646" x2="37.9614" y2="59.7521" gradientTransform="matrix(0.9989 -0.0469 0.0469 0.9989 -3.0538 1.6081)">
	<stop  offset="0.1781" style="stop-color:#FFE3A0"/>
	<stop  offset="1" style="stop-color:#00FFFF"/>
</linearGradient>
<path fill="url(#SVGID_16_)" d="M32.084,66.538c1.167,0.19,2.369,0.46,3.573,0.833c0.123-0.002,0.239-0.003,0.382-0.01
	c0.296,0,0.462,0.011,0.504,0.031c0.08,0.1,0.426,0.059,1.034-0.121c0.515-0.14,1.035-0.313,1.57-0.529
	c0.223-0.086,0.406-0.148,0.563-0.197c-3.154-3.583-8.078-7.655-14.149-7.616l-0.753,1.408
	C27.694,62.103,30.128,64.343,32.084,66.538z"/>
<linearGradient id="SVGID_17_" gradientUnits="userSpaceOnUse" x1="-869.7173" y1="46.1611" x2="-868.727" y2="45.1547" gradientTransform="matrix(78.881 0 0 13.6864 68589.0703 -552.5803)">
	<stop  offset="0.2463" style="stop-color:#000000"/>
	<stop  offset="0.5616" style="stop-color:#FFD400"/>
	<stop  offset="0.8768" style="stop-color:#FF0000"/>
</linearGradient>
<path fill="url(#SVGID_17_)" d="M37.577,67.271c-0.608,0.18-0.954,0.221-1.034,0.121c-0.042-0.021-0.208-0.031-0.504-0.031
	c-0.143,0.007-0.259,0.008-0.382,0.01c2.759,0.854,5.529,2.25,7.904,4.479c0,0-1.384-2.503-3.851-5.305
	c-0.157,0.049-0.34,0.111-0.563,0.197C38.612,66.958,38.092,67.132,37.577,67.271z"/>
<linearGradient id="SVGID_18_" gradientUnits="userSpaceOnUse" x1="29.7134" y1="20.9766" x2="45.3587" y2="11.9635" gradientTransform="matrix(0.9989 -0.0469 0.0469 0.9989 -3.0538 1.6081)">
	<stop  offset="0.1781" style="stop-color:#FFE3A0"/>
	<stop  offset="1" style="stop-color:#00FFFF"/>
</linearGradient>
<path fill="url(#SVGID_18_)" d="M37.577,11.146c-0.608,0.18-0.954,0.221-1.034,0.121c-0.042-0.021-0.208-0.031-0.504-0.031
	c-0.143,0.007-0.259,0.008-0.382,0.01c2.759,0.854,5.529,2.25,7.904,4.479c0,0-1.384-2.503-3.851-5.305
	c-0.157,0.049-0.34,0.111-0.563,0.197C38.612,10.833,38.092,11.007,37.577,11.146z"/>
<linearGradient id="SVGID_19_" gradientUnits="userSpaceOnUse" x1="13.3921" y1="72.7988" x2="31.0424" y2="62.6308" gradientTransform="matrix(0.992 -0.1265 0.1265 0.992 -7.8611 3.4066)">
	<stop  offset="0.3505" style="stop-color:#FFE3A0"/>
	<stop  offset="1" style="stop-color:#00FFFF"/>
</linearGradient>
<path fill="url(#SVGID_19_)" d="M23.997,65.941c1.815-0.041,3.166-0.041,4.053,0c0.751,0.02,1.569,0.107,2.456,0.266
	c0.437,0.08,0.8,0.148,1.096,0.206c0.05,0.027,0.102,0.047,0.152,0.073c0.11,0.017,0.22,0.033,0.33,0.052
	c-1.956-2.195-4.39-4.436-7.276-6.201l-3.046,5.697C22.378,66.001,23.122,65.97,23.997,65.941z"/>
<linearGradient id="SVGID_20_" gradientUnits="userSpaceOnUse" x1="21.4839" y1="67.3184" x2="37.1284" y2="58.3059" gradientTransform="matrix(0.9989 -0.0469 0.0469 0.9989 -3.0538 1.6081)">
	<stop  offset="0.1781" style="stop-color:#FFE3A0"/>
	<stop  offset="1" style="stop-color:#00FFFF"/>
</linearGradient>
<path fill="url(#SVGID_20_)" d="M23.997,65.941c1.815-0.041,3.166-0.041,4.053,0c0.751,0.02,1.569,0.107,2.456,0.266
	c0.437,0.08,0.8,0.148,1.096,0.206c0.05,0.027,0.102,0.047,0.152,0.073c0.11,0.017,0.22,0.033,0.33,0.052
	c-1.956-2.195-4.39-4.436-7.276-6.201l-3.046,5.697C22.378,66.001,23.122,65.97,23.997,65.941z"/>
<linearGradient id="SVGID_21_" gradientUnits="userSpaceOnUse" x1="-869.9204" y1="45.9619" x2="-868.9301" y2="44.9555" gradientTransform="matrix(78.881 0 0 13.6864 68589.0703 -552.5803)">
	<stop  offset="0.2463" style="stop-color:#000000"/>
	<stop  offset="0.5616" style="stop-color:#FFD400"/>
	<stop  offset="0.8768" style="stop-color:#FF0000"/>
</linearGradient>
<path fill="url(#SVGID_21_)" d="M30.506,66.207c-0.887-0.158-1.705-0.246-2.456-0.266c-0.887-0.041-2.238-0.041-4.053,0
	c-0.875,0.028-1.619,0.06-2.236,0.093l-0.285,0.532c0,0,4.687-0.931,10.277-0.08c-0.05-0.026-0.102-0.046-0.152-0.073
	C31.306,66.355,30.943,66.287,30.506,66.207z"/>
<linearGradient id="SVGID_22_" gradientUnits="userSpaceOnUse" x1="21.1206" y1="18.1689" x2="38.7719" y2="8.0003" gradientTransform="matrix(0.992 -0.1265 0.1265 0.992 -7.8611 3.4066)">
	<stop  offset="0.3505" style="stop-color:#FFE3A0"/>
	<stop  offset="1" style="stop-color:#00FFFF"/>
</linearGradient>
<path fill="url(#SVGID_22_)" d="M30.52,10.061c-0.887-0.158-1.705-0.246-2.456-0.266c-0.887-0.041-2.238-0.041-4.053,0
	c-0.875,0.028-1.619,0.06-2.236,0.093L21.49,10.42c0,0,4.687-0.931,10.277-0.08c-0.05-0.026-0.102-0.046-0.152-0.073
	C31.32,10.209,30.957,10.141,30.52,10.061z"/>
<g>
	<g>
		<g>
			<g>
				<g>
					<g>
						<linearGradient id="SVGID_23_" gradientUnits="userSpaceOnUse" x1="78.6909" y1="8.5313" x2="1.3662" y2="21.9472">
							<stop  offset="0" style="stop-color:#BB925B"/>
							<stop  offset="0.3429" style="stop-color:#FFF6DA"/>
							<stop  offset="0.6571" style="stop-color:#FFF1B1"/>
							<stop  offset="1" style="stop-color:#B38B54"/>
						</linearGradient>
						<path fill="url(#SVGID_23_)" d="M24.477,10.765c-0.04,0.146-0.06,0.301-0.06,0.461c0,0.406,0.13,0.774,0.368,1.064
							c-0.389,0.026-0.812,0.057-1.266,0.091c-1.308,0.084-2.923,0.31-4.788,0.668c-1.717,0.31-3.292,0.643-4.69,0.993
							c-1.102,0.285-2.629,0.827-4.554,1.615c-0.478,0.205-0.978,0.423-1.5,0.651c0.02-0.104,0.029-0.212,0.029-0.321
							c0-0.438-0.17-0.843-0.5-1.179c-0.253-0.254-0.561-0.415-0.903-0.475c0.623-0.244,1.484-0.556,2.678-0.952
							c1.642-0.567,2.996-1,4.025-1.286c0.511-0.143,1.667-0.353,3.43-0.623c1.483-0.223,2.741-0.396,3.634-0.499
							c0.667-0.075,1.895-0.143,3.639-0.199C24.175,10.771,24.328,10.768,24.477,10.765 M30.556,11.066
							c0.266,0.049,0.501,0.094,0.707,0.134c1.135,0.596,2.366,0.93,3.629,0.99c0.15,0.013,0.33,0.02,0.541,0.02
							c0.191,0,0.41-0.005,0.607-0.016c0.08,0,0.147,0,0.202,0.002c0.135,0.051,0.295,0.083,0.487,0.083
							c0.279,0,0.628-0.066,1.11-0.209c0.568-0.153,1.12-0.339,1.667-0.561c0.539-0.206,0.702-0.233,0.711-0.235
							c0.03-0.002,0.053-0.005,0.083-0.011c0.024,0,0.121,0.006,0.35,0.084c0.141,0.044,0.251,0.11,0.346,0.206
							c0.065,0.083,0.138,0.183,0.234,0.314c0.046,0.059,0.104,0.146,0.174,0.261c0.01,0.017,0.021,0.033,0.032,0.049
							c0.199,0.287,0.603,0.629,1.387,0.629c0.202,0,0.422-0.021,0.636-0.06c0.305-0.042,0.594-0.102,0.859-0.176
							c0.501-0.049,1.004-0.308,1.509-0.785c0.025-0.025,0.051-0.051,0.075-0.076c0.049,0.013,0.102,0.026,0.157,0.04
							c0.021,0.006,0.044,0.011,0.066,0.016l0.398,0.074c0.487,0.092,0.987,0.185,1.494,0.276c0.227,0.043,0.464,0.084,0.698,0.121
							c0.736,0.124,1.475,0.231,2.214,0.321c-0.097,0.112-0.169,0.247-0.208,0.398c-0.117,0.45,0.092,0.921,0.503,1.137l0.563,0.295
							c0.136,0.071,0.285,0.109,0.438,0.114l14.41,0.385c0.009,0,0.018,0,0.026,0c0.42,0,0.797-0.263,0.94-0.659
							c0.065-0.181,0.076-0.371,0.038-0.55c0.552,0.214,1.107,0.39,1.664,0.529c0.692,0.166,1.513,0.289,2.539,0.379
							c0.342,0.02,0.707,0.036,1.098,0.054l0.136,0.006c0.145,0.006,0.296,0.009,0.452,0.009c0.943,0,2.12-0.108,3.485-0.319
							c-0.279,0.323-0.535,0.609-0.771,0.863c-0.434,0.485-1.191,0.983-2.256,1.483c-0.808,0.383-1.588,0.678-2.319,0.875
							l-0.06,0.012c-0.059,0.012-0.118,0.025-0.178,0.035c-0.029,0.004-0.058,0.012-0.086,0.02
							c-0.261,0.068-0.772,0.152-1.729,0.152c-0.365,0-0.773-0.014-1.223-0.037c-1.175-0.055-2.295-0.162-3.314-0.314
							c-0.968-0.16-5-0.639-8.208-1.01l-6.896-0.828c-0.04-0.005-0.08-0.007-0.12-0.007c-0.333,0-0.64,0.166-0.824,0.435
							l-0.749,0.06c-0.207-0.205-0.479-0.346-0.878-0.457c-0.018-0.005-0.036-0.01-0.055-0.014
							c-0.168-0.037-0.331-0.056-0.485-0.056c-0.119,0-0.236,0.011-0.349,0.033c-0.237-0.136-0.476-0.19-0.597-0.219
							c-0.066-0.014-0.182-0.025-0.249-0.025c-0.269,0-0.548,0.08-0.904,0.261c-0.016,0.008-0.032,0.017-0.048,0.025
							c-0.327,0.188-0.688,0.423-0.829,0.836c-0.048,0.134-0.074,0.283-0.083,0.474c-0.014,0.025-0.036,0.059-0.072,0.104
							c-0.013,0.016-0.025,0.031-0.037,0.049c-0.015,0.02-0.102,0.125-0.396,0.266c-0.279,0.123-0.457,0.166-0.554,0.18
							c-0.036-0.004-0.06-0.008-0.08-0.016c-0.173-0.127-0.379-0.191-0.587-0.191c-0.16,0-0.32,0.039-0.467,0.115
							c-0.041-0.072-0.08-0.143-0.118-0.209c-0.015-0.023-0.029-0.047-0.045-0.07c-0.104-0.15-0.421-0.605-1-0.605l-0.573,0.002
							c-0.418-0.021-0.751-0.039-0.999-0.06c-0.022-0.002-0.059-0.004-0.081-0.004c-0.121-0.002-0.677-0.049-3.041-0.346
							l-0.374-0.048c0.03-0.072,0.054-0.146,0.073-0.224c0.28,0.072,0.532,0.137,0.756,0.193c0.021,0.005,0.043,0.01,0.065,0.014
							c0.167,0.029,0.316,0.045,0.446,0.045c0.376,0,0.721-0.212,0.892-0.547c0.17-0.336,0.138-0.739-0.084-1.043l-0.208-0.285
							c-0.021-0.04-0.06-0.131-0.1-0.313c-0.021-0.084-0.031-0.158-0.031-0.234c0-0.341-0.102-0.621-0.303-0.833
							c-0.189-0.199-0.452-0.313-0.726-0.313h-0.062c-0.482,0-0.945-0.035-1.397-0.108c-0.315-0.045-1.101-0.095-2.89-0.186
							c-0.526-0.032-0.995-0.06-1.408-0.082c0.123-0.237,0.186-0.501,0.186-0.78C30.589,11.287,30.578,11.174,30.556,11.066
							 M64.167,11.855c0.251,0.144,0.606,0.361,1.101,0.671c0.006,0.005,0.013,0.009,0.02,0.013l-4.184-0.103
							c0.102-0.016,0.203-0.031,0.306-0.048C62.502,12.214,63.411,12.039,64.167,11.855 M27.332,14.574
							c0.401,0,0.68,0.004,0.829,0.013c0.5,0.033,1.023,0.071,1.567,0.114c-0.049,0.157-0.075,0.321-0.075,0.488
							c0,0.199,0.034,0.391,0.101,0.57c-0.923,0.046-2.089,0.113-3.491,0.203c-3.593,0.254-5.528,0.422-6.303,0.547
							c-0.696,0.135-1.901,0.451-3.584,0.941c-1.323,0.393-2.426,0.736-3.336,1.035c-0.094,0.027-0.197,0.059-0.308,0.096
							c0.01-0.074,0.015-0.148,0.015-0.227c0-0.455-0.195-0.881-0.55-1.201c-0.079-0.076-0.163-0.145-0.25-0.203
							c0.802-0.285,1.751-0.587,2.875-0.919c1.273-0.346,3.045-0.685,5.25-1.004c0.781-0.1,1.535-0.187,2.283-0.269
							c0.789-0.104,0.982-0.112,1.069-0.113c0.41-0.02,1.16-0.035,2.241-0.058C26.351,14.579,26.906,14.574,27.332,14.574
							 M4.841,15.175c-0.096,0.166-0.161,0.345-0.193,0.531c-0.107-0.091-0.221-0.166-0.341-0.226
							C4.484,15.377,4.662,15.276,4.841,15.175 M5.234,17.301c0.074,0.063,0.152,0.117,0.233,0.166
							c-0.111,0.063-0.228,0.129-0.349,0.201C5.171,17.551,5.21,17.428,5.234,17.301 M2.866,18.52
							c0.212,0.098,0.445,0.148,0.691,0.152c-0.101,0.07-0.208,0.145-0.322,0.225C3.173,18.842,3.058,18.73,2.866,18.52
							 M7.095,19.078c-0.01,0.072-0.015,0.146-0.015,0.223c0,0.475,0.176,0.895,0.493,1.203c0.064,0.066,0.131,0.125,0.202,0.178
							C7.409,20.859,7.14,21,6.962,21.105c-0.399,0.246-0.669,0.422-0.86,0.568c-0.254,0.197-0.437,0.393-0.576,0.625
							C5.447,22.234,5.183,22,4.597,21.305c-0.148-0.182-0.28-0.352-0.396-0.508c0.275-0.18,0.659-0.432,1.154-0.758
							C5.768,19.76,6.356,19.436,7.095,19.078 M26.372,9.745c-0.676,0-1.467,0.01-2.375,0.03C22.224,9.833,20.978,9.9,20.268,9.98
							c-0.865,0.101-2.089,0.267-3.67,0.504c-1.812,0.278-2.994,0.494-3.55,0.649c-1.005,0.279-2.367,0.711-4.083,1.304
							c-2.189,0.728-3.598,1.28-4.23,1.655c-0.473,0.257-0.956,0.535-1.449,0.828c-1.006,0.613-1.589,0.996-1.746,1.154
							c-0.117,0.135-0.296,0.352-0.532,0.652c-0.199,0.254-0.326,0.402-0.384,0.441c-0.08,0.076-0.08,0.186,0,0.324
							c0.079,0.121,0.224,0.295,0.441,0.533c0.142,0.135,0.445,0.471,0.918,1.006c0.415,0.473,0.698,0.738,0.858,0.799l0.061,0.029
							c0.04,0.039,0.087,0.066,0.146,0.088c0.09,0.047,0.171,0.068,0.243,0.068c0.053,0,0.1-0.012,0.142-0.037
							c0.533-0.377,0.949-0.66,1.242-0.859c0.79-0.512,1.421-0.879,1.896-1.094c1.205-0.533,2.307-1.018,3.312-1.449
							c1.876-0.768,3.347-1.291,4.41-1.566c1.341-0.336,2.881-0.664,4.616-0.977c1.871-0.359,3.431-0.574,4.675-0.654
							c1.339-0.1,2.377-0.168,3.105-0.205c0.752-0.043,1.384-0.061,1.896-0.061c0.491,0,1.549,0.049,3.165,0.148
							c1.579,0.08,2.514,0.136,2.811,0.178c0.495,0.08,1.007,0.118,1.537,0.118h0.062c0.018,0.019,0.029,0.067,0.029,0.146
							c0,0.162,0.021,0.318,0.06,0.476c0.057,0.257,0.136,0.464,0.233,0.62l0.238,0.326c-0.06,0-0.149-0.008-0.269-0.029
							c-0.235-0.059-0.501-0.127-0.797-0.204c-0.296-0.099-0.661-0.249-1.095-0.446c-0.432-0.215-0.679-0.332-0.739-0.355
							c-0.098-0.039-0.957-0.127-2.572-0.264c-1.126-0.102-2.132-0.18-3.021-0.238c-0.167-0.01-0.465-0.015-0.895-0.015
							c-0.429,0-0.989,0.005-1.681,0.015c-1.1,0.022-1.86,0.039-2.274,0.059c-0.159,0-0.544,0.041-1.153,0.121
							c-0.732,0.08-1.492,0.167-2.279,0.268c-2.291,0.332-4.085,0.678-5.386,1.031c-1.344,0.396-2.466,0.76-3.376,1.096
							c-0.586,0.236-1.111,0.464-1.567,0.681c-0.117,0.061-0.381,0.189-0.797,0.385c-0.591,0.26-1.018,0.434-1.271,0.535
							c-1.224,0.551-2.141,1.031-2.754,1.447c-0.809,0.533-1.32,0.867-1.537,1.006c-0.234,0.178-0.354,0.314-0.354,0.412
							c-0.02,0.045,0.067,0.189,0.267,0.445c0.174,0.254,0.392,0.541,0.65,0.859c0.648,0.77,1.075,1.189,1.271,1.27
							c0.217,0.098,0.424,0.166,0.622,0.207c0.07,0.014,0.133,0.02,0.187,0.02c0.111,0,0.187-0.027,0.228-0.08
							c0.057-0.102,0.096-0.168,0.116-0.207c0.02-0.059,0.06-0.156,0.12-0.295c0.059-0.121,0.177-0.248,0.355-0.387
							c0.157-0.119,0.415-0.287,0.768-0.504c0.356-0.213,1.254-0.639,2.691-1.271c1.483-0.648,2.525-1.063,3.138-1.238
							c0.969-0.318,2.082-0.662,3.345-1.037c1.694-0.494,2.859-0.797,3.489-0.918c0.731-0.119,2.791-0.293,6.185-0.533
							c2.899-0.184,4.745-0.273,5.537-0.273c0.14,0,0.247,0.002,0.32,0.008c0.296,0.039,1.442,0.186,3.433,0.443
							c1.872,0.234,2.929,0.354,3.167,0.354c0.256,0.021,0.6,0.041,1.033,0.063c0.336,0,0.544,0,0.623,0
							c0.041,0,0.099,0.061,0.179,0.176c0.08,0.139,0.166,0.297,0.264,0.475c0.244,0.434,0.367,0.791,0.39,1.064
							c0.017,0.318-0.022,0.711-0.122,1.188c-0.097,0.492-0.217,0.818-0.353,0.979c-0.159,0.215-0.246,0.33-0.267,0.352
							c-0.019,0.059,0,0.117,0.059,0.178c0.023,0.023,0.056,0.035,0.098,0.035c0.069,0,0.165-0.031,0.289-0.096
							c0.191-0.098,0.344-0.205,0.441-0.322c0.176-0.18,0.345-0.408,0.504-0.68c0.216-0.357,0.334-0.684,0.354-0.98
							c0.043-0.316,0.051-0.582,0.03-0.799c-0.021-0.197-0.058-0.375-0.116-0.531l-0.119-0.268l0.028,0.031
							c0.039,0.016,0.08,0.041,0.119,0.059c0.157,0.08,0.345,0.117,0.562,0.117c0.256-0.021,0.563-0.109,0.916-0.266
							c0.377-0.18,0.644-0.375,0.803-0.596c0.16-0.195,0.254-0.381,0.295-0.563c0-0.154,0.01-0.264,0.031-0.32
							c0.019-0.061,0.145-0.16,0.383-0.296c0.202-0.102,0.353-0.153,0.454-0.153c0.018,0,0.033,0.002,0.048,0.005
							c0.336,0.078,0.484,0.195,0.443,0.355l-0.029,0.178l0.148-0.119c0.137-0.078,0.254-0.139,0.354-0.176
							c0.07-0.021,0.146-0.031,0.23-0.031c0.083,0,0.174,0.01,0.271,0.031c0.217,0.061,0.365,0.127,0.445,0.207
							c0.1,0.094,0.196,0.207,0.295,0.322l1.867-0.148l0.113-0.381l6.896,0.828c4.729,0.549,7.455,0.887,8.164,1.004
							c1.066,0.16,2.209,0.27,3.432,0.326c0.462,0.025,0.885,0.039,1.269,0.039c0.862,0,1.524-0.064,1.986-0.188
							c0.101-0.018,0.198-0.039,0.296-0.059c0.811-0.217,1.648-0.533,2.518-0.945c1.183-0.555,2.041-1.125,2.572-1.718
							c0.495-0.531,1.055-1.183,1.688-1.951c0.298-0.394,0.556-0.728,0.771-1.006c-0.652,0.139-1.4,0.266-2.246,0.385
							c-1.479,0.241-2.704,0.361-3.672,0.361c-0.143,0-0.28-0.003-0.412-0.008c-0.436-0.02-0.841-0.037-1.217-0.059
							c-0.904-0.08-1.693-0.193-2.363-0.354c-1.266-0.316-2.517-0.838-3.761-1.57c-0.53-0.334-0.935-0.58-1.212-0.735l-0.236-0.147
							c-0.808,0.217-1.834,0.422-3.074,0.619c-1.96,0.315-3.802,0.473-5.532,0.473c-0.432,0-0.857-0.01-1.275-0.029
							c-1.853-0.08-3.71-0.279-5.563-0.594c-0.235-0.037-0.463-0.076-0.68-0.117c-0.654-0.118-1.283-0.237-1.895-0.352
							c-0.477-0.123-0.732-0.182-0.768-0.182c-0.121,0.16-0.261,0.318-0.42,0.477c-0.354,0.334-0.678,0.502-0.976,0.502
							c-0.254,0.078-0.53,0.137-0.825,0.178c-0.189,0.033-0.355,0.05-0.498,0.05c-0.285,0-0.474-0.067-0.566-0.2
							c-0.096-0.156-0.176-0.273-0.238-0.354c-0.098-0.135-0.186-0.254-0.266-0.354c-0.219-0.237-0.483-0.403-0.799-0.504
							c-0.252-0.086-0.469-0.131-0.654-0.131c-0.063,0-0.122,0.005-0.177,0.016c-0.176,0.017-0.501,0.115-0.974,0.296
							c-0.535,0.217-1.055,0.391-1.57,0.529c-0.393,0.116-0.677,0.175-0.85,0.175c-0.095,0-0.156-0.018-0.185-0.053
							c-0.042-0.021-0.208-0.032-0.504-0.032c-0.227,0.011-0.43,0.016-0.607,0.016s-0.33-0.005-0.456-0.016
							c-1.205-0.059-2.327-0.373-3.374-0.947c-0.296-0.058-0.659-0.127-1.096-0.207c-0.887-0.158-1.705-0.246-2.456-0.265
							C27.606,9.754,27.047,9.745,26.372,9.745L26.372,9.745z M26.126,11.935c-0.195,0-0.364-0.069-0.501-0.208
							c-0.142-0.137-0.208-0.307-0.208-0.501c0-0.199,0.066-0.368,0.208-0.504c0.137-0.14,0.306-0.205,0.501-0.205
							c0.198,0,0.366,0.065,0.504,0.205c0.139,0.136,0.206,0.305,0.206,0.504c0,0.194-0.067,0.364-0.206,0.501
							C26.491,11.866,26.323,11.935,26.126,11.935L26.126,11.935z M28.88,12.111c-0.198,0-0.366-0.065-0.504-0.204
							c-0.139-0.142-0.206-0.309-0.206-0.505c0-0.198,0.067-0.356,0.206-0.472c0.138-0.139,0.306-0.208,0.504-0.208
							c0.195,0,0.362,0.067,0.499,0.208c0.141,0.117,0.21,0.275,0.21,0.472s-0.069,0.363-0.21,0.505
							C29.242,12.045,29.075,12.111,28.88,12.111L28.88,12.111z M66.661,13.887l-14.41-0.385l-0.563-0.295l14.561,0.354
							L66.661,13.887L66.661,13.887z M31.362,15.87c-0.194,0-0.362-0.068-0.501-0.207c-0.141-0.139-0.208-0.293-0.208-0.474
							c0-0.176,0.067-0.336,0.208-0.474c0.139-0.118,0.307-0.18,0.501-0.18c0.179,0,0.336,0.062,0.475,0.18
							c0.139,0.138,0.205,0.298,0.205,0.474c0,0.181-0.066,0.335-0.205,0.474C31.698,15.801,31.541,15.87,31.362,15.87L31.362,15.87
							z M33.821,16.133c-0.197,0-0.365-0.064-0.501-0.2c-0.142-0.122-0.208-0.279-0.208-0.478c0-0.197,0.066-0.356,0.208-0.475
							c0.136-0.137,0.304-0.207,0.501-0.207c0.179,0,0.333,0.07,0.475,0.207c0.138,0.119,0.205,0.279,0.205,0.475
							c0,0.199-0.067,0.356-0.205,0.478C34.154,16.069,34,16.133,33.821,16.133L33.821,16.133z M6.305,16.699
							c-0.177,0-0.337-0.07-0.473-0.207c-0.137-0.141-0.208-0.309-0.208-0.505c0-0.177,0.071-0.334,0.208-0.473
							c0.136-0.138,0.296-0.207,0.473-0.207c0.198,0,0.366,0.069,0.503,0.207c0.136,0.139,0.208,0.296,0.208,0.473
							c0,0.196-0.072,0.364-0.208,0.505C6.671,16.629,6.503,16.699,6.305,16.699L6.305,16.699z M3.583,17.672
							c-0.198,0-0.366-0.068-0.505-0.207c-0.118-0.137-0.176-0.295-0.176-0.471c0-0.201,0.058-0.355,0.176-0.477
							c0.139-0.138,0.307-0.207,0.505-0.207c0.175,0,0.332,0.068,0.472,0.207c0.138,0.123,0.207,0.277,0.207,0.477
							c0,0.176-0.069,0.334-0.207,0.471C3.915,17.604,3.758,17.672,3.583,17.672L3.583,17.672z M11.01,19.064
							c-0.197,0-0.368-0.066-0.504-0.207c-0.159-0.141-0.237-0.307-0.237-0.502c0-0.176,0.078-0.336,0.237-0.473
							c0.136-0.141,0.307-0.211,0.504-0.211c0.197,0,0.364,0.07,0.501,0.211c0.159,0.137,0.235,0.297,0.235,0.473
							c0,0.195-0.076,0.361-0.235,0.502C11.374,18.998,11.207,19.064,11.01,19.064L11.01,19.064z M8.79,20.014
							c-0.197,0-0.365-0.068-0.503-0.209c-0.14-0.137-0.207-0.307-0.207-0.504c0-0.178,0.067-0.336,0.207-0.473
							c0.137-0.137,0.306-0.207,0.503-0.207c0.197,0,0.365,0.07,0.504,0.207c0.138,0.137,0.205,0.295,0.205,0.473
							c0,0.197-0.067,0.367-0.205,0.504C9.155,19.945,8.987,20.014,8.79,20.014L8.79,20.014z M79.446,12.909h0.005H79.446z"/>
					</g>
				</g>
			</g>
		</g>
	</g>
</g>
</svg>
