<?xml version="1.0" encoding="utf-8"?>
<!-- Generator: Adobe Illustrator 24.2.3, SVG Export Plug-In . SVG Version: 6.00 Build 0)  -->
<svg version="1.1" id="图层_1" xmlns="http://www.w3.org/2000/svg" xmlns:xlink="http://www.w3.org/1999/xlink" x="0px" y="0px"
	 viewBox="0 0 30.9 29.7" style="enable-background:new 0 0 30.9 29.7;" xml:space="preserve">
<style type="text/css">
	.st0{fill-rule:evenodd;clip-rule:evenodd;fill:url(#SVGID_1_);}
	.st1{fill:url(#SVGID_2_);}
</style>
<g id="Selected_Items">
	<g>
		<g id="Selected_Items_175_">
			
				<image style="overflow:visible;enable-background:new    ;" width="28" height="28" xlink:href="F92E9580.png"  transform="matrix(1 0 0 1 1.875 0.4376)">
			</image>
			<linearGradient id="SVGID_1_" gradientUnits="userSpaceOnUse" x1="0.6231" y1="18.2857" x2="22.419" y2="18.2857">
				<stop  offset="0" style="stop-color:#FFD93F"/>
				<stop  offset="1" style="stop-color:#FF310E"/>
			</linearGradient>
			<path class="st0" d="M20,17.5l-0.5-1.7L18.2,17L17,17l-1.3,1.3L15.4,18l-1.3,1.3l0.3,0.3L13,20.9l-0.3-0.3L11.5,22l0.3,0.3
				l-1.4,1.4l-0.3-0.3l-1.3,1.3l0.3,0.3l-1.3,1.3l-0.5,1.8l-0.9,0.9c-0.3,0.3-0.5,0.3-0.8,0L0.8,24c-0.3-0.3-0.3-0.5,0-0.8l0.9-0.9
				l1.7-0.5l1.3-1.3L5,20.9l1.3-1.3L6,19.3l1.4-1.4l0.3,0.3L9,16.9l-0.3-0.3l1.4-1.4l0.3,0.3l1.3-1.3l-0.3-0.3l1.3-1.3l0-1.2
				l1.7-1.7c0.3-0.3,0.5-0.3,0.8,0l0.4,0.4l1.5,0.1l1.1-1.1c-0.4-0.5-0.4-0.9,0-1.3c0.2-0.2,0.5-0.3,0.7-0.2c0.1,0,0.4,0.2,0.6,0.5
				l3,3l-1.5,6.6l-8.6,8.6l-1.9-0.7c-0.3-0.1-0.4-0.3-0.3-0.5c0.1-0.3,0.3-0.4,0.6-0.4c0.3,0,0.6,0.1,1.1,0.2l0.6,0.2L20,17.5z"/>
		</g>
	</g>
	<linearGradient id="SVGID_2_" gradientUnits="userSpaceOnUse" x1="19.78" y1="23.6296" x2="30.253" y2="23.6296">
		<stop  offset="0" style="stop-color:#FFD93F"/>
		<stop  offset="1" style="stop-color:#FF310E"/>
	</linearGradient>
	<polygon class="st1" points="30.3,22.3 26.3,22.3 26.3,18.2 23.7,18.2 23.7,22.3 19.8,22.3 19.8,24.9 23.7,24.9 23.7,29 26.3,29 
		26.3,24.9 30.3,24.9 	"/>
</g>
<g id="guides">
</g>
</svg>
