<?xml version="1.0" encoding="utf-8"?>
<!-- Generator: Adobe Illustrator 16.0.0, SVG Export Plug-In . SVG Version: 6.00 Build 0)  -->
<!DOCTYPE svg PUBLIC "-//W3C//DTD SVG 1.1//EN" "http://www.w3.org/Graphics/SVG/1.1/DTD/svg11.dtd">
<svg version="1.1" id="图层_1" xmlns="http://www.w3.org/2000/svg" xmlns:xlink="http://www.w3.org/1999/xlink" x="0px" y="0px"
	 width="31.971px" height="37.588px" viewBox="0 0 31.971 37.588" enable-background="new 0 0 31.971 37.588" xml:space="preserve">
<rect x="0.012" fill="none" width="31.971" height="37.588"/>
<path fill="#B38B54" d="M24.861,13.226c0.024-0.316,0.021-0.639,0.168-0.933c0.707-0.06,1.418-0.063,2.124-0.153
	c0.112-0.016,0.23-0.002,0.339-0.002c0.087,0.141-0.029,0.172-0.102,0.198c-0.721,0.28-1.443,0.554-2.167,0.831
	C25.106,13.212,24.986,13.228,24.861,13.226z"/>
<g>
	<linearGradient id="SVGID_1_" gradientUnits="userSpaceOnUse" x1="3.2581" y1="33.1504" x2="30.5789" y2="10.2255">
		<stop  offset="0.2611" style="stop-color:#000000"/>
		<stop  offset="0.5567" style="stop-color:#FFD400"/>
		<stop  offset="0.8522" style="stop-color:#FF0000"/>
	</linearGradient>
	<path fill="url(#SVGID_1_)" d="M29.2,12.312c-0.029-0.314-0.237-0.563-0.428-0.809c-0.554-0.715-1.106-1.431-1.658-2.148
		c-0.418-0.543-0.963-0.853-1.647-0.92c-0.037-0.004-0.075-0.007-0.104-0.021c-0.031-0.016-0.057-0.044-0.104-0.004
		c0.186,0.589,0.054,1.18-0.002,1.779c-0.05,0.523-0.145,1.041-0.178,1.565c-0.012,0.177-0.083,0.349-0.046,0.531
		c0.708-0.06,1.419-0.063,2.124-0.154c0.112-0.015,0.232-0.002,0.339-0.002c0.086,0.142-0.032,0.172-0.102,0.199
		c-0.722,0.28-1.444,0.554-2.168,0.832c-0.116,0.046-0.236,0.06-0.361,0.058c-0.1,0.266-0.095,0.553-0.161,0.825
		c-0.054,0.212-0.085,0.429-0.165,0.634c0.155-0.039,0.224,0.096,0.314,0.17c0.325,0.262,0.641,0.538,0.957,0.81
		c0.057,0.048,0.104,0.102,0.063,0.231c-0.502-0.128-1.01-0.256-1.522-0.385c-0.406,0.628-0.863,1.214-1.411,1.73
		c-0.282,0.267-0.61,0.238-0.949,0.192c-0.401-0.054-0.797-0.067-1.177,0.089c-0.115,0.411-0.053,0.826-0.082,1.236
		c-0.056,0.796-0.042,1.598-0.119,2.391c-0.042,0.416-0.234,0.82-0.375,1.225c-0.266,0.759-0.538,1.515-0.813,2.27
		c-0.024,0.07-0.047,0.192-0.208,0.133c-0.015-0.226,0.04-0.467,0.064-0.695c0.046-0.412,0.101-0.825,0.154-1.237
		c0.047-0.358,0.066-0.721,0.146-1.076c0.037-0.161,0.024-0.331-0.063-0.495c-0.321-0.613-0.682-1.203-1.036-1.798
		c-0.067-0.11-0.138-0.224-0.152-0.36c-0.387-0.108-0.782-0.075-1.176-0.073c-0.658,0.005-1.313-0.074-1.971-0.066
		c-0.274,0.003-0.525-0.079-0.757-0.323c-0.787-0.821-1.709-1.472-2.765-1.92c-0.273-0.117-0.533-0.267-0.828-0.414
		c-0.962,0.785-1.934,1.582-2.946,2.409c-0.053-0.302,0.13-0.442,0.223-0.604c0.28-0.495,0.59-0.974,0.9-1.452
		c0.052-0.08,0.037-0.152,0.047-0.229c0.005-0.096-0.021-0.199,0.063-0.277c-0.147-0.635-0.296-1.27-0.442-1.906
		c-0.041-0.179-0.123-0.348-0.138-0.54c0.367-0.375,0.805-0.67,1.2-1.021c0.356-0.319,0.74-0.609,1.112-0.912
		c0.455-0.37,0.926-0.723,1.36-1.117c0.37-0.336,0.86-0.555,1.054-1.073c0.115-0.308,0.175-0.628,0.24-0.946
		c0.112-0.533,0.074-1.084,0.164-1.621c0.034-0.209-0.054-0.405-0.061-0.605c-0.021-0.014-0.032-0.023-0.045-0.034
		c-0.448-0.349-0.872-0.256-1.351-0.017c-0.772,0.384-1.579,0.695-2.426,1.063c0.43,0.184,0.858,0.194,1.308,0.362
		c-0.484,0-0.91,0.022-1.331-0.005c-0.549-0.037-1.063,0.061-1.556,0.29C7.106,8.586,5.97,9.028,4.868,9.54
		c-0.514,0.238-0.791,0.591-0.902,1.107c-0.084,0.391-0.146,0.785-0.176,1.185c-0.117,1.606-0.042,3.214-0.043,4.821
		c-0.001,0.775-0.147,1.519-0.309,2.268c-0.086,0.396-0.145,0.803-0.197,1.206c-0.041,0.325,0.138,0.507,0.353,0.671
		c0.086,0.064,0.168,0.133,0.245,0.206c0.468,0.45,0.923,0.913,1.405,1.347c1.758,1.573,3.375,3.289,5.043,4.955
		c0.332,0.327,0.697,0.645,0.937,1.051c0.317,0.543,0.492,1.148,0.649,1.752c0.14,0.537,0.23,1.09,0.327,1.638
		c0.021,0.124-0.001,0.28-0.062,0.389c-0.173,0.323-0.159,0.679-0.188,1.015c-0.03,0.348-0.092,0.694-0.068,1.048
		c0.033,0.467-0.084,0.93-0.056,1.399c5.048,0,10.1,0,15.15,0c0-1.847,0.008-3.691-0.005-5.545c-0.004-0.461,0.159-0.85,0.39-1.222
		c0.126-0.202,0.25-0.407,0.41-0.587c0.237-0.26,0.296-0.596,0.346-0.926c0.098-0.631,0.19-1.264,0.27-1.896
		c0.052-0.425,0.063-0.854,0.117-1.279c0.062-0.494,0.066-0.994,0.152-1.484c0.036-0.21,0.024-0.428,0.051-0.643
		c0.064-0.521,0.074-1.053,0.121-1.578c0.063-0.701,0.162-1.397,0.208-2.1c0.036-0.545,0.095-1.087,0.124-1.632
		c0.04-0.726,0.056-1.454,0.118-2.175C29.346,13.78,29.264,13.048,29.2,12.312z"/>
	<linearGradient id="SVGID_2_" gradientUnits="userSpaceOnUse" x1="13.3645" y1="13.9585" x2="21.1646" y2="7.4134">
		<stop  offset="0.2611" style="stop-color:#000000"/>
		<stop  offset="0.5567" style="stop-color:#FFD400"/>
		<stop  offset="0.8522" style="stop-color:#FF0000"/>
	</linearGradient>
	<path fill="url(#SVGID_2_)" d="M16.066,14.865c-0.007,0.099,0.03,0.153,0.122,0.211c0.32,0.198,0.66,0.335,1.014,0.448
		c0.439,0.143,0.877,0.24,1.313-0.002c0.287-0.158,0.568-0.323,0.854-0.486c0.04-0.594,0.096-1.191,0.114-1.79
		c0.013-0.422,0.056-0.843,0.075-1.263c0.015-0.295,0.004-0.592,0.043-0.885c0.094-0.709,0.102-1.426,0.147-2.138
		c0.03-0.455,0.101-0.912,0.063-1.372c-0.005-0.056,0.037-0.107,0.037-0.154c0.002-0.276,0.075-0.547-0.135-0.816
		c-0.397-0.51-0.917-0.878-1.385-1.305c-0.131-0.121-0.29-0.16-0.491-0.104c-0.33,0.093-0.68,0.118-1.016,0.193
		c-0.25,0.057-0.506,0.07-0.771,0.185c0.053,0.188-0.047,0.335-0.042,0.497c0.011,2.918-0.03,5.836,0.056,8.753
		C16.066,14.847,16.068,14.856,16.066,14.865z"/>
	<linearGradient id="SVGID_3_" gradientUnits="userSpaceOnUse" x1="18.8879" y1="14.0991" x2="25.1927" y2="8.8088">
		<stop  offset="0.2611" style="stop-color:#000000"/>
		<stop  offset="0.5567" style="stop-color:#FFD400"/>
		<stop  offset="0.8522" style="stop-color:#FF0000"/>
	</linearGradient>
	<path fill="url(#SVGID_3_)" d="M21.99,15.009c0.118,0.033,0.227,0.129,0.371,0.063c0.383-0.18,0.789-0.301,1.196-0.408
		c0.112-0.029,0.191-0.078,0.218-0.198c0.031-0.146,0.086-0.289,0.105-0.437c0.08-0.633,0.199-1.26,0.287-1.891
		c0.096-0.676,0.173-1.354,0.27-2.029c0.036-0.246,0.03-0.494,0.082-0.741c0.054-0.255,0.04-0.517-0.14-0.765
		c-0.387-0.528-0.888-0.922-1.409-1.297c-0.1-0.07-0.21-0.068-0.332-0.039c-0.395,0.094-0.784,0.234-1.241,0.192
		c-0.309,0.834-0.389,1.698-0.495,2.556c-0.048,0.36-0.081,0.726-0.127,1.086c-0.055,0.433-0.105,0.865-0.141,1.297
		c-0.04,0.498-0.084,0.998-0.134,1.494c-0.03,0.312,0.071,0.477,0.295,0.637C21.155,14.786,21.573,14.896,21.99,15.009z"/>
	<linearGradient id="SVGID_4_" gradientUnits="userSpaceOnUse" x1="8.6731" y1="12.4282" x2="16.7713" y2="5.633">
		<stop  offset="0.2611" style="stop-color:#000000"/>
		<stop  offset="0.5567" style="stop-color:#FFD400"/>
		<stop  offset="0.8522" style="stop-color:#FF0000"/>
	</linearGradient>
	<path fill="url(#SVGID_4_)" d="M10.724,6.14c0.478-0.212,0.95-0.433,1.432-0.629c0.21-0.085,0.399-0.22,0.646-0.226
		c0.518-0.013,0.913,0.252,1.308,0.528c0.191,0.136,0.3,0.311,0.333,0.566c0.055,0.432,0.021,0.854,0,1.282
		c-0.036,0.644-0.134,1.272-0.287,1.894c-0.09,0.361-0.225,0.733-0.503,0.977c-0.705,0.611-1.442,1.183-2.171,1.768
		c-0.063,0.051-0.106,0.098-0.084,0.18c0.099,0.358,0.066,0.738,0.181,1.109c1.118,0.235,2.224,0.572,3.373,0.676
		c0.011-0.074,0.018-0.1,0.018-0.125c0.022-1.572-0.03-3.143,0.049-4.714c0.048-0.891-0.075-1.782-0.051-2.676
		c0.02-0.624,0.001-1.249,0.005-1.874c0.002-0.13-0.025-0.244-0.09-0.355c-0.307-0.523-0.679-0.998-1.077-1.451
		c-0.142-0.159-0.314-0.233-0.543-0.228c-0.564,0.015-1.111,0.151-1.674,0.181c-0.176,0.01-0.335,0.103-0.446,0.258
		c-0.241,0.338-0.485,0.675-0.736,1.007c-0.044,0.058-0.062,0.112-0.047,0.174c0.121,0.556,0.145,1.125,0.235,1.685
		C10.638,6.162,10.681,6.159,10.724,6.14z"/>
	<linearGradient id="SVGID_5_" gradientUnits="userSpaceOnUse" x1="3.9641" y1="8.3955" x2="9.4827" y2="3.7649">
		<stop  offset="0.2611" style="stop-color:#000000"/>
		<stop  offset="0.5567" style="stop-color:#FFD400"/>
		<stop  offset="0.8522" style="stop-color:#FF0000"/>
	</linearGradient>
	<path fill="url(#SVGID_5_)" d="M5.123,7.742c0.061,0.233,0.08,0.483,0.205,0.71c1.473-0.706,2.983-1.275,4.448-1.916
		C9.771,6.192,9.703,5.899,9.65,5.604C9.57,5.163,9.519,4.712,9.323,4.299C9.149,3.933,8.812,3.703,8.559,3.401
		c-0.152-0.185-0.337-0.205-0.53-0.168c-0.642,0.125-1.279,0.26-1.913,0.418C5.977,3.687,5.885,3.75,5.808,3.844
		c-0.398,0.511-0.77,1.04-0.981,1.659C4.738,5.769,4.67,6.038,4.76,6.334C4.901,6.797,4.999,7.272,5.123,7.742z"/>
</g>
<path fill="none" d="M-25.16,48.12c0.278-0.243,0.413-0.615,0.503-0.977c0.153-0.621,0.251-1.25,0.287-1.894
	c0.021-0.429,0.055-0.851,0-1.282c-0.015-0.117-0.051-0.213-0.098-0.301c-0.804-0.201-1.597-0.362-2.369-0.489
	c-0.419,0.177-0.834,0.364-1.252,0.55c-0.043,0.02-0.086,0.022-0.13,0.006c-0.041-0.254-0.067-0.51-0.097-0.766
	c-0.307-0.035-0.608-0.065-0.905-0.092c0.018,0.105,0.038,0.211,0.057,0.316c0.054,0.295,0.121,0.588,0.127,0.932
	c-1.043,0.456-2.106,0.892-3.166,1.351c0.309,0.156,0.609,0.322,0.907,0.491c0.231-0.102,0.465-0.197,0.694-0.304
	c0.493-0.229,1.007-0.327,1.556-0.29c0.421,0.027,0.847,0.005,1.331,0.005c-0.449-0.168-0.878-0.179-1.308-0.362
	c0.847-0.367,1.653-0.679,2.426-1.063c0.479-0.239,0.902-0.332,1.351,0.017c0.013,0.011,0.024,0.021,0.045,0.034
	c0.007,0.2,0.095,0.396,0.061,0.605c-0.09,0.537-0.052,1.088-0.164,1.621c-0.065,0.318-0.125,0.639-0.24,0.946
	c-0.193,0.519-0.684,0.737-1.054,1.073c-0.219,0.198-0.447,0.387-0.677,0.571c0.205,0.178,0.411,0.354,0.609,0.536
	C-26.157,48.951-25.651,48.546-25.16,48.12z"/>
<path fill="none" d="M-30.701,55.703c-0.093,0.161-0.275,0.302-0.223,0.604c0.505-0.413,1-0.818,1.489-1.218
	c-0.247-0.081-0.494-0.162-0.74-0.235C-30.352,55.135-30.537,55.413-30.701,55.703z"/>
<path fill="none" d="M-19.531,61.661c-0.024,0.229-0.079,0.47-0.064,0.695c0.161,0.06,0.184-0.063,0.208-0.133
	c0.089-0.246,0.176-0.492,0.265-0.738c-0.114-0.122-0.225-0.248-0.341-0.366C-19.486,61.3-19.511,61.48-19.531,61.661z"/>
<linearGradient id="SVGID_6_" gradientUnits="userSpaceOnUse" x1="-34.1243" y1="72.4424" x2="-6.8035" y2="49.5175">
	<stop  offset="0.2611" style="stop-color:#000000"/>
	<stop  offset="0.5567" style="stop-color:#FFD400"/>
	<stop  offset="0.8522" style="stop-color:#FF0000"/>
</linearGradient>
<path fill="url(#SVGID_6_)" d="M-9.612,49.899c-0.029-0.314-0.237-0.563-0.428-0.809c-0.554-0.715-1.106-1.431-1.658-2.148
	c-0.418-0.543-0.963-0.853-1.647-0.92c-0.037-0.004-0.075-0.007-0.104-0.021c-0.031-0.016-0.057-0.044-0.104-0.004
	c0.186,0.589,0.054,1.18-0.002,1.779c-0.05,0.523-0.145,1.041-0.178,1.565c-0.012,0.177-0.083,0.349-0.046,0.531
	c0.708-0.06,1.419-0.063,2.124-0.154c0.112-0.015,0.232-0.002,0.339-0.002c0.086,0.142-0.032,0.172-0.102,0.199
	c-0.722,0.28-1.444,0.554-2.168,0.832c-0.116,0.046-0.236,0.06-0.361,0.058c-0.1,0.266-0.095,0.553-0.161,0.825
	c-0.054,0.212-0.085,0.429-0.165,0.634c0.155-0.039,0.224,0.096,0.314,0.17c0.325,0.262,0.641,0.538,0.957,0.81
	c0.057,0.048,0.104,0.102,0.063,0.231c-0.502-0.128-1.01-0.256-1.522-0.385c-0.406,0.628-0.863,1.214-1.411,1.73
	c-0.282,0.267-0.61,0.238-0.949,0.192c-0.401-0.054-0.797-0.067-1.177,0.089c-0.115,0.411-0.053,0.826-0.082,1.236
	c-0.056,0.796-0.042,1.598-0.119,2.391c-0.042,0.416-0.234,0.82-0.375,1.225c-0.033,0.095-0.068,0.188-0.102,0.283
	c1.186,2.357,1.749,3.998,1.749,3.998c-0.679-1.01-1.418-1.918-2.195-2.75c-0.089,0.246-0.175,0.492-0.265,0.738
	c-0.024,0.07-0.047,0.192-0.208,0.133c-0.015-0.226,0.04-0.467,0.064-0.695c0.02-0.181,0.045-0.361,0.067-0.542
	c-2.976-3.046-6.532-4.904-9.971-6.03c-0.489,0.399-0.984,0.805-1.489,1.218c-0.053-0.302,0.13-0.442,0.223-0.604
	c0.164-0.29,0.349-0.568,0.527-0.85c-1.704-0.51-3.364-0.847-4.895-1.063c0.001,0.15,0.003,0.301,0.003,0.451
	c-0.001,0.775-0.147,1.519-0.309,2.268c-0.086,0.396-0.145,0.803-0.197,1.206c-0.041,0.325,0.138,0.507,0.353,0.671
	c0.086,0.064,0.168,0.133,0.245,0.206c0.468,0.45,0.923,0.913,1.405,1.347c1.758,1.573,3.375,3.289,5.043,4.955
	c0.332,0.327,0.697,0.645,0.937,1.051c0.317,0.543,0.492,1.148,0.649,1.752c0.14,0.537,0.23,1.09,0.327,1.638
	c0.021,0.124-0.001,0.28-0.062,0.389c-0.173,0.323-0.159,0.679-0.188,1.015c-0.03,0.348-0.092,0.694-0.068,1.048
	c0.033,0.467-0.084,0.93-0.056,1.399c5.048,0,10.1,0,15.15,0c0-1.847,0.008-3.691-0.005-5.545c-0.004-0.461,0.159-0.85,0.39-1.222
	c0.126-0.202,0.25-0.407,0.41-0.587c0.237-0.26,0.296-0.596,0.346-0.926c0.098-0.631,0.19-1.264,0.27-1.896
	c0.052-0.425,0.063-0.854,0.117-1.279c0.062-0.494,0.066-0.994,0.152-1.484c0.036-0.21,0.024-0.428,0.051-0.643
	c0.064-0.521,0.074-1.053,0.121-1.578c0.063-0.701,0.162-1.397,0.208-2.1c0.036-0.545,0.095-1.087,0.124-1.632
	c0.04-0.726,0.056-1.454,0.118-2.175C-9.467,51.368-9.549,50.636-9.612,49.899z"/>
<linearGradient id="SVGID_7_" gradientUnits="userSpaceOnUse" x1="-35.4158" y1="70.9033" x2="-8.095" y2="47.9785">
	<stop  offset="0.2611" style="stop-color:#000000"/>
	<stop  offset="0.5567" style="stop-color:#FFD400"/>
	<stop  offset="0.8522" style="stop-color:#FF0000"/>
</linearGradient>
<path fill="url(#SVGID_7_)" d="M-19.293,58.853c-0.321-0.613-0.682-1.203-1.036-1.798c-0.067-0.11-0.138-0.224-0.152-0.36
	c-0.067-0.019-0.136-0.016-0.204-0.027c0.551,0.88,1.039,1.729,1.464,2.521C-19.219,59.077-19.234,58.964-19.293,58.853z"/>
<linearGradient id="SVGID_8_" gradientUnits="userSpaceOnUse" x1="-44.4519" y1="60.1338" x2="-17.1311" y2="37.2089">
	<stop  offset="0.2611" style="stop-color:#000000"/>
	<stop  offset="0.5567" style="stop-color:#FFD400"/>
	<stop  offset="0.8522" style="stop-color:#FF0000"/>
</linearGradient>
<path fill="url(#SVGID_8_)" d="M-25.544,47.176c0.115-0.308,0.175-0.628,0.24-0.946c0.112-0.533,0.074-1.084,0.164-1.621
	c0.034-0.209-0.054-0.405-0.061-0.605c-0.021-0.014-0.032-0.023-0.045-0.034c-0.448-0.349-0.872-0.256-1.351-0.017
	c-0.772,0.384-1.579,0.695-2.426,1.063c0.43,0.184,0.858,0.194,1.308,0.362c-0.484,0-0.91,0.022-1.331-0.005
	c-0.549-0.037-1.063,0.061-1.556,0.29c-0.229,0.106-0.463,0.202-0.694,0.304c1.46,0.828,2.799,1.798,4.02,2.854
	c0.23-0.185,0.458-0.373,0.677-0.571C-26.227,47.913-25.737,47.694-25.544,47.176z"/>
<linearGradient id="SVGID_9_" gradientUnits="userSpaceOnUse" x1="-25.219" y1="51.8203" x2="-17.4188" y2="45.2752">
	<stop  offset="0.2611" style="stop-color:#000000"/>
	<stop  offset="0.5567" style="stop-color:#FFD400"/>
	<stop  offset="0.8522" style="stop-color:#FF0000"/>
</linearGradient>
<path fill="url(#SVGID_9_)" d="M-22.747,52.426c0,0.009,0.002,0.019,0,0.027c-0.007,0.099,0.03,0.153,0.122,0.211
	c0.32,0.198,0.66,0.335,1.014,0.448c0.439,0.143,0.877,0.24,1.313-0.002c0.287-0.158,0.568-0.323,0.854-0.486
	c0.04-0.594,0.096-1.191,0.114-1.79c0.013-0.422,0.056-0.843,0.075-1.263c0.015-0.295,0.004-0.592,0.043-0.885
	c0.094-0.709,0.102-1.426,0.147-2.138c0.018-0.269,0.043-0.538,0.058-0.808c-1.244-0.664-2.522-1.189-3.796-1.6
	C-22.797,46.903-22.828,49.665-22.747,52.426z"/>
<linearGradient id="SVGID_10_" gradientUnits="userSpaceOnUse" x1="-20.5417" y1="50.9521" x2="-14.2369" y2="45.6617">
	<stop  offset="0.2611" style="stop-color:#000000"/>
	<stop  offset="0.5567" style="stop-color:#FFD400"/>
	<stop  offset="0.8522" style="stop-color:#FF0000"/>
</linearGradient>
<path fill="url(#SVGID_10_)" d="M-14.376,47.696c0.036-0.246,0.03-0.494,0.082-0.741c0.054-0.255,0.04-0.517-0.14-0.765
	c-0.387-0.528-0.888-0.922-1.409-1.297c-0.1-0.07-0.21-0.068-0.332-0.039c-0.246,0.059-0.491,0.13-0.75,0.17
	c1.208,1.653,2.02,3.062,2.403,3.767C-14.474,48.426-14.428,48.061-14.376,47.696z"/>
<linearGradient id="SVGID_11_" gradientUnits="userSpaceOnUse" x1="-19.6472" y1="52.0176" x2="-13.3424" y2="46.7272">
	<stop  offset="0.2611" style="stop-color:#000000"/>
	<stop  offset="0.5567" style="stop-color:#FFD400"/>
	<stop  offset="0.8522" style="stop-color:#FF0000"/>
</linearGradient>
<path fill="url(#SVGID_11_)" d="M-17.911,47.603c-0.048,0.36-0.081,0.726-0.127,1.086c-0.055,0.433-0.105,0.865-0.141,1.297
	c-0.04,0.498-0.084,0.998-0.134,1.494c-0.03,0.312,0.071,0.477,0.295,0.637c0.359,0.258,0.778,0.367,1.194,0.48
	c0.118,0.033,0.227,0.129,0.371,0.063c0.383-0.18,0.789-0.301,1.196-0.408c0.112-0.029,0.191-0.078,0.218-0.198
	c0.031-0.146,0.086-0.289,0.105-0.437c0.08-0.633,0.199-1.26,0.287-1.891c0.034-0.241,0.065-0.483,0.096-0.725
	c-1.003-0.99-2.084-1.83-3.211-2.538C-17.819,46.842-17.864,47.223-17.911,47.603z"/>
<linearGradient id="SVGID_12_" gradientUnits="userSpaceOnUse" x1="-28.7815" y1="51.6328" x2="-20.6839" y2="44.8381">
	<stop  offset="0.2611" style="stop-color:#000000"/>
	<stop  offset="0.5567" style="stop-color:#FFD400"/>
	<stop  offset="0.8522" style="stop-color:#FF0000"/>
</linearGradient>
<path fill="url(#SVGID_12_)" d="M-24.37,43.968c0.055,0.432,0.021,0.854,0,1.282c-0.036,0.644-0.134,1.272-0.287,1.894
	c-0.09,0.361-0.225,0.733-0.503,0.977c-0.491,0.426-0.998,0.831-1.506,1.236c0.853,0.781,1.644,1.602,2.377,2.438
	c0.142,0.02,0.284,0.045,0.427,0.058c0.011-0.074,0.018-0.1,0.018-0.125c0.022-1.572-0.03-3.143,0.049-4.714
	c0.048-0.891-0.075-1.782-0.051-2.676c0.005-0.169,0.003-0.339,0.004-0.509c-0.209-0.058-0.418-0.109-0.627-0.162
	C-24.421,43.755-24.385,43.851-24.37,43.968z"/>
<linearGradient id="SVGID_13_" gradientUnits="userSpaceOnUse" x1="-32.4983" y1="47.2041" x2="-24.4007" y2="40.4094">
	<stop  offset="0.2611" style="stop-color:#000000"/>
	<stop  offset="0.5567" style="stop-color:#FFD400"/>
	<stop  offset="0.8522" style="stop-color:#FF0000"/>
</linearGradient>
<path fill="url(#SVGID_13_)" d="M-28.089,43.728c0.417-0.186,0.833-0.373,1.252-0.55c-0.503-0.083-0.997-0.153-1.479-0.21
	c0.029,0.256,0.056,0.512,0.097,0.766C-28.175,43.75-28.132,43.747-28.089,43.728z"/>
<linearGradient id="SVGID_14_" gradientUnits="userSpaceOnUse" x1="-34.6897" y1="46.1709" x2="-29.1718" y2="41.5408">
	<stop  offset="0.2611" style="stop-color:#000000"/>
	<stop  offset="0.5567" style="stop-color:#FFD400"/>
	<stop  offset="0.8522" style="stop-color:#FF0000"/>
</linearGradient>
<path fill="url(#SVGID_14_)" d="M-29.036,44.124c-0.006-0.344-0.073-0.637-0.127-0.932c-0.019-0.105-0.039-0.211-0.057-0.316
	c-1.828-0.163-3.436-0.157-4.634-0.103c-0.046,0.104-0.094,0.208-0.132,0.317c-0.089,0.266-0.156,0.535-0.066,0.831
	c0.081,0.268,0.149,0.539,0.215,0.812c0.56,0.228,1.107,0.473,1.636,0.741C-31.142,45.016-30.079,44.58-29.036,44.124z"/>
<linearGradient id="SVGID_15_" gradientUnits="userSpaceOnUse" x1="-39.2048" y1="61.5146" x2="-21.5546" y2="51.3466">
	<stop  offset="0.3505" style="stop-color:#FFE3A0"/>
	<stop  offset="1" style="stop-color:#00FFFF"/>
</linearGradient>
<path fill="url(#SVGID_15_)" d="M-27.415,50.067c-0.022-0.082,0.021-0.129,0.084-0.18c0.222-0.178,0.443-0.354,0.665-0.531
	c-0.198-0.182-0.404-0.358-0.609-0.536c-0.227,0.183-0.457,0.362-0.683,0.546c-0.372,0.303-0.756,0.593-1.112,0.912
	c-0.396,0.351-0.833,0.646-1.2,1.021c0.015,0.192,0.097,0.361,0.138,0.54c0.146,0.637,0.295,1.271,0.442,1.906
	c-0.084,0.078-0.059,0.182-0.063,0.277c-0.01,0.076,0.005,0.148-0.047,0.229c-0.129,0.198-0.247,0.402-0.374,0.603
	c0.246,0.073,0.493,0.154,0.74,0.235c0.491-0.402,0.975-0.798,1.457-1.191c0.295,0.147,0.555,0.297,0.828,0.414
	c1.056,0.448,1.978,1.099,2.765,1.92c0.231,0.244,0.482,0.326,0.757,0.323c0.658-0.008,1.313,0.071,1.971,0.066
	c0.325-0.002,0.65-0.007,0.972,0.046c-0.991-1.581-2.188-3.257-3.604-4.872c-0.997-0.138-1.967-0.412-2.946-0.618
	C-27.348,50.806-27.316,50.426-27.415,50.067z"/>
<linearGradient id="SVGID_16_" gradientUnits="userSpaceOnUse" x1="-34.7219" y1="69.2969" x2="-17.0717" y2="59.1289">
	<stop  offset="0.3505" style="stop-color:#FFE3A0"/>
	<stop  offset="1" style="stop-color:#00FFFF"/>
</linearGradient>
<path fill="url(#SVGID_16_)" d="M-19.377,60.424c-0.03,0.231-0.058,0.463-0.087,0.695c0.116,0.118,0.227,0.244,0.341,0.366
	c0.149-0.416,0.3-0.831,0.446-1.248c-0.169-0.337-0.349-0.685-0.544-1.049c-0.001,0.054,0.002,0.107-0.01,0.159
	C-19.31,59.703-19.33,60.065-19.377,60.424z"/>
<linearGradient id="SVGID_17_" gradientUnits="userSpaceOnUse" x1="-44.1912" y1="52.8594" x2="-26.5409" y2="42.6914">
	<stop  offset="0.3505" style="stop-color:#FFE3A0"/>
	<stop  offset="1" style="stop-color:#00FFFF"/>
</linearGradient>
<path fill="url(#SVGID_17_)" d="M-35.022,49.42c0.029-0.399,0.092-0.794,0.176-1.185c0.111-0.517,0.389-0.869,0.902-1.107
	c0.873-0.405,1.765-0.774,2.649-1.162c-0.298-0.169-0.599-0.335-0.907-0.491c-0.428,0.186-0.858,0.362-1.282,0.565
	c-0.125-0.227-0.145-0.477-0.205-0.71c-0.052-0.198-0.1-0.397-0.148-0.597c-1.467-0.599-3.034-1.057-4.715-1.311l-4.438,10.125
	c0,0,3.394-0.398,7.921,0.242C-35.078,52.333-35.129,50.876-35.022,49.42z"/>
<linearGradient id="SVGID_18_" gradientUnits="userSpaceOnUse" x1="-32.4065" y1="74.4902" x2="-5.0857" y2="51.5654">
	<stop  offset="0.2611" style="stop-color:#000000"/>
	<stop  offset="0.5567" style="stop-color:#FFD400"/>
	<stop  offset="0.8522" style="stop-color:#FF0000"/>
</linearGradient>
<path fill="url(#SVGID_18_)" d="M-16.927,64.235c0,0-0.563-1.641-1.749-3.998c-0.146,0.417-0.297,0.832-0.446,1.248
	C-18.345,62.317-17.606,63.226-16.927,64.235z"/>
<linearGradient id="SVGID_19_" gradientUnits="userSpaceOnUse" x1="-33.5593" y1="71.3145" x2="-15.9091" y2="61.1465">
	<stop  offset="0.3505" style="stop-color:#FFE3A0"/>
	<stop  offset="1" style="stop-color:#00FFFF"/>
</linearGradient>
<path fill="url(#SVGID_19_)" d="M-16.927,64.235c0,0-0.563-1.641-1.749-3.998c-0.146,0.417-0.297,0.832-0.446,1.248
	C-18.345,62.317-17.606,63.226-16.927,64.235z"/>
<linearGradient id="SVGID_20_" gradientUnits="userSpaceOnUse" x1="5.1741" y1="33.7256" x2="22.8201" y2="23.56">
	<stop  offset="0.3505" style="stop-color:#FFE3A0"/>
	<stop  offset="1" style="stop-color:#00FFFF"/>
</linearGradient>
<path fill="url(#SVGID_20_)" d="M21.803,26.647c0,0-0.563-1.641-1.749-3.998c-0.146,0.417-0.297,0.832-0.446,1.248
	C20.385,24.729,21.124,25.638,21.803,26.647z"/>
<linearGradient id="SVGID_21_" gradientUnits="userSpaceOnUse" x1="-37.1868" y1="68.793" x2="-9.866" y2="45.8681">
	<stop  offset="0.2611" style="stop-color:#000000"/>
	<stop  offset="0.5567" style="stop-color:#FFD400"/>
	<stop  offset="0.8522" style="stop-color:#FF0000"/>
</linearGradient>
<path fill="url(#SVGID_21_)" d="M-21.657,56.621c-0.658,0.005-1.313-0.074-1.971-0.066c-0.274,0.003-0.525-0.079-0.757-0.323
	c-0.787-0.821-1.709-1.472-2.765-1.92c-0.273-0.117-0.533-0.267-0.828-0.414c-0.482,0.394-0.966,0.789-1.457,1.191
	c3.438,1.126,6.995,2.984,9.971,6.03c0.029-0.232,0.057-0.464,0.087-0.695c0.047-0.358,0.066-0.721,0.146-1.076
	c0.012-0.052,0.009-0.105,0.01-0.159c-0.425-0.792-0.913-1.642-1.464-2.521C-21.007,56.614-21.332,56.619-21.657,56.621z"/>
<linearGradient id="SVGID_22_" gradientUnits="userSpaceOnUse" x1="1.7542" y1="27.582" x2="19.4038" y2="17.4144">
	<stop  offset="0.3505" style="stop-color:#FFE3A0"/>
	<stop  offset="1" style="stop-color:#00FFFF"/>
</linearGradient>
<path fill="url(#SVGID_22_)" d="M17.175,18.998c-0.658,0.005-1.313-0.074-1.971-0.066c-0.274,0.003-0.525-0.079-0.757-0.323
	c-0.787-0.821-1.709-1.472-2.765-1.92c-0.273-0.117-0.533-0.267-0.828-0.414c-0.482,0.394-0.966,0.789-1.457,1.191
	c3.438,1.126,6.995,2.984,9.971,6.03c0.029-0.232,0.057-0.464,0.087-0.695c0.047-0.358,0.066-0.721,0.146-1.076
	c0.012-0.052,0.009-0.105,0.01-0.159c-0.425-0.792-0.913-1.642-1.464-2.521C17.825,18.991,17.5,18.996,17.175,18.998z"/>
<linearGradient id="SVGID_23_" gradientUnits="userSpaceOnUse" x1="-43.8557" y1="60.8447" x2="-16.5349" y2="37.9199">
	<stop  offset="0.2611" style="stop-color:#000000"/>
	<stop  offset="0.5567" style="stop-color:#FFD400"/>
	<stop  offset="0.8522" style="stop-color:#FF0000"/>
</linearGradient>
<path fill="url(#SVGID_23_)" d="M-29.801,54.251c0.052-0.08,0.037-0.152,0.047-0.229c0.005-0.096-0.021-0.199,0.063-0.277
	c-0.147-0.635-0.296-1.27-0.442-1.906c-0.041-0.179-0.123-0.348-0.138-0.54c0.367-0.375,0.805-0.67,1.2-1.021
	c0.356-0.319,0.74-0.609,1.112-0.912c0.226-0.184,0.456-0.363,0.683-0.546c-1.221-1.057-2.56-2.026-4.02-2.854
	c-0.884,0.388-1.776,0.757-2.649,1.162c-0.514,0.238-0.791,0.591-0.902,1.107c-0.084,0.391-0.146,0.785-0.176,1.185
	c-0.106,1.456-0.056,2.913-0.046,4.37c1.531,0.217,3.191,0.554,4.895,1.063C-30.048,54.653-29.929,54.449-29.801,54.251z"/>
<linearGradient id="SVGID_24_" gradientUnits="userSpaceOnUse" x1="-3.2283" y1="19.1123" x2="14.4225" y2="8.944">
	<stop  offset="0.3505" style="stop-color:#FFE3A0"/>
	<stop  offset="1" style="stop-color:#00FFFF"/>
</linearGradient>
<path fill="url(#SVGID_24_)" d="M8.949,16.663c0.052-0.08,0.037-0.152,0.047-0.229c0.005-0.096-0.021-0.199,0.063-0.277
	c-0.147-0.635-0.296-1.27-0.442-1.906c-0.041-0.179-0.123-0.348-0.138-0.54c0.367-0.375,0.805-0.67,1.2-1.021
	c0.356-0.319,0.74-0.609,1.112-0.912c0.226-0.184,0.456-0.363,0.683-0.546c-1.221-1.057-2.56-2.026-4.02-2.854
	C6.571,8.766,5.679,9.135,4.806,9.54c-0.514,0.238-0.791,0.591-0.902,1.107c-0.084,0.391-0.146,0.785-0.176,1.185
	c-0.106,1.456-0.056,2.913-0.046,4.37c1.531,0.217,3.191,0.554,4.895,1.063C8.702,17.065,8.821,16.861,8.949,16.663z"/>
<linearGradient id="SVGID_25_" gradientUnits="userSpaceOnUse" x1="-27.9436" y1="52.6318" x2="-19.846" y2="45.8372">
	<stop  offset="0.2611" style="stop-color:#000000"/>
	<stop  offset="0.5567" style="stop-color:#FFD400"/>
	<stop  offset="0.8522" style="stop-color:#FF0000"/>
</linearGradient>
<path fill="url(#SVGID_25_)" d="M-26.666,49.356c-0.222,0.177-0.443,0.354-0.665,0.531c-0.063,0.051-0.106,0.098-0.084,0.18
	c0.099,0.358,0.066,0.738,0.181,1.109c0.979,0.206,1.949,0.48,2.946,0.618C-25.022,50.958-25.813,50.138-26.666,49.356z"/>
<linearGradient id="SVGID_26_" gradientUnits="userSpaceOnUse" x1="-1.6863" y1="21.6523" x2="15.964" y2="11.4843">
	<stop  offset="0.3505" style="stop-color:#FFE3A0"/>
	<stop  offset="1" style="stop-color:#00FFFF"/>
</linearGradient>
<path fill="url(#SVGID_26_)" d="M12.162,11.769c-0.222,0.177-0.443,0.354-0.665,0.531c-0.063,0.051-0.106,0.098-0.084,0.18
	c0.099,0.358,0.066,0.738,0.181,1.109c0.979,0.206,1.949,0.48,2.946,0.618C13.806,13.37,13.015,12.55,12.162,11.769z"/>
<linearGradient id="SVGID_27_" gradientUnits="userSpaceOnUse" x1="-34.5251" y1="46.3672" x2="-29.0072" y2="41.7371">
	<stop  offset="0.2611" style="stop-color:#000000"/>
	<stop  offset="0.5567" style="stop-color:#FFD400"/>
	<stop  offset="0.8522" style="stop-color:#FF0000"/>
</linearGradient>
<path fill="url(#SVGID_27_)" d="M-33.484,46.04c0.424-0.203,0.854-0.38,1.282-0.565c-0.529-0.269-1.076-0.514-1.636-0.741
	c0.049,0.199,0.096,0.398,0.148,0.597C-33.629,45.563-33.609,45.813-33.484,46.04z"/>
<linearGradient id="SVGID_28_" gradientUnits="userSpaceOnUse" x1="-44.7615" y1="51.8691" x2="-27.1112" y2="41.7011">
	<stop  offset="0.3505" style="stop-color:#FFE3A0"/>
	<stop  offset="1" style="stop-color:#00FFFF"/>
</linearGradient>
<path fill="url(#SVGID_28_)" d="M-33.484,46.04c0.424-0.203,0.854-0.38,1.282-0.565c-0.529-0.269-1.076-0.514-1.636-0.741
	c0.049,0.199,0.096,0.398,0.148,0.597C-33.629,45.563-33.609,45.813-33.484,46.04z"/>
<linearGradient id="SVGID_29_" gradientUnits="userSpaceOnUse" x1="-28.5847" y1="57.209" x2="-12.9398" y2="48.1962">
	<stop  offset="0.1781" style="stop-color:#FFE3A0"/>
	<stop  offset="1" style="stop-color:#00FFFF"/>
</linearGradient>
<path fill="url(#SVGID_29_)" d="M-14.266,49.275c0,0-0.089-0.179-0.255-0.484c-0.009,0.069-0.019,0.14-0.028,0.21
	C-14.455,49.093-14.358,49.18-14.266,49.275z"/>
<linearGradient id="SVGID_30_" gradientUnits="userSpaceOnUse" x1="-34.6296" y1="46.7148" x2="-18.9847" y2="37.7021">
	<stop  offset="0.1781" style="stop-color:#FFE3A0"/>
	<stop  offset="1" style="stop-color:#00FFFF"/>
</linearGradient>
<path fill="url(#SVGID_30_)" d="M-32.697,41.239c0.634-0.158,1.271-0.293,1.913-0.418c0.193-0.037,0.378-0.017,0.53,0.168
	c0.253,0.302,0.59,0.531,0.765,0.897c0.149,0.314,0.211,0.651,0.269,0.989c0.296,0.026,0.598,0.057,0.905,0.092
	c-0.035-0.308-0.072-0.615-0.139-0.919c-0.015-0.062,0.003-0.116,0.047-0.174c0.251-0.332,0.495-0.669,0.736-1.007
	c0.111-0.155,0.271-0.248,0.446-0.258c0.563-0.029,1.109-0.166,1.674-0.181c0.229-0.006,0.401,0.068,0.543,0.228
	c0.398,0.453,0.771,0.928,1.077,1.451c0.064,0.111,0.092,0.226,0.09,0.355c-0.003,0.455,0.002,0.91,0,1.365
	c0.345,0.096,0.692,0.201,1.039,0.313c0-0.156,0-0.313,0-0.469c-0.005-0.162,0.095-0.309,0.042-0.497
	c0.265-0.114,0.521-0.128,0.771-0.185c0.336-0.075,0.686-0.101,1.016-0.193c0.201-0.057,0.36-0.018,0.491,0.104
	c0.468,0.427,0.987,0.795,1.385,1.305c0.21,0.27,0.137,0.54,0.135,0.816c0,0.047-0.042,0.099-0.037,0.154
	c0.015,0.188,0.005,0.376-0.005,0.564c0.42,0.224,0.836,0.464,1.246,0.722c0.074-0.478,0.173-0.951,0.345-1.416
	c0.173,0.016,0.334,0.001,0.491-0.022c-2.875-3.938-7.968-9.226-14.716-9.499l-4.438,7.438c0,0,0.84-0.126,2.224-0.189
	c0.218-0.485,0.521-0.921,0.85-1.342C-32.927,41.338-32.836,41.274-32.697,41.239z"/>
<linearGradient id="SVGID_31_" gradientUnits="userSpaceOnUse" x1="-33.8171" y1="48.126" x2="-18.1722" y2="39.1132">
	<stop  offset="0.1781" style="stop-color:#FFE3A0"/>
	<stop  offset="1" style="stop-color:#00FFFF"/>
</linearGradient>
<path fill="url(#SVGID_31_)" d="M-24.703,43.401c-0.395-0.276-0.79-0.541-1.308-0.528c-0.247,0.006-0.437,0.141-0.646,0.226
	c-0.061,0.024-0.12,0.054-0.18,0.079c0.772,0.127,1.564,0.288,2.369,0.489C-24.524,43.564-24.599,43.475-24.703,43.401z"/>
<linearGradient id="SVGID_32_" gradientUnits="userSpaceOnUse" x1="-27.053" y1="49.6357" x2="-19.2528" y2="43.0906">
	<stop  offset="0.2611" style="stop-color:#000000"/>
	<stop  offset="0.5567" style="stop-color:#FFD400"/>
	<stop  offset="0.8522" style="stop-color:#FF0000"/>
</linearGradient>
<path fill="url(#SVGID_32_)" d="M-18.964,45.022c0.002-0.276,0.075-0.547-0.135-0.816c-0.397-0.51-0.917-0.878-1.385-1.305
	c-0.131-0.121-0.29-0.16-0.491-0.104c-0.33,0.093-0.68,0.118-1.016,0.193c-0.25,0.057-0.506,0.07-0.771,0.185
	c0.053,0.188-0.047,0.335-0.042,0.497c0,0.156,0,0.313,0,0.469c1.274,0.41,2.553,0.936,3.796,1.6
	c0.011-0.188,0.021-0.376,0.005-0.564C-19.006,45.121-18.964,45.069-18.964,45.022z"/>
<linearGradient id="SVGID_33_" gradientUnits="userSpaceOnUse" x1="6.6497" y1="13.3789" x2="22.2922" y2="4.3675">
	<stop  offset="0.1781" style="stop-color:#FFE3A0"/>
	<stop  offset="1" style="stop-color:#00FFFF"/>
</linearGradient>
<path fill="url(#SVGID_33_)" d="M19.865,7.435c0.002-0.276,0.075-0.547-0.135-0.816c-0.397-0.51-0.917-0.878-1.385-1.305
	c-0.131-0.121-0.29-0.16-0.491-0.104c-0.33,0.093-0.68,0.118-1.016,0.193c-0.25,0.057-0.506,0.07-0.771,0.185
	c0.053,0.188-0.047,0.335-0.042,0.497c0,0.156,0,0.313,0,0.469c1.274,0.41,2.553,0.936,3.796,1.6
	c0.012-0.188,0.021-0.376,0.006-0.564C19.823,7.533,19.865,7.481,19.865,7.435z"/>
<linearGradient id="SVGID_34_" gradientUnits="userSpaceOnUse" x1="-20.5906" y1="50.8926" x2="-14.2857" y2="45.6022">
	<stop  offset="0.2611" style="stop-color:#000000"/>
	<stop  offset="0.5567" style="stop-color:#FFD400"/>
	<stop  offset="0.8522" style="stop-color:#FF0000"/>
</linearGradient>
<path fill="url(#SVGID_34_)" d="M-17.416,45.047c-0.172,0.465-0.271,0.938-0.345,1.416c1.127,0.708,2.208,1.548,3.211,2.538
	c0.009-0.07,0.019-0.141,0.028-0.21c-0.383-0.705-1.196-2.113-2.403-3.767C-17.082,45.048-17.243,45.063-17.416,45.047z"/>
<linearGradient id="SVGID_35_" gradientUnits="userSpaceOnUse" x1="8.9788" y1="17.4258" x2="24.6237" y2="8.413">
	<stop  offset="0.1781" style="stop-color:#FFE3A0"/>
	<stop  offset="1" style="stop-color:#00FFFF"/>
</linearGradient>
<path fill="url(#SVGID_35_)" d="M21.412,7.459c-0.172,0.465-0.271,0.938-0.345,1.416c1.127,0.708,2.208,1.548,3.211,2.538
	c0.01-0.07,0.02-0.141,0.028-0.21c-0.384-0.705-1.196-2.113-2.403-3.767C21.746,7.46,21.585,7.475,21.412,7.459z"/>
<linearGradient id="SVGID_36_" gradientUnits="userSpaceOnUse" x1="-32.1101" y1="47.666" x2="-24.0125" y2="40.8713">
	<stop  offset="0.2611" style="stop-color:#000000"/>
	<stop  offset="0.5567" style="stop-color:#FFD400"/>
	<stop  offset="0.8522" style="stop-color:#FF0000"/>
</linearGradient>
<path fill="url(#SVGID_36_)" d="M-23.841,42.464c0.002-0.13-0.025-0.244-0.09-0.355c-0.307-0.523-0.679-0.998-1.077-1.451
	c-0.142-0.159-0.314-0.233-0.543-0.228c-0.564,0.015-1.111,0.151-1.674,0.181c-0.176,0.01-0.335,0.103-0.446,0.258
	c-0.241,0.338-0.485,0.675-0.736,1.007c-0.044,0.058-0.062,0.112-0.047,0.174c0.066,0.304,0.104,0.611,0.139,0.919
	c0.481,0.057,0.976,0.127,1.479,0.21c0.06-0.025,0.119-0.055,0.18-0.079c0.21-0.085,0.399-0.22,0.646-0.226
	c0.518-0.013,0.913,0.252,1.308,0.528c0.104,0.073,0.179,0.163,0.235,0.266c0.208,0.053,0.417,0.104,0.627,0.162
	C-23.839,43.374-23.844,42.919-23.841,42.464z"/>
<linearGradient id="SVGID_37_" gradientUnits="userSpaceOnUse" x1="4.5066" y1="9.6616" x2="20.1507" y2="0.6494">
	<stop  offset="0.1781" style="stop-color:#FFE3A0"/>
	<stop  offset="1" style="stop-color:#00FFFF"/>
</linearGradient>
<path fill="url(#SVGID_37_)" d="M14.988,4.876c0.002-0.13-0.025-0.244-0.09-0.355c-0.307-0.523-0.679-0.998-1.077-1.451
	c-0.142-0.159-0.314-0.233-0.543-0.228c-0.564,0.015-1.111,0.151-1.674,0.181c-0.176,0.01-0.335,0.103-0.446,0.258
	c-0.241,0.338-0.485,0.675-0.736,1.007c-0.044,0.058-0.062,0.112-0.047,0.174c0.066,0.304,0.104,0.611,0.139,0.919
	c0.481,0.057,0.976,0.127,1.479,0.21c0.06-0.025,0.119-0.055,0.18-0.079c0.21-0.085,0.399-0.22,0.646-0.226
	c0.518-0.013,0.913,0.252,1.308,0.528c0.104,0.073,0.179,0.163,0.235,0.266c0.208,0.053,0.417,0.104,0.627,0.162
	C14.99,5.786,14.985,5.331,14.988,4.876z"/>
<linearGradient id="SVGID_38_" gradientUnits="userSpaceOnUse" x1="-35.1936" y1="45.5703" x2="-29.6757" y2="40.9402">
	<stop  offset="0.2611" style="stop-color:#000000"/>
	<stop  offset="0.5567" style="stop-color:#FFD400"/>
	<stop  offset="0.8522" style="stop-color:#FF0000"/>
</linearGradient>
<path fill="url(#SVGID_38_)" d="M-29.22,42.876c-0.058-0.338-0.12-0.675-0.269-0.989c-0.175-0.366-0.512-0.596-0.765-0.897
	c-0.152-0.185-0.337-0.205-0.53-0.168c-0.642,0.125-1.279,0.26-1.913,0.418c-0.139,0.035-0.23,0.099-0.308,0.192
	c-0.328,0.421-0.632,0.856-0.85,1.342C-32.656,42.719-31.048,42.713-29.22,42.876z"/>
<linearGradient id="SVGID_39_" gradientUnits="userSpaceOnUse" x1="3.0925" y1="7.208" x2="18.7366" y2="-1.8043">
	<stop  offset="0.1781" style="stop-color:#FFE3A0"/>
	<stop  offset="1" style="stop-color:#00FFFF"/>
</linearGradient>
<path fill="url(#SVGID_39_)" d="M9.608,5.288C9.55,4.95,9.488,4.613,9.339,4.299C9.164,3.933,8.827,3.703,8.574,3.401
	c-0.152-0.185-0.337-0.205-0.53-0.168c-0.642,0.125-1.279,0.26-1.913,0.418C5.992,3.687,5.901,3.75,5.823,3.844
	C5.495,4.265,5.192,4.7,4.974,5.186C6.172,5.131,7.781,5.125,9.608,5.288z"/>
<linearGradient id="SVGID_40_" gradientUnits="userSpaceOnUse" x1="8.717" y1="34.9434" x2="22.5549" y2="5.268">
	<stop  offset="0" style="stop-color:#BB925B"/>
	<stop  offset="0.3429" style="stop-color:#FFF6DA"/>
	<stop  offset="0.6571" style="stop-color:#FFF1B1"/>
	<stop  offset="1" style="stop-color:#B38B54"/>
</linearGradient>
<path fill="url(#SVGID_40_)" d="M29.81,12.28c-0.062-0.575-0.317-1.038-0.666-1.475c-0.524-0.66-1.021-1.344-1.566-1.986
	c-0.317-0.37-0.599-0.785-1.056-1.021C26.249,7.66,25.954,7.61,25.67,7.522c-0.113-0.035-0.227-0.066-0.297-0.162
	c-0.392-0.526-0.878-0.948-1.416-1.316c-0.058-0.04-0.105-0.096-0.159-0.146c-0.153-0.147-0.329-0.217-0.549-0.23
	c-0.633-0.038-1.253,0.055-1.849,0.234c-0.413,0.125-0.611-0.086-0.814-0.344c-0.362-0.459-0.797-0.843-1.253-1.207
	c-0.23-0.185-0.457-0.367-0.725-0.492c-0.365-0.172-0.734-0.072-1.101-0.002c-0.381,0.076-0.76,0.158-1.14,0.238
	c-0.155,0.033-0.2-0.078-0.256-0.184c-0.351-0.671-0.792-1.282-1.307-1.835c-0.299-0.319-0.639-0.601-1.118-0.599
	c-0.007,0-0.019-0.027-0.027-0.041c-0.289,0-0.579,0-0.869,0c-0.21,0.106-0.443,0.055-0.668,0.102
	c-0.372,0.079-0.754,0.105-1.129,0.175c-0.444,0.082-0.736,0.375-0.971,0.736C9.868,2.688,9.837,2.692,9.648,2.5
	C9.468,2.319,9.277,2.14,9.08,1.989C8.794,1.772,8.417,1.781,8.073,1.826C7.565,1.892,7.055,1.958,6.557,2.087
	C6.072,2.212,5.569,2.282,5.142,2.574C4.78,2.822,4.538,3.183,4.282,3.522C3.793,4.174,3.49,4.917,3.302,5.705
	C3.222,6.043,3.32,6.379,3.399,6.71c0.117,0.48,0.247,0.956,0.356,1.439C3.804,8.349,3.799,8.513,3.544,8.62
	c-0.637,0.27-0.949,0.818-1.13,1.456c-0.13,0.468-0.253,0.94-0.271,1.43c-0.002,0.062-0.044,0.095-0.072,0.14
	c-0.199,0.315-0.299,0.642-0.11,1.004c0.033,0.059,0.021,0.142,0.021,0.213c0.001,1.494,0.017,2.988-0.01,4.479
	c-0.011,0.464-0.128,0.929-0.221,1.39c-0.087,0.435-0.209,0.862-0.207,1.311c0,0.039-0.013,0.068-0.053,0.082
	c0,0.182,0,0.361,0,0.543c0.147,0.631,0.627,1,1.086,1.386c0.042,0.035,0.076,0.076,0.115,0.114c0.57,0.55,1.12,1.127,1.714,1.65
	c1.369,1.207,2.62,2.531,3.91,3.817c0.452,0.45,0.876,0.933,1.334,1.38c0.162,0.157,0.181,0.379,0.254,0.573
	c0.25,0.662,0.393,1.354,0.538,2.042c0.03,0.133,0.013,0.276-0.032,0.422c-0.147,0.477-0.19,0.973-0.231,1.469
	c-0.059,0.692-0.05,1.388-0.052,2.08c0.563,0,1.123,0,1.686,0c-0.028-0.469,0.089-0.932,0.056-1.401
	c-0.026-0.351,0.037-0.699,0.068-1.046c0.03-0.338,0.015-0.694,0.188-1.014c0.061-0.113,0.083-0.267,0.062-0.391
	c-0.097-0.548-0.186-1.1-0.327-1.637c-0.157-0.604-0.331-1.211-0.649-1.752c-0.242-0.407-0.606-0.723-0.937-1.053
	c-1.668-1.664-3.285-3.382-5.043-4.953c-0.482-0.434-0.937-0.898-1.405-1.348c-0.077-0.072-0.159-0.141-0.245-0.206
	c-0.217-0.163-0.395-0.346-0.353-0.671c0.051-0.404,0.112-0.808,0.197-1.206c0.163-0.748,0.308-1.491,0.309-2.268
	c0.001-1.607-0.074-3.216,0.043-4.821c0.029-0.4,0.092-0.794,0.176-1.184c0.111-0.517,0.387-0.868,0.902-1.108
	C5.958,9.028,7.094,8.586,8.2,8.074c0.492-0.229,1.007-0.327,1.556-0.291c0.421,0.028,0.847,0.005,1.331,0.005
	C10.638,7.62,10.209,7.61,9.78,7.426c0.847-0.366,1.653-0.679,2.424-1.063c0.48-0.237,0.904-0.33,1.351,0.018
	c0.013,0.01,0.027,0.02,0.05,0.033c0.007,0.199,0.096,0.396,0.061,0.605C13.575,7.556,13.613,8.106,13.5,8.64
	c-0.065,0.318-0.125,0.637-0.241,0.946c-0.194,0.519-0.683,0.737-1.053,1.073c-0.433,0.394-0.905,0.746-1.359,1.117
	c-0.372,0.303-0.758,0.593-1.114,0.912c-0.394,0.351-0.833,0.646-1.199,1.021c0.014,0.192,0.095,0.362,0.137,0.54
	c0.146,0.631,0.294,1.262,0.439,1.893c-0.001,0.004-0.002,0.01-0.003,0.014c-0.084,0.078-0.056,0.182-0.063,0.279
	C9.038,16.511,9.052,16.583,9,16.664c-0.311,0.478-0.621,0.956-0.906,1.457C8,18.283,7.815,18.423,7.871,18.726
	c1.009-0.828,1.984-1.625,2.945-2.412c0.295,0.148,0.556,0.297,0.829,0.414c1.056,0.449,1.977,1.1,2.764,1.922
	c0.233,0.242,0.484,0.326,0.757,0.322c0.658-0.008,1.313,0.07,1.971,0.066c0.393-0.003,0.789-0.035,1.176,0.072
	c0.013,0.136,0.086,0.25,0.152,0.361c0.353,0.594,0.716,1.187,1.036,1.799c0.087,0.162,0.1,0.334,0.063,0.494
	c-0.08,0.355-0.097,0.719-0.146,1.076c-0.052,0.412-0.108,0.824-0.154,1.237c-0.025,0.231-0.078,0.468-0.064,0.694
	c0.159,0.058,0.184-0.062,0.208-0.131c0.277-0.756,0.548-1.512,0.813-2.271c0.14-0.407,0.333-0.81,0.375-1.226
	c0.077-0.791,0.063-1.595,0.119-2.391c0.029-0.408-0.033-0.824,0.082-1.236c0.379-0.156,0.777-0.143,1.177-0.088
	c0.339,0.045,0.667,0.074,0.949-0.193c0.548-0.516,1.005-1.103,1.411-1.73c0.511,0.129,1.02,0.258,1.522,0.385
	c0.042-0.129-0.005-0.183-0.063-0.23c-0.316-0.271-0.632-0.547-0.957-0.811c-0.087-0.072-0.158-0.202-0.309-0.168
	c0.08-0.205,0.112-0.423,0.165-0.634c0.066-0.272,0.059-0.559,0.161-0.825c0.023-0.315,0.021-0.638,0.168-0.932
	c-0.038-0.182,0.035-0.354,0.046-0.531c0.033-0.523,0.128-1.042,0.178-1.564c0.055-0.6,0.188-1.191,0.001-1.78
	c0.046-0.04,0.072-0.013,0.104,0.004c0.031,0.015,0.069,0.019,0.104,0.021c0.683,0.067,1.229,0.379,1.647,0.922
	c0.552,0.717,1.104,1.433,1.657,2.147c0.192,0.245,0.4,0.494,0.428,0.808c0.063,0.738,0.144,1.47,0.079,2.22
	c-0.063,0.721-0.077,1.45-0.118,2.175c-0.03,0.545-0.088,1.088-0.124,1.632c-0.046,0.704-0.145,1.401-0.208,2.101
	c-0.048,0.524-0.058,1.057-0.121,1.578c-0.028,0.215-0.014,0.432-0.051,0.642c-0.087,0.493-0.09,0.992-0.152,1.485
	c-0.055,0.425-0.065,0.854-0.118,1.278c-0.08,0.634-0.172,1.265-0.269,1.896c-0.05,0.331-0.11,0.665-0.346,0.926
	c-0.16,0.181-0.284,0.385-0.41,0.587c-0.232,0.372-0.393,0.764-0.39,1.223c0.016,1.848,0.006,3.69,0.006,5.537
	c0.218,0,0.435,0,0.652-0.004c0-1.826,0.005-3.652-0.007-5.48c-0.002-0.243,0.056-0.453,0.215-0.609
	c0.577-0.568,0.751-1.3,0.878-2.056c0.133-0.796,0.245-1.597,0.331-2.399c0.071-0.664,0.154-1.326,0.218-1.99
	c0.059-0.576,0.106-1.152,0.164-1.729c0.078-0.78,0.152-1.561,0.216-2.344c0.056-0.658,0.125-1.314,0.169-1.975
	c0.023-0.35,0.03-0.697,0.044-1.048c0.003-0.051-0.016-0.112,0.055-0.136c0-0.995,0-1.991,0-2.987
	C29.772,12.672,29.829,12.461,29.81,12.28z M5.317,8.451C5.192,8.226,5.174,7.976,5.112,7.742c-0.124-0.47-0.221-0.945-0.363-1.408
	c-0.09-0.296-0.024-0.565,0.068-0.831C5.027,4.884,5.4,4.354,5.798,3.844C5.873,3.75,5.965,3.687,6.104,3.651
	c0.633-0.158,1.271-0.293,1.912-0.418c0.195-0.036,0.379-0.016,0.532,0.168C8.8,3.703,9.137,3.933,9.312,4.299
	c0.195,0.412,0.246,0.864,0.326,1.306c0.054,0.295,0.121,0.588,0.127,0.932C8.3,7.177,6.789,7.746,5.317,8.451z M16.04,5.588
	c0.263-0.112,0.521-0.128,0.768-0.183c0.336-0.076,0.686-0.102,1.016-0.194c0.201-0.056,0.36-0.017,0.491,0.103
	c0.468,0.428,0.988,0.795,1.385,1.306c0.21,0.269,0.137,0.539,0.136,0.817c-0.001,0.047-0.042,0.098-0.038,0.153
	c0.039,0.46-0.033,0.916-0.063,1.372c-0.043,0.712-0.051,1.428-0.146,2.139c-0.038,0.291-0.028,0.59-0.043,0.883
	c-0.019,0.422-0.062,0.842-0.076,1.264c-0.016,0.6-0.073,1.195-0.114,1.79c-0.287,0.163-0.568,0.327-0.854,0.485
	c-0.437,0.242-0.875,0.146-1.313,0.004c-0.355-0.114-0.696-0.252-1.015-0.449c-0.092-0.057-0.129-0.112-0.122-0.211
	c0.001-0.01,0-0.018,0-0.027c-0.085-2.917-0.045-5.836-0.056-8.753C15.993,5.922,16.093,5.776,16.04,5.588z M11.475,12.3
	c0.728-0.585,1.466-1.156,2.171-1.768c0.278-0.244,0.413-0.615,0.503-0.977c0.153-0.621,0.251-1.25,0.286-1.894
	c0.022-0.429,0.057-0.851,0.001-1.282c-0.033-0.256-0.142-0.431-0.333-0.566c-0.394-0.277-0.789-0.541-1.307-0.528
	c-0.249,0.006-0.438,0.141-0.646,0.226c-0.483,0.196-0.954,0.418-1.432,0.629c-0.043,0.02-0.086,0.022-0.13,0.006
	c-0.089-0.56-0.114-1.129-0.235-1.685c-0.015-0.06,0.004-0.116,0.047-0.174c0.251-0.332,0.495-0.669,0.738-1.007
	c0.11-0.154,0.27-0.247,0.444-0.258c0.563-0.029,1.11-0.166,1.674-0.181c0.229-0.006,0.402,0.068,0.543,0.228
	c0.399,0.453,0.771,0.928,1.077,1.451c0.066,0.111,0.091,0.226,0.09,0.355c-0.005,0.625,0.015,1.25-0.005,1.874
	c-0.024,0.894,0.099,1.785,0.053,2.676c-0.081,1.571-0.03,3.142-0.051,4.714c-0.001,0.025-0.007,0.053-0.018,0.125
	c-1.155-0.104-2.261-0.44-3.379-0.676c-0.114-0.371-0.082-0.751-0.176-1.109C11.369,12.397,11.412,12.351,11.475,12.3z
	 M14.536,14.614c-1.05-0.182-2.087-0.422-3.12-0.68c-0.187-0.047-0.246-0.129-0.261-0.311c-0.024-0.297-0.034-0.6-0.143-0.896
	c0.002-0.001,0.003-0.001,0.005-0.001c0.111,0.295,0.123,0.6,0.145,0.896c0.014,0.182,0.073,0.266,0.26,0.311
	c1.034,0.26,2.072,0.498,3.12,0.68c0.179,0.03,0.367,0.058,0.557,0.039C14.907,14.673,14.716,14.646,14.536,14.614z M15.926,15.343
	c-0.18-0.117-0.283-0.297-0.259-0.531c0.015-0.117,0.002-0.238,0.002-0.4c0.002-0.002,0.004-0.002,0.006-0.004
	c0,0.165,0.013,0.285-0.002,0.404c-0.024,0.235,0.079,0.414,0.261,0.531c0.641,0.422,1.347,0.66,2.116,0.699
	c-0.001,0-0.002,0.001-0.003,0.001C17.278,16.004,16.571,15.765,15.926,15.343z M21.385,15.661
	c-0.535-0.162-1.048-0.376-1.452-0.782c-0.05-0.048-0.085-0.108-0.182-0.085v-0.001c0.102-0.028,0.139,0.037,0.188,0.086
	c0.404,0.406,0.918,0.62,1.453,0.782c0.227,0.069,0.446,0.173,0.699,0.17c-0.002,0-0.003,0-0.004,0
	C21.833,15.835,21.614,15.731,21.385,15.661z M24.505,9.366c-0.053,0.246-0.047,0.494-0.082,0.74
	c-0.098,0.676-0.175,1.354-0.271,2.031c-0.088,0.631-0.208,1.258-0.287,1.891c-0.018,0.147-0.074,0.289-0.107,0.436
	c-0.026,0.12-0.106,0.169-0.215,0.198c-0.407,0.108-0.813,0.228-1.196,0.407c-0.142,0.066-0.253-0.028-0.371-0.062
	c-0.415-0.114-0.835-0.223-1.194-0.481c-0.224-0.158-0.325-0.323-0.295-0.635c0.05-0.496,0.094-0.996,0.134-1.494
	c0.035-0.433,0.086-0.865,0.14-1.297c0.047-0.361,0.08-0.727,0.128-1.088c0.108-0.855,0.188-1.72,0.497-2.554
	c0.457,0.042,0.845-0.099,1.239-0.192c0.123-0.029,0.233-0.031,0.332,0.039c0.522,0.373,1.022,0.768,1.409,1.297
	C24.545,8.849,24.561,9.112,24.505,9.366z"/>
</svg>
