<?xml version="1.0" encoding="utf-8"?>
<!-- Generator: Adobe Illustrator 16.0.0, SVG Export Plug-In . SVG Version: 6.00 Build 0)  -->
<!DOCTYPE svg PUBLIC "-//W3C//DTD SVG 1.1//EN" "http://www.w3.org/Graphics/SVG/1.1/DTD/svg11.dtd">
<svg version="1.1" id="图层_1" xmlns="http://www.w3.org/2000/svg" xmlns:xlink="http://www.w3.org/1999/xlink" x="0px" y="0px"
	 width="27.5px" height="32px" viewBox="0 0 27.5 32" enable-background="new 0 0 27.5 32" xml:space="preserve">
<rect fill="none" width="27.5" height="32"/>
<g>
	<g>
		<g>
			<g>
				<g>
					
						<linearGradient id="SVGID_1_" gradientUnits="userSpaceOnUse" x1="-901.7192" y1="23.9805" x2="-900.8672" y2="22.8427" gradientTransform="matrix(27.344 0 0 24.4009 24657.5156 -558.7417)">
						<stop  offset="0.2266" style="stop-color:#000000"/>
						<stop  offset="0.4335" style="stop-color:#FFD400"/>
						<stop  offset="0.7488" style="stop-color:#FF0000"/>
					</linearGradient>
					<path fill="url(#SVGID_1_)" d="M27.344,13.253v0.827c0,0.06-0.02,0.108-0.059,0.147c-0.061,0.119-0.157,0.227-0.295,0.324
						c-0.118,0.1-0.256,0.168-0.414,0.207c-0.178,0.059-0.346,0.079-0.501,0.059c-0.198-0.039-0.396-0.126-0.591-0.266
						c-1.28-0.846-2.452-1.477-3.514-1.889c-1.063-0.395-2.06-0.64-2.984-0.739c-0.846-0.019-1.613,0.01-2.303,0.089
						c-0.649,0.099-1.25,0.188-1.803,0.267c-0.395,0.079-0.778,0.118-1.152,0.118c-0.374,0.019-0.747,0.029-1.122,0.029H12.43
						c-0.216-0.098-0.432-0.188-0.649-0.267c-0.158-0.079-0.336-0.137-0.532-0.177c-0.196-0.06-0.343-0.108-0.442-0.147
						c-0.099,0.157-0.188,0.305-0.267,0.443c-0.078,0.118-0.196,0.216-0.353,0.295c0.078,0.138,0.246,0.404,0.5,0.797
						c0.257,0.354,0.502,0.689,0.739,1.003c-0.019,0.041-0.019,0.07,0,0.091c0,0.058,0.04,0.087,0.119,0.087l0.885,0.739
						c0.216,0,0.216,0.107,0,0.325c-0.059,0.059-0.097,0.088-0.118,0.088c-0.019,0-0.078-0.029-0.177-0.088l-0.443-0.325
						c0.178,0.532,0.307,1.072,0.384,1.624c0.059,0.552,0.138,1.171,0.236,1.859c0.295,1.438,0.828,2.746,1.595,3.928
						c0.768,1.182,1.813,2.195,3.13,3.042c0.197,0.157,0.324,0.295,0.384,0.413c0.021,0.138,0.03,0.256,0.03,0.354v0.178
						c0,0.157-0.03,0.295-0.09,0.414c-0.059,0.138-0.137,0.234-0.235,0.295c0,0.099-0.028,0.207-0.089,0.323
						c-0.079,0.101-0.246,0.147-0.501,0.147c-0.158,0.178-0.453,0.117-0.888-0.18L15.503,27.6c-1.595-1.004-2.864-2.166-3.81-3.482
						c-0.924-1.34-1.584-2.807-1.978-4.399c-0.078-0.631-0.138-1.19-0.178-1.684C9.46,17.543,9.42,17.08,9.42,16.646
						c-0.098-0.314-0.157-0.63-0.177-0.944c-0.018-0.335-0.048-0.57-0.088-0.708L8.83,14.641l-0.591-0.974
						c-0.197-0.197-0.354-0.384-0.472-0.562c-0.137-0.177-0.246-0.324-0.325-0.442c-0.118-0.118-0.177-0.197-0.177-0.236
						c-0.078-0.04-0.245-0.107-0.501-0.206c-0.236-0.12-0.483-0.228-0.739-0.326c-0.314-0.118-0.659-0.245-1.034-0.383L0.147,7.554
						L0,7.348C0,7.269,0.05,7.23,0.147,7.23V7.082c0-0.099,0.099-0.147,0.295-0.147L5.61,8.913c0.079,0.059,0.118,0.128,0.118,0.206
						c0.02,0.08,0.031,0.157,0.031,0.236c0,0.296,0.049,0.443,0.147,0.443C6.103,9.857,6.25,9.848,6.349,9.77
						c0.079-0.04,0.138-0.079,0.177-0.118V9.504l0.561-0.739c0.079-0.137,0.089-0.246,0.03-0.324C7.019,8.4,6.929,8.381,6.85,8.381
						L6.674,8.44c-0.098,0-0.196,0-0.296,0C6.259,8.42,6.201,8.371,6.201,8.293L2.893,3.922V3.567h0.443l4.4,3.072h0.177
						C8.229,7.071,8.504,7.455,8.74,7.791c0.217,0.295,0.413,0.571,0.591,0.826C9.547,8.854,9.675,8.991,9.715,9.03
						c0.098,0.039,0.296,0.099,0.591,0.178c0.274,0.098,0.57,0.187,0.885,0.266c0.335,0.099,0.649,0.178,0.945,0.236
						c0.275,0.06,0.433,0.089,0.472,0.089c0.197,0,0.789-0.05,1.772-0.147c0.945-0.1,2.224-0.147,3.838-0.147
						c0.945,0,1.724,0.029,2.332,0.088c0.612,0.079,1.212,0.236,1.802,0.473c0.592,0.256,1.25,0.61,1.98,1.063
						c0.727,0.472,1.663,1.11,2.805,1.918C27.236,13.105,27.305,13.175,27.344,13.253z M12.431,13.461l1.211,0.472
						c0.098,0,0.147,0.098,0.147,0.295c-0.078,0-0.127,0.02-0.147,0.06c-0.02,0.038-0.07,0.02-0.148-0.06l-1.181-0.295
						c-0.098,0-0.157-0.03-0.177-0.089c0-0.079,0-0.138,0-0.177c0-0.119,0.039-0.178,0.117-0.178
						C12.313,13.47,12.372,13.461,12.431,13.461z M12.608,13.046c0-0.077,0.02-0.127,0.059-0.146
						c0.02-0.042,0.049-0.061,0.088-0.061l1.211,0.206c0.079,0,0.158,0.029,0.237,0.09c0.059,0.058,0.088,0.117,0.088,0.177
						c0,0.079-0.029,0.128-0.088,0.148c-0.08,0-0.159,0-0.237,0l-1.211-0.148C12.658,13.313,12.608,13.225,12.608,13.046z
						 M13.228,14.996c-0.117,0-0.206,0.01-0.265,0.029c-0.04,0.039-0.059,0.029-0.059-0.029l-1.064-0.622
						c-0.097,0-0.147-0.097-0.147-0.294c0.079,0,0.128-0.02,0.147-0.059c0.021-0.039,0.081-0.021,0.177,0.059l1.005,0.561
						c0.118,0,0.188,0.04,0.206,0.118C13.228,14.838,13.228,14.917,13.228,14.996z"/>
				</g>
			</g>
		</g>
	</g>
</g>
<path fill="none" d="M65.193,45.746c0.078,0.059,0.117,0.128,0.117,0.206c0.021,0.08,0.031,0.157,0.031,0.235
	c0,0.297,0.049,0.443,0.146,0.443c0.197,0.059,0.345,0.051,0.443-0.027c0.08-0.041,0.139-0.08,0.178-0.119v-0.147l0.561-0.739
	c0.079-0.137,0.089-0.246,0.03-0.324c-0.099-0.041-0.188-0.06-0.267-0.06l-0.177,0.06c-0.098,0-0.196,0-0.296,0
	c-0.119-0.021-0.177-0.069-0.177-0.147l-1.063-1.404c-0.789,0.268-1.531,0.604-2.223,0.993L65.193,45.746z"/>
<path fill="none" d="M63.011,47.067l-1.855-1.516c-0.446,0.313-0.854,0.642-1.243,0.972C60.988,46.618,62.03,46.812,63.011,47.067z"
	/>
<linearGradient id="SVGID_2_" gradientUnits="userSpaceOnUse" x1="-899.8721" y1="25.2402" x2="-899.0204" y2="24.1028" gradientTransform="matrix(27.344 0 0 24.4009 24657.5156 -558.7417)">
	<stop  offset="0.2266" style="stop-color:#000000"/>
	<stop  offset="0.4335" style="stop-color:#FFD400"/>
	<stop  offset="0.7488" style="stop-color:#FF0000"/>
</linearGradient>
<path fill="url(#SVGID_2_)" d="M62.919,40.4h-0.442v0.354l1.379,1.822c1.002,0.042,1.887,0.153,2.562,0.266L62.919,40.4z"/>
<linearGradient id="SVGID_3_" gradientUnits="userSpaceOnUse" x1="-899.5039" y1="25.5156" x2="-898.6522" y2="24.3782" gradientTransform="matrix(27.344 0 0 24.4009 24657.5156 -558.7417)">
	<stop  offset="0.2266" style="stop-color:#000000"/>
	<stop  offset="0.4335" style="stop-color:#FFD400"/>
	<stop  offset="0.7488" style="stop-color:#FF0000"/>
</linearGradient>
<path fill="url(#SVGID_3_)" d="M73.225,51.121c0.021-0.04,0.069-0.061,0.147-0.061c0-0.196-0.049-0.295-0.147-0.295l-1.211-0.472
	c-0.059,0-0.117,0.009-0.178,0.028c-0.078,0-0.117,0.059-0.117,0.178c0,0.039,0,0.098,0,0.177c0.02,0.06,0.079,0.089,0.178,0.089
	l1.181,0.295C73.154,51.141,73.205,51.159,73.225,51.121z"/>
<linearGradient id="SVGID_4_" gradientUnits="userSpaceOnUse" x1="-899.5039" y1="25.5156" x2="-898.6522" y2="24.3782" gradientTransform="matrix(27.344 0 0 24.4009 24657.5156 -558.7417)">
	<stop  offset="0.2266" style="stop-color:#000000"/>
	<stop  offset="0.4335" style="stop-color:#FFD400"/>
	<stop  offset="0.7488" style="stop-color:#FF0000"/>
</linearGradient>
<path fill="url(#SVGID_4_)" d="M86.72,49.88c-1.142-0.808-2.078-1.446-2.805-1.918c-0.73-0.453-1.389-0.807-1.98-1.063
	c-0.59-0.236-1.189-0.394-1.802-0.473c-0.608-0.059-1.387-0.088-2.332-0.088c-1.614,0-2.893,0.047-3.838,0.146
	c-0.982,0.098-1.574,0.147-1.771,0.147c-0.039,0-0.197-0.028-0.473-0.089c-0.296-0.059-0.609-0.137-0.945-0.236
	c-0.314-0.078-0.61-0.168-0.885-0.266c-0.295-0.079-0.492-0.139-0.591-0.178c-0.04-0.039-0.168-0.176-0.384-0.413
	c-0.178-0.255-0.374-0.531-0.591-0.826c-0.236-0.336-0.511-0.72-0.827-1.151h-0.178l-0.379-0.265
	c-0.775,0.099-1.515,0.274-2.218,0.514l1.063,1.404c0,0.078,0.058,0.127,0.177,0.147c0.1,0,0.198,0,0.296,0l0.177-0.06
	c0.078,0,0.168,0.019,0.267,0.06c0.059,0.078,0.049,0.188-0.03,0.324l-0.561,0.739v0.147c-0.039,0.039-0.098,0.078-0.178,0.119
	c-0.099,0.078-0.246,0.086-0.443,0.027c-0.098,0-0.146-0.146-0.146-0.443c0-0.078-0.011-0.155-0.031-0.235
	c0-0.078-0.039-0.147-0.117-0.206l-2.694-1.031c-0.469,0.264-0.923,0.54-1.344,0.837l1.855,1.516c4.088,1.069,7.106,3.17,7.106,3.17
	c-1.038-0.374-2.062-0.595-3.061-0.699c0.076,0.112,0.169,0.239,0.293,0.399c0.118,0.179,0.275,0.365,0.473,0.563l0.591,0.975
	l0.325,0.353c0.039,0.138,0.07,0.373,0.088,0.708c0.02,0.314,0.078,0.63,0.177,0.944c0,0.434,0.04,0.896,0.117,1.388
	c0.04,0.493,0.101,1.053,0.178,1.684c0.394,1.593,1.054,3.06,1.978,4.399c0.947,1.316,2.216,2.479,3.811,3.482l0.146,0.088
	c0.435,0.297,0.729,0.357,0.888,0.18c0.255,0,0.422-0.047,0.501-0.147c0.061-0.116,0.089-0.225,0.089-0.323
	c0.099-0.061,0.177-0.157,0.235-0.295c0.06-0.119,0.09-0.257,0.09-0.414v-0.178c0-0.098-0.01-0.216-0.03-0.354
	c-0.06-0.118-0.187-0.256-0.384-0.413c-1.316-0.847-2.362-1.86-3.13-3.042s-1.301-2.49-1.596-3.928
	c-0.098-0.688-0.177-1.308-0.235-1.859c-0.077-0.552-0.206-1.092-0.384-1.624l0.442,0.325c0.099,0.059,0.158,0.088,0.177,0.088
	c0.021,0,0.06-0.029,0.119-0.088c0.215-0.218,0.215-0.325,0-0.325l-0.886-0.739c-0.079,0-0.119-0.028-0.119-0.087
	c-0.019-0.021-0.019-0.05,0-0.091c-0.237-0.313-0.481-0.649-0.739-1.003c-0.254-0.393-0.422-0.659-0.5-0.797
	c0.158-0.079,0.275-0.178,0.354-0.295c0.079-0.139,0.168-0.286,0.268-0.443c0.099,0.039,0.246,0.087,0.441,0.146
	c0.195,0.041,0.374,0.099,0.532,0.178c0.217,0.078,0.433,0.169,0.649,0.267h0.176c0.375,0,0.748-0.01,1.123-0.028
	c0.373,0,0.757-0.039,1.151-0.119c0.553-0.078,1.153-0.168,1.803-0.266c0.689-0.08,1.457-0.109,2.303-0.09
	c0.925,0.1,1.921,0.344,2.984,0.739c1.062,0.412,2.233,1.043,3.514,1.889c0.195,0.14,0.393,0.228,0.591,0.267
	c0.155,0.02,0.323,0,0.501-0.06c0.158-0.039,0.296-0.106,0.414-0.207c0.138-0.097,0.234-0.204,0.295-0.323
	c0.039-0.039,0.059-0.088,0.059-0.147v-0.827C86.888,50.008,86.819,49.938,86.72,49.88z"/>
<linearGradient id="SVGID_5_" gradientUnits="userSpaceOnUse" x1="-899.5059" y1="25.5146" x2="-898.6542" y2="24.3772" gradientTransform="matrix(27.344 0 0 24.4009 24657.5156 -558.7417)">
	<stop  offset="0.2266" style="stop-color:#000000"/>
	<stop  offset="0.4335" style="stop-color:#FFD400"/>
	<stop  offset="0.7488" style="stop-color:#FF0000"/>
</linearGradient>
<path fill="url(#SVGID_5_)" d="M73.786,50.293c0.059-0.02,0.088-0.068,0.088-0.148c0-0.06-0.029-0.119-0.088-0.177
	c-0.079-0.061-0.158-0.09-0.237-0.09l-1.211-0.206c-0.039,0-0.068,0.02-0.088,0.061c-0.039,0.02-0.059,0.069-0.059,0.146
	c0,0.18,0.05,0.268,0.146,0.266l1.211,0.148C73.627,50.293,73.706,50.293,73.786,50.293z"/>
<linearGradient id="SVGID_6_" gradientUnits="userSpaceOnUse" x1="-899.5029" y1="25.5176" x2="-898.6512" y2="24.3801" gradientTransform="matrix(27.344 0 0 24.4009 24657.5156 -558.7417)">
	<stop  offset="0.2266" style="stop-color:#000000"/>
	<stop  offset="0.4335" style="stop-color:#FFD400"/>
	<stop  offset="0.7488" style="stop-color:#FF0000"/>
</linearGradient>
<path fill="url(#SVGID_6_)" d="M71.6,50.913c-0.096-0.08-0.156-0.099-0.177-0.06c-0.019,0.039-0.067,0.06-0.147,0.06
	c0,0.196,0.051,0.294,0.147,0.294l1.063,0.622c0,0.058,0.02,0.067,0.06,0.028c0.06-0.019,0.147-0.028,0.265-0.028
	c0-0.079,0-0.158,0-0.237c-0.018-0.078-0.088-0.117-0.205-0.117L71.6,50.913z"/>
<linearGradient id="SVGID_7_" gradientUnits="userSpaceOnUse" x1="55.9141" y1="53.7344" x2="66.3676" y2="47.7123" gradientTransform="matrix(0.8057 -0.5923 0.5923 0.8057 -20.2625 45.7328)">
	<stop  offset="0.3505" style="stop-color:#FFE3A0"/>
	<stop  offset="1" style="stop-color:#00FFFF"/>
</linearGradient>
<path fill="url(#SVGID_7_)" d="M66.848,49.26c-0.078-0.039-0.244-0.107-0.5-0.205c-0.236-0.121-0.484-0.229-0.74-0.326
	c-0.313-0.119-0.658-0.246-1.033-0.383l-1.563-1.278c-0.98-0.256-2.022-0.449-3.099-0.544c-2.217,1.88-3.482,3.835-3.482,3.835
	l-1.135-3.517c-0.939,0.229-1.877,0.567-2.796,1.051l1.434,6.388c0,0,5.89-5.497,13.124-4.742c-0.008-0.012-0.023-0.03-0.031-0.042
	C66.907,49.378,66.848,49.299,66.848,49.26z"/>
<linearGradient id="SVGID_8_" gradientUnits="userSpaceOnUse" x1="-899.6846" y1="25.3809" x2="-898.8329" y2="24.2434" gradientTransform="matrix(27.344 0 0 24.4009 24657.5156 -558.7417)">
	<stop  offset="0.2266" style="stop-color:#000000"/>
	<stop  offset="0.4335" style="stop-color:#FFD400"/>
	<stop  offset="0.7488" style="stop-color:#FF0000"/>
</linearGradient>
<path fill="url(#SVGID_8_)" d="M63.011,47.067l1.563,1.278c0.375,0.137,0.72,0.264,1.033,0.383c0.256,0.098,0.504,0.205,0.74,0.326
	c0.256,0.098,0.422,0.166,0.5,0.205c0,0.039,0.06,0.118,0.178,0.236c0.008,0.012,0.023,0.03,0.031,0.042
	c0.999,0.104,2.022,0.325,3.061,0.699C70.117,50.237,67.099,48.137,63.011,47.067z"/>
<linearGradient id="SVGID_9_" gradientUnits="userSpaceOnUse" x1="32.8174" y1="-5.8818" x2="43.2709" y2="-11.9039" gradientTransform="matrix(0.8057 -0.5923 0.5923 0.8057 -20.2625 45.7328)">
	<stop  offset="0.3505" style="stop-color:#FFE3A0"/>
	<stop  offset="1" style="stop-color:#00FFFF"/>
</linearGradient>
<path fill="url(#SVGID_9_)" d="M3.428,10.224l1.563,1.278c0.375,0.137,0.72,0.264,1.033,0.383c0.256,0.098,0.504,0.205,0.74,0.326
	c0.256,0.098,0.422,0.166,0.5,0.205c0,0.039,0.06,0.118,0.178,0.236c0.008,0.012,0.023,0.03,0.031,0.042
	c0.999,0.104,2.022,0.325,3.061,0.699C10.534,13.394,7.516,11.293,3.428,10.224z"/>
<linearGradient id="SVGID_10_" gradientUnits="userSpaceOnUse" x1="53.6494" y1="57.2588" x2="62.9144" y2="51.9214" gradientTransform="matrix(0.6598 -0.7514 0.7514 0.6598 -13.2404 55.022)">
	<stop  offset="0.1781" style="stop-color:#FFE3A0"/>
	<stop  offset="1" style="stop-color:#00FFFF"/>
</linearGradient>
<path fill="url(#SVGID_10_)" d="M67.762,43.118c0,0-0.513-0.137-1.345-0.275l0.522,0.365C67.211,43.173,67.481,43.132,67.762,43.118
	z"/>
<linearGradient id="SVGID_11_" gradientUnits="userSpaceOnUse" x1="-899.8984" y1="25.2207" x2="-899.0468" y2="24.0833" gradientTransform="matrix(27.344 0 0 24.4009 24657.5156 -558.7417)">
	<stop  offset="0.2266" style="stop-color:#000000"/>
	<stop  offset="0.4335" style="stop-color:#FFD400"/>
	<stop  offset="0.7488" style="stop-color:#FF0000"/>
</linearGradient>
<path fill="url(#SVGID_11_)" d="M59.73,43.915v0.147c-0.098,0-0.147,0.039-0.147,0.119l0.147,0.205l1.425,1.165
	c0.421-0.297,0.875-0.573,1.344-0.837l-2.474-0.947C59.829,43.768,59.73,43.816,59.73,43.915z"/>
<linearGradient id="SVGID_12_" gradientUnits="userSpaceOnUse" x1="39.208" y1="-16.7144" x2="48.4692" y2="-22.0495" gradientTransform="matrix(0.6598 -0.7514 0.7514 0.6598 -13.2404 55.022)">
	<stop  offset="0.1781" style="stop-color:#FFE3A0"/>
	<stop  offset="1" style="stop-color:#00FFFF"/>
</linearGradient>
<path fill="url(#SVGID_12_)" d="M0.147,7.071v0.147C0.05,7.219,0,7.258,0,7.338l0.147,0.205l1.425,1.165
	c0.421-0.297,0.875-0.573,1.344-0.837L0.442,6.924C0.246,6.924,0.147,6.973,0.147,7.071z"/>
<linearGradient id="SVGID_13_" gradientUnits="userSpaceOnUse" x1="-899.8252" y1="25.2754" x2="-898.9735" y2="24.138" gradientTransform="matrix(27.344 0 0 24.4009 24657.5156 -558.7417)">
	<stop  offset="0.2266" style="stop-color:#000000"/>
	<stop  offset="0.4335" style="stop-color:#FFD400"/>
	<stop  offset="0.7488" style="stop-color:#FF0000"/>
</linearGradient>
<path fill="url(#SVGID_13_)" d="M66.939,43.208l-0.522-0.365c-0.675-0.112-1.56-0.224-2.562-0.266l0.866,1.145
	C65.425,43.482,66.164,43.307,66.939,43.208z"/>
<linearGradient id="SVGID_14_" gradientUnits="userSpaceOnUse" x1="41.1855" y1="-13.2769" x2="50.4505" y2="-18.6142" gradientTransform="matrix(0.6598 -0.7514 0.7514 0.6598 -13.2404 55.022)">
	<stop  offset="0.1781" style="stop-color:#FFE3A0"/>
	<stop  offset="1" style="stop-color:#00FFFF"/>
</linearGradient>
<path fill="url(#SVGID_14_)" d="M7.356,6.364L6.834,5.999c-0.675-0.112-1.56-0.224-2.562-0.266l0.866,1.145
	C5.842,6.639,6.581,6.463,7.356,6.364z"/>
<linearGradient id="SVGID_15_" gradientUnits="userSpaceOnUse" x1="54.5117" y1="51.3008" x2="64.9653" y2="45.2787" gradientTransform="matrix(0.8057 -0.5923 0.5923 0.8057 -20.2625 45.7328)">
	<stop  offset="0.3505" style="stop-color:#FFE3A0"/>
	<stop  offset="1" style="stop-color:#00FFFF"/>
</linearGradient>
<path fill="url(#SVGID_15_)" d="M59.912,46.523c-1.497-0.132-3.059-0.063-4.617,0.318l1.135,3.517
	C56.43,50.358,57.695,48.403,59.912,46.523z"/>
<linearGradient id="SVGID_16_" gradientUnits="userSpaceOnUse" x1="49.3701" y1="49.8311" x2="58.6351" y2="44.4937" gradientTransform="matrix(0.6598 -0.7514 0.7514 0.6598 -13.2404 55.022)">
	<stop  offset="0.1781" style="stop-color:#FFE3A0"/>
	<stop  offset="1" style="stop-color:#00FFFF"/>
</linearGradient>
<path fill="url(#SVGID_16_)" d="M59.912,46.523c-1.497-0.132-3.059-0.063-4.617,0.318l1.135,3.517
	C56.43,50.358,57.695,48.403,59.912,46.523z"/>
<g>
	<g>
		<g>
			<g>
				<g>
					<g>
						<linearGradient id="SVGID_17_" gradientUnits="userSpaceOnUse" x1="20.8389" y1="5.9424" x2="6.6718" y2="18.5862">
							<stop  offset="0" style="stop-color:#BB925B"/>
							<stop  offset="0.3429" style="stop-color:#FFF6DA"/>
							<stop  offset="0.6571" style="stop-color:#FFF1B1"/>
							<stop  offset="1" style="stop-color:#B38B54"/>
						</linearGradient>
						<path fill="url(#SVGID_17_)" d="M8.148,8.677c0.129,0.18,0.25,0.351,0.363,0.513c0.024,0.035,0.051,0.068,0.08,0.1
							C8.83,9.552,8.972,9.703,9.017,9.746C9.111,9.837,9.223,9.91,9.345,9.958c0.091,0.037,0.249,0.093,0.664,0.205
							c0.302,0.105,0.617,0.199,0.897,0.269c0.359,0.106,0.708,0.193,1.015,0.254c0.474,0.104,0.583,0.112,0.687,0.112
							c0.167,0,0.52-0.019,1.876-0.153c0.9-0.095,2.122-0.141,3.733-0.141c0.91,0,1.662,0.028,2.204,0.08
							c0.525,0.067,1.05,0.205,1.531,0.397c0.544,0.236,1.167,0.571,1.834,0.985c0.694,0.45,1.553,1.036,2.557,1.743v0.07
							c-0.003,0.002-0.005,0.004-0.007,0.006c-0.026,0.007-0.053,0.014-0.078,0.022c-0.018,0.006-0.031,0.01-0.041,0.012
							c-0.049-0.019-0.106-0.051-0.183-0.104c-1.337-0.884-2.583-1.552-3.716-1.992c-1.127-0.419-2.213-0.687-3.226-0.796
							c-0.028-0.003-0.057-0.005-0.084-0.006c-0.177-0.004-0.35-0.006-0.52-0.006c-0.69,0-1.337,0.034-1.955,0.106
							c-0.646,0.098-1.244,0.187-1.794,0.265c-0.021,0.003-0.04,0.006-0.06,0.01c-0.324,0.066-0.645,0.1-1.002,0.101
							c-0.346,0.018-0.691,0.026-1.039,0.027c-0.156-0.067-0.313-0.131-0.47-0.188c-0.203-0.096-0.423-0.17-0.67-0.225
							c-0.143-0.044-0.252-0.078-0.327-0.108c-0.12-0.047-0.244-0.069-0.366-0.069c-0.335,0-0.659,0.169-0.847,0.467
							c-0.084,0.134-0.162,0.262-0.233,0.383c-0.24,0.124-0.419,0.34-0.498,0.599c-0.08,0.262-0.048,0.545,0.087,0.783
							c0.083,0.146,0.26,0.43,0.53,0.847c0.01,0.016,0.02,0.03,0.031,0.045c0.203,0.278,0.398,0.547,0.588,0.802
							c0.001,0.003,0.002,0.006,0.003,0.009c0.045,0.155,0.124,0.296,0.229,0.413c-0.015,0.141-0.001,0.285,0.046,0.426
							c0.16,0.477,0.275,0.963,0.338,1.413c0.059,0.553,0.138,1.172,0.241,1.895c0.002,0.02,0.006,0.039,0.01,0.061
							c0.318,1.549,0.902,2.986,1.736,4.271c0.83,1.277,1.967,2.391,3.38,3.307c0.002,0.002,0.005,0.004,0.008,0.008l0.009,0.084
							c-0.082,0.072-0.15,0.156-0.204,0.25c-0.016-0.01-0.032-0.021-0.049-0.033c-0.016-0.01-0.031-0.021-0.048-0.031l-0.129-0.078
							c-1.475-0.928-2.663-2.01-3.52-3.203c-0.841-1.219-1.452-2.57-1.816-4.014c-0.075-0.619-0.13-1.137-0.166-1.582
							c-0.002-0.025-0.005-0.051-0.009-0.074c-0.07-0.443-0.105-0.859-0.105-1.232c0-0.102-0.015-0.202-0.045-0.298
							c-0.074-0.235-0.118-0.475-0.133-0.7c-0.022-0.417-0.063-0.714-0.126-0.934c-0.043-0.148-0.12-0.284-0.225-0.398l-0.257-0.279
							l-0.54-0.889c-0.042-0.068-0.091-0.131-0.147-0.188c-0.15-0.15-0.266-0.287-0.345-0.406c-0.014-0.021-0.029-0.043-0.045-0.063
							c-0.12-0.154-0.215-0.281-0.284-0.385c-0.036-0.054-0.077-0.104-0.123-0.149c-0.001-0.001-0.003-0.003-0.005-0.005
							c-0.096-0.178-0.245-0.326-0.433-0.42c-0.087-0.044-0.268-0.12-0.542-0.226C6.926,11.183,6.667,11.07,6.38,10.96
							c-0.109-0.042-0.222-0.084-0.338-0.127c0.031,0.001,0.063,0.002,0.094,0.002c0.271,0,0.524-0.072,0.738-0.212
							c0.144-0.08,0.262-0.168,0.36-0.266c0.134-0.135,0.227-0.303,0.268-0.485l0.382-0.504c0.025-0.033,0.048-0.067,0.069-0.104
							C8.064,9.073,8.129,8.874,8.148,8.677 M3.899,9.329l0.878,0.336c0.025,0.197,0.074,0.359,0.138,0.494L3.899,9.329
							 M3.336,3.567H2.893v0.354l3.308,4.371c0,0.078,0.058,0.127,0.177,0.147c0.1,0,0.198,0,0.296,0L6.85,8.38
							c0.079,0,0.169,0.019,0.267,0.06c0.059,0.078,0.049,0.188-0.03,0.324L6.526,9.503v0.147C6.487,9.69,6.428,9.729,6.349,9.77
							C6.293,9.814,6.222,9.835,6.135,9.835c-0.067,0-0.144-0.013-0.229-0.038c-0.098,0-0.147-0.146-0.147-0.443
							c0-0.078-0.011-0.155-0.031-0.235c0-0.078-0.039-0.147-0.118-0.206L0.442,6.934c-0.196,0-0.295,0.049-0.295,0.147v0.147
							C0.05,7.229,0,7.268,0,7.348l0.147,0.205l4.844,3.959c0.375,0.137,0.72,0.264,1.034,0.383
							c0.256,0.098,0.503,0.205,0.739,0.326c0.256,0.098,0.423,0.166,0.501,0.205c0,0.039,0.059,0.118,0.177,0.236
							c0.079,0.118,0.188,0.265,0.325,0.441c0.118,0.179,0.275,0.365,0.472,0.563l0.591,0.975l0.325,0.353
							c0.04,0.138,0.07,0.373,0.088,0.708c0.02,0.314,0.079,0.63,0.177,0.945c0,0.434,0.04,0.896,0.117,1.387
							c0.04,0.494,0.1,1.053,0.178,1.684c0.394,1.594,1.054,3.061,1.978,4.4c0.946,1.316,2.215,2.479,3.81,3.482l0.146,0.088
							c0.272,0.186,0.489,0.279,0.653,0.279c0.097,0,0.175-0.033,0.234-0.1c0.255,0,0.422-0.047,0.501-0.148
							c0.061-0.115,0.089-0.225,0.089-0.322c0.099-0.061,0.177-0.158,0.235-0.295c0.06-0.119,0.09-0.258,0.09-0.414V26.51
							c0-0.098-0.01-0.217-0.03-0.354c-0.06-0.119-0.187-0.256-0.384-0.414c-1.316-0.846-2.362-1.859-3.13-3.041
							c-0.767-1.182-1.3-2.49-1.595-3.928c-0.098-0.689-0.177-1.309-0.236-1.859c-0.077-0.552-0.206-1.092-0.384-1.625l0.443,0.325
							c0.099,0.059,0.158,0.088,0.177,0.088c0.021,0,0.059-0.029,0.118-0.088c0.216-0.218,0.216-0.325,0-0.325l-0.885-0.739
							c-0.079,0-0.119-0.028-0.119-0.087c-0.019-0.021-0.019-0.05,0-0.091c-0.237-0.313-0.482-0.649-0.739-1.003
							c-0.254-0.393-0.422-0.659-0.5-0.797c0.157-0.079,0.275-0.178,0.353-0.295c0.079-0.139,0.168-0.286,0.267-0.443
							c0.099,0.039,0.246,0.087,0.442,0.146c0.196,0.041,0.374,0.099,0.532,0.178c0.217,0.078,0.433,0.169,0.649,0.267h0.177
							c0.375,0,0.748-0.01,1.122-0.028c0.374,0,0.757-0.039,1.152-0.119c0.553-0.078,1.153-0.168,1.803-0.266
							c0.552-0.064,1.154-0.096,1.807-0.096c0.162,0,0.327,0.002,0.496,0.006c0.925,0.1,1.921,0.344,2.984,0.739
							c1.062,0.412,2.233,1.043,3.514,1.889c0.195,0.14,0.393,0.228,0.591,0.267c0.039,0.005,0.078,0.007,0.118,0.007
							c0.121,0,0.249-0.021,0.383-0.066c0.158-0.039,0.296-0.106,0.414-0.207c0.138-0.097,0.234-0.204,0.295-0.323
							c0.039-0.039,0.059-0.088,0.059-0.147v-0.827c-0.039-0.078-0.107-0.148-0.207-0.206c-1.142-0.808-2.078-1.446-2.805-1.918
							c-0.73-0.453-1.389-0.807-1.98-1.063c-0.59-0.236-1.189-0.394-1.802-0.473c-0.608-0.059-1.387-0.088-2.332-0.088
							c-1.614,0-2.893,0.047-3.838,0.146c-0.983,0.098-1.575,0.147-1.772,0.147c-0.039,0-0.197-0.028-0.472-0.089
							c-0.296-0.059-0.61-0.137-0.945-0.236c-0.315-0.078-0.611-0.168-0.885-0.266C10.011,9.128,9.813,9.069,9.715,9.03
							c-0.04-0.039-0.168-0.176-0.384-0.413C9.153,8.362,8.957,8.085,8.74,7.791c-0.236-0.336-0.511-0.72-0.827-1.151H7.736
							L3.336,3.567L3.336,3.567z M12.755,12.838c-0.039,0-0.068,0.02-0.088,0.061c-0.039,0.02-0.059,0.069-0.059,0.146
							c0,0.178,0.049,0.266,0.144,0.266c0.001,0,0.002,0,0.003,0l1.211,0.148c0.078,0,0.157,0,0.237,0
							c0.059-0.02,0.088-0.068,0.088-0.148c0-0.06-0.029-0.119-0.088-0.177c-0.079-0.061-0.158-0.09-0.237-0.09L12.755,12.838
							L12.755,12.838z M12.431,13.46c-0.059,0-0.118,0.009-0.178,0.028c-0.078,0-0.117,0.059-0.117,0.178c0,0.039,0,0.098,0,0.177
							c0.02,0.06,0.079,0.089,0.177,0.089l1.181,0.295c0.052,0.054,0.092,0.079,0.118,0.079c0.013,0,0.023-0.006,0.03-0.019
							c0.02-0.04,0.069-0.061,0.147-0.061c0-0.196-0.049-0.295-0.147-0.295L12.431,13.46L12.431,13.46z M11.874,14
							c-0.016,0-0.027,0.007-0.034,0.02c-0.019,0.039-0.068,0.06-0.147,0.06c0,0.196,0.05,0.294,0.147,0.294l1.064,0.622
							c0,0.034,0.007,0.052,0.021,0.052c0.009,0,0.022-0.008,0.038-0.023c0.059-0.019,0.148-0.028,0.265-0.028
							c0-0.079,0-0.158,0-0.237c-0.018-0.078-0.088-0.117-0.206-0.117l-1.005-0.562C11.953,14.026,11.905,14,11.874,14L11.874,14z"
							/>
					</g>
				</g>
			</g>
		</g>
	</g>
</g>
</svg>
