<?xml version="1.0" encoding="utf-8"?>
<!-- Generator: Adobe Illustrator 16.0.0, SVG Export Plug-In . SVG Version: 6.00 Build 0)  -->
<!DOCTYPE svg PUBLIC "-//W3C//DTD SVG 1.1//EN" "http://www.w3.org/Graphics/SVG/1.1/DTD/svg11.dtd">
<svg version="1.1" id="图层_1" xmlns="http://www.w3.org/2000/svg" xmlns:xlink="http://www.w3.org/1999/xlink" x="0px" y="0px"
	 width="50.75px" height="32px" viewBox="0 0 50.75 32" enable-background="new 0 0 50.75 32" xml:space="preserve">
<rect fill="none" width="50.75" height="32"/>
<g>
	<g>
		<g>
			<g>
				<g>
					
						<linearGradient id="SVGID_1_" gradientUnits="userSpaceOnUse" x1="-892.749" y1="20.5742" x2="-891.5947" y2="19.825" gradientTransform="matrix(50.531 0 0 28.3354 45104.7656 -560.4619)">
						<stop  offset="0.1429" style="stop-color:#000000"/>
						<stop  offset="0.4335" style="stop-color:#FFD400"/>
						<stop  offset="0.7488" style="stop-color:#FF0000"/>
					</linearGradient>
					<path fill="url(#SVGID_1_)" d="M50.313,3.257c0.057,0.029,0.141,0.042,0.252,0.042l-0.041,1.014l0.17,1.397
						c-0.06,0.282-0.143,0.577-0.254,0.888C50.383,6.88,50.298,7.146,50.184,7.4c-0.082,0.367-0.168,0.677-0.25,0.931
						c-0.17,0.704-0.34,1.239-0.509,1.608c-0.142,0.365-0.239,0.634-0.297,0.803c-0.083,0.14-0.155,0.225-0.211,0.253
						c-0.028,0.057-0.069,0.086-0.126,0.086H29.296c-0.028,0-0.226,0.042-0.592,0.126c-0.396,0.169-0.831,0.482-1.312,0.929
						c-0.422,0.425-0.817,1.046-1.186,1.861c-0.422,0.79-0.635,1.889-0.635,3.299v0.465H25.49c-0.028,0.026-0.309,0.099-0.846,0.209
						c-0.506,0.114-1.125,0.199-1.859,0.257c-0.707,0.084-1.48,0.125-2.327,0.125c-0.847-0.026-1.577-0.153-2.199-0.383
						c-0.198,0.059-0.45,0.243-0.761,0.553c-0.339,0.364-0.521,0.762-0.549,1.183c-0.03,0.255-0.112,0.776-0.256,1.565
						c-0.141,0.816-0.309,1.676-0.506,2.578c-0.17,0.902-0.312,1.733-0.422,2.496c-0.172,0.733-0.268,1.156-0.295,1.268l0.676,1.904
						h-0.129c-1.326,0.166-2.678,0.323-4.06,0.465c-1.181,0.082-2.464,0.154-3.847,0.211c-1.382,0.026-2.722-0.041-4.017-0.211
						c-0.084,0-0.183-0.014-0.297-0.045c-0.226-0.082-0.394-0.224-0.505-0.42c-0.171-0.283-0.255-0.789-0.255-1.521
						c0-0.451,0.042-1.029,0.126-1.736c0.113-0.675,0.323-1.465,0.634-2.365c0.254-0.932,0.62-2.016,1.101-3.258
						c0.478-1.238,1.084-2.665,1.818-4.271v-0.167c0-0.086,0.013-0.186,0.041-0.297c0.029-0.17,0.044-0.354,0.044-0.551
						c0-0.563-0.128-1.139-0.382-1.734c-0.225-0.563-0.803-0.93-1.733-1.098c-0.056,0-0.296-0.013-0.718-0.043
						c-0.452,0-0.946-0.029-1.478-0.082c-0.511,0-1.003-0.016-1.482-0.045c-0.45,0-0.692,0-0.72,0l-0.126-0.125v-0.129
						c0-0.138,0.042-0.236,0.126-0.294c0.084-0.31,0.381-0.62,0.89-0.931c0.478-0.311,1.353-0.62,2.62-0.93
						C3.827,9.91,3.926,9.741,4.095,9.432C4.263,9.121,4.35,8.754,4.35,8.331c0-0.168-0.015-0.31-0.044-0.423
						C4.279,7.768,4.207,7.585,4.095,7.359C4.011,7.3,3.913,7.189,3.798,7.021C3.657,6.795,3.447,6.386,3.165,5.792v-0.8
						l0.804-0.213C4.052,4.835,4.124,4.877,4.18,4.906c0.113,0.113,0.197,0.17,0.253,0.17h1.438c0-0.057,0.059-0.17,0.169-0.338
						c0.029-0.113,0.084-0.211,0.168-0.295L7.48,3.299c0.054-0.027,0.138-0.056,0.251-0.083c0.113-0.056,0.213-0.112,0.298-0.17
						V2.411c0-0.14,0.014-0.324,0.04-0.55h1.565l1.099,1.101l1.861-0.042l0.634-0.339l7.653-0.042
						c0.085,0.113,0.155,0.209,0.212,0.294c0.14,0.142,0.24,0.212,0.296,0.212l9.938,0.17l0.126,0.083
						c0.028,0.056,0.085,0.083,0.169,0.083h0.549c0.03-0.056,0.043-0.096,0.043-0.125c0-0.055,0.014-0.098,0.042-0.128
						c0.056-0.056,0.112-0.11,0.168-0.167l11.164,0.083c0,0.083,0.015,0.157,0.042,0.212c0,0.084,0.014,0.154,0.042,0.212
						c0,0.056,0,0.097,0,0.126h0.591c0-0.029,0.029-0.126,0.084-0.296c0.027-0.056,0.084-0.112,0.168-0.17h2.199
						c0.059-0.026,0.184-0.097,0.381-0.209c0.197-0.144,0.395-0.267,0.594-0.381c0.195-0.142,0.406-0.24,0.633-0.296
						c0.199-0.086,0.354-0.128,0.467-0.128c0.169,0,0.281,0.112,0.337,0.339c0.085,0.254,0.128,0.421,0.128,0.508
						c0.109,0.083,0.268,0.141,0.464,0.167c0.083,0.031,0.196,0.06,0.339,0.087c0,0.027,0.027,0.042,0.086,0.042H50.313z
						 M20.037,11.713c-0.282,0-0.521,0.085-0.721,0.255c-0.168,0.196-0.252,0.438-0.252,0.718v3.088c0,0.254,0.086,0.492,0.252,0.72
						c0.199,0.169,0.438,0.252,0.721,0.252h3.298c0.282,0,0.521-0.083,0.718-0.252c0.225-0.228,0.34-0.466,0.34-0.72v-3.088
						c0-0.279-0.115-0.521-0.34-0.718c-0.197-0.169-0.436-0.255-0.718-0.255H20.037z"/>
				</g>
			</g>
		</g>
	</g>
</g>
<linearGradient id="SVGID_2_" gradientUnits="userSpaceOnUse" x1="-4.9185" y1="21.8691" x2="12.7325" y2="11.7007">
	<stop  offset="0.3505" style="stop-color:#FFE3A0"/>
	<stop  offset="1" style="stop-color:#00FFFF"/>
</linearGradient>
<path fill="url(#SVGID_2_)" d="M15.916,22.084c0,0-3.778-11.055-12.567-17.141L3.165,4.992v0.801
	c0.282,0.594,0.492,1.002,0.633,1.229c0.115,0.168,0.213,0.279,0.297,0.338c0.112,0.227,0.184,0.408,0.211,0.549
	C4.335,8.021,4.35,8.164,4.35,8.332c0,0.422-0.087,0.789-0.255,1.1C3.926,9.742,3.827,9.91,3.798,9.939
	c-1.267,0.311-2.142,0.619-2.62,0.93c-0.509,0.311-0.806,0.621-0.89,0.932c-0.077,0.053-0.114,0.145-0.121,0.264
	c0.417,0.09,0.838,0.188,1.264,0.297c0.348,0.016,0.693,0.031,1.059,0.031c0.532,0.053,1.026,0.082,1.478,0.082
	c0.422,0.031,0.662,0.043,0.718,0.043c0.93,0.168,1.508,0.535,1.733,1.098c0.085,0.201,0.136,0.396,0.193,0.592
	C10.04,15.824,13.373,18.297,15.916,22.084z"/>
<linearGradient id="SVGID_3_" gradientUnits="userSpaceOnUse" x1="7.0469" y1="12.0371" x2="22.6918" y2="3.0243">
	<stop  offset="0.1781" style="stop-color:#FFE3A0"/>
	<stop  offset="1" style="stop-color:#00FFFF"/>
</linearGradient>
<path fill="url(#SVGID_3_)" d="M25.375,11.063c0,0-2.282-4.625-6.369-8.512l-5.778,0.031L12.594,2.92l-1.861,0.043L9.634,1.861
	H8.069c-0.026,0.227-0.04,0.41-0.04,0.551v0.635C7.944,3.104,7.844,3.16,7.731,3.217C7.618,3.244,7.534,3.271,7.48,3.299
	L6.208,4.443c-0.029,0.029-0.037,0.07-0.059,0.104C10.508,4.396,19.428,4.934,25.375,11.063z"/>
<g>
	<g>
		<g>
			<g>
				<g>
					<g>
						<linearGradient id="SVGID_4_" gradientUnits="userSpaceOnUse" x1="10.9951" y1="34.1104" x2="34.3192" y2="-6.2882">
							<stop  offset="0" style="stop-color:#BB925B"/>
							<stop  offset="0.3429" style="stop-color:#FFF6DA"/>
							<stop  offset="0.6571" style="stop-color:#FFF1B1"/>
							<stop  offset="1" style="stop-color:#B38B54"/>
						</linearGradient>
						<path fill="url(#SVGID_4_)" d="M9.219,2.861l0.806,0.808c0.188,0.188,0.442,0.293,0.708,0.293c0.007,0,0.015,0,0.022,0
							l1.861-0.042c0.157-0.004,0.311-0.044,0.449-0.118l0.415-0.222l6.907-0.038c0.233,0.235,0.557,0.503,0.983,0.503l0,0
							l9.613,0.164c0.184,0.111,0.401,0.172,0.637,0.172h0.549c0.324,0,0.625-0.157,0.812-0.416l9.793,0.073
							c0.164,0.329,0.504,0.556,0.896,0.556h0.591c0.355,0,0.668-0.186,0.846-0.466h1.605c0.142,0,0.281-0.03,0.41-0.088
							c0.071-0.032,0.226-0.115,0.466-0.252c0.032-0.019,0.063-0.039,0.094-0.061c0.148-0.108,0.308-0.21,0.502-0.322
							c0.031-0.018,0.062-0.037,0.09-0.058c0.015-0.011,0.029-0.021,0.044-0.029c0.065,0.172,0.179,0.325,0.329,0.439
							c0.227,0.171,0.505,0.287,0.829,0.345c0.018,0.006,0.035,0.011,0.054,0.017l-0.006,0.153c-0.002,0.054,0,0.107,0.007,0.161
							l0.148,1.225c-0.048,0.197-0.108,0.398-0.182,0.602c-0.017,0.046-0.029,0.094-0.039,0.142
							c-0.042,0.209-0.104,0.402-0.188,0.589c-0.027,0.062-0.049,0.126-0.063,0.192c-0.069,0.307-0.145,0.59-0.226,0.841
							c-0.008,0.024-0.015,0.049-0.021,0.073c-0.191,0.791-0.349,1.212-0.446,1.427C48.507,9.541,48.5,9.56,48.492,9.578
							c-0.075,0.193-0.139,0.361-0.19,0.503H29.296c-0.123,0-0.182,0.006-0.815,0.151c-0.058,0.014-0.114,0.031-0.169,0.055
							c-0.496,0.212-1.02,0.577-1.629,1.144c-0.473,0.477-0.896,1.114-1.29,1.945v-0.69c0-0.57-0.235-1.078-0.689-1.478
							c-0.378-0.324-0.852-0.495-1.368-0.495h-3.298c-0.518,0-0.99,0.171-1.37,0.494c-0.039,0.034-0.076,0.071-0.11,0.11
							c-0.322,0.377-0.492,0.85-0.492,1.368v3.088c0,0.428,0.127,0.835,0.377,1.212c-0.061-0.011-0.121-0.017-0.183-0.017
							c-0.096,0-0.19,0.014-0.283,0.041c-0.371,0.109-0.736,0.357-1.21,0.831c-0.489,0.526-0.763,1.121-0.813,1.768
							c-0.016,0.13-0.073,0.545-0.245,1.491c-0.14,0.813-0.308,1.665-0.503,2.563c-0.176,0.934-0.314,1.75-0.423,2.496l-0.207,0.89
							L14.5,27.373c-0.047,0.189-0.037,0.389,0.028,0.572l0.253,0.714c-1.017,0.122-1.976,0.229-2.893,0.323
							c-1.234,0.086-2.519,0.156-3.797,0.209c-0.187,0.004-0.373,0.006-0.558,0.006c-1.145,0-2.258-0.07-3.31-0.208
							c-0.022-0.003-0.053-0.008-0.084-0.012c-0.028-0.075-0.103-0.335-0.103-0.983c0-0.409,0.04-0.954,0.112-1.571
							c0.105-0.627,0.304-1.369,0.593-2.204c0.007-0.021,0.014-0.042,0.02-0.063c0.244-0.895,0.604-1.958,1.069-3.16
							c0.477-1.234,1.08-2.653,1.794-4.215c0.06-0.131,0.09-0.272,0.09-0.416v-0.162c0.001-0.018,0.006-0.037,0.011-0.06
							c0.006-0.023,0.011-0.048,0.015-0.072c0.039-0.225,0.059-0.468,0.059-0.721c0-0.692-0.155-1.407-0.453-2.105
							c-0.361-0.902-1.196-1.479-2.484-1.711c-0.052-0.009-0.117-0.015-0.17-0.016c-0.069-0.001-0.287-0.014-0.655-0.04
							c-0.023-0.002-0.047-0.003-0.071-0.003c-0.404,0-0.855-0.025-1.379-0.077c-0.033-0.003-0.065-0.005-0.099-0.005
							c-0.03,0-0.06,0-0.089,0c0.361-0.135,0.883-0.298,1.634-0.481c0.178-0.044,0.34-0.135,0.47-0.265
							c0.114-0.113,0.185-0.218,0.47-0.739c0.249-0.46,0.375-0.99,0.375-1.576c0-0.241-0.022-0.451-0.068-0.643
							c-0.047-0.221-0.14-0.468-0.291-0.773C4.924,6.779,4.826,6.66,4.706,6.567C4.681,6.54,4.656,6.506,4.647,6.494
							c-0.046-0.073-0.118-0.2-0.229-0.418c0.005,0,0.01,0,0.015,0h1.438c0.455,0,0.838-0.304,0.96-0.719
							c0.013-0.021,0.028-0.045,0.046-0.072c0.038-0.058,0.07-0.119,0.095-0.184l1.024-0.921c0.061-0.018,0.12-0.039,0.176-0.067
							C8.327,4.037,8.468,3.956,8.59,3.874c0.274-0.187,0.439-0.496,0.439-0.828V2.861H9.219 M9.634,1.861H8.069
							c-0.026,0.226-0.04,0.41-0.04,0.55v0.635C7.944,3.104,7.844,3.16,7.731,3.216C7.618,3.243,7.534,3.271,7.48,3.299L6.208,4.443
							C6.124,4.527,6.069,4.625,6.04,4.738C5.93,4.906,5.871,5.02,5.871,5.076H4.433c-0.056,0-0.14-0.057-0.253-0.17
							C4.124,4.877,4.052,4.835,3.969,4.779L3.165,4.992v0.8c0.282,0.594,0.492,1.003,0.633,1.229
							C3.913,7.189,4.011,7.3,4.095,7.359c0.112,0.226,0.184,0.408,0.211,0.549C4.335,8.021,4.35,8.163,4.35,8.331
							c0,0.423-0.087,0.79-0.255,1.101C3.926,9.741,3.827,9.91,3.798,9.939c-1.267,0.31-2.142,0.619-2.62,0.93
							C0.669,11.18,0.372,11.49,0.288,11.8c-0.084,0.058-0.126,0.156-0.126,0.294v0.129l0.126,0.125c0.028,0,0.27,0,0.72,0
							c0.479,0.029,0.971,0.045,1.482,0.045c0.532,0.053,1.026,0.082,1.478,0.082c0.422,0.03,0.662,0.043,0.718,0.043
							c0.93,0.168,1.508,0.534,1.733,1.098c0.254,0.596,0.382,1.171,0.382,1.734c0,0.196-0.015,0.381-0.044,0.551
							c-0.028,0.111-0.041,0.211-0.041,0.297v0.167c-0.734,1.605-1.34,3.032-1.818,4.271c-0.481,1.242-0.847,2.326-1.101,3.258
							c-0.311,0.9-0.521,1.69-0.634,2.365c-0.084,0.707-0.126,1.285-0.126,1.736c0,0.732,0.084,1.238,0.255,1.521
							c0.111,0.196,0.279,0.338,0.505,0.42c0.114,0.031,0.213,0.045,0.297,0.045c1.114,0.146,2.261,0.217,3.44,0.217
							c0.191,0,0.384-0.002,0.577-0.006c1.383-0.057,2.666-0.129,3.847-0.211c1.382-0.142,2.733-0.299,4.06-0.465h0.129
							l-0.676-1.904c0.027-0.111,0.123-0.534,0.295-1.268c0.11-0.763,0.252-1.594,0.422-2.496c0.197-0.902,0.365-1.762,0.506-2.578
							c0.144-0.789,0.226-1.311,0.256-1.565c0.027-0.421,0.21-0.818,0.549-1.183c0.311-0.31,0.563-0.494,0.761-0.553
							c0.622,0.229,1.353,0.356,2.199,0.383c0.847,0,1.62-0.041,2.327-0.125c0.734-0.058,1.354-0.143,1.859-0.257
							c0.537-0.11,0.817-0.183,0.846-0.209h0.082v-0.465c0-1.41,0.213-2.509,0.635-3.299c0.368-0.815,0.764-1.437,1.186-1.861
							c0.48-0.446,0.916-0.76,1.312-0.929c0.366-0.084,0.563-0.126,0.592-0.126h19.495c0.057,0,0.098-0.029,0.126-0.086
							c0.056-0.028,0.128-0.113,0.211-0.253c0.058-0.169,0.155-0.438,0.297-0.803c0.169-0.369,0.339-0.904,0.509-1.608
							c0.082-0.254,0.168-0.563,0.25-0.931c0.114-0.254,0.199-0.521,0.256-0.803c0.111-0.311,0.194-0.605,0.254-0.888l-0.17-1.397
							l0.041-1.014c-0.111,0-0.195-0.013-0.252-0.042h-0.172c-0.059,0-0.086-0.015-0.086-0.042
							c-0.143-0.027-0.256-0.056-0.339-0.087c-0.196-0.026-0.354-0.084-0.464-0.167c0-0.087-0.043-0.254-0.128-0.508
							c-0.056-0.227-0.168-0.339-0.337-0.339c-0.112,0-0.268,0.042-0.467,0.128c-0.227,0.056-0.438,0.154-0.633,0.296
							c-0.199,0.114-0.396,0.237-0.594,0.381c-0.197,0.112-0.322,0.183-0.381,0.209h-2.199c-0.084,0.058-0.141,0.114-0.168,0.17
							c-0.055,0.17-0.084,0.267-0.084,0.296h-0.591c0-0.029,0-0.07,0-0.126c-0.028-0.058-0.042-0.128-0.042-0.212
							c-0.027-0.055-0.042-0.129-0.042-0.212L32.423,2.961c-0.056,0.057-0.112,0.111-0.168,0.167
							c-0.028,0.03-0.042,0.073-0.042,0.128c0,0.029-0.013,0.069-0.043,0.125h-0.549c-0.084,0-0.141-0.027-0.169-0.083l-0.126-0.083
							l-9.938-0.17c-0.056,0-0.156-0.07-0.296-0.212c-0.057-0.085-0.127-0.181-0.212-0.294l-7.653,0.042L12.594,2.92l-1.861,0.042
							L9.634,1.861L9.634,1.861z M20.037,16.745c-0.283,0-0.521-0.083-0.721-0.252c-0.166-0.228-0.252-0.466-0.252-0.72v-3.088
							c0-0.279,0.084-0.521,0.252-0.718c0.199-0.17,0.438-0.255,0.721-0.255h3.298c0.282,0,0.521,0.086,0.718,0.255
							c0.225,0.197,0.34,0.438,0.34,0.718v3.088c0,0.254-0.115,0.492-0.34,0.72c-0.197,0.169-0.436,0.252-0.718,0.252H20.037
							L20.037,16.745z"/>
					</g>
				</g>
			</g>
		</g>
	</g>
</g>
<rect fill="none" width="50.75" height="32"/>
<g>
	<g>
		<g>
			<path fill="#7A4621" d="M20.184,25.975l4.594,3.828l10.106,0.307c3.472-0.407,6.329-1.327,8.575-2.756
				c2.959-4.103,5.535-6.152,7.725-6.152c-1.485-0.594-3.188-0.352-5.104,0.729c-1.916,1.079-3.861-0.015-5.836-3.283
				c-1.837-1.225-5.438-0.336-8.388,1.096L34.884,15l-8.864,2.918L20.184,25.975z"/>
		</g>
	</g>
</g>
<g>
	
		<linearGradient id="SVGID_5_" gradientUnits="userSpaceOnUse" x1="-876.7451" y1="54.0439" x2="-875.7451" y2="55.0456" gradientTransform="matrix(25.1118 0 0 10.4122 22040.2539 -544.772)">
		<stop  offset="0.6071" style="stop-color:#FFF6DA"/>
		<stop  offset="1" style="stop-color:#D6BB7E"/>
	</linearGradient>
	<path fill="url(#SVGID_5_)" d="M30.254,17.553h-2.602l-5.019,10.412h2.333l0.772-1.766h2.089l-0.137,1.766h2.23L30.254,17.553z
		 M28.369,20.176l-0.381,4.422h-1.572L28.369,20.176z M40.014,19.209c0-1.082-1.012-1.656-2.912-1.656
		c-2.356,0-3.436,0.752-3.998,2.686l-1.408,4.853c-0.176,0.568-0.209,0.853-0.209,1.114c0,1.145,1.062,1.761,3.031,1.761
		c1.084,0,1.937-0.187,2.531-0.569c0.643-0.426,1.045-1.08,1.357-2.225l0.335-1.183H36.51l-0.369,1.282
		c-0.261,0.934-0.59,1.211-1.379,1.211c-0.607,0-0.943-0.221-0.943-0.627c0-0.125,0.041-0.336,0.108-0.599l1.499-5.157
		c0.227-0.767,0.596-1.072,1.328-1.072c0.607,0,0.938,0.221,0.938,0.611c0,0.168-0.051,0.379-0.153,0.78l-0.276,1.005h2.229
		l0.347-1.215C39.962,19.793,40.014,19.473,40.014,19.209z M47.746,17.553h-5.967l-2.84,10.412h6.139l0.438-1.598h-3.873l0.869-3.26
		h3.491l0.437-1.573h-3.49l0.664-2.407h3.695L47.746,17.553z"/>
</g>
</svg>
