<?xml version="1.0" encoding="utf-8"?>
<!-- Generator: Adobe Illustrator 16.0.0, SVG Export Plug-In . SVG Version: 6.00 Build 0)  -->
<!DOCTYPE svg PUBLIC "-//W3C//DTD SVG 1.1//EN" "http://www.w3.org/Graphics/SVG/1.1/DTD/svg11.dtd">
<svg version="1.1" id="图层_1" xmlns="http://www.w3.org/2000/svg" xmlns:xlink="http://www.w3.org/1999/xlink" x="0px" y="0px"
	 width="92.059px" height="31.75px" viewBox="0 0 92.059 31.75" enable-background="new 0 0 92.059 31.75" xml:space="preserve">
<rect x="0" fill="none" width="92.059" height="31.75"/>
<linearGradient id="SVGID_1_" gradientUnits="userSpaceOnUse" x1="-685.947" y1="-71.5068" x2="-684.6196" y2="-72.1465" gradientTransform="matrix(86.5148 0 0 15.707 59326.8906 1144.166)">
	<stop  offset="0.2562" style="stop-color:#000000"/>
	<stop  offset="0.532" style="stop-color:#FFD400"/>
	<stop  offset="0.8177" style="stop-color:#FF0000"/>
</linearGradient>
<path fill="url(#SVGID_1_)" d="M5.04,14.941c-0.285,0.287-0.429,0.632-0.429,1.034s0.145,0.744,0.429,1.029
	c0.286,0.287,0.631,0.43,1.033,0.43c0.4,0,0.743-0.143,1.028-0.43c0.286-0.285,0.432-0.627,0.432-1.029s-0.146-0.747-0.432-1.034
	c-0.285-0.284-0.628-0.426-1.028-0.426C5.671,14.515,5.326,14.657,5.04,14.941z M49.132,15.079
	c-0.239-0.239-0.526-0.358-0.861-0.358c-0.336,0-0.623,0.119-0.86,0.358c-0.236,0.238-0.357,0.525-0.357,0.861
	s0.121,0.623,0.357,0.861c0.237,0.238,0.524,0.357,0.86,0.357c0.335,0,0.622-0.119,0.861-0.357c0.238-0.238,0.354-0.525,0.354-0.861
	C49.489,15.604,49.37,15.317,49.132,15.079z M52.684,15.875c0-0.249-0.089-0.463-0.267-0.641c-0.176-0.175-0.39-0.263-0.64-0.263
	s-0.464,0.088-0.642,0.263c-0.176,0.178-0.263,0.393-0.263,0.641c0,0.25,0.087,0.463,0.263,0.637
	c0.178,0.18,0.392,0.271,0.642,0.271s0.464-0.092,0.64-0.271C52.595,16.338,52.684,16.125,52.684,15.875z M55.805,16.001
	c0-0.201-0.071-0.374-0.215-0.518c-0.146-0.144-0.315-0.215-0.517-0.215c-0.2,0-0.373,0.071-0.519,0.215
	c-0.144,0.144-0.215,0.316-0.215,0.518c0,0.201,0.071,0.372,0.215,0.517c0.146,0.145,0.316,0.215,0.519,0.215
	c0.199,0,0.372-0.07,0.517-0.215C55.734,16.373,55.805,16.202,55.805,16.001z M58.539,15.988c0-0.155-0.058-0.289-0.168-0.401
	c-0.108-0.109-0.241-0.164-0.396-0.164s-0.288,0.055-0.399,0.164c-0.108,0.112-0.162,0.246-0.162,0.401
	c0,0.155,0.054,0.287,0.162,0.397c0.111,0.11,0.244,0.166,0.399,0.166c0.154,0,0.287-0.056,0.396-0.166
	C58.484,16.275,58.539,16.143,58.539,15.988z M33.82,11.703c1.721-0.212,3.441-0.89,5.163-2.032
	c0.864-0.571,1.556-1.121,2.071-1.649c1.289,1.375,2.659,1.937,4.111,1.684c0.32,0.394,0.982,0.589,1.983,0.589
	c18.566-0.497,32.612,1.364,42.139,5.58c-9.524,4.217-23.57,6.078-42.139,5.58c-1.001,0-1.663,0.197-1.983,0.592
	c-1.452-0.254-2.823,0.309-4.111,1.682c-0.518-0.525-1.208-1.078-2.071-1.646c-1.722-1.145-3.442-1.82-5.163-2.033
	c-0.938-0.111-2.115-0.137-3.533-0.064c-1.036,0.053-2.44,0.174-4.211,0.357c-2.831,0.303-4.354,0.459-4.573,0.479
	c-1.783,0.171-3.324,0.271-4.625,0.298c-1.527,0.036-3.126-0.078-4.797-0.349c-1.635-0.269-3.146-0.647-4.534-1.146
	c-1.435-0.515-2.564-1.092-3.397-1.729c-0.813-0.627-1.271-1.269-1.369-1.917c-0.009-0.069-0.009-0.133,0-0.193
	c0.099-0.652,0.556-1.292,1.369-1.921c0.833-0.64,1.965-1.216,3.397-1.731c1.39-0.497,2.899-0.878,4.534-1.145
	c1.671-0.27,3.27-0.386,4.797-0.35c1.3,0.029,2.842,0.128,4.625,0.298c0.219,0.02,1.742,0.179,4.573,0.478
	c1.771,0.187,3.175,0.307,4.211,0.362C31.703,11.841,32.881,11.818,33.82,11.703z M40.012,11.402c-1.292,0-2.394,0.456-3.308,1.369
	c-0.912,0.914-1.37,2.016-1.37,3.307s0.458,2.395,1.37,3.307c0.914,0.912,2.016,1.371,3.308,1.371c0.341,0,0.668-0.033,0.982-0.096
	c0.285-0.059,0.563-0.143,0.831-0.254c0.545-0.23,1.043-0.57,1.493-1.021c0.912-0.912,1.369-2.016,1.369-3.307
	s-0.457-2.394-1.369-3.307C42.406,11.858,41.303,11.402,40.012,11.402z"/>
<linearGradient id="SVGID_2_" gradientUnits="userSpaceOnUse" x1="14.6926" y1="20.9961" x2="32.3431" y2="10.828">
	<stop  offset="0.3505" style="stop-color:#FFE3A0"/>
	<stop  offset="1" style="stop-color:#00FFFF"/>
</linearGradient>
<path fill="url(#SVGID_2_)" d="M30.286,11.776c-1.036-0.055-2.44-0.174-4.211-0.361c-2.831-0.299-4.354-0.459-4.573-0.479
	c-1.783-0.17-3.325-0.269-4.625-0.297c-1.321-0.032-2.699,0.058-4.127,0.256c5.081,0.035,15.458,1.193,21.961,9.324
	c0.191,0.041,0.382,0.08,0.573,0.133c-0.749-1.793-2.32-5.137-4.824-8.57C30.4,11.778,30.346,11.778,30.286,11.776z"/>
<linearGradient id="SVGID_3_" gradientUnits="userSpaceOnUse" x1="31.0579" y1="19.5605" x2="46.7023" y2="10.5481">
	<stop  offset="0.1781" style="stop-color:#FFE3A0"/>
	<stop  offset="1" style="stop-color:#00FFFF"/>
</linearGradient>
<path fill="url(#SVGID_3_)" d="M38.983,9.671c-1.329,0.881-2.657,1.48-3.985,1.808c0.907,0.109,1.858,0.266,2.829,0.477
	c0.658-0.355,1.38-0.553,2.185-0.553c1.291,0,2.394,0.455,3.307,1.369c0.47,0.471,0.814,0.994,1.043,1.564
	c0.938,0.514,1.854,1.107,2.729,1.797c-0.01-0.064-0.037-0.125-0.037-0.193c0-0.313,0.115-0.578,0.319-0.805
	c-1.096-1.684-2.753-3.926-4.906-5.957c-0.481-0.283-0.952-0.666-1.413-1.157C40.538,8.55,39.847,9.1,38.983,9.671z"/>
<linearGradient id="SVGID_4_" gradientUnits="userSpaceOnUse" x1="34.51" y1="25.5811" x2="50.1683" y2="16.5606">
	<stop  offset="0.1781" style="stop-color:#FFE3A0"/>
	<stop  offset="1" style="stop-color:#00FFFF"/>
</linearGradient>
<path fill="url(#SVGID_4_)" d="M48.916,17.771c0,0-0.123-0.248-0.356-0.668c-0.09,0.023-0.178,0.053-0.276,0.055
	C48.497,17.356,48.709,17.558,48.916,17.771z"/>
<g>
	<linearGradient id="SVGID_5_" gradientUnits="userSpaceOnUse" x1="87.7551" y1="7.4307" x2="3.9882" y2="22.6388">
		<stop  offset="0" style="stop-color:#BB925B"/>
		<stop  offset="0.3429" style="stop-color:#FFF6DA"/>
		<stop  offset="0.6571" style="stop-color:#FFF1B1"/>
		<stop  offset="1" style="stop-color:#B38B54"/>
	</linearGradient>
	<path fill="url(#SVGID_5_)" d="M41.043,9.39c1.082,0.913,2.239,1.375,3.453,1.375c0.116,0,0.232-0.004,0.35-0.013
		c0.539,0.364,1.304,0.542,2.328,0.542c0.001,0,0.002,0,0.002,0c1.939-0.052,3.854-0.078,5.693-0.078
		c14.203,0,25.547,1.566,33.773,4.659c-8.224,3.093-19.564,4.659-33.765,4.659c-1.842,0-3.76-0.026-5.729-0.079
		c-1.005,0-1.766,0.18-2.305,0.546c-0.118-0.009-0.234-0.014-0.351-0.014c-1.213,0-2.371,0.462-3.452,1.374
		c-0.241-0.203-0.501-0.407-0.781-0.61c0.314-0.013,0.626-0.05,0.935-0.111c0.35-0.072,0.69-0.176,1.02-0.313
		c0.664-0.28,1.273-0.696,1.811-1.235c1.103-1.103,1.662-2.453,1.662-4.014s-0.559-2.911-1.662-4.013
		c-1.102-1.104-2.453-1.663-4.014-1.663c-0.113,0-0.226,0.003-0.337,0.009C40.187,10.067,40.644,9.726,41.043,9.39 M48.271,18.158
		c0.599,0,1.141-0.225,1.568-0.65c0.158-0.158,0.288-0.333,0.39-0.521c0.059,0.08,0.124,0.156,0.196,0.228
		c0.368,0.372,0.835,0.568,1.353,0.568c0.52,0,0.988-0.198,1.339-0.557c0.157-0.153,0.282-0.325,0.375-0.513
		c0.085,0.187,0.205,0.358,0.358,0.513c0.333,0.331,0.756,0.506,1.224,0.506c0.469,0,0.892-0.176,1.227-0.51
		c0.134-0.136,0.242-0.285,0.324-0.447c0.066,0.114,0.149,0.221,0.247,0.319c0.301,0.299,0.683,0.456,1.104,0.456
		c0.418,0,0.812-0.164,1.094-0.449c0.304-0.296,0.471-0.691,0.471-1.113c0-0.418-0.157-0.8-0.461-1.108
		c-0.295-0.295-0.687-0.457-1.104-0.457s-0.796,0.155-1.119,0.47c-0.095,0.098-0.175,0.205-0.239,0.318
		c-0.082-0.158-0.19-0.306-0.324-0.44c-0.333-0.329-0.755-0.503-1.219-0.503c-0.465,0-0.888,0.174-1.228,0.51
		c-0.119,0.119-0.218,0.25-0.295,0.391c-0.095-0.236-0.237-0.452-0.427-0.641c-0.364-0.364-0.83-0.557-1.347-0.557
		c-0.515,0-0.979,0.191-1.353,0.561c-0.089,0.09-0.168,0.187-0.236,0.288c-0.095-0.16-0.212-0.31-0.35-0.447
		c-0.426-0.426-0.969-0.651-1.568-0.651c-0.603,0-1.146,0.226-1.569,0.653c-0.424,0.426-0.648,0.968-0.648,1.566
		c0,0.597,0.224,1.139,0.648,1.567C47.126,17.933,47.669,18.158,48.271,18.158 M16.32,11.632c0.179,0,0.356,0.002,0.536,0.007
		c1.274,0.027,2.806,0.126,4.554,0.292c0.218,0.021,1.738,0.179,4.561,0.478c1.755,0.186,3.189,0.309,4.271,0.366
		c0.537,0.025,1.046,0.037,1.515,0.037c0.824,0,1.56-0.039,2.187-0.116c0.606-0.075,1.214-0.203,1.821-0.384
		c-0.948,1.057-1.429,2.323-1.429,3.766c0,1.215,0.339,2.303,1.011,3.246c-0.469-0.121-0.938-0.21-1.408-0.269
		c-0.627-0.074-1.348-0.112-2.144-0.112c-0.487,0-1.011,0.015-1.558,0.042c-1.027,0.053-2.422,0.171-4.267,0.362
		c-2.97,0.317-4.372,0.46-4.562,0.478c-1.755,0.168-3.286,0.267-4.553,0.293c-0.175,0.005-0.352,0.007-0.529,0.007
		c-1.308,0-2.682-0.115-4.083-0.342c-1.583-0.261-3.049-0.631-4.358-1.101c-0.349-0.125-0.679-0.254-0.989-0.387
		c0.339-0.12,0.647-0.316,0.913-0.584c0.475-0.473,0.726-1.073,0.726-1.737c0-0.663-0.25-1.264-0.726-1.742
		c-0.335-0.333-0.734-0.555-1.176-0.656c0.385-0.173,0.802-0.341,1.251-0.503c1.324-0.474,2.791-0.843,4.357-1.099
		C13.648,11.748,15.021,11.632,16.32,11.632 M41.054,8.021C40.538,8.55,39.847,9.1,38.983,9.671
		c-1.722,1.142-3.442,1.82-5.163,2.032c-0.593,0.073-1.281,0.108-2.064,0.108c-0.457,0-0.947-0.012-1.469-0.036
		c-1.036-0.055-2.44-0.174-4.211-0.361c-2.831-0.299-4.354-0.458-4.573-0.479c-1.783-0.17-3.325-0.269-4.625-0.297
		c-0.185-0.004-0.371-0.007-0.558-0.007c-1.357,0-2.771,0.119-4.239,0.356c-1.635,0.267-3.145,0.647-4.534,1.145
		c-1.433,0.516-2.564,1.092-3.397,1.731c-0.813,0.629-1.271,1.269-1.369,1.921c-0.009,0.06-0.009,0.124,0,0.193
		c0.099,0.647,0.557,1.289,1.369,1.916c0.833,0.638,1.963,1.215,3.397,1.729c1.388,0.498,2.899,0.877,4.534,1.146
		c1.471,0.238,2.885,0.355,4.245,0.355c0.185,0,0.369-0.003,0.552-0.007c1.301-0.027,2.842-0.127,4.625-0.298
		c0.219-0.02,1.742-0.176,4.573-0.479c1.771-0.184,3.175-0.305,4.211-0.357c0.537-0.027,1.039-0.041,1.507-0.041
		c0.768,0,1.443,0.036,2.026,0.105c1.721,0.213,3.441,0.889,5.163,2.033c0.863,0.568,1.554,1.121,2.071,1.646
		c1.088-1.159,2.234-1.741,3.439-1.741c0.222,0,0.446,0.021,0.672,0.06c0.32-0.395,0.982-0.592,1.983-0.592
		c1.961,0.053,3.869,0.079,5.729,0.079c15.754,0,27.892-1.888,36.41-5.659c-8.522-3.771-20.66-5.659-36.419-5.659
		c-1.855,0-3.764,0.026-5.72,0.079c-1.001,0-1.663-0.195-1.983-0.589c-0.225,0.039-0.449,0.059-0.67,0.059
		C43.29,9.765,42.143,9.183,41.054,8.021L41.054,8.021z M40.012,20.756c-1.292,0-2.394-0.459-3.308-1.371
		c-0.912-0.912-1.37-2.016-1.37-3.307s0.458-2.393,1.37-3.307c0.914-0.914,2.016-1.369,3.308-1.369c1.291,0,2.394,0.455,3.307,1.369
		c0.912,0.912,1.369,2.016,1.369,3.307s-0.457,2.395-1.369,3.307c-0.45,0.451-0.948,0.791-1.493,1.021
		c-0.269,0.111-0.546,0.195-0.831,0.254C40.68,20.723,40.353,20.756,40.012,20.756L40.012,20.756z M6.073,17.434
		c-0.402,0-0.747-0.143-1.033-0.43c-0.284-0.285-0.429-0.627-0.429-1.029c0-0.401,0.144-0.746,0.429-1.033
		c0.286-0.284,0.631-0.426,1.033-0.426c0.4,0,0.743,0.142,1.028,0.426c0.286,0.287,0.432,0.632,0.432,1.033
		c0,0.402-0.146,0.744-0.432,1.029C6.817,17.291,6.474,17.434,6.073,17.434L6.073,17.434z M48.271,17.158
		c-0.336,0-0.623-0.119-0.86-0.357c-0.236-0.238-0.357-0.525-0.357-0.861s0.121-0.623,0.357-0.86
		c0.237-0.239,0.524-0.358,0.86-0.358c0.335,0,0.622,0.119,0.861,0.358c0.238,0.237,0.356,0.524,0.354,0.86
		c0,0.336-0.116,0.623-0.354,0.861C48.893,17.039,48.606,17.158,48.271,17.158L48.271,17.158z M51.778,16.783
		c-0.25,0-0.464-0.092-0.642-0.271c-0.176-0.174-0.263-0.387-0.263-0.637c0-0.248,0.087-0.463,0.263-0.641
		c0.178-0.176,0.392-0.264,0.642-0.264s0.464,0.088,0.64,0.264c0.178,0.178,0.267,0.392,0.267,0.641c0,0.25-0.089,0.463-0.267,0.637
		C52.241,16.691,52.028,16.783,51.778,16.783L51.778,16.783z M55.073,16.732c-0.202,0-0.373-0.07-0.519-0.215
		c-0.144-0.145-0.215-0.315-0.215-0.517c0-0.202,0.071-0.374,0.215-0.519c0.146-0.144,0.318-0.215,0.519-0.215
		c0.201,0,0.371,0.071,0.517,0.215c0.144,0.145,0.215,0.317,0.215,0.519s-0.071,0.372-0.215,0.517
		C55.446,16.662,55.273,16.732,55.073,16.732L55.073,16.732z M57.975,16.551c-0.155,0-0.288-0.056-0.399-0.166
		c-0.108-0.109-0.162-0.242-0.162-0.396c0-0.155,0.054-0.289,0.162-0.401c0.111-0.108,0.244-0.164,0.399-0.164
		s0.288,0.056,0.396,0.164c0.11,0.112,0.168,0.246,0.168,0.401c0,0.154-0.056,0.287-0.168,0.396
		C58.262,16.495,58.129,16.551,57.975,16.551L57.975,16.551z"/>
</g>
<rect x="0" fill="none" width="92.059" height="31.75"/>
<g>
	<g>
		<g>
			<path fill="#7A4621" d="M54.274,27.172l5.631,4.694l12.39,0.375c4.254-0.501,7.758-1.626,10.511-3.378
				c3.628-5.028,6.785-7.543,9.47-7.543c-1.821-0.728-3.908-0.43-6.259,0.895c-2.35,1.324-4.732-0.018-7.152-4.023
				c-2.253-1.502-6.667-0.412-10.282,1.343l3.714-5.813l-10.866,3.576L54.274,27.172z"/>
		</g>
	</g>
</g>
<linearGradient id="SVGID_6_" gradientUnits="userSpaceOnUse" x1="-672.5808" y1="-62.2256" x2="-671.5809" y2="-61.224" gradientTransform="matrix(30.7822 0 0 12.7634 20761.9531 811.5364)">
	<stop  offset="0.6071" style="stop-color:#FFF6DA"/>
	<stop  offset="1" style="stop-color:#D6BB7E"/>
</linearGradient>
<path fill="url(#SVGID_6_)" d="M66.616,16.852h-3.188l-6.151,12.763h2.86l0.946-2.164h2.561l-0.167,2.164h2.735L66.616,16.852z
	 M64.306,20.064l-0.466,5.42h-1.928L64.306,20.064z M78.58,18.88c0-1.325-1.238-2.028-3.57-2.028c-2.888,0-4.21,0.92-4.899,3.289
	l-1.726,5.947c-0.216,0.699-0.258,1.045-0.258,1.367c0,1.402,1.302,2.158,3.717,2.158c1.329,0,2.373-0.229,3.104-0.697
	c0.785-0.521,1.279-1.326,1.662-2.729l0.411-1.448h-2.734l-0.452,1.571c-0.32,1.145-0.725,1.483-1.691,1.483
	c-0.745,0-1.155-0.271-1.155-0.769c0-0.151,0.05-0.41,0.133-0.732l1.838-6.323c0.277-0.938,0.729-1.313,1.628-1.313
	c0.745,0,1.147,0.271,1.147,0.752c0,0.205-0.063,0.463-0.188,0.955l-0.341,1.231h2.733l0.426-1.489
	C78.518,19.596,78.58,19.203,78.58,18.88z M88.06,16.852h-7.314l-3.479,12.763h7.523l0.536-1.959h-4.747l1.064-3.994h4.28
	l0.535-1.931h-4.279l0.813-2.949h4.53L88.06,16.852z"/>
</svg>
