<?xml version="1.0" encoding="utf-8"?>
<!-- Generator: Adobe Illustrator 16.0.0, SVG Export Plug-In . SVG Version: 6.00 Build 0)  -->
<!DOCTYPE svg PUBLIC "-//W3C//DTD SVG 1.1//EN" "http://www.w3.org/Graphics/SVG/1.1/DTD/svg11.dtd">
<svg version="1.1" id="图层_1" xmlns="http://www.w3.org/2000/svg" xmlns:xlink="http://www.w3.org/1999/xlink" x="0px" y="0px"
	 width="96.5px" height="32px" viewBox="0 0 96.5 32" enable-background="new 0 0 96.5 32" xml:space="preserve">
<rect fill="none" width="96.5" height="32"/>
<g>
	<rect x="-0.021" y="-0.078" fill="none" width="96.5" height="32"/>
	<g>
		<g>
			<g>
				
					<linearGradient id="SVGID_1_" gradientUnits="userSpaceOnUse" x1="-762.9053" y1="362.0313" x2="-764.1926" y2="361.3064" gradientTransform="matrix(96.477 0 0 -24.08 73709.3906 8723.75)">
					<stop  offset="0.202" style="stop-color:#FF0000"/>
					<stop  offset="0.5369" style="stop-color:#FFD400"/>
					<stop  offset="0.5447" style="stop-color:#F6CC00"/>
					<stop  offset="0.6345" style="stop-color:#8E7600"/>
					<stop  offset="0.7067" style="stop-color:#423600"/>
					<stop  offset="0.7578" style="stop-color:#120F00"/>
					<stop  offset="0.7833" style="stop-color:#000000"/>
				</linearGradient>
				<path fill="url(#SVGID_1_)" d="M96.299,8.882H79.008v1.04h-5.67v0.15l-2.319,0.04l-0.54-0.19h-4.09l-0.04-4.36
					c0.03-0.03,0.04-0.07,0.04-0.12c0-0.1-0.04-0.19-0.11-0.27c-0.18-0.23-0.47-0.37-0.85-0.42c-0.16-0.03-0.312,0.02-0.47,0.15
					l-0.23,0.19l-2.35,3.32l-0.041,1.51h-0.5c-0.029-0.52-0.051-0.83-0.08-0.93c0-0.05-0.039-0.1-0.109-0.15l-0.08-0.04l-0.39-0.04
					v-0.38l-0.15-0.31l-5.42-0.09l-6.479-0.11l-2.381-0.04c-0.08,0.03-0.14,0.05-0.189,0.08c-0.03,0.03-0.051,0.07-0.08,0.12v0.07
					l-0.27,0.04v0.271l-0.811-0.15l-0.04,1.12l-0.271,0.04l0.08-2.51c-0.049-0.1-0.109-0.22-0.16-0.35
					c-0.129-0.26-0.25-0.47-0.379-0.65c-0.131-0.16-0.351-0.29-0.66-0.39l-0.381-0.08l-12.85-1.39h-0.24
					c-0.15,0.03-0.28,0.08-0.38,0.16c-0.1,0.02-0.21,0.1-0.31,0.23l-0.12,0.15l-1.18,1.89l-1.4,2.24l-0.08-0.07h-1v0.46l-1.01,0.04
					l-0.03-0.27l-0.35,0.04v0.27h-1l0.03,0.34l-6.2-0.03l-2.32-0.01c0-0.07-0.03-0.14-0.08-0.19c-0.02-0.02-0.05-0.04-0.09-0.06
					c-0.01,0-0.02-0.01-0.03-0.01h-0.12l-10.41-0.12c-0.03-0.26-0.07-0.44-0.12-0.54c-0.02-0.08-0.07-0.13-0.15-0.16h-4.09
					l-0.08,10.27l0.04,0.119c0.02,0.102,0.08,0.15,0.15,0.15c0.08,0,0.14-0.049,0.2-0.15l0.03-0.119l0.04-0.77l4.6-2.08v1.85
					l3.62-2.28v0.771h1.08v-0.811h2.24l-0.04-2l3.2-0.04v-0.35l3.67-0.08l0.93-0.7h3.89l0.04,0.35l0.97,0.04l0.04,2.12l0.34-0.03
					v-0.16l1.24,0.04c0.15,0.05,0.31,0.13,0.46,0.23c0.16,0.13,0.3,0.29,0.43,0.47c0.1,0.17,0.19,0.41,0.27,0.69
					c0.05,0.23,0.02,0.461-0.08,0.689c-0.03,0.131-0.07,0.25-0.12,0.352l-4.9,8.488l5.44,1.271l0.16-0.34
					c-0.06-0.029-0.11-0.07-0.16-0.119c-0.1-0.131-0.16-0.23-0.19-0.313c-0.03-0.1-0.01-0.199,0.04-0.309l1.66-3.24l0.08-0.121
					c0.07-0.1,0.16-0.17,0.26-0.229c0.21-0.102,0.39-0.17,0.55-0.23l0.11-0.068l-0.42-0.512l0.85-1.619
					c0.07-0.068,0.15-0.148,0.23-0.229c0.1-0.07,0.24-0.111,0.42-0.111h0.2l1.19-0.119h3.63l0.54,0.08l0.419-0.08l0.08,1.01
					c0.051,0.791,0.16,1.561,0.311,2.311c0.16,0.75,0.449,1.891,0.89,3.432c0.229,0.75,0.44,1.43,0.62,2.049v0.15h0.15l5.83-1.621
					l-0.16-0.191c-0.15-0.441-0.32-0.961-0.5-1.58c-0.381-1.211-0.67-2.211-0.85-3.012c-0.181-0.801-0.291-1.658-0.351-2.59v-1.189
					l0.51-0.199l-0.04-0.271l-0.23-0.078v-3.271l0.07-0.16c0.051-0.08,0.11-0.15,0.16-0.23c0.051-0.1,0.131-0.15,0.23-0.15
					c0.05,0,0.09,0.01,0.119,0.03l0.11-0.03c0.101-0.03,0.181-0.06,0.229-0.08c0.061-0.05,0.091-0.12,0.121-0.19l0.039-0.08
					l-0.039-0.62l0.699-0.04l0.08,0.96l0.73-0.27l0.35,0.08l0.27,0.16l14.24-0.12l0.23-0.5h0.27l0.15-0.12
					c0.08-0.02,0.13-0.08,0.16-0.15l0.04-0.85h0.5l0.069,0.23l-0.039,0.54l0.158,0.08c0.08,0.05,0.142,0.09,0.19,0.11
					c0.08,0,0.14-0.02,0.2-0.07c0.02-0.03,0.05-0.07,0.068-0.12l0.08-0.58l0.08-0.23l2.512,0.08v0.15h-0.16v1.16h0.66v-0.31
					l0.89,0.04l0.188-0.23v-0.7l-0.81-0.15l4.09,0.04l0.46-0.16l2.352-0.03v0.15l5.68,0.08l-0.039,0.27l-0.35,0.04l0.039,0.69
					l17.67,0.04l0.121-0.189v-3.67L96.299,8.882z M3.688,13.703c-0.03,0.05-0.07,0.09-0.12,0.12h-2.9
					c-0.05-0.03-0.09-0.06-0.11-0.08c-0.1-0.05-0.16-0.12-0.16-0.19c0-0.08,0.04-0.16,0.12-0.23l0.15-0.04h2.86l0.16,0.04
					c0.07,0.05,0.11,0.11,0.11,0.19C3.798,13.563,3.758,13.623,3.688,13.703z M0.398,9.192v-0.43l3.36-0.04l0.16,0.04
					c0.07,0.03,0.11,0.08,0.11,0.16c0.03,0.1,0.04,0.19,0.04,0.27H0.398z M36.599,17.952c-0.08,0.201-0.18,0.359-0.31,0.461v0.459
					h-3.47c-0.15-0.07-0.31-0.189-0.46-0.35c-0.31-0.279-0.48-0.592-0.5-0.92c-0.05-0.602,0.15-1.051,0.61-1.352
					c0.21-0.129,0.43-0.209,0.66-0.229l-0.15,0.34c-0.13,0.311-0.18,0.58-0.16,0.811c0.03,0.359,0.21,0.699,0.54,1.01
					c0.18,0.182,0.35,0.301,0.5,0.381l0.16-0.109c-0.13-0.08-0.25-0.182-0.35-0.313c-0.21-0.289-0.3-0.568-0.27-0.85
					c0.03-0.289,0.14-0.59,0.35-0.93c0.13-0.15,0.24-0.27,0.35-0.34h1.46c0.1,0.02,0.21,0.061,0.31,0.109
					c0.31,0.16,0.53,0.361,0.65,0.621C36.708,17.192,36.729,17.593,36.599,17.952z M44.049,8.262c-0.1,0.08-0.2,0.13-0.311,0.15
					l-0.15,0.04l-12.069,0.08h-0.24l-0.23-0.23l0.04-0.09l0.57-1.42l0.16-0.19c0.13-0.16,0.24-0.27,0.35-0.35
					c0.1-0.08,0.24-0.14,0.42-0.19h11.08l0.11,0.08c0.101,0.05,0.2,0.11,0.31,0.19c0.281,0.23,0.42,0.54,0.42,0.92
					C44.508,7.722,44.358,8.052,44.049,8.262z M65.578,9.922h-2.47v-0.39h2.591L65.578,9.922z M65.889,8.572l-0.189,0.23h-2.621
					l-0.199-0.16l1.39-2.16l0.89,0.08l0.041,0.39c0.079,0.25,0.129,0.42,0.149,0.5c0.05,0.08,0.12,0.14,0.2,0.189h0.34V8.572z"/>
			</g>
		</g>
	</g>
	<g>
		
			<linearGradient id="SVGID_2_" gradientUnits="userSpaceOnUse" x1="-1093.9409" y1="338.4736" x2="-1094.7697" y2="338.4736" gradientTransform="matrix(34.5122 0 0 -13.1527 37797.7344 4464.1997)">
			<stop  offset="0" style="stop-color:#00FFFF"/>
			<stop  offset="0.6495" style="stop-color:#FFE3A0"/>
		</linearGradient>
		<path fill="url(#SVGID_2_)" d="M14.949,9.232h-0.12c0.05,0,0.1,0.01,0.15,0.01C14.969,9.242,14.958,9.232,14.949,9.232z
			 M41.729,18.263c-3-3.7-6.4-6.95-10.21-9.73c-0.14-0.11-0.29-0.22-0.43-0.32c-0.84-0.6-1.7-1.18-2.58-1.73l-1.4,2.24l-0.08-0.07
			h-1v0.46l-1.01,0.04l-0.03-0.27l-0.35,0.04v0.27h-1l0.03,0.34l-6.2-0.03C27.179,10.663,35.269,13.592,41.729,18.263z"/>
	</g>
	<g>
		
			<linearGradient id="SVGID_3_" gradientUnits="userSpaceOnUse" x1="53.873" y1="-2.3169" x2="38.6131" y2="-2.3169" gradientTransform="matrix(1 0 0 -1 8.3398 8.04)">
			<stop  offset="0" style="stop-color:#00FFFF"/>
			<stop  offset="0.8219" style="stop-color:#FFE3A0"/>
		</linearGradient>
		<path fill="url(#SVGID_3_)" d="M61.309,12.842c-4.26-2.38-9.04-4.04-14.359-4.97h2.18l6.479,0.11
			C57.608,9.462,59.508,11.072,61.309,12.842z"/>
	</g>
	<g>
		<g>
			<g>
				<g>
					
						<linearGradient id="SVGID_4_" gradientUnits="userSpaceOnUse" x1="24.2529" y1="-29.6523" x2="52.6548" y2="19.5411" gradientTransform="matrix(1 0 0 -1 8.3398 8.04)">
						<stop  offset="0" style="stop-color:#BB925B"/>
						<stop  offset="0.3429" style="stop-color:#FFF6DA"/>
						<stop  offset="0.6571" style="stop-color:#FFF1B1"/>
						<stop  offset="1" style="stop-color:#B38B54"/>
					</linearGradient>
					<path fill="url(#SVGID_4_)" d="M30.685,5.052l1.34,0.145C31.84,5.27,31.692,5.353,31.58,5.444
						c-0.181,0.132-0.351,0.299-0.527,0.515l-0.16,0.19C30.825,6.23,30.77,6.321,30.73,6.42l-0.556,1.385l-0.04,0.09
						c-0.168,0.378-0.086,0.821,0.207,1.114l0.23,0.23c0.187,0.187,0.442,0.293,0.707,0.293h0.247l12.07-0.08
						c0.083,0,0.167-0.012,0.248-0.033l0.121-0.032c0.043-0.009,0.084-0.02,0.125-0.032L44.088,9.39
						c-0.008,0.296,0.113,0.581,0.334,0.778c0.185,0.165,0.422,0.253,0.666,0.253c0.049,0,0.098-0.003,0.146-0.011l0.271-0.04
						c0.477-0.071,0.834-0.472,0.853-0.954V9.399c0.179-0.027,0.349-0.102,0.489-0.22c0.096-0.08,0.174-0.175,0.234-0.281
						c0.024-0.019,0.049-0.04,0.072-0.061l1.958,0.033l6.479,0.11l4.632,0.077c0.091,0.292,0.313,0.529,0.6,0.638
						c0.007,0.104,0.013,0.205,0.019,0.283c0.021,0.396,0.273,0.728,0.621,0.869c-0.346,0.145-0.594,0.479-0.612,0.876l-0.013,0.247
						c-0.198,0.084-0.369,0.233-0.479,0.426l-13.332,0.112l-0.031-0.018c-0.088-0.052-0.185-0.091-0.285-0.114l-0.351-0.08
						c-0.026-0.006-0.052-0.011-0.079-0.015c-0.128-0.41-0.511-0.7-0.953-0.7c-0.02,0-0.039,0-0.058,0.001l-0.7,0.04
						c-0.266,0.015-0.515,0.136-0.691,0.336c-0.17,0.193-0.26,0.445-0.25,0.703c-0.276,0.097-0.512,0.292-0.666,0.561l-0.032,0.044
						c-0.042,0.057-0.082,0.114-0.12,0.174c-0.025,0.041-0.048,0.084-0.068,0.128l-0.07,0.16c-0.055,0.126-0.084,0.264-0.084,0.402
						v3.171c-0.15,0.178-0.239,0.406-0.239,0.648v1.189c0,0.021,0,0.043,0.002,0.064c0.065,1.029,0.188,1.928,0.373,2.744
						c0.172,0.766,0.44,1.721,0.864,3.07c0.09,0.307,0.176,0.586,0.254,0.832l-3.881,1.078c-0.104-0.338-0.211-0.691-0.326-1.064
						l-0.064-0.209c-0.509-1.785-0.756-2.814-0.871-3.354c-0.152-0.76-0.248-1.473-0.293-2.191l-0.08-1.012
						c-0.021-0.281-0.164-0.543-0.391-0.715c-0.109-0.086-0.236-0.145-0.368-0.176c0.187-0.586,0.142-1.227-0.142-1.879
						c-0.209-0.455-0.579-0.822-1.111-1.097c-0.183-0.091-0.376-0.158-0.559-0.195c-0.064-0.013-0.13-0.02-0.196-0.02h-1.46
						c-0.17,0-0.337,0.043-0.485,0.125c-0.146-0.082-0.313-0.125-0.485-0.125c-0.029,0-0.058,0.001-0.087,0.004
						c-0.379,0.033-0.749,0.159-1.119,0.388c-0.764,0.498-1.141,1.305-1.063,2.248c0.011,0.188,0.052,0.418,0.152,0.668
						c-0.247,0.041-0.468,0.129-0.661,0.266c-0.046,0.033-0.09,0.07-0.13,0.109l-0.228,0.227c-0.072,0.072-0.133,0.156-0.181,0.246
						l-0.851,1.619c-0.096,0.186-0.131,0.387-0.107,0.584c-0.128,0.105-0.239,0.225-0.339,0.367l-0.08,0.119
						c-0.021,0.031-0.041,0.064-0.058,0.1l-1.68,3.281c-0.031,0.068-0.057,0.135-0.077,0.201L23.855,24.8l4.227-7.322
						c0.01-0.02,0.02-0.035,0.028-0.055c0.072-0.145,0.132-0.307,0.179-0.484c0.157-0.402,0.191-0.813,0.104-1.215
						c-0.005-0.021-0.01-0.041-0.016-0.061c-0.11-0.386-0.231-0.688-0.37-0.923c-0.016-0.026-0.033-0.052-0.051-0.077
						c-0.192-0.267-0.391-0.483-0.608-0.66c-0.025-0.021-0.051-0.04-0.078-0.058c-0.223-0.148-0.464-0.268-0.697-0.346
						c-0.092-0.031-0.188-0.048-0.285-0.051l-0.634-0.021l-0.018-0.969c-0.01-0.529-0.43-0.958-0.959-0.979l-0.267-0.011
						c-0.184-0.232-0.469-0.38-0.785-0.38h-3.89c-0.217,0-0.428,0.071-0.602,0.201l-0.672,0.506l-3.347,0.072
						c-0.301,0.007-0.568,0.146-0.747,0.359l-2.445,0.031c-0.266,0.003-0.521,0.113-0.706,0.305
						c-0.185,0.191-0.286,0.449-0.281,0.715l0.02,0.98H9.738c-0.212,0-0.409,0.066-0.571,0.179c-0.008-0.005-0.017-0.01-0.025-0.015
						c-0.151-0.076-0.318-0.117-0.484-0.117c-0.186,0-0.371,0.051-0.533,0.154L6.039,15.87v-0.037c0-0.341-0.172-0.657-0.458-0.841
						c-0.164-0.106-0.353-0.16-0.542-0.16c-0.14,0-0.281,0.029-0.412,0.089l-3.631,1.642l0.013-1.741h2.56
						c0.179,0,0.355-0.048,0.51-0.14c0.16-0.095,0.298-0.222,0.407-0.373c0.115-0.137,0.313-0.412,0.313-0.797
						c0-0.396-0.191-0.761-0.525-1.001c-0.103-0.074-0.219-0.128-0.342-0.159l-0.16-0.04c-0.08-0.02-0.161-0.03-0.243-0.03h-2.5
						l0.017-2.09h3.023c0.139,0,0.271-0.028,0.392-0.08l10.012,0.116c0.177,0.163,0.413,0.263,0.672,0.264l2.32,0.01l6.2,0.03
						c0.001,0,0.003,0,0.005,0c0.279,0,0.546-0.117,0.736-0.323c0.005-0.006,0.01-0.011,0.015-0.017h0.219
						c0.102,0,0.201-0.015,0.293-0.043c0.028,0.002,0.057,0.003,0.086,0.003c0.013,0,0.027,0,0.04-0.001l1.01-0.04
						c0.323-0.013,0.605-0.178,0.779-0.424c0.084,0.023,0.172,0.035,0.261,0.035c0.049,0,0.098-0.003,0.147-0.011
						c0.29-0.043,0.546-0.211,0.701-0.459l1.4-2.24l1.149-1.841l0.046-0.058c0.038-0.018,0.074-0.039,0.109-0.062L30.685,5.052
						 M95.459,9.882v2.008l-15.44-0.035c0.001-0.237-0.083-0.468-0.238-0.651c-0.133-0.156-0.31-0.267-0.504-0.318
						c0.423-0.117,0.731-0.504,0.731-0.964v-0.04H95.459 M30.738,4.052h-0.24c-0.15,0.03-0.28,0.08-0.38,0.16
						c-0.1,0.02-0.21,0.1-0.31,0.23l-0.12,0.15l-1.18,1.89l-1.4,2.24l-0.08-0.07h-1v0.46l-1.01,0.04l-0.03-0.27l-0.35,0.04v0.27h-1
						l0.03,0.34l-6.2-0.03l-2.32-0.01c0-0.07-0.03-0.14-0.08-0.19c-0.02-0.02-0.05-0.04-0.09-0.06c-0.01,0-0.02-0.01-0.03-0.01
						h-0.12l-10.41-0.12c-0.03-0.26-0.07-0.44-0.12-0.54c-0.02-0.08-0.07-0.13-0.15-0.16h-4.09l-0.08,10.27l0.04,0.119
						c0.02,0.102,0.08,0.15,0.15,0.15c0.08,0,0.14-0.049,0.2-0.15l0.03-0.119l0.04-0.77l4.6-2.08v1.85l3.62-2.28v0.771h1.08v-0.811
						h2.24l-0.04-2l3.2-0.04v-0.35l3.67-0.08l0.93-0.7h3.89l0.04,0.35l0.97,0.04l0.04,2.12l0.34-0.03v-0.16l1.24,0.04
						c0.15,0.05,0.31,0.13,0.46,0.23c0.16,0.13,0.3,0.29,0.43,0.47c0.1,0.17,0.19,0.41,0.27,0.69c0.05,0.23,0.02,0.461-0.08,0.689
						c-0.03,0.131-0.07,0.25-0.12,0.352l-4.9,8.488l5.44,1.271l0.16-0.34c-0.06-0.029-0.11-0.07-0.16-0.119
						c-0.1-0.131-0.16-0.23-0.19-0.313c-0.03-0.1-0.01-0.199,0.04-0.309l1.66-3.24l0.08-0.121c0.07-0.1,0.16-0.17,0.26-0.229
						c0.21-0.102,0.39-0.17,0.55-0.23l0.11-0.068l-0.42-0.512l0.85-1.619c0.07-0.068,0.15-0.148,0.23-0.229
						c0.1-0.07,0.24-0.111,0.42-0.111h0.2l1.19-0.119h3.63l0.54,0.08l0.419-0.08l0.08,1.01c0.051,0.791,0.16,1.561,0.311,2.311
						c0.16,0.75,0.449,1.891,0.89,3.432c0.229,0.75,0.44,1.43,0.62,2.049v0.15h0.15l5.83-1.621l-0.16-0.191
						c-0.15-0.441-0.32-0.961-0.5-1.58c-0.381-1.211-0.67-2.211-0.85-3.012c-0.181-0.801-0.291-1.658-0.351-2.59v-1.189l0.51-0.199
						l-0.04-0.271l-0.23-0.078v-3.271l0.07-0.16c0.051-0.08,0.11-0.15,0.16-0.23c0.051-0.1,0.131-0.15,0.23-0.15
						c0.05,0,0.09,0.01,0.119,0.03l0.11-0.03c0.101-0.03,0.181-0.06,0.229-0.08c0.061-0.05,0.091-0.12,0.121-0.19l0.039-0.08
						l-0.039-0.62l0.699-0.04l0.08,0.96l0.73-0.27l0.35,0.08l0.27,0.16l14.24-0.12l0.23-0.5h0.27l0.15-0.12
						c0.08-0.02,0.13-0.08,0.16-0.15l0.04-0.85h0.5l0.069,0.23l-0.039,0.54l0.158,0.08c0.08,0.05,0.142,0.09,0.19,0.11
						c0.08,0,0.14-0.02,0.2-0.07c0.02-0.03,0.05-0.07,0.068-0.12l0.08-0.58l0.08-0.23l2.512,0.08v0.15h-0.16v1.16h0.66v-0.31
						l0.89,0.04l0.188-0.23v-0.7l-0.81-0.15l4.09,0.04l0.46-0.16l2.352-0.03v0.15l5.68,0.08l-0.039,0.27l-0.35,0.04l0.039,0.69
						l17.67,0.04l0.121-0.189v-3.67l-0.16-0.15H79.008v1.04h-5.67v0.15l-2.319,0.04l-0.54-0.19h-4.09l-0.04-4.36
						c0.03-0.03,0.04-0.07,0.04-0.12c0-0.1-0.04-0.19-0.11-0.27c-0.18-0.23-0.47-0.37-0.85-0.42c-0.03-0.006-0.06-0.009-0.091-0.009
						c-0.127,0-0.25,0.053-0.379,0.159l-0.23,0.19l-2.35,3.32l-0.041,1.51h-0.5c-0.029-0.52-0.051-0.83-0.08-0.93
						c0-0.05-0.039-0.1-0.109-0.15l-0.08-0.04l-0.39-0.04v-0.38l-0.15-0.31l-5.42-0.09l-6.479-0.11l-2.381-0.04
						c-0.08,0.03-0.14,0.05-0.189,0.08c-0.03,0.03-0.051,0.07-0.08,0.12v0.07l-0.27,0.04v0.271l-0.811-0.15l-0.04,1.12l-0.271,0.04
						l0.08-2.51c-0.049-0.1-0.109-0.22-0.16-0.35c-0.129-0.26-0.25-0.47-0.379-0.65c-0.131-0.16-0.351-0.29-0.66-0.39l-0.381-0.08
						L30.738,4.052L30.738,4.052z M31.278,8.532l-0.23-0.23l0.04-0.09l0.57-1.42l0.16-0.19c0.13-0.16,0.24-0.27,0.35-0.35
						c0.1-0.08,0.24-0.14,0.42-0.19h11.08l0.11,0.08c0.101,0.05,0.2,0.11,0.31,0.19c0.281,0.23,0.42,0.54,0.42,0.92
						c0,0.47-0.149,0.8-0.459,1.01c-0.1,0.08-0.2,0.13-0.311,0.15l-0.15,0.04l-12.069,0.08H31.278L31.278,8.532z M63.078,8.802
						l-0.199-0.16l1.39-2.16l0.89,0.08l0.041,0.39c0.079,0.25,0.129,0.42,0.149,0.5c0.05,0.08,0.12,0.14,0.2,0.189h0.34v0.93
						l-0.189,0.23H63.078L63.078,8.802z M0.398,9.192v-0.43l3.36-0.04l0.16,0.04c0.07,0.03,0.11,0.08,0.11,0.16
						c0.03,0.1,0.04,0.19,0.04,0.27H0.398L0.398,9.192z M63.108,9.922v-0.39h2.591l-0.121,0.39H63.108L63.108,9.922z M0.668,13.822
						c-0.05-0.03-0.09-0.06-0.11-0.08c-0.1-0.05-0.16-0.12-0.16-0.19c0-0.08,0.04-0.16,0.12-0.23l0.15-0.04h2.86l0.16,0.04
						c0.07,0.05,0.11,0.11,0.11,0.19c0,0.05-0.04,0.11-0.11,0.19c-0.03,0.05-0.07,0.09-0.12,0.12H0.668L0.668,13.822z
						 M33.858,18.563l0.16-0.109c-0.13-0.08-0.25-0.182-0.35-0.313c-0.21-0.289-0.3-0.568-0.27-0.85c0.03-0.289,0.14-0.59,0.35-0.93
						c0.13-0.15,0.24-0.27,0.35-0.34h1.46c0.1,0.02,0.21,0.061,0.31,0.109c0.31,0.16,0.53,0.361,0.65,0.621
						c0.19,0.439,0.21,0.84,0.08,1.199c-0.08,0.201-0.18,0.359-0.31,0.461v0.459h-3.47c-0.15-0.07-0.31-0.189-0.46-0.35
						c-0.31-0.279-0.48-0.592-0.5-0.92c-0.05-0.602,0.15-1.051,0.61-1.352c0.21-0.129,0.43-0.209,0.66-0.229l-0.15,0.34
						c-0.13,0.311-0.18,0.58-0.16,0.811c0.03,0.359,0.21,0.699,0.54,1.01C33.539,18.362,33.708,18.483,33.858,18.563L33.858,18.563z
						"/>
				</g>
			</g>
		</g>
	</g>
</g>
<g>
	<g>
		<g>
			<path fill="#7A4621" d="M53.98,25.91l6.297,5.25l13.854,0.42c4.759-0.561,8.677-1.82,11.757-3.779
				c4.057-5.623,7.588-8.435,10.592-8.435c-2.039-0.813-4.373-0.48-7,1c-2.629,1.479-5.295-0.021-8-4.5
				c-2.521-1.68-7.457-0.462-11.5,1.5l4.151-6.5l-12.151,4L53.98,25.91z"/>
		</g>
	</g>
</g>
<linearGradient id="SVGID_5_" gradientUnits="userSpaceOnUse" x1="-500.002" y1="56.7051" x2="-499.002" y2="57.7067" gradientTransform="matrix(34.4275 0 0 14.2748 17272.4746 -794.5581)">
	<stop  offset="0.6071" style="stop-color:#FFF6DA"/>
	<stop  offset="1" style="stop-color:#D6BB7E"/>
</linearGradient>
<path fill="url(#SVGID_5_)" d="M67.785,14.366h-3.564l-6.882,14.274h3.199l1.06-2.421h2.863l-0.188,2.421h3.06L67.785,14.366z
	 M65.201,17.961l-0.521,6.063h-2.156L65.201,17.961z M81.165,16.636c0-1.482-1.386-2.27-3.993-2.27c-3.23,0-4.709,1.03-5.48,3.681
	l-1.93,6.651c-0.24,0.78-0.287,1.167-0.287,1.528c0,1.567,1.455,2.414,4.156,2.414c1.486,0,2.654-0.257,3.471-0.781
	c0.881-0.584,1.434-1.482,1.86-3.051l0.46-1.619h-3.061l-0.506,1.758c-0.357,1.279-0.81,1.66-1.892,1.66
	c-0.833,0-1.292-0.303-1.292-0.859c0-0.171,0.055-0.459,0.146-0.82l2.056-7.072c0.313-1.049,0.817-1.468,1.821-1.468
	c0.832,0,1.285,0.302,1.285,0.839c0,0.229-0.07,0.519-0.211,1.068l-0.381,1.378h3.059l0.476-1.666
	C81.096,17.436,81.165,16.996,81.165,16.636z M91.768,14.366h-8.182l-3.893,14.274h8.414l0.6-2.191h-5.309l1.19-4.467h4.787
	l0.601-2.158h-4.787l0.91-3.301h5.066L91.768,14.366z"/>
</svg>
