<?xml version="1.0" encoding="utf-8"?>
<!-- Generator: Adobe Illustrator 16.0.0, SVG Export Plug-In . SVG Version: 6.00 Build 0)  -->
<!DOCTYPE svg PUBLIC "-//W3C//DTD SVG 1.0//EN" "http://www.w3.org/TR/2001/REC-SVG-20010904/DTD/svg10.dtd">
<svg version="1.0" id="图层_1" xmlns="http://www.w3.org/2000/svg" xmlns:xlink="http://www.w3.org/1999/xlink" x="0px" y="0px"
	 width="92px" height="36px" viewBox="0 0 92 36" enable-background="new 0 0 92 36" xml:space="preserve">
<linearGradient id="SVGID_1_" gradientUnits="userSpaceOnUse" x1="-221.1724" y1="393.4688" x2="-207.7598" y2="393.4688" gradientTransform="matrix(6.6522 0 0 -6.6522 1472.5223 2634.7434)">
	<stop  offset="5.586592e-03" style="stop-color:#FFD93F"/>
	<stop  offset="1" style="stop-color:#FF310E"/>
</linearGradient>
<path fill="url(#SVGID_1_)" d="M86.5,4.4v4l1.4,0.1C88,8.8,88.1,9,88.1,9.2c0.1,0.2,0.2,0.3,0.2,0.4c0,0.1-0.1,0.2-0.2,0.4
	c-0.1,0.1-0.4,0.2-0.6,0.2c-0.1,0-0.3,0-0.4-0.1h-0.4L86,11.3l-1.2-0.5h-10l-0.5,0.6L73.7,11h-7.2l-0.1,0.6H55.1l-1.3,0.7
	c-0.3,0.2-0.6,0.4-1,0.5c-0.3,0.1-0.6,0.1-0.7,0.1c-0.2,0-0.5,0-0.7-0.1c-0.2,0-0.3-0.1-0.3-0.2l-0.5-0.3h-5.1
	c0,1.3,0.3,2.6,0.9,3.9c0.5,1.2,1.3,2.5,2.3,3.9c1.1,1.4,2.7,2.9,4.7,4.3c0,0-0.3,0.3-0.7,0.9c-0.3,0.6-0.7,1.2-1.2,1.9
	c-0.4,0.8-1,1.7-1.7,2.7c-1.5-1-2.9-2.2-4.3-3.7c-1.2-1.2-2.4-2.7-3.6-4.6c-1.2-1.8-2.3-3.9-3.1-6.4c-0.1-0.1-0.2-0.1-0.4,0
	c-0.1,0.1-0.2,0.2-0.3,0.3L37,15.4c-0.6,0.3-1.2,0.5-1.8,0.7c-0.5,0.2-1.1,0.2-1.8,0.1c-0.7-0.1-1.4-0.4-2-0.9
	c0,0-0.3,0.2-0.7,0.6c-0.4,0.4-0.9,0.9-1.4,1.5c-0.5,0.6-1,1.3-1.5,2.1c-0.5,0.7-0.8,1.5-1,2.2c0,0-0.2,0.1-0.7,0.3
	c-0.4,0.2-0.9,0.3-1.5,0.3c-0.5,0-1.1-0.1-1.6-0.4c-0.5-0.3-0.8-0.9-0.9-1.8c0-0.1,0.2-0.5,0.6-1.2c0.3-0.6,0.7-1.3,1.1-2.1
	c0.4-0.7,0.8-1.4,1.1-2.1c0.4-0.6,0.6-0.9,0.7-0.9c-0.1,0-0.3-0.1-0.6-0.4c-0.3-0.3-0.6-0.4-1-0.3c-0.1,0-0.3,0.1-0.7,0.3
	c-0.4,0.1-1,0.3-1.7,0.6c-0.7,0.2-1.4,0.5-2.2,0.8c-0.8,0.3-1.7,0.6-2.5,0.9c-2,0.7-4.2,1.5-6.7,2.5L1.4,21L0.7,10.5
	C1.1,10.2,1.5,10,2,9.8c0.5-0.2,1-0.3,1.6-0.4c0.6-0.1,1.2-0.1,1.9,0c0,0.1,0.5,0,1.6,0c1.1-0.1,2.3-0.2,3.7-0.3l5.4-0.3
	c0.3,0.1,0.7,0.2,1,0.3c0.6,0.2,1.1,0.3,1.6,0.3c0.1,0,0.5-0.1,0.9-0.2c0.5-0.1,1.1-0.2,1.6-0.4c0.6-0.1,1.3-0.4,2.1-0.6l3.4-2.9
	l0.3,0.3H48c0,0,0.1-0.1,0.2-0.2c0.1-0.1,0.2-0.1,0.4-0.2c0.2,0,0.5-0.1,0.9-0.1l16,0.1c0.3,0.1,0.6,0.2,0.9,0.3
	c0.2,0.1,0.5,0.1,0.7,0.2C67.4,5.9,67.6,6,67.8,6h6.7c0.3,0.4,0.7,0.9,1,1.2c0.3,0.3,0.6,0.6,0.9,0.9c0.3,0.3,0.5,0.4,0.7,0.4
	h5.9l0.4-0.1c0.3-0.5,0.5-1,0.6-1.4c0.2-0.3,0.3-0.7,0.5-1.1c0.1-0.4,0.2-0.6,0.3-0.7c0.1-0.3,0.1-0.5,0.1-0.6V4.4L86.5,4.4
	L86.5,4.4z M35.5,12.8l-2,0c-0.4,0-0.7,0.1-1,0.3c-0.2,0.3-0.4,0.6-0.4,1c0,0.3,0.1,0.6,0.4,0.9c0.3,0.2,0.6,0.4,1,0.4h2
	c0.4,0,0.7-0.1,0.9-0.4c0.2-0.2,0.3-0.5,0.3-0.9c0-0.4-0.1-0.7-0.3-1C36.1,12.9,35.8,12.8,35.5,12.8z"/>
</svg>
