<?xml version="1.0" encoding="utf-8"?>
<!-- Generator: Adobe Illustrator 16.0.0, SVG Export Plug-In . SVG Version: 6.00 Build 0)  -->
<!DOCTYPE svg PUBLIC "-//W3C//DTD SVG 1.1//EN" "http://www.w3.org/Graphics/SVG/1.1/DTD/svg11.dtd">
<svg version="1.1" id="图层_1" xmlns="http://www.w3.org/2000/svg" xmlns:xlink="http://www.w3.org/1999/xlink" x="0px" y="0px"
	 width="36px" height="32px" viewBox="0 0 36 32" enable-background="new 0 0 36 32" xml:space="preserve">
<rect fill="none" width="36" height="32"/>
<g>
	<g>
		<g>
			<g>
				
					<linearGradient id="SVGID_1_" gradientUnits="userSpaceOnUse" x1="-261.7324" y1="396.2168" x2="-262.7324" y2="395.2168" gradientTransform="matrix(11.282 0 0 -24.8744 2964.4109 9859.2412)">
					<stop  offset="0" style="stop-color:#BB925B"/>
					<stop  offset="0.3429" style="stop-color:#FFF6DA"/>
					<stop  offset="0.6571" style="stop-color:#FFF1B1"/>
					<stop  offset="1" style="stop-color:#B38B54"/>
				</linearGradient>
				<path fill="url(#SVGID_1_)" d="M8.397,3.691l0.036,0.036V3.8c0,0.025,0.013,0.036,0.036,0.036V3.91h0.037v0.035
					c0.024,0,0.038,0.013,0.038,0.036v0.11H8.58v0.073h0.036v0.073c0.024,0,0.037,0.012,0.037,0.035v0.11l0.036,0.036V4.49
					l0.035,0.039v0.036h0.038v0.073l0.036,0.036v0.037c0.025,0,0.036,0.012,0.036,0.036v0.036L8.871,4.82v0.109
					c0,0.023,0.012,0.036,0.036,0.036v0.037h0.037V5.11H8.98v0.037l0.037,0.036V5.22l0.036,0.035v0.074L9.09,5.365v0.107L9.127,5.51
					v0.037l0.036,0.035v0.037l0.071,0.077v0.035c0.024,0,0.037,0.014,0.037,0.037l0.035,0.037v0.182l0.038,0.037v0.072l0.038,0.036
					v0.036l0.035,0.037v0.037l0.037,0.036V6.35H9.49v0.074c0,0.024,0.013,0.036,0.036,0.036v0.108c0.025,0,0.037,0.013,0.037,0.037
					v0.073c0.024,0,0.037,0.013,0.037,0.037v0.072h0.037v0.036L9.673,6.86v0.036L9.71,6.932v0.037l0.037,0.036v0.146l0.036,0.037
					V7.26H9.82v0.108h0.037v0.073l0.036,0.037v0.037L9.93,7.551v0.073c0.024,0,0.036,0.011,0.036,0.035v0.073
					c0,0.024,0.012,0.037,0.037,0.037v0.072l0.036,0.036v0.037h0.038V7.95l0.036,0.037v0.036l0.037,0.036v0.073h0.037V8.24
					l0.037,0.036v0.037c0,0.023,0.011,0.036,0.036,0.036v0.036l0.037,0.037v0.109l0.072,0.072v0.073l0.037,0.037v0.036h0.036v0.073
					h0.037c0,0.022,0.012,0.036,0.036,0.036v0.036l0.147,0.146v0.474l0.036,0.035v0.074c0.023,0,0.035,0.012,0.035,0.035
					l0.039,0.037v0.036l0.035,0.036v0.036h0.037v0.075c0.024,0,0.037,0.011,0.037,0.035l0.036,0.037v0.035h0.036v0.037l0.073,0.073
					c0,0.023,0.012,0.036,0.037,0.036v0.036H11.1v0.036l0.109,0.146v0.255c0.024,0.025,0.047,0.036,0.073,0.036v0.474
					c0,0.098,0,0.17,0,0.22c0,0.072,0,0.145,0,0.218v0.184c0,0.071,0,0.144,0,0.218v0.182c0,0.097,0,0.183,0,0.256
					c0,0.047,0,0.12,0,0.219c0,0.048,0,0.121,0,0.218c0,0.049,0,0.108,0,0.182v0.036c0,0.049,0,0.11,0,0.184
					c0,0.048,0,0.121,0,0.219c0,0.048,0,0.121,0,0.219c0,0.049,0,0.108,0,0.182c0,0.072,0,0.146,0,0.218c0,0.073,0,0.146,0,0.219
					c0,0.073,0,0.147,0,0.22c0,0.073,0,0.133,0,0.182c0,0.097,0,0.17,0,0.219c0,0.073,0,0.146,0,0.218c0,0.073,0,0.146,0,0.221
					c0,0.071,0,0.133,0,0.181c0,0.098,0,0.17,0,0.219c0,0.073,0,0.146,0,0.219c0,0.073,0,0.146,0,0.219c0,0.073,0,0.146,0,0.219
					c0,0.073,0,0.146,0,0.218c0,0.05,0,0.122,0,0.22c0,0.05,0,0.12,0,0.22c0,0.049,0,0.108,0,0.182c0,0.072,0,0.146,0,0.218
					c0,0.05,0,0.122,0,0.22c0,0.049,0,0.121,0,0.219c0,0.049,0,0.108,0,0.183s0,0.146,0,0.22c0,0.072,0,0.146,0,0.217
					c0,0.073,0,0.146,0,0.221s0,0.134,0,0.182c0,0.098,0,0.171,0,0.219c0,0.073,0,0.146,0,0.219c0,0.074,0,0.146,0,0.22
					s0,0.133,0,0.183c0,0.096,0,0.17,0,0.219c0,0.072,0,0.146,0,0.22c0,0.071,0,0.145,0,0.218s0,0.146,0,0.219
					c0,0.073,0,0.146,0,0.219c0,0.05,0,0.121,0,0.22c0,0.049,0,0.122,0,0.219c0,0.049,0,0.108,0,0.183c0,0.071,0,0.146,0,0.219
					c0,0.048,0,0.121,0,0.219c0,0.048,0,0.122,0,0.219c0,0.049,0,0.108,0,0.182c0,0.074,0,0.146,0,0.22s0,0.146,0,0.219
					s0,0.146,0,0.22c0,0.072,0,0.133,0,0.183c0,0.096,0,0.17,0,0.219c0,0.071,0,0.146,0,0.219c0,0.072,0,0.146,0,0.218
					c0,0.073,0,0.135,0,0.184c0,0.098,0,0.17,0,0.219c0,0.073,0,0.146,0,0.219s0,0.158,0,0.256v0.072c-0.025,0-0.061,0-0.109,0
					v0.035c-0.025,0-0.037,0.014-0.037,0.036L11.1,24.905h-0.074v0.034l-0.042,0.033v0.035h-0.037v0.072c-0.169,0-0.34,0-0.509,0
					v-0.583l0.072-0.072c0.024,0,0.037-0.014,0.037-0.036h0.036v-0.037h0.036v-0.035h0.038c0-0.073,0-0.135,0-0.184
					c0-0.072,0-0.121,0-0.146c0-0.072,0-0.145,0-0.217s0-0.147,0-0.221c0-0.07,0-0.146,0-0.219s0-0.146,0-0.219
					c0-0.049,0-0.122,0-0.219c0-0.049,0-0.108,0-0.184c0-0.072,0-0.145,0-0.219c0-0.072,0-0.146,0-0.219c0-0.047,0-0.121,0-0.219
					c0-0.048,0-0.107,0-0.182s0-0.146,0-0.219s0-0.146,0-0.221c0-0.07,0-0.145,0-0.219c0-0.072,0-0.133,0-0.181
					c0-0.099,0-0.171,0-0.22c0-0.097,0-0.17,0-0.219c0-0.072,0-0.146,0-0.22c0-0.071,0-0.133,0-0.181c0-0.099,0-0.172,0-0.221
					c0-0.097,0-0.17,0-0.218c0-0.073,0-0.146,0-0.22c0-0.072,0-0.145,0-0.219c0-0.072,0-0.146,0-0.219c0-0.072,0-0.146,0-0.219
					c0-0.048,0-0.122,0-0.219c0-0.049,0-0.109,0-0.182c0-0.073,0-0.146,0-0.22s0-0.146,0-0.219c0-0.049,0-0.121,0-0.22
					c0-0.049,0-0.108,0-0.182c0-0.074,0-0.146,0-0.22c0-0.097,0-0.17,0-0.218c0-0.074,0-0.146,0-0.221c0-0.071,0-0.133,0-0.182
					c0-0.097,0-0.17,0-0.219c0-0.097,0-0.17,0-0.218c0-0.073,0-0.146,0-0.219c0-0.073,0-0.135,0-0.183c0-0.097,0-0.182,0-0.256
					c0-0.072,0-0.145,0-0.218c0-0.05,0-0.122,0-0.219c0-0.049,0-0.109,0-0.182c0-0.073,0-0.146,0-0.22c0-0.072,0-0.146,0-0.218
					c0-0.049,0-0.121,0-0.218c0-0.051,0-0.11,0-0.184c0-0.074,0-0.146,0-0.219c0-0.072,0-0.146,0-0.22c0-0.071,0-0.144,0-0.218
					c0-0.072,0-0.133,0-0.182c0-0.098,0-0.17,0-0.22c0-0.097,0-0.169,0-0.218c0-0.073,0-0.146,0-0.218c0-0.073,0-0.135,0-0.183
					c0-0.097,0-0.171,0-0.219c0-0.097,0-0.171,0-0.219c0-0.073,0-0.146,0-0.219c0-0.073,0-0.146,0-0.218c0-0.073,0-0.146,0-0.22
					c0-0.072,0-0.145,0-0.218c0-0.049,0-0.122,0-0.22c0-0.048,0-0.108,0-0.182v-0.036c-0.025,0-0.05,0-0.074,0l-0.036-0.037v-0.036
					l-0.037-0.036v-0.02h-0.036v-0.036l-0.037-0.036v-0.036l-0.036-0.037V10.47l-0.037-0.037v-0.036h-0.037v-0.073h-0.036v-0.037
					l-0.037-0.036h-0.036c0-0.025-0.012-0.037-0.037-0.037v-0.072c0-0.025-0.013-0.036-0.037-0.036v-0.037h-0.037V9.996
					c-0.023,0-0.036-0.012-0.036-0.035c0-0.025-0.013-0.037-0.038-0.037V9.887H9.997V9.85L9.96,9.776
					c0-0.023-0.012-0.036-0.036-0.036V9.704L9.815,9.632V9.595H9.781V9.523c-0.024,0-0.036-0.014-0.036-0.037L9.708,9.45V9.413
					H9.672V9.377C9.648,9.353,9.625,9.341,9.6,9.341V9.304H9.562V9.268c-0.023,0-0.037-0.013-0.037-0.037V9.157
					c-0.023,0-0.036-0.013-0.036-0.037L9.454,9.085V9.049H9.416l-0.11-0.146V8.867c-0.023,0-0.035-0.013-0.035-0.036H9.234v17.782
					l-0.146,0.035c-0.048,0.024-0.097,0.062-0.145,0.109H8.907c-0.583,0.315-1.13,0.534-1.64,0.655
					c-0.608,0.194-1.189,0.315-1.75,0.364c-0.51,0.099-1.008,0.121-1.493,0.072c-0.461-0.049-0.875-0.108-1.239-0.182
					c-0.801-0.17-1.421-0.376-1.858-0.619c-0.219-0.097-0.389-0.182-0.51-0.254c-0.17-0.074-0.255-0.122-0.255-0.146l-0.109-0.035
					V8.794c-0.097-0.195-0.061-0.402,0.109-0.621c0-0.023,0.013-0.048,0.036-0.072c0.074-0.023,0.147-0.036,0.219-0.036V8.029
					C0.539,7.979,0.696,7.943,0.89,7.92c0.194-0.025,0.474-0.05,0.839-0.073c0.193-0.048,0.4-0.085,0.62-0.109
					c0.17-0.024,0.291-0.036,0.363-0.036c-0.024-0.219-0.024-0.389,0-0.51c0.048-0.073,0.086-0.134,0.11-0.183l0.109-0.146V5.258
					H2.894c-0.121,0-0.255-0.011-0.401-0.035c-0.17,0-0.34,0-0.51,0V4.712h0.036V4.675c0.024,0,0.048,0,0.073,0
					c-0.048-0.072-0.048-0.182,0-0.327c0-0.073,0.048-0.194,0.146-0.365C2.31,3.814,2.433,3.716,2.603,3.692h4.3l0.181,0.071V3.91
					C7.23,3.617,7.412,3.363,7.631,3.144V3.109c0-0.025,0-0.049,0-0.073c0.025,0,0.06,0,0.11,0C7.741,3.011,7.752,3,7.777,3v0.036
					c0.121,0,0.243,0,0.364,0v0.401l0.037,0.036v0.036c0.047,0,0.109,0,0.182,0v0.036l0.037,0.036V3.691z M8.871,21.766
					c0-0.025,0-0.063,0-0.109v-0.11c-1.967,0.293-3.341,0.438-4.118,0.438c-0.802,0-2.234-0.146-4.3-0.438c0,0.024,0,0.05,0,0.073
					c0,0.025,0,0.049,0,0.074v0.51c0,0.023,0,0.049,0,0.072s0,0.049,0,0.072v0.072c0,0.025,0,0.049,0,0.072c0,0.025,0,0.05,0,0.074
					c0,0.023,0,0.049,0,0.072v0.071c0,0.024,0,0.05,0,0.074s0,0.049,0,0.071v0.037c2.09,0.364,3.546,0.547,4.373,0.547
					c0.873,0,2.224-0.17,4.045-0.512v-0.4c0-0.022,0-0.047,0-0.071v-0.037c0-0.048,0-0.084,0-0.108c0-0.023,0-0.049,0-0.074v-0.034
					c0-0.025,0-0.05,0-0.073s0-0.061,0-0.109v-0.037c0-0.023,0-0.049,0-0.071c0-0.024,0-0.05,0-0.072
					C8.871,21.814,8.871,21.789,8.871,21.766z"/>
			</g>
		</g>
	</g>
</g>
<g>
	<g>
		<g>
			<path fill="#7A4621" d="M5.9,24.168l4.445,3.706l9.78,0.296c3.359-0.395,6.125-1.283,8.299-2.667
				c2.864-3.97,5.356-5.954,7.477-5.954c-1.439-0.574-3.087-0.339-4.941,0.706c-1.855,1.045-3.737-0.015-5.647-3.177
				c-1.778-1.185-5.263-0.326-8.118,1.059l2.931-4.588l-8.578,2.824L5.9,24.168z"/>
		</g>
	</g>
</g>
<linearGradient id="SVGID_2_" gradientUnits="userSpaceOnUse" x1="-275.9746" y1="372.3232" x2="-274.9747" y2="371.3217" gradientTransform="matrix(24.3018 0 0 -10.0763 6715.877 3768.0361)">
	<stop  offset="0.6071" style="stop-color:#FFF6DA"/>
	<stop  offset="1" style="stop-color:#D6BB7E"/>
</linearGradient>
<path fill="url(#SVGID_2_)" d="M15.645,16.02h-2.517L8.271,26.096h2.258l0.747-1.709h2.022l-0.132,1.709h2.159L15.645,16.02z
	 M13.82,18.557l-0.368,4.279H11.93L13.82,18.557z M25.09,17.621c0-1.046-0.979-1.602-2.819-1.602c-2.28,0-3.324,0.727-3.868,2.598
	l-1.362,4.695c-0.17,0.551-0.204,0.824-0.204,1.079c0,1.106,1.028,1.704,2.934,1.704c1.05,0,1.874-0.18,2.45-0.551
	c0.621-0.412,1.012-1.047,1.313-2.153l0.324-1.144h-2.159l-0.357,1.24c-0.252,0.903-0.571,1.172-1.335,1.172
	c-0.588,0-0.912-0.213-0.912-0.606c0-0.12,0.038-0.324,0.104-0.579l1.451-4.992c0.219-0.74,0.576-1.037,1.285-1.037
	c0.588,0,0.906,0.213,0.906,0.594c0,0.162-0.049,0.365-0.148,0.754l-0.27,0.973h2.16l0.335-1.176
	C25.039,18.187,25.09,17.877,25.09,17.621z M32.572,16.02h-5.774l-2.747,10.076h5.939l0.424-1.547h-3.748l0.841-3.152h3.379
	l0.423-1.524H27.93l0.643-2.329h3.577L32.572,16.02z"/>
</svg>
