<?xml version="1.0" encoding="utf-8"?>
<!-- Generator: Adobe Illustrator 16.0.0, SVG Export Plug-In . SVG Version: 6.00 Build 0)  -->
<!DOCTYPE svg PUBLIC "-//W3C//DTD SVG 1.1//EN" "http://www.w3.org/Graphics/SVG/1.1/DTD/svg11.dtd">
<svg version="1.1" id="图层_1" xmlns="http://www.w3.org/2000/svg" xmlns:xlink="http://www.w3.org/1999/xlink" x="0px" y="0px"
	 width="100.5px" height="32px" viewBox="0 0 100.5 32" enable-background="new 0 0 100.5 32" xml:space="preserve">
<rect fill="none" width="100.5" height="32"/>
<g>
	<g>
		
			<linearGradient id="SVGID_1_" gradientUnits="userSpaceOnUse" x1="-424.5859" y1="282.6143" x2="-425.5859" y2="281.6143" gradientTransform="matrix(100.022 0 0 -20.195 42564.4453 5713.0518)">
			<stop  offset="0" style="stop-color:#BB925B"/>
			<stop  offset="0.3429" style="stop-color:#FFF6DA"/>
			<stop  offset="0.6571" style="stop-color:#FFF1B1"/>
			<stop  offset="1" style="stop-color:#B38B54"/>
		</linearGradient>
		<path fill="url(#SVGID_1_)" d="M99.288,15.852c-0.726,0.562-1.461,1.105-2.205,1.628c-0.081,0.06-0.17,0.121-0.272,0.181
			c-2.733,1.792-5.181,2.958-7.334,3.501c-2.638,0.686-5.291,1.068-7.969,1.148c-2.777,0.101-5.462-0.123-8.058-0.666
			c-1.025-0.221-2.103-0.475-3.231-0.754c-1.285-0.322-2.063-0.502-2.322-0.543c-1.489-0.344-3.25-0.563-5.283-0.664
			c-2.072-0.119-5.062-0.129-8.963-0.029l-5.224,0.148l-0.33,0.729l-3.141-0.063c-0.039-0.099-0.121-0.222-0.239-0.362
			c-0.242-0.263-0.553-0.494-0.937-0.694c-0.383-0.181-0.793-0.323-1.238-0.423l-0.543-0.09l-0.18,2.596l-0.727,0.693
			c-0.543,0.545-0.937,1.039-1.175,1.479c-0.243,0.424-0.483,1.049-0.727,1.872c-0.141,0.401-0.249,0.755-0.331,1.058h-1.69
			c0-0.244,0.022-0.522,0.062-0.846c0.079-0.667,0.211-1.229,0.39-1.691c0.204-0.461,0.424-0.916,0.664-1.357l0.335-0.543
			c-0.141-0.264-0.323-0.553-0.546-0.874c-0.422-0.625-0.804-1.077-1.147-1.359c-0.362-0.261-0.713-0.614-1.053-1.055l-0.396-0.575
			c-0.361-0.202-0.783-0.383-1.266-0.543c-1.007-0.283-1.892-0.271-2.657,0.031c-0.16,0.06-0.975,0.439-2.443,1.145
			c-0.967,0.465-1.923,0.799-2.869,0.998c-1.064,0.241-2.583,0.274-4.559,0.09c-1.648-0.162-3.329-0.422-5.039-0.785
			c-1.792-0.44-3.047-0.734-3.774-0.875c-1.185-0.261-2.153-0.41-2.895-0.453c-0.725-0.02-1.53,0.021-2.416,0.123
			c-0.442,0.037-0.816,0.091-1.115,0.15l-1.121,0.907l-0.239,1.085c-0.182,0.745-0.361,1.166-0.543,1.268
			c-0.26,0.181-0.622,0.402-1.085,0.664l-0.783-0.062c-0.183-0.101-0.383-0.251-0.604-0.455c-0.421-0.38-0.727-0.804-0.905-1.267
			c-0.203-0.463-0.271-1.196-0.213-2.202l0.153-1.39l-0.878-0.573v-1.388l0.667-0.332c0-0.344,0.017-0.725,0.058-1.148
			c0.081-0.844,0.213-1.438,0.391-1.781c0.223-0.403,0.465-0.672,0.727-0.815c0.201-0.121,0.531-0.22,0.996-0.302
			c0.321-0.06,0.575,0.011,0.754,0.213c0.082,0.099,0.131,0.199,0.149,0.302c1.893-0.122,3.995-0.245,6.311-0.365
			c4.668-0.26,8.119-0.373,10.351-0.331c1.993,0.02,4.929,0.169,8.813,0.451c3.562,0.285,5.554,0.413,5.975,0.396
			c0.664-0.042,1.259-0.143,1.783-0.304c0.302-0.079,0.704-0.222,1.208-0.422c0.342-0.101,0.594-0.091,0.754,0.032
			c0.099,0.058,0.162,0.138,0.182,0.241c0.201-0.183,0.442-0.403,0.723-0.667c0.522-0.503,0.905-0.956,1.147-1.356
			c0.261-0.426,0.472-0.906,0.634-1.449l0.151-0.726h1.449v0.756c-0.061,0.583-0.172,1.096-0.334,1.537
			c-0.162,0.445-0.4,0.887-0.723,1.331c-0.162,0.239-0.311,0.434-0.454,0.575l8.511,0.119l-0.542-0.845l1.994,0.845l1.416,0.063
			l-0.666-0.966l2.236,0.966h1.389l-0.666-0.966l2.234,1.025h1.299L58.48,9.996l2.172,0.907l1.359,0.089l-0.574-0.996l2.084,0.996
			l1.446,0.061l-0.604-0.999l2.084,0.999l1.508,0.06l-0.723-0.968l1.899,0.968l1.571-0.121l-0.514-0.785l2.082,0.906l1.115,0.03
			c1.008,0,2.113-0.052,3.321-0.151c1.972-0.183,3.831-0.382,5.583-0.604l0.604,0.453c0.504,0.34,1.035,0.672,1.602,0.996
			c1.791,1.046,3.488,1.761,5.1,2.144c1.608,0.383,3.872,0.685,6.791,0.904c0.242,0.022,0.473,0.041,0.693,0.061
			c1.167,0.08,2.223,0.132,3.169,0.153L99.288,15.852z"/>
	</g>
</g>
<g>
	<g>
		<path fill="#7A4621" d="M62.083,26.807l5.631,4.694l12.388,0.376c4.255-0.501,7.758-1.627,10.512-3.379
			c3.628-5.028,6.785-7.542,9.47-7.542c-1.823-0.728-3.909-0.429-6.259,0.894c-2.35,1.324-4.734-0.018-7.152-4.023
			c-2.253-1.501-6.668-0.412-10.283,1.342l3.713-5.812l-10.865,3.577L62.083,26.807z"/>
	</g>
</g>
<linearGradient id="SVGID_2_" gradientUnits="userSpaceOnUse" x1="-417.1846" y1="274.4346" x2="-416.1846" y2="273.433" gradientTransform="matrix(30.7822 0 0 -12.7634 12908.1328 3519.6765)">
	<stop  offset="0.6071" style="stop-color:#FFF6DA"/>
	<stop  offset="1" style="stop-color:#D6BB7E"/>
</linearGradient>
<path fill="url(#SVGID_2_)" d="M74.426,16.485h-3.188l-6.152,12.764h2.861l0.945-2.165h2.562l-0.167,2.165h2.735L74.426,16.485z
	 M72.115,19.699l-0.467,5.42h-1.928L72.115,19.699z M86.39,18.515c0-1.325-1.239-2.029-3.57-2.029c-2.888,0-4.21,0.921-4.899,3.29
	l-1.727,5.948c-0.215,0.698-0.258,1.044-0.258,1.366c0,1.402,1.303,2.159,3.717,2.159c1.33,0,2.373-0.229,3.104-0.698
	c0.786-0.521,1.28-1.326,1.663-2.728l0.41-1.448h-2.734l-0.453,1.571c-0.32,1.144-0.723,1.484-1.69,1.484
	c-0.745,0-1.155-0.271-1.155-0.769c0-0.152,0.049-0.41,0.132-0.733l1.837-6.323c0.279-0.938,0.731-1.313,1.629-1.313
	c0.745,0,1.148,0.27,1.148,0.751c0,0.205-0.063,0.463-0.188,0.956l-0.342,1.231h2.735l0.425-1.49
	C86.326,19.23,86.39,18.838,86.39,18.515z M95.869,16.485h-7.315l-3.479,12.764h7.523l0.535-1.96h-4.746l1.064-3.994h4.281
	l0.535-1.93h-4.279l0.813-2.95h4.53L95.869,16.485z"/>
</svg>
