<?xml version="1.0" encoding="utf-8"?>
<!-- Generator: Adobe Illustrator 16.0.0, SVG Export Plug-In . SVG Version: 6.00 Build 0)  -->
<!DOCTYPE svg PUBLIC "-//W3C//DTD SVG 1.1//EN" "http://www.w3.org/Graphics/SVG/1.1/DTD/svg11.dtd">
<svg version="1.1" id="图层_1" xmlns="http://www.w3.org/2000/svg" xmlns:xlink="http://www.w3.org/1999/xlink" x="0px" y="0px"
	 width="69.25px" height="32px" viewBox="0 0 69.25 32" enable-background="new 0 0 69.25 32" xml:space="preserve">
<rect fill="none" width="69.25" height="32"/>
<g>
	<g>
		<g>
			<g>
				
					<linearGradient id="SVGID_1_" gradientUnits="userSpaceOnUse" x1="-266.229" y1="396.7646" x2="-267.2297" y2="395.7639" gradientTransform="matrix(68.7803 0 0 -25.424 18368.4902 10086.4785)">
					<stop  offset="0" style="stop-color:#BB925B"/>
					<stop  offset="0.3429" style="stop-color:#FFF6DA"/>
					<stop  offset="0.6571" style="stop-color:#FFF1B1"/>
					<stop  offset="1" style="stop-color:#B38B54"/>
				</linearGradient>
				<path fill="url(#SVGID_1_)" d="M68.96,6.573c0,0.714-0.042,1.294-0.133,1.739c-0.031,0.298-0.12,0.61-0.269,0.937
					c-0.058,0.149-0.117,0.281-0.178,0.4H54.512l-0.18-0.133l-0.27,0.089h-10.66l-0.266,0.18l-0.402-0.136H38.23V8.847h-1.516V8.18
					h-0.938v1.56l0.226,0.179v0.758l-0.226,0.179l-0.088,1.516H25.565c-0.06,0-0.119,0.028-0.179,0.089
					c-0.149,0.119-0.266,0.281-0.358,0.492c-0.118,0.325-0.712,1.783-1.781,4.37c-0.151,0.267-0.298,0.43-0.448,0.489
					c-0.088,0.06-0.327,0.104-0.713,0.133l-4.638,0.179c-0.178-0.089-0.4-0.179-0.67-0.267c-0.475-0.209-0.862-0.328-1.16-0.355
					c-0.326-0.061-0.55-0.091-0.668-0.091c-0.12,0.03-0.341,0.073-0.667,0.135c-0.271,0.088-0.536,0.12-0.805,0.088l-0.313-0.088
					L10.89,27.18l-0.089,1.068l0.491,0.714l-9.588-0.089c0-0.564,0.03-1.292,0.09-2.184c0.179-1.787,0.46-3.479,0.847-5.086
					c0.415-1.636,0.951-3.168,1.605-4.595c0.029-0.087,0.238-0.522,0.625-1.293c0.178-0.386,0.283-0.655,0.311-0.802
					c0.091-0.356,0.015-0.641-0.223-0.848C4.78,13.887,4.396,13.694,3.8,13.487c-0.597-0.209-0.982-0.341-1.16-0.401
					c-0.238-0.09-0.358-0.208-0.358-0.357c-0.029-0.208-0.014-0.551,0.046-1.026l0.089-0.668l-1.651-0.178
					c-0.119,0-0.224-0.031-0.312-0.091c-0.208-0.148-0.298-0.34-0.269-0.578c0.06-0.299,0.255-0.447,0.581-0.447
					c0.179-0.031,0.342-0.015,0.49,0.046L1.48,8.624l1.339,0.848l0.58-2.899l0.937-1.784V4.03L5.05,4.432l2.854,0.045l0.269,0.221
					h9.722v0.18h5.44V4.743h9.368V3.538h2.229l0.267,0.315v0.803l0.313-0.044l0.313,0.399v0.716h0.893V5.102h1.338V3.806h4.639
					l0.312-0.177l0.401,0.177h10.66l0.311,0.046l0.314-0.132h13.692l0.224,0.266c0.119,0.268,0.209,0.581,0.268,0.936
					C68.9,5.368,68.932,5.918,68.96,6.573z M22.978,12.46l-5.083,0.045c-0.506,0.504-0.864,0.877-1.07,1.115
					c-0.327,0.416-0.506,0.653-0.536,0.714c-0.208,0.327-0.327,0.698-0.354,1.114c-0.033,0.208,0,0.505,0.087,0.892
					c0.059,0.178,0.118,0.33,0.178,0.446l-0.312,0.223c-0.148-0.207-0.268-0.46-0.356-0.759c-0.237-0.534-0.342-0.981-0.313-1.336
					c0.06-0.594,0.283-1.146,0.67-1.65c0.149-0.239,0.312-0.433,0.491-0.581c-0.208,0.029-0.444,0.089-0.715,0.178
					c-0.534,0.179-0.921,0.386-1.159,0.625c-0.327,0.355-0.534,0.743-0.624,1.159c-0.119,0.446-0.09,0.862,0.09,1.248
					c0.177,0.356,0.431,0.656,0.757,0.893c0.327,0.239,0.713,0.399,1.16,0.491c0.268,0.027,0.7,0.045,1.293,0.045
					c0.505-0.031,0.833,0,0.98,0.088c0.209,0.06,0.938,0.091,2.187,0.091c1.189-0.031,1.843-0.077,1.962-0.135
					c0.147-0.089,0.446-0.757,0.892-2.005l0.67-1.875c0-0.089,0-0.181,0-0.269c0-0.178-0.031-0.327-0.09-0.446
					c-0.12-0.119-0.284-0.207-0.491-0.267L22.978,12.46z"/>
			</g>
		</g>
	</g>
</g>
<g>
	<g>
		<g>
			<path fill="#7A4621" d="M11.5,24.974l4.594,3.829L26.2,29.109c3.471-0.408,6.329-1.328,8.575-2.757
				c2.96-4.102,5.535-6.152,7.726-6.152c-1.487-0.593-3.189-0.351-5.105,0.729c-1.917,1.079-3.862-0.015-5.836-3.283
				c-1.837-1.225-5.438-0.336-8.388,1.095L26.2,14l-8.864,2.918L11.5,24.974z"/>
		</g>
	</g>
</g>
<g>
	
		<linearGradient id="SVGID_2_" gradientUnits="userSpaceOnUse" x1="-260.3823" y1="373.6182" x2="-259.3823" y2="372.6165" gradientTransform="matrix(25.1118 0 0 -10.4122 6553.5811 3907.1265)">
		<stop  offset="0.6071" style="stop-color:#FFF6DA"/>
		<stop  offset="1" style="stop-color:#D6BB7E"/>
	</linearGradient>
	<path fill="url(#SVGID_2_)" d="M21.569,16.553h-2.601L13.95,26.965h2.333l0.772-1.766h2.089l-0.136,1.766h2.231L21.569,16.553z
		 M19.685,19.176l-0.381,4.421h-1.572L19.685,19.176z M31.329,18.209c0-1.082-1.011-1.656-2.913-1.656
		c-2.356,0-3.435,0.752-3.997,2.685l-1.408,4.853c-0.176,0.568-0.21,0.852-0.21,1.114c0,1.144,1.062,1.761,3.032,1.761
		c1.084,0,1.936-0.187,2.532-0.569c0.642-0.426,1.045-1.081,1.357-2.225l0.335-1.183h-2.231l-0.369,1.283
		c-0.261,0.933-0.591,1.211-1.38,1.211c-0.607,0-0.942-0.221-0.942-0.627c0-0.125,0.04-0.336,0.108-0.599l1.499-5.158
		c0.227-0.766,0.596-1.071,1.329-1.071c0.607,0,0.937,0.22,0.937,0.611c0,0.168-0.051,0.379-0.153,0.78l-0.278,1.005h2.231
		l0.346-1.215C31.278,18.793,31.329,18.472,31.329,18.209z M39.063,16.553h-5.968l-2.839,10.412h6.138l0.437-1.598h-3.872
		l0.869-3.259h3.491l0.438-1.574h-3.492l0.665-2.407h3.696L39.063,16.553z"/>
</g>
</svg>
