<?xml version="1.0" encoding="utf-8"?>
<!-- Generator: Adobe Illustrator 16.0.0, SVG Export Plug-In . SVG Version: 6.00 Build 0)  -->
<!DOCTYPE svg PUBLIC "-//W3C//DTD SVG 1.1//EN" "http://www.w3.org/Graphics/SVG/1.1/DTD/svg11.dtd">
<svg version="1.1" id="图层_1" xmlns="http://www.w3.org/2000/svg" xmlns:xlink="http://www.w3.org/1999/xlink" x="0px" y="0px"
	 width="97.875px" height="32px" viewBox="0 0 97.875 32" enable-background="new 0 0 97.875 32" xml:space="preserve">
<rect fill="none" width="97.875" height="32"/>
<g>
	<g>
		<g>
			<g>
				
					<linearGradient id="SVGID_1_" gradientUnits="userSpaceOnUse" x1="-506.9722" y1="38.041" x2="-508.2171" y2="38.4381" gradientTransform="matrix(97.599 0 0 21.398 49583.9922 -803.6133)">
					<stop  offset="0.2512" style="stop-color:#FF0000"/>
					<stop  offset="0.5665" style="stop-color:#FFD400"/>
					<stop  offset="0.8177" style="stop-color:#000000"/>
				</linearGradient>
				<path fill="url(#SVGID_1_)" d="M25.647,5.96c-0.02,0.02-0.04,0.03-0.07,0.03h0.11V5.96H25.647z M28.328,5.96h-0.07
					c-0.02-0.02-0.05-0.04-0.07-0.04v0.07h0.17C28.337,5.99,28.328,5.98,28.328,5.96z M97.018,7.95h-0.17
					c-0.05,0-0.11-0.01-0.18-0.04c-0.021-0.07-0.07-0.1-0.131-0.1c-0.029-0.04-0.09-0.11-0.21-0.2c-0.09-0.17-0.27-0.39-0.55-0.69
					c-0.32-0.25-0.66-0.49-1.03-0.72c-0.38-0.23-0.739-0.43-1.06-0.62c-0.39-0.18-0.64-0.27-0.75-0.27c-0.16,0-0.3,0.12-0.41,0.37
					c-0.1,0.3-0.14,0.53-0.14,0.69l-0.141,0.41c0,0.16-0.079,0.36-0.239,0.59c-0.23,0.22-0.391,0.37-0.48,0.44h-44.96
					c-0.06,0-0.14-0.11-0.24-0.34c-0.06-0.23-0.1-0.46-0.1-0.69V6.54h-1.78V5.85h-0.72v0.69h-12.24V7.6l-0.1-0.03h-0.01
					c-0.02,0-0.06-0.02-0.1-0.07c-0.07-0.02-0.12-0.03-0.14-0.03V7.12c0-0.39-0.07-0.58-0.2-0.58c0-0.16-0.12-0.25-0.35-0.27
					c-0.2-0.05-0.49-0.07-0.85-0.07h-1.1l-0.35-0.17c-0.2,0-0.39-0.09-0.58-0.26V5.48h-0.2c-0.04-0.05-0.08-0.1-0.12-0.14h-1.05
					c-0.01,0.01-0.03,0.02-0.03,0.03c-0.03,0.03-0.06,0.07-0.09,0.11h-0.05v0.07c-0.23,0.29-0.6,0.81-1.1,1.57h-0.14V7.6l-0.2,0.21
					c-0.07,0.07-0.14,0.1-0.21,0.1c-0.05,0-0.09-0.03-0.14-0.1c-0.09,0-0.18-0.07-0.27-0.21c-0.11-0.13-0.22-0.29-0.31-0.48v-0.2
					l-2.77,0.25L6.277,8.53c-0.07,0.09-0.15,0.18-0.24,0.27c-0.07,0.1-0.15,0.18-0.24,0.24c-0.12,0.07-0.27,0.12-0.45,0.14
					l-5.35,0.79l0.21,12.93l0.72,0.239h0.17c1.03-0.39,1.84-0.729,2.43-1.029c0.58-0.25,0.98-0.44,1.2-0.58
					c0.28-0.23,0.45-0.36,0.52-0.38c0.04-0.07,0.11-0.21,0.21-0.44c0.09-0.21,0.2-0.46,0.34-0.76c0.11-0.32,0.24-0.63,0.38-0.92
					c0.13-0.28,0.28-0.521,0.44-0.73c0.28-0.29,0.46-0.52,0.55-0.68c0.14-0.16,0.25-0.271,0.34-0.311c0.05,0,0.42-0.079,1.13-0.239
					c0.69-0.21,1.46-0.4,2.3-0.59c0.85-0.23,1.65-0.41,2.4-0.54c0.76-0.16,1.18-0.24,1.27-0.24c0,0.04-0.02,0.09-0.07,0.13
					c-0.02,0.07-0.03,0.15-0.03,0.24c-0.02,0.12-0.04,0.22-0.04,0.31h0.14c0,0.07,0.23,0.11,0.69,0.11c0.2-0.07,0.52-0.07,0.96,0
					c0.41,0.04,0.76,0.12,1.06,0.24c0.16,0.18,0.25,0.399,0.27,0.649c0.03,0.29,0.04,0.54,0.04,0.72
					c-0.05,0.141-0.23,0.511-0.55,1.131c-0.37,0.64-0.74,1.329-1.13,2.06c-0.39,0.75-0.76,1.42-1.1,2.02
					c-0.36,0.591-0.56,0.94-0.58,1.03v0.24c0,0.229,0.07,0.39,0.2,0.479h0.04v0.03l0.1,0.141c0.02,0.109,0.25,0.22,0.69,0.31
					c0.36,0.13,0.79,0.29,1.27,0.44c0.52,0.119,1.07,0.22,1.64,0.31c0.55,0.14,1.02,0.26,1.41,0.35c0.34,0.04,0.65,0.07,0.92,0.07
					c0.23,0,0.47-0.03,0.72-0.07c0.23,0,0.39-0.05,0.48-0.14l0.14-0.21c0-0.18-0.07-0.32-0.2-0.41c-0.16-0.09-0.27-0.189-0.31-0.3
					l-0.17-0.18c-0.05-0.11-0.1-0.261-0.14-0.44c-0.07-0.16-0.1-0.479-0.1-0.96c0.29-0.55,0.6-1.15,0.92-1.79
					c0.32-0.68,0.63-1.32,0.93-1.92c0.25-0.59,0.46-1.09,0.65-1.51c0.16-0.41,0.27-0.641,0.34-0.681c0.09-0.119,0.36-0.21,0.79-0.27
					c0.41-0.08,0.89-0.12,1.44-0.14c0.5-0.051,0.98-0.07,1.44-0.07c0.48-0.021,0.82-0.04,1.03-0.04c0.09,0,0.17-0.01,0.24-0.03
					c0.09,0,0.23-0.06,0.41-0.17h0.58c0.37-0.09,0.71-0.31,1.03-0.649c0.34-0.371,0.64-0.681,0.89-0.931
					c0.23-0.39,0.41-0.58,0.55-0.58c0.18-0.18,0.59-0.3,1.2-0.34h1.27c0.09,0,0.36,0.03,0.79,0.1c0.44,0.07,0.82,0.15,1.17,0.24
					c0.38,0.09,0.69,0.17,0.92,0.24c0.23,0.14,0.39,0.2,0.48,0.2c0.11,0,0.25-0.04,0.43-0.11c0.1-0.04,0.21-0.1,0.33-0.17
					c0.14-0.08,0.3-0.18,0.48-0.3c0.23-0.23,0.42-0.34,0.58-0.34c0.11-0.03,0.33-0.03,0.65-0.03h1.13c0.44,0.02,0.86,0.04,1.27,0.06
					c0.39,0,0.66,0.04,0.82,0.11h2.06c0.25,0.04,0.52,0.12,0.79,0.24c0.09,0.04,0.58,0.06,1.48,0.06h7.47
					c1.56,0,3.07-0.02,4.53-0.06h7.37c1.329,0,2.35-0.12,3.06-0.35c0.66-0.25,1.06-0.38,1.2-0.38h24.41
					c0.6-0.18,0.979-0.54,1.17-1.09c0.06-0.39,0.029-0.78-0.11-1.17c-0.11-0.43-0.27-0.69-0.479-0.75
					c-0.25-0.21-0.601-0.29-1.061-0.24c-0.37,0.04-0.65,0.07-0.86,0.07c0-0.12-0.04-0.18-0.13-0.18h-0.109v-0.34
					c0.569,0,1.16-0.01,1.75-0.03c0.569-0.05,0.939-0.15,1.1-0.31c0.09-0.18,0.16-0.46,0.2-0.83c0.03-0.27,0.04-0.54,0.04-0.82V8.19
					L97.018,7.95z M29.248,16.14c-0.15,0.23-0.41,0.35-0.75,0.35h-2.5c-0.3,0-0.56-0.12-0.79-0.35c-0.18-0.2-0.28-0.43-0.28-0.68
					c0-0.39,0.1-0.7,0.28-0.93c0.23-0.2,0.49-0.31,0.79-0.31h2.5c0.34,0,0.6,0.11,0.75,0.31c0.16,0.23,0.24,0.54,0.24,0.93
					C29.487,15.71,29.408,15.94,29.248,16.14z M91.907,11.03c-1.92,0.03-4.06,0.06-6.41,0.1c-2.29,0.05-4.46,0.1-6.52,0.14h-5.18
					c-1.42,0-2.25-0.02-2.5-0.06v-0.18c0-0.16,0.12-0.35,0.38-0.58h19.13l0.17,0.24h1.06c0.12,0,0.23,0.12,0.351,0.34H91.907z"/>
			</g>
		</g>
	</g>
</g>
<linearGradient id="SVGID_2_" gradientUnits="userSpaceOnUse" x1="40.3979" y1="4.5464" x2="55.2917" y2="16.0521">
	<stop  offset="0.1781" style="stop-color:#FFE3A0"/>
	<stop  offset="1" style="stop-color:#00FFFF"/>
</linearGradient>
<path fill="url(#SVGID_2_)" d="M57.077,13.74c-4.51-4.09-18.994-6.198-18.994-6.198l3.344-0.822l0.69-0.18h1.61V6.12l0.72-0.19v0.61
	h1.78v0.24c0,0.23,0.04,0.46,0.1,0.69c0.1,0.23,0.18,0.34,0.24,0.34h4.04C55.058,10.59,57.077,13.74,57.077,13.74z"/>
<linearGradient id="SVGID_3_" gradientUnits="userSpaceOnUse" x1="25.626" y1="5.9639" x2="25.6533" y2="6.0112">
	<stop  offset="0.3505" style="stop-color:#FFE3A0"/>
	<stop  offset="1" style="stop-color:#00FFFF"/>
</linearGradient>
<path fill="url(#SVGID_3_)" d="M25.688,5.99h-0.11c0.03,0,0.05-0.01,0.07-0.03h0.04V5.99z"/>
<linearGradient id="SVGID_4_" gradientUnits="userSpaceOnUse" x1="28.2207" y1="5.9004" x2="28.2939" y2="6.0272">
	<stop  offset="0.3505" style="stop-color:#FFE3A0"/>
	<stop  offset="1" style="stop-color:#00FFFF"/>
</linearGradient>
<path fill="url(#SVGID_4_)" d="M28.357,5.99h-0.17V5.92c0.02,0,0.05,0.02,0.07,0.04h0.07C28.328,5.98,28.337,5.99,28.357,5.99z"/>
<linearGradient id="SVGID_5_" gradientUnits="userSpaceOnUse" x1="25.0869" y1="4.167" x2="33.3677" y2="18.5097">
	<stop  offset="0.3505" style="stop-color:#FFE3A0"/>
	<stop  offset="1" style="stop-color:#00FFFF"/>
</linearGradient>
<path fill="url(#SVGID_5_)" d="M38.788,15.38c-1.1-1.66-3.46-4.77-7.4-7.81h-0.01c-0.08-0.07-0.16-0.13-0.24-0.19
	c-0.52-0.4-1.07-0.79-1.65-1.18h-0.85l-0.35-0.17c-0.2,0-0.39-0.09-0.58-0.26V5.48h-0.2c-0.04-0.05-0.08-0.1-0.12-0.14h-1.05
	c-0.01,0.01-0.03,0.02-0.03,0.03c-0.03,0.03-0.06,0.07-0.09,0.11h-0.05v0.07c-0.23,0.29-0.6,0.81-1.1,1.57h-0.14V7.6l-0.2,0.21
	c-0.07,0.07-0.14,0.1-0.21,0.1c-0.05,0-0.09-0.03-0.14-0.1c-0.09,0-0.18-0.07-0.27-0.21c-0.11-0.13-0.22-0.29-0.31-0.48v-0.2
	l-2.77,0.25l-1.36,0.125c0,0,13,3.024,18.791,8.254L38.788,15.38z"/>
<g>
	<g>
		<g>
			<g>
				<linearGradient id="SVGID_6_" gradientUnits="userSpaceOnUse" x1="31.6602" y1="41.0615" x2="62.5309" y2="-12.4081">
					<stop  offset="0" style="stop-color:#BB925B"/>
					<stop  offset="0.3429" style="stop-color:#FFF6DA"/>
					<stop  offset="0.6571" style="stop-color:#FFF1B1"/>
					<stop  offset="1" style="stop-color:#B38B54"/>
				</linearGradient>
				<path fill="url(#SVGID_6_)" d="M26.854,6.341l0.019,0.017l0.074,0.119h0.057l0.032,0.029c0.107,0.098,0.214,0.178,0.319,0.244
					l0.007,0.198l0.498,0.022c0.051,0.014,0.101,0.024,0.149,0.033l0.181,0.09l0.211,0.105h0.236h1.098
					c0.075,0,0.142,0.001,0.201,0.003v0.34h0.205v0.926h0.789c0.063,0.03,0.125,0.052,0.184,0.067l0.056,0.019l1.315,0.436V7.604
					V7.542h10.963h1h0.872c0.017,0.07,0.035,0.141,0.056,0.21l0.013,0.043l0.017,0.042c0.257,0.646,0.65,0.973,1.168,0.973h44.958
					h0.333l0.267-0.2c0.135-0.101,0.311-0.262,0.587-0.539l0.063-0.063l0.051-0.074c0.229-0.331,0.363-0.642,0.404-0.945
					l0.102-0.298l0.04-0.137c0.267,0.154,0.554,0.321,0.844,0.49c0.32,0.202,0.615,0.406,0.877,0.609
					c0.277,0.306,0.35,0.423,0.361,0.445l0.098,0.173l0.146,0.114l0.208,0.425h0.288l0.158,0.052
					c0.082,0.027,0.161,0.048,0.238,0.062c-0.004,0.168-0.013,0.333-0.024,0.478c-0.011,0.084-0.021,0.155-0.032,0.214
					c-0.079,0.014-0.183,0.029-0.316,0.04C95.653,9.679,95.078,9.69,94.51,9.69h-1v1v0.344v0.004l-0.23-0.457
					C92.906,9.845,92.4,9.69,92.042,9.69h-0.547l-0.17-0.24h-0.517H71.673h-0.387L71,9.71c-0.174,0.159-0.705,0.642-0.705,1.324
					v0.172v0.837l0.824,0.147c0.228,0.041,0.725,0.083,2.68,0.083l5.202,0c2.057-0.046,4.228-0.091,6.513-0.138
					c2.351-0.045,4.486-0.079,6.394-0.102h0.479h1.123v0.001h0.242v0.172h1c0.249,0,0.561-0.025,0.953-0.075
					c0.049-0.005,0.096-0.007,0.141-0.007c0.139,0,0.189,0.025,0.19,0.025l0,0l0.101,0.082c0.013,0.036,0.028,0.084,0.045,0.15
					l0.012,0.043l0.015,0.042c0.069,0.195,0.094,0.386,0.072,0.583c-0.061,0.143-0.158,0.258-0.361,0.344H71.673
					c-0.249,0-0.568,0.069-1.528,0.434c-0.428,0.133-1.244,0.288-2.726,0.288h-0.411h-2.914l-4.078,0
					c-1.436,0.044-2.948,0.066-4.496,0.066h-4.252h-3.224c-0.77,0-1.071-0.017-1.181-0.027c-0.303-0.122-0.606-0.211-0.904-0.265
					l-0.088-0.016h-0.09h-0.824h-1.077c-0.252-0.067-0.562-0.101-0.951-0.102l-0.063-0.003c-0.385-0.021-0.781-0.044-1.234-0.064
					h-1.132c-0.354,0-0.585,0.011-0.76,0.037c-0.375,0.029-0.739,0.213-1.106,0.559c-0.263,0.175-0.436,0.268-0.54,0.316
					c-0.008-0.004-0.016-0.009-0.024-0.015l-0.11-0.066l-0.124-0.037c-0.243-0.072-0.57-0.157-0.948-0.245
					c-0.37-0.101-0.786-0.187-1.276-0.264c-0.632-0.098-0.807-0.115-0.942-0.115H33.4h-0.037l-0.037,0.003
					c-0.727,0.054-1.236,0.192-1.6,0.441c-0.427,0.188-0.709,0.598-0.872,0.866c-0.113,0.115-0.234,0.239-0.364,0.374
					c0.001-0.034,0.002-0.068,0.002-0.102c0-0.597-0.142-1.102-0.447-1.534c-0.246-0.319-0.713-0.7-1.547-0.7h-2.503
					c-0.544,0-1.049,0.196-1.46,0.567l-0.059,0.053l-0.049,0.062c-0.329,0.409-0.496,0.931-0.496,1.552
					c0,0.492,0.181,0.958,0.524,1.348l0.021,0.024l0.001,0.001c-0.015,0.002-0.029,0.005-0.043,0.007
					c-0.492,0.076-0.989,0.196-1.326,0.536c-0.205,0.188-0.362,0.473-0.576,1.027c-0.181,0.407-0.393,0.897-0.638,1.476
					c-0.296,0.594-0.603,1.23-0.909,1.889c-0.317,0.63-0.621,1.217-0.913,1.758l-0.12,0.223v0.252c0,0.586,0.045,0.974,0.148,1.264
					c0.042,0.161,0.086,0.307,0.133,0.435c-0.14-0.009-0.286-0.023-0.438-0.044c-0.375-0.087-0.821-0.196-1.341-0.328l-0.043-0.011
					l-0.044-0.007c-0.541-0.086-1.058-0.183-1.54-0.287c-0.447-0.149-0.842-0.29-1.187-0.417l-0.07-0.026l-0.073-0.015
					c-0.003-0.001-0.007-0.002-0.01-0.003l-0.012-0.355c0.064-0.107,0.144-0.237,0.24-0.394c0.354-0.617,0.73-1.311,1.113-2.051
					c0.375-0.706,0.751-1.391,1.135-2.066c0.48-0.926,0.567-1.146,0.611-1.279l0.05-0.152V18.1c0-0.204-0.012-0.472-0.038-0.81
					c-0.04-0.462-0.221-0.885-0.521-1.225l-0.161-0.182l-0.226-0.087c-0.377-0.146-0.806-0.246-1.268-0.298
					c-0.271-0.043-0.508-0.064-0.722-0.064c-0.027,0-0.054,0-0.081,0.001v-0.052v-0.686h-1c-0.121,0-0.245,0-1.451,0.254
					c-0.801,0.148-1.627,0.337-2.456,0.562c-0.871,0.189-1.629,0.382-2.315,0.587c-0.622,0.141-0.861,0.19-0.953,0.208H7.278
					L7.07,16.41c-0.221,0.108-0.426,0.28-0.663,0.556L6.345,17.04l-0.048,0.084c-0.013,0.022-0.094,0.154-0.415,0.505l-0.025,0.027
					l-0.022,0.028c-0.202,0.257-0.384,0.549-0.569,0.921c-0.146,0.316-0.276,0.634-0.396,0.969l-0.025,0.055
					c-0.12,0.262-0.223,0.485-0.32,0.707c-0.018,0.044-0.033,0.084-0.047,0.118c-0.091,0.066-0.195,0.148-0.32,0.251
					c-0.151,0.086-0.447,0.235-1.028,0.491l-0.023,0.01l-0.022,0.012c-0.475,0.238-1.11,0.513-1.893,0.815L1.014,10.832l4.451-0.657
					c0.326-0.038,0.613-0.132,0.854-0.279L6.359,9.87l0.038-0.029c0.139-0.105,0.263-0.223,0.37-0.351l16.376-1.508
					c0.053,0.079,0.109,0.155,0.167,0.227c0.169,0.237,0.356,0.383,0.532,0.471c0.269,0.205,0.546,0.233,0.677,0.233
					c0.235,0,0.583-0.068,0.913-0.396l0.205-0.205l0.293-0.293V7.633c0.439-0.666,0.715-1.06,0.887-1.292H26.854 M92.936,5.307
					c-0.16,0-0.297,0.126-0.41,0.377c-0.094,0.298-0.137,0.526-0.137,0.687l-0.14,0.412c0,0.16-0.081,0.353-0.24,0.582
					c-0.228,0.228-0.388,0.377-0.479,0.446H46.571c-0.068,0-0.148-0.115-0.239-0.343c-0.068-0.229-0.104-0.458-0.104-0.686v-0.24
					h-1.782V5.854h-0.721v0.688H31.483v1.062L31.38,7.57c-0.024,0-0.059-0.024-0.103-0.07c-0.069-0.022-0.116-0.033-0.138-0.033
					V7.123c0-0.39-0.069-0.582-0.205-0.582c0-0.161-0.115-0.252-0.343-0.275c-0.207-0.047-0.493-0.068-0.858-0.068h-1.098
					l-0.343-0.171c-0.202,0-0.395-0.087-0.583-0.259V5.477h-0.206c-0.032-0.051-0.072-0.096-0.12-0.136c-0.347,0-0.695,0-1.046,0
					c-0.014,0.011-0.026,0.021-0.033,0.033c-0.027,0.029-0.056,0.064-0.086,0.103h-0.053v0.07c-0.23,0.291-0.596,0.816-1.097,1.577
					H24.93v0.481L24.725,7.81c-0.069,0.069-0.138,0.103-0.206,0.103c-0.047,0-0.092-0.035-0.138-0.103
					c-0.091,0-0.182-0.069-0.273-0.205c-0.115-0.137-0.218-0.297-0.309-0.481V6.918L6.275,8.531
					c-0.069,0.091-0.149,0.181-0.24,0.273c-0.068,0.092-0.15,0.171-0.24,0.239C5.681,9.113,5.532,9.16,5.35,9.181L0,9.971
					L0.204,22.9l0.722,0.238h0.171c1.029-0.386,1.841-0.729,2.435-1.027c0.572-0.252,0.971-0.445,1.2-0.584
					c0.274-0.228,0.446-0.354,0.514-0.377c0.046-0.067,0.116-0.215,0.207-0.444c0.091-0.205,0.206-0.456,0.343-0.755
					c0.114-0.321,0.239-0.628,0.377-0.926c0.137-0.275,0.285-0.517,0.446-0.721c0.274-0.299,0.457-0.527,0.548-0.688
					c0.138-0.161,0.251-0.264,0.343-0.309c0.046,0,0.422-0.08,1.131-0.24c0.686-0.207,1.453-0.4,2.298-0.583
					c0.845-0.23,1.646-0.411,2.4-0.55c0.755-0.159,1.178-0.238,1.269-0.238c0,0.046-0.023,0.091-0.067,0.136
					c-0.024,0.069-0.036,0.148-0.036,0.241c-0.022,0.116-0.034,0.216-0.034,0.309h0.137c0,0.069,0.229,0.103,0.686,0.103
					c0.103-0.035,0.234-0.052,0.395-0.052s0.349,0.017,0.565,0.052c0.411,0.047,0.766,0.127,1.063,0.243
					c0.159,0.18,0.252,0.397,0.274,0.648c0.023,0.297,0.034,0.538,0.034,0.723c-0.045,0.137-0.229,0.515-0.549,1.131
					c-0.364,0.641-0.741,1.326-1.13,2.059c-0.389,0.752-0.755,1.426-1.097,2.021c-0.366,0.592-0.561,0.936-0.584,1.027v0.241
					c0,0.228,0.068,0.387,0.206,0.479h0.034v0.034l0.103,0.138c0.023,0.114,0.251,0.218,0.686,0.309
					c0.367,0.136,0.789,0.286,1.269,0.445c0.526,0.115,1.076,0.218,1.647,0.309c0.548,0.139,1.016,0.253,1.405,0.343
					c0.343,0.048,0.652,0.069,0.926,0.069c0.229,0,0.469-0.021,0.72-0.069c0.23,0,0.389-0.044,0.48-0.136l0.139-0.206
					c0-0.183-0.069-0.319-0.206-0.411c-0.161-0.091-0.263-0.193-0.309-0.308l-0.172-0.173c-0.045-0.112-0.092-0.262-0.137-0.444
					c-0.069-0.159-0.103-0.479-0.103-0.961c0.296-0.549,0.604-1.144,0.926-1.782c0.32-0.688,0.628-1.326,0.924-1.921
					c0.252-0.595,0.469-1.097,0.653-1.51c0.159-0.413,0.275-0.64,0.343-0.685c0.092-0.117,0.355-0.207,0.789-0.274
					c0.411-0.071,0.891-0.117,1.44-0.138c0.502-0.047,0.983-0.069,1.439-0.069c0.481-0.022,0.823-0.034,1.029-0.034
					c0.091,0,0.172-0.012,0.24-0.033c0.092,0,0.229-0.057,0.412-0.172h0.583c0.365-0.089,0.708-0.309,1.029-0.65
					c0.342-0.367,0.64-0.674,0.891-0.928c0.228-0.389,0.411-0.582,0.549-0.582c0.182-0.184,0.583-0.298,1.2-0.344
					c0.617,0,1.039,0,1.268,0c0.093,0,0.356,0.036,0.789,0.103c0.436,0.069,0.825,0.148,1.167,0.241
					c0.388,0.091,0.697,0.171,0.926,0.239c0.228,0.138,0.388,0.205,0.479,0.205c0.253,0,0.664-0.193,1.235-0.582
					c0.229-0.229,0.423-0.343,0.583-0.343c0.115-0.023,0.331-0.033,0.651-0.033c0.343,0,0.721,0,1.132,0
					c0.434,0.021,0.858,0.045,1.269,0.068c0.389,0,0.663,0.035,0.823,0.102h1.234c0.298,0,0.572,0,0.824,0
					c0.252,0.046,0.515,0.125,0.788,0.241c0.093,0.045,0.584,0.067,1.476,0.067c0.87,0,1.942,0,3.224,0c1.326,0,2.742,0,4.252,0
					c1.555,0,3.063-0.022,4.526-0.067c1.486,0,2.836,0,4.048,0c1.258,0,2.229,0,2.914,0h0.411c1.326,0,2.345-0.116,3.054-0.343
					c0.662-0.252,1.063-0.379,1.2-0.379h24.416c0.597-0.182,0.981-0.548,1.166-1.097c0.065-0.388,0.034-0.777-0.104-1.166
					c-0.112-0.435-0.273-0.686-0.479-0.755c-0.206-0.169-0.481-0.252-0.825-0.252c-0.076,0-0.155,0.004-0.238,0.012
					c-0.365,0.046-0.649,0.07-0.855,0.07c0-0.115-0.046-0.172-0.139-0.172H94.51V10.69c0.571,0,1.154-0.011,1.75-0.034
					c0.572-0.046,0.938-0.148,1.098-0.309c0.093-0.181,0.16-0.457,0.205-0.822c0.023-0.276,0.035-0.55,0.035-0.824H97.6V8.186
					l-0.584-0.238h-0.173c-0.046,0-0.103-0.011-0.172-0.034c-0.022-0.07-0.069-0.103-0.137-0.103
					c-0.022-0.046-0.091-0.115-0.206-0.205c-0.092-0.162-0.275-0.39-0.549-0.688c-0.319-0.252-0.664-0.491-1.027-0.72
					c-0.389-0.227-0.744-0.433-1.063-0.617C93.3,5.398,93.049,5.307,92.936,5.307L92.936,5.307z M73.799,11.273
					c-1.418,0-2.253-0.022-2.504-0.067v-0.172c0-0.161,0.126-0.355,0.378-0.584h19.136l0.17,0.24h1.063
					c0.114,0,0.229,0.115,0.345,0.343h-0.479c-1.921,0.023-4.06,0.057-6.413,0.102c-2.286,0.046-4.458,0.092-6.516,0.138
					C76.965,11.273,75.236,11.273,73.799,11.273L73.799,11.273z M25.995,16.487c-0.297,0-0.56-0.114-0.789-0.343
					c-0.183-0.208-0.275-0.434-0.275-0.687c0-0.388,0.092-0.697,0.275-0.925c0.229-0.207,0.492-0.309,0.789-0.309h2.503
					c0.343,0,0.595,0.102,0.754,0.309c0.16,0.228,0.24,0.537,0.24,0.925c0,0.252-0.08,0.479-0.24,0.687
					c-0.159,0.229-0.41,0.343-0.754,0.343H25.995L25.995,16.487z M28.189,5.923v0.068h0.171c-0.022-0.001-0.035-0.011-0.035-0.033
					c-0.022,0-0.045,0-0.068,0C28.234,5.935,28.211,5.923,28.189,5.923L28.189,5.923z M25.686,5.959h-0.035
					c-0.021,0.022-0.045,0.032-0.069,0.033h0.104V5.959L25.686,5.959z"/>
			</g>
		</g>
	</g>
</g>
</svg>
