<?xml version="1.0" encoding="utf-8"?>
<!-- Generator: Adobe Illustrator 16.0.0, SVG Export Plug-In . SVG Version: 6.00 Build 0)  -->
<!DOCTYPE svg PUBLIC "-//W3C//DTD SVG 1.1//EN" "http://www.w3.org/Graphics/SVG/1.1/DTD/svg11.dtd">
<svg version="1.1" id="图层_1" xmlns="http://www.w3.org/2000/svg" xmlns:xlink="http://www.w3.org/1999/xlink" x="0px" y="0px"
	 width="41.5px" height="32px" viewBox="0 0 41.5 32" enable-background="new 0 0 41.5 32" xml:space="preserve">
<rect fill="none" width="41.5" height="32"/>
<g>
	<rect x="0.06" fill="none" width="41.5" height="32"/>
	<g>
		<g>
			<g>
				
					<linearGradient id="SVGID_1_" gradientUnits="userSpaceOnUse" x1="-555.0669" y1="27.0361" x2="-556.1638" y2="27.9412" gradientTransform="matrix(40.9166 0 0 29.7965 22749.5332 -807.5557)">
					<stop  offset="0.2512" style="stop-color:#FF0000"/>
					<stop  offset="0.5665" style="stop-color:#FFD400"/>
					<stop  offset="0.8571" style="stop-color:#000000"/>
				</linearGradient>
				<path fill="url(#SVGID_1_)" d="M41.029,5.13l-0.85-0.3c-0.11-0.03-0.23,0-0.34,0.09C39.699,4.97,39.6,5,39.54,5
					c-0.061,0-0.15-0.06-0.301-0.17c-0.14-0.14-0.3-0.24-0.47-0.3c-1.1-0.25-1.72-0.42-1.86-0.51c-0.029-0.02-0.05-0.1-0.05-0.21
					c0-0.08-0.069-0.15-0.21-0.21c-0.109-0.03-0.359-0.04-0.72-0.04c-0.37,0.02-0.61,0.01-0.73-0.05
					c-0.42-0.28-0.779-0.48-1.06-0.59c-1.98-0.4-3.16-0.64-3.53-0.73c-0.189-0.05-0.41-0.04-0.63,0.05
					c-0.26,0.11-0.45,0.17-0.56,0.17c-0.2-0.03-0.641-0.17-1.32-0.43c-0.7-0.25-1.14-0.42-1.31-0.51c-0.29-0.17-0.74-0.14-1.36,0.09
					c-0.16,0.05-0.25,0.17-0.26,0.35v0.03c0,0.02-0.011,0.04-0.011,0.06c-0.029,0.16-0.05,0.25-0.069,0.28L24.659,2.7
					c-0.31-0.11-0.55-0.15-0.72-0.12C23.479,2.66,23.25,2.8,23.22,3c-0.03,0.17-0.021,0.31,0.04,0.43
					c-0.37-0.17-0.71-0.26-1.021-0.26h-7.91c-0.17,0-0.37,0.04-0.59,0.13l-0.26,0.11l-0.04,0.02V3.38
					c-0.01-0.18-0.08-0.33-0.21-0.46c-0.1-0.1-0.37-0.18-0.8-0.22c-0.08-0.01-0.16-0.02-0.24-0.02c-0.22-0.01-0.47-0.02-0.75-0.02
					c-1.76,0-2.76-0.03-3.02-0.08c-1.16-0.29-1.84-0.4-2.04-0.34c-0.03,0-0.08-0.05-0.17-0.13c-0.06-0.08-0.15-0.14-0.26-0.17
					C5.91,1.92,5.87,1.91,5.83,1.9c-0.07-0.01-0.14-0.03-0.21-0.04c-0.49-0.1-0.88-0.18-1.18-0.22C4.06,1.58,3.85,1.57,3.79,1.6
					c-0.14,0.11-0.43,0.34-0.85,0.68c-0.43,0.4-0.71,0.68-0.85,0.85c-0.14,0.18-0.24,0.41-0.3,0.68c-0.05,0.23-0.08,0.48-0.08,0.77
					v4.33c0,0.45,0.14,0.811,0.42,1.061c0.68,0.629,1.06,0.969,1.15,1.02c0.51,0.57,0.75,1.07,0.72,1.49
					c-0.03,0.43-0.14,0.939-0.34,1.529c-0.11,0.32-0.25,0.65-0.42,1.02c-0.06,0.23-0.44,1.751-1.15,4.551
					c-0.74,2.92-1.22,4.92-1.45,6c-0.25,1.13-0.3,1.97-0.13,2.51c0.15,0.53,0.56,0.93,1.24,1.19c0.59,0.22,1.98,0.58,4.16,1.06
					c1.76,0.4,2.98,0.65,3.66,0.771c0.51,0.1,0.92,0.05,1.23-0.181c0.68,0.29,1.02,0.19,1.02-0.29c-0.2-1.529-0.27-2.68-0.21-3.449
					c0.11-1.021,0.58-3.11,1.4-6.29c0.12-0.45,0.33-0.99,0.64-1.61c0.31-0.63,0.48-0.98,0.51-1.07c0.06-0.68,0.34-1.02,0.85-1.02
					h4.21c0.42,0,0.85-0.34,1.28-1.021l0.04,0.38c0.08,0.23,0.18,0.351,0.29,0.351c0.2,0,0.57-0.08,1.11-0.22h6.63
					c0.2,0,0.44,0.04,0.73,0.13c0.39,0.029,0.59-0.24,0.59-0.811v-1.869c0-0.23,0.21-0.341,0.64-0.341l4.8-0.09
					c0.061,0,0.36-0.06,0.9-0.21l2.93-0.811c0.771-0.25,1.2-0.619,1.32-1.1l0.8-5.87c0.03-0.28,0.05-0.43,0.05-0.47
					C41.3,5.2,41.199,5.16,41.029,5.13z M19.35,13.12c0,0.37-0.19,0.72-0.55,1.06c-0.4,0.34-0.88,0.51-1.45,0.51h-1.61
					c-0.4,0-0.6-0.209-0.6-0.629V12.35c0-0.39,0.2-0.59,0.6-0.59h3.01c0.17,0,0.31,0.11,0.43,0.34c0.11,0.17,0.17,0.351,0.17,0.551
					V13.12z"/>
			</g>
		</g>
	</g>
	<g>
		
			<linearGradient id="SVGID_2_" gradientUnits="userSpaceOnUse" x1="-871.1206" y1="42.918" x2="-871.8149" y2="42.918" gradientTransform="matrix(34.5122 0 0 13.1527 30089.957 -556.8325)">
			<stop  offset="0" style="stop-color:#00FFFF"/>
			<stop  offset="0.6495" style="stop-color:#FFE3A0"/>
		</linearGradient>
		<path fill="url(#SVGID_2_)" d="M12.85,3.13c0-0.01-0.02-0.02-0.04-0.03c-0.2-0.14-0.41-0.29-0.62-0.42
			c-0.22-0.01-0.47-0.02-0.75-0.02c-1.76,0-2.76-0.03-3.02-0.08c-1.16-0.29-1.84-0.4-2.04-0.34c-0.03,0-0.08-0.05-0.17-0.13
			c-0.06-0.08-0.15-0.14-0.26-0.17c-0.09,0-0.15,0.01-0.2,0.02c-0.02,0-0.06-0.04-0.13-0.1c-0.49-0.1-0.88-0.18-1.18-0.22
			C4.06,1.58,3.85,1.57,3.79,1.6c-0.14,0.11-0.43,0.34-0.85,0.68c-0.43,0.4-0.71,0.68-0.85,0.85c-0.14,0.18-0.24,0.41-0.3,0.68
			c-0.05,0.23-0.08,0.48-0.08,0.77v0.6c8.96,1.29,16.47,4.13,22.55,8.53C20.95,9.63,17.14,6.09,12.85,3.13z"/>
	</g>
	<g>
		<linearGradient id="SVGID_3_" gradientUnits="userSpaceOnUse" x1="32.248" y1="4.6001" x2="21.1423" y2="4.6001">
			<stop  offset="0" style="stop-color:#00FFFF"/>
			<stop  offset="0.8219" style="stop-color:#FFE3A0"/>
		</linearGradient>
		<path fill="url(#SVGID_3_)" d="M31.59,7.29c-3.19-1.77-6.67-3.15-10.45-4.12h1.1c0.311,0,0.65,0.09,1.021,0.26
			c-0.061-0.12-0.07-0.26-0.04-0.43c0.03-0.2,0.26-0.34,0.72-0.42c0.17-0.03,0.41,0.01,0.72,0.12l0.431-0.42
			c0.02-0.03,0.04-0.12,0.069-0.28c0-0.02,0.011-0.04,0.011-0.06V1.91C27.439,3.52,29.569,5.32,31.59,7.29z"/>
	</g>
	<g>
		<g>
			<g>
				<g>
					<linearGradient id="SVGID_4_" gradientUnits="userSpaceOnUse" x1="6.9028" y1="32.2998" x2="27.2292" y2="-2.9066">
						<stop  offset="0" style="stop-color:#BB925B"/>
						<stop  offset="0.3429" style="stop-color:#FFF6DA"/>
						<stop  offset="0.6571" style="stop-color:#FFF1B1"/>
						<stop  offset="1" style="stop-color:#B38B54"/>
					</linearGradient>
					<path fill="url(#SVGID_4_)" d="M26.333,2.362c0,0,0.001,0,0.004,0c0.157,0.082,0.459,0.214,1.405,0.552
						c0.982,0.376,1.343,0.457,1.528,0.485c0.05,0.007,0.1,0.011,0.149,0.011c0.256,0,0.531-0.072,0.953-0.249
						c0.367,0.089,1.416,0.304,3.473,0.719c0.144,0.063,0.4,0.196,0.799,0.461c0.034,0.023,0.07,0.044,0.107,0.063
						c0.231,0.116,0.494,0.165,0.878,0.165c0.097,0,0.205-0.003,0.325-0.009c0.04,0,0.077,0,0.11,0
						c0.09,0.133,0.199,0.23,0.306,0.302c0.199,0.127,0.482,0.255,2.096,0.624c0.021,0.012,0.043,0.029,0.064,0.05
						c0.036,0.037,0.076,0.071,0.118,0.102C38.87,5.799,39.146,6,39.54,6c0.196,0,0.376-0.047,0.597-0.125l0.107,0.038L39.5,11.37
						c-0.041,0.077-0.21,0.226-0.607,0.356l-2.932,0.811c-0.395,0.11-0.619,0.159-0.701,0.174l-4.73,0.089
						c-1.594,0-1.64,1.204-1.64,1.341v1.569c-0.11-0.013-0.217-0.019-0.32-0.019h-6.63c-0.084,0-0.169,0.011-0.25,0.032
						c-0.101,0.026-0.189,0.048-0.269,0.068c-0.123-0.289-0.377-0.51-0.694-0.584c-0.076-0.018-0.152-0.026-0.227-0.026
						c-0.338,0-0.659,0.171-0.845,0.466c-0.256,0.405-0.425,0.526-0.475,0.555h-4.17c-0.777,0-1.646,0.467-1.827,1.761
						c-0.096,0.207-0.324,0.67-0.428,0.882c-0.33,0.66-0.569,1.267-0.713,1.808c-0.858,3.327-1.312,5.371-1.429,6.463
						c-0.054,0.694-0.016,1.621,0.115,2.819c-0.187,0.014-0.369,0.079-0.524,0.194c-0.039,0.029-0.133,0.032-0.171,0.032
						c-0.077,0-0.168-0.011-0.289-0.033c-0.762-0.135-2.079-0.412-3.619-0.763c-2.735-0.602-3.696-0.897-4.017-1.017
						c-0.545-0.209-0.613-0.45-0.644-0.558c-0.051-0.162-0.138-0.679,0.154-2.001c0.24-1.126,0.738-3.188,1.441-5.962
						c0.437-1.723,0.749-2.961,0.938-3.712c0.092-0.367,0.155-0.616,0.189-0.75c0.185-0.406,0.315-0.727,0.421-1.034
						c0.223-0.658,0.354-1.257,0.39-1.778c0.051-0.71-0.267-1.439-0.972-2.229c-0.059-0.066-0.126-0.124-0.201-0.172
						C3.755,10.098,3.53,9.904,2.796,9.225C2.725,9.161,2.709,9.019,2.709,8.91V4.58c0-0.2,0.018-0.377,0.056-0.553
						c0.038-0.168,0.087-0.25,0.095-0.261c0.061-0.073,0.236-0.265,0.735-0.731c0.215-0.174,0.394-0.317,0.535-0.43
						c0.048,0.006,0.107,0.015,0.176,0.026C4.573,2.667,4.946,2.743,5.419,2.84c0.018,0.003,0.075,0.015,0.093,0.018
						C5.527,2.86,5.541,2.863,5.555,2.866l0.029,0.025C5.719,3.014,5.971,3.24,6.379,3.24c0.059,0,0.117-0.005,0.174-0.015
						C6.659,3.23,7.052,3.269,8.177,3.55c0.018,0.004,0.036,0.008,0.055,0.012C8.385,3.592,8.743,3.66,11.439,3.66
						c0.263,0,0.497,0.009,0.75,0.02c0.038,0,0.075,0.007,0.147,0.016c0.057,0.005,0.105,0.011,0.147,0.017
						c0.075,0.229,0.238,0.427,0.449,0.558c0.156,0.096,0.339,0.144,0.522,0.144c0.144,0,0.288-0.029,0.42-0.086l0.243-0.103
						C14.25,4.171,14.322,4.17,14.33,4.17h7.91c0.107,0,0.3,0.029,0.603,0.168C22.976,4.4,23.118,4.43,23.26,4.43
						c0.266,0,0.526-0.106,0.72-0.306c0.139-0.144,0.228-0.322,0.263-0.51c0.024,0.008,0.052,0.017,0.081,0.027
						C24.433,3.681,24.547,3.7,24.659,3.7c0.257,0,0.509-0.099,0.698-0.284l0.431-0.421c0.052-0.05,0.099-0.106,0.138-0.167
						c0.089-0.135,0.137-0.272,0.174-0.431C26.225,2.366,26.299,2.362,26.333,2.362 M15.74,15.689h1.61
						c0.808,0,1.513-0.251,2.097-0.748c0.014-0.011,0.027-0.023,0.04-0.035c0.573-0.541,0.863-1.142,0.863-1.787v-0.47
						c0-0.372-0.103-0.727-0.306-1.055c-0.398-0.726-0.98-0.836-1.294-0.836h-3.01c-0.957,0-1.6,0.639-1.6,1.59v1.711
						C14.14,15.035,14.783,15.689,15.74,15.689 M26.333,1.362c-0.246,0-0.547,0.066-0.903,0.198c-0.16,0.05-0.25,0.17-0.26,0.35
						v0.03c0,0.02-0.011,0.04-0.011,0.06c-0.029,0.16-0.05,0.25-0.069,0.28L24.659,2.7c-0.243-0.086-0.443-0.13-0.601-0.13
						c-0.043,0-0.083,0.003-0.119,0.01C23.479,2.66,23.25,2.8,23.22,3c-0.03,0.17-0.021,0.31,0.04,0.43
						c-0.37-0.17-0.71-0.26-1.021-0.26h-7.91c-0.17,0-0.37,0.04-0.59,0.13l-0.26,0.11l-0.04,0.02V3.38
						c-0.01-0.18-0.08-0.33-0.21-0.46c-0.1-0.1-0.37-0.18-0.8-0.22c-0.08-0.01-0.16-0.02-0.24-0.02c-0.22-0.01-0.47-0.02-0.75-0.02
						c-1.76,0-2.76-0.03-3.02-0.08c-0.956-0.239-1.586-0.355-1.89-0.355c-0.064,0-0.115,0.005-0.15,0.016
						c-0.03,0-0.08-0.05-0.17-0.13c-0.06-0.08-0.15-0.14-0.26-0.17C5.91,1.92,5.87,1.91,5.83,1.9c-0.07-0.01-0.14-0.03-0.21-0.04
						c-0.49-0.1-0.88-0.18-1.18-0.22C4.196,1.602,4.022,1.583,3.913,1.583c-0.061,0-0.102,0.006-0.124,0.017
						c-0.14,0.11-0.43,0.34-0.85,0.68c-0.43,0.4-0.71,0.68-0.85,0.85c-0.14,0.18-0.24,0.41-0.3,0.68c-0.05,0.23-0.08,0.48-0.08,0.77
						v4.33c0,0.45,0.14,0.811,0.42,1.061c0.68,0.629,1.06,0.969,1.15,1.02c0.51,0.57,0.75,1.07,0.72,1.49
						c-0.03,0.43-0.14,0.939-0.34,1.529c-0.11,0.32-0.25,0.65-0.42,1.02c-0.06,0.23-0.44,1.751-1.15,4.551
						c-0.74,2.92-1.22,4.92-1.45,6c-0.25,1.13-0.3,1.97-0.13,2.51c0.15,0.53,0.56,0.93,1.24,1.19c0.59,0.22,1.98,0.58,4.16,1.06
						c1.76,0.4,2.98,0.65,3.66,0.771c0.165,0.032,0.319,0.049,0.462,0.049c0.302,0,0.558-0.073,0.768-0.229
						c0.254,0.108,0.46,0.162,0.62,0.162c0.267,0,0.4-0.151,0.4-0.452c-0.2-1.529-0.27-2.68-0.21-3.449
						c0.11-1.021,0.58-3.11,1.4-6.29c0.12-0.45,0.33-0.99,0.64-1.61c0.31-0.63,0.48-0.98,0.51-1.07c0.06-0.68,0.34-1.02,0.85-1.02
						h4.21c0.42,0,0.85-0.34,1.28-1.021l0.04,0.38c0.08,0.23,0.18,0.351,0.29,0.351c0.2,0,0.57-0.08,1.11-0.22h6.63
						c0.2,0,0.44,0.04,0.73,0.13c0.02,0.001,0.038,0.002,0.056,0.002c0.354,0,0.534-0.271,0.534-0.813v-1.869
						c0-0.23,0.21-0.341,0.64-0.341l4.8-0.09c0.061,0,0.36-0.06,0.9-0.21l2.93-0.811c0.771-0.25,1.2-0.619,1.32-1.1l0.8-5.87
						c0.03-0.28,0.05-0.43,0.05-0.47c-0.029-0.05-0.13-0.09-0.3-0.12l-0.85-0.3c-0.027-0.008-0.056-0.011-0.084-0.011
						c-0.086,0-0.174,0.034-0.256,0.101C39.699,4.97,39.6,5,39.54,5c-0.061,0-0.15-0.06-0.301-0.17c-0.14-0.14-0.3-0.24-0.47-0.3
						c-1.1-0.25-1.72-0.42-1.86-0.51c-0.029-0.02-0.05-0.1-0.05-0.21c0-0.08-0.069-0.15-0.21-0.21c-0.109-0.03-0.359-0.04-0.72-0.04
						c-0.111,0.006-0.211,0.009-0.3,0.009c-0.204,0-0.347-0.018-0.431-0.06c-0.42-0.28-0.779-0.48-1.06-0.59
						c-1.98-0.4-3.16-0.64-3.53-0.73c-0.074-0.02-0.153-0.03-0.234-0.03c-0.128,0-0.262,0.025-0.396,0.08
						c-0.26,0.11-0.45,0.17-0.56,0.17c-0.2-0.03-0.641-0.17-1.32-0.43c-0.7-0.25-1.14-0.42-1.31-0.51
						C26.667,1.398,26.515,1.362,26.333,1.362L26.333,1.362z M15.74,14.689c-0.4,0-0.6-0.209-0.6-0.629V12.35
						c0-0.39,0.2-0.59,0.6-0.59h3.01c0.17,0,0.31,0.11,0.43,0.34c0.11,0.17,0.17,0.351,0.17,0.551v0.47c0,0.37-0.19,0.72-0.55,1.06
						c-0.4,0.34-0.88,0.51-1.45,0.51H15.74L15.74,14.689z"/>
				</g>
			</g>
		</g>
	</g>
</g>
<g>
	<g>
		<g>
			<path fill="#7A4621" d="M10,26.975l4.594,3.828l10.105,0.307c3.471-0.407,6.33-1.327,8.574-2.756
				C36.234,24.251,38.811,22.2,41,22.2c-1.486-0.593-3.189-0.351-5.105,0.729c-1.916,1.078-3.861-0.016-5.836-3.283
				c-1.838-1.226-5.438-0.336-8.389,1.095L24.699,16l-8.864,2.918L10,26.975z"/>
		</g>
	</g>
</g>
<linearGradient id="SVGID_5_" gradientUnits="userSpaceOnUse" x1="-547.4473" y1="77.7266" x2="-546.4465" y2="78.7289" gradientTransform="matrix(25.1118 0 0 10.4122 13760.8037 -790.3687)">
	<stop  offset="0.6071" style="stop-color:#FFF6DA"/>
	<stop  offset="1" style="stop-color:#D6BB7E"/>
</linearGradient>
<path fill="url(#SVGID_5_)" d="M20.069,18.553h-2.601L12.45,28.965h2.333l0.772-1.766h2.089l-0.136,1.766h2.231L20.069,18.553z
	 M18.185,21.176l-0.381,4.422h-1.572L18.185,21.176z M29.829,20.209c0-1.082-1.011-1.656-2.913-1.656
	c-2.355,0-3.436,0.752-3.996,2.686l-1.408,4.853c-0.176,0.568-0.211,0.853-0.211,1.114c0,1.145,1.063,1.761,3.032,1.761
	c1.085,0,1.937-0.187,2.532-0.569c0.642-0.426,1.045-1.08,1.357-2.225l0.334-1.183h-2.23l-0.369,1.282
	c-0.262,0.934-0.591,1.211-1.38,1.211c-0.606,0-0.942-0.221-0.942-0.627c0-0.125,0.039-0.336,0.107-0.599l1.5-5.157
	c0.227-0.767,0.596-1.072,1.328-1.072c0.606,0,0.937,0.221,0.937,0.611c0,0.168-0.051,0.379-0.153,0.78l-0.277,1.005h2.23
	l0.346-1.215C29.777,20.793,29.829,20.473,29.829,20.209z M37.563,18.553h-5.967l-2.84,10.412h6.139l0.437-1.598H31.46l0.868-3.26
	h3.49l0.438-1.573h-3.491l0.664-2.407h3.696L37.563,18.553z"/>
</svg>
