<?xml version="1.0" encoding="utf-8"?>
<!-- Generator: Adobe Illustrator 16.0.0, SVG Export Plug-In . SVG Version: 6.00 Build 0)  -->
<!DOCTYPE svg PUBLIC "-//W3C//DTD SVG 1.1//EN" "http://www.w3.org/Graphics/SVG/1.1/DTD/svg11.dtd">
<svg version="1.1" id="图层_1" xmlns="http://www.w3.org/2000/svg" xmlns:xlink="http://www.w3.org/1999/xlink" x="0px" y="0px"
	 width="37.875px" height="32px" viewBox="0 0 37.875 32" enable-background="new 0 0 37.875 32" xml:space="preserve">
<rect fill="none" width="37.875" height="32"/>
<g>
	<g>
		<g>
			<g>
				
					<linearGradient id="SVGID_1_" gradientUnits="userSpaceOnUse" x1="-278.2314" y1="398.2627" x2="-279.2314" y2="397.2627" gradientTransform="matrix(37.2495 0 0 -28.1333 10396.3584 11202.4844)">
					<stop  offset="0" style="stop-color:#BB925B"/>
					<stop  offset="0.3429" style="stop-color:#FFF6DA"/>
					<stop  offset="0.6571" style="stop-color:#FFF1B1"/>
					<stop  offset="1" style="stop-color:#B38B54"/>
				</linearGradient>
				<path fill="url(#SVGID_1_)" d="M37.225,10.695c-0.119,0.239-0.313,0.372-0.58,0.402c-0.447,0.029-3.496,0.073-9.137,0.135
					c-0.179,0-0.372,0.043-0.582,0.132c-0.359,0.121-0.598,0.329-0.717,0.629c-0.089,0.239-0.104,0.714-0.046,1.433
					c0.03,0.356,0.091,0.894,0.18,1.611c0.031,0.359,0.091,0.731,0.179,1.123c0,0.207-0.164,0.327-0.494,0.355
					c-0.685,0.148-1.312,0.254-1.879,0.314c-1.014,0.146-2.104,0.238-3.269,0.268c-1.822,0.029-3.851-0.029-6.092-0.179
					c-1.939,5.166-2.91,7.911-2.91,8.239c0,0.359,0.077,1.508,0.224,3.449c0.448,0.326,0.807,0.553,1.075,0.67
					c0.209,0.093,0.297,0.209,0.269,0.361c0,0.088-0.03,0.146-0.09,0.176l-0.312,0.18c-0.33,0.089-0.688,0.105-1.077,0.046
					c-0.568-0.09-4.374-0.851-11.419-2.284c-0.357-0.061-0.357-1.043,0-2.957c0.149-0.805,0.493-1.971,1.03-3.492
					c0.567-1.554,1.09-2.776,1.568-3.67c0.506-0.929,0.91-1.926,1.208-3c0.358-1.076,0.507-1.838,0.449-2.285
					c-0.061-0.327-0.479-0.716-1.254-1.165c-0.597-0.298-1.163-0.521-1.701-0.672c-0.3-0.03-0.539-0.178-0.718-0.447
					c-0.12-0.12-0.253-0.285-0.404-0.493c-0.089-0.12-0.134-0.431-0.134-0.94c0-0.24,0-0.611,0-1.12c0-0.775,0.061-1.253,0.18-1.433
					C1.34,5.097,1.77,4.364,2.068,3.888C2.337,3.5,2.592,3.2,2.832,2.991C3.1,2.723,3.338,2.603,3.548,2.632
					c0.208,0.03,0.448,0.03,0.717,0l0.447-0.044c0.149-0.269,0.284-0.464,0.404-0.582C5.236,1.888,5.681,1.932,6.46,2.14
					l0.179,0.492h12.314v0.404h5.331V2.632l12.271-0.044l0.402,0.223c0.238,0.149,0.357,0.329,0.357,0.537
					c0.062,1.167,0.119,2.256,0.18,3.271c0.061,2.001,0.044,3.103-0.046,3.314C37.298,10.41,37.225,10.665,37.225,10.695z
					 M24.371,11.814c-0.148-0.061-0.268-0.092-0.355-0.092v0.092L20.03,11.77c-0.152,0.566-0.091,1.043,0.176,1.433
					c0.36,0.565,0.657,0.97,0.899,1.209c0.238,0.208,0.521,0.341,0.85,0.4c0.297,0.03,0.434,0.106,0.402,0.225
					c-0.028,0.149-0.147,0.226-0.358,0.226c-0.118,0-0.312,0-0.579,0c-0.329-0.061-0.689-0.269-1.076-0.627
					c-0.627-0.538-1.031-0.987-1.212-1.343c-0.117-0.39-0.178-0.898-0.178-1.522l-0.805-0.047c-0.479,0-0.896,0.194-1.254,0.584
					c-0.298,0.357-0.448,0.778-0.448,1.253c0,0.298,0,0.7,0,1.208c0.061,0.36,0.361,0.644,0.897,0.852
					c0.775,0.299,1.523,0.418,2.238,0.36c0.837-0.122,1.493-0.196,1.973-0.226c0.237-0.03,0.67-0.014,1.297,0.045
					c0.627,0.059,1.061,0.089,1.297,0.089c0.391,0,0.644-0.03,0.762-0.089c0.061-0.06,0.181-0.179,0.361-0.357
					c0.117-0.18,0.147-0.659,0.086-1.435c-0.029-0.748-0.147-1.3-0.356-1.657C24.88,12.083,24.669,11.902,24.371,11.814z"/>
			</g>
		</g>
	</g>
</g>
<g>
	<g>
		<path fill="#7A4621" d="M6.559,25.974l4.594,3.829l10.106,0.307c3.471-0.408,6.329-1.328,8.575-2.757
			c2.959-4.102,5.535-6.152,7.725-6.152c-1.486-0.593-3.188-0.351-5.105,0.729c-1.916,1.079-3.861-0.015-5.836-3.283
			c-1.837-1.225-5.438-0.336-8.388,1.095L21.259,15l-8.864,2.918L6.559,25.974z"/>
	</g>
</g>
<linearGradient id="SVGID_2_" gradientUnits="userSpaceOnUse" x1="-275.4443" y1="373.6182" x2="-274.4443" y2="372.6165" gradientTransform="matrix(25.1118 0 0 -10.4122 6926.8818 3908.1265)">
	<stop  offset="0.6071" style="stop-color:#FFF6DA"/>
	<stop  offset="1" style="stop-color:#D6BB7E"/>
</linearGradient>
<path fill="url(#SVGID_2_)" d="M16.628,17.553h-2.601L9.009,27.965h2.333l0.772-1.766h2.089l-0.136,1.766h2.231L16.628,17.553z
	 M14.744,20.176l-0.381,4.421h-1.572L14.744,20.176z M26.389,19.209c0-1.082-1.012-1.656-2.913-1.656
	c-2.356,0-3.435,0.752-3.997,2.685L18.07,25.09c-0.176,0.568-0.21,0.852-0.21,1.114c0,1.144,1.062,1.761,3.032,1.761
	c1.084,0,1.936-0.187,2.531-0.569c0.643-0.426,1.045-1.081,1.357-2.225l0.335-1.183h-2.231l-0.369,1.283
	c-0.261,0.933-0.59,1.211-1.379,1.211c-0.607,0-0.943-0.221-0.943-0.627c0-0.125,0.04-0.336,0.108-0.599l1.499-5.158
	c0.227-0.766,0.596-1.071,1.328-1.071c0.607,0,0.938,0.22,0.938,0.611c0,0.168-0.052,0.379-0.154,0.78l-0.277,1.005h2.23
	l0.347-1.215C26.337,19.793,26.389,19.472,26.389,19.209z M34.121,17.553h-5.967l-2.84,10.412h6.139l0.437-1.598h-3.872l0.869-3.259
	h3.491l0.437-1.574h-3.491l0.665-2.407h3.695L34.121,17.553z"/>
</svg>
