<?xml version="1.0" encoding="utf-8"?>
<!-- Generator: Adobe Illustrator 16.0.0, SVG Export Plug-In . SVG Version: 6.00 Build 0)  -->
<!DOCTYPE svg PUBLIC "-//W3C//DTD SVG 1.1//EN" "http://www.w3.org/Graphics/SVG/1.1/DTD/svg11.dtd">
<svg version="1.1" id="图层_1" xmlns="http://www.w3.org/2000/svg" xmlns:xlink="http://www.w3.org/1999/xlink" x="0px" y="0px"
	 width="39px" height="32px" viewBox="0 0 39 32" enable-background="new 0 0 39 32" xml:space="preserve">
<rect fill="none" width="39" height="32"/>
<g>
	<g>
		<g>
			<g>
				<g>
					
						<linearGradient id="SVGID_1_" gradientUnits="userSpaceOnUse" x1="-899.4077" y1="21.1016" x2="-898.3154" y2="20.2204" gradientTransform="matrix(38.636 0 0 27.6506 34743.1875 -560.2158)">
						<stop  offset="0.1429" style="stop-color:#000000"/>
						<stop  offset="0.4335" style="stop-color:#FFD400"/>
						<stop  offset="0.7488" style="stop-color:#FF0000"/>
					</linearGradient>
					<path fill="url(#SVGID_1_)" d="M38.436,3.573c0.106,0.213,0.16,0.491,0.16,0.837c0.026,0.294,0.041,0.627,0.041,1
						c0,0.613-0.015,1.238-0.041,1.878c-0.054,0.612-0.08,1.024-0.08,1.237l-0.08,0.16l-0.24,0.201
						c-0.024,0.08-0.041,0.239-0.041,0.479v0.198l-0.116,0.321l-0.32-0.12c-0.053,0-0.186,0-0.397,0
						c-0.213-0.026-0.721-0.026-1.52,0c-0.025,0.346-0.121,0.664-0.281,0.959c-0.131,0.239-0.226,0.385-0.275,0.44l-0.041,0.158
						H26.21l-0.438,0.163c-0.187,0.104-0.428,0.224-0.72,0.356c-0.292,0.134-0.573,0.28-0.84,0.44
						c-0.237,0.16-0.399,0.252-0.479,0.277c0.082,0.268,0.121,0.641,0.121,1.119c0,0.241,0,0.545,0,0.92s-0.039,0.787-0.121,1.239
						c-0.104,0.64-0.373,1.104-0.797,1.397c-0.371,0.293-0.854,0.494-1.438,0.599c-0.53,0.081-1.131,0.106-1.796,0.081
						c-0.666-0.029-1.293-0.055-1.878-0.081c-0.479-0.026-0.907-0.053-1.278-0.079c-0.4-0.053-0.732-0.041-1,0.041h-0.079
						c-0.878-0.107-1.438-0.107-1.677,0c-0.268,0.105-0.439,0.238-0.521,0.398l-0.158,0.078c-0.213,0.213-0.32,0.723-0.32,1.521
						v0.322c0,0.425-0.041,0.784-0.122,1.077c-0.106,0.347-0.237,0.666-0.399,0.957l-0.037,0.242c-0.107,0.213-0.217,0.6-0.32,1.156
						c-0.135,0.533-0.283,1.104-0.441,1.719c-0.186,0.742-0.305,1.267-0.359,1.559c-0.105,0.373-0.188,0.626-0.238,0.759
						l0.158,0.159c0.107,0.081,0.188,0.173,0.24,0.279c0.082,0.105,0.121,0.228,0.121,0.358l-0.08,0.122
						c-0.026,0.237-0.16,0.426-0.399,0.559c-0.212,0.104-0.414,0.213-0.601,0.319h-0.121c-0.055,0-0.455,0.013-1.197,0.039
						c-0.775,0-1.574,0.039-2.396,0.12c-2.558,0.132-3.984,0.2-4.273,0.2c-0.508,0-1.043-0.536-1.6-1.599H0.68v-0.641
						c0-0.879,0.118-1.943,0.357-3.195c0.216-1.227,0.494-2.451,0.841-3.678c0.37-1.253,0.729-2.424,1.08-3.518
						c0.372-1.117,0.69-2.035,0.956-2.754v-0.2c0.055-0.24,0.081-0.427,0.081-0.562c0-0.104,0-0.171,0-0.197
						c-0.026,0-0.04-0.029-0.04-0.082c-0.027-0.026-0.041-0.064-0.041-0.119H3.836v-0.08c-0.027-0.161-0.135-0.282-0.32-0.361
						c-0.08-0.054-0.146-0.078-0.201-0.078c-0.16-0.025-0.332-0.08-0.519-0.162c-0.399-0.132-0.946-0.424-1.638-0.879
						c-0.454-0.266-0.746-0.559-0.881-0.878C0.092,10.391,0,10.044,0,9.725c0-0.371,0.014-0.6,0.04-0.68
						c0.052-0.105,0.185-0.574,0.397-1.396c0.188-0.879,0.387-1.746,0.6-2.599c0.188-0.719,0.455-1.212,0.8-1.478
						C2.184,3.277,2.463,3.066,2.675,2.93V2.294l0.161-0.081C3.607,2,4.381,2.066,5.154,2.412C5.9,2.758,6.337,2.999,6.471,3.133
						h19.219c0.054,0,0.105,0.024,0.16,0.08l0.158,0.16H36.12l0.118-0.122c0.16-0.13,0.348-0.426,0.559-0.877v-0.16h0.12
						c0.026,0,0.097-0.013,0.203-0.039c0.104,0,0.251,0.011,0.438,0.039C37.877,2.266,38.17,2.721,38.436,3.573z M21.736,12.24
						h-7.034c-0.373,0-0.558,0.201-0.558,0.599v2.521c0,0.371,0.186,0.558,0.558,0.558h7.034c0.345,0,0.519-0.187,0.519-0.558
						v-2.521C22.255,12.441,22.081,12.24,21.736,12.24z"/>
				</g>
			</g>
		</g>
	</g>
</g>
<linearGradient id="SVGID_2_" gradientUnits="userSpaceOnUse" x1="-4.9033" y1="16.1436" x2="12.7465" y2="5.9758">
	<stop  offset="0.3505" style="stop-color:#FFE3A0"/>
	<stop  offset="1" style="stop-color:#00FFFF"/>
</linearGradient>
<path fill="url(#SVGID_2_)" d="M14.121,14.441v-1.574c0-0.204,0.051-0.354,0.149-0.455c-1.488-2.772-3.735-6.246-6.829-9.251H6.447
	C6.316,3.03,5.89,2.794,5.17,2.46C4.174,2.451,3.321,2.485,2.651,2.53v0.428C2.439,3.095,2.16,3.306,1.813,3.601
	c-0.345,0.266-0.612,0.759-0.8,1.478c-0.188,0.75-0.359,1.516-0.527,2.286C4.941,8.27,10.078,10.251,14.121,14.441z"/>
<linearGradient id="SVGID_3_" gradientUnits="userSpaceOnUse" x1="0.562" y1="25.5928" x2="18.1934" y2="15.4357">
	<stop  offset="0.3505" style="stop-color:#FFE3A0"/>
	<stop  offset="1" style="stop-color:#00FFFF"/>
</linearGradient>
<path fill="url(#SVGID_3_)" d="M16.561,17.453c0,0-0.197-0.569-0.594-1.508h-0.525C15.826,16.426,16.203,16.922,16.561,17.453z"/>
<linearGradient id="SVGID_4_" gradientUnits="userSpaceOnUse" x1="6.0571" y1="12.5591" x2="21.7016" y2="3.5466">
	<stop  offset="0.1781" style="stop-color:#FFE3A0"/>
	<stop  offset="1" style="stop-color:#00FFFF"/>
</linearGradient>
<path fill="url(#SVGID_4_)" d="M22.893,8.995c0,0-1.372-2.776-3.888-5.834h-7.284C15.516,3.973,19.646,5.649,22.893,8.995z"/>
<g>
	<g>
		<g>
			<g>
				<g>
					<g>
						<linearGradient id="SVGID_5_" gradientUnits="userSpaceOnUse" x1="33.6924" y1="-3.4541" x2="-3.1225" y2="22.8908">
							<stop  offset="0" style="stop-color:#BB925B"/>
							<stop  offset="0.3429" style="stop-color:#FFF6DA"/>
							<stop  offset="0.6571" style="stop-color:#FFF1B1"/>
							<stop  offset="1" style="stop-color:#B38B54"/>
						</linearGradient>
						<path fill="url(#SVGID_5_)" d="M3.718,3.092c0.339,0,0.676,0.076,1.017,0.228c0.807,0.374,1.022,0.521,1.03,0.521
							c0,0,0,0-0.001-0.001c0.188,0.188,0.441,0.293,0.707,0.293h18.887c0.181,0.154,0.411,0.24,0.65,0.24H36.12
							c0.271,0,0.53-0.11,0.719-0.305l0.086-0.089c0.144-0.128,0.279-0.293,0.416-0.508c0.042,0.105,0.089,0.236,0.14,0.399
							c0.017,0.051,0.037,0.102,0.061,0.149c0.009,0.019,0.055,0.123,0.055,0.39c0,0.03,0.001,0.06,0.004,0.09
							c0.024,0.273,0.037,0.58,0.037,0.91c0,0.581-0.013,1.182-0.037,1.791c-0.034,0.389-0.058,0.7-0.071,0.941
							c-0.135,0.121-0.235,0.276-0.288,0.45c-0.013,0.041-0.027,0.093-0.04,0.162c-0.116-0.006-0.255-0.009-0.42-0.009
							c-0.263,0-0.601,0.007-1.014,0.021c-0.511,0.018-0.926,0.416-0.963,0.926c-0.015,0.198-0.067,0.379-0.162,0.552
							c-0.016,0.028-0.029,0.054-0.043,0.078H26.21c-0.118,0-0.235,0.021-0.347,0.063l-0.438,0.162
							c-0.05,0.019-0.099,0.041-0.146,0.067c-0.155,0.087-0.371,0.194-0.646,0.319c-0.343,0.158-0.649,0.319-0.978,0.519
							c-0.171,0.114-0.254,0.16-0.28,0.175c-0.151,0.058-0.281,0.148-0.384,0.262c-0.264-0.404-0.709-0.649-1.255-0.649h-7.034
							c-0.932,0-1.558,0.643-1.558,1.599v2.52c0,0.639,0.294,1.135,0.779,1.383c-0.207,0.024-0.374,0.067-0.502,0.125
							c-0.344,0.136-0.618,0.318-0.819,0.545c-0.073,0.043-0.141,0.096-0.2,0.155c-0.424,0.424-0.613,1.111-0.613,2.228v0.322
							c0,0.413-0.047,0.669-0.078,0.783c-0.09,0.292-0.193,0.542-0.317,0.765c-0.058,0.104-0.097,0.217-0.114,0.335l-0.017,0.107
							c-0.122,0.295-0.229,0.692-0.33,1.228c-0.09,0.357-0.187,0.732-0.288,1.126l-0.146,0.565c-0.173,0.69-0.298,1.231-0.363,1.57
							c-0.094,0.328-0.164,0.541-0.198,0.632c-0.141,0.368-0.053,0.783,0.225,1.063l0.021,0.021
							c-0.047,0.024-0.093,0.049-0.139,0.073c-0.186,0.006-0.542,0.018-1.053,0.036c-0.814,0-1.653,0.042-2.448,0.121
							c-1.584,0.082-3.703,0.189-4.169,0.198c-0.071-0.045-0.318-0.241-0.695-0.929v-0.31c0-0.816,0.114-1.828,0.342-3.022
							c0.212-1.202,0.487-2.406,0.815-3.567c0.368-1.245,0.729-2.421,1.07-3.484c0.368-1.108,0.687-2.024,0.945-2.725
							c0.041-0.111,0.062-0.229,0.062-0.347v-0.092c0.055-0.262,0.081-0.481,0.081-0.668v-0.199c0-0.171-0.043-0.332-0.119-0.473
							c-0.033-0.12-0.09-0.231-0.163-0.329c-0.141-0.307-0.39-0.559-0.72-0.721c-0.179-0.106-0.362-0.17-0.548-0.19
							c-0.055-0.012-0.137-0.036-0.255-0.087c-0.026-0.011-0.052-0.021-0.079-0.03c-0.22-0.073-0.643-0.266-1.404-0.766
							c-0.014-0.009-0.028-0.018-0.043-0.026c-0.288-0.17-0.43-0.32-0.466-0.405C1.19,10.35,1.181,10.329,1.171,10.31
							C1.059,10.087,1,9.885,1,9.724c0-0.229,0.006-0.353,0.01-0.413c0.067-0.19,0.176-0.563,0.405-1.454
							c0.188-0.878,0.387-1.74,0.59-2.555C2.186,4.609,2.39,4.409,2.486,4.333c0.369-0.315,0.598-0.478,0.725-0.559
							C3.454,3.62,3.616,3.371,3.662,3.092C3.681,3.092,3.699,3.092,3.718,3.092 M20.59,16.917
							c-0.132,0.006-0.268,0.009-0.407,0.009c-0.145,0-0.292-0.003-0.438-0.009H20.59 M3.718,2.092c-0.294,0-0.588,0.04-0.882,0.121
							L2.675,2.294v0.637C2.463,3.065,2.184,3.276,1.837,3.572c-0.345,0.266-0.612,0.759-0.8,1.478
							c-0.213,0.854-0.412,1.719-0.6,2.598C0.225,8.472,0.092,8.938,0.04,9.045C0.014,9.125,0,9.353,0,9.724
							c0,0.32,0.092,0.666,0.277,1.035c0.135,0.319,0.427,0.612,0.881,0.879c0.691,0.454,1.238,0.746,1.638,0.879
							c0.187,0.08,0.358,0.135,0.519,0.161c0.056,0,0.121,0.024,0.201,0.078c0.186,0.079,0.293,0.2,0.32,0.361v0.08h0.078
							c0,0.055,0.014,0.093,0.041,0.12c0,0.052,0.014,0.08,0.04,0.08c0,0.027,0,0.094,0,0.199c0,0.133-0.026,0.32-0.081,0.561v0.199
							c-0.266,0.72-0.584,1.638-0.956,2.755c-0.351,1.094-0.71,2.265-1.08,3.518c-0.347,1.227-0.625,2.451-0.841,3.678
							c-0.239,1.252-0.357,2.316-0.357,3.195v0.641h0.043c0.557,1.063,1.092,1.599,1.6,1.599c0.289,0,1.716-0.068,4.273-0.2
							c0.822-0.081,1.621-0.12,2.396-0.12c0.742-0.026,1.143-0.039,1.197-0.039h0.121c0.187-0.106,0.389-0.215,0.601-0.319
							c0.239-0.133,0.373-0.321,0.399-0.559l0.08-0.122c0-0.131-0.039-0.253-0.121-0.358c-0.052-0.106-0.133-0.198-0.24-0.279
							l-0.158-0.159c0.051-0.133,0.133-0.386,0.238-0.759c0.055-0.292,0.174-0.816,0.359-1.559c0.158-0.615,0.307-1.186,0.441-1.719
							c0.104-0.557,0.213-0.943,0.32-1.156l0.037-0.242c0.162-0.291,0.293-0.61,0.399-0.957c0.081-0.293,0.122-0.652,0.122-1.077
							v-0.322c0-0.798,0.107-1.308,0.32-1.521l0.158-0.078c0.082-0.16,0.254-0.293,0.521-0.398c0.119-0.054,0.318-0.08,0.599-0.08
							c0.279,0,0.64,0.026,1.078,0.08h0.079c0.16-0.049,0.343-0.073,0.551-0.073c0.139,0,0.288,0.011,0.449,0.032
							c0.371,0.026,0.799,0.053,1.278,0.079c0.585,0.026,1.212,0.052,1.878,0.081c0.164,0.006,0.324,0.01,0.481,0.01
							c0.476,0,0.915-0.029,1.314-0.091c0.585-0.104,1.067-0.306,1.438-0.599c0.424-0.293,0.692-0.759,0.797-1.397
							c0.082-0.451,0.121-0.865,0.121-1.238c0-0.375,0-0.68,0-0.92c0-0.479-0.039-0.853-0.121-1.119
							c0.08-0.026,0.242-0.119,0.479-0.278c0.267-0.16,0.548-0.306,0.84-0.44c0.292-0.133,0.533-0.252,0.72-0.357l0.438-0.162h8.993
							l0.041-0.158c0.05-0.055,0.145-0.201,0.275-0.441c0.16-0.293,0.256-0.613,0.281-0.957c0.399-0.014,0.727-0.021,0.979-0.021
							s0.434,0.007,0.54,0.021c0.212,0,0.345,0,0.397,0l0.32,0.119l0.116-0.32V9.366c0-0.24,0.017-0.399,0.041-0.479l0.24-0.203
							l0.08-0.158c0-0.213,0.026-0.625,0.08-1.238c0.026-0.639,0.041-1.264,0.041-1.878c0-0.373-0.015-0.706-0.041-1
							c0-0.345-0.054-0.624-0.16-0.837c-0.266-0.852-0.559-1.309-0.877-1.359c-0.188-0.029-0.334-0.039-0.438-0.039
							c-0.106,0.026-0.177,0.039-0.203,0.039h-0.12v0.16c-0.211,0.451-0.398,0.747-0.559,0.877L36.12,3.373H26.008l-0.158-0.16
							c-0.055-0.056-0.106-0.08-0.16-0.08H6.471C6.337,2.999,5.9,2.758,5.154,2.412C4.675,2.198,4.196,2.092,3.718,2.092
							L3.718,2.092z M14.702,15.917c-0.372,0-0.558-0.186-0.558-0.559v-2.52c0-0.396,0.185-0.599,0.558-0.599h7.034
							c0.345,0,0.519,0.202,0.519,0.599v2.52c0,0.373-0.174,0.559-0.519,0.559H14.702L14.702,15.917z"/>
					</g>
				</g>
			</g>
		</g>
	</g>
</g>
<rect fill="none" width="39" height="32"/>
<g>
	<g>
		<path fill="#7A4621" d="M7.309,25.975l4.594,3.828l10.106,0.307c3.472-0.407,6.329-1.327,8.575-2.756
			c2.959-4.103,5.535-6.152,7.725-6.152c-1.485-0.594-3.188-0.352-5.104,0.729c-1.916,1.079-3.861-0.015-5.836-3.283
			c-1.837-1.225-5.438-0.336-8.388,1.096L22.009,15l-8.864,2.918L7.309,25.975z"/>
	</g>
</g>
<linearGradient id="SVGID_6_" gradientUnits="userSpaceOnUse" x1="-888.0283" y1="54.042" x2="-887.0284" y2="55.0436" gradientTransform="matrix(25.1118 0 0 10.4122 22310.6934 -544.772)">
	<stop  offset="0.6071" style="stop-color:#FFF6DA"/>
	<stop  offset="1" style="stop-color:#D6BB7E"/>
</linearGradient>
<path fill="url(#SVGID_6_)" d="M17.378,17.553h-2.601L9.759,27.965h2.333l0.772-1.766h2.089l-0.136,1.766h2.231L17.378,17.553z
	 M15.494,20.176l-0.381,4.422h-1.572L15.494,20.176z M27.139,19.209c0-1.082-1.012-1.656-2.912-1.656
	c-2.356,0-3.436,0.752-3.998,2.686L18.82,25.09c-0.176,0.568-0.21,0.852-0.21,1.114c0,1.144,1.062,1.761,3.033,1.761
	c1.084,0,1.936-0.188,2.53-0.568c0.644-0.427,1.045-1.082,1.356-2.226l0.336-1.183h-2.231l-0.368,1.283
	c-0.262,0.933-0.591,1.211-1.379,1.211c-0.607,0-0.943-0.222-0.943-0.627c0-0.125,0.039-0.336,0.107-0.6l1.499-5.158
	c0.228-0.766,0.597-1.07,1.328-1.07c0.606,0,0.938,0.22,0.938,0.611c0,0.168-0.053,0.379-0.154,0.779l-0.277,1.005h2.23l0.347-1.215
	C27.087,19.793,27.139,19.473,27.139,19.209z M34.871,17.553h-5.967l-2.84,10.412h6.139l0.438-1.598h-3.873l0.869-3.26h3.491
	l0.437-1.573h-3.49l0.664-2.407h3.695L34.871,17.553z"/>
</svg>
