<?xml version="1.0" encoding="utf-8"?>
<!-- Generator: Adobe Illustrator 16.0.0, SVG Export Plug-In . SVG Version: 6.00 Build 0)  -->
<!DOCTYPE svg PUBLIC "-//W3C//DTD SVG 1.1//EN" "http://www.w3.org/Graphics/SVG/1.1/DTD/svg11.dtd">
<svg version="1.1" id="图层_1" xmlns="http://www.w3.org/2000/svg" xmlns:xlink="http://www.w3.org/1999/xlink" x="0px" y="0px"
	 width="92.592px" height="39.133px" viewBox="0 0 92.592 39.133" enable-background="new 0 0 92.592 39.133" xml:space="preserve">
<rect fill="none" width="92.592" height="39.133"/>
<g>
	
		<linearGradient id="SVGID_1_" gradientUnits="userSpaceOnUse" x1="-255.4927" y1="405.1431" x2="-256.4927" y2="404.1431" gradientTransform="matrix(89.6666 0 0 -36.404 22992.2461 14747.0664)">
		<stop  offset="0" style="stop-color:#BB925B"/>
		<stop  offset="0.3429" style="stop-color:#FFF6DA"/>
		<stop  offset="0.6571" style="stop-color:#FFF1B1"/>
		<stop  offset="1" style="stop-color:#B38B54"/>
	</linearGradient>
	<path fill="url(#SVGID_1_)" d="M90.854,10.174c0,0.566-0.084,1.216-0.25,1.95c-0.065,0.367-0.149,0.684-0.25,0.95h-27.1v0.8
		l-0.3,0.4h-24.65v-1.1h-1c-0.167,0.1-0.184,0.367-0.05,0.8l0.7,2.15h0.35l0.1,0.35l-0.6,0.25l0.15,0.55
		c0.167,0.434,0.35,0.934,0.55,1.5c0.667,1.732,1.534,3.616,2.6,5.65c1.033,2.033,2.483,4.416,4.35,7.148
		c0.9,1.334,1.717,2.484,2.45,3.45l-3.7,2.851c-0.7-0.899-1.517-2.018-2.45-3.351c-1.833-2.733-3.316-5.216-4.45-7.45
		c-1.133-2.266-2.117-4.383-2.95-6.35l-0.95-2.3l-0.35,0.1h-1.35l-0.4,2.101h-0.3l0.3-2h-1.45l-0.35,0.35l-1.75,3.5
		c-0.1,0.268-0.316,0.416-0.65,0.449h-5.5c-0.467-0.033-0.867-0.149-1.2-0.35l-0.2,0.149c-0.133,0.166-0.233,0.334-0.3,0.5
		c-0.067,0.133-0.117,0.351-0.15,0.649c-0.033,0.301-0.1,0.533-0.2,0.699c-0.033,0.102-0.133,0.283-0.3,0.551
		c-0.2,0.232-0.35,0.482-0.45,0.75c-0.1,0.301-0.167,0.584-0.2,0.851c0,0.334-0.033,0.565-0.1,0.7
		c-0.033,0.166-0.167,0.416-0.4,0.75c-0.2,0.332-0.35,0.634-0.45,0.898c-0.067,0.2-0.117,0.5-0.15,0.9
		c-0.033,0.3-0.083,0.533-0.15,0.699c-0.1,0.233-0.267,0.467-0.5,0.701c-0.167,0.133-0.3,0.231-0.4,0.299l-5.95-3.25
		c0.034-0.299,0.133-0.699,0.3-1.199c0.333-1,0.733-2.018,1.2-3.051c0.434-0.865,0.967-1.732,1.6-2.601c0.3-0.399,0.5-0.667,0.6-0.8
		c0.133-0.268,0.25-0.5,0.35-0.7c0.2-0.6,0.316-1.117,0.35-1.55c0.066-0.566-0.017-1.033-0.25-1.4c-0.2-0.333-0.483-0.6-0.85-0.8
		c-0.2-0.067-0.35-0.133-0.45-0.2c-0.133-0.033-0.217-0.083-0.25-0.15c-0.1-0.1-0.167-0.2-0.2-0.3h-3.8c-0.333,0-0.6-0.25-0.8-0.75
		l-0.6-2.9l-0.25-0.05l-0.1,0.35l0.65,2.15l-0.3,0.55h-1.55l-0.35-0.65l1-2l-0.05-0.45l-0.4,0.2c-0.3,0.267-0.533,0.567-0.7,0.9
		c-0.2,0.367-0.35,0.733-0.45,1.1c-0.067,0.167-0.1,0.3-0.1,0.4l-0.55,3.4c-0.367,2.233-0.617,3.417-0.75,3.549
		c-0.133,0.101-0.267,0.218-0.4,0.351c-0.067,0.065-0.167,0.101-0.3,0.101c-0.233,0.033-0.5,0.033-0.8,0
		c-0.4-0.066-0.667-0.184-0.8-0.351c-0.167-0.167-0.267-0.315-0.3-0.45c-0.033-0.065-0.017-0.232,0.05-0.5
		c0-0.033,0.117-0.783,0.35-2.25c0.233-1.367,0.383-2.4,0.45-3.1c0.033-0.433,0.05-1.75,0.05-3.95v-2.7c-0.033-0.5,0-0.85,0.1-1.05
		c0.167-0.167,0.367-0.25,0.6-0.25c0.267-0.033,0.933,0.033,2,0.2c0.533,0.133,1.05,0.25,1.55,0.35h1.35l0.05-0.8
		c0.1-0.333,0.2-0.684,0.3-1.05c0.267-0.7,0.45-1.133,0.55-1.3c0.133-0.133,0.267-0.217,0.4-0.25c0.067,0,0.117,0,0.15,0h3.65
		l0.35,0.15h1.75l0.05-1.4c0.1-0.333,0.25-0.567,0.45-0.7c0.2-0.133,0.4-0.183,0.6-0.15c0.2,0,0.367,0,0.5,0l0.2,0.75l0.4-1l2.1,0.9
		l-0.45,0.8l0.45,0.75h18.9l0.4,0.05h22.75v-0.5h-0.3v-2.4l0.2-0.25h0.85l0.7,1.95v1.2h0.45l0.35,0.5v1.7h-0.3v0.55h27.25l0.2,0.9
		C90.789,8.974,90.854,9.607,90.854,10.174z M28.305,18.974l-0.35-0.35h-4.05l-0.2,0.4c-0.133,0.267-0.233,0.534-0.3,0.8
		c-0.034,0.233,0,0.533,0.1,0.9c0.067,0.333,0.133,0.583,0.2,0.75l0.05,0.5l-0.4-0.2c-0.3-0.434-0.5-0.867-0.6-1.3
		c-0.066-0.399-0.117-0.833-0.15-1.3v-0.55h-1l-0.45,1.05c-0.267,0.7-0.417,1.1-0.45,1.2c-0.033,0.233-0.033,0.533,0,0.9
		c0.267,0.268,0.617,0.45,1.05,0.551h5.05c0.2-0.033,0.35-0.166,0.45-0.4L28.305,18.974z"/>
</g>
<g>
	<g>
		<g>
			<path fill="#7A4621" d="M50.125,32.043l6.298,5.25l13.855,0.42c4.758-0.56,8.676-1.818,11.755-3.778
				c4.058-5.624,7.589-8.435,10.592-8.435c-2.039-0.814-4.372-0.48-7,1c-2.628,1.479-5.294-0.021-8-4.5
				c-2.519-1.68-7.456-0.463-11.5,1.5l4.153-6.5l-12.153,4L50.125,32.043z"/>
		</g>
	</g>
</g>
<linearGradient id="SVGID_2_" gradientUnits="userSpaceOnUse" x1="-251.8784" y1="387.9458" x2="-250.8784" y2="386.9442" gradientTransform="matrix(34.4275 0 0 -14.2748 8726.3574 5558.8774)">
	<stop  offset="0.6071" style="stop-color:#FFF6DA"/>
	<stop  offset="1" style="stop-color:#D6BB7E"/>
</linearGradient>
<path fill="url(#SVGID_2_)" d="M63.93,20.5h-3.565l-6.881,14.274h3.199l1.059-2.421h2.865l-0.188,2.421h3.059L63.93,20.5z
	 M61.346,24.094l-0.522,6.063h-2.155L61.346,24.094z M77.31,22.77c0-1.482-1.385-2.27-3.992-2.27c-3.23,0-4.709,1.029-5.48,3.68
	l-1.93,6.652c-0.242,0.78-0.289,1.168-0.289,1.528c0,1.567,1.456,2.414,4.157,2.414c1.487,0,2.654-0.256,3.472-0.78
	c0.879-0.584,1.432-1.482,1.859-3.051l0.46-1.621h-3.06l-0.506,1.759c-0.357,1.279-0.809,1.659-1.891,1.659
	c-0.834,0-1.293-0.301-1.293-0.859c0-0.17,0.055-0.459,0.148-0.819l2.055-7.071c0.312-1.051,0.817-1.471,1.822-1.471
	c0.832,0,1.283,0.303,1.283,0.84c0,0.23-0.07,0.519-0.21,1.07l-0.382,1.377h3.06l0.475-1.666
	C77.239,23.571,77.31,23.131,77.31,22.77z M87.911,20.5H79.73l-3.892,14.274h8.414l0.6-2.191h-5.309l1.191-4.468h4.787l0.599-2.158
	h-4.787l0.911-3.299h5.066L87.911,20.5z"/>
</svg>
