<?xml version="1.0" encoding="utf-8"?>
<!-- Generator: Adobe Illustrator 16.0.0, SVG Export Plug-In . SVG Version: 6.00 Build 0)  -->
<!DOCTYPE svg PUBLIC "-//W3C//DTD SVG 1.1//EN" "http://www.w3.org/Graphics/SVG/1.1/DTD/svg11.dtd">
<svg version="1.1" id="图层_1" xmlns="http://www.w3.org/2000/svg" xmlns:xlink="http://www.w3.org/1999/xlink" x="0px" y="0px"
	 width="77.833px" height="32px" viewBox="0 0 77.833 32" enable-background="new 0 0 77.833 32" xml:space="preserve">
<rect fill="none" width="77.833" height="32"/>
<g>
	<g>
		<g>
			<g>
				<g>
					
						<linearGradient id="SVGID_1_" gradientUnits="userSpaceOnUse" x1="-871.3765" y1="20.8496" x2="-870.1688" y2="20.2633" gradientTransform="matrix(76.8596 0 0 27.9126 66963.3594 -560.2734)">
						<stop  offset="0.1429" style="stop-color:#000000"/>
						<stop  offset="0.4335" style="stop-color:#FFD400"/>
						<stop  offset="0.7488" style="stop-color:#FF0000"/>
					</linearGradient>
					<path fill="url(#SVGID_1_)" d="M77.2,11.735c0.053,0.398-0.025,0.848-0.236,1.352v0.119h-0.121
						c-0.053,0-0.305,0.026-0.754,0.081c-0.479,0.026-1.021,0.053-1.631,0.079c-0.582,0.026-1.127,0.04-1.631,0.04
						c-0.529,0-0.875-0.066-1.031-0.2c-0.08,0-0.135-0.027-0.16-0.079c-0.055,0-0.094-0.012-0.119-0.04h-6.48
						c-0.156,0.079-0.355,0.145-0.596,0.199c-0.266,0.026-0.451,0.091-0.557,0.198c-0.107,0.106-0.318,0.185-0.637,0.238
						c-0.371,0.026-0.596,0.04-0.676,0.04c-0.055,0-0.172-0.093-0.357-0.278h-0.16c-0.027,0.026-0.039,0.092-0.039,0.199
						c-0.053,0.053-0.08,0.186-0.08,0.397v0.039c-0.025,0.161-0.066,0.358-0.121,0.597c-0.078,0.265-0.197,0.517-0.357,0.754
						c-0.133,0.24-0.289,0.464-0.475,0.676c-0.268,0.186-0.545,0.278-0.836,0.278h-15.9c-0.186,0-0.396,0.066-0.637,0.2v1.073
						c0,0.345-0.012,0.703-0.039,1.074c-0.025,0.344-0.16,0.688-0.396,1.032c-0.291,0.187-0.688,0.278-1.189,0.278
						c-0.428-0.053-0.879-0.076-1.355-0.076c-0.531-0.055-1.033-0.107-1.511-0.16c-0.504-0.105-0.927-0.173-1.273-0.199
						c-0.344-0.053-0.57-0.119-0.676-0.199c-0.185,0.106-0.423,0.268-0.715,0.479c-0.319,0.238-0.477,0.65-0.477,1.23v0.836
						l-0.158,0.08c-0.054,0.078-0.2,0.252-0.438,0.518c-0.212,0.264-0.318,0.489-0.318,0.676c0,0.159,0.013,0.307,0.041,0.438
						c0,0.08,0.012,0.16,0.04,0.238l0.238,0.318h-0.238c-0.054,0.026-0.199,0.212-0.438,0.557c-0.265,0.344-0.396,0.821-0.396,1.432
						v0.396l0.158,0.238h-0.438c-0.158-0.054-0.45-0.131-0.874-0.238c-0.477-0.025-0.954-0.117-1.431-0.275
						c-0.53-0.133-1.008-0.305-1.432-0.521c-0.397-0.184-0.622-0.407-0.674-0.676l-0.16-0.118c0.105-1.432,0.291-2.822,0.556-4.174
						c0.319-1.354,1.034-2.533,2.147-3.538c0.026-0.106,0.066-0.239,0.119-0.397c0.026-0.158,0.041-0.306,0.041-0.438
						c0-0.239-0.212-0.478-0.637-0.717c-0.238-0.131-0.622-0.2-1.153-0.2c-0.583,0-1.257,0.147-2.027,0.439
						c-1.697,0.609-2.862,1.869-3.498,3.776l-0.08,0.04c-0.529,0.371-0.927,0.557-1.192,0.557v0.08c0,0.264,0.013,0.688,0.04,1.271
						c0.054,0.583,0.092,1.23,0.118,1.945c0,0.69,0.027,1.406,0.081,2.146c0.054,0.77,0.106,1.473,0.16,2.107v0.199
						c-0.054,0-0.2,0.105-0.438,0.317c-0.292,0.187-0.689,0.396-1.193,0.636c-0.529,0.213-1.179,0.438-1.948,0.676
						c-0.741,0.16-1.615,0.213-2.623,0.16h-0.12c-0.158-2.199-0.265-4.175-0.317-5.924c-0.107-1.51-0.173-2.9-0.2-4.174
						c-0.027-1.271-0.04-1.986-0.04-2.146c-1.032,0.16-1.96,0.318-2.782,0.478c-0.848,0.159-1.365,0.293-1.551,0.399
						c0,0.024-0.013,0.092-0.04,0.197c-0.054,0.133-0.08,0.226-0.08,0.277c0,0.504-0.12,0.756-0.357,0.756
						c-0.079,0.027-0.357,0.094-0.835,0.2c-0.477,0.051-0.821,0.146-1.034,0.276h-0.119c-0.106-0.133-0.185-0.252-0.239-0.357
						c-0.106-0.079-0.198-0.171-0.278-0.277c-0.027-0.133-0.053-0.25-0.08-0.355c-0.212,0.186-0.569,0.369-1.073,0.556
						c-0.559,0.159-1.18,0.343-1.87,0.556C6.174,20.561,5.419,20.68,4.65,20.76c-0.821,0.186-1.643,0.227-2.465,0.12l-0.119-0.12
						l-0.159-0.08c-0.61-1.908-1.034-3.551-1.272-4.93c-0.186-1.377-0.278-2.531-0.278-3.458c0-1.748,0.211-2.901,0.636-3.458
						C1.39,8.251,1.682,7.906,1.867,7.801c0.027,0,0.159-0.212,0.398-0.636c0.291-0.426,0.557-0.809,0.794-1.154V5.813h7.514v0.198
						c0.159,0.292,0.411,0.65,0.755,1.073c0.318,0.372,0.557,0.61,0.716,0.717c0.132,0,0.477-0.16,1.034-0.478
						c0.529-0.319,1.02-0.716,1.47-1.193h0.16c1.218,0.107,2.49,0.173,3.816,0.199c1.298,0.053,2.478,0.094,3.537,0.12
						c1.086,0,1.988,0,2.704,0c0.796-0.026,1.272-0.08,1.432-0.159c0.053-0.132,0.131-0.358,0.238-0.676
						c0.106-0.344,0.198-0.675,0.279-0.993c0.078-0.293,0.146-0.597,0.198-0.914c0.08-0.293,0.146-0.478,0.199-0.557V3.03
						c0.025-0.08,0.092-0.147,0.199-0.199c0.079-0.132,0.264-0.225,0.556-0.278c0.212-0.08,0.597-0.16,1.152-0.239
						c0.53-0.053,1.233-0.119,2.109-0.198c3.789-0.185,10.002,0.014,18.645,0.597c2.543,0.079,4.584,0.132,6.121,0.158
						c1.51,0.026,2.664,0.039,3.459,0.039c0.793,0.026,1.311,0.067,1.549,0.121c0.24,0,0.383,0,0.439,0c0.025,0,0.158,0,0.396,0
						c0.211-0.053,0.41,0.092,0.598,0.437c0.504,0.557,0.754,1.512,0.754,2.862c0,0.452,0,0.928,0,1.432
						c-0.027,0.529-0.092,1.099-0.199,1.709c-0.08,0.16-0.119,0.292-0.119,0.398c-0.055,0.213-0.08,0.437-0.08,0.677
						c0.133,0,0.252,0,0.357,0c0.133,0.026,0.225,0.039,0.279,0.039c0.158,0.026,0.291,0.04,0.396,0.04l1.072,0.237
						c0,0.027,0.014,0.054,0.041,0.081c0,0.052,0.014,0.106,0.041,0.16v0.079h5.645c0.105-0.054,0.238-0.079,0.398-0.079
						c0.186-0.054,0.33-0.107,0.436-0.16l0.32-0.081c0.131-0.079,0.449-0.131,0.953-0.159c0.449,0,0.955-0.014,1.51-0.04
						c0.559-0.025,1.102-0.025,1.631,0c0.504,0.026,0.809,0.04,0.914,0.04l0.279,0.159v0.16
						C77.067,11.153,77.149,11.391,77.2,11.735z M57.76,5.494H32.2c-0.875,0-1.312,0.464-1.312,1.392v1.273
						c0,0.899,0.438,1.351,1.312,1.351h25.563c0.424,0,0.742-0.133,0.953-0.398c0.266-0.212,0.396-0.53,0.396-0.953V6.886
						c0-0.424-0.131-0.757-0.396-0.994C58.504,5.626,58.186,5.494,57.76,5.494z"/>
				</g>
			</g>
		</g>
	</g>
</g>
<path fill="none" d="M30.858,78.379v1.273c0,0.898,0.438,1.352,1.312,1.352h8.591c-3.16-1.965-6.662-2.885-9.804-3.264
	C30.895,77.922,30.858,78.131,30.858,78.379z"/>
<path fill="none" d="M23.914,77.942c0.293,0,0.573,0,0.821,0c0.796-0.026,1.272-0.08,1.432-0.159c0.027-0.066,0.06-0.156,0.099-0.27
	c-0.969,0.021-1.826,0.079-2.537,0.146C23.792,77.755,23.853,77.849,23.914,77.942z"/>
<path fill="none" d="M57.732,81.004c0.425,0,0.742-0.133,0.954-0.398c0.266-0.212,0.396-0.529,0.396-0.953v-1.273
	c0-0.424-0.131-0.756-0.396-0.994c-0.212-0.266-0.53-0.397-0.955-0.397H38.947c1.385,1.454,2.494,2.89,3.287,4.017H57.732z"/>
<linearGradient id="SVGID_2_" gradientUnits="userSpaceOnUse" x1="-871.3657" y1="23.4326" x2="-870.1581" y2="22.8463" gradientTransform="matrix(76.8596 0 0 27.9126 66963.3594 -560.2734)">
	<stop  offset="0.1429" style="stop-color:#000000"/>
	<stop  offset="0.4335" style="stop-color:#FFD400"/>
	<stop  offset="0.7488" style="stop-color:#FF0000"/>
</linearGradient>
<path fill="url(#SVGID_2_)" d="M76.933,82.516v-0.16l-0.279-0.158c-0.104,0-0.409-0.015-0.913-0.041
	c-0.529-0.025-1.072-0.025-1.631,0c-0.555,0.026-1.061,0.041-1.511,0.041c-0.504,0.027-0.822,0.079-0.953,0.158l-0.319,0.081
	c-0.105,0.054-0.25,0.106-0.437,0.16c-0.16,0-0.293,0.024-0.397,0.079h-5.646v-0.079c-0.027-0.054-0.04-0.108-0.04-0.16
	c-0.028-0.026-0.041-0.054-0.041-0.081l-1.073-0.236c-0.104,0-0.237-0.015-0.396-0.041c-0.055,0-0.147-0.013-0.279-0.039
	c-0.105,0-0.225,0-0.357,0c0-0.24,0.025-0.463,0.08-0.677c0-0.106,0.039-0.237,0.119-0.397c0.107-0.61,0.172-1.18,0.198-1.709
	c0-0.504,0-0.98,0-1.432c0-1.351-0.25-2.306-0.754-2.863c-0.187-0.344-0.386-0.489-0.597-0.437c-0.238,0-0.371,0-0.397,0
	c-0.056,0-0.199,0-0.438,0c-0.238-0.054-0.756-0.095-1.55-0.121c-0.794,0-1.948-0.013-3.458-0.038
	c-1.537-0.027-3.578-0.08-6.121-0.158c-6.139-0.415-11.046-0.635-14.736-0.661c1.484,1.05,2.805,2.249,3.94,3.441h18.784
	c0.425,0,0.743,0.132,0.955,0.397c0.266,0.238,0.396,0.57,0.396,0.994v1.273c0,0.424-0.131,0.741-0.396,0.953
	c-0.212,0.266-0.529,0.398-0.954,0.398H42.234c0.922,1.312,1.419,2.205,1.419,2.205c-0.913-0.854-1.886-1.58-2.892-2.205H32.17
	c-0.874,0-1.312-0.453-1.312-1.352v-1.273c0-0.248,0.037-0.457,0.099-0.639c-1.709-0.207-3.311-0.256-4.691-0.227
	c-0.04,0.113-0.072,0.203-0.099,0.27c-0.16,0.079-0.636,0.133-1.432,0.159c-0.249,0-0.528,0-0.821,0
	c2.676,4.105,4.121,8.029,4.626,9.562c0.741-0.275,1.396-0.42,1.961-0.42c0.531,0,0.915,0.069,1.153,0.201
	c0.425,0.238,0.637,0.478,0.637,0.717c0,0.131-0.015,0.279-0.041,0.438c-0.053,0.158-0.093,0.291-0.119,0.396
	c-1.113,1.006-1.828,2.186-2.147,3.539c-0.265,1.352-0.451,2.742-0.556,4.174l0.16,0.117c0.052,0.27,0.277,0.492,0.674,0.676
	c0.424,0.217,0.902,0.389,1.432,0.521c0.477,0.158,0.954,0.25,1.431,0.275c0.424,0.107,0.716,0.184,0.874,0.238h0.438l-0.158-0.238
	v-0.396c0-0.611,0.131-1.088,0.396-1.432c0.239-0.346,0.384-0.531,0.438-0.557h0.238l-0.238-0.318
	c-0.028-0.078-0.04-0.158-0.04-0.238c-0.028-0.131-0.041-0.279-0.041-0.438c0-0.188,0.106-0.412,0.318-0.676
	c0.238-0.266,0.384-0.439,0.438-0.518l0.158-0.08V92.65c0-0.58,0.158-0.992,0.477-1.23c0.292-0.211,0.53-0.373,0.715-0.479
	c0.106,0.08,0.332,0.146,0.676,0.199c0.346,0.025,0.769,0.094,1.273,0.199c0.477,0.053,0.98,0.105,1.51,0.16
	c0.478,0,0.929,0.023,1.356,0.076c0.502,0,0.897-0.092,1.189-0.279c0.236-0.344,0.371-0.688,0.396-1.031
	c0.026-0.371,0.039-0.73,0.039-1.074v-1.074c0.24-0.134,0.45-0.199,0.637-0.199h15.9c0.291,0,0.568-0.092,0.836-0.278
	c0.186-0.212,0.342-0.437,0.475-0.677c0.16-0.236,0.279-0.488,0.357-0.754c0.055-0.238,0.096-0.436,0.12-0.597v-0.038
	c0-0.212,0.027-0.345,0.08-0.398c0-0.106,0.013-0.172,0.04-0.198h0.159c0.187,0.185,0.303,0.278,0.358,0.278
	c0.08,0,0.305-0.014,0.676-0.041c0.318-0.053,0.529-0.131,0.636-0.237s0.292-0.172,0.558-0.198c0.239-0.054,0.438-0.119,0.596-0.199
	h6.479c0.026,0.028,0.065,0.041,0.119,0.041c0.026,0.051,0.08,0.078,0.16,0.078c0.157,0.135,0.503,0.2,1.032,0.2
	c0.504,0,1.048-0.015,1.631-0.04c0.609-0.025,1.152-0.053,1.63-0.078c0.45-0.056,0.702-0.082,0.755-0.082h0.12V84.58
	c0.212-0.504,0.29-0.953,0.237-1.352C77.12,82.885,77.038,82.646,76.933,82.516z"/>
<linearGradient id="SVGID_3_" gradientUnits="userSpaceOnUse" x1="-871.3765" y1="23.4111" x2="-870.1688" y2="22.8248" gradientTransform="matrix(76.8596 0 0 27.9126 66963.3594 -560.2734)">
	<stop  offset="0.1429" style="stop-color:#000000"/>
	<stop  offset="0.4335" style="stop-color:#FFD400"/>
	<stop  offset="0.7488" style="stop-color:#FF0000"/>
</linearGradient>
<path fill="url(#SVGID_3_)" d="M14.576,77.623h-0.058c-0.45,0.478-0.941,0.875-1.47,1.193c-0.557,0.318-0.902,0.479-1.034,0.479
	c-0.159-0.107-0.398-0.346-0.716-0.717c-0.344-0.424-0.596-0.781-0.755-1.074v-0.197H3.029v0.197
	c-0.237,0.346-0.503,0.729-0.794,1.154c-0.239,0.424-0.371,0.637-0.398,0.637c-0.185,0.104-0.477,0.449-0.874,1.033
	c-0.425,0.557-0.636,1.709-0.636,3.457c0,0.928,0.092,2.082,0.278,3.459c0.238,1.379,0.662,3.021,1.272,4.93l0.159,0.08l0.119,0.119
	c0.822,0.107,1.644,0.066,2.465-0.119c0.769-0.08,1.524-0.199,2.266-0.357c0.69-0.213,1.311-0.396,1.87-0.557
	c0.504-0.186,0.861-0.369,1.073-0.555c0.027,0.105,0.053,0.223,0.08,0.355c0.08,0.105,0.172,0.197,0.278,0.277
	c0.054,0.105,0.133,0.225,0.239,0.357h0.119c0.213-0.131,0.557-0.227,1.034-0.277c0.478-0.105,0.756-0.172,0.835-0.199
	c0.237,0,0.357-0.252,0.357-0.756c0-0.053,0.026-0.145,0.08-0.277c0.027-0.105,0.04-0.174,0.04-0.197
	c0.186-0.107,0.703-0.24,1.551-0.4c0.822-0.158,1.75-0.316,2.782-0.477c0,0.16,0.013,0.875,0.04,2.146
	c0.027,1.273,0.093,2.664,0.2,4.174c0.052,1.748,0.159,3.725,0.317,5.924h0.12c1.008,0.053,1.882,0,2.623-0.16
	c0.769-0.238,1.419-0.463,1.948-0.676c0.504-0.24,0.901-0.449,1.193-0.637c0.238-0.211,0.384-0.316,0.438-0.316v-0.199
	c-0.054-0.635-0.106-1.338-0.16-2.107c-0.054-0.74-0.081-1.457-0.081-2.146c-0.026-0.715-0.064-1.363-0.118-1.945
	c-0.027-0.584-0.04-1.008-0.04-1.271v-0.08c0.265,0,0.663-0.186,1.192-0.557l0.08-0.041c0.621-1.862,1.751-3.103,3.384-3.728
	C24.78,81.988,19.424,79.102,14.576,77.623z"/>
<linearGradient id="SVGID_4_" gradientUnits="userSpaceOnUse" x1="7.8755" y1="86.1992" x2="25.5258" y2="76.0312" gradientTransform="matrix(0.9985 0.0539 -0.0539 0.9985 4.1773 -0.7661)">
	<stop  offset="0.3505" style="stop-color:#FFE3A0"/>
	<stop  offset="1" style="stop-color:#00FFFF"/>
</linearGradient>
<path fill="url(#SVGID_4_)" d="M21.671,77.932c0.116,0.003,0.247,0.008,0.36,0.011c0.709,0,1.332,0,1.883,0
	c-0.061-0.094-0.122-0.188-0.184-0.282C22.656,77.763,21.928,77.885,21.671,77.932z"/>
<linearGradient id="SVGID_5_" gradientUnits="userSpaceOnUse" x1="13.603" y1="96.1426" x2="31.2533" y2="85.9746" gradientTransform="matrix(0.9985 0.0539 -0.0539 0.9985 4.1773 -0.7661)">
	<stop  offset="0.3505" style="stop-color:#FFE3A0"/>
	<stop  offset="1" style="stop-color:#00FFFF"/>
</linearGradient>
<path fill="url(#SVGID_5_)" d="M28.36,87.571c0.131,0.205,0.267,0.403,0.394,0.615c0,0-0.072-0.251-0.214-0.683
	c-0.023,0.008-0.042,0.011-0.065,0.02C28.435,87.537,28.399,87.557,28.36,87.571z"/>
<linearGradient id="SVGID_6_" gradientUnits="userSpaceOnUse" x1="3.4946" y1="78.5957" x2="21.1449" y2="68.4277" gradientTransform="matrix(0.9985 0.0539 -0.0539 0.9985 4.1773 -0.7661)">
	<stop  offset="0.3505" style="stop-color:#FFE3A0"/>
	<stop  offset="1" style="stop-color:#00FFFF"/>
</linearGradient>
<path fill="url(#SVGID_6_)" d="M18.494,77.822c1.121,0.046,2.136,0.08,3.079,0.106l1.009-1.894c-3.232-4.331-7.88-8.47-14.301-9.797
	l-4.977,9.871c0,0,5.237-0.327,11.271,1.514h0.103C15.896,77.73,17.168,77.797,18.494,77.822z"/>
<linearGradient id="SVGID_7_" gradientUnits="userSpaceOnUse" x1="-871.4458" y1="23.2676" x2="-870.2382" y2="22.6812" gradientTransform="matrix(76.8596 0 0 27.9126 66963.3594 -560.2734)">
	<stop  offset="0.1429" style="stop-color:#000000"/>
	<stop  offset="0.4335" style="stop-color:#FFD400"/>
	<stop  offset="0.7488" style="stop-color:#FF0000"/>
</linearGradient>
<path fill="url(#SVGID_7_)" d="M22.031,77.942c-0.113-0.003-0.244-0.008-0.36-0.011c-0.067,0.012-0.11,0.021-0.11,0.021l0.013-0.023
	c-0.943-0.026-1.958-0.061-3.079-0.106c-1.326-0.025-2.598-0.092-3.816-0.199h-0.103c4.848,1.479,10.204,4.365,13.785,9.948
	c0.039-0.015,0.074-0.034,0.114-0.048c0.023-0.009,0.042-0.012,0.065-0.02c-0.505-1.532-1.95-5.456-4.626-9.562
	C23.362,77.942,22.74,77.942,22.031,77.942z"/>
<linearGradient id="SVGID_8_" gradientUnits="userSpaceOnUse" x1="5.8052" y1="17.8965" x2="23.4549" y2="7.7288" gradientTransform="matrix(0.9985 0.0539 -0.0539 0.9985 4.1773 -0.7661)">
	<stop  offset="0.3505" style="stop-color:#FFE3A0"/>
	<stop  offset="1" style="stop-color:#00FFFF"/>
</linearGradient>
<path fill="url(#SVGID_8_)" d="M22.031,6.442c-0.113-0.003-0.244-0.008-0.36-0.011c-0.067,0.012-0.11,0.021-0.11,0.021l0.013-0.023
	c-0.943-0.026-1.958-0.061-3.079-0.106c-1.326-0.025-2.598-0.092-3.816-0.199h-0.103c4.848,1.479,10.204,4.365,13.785,9.948
	c0.039-0.015,0.074-0.034,0.114-0.048c0.023-0.009,0.042-0.012,0.065-0.02c-0.505-1.532-1.95-5.456-4.626-9.562
	C23.362,6.442,22.74,6.442,22.031,6.442z"/>
<linearGradient id="SVGID_9_" gradientUnits="userSpaceOnUse" x1="25.6626" y1="85.8711" x2="41.3083" y2="76.8579" gradientTransform="matrix(0.9988 -0.0481 0.0481 0.9988 -3.7534 1.4892)">
	<stop  offset="0.1781" style="stop-color:#FFE3A0"/>
	<stop  offset="1" style="stop-color:#00FFFF"/>
</linearGradient>
<path fill="url(#SVGID_9_)" d="M30.957,77.74c3.142,0.379,6.644,1.299,9.804,3.264h1.473c-0.793-1.127-1.901-2.563-3.287-4.017
	H32.17C31.529,76.987,31.128,77.242,30.957,77.74z"/>
<linearGradient id="SVGID_10_" gradientUnits="userSpaceOnUse" x1="20.9038" y1="77.6113" x2="36.5495" y2="68.5981" gradientTransform="matrix(0.9988 -0.0481 0.0481 0.9988 -3.7534 1.4892)">
	<stop  offset="0.1781" style="stop-color:#FFE3A0"/>
	<stop  offset="1" style="stop-color:#00FFFF"/>
</linearGradient>
<path fill="url(#SVGID_10_)" d="M26.266,77.514c0.04-0.112,0.085-0.248,0.139-0.406c0.106-0.344,0.198-0.675,0.279-0.992
	c0.078-0.293,0.146-0.598,0.198-0.914c0.08-0.293,0.146-0.479,0.199-0.558v-0.12c0.025-0.08,0.092-0.146,0.199-0.199
	c0.079-0.132,0.264-0.225,0.556-0.277c0.212-0.08,0.597-0.16,1.152-0.239c0.53-0.054,1.233-0.119,2.109-0.198
	c1.098-0.054,2.405-0.074,3.91-0.063c-2.648-1.873-5.812-3.263-9.372-3.235l-3.053,5.725c0.404,0.541,0.787,1.084,1.147,1.625
	C24.44,77.593,25.297,77.534,26.266,77.514z"/>
<linearGradient id="SVGID_11_" gradientUnits="userSpaceOnUse" x1="-871.4019" y1="23.3584" x2="-870.1942" y2="22.7721" gradientTransform="matrix(76.8596 0 0 27.9126 66963.3594 -560.2734)">
	<stop  offset="0.1429" style="stop-color:#000000"/>
	<stop  offset="0.4335" style="stop-color:#FFD400"/>
	<stop  offset="0.7488" style="stop-color:#FF0000"/>
</linearGradient>
<path fill="url(#SVGID_11_)" d="M43.653,83.209c0,0-0.497-0.894-1.419-2.205h-1.473C41.767,81.629,42.74,82.354,43.653,83.209z"/>
<linearGradient id="SVGID_12_" gradientUnits="userSpaceOnUse" x1="31.8232" y1="19.1787" x2="47.4689" y2="10.1655" gradientTransform="matrix(0.9988 -0.0481 0.0481 0.9988 -3.7534 1.4892)">
	<stop  offset="0.1781" style="stop-color:#FFE3A0"/>
	<stop  offset="1" style="stop-color:#00FFFF"/>
</linearGradient>
<path fill="url(#SVGID_12_)" d="M43.653,11.709c0,0-0.497-0.894-1.419-2.205h-1.473C41.767,10.129,42.74,10.854,43.653,11.709z"/>
<linearGradient id="SVGID_13_" gradientUnits="userSpaceOnUse" x1="-871.5171" y1="23.1211" x2="-870.3094" y2="22.5347" gradientTransform="matrix(76.8596 0 0 27.9126 66963.3594 -560.2734)">
	<stop  offset="0.1429" style="stop-color:#000000"/>
	<stop  offset="0.4335" style="stop-color:#FFD400"/>
	<stop  offset="0.7488" style="stop-color:#FF0000"/>
</linearGradient>
<path fill="url(#SVGID_13_)" d="M31.097,73.609c-0.876,0.079-1.579,0.145-2.109,0.198c-0.555,0.079-0.94,0.159-1.152,0.239
	c-0.292,0.053-0.477,0.146-0.556,0.277c-0.107,0.053-0.174,0.119-0.199,0.199v0.12c-0.053,0.079-0.119,0.265-0.199,0.558
	c-0.052,0.316-0.12,0.621-0.198,0.914c-0.081,0.317-0.173,0.648-0.279,0.992c-0.053,0.158-0.099,0.294-0.139,0.406
	c1.38-0.029,2.982,0.02,4.691,0.227c0.171-0.498,0.572-0.753,1.213-0.753h6.777c-1.135-1.192-2.456-2.392-3.94-3.441
	C33.502,73.535,32.195,73.556,31.097,73.609z"/>
<linearGradient id="SVGID_14_" gradientUnits="userSpaceOnUse" x1="26.6528" y1="10.2021" x2="42.2978" y2="1.1893" gradientTransform="matrix(0.9988 -0.0481 0.0481 0.9988 -3.7534 1.4892)">
	<stop  offset="0.1781" style="stop-color:#FFE3A0"/>
	<stop  offset="1" style="stop-color:#00FFFF"/>
</linearGradient>
<path fill="url(#SVGID_14_)" d="M31.097,2.109c-0.876,0.079-1.579,0.145-2.109,0.198c-0.555,0.079-0.94,0.159-1.152,0.239
	C27.544,2.6,27.359,2.692,27.28,2.824c-0.107,0.053-0.174,0.119-0.199,0.199v0.12c-0.053,0.079-0.119,0.265-0.199,0.558
	c-0.052,0.316-0.12,0.621-0.198,0.914c-0.081,0.317-0.173,0.648-0.279,0.992c-0.053,0.158-0.099,0.294-0.139,0.406
	c1.38-0.029,2.982,0.02,4.691,0.227c0.171-0.498,0.572-0.753,1.213-0.753h6.777c-1.135-1.192-2.456-2.392-3.94-3.441
	C33.502,2.035,32.195,2.056,31.097,2.109z"/>
<linearGradient id="SVGID_15_" gradientUnits="userSpaceOnUse" x1="7.4731" y1="85.501" x2="25.1234" y2="75.333" gradientTransform="matrix(0.9985 0.0539 -0.0539 0.9985 4.1773 -0.7661)">
	<stop  offset="0.3505" style="stop-color:#FFE3A0"/>
	<stop  offset="1" style="stop-color:#00FFFF"/>
</linearGradient>
<path fill="url(#SVGID_15_)" d="M21.671,77.932c0.257-0.047,0.985-0.169,2.059-0.271c-0.36-0.541-0.743-1.084-1.147-1.625
	l-1.009,1.894C21.605,77.93,21.639,77.931,21.671,77.932z"/>
<linearGradient id="SVGID_16_" gradientUnits="userSpaceOnUse" x1="21.0386" y1="77.8438" x2="36.6843" y2="68.8306" gradientTransform="matrix(0.9988 -0.0481 0.0481 0.9988 -3.7534 1.4892)">
	<stop  offset="0.1781" style="stop-color:#FFE3A0"/>
	<stop  offset="1" style="stop-color:#00FFFF"/>
</linearGradient>
<path fill="url(#SVGID_16_)" d="M21.671,77.932c0.257-0.047,0.985-0.169,2.059-0.271c-0.36-0.541-0.743-1.084-1.147-1.625
	l-1.009,1.894C21.605,77.93,21.639,77.931,21.671,77.932z"/>
<linearGradient id="SVGID_17_" gradientUnits="userSpaceOnUse" x1="-871.5122" y1="23.1318" x2="-870.3046" y2="22.5455" gradientTransform="matrix(76.8596 0 0 27.9126 66963.3594 -560.2734)">
	<stop  offset="0.1429" style="stop-color:#000000"/>
	<stop  offset="0.4335" style="stop-color:#FFD400"/>
	<stop  offset="0.7488" style="stop-color:#FF0000"/>
</linearGradient>
<path fill="url(#SVGID_17_)" d="M21.561,77.952c0,0,0.043-0.009,0.11-0.021c-0.032-0.001-0.066-0.002-0.098-0.003L21.561,77.952z"/>
<linearGradient id="SVGID_18_" gradientUnits="userSpaceOnUse" x1="7.6089" y1="85.7363" x2="25.2592" y2="75.5683" gradientTransform="matrix(0.9985 0.0539 -0.0539 0.9985 4.1773 -0.7661)">
	<stop  offset="0.3505" style="stop-color:#FFE3A0"/>
	<stop  offset="1" style="stop-color:#00FFFF"/>
</linearGradient>
<path fill="url(#SVGID_18_)" d="M21.561,77.952c0,0,0.043-0.009,0.11-0.021c-0.032-0.001-0.066-0.002-0.098-0.003L21.561,77.952z"/>
<linearGradient id="SVGID_19_" gradientUnits="userSpaceOnUse" x1="21.0796" y1="77.915" x2="36.7253" y2="68.9018" gradientTransform="matrix(0.9988 -0.0481 0.0481 0.9988 -3.7534 1.4892)">
	<stop  offset="0.1781" style="stop-color:#FFE3A0"/>
	<stop  offset="1" style="stop-color:#00FFFF"/>
</linearGradient>
<path fill="url(#SVGID_19_)" d="M21.561,77.952c0,0,0.043-0.009,0.11-0.021c-0.032-0.001-0.066-0.002-0.098-0.003L21.561,77.952z"/>
<g>
	<g>
		<g>
			<g>
				<g>
					<g>
						<linearGradient id="SVGID_20_" gradientUnits="userSpaceOnUse" x1="72.2231" y1="-2.188" x2="2.7624" y2="23.0376">
							<stop  offset="0" style="stop-color:#BB925B"/>
							<stop  offset="0.3429" style="stop-color:#FFF6DA"/>
							<stop  offset="0.6571" style="stop-color:#FFF1B1"/>
							<stop  offset="1" style="stop-color:#B38B54"/>
						</linearGradient>
						<path fill="url(#SVGID_20_)" d="M34.282,3.05c3.721,0,8.91,0.222,15.459,0.663c2.535,0.08,4.6,0.133,6.135,0.159
							c1.486,0.026,2.629,0.039,3.395,0.039c0.017,0,0.033,0,0.049,0c1.039,0.035,1.317,0.087,1.362,0.097
							c0.072,0.016,0.146,0.024,0.22,0.024h0.439h0.167c0.026,0.038,0.055,0.074,0.086,0.108c0.185,0.205,0.495,0.761,0.495,2.19
							v1.405c-0.024,0.457-0.079,0.939-0.162,1.437c-0.082,0.191-0.131,0.372-0.148,0.547c-0.06,0.262-0.088,0.534-0.088,0.828
							c0,0.552,0.447,1,1,1h0.267c0.109,0.019,0.194,0.03,0.271,0.036c0.138,0.021,0.261,0.034,0.372,0.039l0.434,0.096
							c0.142,0.222,0.367,0.384,0.633,0.441c-0.026,0.01-0.052,0.021-0.077,0.034c-0.043,0.021-0.139,0.063-0.317,0.106
							c-0.43,0.051-0.765,0.185-1.011,0.398c-0.027,0.008-0.07,0.019-0.134,0.031c-0.091,0.006-0.171,0.012-0.24,0.016
							c-0.184-0.167-0.424-0.26-0.673-0.26h-0.16c-0.252,0-0.495,0.096-0.681,0.267c-0.228,0.211-0.311,0.471-0.341,0.669
							c-0.072,0.205-0.093,0.419-0.097,0.61c-0.021,0.122-0.052,0.264-0.089,0.429c-0.05,0.157-0.123,0.309-0.22,0.451
							c-0.017,0.024-0.032,0.05-0.046,0.076c-0.076,0.139-0.163,0.268-0.263,0.394c-0.076,0.038-0.131,0.043-0.173,0.043h-15.9
							c-0.363,0-0.731,0.107-1.126,0.329c-0.315,0.177-0.511,0.51-0.511,0.872v1.072c0,0.337-0.013,0.673-0.036,1.001
							c-0.008,0.101-0.041,0.211-0.1,0.33c-0.096,0.026-0.235,0.05-0.434,0.053c-0.423-0.049-0.868-0.073-1.359-0.075
							c-0.492-0.051-0.96-0.1-1.406-0.148c-0.512-0.106-0.941-0.173-1.311-0.204c-0.153-0.025-0.234-0.047-0.27-0.058
							c-0.16-0.099-0.342-0.148-0.525-0.148c-0.173,0-0.346,0.045-0.502,0.135c-0.21,0.122-0.472,0.297-0.812,0.543
							c-0.401,0.299-0.878,0.895-0.878,2.031v0.372c-0.039,0.049-0.133,0.163-0.341,0.395c-0.012,0.014-0.023,0.026-0.034,0.04
							c-0.362,0.451-0.539,0.877-0.539,1.303c0,0.2,0.015,0.382,0.045,0.553c0.002,0.034,0.005,0.067,0.009,0.102
							c-0.062,0.083-0.128,0.178-0.204,0.286c-0.303,0.394-0.493,0.882-0.567,1.457c-0.045-0.009-0.091-0.015-0.137-0.018
							c-0.386-0.021-0.779-0.096-1.169-0.226c-0.024-0.008-0.048-0.015-0.072-0.021c-0.462-0.116-0.873-0.265-1.255-0.457
							c-0.071-0.033-0.116-0.061-0.144-0.079c-0.02-0.062-0.046-0.121-0.078-0.178c0.105-1.227,0.274-2.436,0.496-3.575
							c0.274-1.163,0.878-2.152,1.844-3.024c0.148-0.134,0.253-0.31,0.301-0.504c0.021-0.086,0.053-0.191,0.096-0.317
							c0.017-0.052,0.03-0.104,0.039-0.158c0.037-0.223,0.054-0.418,0.054-0.599c0-0.626-0.386-1.16-1.155-1.593
							c-0.395-0.218-0.93-0.323-1.635-0.323c-0.709,0-1.488,0.165-2.364,0.497c-1.885,0.676-3.225,2.039-3.986,4.054
							c-0.3,0.196-0.447,0.248-0.487,0.261c-0.534,0.021-0.959,0.46-0.959,0.999v0.08c0,0.273,0.013,0.713,0.044,1.363
							c0.05,0.551,0.088,1.169,0.113,1.854c0,0.707,0.028,1.453,0.083,2.217c0.044,0.624,0.086,1.205,0.13,1.741
							c-0.004,0.003-0.007,0.007-0.011,0.01c-0.237,0.145-0.563,0.316-0.994,0.522c-0.479,0.191-1.084,0.4-1.799,0.623
							c-0.452,0.094-0.975,0.144-1.556,0.148c-0.124-1.841-0.208-3.516-0.254-5.014c-0.104-1.474-0.171-2.861-0.198-4.125
							c-0.027-1.259-0.04-1.967-0.04-2.125c0-0.292-0.127-0.569-0.349-0.76c-0.183-0.156-0.414-0.24-0.651-0.24
							c-0.051,0-0.102,0.004-0.153,0.012c-1.089,0.169-2.012,0.328-2.813,0.483c-1.255,0.234-1.636,0.385-1.86,0.512
							c-0.28,0.159-0.465,0.441-0.5,0.758c0,0.001-0.001,0.003-0.001,0.005c-0.067,0.178-0.106,0.328-0.12,0.469
							c-0.1,0.023-0.221,0.051-0.363,0.083c-0.217,0.024-0.416,0.059-0.597,0.101c-0.006-0.025-0.013-0.051-0.019-0.075
							c-0.086-0.337-0.341-0.604-0.673-0.708c-0.097-0.03-0.197-0.045-0.296-0.045c-0.239,0-0.474,0.086-0.659,0.248
							c-0.04,0.034-0.209,0.162-0.727,0.357c-0.543,0.154-1.144,0.332-1.809,0.537c-0.691,0.146-1.404,0.257-2.118,0.332
							c-0.04,0.004-0.078,0.01-0.117,0.019c-0.451,0.103-0.907,0.153-1.355,0.153c-0.119,0-0.237-0.003-0.356-0.011
							c-0.52-1.67-0.888-3.128-1.092-4.311c-0.179-1.32-0.269-2.438-0.269-3.323c0-2.123,0.33-2.72,0.431-2.853
							c0.011-0.014,0.021-0.028,0.031-0.043c0.316-0.464,0.484-0.654,0.553-0.724c0.281-0.169,0.474-0.502,0.743-0.979
							c0.177-0.259,0.345-0.502,0.502-0.73l0.104-0.151h6.167c0.176,0.273,0.401,0.579,0.679,0.919
							c0.389,0.456,0.673,0.733,0.921,0.899c0.165,0.11,0.358,0.169,0.556,0.169c0.306,0,0.626-0.094,1.55-0.621
							c0.477-0.288,0.928-0.632,1.344-1.026c1.128,0.091,2.324,0.15,3.545,0.175c1.304,0.053,2.49,0.094,3.577,0.12l2.736,0
							c1.166-0.037,1.567-0.126,1.839-0.259c0.223-0.109,0.397-0.297,0.49-0.527c0.058-0.143,0.142-0.387,0.265-0.753
							c0.112-0.361,0.208-0.708,0.291-1.031c0.088-0.329,0.156-0.643,0.209-0.956c0.045-0.162,0.073-0.239,0.084-0.268
							c0.022-0.038,0.042-0.077,0.058-0.116c0.005-0.001,0.009-0.002,0.014-0.003c0.059-0.011,0.117-0.027,0.173-0.048
							c0.05-0.019,0.264-0.087,0.897-0.179c0.528-0.053,1.228-0.119,2.059-0.194C32.066,3.072,33.112,3.05,34.282,3.05 M32.2,10.51
							h25.563c0.851,0,1.366-0.356,1.663-0.688c0.331-0.296,0.687-0.812,0.687-1.662V6.887c0-0.845-0.351-1.375-0.669-1.683
							c-0.294-0.338-0.813-0.709-1.683-0.709H32.2c-1.426,0-2.312,0.917-2.312,2.393v1.272C29.888,9.609,30.773,10.51,32.2,10.51
							 M74.965,11.645c0.256,0,0.508,0.006,0.754,0.018c0.174,0.009,0.325,0.016,0.454,0.022c0.011,0.044,0.023,0.104,0.035,0.182
							c0.015,0.115,0.006,0.25-0.027,0.402c-0.055,0.007-0.115,0.014-0.181,0.022c-0.467,0.025-0.995,0.051-1.588,0.077
							c-0.572,0.026-1.105,0.039-1.586,0.039c-0.282,0-0.425-0.022-0.482-0.035c-0.058-0.038-0.119-0.07-0.184-0.095
							c-0.085-0.053-0.177-0.092-0.274-0.117c-0.116-0.047-0.242-0.071-0.37-0.071h-0.42c0.036-0.006,0.072-0.015,0.106-0.025
							c0.194-0.057,0.354-0.113,0.489-0.173l0.229-0.058c0.066-0.017,0.13-0.04,0.19-0.069c0.053-0.012,0.203-0.039,0.547-0.059
							c0.443,0,0.957-0.014,1.526-0.04C74.449,11.651,74.708,11.645,74.965,11.645 M34.282,2.05c-1.191,0-2.244,0.022-3.155,0.066
							c-0.876,0.079-1.579,0.146-2.109,0.198c-0.555,0.079-0.94,0.158-1.152,0.238c-0.292,0.054-0.477,0.146-0.556,0.279
							c-0.107,0.051-0.174,0.118-0.199,0.198v0.12c-0.053,0.079-0.119,0.264-0.199,0.557c-0.052,0.317-0.12,0.621-0.198,0.914
							c-0.081,0.318-0.173,0.649-0.279,0.993c-0.107,0.317-0.185,0.544-0.238,0.677c-0.16,0.078-0.636,0.133-1.432,0.158
							c-0.716,0-1.618,0-2.704,0c-1.059-0.025-2.239-0.066-3.537-0.119c-1.326-0.027-2.598-0.093-3.816-0.199h-0.16
							c-0.45,0.477-0.941,0.873-1.47,1.192c-0.557,0.317-0.902,0.478-1.034,0.478c-0.159-0.106-0.398-0.344-0.716-0.717
							c-0.344-0.422-0.596-0.781-0.755-1.072V5.813H3.059v0.198C2.822,6.356,2.556,6.739,2.265,7.166
							C2.026,7.59,1.894,7.801,1.867,7.801C1.682,7.906,1.39,8.252,0.993,8.834c-0.425,0.557-0.636,1.711-0.636,3.459
							c0,0.926,0.092,2.08,0.278,3.457c0.238,1.379,0.662,3.021,1.272,4.93l0.159,0.08l0.119,0.121
							c0.297,0.038,0.593,0.057,0.89,0.057c0.525,0,1.05-0.06,1.575-0.178c0.769-0.08,1.524-0.199,2.266-0.357
							c0.69-0.213,1.311-0.396,1.87-0.555c0.504-0.188,0.861-0.371,1.073-0.557c0.027,0.105,0.053,0.223,0.08,0.355
							c0.08,0.107,0.172,0.199,0.278,0.277c0.054,0.105,0.133,0.225,0.239,0.357h0.119c0.213-0.131,0.557-0.225,1.034-0.275
							c0.478-0.107,0.756-0.174,0.835-0.201c0.237,0,0.357-0.252,0.357-0.756c0-0.051,0.026-0.145,0.08-0.277
							c0.027-0.105,0.04-0.172,0.04-0.197c0.186-0.105,0.703-0.24,1.551-0.398c0.822-0.16,1.75-0.318,2.782-0.479
							c0,0.16,0.013,0.875,0.04,2.146c0.027,1.273,0.093,2.664,0.2,4.174c0.052,1.75,0.159,3.725,0.317,5.924h0.12
							c0.251,0.013,0.495,0.02,0.729,0.02c0.707,0,1.337-0.06,1.894-0.18c0.769-0.238,1.419-0.463,1.948-0.676
							c0.504-0.24,0.901-0.449,1.193-0.635c0.238-0.213,0.384-0.318,0.438-0.318v-0.199c-0.054-0.635-0.106-1.338-0.16-2.107
							c-0.054-0.74-0.081-1.455-0.081-2.146c-0.026-0.715-0.064-1.361-0.118-1.945c-0.027-0.584-0.04-1.008-0.04-1.271v-0.08
							c0.265,0,0.663-0.186,1.192-0.557l0.08-0.039c0.636-1.908,1.801-3.168,3.498-3.776c0.77-0.292,1.444-0.438,2.027-0.438
							c0.531,0,0.915,0.068,1.153,0.199c0.425,0.239,0.637,0.479,0.637,0.717c0,0.133-0.015,0.279-0.041,0.438
							c-0.053,0.158-0.093,0.291-0.119,0.398c-1.113,1.004-1.828,2.184-2.147,3.537c-0.265,1.352-0.451,2.742-0.556,4.174
							l0.16,0.119c0.052,0.268,0.277,0.492,0.674,0.676c0.424,0.215,0.902,0.387,1.432,0.52c0.477,0.158,0.954,0.25,1.431,0.275
							c0.424,0.107,0.716,0.186,0.874,0.238h0.438l-0.158-0.238v-0.396c0-0.609,0.131-1.088,0.396-1.432
							c0.239-0.344,0.384-0.529,0.438-0.557h0.238l-0.238-0.318c-0.028-0.078-0.04-0.158-0.04-0.238
							c-0.028-0.131-0.041-0.277-0.041-0.438c0-0.186,0.106-0.412,0.318-0.676c0.238-0.266,0.384-0.439,0.438-0.518l0.158-0.08
							v-0.836c0-0.58,0.158-0.992,0.477-1.23c0.292-0.211,0.53-0.371,0.715-0.479c0.106,0.08,0.332,0.146,0.676,0.199
							c0.346,0.027,0.769,0.094,1.273,0.199c0.478,0.053,0.979,0.105,1.511,0.16c0.477,0,0.928,0.023,1.355,0.076
							c0.502,0,0.898-0.092,1.189-0.277c0.236-0.346,0.371-0.689,0.396-1.033c0.027-0.371,0.039-0.729,0.039-1.074v-1.072
							c0.24-0.135,0.451-0.201,0.637-0.201h15.9c0.291,0,0.568-0.092,0.836-0.277c0.186-0.213,0.342-0.436,0.475-0.676
							c0.16-0.237,0.279-0.489,0.357-0.754c0.055-0.239,0.096-0.437,0.121-0.598V14.08c0-0.211,0.027-0.344,0.08-0.396
							c0-0.107,0.012-0.174,0.039-0.199h0.16c0.186,0.186,0.303,0.277,0.357,0.277c0.08,0,0.305-0.014,0.676-0.039
							c0.318-0.053,0.529-0.133,0.637-0.238c0.105-0.107,0.291-0.172,0.557-0.197c0.24-0.055,0.439-0.121,0.596-0.199h6.48
							c0.025,0.027,0.064,0.039,0.119,0.039c0.025,0.053,0.08,0.08,0.16,0.08c0.156,0.133,0.502,0.199,1.031,0.199
							c0.504,0,1.049-0.014,1.631-0.04c0.609-0.026,1.152-0.053,1.631-0.079c0.449-0.055,0.701-0.08,0.754-0.08h0.121v-0.119
							c0.211-0.504,0.289-0.955,0.236-1.353c-0.051-0.345-0.133-0.582-0.236-0.713v-0.16l-0.279-0.159
							c-0.105,0-0.41-0.014-0.914-0.039c-0.265-0.013-0.533-0.019-0.805-0.019s-0.547,0.006-0.826,0.019
							c-0.555,0.025-1.061,0.039-1.51,0.039c-0.504,0.028-0.822,0.08-0.953,0.159l-0.32,0.081c-0.105,0.053-0.25,0.105-0.436,0.16
							c-0.16,0-0.293,0.025-0.398,0.078h-5.645v-0.078c-0.027-0.055-0.041-0.107-0.041-0.16c-0.027-0.027-0.041-0.055-0.041-0.081
							l-1.072-0.237c-0.105,0-0.238-0.014-0.396-0.039c-0.055,0-0.146-0.014-0.279-0.039c-0.105,0-0.225,0-0.357,0
							c0-0.24,0.025-0.465,0.08-0.678c0-0.105,0.039-0.238,0.119-0.398c0.107-0.609,0.172-1.18,0.199-1.709c0-0.504,0-0.979,0-1.432
							c0-1.35-0.25-2.305-0.754-2.861c-0.162-0.3-0.334-0.448-0.514-0.448c-0.028,0-0.056,0.004-0.084,0.011
							c-0.238,0-0.371,0-0.396,0c-0.057,0-0.199,0-0.439,0c-0.238-0.054-0.756-0.095-1.549-0.121c-0.795,0-1.949-0.013-3.459-0.039
							c-1.537-0.025-3.578-0.078-6.121-0.158C43.208,2.271,38.045,2.05,34.282,2.05L34.282,2.05z M32.2,9.51
							c-0.874,0-1.312-0.451-1.312-1.351V6.887c0-0.928,0.437-1.393,1.312-1.393H57.76c0.426,0,0.744,0.133,0.955,0.398
							c0.266,0.236,0.396,0.57,0.396,0.994v1.272c0,0.423-0.131,0.741-0.396,0.953c-0.211,0.265-0.529,0.397-0.953,0.397H32.2
							L32.2,9.51z"/>
					</g>
				</g>
			</g>
		</g>
	</g>
</g>
</svg>
