<?xml version="1.0" encoding="utf-8"?>
<!-- Generator: Adobe Illustrator 16.0.0, SVG Export Plug-In . SVG Version: 6.00 Build 0)  -->
<!DOCTYPE svg PUBLIC "-//W3C//DTD SVG 1.0//EN" "http://www.w3.org/TR/2001/REC-SVG-20010904/DTD/svg10.dtd">
<svg version="1.0" id="图层_1" xmlns="http://www.w3.org/2000/svg" xmlns:xlink="http://www.w3.org/1999/xlink" x="0px" y="0px"
	 width="84.8px" height="32px" viewBox="0 0 84.8 32" enable-background="new 0 0 84.8 32" xml:space="preserve">
<g id="Selected_Items">
	<g>
		<g id="Selected_Items_43_">
			<linearGradient id="SVGID_1_" gradientUnits="userSpaceOnUse" x1="0.688" y1="16.1245" x2="84.5879" y2="16.1245">
				<stop  offset="2.300000e-007" style="stop-color:#F8D27E"/>
				<stop  offset="1" style="stop-color:#B3751F"/>
			</linearGradient>
			<path fill="url(#SVGID_1_)" d="M20.6,7.5c4.6,0,9.1,0,13.7,0c0.1,0,0.2,0,0.2,0.1c0.1,0,0.1,0.1,0.1,0.1l0,0h0
				c0,0,0.1,0.1,0.1,0.1c0,0,0,0.1,0.1,0.1c0,0,0,0,0,0.1c0,0,0,0.1,0,0.1c0,0,0.1,0,0.1,0V8.1c0.1,0,0.2,0,0.3,0
				c0,0,0.1,0.1,0.2,0.1c0,0,0.1,0,0.1,0.1c16.2,0,32.4,0,48.6,0c0.1,0,0.2,0.1,0.2,0.1c0,0,0.1,0,0.1,0.1c0,0,0,0.1,0.1,0.1
				c0,0,0,0.1,0,0.1s0,0.1,0,0.1c0,0,0,0,0,0c0,0,0,0,0,0.1c0,0.1,0,0.1,0,0.1c0,0,0,0.1,0,0.1c0,0,0,0.1,0,0.1c0,0,0,0,0,0.1
				c0,0.1,0,0.1,0,0.1c0,0,0,0.1,0,0.1c0,0,0,0.1,0,0.1c0,0,0,0,0,0.1c0,0.1,0,0.1,0,0.1c0,0,0,0.1,0,0.1c0,0,0,0.1,0,0.1
				c0,0,0,0.1,0,0.1c0,0,0,0,0,0.1c0,0,0,0.1,0,0.1c0,0,0,0.1,0,0.1c0,0,0,0.1,0,0.1c0,0,0,0,0,0.1c0,0,0,0.1,0,0.1c0,0,0,0.1,0,0.1
				c0,0,0,0.1,0,0.1c0,0-0.1,0-0.1,0c0,0-0.1,0.1-0.1,0.1c0,0.1,0,0.1-0.1,0.1c-0.1,0-0.1,0.1-0.1,0.1c0,0,0,0.1,0,0.1
				c-0.1,0-0.2-0.1-0.2-0.1l0,0c-0.6,0-1.1,0-1.7,0c0,0,0,0.1,0,0.1c0,0,0,0,0,0.1c0,0,0,0,0,0.1c0,0,0,0.1,0,0.1v0c0,0,0,0,0,0.1
				c0,0,0,0.1,0,0.1v0c0,0,0,0,0,0.1l0,0c0.2,0,0.3,0,0.5,0v0c0,0,0-0.1,0-0.1c0.5,0,1,0,1.6,0c0,0,0,0,0,0.1c0,0,0,0.1,0,0.2
				c0,0,0,0.1,0,0.2c0,0,0,0.1,0,0.1c0,0,0,0.1,0,0.1c0,0,0,0.1,0,0.2c0,0,0,0.1,0,0.1c0,0.1,0,0.1,0,0.2c0,0,0,0.1,0,0.1
				c0,0,0,0.1,0,0.1c0,0.1,0,0.1,0,0.2c0,0,0,0.1,0,0.2v0c0,0,0,0,0,0.1v0.1c0,0,0,0,0,0.1v0.1c0,0,0,0.1,0,0.1v0.1c0,0,0,0.1,0,0.1
				v0.1c0,0,0,0,0,0.1v0.1c0,0,0,0,0,0.1v0.1c0,0,0,0,0,0.1v0.2c0,0,0,0,0,0.1v0.2c0,0,0,0,0,0.1c0,0,0,0.1,0,0.1c-0.5,0-1,0-1.5,0
				v0c-0.1,0-0.3,0-0.4,0c0,0,0,0,0,0c0,0-0.1,0-0.1,0c0,0,0,0.1-0.1,0.1c0,0,0,0,0,0.1c0,0,0,0,0,0.1c0,0,0,0.1,0,0.1
				c0,0,0,0,0,0.1c0,0,0,0-0.1,0.1c0,0,0,0.1-0.1,0.1c0,0,0,0,0,0c0,0,0,0,0,0.1c-0.1,0-0.1,0.1-0.1,0.1c0,0,0,0-0.1,0.1
				c0,0,0,0,0,0.1c0,0-0.1,0.1-0.1,0.1c0,0,0,0,0,0.1c0,0,0,0.1,0,0.1v0c0,0-0.1,0-0.1,0v0.1c0,0-0.1,0-0.2,0c0,0-0.1,0.1-0.1,0.1
				v0.1c-0.2,0-0.3,0-0.5,0v0c0,0,0,0.1,0,0.1V17c-7,0-14,0-20.9,0c0,0,0,0.1,0,0.1c0,0,0,0,0,0.1v0.1c-0.5,0-1.1,0-1.6,0
				c0,0,0,0,0-0.1s0-0.1,0-0.1v0c0,0,0,0,0-0.1s0,0,0-0.1c-0.1,0-0.1-0.1-0.2-0.1c-0.1,0-0.2,0-0.3-0.1v-0.1c-0.1,0-0.2,0-0.2-0.1
				c-0.1,0-0.1,0-0.2-0.1v-0.1c-0.1,0-0.2,0-0.3,0c-0.1,0-0.2-0.1-0.3-0.1c0,0,0,0,0-0.1c-3.5,0-6.9,0-10.4,0
				c-0.1,0-0.2-0.1-0.3-0.1c0,0-0.1,0-0.1-0.1c0,0-0.1,0-0.2-0.1c0,0-0.1-0.1-0.1-0.1c0,0-0.1,0-0.1-0.1c0-0.1,0-0.1,0-0.1
				s0-0.1,0-0.1s0-0.1,0-0.1c-0.8,0-1.6,0-2.4,0c0,0,0,0,0,0.1c0,0,0,0.1,0,0.1v0c0,0,0,0,0,0.1c0,0,0,0.1,0,0.1c0,0,0,0,0,0.1V16
				c-0.2,0-0.5,0-0.7,0v0.1c0,0,0,0,0,0.1s0,0,0,0.1c0,0,0,0.1,0,0.1s0,0,0,0.1v0c-0.5,0-1,0-1.6,0c0,0,0,0-0.1-0.1v0
				c0,0,0-0.1,0-0.1s0,0,0-0.1c0,0,0-0.1,0-0.1c-2.6,0-5.2,0-7.8,0h0c0,0-0.1,0-0.1,0.1c0,0-0.1,0-0.1,0c0,0-0.1,0-0.1,0
				c-0.1,0-0.1,0-0.1,0.1c0,0-0.1,0.1-0.2,0.1c0,0-0.1,0-0.1,0c-0.1,0-0.1,0-0.1,0c0,0-0.1,0-0.1,0.1c0,0,0,0.1-0.1,0.1
				c0,0-0.1,0-0.1,0.1c0,0,0,0-0.1,0c0,0,0,0,0,0c0,0-0.1,0-0.1,0c0,0-0.1,0.1-0.1,0.1v0.1c0,0-0.1,0-0.1,0c0,0,0,0.1,0,0.1V17
				c0,0-0.1,0-0.1,0h-0.1v0.2c-0.2,0-0.3,0-0.5,0h0c-0.1,0-0.2,0-0.3,0h0c0,0-0.1,0-0.1,0h-0.1c-0.1,0-0.2,0-0.3,0.1h0
				c-0.1,0-0.2,0-0.3,0h-0.1c0,0-0.1,0-0.1,0h0c0,0-0.1,0-0.1,0h0c0,0,0,0-0.1,0h0c-0.1,0-0.1,0-0.1,0h0c0,0,0,0,0,0.1h-0.1
				c0,0-0.1,0-0.1,0h0c-0.1,0-0.1,0-0.1,0h0c0,0-0.1,0-0.2,0h0c0,0,0,0-0.1,0h-0.1c0,0,0,0,0,0.1h0c0,0,0,0-0.1,0h0c0,0-0.1,0-0.1,0
				h0c0,0,0,0,0,0s-0.1,0-0.1,0h0c0,0,0,0-0.1,0h0c0,0-0.1,0-0.1,0.1h0c0,0,0,0-0.1,0h0l-0.1,0h0c0,0,0,0-0.1,0h0c0,0,0,0,0,0h-0.1
				c0,0,0,0-0.1,0.1h0c0,0,0,0,0,0c0,0-0.1,0-0.1,0h0c0,0,0,0,0,0h0c0,0,0,0,0,0H27c0,0,0,0,0,0h0c0,0,0,0-0.1,0.1c0,0-0.1,0-0.1,0
				h0c0,0,0,0,0,0h0c0,0,0,0,0,0c0,0-0.1,0-0.1,0c0,0,0,0,0,0.1h0c0,0,0,0,0,0c-0.1,0-0.1,0-0.1,0h0l-0.1,0.1v0h-0.1c0,0,0,0,0,0.1
				h0c0,0,0,0,0,0c0,0-0.1,0-0.1,0h0c0,0,0,0,0,0c0,0,0,0-0.1,0h0c0,0,0,0.1-0.1,0.1c0,0,0,0-0.1,0h0c0,0,0,0,0,0h-0.1c0,0,0,0,0,0
				h0c0,0,0,0,0,0h0c0,0,0,0,0,0h-0.1c0,0,0,0.1,0,0.1s0,0,0,0h0c0,0,0,0,0,0h-0.1L25,19.4c0,0,0,0,0,0.1h0c0,0-0.1,0-0.1,0h0
				c0,0,0,0,0,0c0,0,0,0,0,0h0c0,0,0,0,0,0c0,0-0.1,0-0.1,0.1h0c0,0,0,0,0,0c0,0,0,0,0,0h0c0,0-0.1,0-0.1,0h0c0,0,0,0,0,0h0v0
				c0,0,0,0,0,0.1h0c0,0-0.1,0-0.1,0h0c0,0,0,0,0,0h0L24,20c0,0,0,0-0.1,0.1c0,0,0,0,0,0s0,0,0,0h0l-0.1,0.1c0,0,0,0,0,0.1h0
				l-0.1,0.1c0,0,0,0,0,0h0c0,0,0,0,0,0.1h-0.1c0,0,0,0,0,0h0c0,0,0,0-0.1,0c0,0-0.1,0-0.1,0c0,0,0,0-0.1,0h0c0,0-0.1,0-0.1,0
				c0,0,0,0-0.1,0.1h0c0,0-0.1,0-0.1,0c0,0,0,0-0.1,0h0c0,0,0,0,0,0h0c-0.1,0-0.1,0-0.1,0h0c0,0,0,0,0,0.1h-0.1c0,0,0,0-0.1,0h0
				c0,0,0,0-0.1,0h-0.1c0,0-0.1,0-0.1,0h0c0,0-0.1,0-0.1,0c-0.1,0-0.2,0-0.3,0h0c-0.1,0-0.1,0-0.1,0.1h0c-0.1,0-0.1,0-0.2,0h0
				c-0.1,0-0.2,0-0.3,0h0c-0.4,0-0.7,0-1.1,0l0,0c-0.1,0-0.1,0-0.2,0v0c0,0-0.1,0-0.1,0l0-0.1c0,0-0.1,0-0.2,0l0,0
				c-0.1,0-0.1,0-0.2,0l0,0c0,0,0,0-0.1,0v0c-0.1,0-0.1,0-0.1,0l0,0c0,0-0.1,0-0.1,0l0,0c0,0-0.1,0-0.1,0l0-0.1c0,0-0.1,0-0.1,0v0
				c0,0-0.1,0-0.1,0l-0.1,0h0l0,0c0,0,0,0-0.1,0l0,0h-0.1l0-0.1c0,0,0,0-0.1,0v0c0,0-0.1,0-0.1,0l0,0c0,0,0,0-0.1,0l0,0
				c0,0-0.1,0-0.1,0v0h0l-0.1-0.1h0v0c0,0-0.1,0-0.1,0v0h0v0h0v0h0v-0.1h0v0h-0.1v0l0,0h0L16.9,20v0h0v0l-0.1-0.1v-0.1h0v0h0v0
				l-0.1-0.1v0l-0.1-0.1v0h0v0l-0.1,0v-0.1l0,0h0v0l0,0v0l0-0.1v0c0,0-0.1,0-0.1,0v0L16.2,19V19l0,0c0,0,0,0,0,0v-0.1L16,18.7v0l0,0
				v0l-0.1-0.1v0l0,0h-0.1v-0.1l0-0.1v0l0,0v0l-0.1-0.1v-0.1L15.5,18v-0.1l0,0v0c0,0-0.1,0-0.1,0l-0.3-0.3v0h0v-0.1c0,0,0,0,0,0H15
				l-0.1-0.1c0,0,0,0,0,0v0L14.7,17c-0.2,0-0.4,0-0.6,0c0,0,0,0-0.1,0c-0.2,0-0.4,0.1-0.6,0.1c0,0-0.1,0-0.1,0.1c0,0-0.1,0-0.1,0
				c0,0,0,0,0-0.1c0-0.1,0-0.1,0-0.1c0,0,0-0.1,0-0.1h0v0l0,0c-0.1,0-0.1,0-0.2,0c-0.1,0-0.1,0.1-0.2,0.1c0,0,0,0-0.1,0.1
				c0,0-0.1,0-0.1,0l0,0c0,0-0.1,0-0.1,0.1c0,0-0.1,0-0.1,0.1l-0.1,0.1c0,0-0.1,0-0.2,0c0,0,0,0.1-0.1,0.1c0,0,0,0,0,0l-0.1,0
				c0,0-0.1,0-0.1,0c0,0-0.1,0.1-0.1,0.1v0c0,0-0.1,0-0.2,0c0,0-0.1,0-0.1,0.1V18c0,0-0.1,0-0.2,0c-0.1,0-0.1,0-0.2,0.1
				c0,0-0.1,0.1-0.1,0.1c0,0,0,0,0,0l0,0c-0.1,0-0.1,0-0.1,0s0,0-0.1,0.1l-0.1,0.1c-0.1,0-0.1,0-0.2,0v0l0,0c-0.1,0-0.1,0.1-0.2,0.1
				c0,0,0,0-0.1,0.1c0,0-0.1,0-0.1,0.1c0,0.1,0,0.1,0,0.1c0,0,0,0-0.1,0c0,0,0,0-0.1,0.1c-0.1,0.1-0.1,0.1-0.2,0.2
				c-0.1,0-0.2,0.1-0.2,0.1l0,0c0,0,0,0,0,0.1c0,0-0.1,0-0.1,0c0,0,0,0-0.1,0c0,0,0,0.1-0.1,0.1c0,0,0,0-0.1,0.1c0,0,0,0.1-0.1,0.1
				c0,0-0.1,0-0.1,0.1c0,0,0,0-0.1,0.1c0,0,0,0.1,0,0.1c0,0,0,0-0.1,0.1c0,0-0.1,0-0.1,0C9.1,20,9,20,9,20c0,0-0.1,0.1-0.1,0.1
				c0,0,0,0,0,0.1c0,0,0,0.1-0.1,0.1v0.1c-0.1,0-0.1,0-0.1,0c0,0,0,0.1-0.1,0.1v0.1c0,0-0.1,0-0.1,0c0,0,0,0-0.1,0.1
				c0,0,0,0.1-0.1,0.1c0,0-0.1,0-0.1,0.1c0,0,0,0.1,0,0.1c0,0,0,0,0,0c0,0,0,0,0,0.1S8.1,21,8,21.1c0,0,0,0.1,0,0.1c0,0,0,0-0.1,0.1
				c0,0-0.1,0.1-0.1,0.1c0,0,0,0,0,0.1c0,0,0,0-0.1,0.1c0,0-0.1,0-0.1,0c0,0,0,0.1,0,0.1c0,0,0,0-0.1,0.1c0,0,0,0.1,0,0.1
				c0,0-0.1,0-0.1,0.1c0,0,0,0-0.1,0.1c0,0,0,0.1-0.1,0.1c0,0,0,0,0,0.1s0,0-0.1,0c0,0,0,0.1,0,0.1c0,0-0.1,0-0.1,0.1c0,0,0,0,0,0.1
				s0,0.1-0.1,0.1c0,0,0,0,0,0.1c0,0,0,0,0,0.1v0.1c0,0-0.1,0-0.1,0c0,0,0,0,0,0.1c0,0-0.1,0-0.1,0.1c0,0,0,0.1,0,0.1c0,0,0,0,0,0.1
				c0,0,0,0.1,0,0.1c0,0,0,0,0,0c0,0,0,0-0.1,0.1c0,0,0,0.1,0,0.1c0,0,0,0,0,0.1v0.1c0,0-0.1,0-0.1,0c0,0,0,0.1,0,0.1c0,0,0,0,0,0.1
				v0.1c-0.1,0-0.1,0-0.1,0c0,0,0,0,0,0.1c0,0,0,0,0,0.1c0,0,0,0.1,0,0.1c0,0-0.1,0-0.1,0.1c0,0,0,0-0.1,0c0,0,0,0.1,0,0.1
				c0,0,0,0-0.1,0.1c0,0,0,0,0,0.1c0,0,0,0.1,0,0.1c0,0,0,0,0,0.1c0,0,0,0.1,0,0.1c0,0,0,0,0,0.1v0c-0.1,0-0.1,0-0.1,0
				c0,0,0,0,0,0.1c0,0,0,0.1,0,0.1v0c-0.5,0-1.1,0-1.6,0c-0.1,0-0.1-0.1-0.2-0.1v-0.1c-0.1,0-0.1,0-0.1,0c-0.1,0-0.1,0-0.2-0.1
				c0,0,0-0.1,0-0.1l0,0c-0.1,0-0.2,0-0.2-0.1v-0.1c-0.1,0-0.1,0-0.2,0c0,0,0,0-0.1-0.1L3.2,24c0,0,0,0-0.1,0c0,0-0.1,0-0.2-0.1
				c0,0,0-0.1,0-0.1c0,0-0.1,0-0.1,0c0,0,0,0,0-0.1c0,0-0.1,0-0.1-0.1c0,0-0.1-0.1-0.1-0.1c0,0-0.1,0-0.1-0.1c0,0,0-0.1-0.1-0.1
				c0,0-0.1,0-0.1-0.1c0,0,0,0,0-0.1c0,0-0.1,0-0.1,0c0,0,0-0.1,0-0.1c0,0-0.1,0-0.1-0.1v0c0,0-0.1-0.1-0.1-0.1c0,0,0,0-0.1-0.1
				c0,0-0.1,0-0.1,0c0,0,0-0.1,0-0.1c0,0,0,0-0.1-0.1c-0.1,0-0.1,0-0.1-0.1c0,0,0-0.1,0-0.1c0,0-0.1,0-0.1-0.1c0,0,0-0.1-0.1-0.1
				c0,0,0,0,0-0.1l0,0c-0.1,0-0.1,0-0.1-0.1c0,0,0-0.1,0-0.1l0,0c-0.1,0-0.1,0-0.1-0.1c0,0,0-0.1,0-0.1c0,0,0,0,0,0c0,0,0,0,0-0.1
				c0,0,0-0.1,0-0.1c0,0-0.1,0-0.1,0c0,0,0,0,0-0.1c0,0,0-0.1,0-0.1v0c0,0-0.1,0-0.1-0.1c0,0,0,0,0-0.1v-0.1c0,0,0,0,0-0.1
				c0,0,0,0,0-0.1c0,0,0-0.1,0-0.1c0,0,0,0,0-0.1s0,0,0-0.1c0,0,0-0.1,0-0.1s0,0,0-0.1v0c0,0,0-0.1,0-0.1c0,0,0,0,0-0.1s0,0,0-0.1
				c0-0.1,0-0.1,0-0.2c0,0,0-0.1,0-0.1c0,0,0,0,0-0.1v0c0,0,0,0,0-0.1c0,0,0-0.1,0-0.1s0,0,0-0.1c0,0,0-0.1,0-0.1c0,0,0-0.1,0-0.1
				c0,0,0-0.1,0-0.1c0,0,0,0,0.1,0v0c0-0.1,0-0.3,0-0.4c0-0.1,0-0.3,0-0.4c0-0.2,0-0.3,0-0.4c0-0.2,0-0.3,0-0.4c0-0.2,0-0.3,0-0.5
				c0-0.1,0-0.3,0-0.4c0-0.2,0-0.3,0-0.4c0-0.2,0-0.3,0-0.4c0-0.2,0-0.3,0-0.5c0-0.1,0-0.2,0-0.4c0-0.1,0-0.3,0-0.4c0,0,0,0,0-0.1
				c0,0,0,0-0.1,0c0,0,0,0,0-0.1v-0.1c0,0,0,0,0-0.1c0,0,0,0,0-0.1c0,0,0-0.1,0-0.1c0,0,0,0,0-0.1c0,0,0,0,0-0.1c0,0,0-0.1,0-0.1
				s0,0,0-0.1v0c0,0,0-0.1,0-0.1c0,0,0,0,0-0.1c0,0,0,0,0-0.1c0,0,0-0.1,0-0.1s0,0,0-0.1c0,0,0-0.1,0-0.1c0,0,0,0,0-0.1v0
				c0,0,0,0,0-0.1c0,0,0-0.1,0-0.1c0,0,0,0,0-0.1c0-0.1,0-0.1,0-0.1c0.5,0,1.1,0,1.6,0c0,0,0,0.1,0,0.1c0,0,0.1,0,0.1,0.1
				c0,0,0.1,0,0.1,0c0,0,0,0.1,0,0.1c0,0,0.1,0,0.1,0.1c0.1,0,0.1,0,0.2,0c0,0,0,0,0,0.1c0,0,0,0.1,0.1,0.1c0,0,0.1,0,0.2,0
				c0,0,0,0,0,0.1c0.1,0,0.1,0.1,0.2,0.1c0.1,0,0.1,0,0.2,0c0,0,0,0,0,0.1c0.1,0,0.2,0.1,0.2,0.1c0.1,0,0.3,0,0.4,0c0,0,0,0,0,0.1
				c0.1,0,0.2,0.1,0.3,0.1c0.4,0,0.7,0,1.1,0c0.1,0,0.2-0.1,0.3-0.1c0,0,0.1,0,0.1-0.1h0c0.1,0,0.3,0,0.4,0c0.1,0,0.2-0.1,0.3-0.1
				c0,0,0,0,0-0.1h0c0.1,0,0.3,0,0.4,0c0.1,0,0.3-0.1,0.4-0.1c0,0,0,0,0-0.1c0.1,0,0.3,0,0.4,0c0.1,0,0.1-0.1,0.2-0.1c0,0,0,0,0-0.1
				h0c0.1,0,0.1,0,0.2,0c0.1,0,0.2,0,0.3-0.1c0,0,0-0.1,0-0.1h0.1c0,0,0.1,0,0.1,0c0.1,0,0.2,0,0.4-0.1c0,0,0-0.1,0-0.1h0
				c0.1,0,0.1,0,0.2,0c0.1,0,0.2,0,0.3-0.1c0,0,0-0.1,0-0.1c0.1,0,0.2,0,0.3,0c0.1,0,0.1,0,0.2-0.1c0,0,0-0.1,0-0.1c0,0,0.1,0,0.2,0
				c0,0,0.1,0,0.2-0.1c0,0,0-0.1,0-0.1c0.1,0,0.2,0,0.3,0c0,0,0.1,0,0.2-0.1c0,0,0,0,0-0.1h0c0,0,0.1-0.1,0.1-0.1
				c0.1,0,0.1,0,0.1-0.1c0,0,0,0,0.1-0.1c0,0,0.1-0.1,0.1-0.1v0c0.1,0,0.1,0,0.2,0c0,0,0,0,0.1-0.1l0.1-0.1c0,0,0.1,0,0.2,0
				c0,0,0,0,0-0.1c0,0,0.1,0,0.1,0c0,0,0.1-0.1,0.1-0.1c0,0,0,0,0-0.1h0c0,0,0.1,0,0.2,0c0,0,0.1-0.1,0.1-0.1c0,0,0.1,0,0.1-0.1
				c0,0,0,0,0.1,0v0c0.1,0,0.1-0.1,0.2-0.1c0,0,0,0,0-0.1h0c0,0,0.1,0,0.1,0c0.1,0,0.1,0,0.2-0.1c0,0,0-0.1,0-0.1h0c0,0,0.1,0,0.2,0
				c0,0,0,0,0.1-0.1c0,0,0-0.1,0.1-0.1c0,0,0.1,0,0.1,0v0c0,0,0.1,0,0.1,0c0,0,0-0.1,0-0.1h0.1c0,0,0.1,0,0.1,0c0.1,0,0.1,0,0.1-0.1
				c0,0,0-0.1,0-0.1h0c0,0,0.1,0,0.2,0c0,0,0,0,0.1-0.1c0,0,0,0,0-0.1c0.1,0,0.1-0.1,0.2-0.1c0.1,0,0.1,0,0.2-0.1c0,0,0,0,0-0.1h0
				c0,0,0.1-0.1,0.1-0.1c0,0,0.1-0.1,0.2-0.1c0,0,0,0,0-0.1c0.1,0,0.1-0.1,0.2-0.1c0,0,0.1,0,0.2-0.1c0,0,0,0,0-0.1h0
				c0,0,0.1,0,0.2,0c0,0,0.1-0.1,0.1-0.1c0,0,0,0,0-0.1c0.1,0,0.2,0,0.2,0c0.1,0,0.1-0.1,0.2-0.1c0,0,0,0,0-0.1h0.1c0,0,0.1,0,0.2,0
				c0.1,0,0.1-0.1,0.2-0.1c0,0,0,0,0-0.1c0.1,0,0.2,0,0.4,0c0,0,0.1-0.1,0.2-0.1c0,0,0,0,0-0.1h0c0,0,0.1,0,0.2,0c0,0,0.1,0,0.2-0.1
				c0,0,0-0.1,0-0.1h0c0,0,0.1,0,0.1,0c0.1,0,0.1,0,0.1-0.1c0,0,0-0.1,0-0.1h0c0.1,0,0.2,0,0.2,0h0.1c0,0,0,0,0-0.1c0,0,0-0.1,0-0.1
				c0.1,0,0.1,0,0.3,0c0,0,0.1,0,0.2,0c0,0,0,0,0.1,0c0,0,0,0,0.1,0V8.1h0.1c0,0,0,0,0.1-0.1c0.2,0,0.3,0,0.5-0.1
				c0-0.1,0.1-0.1,0.1-0.1c0.2,0,0.4,0,0.7-0.1c0-0.1,0-0.1,0.1-0.1C20.4,7.6,20.5,7.6,20.6,7.5C20.6,7.5,20.6,7.5,20.6,7.5z
				 M19.8,17.1L19.8,17.1L19.8,17.1l0,0.1c0,0,0,0,0,0v0h-0.1v0.1c0,0,0,0,0,0v0l0,0v0.1l0,0.1v0.1h0v0c0,0,0,0,0,0v0.1l-0.1,0v0.1
				h0V18h0v0.2h0v0.1c0,0,0,0,0,0v0.2c0,0-0.1,0-0.1,0v0.2h0V19l0,0v0.6c-0.2,0-0.4,0-0.6,0v0h0v-0.1l0,0v-0.1h0v0l0-0.1v-0.1h0
				v-0.1l-0.1-0.1v-0.1l0,0v-0.2l0,0v-0.2l0,0v0c0-0.1,0-0.1,0-0.1c0,0,0-0.1,0-0.1c0-0.1,0-0.1,0-0.1c0,0,0-0.1,0-0.1
				c0-0.1,0-0.1,0-0.1s0,0,0-0.1c0,0,0-0.1,0-0.1c0,0,0,0,0-0.1c0,0,0,0,0-0.1c0-0.1,0-0.1,0-0.1c0,0,0,0,0-0.1c0,0,0-0.1,0-0.1
				s0,0,0-0.1v0h0l-0.1,0c0,0,0,0,0,0L18,17.6v0l-0.2,0.2v0l0,0v0.1L17.7,18v0l0,0v0.1l0,0.1v0.2l0,0.1v0.3l0,0v0.2l0,0V19l0,0v0.1
				l0.1,0v0.1l0,0v0l0.1,0.1v0.1h0l0.1,0.1v0h0l0.1,0.1h0v0h0l0,0h0l0.1,0h0v0.1h0l0,0h0l0,0c0,0,0.1,0,0.1,0v0c0,0,0,0,0.1,0v0h0
				l0.1,0.1h0c0.1,0,0.1,0,0.2,0v0h0v0h0v0h0v0h0v0c0.1,0,0.1,0,0.2,0l0,0.1c0,0,0.1,0,0.1,0l0,0c0,0,0.1,0,0.1,0v0c0,0,0.1,0,0.1,0
				l0,0h0l0,0c0.2,0,0.4,0,0.6,0v0.1c0.1,0,0.3,0,0.4,0v-0.1c0,0,0.1,0,0.1,0v0c0.1,0,0.2,0,0.4,0v0c0,0,0.1,0,0.1,0v0
				c0,0,0.1,0,0.1,0v0c0,0,0.1,0,0.1,0v-0.1c0,0,0.1,0,0.1,0v0h0v0c0,0,0.1,0,0.1,0l0,0c0,0,0,0,0.1,0v0c0,0,0.1,0,0.1,0v0
				c0,0,0.1,0,0.1,0l0.1-0.1c0,0,0,0,0.1,0v0c0,0,0,0,0.1,0l0,0c0,0,0.1,0,0.1,0v0l0.1-0.1c0,0,0.1,0,0.1,0l0.1-0.1h0c0,0,0,0,0,0
				l0.1,0c0,0,0,0,0.1,0v-0.1c0,0,0,0,0,0c0,0,0.1,0,0.1,0v0l0.1-0.1c0,0,0,0,0.1,0c0,0,0-0.1,0.1-0.1c0,0,0,0,0,0l0,0h0l0,0h0.1
				l0,0v-0.1c0,0,0,0,0,0v0h0v0c0,0,0,0,0,0v-0.2h0v0l0.1,0v-0.1h0v0c0,0,0,0,0,0v0c0,0,0,0,0,0v0l0-0.1c0,0,0,0,0.1,0v-0.1h0v-0.2
				c0,0,0,0,0,0v-0.1l-0.1,0V18c0,0,0-0.1,0-0.1v-0.1l0,0v0l0,0v-0.1l0,0v0l-0.1,0v0l-0.2-0.2v0l-0.1-0.1h0l0,0v0h0l-0.1-0.1
				c0,0,0,0-0.1,0L23.1,17c0,0-0.1,0-0.1,0C21.9,17,20.9,17,19.8,17.1C19.8,17,19.8,17,19.8,17.1C19.8,17.1,19.8,17.1,19.8,17.1z
				 M19.1,20C19.1,19.9,19.1,19.9,19.1,20c0.1-0.1,0.1-0.1,0.2-0.1C19.2,19.9,19.1,19.9,19.1,20z M2.3,19.4
				C2.3,19.3,2.3,19.3,2.3,19.4c0.1-0.1,0.1-0.1,0.1-0.1c0,0,0,0-0.1,0V19.4C2.3,19.3,2.3,19.3,2.3,19.4z"/>
		</g>
	</g>
</g>
<g id="guides">
</g>
<linearGradient id="SVGID_2_" gradientUnits="userSpaceOnUse" x1="13.4009" y1="224.8896" x2="23.1398" y2="224.8896" gradientTransform="matrix(6.6522 0 0 -6.6522 -88.3615 1510.3433)">
	<stop  offset="2.300000e-007" style="stop-color:#EDF3CB"/>
	<stop  offset="1" style="stop-color:#F8D27E"/>
</linearGradient>
<path opacity="0.5" fill="url(#SVGID_2_)" enable-background="new    " d="M0.7,20.9c0,0,1,0.3,2.9,0.2c2.4-0.1,4.6-0.6,6.5-2.7
	c0,0-5.2,2.5-6.5-0.1c0,0,10.3,0.4,16.8-4.2c0,0-6.1,1.6-8.7,0.3c0,0,1,0,6.6-1c3.8-0.5,3.6-1.1,8.2-2.5c10.4-1.1,19.1,1.5,22.7,5.5
	c0,0,0.2-4.9-6.7-6.5c0,0,16,0.7,23.2,4.8c0,0-4.9-6-19.6-6.4L35.6,8.2L35,8.1l-1.2-0.5L20.6,7.5L14,10.8l-4.2,2.3l-0.7,0.1
	l-4.7,1.2l-2.1-1.2l-1.6,0V20.9z"/>
<path opacity="0.7" fill="#7A4621" d="M57.3,10c0,0-3.6,0.8-6.5,5.5c0,0,2.4,1.2,1.6,2.1c-0.8,0.9-4.5-0.4-11,7.1
	c0,0,2.6-1.4,6.2-1.7c3.5-0.3-1,2.5-2,3.2c0,0,6.6-3.9,8.4-3.5c1.8,0.4-6.6,5.9-10.2,7.9c0,0,11-4.3,12.4-4c1.3,0.2-0.7,2.6-3.8,4
	c0,0,6.3,0,10.6-2.2c4.2-2.2,5.1-2.5,5.1-1.3c0,0,3.7-2.7,2.6-3.7c-1.1-1,2.7-2.2,5.4-4.5c2.7-2.3,3.7-3.7,3.7-3.7s-6.3,3.2-8.2,3.4
	c-1.9,0.2,1.3-3.1,4.7-4.8c3.4-1.7,4.5-5,4.5-5s-4.7,0.2-10.8,3.7c-6.1,3.5-6.8,4.7-6.3,2.6c0.5-2.1,6.1-5.2,6.1-5.2
	s-7.8,0.2-11.3,3.4c-3.6,3.2-2.5-0.7-1.7-1.5C57.5,10.8,57.3,10,57.3,10z"/>
<g>
	<path fill="#FBF1C8" d="M47.9,23.5l-1.4,3h-2.9l6.7-13.2h3.2l1.9,13.2h-2.8l-0.3-3H47.9z M51.4,16.2L49.1,21h2.8L51.4,16.2z"/>
	<path fill="#FBF1C8" d="M59.5,26.5c-0.8,0-1.4-0.2-1.8-0.7c-0.4-0.5-0.6-1.2-0.4-1.9l1.5-8.1c0.1-0.8,0.5-1.4,1-1.8
		c0.6-0.5,1.2-0.7,2-0.7H66c0.8,0,1.4,0.3,1.8,0.8s0.6,1.2,0.4,1.9l-0.4,2h-2.7l0.3-1.7c0-0.2,0-0.3,0-0.4c-0.1-0.1-0.2-0.1-0.4-0.1
		h-2.9c-0.5,0-0.8,0.2-0.9,0.7L60,23.5c0,0.2,0,0.3,0,0.4c0.1,0.1,0.2,0.1,0.4,0.1h2.9c0.5,0,0.8-0.2,0.8-0.7l0.3-1.5h2.7L66.8,24
		c-0.1,0.8-0.5,1.4-1,1.8c-0.6,0.5-1.2,0.7-2,0.7H59.5z"/>
	<path fill="#FBF1C8" d="M79.7,13.3l-0.5,2.5h-6.1l-0.5,2.7h4.9L77.1,21h-4.9l-0.5,3h6.1l-0.5,2.5h-8.8l2.4-13.2H79.7z"/>
</g>
</svg>
