<?xml version="1.0" encoding="utf-8"?>
<!-- Generator: Adobe Illustrator 16.0.0, SVG Export Plug-In . SVG Version: 6.00 Build 0)  -->
<!DOCTYPE svg PUBLIC "-//W3C//DTD SVG 1.0//EN" "http://www.w3.org/TR/2001/REC-SVG-20010904/DTD/svg10.dtd">
<svg version="1.0" id="图层_1" xmlns="http://www.w3.org/2000/svg" xmlns:xlink="http://www.w3.org/1999/xlink" x="0px" y="0px"
	 width="98px" height="32px" viewBox="0 0 98 32" enable-background="new 0 0 98 32" xml:space="preserve">
<g id="Selected_Items">
	<g>
		<g id="Selected_Items_44_">
			<linearGradient id="SVGID_1_" gradientUnits="userSpaceOnUse" x1="0.499" y1="15.8994" x2="96.8867" y2="15.8994">
				<stop  offset="2.300000e-007" style="stop-color:#F8D27E"/>
				<stop  offset="1" style="stop-color:#B3751F"/>
			</linearGradient>
			<path fill="url(#SVGID_1_)" d="M96.9,14.2c0,0,0,0.1,0,0.1v0c0,0,0,0.1,0,0.1c0,0,0,0,0,0.1c0,0,0,0,0,0.1c0,0,0,0.1,0,0.1v0
				c0,0,0,0.1,0,0.1c0,0,0,0,0,0.1c0,0,0,0,0,0.1c0,0,0,0,0,0.1c0,0,0,0,0,0.1v0.1c-0.1,0-0.1,0-0.2,0c-1.2,0-2.4,0-3.5,0v0.1
				c-0.1,0-0.3,0-0.4,0v-0.1c-1.7,0-3.3,0-5,0c0,0,0,0.1,0,0.1c0,0,0,0.1,0,0.1c0,0,0,0.1,0,0.1v0c-0.1,0-0.1,0-0.2,0v-0.1
				c0,0-0.1,0-0.1,0v0c0,0,0,0,0-0.1v0c0,0,0-0.1,0-0.1c-0.1,0-0.3,0-0.5,0v0.1c-0.1,0-0.1,0-0.2,0v-0.1c-0.1,0-0.3,0-0.5,0
				c0,0,0,0.1,0,0.1v0.1c0,0,0,0.1,0,0.1c0,0-0.1,0-0.2,0c0,0-0.1,0-0.1,0v0c-0.1,0-0.1,0-0.2,0v0c0,0,0-0.1,0-0.1c0,0,0-0.1,0-0.1
				c0,0,0-0.1,0-0.1c0,0,0-0.1,0-0.1c-3,0-5.9,0-8.8,0c0,0,0,0,0,0c0,0,0,0,0,0c0,0,0,0-0.1,0h-0.1v0.3c-0.1,0-0.2,0-0.3,0
				c-4.5,0-8.9,0-13.4,0v0.4c0,0,0,0-0.1,0v0.6c0,0,0.1,0,0.1,0v0.3c0,0-0.1,0-0.1,0l0,0h0c0,0,0,0,0,0v0c0,0,0,0,0,0
				c-0.1,0-0.3,0-0.4,0v0.1c-0.1,0-0.2,0-0.4,0v-0.3c-0.2,0-0.5,0-0.7,0v0.3c-0.1,0-0.2,0-0.3,0v-0.3c-0.1,0-0.3,0-0.5,0v0.3
				c-0.1,0-0.3,0-0.4,0v-0.3c-0.2,0-0.4,0-0.6,0v0.3c-0.1,0-0.3,0-0.4,0v-0.3c-0.2,0-0.3,0-0.5,0v0.3c-0.1,0-0.3,0-0.4,0v-0.3
				c-0.2,0-0.4,0-0.6,0v0.3c-0.1,0-0.2,0-0.3,0v-0.3h-0.2c-0.1,0-0.2,0-0.3,0v0.3c-0.1,0-0.2,0-0.3,0v-0.3c-0.2,0-0.4,0-0.6,0v0.3
				c-0.1,0-0.2,0-0.3,0v-0.3c-0.1,0-0.3,0-0.5,0v0.3c-0.1,0-0.3,0-0.4,0v-0.3c-0.2,0-0.3,0-0.5,0v0.3c-0.1,0-0.3,0-0.4,0v-0.3
				c-0.2,0-0.3,0-0.5,0v0.2c-0.1,0-0.2,0-0.3,0v-0.2c-0.2,0-0.3,0-0.5,0v0.3c-0.1,0-0.2,0-0.3,0v-0.3c-0.1,0-0.3,0-0.5,0v0.3
				c-0.1,0-0.2,0-0.3,0v-0.3c-0.2,0-0.4,0-0.6,0v0.2c-0.1,0-0.3,0-0.4,0v-0.2c-0.1,0-0.3,0-0.5,0v0.3c-0.1,0-0.2,0-0.3,0v-0.3
				c-0.2,0-0.4,0-0.6,0v0.3c-0.4,0-0.8,0-1.2,0v-0.3c-0.1,0-0.3,0-0.4,0v0.1l0,0v0l0,0v0.1c0,0,0,0,0,0c0,0,0,0,0,0h0
				c-0.1,0-0.2,0-0.3,0c-0.1,0-0.1,0-0.2,0c0,0-0.1,0-0.1,0l0,0c0,0-0.1,0-0.1,0l0,0h0c-0.1,0-0.1,0-0.2,0c-0.1,0-0.1,0-0.1,0l0,0v0
				c0,0,0,0-0.1,0l-0.1,0c0,0,0,0,0,0l-0.1,0.1h0c0,0,0,0,0,0v0.1l0,0h0v0c0,0,0,0,0,0.1v0c0,0,0,0,0,0.1v0.5c0,0,0,0,0,0.1
				c0,0.1,0,0.1,0,0.1c0,0,0,0.1,0,0.1v0.1c0,0,0,0.1,0,0.1c0,0,0,0.1,0,0.1c0,0.1,0,0.1,0,0.1c0,0,0,0.1,0,0.1c0,0,0,0,0,0.1v0
				l0.1,0.1h0c0,0,0,0,0.1,0c0,0,0,0,0,0l0,0c0,0,0,0,0,0v0.7h0c0,0,0,0,0,0v0h0c-0.1,0-0.2,0-0.3,0v0.1c0,0-0.1,0-0.1,0
				c0,0,0,0-0.1,0v0c0,0.1,0,0.1,0,0.2s0,0.1,0,0.2c0,0,0,0.1,0,0.2c0,0.1,0,0.2,0,0.2c0,0.1,0,0.1,0,0.2c0,0.1,0,0.1,0,0.2
				c0,0.1,0,0.1,0,0.2c0,0.1,0,0.1,0,0.2c0,0.1,0,0.1,0,0.2c0,0.1,0,0.2,0,0.3c0,0,0,0.1,0,0.2c0,0.1,0,0.1,0,0.2c0,0.1,0,0.1,0,0.2
				c0,0.1,0,0.1,0,0.2s0,0.1,0,0.2c0,0,0,0.1,0,0.2c0,0.1,0,0.2,0,0.2c0,0.1,0,0.1,0,0.2s0,0.1,0,0.2c0,0.1,0,0.1,0,0.2
				c0,0,0,0.1,0,0.2c0,0.1,0,0.1,0,0.2c0,0.1,0,0.2,0,0.3c0,0.1,0,0.1,0,0.2c0,0.1,0,0.1,0,0.2s0,0.1,0,0.2s0,0.1,0,0.2
				c0,0.1,0,0.2,0,0.3c0,0,0,0.1,0,0.2c0,0.1,0,0.2,0,0.2c0,0.1,0,0.1,0,0.2c0,0,0,0.1,0,0.2c0,0.1,0,0.1,0,0.2s0,0.1,0,0.1V28
				c0,0.1,0,0.1,0,0.2v0.1c0,0,0,0.1,0,0.1c0,0,0,0.1,0,0.1c0,0,0,0,0.1,0v0.2c-2.2,0-4.3,0-6.5,0c-0.1,0-0.1,0-0.1,0
				c0,0-0.1,0-0.1,0v-0.1c0,0,0,0,0-0.1s0,0,0-0.1v-0.1c0,0,0,0,0-0.1v0c0,0,0,0,0-0.1v0c0,0,0,0,0-0.1h0v0c-0.1,0-0.2,0-0.3,0v-0.4
				c0,0,0,0,0.1,0c0-0.1,0-0.2,0-0.2c0-0.1,0-0.1,0-0.2c0-0.1,0-0.1,0-0.2c0-0.1,0-0.1,0-0.2c0-0.1,0-0.1,0-0.2c0-0.1,0-0.1,0-0.2
				c0-0.1,0-0.2,0-0.3c0,0,0-0.1,0-0.2s0-0.1,0-0.2c0-0.1,0-0.1,0-0.2c0-0.1,0-0.1,0-0.2c0-0.1,0-0.2,0-0.3c0,0,0-0.1,0-0.2
				c0-0.1,0-0.2,0-0.2c0-0.1,0-0.1,0-0.2c0-0.1,0-0.1,0-0.2s0-0.1,0-0.2c0,0,0-0.1,0-0.2c0-0.1,0-0.1,0-0.2c0-0.1,0-0.2,0-0.3
				c0-0.1,0-0.1,0-0.2c0-0.1,0-0.1,0-0.2c0-0.1,0-0.1,0-0.2s0-0.1,0-0.2c0-0.1,0-0.2,0-0.3c0,0,0-0.1,0-0.2c0-0.1,0-0.1,0-0.2
				c-0.1,0-0.1,0-0.1,0c-0.1,0-0.2,0-0.3,0h0c0,0,0,0-0.1,0c0,0,0,0,0,0h0c0,0-0.1,0-0.1,0c-0.1,0-0.1,0-0.1,0v0.1
				c-1.6,0-3.2,0-4.8,0c-0.1,0-0.3,0-0.4,0v0.2l-0.1,0.1v0l0,0v0h0l0,0v0.1h0c0,0,0,0,0,0v0.1c0,0,0,0,0,0v0.1h0l-0.1,0.1v0
				c0,0,0,0,0,0v0h0v0.1h0v0c0,0,0,0,0,0v0h-0.1v0.1h0v0.1l0,0v0c0,0,0,0,0,0v0h0v0c0,0,0,0,0,0V24c0,0,0,0-0.1,0
				c-0.2,0-0.4,0-0.6,0l0,0v0.1c0,0,0,0,0,0v0c0,0,0,0,0,0l0,0v0h0v0c0,0,0,0,0,0v0l0,0v0h0v0h0v0.1l0,0v0h0v0c0,0,0,0,0,0v0h0v0
				c0,0,0,0,0,0c0,0,0,0,0,0V25h0v0.2c0,0,0,0,0,0c0,0,0,0,0,0v0c0,0,0,0-0.1,0v0.1h0v0.1l0,0v0c0,0,0,0,0,0v0c0,0,0,0,0,0v0l0,0
				c0,0,0,0,0,0v0.1c0,0,0,0,0,0l0,0c0,0,0,0,0,0v0l0,0v0h0v0c0,0-0.1,0-0.1,0v0l0,0c0,0,0,0,0,0v0c0,0,0,0,0,0v0c0,0,0,0,0,0v0.1
				c0,0,0,0,0,0v0h0l0,0v0c0,0,0,0,0,0v0h0v0.5l0,0c0,0,0,0,0,0v0h0v0.1l0,0v0.1l0,0c0,0,0,0-0.1,0v0c-0.2,0-0.4,0-0.6,0
				c0,0-0.1,0-0.1,0c0,0,0,0-0.1,0c0,0,0,0-0.1,0c0,0-0.1,0-0.1,0c-0.1,0-0.1,0-0.2,0v0c-0.1,0-0.1,0-0.2,0c-0.1,0-0.1,0-0.2,0
				c0,0-0.1,0-0.1,0c0,0-0.1,0-0.1,0c-0.1,0-0.1,0-0.2,0c0,0-0.1,0-0.1,0c0,0-0.1,0-0.1,0c0,0-0.1,0-0.1,0c-0.1,0-0.1,0-0.1,0
				c0,0-0.1,0-0.1,0c-0.1,0-0.1,0-0.2,0c0,0-0.1,0-0.1,0c0,0-0.1,0-0.1,0v0c0,0-0.1,0-0.1,0c0,0-0.1,0-0.1,0c0,0-0.1,0-0.1,0
				c0,0-0.1,0-0.1,0c0,0-0.1,0-0.1,0c0,0-0.1,0-0.1,0c-0.1,0-0.1,0-0.1,0c0,0,0,0-0.1,0c0,0-0.1,0-0.1,0c-0.1,0-0.1,0-0.1,0
				c-0.1,0-0.1,0-0.2,0l0,0v-0.4h0V26c0,0,0,0,0,0h0c0,0,0,0,0,0v0l0,0v0c0,0,0,0,0.1,0v-0.1h0v0c0,0,0.1,0,0.1,0v-0.1h0v0
				c0,0,0,0,0.1,0v-0.1h0c0,0,0,0,0,0v0h0v-0.1h0v-0.1c0,0,0,0,0,0v0h0v0c0,0,0,0,0.1,0V25h0c0,0,0,0,0,0l0,0v0l0,0c0,0,0,0,0,0
				v-0.1c0,0,0,0,0,0v0h0.1v-0.1l0.1-0.1v-0.1c0,0,0,0,0,0c0,0,0,0,0,0h0c0,0,0,0,0,0v-0.1l0.1-0.1v0l0.1-0.1c0,0,0,0,0,0v0h0.1
				v-0.1l0,0v-0.1l0,0v-0.1h0v0h0l0.1,0v-0.1l0,0v-0.1h0v0c0,0,0,0,0,0v0h0l0,0v-0.1h0v-0.2h0l0,0v-0.1c0,0,0.1,0,0.1,0h0v-0.1h0
				c0,0,0,0,0,0v-0.1h0v0l0,0h0v-0.1c0,0,0,0,0,0v-0.1l0,0c0,0,0,0,0,0v-0.1h0.1V22c0,0,0,0,0.1,0c0,0,0,0,0,0v0c0,0,0,0,0,0v-0.1
				l0,0h0l0.1-0.1v-0.1c0,0,0,0,0.1,0c0,0,0,0,0,0v-0.1h0v0l0,0v0h0c0,0,0,0,0,0v0l0,0c0,0,0,0,0,0v-0.1h0v0l0,0c0,0,0,0,0,0h0v0
				l0,0v-0.1h0v-0.1h0v0l0,0c0,0,0,0,0,0h0l0.1-0.1v0c0,0,0,0,0,0v0h0v-0.1c0,0,0,0,0,0l0,0v0l0,0v0h0l0,0c0,0,0,0,0,0l0,0v0
				c0,0,0,0,0.1,0v0h0.1v-0.1h0v-0.1l0,0v-0.1h0c0,0,0,0,0,0v-0.3h0v-0.1l0,0V19c0,0-0.1,0-0.1,0v0c0,0,0,0,0,0v0l0,0c0,0,0,0,0,0v0
				l0,0h0L29,18.6v0h0c0,0-0.1,0-0.1,0l0,0v-0.1c0,0-0.1,0-0.1,0l0,0c0,0,0,0,0,0c0,0,0,0-0.1,0c0,0,0,0,0,0h0v0c0,0,0,0,0,0
				c0,0,0,0,0,0c0,0,0,0-0.1,0c-1.2,0-2.4,0-3.5,0v0c0,0,0,0,0,0v0c0,0,0,0,0,0l-0.1-0.1c0,0,0,0-0.1,0h0c0,0,0,0-0.1,0c0,0,0,0,0,0
				c0,0-0.1,0-0.1,0v0c0,0,0,0-0.1,0h-0.1c-0.3,0-0.7,0-1,0v-0.1c-0.8,0-1.5,0-2.3,0c0,0,0,0-0.1,0c-0.2,0-0.4,0-0.6,0h0l-0.1,0.1
				c0,0,0,0,0,0c0,0,0,0,0,0h0c0,0,0,0,0,0h0v0l0,0c0,0,0,0,0,0c0,0,0,0,0,0v0l0,0c0,0,0,0,0,0v0.1c0,0,0,0-0.1,0l0,0h0v0l0,0
				c0,0,0,0,0,0c0,0,0,0,0,0h0c0,0-0.1,0-0.1,0v0c0,0,0,0,0,0h0v0c0,0-0.1,0-0.1,0c0,0,0,0-0.1,0c0,0,0,0,0,0h0v0.1l0,0v0
				c0,0,0,0,0,0v0c0,0,0,0,0,0c0,0,0,0,0,0h0c0,0,0,0,0,0v0c0,0,0,0,0,0h0v0.1c0,0,0,0,0,0l-0.1,0.1v0c0,0,0,0,0,0h0c0,0,0,0,0,0h0
				c0,0,0,0,0,0v0c0,0,0,0,0,0c0,0,0,0,0,0h0v0l0,0v0c0,0,0,0,0,0h-0.1v0c0,0,0,0,0,0v0h0v0h0c0,0,0,0,0,0c0,0,0,0-0.1,0h0v0
				c0,0,0,0,0,0v0h0v0l0,0v0l0,0c0,0,0,0.1,0,0.1v0c0,0,0,0,0,0.1s0,0,0,0c0,0,0,0,0,0.1s0,0.1,0,0.1c0,0,0,0,0,0.1c0,0,0,0,0,0.1
				v0.1c0,0,0,0,0,0.1s0,0,0,0.1s0,0.1,0,0.1c0,0,0,0,0,0.1v0c0,0,0,0.1,0,0.1c0,0,0,0,0,0.1v0c0,0-0.1,0.1-0.1,0.1c0,0,0,0,0,0.1
				c0,0,0,0-0.1,0c0,0,0,0,0,0.1c0,0,0,0-0.1,0.1c0,0,0,0-0.1,0c0,0,0,0,0,0s-0.1,0-0.1,0c0,0,0,0-0.1,0c0,0,0,0-0.1,0c0,0,0,0,0,0
				c-2.2,0-4.4,0-6.6,0c-0.8,0-1.5,0-2.3,0c-0.7,0-1.4,0-2.1,0v0c0,0,0,0-0.1,0v-0.1h0c0,0,0,0,0,0v-0.1c0,0-0.1,0-0.1,0v0
				c0-0.1,0-0.1,0-0.2v0c-0.1,0-0.2,0-0.2,0c0,0,0-0.1,0-0.1v0c0,0,0,0,0-0.1v0c0,0,0,0,0-0.1c-0.7,0-1.4,0-2.1,0c0,0,0,0.1,0,0.1
				c0,0.1,0,0.1,0,0.2c0,0.1,0,0.1,0,0.2c0,0.1,0,0.1,0,0.2c0,0.1,0,0.2,0,0.3c0,0.1,0,0.1,0,0.2c0,0.1,0,0.1,0,0.2
				c0,0.1,0,0.1,0,0.2c0,0.1,0,0.1,0,0.2s0,0.1,0,0.2c0,0.1,0,0.1,0,0.2c0,0,0,0,0,0.1v0.4c-0.1,0-0.2,0-0.4,0v0c-0.3,0-0.7,0-1,0
				v0.3c0,0,0,0-0.1,0v0.4h0c0,0,0,0-0.1,0c-0.1,0-0.3,0-0.5,0c0,0,0,0,0,0l0,0h0c0,0-0.1,0-0.1,0l0,0c0,0,0,0-0.1,0
				c-0.1,0-0.2,0-0.2,0c-0.1,0-0.2,0-0.3,0v0c0,0,0-0.1,0-0.1c0,0,0-0.1,0-0.1v-0.1c0-0.1,0-0.1,0-0.1c0,0,0-0.1,0-0.1
				c0,0,0,0,0-0.1c0-0.1,0-0.1,0-0.1c0,0,0-0.1,0-0.1c0,0,0-0.1,0-0.1c0,0,0-0.1,0-0.1c0-0.1,0-0.1,0-0.1c0,0,0-0.1,0-0.1
				c0,0,0-0.1,0-0.1c0,0,0-0.1,0-0.1c0,0,0-0.1,0-0.1c0,0,0,0,0-0.1c0-0.1,0-0.1,0-0.1c0,0,0-0.1,0-0.1c0,0,0.1,0,0.2,0v-0.3
				c0,0,0,0,0,0v0c0-0.1,0-0.1,0-0.2c0-0.1,0-0.1,0-0.2c0-0.1,0-0.1,0-0.2s0-0.1,0-0.2s0-0.1,0-0.2c0-0.1,0-0.1,0-0.2
				c0-0.1,0-0.1,0-0.2c0-0.1,0-0.2,0-0.3c0,0,0-0.1,0-0.2c0-0.1,0-0.1,0-0.2s0-0.2,0-0.2c0-0.1,0-0.2,0-0.2s0-0.1,0-0.2
				c0,0,0-0.1,0-0.2c0-0.1,0-0.2,0-0.2c0-0.1,0-0.1,0-0.2s0-0.1,0-0.2c0-0.1,0-0.1,0-0.2s0-0.1,0-0.2c0-0.1,0-0.1,0-0.2
				c0-0.1,0-0.2,0-0.3c0,0,0-0.1,0-0.2c0-0.1,0-0.1,0-0.2c0-0.1,0-0.1,0-0.2s0-0.1,0-0.2c0-0.1,0-0.2,0-0.3c0,0,0-0.1,0-0.2
				c0-0.1,0-0.2,0-0.2c0-0.1,0-0.1,0-0.2c0-0.1,0-0.1,0-0.2c0-0.1,0-0.1,0-0.2h0v0l0,0c0,0,0,0,0-0.1c0,0,0,0,0-0.1c0,0,0,0,0-0.1v0
				c0,0,0-0.1,0-0.1c0,0,0,0,0-0.1c0,0,0-0.1,0-0.1v0c0,0,0,0,0-0.1v0c0,0,0,0,0-0.1c0,0,0,0,0-0.1c0,0,0,0,0-0.1c0,0,0,0,0-0.1V14
				c0,0,0,0,0-0.1c0,0,0,0,0-0.1s0-0.1,0-0.1s0,0,0-0.1v0c0,0,0,0,0-0.1s0,0,0-0.1v-0.1H0.7c0,0,0,0,0,0v-0.2c0,0,0-0.1,0-0.1v-0.3
				c-0.1,0-0.1,0-0.2,0v-0.3c0.3,0,0.5,0,0.8,0v0c0.3,0,0.5,0,0.8,0v0.3c0,0-0.1,0-0.1,0l0,0c0.5,0,0.9,0,1.4,0v0.3c0,0,0.1,0,0.1,0
				v0c0,0.1,0,0.1,0,0.2c0,0.1,0,0.2,0,0.2c0,0.1,0,0.1,0,0.2c0,0.1,0,0.1,0,0.2c0,0.1,0,0.1,0,0.2c0,0,0,0.1,0,0.2
				c0,0.1,0,0.1,0,0.2c0,0.1,0,0.2,0,0.3c0,0.1,0,0.1,0,0.2c0,0.1,0,0.1,0,0.2c0,0.1,0,0.1,0,0.2c0,0.1,0,0.1,0,0.2
				c0,0.1,0,0.2,0,0.3c0,0,0,0.1,0,0.2c0.8,0,1.5,0,2.3,0c0-0.1,0-0.1,0-0.2c0-0.1,0-0.1,0-0.2c0-0.1,0-0.1,0-0.2c0-0.1,0-0.1,0-0.1
				c0,0,0.1,0,0.1,0c0.1,0,0.1,0,0.2,0c1.1,0,2.2,0,3.3,0c0-0.1,0-0.1,0-0.2c0,0,0-0.1,0-0.1c0,0,0-0.1,0-0.1c0,0,0-0.1,0-0.1
				c0-0.1,0-0.1,0-0.1c0,0,0-0.1,0-0.1c0,0,0-0.1,0-0.1v0c-0.9,0-1.9,0-2.8,0v-0.1c-0.1,0-0.2,0-0.4,0v-0.4c0,0,0,0,0,0v-0.3h0v0
				c0,0,0-0.1,0-0.2c0,0,0-0.1,0-0.1c0-0.1,0-0.1,0-0.2c0-0.1,0-0.1,0-0.1c0,0,0-0.1,0-0.2c0,0,0-0.1,0-0.1c0,0,0-0.1,0-0.2
				c0,0,0-0.1,0-0.1c0-0.1,0-0.1,0-0.2c0-0.1,0-0.1,0-0.2c0,0,0-0.1,0-0.1c0,0,0-0.1,0-0.2c0,0,0-0.1,0-0.1c0-0.1,0-0.1,0-0.1
				c0,0,0-0.1,0-0.1c0-0.1,0-0.1,0-0.2c0,0,0-0.1,0-0.1c0,0,0-0.1,0-0.2c0,0,0,0,0,0v-0.3c0,0,0,0,0,0v-0.1c0,0,0.1,0,0.1,0V9.9
				c0,0,0.1,0,0.1,0V9.8c0.1,0,0.1,0,0.2,0c0,0,0,0,0,0c0.1,0,0.2,0,0.4,0c3.1,0,6.3,0,9.4,0c0.1,0,0.2,0,0.3,0c0.4,0,0.9,0,1.3,0h0
				v0c0.2,0,0.5,0,0.8,0c0.2,0,0.4,0,0.6,0h0.2c0.4,0,0.7,0,1.1,0v0c0.1,0,0.2,0,0.3,0l0,0h0l0,0c0,0,0,0,0,0v0.5c0,0,0,0,0,0h0v0.1
				l0,0v0.1c0,0,0,0,0,0l0,0c0,0,0,0,0,0c0,0,0,0,0,0l-0.1,0.1v0L21,10.9v0l-0.1,0.1h0v0.1l-0.1,0v0l-0.1,0.1h0v0l-0.1,0.1v0
				l-0.1,0.1v0c0,0,0,0,0,0v0c0,0,0,0,0,0v0.1c0,0-0.1,0-0.1,0c0,0,0,0,0,0c0,0,0,0,0,0l0,0c0,0,0,0-0.1,0V12c0,0,0,0,0,0v0h0v0.1
				c0,0,0,0,0,0l-0.1,0.1h0v0c0,0,0,0,0,0l0,0c0,0,0,0,0,0v0c0,0,0,0,0,0l-0.1,0.1h0v0l-0.1,0.1v0h0v0.1c0,0,0,0,0,0v0h0
				c0,0,0,0,0,0h0c0,0,0,0,0,0l0,0v0h0l0,0v0h0c0,0,0,0,0,0l-0.1,0.1h0v0l0,0v0h0v0l0,0v0l-0.1,0.1h0l-0.1,0.1c0,0,0,0,0,0h-0.1
				l-0.1,0.1h0v0c0,0,0,0,0,0v0c0,0-0.1,0-0.1,0l0,0c0,0,0,0,0,0l0,0c0,0-0.1,0-0.1,0c0,0,0,0,0,0c0,0,0,0-0.1,0l0,0v0h-0.1
				c0,0,0,0,0,0l-0.1,0.1h0v0c0,0,0,0-0.1,0h0c0,0-0.1,0-0.1,0v0c0,0-0.1,0-0.1,0c-1.3,0-2.6,0-3.9,0v0.1l0,0v0.1l-0.1,0.1
				c0,0,0,0,0,0.1c0,0,0,0.1,0,0.1v0c0,0,0,0,0,0.1v0.1c0,0,0,0,0,0.1v0c0,0,0,0.1,0,0.1c0,0,0,0,0,0.1v0c0,0,0,0.1,0,0.1
				c0.9,0,1.9,0,2.8,0c0.6,0,1.2,0,1.8,0h0c0,0,0,0,0,0v0c0,0,0,0,0,0h0c0,0,0,0,0.1,0c0,0,0,0,0,0h0c0,0,0,0,0,0v0c0,0,0,0,0,0
				c0,0,0,0,0,0h0c0,0,0,0,0,0h0l0.1-0.1h0c0,0,0,0,0,0v-0.1c0,0,0,0,0,0v0c0,0,0,0,0,0v0h0c0,0,0,0,0,0l0,0v-0.1c0,0,0,0,0,0h0
				c0,0,0,0,0.1,0v0c0,0,0,0,0.1,0v0c0,0,0,0,0,0v0l0,0h0c0,0,0,0,0,0v-0.1c0,0,0,0,0,0h0v-0.1c0,0,0,0,0,0h0l0,0v0c0,0,0,0,0,0
				v-0.1h0l0,0c0,0,0,0,0.1,0v0l0,0h0c0,0,0,0,0,0h0c0,0,0,0,0,0s0,0,0,0v0h0c0,0,0,0,0,0v-0.1c0,0,0,0,0,0c0,0,0,0,0,0l0,0
				c0,0,0,0,0.1,0v0l0,0v-0.1c0,0,0,0,0,0c0,0,0,0,0,0V13h0l0,0c0,0,0,0,0,0v0c0,0,0,0,0,0h0v0l0,0v0c0,0,0,0,0,0l0,0h0v0h0
				c0,0,0,0,0,0l0.1-0.1v0c0,0,0,0,0,0c0,0,0,0,0,0h0c0,0,0,0,0,0v-0.1h0c0,0,0,0,0,0c0,0,0,0,0,0c0,0,0,0,0,0c0,0,0,0,0,0h0
				c0,0,0,0,0,0V12c0,0,0,0,0,0c0,0,0,0,0,0v0c0,0,0,0,0,0c0,0,0,0,0,0h0c0,0,0,0,0.1,0v0l0,0v0h0c0,0,0,0,0,0c0,0,0,0,0,0v0h0v-0.1
				c0,0,0,0,0,0h0c0.1,0,0.1,0,0.2,0v0c0.2,0,0.4,0,0.7,0h0c0.1,0,0.2,0,0.3,0c0,0,0.1,0,0.1,0c0,0,0.1,0,0.1,0c0.1,0,0.1,0,0.2,0h0
				c0.3,0,0.5,0,0.8,0h0.3v0h0v0l0,0v0l0,0h0.1v0c0,0,0-0.1,0-0.1c0,0,0-0.1,0-0.1c0,0,0,0,0-0.1c0,0,0,0,0-0.1v-0.1
				c0,0,0-0.1,0-0.1c0,0,0,0,0-0.1c0,0,0,0,0-0.1c0,0,0.1,0,0.1-0.1c0,0,0,0,0.1,0h0v-0.2c0,0,0,0,0,0c0,0,0.1,0,0.1,0
				c0.6,0,1.1,0,1.7,0V9.8c-0.4,0-0.9,0-1.3,0c-0.1,0-0.2,0-0.3,0c0,0,0,0-0.1,0V9.1c0.1,0,0.1,0,0.2,0c0.7,0,1.4,0,2.1,0
				c0,0,0,0,0,0l0,0c0,0,0,0,0,0v0h0c0,0,0.1,0,0.1,0l0,0h0c0,0,0,0,0,0h0c0.2,0,0.3,0,0.5,0c0,0,0,0,0.1,0h0c0,0,0.1,0,0.1,0v0h0
				l0,0.1c0,0,0,0,0,0v0.3c0.8,0,1.6,0,2.4,0v0.1c0,0,0.1,0,0.1,0v0.1c0,0,0,0.1,0,0.1v0c0,0,0,0,0,0.1c0,0,0,0.1,0,0.1
				c0,0,0,0,0,0.1s0,0,0,0.1v0c0,0,0,0.1,0,0.1v0c0,0,0,0,0,0.1v0c1.1,0,2.3,0,3.5,0c0,0,0-0.1,0-0.1c0-0.1,0-0.1,0-0.2
				c0-0.1,0-0.1,0-0.2c0-0.1,0-0.1,0-0.2c0-0.1,0-0.2,0-0.3c0,0,0-0.1,0-0.2c0-0.1,0-0.1,0-0.2c0-0.1,0-0.1,0-0.2c0-0.1,0-0.1,0-0.2
				c0-0.1,0-0.2,0-0.3c0,0,0-0.1,0-0.2c0-0.1,0-0.2,0-0.2c0-0.1,0-0.1,0-0.2c-0.2,0-0.5,0-0.7,0c0,0,0,0,0,0l0,0h0c0,0-0.1,0-0.1,0
				h0c0,0,0,0,0,0s0,0,0,0v0h0v0c0,0,0,0,0,0c0,0,0,0-0.1,0l0,0c0,0,0,0,0,0c0,0-0.1,0-0.1,0l0,0c0,0-0.1,0-0.1,0
				c-2.2,0-4.3,0-6.5,0v0c-0.1,0-0.2,0-0.3,0H26c0-0.1,0-0.1,0-0.1V7.5c0,0,0-0.1,0-0.1v0c0-0.1,0-0.1,0-0.2c0,0,0-0.1,0-0.2
				c0-0.1,0-0.1,0-0.2c0,0,0-0.1,0-0.2c0-0.1,0-0.1,0-0.2c0,0,0-0.1,0-0.1c0-0.1,0-0.1,0-0.2c0-0.1,0-0.1,0-0.2c0,0,0-0.1,0-0.1
				c0-0.1,0-0.1,0-0.2s0-0.1,0-0.2c0,0,0-0.1,0-0.2c0-0.1,0-0.1,0-0.2c0,0,0-0.1,0-0.2c0.1,0,0.3,0,0.4,0l0,0c2.2,0,4.4,0,6.5,0v0.1
				c0,0,0.1,0,0.2,0v0h0.1l0,0c0,0,0.1,0,0.1,0l0.1,0h0c0,0,0.1,0,0.1,0V5c0,0,0,0,0.1,0c0,0,0,0,0,0s0,0,0,0c0,0,0,0,0,0h0
				c0.2,0,0.3,0,0.5,0c0,0,0-0.1,0-0.1c0-0.1,0-0.2,0-0.2c0-0.1,0-0.1,0-0.2c0,0,0-0.1,0-0.2c0.1,0,0.2,0,0.3,0c0,0,0,0,0.1,0
				c0.8,0,1.6,0,2.4,0v0.4h0c0,0.1,0,0.1,0,0.2c0,0,0,0.1,0,0.1c0.6,0,1.3,0,1.9,0V4.8c0,0,0,0,0.1,0V4.7c0.2,0,0.3,0,0.5,0v0
				c0,0,0,0-0.1,0V4.1l0,0v0l0,0V3.9c0.1,0,0.2,0,0.3,0v0c0,0,0-0.1,0-0.1c0,0,0-0.1,0-0.1c0,0,0-0.1,0-0.1c0,0,0-0.1,0-0.1V3.4l0,0
				V3.1c0.5,0,1,0,1.5,0v0.2c0.1,0,0.1,0,0.2,0v0.5c0,0,0,0,0,0v0.1c0,0,0,0,0,0.1v0c0.1,0,0.2,0,0.2,0v0.7c0.2,0,0.4,0,0.6,0v0.2h0
				v0h0v0l0,0v0l0,0v0c0.4,0,0.9,0,1.3,0c0-0.1,0-0.1,0-0.2c0,0,0-0.1,0-0.1h0V4.4c0.8,0,1.5,0,2.3,0c0.1,0,0.2,0,0.4,0v0.2
				c0,0,0,0.1,0,0.1v0.1c0,0.1,0,0.1,0,0.2c0.7,0,1.4,0,2.1,0h0c0,0,0,0,0,0c0,0,0.1,0,0.1,0v0c0,0,0,0,0.1,0s0,0,0,0
				c0,0,0.1,0,0.1,0s0.1,0,0.1,0c0,0,0.1,0,0.1,0c0,0,0.1,0,0.1,0h0.1c0,0,0,0,0.1,0h0l0,0c0,0,0,0,0.1,0c0,0,0,0,0.1,0l0,0
				c0,0,0.1,0,0.2,0c0,0,0.1,0,0.1,0c0,0,0.1,0,0.1,0h0c0,0,0,0,0,0c0,0,0.1,0,0.2,0v0h0c0,0,0,0,0.1,0l0,0c0,0,0.1,0,0.1,0
				c0,0,0.1,0,0.1,0h0c0,0,0.1,0,0.2,0h0c0,0,0.1,0,0.1,0c0,0,0.1,0,0.1,0h0c0,0,0.1,0,0.1,0c0.1,0,0.1,0,0.1,0l0,0c0,0,0.1,0,0.1,0
				c0.1,0,0.1,0,0.2,0h0c0,0,0.1,0,0.1,0h0c0,0,0.1,0,0.1,0c0.1,0,0.1,0,0.2,0v0h0c0,0,0,0,0.1,0v0c0.1,0,0.2,0,0.3,0
				c0.1,0,0.1,0,0.2,0h0c0,0,0.1,0,0.2,0h0c0,0,0.1,0,0.1,0c0,0,0.1,0,0.1,0c0.1,0,0.1,0,0.2,0c0.1,0,0.1,0,0.2,0l0,0c0,0,0,0,0.1,0
				h0c0,0,0.1,0,0.1,0c0,0,0,0,0,0l0,0V3.6h0v0c0.1,0,0.2,0,0.3,0v0.1c1.9,0,3.8,0,5.7,0h0c0,0,0.1,0,0.1,0c0.1,0,0.2,0,0.4,0v0.2
				c0,0,0,0.1,0,0.1s0,0.1,0,0.1c0,0,0,0.1,0,0.2c0,0.1,0,0.1,0,0.2c0,0.1,0,0.1,0,0.2c0,0.1,0,0.1,0,0.2c0,0.1,0,0.2,0,0.3
				c0,0,0,0.1,0,0.2c0,0.1,0,0.2,0,0.2c0,0.1,0,0.1,0,0.2c0,0,0,0.1,0,0.2c0,0.1,0,0.1,0,0.2c0,0,0,0.1,0,0.2c0,0.1,0,0.1,0,0.2
				c0,0.1,0,0.1,0,0.2s0,0.1,0,0.2c0,0.1,0,0.1,0,0.2c0,0.1,0,0.2,0,0.3c0,0.1,0,0.1,0,0.2c0,0.1,0,0.2,0,0.3c0,0.1,0,0.1,0,0.2
				c0,0.1,0,0.1,0,0.2c0,0.1,0,0.1,0,0.2c0,0,0,0.1,0,0.2c-0.1,0-0.2,0-0.4,0v0c-1.9,0-3.8,0-5.7,0h0c-0.2,0-0.4,0-0.6,0
				c-0.1,0-0.1,0-0.2,0c0,0,0,0,0,0c0,0-0.1,0-0.2,0c0,0,0,0-0.1,0c-0.1,0-0.1,0-0.2,0v0c0,0-0.1,0-0.1,0c-0.1,0-0.1,0-0.1,0l0,0
				c-0.1,0-0.1,0-0.2,0l-0.1,0c0,0,0,0-0.1,0c-0.1,0-0.1,0-0.1,0c0,0-0.1,0-0.1,0c0,0-0.1,0-0.1,0c0,0-0.1,0-0.1,0
				c-0.1,0-0.1,0-0.1,0c0,0-0.1,0-0.1,0c0,0-0.1,0-0.1,0v0c-0.1,0-0.1,0-0.1,0c0,0-0.1,0-0.2,0c0,0-0.1,0-0.1,0c-0.1,0-0.1,0-0.1,0
				c-0.1,0-0.1,0-0.2,0c0,0-0.1,0-0.1,0C51.1,8,51,8,51,8c0,0-0.1,0-0.1,0c0,0-0.1,0-0.1,0c-0.1,0-0.1,0-0.1,0c0,0-0.1,0-0.1,0h0
				c0,0-0.1,0-0.1,0v0c0,0,0,0-0.1,0v0c0,0,0,0-0.1,0c0,0-0.1,0-0.1,0c0,0-0.1,0-0.1,0c0,0-0.1,0-0.1,0c-0.1,0-0.1,0-0.1,0
				c0,0-0.1,0-0.2,0c-0.9,0-1.8,0-2.8,0v0c0,0-0.1,0-0.1,0c0,0.1,0,0.1,0,0.1c0,0.1,0,0.1,0,0.2c0,0.1,0,0.1,0,0.2
				c0,0.1,0,0.1,0,0.2c0,0,0,0.1,0,0.2c0,0.1,0,0.1,0,0.2c0,0.1,0,0.2,0,0.3c0,0,0,0.1,0,0.2c0,0.1,0,0.1,0,0.2c0,0.1,0,0.1,0,0.2
				s0,0.1,0,0.2c0,0.1,0,0.2,0,0.3c0,0,0,0.1,0,0.1c4.9,0,9.8,0,14.7,0v0c0,0,0,0,0-0.1c0,0,0,0,0-0.1v0c0,0,0,0,0-0.1v0
				c0,0,0,0,0-0.1V9.7c0,0,0,0,0-0.1v0c0,0,0,0,0-0.1s0,0,0-0.1c0,0,0,0,0-0.1l0,0V8.8c0.1,0,0.1,0,0.2,0V8.7c0.9,0,1.7,0,2.6,0v0
				c0.1,0,0.2,0,0.3,0c0,0,0,0,0.1,0h0v0l0,0c0,0,0.1,0,0.1,0v0h0l0,0c0,0,0.1,0,0.1,0v0h0c0,0,0,0,0,0c0,0,0.1,0,0.1,0V8.7
				c0,0,0,0,0.1,0v0c0.3,0,0.6,0,0.9,0h0l0,0v0c0,0,0,0,0.1,0v0.1h0v0l0,0c0,0,0,0,0,0v0.1h0v0.1h0v0.1c0,0,0,0,0,0v0.1h0v0
				c0,0,0,0,0,0v0h0v0.1c0,0,0,0,0,0v0.1l0,0v0.4c1,0,2,0,3,0c0,0,0,0,0.1,0c0,0,0.1,0,0.1,0h0c2.2,0,4.4,0,6.6,0v0.3
				c0.2,0,0.3,0,0.5,0v0.3c-0.1,0-0.3,0-0.4,0v0.2c0,0,0,0,0,0c0.1,0,0.2,0,0.3,0v0.1h0v0.4c0,0,0,0-0.1,0c0,0,0,0.1,0,0.1
				c0,0,0,0.1,0,0.2c0,0,0,0.1,0,0.1c0,0,0,0.1,0,0.2c0,0,0,0.1,0,0.1c0,0,0,0.1,0,0.1c0,0.1,0,0.1,0,0.2s0,0.1,0,0.1
				c0,0.1,0,0.1,0,0.2c0,0,0,0.1,0,0.1c0,0.1,0,0.1,0,0.2c0,0,0,0.1,0,0.1c0,0.1,0,0.1,0,0.2c0,0,0,0.1,0,0.1c3,0,6.1,0,9.1,0
				c0,0,0-0.1,0-0.1c0,0,0-0.1,0-0.1c0,0,0-0.1,0-0.1c0,0,0,0,0.1,0c0.1,0,0.3,0,0.4,0v0.2c0,0,0,0.1,0,0.1c0,0,0.1,0,0.1,0h0
				c0.2,0,0.4,0,0.6,0v-0.3c0.1,0,0.1,0,0.2,0v0.1l0,0.1v0l0.1,0.1c0,0,0,0,0,0c0,0,0,0,0.1,0c0,0,0-0.1,0-0.1c0,0,0-0.1,0-0.2
				c0,0,0,0,0-0.1c0.1,0,0.1,0,0.2,0v0c0,0,0.1,0,0.1,0v0.1c0,0,0,0,0,0v0.2c1.6,0,3.2,0,4.8,0v-0.2c0.1,0,0.3,0,0.4,0v0.2
				c1.3,0,2.6,0,3.9,0v0.2c0,0,0,0,0,0.1c0,0,0,0,0,0.1v0C96.9,14.1,96.9,14.1,96.9,14.2C96.9,14.2,96.9,14.2,96.9,14.2z M63.3,10.2
				c0.5,0,1,0,1.5,0V10c-0.5,0-1,0-1.5,0V10.2z M43.9,5.5L43.9,5.5L43.9,5.5L43.9,5.5z M40,7.8c-0.3,0-0.6,0-0.9,0V7.5
				c-0.6,0-1.3,0-1.9,0v0h-0.1v0c0,0.1,0,0.1,0,0.2c0,0.1,0,0.1,0,0.2c0,0,0,0.1,0,0.2c0,0.1,0,0.1,0,0.2c0,0.1,0,0.1,0,0.2
				c0,0.1,0,0.1,0,0.2c0,0.1,0,0.1,0,0.2c0,0,0.1,0,0.1,0c2.2,0,4.5,0,6.7,0c0,0,0,0,0-0.1c0-0.1,0-0.2,0-0.3c0,0,0-0.1,0-0.2
				c0-0.1,0-0.2,0-0.2c0-0.1,0-0.1,0-0.2c0-0.1,0-0.1,0-0.2c0-0.1,0-0.1,0-0.2c0-0.1,0-0.1,0-0.2c-0.3,0-0.6,0-0.9,0h-0.1
				c-0.1,0-0.3,0-0.4,0v0.3c-0.3,0-0.7,0-1,0v0.3c-0.5,0-1,0-1.5,0V7.8z M33.4,19v0.1h0v0.3c0,0,0,0-0.1,0c0,0,0,0,0,0v0
				c0,0,0,0.1,0,0.1c0,0,0,0.1,0,0.1c0,0.1,0,0.1,0,0.1c0,0,0,0.1,0,0.1c0,0,0,0.1,0,0.1c0,0,0,0.1,0,0.1c0,0,0,0.1,0,0.1
				c0,0,0,0,0,0.1c0,0.1,0,0.1,0,0.1c0,0,0,0.1,0,0.1c0,0,0,0,0,0.1c0,0,0,0.1,0,0.1c0,0,0,0,0,0.1h0c0,0,0,0,0,0v0.1l0.1,0.1v0.1
				l0,0c0,0,0,0,0,0c0,0,0,0,0,0l0,0c0,0,0.1,0,0.1,0h0v0l0,0c0,0,0,0,0.1,0c0,0,0,0,0.1,0c0,0,0,0,0.1,0c0,0,0.1,0,0.1,0
				c1,0,2.1,0,3.1,0c0,0,0.1,0,0.1,0c0,0,0.1,0,0.1,0c0,0,0.1,0,0.1,0v-0.1c0,0,0,0,0.1,0h0v-0.1h0v0l0.1-0.1v0c0,0,0,0,0.1,0v0h0
				c0,0,0,0,0-0.1c0,0,0,0,0-0.1s0-0.1,0-0.1c0,0,0,0,0-0.1v0c0-0.1,0-0.1,0-0.1s0-0.1,0-0.1c0,0,0-0.1,0-0.1v0c0,0,0-0.1,0-0.1
				c0,0,0,0,0-0.1c0,0,0,0,0-0.1c0,0,0-0.1,0-0.1v0c0,0,0-0.1,0-0.1c0,0,0,0,0-0.1c0,0,0-0.1,0-0.1l0,0v-0.3c0,0,0,0,0,0
				c0,0,0,0,0,0h0l0,0v-0.1c0,0,0,0,0,0V19l-0.1-0.1h0c0,0,0,0-0.1,0h0c-0.5,0-1,0-1.5,0h0v0c0,0,0,0,0,0h0l0,0c0,0,0,0,0,0
				c0,0,0,0,0,0h0c0,0,0,0-0.1,0c0,0,0,0,0,0c0,0,0,0-0.1,0l0,0c0,0,0,0,0,0h0v0c0,0,0,0,0,0h0v0l-0.1,0.1c0,0,0,0,0,0h0L35,19.7
				c0,0,0,0-0.1,0v0l0,0v0l0,0v0L34.8,20v0l0,0v0.1l0,0v0l0,0v0.1c0,0-0.1,0-0.1,0v0.1c0,0,0,0,0,0c0,0,0,0,0,0v0.2l0,0v0.2h0v0.1
				c0,0,0,0,0,0v0c0,0,0,0,0,0c0,0,0,0,0,0v0.2c0,0-0.1,0-0.1,0s-0.1,0-0.1,0c0,0-0.1,0-0.1,0l0,0v0h-0.1v0h0l-0.1-0.1v-0.1l0,0
				v-0.1h0v0c0,0,0,0,0,0V21l0,0v-0.1h0v-0.3l0,0v-0.1h0v0c0,0,0,0,0-0.1v0c0,0,0,0,0-0.1v-0.2c0,0,0,0,0-0.1v0c0,0,0-0.1,0-0.1
				v-0.1c0,0,0-0.1,0-0.1v-0.1c0,0,0,0,0-0.1v0c0,0,0-0.1,0-0.1v-0.1l0,0v-0.3c-0.1,0-0.2,0-0.3,0v0C33.7,19,33.6,19,33.4,19
				L33.4,19L33.4,19L33.4,19L33.4,19z M22.1,11.8C22.1,11.8,22.2,11.8,22.1,11.8L22.1,11.8L22.1,11.8L22.1,11.8z M3.5,17.2
				c0,0.1,0,0.1,0,0.2c0,0.1,0,0.1,0,0.2c0,0.1,0,0.2,0,0.2c0,0.1,0,0.1,0,0.2c0,0.1,0,0.1,0,0.2s0,0.1,0,0.2c0,0.1,0,0.1,0,0.2
				c0,0.1,0,0.2,0,0.3c0,0,0,0.1,0,0.2s0,0.1,0,0.2c0,0.1,0,0.2,0,0.2s0,0.1,0,0.2s0,0.1,0,0.2c0,0,0,0.1,0,0.1c0.7,0,1.4,0,2.1,0
				c0,0,0,0,0-0.1v0c0,0,0-0.1,0-0.1v0c0.1,0,0.1,0,0.2,0v0h0v-0.7c0,0,0,0,0,0c0-0.1,0-0.1,0-0.2c0-0.1,0-0.1,0-0.2v-0.1
				c0,0,0,0,0-0.1c0-0.1,0-0.1,0-0.2c0-0.1,0-0.2,0-0.3c0,0,0-0.1,0-0.2c0-0.1,0-0.1,0-0.2c0-0.1,0-0.1,0-0.2s0-0.1,0-0.2
				c0,0,0-0.1,0-0.1c-0.3,0-0.6,0-0.9,0c0,0-0.1,0-0.2,0c-0.4,0-0.8,0-1.2,0C3.5,17.1,3.5,17.1,3.5,17.2z M14.7,19.8
				C14.7,19.8,14.8,19.8,14.7,19.8C14.8,19.8,14.8,19.8,14.7,19.8L14.7,19.8z"/>
		</g>
	</g>
</g>
<g id="guides">
</g>
<linearGradient id="SVGID_2_" gradientUnits="userSpaceOnUse" x1="-110.8057" y1="309.4082" x2="-101.3929" y2="309.4082" gradientTransform="matrix(6.6522 0 0 -6.6522 737.8528 2072.5425)">
	<stop  offset="2.300000e-007" style="stop-color:#EDF3CB"/>
	<stop  offset="1" style="stop-color:#F8D27E"/>
</linearGradient>
<path opacity="0.5" fill="url(#SVGID_2_)" enable-background="new    " d="M0.9,21.4l-0.2,2.8c0,0,1.3-0.9,2.7-0.7
	c0.2,0,0.1-2.8,0.1-2.8s0.4,0,2.1,0c0.4,0,0.1,0.9,0.6,0.9c2.7,0,7.7-0.5,8.7-1.4c0,0-7,0.8-9-2.9c0,0,0.4,2.7-0.2,2.8
	c-1.6,0.2-2,0.1-2.1,0c-0.1,0,0.1-3,0-3.1c-0.1-0.1,2.3,0,2.3,0s2.3,1.6,2.3,1.6c0,0,4.3,2.4,9-0.5c0,0-4.3,0.6-8.4-1.4
	c0,0,0.3,0.2,5.4-0.4c3.5-0.3,6.5-0.5,10.8-1.3c7-0.8,15.5-0.3,20.5,4.3c0,0-3-6.4-12-6.7c0,0,20.1-1.1,30.1,2.4
	c0,0-2.8-3.3-10.6-4.4c-0.6-0.1-6.4-0.9-7.1-1c-3.4-0.3-3.9-0.5-8.9-0.3c-0.4,0-0.9-1.6,0.7-1.9C48,5.5,51,8,51,8s-1.4-2.7-10.8-2.7
	l-3-0.1l0-0.8h-2.7v0.7l-0.6,0.1L33,4.7H26l0.1,3.1l6.9,0l0.5-0.5l1.1-0.1l0.1,3l-3.7,0l0-0.8l-5.7-0.3l-0.8,2.3l-2.8,0L18,15.4
	l-4.7,0.1l0.2-1.1l3.8,0l1.4-0.7l2.8-3.1l-0.7-0.9l-13.9,0l-0.6,0.7l0.1,3.9l3.3,0.2l-0.1,0.9l-3.7,0.1l0,0.8l-2.3,0.1L3.3,13
	l-2.3-0.3V21.4z"/>
</svg>
