<?xml version="1.0" encoding="utf-8"?>
<!-- Generator: Adobe Illustrator 16.0.0, SVG Export Plug-In . SVG Version: 6.00 Build 0)  -->
<!DOCTYPE svg PUBLIC "-//W3C//DTD SVG 1.0//EN" "http://www.w3.org/TR/2001/REC-SVG-20010904/DTD/svg10.dtd">
<svg version="1.0" id="图层_1" xmlns="http://www.w3.org/2000/svg" xmlns:xlink="http://www.w3.org/1999/xlink" x="0px" y="0px"
	 width="98px" height="32px" viewBox="0 0 98 32" enable-background="new 0 0 98 32" xml:space="preserve">
<g id="Selected_Items">
	<g>
		<g id="Selected_Items_44_">
			
				<linearGradient id="SVGID_1_" gradientUnits="userSpaceOnUse" x1="375.46" y1="-262.5" x2="471.8604" y2="-262.5" gradientTransform="matrix(1 0 0 -1 -374.96 -246.5996)">
				<stop  offset="0" style="stop-color:#8F00DB"/>
				<stop  offset="0.6452" style="stop-color:#77B9FF"/>
				<stop  offset="1" style="stop-color:#B6CAFF"/>
			</linearGradient>
			<path fill="url(#SVGID_1_)" d="M96.9,14.2v0.1l0,0v0.1c0,0,0,0,0,0.1c0,0,0,0,0,0.1v0.1l0,0v0.1c0,0,0,0,0,0.1c0,0,0,0,0,0.1
				c0,0,0,0,0,0.1c0,0,0,0,0,0.1v0.1c-0.101,0-0.101,0-0.2,0c-1.2,0-2.4,0-3.5,0v0.1c-0.101,0-0.3,0-0.4,0v-0.1c-1.7,0-3.3,0-5,0
				v0.1v0.1v0.1l0,0c-0.1,0-0.1,0-0.2,0v-0.1h-0.1l0,0c0,0,0,0,0-0.1l0,0v-0.1c-0.1,0-0.3,0-0.5,0v0.1c-0.1,0-0.1,0-0.2,0v-0.1
				c-0.1,0-0.3,0-0.5,0v0.1v0.1v0.1c0,0-0.1,0-0.2,0H86l0,0c-0.1,0-0.1,0-0.2,0l0,0v-0.1v-0.1v-0.1v-0.1c-3,0-5.899,0-8.8,0l0,0l0,0
				c0,0,0,0-0.1,0H76.8v0.3c-0.1,0-0.2,0-0.3,0c-4.5,0-8.9,0-13.4,0v0.4c0,0,0,0-0.1,0v0.6h0.1v0.3H63l0,0l0,0l0,0l0,0l0,0
				c-0.1,0-0.3,0-0.4,0V16.9c-0.1,0-0.199,0-0.399,0V16.6c-0.2,0-0.5,0-0.7,0V16.9c-0.1,0-0.2,0-0.3,0V16.6c-0.101,0-0.3,0-0.5,0
				V16.9c-0.101,0-0.3,0-0.4,0V16.6c-0.2,0-0.399,0-0.6,0V16.9c-0.101,0-0.3,0-0.4,0V16.6c-0.2,0-0.3,0-0.5,0V16.9
				c-0.1,0-0.3,0-0.399,0V16.6c-0.2,0-0.4,0-0.601,0V16.9c-0.1,0-0.2,0-0.3,0V16.6h-0.2c-0.1,0-0.2,0-0.3,0V16.9c-0.1,0-0.2,0-0.3,0
				V16.6c-0.2,0-0.4,0-0.601,0V16.9c-0.1,0-0.199,0-0.3,0V16.6c-0.1,0-0.3,0-0.5,0V16.9c-0.1,0-0.3,0-0.399,0V16.6
				c-0.2,0-0.301,0-0.5,0V16.9c-0.101,0-0.301,0-0.4,0V16.6c-0.2,0-0.3,0-0.5,0v0.2c-0.1,0-0.2,0-0.3,0v-0.2c-0.2,0-0.3,0-0.5,0
				V16.9c-0.101,0-0.2,0-0.3,0V16.6c-0.101,0-0.301,0-0.5,0V16.9c-0.101,0-0.2,0-0.301,0V16.6c-0.199,0-0.399,0-0.6,0v0.2
				c-0.1,0-0.3,0-0.4,0v-0.2c-0.1,0-0.3,0-0.5,0V16.9c-0.1,0-0.199,0-0.3,0V16.6c-0.2,0-0.4,0-0.6,0V16.9c-0.4,0-0.8,0-1.2,0V16.6
				c-0.1,0-0.3,0-0.4,0V16.7l0,0l0,0l0,0v0.1l0,0l0,0l0,0c-0.1,0-0.2,0-0.3,0c-0.1,0-0.1,0-0.2,0H47l0,0h-0.1l0,0l0,0
				c-0.1,0-0.1,0-0.2,0c-0.1,0-0.1,0-0.1,0l0,0l0,0c0,0,0,0-0.1,0h-0.1l0,0L46.3,16.9l0,0l0,0V17l0,0l0,0l0,0c0,0,0,0,0,0.1l0,0
				c0,0,0,0,0,0.101v0.5c0,0,0,0,0,0.1c0,0.101,0,0.101,0,0.101V18v0.1V18.2v0.1c0,0.101,0,0.101,0,0.101v0.1c0,0,0,0,0,0.1l0,0
				l0.1,0.101l0,0c0,0,0,0,0.1,0l0,0l0,0l0,0v0.7l0,0l0,0l0,0l0,0c-0.1,0-0.2,0-0.3,0v0.1h-0.1c0,0,0,0-0.1,0l0,0c0,0.1,0,0.1,0,0.2
				c0,0.1,0,0.1,0,0.2c0,0,0,0.1,0,0.199c0,0.101,0,0.2,0,0.2c0,0.101,0,0.101,0,0.2s0,0.1,0,0.2c0,0.1,0,0.1,0,0.2
				c0,0.1,0,0.1,0,0.199c0,0.101,0,0.101,0,0.2c0,0.101,0,0.2,0,0.3c0,0,0,0.101,0,0.2c0,0.101,0,0.101,0,0.2s0,0.1,0,0.2
				c0,0.1,0,0.1,0,0.2c0,0.1,0,0.1,0,0.199c0,0,0,0.101,0,0.2c0,0.101,0,0.2,0,0.2c0,0.1,0,0.1,0,0.2c0,0.1,0,0.1,0,0.2
				c0,0.1,0,0.1,0,0.199c0,0,0,0.101,0,0.2c0,0.101,0,0.101,0,0.2s0,0.2,0,0.3c0,0.101,0,0.101,0,0.2s0,0.1,0,0.2c0,0.1,0,0.1,0,0.2
				c0,0.1,0,0.1,0,0.199c0,0.101,0,0.2,0,0.301c0,0,0,0.1,0,0.199c0,0.101,0,0.2,0,0.2c0,0.101,0,0.101,0,0.2c0,0,0,0.1,0,0.2
				c0,0.1,0,0.1,0,0.2c0,0.1,0,0.1,0,0.1V28c0,0.1,0,0.1,0,0.2v0.1V28.4v0.1c0,0,0,0,0.1,0v0.2c-2.2,0-4.3,0-6.5,0
				c-0.1,0-0.1,0-0.1,0h-0.1V28.6c0,0,0,0,0-0.1s0,0,0-0.1V28.3c0,0,0,0,0-0.1l0,0c0,0,0,0,0-0.101l0,0c0,0,0,0,0-0.1l0,0l0,0
				c-0.1,0-0.2,0-0.3,0v-0.4c0,0,0,0,0.1,0c0-0.1,0-0.199,0-0.199c0-0.101,0-0.101,0-0.2c0-0.101,0-0.101,0-0.2s0-0.1,0-0.2
				c0-0.1,0-0.1,0-0.2c0-0.1,0-0.1,0-0.199c0-0.101,0-0.2,0-0.301c0,0,0-0.1,0-0.199c0-0.101,0-0.101,0-0.2c0-0.101,0-0.101,0-0.2
				s0-0.1,0-0.2c0-0.1,0-0.2,0-0.3c0,0,0-0.1,0-0.2c0-0.1,0-0.2,0-0.2c0-0.1,0-0.1,0-0.199c0-0.101,0-0.101,0-0.2
				c0-0.101,0-0.101,0-0.2c0,0,0-0.1,0-0.2c0-0.1,0-0.1,0-0.2c0-0.1,0-0.199,0-0.3c0-0.1,0-0.1,0-0.2c0-0.1,0-0.1,0-0.199
				c0-0.101,0-0.101,0-0.2c0-0.101,0-0.101,0-0.2s0-0.2,0-0.3c0,0,0-0.101,0-0.2s0-0.1,0-0.2c-0.1,0-0.1,0-0.1,0c-0.1,0-0.2,0-0.3,0
				l0,0c0,0,0,0-0.1,0l0,0l0,0h-0.1c-0.1,0-0.1,0-0.1,0V21.9c-1.6,0-3.2,0-4.8,0c-0.1,0-0.3,0-0.4,0V22.1L33.2,22.2l0,0l0,0l0,0l0,0
				l0,0v0.1l0,0l0,0V22.4l0,0v0.1l0,0l-0.1,0.1l0,0l0,0l0,0l0,0V22.7l0,0l0,0l0,0l0,0H33v0.1l0,0V22.9l0,0l0,0l0,0l0,0l0,0l0,0l0,0
				V24c0,0,0,0-0.1,0c-0.2,0-0.4,0-0.6,0l0,0v0.1l0,0l0,0l0,0l0,0l0,0l0,0l0,0l0,0l0,0l0,0l0,0l0,0l0,0l0,0V24.2l0,0l0,0l0,0l0,0
				l0,0l0,0l0,0l0,0l0,0l0,0V25l0,0v0.2l0,0l0,0l0,0c0,0,0,0-0.1,0v0.1l0,0V25.4l0,0l0,0l0,0l0,0l0,0l0,0l0,0l0,0v0.1l0,0l0,0l0,0
				l0,0l0,0l0,0l0,0l0,0h-0.1l0,0l0,0l0,0l0,0l0,0l0,0l0,0v0.1l0,0l0,0l0,0l0,0l0,0l0,0l0,0l0,0v0.5l0,0l0,0l0,0l0,0V26.2l0,0v0.1
				l0,0c0,0,0,0-0.1,0l0,0c-0.2,0-0.4,0-0.6,0h-0.1c0,0,0,0-0.1,0c0,0,0,0-0.1,0H31c-0.1,0-0.1,0-0.2,0l0,0c-0.1,0-0.1,0-0.2,0
				s-0.1,0-0.2,0h-0.1h-0.1c-0.1,0-0.1,0-0.2,0h-0.1h-0.1h-0.1c-0.1,0-0.1,0-0.1,0h-0.1c-0.1,0-0.1,0-0.2,0h-0.1h-0.1l0,0H29h-0.1
				h-0.1h-0.1h-0.1h-0.1c-0.1,0-0.1,0-0.1,0s0,0-0.1,0h-0.1c-0.1,0-0.1,0-0.1,0c-0.1,0-0.1,0-0.2,0l0,0V25.9l0,0V26l0,0l0,0l0,0l0,0
				l0,0l0,0c0,0,0,0,0.1,0v-0.1l0,0l0,0h0.1V25.8l0,0l0,0c0,0,0,0,0.1,0v-0.1l0,0l0,0l0,0l0,0V25.6l0,0v-0.1l0,0l0,0l0,0l0,0
				c0,0,0,0,0.1,0V25l0,0l0,0l0,0l0,0l0,0l0,0v-0.1l0,0l0,0h0.1V24.8l0.1-0.1V24.6l0,0l0,0l0,0l0,0v-0.1l0.1-0.1l0,0l0.1-0.101l0,0
				l0,0h0.1v-0.1l0,0V24.1l0,0V24l0,0l0,0l0,0h0.1v-0.1l0,0V23.8l0,0l0,0l0,0l0,0l0,0l0,0v-0.1l0,0v-0.2l0,0l0,0v-0.1H29l0,0V23.3
				l0,0l0,0v-0.1l0,0l0,0l0,0l0,0V23.1l0,0V23l0,0l0,0v-0.1h0.1V22c0,0,0,0,0.1,0l0,0l0,0l0,0v-0.1l0,0l0,0l0.1-0.101v-0.1
				c0,0,0,0,0.1,0l0,0V21.6l0,0l0,0l0,0l0,0l0,0l0,0l0,0l0,0l0,0v-0.1l0,0l0,0l0,0l0,0l0,0l0,0l0,0v-0.1l0,0V21.3l0,0l0,0l0,0l0,0
				l0,0l0.1-0.1l0,0l0,0l0,0l0,0V21.1l0,0l0,0l0,0l0,0l0,0l0,0l0,0l0,0l0,0l0,0c0,0,0,0,0.1,0l0,0h0.1V21l0,0v-0.1l0,0V20.8l0,0l0,0
				v-0.3l0,0v-0.1l0,0V19h-0.1l0,0l0,0l0,0l0,0l0,0l0,0l0,0l0,0L29,18.6l0,0l0,0h-0.1l0,0v-0.1h-0.1l0,0l0,0c0,0,0,0-0.1,0l0,0l0,0
				l0,0l0,0l0,0c0,0,0,0-0.1,0c-1.2,0-2.4,0-3.5,0l0,0l0,0l0,0l0,0L25,18.4c0,0,0,0-0.1,0l0,0c0,0,0,0-0.1,0l0,0h-0.1l0,0
				c0,0,0,0-0.1,0h-0.1c-0.3,0-0.7,0-1,0V18.3c-0.8,0-1.5,0-2.3,0c0,0,0,0-0.1,0c-0.2,0-0.4,0-0.6,0l0,0L20.4,18.4l0,0l0,0l0,0l0,0
				l0,0l0,0l0,0l0,0l0,0l0,0l0,0l0,0v0.1c0,0,0,0-0.1,0l0,0l0,0l0,0l0,0l0,0l0,0l0,0h-0.1l0,0l0,0l0,0l0,0h-0.1c0,0,0,0-0.1,0l0,0
				l0,0v0.1l0,0l0,0l0,0l0,0l0,0l0,0l0,0l0,0l0,0l0,0l0,0V18.7l0,0l-0.1,0.1l0,0l0,0l0,0l0,0l0,0l0,0l0,0l0,0l0,0l0,0l0,0l0,0l0,0
				l0,0h-0.1l0,0l0,0l0,0l0,0l0,0l0,0l0,0c0,0,0,0-0.1,0l0,0l0,0l0,0l0,0l0,0l0,0l0,0l0,0l0,0V18.9l0,0c0,0,0,0,0,0.1s0,0,0,0
				s0,0,0,0.1c0,0.101,0,0.101,0,0.101s0,0,0,0.1c0,0,0,0,0,0.101v0.1c0,0,0,0,0,0.1c0,0.101,0,0,0,0.101c0,0.1,0,0.1,0,0.1
				s0,0,0,0.101l0,0V20c0,0,0,0,0,0.1l0,0L19.6,20.2c0,0,0,0,0,0.1c0,0,0,0-0.1,0c0,0,0,0,0,0.101c0,0,0,0-0.1,0.1c0,0,0,0-0.1,0
				l0,0h-0.1c0,0,0,0-0.1,0c0,0,0,0-0.1,0l0,0c-2.2,0-4.4,0-6.6,0c-0.8,0-1.5,0-2.3,0c-0.7,0-1.4,0-2.1,0l0,0c0,0,0,0-0.1,0v-0.1
				l0,0l0,0V20.3H7.8l0,0c0-0.1,0-0.1,0-0.2l0,0c-0.1,0-0.2,0-0.2,0V20l0,0c0,0,0,0,0-0.1l0,0c0,0,0,0,0-0.101c-0.7,0-1.4,0-2.1,0
				V19.9c0,0.1,0,0.1,0,0.199c0,0.101,0,0.101,0,0.2c0,0.101,0,0.101,0,0.2s0,0.2,0,0.3c0,0.101,0,0.101,0,0.2s0,0.1,0,0.2
				c0,0.1,0,0.1,0,0.2c0,0.1,0,0.1,0,0.199c0,0.101,0,0.101,0,0.2c0,0.101,0,0.101,0,0.2c0,0,0,0,0,0.1v0.4c-0.1,0-0.2,0-0.4,0l0,0
				c-0.3,0-0.7,0-1,0v0.3c0,0,0,0-0.1,0v0.4l0,0c0,0,0,0-0.1,0s-0.3,0-0.5,0l0,0l0,0l0,0H3.3l0,0c0,0,0,0-0.1,0c-0.1,0-0.2,0-0.2,0
				c-0.1,0-0.2,0-0.3,0l0,0V23.1V23v-0.1c0-0.101,0-0.101,0-0.101v-0.1c0,0,0,0,0-0.101c0-0.1,0-0.1,0-0.1v-0.1V22.3v-0.1
				c0-0.101,0-0.101,0-0.101V22v-0.1V21.8v-0.1c0,0,0,0,0-0.101c0-0.1,0-0.1,0-0.1v-0.1c0,0,0.1,0,0.2,0V21.1l0,0l0,0
				c0-0.1,0-0.1,0-0.199c0-0.101,0-0.101,0-0.2c0-0.101,0-0.101,0-0.2s0-0.1,0-0.2c0-0.1,0-0.1,0-0.2c0-0.1,0-0.1,0-0.199
				c0-0.101,0-0.101,0-0.2c0-0.101,0-0.2,0-0.3c0,0,0-0.101,0-0.2c0-0.101,0-0.101,0-0.2s0-0.2,0-0.2c0-0.1,0-0.2,0-0.2
				s0-0.1,0-0.199c0,0,0-0.101,0-0.2c0-0.101,0-0.2,0-0.2c0-0.1,0-0.1,0-0.2c0-0.1,0-0.1,0-0.2c0-0.1,0-0.1,0-0.199
				c0-0.101,0-0.101,0-0.2c0-0.101,0-0.101,0-0.2s0-0.2,0-0.3c0,0,0-0.101,0-0.2c0-0.1,0-0.1,0-0.2c0-0.1,0-0.1,0-0.2s0-0.1,0-0.2
				s0-0.2,0-0.3c0,0,0-0.1,0-0.2s0-0.2,0-0.2c0-0.1,0-0.1,0-0.2s0-0.1,0-0.2c0-0.1,0-0.1,0-0.2l0,0l0,0l0,0c0,0,0,0,0-0.1
				c0,0,0,0,0-0.1c0,0,0,0,0-0.1l0,0v-0.1c0,0,0,0,0-0.1V14l0,0c0,0,0,0,0-0.1l0,0c0,0,0,0,0-0.1c0,0,0,0,0-0.1c0,0,0,0,0-0.1
				c0,0,0,0,0-0.1V14c0,0,0,0,0-0.1c0,0,0,0,0-0.1c0-0.1,0-0.1,0-0.1s0,0,0-0.1l0,0c0,0,0,0,0-0.1s0,0,0-0.1v-0.1H0.7l0,0v-0.2V13
				v-0.3c-0.1,0-0.1,0-0.2,0v-0.3c0.3,0,0.5,0,0.8,0l0,0c0.3,0,0.5,0,0.8,0v0.3H2l0,0c0.5,0,0.9,0,1.4,0V13h0.1l0,0
				c0,0.1,0,0.1,0,0.2c0,0.1,0,0.2,0,0.2c0,0.1,0,0.1,0,0.2s0,0.1,0,0.2c0,0.1,0,0.1,0,0.2c0,0,0,0.1,0,0.2c0,0.1,0,0.1,0,0.2
				s0,0.2,0,0.3c0,0.1,0,0.1,0,0.2s0,0.1,0,0.2s0,0.1,0,0.2c0,0.1,0,0.1,0,0.2s0,0.2,0,0.3c0,0,0,0.1,0,0.2c0.8,0,1.5,0,2.3,0
				c0-0.1,0-0.1,0-0.2c0-0.1,0-0.1,0-0.2s0-0.1,0-0.2s0-0.1,0-0.1h0.1c0.1,0,0.1,0,0.2,0c1.1,0,2.2,0,3.3,0c0-0.1,0-0.1,0-0.2V15
				v-0.1v-0.1c0-0.1,0-0.1,0-0.1v-0.1v-0.1l0,0c-0.9,0-1.9,0-2.8,0v-0.1c-0.1,0-0.2,0-0.4,0V14l0,0v-0.3l0,0l0,0c0,0,0-0.1,0-0.2
				v-0.1c0-0.1,0-0.1,0-0.2c0-0.1,0-0.1,0-0.1s0-0.1,0-0.2v-0.1c0,0,0-0.1,0-0.2v-0.1c0-0.1,0-0.1,0-0.2c0-0.1,0-0.1,0-0.2V12
				c0,0,0-0.1,0-0.2v-0.1c0-0.1,0-0.1,0-0.1v-0.1c0-0.1,0-0.1,0-0.2v-0.1c0,0,0-0.1,0-0.2l0,0v-0.3l0,0v-0.1h0.1V9.9h0.1V9.8
				c0.1,0,0.1,0,0.2,0l0,0c0.1,0,0.2,0,0.4,0c3.1,0,6.3,0,9.4,0c0.1,0,0.2,0,0.3,0c0.4,0,0.9,0,1.3,0l0,0l0,0c0.2,0,0.5,0,0.8,0
				c0.2,0,0.4,0,0.6,0h0.2c0.4,0,0.7,0,1.1,0l0,0c0.1,0,0.2,0,0.3,0l0,0l0,0l0,0l0,0v0.5l0,0l0,0v0.1l0,0v0.1l0,0l0,0l0,0l0,0
				l-0.1,0.1l0,0l0.1,0.3l0,0L20.9,11l0,0v0.1h-0.1l0,0l-0.1,0.1l0,0l0,0l-0.1,0.1l0,0l-0.1,0.1l0,0l0,0l0,0l0,0v0.1h-0.1l0,0l0,0
				l0,0c0,0,0,0-0.1,0V12l0,0l0,0l0,0v0.1l0,0l-0.1,0.1l0,0l0,0l0,0l0,0l0,0l0,0l0,0l-0.1,0.1l0,0l0,0L20,12.4l0,0l0,0v0.1l0,0l0,0
				l0,0l0,0l0,0l0,0l0,0l0,0l0,0l0,0l0,0l0,0l0,0l-0.1,0.1l0,0l0,0l0,0l0,0l0,0l0,0l0,0l0,0l-0.1,0.1l0,0l-0.1,0.1l0,0h-0.1
				l-0.1,0.1l0,0l0,0l0,0l0,0h-0.1l0,0l0,0l0,0h-0.1l0,0c0,0,0,0-0.1,0l0,0l0,0h-0.1l0,0L19,13l0,0l0,0c0,0,0,0-0.1,0l0,0h-0.1l0,0
				h-0.1c-1.3,0-2.6,0-3.9,0v0.1l0,0v0.1l-0.1,0.1c0,0,0,0,0,0.1v0.1l0,0c0,0,0,0,0,0.1v0.1c0,0,0,0,0,0.1l0,0v0.1c0,0,0,0,0,0.1
				l0,0v0.1c0.9,0,1.9,0,2.8,0c0.6,0,1.2,0,1.8,0l0,0l0,0l0,0l0,0l0,0c0,0,0,0,0.1,0l0,0l0,0l0,0l0,0l0,0l0,0l0,0l0,0l0,0l0.1-0.1
				l0,0l0,0v-0.1l0,0l0,0l0,0l0,0l0,0l0,0l0,0v-0.1l0,0l0,0c0,0,0,0,0.1,0l0,0c0,0,0,0,0.1,0l0,0l0,0l0,0l0,0l0,0l0,0v-0.1l0,0l0,0
				v-0.1l0,0l0,0l0,0l0,0l0,0v-0.1l0,0l0,0c0,0,0,0,0.1,0l0,0l0,0l0,0l0,0l0,0l0,0l0,0l0,0l0,0l0,0v-0.1l0,0l0,0l0,0c0,0,0,0,0.1,0
				l0,0l0,0v-0.1l0,0l0,0V13l0,0l0,0l0,0l0,0l0,0l0,0l0,0l0,0l0,0l0,0l0,0l0,0l0,0l0,0l0,0l0.1-0.1l0,0l0,0l0,0l0,0l0,0v-0.1l0,0
				l0,0l0,0l0,0l0,0l0,0l0,0V12l0,0l0,0l0,0l0,0l0,0l0,0c0,0,0,0,0.1,0l0,0l0,0l0,0l0,0l0,0l0,0l0,0l0,0v-0.1l0,0l0,0
				c0.1,0,0.1,0,0.2,0l0,0c0.2,0,0.4,0,0.7,0l0,0c0.1,0,0.2,0,0.3,0h0.1h0.1c0.1,0,0.1,0,0.2,0l0,0c0.3,0,0.5,0,0.8,0h0.3l0,0l0,0
				l0,0l0,0l0,0l0,0h0.1l0,0v-0.1v-0.1c0,0,0,0,0-0.1c0,0,0,0,0-0.1v-0.1v-0.1c0,0,0,0,0-0.1c0,0,0,0,0-0.1c0,0,0.1,0,0.1-0.1
				c0,0,0,0,0.1,0l0,0v-0.2l0,0h0.1c0.6,0,1.1,0,1.7,0v-1c-0.4,0-0.9,0-1.3,0c-0.1,0-0.2,0-0.3,0c0,0,0,0-0.1,0V9.1
				c0.1,0,0.1,0,0.2,0c0.7,0,1.4,0,2.1,0l0,0l0,0l0,0l0,0l0,0h0.1l0,0l0,0l0,0l0,0c0.2,0,0.3,0,0.5,0c0,0,0,0,0.1,0l0,0h0.1l0,0l0,0
				v0.1l0,0v0.3c0.8,0,1.6,0,2.4,0v0.1h0.1v0.1v0.1l0,0c0,0,0,0,0,0.1V10c0,0,0,0,0,0.1s0,0,0,0.1l0,0v0.1l0,0c0,0,0,0,0,0.1l0,0
				c1.1,0,2.3,0,3.5,0v-0.1c0-0.1,0-0.1,0-0.2s0-0.1,0-0.2s0-0.1,0-0.2c0-0.1,0-0.2,0-0.3c0,0,0-0.1,0-0.2c0-0.1,0-0.1,0-0.2
				s0-0.1,0-0.2c0-0.1,0-0.1,0-0.2s0-0.2,0-0.3c0,0,0-0.1,0-0.2s0-0.2,0-0.2c0-0.1,0-0.1,0-0.2c-0.2,0-0.5,0-0.7,0l0,0l0,0l0,0h-0.1
				l0,0l0,0l0,0l0,0l0,0l0,0l0,0c0,0,0,0-0.1,0l0,0l0,0h-0.1l0,0h-0.1c-2.2,0-4.3,0-6.5,0l0,0c-0.1,0-0.2,0-0.3,0H26
				c0-0.1,0-0.1,0-0.1V7.5V7.4l0,0c0-0.1,0-0.1,0-0.2c0,0,0-0.1,0-0.2s0-0.1,0-0.2c0,0,0-0.1,0-0.2s0-0.1,0-0.2V6.3
				c0-0.1,0-0.1,0-0.2s0-0.1,0-0.2V5.8c0-0.1,0-0.1,0-0.2s0-0.1,0-0.2c0,0,0-0.1,0-0.2c0-0.1,0-0.1,0-0.2c0,0,0-0.1,0-0.2
				c0.1,0,0.3,0,0.4,0l0,0c2.2,0,4.4,0,6.5,0v0.1c0,0,0.1,0,0.2,0l0,0h0.1l0,0h0.1h0.1l0,0h0.1V5c0,0,0,0,0.1,0l0,0l0,0l0,0l0,0
				c0.2,0,0.3,0,0.5,0V4.9c0-0.1,0-0.2,0-0.2c0-0.1,0-0.1,0-0.2c0,0,0-0.1,0-0.2c0.1,0,0.2,0,0.3,0c0,0,0,0,0.1,0c0.8,0,1.6,0,2.4,0
				v0.4l0,0c0,0.1,0,0.1,0,0.2V5c0.6,0,1.3,0,1.9,0V4.8c0,0,0,0,0.1,0V4.7c0.2,0,0.3,0,0.5,0l0,0c0,0,0,0-0.1,0V4.1l0,0l0,0l0,0V3.9
				c0.1,0,0.2,0,0.3,0l0,0V3.8V3.7V3.6V3.5V3.4l0,0V3.1c0.5,0,1,0,1.5,0v0.2c0.1,0,0.1,0,0.2,0v0.5l0,0v0.1c0,0,0,0,0,0.1l0,0
				c0.1,0,0.2,0,0.2,0v0.7c0.2,0,0.4,0,0.6,0v0.2l0,0l0,0l0,0l0,0l0,0l0,0l0,0l0,0c0.4,0,0.9,0,1.3,0c0-0.1,0-0.1,0-0.2V4.6l0,0V4.4
				c0.8,0,1.5,0,2.3,0c0.1,0,0.2,0,0.4,0v0.2v0.1v0.1c0,0.1,0,0.1,0,0.2c0.7,0,1.4,0,2.1,0l0,0l0,0h0.1l0,0c0,0,0,0,0.1,0s0,0,0,0
				h0.1h0.1h0.1h0.1h0.1c0,0,0,0,0.1,0l0,0l0,0c0,0,0,0,0.1,0c0,0,0,0,0.1,0l0,0c0,0,0.1,0,0.2,0h0.1h0.1l0,0l0,0c0,0,0.101,0,0.2,0
				l0,0l0,0c0,0,0,0,0.101,0l0,0H50h0.1l0,0c0,0,0.101,0,0.2,0l0,0H50.4h0.1l0,0h0.1C50.7,5,50.7,5,50.7,5l0,0h0.1
				C50.9,5,50.9,5,51,5l0,0h0.1l0,0H51.2c0.1,0,0.1,0,0.2,0l0,0l0,0c0,0,0,0,0.1,0l0,0c0.1,0,0.2,0,0.3,0C51.9,5,51.9,5,52,5l0,0
				c0,0,0.1,0,0.2,0l0,0h0.1H52.4c0.1,0,0.1,0,0.199,0C52.7,5,52.7,5,52.8,5l0,0c0,0,0,0,0.101,0l0,0H53l0,0l0,0V3.6l0,0l0,0
				c0.1,0,0.2,0,0.3,0v0.1c1.9,0,3.8,0,5.7,0l0,0h0.1c0.101,0,0.2,0,0.4,0v0.2V4v0.1c0,0,0,0.1,0,0.2c0,0.1,0,0.1,0,0.2s0,0.1,0,0.2
				c0,0.1,0,0.1,0,0.2s0,0.2,0,0.3c0,0,0,0.1,0,0.2s0,0.2,0,0.2c0,0.1,0,0.1,0,0.2c0,0,0,0.1,0,0.2s0,0.1,0,0.2c0,0,0,0.1,0,0.2
				s0,0.1,0,0.2s0,0.1,0,0.2c0,0.1,0,0.1,0,0.2s0,0.1,0,0.2c0,0.1,0,0.2,0,0.3s0,0.1,0,0.2c0,0.1,0,0.2,0,0.3s0,0.1,0,0.2
				c0,0.1,0,0.1,0,0.2s0,0.1,0,0.2c0,0,0,0.1,0,0.2c-0.1,0-0.2,0-0.4,0l0,0c-1.899,0-3.8,0-5.699,0l0,0c-0.2,0-0.4,0-0.601,0
				c-0.1,0-0.1,0-0.2,0l0,0c0,0-0.1,0-0.199,0c0,0,0,0-0.101,0c-0.1,0-0.1,0-0.2,0l0,0H52c-0.1,0-0.1,0-0.1,0l0,0
				c-0.101,0-0.101,0-0.2,0H51.6c0,0,0,0-0.1,0s-0.1,0-0.1,0H51.3h-0.1H51.1c-0.1,0-0.1,0-0.1,0h-0.1H50.8l0,0c-0.1,0-0.1,0-0.1,0
				s-0.101,0-0.2,0h-0.1c-0.101,0-0.101,0-0.101,0c-0.1,0-0.1,0-0.2,0H50C51.1,8,51,8,51,8h-0.1H50.8c-0.1,0-0.1,0-0.1,0H50.6l0,0
				h-0.1l0,0c0,0,0,0-0.1,0l0,0c0,0,0,0-0.101,0h-0.1H50.1H50c-0.1,0-0.1,0-0.1,0S49.8,8,49.7,8c-0.9,0-1.8,0-2.8,0l0,0h-0.1
				c0,0.1,0,0.1,0,0.1c0,0.1,0,0.1,0,0.2c0,0.1,0,0.1,0,0.2s0,0.1,0,0.2c0,0,0,0.1,0,0.2s0,0.1,0,0.2s0,0.2,0,0.3c0,0,0,0.1,0,0.2
				s0,0.1,0,0.2c0,0.1,0,0.1,0,0.2s0,0.1,0,0.2c0,0.1,0,0.2,0,0.3v0.1c4.9,0,9.8,0,14.7,0l0,0c0,0,0,0,0-0.1c0,0,0,0,0-0.1l0,0
				c0,0,0,0,0-0.1l0,0c0,0,0,0,0-0.1V9.7c0,0,0,0,0-0.1l0,0c0,0,0,0,0-0.1s0,0,0-0.1c0,0,0,0,0-0.1l0,0V8.8c0.1,0,0.1,0,0.2,0V8.7
				c0.899,0,1.7,0,2.6,0l0,0c0.101,0,0.2,0,0.3,0c0,0,0,0,0.101,0l0,0l0,0l0,0h0.1l0,0l0,0l0,0H64.9l0,0l0,0l0,0H65l0,0
				c0,0,0,0,0.1,0l0,0c0.301,0,0.601,0,0.9,0l0,0l0,0l0,0c0,0,0,0,0.1,0v0.1l0,0l0,0l0,0l0,0v0.1l0,0V9l0,0v0.1l0,0v0.1l0,0l0,0l0,0
				l0,0l0,0v0.1l0,0v0.1l0,0v0.4c1,0,2,0,3,0c0,0,0,0,0.101,0h0.1l0,0c2.2,0,4.4,0,6.601,0v0.3c0.199,0,0.3,0,0.5,0v0.3
				c-0.101,0-0.301,0-0.4,0v0.2l0,0c0.1,0,0.2,0,0.3,0v0.1l0,0v0.4c0,0,0,0-0.1,0v0.1c0,0,0,0.1,0,0.2v0.1c0,0,0,0.1,0,0.2v0.1v0.1
				c0,0.1,0,0.1,0,0.2s0,0.1,0,0.1c0,0.1,0,0.1,0,0.2v0.1c0,0.1,0,0.1,0,0.2v0.1c0,0.1,0,0.1,0,0.2v0.1c3,0,6.1,0,9.1,0V13v-0.1
				v-0.1c0,0,0,0,0.101,0c0.1,0,0.3,0,0.399,0V13v0.1H85.9l0,0c0.199,0,0.399,0,0.6,0v-0.3c0.1,0,0.1,0,0.2,0v0.1V13l0,0l0.1,0.1
				l0,0c0,0,0,0,0.101,0V13c0,0,0-0.1,0-0.2c0,0,0,0,0-0.1c0.1,0,0.1,0,0.199,0l0,0H87.2v0.1l0,0V13c1.6,0,3.2,0,4.8,0v-0.2
				c0.1,0,0.3,0,0.4,0V13c1.3,0,2.6,0,3.899,0v0.2c0,0,0,0,0,0.1c0,0,0,0,0,0.1l0,0C96.9,14.1,96.9,14.1,96.9,14.2L96.9,14.2z
				 M63.3,10.2c0.5,0,1,0,1.5,0V10c-0.5,0-1,0-1.5,0V10.2z M43.9,5.5L43.9,5.5L43.9,5.5L43.9,5.5z M40,7.8c-0.3,0-0.6,0-0.9,0V7.5
				c-0.6,0-1.3,0-1.9,0l0,0h-0.1l0,0c0,0.1,0,0.1,0,0.2c0,0.1,0,0.1,0,0.2c0,0,0,0.1,0,0.2s0,0.1,0,0.2c0,0.1,0,0.1,0,0.2
				s0,0.1,0,0.2c0,0.1,0,0.1,0,0.2h0.1c2.2,0,4.5,0,6.7,0c0,0,0,0,0-0.1c0-0.1,0-0.2,0-0.3c0,0,0-0.1,0-0.2c0-0.1,0-0.2,0-0.2
				c0-0.1,0-0.1,0-0.2s0-0.1,0-0.2c0-0.1,0-0.1,0-0.2s0-0.1,0-0.2c-0.3,0-0.6,0-0.9,0h-0.1c-0.1,0-0.3,0-0.4,0v0.3c-0.3,0-0.7,0-1,0
				v0.3c-0.5,0-1,0-1.5,0V7.8z M33.4,19v0.1l0,0V19.4c0,0,0,0-0.1,0l0,0l0,0v0.1v0.1c0,0.101,0,0.101,0,0.101v0.1V19.9V20v0.1
				c0,0,0,0,0,0.101c0,0.1,0,0.1,0,0.1V20.4c0,0,0,0,0,0.1v0.1c0,0,0,0,0,0.101l0,0l0,0v0.1l0.1,0.101V21l0,0l0,0l0,0l0,0h0.1l0,0
				l0,0l0,0c0,0,0,0,0.1,0c0,0,0,0,0.1,0c0,0,0,0,0.1,0h0.1c1,0,2.1,0,3.1,0h0.1h0.1h0.1v-0.1c0,0,0,0,0.1,0l0,0V20.8l0,0l0,0
				l0.1-0.1l0,0c0,0,0,0,0.1,0l0,0l0,0c0,0,0,0,0-0.101c0,0,0,0,0-0.1s0-0.1,0-0.1s0,0,0-0.101l0,0c0-0.1,0-0.1,0-0.1V20.1V20l0,0
				v-0.1c0,0,0,0,0-0.101c0,0,0,0,0-0.1V19.6l0,0v-0.1c0,0,0,0,0-0.1V19.3l0,0V19l0,0l0,0l0,0l0,0v-0.1l0,0V19l-0.1-0.1l0,0
				c0,0,0,0-0.1,0l0,0c-0.5,0-1,0-1.5,0l0,0l0,0l0,0l0,0l0,0l0,0l0,0l0,0c0,0,0,0-0.1,0l0,0c0,0,0,0-0.1,0l0,0l0,0l0,0l0,0l0,0l0,0
				l0,0L35.6,19l0,0l0,0L35,19.7c0,0,0,0-0.1,0l0,0l0,0l0,0l0,0l0,0L34.8,20l0,0l0,0v0.1l0,0l0,0l0,0V20.2h-0.1v0.1l0,0l0,0v0.2l0,0
				v0.2l0,0v0.1l0,0l0,0l0,0l0,0V21h-0.1h-0.1h-0.1l0,0l0,0h-0.1l0,0l0,0l-0.1-0.1V20.8l0,0v-0.1l0,0l0,0l0,0V21l0,0v-0.1l0,0V20.6
				l0,0v-0.1l0,0l0,0c0,0,0,0,0-0.1l0,0c0,0,0,0,0-0.101v-0.2c0,0,0,0,0-0.1l0,0v-0.1V19.8v-0.1V19.6c0,0,0,0,0-0.1l0,0v-0.1V19.3
				l0,0V19c-0.1,0-0.2,0-0.3,0l0,0C33.7,19,33.6,19,33.4,19L33.4,19L33.4,19L33.4,19L33.4,19z M22.1,11.8
				C22.1,11.8,22.2,11.8,22.1,11.8L22.1,11.8L22.1,11.8L22.1,11.8z M3.5,17.2c0,0.1,0,0.1,0,0.2c0,0.1,0,0.1,0,0.199
				c0,0.101,0,0.2,0,0.2c0,0.101,0,0.101,0,0.2s0,0.1,0,0.2c0,0.1,0,0.1,0,0.2c0,0.1,0,0.1,0,0.199c0,0.101,0,0.2,0,0.301
				c0,0,0,0.1,0,0.199c0,0.101,0,0.101,0,0.2c0,0.101,0,0.2,0,0.2s0,0.1,0,0.2c0,0.1,0,0.1,0,0.2V20c0.7,0,1.4,0,2.1,0
				c0,0,0,0,0-0.1l0,0V19.8l0,0c0.1,0,0.1,0,0.2,0l0,0l0,0v-0.7l0,0c0-0.1,0-0.1,0-0.199c0-0.101,0-0.101,0-0.2V18.6c0,0,0,0,0-0.1
				s0-0.1,0-0.2c0-0.1,0-0.2,0-0.3c0,0,0-0.1,0-0.2c0-0.1,0-0.1,0-0.2c0-0.1,0-0.1,0-0.199c0-0.101,0-0.101,0-0.2V17.1
				c-0.3,0-0.6,0-0.9,0c0,0-0.1,0-0.2,0c-0.4,0-0.8,0-1.2,0C3.5,17.1,3.5,17.1,3.5,17.2z M14.7,19.8C14.7,19.8,14.8,19.8,14.7,19.8
				C14.8,19.8,14.8,19.8,14.7,19.8L14.7,19.8z"/>
		</g>
	</g>
</g>
<g id="guides">
</g>
<linearGradient id="SVGID_2_" gradientUnits="userSpaceOnUse" x1="-51.4512" y1="-232.7261" x2="-42.0602" y2="-232.7261" gradientTransform="matrix(6.6522 0 0 6.6522 343.1106 1561.9419)">
	<stop  offset="0" style="stop-color:#C216FF"/>
	<stop  offset="0.6452" style="stop-color:#77B9FF"/>
	<stop  offset="1" style="stop-color:#B6CAFF"/>
</linearGradient>
<path fill="url(#SVGID_2_)" fill-opacity="0.5" d="M2.9,13.3l-0.2,9.8c0,0-0.413-0.1,0.987,0.101c0.2,0-0.188-2.5-0.188-2.5
	S4.1,19.1,5.8,19.1c0.4,0,2.138,1.4,2.638,1.4c2.7,0,5.719,0.156,7.656-0.844c0,0-6.906,0.594-10.194-2.356c0,0-0.1,0.3-0.1,1.3
	c-1.6,0.2-2.1,1.601-2.2,1.5c-0.1,0,0.2-2.9,0.1-3S5.9,17,5.9,17l2.381,0.875c0,0,6.719,2.875,11.656-0.563
	c0,0-7.038,1.388-11.138-0.612c0,0,0.3,0.2,5.4-0.4C17.7,16,20.7,15.8,25,15c7-0.8,15.5-0.3,20.5,4.3c0,0-3-6.4-12-6.7
	c0,0,20.1-1.1,30.1,2.4c0,0-4.1-3.563-16.8-4.4c-0.6-0.1-0.2-0.9-0.9-1C42.5,9.3,42,9.1,37,9.3c-0.4,0-0.9-1.6,0.7-1.9
	C48,5.5,51,8,51,8s-1.4-2.7-10.8-2.7l-3-0.1V4.4h-2.7v0.7l-0.6,0.1L33,4.7h-7l0.1,3.1H33l0.5-0.5l-0.819,0.044l0.1,3l-4.188,0.207
	v-0.8L25.75,9.688l-1.219,2.25l-3.875,0.406l-1.094,1.844L14.7,14.1l0.1-1.1l3.856-0.156L18.7,13.7l2.8-3.1l-0.7-0.9H6.9l-0.6,0.7
	l0.1,3.9l3.3,0.2l-0.1,0.9l-3.7,0.1L5.8,16H3.5l-0.2-3L1,12.7l-0.156,0.6H2.9z"/>
</svg>
