<?xml version="1.0" encoding="utf-8"?>
<!-- Generator: Adobe Illustrator 16.0.0, SVG Export Plug-In . SVG Version: 6.00 Build 0)  -->
<!DOCTYPE svg PUBLIC "-//W3C//DTD SVG 1.0//EN" "http://www.w3.org/TR/2001/REC-SVG-20010904/DTD/svg10.dtd">
<svg version="1.0" id="图层_1" xmlns="http://www.w3.org/2000/svg" xmlns:xlink="http://www.w3.org/1999/xlink" x="0px" y="0px"
	 width="89.7px" height="32px" viewBox="0 0 89.7 32" enable-background="new 0 0 89.7 32" xml:space="preserve">
<g id="Selected_Items">
	<g>
		<g id="Selected_Items_63_">
			
				<linearGradient id="SVGID_1_" gradientUnits="userSpaceOnUse" x1="375.1274" y1="-261.5498" x2="463.9814" y2="-261.5498" gradientTransform="matrix(1 0 0 -1 -374.96 -246.5996)">
				<stop  offset="0" style="stop-color:#8F00DB"/>
				<stop  offset="0.6452" style="stop-color:#77B9FF"/>
				<stop  offset="1" style="stop-color:#B6CAFF"/>
			</linearGradient>
			<path fill="url(#SVGID_1_)" d="M26.5,2.1L26.5,2.1C26.5,2.1,26.6,2.1,26.5,2.1L26.5,2.1C26.6,2,26.6,2,26.7,2V1.9l0,0l0,0V1.7
				l0,0V1.1V1V0.8c0.2,0,0.3,0,0.4,0V0.7c0.2,0,0.4,0,0.6,0l0,0c0,0.1,0,0.1,0,0.2s0,0.1,0,0.2s0,0.2,0,0.2c0,0.1,0,0.1,0,0.2
				s0,0.2,0,0.2c0,0.1,0,0.1,0,0.2s0,0.2,0,0.2c0,0.1,0,0.1,0,0.2c0,0.1,0,0.1,0,0.1c0.2,0,0.3,0,0.4,0c0.2,0,0.4,0,0.6,0V2.2
				c0.2,0,0.4,0,0.6,0v0.2l0,0v0.1c0.1,0,0.2,0,0.3,0l0,0V2.4V2.3V2.2V2.1V2C30,2,30,2,30,2V1.9l0,0l0,0c0.3,0,0.6,0,0.9,0l0,0
				c0.2,0,0.4,0,0.6,0c0,0.1,0,0.1,0,0.1v0.2v0.1v0.1v0.1v0.1l0,0c1.5,0,3.1,0,4.6,0V2.1l0,0c1,0,2,0,3,0V2V1.9l0,0V1.8V1.7V1.6V1.5
				l0,0c0.2,0,0.4,0,0.6,0V2l0,0v0.2c0.1,0,0.3,0,0.4,0V3H40v0.1l0,0v0.2l0,0l0,0l0,0v0.1l0,0l0,0l0,0v0.1l0,0l0,0l0,0V4l0,0l0,0
				l0,0v0.1l0,0l0,0v0.1l0,0l0,0l0,0v0.1l0,0v0.1l0,0v0.1l0,0l0,0l0,0l0,0l0,0v0.1l0,0l0,0l0,0v0.1l0,0l0,0l0,0v0.1l0,0v0.1l0,0l0,0
				l0,0V5l0,0l0,0l0,0v0.1l0,0l0,0v0.1l0,0v0.1l0,0v0.2l0,0l0,0l0,0l0,0v0.1l0,0l0,0l0,0l0,0l0,0v0.1c0.5,0,1,0,1.5,0v0.4
				c1.1,0,2.2,0,3.3,0c0.9,0,1.9,0,2.8,0v0.4c8.8,0,17.5,0,26.3,0v0.2c0.101,0,0.2,0,0.399,0v1c0.101,0,0.201,0,0.301,0
				c0-0.1,0-0.1,0-0.2s0-0.2,0-0.3c0-0.1,0-0.2,0-0.3s0-0.2,0-0.3s0-0.1,0-0.2s0-0.2,0-0.3s0-0.2,0-0.3c0-0.1,0-0.2,0-0.3
				s0-0.2,0-0.3c0-0.1,0-0.2,0-0.3s0-0.2,0-0.3s0-0.1,0-0.2s0-0.2,0-0.3s0-0.2,0-0.3c0-0.1,0-0.2,0-0.3s0-0.2,0-0.3
				c0-0.1,0-0.1,0-0.3c0-0.1,0-0.2,0-0.2c0-0.1,0-0.1,0-0.1c0.1,0,0.199,0,0.3,0s0.2,0,0.399,0c0.101,0,0.201,0,0.301,0l0,0l0,0
				c0.1,0,0.1,0,0.1,0l0,0v0.3c0.1,0,0.2,0,0.301,0l0,0h0.1v0.5c0,0.1,0,0.2,0,0.3l0,0c0,0.1,0,0.1,0,0.2c0.1,0,0.199,0,0.3,0v0.4
				H75l0,0c0,0.1,0,0.1,0,0.3c0,0.1,0,0.2,0,0.2c0,0.1,0,0.2,0,0.3s0,0.2,0,0.2c0,0.1,0,0.2,0,0.3s0,0.2,0,0.3s0,0.2,0,0.3
				c0,0.1,0,0.2,0,0.3C75,7,75,7,75,7.1s0,0.2,0,0.2c0.1,0,0.199,0,0.399,0c0.101,0,0.2,0,0.3,0l0,0h0.1l0,0c0,0.1,0,0.1,0,0.2
				s0,0.1,0,0.1c0,0.1,0,0.1,0,0.2c0,0.1,0,0.2,0,0.2c0,0.1,0,0.1,0,0.1v0.1C75.9,8.2,76,8.2,76,8.2v0.1c0.6,0,1.199,0,1.799,0v0.2
				H77.9v0.6c-0.3,0-0.601,0-0.899,0v0.3H76.9l0,0c0.3,0,0.601,0,0.899,0V10c-0.699,0-1.399,0-2.1,0v0.1c2.9,0,5.801,0,8.7,0V10
				c1.5,0,2.899,0,4.399,0H88.9v0.8c0,0.1,0,0.1,0,0.1V11v0.5v0.1v0.1l0,0v0.1v0.1V12H89v0.6c-0.101,0-0.201,0-0.301,0
				s-0.199,0-0.4,0c-1.6,0-3.199,0-4.699,0l0,0c-0.2,0-0.4,0-0.6,0l0,0l0,0v-0.4c-2.601,0-5.101,0-7.701,0v0.4c-0.1,0-0.1,0-0.1,0
				v0.3c-0.1,0-0.199,0-0.4,0l0,0h-0.1V13v0.1v0.1c0,0.1,0,0.1,0,0.1v0.1c0,0.1,0,0.1,0,0.1v0.1c0,0.1,0,0.1,0,0.1v0.1v0.1V14v0.1
				v0.1c0,0.1,0,0.1,0,0.1c0,0.1,0,0.1,0,0.1v0.1v0.1v0.1v0.1c-0.199,0-0.4,0-0.6,0l0,0H74c-0.201,0-0.4,0-0.601,0h-0.2h-0.1v-0.7
				h0.1V14v-0.1c0-0.1,0-0.1,0-0.1v-0.1v-0.1v-0.1v-0.1c0-0.1,0-0.1,0-0.1v-0.1c0-0.1,0-0.1,0-0.1c0-0.1,0-0.1,0-0.1
				c-0.1,0-0.199,0-0.3,0h-0.101v-0.3c-0.1,0-0.199,0-0.399,0l0,0l0,0v0.2V13l0,0v0.1v0.1v0.1l0,0v0.1v0.1v0.1V14v0.1v0.1v0.1l0,0
				l0,0v0.1c-0.2,0-0.399,0-0.601,0l0,0l0,0v0.1l0,0v0.1l-0.1,0.1l0,0l0,0l0,0v0.1V15v0.1v0.1c0,0.1,0,0.1,0,0.1v0.1v0.1
				c-0.199,0-0.3,0-0.5,0l0,0l0,0v0.1l0,0V16c-0.3,0-0.5,0-0.8,0l0,0c-6.2,0-12.3,0-18.5,0v0.2c-0.2,0-0.5,0-0.7,0V16l0,0v-0.1l0,0
				l0,0l0,0l0,0v-0.1l0,0c-2.199,0-4.4,0-6.6,0l0,0l0,0l0,0h-0.1l0,0h-0.1h-0.1l0,0l0,0l0,0h-0.1l0,0l0,0h-0.1l0,0H44h-0.1l0,0h-0.1
				l0,0l0,0h-0.1l0,0l0,0l0,0l0,0l0,0l0,0l0,0l0,0l0,0l0,0l0,0l0,0c0,0.1,0,0.1,0,0.2s0,0.1,0,0.2c0,0.1,0,0.1,0,0.1
				c0,0.1,0,0.1,0,0.2c0,0.1,0,0.2,0,0.2v0.1c0,0.101,0,0.101,0,0.2v1c0.1,0,0.2,0,0.4,0v0.6c-0.2,0-0.4,0-0.7,0l0,0V19.9l0,0V20.3
				l0,0v0.4l0,0V21l0,0v0.3l0,0v0.5l0,0l0,0v0.4l0,0l0,0l0,0v0.2l0,0V23l0,0l0,0l0,0v0.2l0,0l0,0v0.2l0,0l0,0l0,0v0.1l0,0l0,0l0,0
				l0,0l0,0v0.3h0.1V24l0,0v0.1l0,0V24.2v0.1l0,0l0,0v0.2l0,0v0.1l0.1,0.101v0.2l0,0l0,0V25l0,0v0.1l0,0v0.2l0,0V25.4v0.1v0.1l0,0
				V25.7l0,0l0,0l0,0v0.1l0,0l0,0V27l0,0v0.1l0,0V27.2v0.1l0,0l0,0l0,0V27.4l0,0l0,0l0,0V27.6l0,0V28l0,0l0,0l0,0l0,0l0,0v0.2h0.1
				l0,0l0,0v0.1l0,0l0,0l0,0l0,0l0,0l0,0l0,0h0.1l0,0V28.9l0,0V29c-0.1,0-0.1,0-0.2,0v0.1c-0.1,0-0.2,0-0.3,0l0,0h-0.1h-0.1l0,0H43
				l0,0h-0.1h-0.1h-0.1l0,0L42.6,29.2h-0.1l0,0h-0.1l0,0h-0.1h-0.1l0,0l0,0h-0.1l0,0H42h-0.1l0,0h-0.1h-0.1l0,0h-0.1
				c-0.1,0-0.1,0-0.1,0h-0.1h-0.1l0,0h-0.1l0,0h-0.1l0,0c-0.1,0-0.1,0-0.1,0h-0.1h-0.1h-0.1h-0.1h-0.1l0,0h-0.1l0,0l0,0
				c-0.1,0-0.1,0-0.1,0c-0.1,0-0.2,0-0.3,0l0,0h-0.1l0,0c-0.1,0-0.1,0-0.2,0h-0.1l0,0h-0.1h-0.1c-0.1,0-0.1,0-0.1,0h-0.1l0,0h-0.1
				H39c-0.1,0-0.1,0-0.1,0c-0.1,0-0.2,0-0.3,0l0,0c-0.1,0-0.1,0-0.1,0l0,0h-0.1c-0.2,0-0.5,0-0.8,0v-0.3l0,0l0,0v-0.2l0,0l0,0v-0.2
				l0,0v-0.2l0,0v-0.2l0,0v-0.3h-0.1v-0.3l0,0v-0.1l0,0V27.3l0,0l0,0l0,0v-0.1l0,0V27l-0.1-0.1V29l0,0v-0.1l0,0V28.8l0,0v-0.1l0,0
				V28.6l0,0v-0.3h-0.1V28l0,0v-0.1l0,0v-0.2l0,0V27.6l0,0v-0.3l0,0V27l0,0l0,0v-0.2l0,0v-0.1l0,0v-0.2l0,0l0,0l0,0v-0.2l0,0v-0.1
				l0,0V26.1l0,0V26l0,0v-0.1l0,0V25.8l0,0v-0.1l0,0V25l0,0v-0.1l0,0V24.8l0,0v-0.1l0,0V24.6l0,0v-0.1l0,0v-0.2l0,0V24l0,0v-0.1l0,0
				V23.8l0,0v-0.1l0,0v-0.4l0,0l0,0V23l0,0v-0.4l0,0V22.4l0,0v-0.2l0,0V22l0,0v-1l0,0l0,0l0,0v-0.4l0,0v-0.3l0,0v-0.1l0,0V20l0,0
				v-0.1l0,0c-2.2,0-4.5,0-6.7,0c-0.1,0-0.2,0-0.3,0V20.1l0,0l0,0h-0.1V20l0,0v0.1l0,0l0,0l0,0v0.2l0,0h-0.1V20.4l0,0l0,0L30,20.5
				V21l0,0v0.1l0,0l0,0l0,0l0,0l0,0l0,0l0,0l0,0l0,0l0,0l0,0l0,0V21.2l-0.1,0.1l0,0l0,0V21.4l0,0l0,0l-0.1,0.1v0.1h-0.1V21.7l0,0
				l0,0l0,0l0,0l0,0l0,0v0.1l0,0l0,0l0,0l0,0l0,0l0,0l0,0V23l0,0l0,0v0.1l0,0l0,0l0,0l0,0l0,0l0,0l0,0V23.2h-0.1v0.1l0,0l0,0l0,0
				V23.4l0,0l0,0l0,0l0,0V23.6l0,0l0,0V23.7l0,0l0,0l0,0v0.1l0,0V23.9l0,0V24l0,0v0.2h-0.1v0.3l0,0v0.1l0,0V25.2l0,0l0,0
				c-0.2,0-0.5,0-0.7,0l0,0l0,0l0,0h-0.1h-0.1l0,0l0,0l0,0c-0.1,0-0.1,0-0.1,0h-0.1h-0.1h-0.1l0,0h-0.1H28h-0.1l0,0h-0.1l0,0h-0.1
				l0,0h-0.1h-0.1h-0.1l0,0c-0.1,0-0.1,0-0.1,0h-0.1L27.1,25.1H27l0,0l0,0l0,0h-0.1l0,0l0,0h-0.1h-0.1h-0.1l0,0H21l0,0l0,0l0,0l0,0
				h-0.1h-0.1h-0.1l0,0c-0.1,0-0.1,0-0.1,0l0,0h-0.1l0,0h-0.1l0,0l0,0c-0.1,0-0.1,0-0.1,0h-0.1l0,0h-0.1l0,0l0,0H20h-0.1l0,0h-0.1
				l0,0c-0.1,0-0.1,0-0.2,0l0,0h-0.1l0,0h-0.1h-0.1h-0.1l0,0l0,0l0,0l0,0h-0.1V25l0,0v-0.7l0,0V23l0,0v-0.1l0,0v-0.2l0,0l0,0l0,0
				V22.6l0,0l0,0l0,0l0,0l0,0l0,0v-0.1l0,0l0,0l0,0l0,0l0,0v-0.1l0,0l0,0l0,0l0,0l0.1-0.101l0,0l0,0v-0.1l0.1-0.101l0,0l0,0l0,0
				l0.1-0.1l0,0l0,0l0,0l0,0l0,0h0.1l0,0l0,0l0,0l0,0l0,0l0,0l0,0l0,0h0.1l0,0l0,0l0,0v-0.1l0,0l0,0l0,0l0,0l0,0l0,0l0,0l0,0l0,0
				h0.1l0,0l0,0l0,0l0,0l0,0V21.8l0,0l0,0l0,0l0,0l0,0l0,0l0,0l0.1-0.1l0,0l0,0l0,0l0,0l0,0l0.1-0.101l0,0l0,0l0,0l0,0l0,0l0,0l0,0
				l0,0l0,0l0,0l0,0l0,0l0,0l0,0l0,0v-0.1l0,0l0,0v-0.1l0,0V21.3l0,0l0,0v-0.1l0,0l0,0V21H20v-0.2l0,0V17l0,0v-0.2h-0.1v-0.1l0,0
				l0,0l0,0l0,0l0,0l-0.2-0.2l0,0l0,0l0,0l0,0h-0.1l0,0h-0.1l0,0l0,0h-0.1h-0.1c-0.1,0-0.2,0-0.3,0l0,0l0,0h-0.1c-0.1,0-0.1,0-0.1,0
				h-0.1h-0.1l0,0l0,0c-0.1,0-0.1,0-0.1,0c-0.1,0-0.1,0-0.2,0c-0.1,0-0.1,0-0.1,0c-0.1,0-0.2,0-0.4,0v-0.2c-0.1,0-0.1,0-0.2,0l0,0
				v-0.1v-0.1c0-0.1,0-0.1,0-0.1v-0.1c0-0.1,0-0.1,0-0.1c0-0.1,0-0.1,0-0.1v-0.1l0,0c0-0.1,0-0.1,0-0.1c0-0.1,0-0.1,0-0.1v-0.1v-0.1
				v-0.1V15c0-0.1,0-0.1,0-0.1v-0.1l0,0c-0.2,0-0.3,0-0.5,0v0.1c-0.1,0-0.2,0-0.3,0V15c0,0.1,0,0.1,0,0.2v0.1c0,0.1,0,0.1,0,0.1
				c0,0.1,0,0.1,0,0.1c0,0.1,0,0.1,0,0.2v0.1c0,0.1,0,0.1,0,0.1c0,0.1,0,0.1,0,0.2v0.1c0,0.1,0,0.1,0,0.1l0,0V16.9
				c-0.1,0-0.1,0-0.2,0V16c-1,0-1.9,0-3,0v0.9h-0.1v0.3c-0.2,0-0.4,0-0.6,0l0,0h-0.1l0,0c-0.1,0-0.1,0-0.2,0s-0.2,0-0.4,0
				c-0.2,0-0.4,0-0.6,0l0,0l0,0V17.6h-0.1V17.9l0,0V18c-0.1,0-0.3,0-0.4,0c-0.4,0-0.7,0-1.1,0v-0.1V17.8v-0.1V17.6l0,0v-0.1l0,0l0,0
				l-0.1,0.1l0,0l0,0c-0.1,0-0.1,0-0.2,0V17.7c-0.1,0-0.1,0-0.1,0c-0.1,0-0.1,0-0.1,0v0.1l0,0c-0.1,0-0.1,0-0.2,0L9.2,17.9l0,0H9.1
				V18C9,18,9,18,9,18c-0.1,0-0.1,0-0.1,0H8.8v0.1c-0.1,0-0.1,0-0.1,0l0,0c-0.1,0-0.1,0.101-0.1,0.101l0,0C9.9,19,9.9,19,9.9,19
				c-0.1,0-0.1,0-0.1,0v0.1l0,0c-0.1,0-0.1,0-0.1,0V19.2H9.6v0.1l0,0c-0.1,0-0.1,0-0.1,0l0,0H9.4L9.3,19.4l0,0l-0.1,0.1l0,0L8.7,20
				v0.1c-0.4,0-0.8,0-1.3,0V20v-0.9V19v-0.2v-0.1V18.6l0,0c0-0.1,0-0.1,0-0.1H7.3l0,0c-0.1,0-0.1,0-0.2,0v0.1l0,0
				c-0.1,0-0.1,0-0.2,0H6.8l0,0H6.7H6.6V19c-0.1,0-0.1,0-0.1,0c-0.1,0-0.1,0-0.1,0l0,0l0,0l0,0H6.3v0.1l0,0c-0.1,0-0.1,0-0.1,0l0,0
				L6.1,19.2l0,0l0,0H6v0.1l0,0H5.7H5.6l0,0V19.4L5.4,20v0.1c-0.1,0-0.1,0-0.1,0l0,0H5.2V20.2l0,0l-0.1,0.1l0,0L5,20.4l0,0v0.1l0,0
				v0.1H4.9l0,0V20.7H4.8v0.1H4.7V20.9l0,0l0,0V21l0,0H4.6l0,0v0.1l0,0V21.2l0,0c-0.1,0-0.1,0-0.1,0l0,0l-0.1,0.1l0,0l0,0V21.4v0.1
				c-0.1,0-0.1,0-0.1,0v0.1l0,0l0,0V21.7l0,0l0,0v0.1V21.9c0,0,0,0-0.1,0V22l0,0v0.1V22.2H4.1v0.1V22.4v0.1c-0.1,0-0.2,0-0.3,0
				c-0.3,0-0.6,0-0.9,0c-0.1,0-0.2,0-0.4,0c-0.1,0-0.1,0-0.1,0v-0.1V22.3l0,0l0,0v-0.1l0,0V22.1V22H2.3v-0.1l0,0V21.8v-0.1l0,0l0,0
				V21.6l0,0v-0.1l0,0H2.2v-0.1V21.3l0,0v-0.1l0,0l0,0V21.1V21v-0.1H2.1V20.8v-0.1V20.6V21v-0.1l0,0V20.8v-0.1V20.6v-0.1l0,0v-0.1
				l0,0V20.3v-0.1l0,0V20.1H2l0,0l0,0l0,0V20l0,0v-0.1V19.8v-0.1V19.6l0,0v-0.1V19v-0.1l0,0c0,0,0,0-0.1,0l0,0V18.8v-0.1V18.6l0,0
				v-0.1v-0.1l0,0l0,0V18.3l0,0v-0.1V18v-0.1l0,0V17.8l0,0l0,0l0,0v-0.1V17.6v-0.1v-0.1V17.3l0,0l0,0l0,0v-0.1V17.1V17v-0.1V16.8
				l0,0v-0.1V16.6v-0.1H0.3v-0.1l0,0v-0.1v-0.1v-0.1V16v-0.1v-0.1v-0.1v-0.1v-0.1v-0.1v-0.1l0,0v-0.1V15v-0.1l0,0v-0.1v-0.2v-0.1
				l0,0c0-0.1,0-0.1,0-0.1l0,0v-0.1v-0.1l0,0v-0.1V14c0-0.1,0-0.1,0-0.1v-0.1c0-0.1,0-0.1,0-0.1v-0.1v-0.1v-0.1v-0.1
				c0-0.1,0-0.1,0-0.1c0-0.1,0-0.1,0-0.1V13c0-0.1,0-0.1,0-0.1c0-0.1,0-0.1,0-0.1v-0.1v-0.1v-0.1v-0.1v-0.1c0-0.1,0-0.1,0-0.1
				c0-0.1,0-0.1,0-0.1V12v-0.1v-0.1l0,0l0,0v-0.1l0,0v-0.1v-0.1v-0.1v-0.1l0,0v-0.1V9.9V9.8l0,0V9.7V9.5V9.4V9.3V9.2l0,0V9.1V8.9
				h0.1l0,0c0.4,0,0.9,0,1.3,0V9h0.1l0,0l0,0v0.7c6.2,0,12.3,0,18.5,0l0,0l0,0l0,0l0,0l0,0h0.1l0,0V9.6l0,0V9.5l0,0l0,0h0.1l0,0h0.1
				l0,0l0,0l0,0l0,0l0,0l0,0l0.1-0.1l0,0l0,0l0,0l0.1-0.1l0,0l0,0l0,0l0,0h0.1l0,0l0,0l0.2-0.2l0,0l0,0l0,0l0,0l0,0l0,0h0.1h0.1h0.1
				L21.5,9c0.1,0,0.1,0,0.1,0V7.4h0.1V7.2c0.2,0,0.4,0,0.6,0v0.1c2.2,0,4.4,0,6.5,0V6.9l0,0l0,0l0,0V6.1c-0.1,0-0.2,0-0.3,0v0.4l0,0
				c-0.2,0-0.4,0-0.6,0V6.4l0,0V6.1c-0.6,0-1.2,0-1.8,0v0.4l0,0v0.1c-0.2,0-0.4,0-0.6,0V6.3h-0.1l0,0c0-0.1,0-0.2,0-0.2
				c0-0.1,0-0.1,0-0.2s0-0.2,0-0.2c0-0.1,0-0.1,0-0.2s0-0.1,0-0.2c0-0.1,0-0.1,0-0.2s0-0.1,0-0.2s0-0.2,0-0.2c0-0.1,0-0.1,0-0.2
				s0-0.2,0-0.2c0-0.1,0-0.1,0-0.2s0-0.1,0-0.2s0-0.1,0-0.2c0-0.1,0-0.1,0-0.2s0-0.1,0-0.2c0-0.1,0-0.1,0-0.2s0-0.2,0-0.2
				c0-0.1,0-0.1,0-0.2c0-0.1,0-0.1,0-0.2h0.1L26.5,2.1L26.5,2.1L26.5,2.1L26.5,2.1z M42.1,15.6L42.1,15.6L42.1,15.6L42.1,15.6z
				 M33.2,16.4c-0.9,0-1.9,0-2.8,0l0,0v0.1l0,0v0.1l0,0v0.2l0,0V16.9l0,0V17.1l0,0V18l0,0v0.1l0,0V18.2l0,0v0.2l0,0V19
				c0.9,0,1.7,0,2.6,0v-0.3l0,0l0,0l0,0l0,0l0.1-0.101l0,0l0,0h0.1l0,0l0.1-0.1h0.1l0,0l0,0l0.1-0.1l0,0h0.1l0,0h0.1l0,0l0,0H34
				c0-0.101,0-0.101,0-0.101c0-0.1,0-0.1,0-0.1V18.1V18v-0.1V17.8v-0.1l0,0l0,0l0,0h-0.1h-0.1l0,0l0,0l0,0h-0.1V17.6h-0.1l0,0l0,0
				L33.2,16.4L33.2,16.4L33.2,16.4z M28.5,17.1C28.4,17.1,28.4,17.1,28.5,17.1C28.4,17,28.4,17,28.5,17.1L28.4,17
				c-0.1,0-0.2,0-0.3,0c0,0.1,0,0.1,0,0.1c0,0.101,0,0.101,0,0.2V17.4c0,0.1,0,0.1,0,0.1c0,0.1,0,0.1,0,0.1c0,0.101,0,0.101,0,0.2
				V17.9c0,0.1,0,0.1,0,0.1c0,0.1,0,0.1,0,0.2l0,0l0,0l0,0v0.1l0,0l0,0l0,0l0,0h0.1l0,0h0.1l0,0l0,0h0.1l0,0l0,0l0,0h0.1V19
				c0.2,0,0.4,0,0.6,0v-0.1H29V18.8l0,0l0,0l0,0l0,0l0,0l0,0v-0.1l0,0V18.6h-0.1v-0.1l0,0v-0.1l0,0V18.3l-0.1-0.1l0,0l0,0l0,0l0,0
				l0,0V18.1l0,0l0,0l0,0V18l0,0v-0.1l0,0l0,0C28.5,17.2,28.5,17.2,28.5,17.1L28.5,17.1L28.5,17.1z"/>
		</g>
	</g>
</g>
<g id="guides">
</g>
<linearGradient id="SVGID_2_" gradientUnits="userSpaceOnUse" x1="-58.5996" y1="-232.957" x2="-50.1362" y2="-232.957" gradientTransform="matrix(6.6522 0 0 6.6522 390.1175 1561.9419)">
	<stop  offset="0" style="stop-color:#C216FF"/>
	<stop  offset="0.6452" style="stop-color:#77B9FF"/>
	<stop  offset="1" style="stop-color:#B6CAFF"/>
</linearGradient>
<path fill="url(#SVGID_2_)" fill-opacity="0.5" d="M0.4,17l1,6.4c0,0,0.7,0.1,1.7-0.101c0.2,0,1-2.8,4.4-4.8l0.2,1.7
	c0,0,4.7-3.2,6.4-3.601c0,0-6.7,1.4-8.5-0.5c0,0,2.9,0.4,8.3-1.2c3.5-0.3,2.5-1.3,6.8-2.1c7.7-1,16,2.1,20.8,8.601
	c0,0-0.3-8.9-11.6-10.5c0,0,13-2,26.7,4.9c0,0-4.301-5-13-7.4C43,8.2,41.7,7.5,38,7.3c-0.4,0,0.4-1.7,0.4-1.7L40,2.9l-2,0.4V2.5
	h-2.7v0.7l-0.6,0.1l-0.9-0.5L28,2.6l-0.7-1.5l-0.7,1.4v3.4L30,6l0.1,1.3h-4L23,7.8l-2.5,2.1L2,9.8L1.7,9L0.3,9.1L0.4,17z"/>
<path opacity="0.7" fill="#AC00CF" enable-background="new    " d="M65.4,12.5c0,0-3.399,0.7-6,5.1c0,0,2.3,1.2,1.5,2
	c-0.8,0.801-4.2-0.3-10.2,6.601c0,0,2.5-1.3,5.801-1.601c3.299-0.3-0.9,2.301-1.801,2.9c0,0,6.1-3.6,7.9-3.3
	c1.699,0.3-6.1,5.5-9.5,7.399c0,0,10.3-4,11.5-3.699C65.799,28.1,64,30.3,61.1,31.6c0,0,5.9,0,9.8-2.1s4.7-2.4,4.7-1.2
	c0,0,3.4-2.5,2.5-3.5c-1-0.899,2.6-2.1,5.1-4.2c2.5-2.1,3.4-3.5,3.4-3.5s-5.9,3-7.7,3.2s1.2-2.899,4.399-4.5
	c3.201-1.6,4.201-4.7,4.201-4.7s-4.4,0.2-10,3.5C71.799,17.9,71.2,19,71.7,17c0.4-2,5.6-4.9,5.6-4.9s-7.199,0.2-10.6,3.2
	c-3.3,3-2.4-0.7-1.6-1.4C65.6,13.3,65.4,12.5,65.4,12.5z"/>
<g>
	<path fill="#F5EDFF" d="M56.6,25.1L55.299,27.9H52.6l6.199-12.2h3L63.6,27.9H61L60.7,25.1H56.6z M59.799,18.3l-2.1,4.5h2.6
		L59.799,18.3z"/>
	<path fill="#F5EDFF" d="M67.4,27.9c-0.7,0-1.3-0.2-1.7-0.7s-0.5-1.101-0.4-1.8l1.4-7.5c0.1-0.7,0.4-1.301,1-1.7
		c0.5-0.4,1.1-0.6,1.9-0.6h4c0.699,0,1.3,0.2,1.699,0.7c0.4,0.5,0.5,1.101,0.4,1.8L75.2,20h-2.5L73,18.4c0-0.2,0-0.301,0-0.4
		c-0.101-0.1-0.201-0.1-0.4-0.1h-2.7c-0.399,0-0.7,0.199-0.8,0.699L67.9,25.2c0,0.2,0,0.3,0,0.399C68,25.7,68.1,25.7,68.299,25.7H71
		c0.399,0,0.699-0.2,0.799-0.7L72,23.6h2.5L74.1,25.7c-0.1,0.7-0.4,1.3-1,1.7C72.6,27.8,72,28,71.2,28h-3.8V27.9z"/>
	<path fill="#F5EDFF" d="M86.2,15.7l-0.4,2.3h-5.6l-0.5,2.5h4.6L83.9,22.8h-4.601l-0.5,2.8H84.4L84,27.9h-8.201L78,15.7H86.2z"/>
</g>
</svg>
