<?xml version="1.0" encoding="utf-8"?>
<!-- Generator: Adobe Illustrator 16.0.0, SVG Export Plug-In . SVG Version: 6.00 Build 0)  -->
<!DOCTYPE svg PUBLIC "-//W3C//DTD SVG 1.0//EN" "http://www.w3.org/TR/2001/REC-SVG-20010904/DTD/svg10.dtd">
<svg version="1.0" id="图层_1" xmlns="http://www.w3.org/2000/svg" xmlns:xlink="http://www.w3.org/1999/xlink" x="0px" y="0px"
	 width="99.8px" height="32px" viewBox="0 0 99.8 32" enable-background="new 0 0 99.8 32" xml:space="preserve">
<linearGradient id="SVGID_1_" gradientUnits="userSpaceOnUse" x1="-4.768372e-007" y1="17.001" x2="99.5611" y2="17.001">
	<stop  offset="0" style="stop-color:#FF2F7D"/>
	<stop  offset="1" style="stop-color:#FF8053"/>
</linearGradient>
<path fill="url(#SVGID_1_)" d="M37.5,4.2C37.5,4.2,37.5,4.1,37.5,4.2c0.1-0.1,0.1-0.1,0.1-0.1V4h0.1h0.1l0,0c0.6,0,1.3,0,1.9,0h0.1
	c0.1,0,0.2,0,0.3,0s0.1,0,0.1,0s0,0.1,0.1,0.1l0,0c0,0,0,0,0,0.1c0,0,0,0,0,0.1c0,0.1,0,0,0,0.1v0.1v0.1l0,0l0,0c0,0,0,0,0,0.1
	c0,0.1,0,0.1,0,0.1s0,0,0,0.1l0,0c0,0,0,0,0,0.1c0,0,0,0,0,0.1s0,0.1,0,0.1s0,0,0,0.1l0,0c0,0,0,0,0,0.1c0,0,0,0,0,0.1
	c0,0,0,0,0,0.1s0,0,0,0.1l0,0l0,0v0.1c0,0,0,0,0,0.1c0,0,0,0,0,0.1l0,0c0,0,0,0,0,0.1s0,0,0,0.1c0,0,0,0,0,0.1c0,0.1,0,0.1,0,0.1
	l0,0v0.1c0,0,0,0,0,0.1c0,0,0,0,0,0.1v0.1l0,0v0.1V7c0,0,0,0,0,0.1l0,0c0,0,0,0,0,0.1l0,0c2.5,0,5.1,0,7.7,0c0,0,0,0,0.1,0l0,0
	c0.1,0,0.2,0,0.3-0.1c0,0,0.1,0,0.2,0S48.8,7,48.8,7c0.1,0,0.1,0,0.2-0.1c0.1,0,0.2-0.1,0.3-0.1c0.1,0,0.1,0,0.2-0.1
	c0,0,0.1,0,0.2-0.1c0.1,0,0.1-0.1,0.1-0.1c0.1,0,0.2,0,0.2,0s0,0,0-0.1l0.1-0.1h0.1l0.1-0.1c0.1,0,0.1,0,0.1,0s0.1,0,0.2,0
	l0.101-0.1c0,0,0,0,0.1,0c0,0,0,0,0.101,0l0,0V6c0,0,0,0,0.101-0.1L51.1,5.8h0.101l0,0c0.6,0,1.1,0,1.6,0l0,0c0.199,0,0.4,0,0.601,0
	l0,0c0.101,0,0.2,0,0.302,0l0,0c0.198,0,0.398,0,0.5,0l0,0c0.6,0,1.198,0,1.898,0c0,0,0,0,0.102,0h0.1v0.1c0,0,0.1,0,0.1,0.1
	c0,0,0,0,0.1,0.1l0,0c0,0,0,0,0,0.1c0,0.1,0,0,0,0.1c0,0,0,0,0,0.1v0.1l0,0c0,0,0,0-0.1,0c0,0.1,0,0.1,0,0.1s0,0,0,0.1
	c0,0,0,0,0,0.1l0,0c0,0,0,0,0,0.1V7c0,0,0,0,0,0.1s0,0,0,0.1v0.1v0.1v0.1v0.1c0,0.1,0,0.1,0,0.1v0.1v0.1V8v0.1v0.1v0.1
	c0,0.1,0,0.1,0,0.1s0,0,0,0.1v0.1v0.1v0.1v0.1V9c0,0,0,0,0,0.1v0.1v0.1c0,0.1,0,0.1,0,0.1s0,0,0,0.1s0,0.1,0,0.1v0.1v0.1v0.1V10
	c0,0,0,0,0,0.1v0.1v0.1v0.1v0.1c0,0.1,0,0.1,0,0.1v0.1v0.1v0.1c12.4,0,24.801,0,37.1,0c1.801,0,3.5,0,5.301,0
	c0.101,0,0.101,0,0.199,0.1c0.102,0,0.102,0,0.102,0.1l0,0l0.102,0.1c0,0,0,0.1,0.1,0.1v0.1c0,0.1,0,0.1,0,0.1v0.1v0.1v0.1v0.1
	l-0.1,0.1v0.1v0.1v0.1c0,0,0,0,0,0.1v0.1v0.1v0.1c0,0,0,0,0,0.1c0,0,0,0,0,0.1l0,0V13v0.1v0.1L99.1,13.3c-0.101,0-0.2,0.1-0.2,0.1
	c-0.1,0-0.199,0-0.3,0s-0.101,0-0.2,0s-0.199-0.1-0.3-0.1c-8,0-16,0-24-0.1c0,0,0,0,0,0.1v0.1v0.1v0.1c0,0,0,0,0,0.1l0,0
	c0,0.1,0,0.1,0,0.1v0.1V14c0,0,0,0,0,0.1s0,0.1,0,0.1v0.1v0.1v0.1v0.1v0.1v0.1v0.1V15c0,0,0,0,0,0.1v0.1v0.3v0.1v0.1v0.1v0.1V16l0,0
	v0.1v0.1c0,0,0,0,0,0.1V17c0,0,0,0-0.101,0l0,0v0.1V17.2c0,0,0,0,0,0.1V17.4c0,0.1,0,0.1,0,0.1v0.1V17.7v0.1c0,0,0,0,0,0.101V18v0.1
	V18.2v0.1c0,0,0,0.101-0.101,0.101c0,0.101,0,0.101,0,0.101s0,0-0.101,0.101l0,0V18.7v0.1V18.9c0,0,0,0,0,0.1s0,0.2,0,0.3
	c0,0.101,0,0.2,0,0.3c0,0.102,0,0.2,0,0.301s0,0.101,0,0.199c0,0.102,0,0.2,0,0.301s0,0.199,0,0.301c0,0.1,0,0.199,0,0.3
	s0,0.2,0,0.2c0,0.1,0,0.199,0,0.3s0,0.2,0,0.3c0,0.102,0,0.2,0,0.301s0,0.199,0,0.199l0,0h0.101C73.9,22.4,74,22.4,74,22.4v0.1v0.1
	l0,0C74,22.7,74,22.7,74.1,22.7v0.1V22.9c0,0,0,0.1-0.101,0.1l0,0c0,0,0,0,0,0.1V23.2c0,0,0,0,0,0.1c0,0.101,0,0,0,0.101
	s0,0,0,0.101s0,0,0,0.101l0,0c0,0,0,0,0,0.101l0,0l0,0l0,0l0,0l0,0l0,0c0,0,0.101,0,0.101,0.101h0.101c0,0,0,0,0,0.1
	c0,0,0,0,0,0.101v0.101V24.2l0,0c0,0,0,0,0,0.1c0,0,0,0,0,0.101v0.101c0,0,0,0,0,0.101l0,0V24.7c0,0,0,0,0,0.1
	c0,0,0,0.101,0.1,0.101l0,0c0,0,0,0,0,0.101s0,0,0,0.101c0,0,0,0,0,0.101v0.101l0,0V25.4c0,0,0,0,0,0.1v0.1c0,0,0,0,0,0.102l0,0v0.1
	c0,0,0,0,0,0.102c0,0,0,0,0,0.1l0,0c0,0,0,0,0,0.1c0,0,0,0,0,0.102c0,0,0,0,0,0.1V26.4l0,0v0.1v0.1c0,0,0,0,0,0.102c0,0,0,0,0,0.1
	l0,0c0,0,0,0,0,0.102V27c0.101,0,0.101,0,0.101,0.1c0,0,0,0,0.101,0c0,0,0,0,0,0.102l0.101,0.1v0.1l0.101,0.1h0.1c0,0,0,0,0.101,0.1
	V27.7c0,0,0.101,0,0.101,0.1c0,0,0,0,0,0.101c0,0,0,0,0,0.101c0,0,0,0,0,0.101s0,0.101,0,0.101s0,0,0,0.101c0,0.1,0,0,0,0.1l0,0
	c0,0,0,0,0,0.101H75.1v0.101c0,0,0,0,0,0.101l0,0v0.101c0,0,0,0.1-0.101,0.1V29c0,0,0,0,0,0.1c0,0,0,0,0,0.102c0,0,0,0-0.101,0.1
	v0.1c0,0,0,0.1-0.101,0.1c0,0,0,0,0,0.1h-0.1c0,0,0,0,0,0.102c0,0.1,0,0.1,0,0.1s0,0,0,0.102l0,0c0,0,0,0,0,0.1c0,0,0,0-0.101,0
	H74.5c0,0,0,0-0.1,0h-0.1c-0.6,0-1.2,0-1.801,0h-0.101c0,0,0,0-0.101-0.1c0,0,0,0,0-0.102c0-0.1,0-0.1,0-0.1s0,0,0-0.102
	c0,0,0,0,0-0.1l0,0v-0.1c0,0,0,0,0-0.102c0-0.1,0,0,0-0.1v-0.1c0,0,0,0,0-0.1l0,0c0,0,0,0,0-0.1c0-0.102,0-0.102,0-0.102v-0.1l0,0
	c0,0,0,0,0-0.102c0-0.1,0,0,0-0.1s0,0,0-0.1V28.3v-0.1c0,0,0,0,0-0.101c0,0,0,0,0-0.101v-0.101V27.8l0,0v-0.1
	c0,0,0-0.101,0.101-0.101c0,0,0,0,0-0.101s0,0,0-0.101V27.3l0,0c0,0,0,0,0.101,0H72.6h0.101l0,0l0,0l0,0v-0.1c0,0,0,0,0-0.101
	c0,0,0,0,0-0.101v-0.101V26.8c0,0,0,0,0-0.1c0,0,0,0-0.101-0.101v-0.101c0,0,0,0,0-0.101c0,0,0,0-0.101,0c0,0,0,0,0-0.101
	s0-0.101,0-0.101c0-0.1,0-0.1,0-0.1l0,0c0,0,0,0,0-0.101c0,0,0-0.101-0.101-0.101V25.8c0,0,0,0,0-0.1l0,0V25.6c0,0,0,0,0-0.1
	c0,0,0,0,0-0.1c0-0.102,0-0.102,0-0.102l0,0c0,0,0,0,0-0.1c0,0,0,0,0-0.102c0-0.1,0-0.1,0-0.1l0,0c0,0,0,0,0-0.1c0,0,0,0,0-0.102
	c0,0,0,0,0-0.1V24.6h-0.101v-0.1c0,0,0,0,0-0.1c0,0,0,0,0-0.102l0,0c-0.6,0-1.199,0-1.801,0c0,0-0.1,0.102-0.199,0.102
	c-0.098,0-0.199,0-0.301,0h-0.1l0,0h-0.1c-0.1,0-0.1,0-0.2-0.102c0-0.1,0-0.1-0.101-0.1v-0.1c0-0.1,0-0.1,0-0.1v-0.1V23.8v-0.1V23.6
	v-0.1v-0.1V23.3c0,0,0,0,0-0.1V23.1V23c0-0.1,0-0.1,0-0.1V22.8v-0.1c0,0,0,0,0.101-0.101c0,0,0,0,0-0.101l0.101-0.101
	c0,0,0.1,0,0.1-0.101c0.199,0,0.4,0,0.601,0l0,0v-0.101c0-0.1,0-0.1,0-0.1V22v-0.1V21.8v-0.1c-0.198,0-0.399,0-0.601,0h-0.1
	C69.6,21.7,69.6,21.6,69.6,21.6l0,0c0-0.1,0-0.1-0.101-0.1V21v-0.1c0-0.102,0-0.102,0-0.102v-0.1v-0.1v-0.1v-0.1
	c0,0,0,0,0.101-0.102l0,0c0,0,0-0.1-0.101-0.1v-0.1c0,0,0,0,0-0.1v-0.1c0-0.102,0-0.102,0.101-0.102c0-0.1,0-0.1,0-0.1
	c0.101,0,0.101,0,0.2,0l0,0c0.1,0,0.199,0,0.3,0s0.2,0,0.3,0l0,0v-0.1v-0.1c0,0,0,0,0-0.1c0-0.102,0-0.102,0-0.102
	c0-0.1,0-0.1,0-0.1V19v-0.1c0-0.102,0-0.102,0-0.102v-0.1v-0.1v-0.1v-0.1V18.3v-0.1c0-0.101,0-0.101,0-0.101s0,0,0-0.101v-0.101
	V17.8v-0.1V17.6v-0.1c0,0,0,0,0-0.1c0,0,0,0,0-0.102h-0.1c-0.1,0-0.2-0.1-0.301-0.1c0,0,0-0.102-0.101-0.102l0,0l0,0L69.8,17
	l-0.1-0.1V16.8v-0.1l0,0V16.6v-0.1v-0.1c0,0,0,0,0-0.1v-0.1c0,0,0,0,0-0.1V16c0,0,0,0,0-0.1v-0.2c0,0,0-0.1-0.102-0.1c0,0,0,0,0-0.1
	l0,0c-7.801,0-15.602,0-23.4,0c-0.1,0-0.1,0-0.1,0l0,0v0.1c0,0,0,0.1-0.1,0.1l-0.1,0.1l-0.1,0.1c0,0,0,0.1-0.1,0.1
	c0,0,0,0.1-0.1,0.1c0,0.1-0.1,0.1-0.1,0.1c0,0.1,0,0.1-0.1,0.1c0,0.1,0,0.1-0.1,0.1l-0.1,0.1l-0.1,0.1V16.7v0.1c0,0,0,0-0.1,0.101
	L44.9,17l-0.1,0.1c0,0,0,0-0.1,0.102c0,0.1-0.1,0.1-0.1,0.1s0,0.102-0.1,0.102v0.1c-0.1,0.1-0.1,0.1-0.1,0.2c0,0,0,0.101-0.1,0.101
	L44.2,17.9V18l-0.1,0.1V18.2c0,0,0,0-0.1,0.1V18.4c0,0.1-0.1,0.1-0.1,0.1c-0.1,0-0.1,0.1-0.1,0.1s0,0.102-0.1,0.102v0.1
	c0,0,0,0-0.1,0.102V19l-0.1,0.1V19.2l-0.1,0.1L43.3,19.4c0,0.1,0,0.1-0.1,0.1v0.1c0,0,0,0.102-0.1,0.102L43,19.8c0,0,0,0-0.1,0.101
	c0,0,0,0,0,0.101c-0.5,0-1.1,0-1.6,0l0,0c-4.3,0-8.5,0-12.7,0c-0.1,0-0.2,0-0.3-0.101V20l0,0v0.1l0,0V20.2l0,0l0,0h-0.1l0,0l0,0v0.1
	l0,0l0,0l0,0V20.4l0,0l0,0l0,0l0,0V20.6l0,0l0,0l0,0l0,0l0,0l0,0l0,0l0,0l0,0l0,0V20.7l0,0l0,0v0.1l0,0l0,0V20.9l-0.5,1L28,24.3
	c0,0.101,0,0.2-0.1,0.3C27.8,24.7,27.8,24.7,27.7,24.7c-0.1,0-0.1,0-0.2,0c0,0,0,0-0.1,0.1c0,0.101-0.1,0.101-0.2,0.101l-1.7,0.301
	c-0.1,0-0.1,0-0.2,0l-2.5-1C22.7,24.1,22.7,24.1,22.6,24c0,0,0,0-0.1-0.1c-0.1-0.102-0.1-0.2-0.1-0.301l0.1-0.699
	c0-0.102,0-0.2,0.1-0.2s0.1,0,0.2-0.101v-0.801l0,0v-0.5l0,0l0,0l0,0v-0.1c0,0,0,0,0.1,0l0,0l0,0v-0.1L23,21v-0.1l0,0l0,0l0,0l0,0
	l0,0V20.8l0,0v-0.1c0,0,0,0,0.1,0l0,0l0,0l0,0l0,0l0,0l0,0l0,0l0,0V21l0,0l0,0l0,0l0,0l0,0l0,0l0,0l0,0h0.1l0.1-0.1l0,0l0,0V20.8
	h0.1l0,0l0,0l0,0l0,0v-0.1l0,0l0.1-0.101v-0.101l0,0l0,0l0,0l0,0l0,0l0,0l0,0l0,0l0,0v-0.101l0,0l0,0l0,0l0,0V20.3l0,0v-0.1l0,0l0,0
	c0,0,0,0,0.1,0l0,0l0,0l0,0l0,0l0,0V20.1l0,0l0,0v-0.3l-0.1-0.1V19.6l0,0v-0.1l0,0l0,0l0,0v-0.1L23.4,19.3V18.9l0,0h-0.1
	c-0.5,0-0.9,0-1.4,0l0,0l0,0c-0.1,0-0.2,0-0.3,0s-0.1,0-0.2,0v-0.2l0,0v-0.3l0,0v0.1v0.1l0,0V18.7v0.1l0,0c-0.2,0-0.4,0-0.6,0l0,0
	l0,0l0,0l0,0l0,0l0,0l0,0c0,0,0,0-0.1,0l0,0l0,0l0,0V18.9l0,0l0,0l0,0c0,0.1-0.1,0.1-0.1,0.1l0,0l0,0c0,0,0,0-0.1,0v-1v0.1V18.2l0,0
	h-0.1l0,0c0,0.1,0,0.2,0,0.3L20,19.1C19.9,19.2,19.9,19.2,19.8,19.2c-0.1,0-0.2,0-0.3,0C20,19.2,20,19.1,20,19.1L18.8,19.2
	c-0.1,0-0.1,0-0.2-0.101c-0.1,0-0.2,0.101-0.3,0.101l-0.1,0.1h-0.1V19.4c0,0.1-0.1,0.199-0.2,0.199l-9.3,3.899
	c-0.1,0.101-0.2,0.101-0.3,0c-0.1,0-0.1,0-0.1-0.101c-0.1,0-0.2,0-0.3,0s-0.2,0-0.3,0c0,0.101,0,0.101,0,0.101V23.6V23.7v0.1V23.9
	V24v0.1V24.2c0,0.1,0,0.1,0,0.2v0.1v0.1c0,0,0,0.102,0,0.2V24.9l0,0c0.1,0,0.1,0,0.2,0.1c0.1,0.1,0.1,0.2,0.1,0.2V25.6
	c0,0.102,0,0.2-0.1,0.301C7.7,26,7.7,26,7.6,26l0,0c-0.1,0.1-0.2,0.1-0.3,0.1H5.4c-0.1,0-0.1,0-0.2-0.1c0,0,0,0-0.1,0H5
	c-0.1,0-0.1,0-0.1,0c-0.1,0-0.1,0-0.2-0.1L4.6,25.8c0,0,0,0,0-0.1V25.6c0-0.1,0-0.1,0-0.1s0,0,0-0.1c-1.1,0-2.3,0-3.4,0.1
	c-0.1,0-0.1,0-0.2,0.1c-0.1,0-0.2,0-0.3,0c-0.1,0-0.2-0.1-0.3-0.1l-0.1-0.1c0,0,0-0.102-0.1-0.102v-0.1c0,0,0-0.102-0.1-0.102
	c0,0,0,0-0.1-0.1v-0.1V24.8c0,0,0,0,0-0.1V24.6v-0.1v-0.1V24.3v-0.1c0,0,0,0,0-0.101C0,24,0,24,0,24v-0.1V23.8c0,0,0,0,0-0.1V23.6
	v-0.1v-0.1V23.3v-0.1c0,0,0,0,0-0.101V23v-0.1V23v-0.1V22.8c0-0.1,0-0.1,0-0.1V22.6v-0.1v-0.1V22.3v-0.1V22.1V22v-0.1V21.8
	c0-0.1,0-0.1,0-0.1V21.6v-0.1c0,0,0,0,0-0.1C0,21.3,0,21.3,0,21.3c0-0.1,0-0.1,0-0.1V21.1c0,0,0,0,0-0.1v-0.1V20.8v-0.1V20.6v-0.1
	v-0.1V20.3c0-0.1,0-0.1,0-0.1C0,20,0,20,0,20s0,0,0-0.1V19.8c0-0.1,0-0.1,0-0.1V19.6v-0.1v-0.1c0,0,0,0,0-0.102c0-0.1,0-0.1,0-0.1
	c0-0.1,0-0.1,0-0.1V19v-0.1C0,18.8,0,18.8,0,18.8v-0.1V18.6v-0.1v-0.1V18.3v-0.1C0,18,0,18,0,18s0,0,0-0.1V17.8v-0.1V17.6v-0.1v-0.1
	c0,0,0,0,0-0.102v-0.1v-0.1V17v-0.1C0,16.8,0,16.8,0,16.8v-0.1V16.6v-0.1v-0.1v-0.1v-0.1C0,16.1,0,16,0,16v-0.1v-0.1v-0.1v-0.1v-0.1
	v-0.1v-0.1v-0.1v-0.1C0,15,0,15,0,15v-0.1c0-0.1,0-0.1,0-0.1v-0.1v-0.1v-0.1v-0.1v-0.1v-0.1v-0.1c0,0,0-0.1,0.1-0.1s0.1,0,0.1-0.1
	c0.1,0,0.2,0,0.3,0l0,0c0,0,0.1,0,0.2,0.1h0.1h0.1l0,0c1.2,0,2.3,0,3.5,0h0.1c0,0,0-0.1,0.1-0.1s0.2,0,0.3,0l0,0
	c0.1,0,0.1,0,0.2,0.1c0.6,0,1.2,0.1,1.8,0.1c0,0,0,0,0-0.1l0,0c0,0-0.1,0-0.1-0.1c0,0,0-0.1-0.1-0.1l-0.1-0.1l-0.1-0.1v-0.1v-0.1
	v-0.1v-0.1v-0.1c0-0.1,0-0.1,0-0.1s0-0.1,0.1-0.1l0.1-0.1v-0.1v-0.1v-0.1v-0.1v-0.1c0,0,0,0,0-0.1c0-0.1,0-0.1,0.1-0.1
	c0,0,0-0.1,0.1-0.1l0,0c0,0,0-0.1,0.1-0.1c0,0,0-0.1,0.1-0.1h0.1h0.1l0,0c3.8,0,7.6,0,11.4,0c0.1,0,0.1,0.1,0.2,0.1
	C18.9,12,19,12,19,12v0.1c0,0,0,0.1,0.1,0.1l0,0c0,0,0,0,0,0.1c0,0,0,0.1,0.1,0.1v0.1v0.1c0,0.1,0,0.1-0.1,0.1c0,0,0,0,0,0.1v0.1
	l0,0V13c0,0.1,0,0.1,0,0.1v0.1c0,0,0,0,0,0.1c0,0,0,0,0,0.1v0.1c0,0.1,0,0.1,0,0.1s0,0,0,0.1v0.1v0.1l0,0V14c0,0.1,0,0.1,0,0.1v0.1
	l0,0l0,0c-0.1,0-0.1,0.1-0.1,0.1c0,0.1,0,0.1,0,0.1l-0.1,0.1l-0.1,0.1l0,0v0.1l0,0l0,0c0.6,0,1.2,0,1.8,0l0,0c0,0,0,0,0.1,0l0,0
	c0.1,0,0.2,0,0.3-0.1c0.1,0,0.1,0,0.2,0.1c0.1,0,0.2,0,0.3,0c0.2,0,0.4,0,0.5,0s0.2,0,0.3,0c0,0,0,0,0.1,0h0.1l0,0c0,0,0.1,0,0.2,0
	l0,0h0.1l0,0h0.1l0,0H23l0,0h0.1c0,0,0,0,0.1,0l0,0l0,0c0,0,0,0,0.1,0l0,0l0,0l0,0h0.1l0,0h0.1h0.1l0,0l0,0l0,0l0,0h0.1
	c0,0,0,0,0.1,0l0,0l0,0l0,0l0,0h0.1l0,0H24l0,0l0,0h0.1l0,0l0,0c0.1,0,0.1,0,0.2,0l0,0h0.1h0.1l0,0l0,0l0,0c0,0,0,0,0.1,0
	s0.1,0,0.1,0h0.1l0,0l0,0l0,0c0.1,0,0.1,0,0.1,0s0,0,0.1,0l0,0h0.1l0,0c0,0,0,0,0.1,0l0,0c0.1,0,0.1,0,0.1,0l0,0l0.1-0.1h0.1
	c0,0,0,0,0.1,0l0,0l0,0l0,0l0,0c0,0,0,0,0.1,0c0.1,0,0.1,0,0.1,0h0.1l0,0l0,0c0.1,0,0.1,0,0.1,0s0,0,0.1,0l0,0l0,0l0,0l0,0l0,0
	c0,0,0,0,0.1,0l0,0l0,0l0,0c0,0,0,0,0.1,0l0,0l0,0l0,0l0,0l0,0l0,0l0,0c0,0,0,0,0.1,0l0,0l0,0l0,0c0,0,0,0,0.1,0c0,0,0,0,0.1,0l0,0
	c0,0,0,0,0.1,0l0,0c0,0,0-0.1,0.1-0.1c0,0,0,0,0.1,0H27l0.1-0.1c0,0,0,0,0-0.1c0,0,0,0,0.1,0h0.1l0,0l0,0c0,0,0,0,0.1,0l0,0l0,0l0,0
	l0,0c0,0,0,0,0.1,0h0.1l0,0h0.1h0.1c0.1-0.1,0.2-0.1,0.3-0.1c0,0,0.1,0,0.1-0.1c0.1,0,0.1,0,0.1,0c0.6,0,1.2-0.1,1.7-0.1
	c0.1,0,0.1,0,0.2,0c0,0,0,0,0-0.1s0-0.1,0-0.1c-1.6,0-3.1,0-4.7,0l0,0h-0.1c0,0,0,0-0.1,0c-0.2,0-0.4,0-0.6,0c-0.4,0-0.8,0-1.2,0
	l0,0h-0.1l0,0c0,0-0.1,0-0.2,0c0,0,0-0.1-0.1-0.1l0,0v-0.1c0,0,0,0,0-0.1v-0.1c0,0,0,0,0-0.1l0,0c0,0,0,0,0-0.1v-0.1V13l0,0v-0.1
	c0,0,0,0,0-0.1c0,0,0,0,0-0.1v-0.1l0,0v-0.1c0,0,0,0,0-0.1c0,0,0,0,0-0.1c0-0.1,0,0,0-0.1l0,0v-0.1c0,0,0,0,0-0.1v-0.1l0,0v-0.1
	v-0.1c0,0,0,0,0-0.1c0,0,0,0,0-0.1V7.8l0,0c0-0.1,0-0.1,0-0.1V7.6V7.4V7.3c0.1,0,0.1,0,0.1-0.1c0,0,0.1,0,0.2,0l0,0c0,0,0,0,0.1,0
	l0,0l0,0c0,0,0,0,0-0.1c0,0,0.1,0,0.1-0.1l0,0h0.1l0,0c0.9,0,1.8,0,2.8,0l0,0V6.9l0,0c0,0,0,0,0-0.1c0,0,0,0,0-0.1V6.6l0,0
	c0,0,0,0,0-0.1c0,0,0,0,0-0.1V6.3V6.2l0,0V6.1c0,0,0,0,0-0.1V5.9c0,0,0,0,0-0.1l0,0V5.7c0,0,0,0,0-0.1V5.5l0,0c0,0,0,0,0-0.1
	s0-0.1,0-0.1s0,0,0-0.1V5.1l0,0c0,0,0,0,0.1-0.1l0,0c0,0,0,0,0.1,0c0,0,0,0,0.1,0l0,0c0.7,0,1.4,0,2.1,0c0,0,0,0,0.1,0l0,0l0,0
	l0.1,0.1c0,0,0,0,0.1,0.1c0,0,0,0,0.1,0c0,0,0,0,0,0.1c0,0,0,0,0,0.1v0.1v0.1l0,0c0,0,0,0,0,0.1c0,0,0,0,0,0.1v0.1c0,0,0,0,0,0.1
	l0,0c0,0.1,0,0.1,0,0.1s0,0,0,0.1v0.1l0,0v0.1v0.1c0,0,0,0,0,0.1v0.1l0,0c0,0,0,0,0,0.1c0,0.1,0,0.1,0,0.1s0,0,0,0.1s0,0.1,0,0.1
	l0,0c0,0,0,0,0,0.1c2.1,0,4.3,0,6.3,0l0,0V7.1l0,0c0,0,0,0,0-0.1c0,0,0,0,0-0.1V6.8l0,0c0,0,0,0,0-0.1c0,0,0,0,0-0.1V6.5V6.4l0,0
	V6.3c0,0,0,0,0-0.1V6.1c0,0,0,0,0-0.1l0,0V5.9c0,0,0,0,0-0.1V5.7l0,0c0,0,0,0,0-0.1s0-0.1,0-0.1s0,0,0-0.1V5.3l0,0c0,0,0,0,0-0.1
	c0-0.1,0-0.1,0-0.1s0,0,0-0.1V4.9l0,0c0,0,0,0,0-0.1c0-0.1,0,0,0-0.1c0-0.1,0,0,0-0.1V4.5c0,0,0,0,0-0.1c0,0,0,0,0-0.1
	C37.4,4.3,37.4,4.3,37.5,4.2L37.5,4.2z M71.6,18.1C71.6,18.1,71.6,18,71.6,18.1c0-0.1,0-0.1,0-0.199C71.6,18,71.6,18,71.6,18.1
	C71.6,18,71.6,18.1,71.6,18.1L71.6,18.1z M31,17.6V17.7v0.1V17.9c0,0,0,0,0,0.1s0,0.1,0,0.1s0,0,0,0.102l0,0c0.1,0,0.1,0.1,0.1,0.1
	s0.1,0,0.1,0.102v0.1v0.1c0.1,0,0.2,0,0.3,0s0.1,0,0.2,0l0,0c0,0,0.1,0,0.2,0s0.1-0.1,0.2-0.1s0.1-0.1,0.2-0.1c0,0,0.1,0,0.1-0.102
	c0,0,0.1,0,0.1-0.1l0,0c0.1,0,0.1-0.102,0.1-0.102l0.1-0.1l0.1-0.1l0.1-0.102c0-0.1,0-0.1,0-0.1v-0.1v-0.1v-0.1V17.3v-0.1
	c-0.7,0-1.5,0-2.2,0l0,0v0.1c0,0,0,0,0,0.101v0.101C31,17.5,31,17.6,31,17.6z M29.9,18.6c-0.1,0-0.1-0.1-0.1-0.1l-0.1-0.1
	c0,0,0-0.102-0.1-0.102v-0.1v-0.1V18c0,0,0,0,0-0.1V17.8c0,0,0-0.1,0-0.2v-0.1v-0.1V17.3c0,0,0,0,0-0.1h-0.1c0,0,0,0,0,0.1V17.4l0,0
	h-0.1l0,0l-0.1,0.1l-0.1,0.1V17.7v0.1V17.9V18h0.1c0,0,0.1,0,0.1,0.1l0.1,0.102c0,0.1,0,0.1,0,0.1l0,0
	C29.6,18.6,29.8,18.6,29.9,18.6L29.9,18.6z M23.9,16.9c0.1,0,0.2,0,0.3,0h0.1l0,0c-0.1,0-0.1,0-0.2,0C24.1,16.9,24,16.9,23.9,16.9
	L23.9,16.9z M25,17.4L25,17.4h-0.1l0,0H25z M9.1,19.3C9.1,19.4,9.1,19.4,9.1,19.3C9.1,19.4,9.1,19.4,9.1,19.3L9,19.5c0,0,0,0,0,0.1
	V19.7v0.1V19.9c0,0,0,0,0,0.1s0,0,0,0.1V20c0,0,0,0,0,0.1c0,0,0,0,0,0.102l0,0c0,0,0,0,0,0.1l0,0c0,0,0,0,0,0.102l0,0h0.1
	c0.1,0,0.1,0,0.2,0.1c0.2,0,0.4,0.1,0.6,0.1L10,20.7V20.6l0,0h0.1l0,0l0,0h0.1l0,0l0,0l0,0h0.1l0,0l0,0l0,0c0,0,0,0,0.1,0l0,0l0,0
	l0,0l0,0l0,0l0,0l0,0l0,0h0.1h0.1c0,0,0,0,0.1,0h0.1l0,0c0,0,0,0,0.1,0l0,0H11c0,0,0,0,0-0.1l0.1-0.1c0-0.102,0-0.102,0.1-0.102
	v-0.1v-0.1c0,0,0,0,0-0.1l0,0C11,19.3,10.1,19.3,9.1,19.3L9.1,19.3C9.2,19.3,9.2,19.3,9.1,19.3z M5.4,25.6H5.3H5.4L5.4,25.6z
	 M22.9,24.6L22.9,24.6L22.9,24.6L22.9,24.6z"/>
<g id="guides">
</g>
<g>
	<defs>
		<path id="SVGID_2_" d="M37.5,4.2C37.5,4.2,37.5,4.1,37.5,4.2c0.1-0.1,0.1-0.1,0.1-0.1V4h0.1h0.1l0,0c0.6,0,1.3,0,1.9,0h0.1
			c0.1,0,0.2,0,0.3,0s0.1,0,0.1,0s0,0.1,0.1,0.1l0,0c0,0,0,0,0,0.1c0,0,0,0,0,0.1c0,0.1,0,0,0,0.1v0.1v0.1l0,0l0,0c0,0,0,0,0,0.1
			c0,0.1,0,0.1,0,0.1s0,0,0,0.1l0,0c0,0,0,0,0,0.1c0,0,0,0,0,0.1s0,0.1,0,0.1s0,0,0,0.1l0,0c0,0,0,0,0,0.1c0,0,0,0,0,0.1
			c0,0,0,0,0,0.1s0,0,0,0.1l0,0l0,0v0.1c0,0,0,0,0,0.1c0,0,0,0,0,0.1l0,0c0,0,0,0,0,0.1s0,0,0,0.1c0,0,0,0,0,0.1c0,0.1,0,0.1,0,0.1
			l0,0v0.1c0,0,0,0,0,0.1c0,0,0,0,0,0.1v0.1l0,0v0.1V7c0,0,0,0,0,0.1l0,0c0,0,0,0,0,0.1l0,0c2.5,0,5.1,0,7.7,0c0,0,0,0,0.1,0l0,0
			c0.1,0,0.2,0,0.3-0.1c0,0,0.1,0,0.2,0S48.8,7,48.8,7c0.1,0,0.1,0,0.2-0.1c0.1,0,0.2-0.1,0.3-0.1c0.1,0,0.1,0,0.2-0.1
			c0,0,0.1,0,0.2-0.1c0.1,0,0.1-0.1,0.1-0.1c0.1,0,0.2,0,0.2,0s0,0,0-0.1l0.1-0.1h0.1l0.1-0.1c0.1,0,0.1,0,0.1,0s0.1,0,0.2,0
			l0.101-0.1c0,0,0,0,0.1,0c0,0,0,0,0.101,0l0,0V6c0,0,0,0,0.101-0.1L51.1,5.8h0.101l0,0c0.6,0,1.1,0,1.6,0l0,0
			c0.199,0,0.4,0,0.601,0l0,0c0.101,0,0.2,0,0.302,0l0,0c0.198,0,0.398,0,0.5,0l0,0c0.6,0,1.198,0,1.898,0c0,0,0,0,0.102,0h0.1v0.1
			c0,0,0.1,0,0.1,0.1c0,0,0,0,0.1,0.1l0,0c0,0,0,0,0,0.1c0,0.1,0,0,0,0.1c0,0,0,0,0,0.1v0.1l0,0c0,0,0,0-0.1,0c0,0.1,0,0.1,0,0.1
			s0,0,0,0.1c0,0,0,0,0,0.1l0,0c0,0,0,0,0,0.1V7c0,0,0,0,0,0.1s0,0,0,0.1v0.1v0.1v0.1v0.1c0,0.1,0,0.1,0,0.1v0.1v0.1V8v0.1v0.1v0.1
			c0,0.1,0,0.1,0,0.1s0,0,0,0.1v0.1v0.1v0.1v0.1V9c0,0,0,0,0,0.1v0.1v0.1c0,0.1,0,0.1,0,0.1s0,0,0,0.1s0,0.1,0,0.1v0.1v0.1v0.1V10
			c0,0,0,0,0,0.1v0.1v0.1v0.1v0.1c0,0.1,0,0.1,0,0.1v0.1v0.1v0.1c12.4,0,24.801,0,37.1,0c1.801,0,3.5,0,5.301,0
			c0.101,0,0.101,0,0.199,0.1c0.102,0,0.102,0,0.102,0.1l0,0l0.102,0.1c0,0,0,0.1,0.1,0.1v0.1c0,0.1,0,0.1,0,0.1v0.1v0.1v0.1v0.1
			l-0.1,0.1v0.1v0.1v0.1c0,0,0,0,0,0.1v0.1v0.1v0.1c0,0,0,0,0,0.1c0,0,0,0,0,0.1l0,0V13v0.1v0.1L99.1,13.3c-0.101,0-0.2,0.1-0.2,0.1
			c-0.1,0-0.199,0-0.3,0s-0.101,0-0.2,0s-0.199-0.1-0.3-0.1c-8,0-16,0-24-0.1c0,0,0,0,0,0.1v0.1v0.1v0.1c0,0,0,0,0,0.1l0,0
			c0,0.1,0,0.1,0,0.1v0.1V14c0,0,0,0,0,0.1s0,0.1,0,0.1v0.1v0.1v0.1v0.1v0.1v0.1v0.1V15c0,0,0,0,0,0.1v0.1v0.3v0.1v0.1v0.1v0.1V16
			l0,0v0.1v0.1c0,0,0,0,0,0.1V17c0,0,0,0-0.101,0l0,0v0.1V17.2c0,0,0,0,0,0.1V17.4c0,0.1,0,0.1,0,0.1v0.1V17.7v0.1c0,0,0,0,0,0.101
			V18v0.1V18.2v0.1c0,0,0,0.101-0.101,0.101c0,0.101,0,0.101,0,0.101s0,0-0.101,0.101l0,0V18.7v0.1V18.9c0,0,0,0,0,0.1s0,0.2,0,0.3
			c0,0.101,0,0.2,0,0.3c0,0.102,0,0.2,0,0.301s0,0.101,0,0.199c0,0.102,0,0.2,0,0.301s0,0.199,0,0.301c0,0.1,0,0.199,0,0.3
			s0,0.2,0,0.2c0,0.1,0,0.199,0,0.3s0,0.2,0,0.3c0,0.102,0,0.2,0,0.301s0,0.199,0,0.199l0,0h0.101C73.9,22.4,74,22.4,74,22.4v0.1
			v0.1l0,0C74,22.7,74,22.7,74.1,22.7v0.1V22.9c0,0,0,0.1-0.101,0.1l0,0c0,0,0,0,0,0.1V23.2c0,0,0,0,0,0.1c0,0.101,0,0,0,0.101
			s0,0,0,0.101s0,0,0,0.101l0,0c0,0,0,0,0,0.101l0,0l0,0l0,0l0,0l0,0l0,0c0,0,0.101,0,0.101,0.101h0.101c0,0,0,0,0,0.1
			c0,0,0,0,0,0.101v0.101V24.2l0,0c0,0,0,0,0,0.1c0,0,0,0,0,0.101v0.101c0,0,0,0,0,0.101l0,0V24.7c0,0,0,0,0,0.1
			c0,0,0,0.101,0.1,0.101l0,0c0,0,0,0,0,0.101s0,0,0,0.101c0,0,0,0,0,0.101v0.101l0,0V25.4c0,0,0,0,0,0.1v0.1c0,0,0,0,0,0.102l0,0
			v0.1c0,0,0,0,0,0.102c0,0,0,0,0,0.1l0,0c0,0,0,0,0,0.1c0,0,0,0,0,0.102c0,0,0,0,0,0.1V26.4l0,0v0.1v0.1c0,0,0,0,0,0.102
			c0,0,0,0,0,0.1l0,0c0,0,0,0,0,0.102V27c0.101,0,0.101,0,0.101,0.1c0,0,0,0,0.101,0c0,0,0,0,0,0.102l0.101,0.1v0.1l0.101,0.1h0.1
			c0,0,0,0,0.101,0.1V27.7c0,0,0.101,0,0.101,0.1c0,0,0,0,0,0.101c0,0,0,0,0,0.101c0,0,0,0,0,0.101s0,0.101,0,0.101s0,0,0,0.101
			c0,0.1,0,0,0,0.1l0,0c0,0,0,0,0,0.101H75.1v0.101c0,0,0,0,0,0.101l0,0v0.101c0,0,0,0.1-0.101,0.1V29c0,0,0,0,0,0.1
			c0,0,0,0,0,0.102c0,0,0,0-0.101,0.1v0.1c0,0,0,0.1-0.101,0.1c0,0,0,0,0,0.1h-0.1c0,0,0,0,0,0.102c0,0.1,0,0.1,0,0.1s0,0,0,0.102
			l0,0c0,0,0,0,0,0.1c0,0,0,0-0.101,0H74.5c0,0,0,0-0.1,0h-0.1c-0.6,0-1.2,0-1.801,0h-0.101c0,0,0,0-0.101-0.1c0,0,0,0,0-0.102
			c0-0.1,0-0.1,0-0.1s0,0,0-0.102c0,0,0,0,0-0.1l0,0v-0.1c0,0,0,0,0-0.102c0-0.1,0,0,0-0.1v-0.1c0,0,0,0,0-0.1l0,0c0,0,0,0,0-0.1
			c0-0.102,0-0.102,0-0.102v-0.1l0,0c0,0,0,0,0-0.102c0-0.1,0,0,0-0.1s0,0,0-0.1V28.3v-0.1c0,0,0,0,0-0.101c0,0,0,0,0-0.101v-0.101
			V27.8l0,0v-0.1c0,0,0-0.101,0.101-0.101c0,0,0,0,0-0.101s0,0,0-0.101V27.3l0,0c0,0,0,0,0.101,0H72.6h0.101l0,0l0,0l0,0v-0.1
			c0,0,0,0,0-0.101c0,0,0,0,0-0.101v-0.101V26.8c0,0,0,0,0-0.1c0,0,0,0-0.101-0.101v-0.101c0,0,0,0,0-0.101c0,0,0,0-0.101,0
			c0,0,0,0,0-0.101s0-0.101,0-0.101c0-0.1,0-0.1,0-0.1l0,0c0,0,0,0,0-0.101c0,0,0-0.101-0.101-0.101V25.8c0,0,0,0,0-0.1l0,0V25.6
			c0,0,0,0,0-0.1c0,0,0,0,0-0.1c0-0.102,0-0.102,0-0.102l0,0c0,0,0,0,0-0.1c0,0,0,0,0-0.102c0-0.1,0-0.1,0-0.1l0,0c0,0,0,0,0-0.1
			c0,0,0,0,0-0.102c0,0,0,0,0-0.1V24.6h-0.101v-0.1c0,0,0,0,0-0.1c0,0,0,0,0-0.102l0,0c-0.6,0-1.199,0-1.801,0
			c0,0-0.1,0.102-0.199,0.102c-0.098,0-0.199,0-0.301,0h-0.1l0,0h-0.1c-0.1,0-0.1,0-0.2-0.102c0-0.1,0-0.1-0.101-0.1v-0.1
			c0-0.1,0-0.1,0-0.1v-0.1V23.8v-0.1V23.6v-0.1v-0.1V23.3c0,0,0,0,0-0.1V23.1V23c0-0.1,0-0.1,0-0.1V22.8v-0.1c0,0,0,0,0.101-0.101
			c0,0,0,0,0-0.101l0.101-0.101c0,0,0.1,0,0.1-0.101c0.199,0,0.4,0,0.601,0l0,0v-0.101c0-0.1,0-0.1,0-0.1V22v-0.1V21.8v-0.1
			c-0.198,0-0.399,0-0.601,0h-0.1C69.6,21.7,69.6,21.6,69.6,21.6l0,0c0-0.1,0-0.1-0.101-0.1V21v-0.1c0-0.102,0-0.102,0-0.102v-0.1
			v-0.1v-0.1v-0.1c0,0,0,0,0.101-0.102l0,0c0,0,0-0.1-0.101-0.1v-0.1c0,0,0,0,0-0.1v-0.1c0-0.102,0-0.102,0.101-0.102
			c0-0.1,0-0.1,0-0.1c0.101,0,0.101,0,0.2,0l0,0c0.1,0,0.199,0,0.3,0s0.2,0,0.3,0l0,0v-0.1v-0.1c0,0,0,0,0-0.1
			c0-0.102,0-0.102,0-0.102c0-0.1,0-0.1,0-0.1V19v-0.1c0-0.102,0-0.102,0-0.102v-0.1v-0.1v-0.1v-0.1V18.3v-0.1
			c0-0.101,0-0.101,0-0.101s0,0,0-0.101v-0.101V17.8v-0.1V17.6v-0.1c0,0,0,0,0-0.1c0,0,0,0,0-0.102h-0.1c-0.1,0-0.2-0.1-0.301-0.1
			c0,0,0-0.102-0.101-0.102l0,0l0,0L69.8,17l-0.1-0.1V16.8v-0.1l0,0V16.6v-0.1v-0.1c0,0,0,0,0-0.1v-0.1c0,0,0,0,0-0.1V16
			c0,0,0,0,0-0.1v-0.2c0,0,0-0.1-0.102-0.1c0,0,0,0,0-0.1l0,0c-7.801,0-15.602,0-23.4,0c-0.1,0-0.1,0-0.1,0l0,0v0.1
			c0,0,0,0.1-0.1,0.1l-0.1,0.1l-0.1,0.1c0,0,0,0.1-0.1,0.1c0,0,0,0.1-0.1,0.1c0,0.1-0.1,0.1-0.1,0.1c0,0.1,0,0.1-0.1,0.1
			c0,0.1,0,0.1-0.1,0.1l-0.1,0.1l-0.1,0.1V16.7v0.1c0,0,0,0-0.1,0.101L44.9,17l-0.1,0.1c0,0,0,0-0.1,0.102c0,0.1-0.1,0.1-0.1,0.1
			s0,0.102-0.1,0.102v0.1c-0.1,0.1-0.1,0.1-0.1,0.2c0,0,0,0.101-0.1,0.101L44.2,17.9V18l-0.1,0.1V18.2c0,0,0,0-0.1,0.1V18.4
			c0,0.1-0.1,0.1-0.1,0.1c-0.1,0-0.1,0.1-0.1,0.1s0,0.102-0.1,0.102v0.1c0,0,0,0-0.1,0.102V19l-0.1,0.1V19.2l-0.1,0.1L43.3,19.4
			c0,0.1,0,0.1-0.1,0.1v0.1c0,0,0,0.102-0.1,0.102L43,19.8c0,0,0,0-0.1,0.101c0,0,0,0,0,0.101c-0.5,0-1.1,0-1.6,0l0,0
			c-4.3,0-8.5,0-12.7,0c-0.1,0-0.2,0-0.3-0.101V20l0,0v0.1l0,0V20.2l0,0l0,0h-0.1l0,0l0,0v0.1l0,0l0,0l0,0V20.4l0,0l0,0l0,0l0,0
			V20.6l0,0l0,0l0,0l0,0l0,0l0,0l0,0l0,0l0,0l0,0V20.7l0,0l0,0v0.1l0,0l0,0V20.9l-0.5,1L28,24.3c0,0.101,0,0.2-0.1,0.3
			C27.8,24.7,27.8,24.7,27.7,24.7c-0.1,0-0.1,0-0.2,0c0,0,0,0-0.1,0.1c0,0.101-0.1,0.101-0.2,0.101l-1.7,0.301c-0.1,0-0.1,0-0.2,0
			l-2.5-1C22.7,24.1,22.7,24.1,22.6,24c0,0,0,0-0.1-0.1c-0.1-0.102-0.1-0.2-0.1-0.301l0.1-0.699c0-0.102,0-0.2,0.1-0.2
			s0.1,0,0.2-0.101v-0.801l0,0v-0.5l0,0l0,0l0,0v-0.1c0,0,0,0,0.1,0l0,0l0,0v-0.1L23,21v-0.1l0,0l0,0l0,0l0,0l0,0V20.8l0,0v-0.1
			c0,0,0,0,0.1,0l0,0l0,0l0,0l0,0l0,0l0,0l0,0l0,0V21l0,0l0,0l0,0l0,0l0,0l0,0l0,0l0,0h0.1l0.1-0.1l0,0l0,0V20.8h0.1l0,0l0,0l0,0
			l0,0v-0.1l0,0l0.1-0.101v-0.101l0,0l0,0l0,0l0,0l0,0l0,0l0,0l0,0l0,0v-0.101l0,0l0,0l0,0l0,0V20.3l0,0v-0.1l0,0l0,0c0,0,0,0,0.1,0
			l0,0l0,0l0,0l0,0l0,0V20.1l0,0l0,0v-0.3l-0.1-0.1V19.6l0,0v-0.1l0,0l0,0l0,0v-0.1L23.4,19.3V18.9l0,0h-0.1c-0.5,0-0.9,0-1.4,0l0,0
			l0,0c-0.1,0-0.2,0-0.3,0s-0.1,0-0.2,0v-0.2l0,0v-0.3l0,0v0.1v0.1l0,0V18.7v0.1l0,0c-0.2,0-0.4,0-0.6,0l0,0l0,0l0,0l0,0l0,0l0,0
			l0,0c0,0,0,0-0.1,0l0,0l0,0l0,0V18.9l0,0l0,0l0,0c0,0.1-0.1,0.1-0.1,0.1l0,0l0,0c0,0,0,0-0.1,0v-1v0.1V18.2l0,0h-0.1l0,0
			c0,0.1,0,0.2,0,0.3L20,19.1C19.9,19.2,19.9,19.2,19.8,19.2c-0.1,0-0.2,0-0.3,0C20,19.2,20,19.1,20,19.1L18.8,19.2
			c-0.1,0-0.1,0-0.2-0.101c-0.1,0-0.2,0.101-0.3,0.101l-0.1,0.1h-0.1V19.4c0,0.1-0.1,0.199-0.2,0.199l-9.3,3.899
			c-0.1,0.101-0.2,0.101-0.3,0c-0.1,0-0.1,0-0.1-0.101c-0.1,0-0.2,0-0.3,0s-0.2,0-0.3,0c0,0.101,0,0.101,0,0.101V23.6V23.7v0.1V23.9
			V24v0.1V24.2c0,0.1,0,0.1,0,0.2v0.1v0.1c0,0,0,0.102,0,0.2V24.9l0,0c0.1,0,0.1,0,0.2,0.1c0.1,0.1,0.1,0.2,0.1,0.2V25.6
			c0,0.102,0,0.2-0.1,0.301C7.7,26,7.7,26,7.6,26l0,0c-0.1,0.1-0.2,0.1-0.3,0.1H5.4c-0.1,0-0.1,0-0.2-0.1c0,0,0,0-0.1,0H5
			c-0.1,0-0.1,0-0.1,0c-0.1,0-0.1,0-0.2-0.1L4.6,25.8c0,0,0,0,0-0.1V25.6c0-0.1,0-0.1,0-0.1s0,0,0-0.1c-1.1,0-2.3,0-3.4,0.1
			c-0.1,0-0.1,0-0.2,0.1c-0.1,0-0.2,0-0.3,0c-0.1,0-0.2-0.1-0.3-0.1l-0.1-0.1c0,0,0-0.102-0.1-0.102v-0.1c0,0,0-0.102-0.1-0.102
			c0,0,0,0-0.1-0.1v-0.1V24.8c0,0,0,0,0-0.1V24.6v-0.1v-0.1V24.3v-0.1c0,0,0,0,0-0.101C0,24,0,24,0,24v-0.1V23.8c0,0,0,0,0-0.1V23.6
			v-0.1v-0.1V23.3v-0.1c0,0,0,0,0-0.101V23v-0.1V23v-0.1V22.8c0-0.1,0-0.1,0-0.1V22.6v-0.1v-0.1V22.3v-0.1V22.1V22v-0.1V21.8
			c0-0.1,0-0.1,0-0.1V21.6v-0.1c0,0,0,0,0-0.1C0,21.3,0,21.3,0,21.3c0-0.1,0-0.1,0-0.1V21.1c0,0,0,0,0-0.1v-0.1V20.8v-0.1V20.6v-0.1
			v-0.1V20.3c0-0.1,0-0.1,0-0.1C0,20,0,20,0,20s0,0,0-0.1V19.8c0-0.1,0-0.1,0-0.1V19.6v-0.1v-0.1c0,0,0,0,0-0.102c0-0.1,0-0.1,0-0.1
			c0-0.1,0-0.1,0-0.1V19v-0.1C0,18.8,0,18.8,0,18.8v-0.1V18.6v-0.1v-0.1V18.3v-0.1C0,18,0,18,0,18s0,0,0-0.1V17.8v-0.1V17.6v-0.1
			v-0.1c0,0,0,0,0-0.102v-0.1v-0.1V17v-0.1C0,16.8,0,16.8,0,16.8v-0.1V16.6v-0.1v-0.1v-0.1v-0.1C0,16.1,0,16,0,16v-0.1v-0.1v-0.1
			v-0.1v-0.1v-0.1v-0.1v-0.1v-0.1C0,15,0,15,0,15v-0.1c0-0.1,0-0.1,0-0.1v-0.1v-0.1v-0.1v-0.1v-0.1v-0.1v-0.1c0,0,0-0.1,0.1-0.1
			s0.1,0,0.1-0.1c0.1,0,0.2,0,0.3,0l0,0c0,0,0.1,0,0.2,0.1h0.1h0.1l0,0c1.2,0,2.3,0,3.5,0h0.1c0,0,0-0.1,0.1-0.1s0.2,0,0.3,0l0,0
			c0.1,0,0.1,0,0.2,0.1c0.6,0,1.2,0.1,1.8,0.1c0,0,0,0,0-0.1l0,0c0,0-0.1,0-0.1-0.1c0,0,0-0.1-0.1-0.1l-0.1-0.1l-0.1-0.1v-0.1v-0.1
			v-0.1v-0.1v-0.1c0-0.1,0-0.1,0-0.1s0-0.1,0.1-0.1l0.1-0.1v-0.1v-0.1v-0.1v-0.1v-0.1c0,0,0,0,0-0.1c0-0.1,0-0.1,0.1-0.1
			c0,0,0-0.1,0.1-0.1l0,0c0,0,0-0.1,0.1-0.1c0,0,0-0.1,0.1-0.1h0.1h0.1l0,0c3.8,0,7.6,0,11.4,0c0.1,0,0.1,0.1,0.2,0.1
			C18.9,12,19,12,19,12v0.1c0,0,0,0.1,0.1,0.1l0,0c0,0,0,0,0,0.1c0,0,0,0.1,0.1,0.1v0.1v0.1c0,0.1,0,0.1-0.1,0.1c0,0,0,0,0,0.1v0.1
			l0,0V13c0,0.1,0,0.1,0,0.1v0.1c0,0,0,0,0,0.1c0,0,0,0,0,0.1v0.1c0,0.1,0,0.1,0,0.1s0,0,0,0.1v0.1v0.1l0,0V14c0,0.1,0,0.1,0,0.1
			v0.1l0,0l0,0c-0.1,0-0.1,0.1-0.1,0.1c0,0.1,0,0.1,0,0.1l-0.1,0.1l-0.1,0.1l0,0v0.1l0,0l0,0c0.6,0,1.2,0,1.8,0l0,0c0,0,0,0,0.1,0
			l0,0c0.1,0,0.2,0,0.3-0.1c0.1,0,0.1,0,0.2,0.1c0.1,0,0.2,0,0.3,0c0.2,0,0.4,0,0.5,0s0.2,0,0.3,0c0,0,0,0,0.1,0h0.1l0,0
			c0,0,0.1,0,0.2,0l0,0h0.1l0,0h0.1l0,0H23l0,0h0.1c0,0,0,0,0.1,0l0,0l0,0c0,0,0,0,0.1,0l0,0l0,0l0,0h0.1l0,0h0.1h0.1l0,0l0,0l0,0
			l0,0h0.1c0,0,0,0,0.1,0l0,0l0,0l0,0l0,0h0.1l0,0H24l0,0l0,0h0.1l0,0l0,0c0.1,0,0.1,0,0.2,0l0,0h0.1h0.1l0,0l0,0l0,0c0,0,0,0,0.1,0
			s0.1,0,0.1,0h0.1l0,0l0,0l0,0c0.1,0,0.1,0,0.1,0s0,0,0.1,0l0,0h0.1l0,0c0,0,0,0,0.1,0l0,0c0.1,0,0.1,0,0.1,0l0,0l0.1-0.1h0.1
			c0,0,0,0,0.1,0l0,0l0,0l0,0l0,0c0,0,0,0,0.1,0c0.1,0,0.1,0,0.1,0h0.1l0,0l0,0c0.1,0,0.1,0,0.1,0s0,0,0.1,0l0,0l0,0l0,0l0,0l0,0
			c0,0,0,0,0.1,0l0,0l0,0l0,0c0,0,0,0,0.1,0l0,0l0,0l0,0l0,0l0,0l0,0l0,0c0,0,0,0,0.1,0l0,0l0,0l0,0c0,0,0,0,0.1,0c0,0,0,0,0.1,0
			l0,0c0,0,0,0,0.1,0l0,0c0,0,0-0.1,0.1-0.1c0,0,0,0,0.1,0H27l0.1-0.1c0,0,0,0,0-0.1c0,0,0,0,0.1,0h0.1l0,0l0,0c0,0,0,0,0.1,0l0,0
			l0,0l0,0l0,0c0,0,0,0,0.1,0h0.1l0,0h0.1h0.1c0.1-0.1,0.2-0.1,0.3-0.1c0,0,0.1,0,0.1-0.1c0.1,0,0.1,0,0.1,0c0.6,0,1.2-0.1,1.7-0.1
			c0.1,0,0.1,0,0.2,0c0,0,0,0,0-0.1s0-0.1,0-0.1c-1.6,0-3.1,0-4.7,0l0,0h-0.1c0,0,0,0-0.1,0c-0.2,0-0.4,0-0.6,0c-0.4,0-0.8,0-1.2,0
			l0,0h-0.1l0,0c0,0-0.1,0-0.2,0c0,0,0-0.1-0.1-0.1l0,0v-0.1c0,0,0,0,0-0.1v-0.1c0,0,0,0,0-0.1l0,0c0,0,0,0,0-0.1v-0.1V13l0,0v-0.1
			c0,0,0,0,0-0.1c0,0,0,0,0-0.1v-0.1l0,0v-0.1c0,0,0,0,0-0.1c0,0,0,0,0-0.1c0-0.1,0,0,0-0.1l0,0v-0.1c0,0,0,0,0-0.1v-0.1l0,0v-0.1
			v-0.1c0,0,0,0,0-0.1c0,0,0,0,0-0.1V7.8l0,0c0-0.1,0-0.1,0-0.1V7.6V7.4V7.3c0.1,0,0.1,0,0.1-0.1c0,0,0.1,0,0.2,0l0,0c0,0,0,0,0.1,0
			l0,0l0,0c0,0,0,0,0-0.1c0,0,0.1,0,0.1-0.1l0,0h0.1l0,0c0.9,0,1.8,0,2.8,0l0,0V6.9l0,0c0,0,0,0,0-0.1c0,0,0,0,0-0.1V6.6l0,0
			c0,0,0,0,0-0.1c0,0,0,0,0-0.1V6.3V6.2l0,0V6.1c0,0,0,0,0-0.1V5.9c0,0,0,0,0-0.1l0,0V5.7c0,0,0,0,0-0.1V5.5l0,0c0,0,0,0,0-0.1
			s0-0.1,0-0.1s0,0,0-0.1V5.1l0,0c0,0,0,0,0.1-0.1l0,0c0,0,0,0,0.1,0c0,0,0,0,0.1,0l0,0c0.7,0,1.4,0,2.1,0c0,0,0,0,0.1,0l0,0l0,0
			l0.1,0.1c0,0,0,0,0.1,0.1c0,0,0,0,0.1,0c0,0,0,0,0,0.1c0,0,0,0,0,0.1v0.1v0.1l0,0c0,0,0,0,0,0.1c0,0,0,0,0,0.1v0.1c0,0,0,0,0,0.1
			l0,0c0,0.1,0,0.1,0,0.1s0,0,0,0.1v0.1l0,0v0.1v0.1c0,0,0,0,0,0.1v0.1l0,0c0,0,0,0,0,0.1c0,0.1,0,0.1,0,0.1s0,0,0,0.1s0,0.1,0,0.1
			l0,0c0,0,0,0,0,0.1c2.1,0,4.3,0,6.3,0l0,0V7.1l0,0c0,0,0,0,0-0.1c0,0,0,0,0-0.1V6.8l0,0c0,0,0,0,0-0.1c0,0,0,0,0-0.1V6.5V6.4l0,0
			V6.3c0,0,0,0,0-0.1V6.1c0,0,0,0,0-0.1l0,0V5.9c0,0,0,0,0-0.1V5.7l0,0c0,0,0,0,0-0.1s0-0.1,0-0.1s0,0,0-0.1V5.3l0,0c0,0,0,0,0-0.1
			c0-0.1,0-0.1,0-0.1s0,0,0-0.1V4.9l0,0c0,0,0,0,0-0.1c0-0.1,0,0,0-0.1c0-0.1,0,0,0-0.1V4.5c0,0,0,0,0-0.1c0,0,0,0,0-0.1
			C37.4,4.3,37.4,4.3,37.5,4.2L37.5,4.2z M71.6,18.1C71.6,18.1,71.6,18,71.6,18.1c0-0.1,0-0.1,0-0.199C71.6,18,71.6,18,71.6,18.1
			C71.6,18,71.6,18.1,71.6,18.1L71.6,18.1z M31,17.6V17.7v0.1V17.9c0,0,0,0,0,0.1s0,0.1,0,0.1s0,0,0,0.102l0,0
			c0.1,0,0.1,0.1,0.1,0.1s0.1,0,0.1,0.102v0.1v0.1c0.1,0,0.2,0,0.3,0s0.1,0,0.2,0l0,0c0,0,0.1,0,0.2,0s0.1-0.1,0.2-0.1
			s0.1-0.1,0.2-0.1c0,0,0.1,0,0.1-0.102c0,0,0.1,0,0.1-0.1l0,0c0.1,0,0.1-0.102,0.1-0.102l0.1-0.1l0.1-0.1l0.1-0.102
			c0-0.1,0-0.1,0-0.1v-0.1v-0.1v-0.1V17.3v-0.1c-0.7,0-1.5,0-2.2,0l0,0v0.1c0,0,0,0,0,0.101v0.101C31,17.5,31,17.6,31,17.6z
			 M29.9,18.6c-0.1,0-0.1-0.1-0.1-0.1l-0.1-0.1c0,0,0-0.102-0.1-0.102v-0.1v-0.1V18c0,0,0,0,0-0.1V17.8c0,0,0-0.1,0-0.2v-0.1v-0.1
			V17.3c0,0,0,0,0-0.1h-0.1c0,0,0,0,0,0.1V17.4l0,0h-0.1l0,0l-0.1,0.1l-0.1,0.1V17.7v0.1V17.9V18h0.1c0,0,0.1,0,0.1,0.1l0.1,0.102
			c0,0.1,0,0.1,0,0.1l0,0C29.6,18.6,29.8,18.6,29.9,18.6L29.9,18.6z M23.9,16.9c0.1,0,0.2,0,0.3,0h0.1l0,0c-0.1,0-0.1,0-0.2,0
			C24.1,16.9,24,16.9,23.9,16.9L23.9,16.9z M25,17.4L25,17.4h-0.1l0,0H25z M9.1,19.3C9.1,19.4,9.1,19.4,9.1,19.3
			C9.1,19.4,9.1,19.4,9.1,19.3L9,19.5c0,0,0,0,0,0.1V19.7v0.1V19.9c0,0,0,0,0,0.1s0,0,0,0.1V20c0,0,0,0,0,0.1c0,0,0,0,0,0.102l0,0
			c0,0,0,0,0,0.1l0,0c0,0,0,0,0,0.102l0,0h0.1c0.1,0,0.1,0,0.2,0.1c0.2,0,0.4,0.1,0.6,0.1L10,20.7V20.6l0,0h0.1l0,0l0,0h0.1l0,0l0,0
			l0,0h0.1l0,0l0,0l0,0c0,0,0,0,0.1,0l0,0l0,0l0,0l0,0l0,0l0,0l0,0l0,0h0.1h0.1c0,0,0,0,0.1,0h0.1l0,0c0,0,0,0,0.1,0l0,0H11
			c0,0,0,0,0-0.1l0.1-0.1c0-0.102,0-0.102,0.1-0.102v-0.1v-0.1c0,0,0,0,0-0.1l0,0C11,19.3,10.1,19.3,9.1,19.3L9.1,19.3
			C9.2,19.3,9.2,19.3,9.1,19.3z M5.4,25.6H5.3H5.4L5.4,25.6z M22.9,24.6L22.9,24.6L22.9,24.6L22.9,24.6z"/>
	</defs>
	<clipPath id="SVGID_3_">
		<use xlink:href="#SVGID_2_"  overflow="visible"/>
	</clipPath>
	<g clip-path="url(#SVGID_3_)">
		<g>
			<g>
				
					<linearGradient id="SVGID_4_" gradientUnits="userSpaceOnUse" x1="379.4224" y1="-267.939" x2="422.727" y2="-256.5254" gradientTransform="matrix(1 0 0 -1 -374.96 -246.5996)">
					<stop  offset="2.054068e-007" style="stop-color:#FE6198"/>
					<stop  offset="1" style="stop-color:#FFC9D4"/>
				</linearGradient>
				<polygon fill="url(#SVGID_4_)" points="-9.025,26.426 -3.294,26.426 1.096,20.694 -4.635,20.694 				"/>
				
					<linearGradient id="SVGID_5_" gradientUnits="userSpaceOnUse" x1="378.6626" y1="-265.0591" x2="421.9607" y2="-253.6472" gradientTransform="matrix(1 0 0 -1 -374.96 -246.5996)">
					<stop  offset="2.054068e-007" style="stop-color:#FE6198"/>
					<stop  offset="1" style="stop-color:#FFC9D4"/>
				</linearGradient>
				<polygon fill="url(#SVGID_5_)" points="5.364,14.962 1.096,20.694 6.828,20.694 11.096,14.962 				"/>
				
					<linearGradient id="SVGID_6_" gradientUnits="userSpaceOnUse" x1="380.1665" y1="-270.7637" x2="423.4705" y2="-259.3502" gradientTransform="matrix(1 0 0 -1 -374.96 -246.5996)">
					<stop  offset="2.054068e-007" style="stop-color:#FE6198"/>
					<stop  offset="1" style="stop-color:#FFC9D4"/>
				</linearGradient>
				<polygon fill="url(#SVGID_6_)" points="2.437,26.426 8.168,26.426 12.559,20.694 6.828,20.694 				"/>
				
					<linearGradient id="SVGID_7_" gradientUnits="userSpaceOnUse" x1="379.4067" y1="-267.8838" x2="422.7072" y2="-256.4712" gradientTransform="matrix(1 0 0 -1 -374.96 -246.5996)">
					<stop  offset="2.054068e-007" style="stop-color:#FE6198"/>
					<stop  offset="1" style="stop-color:#FFC9D4"/>
				</linearGradient>
				<polygon fill="url(#SVGID_7_)" points="12.559,20.694 18.291,20.694 22.559,14.962 16.827,14.962 				"/>
				
					<linearGradient id="SVGID_8_" gradientUnits="userSpaceOnUse" x1="377.1587" y1="-259.3535" x2="420.4599" y2="-247.9408" gradientTransform="matrix(1 0 0 -1 -374.96 -246.5996)">
					<stop  offset="2.054068e-007" style="stop-color:#FE6198"/>
					<stop  offset="1" style="stop-color:#FFC9D4"/>
				</linearGradient>
				<polygon fill="url(#SVGID_8_)" points="4.023,9.231 -0.367,14.962 5.364,14.962 9.754,9.231 				"/>
				
					<linearGradient id="SVGID_9_" gradientUnits="userSpaceOnUse" x1="376.3989" y1="-256.4746" x2="419.701" y2="-245.0617" gradientTransform="matrix(1 0 0 -1 -374.96 -246.5996)">
					<stop  offset="2.054068e-007" style="stop-color:#FE6198"/>
					<stop  offset="1" style="stop-color:#FFC9D4"/>
				</linearGradient>
				<polygon fill="url(#SVGID_9_)" points="19.753,3.5 14.022,3.5 9.754,9.231 15.485,9.231 				"/>
				
					<linearGradient id="SVGID_10_" gradientUnits="userSpaceOnUse" x1="377.9038" y1="-262.1792" x2="421.2061" y2="-250.7662" gradientTransform="matrix(1 0 0 -1 -374.96 -246.5996)">
					<stop  offset="2.054068e-007" style="stop-color:#FE6198"/>
					<stop  offset="1" style="stop-color:#FFC9D4"/>
				</linearGradient>
				<polygon fill="url(#SVGID_10_)" points="16.827,14.962 21.217,9.231 15.485,9.231 11.096,14.962 				"/>
				
					<linearGradient id="SVGID_11_" gradientUnits="userSpaceOnUse" x1="377.144" y1="-259.2993" x2="420.4445" y2="-247.8868" gradientTransform="matrix(1 0 0 -1 -374.96 -246.5996)">
					<stop  offset="2.054068e-007" style="stop-color:#FE6198"/>
					<stop  offset="1" style="stop-color:#FFC9D4"/>
				</linearGradient>
				<polygon fill="url(#SVGID_11_)" points="31.217,3.5 25.485,3.5 21.217,9.231 26.949,9.231 				"/>
				
					<linearGradient id="SVGID_12_" gradientUnits="userSpaceOnUse" x1="380.1509" y1="-270.708" x2="423.4516" y2="-259.2954" gradientTransform="matrix(1 0 0 -1 -374.96 -246.5996)">
					<stop  offset="2.054068e-007" style="stop-color:#FE6198"/>
					<stop  offset="1" style="stop-color:#FFC9D4"/>
				</linearGradient>
				<polygon fill="url(#SVGID_12_)" points="24.021,20.694 29.753,20.694 34.021,14.962 28.29,14.962 				"/>
				
					<linearGradient id="SVGID_13_" gradientUnits="userSpaceOnUse" x1="379.3872" y1="-267.814" x2="422.6894" y2="-256.401" gradientTransform="matrix(1 0 0 -1 -374.96 -246.5996)">
					<stop  offset="2.054068e-007" style="stop-color:#FE6198"/>
					<stop  offset="1" style="stop-color:#FFC9D4"/>
				</linearGradient>
				<polygon fill="url(#SVGID_13_)" points="34.021,14.962 39.753,14.962 44.021,9.231 38.289,9.231 				"/>
				
					<linearGradient id="SVGID_14_" gradientUnits="userSpaceOnUse" x1="378.6479" y1="-265.0029" x2="421.9509" y2="-253.5898" gradientTransform="matrix(1 0 0 -1 -374.96 -246.5996)">
					<stop  offset="2.054068e-007" style="stop-color:#FE6198"/>
					<stop  offset="1" style="stop-color:#FFC9D4"/>
				</linearGradient>
				<polygon fill="url(#SVGID_14_)" points="26.949,9.231 22.559,14.962 28.29,14.962 32.558,9.231 				"/>
				
					<linearGradient id="SVGID_15_" gradientUnits="userSpaceOnUse" x1="377.8882" y1="-262.1084" x2="421.1867" y2="-250.6964" gradientTransform="matrix(1 0 0 -1 -374.96 -246.5996)">
					<stop  offset="2.054068e-007" style="stop-color:#FE6198"/>
					<stop  offset="1" style="stop-color:#FFC9D4"/>
				</linearGradient>
				<polygon fill="url(#SVGID_15_)" points="42.679,3.5 36.948,3.5 32.558,9.231 38.289,9.231 				"/>
				
					<linearGradient id="SVGID_16_" gradientUnits="userSpaceOnUse" x1="378.6265" y1="-264.9346" x2="421.9303" y2="-253.5211" gradientTransform="matrix(1 0 0 -1 -374.96 -246.5996)">
					<stop  offset="2.054068e-007" style="stop-color:#FE6198"/>
					<stop  offset="1" style="stop-color:#FFC9D4"/>
				</linearGradient>
				<polygon fill="url(#SVGID_16_)" points="48.411,3.5 44.021,9.231 49.751,9.231 54.141,3.5 				"/>
			</g>
		</g>
	</g>
</g>
</svg>
