<?xml version="1.0" encoding="utf-8"?>
<!-- Generator: Adobe Illustrator 16.0.0, SVG Export Plug-In . SVG Version: 6.00 Build 0)  -->
<!DOCTYPE svg PUBLIC "-//W3C//DTD SVG 1.0//EN" "http://www.w3.org/TR/2001/REC-SVG-20010904/DTD/svg10.dtd">
<svg version="1.0" id="图层_1" xmlns="http://www.w3.org/2000/svg" xmlns:xlink="http://www.w3.org/1999/xlink" x="0px" y="0px"
	 width="99.8px" height="32px" viewBox="0 0 99.8 32" enable-background="new 0 0 99.8 32" xml:space="preserve">
<g id="Selected_Items">
	<g>
		<g id="Selected_Items_48_">
			<linearGradient id="SVGID_1_" gradientUnits="userSpaceOnUse" x1="-1.953125e-003" y1="16.5723" x2="99.5586" y2="16.5723">
				<stop  offset="2.300000e-007" style="stop-color:#F8D27E"/>
				<stop  offset="1" style="stop-color:#B3751F"/>
			</linearGradient>
			<path fill="url(#SVGID_1_)" d="M37.5,4.2C37.5,4.2,37.5,4.1,37.5,4.2c0.1-0.1,0.1-0.1,0.1-0.1c0,0,0-0.1,0-0.1c0,0,0.1,0,0.1,0
				s0.1,0,0.1,0v0c0.6,0,1.3,0,1.9,0c0,0,0.1,0,0.1,0c0.1,0,0.2,0,0.3,0c0.1,0,0.1,0,0.1,0c0,0,0,0.1,0.1,0.1l0,0c0,0,0,0,0,0.1
				c0,0,0,0,0,0.1s0,0,0,0.1c0,0,0,0.1,0,0.1c0,0,0,0.1,0,0.1c0,0,0,0,0,0v0c0,0,0,0,0,0.1s0,0.1,0,0.1c0,0,0,0,0,0.1v0
				c0,0,0,0,0,0.1c0,0,0,0,0,0.1s0,0.1,0,0.1c0,0,0,0,0,0.1v0c0,0,0,0,0,0.1c0,0,0,0,0,0.1c0,0,0,0,0,0.1s0,0,0,0.1h0c0,0,0,0,0,0
				c0,0,0,0.1,0,0.1c0,0,0,0,0,0.1c0,0,0,0,0,0.1l0,0c0,0,0,0,0,0.1s0,0,0,0.1c0,0,0,0,0,0.1c0,0.1,0,0.1,0,0.1v0c0,0,0,0.1,0,0.1
				c0,0,0,0,0,0.1c0,0,0,0,0,0.1c0,0,0,0.1,0,0.1v0c0,0,0,0.1,0,0.1c0,0,0,0.1,0,0.1c0,0,0,0,0,0.1v0c0,0,0,0,0,0.1v0
				c2.5,0,5.1,0,7.7,0c0,0,0,0,0.1,0c0,0,0,0,0,0c0.1,0,0.2,0,0.3-0.1c0,0,0.1,0,0.2,0c0.1,0,0.2-0.1,0.2-0.1c0.1,0,0.1,0,0.2-0.1
				c0.1,0,0.2-0.1,0.3-0.1c0.1,0,0.1,0,0.2-0.1c0,0,0.1,0,0.2-0.1c0.1,0,0.1-0.1,0.1-0.1c0.1,0,0.2,0,0.2,0c0,0,0,0,0-0.1
				c0,0,0.1-0.1,0.1-0.1c0,0,0.1,0,0.1,0c0,0,0.1-0.1,0.1-0.1c0.1,0,0.1,0,0.1,0c0,0,0.1,0,0.2,0c0,0,0.1-0.1,0.1-0.1c0,0,0,0,0.1,0
				c0,0,0,0,0.1,0h0c0,0,0-0.1,0-0.1c0,0,0,0,0.1-0.1l0.1-0.1c0,0,0.1,0,0.1,0v0c0.6,0,1.1,0,1.6,0v0c0.2,0,0.4,0,0.6,0v0
				c0.1,0,0.2,0,0.3,0c0,0,0,0,0,0c0.2,0,0.4,0,0.5,0l0,0c0.6,0,1.2,0,1.9,0c0,0,0,0,0.1,0c0,0,0.1,0,0.1,0l0,0.1c0,0,0.1,0,0.1,0.1
				c0,0,0,0,0.1,0.1l0,0c0,0,0,0,0,0.1s0,0,0,0.1c0,0,0,0,0,0.1c0,0,0,0.1,0,0.1v0c0,0,0,0-0.1,0c0,0.1,0,0.1,0,0.1c0,0,0,0,0,0.1
				c0,0,0,0,0,0.1v0c0,0,0,0,0,0.1v0.1c0,0,0,0,0,0.1s0,0,0,0.1c0,0,0,0.1,0,0.1c0,0,0,0.1,0,0.1c0,0,0,0.1,0,0.1c0,0,0,0.1,0,0.1
				c0,0.1,0,0.1,0,0.1c0,0,0,0.1,0,0.1c0,0,0,0.1,0,0.1c0,0,0,0.1,0,0.1c0,0,0,0.1,0,0.1v0.1c0,0,0,0.1,0,0.1c0,0.1,0,0.1,0,0.1
				c0,0,0,0,0,0.1c0,0,0,0.1,0,0.1c0,0,0,0.1,0,0.1v0.1c0,0,0,0.1,0,0.1c0,0,0,0.1,0,0.1c0,0,0,0,0,0.1c0,0,0,0.1,0,0.1
				c0,0,0,0.1,0,0.1c0,0.1,0,0.1,0,0.1c0,0,0,0,0,0.1c0,0.1,0,0.1,0,0.1c0,0,0,0.1,0,0.1s0,0.1,0,0.1c0,0,0,0.1,0,0.1
				c0,0,0,0.1,0,0.1c0,0,0,0,0,0.1c0,0,0,0.1,0,0.1c0,0,0,0.1,0,0.1v0.1c0,0,0,0.1,0,0.1c0,0.1,0,0.1,0,0.1c0,0,0,0.1,0,0.1
				s0,0.1,0,0.1c0,0,0,0.1,0,0.1c12.4,0,24.8,0,37.1,0c1.8,0,3.5,0,5.3,0c0.1,0,0.1,0,0.2,0.1c0.1,0,0.1,0,0.1,0.1v0
				c0,0,0.1,0.1,0.1,0.1c0,0,0,0.1,0.1,0.1l0,0.1c0,0.1,0,0.1,0,0.1c0,0,0,0.1,0,0.1c0,0,0,0.1,0,0.1c0,0,0,0.1,0,0.1
				c0,0,0,0.1,0,0.1c0,0-0.1,0.1-0.1,0.1v0.1c0,0,0,0.1,0,0.1c0,0,0,0.1,0,0.1c0,0,0,0,0,0.1c0,0,0,0.1,0,0.1c0,0,0,0.1,0,0.1v0.1
				c0,0,0,0,0,0.1c0,0,0,0,0,0.1v0c0,0,0,0.1,0,0.1c0,0,0,0.1,0,0.1s0,0.1,0,0.1c0,0-0.1,0.1-0.1,0.1c-0.1,0-0.2,0.1-0.2,0.1
				c-0.1,0-0.2,0-0.3,0c-0.1,0-0.1,0-0.2,0c-0.1,0-0.2-0.1-0.3-0.1c-8,0-16,0-24-0.1c0,0,0,0,0,0.1c0,0,0,0.1,0,0.1c0,0,0,0.1,0,0.1
				c0,0,0,0.1,0,0.1c0,0,0,0,0,0.1l0,0c0,0.1,0,0.1,0,0.1c0,0,0,0.1,0,0.1c0,0,0,0.1,0,0.1c0,0,0,0,0,0.1s0,0.1,0,0.1v0.1
				c0,0,0,0.1,0,0.1s0,0.1,0,0.1v0.1c0,0,0,0.1,0,0.1v0.1c0,0,0,0.1,0,0.1c0,0,0,0.1,0,0.1c0,0,0,0,0,0.1c0,0,0,0.1,0,0.1v0.3
				c0,0,0,0.1,0,0.1c0,0,0,0.1,0,0.1v0.1c0,0,0,0.1,0,0.1c0,0,0,0.1,0,0.1V16c0,0,0,0.1,0,0.1v0.1c0,0,0,0,0,0.1V17c0,0,0,0-0.1,0h0
				c0,0,0,0.1,0,0.1c0,0,0,0.1,0,0.1c0,0,0,0,0,0.1c0,0,0,0.1,0,0.1c0,0.1,0,0.1,0,0.1s0,0.1,0,0.1c0,0,0,0.1,0,0.1c0,0,0,0.1,0,0.1
				c0,0,0,0,0,0.1c0,0,0,0.1,0,0.1c0,0,0,0.1,0,0.1v0.1c0,0,0,0.1,0,0.1c0,0,0,0.1-0.1,0.1c0,0.1,0,0.1,0,0.1c0,0,0,0-0.1,0.1
				c0,0,0,0,0,0c0,0,0,0.1,0,0.1c0,0,0,0.1,0,0.1c0,0,0,0.1,0,0.1c0,0,0,0,0,0.1c0,0.1,0,0.2,0,0.3c0,0.1,0,0.2,0,0.3s0,0.2,0,0.3
				c0,0.1,0,0.1,0,0.2c0,0.1,0,0.2,0,0.3c0,0.1,0,0.2,0,0.3s0,0.2,0,0.3c0,0.1,0,0.2,0,0.2c0,0.1,0,0.2,0,0.3c0,0.1,0,0.2,0,0.3
				c0,0.1,0,0.2,0,0.3c0,0.1,0,0.2,0,0.2v0c0,0,0.1,0,0.1,0c0,0.1,0.1,0.1,0.1,0.1l0,0.1c0,0,0,0.1,0,0.1h0c0,0.1,0,0.1,0.1,0.1
				c0,0,0,0.1,0,0.1c0,0,0,0.1,0,0.1c0,0,0,0.1-0.1,0.1v0c0,0,0,0,0,0.1v0.1c0,0,0,0,0,0.1s0,0,0,0.1s0,0,0,0.1s0,0,0,0.1v0
				c0,0,0,0,0,0.1v0h0v0h0c0,0,0,0,0,0h0c0,0,0.1,0,0.1,0.1c0,0,0.1,0,0.1,0c0,0,0,0,0,0.1c0,0,0,0,0,0.1c0,0,0,0.1,0,0.1
				s0,0.1,0,0.1v0c0,0,0,0,0,0.1c0,0,0,0,0,0.1c0,0,0,0.1,0,0.1c0,0,0,0,0,0.1c0,0,0,0,0,0c0,0,0,0.1,0,0.1c0,0,0,0,0,0.1
				c0,0,0,0.1,0.1,0.1c0,0,0,0,0,0c0,0,0,0,0,0.1s0,0,0,0.1c0,0,0,0,0,0.1c0,0,0,0.1,0,0.1c0,0,0,0,0,0c0,0,0,0.1,0,0.1
				c0,0,0,0,0,0.1c0,0,0,0.1,0,0.1c0,0,0,0,0,0.1l0,0c0,0,0,0.1,0,0.1c0,0,0,0,0,0.1c0,0,0,0,0,0.1c0,0,0,0,0,0c0,0,0,0,0,0.1
				c0,0,0,0,0,0.1c0,0,0,0,0,0.1c0,0,0,0.1,0,0.1l0,0c0,0,0,0.1,0,0.1c0,0,0,0.1,0,0.1c0,0,0,0,0,0.1c0,0,0,0,0,0.1v0c0,0,0,0,0,0.1
				c0,0,0,0.1,0,0.1c0.1,0,0.1,0,0.1,0.1c0,0,0,0,0.1,0c0,0,0,0,0,0.1c0,0,0.1,0.1,0.1,0.1c0,0,0,0.1,0,0.1c0,0,0.1,0.1,0.1,0.1
				c0,0,0.1,0,0.1,0c0,0,0,0,0.1,0.1c0,0,0,0.1,0,0.1c0,0,0.1,0,0.1,0.1c0,0,0,0,0,0.1c0,0,0,0,0,0.1c0,0,0,0,0,0.1s0,0.1,0,0.1
				s0,0,0,0.1s0,0,0,0.1c0,0,0,0,0,0c0,0,0,0,0,0.1c0,0,0.1,0,0.1,0c0,0,0,0.1,0,0.1c0,0,0,0,0,0.1l0,0c0,0,0,0.1,0,0.1
				c0,0,0,0.1-0.1,0.1c0,0,0,0.1,0,0.1c0,0,0,0,0,0.1c0,0,0,0,0,0.1c0,0,0,0-0.1,0.1c0,0,0,0.1,0,0.1c0,0,0,0.1-0.1,0.1
				c0,0,0,0,0,0.1c0,0-0.1,0-0.1,0c0,0,0,0,0,0.1c0,0.1,0,0.1,0,0.1c0,0,0,0,0,0.1v0c0,0,0,0,0,0.1c0,0,0,0-0.1,0c0,0-0.1,0-0.1,0
				c0,0,0,0-0.1,0c0,0-0.1,0-0.1,0c-0.6,0-1.2,0-1.8,0c0,0-0.1,0-0.1,0c0,0,0,0-0.1-0.1c0,0,0,0,0-0.1s0-0.1,0-0.1c0,0,0,0,0-0.1
				c0,0,0,0,0-0.1v0c0,0,0-0.1,0-0.1s0,0,0-0.1s0,0,0-0.1c0,0,0-0.1,0-0.1s0,0,0-0.1v0c0,0,0,0,0-0.1s0-0.1,0-0.1c0,0,0-0.1,0-0.1v0
				c0,0,0,0,0-0.1s0,0,0-0.1s0,0,0-0.1c0,0,0-0.1,0-0.1c0,0,0-0.1,0-0.1c0,0,0,0,0-0.1c0,0,0,0,0-0.1c0,0,0-0.1,0-0.1
				c0,0,0-0.1,0-0.1v0c0,0,0-0.1,0-0.1c0,0,0-0.1,0.1-0.1c0,0,0,0,0-0.1s0,0,0-0.1c0,0,0-0.1,0-0.1l0,0c0,0,0,0,0.1,0
				c0,0,0.1,0,0.1,0c0,0,0.1,0,0.1,0h0l0,0v0c0,0,0-0.1,0-0.1c0,0,0,0,0-0.1c0,0,0,0,0-0.1c0,0,0-0.1,0-0.1s0-0.1,0-0.1
				c0,0,0,0,0-0.1c0,0,0,0-0.1-0.1c0,0,0-0.1,0-0.1c0,0,0,0,0-0.1c0,0,0,0-0.1,0c0,0,0,0,0-0.1s0-0.1,0-0.1c0-0.1,0-0.1,0-0.1l0,0
				c0,0,0,0,0-0.1c0,0,0-0.1-0.1-0.1c0,0,0-0.1,0-0.1c0,0,0,0,0-0.1l0,0c0,0,0-0.1,0-0.1c0,0,0,0,0-0.1c0,0,0,0,0-0.1s0-0.1,0-0.1v0
				c0,0,0,0,0-0.1c0,0,0,0,0-0.1c0-0.1,0-0.1,0-0.1l0,0c0,0,0,0,0-0.1c0,0,0,0,0-0.1c0,0,0,0,0-0.1c0,0,0-0.1,0-0.1c0,0-0.1,0-0.1,0
				c0,0,0-0.1,0-0.1c0,0,0,0,0-0.1c0,0,0,0,0-0.1l0,0c-0.6,0-1.2,0-1.8,0c0,0-0.1,0.1-0.2,0.1c-0.1,0-0.2,0-0.3,0c0,0-0.1,0-0.1,0h0
				c0,0-0.1,0-0.1,0c-0.1,0-0.1,0-0.2-0.1c0-0.1,0-0.1-0.1-0.1c0,0,0-0.1,0-0.1c0-0.1,0-0.1,0-0.1c0,0,0-0.1,0-0.1c0,0,0-0.1,0-0.1
				c0,0,0-0.1,0-0.1c0,0,0-0.1,0-0.1v-0.1c0,0,0-0.1,0-0.1c0,0,0-0.1,0-0.1c0,0,0,0,0-0.1c0,0,0-0.1,0-0.1c0,0,0-0.1,0-0.1
				c0-0.1,0-0.1,0-0.1c0,0,0-0.1,0-0.1c0,0,0-0.1,0-0.1c0,0,0,0,0.1-0.1c0,0,0,0,0-0.1c0,0,0.1-0.1,0.1-0.1c0,0,0.1,0,0.1-0.1
				c0.2,0,0.4,0,0.6,0v0c0,0,0-0.1,0-0.1c0-0.1,0-0.1,0-0.1c0,0,0-0.1,0-0.1c0,0,0-0.1,0-0.1c0,0,0-0.1,0-0.1c0,0,0-0.1,0-0.1
				c-0.2,0-0.4,0-0.6,0c0,0-0.1,0-0.1,0c-0.1,0-0.1-0.1-0.1-0.1c0,0,0,0,0,0c0-0.1,0-0.1-0.1-0.1V21c0,0,0-0.1,0-0.1
				c0-0.1,0-0.1,0-0.1c0,0,0-0.1,0-0.1v-0.1c0,0,0-0.1,0-0.1c0,0,0-0.1,0-0.1c0,0,0,0,0.1-0.1v0c0,0,0-0.1-0.1-0.1c0,0,0-0.1,0-0.1
				s0,0,0-0.1c0,0,0-0.1,0-0.1c0-0.1,0-0.1,0.1-0.1c0-0.1,0-0.1,0-0.1c0.1,0,0.1,0,0.2,0v0c0.1,0,0.2,0,0.3,0c0.1,0,0.2,0,0.3,0l0,0
				c0,0,0-0.1,0-0.1c0,0,0-0.1,0-0.1c0,0,0,0,0-0.1s0-0.1,0-0.1c0-0.1,0-0.1,0-0.1V19c0,0,0-0.1,0-0.1c0-0.1,0-0.1,0-0.1
				c0,0,0-0.1,0-0.1s0-0.1,0-0.1c0,0,0-0.1,0-0.1c0,0,0-0.1,0-0.1v-0.1c0,0,0-0.1,0-0.1c0-0.1,0-0.1,0-0.1c0,0,0,0,0-0.1
				c0,0,0-0.1,0-0.1c0,0,0-0.1,0-0.1c0,0,0-0.1,0-0.1s0-0.1,0-0.1c0,0,0-0.1,0-0.1c0,0,0,0,0-0.1c0,0,0,0,0-0.1c0,0-0.1,0-0.1,0
				c-0.1,0-0.2-0.1-0.3-0.1c0,0,0-0.1-0.1-0.1v0h0c0,0-0.1-0.1-0.1-0.1c0,0-0.1-0.1-0.1-0.1c0,0,0-0.1,0-0.1c0,0,0-0.1,0-0.1h0v-0.1
				c0,0,0-0.1,0-0.1c0,0,0-0.1,0-0.1c0,0,0,0,0-0.1v-0.1c0,0,0,0,0-0.1c0,0,0-0.1,0-0.1c0,0,0,0,0-0.1v-0.2c0,0,0-0.1-0.1-0.1
				c0,0,0,0,0-0.1v0c-7.8,0-15.6,0-23.4,0c-0.1,0-0.1,0-0.1,0l0,0c0,0,0,0.1,0,0.1c0,0,0,0.1-0.1,0.1c0,0-0.1,0.1-0.1,0.1
				c0,0-0.1,0.1-0.1,0.1c0,0,0,0.1-0.1,0.1c0,0,0,0.1-0.1,0.1c0,0.1-0.1,0.1-0.1,0.1c0,0.1,0,0.1-0.1,0.1c0,0.1,0,0.1-0.1,0.1
				c0,0-0.1,0.1-0.1,0.1c0,0-0.1,0.1-0.1,0.1c0,0,0,0.1,0,0.1c0,0,0,0.1,0,0.1c0,0,0,0-0.1,0.1c0,0-0.1,0.1-0.1,0.1
				c0,0-0.1,0.1-0.1,0.1c0,0,0,0-0.1,0.1c0,0.1-0.1,0.1-0.1,0.1c0,0,0,0.1-0.1,0.1l0,0.1c-0.1,0.1-0.1,0.1-0.1,0.2
				c0,0,0,0.1-0.1,0.1c0,0-0.1,0.1-0.1,0.1c0,0,0,0.1,0,0.1c0,0-0.1,0.1-0.1,0.1c0,0,0,0.1,0,0.1c0,0,0,0-0.1,0.1c0,0,0,0.1,0,0.1
				c0,0.1-0.1,0.1-0.1,0.1c-0.1,0-0.1,0.1-0.1,0.1c0,0,0,0.1-0.1,0.1c0,0,0,0.1,0,0.1c0,0,0,0-0.1,0.1c0,0,0,0.1,0,0.1
				c0,0-0.1,0.1-0.1,0.1v0.1c0,0-0.1,0.1-0.1,0.1c0,0-0.1,0.1-0.1,0.1c0,0.1,0,0.1-0.1,0.1c0,0,0,0.1,0,0.1c0,0,0,0.1-0.1,0.1
				c0,0-0.1,0.1-0.1,0.1c0,0,0,0-0.1,0.1c0,0,0,0,0,0.1c-0.5,0-1.1,0-1.6,0v0c-4.3,0-8.5,0-12.7,0c-0.1,0-0.2,0-0.3-0.1v0.1
				c0,0,0,0,0,0v0.1h0v0.1l0,0v0c0,0-0.1,0-0.1,0v0c0,0,0,0,0,0v0.1c0,0,0,0,0,0v0c0,0,0,0,0,0v0.1c0,0,0,0,0,0c0,0,0,0,0,0v0h0v0.2
				c0,0,0,0,0,0v0c0,0,0,0,0,0c0,0,0,0,0,0v0h0v0l0,0v0c0,0,0,0,0,0v0.1c0,0,0,0,0,0l0,0v0.1l0,0h0c0,0,0,0.1,0,0.1l-0.5,1l0.3,2.4
				c0,0.1,0,0.2-0.1,0.3c-0.1,0.1-0.1,0.1-0.2,0.1c-0.1,0-0.1,0-0.2,0c0,0,0,0-0.1,0.1c0,0.1-0.1,0.1-0.2,0.1l-1.7,0.3
				c-0.1,0-0.1,0-0.2,0l-2.5-1c-0.1-0.1-0.1-0.1-0.2-0.2c0,0,0,0-0.1-0.1c-0.1-0.1-0.1-0.2-0.1-0.3l0.1-0.7c0-0.1,0-0.2,0.1-0.2
				c0.1,0,0.1,0,0.2-0.1v-0.8c0,0,0,0,0,0v-0.5c0,0,0,0,0,0v0l0,0v-0.1c0,0,0,0,0.1,0v0h0v-0.1l0.1-0.1v-0.1c0,0,0,0,0,0
				c0,0,0,0,0,0H23v0l0,0v-0.1l0,0v-0.1c0,0,0,0,0.1,0l0,0v0c0,0,0,0,0,0l0,0v0l0,0h0c0,0,0,0,0,0V21l0,0v0l0,0v0c0,0,0,0,0,0l0,0v0
				c0,0,0,0,0,0c0,0,0.1,0,0.1,0l0.1-0.1v0l0,0v-0.1c0,0,0.1,0,0.1,0l0,0v0c0,0,0,0,0,0l0,0v-0.1c0,0,0,0,0,0l0.1-0.1v-0.1
				c0,0,0,0,0,0l0,0v0c0,0,0,0,0,0l0,0v0l0,0v0h0v-0.1c0,0,0,0,0,0c0,0,0,0,0,0v0l0,0v-0.1c0,0,0,0,0,0v-0.1l0,0v0c0,0,0,0,0.1,0
				l0,0v0l0,0v0l0,0v-0.1c0,0,0,0,0,0l0,0v-0.3l-0.1-0.1v-0.1c0,0,0,0,0,0v-0.1l0,0v0l0,0v-0.1l-0.1-0.1v-0.4l0,0c0,0-0.1,0-0.1,0
				c-0.5,0-0.9,0-1.4,0c0,0,0,0,0,0v0c-0.1,0-0.2,0-0.3,0c-0.1,0-0.1,0-0.2,0v-0.2h0v-0.3h0c0,0,0,0.1,0,0.1c0,0,0,0.1,0,0.1v0
				c0,0,0,0.1,0,0.1c0,0,0,0.1,0,0.1v0c-0.2,0-0.4,0-0.6,0v0h0v0h0l0,0c0,0,0,0,0,0h0c0,0,0,0-0.1,0v0l0,0c0,0,0,0,0,0v0.1h0
				c0,0,0,0,0,0v0c0,0.1-0.1,0.1-0.1,0.1l0,0v0c0,0,0,0-0.1,0V18c0,0,0,0.1,0,0.1c0,0,0,0.1,0,0.1v0c0,0-0.1,0-0.1,0v0
				c0,0.1,0,0.2,0,0.3l-0.4,0.6c-0.1,0.1-0.1,0.1-0.2,0.1c-0.1,0-0.2,0-0.3,0C20,19.2,20,19.1,20,19.1l-1.2,0.1
				c-0.1,0-0.1,0-0.2-0.1c-0.1,0-0.2,0.1-0.3,0.1c0,0-0.1,0.1-0.1,0.1c0,0-0.1,0-0.1,0c0,0,0,0.1,0,0.1c0,0.1-0.1,0.2-0.2,0.2
				l-9.3,3.9c-0.1,0.1-0.2,0.1-0.3,0c-0.1,0-0.1,0-0.1-0.1c-0.1,0-0.2,0-0.3,0s-0.2,0-0.3,0c0,0.1,0,0.1,0,0.1c0,0,0,0.1,0,0.1
				c0,0,0,0.1,0,0.1s0,0.1,0,0.1c0,0,0,0.1,0,0.1c0,0,0,0.1,0,0.1c0,0,0,0.1,0,0.1s0,0.1,0,0.1c0,0.1,0,0.1,0,0.2c0,0,0,0.1,0,0.1
				c0,0,0,0.1,0,0.1c0,0,0,0.1,0,0.2c0,0,0,0.1,0,0.1v0c0.1,0,0.1,0,0.2,0.1c0.1,0.1,0.1,0.2,0.1,0.2v0.4c0,0.1,0,0.2-0.1,0.3
				c-0.1,0.1-0.1,0.1-0.2,0.1l0,0c-0.1,0.1-0.2,0.1-0.3,0.1H5.4c-0.1,0-0.1,0-0.2-0.1c0,0,0,0-0.1,0c0,0-0.1,0-0.1,0
				c-0.1,0-0.1,0-0.1,0c-0.1,0-0.1,0-0.2-0.1c0,0-0.1-0.1-0.1-0.1c0,0,0,0,0-0.1c0,0,0-0.1,0-0.1c0-0.1,0-0.1,0-0.1s0,0,0-0.1
				c-1.1,0-2.3,0-3.4,0.1c-0.1,0-0.1,0-0.2,0.1c-0.1,0-0.2,0-0.3,0c-0.1,0-0.2-0.1-0.3-0.1c0,0-0.1-0.1-0.1-0.1c0,0,0-0.1-0.1-0.1
				c0,0,0-0.1,0-0.1c0,0,0-0.1-0.1-0.1c0,0,0,0-0.1-0.1c0,0,0-0.1,0-0.1c0,0,0-0.1,0-0.1c0,0,0,0,0-0.1c0,0,0-0.1,0-0.1
				c0,0,0-0.1,0-0.1c0,0,0-0.1,0-0.1s0-0.1,0-0.1c0,0,0-0.1,0-0.1c0,0,0,0,0-0.1s0-0.1,0-0.1s0-0.1,0-0.1c0,0,0-0.1,0-0.1s0,0,0-0.1
				c0,0,0-0.1,0-0.1c0,0,0-0.1,0-0.1c0,0,0-0.1,0-0.1c0,0,0-0.1,0-0.1c0,0,0-0.1,0-0.1c0,0,0,0,0-0.1c0,0,0-0.1,0-0.1
				c0,0,0-0.1,0-0.1V23c0,0,0-0.1,0-0.1c0,0,0-0.1,0-0.1c0-0.1,0-0.1,0-0.1s0-0.1,0-0.1c0,0,0-0.1,0-0.1c0,0,0-0.1,0-0.1v-0.1
				c0,0,0-0.1,0-0.1c0,0,0-0.1,0-0.1S0,22,0,22c0,0,0-0.1,0-0.1c0,0,0-0.1,0-0.1c0-0.1,0-0.1,0-0.1c0,0,0-0.1,0-0.1c0,0,0-0.1,0-0.1
				c0,0,0,0,0-0.1s0-0.1,0-0.1c0-0.1,0-0.1,0-0.1c0,0,0-0.1,0-0.1s0,0,0-0.1c0,0,0-0.1,0-0.1c0,0,0-0.1,0-0.1c0,0,0-0.1,0-0.1
				c0,0,0-0.1,0-0.1c0,0,0-0.1,0-0.1c0,0,0-0.1,0-0.1s0-0.1,0-0.1c0-0.1,0-0.1,0-0.1C0,20,0,20,0,20s0,0,0-0.1c0,0,0-0.1,0-0.1
				c0-0.1,0-0.1,0-0.1v-0.1c0,0,0-0.1,0-0.1c0,0,0-0.1,0-0.1c0,0,0,0,0-0.1s0-0.1,0-0.1c0-0.1,0-0.1,0-0.1V19c0,0,0-0.1,0-0.1
				c0-0.1,0-0.1,0-0.1c0,0,0-0.1,0-0.1s0-0.1,0-0.1c0,0,0-0.1,0-0.1c0,0,0-0.1,0-0.1v-0.1c0,0,0-0.1,0-0.1C0,18,0,18,0,18
				c0,0,0,0,0-0.1c0,0,0-0.1,0-0.1c0,0,0-0.1,0-0.1c0,0,0-0.1,0-0.1s0-0.1,0-0.1c0,0,0-0.1,0-0.1c0,0,0,0,0-0.1c0,0,0-0.1,0-0.1
				s0-0.1,0-0.1c0,0,0-0.1,0-0.1c0,0,0-0.1,0-0.1c0-0.1,0-0.1,0-0.1c0,0,0-0.1,0-0.1v-0.1c0,0,0-0.1,0-0.1c0,0,0-0.1,0-0.1
				c0,0,0-0.1,0-0.1s0-0.1,0-0.1C0,16.1,0,16,0,16v-0.1c0,0,0-0.1,0-0.1c0,0,0-0.1,0-0.1c0,0,0-0.1,0-0.1s0-0.1,0-0.1
				c0,0,0-0.1,0-0.1c0,0,0-0.1,0-0.1v-0.1c0,0,0-0.1,0-0.1C0,15,0,15,0,15c0,0,0-0.1,0-0.1c0-0.1,0-0.1,0-0.1c0,0,0-0.1,0-0.1
				c0,0,0-0.1,0-0.1c0,0,0-0.1,0-0.1c0,0,0-0.1,0-0.1c0,0,0-0.1,0-0.1c0,0,0-0.1,0-0.1c0,0,0-0.1,0-0.1c0,0,0-0.1,0.1-0.1
				c0.1,0,0.1,0,0.1-0.1c0.1,0,0.2,0,0.3,0v0c0,0,0.1,0,0.2,0.1c0,0,0.1,0,0.1,0c0,0,0.1,0,0.1,0v0c1.2,0,2.3,0,3.5,0
				c0,0,0.1,0,0.1,0c0,0,0-0.1,0.1-0.1c0.1,0,0.2,0,0.3,0v0c0.1,0,0.1,0,0.2,0.1c0.6,0,1.2,0.1,1.8,0.1c0,0,0,0,0-0.1v0
				c0,0-0.1,0-0.1-0.1c0,0,0-0.1-0.1-0.1c0,0-0.1-0.1-0.1-0.1c0,0-0.1-0.1-0.1-0.1l0-0.1c0,0,0-0.1,0-0.1s0-0.1,0-0.1
				c0,0,0-0.1,0-0.1c0,0,0-0.1,0-0.1c0-0.1,0-0.1,0-0.1c0,0,0-0.1,0.1-0.1c0,0,0.1-0.1,0.1-0.1c0,0,0-0.1,0-0.1c0,0,0-0.1,0-0.1
				v-0.1c0,0,0-0.1,0-0.1c0,0,0-0.1,0-0.1c0,0,0,0,0-0.1c0-0.1,0-0.1,0.1-0.1c0,0,0-0.1,0.1-0.1h0c0,0,0-0.1,0.1-0.1
				c0,0,0-0.1,0.1-0.1c0,0,0.1,0,0.1,0c0,0,0.1,0,0.1,0v0c3.8,0,7.6,0,11.4,0c0.1,0,0.1,0.1,0.2,0.1c0,0.1,0.1,0.1,0.1,0.1
				c0,0,0,0.1,0,0.1c0,0,0,0.1,0.1,0.1l0,0c0,0,0,0,0,0.1c0,0,0,0.1,0.1,0.1c0,0,0,0.1,0,0.1l0,0.1c0,0.1,0,0.1-0.1,0.1
				c0,0,0,0,0,0.1c0,0,0,0.1,0,0.1v0c0,0,0,0.1,0,0.1c0,0.1,0,0.1,0,0.1c0,0,0,0.1,0,0.1c0,0,0,0,0,0.1c0,0,0,0,0,0.1
				c0,0,0,0.1,0,0.1c0,0.1,0,0.1,0,0.1s0,0,0,0.1c0,0,0,0.1,0,0.1c0,0,0,0.1,0,0.1v0c0,0,0,0.1,0,0.1c0,0.1,0,0.1,0,0.1
				c0,0,0,0.1,0,0.1h0v0c-0.1,0-0.1,0.1-0.1,0.1c0,0.1,0,0.1,0,0.1c0,0-0.1,0.1-0.1,0.1c0,0-0.1,0.1-0.1,0.1v0c0,0,0,0.1,0,0.1l0,0
				v0c0.6,0,1.2,0,1.8,0v0c0,0,0,0,0.1,0v0c0.1,0,0.2,0,0.3-0.1c0.1,0,0.1,0,0.2,0.1c0.1,0,0.2,0,0.3,0c0.2,0,0.4,0,0.5,0
				c0.1,0,0.2,0,0.3,0c0,0,0,0,0.1,0c0,0,0.1,0,0.1,0c0,0,0,0,0,0c0,0,0.1,0,0.2,0c0,0,0,0,0,0c0,0,0.1,0,0.1,0c0,0,0,0,0,0
				c0,0,0.1,0,0.1,0c0,0,0,0,0,0c0,0,0.1,0,0.1,0c0,0,0,0,0,0s0.1,0,0.1,0c0,0,0,0,0.1,0h0c0,0,0,0,0,0c0,0,0,0,0.1,0c0,0,0,0,0,0h0
				v0c0,0,0.1,0,0.1,0c0,0,0,0,0,0c0,0,0.1,0,0.1,0s0.1,0,0.1,0h0l0,0c0,0,0,0,0,0h0c0,0,0.1,0,0.1,0c0,0,0,0,0.1,0h0l0,0h0
				c0,0,0,0,0,0c0,0,0.1,0,0.1,0v0c0,0,0.1,0,0.1,0c0,0,0,0,0,0h0c0,0,0.1,0,0.1,0h0c0,0,0,0,0,0c0.1,0,0.1,0,0.2,0l0,0h0.1
				c0,0,0.1,0,0.1,0l0,0h0l0,0c0,0,0,0,0.1,0c0.1,0,0.1,0,0.1,0c0,0,0.1,0,0.1,0c0,0,0,0,0,0l0,0c0,0,0,0,0,0c0.1,0,0.1,0,0.1,0
				c0,0,0,0,0.1,0c0,0,0,0,0,0c0,0,0.1,0,0.1,0v0c0,0,0,0,0.1,0c0,0,0,0,0,0c0.1,0,0.1,0,0.1,0c0,0,0,0,0,0l0.1-0.1c0,0,0.1,0,0.1,0
				c0,0,0,0,0.1,0c0,0,0,0,0,0h0c0,0,0,0,0,0c0,0,0,0,0,0c0,0,0,0,0.1,0c0.1,0,0.1,0,0.1,0h0.1v0l0,0c0.1,0,0.1,0,0.1,0
				c0,0,0,0,0.1,0c0,0,0,0,0,0h0c0,0,0,0,0,0v0c0,0,0,0,0,0c0,0,0,0,0.1,0h0c0,0,0,0,0,0c0,0,0,0,0,0c0,0,0,0,0.1,0h0c0,0,0,0,0,0
				c0,0,0,0,0,0l0,0v0h0l0,0c0,0,0,0,0.1,0c0,0,0,0,0,0c0,0,0,0,0,0c0,0,0,0,0,0c0,0,0,0,0.1,0c0,0,0,0,0.1,0l0,0c0,0,0,0,0.1,0l0,0
				c0,0,0-0.1,0.1-0.1c0,0,0,0,0.1,0c0,0,0.1,0,0.1,0c0,0,0.1-0.1,0.1-0.1c0,0,0,0,0-0.1c0,0,0,0,0.1,0c0,0,0.1,0,0.1,0v0h0
				c0,0,0,0,0.1,0v0h0v0h0c0,0,0,0,0.1,0c0,0,0.1,0,0.1,0h0c0,0,0.1,0,0.1,0c0,0,0.1,0,0.1,0c0.1-0.1,0.2-0.1,0.3-0.1
				c0,0,0.1,0,0.1-0.1c0.1,0,0.1,0,0.1,0c0.6,0,1.2-0.1,1.7-0.1c0.1,0,0.1,0,0.2,0c0,0,0,0,0-0.1c0-0.1,0-0.1,0-0.1
				c-1.6,0-3.1,0-4.7,0v0c0,0-0.1,0-0.1,0c0,0,0,0-0.1,0c-0.2,0-0.4,0-0.6,0c-0.4,0-0.8,0-1.2,0v0c0,0-0.1,0-0.1,0v0
				c0,0-0.1,0-0.2,0c0,0,0-0.1-0.1-0.1v0c0,0,0-0.1,0-0.1c0,0,0,0,0-0.1c0,0,0-0.1,0-0.1c0,0,0,0,0-0.1v0c0,0,0,0,0-0.1
				c0,0,0-0.1,0-0.1c0,0,0-0.1,0-0.1v0c0,0,0-0.1,0-0.1c0,0,0,0,0-0.1c0,0,0,0,0-0.1c0,0,0-0.1,0-0.1v0c0,0,0-0.1,0-0.1
				c0,0,0,0,0-0.1c0,0,0,0,0-0.1s0,0,0-0.1v0c0,0,0-0.1,0-0.1c0,0,0,0,0-0.1c0,0,0-0.1,0-0.1v0c0,0,0-0.1,0-0.1c0,0,0-0.1,0-0.1
				c0,0,0,0,0-0.1c0,0,0,0,0-0.1V7.8c0,0,0,0,0,0c0-0.1,0-0.1,0-0.1c0,0,0-0.1,0-0.1V7.4c0,0,0-0.1,0-0.1c0.1,0,0.1,0,0.1-0.1
				c0,0,0.1,0,0.2,0v0c0,0,0,0,0.1,0v0h0c0,0,0,0,0-0.1c0,0,0.1,0,0.1-0.1c0,0,0,0,0,0c0,0,0.1,0,0.1,0v0c0.9,0,1.8,0,2.8,0v0
				c0,0,0-0.1,0-0.1v0c0,0,0,0,0-0.1c0,0,0,0,0-0.1c0,0,0-0.1,0-0.1v0c0,0,0,0,0-0.1c0,0,0,0,0-0.1c0,0,0-0.1,0-0.1c0,0,0-0.1,0-0.1
				v0c0,0,0-0.1,0-0.1c0,0,0,0,0-0.1c0,0,0-0.1,0-0.1c0,0,0,0,0-0.1c0,0,0,0,0,0c0,0,0-0.1,0-0.1c0,0,0,0,0-0.1c0,0,0-0.1,0-0.1v0
				c0,0,0,0,0-0.1s0-0.1,0-0.1c0,0,0,0,0-0.1c0,0,0-0.1,0-0.1v0c0,0,0,0,0.1-0.1l0,0c0,0,0,0,0.1,0c0,0,0,0,0.1,0v0
				c0.7,0,1.4,0,2.1,0c0,0,0,0,0.1,0h0v0c0,0,0.1,0.1,0.1,0.1c0,0,0,0,0.1,0.1c0,0,0,0,0.1,0c0,0,0,0,0,0.1c0,0,0,0,0,0.1
				c0,0,0,0.1,0,0.1c0,0,0,0.1,0,0.1v0c0,0,0,0,0,0.1c0,0,0,0,0,0.1c0,0,0,0.1,0,0.1c0,0,0,0,0,0.1v0c0,0.1,0,0.1,0,0.1
				c0,0,0,0,0,0.1c0,0,0,0.1,0,0.1v0c0,0,0,0.1,0,0.1c0,0,0,0.1,0,0.1c0,0,0,0,0,0.1c0,0,0,0.1,0,0.1v0c0,0,0,0,0,0.1s0,0.1,0,0.1
				s0,0,0,0.1s0,0.1,0,0.1v0c0,0,0,0,0,0.1c2.1,0,4.3,0,6.3,0v0c0,0,0-0.1,0-0.1v0c0,0,0,0,0-0.1c0,0,0,0,0-0.1c0,0,0-0.1,0-0.1v0
				c0,0,0,0,0-0.1c0,0,0,0,0-0.1c0,0,0-0.1,0-0.1c0,0,0-0.1,0-0.1v0c0,0,0-0.1,0-0.1c0,0,0,0,0-0.1c0,0,0-0.1,0-0.1c0,0,0,0,0-0.1v0
				c0,0,0-0.1,0-0.1c0,0,0,0,0-0.1c0,0,0-0.1,0-0.1v0c0,0,0,0,0-0.1s0-0.1,0-0.1c0,0,0,0,0-0.1c0,0,0-0.1,0-0.1v0c0,0,0,0,0-0.1
				c0-0.1,0-0.1,0-0.1c0,0,0,0,0-0.1c0,0,0-0.1,0-0.1v0c0,0,0,0,0-0.1s0,0,0-0.1s0,0,0-0.1V4.5c0,0,0,0,0-0.1c0,0,0,0,0-0.1
				C37.4,4.3,37.4,4.3,37.5,4.2C37.5,4.2,37.5,4.2,37.5,4.2z M71.6,18.1C71.6,18.1,71.6,18,71.6,18.1c0-0.1,0-0.1,0-0.2
				C71.6,18,71.6,18,71.6,18.1C71.6,18,71.6,18.1,71.6,18.1L71.6,18.1z M31,17.6c0,0,0,0.1,0,0.1c0,0,0,0.1,0,0.1c0,0,0,0.1,0,0.1
				c0,0,0,0,0,0.1s0,0.1,0,0.1c0,0,0,0,0,0.1v0c0.1,0,0.1,0.1,0.1,0.1c0,0,0.1,0,0.1,0.1c0,0,0,0.1,0,0.1c0,0,0,0.1,0,0.1
				c0.1,0,0.2,0,0.3,0c0.1,0,0.1,0,0.2,0v0c0,0,0.1,0,0.2,0c0.1,0,0.1-0.1,0.2-0.1c0.1,0,0.1-0.1,0.2-0.1c0,0,0.1,0,0.1-0.1
				c0,0,0.1,0,0.1-0.1l0,0c0.1,0,0.1-0.1,0.1-0.1c0,0,0.1-0.1,0.1-0.1c0,0,0.1-0.1,0.1-0.1c0,0,0.1-0.1,0.1-0.1c0-0.1,0-0.1,0-0.1
				c0,0,0-0.1,0-0.1c0,0,0-0.1,0-0.1c0,0,0-0.1,0-0.1v-0.1c0,0,0-0.1,0-0.1c-0.7,0-1.5,0-2.2,0l0,0c0,0,0,0.1,0,0.1c0,0,0,0,0,0.1
				c0,0,0,0.1,0,0.1C31,17.5,31,17.6,31,17.6z M29.9,18.6c-0.1,0-0.1-0.1-0.1-0.1c0,0-0.1-0.1-0.1-0.1c0,0,0-0.1-0.1-0.1
				c0,0,0-0.1,0-0.1c0,0,0-0.1,0-0.1c0,0,0-0.1,0-0.1s0,0,0-0.1c0,0,0-0.1,0-0.1c0,0,0-0.1,0-0.2v-0.1c0,0,0-0.1,0-0.1
				c0,0,0-0.1,0-0.1c0,0,0,0,0-0.1c0,0-0.1,0-0.1,0c0,0,0,0,0,0.1c0,0,0,0.1,0,0.1l0,0c0,0-0.1,0-0.1,0l0,0c0,0-0.1,0.1-0.1,0.1
				c0,0-0.1,0.1-0.1,0.1c0,0,0,0.1,0,0.1c0,0,0,0.1,0,0.1c0,0,0,0.1,0,0.1c0,0,0,0.1,0,0.1c0,0,0.1,0,0.1,0c0,0,0.1,0,0.1,0.1
				c0,0,0.1,0.1,0.1,0.1c0,0.1,0,0.1,0,0.1v0C29.6,18.6,29.8,18.6,29.9,18.6L29.9,18.6z M23.9,16.9c0.1,0,0.2,0,0.3,0
				c0,0,0.1,0,0.1,0v0c-0.1,0-0.1,0-0.2,0C24.1,16.9,24,16.9,23.9,16.9L23.9,16.9z M25,17.4L25,17.4c0,0-0.1,0-0.1,0v0
				C24.9,17.4,25,17.4,25,17.4z M9.1,19.3C9.1,19.4,9.1,19.4,9.1,19.3C9.1,19.4,9.1,19.4,9.1,19.3l-0.1,0.2c0,0,0,0,0,0.1v0.1
				c0,0,0,0.1,0,0.1v0.1c0,0,0,0,0,0.1s0,0,0,0.1V20c0,0,0,0,0,0.1c0,0,0,0,0,0.1v0c0,0,0,0,0,0.1v0c0,0,0,0,0,0.1v0
				c0,0,0.1,0,0.1,0c0.1,0,0.1,0,0.2,0.1c0.2,0,0.4,0.1,0.6,0.1c0,0,0.1,0.1,0.1,0.1l0-0.1h0c0,0,0.1,0,0.1,0h0c0,0,0,0,0,0
				c0,0,0.1,0,0.1,0c0,0,0,0,0,0v0c0,0,0,0,0,0c0,0,0.1,0,0.1,0h0c0,0,0,0,0,0h0c0,0,0,0,0.1,0l0,0h0c0,0,0,0,0,0c0,0,0,0,0,0v0h0
				c0,0,0,0,0,0h0c0,0,0.1,0,0.1,0c0,0,0.1,0,0.1,0c0,0,0,0,0.1,0c0,0,0.1,0,0.1,0h0c0,0,0,0,0.1,0c0,0,0,0,0,0c0,0,0.1,0,0.1,0
				c0,0,0,0,0-0.1c0,0,0.1-0.1,0.1-0.1c0-0.1,0-0.1,0.1-0.1c0,0,0-0.1,0-0.1c0,0,0-0.1,0-0.1c0,0,0,0,0-0.1v0
				C11,19.3,10.1,19.3,9.1,19.3L9.1,19.3C9.2,19.3,9.2,19.3,9.1,19.3z M5.4,25.6c0,0-0.1,0-0.1,0H5.4C5.4,25.6,5.4,25.6,5.4,25.6z
				 M22.9,24.6L22.9,24.6L22.9,24.6L22.9,24.6z"/>
		</g>
	</g>
</g>
<g id="guides">
</g>
<linearGradient id="SVGID_2_" gradientUnits="userSpaceOnUse" x1="-110.1753" y1="309.3086" x2="-101.1817" y2="309.3086" gradientTransform="matrix(6.6522 0 0 -6.6522 732.9071 2072.5425)">
	<stop  offset="2.300000e-007" style="stop-color:#EDF3CB"/>
	<stop  offset="1" style="stop-color:#F8D27E"/>
</linearGradient>
<path opacity="0.5" fill="url(#SVGID_2_)" enable-background="new    " d="M0.1,20.7L0,25.3c0,0,0.2,0.1,0.9,0.2
	c0.5,0,5.5-0.2,6.5,0.4l0.1-2c0,0,7.4-3.6,9.1-4c0,0-1.9,0.6-4.3-0.2c0,0,2.2,0.2,7.6-1.4c1,0,0.8-0.6,1.3-0.9
	c7.7-1,15.6-4.1,23.8-0.7c0,0-4.3-4-12.8-3.6c0,0,21.1-4.1,27.8,2c0,0-2.2-3.9-15-5.6c-0.6-0.1-4.7-0.6-7.4-0.1
	c-0.4,0.1,0-0.6,0-0.6L40,4h-2.3l-0.3,0.5l0,2.5l-6.5,0.1l0-1.8l-0.3-0.2h-2.1l-0.1,0.5v1.5l-2.8,0l-0.5,0.3v2.7l0.3,0.2l6.2,0
	l1,0.3L30,10.9l-6.8,3.5l-2.7,0.3l-2.2-0.1l0.4-0.8l0.1-1.7l-0.5-0.6l-11.4,0l-0.4,0.4l-0.3,1.3l0.9,0.7l-7.1,0.1L0.1,20.7z"/>
<path opacity="0.7" fill="#7A4621" d="M73.4,12.6c0,0-3.4,0.7-6,5.1c0,0,2.3,1.2,1.5,2c-0.8,0.8-4.2-0.3-10.2,6.6
	c0,0,2.5-1.3,5.8-1.6c3.3-0.3-0.9,2.3-1.8,2.9c0,0,6.1-3.6,7.9-3.3s-6.1,5.5-9.5,7.4c0,0,10.3-4,11.5-3.7c1.2,0.2-0.6,2.4-3.5,3.7
	c0,0,5.9,0,9.8-2.1c3.9-2.1,4.7-2.4,4.7-1.2c0,0,3.4-2.5,2.5-3.5c-1-0.9,2.6-2.1,5.1-4.2c2.5-2.1,3.4-3.5,3.4-3.5s-5.9,3-7.7,3.2
	c-1.8,0.2,1.2-2.9,4.4-4.5c3.2-1.6,4.2-4.7,4.2-4.7s-4.4,0.2-10,3.5c-5.7,3.3-6.3,4.4-5.8,2.4c0.4-2,5.6-4.9,5.6-4.9
	s-7.2,0.2-10.6,3.2c-3.3,3-2.4-0.7-1.6-1.4C73.6,13.4,73.4,12.6,73.4,12.6z"/>
<g>
	<path fill="#FBF1C8" d="M64.7,25.2L63.4,28h-2.7l6.2-12.2h3L71.6,28H69l-0.3-2.8H64.7z M67.9,18.4l-2.1,4.5h2.6L67.9,18.4z"/>
	<path fill="#FBF1C8" d="M75.4,28c-0.7,0-1.3-0.2-1.7-0.7c-0.4-0.5-0.5-1.1-0.4-1.8l1.4-7.5c0.1-0.7,0.4-1.3,1-1.7
		c0.5-0.4,1.1-0.6,1.9-0.6h4c0.7,0,1.3,0.2,1.7,0.7c0.4,0.5,0.5,1.1,0.4,1.8l-0.3,1.9h-2.5l0.3-1.6c0-0.2,0-0.3,0-0.4
		C81,18,80.8,18,80.6,18H78c-0.4,0-0.7,0.2-0.8,0.7L76,25.2c0,0.2,0,0.3,0,0.4c0.1,0.1,0.2,0.1,0.4,0.1H79c0.4,0,0.7-0.2,0.8-0.7
		l0.2-1.4h2.5l-0.4,2.1c-0.1,0.7-0.4,1.3-1,1.7c-0.5,0.4-1.1,0.6-1.9,0.6H75.4z"/>
	<path fill="#FBF1C8" d="M94.2,15.7l-0.4,2.3h-5.6l-0.5,2.5h4.6l-0.4,2.3h-4.6l-0.5,2.8h5.6L92,28h-8.2L86,15.7H94.2z"/>
</g>
</svg>
