<?xml version="1.0" encoding="utf-8"?>
<!-- Generator: Adobe Illustrator 16.0.0, SVG Export Plug-In . SVG Version: 6.00 Build 0)  -->
<!DOCTYPE svg PUBLIC "-//W3C//DTD SVG 1.0//EN" "http://www.w3.org/TR/2001/REC-SVG-20010904/DTD/svg10.dtd">
<svg version="1.0" id="图层_1" xmlns="http://www.w3.org/2000/svg" xmlns:xlink="http://www.w3.org/1999/xlink" x="0px" y="0px"
	 width="99.8px" height="32px" viewBox="0 0 99.8 32" enable-background="new 0 0 99.8 32" xml:space="preserve">
<path opacity="0.7" fill="#CE0B4C" enable-background="new    " d="M54.558,11.2c0,0-4.299,0.8-7.699,5.6c0,0,2.9,1.3,1.9,2.101
	s-5.4-0.399-13,7.199c0,0,3.1-1.398,7.299-1.699c4.201-0.301-1.1,2.5-2.299,3.199c0,0,7.799-3.898,10-3.6
	c2.199,0.299-7.801,6-12.1,8c0,0,13.1-4.3,14.6-4.1c1.5,0.199-0.801,2.6-4.4,4.1c0,0,7.5,0,12.5-2.3s6-2.601,6-1.3
	c0,0,4.398-2.801,3.1-3.801s3.301-2.301,6.4-4.601s4.398-3.8,4.398-3.8s-7.498,3.301-9.799,3.4c-2.299,0.101,1.5-3.1,5.6-4.899
	c4.102-1.8,5.4-5.1,5.4-5.1s-5.6,0.2-12.799,3.8c-7.201,3.6-8,4.8-7.4,2.6s7.199-5.3,7.199-5.3s-9.199,0.2-13.4,3.5
	c-4.199,3.3-3-0.8-2.1-1.6C54.859,11.8,54.558,11.2,54.558,11.2z"/>
<linearGradient id="SVGID_1_" gradientUnits="userSpaceOnUse" x1="374.9604" y1="-263.6025" x2="474.5206" y2="-263.6025" gradientTransform="matrix(1 0 0 -1 -374.96 -246.5996)">
	<stop  offset="0" style="stop-color:#FF2F7D"/>
	<stop  offset="1" style="stop-color:#FF8053"/>
</linearGradient>
<path fill="url(#SVGID_1_)" d="M37.5,4.2C37.5,4.2,37.5,4.1,37.5,4.2c0.1-0.1,0.1-0.1,0.1-0.1V4h0.1h0.1l0,0c0.6,0,1.3,0,1.9,0h0.1
	c0.1,0,0.2,0,0.3,0s0.1,0,0.1,0s0,0.1,0.1,0.1l0,0c0,0,0,0,0,0.1c0,0,0,0,0,0.1c0,0.1,0,0,0,0.1v0.1v0.1l0,0l0,0c0,0,0,0,0,0.1
	c0,0.1,0,0.1,0,0.1s0,0,0,0.1l0,0c0,0,0,0,0,0.1c0,0,0,0,0,0.1s0,0.1,0,0.1s0,0,0,0.1l0,0c0,0,0,0,0,0.1c0,0,0,0,0,0.1
	c0,0,0,0,0,0.1s0,0,0,0.1l0,0l0,0v0.1c0,0,0,0,0,0.1c0,0,0,0,0,0.1l0,0c0,0,0,0,0,0.1s0,0,0,0.1c0,0,0,0,0,0.1c0,0.1,0,0.1,0,0.1
	l0,0v0.1c0,0,0,0,0,0.1c0,0,0,0,0,0.1v0.1l0,0v0.1V7c0,0,0,0,0,0.1l0,0c0,0,0,0,0,0.1l0,0c2.5,0,5.1,0,7.7,0c0,0,0,0,0.1,0l0,0
	c0.1,0,0.2,0,0.3-0.1c0,0,0.1,0,0.2,0S48.8,7,48.8,7c0.1,0,0.1,0,0.2-0.1c0.1,0,0.2-0.1,0.3-0.1c0.1,0,0.1,0,0.2-0.1
	c0,0,0.1,0,0.2-0.1c0.1,0,0.1-0.1,0.1-0.1c0.1,0,0.2,0,0.2,0s0,0,0-0.1l0.1-0.1h0.1l0.1-0.1c0.1,0,0.1,0,0.1,0s0.1,0,0.2,0
	l0.101-0.1c0,0,0,0,0.1,0c0,0,0,0,0.102,0l0,0V6c0,0,0,0,0.102-0.1L51.1,5.8h0.101l0,0c0.6,0,1.1,0,1.6,0l0,0c0.199,0,0.4,0,0.602,0
	l0,0c0.102,0,0.2,0,0.303,0l0,0c0.197,0,0.397,0,0.5,0l0,0c0.6,0,1.197,0,1.897,0c0,0,0,0,0.103,0h0.1v0.1c0,0,0.1,0,0.1,0.1
	c0,0,0,0,0.1,0.1l0,0c0,0,0,0,0,0.1c0,0.1,0,0,0,0.1c0,0,0,0,0,0.1v0.1l0,0c0,0,0,0-0.1,0c0,0.1,0,0.1,0,0.1s0,0,0,0.1
	c0,0,0,0,0,0.1l0,0c0,0,0,0,0,0.1V7c0,0,0,0,0,0.1s0,0,0,0.1v0.1v0.1v0.1v0.1c0,0.1,0,0.1,0,0.1v0.1v0.1V8v0.1v0.1v0.1
	c0,0.1,0,0.1,0,0.1s0,0,0,0.1v0.1v0.1v0.1v0.1V9c0,0,0,0,0,0.1v0.1v0.1c0,0.1,0,0.1,0,0.1s0,0,0,0.1s0,0.1,0,0.1v0.1v0.1v0.1V10
	c0,0,0,0,0,0.1v0.1v0.1v0.1v0.1c0,0.1,0,0.1,0,0.1v0.1v0.1v0.1c12.4,0,24.801,0,37.1,0c1.802,0,3.5,0,5.302,0
	c0.101,0,0.101,0,0.198,0.1c0.103,0,0.103,0,0.103,0.1l0,0l0.103,0.1c0,0,0,0.1,0.1,0.1v0.1c0,0.1,0,0.1,0,0.1v0.1v0.1v0.1v0.1
	l-0.1,0.1v0.1v0.1v0.1c0,0,0,0,0,0.1v0.1v0.1v0.1c0,0,0,0,0,0.1c0,0,0,0,0,0.1l0,0V13v0.1v0.1L99.1,13.3c-0.101,0-0.2,0.1-0.2,0.1
	c-0.1,0-0.199,0-0.3,0s-0.101,0-0.2,0s-0.199-0.1-0.3-0.1c-8,0-16,0-24-0.1c0,0,0,0,0,0.1v0.1v0.1v0.1c0,0,0,0,0,0.1l0,0
	c0,0.1,0,0.1,0,0.1v0.1V14c0,0,0,0,0,0.1s0,0.1,0,0.1v0.1v0.1v0.1v0.1v0.1v0.1v0.1V15c0,0,0,0,0,0.1v0.1v0.3v0.1v0.1v0.1v0.1V16l0,0
	v0.1v0.1c0,0,0,0,0,0.1V17c0,0,0,0-0.101,0l0,0v0.1V17.2c0,0,0,0,0,0.1V17.4c0,0.1,0,0.1,0,0.1v0.1V17.7v0.1c0,0,0,0,0,0.101V18v0.1
	V18.2v0.1c0,0,0,0.101-0.102,0.101c0,0.102,0,0.102,0,0.102s0,0-0.102,0.102l0,0V18.7v0.1V18.9c0,0,0,0,0,0.1s0,0.2,0,0.3
	c0,0.101,0,0.2,0,0.3c0,0.103,0,0.2,0,0.301c0,0.102,0,0.102,0,0.199c0,0.103,0,0.2,0,0.301c0,0.102,0,0.199,0,0.302
	c0,0.101,0,0.198,0,0.3s0,0.2,0,0.2c0,0.101,0,0.198,0,0.3s0,0.2,0,0.301c0,0.102,0,0.199,0,0.301c0,0.101,0,0.199,0,0.199l0,0
	h0.102C73.9,22.4,74,22.4,74,22.4v0.1v0.1l0,0C74,22.7,74,22.7,74.1,22.7v0.1V22.9c0,0,0,0.1-0.101,0.1l0,0c0,0,0,0,0,0.1V23.2
	c0,0,0,0,0,0.1c0,0.101,0,0,0,0.101c0,0.102,0,0,0,0.102s0,0,0,0.102l0,0c0,0,0,0,0,0.101l0,0l0,0l0,0l0,0l0,0l0,0
	c0,0,0.101,0,0.101,0.101h0.101c0,0,0,0,0,0.1c0,0,0,0,0,0.102v0.102V24.2l0,0c0,0,0,0,0,0.1c0,0,0,0,0,0.101v0.102c0,0,0,0,0,0.102
	l0,0V24.7c0,0,0,0,0,0.1c0,0,0,0.101,0.1,0.101l0,0c0,0,0,0,0,0.102s0,0,0,0.102c0,0,0,0,0,0.101v0.101l0,0V25.4c0,0,0,0,0,0.1v0.1
	c0,0,0,0,0,0.103l0,0v0.101c0,0,0,0,0,0.102c0,0,0,0,0,0.1l0,0c0,0,0,0,0,0.1c0,0,0,0,0,0.103c0,0,0,0,0,0.101V26.4l0,0v0.1v0.1
	c0,0,0,0,0,0.103c0,0,0,0,0,0.101l0,0c0,0,0,0,0,0.102V27c0.102,0,0.102,0,0.102,0.1c0,0,0,0,0.102,0c0,0,0,0,0,0.103l0.101,0.101
	v0.1l0.101,0.1h0.101c0,0,0,0,0.101,0.1V27.7c0,0,0.102,0,0.102,0.1c0,0,0,0,0,0.101c0,0,0,0,0,0.102c0,0,0,0,0,0.102
	c0,0.101,0,0.101,0,0.101s0,0,0,0.101c0,0.1,0,0,0,0.1l0,0c0,0,0,0,0,0.102H75.1v0.102c0,0,0,0,0,0.101l0,0v0.101
	c0,0,0,0.101-0.101,0.101V29c0,0,0,0,0,0.1c0,0,0,0,0,0.103c0,0,0,0-0.102,0.101v0.1c0,0,0,0.1-0.102,0.1c0,0,0,0,0,0.1h-0.1
	c0,0,0,0,0,0.103c0,0.101,0,0.101,0,0.101s0,0,0,0.102l0,0c0,0,0,0,0,0.1c0,0,0,0-0.101,0H74.5c0,0,0,0-0.1,0h-0.1
	c-0.6,0-1.2,0-1.801,0h-0.102c0,0,0,0-0.102-0.1c0,0,0,0,0-0.102c0-0.101,0-0.101,0-0.101s0,0,0-0.103c0,0,0,0,0-0.1l0,0v-0.1
	c0,0,0,0,0-0.103c0-0.1,0,0,0-0.1V29.1c0,0,0,0,0-0.1l0,0c0,0,0,0,0-0.1c0-0.103,0-0.103,0-0.103v-0.101l0,0c0,0,0,0,0-0.102
	c0-0.1,0,0,0-0.1s0,0,0-0.1V28.3v-0.1c0,0,0,0,0-0.101c0,0,0,0,0-0.102v-0.102V27.8l0,0v-0.1c0,0,0-0.101,0.102-0.101
	c0,0,0,0,0-0.102s0,0,0-0.102V27.3l0,0c0,0,0,0,0.102,0H72.6h0.101l0,0l0,0l0,0v-0.1c0,0,0,0,0-0.101c0,0,0,0,0-0.102v-0.102V26.8
	c0,0,0,0,0-0.1c0,0,0,0-0.101-0.101v-0.102c0,0,0,0,0-0.102c0,0,0,0-0.101,0c0,0,0,0,0-0.101s0-0.101,0-0.101c0-0.1,0-0.1,0-0.1l0,0
	c0,0,0,0,0-0.102c0,0,0-0.102-0.102-0.102V25.8c0,0,0,0,0-0.1l0,0V25.6c0,0,0,0,0-0.1c0,0,0,0,0-0.1c0-0.103,0-0.103,0-0.103l0,0
	c0,0,0,0,0-0.101c0,0,0,0,0-0.102c0-0.1,0-0.1,0-0.1l0,0c0,0,0,0,0-0.1c0,0,0,0,0-0.103c0,0,0,0,0-0.101V24.6h-0.102v-0.1
	c0,0,0,0,0-0.1c0,0,0,0,0-0.103l0,0c-0.6,0-1.198,0-1.801,0c0,0-0.1,0.103-0.199,0.103c-0.098,0-0.198,0-0.301,0h-0.1l0,0h-0.1
	c-0.101,0-0.101,0-0.2-0.103c0-0.101,0-0.101-0.101-0.101v-0.1c0-0.1,0-0.1,0-0.1v-0.1V23.8v-0.1V23.6v-0.1v-0.1V23.3c0,0,0,0,0-0.1
	V23.1V23c0-0.1,0-0.1,0-0.1V22.8v-0.1c0,0,0,0,0.101-0.101c0,0,0,0,0-0.102l0.101-0.102c0,0,0.1,0,0.1-0.101c0.199,0,0.4,0,0.602,0
	l0,0v-0.101c0-0.1,0-0.1,0-0.1V22v-0.1V21.8v-0.1c-0.197,0-0.398,0-0.602,0h-0.1C69.6,21.7,69.6,21.6,69.6,21.6l0,0
	c0-0.1,0-0.1-0.101-0.1V21v-0.1c0-0.103,0-0.103,0-0.103v-0.101v-0.1v-0.1v-0.1c0,0,0,0,0.101-0.103l0,0c0,0,0-0.101-0.101-0.101
	v-0.1c0,0,0,0,0-0.1v-0.1c0-0.103,0-0.103,0.101-0.103c0-0.101,0-0.101,0-0.101c0.101,0,0.101,0,0.2,0l0,0c0.1,0,0.199,0,0.3,0
	s0.2,0,0.3,0l0,0v-0.1v-0.1c0,0,0,0,0-0.1c0-0.103,0-0.103,0-0.103c0-0.101,0-0.101,0-0.101V19v-0.1c0-0.103,0-0.103,0-0.103v-0.101
	v-0.1v-0.1v-0.1V18.3v-0.1c0-0.101,0-0.101,0-0.101s0,0,0-0.102v-0.102V17.8v-0.1V17.6v-0.1c0,0,0,0,0-0.1c0,0,0,0,0-0.103h-0.1
	c-0.1,0-0.2-0.101-0.301-0.101c0,0,0-0.102-0.102-0.102l0,0l0,0L69.8,17l-0.1-0.1V16.8v-0.1l0,0V16.6v-0.1v-0.1c0,0,0,0,0-0.1v-0.1
	c0,0,0,0,0-0.1V16c0,0,0,0,0-0.1v-0.2c0,0,0-0.1-0.103-0.1c0,0,0,0,0-0.1l0,0c-7.802,0-15.603,0-23.4,0c-0.1,0-0.1,0-0.1,0l0,0v0.1
	c0,0,0,0.1-0.1,0.1l-0.1,0.1l-0.1,0.1c0,0,0,0.1-0.1,0.1c0,0,0,0.1-0.1,0.1c0,0.1-0.1,0.1-0.1,0.1c0,0.1,0,0.1-0.1,0.1
	c0,0.1,0,0.1-0.1,0.1l-0.1,0.1l-0.1,0.1V16.7v0.1c0,0,0,0-0.1,0.101L44.9,17l-0.1,0.1c0,0,0,0-0.1,0.103
	c0,0.101-0.1,0.101-0.1,0.101s0,0.102-0.1,0.102v0.1c-0.1,0.1-0.1,0.1-0.1,0.2c0,0,0,0.101-0.1,0.101L44.2,17.9V18l-0.1,0.1V18.2
	c0,0,0,0-0.1,0.1V18.4c0,0.1-0.1,0.1-0.1,0.1c-0.1,0-0.1,0.1-0.1,0.1s0,0.103-0.1,0.103v0.101c0,0,0,0-0.1,0.102V19l-0.1,0.1V19.2
	l-0.1,0.1L43.3,19.4c0,0.1,0,0.1-0.1,0.1v0.1c0,0,0,0.103-0.1,0.103L43,19.8c0,0,0,0-0.1,0.101c0,0,0,0,0,0.102c-0.5,0-1.1,0-1.6,0
	l0,0c-4.3,0-8.5,0-12.7,0c-0.1,0-0.2,0-0.3-0.102V20l0,0v0.1l0,0V20.2l0,0l0,0h-0.1l0,0l0,0v0.1l0,0l0,0l0,0V20.4l0,0l0,0l0,0l0,0
	V20.6l0,0l0,0l0,0l0,0l0,0l0,0l0,0l0,0l0,0l0,0V20.7l0,0l0,0v0.1l0,0l0,0V20.9l-0.5,1L28,24.3c0,0.101,0,0.2-0.1,0.3
	C27.8,24.7,27.8,24.7,27.7,24.7c-0.1,0-0.1,0-0.2,0c0,0,0,0-0.1,0.1c0,0.101-0.1,0.101-0.2,0.101l-1.7,0.302c-0.1,0-0.1,0-0.2,0
	l-2.5-1C22.7,24.1,22.7,24.1,22.6,24c0,0,0,0-0.1-0.1c-0.1-0.103-0.1-0.2-0.1-0.301l0.1-0.699c0-0.103,0-0.2,0.1-0.2
	s0.1,0,0.2-0.101v-0.802l0,0v-0.5l0,0l0,0l0,0v-0.101c0,0,0,0,0.1,0l0,0l0,0v-0.1L23,21v-0.1l0,0l0,0l0,0l0,0l0,0V20.8l0,0v-0.1
	c0,0,0,0,0.1,0l0,0l0,0l0,0l0,0l0,0l0,0l0,0l0,0V21l0,0l0,0l0,0l0,0l0,0l0,0l0,0l0,0h0.1l0.1-0.1l0,0l0,0V20.8h0.1l0,0l0,0l0,0l0,0
	v-0.1l0,0l0.1-0.101v-0.102l0,0l0,0l0,0l0,0l0,0l0,0l0,0l0,0l0,0v-0.102l0,0l0,0l0,0l0,0V20.3l0,0v-0.1l0,0l0,0c0,0,0,0,0.1,0l0,0
	l0,0l0,0l0,0l0,0V20.1l0,0l0,0v-0.3l-0.1-0.1V19.6l0,0v-0.1l0,0l0,0l0,0v-0.1L23.4,19.3V18.9l0,0h-0.1c-0.5,0-0.9,0-1.4,0l0,0l0,0
	c-0.1,0-0.2,0-0.3,0s-0.1,0-0.2,0v-0.2l0,0v-0.3l0,0v0.1v0.1l0,0V18.7v0.1l0,0c-0.2,0-0.4,0-0.6,0l0,0l0,0l0,0l0,0l0,0l0,0l0,0
	c0,0,0,0-0.1,0l0,0l0,0l0,0V18.9l0,0l0,0l0,0c0,0.1-0.1,0.1-0.1,0.1l0,0l0,0c0,0,0,0-0.1,0v-1v0.1V18.2l0,0h-0.1l0,0
	c0,0.1,0,0.2,0,0.3L20,19.1C19.9,19.2,19.9,19.2,19.8,19.2c-0.1,0-0.2,0-0.3,0C20,19.2,20,19.1,20,19.1L18.8,19.2
	c-0.1,0-0.1,0-0.2-0.101c-0.1,0-0.2,0.101-0.3,0.101l-0.1,0.1h-0.1V19.4c0,0.1-0.1,0.199-0.2,0.199l-9.3,3.898
	c-0.1,0.102-0.2,0.102-0.3,0c-0.1,0-0.1,0-0.1-0.102c-0.1,0-0.2,0-0.3,0s-0.2,0-0.3,0c0,0.102,0,0.102,0,0.102V23.6V23.7v0.1V23.9
	V24v0.1V24.2c0,0.1,0,0.1,0,0.2v0.1v0.1c0,0,0,0.103,0,0.2V24.9l0,0c0.1,0,0.1,0,0.2,0.1c0.1,0.1,0.1,0.2,0.1,0.2V25.6
	c0,0.103,0,0.2-0.1,0.301C7.7,26,7.7,26,7.6,26l0,0c-0.1,0.1-0.2,0.1-0.3,0.1H5.4c-0.1,0-0.1,0-0.2-0.1c0,0,0,0-0.1,0H5
	c-0.1,0-0.1,0-0.1,0c-0.1,0-0.1,0-0.2-0.1L4.6,25.8c0,0,0,0,0-0.1V25.6c0-0.1,0-0.1,0-0.1s0,0,0-0.1c-1.1,0-2.3,0-3.4,0.1
	c-0.1,0-0.1,0-0.2,0.1c-0.1,0-0.2,0-0.3,0c-0.1,0-0.2-0.1-0.3-0.1l-0.1-0.1c0,0,0-0.103-0.1-0.103v-0.101c0,0,0-0.102-0.1-0.102
	c0,0,0,0-0.1-0.1v-0.1V24.8c0,0,0,0,0-0.1V24.6v-0.1v-0.1V24.3v-0.1c0,0,0,0,0-0.101C0,24,0,24,0,24v-0.1V23.8c0,0,0,0,0-0.1V23.6
	v-0.1v-0.1V23.3v-0.1c0,0,0,0,0-0.101V23v-0.1V23v-0.1V22.8c0-0.1,0-0.1,0-0.1V22.6v-0.1v-0.1V22.3v-0.1V22.1V22v-0.1V21.8
	c0-0.1,0-0.1,0-0.1V21.6v-0.1c0,0,0,0,0-0.1C0,21.3,0,21.3,0,21.3c0-0.1,0-0.1,0-0.1V21.1c0,0,0,0,0-0.1v-0.1V20.8v-0.1V20.6v-0.1
	v-0.1V20.3c0-0.1,0-0.1,0-0.1C0,20,0,20,0,20s0,0,0-0.1V19.8c0-0.1,0-0.1,0-0.1V19.6v-0.1v-0.1c0,0,0,0,0-0.103
	c0-0.101,0-0.101,0-0.101c0-0.1,0-0.1,0-0.1V19v-0.1C0,18.8,0,18.8,0,18.8v-0.1V18.6v-0.1v-0.1V18.3v-0.1C0,18,0,18,0,18s0,0,0-0.1
	V17.8v-0.1V17.6v-0.1v-0.1c0,0,0,0,0-0.103v-0.101v-0.1V17v-0.1C0,16.8,0,16.8,0,16.8v-0.1V16.6v-0.1v-0.1v-0.1v-0.1
	C0,16.1,0,16,0,16v-0.1v-0.1v-0.1v-0.1v-0.1v-0.1v-0.1v-0.1v-0.1C0,15,0,15,0,15v-0.1c0-0.1,0-0.1,0-0.1v-0.1v-0.1v-0.1v-0.1v-0.1
	v-0.1v-0.1c0,0,0-0.1,0.1-0.1s0.1,0,0.1-0.1c0.1,0,0.2,0,0.3,0l0,0c0,0,0.1,0,0.2,0.1h0.1h0.1l0,0c1.2,0,2.3,0,3.5,0h0.1
	c0,0,0-0.1,0.1-0.1s0.2,0,0.3,0l0,0c0.1,0,0.1,0,0.2,0.1c0.6,0,1.2,0.1,1.8,0.1c0,0,0,0,0-0.1l0,0c0,0-0.1,0-0.1-0.1
	c0,0,0-0.1-0.1-0.1l-0.1-0.1l-0.1-0.1v-0.1v-0.1v-0.1v-0.1v-0.1c0-0.1,0-0.1,0-0.1s0-0.1,0.1-0.1l0.1-0.1v-0.1v-0.1v-0.1v-0.1v-0.1
	c0,0,0,0,0-0.1c0-0.1,0-0.1,0.1-0.1c0,0,0-0.1,0.1-0.1l0,0c0,0,0-0.1,0.1-0.1c0,0,0-0.1,0.1-0.1h0.1h0.1l0,0c3.8,0,7.6,0,11.4,0
	c0.1,0,0.1,0.1,0.2,0.1C18.9,12,19,12,19,12v0.1c0,0,0,0.1,0.1,0.1l0,0c0,0,0,0,0,0.1c0,0,0,0.1,0.1,0.1v0.1v0.1
	c0,0.1,0,0.1-0.1,0.1c0,0,0,0,0,0.1v0.1l0,0V13c0,0.1,0,0.1,0,0.1v0.1c0,0,0,0,0,0.1c0,0,0,0,0,0.1v0.1c0,0.1,0,0.1,0,0.1s0,0,0,0.1
	v0.1v0.1l0,0V14c0,0.1,0,0.1,0,0.1v0.1l0,0l0,0c-0.1,0-0.1,0.1-0.1,0.1c0,0.1,0,0.1,0,0.1l-0.1,0.1l-0.1,0.1l0,0v0.1l0,0l0,0
	c0.6,0,1.2,0,1.8,0l0,0c0,0,0,0,0.1,0l0,0c0.1,0,0.2,0,0.3-0.1c0.1,0,0.1,0,0.2,0.1c0.1,0,0.2,0,0.3,0c0.2,0,0.4,0,0.5,0
	s0.2,0,0.3,0c0,0,0,0,0.1,0h0.1l0,0c0,0,0.1,0,0.2,0l0,0h0.1l0,0h0.1l0,0H23l0,0h0.1c0,0,0,0,0.1,0l0,0l0,0c0,0,0,0,0.1,0l0,0l0,0
	l0,0h0.1l0,0h0.1h0.1l0,0l0,0l0,0l0,0h0.1c0,0,0,0,0.1,0l0,0l0,0l0,0l0,0h0.1l0,0H24l0,0l0,0h0.1l0,0l0,0c0.1,0,0.1,0,0.2,0l0,0h0.1
	h0.1l0,0l0,0l0,0c0,0,0,0,0.1,0s0.1,0,0.1,0h0.1l0,0l0,0l0,0c0.1,0,0.1,0,0.1,0s0,0,0.1,0l0,0h0.1l0,0c0,0,0,0,0.1,0l0,0
	c0.1,0,0.1,0,0.1,0l0,0l0.1-0.1h0.1c0,0,0,0,0.1,0l0,0l0,0l0,0l0,0c0,0,0,0,0.1,0c0.1,0,0.1,0,0.1,0h0.1l0,0l0,0c0.1,0,0.1,0,0.1,0
	s0,0,0.1,0l0,0l0,0l0,0l0,0l0,0c0,0,0,0,0.1,0l0,0l0,0l0,0c0,0,0,0,0.1,0l0,0l0,0l0,0l0,0l0,0l0,0l0,0c0,0,0,0,0.1,0l0,0l0,0l0,0
	c0,0,0,0,0.1,0c0,0,0,0,0.1,0l0,0c0,0,0,0,0.1,0l0,0c0,0,0-0.1,0.1-0.1c0,0,0,0,0.1,0H27l0.1-0.1c0,0,0,0,0-0.1c0,0,0,0,0.1,0h0.1
	l0,0l0,0c0,0,0,0,0.1,0l0,0l0,0l0,0l0,0c0,0,0,0,0.1,0h0.1l0,0h0.1h0.1c0.1-0.1,0.2-0.1,0.3-0.1c0,0,0.1,0,0.1-0.1
	c0.1,0,0.1,0,0.1,0c0.6,0,1.2-0.1,1.7-0.1c0.1,0,0.1,0,0.2,0c0,0,0,0,0-0.1s0-0.1,0-0.1c-1.6,0-3.1,0-4.7,0l0,0h-0.1c0,0,0,0-0.1,0
	c-0.2,0-0.4,0-0.6,0c-0.4,0-0.8,0-1.2,0l0,0h-0.1l0,0c0,0-0.1,0-0.2,0c0,0,0-0.1-0.1-0.1l0,0v-0.1c0,0,0,0,0-0.1v-0.1c0,0,0,0,0-0.1
	l0,0c0,0,0,0,0-0.1v-0.1V13l0,0v-0.1c0,0,0,0,0-0.1c0,0,0,0,0-0.1v-0.1l0,0v-0.1c0,0,0,0,0-0.1c0,0,0,0,0-0.1c0-0.1,0,0,0-0.1l0,0
	v-0.1c0,0,0,0,0-0.1v-0.1l0,0v-0.1v-0.1c0,0,0,0,0-0.1c0,0,0,0,0-0.1V7.8l0,0c0-0.1,0-0.1,0-0.1V7.6V7.4V7.3c0.1,0,0.1,0,0.1-0.1
	c0,0,0.1,0,0.2,0l0,0c0,0,0,0,0.1,0l0,0l0,0c0,0,0,0,0-0.1c0,0,0.1,0,0.1-0.1l0,0h0.1l0,0c0.9,0,1.8,0,2.8,0l0,0V6.9l0,0
	c0,0,0,0,0-0.1c0,0,0,0,0-0.1V6.6l0,0c0,0,0,0,0-0.1c0,0,0,0,0-0.1V6.3V6.2l0,0V6.1c0,0,0,0,0-0.1V5.9c0,0,0,0,0-0.1l0,0V5.7
	c0,0,0,0,0-0.1V5.5l0,0c0,0,0,0,0-0.1s0-0.1,0-0.1s0,0,0-0.1V5.1l0,0c0,0,0,0,0.1-0.1l0,0c0,0,0,0,0.1,0c0,0,0,0,0.1,0l0,0
	c0.7,0,1.4,0,2.1,0c0,0,0,0,0.1,0l0,0l0,0l0.1,0.1c0,0,0,0,0.1,0.1c0,0,0,0,0.1,0c0,0,0,0,0,0.1c0,0,0,0,0,0.1v0.1v0.1l0,0
	c0,0,0,0,0,0.1c0,0,0,0,0,0.1v0.1c0,0,0,0,0,0.1l0,0c0,0.1,0,0.1,0,0.1s0,0,0,0.1v0.1l0,0v0.1v0.1c0,0,0,0,0,0.1v0.1l0,0
	c0,0,0,0,0,0.1c0,0.1,0,0.1,0,0.1s0,0,0,0.1s0,0.1,0,0.1l0,0c0,0,0,0,0,0.1c2.1,0,4.3,0,6.3,0l0,0V7.1l0,0c0,0,0,0,0-0.1
	c0,0,0,0,0-0.1V6.8l0,0c0,0,0,0,0-0.1c0,0,0,0,0-0.1V6.5V6.4l0,0V6.3c0,0,0,0,0-0.1V6.1c0,0,0,0,0-0.1l0,0V5.9c0,0,0,0,0-0.1V5.7
	l0,0c0,0,0,0,0-0.1s0-0.1,0-0.1s0,0,0-0.1V5.3l0,0c0,0,0,0,0-0.1c0-0.1,0-0.1,0-0.1s0,0,0-0.1V4.9l0,0c0,0,0,0,0-0.1
	c0-0.1,0,0,0-0.1c0-0.1,0,0,0-0.1V4.5c0,0,0,0,0-0.1c0,0,0,0,0-0.1C37.4,4.3,37.4,4.3,37.5,4.2L37.5,4.2z M71.6,18.1
	C71.6,18.1,71.6,18,71.6,18.1c0-0.1,0-0.1,0-0.199C71.6,18,71.6,18,71.6,18.1C71.6,18,71.6,18.1,71.6,18.1L71.6,18.1z M31,17.6V17.7
	v0.1V17.9c0,0,0,0,0,0.1s0,0.1,0,0.1s0,0,0,0.103l0,0c0.1,0,0.1,0.101,0.1,0.101s0.1,0,0.1,0.102v0.1v0.1c0.1,0,0.2,0,0.3,0
	s0.1,0,0.2,0l0,0c0,0,0.1,0,0.2,0s0.1-0.1,0.2-0.1s0.1-0.1,0.2-0.1c0,0,0.1,0,0.1-0.102c0,0,0.1,0,0.1-0.101l0,0
	c0.1,0,0.1-0.103,0.1-0.103l0.1-0.1l0.1-0.1l0.1-0.103c0-0.101,0-0.101,0-0.101v-0.1v-0.1v-0.1V17.3v-0.1c-0.7,0-1.5,0-2.2,0l0,0
	v0.1c0,0,0,0,0,0.101v0.102C31,17.5,31,17.6,31,17.6z M29.9,18.6c-0.1,0-0.1-0.1-0.1-0.1l-0.1-0.1c0,0,0-0.103-0.1-0.103v-0.101
	v-0.1V18c0,0,0,0,0-0.1V17.8c0,0,0-0.1,0-0.2v-0.1v-0.1V17.3c0,0,0,0,0-0.1h-0.1c0,0,0,0,0,0.1V17.4l0,0h-0.1l0,0l-0.1,0.1l-0.1,0.1
	V17.7v0.1V17.9V18h0.1c0,0,0.1,0,0.1,0.1l0.1,0.103c0,0.101,0,0.101,0,0.101l0,0C29.6,18.6,29.8,18.6,29.9,18.6L29.9,18.6z
	 M23.9,16.9c0.1,0,0.2,0,0.3,0h0.1l0,0c-0.1,0-0.1,0-0.2,0C24.1,16.9,24,16.9,23.9,16.9L23.9,16.9z M25,17.4L25,17.4h-0.1l0,0H25z
	 M9.1,19.3C9.1,19.4,9.1,19.4,9.1,19.3C9.1,19.4,9.1,19.4,9.1,19.3L9,19.5c0,0,0,0,0,0.1V19.7v0.1V19.9c0,0,0,0,0,0.1s0,0,0,0.1V20
	c0,0,0,0,0,0.1c0,0,0,0,0,0.103l0,0c0,0,0,0,0,0.101l0,0c0,0,0,0,0,0.102l0,0h0.1c0.1,0,0.1,0,0.2,0.1c0.2,0,0.4,0.1,0.6,0.1
	L10,20.7V20.6l0,0h0.1l0,0l0,0h0.1l0,0l0,0l0,0h0.1l0,0l0,0l0,0c0,0,0,0,0.1,0l0,0l0,0l0,0l0,0l0,0l0,0l0,0l0,0h0.1h0.1
	c0,0,0,0,0.1,0h0.1l0,0c0,0,0,0,0.1,0l0,0H11c0,0,0,0,0-0.1l0.1-0.1c0-0.103,0-0.103,0.1-0.103v-0.101v-0.1c0,0,0,0,0-0.1l0,0
	C11,19.3,10.1,19.3,9.1,19.3L9.1,19.3C9.2,19.3,9.2,19.3,9.1,19.3z M5.4,25.6H5.3H5.4L5.4,25.6z M22.9,24.6L22.9,24.6L22.9,24.6
	L22.9,24.6z"/>
<g id="guides">
</g>
<g>
	<g>
		<defs>
			<path id="SVGID_2_" d="M37.5,4.2C37.5,4.2,37.5,4.1,37.5,4.2c0.1-0.1,0.1-0.1,0.1-0.1V4h0.1h0.1l0,0c0.6,0,1.3,0,1.9,0h0.1
				c0.1,0,0.2,0,0.3,0s0.1,0,0.1,0s0,0.1,0.1,0.1l0,0c0,0,0,0,0,0.1c0,0,0,0,0,0.1c0,0.1,0,0,0,0.1v0.1v0.1l0,0l0,0c0,0,0,0,0,0.1
				c0,0.1,0,0.1,0,0.1s0,0,0,0.1l0,0c0,0,0,0,0,0.1c0,0,0,0,0,0.1s0,0.1,0,0.1s0,0,0,0.1l0,0c0,0,0,0,0,0.1c0,0,0,0,0,0.1
				c0,0,0,0,0,0.1s0,0,0,0.1l0,0l0,0v0.1c0,0,0,0,0,0.1c0,0,0,0,0,0.1l0,0c0,0,0,0,0,0.1s0,0,0,0.1c0,0,0,0,0,0.1c0,0.1,0,0.1,0,0.1
				l0,0v0.1c0,0,0,0,0,0.1c0,0,0,0,0,0.1v0.1l0,0v0.1V7c0,0,0,0,0,0.1l0,0c0,0,0,0,0,0.1l0,0c2.5,0,5.1,0,7.7,0c0,0,0,0,0.1,0l0,0
				c0.1,0,0.2,0,0.3-0.1c0,0,0.1,0,0.2,0S48.8,7,48.8,7c0.1,0,0.1,0,0.2-0.1c0.1,0,0.2-0.1,0.3-0.1c0.1,0,0.1,0,0.2-0.1
				c0,0,0.1,0,0.2-0.1c0.1,0,0.1-0.1,0.1-0.1c0.1,0,0.2,0,0.2,0s0,0,0-0.1l0.1-0.1h0.1l0.1-0.1c0.1,0,0.1,0,0.1,0s0.1,0,0.2,0
				l0.101-0.1c0,0,0,0,0.1,0c0,0,0,0,0.102,0l0,0V6c0,0,0,0,0.102-0.1L51.1,5.8h0.101l0,0c0.6,0,1.1,0,1.6,0l0,0
				c0.199,0,0.4,0,0.602,0l0,0c0.102,0,0.2,0,0.303,0l0,0c0.197,0,0.397,0,0.5,0l0,0c0.6,0,1.197,0,1.897,0c0,0,0,0,0.103,0h0.1v0.1
				c0,0,0.1,0,0.1,0.1c0,0,0,0,0.1,0.1l0,0c0,0,0,0,0,0.1c0,0.1,0,0,0,0.1c0,0,0,0,0,0.1v0.1l0,0c0,0,0,0-0.1,0c0,0.1,0,0.1,0,0.1
				s0,0,0,0.1c0,0,0,0,0,0.1l0,0c0,0,0,0,0,0.1V7c0,0,0,0,0,0.1s0,0,0,0.1v0.1v0.1v0.1v0.1c0,0.1,0,0.1,0,0.1v0.1v0.1V8v0.1v0.1v0.1
				c0,0.1,0,0.1,0,0.1s0,0,0,0.1v0.1v0.1v0.1v0.1V9c0,0,0,0,0,0.1v0.1v0.1c0,0.1,0,0.1,0,0.1s0,0,0,0.1s0,0.1,0,0.1v0.1v0.1v0.1V10
				c0,0,0,0,0,0.1v0.1v0.1v0.1v0.1c0,0.1,0,0.1,0,0.1v0.1v0.1v0.1c12.4,0,24.801,0,37.1,0c1.802,0,3.5,0,5.302,0
				c0.101,0,0.101,0,0.198,0.1c0.103,0,0.103,0,0.103,0.1l0,0l0.103,0.1c0,0,0,0.1,0.1,0.1v0.1c0,0.1,0,0.1,0,0.1v0.1v0.1v0.1v0.1
				l-0.1,0.1v0.1v0.1v0.1c0,0,0,0,0,0.1v0.1v0.1v0.1c0,0,0,0,0,0.1c0,0,0,0,0,0.1l0,0V13v0.1v0.1L99.1,13.3
				c-0.101,0-0.2,0.1-0.2,0.1c-0.1,0-0.199,0-0.3,0s-0.101,0-0.2,0s-0.199-0.1-0.3-0.1c-8,0-16,0-24-0.1c0,0,0,0,0,0.1v0.1v0.1v0.1
				c0,0,0,0,0,0.1l0,0c0,0.1,0,0.1,0,0.1v0.1V14c0,0,0,0,0,0.1s0,0.1,0,0.1v0.1v0.1v0.1v0.1v0.1v0.1v0.1V15c0,0,0,0,0,0.1v0.1v0.3
				v0.1v0.1v0.1v0.1V16l0,0v0.1v0.1c0,0,0,0,0,0.1V17c0,0,0,0-0.101,0l0,0v0.1V17.2c0,0,0,0,0,0.1V17.4c0,0.1,0,0.1,0,0.1v0.1V17.7
				v0.1c0,0,0,0,0,0.101V18v0.1V18.2v0.1c0,0,0,0.101-0.102,0.101c0,0.102,0,0.102,0,0.102s0,0-0.102,0.102l0,0V18.7v0.1V18.9
				c0,0,0,0,0,0.1s0,0.2,0,0.3c0,0.101,0,0.2,0,0.3c0,0.103,0,0.2,0,0.301c0,0.102,0,0.102,0,0.199c0,0.103,0,0.2,0,0.301
				c0,0.102,0,0.199,0,0.302c0,0.101,0,0.198,0,0.3s0,0.2,0,0.2c0,0.101,0,0.198,0,0.3s0,0.2,0,0.301c0,0.102,0,0.199,0,0.301
				c0,0.101,0,0.199,0,0.199l0,0h0.102C73.9,22.4,74,22.4,74,22.4v0.1v0.1l0,0C74,22.7,74,22.7,74.1,22.7v0.1V22.9
				c0,0,0,0.1-0.101,0.1l0,0c0,0,0,0,0,0.1V23.2c0,0,0,0,0,0.1c0,0.101,0,0,0,0.101c0,0.102,0,0,0,0.102s0,0,0,0.102l0,0
				c0,0,0,0,0,0.101l0,0l0,0l0,0l0,0l0,0l0,0c0,0,0.101,0,0.101,0.101h0.101c0,0,0,0,0,0.1c0,0,0,0,0,0.102v0.102V24.2l0,0
				c0,0,0,0,0,0.1c0,0,0,0,0,0.101v0.102c0,0,0,0,0,0.102l0,0V24.7c0,0,0,0,0,0.1c0,0,0,0.101,0.1,0.101l0,0c0,0,0,0,0,0.102
				s0,0,0,0.102c0,0,0,0,0,0.101v0.101l0,0V25.4c0,0,0,0,0,0.1v0.1c0,0,0,0,0,0.103l0,0v0.101c0,0,0,0,0,0.102c0,0,0,0,0,0.1l0,0
				c0,0,0,0,0,0.1c0,0,0,0,0,0.103c0,0,0,0,0,0.101V26.4l0,0v0.1v0.1c0,0,0,0,0,0.103c0,0,0,0,0,0.101l0,0c0,0,0,0,0,0.102V27
				c0.102,0,0.102,0,0.102,0.1c0,0,0,0,0.102,0c0,0,0,0,0,0.103l0.101,0.101v0.1l0.101,0.1h0.101c0,0,0,0,0.101,0.1V27.7
				c0,0,0.102,0,0.102,0.1c0,0,0,0,0,0.101c0,0,0,0,0,0.102c0,0,0,0,0,0.102c0,0.101,0,0.101,0,0.101s0,0,0,0.101c0,0.1,0,0,0,0.1
				l0,0c0,0,0,0,0,0.102H75.1v0.102c0,0,0,0,0,0.101l0,0v0.101c0,0,0,0.101-0.101,0.101V29c0,0,0,0,0,0.1c0,0,0,0,0,0.103
				c0,0,0,0-0.102,0.101v0.1c0,0,0,0.1-0.102,0.1c0,0,0,0,0,0.1h-0.1c0,0,0,0,0,0.103c0,0.101,0,0.101,0,0.101s0,0,0,0.102l0,0
				c0,0,0,0,0,0.1c0,0,0,0-0.101,0H74.5c0,0,0,0-0.1,0h-0.1c-0.6,0-1.2,0-1.801,0h-0.102c0,0,0,0-0.102-0.1c0,0,0,0,0-0.102
				c0-0.101,0-0.101,0-0.101s0,0,0-0.103c0,0,0,0,0-0.1l0,0v-0.1c0,0,0,0,0-0.103c0-0.1,0,0,0-0.1V29.1c0,0,0,0,0-0.1l0,0
				c0,0,0,0,0-0.1c0-0.103,0-0.103,0-0.103v-0.101l0,0c0,0,0,0,0-0.102c0-0.1,0,0,0-0.1s0,0,0-0.1V28.3v-0.1c0,0,0,0,0-0.101
				c0,0,0,0,0-0.102v-0.102V27.8l0,0v-0.1c0,0,0-0.101,0.102-0.101c0,0,0,0,0-0.102s0,0,0-0.102V27.3l0,0c0,0,0,0,0.102,0H72.6
				h0.101l0,0l0,0l0,0v-0.1c0,0,0,0,0-0.101c0,0,0,0,0-0.102v-0.102V26.8c0,0,0,0,0-0.1c0,0,0,0-0.101-0.101v-0.102c0,0,0,0,0-0.102
				c0,0,0,0-0.101,0c0,0,0,0,0-0.101s0-0.101,0-0.101c0-0.1,0-0.1,0-0.1l0,0c0,0,0,0,0-0.102c0,0,0-0.102-0.102-0.102V25.8
				c0,0,0,0,0-0.1l0,0V25.6c0,0,0,0,0-0.1c0,0,0,0,0-0.1c0-0.103,0-0.103,0-0.103l0,0c0,0,0,0,0-0.101c0,0,0,0,0-0.102
				c0-0.1,0-0.1,0-0.1l0,0c0,0,0,0,0-0.1c0,0,0,0,0-0.103c0,0,0,0,0-0.101V24.6h-0.102v-0.1c0,0,0,0,0-0.1c0,0,0,0,0-0.103l0,0
				c-0.6,0-1.198,0-1.801,0c0,0-0.1,0.103-0.199,0.103c-0.098,0-0.198,0-0.301,0h-0.1l0,0h-0.1c-0.101,0-0.101,0-0.2-0.103
				c0-0.101,0-0.101-0.101-0.101v-0.1c0-0.1,0-0.1,0-0.1v-0.1V23.8v-0.1V23.6v-0.1v-0.1V23.3c0,0,0,0,0-0.1V23.1V23
				c0-0.1,0-0.1,0-0.1V22.8v-0.1c0,0,0,0,0.101-0.101c0,0,0,0,0-0.102l0.101-0.102c0,0,0.1,0,0.1-0.101c0.199,0,0.4,0,0.602,0l0,0
				v-0.101c0-0.1,0-0.1,0-0.1V22v-0.1V21.8v-0.1c-0.197,0-0.398,0-0.602,0h-0.1C69.6,21.7,69.6,21.6,69.6,21.6l0,0
				c0-0.1,0-0.1-0.101-0.1V21v-0.1c0-0.103,0-0.103,0-0.103v-0.101v-0.1v-0.1v-0.1c0,0,0,0,0.101-0.103l0,0c0,0,0-0.101-0.101-0.101
				v-0.1c0,0,0,0,0-0.1v-0.1c0-0.103,0-0.103,0.101-0.103c0-0.101,0-0.101,0-0.101c0.101,0,0.101,0,0.2,0l0,0c0.1,0,0.199,0,0.3,0
				s0.2,0,0.3,0l0,0v-0.1v-0.1c0,0,0,0,0-0.1c0-0.103,0-0.103,0-0.103c0-0.101,0-0.101,0-0.101V19v-0.1c0-0.103,0-0.103,0-0.103
				v-0.101v-0.1v-0.1v-0.1V18.3v-0.1c0-0.101,0-0.101,0-0.101s0,0,0-0.102v-0.102V17.8v-0.1V17.6v-0.1c0,0,0,0,0-0.1
				c0,0,0,0,0-0.103h-0.1c-0.1,0-0.2-0.101-0.301-0.101c0,0,0-0.102-0.102-0.102l0,0l0,0L69.8,17l-0.1-0.1V16.8v-0.1l0,0V16.6v-0.1
				v-0.1c0,0,0,0,0-0.1v-0.1c0,0,0,0,0-0.1V16c0,0,0,0,0-0.1v-0.2c0,0,0-0.1-0.103-0.1c0,0,0,0,0-0.1l0,0c-7.802,0-15.603,0-23.4,0
				c-0.1,0-0.1,0-0.1,0l0,0v0.1c0,0,0,0.1-0.1,0.1l-0.1,0.1l-0.1,0.1c0,0,0,0.1-0.1,0.1c0,0,0,0.1-0.1,0.1c0,0.1-0.1,0.1-0.1,0.1
				c0,0.1,0,0.1-0.1,0.1c0,0.1,0,0.1-0.1,0.1l-0.1,0.1l-0.1,0.1V16.7v0.1c0,0,0,0-0.1,0.101L44.9,17l-0.1,0.1c0,0,0,0-0.1,0.103
				c0,0.101-0.1,0.101-0.1,0.101s0,0.102-0.1,0.102v0.1c-0.1,0.1-0.1,0.1-0.1,0.2c0,0,0,0.101-0.1,0.101L44.2,17.9V18l-0.1,0.1V18.2
				c0,0,0,0-0.1,0.1V18.4c0,0.1-0.1,0.1-0.1,0.1c-0.1,0-0.1,0.1-0.1,0.1s0,0.103-0.1,0.103v0.101c0,0,0,0-0.1,0.102V19l-0.1,0.1
				V19.2l-0.1,0.1L43.3,19.4c0,0.1,0,0.1-0.1,0.1v0.1c0,0,0,0.103-0.1,0.103L43,19.8c0,0,0,0-0.1,0.101c0,0,0,0,0,0.102
				c-0.5,0-1.1,0-1.6,0l0,0c-4.3,0-8.5,0-12.7,0c-0.1,0-0.2,0-0.3-0.102V20l0,0v0.1l0,0V20.2l0,0l0,0h-0.1l0,0l0,0v0.1l0,0l0,0l0,0
				V20.4l0,0l0,0l0,0l0,0V20.6l0,0l0,0l0,0l0,0l0,0l0,0l0,0l0,0l0,0l0,0V20.7l0,0l0,0v0.1l0,0l0,0V20.9l-0.5,1L28,24.3
				c0,0.101,0,0.2-0.1,0.3C27.8,24.7,27.8,24.7,27.7,24.7c-0.1,0-0.1,0-0.2,0c0,0,0,0-0.1,0.1c0,0.101-0.1,0.101-0.2,0.101
				l-1.7,0.302c-0.1,0-0.1,0-0.2,0l-2.5-1C22.7,24.1,22.7,24.1,22.6,24c0,0,0,0-0.1-0.1c-0.1-0.103-0.1-0.2-0.1-0.301l0.1-0.699
				c0-0.103,0-0.2,0.1-0.2s0.1,0,0.2-0.101v-0.802l0,0v-0.5l0,0l0,0l0,0v-0.101c0,0,0,0,0.1,0l0,0l0,0v-0.1L23,21v-0.1l0,0l0,0l0,0
				l0,0l0,0V20.8l0,0v-0.1c0,0,0,0,0.1,0l0,0l0,0l0,0l0,0l0,0l0,0l0,0l0,0V21l0,0l0,0l0,0l0,0l0,0l0,0l0,0l0,0h0.1l0.1-0.1l0,0l0,0
				V20.8h0.1l0,0l0,0l0,0l0,0v-0.1l0,0l0.1-0.101v-0.102l0,0l0,0l0,0l0,0l0,0l0,0l0,0l0,0l0,0v-0.102l0,0l0,0l0,0l0,0V20.3l0,0v-0.1
				l0,0l0,0c0,0,0,0,0.1,0l0,0l0,0l0,0l0,0l0,0V20.1l0,0l0,0v-0.3l-0.1-0.1V19.6l0,0v-0.1l0,0l0,0l0,0v-0.1L23.4,19.3V18.9l0,0h-0.1
				c-0.5,0-0.9,0-1.4,0l0,0l0,0c-0.1,0-0.2,0-0.3,0s-0.1,0-0.2,0v-0.2l0,0v-0.3l0,0v0.1v0.1l0,0V18.7v0.1l0,0c-0.2,0-0.4,0-0.6,0
				l0,0l0,0l0,0l0,0l0,0l0,0l0,0c0,0,0,0-0.1,0l0,0l0,0l0,0V18.9l0,0l0,0l0,0c0,0.1-0.1,0.1-0.1,0.1l0,0l0,0c0,0,0,0-0.1,0v-1v0.1
				V18.2l0,0h-0.1l0,0c0,0.1,0,0.2,0,0.3L20,19.1C19.9,19.2,19.9,19.2,19.8,19.2c-0.1,0-0.2,0-0.3,0C20,19.2,20,19.1,20,19.1
				L18.8,19.2c-0.1,0-0.1,0-0.2-0.101c-0.1,0-0.2,0.101-0.3,0.101l-0.1,0.1h-0.1V19.4c0,0.1-0.1,0.199-0.2,0.199l-9.3,3.898
				c-0.1,0.102-0.2,0.102-0.3,0c-0.1,0-0.1,0-0.1-0.102c-0.1,0-0.2,0-0.3,0s-0.2,0-0.3,0c0,0.102,0,0.102,0,0.102V23.6V23.7v0.1
				V23.9V24v0.1V24.2c0,0.1,0,0.1,0,0.2v0.1v0.1c0,0,0,0.103,0,0.2V24.9l0,0c0.1,0,0.1,0,0.2,0.1c0.1,0.1,0.1,0.2,0.1,0.2V25.6
				c0,0.103,0,0.2-0.1,0.301C7.7,26,7.7,26,7.6,26l0,0c-0.1,0.1-0.2,0.1-0.3,0.1H5.4c-0.1,0-0.1,0-0.2-0.1c0,0,0,0-0.1,0H5
				c-0.1,0-0.1,0-0.1,0c-0.1,0-0.1,0-0.2-0.1L4.6,25.8c0,0,0,0,0-0.1V25.6c0-0.1,0-0.1,0-0.1s0,0,0-0.1c-1.1,0-2.3,0-3.4,0.1
				c-0.1,0-0.1,0-0.2,0.1c-0.1,0-0.2,0-0.3,0c-0.1,0-0.2-0.1-0.3-0.1l-0.1-0.1c0,0,0-0.103-0.1-0.103v-0.101c0,0,0-0.102-0.1-0.102
				c0,0,0,0-0.1-0.1v-0.1V24.8c0,0,0,0,0-0.1V24.6v-0.1v-0.1V24.3v-0.1c0,0,0,0,0-0.101C0,24,0,24,0,24v-0.1V23.8c0,0,0,0,0-0.1
				V23.6v-0.1v-0.1V23.3v-0.1c0,0,0,0,0-0.101V23v-0.1V23v-0.1V22.8c0-0.1,0-0.1,0-0.1V22.6v-0.1v-0.1V22.3v-0.1V22.1V22v-0.1V21.8
				c0-0.1,0-0.1,0-0.1V21.6v-0.1c0,0,0,0,0-0.1C0,21.3,0,21.3,0,21.3c0-0.1,0-0.1,0-0.1V21.1c0,0,0,0,0-0.1v-0.1V20.8v-0.1V20.6
				v-0.1v-0.1V20.3c0-0.1,0-0.1,0-0.1C0,20,0,20,0,20s0,0,0-0.1V19.8c0-0.1,0-0.1,0-0.1V19.6v-0.1v-0.1c0,0,0,0,0-0.103
				c0-0.101,0-0.101,0-0.101c0-0.1,0-0.1,0-0.1V19v-0.1C0,18.8,0,18.8,0,18.8v-0.1V18.6v-0.1v-0.1V18.3v-0.1C0,18,0,18,0,18
				s0,0,0-0.1V17.8v-0.1V17.6v-0.1v-0.1c0,0,0,0,0-0.103v-0.101v-0.1V17v-0.1C0,16.8,0,16.8,0,16.8v-0.1V16.6v-0.1v-0.1v-0.1v-0.1
				C0,16.1,0,16,0,16v-0.1v-0.1v-0.1v-0.1v-0.1v-0.1v-0.1v-0.1v-0.1C0,15,0,15,0,15v-0.1c0-0.1,0-0.1,0-0.1v-0.1v-0.1v-0.1v-0.1
				v-0.1v-0.1v-0.1c0,0,0-0.1,0.1-0.1s0.1,0,0.1-0.1c0.1,0,0.2,0,0.3,0l0,0c0,0,0.1,0,0.2,0.1h0.1h0.1l0,0c1.2,0,2.3,0,3.5,0h0.1
				c0,0,0-0.1,0.1-0.1s0.2,0,0.3,0l0,0c0.1,0,0.1,0,0.2,0.1c0.6,0,1.2,0.1,1.8,0.1c0,0,0,0,0-0.1l0,0c0,0-0.1,0-0.1-0.1
				c0,0,0-0.1-0.1-0.1l-0.1-0.1l-0.1-0.1v-0.1v-0.1v-0.1v-0.1v-0.1c0-0.1,0-0.1,0-0.1s0-0.1,0.1-0.1l0.1-0.1v-0.1v-0.1v-0.1v-0.1
				v-0.1c0,0,0,0,0-0.1c0-0.1,0-0.1,0.1-0.1c0,0,0-0.1,0.1-0.1l0,0c0,0,0-0.1,0.1-0.1c0,0,0-0.1,0.1-0.1h0.1h0.1l0,0
				c3.8,0,7.6,0,11.4,0c0.1,0,0.1,0.1,0.2,0.1C18.9,12,19,12,19,12v0.1c0,0,0,0.1,0.1,0.1l0,0c0,0,0,0,0,0.1c0,0,0,0.1,0.1,0.1v0.1
				v0.1c0,0.1,0,0.1-0.1,0.1c0,0,0,0,0,0.1v0.1l0,0V13c0,0.1,0,0.1,0,0.1v0.1c0,0,0,0,0,0.1c0,0,0,0,0,0.1v0.1c0,0.1,0,0.1,0,0.1
				s0,0,0,0.1v0.1v0.1l0,0V14c0,0.1,0,0.1,0,0.1v0.1l0,0l0,0c-0.1,0-0.1,0.1-0.1,0.1c0,0.1,0,0.1,0,0.1l-0.1,0.1l-0.1,0.1l0,0v0.1
				l0,0l0,0c0.6,0,1.2,0,1.8,0l0,0c0,0,0,0,0.1,0l0,0c0.1,0,0.2,0,0.3-0.1c0.1,0,0.1,0,0.2,0.1c0.1,0,0.2,0,0.3,0c0.2,0,0.4,0,0.5,0
				s0.2,0,0.3,0c0,0,0,0,0.1,0h0.1l0,0c0,0,0.1,0,0.2,0l0,0h0.1l0,0h0.1l0,0H23l0,0h0.1c0,0,0,0,0.1,0l0,0l0,0c0,0,0,0,0.1,0l0,0
				l0,0l0,0h0.1l0,0h0.1h0.1l0,0l0,0l0,0l0,0h0.1c0,0,0,0,0.1,0l0,0l0,0l0,0l0,0h0.1l0,0H24l0,0l0,0h0.1l0,0l0,0c0.1,0,0.1,0,0.2,0
				l0,0h0.1h0.1l0,0l0,0l0,0c0,0,0,0,0.1,0s0.1,0,0.1,0h0.1l0,0l0,0l0,0c0.1,0,0.1,0,0.1,0s0,0,0.1,0l0,0h0.1l0,0c0,0,0,0,0.1,0l0,0
				c0.1,0,0.1,0,0.1,0l0,0l0.1-0.1h0.1c0,0,0,0,0.1,0l0,0l0,0l0,0l0,0c0,0,0,0,0.1,0c0.1,0,0.1,0,0.1,0h0.1l0,0l0,0
				c0.1,0,0.1,0,0.1,0s0,0,0.1,0l0,0l0,0l0,0l0,0l0,0c0,0,0,0,0.1,0l0,0l0,0l0,0c0,0,0,0,0.1,0l0,0l0,0l0,0l0,0l0,0l0,0l0,0
				c0,0,0,0,0.1,0l0,0l0,0l0,0c0,0,0,0,0.1,0c0,0,0,0,0.1,0l0,0c0,0,0,0,0.1,0l0,0c0,0,0-0.1,0.1-0.1c0,0,0,0,0.1,0H27l0.1-0.1
				c0,0,0,0,0-0.1c0,0,0,0,0.1,0h0.1l0,0l0,0c0,0,0,0,0.1,0l0,0l0,0l0,0l0,0c0,0,0,0,0.1,0h0.1l0,0h0.1h0.1c0.1-0.1,0.2-0.1,0.3-0.1
				c0,0,0.1,0,0.1-0.1c0.1,0,0.1,0,0.1,0c0.6,0,1.2-0.1,1.7-0.1c0.1,0,0.1,0,0.2,0c0,0,0,0,0-0.1s0-0.1,0-0.1c-1.6,0-3.1,0-4.7,0
				l0,0h-0.1c0,0,0,0-0.1,0c-0.2,0-0.4,0-0.6,0c-0.4,0-0.8,0-1.2,0l0,0h-0.1l0,0c0,0-0.1,0-0.2,0c0,0,0-0.1-0.1-0.1l0,0v-0.1
				c0,0,0,0,0-0.1v-0.1c0,0,0,0,0-0.1l0,0c0,0,0,0,0-0.1v-0.1V13l0,0v-0.1c0,0,0,0,0-0.1c0,0,0,0,0-0.1v-0.1l0,0v-0.1c0,0,0,0,0-0.1
				c0,0,0,0,0-0.1c0-0.1,0,0,0-0.1l0,0v-0.1c0,0,0,0,0-0.1v-0.1l0,0v-0.1v-0.1c0,0,0,0,0-0.1c0,0,0,0,0-0.1V7.8l0,0
				c0-0.1,0-0.1,0-0.1V7.6V7.4V7.3c0.1,0,0.1,0,0.1-0.1c0,0,0.1,0,0.2,0l0,0c0,0,0,0,0.1,0l0,0l0,0c0,0,0,0,0-0.1c0,0,0.1,0,0.1-0.1
				l0,0h0.1l0,0c0.9,0,1.8,0,2.8,0l0,0V6.9l0,0c0,0,0,0,0-0.1c0,0,0,0,0-0.1V6.6l0,0c0,0,0,0,0-0.1c0,0,0,0,0-0.1V6.3V6.2l0,0V6.1
				c0,0,0,0,0-0.1V5.9c0,0,0,0,0-0.1l0,0V5.7c0,0,0,0,0-0.1V5.5l0,0c0,0,0,0,0-0.1s0-0.1,0-0.1s0,0,0-0.1V5.1l0,0c0,0,0,0,0.1-0.1
				l0,0c0,0,0,0,0.1,0c0,0,0,0,0.1,0l0,0c0.7,0,1.4,0,2.1,0c0,0,0,0,0.1,0l0,0l0,0l0.1,0.1c0,0,0,0,0.1,0.1c0,0,0,0,0.1,0
				c0,0,0,0,0,0.1c0,0,0,0,0,0.1v0.1v0.1l0,0c0,0,0,0,0,0.1c0,0,0,0,0,0.1v0.1c0,0,0,0,0,0.1l0,0c0,0.1,0,0.1,0,0.1s0,0,0,0.1v0.1
				l0,0v0.1v0.1c0,0,0,0,0,0.1v0.1l0,0c0,0,0,0,0,0.1c0,0.1,0,0.1,0,0.1s0,0,0,0.1s0,0.1,0,0.1l0,0c0,0,0,0,0,0.1c2.1,0,4.3,0,6.3,0
				l0,0V7.1l0,0c0,0,0,0,0-0.1c0,0,0,0,0-0.1V6.8l0,0c0,0,0,0,0-0.1c0,0,0,0,0-0.1V6.5V6.4l0,0V6.3c0,0,0,0,0-0.1V6.1c0,0,0,0,0-0.1
				l0,0V5.9c0,0,0,0,0-0.1V5.7l0,0c0,0,0,0,0-0.1s0-0.1,0-0.1s0,0,0-0.1V5.3l0,0c0,0,0,0,0-0.1c0-0.1,0-0.1,0-0.1s0,0,0-0.1V4.9l0,0
				c0,0,0,0,0-0.1c0-0.1,0,0,0-0.1c0-0.1,0,0,0-0.1V4.5c0,0,0,0,0-0.1c0,0,0,0,0-0.1C37.4,4.3,37.4,4.3,37.5,4.2L37.5,4.2z
				 M71.6,18.1C71.6,18.1,71.6,18,71.6,18.1c0-0.1,0-0.1,0-0.199C71.6,18,71.6,18,71.6,18.1C71.6,18,71.6,18.1,71.6,18.1L71.6,18.1z
				 M31,17.6V17.7v0.1V17.9c0,0,0,0,0,0.1s0,0.1,0,0.1s0,0,0,0.103l0,0c0.1,0,0.1,0.101,0.1,0.101s0.1,0,0.1,0.102v0.1v0.1
				c0.1,0,0.2,0,0.3,0s0.1,0,0.2,0l0,0c0,0,0.1,0,0.2,0s0.1-0.1,0.2-0.1s0.1-0.1,0.2-0.1c0,0,0.1,0,0.1-0.102c0,0,0.1,0,0.1-0.101
				l0,0c0.1,0,0.1-0.103,0.1-0.103l0.1-0.1l0.1-0.1l0.1-0.103c0-0.101,0-0.101,0-0.101v-0.1v-0.1v-0.1V17.3v-0.1c-0.7,0-1.5,0-2.2,0
				l0,0v0.1c0,0,0,0,0,0.101v0.102C31,17.5,31,17.6,31,17.6z M29.9,18.6c-0.1,0-0.1-0.1-0.1-0.1l-0.1-0.1c0,0,0-0.103-0.1-0.103
				v-0.101v-0.1V18c0,0,0,0,0-0.1V17.8c0,0,0-0.1,0-0.2v-0.1v-0.1V17.3c0,0,0,0,0-0.1h-0.1c0,0,0,0,0,0.1V17.4l0,0h-0.1l0,0
				l-0.1,0.1l-0.1,0.1V17.7v0.1V17.9V18h0.1c0,0,0.1,0,0.1,0.1l0.1,0.103c0,0.101,0,0.101,0,0.101l0,0
				C29.6,18.6,29.8,18.6,29.9,18.6L29.9,18.6z M23.9,16.9c0.1,0,0.2,0,0.3,0h0.1l0,0c-0.1,0-0.1,0-0.2,0
				C24.1,16.9,24,16.9,23.9,16.9L23.9,16.9z M25,17.4L25,17.4h-0.1l0,0H25z M9.1,19.3C9.1,19.4,9.1,19.4,9.1,19.3
				C9.1,19.4,9.1,19.4,9.1,19.3L9,19.5c0,0,0,0,0,0.1V19.7v0.1V19.9c0,0,0,0,0,0.1s0,0,0,0.1V20c0,0,0,0,0,0.1c0,0,0,0,0,0.103l0,0
				c0,0,0,0,0,0.101l0,0c0,0,0,0,0,0.102l0,0h0.1c0.1,0,0.1,0,0.2,0.1c0.2,0,0.4,0.1,0.6,0.1L10,20.7V20.6l0,0h0.1l0,0l0,0h0.1l0,0
				l0,0l0,0h0.1l0,0l0,0l0,0c0,0,0,0,0.1,0l0,0l0,0l0,0l0,0l0,0l0,0l0,0l0,0h0.1h0.1c0,0,0,0,0.1,0h0.1l0,0c0,0,0,0,0.1,0l0,0H11
				c0,0,0,0,0-0.1l0.1-0.1c0-0.103,0-0.103,0.1-0.103v-0.101v-0.1c0,0,0,0,0-0.1l0,0C11,19.3,10.1,19.3,9.1,19.3L9.1,19.3
				C9.2,19.3,9.2,19.3,9.1,19.3z M5.4,25.6H5.3H5.4L5.4,25.6z M22.9,24.6L22.9,24.6L22.9,24.6L22.9,24.6z"/>
		</defs>
		<clipPath id="SVGID_3_">
			<use xlink:href="#SVGID_2_"  overflow="visible"/>
		</clipPath>
		<g clip-path="url(#SVGID_3_)">
			<g>
				<g>
					
						<linearGradient id="SVGID_4_" gradientUnits="userSpaceOnUse" x1="754.3823" y1="583.5381" x2="797.6888" y2="572.124" gradientTransform="matrix(1 0 0 1 -749.9199 -562.1992)">
						<stop  offset="2.054068e-007" style="stop-color:#FE6198"/>
						<stop  offset="1" style="stop-color:#FFC9D4"/>
					</linearGradient>
					<polygon fill="url(#SVGID_4_)" points="-9.025,26.426 -3.294,26.426 1.096,20.693 -4.635,20.693 					"/>
					
						<linearGradient id="SVGID_5_" gradientUnits="userSpaceOnUse" x1="753.6216" y1="580.6582" x2="796.9216" y2="569.2458" gradientTransform="matrix(1 0 0 1 -749.9199 -562.1992)">
						<stop  offset="2.054068e-007" style="stop-color:#FE6198"/>
						<stop  offset="1" style="stop-color:#FFC9D4"/>
					</linearGradient>
					<polygon fill="url(#SVGID_5_)" points="5.364,14.962 1.096,20.693 6.828,20.693 11.096,14.962 					"/>
					
						<linearGradient id="SVGID_6_" gradientUnits="userSpaceOnUse" x1="755.1265" y1="586.3643" x2="798.4323" y2="574.9503" gradientTransform="matrix(1 0 0 1 -749.9199 -562.1992)">
						<stop  offset="2.054068e-007" style="stop-color:#FE6198"/>
						<stop  offset="1" style="stop-color:#FFC9D4"/>
					</linearGradient>
					<polygon fill="url(#SVGID_6_)" points="2.437,26.426 8.168,26.426 12.559,20.693 6.828,20.693 					"/>
					
						<linearGradient id="SVGID_7_" gradientUnits="userSpaceOnUse" x1="754.3667" y1="583.4834" x2="797.6672" y2="572.0708" gradientTransform="matrix(1 0 0 1 -749.9199 -562.1992)">
						<stop  offset="2.054068e-007" style="stop-color:#FE6198"/>
						<stop  offset="1" style="stop-color:#FFC9D4"/>
					</linearGradient>
					<polygon fill="url(#SVGID_7_)" points="12.559,20.693 18.291,20.693 22.559,14.962 16.827,14.962 					"/>
					
						<linearGradient id="SVGID_8_" gradientUnits="userSpaceOnUse" x1="752.1177" y1="574.9541" x2="795.4189" y2="563.5414" gradientTransform="matrix(1 0 0 1 -749.9199 -562.1992)">
						<stop  offset="2.054068e-007" style="stop-color:#FE6198"/>
						<stop  offset="1" style="stop-color:#FFC9D4"/>
					</linearGradient>
					<polygon fill="url(#SVGID_8_)" points="4.023,9.231 -0.367,14.962 5.364,14.962 9.754,9.231 					"/>
					
						<linearGradient id="SVGID_9_" gradientUnits="userSpaceOnUse" x1="751.3599" y1="572.0752" x2="794.66" y2="560.6628" gradientTransform="matrix(1 0 0 1 -749.9199 -562.1992)">
						<stop  offset="2.054068e-007" style="stop-color:#FE6198"/>
						<stop  offset="1" style="stop-color:#FFC9D4"/>
					</linearGradient>
					<polygon fill="url(#SVGID_9_)" points="19.753,3.5 14.022,3.5 9.754,9.231 15.485,9.231 					"/>
					
						<linearGradient id="SVGID_10_" gradientUnits="userSpaceOnUse" x1="752.8638" y1="577.7783" x2="796.1661" y2="566.3653" gradientTransform="matrix(1 0 0 1 -749.9199 -562.1992)">
						<stop  offset="2.054068e-007" style="stop-color:#FE6198"/>
						<stop  offset="1" style="stop-color:#FFC9D4"/>
					</linearGradient>
					<polygon fill="url(#SVGID_10_)" points="16.827,14.962 21.217,9.231 15.485,9.231 11.096,14.962 					"/>
					
						<linearGradient id="SVGID_11_" gradientUnits="userSpaceOnUse" x1="752.104" y1="574.9004" x2="795.4045" y2="563.4879" gradientTransform="matrix(1 0 0 1 -749.9199 -562.1992)">
						<stop  offset="2.054068e-007" style="stop-color:#FE6198"/>
						<stop  offset="1" style="stop-color:#FFC9D4"/>
					</linearGradient>
					<polygon fill="url(#SVGID_11_)" points="31.217,3.5 25.485,3.5 21.217,9.231 26.949,9.231 					"/>
					
						<linearGradient id="SVGID_12_" gradientUnits="userSpaceOnUse" x1="755.1128" y1="586.3076" x2="798.4116" y2="574.8955" gradientTransform="matrix(1 0 0 1 -749.9199 -562.1992)">
						<stop  offset="2.054068e-007" style="stop-color:#FE6198"/>
						<stop  offset="1" style="stop-color:#FFC9D4"/>
					</linearGradient>
					<polygon fill="url(#SVGID_12_)" points="24.021,20.693 29.753,20.693 34.021,14.962 28.29,14.962 					"/>
					
						<linearGradient id="SVGID_13_" gradientUnits="userSpaceOnUse" x1="754.3472" y1="583.4141" x2="797.6494" y2="572.001" gradientTransform="matrix(1 0 0 1 -749.9199 -562.1992)">
						<stop  offset="2.054068e-007" style="stop-color:#FE6198"/>
						<stop  offset="1" style="stop-color:#FFC9D4"/>
					</linearGradient>
					<polygon fill="url(#SVGID_13_)" points="34.021,14.962 39.753,14.962 44.021,9.231 38.289,9.231 					"/>
					
						<linearGradient id="SVGID_14_" gradientUnits="userSpaceOnUse" x1="753.6079" y1="580.6045" x2="796.9109" y2="569.1914" gradientTransform="matrix(1 0 0 1 -749.9199 -562.1992)">
						<stop  offset="2.054068e-007" style="stop-color:#FE6198"/>
						<stop  offset="1" style="stop-color:#FFC9D4"/>
					</linearGradient>
					<polygon fill="url(#SVGID_14_)" points="26.949,9.231 22.559,14.962 28.29,14.962 32.558,9.231 					"/>
					
						<linearGradient id="SVGID_15_" gradientUnits="userSpaceOnUse" x1="752.8501" y1="577.708" x2="796.1467" y2="566.2965" gradientTransform="matrix(1 0 0 1 -749.9199 -562.1992)">
						<stop  offset="2.054068e-007" style="stop-color:#FE6198"/>
						<stop  offset="1" style="stop-color:#FFC9D4"/>
					</linearGradient>
					<polygon fill="url(#SVGID_15_)" points="42.679,3.5 36.948,3.5 32.558,9.231 38.289,9.231 					"/>
					
						<linearGradient id="SVGID_16_" gradientUnits="userSpaceOnUse" x1="753.5874" y1="580.5352" x2="796.8912" y2="569.1216" gradientTransform="matrix(1 0 0 1 -749.9199 -562.1992)">
						<stop  offset="2.054068e-007" style="stop-color:#FE6198"/>
						<stop  offset="1" style="stop-color:#FFC9D4"/>
					</linearGradient>
					<polygon fill="url(#SVGID_16_)" points="48.411,3.5 44.021,9.231 49.751,9.231 54.141,3.5 					"/>
				</g>
			</g>
		</g>
	</g>
</g>
<g>
	<path fill="#FFF0F4" d="M48.613,22.662l-1.301,2.8h-2.699l6.199-12.3h3l1.801,12.3h-2.6l-0.301-2.8H48.613z M51.912,15.762
		l-2.1,4.5h2.6L51.912,15.762z"/>
	<path fill="#FFF0F4" d="M59.412,25.462c-0.699,0-1.299-0.2-1.699-0.7c-0.398-0.5-0.5-1.1-0.398-1.8l1.398-7.6
		c0.102-0.7,0.4-1.3,1-1.7c0.5-0.4,1.102-0.6,1.9-0.6h4c0.699,0,1.299,0.2,1.699,0.7s0.5,1.1,0.4,1.8l-0.301,1.899h-2.6l0.299-1.6
		c0-0.2,0-0.3,0-0.4c-0.1-0.1-0.199-0.1-0.398-0.1h-2.699c-0.4,0-0.701,0.2-0.801,0.7l-1.199,6.6c0,0.2,0,0.3,0,0.4
		c0.1,0.1,0.199,0.1,0.398,0.1h2.701c0.4,0,0.699-0.2,0.799-0.7l0.201-1.399h2.6l-0.5,2.1c-0.1,0.7-0.398,1.3-1,1.7
		c-0.5,0.399-1.1,0.6-1.9,0.6H59.412z"/>
	<path fill="#FFF0F4" d="M78.312,13.162l-0.4,2.3h-5.699l-0.5,2.5h4.6l-0.4,2.3h-4.6l-0.5,2.801h5.701l-0.4,2.3h-8.201l2.201-12.2
		H78.312z"/>
</g>
</svg>
