<?xml version="1.0" encoding="utf-8"?>
<!-- Generator: Adobe Illustrator 16.0.0, SVG Export Plug-In . SVG Version: 6.00 Build 0)  -->
<!DOCTYPE svg PUBLIC "-//W3C//DTD SVG 1.0//EN" "http://www.w3.org/TR/2001/REC-SVG-20010904/DTD/svg10.dtd">
<svg version="1.0" id="图层_1" xmlns="http://www.w3.org/2000/svg" xmlns:xlink="http://www.w3.org/1999/xlink" x="0px" y="0px"
	 width="83.5px" height="32px" viewBox="0 0 83.5 32" enable-background="new 0 0 83.5 32" xml:space="preserve">
<path fill="#0001BF" d="M78.1,3.5c0,0.1,0.103,0.2,0.2,0.3C78.4,4.1,78.5,4.5,78.7,5c0.1,0.5,0.2,1.1,0.3,1.6V8
	c0.1,0.1,0.2,0.2,0.2,0.3c0,0.2,0.1,0.3,0.2,0.5h0.3c0.2,0,0.3,0,0.399,0c0.101,0,0.101,0,0.301,0H82.8L82.9,9c0,0.1,0,0.3,0.1,0.4
	c0.1,0.2,0.2,0.4,0.2,0.6c0.1,0.3,0.1,0.5,0,0.7c-0.101,0.2-0.2,0.4-0.4,0.5c-0.3,0.1-0.6,0.2-0.899,0.2
	c-0.301,0.1-0.601,0.1-0.698,0.1c0,0-0.2,0-0.399,0.1c-0.199,0-0.301,0.1-0.398,0.1H80.1c-0.1,0-0.3,0-0.5-0.1c0,0.3,0,0.5-0.1,0.7
	c-0.1,0.3-0.2,0.4-0.6,0.5c-0.103,0-0.2,0-0.301,0c0,0.1-0.102,0.1-0.102,0.1h-0.102v0.7l-0.199,0.7H78c-0.3,0-0.7,0-1.3,0
	c-0.601,0-1.101-0.1-1.3-0.3c-0.103,0-0.2,0.1-0.301,0.2L75,14.5h-0.1c-0.301,0-0.5,0.1-0.801,0.3C73.9,15,73.7,15.1,73.7,15.3
	c0,0.1,0,0.3,0,0.6c0,0.3,0,0.7,0.1,1.2c0,0.5,0,1.103,0,1.801c0,0.699,0,1.399,0,2.102s0,1.3,0,1.898c0,0.602-0.1,1.102-0.1,1.5
	c-0.101,0.602-0.2,1-0.2,1.399c-0.1,0.3-0.2,0.601-0.3,0.8C73.1,26.8,73.1,26.9,73.1,27.1L73,27.2h-0.2c-0.2,0.1-0.6,0.1-1.2,0.1
	c-0.5,0-0.897-0.1-1.199-0.3v-0.1C70.3,26.8,70.2,26.7,70.1,26.5C70,26.4,69.9,26.2,69.9,25.9C69.8,25.5,69.8,25.2,69.8,25.1V24.9
	L69.6,24.8C69.7,23,69.8,21.6,69.9,20.4c0.1-1.103,0.1-2,0.199-2.7c0.101-0.7,0.101-1.2,0.198-1.5c0.103-0.3,0.103-0.5,0.103-0.6
	c-0.103,0-0.2,0-0.301-0.1c-0.102-0.1-0.102-0.2-0.302-0.3L69.6,14.9c-0.101,0-0.101-0.1-0.199-0.1c0-0.1-0.102-0.1-0.199-0.1
	c0-0.1-0.102-0.2-0.301-0.3s-0.301-0.2-0.399-0.2s-0.2,0-0.3-0.1c-0.102,0-0.102,0-0.102,0H68l-0.6,0.1c0,0-0.103,0-0.2-0.1
	c-0.101,0-0.101,0-0.2,0s-0.2,0-0.2,0s-0.1,0-0.2,0c-0.1,0-0.199,0-0.3,0c-0.1,0.1-0.3,0.1-0.399,0.1H63.3c0-0.1,0-0.2,0-0.4
	c0-0.1,0-0.3,0-0.4s0-0.2,0-0.3c-0.3,0.1-0.6,0.3-1.2,0.7c-0.5,0.3-0.897,0.4-1.1,0.4h-1.8c0.1,0.2,0.1,0.5,0.2,0.9
	c0.1,0.4,0.199,0.8,0.3,1.3c0.1,0.5,0.1,1.1,0.3,1.7c-0.1,0-0.2,0-0.3,0L59.2,18.4c0,0.1,0.1,0.397,0.2,1C59.6,20,59.8,20.8,60,21.7
	c0.2,0.899,0.4,2,0.6,3.1c0.2,1.2,0.5,2.4,0.801,3.5c0.102,0.601,0.302,1.2,0.399,1.8c0,0.103,0,0.2,0.101,0.301
	c-0.101,0-0.101,0-0.198,0c-0.103,0-0.2,0-0.302,0c-0.101,0-0.198,0-0.301,0c-0.1,0-0.1,0.102-0.199,0.102c-0.198,0-0.5,0-0.698,0
	c-0.103,0-0.2,0-0.302,0c-0.101,0-0.198,0-0.301,0c-0.1,0-0.1,0.102-0.199,0.102c-0.398,0-0.898,0-1.301,0c-0.1,0-0.199,0-0.3,0
	c-0.1,0-0.2,0-0.3,0S57.4,30.7,57.3,30.7c-0.2,0-0.5,0-0.7,0L56.4,29.8l0,0C56.1,28.4,55.8,27.2,55.5,25.9
	c-0.3-1.301-0.6-2.5-0.9-3.5C54.4,21.3,54.2,20.5,54,19.9c-0.2-0.603-0.3-1-0.3-1H53c-0.3,0-0.6,0-0.9,0c-0.199,0-0.397,0-0.6,0
	c-0.3,0-0.4,0.1-0.6,0.199C50.6,19.2,50.5,19.4,50.3,19.5C50.2,19.7,50,19.9,50,20c-0.1,0.1-0.1,0.3-0.3,0.4
	c-0.101,0.1-0.2,0.199-0.3,0.3c-0.103,0.1-0.5,0.2-1,0.2C47.8,21,47.1,21,46.5,21c-0.7,0-1.4,0-2.1,0c-0.603,0-1-0.1-1.2-0.2
	c-0.3-0.1-0.7-0.2-1.2-0.399c-0.5-0.198-0.8-0.398-1-0.601c-0.6,0.8-0.9,1.3-0.9,1.601c0.1,0.302,0.2,0.399,0.3,0.602
	c0.1,0.102,0.1,0.2,0.1,0.3h0.1l-0.5,0.5H40c-0.1,0-0.2,0-0.3,0c-0.1,0.103-0.2,0.302-0.4,0.603c-0.2,0.3-0.4,0.699-0.7,1.199
	c-0.2,0.5-0.4,0.898-0.6,1.301c-0.2,0.3-0.3,0.6-0.3,0.699V28c0.1,0.1,0.1,0.2-0.1,0.4C37.4,28.6,37,28.6,36.6,28.6
	c-0.2-0.1-0.5-0.199-1-0.5c-0.5-0.3-1-0.6-1.6-0.897s-1.1-0.603-1.5-0.9c-0.5-0.397-0.8-0.6-0.8-0.8c0-0.102,0-0.3,0.1-0.5
	c0.1-0.102,0.2-0.5,0.6-1c0.3-0.5,0.7-1.3,1.2-2.398c0.6-1,1.4-2.399,2.4-4.102c0-0.3-0.1-0.7-0.3-1.4c-0.1-0.7-0.6-1.1-1.5-1.4
	L32.4,14c-0.4-0.1-0.7-0.1-0.9-0.2C31.3,14,31,14,30.8,14c-0.3-0.1-0.6-0.1-0.9-0.1c-0.4-0.1-0.9-0.1-1.3-0.1c-0.5,0-0.9,0-1.3,0
	c-0.4,0-0.7,0-0.9,0.1L4.2,21.7H4.1c-0.1,0-0.2,0-0.5,0c-0.3,0.1-0.7,0.1-1,0.1c-0.3,0-0.7,0-1.1,0c-0.4-0.1-0.7-0.1-0.9-0.3
	c-0.2-0.2-0.3-0.4-0.3-0.6v-3c0-0.7,0-1.5,0-2.2c0-0.7-0.1-1.3-0.2-1.7v-2.1c0-0.3,0-0.6,0-0.9C0,10.7,0,10.4,0,10.2
	C0,10,0,9.7,0,9.3C0,9,0.2,8.7,0.6,8.6c0,0,0.3-0.1,0.9-0.1c0.5,0,1.1,0,1.8,0c0.7,0,1.4,0,2.2,0c0.7,0,1.3,0,7.05,0h8.617
	C16.117,8.4,23.4,8.3,23.8,8.2C24.2,8.1,24.6,8,25,7.9s0.8-0.3,1.2-0.3c0.3-0.1,0.5-0.2,0.6-0.3l0.9-0.6c0.2-0.1,0.4-0.2,0.5-0.3
	c0.2,0,0.3-0.1,0.4-0.1C28.5,6,29.1,5.9,30,5.7c0.3,0,0.5,0,0.5-0.1c0.1,0,0.2,0,0.3-0.1c0.1-0.1,0.5-0.4,1.1-1
	c0.5-0.6,1-1.1,1.5-1.6c0.3-0.2,0.7-0.3,1.3-0.2c0.6,0.1,1,0.1,1.3,0.2c0.1,0,0.2,0,0.3,0c0.1,0,0.1,0,0.1,0c0.1,0,0.1,0,0.2,0
	C36.7,3,36.9,3.1,37,3.1h1l0.3,0.5v1.8h0.2v-1h2.2V3.8h1.2v0.6h0.8V3.8h1.1v0.6h0.8V3.8h1.2v0.6h0.9V3.8h1.1v0.6h0.9V3.8h1.2v0.6
	H50.8V3.8H52v0.6h0.7V3.8H54v0.6h0.7V3.8h1.2v0.6H57v1.1h15.7C73,5.3,73.3,5,73.8,4.6s0.8-0.7,0.9-0.9c0-0.3,0-0.5,0-0.6
	s0-0.2,0-0.3c0.1-0.3,0.2-0.5,0.3-0.7c0.1-0.2,0.3-0.4,0.6-0.4H75.9c0.3-0.1,0.5-0.2,0.8-0.2c0.2,0,0.399,0.2,0.6,0.5
	c0.3,0.4,0.5,0.8,0.601,1.2C78,3.2,78.1,3.4,78.1,3.5z M56.3,5H39.1v0.5h17.2V5z M42.6,19c0.2,0.2,0.5,0.3,0.801,0.3h4
	c0.302,0,0.5-0.1,0.899-0.3c0.2-0.2,0.3-0.4,0.3-0.6c0-0.4-0.1-0.801-0.3-1C48,17.2,47.7,17.1,47.4,17.1h-4
	C43.1,17.1,42.8,17.2,42.6,17.4C42.3,17.6,42.2,18,42.2,18.4C42.1,18.6,42.3,18.8,42.6,19z M20.2,12.8c0-0.7-0.3-1.1-1-1.1h-1.9
	c-0.3,0-0.5,0.1-0.6,0.3c-0.2,0.2-0.3,0.5-0.3,0.8c0,0.2,0.1,0.4,0.3,0.6c0.2,0.2,0.4,0.3,0.6,0.3h1.9c0.3,0,0.6-0.1,0.8-0.3
	C20.1,13.2,20.2,13.1,20.2,12.8z M5.9,11c-0.5-0.1-0.9-0.1-1.4-0.2c-0.5,0-0.8,0-1-0.1c0,0.4,0,0.9,0,1.5c0.1,0.7,0.1,1.3,0.2,2
	c0,0.7,0,1.3,0.1,2c0,0.6,0,1,0,1.2c0.1,0.1,0.4,0.3,0.9,0.5c0.5,0.199,1,0.3,1.5,0.3c0.3,0,0.8-0.101,1.4-0.3
	c0.5-0.2,1.1-0.4,1.7-0.603c0.6-0.3,1.1-0.5,1.7-0.8c0.5-0.3,0.9-0.5,1.2-0.6c0.2-0.2,0.3-0.5,0.3-0.8c0-0.3-0.1-0.8-0.3-1.3
	c-0.2-0.5-0.3-1-0.5-1.4c-0.2,0-0.6-0.1-1.2-0.2c-0.5-0.1-1.2-0.3-1.9-0.5c-0.3-0.1-0.8-0.2-1.3-0.3C6.9,11.1,6.4,11,5.9,11z"/>
<g>
	<defs>
		<path id="SVGID_1_" d="M78.1,3.5c0,0.1,0.103,0.2,0.2,0.3C78.4,4.1,78.5,4.5,78.7,5c0.1,0.5,0.2,1.1,0.3,1.6V8
			c0.1,0.1,0.2,0.2,0.2,0.3c0,0.2,0.1,0.3,0.2,0.5h0.3c0.2,0,0.3,0,0.399,0c0.101,0,0.101,0,0.301,0H82.8L82.9,9
			c0,0.1,0,0.3,0.1,0.4c0.1,0.2,0.2,0.4,0.2,0.6c0.1,0.3,0.1,0.5,0,0.7c-0.101,0.2-0.2,0.4-0.4,0.5c-0.3,0.1-0.6,0.2-0.899,0.2
			c-0.301,0.1-0.601,0.1-0.698,0.1c0,0-0.2,0-0.399,0.1c-0.199,0-0.301,0.1-0.398,0.1H80.1c-0.1,0-0.3,0-0.5-0.1
			c0,0.3,0,0.5-0.1,0.7c-0.1,0.3-0.2,0.4-0.6,0.5c-0.103,0-0.2,0-0.301,0c0,0.1-0.102,0.1-0.102,0.1h-0.102v0.7l-0.199,0.7H78
			c-0.3,0-0.7,0-1.3,0c-0.601,0-1.101-0.1-1.3-0.3c-0.103,0-0.2,0.1-0.301,0.2L75,14.5h-0.1c-0.301,0-0.5,0.1-0.801,0.3
			C73.9,15,73.7,15.1,73.7,15.3c0,0.1,0,0.3,0,0.6c0,0.3,0,0.7,0.1,1.2c0,0.5,0,1.103,0,1.801c0,0.699,0,1.399,0,2.102
			s0,1.3,0,1.898c0,0.602-0.1,1.102-0.1,1.5c-0.101,0.602-0.2,1-0.2,1.399c-0.1,0.3-0.2,0.601-0.3,0.8
			C73.1,26.8,73.1,26.9,73.1,27.1L73,27.2h-0.2c-0.2,0.1-0.6,0.1-1.2,0.1c-0.5,0-0.897-0.1-1.199-0.3v-0.1
			C70.3,26.8,70.2,26.7,70.1,26.5C70,26.4,69.9,26.2,69.9,25.9C69.8,25.5,69.8,25.2,69.8,25.1V24.9L69.6,24.8
			C69.7,23,69.8,21.6,69.9,20.4c0.1-1.103,0.1-2,0.199-2.7c0.101-0.7,0.101-1.2,0.198-1.5c0.103-0.3,0.103-0.5,0.103-0.6
			c-0.103,0-0.2,0-0.301-0.1c-0.102-0.1-0.102-0.2-0.302-0.3L69.6,14.9c-0.101,0-0.101-0.1-0.199-0.1c0-0.1-0.102-0.1-0.199-0.1
			c0-0.1-0.102-0.2-0.301-0.3s-0.301-0.2-0.399-0.2s-0.2,0-0.3-0.1c-0.102,0-0.102,0-0.102,0H68l-0.6,0.1c0,0-0.103,0-0.2-0.1
			c-0.101,0-0.101,0-0.2,0s-0.2,0-0.2,0s-0.1,0-0.2,0c-0.1,0-0.199,0-0.3,0c-0.1,0.1-0.3,0.1-0.399,0.1H63.3c0-0.1,0-0.2,0-0.4
			c0-0.1,0-0.3,0-0.4s0-0.2,0-0.3c-0.3,0.1-0.6,0.3-1.2,0.7c-0.5,0.3-0.897,0.4-1.1,0.4h-1.8c0.1,0.2,0.1,0.5,0.2,0.9
			c0.1,0.4,0.199,0.8,0.3,1.3c0.1,0.5,0.1,1.1,0.3,1.7c-0.1,0-0.2,0-0.3,0L59.2,18.4c0,0.1,0.1,0.397,0.2,1
			C59.6,20,59.8,20.8,60,21.7c0.2,0.899,0.4,2,0.6,3.1c0.2,1.2,0.5,2.4,0.801,3.5c0.102,0.601,0.302,1.2,0.399,1.8
			c0,0.103,0,0.2,0.101,0.301c-0.101,0-0.101,0-0.198,0c-0.103,0-0.2,0-0.302,0c-0.101,0-0.198,0-0.301,0
			c-0.1,0-0.1,0.102-0.199,0.102c-0.198,0-0.5,0-0.698,0c-0.103,0-0.2,0-0.302,0c-0.101,0-0.198,0-0.301,0
			c-0.1,0-0.1,0.102-0.199,0.102c-0.398,0-0.898,0-1.301,0c-0.1,0-0.199,0-0.3,0c-0.1,0-0.2,0-0.3,0S57.4,30.7,57.3,30.7
			c-0.2,0-0.5,0-0.7,0L56.4,29.8l0,0C56.1,28.4,55.8,27.2,55.5,25.9c-0.3-1.301-0.6-2.5-0.9-3.5C54.4,21.3,54.2,20.5,54,19.9
			c-0.2-0.603-0.3-1-0.3-1H53c-0.3,0-0.6,0-0.9,0c-0.199,0-0.397,0-0.6,0c-0.3,0-0.4,0.1-0.6,0.199C50.6,19.2,50.5,19.4,50.3,19.5
			C50.2,19.7,50,19.9,50,20c-0.1,0.1-0.1,0.3-0.3,0.4c-0.101,0.1-0.2,0.199-0.3,0.3c-0.103,0.1-0.5,0.2-1,0.2
			C47.8,21,47.1,21,46.5,21c-0.7,0-1.4,0-2.1,0c-0.603,0-1-0.1-1.2-0.2c-0.3-0.1-0.7-0.2-1.2-0.399c-0.5-0.198-0.8-0.398-1-0.601
			c-0.6,0.8-0.9,1.3-0.9,1.601c0.1,0.302,0.2,0.399,0.3,0.602c0.1,0.102,0.1,0.2,0.1,0.3h0.1l-0.5,0.5H40c-0.1,0-0.2,0-0.3,0
			c-0.1,0.103-0.2,0.302-0.4,0.603c-0.2,0.3-0.4,0.699-0.7,1.199c-0.2,0.5-0.4,0.898-0.6,1.301c-0.2,0.3-0.3,0.6-0.3,0.699V28
			c0.1,0.1,0.1,0.2-0.1,0.4C37.4,28.6,37,28.6,36.6,28.6c-0.2-0.1-0.5-0.199-1-0.5c-0.5-0.3-1-0.6-1.6-0.897s-1.1-0.603-1.5-0.9
			c-0.5-0.397-0.8-0.6-0.8-0.8c0-0.102,0-0.3,0.1-0.5c0.1-0.102,0.2-0.5,0.6-1c0.3-0.5,0.7-1.3,1.2-2.398c0.6-1,1.4-2.399,2.4-4.102
			c0-0.3-0.1-0.7-0.3-1.4c-0.1-0.7-0.6-1.1-1.5-1.4L32.4,14c-0.4-0.1-0.7-0.1-0.9-0.2C31.3,14,31,14,30.8,14
			c-0.3-0.1-0.6-0.1-0.9-0.1c-0.4-0.1-0.9-0.1-1.3-0.1c-0.5,0-0.9,0-1.3,0c-0.4,0-0.7,0-0.9,0.1L4.2,21.7H4.1c-0.1,0-0.2,0-0.5,0
			c-0.3,0.1-0.7,0.1-1,0.1c-0.3,0-0.7,0-1.1,0c-0.4-0.1-0.7-0.1-0.9-0.3c-0.2-0.2-0.3-0.4-0.3-0.6v-3c0-0.7,0-1.5,0-2.2
			c0-0.7-0.1-1.3-0.2-1.7v-2.1c0-0.3,0-0.6,0-0.9C0,10.7,0,10.4,0,10.2C0,10,0,9.7,0,9.3C0,9,0.2,8.7,0.6,8.6c0,0,0.3-0.1,0.9-0.1
			c0.5,0,1.1,0,1.8,0c0.7,0,1.4,0,2.2,0c0.7,0,1.3,0,7.05,0h8.617C16.117,8.4,23.4,8.3,23.8,8.2C24.2,8.1,24.6,8,25,7.9
			s0.8-0.3,1.2-0.3c0.3-0.1,0.5-0.2,0.6-0.3l0.9-0.6c0.2-0.1,0.4-0.2,0.5-0.3c0.2,0,0.3-0.1,0.4-0.1C28.5,6,29.1,5.9,30,5.7
			c0.3,0,0.5,0,0.5-0.1c0.1,0,0.2,0,0.3-0.1c0.1-0.1,0.5-0.4,1.1-1c0.5-0.6,1-1.1,1.5-1.6c0.3-0.2,0.7-0.3,1.3-0.2
			c0.6,0.1,1,0.1,1.3,0.2c0.1,0,0.2,0,0.3,0c0.1,0,0.1,0,0.1,0c0.1,0,0.1,0,0.2,0C36.7,3,36.9,3.1,37,3.1h1l0.3,0.5v1.8h0.2v-1h2.2
			V3.8h1.2v0.6h0.8V3.8h1.1v0.6h0.8V3.8h1.2v0.6h0.9V3.8h1.1v0.6h0.9V3.8h1.2v0.6H50.8V3.8H52v0.6h0.7V3.8H54v0.6h0.7V3.8h1.2v0.6
			H57v1.1h15.7C73,5.3,73.3,5,73.8,4.6s0.8-0.7,0.9-0.9c0-0.3,0-0.5,0-0.6s0-0.2,0-0.3c0.1-0.3,0.2-0.5,0.3-0.7
			c0.1-0.2,0.3-0.4,0.6-0.4H75.9c0.3-0.1,0.5-0.2,0.8-0.2c0.2,0,0.399,0.2,0.6,0.5c0.3,0.4,0.5,0.8,0.601,1.2
			C78,3.2,78.1,3.4,78.1,3.5z M56.3,5H39.1v0.5h17.2V5z M42.6,19c0.2,0.2,0.5,0.3,0.801,0.3h4c0.302,0,0.5-0.1,0.899-0.3
			c0.2-0.2,0.3-0.4,0.3-0.6c0-0.4-0.1-0.801-0.3-1C48,17.2,47.7,17.1,47.4,17.1h-4C43.1,17.1,42.8,17.2,42.6,17.4
			C42.3,17.6,42.2,18,42.2,18.4C42.1,18.6,42.3,18.8,42.6,19z M20.2,12.8c0-0.7-0.3-1.1-1-1.1h-1.9c-0.3,0-0.5,0.1-0.6,0.3
			c-0.2,0.2-0.3,0.5-0.3,0.8c0,0.2,0.1,0.4,0.3,0.6c0.2,0.2,0.4,0.3,0.6,0.3h1.9c0.3,0,0.6-0.1,0.8-0.3
			C20.1,13.2,20.2,13.1,20.2,12.8z M5.9,11c-0.5-0.1-0.9-0.1-1.4-0.2c-0.5,0-0.8,0-1-0.1c0,0.4,0,0.9,0,1.5c0.1,0.7,0.1,1.3,0.2,2
			c0,0.7,0,1.3,0.1,2c0,0.6,0,1,0,1.2c0.1,0.1,0.4,0.3,0.9,0.5c0.5,0.199,1,0.3,1.5,0.3c0.3,0,0.8-0.101,1.4-0.3
			c0.5-0.2,1.1-0.4,1.7-0.603c0.6-0.3,1.1-0.5,1.7-0.8c0.5-0.3,0.9-0.5,1.2-0.6c0.2-0.2,0.3-0.5,0.3-0.8c0-0.3-0.1-0.8-0.3-1.3
			c-0.2-0.5-0.3-1-0.5-1.4c-0.2,0-0.6-0.1-1.2-0.2c-0.5-0.1-1.2-0.3-1.9-0.5c-0.3-0.1-0.8-0.2-1.3-0.3C6.9,11.1,6.4,11,5.9,11z"/>
	</defs>
	<clipPath id="SVGID_2_">
		<use xlink:href="#SVGID_1_"  overflow="visible"/>
	</clipPath>
	
		<path clip-path="url(#SVGID_2_)" fill="none" stroke="#FFFFFF" stroke-width="0.5" stroke-linecap="round" stroke-linejoin="round" stroke-miterlimit="10" d="
		M50.877,14.938c0,0,1.689-6.537,5.001-6.455c2.524,0.063,4.171,2.208,4.563,4.708c0,0,0.831-2.996,2.947-2.479
		c1.099,0.268,2.727,3.624,2.727,3.624s3.857-3.874,4.977-0.687c0,0-0.524-5.744-5.128-7.182c-2.024-0.633-5.777,1.206-5.601,6.331"
		/>
	
		<linearGradient id="SVGID_3_" gradientUnits="userSpaceOnUse" x1="310.2305" y1="-395.7891" x2="343.4355" y2="-395.7891" gradientTransform="matrix(0.9781 -0.2079 -0.2079 -0.9781 -356.2386 -295.3752)">
		<stop  offset="0" style="stop-color:#A9D0FF"/>
		<stop  offset="0.1986" style="stop-color:#A7CBFF"/>
		<stop  offset="0.4411" style="stop-color:#A1BCFF"/>
		<stop  offset="0.7063" style="stop-color:#97A3FF"/>
		<stop  offset="0.9861" style="stop-color:#8981FF"/>
		<stop  offset="1" style="stop-color:#887FFF"/>
	</linearGradient>
	<path clip-path="url(#SVGID_2_)" fill="url(#SVGID_3_)" d="M31.145,29.723c0,0,0.518,2.65,1.825,4.131
		c1.308,1.483,1.782-1.316,1.782-1.316l2.188-5.157c0,0,2.238,0.108,2.626,0.497c0.387,0.385,4.154-1.723,4.154-1.723
		s0.034,0.95,1.047,2.844c1.015,1.898,3.476,1.258,4.331,0.255c0.854-1.005,1.696-8.331,4.1-7.083
		c2.404,1.249,5.365,2.966,5.365,2.966s1.618-0.243,1.548-1.285c-0.067-1.04-2.512,2.743-1.776,1.529
		c0.735-1.212,3.056,0.749,3.23-0.225c0.173-0.976,0.025-5.203,0.025-5.203s0.82,0.666-0.265-1.548
		c-1.356-2.775-2.331-6.321-7.695-0.346c-3.124,3.48-0.879,3.541-0.879,3.541s-2.86,2.78-4.923,1.695
		c-2.063-1.089-4.023-2.771-5.582-2.557c-1.557,0.213-3.868,0.118-4.286,1.028c-0.419,0.908-1.709-3.206-2.489-3.642
		c-0.779-0.436-6.821,3.854-6.658,5.696C28.976,25.663,31.145,29.723,31.145,29.723z"/>
	
		<path clip-path="url(#SVGID_2_)" fill="none" stroke="#FFFFFF" stroke-linecap="round" stroke-linejoin="round" stroke-miterlimit="10" d="
		M30.23,17.956c0,0-0.403-0.981,0.623-4.417c0.777-2.604,2.396-8.743,5.34-8.654c2.897,0.087,3.389,7.026,3.612,10.578
		c0,0,2.417-6.145,5.998-5.693c1.293,0.163,3.715,2.678,5.414,5.151c0,0-0.896-4.21-2.301-7.067
		c-0.521-1.058-1.199-5.007-4.227-5.029c-1.824-0.013-3.11,5.475-4.165,10.512"/>
	<path clip-path="url(#SVGID_2_)" fill="#A2CAFF" d="M39.669,16.531c0.633,2.061-1.896,4.884-1.896,4.884s-0.97,2.85-3.485,2.375
		c-5.051-0.953-2.328-8.516-2.328-8.516s0.648,4.051,3.144,3.686C37.518,18.608,39.088,14.641,39.669,16.531z"/>
	<path clip-path="url(#SVGID_2_)" fill="#AFCDFF" d="M17.465,4.393c0,0-4.028,2.325-6.386,0.928
		C8.722,3.927,3.597,1.892,3.597,1.892S-0.882,8.78-0.981,9.023c-0.102,0.248,5,8.509,5,8.509l8.712-1.074L17.465,4.393z"/>
	<path clip-path="url(#SVGID_2_)" fill="#E9EDFF" d="M24.078,15.035c0,0-6.146-1.197-10.787-1.354
		C8.65,13.524,0.142,12.285,0.142,12.285s-2.646,7.314-2.646,7.55c0,0.238,13.43,4.763,13.43,4.763l13.116-4.392L24.078,15.035z"/>
	
		<linearGradient id="SVGID_4_" gradientUnits="userSpaceOnUse" x1="328.7715" y1="-394.375" x2="328.7715" y2="-381.7285" gradientTransform="matrix(1 0 0 -1 -281.5996 -371.96)">
		<stop  offset="0" style="stop-color:#158CFF"/>
		<stop  offset="0.6989" style="stop-color:#FFFFFF"/>
	</linearGradient>
	<path clip-path="url(#SVGID_2_)" fill="url(#SVGID_4_)" d="M37.816,22.415c0,0,1.37-12.673,7.989-12.646
		c2.238,0.01,10.721,10.364,10.721,10.364L37.816,22.415z"/>
	<path clip-path="url(#SVGID_2_)" fill="#FFFFFF" d="M38.499,19.107c0,0,1.785-4.962-0.397-4.266
		c-1.48,0.473-3.162,3.838-3.162,3.838s-5.271,8.914-5.242,9.093c0.027,0.177,7.021,2.283,7.021,2.283l4.72-7.872L38.499,19.107z"/>
	<path clip-path="url(#SVGID_2_)" fill="#A4BAFF" d="M8.906,14.49c0.299,0.332,4.897-1.716,4.897-1.716s-0.64,1.798-0.042,3.294
		c0.597,1.496,3.137,1.414,4.183,0.831c1.046-0.582,1.494-2.161,3.585-0.915c0.798,0.476,1.41-3.795,2.425,1.494
		c0.561,2.92,2.206,1.414,2.206,1.414s2.644-0.684,2.792-1.432c0.15-0.748,0.231,0.629,1.202-0.119
		c0.972-0.748,0.151-1.516,0.296-2.278c1.668-8.765,4.7-10.483,4.7-10.483s1.563-1.754,8.875-1.756c3.307-0.001,6.557,0.667,5.656,0
		c-2.016-1.496-22.101-3.181-24.491,0.475c-2.391,3.656-4.25,6.063-4.25,6.063s-1.156,1.708-3.431,1.12
		c-1.985-0.513-2.928-0.562-4.496-0.645C11.446,9.754,9.205,9.338,8.607,9.92s-2.614,1.517-3.286,1.091
		c-0.672-0.426,1.964,0.726,1.74,2.056C6.837,14.396,8.607,14.157,8.906,14.49z"/>
	<path clip-path="url(#SVGID_2_)" fill="#E9EDFF" d="M29.065,11.254c0,0-0.3-4.417,5.056-4.104c1.895,0.11-18.24-0.938-18.24-0.938
		s-1.292,4.72-1.292,4.955c0,0.119,3.783-0.681,5.581,0.399c1.797,1.081,1.61,4.042,1.61,4.042l3.82-6.083l2.051-0.656
		L29.065,11.254z"/>
	<path clip-path="url(#SVGID_2_)" fill="#FFFFFF" d="M2.548,12.004c0,0-2.146,0.993-1.954,2.45c0.192,1.457,1.025,3.944,1.474,3.084
		c0.449-0.856,1.227-3.518,1.678-4.368c0.411-0.773,1.422-3.125,3.674-1.721c0.722,0.45,2.084,1.805,2.084,1.805
		s1.603-4.885,6.154-4.885c0,0-4.362,2.466-5.152,5.302c-1.283,4.607,4.019,5.729,4.019,5.729l3.304-1.979l-3.277,3.646L7.193,23.13
		c0,0,2.266-2.417,2.116-4.917C9.188,16.2,8.644,14.77,8.644,14.77s-1.692-3.583-3.548-1.183c-1.366,1.767-2.065,5.238-2.065,5.238
		l1.346,1.715l1.667,0.17l0.642,2.914c0,0-0.449,1.199-2.18-0.428c-1.73-1.631-1.987-2.315-1.987-2.315s-1.347,0.942-0.577,3.687
		c0.769,2.742-1.314,3.17-1.362,2.912c-0.048-0.257-1.362-4.883,0-6.599c1.362-1.713-0.369-1.713-1.395-5.569
		c-1.025-3.856-0.513-6.771,1.09-5.399C1.876,11.283,2.548,12.004,2.548,12.004z"/>
	<path clip-path="url(#SVGID_2_)" fill="#B3B3FF" d="M69.521,16.412c0,0,8.938-1.244,10.617-0.724s0.658-1.615,0.182-2.833
		c-0.941-2.405-0.781-1.742-2.924-1.693C71.958,11.287,74.208,12.849,69.521,16.412z"/>
	<path clip-path="url(#SVGID_2_)" fill="#FFFFFF" d="M16.693,8.798c-0.418,1.168-0.487,4.671,0.049,5.747
		c1.629,3.271,3.78,2.352,4.12,1.833c0.834-1.27,0.103-0.29,1.629-2.979c0.969-1.708,2.182-5.564,4.374-5.206
		c1.452,0.237,2.617,2.852,3.079,5.953c0.781,5.255,3.666,3.372,5.379,4.122c0.883,0.388-1.236,0.906-1.236,0.906
		s-4.292,1.202-4.911-4.317c-0.337-3.007-1.408-5.501-2.762-5.521c-2.135-0.031-4.388,6.763-4.388,6.763s-0.406,1.852-2.7,1.426
		c-4.832-0.896-3.521-7.167-3.521-7.167l-0.147-1.989L16.693,8.798z"/>
	<path clip-path="url(#SVGID_2_)" fill="#FFFFFF" d="M53.857,17.615c1.012-1.315,3.176-3.388,5.368-2.707
		c1.715,0.532,1.62,3.063,1.62,3.063s1.178,5.748-3.255,6.687c-4.299,0.91-4.256-5.66-4.256-5.66s1.804,2.949,3.655,2.804
		c1.748-0.137,3.346-2.585,3.346-2.585s0.264-4.507-2.905-3.57c-2.033,0.6-4.241,3.268-4.241,3.268L53.857,17.615z"/>
	<path clip-path="url(#SVGID_2_)" fill="#FFFFFF" d="M61.89,23.351c-0.98,2.029-2.428,3.709-3.591,4.059
		c-0.438,0.132-1.366,0.373-2.534-0.324c-1.106-0.659-1.791-2.283-1.791-2.283s0.045-0.091-0.673-1.521
		c-0.51-1.019,0.506-0.328,0.506-0.328s1.337,4.768,4.676,3.437c2.141-0.853,3.266-4.684,3.266-4.684L61.89,23.351z"/>
	<path clip-path="url(#SVGID_2_)" fill="#A089F4" d="M25.319,9.712"/>
	
		<linearGradient id="SVGID_5_" gradientUnits="userSpaceOnUse" x1="318.4121" y1="-406.1396" x2="318.4121" y2="-402.7949" gradientTransform="matrix(0.997 -0.0776 -0.0776 -0.997 -279.4337 -364.6107)">
		<stop  offset="0" style="stop-color:#158CFF"/>
		<stop  offset="0.6989" style="stop-color:#FFFFFF"/>
	</linearGradient>
	<path clip-path="url(#SVGID_2_)" fill="url(#SVGID_5_)" d="M66.604,15.312c0,0,0.85-3.042,2.516-3.026
		c1.668,0.015,3.316,3.091,3.316,3.091L66.604,15.312z"/>
</g>
</svg>
