<?xml version="1.0" encoding="utf-8"?>
<!-- Generator: Adobe Illustrator 16.0.0, SVG Export Plug-In . SVG Version: 6.00 Build 0)  -->
<!DOCTYPE svg PUBLIC "-//W3C//DTD SVG 1.0//EN" "http://www.w3.org/TR/2001/REC-SVG-20010904/DTD/svg10.dtd">
<svg version="1.0" id="图层_1" xmlns="http://www.w3.org/2000/svg" xmlns:xlink="http://www.w3.org/1999/xlink" x="0px" y="0px"
	 width="83.5px" height="32px" viewBox="0 0 83.5 32" enable-background="new 0 0 83.5 32" xml:space="preserve">
<g id="Selected_Items">
	<g>
		<g id="Selected_Items_64_">
			<linearGradient id="SVGID_1_" gradientUnits="userSpaceOnUse" x1="0" y1="16.1001" x2="83.1796" y2="16.1001">
				<stop  offset="0" style="stop-color:#FF2F7D"/>
				<stop  offset="1" style="stop-color:#FF8053"/>
			</linearGradient>
			<path fill="url(#SVGID_1_)" d="M78.1,3.5c0,0.1,0.102,0.2,0.2,0.3C78.4,4.1,78.5,4.5,78.7,5c0.1,0.5,0.2,1.1,0.3,1.6V8
				c0.1,0.1,0.2,0.2,0.2,0.3c0,0.2,0.1,0.3,0.2,0.5h0.3c0.2,0,0.3,0,0.399,0c0.101,0,0.101,0,0.301,0H82.8L82.9,9
				c0,0.1,0,0.3,0.1,0.4c0.1,0.2,0.2,0.4,0.2,0.6c0.1,0.3,0.1,0.5,0,0.7c-0.101,0.2-0.2,0.4-0.4,0.5c-0.3,0.1-0.6,0.2-0.899,0.2
				c-0.301,0.1-0.601,0.1-0.699,0.1c0,0-0.2,0-0.4,0.1c-0.199,0-0.3,0.1-0.398,0.1H80.1c-0.1,0-0.3,0-0.5-0.1c0,0.3,0,0.5-0.1,0.7
				c-0.1,0.3-0.2,0.4-0.6,0.5c-0.102,0-0.2,0-0.301,0c0,0.1-0.101,0.1-0.101,0.1h-0.101v0.7l-0.199,0.7H78c-0.3,0-0.7,0-1.3,0
				c-0.601,0-1.101-0.1-1.3-0.3c-0.102,0-0.2,0.1-0.301,0.2L75,14.5h-0.1c-0.301,0-0.5,0.1-0.801,0.3C73.9,15,73.7,15.1,73.7,15.3
				c0,0.1,0,0.3,0,0.6c0,0.3,0,0.7,0.1,1.2c0,0.5,0,1.102,0,1.801s0,1.399,0,2.101s0,1.3,0,1.899c0,0.601-0.1,1.101-0.1,1.5
				c-0.101,0.601-0.2,1-0.2,1.399c-0.1,0.3-0.2,0.601-0.3,0.8C73.1,26.8,73.1,26.9,73.1,27.1L73,27.2h-0.2c-0.2,0.1-0.6,0.1-1.2,0.1
				c-0.5,0-0.898-0.1-1.199-0.3v-0.1C70.3,26.8,70.2,26.7,70.1,26.5C70,26.4,69.9,26.2,69.9,25.9C69.8,25.5,69.8,25.2,69.8,25.1
				V24.9L69.6,24.8C69.7,23,69.8,21.6,69.9,20.4c0.1-1.102,0.1-2,0.199-2.7c0.101-0.7,0.101-1.2,0.199-1.5
				c0.102-0.3,0.102-0.5,0.102-0.6c-0.102,0-0.2,0-0.301-0.1s-0.101-0.2-0.301-0.3L69.6,14.9c-0.101,0-0.101-0.1-0.199-0.1
				c0-0.1-0.102-0.1-0.2-0.1c0-0.1-0.101-0.2-0.3-0.3c-0.2-0.1-0.301-0.2-0.4-0.2s-0.2,0-0.3-0.1c-0.101,0-0.101,0-0.101,0H68
				l-0.6,0.1c0,0-0.102,0-0.2-0.1c-0.101,0-0.101,0-0.2,0s-0.2,0-0.2,0s-0.1,0-0.2,0c-0.1,0-0.199,0-0.3,0
				c-0.1,0.1-0.3,0.1-0.399,0.1H63.3c0-0.1,0-0.2,0-0.4c0-0.1,0-0.3,0-0.4s0-0.2,0-0.3c-0.3,0.1-0.6,0.3-1.2,0.7
				c-0.5,0.3-0.898,0.4-1.1,0.4h-1.8c0.1,0.2,0.1,0.5,0.2,0.9c0.1,0.4,0.199,0.8,0.3,1.3c0.1,0.5,0.1,1.1,0.3,1.7
				c-0.1,0-0.2,0-0.3,0L59.2,18.4c0,0.1,0.1,0.398,0.2,1C59.6,20,59.8,20.8,60,21.7c0.2,0.899,0.4,2,0.6,3.1
				c0.2,1.2,0.5,2.4,0.801,3.5c0.101,0.601,0.301,1.2,0.399,1.8c0,0.102,0,0.2,0.101,0.301c-0.101,0-0.101,0-0.199,0
				c-0.102,0-0.2,0-0.301,0s-0.199,0-0.301,0c-0.1,0-0.1,0.101-0.199,0.101c-0.199,0-0.5,0-0.699,0c-0.102,0-0.2,0-0.301,0
				s-0.199,0-0.301,0c-0.1,0-0.1,0.101-0.199,0.101c-0.399,0-0.899,0-1.301,0c-0.1,0-0.199,0-0.3,0c-0.1,0-0.2,0-0.3,0
				S57.4,30.7,57.3,30.7c-0.2,0-0.5,0-0.7,0L56.4,29.8l0,0C56.1,28.4,55.8,27.2,55.5,25.9c-0.3-1.301-0.6-2.5-0.9-3.5
				C54.4,21.3,54.2,20.5,54,19.9c-0.2-0.602-0.3-1-0.3-1H53c-0.3,0-0.6,0-0.9,0c-0.199,0-0.398,0-0.6,0c-0.3,0-0.4,0.1-0.6,0.199
				C50.6,19.2,50.5,19.4,50.3,19.5C50.2,19.7,50,19.9,50,20c-0.1,0.1-0.1,0.3-0.3,0.4c-0.101,0.1-0.2,0.199-0.3,0.3
				c-0.102,0.1-0.5,0.2-1,0.2C47.8,21,47.1,21,46.5,21c-0.7,0-1.4,0-2.1,0c-0.602,0-1-0.1-1.2-0.2c-0.3-0.1-0.7-0.2-1.2-0.399
				s-0.8-0.399-1-0.601c-0.6,0.8-0.9,1.3-0.9,1.601c0.1,0.301,0.2,0.399,0.3,0.601c0.1,0.101,0.1,0.2,0.1,0.3h0.1l-0.5,0.5H40
				c-0.1,0-0.2,0-0.3,0c-0.1,0.102-0.2,0.301-0.4,0.602c-0.2,0.3-0.4,0.699-0.7,1.199c-0.2,0.5-0.4,0.899-0.6,1.301
				c-0.2,0.3-0.3,0.6-0.3,0.699V28c0.1,0.1,0.1,0.2-0.1,0.4C37.4,28.6,37,28.6,36.6,28.6c-0.2-0.1-0.5-0.199-1-0.5
				c-0.5-0.3-1-0.6-1.6-0.898s-1.1-0.602-1.5-0.9c-0.5-0.398-0.8-0.6-0.8-0.8c0-0.101,0-0.3,0.1-0.5c0.1-0.101,0.2-0.5,0.6-1
				c0.3-0.5,0.7-1.3,1.2-2.399c0.6-1,1.4-2.399,2.4-4.101c0-0.3-0.1-0.7-0.3-1.4c-0.1-0.7-0.6-1.1-1.5-1.4L32.4,14
				c-0.4-0.1-0.7-0.1-0.9-0.2C31.3,14,31,14,30.8,14c-0.3-0.1-0.6-0.1-0.9-0.1c-0.4-0.1-0.9-0.1-1.3-0.1c-0.5,0-0.9,0-1.3,0
				c-0.4,0-0.7,0-0.9,0.1L4.2,21.7H4.1c-0.1,0-0.2,0-0.5,0c-0.3,0.1-0.7,0.1-1,0.1c-0.3,0-0.7,0-1.1,0c-0.4-0.1-0.7-0.1-0.9-0.3
				c-0.2-0.2-0.3-0.4-0.3-0.6v-3c0-0.7,0-1.5,0-2.2c0-0.7-0.1-1.3-0.2-1.7v-2.1c0-0.3,0-0.6,0-0.9C0,10.7,0,10.4,0,10.2
				C0,10,0,9.7,0,9.3C0,9,0.2,8.7,0.6,8.6c0,0,0.3-0.1,0.9-0.1c0.5,0,1.1,0,1.8,0c0.7,0,1.4,0,2.2,0c0.7,0,1.3,0,5.8,0h15.6
				c-3.8-0.1-3.5-0.2-3.1-0.3C24.2,8.1,24.6,8,25,7.9s0.8-0.3,1.2-0.3c0.3-0.1,0.5-0.2,0.6-0.3l0.9-0.6c0.2-0.1,0.4-0.2,0.5-0.3
				c0.2,0,0.3-0.1,0.4-0.1C28.5,6,29.1,5.9,30,5.7c0.3,0,0.5,0,0.5-0.1c0.1,0,0.2,0,0.3-0.1c0.1-0.1,0.5-0.4,1.1-1
				c0.5-0.6,1-1.1,1.5-1.6c0.3-0.2,0.7-0.3,1.3-0.2c0.6,0.1,1,0.1,1.3,0.2c0.1,0,0.2,0,0.3,0c0.1,0,0.1,0,0.1,0c0.1,0,0.1,0,0.2,0
				C36.7,3,36.9,3.1,37,3.1h1l0.3,0.5v1.8h0.2v-1h2.2V3.8h1.2v0.6h0.8V3.8h1.1v0.6h0.8V3.8h1.2v0.6h0.9V3.8h1.1v0.6h0.9V3.8h1.2v0.6
				H50.8V3.8H52v0.6h0.7V3.8H54v0.6h0.7V3.8h1.2v0.6H57v1.1h15.7C73,5.3,73.3,5,73.8,4.6s0.8-0.7,0.9-0.9c0-0.3,0-0.5,0-0.6
				s0-0.2,0-0.3c0.1-0.3,0.2-0.5,0.3-0.7c0.1-0.2,0.3-0.4,0.6-0.4H75.9c0.3-0.1,0.5-0.2,0.8-0.2c0.2,0,0.399,0.2,0.6,0.5
				c0.3,0.4,0.5,0.8,0.601,1.2C78,3.2,78.1,3.4,78.1,3.5z M56.3,5H39.1v0.5h17.2V5z M42.6,19c0.2,0.2,0.5,0.3,0.801,0.3h4
				c0.301,0,0.5-0.1,0.899-0.3c0.2-0.2,0.3-0.4,0.3-0.6c0-0.4-0.1-0.801-0.3-1C48,17.2,47.7,17.1,47.4,17.1h-4
				C43.1,17.1,42.8,17.2,42.6,17.4C42.3,17.6,42.2,18,42.2,18.4C42.1,18.6,42.3,18.8,42.6,19z M20.2,12.8c0-0.7-0.3-1.1-1-1.1h-1.9
				c-0.3,0-0.5,0.1-0.6,0.3c-0.2,0.2-0.3,0.5-0.3,0.8c0,0.2,0.1,0.4,0.3,0.6c0.2,0.2,0.4,0.3,0.6,0.3h1.9c0.3,0,0.6-0.1,0.8-0.3
				C20.1,13.2,20.2,13.1,20.2,12.8z M5.9,11c-0.5-0.1-0.9-0.1-1.4-0.2c-0.5,0-0.8,0-1-0.1c0,0.4,0,0.9,0,1.5c0.1,0.7,0.1,1.3,0.2,2
				c0,0.7,0,1.3,0.1,2c0,0.6,0,1,0,1.2c0.1,0.1,0.4,0.3,0.9,0.5c0.5,0.199,1,0.3,1.5,0.3c0.3,0,0.8-0.101,1.4-0.3
				c0.5-0.2,1.1-0.4,1.7-0.602c0.6-0.3,1.1-0.5,1.7-0.8c0.5-0.3,0.9-0.5,1.2-0.6c0.2-0.2,0.3-0.5,0.3-0.8c0-0.3-0.1-0.8-0.3-1.3
				c-0.2-0.5-0.3-1-0.5-1.4c-0.2,0-0.6-0.1-1.2-0.2c-0.5-0.1-1.2-0.3-1.9-0.5c-0.3-0.1-0.8-0.2-1.3-0.3C6.9,11.1,6.4,11,5.9,11z"/>
		</g>
	</g>
</g>
<g>
	<defs>
		<path id="SVGID_2_" d="M78.1,3.5c0,0.1,0.102,0.2,0.2,0.3C78.4,4.1,78.5,4.5,78.7,5c0.1,0.5,0.2,1.1,0.3,1.6V8
			c0.1,0.1,0.2,0.2,0.2,0.3c0,0.2,0.1,0.3,0.2,0.5h0.3c0.2,0,0.3,0,0.399,0c0.101,0,0.101,0,0.301,0H82.8L82.9,9
			c0,0.1,0,0.3,0.1,0.4c0.1,0.2,0.2,0.4,0.2,0.6c0.1,0.3,0.1,0.5,0,0.7c-0.101,0.2-0.2,0.4-0.4,0.5c-0.3,0.1-0.6,0.2-0.899,0.2
			c-0.301,0.1-0.601,0.1-0.699,0.1c0,0-0.2,0-0.4,0.1c-0.199,0-0.3,0.1-0.398,0.1H80.1c-0.1,0-0.3,0-0.5-0.1c0,0.3,0,0.5-0.1,0.7
			c-0.1,0.3-0.2,0.4-0.6,0.5c-0.102,0-0.2,0-0.301,0c0,0.1-0.101,0.1-0.101,0.1h-0.101v0.7l-0.199,0.7H78c-0.3,0-0.7,0-1.3,0
			c-0.601,0-1.101-0.1-1.3-0.3c-0.102,0-0.2,0.1-0.301,0.2L75,14.5h-0.1c-0.301,0-0.5,0.1-0.801,0.3C73.9,15,73.7,15.1,73.7,15.3
			c0,0.1,0,0.3,0,0.6c0,0.3,0,0.7,0.1,1.2c0,0.5,0,1.102,0,1.801s0,1.399,0,2.101s0,1.3,0,1.899c0,0.601-0.1,1.101-0.1,1.5
			c-0.101,0.601-0.2,1-0.2,1.399c-0.1,0.3-0.2,0.601-0.3,0.8C73.1,26.8,73.1,26.9,73.1,27.1L73,27.2h-0.2c-0.2,0.1-0.6,0.1-1.2,0.1
			c-0.5,0-0.898-0.1-1.199-0.3v-0.1C70.3,26.8,70.2,26.7,70.1,26.5C70,26.4,69.9,26.2,69.9,25.9C69.8,25.5,69.8,25.2,69.8,25.1V24.9
			L69.6,24.8C69.7,23,69.8,21.6,69.9,20.4c0.1-1.102,0.1-2,0.199-2.7c0.101-0.7,0.101-1.2,0.199-1.5c0.102-0.3,0.102-0.5,0.102-0.6
			c-0.102,0-0.2,0-0.301-0.1s-0.101-0.2-0.301-0.3L69.6,14.9c-0.101,0-0.101-0.1-0.199-0.1c0-0.1-0.102-0.1-0.2-0.1
			c0-0.1-0.101-0.2-0.3-0.3c-0.2-0.1-0.301-0.2-0.4-0.2s-0.2,0-0.3-0.1c-0.101,0-0.101,0-0.101,0H68l-0.6,0.1c0,0-0.102,0-0.2-0.1
			c-0.101,0-0.101,0-0.2,0s-0.2,0-0.2,0s-0.1,0-0.2,0c-0.1,0-0.199,0-0.3,0c-0.1,0.1-0.3,0.1-0.399,0.1H63.3c0-0.1,0-0.2,0-0.4
			c0-0.1,0-0.3,0-0.4s0-0.2,0-0.3c-0.3,0.1-0.6,0.3-1.2,0.7c-0.5,0.3-0.898,0.4-1.1,0.4h-1.8c0.1,0.2,0.1,0.5,0.2,0.9
			c0.1,0.4,0.199,0.8,0.3,1.3c0.1,0.5,0.1,1.1,0.3,1.7c-0.1,0-0.2,0-0.3,0L59.2,18.4c0,0.1,0.1,0.398,0.2,1
			C59.6,20,59.8,20.8,60,21.7c0.2,0.899,0.4,2,0.6,3.1c0.2,1.2,0.5,2.4,0.801,3.5c0.101,0.601,0.301,1.2,0.399,1.8
			c0,0.102,0,0.2,0.101,0.301c-0.101,0-0.101,0-0.199,0c-0.102,0-0.2,0-0.301,0s-0.199,0-0.301,0c-0.1,0-0.1,0.101-0.199,0.101
			c-0.199,0-0.5,0-0.699,0c-0.102,0-0.2,0-0.301,0s-0.199,0-0.301,0c-0.1,0-0.1,0.101-0.199,0.101c-0.399,0-0.899,0-1.301,0
			c-0.1,0-0.199,0-0.3,0c-0.1,0-0.2,0-0.3,0S57.4,30.7,57.3,30.7c-0.2,0-0.5,0-0.7,0L56.4,29.8l0,0C56.1,28.4,55.8,27.2,55.5,25.9
			c-0.3-1.301-0.6-2.5-0.9-3.5C54.4,21.3,54.2,20.5,54,19.9c-0.2-0.602-0.3-1-0.3-1H53c-0.3,0-0.6,0-0.9,0c-0.199,0-0.398,0-0.6,0
			c-0.3,0-0.4,0.1-0.6,0.199C50.6,19.2,50.5,19.4,50.3,19.5C50.2,19.7,50,19.9,50,20c-0.1,0.1-0.1,0.3-0.3,0.4
			c-0.101,0.1-0.2,0.199-0.3,0.3c-0.102,0.1-0.5,0.2-1,0.2C47.8,21,47.1,21,46.5,21c-0.7,0-1.4,0-2.1,0c-0.602,0-1-0.1-1.2-0.2
			c-0.3-0.1-0.7-0.2-1.2-0.399s-0.8-0.399-1-0.601c-0.6,0.8-0.9,1.3-0.9,1.601c0.1,0.301,0.2,0.399,0.3,0.601
			c0.1,0.101,0.1,0.2,0.1,0.3h0.1l-0.5,0.5H40c-0.1,0-0.2,0-0.3,0c-0.1,0.102-0.2,0.301-0.4,0.602c-0.2,0.3-0.4,0.699-0.7,1.199
			c-0.2,0.5-0.4,0.899-0.6,1.301c-0.2,0.3-0.3,0.6-0.3,0.699V28c0.1,0.1,0.1,0.2-0.1,0.4C37.4,28.6,37,28.6,36.6,28.6
			c-0.2-0.1-0.5-0.199-1-0.5c-0.5-0.3-1-0.6-1.6-0.898s-1.1-0.602-1.5-0.9c-0.5-0.398-0.8-0.6-0.8-0.8c0-0.101,0-0.3,0.1-0.5
			c0.1-0.101,0.2-0.5,0.6-1c0.3-0.5,0.7-1.3,1.2-2.399c0.6-1,1.4-2.399,2.4-4.101c0-0.3-0.1-0.7-0.3-1.4c-0.1-0.7-0.6-1.1-1.5-1.4
			L32.4,14c-0.4-0.1-0.7-0.1-0.9-0.2C31.3,14,31,14,30.8,14c-0.3-0.1-0.6-0.1-0.9-0.1c-0.4-0.1-0.9-0.1-1.3-0.1c-0.5,0-0.9,0-1.3,0
			c-0.4,0-0.7,0-0.9,0.1L4.2,21.7H4.1c-0.1,0-0.2,0-0.5,0c-0.3,0.1-0.7,0.1-1,0.1c-0.3,0-0.7,0-1.1,0c-0.4-0.1-0.7-0.1-0.9-0.3
			c-0.2-0.2-0.3-0.4-0.3-0.6v-3c0-0.7,0-1.5,0-2.2c0-0.7-0.1-1.3-0.2-1.7v-2.1c0-0.3,0-0.6,0-0.9C0,10.7,0,10.4,0,10.2
			C0,10,0,9.7,0,9.3C0,9,0.2,8.7,0.6,8.6c0,0,0.3-0.1,0.9-0.1c0.5,0,1.1,0,1.8,0c0.7,0,1.4,0,2.2,0c0.7,0,1.3,0,5.8,0h15.6
			c-3.8-0.1-3.5-0.2-3.1-0.3C24.2,8.1,24.6,8,25,7.9s0.8-0.3,1.2-0.3c0.3-0.1,0.5-0.2,0.6-0.3l0.9-0.6c0.2-0.1,0.4-0.2,0.5-0.3
			c0.2,0,0.3-0.1,0.4-0.1C28.5,6,29.1,5.9,30,5.7c0.3,0,0.5,0,0.5-0.1c0.1,0,0.2,0,0.3-0.1c0.1-0.1,0.5-0.4,1.1-1
			c0.5-0.6,1-1.1,1.5-1.6c0.3-0.2,0.7-0.3,1.3-0.2c0.6,0.1,1,0.1,1.3,0.2c0.1,0,0.2,0,0.3,0c0.1,0,0.1,0,0.1,0c0.1,0,0.1,0,0.2,0
			C36.7,3,36.9,3.1,37,3.1h1l0.3,0.5v1.8h0.2v-1h2.2V3.8h1.2v0.6h0.8V3.8h1.1v0.6h0.8V3.8h1.2v0.6h0.9V3.8h1.1v0.6h0.9V3.8h1.2v0.6
			H50.8V3.8H52v0.6h0.7V3.8H54v0.6h0.7V3.8h1.2v0.6H57v1.1h15.7C73,5.3,73.3,5,73.8,4.6s0.8-0.7,0.9-0.9c0-0.3,0-0.5,0-0.6
			s0-0.2,0-0.3c0.1-0.3,0.2-0.5,0.3-0.7c0.1-0.2,0.3-0.4,0.6-0.4H75.9c0.3-0.1,0.5-0.2,0.8-0.2c0.2,0,0.399,0.2,0.6,0.5
			c0.3,0.4,0.5,0.8,0.601,1.2C78,3.2,78.1,3.4,78.1,3.5z M56.3,5H39.1v0.5h17.2V5z M42.6,19c0.2,0.2,0.5,0.3,0.801,0.3h4
			c0.301,0,0.5-0.1,0.899-0.3c0.2-0.2,0.3-0.4,0.3-0.6c0-0.4-0.1-0.801-0.3-1C48,17.2,47.7,17.1,47.4,17.1h-4
			C43.1,17.1,42.8,17.2,42.6,17.4C42.3,17.6,42.2,18,42.2,18.4C42.1,18.6,42.3,18.8,42.6,19z M20.2,12.8c0-0.7-0.3-1.1-1-1.1h-1.9
			c-0.3,0-0.5,0.1-0.6,0.3c-0.2,0.2-0.3,0.5-0.3,0.8c0,0.2,0.1,0.4,0.3,0.6c0.2,0.2,0.4,0.3,0.6,0.3h1.9c0.3,0,0.6-0.1,0.8-0.3
			C20.1,13.2,20.2,13.1,20.2,12.8z M5.9,11c-0.5-0.1-0.9-0.1-1.4-0.2c-0.5,0-0.8,0-1-0.1c0,0.4,0,0.9,0,1.5c0.1,0.7,0.1,1.3,0.2,2
			c0,0.7,0,1.3,0.1,2c0,0.6,0,1,0,1.2c0.1,0.1,0.4,0.3,0.9,0.5c0.5,0.199,1,0.3,1.5,0.3c0.3,0,0.8-0.101,1.4-0.3
			c0.5-0.2,1.1-0.4,1.7-0.602c0.6-0.3,1.1-0.5,1.7-0.8c0.5-0.3,0.9-0.5,1.2-0.6c0.2-0.2,0.3-0.5,0.3-0.8c0-0.3-0.1-0.8-0.3-1.3
			c-0.2-0.5-0.3-1-0.5-1.4c-0.2,0-0.6-0.1-1.2-0.2c-0.5-0.1-1.2-0.3-1.9-0.5c-0.3-0.1-0.8-0.2-1.3-0.3C6.9,11.1,6.4,11,5.9,11z"/>
	</defs>
	<clipPath id="SVGID_3_">
		<use xlink:href="#SVGID_2_"  overflow="visible"/>
	</clipPath>
	<g clip-path="url(#SVGID_3_)">
		<g>
			<g>
				
					<linearGradient id="SVGID_4_" gradientUnits="userSpaceOnUse" x1="379.8662" y1="-265.6328" x2="419.5953" y2="-255.1616" gradientTransform="matrix(1 0 0 -1 -374.96 -246.5996)">
					<stop  offset="2.054068e-007" style="stop-color:#FE6198"/>
					<stop  offset="1" style="stop-color:#FFC9D4"/>
				</linearGradient>
				<polygon fill="url(#SVGID_4_)" points="-7.467,23.699 -2.209,23.699 1.819,18.441 -3.439,18.441 				"/>
				
					<linearGradient id="SVGID_5_" gradientUnits="userSpaceOnUse" x1="379.1699" y1="-262.9902" x2="418.8896" y2="-252.5215" gradientTransform="matrix(1 0 0 -1 -374.96 -246.5996)">
					<stop  offset="2.054068e-007" style="stop-color:#FE6198"/>
					<stop  offset="1" style="stop-color:#FFC9D4"/>
				</linearGradient>
				<polygon fill="url(#SVGID_5_)" points="5.734,13.183 1.819,18.441 7.077,18.441 10.993,13.183 				"/>
				
					<linearGradient id="SVGID_6_" gradientUnits="userSpaceOnUse" x1="380.5498" y1="-268.2236" x2="420.2746" y2="-257.7535" gradientTransform="matrix(1 0 0 -1 -374.96 -246.5996)">
					<stop  offset="2.054068e-007" style="stop-color:#FE6198"/>
					<stop  offset="1" style="stop-color:#FFC9D4"/>
				</linearGradient>
				<polygon fill="url(#SVGID_6_)" points="3.049,23.699 8.308,23.699 12.335,18.441 7.077,18.441 				"/>
				
					<linearGradient id="SVGID_7_" gradientUnits="userSpaceOnUse" x1="379.8535" y1="-265.5825" x2="419.5792" y2="-255.1121" gradientTransform="matrix(1 0 0 -1 -374.96 -246.5996)">
					<stop  offset="2.054068e-007" style="stop-color:#FE6198"/>
					<stop  offset="1" style="stop-color:#FFC9D4"/>
				</linearGradient>
				<polygon fill="url(#SVGID_7_)" points="12.335,18.441 17.594,18.441 21.509,13.183 16.251,13.183 				"/>
				
					<linearGradient id="SVGID_8_" gradientUnits="userSpaceOnUse" x1="377.79" y1="-257.7559" x2="417.5198" y2="-247.2844" gradientTransform="matrix(1 0 0 -1 -374.96 -246.5996)">
					<stop  offset="2.054068e-007" style="stop-color:#FE6198"/>
					<stop  offset="1" style="stop-color:#FFC9D4"/>
				</linearGradient>
				<polygon fill="url(#SVGID_8_)" points="4.504,7.925 0.476,13.183 5.734,13.183 9.762,7.925 				"/>
				
					<linearGradient id="SVGID_9_" gradientUnits="userSpaceOnUse" x1="377.0918" y1="-255.1157" x2="416.8221" y2="-244.6442" gradientTransform="matrix(1 0 0 -1 -374.96 -246.5996)">
					<stop  offset="2.054068e-007" style="stop-color:#FE6198"/>
					<stop  offset="1" style="stop-color:#FFC9D4"/>
				</linearGradient>
				<polygon fill="url(#SVGID_9_)" points="18.936,2.667 13.678,2.667 9.762,7.925 15.02,7.925 				"/>
				
					<linearGradient id="SVGID_10_" gradientUnits="userSpaceOnUse" x1="378.4736" y1="-260.3486" x2="418.2006" y2="-249.878" gradientTransform="matrix(1 0 0 -1 -374.96 -246.5996)">
					<stop  offset="2.054068e-007" style="stop-color:#FE6198"/>
					<stop  offset="1" style="stop-color:#FFC9D4"/>
				</linearGradient>
				<polygon fill="url(#SVGID_10_)" points="16.251,13.183 20.278,7.925 15.02,7.925 10.993,13.183 				"/>
				
					<linearGradient id="SVGID_11_" gradientUnits="userSpaceOnUse" x1="377.7773" y1="-257.707" x2="417.503" y2="-247.2367" gradientTransform="matrix(1 0 0 -1 -374.96 -246.5996)">
					<stop  offset="2.054068e-007" style="stop-color:#FE6198"/>
					<stop  offset="1" style="stop-color:#FFC9D4"/>
				</linearGradient>
				<polygon fill="url(#SVGID_11_)" points="29.453,2.667 24.194,2.667 20.278,7.925 25.537,7.925 				"/>
				
					<linearGradient id="SVGID_12_" gradientUnits="userSpaceOnUse" x1="380.5361" y1="-268.1733" x2="420.2617" y2="-257.703" gradientTransform="matrix(1 0 0 -1 -374.96 -246.5996)">
					<stop  offset="2.054068e-007" style="stop-color:#FE6198"/>
					<stop  offset="1" style="stop-color:#FFC9D4"/>
				</linearGradient>
				<polygon fill="url(#SVGID_12_)" points="22.852,18.441 28.11,18.441 32.025,13.183 26.767,13.183 				"/>
				
					<linearGradient id="SVGID_13_" gradientUnits="userSpaceOnUse" x1="379.835" y1="-265.5181" x2="419.5622" y2="-255.0473" gradientTransform="matrix(1 0 0 -1 -374.96 -246.5996)">
					<stop  offset="2.054068e-007" style="stop-color:#FE6198"/>
					<stop  offset="1" style="stop-color:#FFC9D4"/>
				</linearGradient>
				<polygon fill="url(#SVGID_13_)" points="32.025,13.183 37.285,13.183 41.2,7.925 35.941,7.925 				"/>
				
					<linearGradient id="SVGID_14_" gradientUnits="userSpaceOnUse" x1="379.1543" y1="-262.9404" x2="418.8857" y2="-252.4687" gradientTransform="matrix(1 0 0 -1 -374.96 -246.5996)">
					<stop  offset="2.054068e-007" style="stop-color:#FE6198"/>
					<stop  offset="1" style="stop-color:#FFC9D4"/>
				</linearGradient>
				<polygon fill="url(#SVGID_14_)" points="25.537,7.925 21.509,13.183 26.767,13.183 30.684,7.925 				"/>
				
					<linearGradient id="SVGID_15_" gradientUnits="userSpaceOnUse" x1="378.4561" y1="-260.2847" x2="418.183" y2="-249.814" gradientTransform="matrix(1 0 0 -1 -374.96 -246.5996)">
					<stop  offset="2.054068e-007" style="stop-color:#FE6198"/>
					<stop  offset="1" style="stop-color:#FFC9D4"/>
				</linearGradient>
				<polygon fill="url(#SVGID_15_)" points="39.969,2.667 34.71,2.667 30.684,7.925 35.941,7.925 				"/>
				
					<linearGradient id="SVGID_16_" gradientUnits="userSpaceOnUse" x1="379.1367" y1="-262.876" x2="418.8648" y2="-252.405" gradientTransform="matrix(1 0 0 -1 -374.96 -246.5996)">
					<stop  offset="2.054068e-007" style="stop-color:#FE6198"/>
					<stop  offset="1" style="stop-color:#FFC9D4"/>
				</linearGradient>
				<polygon fill="url(#SVGID_16_)" points="45.228,2.667 41.2,7.925 46.458,7.925 50.485,2.667 				"/>
			</g>
		</g>
	</g>
</g>
</svg>
