<?xml version="1.0" encoding="utf-8"?>
<!-- Generator: Adobe Illustrator 16.0.0, SVG Export Plug-In . SVG Version: 6.00 Build 0)  -->
<!DOCTYPE svg PUBLIC "-//W3C//DTD SVG 1.0//EN" "http://www.w3.org/TR/2001/REC-SVG-20010904/DTD/svg10.dtd">
<svg version="1.0" id="Layer_1" xmlns="http://www.w3.org/2000/svg" xmlns:xlink="http://www.w3.org/1999/xlink" x="0px" y="0px"
	 width="39.8px" height="32px" viewBox="0 0 39.8 32" enable-background="new 0 0 39.8 32" xml:space="preserve">
<g id="Selected_Items">
	<g>
		<g id="Selected_Items_52_">
			<linearGradient id="SVGID_1_" gradientUnits="userSpaceOnUse" x1="1.6401" y1="16" x2="38.1792" y2="16">
				<stop  offset="0" style="stop-color:#FF2F7D"/>
				<stop  offset="1" style="stop-color:#FF8053"/>
			</linearGradient>
			<path fill="url(#SVGID_1_)" d="M38.201,7.9h-0.9v1.6L37.5,9.7v0.8L37.3,10.7l-0.1,1.5H27c-0.1,0-0.1,0-0.199,0.1
				c-0.1,0.1-0.301,0.3-0.399,0.5c-0.101,0.3-0.698,1.8-1.8,4.4c-0.2,0.3-0.301,0.399-0.398,0.5C24.1,17.8,23.9,17.8,23.5,17.8
				L18.9,18c-0.2-0.1-0.4-0.2-0.7-0.3c-0.5-0.2-0.9-0.3-1.2-0.4c-0.3-0.1-0.5-0.1-0.7-0.1c-0.1,0-0.3,0.1-0.7,0.1
				C15.3,17.4,15.1,17.4,14.8,17.4L14.5,17.3L12.2,26.9l0.1,1.1l0.5,0.7L3.2,28.6c0-0.6,0-1.3,0.1-2.199C3.5,24.6,3.8,22.9,4.1,21.3
				c0.4-1.6,1-3.2,1.6-4.6c0-0.101,0.2-0.5,0.6-1.3c0.2-0.4,0.3-0.7,0.3-0.8c0.1-0.4,0-0.6-0.2-0.8c-0.2-0.2-0.6-0.4-1.2-0.6
				c-0.6-0.2-1-0.3-1.2-0.4c-0.2-0.1-0.4-0.2-0.4-0.4c0-0.2,0-0.6,0-1l0.1-0.7L2,10.5c-0.1,0-0.2,0-0.3-0.1
				c-0.2-0.1-0.3-0.3-0.3-0.6C1.5,9.5,1.7,9.4,2,9.4c0.2,0,0.3,0,0.5,0l0.2-1.2L4,9l0.6-2.9l0.9-1.8V3.8l0.7,0.4h2.9l0.3,0.2h9.7
				v0.2H24.5V4.5h9.4V3.3h2.2l0.3,0.3v0.8h0.301L37,4.8v0.7h0.9 M24.4,12.2h-5.1c-0.5,0.5-0.9,0.9-1.1,1.1c-0.3,0.4-0.5,0.7-0.5,0.7
				c-0.2,0.3-0.3,0.7-0.4,1.1c0,0.2,0,0.5,0.1,0.9c0.1,0.2,0.1,0.3,0.2,0.4l-0.3,0.2c-0.1-0.2-0.3-0.5-0.4-0.8
				c-0.2-0.5-0.3-1-0.3-1.3c0.1-0.6,0.3-1.1,0.7-1.6c0.1-0.2,0.3-0.4,0.5-0.6c-0.2,0-0.4,0.1-0.7,0.2c-0.5,0.2-0.9,0.4-1.2,0.6
				c-0.3,0.4-0.5,0.7-0.6,1.2c-0.1,0.4-0.1,0.9,0.1,1.2c0.2,0.4,0.4,0.7,0.8,0.9c0.3,0.2,0.7,0.4,1.2,0.5c0.3,0,0.7,0,1.3,0
				c0.5,0,0.8,0,1,0.1c0.2,0.1,0.9,0.1,2.2,0.1c1.2,0,1.801-0.1,2-0.1c0.1-0.1,0.4-0.8,0.9-2l0.699-1.9c0-0.1,0-0.2,0-0.3
				c0-0.2,0-0.3-0.101-0.4s-0.3-0.2-0.5-0.3L24.4,12.2z"/>
		</g>
	</g>
</g>
<g>
	<defs>
		<path id="SVGID_2_" d="M38.201,7.9h-0.9v1.6L37.5,9.7v0.8L37.3,10.7l-0.1,1.5H27c-0.1,0-0.1,0-0.199,0.1
			c-0.1,0.1-0.301,0.3-0.399,0.5c-0.101,0.3-0.698,1.8-1.8,4.4c-0.2,0.3-0.301,0.399-0.398,0.5C24.1,17.8,23.9,17.8,23.5,17.8
			L18.9,18c-0.2-0.1-0.4-0.2-0.7-0.3c-0.5-0.2-0.9-0.3-1.2-0.4c-0.3-0.1-0.5-0.1-0.7-0.1c-0.1,0-0.3,0.1-0.7,0.1
			C15.3,17.4,15.1,17.4,14.8,17.4L14.5,17.3L12.2,26.9l0.1,1.1l0.5,0.7L3.2,28.6c0-0.6,0-1.3,0.1-2.199C3.5,24.6,3.8,22.9,4.1,21.3
			c0.4-1.6,1-3.2,1.6-4.6c0-0.101,0.2-0.5,0.6-1.3c0.2-0.4,0.3-0.7,0.3-0.8c0.1-0.4,0-0.6-0.2-0.8c-0.2-0.2-0.6-0.4-1.2-0.6
			c-0.6-0.2-1-0.3-1.2-0.4c-0.2-0.1-0.4-0.2-0.4-0.4c0-0.2,0-0.6,0-1l0.1-0.7L2,10.5c-0.1,0-0.2,0-0.3-0.1c-0.2-0.1-0.3-0.3-0.3-0.6
			C1.5,9.5,1.7,9.4,2,9.4c0.2,0,0.3,0,0.5,0l0.2-1.2L4,9l0.6-2.9l0.9-1.8V3.8l0.7,0.4h2.9l0.3,0.2h9.7v0.2H24.5V4.5h9.4V3.3h2.2
			l0.3,0.3v0.8h0.301L37,4.8v0.7h0.9 M24.4,12.2h-5.1c-0.5,0.5-0.9,0.9-1.1,1.1c-0.3,0.4-0.5,0.7-0.5,0.7c-0.2,0.3-0.3,0.7-0.4,1.1
			c0,0.2,0,0.5,0.1,0.9c0.1,0.2,0.1,0.3,0.2,0.4l-0.3,0.2c-0.1-0.2-0.3-0.5-0.4-0.8c-0.2-0.5-0.3-1-0.3-1.3c0.1-0.6,0.3-1.1,0.7-1.6
			c0.1-0.2,0.3-0.4,0.5-0.6c-0.2,0-0.4,0.1-0.7,0.2c-0.5,0.2-0.9,0.4-1.2,0.6c-0.3,0.4-0.5,0.7-0.6,1.2c-0.1,0.4-0.1,0.9,0.1,1.2
			c0.2,0.4,0.4,0.7,0.8,0.9c0.3,0.2,0.7,0.4,1.2,0.5c0.3,0,0.7,0,1.3,0c0.5,0,0.8,0,1,0.1c0.2,0.1,0.9,0.1,2.2,0.1
			c1.2,0,1.801-0.1,2-0.1c0.1-0.1,0.4-0.8,0.9-2l0.699-1.9c0-0.1,0-0.2,0-0.3c0-0.2,0-0.3-0.101-0.4s-0.3-0.2-0.5-0.3L24.4,12.2z"/>
	</defs>
	<clipPath id="SVGID_3_">
		<use xlink:href="#SVGID_2_"  overflow="visible"/>
	</clipPath>
	<g clip-path="url(#SVGID_3_)">
		<g>
			<g>
				
					<linearGradient id="SVGID_4_" gradientUnits="userSpaceOnUse" x1="379.2563" y1="-261.4883" x2="405.8565" y2="-254.4774" gradientTransform="matrix(1 0 0 -1 -374.96 -246.5996)">
					<stop  offset="2.054068e-007" style="stop-color:#FE6198"/>
					<stop  offset="1" style="stop-color:#FFC9D4"/>
				</linearGradient>
				<polygon fill="url(#SVGID_4_)" points="-3.987,18.013 -0.467,18.013 2.229,14.492 -1.291,14.492 				"/>
				
					<linearGradient id="SVGID_5_" gradientUnits="userSpaceOnUse" x1="378.7905" y1="-259.7192" x2="405.3818" y2="-252.7107" gradientTransform="matrix(1 0 0 -1 -374.96 -246.5996)">
					<stop  offset="2.054068e-007" style="stop-color:#FE6198"/>
					<stop  offset="1" style="stop-color:#FFC9D4"/>
				</linearGradient>
				<polygon fill="url(#SVGID_5_)" points="4.851,10.972 2.229,14.492 5.75,14.492 8.372,10.972 				"/>
				
					<linearGradient id="SVGID_6_" gradientUnits="userSpaceOnUse" x1="379.7144" y1="-263.2227" x2="406.3104" y2="-256.2128" gradientTransform="matrix(1 0 0 -1 -374.96 -246.5996)">
					<stop  offset="2.054068e-007" style="stop-color:#FE6198"/>
					<stop  offset="1" style="stop-color:#FFC9D4"/>
				</linearGradient>
				<polygon fill="url(#SVGID_6_)" points="3.054,18.013 6.574,18.013 9.271,14.492 5.75,14.492 				"/>
				
					<linearGradient id="SVGID_7_" gradientUnits="userSpaceOnUse" x1="379.2495" y1="-261.4541" x2="405.8422" y2="-254.4451" gradientTransform="matrix(1 0 0 -1 -374.96 -246.5996)">
					<stop  offset="2.054068e-007" style="stop-color:#FE6198"/>
					<stop  offset="1" style="stop-color:#FFC9D4"/>
				</linearGradient>
				<polygon fill="url(#SVGID_7_)" points="9.271,14.492 12.791,14.492 15.413,10.972 11.892,10.972 				"/>
				
					<linearGradient id="SVGID_8_" gradientUnits="userSpaceOnUse" x1="377.8677" y1="-256.2144" x2="404.4657" y2="-249.204" gradientTransform="matrix(1 0 0 -1 -374.96 -246.5996)">
					<stop  offset="2.054068e-007" style="stop-color:#FE6198"/>
					<stop  offset="1" style="stop-color:#FFC9D4"/>
				</linearGradient>
				<polygon fill="url(#SVGID_8_)" points="4.027,7.451 1.331,10.972 4.851,10.972 7.548,7.451 				"/>
				
					<linearGradient id="SVGID_9_" gradientUnits="userSpaceOnUse" x1="377.3999" y1="-254.4468" x2="403.9983" y2="-247.4364" gradientTransform="matrix(1 0 0 -1 -374.96 -246.5996)">
					<stop  offset="2.054068e-007" style="stop-color:#FE6198"/>
					<stop  offset="1" style="stop-color:#FFC9D4"/>
				</linearGradient>
				<polygon fill="url(#SVGID_9_)" points="13.689,3.931 10.169,3.931 7.548,7.451 11.068,7.451 				"/>
				
					<linearGradient id="SVGID_10_" gradientUnits="userSpaceOnUse" x1="378.3257" y1="-257.9502" x2="404.9206" y2="-250.9407" gradientTransform="matrix(1 0 0 -1 -374.96 -246.5996)">
					<stop  offset="2.054068e-007" style="stop-color:#FE6198"/>
					<stop  offset="1" style="stop-color:#FFC9D4"/>
				</linearGradient>
				<polygon fill="url(#SVGID_10_)" points="11.892,10.972 14.588,7.451 11.068,7.451 8.372,10.972 				"/>
				
					<linearGradient id="SVGID_11_" gradientUnits="userSpaceOnUse" x1="377.8569" y1="-256.1816" x2="404.4534" y2="-249.1717" gradientTransform="matrix(1 0 0 -1 -374.96 -246.5996)">
					<stop  offset="2.054068e-007" style="stop-color:#FE6198"/>
					<stop  offset="1" style="stop-color:#FFC9D4"/>
				</linearGradient>
				<polygon fill="url(#SVGID_11_)" points="20.731,3.931 17.21,3.931 14.588,7.451 18.109,7.451 				"/>
				
					<linearGradient id="SVGID_12_" gradientUnits="userSpaceOnUse" x1="379.7065" y1="-263.189" x2="406.3017" y2="-256.1794" gradientTransform="matrix(1 0 0 -1 -374.96 -246.5996)">
					<stop  offset="2.054068e-007" style="stop-color:#FE6198"/>
					<stop  offset="1" style="stop-color:#FFC9D4"/>
				</linearGradient>
				<polygon fill="url(#SVGID_12_)" points="16.311,14.492 19.832,14.492 22.453,10.972 18.933,10.972 				"/>
				
					<linearGradient id="SVGID_13_" gradientUnits="userSpaceOnUse" x1="379.2329" y1="-261.4116" x2="405.8342" y2="-254.4004" gradientTransform="matrix(1 0 0 -1 -374.96 -246.5996)">
					<stop  offset="2.054068e-007" style="stop-color:#FE6198"/>
					<stop  offset="1" style="stop-color:#FFC9D4"/>
				</linearGradient>
				<polygon fill="url(#SVGID_13_)" points="22.453,10.972 25.974,10.972 28.596,7.451 25.075,7.451 				"/>
				
					<linearGradient id="SVGID_14_" gradientUnits="userSpaceOnUse" x1="378.7817" y1="-259.6846" x2="405.3783" y2="-252.6747" gradientTransform="matrix(1 0 0 -1 -374.96 -246.5996)">
					<stop  offset="2.054068e-007" style="stop-color:#FE6198"/>
					<stop  offset="1" style="stop-color:#FFC9D4"/>
				</linearGradient>
				<polygon fill="url(#SVGID_14_)" points="18.109,7.451 15.413,10.972 18.933,10.972 21.554,7.451 				"/>
				
					<linearGradient id="SVGID_15_" gradientUnits="userSpaceOnUse" x1="378.314" y1="-257.9072" x2="404.9089" y2="-250.8977" gradientTransform="matrix(1 0 0 -1 -374.96 -246.5996)">
					<stop  offset="2.054068e-007" style="stop-color:#FE6198"/>
					<stop  offset="1" style="stop-color:#FFC9D4"/>
				</linearGradient>
				<polygon fill="url(#SVGID_15_)" points="27.771,3.931 24.251,3.931 21.554,7.451 25.075,7.451 				"/>
				
					<linearGradient id="SVGID_16_" gradientUnits="userSpaceOnUse" x1="378.772" y1="-259.6411" x2="405.3664" y2="-252.6317" gradientTransform="matrix(1 0 0 -1 -374.96 -246.5996)">
					<stop  offset="2.054068e-007" style="stop-color:#FE6198"/>
					<stop  offset="1" style="stop-color:#FFC9D4"/>
				</linearGradient>
				<polygon fill="url(#SVGID_16_)" points="31.292,3.931 28.596,7.451 32.116,7.451 34.812,3.931 				"/>
			</g>
		</g>
	</g>
</g>
</svg>
