<?xml version="1.0" encoding="utf-8"?>
<!-- Generator: Adobe Illustrator 16.0.0, SVG Export Plug-In . SVG Version: 6.00 Build 0)  -->
<!DOCTYPE svg PUBLIC "-//W3C//DTD SVG 1.0//EN" "http://www.w3.org/TR/2001/REC-SVG-20010904/DTD/svg10.dtd">
<svg version="1.0" id="图层_1" xmlns="http://www.w3.org/2000/svg" xmlns:xlink="http://www.w3.org/1999/xlink" x="0px" y="0px"
	 width="69.3px" height="32px" viewBox="0 0 69.3 32" enable-background="new 0 0 69.3 32" xml:space="preserve">
<g id="Selected_Items">
	<g>
		<g id="Selected_Items_52_">
			
				<linearGradient id="SVGID_1_" gradientUnits="userSpaceOnUse" x1="375.1392" y1="-262.7998" x2="443.919" y2="-262.7998" gradientTransform="matrix(1 0 0 -1 -374.96 -246.5996)">
				<stop  offset="0" style="stop-color:#8F00DB"/>
				<stop  offset="0.6452" style="stop-color:#77B9FF"/>
				<stop  offset="1" style="stop-color:#B6CAFF"/>
			</linearGradient>
			<path fill="url(#SVGID_1_)" d="M69,6.6c0,0.7,0,1.3-0.1,1.7c0,0.3-0.1,0.6-0.3,0.9C68.5,9.3,68.5,9.5,68.4,9.6H54.5L54.3,9.5
				L54,9.6H43.4l-0.3,0.2l-0.399-0.1h-4.5V8.8h-1.5V8.2h-0.9v1.6L36,9.9v0.8L35.8,10.9l-0.1,1.5H25.6c-0.1,0-0.1,0-0.2,0.1
				S25.1,12.8,25,13c-0.1,0.3-0.7,1.8-1.8,4.4c-0.2,0.3-0.3,0.399-0.4,0.5C22.7,18,22.5,18,22.1,18l-4.6,0.2
				c-0.2-0.101-0.4-0.2-0.7-0.3c-0.5-0.2-0.9-0.301-1.2-0.4c-0.3-0.1-0.6-0.1-0.7-0.1s-0.3,0.1-0.7,0.1c-0.3,0.1-0.5,0.1-0.8,0.1
				l-0.3-0.1l-2.3,9.6L10.7,28.2l0.5,0.7L1.6,28.8c0-0.6,0-1.3,0.1-2.2c0.2-1.8,0.5-3.5,0.8-5.1c0.4-1.6,1-3.2,1.6-4.6
				c0-0.101,0.2-0.5,0.6-1.3C4.9,15.2,5,14.9,5,14.8c0.1-0.4,0-0.6-0.2-0.8c-0.2-0.2-0.6-0.4-1.2-0.6c-0.6-0.2-1-0.3-1.2-0.4
				C2.2,12.9,2,12.8,2,12.6c0-0.2,0-0.6,0-1L2.4,11l-1.7-0.2c-0.1,0-0.2,0-0.3-0.1c-0.2-0.1-0.3-0.3-0.3-0.6
				c0.1-0.3,0.3-0.4,0.6-0.4c0.2,0,0.3,0,0.5,0l0.2-1.2l1.3,0.8l0.6-2.9l0.9-1.8V4L5,4.4h2.9l0.3,0.2h9.7v0.2h5.4V4.7h9.4V3.5h2.2
				l0.301,0.3v0.8H35.5L35.8,5v0.7h0.9V5.1H38V3.8H42.6L43,3.6l0.4,0.2h10.7h0.3l0.301-0.1H68.4L68.6,4c0.101,0.3,0.2,0.6,0.3,0.9
				C68.9,5.4,68.9,5.9,69,6.6z M23,12.5h-5.1c-0.5,0.5-0.9,0.9-1.1,1.1c-0.3,0.4-0.5,0.7-0.5,0.7c-0.2,0.3-0.3,0.7-0.4,1.1
				c0,0.2,0,0.5,0.1,0.9c0.1,0.2,0.1,0.3,0.2,0.4L15.9,17c-0.1-0.2-0.3-0.5-0.4-0.8c-0.2-0.5-0.3-1-0.3-1.3c0.1-0.6,0.3-1.1,0.7-1.6
				c0.1-0.2,0.3-0.4,0.5-0.6c-0.2,0-0.4,0.1-0.7,0.2c-0.5,0.2-0.9,0.4-1.2,0.6c-0.3,0.4-0.5,0.7-0.6,1.2c-0.1,0.4-0.1,0.9,0.1,1.2
				c0.2,0.4,0.4,0.7,0.8,0.9c0.3,0.2,0.7,0.4,1.2,0.5c0.3,0,0.7,0,1.3,0c0.5,0,0.8,0,1,0.101c0.2,0.1,0.9,0.1,2.2,0.1
				c1.2,0,1.8-0.1,2-0.1c0.1-0.101,0.4-0.801,0.9-2l0.7-1.9c0-0.1,0-0.2,0-0.3c0-0.2,0-0.3-0.1-0.4c-0.1-0.1-0.3-0.2-0.5-0.3H23z"/>
		</g>
	</g>
</g>
<linearGradient id="SVGID_2_" gradientUnits="userSpaceOnUse" x1="-127.04" y1="309.0859" x2="-122.2973" y2="309.0859" gradientTransform="matrix(6.6522 0 0 -6.6522 845.396 2072.5425)">
	<stop  offset="0" style="stop-color:#C216FF"/>
	<stop  offset="0.6452" style="stop-color:#77B9FF"/>
	<stop  offset="1" style="stop-color:#B6CAFF"/>
</linearGradient>
<path fill="url(#SVGID_2_)" fill-opacity="0.5" d="M1.9,28.9c0,0,6.4-4.2,9.8-9.9c0,0-2.8,2.3-6.6,2.4c0,0,8.5-5.2,9.4-8.5
	c0,0-4.9,1.8-6.5-0.7c0,0,8.8-3.1,13.6-0.2c0,0-1.6-3.7-7.7-3.7c0,0,13.3-2.2,18,1c0,0-2.3-4.2-13.6-4.2H14L13.4,5l-1.6-0.2H10H7.6
	L4.6,4L4.4,5l-1,1.3L2.9,9.6L1.5,8.7L1.3,9.9L0.7,9.7l-0.4,0.4l0.1,0.7L2.5,11l-0.2,1.8l3.2,1.7L3,21.1L1.9,28.9z"/>
</svg>
