<?xml version="1.0" encoding="utf-8"?>
<!-- Generator: Adobe Illustrator 16.0.0, SVG Export Plug-In . SVG Version: 6.00 Build 0)  -->
<!DOCTYPE svg PUBLIC "-//W3C//DTD SVG 1.0//EN" "http://www.w3.org/TR/2001/REC-SVG-20010904/DTD/svg10.dtd">
<svg version="1.0" id="图层_1" xmlns="http://www.w3.org/2000/svg" xmlns:xlink="http://www.w3.org/1999/xlink" x="0px" y="0px"
	 width="69.3px" height="32px" viewBox="0 0 69.3 32" enable-background="new 0 0 69.3 32" xml:space="preserve">
<path opacity="0.7" fill="#CE0B4C" enable-background="new    " d="M36.451,8.622c0,0-4.298,0.8-7.699,5.6c0,0,2.9,1.3,1.9,2.101
	s-5.4-0.399-13,7.199c0,0,3.1-1.398,7.299-1.699c4.201-0.301-1.1,2.5-2.299,3.199c0,0,7.799-3.898,10-3.6
	c2.199,0.299-7.801,6-12.1,8c0,0,13.1-4.3,14.6-4.1c1.5,0.199-0.801,2.6-4.4,4.1c0,0,7.5,0,12.5-2.3s6-2.601,6-1.3
	c0,0,4.398-2.801,3.1-3.801s3.301-2.301,6.4-4.601s4.398-3.8,4.398-3.8s-7.498,3.301-9.799,3.4c-2.299,0.101,1.5-3.1,5.6-4.899
	c4.102-1.8,5.4-5.1,5.4-5.1s-5.6,0.2-12.799,3.8c-7.201,3.6-8,4.8-7.4,2.6s7.199-5.3,7.199-5.3s-9.199,0.2-13.4,3.5
	c-4.199,3.3-3-0.8-2.1-1.6C36.751,9.222,36.451,8.622,36.451,8.622z"/>
<g id="Selected_Items">
	<g>
		<g id="Selected_Items_52_">
			
				<linearGradient id="SVGID_1_" gradientUnits="userSpaceOnUse" x1="375.1392" y1="-262.7998" x2="443.9185" y2="-262.7998" gradientTransform="matrix(1 0 0 -1 -374.96 -246.5996)">
				<stop  offset="0" style="stop-color:#FF2F7D"/>
				<stop  offset="1" style="stop-color:#FF8053"/>
			</linearGradient>
			<path fill="url(#SVGID_1_)" d="M69,6.6c0,0.7,0,1.3-0.1,1.7c0,0.3-0.1,0.6-0.3,0.9C68.5,9.3,68.5,9.5,68.4,9.6H54.5L54.3,9.5
				L54,9.6H43.4l-0.3,0.2l-0.399-0.1h-4.5V8.8h-1.5V8.2h-0.9v1.6L36,9.9v0.8L35.8,10.9l-0.1,1.5H25.6c-0.1,0-0.1,0-0.2,0.1
				S25.1,12.8,25,13c-0.1,0.3-0.7,1.8-1.8,4.4c-0.2,0.3-0.3,0.397-0.4,0.5C22.7,18,22.5,18,22.1,18l-4.6,0.2
				c-0.2-0.101-0.4-0.2-0.7-0.3c-0.5-0.2-0.9-0.301-1.2-0.4c-0.3-0.1-0.6-0.1-0.7-0.1s-0.3,0.1-0.7,0.1c-0.3,0.1-0.5,0.1-0.8,0.1
				l-0.3-0.1l-2.3,9.6L10.7,28.2l0.5,0.7L1.6,28.8c0-0.6,0-1.3,0.1-2.2c0.2-1.8,0.5-3.5,0.8-5.1c0.4-1.6,1-3.2,1.6-4.6
				c0-0.103,0.2-0.5,0.6-1.3C4.9,15.2,5,14.9,5,14.8c0.1-0.4,0-0.6-0.2-0.8c-0.2-0.2-0.6-0.4-1.2-0.6c-0.6-0.2-1-0.3-1.2-0.4
				C2.2,12.9,2,12.8,2,12.6c0-0.2,0-0.6,0-1L2.4,11l-1.7-0.2c-0.1,0-0.2,0-0.3-0.1c-0.2-0.1-0.3-0.3-0.3-0.6
				c0.1-0.3,0.3-0.4,0.6-0.4c0.2,0,0.3,0,0.5,0l0.2-1.2l1.3,0.8l0.6-2.9l0.9-1.8V4L5,4.4h2.9l0.3,0.2h9.7v0.2h5.4V4.7h9.4V3.5h2.2
				l0.301,0.3v0.8H35.5L35.8,5v0.7h0.9V5.1H38V3.8H42.6L43,3.6l0.4,0.2h10.7h0.3l0.301-0.1H68.4L68.6,4c0.101,0.3,0.2,0.6,0.3,0.9
				C68.9,5.4,68.9,5.9,69,6.6z M23,12.5h-5.1c-0.5,0.5-0.9,0.9-1.1,1.1c-0.3,0.4-0.5,0.7-0.5,0.7c-0.2,0.3-0.3,0.7-0.4,1.1
				c0,0.2,0,0.5,0.1,0.9c0.1,0.2,0.1,0.3,0.2,0.4L15.9,17c-0.1-0.2-0.3-0.5-0.4-0.8c-0.2-0.5-0.3-1-0.3-1.3c0.1-0.6,0.3-1.1,0.7-1.6
				c0.1-0.2,0.3-0.4,0.5-0.6c-0.2,0-0.4,0.1-0.7,0.2c-0.5,0.2-0.9,0.4-1.2,0.6c-0.3,0.4-0.5,0.7-0.6,1.2c-0.1,0.4-0.1,0.9,0.1,1.2
				c0.2,0.4,0.4,0.7,0.8,0.9c0.3,0.2,0.7,0.4,1.2,0.5c0.3,0,0.7,0,1.3,0c0.5,0,0.8,0,1,0.101c0.2,0.102,0.9,0.102,2.2,0.102
				c1.2,0,1.8-0.102,2-0.102c0.1-0.101,0.4-0.801,0.9-2l0.7-1.9c0-0.1,0-0.2,0-0.3c0-0.2,0-0.3-0.1-0.4c-0.1-0.1-0.3-0.2-0.5-0.3
				L23,12.5L23,12.5z"/>
		</g>
	</g>
</g>
<g>
	<g>
		<defs>
			<path id="SVGID_2_" d="M69,6.6c0,0.7,0,1.3-0.1,1.7c0,0.3-0.1,0.6-0.3,0.9C68.5,9.3,68.5,9.5,68.4,9.6H54.5L54.3,9.5L54,9.6H43.4
				l-0.3,0.2l-0.399-0.1h-4.5V8.8h-1.5V8.2h-0.9v1.6L36,9.9v0.8L35.8,10.9l-0.1,1.5H25.6c-0.1,0-0.1,0-0.2,0.1S25.1,12.8,25,13
				c-0.1,0.3-0.7,1.8-1.8,4.4c-0.2,0.3-0.3,0.397-0.4,0.5C22.7,18,22.5,18,22.1,18l-4.6,0.2c-0.2-0.101-0.4-0.2-0.7-0.3
				c-0.5-0.2-0.9-0.301-1.2-0.4c-0.3-0.1-0.6-0.1-0.7-0.1s-0.3,0.1-0.7,0.1c-0.3,0.1-0.5,0.1-0.8,0.1l-0.3-0.1l-2.3,9.6L10.7,28.2
				l0.5,0.7L1.6,28.8c0-0.6,0-1.3,0.1-2.2c0.2-1.8,0.5-3.5,0.8-5.1c0.4-1.6,1-3.2,1.6-4.6c0-0.103,0.2-0.5,0.6-1.3
				C4.9,15.2,5,14.9,5,14.8c0.1-0.4,0-0.6-0.2-0.8c-0.2-0.2-0.6-0.4-1.2-0.6c-0.6-0.2-1-0.3-1.2-0.4C2.2,12.9,2,12.8,2,12.6
				c0-0.2,0-0.6,0-1L2.4,11l-1.7-0.2c-0.1,0-0.2,0-0.3-0.1c-0.2-0.1-0.3-0.3-0.3-0.6c0.1-0.3,0.3-0.4,0.6-0.4c0.2,0,0.3,0,0.5,0
				l0.2-1.2l1.3,0.8l0.6-2.9l0.9-1.8V4L5,4.4h2.9l0.3,0.2h9.7v0.2h5.4V4.7h9.4V3.5h2.2l0.301,0.3v0.8H35.5L35.8,5v0.7h0.9V5.1H38
				V3.8H42.6L43,3.6l0.4,0.2h10.7h0.3l0.301-0.1H68.4L68.6,4c0.101,0.3,0.2,0.6,0.3,0.9C68.9,5.4,68.9,5.9,69,6.6z M23,12.5h-5.1
				c-0.5,0.5-0.9,0.9-1.1,1.1c-0.3,0.4-0.5,0.7-0.5,0.7c-0.2,0.3-0.3,0.7-0.4,1.1c0,0.2,0,0.5,0.1,0.9c0.1,0.2,0.1,0.3,0.2,0.4
				L15.9,17c-0.1-0.2-0.3-0.5-0.4-0.8c-0.2-0.5-0.3-1-0.3-1.3c0.1-0.6,0.3-1.1,0.7-1.6c0.1-0.2,0.3-0.4,0.5-0.6
				c-0.2,0-0.4,0.1-0.7,0.2c-0.5,0.2-0.9,0.4-1.2,0.6c-0.3,0.4-0.5,0.7-0.6,1.2c-0.1,0.4-0.1,0.9,0.1,1.2c0.2,0.4,0.4,0.7,0.8,0.9
				c0.3,0.2,0.7,0.4,1.2,0.5c0.3,0,0.7,0,1.3,0c0.5,0,0.8,0,1,0.101c0.2,0.102,0.9,0.102,2.2,0.102c1.2,0,1.8-0.102,2-0.102
				c0.1-0.101,0.4-0.801,0.9-2l0.7-1.9c0-0.1,0-0.2,0-0.3c0-0.2,0-0.3-0.1-0.4c-0.1-0.1-0.3-0.2-0.5-0.3L23,12.5L23,12.5z"/>
		</defs>
		<clipPath id="SVGID_3_">
			<use xlink:href="#SVGID_2_"  overflow="visible"/>
		</clipPath>
		<g clip-path="url(#SVGID_3_)">
			<g>
				<g>
					
						<linearGradient id="SVGID_4_" gradientUnits="userSpaceOnUse" x1="753.5591" y1="578.4658" x2="785.4736" y2="570.0543" gradientTransform="matrix(1 0 0 1 -749.9199 -562.1992)">
						<stop  offset="2.054068e-007" style="stop-color:#FE6198"/>
						<stop  offset="1" style="stop-color:#FFC9D4"/>
					</linearGradient>
					<polygon fill="url(#SVGID_4_)" points="-6.3,20.014 -2.077,20.014 1.159,15.789 -3.065,15.789 					"/>
					
						<linearGradient id="SVGID_5_" gradientUnits="userSpaceOnUse" x1="753.0005" y1="576.3418" x2="784.9061" y2="567.9326" gradientTransform="matrix(1 0 0 1 -749.9199 -562.1992)">
						<stop  offset="2.054068e-007" style="stop-color:#FE6198"/>
						<stop  offset="1" style="stop-color:#FFC9D4"/>
					</linearGradient>
					<polygon fill="url(#SVGID_5_)" points="4.304,11.565 1.159,15.789 5.383,15.789 8.528,11.565 					"/>
					
						<linearGradient id="SVGID_6_" gradientUnits="userSpaceOnUse" x1="754.1079" y1="580.5459" x2="786.0201" y2="572.1349" gradientTransform="matrix(1 0 0 1 -749.9199 -562.1992)">
						<stop  offset="2.054068e-007" style="stop-color:#FE6198"/>
						<stop  offset="1" style="stop-color:#FFC9D4"/>
					</linearGradient>
					<polygon fill="url(#SVGID_6_)" points="2.147,20.014 6.371,20.014 9.606,15.789 5.383,15.789 					"/>
					
						<linearGradient id="SVGID_7_" gradientUnits="userSpaceOnUse" x1="753.5483" y1="578.4229" x2="785.4576" y2="570.0126" gradientTransform="matrix(1 0 0 1 -749.9199 -562.1992)">
						<stop  offset="2.054068e-007" style="stop-color:#FE6198"/>
						<stop  offset="1" style="stop-color:#FFC9D4"/>
					</linearGradient>
					<polygon fill="url(#SVGID_7_)" points="9.606,15.789 13.83,15.789 16.975,11.565 12.751,11.565 					"/>
					
						<linearGradient id="SVGID_8_" gradientUnits="userSpaceOnUse" x1="751.8921" y1="572.1377" x2="783.8022" y2="563.7273" gradientTransform="matrix(1 0 0 1 -749.9199 -562.1992)">
						<stop  offset="2.054068e-007" style="stop-color:#FE6198"/>
						<stop  offset="1" style="stop-color:#FFC9D4"/>
					</linearGradient>
					<polygon fill="url(#SVGID_8_)" points="3.315,7.342 0.08,11.565 4.304,11.565 7.539,7.342 					"/>
					
						<linearGradient id="SVGID_9_" gradientUnits="userSpaceOnUse" x1="751.3315" y1="570.0156" x2="783.2419" y2="561.6051" gradientTransform="matrix(1 0 0 1 -749.9199 -562.1992)">
						<stop  offset="2.054068e-007" style="stop-color:#FE6198"/>
						<stop  offset="1" style="stop-color:#FFC9D4"/>
					</linearGradient>
					<polygon fill="url(#SVGID_9_)" points="14.908,3.118 10.685,3.118 7.539,7.342 11.763,7.342 					"/>
					
						<linearGradient id="SVGID_10_" gradientUnits="userSpaceOnUse" x1="752.4399" y1="574.2188" x2="784.3508" y2="565.8081" gradientTransform="matrix(1 0 0 1 -749.9199 -562.1992)">
						<stop  offset="2.054068e-007" style="stop-color:#FE6198"/>
						<stop  offset="1" style="stop-color:#FFC9D4"/>
					</linearGradient>
					<polygon fill="url(#SVGID_10_)" points="12.751,11.565 15.986,7.342 11.763,7.342 8.528,11.565 					"/>
					
						<linearGradient id="SVGID_11_" gradientUnits="userSpaceOnUse" x1="751.8794" y1="572.0986" x2="783.7906" y2="563.6879" gradientTransform="matrix(1 0 0 1 -749.9199 -562.1992)">
						<stop  offset="2.054068e-007" style="stop-color:#FE6198"/>
						<stop  offset="1" style="stop-color:#FFC9D4"/>
					</linearGradient>
					<polygon fill="url(#SVGID_11_)" points="23.356,3.118 19.132,3.118 15.986,7.342 20.21,7.342 					"/>
					
						<linearGradient id="SVGID_12_" gradientUnits="userSpaceOnUse" x1="754.0962" y1="580.5059" x2="786.0066" y2="572.0953" gradientTransform="matrix(1 0 0 1 -749.9199 -562.1992)">
						<stop  offset="2.054068e-007" style="stop-color:#FE6198"/>
						<stop  offset="1" style="stop-color:#FFC9D4"/>
					</linearGradient>
					<polygon fill="url(#SVGID_12_)" points="18.053,15.789 22.277,15.789 25.422,11.565 21.198,11.565 					"/>
					
						<linearGradient id="SVGID_13_" gradientUnits="userSpaceOnUse" x1="753.5347" y1="578.3721" x2="785.4451" y2="569.9615" gradientTransform="matrix(1 0 0 1 -749.9199 -562.1992)">
						<stop  offset="2.054068e-007" style="stop-color:#FE6198"/>
						<stop  offset="1" style="stop-color:#FFC9D4"/>
					</linearGradient>
					<polygon fill="url(#SVGID_13_)" points="25.422,11.565 29.646,11.565 32.792,7.342 28.567,7.342 					"/>
					
						<linearGradient id="SVGID_14_" gradientUnits="userSpaceOnUse" x1="752.9878" y1="576.3008" x2="784.8999" y2="567.8898" gradientTransform="matrix(1 0 0 1 -749.9199 -562.1992)">
						<stop  offset="2.054068e-007" style="stop-color:#FE6198"/>
						<stop  offset="1" style="stop-color:#FFC9D4"/>
					</linearGradient>
					<polygon fill="url(#SVGID_14_)" points="20.21,7.342 16.975,11.565 21.198,11.565 24.344,7.342 					"/>
					
						<linearGradient id="SVGID_15_" gradientUnits="userSpaceOnUse" x1="752.4292" y1="574.168" x2="784.3364" y2="565.7582" gradientTransform="matrix(1 0 0 1 -749.9199 -562.1992)">
						<stop  offset="2.054068e-007" style="stop-color:#FE6198"/>
						<stop  offset="1" style="stop-color:#FFC9D4"/>
					</linearGradient>
					<polygon fill="url(#SVGID_15_)" points="31.803,3.118 27.579,3.118 24.344,7.342 28.567,7.342 					"/>
					
						<linearGradient id="SVGID_16_" gradientUnits="userSpaceOnUse" x1="752.9771" y1="576.25" x2="784.8862" y2="567.8398" gradientTransform="matrix(1 0 0 1 -749.9199 -562.1992)">
						<stop  offset="2.054068e-007" style="stop-color:#FE6198"/>
						<stop  offset="1" style="stop-color:#FFC9D4"/>
					</linearGradient>
					<polygon fill="url(#SVGID_16_)" points="36.027,3.118 32.792,7.342 37.015,7.342 40.25,3.118 					"/>
				</g>
			</g>
		</g>
	</g>
</g>
<g>
	<path fill="#FFF0F4" d="M30.505,20.084l-1.3,2.8h-2.7l6.2-12.3h3l1.801,12.3h-2.6l-0.301-2.8H30.505z M33.804,13.184l-2.099,4.5
		h2.599L33.804,13.184z"/>
	<path fill="#FFF0F4" d="M41.304,22.884c-0.699,0-1.299-0.2-1.699-0.7c-0.398-0.5-0.5-1.1-0.398-1.8l1.398-7.6
		c0.102-0.7,0.4-1.3,1-1.7c0.5-0.4,1.102-0.6,1.9-0.6h4c0.699,0,1.299,0.2,1.699,0.7s0.5,1.1,0.4,1.8l-0.301,1.9h-2.6l0.299-1.6
		c0-0.2,0-0.3,0-0.4c-0.1-0.1-0.199-0.1-0.398-0.1h-2.699c-0.4,0-0.701,0.2-0.801,0.7l-1.199,6.6c0,0.2,0,0.3,0,0.4
		c0.1,0.1,0.199,0.1,0.398,0.1h2.701c0.4,0,0.699-0.2,0.799-0.7l0.201-1.399h2.6l-0.5,2.1c-0.1,0.7-0.398,1.3-1,1.7
		c-0.5,0.399-1.1,0.6-1.9,0.6H41.304z"/>
	<path fill="#FFF0F4" d="M60.205,10.584l-0.4,2.3h-5.699l-0.5,2.5h4.6l-0.4,2.3h-4.6l-0.5,2.801h5.701l-0.4,2.3h-8.201l2.201-12.2
		H60.205z"/>
</g>
</svg>
