<?xml version="1.0" encoding="utf-8"?>
<!-- Generator: Adobe Illustrator 16.0.0, SVG Export Plug-In . SVG Version: 6.00 Build 0)  -->
<!DOCTYPE svg PUBLIC "-//W3C//DTD SVG 1.0//EN" "http://www.w3.org/TR/2001/REC-SVG-20010904/DTD/svg10.dtd">
<svg version="1.0" id="图层_1" xmlns="http://www.w3.org/2000/svg" xmlns:xlink="http://www.w3.org/1999/xlink" x="0px" y="0px"
	 width="69.3px" height="32px" viewBox="0 0 69.3 32" enable-background="new 0 0 69.3 32" xml:space="preserve">
<g id="Selected_Items">
	<g>
		<g id="Selected_Items_52_">
			<linearGradient id="SVGID_1_" gradientUnits="userSpaceOnUse" x1="0.1792" y1="16.2002" x2="68.959" y2="16.2002">
				<stop  offset="0" style="stop-color:#FF2F7D"/>
				<stop  offset="1" style="stop-color:#FF8053"/>
			</linearGradient>
			<path fill="url(#SVGID_1_)" d="M69,6.6c0,0.7,0,1.3-0.1,1.7c0,0.3-0.1,0.6-0.3,0.9C68.5,9.3,68.5,9.5,68.4,9.6H54.5L54.3,9.5
				L54,9.6H43.4l-0.3,0.2l-0.399-0.1h-4.5V8.8h-1.5V8.2h-0.9v1.6L36,9.9v0.8L35.8,10.9l-0.1,1.5H25.6c-0.1,0-0.1,0-0.2,0.1
				S25.1,12.8,25,13c-0.1,0.3-0.7,1.8-1.8,4.4c-0.2,0.3-0.3,0.398-0.4,0.5C22.7,18,22.5,18,22.1,18l-4.6,0.2
				c-0.2-0.101-0.4-0.2-0.7-0.3c-0.5-0.2-0.9-0.301-1.2-0.4c-0.3-0.1-0.6-0.1-0.7-0.1s-0.3,0.1-0.7,0.1c-0.3,0.1-0.5,0.1-0.8,0.1
				l-0.3-0.1l-2.3,9.6L10.7,28.2l0.5,0.7L1.6,28.8c0-0.6,0-1.3,0.1-2.2c0.2-1.8,0.5-3.5,0.8-5.1c0.4-1.6,1-3.2,1.6-4.6
				c0-0.102,0.2-0.5,0.6-1.3C4.9,15.2,5,14.9,5,14.8c0.1-0.4,0-0.6-0.2-0.8c-0.2-0.2-0.6-0.4-1.2-0.6c-0.6-0.2-1-0.3-1.2-0.4
				C2.2,12.9,2,12.8,2,12.6c0-0.2,0-0.6,0-1L2.4,11l-1.7-0.2c-0.1,0-0.2,0-0.3-0.1c-0.2-0.1-0.3-0.3-0.3-0.6
				c0.1-0.3,0.3-0.4,0.6-0.4c0.2,0,0.3,0,0.5,0l0.2-1.2l1.3,0.8l0.6-2.9l0.9-1.8V4L5,4.4h2.9l0.3,0.2h9.7v0.2h5.4V4.7h9.4V3.5h2.2
				l0.301,0.3v0.8H35.5L35.8,5v0.7h0.9V5.1H38V3.8H42.6L43,3.6l0.4,0.2h10.7h0.3l0.301-0.1H68.4L68.6,4c0.101,0.3,0.2,0.6,0.3,0.9
				C68.9,5.4,68.9,5.9,69,6.6z M23,12.5h-5.1c-0.5,0.5-0.9,0.9-1.1,1.1c-0.3,0.4-0.5,0.7-0.5,0.7c-0.2,0.3-0.3,0.7-0.4,1.1
				c0,0.2,0,0.5,0.1,0.9c0.1,0.2,0.1,0.3,0.2,0.4L15.9,17c-0.1-0.2-0.3-0.5-0.4-0.8c-0.2-0.5-0.3-1-0.3-1.3c0.1-0.6,0.3-1.1,0.7-1.6
				c0.1-0.2,0.3-0.4,0.5-0.6c-0.2,0-0.4,0.1-0.7,0.2c-0.5,0.2-0.9,0.4-1.2,0.6c-0.3,0.4-0.5,0.7-0.6,1.2c-0.1,0.4-0.1,0.9,0.1,1.2
				c0.2,0.4,0.4,0.7,0.8,0.9c0.3,0.2,0.7,0.4,1.2,0.5c0.3,0,0.7,0,1.3,0c0.5,0,0.8,0,1,0.101c0.2,0.101,0.9,0.101,2.2,0.101
				c1.2,0,1.8-0.101,2-0.101c0.1-0.101,0.4-0.801,0.9-2l0.7-1.9c0-0.1,0-0.2,0-0.3c0-0.2,0-0.3-0.1-0.4c-0.1-0.1-0.3-0.2-0.5-0.3
				L23,12.5L23,12.5z"/>
		</g>
	</g>
</g>
<g>
	<defs>
		<path id="SVGID_2_" d="M69,6.6c0,0.7,0,1.3-0.1,1.7c0,0.3-0.1,0.6-0.3,0.9C68.5,9.3,68.5,9.5,68.4,9.6H54.5L54.3,9.5L54,9.6H43.4
			l-0.3,0.2l-0.399-0.1h-4.5V8.8h-1.5V8.2h-0.9v1.6L36,9.9v0.8L35.8,10.9l-0.1,1.5H25.6c-0.1,0-0.1,0-0.2,0.1S25.1,12.8,25,13
			c-0.1,0.3-0.7,1.8-1.8,4.4c-0.2,0.3-0.3,0.398-0.4,0.5C22.7,18,22.5,18,22.1,18l-4.6,0.2c-0.2-0.101-0.4-0.2-0.7-0.3
			c-0.5-0.2-0.9-0.301-1.2-0.4c-0.3-0.1-0.6-0.1-0.7-0.1s-0.3,0.1-0.7,0.1c-0.3,0.1-0.5,0.1-0.8,0.1l-0.3-0.1l-2.3,9.6L10.7,28.2
			l0.5,0.7L1.6,28.8c0-0.6,0-1.3,0.1-2.2c0.2-1.8,0.5-3.5,0.8-5.1c0.4-1.6,1-3.2,1.6-4.6c0-0.102,0.2-0.5,0.6-1.3
			C4.9,15.2,5,14.9,5,14.8c0.1-0.4,0-0.6-0.2-0.8c-0.2-0.2-0.6-0.4-1.2-0.6c-0.6-0.2-1-0.3-1.2-0.4C2.2,12.9,2,12.8,2,12.6
			c0-0.2,0-0.6,0-1L2.4,11l-1.7-0.2c-0.1,0-0.2,0-0.3-0.1c-0.2-0.1-0.3-0.3-0.3-0.6c0.1-0.3,0.3-0.4,0.6-0.4c0.2,0,0.3,0,0.5,0
			l0.2-1.2l1.3,0.8l0.6-2.9l0.9-1.8V4L5,4.4h2.9l0.3,0.2h9.7v0.2h5.4V4.7h9.4V3.5h2.2l0.301,0.3v0.8H35.5L35.8,5v0.7h0.9V5.1H38V3.8
			H42.6L43,3.6l0.4,0.2h10.7h0.3l0.301-0.1H68.4L68.6,4c0.101,0.3,0.2,0.6,0.3,0.9C68.9,5.4,68.9,5.9,69,6.6z M23,12.5h-5.1
			c-0.5,0.5-0.9,0.9-1.1,1.1c-0.3,0.4-0.5,0.7-0.5,0.7c-0.2,0.3-0.3,0.7-0.4,1.1c0,0.2,0,0.5,0.1,0.9c0.1,0.2,0.1,0.3,0.2,0.4
			L15.9,17c-0.1-0.2-0.3-0.5-0.4-0.8c-0.2-0.5-0.3-1-0.3-1.3c0.1-0.6,0.3-1.1,0.7-1.6c0.1-0.2,0.3-0.4,0.5-0.6
			c-0.2,0-0.4,0.1-0.7,0.2c-0.5,0.2-0.9,0.4-1.2,0.6c-0.3,0.4-0.5,0.7-0.6,1.2c-0.1,0.4-0.1,0.9,0.1,1.2c0.2,0.4,0.4,0.7,0.8,0.9
			c0.3,0.2,0.7,0.4,1.2,0.5c0.3,0,0.7,0,1.3,0c0.5,0,0.8,0,1,0.101c0.2,0.101,0.9,0.101,2.2,0.101c1.2,0,1.8-0.101,2-0.101
			c0.1-0.101,0.4-0.801,0.9-2l0.7-1.9c0-0.1,0-0.2,0-0.3c0-0.2,0-0.3-0.1-0.4c-0.1-0.1-0.3-0.2-0.5-0.3L23,12.5L23,12.5z"/>
	</defs>
	<clipPath id="SVGID_3_">
		<use xlink:href="#SVGID_2_"  overflow="visible"/>
	</clipPath>
	<g clip-path="url(#SVGID_3_)">
		<g>
			<g>
				
					<linearGradient id="SVGID_4_" gradientUnits="userSpaceOnUse" x1="378.5991" y1="-262.8643" x2="410.5117" y2="-254.4532" gradientTransform="matrix(1 0 0 -1 -374.96 -246.5996)">
					<stop  offset="2.054068e-007" style="stop-color:#FE6198"/>
					<stop  offset="1" style="stop-color:#FFC9D4"/>
				</linearGradient>
				<polygon fill="url(#SVGID_4_)" points="-6.3,20.013 -2.077,20.013 1.159,15.789 -3.065,15.789 				"/>
				
					<linearGradient id="SVGID_5_" gradientUnits="userSpaceOnUse" x1="378.0396" y1="-260.7412" x2="409.9452" y2="-252.332" gradientTransform="matrix(1 0 0 -1 -374.96 -246.5996)">
					<stop  offset="2.054068e-007" style="stop-color:#FE6198"/>
					<stop  offset="1" style="stop-color:#FFC9D4"/>
				</linearGradient>
				<polygon fill="url(#SVGID_5_)" points="4.304,11.565 1.159,15.789 5.383,15.789 8.528,11.565 				"/>
				
					<linearGradient id="SVGID_6_" gradientUnits="userSpaceOnUse" x1="379.1479" y1="-264.9453" x2="411.0601" y2="-256.5343" gradientTransform="matrix(1 0 0 -1 -374.96 -246.5996)">
					<stop  offset="2.054068e-007" style="stop-color:#FE6198"/>
					<stop  offset="1" style="stop-color:#FFC9D4"/>
				</linearGradient>
				<polygon fill="url(#SVGID_6_)" points="2.147,20.013 6.371,20.013 9.606,15.789 5.383,15.789 				"/>
				
					<linearGradient id="SVGID_7_" gradientUnits="userSpaceOnUse" x1="378.5874" y1="-262.8237" x2="410.4986" y2="-254.4129" gradientTransform="matrix(1 0 0 -1 -374.96 -246.5996)">
					<stop  offset="2.054068e-007" style="stop-color:#FE6198"/>
					<stop  offset="1" style="stop-color:#FFC9D4"/>
				</linearGradient>
				<polygon fill="url(#SVGID_7_)" points="9.606,15.789 13.83,15.789 16.975,11.565 12.751,11.565 				"/>
				
					<linearGradient id="SVGID_8_" gradientUnits="userSpaceOnUse" x1="376.9312" y1="-256.5371" x2="408.8413" y2="-248.1267" gradientTransform="matrix(1 0 0 -1 -374.96 -246.5996)">
					<stop  offset="2.054068e-007" style="stop-color:#FE6198"/>
					<stop  offset="1" style="stop-color:#FFC9D4"/>
				</linearGradient>
				<polygon fill="url(#SVGID_8_)" points="3.315,7.342 0.08,11.565 4.304,11.565 7.539,7.342 				"/>
				
					<linearGradient id="SVGID_9_" gradientUnits="userSpaceOnUse" x1="376.3706" y1="-254.416" x2="408.281" y2="-246.0055" gradientTransform="matrix(1 0 0 -1 -374.96 -246.5996)">
					<stop  offset="2.054068e-007" style="stop-color:#FE6198"/>
					<stop  offset="1" style="stop-color:#FFC9D4"/>
				</linearGradient>
				<polygon fill="url(#SVGID_9_)" points="14.908,3.118 10.685,3.118 7.539,7.342 11.763,7.342 				"/>
				
					<linearGradient id="SVGID_10_" gradientUnits="userSpaceOnUse" x1="377.48" y1="-258.6191" x2="409.3909" y2="-250.2085" gradientTransform="matrix(1 0 0 -1 -374.96 -246.5996)">
					<stop  offset="2.054068e-007" style="stop-color:#FE6198"/>
					<stop  offset="1" style="stop-color:#FFC9D4"/>
				</linearGradient>
				<polygon fill="url(#SVGID_10_)" points="12.751,11.565 15.986,7.342 11.763,7.342 8.528,11.565 				"/>
				
					<linearGradient id="SVGID_11_" gradientUnits="userSpaceOnUse" x1="376.9194" y1="-256.4976" x2="408.8306" y2="-248.0869" gradientTransform="matrix(1 0 0 -1 -374.96 -246.5996)">
					<stop  offset="2.054068e-007" style="stop-color:#FE6198"/>
					<stop  offset="1" style="stop-color:#FFC9D4"/>
				</linearGradient>
				<polygon fill="url(#SVGID_11_)" points="23.356,3.118 19.132,3.118 15.986,7.342 20.21,7.342 				"/>
				
					<linearGradient id="SVGID_12_" gradientUnits="userSpaceOnUse" x1="379.1362" y1="-264.9048" x2="411.0466" y2="-256.4943" gradientTransform="matrix(1 0 0 -1 -374.96 -246.5996)">
					<stop  offset="2.054068e-007" style="stop-color:#FE6198"/>
					<stop  offset="1" style="stop-color:#FFC9D4"/>
				</linearGradient>
				<polygon fill="url(#SVGID_12_)" points="18.053,15.789 22.277,15.789 25.422,11.565 21.198,11.565 				"/>
				
					<linearGradient id="SVGID_13_" gradientUnits="userSpaceOnUse" x1="378.5728" y1="-262.772" x2="410.4852" y2="-254.3609" gradientTransform="matrix(1 0 0 -1 -374.96 -246.5996)">
					<stop  offset="2.054068e-007" style="stop-color:#FE6198"/>
					<stop  offset="1" style="stop-color:#FFC9D4"/>
				</linearGradient>
				<polygon fill="url(#SVGID_13_)" points="25.422,11.565 29.646,11.565 32.792,7.342 28.567,7.342 				"/>
				
					<linearGradient id="SVGID_14_" gradientUnits="userSpaceOnUse" x1="378.0278" y1="-260.7007" x2="409.9399" y2="-252.2898" gradientTransform="matrix(1 0 0 -1 -374.96 -246.5996)">
					<stop  offset="2.054068e-007" style="stop-color:#FE6198"/>
					<stop  offset="1" style="stop-color:#FFC9D4"/>
				</linearGradient>
				<polygon fill="url(#SVGID_14_)" points="20.21,7.342 16.975,11.565 21.198,11.565 24.344,7.342 				"/>
				
					<linearGradient id="SVGID_15_" gradientUnits="userSpaceOnUse" x1="377.4692" y1="-258.5674" x2="409.3764" y2="-250.1577" gradientTransform="matrix(1 0 0 -1 -374.96 -246.5996)">
					<stop  offset="2.054068e-007" style="stop-color:#FE6198"/>
					<stop  offset="1" style="stop-color:#FFC9D4"/>
				</linearGradient>
				<polygon fill="url(#SVGID_15_)" points="31.803,3.118 27.579,3.118 24.344,7.342 28.567,7.342 				"/>
				
					<linearGradient id="SVGID_16_" gradientUnits="userSpaceOnUse" x1="378.0142" y1="-260.6494" x2="409.9252" y2="-252.2387" gradientTransform="matrix(1 0 0 -1 -374.96 -246.5996)">
					<stop  offset="2.054068e-007" style="stop-color:#FE6198"/>
					<stop  offset="1" style="stop-color:#FFC9D4"/>
				</linearGradient>
				<polygon fill="url(#SVGID_16_)" points="36.027,3.118 32.792,7.342 37.015,7.342 40.25,3.118 				"/>
			</g>
		</g>
	</g>
</g>
</svg>
