<?xml version="1.0" encoding="utf-8"?>
<!-- Generator: Adobe Illustrator 16.0.0, SVG Export Plug-In . SVG Version: 6.00 Build 0)  -->
<!DOCTYPE svg PUBLIC "-//W3C//DTD SVG 1.0//EN" "http://www.w3.org/TR/2001/REC-SVG-20010904/DTD/svg10.dtd">
<svg version="1.0" id="Layer_1" xmlns="http://www.w3.org/2000/svg" xmlns:xlink="http://www.w3.org/1999/xlink" x="0px" y="0px"
	 width="39.8px" height="32px" viewBox="0 0 39.8 32" enable-background="new 0 0 39.8 32" xml:space="preserve">
<path opacity="0.7" fill="#CE0B4C" enable-background="new    " d="M16.043,11.072c0,0-3.643,0.678-6.525,4.746
	c0,0,2.458,1.103,1.611,1.78c-0.848,0.679-4.577-0.338-11.018,6.102c0,0,2.627-1.185,6.186-1.441
	c3.561-0.254-0.932,2.12-1.948,2.713c0,0,6.61-3.304,8.476-3.052c1.863,0.255-6.611,5.086-10.255,6.781
	c0,0,11.102-3.646,12.374-3.476s-0.679,2.204-3.729,3.476c0,0,6.356,0,10.594-1.949c4.237-1.95,5.084-2.204,5.084-1.102
	c0,0,3.729-2.374,2.628-3.222c-1.101-0.849,2.798-1.95,5.424-3.899c2.627-1.948,3.728-3.221,3.728-3.221s-6.354,2.799-8.304,2.882
	c-1.948,0.086,1.271-2.626,4.745-4.152c3.477-1.526,4.577-4.322,4.577-4.322s-4.746,0.169-10.847,3.22
	c-6.104,3.051-6.78,4.068-6.271,2.204c0.508-1.865,6.101-4.492,6.101-4.492s-7.796,0.17-11.357,2.966
	c-3.559,2.797-2.543-0.678-1.779-1.355C16.298,11.579,16.043,11.072,16.043,11.072z"/>
<g id="Selected_Items">
	<g>
		<g id="Selected_Items_52_">
			
				<linearGradient id="SVGID_1_" gradientUnits="userSpaceOnUse" x1="376.6001" y1="-262.5996" x2="413.1387" y2="-262.5996" gradientTransform="matrix(1 0 0 -1 -374.96 -246.5996)">
				<stop  offset="0" style="stop-color:#FF2F7D"/>
				<stop  offset="1" style="stop-color:#FF8053"/>
			</linearGradient>
			<path fill="url(#SVGID_1_)" d="M38.201,7.9h-0.9v1.6L37.5,9.7v0.8L37.3,10.7l-0.1,1.5H27c-0.1,0-0.1,0-0.199,0.1
				c-0.1,0.1-0.301,0.3-0.398,0.5c-0.102,0.3-0.697,1.8-1.8,4.4c-0.2,0.3-0.302,0.399-0.397,0.5C24.1,17.8,23.9,17.8,23.5,17.8
				L18.9,18c-0.2-0.1-0.4-0.2-0.7-0.3c-0.5-0.2-0.9-0.3-1.2-0.4c-0.3-0.1-0.5-0.1-0.7-0.1c-0.1,0-0.3,0.1-0.7,0.1
				C15.3,17.4,15.1,17.4,14.8,17.4L14.5,17.3L12.2,26.9l0.1,1.1l0.5,0.7L3.2,28.6c0-0.6,0-1.3,0.1-2.199C3.5,24.6,3.8,22.9,4.1,21.3
				c0.4-1.6,1-3.2,1.6-4.6c0-0.101,0.2-0.5,0.6-1.3c0.2-0.4,0.3-0.7,0.3-0.8c0.1-0.4,0-0.6-0.2-0.8c-0.2-0.2-0.6-0.4-1.2-0.6
				c-0.6-0.2-1-0.3-1.2-0.4c-0.2-0.1-0.4-0.2-0.4-0.4c0-0.2,0-0.6,0-1l0.1-0.7L2,10.5c-0.1,0-0.2,0-0.3-0.1
				c-0.2-0.1-0.3-0.3-0.3-0.6C1.5,9.5,1.7,9.4,2,9.4c0.2,0,0.3,0,0.5,0l0.2-1.2L4,9l0.6-2.9l0.9-1.8V3.8l0.7,0.4h2.9l0.3,0.2h9.7
				v0.2H24.5V4.5h9.4V3.3h2.2l0.3,0.3v0.8h0.301L37,4.8v0.7h0.9 M24.4,12.2h-5.1c-0.5,0.5-0.9,0.9-1.1,1.1c-0.3,0.4-0.5,0.7-0.5,0.7
				c-0.2,0.3-0.3,0.7-0.4,1.1c0,0.2,0,0.5,0.1,0.9c0.1,0.2,0.1,0.3,0.2,0.4l-0.3,0.2c-0.1-0.2-0.3-0.5-0.4-0.8
				c-0.2-0.5-0.3-1-0.3-1.3c0.1-0.6,0.3-1.1,0.7-1.6c0.1-0.2,0.3-0.4,0.5-0.6c-0.2,0-0.4,0.1-0.7,0.2c-0.5,0.2-0.9,0.4-1.2,0.6
				c-0.3,0.4-0.5,0.7-0.6,1.2c-0.1,0.4-0.1,0.9,0.1,1.2c0.2,0.4,0.4,0.7,0.8,0.9c0.3,0.2,0.7,0.4,1.2,0.5c0.3,0,0.7,0,1.3,0
				c0.5,0,0.8,0,1,0.1c0.2,0.1,0.9,0.1,2.2,0.1c1.2,0,1.801-0.1,2-0.1c0.1-0.1,0.4-0.8,0.9-2l0.699-1.9c0-0.1,0-0.2,0-0.3
				c0-0.2,0-0.3-0.102-0.4s-0.3-0.2-0.5-0.3L24.4,12.2z"/>
		</g>
	</g>
</g>
<g>
	<g>
		<defs>
			<path id="SVGID_2_" d="M38.201,7.9h-0.9v1.6L37.5,9.7v0.8L37.3,10.7l-0.1,1.5H27c-0.1,0-0.1,0-0.199,0.1
				c-0.1,0.1-0.301,0.3-0.398,0.5c-0.102,0.3-0.697,1.8-1.8,4.4c-0.2,0.3-0.302,0.399-0.397,0.5C24.1,17.8,23.9,17.8,23.5,17.8
				L18.9,18c-0.2-0.1-0.4-0.2-0.7-0.3c-0.5-0.2-0.9-0.3-1.2-0.4c-0.3-0.1-0.5-0.1-0.7-0.1c-0.1,0-0.3,0.1-0.7,0.1
				C15.3,17.4,15.1,17.4,14.8,17.4L14.5,17.3L12.2,26.9l0.1,1.1l0.5,0.7L3.2,28.6c0-0.6,0-1.3,0.1-2.199C3.5,24.6,3.8,22.9,4.1,21.3
				c0.4-1.6,1-3.2,1.6-4.6c0-0.101,0.2-0.5,0.6-1.3c0.2-0.4,0.3-0.7,0.3-0.8c0.1-0.4,0-0.6-0.2-0.8c-0.2-0.2-0.6-0.4-1.2-0.6
				c-0.6-0.2-1-0.3-1.2-0.4c-0.2-0.1-0.4-0.2-0.4-0.4c0-0.2,0-0.6,0-1l0.1-0.7L2,10.5c-0.1,0-0.2,0-0.3-0.1
				c-0.2-0.1-0.3-0.3-0.3-0.6C1.5,9.5,1.7,9.4,2,9.4c0.2,0,0.3,0,0.5,0l0.2-1.2L4,9l0.6-2.9l0.9-1.8V3.8l0.7,0.4h2.9l0.3,0.2h9.7
				v0.2H24.5V4.5h9.4V3.3h2.2l0.3,0.3v0.8h0.301L37,4.8v0.7h0.9 M24.4,12.2h-5.1c-0.5,0.5-0.9,0.9-1.1,1.1c-0.3,0.4-0.5,0.7-0.5,0.7
				c-0.2,0.3-0.3,0.7-0.4,1.1c0,0.2,0,0.5,0.1,0.9c0.1,0.2,0.1,0.3,0.2,0.4l-0.3,0.2c-0.1-0.2-0.3-0.5-0.4-0.8
				c-0.2-0.5-0.3-1-0.3-1.3c0.1-0.6,0.3-1.1,0.7-1.6c0.1-0.2,0.3-0.4,0.5-0.6c-0.2,0-0.4,0.1-0.7,0.2c-0.5,0.2-0.9,0.4-1.2,0.6
				c-0.3,0.4-0.5,0.7-0.6,1.2c-0.1,0.4-0.1,0.9,0.1,1.2c0.2,0.4,0.4,0.7,0.8,0.9c0.3,0.2,0.7,0.4,1.2,0.5c0.3,0,0.7,0,1.3,0
				c0.5,0,0.8,0,1,0.1c0.2,0.1,0.9,0.1,2.2,0.1c1.2,0,1.801-0.1,2-0.1c0.1-0.1,0.4-0.8,0.9-2l0.699-1.9c0-0.1,0-0.2,0-0.3
				c0-0.2,0-0.3-0.102-0.4s-0.3-0.2-0.5-0.3L24.4,12.2z"/>
		</defs>
		<clipPath id="SVGID_3_">
			<use xlink:href="#SVGID_2_"  overflow="visible"/>
		</clipPath>
		<g clip-path="url(#SVGID_3_)">
			<g>
				<g>
					
						<linearGradient id="SVGID_4_" gradientUnits="userSpaceOnUse" x1="754.2163" y1="577.0879" x2="780.8184" y2="570.0765" gradientTransform="matrix(1 0 0 1 -749.9199 -562.1992)">
						<stop  offset="2.054068e-007" style="stop-color:#FE6198"/>
						<stop  offset="1" style="stop-color:#FFC9D4"/>
					</linearGradient>
					<polygon fill="url(#SVGID_4_)" points="-3.987,18.014 -0.467,18.014 2.229,14.492 -1.291,14.492 					"/>
					
						<linearGradient id="SVGID_5_" gradientUnits="userSpaceOnUse" x1="753.7505" y1="575.3203" x2="780.3418" y2="568.3118" gradientTransform="matrix(1 0 0 1 -749.9199 -562.1992)">
						<stop  offset="2.054068e-007" style="stop-color:#FE6198"/>
						<stop  offset="1" style="stop-color:#FFC9D4"/>
					</linearGradient>
					<polygon fill="url(#SVGID_5_)" points="4.851,10.972 2.229,14.492 5.75,14.492 8.372,10.972 					"/>
					
						<linearGradient id="SVGID_6_" gradientUnits="userSpaceOnUse" x1="754.6753" y1="578.8232" x2="781.2732" y2="571.8129" gradientTransform="matrix(1 0 0 1 -749.9199 -562.1992)">
						<stop  offset="2.054068e-007" style="stop-color:#FE6198"/>
						<stop  offset="1" style="stop-color:#FFC9D4"/>
					</linearGradient>
					<polygon fill="url(#SVGID_6_)" points="3.054,18.014 6.574,18.014 9.271,14.492 5.75,14.492 					"/>
					
						<linearGradient id="SVGID_7_" gradientUnits="userSpaceOnUse" x1="754.2095" y1="577.0537" x2="780.8022" y2="570.0447" gradientTransform="matrix(1 0 0 1 -749.9199 -562.1992)">
						<stop  offset="2.054068e-007" style="stop-color:#FE6198"/>
						<stop  offset="1" style="stop-color:#FFC9D4"/>
					</linearGradient>
					<polygon fill="url(#SVGID_7_)" points="9.271,14.492 12.791,14.492 15.413,10.972 11.892,10.972 					"/>
					
						<linearGradient id="SVGID_8_" gradientUnits="userSpaceOnUse" x1="752.8286" y1="571.8145" x2="779.4247" y2="564.8046" gradientTransform="matrix(1 0 0 1 -749.9199 -562.1992)">
						<stop  offset="2.054068e-007" style="stop-color:#FE6198"/>
						<stop  offset="1" style="stop-color:#FFC9D4"/>
					</linearGradient>
					<polygon fill="url(#SVGID_8_)" points="4.027,7.451 1.331,10.972 4.851,10.972 7.548,7.451 					"/>
					
						<linearGradient id="SVGID_9_" gradientUnits="userSpaceOnUse" x1="752.3599" y1="570.0469" x2="778.9583" y2="563.0365" gradientTransform="matrix(1 0 0 1 -749.9199 -562.1992)">
						<stop  offset="2.054068e-007" style="stop-color:#FE6198"/>
						<stop  offset="1" style="stop-color:#FFC9D4"/>
					</linearGradient>
					<polygon fill="url(#SVGID_9_)" points="13.689,3.931 10.169,3.931 7.548,7.451 11.068,7.451 					"/>
					
						<linearGradient id="SVGID_10_" gradientUnits="userSpaceOnUse" x1="753.2856" y1="573.5498" x2="779.8824" y2="566.5398" gradientTransform="matrix(1 0 0 1 -749.9199 -562.1992)">
						<stop  offset="2.054068e-007" style="stop-color:#FE6198"/>
						<stop  offset="1" style="stop-color:#FFC9D4"/>
					</linearGradient>
					<polygon fill="url(#SVGID_10_)" points="11.892,10.972 14.588,7.451 11.068,7.451 8.372,10.972 					"/>
					
						<linearGradient id="SVGID_11_" gradientUnits="userSpaceOnUse" x1="752.8159" y1="571.7822" x2="779.4124" y2="564.7723" gradientTransform="matrix(1 0 0 1 -749.9199 -562.1992)">
						<stop  offset="2.054068e-007" style="stop-color:#FE6198"/>
						<stop  offset="1" style="stop-color:#FFC9D4"/>
					</linearGradient>
					<polygon fill="url(#SVGID_11_)" points="20.731,3.931 17.21,3.931 14.588,7.451 18.109,7.451 					"/>
					
						<linearGradient id="SVGID_12_" gradientUnits="userSpaceOnUse" x1="754.6675" y1="578.79" x2="781.2607" y2="571.7809" gradientTransform="matrix(1 0 0 1 -749.9199 -562.1992)">
						<stop  offset="2.054068e-007" style="stop-color:#FE6198"/>
						<stop  offset="1" style="stop-color:#FFC9D4"/>
					</linearGradient>
					<polygon fill="url(#SVGID_12_)" points="16.311,14.492 19.832,14.492 22.453,10.972 18.933,10.972 					"/>
					
						<linearGradient id="SVGID_13_" gradientUnits="userSpaceOnUse" x1="754.1909" y1="577.0137" x2="780.7941" y2="570.002" gradientTransform="matrix(1 0 0 1 -749.9199 -562.1992)">
						<stop  offset="2.054068e-007" style="stop-color:#FE6198"/>
						<stop  offset="1" style="stop-color:#FFC9D4"/>
					</linearGradient>
					<polygon fill="url(#SVGID_13_)" points="22.453,10.972 25.974,10.972 28.596,7.451 25.076,7.451 					"/>
					
						<linearGradient id="SVGID_14_" gradientUnits="userSpaceOnUse" x1="753.7417" y1="575.2861" x2="780.3383" y2="568.2762" gradientTransform="matrix(1 0 0 1 -749.9199 -562.1992)">
						<stop  offset="2.054068e-007" style="stop-color:#FE6198"/>
						<stop  offset="1" style="stop-color:#FFC9D4"/>
					</linearGradient>
					<polygon fill="url(#SVGID_14_)" points="18.109,7.451 15.413,10.972 18.933,10.972 21.554,7.451 					"/>
					
						<linearGradient id="SVGID_15_" gradientUnits="userSpaceOnUse" x1="753.2739" y1="573.5068" x2="779.8688" y2="566.4973" gradientTransform="matrix(1 0 0 1 -749.9199 -562.1992)">
						<stop  offset="2.054068e-007" style="stop-color:#FE6198"/>
						<stop  offset="1" style="stop-color:#FFC9D4"/>
					</linearGradient>
					<polygon fill="url(#SVGID_15_)" points="27.771,3.931 24.251,3.931 21.554,7.451 25.076,7.451 					"/>
					
						<linearGradient id="SVGID_16_" gradientUnits="userSpaceOnUse" x1="753.7329" y1="575.2422" x2="780.3273" y2="568.2328" gradientTransform="matrix(1 0 0 1 -749.9199 -562.1992)">
						<stop  offset="2.054068e-007" style="stop-color:#FE6198"/>
						<stop  offset="1" style="stop-color:#FFC9D4"/>
					</linearGradient>
					<polygon fill="url(#SVGID_16_)" points="31.292,3.931 28.596,7.451 32.117,7.451 34.812,3.931 					"/>
				</g>
			</g>
		</g>
	</g>
</g>
<g>
	<path fill="#FFF0F4" d="M11.003,20.786l-1.101,2.372H7.613l5.255-10.424h2.542l1.526,10.424h-2.204l-0.255-2.372H11.003z
		 M13.8,14.937l-1.78,3.813h2.203L13.8,14.937z"/>
	<path fill="#FFF0F4" d="M20.157,23.158c-0.593,0-1.102-0.17-1.441-0.593c-0.338-0.424-0.423-0.933-0.338-1.525l1.187-6.441
		c0.085-0.594,0.339-1.102,0.848-1.441c0.423-0.339,0.933-0.508,1.609-0.508h3.391c0.593,0,1.101,0.169,1.441,0.593
		c0.338,0.424,0.423,0.932,0.338,1.526l-0.255,1.609h-2.204l0.255-1.355c0-0.169,0-0.254,0-0.339
		c-0.085-0.084-0.17-0.084-0.338-0.084h-2.288c-0.34,0-0.594,0.169-0.678,0.593l-1.018,5.594c0,0.168,0,0.254,0,0.338
		c0.085,0.085,0.169,0.085,0.339,0.085h2.288c0.34,0,0.595-0.169,0.678-0.593l0.17-1.188h2.202l-0.423,1.78
		c-0.085,0.594-0.337,1.103-0.848,1.441c-0.423,0.338-0.932,0.508-1.609,0.508H20.157z"/>
	<path fill="#FFF0F4" d="M36.174,12.734l-0.339,1.949h-4.831l-0.424,2.118h3.899l-0.34,1.948h-3.898l-0.424,2.374h4.832l-0.34,1.95
		h-6.95l1.865-10.34H36.174z"/>
</g>
</svg>
