<?xml version="1.0" encoding="utf-8"?>
<!-- Generator: Adobe Illustrator 16.0.0, SVG Export Plug-In . SVG Version: 6.00 Build 0)  -->
<!DOCTYPE svg PUBLIC "-//W3C//DTD SVG 1.0//EN" "http://www.w3.org/TR/2001/REC-SVG-20010904/DTD/svg10.dtd">
<svg version="1.0" id="图层_1" xmlns="http://www.w3.org/2000/svg" xmlns:xlink="http://www.w3.org/1999/xlink" x="0px" y="0px"
	 width="97.9px" height="32px" viewBox="0 0 97.9 32" enable-background="new 0 0 97.9 32" xml:space="preserve">
<linearGradient id="SVGID_1_" gradientUnits="userSpaceOnUse" x1="373.0183" y1="-262.769" x2="466.8015" y2="-262.769" gradientTransform="matrix(1 0 0 -1 -370.96 -246.5996)">
	<stop  offset="0" style="stop-color:#5782CE"/>
	<stop  offset="0.9898" style="stop-color:#5CAEFF"/>
</linearGradient>
<linearGradient id="SVGID_2_" gradientUnits="userSpaceOnUse" x1="1.6785" y1="16.1694" x2="96.2166" y2="16.1694">
	<stop  offset="0" style="stop-color:#86D4F7"/>
	<stop  offset="1" style="stop-color:#DEF6FF"/>
</linearGradient>
<path fill="url(#SVGID_1_)" stroke="url(#SVGID_2_)" stroke-width="0.75" stroke-miterlimit="10" d="M95.842,9.154
	c0,0.288,0,0.48,0,0.769c0,0.384-0.1,0.577-0.192,0.768c-0.192,0.193-0.48,0.289-1.06,0.289c-0.576,0-1.15,0-1.729,0v0.384h0.099
	c0.096,0,0.096,0.096,0.096,0.192c0.192,0,0.48,0,0.865-0.096c0.48,0,0.769,0,1.057,0.192c0.192,0.096,0.385,0.289,0.48,0.769
	c0.096,0.384,0.192,0.769,0.096,1.153c-0.189,0.48-0.576,0.865-1.15,1.057H70.954c-0.096,0-0.48,0.097-1.153,0.384
	c-0.673,0.192-1.634,0.289-2.979,0.289h-0.384c-0.673,0-1.634,0-2.784,0c-1.153,0-2.501,0-3.845,0c-1.44,0-2.882,0.096-4.323,0.096
	s-2.787,0-4.135,0c-1.249,0-2.303,0-3.072,0c-0.865,0-1.345,0-1.441-0.096c-0.291-0.097-0.482-0.193-0.771-0.193
	c-0.288,0-0.48,0-0.769,0h-1.153c-0.191-0.096-0.383-0.096-0.769-0.096c-0.382,0-0.768,0-1.249-0.095c-0.385,0-0.769,0-1.057,0
	c-0.291,0-0.48,0-0.673,0c-0.193,0-0.385,0.095-0.577,0.288c-0.576,0.384-0.961,0.577-1.151,0.577c-0.098,0-0.291-0.096-0.48-0.192
	c-0.192-0.096-0.48-0.096-0.865-0.191c-0.29-0.096-0.675-0.193-1.155-0.193c-0.382-0.096-0.673-0.096-0.769-0.096
	c-0.192,0-0.672,0-1.249,0c-0.579,0-0.961,0.193-1.153,0.289c-0.096,0-0.289,0.191-0.48,0.575c-0.289,0.29-0.48,0.577-0.866,0.866
	c-0.288,0.287-0.669,0.575-0.96,0.673h-0.576c-0.192,0.095-0.288,0.191-0.385,0.191c-0.096,0-0.096,0-0.189,0
	c-0.192,0-0.481,0-0.961,0c-0.48,0-0.865,0-1.345,0.098c-0.48,0-0.961,0.098-1.346,0.098c-0.386,0.094-0.673,0.188-0.77,0.285
	c-0.096,0-0.193,0.289-0.289,0.673c-0.192,0.384-0.384,0.864-0.672,1.441c-0.288,0.576-0.576,1.153-0.863,1.825
	c-0.291,0.576-0.579,1.153-0.867,1.729c0,0.48,0,0.769,0.096,0.961c0,0.192,0.099,0.288,0.099,0.386l0.192,0.19
	c0,0.097,0.096,0.19,0.289,0.289c0.093,0.096,0.19,0.191,0.19,0.384l-0.097,0.192c-0.095,0.097-0.288,0.097-0.48,0.097
	c-0.288,0-0.48,0.098-0.673,0.098c-0.288,0-0.576,0-0.862-0.098c-0.384-0.097-0.865-0.192-1.345-0.289
	c-0.576-0.096-1.057-0.192-1.537-0.288c-0.48-0.192-0.865-0.288-1.249-0.385c-0.385-0.096-0.673-0.19-0.673-0.288l-0.099-0.096l0,0
	l0,0c-0.096-0.097-0.191-0.287-0.191-0.48v-0.192c0-0.095,0.189-0.385,0.576-0.961c0.288-0.576,0.672-1.249,1.057-1.921
	c0.384-0.673,0.771-1.346,1.059-2.019c0.288-0.579,0.48-0.96,0.48-1.06c0-0.189,0-0.381,0-0.67c0-0.291-0.099-0.48-0.288-0.578
	c-0.291-0.098-0.673-0.193-1.06-0.193c-0.382-0.096-0.768-0.096-0.961,0c-0.48,0-0.673,0-0.673-0.096h-0.096
	c0-0.099,0-0.191,0-0.287c0-0.098,0-0.193,0-0.193l0.096-0.096c-0.096,0-0.48,0.096-1.249,0.191
	c-0.769,0.098-1.537,0.291-2.304,0.48c-0.771,0.194-1.54,0.388-2.212,0.58c-0.672,0.191-1.057,0.191-1.057,0.191
	c-0.096,0-0.192,0.098-0.288,0.289c-0.097,0.191-0.289,0.383-0.48,0.672c-0.193,0.192-0.289,0.384-0.385,0.673
	c-0.48,0-0.576,0.288-0.672,0.672c-0.096,0.289-0.289,0.481-0.289,0.77c-0.096,0.192-0.192,0.384-0.192,0.384
	c-0.095,0-0.189,0.097-0.48,0.384c-0.191,0.097-0.576,0.289-1.152,0.577c-0.58,0.289-1.346,0.576-2.307,0.962H2.923l-0.672-0.192
	L2.058,10.403l5.189-0.769c0.192,0,0.289-0.096,0.382-0.096C7.728,9.442,7.823,9.346,7.823,9.25C7.92,9.154,8.016,9.059,8.016,8.962
	l16.815-1.537v0.192c0.096,0.192,0.193,0.289,0.289,0.48c0.099,0.096,0.192,0.192,0.288,0.192c0,0.096,0.099,0.096,0.099,0.096
	c0.096,0,0.096,0,0.192-0.096l0.189-0.192v-0.48h0.097c0.48-0.769,0.864-1.249,1.057-1.538l0,0h0.097l0.096-0.096l0,0
	c0.385,0,0.673,0,0.961,0l0.096,0.096h0.192v0.289c0.385,0.096,0.577,0.192,0.769,0.192l0.289,0.192h1.057
	c0.385,0,0.673,0,0.866,0.096c0.189,0,0.288,0.096,0.288,0.288c0.096,0,0.193,0.192,0.193,0.577v0.288h0.096l0.096,0.096h0.096V7.04
	h11.723V6.463h0.672v0.673h1.73v0.192c0,0.192,0,0.48,0.096,0.672s0.192,0.288,0.192,0.288h43.241
	c0.095-0.096,0.287-0.192,0.48-0.384c0.191-0.192,0.191-0.385,0.191-0.577l0.096-0.385c0-0.192,0-0.384,0.096-0.672
	c0.097-0.289,0.29-0.385,0.385-0.385c0.096,0,0.386,0.096,0.769,0.289c0.48,0.192,0.865,0.384,1.25,0.577
	c0.384,0.192,0.672,0.48,0.96,0.673c0.291,0.288,0.48,0.48,0.48,0.672c0.099,0.096,0.191,0.192,0.191,0.192c0.1,0,0.1,0,0.1,0.096
	c0.095,0,0.095,0,0.189,0h0.192l0.577,0.192V9.154L95.842,9.154z M90.46,11.076h-0.961l-0.192-0.192H70.954
	c-0.287,0.192-0.385,0.384-0.385,0.577v0.192c0.292,0,1.06,0.096,2.402,0.096c1.346,0,3.075,0,4.997,0
	c2.02,0,4.036-0.096,6.245-0.096c2.307,0,4.324-0.096,6.151-0.096h0.479C90.748,11.172,90.652,11.076,90.46,11.076z M29.156,6.463
	L29.156,6.463c0.096,0,0.096,0,0.096,0l0,0H29.156L29.156,6.463z M30.405,15.688c0-0.384-0.096-0.673-0.192-0.864
	c-0.189-0.193-0.382-0.289-0.769-0.289h-2.402c-0.288,0-0.576,0.096-0.768,0.289c-0.193,0.191-0.289,0.48-0.289,0.864
	c0,0.288,0.096,0.481,0.289,0.673c0.192,0.191,0.48,0.287,0.768,0.287h2.402c0.288,0,0.579-0.096,0.769-0.287
	C30.309,16.072,30.405,15.881,30.405,15.688z M26.657,6.56L26.657,6.56h0.096l0,0H26.657z"/>
<g>
	<defs>
		<path id="SVGID_3_" d="M95.842,9.154c0,0.288,0,0.48,0,0.769c0,0.384-0.1,0.577-0.192,0.768c-0.192,0.193-0.48,0.289-1.06,0.289
			c-0.576,0-1.15,0-1.729,0v0.384h0.099c0.096,0,0.096,0.096,0.096,0.192c0.192,0,0.48,0,0.865-0.096c0.48,0,0.769,0,1.057,0.192
			c0.192,0.096,0.385,0.289,0.48,0.769c0.096,0.384,0.192,0.769,0.096,1.153c-0.189,0.48-0.576,0.865-1.15,1.057H70.954
			c-0.096,0-0.48,0.097-1.153,0.384c-0.673,0.192-1.634,0.289-2.979,0.289h-0.384c-0.673,0-1.634,0-2.784,0
			c-1.153,0-2.501,0-3.845,0c-1.44,0-2.882,0.096-4.323,0.096s-2.787,0-4.135,0c-1.249,0-2.303,0-3.072,0
			c-0.865,0-1.345,0-1.441-0.096c-0.291-0.097-0.482-0.193-0.771-0.193c-0.288,0-0.48,0-0.769,0h-1.153
			c-0.191-0.096-0.383-0.096-0.769-0.096c-0.382,0-0.768,0-1.249-0.095c-0.385,0-0.769,0-1.057,0c-0.291,0-0.48,0-0.673,0
			c-0.193,0-0.385,0.095-0.577,0.288c-0.576,0.384-0.961,0.577-1.151,0.577c-0.098,0-0.291-0.096-0.48-0.192
			c-0.192-0.096-0.48-0.096-0.865-0.191c-0.29-0.096-0.675-0.193-1.155-0.193c-0.382-0.096-0.673-0.096-0.769-0.096
			c-0.192,0-0.672,0-1.249,0c-0.579,0-0.961,0.193-1.153,0.289c-0.096,0-0.289,0.191-0.48,0.575c-0.289,0.29-0.48,0.577-0.866,0.866
			c-0.288,0.287-0.669,0.575-0.96,0.673h-0.576c-0.192,0.095-0.288,0.191-0.385,0.191c-0.096,0-0.096,0-0.189,0
			c-0.192,0-0.481,0-0.961,0c-0.48,0-0.865,0-1.345,0.098c-0.48,0-0.961,0.098-1.346,0.098c-0.386,0.094-0.673,0.188-0.77,0.285
			c-0.096,0-0.193,0.289-0.289,0.673c-0.192,0.384-0.384,0.864-0.672,1.441c-0.288,0.576-0.576,1.153-0.863,1.825
			c-0.291,0.576-0.579,1.153-0.867,1.729c0,0.48,0,0.769,0.096,0.961c0,0.192,0.099,0.288,0.099,0.386l0.192,0.19
			c0,0.097,0.096,0.19,0.289,0.289c0.093,0.096,0.19,0.191,0.19,0.384l-0.097,0.192c-0.095,0.097-0.288,0.097-0.48,0.097
			c-0.288,0-0.48,0.098-0.673,0.098c-0.288,0-0.576,0-0.862-0.098c-0.384-0.097-0.865-0.192-1.345-0.289
			c-0.576-0.096-1.057-0.192-1.537-0.288c-0.48-0.192-0.865-0.288-1.249-0.385c-0.385-0.096-0.673-0.19-0.673-0.288l-0.099-0.096
			l0,0l0,0c-0.096-0.097-0.191-0.287-0.191-0.48v-0.192c0-0.095,0.189-0.385,0.576-0.961c0.288-0.576,0.672-1.249,1.057-1.921
			c0.384-0.673,0.771-1.346,1.059-2.019c0.288-0.579,0.48-0.96,0.48-1.06c0-0.189,0-0.381,0-0.67c0-0.291-0.099-0.48-0.288-0.578
			c-0.291-0.098-0.673-0.193-1.06-0.193c-0.382-0.096-0.768-0.096-0.961,0c-0.48,0-0.673,0-0.673-0.096h-0.096
			c0-0.099,0-0.191,0-0.287c0-0.098,0-0.193,0-0.193l0.096-0.096c-0.096,0-0.48,0.096-1.249,0.191
			c-0.769,0.098-1.537,0.291-2.304,0.48c-0.771,0.194-1.54,0.388-2.212,0.58c-0.672,0.191-1.057,0.191-1.057,0.191
			c-0.096,0-0.192,0.098-0.288,0.289c-0.097,0.191-0.289,0.383-0.48,0.672c-0.193,0.192-0.289,0.384-0.385,0.673
			c-0.48,0-0.576,0.288-0.672,0.672c-0.096,0.289-0.289,0.481-0.289,0.77c-0.096,0.192-0.192,0.384-0.192,0.384
			c-0.095,0-0.189,0.097-0.48,0.384c-0.191,0.097-0.576,0.289-1.152,0.577c-0.58,0.289-1.346,0.576-2.307,0.962H2.923l-0.672-0.192
			L2.058,10.403l5.189-0.769c0.192,0,0.289-0.096,0.382-0.096C7.728,9.442,7.823,9.346,7.823,9.25
			C7.92,9.154,8.016,9.059,8.016,8.962l16.815-1.537v0.192c0.096,0.192,0.193,0.289,0.289,0.48c0.099,0.096,0.192,0.192,0.288,0.192
			c0,0.096,0.099,0.096,0.099,0.096c0.096,0,0.096,0,0.192-0.096l0.189-0.192v-0.48h0.097c0.48-0.769,0.864-1.249,1.057-1.538l0,0
			h0.097l0.096-0.096l0,0c0.385,0,0.673,0,0.961,0l0.096,0.096h0.192v0.289c0.385,0.096,0.577,0.192,0.769,0.192l0.289,0.192h1.057
			c0.385,0,0.673,0,0.866,0.096c0.189,0,0.288,0.096,0.288,0.288c0.096,0,0.193,0.192,0.193,0.577v0.288h0.096l0.096,0.096h0.096
			V7.04h11.723V6.463h0.672v0.673h1.73v0.192c0,0.192,0,0.48,0.096,0.672s0.192,0.288,0.192,0.288h43.241
			c0.095-0.096,0.287-0.192,0.48-0.384c0.191-0.192,0.191-0.385,0.191-0.577l0.096-0.385c0-0.192,0-0.384,0.096-0.672
			c0.097-0.289,0.29-0.385,0.385-0.385c0.096,0,0.386,0.096,0.769,0.289c0.48,0.192,0.865,0.384,1.25,0.577
			c0.384,0.192,0.672,0.48,0.96,0.673c0.291,0.288,0.48,0.48,0.48,0.672c0.099,0.096,0.191,0.192,0.191,0.192c0.1,0,0.1,0,0.1,0.096
			c0.095,0,0.095,0,0.189,0h0.192l0.577,0.192V9.154L95.842,9.154z M90.46,11.076h-0.961l-0.192-0.192H70.954
			c-0.287,0.192-0.385,0.384-0.385,0.577v0.192c0.292,0,1.06,0.096,2.402,0.096c1.346,0,3.075,0,4.997,0
			c2.02,0,4.036-0.096,6.245-0.096c2.307,0,4.324-0.096,6.151-0.096h0.479C90.748,11.172,90.652,11.076,90.46,11.076z M29.156,6.463
			L29.156,6.463c0.096,0,0.096,0,0.096,0l0,0H29.156L29.156,6.463z M30.405,15.688c0-0.384-0.096-0.673-0.192-0.864
			c-0.189-0.193-0.382-0.289-0.769-0.289h-2.402c-0.288,0-0.576,0.096-0.768,0.289c-0.193,0.191-0.289,0.48-0.289,0.864
			c0,0.288,0.096,0.481,0.289,0.673c0.192,0.191,0.48,0.287,0.768,0.287h2.402c0.288,0,0.579-0.096,0.769-0.287
			C30.309,16.072,30.405,15.881,30.405,15.688z M26.657,6.56L26.657,6.56h0.096l0,0H26.657z"/>
	</defs>
	<clipPath id="SVGID_4_">
		<use xlink:href="#SVGID_3_"  overflow="visible"/>
	</clipPath>
	<g clip-path="url(#SVGID_4_)">
		
			<linearGradient id="SVGID_5_" gradientUnits="userSpaceOnUse" x1="741.9197" y1="577.0879" x2="800.6179" y2="577.0879" gradientTransform="matrix(1 0 0 1 -741.9199 -562.1992)">
			<stop  offset="5.581969e-004" style="stop-color:#FF9500"/>
			<stop  offset="1" style="stop-color:#EFB941"/>
		</linearGradient>
		<path fill="url(#SVGID_5_)" d="M0.195,9.251L20.325,7l3.813-0.594l2.81-1.834l11.389-1.921l6.33,0.4
			c0,0,12.284,2.131,14.032,4.525c0,0-2.898,1.47-3.941,3.706c-1.047,2.233-2.537,3.809-4.928,4.261
			c-2.392,0.45-4.368-1.921-6.454-0.826c-2.087,1.094-5.331,3.39-6.802,4.335c-1.471,0.946-5.21,2.984-6.468,4.603
			c-1.258,1.624-2.924,3.331-4.484,2.641c-1.56-0.688-2.984,0.83-2.984,0.83l-7.806-2.538l-6.912,0.12l-6.786,0.977L0,24.247
			L0.195,9.251z"/>
		<path fill="#300093" d="M7.117,13.517c0,0-6.069,0.06-6.684,4.642c-0.795,5.905,6.327,3.761,6.327,3.761
			S4.155,17.989,7.117,13.517z"/>
		<path fill="#5D29FF" d="M7.522,21.502l4.64-1.241c0,0-1.579-3.092,2.084-5.096c3.012-1.649,6.462,0.448,6.462,0.448l2.504-2.818
			c0,0-8.47-4.366-14.264,0.209C4.836,16.251,7.522,21.502,7.522,21.502z"/>
		<path fill="#4383FF" d="M27.396,10.53c0,0-3.002,1.278-4.184,1.278c-1.182,0,1.23,0.8,1.23,0.8l-2.688,3.011l1.016,2.006
			l6.49,0.193l0.261-8.029L27.396,10.53z"/>
		<path fill="#8600EE" d="M38.966,9.271c0,0-2.693-1.42-5.883,0.12c-3.189,1.54-3.561,7.484,1.991,8.03
			c4.765,0.468,5.706-4.723,2.988-5.443c-2.718-0.718-2.871,1.744-2.564,2.005h-0.732c0,0-1.101-3.001,2.641-2.97
			c3.722,0.029,2.841,4.21,2.841,4.21s1.783-2.62,4.034-2.47c2.544,0.169,2.087,1.227,3.721,1.515
			c1.702,0.299,4.165,0.254,4.942-2.941c0.422-1.728,3.033-2.896,3.033-2.896s-3.297-1.006-5.193,1.394
			c-1.732,2.192-2.989,0.787-4.004-0.194c-1.49-1.44-3.206-1.891-5.899-1.457C40.005,8.317,38.966,9.271,38.966,9.271z"/>
		<ellipse fill="#00A625" cx="17.1" cy="18.93" rx="4.449" ry="3.765"/>
		<path fill="#A20063" d="M44.5,5.527c0,0,1.661-0.577,5.081,0.157c3.418,0.736,4.941,1.754,4.941,1.754s-3.207-0.089-3.984,1.2
			c-0.783,1.29-1.526,1.351-2.269,1.053c-0.747-0.301-1.611-1.832-4.004-2.117c-2.159-0.256,0.122-1.545,0.122-1.545L44.5,5.527z"/>
		<path fill="#F58800" d="M28.423,6.24c0.054,0.015,2.02,3.886,2.02,3.886l4.251-2.025l-0.903-3.27L28.423,6.24z"/>
		<polygon fill="#5CFF16" points="34.27,4.831 35.37,8.016 38.488,8.431 38.719,4.381 		"/>
		<path fill="#646BFF" d="M43.998,4.575c0,0-1.399,2.446-1.416,2.902c0,0-2.608-0.167-3.438,0.683l0.108-3.96L43.998,4.575z"/>
	</g>
</g>
</svg>
