<?xml version="1.0" encoding="utf-8"?>
<!-- Generator: Adobe Illustrator 16.0.0, SVG Export Plug-In . SVG Version: 6.00 Build 0)  -->
<!DOCTYPE svg PUBLIC "-//W3C//DTD SVG 1.0//EN" "http://www.w3.org/TR/2001/REC-SVG-20010904/DTD/svg10.dtd">
<svg version="1.0" id="图层_1" xmlns="http://www.w3.org/2000/svg" xmlns:xlink="http://www.w3.org/1999/xlink" x="0px" y="0px"
	 width="97.9px" height="32px" viewBox="0 0 97.9 32" enable-background="new 0 0 97.9 32" xml:space="preserve">
<g id="Selected_Items">
	<g>
		<g id="Selected_Items_53_">
			
				<linearGradient id="SVGID_1_" gradientUnits="userSpaceOnUse" x1="374.9597" y1="-262.5996" x2="472.5603" y2="-262.5996" gradientTransform="matrix(1 0 0 -1 -374.96 -246.5996)">
				<stop  offset="0" style="stop-color:#8F00DB"/>
				<stop  offset="0.6452" style="stop-color:#77B9FF"/>
				<stop  offset="1" style="stop-color:#B6CAFF"/>
			</linearGradient>
			<path fill="url(#SVGID_1_)" d="M97.6,8.7c0,0.3,0,0.5,0,0.8c0,0.4-0.101,0.6-0.2,0.8c-0.2,0.2-0.5,0.3-1.101,0.3
				c-0.6,0-1.199,0-1.8,0V11H94.6c0.1,0,0.1,0.1,0.1,0.2c0.2,0,0.5,0,0.9-0.1c0.5,0,0.8,0,1.1,0.2c0.2,0.1,0.4,0.3,0.5,0.8
				c0.1,0.4,0.2,0.8,0.1,1.2c-0.199,0.5-0.6,0.9-1.199,1.1H71.7c-0.1,0-0.5,0.1-1.2,0.4c-0.7,0.2-1.7,0.3-3.1,0.3H67
				c-0.7,0-1.7,0-2.899,0c-1.2,0-2.601,0-4,0c-1.5,0-3,0.1-4.5,0.1s-2.9,0-4.301,0c-1.3,0-2.399,0-3.199,0c-0.9,0-1.4,0-1.5-0.1
				C46.3,15,46.1,14.9,45.8,14.9c-0.3,0-0.5,0-0.8,0h-1.2C43.6,14.8,43.4,14.8,43,14.8c-0.399,0-0.8,0-1.3-0.1c-0.4,0-0.8,0-1.1,0
				c-0.301,0-0.5,0-0.7,0S39.5,14.8,39.3,15c-0.6,0.4-1,0.6-1.199,0.6c-0.101,0-0.301-0.1-0.5-0.2c-0.2-0.1-0.5-0.1-0.9-0.2
				C36.4,15.1,36,15,35.5,15c-0.399-0.1-0.7-0.1-0.8-0.1c-0.2,0-0.7,0-1.3,0c-0.601,0-1,0.2-1.2,0.3c-0.1,0-0.3,0.2-0.5,0.6
				c-0.3,0.3-0.5,0.6-0.9,0.9c-0.3,0.3-0.699,0.6-1,0.7h-0.6C29,17.5,28.9,17.6,28.8,17.6c-0.1,0-0.1,0-0.199,0c-0.2,0-0.5,0-1,0
				s-0.9,0-1.4,0.101c-0.5,0-1,0.1-1.4,0.1C24.4,17.9,24.1,18,24,18.1c-0.1,0-0.2,0.301-0.3,0.7c-0.2,0.4-0.4,0.9-0.7,1.5
				c-0.3,0.601-0.6,1.2-0.899,1.9C21.8,22.8,21.5,23.4,21.2,24c0,0.5,0,0.8,0.1,1c0,0.2,0.101,0.3,0.101,0.4l0.2,0.199
				c0,0.101,0.1,0.2,0.3,0.301C22,26,22.1,26.1,22.1,26.3L22,26.5c-0.1,0.1-0.3,0.1-0.5,0.1c-0.3,0-0.5,0.101-0.7,0.101
				c-0.3,0-0.6,0-0.899-0.101c-0.4-0.1-0.9-0.199-1.4-0.3c-0.6-0.1-1.1-0.2-1.6-0.3c-0.5-0.2-0.9-0.3-1.3-0.4
				c-0.4-0.1-0.7-0.199-0.7-0.3L14.8,25.2l0,0l0,0C14.7,25.1,14.6,24.9,14.6,24.7v-0.2c0-0.1,0.199-0.4,0.6-1c0.3-0.6,0.7-1.3,1.1-2
				c0.4-0.7,0.801-1.4,1.101-2.1c0.3-0.601,0.5-1,0.5-1.101c0-0.2,0-0.399,0-0.7c0-0.3-0.101-0.5-0.3-0.6
				c-0.301-0.1-0.7-0.2-1.101-0.2c-0.399-0.1-0.8-0.1-1,0c-0.5,0-0.7,0-0.7-0.1h-0.1c0-0.101,0-0.2,0-0.3s0-0.2,0-0.2l0.1-0.1
				c-0.1,0-0.5,0.1-1.3,0.2c-0.8,0.1-1.6,0.3-2.399,0.5C10.3,17,9.5,17.2,8.8,17.4C8.1,17.6,7.7,17.6,7.7,17.6
				c-0.1,0-0.2,0.101-0.3,0.301C7.3,18.1,7.1,18.3,6.9,18.6c-0.2,0.2-0.3,0.4-0.4,0.7c-0.5,0-0.6,0.3-0.7,0.7
				c-0.1,0.3-0.3,0.5-0.3,0.8c-0.1,0.2-0.2,0.4-0.2,0.4c-0.1,0-0.199,0.1-0.5,0.399C4.6,21.7,4.2,21.9,3.6,22.2
				c-0.601,0.3-1.4,0.6-2.4,1H0.9L0.2,23L0,10l5.4-0.8c0.2,0,0.3-0.1,0.399-0.1C5.9,9,6,8.9,6,8.8C6.1,8.7,6.2,8.6,6.2,8.5l17.5-1.6
				v0.2c0.1,0.2,0.2,0.3,0.3,0.5c0.101,0.1,0.2,0.2,0.3,0.2c0,0.1,0.101,0.1,0.101,0.1c0.1,0,0.1,0,0.2-0.1L24.8,7.6V7.1H24.9
				C25.4,6.3,25.8,5.8,26,5.5l0,0H26.1l0.1-0.1l0,0c0.4,0,0.7,0,1,0l0.1,0.1h0.2v0.3C27.9,5.9,28.1,6,28.3,6L28.6,6.2h1.1
				c0.4,0,0.7,0,0.9,0.1c0.199,0,0.3,0.1,0.3,0.3c0.1,0,0.2,0.2,0.2,0.6v0.3h0.1l0.1,0.1H31.4V6.5h12.2V5.9H44.3v0.7H46.1v0.2
				c0,0.2,0,0.5,0.1,0.7s0.2,0.3,0.2,0.3h45c0.1-0.1,0.3-0.2,0.5-0.4c0.2-0.2,0.2-0.4,0.2-0.6l0.1-0.4c0-0.2,0-0.4,0.1-0.7
				C92.4,5.4,92.6,5.3,92.7,5.3s0.4,0.1,0.8,0.3C94,5.8,94.4,6,94.8,6.2c0.4,0.2,0.7,0.5,1,0.7c0.301,0.3,0.5,0.5,0.5,0.7
				c0.101,0.1,0.2,0.2,0.2,0.2c0.101,0,0.101,0,0.101,0.1c0.1,0,0.1,0,0.199,0H97L97.6,8.1V8.7L97.6,8.7z M92,10.7h-1l-0.2-0.2H71.7
				c-0.3,0.2-0.4,0.4-0.4,0.6v0.2c0.301,0,1.101,0.1,2.5,0.1c1.4,0,3.2,0,5.2,0c2.101,0,4.2-0.1,6.5-0.1c2.4,0,4.5-0.1,6.4-0.1h0.5
				C92.3,10.8,92.2,10.7,92,10.7z M28.2,5.9L28.2,5.9c0.1,0,0.1,0,0.1,0l0,0H28.2L28.2,5.9z M29.5,15.5c0-0.4-0.1-0.7-0.2-0.9
				c-0.199-0.2-0.399-0.3-0.8-0.3H26c-0.3,0-0.6,0.1-0.8,0.3c-0.2,0.2-0.3,0.5-0.3,0.9c0,0.3,0.1,0.5,0.3,0.7
				c0.2,0.2,0.5,0.3,0.8,0.3h2.5c0.3,0,0.601-0.1,0.8-0.3C29.4,15.9,29.5,15.7,29.5,15.5z M25.6,6L25.6,6h0.1l0,0H25.6z"/>
		</g>
	</g>
</g>
<linearGradient id="SVGID_2_" gradientUnits="userSpaceOnUse" x1="78.1707" y1="-148.1904" x2="87.4944" y2="-148.1904" gradientTransform="matrix(6.6522 0 0 6.6522 -519.9151 999.7426)">
	<stop  offset="0" style="stop-color:#C216FF"/>
	<stop  offset="0.6452" style="stop-color:#77B9FF"/>
	<stop  offset="1" style="stop-color:#B6CAFF"/>
</linearGradient>
<path fill="url(#SVGID_2_)" fill-opacity="0.5" d="M0,22.6c0,0,1.101-1,2.9-1.699C5.3,20,5.8,19.4,6.7,17.5c0,0-2.1,1.1-3.6-0.7
	c0,0,12.5-0.4,20.399-4.6c0,0-10,2.3-12.6,1c0,0,7.3-2.1,12.899-3.1c3.801-0.5,18.101-0.5,26,4.3c0,0-2.3-4.2-13.1-6.2
	c0,0,18.2,1.7,25.5,5.8c0,0-5.8-7-20.5-7.4L28,6.1L27.1,5.3H26.3L25.1,7.1l-0.5,0.8l-0.7-0.8L14,7.8L6.3,8.5L5.8,9L0,10v2V22.6z"/>
</svg>
